<svg viewBox="0 0 40 40" xmlns="http://www.w3.org/2000/svg">
	<path fill="#0061AB" d="M23.1758 21.6487l-1.5229 1.5233 1.0123 2.4463 2.9563-2.957-2.4457-1.0126zm-2.0873 1.7563h-2.159l-1.0124 2.4463h4.1747l-1.0033-2.4463zm2.3292-4.4803v2.1506l2.4367 1.0125v-4.1756l-2.4367 1.0125zm-5.0616 4.2473l-1.523-1.5233-2.4367 1.0126 2.9563 2.957 1.0034-2.4463zm4.3091-8.7903l-1.0123 2.4463 1.5229 1.5233 2.4457-1.0126-2.9563-2.957zm-3.7357 2.2043h2.159l1.0033-2.4373h-4.1747l1.0124 2.4373zm-2.3293 4.4893v-2.1506l-2.4367-1.0125v4.1756l2.4367-1.0125zm.2329-2.724l1.523-1.5233-1.0034-2.4463-2.9563 2.957 2.4367 1.0126zm1.6126-5.8065h14.7637c.5106 0 1.0213.1971 1.4155.5914.3941.3943.5912.905.5912 1.4158 0 .5107-.1971 1.0304-.5912 1.4247l3.3863 3.3871C39.3371 18.0376 40 16.2903 40 14.552c0-1.7384-.6629-3.4767-1.9888-4.8029-1.3259-1.32616-3.0638-1.98924-4.8018-1.98924h-9.9798l-4.7839 4.78494zm5.7245 1.0753l10.4367 10.448c.3673.3584.5913.8602.5913 1.4158 0 .5555-.224 1.0573-.5913 1.4247-.3583.3584-.86.5824-1.4154.5824v4.7939c1.8723 0 3.5745-.7616 4.8018-1.9892 1.2363-1.2366 1.9888-2.9301 1.9888-4.8118 0-1.8728-.7615-3.5753-1.9888-4.8119l-7.0504-7.0519h-6.7727zm3.2878 4.8118v14.767c0 .5108-.1971 1.0305-.5913 1.4248-.3941.3853-.9048.5824-1.4154.5824-.5106 0-1.0302-.1971-1.4155-.5824l-3.3953 3.3871C21.9754 39.3369 23.7133 40 25.4513 40c1.738 0 3.4759-.6631 4.8107-1.9892 1.3259-1.3262 1.9888-3.0735 1.9888-4.8119l-.0089-9.9731-4.7839-4.7939zm-1.075 5.7258l-10.4368 10.448c-.3673.3585-.8689.5825-1.4244.5825-.5554 0-1.0481-.224-1.4154-.5825-.3673-.3673-.5913-.8691-.5913-1.4247H7.72228c0 1.8817.76148 3.5753 1.99777 4.8118 1.22735 1.2276 2.92945 1.9893 4.80175 1.9893 1.8813 0 3.5745-.7617 4.8108-1.9893l7.0504-7.0609v-6.7742zm-4.8108 3.2885H6.80851c-.51064 0-1.03023-.1971-1.41545-.5824-.39418-.3943-.59127-.905-.59127-1.4247 0-.5108.19709-1.0215.59127-1.4158l-3.38634-3.3871C.671893 21.9624.00895857 23.7007.00895857 25.4391c0 1.7383.66293443 3.4856 1.99776143 4.8118 1.32587 1.3262 3.06383 1.9892 4.80179 1.9892h9.97989l4.7838-4.7939zm-5.7514-1.138L5.3841 15.8692c-.3673-.3674-.59127-.8692-.59127-1.4248 0-.5555.22397-1.0573.59127-1.4157.35834-.3674.86002-.5914 1.41545-.5914V7.65233c-1.87234 0-3.57447.76165-4.80179 1.98925C.761478 10.8692 0 12.5717 0 14.4444c0 1.8818.761478 3.5753 1.99776 4.8119l7.05039 7.0519h6.77265zm-3.2609-4.7491V6.79212c0-.51076.1971-1.02151.5913-1.41578.3852-.39426.9048-.58243 1.4154-.59139.5107 0 1.0213.19713 1.4155.59139l3.3953-3.38709C18.0426.663082 16.3046 0 14.5666 0c-1.7379 0-3.4759.663082-4.81072 1.98925-1.32587 1.32616-1.9888 3.06451-1.9888 4.81183v9.97312l4.79282 4.7849zm1.075-5.7258L24.0717 5.39427c.3673-.36739.869-.58244 1.4244-.58244.5554 0 1.0481.22401 1.4154.58244.3673.36738.5913.86021.5913 1.42473h4.7928c0-1.88172-.7704-3.58423-1.9977-4.81183C29.0705.77957 27.3684.0179211 25.4961.0179211c-1.8813 0-3.5834.7616489-4.8108 1.9892489l-7.0504 7.05197v6.77416zm7.57 7.052l1.6842-1.6935v-2.3925l-1.6842-1.6846H18.813l-1.6932 1.6846v2.3925l1.6932 1.6935h2.3919zm-3.8342 3.4857l-3.7358-3.7276v-5.2868l3.7358-3.7365h5.2766l3.7357 3.7365v5.2868l-3.7357 3.7276h-5.2766z"/>
</svg>
