<svg viewBox="0 0 40 40" xmlns="http://www.w3.org/2000/svg">
	<path fill="#fff" d="M35 0H5v40h30V0z"/>
	<g fill="#014D2F">
		<path fill="#014D2F" d="M20.4088 25.0325v9.1178c2.4977 0 4.523-2.0415 4.523-4.5589 0-2.5175-2.023-4.5589-4.523-4.5589zM6.69643 15.6164h-.00705v22.643H20.4088v-4.109c-2.4976 0-4.523-2.0414-4.523-4.5589 0-2.5174 2.0254-4.5589 4.523-4.5589V2.0415c-7.4906 0-13.5761 6.05566-13.71237 13.5749z"/>
		<path d="M20.4088 0H5v40h30V0H20.4088zm13.8863 39.2895H5.70489V.71048H20.4088v1.33096c7.5823 0 13.7406 6.05329 13.8793 13.57256h.007v23.6755z"/>
	</g>
</svg>
