<svg viewBox="0 0 40 40" xmlns="http://www.w3.org/2000/svg">
	<path fill="#FC0" d="M12.6756 7.91282c-.4185-.53047-.7362-1.13386-.939-1.77822-.6893.41958-1.5784.999-2.33767 1.41858 1.34367 1.02298 2.18677 2.57142 2.31767 4.25572 1.9281-1.1089 3.996-2.30767 5.6244-3.31666.8092-.48951 2.0479-1.21878 2.937-1.72827 2.9071 1.67832 5.5545 3.21678 8.5715 4.99503.3996-2.21781.999-3.25677 2.2977-4.24578-.7193-.42957-1.6084-.999-2.3477-1.43856-.1039.45355-.2617.89311-.4695 1.30869-.9341 1.22677-2.5944 1.64136-3.996.999-.8082-.31368-1.3636-1.06393-1.4286-1.92807-.025-1.11788.5355-2.16683 1.4785-2.76723-1.1388-.66933-2.997-1.72827-4.0559-2.32767-1.1389.67932-3.037 1.67832-4.0959 2.31768.5504.44255.992 1.00699 1.2887 1.64835.2787.56044.2787 1.21778 0 1.77822-.8741 1.52148-2.8162 2.04595-4.3377 1.17183-.1808-.1039-.3506-.22578-.5075-.36264Z"/>
	<path fill="#00753A" d="M7.08118 7.45255c-.22977.24975.08991.41958.1998.45954 2.20779.84915 2.61738 1.65834 2.86712 3.36661.1309.6004.1579 1.2188.0799 1.8282.022.3027.2848.5305.5874.5095.067-.005.1319-.022.1919-.05l9.2507-5.44452c4.4955 2.72732 5.1449 3.07692 9.2707 5.45452.2448.1489.5645.072.7143-.1728.054-.0889.0809-.1918.0749-.2967-.1538-1.1489.038-2.3167.5495-3.35665.4675-.94206 1.3397-1.61838 2.3676-1.83816.2698-.05994.3697-.41958.2198-.4995-2.3976-1.31868-3.7063-1.998-5.4545-2.99701-.2598 0-.3697.08991-.3597.24975.027.46854-.003.93807-.0899 1.39861-.1498.72028-.6833 1.2997-1.3886 1.50849-.7722.14985-1.5485-.23477-1.8981-.93906-.0769-.29771-.0769-.61139 0-.90909.0799-.55945.999-1.42858 1.7982-1.91809.1399-.07992.2298-.26973 0-.44955C22.6156 1.35864 22.4258 1.22877 20.258 0c-1.7183.999001-3.4965 1.998-5.7842 3.37662-.1998.21978-.1199.32967 0 .40959 1.3886 1.01898 1.7183 1.58842 1.8881 2.24776.2897 1.12887-1.1588 1.77822-1.8781 1.64835-1.6584-.28971-1.5984-2.35765-1.5984-2.94706 0-.10989-.2598-.20979-.3397-.27972-2.3776 1.28872-3.24674 1.75825-5.46452 2.99701ZM11.257 12.7373c-.1798.1298-.4695.1898-.3896-.2198.3896-1.6384-.7692-4.40561-2.64736-4.99502L12.276 5.27472c-.027.64336.1289 1.28072.4495 1.83817.999 1.83816 4.6054 1.30869 4.3457-1.17882-.2308-.84316-.7602-1.57443-1.4885-2.05795-.0799-.12987-.2797-.28971.0799-.4995 1.5485-.87912 3.0869-1.78821 4.6254-2.677319.999.569429 1.998 1.138859 4.5854 2.697299.3396.18981.1898.37962.0799.47952-.999.8991-1.8881 1.91809-1.3387 3.11689.5075.75224 1.3597 1.1998 2.2678 1.18881.964-.05195 1.8122-.65435 2.1778-1.54845l.2098-1.36863c1.6683.999 2.0479 1.14885 4.0559 2.1978-1.2737.54245-2.2177 1.65234-2.5474 2.99696-.2068.6474-.2308 1.3387-.0699 1.998 0 .1899 0 .4096-.4296.2398-3.6364-2.1479-4.995-2.997-8.991-5.28471-3.2368 1.96803-5.7942 3.47651-9.031 5.32471Zm-1.25874 2.1278c-.24975.2198-.20979.3797-.07992.7193.74926 1.8482-1.28871 5.3247-.42957 10.4096.4995 2.997 2.90713 6.2038 5.15483 8.4116.1299-.0899.1898-.3796.2797-.4595-1.969-1.8372-3.4745-4.1129-4.3956-6.6434-1.48848-4.4855-.1398-7.1928.08-9.8302l.0799-.8891s-.1199-.999-.1299-.999c-.01 0-.0499-.2397 0-.2797 3.3067-1.6583 6.5634-3.5465 9.6603-5.47453 2.2478 1.19883 3.5365 2.10793 5.7643 3.34663 1.2957.7663 2.6293 1.4666 3.996 2.0979.0699.0799.0799.1998 0 .4096-.2338 1.3147-.1199 2.6683.3297 3.9261h.4995c-.2498-.999-.6494-2.997-.1499-3.996.0909-.2348.054-.4995-.0999-.6993-.5704-.3996-1.1838-.7353-1.8282-.999-4.3856-2.5375-4.2257-2.3377-8.3916-4.8152-2.6074 1.2288-6.7133 3.996-8.3916 4.8052-.7193.3197-1.3087.6893-1.94804.959Zm1.25874.8192c.2997 1.1688-.2098 3.8162-.6094 5.6344-.1199.7992-.2997 2.4176.3996 2.997.3197.1329.6793.1329.999 0 1.7283-.9491 4.995-3.2468 6.2937.1498.999 2.7173 1.2887 7.3227.999 10.3896-.1998-1.998-.999-10.2697-4.6853-9.1408-1.2687.3996-2.8671.8391-3.996-.2697.6623 3.0269 2.2058 5.7902 4.4356 7.942.3496-.9191.4395-1.3486.6593-1.998-.5594-1.5684-1.6883-3.0769-1.8382-4.8052.2997 0 .999-.3396 1.3687-.2098.8461.2398 1.4166 1.03 1.3786 1.9081 0 2.5675-.0599 3.8362 0 6.7633l3.3267 3.1168V10.7592c-3.996 2.3277-5.5545 3.2668-8.7313 4.9251Zm3.0869 2.1179c.3557-.957 1.2987-1.5664 2.3177-1.4985v5.4945c-.983-.1369-1.982.0829-2.8172.6194-.5195-1.0689.1499-3.9361.4995-4.6154Zm15.6344 6.024c.2537-.2678.4565-.5794.5994-.9191.2497 2.1179-.1958 4.2607-1.2687 6.1039-1.998 3.8362-5.9441 7.2427-8.9911 10.2298-1.8181-1.7383-2.5274-2.4476-3.6563-3.5465 0 .2098-.1698.5195 0 .6993 1.7083 1.7383 2.8372 2.7473 3.7163 3.6064 1.4186-1.2987 2.8371-2.997 4.2357-4.2557 3.6064-3.1869 8.1219-9.4006 6.4736-14.3757-.1319-.0289-.2678-.0289-.3996 0-.4196.8991-.6694 2.1279-1.7283 2.2678-2.6374-.999-3.0769-2.3377-4.995-1.7982v-5.5045c2.7572 1.4885 3.2068 1.6983 5.6444 3.0669-.2658-1.2268-.3507-2.4855-.2498-3.7363-2.8671-1.5584-4.1658-2.2777-8.6813-4.8351v27.3726c1.8641-1.6973 3.6353-3.4945 5.3047-5.3846 1.3836-1.5125 2.4655-3.2757 3.1868-5.1948l.6094-2.1579c-.9241.7453-2.2018.8752-3.2568.3297-2.3176-.999-3.5464 1.0589-4.3656 3.1469-.7293 1.9081-.7492 4.1558-.999 5.994-.1389-1.9021-.1389-3.8122 0-5.7143.1269-1.5884.4635-3.1539.999-4.6554.3557-1.3616 1.7473-2.1768 3.1079-1.8211.1538.0399.3047.0949.4485.1628 1.2788.4795 2.9971 1.998 4.086 1.1988.0599-.05.0699-.1998.1598-.2797h.02Zm-5.994 8.7312c0-2.5974 0-3.2267.0499-5.1248.7093-.9191 1.3886-1.3587 2.6174-.7992-.3926 2.1628-1.3077 4.1968-2.6673 5.924Z"/>
</svg>