<?xml version="1.0" encoding="utf-8"?>
<!-- Generator: Adobe Illustrator 25.4.1, SVG Export Plug-In . SVG Version: 6.00 Build 0)  -->
<svg version="1.1" id="Layer_1" xmlns="http://www.w3.org/2000/svg" xmlns:xlink="http://www.w3.org/1999/xlink" x="0px" y="0px"
	 viewBox="0 0 40 40" style="enable-background:new 0 0 40 40;" xml:space="preserve">
<style type="text/css">
	.st0{fill:url(#SVGID_1_);}
	.st1{fill:url(#SVGID_00000076576908227425693640000013035658554489243010_);}
	.st2{fill:url(#SVGID_00000020358283660576242590000001662797131667766197_);}
	.st3{fill:url(#SVGID_00000110465459129283135550000011008283413034891199_);}
</style>
<g>
	<linearGradient id="SVGID_1_" gradientUnits="userSpaceOnUse" x1="1.760450e-04" y1="19.8766" x2="19.6911" y2="19.8062">
		<stop  offset="0" style="stop-color:#CC2445"/>
		<stop  offset="0.144" style="stop-color:#CD213F"/>
		<stop  offset="0.613" style="stop-color:#CE1930"/>
		<stop  offset="1" style="stop-color:#CF162B"/>
	</linearGradient>
	<path class="st0" d="M14.8,19.9C14.8,12.3,20.6,6,28,5.2c0,0,0.1,0,0.1-0.1c0,0,0-0.1-0.1-0.1H14.8C6.6,5,0,11.7,0,19.8
		C0,28,6.7,34.6,14.8,34.6H28C20.6,33.8,14.8,27.5,14.8,19.9z"/>
	
		<linearGradient id="SVGID_00000075148348341594832750000001187157839166152621_" gradientUnits="userSpaceOnUse" x1="23.1317" y1="10.2299" x2="34.9418" y2="10.1877">
		<stop  offset="0" style="stop-color:#CC2445"/>
		<stop  offset="0.144" style="stop-color:#CD213F"/>
		<stop  offset="0.613" style="stop-color:#CE1930"/>
		<stop  offset="1" style="stop-color:#CF162B"/>
	</linearGradient>
	<path style="fill:url(#SVGID_00000075148348341594832750000001187157839166152621_);" d="M27.5,12.6c0.2,0.3,0.6,0.6,1.1,0.6h10.6
		c0.6,0,0.9-0.7,0.6-1.2c-2.4-3-6-4.8-10-4.8H29c-2.2,0-4.1,0.5-5.9,1.4C24.9,9.6,26.4,11,27.5,12.6z"/>
	
		<linearGradient id="SVGID_00000150086688278367919750000007671245516323240333_" gradientUnits="userSpaceOnUse" x1="23.0173" y1="29.638" x2="34.8198" y2="29.5958">
		<stop  offset="0" style="stop-color:#CC2445"/>
		<stop  offset="0.144" style="stop-color:#CD213F"/>
		<stop  offset="0.613" style="stop-color:#CE1930"/>
		<stop  offset="1" style="stop-color:#CF162B"/>
	</linearGradient>
	<path style="fill:url(#SVGID_00000150086688278367919750000007671245516323240333_);" d="M39.1,26.6H28.7c-0.2,0-0.4,0.1-0.6,0.2
		c-0.2,0.1-0.4,0.3-0.5,0.5c-1.2,1.6-2.7,3-4.5,4c1.7,0.9,3.8,1.4,5.9,1.4h0.9c4,0,7.5-1.8,9.9-4.7C40.1,27.4,39.8,26.6,39.1,26.6z"
		/>
	
		<linearGradient id="SVGID_00000124144896641408151820000007834240561837367231_" gradientUnits="userSpaceOnUse" x1="30.1145" y1="19.9175" x2="35.7301" y2="19.8975">
		<stop  offset="0" style="stop-color:#CC2445"/>
		<stop  offset="0.144" style="stop-color:#CD213F"/>
		<stop  offset="0.613" style="stop-color:#CE1930"/>
		<stop  offset="1" style="stop-color:#CF162B"/>
	</linearGradient>
	<circle style="fill:url(#SVGID_00000124144896641408151820000007834240561837367231_);" cx="34.1" cy="19.9" r="4"/>
</g>
</svg>
