<svg viewBox="0 0 40 40" xmlns="http://www.w3.org/2000/svg">
	<path fill="#009882" d="M21.6789.068604C21.1239.0215833 20.5666 0 20.0008 0h-.0709c-.5404.00077083-1.0769.0246666-1.6088.068604-.2058.0161875-.4093.037771-.6128.062437V11.49c0 .562.4594 1.0214 1.0198 1.0214H21.13c.562 0 1.0237-.4594 1.0237-1.0214V.113312c-.158-.016958-.3176-.0292913-.4748-.044708Zm2.6956.410083V12.6023c-.0401.4224-.3731.7585-.7963.8009v.0031h-2.3148c-.4926 0-.8903.3978-.8903.8872v6.2191c0-.4694.3638-.851.824-.8826h4.4284c.0286.0023.0532.0023.081.0023.0277 0 .0555 0 .084-.0023.3014-.027.5581-.2104.6976-.4663.0008-.0054.0031-.007.0054-.0132.0208-.0377.037-.0801.0532-.1225.0061-.0247.0162-.0501.0208-.0771.0062-.0177.01-.037.01-.0586.01-.0462.0131-.0894.0162-.138V6.02636c5.2501 2.49673 8.8777 7.84474 8.8777 14.04224 0 7.8293-5.7898 14.3074-13.3223 15.3835v-8.7189h3.4749c.0285.0023.0532.0039.0809.0039.0278 0 .0555-.0023.084-.0039.4494-.0431.804-.4193.804-.8826v-6.2298c0 .4925-.397.888-.888.888h-4.4438c-.4926 0-.8903.3985-.8903.8887v5.3272h-.888v-5.3272c0-.4902-.397-.8887-.888-.8887h-4.4423c-.491 0-.8919-.3955-.8919-.888v6.229c.007.4633.3577.8395.8109.8826.0247.0024.0525.0039.081.0039.0254 0 .0547-.0023.0832-.0039h3.4726v8.7197C10.1765 34.376 4.38912 27.8979 4.38912 20.0686c0-6.1975 3.62599-11.54628 8.87068-14.04224V18.7474c0 .0031.0039.0031.0039.0062.0031.0485.0062.0917.0123.1379.0054.0216.0085.0409.0155.0586.003.027.0115.0524.0208.0771.0146.0424.0331.084.0532.1226.0007.0061.003.0085.0061.0131.1395.2559.3947.4401.6992.4663.0246.0023.0524.0023.0809.0023.0254 0 .0547 0 .0832-.0023h4.4223c.4648.0316.8271.4132.8271.8826v-6.219c0-.4895-.397-.8873-.888-.8873h-2.3117l-.0054-.003c-.4201-.0424-.7554-.3785-.7947-.8009V.50952C6.61374 2.55762 0 10.5034 0 20c0 11.0206 8.91929 19.9592 19.9299 19.9985h.0709C31.046 39.9985 40 31.0445 40 20 40 10.4571 33.3184 2.47514 24.3745.478687Z"/>
</svg>