<svg xmlns="http://www.w3.org/2000/svg" viewBox="0 0 40 40">
	<g fill="#939598">
		<path d="M25.3 19.4h-1.5v-5.2h1.4c.5 0 .9.1 1.2.3.3.2.4.5.4 1 0 .2-.1.5-.3.7-.2.2-.4.3-.6.4.4.1.7.3.9.5.2.2.3.5.3.9 0 .5-.2.8-.5 1.1-.3.2-.7.3-1.3.3zm-.7-4.6v1.5h.6c.7 0 1-.3 1-.8s-.3-.7-.9-.7c-.3-.1-.6 0-.7 0zm0 2v2h.6c.4 0 .8-.1 1-.3.2-.2.3-.4.3-.8 0-.3-.1-.6-.3-.8-.2-.2-.5-.2-1-.2l-.6.1zm6 2.6l-.4-1.1h-1.9l-.4 1.1h-.8l2.1-5.3h.2l2 5.3h-.8zm-1.3-3.9l-.8 2.3H30l-.7-2.3zm5.6 4l-2.7-3.8v3.7h-.7v-5.2h.3l2.6 3.6v-3.6h.7v5.3h-.2zm3.8-.1L37.3 17l-.7 1v1.4h-.7v-5.2h.7V17l1.9-2.8h.8l-1.6 2.3 1.8 3h-.8z"/>
		<path d="M24.8 8c.6 3.1-2.6 9.2-8.1 14.8-6.4 6.7-13.6 10.2-16 7.9-1.1-1-1-3.1 0-5.6-.7 2-.6 3.6.4 4.4 2.4 2.1 9.5-1.4 15.8-7.8C22.1 16.6 25.1 11 24.8 8z"/>
	</g>
	<path fill="#ed1c24" d="M8.1 17.3c0 .3 0 .5-.1.7-.1.2-.2.4-.3.5-.1.2-.3.3-.4.4s-.4.2-.6.3c-.2.1-.4.1-.7.2-.2 0-.5.1-.8.1H3.3c-.1 0-.2 0-.3-.1s-.1-.2-.1-.4v-6.2c0-.2 0-.3.1-.4.1-.1.2-.1.3-.1h1.8c.4 0 .8 0 1.1.1.3.1.6.2.8.3.2.2.4.3.5.6s.2.5.2.8c0 .2 0 .3-.1.5 0 .2-.1.3-.2.4l-.3.3c-.1.1-.3.2-.4.2.2 0 .4.1.6.2.2.1.3.2.4.4.1.1.2.3.3.5.1.3.1.5.1.7zm-1.9-3c0-.1 0-.3-.1-.4 0-.1-.1-.2-.2-.3-.1-.1-.2-.1-.3-.2-.1 0-.3-.1-.5-.1h-.8v1.9h.8c.2 0 .4 0 .5-.1s.3 0 .4-.1c.1-.1.1-.2.2-.3v-.4zm.4 3.1c0-.2 0-.3-.1-.4-.1-.1-.1-.2-.2-.3-.1-.1-.2-.2-.4-.2s-.4-.1-.6-.1h-1v2h1.1c.2 0 .4 0 .5-.1.1 0 .3-.1.4-.2.1-.1.2-.2.2-.3.1-.1.1-.3.1-.4zm6 1.5v.5s0 .1-.1.1H8.8c-.1 0-.2 0-.3-.1-.1-.1-.1-.2-.1-.4v-6.2c0-.2 0-.3.1-.4.1-.1.2-.1.3-.1h3.7s0 .1.1.1v1s0 .1-.1.1H9.8v1.8H12.1l.1.1v1s0 .1-.1.1H9.8v2h2.7l.1.1V18.9zm4.9-1.6c0 .4-.1.7-.2 1-.1.3-.3.5-.6.7-.2.2-.5.3-.8.4-.3.1-.7.1-1 .1-.2 0-.5 0-.7-.1-.2 0-.4-.1-.6-.1-.2-.1-.3-.1-.4-.2s-.2-.1-.2-.2c0 0-.1-.1-.1-.2v-.4-.3-.2s0-.1.1-.1h.1c.1 0 .1 0 .2.1s.2.1.4.2c.1.1.3.1.5.2s.4.1.7.1c.2 0 .3 0 .5-.1.1 0 .3-.1.4-.2.1-.1.2-.2.2-.3.1-.1.1-.2.1-.4s0-.3-.1-.4l-.3-.3c-.1-.1-.3-.2-.5-.3l-.6-.3-.6-.3c-.2-.1-.3-.2-.5-.4-.1-.2-.3-.3-.3-.6-.1-.2-.1-.5-.1-.8 0-.3.1-.6.2-.9.1-.3.3-.5.5-.6.2-.2.5-.3.8-.4.3-.1.6-.1.9-.1h.5c.2 0 .3.1.5.1.1 0 .3.1.4.2.1.1.2.1.2.1l.1.1v1s0 .1-.1.1H17s-.1 0-.2-.1-.2-.1-.3-.2c-.1-.1-.3-.1-.4-.2-.2-.1-.4-.1-.6-.1-.2 0-.3 0-.4.1-.1 0-.2.1-.3.2-.1.1-.1.2-.2.2 0 .1-.1.2-.1.3 0 .2 0 .3.1.4l.3.3c.1.1.3.2.5.3l.6.3.6.3c.2.1.3.2.5.4.1.2.3.3.3.6 0 .5.1.8.1 1zm5.3-4.4v.5s0 .1-.1.1H20.8V19.4l-.1.1h-1.2c-.1 0-.1 0-.1-.1V13.5h-1.8-.1s0-.1-.1-.1v-.2-.3-.3-.2s0-.1.1-.1H22.8l.1.1v.2c-.1.1-.1.2-.1.3zM7.4 27.2v.5s0 .1-.1.1h-4c-.1 0-.2 0-.3-.1-.1-.1-.1-.2-.1-.4v-6.7c0-.2 0-.3.1-.4.1-.1.2-.1.3-.1h3.9l.1.1v1s0 .1-.1.1H4.4v1.9h2.4l.1.1v1s0 .1-.1.1H4.4v2.2h2.9l.1.1v.5zm4.5-6.4v.5s0 .1-.1.1H9.1v2.1h2.4l.1.1v1c0 .1 0 .1-.1.1H9.1v3l-.1.1c-.1 0-.1 0-.2.1s-.2 0-.4 0H8c-.1 0-.2 0-.2-.1-.1 0-.1 0-.1-.1v-7c0-.2 0-.3.1-.4.1-.1.2-.1.3-.1h3.7l.1.1v.5zm4.4 0v.5s0 .1-.1.1h-2.6v2.1H16l.1.1v1c0 .1 0 .1-.1.1h-2.4v3l-.1.1c-.1 0-.1 0-.2.1h-.8c-.1 0-.2 0-.2-.1s-.1 0-.1-.1v-7c0-.2 0-.3.1-.4.1-.1.2-.1.3-.1h3.7l.1.1v.2c-.1 0-.1.1-.1.3zm7.3 3.1c0 .6-.1 1.2-.2 1.7-.2.5-.4.9-.7 1.3-.3.3-.7.6-1.2.8-.5.2-1 .3-1.6.3-.6 0-1.1-.1-1.6-.2-.4-.2-.8-.4-1.1-.7-.3-.3-.5-.7-.7-1.2-.1-.5-.2-1.1-.2-1.8 0-.6.1-1.2.2-1.7.2-.5.4-.9.7-1.3.3-.3.7-.6 1.2-.8.5-.2 1-.3 1.6-.3.6 0 1.1.1 1.5.2.4.2.8.4 1.1.7.3.3.5.7.7 1.2.3.5.3 1.1.3 1.8zm-1.6 0c0-.4 0-.8-.1-1.1-.1-.3-.2-.6-.3-.8-.2-.2-.4-.4-.6-.5-.3-.1-.6-.2-.9-.2-.4 0-.7.1-1 .2-.3.1-.5.3-.6.6-.2.2-.3.5-.3.8-.1.3-.1.7-.1 1 0 .4 0 .8.1 1.1l.3.9c.2.2.4.4.6.5.3.1.6.2 1 .2s.7-.1 1-.2c.3-.1.5-.3.6-.6.2-.2.3-.5.3-.9v-1zm7.5 3.7v.1l-.1.1H28c-.1 0-.1-.1-.1-.1s0-.1-.1-.1l-.7-1.7c-.1-.2-.2-.4-.2-.5-.1-.2-.2-.3-.3-.4-.1-.1-.2-.2-.3-.2-.1-.1-.3-.1-.4-.1h-.5v3l-.1.1h-1.2c-.1 0-.1 0-.1-.1v-7.1c0-.2 0-.3.1-.4.1-.1.2-.1.3-.1h2.9c.3 0 .6.1.8.2.2.1.5.2.6.4.2.2.3.4.4.6.1.2.1.5.1.8 0 .3 0 .5-.1.7l-.3.6c-.1.2-.3.3-.5.4l-.6.3c.1.1.2.1.3.2l.3.3c.1.1.2.2.3.4.1.1.2.3.2.5l.6 1.5c.1.2.1.3.1.3v.3zm-2-5.2c0-.3-.1-.5-.2-.6-.1-.2-.3-.3-.6-.4h-1.4v2.2h.8c.2 0 .4 0 .6-.1.2-.1.3-.1.4-.2.1-.1.2-.2.2-.3.2-.3.2-.4.2-.6zm7.5-1.6v.5c0 .1 0 .1-.1.1h-2v6.3l-.1.1h-1.2c-.1 0-.1 0-.1-.1v-6.3h-1.9-.1l-.1-.1v-.2-.3-.3-.2c0-.1 0-.1.1-.1h5.6l.1.1v.2c-.2 0-.2.1-.2.3zm5 4.7c0 .4-.1.8-.2 1.1-.2.3-.4.6-.6.8-.3.2-.6.4-.9.5-.3.1-.7.2-1.1.2-.3 0-.5 0-.7-.1-.2 0-.4-.1-.6-.2-.2-.1-.3-.1-.4-.2-.1-.1-.2-.1-.3-.2 0-.1-.1-.1-.1-.2v-.4-.3-.2c0-.1 0-.1.1-.1h.1c.1 0 .1 0 .2.1s.2.1.4.2.3.2.6.2c.2.1.5.1.8.1.2 0 .4 0 .5-.1.2 0 .3-.1.4-.2.1-.1.2-.2.2-.3.1-.1.1-.3.1-.4 0-.2 0-.3-.1-.4-.1-.1-.2-.2-.4-.3-.2-.1-.3-.2-.5-.3l-.6-.3-.6-.3c-.2-.1-.4-.3-.5-.4-.2-.2-.3-.4-.4-.6-.1-.2-.1-.5-.1-.8 0-.4.1-.7.2-1s.3-.5.5-.7c.2-.2.5-.3.8-.4.3-.1.6-.1 1-.1h.5c.2 0 .4.1.5.1.2 0 .3.1.4.2.1.1.2.1.2.1l.1.1v1.1c0 .1 0 .1-.1.1h-.1s-.1 0-.2-.1-.2-.1-.3-.2c-.1-.1-.3-.1-.5-.2s-.4-.1-.6-.1c-.2 0-.3 0-.4.1-.1 0-.2.1-.3.2-.1.1-.1.2-.2.3 0 .1-.1.2-.1.3 0 .2 0 .3.1.4.1.1.2.2.4.3.2.1.3.2.5.3l.6.3.6.3c.2.1.4.3.5.4.2.2.3.4.4.6.2.1.2.4.2.7z"/>
	<path fill="#f58220" d="M25.4 10.4c-1.1.3-2.3-.3-2.7-1.5-.3-1.1.3-2.3 1.5-2.7 1.1-.3 2.3.3 2.7 1.5.3 1.2-.3 2.4-1.5 2.7z"/>
</svg>
