<svg xmlns="http://www.w3.org/2000/svg" viewBox="0 0 40 40">
	<path fill="#1d1d1b" d="M0 0h40v40H0z"/>
	<g fill="#f9f8fd">
		<path d="M33.3 20c0 1.4-1.1 2.4-2.4 2.4-1.3 0-2.4-1.1-2.4-2.4 0-1.3 1.1-2.4 2.4-2.4v-1.3c-2 0-3.7 1.6-3.7 3.7s1.7 3.7 3.7 3.7 3.7-1.6 3.7-3.7h-1.3zM17.6 16.6l-2.4 7.1h1.4l.3-.8c0-.1.1-.2.3-.2h2.2c.1 0 .2.1.3.2l.3.8h1.4L19 16.6h-1.4zm1.2 4.8h-1.3c-.1 0-.2-.1-.2-.2l.7-2.1c.1-.2.2-.2.3 0l.7 2.1c0 .2-.1.2-.2.2z"/>
		<path d="M25.4 20.8c0 .2-.2.3-.3.1L23 16.6h-1.7v7.1h1.3v-4.2c0-.2.2-.3.3-.1l2.3 4.3h1.6v-7.1h-1.3v4.2zM12.2 22.4l-.1-.1V16.6h-1.3v7.1H15v-1.2l-2.8-.1c.1 0 .1 0 0 0zM9.3 19.9c.5-.3.7-.8.7-1.4 0-1.1-.8-1.9-2-1.9H5.3v7.1h2.9c1.1 0 2-.9 2-2.1 0-.7-.3-1.3-.9-1.7zm-2.7-2c0-.1.1-.2.2-.2h1c.5 0 .8.4.8.9s-.3.9-.8.9h-1c-.1 0-.2-.1-.2-.2v-1.4zm1.2 4.6h-1c-.1 0-.2-.1-.2-.2v-1.4c0-.1.1-.2.2-.2h1c.6 0 .9.4.9.9.1.5-.3.9-.9.9z"/>
	</g>
</svg>