<svg viewBox="0 0 40 40" xmlns="http://www.w3.org/2000/svg">
	<path fill="#C5AF62" d="M40 0H0v40h40V0Z"/>
	<path fill="#fff" d="M23.8242 3.28553V19.3615c0 1.181.958 2.139 2.139 2.139 1.181 0 2.139-.958 2.139-2.139v-9.082c2.721 2.306 4.449 5.749 4.449 9.596 0 6.946-5.631 12.577-12.577 12.577s-12.57696-5.632-12.57696-12.578c0-3.765 1.656-7.141 4.27796-9.444v8.931c0 1.181.958 2.139 2.139 2.139 1.181 0 2.139-.958 2.139-2.139V3.32753C8.49024 5.13453 2.94824 11.8565 2.94824 19.8745c0 9.403 7.62296 17.026 17.02596 17.026 9.403 0 17.026-7.623 17.026-17.026 0-8.079-5.627-14.84397-13.176-16.58897Zm-4.278-.266c-.945 0-1.711.766-1.711 1.711V19.3615c0 1.181.958 2.139 2.139 2.139 1.181 0 2.139-.958 2.139-2.139V3.01953h-2.567Zm.428 2.481c-.378 0-.684-.306-.684-.684 0-.378.306-.684.684-.684.378 0 .684.306.684.684 0 .378-.306.684-.684.684Z"/>
</svg>