<svg xmlns="http://www.w3.org/2000/svg" viewBox="0 0 40 40">
	<path fill="#0057B6" d="M0 19.9828C0 31.011 8.98806 40 19.9828 40 31.011 40 40 31.011 40 19.9828 40 8.95373 31.011 0 19.9828 0 8.98806 0 0 8.95373 0 19.9828Zm6.22243-5.4626c5.11747-3.3538 10.78697-5.32433 20.36317-3.6646.5187-.3108.7951-.5872.9334-1.20977-2.3853-.86466-4.9784-1.17546-8.3322-1.10681-3.0068.06958-8.4351 1.20979-11.33895 2.90388l.89899-1.1059C10.7517 9.16154 16.0408 7.57138 19.9828 7.5018c2.8-.06866 4.2519.1039 7.5705 1.0029-.2765-.58727-.9677-.86467-1.9696-1.3137-3.2156-1.45193-9.2312-1.55584-14.1408.58727.6225-.41471 1.245-.79509 2.0401-1.14021 1.6245-.72643 4.2519-1.45193 7.5714-1.4176 2.6617.06865 5.8077.96764 7.7439 2.90386.3118.38038.4843.76075.5873 1.07155 1.5215.79508 2.3862 1.52153 2.9048 2.35093.2069.45.2765.9333.1726 1.4519.6568.3804.9676.6921 1.2793 1.1412.2069.346.3804.7264.4147 1.1068.0687.4833.1383 1.0019-.3804 1.6245.5187.2764.9334.9676 1.0029 1.3137.2422 1.1411-.4842 2.247-1.4871 3.146-1.1059.9685-3.5951 2.1431-5.5999 2.6617-4.0107 1.0029-7.5371 1.4176-10.3723 1.9362 1.2794.3117 2.9734.7264 5.8077.7264 5.9469 0 11.2369-2.8352 11.2369-2.8352s-.1039.3804-.2421.6912c-3.7685 2.2823-9.8193 3.2842-12.4115 3.146-2.593-.1039-4.8057-.5186-6.9488-1.1755-.6921.1735-1.3137.3804-1.9706.6569 3.2843 1.4872 5.7734 1.8323 8.5734 2.0401 2.8695.2069 7.6057-.4843 11.6164-1.9362-.2079.2078-.2765.4843-.4843.6578-2.0392 1.0706-6.3607 2.1421-8.539 2.247-2.1775.0686-4.8058 0-7.0881-.45-2.0039-.3804-3.595-1.0029-5.2891-1.7284-.3108.2078-.449.5186-.5186.8294 6.5685 3.4568 12.7575 3.5264 19.776 1.349l-.6569.6216c-7.7105 3.1116-13.7604 1.9019-18.427-.3461-.1382-.0686-.346-.1373-.4843-.2412.4491.7598 4.0107 3.3538 7.9861 3.6989 2.7656.2422 6.1195-.2421 8.1243-1.0372l-1.1754.5873c-.9677.4852-3.5264 1.5558-7.0871 1.3137-4.7715-.3108-7.4675-2.4196-8.643-3.5264-.5529-.5177-.8303-1.1059-1.00286-1.8323-1.07155-.552-1.76273-1.1402-2.31659-2.0392-.3108-.4843-.24122-1.0716-.17257-1.5558.03433-.1383.06959-.3108.13824-.4491-.51861-.346-1.07155-.7607-1.27937-1.1754-.48336-.8304-.17256-1.5559.13916-2.1441-.27739-.3108-.55386-.6216-.65777-.9676-.13824-.3804-.13824-.7608-.10298-1.1755.06865-.6911.44903-1.348.96764-1.9362 1.03723-1.1755 2.66172-2.1088 5.4626-3.0421 2.7313-.899 3.8372-1.0372 5.9116-1.5215 2.4205-.5529 5.3244-.7608 7.7096-1.5902-6.7067-1.1754-13.7251-.1039-19.42985 3.8372l.38038-1.1059Zm22.95627-4.1489c-.0686.3118-.45.6912-.6921.9686.7608.1726 1.4872.449 2.1784.7255-.0687-.6568-.8294-1.2794-1.4863-1.6941ZM8.43512 23.82c-.44904-.2421-.72551-.4147-1.10588-.6568-.20782.4147.17256.899.55294 1.1068.17256-.1383.38037-.2774.55294-.45Zm22.71418-8.8155c.4842.2422.8989.4147 1.348.7255.2764-.5872.1039-.9676-.5186-1.4862-.2422.2764-.553.5186-.8294.7607Zm-1.452.899c-.9685.449-2.3852.9333-4.4254 1.4167-1.6597.4156-5.6704 1.0029-10.0262 1.9362-1.3823.3117-5.0813 1.2107-6.91449 2.7313.51861.4147.83034.5186 1.38327.8294.76072-.4833 1.79702-.9333 3.31862-1.348 2.6626-.6912 4.6331-1.002 7.0536-1.3833 2.3844-.3794 6.8441-1.3128 9.2989-2.2117.8303-.2765 1.5558-.6569 2.144-1.0725-.1735-.2069-1.7636-.9677-1.8323-.8981ZM10.9595 26.2748c.3452-.2421.7951-.449 1.3137-.6568-.6921-.2765-1.4176-.5882-2.144-.9343-.31081.2079-.6216.4157-.82942.6578.55294.3108 1.07152.6216 1.65972.9333Zm-2.28224.2069c-.03433.45.24214.8647.83034 1.3481.06865-.2413.17256-.4138.37945-.656-.41471-.2078-.82941-.4499-1.20979-.6921Zm3.35384-8.2273c4.8744-1.4176 9.9909-1.8675 15.1771-3.2499-2.0402-.5538-3.146-.7607-5.2891-.5186-3.1117.3451-6.5351 1.0372-9.439 1.901-1.1402.346-7.19099 2.0744-5.46259 4.4597 0 .0352 1.03723-1.4167 5.01359-2.5922Zm18.2887-4.9792c-.796-.3451-1.7979-.7255-2.8352-1.002-.4842.3804-1.0372.7255-1.8323 1.002 1.348.2421 2.3166.6225 3.4225.9342.2078.103 1.1068-.7607 1.245-.9342Zm2.3853 4.7018c-.1382.1039-.3108.2422-.4843.3804-1.1059.8304-2.8352 1.5215-5.2548 2.1784-5.0135 1.348-8.6772 1.5558-12.8261 2.5587-.7951.1726-1.6255.449-2.4205.7951.795.3804 1.6254.7255 2.4548 1.0715 1.6941-.4842 2.4891-.6911 4.944-1.1068.9333-.1725 3.8028-.6568 5.842-1.1058 3.7342-.7951 9.1968-2.5235 7.7449-4.7715ZM.691175 19.9828C.691175 9.33411 9.36843.691175 19.9828.691175c10.6478 0 19.3251 8.642935 19.3251 19.291625 0 10.6478-8.6773 19.3251-19.3251 19.3251-10.61437 0-19.291625-8.6773-19.291625-19.3251Z"/>
</svg>