<svg xmlns="http://www.w3.org/2000/svg" viewBox="0 0 40 40">
	<path fill="#3ADCC9" d="M23.1638 1.0098c-.7234-.105404-1.2217.66118-.8145 1.2505 2.3717 3.42568 3.7324 7.40235 3.7324 11.6473 0 11.1826-9.4243 20.5206-21.97234 22.7245-.45516.0815-.68993-.4935-.30184-.7378C14.6499 29.2202 20.2412 19.0198 16.437 12.0295 14.3864 8.26842 9.9977 6.13635 4.53098 5.71473c-.64201-.04791-1.1355.54619-.93907 1.1403C4.71784 10.2568 5.29757 13.8789 5.34069 17.6399c.09582 8.7439-2.84595 14.9197-5.030727 18.2927-.843245 1.2984.134153 2.9801 1.724817 2.9801H16.0681c8.8062 0 13.5542-2.4147 17.4063-5.5817C37.0822 30.3653 40 25.119 40 19.8535c0-9.5584-7.3065-17.47822-16.8362-18.8437Z"/>
</svg>