<svg viewBox="0 0 40 40" xmlns="http://www.w3.org/2000/svg">
	<path fill="url(#a)" d="M0 19.9981C0 31.0438 8.9542 39.998 20 39.998c-7.0659-.4281-10.00002-3.9996-10.00002-7.9997 0-3.9997 3.36042-7.9998 10.00002-12.0002H0Z"/>
    <radialGradient id="a" cx="0" cy="0" r="1" gradientUnits="userSpaceOnUse" gradientTransform="rotate(-45 34.14015425 -14.14281491) scale(19.8369)">
		<stop stop-color="#99D98C"/>
		<stop offset=".0584617" stop-color="#99D98C"/>
		<stop offset=".65" stop-color="#CCEBB5"/>
		<stop offset=".751153" stop-color="#CCEBB5"/>
		<stop offset=".99879" stop-color="#fff" stop-opacity="0"/>
    </radialGradient>
	<path fill="url(#b)" d="M29.9986 8.00018c0 3.99972-3.36 7.99972-9.9996 11.99982h20c0-11.04575-8.9542-19.99958268-20-19.99958268C27.0645.428234 29.9986 4.00011 29.9986 8.00018Z"/>
    <radialGradient id="b" cx="0" cy="0" r="1" gradientUnits="userSpaceOnUse" gradientTransform="matrix(14.0268 -14.0268 14.0268 14.0268 19.999 20)">
		<stop stop-color="#99DEF9"/>
		<stop offset=".65" stop-color="#CCEFFC"/>
		<stop offset=".6942" stop-color="#CCEFFC"/>
		<stop offset="1" stop-color="#fff" stop-opacity="0"/>
    </radialGradient>
	<path fill="url(#c)" d="M0 19.999h20c6.6395-3.9997 9.9996-7.9997 9.9996-11.99943 0-4.00006-3.3601-7.99975675-9.9996-7.99975675C8.9542-.00018675 0 8.95365 0 19.999Z"/>
    <radialGradient id="c" cx="0" cy="0" r="1" gradientUnits="userSpaceOnUse" gradientTransform="translate(19.9998 19.9994) scale(19.9999)">
		<stop stop-color="#4DC6F4"/>
		<stop offset=".485427" stop-color="#4DC6F4"/>
		<stop offset="1" stop-color="#99DEF9"/>
    </radialGradient>
	<path fill="url(#d)" d="M20 19.9985c-6.6396 4-10 8.0001-10 11.9998 0 4.0001 3.3604 7.9997 10 7.9997 11.0457 0 19.9999-8.9542 19.9999-19.9995H20Z"/>
    <radialGradient id="d" cx="0" cy="0" r="1" gradientUnits="userSpaceOnUse" gradientTransform="translate(20 19.9984) scale(19.9999)">
		<stop stop-color="#4DBD38"/>
		<stop offset=".485427" stop-color="#4DBD38"/>
		<stop offset="1" stop-color="#9CDA8E"/>
    </radialGradient>
</svg>