<svg xmlns="http://www.w3.org/2000/svg" viewBox="0 0 40 40">
	<path fill="#264796" d="M39.9 19.6c-.1-.1-.1-.2-.1-.3-.1-.5-.2-1-.4-1.4-.3-.6-.6-1.3-1-1.9-.3-.4-.3-.4-.6-.7-.4-.4-.7-.8-1.2-1.2-.3-.3-.3-.3-.6-.5.1-.3.1-.3 1.6-4-.5.3-1.1.5-1.7.8-.9.4-1.7 1-2.4 1.6-.4-.2-.4-.2-.9-.4-1.1-.5-2.3-.9-3.5-1.3-.5-.1-1-.3-1.5-.4-1.6-.3-3.1-.5-4.7-.7-.7-.1-1.6-.2-2.4-.2h-.8c-1 .1-2 .1-3.1.2-.4 0-.7.1-1.1.1-1.1.2-2.1.3-3.2.6-.5.2-1 .3-1.4.4l-.9.3c-.4.1-.7.3-1.1.4-1 .4-1.9.8-2.8 1.3-.7.5-1.5.9-2.2 1.4-.2.2-.4.4-.6.5-.7.7-1.4 1.4-1.9 2.2C.7 17.2.3 18 .1 19c0 .2-.1.3-.1.5v1.4c0 .2.1.4.1.5.2.7.4 1.5.8 2.2.3.5.3.5.4.7.1.1.2.2.3.4.5.7 1.1 1.3 1.8 1.9.2.3.5.6.7.9.4.3.7.6 1.2.9.2.1.3.2.4.3.6.4 1.3.6 2 .9.3.1.7.2 1.1.3.6.1.6.1.9.1.4.1.4.1 1 .2.3.1.6.2 1 .3 2.5.6 4.9 1 7.5 1 .6 0 1.2 0 1.7-.1.6 0 1.1 0 1.7-.1.5-.1 1.1-.1 1.7-.2 1.3-.2 2.6-.4 3.9-.7.3-.1.6-.2 1-.3.9-.3 1.8-.6 2.6-.9.9-.4 1.8-.8 2.7-1.3.3-.2.6-.4.9-.5.5-.4 1.1-.7 1.6-1.2.2-.2.4-.4.6-.5l.5-.5c.3-.4.6-.7.9-1.2.3-.5.5-1 .7-1.4.2-.6.4-1.2.4-1.9v-.6c-.2 0-.2 0-.2-.5zm-3.6-8.7c-.5.6-.9 1.2-1.2 1.9l-.4-.3c-.2-.1-.4-.2-.5-.3.6-.5 1.3-1 2.1-1.3zm-14.7-.5.3 1.5c-.4-.6-.9-1.2-1.6-1.6.5 0 .9 0 1.3.1zm-6.8.5c.1-.1.2-.2.4-.2 1.1-.2 2.2-.3 3.3-.3h.2c1 .3 1.9.7 2.6 1.5.5.7.9 1.4 1.2 2.2.1.1.3.1.4.2-.4-1.2-.7-2.5-.8-3.7-.3-.1 2.4.2 2.7.2.4.1.8.1 1.2.2 1.1.2 2.3.5 3.4.8.9.3 1.8.6 2.7 1.1.2.1.3.2.5.2-1.9 1.8-3.7 4.7-5.8 7.6-.9-.7-1.9-1.3-3-1.8-.7-.3-1.4-.5-2.2-.7-2.8-.7-7.6-.3-6.7 3.3.7 2.2 2.8 3.5 4.9 4.6-1.6.7-4 1.2-5.8 1 1.4-1 1.7-2.2 1-3.5-1.2-1.8-3.4-2.3-5.6-2.7.2-2.9 3.1-4.9 5.6-5.7 2 .6 4.1.7 5.9-.1.4-.2.4-.4.1-.7-1.2-.6-4.3-.1-5.7.2h-.1l-.3-.3c-1-1-1.4-2.5-.1-3.4zm9.6 9.7c-.2-.7-.5-1.2-1.1-1.7.9.2 2.6 1.4 3.3 1.9-1.4 1.7-3.1 4.1-4.8 5.5-.3-.1-.6-.3-1-.4 1.7-1.2 4-3.1 3.6-5.3zm-4.2 5c-1.9-1.3-4-2.4-3.8-5 .2-1.5 1.6-2 3.2-2.1 1.7.1 2.9.4 3.9 1.7.1.2.2.3.2.4.4 2.1-1.7 3.9-3.5 5zm-6.6 1-.3.3h-.1c-.2-.1-.4-.1-.6-.1-3.1-.7-4.1-2.5-3.7-5.2 2.6 0 7.6 1.8 4.7 5zM16 15c1.5-.3 2.8-.4 4.3-.3.1.1.1.2-.1.2-.5.3-2.9.7-4.2.1zM2.5 23.5c-.4-.6-.7-1.3-.9-2 0-.2-.1-.3-.1-.4-.1-.4-.1-.7-.1-1.2 0-.3.1-.5.1-.7.2-.6.4-1.2.7-1.8.1-.2.2-.3.3-.4.5-.6.9-1 1.3-1.5.4-.4.8-.7 1.3-1.1 1.1-.7 2.3-1.4 3.5-1.9l.6-.3c1.1-.4 2.2-.7 3.4-1 .5-.1.9-.2 1.4-.3-1.9 1.2-1.6 2.8.3 3.8-2.7.4-6.9 2.4-7.3 5.7-2.1.2-4.2.9-4.5 3.1zm8.3 5.4c-1.4-.5-2.6-.9-3.8-1.6l-1.5-.9c-.6-.4-1.3-.9-1.8-1.5-.6-1.5.3-3.5 3.3-3.6-.2 2.2.9 4.2 2.9 5.4 3.1 1.5 7.1 1 10.1-.4l.2-.1c.2.1 1.1.4 1.3.4-1.9 1.5-4.9 2.8-7.6 3-1.1-.2-2.1-.5-3.1-.7zm18.1.1c-.1.1-.6.2-1.1.3-3.9.9-7.8 1.1-11.8.7 2.3-.5 4.3-1.6 5.9-3.1 2.1.8 4.9 1.4 7.2 1.2 0 .2-.1.6-.2.9zm.4-1.3c-2.9.1-5.3-.5-7-1.2 1.1-.8 4.4-5.1 4.6-5.4 2.1 2 2.8 4.7 2.4 6.6zm-2.2-6.8c2.4-3.3 3.2-4.8 5.2-7.2l.5-.5c.5.3 1 .5 1.4.9-1.8 3.8-3.3 7.7-4.6 11.7 0-1.4-.5-3.3-2.5-4.9zm11.5-.2c-.1.4-.2.9-.3 1.2-.1.1-.1.3-.2.4-.3.7-.7 1.3-1.2 1.9l-.6.6c-.5.5-1.1 1-1.8 1.4-.6.4-1.3.8-2 1.2l-1 .5c.9-4.6 2.3-8.7 4-13.1.4.3.7.6 1.1 1 .3.3.3.3.6.7.3.4.3.4.4.6.2.4.4.9.6 1.3.4.8.5 1.5.4 2.3z"/>
</svg>