<svg xmlns="http://www.w3.org/2000/svg" viewBox="0 0 40 40">
	<path fill="#476BF0" d="M0 20.0109C0 8.97027 8.97353 0 20.0136 0 31.0286 0 40 8.97027 40 20.0109 40 31.0286 31.0286 40 20.0136 40 8.97353 40 0 31.0286 0 20.0109Zm.999892 0c0 10.4665 8.529188 18.9887 19.013708 18.9887 10.4633 0 18.9865-8.5243 18.9865-18.9887 0-10.48399-8.52-19.01047-18.9865-19.01047C9.52583 1.00043.999892 9.52257.999892 20.0109ZM25.6885 7.43707c-3.1652-1.41168-9.0631-1.55165-13.8943.60004.3862-.27669.7894-.52626 1.2076-.74978.255-.13672.516-.26368.7813-.37978 1.5213-.70855 3.9746-1.3954 7.0323-1.3954.1443 0 .2887.00109.4335.00434 2.6145.04666 5.714.94944 7.6085 2.82335.3223.3928.5089.78451.5778 1.08724 1.5034.76392 2.3812 1.48002 2.8657 2.31342.21.4383.2789.8995.1845 1.4322.4931.2767.9206.6565 1.2532 1.1144.2045.3461.3668.7357.4145 1.0883.0678.459.1134.9907-.3722 1.6168.5089.255.9234.969.9733 1.2728.2545 1.1295-.4877 2.2406-1.4344 3.0989-.7086.6185-1.9613 1.313-3.2921 1.8674-.7563.3147-1.5381.5849-2.2591.7694-2.7784.7031-5.3408 1.1176-7.5836 1.4811-.9266.1508-1.799.2919-2.6096.4405.7389.1769 1.6325.3885 2.8098.5306.8105.0988 1.7556.1639 2.8781.1639 5.8931 0 11.0965-2.7789 11.0965-2.7789s-.1145.3494-.2322.6738c-3.7446 2.2656-9.6853 3.2129-12.2309 3.0968-2.5667-.1172-4.739-.5089-6.8669-1.1578-.6499.1834-1.2901.3993-1.9178.6489 3.2389 1.48 5.6879 1.8056 8.4402 2.0117 2.8185.2105 7.4919-.4633 11.4187-1.8934-.0879.089-.1551.1986-.2208.306-.0721.1172-.1432.2333-.2392.3179-2.0123 1.0634-6.2642 2.1278-8.4153 2.22-2.1289.0934-4.7179 0-6.9846-.4177-1.9423-.3906-3.54-.9961-5.2034-1.7329-.2979.2279-.4368.5089-.5089.8334 6.5011 3.3995 12.5553 3.4668 19.4721 1.3172l-.6267.6023c-7.6074 3.1-13.5498 1.8956-18.1532-.3256-.1589-.0694-.3445-.1399-.4812-.2311.44.7411 3.9513 3.3084 7.8825 3.6328 1.4214.1216 3.0078.051 4.4781-.1562 1.3303-.1877 2.5662-.4883 3.4993-.8605l-1.1556.6001c-.9489.4633-3.4684 1.5299-6.9851 1.2966-4.6924-.3255-7.3291-2.4077-8.5091-3.4928-.5545-.5122-.8068-1.0883-.97008-1.8056-1.06446-.5555-1.73449-1.136-2.28679-2.0139-.32443-.485-.2577-1.0622-.1888-1.5516l.14432-.4112c-.51216-.3744-1.0433-.7672-1.25109-1.1578-.46549-.8333-.18338-1.5517.13889-2.1072-.10254-.1183-.20182-.2366-.29188-.3548-.15517-.2051-.28321-.4102-.35319-.6153-.14052-.37-.16222-.7443-.12045-1.1588.0944-.6923.46441-1.3379.94998-1.8956 1.01563-1.1806 2.63781-2.1051 5.38579-3.0068 2.0952-.6998 3.2204-.9418 4.5648-1.2304.3934-.0847.8052-.1726 1.2652-.2778 2.3812-.5512 5.2257-.7346 7.6053-1.5679-6.6363-1.1556-13.5254-.0934-19.14444 3.7662l.36892-1.0861c5.04012-3.2834 10.61362-5.22572 20.04662-3.5829.5089-.3017.809-.6033.95-1.20336-2.36-.85504-4.9251-1.1556-8.2308-1.11111-2.9611.0944-8.3046 1.20008-11.16696 2.89497l.87456-1.0894c1.9878-1.18383 7.1902-2.73114 11.1013-2.80058 2.7491-.06836 4.1597.09223 7.4442.97222-.3033-.5523-.9723-.83225-1.9667-1.29557Zm5.0401 4.81333c-.09-.6478-.8301-1.2728-1.4789-1.6894-.0602.2105-.2257.4492-.3982.6608-.0934.115-.1888.2213-.2708.3114.7167.1866 1.4567.4601 2.1479.7172Zm-3.1646.2062c-.4655.3711-.9944.6934-1.7833.9972 1.2978.2268 2.2689.5979 3.3757.9006.0114.0054.0244.0076.0369.0065.2408 0 1.0329-.7324 1.1697-.9332-.4286-.1877-.9099-.3765-1.4258-.5534-.4368-.1497-.8979-.2918-1.3732-.4177Zm4.9469 3.4006c.2989-.5783.1144-.9483-.5079-1.4811-.2555.3038-.5333.5555-.8333.7867.2181.1041.4275.1942.6299.2897.2468.1161.4834.2398.7113.4047Zm-10.4032-1.224c-3.0523.3701-6.4301 1.0146-9.3191 1.8718l-.1541.0467c-1.4339.4361-6.85596 2.0811-5.20937 4.3489l.01953-.0217c.15734-.1779 1.30046-1.4768 4.90284-2.5239 2.5342-.7443 5.1324-1.2174 7.7713-1.6981 2.3704-.4319 4.7738-.8702 7.1919-1.5158-1.4394-.3831-2.4203-.612-3.6475-.6131-.4693 0-.9744.0336-1.5555.1052Zm3.3057 2.7984c-1.6412.4156-5.6201.994-9.8958 1.9184-1.3423.3006-5.0201 1.1556-6.82348 2.6834.28917.2387.51921.3711.76552.5002.18609.0977.38194.1943.62016.3332.74-.4872 1.7589-.9495 3.2644-1.3444 2.3747-.6305 4.2204-.9343 6.3113-1.2783l.6244-.103c2.3357-.3538 6.7508-1.2783 9.1776-2.1572.5582-.1888 1.0812-.4231 1.5267-.6955.2023-.1237.3884-.255.5544-.3928-.1622-.1823-1.7345-.9451-1.7811-.8745-.9679.4611-2.3557.9223-4.3441 1.4105Zm1.6417 3.1457c-4.9474 1.34-8.534 1.5223-12.6041 2.5227-.4688.1183-.9446.255-1.4095.4113-.3386.1128-.6717.2365-.9918.3722.7601.3938 1.5934.7422 2.4246 1.0666 1.6645-.4861 2.4544-.6945 4.8546-1.0873l1.333-.2398c1.2712-.2322 3.0463-.5609 4.4477-.8452 3.68-.79 9.0668-2.5022 7.6335-4.7222-.0717.0607-.1433.1161-.2149.1714-.0906.0716-.1807.1432-.2707.2224-1.0878.8279-2.8223 1.5018-5.2024 2.1279Zm-18.77656 3.7c.16005-.1605.37001-.3005.53222-.4394-.37217-.1921-.62717-.3548-.91959-.5415l-.16819-.1074c-.18554.421.18772.8778.55556 1.0883Zm4.29906 1.3423c-.67-.3006-1.3857-.599-2.0801-.9234-.3233.2083-.62228.4145-.85449.6228.55449.3244 1.08779.6228 1.64339.9277.4085-.2517.8409-.4622 1.2912-.6271Zm-2.70238 2.1528c.06673-.2333.18448-.4167.34668-.6478-.1828-.0977-.36513-.1943-.54742-.2952-.21159-.1182-.42209-.2409-.6326-.3787-.02549.4417.25445.8345.83334 1.3217Z"/>
</svg>