<svg xmlns="http://www.w3.org/2000/svg" viewBox="0 0 40 40">
	<path fill="#7399C6" d="M0 0h40v40H0V0Z"/>
	<path fill="#fff" d="m4.7999 5.9.8.5v2.4c-.2.1-.4.1-.5.1-1.1 0-1.4-.9-1.4-3.1 0-2.1.5-3.3 1.4-3.3.5 0 .8.3 1.1 1l.3.9h.5V2.2c-.7-.2-1.3-.2-1.6-.2-2.3 0-3.5 1.4-3.5 3.8 0 2.2.9 3.5 3.1 3.5.5 0 1.3 0 2.1-.2V5.6h-2.2l-.1.3Zm-.2 6.2c-.5-.3-.8-.7-.8-1.1 0-.5.4-.8 1-.8.5 0 .8.3 1.1 1.1l.3.8h.5V9.9c-.7-.1-1.1-.1-1.5-.1-1.6 0-2.6.8-2.6 2 0 .8.4 1.5 1.2 1.9l1 .6c.6.3.9.8.9 1.3 0 .7-.5 1.2-1.1 1.2-.6 0-.9-.4-1.4-1.8l-.2-.6h-.6v2.7c.6.1 1.3.2 1.8.2 1.7 0 2.7-.8 2.7-2.2 0-.9-.4-1.5-1.2-2.4l-1.1-.6Zm7 1.3c0-1-.7-1.6-1.9-1.6-.6 0-1.2.1-1.8.3v1.7h.6l.3-.8c.2-.6.4-.8.8-.8s.6.2.6.8v.7l-.7.3c-1.4.6-1.9 1.1-1.9 2 0 .9.5 1.4 1.3 1.4.6 0 1.1-.4 1.2-.8l.1.7h1.6v-.2l-.2-.3v-3.4Zm-1.4 2.4c0 .5-.2.9-.6.9-.3 0-.5-.3-.5-1 0-.8.3-1.2.9-1.5l.2-.1v1.7Zm-.1-12.1c-1.2 0-2.2 1-2.2 2.8 0 1.8 1 2.8 2.2 2.8 1.2 0 2.2-1 2.2-2.8 0-1.8-1-2.8-2.2-2.8Zm-.1 5.2c-.5 0-.7-.5-.7-2.4s.2-2.4.7-2.4c.5 0 .7.5.7 2.4 0 2-.1 2.4-.7 2.4Zm2.4 5.8c0 1.7.7 2.7 2 2.7.9 0 1.4-.4 1.7-1.3l-.3-.2c-.3.7-.5.9-1 1.1-.7 0-.9-.6-.9-2.2 0-2 .4-2.5.8-2.5.3 0 .5.1.7.9l.2.7h.5v-1.8c-.5-.1-1-.2-1.4-.2-1.5 0-2.3.9-2.3 2.8Zm2.4-5.6-.2-.3V2.4l-1.6.1v.1l.2.4v5.8l-.2.3v.1h1.9l-.1-.1Zm6.2 7.7v-3.4c0-1.1-.5-1.6-1.4-1.6-.4 0-1 .2-1.2.7v-2.1l-1.7.1v.2l.2.3v5.8l-.2.3v.2h1.9v-.2l-.2-.3v-3.5c0-.5.3-.9.7-.9.3 0 .5.2.5.6v3.8l-.2.3v.2h1.9v-.2l-.3-.3Zm-2.4-8.3.1.8h1.5v-.2l-.2-.3V2.4l-1.7.1v.2l.2.3v1.5c-.1-.4-.5-.7-1-.7-1.2 0-1.9.9-1.9 2.7 0 1.8.7 2.8 1.9 2.8.6 0 .9-.2 1.1-.8Zm-1.5-2c0-1.8.2-2.3.7-2.3.6 0 .7.7.7 2.3 0 1.6-.1 2.4-.7 2.4-.5 0-.7-.6-.7-2.4Zm10.5-1.2c0-1.1-.5-1.6-1.3-1.6-.7 0-1.2.3-1.4.8-.2-.5-.6-.8-1.2-.8s-1.1.3-1.3.8l-.1-.6h-.1l-1.5.2v.1l.2.3v4.3l-.2.3v.1h1.9V9l-.2-.3V5.2c0-.5.3-.9.7-.9.3 0 .5.2.5.6v3.9l-.2.3v.1h1.9V9l-.2-.3V5.2c0-.5.2-.9.6-.9.3 0 .5.2.5.6v3.9l-.2.3v.2h1.9v-.2l-.2-.3-.1-3.5Zm-3.6 8.3c-.5-.3-.7-.5-.7-.8 0-.4.2-.6.7-.6.5 0 .7.2.9.7l.2.5h.4v-1.5c-.5-.1-.9-.2-1.3-.2-1.3 0-2 .5-2 1.5 0 .6.3 1.1.9 1.4l.9.5c.5.3.7.6.7 1 0 .5-.3.8-.8.8-.6 0-.8-.3-1.2-1.3l-.2-.4h-.5v1.9c.7.1 1.2.2 1.6.2 1.4 0 2-.7 2-1.7 0-.7-.3-1.1-.7-1.5l-.9-.5Zm8.5-8.2c0-1-.7-1.6-1.9-1.6-.6 0-1.2.1-1.8.3v1.7h.5l.3-.8c.2-.6.4-.8.8-.8s.6.2.6.8v.7l-.7.3c-1.4.6-1.9 1.1-1.9 2 0 .9.5 1.4 1.3 1.4.6 0 1.1-.3 1.3-.8l.1.7h1.6v-.2l-.2-.3V5.4Zm-1.4 2.4c0 .5-.2.9-.6.9-.3 0-.5-.3-.5-1 0-.8.2-1.2.9-1.5l.2-.1v1.7Zm6.7.9V5.3c0-1.1-.5-1.6-1.4-1.6-.5 0-1.1.2-1.3.8l-.1-.7h-.1l-1.5.2v.1l.2.3v4.3l-.2.3v.2h1.9V9l-.2-.3V5.2c0-.5.3-.9.7-.9.3 0 .5.2.5.6v3.9l-.2.3v.2h1.9v-.2l-.2-.4Z"/>
</svg>