<svg xmlns="http://www.w3.org/2000/svg" viewBox="0 0 40 40">
	<path fill="#E1192F" d="M14.1108 10c.9875 0 1.8414.1908 2.5712.5677.7251.3768 1.288.9111 1.684 1.5933.3959.6822.5915 1.4931.5915 2.4281 0 .9255-.1956 1.7365-.5915 2.4234-.396.6917-.9589 1.226-1.684 1.6028-.7298.3769-1.5837.5677-2.5712.5677s-1.8462-.1908-2.576-.5677c-.7299-.3816-1.2928-.9159-1.68398-1.6028-.39117-.6869-.58676-1.4979-.58676-2.4234 0-.935.19559-1.7459.58676-2.4281.39118-.6822.95408-1.2165 1.68398-1.5933.7298-.3769 1.5885-.5677 2.576-.5677Zm1.3929 7.0459c.3769-.2147.6631-.5295.8492-.9398.186-.415.2814-.9159.2862-1.5122 0-.5963-.0954-1.0972-.2815-1.5075-.186-.4102-.4722-.7251-.8491-.9397-.3816-.2147-.8443-.3244-1.3977-.3244-.5534 0-1.0113.1049-1.3834.3196-.3721.2147-.6536.5295-.8444.9398-.1908.415-.2862.9159-.2862 1.5122 0 .5963.0954 1.102.2862 1.5122.1908.415.4675.7251.8396.9398.3673.2146.8301.3196 1.3834.3196.5534 0 1.0209-.105 1.3977-.3196Zm-6.53535-6.9221H6.46866L4.5939 13.0003l-1.97495-2.8765H.0143112L3.12938 14.4505 0 19.0539h2.514l1.90339-2.9624 2.01311 2.9624h2.59987l-3.16278-4.4746 3.10076-4.4555ZM5.12818 24.4072c.58676 0 1.10197.1145 1.55038.3435.44365.229.79189.5534 1.04472.9684.25283.415.37686.9111.37686 1.4788 0 .5725-.12403 1.0686-.37686 1.4884-.25283.4198-.5963.7489-1.03995.9827-.44364.2337-.96362.3578-1.56946.3578H0v-8.9302h7.43705v1.8175H2.2087v1.4931h2.91948Zm-.291 3.8497c.32916 0 .58676-.0906.76327-.2671.1765-.1765.26715-.4341.26715-.7776 0-.2289-.03817-.4198-.11926-.5724-.0811-.1527-.20036-.2719-.35778-.3578-.15743-.0859-.33871-.1288-.55338-.1288H2.2087v2.1037h2.62848Zm3.71123 1.7699 3.86879-8.9302h2.3089l3.8735 8.9302h-2.3852l-.7251-1.7937h-3.926l-.7299 1.7937H8.54841Zm4.98979-6.607-1.2498 3.053h2.4902l-1.2404-3.053Zm12.8993 1.0924h-4.26v-3.4156h-2.2707v8.9302h2.2707v-3.678h4.26v3.678h2.2612v-8.9302h-2.2612v3.4156Zm9.0923.7585 4.384 4.7561h-2.8956l-3.7114-4.0262v4.0262h-2.2087v-8.9302h2.2087v3.8258l3.7114-3.8258h2.7334l-4.2218 4.1741ZM23.771 14.3837l-2.1753-4.2599h-2.5474l3.5063 6.5211-1.226 2.409h2.4376l4.5176-8.9301H25.87l-2.099 4.2599Zm10.9434 1.0304 2.8479-5.2903H40v8.9301h-2.056v-5.8151l-2.2708 4.2361h-1.9654l-2.3184-4.2074v5.7864h-2.056v-8.9301h2.4758l2.9052 5.2903Z"/>
</svg>