<svg xmlns="http://www.w3.org/2000/svg" viewBox="0 0 40 40">
	<path fill="#0B60AE" d="M18.0125.621923C14.3481 3.10629 12.1742 7.01917 11.2426 11.1184l2.7949 2.857C14.7828 9.00667 17.4535 4.90746 20 3.47895c.2484.12422 1.118.6832 1.7391 1.3664.1242 0 .1863-.12422.3105-.12422.9938-.43476 1.9875-.86953 3.1055-1.18007-1.2422-1.42852-1.9875-2.04961-3.0434-2.857028-1.2422-.869529-2.857-.931638-4.0992-.062109ZM4.84535 7.64026c-.80742 4.34764.43477 8.69534 2.6707 12.29764H11.491c-2.98121-3.975-3.97495-8.8195-3.22964-11.67654.31054-.12422 1.24218-.31055 2.17384-.24844 0-.12422.0621-.24844.1242-.31055.3727-.99374.7453-1.98749 1.3664-3.04335-1.8633-.18633-2.85702 0-4.16132.12422-1.49062.24844-2.67069 1.3664-2.91913 2.85702ZM20 7.51605c3.6023-2.23594 7.8879-3.41601 12.2355-2.60859 1.4906.24844 2.6086 1.49062 2.857 2.98124.1864 1.30429.3106 2.298.1243 4.1613-.9938-.6211-2.0496-.9937-3.0434-1.3664-.1242 0-.2484-.0621-.3105-.1242 0-.93164-.1243-1.92539-.2485-2.23593-2.7949-.74532-7.6394.24843-11.6765 3.22963V7.57816L20 7.51605ZM39.3781 17.9504c-2.4844-3.6644-6.4594-5.8383-10.5586-6.7699l-2.7949 2.7949c4.9687.7453 9.0679 3.416 10.4965 5.9625-.1243.2484-.6832 1.118-1.3665 1.739 0 .1243.1243.1864.1243.3106.4347.9937.8695 1.9875 1.18 3.1055 1.4286-1.2422 2.0496-1.9875 2.8571-3.0434.8695-1.2422.9316-2.857.0621-4.0992Zm-6.8941 1.9875c2.2359 3.6023 3.416 7.8879 2.6085 12.2355-.2484 1.4906-1.4285 2.6086-2.9812 2.857-1.3043.1864-2.298.3106-4.1613.1242.6211-.9937.9937-2.0496 1.3664-3.0433 0-.1242.0621-.2484.1242-.3106.9316 0 1.9254-.1242 2.1738-.2484.7453-2.7949-.2484-7.6394-3.2297-11.6765h3.975l.1243.0621Zm-10.4344 19.316c3.6644-2.4844 5.8383-6.3973 6.7699-10.4965l-2.7949-2.857c-.7453 4.9687-3.4781 9.0679-5.9625 10.4964-.2484-.1242-1.118-.6832-1.739-1.3664-.1243 0-.1864.1242-.3106.1242-.9937.4348-1.9875.8696-3.1055 1.1801 1.2422 1.4285 1.9875 2.0496 3.0434 2.857 1.2422.8696 2.857.9317 4.0992.0622ZM20 32.4218c-3.6023 2.236-7.8879 3.416-12.23552 2.6086-1.49062-.2484-2.60858-1.4285-2.85702-2.9812-.18633-1.3043-.31055-2.2981-.12422-4.1613.99375.6211 2.04961.9937 3.04335 1.3664.12422 0 .24844.0621.31055.1242 0 .9316.12422 1.9254.24844 2.1738 2.85702.7453 7.63942-.2484 11.67652-3.2297v3.975L20 32.4218ZM.684033 21.9875C3.1684 25.6519 7.08128 27.8258 11.1805 28.7574l2.7949-2.7949C9.00667 25.2172 4.90746 22.4844 3.47895 20c.12422-.2484.6832-1.118 1.3664-1.7391 0-.1242-.12422-.1863-.12422-.3105-.43476-.9938-.86953-1.9875-1.18007-3.1055-1.42852 1.2422-2.04961 1.9875-2.857027 3.0434-.86953 1.2422-.931639 2.857-.06211 4.0992h.06211Z"/>
</svg>