<svg viewBox="0 0 40 40" xmlns="http://www.w3.org/2000/svg">
	<path fill="#173A79" d="M28.1071 27.6004c-1.4017-.4541-2.4862-1.4982-3.1806-2.7935-.8185 1.4263-2.297 2.5403-3.9154 2.8604-.3773.0749-.7535.1094-1.1229.1094-.4413 0-.8717-.0522-1.2874-.1488-.8501 1.3042-1.9907 2.4064-3.3283 3.218 1.38.726 2.9501 1.1397 4.6147 1.1397 1.6203 0 3.1717-.3822 4.6049-1.1347 1.4608-.7673 2.6989-1.8952 3.615-3.2505Zm4.7605-14.8706-.3871-.0877s1.7178-2.0133 1.9237-2.2626c-.2285-.2403-2.9787-3.10173-3.2456-3.3795-.2315.23345-4.6965 4.7832-6.5828 6.701-.3792.4462-1.1436 1.2874-2.6752 2.9235-1.2333 1.571-1.7543 3.5923-1.7543 5.6263 0 1.7691.4728 3.4318 1.2854 4.8708 1.3997-.4294 2.5856-1.4381 3.2269-2.7767l.0541-.1192c-.2255-.6176-.3575-1.2834-.3575-1.9749 0-3.152 2.5649-5.712 5.7179-5.712 3.152 0 5.714 2.56 5.714 5.712 0 3.152-2.562 5.716-5.714 5.716-.5358 0-1.0519-.0788-1.5415-.2167-.8481 1.2834-1.973 2.3679-3.2909 3.1628 1.4292.8008 3.0811 1.2618 4.8334 1.2618 5.4717 0 9.9259-4.4522 9.9259-9.9239 0-4.3744-2.9333-8.2947-7.1324-9.521ZM18.1467 27.5285c-1.2371-.4019-2.2783-1.2037-2.9934-2.2695-.0975-.1458-.1901-.2955-.2719-.4423-.7289 1.2736-1.9207 2.2153-3.3145 2.6448-.1409.0433-.2876.0798-.4285.1132-.0315.005-.062.0109-.0916.0148-.3753.0788-.7525.1143-1.11895.1143-3.15201 0-5.71696-2.56-5.71696-5.7101 0-3.149 2.56495-5.714 5.71696-5.714.40585 0 .81265.0503 1.21645.1379.5034-.7407 1.118-1.3938 1.777-1.9946.0492-.0453.1014-.0916.1546-.134.0168-.0128.0325-.0276.0512-.0433.4364-.3733.9023-.7201 1.3997-1.0254-1.4154-.7417-2.9904-1.1475-4.59895-1.1475C4.45616 12.0728 0 16.524 0 21.9947c0 5.4707 4.45616 9.921 9.92785 9.921 1.57505 0 3.09485-.3359 4.48375-1.0806.0404-.0217.0827-.0345.1211-.0561.1074-.0513.2059-.1143.3103-.1734 1.3298-.7506 2.4487-1.8193 3.3037-3.0771ZM13.727 14.292c-2.3167 1.7858-3.76369 4.6285-3.76369 7.7707 0 1.835.50039 3.5489 1.37009 5.0264 1.4342-.3979 2.6527-1.3977 3.3225-2.7333-.3083-.7053-.4837-1.4746-.4837-2.2931 0-3.1481 2.566-5.7121 5.716-5.7121.3871 0 1.2382.1182 1.5366.1626 1.0205-1.0875 2.5295-2.7216 2.9905-3.2653-1.3948-.7181-2.9501-1.1072-4.5271-1.1072-1.6085 0-3.1294.3891-4.4759 1.0727l.0355.0167-.3388.1783c-.4876.2591-.9486.5497-1.382.8836Z"/>
</svg>