<svg xmlns="http://www.w3.org/2000/svg" viewBox="0 0 40 40">
	<path fill="#F56E28" d="M19.9067 21.8135c6.0369 0 10.9069-4.8953 10.9069-10.9067C30.8136 4.87 25.9182 0 19.9067 0 13.87 0 9 4.87 9 10.9068c0 6.0114 4.87 10.9067 10.9067 10.9067Zm.0744 8.6748c6.0368 0 10.9068-1.319 10.9068-2.9423 0-1.6234-4.8954-2.9423-10.9068-2.9423-6.0368 0-10.90678 1.3189-10.90678 2.9423 0 1.6233 4.89538 2.9423 10.90678 2.9423Zm10.9068 4.2362c0 .9639-4.87 1.7248-10.9068 1.7248-6.0114 0-10.90678-.7609-10.90678-1.7248 0-.9639 4.86998-1.7248 10.90678-1.7248 6.0114-.0254 10.9068.7609 10.9068 1.7248ZM19.9811 40c6.0368 0 10.9068-.2029 10.9068-.4819s-4.8954-.5072-10.9068-.4819c-6.0368 0-10.90678.2029-10.90678.4819 0 .2537 4.89538.4819 10.90678.4819Z"/>
</svg>