<svg viewBox="0 0 40 40" xmlns="http://www.w3.org/2000/svg">
	<path fill="#E77128" d="M31.8111 28.271c-.2233.3102-.4342.6389-.6824.9367-2.3697 2.8598-5.4776 3.964-9.1128 3.8089-1.7866-.0744-3.5235-.3846-5.0185-1.4454-2.1154-1.5074-3.3003-3.629-3.4243-6.1724-.1737-3.5794-.1303-7.1711-.1737-10.7567-.0062-.5087 0-1.0112 0-1.5508-.5025-.0869-.9739-.1365-1.433-.2482-1.3896-.3474-2.10916-1.2965-2.10916-2.7295 0-.96151 0-1.92924.0062-2.89077.00621-.91811.26676-1.24068 1.19106-1.22207 3.3747.05583 6.7431.16128 10.1116.24193.5272.01241.7692.32878.8126.81264.031.39702.0248.80024.0248 1.20347.0124 4.4727.0124 8.9453.0372 13.418 0 .5024.0869 1.0173.2047 1.5074.5335 2.2332 2.6799 3.1761 4.8573 2.0967 2.165-1.0731 3.2692-2.9342 3.6414-5.2542.1303-.8127.1613-1.6501.1675-2.4814.0186-3.3188.0062-6.6439.0124-9.96268 0-1.12281.2544-1.36474 1.3648-1.36474 2.1153 0 4.2307-.00621 6.346.0062.9616.0062 1.1167.17369 1.1229 1.14143.0124 2.84119-.0062 5.67609.0186 8.51729.0372 4.6587.093 9.3175.1489 13.9763.0062.5893.0806 1.1724.0744 1.7617-.0062.639-.3536.9864-1.005.9864-1.6314 0-3.2691.0124-4.9006-.0062-.7755-.0062-1.3586-.4343-1.6005-1.1353-.2482-.7444-.3474-1.5446-.4839-2.3262-.0496-.2668-.0062-.5459-.0062-.8189-.062-.0248-.1303-.0372-.1923-.0496zM9.51608 28.606c.00621 2.624-2.09675 4.7332-4.7332 4.7456-2.67367.0186-4.7952327-2.1402-4.78282586-4.8635C.012461 25.9199 2.14023 23.7921 4.69603 23.7921c2.73571-.0062 4.81385 2.072 4.82005 4.8139z"/>
</svg>
