<svg viewBox="0 0 40 40" xmlns="http://www.w3.org/2000/svg">
	<path fill="#00008B" d="M10.9874 1H40v4.59605h-.9695c-.0359-1.57989-1.1849-2.08259-2.2621-2.08259h-25.781V1ZM5.9246 5.09336h31.3106v4.59605h-.9695c-.0359-1.57989-1.1849-2.08259-2.2621-2.08259H5.9246V5.09336ZM26.4273 37.4093l-9.6948-17.6301 10.0179-8.2945c.7182-.6463 1.2209-1.149 2.5135-1.2926V9.15081h-7.684V10.228c2.0108.0718 1.8312 1.149 1.2567 1.6517l-11.8492 9.8025v-9.8743c0-.3591 0-1.3285 1.2927-1.3645V9.15081H.43088v1.18489c1.32855.1437 1.32855.8618 1.32855 1.544v25.1347c0 .5027-.64632 1.5799-1.75943 1.5439v1.1132h12.4237V38.307c-1.4363 0-1.4363-.9336-1.4363-1.5081V24.9138l7.5045 13.6805h-.5386v1.0772h10.4848v-1.0772c-.7182 0-1.5799-.3591-2.0108-1.185ZM2.76481 10.623H4.3447v27.1095H2.76481V10.623ZM11.921 23.7289l8.0072 14.7935h1.5081l-8.3304-15.763-1.1849.9695Zm9.1921-6.2478h11.921c4.5602 0 6.2478 4.4525 6.3196 7.72.1077 4.0933-2.4058 6.2477-5.7451 7.4327-2.4057 2.1544-4.1652 2.8725-6.14 3.4829l-.5745-.9336c1.7235-.754 4.4165-2.6212 4.5601-6.6427.0718-2.0108-1.0054-5.4578-3.5547-5.4578h-1.8672v.2872c2.1185.3591 3.3393 2.8726 3.4111 4.8474.1078 2.2981-1.1849 4.9552-2.9443 6.2837l-.3232-.6104c1.1491-1.5081 2.1544-3.1239 2.1544-4.991 0-1.8313-.6463-4.5602-4.4524-4.5961l-3.4829-.0359-1.4363-2.4776h9.9102c1.3645 0 2.5494.79 3.6625 1.9031-.4668-1.9749-2.1544-3.6266-3.9497-3.6266H18.061l3.0521-2.5853Zm7.7199 1.0772h2.9085c4.8115 0 5.6732 10.9516 1.9748 12.9983.6105-.8618.9336-4.0934.2514-6.0683-.0718-3.3034-2.4058-6.4632-5.1347-6.6786v-.2514Z"/>
</svg>