<svg xmlns="http://www.w3.org/2000/svg" viewBox="0 0 40 40">
	<path fill="#008375" d="M25.9 23.5c.2 1.5.1 3-.1 4.3-.1 1-.5 2-.7 3-.9 2.6-2.1 5.1-4 7-.4.4-.7.6-1.2.5-.1 0-.2-.1-.2-.2-.1-.2 0-.5 0-.9.1-.4.1-.6.2-1 .9-3.2 1.6-6.5 1.5-9.9 0-.7-.1-1.5-.5-2.2-.4-.6-1-1.2-1.7-1.4-.5-.1-.9 0-1.2.2-.1.1-.4.1-.5.4-.2.2-.4.5-.5.9-.4 1-.2 2-.1 3 .1.7 0 1.6-.7 2.1-.5.4-1.2.4-2 .1-.6-.2-1.1-.7-1.5-1.2-1.1-1.7-1.1-4.2-.5-6.2.1-.4.2-.7.5-1.1.5-1.1 1.4-2 2.3-2.6 2.2-1.4 4.9-1.4 7.3 0 1.5.9 2.5 2.1 3.1 3.7.3.4.4.9.5 1.5zM40 7.9c0 .4-.4.7-.6 1-1.5 1.2-3.3 2.1-5.1 2.8-5.4 2.2-11.6 3-17.4 3.7-3.5.5-6.8.7-10.3 1-1.2.1-2.6-.6-3.6-1.2-1.1-.6-2.1-1.5-2.7-2.7-.5-1-.5-2.3.4-3.2.6-.6 1.7-.5 2.6-.5 1 .1 2 .2 2.8.5 1.6.2 3.1.5 4.7.7 9 1.2 18.7.7 27.2-2.6.5-.1.9-.4 1.4-.5.1.2.6.5.6 1z"/>
	<path fill="#d70035" d="M15.3 5.1c0 1.9 1.5 3.3 3.5 3.3 1.9 0 3.5-1.5 3.5-3.3 0-.2-.1-.5-.1-.9-.2-.6-.6-.9-.6-1.6 0-1-1.2-1-2-1-.7 0-1.6.1-2.2.5-.5.2-1 .6-1.4 1.2-.5.4-.7 1.1-.7 1.8z"/>
</svg>
