<svg xmlns="http://www.w3.org/2000/svg" viewBox="0 0 40 40">
	<path fill="#3e8fa4" d="M39.3 17.7c.3 4.7-2.6 8.5-9.6 12.4.6-5 0-10.3-2.1-13.2C29 13.5 29.9 9.8 30 7c.3.1 8.9 4.4 9.3 10.7zm-12.4-1.6c-.2-.2-.3-.3-.5-.4-2.2-1.7-5.5-2.3-10.2-1.3C17.2 7 22 3.5 29.1 6.5c0 2.7-.8 6.3-2.2 9.6z"/>
	<path fill="#41a6e4" d="M11.5 17c1.2-.6 2.3-1 3.4-1.4 0 .1-.6 4.1.4 9.5-1.5-.1-3.1-.5-5-1.2-1.7-.6-3.6-1.5-5.3-2.7 1.9-1.9 4.5-3.2 6.5-4.2zm-7.7 3.2C2 18.5.7 16.3.8 13.7c.2-4.6 4.4-8 8.4-10 1.9-1 17.7-8.1 19.7.6 0 .1.1.9.2 1-.2-.4-4.3-1.8-7.4-.5-4.5 1.8-6.1 6.2-6.6 9.8-.8.2-1.7.4-2.5.7-3 .9-6.6 2.4-8.8 4.9zm12.3-4.9c3.5-1 6.1-.8 7.9.3.8.5 1.4 1.2 2 2.2-1.2 2.4-2.6 4.4-4.2 5.7-.7.5-1.5 1-2.3 1.2-.8.3-1.6.4-2.6.5-.6-2.2-.8-4.8-.9-7.7.1-.8.1-1.5.1-2.2z"/>
	<path fill="#5faf61" d="M17.5 29.5c2.5 2.9 6.7 3.1 10.8 2.1-.4 3.6-1.5 6.7-3.4 7.9-3.7 2-12.4-1.9-17.7-6.7-2-1.8-3.5-3.7-4.1-5.5-.2-.7-.3-1.4-.3-2 .2-1.3.8-2.5 1.7-3.5 1.4 1.3 3 2.3 4.6 3.1 2.6 1.3 4.9 2 6.8 2.1.5.9 1 1.8 1.6 2.5zm4-4.1c1.9-1.4 3.7-3.8 5.1-6.6 1.4 3.1 2.1 7.7 1.8 11.8-.9.4-1.8.6-2.7.8-2.4.5-4.6.2-6.2-1.3-.8-.8-1.5-1.8-2-3.1 1.5-.2 2.8-.7 4-1.6z"/>
</svg>
