<svg xmlns="http://www.w3.org/2000/svg" viewBox="0 0 40 40">
	<linearGradient id="a" x1="5" x2="35" y1="7.4375" y2="32.5625" gradientUnits="userSpaceOnUse">
		<stop stop-color="#fff"/>
		<stop offset=".1" stop-color="#CDD0D0"/>
		<stop offset=".2" stop-color="#A5ACAF"/>
		<stop offset=".3" stop-color="#98A0A4"/>
		<stop offset=".4" stop-color="#828A8F"/>
		<stop offset=".5" stop-color="#667075"/>
		<stop offset=".6" stop-color="#535C63"/>
		<stop offset=".7" stop-color="#475158"/>
		<stop offset=".8" stop-color="#434D54"/>
		<stop offset="1" stop-color="#475157"/>
	</linearGradient>
	<path fill="url(#a)" d="M39.5625 20c0 10.8125-8.75 19.5625-19.5625 19.5625S.4375 30.8125.4375 20 9.1875.4375 20 .4375 39.5625 9.1875 39.5625 20ZM20 1.625C9.8125 1.625 1.625 9.8125 1.625 20S9.875 38.375 20 38.375c10.1875 0 18.375-8.25 18.375-18.375C38.375 9.8125 30.1875 1.625 20 1.625Z"/>
	<linearGradient id="b" x1="5.9375" x2="34.0625" y1="8.1875" y2="31.8125" gradientUnits="userSpaceOnUse">
		<stop stop-color="#0B1F2A"/>
		<stop offset=".2" stop-color="#333F47"/>
		<stop offset=".5" stop-color="#81898D"/>
		<stop offset=".7" stop-color="#B3B8B8"/>
		<stop offset=".8" stop-color="#DEE0DD"/>
		<stop offset="1" stop-color="#FBFBFB"/>
	</linearGradient>
	<path fill="url(#b)" d="M20 1.625C9.8125 1.625 1.625 9.8125 1.625 20S9.875 38.375 20 38.375c10.1875 0 18.375-8.25 18.375-18.375C38.375 9.8125 30.1875 1.625 20 1.625Zm0 35.5625C10.5 37.1875 2.8125 29.5 2.8125 20S10.5 2.8125 20 2.8125 37.1875 10.5 37.1875 20 29.5 37.1875 20 37.1875Z"/>
	<linearGradient id="c" x1="26.8579" x2="13.1704" y1="38.8169" y2="1.19194" gradientUnits="userSpaceOnUse">
		<stop stop-color="#E1E3E1"/>
		<stop offset=".1" stop-color="#C1C5C4"/>
		<stop offset=".3" stop-color="#9BA1A2"/>
		<stop offset=".5" stop-color="#7D8487"/>
		<stop offset=".7" stop-color="#687074" stop-opacity="0"/>
		<stop offset=".8" stop-color="#5B6469" stop-opacity="0"/>
		<stop offset="1" stop-color="#576065" stop-opacity="0"/>
	</linearGradient>
	<path fill="url(#c)" d="M20 39.5625c10.8125 0 19.5625-8.75 19.5625-19.5625S30.8125.4375 20 .4375.4375 9.1875.4375 20 9.1875 39.5625 20 39.5625ZM20 0c11 0 20 9 20 20s-9 20-20 20S0 31 0 20 9 0 20 0Z" opacity=".4"/>
	<path fill="#fff" d="M1.37451 20.0625c0-10.25 8.3125-18.6875 18.62499-18.6875 10.3125 0 18.625 8.375 18.625 18.6875 0 10.25-8.3125 18.5625-18.625 18.5625-10.31249 0-18.62499-8.3125-18.62499-18.5625Zm5.8125-12.875c-3.3125 3.3125-5.375 7.875-5.375 12.875s2.0625 9.5625 5.3125 12.8125c3.31249 3.25 7.87499 5.3125 12.87499 5.3125s9.5625-2 12.8125-5.3125c3.3125-3.25 5.3125-7.8125 5.3125-12.8125S36.062 10.5 32.812 7.1875s-7.8125-5.375-12.8125-5.375S10.437 3.875 7.18701 7.1875Z"/>
	<linearGradient id="d" x1="11.375" x2="28.625" y1="5.0625" y2="34.9375" gradientUnits="userSpaceOnUse">
		<stop stop-color="#E1E3E1"/>
		<stop offset=".1" stop-color="#C1C5C4"/>
		<stop offset=".3" stop-color="#9BA1A2"/>
		<stop offset=".5" stop-color="#7D8487"/>
		<stop offset=".7" stop-color="#687074" stop-opacity="0"/>
		<stop offset=".8" stop-color="#5B6469" stop-opacity="0"/>
		<stop offset="1" stop-color="#576065" stop-opacity="0"/>
	</linearGradient>
	<path fill="url(#d)" d="M20 37.25c-4.625 0-8.9375-1.8125-12.1875-5.0625S2.75 24.625 2.75 20s1.8125-8.9375 5.0625-12.1875S15.375 2.75 20 2.75s8.9375 1.8125 12.1875 5.0625S37.25 15.375 37.25 20s-1.8125 8.9375-5.0625 12.1875S24.625 37.25 20 37.25Zm0-.5c4.4375 0 8.6875-1.75 11.8125-4.875 3.1875-3.1875 4.875-7.375 4.875-11.8125s-1.75-8.6875-4.875-11.8125C28.625 5.0625 24.4375 3.375 20 3.375S11.3125 5.125 8.1875 8.25C5 11.3125 3.25 15.5625 3.25 20S5 28.6875 8.125 31.8125C11.3125 35 15.5625 36.75 20 36.75Z" opacity=".4"/>
	<path fill="#fff" d="M35.1875 28.124c-.3125-.25-12.375-9.8125-12.375-9.8125L20 2.24902c-.1875.0625-.4375.25-.5625.5l-2 15.62498L5 27.9365s-.25.3125-.375.5c-.0625.125-.0625.3125-.0625.5l15.375-6.3125 15.375 6.3125c.125-.3125 0-.625-.125-.8125Z"/>
	<path fill="#565F64" d="M20.125 20.4995 20 23.3745l14.125 5.6875c.5.25.875.125 1.25-.125l-15.0625-8.5c-.0625-.0625-.1875 0-.1875.0625Z"/>
	<linearGradient id="e" x1="27.8125" x2="26.75" y1="24.6245" y2="26.3745" gradientUnits="userSpaceOnUse">
		<stop stop-color="#27343C"/>
		<stop offset="1" stop-color="#00111E" stop-opacity="0"/>
	</linearGradient>
	<path fill="url(#e)" d="M20.125 20.4995s.8125 1.4375 1.75 2.4375c1.3125 1.4375 3.0625 2.4375 3.0625 2.4375l9.1875 3.6875c.5.25.875.125 1.25-.125l-15.0625-8.5c-.0625-.0625-.1875 0-.1875.0625Z"/>
	<path fill="#A4AAAE" fill-opacity=".6" d="M35.3125 28.375c0-.0625-.0625-.125-.125-.25l-12.875-9.4375-1.75 1.125s.125.0625.1875 0c.1875-.0625.5625-.125.9375 0 .3125.125 13.625 8.625 13.625 8.625v-.0625Z"/>
	<path fill="#333E46" d="m34.875 27.8125-12-9.5-.5625.375 12.875 9.5c-.0625-.125-.1875-.25-.3125-.375Z"/>
	<path fill="#565F64" d="m20.3125 19.5625-.0625.0625s0 .125.125.0625c.0625-.0625 1.875-1 2.5-1.375l-2.1875-15c-.0625-.5625-.3125-.8125-.75-1l.25 17.375.125-.125Z"/>
	<path fill="#A4AAAE" fill-opacity=".6" d="M19.25 3.31348v.8125L17.875 17.9385c0 .1875.0625.375.25.5l.8125.625L19.5 3.81348l.0625-1.1875c-.1875.125-.25.375-.3125.6875ZM18.5 19.3125l-.75-.625L5.0625 27.875s-.375.25-.4375.5l.4375-.25L18.375 19.75c.25-.125.3125-.25.125-.4375Z"/>
	<path fill="#565F64" d="M19.8125 20.4995c0-.0625-.0625-.125-.125-.0625l-15.125 8.5625c.375.25.75.3125 1.25.125l14.125-5.6875-.125-2.9375Z"/>
	<linearGradient id="f" x1="24.75" x2="23" y1="18.1875" y2="15.375" gradientUnits="userSpaceOnUse">
		<stop offset=".1" stop-color="#02131F"/>
		<stop offset=".9" stop-color="#02131F" stop-opacity="0"/>
	</linearGradient>
	<path fill="url(#f)" d="m20.25 19.625.0625-.0625-.0625.0625s0 .0625.0625.0625h.0625c.0625-.0625 1.875-1 2.5-1.375l-.25-1.8125-1.9375-13.1875c0-.25-.0625-.4375-.1875-.5625 0 0 .9375 12.625.9375 14 0 1.8125-1.1875 2.875-1.1875 2.875Z"/>
	<linearGradient id="g" x1="20" x2="17.375" y1="22.7495" y2="23.4995" gradientUnits="userSpaceOnUse">
		<stop offset=".2" stop-color="#02131F"/>
		<stop offset=".9" stop-color="#02131F" stop-opacity="0"/>
	</linearGradient>
	<path fill="url(#g)" fill-opacity=".8" d="M19.8125 20.4995c0-.0625-.0625-.125-.125-.0625l-15.125 8.5625c.375.25.75.3125 1.25.125l14.125-5.6875-.125-2.9375Z"/>
	<linearGradient id="h" x1="13" x2="12.625" y1="26.1875" y2="25.25" gradientUnits="userSpaceOnUse">
		<stop stop-color="#02131F"/>
		<stop offset=".1" stop-color="#02131F"/>
		<stop offset="1" stop-color="#02131F" stop-opacity="0"/>
	</linearGradient>
	<path fill="url(#h)" d="m5.8125 29.0625 14.125-5.6875-.125-2.75c-.25.75-.6875 1.5625-1.875 2.1875-.875.5-9.25 4.625-12.25 6.0625-.1875.125-.4375.1875-.5625.25.25.125.4375.0625.6875-.0625Z" opacity=".8"/>
	<linearGradient id="i" x1="22.25" x2="20.125" y1="10.75" y2="11" gradientUnits="userSpaceOnUse">
		<stop offset=".3" stop-color="#02131F"/>
		<stop offset=".8" stop-color="#02131F" stop-opacity="0"/>
	</linearGradient>
	<path fill="url(#i)" d="m20.3125 19.5625-.0625.0625s0 .125.125.0625c.0625-.0625 1.875-1 2.5-1.375l-2.1875-15c-.0625-.5625-.3125-.8125-.75-1l.25 17.375.125-.125Z"/>
	<linearGradient id="j" x1="22.3125" x2="20.875" y1="10.6875" y2="10.875" gradientUnits="userSpaceOnUse">
		<stop offset=".4" stop-color="#27343C"/>
		<stop offset="1" stop-color="#3B474E" stop-opacity="0"/>
	</linearGradient>
	<path fill="url(#j)" d="m20.3125 19.5625-.0625.0625s0 .125.125.0625c.0625-.0625 1.875-1 2.5-1.375l-2.1875-15c-.0625-.5625-.3125-.8125-.75-1l.25 17.375.125-.125Z"/>
	<linearGradient id="k" x1="-.25" x2="17.1875" y1="20.5615" y2="30.624" gradientUnits="userSpaceOnUse">
		<stop stop-color="#25323B" stop-opacity="0"/>
		<stop offset=".1" stop-color="#27343C"/>
	</linearGradient>
	<path fill="url(#k)" d="M3.1875 27.749C2.75 26.749.25 21.874 3 12.499H1.9375c-.5625 1.875-1 3-1.25 4.6875 0 0-.125.625-.1875 1.3125s-.0625 1.0625-.0625 1.5c0 3.75.9375 5.9375.9375 5.9375 1 3.125 2.75 5.9375 5.125 8.0625 2.0625 1.8125 5.25 3.1875 7.875 3.6875-.4375-.0625-7.9375-3.25-11.1875-9.9375Z"/>
	<linearGradient id="l" x1="20.0005" x2="20.0005" y1="23.3755" y2="20.3755" gradientUnits="userSpaceOnUse">
		<stop offset=".3" stop-color="#A5ABAF"/>
		<stop offset="1" stop-color="#A5ABAF" stop-opacity="0"/>
	</linearGradient>
	<path fill="url(#l)" d="M20.2505 20.3755h-.5625c.0625 0 .125 0 .125.0625l.125 2.875h.0625l.125-2.875c0-.0625.0625-.125.125-.0625Z"/>
	<linearGradient id="m" x1="29.8125" x2="29.8125" y1="1.4375" y2="39.5625" gradientUnits="userSpaceOnUse">
		<stop stop-color="#6B7378"/>
		<stop offset=".2" stop-color="#333F47"/>
		<stop offset=".5" stop-color="#27343C"/>
		<stop offset=".8" stop-color="#333F47"/>
		<stop offset="1" stop-color="#434D54"/>
	</linearGradient>
	<path fill="url(#m)" d="M26.25 1.4375C32.8125 3.9375 39 10.8125 39 19.5c0 10.5-8.375 19.0625-19 19.0625v1c10.625 0 19.5625-8.75 19.5625-19.5625 0-8.625-5.5-15.875-13.3125-18.5625Z"/>
	<linearGradient id="n" x1="35.8125" x2="27.375" y1="5.0625" y2="17.4375" gradientUnits="userSpaceOnUse">
		<stop offset=".7" stop-color="#49545B"/>
		<stop offset=".8" stop-color="#fff" stop-opacity="0"/>
	</linearGradient>
	<path fill="url(#n)" d="M36.75 12.625C32.375 2.5625 22.5 2 21.9375 1.9375h-.0625c7.5625 1.375 12.375 6.3125 14.0625 11.5V13.5c.75 2 1.125 4.125 1.1875 6.4375.0625 2.1875-.4375 4.625-1.375 6.875-.0625.3125-.125.6875-.1875.6875h1c3-5.625 1.6875-11.3125.1875-14.875Z"/>
	<path fill="#FBFBFB" d="M1.37451 20.0625c0-10.25 8.3125-18.6875 18.62499-18.6875 10.3125 0 18.625 8.375 18.625 18.6875 0 10.25-8.3125 18.5625-18.625 18.5625-10.31249 0-18.62499-8.3125-18.62499-18.5625Zm5.8125-12.875c-3.3125 3.3125-5.375 7.875-5.375 12.875s2.0625 9.5625 5.3125 12.8125c3.31249 3.25 7.87499 5.3125 12.87499 5.3125s9.5625-2 12.8125-5.3125c3.3125-3.25 5.3125-7.8125 5.3125-12.8125S36.062 10.5 32.812 7.1875s-7.8125-5.375-12.8125-5.375S10.437 3.875 7.18701 7.1875Z"/>
	<path fill="#333F47" d="m4.9375 28 12.75-9.1875c.6875.375 1.8125.875 1.9375.875.125.0625.125-.0625.125-.0625l-1.5625-1.3125c-.1875-.125-.25-.3125-.25-.5l1.5-15.0625c-.0625.0625-.0625.1875-.125.25-.0625.125-.0625.1875-.0625.3125L17.0625 18.375l-12 9.4375c-.0625.0625-.125.125-.125.1875Z"/>
</svg>