<svg xmlns="http://www.w3.org/2000/svg" viewBox="0 0 40 40">
	<linearGradient id="gr1" gradientUnits="userSpaceOnUse" x1="0" y1="20" x2="40" y2="20">
		<stop offset="0" stop-color="#c94b28"/>
		<stop offset="1" stop-color="#7a1831"/>
	</linearGradient>
	<path fill="url(#gr1)" d="M0 0h40v40H0z"/>
	<path fill="#fff" d="M24.1 14s1.6-5.2 2.6-7.2 2.2-4.1 3.7-4.1 1.4.6 1.9.5c.7-.1.6-1.7-2.4-1.7-3.1 0-5.3 1.6-6.8 4.9-1.5 3.3-4.5 12.1-5.1 14-.7 1.9-2.7 4.4-4.7 4.4S10.8 22.7 11 21c.3-2.6 2.9-5.5 5.3-6.2 2.4-.7 2.2-2.3-.3-1.8s-8.8 2.9-8.8 8.1 6.7 6.9 9 4c-.2 1-.4 1.9-1 3.5-1.1 3-2.9 8.4-4.3 8.4s-2.1-.1-2.7-.4c-.6-.4-1.5.7-.4 1.1 1.1.4 4.4 1.7 6.2 0 1.9-1.7 3.1-3.3 4.4-7.7 1.4-4.4 3.2-9 4.3-11.6 1.1-2.6 2.4-4 4-4s2.9 1.9 2.4 4.7c-.5 2.7-3.5 5-5.7 5.1s-1.6 2.1.5 1.7c2-.4 5.2-1.5 6.7-2.9s2.4-3.1 2.4-6.1c-.1-2.7-2.6-4.5-5.1-4.5S24.1 14 24.1 14z"/>
</svg>