<svg xmlns="http://www.w3.org/2000/svg" viewBox="0 0 40 40">
	<path fill="#072DA0" d="M.399902 7.50039c0-3.9 3.199998-7.099999 7.099998-7.099999h25c3.9 0 7.1 3.199999 7.1 7.099999V32.5004c0 3.9-3.2 7.1-7.1 7.1h-25c-3.9 0-7.099998-3.2-7.099998-7.1V7.50039z"/>
	<path fill="#fff" d="M7.5 40h25.1c4.1 0 7.4-3.3 7.4-7.5v-25C40 3.3 36.7 0 32.5 0h-25C3.3 0 0 3.3 0 7.5v25C0 36.7 3.3 40 7.5 40zM.8 7.5C.8 3.8 3.8.8 7.5.8h25c3.7 0 6.7 3 6.7 6.7v25c0 3.7-3 6.7-6.7 6.7h-25c-3.7 0-6.7-3-6.7-6.7v-25zM14 10h-4v8h4v4h-4v8h4v-4h4v4h4v-4h4v4h4v-4h-4v-4h4v-8h-4v-4h-8v4h-4v-4zm8 12v4h-4v-4h4zm0-4h4v4h-4v-4zm0 0v-4h-4v4h4z"/>
</svg>
