<svg xmlns="http://www.w3.org/2000/svg" viewBox="0 0 40 40">
	<path fill="#FF9E00" d="M26.0158 20c0 3.3172-2.6986 6.0158-6.0158 6.0158-3.3172 0-6.0158-2.6986-6.0158-6.0158 0-3.3172 2.6986-6.0158 6.0158-6.0158 3.3172 0 6.0158 2.6986 6.0158 6.0158ZM20 0C8.97143 0 0 8.97138 0 20c0 11.0286 8.97143 20 20 20 4.0098 0 8.03-1.2171 11.3229-3.5186L28.6287 33.35c-2.6056 1.626-5.5445 2.5501-8.6287 2.5501-8.7672 0-15.9-7.1329-15.9-15.9001 0-8.7672 7.1328-15.9 15.9-15.9S35.9001 11.2328 35.9001 20c0 2.2003-.3366 6.2647-3.4073 6.03-1.0914-.0886-2.3686-.8658-2.3771-2.7686V20c0-5.5786-4.5371-10.11572-10.1157-10.11572C14.4214 9.88428 9.88428 14.4214 9.88428 20S14.4214 30.1157 20 30.1157c2.7099 0 5.2514-1.0586 7.1671-2.9857 1.1143 1.7343 2.9301 2.8215 4.9972 2.9872.1771.0142.3586.0214.5372.0214C38.2161 30.1386 40 24.5459 40 20 40 8.97138 31.0286 0 20 0Z"/>
</svg>