<svg xmlns="http://www.w3.org/2000/svg" viewBox="0 0 40 40">
	<path fill="#ED1A23" d="M19.9999 3.18703c9.697 0 17.5757 7.75397 17.5757 17.09857 0 9.5435-7.8787 17.0987-17.5757 17.0987-9.6969 0-17.57566-7.754-17.57566-17.0987C2.22222 10.941 10.303 3.18703 19.9999 3.18703Zm0-2.18703C8.88888 1 0 9.74812 0 20.4844 0 31.2208 8.88888 39.969 19.9999 39.969 30.9091 39.969 40 31.2208 40 20.4844 39.7979 9.5493 30.9091 1 19.9999 1Zm-2.4231 12.724-4.2424-4.17522L9.09198 13.724v12.3269l8.48482-8.3505V13.724Zm7.0696 8.5493-4.6465-4.5729V13.724l-4.2423-4.17522h9.2929L29.293 13.724v3.9764l-4.6466 4.5729Zm-1.0094.9951-4.8486-4.7717L6.4652 30.4259h9.697l7.4748-7.1575Zm-5.4546 7.1575 12.3232-11.9292v11.9292H18.1824Z"/>
</svg>