<svg xmlns="http://www.w3.org/2000/svg" viewBox="0 0 40 40">
	<path fill="#d3d5d6" d="M0 25.4h10.9L4 8 0 25.4z"/>
	<path fill="#adafb2" d="M.9 0L4 8l6.9 17.4 4-17.4-3.1-8H.9z"/>
	<path fill="#75bee9" d="M12.5 25.4L16.6 8l6.8 17.4H12.5z"/>
	<path fill="#0072bc" d="M27.4 8l-4 17.4L16.6 8l-3.2-8h10.9l3.1 8z"/>
	<path fill="#f37164" d="M25.1 25.4l4-17.4L36 25.4H25.1z"/>
	<path fill="#ed1b35" d="M40 8l-4 17.4L29.1 8 26 0h10.8L40 8z"/>
	<path fill="#4d4d4f" d="M7.1 35l-3.2-6.7H0v11.2h2.8v-7.8l3.6 7.8h1.2l3.7-7.8v7.8h2.8V28.3h-3.9L7.1 35zm14.8-4.9c1.3 0 2.4.7 3 1.7l2.3-1c-.9-1.4-2.5-2.9-5.3-2.9-3.8 0-6.7 2.5-6.7 6.1 0 3.7 3 6.1 6.7 6.1 2.7 0 4.3-1.4 5.3-2.9l-2.3-1c-.6 1-1.7 1.7-3 1.7-2.2 0-3.9-1.6-3.9-3.8 0-2.4 1.6-4 3.9-4zm6.7-2v11.8h2.7v-9.6h5.9v9.6H40V28.1H28.6z"/>
</svg>