<svg xmlns="http://www.w3.org/2000/svg" viewBox="0 0 40 40">
	<radialGradient id="gr1" cx="19.8959" cy="-26.4664" r="37.5016" gradientTransform="translate(0 29.9)" gradientUnits="userSpaceOnUse">
		<stop offset="0" stop-color="#fac39d"/>
		<stop offset=".24" stop-color="#f08436"/>
		<stop offset=".48" stop-color="#ec6707"/>
		<stop offset=".73" stop-color="#ec6508"/>
		<stop offset="1" stop-color="#e74011"/>
	</radialGradient>
	<g fill="url(#gr1)">
		<path d="M.1 21.1c.1 3.3 1.2 6.6 3.1 9.5 1.6-1.4 8.7-2.4 16.9-2.4s15.3 1 16.9 2.4c1.8-2.9 2.9-6.2 3-9.6-2.5 1.6-10.5 2.7-19.9 2.7-9.7 0-17.6-1.1-20-2.6z"/>
		<path d="M4.6 32.6c6.9 8.5 19.3 9.9 27.8 2.9 1.1-.9 2.1-1.9 2.9-2.9-2.9 1-8.8 1.8-15.4 1.8-6.6-.2-12.5-.8-15.3-1.8z"/>
		<path d="M35.4 7.4C31.6 2.7 25.9 0 19.9 0h-.1c-6 0-11.6 2.7-15.4 7.4 2.9-1.1 8.8-1.8 15.5-1.8s12.7.8 15.5 1.8z"/>
		<path d="M36.9 9.4c-1.6 1.4-8.6 2.5-16.9 2.5s-15.4-1-16.9-2.5C1.3 12.3.2 15.6 0 19c2.4-1.5 10.4-2.7 19.9-2.7s17.6 1.2 19.9 2.7v-.1c-.1-3.5-1.1-6.6-2.9-9.5z"/>
	</g>
</svg>