<svg viewBox="0 0 40 40" xmlns="http://www.w3.org/2000/svg">
	<path fill="#057A55" d="M22.5352 7.01617c-.0005.02967.0107.05787.0316.07927.0209.0214.0491.03307.0788.03307h.356c1.1428 0 2.0698.92644 2.0698 2.06979v21.5232l-6.2128-20.1289c-.6021-1.956-2.5065-3.59637-4.5544-3.59637H9.8417c-.06079 0-.10991.04912-.10991.10991v.17605c0 .06079.04912.10991.10991.10991h.4907c1.0811 0 1.7702.8924 1.7702 2.07416V29.3461c0 1.2557-1.0179 2.2736-2.27354 2.2736H9.6107c-.06079 0-.10991.0491-.10991.1099v.1542c0 .0608.04912.1099.10991.1099h7.3284c.0608 0 .1099-.0491.1099-.1099v-.1542c0-.0608-.0491-.1099-.1099-.1099h-.5379c-1.8349 0-3.3225-1.4877-3.3225-3.3226V12.2699l4.4625 14.1909c.8257 2.5614 3.9815 5.2883 7.8093 5.2883 3.5672 0 6.6388-3.3396 6.6388-6.9651 0-3.4607-2.0625-6.2128-5.1929-6.9579h.0014c1.9575-.3088 3.573-1.7381 4.0589-3.659.9911-3.9179-1.1857-7.35616-6.436-7.35616h-1.7736c-.0599 0-.109.04815-.11.10797l-.0019.09726Zm-2.5347-4.81459c9.814 0 17.7984 7.98442 17.7984 17.79842s-7.9844 17.7984-17.7984 17.7984S2.20207 29.814 2.20207 20 10.1865 2.20158 20.0005 2.20158Zm0-2.20158C8.95465 0 0 8.95465 0 20c0 11.0453 8.95465 20 20.0005 20 11.0458 0 20-8.9542 20-20 0-11.04584-8.9542-20-20-20Z"/>
</svg>