<svg xmlns="http://www.w3.org/2000/svg" viewBox="0 0 40 40">
	<path fill="#005BAA" d="M22.184 37.2008c2.353.2482 5.5266-1.7061 9.5361-6.173 2.9104-3.2572 5.666-6.6694 8.2358-10.1902v15.1689C39.7546 37.6816 38.2685 39 36.4572 39H7.47722c2.24471-2.0318 4.65968-4.9633 6.84248-8.329 2.1983-3.3657 2.5698-4.3894 4.1179-7.7396.6192-.2326 2.415-.822 3.7618-1.1787-1.6254 3.2726-3.3129 7.3673-3.4677 9.7559-.2941 3.3347 1.0992 5.4596 3.4523 5.6922Zm-8.3442-12.7494s-2.833 5.4441-4.82999 7.9878c-1.11461 1.3494-5.35635 8.2824-8.297694 6.049-2.832986-2.8229 4.427504-8.6547 5.867214-9.6474 2.47692-1.9543 7.26047-4.3894 7.26047-4.3894ZM3.65346 5.38939C.975289 7.56082 0 9.76327 0 9.76327V4.36571C0 2.52 1.61 1 3.56058 1H31.1009s-1.61.12408-3.1581 1.78367c-.8824.94613-3.6999 4.8547-6.7806 4.04817-3.0652-.80653-2.4614-3.3347-5.5111-4.17225-3.0497-.83755-8.74667.09306-11.99764 2.7298ZM32.2 3.62122c1.4552-1.05469.9908-2.35755-.0619-2.62122h4.3191c1.61 0 2.9723 1.05469 3.3903 2.46612-2.4305-.23265-6.4709 1.30286-9.66 5.24245-3.2355 4.00163-5.9601 8.87183-5.9601 8.87183s-2.5079.729-3.8083 1.1167c.4025-.853 2.2293-4.3583 5.2945-8.71669 2.6007-3.69143 5.248-5.45959 6.4864-6.35919ZM15.7594 20.031C10.8985 21.5045 3.29741 25.4131 0 29.849V15.0367c1.19202 1.7992 2.77106 2.8694 4.81452 3.3502 2.58529.5274 5.17058.1396 7.47718-1.1322 1.0527-.5739 1.9971-1.2874 2.8485-2.1404 1.7184-1.7216 1.0991-3.769-.3096-4.1878-1.4088-.4032-2.7711.5274-3.4677 1.6441-.7121 1.1323-1.64097 2.5127-4.65972 2.5127-1.51712 0-3.31289-.9617-3.77731-3.1331-.75856-3.30367 3.46769-6.71591 7.29143-7.28979 6.1768-.94612 4.6133 3.14857 7.5701 5.19592.7431.54287 2.6937 1.20977 4.474-.01551-.9444 1.33388-4.9539 7.49138-6.502 10.19018ZM33.7171 8.77061c1.8268-2.06285 4.7836-3.47428 6.0375-1.96979 1.2385 1.52-2.4924 4.51348-4.9074 6.00248-2.3995 1.4889-4.7216 2.7763-6.7031 3.6138 1.2384-2.2955 4.2726-6.1575 5.573-7.64649Zm1.0372 7.41389c1.4398-.9772 3.7774-2.7763 5.2016-4.1878v5.8164c-1.1146 1.3493-7.5237 8.5461-10.1864 10.9967-4.5358 4.1722-7.5855 3.5518-6.409-.822.7121-2.5902 1.7184-5.1029 3.0033-7.4605 1.5326-.6049 5.4028-2.2955 8.3905-4.3428Z"/>
</svg>