<svg xmlns="http://www.w3.org/2000/svg" viewBox="0 0 40 40">
	<path fill="#E3000F" d="M36.9 22.7002c-4.6 5.2-9.9 7.8-16.9 7.7-7 .1-12.3-2.5-16.9-7.7l-3.1 3.8c2.6 2.7 5.7 4.8 9.1 6.3 3.4 1.5 7.1 2.2 10.9 2.2 3.7 0 7.4-.8 10.9-2.2 3.4-1.5 6.5-3.6 9.1-6.3l-3.1-3.8Z"/>
	<path fill="#44413E" d="M31.4999 20.8004h3.8l-6.7-8.3 6.4-7.10001h-3.5l-5.5 6.40001V5.40039h-3V20.8004h3v-7.7l5.5 7.7Zm-14.9-11.60001c.9 1.10001 1.4 2.50001 1.4 3.90001.1 1.4-.4 2.8-1.4 3.9-.5.5-1 .8-1.6 1.1-.6.3-1.3.4-1.9.4-.7 0-1.3-.1-1.9-.4-.6-.3-1.2-.6-1.6-1.1-.9-1.1-1.4-2.5-1.4-3.9-.2-1.4.3-2.8 1.3-3.90001 1-.9 2.2-1.5 3.6-1.5 1.3 0 2.6.5 3.5 1.5Zm4.1 7.00001c.4-1 .6-2.1.6-3.2s-.1-2.1-.5-3.10001c-.4-1-1-1.9-1.7-2.7-1.6-1.5-3.7-2.3-5.8-2.3-2.1 0-4.5.8-6 2.3-.8.8-1.4 1.7-1.8 2.7-.4 1.00001-.6 2.10001-.6 3.20001 0 1.1.2 2.2.6 3.2.4 1 1 1.9 1.8 2.7 1.6 1.5 3.7 2.3 5.8 2.3 2.2 0 4.3-.8 5.8-2.3.8-.9 1.4-1.8 1.8-2.8Z"/>
</svg>