<svg xmlns="http://www.w3.org/2000/svg" viewBox="0 0 40 40">
	<path fill="#1971C0" d="M9.74135 14.3318c-2.96985 2.5854-4.39279 4.7772-6.19961 8.1367-2.1964 5.2913-2.45119 11.3618 1.93706 15.4947 12.5244 8.9102 29.822-13.813 19.6231-21.9492-3.7439-2.0667-10.1988.2594-13.6874 3.7439 4.2671-3.2297 15.4453-5.7657 10.8518 4.7727-6.5932 15.1234-23.7566 5.9403-9.5545-11.6166.1296-.2594 2.7105-3.4846-2.84021 1.4178h-.13024ZM13.3561.129668C13.2265-.125118 9.98363 1.53441 9.09301 2.32607c-1.83867 1.64189-5.83734 6.5039-2.58085 8.52113 1.27905.7917 8.38694-.2997 12.00564-.6443 12.252-1.17217 16.6533 1.4178 10.9724 6.195 8.007-2.4512 12.9093-13.16871 3.6142-14.59108-7.0942-.38445-17.5524 2.06673-19.8785 1.68228-1.5475-.25934-1.8074-.64834-1.0334-2.1964C12.4519.903697 13.4852.259336 13.3556 0l.0005.129668Z"/>
</svg>