<svg xmlns="http://www.w3.org/2000/svg" viewBox="0 0 40 40">
	<path fill="#0DB14B" d="M24.8375 11.7734v9.404h-9.4188v-9.404H6.01482V40h9.40388v-9.4187h9.4188V40h9.4039V11.7734h-9.4039Zm-9.4188-7.06406c0-.93205-.2766-1.84314-.7947-2.61791-.5181-.77477-1.2545-1.37837-2.1159-1.734371-.8614-.35600161-1.809-.4483936-2.72294-.2654782C8.87123.274496 8.03213.724492 7.3741 1.38459c-.65802.6601-1.10537 1.50061-1.28541 2.41511-.18003.9145-.08466 1.86186.27406 2.72212.35871.86027.96462 1.59474 1.74102 2.11043.7764.51568 1.68836.78939 2.62043.78646.6177 0 1.2294-.12192 1.7999-.35876.5706-.23685 1.0888-.58398 1.5249-1.02148.4361-.4375.7816-.95677 1.0166-1.52805.2351-.57128.3551-1.18333.3531-1.80108Zm18.8226.00006c0-.93016-.2755-1.83949-.7916-2.61328-.5162-.7738-1.25-1.37741-2.1088-1.734705-.8588-.35729408-1.8042-.4522686-2.7169-.2729445-.9127.1793245-1.7518.6249155-2.4116 1.2805695-.6598.65566-1.1106 1.49202-1.2957 2.40358-.185.91157-.096 1.85752.2559 2.71854.3519.86103.9509 1.59856 1.7215 2.11957.7705.52102 1.6781.80218 2.6082.80803.621.00391 1.2365-.11502 1.8113-.34994.5748-.23492 1.0975-.58119 1.5379-1.01888.4405-.4377.79-.95818 1.0285-1.53148.2385-.57331.3613-1.18812.3613-1.80906Z"/>
</svg>