<svg viewBox="0 0 40 40" xmlns="http://www.w3.org/2000/svg">
	<path fill="#FF0508" d="M0 32.6236V17.2317h15.3919V8H40v24.6246H0v-.001Z"/>
	<path fill="#fff" d="M8.36863 27.7584h-.3324l-1.57749-7.0739H3.51953v8.5678h1.52792v-7.0739h.33241l1.52792 7.0739h2.59027l1.56095-7.0739h.3324v7.0739h1.5279v-8.5678H9.98014l-1.61151 7.0739Zm15.50857 1.4939h5.3633v-1.4948h-3.8023v-2.1422h3.2706v-1.4269h-3.2706v-2.009h3.8023v-1.4949h-5.3633v8.5678Zm-5.4789-1.2781c-1.7437 0-2.5572-1.3121-2.5572-3.0053 0-1.6931.8135-3.0053 2.5572-3.0053s2.5572 1.3122 2.5572 3.0053c0 1.6932-.8135 3.0053-2.5572 3.0053Zm0-7.5054c-2.6233 0-4.1513 1.8097-4.1513 4.4661 0 2.6564 1.528 4.5332 4.1513 4.5332s4.1512-1.8759 4.1512-4.5332c0-2.6564-1.5279-4.4661-4.1512-4.4661Zm11.922 8.7835h1.6601l1.8594-3.3872 1.9925 3.3872h1.6601l-2.6564-4.4836 2.4912-4.0851h-1.6601l-1.7437 3.0548-1.7768-3.0548h-1.6601l2.391 4.0346-2.5572 4.5341Z"/>
</svg>