<svg viewBox="0 0 40 40" xmlns="http://www.w3.org/2000/svg">
	<path fill="#8DC63F" d="M29.5973 17.9194L39.7315.402685C39.8658.201342 39.7315 0 39.5302 0h-6.4429c-1.5437 0-2.8188.738255-3.5571 2.01342L18.6577 20.8054c-.0671.1342 0 .3355.1342.4027 5.0336 1.812 9.1275 5.6376 11.3423 10.4026.0671.2014-.067.4027-.2684.4027H8.25503c-.13422 0-.26845-.1342-.26845-.2685V8.25503c0-.13422.13423-.26845.26845-.26845H19.1275c1.4094 0 2.7517-.73825 3.49-2.01343L25.8389.402685C25.9731.201342 25.8389 0 25.6376 0H.268457C.134228 0 0 .134228 0 .268457V39.7315C0 39.8658.134228 40 .268457 40H39.7315c.1343 0 .2685-.1342.2685-.2685-.0671-8.6576-4.094-16.3758-10.3355-21.4764-.1343-.0672-.1343-.2014-.0672-.3357z"/>
</svg>
