<svg viewBox="0 0 40 40" xmlns="http://www.w3.org/2000/svg">
	<path fill="#8BBC06" d="M20.0194 33.1525c-1.7223-.012-3.4251-.3625-5.0101-1.0314-1.5849-.6688-3.0207-1.6427-4.2243-2.8654-1.20361-1.2226-2.15121-2.6699-2.78809-4.258-.63687-1.5882-.95039-3.2859-.92244-4.9951-.02898-1.7103.28369-3.4094.91996-4.9991.63627-1.5898 1.58352-3.0387 2.78707-4.2631 1.2036-1.22441 2.6396-2.20008 4.2251-2.87066 1.5856-.67058 3.2893-1.0228 5.0128-1.03631 1.7209.01842 3.4213.37414 5.0034 1.04672 1.5821.67257 3.0146 1.64875 4.2155 2.87245 1.2008 1.2237 2.1462 2.6708 2.7818 4.2582.6356 1.5875.949 3.2839.9221 4.9918.0262 1.7069-.2878 3.4022-.9239 4.9882-.6361 1.5861-1.5818 3.0318-2.7827 4.2539-1.2009 1.2222-2.6333 2.1967-4.215 2.8675-1.5816.6709-3.2813 1.0236-5.0012 1.0403Zm0-33.15187962C17.3737-.0202109 14.7506.483763 12.3039 1.48295c-2.44665.99919-4.66752 2.47346-6.53221 4.33624-1.86468 1.86278-3.3356 4.07654-4.32638 6.51131-.990783 2.4347-1.4814654 5.0414-1.44323627 7.667C-.0356037 22.6228.455288 25.2292 1.44596 27.6637c.99067 2.4346 2.46117 4.6483 4.32527 6.5113 1.86409 1.863 4.08424 3.3379 6.53027 4.3381 2.446 1.0001 5.0686 1.5055 7.714 1.4864 2.6431.0162 5.2629-.4914 7.7058-1.493 2.443-1.0016 4.6599-2.477 6.5209-4.3399 1.8611-1.8628 3.3287-4.0756 4.317-6.5087.9883-2.433 1.4774-5.0374 1.4386-7.6604.0397-2.6231-.4488-5.2276-1.4368-7.6607-.9881-2.43319-2.4558-4.646-4.3171-6.50863-1.8612-1.86263-4.0786-3.33757-6.5219-4.33828C25.2787.489183 22.6586-.0171434 20.0155.00062038"/>
</svg>