<svg xmlns="http://www.w3.org/2000/svg" viewBox="0 0 40 40">
	<path fill="#00BEF0" d="M20 0C8.94009 0 0 8.94009 0 20c0 11.0599 8.94009 20 20 20 11.0599 0 20-8.9401 20-20C40 8.94009 31.0599 0 20 0Zm-2.765 28.4793-1.4746 4.3318c-5.53-1.8434-9.21662-7.0968-9.21662-12.9954 0-5.8987 3.68662-11.05994 9.30872-12.99542l1.4747 4.33182c-3.6866 1.1981-6.083 4.7004-6.083 8.5714-.1843 4.0553 2.3042 7.5576 5.9908 8.7558Zm6.8203 4.4239-1.3825-4.4239c3.7788-1.1982 6.2673-4.7005 6.2673-8.6636 0-3.9632-2.4885-7.3733-6.1751-8.5715l1.4746-4.42392c5.6221 1.84331 9.401 7.09672 9.401 12.99542 0 6.0829-3.871 11.3364-9.5853 13.0875Z"/>
</svg>