<svg xmlns="http://www.w3.org/2000/svg" viewBox="0 0 40 40">
	<circle fill="#CDFB68" cx="20" cy="20" r="20"/>
	<path fill="#222" d="M5 20.4976c0-8 6.7051-14.48814 14.9793-14.4976v5.2387c-5.2842.0071-9.5612 4.1504-9.5612 9.2589 0 5.1087 4.2891 9.2636 9.5831 9.2636s9.5784-4.1076 9.5784-9.2967L35 20.4693C35 28.5072 28.2877 35 20.0012 35 11.7148 35 5 28.5048 5 20.4976Zm8.381-.0002c0-3.5516 2.9827-6.4312 6.6539-6.4312 3.6713 0 6.6565 2.8796 6.6565 6.4312 0 3.5517-2.9828 6.4313-6.6565 6.4313s-6.6539-2.8772-6.6539-6.4313ZM28.4624 8.66466c-2.1045 0-3.8124 1.64924-3.8124 3.68654 0 2.0349 1.7055 3.6888 3.8124 3.6888 2.1069 0 3.8148-1.6515 3.8148-3.6888s-1.7104-3.68654-3.8148-3.68654Z"/>
</svg>