<svg xmlns="http://www.w3.org/2000/svg" viewBox="0 0 40 40">
	<path fill="#005BFF" d="M0 0h40v40H0z"/>
	<path fill="#F91155" d="M40 26.399v13.6H7.5V20.0239c2.48451-3.0699 6.3814-5.6317 11.1069-6.962 3.3693-.9486 6.7085-1.1428 9.6983-.6966l8.8615 10.6337 2.0564 2.4677.7769.9323Z"/>
	<path fill="#fff" d="M8.6013 23.48c.86498 3.0724 6.7281 5.1321 13.2728 3.2895 6.5624-1.8475 10.4588-6.6548 9.5938-9.7272-.865-3.0724-6.7135-5.1314-13.2582-3.2889-6.5447 1.8425-10.47339 6.6541-9.6084 9.7266Zm-5.71787 1.6097C.986148 18.3506 7.13069 10.7298 16.6073 8.06187c9.4766-2.66793 18.7147.63162 20.6095 7.36193 1.8948 6.7304-4.2651 14.3649-13.7416 17.0328-9.4767 2.668-18.69449-.6277-20.59177-7.3669Z"/>
</svg>