<svg xmlns="http://www.w3.org/2000/svg" viewBox="0 0 40 40">
	<path fill="#005bff" d="M35.8 40H4.2C1.9 40 0 38.1 0 35.8V4.2C0 1.9 1.9 0 4.2 0h31.5C38.1 0 40 1.9 40 4.2v31.5c0 2.4-1.9 4.3-4.2 4.3z"/>
	<path fill="#f81055" d="M35.8 0h-9.4c.2.1.3.3.5.4l3.8 2.4H13c-1.6 0-3 1-3.4 2.6s.2 3.1 1.6 4l11.6 7.1H4.7c-1.6 0-3 1.1-3.4 2.6-.4 1.5.2 3.1 1.6 3.9l11.5 7H0v5.7C0 38.1 1.9 40 4.2 40h9.6c-.1-.1-.3-.2-.4-.3l-4.1-2.6H27c1.6 0 3-1.1 3.4-2.6.4-1.5-.2-3.1-1.6-4l-11.7-7.1 18.1-.1c1.6 0 3-1.1 3.4-2.6.4-1.5-.2-3.1-1.6-3.9l-11.5-7H40V4.2C40 1.9 38.1 0 35.8 0z"/>
</svg>