<svg viewBox="0 0 40 40" xmlns="http://www.w3.org/2000/svg">
<path fill="#FFD100" d="M40 20c0 11.0881-8.9351 20-20.0519 20C8.83117 40 0 31.0881 0 20 0 9.01554 8.93507 0 19.9481 0 30.961 0 40 9.01554 40 20z"/>
<path fill="#5E686B" d="M11.5325 21.1398v7.8757c0 2.9015-1.97406 5.3886-4.88315 5.9067.31169.3109.72728.6218 1.14286.9326l10.07789-2.1761c4.052-.829 6.9611-4.456 6.9611-8.6011v-6.943l-13.2987 3.0052zM19.5324 0c0 5.90673-7.8961 5.90673-7.8961 11.9171v7.9793l16.9351-3.627v-4.3523c0-5.90674-7.8961-6.01037-7.8961-11.9171h-1.1429z"/>
</svg>
