<svg version="1.1" id="Layer_1" xmlns="http://www.w3.org/2000/svg" x="0" y="0" viewBox="0 0 40 40" style="enable-background:new 0 0 40 40" xml:space="preserve">
  <style>
    .st0{fill:#19b5ff}
  </style>
  <path class="st0" d="M39.8 19.1c-.3-1-.7-1.9-1.4-2.7-.8 1.1-2 1.9-3.4 2.3v.1c.4.6.7 1.4.6 2.1 0 .6-.1 1.2-.3 1.7-.3.5-.6 1-1.1 1.3-1.4.9-3.6 1-4.5 1h-4.8V17h4.8c4.3 0 9.2-2 9.2-7.6C38.8 2 30.3 2 29.3 2h-8.4c-.2 0-.4.1-.5.2-.1.1-.2.3-.2.5v25.5c0 .1 0 .2.1.3 0 .1.1.2.2.2s.1.1.2.1h9.5c1.4 0 2.8-.2 4.2-.5 1.1-.3 2.2-.8 3.1-1.5.8-.7 1.5-1.5 1.9-2.5.5-1.1.7-2.2.7-3.4-.1-.5-.2-1.2-.3-1.8zm-15-13.2H29c1.4-.1 2.7.2 3.9.9.4.3.8.7 1 1.2.2.5.3 1 .3 1.5s-.1 1-.3 1.5c-.2.5-.6.9-1 1.2-1.3.7-2.5.8-3.9.8h-4.2V5.9zM.4 28.8c.1 0 .2.1.3.1h3.1c.1 0 .2 0 .3-.1.1 0 .2-.1.2-.2.1-.1.2-.3.2-.5V19h4c1.4 0 2.8-.2 4.2-.6 1.2-.3 2.3-.9 3.2-1.6.9-.7 1.6-1.6 2.1-2.7.5-1.2.8-2.4.7-3.7.1-1.1-.2-2.3-.7-3.5-.5-1-1.2-2-2.1-2.7-1-.8-2.1-1.3-3.2-1.7-1.4-.3-2.8-.5-4.2-.5H.7c-.1 0-.2 0-.3.1-.1 0-.2.1-.2.2-.1.1-.2.3-.2.4v25.4c0 .2.1.4.2.5l.2.2zM4.5 5.9h3.6c2 0 3.5.3 4.5 1.1 1 .7 1.5 1.9 1.5 3.5 0 1.7-.5 2.9-1.5 3.6-1 .7-2.5 1.1-4.5 1.1H4.5V5.9zM37.6 31.4c0-.1-.1-.1-.1-.1H.3c-.2 0-.3.1-.3.2s.1.2.3.2l37.1 5.7c.1 0 .2 0 .2.1.1 0 .1-.1.1-.1V31.5c-.1 0-.1-.1-.1-.1z"/>
</svg>
