<svg xmlns="http://www.w3.org/2000/svg" viewBox="0 0 40 40">
	<path fill="#BEA980" d="M0 9.41176C0 4.21378 4.21378 0 9.41176 0H30.5882C35.7862 0 40 4.21378 40 9.41176V30.5882C40 35.7862 35.7862 40 30.5882 40H9.41176C4.21378 40 0 35.7862 0 30.5882V9.41176Z"/>
	<path fill="#fff" d="M20.0524 17.7295c1.3171 0 2.3601 1.0382 2.3601 2.3497 0 1.3116-1.043 2.3499-2.3601 2.3499-1.3174 0-2.3604-1.0383-2.3604-2.3499.0551-1.3115 1.0979-2.3497 2.3604-2.3497Zm3.5126-4.6997c-1.3172 0-2.3601 1.0382-2.3601 2.3498s1.0429 2.3499 2.3601 2.3499c1.3174 0 2.3603-1.0383 2.3603-2.3499 0-1.3116-1.0429-2.3498-2.3603-2.3498Zm-7.0256 0c-1.3172 0-2.3601 1.0382-2.3601 2.3498s1.0429 2.3499 2.3601 2.3499c1.3173 0 2.3602-1.0383 2.3602-2.3499 0-1.3116-1.0429-2.3498-2.3602-2.3498Zm10.5385-4.69972c1.3173 0 2.3601 1.03831 2.3601 2.34982 0 1.3116-1.0428 2.3499-2.3601 2.3499-1.3174 0-2.3602-1.0383-2.3602-2.3499.0549-1.31151 1.0977-2.34982 2.3602-2.34982Zm-7.0255 0c1.3171 0 2.3601 1.03831 2.3601 2.34982 0 1.3116-1.043 2.3499-2.3601 2.3499-1.3174 0-2.3604-1.0383-2.3604-2.3499.0551-1.31151 1.0979-2.34982 2.3604-2.34982Zm-4.6655 2.34982c0 1.3116-1.043 2.3499-2.3602 2.3499-1.3173 0-2.3602-1.0383-2.3602-2.3499 0-1.31151 1.0429-2.34982 2.3602-2.34982 1.3172 0 2.3602 1.03831 2.3602 2.34982Zm8.1781 11.6945c-1.3172 0-2.3601 1.0384-2.3601 2.3499 0 1.3116 1.0429 2.3499 2.3601 2.3499 1.3174 0 2.3603-1.0383 2.3603-2.3499 0-1.2568-1.0429-2.3499-2.3603-2.3499Zm-7.0256 0c-1.3172 0-2.3601 1.0384-2.3601 2.3499 0 1.3116 1.0429 2.3499 2.3601 2.3499 1.3173 0 2.3602-1.0383 2.3602-2.3499 0-1.2568-1.0429-2.3499-2.3602-2.3499Zm10.5385 4.6998c1.3173 0 2.3601 1.0384 2.3601 2.3499 0 1.2568-1.0428 2.3497-2.3601 2.3497-1.3174 0-2.3602-1.0929-2.3602-2.3497.0549-1.3115 1.0977-2.3499 2.3602-2.3499Zm-7.0255 0c1.3171 0 2.3601 1.0384 2.3601 2.3499 0 1.2568-1.043 2.3497-2.3601 2.3497-1.3174 0-2.3604-1.0929-2.3604-2.3497.0551-1.3115 1.0979-2.3499 2.3604-2.3499Zm-7.0257 0c1.3172 0 2.3602 1.0384 2.3602 2.3499 0 1.2568-1.043 2.3497-2.3602 2.3497-1.3173 0-2.3602-1.0929-2.3602-2.3497.0549-1.3115 1.0978-2.3499 2.3602-2.3499Z"/>
</svg>