<svg viewBox="0 0 40 40" xmlns="http://www.w3.org/2000/svg">
<radialGradient id="gr1" cx="0" cy="0" r="1" gradientUnits="userSpaceOnUse" gradientTransform="translate(4.15 38.39) scale(33.18)">
<stop stop-color="#D6005E"/>
<stop offset="1" stop-color="#E3448A"/>
</radialGradient>
<path fill="url(#gr1)" d="M8.73 40H3V15.33c.02362-4.0585 1.64632-7.94402 4.51615-10.81385C10.386 1.64632 14.2715.0236193 18.33 0h18.94v15.2c-.0027 4.0667-1.62 7.9659-4.4965 10.8406C29.897 28.9152 25.9967 30.53 21.93 30.53h-9.6l2.13-5.73h7.34c1.2622.0053 2.5129-.2394 3.68-.72 1.1671-.4805 2.2275-1.1875 3.12-2.08.8925-.8925 1.5995-1.9529 2.08-3.12.4806-1.1671.7253-2.4178.72-3.68V5.73H18.2c-1.2622-.00529-2.5129.23941-3.68.71998-1.1671.48057-2.2275 1.1875-3.12 2.07999-.8925.8925-1.59945 1.95293-2.08002 3.12003-.48057 1.1671-.72527 2.4178-.71998 3.68V40h.13z"/>
</svg>
