<svg xmlns="http://www.w3.org/2000/svg" viewBox="0 0 40 40">
	<path fill="#5052FE" d="M28.5275 1.91903C32.5 3.79689 35.7438 6.93035 37.758 10.8356l.0219.0218c1.5671 3.0474 2.3225 6.4472 2.1937 9.8714-.6801-.0109-1.3711-.0439-2.0566-.0932-2.1168-1.3765-15.4322-9.6794-15.4322-9.6794-.2305-.1518-.4975-.239-.7733-.2522-.3054.0207-.6027.1067-.872.2522-5.3141 2.4349-10.6117 5.2264-13.81436 6.9209-.11231.0089-.2246.0173-.33671.0256-.23283.0173-.46482.0345-.69432.0567.86645-.7952 12.71759-11.21499 13.91309-11.29177 1.053.08775 11.7634 9.04877 12.0212 9.27907 0 0-8.7745-9.32295-11.0559-10.46912-.3029-.17664-.6327-.30261-.9762-.37291-.342.06702-.6701.19124-.9707.36743C16.2493 6.62375 2.65975 18.3926 2.65975 18.3926S.882937 18.7381 0 18.941c.233855-4.3877 1.90584-8.5765 4.75766-11.9193C7.60947 3.67887 11.4825 1.36789 15.7786.445642 20.0747-.476607 24.555.0411771 28.5275 1.91903ZM10.0245 17.3357h-.0001c-.26357.1337-.4989.2531-.70016.355 7.19506-.5869 12.69566.2577 19.46306 1.6068 2.1058.4168 4.3872.839 6.718 1.0968-3.5372-2.583-12.8931-8.5607-13.8144-8.5607l-.0056.0165c-.8472 0-8.4058 3.8343-11.6608 5.4856Zm29.2723 4.7758c-3.6135.1833-7.2361.0476-10.8256-.4059-7.7326-.8774-14.5493-1.4258-20.48312-.0767-2.64068.5649-5.1603 1.5936-7.441925 3.0382.345786 1.4067.840365 2.7726 1.475235 4.0747 1.75509-1.0882 3.64976-1.9332 5.63215-2.5117 4.22276-1.2504 8.74166-1.3656 13.39216-.9817.8945.0735 1.7865.1527 2.6783.2319h.0002c4.2966.3815 8.5899.7627 13.1541.5085.7568-.0367 1.5027-.097 2.2375-.181.3734-1.2235.6304-2.4794.7678-3.7511l-.5485.0438-.0383.011Zm-8.335 10.5507c1.7021-.039 3.3937-.2783 5.04-.7129 1.0058-1.3525 1.8368-2.8265 2.4733-4.3873-.8007.1481-1.6452.2742-2.4569.3784-2.9284.3651-5.9665.0857-9.0041-.1935-3.2599-.2998-6.5192-.5994-9.6419-.1026-3.0522.4164-5.9721 1.5128-8.54417 3.2082-1.20036.8267-2.27693 1.8201-3.1972 2.9504 1.16475 1.1085 2.39738 2.1433 3.69077 3.0985 2.5063-2.6927 6.208-4.5518 12.065-4.8151 1.8235-.0827 3.4273.0944 5.0191.2702 1.4673.162 2.9244.323 4.5342.2782l.0219.0275Zm-3.3871 1.6081c1.1682.0112 2.3705.0226 3.7285-.1159 1.1535-.1181 2.2946-.3347 3.4112-.6472-2.4188 2.64-5.5016 4.5826-8.9269 5.6254-3.4253 1.0427-7.0677 1.1473-10.5472.303.329-.593.7265-1.1452 1.1846-1.6452 1.2765-1.2839 2.8547-2.2267 4.5902-2.7421 2.5302-.8165 4.4916-.7978 6.5596-.778Z"/>
</svg>