<svg xmlns="http://www.w3.org/2000/svg" viewBox="0 0 40 40">
	<path fill="#E4003A" d="M30.5476 0 9 2.84381v6.4419l21.5476-1.94266V0Z"/>
	<path fill="#00274F" d="M22.3098 12.9766c-3.513 0-6.3682 2.1638-7.0761 3.0596v-2.5966H9v26.5608h6.1946v-9.4472c.7272.9153 3.5627 3.0402 7.0955 3.0402 5.8623 0 9.0909-3.1765 9.0909-10.3236 0-7.1471-3.2242-10.2932-9.0712-10.2932Zm-2.2192 15.4712c-3.6909 0-4.8526-1.3394-4.8526-5.1931 0-3.8538 1.153-5.1932 4.8526-5.1932 3.6997 0 4.831 1.32 4.831 5.1932 0 3.8732-1.114 5.1844-4.831 5.1844v.0087Z"/>
</svg>