<svg xmlns="http://www.w3.org/2000/svg" viewBox="0 0 40 40">
	<path fill="#2C2A29" d="M0 10.9403C0 8.21091 2.20952 6 4.93715 6v.01522c2.72762 0 4.93718 2.21099 4.93718 4.94028v17.5961c0 2.7293-2.20956 4.9403-4.93718 4.9403C2.20952 33.4919 0 31.2809 0 28.5516V10.9403Zm11.1391.7624c0-3.14107 2.56-5.7027 5.7143-5.7027 3.1543 0 5.7143 2.54641 5.7143 5.7027 0 3.1563-2.56 5.718-5.7143 5.718-3.1543 0-5.7143-2.577-5.7143-5.718Z"/>
	<path fill="#00C09F" d="M34.3621 6.01562c1.3105 0 2.56.51847 3.4895 1.44853.9295.93013 1.4477 2.16524 1.4477 3.49175 0 1.3266-.5182 2.5616-1.4477 3.4918L20.2821 32.0284c-1.9201 1.9213-5.0591 1.9365-6.9791 0-1.92-1.9212-1.92-5.0623 0-6.9835L30.8725 7.46415c.9296-.93006 2.1791-1.44853 3.4896-1.44853ZM40 27.7896c0 3.1579-2.5584 5.7179-5.7143 5.7179-3.156 0-5.7143-2.56-5.7143-5.7179 0-3.158 2.5583-5.718 5.7143-5.718 3.1559 0 5.7143 2.56 5.7143 5.718Z"/>
</svg>