<svg viewBox="0 0 40 40" xmlns="http://www.w3.org/2000/svg">
	<path fill="#0A3E86" d="M10.1131 17.9008c-1.06101.4201-1.96374 1.1621-2.58131 2.1217-.42545.6762-.66906 1.4509-.70721 2.2489-.03846.5755.1083 1.1483.4188 1.6344s.76844.8601 1.3068 1.0672c.70181.3342 1.43345.6017 2.18532.7991.2404.0637.7072.2193.9476.2829.5036.1071.951.3937 1.2589.8062.0771.2263.0875.47.0298.7021-.0577.232-.181.4425-.3551.6063-.4155.3756-.9416.6064-1.4993.6577-.4066.0279-.815.0065-1.21645-.0637-.21682-.0332-.42366-.1137-.6058-.236-.18213-.1222-.33508-.2831-.44794-.4712-.15157-.4234-.19532-.8779-.1273-1.3225H5.43137c-.30086 1.0974-.15597 2.2692.40311 3.2603.2056.3244.4751.6035.79208.8203.96726.5995 2.0959.886 3.23196.8204 1.04198.0017 2.07688-.1704 3.06228-.5092.4319-.171.8425-.3917 1.2234-.6577.6124-.4061 1.1328-.9361 1.5276-1.5559.3922-.62.6634-1.3087.7992-2.0297.1492-.6605.0849-1.3515-.1839-1.9731-.1382-.2681-.3253-.5079-.5516-.7072-.6224-.5728-1.4145-.9406-3.2249-1.4144-1.2801-.3536-1.7327-.5587-2.0156-.8345-.1174-.1106-.186-.2632-.1909-.4244.0026-.2941.1104-.5776.3041-.7991.1693-.2161.3978-.3783.6577-.4668.5772-.1859 1.1955-.2031 1.7822-.0495.196.0526.3775.1493.5304.2829.1506.1346.2607.3085.3182.5021.0496.2498.0496.5069 0 .7567h3.3027c.1745-.8173.0955-1.6685-.2263-2.4398-.1411-.3124-.3458-.5918-.6011-.8204-.669-.5919-1.5032-.9646-2.3904-1.0679-.469-.0602-.9417-.0862-1.4144-.0778-.84.0669-1.6663.2526-2.4541.5516Zm9.4838-.3111-3.0623 13.6845h3.5361c3.8119 0 3.6068 0 4.3423-.1273.9061-.1255 1.7588-.5028 2.4611-1.0891.6978-.5997 1.2166-1.3803 1.4993-2.256.1312-.3578.2283-.7272.2899-1.1032.0788-.3815.0793-.7751.0015-1.1568-.0778-.3817-.2323-.7436-.4541-1.0639-.2812-.3312-.6411-.5866-1.0467-.7426 0 0 .5446-.3111.7497-.4667.2738-.209.525-.4461.7496-.7072.4159-.5159.6934-1.1293.8063-1.7822.2758-1.6125-.3607-2.645-1.952-3.034-.3391-.0918-.6883-.1417-1.0396-.1485l-6.8811-.007Zm5.6577 2.8288c.1053.0092.2076.0404.3002.0915.0926.0512.1734.1212.2372.2055.1288.1675.1918.3763.1768.587-.0088.368-.1269.725-.3394 1.0255-.2263.291-.5418.4997-.8982.594-.5208.0635-1.0458.0847-1.57.0637h-1.4144l.5728-2.5955h1.372c.488-.0071 1.1811-.0071 1.563.0212v.0071Zm-1.0114 4.9081c.2297-.0009.4541.0682.6436.198.1896.1318.3331.3198.4102.5375.0707.2713.0707.5561 0 .8274-.0581.3673-.2315.7066-.4951.9689-.2609.2629-.5969.4383-.9618.5021-.5799.0707-3.2956.0424-3.2956.0424l.7072-3.0834 2.9915.0071Zm4.3918 5.9547h3.3169L35 17.6462h-3.3169L28.635 31.2813Z"/>
	<path fill="#FC121B" d="M28.9463 8c-3.2674 0-8.4866 1.23055-12.7299 2.8289-4.5631 1.6758-8.79204 4.1495-12.48938 7.3055C3.30976 18.4951.954738 20.7298 0 22.7383c1.63771-1.6141 3.43364-3.0594 5.36068-4.314C11.3698 14.6128 18.1685 12.2208 25.2405 11.43c4.1372-.4031 7.9915.3324 9.7029 1.4144 4.5262 2.8996 1.7539 7.1994 1.7256 7.3055.3395-.3536 3.331-3.1329 3.331-6.8175 0-1.6125-1.2023-3.1966-2.9774-4.06649C34.3918 8 32.4752 8 28.9463 8Z"/>
</svg>