<svg xmlns="http://www.w3.org/2000/svg" viewBox="0 0 40 40">
	<path fill="#5B57A2" d="m4 8.70703 4.844 8.65837v5.2813L4.00567 31.288 4 8.70703Z"/>
	<path fill="#D90751" d="m22.5991 14.2145 4.539-2.782 9.2893-.0087-13.8283 8.4714v-5.6807Z"/>
	<path fill="#FAB718" d="M22.5733 8.65566 22.599 20.119l-4.8553-2.9834V0l4.8299 8.65566h-.0003Z"/>
	<path fill="#ED6F26" d="m36.4273 11.4237-9.2897.0086-4.5643-2.77664L17.7437 0 36.427 11.4237h.0003Z"/>
	<path fill="#63B22F" d="M22.599 31.336v-5.5617l-4.8553-2.9266.0026 17.1526 4.8527-8.6643Z"/>
	<path fill="#1487C9" d="M27.1266 28.5793 8.84366 17.3654 4 8.70703 36.4076 28.568l-9.2813.0113h.0003Z"/>
	<path fill="#017F36" d="m17.7466 39.9997 4.852-8.6643 4.5276-2.7567 9.281-.0113-18.6606 11.4323Z"/>
	<path fill="#984995" d="m4.00586 31.2878 13.77764-8.4399-4.632-2.842-4.30731 2.6406-4.83833 8.6413Z"/>
</svg>