<svg xmlns="http://www.w3.org/2000/svg" viewBox="0 0 40 40">
	<path fill="#0f1735" d="M21.6 25.2c-.9 0-1.9-.2-2.7-.7-.8-.4-1.4-1.1-1.9-1.9-.9-1.7-.9-3.7 0-5.4.4-.8 1.1-1.4 1.9-1.9.8-.5 1.8-.7 2.7-.7 1.5 0 3 .6 4 1.8 0 0 .1.1.2.1s.1 0 .2-.1l2-2c.1-.1.1-.2 0-.3-.7-.8-1.6-1.5-2.7-1.9-1.2-.5-2.5-.8-3.9-.8-1.6 0-3.1.3-4.5 1.1-1.3.7-2.4 1.7-3.2 3-.8 1.3-1.2 2.8-1.2 4.4 0 1.5.4 3 1.2 4.4.8 1.3 1.9 2.3 3.2 3 1.4.7 3 1.1 4.5 1.1 1.3 0 2.6-.2 3.9-.7.9-.4 1.8-1 2.5-1.7.1-.1.1-.2 0-.3l-1.9-2.2s-.1-.1-.2-.1-.1 0-.2.1c-.9 1.1-2.4 1.7-3.9 1.7z"/>
	<linearGradient id="gr1" gradientUnits="userSpaceOnUse" x1="8.0845" y1="11.7981" x2="31.333" y2="29.6078" gradientTransform="matrix(1 0 0 -1 0 39.8898)">
		<stop offset="0" stop-color="#f7ac1e"/>
		<stop offset="1" stop-color="#dc3b55"/>
	</linearGradient>
	<path fill="url(#gr1)" d="M31.7 10.9l-1.8 1.7s-.1.1-.2.1-.1 0-.2-.1c-3.5-4-9.2-5.1-13.9-2.7-4.7 2.4-7.1 7.8-5.8 12.9 1.3 5.1 5.9 8.6 11.2 8.6.1 0 .2 0 .2.1 0 .6-.1 2.6-.1 2.6 0 .1-.1.2-.2.2-6.2.1-11.7-3.9-13.6-9.8-1.4-4.4-.7-9.2 2-12.9 2.7-3.7 7-5.9 11.6-5.9 4.1 0 8 1.8 10.7 4.9.2 0 .2.2.1.3z"/>
	<linearGradient id="gr2" gradientUnits="userSpaceOnUse" x1="15.9813" y1="40.2416" x2="15.9813" y2="-.6585" gradientTransform="matrix(1 0 0 -1 0 39.8898)">
		<stop offset="0" stop-color="#385cfa"/>
		<stop offset="1" stop-color="#94c2fc"/>
	</linearGradient>
	<path fill="url(#gr2)" d="M20.5 40c-8.7-.2-16.3-6-18.7-14.4-2.5-8.4.8-17.3 8-22.2C13.1 1.1 17 0 21 0c.1 0 .2.1.2.2v2.6c0 .1 0 .1-.1.1-3.4 0-6.8.9-9.6 2.8-6.2 4.2-9 11.9-6.9 19.1C6.7 32 13.3 37 20.8 37.1h.2c2.9 0 5.8-.7 8.4-2.2.1 0 .2 0 .3.1l1.2 2.1v.2c0 .1-.1.1-.1.1-3 1.7-6.3 2.6-9.8 2.6h-.5z"/>
</svg>