<svg xmlns="http://www.w3.org/2000/svg" viewBox="0 0 40 40">
	<path fill="#005187" d="M29.8054 34.357c-2.4901-1.758-3.5914-3.5811-2.649-5.2306 0 0 4.1751-5.8708 1.3143-18.1117 0 0 7.9048-3.4618 9.2191-10.472101L31.8514 3.32068c.2853-.58601.5187-1.19371.6884-1.82312.1481-.45578.307-1.009228.4021-1.49756l-1.4191.683663L19.071 6.53283c-.0637.03256-.1167.07596-.1372.14107-.6679 1.46502-.8906 3.2013-.8484 5.0353-1.1338-.3798-2.3205-.5969-3.571-.5969-1.8438 0-3.5817.4667-5.1283 1.2589-.0108-.0327-.02161-.076-.04215-.1085-.09619-.0977-.24426-.1195-.36098-.0435l-1.48284.9441-.3718-2.9843c-.00972-.141-.13725-.24954-.27451-.26035-.14915 0-.26588.10855-.28641.24955l-.44529 2.9735-1.4731-.9767c-.11673-.076-.26481-.0652-.35992.0325-.0951.0977-.11672.2495-.04215.369l.92193 1.5192-2.91489.369c-.14807.0217-.25399.1411-.25399.293 0 .1519.10591.2713.24426.293l2.903.4558-.96406 1.4975c-.07458.1085-.06378.2713.03133.369.02162.0217.06376.0325.09511.0435-.86896 1.6603-1.36611 3.5593-1.36611 5.5669 0 6.5328 5.1921 11.8503 11.57087 11.8503 1.5791 0 3.0835-.3256 4.4615-.9116.0951.076.1805.1411.2864.2171 4.4929 3.3532 7.7136 2.051 10.247 3.1795C31.5963 38.242 32.5074 40 32.5074 40l3.826-1.3131c-1.4839-2.7021-4.6096-2.9734-6.528-4.3299ZM19.4104 7.02117l12.6528-5.92513c-.1913.74878-.4669 1.48671-.816 2.19207l-8.87 4.21054c-.0638.03255-.1167.07595-.1373.14105-1.5152 3.3858-1.6212 7.9218-1.7066 11.9154-.0313 1.3565-.0637 2.637-.148 3.7439-.0638-.7922-.1902-1.6712-.3707-2.5937-.0746-.358-.1481-.727-.2227-1.096-.8689-4.319-1.8546-9.2241-.3815-12.58813ZM15.1078 26.6196c-.2648-.2712-.5188-.9875-1.4407-1.237-.4561-.1303-.9014-.076-1.2288 0-.3286.0759-.816.0108-1.177-.152-.1481-.0543-.3286-.152-.3286-.152-.2432-.1085-.508-.217-.7836-.1844-.41391.0542-1.01698.4558-1.01698.4558l1.87518.8898s.3707.1736.6355.5209c.7846 1.0635 1.431 1.3999 1.8546 1.6061 1.5369 1.2914 2.0665 2.6913 4.5458 4.7966-1.1013.4015-2.2988.6402-3.5396.6402-5.83838 0-10.58521-4.8617-10.58521-10.8302 0-2.4416.79438-4.6879 2.11942-6.5002h-.03242l.02162-.0217.35991 2.9951c.02162.141.13834.2604.28641.2604.13726 0 .26479-.1085.28641-.2496l.455-2.9734 1.4515.9875c.11673.076.26587.0651.36098-.0325.09511-.0977.11673-.2497.04216-.369l-.92191-1.5193 2.92463-.3689c.1372-.0218.254-.1411.254-.293 0-.152-.1059-.2713-.2432-.293l-2.9041-.4666c1.7282-1.248 3.826-1.9968 6.1043-1.9968 1.271 0 2.4901.2496 3.6131.6728.1589 2.2789.6463 4.6771 1.0916 6.9344.0745.3689.148.727.2226 1.096.5188 2.637.7847 5.5778-.0951 6.3483-1.7271.955-3.7514-.0976-4.2075-.5643Z"/>
</svg>