<svg xmlns="http://www.w3.org/2000/svg" viewBox="0 0 40 40">
	<path fill="#0164A9" d="m34.6503 6.20071-9.8294 5.73869V.656546c-3.6008-.875395-6.715-.875395-9.3426 0V11.9394L5.74624 6.298c-2.53028 2.7234-4.08744 5.3496-4.67133 8.0731l9.04829 5.2752 10.156-5.9384c3.3509 1.9513 6.0325 3.5125 8.1718 4.7577l1.8361 1.0686 9.1319-5.2604c-.9732-3.1125-2.6277-5.7387-4.7687-8.07309ZM29.9627 19.6179l-9.6707-5.6104-9.7172 5.7178c1.177.2231 2.1887.5013 3.2479.7928.3199.0883.6435.1775.9777.2667 2.1383.5831 4.0822.2916 5.4432-.8753 1.8461-.9723 3.7899-1.3607 5.4424-1.166 2.0415.1937 3.3048.4861 4.2767.8744ZM5.66497 33.8136C3.62436 31.9659 2.06873 29.3406 1 25.743l9.5577-6.0073 9.8805 5.8136 9.6185-5.8696 9.1392 5.9664c-.9719 3.1115-2.4298 5.8337-4.665 8.0697l-9.8159-5.639v11.3757c-3.1103.6808-6.2206.7776-9.3309 0V28.1737l-9.71913 5.6399Z"/>
</svg>