<svg viewBox="0 0 40 40" xmlns="http://www.w3.org/2000/svg">
	<path fill="#FDB913" d="M15.1198 24.3604l4.4838-.0045c.8666 0 1.6349-.2401 2.2246-.6421.6276-.4043 1.0977-1.0051 1.3769-1.6875l2.3073-6.3018-4.3264.0022c-.8621 0-1.6282.1597-2.2536.5651-.6689.402-1.2329 1.1614-1.4037 1.7254l-2.4089 6.3432z"/>
	<path fill="#004282" d="M26.5933 20.7566l-.9269 2.3284c-.3964.8834-1.1167 1.8472-1.5824 2.1688-.9068.6812-2.2045 1.2843-3.6194 1.2876l-8.5734.0078 2.3184-7.2153.9269-2.3285c.3965-.8833 1.1157-1.8471 1.578-2.1698.9124-.6801 2.2045-1.2854 3.6205-1.2854l8.0753-.009-1.817 7.2154zM40 10H12.8617c-1.4965 0-3.49881.43-5.16054 1.5958-1.52661 1.1246-1.8192 2.1654-2.40773 3.3727-.09939.2389-.28701.5606-.37188.8431L1.23737 26.5559 0 30.0905h27.9413c1.4931-.0023 3.4976-.4289 5.1605-1.5959 1.5199-1.1246 1.8214-2.1687 2.4021-3.3715.1017-.2423.2915-.5639.3764-.8431L40 10.067h-.0246L40 10z"/>
</svg>
