<svg xmlns="http://www.w3.org/2000/svg" viewBox="0 0 40 40">
	<path fill="#F08064" d="M32.0312 14h7.96875v11.3281H32.0312z"/>
	<path fill="#fff" d="M32.0312 14H0v11.3281h32.0312z"/>
	<path fill="#000" d="M6.32034 15.8024c-2.36435.1567-3.88068 1.1851-4.34398 2.9459-.10779.4096-.13562 1.3104-.05424 1.7539.33539 1.8274 1.71317 2.9211 3.97589 3.1561.57158.0594 1.75393.0239 2.27019-.068 1.63801-.2918 2.6701-1.0912 3.0896-2.3931.0405-.1259.0585-.244.0585-.244l-2.27111-.4341s-.02224.0639-.04733.1486c-.17392.5871-.61029.985-1.2702 1.1583-.79984.21-2.00318.1024-2.63568-.2356-.27694-.148-.57456-.4538-.70987-.7294-.16492-.3358-.2266-.6419-.22674-1.1253-.00017-.6829.16065-1.1408.5319-1.5146.4593-.4625 1.30411-.704 2.27968-.6518 1.11216.0595 1.77888.4719 2.02848 1.2547.03537.111.0346.1261.0346.1261.76899-.1475 1.53817-.2943 2.30417-.457 0 0 .014-.0127-.0146-.1165-.0712-.2586-.2489-.6344-.4264-.9017-.5949-.896-1.66729-1.4546-3.11342-1.6216-.34505-.0399-1.18409-.0691-1.45944-.0509Zm5.66406 7.7833h2.2239v-5.8881h4.4825v5.8881h2.2239v-7.665h-8.9303v7.665Zm9.8685.0028 3.1535-.0116c3.1408-.0115 3.1546-.0119 3.4488-.0899 1.2007-.3186 1.8649-1.2362 1.7949-2.4796-.0245-.434-.0807-.6582-.2533-1.0103-.2659-.5426-.8193-.9627-1.5243-1.1572-.2695-.0744-.3412-.0771-2.3716-.0889l-2.0949-.0122v-1.0761h5.6654v-1.742h-7.8185v7.6678Zm10.1814-5.8905 5.6466-.0179.0185-1.7594h-5.6651v1.7773Zm0 2.7479 1.7634.0108c1.7457.0106 1.765.0115 1.9079.0881.274.1469.3781.3672.3513.743-.0205.2877-.1049.4385-.3115.5571l-.1494.0858-1.7809.01-1.7808.0098v1.7089l2.0588-.0129c1.9931-.0125 2.0683-.0154 2.3542-.0903.9029-.2364 1.5462-.8449 1.7552-1.6603.0776-.3025.102-.7928.0546-1.0967-.1538-.9856-.7541-1.6426-1.7577-1.9238-.2712-.076-.3289-.0782-2.3715-.0896l-2.0936-.0117v1.6718Zm-4.4402.0056c.2889.0805.4779.3562.4765.6953-.0013.342-.1059.5365-.3625.6744-.1369.0736-.1659.0747-1.9112.0747H24.006v-1.4805h1.7294c1.0824.0001 1.7778.0136 1.8587.0361Z"/>
</svg>