<svg xmlns="http://www.w3.org/2000/svg" viewBox="0 0 40 40">
	<path fill="#09A543" d="M11.3493 7.04714 19.8983 0l-8.0869 7.85583 9.0111-6.81609-9.0111 8.20241 10.1664-7.27819-8.3179 8.43344 10.5129-7.74028-9.7042 8.66448 10.5129-7.85579-9.5887 9.01109 10.5129-8.20241-9.5887 9.01111 10.5129-8.08689-9.7042 9.01109 10.6285-7.97135-9.7043 8.78005 10.5129-7.97136-9.7042 9.01106S29.025 8.43346 29.025 8.54899L19.6673 17.098s9.0111-6.9316 9.0111-6.8161l-7.9714 7.3937 7.1627-5.4298-6.1229 6.354 10.8595-8.549-9.9353 9.3577 10.8595-8.549-10.0508 9.3577 10.975-8.4335-9.9353 9.3577 10.8595-8.4334-9.9353 9.3576 10.8595-8.4334-9.9353 9.1266 10.744-8.3179-9.9353 9.2421 10.744-8.2024-9.8198 9.1266 10.744-8.2024-10.0508 9.2422s10.744-8.318 10.744-8.2024l-9.9353 9.3576S40 18.9464 40 19.0619L29.7181 28.073l10.1664-7.5092v.231l-10.0509 8.7801s9.7043-6.9316 9.7043-6.8161l-11.6682 9.8198c.8087-1.8485 1.0397-6.0074-.6932-7.2782L12.2736 12.0148c-2.54163-2.65713-.9243-4.96766-.9243-4.96766ZM23.9418 28.3041 8.80775 14.5564c-.34658-.4576-1.02697-1.7191-.36723-4.3614.08271-.33124.17075-.68386.2517-1.06838-.87228.92858-2.08724 1.78858-3.33272 2.67018-3.86808 2.7381-8.03055 5.6846-3.13678 11.5396L19.7828 39.3947c.4461-.4462.992-.903 1.5662-1.3836 2.6972-2.2574 6.0217-5.0399 2.5928-9.707Z"/>
</svg>