<svg xmlns="http://www.w3.org/2000/svg" viewBox="0 0 40 40">
	<path fill="#A38959" d="M35.6622 26.6453 19.9791 11.0445 4.20343 26.6504H3.16921L19.9688 10l16.743 16.6453h-1.0496ZM19.9181 12.3667l.247.2367 14.2937 14.0468h-.9724L19.9284 13.334 6.42694 26.6502h-.96218L19.6762 12.6085l.2419-.2418ZM40 29.9796l-1.7854-1.8112H1.83175L0 29.995l40-.0154Zm-25.418-3.3807v-.0103c-.1955-.4167-.2521-.6431-.2521-1.1989v-3.0769l.494.0258c.252.017.6176.5379.9171.9645v.0001c.0612.0871.1196.1703.1737.2445l.0926-.0309-.247-1.3841h-3.7561l-.2418 1.3841.0875.0309c.039-.0545.0808-.1138.1247-.176.3079-.4371.7151-1.0151.9763-1.0331l.494-.0258v3.0769c0 .5558-.0618.7822-.2573 1.1989v.0103h1.3944Zm8.5978-2.5676-.2161 1.8111c-.283.2161-1.4459.7615-2.7682.7615-2.3412 0-3.7767-1.7082-3.7767-3.8847s1.595-3.8642 3.9979-3.8642c1.0291 0 1.9861.283 2.5007.4991l.2263 1.6568-.1234.0309c-.813-1.3326-1.5076-1.8729-2.6962-1.8729-2.0324 0-2.938 1.5178-2.938 3.5503 0 2.0324.885 3.5709 2.8196 3.5709 1.4768 0 2.2486-.8851 2.8609-2.2897l.1132.0309Zm1.8523 2.5728c1.2939 0 1.9012-.6046 1.9038-1.3893v.0052-.0104.0052c-.0022-.6614-.4255-1.1938-1.8008-1.1938h-.5146v-1.7185l.9056.0463c.2007.0112.4953.3525.7637.6633.1032.1196.2025.2346.2911.3247l.0926-.0309-.2367-1.1732h-2.9482v.0103c.1955.4168.2572.6483.2572 1.204v2.0427c0 .5609-.0617.7873-.2572 1.204v.0104h1.5435Zm-.4116-2.3927h.3293c.6586 0 1.0754.2882 1.0754 1.0086 0 .5968-.2881 1.1834-1.0805 1.1834-.0875 0-.1955 0-.3242-.0103v-2.1817Z"/>
</svg>