<svg xmlns="http://www.w3.org/2000/svg" viewBox="0 0 40 40">
	<path fill="#006A40" d="m35.3436 11.5726-20.1753 5.4271c-.721.1631-1.4097.5995-1.9158 1.2611-.5065.6606-.7498 1.441-.7498 2.2146v4.9287l-5.35708 1.419c-.3108.0832-.59613.2658-.80757.5417-.21145.2735-.3108.597-.3108.918v5.2437l5.35705-1.4436c.0798-.0212.158-.0493.2335-.0832.2187-.0994.4166-.2531.5737-.456.2114-.2726.3108-.597.3108-.918l.0004-5.2216 6.4848-1.7392v7.7183l-5.338 1.4215c-.3172.0866-.6084.2726-.8233.552-.2148.2793-.3171.6097-.3171.9409v5.4746l5.3379-1.4342c.0752-.0213.149-.0467.2208-.079.0386-.017.0769-.0357.1142-.0561.1851-.0993.352-.2386.4883-.4169.2148-.2794.3172-.6106.3172-.9375v-5.4653l6.4656-1.7426v7.6673l9.913-2.6639c1.669-.4466 3.0341-2.2112 3.0341-3.8833V13.7609c.003-1.6712-1.3617-2.6732-3.0566-2.1883ZM5.20396 39.1303 2 39.9998v-3.1802c0-.1418.0276-.2878.08322-.4246.03736-.0925.08747-.1808.15073-.2624.1571-.2089.37152-.3464.60207-.4076l3.20396-.8729v3.1802c0 .2411-.07685.4848-.23352.6903-.1571.2056-.37194.3431-.6025.4077Z"/>
	<path fill="#50AC25" d="M15.1297 3.90269 29.3649.0932627C30.7775-.291417 31.9341.549274 31.9375 1.96401V16.3483c0 1.4122-1.1566 2.8881-2.5696 3.2702l-3.9088 1.0488v-6.4402l-6.472 1.7391V9.45465l-6.4687 1.72975V7.40387c0-.777.2433-1.55655.7498-2.21721.4871-.63859 1.1469-1.06573 1.8615-1.27717v-.0068ZM7.03015 18.1452l4.34145-1.1812c.3138-.0866.6021-.2692.8169-.5486.0938-.1223.1656-.2531.2166-.3889.0658-.1758.0972-.3592.0972-.5418v-4.3003l-4.34104 1.1711c-.12822.0356-.2522.0866-.36854.1545-.16856.0985-.32142.231-.44837.3974-.21187.2794-.3142.6072-.3142.9341v4.3037Zm-5.02673 6.4376 3.20396-.8695c.23056-.0646.4454-.2021.6025-.4076.08916-.1164.15243-.2455.19021-.3796.02888-.1019.04331-.2064.04331-.3108v-3.1802l-3.20396.8729c-.23056.0612-.44497.1988-.60207.4077-.1571.2021-.23395.4458-.23395.6869v3.1802Z"/>
</svg>