<svg viewBox="0 0 40 40" xmlns="http://www.w3.org/2000/svg">
	<path fill="#181716" d="M39.9071 19.9625v.0805c-.005 4.5125-.337 12.0966-3.7202 15.8521-2.0175 2.2392-5.0284 4.0956-9.6208 4.1049l-.0935-2.1655c4.0968-.6974 6.5138-3.3213 6.9839-7.0935.4875-3.9098.4323-5.5636.4323-10.7407 0-5.1715.0552-6.8272-.4323-10.74004-.4701-3.77038-2.4219-6.39608-6.52-7.09354L26.5661 0c4.5924.0080524 7.6027 1.86878 9.6208 4.10858 3.3826 3.75366 3.7152 11.33712 3.7202 15.85392ZM6.45121 30.741c-.4881-3.9098-.43421-5.5636-.43421-10.7407 0-5.1715-.01796-6.8241.43421-10.74004.50607-4.37989 3.21353-6.39608 7.30909-7.09354L14 0C9.40644.00433591 5.7395 1.8694 3.72145 4.10858.338201 7.86286.00185825 15.4457 0 19.9625v.0805c.00185825 4.5125.336962 12.0966 3.72145 15.8521C5.73889 38.1343 8.74863 39.9957 13.3416 40l.0935-2.1655c-4.09803-.6974-6.51313-3.3207-6.98389-7.0935Zm22.11619-5.9123c0 3.9729-1.0096 7.2793-4.5093 9.184-1.0716.5835-2.7595.9948-4.0764.9948-1.4191 0-2.9651-.2317-4.1141-.9217-.8449-.5073-1.8155-1.2964-2.4405-2.124-1.5263-2.0224-2.2727-4.2089-2.2727-8.7449 0-8.9666.1747-12.8454 2.3804-14.5265 4.1749-3.18132 8.1416-5.20185 8.6074-6.59678.311-.93036 0-1.622245 0-1.622245l1.6161-.4292547C25.025 4.10982 25.8309 7.95577 22.5913 9.70252c-2.9707 1.60178-3.4569 1.66928-5.9482 2.97068-2.0763 1.0846-3.3517 2.1147-3.5598 3.9005-.0861.7421-.1834 2.6455-.1834 2.6455l.7805-.0483c.2757-.882.7346-1.8266 1.7015-2.643 1.2203-1.0301 2.8741-1.8248 4.6742-1.8831.1715-.0055.3413-.0086.5091-.0086 2.1265 0 3.9705.4639 5.397 1.7461 2.254 2.0261 2.6052 5.3617 2.6052 8.4464Zm-6.4524-6.1025c-.5414-1.2946-1.2884-1.5226-2.2305-1.525-.9403-.0025-1.691.3369-2.2349 1.6284-.5903 1.4024-.7129 3.382-.7179 5.9538-.0056 2.5731.109 4.6667.695 6.0666.5432 1.2983 1.2903 1.7511 2.2305 1.7542.9391.0031 1.6916-.4503 2.238-1.7437.5909-1.3992.7111-3.4929.716-6.0647.005-2.5736-.109-4.666-.6962-6.0696Z"/>
</svg>