<svg xmlns="http://www.w3.org/2000/svg" viewBox="0 0 40 40">
	<path fill="#688fae" opacity=".5" d="M19.2 11c-5.1 0-9.2 4.1-9.2 9.2s4.1 9.2 9.2 9.2 9.2-4.1 9.2-9.2c.1-5.1-4.1-9.2-9.2-9.2zm0 17.8c-4.8 0-8.6-3.9-8.6-8.6 0-4.8 3.9-8.6 8.6-8.6 4.8 0 8.6 3.9 8.6 8.6 0 4.8-3.8 8.6-8.6 8.6z"/>
	<path fill="#688fae" d="M30.8 11c-5.1 0-9.2 4.1-9.2 9.2s4.1 9.2 9.2 9.2 9.2-4.1 9.2-9.2-4.1-9.2-9.2-9.2zm0 17.8c-4.8 0-8.6-3.9-8.6-8.6 0-4.8 3.9-8.6 8.6-8.6 4.8 0 8.6 3.9 8.6 8.6 0 4.8-3.9 8.6-8.6 8.6zM17.6 20.2c0 4.9-3.9 8.9-8.8 8.9S0 25.1 0 20.2s3.9-8.9 8.8-8.9 8.8 4 8.8 8.9z"/>
</svg>