<svg xmlns="http://www.w3.org/2000/svg" viewBox="0 0 40 40">
	<path fill="#000" d="M32.3623 15.8682c-1.196-1.1973-3.2245-1.1266-4.5065.154l-4.6507 4.6535v-9.3791C23.2051 9.48318 21.8176 8 20.1263 8c-.7035.00789-1.3809.26781-1.9091.73257-.1891.12658-.3653.27158-.5258.43289L6.16028 20.6993v-9.4027C6.16028 9.48318 4.77284 8 3.08015 8S.0000115 9.48318.0000115 11.2966v16.4787c-.00171405.6596.1881975 1.3055.5466555 1.8592.118469.2161.265985.415.438434.591.369609.3604.828309.6161 1.329169.7409h.01111c.56009.1372 1.14621.1267 1.70097-.0307.55477-.1574 1.05916-.4561 1.4638-.8669L17.0476 18.5155v9.257c.0008.4729.0991.9404.2886 1.3736.1446.4039.3757.7714.6771 1.0767 1.1959 1.1987 3.2258 1.128 4.5064-.154l9.7038-9.6928c1.2737-1.2847 1.3417-3.3062.1388-4.5078Z"/>
	<path fill="#FF4107" d="M39.9932 11.298c.0289-.4255-.0357-.8521-.1892-1.25-.1534-.39784-.3921-.7573-.6992-1.05317-.3071-.29586-.6752-.52096-1.0785-.6595s-.832-.18717-1.2561-.14247c-.3618.01865-.7168.10575-1.0462.25668-.4073.17338-.7772.42404-1.0891.73812L28.408 15.4104c-1.2848 1.2847-1.3541 3.3118-.1595 4.5078 1.1945 1.196 3.2258 1.128 4.5078-.1526l1.078-1.0767v9.2737c0 1.8134 1.3875 3.2966 3.0774 3.2966s3.0815-1.4846 3.0815-3.2966V11.298Z"/>
</svg>