<svg xmlns="http://www.w3.org/2000/svg" viewBox="0 0 40 40">
	<path fill="url(#a)" d="M0 9c0-4.97056 4.02944-9 9-9h22c4.9706 0 9 4.02944 9 9v22c0 4.9706-4.0294 9-9 9H9c-4.97056 0-9-4.0294-9-9V9Z"/>
	<path fill="#fff" d="M26.3868 15.1973c1.0938-.7176 2.3756-1.1347 3.7941-1.1347 3.7942 0 6.8192 2.9034 6.8192 6.6244 0 3.721-3.0933 6.6578-6.8362 6.6578-3.743 0-6.8022-2.9535-6.8022-6.6244V8.65625h3.0251v6.54105Zm0 5.5064c0 2.0857 1.7262 3.6876 3.7771 3.6876 2.085 0 3.8112-1.6686 3.8112-3.6876s-1.6236-3.671-3.7942-3.671c-2.1705 0-3.7941 1.5852-3.7941 3.671Zm-12.2109-6.174 2.7687 7.0416 2.7859-7.0416h3.2814l-4.8538 12.3812h-2.1193l-2.9396-7.3753-2.9225 7.3753H8.0574L3.18652 14.5297h3.29853l2.78579 7.0416 2.78586-7.0416h2.1192Z"/>
  	<radialGradient id="a" cx="0" cy="0" r="1" gradientTransform="rotate(30.4342 -15.62416766 4.24999896) scale(46.3923)" gradientUnits="userSpaceOnUse">
  		<stop offset=".747349" stop-color="#DC1FBA"/>
  		<stop offset="1" stop-color="#9C09C8"/>
  	</radialGradient>
</svg>