<svg xmlns="http://www.w3.org/2000/svg" viewBox="0 0 40 40">
	<path fill="#FD0" d="M0 7.5C0 3.35786 3.35786 0 7.5 0h25C36.6421 0 40 3.35786 40 7.5v25c0 4.1421-3.3579 7.5-7.5 7.5h-25C3.35786 40 0 36.6421 0 32.5v-25Z"/>
	<path fill="#000" d="M40 7.5H28.7979l7.775 13.5657c-.8274 1.4355-2.7811 1.4355-3.6084 0L25.1794 7.50977H14.3839L27.0334 29.5349c2.2729 3.9539 5.9808 3.9539 8.2538 0L40 21.3147V7.5ZM12.6297 29.5349c2.2726 3.9526 5.9906 3.9526 8.2535 0l1.2658-2.2082L10.7855 7.50977H0L12.6297 29.5349Z"/>
</svg>