<svg viewBox="0 0 40 40" xmlns="http://www.w3.org/2000/svg">
	<path fill="#006D78" d="M19.0209 28.0545c-4.0103-.4683-7.152-3.9251-7.152-8.0119 0-2.1201.8684-4.1635 2.1967-5.662 1.49-1.49 3.6185-2.4351 5.8918-2.4351 1.8817 0 3.6952.6301 5.032 1.805h4.0102c-2.0434-2.9118-5.347-4.71687-9.0337-4.71687h-.945c-2.9034.31503-5.5003 1.65177-7.3053 3.69517-1.72837 1.9668-2.75008 4.4785-2.75008 7.3053 0 6.0536 4.94678 11.0004 11.00038 11.0004 3.6952 0 6.9136-1.805 8.957-4.6403h-3.9335c-1.4134 1.0983-3.1418 1.7284-5.032 1.7284-.315.0085-.5449.0085-.9365-.0681zm17.2839-12.4138l-5.7386 4.4019 5.8919 4.4785h-.1533c-2.0434 7.0753-8.5653 12.4138-16.3474 12.4138-7.152 0-13.28222-4.4785-15.79393-10.7621l3.14177-.0766c2.28182 4.7169 7.07536 7.9353 12.65216 7.9353 5.9685 0 11.1622-3.7718 13.1205-9.1188l-6.3687-4.8701 6.2836-4.9468c-1.9668-5.26183-7.152-9.11879-13.0439-9.11879-5.3469 0-9.9787 3.06514-12.33715 7.46699l-3.14176-.0766C7.06684 7.31375 13.0353 3.15028 19.9489 3.15028c7.7906-.00852 14.3125 5.26181 16.3559 12.49042zm-7.8587-1.1835l-6.3686 5.5769 7.3904 5.5768h-4.1635l-6.2835-4.6403v-.0766 4.7169l-2.6735-.0681V14.4572h2.6735v4.9468l5.7386-4.9468h3.6866zM19.9574 0C30.9579 0 40 9.03363 40 20.0426 40 31.043 30.9664 40 19.9574 40 8.957 40 0 31.043 0 20.0426 0 9.03363 8.957 0 19.9574 0z"/>
</svg>
