<svg xmlns="http://www.w3.org/2000/svg" viewBox="0 0 200 50">
	<path class="bg-logo" fill="#201600" d="M0 0h200v50H0z"/>
	<path fill="#fff" d="M45.2 19.8h-1.7v-5.7h5.6v5.7h-1.7v-4.5h-2.2v4.5Zm11-1.6c-.4 1.6-1.9 1.9-3 1.9-.7 0-3.1-.2-3.1-3.1 0-2 1.3-3 3.2-3 2.8 0 2.9 2.5 2.9 3.2v.3H52c0 .5.3 1.5 1.4 1.5.2 0 .5 0 .7-.2.2-.1.4-.3.5-.6h1.6Zm-1.6-1.8c0-1.2-.8-1.4-1.2-1.4-.2 0-1.2 0-1.4 1.4h2.6Zm4.5-2.3v.7c.2-.3.5-.5.8-.7.3-.2.7-.2 1-.2 1.6 0 2.6 1.2 2.6 3.1 0 1.8-1 3-2.6 3-.3 0-.7-.1-1-.2-.3-.1-.6-.3-.8-.6v2.7h-1.7v-7.8h1.7Zm1.4 4.8c1 0 1.3-.9 1.3-1.9 0-1.6-.8-1.9-1.3-1.9s-1.3.3-1.3 1.9c-.1 1 .3 1.9 1.3 1.9Zm7.6-4.8c.5 0 1.9 0 1.9 1.4 0 .3-.1.6-.3.9-.2.2-.5.4-.8.4.9.2 1.4.6 1.4 1.5 0 1.2-.9 1.5-2.1 1.5h-3.4v-5.7h3.3Zm-1.7 2.3h.9c.3 0 .9 0 .9-.5s-.4-.6-.9-.6h-.9v1.1Zm0 2.3h1.1c.8 0 1-.3 1-.6 0-.4-.2-.7-1-.7h-1v1.3h-.1Zm6.5-4.6v2H74c.5 0 2.5-.1 2.5 1.9 0 1.6-1.3 1.7-2.1 1.7h-3.2v-5.6h1.7Zm0 4.6h.8c.4 0 1-.1 1-.7 0-.7-.7-.7-1-.7H73c-.1 0-.1 1.4-.1 1.4Zm5.9-4.6v5.7h-1.7v-5.7h1.7Zm5.4 0H86v5.7h-1.7v-3.7L82 19.8h-1.8v-5.7h1.7v3.7l2.3-3.7ZM82.1 12c0 .7.8.7 1 .7.4 0 1-.2 1-.7h1.3c-.1.7-.6 1.5-2.2 1.5-1.7 0-2.2-.9-2.2-1.5h1.1ZM23.6 25.3h1.9L23.1 28l2.5 3h-2l-1.9-2.5V31H20v-5.7h1.7v2.3l1.9-2.3Zm2 4.6h.3c.7 0 1-.3 1-2.1l.1-2.5h4.9V31h-1.7v-4.6h-1.6v1.3c-.1 3-.9 3.4-2.3 3.4-.2 0-.4 0-.7-.1v-1.1Zm11.7-4.6h1.8V31h-1.7v-3.7L35 31h-1.8v-5.7h1.7V29l2.4-3.7Zm8.9 4.1c-.4 1.6-1.9 1.9-3 1.9-.7 0-3.1-.2-3.1-3.1 0-2 1.3-3 3.2-3 2.8 0 2.9 2.5 2.9 3.2v.3H42c0 .5.3 1.5 1.4 1.5.2 0 .5 0 .7-.2.2-.1.4-.3.5-.5-.1-.1 1.6-.1 1.6-.1Zm-1.6-1.8c0-1.2-.8-1.4-1.2-1.4-.2 0-1.2 0-1.4 1.4h2.6Zm4.6 3.4h-1.7v-5.7h1.7v2.1h2.1v-2.1H53V31h-1.7v-2.4h-2.1V31Zm4.6-4.5v-1.1h5.5v1.1h-1.9V31h-1.7v-4.6h-1.9v.1Zm11.9 2.4c-.1.9-.6 2.4-2.8 2.4-1.9 0-3-1.1-3-3 0-1.4.6-3.1 3.1-3.1 2 0 2.6 1.2 2.7 2.2H64c-.1-.9-.6-1.1-1.1-1.1-.4 0-1.3.1-1.3 1.8 0 1.9.9 2 1.3 2 .9 0 1.1-.8 1.1-1.2h1.7Zm4.7-3.6h1.9L69.9 28l2.5 3h-2l-1.9-2.5V31h-1.7v-5.7h1.7v2.3l1.9-2.3Zm6.6 0h1.8V31h-1.7v-3.7L74.8 31H73v-5.7h1.7V29c-.1.1 2.3-3.7 2.3-3.7Zm7.2 0H86V31h-1.7v-3.7L82 31h-1.8v-5.7h1.7V29c0 .1 2.3-3.7 2.3-3.7Zm-2.1-2.1c0 .7.8.7 1 .7.4 0 1-.2 1-.7h1.3c-.1.7-.6 1.5-2.2 1.5-1.7 0-2.2-.9-2.2-1.5h1.1ZM137 23.8996h2.8c1 0 4.5.1 4.5 3.8 0 2.4-1.7 3.5-4.5 3.5h-5.6v-11.6h9.1v2.3H137v2Zm0 5.1h2.2c1.1 0 2.1-.2 2.1-1.3 0-1.4-1.3-1.5-2-1.5H137c-.1 0 0 2.8 0 2.8Zm14.9-9.4 4.4 11.7h-2.9l-.7-2.2h-4.3l-.7 2.2h-2.9l4.4-11.7h2.7Zm.1 7.5-1.5-4.5-1.5 4.5h3Zm8.1 4.1h-2.8v-11.6h2.8v4.4h4.2v-4.4h2.8v11.7h-2.8v-5h-4.2v4.9Zm16.4-11.6h3.2l-4.7 5.3 5 6.3h-3.4l-4.1-5.7v5.7h-2.7v-11.6h2.8v4.9l3.9-4.9Z"/>
	<path fill="url(#a)" d="M107.6 18.7h-7.9001v-4.8H115V8H94.3999v24.3H107.6V18.7Z"/>
  	<linearGradient id="a" x1="92.4075" x2="112.36" y1="10.564" y2="26.1551" gradientUnits="userSpaceOnUse">
  		<stop stop-color="#5997D4"/>
  		<stop offset="1" stop-color="#363C6E"/>
  	</linearGradient>
	<path fill="url(#b)" d="M113.6 18.6992v13.6h7.9v4.8h-15.3v5.9h20.5v-24.3h-13.1Z"/>
  	<linearGradient id="b" x1="4026.74" x2="5262.95" y1="2611" y2="3426.7" gradientUnits="userSpaceOnUse">
  		<stop stop-color="#5997D4"/>
  		<stop offset="1" stop-color="#363C6E"/>
  	</linearGradient>
</svg>