<svg xmlns="http://www.w3.org/2000/svg" viewBox="0 0 200 50">
	<path class="bg-logo" fill="#cd1f45" d="M0 0h200v50H0V0Z"/>
	<path fill="#fff" d="M139.9 22c.4-.2.8-.3 1.3-.3.4 0 .9 0 1.3.3.4.2.7.5 1 .9.2.3.4.6.5 1h2.1c-.2-.9-.6-1.7-1.2-2.4-.5-.5-1-.9-1.7-1.2-.6-.3-1.3-.4-2-.4s-1.4 0-2 .4c-.6.3-1.2.7-1.6 1.2-1 1.2-1.5 2.7-1.4 4.2 0 1.5.4 3.1 1.4 4.2.5.5 1 .9 1.7 1.2.6.3 1.3.4 2 .4s1.4-.1 2-.4c.6-.3 1.2-.7 1.6-1.2.5-.6.9-1.3 1.1-2h-2.1c-.1.2-.2.4-.4.6-.3.4-.6.7-1 .8-.4.2-.8.3-1.3.3-.4 0-.9 0-1.3-.3-.4-.2-.7-.5-1-.9-.6-.9-.8-1.9-.8-2.9s.2-2 .8-2.9c.3-.4.6-.6 1-.8ZM151.2 22c.4-.2.8-.3 1.3-.3.4 0 .9 0 1.3.3.4.2.7.5 1 .9.2.3.4.6.5 1h2.1c-.2-.9-.6-1.7-1.2-2.4-.5-.5-1-.9-1.7-1.2-.6-.3-1.3-.4-2-.4s-1.4 0-2 .4c-.6.3-1.2.7-1.6 1.2-1 1.2-1.5 2.7-1.4 4.2 0 1.5.5 3.1 1.4 4.2.5.5 1 .9 1.7 1.2.6.3 1.3.4 2 .4s1.4-.1 2-.4c.6-.3 1.2-.7 1.6-1.2.5-.6.9-1.3 1.1-2h-2.1c-.1.2-.2.4-.4.6-.3.4-.6.7-1 .9-.4.2-.9.3-1.3.3s-.9 0-1.3-.3c-.4-.2-.7-.5-1-.9-.6-.9-.8-1.9-.8-2.9s.2-2 .8-2.9c.3-.4.6-.6 1-.8ZM161.1 27.8v-7.7h-1.9v11.1h1.9l5.3-7.8v7.8h1.9V20.1h-1.9l-5.3 7.7zM95.7 24.6h-5V20h-2v11.3h2v-5h5v5h1.9V20h-1.9v4.6zM108.7 20.1h-2.5l-4.4 4.6v-4.6h-2v11.2h2v-5.2l4.8 5.2h2.5l-5.4-6 5-5.2zM174.5 20c-3.2 0-3.8 2.2-3.8 3.6 0 .8.2 1.6.7 2.2.5.6 1.2 1 2 1.1l-3 4.3h2.3l2.8-4.1h2.5v4.1h1.9V20h-5.5Zm3.6 5.5h-2.7c-2.3 0-2.7-1.1-2.7-2 0-1.9 1.5-1.8 2.3-1.8H178.1v3.7ZM121.6 21c-.8-.7-1.8-1-2.9-1h-4v11.3h2v-4.1h2.2c1 0 2-.2 2.8-.9.3-.3.6-.8.8-1.2.2-.4.2-.9.2-1.4 0-.5 0-1-.2-1.5s-.5-.9-.8-1.2Zm-1.1 3.4c0 .2-.2.5-.4.6-.4.3-.9.5-1.4.5h-2v-3.8h2c.3 0 .5 0 .8.1.2 0 .5.2.7.4.2.2.3.4.4.6 0 .2.1.5.1.7 0 .3 0 .5-.1.8ZM133.1 21.4c-.5-.5-1-.9-1.7-1.2-.6-.3-1.3-.4-2-.4s-1.4.1-2 .4c-.6.3-1.2.7-1.7 1.2-1 1.2-1.5 2.7-1.5 4.2s.5 3 1.4 4.2c.5.5 1 .9 1.6 1.2.6.3 1.3.4 2 .4s1.4-.1 2-.4c.6-.3 1.2-.7 1.7-1.2 1-1.2 1.5-2.7 1.4-4.2 0-1.5-.5-3-1.4-4.2Zm-1.5 7.1c-.3.3-.6.6-1 .8-.4.2-.8.3-1.2.3s-.9 0-1.2-.3c-.4-.2-.7-.5-1-.8-.6-.8-.9-1.9-.8-2.9 0-1 .2-2 .8-2.9.2-.4.6-.7 1-.9.4-.2.8-.3 1.3-.3.4 0 .9 0 1.3.3s.7.5 1 .8c.6.8.9 1.9.8 2.9 0 1-.2 2-.8 2.9ZM74.4 25.3c-.9-.6-2-.9-3-.7h-2.5v-2.7h5.7v-1.8h-7.7v11.2h4.8c1 .1 2.1-.2 2.9-.9.3-.3.6-.7.8-1.1.2-.4.3-.9.3-1.4 0-.5 0-1-.3-1.4-.2-.5-.5-.9-.9-1.2Zm-1.1 3.3c0 .2-.2.4-.4.5-.4.3-.9.5-1.4.5h-2.8v-3.2h2.6c.6 0 1.1.1 1.6.4.2.2.3.4.4.6 0 .2.1.4.1.7 0 .2 0 .4-.1.6ZM80.7 20l-3.6 11.2h2l.5-1.8h4.5l.6 1.8h2L83 20h-2.4Zm-.5 7.7 1.6-5.2c0-.3.1-.7.2-1 0 .4 0 .7.2 1s1.5 5.2 1.5 5.2h-3.4ZM50.6 15.6c-1.8-.9-3.7-1.5-5.7-1.8-1.5-.2-2.9-.6-4.2-1.2 0 0-.1 0-.2-.1h-.1c-.1 0-.2-.1-.3-.2-.6-.5-1.2-1.1-1.8-1.7-.3-.4-.6-.8-.8-1.3l-.2-.3v3.9h-.2c-1.4 0-2.7.3-4.1.6-.9.2-1.7.4-2.5.7-.5.2-1 .4-1.6.6-.4.2-1 .4-1.6.8-.8.4-1.6 1-2.4 1.6-1.1.8-2 1.8-2.8 2.9-.6.8-1 1.7-1.4 2.6-.3.9-.5 1.9-.5 2.8 0 3 1.6 5.9 4.6 8.2 0 0 .2.1.2.2 0 0 .2.1.3.2 0 0 .2.1.3.2 0 0 .2.1.3.2l1 .6s.1 0 .2.1c0 0 .1 0 .2.1.4.2.9.4 1.4.6h.2c.5.3 1 .5 1.6.7.8.3 1.7.5 2.5.8 2 .4 4 .7 6 .6 4.7 0 9.3-1.2 13.3-3.7.7-.4 1.3-.9 1.9-1.5.5-.4 1.9-1.9 2.4-2.5h.1-13.5v1.6h9.2l-1.2.9c-3.7 2.2-7.9 3.4-12.2 3.4v-9.8h15.5v-1.7H38.9v-11c.3.3.6.5 1 .7 1.4.6 2.8 1 4.3 1.2 1.8.3 3.5.7 5.2 1.4 3.7 1.7 6 5.6 6.2 7.8v2.8H40.3v7.8h1.5v-6.2h15.4v-5c-.5-3.6-3.8-7.1-6.6-8.4ZM37.2 26.3v1.6c-1.5 0-3 .2-4.4.5-.8.2-1.7.4-2.5.6-.4.1-.8.2-1.2.4-.1-.3-.2-.6-.3-.8v-.5l-.3-1.8h8.8Zm-8.8-1.7c0-.3 0-.6.1-1v-.9c.1-.4.2-.8.4-1.2h.2c.1.1.3.2.4.2.2 0 .4.1.5.2.8.3 1.7.4 2.5.6h.2c.6.1 1.4.2 2.2.3h2v1.8h-8.8Zm4.4-8c1.3-.9 2.7-1.5 4.2-1.8h.1V21c-.6 0-1.2 0-1.8-.1-.7 0-1.4-.1-2.1-.3h-.5c-.9-.2-1.7-.4-2.5-.7h-.3c0-.2.2-.4.3-.5v-.1c.7-1 1.5-1.9 2.5-2.5Zm-6 1.3s.2 0 .2-.2c.3-.2.6-.3.9-.5.2 0 .4-.2.6-.3h.1l1.3-.6c.1 0 .2 0 .4-.2h.1l-.2.2c-.6.6-1.2 1.3-1.6 2l-.2.4c0 .1-.1.2-.2.3-.4-.2-.8-.5-1.1-.8-.1-.1-.2-.2-.3-.4Zm-4.6 5.4c.3-.7.6-1.4 1.1-2.1.4-.6.9-1.1 1.4-1.6 0-.1.2-.2.3-.3 0 0 .2-.2.3-.2.5.6 1.1 1.1 1.8 1.5 0 0 .2.1.3.2-.1.3-.2.7-.4 1v.2c0 .2-.1.5-.2.8-.1.6-.2 1.2-.2 1.8H22c0-.5.2-.9.3-1.3Zm3.6 8.2-.4.5c-.3-.2-.5-.4-.7-.7-1.5-1.3-2.5-3.1-2.8-5h4.6c0 .9.2 1.9.5 2.8 0 .4.2.8.4 1.2 0 0-.1 0-.2.1H27c-.5.4-.9.8-1.3 1.2Zm2.8 2.5h-.2l-1.4-.8h-.2s0-.1.1-.2v-.2c.4-.3.7-.5 1-.7h.1v.2l.2.3c.5.7 1 1.4 1.6 2-.6-.2-1.1-.4-1.6-.7Zm1.7.8Zm6.9 1.3c-.2 0-.3 0-.5-.1-.2 0-.3 0-.5-.1-.7-.2-1.4-.5-2.1-.8-.4-.2-.9-.5-1.2-.8-1-.7-1.8-1.5-2.5-2.5-.2-.2-.3-.4-.4-.6H30.3c.8-.3 1.7-.5 2.5-.7 1.5-.3 2.9-.5 4.4-.5v6.2Z"/>
</svg>