<svg xmlns="http://www.w3.org/2000/svg" viewBox="0 0 200 50">
	<path class="bg-logo" fill="#FF5000" d="M0 0h200v50H0z"/>
	<path fill="#00F500" d="M184.909 24.1096c2.26 0 4.091-1.8154 4.091-4.0548C189 17.8154 187.169 16 184.909 16c-2.259 0-4.09 1.8154-4.09 4.0548 0 2.2394 1.831 4.0548 4.09 4.0548Z"/>
	<path fill="#fff" d="M140.641 29.6111c-2.079 0-3.715-1.622-3.715-3.7261s1.636-3.726 3.715-3.726c2.078 0 3.759 1.6219 3.759 3.726s-1.681 3.7261-3.759 3.7261Zm3.759-7.5617h-.442c-.818-1.4685-2.344-2.3014-4.091-2.3014-2.875 0-5.55 2.674-5.55 6.137 0 3.463 2.609 6.0932 5.55 6.0932 1.747 0 3.273-.8329 4.091-2.3014h.442v1.9945h2.565V20.033H144.4v2.0164ZM21.3241 29.6111c-2.0786 0-3.7149-1.622-3.7149-3.7261s1.6363-3.726 3.7149-3.726c2.0785 0 3.759 1.6219 3.759 3.726s-1.6805 3.7261-3.759 3.7261Zm3.759-7.5617h-.4422c-.8182-1.4685-2.3439-2.3014-4.0908-2.3014-2.8745 0-5.5501 2.674-5.5501 6.137 0 3.463 2.6092 6.0932 5.5501 6.0932 1.7469 0 3.2726-.8329 4.0908-2.3014h.4422v1.9945h2.565V20.033h-2.565v2.0164Zm134.1099 2.5863h-6.015V20.033h-2.565v11.6603h2.565v-4.6247h6.015v4.6247h2.565V20.033h-2.565v4.6027Zm11.631 1.0959 6.081-5.6986h-3.516l-5.462 5.3479V20.033h-2.565v11.6603h2.565v-5.3699l5.506 5.3699h3.781l-6.39-5.9617Zm-42.61 3.6822h-4.135v-2.937h4.135c1.172 0 1.725.6137 1.725 1.4685 0 .8548-.531 1.4685-1.725 1.4685Zm.287-5.2164h-4.444v-1.9069h7.54V20.033h-10.105v11.6603h7.031c2.411 0 4.047-1.5781 4.047-3.7261 0-2.1479-1.681-3.7698-4.069-3.7698Zm-31.1777 5.3917c-2.1228 0-3.6927-1.6219-3.6927-3.7041 0-2.1041 1.5699-3.726 3.6927-3.726 2.0564 0 3.6927 1.6219 3.6927 3.726 0 2.0822-1.5921 3.7041-3.6927 3.7041Zm0-9.8411c-3.0957 0-5.5944 2.1042-6.1472 4.9096h-2.1669V20.033H86.422v11.6603h2.565v-4.6466h2.167c.5307 2.8274 3.0736 4.9534 6.1472 4.9534 3.4718 0 6.2798-2.7178 6.2798-6.0931.022-3.4411-2.808-6.159-6.2577-6.159Zm7.2087 2.6959h4.312v9.2274h2.565v-9.2274h4.312V20.033h-11.189v2.4109ZM76.1841 20.033l-5.0415 11.6603h2.7198l3.9138-9.3151 3.9138 9.3151h2.8304L79.4788 20.033h-3.2947Zm-25.8269 2.1041c2.5208 0 3.2284 1.9288 3.2284 1.9288h2.7198s-1.0835-4.3179-5.9482-4.3179c-3.4937 0-6.2356 2.7179-6.2356 6.137 0 3.4411 2.7419 6.137 6.2356 6.137 4.8647 0 5.9482-4.3178 5.9482-4.3178h-2.7198s-.7076 1.9288-3.2284 1.9288c-2.0564 0-3.6042-1.6219-3.6042-3.726 0-2.1042 1.5478-3.7699 3.6042-3.7699ZM38.0408 29.37h-4.1792v-2.8932h4.1571c1.1719 0 1.7247.6137 1.7247 1.4685 0 .8548-.5086 1.4247-1.7026 1.4247Zm.3096-5.1726h-4.4888v-1.885h7.5623V20.033H31.2966v11.6603h7.0538c2.3881 0 4.0465-1.5781 4.0465-3.7261 0-2.1479-1.6805-3.7698-4.0465-3.7698Zm25.7827 5.3917c-2.167 0-3.7591-1.6219-3.7591-3.7041 0-2.1041 1.5921-3.726 3.7591-3.726 2.1006 0 3.759 1.6219 3.759 3.726 0 2.0822-1.6142 3.7041-3.759 3.7041Zm0-9.8411c-3.5601 0-6.3683 2.7179-6.3683 6.137 0 3.3973 2.8082 6.0932 6.3683 6.0932 3.5379 0 6.3903-2.7178 6.3903-6.0932 0-3.4191-2.9188-6.137-6.3903-6.137Z"/>
</svg>