<svg xmlns="http://www.w3.org/2000/svg" viewBox="0 0 200 50">
	<path class="bg-logo" fill="#103984" d="M0 0h200v50H0z"/>
	<path fill="#fff" d="M85.4406 37.2364c10.1821 0 18.4414-5.4235 18.4414-12.1182S95.6227 13 85.4406 13c-10.1822 0-18.4479 5.4235-18.4479 12.1182s8.2592 12.1182 18.4479 12.1182ZM13.3962 20.7181h7.7768v-2.8095H10v14.3801h6.8511c3.3376 0 5.4627-1.3884 5.4627-4.3544 0-4.6022-4.2567-4.6935-5.4627-4.6935h-3.4549v-2.5227Zm0 5.3388h2.8096c.8344 0 2.4705.0913 2.4705 1.8187 0 1.3559-1.2059 1.6036-2.5292 1.6036h-2.7509v-3.4223Zm14.6344-8.1483-5.3648 14.3801h3.5787l.8931-2.6857h5.2149l.9257 2.6857h3.5787l-5.3974-14.3801h-3.4289Zm-.1564 9.2565 1.8839-5.4953 1.8513 5.4953h-3.7352Zm13.2198-1.0495h5.215v6.1731h3.3962V17.9086h-3.3897v5.3974h-5.2149v-5.3974h-3.3963v14.3801h3.3963v-6.1731h-.0066Zm13.7675-2.1642h-.0587v-6.0428h-3.3962v14.3801h3.3962v-7.0336h.0587l5.0976 7.0336h4.1328l-6.1341-7.8224 5.7951-6.5577H59.77l-4.9085 6.0493v-.0065Zm57.4035-6.0494-5.417 14.5367h3.618l.912-2.7183h5.248l.926 2.7183h3.637l-5.456-14.5301h-3.468v-.0066Zm-.163 9.3413 1.91-5.5409 1.877 5.5409h-3.787Zm13.689-3.2593h-.039v-6.0754h-3.435v14.5301h3.435v-7.1054h.033l5.182 7.1054h4.198l-6.154-7.8811 5.867-6.649h-4.028l-4.994 6.1014-.065-.026Zm13.761 5.606V17.8564h-3.416v14.5823h11.388v3.2593h2.999l.15-6.1015h-2.06V17.8629h-3.435v11.7336h-5.626V29.59Zm15.378-5.9385v-2.9269h8.044v-2.816h-11.467v14.5301h11.695v-2.8226h-8.259v-3.2593h7.098v-2.6727h-7.098l-.013-.0326Zm12.757-2.953h5.488v11.7337h3.423V17.9086h-12.334v14.5301h3.436V20.7051l-.013-.0066Zm14.497 0v11.7337h3.435V20.6985H190v-2.7899h-12.196v2.8225h4.4l-.02-.0326Zm-81.483.8801c.585.9966.945 2.109 1.056 3.2593.287 5.5018-6.4276 10.3386-14.9932 10.7819-5.3974.2738-10.2408-1.2386-13.1546-3.7808 3.561 1.8341 7.5538 2.6656 11.5511 2.4053 8.9501-.4758 15.9837-5.3713 15.6907-10.9448-.035-.4017-.162-.79-.372-1.1343-2.8811 0-8.4742-.0391-11.3033 0-.241.7268-.4305 1.4696-.5671 2.2229 1.0691 0 6.975.1304 6.975 1.1343 0 1.3819-6.4796 5.2149-8.4743 5.2149-1.3428 0-1.5514-.3781-1.5514-1.1473.1583-1.5427.4907-3.0625.9908-4.5305l-2.0403-.0782c-2.0404 3.1485-4.1068 4.4653-9.3999 5.7169-.909.2304-1.8399.3636-2.777.3976-.8813-.6066-1.6217-1.3958-2.1707-2.3141-.6075-1.041-.9687-2.2072-1.056-3.4093-.2934-5.5017 6.4274-10.319 14.9929-10.7688 5.3975-.2868 10.2408 1.2385 13.1677 3.7678-3.5594-1.8238-7.5475-2.6462-11.538-2.3793-8.735.4628-15.6448 5.1236-15.7035 10.5146.057.8036.2789 1.5869.6519 2.3011.8115.1793 1.6395.2732 2.4705.2803 5.065 0 7.5291-1.9556 9.4391-4.3154-1.7014-.0391-8.8067-.3846-8.8067-2.0534 0-1.0169 2.9594-1.4341 4.374-1.4341 2.3141 0 4.713.1304 7.1118.1695.7106-.9582 2.1838-3.3962 4.3089-3.3962.2086 0 .7757 0 .7757.1695 0 .7496-.7757 2.5162-.9191 3.3571h11.31l-.039-.0065ZM84.9386 24.186c.4368-.6518.8866-1.3037 1.3689-2.0273.352.0391 1.1017.0391 1.4472.0391-.3455.7106-.6193 1.3559-.8931 2.0665-.5671-.0392-1.4211 0-1.9556-.0783h.0326Zm1.9556-2.7378c.2086-.1695 1.0951-1.6166 1.8318-1.5906.0246.0285.0431.0617.0543.0976.0112.0358.0149.0737.0108.111-.1557.4996-.3747.9772-.6518 1.4211h-.502c-.2548.0047-.5096-.0084-.7626-.0391h.0195Zm6.623 4.5305v.1695c0 .8018-4.3675 3.3571-5.6452 3.3571-.0875-.029-.1627-.0865-.2135-.1633-.0509-.0769-.0744-.1686-.0668-.2604.1084-1.349.3799-2.6798.8083-3.9634.7757.0913 4.5175.2086 4.9347.7236.1434.0782.0652.1564.1434.1564l.0391-.0195Zm-8.7416-3.8069c-.5671.6518-1.0299 1.3037-1.5253 1.8708-1.1212-.0391-6.7925-.4107-6.7925-1.3037 0-.2999 1.3429-.3846 1.7014-.3846 2.0012-.0782 4.5696-.1043 6.5773-.1565l.0391-.026Z"/>
</svg>