<svg xmlns="http://www.w3.org/2000/svg" viewBox="0 0 200 50">
	<path class="bg-logo" fill="#113f72" d="M0 0h200v50H0V0Z"/>
	<g fill="#fff">
		<path d="m178.9 22.6-2.8 3.9 4.4 7.8h5l-6.6-11.7zM151.6 16h4.4v18.3h-4.4zM162.3 23.4h-4.2l-1.3 1.8h5.5v9.1h4.4V16h-4.4v7.4zM110.6 34.3h4.5V17.9l-4.5 6v10.4zM104.6 28.2V16h-4.4v18.3h2L115.3 16h-2l-8.7 12.2zM62.6 34.3h1.9l11.2-15.5v7.3h-4l-1.3 1.8h5.3v6.4h4.4V16h-4.4L62.6 34.3zM89.5 26.5l4.4 7.8h5l-6.6-11.7-2.8 3.9z"/>
		<path d="M93.8 16.1 87 25.5V16h-4.4v18.3H87v-6.1l8.8-12.1h-2zM131.8 26c-1-1.7-2.8-2.8-4.7-2.7h-3.4l-1.3 1.8h3.8c1.4.7 2.2 2.1 2.2 3.7s-.9 3-2.2 3.7h-4.3V17.9h7.7l1.3-1.8h-13.4v18.3h9.5c1.9 0 3.7-1 4.7-2.7 1-1.7 1-3.9 0-5.6ZM131.6 34.3h2l11.1-15.5v7.3h-4l-1.3 1.8h5.3v6.4h4.4V16h-4.4l-13.1 18.3zM180.4 16.1l-6.8 9.4V16h-4.4l-.1 18.3h4.5v-6.1l8.8-12.1h-2z"/>
	</g>
	<g fill="#ffd113">
		<path d="m32.9 15.8-17.4 9 17.4 9 17.4-9-17.4-9Zm0 16.1-13.7-7.1 13.7-7.1 13.7 7.1-13.7 7.1Z"/>
		<path d="M34.1 20.9v1.9l1.9 1-1.9 1v1.9l5.6-2.9-5.6-2.9z"/>
		<path d="m36.6 14.5-1.8 1 18 9.3-18 9.3 1.8 1 19.9-10.3-19.9-10.3zM32.9 29.3v-1.9l-5-2.6 3.2-1.7v2l1.8-.9v-3.9l-8.7 4.5 8.7 4.5z"/>
	</g>
</svg>