<svg xmlns="http://www.w3.org/2000/svg" viewBox="0 0 200 50">
	<path class="bg-logo" fill="#7A66A8" d="M0 0h200v50H0z"/>
	<path fill="#fff" d="M102.27 16h.554v18.8658h-.554V16Zm15.863 3.1537c.747 0 1.329.6128 1.329 1.3744s-.545 1.3753-1.315 1.3745c-.748 0-1.33-.6137-1.33-1.3745 0-.7607.547-1.3744 1.316-1.3744Zm-.496-1.4246c-1.293.3034-1.387 1.4314-1.387 2.6086 0 1.2691.755 2.0519 1.884 2.0502 1.099 0 1.904-.8602 1.904-1.8751 0-1.0004-.813-1.8113-1.783-1.8113-.79 0-1.279.3595-1.537.7896.058-.6978.316-1.1067 1.085-1.2971l2.012-.4862-.108-.4581-2.07.4794Zm6.209 2.8976v.3392c0 .578-.553.9792-1.236.9792-.503 0-.934-.2678-.934-.7259 0-.4514.395-.7472 1.085-.7472.452 0 .812.0774 1.085.1547Zm-1.143-.5848c-.941 0-1.588.4089-1.588 1.1917 0 .7616.69 1.1492 1.386 1.1492.655 0 1.079-.2966 1.337-.6205v.5432h.546v-2.2279c0-.4658-.129-.8185-.388-1.0718-.266-.261-.675-.4021-1.2-.4021-.546 0-.942.1267-1.351.3103l.165.4445c.346-.1547.691-.2609 1.128-.2609.697 0 1.1.3383 1.1.9868v.1122c-.33-.0909-.661-.1547-1.135-.1547Zm3.766-1.3821h-.553v3.6448h.553v-1.5929h2.141v1.5929h.553v-3.6448h-.553v1.5725h-2.141v-1.5725Zm4.843 0h-.554v3.6448h.553v-.8814l.783-.7897 1.323 1.6711h.654l-1.595-2.0655 1.552-1.5793h-.682l-2.034 2.1012v-2.1012Zm-12.475 11.3977v.3383c0 .578-.553.98-1.236.98-.503 0-.934-.2677-.934-.7259 0-.4513.395-.7471 1.085-.7471.453 0 .812.0773 1.085.1547Zm-1.143-.5857c-.941 0-1.587.4089-1.587 1.1917 0 .7616.69 1.1492 1.386 1.1484.654 0 1.079-.2967 1.337-.6205v.5431h.546v-2.2278c0-.4658-.129-.8186-.388-1.0719-.266-.2609-.676-.402-1.2-.402-.547 0-.942.1266-1.352.3102l.166.4446c.345-.1547.69-.261 1.128-.261.697 0 1.1.3383 1.1.9869v.113c-.331-.0909-.661-.1547-1.136-.1547Zm2.652 1.7986-.064.465c.115.028.323.0561.445.0561.705 0 1.229-.2958 1.229-3.1374V28.57h1.552v3.1654h.554v-3.6448h-2.631v.3034c0 2.7353-.374 2.9257-.819 2.9257-.064 0-.194-.028-.266-.0493Zm6.849-2.799c.733 0 1.121.5644 1.186 1.2265h-2.394c.08-.7046.569-1.2265 1.208-1.2265Zm.014-.4582c-1.027 0-1.782.8458-1.782 1.9032 0 1.1347.834 1.904 1.854 1.9048.704 0 1.157-.2745 1.531-.6834l-.345-.3034c-.302.3094-.662.5142-1.172.5142-.653 0-1.229-.4445-1.308-1.2129h2.947c.007-.085.007-.1411.007-.1904 0-1.0719-.633-1.9321-1.732-1.9321Zm3.615.0774h-.555v3.6448h.554v-.8815l.783-.7896 1.322 1.6711h.655l-1.596-2.0655 1.552-1.5793h-.682l-2.033 2.1012v-2.1012Zm5.555-.0774c-1.085 0-1.905.8738-1.905 1.9032 0 1.0361.82 1.904 1.905 1.904.697 0 1.143-.2967 1.517-.7055l-.367-.3315c-.295.3102-.647.5499-1.121.5499-.776 0-1.365-.6273-1.365-1.4169 0-.7973.575-1.4246 1.329-1.4246.504 0 .849.2329 1.143.5363l.352-.3663c-.345-.3596-.784-.6486-1.488-.6486Zm5.238 2.0443v.3383c0 .578-.554.98-1.235.98-.503 0-.934-.2677-.934-.7259 0-.4513.394-.7471 1.084-.7471.453 0 .812.0773 1.085.1547Zm-1.143-.5857c-.94 0-1.587.4089-1.587 1.1917 0 .7616.689 1.1492 1.386 1.1484.655 0 1.079-.2967 1.337-.6205v.5431h.546v-2.2278c0-.4658-.129-.8186-.388-1.0719-.266-.2609-.676-.402-1.2-.402-.546 0-.941.1266-1.351.3102l.165.4446c.345-.1547.69-.261 1.128-.261.698 0 1.1.3383 1.1.9869v.113c-.331-.0909-.661-.1547-1.136-.1547Zm3.766-1.3812h-.553v3.6448h.553v-1.5929h2.142v1.5929h.553v-3.6448h-.553v1.5725h-2.142v-1.5725Zm6.734.4794v2.686h-1.999c.259-.4726.439-1.2759.439-2.1786V28.57h1.56Zm-2.588 2.686h-.401v1.388h.452l.101-.9095h3.003v.9095h.46l.087-1.3889h-.561v-3.1654h-2.644v.635c0 1.2265-.195 1.9881-.497 2.5313Zm6.698-2.7566c.705 0 1.308.55 1.308 1.4102 0 .895-.59 1.4169-1.308 1.4169-.69 0-1.344-.5644-1.344-1.4101 0-.8458.654-1.417 1.344-1.417Zm-1.322-.4088h-.554v4.7727h.554v-1.8258c.287.4089.732.7752 1.423.7752.898 0 1.774-.7055 1.774-1.8963 0-1.2121-.884-1.9032-1.774-1.9032-.683 0-1.122.374-1.423.8109v-.7335Zm6.274.4012c.782 0 1.379.6417 1.379 1.4246 0 .7828-.56 1.4169-1.366 1.4169-.783 0-1.372-.6341-1.372-1.4169 0-.7829.554-1.4246 1.359-1.4246Zm.013-.4786c-1.12 0-1.94.8738-1.94 1.9032 0 1.0438.812 1.904 1.926 1.9031 1.121 0 1.947-.8738 1.947-1.9031 0-1.043-.819-1.9032-1.933-1.9032Zm5.937 2.6435c0 .3808-.324.6137-.856.6137v-.0008h-1.235v-1.1773h1.164c.603 0 .927.2117.927.5644Zm-.194-1.5861c0 .38-.31.5848-.755.5848v.0009h-1.142v-1.0999h1.156c.482 0 .741.2108.741.5142Zm-.654-.98h-1.797v3.6448h1.862c.819 0 1.351-.38 1.351-.9937 0-.5151-.374-.7828-.819-.9027.309-.1266.618-.3595.618-.8389 0-.55-.475-.9095-1.215-.9095Zm4.448-.0774c-1.085 0-1.905.8738-1.905 1.9032 0 1.0361.82 1.904 1.905 1.904.697 0 1.143-.2967 1.516-.7055l-.366-.3315c-.295.3102-.647.5499-1.121.5499-.776 0-1.365-.6273-1.365-1.4169 0-.7973.575-1.4246 1.329-1.4246.504 0 .849.2329 1.143.5363l.352-.3663c-.345-.3596-.784-.6486-1.488-.6486Zm3.341.0774h-.553v3.6448h.553v-.8815l.783-.7896 1.323 1.6711h.654l-1.596-2.0655 1.552-1.5793h-.682l-2.034 2.1012v-2.1012Zm4.434 0h-.554v3.6448h.532l2.213-2.8832v2.8832h.554v-3.6448h-.539l-2.206 2.8832v-2.8832Zm5.339-1.4595-.381.0774c.087.5006.475.8602 1.013.8602.539 0 .928-.3596 1.014-.8602l-.381-.0774c-.086.3035-.28.4939-.633.4939-.352 0-.545-.1904-.632-.4939Zm-.445 1.4595h-.554v3.6448h.532l2.214-2.8832v2.8832H185v-3.6448h-.54l-2.205 2.8832v-2.8832Zm-160.9361.3202v-.4751c-.4717-.2083-1.0854-.3519-1.7569-.3519-1.1756 0-1.9006.4581-1.9006 1.3387 0 .7217.6137 1.1424 1.5036 1.1424 1.2861.0009 2.1539-.6825 2.1539-1.6541ZM15 28.9922c0-2.0578 1.6091-3.0098 3.9092-3.0098.98 0 1.6847.1581 2.3723.3842v-.1564c0-1.1067-.7063-1.723-2.0825-1.723-1.0506 0-1.7918.1955-2.6792.5075l-.6885-2.0409c1.0693-.459 2.1191-.7565 3.7655-.7565 1.5011 0 2.5908.3859 3.2785 1.0574.7242.7047 1.0506 1.74 1.0506 3.0099v5.4723h-2.6648v-1.0217c-.6672.7225-1.5903 1.1993-2.9308 1.1993C16.5037 31.9162 15 30.8928 15 28.9922Zm11.7309 3.4536c2.4446-1.6584 3.4943-3.2768 3.4943-5.7596 0-2.4803-1.0506-4.1013-3.4943-5.7537l1.2129-1.7799c3.3303 1.7612 5.0167 4.1557 5.0167 7.5336 0 3.3796-1.6864 5.7723-5.0167 7.5327l-1.2129-1.7731Zm20.5682-7.6947c1.3583 0 2.3724 1.1067 2.3724 2.4633 0 1.3566-.9231 2.4302-2.3358 2.4302-1.3575 0-2.3724-1.0923-2.3724-2.4302 0-1.371.9418-2.4633 2.3358-2.4633Zm-.9962-4.9274c-3.6388.6502-4.0749 3.6609-4.0749 6.4923 0 3.6269 1.7961 5.6329 5.0703 5.6329 2.9495 0 5.0889-2.1658 5.0889-4.7693 0-2.5849-2.1394-4.5237-4.5985-4.5237-1.9915 0-3.1696.9681-3.5317 1.5869.0697-.9001.5618-1.8674 2.3528-2.2193l5.3235-1.02-.4343-2.1148-5.1961.935Zm14.6846 8.1124v.4751c0 .9716-.8712 1.655-2.1564 1.6541-.8874 0-1.5011-.4207-1.5011-1.1424 0-.8806.7233-1.3387 1.8989-1.3387.6698 0 1.2852.1436 1.7586.3519Zm-2.408-1.9533c-2.3018 0-3.9126.952-3.9126 3.0098 0 1.9006 1.5037 2.924 3.3312 2.9223 1.3387 0 2.2618-.4768 2.9325-1.1993v1.0217h2.6596V26.265c0-1.2699-.3238-2.3052-1.0446-3.0099-.6911-.6715-1.7774-1.0574-3.2802-1.0574-1.6473 0-2.6979.2975-3.7646.7565l.6876 2.0409c.8874-.312 1.6269-.5075 2.6792-.5075 1.3762 0 2.0825.6163 2.0825 1.723v.1564c-.6893-.2261-1.394-.3842-2.3706-.3842Zm14.4287 5.7553h2.7515v-9.4324h-2.7515v3.6261h-3.3855v-3.6261h-2.7515v9.4324h2.7515v-3.6082h3.3855v3.6082Zm8.8706-9.4324h-2.7497v9.4333h2.7497v-2.2712l1.2504-1.3201 2.5908 3.5904h3.2563l-4.0179-5.5598 3.5649-3.8726H85.357l-3.4782 3.8726v-3.8726Z"/>
</svg>