<svg xmlns="http://www.w3.org/2000/svg" viewBox="0 0 200 50">
	<path class="bg-logo" fill="#EF3124" d="M0 0h200v50H0z"/>
	<path fill="#fff" d="M25 39.0364h19.8091v4.1091H25v-4.1091Zm143.255-13.1909 6.245-6.891h-4.655l-5.118 5.7273v-5.7273h-3.709v14.4819h3.727v-6.1l5.473 6.1H175l-6.745-7.5909ZM46.9909 26.8c-.1 2.7273-.4454 3.2455-1.9545 3.2455v3.4H45.6c3.7909 0 4.6909-1.9546 4.8273-6.3091l.1636-4.8182h3.5v11.1182H57.8V18.9545H47.2455L46.9909 26.8Zm-16.1 2.4909h7.8182l1.3 4.1455h4.3364L38.5 16.0182C37.9364 14.3364 37.2818 13 35.0455 13c-2.2364 0-2.9182 1.3364-3.5182 3.0182L25.4 33.4364h4.0727l1.4182-4.1455Zm3.9636-11.7454h.1L37.5727 25.8h-5.5091l2.7909-8.2545ZM121.5 21.0091h-4.136v-4.0909h9.6v-3.6364h-13.491v20.1546h8.027c4.445 0 7-2.2182 7-6.2728 0-3.8454-2.591-6.1545-7-6.1545Zm-.191 8.7818h-3.945v-5.2364h3.945c2.055 0 3.209.9091 3.209 2.6182 0 1.7091-1.154 2.6182-3.209 2.6182ZM84.6273 18.6182v-5.3637h-3.7v5.3637c-1.9428.0641-3.7808.8966-5.1104 2.3147-1.3294 1.4182-2.0418 3.306-1.9805 5.2489-.0662 1.9469.6436 3.8404 1.9734 5.2639 1.3297 1.4237 3.1706 2.2607 5.1175 2.327v5.4546h3.7091v-5.4546c.9643-.0317 1.9131-.2532 2.7916-.6522.8786-.3988 1.6699-.967 2.3286-1.6721.6587-.7052 1.1718-1.5333 1.51-2.437.3381-.9038.4947-1.8653.4607-2.8296.0389-.9649-.1148-1.9279-.452-2.8327-.3373-.9049-.8514-1.7336-1.5123-2.4376-.6609-.704-1.4554-1.2695-2.3372-1.6632-.8818-.3938-1.8331-.6079-2.7985-.6301Zm-3.6909 11.6545c-.9817-.1078-1.8816-.5972-2.5057-1.3624-.6241-.7653-.9225-1.7452-.8307-2.7285-.08-.9808.2226-1.9545.8446-2.7171.6219-.7626 1.5149-1.2549 2.4918-1.3738v8.1818Zm3.7091 0v-8.1818c.9768.1189 1.8698.6112 2.4917 1.3738.622.7626.9246 1.7363.8446 2.7171.087.9823-.2131 1.9597-.8363 2.7239s-1.5203 1.2548-2.5 1.367Zm20.9815-1.2818v-4.8818c0-3.5636-2.263-5.7909-6.0634-5.7909-3.8 0-6.0181 2.3636-6.2 4.8273h3.7546c.1273-.5273.6909-1.4637 2.4363-1.4637.3264-.042.6575-.0076.9675.1006.311.1081.592.287.821.5225.229.2355.401.5211.501.8342.1.3132.125.6453.074.97h-3.6362c-3.2909 0-5.2454 1.7364-5.2454 4.6091-.0257.6855.0929 1.3688.348 2.0056.2551.6368.6411 1.2129 1.1331 1.6911.4918.4782 1.0786.8477 1.7224 1.0848.6437.237 1.3301.3362 2.0146.2912.7729.0406 1.5437-.1098 2.2445-.438.701-.3283 1.31-.8241 1.774-1.4438.302.5104.742.9248 1.27 1.1951.527.2703 1.121.3855 1.712.3322h1.281v-3.3455c-.627 0-.909-.3-.909-1.1Zm-3.709-.9091c.016.3581-.045.7154-.179 1.0482-.133.3328-.334.6337-.592.8828-.258.2491-.565.4407-.902.5624-.3377.1215-.6968.1703-1.0541.143-1.3364 0-2.3909-.4818-2.3909-1.9273 0-1.4454 1.1727-1.6545 2.1636-1.6545h2.9544v.9454Zm-34.8816-4.7273h-2.6637v-4.4h-3.7091v14.4819H67.1c4.0273 0 5.4545-2.6182 5.4545-5.0909.0182-3.191-1.9818-4.991-5.5181-4.991Zm-.2728 6.9182h-2.3909v-3.6363h2.3909c1.2819 0 2.0546.5818 2.0546 1.8181 0 1.2364-.7364 1.8182-2.0546 1.8182Zm75.8914-1.2818v-4.8818c0-3.5636-2.264-5.7909-6.064-5.7909-3.8 0-6.018 2.3636-6.2 4.8273h3.754c.128-.5273.691-1.4637 2.437-1.4637.326-.042.657-.0076.967.1006.311.1081.592.287.821.5225.229.2355.401.5211.501.8342.1.3132.125.6453.074.97h-3.636c-3.291 0-5.245 1.7364-5.245 4.6091-.026.6855.092 1.3688.348 2.0056.254.6368.641 1.2129 1.133 1.6911.491.4782 1.079.8477 1.722 1.0848.644.237 1.33.3362 2.015.2912.78.0483 1.56-.0984 2.27-.4269.709-.3285 1.325-.8285 1.793-1.4549.298.5015.73.9102 1.247 1.18.517.2698 1.099.3901 1.681.3473h1.282v-3.3455c-.646 0-.9-.3-.9-1.1Zm-3.691-.9091c.013.3577-.049.7143-.182 1.0465-.134.3322-.336.6324-.593.8812-.257.2488-.564.4405-.901.5627-.336.1221-.694.1718-1.052.146-1.336 0-2.391-.4818-2.391-1.9273 0-1.4454 1.173-1.6545 2.164-1.6545h2.955v.9454Zm15.536-3.7363h-5.118v-5.391h-3.709v14.491h3.709v-5.7091h5.118v5.7h3.709V18.9545H154.5v5.391Z"/>
</svg>