<svg xmlns="http://www.w3.org/2000/svg" viewBox="0 0 200 50">
	<path class="bg-logo" fill="#433a31" d="M0 0h200v50H0V0Z"/>
	<g fill="#deab3e">
		<path d="M38.5 7C28.3 7 20 15.3 20 25.4s8.3 18.4 18.5 18.4 18.4-8.3 18.4-18.4S48.6 7 38.5 7Zm12.1 30.6c-6.6 6.6-17.6 6.6-24.3-.1-6.7-6.7-6.7-17.6 0-24.3 6.6-6.6 17.6-6.6 24.3.1 6.7 6.7 6.7 17.6 0 24.3Z"/>
		<path d="M42.1 28.9c-1.3 1.2-1.3 3.3 0 4.5 1.3 1.3 3.3 1.3 4.5 0 1.3-1.2 1.3-3.3 0-4.6-1.2-1.3-3.3-1.3-4.6 0Z"/>
		<path d="M26.8 13.9c-3.1 3.2-3.1 8.3.1 11.5 3.1 3.1 8 3.2 11.3.4 0-.1.4-.4.6-.6l.1-.1c3.2-2.9 8.2-2.7 11.3.4 2.6 2.6 3.1 6.6 1.4 9.8 4.8-6.4 4.2-15.5-1.7-21.3-6.4-6.4-16.8-6.4-23.2 0Zm7.9 7.6c-1.2 1.2-3.3 1.2-4.6 0-1.3-1.2-1.3-3.3 0-4.5 1.2-1.3 3.3-1.2 4.6 0 1.3 1.2 1.3 3.2 0 4.5ZM78.8 28.1c-.1 0-.2-.2-.3-.3v-.6l-2.6-7.9h-6.5v2h.6c.3 0 .4 0 .4.2v.5l-1.9 5.2c0 .3-.2.6-.3.7-.2.1-.4.2-.7.2h-.3v2h4.5v-2h-.2c-.2 0-.3 0-.4-.2v-.5h3.8v.4c0 .2-.2.3-.5.3h-.5v2h5.8v-2h-.3c-.2 0-.4 0-.5-.1Zm-7.2-3 1.1-3h.1l1 3h-2.2ZM88.1 27.5c-.2.2-.4.3-.7.3h-2.1v-6.2c0-.2.2-.3.5-.3h.6v-2h-6.2v2h.5c.3 0 .4 0 .5.1.1.1.2.3.2.5v5.6c0 .2 0 .4-.2.5s-.3.2-.5.2h-.5v1.9h10.2v-3.8h-2c-.1.6-.2 1-.4 1.2ZM91.5 19.4v3.8h1.9l.2-.9v-.4s.2-.1.3-.2.3 0 .6 0h.6v5.9c0 .2 0 .4-.2.5-.1 0-.3.1-.5.1h-.7v2.1h6.5v-2h-.7c-.3 0-.5 0-.5-.2 0-.1-.1-.3-.1-.5v-5.9h.6c.4 0 .6 0 .8.1.1 0 .2.2.2.4l.2.9h2v-3.8H91.4ZM110.2 21.3h.4c.3 0 .4 0 .4.2s0 .2-.1.3l-1 2.2h-.1l-1-2.2c0-.1-.1-.2-.1-.3 0-.2.2-.2.5-.2h.3v-2h-6.1v2h.2c.3 0 .5.1.7.3s.4.4.6.9l2.6 5v.4c0 .3-.2.4-.6.4h-.6v2h6.2v-2h-.8c-.2 0-.3 0-.3-.1V27.6l2.2-4.8c0-.2.2-.3.2-.4.1-.2.2-.3.2-.4 0-.2.2-.3.3-.3.1 0 .3-.1.5-.1h.4v-2h-4.7v1.9ZM123.3 21.3h.5c.2 0 .4 0 .5.2 0 0 .1.2.1.4v3.4l-4.2-5.9h-4.5v1.9h.5c.3 0 .5 0 .5.2s.1.3.1.5v5.7c0 .2 0 .4-.1.5-.1.1-.3.2-.5.2h-.5v2h4.6v-2h-.5c-.3 0-.4 0-.5-.1 0-.1-.1-.3-.1-.4v-3.3l4.2 5.8h3.5v-8.3c0-.2 0-.4.1-.5 0-.1.3-.2.5-.2h.5v-2h-4.6v2ZM138.8 24.9c-.5-.2-.9-.3-1.4-.3h-.3v-.2h.2c.5 0 1-.1 1.3-.3.4-.2.7-.5.9-.9s.3-.8.3-1.2c0-.6-.2-1.1-.5-1.5-.3-.4-.7-.6-1.2-.8s-1.1-.3-1.8-.3h-7.4v1.9h.5c.3 0 .5 0 .5.2 0 .1.1.3.1.5v5.6c0 .2 0 .4-.1.5 0 .1-.3.2-.5.2h-.5v2h7.5c.7 0 1.4-.2 1.9-.4.6-.2 1-.5 1.3-.9.3-.4.5-1 .5-1.7s-.2-1-.4-1.5c-.3-.4-.6-.7-1.1-.9Zm-4.9-3.2h.5c.5 0 .9 0 1.1.2.3.1.4.4.4.8 0 .6-.4 1-1.2 1h-.8v-1.9Zm.8 6.1h-.8v-2.1h.5c.5 0 .9 0 1.1.2.3.2.4.4.4.9 0 .6-.4 1-1.3 1ZM152.5 28.1c-.1 0-.2-.2-.3-.3 0-.1-.2-.3-.2-.5l-2.6-7.9H143v2h.6c.3 0 .4 0 .4.2v.4l-1.9 5.2c0 .3-.2.6-.3.7-.2.1-.4.2-.7.2h-.3v2h4.4v-2h-.2c-.2 0-.3 0-.4-.2v-.5h3.8v.4c0 .2-.2.3-.5.3h-.5v2h5.8v-2h-.3c-.2 0-.4 0-.5-.1Zm-7.2-3 1.1-3 1 3h-2.2ZM161.4 21.3h.5c.3 0 .5 0 .5.2 0 0 .1.2.1.4v3.4l-4.2-5.9h-4.6v1.9h.5c.3 0 .5 0 .5.2s.1.3.1.5v5.7c0 .2 0 .4-.1.5-.1.1-.3.2-.5.2h-.5v2h4.6v-2h-.5c-.3 0-.4 0-.5-.1 0-.1-.1-.3-.1-.4v-3.3l4.2 5.8h3.5v-8.3c0-.2 0-.4.1-.5 0-.1.2-.2.5-.2h.5v-2h-4.6v2ZM178.3 26.6l-2.3-3.7c.4-.5.9-.9 1.4-1.2.5-.3 1-.5 1.6-.5h.4v-2h-5.6v2h.2c.2 0 .4 0 .4.1s-.1.2-.3.3l-2.1 1.9v-1.8c0-.2 0-.3.2-.4.1 0 .3-.1.5-.1h.3v-2h-5.9v2h.5c.3 0 .5 0 .5.2s.1.3.1.5v5.8c0 .2 0 .3-.1.4 0 0-.3.1-.6.1h-.4v2h5.7v-2h-.2c-.4 0-.6-.2-.6-.6v-.9l1.2-1.2 1 1.6.3.6c0 .3-.1.4-.4.4h-.3v2h6.2v-2c-.5 0-1.1-.5-1.7-1.5Z"/>
	</g>
</svg>