<svg xmlns="http://www.w3.org/2000/svg" viewBox="0 0 200 50">
	<path class="bg-logo" fill="#002537" d="M0 0h200v50H0z"/>
	<path fill="#fff" d="M63.9467 10.1738h-9.1v9.1h9.1867l-.0867-9.1ZM77.2934 18.2333l1.6466-.0866c1.3 0 2.2534-.3467 3.0334-1.04.6933-.6934 1.04-1.6467 1.04-2.86 0-1.1267-.3467-2.1667-1.04-2.9467-.6934-.6933-1.7334-1.1267-2.9467-1.1267H74.78v12.48h2.5134v-4.42Zm0-6.0666h1.82c.4333 0 .78.26 1.04.6066.26.3467.4333.78.4333 1.4734 0 .6933-.1733 1.04-.4333 1.3866-.3467.3467-.6934.52-1.1267.52h-1.7333v-3.9866Zm9.2733-1.9934-3.9 12.3934h2.6l.6933-2.5134h3.38l.6934 2.5134H92.72l-3.9-12.3934h-2.2533Zm0 7.7134 1.1267-4.42 1.2133 4.42h-2.34Zm11.44 4.7666c1.3 0 2.3403-.3466 3.1203-1.04.693-.6933 1.126-1.9066 1.213-3.2933h-2.6c0 .78-.1733 1.3867-.4333 1.7333-.26.3467-.6933.52-1.3867.52-.6933 0-1.1266-.1733-1.3866-.6933-.26-.4333-.4334-1.3-.4334-2.5133v-2.34c0-1.04.1734-1.82.4334-2.2534.3466-.52.78-.6933 1.4733-.6933s1.1267.1733 1.3867.52.4333.8667.4333 1.82h2.5133c-.173-1.3867-.52-2.5133-1.213-3.2933C100.433 10.4333 99.3934 10 98.0067 10c-1.3867 0-2.4267.52-3.2933 1.3867-.6934.8666-1.1267 2.1666-1.1267 3.9v2.08c0 1.82.4333 3.12 1.1267 3.9866.8666.8667 1.9066 1.3 3.2933 1.3Zm12.1333-.0866h2.513V10.1733l-2.513-.0866V15.72c-.693.1733-1.213.26-1.907.26-.693 0-1.04-.1733-1.3-.52s-.433-.78-.433-1.56v-3.8133h-2.513v3.9866c.086 1.3.433 2.2534 1.126 2.9467.694.6933 1.734 1.04 3.12 1.04.607 0 1.214-.0867 1.907-.26v4.7667ZM122.013 20.4h-4.593v-3.2067h3.813V15.2h-3.9v-2.9467h4.594v-2.08h-7.107v12.3934h7.193V20.4Zm6.76 2.1667v-10.4h3.12v-2.08h-8.666v2.08h3.033v10.4h2.513Zm7.194-5.2867h3.726v5.2867h2.514V10.1733h-2.514V15.2h-3.726v-5.0267h-2.514v12.3934h2.514V17.28Zm17.16-7.1067h2.513v12.3934h-2.513V10.1733Zm-4.767 4.42h-1.473v-4.42h-2.514V22.48h4.16c1.214 0 2.167-.4333 2.947-1.1267.693-.6933 1.04-1.6466 1.04-2.86 0-1.2133-.433-2.08-1.127-2.86-.693-.78-1.82-1.04-3.033-1.04Zm1.213 5.3734c-.26.4333-.693.6066-1.126.6066h-1.56v-3.7266h1.56c.52 0 .866.1733 1.126.52.26.3466.434.6933.434 1.3 0 .4333-.174.8666-.434 1.3Zm10.747.4333v-3.2067h3.987L164.22 15.2h-3.9v-2.9467h4.593v-2.08h-7.106v12.3934H165V20.4h-4.68Zm-81.2933 6.24H74.78v12.3934h2.5134v-4.4201H78.94c1.3 0 2.2534-.3466 3.0334-1.04.6933-.6933 1.04-1.6466 1.04-2.86 0-1.1266-.3467-2.1666-1.04-2.9466-.6934-.78-1.7334-1.1267-2.9467-1.1267Zm1.1267 5.3733c-.3467.3467-.6934.52-1.1267.52h-1.7333v-3.9h1.82c.4333 0 .78.1734 1.04.6067.26.3467.4333.78.4333 1.4733 0 .6067-.1733 1.04-.4333 1.3Zm7.3666 1.56h3.8134v-1.9066h-3.9V28.72h4.5933v-2.08h-7.02v12.3067h7.1067v-2.08H87.52v-3.2934Zm16.293 3.3801H101.3V26.64h-2.6v10.3134h-2.5133V26.64h-2.5133v12.3067h12.6536V26.64h-2.514v10.3134Zm7.107-3.3801h3.9l-.087-1.9066h-3.9V28.72h4.68v-2.08h-7.106v12.3067h7.193v-2.08h-4.68v-3.2934Zm12.48-1.9066h-3.727V26.64h-2.513v12.3067h2.513V33.66h3.727v5.2867h2.513V26.64H123.4v5.0267Zm7.107 3.12V26.64h-2.514v12.3067h2.514l3.64-8.2334v8.2334h2.513V26.64h-2.513l-3.64 8.1467Zm8.84-7.1934c-.694.6934-1.04 1.6467-1.04 2.86 0 1.3867.52 2.4267 1.56 3.2067l-2.167 5.3734h2.687l1.906-4.5067h1.3v4.5067h2.514V26.64h-3.727c-1.387 0-2.34.26-3.033.9533Zm4.16 4.94h-1.127c-.52 0-.867-.1733-1.127-.52-.346-.26-.433-.78-.433-1.4733 0-1.3.52-1.9933 1.473-1.9933h1.214v3.9866ZM44.1 10.1738H35v9.0134h9.1v-9.0134ZM63.9467 19.9668h-9.1v9.1h9.1867l-.0867-9.1ZM54.0668 10.1738h-9.1v9.1h9.1v-9.1ZM54.0668 19.9668h-9.1v9.1h9.1v-9.1ZM63.9467 29.8477h-9.1v9.1h9.1867l-.0867-9.1Z"/>
</svg>