<svg xmlns="http://www.w3.org/2000/svg" viewBox="0 0 200 50">
	<path class="bg-logo" fill="#FE720A" d="M0 0h200v50H0z"/>
	<path fill="#fff" d="M39.6927 27.5243c-.1131-.1709-.1977-.2996-.2629-.4161l-1.857-3.2167-.0511-.088-1.7765-3.0777c-.802-1.3908-1.6025-2.7816-2.4013-4.1754-1.7952-3.1282-1.7814-6.2716-.0211-9.41227L35.1344 4l.0911.15151.0522.08504.0535.08805.046.08029c.6192 1.0736 1.2377 2.1443 1.8553 3.21352l.0002.00034c1.4151 2.44975 2.8258 4.89185 4.2308 7.34355 1.8152 3.1399 1.8326 6.2745.0408 9.4239l-1.8116 3.1381Zm112.6703 2.9586v1.7888h-8.83v-1.7659h1.078l.098-.5724c.056-.3315.11-.6579.162-.982l.167-1.049.003-.022.006-.0349c.16-.9631.321-1.9494.458-2.9124.138-.8944.826-1.4905 1.744-1.5134.436-.0103.872-.0116 1.306-.0095.237.0011.473.0031.708.005.138.0011.275.0023.412.0032l.44.0013c.826 0 1.33.5042 1.33 1.3299v5.7333h.918Zm-2.844-5.2977h-1.491c-.315 0-.506.0419-.625.1787-.042.0479-.075.1079-.101.1821-.035.098-.059.2206-.077.3734l-.064.461-.078.5344-.057.3838-.001.0051-.001.0052v.0052l-.001.0052-.001.0058c-.056.3758-.112.7485-.163 1.1169l-.001.0065c-.092.6626-.183 1.3256-.298 2.0115h2.982c-.023-1.743-.023-3.486-.023-5.2748Zm11.054 7.0631v-8.8519l-.234.0017c-.295.0039-.561.0069-.798-.0475-.157-.0099-.289.0052-.405.051-.05.0203-.098.0466-.144.079-.092.0665-.175.1593-.254.2827-1.032 1.6053-2.087 3.1878-3.142 4.7702-.035.0579-.076.116-.116.174-.013.0181-.026.0363-.038.0544-.027.0384-.052.0768-.075.1152-.012 0-.029-.006-.046-.0116l-.029-.0091-.017-.0022v-5.4349h-1.926v8.8519c.162 0 .322-.0026.479-.0052.311-.0051.616-.0099.92.0052.229 0 .367-.0686.504-.2749 1.022-1.5677 2.067-3.1354 3.112-4.703l.03-.0444c.046-.0915.115-.1834.183-.2749.007 0 .015.0022.022.0052.004.0019.009.0041.013.0062.011.0057.023.0114.034.0114v5.2515h1.927Zm-37.115-5.3147c.267.005.511.0095.766-.0054.642-.0691 1.032-.4817 1.238-1.055.229-.688.459-1.399.665-2.087.028-.1045.065-.1852.117-.2426.074-.0807.18-.1148.342-.1014.116.0056.231.0086.345.0099l.175.0008c.152-.0004.304-.0028.46-.0053v-.0001l.013-.0002c.176-.0026.355-.0051.543-.0051-.114.3902-.229.7571-.344 1.1011l-.481 1.582c-.207.6423-.505 1.2156-1.17 1.5596.78.344 1.078.9863 1.284 1.6973.194.6111.378 1.232.565 1.8626l.001.0021c.1.3388.202.6804.306 1.0248-.164 0-.323.0014-.479.0029-.457.0043-.888.0083-1.333-.0258-.092 0-.229-.1606-.252-.2525-.153-.4408-.28-.8815-.411-1.3317l-.14-.48c-.389-1.2613-.756-1.5596-2.086-1.5596h-.551v3.6005h-1.949v-8.852h1.926v3.5547c.16 0 .308.0028.45.0054Zm19.387-1.7713v-1.7426c-.06 0-.113-.0032-.16-.0061-.079-.0048-.141-.0085-.184.0061h-3.852c-1.239.0229-2.019.7796-2.019 2.018v4.8388c0 1.2842.78 2.0409 2.042 2.0409h3.852c.058 0 .115-.0057.172-.0114.057-.0057.115-.0115.172-.0115v-1.743h-4.265v-1.8803h3.623V26.974h-3.646v-1.8117h4.265Zm-11.81 3.8296v3.2564h-1.95c0-.0569-.005-.12-.011-.183-.006-.063-.012-.1265-.012-.1839V25.3c0-1.1927.734-1.9265 1.927-1.9036.134 0 .267-.0006.401-.0013.669-.0031 1.338-.0063 2.007.0699 1.536.1835 2.477 1.2842 2.454 2.8209-.023 1.3761-1.101 2.5455-2.546 2.706-.484.0458-.969.0311-1.473.0156-.259-.0078-.524-.0156-.797-.0156Zm.023-1.743c.217 0 .429.0026.638.0052h.01l.01.0001c.4.0052.788.0101 1.176-.0053.551-.0229.918-.4584.94-.9859.024-.5503-.252-.9863-.756-1.0321-.305-.0315-.614-.0388-.926-.0375-.175.0004-.35.0038-.525.0073h-.002c-.195.0039-.392.0074-.588.0074.023.6651.023 1.3532.023 2.0408Zm30.34-2.0633h2.385v7.0861h1.949v-7.0861h2.408v-1.743h-6.742v1.743Zm-96.8001-5.504h-.4357c-1.3667 0-2.7333.0025-4.1008.0051h-.0028c-2.7391.005-5.4817.0101-8.2344-.0051-3.5316-.0233-6.2148-1.5825-8.0264-4.6325l-.0026-.0052-.0026-.0052-.0027-.0045c-.5479-.9356-1.0956-1.8708-1.6205-2.806-.0307-.0514-.0568-.1027-.0844-.1576l-.0065-.0125-.0032-.0064c-.0318-.0635-.0663-.1326-.1123-.2133.0984 0 .1835-.0065.2625-.0125l.1068-.0073.0376-.0018.0518-.0013c.9047 0 1.8095-.0013 2.7142-.0026l1.3448-.0025c2.7061-.0052 5.4123-.0104 8.1184.0051 3.6235.0229 6.3753 1.6054 8.21 4.7469.2638.4587.5275.9116.7913 1.3645.2637.4529.5274.9058.7912 1.3645.0341.0569.0626.1139.0939.1769.0317.0635.0662.1326.1124.2133Zm-.7796 12.5901h-2.0182v-1.7888c-.4586 0-1.3441-.0099-2.16-.0207-.9382-.0126-1.7844-.0255-1.7844-.0255l-.9861 1.8807s-1.7888-.0229-2.2246-.0229c.0918-.1834.1606-.2982.2295-.4131.6634-1.1784 1.3329-2.3568 2.0024-3.5352l.3257-.5737c.4206-.7407.8409-1.4814 1.2593-2.2221l.4257-.755c.5274-.9635 1.3072-1.4448 2.4079-1.399.3195.0151.6389.0104.965.0052.1658-.0026.333-.0052.5029-.0052.6421 0 1.1467.4127 1.1467 1.055.0151 1.691.0102 3.382.0053 5.0796v.0006l-.0001.0586c-.0026.8612-.0052 1.724-.0052 2.5895l-.0918.092Zm-5.0911-3.509h3.0501v-3.3026c-.8027-.1834-1.3302.0462-1.6742.8029-.2097.3406-.3746.6513-.5372.9579v.0001c-.0437.0824-.0872.1645-.1314.2468-.079.1472-.1604.2948-.2487.4463l-.0831.1455-.0673.1226-.0639.1191-.0855.1619-.1588.2995Zm27.8191-.6418-.0013-.2983v-1.055c-.0231-1.9951-1.1927-3.2564-3.1878-3.4403-2.064-.1834-3.6235 1.1698-3.6922 3.234-.0231.8482-.0231 1.674 0 2.5226.0458 1.8574 1.1925 3.0501 3.0272 3.2564 1.9263.2063 3.4856-.8715 3.7839-2.7289.0766-.4787.0734-.9885.0702-1.4905Zm-4.9365.1015c.0022-.1335.0044-.2667.0044-.3998v-1.3075c.0459-.8024.5963-1.3299 1.399-1.3299.8486-.0229 1.4907.5046 1.5136 1.307.0459.8944.0459 1.7888 0 2.6832-.0458.8486-.6421 1.3532-1.4908 1.3532-.8255 0-1.3987-.5503-1.4218-1.399-.0089-.1679-.0108-.3358-.01-.5037.0007-.123.0029-.246.005-.3691l.0006-.0344Zm-7.5405 4.0488h-1.9494c0-.0341-.0013-.0669-.0034-.0988l-.0048-.0592-.0034-.0388c-.0056-.0624-.0112-.125-.0112-.193v-6.9716c0-.9859.5274-1.5134 1.5135-1.4905l.4697-.0017.0011-.0001c.7773-.003 1.5444-.006 2.327.0704 1.5596.1606 2.4769 1.2842 2.4769 2.798 0 1.3761-1.1008 2.5455-2.5226 2.706-.3823.0458-.7645.051-1.1467.0557l-.2841.0043c-.0964.0022-.1929.0048-.2894.0087h-.5503v1.6286c-.0104.2284-.016.4614-.019.6989-.0039.2874-.0039.5818-.0039.8831Zm.0229-7.086v2.0637c.2166 0 .428.0026.6368.0052h.0001c.4101.0051.8104.01 1.2207-.0052.5503-.0457.9403-.5046.9403-1.0316 0-.5966-.3211-.9635-.9174-1.0092-.2741-.0203-.5482-.0268-.8243-.0281-.1896-.0009-.3802.0008-.5724.0026h-.003c-.1372.0013-.2752.0026-.4142.0026h-.0666Zm-8.9668 7.0865h1.9493v-7.1323h4.2885v-1.743h-4.6554c-1.0778 0-1.6053.5046-1.6053 1.5824v6.8569c0 .0633.005.1265.0101.1924l.0007.0087.0005.0063c.0057.0723.0116.1476.0116.2286Zm-28.5973 4.6554c-.0268.0448-.0536.0932-.0818.1463-.0443.0829-.0918.1778-.1477.2896h3.6233c3.6236-.0229 6.3296-1.6053 8.1413-4.7473.6503-1.118 1.2984-2.236 1.9456-3.3548.6472-1.1186 1.2934-2.238 1.9403-3.3588.1377-.2386.2755-.4773.4133-.7161l1.8011-3.1195c.0371-.0622.0745-.1308.1155-.2064.0345-.0638.0716-.1325.1137-.2063h-3.6233c-3.6006.0458-6.3295 1.6053-8.1412 4.724-1.433 2.4636-2.8547 4.9271-4.2809 7.3984-.6052 1.0487-1.2112 2.0988-1.8192 3.1509Zm79.6589-9.4814c-.168.3904-.342.7962-.54 1.2255-.092-.1834-.161-.2982-.23-.4126-.137-.3186-.276-.6363-.416-.9531-.207-.4692-.415-.9367-.625-1.4029-.331-.7377-.665-1.4728-1-2.2079-.068-.1148-.183-.2983-.298-.2983-.392-.0339-.771-.0298-1.166-.0255h-.006c-.134.0013-.271.0026-.41.0026v8.8524h1.949v-4.0593c.39.6652.734 1.3533 1.032 2.0642.113.2486.255.4528.44.5961.191.1468.428.2292.73.2292.573 0 .917-.3211 1.124-.8253.321-.7109.642-1.399.963-2.0871.006 0 .014.0018.023.0044l.022.0069c.018.0056.035.0116.046.0116v4.0822h1.95v-8.8524c-.17 0-.338.0026-.503.0052H119.246l-.005.0001c-.316.0051-.625.0102-.934-.0053-.275-.0229-.39.0691-.505.3212-.349.8395-.713 1.6658-1.079 2.4992-.114.2593-.228.5192-.342.7805-.064.1474-.129.2967-.194.4484Zm-21.7074 4.826h-1.9033v-7.0636h-2.9126v7.0636h-1.9723v-7.4534c0-.9864.4358-1.399 1.4219-1.4219h4.105c.8485 0 1.2842.4355 1.2842 1.2842v7.2008c-.0229.1377-.0229.2526-.0229.3903Zm15.7794-4.0875c-.001-.1053-.002-.2106-.002-.3159v-1.0549c-.022-1.9951-1.261-3.3251-3.256-3.4628-1.881-.1377-3.417 1.055-3.578 2.8667-.091 1.0321-.091 2.0641-.023 3.0958.138 1.7659 1.216 2.8209 2.982 3.0272 2.018.2525 3.577-.9173 3.83-2.8895.055-.4222.051-.8444.047-1.2666Zm-2.02-1.5081v1.1694l.002.2119.001.0976c.005.3008.009.5922-.026.8831-.022.9402-.573 1.4905-1.467 1.4905-.849 0-1.422-.5503-1.445-1.4676-.023-.8029-.023-1.6282 0-2.4311.023-.9401.596-1.4447 1.468-1.4447.894 0 1.444.5503 1.467 1.4909Zm-10.3653 2.3616v3.2106h-1.9493l-.0024-.0712-.0082-.1057c-.006-.0687-.0123-.1408-.0123-.2128v-7.0861c0-.9634.4358-1.399 1.399-1.3761l.4822-.0009c.808-.0034 1.6271-.0069 2.4303.0695 1.559.1606 2.477 1.2842 2.454 2.798-.023 1.3761-1.078 2.5455-2.523 2.7061-.3821.0457-.7643.0508-1.1465.0559-.1911.0025-.3823.0051-.5734.0127h-.5504Zm.0229-3.8525v2.0637l.3613.0017.2808.0035h.0078c.1556.0022.3095.0043.4623.0052.1644.0004.3272 0 .4884-.003.0861-.0018.1718-.0039.257-.0074.1036-.0086.2016-.0319.2928-.0673.104-.041.199-.0984.282-.1684.111-.0941.201-.2115.264-.3431.066-.1382.102-.2923.102-.4528 0-.5966-.322-.9635-.9408-1.0092-.4644-.0341-.9289-.0298-1.3933-.0255l-.329.0021-.1353.0005ZM54.8742 36.8813h.2752l.9173 1.5591h1.1238l-1.0321-1.7659-.4126-.2978.3897-.2983.9173-1.4447h-1.0547l-.8944 1.5134-.2295.1148v-1.6054h-.9861v3.7839h.9861v-1.5591Zm2.5708-1.2367c.0248-.0712.0531-.1394.0844-.2046.0647-.1351.143-.2581.2343-.3704.3212-.344.7569-.5274 1.3073-.5274.2981 0 .5732.0457.7796.1377.2294.0915.4129.2292.5506.4126.1374.1835.252.3898.3209.6423.0252.0924.0475.1878.0654.2866.0308.1705.0492.3501.0492.5387 0 .3777-.0555.6998-.1619.976-.0744.1934-.1739.3639-.2967.515-.1099.1351-.2413.2421-.3911.3233-.0911.0496-.1891.0898-.2929.1209-.1893.0565-.3986.0833-.6231.0833-.1806 0-.3529-.0169-.5063-.0505-.0415-.0091-.0816-.0195-.1202-.0311-.0544-.0164-.1058-.035-.1533-.0561-.1338-.0536-.2518-.1226-.3544-.2072-.0733-.0609-.1385-.1295-.1959-.2059l-.0443-.0613c-.0242-.0341-.0477-.0691-.0703-.1053-.0881-.1408-.1645-.2966-.2295-.4753-.0233-.1291-.0468-.2637-.0641-.4045-.0075-.0617-.014-.1247-.0187-.1886-.0057-.076-.0089-.1537-.0089-.2327l.0007-.0617.0019-.0755.0028-.0587.0067-.0971c.0084-.1006.0214-.1969.0388-.2888.0076-.0389.0158-.0773.0249-.1148l.0203-.079c.0131-.048.0278-.0946.0438-.1399Zm.9095 1.1793.0133.0997.0152.0954c.0228.1377.0688.275.1376.3669.0687.1148.1375.1835.2293.2521.0917.0691.2063.0919.344.0919.2523 0 .4586-.0919.5732-.2754.0628-.1005.1118-.2352.1433-.4044.0061-.0328.0115-.0669.0162-.1023.0069-.0497.0123-.1023.0162-.1576.0052-.0721.0078-.1489.0078-.2301 0-.344-.0687-.6189-.1835-.8482-.1146-.2067-.3209-.3211-.5961-.3211-.2523 0-.4357.0915-.5734.275-.1146.1834-.1604.4817-.1604.8943 0 .0423.0017.0846.0043.1261l.0054.0691.0076.0686Zm6.5186-.8832-.0689.7796v1.7659h.9404v-3.7839h-1.0321l-.8026 1.399-.2293.4817h-.0228l-.2066-.4817-.8713-1.4219h-1.0321v3.7839h.8716v-1.743l-.0918-.7796h.0458l.2983.6423.7795 1.1694h.3669l.711-1.1694.2982-.6423h.0458Zm4.9534.7796.0689-.7796h-.046l-.298.6423-.711 1.1694h-.3669l-.7798-1.1694-.298-.6423h-.0229l.0917.7796v1.743h-.8715v-3.7839h1.0321l.8713 1.4219.2066.4817h.0228l.2292-.4817.8027-1.399h1.0321v3.7839h-.9404v-1.7659h-.0229Zm4.2199 1.6977c.2523-.0691.4586-.1835.6192-.2983l-.3211-.6652c-.0689.0462-.2064.1149-.3669.1835-.1606.0691-.3441.0919-.5504.0919-.3212 0-.5735-.0919-.7109-.2525-.1606-.1601-.2295-.3898-.2523-.7109h2.2702c.0117-.0574.0175-.1209.0234-.1843l.0001-.0012c.0055-.0622.0111-.1248.0225-.1814.0229-.1144.0229-.2292.0229-.3441 0-.2978-.0458-.5503-.1375-.7338-.0917-.1834-.2065-.344-.344-.4584-.1377-.1148-.2983-.2063-.4817-.2525-.1604-.0458-.3669-.0686-.5504-.0686-.5732 0-1.009.1605-1.3301.5046-.321.3211-.4816.8253-.4816 1.4905 0 .243.0212.4649.0637.6669.0656.3129.182.578.3492.8007.2752.344.711.5275 1.3299.5275.2983 0 .5735-.0229.8258-.1144Zm-1.353-2.8438c.1375-.1605.3209-.2296.5732-.2296.2064 0 .3669.0919.4815.2296.0918.1377.1377.3441.1149.619h-1.399c.0228-.252.1146-.4584.2294-.619Zm2.7978-.8943h.7109l.1146.4584h.0229l.055-.0717.046-.057c.1062-.1273.2188-.2322.3578-.284.1835-.0919.3898-.1377.665-.1377.4815 0 .8255.1606 1.0778.4589.2294.2978.3669.7795.3669 1.4447 0 .1442-.0093.284-.0257.417-.02.1627-.0509.3155-.0889.4545-.0688.2521-.1834.4813-.344.6648-.1375.1834-.3209.3211-.5504.4131-.2063.0915-.4586.1372-.7338.1372-.1606 0-.2752 0-.39-.0228-.0917-.0229-.2063-.0687-.298-.1144V40h-.9861v-5.3201Zm1.6741.7105c-.0669 0-.1308.006-.1903.0181-.1041.0216-.1956.0613-.2683.1196-.1148.0919-.1835.2296-.2523.4359v1.5825l.0019.0013c.0682.0453.1364.0906.2273.1359l.0034.0009c.0906.0226.1817.0453.3177.0453.2752 0 .5047-.0919.6421-.2982.1377-.2064.2064-.5275.2064-.9864 0-.344-.0458-.5961-.1604-.7795-.0552-.1105-.1437-.1878-.2605-.2318-.0773-.029-.1666-.0436-.267-.0436Zm3.2107.1377v-.8716h-.9404v1.2842c0 .2525.0229.4589.0689.6194.0457.1606.1374.2979.2292.3898.0466.0466.1051.0872.1692.1222.0621.0337.1299.0617.1977.0842.1606.0457.3211.0686.5046.0686.2523 0 .4586-.0229.6192-.0915.1606-.0691.2752-.1377.344-.1835v1.4905h.9861v-3.7839h-.9861v1.5825l-.0233.0216-.0201.0159-.0282.0203-.0283.0173c-.0507.0285-.1092.0492-.1753.0626-.1148.0229-.2523.0457-.39.0457-.1146 0-.2063 0-.2751-.0457-.0687-.0233-.1146-.092-.1604-.1606-.0231-.069-.046-.1606-.0689-.2754-.0228-.1144-.0228-.2521-.0228-.4126Zm6.0313 2.5916c-.1606.1148-.3669.2292-.6192.2983-.2523.0915-.5275.1144-.8258.1144-.619 0-1.0547-.1835-1.3299-.5275-.0531-.0708-.101-.1455-.144-.2249-.0403-.0751-.0762-.1541-.1075-.237-.1074-.2853-.1614-.6185-.1614-1.0057 0-.6652.1606-1.1694.4815-1.4905.3212-.3441.7569-.5046 1.3302-.5046.1834 0 .39.0228.5503.0686.1835.0462.344.1377.4817.2525l.0376.0332c.0196.0182.0388.0372.0574.057l.0337.0376.0302.0362c.0697.0872.1314.1869.1852.2944.0917.1835.1374.436.1374.7338 0 .07 0 .1399-.0051.2094l-.005.0531-.0058.0414-.0069.0402c-.0114.0566-.017.1192-.0226.1814l-.0001.0012c-.0058.0634-.0116.1269-.0233.1843h-2.2703c.0119.1679.0365.3108.0801.4316.0399.1105.0956.2029.1722.2793.1375.1606.3898.2525.7109.2525.2064 0 .3898-.0228.5504-.0919l.0958-.0423.0689-.0315.0751-.0376c.0531-.0272.0967-.0518.1271-.0721l.3212.6652Zm-1.399-2.7751c-.1174 0-.22.0147-.3097.0466-.1032.0371-.19.0971-.2636.183-.0623.0872-.118.1882-.1595.3026-.0347.0963-.0595.2016-.0699.3164h1.399c.0091-.1079.0076-.205-.0032-.2918-.0169-.1342-.0557-.2434-.1116-.3272-.0535-.0802-.1306-.145-.2312-.1851-.0714-.0285-.1549-.0445-.2503-.0445Zm4.3116 3.1187c.2063-.0457.3897-.1377.5503-.2521l-.2063-.8029c-.0333.0251-.0695.0471-.1075.067-.0673.0349-.1405.0643-.2137.0936-.0589.0238-.1241.041-.1953.0523-.0671.0107-.1396.0164-.2175.0164-.1375 0-.2752-.0229-.3898-.0916-.1146-.0457-.2064-.1377-.2752-.2292-.0455-.0759-.0809-.1519-.1131-.2339l-.0313-.0855-.0162-.0475c-.0229-.1148-.0457-.2754-.0457-.4359 0-.2072.0194-.3821.0582-.528.0344-.1286.0836-.2348.1481-.3207.1375-.1834.344-.2749.6192-.2749.1375 0 .2752.0228.3898.0457l.344.1377.2294-.8029c-.1377-.0686-.2982-.1372-.4588-.1834-.0706-.0203-.1545-.0358-.2497-.0471-.1213-.0142-.2612-.0216-.4153-.0216-.5503 0-.9632.1835-1.2613.5275-.0604.0747-.1144.1537-.1618.2379-.0672.1191-.1216.2486-.1636.3898-.0745.2499-.1103.5356-.1103.8628 0 .2983.0229.5733.0917.8258.046.2521.1377.4584.2752.6419.1146.1838.298.3211.5046.4131.2063.0915.4586.1377.7567.1377.2294 0 .4586-.0462.6652-.092Zm2.4077-1.582h-.2752v1.5591h-.9861v-3.7839h.9861v1.6054l.2295-.1148.8944-1.5134h1.0547l-.9173 1.4447-.3897.2983.4126.2978 1.0321 1.7659h-1.1238l-.9173-1.5591Zm4.7702-.6885-.0459.5275v1.743h.9861v-3.7839h-.6192l-1.353 1.7888-.321.5275h-.0231l.046-.5046v-1.8117h-.9861v3.7839h.6192l1.353-1.7197.3212-.5508h.0228Zm4.0822.5279.046-.5275h-.023l-.321.5504-1.3533 1.7201h-.6192v-3.7838h.9861v1.8116l-.046.5046h.0231l.321-.5275 1.3533-1.7887h.619v3.7838h-.986v-1.743Zm-.9104-3.224c.0119.0138.0249.0259.0389.0363.0917.0919.1834.1148.3205.1148.046 0 .089-.0052.129-.0143.083-.0185.154-.0544.215-.1005.092-.0916.138-.2064.161-.4127l.757.1834c-.018.0829-.04.161-.067.234-.079.2111-.199.3807-.369.4999-.229.1605-.504.2292-.826.2292-.1403 0-.2633-.0177-.3994-.0373l-.0051-.0007-.0537-.0078-.001-.0003c-.1371-.0457-.2745-.0914-.3888-.1603-.1142-.0682-.2055-.1821-.2967-.2958l-.0016-.002c-.0917-.1148-.1374-.2754-.1603-.436l.8026-.2063c.0264.1191.0529.2154.0883.2888.0166.0341.035.0634.0563.0876Zm5.8414 1.4124c-.207.0915-.39.2521-.528.4813 0-.275.046-.4813.138-.619.068-.1835.137-.2983.252-.3898.114-.0918.252-.1376.389-.1833l.001-.0002c.137-.0457.321-.069.504-.069.157-.0113.298-.0225.422-.0363.129-.0147.241-.0319.335-.0552.047-.0057.091-.0147.134-.0259.064-.0169.123-.0393.174-.0665.05-.0268.094-.0574.128-.0911l-.046-.8715c-.092.0919-.229.1377-.413.1834-.183.0458-.413.0687-.665.092-.065.0072-.128.0121-.189.017-.133.0104-.259.0203-.384.0516-.184.0458-.344.0915-.505.1606-.16.0684-.297.1826-.434.2965l-.001.0013c-.062.0514-.119.1162-.171.1908-.025.0363-.05.0747-.073.1148-.036.0626-.07.1295-.101.199-.091.2064-.16.4818-.206.78-.018.1244-.032.2556-.043.395-.017.2206-.026.4619-.026.7286 0 .8258.161 1.4219.459 1.8117.201.2624.464.4312.797.5137.161.0401.338.0595.533.0595.573 0 1.009-.1834 1.307-.5275.116-.142.211-.3047.284-.4907.115-.2944.175-.6471.175-1.0684 0-.5965-.138-1.0321-.413-1.3075-.275-.2749-.642-.4126-1.101-.4126-.298 0-.527.0457-.733.1377Zm-.161 2.4997c-.115-.2064-.183-.4817-.183-.8029 0-.1545.016-.2931.047-.4161.035-.1321.088-.2456.159-.3406.064-.0846.142-.1498.235-.1955.04-.0199.083-.0359.129-.0484.077-.0211.162-.0315.255-.0315.076 0 .145.0082.209.0246.066.0173.125.0436.178.079.065.0436.119.101.163.1718.115.1835.161.4355.161.7567 0 .3669-.069.6423-.183.8258-.046.069-.098.1251-.156.1692-.042.0323-.088.0582-.138.0781-.042.0168-.088.0293-.137.0375-.035.0065-.073.0104-.112.0121l-.054.0013c-.074 0-.144-.0099-.209-.0289-.054-.016-.104-.0384-.15-.0665-.088-.0539-.161-.1299-.214-.2257Zm3.027-2.5226c.207-.092.436-.1606.711-.2068.275-.0457.573-.0686.871-.0686.253 0 .482.0229.666.0919.183.0687.321.1602.412.275.063.063.112.1329.152.2098.032.063.057.1303.078.2029.045.1605.069.344.069.5503 0 .2297 0 .436-.024.6652-.008.085-.013.1671-.017.2486-.005.1373-.005.2724-.005.4166 0 .1265 0 .262.005.3954.003.0837.009.1666.017.2465.009.0768.017.1506.029.2223.018.1208.043.2361.086.3513h-.802l-.161-.5275h-.046c-.033.057-.074.111-.121.1623-.018.0203-.038.0402-.058.0596-.025.0242-.051.0479-.078.0708-.05.0423-.103.0824-.156.12-.16.1148-.412.1606-.688.1606-.183 0-.344-.0229-.481-.0687-.138-.0461-.252-.1377-.367-.2296-.029-.0294-.059-.0609-.087-.095-.059-.0725-.111-.1554-.143-.249v-.0005c-.045-.1371-.091-.2747-.091-.4579 0-.2297.046-.436.16-.5966.115-.1601.253-.2978.436-.3898.107-.0535.237-.0988.377-.1368.101-.0272.206-.0505.311-.0695.275-.0458.573-.0458.894-.0229.046-.2754.023-.4817-.068-.619-.069-.1148-.253-.1839-.505-.1839-.128 0-.257.0091-.385.0272-.078.0108-.156.0246-.234.0419-.134.0268-.244.0535-.345.0846-.072.0225-.139.0471-.205.076l-.207-.7567Zm1.261 2.8204c.081 0 .151-.0069.214-.0207.039-.0091.076-.0207.11-.0354.049-.0211.094-.0483.135-.0811l.062-.0518c.037-.032.07-.0639.099-.0959.039-.0427.07-.085.091-.1277v-.4818c-.042-.006-.082-.0103-.122-.0134-.049-.0034-.096-.0047-.144-.0034-.062.0017-.125.0073-.192.0168-.045.0064-.086.011-.125.0153-.1.0112-.182.0204-.265.0538-.115.0458-.207.0915-.275.1606-.069.0686-.092.1372-.092.2521 0 .0552.007.107.021.1532.02.0691.052.1265.093.1679l.001.0002c.115.0457.229.0913.389.0913Zm3.486-.7338h1.239v1.4905h.986v-3.7839h-.986v1.4219h-1.239v-1.4219h-.986v3.7839h.986v-1.4905Zm4.335-.0915h-.276v1.5591h-.963v-3.7839h.986v1.6054l.23-.1148.894-1.5134h1.055l-.917 1.4447-.39.2983.412.2978 1.033 1.7659h-1.124l-.94-1.5591Z"/>
</svg>