<svg xmlns="http://www.w3.org/2000/svg" viewBox="0 0 200 50">
	<path class="bg-logo" fill="#6059f4" d="M0 0h200v50H0V0Z"/>
	<path fill="#fff" d="M39.4 13.1c-3.2-5.5-11.1-5.5-14.3 0l-8.9 15.5C13 34.1 17 41 23.4 41h17.9c6.4 0 10.3-6.9 7.2-12.4l-8.9-15.5ZM22.5 35.8c-2.1-1.2-2.8-3.9-1.6-5.9l8-13.9c1.2-2.1 3.9-2.8 5.9-1.6 2.1 1.2 2.8 3.9 1.6 5.9l-8 13.9c-1.2 2.1-3.9 2.8-5.9 1.6Zm16.8.9c-2.7 0-4.8-2.2-4.8-4.8s2.2-4.8 4.8-4.8 4.8 2.2 4.8 4.8-2.2 4.8-4.8 4.8ZM97 25.8c-.4-.4-1-.7-1.7-1-.5-.2-1-.3-1.6-.5-.3 0-.7-.2-1.1-.2l-3.7-.7c-.4 0-.7-.1-.9-.2-.2 0-.4-.2-.6-.3l-.3-.3V22c0-.1 0-.2.1-.3l.2-.2c.1 0 .2-.1.3-.2h.3c.3 0 .7-.1 1.2-.1h.7c.3 0 .6 0 .9.1.4 0 .7.2 1 .4.3.2.4.3.6.6 0 .2.2.3.2.5v.1h4.5c.2 0 .3-.1.3-.3 0-.6-.2-1.3-.5-1.9-.3-.7-.9-1.3-1.5-1.8-.7-.5-1.6-.9-2.6-1.2-.3 0-.5-.1-.8-.2-.2 0-.5 0-.7-.1-.5 0-1-.1-1.5-.1H89c-1 0-2 0-2.8.2-.8.1-1.5.3-2.1.5-.6.2-1.1.5-1.5.8-.4.3-.7.6-1 1-.1.2-.2.4-.3.5 0 .2-.2.4-.2.6v1.2c0 .6 0 1.1.2 1.6s.4 1 .8 1.4c.4.4.9.8 1.5 1.1.6.3 1.4.6 2.3.7l4.6.9c.3 0 .5.1.7.2h.2c.1 0 .2 0 .3.1 0 0 .2 0 .2.1.2.1.2.2.3.3v.6c0 .2-.2.3-.4.4-.2.1-.5.2-.9.3-.4 0-.8.1-1.4.1h-1.2c-.2 0-.4 0-.6-.1-.4-.1-.8-.2-1-.4-.2-.2-.4-.4-.5-.6 0-.2-.1-.3-.2-.5 0-.1-.1-.2-.3-.2h-5v.2c0 .7.2 1.3.6 2 .4.7.9 1.3 1.7 1.8.8.5 1.7.9 2.7 1.2 1.1.3 2.4.5 3.8.5 2.8 0 5-.4 6.4-1.3.2-.1.5-.3.7-.4 0 0 .2-.1.3-.2l.4-.4c.3-.4.5-.8.7-1.2.1-.5.2-1 .2-1.5s-.1-1.2-.3-1.8c-.2-.5-.5-1-.9-1.3ZM73.5 17.9c0-.1-.2-.2-.3-.2H66.1v.1l-6.9 15.4c0 .2 0 .4.3.4h5.2c.1 0 .2 0 .3-.2l.9-2.4c0-.1.2-.2.3-.2h7.2c.1 0 .2 0 .3.2l.9 2.4c0 .1.1.2.3.2h5.2c.2 0 .3-.2.3-.4l-6.9-15.4Zm-1.8 9.3h-3.9c-.1 0-.2 0-.2-.2v-.2l1.9-4.9c0-.1.2-.2.3-.2s.2 0 .3.2l1.9 4.9c0 .2 0 .4-.3.4ZM105.6 17.8h-5.1c-.2 0-.3.1-.3.3v15.4c0 .2.1.3.3.3h5.1c.2 0 .3-.1.3-.3V17.9s-.1-.1-.2-.1ZM121.8 17.9c0-.1-.1-.2-.3-.2h-6.9c-.1 0-.2 0-.3.2l-6.9 15.4v.3h5.4c.1 0 .2 0 .3-.2l.9-2.4h7.5l.9 2.4s0 .1.1.1h5.3c.2 0 .3-.2.3-.4l-6.9-15.4Zm-1.8 9.3h-3.9c-.2 0-.3-.2-.3-.4l1.9-4.9h.2c.1 0 .2 0 .3.2l1.9 4.9c0 .2 0 .4-.3.4ZM147.8 26.3c.3-.7.5-1.5.5-2.4v-1c0-.4 0-.9-.2-1.3 0-.3-.2-.6-.4-.9-.3-.6-.8-1.2-1.4-1.6-.6-.4-1.4-.8-2.2-1-.9-.2-1.8-.3-2.9-.3h-10.7c-.2 0-.3.1-.3.3v15.4c0 .2.1.3.3.3h5.3V29.9c0-.2.1-.3.3-.3h5.3c1 0 1.9-.1 2.8-.4.4-.1.8-.3 1.2-.5.3-.2.7-.4.9-.6.6-.5 1.1-1 1.4-1.7Zm-5.3-2.5v.4c0 .1 0 .3-.1.4 0 0 0 .2-.1.2 0 .1-.2.2-.3.3-.2.1-.4.2-.7.3h-5V22.1c0-.2.1-.3.3-.3h5.1c.2 0 .4.1.6.3.1.1.3.3.4.5.1.2.2.5.2.8v.5ZM161.2 17.9v-.1H154.1c-.1 0-.2 0-.3.2l-6.9 15.4c0 .2 0 .4.3.4h5.2c.1 0 .2 0 .3-.2l.9-2.4c0-.1.1-.2.3-.2h7.2c.1 0 .2 0 .3.2l.9 2.4c0 .1.2.2.3.2h5.2c.1 0 .2 0 .3-.2v-.2L161.2 18Zm-1.8 9.3h-3.9c-.1 0-.2 0-.2-.2v-.2l1.9-4.9v-.1h.2c.1 0 .2 0 .3.2l1.9 4.9c0 .2 0 .4-.3.4ZM184.2 17.7h-5.7s-.2 0-.2.1l-3.6 5.8c-.1.2-.4.2-.5 0l-3.7-5.8-.2-.1h-5.7c-.2 0-.4.3-.2.4l7.2 10v5.4c0 .2.1.3.3.3h5.1c.2 0 .3-.1.3-.3v-5.3l7.2-10V18c0-.1-.1-.2-.3-.2Z"/>
</svg>