<svg xmlns="http://www.w3.org/2000/svg" viewBox="0 0 200 50">
	<path class="bg-logo" fill="#F5671E" d="M-.00024414 0h200v50h-200z"/>
	<path fill="#fff" d="M29.6544 10c2.6098.224 5.0731.6348 7.1908 1.3508 1.9464.658 3.8796 1.6634 5.3462 3.2722 1.5436 1.6934 2.3519 3.8192 2.3519 6.2254 0 2.4063-.8083 4.5321-2.3519 6.2255-1.4666 1.6088-3.3998 2.3324-5.3462 2.9905-3.8118 1.2888-10.3545 1.2888-13.3878 1.2888h-3.3863l3.0317-6.7546c4.836 0 13.9109-.4098 16.4705-1.2752 1.2449-.4209 1.8941-.8773 2.2121-1.2261.2409-.2644.42-.5923.42-1.2489 0-.6565-.1791-.9844-.42-1.2488-.318-.3488-.9672-.8052-2.2121-1.2261-2.0578-.6957-8.2921-1.1544-13.1588-1.1544L29.6544 10Zm59.0212 10.4199c0-3.6458 2.2821-6.0262 6.4106-6.0262 4.1282 0 6.4268 2.3804 6.4268 6.0262 0 3.6457-2.2986 6.0268-6.4268 6.0268-4.1285 0-6.4106-2.3811-6.4106-6.0268Zm2.4837 0c0 2.3307 1.3761 4.0288 3.9269 4.0288 2.5508 0 3.9433-1.6981 3.9433-4.0288 0-2.3301-1.3925-4.0282-3.9433-4.0282-2.5508 0-3.9269 1.6981-3.9269 4.0282Zm-30.3565 5.8262-1.007-2.6635h-5.9239l-1.0067 2.6635h-2.4503l4.5982-11.6532h3.7089l4.6313 11.6532h-2.5505Zm-6.209-4.528h4.4972l-2.249-5.943-2.2482 5.943Zm17.8351-1.4485c2.1811.1664 3.6411 1.0325 3.6411 2.8467 0 2.0476-1.829 3.1298-4.5811 3.1298h-6.4945V14.5929h6.4271c2.4498 0 4.2288.999 4.2288 2.9963 0 1.6317-1.2251 2.4804-3.2214 2.6804Zm.7548-2.314c0-.9158-.7048-1.4646-1.9471-1.4646h-3.7585v2.9299h3.7585c1.2258 0 1.9471-.5663 1.9471-1.4653Zm-.0893 5.9316c.3284-.2597.4918-.6287.4918-1.1037 0-1.0158-.7887-1.5485-2.1983-1.5485h-3.9098v3.1131h3.776c.8423 0 1.4549-.1556 1.8403-.4609Zm14.8143-7.2802v-2.0141H76.9341v2.0141h4.2453v9.6391h2.4834V16.607h4.2459Zm26.8273-1.1976c3.709 0 5.79 1.7142 5.79 4.7441 0 3.0467-2.081 4.7448-5.79 4.7448h-.688v1.3485h-2.383v-1.3485h-.688c-3.691 0-5.806-1.6981-5.806-4.7448 0-3.0299 2.115-4.7441 5.806-4.7441h.688v-1.0157h2.383v1.0157h.688Zm-3.608 7.5908h.537v-5.6934h-.537c-2.198 0-3.473.9822-3.473 2.8467 0 1.8645 1.275 2.8467 3.473 2.8467Zm3.457 0c2.199 0 3.457-.9822 3.457-2.8467 0-1.8645-1.258-2.8467-3.457-2.8467h-.537v5.6934h.537Zm15.81-8.4073h3.826v11.6532h-2.4v-9.9222l-5.336 9.9222h-3.859V14.5929h2.416v9.9551l5.353-9.9551Zm17.911 0h-2.483v4.7112h-6.294v-4.7112h-2.482v11.6532h2.482v-4.9279h6.294v4.9279h2.483V14.5929Zm12.047 11.6532-1.007-2.6635h-5.923l-1.008 2.6635h-2.449l4.598-11.6532h3.708l4.632 11.6532h-2.551Zm-1.712-4.528-2.248-5.943-2.249 5.943h4.497Zm17.164-7.1252h-2.483v4.7112h-6.293v-4.7112h-2.484v11.6532h2.484v-4.9279h6.293v4.9279h2.483V14.5929Zm2.146 5.827c0-3.6123 2.198-6.0262 6.158-6.0262 3.206 0 5.303 1.5645 5.706 3.9785l-2.383.1832c-.285-1.2983-1.611-2.1637-3.323-2.1637-2.5 0-3.675 1.8477-3.675 4.0282 0 2.314 1.343 4.0288 3.826 4.0288 1.93 0 3.071-1.0486 3.34-2.3475l2.4.1503c-.386 2.5803-2.316 4.1952-5.74 4.1952-4.061 0-6.309-2.3972-6.309-6.0268ZM57.9112 35.0157c0-1.7598-1.4005-2.4548-3.0933-2.4548h-2.6726v-1.8645h5.042v-1.3197H50.418v8.1047h4.3999c1.6928 0 3.0933-.683 3.0933-2.4657Zm-1.7276 0c0 .7179-.4901 1.146-1.5173 1.146h-2.521v-2.2926h2.521c1.0272 0 1.5173.4288 1.5173 1.1466Zm9.464 2.4657-.7001-1.8524h-4.1201l-.7001 1.8524h-1.7042l3.198-8.1047h2.5793l3.2214 8.1047h-1.7742Zm-1.1902-3.1486-1.5643-4.1343-1.5639 4.1343h3.1282Zm11.9373-4.9561h-1.7269v3.2767h-4.3771v-3.2767h-1.7273v8.1047h1.7273v-3.4271h4.3771v3.4271h1.7269v-8.1047Zm7.8887 8.1047-2.9993-3.4271h-1.2023v3.4271h-1.7273v-8.1047h1.7273v3.3693h1.1671l2.8245-3.3693h2.0423l-3.5126 3.9255 3.8048 4.1792h-2.1245Zm-66.9623-.0011 2.7501-6.1274c-2.2465 0-4.1328-.3793-5.1016-.7069-1.2449-.4208-1.894-.9335-2.212-1.2826-.2411-.2644-.4198-.5921-.4198-1.2489 0-.6564.1787-.9842.4198-1.2486.318-.349.9671-.8053 2.212-1.2262 1.38-.4664 4.5816-1.0417 8.1331-1.0417l3.3118-7.3795c-3.2394 0-6.2471.4317-8.7734 1.2858-1.9463.658-3.8229 1.7761-5.2896 3.385-1.5436 1.6933-2.35174 3.8191-2.35174 6.2252 0 2.4064.80814 4.5322 2.35174 6.2255 1.372 1.505 3.1523 2.482 4.9696 3.1403Z"/>
</svg>