<svg xmlns="http://www.w3.org/2000/svg" viewBox="0 0 200 50">
	<path class="bg-logo" fill="#003E22" d="M0 0h200v50H0z"/>
	<path fill="#fff" d="M14.7689 26.1626v5.2011h1.7779c.2456.027.4322-.1302.4322-.4911v-4.1968c0-.3315-.1081-.5132-.4322-.5132h-1.7779ZM10 33.1834v-15.154l10.6699-.022v1.854l-5.901-.027v4.5307h2.4016c1.1567 0 4.5578-.059 4.5578 2.0529v4.6854c.022 1.746-2.7479 2.0308-4.5283 2.0554l-7.2.0246Zm20.5785-13.0028-1.2942 7.0429h2.802l-1.2671-7.0429h-.2407Zm-6.8808 13.0028 3.4527-15.176h7.087l3.4526 15.176h-4.6338l-.7293-3.8137h-3.2881l-.7024 3.8137h-4.6387Zm16.3817-15.176h4.6903v6.1048l2.129-.0296v-6.0752h4.6658v15.176h-4.6658v-6.9422h-2.129v6.92l-4.6903.0222v-15.176Zm15.0507 0H59.71v6.1514l3.0179-6.1514h4.5013l-3.4747 7.1238 3.988 8.0522h-4.3957L59.71 26.2903v6.8931h-4.5799v-15.176Zm29.7627 2.1438-1.2967 7.0453H86.43l-1.2941-7.0453h-.2431Zm-6.8685 13.0322 3.4453-15.176h7.0895l3.4502 15.176H87.373l-.6974-3.8457H83.358l-.6974 3.8457h-4.6363Zm36.1367-12.9905-1.291 7.0134h2.804l-1.264-7.0134h-.249Zm-6.87 12.9905 3.45-15.176h7.087l3.452 15.176h-4.633l-.732-3.8358h-3.283l-.703 3.8358h-4.638Zm47.057-12.9905-1.267 7.0256 2.807-.022-1.299-7.0036h-.241Zm-6.841 12.9905 3.443-15.176h7.092l3.479 15.176h-4.668l-.724-3.8259h-3.293l-.727 3.8259h-4.602Zm-19.024-15.176v6.1072h2.134v-6.0852l4.688-.022v15.1538l-4.688.0222V26.256h-2.134v6.9274h-4.69v-15.154l4.69-.022Zm-29.5905 8.2608v5.0955h1.6185c.319 0 .513-.1842.513-.4395v-4.0887c0-.339-.14-.5673-.535-.5673h-1.5965Zm-4.5479 6.893v.0246-15.1784h6.7604c4.531 0 4.393 1.5151 4.393 2.2125v3.1359c0 .4666-.112 1.854-2.573 1.7754v.1523c1.996-.0221 2.657.6213 2.657 1.5765v4.1746c0 .7146-.276 2.102-4.507 2.1266h-6.7304Zm4.5479-13.3268v4.349l1.5965.027c.397 0 .535-.1548.535-.361V20.242c0-.2283-.108-.4101-.513-.4101h-1.6185v.0025Zm40.3535-1.827h9.28v1.827h-4.724v13.349h-4.556v-15.176Zm28.861 1.8245v6.1735h1.965c.783.0516.783-.2799.833-.6409l-.023-4.9628c.023-.5649-.554-.5797-.793-.5698h-1.982Zm-4.581 13.3293V18.0074h7.113c1.513 0 4.155 0 4.155 2.183v5.2281c0 2.2347-2.477 2.3133-4.155 2.3403h-2.529v5.4221l-4.584-.0197Zm21.447-13.3219h-2.684v9.943c0 .7637-.16 1.4046-.97 1.66v-.0246l3.639-.0147.015-11.5637Zm-9.739 15.1735v-3.5411l.322-.027c1.962 0 2.21-1.0264 2.21-1.5617V18.0074L188.865 18v13.4202H190v3.5902h-4.526v-1.8492h-5.717v1.8492h-4.523v.0024Z"/>
</svg>