<svg xmlns="http://www.w3.org/2000/svg" viewBox="0 0 200 50">
	<path class="bg-logo" fill="#102D69" d="M0 0h200v50H0z"/>
	<path fill="#fff" d="m128.066 26.5915-5.589 3.2203c-8.088-3.978-17.2-6.2702-26.823-6.327-9.9831-.0758-19.4168 2.1974-27.7898 6.327 17.1437-13.5255 41.3348-15.0788 60.2018-3.2203ZM107.513 6l-4.395 4.3948 6.649 6.6491c4.3.7578 8.543 2.027 12.635 3.8455L107.513 6ZM89.081 17.4039c-4.6791.966-9.2633 2.5573-13.5823 4.7547L91.6572 6l4.4138 4.4138-6.99 6.9901ZM48.7508 38.8094h-1.8944v-1.3828h4.2433v-1.5345H45v7.8804h3.7508c1.7996 0 2.974-.7767 2.974-2.3868 0-2.5194-2.33-2.5763-2.974-2.5763Zm-.3978 3.4287h-1.4966v-1.8943h1.5344c.4547 0 1.345.0568 1.345 1.004 0 .7388-.663.8903-1.3828.8903Zm11.4985 1.5344-2.9551-7.8804h-1.8565l-2.9362 7.8804h1.9322l.4926-1.4775h2.8414l.5116 1.4775h1.97Zm-3.8833-5.8345 1.0039 3.012h-2.0268l1.0229-3.012Zm5.7774 2.6521c0 1.0229-.0189 1.8186-1.364 1.648h-.0378v1.5155c3.0323.4356 3.0505-1.6939 3.0635-3.2175.0012-.1325.0022-.2605.0053-.3817l.0568-2.7468h2.2164v6.3649h1.8564v-7.8804h-5.7966v4.698Zm6.8576-4.698v1.5345h2.3679v6.3459h1.8565v-6.3459h2.3678v-1.5345h-6.5922Zm14.4158 0h-1.8565l-3.1256 5.0958v-5.0958h-1.8375v7.8804h1.8375l3.1256-5.1526v5.1526h1.8565v-7.8804Zm1.7239 7.8804h1.8565v-3.3908h2.8414v3.3908h1.8564v-7.8804h-1.8564v2.9552h-2.8414v-2.9552h-1.8565v7.8804Zm14.6243-5.8724c0-.8524-.3789-2.008-2.4248-2.008v.0189h-3.9402v7.8804h3.7318c1.4018 0 3.0122-.303 3.0122-2.2162 0-1.4397-1.061-1.8944-1.6672-2.0081v-.0189c.7577-.2462 1.2882-.7388 1.2882-1.6481Zm-2.8036 1.0987h-1.7239v-1.5722h1.6291c.8335 0 1.004.4357 1.004.7576 0 .3032-.1705.8146-.9092.8146Zm.2083 3.2393h-1.9133v-1.7996h1.686c.6631 0 1.2502.1705 1.2502.9093 0 .7198-.7008.8903-1.0229.8903Zm10.0791-1.7617v-1.4587h-3.846v-1.5911h4.357v-1.5345h-6.195v7.8804h6.308v-1.5344h-4.47v-1.7617h3.846ZM112.059 44c2.785 0 3.448-1.8186 3.562-3.012v-.0189h-1.838c-.076.5872-.435 1.4776-1.648 1.4776-1.269 0-1.932-1.0609-1.932-2.5574 0-2.6331 1.459-2.7089 1.875-2.7089.417 0 1.459.0569 1.629 1.3829h1.819c-.057-1.1556-.758-2.8984-3.543-2.8984-.738 0-3.769.1516-3.769 4.3191 0 3.0878 1.837 4.016 3.845 4.016Zm4.016-8.1079v1.5345h2.386v6.3459h1.838v-6.3459h2.368v-1.5345h-6.592Zm11.329 2.9173h-1.895v-1.3828h4.244v-1.5345h-6.1v7.8804h3.751c1.799 0 2.973-.7767 2.973-2.3868 0-2.5194-2.329-2.5763-2.973-2.5763Zm-.399 3.4287h-1.496v-1.8943h1.534c.455 0 1.345.0568 1.345 1.004 0 .7388-.643.8903-1.383.8903Zm11.518 1.5344-2.955-7.8804h-1.875l-2.937 7.8804h1.951l.493-1.4775h2.842l.511 1.4775h1.97Zm-3.883-5.8345 1.004 3.012h-2.027l1.023-3.012Zm4.603 5.8345h1.856v-3.3908h2.842v3.3908h1.856v-7.8804h-1.856v2.9552h-2.842v-2.9552h-1.856v7.8804Zm15.002-7.8804h-2.178l-2.69 3.3151h-.019v-3.3151h-1.838v7.8804h1.838v-3.8454h.019l2.785 3.8454h2.273l-3.334-4.2811 3.144-3.5993Z"/>
</svg>