<svg xmlns="http://www.w3.org/2000/svg" viewBox="0 0 200 50">
	<path class="bg-logo" fill="#0D47A1" d="M0 0h200v50H0z"/>
	<path fill="#fff" d="M37.5 24.1c-2.6-.6-5.2-1-7.9-1-6.7 0-14.2 2.4-14.6 6.7v-2.3c0-.7763.2825-1.2701.6647-1.9383.0117-.0204.0234-.0409.0353-.0617 1-1.3 2.2-2 3.6-2.7 3.4-1.4 6.9-1.9 10.6-1.9h1.3c-.6-.7-.8-1.2-.9-1.8h-.7c-6.7.1-14.2 2.4-14.6 6.3v-2.3c0-.7763.2825-1.2701.6647-1.9382.0117-.0205.0234-.041.0353-.0618 1-1.3 2.2-2 3.6-2.7 3.4-1.4 6.9-1.9 10.6-1.9h1.4c.5-.7 1.2-1.2 1.9-1.6-1.2-.2-2.4-.2-3.6-.2-6.7.1-14.2 2.4-14.6 6.3v-2.3c0-.7763.2825-1.2701.6647-1.9383.0117-.0204.0234-.0409.0353-.0617 1-1.3 2.2-2 3.6-2.7 3.4-1.4 6.9-1.9 10.6-1.9 2.6 0 4.9.3 7.5 1 2.5-.7 5.1-1 7.7-1 7.7-.1 14.7 3 14.7 6.5S52.9 25 45 25c-2.5-.1-5-.3-7.5-.9Zm16.6-5.6c0-2.1-4-4-9-4s-9.1 1.9-9 4c0 2.1 4 4 9 4 4.9 0 9-2 9-4Zm110.4 7.3.2-1 1.9-6.7h5.7v14.1h-4V22h-.1l-.2.7-2.5 9.5H163l-2.5-9.6-.1-.6h-.1l.1.9v9.3H157V18.1h5.5l1.7 6.8.2.9h.1Zm15.7-2.4c1.1 0 2.9.1 4 1.6.009.0142.02.0296.031.0461.224.3316.764 1.1298.669 2.6539 0 1.3-.4 2.5-1.2 3.3-1.1 1.1-2.6 1.2-3.7 1.2h-6.3V18.1h4.2v5.3h2.3Zm-.9 5.7c.3 0 .7-.1 1-.4.2-.3.3-.5.3-.8 0-.3-.1-.6-.3-.9-.3-.3-.6-.4-1-.4H178v2.5h1.3Zm-55.1 3.1h-4.4V18.1h11.6v14.1H127V21.4h-2.8v10.8Zm25.6-14.1c1.3 0 2.9 0 4.2.7.9.5 1.8 1.6 1.9 3.8 0 .0667.006.15.012.2472.032.4862.088 1.3195-.412 2.1528-1.3 2-3.5 2.1-5 2.1H149v5.1h-4.4V18.1h5.2Zm.2 5.9c.3 0 .9 0 1.3-.4.2-.3.4-.6.5-.9 0-.4-.2-.8-.4-1-.5-.4-1.1-.4-1.4-.4h-1.1V24h1.1Zm-8.4 2.5h-4v2.3h5.5v3.4h-9.9V18.1h9.6v3.3h-5.2v2.1h4v3Zm-26.615 1.4693c.089.2904.22.7208.515 1.5307.1.4.3.8 1.1.8h.1v1.9c-.3.1-.7.1-1.1.1-.6 0-1.5 0-2.2-.9-.256-.3408-.439-.8992-.673-1.6136-.04-.1242-.083-.2531-.127-.3864-.153-.4584-.262-.8438-.355-1.173-.151-.5326-.26-.918-.445-1.227-.4-.7-.9-1.1-2.3-1.1h-.9v6.3H106V18.1h2.9v5.7h.8c.6 0 .9 0 1.4-.3.5-.4.7-.8.9-1.4.105-.4184.173-.7273.23-.9862.106-.4837.175-.7927.37-1.3138.2-.6.6-1.1 1.1-1.4.5-.3 1-.4 1.7-.4.3 0 .5 0 .8.1v1.8h-.3c-.6 0-1 .1-1.3.9-.141.4583-.232.8544-.313 1.2059-.149.6457-.263 1.1409-.587 1.5941-.2.3-.4.5-.7.7-.3.2-.6.3-.9.4v.1c1.2.1 1.7.7 2.1 1.3.2.3.4.8.7 1.6.026.0791.053.1652.085.2693ZM75.9 23.8c1.1 0 2.5.1 3.6.9.6.4 1.4 1.4 1.6 3.3 0 1.4-.5 2.4-1.2 3.1-1.1 1-2.3 1.1-3.5 1.1h-5.6V18.1h8.8v2.1h-6.2v3.6h2.5Zm-.2 6.4c.4 0 1.2-.1 1.8-.6.3-.3.6-.9.5-1.4 0-.7-.2-1.3-.6-1.7-.6-.6-1.4-.6-1.9-.6h-2.1v4.3h2.3ZM37.3 26c2.6.6 5.2 1 7.9 1 6.7 0 14.2-2.4 14.6-6.7v2.3c0 .7763-.2825 1.2701-.6647 1.9383-.0117.0204-.0234.041-.0353.0617-1 1.3-2.2 2-3.6 2.7-3.4 1.4-6.9 1.9-10.6 1.9h-1.3c.6.7.8 1.2.9 1.8h.7c6.7-.1 14.2-2.4 14.6-6.3V27c0 .7763-.2825 1.2701-.6647 1.9383-.0117.0204-.0234.041-.0353.0617-1 1.3-2.2 2-3.6 2.7-3.4 1.4-6.9 1.9-10.6 1.9h-1.4c-.5.7-1.2 1.2-1.9 1.6 1.2.2 2.4.2 3.6.2 6.7-.1 14.2-2.4 14.6-6.3v2.3c0 .7763-.2825 1.2701-.6647 1.9383-.0117.0204-.0234.041-.0353.0617-1 1.3-2.2 2-3.6 2.7-3.4 1.4-6.9 1.9-10.6 1.9-2.6 0-4.9-.3-7.5-1-2.5.7-5.1 1-7.7 1-7.7.1-14.7-3-14.7-6.5s6.9-6.4 14.8-6.4c2.5.1 5 .3 7.5.9Zm-16.6 5.7c0 2.1 4 4 9 4s9.1-2 9-4c0-2.1-4-4-9-4-4.9 0-9 2-9 4Zm75.8-7.9h4.9v-5.7h2.7v14.1h-2.7v-6.4h-4.9v6.4h-2.7V18.1h2.7v5.7ZM81 32.2l4.6-14.1h2.9l4.6 14.1h-2.8l-1.2-3.7h-4.7l-1.1 3.7H81Zm4-5.6h3.6l-1.5-5.2-.2-.8h-.1l-.2.8-1.6 5.2Z"/>
</svg>