<svg xmlns="http://www.w3.org/2000/svg" viewBox="0 0 200 50">
	<path class="bg-logo" fill="#313131" d="M0 0h200v50H0z"/>
	<path fill="#fff" d="M78.9722 18.2048h-1.856v-6.0393h1.856v2.3164c.165 0 .2887-.0827.3712-.1654.0825-.1241.2475-.4137.4125-.9101.1238-.3723.2887-.6618.4125-.8273.1237-.1654.3712-.2895.7011-.3723.33-.0827.8249-.1241 1.5261-.1241v1.2824h-.0825c-.3299 0-.5362.0413-.7012.1654-.165.1241-.2887.331-.3712.5791-.0825.2896-.2062.4551-.3299.6205-.1238.1241-.2887.2482-.4537.3309.2887.0828.4949.2482.7011.4551.2062.2068.4125.5377.6187.9927l.8249 1.6547h-2.1035l-.7424-1.5719c-.165-.3723-.2887-.6205-.4125-.7032-.0825-.0828-.2474-.1241-.4124-.1241v2.4405h.0412Zm4.537-.455c-.5362-.455-.7837-1.0341-.7837-1.7373 0-.6619.2063-1.241.6599-1.6547.4537-.4136 1.0724-.6618 1.8148-.6618.8661 0 1.5261.2482 1.9798.7446.3712.4136.5362.91.5362 1.5305 0 .6618-.2063 1.241-.6599 1.6546-.4537.4137-1.0724.6619-1.8561.6619-.6599 0-1.2373-.1655-1.691-.5378Zm.9074-1.7373c0 .3722.0825.6618.2475.8686.1649.2069.3712.2896.5774.2896.2474 0 .4537-.0827.5774-.2896.165-.1654.2474-.4964.2474-.8686 0-.3723-.0824-.6619-.2474-.8687-.165-.1655-.33-.2896-.5774-.2896-.2475 0-.4537.0828-.6187.2896-.1237.2068-.2062.4964-.2062.8687Zm5.4031-.5792 1.1136 2.7715h.9898l1.0312-2.7715v2.7715h1.4023v-4.3847h-1.9798l-.9486 2.5233-1.0311-2.5233h-1.9798v4.3847h1.4024v-2.7715Zm8.5375.9101-1.0311-2.5233h-1.9796v4.3847h1.4022v-2.7715l1.1135 2.7715h.9899l1.0311-2.7715v2.7715h1.4018v-4.3847h-1.9792l-.9486 2.5233Zm3.9598.91c-.207-.3723-.33-.7859-.33-1.2409 0-.7033.206-1.241.659-1.6547.455-.4136 1.032-.6205 1.816-.6205.619 0 1.113.0828 1.485.2896.371.2068.618.455.825.8273.206.3723.288.8273.288 1.4064v.2069h-3.341c.042.2895.083.455.207.6205.165.2068.371.2895.618.2895.165 0 .33-.0413.454-.1241.083-.0413.206-.1241.289-.2895l1.649.1654c-.247.455-.577.7446-.907.9514-.371.2069-.866.2896-1.526.2896-.577 0-1.031-.0827-1.361-.2482-.33-.2482-.619-.4964-.825-.8687Zm1.361-1.6546h1.65c-.041-.3309-.124-.5377-.247-.7032-.124-.1241-.33-.2068-.578-.2068-.247 0-.495.1241-.619.3309-.123.1241-.165.3309-.206.5791Zm5.609 4.2607h-1.691v-6.0394h1.568v.6618c.206-.2895.412-.455.577-.5377.248-.1241.495-.2069.825-.2069.577 0 1.031.2069 1.361.6619.33.455.495.9928.495 1.6546 0 .7446-.165 1.2824-.536 1.6546-.33.3723-.784.5792-1.32.5792-.248 0-.495-.0414-.701-.1241-.206-.0828-.413-.2069-.578-.3723v2.0683Zm0-3.847c0 .3309.083.6204.207.7859.165.1655.33.2482.536.2482.206 0 .371-.0827.495-.2482.123-.1655.206-.4136.206-.8273 0-.3723-.083-.6205-.206-.786-.124-.1654-.289-.2481-.495-.2481-.206 0-.413.0827-.536.2481-.124.1655-.207.4551-.207.8274Zm8.332 2.1923v-4.3847h-1.691v1.4478c-.207.2482-.454.3723-.743.3723-.165 0-.288-.0414-.371-.1655-.082-.1241-.124-.2896-.124-.455v-1.1996h-1.691v1.4478c0 1.1168.536 1.696 1.568 1.696.494 0 .948-.1241 1.361-.3723v1.6132h1.691Zm.866-.9514c-.207-.3723-.33-.7859-.33-1.2409 0-.7033.206-1.241.66-1.6547.453-.4136 1.031-.6205 1.814-.6205.619 0 1.114.0828 1.485.2896.371.2068.619.455.825.8273.206.3723.289.8273.289 1.4064v.2069h-3.341c.041.2895.082.455.206.6205.165.2068.371.2895.619.2895.165 0 .33-.0413.454-.1241.082-.0413.206-.1241.288-.2895l1.65.1654c-.247.455-.577.7446-.907.9514-.372.2069-.866.2896-1.526.2896-.578 0-1.031-.0827-1.361-.2482-.33-.2482-.578-.4964-.825-.8687Zm1.402-1.6546h1.65c-.041-.3309-.124-.5377-.248-.7032-.123-.1655-.33-.2068-.577-.2068-.248 0-.495.1241-.619.3309-.124.1241-.165.3309-.206.5791Zm4.413 2.151c.206.2068.495.3309.784.4137.289.0827.701.1241 1.155.1241.495 0 .866-.0828 1.196-.2069.33-.1241.578-.3309.784-.5791.206-.2482.33-.5377.412-.8687l-1.608-.1654c-.083.2482-.206.4136-.33.5377-.165.1241-.33.1655-.536.1655-.248 0-.495-.0827-.66-.2896-.165-.2068-.248-.455-.248-.8273 0-.4136.083-.7032.248-.91.165-.2068.412-.2896.66-.2896.206 0 .412.0414.536.1241.124.0827.206.2482.289.4137l1.567-.2069c-.165-.4963-.413-.8686-.784-1.1168-.371-.2482-.907-.3723-1.65-.3723-.494 0-.948.0827-1.238.2068-.206.0827-.412.2068-.618.3723-.206.1655-.33.3723-.454.5791-.165.2896-.247.6619-.247 1.1169 0 .4137.082.7859.206 1.0341.165.331.33.5378.536.7446Zm8.992-.8687c-.248-.4136-.454-.6618-.578-.7445-.123-.0828-.288-.1241-.536-.1655.124-.0414.206-.0827.289-.1241.082-.0827.124-.2068.247-.3723.083-.1655.165-.2896.248-.3723.082-.0413.165-.0827.289-.1241.123 0 .288-.0413.495-.0413h.082v-1.1997c-.454 0-.784 0-1.031.0414-.248 0-.413.0414-.577.1241-.165.0414-.289.1655-.372.2896-.082.1241-.206.3309-.33.5791-.123.2482-.206.4136-.288.4964-.083.0827-.165.1241-.289.1241v-1.5719h-1.691v4.3847h1.691v-1.6546c.124 0 .247.0414.371.0827.083.0414.206.1655.289.3723l.619 1.1996h1.897l-.825-1.3237Zm4.413-.8273v2.151h1.567v-4.3847h-1.567l-1.65 2.1924v-2.1924h-1.567v4.3847h1.608l1.609-2.151Zm5.733 0v2.151h1.567v-4.3847h-1.567l-1.65 2.1924v-2.1924h-1.567v4.3847h1.608l1.609-2.151Zm-.825-2.7715c.371 0 .701-.1241.949-.3309.288-.2068.412-.5377.412-.91h-.66c-.041.1654-.124.2895-.247.3309-.124.0414-.289.0827-.495.0827-.372 0-.619-.1654-.701-.455h-.702c.042.3723.165.7032.413.91.247.2482.577.3723 1.031.3723Zm6.311 4.3434c-.413-.455-.619-1.1996-.619-2.2337 0-.9514.165-1.696.536-2.3165.372-.6205.866-.8687 1.568-.91h.495c.453 0 .701-.0828.742-.1655h1.32c0 .7859-.454 1.1996-1.361 1.241-.619.0413-1.031.0827-1.238.1654-.206.0828-.371.2482-.453.4964.206-.1654.495-.2068.825-.2068.824 0 1.443.2068 1.856.6618.412.4137.659.9928.659 1.6133 0 .6618-.206 1.1996-.659 1.6546-.413.455-1.073.6619-1.898.6619-.742 0-1.361-.2069-1.773-.6619Zm1.072-1.6132c0 .3722.083.6204.206.8273.124.2068.33.2895.619.2895s.495-.0827.619-.2895c.123-.2069.206-.4964.206-.8687s-.083-.6619-.206-.8273c-.165-.2068-.33-.2896-.578-.2896-.288 0-.495.1241-.618.3309-.207.2069-.248.4964-.248.8274Zm6.31-.5378c.207-.0414.372-.1241.578-.2068 0-.2069-.041-.3309-.124-.4137-.082-.0827-.247-.1241-.454-.1241-.288 0-.494.0414-.618.1241-.124.0828-.206.2068-.248.3723l-1.608-.1655c.041-.2895.165-.4963.247-.6618.124-.1655.289-.2896.495-.4137.165-.0827.371-.1654.619-.2068.289-.0414.577-.0827.866-.0827.495 0 .907.0413 1.196.0827.289.0414.577.1655.742.3723.124.1241.248.2896.33.5378.083.2068.124.455.124.6618v1.9442c0 .2068 0 .3723.041.4964.042.1241.083.2482.165.455h-1.567c-.082-.1241-.124-.2068-.124-.2482 0-.0414-.041-.1655-.041-.2896-.206.2069-.454.3723-.66.4551-.288.1241-.66.1654-1.031.1654-.536 0-.907-.1241-1.196-.3723-.289-.2482-.412-.5377-.412-.91 0-.3309.082-.6205.288-.8273.207-.2068.536-.3723 1.073-.4964.742-.1241 1.113-.2068 1.319-.2482Zm.578.6619c-.248.0827-.454.1654-.701.2068-.33.0827-.536.1654-.66.2482-.083.0827-.124.2068-.124.2895 0 .1241.041.2482.124.331.082.0827.247.1241.412.1241.206 0 .371-.0414.536-.1241.165-.0828.289-.2069.33-.331.083-.1241.083-.2895.083-.4963v-.2482Zm5.692 2.0682h1.69v-4.3847h-1.69v1.4891h-1.527v-1.4891h-1.691v4.3847h1.691v-1.6546h1.527v1.6546Zm4.248-1.6546c.123 0 .247.0414.371.0827.082.0414.206.1655.289.3723l.618 1.1996H170l-.784-1.3237c-.248-.4136-.454-.6618-.578-.7445-.123-.0828-.288-.1241-.536-.1655.124-.0414.206-.0827.289-.1241.041-.0827.124-.2068.247-.3723.083-.1655.165-.2896.248-.3723.082-.0827.165-.0827.288-.1241.125 0 .29-.0413.496-.0413h.083v-1.1997c-.454 0-.785 0-1.032.0414-.248 0-.413.0414-.578.1241-.165.0414-.288.1655-.371.2896-.082.1241-.206.3309-.33.5791-.123.2482-.206.4136-.288.4964-.083.0827-.165.1241-.289.1241v-1.5719h-1.691v4.3847h1.691v-1.6546h-.041Zm-66.735 7.8181h-4.4952l-2.3095 4.0124-2.3922-4.0124h-4.5782l4.2069 6.2462-4.6194 6.8253h4.6194l2.6397-4.1779 2.6396 4.1779h4.6609l-4.5785-6.7426 4.2065-6.3289Zm5.198 7.1976v-7.1976h-3.919v13.0715h3.919l5.031-7.1562v7.1562h3.877V24.3683h-3.877l-5.031 7.1976Zm18.683.7446-2.103-7.9422h-5.444v13.0715h3.382v-9.9691l2.598 9.9691h3.053l2.598-9.9691v9.9691h3.382V24.3683h-5.444l-2.022 7.9422Zm13.611-.7446v-7.1976h-3.918v13.0715h3.918l5.032-7.1562v7.1562h3.877V24.3683h-3.877l-5.032 7.1976Zm20.169.0827c-.454-.455-.949-.7859-1.567-.9927.453-.1655.783-.4137 1.031-.7033.247-.2895.495-.7446.701-1.3237.206-.5791.495-.9927.825-1.2823.33-.2481.866-.3723 1.567-.3723h.206v-2.7715c-1.526 0-2.639.0828-3.34.2482-.702.1655-1.238.4137-1.526.7446-.33.3723-.619.9514-.949 1.7374-.412 1.1168-.742 1.7787-.949 1.9855-.206.2482-.495.3723-.825.3723v-4.9225H148.8v13.0715h4.124v-5.2121c.372 0 .66.0828.867.2896.206.2069.495.7032.907 1.4891l1.608 3.392h4.661l-1.815-3.5574c-.453-.9928-.948-1.696-1.402-2.1924Zm4.207-4.0952h1.65c-.042.3723-.165.7447-.372 1.0342-.247.2896-.66.5791-1.278.8687l.742 1.4478c.99-.4137 1.691-.9515 2.104-1.5306.412-.5791.618-1.3651.618-2.3578v-2.6888h-3.464v3.2265Zm4.578-3.2265v3.2265h1.65c-.042.3723-.165.7447-.372 1.0342-.247.2896-.659.5791-1.278.8687l.742 1.4478c.99-.4137 1.692-.9515 2.104-1.5306.413-.5791.619-1.3651.619-2.3578v-2.6888h-3.465Zm-81.211 1.6133-.7424-1.4478c-.9899.4137-1.6911.9514-2.1035 1.5305-.4125.5791-.6187 1.3651-.6187 2.3578v2.6888h3.4646V27.843h-1.6498c.0412-.3723.1649-.7445.3712-1.0342.2475-.2895.6599-.5791 1.2786-.8686Zm-4.5782 0-.7424-1.4478c-.9899.4137-1.6911.9514-2.1035 1.5305-.4125.5791-.6187 1.3651-.6187 2.3578v2.6888h3.4646V27.843H79.096c.0412-.3723.1649-.7445.3712-1.0342.2474-.2895.6599-.5791 1.2786-.8686Z"/>
	<path fill="#fff" d="M46.1413 32.6008h-7.5478c-.7012 0-1.1961-.7032-.9487-1.3643l4.2483-11.4591c.2887-.7032.9486-1.1994 1.7322-1.1994h4.8669c.8662 0 1.6498-.537 1.9386-1.3655l1.526-4.1773h-7.1353l-1.1962 2.9779c-.2474.6214-.8661 1.0344-1.526 1.0344h-4.7432c-.9486 0-1.8147.5792-2.1447 1.4896L30.097 32.3119c-.3712.9513.3712 1.9857 1.4024 1.9857l13.817.0409.8249-1.7377Zm20.0862-15.6364-13.817-.0409-.8661 1.7786h7.5478c.7011 0 1.1961.7032.9486 1.3656l-4.2069 11.3747c-.2888.7032-.9488 1.2006-1.7323 1.2006h-4.8669c-.8662 0-1.6499.5371-1.9386 1.3643l-1.526 4.1786h7.1353l1.1962-2.9792c.2474-.6201.8661-1.0344 1.526-1.0344h4.7432c.9486 0 1.8148-.578 2.1447-1.4884l5.0731-13.7747c.4125-.9513-.33-1.9448-1.3611-1.9448Zm-22.4372 2.276h4.9082c.7837 0 1.526-.4961 1.8147-1.1994l1.9385-4.9636h.8662l-2.0622 5.2117c-.4125 1.0344-1.4436 1.7376-2.5572 1.7376h-4.9082c-.2475 0-.5361.2072-.6187.4552l-3.9594 10.5897c0 .0831 0 .124.0412.1649.0412.0422.0825.0831.165.0831h7.4241l-.4125.7864h-7.0116c-.33 0-.6599-.1662-.8249-.4143-.2062-.248-.2474-.6201-.1237-.9104l3.9595-10.5896c.2062-.578.7423-.9513 1.361-.9513Zm3.4646 13.9819c.2887-.7033 1.0311-1.2007 1.8148-1.2007h4.9494c.6186 0 1.1548-.3721 1.361-.9513l3.9596-10.5896c.1237-.289.0824-.6611-.1238-.9092-.165-.2493-.4949-.4142-.8249-.4142h-7.0116l-.4124.7863h7.424c.0825 0 .1238.0409.165.0819.0412.0422.0412.0831.0412.1662l-3.9595 10.5896c-.0825.2481-.3712.4552-.6186.4552h-4.9494c-1.1137 0-2.1447.7033-2.5572 1.7364l-2.0622 5.213h.8661l1.9385-4.9636Z"/>
</svg>