<svg xmlns="http://www.w3.org/2000/svg" viewBox="0 0 200 50">
	<path class="bg-logo" fill="url(#a)" d="M0 0h200v50H0V0Z"/>
  	<linearGradient id="a" x1="-.3" x2="139.9" y1="27" y2="27" gradientTransform="matrix(1 0 0 -1 0 52)" gradientUnits="userSpaceOnUse">
  		<stop offset="0" stop-color="#cc2445"/>
  		<stop offset=".1" stop-color="#cd213f"/>
  		<stop offset=".6" stop-color="#ce1930"/>
  		<stop offset="1" stop-color="#cf162b"/>
  	</linearGradient>
	<g fill="#fff">
		<path d="M102.4 32.2c.3.3.5.3.6.1l1.2-.9c.3-.1.3-.4.1-.5-.5-.9-1.3-1.4-2-1.9-1.8-1.1-4.4-1-6.3 0-3 1.8-4.1 5.7-2.3 8.7.5 1 1.3 1.8 2.3 2.3.9.6 2 .9 3.1.8 2.1 0 4.2-1 5.2-2.7.1-.1 0-.4-.1-.5l-1.2-.9c-.3-.1-.5 0-.6.1-2.1 3.2-7.4 1.5-7.2-2.3-.2-3.8 5.1-5.5 7.2-2.3ZM150 28.6h-9.3c-.3 0-.4.1-.4.4v1.4c0 .3.1.4.4.4h3.1c.3 0 .4.3.4.4v9c0 .3.1.4.4.4h1.7c.3 0 .4-.1.4-.4v-9c0-.3.1-.4.4-.4h3.1c.3 0 .4-.1.4-.4V29c0-.3-.1-.4-.4-.4ZM124.1 17.5v4.4c0 .2.2.4.4.4h1.7c.2 0 .4-.2.4-.4V10.6c0-.2-.2-.4-.4-.4h-1.7c-.2 0-.4.2-.4.4v3.8c0 .2-.2.4-.4.4h-4.5c-.2 0-.4-.2-.4-.4v-3.8c0-.2-.2-.4-.4-.4h-1.7c-.2 0-.4.2-.4.4v11.3c0 .2.2.4.4.4h1.8c.2 0 .4-.2.4-.4v-4.4c0-.2.2-.4.4-.4h4.4c.2 0 .4.2.4.4ZM129.8 22.2h1.7c.3 0 .4-.1.4-.4v-4.7c0-.4.5-.5.8-.3l4.1 5c.2.3 2 .1 2.5.2.4 0 .6-.4.4-.6l-4.5-5.4c-.1-.1-.1-.4 0-.5l3.8-4.7c.1-.3 0-.6-.4-.6h-1.9c-.1 0-.3 0-.4.1l-3.7 4.6c-.3.3-.8.1-.8-.3v-4c0-.3-.1-.4-.4-.4h-1.7c-.3 0-.4.1-.4.4v11.3c0 .3.1.4.4.4ZM93.2 22.1h4.6c.8 0 1.4-.3 2-.5 1.8-.8 2.5-3.5 1.4-5.1-.3-.5-.8-1-1.4-1.3-1-.5-3.1-.4-4.2-.4-.3 0-.4-.1-.4-.4v-1.7c0-.3.1-.4.4-.4h4.7c.3 0 .4-.1.4-.4v-1.4c0-.3-.1-.4-.4-.4h-7.2c-.3 0-.4.3-.4.3v11.3c0 .3.1.4.4.4Zm2.1-4.6c0-.3.1-.4.4-.4.8 0 2.8-.2 3.3.4.8.4.6 1.8 0 2.3-.6.6-2.5.3-3.3.4-.3 0-.4-.1-.4-.4v-2.3ZM106.3 19.5h4.5c.1 0 .4.1.4.3l.9 2.2c0 .1.3.3.4.3h1.8c.3 0 .5-.3.4-.5l-4.4-11c0-.2-.3-.3-.5-.3h-2.1c-.1 0-.3 0-.5.3s-4.4 11.1-4.4 11.1c-.1.3.1.5.4.5h1.5c.1 0 .4-.1.4-.3l.9-2.2c0-.1.3-.3.4-.3Zm.9-2.4.8-2.3c.3-.6.8-2 .9-2.7.3 1.3 1.1 3.6 1.5 5 .1.3-.1.5-.4.5h-2.4c-.3 0-.5-.3-.4-.5ZM112.9 28.9c0-.1-.3-.3-.4-.3h-2.2c-.2 0-.4.1-.5.3L105.5 40c-.1.3.1.5.4.5h1.5c.1 0 .4-.1.4-.3l.9-2.2c0-.1.3-.3.4-.3h4.5c.1 0 .4.1.4.3l.9 2.2c0 .1.3.3.4.3h1.8c.3 0 .5-.3.4-.5L113 28.9Zm-.2 7.2h-2.4c-.3 0-.5-.3-.4-.5l.8-2.3c.3-.6.8-2 .9-2.7.3 1.3 1.1 3.6 1.5 5 .1.3-.1.5-.4.5ZM126.2 29.1c-1.4-.8-4.8-.4-6.4-.5-.3 0-.4.1-.4.4v11.4c0 .3.1.4.4.4h1.7c.3 0 .4-.1.4-.4v-3.5c0-.3.1-.4.4-.4h1.7c3.3.2 5.4-3.2 3.8-6-.4-.6-.9-1-1.5-1.4Zm-.9 4.6c-.3.4-.8.4-1.3.4h-1.7c-.3 0-.4-.1-.4-.4V31c0-.3.1-.4.4-.4h1.7c.5 0 .9.3 1.3.5.7.7.7 1.9 0 2.6ZM136 28.9c0-.1-.3-.3-.4-.3h-2.2c-.3 0-.4.1-.5.3L128.5 40c-.1.3.1.5.4.5h1.5c.1 0 .4-.1.4-.3l.9-2.2c0-.1.3-.3.4-.3h4.5c.1 0 .4.1.4.3l.9 2.2c0 .1.3.3.4.3h1.8c.3 0 .5-.3.4-.5L136 28.9Zm-.3 7.2h-2.4c-.3 0-.5-.3-.4-.5l.8-2.3c.3-.6.8-2 .9-2.7.3 1.3 1.1 3.6 1.5 5 .1.3-.1.5-.4.5ZM160.4 29.1c-1.9-1-4.5-1-6.4 0-3 1.8-4.1 5.7-2.3 8.7.5 1 1.3 1.8 2.3 2.3 1.8 1 4.6 1 6.4 0 .9-.6 1.7-1.4 2.3-2.3 1.2-1.9 1.2-4.6 0-6.4-.5-1-1.3-1.8-2.3-2.3Zm.3 7.6c-2.9 4.4-9.2.6-6.8-4.1 2.9-4.4 9.2-.6 6.8 4.1ZM174.5 35.3c-.2-.4-.7-.7-1.2-1-.3-.1-.3-.4-.1-.6 1.1-1.6.4-4-1.4-4.7-1.1-.6-4.5-.3-5.8-.4-.3 0-.4.1-.4.4v11.3c0 .3.1.4.4.4 1.5 0 5.7.3 7-.4 1.8-.8 2.5-3.3 1.4-4.9Zm-6.4-4.3c0-.2.1-.3.3-.3h1.3c1.4-.1 2 1.5 1.2 2.4-.4.5-1.8.4-2.4.4-.2 0-.4-.2-.4-.4V31Zm4.1 7.1c-.3.3-.7.3-1.3.3h-2.4c-.3 0-.4-.1-.4-.4v-2.3c0-.3.1-.4.4-.4.8 0 3.1-.3 3.7.4.7.6.6 1.8 0 2.3ZM43.4 25.6c0-9.5 7.2-17.3 16.4-18.3 0 0 .1 0 .1-.1 0 0 0-.1-.1-.1H43.4C33.2 7.1 25 15.4 25 25.5s8.3 18.4 18.4 18.4h16.4c-9.2-1-16.4-8.8-16.4-18.3Z"/>
		<path d="M62.2 9.7H61c-2.7 0-5.1.6-7.3 1.8 2.2 1.3 4.1 2.9 5.5 5 .3.4.8.8 1.4.8h13.2c.8 0 1.2-.9.8-1.5-2.9-3.7-7.4-6-12.4-6ZM73.6 33.9H60.7c-.5 0-1 .2-1.4.8-1.4 2-3.3 3.7-5.6 5 2.2 1.2 4.7 1.8 7.3 1.8h1.2c5 0 9.4-2.3 12.3-5.9.5-.6.1-1.7-.8-1.7ZM72.5 25.6c0-2.8-2.2-5-5-5s-5 2.2-5 5 2.2 5 5 5 5-2.2 5-5Z"/>
	</g>
</svg>