<svg xmlns="http://www.w3.org/2000/svg" viewBox="0 0 200 50">
	<path class="bg-logo" fill="#00447C" d="M0 0h200v50H0z"/>
	<path fill="#fff" d="M88.6536 28.73c-.1802.6755-.6249 1.8803-1.7059 3.3498-1.4018 1.5988-3.2259 2.7754-5.3033 3.4003-1.0529.3153-2.1506.473-3.2597.473-2.8375 0-5.5568-1.0528-7.6567-2.9613-.062-.0563-.0676-.1407-.0169-.2027 1.9086-2.3139 2.9557-5.2471 2.9557-8.2591 0-.5854-.0394-1.1597-.1182-1.7171-.5067-3.7833-2.6573-7.0542-5.7087-9.0753-2.0493-1.3568-4.504-2.1506-7.133-2.1506-.6306 0-1.2499.045-1.8635.1351-1.8467.2646-3.6144.9346-5.1964 1.9648-.0226.0113-.0507.0225-.0789.0225-.0393 0-.0788-.0169-.1069-.045-.0507-.0506-.0564-.1295-.0169-.1914 3.3272-4.83047 8.6194-7.88749 14.4012-8.39418C68.4141 5.02815 68.9883 5 69.5627 5c.1463 0 .2983 0 .4447.00563 5.0444.11259 9.7904 2.14498 13.3709 5.71997 3.8565 3.8508 5.9339 9.1767 5.7144 14.6208-.0507 1.1428-.1971 2.2745-.4391 3.3836Zm8.6025-13.5121h4.6839c3.153 0 5.107 1.5032 5.107 3.9127 0 2.5279-1.768 3.9804-4.859 3.9804h-8.0677V11.6598c0-.6699.5348-1.3342 1.4075-1.3342h10.3872v1.1879c0 .6699-.535 1.2948-1.408 1.2948h-7.2509v2.4096Zm.0056 5.4047h4.3463c1.599 0 2.247-.4223 2.252-1.4582 0-1.0246-.676-1.458-2.252-1.458h-4.3463v2.9162Zm26.8943-10.297h6.66c3.09 0 4.858 1.4525 4.853 3.9803 0 2.4152-1.954 3.9127-5.107 3.9127h-4.678v3.6088c0 .7037-.569 1.2836-1.356 1.2836h-1.78V11.6204c0-.715.535-1.2948 1.408-1.2948Zm1.733 5.4047h4.347c1.576 0 2.252-.4391 2.252-1.4582 0-1.0359-.653-1.4581-2.252-1.4581h-4.347v2.9163Zm-14.389-.5124h4.678c3.147 0 5.106 1.5032 5.095 3.9127 0 2.5279-1.768 3.9804-4.858 3.9804h-8.063V11.6711c0-.7094.541-1.3455 1.414-1.3455h10.387v1.1879c0 .7263-.546 1.2948-1.396 1.2948H111.5v2.4096Zm0 5.4047h4.346c1.599 0 2.246-.4223 2.252-1.4582 0-1.0246-.675-1.458-2.252-1.458H111.5v2.9162ZM97.2505 31.8429h4.6555c3.136 0 5.09 1.4919 5.09 3.896 0 2.5221-1.768 3.9634-4.842 3.9634h-8.0281V28.3074c0-.6699.5292-1.3343 1.4019-1.3343h10.3872v1.126c0 .6587-.518 1.3399-1.374 1.3512h-7.2905v2.3926Zm0 5.3822h4.3245c1.593 0 2.24-.4222 2.24-1.4525 0-1.019-.67-1.4525-2.24-1.4525h-4.3245v2.905Zm38.3845 1.126c0 .7206-.54 1.3512-1.401 1.3512v-.0056h-1.729v-5.3653h-6.638v4.0197c0 .6643-.535 1.3456-1.402 1.3456h-1.722V28.313c.005-.6474.49-1.3455 1.334-1.3455h1.79v4.8923h6.638V28.313c0-.715.513-1.3174 1.34-1.3455h1.79v11.3836Zm-21.956-11.3836h2.094l6.007 12.7292h-1.881c-.726 0-1.598-.3886-1.986-1.0979l-.952-2.0211h-5.337l-.918 1.9422c-.354.7545-1.222 1.1768-2.027 1.1768h-1.875l5.591-11.8397c.366-.7657.946-.8895 1.284-.8895Zm.618 3.9634-1.655 3.5074h3.317l-1.662-3.5074Zm33.448-3.9634h3.114l-6.487 5.2414 6.284 7.4878h-2.467c-.613 0-1.677-.2535-2.442-1.1768l-3.643-4.4813-1.594 1.2892v3.0233c0 .7263-.534 1.3456-1.402 1.3456h-1.722V28.313c0-.6812.512-1.3174 1.334-1.3455h1.796v4.9712l5.084-4.1211c.523-.4279 1.238-.8501 2.145-.8501Zm-79.3758-9.948c.0563.0507.0619.1407.0112.2027-.1857.2251-.3659.4616-.5348.698-1.5595 2.1901-2.4152 4.8418-2.4152 7.5554 0 .5855.045 1.1541.1182 1.7171.2928 2.1337 1.0979 4.1042 2.297 5.7763 2.3533 3.299 6.2041 5.4497 10.5504 5.4497.6306 0 1.2499-.0451 1.8635-.1352 1.8466-.2702 3.6144-.9345 5.1963-1.9648l.0007-.0003c.028-.0111.0559-.0222.0838-.0222.0395 0 .0788.0169.107.0451.0507.0506.0563.1238.0169.1857C82.0048 41.8304 75.9808 45 69.5459 45c-.1464 0-.2984 0-.4448-.0056-.4223-.0113-.8389-.0338-1.2555-.0676-4.5771-.3941-8.8389-2.3758-12.1155-5.6524-3.8509-3.8508-5.9339-9.1823-5.7143-14.6265.045-1.1315.197-2.2688.4391-3.3779.1802-.6755.625-1.8803 1.7059-3.3498 1.4018-1.5932 3.2259-2.7754 5.2921-3.3891 1.0528-.3153 2.1506-.4729 3.2597-.4729 2.6066 0 5.1119.8895 7.133 2.5109.136.1105.2657.2243.3962.3389.0423.0371.0847.0743.1274.1115Z"/>
</svg>