<svg xmlns="http://www.w3.org/2000/svg" viewBox="0 0 200 50">
	<path class="bg-logo" fill="#044b98" d="M0 0h200v50H0V0Z"/>
	<path fill="#fff" d="M138 13.6c-.4-.4-.8-.7-1.3-1-.8-.4-1.7-.6-2.6-.6-1.6 0-2.9.5-3.9 1.6-1 1-1.6 2.3-1.6 3.8s.5 2.8 1.6 3.8c1 1 2.4 1.6 3.9 1.6H135c.2 0 .3 0 .5-.1.4-.1.9-.3 1.2-.5.4-.2.9-.6 1.2-.9.6-.6 1-1.2 1.3-1.9.2-.6.3-1.2.3-1.9s-.1-1.5-.4-2.1c-.3-.6-.7-1.2-1.2-1.7Zm-1.7 6.2c-.6.7-1.3 1-2.2 1s-1.6-.4-2.2-1c-.6-.7-.9-1.4-.8-2.4 0-.9.2-1.7.8-2.3.5-.6 1.3-.9 2.2-.9s.8 0 1.1.2c.4.2.8.4 1.2.8.3.3.5.6.6.9.2.4.3.9.3 1.4 0 .9-.2 1.7-.8 2.3ZM87.2 22.6l-4.4-10.5h-2.1l-4.4 10.5h2.3l1-2.3H84l1 2.3h2.4Zm-6.8-4.3 1.4-3.4 1.4 3.4h-2.8ZM73.8 21.8c.7-.5 1-1.4 1-2.4s0-1-.3-1.4c-.2-.4-.4-.7-.7-.9-.6-.5-1.5-.8-2.7-.8h-2.7v-1.8H74v-2.1h-7.9v10.4h4.8c1.2 0 2.2-.3 2.8-.8ZM68.5 18H71c1.1 0 1.6.4 1.6 1.2s-.5 1.3-1.6 1.3h-2.5V18ZM33.8 12.4C20.6 12.4 10 17.6 10 24s10.7 11.5 23.8 11.5S57.6 30.3 57.6 24 46.9 12.4 33.8 12.4ZM37.5 32h-.2l-.2.2c-7 2.9-14.5 2.1-16.6-2.8-2.1-4.9 2.4-11.3 8.8-13.9 4-1.6 8.5-2 11.9-1l-7.8 3.9-3.9 2c-3.1 1.6-6.2 3.1-9.3 4.7 8.3-2.4 14.8-1.4 17.6 7-.1 0-.3.1-.4.2Zm.5-.3c.3-1.7.6-3.3 1-5l.7-3.7c.6-2.9 1.1-5.8 1.7-8.8 2.2.6 3.9 1.8 4.7 3.6 2.1 4.5-1.5 10.7-8 13.8ZM91.9 18.4h4.2v4.2h2.3V12.2h-2.3v4.2h-4.2v-4.2h-2.3v10.4h2.3v-4.2zM111 22.7l-4.5-6 4.3-4.5H108l-4.2 4.6v-4.6h-2.3v10.5h2.3v-3.2l1.2-1.3 3.2 4.5h2.8zM120.5 19.5l1.2-1.3 3.2 4.5h2.7l-4.4-6 4.3-4.5h-2.8l-4.2 4.6v-4.6h-2.3v10.5h2.3v-3.2zM148.6 20.3c-.4.2-.9.3-1.5.3h-.6c-.2 0-.3 0-.5-.1h-.1c-.3-.2-.6-.4-.9-.7-.5-.6-.8-1.4-.8-2.3s.3-1.7.8-2.3l.2-.2c.3-.3.7-.5 1.1-.6.3 0 .6-.1.9-.1.5 0 1 .1 1.4.3.4.2.8.5 1.3.9l1.4-1.6c-.5-.5-1.2-1-1.8-1.3-.6-.3-1.3-.4-2.2-.4-1.6 0-2.8.5-3.9 1.6-1 1-1.5 2.3-1.5 3.8s.5 2.8 1.5 3.8 2.3 1.6 3.8 1.6 1.7-.2 2.4-.5c.3-.1.5-.3.7-.4.2-.1.4-.2.5-.4.2-.2.4-.3.6-.5l-1.5-1.6c-.4.4-.8.7-1.3.9ZM159.2 16.6l-2.8-4.4h-2.5v10.4h2.3v-6.7l2.9 4.3h.1l2.9-4.4v6.8h2.3V12.2h-2.5l-2.7 4.4zM176.2 21.5h.1v-.2h.1c1.1-1.1 1.6-2.4 1.6-3.9s-.5-2.8-1.6-3.8c-1-1-2.4-1.6-3.9-1.6s-2.9.5-3.9 1.6c-1 1-1.6 2.3-1.6 3.8s.5 2.8 1.6 3.8c1 1 2.4 1.6 3.9 1.6s1.9-.2 2.8-.7l.9-.6Zm-3.7-.8c-.4 0-.8 0-1.1-.2-.2 0-.3-.2-.5-.3 0 0-.2-.1-.3-.2-.1 0-.2-.2-.3-.3-.5-.7-.8-1.4-.8-2.4s0-.7.1-1c.1-.5.4-1 .7-1.3.6-.6 1.3-.9 2.2-.9s1.6.4 2.2 1c.6.6.9 1.4.9 2.3s-.2 1.7-.8 2.3c-.6.7-1.3 1-2.2 1ZM185.7 22.8c.6 0 1.1 0 1.6-.2.3 0 .6-.2.8-.3.7-.3 1.3-.7 1.8-1.3l-1.5-1.6c-.4.4-.8.7-1.3.9-.4.2-.9.3-1.5.3-.9 0-1.6-.4-2.2-1-.5-.6-.8-1.4-.8-2.3s0-1 .3-1.4c.1-.3.3-.6.6-.9.6-.7 1.3-1 2.2-1s1 .1 1.4.3c.4.2.8.5 1.3.9l1.4-1.6c-.5-.5-1.2-1-1.8-1.3-.6-.3-1.3-.4-2.2-.4-1.6 0-2.8.5-3.9 1.6-.4.4-.7.8-.9 1.3-.4.8-.6 1.6-.6 2.6 0 1.5.5 2.8 1.5 3.8s2.3 1.6 3.8 1.6ZM71.2 30.7h-1.3l-2.6 2.8v-2.8h-1v5.7h1v-1.7l.9-.9 1.9 2.5h1.2l-2.5-3.2 2.4-2.4zM74.5 30.5c-.8 0-1.6.3-2.1.8-.5.6-.8 1.3-.8 2.1v.6c.1.6.4 1 .8 1.5.3.3.6.5.9.6.3.1.7.2 1.2.2.8 0 1.6-.3 2.1-.8.5-.6.8-1.3.8-2.1s-.3-1.5-.8-2.1c-.5-.5-1.2-.8-2.1-.8Zm1.7 3.9v.2c0 .1-.2.2-.3.4-.4.4-.8.5-1.3.5s-1-.2-1.3-.6c-.4-.4-.5-.8-.5-1.4v-.6c0-.3.2-.6.5-.8.4-.4.8-.5 1.3-.5s1 .2 1.3.6.5.8.5 1.4 0 .6-.2.9ZM81.3 31.5c.5 0 1.1.2 1.6.7l.6-.7c-.3-.3-.6-.5-1-.7-.3-.2-.7-.2-1.2-.2-.8 0-1.5.3-2.1.8-.5.5-.8 1.3-.8 2.1s.2 1.5.8 2.1c.5.5 1.2.8 2 .8s.9 0 1.3-.2c.3-.1.7-.4 1-.7l-.6-.7-.4.4c-.1 0-.2.1-.3.2-.2.1-.5.2-.8.2-.5 0-1-.2-1.3-.6s-.5-.8-.5-1.4.2-1 .5-1.4c.4-.4.8-.5 1.3-.5ZM87.2 33.3l-1.7-2.6h-1v5.5h.9v-4l1.8 2.6 1.8-2.6v4h.9v-5.5h-1l-1.7 2.6zM96.2 31.4c-.5-.5-1.2-.8-2.1-.8s-1.6.3-2.1.8c-.5.6-.8 1.3-.8 2.1v.7c0 .4.3.8.5 1.1l.1.1.1.1c.3.3.7.6 1.2.7h.9c.8 0 1.6-.3 2.1-.8.5-.6.8-1.3.8-2.1s-.3-1.5-.8-2.1Zm-.3 2.4v.3c0 .3-.2.5-.5.8-.2.2-.5.4-.8.5H94c-.3 0-.6 0-.8-.2-.2-.1-.4-.2-.5-.4-.4-.4-.5-.8-.5-1.4s.2-1 .5-1.4c.4-.4.8-.5 1.3-.5s1 .2 1.3.6c.4.4.5.8.5 1.4v.3ZM99.3 32.3c0-.1.1-.2.2-.3.4-.4.8-.5 1.3-.5s1.1.2 1.6.7l.6-.7c-.2-.2-.3-.3-.5-.4-.2-.1-.3-.2-.5-.3-.3-.2-.7-.2-1.2-.2-.8 0-1.5.3-2.1.8-.5.5-.8 1.3-.8 2.1s.2 1.5.8 2.1c.5.5 1.2.8 2 .8h.5c.2 0 .5-.1.7-.2.3-.1.7-.4 1-.7l-.6-.7c-.2.2-.5.4-.7.5-.1 0-.2.1-.4.1h-.5c-.2 0-.5 0-.7-.1-.3-.1-.5-.3-.7-.5-.4-.4-.5-.8-.5-1.4v-.6c0-.2.1-.4.2-.5ZM110.2 31.2s-.1 0-.2-.1h-.1s-.2 0-.3-.1h-3.2v5.6h1v-1.8h1.1c.6 0 1.2-.1 1.6-.5.4-.3.6-.8.6-1.4s-.2-1-.5-1.4Zm-.7 2.1c-.2.2-.5.3-.8.3h-1.2v-2h1.2c.4 0 .7 0 .9.2.1.1.2.3.3.4v.3c0 .3 0 .5-.3.7ZM113.3 30.6l-2.5 5.6h1.1l.5-1.3h2.7l.5 1.3h1l-2.5-5.6h-.9Zm-.6 3.4 1-2.2 1 2.2h-1.9ZM121.5 33.3c-.1-.1-.3-.2-.5-.3-.2 0-.3-.1-.5-.1h-2.1v-1.3h3.2v-.9h-4.2v5.6h2.5c.7 0 1.2-.1 1.5-.4.4-.3.5-.7.5-1.3V34c0-.3-.2-.5-.5-.7Zm-.7 1.9c-.2.1-.5.2-1 .2h-1.3v-1.7h1.5c.8 0 1.2.3 1.2.8s0 .5-.3.7ZM127 30.8c-.1 0-.2 0-.3-.1h-.8c-.8 0-1.6.3-2.1.8-.5.6-.8 1.3-.8 2.1v.4c0 .4.1.7.3.9.1.3.3.5.5.7.5.5 1.2.8 2.1.8s1.6-.3 2.1-.8c.3-.3.5-.6.6-.9.1-.3.2-.7.2-1.1 0-.8-.3-1.5-.8-2.1-.3-.3-.6-.5-.9-.6Zm.2 4.1c-.3.3-.6.5-1 .5h-.2c-.3 0-.6 0-.9-.3 0 0-.2-.1-.3-.2h-.1c-.1-.2-.2-.4-.3-.5-.1-.3-.2-.6-.2-.9 0-.5.2-1 .5-1.4V32h.1s.2 0 .3-.1h.7c.5 0 1 .2 1.3.6.4.4.5.8.5 1.4s-.2 1-.5 1.4ZM133.8 30.7h-4.6v.9h1.8v4.6h1v-4.6h1.8v-.9zM136.1 30.6l-2.5 5.6h1.1l.5-1.3h2.7l.5 1.3h1l-2.5-5.6h-.9Zm-.6 3.4 1-2.2 1 2.2h-1.9ZM141.3 33.9h2.8V33h-2.8v-1.5h3.2v-.8h-4.1v5.5h4.1v-.8h-3.2v-1.5zM145.3 31.6h1.7v4.6h1.1v-4.6h1.7v-.9h-4.5v.9zM157.8 30.7h-3.9v.8c0 1.7-.2 3-.7 3.9h-.5v2.1h.8v-1.2h4.1v1.2h.8v-2.1h-.5v-4.7Zm-1 4.6h-2.6c.4-.8.6-1.9.6-3.2v-.7h2v3.8ZM160.2 31.8v1.7c0 .5-.1.8-.2 1.1v.3c0 .1 0 .2-.2.3-.1.2-.2.2-.3.3h-.6v.8h-.1 1.5s.2-.1.3-.2c0-.1.2-.2.3-.4.2-.3.3-.8.4-1.3v-2.7h1.9v4.7h1v-5.6h-3.8v1.1ZM166 31c-.1 0-.2.1-.3.2-.2.2-.3.4-.4.6 0 .2-.1.4-.1.7 0 .4.1.8.4 1.1.2.3.5.5 1 .6l-1.5 2.1h1.2l1.4-1.9h1.2v1.9h.9v-5.6h-2.5c-.5 0-.9.1-1.2.3Zm2.8.5v1.9h-1.5c-.4 0-.7 0-.8-.2V32.6c0-.3.1-.5.3-.7.2-.2.5-.2.8-.2h1.5ZM177.1 33.4c.3-.2.6-.4.7-.7v-.6c0-.4-.1-.7-.4-1-.3-.3-.8-.5-1.5-.5h-2.5v5.7h2.5c.4 0 .8 0 1.1-.2h.2s.2 0 .3-.2l.3-.3s0-.1.1-.2c.1-.2.2-.4.2-.7 0-.7-.4-1.2-1.1-1.4Zm-2.5-1.9h1.4c.3 0 .5 0 .7.2.2.1.2.3.2.5s-.1.5-.3.6c-.1 0-.3.1-.5.2h-1.6v-1.5Zm2.5 3.6-.1.1c-.2.1-.4.2-.8.2h-1.6v-1.5h1.6c.8 0 1.2.2 1.2.7s0 .4-.2.5ZM181.2 30.6l-2.5 5.6h1.1l.5-1.3h2.7l.5 1.3h1l-2.5-5.6h-.9Zm-.6 3.4 1-2.2 1 2.2h-1.9ZM189 35s-.2.1-.3.2c0 0-.2 0-.3.1h-.5c-.5 0-1-.2-1.3-.6-.2-.2-.3-.4-.4-.7 0-.2-.1-.4-.1-.7 0-.5.2-1 .5-1.4.4-.4.8-.5 1.3-.5s.6 0 .9.2c.2.1.4.3.6.5l.6-.7c-.3-.3-.6-.5-1-.7-.3-.2-.7-.2-1.2-.2-.8 0-1.5.3-2.1.8-.5.5-.8 1.3-.8 2.1s.2 1.5.8 2.1c.5.5 1.2.8 2 .8h.8c.2 0 .3 0 .4-.2.2 0 .3-.2.5-.3.2-.1.3-.3.5-.4l-.6-.7-.4.4Z"/>
</svg>