<svg xmlns="http://www.w3.org/2000/svg" viewBox="0 0 200 50">
	<path class="bg-logo" fill="#006DF0" d="M0 0h200v50H0z"/>
	<path fill="#fff" d="M65.4001 23.1998c.7.3 1.3.6 1.9 1.2.5.5.9999 1.1 1.1999 1.8.3.7.4001 1.4.4001 2.2 0 .8-.2001 1.5-.4001 2.2-.4.7-.6999 1.2-1.1999 1.8-.5.5-1.2.9-1.9 1.2-.7.2-1.5001.4-2.4001.4h-8.7v-17.9h13.3v3.5H58v3.2h5c.8 0 1.6001.1 2.4001.4Zm-.6 3.5c-.4-.4-1.1-.5-1.9-.5h-5v4.5h5c.8 0 1.4-.2 1.9-.5s.6999-.9.6999-1.6c0-1-.2999-1.5-.6999-1.9Zm11 7.2h-3.5v-17.8h3.5v7.5l6.1999-7.5h4.4001l-7.1 8.6 8.6 9.3h-4.6l-7.5-8v7.9Zm17.5-.5c-1.2-.4-2.1-1.2-2.9-2-.8-.8-1.5-1.8-2-2.9-.4-1.2-.7001-2.3-.7001-3.6 0-1.2.3001-2.5.7001-3.6.4-1.2 1.2-2.1 2-2.9.8-.8 1.8-1.5 2.9-2 1.1-.4 2.2999-.6 3.6999-.6 1 0 2.0001.2 2.9001.4.8999.4 1.7999.7 2.5999 1.3.7.5 1.4 1.2 2 2 .5.8 1 1.7 1.2 2.6h-3.9c-.2-.4-.4-.9-.7-1.2-.4-.4-.7-.6-1.1999-.9-.4-.3-.9001-.4-1.3001-.5-.4-.1-1-.2-1.5-.2-.9 0-1.5999.2-2.2999.4s-1.3001.7-1.8001 1.2-.8999 1.2-1.1999 1.8c-.3.7-.4 1.4-.4 2.2 0 .8.1 1.5.4 2.2.3.7.5999 1.2 1.1999 1.8.6.6 1.1001.9 1.8001 1.2.6.3 1.3999.4 2.2999.4.5 0 1-.1 1.5-.2.4-.1.9001-.4 1.3001-.5.3999-.3.7999-.5 1.1999-.9.4-.4.5-.7.7-1.2h3.9c-.3 1-.6 1.8-1.2 2.6-.5.8-1.2 1.4-2 2-.8.5-1.6 1-2.5999 1.3-.9.4-1.9001.4-2.9001.4-1.4.2-2.6999 0-3.6999-.6Zm22.1999-9.6v-5.8h8.5v-1.8h-10.4v17.6h6.2c3.4 0 5.9-1.7 5.9-5 0-3.4-2.5-5.1-5.9-5.1l-4.3.1Zm8.3 5c0 2.1-1.4 3.3-4 3.3h-4.3v-6.6h4.3c2.6 0 4 1.2 4 3.3Zm2.8 5.1h2l2.4-5.4h8.4l2.5 5.4h2l-7.9-17.6h-1.5l-7.9 17.6Zm8.6-15 3.5 7.7h-6.9l3.4-7.7Zm11.2 15h1.9v-8.1h10.3v8.1h1.9v-17.7h-1.9v7.7h-10.3v-7.7h-1.9v17.7Zm30.8 0h2.8l-10.8-9.3 8.7-8.4h-2.6l-8.1 7.7v-7.7h-1.9v17.6h1.9v-8.5l10 8.6Z"/>
	<path fill="url(#a)" d="M33.6 38.6004c7.5111 0 13.6-6.0889 13.6-13.6s-6.0889-13.6-13.6-13.6-13.6 6.0889-13.6 13.6 6.0889 13.6 13.6 13.6Z"/>
  	<linearGradient id="a" x1="33" x2="33" y1="38.8713" y2="13.6064" gradientUnits="userSpaceOnUse">
  		<stop stop-color="#4581E9"/>
  		<stop offset=".4792" stop-color="#80ACF0"/>
  		<stop offset="1" stop-color="#fff"/>
  	</linearGradient>
	<path fill="url(#b)" d="M33.6 38.6004c7.5111 0 13.6-6.0889 13.6-13.6s-6.0889-13.6-13.6-13.6-13.6 6.0889-13.6 13.6 6.0889 13.6 13.6 13.6Z"/>
  	<linearGradient id="b" x1="51.8111" x2="28.554" y1="39.0915" y2="21.1885" gradientUnits="userSpaceOnUse">
  		<stop stop-color="#4581E9"/>
  		<stop offset="1" stop-color="#4581E9" stop-opacity="0"/>
  	</linearGradient>
	<path fill="url(#c)" d="M33.6001 11.5c-2.5 0-4.9.7-6.9 1.9-.2.1-.4.3-.5.4-4.6 4.1-4 11.5 1.1 16.5s12.9 5.8 17.5 1.7c.5-.4 1-1 1.3-1.5.7-1.7 1.1-3.5 1.1-5.4 0-7.6-6.1-13.6-13.6-13.6Z"/>
  	<radialGradient id="c" cx="0" cy="0" r="1" gradientTransform="matrix(-26.93959128 -19.57706935 27.72947372 -38.1579426 49.1023 32.5112)" gradientUnits="userSpaceOnUse">
  		<stop offset=".0969745" stop-color="#4581E9"/>
  		<stop offset=".4599" stop-color="#80ACF0"/>
  		<stop offset=".7942" stop-color="#F0F6FD"/>
  	</radialGradient>
	<path fill="url(#d)" d="M46.0001 24.6004c.6-.9.8-2 .7-3.1-1-3.6-3.4-6.6-6.5-8.4-.1-.1-.2-.1-.3-.2-1.9-1-4-1.5-6.3-1.5-1.9 0-3.7.4-5.3 1.1-.4.4-.9.8-1.2 1.3-2.1 3.2.4 8.3 5.6 11.2 5.1 3.1 11.1 2.8 13.3-.4Z"/>
  	<radialGradient id="d" cx="0" cy="0" r="1" gradientTransform="matrix(-29.53164109 2.00756937 -2.39371031 -35.21183123 61.987 15.5304)" gradientUnits="userSpaceOnUse">
  		<stop stop-color="#4581E9"/>
  		<stop offset=".5368" stop-color="#87B1F0"/>
  		<stop offset=".8057" stop-color="#CCE0FD"/>
  		<stop offset="1" stop-color="#F0F6FD"/>
  	</radialGradient>
</svg>