<svg xmlns="http://www.w3.org/2000/svg" viewBox="0 0 200 50">
	<path class="bg-logo" fill="#ED1C24" d="M0 0h200v50H0z"/>
	<path fill="#F58220" d="M108.24 7.04199c.938 5.20591-4.376 15.27151-13.4144 24.62671-10.7104 11.0924-22.5909 16.9849-26.543 13.17-1.7732-1.7134-1.6478-5.0985.0059-9.3133-1.0925 3.3551-.9672 6.0059.6149 7.3909 3.988 3.4985 15.7373-2.2925 26.2446-12.9372 8.591-8.6984 13.689-17.9401 13.092-22.93711Z"/>
	<path fill="#fff" d="M80.4794 22.5759c0 .4239-.0596.806-.1731 1.1523-.1194.3462-.2806.6507-.4836.9134-.2089.2627-.4537.4895-.7403.6806-.2865.191-.6029.3463-.9433.4716-.3462.1254-.7104.2149-1.0984.2747-.3881.0597-.8239.0895-1.3015.0895h-3.1761c-.203 0-.3762-.0597-.5134-.1791-.1373-.1194-.209-.3164-.209-.5851V14.9939c0-.2686.0717-.4656.209-.585.1372-.1195.3104-.1791.5134-.1791h2.997c.7283 0 1.3492.0596 1.8567.185.5074.1254.9314.3105 1.2835.5553.3463.2507.615.5612.8001.9432.185.3821.2746.8298.2746 1.3433 0 .2866-.0359.5612-.1135.8179-.0716.2567-.179.4896-.3224.6985-.1432.2089-.3163.394-.5193.5552-.209.1612-.4418.2866-.7045.3881.3403.0596.6507.1672.9373.3223.2866.1553.5373.3523.7463.597.2149.2448.382.5254.5014.8538.1134.3164.1791.6806.1791 1.0865Zm-3.1343-5.0208c0-.2389-.0357-.4538-.1134-.6448-.0716-.191-.185-.3463-.3343-.4776-.1492-.1253-.3343-.2209-.5553-.2925-.2268-.0657-.5253-.1015-.9014-.1015h-1.2239v3.0985h1.3552c.3523 0 .6269-.0418.8358-.1254.209-.0836.3821-.197.5195-.3403.1372-.1433.2387-.3105.3104-.5075.0717-.191.1074-.394.1074-.6089Zm.615 5.1044c0-.2746-.0478-.5254-.1374-.7403-.0895-.2208-.2268-.4-.4059-.5492-.1791-.1492-.406-.2627-.6806-.3403-.2746-.0776-.6388-.1195-1.0806-.1195h-1.4388v3.3911h1.7492c.3403 0 .6209-.0358.8537-.1075.2329-.0716.4299-.1731.5971-.3104.1672-.1373.2985-.3104.394-.5135.1015-.2089.1493-.4477.1493-.7104Zm9.964 2.5433c0 .1791-.006.3283-.0239.4477-.0179.1195-.0358.215-.0716.2926-.0299.0716-.0717.1254-.1134.1611-.0478.0359-.0956.0478-.1493.0478h-5.988c-.203 0-.3761-.0597-.5134-.1791-.1374-.1193-.2089-.3164-.2089-.585v-10.394c0-.2686.0715-.4656.2089-.585.1373-.1195.3104-.1791.5134-.1791h5.9522c.0537 0 .1015.0179.1493.0477.0417.0299.0775.0836.1134.1612.0298.0776.0537.1731.0716.2925.0179.1194.0239.2747.0239.4538 0 .1731-.006.3164-.0239.4357-.0179.1195-.0358.215-.0716.2926-.0298.0716-.0657.1254-.1134.1612-.0419.0359-.0896.0478-.1493.0478h-4.2567v2.9134h3.6059c.0538 0 .1075.0179.1493.0477.0477.0358.0836.0836.1134.1553.0299.0716.0538.1671.0717.2865.0179.1194.0239.2687.0239.4358 0 .1791-.006.3284-.0239.4418-.0179.1194-.0359.209-.0717.2806-.0298.0717-.0716.1194-.1134.1493-.0478.0298-.0955.0477-.1493.0477h-3.6059v3.3612h4.2925c.0537 0 .1075.0179.1493.0478.0478.0357.0835.0895.1134.1612.0299.0716.0537.1731.0716.2925.0179.1313.0239.2806.0239.4597Zm8.1492-2.6269c0 .6269-.1193 1.1762-.3521 1.6478-.2329.4717-.5493.8657-.9493 1.1821-.4.3164-.8657.5552-1.403.7164s-1.1045.2388-1.7134.2388c-.412 0-.794-.0358-1.1463-.1015-.3522-.0657-.6627-.1492-.9373-.2447-.2686-.0956-.4955-.1971-.6746-.2986-.1791-.1015-.3104-.197-.394-.2746-.0777-.0776-.1373-.197-.1732-.3462-.0358-.1493-.0477-.3642-.0477-.6508 0-.191.006-.3523.0179-.4776.0119-.1314.0298-.2329.0597-.3104.0298-.0776.0656-.1374.1134-.1732.0478-.0358.1015-.0478.1613-.0478.0835 0 .2089.0478.3641.1493.1552.1015.3582.2149.603.3343.2447.1254.5372.2329.8776.3344.3403.1014.7343.1492 1.1821.1492.2925 0 .5612-.0358.794-.1075.2328-.0716.4299-.173.597-.2985.1612-.1313.2865-.2865.3761-.4776.0836-.191.1314-.4.1314-.6388 0-.2686-.0717-.5015-.221-.6985-.1492-.191-.3402-.3642-.5731-.5134-.2387-.1493-.5074-.2926-.8059-.4239-.2985-.1313-.609-.2746-.9314-.4179-.3224-.1492-.6268-.3164-.9313-.5015-.2985-.1851-.5672-.4119-.8059-.6746-.2389-.2627-.4299-.5672-.5732-.9254-.1492-.3581-.2209-.7821-.2209-1.2835 0-.5731.1075-1.0746.3164-1.5045.215-.4358.4956-.794.8598-1.0805.3581-.2866.782-.5016 1.2716-.6389.4895-.1433 1.0089-.2149 1.5521-.2149.2806 0 .5672.0239.8478.0656.2806.0419.5493.1015.7941.1732.2447.0717.4656.1552.6567.2508.191.0895.3164.1671.3761.2328.0597.0597.1015.1134.1254.1552.0238.0418.0417.1015.0537.1732.0179.0715.0239.1611.0298.2686.006.1075.012.2388.012.4 0 .1791-.006.3283-.012.4537-.0119.1254-.0238.2269-.0478.3045-.0238.0776-.0536.1373-.0895.1732-.0418.0357-.0955.0536-.1611.0536-.0657 0-.1732-.0417-.3225-.1313-.1492-.0836-.3283-.1791-.5432-.2806-.215-.1015-.4657-.191-.7463-.2746-.2806-.0836-.5911-.1253-.9313-.1253-.2627 0-.4955.0298-.6925.0955-.1971.0656-.3582.1551-.4956.2686-.1313.1135-.2328.2507-.2925.4119-.0656.1612-.0956.3284-.0956.5075 0 .2627.0717.4955.2149.6865.1434.1911.3404.3642.5792.5135.2447.1492.5194.2925.8238.4238.3046.1314.621.2747.9373.418.3225.1492.6329.3164.9374.5014.3044.1851.5791.412.8179.6747s.4358.5671.5791.9194c.1492.3642.2208.782.2208 1.2596Zm8.8297-7.3551c0 .1791-.006.3284-.023.4537-.019.1254-.036.2269-.073.3045-.029.0776-.071.1314-.113.1731-.048.0359-.095.0538-.149.0538h-2.985v9.6118c0 .0597-.018.1194-.06.1672-.041.0478-.108.0895-.197.1193-.09.03-.215.0538-.376.0717-.155.0179-.352.0299-.585.0299-.233 0-.4298-.012-.5851-.0299-.1552-.0179-.2805-.0417-.376-.0717-.0896-.0298-.1612-.0715-.1971-.1193-.0418-.0478-.0597-.1015-.0597-.1672v-9.6118H96.139c-.0596 0-.1134-.0179-.1551-.0538-.0419-.0358-.0777-.0955-.1135-.1731-.0298-.0776-.0537-.1791-.0716-.3045-.018-.1253-.0239-.2806-.0239-.4537 0-.185.0059-.3403.0239-.4716.0179-.1314.0358-.2329.0716-.3105.0299-.0776.0657-.1313.1135-.1672.0417-.0358.0955-.0477.1551-.0477h8.406c.054 0 .108.0179.149.0477.048.0359.084.0896.113.1672.031.0776.054.1791.073.3105.011.1313.023.2866.023.4716ZM79.3213 38.946c0 .191-.0059.3522-.0238.4776-.018.1253-.0419.2328-.0717.3104-.0359.0776-.0716.1373-.1253.1731-.0478.0358-.1016.0538-.1612.0538h-6.406c-.2149 0-.4-.0657-.5492-.191-.1493-.1255-.2209-.3344-.2209-.6269V28.0266c0-.2866.0716-.4955.2209-.6268.1492-.1314.3284-.1911.5492-.1911h6.3641c.0598 0 .1135.0179.1553.0478.0478.0358.0836.0895.1194.1731.0358.0836.0597.1851.0716.3164.0179.1254.0239.2926.0239.4896 0 .1851-.006.3403-.0239.4657-.0179.1253-.0417.2328-.0716.3104-.0358.0776-.0716.1373-.1194.1732-.0477.0357-.1015.0536-.1553.0536h-4.5552v3.1164h3.8508c.0597 0 .1134.0179.1612.0538.0477.0358.0896.0896.1253.1671.0358.0776.0598.1791.0717.3045.0179.1254.0239.2866.0239.4657 0 .1911-.006.3462-.0239.4717-.0179.1253-.0418.2268-.0717.2984-.0357.0777-.0716.1314-.1253.1612-.0478.0359-.1015.0478-.1612.0478h-3.8508v3.594h4.5971c.0596 0 .1134.0179.1612.0538.0477.0357.0894.0955.1253.173.0358.0776.0597.1851.0717.3105.0119.1373.0238.2985.0238.4896Zm7.4267-10.6746c0 .197-.0059.3642-.0238.4955-.0179.1374-.0418.2388-.0777.3224-.0358.0776-.0776.1373-.1253.1791-.0478.0418-.1015.0597-.1553.0597h-4.1671v3.4268h3.9104c.0597 0 .1135.018.1552.0478.0479.0358.0896.0896.1254.1672.0359.0775.0597.1851.0776.3164.0179.1313.024.2985.024.4955s-.0061.3642-.024.4955c-.0179.1314-.0417.2388-.0776.3224-.0358.0836-.0775.1492-.1254.1851-.0477.0358-.1014.0537-.1552.0537h-3.9104v4.7463c0 .0716-.0179.1372-.0596.185-.0419.0537-.1076.0956-.2091.1314-.1014.0357-.2328.0657-.3999.0836-.1672.0178-.3762.0298-.6329.0298-.2507 0-.4596-.012-.6268-.0298-.1672-.0179-.2985-.0479-.4-.0836-.1015-.0358-.1672-.0777-.209-.1314-.0417-.0537-.0656-.1134-.0656-.185V28.0266c0-.2866.0716-.4955.2209-.6268.1492-.1254.3283-.1911.5492-.1911h5.9999c.0598 0 .1135.0179.1553.0537.0477.0359.0895.0955.1253.1791.0359.0836.0598.1911.0777.3284.0179.1373.0238.3045.0238.5015Zm7.4269 0c0 .197-.006.3642-.0239.4955-.0179.1374-.0418.2388-.0776.3224-.0358.0776-.0776.1373-.1254.1791-.0477.0418-.1015.0597-.1552.0597h-4.1671v3.4268h3.9104c.0597 0 .1134.018.1552.0478.0478.0358.0896.0896.1254.1672.0358.0775.0597.1851.0777.3164.0178.1313.0238.2985.0238.4955s-.006.3642-.0238.4955c-.018.1314-.0419.2388-.0777.3224-.0358.0836-.0776.1492-.1254.1851-.0477.0358-.1015.0537-.1552.0537h-3.9104v4.7463c0 .0716-.0179.1372-.0597.185-.0418.0537-.1074.0956-.2089.1314-.1015.0357-.2329.0657-.4001.0836-.1671.0178-.3761.0298-.6328.0298-.2507 0-.4597-.012-.6269-.0298-.1671-.0179-.2984-.0479-.3999-.0836-.1015-.0358-.1672-.0777-.209-.1314-.0418-.0537-.0657-.1134-.0657-.185V28.0266c0-.2866.0717-.4955.2209-.6268.1493-.1254.3284-.1911.5493-.1911h5.9999c.0597 0 .1135.0179.1552.0537.0478.0359.0896.0955.1254.1791.0358.0836.0597.1911.0776.3284.0179.1373.0239.3045.0239.5015Zm12.1671 5.1641c0 1.0568-.132 2.006-.394 2.8358-.263.8358-.657 1.5403-1.17 2.1254-.519.5791-1.164 1.0269-1.929 1.3313-.764.3045-1.647.4597-2.656.4597-.9912 0-1.8569-.1314-2.5972-.388-.7403-.2568-1.3552-.6567-1.8448-1.1881-.4895-.5314-.8597-1.206-1.1104-2.0298-.2448-.8239-.3701-1.791-.3701-2.9134 0-1.0329.1313-1.9583.394-2.7822.2627-.8238.6507-1.5283 1.1701-2.1014.5194-.5791 1.1582-1.0208 1.9284-1.3313.7641-.3105 1.6537-.4657 2.663-.4657.967 0 1.815.1254 2.555.3821.74.2567 1.355.6507 1.851 1.1821.495.5313.871 1.206 1.122 2.0119.262.812.388 1.7672.388 2.8716Zm-2.723.1373c0-.6686-.053-1.2776-.155-1.8268-.107-.5492-.286-1.0209-.537-1.4089-.251-.3881-.591-.6926-1.009-.9075-.418-.2149-.943-.3224-1.576-.3224-.6388 0-1.1701.1194-1.594.3582-.4299.2388-.7701.5612-1.0328.9612-.2627.4-.4478.8716-.5552 1.4029-.1075.5374-.1612 1.1045-.1612 1.7015 0 .6986.0537 1.3194.1552 1.8746.1074.5553.2806 1.0269.5314 1.4209.2506.394.585.6926 1.0029.9015.4179.209.9492.3105 1.5877.3105.639 0 1.17-.1194 1.594-.3523.431-.2388.771-.5552 1.033-.9671.263-.406.448-.8836.555-1.4209.108-.5374.161-1.1105.161-1.7254Zm12.454 6.0537c0 .0717-.011.1313-.042.1851-.023.0477-.089.0896-.185.1253-.095.0359-.244.0538-.436.0717-.19.0119-.447.0179-.776.0179-.275 0-.495-.006-.663-.0179-.167-.0119-.292-.0358-.387-.0717-.096-.0357-.161-.0835-.203-.1372-.042-.0538-.072-.1255-.102-.203l-1.14-2.8477c-.138-.3225-.275-.609-.406-.8598-.132-.2507-.274-.4596-.436-.6268-.161-.1672-.346-.2925-.555-.3821-.209-.0836-.454-.1253-.728-.1253h-.806v4.8596c0 .0657-.024.1253-.066.1791-.042.0537-.114.0955-.209.1254-.101.0357-.233.0597-.394.0776-.167.0179-.376.0298-.633.0298-.251 0-.46-.0119-.627-.0298-.167-.0179-.298-.0478-.4-.0776-.102-.0358-.167-.0777-.209-.1254-.041-.0538-.06-.1134-.06-.1791v-11.588c0-.2866.073-.4955.221-.6268.15-.1314.329-.1911.55-.1911h3.301c.335 0 .609.006.83.0179.215.012.412.0299.591.0478.513.0716.974.197 1.385.3761.412.1791.758.406 1.045.6926.287.2865.501.6268.657 1.0148.149.3881.226.8418.226 1.3434 0 .4298-.053.8178-.161 1.1701-.107.3522-.268.6626-.477.9432-.209.2747-.472.5134-.776.7165-.311.203-.663.3701-1.057.4955.191.0895.37.203.537.3343.168.1314.322.2925.472.4776.149.1851.286.4.418.6388.131.2388.256.5135.382.812l1.075 2.5133c.101.2508.167.4299.196.5493.031.1194.048.2089.048.2746Zm-3.337-8.6506c0-.418-.095-.7762-.287-1.0628-.191-.2865-.501-.4955-.937-.6089-.132-.0358-.28-.0597-.447-.0776-.168-.0179-.4-.0298-.694-.0298h-1.163v3.6178h1.319c.37 0 .692-.0417.967-.1313.275-.0895.507-.2149.693-.3761.185-.1612.322-.3522.412-.5791.09-.2269.137-.4777.137-.7522Zm12.591-2.7045c0 .191-.006.3523-.024.4895-.018.1374-.042.2448-.072.3225-.036.0835-.071.1432-.125.185-.048.0418-.101.0597-.161.0597h-3.194v10.2746c0 .0656-.024.1253-.066.1791-.042.0537-.113.0955-.209.1253-.102.0358-.233.0598-.4.0777-.167.0178-.376.0298-.627.0298s-.459-.012-.626-.0298c-.167-.0179-.299-.0479-.401-.0777-.101-.0358-.167-.0776-.208-.1253-.042-.0538-.066-.1135-.066-.1791V29.3281h-3.194c-.066 0-.119-.0179-.167-.0597-.048-.0418-.084-.1015-.119-.185-.037-.0836-.06-.1911-.073-.3225-.017-.1372-.023-.2985-.023-.4895 0-.197.006-.3642.023-.5015.019-.1373.042-.2507.073-.3284.035-.0836.071-.1432.119-.1791.048-.0358.101-.0537.167-.0537h8.985c.06 0 .113.0179.161.0537.047.0359.089.0955.126.1791.035.0836.059.1911.071.3284.024.1373.03.3045.03.5015Zm8.238 7.8627c0 .6686-.125 1.2597-.375 1.7612-.251.5074-.586.9253-1.015 1.2656-.43.3404-.926.5911-1.499.7642-.573.1732-1.182.2567-1.833.2567-.442 0-.848-.0358-1.224-.1074-.376-.0717-.71-.1612-1.002-.2627-.288-.1015-.532-.2089-.723-.3224-.191-.1135-.334-.209-.418-.2985-.083-.0836-.149-.209-.185-.3702-.036-.1611-.054-.394-.054-.6925 0-.203.006-.3761.018-.5134.013-.1373.036-.2508.066-.3344.03-.0835.072-.1432.12-.185.047-.0358.107-.0537.173-.0537.089 0 .221.0537.388.1611.167.1075.381.2269.644.3582.263.1314.579.2508.944.3583.363.1074.788.1612 1.265.1612.317 0 .597-.0359.848-.1135s.46-.1851.633-.3224c.173-.1372.304-.3104.4-.5134.09-.203.137-.4298.137-.6806 0-.2866-.078-.5373-.239-.7463-.155-.2089-.364-.388-.615-.5492-.25-.1612-.543-.3105-.859-.4537-.323-.1433-.657-.2925-.997-.4478-.341-.1552-.675-.3343-.998-.5373-.321-.203-.608-.4418-.859-.7164-.25-.2806-.46-.609-.615-.9911-.155-.3821-.239-.8357-.239-1.3671 0-.6089.114-1.1462.341-1.6119.226-.4657.531-.8478.913-1.1522.382-.3045.836-.5314 1.361-.6866.52-.1493 1.075-.2269 1.66-.2269.304 0 .603.0239.907.0717.305.0477.586.1074.848.1851.263.0776.495.1671.699.2686.202.1015.34.1791.406.2447.065.0657.107.1195.131.1672.024.0478.042.1075.059.1851.019.0776.031.1732.036.2866.006.1134.012.2567.012.4299 0 .191-.006.3521-.012.4835-.011.1313-.024.2388-.047.3224-.024.0836-.054.1493-.102.1851-.041.0417-.102.0597-.173.0597-.072 0-.185-.0478-.346-.1374-.156-.0895-.352-.191-.579-.2985-.233-.1074-.496-.2089-.801-.2985-.304-.0895-.632-.1313-.996-.1313-.281 0-.532.0358-.74.1015-.209.0716-.388.1671-.526.2866-.143.1194-.245.2686-.316.4357-.072.1732-.102.3523-.102.5433 0 .2806.078.5255.233.7344.155.2089.358.388.621.5493.257.1611.555.3104.884.4536.328.1433.662.2925 1.003.4478.34.1552.674.3344 1.002.5373.328.203.621.4418.878.7164.257.2806.465.609.621.9851.161.4.238.8478.238 1.3552Z"/>
	<path fill="#F58220" d="M109.172 26.0334h-2.478v-8.6865c1.057-.0537 1.815-.0775 2.28-.0775.861 0 1.524.1851 1.995.5552.471.3701.705.8955.705 1.588 0 .406-.15.7701-.448 1.1045-.299.3343-.634.5373-.997.6209.686.1671 1.188.4417 1.504.8238.316.3821.472.9075.472 1.5642 0 .7642-.281 1.3731-.842 1.8269-.561.4537-1.29.6805-2.191.6805Zm-1.296-7.7372v2.4955c.251.0239.556.0358.925.0358 1.123 0 1.684-.4537 1.684-1.3671 0-.8-.513-1.206-1.546-1.206-.394 0-.753.0179-1.063.0418Zm0 3.4149v3.3134c.406.0418.723.0597.938.0597.74 0 1.283-.1373 1.63-.4179.34-.2806.513-.7224.513-1.3313 0-.5672-.161-.9851-.49-1.2537-.328-.2687-.871-.406-1.635-.406l-.956.0358Zm10.012 4.3223-.596-1.8328h-3.231l-.638 1.8328h-1.326l3.529-8.8059h.316l3.272 8.8059h-1.326Zm-2.167-6.5253-1.343 3.8268h2.579l-1.236-3.8268Zm9.403 6.6447-4.49-6.3522v6.2327h-1.128v-8.6865h.471l4.371 6.006v-6.006h1.128v8.806h-.352Zm6.323-.1195-2.449-3.9939-1.157 1.6417v2.3522h-1.189v-8.6865h1.189v4.7284l3.223-4.7284h1.319l-2.596 3.7672 2.967 4.9193h-1.307ZM109.333 11.0484c-1.91.5493-3.899-.5552-4.447-2.45968-.55-1.90446.555-3.89847 2.465-4.44772 1.911-.54925 3.899.55522 4.448 2.45968.543 1.90447-.555 3.89852-2.466 4.44772Z"/>
</svg>