<svg xmlns="http://www.w3.org/2000/svg" viewBox="0 0 200 50">
	<path class="bg-logo" fill="url(#a)" d="M0 0h200v50H0z"/>
  	<linearGradient id="a" x1="200" x2="-.530682" y1="25" y2="25" gradientUnits="userSpaceOnUse">
  		<stop stop-color="#13A538"/>
  		<stop offset="1" stop-color="#0B4697"/>
  	</linearGradient>
	<g fill="#fff">
		<path d="M51.1608 2 29 18.8422v3.6344L51.1608 5.63437 62.2412 13.435V9.71195L51.1608 2Z"/>
		<path d="M29 24.3383v3.6344l22.1608-16.7536 11.0804 7.712V15.208L51.1608 7.49609 29 24.3383Z"/>
		<path d="M29 29.8344v3.723l22.1608-16.8422 11.0804 7.712v-3.7231l-11.0804-7.7119L29 29.8344Z"/>
	</g>
	<path fill="#EC6608" d="M54.7065 26.2881h-7.1801v7.1801h7.1801v-7.1801Z"/>
	<path fill="#fff" d="M113.831 20.1718h-.177v-1.9501h-2.925v1.9501h-.266c-1.064 0-2.127.266-3.103.7978-.886.5319-1.595 1.241-2.127 2.1275-.532.975-.798 2.0387-.798 3.1025 0 1.0637.266 2.1274.798 3.1025.532.8864 1.241 1.5955 2.127 2.1274.976.5319 2.039.7978 3.103.7092h.177v1.8615h2.926v-1.8615c.797 0 1.684-.0887 2.482-.3546.797-.266 1.506-.7092 2.127-1.3297.532-.5318.975-1.241 1.241-1.9501.266-.7092.443-1.5069.355-2.3047 0-1.1524-.266-2.2161-.798-3.1912-.532-.8864-1.241-1.6842-2.128-2.1274-.886-.5319-1.95-.7978-3.014-.7092Zm-4.609 2.6593c.443-.1773.798-.2659 1.241-.1773h.177v7.0915h-.088c-.444 0-.887 0-1.33-.1773-.443-.1773-.798-.4432-1.064-.7091-.62-.7092-.886-1.5956-.886-2.4821-.089-.975.266-1.9501.886-2.6592.355-.4433.709-.7092 1.064-.8865Zm4.432 6.8255v-7.0028h.177c.444 0 .887 0 1.33.1773.443.1773.798.4432 1.064.7092.62.7091.886 1.6842.798 2.6593.088.8864-.266 1.8615-.887 2.5706-.266.3546-.62.5319-1.064.7092-.443.1772-.797.2659-1.241.1772h-.177Zm-30.9363-8.4211h-6.4709v2.8366h2.3933c1.4183-.0886 2.9252.3546 4.0776 1.241.5319.4432.8864.8865 1.1524 1.507.2659.6205.3545 1.241.3545 1.8615 0 .6205-.0886 1.3296-.3545 1.8615-.266.6205-.6205 1.1523-1.1524 1.5069-1.1524.8864-2.5706 1.3297-3.9889 1.3297h-5.4073V18.8422h9.5735v2.3933h-.1773Zm-6.4709 5.3186v4.5208h2.3933c.7092 0 1.3297-.1773 1.8615-.6205.266-.1773.4432-.4432.5319-.7978.0886-.2659.1773-.6205.1773-.8864 0-.2659 0-.6205-.1773-.8864-.0887-.2659-.2659-.5319-.5319-.7092-.5318-.4432-1.1523-.6205-1.7728-.6205h-2.482Zm21.8948.9751h-1.7729v5.9391h-3.0138v-5.9391H91.582l-3.1911 5.9391h-3.723l4.5208-7.8006-4.2549-6.8255h3.723l3.2798 5.8504h1.5069v-5.8504h2.9252v5.8504h1.507l3.1913-5.8504h3.723l-4.255 6.7369 4.521 7.8006h-3.812l-3.1024-5.8505Zm36.9644-6.2937h-6.471v2.8366h2.305c1.507-.0886 2.925.3546 4.077 1.241.532.4432.887.8865 1.153 1.507.265.6205.354 1.241.354 1.8615 0 .6205-.089 1.3296-.354 1.8615-.266.6205-.621 1.1523-1.153 1.5069-1.152.8864-2.57 1.3297-3.989 1.3297h-5.496V18.8422h9.574v2.3933Zm-6.56 5.3186v4.5208h2.394c.709 0 1.329-.1773 1.861-.6205.266-.1773.443-.4432.532-.7978.089-.2659.177-.6205.177-.8864 0-.2659 0-.6205-.177-.8864-.089-.2659-.266-.5319-.532-.7092-.532-.4432-1.152-.6205-1.773-.6205h-2.482Zm15.513 5.9391c.088.3546.177.6205.266.9751h2.925v-.1773c-.355-.7091-.443-1.5069-.443-2.3047v-4.6981c0-.5319-.089-1.0637-.266-1.5956-.178-.5318-.532-.8864-.887-1.241-.886-.7091-2.038-1.0637-3.191-.975-.798 0-1.684.1772-2.393.4432-.621.2659-1.241.7091-1.684 1.3296-.355.5319-.621 1.1524-.621 1.7729h2.925c0-.1773 0-.3546.089-.5319s.177-.3546.355-.4432c.354-.2659.709-.3546 1.152-.3546.266 0 .443 0 .62.0887.178.0886.444.1773.532.3545.266.3546.443.7978.355 1.241v.4433h-1.33c-1.329-.0887-2.57.2659-3.634.8864-.443.2659-.798.7091-.975 1.1524-.266.4432-.355.975-.266 1.5069 0 .4432.088.8864.266 1.241.177.4432.443.7978.798 1.0637.709.6205 1.684.9751 2.659.8864.532 0 1.064-.0886 1.507-.2659.443-.0886.886-.4432 1.241-.7978Zm-.887-1.3296c-.354.1773-.797.2659-1.152.2659-.355 0-.709-.0886-1.064-.3546-.088-.0886-.266-.2659-.266-.4432-.088-.1773-.088-.3546-.088-.4432v-.1773c.088-.9751.886-1.5069 2.304-1.5069h1.064v1.8615c-.177.3546-.532.6205-.798.7978Zm15.07 2.3047h-2.926v-4.1662h-3.634v4.1662h-2.925V22.5652h2.925v4.3435h3.634v-4.3435h2.926v10.9031Zm5.141-3.9889h1.152l2.394 3.9889h3.811l-3.9-5.6732 3.546-5.1413h-3.635l-2.393 4.0776h-1.064v-4.0776h-2.925v10.8145h2.925l.089-3.9889Z"/>
</svg>