<svg xmlns="http://www.w3.org/2000/svg" viewBox="0 0 200 50">
	<path class="bg-logo" fill="#A61731" d="M0 0h200v50H0z"/>
	<path fill="#fff" d="M134.208 4H66v30.2398h68.208V4Zm0 32.0038H66V46h68.208v-9.9962Zm-20.664-8.484-9.24-12.18-.084 15.12h-4.788V8.03184h4.788L114.3 21.2198l10.08-13.18796h4.788V30.5438h-4.788v-15.204l-9.24 12.18c-.42.504-1.176.504-1.596 0Zm-18.312-6.804v5.796c0 2.184-2.52 4.032-4.704 3.948H70.704V8.03184h23.1v4.03196H75.66v4.62h14.868c2.268 0 4.704 1.764 4.704 4.032Zm-7.14 5.796c1.092 0 2.016-.924 2.016-2.016v-2.268c0-1.092-.924-2.016-2.016-2.016H75.66v6.3h12.432Zm-15.96 13.944h4.284c.672 0 1.344.504 1.26 1.092v1.68c0 .672-.672 1.176-1.344 1.176H70.62v-6.468h6.72v1.176h-5.208v1.344Zm3.612 2.856c.336 0 .588-.252.588-.588v-.672c0-.336-.252-.588-.588-.588h-3.612v1.848h3.612Zm14.28-5.376h1.512l3.612 6.468h-1.512l-.924-1.596h-3.948l-.924 1.596h-1.428l3.612-6.468Zm.672 1.344-1.428 2.604h2.856l-1.428-2.604Zm14.952 1.428h4.872v-2.772h1.428v6.468h-1.428v-2.772h-4.872v2.772h-1.428v-6.468h1.428v2.772Zm20.664-2.772h2.436l-3.864 3.108 4.284 3.36h-2.436l-3.696-2.856v2.856h-1.428v-6.468h1.428v2.604l3.276-2.604Z"/>
</svg>