<svg xmlns="http://www.w3.org/2000/svg" viewBox="0 0 200 50">
	<path class="bg-logo" fill="#F10D30" d="M0 0h200v50H0z"/>
	<path fill="#fff" d="M66.25 17.125c0 5.592-4.533 10.125-10.125 10.125S46 22.717 46 17.125 50.533 7 56.125 7 66.25 11.533 66.25 17.125ZM56.125 40.75c-5.597 0-10.125.368-10.125.7361v.7778C46 42.632 50.528 43 56.125 43s10.125-.368 10.125-.7361v-.7778c.0313-.3681-4.528-.7361-10.125-.7361ZM46 33.4375v1.125c0 1.8644 4.533 3.375 10.125 3.375s10.125-1.5106 10.125-3.375v-1.125c0-1.8644-4.533-3.375-10.125-3.375S46 31.5731 46 33.4375ZM106.18 31.6572c-1.999 0-3.649-.635-4.949-1.8742-1.3331-1.2712-1.9676-2.8598-1.9676-4.7978 0-1.938.6345-3.5266 1.9036-4.7658 1.332-1.2712 2.951-1.9073 4.855-1.9073 0 0 2.538-.0318 4.188.9218l1.967-3.0498s-2.19-1.7798-6.219-1.7798c-3.236 0-5.901 1.08-7.9003 2.9553-2.0622 1.9699-3.1092 4.5121-3.1092 7.6256 0 3.0817 1.047 5.6239 3.141 7.6256 1.9995 1.9062 4.6645 2.9554 7.8685 2.9554 4.029 0 6.219-1.7798 6.219-1.7798l-1.967-3.0498c-1.429.8261-3.491.9206-4.03.9206Zm13.769 3.5277h-4.188V14.8174h17.038v20.3675h-4.156V18.567h-8.694v16.6179ZM89.9613 23.6823c-1.3645-1.2393-3.236-1.8743-5.6157-1.8743H79.967v-3.241h10.6288v-3.7496H75.7791v20.3675h8.5665c2.3797 0 4.2512-.6042 5.6476-1.8435 1.3639-1.2711 2.0621-2.8597 2.0621-4.8296 0-1.9379-.6982-3.5584-2.094-4.8295Zm-3.1091 7.0224c-.6663.5087-1.5865.7943-2.8241.7943H79.967v-6.1644h4.0611c1.2058 0 2.1259.2856 2.7922.8262.6663.5405 1.0151 1.3029 1.0151 2.2873 0 .9855-.3488 1.7479-.9832 2.2566Zm65.0508-7.0224c-1.364-1.2393-3.236-1.8743-5.615-1.8743h-4.379v-3.241h10.629v-3.7496h-14.817v20.3675h8.567c2.379 0 4.251-.6042 5.647-1.8435 1.364-1.2711 2.062-2.8597 2.062-4.8296 0-1.9379-.698-3.5584-2.094-4.8295Zm-3.109 7.0224c-.666.5087-1.586.7943-2.824.7943h-4.061v-6.1644h4.061c1.206 0 2.126.2856 2.792.8262.356.2889.622.6416.791 1.0569.149.3625.224.7723.224 1.2304 0 .4109-.06.7822-.177 1.1129-.163.4637-.436.8471-.806 1.1437Z"/>
</svg>