<svg xmlns="http://www.w3.org/2000/svg" viewBox="0 0 200 50">
	<path class="bg-logo" fill="#F68E1E" d="M0 0h200v50H0z"/>
	<path fill="#fff" d="M47.1086 38.3574H20V12h27.1086v26.3574Zm92.4124-19.0683.367-2.211h-10.086v16.3067h4.994c1.619 0 3.801-.1211 5.187-1.503 1.045-1.0439 1.192-2.3496 1.192-3.2578 0-.9121-.176-2.459-1.361-3.5859-1.502-1.4151-3.635-1.4151-4.903-1.4151h-2.326v-4.3339h6.936Zm-2.181 11.1474c-.383.3565-1.116.7266-2.372.7266h-2.383v-5.3203h2.383c.753 0 1.719.0927 2.372.7041.366.3232.728.915.728 1.9209 0 .5556-.092 1.376-.728 1.9687Zm13.568 1.8281c.299.7647.932 1.3311 1.674 1.6153l1.388-1.6475c-.943-.6386-1.095-1.166-1.072-2.7597l.051-3.417c.021-1.7696.021-2.3955-.198-2.9229-.529-1.3037-1.822-1.9853-3.726-1.9853-1.85 0-3.378.4931-5.22 1.6259l1.193 1.8702s1.885-1.376 3.664-1.376c1.454 0 1.694.7265 1.694 2.1113v.6309h-.827c-3.921 0-6.056 1.3925-6.056 4.1396 0 2.083 1.259 3.5401 4.069 3.5401 1.312 0 2.386-.3311 3.366-1.4249Zm-4.562-2.2587c0-1.4981.801-2.2588 3.474-2.2588l.485.0312-.047 2.8262c-.532.7549-1.355 1.1934-2.204 1.1934-1.067 0-1.708-.6553-1.708-1.792Zm10.332 3.3789h2.64v-5.378h4.149v5.378h2.646V21.1855l-2.646.4834v4.4053h-4.149v-4.8887l-2.64.4834v11.7159Zm15.703-12.1983-2.639.4815v11.7148h2.639v-5.2822h1.095c.393 0 .826 0 1.187.3047.317.2685.468.7295.565 1.1836l.382 1.6787c.096.4355.268 1.1074.745 1.5762.611.5667 1.408.63 2.228.695l.113.0091.819.0712.485-1.7607-.485-.1045-.798-.3564c-.066-.0557-.169-.168-.28-.3702-.062-.1123-.127-.2519-.189-.4238l-.603-1.7724c-.147-.4424-.387-.9463-.731-1.2754-.193-.1563-.483-.376-.894-.4649v-.0556c.558-.1065.894-.4112.974-.4903.264-.2597.483-.666.595-1.0761l.395-1.2891.009-.0264c.094-.2685.196-.5605.43-.7627l.672-.2861.613-.1113-.489-1.7705-.895.0957c-.894.0996-1.475.1777-1.969.6845-.431.4483-.556.92-.649 1.3741l-.314 1.3398c-.121.5381-.294.8848-.508 1.1103-.373.3204-.921.3594-1.355.3594h-1.148v-5ZM38.6993 25.1981l-5.5709-8.1483h-4.7109l5.5424 8.1483-5.5424 8.1081h4.7109l5.5709-8.1081Zm22.6498-5.9089.3725-2.2111h-10.092v16.3063h4.9917c1.6246 0 3.8152-.1203 5.1983-1.5025 1.0481-1.0436 1.1871-2.3492 1.1871-3.2583 0-.9117-.1693-2.4588-1.3564-3.5853-1.5026-1.4152-3.637-1.4152-4.9016-1.4152H54.428v-4.3339h6.9211Zm-2.1754 11.1471c-.3886.3565-1.1114.7264-2.368.7264v.0009H54.428v-5.3205h2.3777c.7406 0 1.7174.0927 2.368.704.3725.3227.7307.9153.7307 1.9206 0 .5561-.098 1.376-.7307 1.9686Zm9.5037-4.5772v-4.6734l-2.6477.4812v11.7175h4.5353c1.4874 0 2.7609-.2112 3.6325-1.0863.4626-.4608.9474-1.2762.9474-2.6184 0-.7023-.1203-1.794-.9946-2.6611-1.1399-1.1372-2.8064-1.1595-3.7947-1.1595h-1.6782Zm1.3814 5.6841h-1.3814v-3.8313h1.3814c.5276 0 1.2539.033 1.7209.4652.2727.23.5588.7032.5588 1.5026 0 .3743-.049.942-.4911 1.3422-.5035.4866-1.2076.5213-1.7886.5213Zm9.5982 1.8412V21.1857l-2.6424.4812v11.7175h2.6424Zm3.0239-5.8275c0 3.841 1.8688 6.1288 5.217 6.1288 1.6532 0 2.8136-.5 3.9222-1.5828l-1.2566-1.565c-.8003.7736-1.6291 1.1657-2.4766 1.1657-.6533 0-1.2325-.254-1.6193-.68-.5561-.5873-.8369-1.6202-.8369-3.2422 0-1.4936.1533-2.6023.5196-3.3313.3886-.7771 1.0926-1.2058 1.9357-1.2058.7023 0 1.3323.2861 2.0649.9233l1.3324-1.7155c-1.0784-.9991-2.065-1.3056-3.3973-1.3056-2.7324 0-5.4051 2.0765-5.4051 6.4104Zm13.04 5.8266h2.6406v-9.993h3.1825l.333-1.9321h-9.4428v1.9321h3.2867v9.993ZM106.096 22.567c0-.4438-.075-.9277-.19-1.4205l-2.448.426c.114.5115.234 1.3929.234 2.9721v13.9018l2.57-.6211v-3.498c0-.4483-.014-1.0855-.063-1.6318 1.158.8859 2.278.991 2.884.991 1.567 0 2.564-.6131 3.149-1.1514.995-.942 1.775-2.6388 1.775-5.2599 0-2.7137-.834-4.1699-1.658-4.9755-.582-.565-1.545-1.1532-2.976-1.1532-1.019 0-2.323.3324-3.277 1.4205Zm2.615 8.9406c-.995 0-1.814-.4875-2.45-1.0722v-5.8739c.538-.5276 1.435-1.228 2.649-1.228.511 0 .969.1354 1.383.5561.702.704.841 1.9909.841 3.5238 0 .9277 0 2.6406-1.058 3.5871-.389.3591-.827.5071-1.365.5071Zm7.218-4.0951c0 3.8571 2.094 6.2732 5.411 6.2732 3.33 0 5.428-2.3751 5.428-6.2447 0-3.7698-1.981-6.2954-5.479-6.2954-3.25 0-5.36 2.4543-5.36 6.2669Zm2.961-.1827c0-2.9009.729-4.1512 2.399-4.1512 1.554 0 2.523 1.0151 2.523 4.3847 0 3.0408-.869 4.2893-2.447 4.2893-1.572 0-2.475-1.0088-2.475-4.5228Z"/>
</svg>