<svg xmlns="http://www.w3.org/2000/svg" viewBox="0 0 200 50">
	<path class="bg-logo" fill="#009345" d="M0 0h200v50H0z"/>
	<g fill="#fff">
		<path d="M75.1016 20.8677H71.382l-.8412 1.9084h-1.9794l4.0196-9.4206h1.3804l3.9001 9.4206h-1.9217l-.8392-1.9084h.001Zm-.5402-1.4899-1.3206-3.3406-1.3196 3.3396h2.6402v.001Zm-14.5206-5.7831h6.4804v1.5506H61.781v2.0859h2.5196c.7196 0 1.6206.1196 2.3412.7155.5392.4764.899 1.1919.899 2.027.005.6002-.1845 1.1859-.5402 1.6693-.7196 1.0135-1.8598 1.1331-2.6392 1.1331h-4.3206v-9.1825.0011Zm1.8 7.6318h2.1c1.4402 0 1.7402-.6568 1.7402-1.193 0-.5959-.3-1.2527-1.6804-1.2527h-2.1588v2.4446l-.001.0011Zm23.4599-4.0541h-3.9v-3.5777h-1.8v9.1814h1.8v-4.1149h3.9v4.1149h1.8v-9.1825h-1.8V17.1724Zm5.4608.2969 3.6-3.8746h2.1001l-3.6001 3.8746 3.7805 5.3068h-2.4011l-2.7598-3.9953-.7196.6558v3.2797h-1.8v-9.1216h1.8v3.8746Zm27.0005 15.7998c0 2.8014-2.042 4.8284-4.921 4.8284-2.939 0-4.921-2.027-4.921-4.8284 0-2.8024 2.041-4.8294 4.921-4.8294 2.879.0598 4.92 2.027 4.92 4.8294h.001Zm-1.861 0c0-1.8487-1.26-3.1602-3.061-3.1602-1.799 0-3.059 1.3115-3.059 3.1592 0 1.8486 1.26 3.1601 3.06 3.1601 1.74.0598 3.061-1.2517 3.061-3.1591h-.001Zm4.979-.7156 3.6-3.8757h2.1l-3.6 3.8757 3.781 5.3058h-2.4l-2.76-3.9943-.72.6558v3.2787h-1.801v-9.1804h1.8v3.9344Zm-60.899-3.8757h1.8v7.6318h3.9v-7.6318h1.8v7.6318h1.1392v3.0994h-1.6196v-1.5507H59.981v-9.1805Zm12.3598 1.5507h5.1588v-1.5507h-6.9588v9.1815h6.9598v-1.5507h-5.1598v-2.5034h4.5598v-1.5506h-4.5608v-2.0271l.001.001Zm72.3602 0h-5.16v2.0271h4.621v1.5496h-4.621v2.5034h5.16v1.5507h-6.96v-9.1815h6.96v1.5507Zm-58.9199 2.0271h-3.9v-3.5778h-1.8v9.1815h1.8v-4.1139h3.9v4.1139h1.8v-9.1815h-1.8v3.5778Zm8.5196-2.0271v7.6308h-1.8v-7.6318h-3v-1.5497h7.6794v1.5507h-2.8794Zm77.8203 7.6308v-7.6318H175v-1.5497h-7.679v1.5507h3v7.6308h1.8Zm-68.759-9.1815c1.019 0 1.739.1196 2.459.7156.72.6557.96 1.5507.96 2.2064 0 .3568-.061 1.3703-.78 2.0271-.539.5361-1.26.8341-2.339.8341h-2.581v3.3983h-1.7998v-9.1815h4.0808Zm-2.342 4.2335h2.161c.36 0 .781 0 1.2-.298.36-.2392.481-.6567.481-1.0743 0-.5361-.241-.8341-.541-1.0723-.359-.2382-.84-.298-1.259-.298h-2.041v2.7426h-.001Zm34.202-3.5179c-.721-.596-1.441-.7156-2.461-.7156h-4.08v9.1815h1.8V34.461h2.58c1.08 0 1.8-.298 2.34-.8341.721-.6568.78-1.6703.78-2.0271 0-.6567-.18-1.5507-.959-2.2064Zm-2.641 3.5169h-2.159v-2.7416h2.039c.42 0 .9.0598 1.261.298.3.2382.539.5372.539 1.0733 0 .4166-.12.8341-.48 1.0723-.42.299-.84.299-1.2.299v-.001Zm22.02 3.3993v-7.6318h-6.66v3.9355c0 1.3115-.18 1.9663-.36 2.4436-.3.7156-.84 1.2527-1.5 1.2527v3.0994h1.68v-1.5507h6.12v1.5507h1.68v-3.0994h-.96Zm-5.22-1.0743c.18-.4165.3-1.1321.3-2.5632h.06v-2.4446h3.12v6.0811h-4.2c.24-.2381.54-.5361.72-1.0723v-.001Zm9.66-6.5575v6.1997l5.1-6.379h1.26v9.4196h-1.8v-6.2595l-5.1 6.3791h-1.26v-9.3599h1.8Z"/>
		<path d="M25 35.7093V9h26.8805v5.1872h-5.5206L35.2001 35.7093H25Zm1.6804-1.6693h7.5599l11.1-21.5231h4.8598v-1.8476H26.6804V34.04Z"/>
		<path d="M28.7195 39.2886v-5.247h5.5196l11.0413-21.5221h10.2598v26.7681H28.7195v.001Zm25.9795-.8351v-.8352.8352Zm-23.3991-.8352h22.5599V14.1888H46.299L35.2597 35.6511h-4.9206v1.9672h.9608Z"/>
	</g>
</svg>