<svg xmlns="http://www.w3.org/2000/svg" viewBox="0 0 200 50">
	<path class="bg-logo" fill="#3AAA35" d="M0 0h200v50H0z"/>
	<path fill="#fff" d="M66.1582 17.2302c.6043.5036.9065 1.2087.9065 2.0144 0 1.2086-.7051 2.3166-1.813 2.6187-.7492.2497-2.5992.2243-3.7872.2079-.2494-.0034-.4697-.0064-.6444-.0064V13h5.4388v1.7122h-3.4244v1.7123c1.1777 0 2.3613.0037 3.3237.8057Zm-2.6187 3.0216c.6834 0 1.5108-.2221 1.5108-1.0072 0-.8254-.8377-1.0072-1.5108-1.0072h-.705v2.0144h.705ZM93.5539 13l-3.9281 4.2302 4.0288 4.8346h-2.6187l-3.1223-3.8274v3.8274h-2.0144V13h2.0144v3.4245L90.9352 13h2.6187Zm-26.3885 9.0648L70.9927 13h1.813l3.7266 9.0648h-2.2158l-.8058-1.813H70.187l-.8058 1.813h-2.2158Zm4.5324-6.2447-1.0072 2.6188h2.0144l-1.0072-2.6188Zm7.3525.5036h3.4245V13h2.0143v9.0648h-2.0143v-3.8274h-3.4245v3.8274h-2.0144V13h2.0144v3.3237Zm11.482 10.0721h2.518v9.1655h2.4173v-9.1655h2.518v-2.1151h-7.4533v2.1151Zm-3.4244 2.1151h-4.4317v-4.2302h-2.4173v11.2806h2.4173v-4.8346h4.4317v4.8346h2.4172V24.2807h-2.4172v4.2302Zm-17.2231-4.2302h-2.518v9.1655h-4.1295v-9.1655h-2.4172v11.2806h8.0575v2.518h2.3166v-4.6331h-1.3094v-9.1655Zm75.6402 11.2806h6.446v-2.1151h-4.029v-2.7195h3.828v-2.1151h-3.828v-2.1151h4.029v-2.1151h-6.446v11.1799Zm-3.424-6.0432c.705-.5036 1.007-1.3094 1.007-2.1151 0-2.245-1.962-3.1223-3.928-3.1223h-2.921v11.2806h3.928c1.938 0 3.928-1.0735 3.928-3.2231 0-1.2838-.721-2.4607-2.014-2.7194v-.1007Zm-3.324-3.223h.504c.791 0 1.497.3313 1.51 1.2086.009.5712-.302 1.2086-.906 1.2086h-1.108v-2.4172Zm.806 7.1511h-.806v-2.7195h.604c.885 0 2.115.1478 2.115 1.3094 0 1.0353-.677 1.4101-1.913 1.4101Zm-67.2809 2.1151h6.3453v-2.1151h-3.928v-2.7195h3.8273v-2.1151h-3.8273v-2.1151h4.0287v-2.1151h-6.446v11.1799Zm90.2449-11.2806v2.1151h2.518v9.1655h2.417v-9.1655H170v-2.1151h-7.453Zm-60.23 0h-3.3242v11.2806h2.5182v-4.0288h1.208c2.128 0 3.859-1.3037 3.828-3.5252-.036-2.5168-1.951-3.7266-4.23-3.7266Zm-.101 5.036h-.705v-2.9209h.604c.895 0 2.014.3209 2.014 1.4101 0 1.2441-.895 1.3976-1.913 1.5108Zm52.475-3.7267c-1.209 1.108-1.813 2.5618-1.813 4.4317 0 4.5065 5.153 7.254 8.964 5.1367v-3.0216c-1.916 2.7144-6.681 1.1392-6.346-2.2158 0-3.5252 4.231-5.036 6.346-2.2159v-3.0215c-2.21-1.2277-5.247-.6806-7.151.9064Zm-39.18 5.7411v-7.0504h-2.418v11.2806h1.914l5.741-7.1511v7.1511h2.417V24.2807h-1.913l-5.741 7.0504Zm16.417-2.8202h-4.432v-4.2302h-2.417v11.2806h2.417v-4.8346h4.432v4.8346h2.417V24.2807h-2.417v4.2302Zm-20.144 1.4099h-4.633v2.1151h4.633v-2.1151ZM42.3884 13v6.5468L47.8273 13h-5.4389Zm9.2662.9067-9.2662 11.1799v2.1151c.9468-2.2091 2.2902-3.8274 4.9353-3.8274 2.4914 0 3.81 2.3481 4.3309 4.4317V13.9067Zm-4.5322 10.5752c-4.8346.2014-4.8346 8.964 0 9.0648 4.8345-.2015 4.8345-8.9641 0-9.0648Zm0 7.554c-2.9209 0-2.9209-6.1439 0-6.1439 2.9208 0 2.9208 6.1439 0 6.1439Zm-4.734-1.9137v5.4388h9.2662v-5.4388c-.3751 2.2509-2.0738 4.3309-4.5323 4.3309-2.8556 0-3.7587-2.1151-4.7339-4.3309Zm-3.1222-6.6477L30 34.6544V20.7551c.1575.6301.3136 1.2315.6043 1.813.7416 1.2978 2.1102 2.6187 3.7266 2.6187 1.5712 0 2.8918-.5655 3.8274-1.813.4029-.6043.8057-1.3093 1.1079-2.0144v2.1151Zm-4.6331.6044c4.8346-.2015 4.8346-8.9641 0-9.0648-4.8345.2015-4.8345 8.9641 0 9.0648Zm0-7.6547c2.9209 0 2.9209 6.1439 0 6.1439-2.9208 0-2.9208-6.1439 0-6.1439Zm4.4317 1.5111c-.2015-.7051-.6044-1.4101-1.0072-2.0144-.8362-1.1149-2.1117-1.813-3.5252-1.813-1.6806 0-3.183 1.0277-3.9281 2.518-.3021.5036-.5036 1.2086-.6043 1.813V13h9.1655v5.4389c0-.1864-.1007-.2907-.1007-.5036Zm.2014 11.0788-5.4388 6.5468h7.6546v-1.6112h-2.2158v-4.9356Zm-8.7627 6.5471L49.0359 13h2.1151L32.5179 35.5612h-2.0144Zm22.1584-.1007v-1.5108c2.1151 0 3.928 1.9136 3.8273 4.0288 0 1.5108-.9064 3.0215-2.2158 3.7266-1.7122.705-3.6259.705-5.4389.2014L39.2662 39.59c-5.2374-1.3094-7.6547-.4029-7.6547.8057H30c0-3.3237 4.7338-4.7338 9.9712-3.5252l9.4677 2.3166c1.0072.3022 2.0144.5036 3.0215.5036 1.108-.1007 2.0144-1.0072 2.0144-2.1151.1008-1.1079-.8057-2.1151-1.8129-2.1151Z"/>
</svg>