<svg xmlns="http://www.w3.org/2000/svg" viewBox="0 0 200 50">
	<path class="bg-logo" fill="#3A913F" d="M-.00024414 0h200v50h-200z"/>
	<path fill="#fff" d="M147.905 16.0054c.813.2184 1.223.8978 1.703 1.4962 1.904 2.3832 3.799 4.7691 5.7 7.155.051.0647.112.124.189.2049.692-.8735 1.374-1.7335 2.056-2.5908 1.427-1.7982 2.847-3.599 4.279-5.3945.496-.6228 1.277-.8357 2.005-.5769.734.2614 1.16.9004 1.16 1.7631.003 4.1624.003 8.3222 0 12.4847 0 .6902.01 1.3803-.009 2.0705-.024.8923-.703 1.5933-1.607 1.6904-.816.0889-1.636-.4772-1.849-1.2995-.056-.2157-.067-.4476-.067-.6713-.006-2.9332-.002-5.8636-.002-8.7968v-.372c-.025-.0081-.049-.0162-.077-.0215-.371.4663-.746.9301-1.115 1.3991-1.111 1.4019-2.216 2.8091-3.335 4.203-.815 1.0136-2.095 1.0001-2.901-.0135-1.509-1.8953-3.025-3.7905-4.538-5.683-.037-.0459-.078-.0889-.167-.1968v9.6675c0 .9248-.617 1.631-1.547 1.7793-.814.1294-1.66-.4232-1.903-1.2589-.056-.1942-.07-.4044-.07-.6066-.008-4.8581-.008-9.708-.008-14.5607 0-.9516.458-1.5501 1.377-1.8197.03-.0081.051-.035.078-.0512h.648Zm-52.409 0c.523.1078 1.0567.1752 1.5636.3316 3.2104.9975 5.4214 3.0059 6.2894 6.3272.197.7495.299 1.5233.175 2.3024-.164 1.0217-1.099 2.0004-2.347 1.9922-3.8505-.0269-7.7002-.0107-11.55-.0107h-.4205c.2075 1.0136.6308 1.8817 1.3371 2.5935 1.7658 1.7792 3.909 2.1647 6.2545 1.5501.8223-.2157 1.5986-.6201 2.3778-.976.6228-.283 1.2291-.4097 1.8461-.0377 1.076.647 1.025 2.1837-.099 2.8631-1.2564.7602-2.6233 1.2401-4.071 1.4719-1.9626.3181-3.8956.2022-5.7342-.5984-3.0975-1.3453-4.9146-3.7096-5.47-7.0364-.7225-4.3404 1.6958-8.5892 5.807-10.142.7549-.2857 1.5798-.3882 2.3725-.5769.0592-.0135.1185-.0377.1779-.0566.4987.0027.9947.0027 1.4908.0027Zm4.642 7.6779c-.1937-2.5071-3.2159-4.7637-5.9927-4.5048-2.4074.2264-5.098 2.6985-4.8849 4.5048h10.8776Zm-37.2516-7.6779c.4502.0863.9085.1429 1.3507.2669 3.0948.8681 5.3136 2.7147 6.365 5.8124.3234.9544.4879 1.9464.3154 2.9574-.1699.9786-1.1027 1.9275-2.3428 1.9168-3.8497-.0296-7.6968-.0108-11.5466-.0108h-.4097c.2103 1.0002.6254 1.8682 1.3183 2.5746 1.7685 1.7954 3.9171 2.1891 6.2761 1.5717.8114-.213 1.5771-.6147 2.3481-.9598.4421-.1967.8816-.3585 1.3668-.2534.6875.1456 1.1377.6335 1.2671 1.3453.1132.6174-.2049 1.348-.8303 1.6931-.6659.3666-1.3533.717-2.0678.9678-2.4048.8411-4.8526 1.0056-7.2736.1159-3.4211-1.2563-5.4268-3.7365-5.9714-7.3356-.6012-3.9711 1.3075-7.7076 4.831-9.5893 1.0461-.5581 2.1622-.8951 3.3457-1.011.0593-.0054.1159-.0378.1753-.0567.4906-.0053.9867-.0053 1.4827-.0053Zm4.6396 7.6752c.0459-2.0192-2.7821-4.4832-5.2866-4.5264-3.0976-.0512-5.3487 2.3455-5.5994 4.5264h10.886Zm67.697-7.6752c.44.0863.885.1456 1.313.2669 3.246.9193 5.521 2.8792 6.47 6.1844.197.6821.238 1.4208.259 2.1378.038 1.2294-1.057 2.3805-2.386 2.3698-3.839-.035-7.675-.0136-11.514-.0136h-.418c.011.1053.011.1888.032.2643.615 2.1756 2.076 3.475 4.238 3.9846 1.898.4474 3.664-.0271 5.357-.8951.369-.1887.763-.3828 1.165-.4367.801-.1052 1.469.3666 1.699 1.0918.234.7387-.079 1.5528-.783 1.9761-1.267.7629-2.642 1.2455-4.1 1.4801-2.068.3342-4.09.1779-5.998-.7199-2.909-1.3695-4.654-3.6637-5.168-6.8368-.515-3.1811.371-5.9552 2.663-8.2306 1.517-1.5043 3.373-2.3562 5.508-2.5719.059-.0054.118-.0377.177-.0566.494.0054.99.0054 1.486.0054Zm4.635 7.6752c-.227-2.5153-3.206-4.7528-5.983-4.5021-2.408.2156-5.047 2.6339-4.898 4.5021h10.881Zm-18.675-7.6752c.657.2075 1.183.5689 1.369 1.2752.056.2156.081.4448.081.6685.005 4.7988.005 9.5975.002 14.3962 0 1.0703-.53 1.7523-1.483 1.9356-.986.1915-1.978-.5741-2.042-1.5771-.009-.1293-.009-.2587-.009-.3881V19.5829h-7.139v7.6833c0 3.5424-2.456 6.4243-5.955 6.9663-.412.0646-.844.0997-1.254.0457-.943-.124-1.58-.9246-1.517-1.8224.067-.9813.787-1.6661 1.776-1.6877 1.618-.0377 2.923-1.0594 3.314-2.6176.07-.2777.102-.5743.102-.8627.008-3.1057.005-6.2114.005-9.3171 0-1.0298.402-1.5825 1.383-1.9195.017-.0054.027-.0296.041-.0458h11.326Zm-76.0898.0018c.5446.1078 1.0946.1887 1.6284.3289 1.6067.426 2.9979 1.2374 4.157 2.4317.666.6847.6578 1.7523.0162 2.4641-.5903.6551-1.6634.7548-2.3831.2129-.2319-.1752-.426-.3963-.6551-.5742-1.7146-1.3264-3.6152-1.6472-5.6237-.8627-2.0111.7845-3.227 2.3077-3.5425 4.4482-.4718 3.1921 1.6445 6.02 4.8392 6.4702 1.8116.2561 3.4076-.2938 4.734-1.5663.9489-.9085 2.4156-.6739 2.9494.4799.3127.6767.1833 1.4692-.3532 2.0003-2.0624 2.0328-4.5453 2.9494-7.4272 2.6771-4.0008-.3775-7.1819-3.1354-8.1309-7.0013-.124-.5095-.1645-1.0406-.2454-1.5609-.0134-.0809-.0377-.1618-.0565-.2426v-.8411c.0404-.2832.0835-.5689.1213-.852.4745-3.6691 3.2135-6.7828 6.7829-7.6887.5392-.1375 1.0891-.2157 1.6364-.3235h1.5528Zm-7.57 24.5849c-.0485-.0216-.0944-.0486-.1456-.0621-.8627-.2453-1.3398-.957-1.2239-1.8278.1051-.8061.7792-1.3911 1.6391-1.3991 1.0999-.0082 2.1999-.0027 3.2971-.0027 2.9628 0 5.9283-.0027 8.8911 0 .709 0 1.259.2991 1.5583.9516.2911.6335.2183 1.267-.267 1.7685-.2453.2561-.6227.3856-.9408.5716H37.5232ZM76.463 19.6206c-1.3022 0-2.5638.0027-3.8228-.0027-.1725 0-.3451-.0135-.5122-.0432-.9139-.1644-1.5232-.9678-1.4397-1.8897.0837-.9221.825-1.6068 1.7524-1.6068 3.8605-.0027 7.7184-.0027 11.5789 0 1.0191 0 1.7982.7656 1.8009 1.7604.0027.9894-.771 1.7685-1.7928 1.7766-1.2185.0108-2.4371.0027-3.6556.0027h-.399v12.9134c0 .7575-.3559 1.3022-1.0352 1.6095-.6821.31-1.3318.1913-1.8953-.2912-.4152-.3559-.5877-.8277-.585-1.3776.0054-4.1409.0027-8.2792.0027-12.4201.0027-.124.0027-.2534.0027-.4313Z"/>
</svg>