<svg xmlns="http://www.w3.org/2000/svg" viewBox="0 0 200 50">
	<path class="bg-logo" fill="#F27007" d="M0 0h200v50H0z"/>
	<g fill="#fff">
		<path d="M68.8029 4.77906c-1.3782.26501-2.4913 1.65331-2.2312 3.28069-3.7075-1.30269-8.4575-1.05508-11.7793-.42061-.745.14601-1.4196.30551-1.998.47675-.1669.04902-.1669.21172-.0207.24227 5.1025 1.17232 7.0681 3.79904 11.0298 4.44594-2.8183 3.9265-2.6995 8.8655-2.3476 10.0467.0688.2846 1.3786 2.031 2.16 2.729.087.0742.204.1002.3085.0803.1487-.0281.2815-.1482.277-.3087-.0936-4.5681.4593-7.5469 1.8928-8.0659.9165-.3297 1.3488-.4532 1.6137-.5403 3.8429-1.2118 3.5389-5.885 3.4884-7.57352-.073-2.74997 1.2778-3.49491 2.4092-3.7102l5.596-1.07142c.4986-.09521.7773-.03766.926-.06537l.0388-.03374c-.021-.12931-.1987-.28456-.5833-.29095h-.0484c-.1065.00178-.2279.01421-.3649.04085l-5.7833 1.10589c-.7706.14742-1.4062.18686-1.591.1357-.3776-.10764-1.7581-.73678-2.9925-.50338Z"/>
		<path d="M159.069 42.5253h-.626v-1.5764h-.79l-.878 1.5764h-.709l.919-1.5986c-.344-.0682-.836-.4139-.836-1.0511 0-.7064.506-1.09 1.342-1.09h1.578v3.7397Zm-.626-3.2175h-.973c-.454 0-.696.2003-.696.5728.001.3883.242.5729.696.5729h.973v-1.1457Zm-5.529-.5222h-.62v3.7397h.651l1.82-2.7993h.01v2.7993h.628v-3.7397h-.654l-1.815 2.7989h-.02v-2.7989Zm-3.888 0h-.623v3.7397h.623v-1.7097h1.732v1.7097h.623v-3.7397h-.623v1.5068h-1.732v-1.5068Zm-4.578 1.1375c0-.8975.61-1.2446 1.527-1.2446.296 0 1.372.0868 1.372 1.0475v2.1325c0 .1578.081.2357.209.2357.053 0 .129-.014.198-.0268v.459c-.102.027-.196.0681-.335.0681-.552 0-.631-.2893-.659-.571-.244.2621-.614.6074-1.341.6074-.677 0-1.155-.4302-1.155-1.0824 0-.4428.111-1.1025 1.418-1.2.973-.0796 1.044-.1553 1.044-.5446 0-.4093-.277-.6015-.865-.6015-.711 0-.803.4383-.84.7207h-.573Zm2.278.6936c-.099.0783-.252.1325-1.026.2328-.308.0429-.799.1297-.799.6004 0 .4086.217.6586.682.6586.581 0 1.143-.375 1.143-.8782v-.6136Zm-6.085-1.8311h1.689c.82 0 1.211.4386 1.211.9575 0 .4411-.301.7104-.622.8018.39.0936.842.3475.842.9889 0 .5965-.479.9915-1.362.9915h-1.758v-3.7397Zm.629 1.5476h.903c.541 0 .746-.1568.746-.5643 0-.2968-.185-.4611-.732-.4611h-.917v1.0254Zm0 1.6703h1.113c.483 0 .751-.1657.751-.5818 0-.4036-.307-.5943-.813-.5943h-1.051v1.1761Zm-3.052-3.325c1.185 0 1.718 1.0121 1.718 1.9722.001.9621-.533 1.9802-1.718 1.9802-1.187 0-1.718-1.0181-1.718-1.9802 0-.9601.531-1.9722 1.718-1.9722Zm0 3.4089c.891 0 1.079-.9321 1.079-1.4367 0-.5011-.188-1.4261-1.079-1.4261-.889 0-1.081.925-1.081 1.4261 0 .5046.192 1.4367 1.081 1.4367Zm-5.463-3.3018h.582v.5293c.206-.3014.475-.6364 1.125-.6364.98 0 1.533.8089 1.533 1.8672 0 .8927-.348 2.0852-1.612 2.0852-.496 0-.831-.2389-1.005-.5435v1.9125h-.623v-5.2143Zm.623 1.8604c0 .8135.32 1.4414.996 1.4414.396 0 .984-.2693.984-1.2654 0-.6143-.066-1.5757-.961-1.5757-.966-.0003-1.019.9115-1.019 1.3997Zm-4.014-1.8604h-.626v3.7397h.648l1.82-2.7993h.015v2.7993h.623v-3.7397h-.654l-1.815 2.7989h-.011v-2.7989Zm-1.243 1.259c-.054-.6503-.416-1.3661-1.391-1.3661-1.22 0-1.772.9268-1.772 2.0804 0 1.0789.617 1.872 1.652 1.872 1.09 0 1.446-.8356 1.511-1.4267h-.603c-.105.5725-.464.8832-.885.8832-.854 0-1.01-.7914-1.01-1.4367 0-.6629.245-1.4047 1.019-1.4044.522 0 .795.2972.876.7983h.603Zm-6.229-1.259h-.623v3.7397h.623v-1.7097h1.731v1.7097h.623v-3.7397h-.623v1.5068h-1.731v-1.5068Zm-4.581 1.1375c0-.8975.615-1.2446 1.533-1.2446.295 0 1.372.0868 1.372 1.0475v2.1325c0 .1578.078.2357.202.2357.058 0 .135-.014.206-.0268v.459c-.108.027-.198.0681-.341.0681-.553 0-.629-.2893-.657-.571-.247.2621-.616.6074-1.34.6074-.679 0-1.157-.4302-1.157-1.0824 0-.4428.113-1.1025 1.419-1.2.975-.0796 1.041-.1553 1.041-.5446 0-.4093-.272-.6015-.861-.6015-.707 0-.803.4383-.844.7207h-.573Zm2.278.6936c-.097.0783-.249.1325-1.018.2328-.31.0429-.802.1297-.802.6004 0 .4086.217.6586.679.6586.582 0 1.141-.375 1.141-.8782v-.6136Zm-5.525-1.8311h-.624v3.7397h.624v-1.7097h1.734v1.7097h.622v-3.7397h-.622v1.5068h-1.734v-1.5068Zm-4.016 0h-.627v3.7397h.655l1.816-2.7993h.014v2.7993h.624v-3.7397h-.654l-1.814 2.7989h-.014v-2.7989Zm-3.684-.8611c1.594 0 2.365.9904 2.365 2.0372 0 1.0443-.764 2.0346-2.365 2.0346v.529h-.679v-.529c-1.599 0-2.361-.9903-2.361-2.0346 0-1.0468.77-2.0372 2.361-2.0372v-.5303h.679v.5303Zm-.679 3.5254v-2.9821c-.951 0-1.656.4386-1.656 1.4939 0 1.0525.705 1.4882 1.656 1.4882Zm.679-2.9821v2.9821c.957 0 1.656-.4357 1.656-1.4882 0-1.0553-.699-1.4939-1.656-1.4939Zm48.72-7.5103c1.183 0 1.718 1.0117 1.718 1.9753.001.9589-.535 1.9775-1.718 1.9775-1.183 0-1.716-1.0186-1.716-1.9775 0-.9636.533-1.9753 1.716-1.9753Zm0 3.4089c.89 0 1.084-.9332 1.084-1.4336 0-.5046-.194-1.4317-1.084-1.4317-.891 0-1.079.9271-1.079 1.4317.001.5004.188 1.4336 1.079 1.4336Zm-4.454-3.2993v3.7368h.626V31.59h1.788v-.5229h-2.414Zm-2.426-.1096c1.186 0 1.721 1.0117 1.721 1.9753 0 .9589-.535 1.9775-1.721 1.9775-1.185 0-1.716-1.0186-1.716-1.9775 0-.9636.531-1.9753 1.716-1.9753Zm0 3.4089c.892 0 1.08-.9332 1.08-1.4336 0-.5046-.188-1.4317-1.08-1.4317-.89 0-1.078.9271-1.078 1.4317 0 .5004.188 1.4336 1.078 1.4336Zm-4.783-3.2993h-.624v3.7368h.624v-1.7122h1.729v1.7122h.631v-3.7368h-.631v1.5018h-1.729v-1.5018Zm-4.448 0h1.684c.823 0 1.215.435 1.215.9521 0 .4462-.3.7122-.625.8069.395.0892.843.3449.843.9867 0 .5961-.478.9911-1.36.9911h-1.757v-3.7368Zm.626 1.5425h.906c.538 0 .742-.1536.742-.5621 0-.2958-.183-.4575-.73-.4575h-.918v1.0196Zm0 1.6743h1.116c.483 0 .749-.1657.749-.5829 0-.4032-.31-.5943-.814-.5943h-1.051v1.1772Zm-4.019-3.2168h-.624v3.7368h.654l1.816-2.8011h.014v2.8011h.623v-3.7368h-.651l-1.816 2.7965h-.016v-2.7965Zm-4.234 0v.5229h1.219v3.2139h.627V31.59h1.219v-.5229h-3.065Zm-3.544 1.1378c0-.8992.61-1.2467 1.531-1.2467.294 0 1.375.0857 1.375 1.0457v2.135c0 .1568.073.2357.202.2357.057 0 .133-.0164.205-.0307v.46c-.107.0246-.197.07-.338.07-.554 0-.633-.2897-.658-.5704-.245.2607-.62.6068-1.341.6068-.678 0-1.157-.4303-1.157-1.0832 0-.4428.114-1.1028 1.416-1.2003.975-.0797 1.047-.1547 1.047-.5451 0-.4082-.277-.5982-.864-.5982-.71 0-.808.4336-.843.7214h-.575Zm2.282.6886c-.1.0782-.251.1383-1.028.234-.307.0435-.797.1278-.797.601 0 .4104.219.6593.681.6593.583 0 1.144-.375 1.144-.8757v-.6186Zm-6.207-1.8264h.583v.5261c.202-.3046.474-.6357 1.12-.6357.984 0 1.536.8064 1.536 1.8682 0 .8925-.349 2.0846-1.612 2.0846-.5 0-.826-.2418-1.003-.5439v1.9143h-.624v-5.2136Zm.624 1.8557c0 .8132.316 1.4436.998 1.4436.39 0 .98-.2707.98-1.2668 0-.6153-.064-1.5764-.967-1.5764-.965 0-1.011.9104-1.011 1.3996Zm-3.052-1.9653c1.188 0 1.719 1.0117 1.719 1.9753 0 .9589-.531 1.9775-1.719 1.9775-1.182 0-1.719-1.0186-1.719-1.9775 0-.9636.537-1.9753 1.719-1.9753Zm0 3.4089c.894 0 1.081-.9332 1.081-1.4336 0-.5046-.187-1.4317-1.081-1.4317-.889 0-1.079.9271-1.079 1.4317 0 .5004.19 1.4336 1.079 1.4336Zm-5.408-3.2993v3.7368h.626V31.59h1.733v3.2139h.623v-3.7368h-2.982Zm-3.944 0h.583v.5261c.201-.3046.473-.6357 1.121-.6357.981 0 1.534.8064 1.534 1.8682 0 .8925-.352 2.0846-1.61 2.0846-.5 0-.833-.2418-1.008-.5439v1.9143h-.62v-5.2136Zm.62 1.8557c0 .8132.319 1.4436.998 1.4436.393 0 .982-.2707.982-1.2668 0-.6153-.063-1.5764-.961-1.5764-.966 0-1.019.9104-1.019 1.3996Zm-3.05-1.9653c1.186 0 1.719 1.0117 1.719 1.9753 0 .9589-.533 1.9775-1.719 1.9775-1.185 0-1.716-1.0186-1.716-1.9775 0-.9636.531-1.9753 1.716-1.9753Zm0 3.4089c.894 0 1.081-.9332 1.081-1.4336 0-.5046-.187-1.4317-1.081-1.4317-.889 0-1.081.9271-1.081 1.4317 0 .5004.192 1.4336 1.081 1.4336Zm-5.394-4.6925h-.683v5.13h.683V33l.8-.7686 1.783 2.5725h.892l-2.176-3.0618 2.118-2.0682h-.949l-2.468 2.4864v-2.4864Zm12.24-6.3303h-.624v3.7361h.624v-1.4111l.526-.4953 1.201 1.9064h.742l-1.499-2.3468 1.413-1.3893h-.79l-1.593 1.6243v-1.6243Zm-3.833.0007h-.629v3.7354h.629v-1.7086h1.728v1.7086h.626v-3.7354h-.626v1.5043h-1.728v-1.5043Zm-4.526 1.1361c0-.8982.61-1.244 1.528-1.244.295 0 1.373.0855 1.373 1.0469v2.1324c0 .1579.077.2347.206.2347.056 0 .134-.0136.204-.03v.4593c-.103.0314-.197.0717-.338.0717-.554 0-.631-.2892-.66-.5735-.246.2643-.618.6114-1.338.6114-.681 0-1.155-.435-1.155-1.0846 0-.4454.111-1.1015 1.412-1.1979.98-.0797 1.046-.1557 1.046-.5471 0-.4093-.272-.6004-.863-.6004-.705 0-.805.4393-.84.7211h-.575Zm2.278.6929c-.099.0785-.249.1331-1.024.2314-.307.0421-.798.1289-.798.6003 0 .4107.219.6585.683.6585.58 0 1.139-.3735 1.139-.8753v-.6149Zm-3.261-3.2211v.6117h-2.898v1.5072h1.659c1.107 0 1.527.8535 1.527 1.5682 0 .8275-.587 1.4404-1.508 1.4404h-2.361v-5.1275h3.581Zm-2.898 4.5146h1.477c.565 0 1-.1915 1-.8353 0-.6918-.435-.9479-1.049-.9479h-1.428v1.7832Zm-26.5332-4.6289h-4.5601l-9.0882 9.3896V25.976c-.141.1076-.3047.1772-.4641.2073-.046.0092-.1063.0156-.1778.0156h-.0071c-.2265 0-.4758-.0757-.6788-.2571-.7997-.7193-1.86-2.0972-2.2459-2.7414 0-.0054 0-.0083-.0067-.0089v19.3477h3.5804v-6.95l2.941-2.9635 6.7549 9.9135h4.4675L69.516 30.0946l8.2238-8.2567Zm11.8506 5.1443v10.0917c3.1443-.3775 5.2556-1.6007 5.2556-4.9729.0003-3.3735-2.1417-4.7995-5.2556-5.1188Zm-3.6059 0c-3.1138.3193-5.251 1.7453-5.251 5.1188 0 3.3722 2.1066 4.5954 5.251 4.9729V26.9822Zm3.6059 13.2342v2.3228h-3.6059v-2.3228c-4.3847-.0926-8.8569-2.7086-8.8569-8.1154 0-5.2631 4.1533-8.1142 8.8569-8.2617v-2.0014h3.6059v2.0014c4.7865.1754 8.8573 2.9986 8.8573 8.2617 0 5.4068-4.4425 8.0228-8.8573 8.1154Zm-39.0406-7.5071H44.606v6.8635h6.0016c2.3656 0 3.5482-1.1314 3.5482-3.3696 0-2.1832-1.3534-3.4939-3.606-3.4939Zm.203 9.8299H41V21.8379h15.1154v3.1382H44.606v4.7685h6.1468c4.5006 0 7.0094 2.2986 7.0094 6.3678 0 4.104-2.5367 6.4271-7.0094 6.4268Z"/>
	</g>
</svg>