<svg xmlns="http://www.w3.org/2000/svg" viewBox="0 0 200 50">
	<path class="bg-logo" fill="#000" d="M0 0h200v50H0z"/>
	<path fill="#0AE15F" d="M71.2805 17.75v15.162h10.3722c2.1806 0 3.9478-1.7673 3.9478-3.9479V17.75h-14.32Z"/>
	<path fill="#fff" d="M39.0188 35.0971h2.5068v-6.2613h-2.2944V14h-4.6495v14.8358h-9.0979c-.4589 0-.8343-.3716-.8343-.8343V14H20v15.6626c0 1.7938 1.4563 3.25 3.2539 3.2538h14.6614l1.1035 2.1807ZM140.446 22.8928c1.328 0 2.427.4551 3.306 1.3653.881.9101 1.321 2.0972 1.321 3.5573 0 1.5624-.493 2.829-1.479 3.8075-.986.9785-2.223 1.4677-3.71 1.4677-1.535 0-2.806-.531-3.807-1.589-1.001-1.0582-1.513-2.6092-1.525-4.6533 0-1.4259.145-2.6471.437-3.6711.292-1.0201.683-1.843 1.171-2.4612.49-.6182 1.142-1.1074 1.954-1.4677.811-.3602 1.653-.5992 2.525-.7243.873-.1252 1.923-.1858 3.151-.1858v1.9872c-.989 0-1.827.0379-2.509.11-.683.0758-1.317.2085-1.905.3982-.588.1934-1.058.4664-1.411.8191-.352.3527-.636.804-.852 1.3577-.216.5499-.357 1.2249-.417 2.0175.359-.6826.875-1.2059 1.55-1.5814.675-.3679 1.407-.5537 2.2-.5537Zm-2.89 7.4596c.588.6145 1.335.9216 2.238.9216.902 0 1.661-.3071 2.268-.9216.606-.6143.91-1.4221.91-2.4233 0-.9671-.293-1.7483-.873-2.3399-.584-.5954-1.311-.8912-2.192-.8912-.891 0-1.653.2996-2.286.9026-.634.5992-.948 1.3766-.948 2.3323.003.9974.295 1.809.883 2.4195Zm16.944-7.7017h2.097v10.2204h-2.101v-1.7104c-.819 1.2894-2.006 1.9341-3.568 1.9341-1.376 0-2.507-.4968-3.391-1.4941-.887-.9974-1.327-2.2755-1.327-3.838 0-1.5472.448-2.8253 1.339-3.8265.891-1.0049 2.013-1.5055 3.363-1.5055 1.563 0 2.758.6561 3.588 1.9682v-1.7482Zm-3.125 8.438c.903 0 1.654-.311 2.249-.9291.596-.6183.892-1.4184.892-2.3969 0-.967-.296-1.7634-.892-2.3892-.595-.6257-1.342-.9366-2.249-.9366-.891 0-1.623.3109-2.192.9291-.569.6181-.853 1.4183-.853 2.3967 0 .9785.284 1.7786.853 2.3969.569.6181 1.297.9291 2.192.9291Zm16.929-8.4387h-2.1v4.0161h-5.428V22.65h-2.1v10.2204h2.1v-4.2171h5.428v4.2171h2.1V22.65ZM180 32.8704h-2.712l-4.812-4.7214v4.7214h-2.101V22.65h2.101v4.4219l4.422-4.4219h2.693l-4.999 4.8504 5.408 5.37Zm-135.9603.0422V14h4.6494v12.4504L59.5543 14h4.422v18.9126h-4.6495v-12.42l-10.8918 12.42h-4.3953Zm59.0063-6.1512c2.351 0 4.054-1.2477 4.054-4.0541v-4.6532c0-2.6092-1.445-4.0541-4.054-4.0541H88.5286v18.9164h4.6494v-6.155h9.868Zm-1.703-8.677c.88 0 1.107.3982 1.107 1.1908v2.3513c0 .6826-.314 1.0505-1.107 1.0505h-8.165v-4.5926h8.165Zm22.592 14.8282-1.647-3.2614h-10.292l-1.646 3.2614h-4.964L115.231 14h4.111l9.671 18.9126h-5.078Zm-6.804-14.2062-3.459 7.0348h6.891l-3.432-7.0348Zm-31.5264-.622h-12.932c-.584 0-1.058.4703-1.058 1.0543v3.5383h8.3963v4.0806h-8.3925v6.155h-4.6496V17.6521c0-2.0176 1.6346-3.6521 3.6521-3.6521h14.9837v4.0844Z"/>
</svg>