<svg xmlns="http://www.w3.org/2000/svg" viewBox="0 0 200 50">
	<path class="bg-logo" fill="#00414C" d="M0 0h200v50H0z"/>
	<path fill="#fff" d="M19.3 29.3008c-.7.8-1.6 1.2-2.8 1.2-2 0-3.4-1.7-3.4-4 0-2.2 1.4-4 3.4-4 1 0 1.9.4 2.6 1.1l1.8-1.9c-1.1-1.2-2.6-1.9-4.4-1.9-3.6 0-6.5 3-6.5 6.7 0 3.9 2.8 6.6 6.3 6.6 2 0 3.5-.7 4.7-2.1l-1.7-1.7Zm9.4-9.4c-3.8 0-6.7 3-6.7 6.7s2.7 6.6 6.6 6.6c3.8 0 6.7-3 6.7-6.7 0-3.8-2.7-6.6-6.6-6.6Zm-.1 10.6c-2.2 0-3.6-1.8-3.6-4s1.4-4 3.6-4 3.6 1.8 3.6 4-1.3 4-3.6 4Zm22.5-10.4h-3.7l-1.9 6.4c-.3 1-.6 2.4-.6 2.4s-.3-1.3-.7-2.4l-2-6.3h-3.8l-1.2 12.8h2.7l.6-6.9c.1-1.3.1-2.7.1-2.7s.3 1.4.7 2.7l2.2 7H46l2.2-7c.4-1.2.7-2.6.7-2.6s0 1.4.1 2.8l.6 6.9h2.8l-1.3-13.1Zm17.9 0h-3.7l-1.9 6.4c-.3 1-.6 2.4-.6 2.4s-.3-1.3-.7-2.4l-2-6.3h-3.8l-1.3 12.7h2.7l.6-6.9c.1-1.3.1-2.7.1-2.7s.3 1.4.7 2.7l2.2 7h2.5l2.2-7c.4-1.2.7-2.6.7-2.6s0 1.4.1 2.8l.6 6.9h2.8l-1.2-13Zm7.1 10.4v-2.8h4.7v-2.4h-4.7v-2.7h5.4v-2.5h-8.2v12.8h8.3v-2.4h-5.5Zm18-6.3c0-2.6-1.5-4.1-5.3-4.1H85v12.8h2.8v-4.7h.9l2.7 4.7h3.3l-3.1-5.2c1.5-.6 2.5-1.8 2.5-3.5Zm-2.9 0c0 1.2-.8 1.7-2.4 1.7h-1.2v-3.4h1.2c1.5 0 2.4.5 2.4 1.7Zm8.6 6.3 5.3-8.3v-2.1h-8.7v2.5h5.2l-5.3 8.2v2.1h8.9v-2.4h-5.4Zm15.3-4.2c1.3-.4 2.1-1.4 2.1-2.9 0-2.8-2.4-3.3-4.7-3.3h-4.4v12.8h4.9c2.3 0 4.8-1 4.8-3.7 0-1.6-1.1-2.7-2.7-2.9Zm-2.5-1h-1.7v-2.8h1.6c.9 0 1.8.3 1.8 1.3-.1 1.1-.8 1.5-1.7 1.5Zm-1.7 2.3h2.1c1.2 0 2 .4 2 1.4 0 1-.6 1.5-2 1.5h-2.1v-2.9Zm15.8-7.5h-3.5l-4.6 12.8h2.8l.9-2.6h5l.9 2.6h3l-4.5-12.8Zm-1.8 2.6s.2.9.6 1.8l1.1 3.4h-3.4l1.1-3.4c.4-.9.6-1.8.6-1.8Zm16.1-2.6v5.8c0 1.2.1 2.3.1 2.3s-.6-1-1.3-2l-4.1-6.1H133v12.8h2.6v-6.1c0-1.2-.1-2.3-.1-2.3s.6 1 1.3 2l4.3 6.4h2.5v-12.8H141Zm11.3 6 4.3-6h-3.2l-3.9 5.8v-5.8h-2.8v12.8h2.8v-6l4.1 6h3.4l-4.7-6.8ZM176.736 15.1187c-.503.6078-.951 1.2591-1.339 1.9462l-3.166 5.4872-3.172 5.4873c-.131.2321-.298.5237-.471.8808l-1.422-.2618c-.946-.1553-1.844-.5259-2.625-1.0832-.507-.369-.933-.8391-1.249-1.3808l-.292-.5177.22-.3809L170.302 13h8.529c-.296.2251-.576.4697-.839.732-.363.3571-1.066 1.1665-1.256 1.3867Zm7.618 21.1576-.304.5237h-14.628l-4.256-7.3798c.341.1486.694.27 1.054.363.488.1309 1.541.3452 1.827.3928.786.1355 1.583.1992 2.38.1904h13.641c.185.5297.453 1.2737.476 1.351.344.8962.474 1.8599.381 2.8151-.073.6133-.267 1.2061-.571 1.7438Zm6.118-10.6175-4.261 7.3918c-.046-.3697-.117-.7356-.214-1.0951-.131-.488-.477-1.5057-.596-1.7855-.262-.7374-.588-1.4504-.976-2.1306l-3.166-5.4873-3.172-5.4872c-.125-.2262-.304-.5238-.518-.8451l.905-1.0951c.609-.7447 1.384-1.3375 2.261-1.7319.575-.253 1.194-.3866 1.822-.3928h.595l7.32 12.6588Z"/>
</svg>