<svg xmlns="http://www.w3.org/2000/svg" viewBox="0 0 200 50">
	<path class="bg-logo" fill="#005BAA" d="M0 0h200v50H0z"/>
	<path fill="#fff" d="M80.354 35.0362c5.809 0 10.5181-4.7092 10.5181-10.5181C90.8721 18.7091 86.163 14 80.354 14s-10.5181 4.7091-10.5181 10.5181c0 5.8089 4.7091 10.5181 10.5181 10.5181ZM12.1091 24.6994c-.0417-.1549-.0417-.318 0-.4728.0306-.0831.0805-.1579.1454-.2181.061-.0748.1389-.134.2273-.1728.7633-.3665 1.3973-.9562 1.8182-1.6909.4962-.9713 1.2615-1.7792 2.2046-2.3273.943-.5481 2.0239-.8132 3.1135-.7635v.7727c.0137.183-.0414.3646-.1546.5091-.1118.1404-.2695.237-.4454.2727-.6813.1284-1.3251.4083-1.8837.819-.5586.4107-1.0177.9417-1.3435 1.5537-.1692.3626-.4117.6864-.712.9508-.3004.2644-.6523.4637-1.0335.5855l5.6545 5.8545c-.811.0404-1.624.0008-2.4272-.1182-.5078-.2401-.9505-.5986-1.2909-1.0454l-3.6727-4.1181c-.1033-.1045-.1729-.2375-.2-.3819v-.009Zm17.1362 1.1272c0 3.1212-1.2788 4.6788-3.8364 4.6727-1.5363 0-2.5636-.4091-3.0818-1.2364v4.5455c-.5535.0618-1.1139-.0067-1.6363-.2-.1636-.1273-.2182-.5637-.2182-1.3546V21.2812c.4202-.0534.8469.0063 1.2364.1727.1182.1182.1818.4909.1727 1.1364.5545-.9091 1.7091-1.4182 3.4818-1.4273 2.5818-.0303 3.8757 1.5243 3.8818 4.6636Zm-1.9182 0c.0549-.7817-.1021-1.5637-.4545-2.2636-.2387-.3021-.5493-.5395-.9035-.6904-.3542-.1509-.7406-.2104-1.1238-.1732-1.2727 0-2.0091.1363-2.2363.4-.2273.2636-.3182 1.1727-.3182 2.7272-.0501.756.1004 1.5118.4363 2.1909.2364.3166.5507.5667.9123.726.3615.1593.7582.2224 1.1514.1831 1.2727 0 2.009-.1273 2.2181-.3727.3007-.8757.4093-1.8059.3182-2.7273Zm11.2999-.7727c0 .7454-.0818 1.1909-.2455 1.3273-.5463.185-1.1268.247-1.6999.1818h-4.7455c-.0181.31.0315.6202.1455.9091.1076.2886.2784.5496.5.7636.5226.4437 1.1979.6655 1.8818.6182h1.9909c.4435-.0557.8937.0135 1.3.2.1809.4143.2499.8688.2 1.3181h-3.4091c-3.0303 0-4.5454-1.5394-4.5454-4.6181 0-3.0788 1.5151-4.6242 4.5454-4.6363.5601-.0328 1.1209.0513 1.6468.2469.5258.1957 1.0052.4986 1.4077.8894.3374.3738.5997.809.7727 1.2818.1752.4773.2615.9826.2546 1.4909v.0273Zm-1.9454 0c0-1.6454-.7364-2.4454-2.2909-2.4454-.7317-.0936-1.475.0197-2.1455.3272-.2242.2182-.3333.9273-.3272 2.1273l4.7636-.0091Zm11.718 5.2818v.5181c0 .7818-.0727 1.2364-.2182 1.3546-.5273.1857-1.0889.254-1.6454.2V30.372h-5.8818v2.0364c-.5535.0566-1.1127-.0118-1.6363-.2-.1636-.1364-.2273-.5728-.2273-1.3546v-.4818c0-.7818.0727-1.2181.2-1.3272.2244-.1432.4891-.2102.7546-.1909 1.1818-1.1273 1.5181-4.3182 1.5272-6.1363v-.1819c-.0503-.3903.0194-.7867.2-1.1363.4087-.1782.8567-.2471 1.3-.2h3.1545c.7364 0 1.1636.0636 1.2909.2.1273.1364.1909.5.2 1.1727v6.2545c.28-.0202.5593.0464.8.1909.1364.1182.2.5454.1818 1.2909v.0273Zm-2.8545-2.1v-5.5363h-2.6182c-.0123.8851-.0791 1.7685-.2 2.6454-.1266 1.2011-.4554 2.3722-.9727 3.4636h3.2c.4636 0 .5636-.2545.5909-.4273v-.1454ZM11.9545 30.372c-.5775.0633-1.1618-.0051-1.709-.2-.1637-.1272-.2455-.5969-.2455-1.409v-9.7272c.5755-.0553 1.1563.0034 1.7091.1727.1636.1182.2454.5455.2454 1.2636v9.8999Zm37.3633-.0636v-9.0908c.5725-.0504 1.1493.0082 1.7.1727.1636.1182.2454.5.2454 1.1818v5.3454l3.4091-5.5454c.2277-.3947.5377-.7358.9091-1 .4458-.1274.9097-.1796 1.3727-.1545h1.0181v7.5635c0 .7818-.0818 1.2455-.2454 1.3727-.5471.1959-1.1316.2643-1.7091.2v-6.8181l-3.409 5.4545c-.2366.4195-.5442.7948-.9091 1.1091-.4187.1378-.8607.1904-1.3.1545l-1.0818.0546Zm17.9998-9.0908c.0587.4821-.0103.9711-.2 1.4181-.425.1883-.8932.2574-1.3545.2H64.054v7.5363c-.5625.0574-1.1307-.0109-1.6636-.2-.1636-.1363-.2364-.5909-.2364-1.3818v-5.9636h-3.2636c-.0549-.4804.0075-.967.1818-1.4181.3848-.1826.8136-.252 1.2364-.2l7.009.0091ZM110.263 27.6441c0-.7818-.528-1.2182-1.818-1.2182h-3.709v2.4818h3.636c.556.0479 1.115-.0013 1.654-.1454.164-.1.237-.4.237-1.1182Zm-1.891-5.0454h-3.636v2.3182h3.709c.483.0453.97-.0009 1.436-.1364.1-.0636.154-.3182.154-1.0091 0-.6909-.481-1.1909-1.663-1.1909v.0182Zm-3.827 7.7727c-.444.0487-.892-.0073-1.309-.1637-.137-.1091-.182-.4818-.182-1.1272v-6.6454c0-.6455.063-1.0455.182-1.1455.417-.1573.865-.2134 1.309-.1636h3.809c2.278 0 3.421.8 3.427 2.4 0 1.009-.355 1.6272-1.064 1.8636l-.136.0454.136.0455c.403.1596.741.4471.964.8182.257.4011.39.8691.382 1.3454 0 1.8182-1.212 2.7273-3.637 2.7273h-3.881Zm17.363-4.6273c0 3.1212-1.276 4.6788-3.827 4.6727-1.546 0-2.564-.4091-3.082-1.2363v4.5454c-.556.0609-1.12-.0076-1.645-.2-.164-.1273-.219-.5637-.219-1.3455V21.1442c.71 0 1.119.0545 1.237.1727.118.1182.182.4818.182 1.1273.545-.9091 1.709-1.4182 3.481-1.4182 2.546 0 3.837 1.6091 3.837 4.6818l.036.0363Zm-1.9 0c.051-.7834-.113-1.5659-.473-2.2636-.235-.3013-.542-.5384-.893-.6893-.352-.151-.735-.2109-1.116-.1743-1.272 0-2.027.1363-2.245.4-.218.2636-.318 1.1818-.318 2.7272-.057.7662.097 1.5335.445 2.2182.234.3172.546.568.907.7274.36.1594.756.2221 1.148.1817 1.272 0 2.009-.1182 2.218-.3728.318-.8937.427-1.8485.318-2.7908l.009.0363Zm11.945 0c0 3.1091-1.515 4.6606-4.545 4.6545-3.03-.006-4.524-1.5575-4.482-4.6545 0-3.0848 1.515-4.6272 4.546-4.6272 3.03 0 4.512 1.5212 4.445 4.5636l.036.0636Zm-1.936 0c.048-.7534-.123-1.5046-.491-2.1636-.238-.3194-.555-.5713-.92-.7307-.365-.1595-.766-.2209-1.162-.1784-1.3 0-2.045.1273-2.263.3909-.302.8597-.408 1.776-.309 2.6818 0 2.0727.848 3.1091 2.545 3.1091 1.303 0 2.058-.1273 2.264-.3818.316-.8942.425-1.8485.318-2.7909l.018.0636Zm11.118 4.3454c-.547.1949-1.131.2633-1.709.2V23.026h-4.545v7.1999c-.578.0633-1.162-.0051-1.709-.2-.155-.1273-.237-.5909-.237-1.3727v-5.809c-.057-.5208.011-1.0478.2-1.5364.118-.1545.582-.2454 1.364-.2454h5.3c.782 0 1.236.0818 1.373.2454.184.4899.252 1.0157.2 1.5364v5.809c-.019.8091-.1 1.2363-.273 1.3727l.036.0636Zm9.727.2c-.718 0-1.127-.0545-1.245-.1818-.118-.1273-.173-.5091-.173-1.1909-.321.4261-.761.7485-1.263.9273-.724.3227-1.509.484-2.3.4727-.883.0438-1.758-.1812-2.509-.6454-.336-.2326-.607-.5451-.791-.9091-.18-.3638-.265-.7673-.246-1.1727-.022-.4039.047-.8076.2-1.1818.158-.3679.39-.699.682-.9728.823-.6299 1.848-.9371 2.882-.8636h2.863c.029-.2678-.012-.5385-.117-.7865-.105-.248-.271-.4654-.483-.6317-.57-.3273-1.226-.4731-1.881-.4181h-1.819c-.415.0526-.836-.0103-1.218-.1819-.127-.1181-.182-.5818-.182-1.3545h3.191c1.7 0 2.882.3546 3.555 1.0455.323.3926.566.8453.715 1.332.148.4867.198.9979.148 1.5043l-.009 5.209Zm-1.818-3.8999v-.2909h-2.682c-.613-.0612-1.232.0069-1.818.2-.182.1363-.272.5545-.272 1.2909 0 .7363.681 1.3 2.045 1.3.782.0993 1.577-.0137 2.3-.3273.323-.6982.443-1.4733.345-2.2364l.082.0637Zm-47.227 3.9818h-5.9905c-.5745.0634-1.1559-.005-1.6999-.2-.1637-.1364-.2455-.6091-.2455-1.4273v-8.1817c0-.8182.0818-1.3.2455-1.4273.544-.1951 1.1254-.2635 1.6999-.2h4.3905c.8 0 1.273.0636 1.4.2.128.1364.2.6091.2 1.4273h-5.9905v3.1636h3.8545c.47-.0611.948.0081 1.382.2.136.1363.2.5909.2 1.3818h-5.4546v3.409h4.2546c.515-.0609 1.037.0078 1.518.2.211.454.293.9572.236 1.4546Z"/>
	<path fill="#ED1C24" d="M183.635 30.291c-.578.0581-1.161-.0101-1.709-.2-.164-.1394-.246-.6121-.246-1.4182v-7.6272c.576-.0545 1.157.0073 1.709.1819.164.1181.246.5363.246 1.2636v7.7999Zm6.363 0c-.71.0257-1.422-.0078-2.127-.1-.408-.1868-.762-.4747-1.027-.8364l-2.864-3.2817c-.113-.1359-.177-.3055-.182-.4819 0 0 0-.4909.328-.6454.655-.3576 1.211-.8732 1.618-1.5.414-.7533 1.034-1.3736 1.787-1.7888.753-.4151 1.609-.6082 2.467-.5566v.7091s.055.7545-.454.8272c-.509.0728-1.437.2455-2.582 1.8182-.285.4383-.664.8079-1.109 1.0818l4.145 4.7545Zm-19.381 0c-.709 0-1.128-.0545-1.237-.1727-.17-.3756-.233-.7909-.182-1.2-.296.4456-.721.791-1.218.9909-.726.324-1.514.4853-2.309.4727-.883.0397-1.756-.1953-2.5-.6727-.338-.2296-.61-.5428-.791-.9091-.183-.366-.271-.7727-.254-1.1818-.018-.4015.054-.802.209-1.1727.153-.3704.386-.7025.682-.9727.822-.6316 1.847-.9389 2.881-.8637h2.855c.044-.2796.014-.5659-.086-.8305-.101-.2647-.268-.4985-.487-.6785-.57-.3289-1.226-.4778-1.882-.4273h-1.818c-.7 0-1.1-.0545-1.218-.1727-.174-.4288-.237-.8949-.182-1.3546h3.191c1.7 0 2.891.3546 3.555 1.0455.323.3926.566.8453.714 1.332.149.4867.199.998.149 1.5043l-.072 5.2636Zm-1.864-3.9v-.2909h-2.582c-.613-.0572-1.232.0109-1.818.2-.182.1364-.264.5546-.264 1.2909 0 .7364.682 1.3 2.037 1.3.785.0988 1.582-.0142 2.309-.3273.305-.7032.415-1.4758.318-2.2363v.0636Zm-7.982-1.3545c.065.0785.126.1605.182.2455l.091.1454c-.069-.1636-.161-.3166-.273-.4545v.0636Zm.646 1.9091c0 2.2181-1.515 3.3272-4.546 3.3272h-2.663c-.548.0567-1.101-.0117-1.618-.2-.155-.1363-.219-.6-.219-1.4v-8.1817c0-.8.073-1.2727.219-1.4.516-.1931 1.07-.2616 1.618-.2h6.527c-.029.3906-.08.7791-.155 1.1636-.081.2728-.191.4273-.754.4273h-5.455v3.1636h2.964c.643-.0494 1.288.0477 1.888.2839.6.2362 1.139.6053 1.576 1.0797.103.1225.191.2567.263.4.252.4487.375.9585.355 1.4727v.0637Zm-1.973 0c0-1.1273-.8-1.6818-2.409-1.6818h-2.664v3.3818h2.609c.727.0718 1.46-.0055 2.155-.2273.2-.1455.318-.6455.309-1.5182v.0455Zm20.909 3.3181c-.584.0633-1.174-.0051-1.727-.2-.164-.1272-.237-.6-.237-1.4181v-2.5364h-4.545v4.1182c-.575.0648-1.156-.0037-1.7-.2-.164-.1273-.255-.6-.255-1.4182v-7.5363c.59-.064 1.187.0075 1.746.2091.154.1273.236.5909.236 1.3727v1.9h4.546v-3.4818c.583-.0632 1.173.0051 1.727.2.154.1273.236.5909.236 1.3727v7.5727l-.027.0454ZM80.354 14.7461c-1.9354-.0018-3.8278.5706-5.4378 1.6447-1.61 1.0742-2.8652 2.6018-3.6066 4.3895-.7415 1.7878-.936 3.7553-.5589 5.6536.3772 1.8983 1.309 3.6421 2.6775 5.0106 1.3686 1.3686 3.1124 2.3004 5.0107 2.6775 1.8983.3772 3.8658.1827 5.6536-.5588 1.7877-.7415 3.3153-1.9966 4.3894-3.6066 1.0742-1.61 1.6466-3.5025 1.6448-5.4379 0-1.2833-.2528-2.5541-.7439-3.7398-.4911-1.1857-1.211-2.263-2.1185-3.1705-.9074-.9074-1.9848-1.6273-3.1704-2.1184-1.1857-.4911-2.4565-.7439-3.7399-.7439Zm0 14.5999-4.8181-4.8273 4.8181-4.8181 4.8182 4.8181-4.8182 4.8273Z"/>
</svg>