<svg xmlns="http://www.w3.org/2000/svg" viewBox="0 0 200 50">
	<path class="bg-logo" fill="#183964" d="M0 0h200v50H0z"/>
	<path fill="#fff" d="M10 25.6069c0-1.9722.7635-3.881 2.0679-5.3126 1.5269-1.6225 3.6583-2.4815 6.1716-2.4497 1.5588 0 3.1177.3818 5.0583 1.2407l.0955.0318.2544 3.2133-.3818.1271-.0635-.1592c-1.196-2.832-3.4503-2.8314-4.7305-2.8312h-.0415c-4.1357 0-5.5354 2.7042-5.5354 5.8536 0 3.2766 1.3997 6.299 5.5036 6.299.0906 0 .1956.0046.3128.0097 1.0765.0473 3.1806.1394 4.5864-2.873l.0636-.1271.4135.0318-.2544 3.0857-.0955.0638c-2.0996 1.3042-4.2947 1.4951-5.4082 1.4951-2.1314 0-4.1039-.7318-5.599-2.0996C10.8589 29.7745 10 27.8022 10 25.6069Zm126.171.4136c-2.036-1.018-3.277-2.0361-3.245-4.1037.032-2.5453 2.417-3.9131 4.645-3.9131.572 0 2.004.0953 3.149.859l.095.0635.159 2.7041-.509.0638-.063-.1909c-.191-.7636-1.05-2.1952-3.054-2.227-.668 0-1.241.2227-1.654.6045-.382.3818-.605.8907-.605 1.3999 0 1.1451.7 1.6222 2.768 2.6403l.35.1909.095.0505c1.873.9985 3.627 1.9332 3.627 4.4988 0 1.1451-.446 2.1632-1.273 2.9903-.922.9225-2.29 1.4634-3.658 1.4634-1.877-.0317-3.213-.7953-4.009-1.2407l-.127-.0635-.127-3.1177.509-.0956.063.1909c.319 1.0816 1.178 2.9268 3.564 2.9586.827 0 1.495-.2227 1.972-.6998.668-.6998.732-1.5905.732-1.8452 0-1.4795-1.028-1.9932-2.591-2.7742l-.05-.0253-.763-.3818Zm-11.168.0006c-2.036-1.0181-3.277-2.0361-3.245-4.104.032-2.545 2.386-3.9128 4.613-3.8811.573 0 2.004.0954 3.15.859l.095.0635.191 2.7359-.509.0638-.064-.2227c-.191-.7636-1.05-2.1952-3.054-2.227-1.654-.0317-2.258 1.1772-2.258 1.9723 0 1.1454.699 1.6226 2.767 2.6406l.35.1909.095.0505c1.873.9985 3.627 1.9332 3.627 4.4988 0 1.1452-.445 2.1632-1.272 2.9904-.923.9225-2.291 1.4634-3.659 1.4634-1.877-.0318-3.213-.7954-4.008-1.2407l-.127-.0636-.128-3.1177.509-.0956.064.1909c.318 1.0816 1.177 2.9268 3.563 2.9586.827 0 1.495-.2227 1.972-.6998.668-.6998.732-1.5907.732-1.8452 0-1.4794-1.028-1.9932-2.59-2.7742l-.05-.0252-.764-.3818Zm-73.9006-7.8577.0316.3818h.0321c.2227.0953.4134.6363.4134 1.0816v13.3933h4.2629c2.7995 0 5.1538-.859 6.7443-2.5133 1.3364-1.368 2.068-3.2447 2.068-5.1538 0-1.1451-.3818-2.8947-1.4952-4.3263-1.4634-1.9088-3.7859-2.8951-6.9353-2.8951l-5.0581.0318h-.0637Zm4.3584 1.4316c.3499 0 1.2405.0318 1.877.1274 4.1992.6362 4.6446 4.1672 4.6446 5.6306 0 1.209-.2226 2.9589-1.2725 4.2949-1.0179 1.3043-2.6088 1.9723-4.7718 1.9723-.5092 0-1.1454 0-1.8454-.0318.0321-.0953.0321-11.866.0321-11.9934h1.336Zm-29.7771-1.0498-.0318-.0318v-.35h4.1356c1.9725 0 3.4359.4454 4.3585 1.336.9226.891 1.0498 1.9088 1.0498 2.4497 0 1.9088-1.368 3.1813-2.7678 3.6266.7317.3818 1.1772.9863 1.4316 1.3681l.0318.0318.9543 1.5269.2269.3525.0245.0377.0311.0486.3065.4788c.6607 1.033 1.1225 1.755 1.4471 2.1048.6363.7316 1.1136.9542 1.4317 1.0498l.7636.2227-.2228.0635-.5408.1274c-.4773.1271-1.6862.1589-2.2906.0635-.8589-.1273-1.5271-.6044-2.0678-1.3998-.6909-1.0813-1.3817-2.2194-1.9119-3.0927l-.0923-.1521-.3182-.5092-.0637-.0953c-.4771-.8271-.8589-1.4634-1.845-1.5269h-1.1135v6.776H26.129V19.8812c0-.668-.2226-1.2089-.4453-1.336Zm6.9034 3.4357c0-.2227-.0637-2.3859-2.6087-2.4815-.3507-.0184-.6585-.0154-.9112-.0097l-.1728.0043c-.1086.003-.2038.0054-.2839.0054v5.3765c.0954 0 .9863.0318.9863.0318 1.3997 0 2.9903-.7633 2.9903-2.9268Zm51.1252-3.754.0316 2.3862h-.3818v-.0638c-.0953-.4454-.6679-.9225-1.5589-.9225h-2.6401v13.425h-2.5453V19.595h-2.5769c-.8589 0-1.5589.7316-1.6223 1.1134v.0318l-.35.0317v-2.6085h11.6116v.0635h.0321Zm-16.7991.3183-.0319-.0318v-.35h2.9269l.0318.0318v14.8566h-2.4816V19.7859c0-.0412-.0008-.082-.0025-.1219-.0047-.1227-.0168-.2387-.0353-.3462-.0677-.3962-.2203-.6792-.4074-.7726Zm-27.3263-.3818.0321.35h.0316c.2227.1271.4771.6363.4771 1.3361v13.1706h8.3349l.6045-2.6406-.3497-.1271-.0956.1589c-.7 1.0816-1.3996 1.2089-3.8174 1.2089-.6686.0247-1.3371-.0274-1.8407-.0671l-.1617-.0125-.015-.001-.1537-.0112-.056-.0035v-6.0763h4.2312v-1.3363h-4.2312v-4.6129l.7438.0066.9896.0092 1.7024.016c.7636 0 1.6225.7319 1.6862 1.1772v.0635h.3499l-.0955-2.6085h-8.3668Zm75.2351.35-.031-.35h2.926l.064.0318v14.8566h-2.482V19.7859c0-.6362-.19-1.1454-.445-1.2725h-.032Zm29.301-.35.032.3818h.032c.222.1274.477.6045.477 1.3043v13.1706h8.335l.604-2.6406-.381-.1271-.096.1591c-.7 1.0816-1.4 1.2087-3.785 1.2087-.232.0084-.463.0079-.687.0019-.609-.0165-1.168-.0738-1.54-.0972v-6.0763h4.231v-1.3363h-4.231v-4.6126c.049 0 .578.0046 1.206.0106l2.229.0212c.955 0 1.655.6998 1.655 1.1769v.0638l.381-.032-.063-2.6086-.064.0318h-8.335Zm-55.067 3.7534c-.032 2.0679 1.2088 3.0859 3.2448 4.104l.7636.3818.049.0244c1.5631.7813 2.5913 1.2953 2.5913 2.775 0 .2545-.0634 1.1452-.7317 1.8452-.4771.4772-1.145.6998-1.9723.6998-2.3858-.0317-3.2448-1.8769-3.5629-2.9585l-.0637-.1909-.5091.0953.1273 3.1177.1271.0638.0348.0195c.7994.4478 2.1241 1.1897 3.9739 1.2209 1.3678 0 2.7356-.5406 3.6582-1.4631.8273-.8271 1.2725-1.8452 1.2725-2.9906 0-2.5656-1.7542-3.5006-3.6279-4.4991l-.094-.05-.3499-.1909c-2.068-1.018-2.7679-1.4951-2.7679-2.6405 0-.7954.6046-2.0041 2.2587-1.9723 2.0044.0317 2.8634 1.4634 3.0542 2.2267l.0635.2227.5089-.0636-.159-2.7041-.0954-.0635c-1.1453-.7636-2.5768-.859-3.1493-.859-2.2269-.0635-4.6131 1.3043-4.6447 3.8493Zm20.485-3.7534.032.35h.031c.096.0636.414.2863.414 1.209v8.4304c0 1.6225-.604 3.5948-3.467 3.5948-2.705 0-3.277-1.6226-3.277-4.0402v-9.5758h-3.118l.032.3183h.032c.19.0953.54.5089.54 1.3043v7.9214c0 4.9309 3.245 5.4718 5.695 5.4718 1.209 0 5.09-.35 5.09-4.9946V18.0999l-.032.0635h-1.972ZM169.798 11.0375c3.15 2.0679 13.139 9.0031 20.169 18.4197.054.0891.038.1882-.021.2468-.001.0014-.003.003-.004.0044-.018.0163-.039.0293-.063.0375-.038.0133-.084.0144-.134-.0025-1.145-.3182-3.945-1.018-6.999-1.5269-.032 0-.064 0-.095-.0321-2.927-2.5129-5.886-4.8035-8.781-6.8396-.032-.0317-.063-.0635-.063-.1273-.605-3.0539-1.846-6.7126-4.263-9.8938-.128-.1909.063-.4136.254-.2862Zm4.867 16.8607c2.195-.3818 5.185-.1273 7.953.318.018 0 .033.0024.046.0068.006.0022.013.0049.018.0081l.007.0041c.016.012.024.0283.024.0445 1.941 1.7182 3.85 3.5313 5.663 5.4718.076.0761.061.1975-.004.2694-.043.0486-.11.0744-.187.0489-2.45-.668-11.23-2.7677-19.978-1.0816-.066 0-.131-.0299-.176-.0793-.021-.0228-.037-.0497-.047-.0798-.35-1.6226-3.086-13.8069-10.88-20.9647-.159-.1592.032-.4136.223-.318 2.672 1.2725 9.194 4.6446 16.415 9.7028.064.0318.096.0636.096.1271.604 3.086.604 5.5674.604 6.331 0 .1271.096.2227.223.1909Z"/>
</svg>