<svg xmlns="http://www.w3.org/2000/svg" viewBox="0 0 200 50">
	<path class="bg-logo" fill="#DB082B" d="M0 0h200v50H0z"/>
	<g fill="#fff">
		<path d="M97.6359 16.3811c.7163-.5731 1.0745-1.5759 1.0028-2.6504-.0716-1.0029-.573-1.5043-1.0028-1.7909-.5015-.2865-1.1462-.3581-2.0058-.3581h-.7879l.2149-1.4327h3.1518l.3582-1.79083h-5.5874l-1.0029 8.73923h3.2952c.5014 0 1.5759-.0716 2.3639-.7163Zm-2.937-2.937h.7163c.1433 0 .3582 0 .5731.2149.1433.1433.2149.3582.2149.5015 0 .4298-.1433.7163-.3582.9312-.1432.1433-.3581.2149-.6447.2149h-.7163l.2149-1.8625Zm6.2321 3.6533.716-1.6475h2.078l.286 1.6475h2.221l-1.576-8.73923h-2.292l-3.7969 8.73923h2.3639Zm1.862-4.871c.144-.4298.144-.2866.43-1.3611-.071.6447-.071.9313 0 1.2178l.215 1.5759h-1.074l.429-1.4326Zm6.591 1.2177h1.791l-.43 3.6533h2.292l1.003-8.73923h-2.221l-.358 3.22353h-1.791l.358-3.22353h-2.292l-1.003 8.73923h2.293l.358-3.6533Zm7.879-.2149h.359c.143 0 .501.0717.716.2866.215.2149.215.573.286.8596l.144 1.0028c0 .4298 0 .7164.358 1.0745.43.5731 1.074.5731 1.576.6447l.644.0717.645-1.4327-.358-.1433c-.143-.0716-.287-.0716-.43-.2149-.286-.2149-.286-.5014-.358-.7879l-.286-.9313c-.072-.2865-.144-.573-.287-.7879-.143-.2149-.43-.4298-.716-.5015v-.0716c.501-.0716.716-.3582.716-.3582.072-.0716.287-.2865.573-.9312l.358-.788c.072-.1432.215-.35813.358-.5014.144-.07163.287-.14327.43-.14327l.573-.14326L122.206 8l-.716.07163c-.573.07164-.931.14327-1.29.4298-.286.2149-.501.50144-.716 1.00287l-.358 1.0029c-.072.2865-.215.573-.43.7163-.286.2865-.573.2865-.788.2865h-.501l.429-3.2951h-2.22l-1.003 8.7393h2.221l.429-3.725ZM97.6359 21.682c-.0717-.5015-.2149-1.0029-.8596-1.5043-.2866-.1433-.9313-.5015-2.2923-.5015h-2.8653l-1.0029 8.7393h2.2206l.3582-3.0802h.8596c.8596 0 2.0774-.2149 2.937-1.1462.4298-.6447.7163-1.5759.6447-2.5071Zm-2.6505 1.5043c-.3581.3581-.7163.3581-.9312.3581h-.6447l.2149-2.0057h.7163c.1433 0 .4298 0 .6447.1433.1433.1432.2149.2865.2149.4298 0 .3581-.0716.8596-.2149 1.0745Zm5.8736-3.4384-3.7962 8.7392h2.4355l.7167-1.6476h2.077l.287 1.6476h2.292l-1.648-8.7392h-2.364Zm0 5.3008.502-1.4326c.143-.4298.143-.2866.43-1.3611-.072.6447-.072.9313 0 1.2178l.214 1.5759h-1.146Zm10.316-1.9341c.286-.3581.501-.9312.429-1.5043-.071-.7879-.501-1.2177-.788-1.5043-.573-.4298-1.289-.5014-1.934-.5014-.716 0-1.289.0716-1.934.2865-.358.1433-.716.2149-.931.4298l.788 1.6476c.645-.4298 1.146-.5014 1.576-.5014.215 0 .501 0 .716.2149.143.1432.215.3581.215.5014.072.4298-.072.7163-.358.8596-.287.1433-.716.2149-1.003.2149h-.645l-.215 1.6476v.0716h.717c.43 0 .716 0 .859.1433.287.2149.359.5014.359.6446 0 .5015-.144.788-.43.9313-.287.2149-.645.2865-1.003.2865-.358 0-.645-.0716-.86-.1433-.215-.0716-.501-.2148-.716-.4297l-1.003 1.5042c.287.2149.645.4298.931.5731.573.2865 1.218.3582 1.72.3582 1.289 0 2.149-.3582 2.793-.8596.717-.6447 1.075-1.576 1.003-2.5072 0-.3581-.143-.7163-.358-.9312 0 0-.358-.5014-1.003-.6447.43-.2149.86-.5014 1.075-.788Zm8.166-1.7192c-.072-1.0028-.86-1.7192-2.006-1.7192v.0717h-3.868l-1.003 8.7392h3.51c2.865 0 3.295-2.0774 3.223-3.0086-.071-.8596-.716-1.4326-1.361-1.6475 1.218-.4298 1.576-1.576 1.505-2.4356Zm-3.51 5.2292h-.86l.215-1.7191h.788c.573 0 .716.2149.716.573.072.5731-.286 1.1461-.859 1.1461Zm.358-3.5816h-.86l.144-1.5043h.859c.502 0 .716.1433.716.5014.072.6447-.358 1.0029-.859 1.0029Zm7.378.5014c-.286.5731-.501.9313-.716 1.5043.071-.2149.215-1.2177.286-1.6475l.43-3.6533h-2.221l-1.002 8.7392h2.292l2.077-3.7965c.358-.7164.717-1.2894.717-1.5043-.215 1.1461-.287 1.4326-.287 1.6475l-.43 3.6533h2.221l1.003-8.7392h-2.293l-2.077 3.7965Zm6.519 4.9427h2.149l.788-6.9484h2.077l.501-1.8625h-6.59l-.215 1.8625h2.078l-.788 6.9484Zm7.664 0 2.078-3.7965c.358-.7164.716-1.2894.716-1.5043-.215 1.1461-.286 1.4326-.286 1.6475l-.43 3.6533h2.22l1.003-8.7392h-2.22l-2.078 3.7965c-.286.5731-.501.9313-.716 1.5043.072-.2149.215-1.2177.287-1.6475l.429-3.6533h-2.22l-1.003 8.7392h2.22Zm11.892-6.9484.358-1.8625h-5.015l-1.002 8.8109h5.157l.215-1.8625h-3.009l.215-1.7908h2.149l.215-1.7908h-2.149l.144-1.5043h2.722ZM92.4066 34.5759c.1433-.5014.2866-.9312.5731-1.2177.2865-.2866.7163-.5731 1.2178-.5731.3581 0 .8596.0716 1.2894.4298l1.0028-1.5043c-.3581-.2865-.9312-.6447-2.149-.6447-1.7192 0-2.6504.7163-3.1518 1.1461-1.2178 1.2178-1.6476 3.2235-1.5043 4.9427 0 .5731.2149 1.3611.9312 2.0774.788.7163 1.7908.8596 2.3639.8596.788 0 1.9341-.1433 2.7937-.9312l-.788-1.576c-.2865.2866-.7879.6447-1.5043.6447-.3581 0-.7163-.1432-.8596-.3581-.2865-.2866-.4298-.7164-.4298-.9313-.0716-.3581 0-.9312 0-1.2177.1433-.3582.1433-.788.2149-1.1462Zm4.4413-3.4384L96.633 33h2.0774l-.788 6.8768h2.2206L100.931 33h2.077l.502-1.8625h-6.6621Zm14.2551 3.0803c-.143-1.1462-.573-1.8625-.931-2.3639-.717-.788-1.648-.9313-2.364-.9313-1.576 0-2.651.6447-3.439 1.576-.931 1.1461-1.289 3.0086-1.146 4.5129 0 .6447.215 1.5043.931 2.2206.788.7163 1.72.8596 2.436.8596 1.433 0 2.436-.5014 3.224-1.2894 1.002-1.1461 1.432-3.0086 1.289-4.5845Zm-2.937 2.7937c-.501 1.2894-1.146 1.361-1.504 1.361-.287 0-.573-.0716-.717-.2149-.358-.2865-.429-.8596-.429-1.0029-.072-.9312.143-2.2922.429-3.0086.43-1.0028.932-1.2894 1.576-1.2894.144 0 .502 0 .717.2149.286.2866.358.7164.286.9313.143 1.1461-.072 2.2206-.358 3.0086Zm7.593 2.9369v-.1432.1432Zm-2.435-7.3066c-.144.8596-.43 2.5788-.645 3.4384-.072.4298-.287 1.0029-.43 1.3611-.143.2865-.286.5014-.573.6447-.143.0716-.43.2149-.645.2865l-.286.0716.286 1.576.717-.0717c.716-.0716 1.432-.2865 1.934-.7879.43-.5015.644-1.2178.716-1.7192.215-.8596.358-1.7192.501-2.5072l.359-2.0774h1.361l-.788 6.8768h2.22l1.003-8.7392h-5.516l-.214 1.6475Zm9.813 2.3639c-.286.5731-.501.9313-.716 1.5043.072-.2149.215-1.2177.287-1.6475l.429-3.6533h-2.22l-1.003 8.7392h2.292l2.077-3.7965c.359-.7164.717-1.2894.717-1.5043-.215 1.1461-.287 1.4326-.287 1.6475l-.43 3.6533h2.221l1.003-8.7392h-2.292l-2.078 3.7965Zm11.605 3.0086.859-6.8768h-2.292l-.788 6.8768h-1.719l.788-6.8768h-2.149l-1.003 8.7393h4.943l-.287 2.149h2.078l.501-4.0115h-.931Zm4.728-6.8051-3.797 8.7392h2.436l.716-1.6475h2.077l.287 1.6475h2.221l-1.576-8.7392h-2.364Zm0 5.3008.501-1.4326c.143-.4298.143-.2866.43-1.3611-.072.6447-.072.9313 0 1.2178l.215 1.5759h-1.146ZM86.0313 8.2149h-5.3725c-.3582 0-.7164.28653-.7164.6447l-1.7192 16.0459c-.0716.2865-1.1461 8.5243-9.4555 8.5243h-8.3811c-.3582 0-.7164.2865-.7164.6447l-.573 5.4441c0 .1433 0 .2866.1432.3582.0717.0716.2149.1433.3582.1433h8.3811c14.9713 0 16.6905-14.7565 16.7622-15.3295l1.7192-15.90263c0-.14327 0-.28654-.0717-.35817-.0716-.14327-.2149-.2149-.3581-.2149Z"/>
		<path d="M67.2638 22.8997h5.086c1.361 0 2.5788-1.0745 2.722-2.4355l.215-2.0057c0-.1433 0-.2866-.1433-.3582-.0716-.0716-.2149-.1433-.3582-.1433h-7.02c-2.4356 0-6.3038 1.6476-6.7336 6.2321-.5014 4.5129 3.0086 6.2321 5.4442 6.2321h4.298c1.361 0 2.5788-1.0745 2.722-2.4355l.2149-1.9341c0-.1433 0-.2865-.1432-.3582-.0717-.0716-.2149-.1432-.3582-.1432h-6.2321c-.788 0-1.1461-.8596-1.0745-1.2178.0716-.5014.1433-1.4327 1.361-1.4327Z"/>
		<path d="M67.6218 14.806h8.3811c.3581 0 .7163-.2865.7163-.6447l.5731-5.44413c0-.14327 0-.28653-.1433-.35817-.0716 0-.2149-.07163-.2865-.07163h-8.3811C53.4384 8.21574 51.7192 22.9006 51.6476 23.4736L50 39.5195c0 .1432 0 .2865.1433.3581.0716.0717.2149.1433.3581.1433h5.3725c.3582 0 .7164-.2865.7164-.6447l1.7192-16.0458c0-.2866 1.0028-8.5244 9.3123-8.5244Z"/>
	</g>
</svg>