<svg xmlns="http://www.w3.org/2000/svg" viewBox="0 0 200 50">
	<path class="bg-logo" fill="#F65E64" d="M0 0h200v50H0z"/>
	<path fill="#fff" d="M35.1777 32.212h2.2538v5.8809h-2.6764v-3.4775H22.6764v3.4775H20V32.212c1.6639-.4578 2.6147-1.5671 3.1694-2.7116.2465-.5899.449-1.4262.5546-2.5707.2817-2.2626.2817-4.4547.2817-9.0063h11.1632l.0088 14.2886Zm-2.6499 0V20.318h-5.7401c-.1056 7.0959-.6515 10.1596-2.6763 11.894h8.4164Zm37.3633 2.3682.0088-14.2534h-6.4004c0 5.4584-.1232 9.0151-.8804 11.2689-.4049 1.2061-1.391 2.7908-2.6675 3.6359l-1.9809-1.9896c1.1181-.8452 1.6639-1.6727 2.1393-2.7996.3786-.898.4226-2.0865.5283-4.3491 0-2.2626.0704-4.4987.0704-8.2139H72.673v16.7008h-2.7819Zm-14.7024-2.9493c-1.5054 2.1305-4.1113 3.3278-7.1046 3.3278-4.9389 0-8.6629-3.5831-8.6629-8.6981s3.5479-8.6981 8.4516-8.6981c4.5956 0 8.5661 3.3014 8.5661 8.2051 0 .6603-.0352 1.2501-.1409 1.8048H42.0975c.5194 3.0285 2.8172 4.8685 6.0218 4.8685 2.1921 0 4.2786-1.0829 5.2206-2.7116l1.8488 1.9016Zm-13.1176-6.5852h11.6298c-.1761-1.5319-.9772-2.7468-1.9192-3.6536-3.0285-2.7468-9.5345-1.0036-9.7106 3.6536Zm53.4302-7.1575H84.1268c-4.6308 0-8.3812 3.7504-8.3812 8.3812s3.7504 8.3812 8.3812 8.3812h11.3657c4.6305 0 8.3815-3.7504 8.3815-8.3812s-3.751-8.3812-8.3727-8.3812Zm-.0969 14.2885c-3.2662 0-5.9161-2.6499-5.9161-5.9161s2.6499-5.9162 5.9161-5.9162 5.9166 2.65 5.9166 5.9162-2.6504 5.9161-5.9166 5.9161Zm61.6526 2.0425v-7.2631h-8.786v7.2631h-2.791V17.4656h2.791v6.911h8.786v-6.911h2.791v16.7536h-2.791Zm19.052 0-6.524-7.1222h-3.037c0 4.0145 0 6.3827.035 7.1222h-2.791c.035-1.6727.035-4.4635.035-8.3724 0-3.9089 0-6.6997-.035-8.3724h2.791c-.035 1.435-.035 3.768-.035 7.0518h3.099l6.312-7.0518h3.486l-7.289 8.1347L180 34.228l-3.891-.0088Zm-34.3-2.8348c-.334.5546-.827.8452-1.391.7043-.537-.1321-.898-.6427-.898-1.1973v-8.2139c0-3.2134-2.755-5.5464-6.488-5.5464-2.307 0-4.235.7571-5.406 1.972l1.867 1.8664c.607-.7835 1.822-1.2941 3.336-1.2941 2.263 0 3.909 1.435 3.909 3.3454v1.2589c-2.579.2818-4.393.5195-5.476.766-3.345.6955-5.335 2.4738-5.335 5.1678 0 2.6147 2.095 4.3579 5.3 4.3579 2.271 0 4.111-.4754 5.582-2.1834.317 1.4967 1.778 2.1834 3.627 2.1834 1.25 0 2.342-.5459 3.116-1.4527l-1.743-1.7343Zm-5.08-2.0953c-1.223 1.6727-3.134 2.6851-5.194 2.6851-1.637 0-2.72-.7219-2.72-2.0864 0-1.1181.871-1.9457 2.368-2.3683 1.153-.3169 3.002-.449 5.546-.7571v2.5267Zm-20.9-11.5154c-2.289-.088-4.375.7396-5.942 2.1482.299-2.3947 1.945-4.3843 4.164-5.1062 2.747-.9068 6.303.4226 9.842-2.8172L121.895 10h-.035c-2.58 2.421-5.714 1.3734-8.179 2.0425-3.759 1.0124-6.541 4.4547-6.576 8.5661v5.564c0 4.6395 3.759 8.3988 8.398 8.3988 4.746 0 8.575-3.9353 8.39-8.7246-.176-4.3579-3.715-7.9058-8.064-8.0731Zm.132 14.0421c-3.486.2729-6.382-2.6235-6.101-6.1098.22-2.7468 2.439-4.9654 5.186-5.1855 3.486-.2817 6.382 2.6236 6.101 6.1099-.229 2.7379-2.448 4.9653-5.186 5.1854Z"/>
</svg>