<svg xmlns="http://www.w3.org/2000/svg" viewBox="0 0 200 50">
	<path class="bg-logo" fill="#6A2538" d="M0 0h200v50H0z"/>
	<path fill="#fff" d="M59.8235 10H30v29.8235h29.8235V10Zm6.595 21.4372h5.5593v1.0102h-4.4474v2.6367h2.0395c.6093-.0186 1.2178.0564 1.8044.2224.4413.1384.8209.4259 1.0737.8132.2734.4116.4132.8975.4003 1.3914.0065.4212-.0894.8377-.2796 1.2136-.1973.3793-.4966.6962-.8641.9149-.6068.2907-1.2797.4157-1.9505.3621h-3.3356v-8.5645Zm1.1373 7.6242h2.2618c.4891.0382.9763-.0943 1.3788-.3748.1576-.1383.281-.3112.3604-.5053.0794-.194.1126-.4039.097-.613.0111-.3168-.0803-.6287-.2605-.8895-.1754-.2496-.4347-.4277-.7306-.5019-.526-.0962-1.0603-.1388-1.5948-.1271h-1.5121v3.0116Zm12.0717.9657 3.2848-8.5645h1.2262l3.5008 8.5645h-1.2707l-.9975-2.5985h-3.6342l-.9086 2.5414-1.2008.0571Zm2.4715-3.5452h2.9036l-1.4931-4.1171-1.4105 4.1171Zm13.0565 3.5198v-8.5645h1.1373v3.5135h4.4472v-3.5135h1.138v8.5645h-1.138v-4.0408h-4.4472v4.0408h-1.1373Zm15.2045-8.5645h1.13v3.7486c.389.0369.778-.0693 1.093-.2987.343-.4377.616-.9265.807-1.4486.16-.4122.356-.8097.585-1.1881.164-.2408.381-.4408.635-.5845.287-.16.612-.2411.94-.2351.229-.0127.458-.0127.687 0v.9785h-.464c-.146-.0128-.292.0043-.431.0502-.139.0458-.267.1196-.376.2166-.279.3302-.495.7094-.635 1.1182-.159.4979-.407.9628-.731 1.3724-.21.1902-.45.3428-.712.4511.705.2992 1.278.843 1.614 1.5312l1.76 2.8527h-1.379l-1.436-2.3254c-.268-.4842-.599-.9307-.984-1.3278-.288-.2418-.654-.3686-1.03-.3558v4.009h-1.131l.058-8.5645ZM87.5824 19.3713v2.5414h6.6649v3.6279H83.5289v-15.509H94.044v3.6279h-6.4616v2.2301h5.5467v3.4817h-5.5467ZM80.5487 10H69.6778v3.8121c.0195 1.4732-.1276 2.9438-.4384 4.384-.2929 1.3126-.7995 2.5683-1.4994 3.7168h-1.1309v6.5124h3.4182v-2.8846h8.6598v2.8846h3.4119v-6.5124h-1.5503V10Zm-4.0535 11.9129h-4.3141c.4331-.8316.7495-1.7188.9403-2.6367.2791-1.3972.4132-2.8195.4003-4.2442v-1.3787h2.9735v8.2596Zm84.1208-11.8813h3.869L170 25.5406h-4.308l-.896-2.7574h-4.511l-.876 2.732h-4.289l5.496-15.4836Zm1.963 5.4768-1.271 4.0027h2.58l-1.271-4.0027h-.038Zm-25.402-5.4768h-3.863l-5.044 14.2383-4.981-6.9889 5.781-7.243h-4.879l-3.749 5.2734v-5.2798h-4.034v5.2798l-3.768-5.2798h-4.873l5.775 7.243-5.883 8.2596h4.937l3.812-5.8643v5.8643h4.053v-5.8579l3.812 5.8643h7.853l.884-2.7574h4.511l.895 2.7574h4.308l-5.547-15.509Zm-3.234 9.4986 1.309-4.0218 1.271 4.0027-2.58.0191Zm-31.189-9.4987c1.387-.06744 2.757.316 3.908 1.0928 1.054.7815 1.721 2.0903 1.721 4.0409 0 2.4715-.997 3.8121-2.223 4.511-1.082.5529-2.287.8198-3.501.7751h-1.906v5.0828h-4.041V10.0315h6.042Zm-.635 6.8047c.536.0493 1.072-.0876 1.518-.3876.168-.1597.298-.3551.381-.5717.082-.2166.115-.449.096-.68 0-1.5375-1.271-1.5375-1.906-1.5375h-1.43v3.1768h1.341Zm53.09 4.1616c.006-.3717-.032-.7429-.114-1.1055-.071-.3162-.177-.6231-.318-.9149-.405-.801-1.08-1.4332-1.906-1.7853.355-.2037.669-.4707.927-.7879.503-.6367.762-1.432.731-2.2428.036-.9823-.277-1.9456-.883-2.7193-.686-.8133-1.855-1.4105-3.812-1.4105h-6.532v15.509h6.176c1.317.0679 2.629-.2011 3.812-.7815 1.112-.6353 1.906-1.7853 1.906-3.7295l.013-.0318Zm-7.847-7.3383h1.659c.205-.0223.414-.0011.611.0624s.378.1678.532.3061c.166.1839.253.4259.242.6735-.001.266-.088.5247-.248.737-.125.1377-.28.2448-.453.3131s-.359.0959-.545.0808h-1.81l.012-2.1729Zm3.094 7.9864c-.271.173-.586.2656-.908.2668h-2.186v-2.5859h1.76c.473-.0298.945.0621 1.373.2669.167.1118.301.2675.386.4501.085.1827.119.3852.096.5855.011.2004-.032.3999-.123.5785-.092.1785-.229.3296-.398.4381ZM52.7397 35.2505c-2.1425 1.9882-4.956 3.0949-7.8788 3.0992-2.9247.0003-5.7415-1.1047-7.8859-3.0936s-3.458-4.7146-3.6775-7.6311H56.418c-.2224 2.9143-1.5359 5.6374-3.6783 7.6255Zm-3.778-1.4334c1.2461-.7253 2.2777-1.768 2.9898-3.0217H37.764c.7121 1.2537 1.7437 2.2964 2.9898 3.0217 1.246.7253 2.6621 1.1074 4.1039 1.1074 1.4419 0 2.8579-.3821 4.104-1.1074Zm-7.9065-22.2602h3.1767v14.7148H33.2721v-.1462c-.0016-2.4081.7471-4.7568 2.142-6.7199 1.3948-1.963 3.3665-3.4427 5.6411-4.2336v-3.6151Zm-3.7677 11.5189h3.7677v-4.1806c-1.7097.9056-3.0441 2.3864-3.7677 4.1806Zm16.9885-3.6702c1.3949 1.9631 2.1435 4.3118 2.142 6.7199v.1525H45.4582V11.5569h3.1767v3.6151c2.2746.7909 4.2463 2.2706 5.6411 4.2336Zm-5.6411-.5104v4.1934h3.774c-.7216-1.8007-2.0591-3.2867-3.774-4.1934Z"/>
</svg>