<svg xmlns="http://www.w3.org/2000/svg" viewBox="0 0 200 50">
	<path class="bg-logo" fill="#99C45A" d="M0 0h200v50H0z"/>
	<path fill="#fff" d="M60.3497 40.2956H49.2168v-4.7045h11.1083v4.7045h.0246Zm2.2414-7.069H47V45h2.2168v-2.3645h13.3251v-9.4089h.0492ZM49.2168 12.069l4.4581-4.70447V23.8423h-4.4581V12.069ZM47 26.1823h8.867V5h-3.3005L47 10.8867v15.2956ZM60.3497 7.36453h4.4582V23.8423h-4.4582V7.36453ZM58.133 26.1823H67V5h-8.867v21.1823Zm24.4089 0h2.2167V5h-3.3497v.02463L78.0591 8.5468V5h-3.3497l-5.5173 5.8867v15.2956h2.2168V12.069l4.4581-4.70447V26.1823h2.2167V12.069l4.4582-4.70447V26.1823ZM47 30.8867h37.7832v-2.3645H47v2.3645Zm28.8917 4.7044h6.6502v4.7045h-6.6502v-4.7045Zm-2.2168 4.7045H67v-4.7045h6.6749v4.7045Zm2.2168 2.3399h8.8915v-9.4089H64.8079v9.4089h8.867V45h2.2168v-2.3645Zm41.9453-16.8473h1.946c.862 0 1.38.6157 1.38 1.4532 0 .8867-.518 1.4532-1.38 1.4532h-1.946v-2.9064Zm0-1.8473v-2.1182h4.631v-1.8473h-6.625v10.5911h4.014c1.995 0 3.252-1.3793 3.252-3.3005 0-1.9211-1.232-3.3005-3.252-3.3005.025-.0246-2.02-.0246-2.02-.0246Zm12.488 3.0049h-2.488l1.281-3.8423 1.207 3.8423Zm1.133 3.6207h2.045l-3.621-10.5911h-1.527l-3.621 10.5911h2.044l.616-1.8719h3.523l.541 1.8719Zm9.409 0h1.946V19.9754h-1.946v4.3349h-3.375v-4.3349h-1.945v10.5911h1.945V26.133h3.375v4.4335Zm9.113-5.6404 3.35-4.9507h-2.315L147.813 25v-5.0246h-1.946v10.5911h1.946v-5.5419l3.497 5.5419h2.389l-3.719-5.6404ZM102.05 9.50781h-1.725V40.493h1.725V9.50781Z"/>
</svg>