<svg xmlns="http://www.w3.org/2000/svg" viewBox="0 0 200 50">
	<path class="bg-logo" fill="#3CAE61" d="M0 0h200v50H0z"/>
	<path fill="#fff" d="M94.6967 13H80.404v.0025l1.8445 2.5369.053 1.6138L94.6967 13ZM99.54 24.9979v-2.7687l2.915-.0277c.887 0 1.694.3251 1.694 1.412 0 1.0036-.749 1.3567-1.666 1.3567l-2.943.0277Zm0 5.0761v-2.7663h3.48c.97 0 1.824.3177 1.824 1.4096 0 1.0111-.826 1.3567-1.824 1.3567h-3.48Zm-3.921 2.7687h8.343c3.435 0 4.569-1.7274 4.569-3.6235 0-1.6164-1.043-2.7057-2.656-3.1824 1.192-.5422 1.61-2.0274 1.61-3.0033 0-1.8104-1.381-3.5705-4.616-3.5705h-7.25v13.3797Zm-17.0571.111h3.4196l6.0501-7.5271v7.5271h3.9009V19.5738h-3.3919l-6.0502 7.5271v-7.5271h-3.9285v13.3799ZM65.6501 28.793c0-1.4475 1.3858-1.9492 2.7995-1.9492.8039 0 1.691.1766 2.2729.3252v2.214c-.8869.827-1.9125 1.1524-2.9936 1.1524-1.164 0-2.0788-.6783-2.0788-1.7424Zm8.9153-3.6842c0-4.4481-2.5904-6.1099-6.6449-6.1099l.005-.005c-1.9932 0-3.9587.4891-5.0877.8523l1.7514 2.799c.8795-.2269 1.8521-.3832 2.8853-.3832 2.1115 0 3.1827.9278 3.1827 2.2795v.4792c-.9576-.2246-2.1396-.3657-3.2105-.3657-2.7037 0-5.9418 1.0717-5.9418 4.5061 0 2.673 2.1947 4.138 4.7298 4.138 1.9982 0 3.548-.6202 4.871-1.6618.5619 1.0138 1.6025 1.5205 2.9834 1.5205.7585 0 1.5472-.1688 2.1671-.3934v-2.5619c-.2544.0858-.509.1135-.7332.1135-.5066 0-.9576-.1966-.9576-.9002v-4.307ZM51.8009 22.229c2.3232 0 3.7041 1.7754 3.7041 3.9213 0 2.146-1.3834 3.9212-3.7041 3.9212-1.7916 0-3.1147-1.0869-3.6741-2.2896-.1511-.4716-.2293-1.0163-.2293-1.6316 0-.6154.0757-1.1599.2293-1.6315.5594-1.2029 1.8825-2.2898 3.6741-2.2898Zm7.8544 3.9919c0-3.7245-2.351-7.222-6.7054-7.222-2.5501 0-4.1276 1.1651-4.9869 2.388v-1.9896h-3.5252V41.507l3.984-1.233v-8.6795c.8893.9658 2.3509 1.8484 4.5281 1.8484 4.3569 0 6.7054-3.4977 6.7054-7.222ZM25.6195 13l2.1594 2.7938v.0002l-.0025-.0025-5.2843 13.5109H20v8.1524h3.7748v-4.3625h14.1239v4.3625h3.7748v-8.1526h-2.5451V13H25.6195Zm9.1368 16.6127h-8.0611l4.8735-12.4568h3.1876v12.4568Zm131.4117 3.3388h3.931v-5.2956h1.585l3.904 5.2956H180l-5.062-6.7731 4.666-6.6068h-4.412l-3.452 4.9903h-1.641v-4.9903h-3.931v13.3799Zm-17.059 0h3.419l6.051-7.5271v7.5271h3.9V19.5716h-3.392l-6.05 7.5271v-7.5271h-3.928v13.3799Zm-32.65-11.96v-7.8802h-4.239v19.84h4.239v-8.1071h3.192l5.398 8.1071h4.692l-6.783-10.1748 6.415-9.6654h-4.72l-5.002 7.8804h-3.192Zm29.419 12.139V19.5716l-.002.0025h-11.39c-.262 6.0721-.758 10.5077-2.979 10.5077-.262 0-.554-.0555-.846-.1689v.0075l2.608 3.4773c3.54-.3051 4.561-4.8263 4.956-10.7193h3.594v10.4521h4.059Z"/>
</svg>