<svg xmlns="http://www.w3.org/2000/svg" viewBox="0 0 200 50">
	<path class="bg-logo" fill="#00563F" d="M0 0h200v50H0z"/>
	<path fill="#fff" d="M56.948 32.0043v1.7163h-1.082v-2.6864l.6343-.0373c.2238-.2239.3731-.4851.5223-.7835.112-.2985.2612-.597.3359-.9701.0745-.3732.1491-.7462.1865-1.1567.0373-.4104.0746-.8955.1119-1.3432l.112-1.3432h4.2908v5.634l.6715.0373v2.6864h-1.082v-1.7163H56.948v-.0373Zm1.9029-4.9997c-.0373.5224-.0746.9701-.1119 1.3805-.0374.4104-.0747.7836-.1493 1.082-.0746.3358-.1493.597-.2612.8582s-.2238.4477-.4104.6716h2.6491v-4.6266h-1.679l-.0373.6343Zm8.9547 4.9997-.4477-1.5298h-2.4253l-.485 1.5298h-1.4178l2.2386-6.6041h1.791l2.2013 6.6041h-1.4551Zm-1.2313-4.2162-.3731-1.4551h-.0746l-.4105 1.4924-.485 1.7163h1.8283l-.4851-1.7536Zm7.3876 4.2535v-5.634h-1.5671l-.0372.597c-.0373.8208-.0747 1.5298-.1493 2.1641-.0373.5969-.1492 1.1192-.3358 1.567-.1866.4477-.4104.7836-.7462 1.0448-.3359.2611-.7836.4477-1.3432.5596l-.2985-.9701c.3731-.1493.6342-.2985.8208-.485.1866-.1866.3359-.4105.4477-.7089.112-.2985.1866-.6717.1866-1.1194.0373-.4478.0746-1.0447.1119-1.7163l.112-1.9029h4.1788v6.6414h-1.3805v-.0373Zm2.7983-6.6414h1.4179v2.5745h1.3805c.3358 0 .6716.0373.9328.1492.2984.112.5223.2239.7462.3732.1866.1865.3731.373.485.6342.112.2612.1866.5224.1866.8582s-.0373.597-.1493.8582c-.1119.2611-.2611.4477-.4477.6342-.1865.1866-.4104.2986-.6715.3732-.2613.1118-.5598.1492-.8955.1492h-3.0223v-6.6041h.0373Zm1.4552 3.5446v2.0894h1.2313c.2612 0 .5223-.0746.7089-.2612.1865-.1865.2985-.4477.2985-.8208 0-.1866-.0373-.3358-.112-.4478-.0746-.1492-.1492-.2611-.2612-.3357-.1119-.0747-.2238-.1493-.3357-.1866-.112-.0373-.2612-.0746-.4105-.0746h-1.1193v.0373Zm8.7681 3.0595v-2.9476H84.409v2.9476h-1.4551v-6.6041h1.4551v2.6118h2.5745v-2.6491h1.4551v6.604h-1.4551v.0374Zm2.873 0v-6.6041h4.5519v1.0074h-3.1341v1.679h2.6491v.9701h-2.6491v1.9775h3.2834v1.0074h-4.7012v-.0373Zm9.9248-3.4327c.2237.0747.4107.1866.5217.2985.15.112.261.2612.336.4105.075.1492.112.2984.15.4477.037.1493.037.2612.037.3732 0 .2984-.037.5596-.149.7835-.113.2238-.261.4477-.411.5969-.186.1866-.4102.2986-.6713.3732-.2612.1118-.5224.1492-.8581.1492h-3.0223v-6.6041h2.873c.6716 0 1.194.1492 1.5297.4851.336.3357.522.7462.522 1.3058 0 .112-.037.2239-.037.3359-.038.1119-.074.2611-.149.373-.075.112-.15.2612-.261.3359-.112.1119-.2615.2239-.4107.2985v.0372Zm-2.6864.5224v1.9402h1.1939c.3731 0 .6343-.1119.7835-.2985.1866-.1866.2612-.4104.2612-.7089 0-.2612-.0746-.4851-.2612-.6716-.1865-.1865-.4477-.2612-.7835-.2612h-1.1939Zm0-2.6864v1.7163h1.0819c.3359 0 .5598-.0746.7463-.2239.1865-.1492.2612-.3357.2612-.5969s-.0747-.485-.2238-.6343c-.1493-.1492-.4105-.2239-.7463-.2239h-1.1193v-.0373Zm10.9321 2.3133c0 .4851-.074.9328-.187 1.3432-.112.4104-.335.7836-.559 1.082-.262.2985-.597.5224-.971.709-.373.1865-.82.2611-1.343.2611-.521 0-1.007-.0746-1.38-.2611-.373-.1493-.709-.3732-.97-.709-.262-.2984-.448-.6716-.56-1.082-.111-.4104-.186-.8954-.186-1.3805 0-.485.075-.9328.186-1.3432.112-.4105.298-.7835.56-1.0821.261-.3357.559-.5596.97-.7462.373-.1865.859-.2612 1.418-.2612.559 0 1.007.112 1.418.2612.373.1866.709.4478.969.7462.262.3359.411.6716.523 1.0821.075.4477.112.8955.112 1.3805Zm-1.492 0c0-.2985-.038-.597-.075-.8955-.037-.2984-.112-.5596-.224-.7835-.112-.2238-.261-.4104-.485-.5597-.187-.1492-.448-.2239-.784-.2239-.335 0-.596.0747-.821.1866-.223.1493-.373.3359-.484.5597-.112.2239-.225.4851-.261.7835-.038.2985-.075.597-.075.8955 0 .7462.111 1.3432.373 1.7536.261.4105.672.597 1.268.597.261 0 .523-.0746.709-.1865.187-.112.373-.2986.486-.4851.111-.2238.223-.4477.261-.7462.074-.2612.112-.5597.112-.8955Zm5.708-3.47c.336 0 .672.0373.97.0747.299.0373.56.1119.821.1865l-.187 1.0448c-.261-.0747-.522-.112-.746-.1493-.223-.0373-.447-.0373-.634-.0373-.597 0-1.082.1866-1.418.5596-.336.3732-.485.9701-.485 1.7537 0 .3731.037.7089.112 1.0074.075.2985.187.5224.336.7089.149.1866.373.3358.597.4478.261.1119.56.1492.895.1492.075 0 .186 0 .299-.0373.112 0 .261-.0373.41-.0373.15 0 .299-.0373.448-.0746.149-.0373.299-.0373.411-.0747l.223.9701c-.149.0374-.298.112-.485.1493-.186.0372-.336.0745-.522.1119-.187.0373-.373.0746-.56.0746-.186.0373-.373.0373-.522.0373-.597 0-1.119-.0746-1.53-.2611-.411-.1866-.709-.4105-.97-.709-.261-.2984-.41-.6716-.523-1.082-.111-.4104-.148-.8581-.148-1.3432 0-.3731.037-.7835.148-1.1939.113-.4105.262-.7836.523-1.1194s.559-.5969.97-.8208c.411-.2239.933-.3359 1.567-.3359Zm4.552 6.7534v-5.5967h-2.089v-1.0447h5.634v1.0447h-2.09v5.5967h-1.455Zm10.335-3.2834c0 .4851-.074.9328-.186 1.3432s-.336.7836-.56 1.082c-.261.2985-.597.5224-.97.709-.373.1865-.821.2611-1.343.2611-.523 0-1.008-.0746-1.418-.2611-.373-.1493-.709-.3732-.97-.709-.261-.2984-.447-.6716-.56-1.082-.112-.4104-.187-.8954-.187-1.3805 0-.485.075-.9328.187-1.3432.113-.4105.299-.7835.56-1.0821.261-.3357.56-.5596.97-.7462.374-.1865.858-.2612 1.418-.2612.559 0 1.007.112 1.418.2612.373.1866.709.4478.97.7462.261.3359.41.6716.522 1.0821.112.4477.149.8955.149 1.3805Zm-1.492 0c0-.2985-.038-.597-.075-.8955-.037-.2984-.111-.5596-.224-.7835-.112-.2238-.261-.4104-.485-.5597-.186-.1492-.447-.2239-.783-.2239s-.597.0747-.821.1866c-.187.1493-.373.3359-.485.5597-.112.2239-.224.4851-.261.7835-.038.2985-.075.597-.075.8955 0 .7462.112 1.3432.373 1.7536.224.4105.672.597 1.269.597.261 0 .522-.0746.709-.1865.186-.112.373-.2986.485-.4851.112-.2238.224-.4477.261-.7462.074-.2612.112-.5597.112-.8955Zm7.798 3.2834h-1.418v-2.6864c-.261.0746-.522.1119-.82.1865-.299.0373-.561.0746-.784.0746-.298 0-.597-.0373-.896-.0746-.261-.0746-.522-.1492-.746-.2984-.224-.1493-.373-.2985-.485-.5224-.112-.2238-.187-.485-.187-.8209v-2.4252h1.455v2.1641c0 .3731.113.597.299.7462.187.1493.448.1866.821.1866.224 0 .448-.0373.709-.0746.261-.0374.448-.112.671-.1866v-2.873h1.418v6.6041h-.037Zm5.372 0v-2.9476h-2.573v2.9476h-1.456v-6.6041h1.456v2.6118h2.573v-2.6491h1.418v6.604h-1.418v.0374Zm2.873-6.6041h1.418v2.5745h1.381c.336 0 .672.0373.933.1492.298.112.522.2239.746.3732.224.1865.373.373.485.6342.112.2612.187.5224.187.8582s-.038.597-.15.8582c-.111.2611-.261.4477-.447.6342-.187.1866-.41.2986-.672.3732-.261.1118-.56.1492-.895.1492h-3.023v-6.6041h.037Zm1.418 3.5446v2.0894h1.232c.261 0 .522-.0746.709-.2612.186-.1865.298-.4477.298-.8208 0-.1866-.037-.3358-.112-.4478-.074-.1492-.149-.2611-.261-.3357-.112-.0747-.224-.1493-.336-.1866-.112-.0373-.261-.0746-.41-.0746h-1.12v.0373Zm4.478 3.0595v-6.6041h1.418v6.6414h-1.418v-.0373Zm7.014-6.6041h1.343v6.6041h-1.38V27.527c-.298.5223-.634 1.0074-.933 1.5297-.298.5223-.596 1.0074-.933 1.5298l-.895 1.4551h-1.418v-6.6414h1.418v4.5893h.037l.784-1.2686c.149-.2611.298-.5223.485-.8209.187-.2984.373-.5969.597-.9328.186-.2984.373-.5969.522-.8954.15-.2611.298-.5224.373-.6716Zm-1.53-.597c-.186 0-.373-.0373-.559-.1119-.186-.0746-.336-.1493-.485-.2984-.149-.112-.299-.2613-.41-.4105-.112-.1493-.262-.2985-.373-.485l.596-.4478c.187.2612.411.4851.635.597.223.1119.41.1865.596.1865h.225c.074 0 .186-.0373.298-.0746.112-.0373.261-.1119.411-.2238.148-.112.335-.2612.521-.4478l.411.3732c-.149.2238-.298.4477-.484.5969-.15.1866-.336.2985-.486.3731-.187.1119-.336.1866-.485.2239-.112.1492-.261.1492-.411.1492Zm7.053.597h4.477v.9701h-3.059v1.6044h1.417c.336 0 .672.0373.933.1119.298.0746.523.2239.746.3732.187.1865.373.373.448.5969.111.2612.186.5223.186.8582 0 .3357-.037.5969-.149.8581-.112.2612-.261.485-.448.6716s-.41.2985-.671.4105c-.261.1118-.56.1492-.896.1492h-2.984v-6.6041Zm1.418 3.5446v2.0894h1.23c.262 0 .523-.1119.709-.2612.187-.1865.299-.4477.299-.8208 0-.1866-.037-.3358-.074-.4478-.075-.1119-.15-.2238-.262-.3357-.112-.0747-.224-.1493-.336-.1866-.149-.0373-.261-.0373-.41-.0373h-1.156Zm8.954 3.0595-.448-1.5298h-2.425l-.485 1.5298h-1.38l2.238-6.6041h1.791l2.201 6.6041h-1.492Zm-1.231-4.2162-.374-1.4551h-.037l-.411 1.4924-.484 1.7163h1.828l-.522-1.7536Zm7.499 4.2162v-2.9476h-2.574v2.9476h-1.418v-6.6041h1.418v2.6118h2.574v-2.6491h1.455v6.604h-1.455v.0374Zm6.605-3.4699c.148.0372.298.1119.409.1865.113.0746.225.1866.3.2612.074.1119.148.2239.186.3358.037.1119.112.2611.149.3731l.597 2.3133h-1.418l-.559-2.0148c-.075-.2985-.224-.5224-.373-.6716-.187-.1492-.411-.2612-.747-.2612h-.895v2.9476h-1.381v-6.6041h1.381v2.6118h.821c.112 0 .223 0 .335-.0373.113-.0373.224-.0747.299-.1493.112-.0746.187-.1492.261-.2611.075-.112.149-.2612.187-.4851l.448-1.679h1.38l-.485 1.9029c-.075.2612-.186.5223-.336.7089-.15.2239-.336.3731-.523.4478l-.036.0746ZM44.4488 31.37c.2612.1866.5596.2985.9328.2985.5596.0373.9701-.1492 1.1939-.4851.2238-.3357.3358-.7462.3358-1.1939 0-.6716-.1866-1.1567-.5223-1.3432-.3732-.2239-.7836-.3358-1.2313-.3358-.2612 0-.4851.0373-.6716.0373V31.37h-.0373Zm0-3.3953c.5223-.112.9701-.1493 1.3058-.1493.5597 0 1.194.1493 1.9402.4105s1.1194.8581 1.1194 1.7536c0 .6343-.2612 1.1193-.7835 1.5298-.5224.3731-1.2314.5596-2.1268.5596-.3731-.0373-.6343-.0373-.8209-.0373h-3.2087v-.3731h.4851c.2611 0 .373-.0746.373-.2239 0-.0373.0374-.0746.0374-.1492v-5.1117c0-.0746 0-.1119-.0374-.1492-.0373-.1492-.1492-.2238-.373-.2238h-.4851v-.3732h6.3429l.0373 1.6417h-.4477v-.3731c0-.1492-.1866-.2985-.5224-.4478-.3358-.1492-.7835-.2611-1.2313-.3357-.485-.0746-.8581-.1119-1.082-.1119-.1492.0373-.2611.0373-.3358.0746-.0746.0373-.1119.1119-.1119.2238v1.8656h-.0746Zm-7.91 3.3953c.2985.2239.6716.3358 1.082.3358.4478-.0373.7835-.1492 1.0074-.4478.2612-.2611.3732-.6715.3732-1.1565 0-1.0075-.5224-1.4926-1.5299-1.4926h-.97V31.37h.0373Zm0-3.2088h1.3432c.2985-.0373.5223-.1492.7089-.3358.1866-.1865.2612-.4477.2612-.7835 0-.2238-.0373-.4477-.1493-.6343-.1119-.1866-.2612-.3358-.4476-.4104-.1866-.1119-.4478-.1492-.7463-.1492-.3731 0-.7089.1119-.9701.2984v2.0148Zm2.276.2239c.5596.0373 1.082.1865 1.4924.5224.4478.2985.6343.7462.6343 1.3059 0 .5596-.2611 1.0073-.7462 1.3432-.485.3357-1.1939.5223-2.0894.5223-.1866 0-.3358-.0373-.4478-.0373h-3.6937v-.3731h.485c.2612 0 .3731-.0746.3731-.2239.0373-.0373.0373-.0746.0373-.1492v-5.1117c0-.0746 0-.1119-.0373-.1492-.0373-.1492-.1492-.2238-.3731-.2238h-.485v-.3732h2.4625c.3357 0 .7835 0 1.3432-.0373 1.1566 0 1.9402.1492 2.3505.4851.4105.3357.6344.7089.6344 1.1193 0 .2612-.0746.5224-.2612.7462-.1866.2239-.4105.3731-.7089.4851-.3732.0746-.6717.1492-.9701.1492Zm-11.4172 3.2088h2.649c.1866 0 .3359-.0373.3732-.1866 0-.0373.0373-.0746.0373-.1493v-4.925c0-.2239-.0373-.3731-.0746-.4104-.0374-.0373-.112-.0746-.2613-.0746h-.8208c-.1865 0-.3357.0373-.4104.1119-.0746.0746-.1492.2238-.1866.485-.0373.0747-.0746.2239-.1119.4478-.1493.5223-.2985 1.082-.4477 1.6417-.1866.5596-.3358 1.0446-.5224 1.5297-.112.2612-.2238.5224-.3358.8209-.1119.2611-.1865.4104-.1865.4477-.0747.1866.0746.2612.2985.2612Zm-.3358-5.7832v-.3732h6.0071v.3732h-.5224c-.2612 0-.3731.0746-.3731.2238v5.1116c0 .2985.1119.4478.3731.4478h.6716v1.9774h-.4851v-.4477c0-.2239-.1865-.4104-.5969-.5596-.4105-.1866-.8582-.2985-1.4178-.4105-.5224-.1119-1.0074-.1492-1.3806-.1492-.373 0-.8208.0373-1.3432.1865-.5224.112-.9701.2612-1.3432.4105-.3731.1865-.5596.3358-.597.5223l-.0373.4477h-.5596l.1492-1.9774c.4104.0373.8209-.2985 1.2313-.9701.3731-.6716.7089-1.4551.9701-2.3506s.3731-1.5298.4104-1.9402c0-.1866-.0373-.2985-.1119-.3731s-.2612-.1119-.5224-.1119h-.5223v-.0373Zm21.23-2.0149h-9.1039c1.4552-7.2383-9.1413-14.92444-14.029-1.3058 1.679-16.11849 23.7299-10.2979 23.1329 1.3058Zm-33.1323 8.3204h9.1412c-3.1341-16.3423 5.037-21.4166 12.5739-20.3346-10.9695-2.61175-23.4314.6343-21.7151 20.3346Z"/>
</svg>