<svg xmlns="http://www.w3.org/2000/svg" viewBox="0 0 200 50">
	<path class="bg-logo" fill="#00D900" d="M0 0h200v50H0z"/>
	<path fill="#fff" d="M74.7704 22.8917v-8.9444h5.1101V15.16h-3.8321v2.3002h2.938v1.2129h-2.938v3.0134h3.9602v1.2153l-5.2382-.0101Zm7.9978-.9583h1.5066c.4847 0 .7032-.0904.8438-.2511.1394-.1542.2165-.3546.216-.5625-.0025-.2027-.0794-.3976-.216-.5473-.1406-.1531-.3591-.2511-.8438-.2511h-1.5066v1.612Zm1.0221-2.5563c.4744 0 .6653-.0879.8059-.2285.2908-.2991.2908-.7755 0-1.0746-.1406-.1406-.3315-.2285-.8059-.2285h-1.0221v1.5316h1.0221Zm.2811-2.491c.6906 0 1.0874.1658 1.3938.4345.3518.3056.5562.7469.5625 1.213-.0055.3998-.1605.7833-.4345 1.0746.5829.274.9528.8626.9466 1.5065.0047.4641-.1761.9107-.5021 1.2407-.3189.3315-.7785.5499-1.5344.5499h-2.9378v-6.0192h2.5059Zm6.9652 4.9841c-.6535-.0125-1.2635-.3292-1.6497-.8563v-2.25c.4073-.5354 1.0397-.8518 1.7125-.8563.0221 0 .0442.0002.0663.001 1.0618.0319 1.8965.9184 1.8646 1.9804.0003.0159.0003.0319 0 .048-.0168 1.0844-.9093 1.9498-1.9937 1.9332Zm-2.8625 4.088h1.2128l.0025-3.591c.5043.4338 1.1507.6663 1.8154.653.5279-.0005 1.047-.1374 1.5068-.3968.4368-.2677.8032-.6361 1.0686-1.0744.9177-1.5163.4325-3.4895-1.0836-4.4071-1.0691-.6048-2.4001-.488-3.3474.2938v-.55h-1.1751v9.0725Zm12.1259-7.194c-.4058-.5359-1.0381-.8526-1.7102-.8564-1.0623-.0045-1.9272.8529-1.9319 1.9152 0 .0221.0002.0442.001.066-.0101 1.0847.8611 1.9717 1.9458 1.9815.0158.0003.0319.0003.0479 0 .6527-.0121 1.2622-.329 1.6474-.8564v-2.2499Zm.04 3.5782c-.5131.4465-1.173.6878-1.8531.6781-.5279-.0005-1.047-.1374-1.5068-.3968-.9609-.5739-1.5443-1.6153-1.5317-2.7347-.0078-1.1243.5796-2.1693 1.5442-2.7469.447-.2586.9553-.3915 1.4717-.3842.6878-.0106 1.3556.2305 1.8787.6781v-.55h1.182v6.0064h-1.175l-.01-.55Zm2.529-.5494c.694.7971 1.705 1.2466 2.762 1.2278 1.404 0 2.491-.7559 2.478-2.0516-.009-.5253-.283-1.0105-.728-1.2908.305-.3099.475-.7278.472-1.1625 0-1.1575-1.112-1.7577-2.235-1.7577-.875-.0229-1.724.2981-2.365.8938l.64.8187c.462-.3825 1.036-.6022 1.635-.6253.563 0 1.1.2411 1.1.791.005.1824-.082.3549-.231.4596-.215.1289-.467.1826-.716.1532h-.856v1.0244h.844c.497 0 .778.0628.972.2285.144.1366.226.3263.228.5249 0 .5751-.522.9064-1.238.9064-.751-.0006-1.47-.3047-1.994-.8436l-.768.7032Zm6.943-4.9072h1.212v4.0176l3.501-4.0176h.831v6.0064h-1.213v-4.0177l-3.503 4.0177h-.828v-6.0064Zm10.433-.9624c.988.0372 1.819-.7338 1.856-1.722h-1.022c.002.0294.002.0585 0 .0879-.024.4237-.387.7474-.811.7233-.424-.0244-.748-.3875-.723-.8112h-1.022c.035.9362.786 1.6871 1.722 1.722Zm-1.582.9624h-1.213v6.0064h.832l3.5-4.0177v4.0177h1.213v-6.0064h-.829l-3.503 4.0176v-4.0176Zm11.861 4.7282c-.604.8815-1.604 1.4079-2.672 1.4061-1.853 0-3.207-1.3433-3.207-3.1311-.045-1.6844 1.284-3.0865 2.968-3.1317.059-.0017.118-.0015.176.0003.997.002 1.936.4656 2.544 1.2556l-.856.7155c-.422-.4992-1.035-.7968-1.688-.8184-1.05-.0176-1.915.8189-1.932 1.8687-.001.0374 0 .0751.001.1125-.027 1.0676.817 1.9546 1.884 1.9814.037.0011.074.0008.11-.0002.719-.0181 1.389-.3677 1.815-.9468l.857.6881Zm5.621 1.2782h1.622l-3.347-3.3097 2.963-2.6967h-1.662l-2.556 2.3001v-2.3001h-1.213v6.0064h1.213v-2.9406l2.98 2.9406Zm2.685-6.0064h1.213v4.0176l3.503-4.0176h.829v6.0064h-1.213v-4.0177l-3.501 4.0177h-.831v-6.0064Zm10.438-.9624c.988.0372 1.819-.7338 1.856-1.722h-1.022c.004.0412.004.0829 0 .1241-.034.4231-.405.738-.828.7039-.423-.0344-.738-.4051-.704-.828h-1.024c.035.9362.786 1.6871 1.722 1.722Zm-1.581.9624h-1.213v6.0064h.831l3.5-4.0177v4.0177h1.216v-6.0064h-.831l-3.503 4.0176v-4.0176ZM76.0478 34.6537v3.0134h1.6598c.8061 0 1.1878-.1783 1.4691-.4596.2697-.2853.4174-.6645.4116-1.0573 0-.3865-.1514-.7579-.4216-1.0344-.2813-.2813-.663-.4621-1.4692-.4621h-1.6497Zm-1.278-4.7258h5.2379v1.2129h-3.9599v2.3002h1.9159c.9066 0 1.5066.2182 1.9536.6 1.1685.9809 1.3205 2.7233.3398 3.8916-.1032.1228-.2167.2365-.3398.3395-.4596.3817-1.047.6002-1.9536.6002h-3.1939v-8.9444Zm10.3103 3.9594c.6731.0036 1.3062.32 1.7125.8564v2.2499c-.3849.5274-.9945.8444-1.6472.8564-.016.0003-.0321.0003-.0479 0-1.0847-.0098-1.9559-.8968-1.9458-1.9814-.0008-.0211-.001-.0422-.001-.0636.0032-1.0623.8671-1.9209 1.9294-1.9177ZM84.9797 39c.6801.0098 1.3401-.2316 1.8531-.6781l.0025.55h1.1751v-6.0064h-1.1751v.55c-.5226-.4476-1.1906-.6887-1.8782-.6781-.5163-.0073-1.0246.1256-1.4717.3842-.9646.5776-1.552 1.6226-1.5442 2.747-.0126 1.1193.5708 2.1607 1.5317 2.7346.4598.2594.9789.396 1.5068.3968Zm5.1233-6.1341h1.2152v2.2097h3.1816v-2.2097h1.213v6.0064h-1.213v-2.7092h-3.1816v2.7092H90.103v-6.0064ZM102 38.8723h1.624l-3.362-3.3097 2.978-2.6967h-1.662l-2.554 2.3001v-2.3001h-1.2153v6.0064h1.2153v-2.9405L102 38.8723Zm7.106-5.1754h2.044c.613 0 .947-.1532 1.176-.3968.478-.4882.478-1.2695 0-1.7577-.229-.2511-.563-.3968-1.176-.3968h-2.044v2.5513Zm-1.278 5.1754v-8.9444h3.4c.869 0 1.431.2159 1.866.5874 1.051.8917 1.18 2.4669.289 3.5181-.088.104-.185.2007-.289.2888-.435.3717-1.004.5874-1.866.5874h-2.109v3.9627h-1.291Zm9.788-4.985c.673.0046 1.306.321 1.713.8564v2.2499c-.385.5272-.995.8439-1.647.8564l-.016.0002h-.018l-.014-.0002c-1.085-.0098-1.956-.8968-1.946-1.9814l-.001-.0171v-.0465c.003-1.0623.867-1.9209 1.929-1.9177ZM117.513 39c.68.0098 1.34-.2316 1.854-.6781v.55h1.177v-6.0064h-1.177v.55c-.523-.4483-1.191-.6894-1.879-.6781-.515-.0073-1.023.1256-1.469.3842-.965.5771-1.554 1.6221-1.547 2.747-.011 1.1198.573 2.161 1.535 2.7346.459.2594.979.396 1.506.3968Zm7.144.0005c-1.051.0151-2.057-.4342-2.747-1.2278l.766-.7032c.524.5382 1.243.8423 1.994.8436.716 0 1.24-.3313 1.24-.9064-.002-.1991-.086-.3885-.231-.5249-.19-.1657-.472-.2285-.969-.2285h-.844v-1.0244h.857c.248.0294.5-.0243.715-.1532.149-.1049.235-.2777.229-.4595 0-.55-.535-.7911-1.098-.7911-.599.0238-1.174.2433-1.637.6253l-.638-.8187c.64-.5962 1.489-.9174 2.363-.8938 1.125 0 2.238.6002 2.238 1.7577.001.435-.169.8531-.475 1.1625.446.2793.721.7647.731 1.2909 0 1.2956-1.088 2.0515-2.494 2.0515Zm6.898-1.0881h-1.494v-1.6121h1.494c.487 0 .703.098.844.2512.138.1486.216.344.218.5472.001.2084-.077.4093-.218.5625-.141.1608-.357.2512-.844.2512Zm.314-2.7849c-.141.1407-.332.2286-.804.2286h-1.004v-1.5317h1.004c.472 0 .663.0879.804.2285.291.2991.291.7755 0 1.0746Zm.879-1.828c-.309-.2687-.703-.4345-1.394-.4345h-2.518v6.0193h2.95c.753 0 1.213-.2185 1.532-.55.327-.3295.508-.7765.502-1.2406.006-.6439-.364-1.2326-.947-1.5066.274-.2913.429-.6748.435-1.0746-.005-.4659-.209-.9071-.56-1.213Zm2.707-.4336h1.215v4.0177l3.501-4.0177h.831v6.0064h-1.213v-4.0177l-3.515 4.0177h-.832l.013-6.0064Zm6.925 1.0872h2.009l-.005 4.9192h1.213v-4.9192h2.009v-1.0875h-5.226v1.0875Zm6.61-1.0872h1.213v4.0177l3.503-4.0177h.829v6.0064h-1.213v-4.0177l-3.5 4.0177h-.832v-6.0064Zm11.244 1.0219v1.6572l-1.506.005c-.525 0-.756-.1155-.91-.3064-.237-.3094-.237-.7401 0-1.0495.156-.1908.385-.3063.91-.3063h1.506Zm-2.403 2.6316-1.813 2.3529h1.446l1.726-2.3001h1.047v2.3001h1.213v-6.0067h-2.941c-.716 0-1.15.1658-1.469.4471-.065.057-.127.1182-.184.1838-.675.7765-.593 1.9536.184 2.6286.224.1987.497.3348.791.3943Z"/>
	<path fill="url(#a)" d="M39 18.4187c0 7.4113 6.0079 13.4192 13.4192 13.4192-4.741-.2873-6.7096-2.6836-6.7096-5.3675 0-2.6837 2.2547-5.3676 6.7096-8.0517H39Z"/>
  	<radialGradient id="a" cx="0" cy="0" r="1" gradientTransform="rotate(-45 48.4431291 -54.06600107) scale(13.3098)" gradientUnits="userSpaceOnUse">
  		<stop offset=".0584617" stop-color="#fff" stop-opacity=".7"/>
  		<stop offset=".65" stop-color="#fff" stop-opacity=".6"/>
  		<stop offset=".751153" stop-color="#fff" stop-opacity=".6"/>
  		<stop offset=".99879" stop-color="#fff" stop-opacity="0"/>
  	</radialGradient>
	<path fill="url(#b)" d="M59.1278 10.3666c0 2.6836-2.2544 5.3675-6.7093 8.0514h13.4191c0-7.4113-6.0079-13.41896-13.4191-13.41896 4.7406.28705 6.7093 2.68364 6.7093 5.36756Z"/>
  	<radialGradient id="b" cx="0" cy="0" r="1" gradientTransform="rotate(-45 48.4416927 -54.0656061) scale(13.3098)" gradientUnits="userSpaceOnUse">
  		<stop stop-color="#fff" stop-opacity=".7"/>
  		<stop offset=".65" stop-color="#fff" stop-opacity=".6"/>
  		<stop offset=".6942" stop-color="#fff" stop-opacity=".6"/>
  		<stop offset="1" stop-color="#fff" stop-opacity="0"/>
  	</radialGradient>
	<path fill="url(#c)" d="M39 18.418h13.4192c4.4549-2.6837 6.7093-5.3676 6.7093-8.0512 0-2.68388-2.2544-5.36751-6.7093-5.36751C45.0079 4.99929 39 11.007 39 18.418Z"/>
  	<radialGradient id="c" cx="0" cy="0" r="1" gradientTransform="translate(52.4191 18.4182) scale(13.4191)" gradientUnits="userSpaceOnUse">
  		<stop stop-color="#fff"/>
  		<stop offset=".485427" stop-color="#fff"/>
  		<stop offset="1" stop-color="#fff" stop-opacity=".5"/>
  	</radialGradient>
	<path fill="url(#d)" d="M52.4193 18.419c-4.4549 2.6838-6.7096 5.3677-6.7096 8.0514 0 2.6839 2.2547 5.3675 6.7096 5.3675 7.4113 0 13.4192-6.0079 13.4192-13.4189H52.4193Z"/>
  	<radialGradient id="d" cx="0" cy="0" r="1" gradientTransform="translate(52.4193 18.4189) scale(13.4191)" gradientUnits="userSpaceOnUse">
  		<stop stop-color="#fff"/>
  		<stop offset=".485427" stop-color="#fff"/>
  		<stop offset="1" stop-color="#fff" stop-opacity=".5"/>
  	</radialGradient>
</svg>