<svg xmlns="http://www.w3.org/2000/svg" viewBox="0 0 200 50">
	<path class="bg-logo" fill="#444" d="M0 0h200v50H0z"/>
	<path fill="#FFDB00" d="M97.684 41.7726c0 .0961-.085.181-.181.181H45.181c-.0962 0-.181-.0851-.181-.181V9.18101C45 9.08495 45.085 9 45.181 9h52.322c.0958 0 .181.0848.181.18101V41.7726Z"/>
	<path fill="#fff" d="M142.006 26.0615c0-.1655.058-.1879.172-.0673l4.806 5.0429c.203.2103.448.2892.734.2367l1.03-.188c.289-.0526.331-.1842.125-.3945l-5.414-5.5696c-.042-.0427-.041-.1141.003-.1555l5.1-4.9523c.198-.1934.159-.2986-.118-.3157-.489-.0294-.965-.0386-1.43-.0278-.193.0046-.359.075-.498.2112l-4.4 4.3141c-.04.0369-.111.0128-.11-.0441v-4.4185c0-.0372-.019-.0557-.058-.0557l-1.452-.0024c-.04 0-.061.0201-.061.0604v11.2205c0 .0603.03.0905.089.0905h1.366c.078 0 .116-.0388.116-.116v-4.8689Zm-27.237 2.3043c.232-1.5997-.336-2.6958-1.704-3.2884-.099-.0433-.102-.092-.009-.1462.998-.5832 1.419-1.5308 1.263-2.8428-.191-1.6082-1.555-2.3648-3.059-2.3949-1.176-.0248-2.318-.0294-3.425-.014-.081.0016-.121.0418-.121.1207v11.123c0 .0662.059.1253.125.1253 1.015 0 2.089-.0016 3.221-.0046 1.736-.0046 3.43-.7728 3.709-2.6781Zm-5.489-3.9521.005-3.4067c0-.0618.054-.1161.116-.1161l1.142.0023c1.066.0016 2.211.6862 2.211 1.8566-.001 1.1247-1.204 1.7838-2.216 1.7823l-1.142-.0024c-.061 0-.116-.0543-.116-.116Zm.005 5.3051v-3.9034c0-.054.048-.1021.102-.1021h1.29c1.188 0 2.548.7508 2.548 2.077 0 1.3021-1.398 2.0306-2.548 2.0306h-1.29c-.054 0-.102-.0478-.102-.1021Zm10.079-2.3113h4.207c.061.0001.118.0403.139.0974l1.369 3.7177c.025.0665.099.1081.168.0952l1.364-.2553c.09-.0167.145-.1142.112-.1996l-4.377-11.0951c-.022-.0562-.079-.0954-.139-.0951h-1.446c-.059.0003-.115.0382-.137.0928l-4.393 11.0765c-.036.095.035.2009.137.2019l1.415.007c.061 0 .119-.0405.14-.0975l1.301-3.4508c.022-.0562.079-.0954.14-.0951Zm.427-1.3321 1.601-4.0728c.024-.0631.115-.0631.139 0l1.615 4.0658c.02.0483-.017.1027-.069.1021l-3.217.007c-.051.0006-.089-.0533-.069-.1021Zm16.291 1.8173v-8.1548c0-.0343.028-.0627.062-.0627h1.395c.031 0 .058.0273.058.058v11.1973c0 .0607-.054.1137-.116.1137l-.986.0023c-.243 0-.436-.2866-.559-.4618-1.902-2.726-3.761-5.3793-5.579-7.9599-.124-.1748-.186-.1555-.186.058v8.3057c0 .0306-.027.058-.058.058h-1.395c-.033 0-.062-.0292-.062-.0626V19.7936c0-.0789.04-.1184.12-.1184h1.281c.082 0 .147.0333.193.0998l5.734 8.1479c.065.0928.098.0828.098-.0302Z"/>
	<path fill="#333" d="M61.3838 21.0361c1.5386-.8053 2.989-.2089 4.3304.6753.2274.1516.3643.0928.4108-.1764l.1322-.7635c.0448-.2599-.0503-.4494-.2854-.5685-1.329-.6792-2.6959-.8958-4.1007-.6498-3.3023.5802-4.6088 3.6086-4.277 6.6696.3156 2.9171 2.0492 4.9754 5.0939 5.0451 1.2299.0294 2.3655-.2606 3.4068-.8703.2676-.1562.3776-.4022.3295-.738-.0062-.0431-.0301-.2072-.0719-.4919-.0511-.3434-.2198-.4177-.5059-.2227-1.0954.7471-2.511 1.3575-3.8176.9676-2.7012-.8029-3.2837-3.887-2.6432-6.34.3001-1.1526.9662-1.9981 1.9981-2.5365Zm11.6011 10.2111c4.9592.2228 6.5768-4.7179 5.1403-8.6492-.9005-2.4645-3.43-3.4879-5.9224-3.0308-3.5251.6475-4.7203 4.3304-4.0264 7.4935.55 2.5087 2.2882 4.0728 4.8085 4.1865Zm.3353-1.165c-2.4137.0046-3.766-2.5883-3.7699-4.7183-.004-2.1302 1.3402-4.7273 3.7534-4.7315 2.4137-.0042 3.7662 2.5879 3.7702 4.7183.004 2.1307-1.3403 4.727-3.7537 4.7315Zm-22.2866-9.0689.0046 3.4068c0 .0627.0556.1183.1184.1183l3.474.0093c.0554.0002.1063.043.1161.0975l.1624.9189c.0128.0713-.0436.139-.116.1393l-3.6435.0023c-.0628 0-.1183.0556-.1183.1184l.0116 3.8801c0 .0625.0554.1184.1183.1184l4.6182-.0023c.0618 0 .1171.0537.1183.116l.0116.9932c.0013.0654-.0529.1207-.1183.1207l-6.1707.0023c-.063 0-.1183-.0558-.1183-.1183l.0023-11.1416c0-.0628.0555-.1183.1183-.1183l5.9386.0023c.0628 0 .1184.0556.1184.1183l.0093.9863c0 .0628-.0556.1184-.1184.1184l-4.4185-.0047c-.0645 0-.1184.0539-.1184.1184Zm31.9233 1.4852c.048.0294.0828.0704.1044.123 1.032 2.5203 2.149 5.2711 3.3511 8.2524.0425.1018.1472.1717.2576.1717l.9004-.0023c.1316 0 .2221-.0604.2715-.1811l3.2884-8.1014c.133-.328.2128-.3156.239.0371l.5825 8.0319c.0109.1422.0866.2135.2274.2135l1.1418.0046c.1114 0 .1625-.055.1532-.1648l-.8981-11.0974c-.0046-.0594-.0597-.1094-.1207-.1091l-1.4481-.0023c-.1223 0-.2058.0564-.2506.1694l-3.5182 8.8232c-.0603.1485-.12.1485-.1787 0l-3.474-8.7582c-.0552-.1384-.1966-.2347-.3458-.2344h-1.3367c-.1177 0-.181.058-.1903.174l-.8888 11.1253c-.003.0388.0146.0588.0534.0604l1.3343.0116c.037.0014.072-.0309.0743-.0696l.6266-8.4543c0-.0225.0257-.033.0441-.0232Z"/>
</svg>