<svg xmlns="http://www.w3.org/2000/svg" viewBox="0 0 200 50">
	<path class="bg-logo" fill="#212121" d="M0 0h200v50H0z"/>
	<path fill="#fff" d="M83.8451 14.6415c.4234.206.8812.309 1.3961.309.5836 0 1.0986-.1259 1.5678-.3891.4691-.2517.8239-.6065 1.0985-1.0642.2632-.4463.3891-.9612.3891-1.522 0-.5607-.1259-1.0756-.3891-1.5333-.2746-.44634-.6294-.80108-1.0985-1.06427C86.3398 9.12588 85.8248 9 85.2412 9c-.5149 0-.9727.10299-1.3961.29752-.4234.19454-.7667.46918-1.0299.82388-.2746.3548-.4462.7667-.5149 1.2245h1.1329c.103-.4005.3089-.721.6294-.9613.3204-.2288.7209-.3547 1.213-.3547.2975 0 .5721.0572.8239.1831.2517.1259.4691.2975.6408.5149.1716.2175.2975.4692.3662.7438h-2.0713v1.0071h2.0713c-.0687.2746-.1946.5263-.3662.7438-.1717.2174-.3891.389-.6408.5149-.2518.1259-.5264.1831-.8239.1831-.4921 0-.8926-.1259-1.213-.3662-.3319-.2403-.5379-.5607-.6294-.9612h-1.1329c.0687.4463.2403.8582.5035 1.213.2632.3547.6179.6408 1.0413.8353Zm5.1954.2516c.1144.0114.2403.0229.3661.0229.3205 0 .5951-.0573.8125-.1831.2174-.1259.3891-.2976.5379-.5379.2059-.3547.3432-.801.4005-1.3617.0572-.5607.0915-1.2931.0915-2.1971v-.4005h2.426v4.6002h1.2015V9.11423h-4.7489v1.63637c-.0115.6523-.0458 1.2016-.0801 1.6593-.0344.4577-.0916.7896-.1717.9841-.0572.1373-.1487.2403-.2632.2975-.1259.0687-.2632.103-.4234.103-.0686 0-.1373 0-.206-.0229-.0711 0-.1331-.018-.2022-.038l-.0266-.0077v1.0985c.0686.0229.1602.0458.2861.0687Zm10.2416.0574c-.6065 0-1.1329-.1259-1.602-.3891-.4692-.2517-.8468-.6065-1.0986-1.0528-.2632-.4462-.4005-.9497-.4005-1.5105 0-.5607.1373-1.0756.412-1.5334.2746-.4462.6522-.80099 1.1214-1.07563C98.1836 9.12588 98.71 9 99.2707 9s1.0643.12588 1.5223.37763c.446.26319.801.60649 1.064 1.05277.263.4577.389.9498.389 1.4991v.2288c-.006.0344-.009.0687-.011.103-.003.0344-.006.0687-.012.103h-4.8519c.0458.2861.1602.5493.3319.7896.1716.2403.4005.4234.6866.5607.286.1488.595.2174.9498.2174.3318 0 .6293-.0686.9156-.2174.274-.1487.469-.3433.595-.5836h1.19c-.08.3319-.24.6408-.492.9155-.263.2746-.584.492-.973.6522-.4.1717-.8237.2518-1.2929.2518Zm1.7619-3.5589c-.068-.2746-.183-.5149-.354-.7209-.172-.1945-.378-.3547-.618-.4692-.2406-.1029-.5152-.1602-.8128-.1602-.2975 0-.5721.0573-.8239.1602-.2632.1145-.4806.2747-.6522.4807-.1831.2059-.309.4462-.3777.7094h3.6386Zm3.948-2.27737h-1.201v5.72167h1.201v-2.3116h.904l1.797 2.3116h1.499l-2.289-2.9295 2.22-2.79217h-1.43l-1.797 2.28867h-.904V9.11423Zm7.027 1.12147h-2.278V9.11423h5.756v1.12147h-2.277v4.6002h-1.201v-4.6002Zm5.561-1.12127h-1.11v8.01027h1.202v-3.021c.24.2632.537.4692.869.6179.332.1602.687.2289 1.076.2289.538 0 1.018-.1259 1.465-.3891.434-.2632.778-.6179 1.03-1.0756.24-.4463.366-.9498.366-1.5106 0-.5607-.126-1.0642-.366-1.5219-.252-.4463-.596-.80103-1.03-1.06423C120.647 9.12588 120.155 9 119.617 9c-.423 0-.801.0801-1.144.24031-.355.17165-.653.40051-.893.70948v-.83536Zm2.781 4.48577c-.275.1716-.584.2517-.916.2517-.332 0-.641-.0801-.915-.2517-.275-.1602-.492-.3776-.641-.6752-.16-.286-.24-.595-.24-.9498 0-.3547.08-.6751.24-.9612.149-.2861.366-.5035.641-.6751.274-.1602.583-.2403.915-.2403.332 0 .641.0801.916.2403.274.1716.492.389.652.6751.16.2861.24.6065.24.9612 0 .3548-.08.6638-.24.9498-.16.2976-.378.515-.652.6752Zm6.271 1.3503c-.584 0-1.099-.1259-1.568-.3891-.469-.2632-.847-.6179-1.11-1.0756-.275-.4463-.412-.9498-.412-1.5106 0-.5607.137-1.0642.412-1.5219.263-.4463.641-.80103 1.11-1.06423.469-.26319.995-.38907 1.568-.38907.583 0 1.098.12588 1.579.38907.469.2632.835.61793 1.11 1.06423.263.4577.4.9612.4 1.5219 0 .5493-.137 1.0528-.4 1.4991-.275.4577-.652.8125-1.122 1.0757-.469.2632-.995.4005-1.567.4005Zm0-1.0986c.354 0 .675-.0801.961-.2403.286-.1602.503-.3776.664-.6751.16-.2861.24-.6065.24-.9613 0-.3547-.08-.6865-.24-.9726-.161-.2861-.378-.5035-.664-.6637-.286-.1602-.607-.2403-.961-.2403-.355 0-.675.0801-.962.2403-.286.1602-.515.3776-.663.6637-.16.2861-.241.6065-.241.9726 0 .3548.081.6752.241.9613.16.2975.377.5149.663.6751.287.1602.607.2403.962.2403Zm5.859-4.73767h-1.202v5.72167h1.202v-2.3001h2.975v2.3001h1.201V9.11423h-1.201v2.30007h-2.975V9.11423Zm6.008 0h1.201v2.30007h2.975V9.11423h1.202v5.72167h-1.202v-2.3001H139.7v2.3001h-1.201V9.11423Zm8.525 0h-1.202v5.72167h2.518c.72 0 1.293-.1602 1.716-.4921.412-.3204.618-.7553.618-1.316 0-.5607-.206-1.007-.618-1.3388-.423-.3204-.996-.4807-1.716-.4807h-1.305l-.011-2.09407ZM149.175 13.6c-.183.1488-.435.2174-.767.2174h-1.362l-.011-1.602h1.373c.321 0 .572.0686.767.2174.183.1487.275.3433.275.5836s-.092.4348-.275.5836Zm3.753-4.48577h-1.201v5.72167h1.201V9.11423Zm4.108 5.83627c-.606 0-1.132-.1259-1.602-.3891-.469-.2517-.846-.6065-1.098-1.0528-.263-.4462-.401-.9497-.401-1.5105 0-.5607.138-1.0756.412-1.5334.275-.4462.652-.80099 1.122-1.07563.469-.26319.995-.38907 1.556-.38907s1.064.12588 1.522.37763c.446.26319.801.60649 1.064 1.05277.263.4577.389.9498.389 1.4991v.2288c-.005.0344-.008.0687-.011.103-.003.0343-.006.0687-.012.103h-4.852c.046.2861.161.5493.332.7896.172.2403.401.4234.687.5607.286.1488.595.2174.95.2174.331 0 .629-.0686.915-.2174.275-.1487.469-.3433.595-.5836h1.19c-.08.3319-.24.6408-.492.9155-.263.2746-.583.492-.972.6522-.401.1717-.824.2518-1.294.2518Zm1.763-3.5589c-.069-.2746-.183-.5149-.355-.7209-.172-.1945-.378-.3547-.618-.4692-.24-.1029-.515-.1602-.812-.1602-.298 0-.573.0573-.824.1602-.264.1145-.481.2747-.653.4807-.183.2059-.309.4462-.377.7094h3.639ZM83.8222 26.0047c.4577.2632.9727.3891 1.5563.3891.4921 0 .9498-.103 1.3618-.2975.4119-.1946.7552-.4807 1.0184-.8354s.4234-.7667.4921-1.2244h-1.1901c-.0916.3776-.2861.6866-.5836.9154-.309.2289-.6752.3433-1.0986.3433-.3547 0-.6637-.0801-.9383-.2517-.2861-.1602-.5036-.3777-.6638-.6752-.1602-.2861-.2403-.595-.2403-.9498 0-.3547.0801-.6751.2403-.9612s.3777-.5035.6638-.6752c.2746-.1602.5836-.2403.9383-.2403.4234 0 .7896.1145 1.0871.3319.2975.2289.4921.5378.5951.9154h1.1901c-.0572-.4577-.2175-.8696-.4807-1.2244-.2631-.3547-.595-.6294-1.007-.8239-.4119-.1945-.8697-.2975-1.3846-.2975-.5607 0-1.0757.1259-1.5448.3891-.4692.2631-.8354.6179-1.0986 1.0642-.2632.4577-.4005.9612-.4005 1.5219s.1373 1.0757.4005 1.522c.2518.4463.6179.801 1.0871 1.0642Zm5.9621-5.4472h1.2015V24.7l3.0897-4.1425h1.2473v5.7216h-1.2015v-4.1424l-3.0897 4.1424h-1.2473v-5.7216Zm8.3878 5.4472c.4578.2632.9727.3891 1.5563.3891.4916 0 .9496-.103 1.3616-.2975.412-.1946.755-.4807 1.019-.8354.263-.3547.423-.7667.492-1.2244h-1.19c-.092.3776-.286.6866-.584.9154-.309.2289-.675.3433-1.0986.3433-.3547 0-.6637-.0801-.9383-.2517-.2861-.1602-.5035-.3777-.6637-.6752-.1602-.2861-.2403-.595-.2403-.9498 0-.3547.0801-.6751.2403-.9612s.3776-.5035.6637-.6752c.2746-.1602.5836-.2403.9383-.2403.4236 0 .7896.1145 1.0876.3319.297.2289.492.5378.595.9154h1.19c-.058-.4577-.218-.8696-.481-1.2244-.263-.3547-.595-.6294-1.007-.8239-.412-.1945-.87-.2975-1.3846-.2975-.5607 0-1.0756.1259-1.5448.3891-.4692.2631-.8354.6179-1.0986 1.0642-.2632.4577-.4005.9612-.4005 1.5219s.1373 1.0757.4005 1.522c.2518.4463.618.801 1.0871 1.0642Zm7.3009-4.3258h-2.277v-1.1214h5.756v1.1214h-2.277v4.6002h-1.202v-4.6002Zm5.184 4.3258c.469.2632.995.3891 1.602.3891.469 0 .892-.0801 1.293-.2518.389-.1602.709-.3776.973-.6522.251-.2747.412-.5836.492-.9155h-1.19c-.126.2403-.321.4348-.595.5836-.287.1488-.584.2174-.916.2174-.355 0-.664-.0686-.95-.2174-.286-.1373-.515-.3204-.686-.5607-.172-.2403-.286-.5035-.332-.7896h4.852c.006-.0343.008-.0687.011-.103.003-.0343.006-.0686.012-.103v-.2288c0-.5493-.126-1.0414-.389-1.4991-.264-.4463-.618-.7896-1.065-1.0528-.457-.2517-.961-.3776-1.522-.3776-.56 0-1.087.1259-1.556.3891-.469.2746-.847.6293-1.121 1.0756-.275.4577-.412.9727-.412 1.5334 0 .5607.137 1.0642.4 1.5105.252.4463.63.8011 1.099 1.0528Zm3.009-3.8907c.172.206.286.4463.355.7209h-3.639c.069-.2632.195-.5035.378-.7095.171-.2059.389-.3661.652-.4806.252-.103.526-.1602.824-.1602.298 0 .572.0572.812.1602.241.1145.447.2747.618.4692Zm3.102-1.5565h1.922l1.739 4.337 1.728-4.337h1.888v5.7216h-1.178v-4.6002l-1.843 4.6002h-1.213l-1.865-4.6116v4.6116h-1.178v-5.7216Zm10.081 0h-1.201v5.7216h2.517c.721 0 1.293-.1602 1.717-.492.412-.3204.618-.7553.618-1.316 0-.5607-.206-1.007-.618-1.3389-.424-.3204-.996-.4806-1.717-.4806h-1.304l-.012-2.0941ZM129 25.0433c-.183.1487-.434.2174-.766.2174h-1.362l-.011-1.6021h1.373c.32 0 .572.0687.766.2175.184.1487.275.3433.275.5836s-.091.4348-.275.5836Zm3.754-4.4858h-1.202v5.7216h1.202v-5.7216Zm4.406 0h1.201V24.7l3.09-4.1425h1.247v5.7216h-1.201v-4.1424l-3.09 4.1424h-1.247v-5.7216ZM83.9825 32.001h-1.11v8.0103h1.2015v-3.021c.2403.2631.5378.4691.8697.6179.3318.1602.6866.2289 1.0757.2289.5378 0 1.0184-.1259 1.4647-.3891.4349-.2632.7782-.618 1.0299-1.0757.2403-.4463.3662-.9498.3662-1.5105s-.1259-1.0642-.3662-1.5219c-.2517-.4463-.595-.8011-1.0299-1.0643-.4348-.2632-.9269-.389-1.4647-.389-.4234 0-.8011.0801-1.1444.2403-.3547.1716-.6522.4005-.8925.7094v-.8353Zm2.7807 4.4857c-.2747.1717-.5836.2518-.9155.2518-.3318 0-.6408-.0801-.9154-.2518-.2747-.1602-.4921-.3776-.6409-.6751-.1602-.2861-.2403-.5951-.2403-.9498s.0801-.6751.2403-.9612c.1488-.2861.3662-.5035.6409-.6752.2746-.1602.5836-.2403.9154-.2403.3319 0 .6408.0801.9155.2403.2746.1717.492.3891.6522.6752.1603.2861.2404.6065.2404.9612s-.0801.6637-.2404.9498c-.1602.2975-.3776.5149-.6522.6751Zm6.2824 1.3504c-.6065 0-1.1329-.1259-1.6021-.3891-.4692-.2518-.8468-.6065-1.0986-1.0528-.2632-.4463-.4005-.9498-.4005-1.5105s.1373-1.0757.412-1.5334c.2746-.4463.6522-.801 1.1214-1.0757.4692-.2632.9956-.389 1.5563-.389s1.0642.1258 1.522.3776c.4463.2632.801.6065 1.0642 1.0528.2632.4577.3891.9498.3891 1.499v.2289c-.0058.0343-.0086.0687-.0115.103-.0028.0343-.0057.0686-.0114.103h-4.852c.0458.2861.1602.5493.3319.7896.1716.2403.4005.4234.6866.5607.2861.1487.595.2174.9498.2174.3318 0 .6294-.0687.9154-.2174.2747-.1488.4692-.3433.5951-.5836h1.1901c-.0801.3318-.2403.6408-.4921.9154-.2632.2747-.5836.4921-.9727.6523-.4005.1717-.8239.2518-1.293.2518Zm1.7622-3.5589c-.0686-.2746-.1831-.5149-.3547-.7209-.1717-.1946-.3776-.3548-.618-.4692-.2403-.103-.5149-.1602-.8124-.1602-.2976 0-.5722.0572-.8239.1602-.2632.1144-.4807.2746-.6523.4806-.1831.206-.309.4463-.3776.7095h3.6389Zm3.948-2.2774h-1.2016v5.7216h8.2278v-5.7216h-1.202v4.646h-2.311v-4.646h-1.202v4.646h-2.3112v-4.646Zm11.2032 5.8363c-.607 0-1.133-.1259-1.602-.3891-.469-.2518-.847-.6065-1.099-1.0528-.263-.4463-.4-.9498-.4-1.5105s.137-1.0757.412-1.5334c.274-.4463.652-.801 1.121-1.0757.469-.2632.996-.389 1.556-.389.561 0 1.065.1258 1.522.3776.447.2632.801.6065 1.064 1.0528.264.4577.39.9498.39 1.499v.2289c-.006.0343-.009.0687-.012.103-.003.0343-.006.0686-.011.103h-4.852c.045.2861.16.5493.332.7896.171.2403.4.4234.686.5607.286.1487.595.2174.95.2174.332 0 .629-.0687.915-.2174.275-.1488.47-.3433.595-.5836h1.191c-.081.3318-.241.6408-.492.9154-.264.2747-.584.4921-.973.6523-.401.1717-.824.2518-1.293.2518Zm1.762-3.5589c-.069-.2746-.183-.5149-.355-.7209-.171-.1946-.377-.3548-.618-.4692-.24-.103-.515-.1602-.812-.1602-.298 0-.572.0572-.824.1602-.263.1144-.481.2746-.652.4806-.183.206-.309.4463-.378.7095h3.639Zm3.948-2.2774h-1.202v5.7216h1.202v-2.3001h2.975v2.3001h1.202v-5.7216h-1.202v2.3001h-2.975v-2.3001Zm6.122 0h1.202v4.1425l3.089-4.1425h1.248v5.7216h-1.202V33.58l-3.089 4.1424h-1.248v-5.7216Zm7.324 2.9066c.194.2861.469.5149.824.6637l-1.568 2.1513h1.396l1.339-1.911h1.43v1.911h1.202v-5.7216h-2.506c-.744 0-1.339.1716-1.762.5035-.424.3433-.641.8125-.641 1.3961 0 .389.091.7209.286 1.007Zm2.06-1.9225h1.361v1.8538h-1.361c-.355 0-.63-.0801-.836-.2517-.206-.1717-.309-.3891-.309-.6752s.103-.5035.309-.6751c.206-.1717.481-.2518.836-.2518ZM49.2853 9.00781l7.5266 15.05309 7.5265-15.05309H49.2853ZM64.336 39.2559l-7.5266-15.0531-7.5265 15.0531H64.336ZM47.5457 10.0871l9.2668 14.0352 9.2683-14.0374 7.5265 13.0364-16.7742 1.0068 16.777 1.007-7.5266 13.0364-9.27-14.04-.0139-.0009-16.7804-1.0072 7.5265-13.0363ZM40 25.139l16.7996-1.0084-9.2731 14.0447L40 25.139Z"/>
</svg>