<svg xmlns="http://www.w3.org/2000/svg" viewBox="0 0 200 50">
	<path class="bg-logo" fill="#009033" d="M0 0h200v50H0V0Z"/>
	<path fill="#fff" d="M77.2 34.2h-2.4v-2.5h-1.2v6.2h1.2v-2.5h2.4v2.5h1.3v-6.2h-1.3v2.5zM83.3 34.8c.2 0 .4-.3.7-.7l1.5-2.3h-1.4l-1.2 1.9c-.3.4-.4.6-.8.6h-.5v-2.5h-1.2V38h1.2v-2.6h.6c.4 0 .6.1.8.6l1.3 2h1.4l-1.5-2.4c-.4-.6-.6-.7-.8-.8ZM61.1 25.1v.2H68.4v-1.9c0-.2-.1-.3-.3-.3h-4.6v-1.2h3.6V20h-3.6v-2.2h4.4c.1 0 .2 0 .2-.1v-2.1h-7.2v9.7ZM75.8 20.2l.3-.3c.1-.2.2-.3.4-.5.1-.2.3-.4.4-.6.2-.2.3-.4.5-.6.2-.2.3-.3.5-.4.2-.1.4-.2.5-.2h.2v-2c0-.2 0-.3-.2-.3-.5 0-1 0-1.4.2-.4.1-.8.3-1.1.5-.3.2-.6.5-.8.9-.2.3-.5.7-.7 1.1v.1s0 .2-.2.2c0 0-.1.2-.2.3 0 0-.1.2-.2.3l-.2.2h-.2v-3.6s0-.2-.1-.2H70.9V25c0 .2.1.3.3.3h2c.2 0 .3 0 .3-.3v-2.9h.3c.1 0 .3 0 .4-.2l2.6 3.2.2.2H79.9s.1 0 .1-.1V25l-4-4.8ZM98.6 15.3h-7.5V17.5h2.5v7.4s0 .2.1.2H96.1V17.5h2.3c.1 0 .2 0 .2-.1v-1.9s0-.2-.1-.2h-.2ZM108.1 23h-4.6v-1.2h3.6v-1.9h-3.6v-2.2h4.4c.1 0 .2 0 .2-.1v-2.1h-7.2V25.4H108.2v-1.9c0-.2-.1-.3-.3-.3ZM129.7 14.9H129.4l-5.9 5.4v-4.7c0-.2-.1-.3-.3-.3h-1.9c-.2 0-.3.1-.3.3v10.2h.1c.1 0 0 0 0 0l6-5.1v4.4c0 .2.1.3.3.3h1.9c.2 0 .3-.1.3-.3V15ZM140.9 15.3h-2.2V20h-3.4v-4.5s0-.2-.1-.2H132.8V25c0 .2.1.3.3.3h2.2V22.5h3.4V25.3H141.1v-9.7s0-.2-.1-.2h-.2ZM160.6 15.3h-2.1l-.2.2-1.2 3.9-.3-.9c-.1-.3-.5-1.7-.6-2l-.3-.9s0-.2-.1-.2H153.6c-.2 0-.3 0-.3.2l2.6 6.4-.2.5c0 .2-.2.3-.2.4 0 0-.2.2-.3.2h-.8V25.4c0 .2 0 .3.3.3.4 0 .7 0 1-.2.3-.1.6-.2.8-.4.2-.2.5-.4.7-.7.2-.3.3-.5.5-.9l.2-.5s.2-.5.3-.6V22.1c.2-.5.4-1 .5-1.5.2-.5 1.8-4.6 2.1-5.3V15h-.3ZM179.9 15.4h-6.3c-.2 0-.3 0-.3.3v9.7H175.7V17.8H179.6v-2.2ZM40.6 10h-7.3l-.8-2H20v12.5l2 .8v7.5l-2 .8v12.5h12.5l.8-2h7.3l.8 2h12.5V29.6l-2-.8v-7.5l2-.7V8.1H41.4l-.8 2Zm4.6 3.6h3v3l-2 .8v15.2l2 .8v3h-3l-.8-2h-15l-.8 2h-3v-3l2-.8V17.4l-2-.8v-3h3l.8 2h15l.8-2ZM90.8 25.1l-4.3-9.7v-.1s0-.1-.1-.2c0 0-.1-.2-.2-.2s-.2-.1-.3-.1c-.2 0-.3 0-.3.1 0 0-.1.2-.1.3 0 0 0 .2-.1.3l-4.3 9.7c0 .1 0 .2.3.2h2.2c.2 0 .3 0 .4-.3l.3-.9h3.5l.3.9c0 .2.2.3.4.3h2.2c.2 0 .3 0 .3-.2Zm-6-2.9 1.1-3.1 1.1 3.1h-2.1ZM118.1 17.3c-.2-.3-.4-.6-.7-.8-.3-.2-.5-.5-.8-.6-.3-.2-.6-.3-1-.4-.3 0-.7-.1-1.1-.1h-4V25.3h2.2c.2 0 .3 0 .3-.3v-1.6h1.5c.6 0 1.1-.1 1.6-.3.5-.2.9-.5 1.3-.9s.7-.8.9-1.3c.2-.5.3-1 .3-1.6s0-.8-.1-1.1c-.1-.4-.2-.7-.4-1Zm-2.1 2.8c0 .2-.2.4-.4.6-.2.2-.4.3-.6.4-.2 0-.5.1-.7.1h-1.2v-3.9h1.2c.3 0 .5 0 .8.2.2.1.4.3.6.5.2.2.3.4.4.6 0 .2.1.5.1.7s0 .5-.1.8ZM151 19.9c-.3-.3-.6-.6-1-.7-.4-.2-.8-.3-1.3-.3h-2.1v-1.3h4.2v-2.1s-.1 0-.2-.1h-6.5V25.3H148.7c.5 0 .9 0 1.3-.3.4-.2.7-.4 1-.7.3-.3.5-.6.6-1 .2-.4.2-.8.2-1.2s0-.8-.2-1.2c-.1-.4-.4-.7-.6-1Zm-1.9 2.7c0 .1-.1.2-.2.3 0 0-.2.2-.3.2H146.8v-2.2H148.6c.1 0 .2.1.3.3 0 .1.2.2.2.4v.8ZM170.7 17.3c-.2-.3-.4-.6-.7-.8-.3-.2-.5-.5-.8-.6-.3-.2-.6-.3-1-.4-.3 0-.7-.1-1.1-.1h-4V25.3h2.2c.2 0 .3 0 .3-.3v-1.6h1.5c.6 0 1.1-.1 1.6-.3.5-.2.9-.5 1.3-.9s.7-.8.9-1.3c.2-.5.3-1 .3-1.6s0-.8-.2-1.1c0-.4-.2-.7-.4-1Zm-2.1 2.8c0 .2-.2.4-.4.6-.2.2-.4.3-.6.4-.2 0-.5.1-.7.1h-1.2v-3.9h1.2c.3 0 .5 0 .8.2.2.1.4.3.6.5.2.2.3.4.4.6 0 .2.1.5.1.7s0 .5-.1.8ZM63.8 34h-1.5v-1.1h2.9v-1.2H61v6.2h2.7c1.5 0 2.1-.8 2.1-2s-.7-2-2.1-2Zm0 2.8h-1.5v-1.6h1.5c.7 0 1 .3 1 .8s-.2.8-1 .8ZM69.2 31.7l-2.6 6.2H68l.4-1.1h2.2l.4 1.1h1.4l-2.5-6.2h-.7Zm-.4 3.9.7-1.7.7 1.7h-1.3Z"/>
</svg>