<svg xmlns="http://www.w3.org/2000/svg" viewBox="0 0 200 50">
	<path class="bg-logo" fill="#8C261E" d="M0 0h200v50H0z"/>
	<g fill="#fff">
		<path d="M143.111 29.5109h3.911c.711 0 1.6-.0888 2.4-.5333.534-.3555 1.334-1.1556 1.334-2.4 0-.9778-.356-1.5111-.712-1.7778-.622-.4444-1.422-.5333-2.133-.5333h-1.422l.178-1.3333h4l.355-2.1334h-6.578l-1.333 8.7111Zm2.756-1.7777.266-1.8667h.978c.356 0 .711 0 .889.1778.089.0889.267.2666.267.6222 0 .3555-.178.6222-.445.8-.266.1778-.711.1778-.978.1778h-.977v.0889Zm4.889 1.7777h2.666l.8-1.5111h2.934l.266 1.5111H160l-1.689-8.8h-2.933l-4.622 8.8Zm5.688-6.6666.534 3.2h-2.045l1.511-3.2Zm4.534 6.6666h2.489l.533-3.5555h2.933l-.533 3.5555h2.489l1.422-8.8h-2.489l-.533 3.1111h-2.933l.533-3.1111H162.4l-1.422 8.8Zm13.511-8.7111H172l-1.422 8.8h2.489l.622-3.7333 2.044 3.7333h2.934L176 25.1554l4-4.2667h-2.844l-3.2 3.6445.533-3.7334ZM36.4444 12.1778C35.8222 12.0889 35.1111 12 34.4889 12c-2.3111 0-4.5333.6222-6.6667 1.6-2.1333 1.0667-4.0889 2.6667-5.6 4.5333l3.0222 3.1111c.4445-.7111.9778-1.2444 1.6-1.8666l-1.5111-1.4222C26.5778 16.8 28 15.8222 29.5111 15.2c1.4222-.6222 3.0222-.9778 4.6222-.9778.5334 0 1.1556 0 1.6889.0889 5.2445.7111 8.5334 5.6889 7.6445 10.9333-.4445 3.0223-2.1334 5.7778-4.4445 7.8223-2.3111 1.9555-5.2444 3.2-8.3555 3.2-3.0223 0-5.9556-1.2445-7.6445-3.6445l2.0445-1.6c-.4445-.5333-.8-1.1555-.9778-1.8666L20 32.3556c.8889 1.8666 2.3111 3.4666 4.1778 4.6222 1.6889 1.0666 3.8222 1.6 6.1333 1.6 3.6445 0 7.2-1.5111 10.0445-3.9111 2.7555-2.4 4.8-5.6889 5.4222-9.4223.5333-3.2888-.2667-6.7555-2.4889-9.4222-1.6889-1.8666-4-3.2-6.8445-3.6444Z"/>
		<path d="M27.911 24.3542h12.2667c0-1.8667-.6223-3.5556-1.8667-4.8-1.1556-1.1556-2.8444-1.8667-4.8-1.8667-2.1333 0-4.1778.8889-5.8667 2.3111-1.6 1.4222-2.8444 3.2889-3.1111 5.5111-.0889.2667-.0889.7111-.0889 1.0667 0 1.6889.5334 3.1111 1.5111 4.2667.9778 1.1555 2.3112 1.9555 4 2.2222.3556.0889.8.0889 1.1556.0889 1.9556 0 3.8222-.7111 5.4222-1.8667 1.6-1.2444 2.7556-2.8444 3.3778-4.8H27.5554c.0889.8.3556 1.5111.8 2.1333h8l-.0888.0889c-.0889.0889-.0889.1778-.1778.1778-.6222.6222-1.3334 1.1556-2.1334 1.5111-.8.3556-1.6.5333-2.4.5333-1.4222 0-2.7555-.5333-3.6444-1.5111-.7111-.8-1.0667-1.8666-1.0667-3.0222 0-.2667 0-.5333.0889-.8889.2667-1.5111 1.0667-2.9333 2.2222-3.9111 1.1556-.9778 2.6667-1.6 4.1778-1.6.8889 0 1.6889.1778 2.4889.6222.7111.3556 1.2445.9778 1.6 1.6889H29.511c-.7111.5334-1.2444 1.2445-1.6 2.0445Zm26.3111-3.9111c-1.3333 0-2.5778.6222-3.5555 1.5111l1.4222 1.5111.1778-.1778c.3555-.4444.9777-.7111 1.6888-.7111.6223 0 1.0667.2667 1.3334.5333.2666.2667.3555.6222.3555.9778h-2.7555l-.2667 1.6889h2.9333c-.1777.4444-.3555.8-.5333 1.0667-.3555.4444-.9778.7111-1.6889.7111-.6222 0-1.0666-.2667-1.3333-.5334-.0889-.1777-.2667-.2666-.3556-.4444l-1.8666 1.5111c0 .0889.0889.1778.0889.1778.7111.8889 1.7777 1.5111 3.0222 1.5111h.0889c1.0666 0 2.2222-.2667 3.2-1.0667.8889-.7111 1.8666-1.9555 1.8666-4.0889.0889-1.5111-.4444-2.4-.9777-2.9333-.4445-.7111-1.3334-1.2444-2.8445-1.2444Zm10.6667 3.4666h-2.9334l.5334-3.1111h-2.4889l-1.4222 8.7111h2.4889l.5333-3.5555h2.9333l-.5333 3.5555h2.4889l1.4222-8.7111h-2.4889l-.5333 3.1111Zm15.4666-3.1111h-3.7333l-1.4222 8.8h2.5778l.4444-2.8444h1.2445c.8 0 1.8666-.1778 2.7555-1.0667.4445-.4444.8889-1.1556.8889-2.2222 0-.7111-.1778-1.2445-.4444-1.6-.6223-1.0667-1.7778-1.0667-2.3112-1.0667Zm-.0888 3.4667c-.2667.2666-.8.3555-1.0667.3555h-.7111l.3555-1.9555h.7111c.3556 0 .7112.0889.8889.2666.0889.1778.1778.3556.1778.5334-.0889.3555-.1778.6222-.3555.8Zm-12.0889 5.2444h5.2444l.3556-2.1333h-2.8445l.2667-1.3333h2.4889l.3555-1.9556h-2.5777l.1777-1.1556h2.7556l.3555-2.1333H69.511l-1.3333 8.7111Zm45.9553-7.8222c-.622-.8889-1.778-.8889-2.311-.8889h-3.733l-1.422 8.8h2.488l.445-2.8444h1.244c.8 0 1.867-.1778 2.756-1.0667.444-.4444.889-1.1556.889-2.2222.089-.8889-.089-1.4222-.356-1.7778Zm-2.4 2.5778c-.266.2666-.8.3555-1.066.3555h-.712l.267-1.9555h.711c.356 0 .711.0889.889.2666.089.1778.178.3556.178.5334 0 .3555-.089.6222-.267.8Zm18.578-.3556h-3.022l.533-3.1111h-2.489l-1.422 8.7111h2.489l.533-3.5555h3.022l-.622 3.5555h2.489l1.422-8.7111h-2.489l-.444 3.1111Zm-45.6889-3.1111-1.4222 8.7111h2.4889l1.0666-6.6666h2.7556l.3556-2.0445h-5.2445Zm55.0219 6.2222c-.355.2667-.889.5334-1.511.5334-.622 0-1.155-.2667-1.422-.7111-.444-.6223-.444-1.2445-.267-2.0445.089-.6222.267-1.1555.889-1.6889.267-.2666.889-.5333 1.511-.5333.623 0 1.156.2667 1.423.7111.088.0889.088.1778.177.2667l1.867-1.6c-.711-1.0667-1.867-1.5111-3.2-1.5111-1.422 0-2.489.4444-3.2 1.0666-.711.5334-1.422 1.5111-1.778 2.9334-.533 2.1333.089 3.3777.8 4.0888.8.8889 1.867 1.0667 2.934 1.0667 1.422 0 2.755-.5333 3.733-1.6l-1.511-1.6c-.089.2667-.267.4445-.445.6222Zm-21.422-6.2222-4.444 8.8h2.666l.8-1.5111h2.934l.266 1.5111h2.578l-1.689-8.8h-3.111Zm-.267 5.2445 1.512-3.2.533 3.2h-2.045Zm-23.0218-5.5112c-1.0666 0-2.3111.2667-3.2889 1.0667-.8889.7111-1.8666 1.9556-1.9555 4.0889-.0889 1.5111.4444 2.4.9778 2.9333.6222.6223 1.6 1.0667 3.1111 1.0667 1.0666 0 2.3111-.2667 3.2889-1.0667.8888-.7111 1.8666-1.9555 1.9555-4.0889.0889-1.5111-.4444-2.4-.9778-2.9333-.6222-.6222-1.6-1.0667-3.1111-1.0667Zm1.5111 4.1778c0 1.1556-.4444 1.7778-.8 2.2222-.3555.3556-.9777.7112-1.6889.7112-.7111 0-1.1555-.2667-1.4222-.5334-.3555-.4444-.4444-1.0666-.4444-1.5111 0-1.1555.4444-1.7778.8-2.2222.3555-.4445 1.0666-.7111 1.6889-.7111.7111 0 1.1555.2666 1.4222.5333.4444.5333.5333 1.0667.4444 1.5111Zm3.3778-1.8666h1.9559l-1.067 6.6666h2.489l1.067-6.6666h1.866l.356-2.0445h-6.311l-.3559 2.0445Z"/>
	</g>
</svg>