<svg xmlns="http://www.w3.org/2000/svg" viewBox="0 0 200 50">
	<path class="bg-logo" fill="#003867" d="M0 0h200v50H0V0Z"/>
	<g fill="#fff">
		<path d="M67.5 24.4c-.9 2.2-2.6 5.6-4.9 10.3-1.3-2.8-2.3-4.8-3-6.1-.4-.8-.6-1.3-.8-1.6-.4-.9-.8-1.7-1.1-2.6h-5.1v.8c.9 0 1.3.1 1.5.2 0 0 .1 0 .2.1v.1c0 .2.1.7.1 1.5v9.1c0 .8 0 1.3-.2 1.5 0 0-.1.1-.2.1h-1.1v.8H57.8v-.8c-.9 0-1.4-.1-1.5-.3s-.2-.5-.2-1.1v-9.3l3.5 7.3c.9 1.8 1.5 3.3 2 4.4h.7c.4-.9.9-2 1.6-3.4 1.6-3.4 3-6.2 4-8.3v9.6c0 .3 0 .6-.1.8v.1c-.1.1-.4.2-.9.2h-.6v.9h6.5v-.8c-.9 0-1.4-.2-1.5-.2 0 0-.2-.1-.2-.2 0-.2-.1-1-.1-2.3v-8.7c0-.5.1-.8.2-.9s.6-.2 1.5-.2v-.8h-4.8ZM90.1 30.3h.6c.2 0 .4.1.6.2.2.1.4.2.5.3 0 0 .1.1.1.2s.1.6.2 1.4h.8c0-.7 0-1.4.2-2.2v-.4c0-.2 0-.4.1-.6L93 29c-.2 0-.3-.1-.5-.2H90.7c-.5 0-.8 0-1.1.1-.3 0-.7.3-1.3.7-1 .6-1.6 1-1.8 1.1-.2.2-.4.5-.6.8-.2.3-.3.7-.4 1.2v1.5c0 1.5.4 2.7 1.2 3.5.8.8 2 1.2 3.5 1.2h.8c.2 0 .4 0 .6-.1.5-.1.9-.3 1.4-.5.1-.3.3-.7.4-1l-.2-.2c-.2.1-.5.2-.8.3h-1c-1 0-1.8-.4-2.4-1.1-.6-.7-.9-1.8-.9-3.2s.2-1.8.5-2.2c.3-.4.9-.6 1.6-.6ZM105.5 29h-4v.8c.9 0 1.4.1 1.5.3v3H98.6V30.2c0-.2.5-.3 1.5-.3v-.8h-5.6v.8c.8 0 1.2 0 1.3.2 0 .1.1 1.5.1 4V37.7s-.1 0-.2.1h-1.1v.8h5.5v-.8c-.9 0-1.4-.1-1.5-.3V34H102.9v3.5c0 .2-.5.3-1.5.3v.8h5.5v-.8h-1.3c0-.1-.1-1.5-.1-4.2s0-3.3.2-3.4c0 0 .2-.1.5-.2h.8v-.8h-1.5ZM165.1 37.6c0-.1-.1-1.5-.1-4.2s0-3.3.2-3.4c.1-.1.5-.2 1.3-.2V29h-5.6v.8c.9 0 1.4.1 1.5.3V33H158V30.1c0-.2.5-.3 1.5-.3V29H154v.8c.8 0 1.2 0 1.3.2 0 .1.1 1.5.1 4V36.4c0 .7 0 1.1-.1 1.1-.1.1-.5.2-1.3.2v.8h5.5v-.8c-.9 0-1.4-.1-1.5-.3v-3.5h4.4v3.6s0 .1-.2.2c0 0-.2 0-.4.1H160.9v.8H166.5v-.8c-.5 0-.9 0-1.1-.1-.1 0-.2 0-.2-.1ZM175.9 34.3l-1.5-1.7c1.5-1.3 2.3-2 2.6-2.3.3-.2.5-.4.7-.4.1 0 .6 0 1.3-.1V29h-2.8c-1.5 1.7-3 3.2-4.5 4.4v-1.1c0-1.3 0-2.1.1-2.2 0-.1.6-.2 1.4-.3V29H167.8v.8c.8 0 1.2 0 1.3.2 0 0 0 .5.1 1.3v2.8c0 2.2 0 3.4-.2 3.6 0 .1-.5.2-1.3.2v.8h5.6v-.8c-1 0-1.5-.2-1.5-.4v-3.7c1.5 1.5 2.9 3.1 4.3 4.9h3.6v-.8c-.4 0-.7-.2-.9-.4-.3-.2-1.2-1.3-2.9-3.2ZM23.2 10.6v4.6c0 3.4 0 5.7-.2 6.7-.3.2-.6.4-1 .6v.5H32.4c0-1.1.1-2.3.3-3.5h-.9c-.2.8-.3 1.5-.5 2.1-.4 0-.7 0-1.1.1h-4c0-1.1-.1-2.6-.1-4.5v-1.1h1.3c1.2 0 2 0 2.3.1.1 0 .2 0 .3.2V18h.9v-4.6H30V14.8l-.2.1H26c0-1.2 0-2.9.2-5h2c1.2 0 2 0 2.6.2.3 0 .4.1.5.2 0 0 0 .6.1 1.6h.8c0-1.2.2-2.2.3-3-.5-.2-1-.2-1.6-.2H21.5v.8c.9 0 1.4.2 1.5.3.1.1.2.4.2.8ZM89 14.4v4.8c0 1.5 0 2.3-.2 3.8H90.5c1.5-1.7 3.3-4.2 5.5-7.5V21.8c0 .1-.6.2-1.4.3v.8h5.6v-.8H99.3c-.2 0-.4 0-.4-.2 0-.1-.1-1.5-.1-4.2v-2.8c0-.4 0-.6.1-.6l.6-.2H100.1v-.8h-3.7c-.6 1.2-2.2 3.6-4.8 7.1V14.5c0-.2.5-.3 1.5-.3v-.8h-5.5v.8c.4 0 .8 0 1 .1.2 0 .3 0 .3.2ZM104.3 23H107.1v-.8c-.9 0-1.4-.1-1.5-.3v-3.5h4.4v3.5c0 .2-.5.3-1.5.3v.8h5.5v-.8c-.8 0-1.2-.1-1.3-.3v-4.2c0-2.1 0-3.3.2-3.4 0-.1.5-.2 1.3-.2v-.8h-5.6v.8h1c.2 0 .4.1.4.2v2.9h-4.4V14.3l.1-.1h1.3v-.8h-5.5v.8c.8 0 1.2 0 1.3.2 0 .1.1 1.5.1 4v2.5c0 .7 0 1-.1 1.1h-.2c-.2 0-.6.1-1.1.1v.8h2.7ZM134.1 18.4v3.5c0 .2-.5.3-1.5.3v.8h5.5v-.8c-.8 0-1.2-.1-1.3-.3 0-.1-.1-1.5-.1-4.2s0-3.3.2-3.4c0-.1.5-.2 1.3-.2v-.8h-5.5v.8c.9 0 1.4.1 1.5.3V17.3h-4.4V14.4c0-.1.2-.2.5-.2H131.2v-.8h-5.5v.8h1.1c0 .1.1 1.5.1 4s0 3.4-.2 3.6c0 0-.2 0-.4.1h-.9v.8h5.6v-.8c-.9 0-1.4-.1-1.5-.3V18h4.4ZM144.3 23.3H145.7c.5-.1.9-.3 1.4-.5v-.3c.1 0 .2-.2.2-.2 0-.2.1-.3.2-.5l-.2-.2c-.2.1-.5.2-.8.3h-1c-1 0-1.8-.4-2.4-1.1-.6-.7-.9-1.8-.9-3.2s.2-1.8.5-2.2c.3-.4.9-.6 1.6-.6s.6 0 .8.1c.1 0 .2 0 .3.1.3.2.5.3.6.5 0 .1.1.6.2 1.4h.8c0-1 .2-2 .4-3.1l-.2-.2c-.4-.1-.7-.2-1.1-.3h-1.2c-.5 0-.8 0-1.1.1-.3 0-.7.3-1.3.7-.7.5-1.2.8-1.5 1-.1 0-.2.1-.2.2l-.1.1-.2.2c-.1.1-.2.3-.3.5-.2.3-.3.7-.4 1.2-.1.5-.2 1-.2 1.5 0 1.5.4 2.7 1.2 3.5.8.8 2 1.2 3.5 1.2ZM73.9 23.2c.8 0 1.3-.1 1.6-.4l1.5-1.3v4.6c0 .6-.1.9-.2 1-.1 0-.5.1-1.3.1v.8H81.3v-.8c-.9 0-1.4 0-1.5-.2-.1-.2-.2-1-.2-2.5v-1.9c.6.4 1.1.6 1.8.6 1.2 0 2.3-.6 3.4-1.9 1.1-1.3 1.6-2.7 1.6-4.3s-.3-2.2-1.1-2.9c-.7-.7-1.6-1-2.7-1h-.9c-.2 0-.4.2-.6.3l-1.5 1.3v-1.3c0-3 .1-4.7.2-5.2l-.3-.2c-1.2.5-2.6.8-4.1 1v.7h1.4c.1 0 .2.2.2.4v3.6c-.5-.4-1-.6-1.5-.6-.9 0-2 .6-3.3 1.7-1.3 1.2-1.9 2.6-1.9 4.4s.3 2 .9 2.8c.6.8 1.6 1.2 2.8 1.2Zm5.7-7.3c.6-.7 1.3-1 1.9-1 .7 0 1.3.3 1.7.9.2.2.3.5.4.7.2.5.3 1.1.3 1.8 0 1.2-.2 2.1-.7 2.8-.5.7-1.1 1-1.8 1s-1.1-.3-1.5-.8c-.1-.1-.2-.3-.3-.4V16Zm-6.2-.3c.4-.7 1-1 1.8-1s1.3.3 1.8 1v4.9c-.6.7-1.2 1-1.8 1s-1.3-.3-1.8-.9c-.5-.6-.7-1.4-.7-2.5s.2-1.9.7-2.6ZM35.6 19.6V22c-.2.2-.5.4-.9.6v.5h4.6c1.8 0 3-.3 3.9-.9.8-.6 1.2-1.3 1.2-2.1s-.2-1.1-.6-1.5c-.4-.4-1.4-.7-2.9-.8 2.1-.4 3.2-1.2 3.2-2.3s-.3-1.2-.9-1.5c-.6-.4-1.5-.5-2.6-.5H34.4v.8c.8 0 1.2.1 1.3.3 0 .2.1 1.9.1 5.2Zm2.5-3v-2.2c.3 0 .7-.1 1-.1 1.3 0 1.9.5 1.9 1.5s-.7 1.7-2.2 1.7H38v-.8Zm0 1.8h.9c.7 0 1.3.2 1.8.5s.7.8.7 1.4-.2 1.1-.7 1.4c-.2.2-.5.3-.8.4-.3 0-.6.1-.9.1h-1v-3.6Z"/>
		<path d="M50.1 22.9c.1 0 .3.1.4.2h1c.5 0 1-.1 1.4-.3.2-.1.8-.6 1.8-1.4l.2-.2h.1c0-.1.1-.2.1-.2.1-.2.3-.3.4-.4l.3-.3v-.1c0-.1.2-.3.3-.4.1-.3.3-.6.4-1 .2-.6.3-1.2.3-1.8 0-1.2-.3-2.2-1-2.9-.7-.7-1.6-1.1-2.8-1.1h-1.4c-.1 0-.2.1-.3.2l-1.7 1.3v-1.7l-1.1.3c-.8.2-1.8.4-3 .5v.8h1.3l.2.2c0 .2.1.9.1 2.1V26.8s0 .2-.2.2h-1.3v.8h6V27c-.9 0-1.4 0-1.5-.2l-.2-.6v-3.8h.2Zm-.3-2.1v-4.9c.2-.2.4-.4.6-.5.2-.1.3-.2.5-.3.4-.2.7-.3 1.1-.3h.5c.2 0 .4.1.6.2.2.1.5.3.7.6.5.6.7 1.4.7 2.5s-.2 2.3-.7 2.9c-.5.6-1 .9-1.7.9s-.6 0-.9-.2c-.1 0-.2 0-.3-.1-.2 0-.3-.2-.5-.4l-.5-.5ZM63.6 23.2c1.6 0 2.9-.5 3.8-1.4.9-.9 1.4-2.3 1.4-4s-.4-2.9-1.2-3.7c-.8-.8-2-1.2-3.7-1.2s-3 .5-3.9 1.4c-.8.8-1.1 2-1.1 3.6s.4 2.9 1.2 3.8c.8.9 2 1.3 3.6 1.3Zm-1.5-8.3c.4-.5.9-.8 1.5-.8s1.3.3 1.6.8c.4.7.6 2 .6 3.8s-.2 2.3-.5 2.8c-.2.3-.5.5-.8.6h-.7c-.7 0-1.3-.3-1.6-.9-.5-.8-.7-2.1-.7-3.9s.2-2.1.5-2.6ZM117.6 23.2c.3 0 .6 0 1-.1l2.1-1.6v1.4c-.1 0 0 .1 0 .1h3.8v-.8h-1c-.1 0-.2-.1-.2-.3v-5.5c0-.8-.1-1.4-.4-1.8-.2-.4-.6-.7-1.1-1-.5-.2-1.1-.4-2-.4s-.8 0-1.1.1h-.3c-.5.2-1.2.6-2.2 1.2v1.3l.7.2.5-1.1c.2 0 .4-.2.6-.2h.6c.5 0 .9 0 1.2.3.2.1.4.3.5.5.3.4.4.9.4 1.8-2.4.4-3.9.9-4.6 1.5-.5.4-.8 1.1-.8 2.1s.2 1.4.6 1.9c.4.4 1 .6 1.7.6Zm.4-3.7c0-.2.2-.4.4-.6.4-.3 1.1-.6 2.3-.8v2.5c-.6.6-1.1.9-1.7.9s-.6-.1-.9-.4c-.2-.2-.4-.6-.4-1s0-.4.1-.6ZM78.9 28.8c-1.7 0-3 .5-3.9 1.4-.8.8-1.1 2-1.1 3.6s.4 2.9 1.2 3.8c.8.9 2 1.3 3.6 1.3s2.9-.5 3.8-1.4c.9-.9 1.4-2.3 1.4-4s-.4-2.9-1.2-3.6c-.8-.8-2-1.2-3.7-1.2Zm1.5 8.4c-.3.5-.8.8-1.5.8s-1.3-.3-1.6-.9c-.5-.8-.7-2.1-.7-3.9s.2-2.1.5-2.6c.4-.5.9-.8 1.5-.8s1.3.3 1.6.8c.4.7.6 2 .6 3.8s-.2 2.3-.5 2.8ZM116.3 37.5V32c0-.8-.1-1.4-.3-1.8-.2-.4-.6-.7-1.1-1-.5-.2-1.2-.4-2-.4s-1.1 0-1.4.2c-.5.2-1.2.6-2.2 1.2v1.3l.7.2.5-1.1c.2 0 .4-.2.6-.2h.6c.8 0 1.4.3 1.7.8.3.4.4.9.4 1.8-2.4.4-3.9.9-4.6 1.5-.5.4-.8 1.1-.8 2.1s.2 1.4.6 1.9l.2.2h.2c.3.2.6.2 1 .2s.6 0 1-.1l2.1-1.6v1.4c-.1 0 0 .1 0 .1h3.8v-.8c-.6 0-1-.1-1.1-.2-.1 0-.2-.1-.2-.3Zm-2.5-1.3c-.2.2-.3.3-.5.4-.3.2-.6.4-.9.5h-.3c-.2 0-.4 0-.5-.1 0 0-.1 0-.2-.1 0 0-.1 0-.2-.1V35.9c0-.5.2-.9.5-1.2.4-.3 1.1-.6 2.3-.8v2.5ZM126.2 28.8c-.8 0-1.4.1-1.7.4l-1.7 1.3V29c0-.2 0-.2-.1-.2l-1.1.3c-.8.2-1.8.4-3 .5v.8h1.4l.1.1v10c0 1.2 0 1.9-.1 2.1-.1 0-.5 0-1.3.1v.8h5.9v-.8h-1c-.3 0-.5 0-.5-.1 0 0-.1-.2-.2-.5V38.2c.1 0 .3.1.4.2.2 0 .3.1.5.1.3 0 .6.1.9.1.5 0 1-.1 1.4-.3.2-.1.8-.6 1.8-1.4.2-.2.4-.3.5-.4.3-.3.6-.5.7-.8l.3-.6c0-.2.1-.3.2-.5v-.3c.2-.6.3-1.2.3-1.8 0-1.2-.3-2.2-1-2.9-.7-.7-1.6-1.1-2.8-1.1Zm1 6.5c-.1.6-.3 1.1-.6 1.5-.4.6-1 .9-1.7.9s-.8-.1-1.2-.3c-.3-.2-.6-.4-.9-.7 0 0 0-.1-.1-.2v-4.9c.4-.3.7-.6 1.1-.8.4-.2.7-.3 1.1-.3.7 0 1.3.3 1.8.8.5.6.7 1.4.7 2.5s0 1-.1 1.5ZM137.3 28.8c-2.1 0-3.5.8-4.4 2.4 0-3 1.1-4.5 3.1-4.5h2.4c1.7 0 2.7-.9 3-2.6l-.7-.3c-.4.5-.9.8-1.5.8-.3 0-.8 0-1.5-.1h-1.3c-1.1 0-2 .3-2.6.7-.6.5-1 1.3-1.3 2.4-.3 1.1-.4 2.5-.4 4.3s0 2.5.2 3.3c0 .4.2.8.3 1 .1.3.3.6.5.9.3.4.7.8 1.2 1 .8.4 1.6.6 2.6.6 1.6 0 2.8-.4 3.8-1.3.9-.9 1.4-2.2 1.4-4.1 0-3.2-1.6-4.7-4.7-4.7Zm1.4 8.4c-.3.5-.8.8-1.5.8s-1.3-.3-1.7-1c-.4-.7-.6-1.9-.6-3.7 0-2.3.7-3.4 2.1-3.4s1.4.4 1.8 1.1c.3.7.5 1.9.5 3.6s-.2 2.2-.5 2.7ZM152.1 37.8H151.8c-.1 0-.2-.1-.2-.3V32c0-.8-.1-1.4-.3-1.8s-.6-.7-1.1-1c-.1 0-.2 0-.3-.1-.1 0-.2 0-.4-.1-.4 0-.8-.1-1.2-.1h-1.4c-.5.2-1.2.6-2.2 1.2v1.3l.7.2.5-1.1c.2 0 .4-.2.6-.2h.6c.8 0 1.4.3 1.7.8.3.4.4.9.4 1.8-2.4.4-3.9.9-4.6 1.5-.5.4-.8 1.1-.8 2.1s.2 1.4.6 1.9c.4.4 1 .6 1.7.6s.6 0 1-.1l2.1-1.6v1.4c-.1 0 0 .1 0 .1H153.1V38h-.7Zm-3.1-1.6c-.6.6-1.1.9-1.6.9s-.6-.1-.9-.4c-.2-.2-.3-.6-.3-1V35l.2-.2c.4-.3 1.1-.6 2.3-.8v2.5ZM20 25.2h24.8v.4H20zM82.2 25.4h49.4v.4H82.2zM142.1 25.6H180v.4h-37.9z"/>
	</g>
</svg>