<svg xmlns="http://www.w3.org/2000/svg" viewBox="0 0 200 50">
	<path class="bg-logo" fill="#004A99" d="M0 0h200v50H0z"/>
	<path fill="#fff" d="M20 19h21.2326l-5.597 11.5491-8.3508-6.1302L20 19Zm18.6036 2.3685-8.5879 3.4026 5.1187 3.7566 3.4692-7.1592ZM173.693 29.928h-1.777v-9.9511h1.777v4.7092l3.908-4.7092h2.133l-4.087 4.6207L180 29.928h-2.221l-4.086-5.1534v5.1534Zm-5.42 0h-1.688v-4.1765h-4.531v4.265h-1.776v-9.9494h1.776v4.0863h4.531v-4.0863h1.688v9.8609Zm-16.79-4.0863h2.842l-1.421-3.5536-1.421 3.5536Zm-1.688 4.0863h-1.777l4.353-9.9511h1.51l4.176 9.9511h-1.866l-1.066-2.5767h-4.264l-1.066 2.5767Zm-5.331-3.0209c0-.8884-.533-1.5096-1.777-1.5096-.355 0-.799.0885-1.154.0885v2.8422c.355.0885.71.0885 1.066.0885 1.332 0 1.865-.6212 1.865-1.5096Zm-3.926 3.0486c-.292-.0156-.549-.0277-.782-.0277v-9.8609h5.774v1.5981h-4.086v2.221c.257-.0642.655-.0816.989-.0868l.343-.0017c2.132 0 3.376 1.1556 3.376 3.0209 0 2.0422-1.421 3.1979-3.82 3.1979-.723 0-1.306-.0347-1.794-.0608Zm-12.687-.0277h-1.777v-9.8609h1.777l3.376 4.619 3.198-4.619h1.688v9.8609h-1.688v-7.1957l-3.109 4.442h-.266l-3.199-4.3535v7.1072Zm-7.018-7.0187-5.242 7.0187v.0885h-1.51v-9.9494h1.777v7.017l5.242-7.017h1.51v9.8609h-1.777v-7.0187Zm-12.438 5.5976c.889 0 1.688-.2672 2.399-.7999l.622 1.4211c-.622.7114-1.866 1.1556-3.198 1.1556-3.11 0-5.153-2.044-5.153-5.1534 0-2.8422 1.777-5.1534 5.064-5.1534 1.244 0 2.398.3557 3.02.9786l-.799 1.3326c-.533-.4442-1.244-.7114-2.221-.7114-1.777 0-3.198 1.3326-3.198 3.4651 0 2.0423 1.421 3.4651 3.464 3.4651ZM95.8689 29.928h-1.8655v-9.8609h1.7768v4.7075l3.9978-4.7977h2.132l-4.0866 4.6207 4.3536 5.3304h-2.2214l-4.0867-5.1534v5.1534Zm-6.4853-4.1765h-4.442v-1.6866h4.442c-.3553-1.6883-1.6879-2.5767-3.5536-2.5767-.5578 0-1.1157.1301-1.6434.3887-.2286.1128-.4516.2498-.6663.4112l-.7107-1.3326c.6218-.5344 1.8657-1.0671 3.3759-1.0671 2.9318 0 4.9749 1.9555 4.9749 5.0649s-1.9544 5.1517-5.1525 5.1517c-1.4215 0-2.6652-.4442-3.376-1.0654l.7108-1.4211c.6218.5327 1.5102.8884 2.5762.8884 1.1314 0 2.1829-.3991 2.8335-1.225.3202-.4061.5434-.9145.6312-1.5304Zm-11.1937 2.7554c.7995 0 1.5992-.2672 2.3097-.7999l.7108 1.4211c-.6218.7114-1.8655 1.1556-3.1981 1.1556-3.1094 0-5.1527-2.044-5.1527-5.1534 0-2.8422 1.7768-5.1534 5.0638-5.1534 1.3326 0 2.3986.3557 3.0204.9786l-.7994 1.3326c-.3267-.2724-.7199-.4772-1.2003-.5969-.3037-.0746-.6422-.1145-1.0207-.1145-1.7768 0-3.1983 1.3326-3.1983 3.4651 0 2.0423 1.4215 3.4651 3.4648 3.4651Zm-12.7041-7.0187c-1.8657 0-3.287 1.4211-3.287 3.4651 0 2.0423 1.5102 3.5536 3.287 3.4634 2.1321 0 3.376-1.5096 3.376-3.4634 0-2.044-1.5102-3.4651-3.376-3.4651Zm0 8.6168c-2.9317 0-5.1527-2.0423-5.1527-5.1517 0-2.8439 2.1323-5.0649 5.1527-5.1534 2.9318 0 5.1528 2.044 5.1528 5.1534 0 3.0192-2.221 5.1517-5.1528 5.1517Zm-8.9729-6.9285c0-.9786-.7105-1.5113-1.8655-1.5113h-1.2438v3.0209c.4442.0885.8884.0885 1.2438.0885 1.0661 0 1.8655-.5327 1.8655-1.5981Zm-3.1093 3.1979v3.5536h-1.6879v-9.9511h2.8428c2.9318 0 3.8202 1.5998 3.8202 3.1996 0 1.6866-1.2437 3.1979-3.6425 3.1979h-1.3326Z"/>
</svg>