<svg xmlns="http://www.w3.org/2000/svg" viewBox="0 0 200 50">
	<path class="bg-logo" fill="#004259" d="M-.00048828 0h200v50h-200z"/>
	<path fill="#FDA329" d="M22.0146 16c-.6852 0-1.3702.1208-2.0151.403v10.0354c2.7808 1.1284 5.9245-.242 7.0529-3.0226 1.1284-2.781-.2418-5.9245-3.0227-7.0128-.292-.1094-.5923-.2023-.8973-.2712-.3682-.0834-.7429-.1318-1.1178-.1318Zm12.8564.0401c-2.9823 0-5.4005 2.4182-5.4005 5.4007 0 2.9821 2.4182 5.4003 5.4005 5.4003s5.4005-2.4182 5.4005-5.4003c0-2.9825-2.4182-5.4007-5.4005-5.4007ZM19.9995 28.8566h29.7833v4.0703H19.9995v-4.0703Zm28.6361-12.7818c-.3003-.0512-.6042-.0748-.908-.0748-.6852 0-1.3703.1614-2.0555.403-2.7808 1.1284-4.1109 4.2719-2.9823 7.0529 1.1284 2.781 4.2721 4.1109 7.0529 2.9825V16.403c-.3589-.157-.7303-.2641-1.1071-.3282Z"/>
	<path fill="#fff" d="M128.977 31.3941c-1.129-1.2091-1.693-2.7-1.693-4.5136 0-1.9749.323-3.5469.887-4.5946.605-1.0882 1.773-2.0958 3.587-2.9825.242-.1208.645-.3224 1.128-.5239l.967-.4837c.114-.0452.24-.1161.386-.1983.114-.0638.239-.1342.38-.2047.847-.5238 1.088-.9269 1.491-1.8537l2.459 1.4105c-.202.9675-.645 1.6928-1.37 2.2167-.686.5238-1.733 1.0477-3.184 1.5719-1.975.7655-2.741 1.4909-3.144 2.5791.846-.8867 2.015-1.3299 3.506-1.3299 1.29 0 2.459.4837 3.467 1.4106 1.007.9269 1.531 2.1765 1.531 3.748 0 1.6121-.524 2.9019-1.653 3.9496-1.088 1.0481-2.498 1.5318-4.272 1.5318-1.853.0401-3.304-.5243-4.473-1.7333Zm2.378-5.7632c-.605.4837-.887 1.1284-.887 1.9345 0 .806.282 1.4912.846 2.0151.605.5242 1.29.806 2.136.806.847 0 1.532-.2416 2.096-.7655.524-.5238.806-1.1689.806-1.975 0-1.5715-1.209-2.7404-2.902-2.7404-.806 0-1.491.2416-2.095.7253Zm-59.2848-7.0127c1.612 1.6121 2.4181 3.6272 2.4181 6.0453s-.8061 4.4333-2.4181 6.0453c-1.6121 1.6527-3.6272 2.4587-6.0857 2.4587-2.9824 0-5.602-1.4912-7.0126-3.8692l2.7808-1.6121c.7657 1.4106 2.3778 2.2973 4.2318 2.2973 2.66 0 4.5542-1.4913 5.1184-3.8689h-7.2947V23.092h7.2947c-.5642-2.378-2.4584-3.8693-5.1184-3.8693-1.854 0-3.4257.8466-4.2318 2.3375l-2.7808-1.6121c1.4106-2.3776 4.0706-3.8689 7.0126-3.8689 2.4585.0807 4.4736.8867 6.0857 2.539Zm15.3148 14.227h-3.5064l-4.2317-5.32v5.32h-3.0227V21.1575h3.0227v5.1586l4.0302-5.1586h3.5869l-4.7153 5.7632 4.8363 5.9245Zm.0807-5.8438c0 1.7329.5642 3.184 1.7329 4.3931 1.2091 1.209 2.66 1.773 4.4736 1.773 2.257 0 4.2317-1.1685 5.2796-3.0226l-2.6196-1.4909c-.4837.967-1.4913 1.5314-2.7003 1.5314-.9269 0-1.6523-.3223-2.2568-.8867-.5644-.6046-.8867-1.3705-.8867-2.2973 0-1.8538 1.3299-3.1837 3.1435-3.1837 1.1689 0 2.1764.6045 2.66 1.5716l2.5793-1.5314c-.9673-1.8538-2.9824-3.0227-5.2393-3.0227-1.7733 0-3.2242.5644-4.4333 1.7734-1.1687 1.2091-1.7329 2.6598-1.7329 4.3928Zm23.8183 5.8438h-3.022v-8.8665h-4.635v8.8665h-3.023V21.1575h10.68v11.6877Zm3.91-1.4507c1.209 1.209 2.66 1.773 4.392 1.773 1.734 0 3.185-.564 4.394-1.773 1.209-1.2091 1.813-2.7004 1.813-4.3931 0-1.6928-.604-3.1435-1.813-4.3526-1.209-1.2091-2.66-1.8136-4.394-1.8136-1.732 0-3.183.6045-4.392 1.8136-1.209 1.1689-1.774 2.6196-1.774 4.3526 0 1.7329.565 3.184 1.774 4.3931Zm6.649-2.0958c-.604.6045-1.329.9268-2.257.9268-.926 0-1.652-.3223-2.256-.9268-.565-.6046-.887-1.3705-.887-2.2973 0-.9269.322-1.6928.887-2.2974.604-.6045 1.33-.9268 2.256-.9268.887 0 1.653.3223 2.257.9268.605.6046.928 1.3705.928 2.2974 0 .9268-.323 1.6927-.928 2.2973Zm31.235-8.1412h-3.023v1.3705c-.927-1.1284-2.176-1.6928-3.829-1.6928-1.571 0-2.902.6045-4.03 1.8136-1.088 1.1689-1.652 2.6196-1.652 4.3526 0 1.7329.564 3.184 1.652 4.3931 1.128 1.209 2.459 1.773 4.03 1.773 1.653 0 2.902-.564 3.829-1.6924v1.3701h3.023V21.1575Zm-3.99 8.2218c-.605.6046-1.371.9269-2.298.9269-.926 0-1.692-.3223-2.297-.9269-.604-.6045-.927-1.4105-.927-2.3779 0-.9671.323-1.7731.927-2.3776.605-.6046 1.371-.9273 2.297-.9273.927 0 1.693.2822 2.298.9273.604.6446.927 1.4105.927 2.3776 0 .9674-.283 1.7329-.927 2.3779Zm14.388-8.2218h3.022v11.6877h-3.022v-4.4333h-4.635v4.4333h-3.023V21.1575h3.023v4.4333h4.635v-4.4333Zm13.017 11.6877H180l-4.837-5.9245 4.675-5.7632h-3.587l-4.03 5.1586v-5.1586h-3.022v11.6877h3.022v-5.32l4.272 5.32Z"/>
</svg>