<svg xmlns="http://www.w3.org/2000/svg" viewBox="0 0 200 50">
	<path class="bg-logo" fill="#000" d="M0 0h200v50H0z"/>
	<path fill="#4FB84E" d="M59.3122 41.3551S45 37.1092 45 16.0599V8h28.6245v8.0599c0 20.2577-14.3123 25.2952-14.3123 25.2952Z"/>
	<path fill="#055532" d="M67.5927 16.1334H56.0645v6.6926h11.5282v2.015c0 3.3822-.9636 6.1168-6.0318 6.1168h-5.4964v8.8156c1.8916 1.1873 3.2479 1.5831 3.2479 1.5831s14.3122-5.0374 14.3122-25.2951V9.98047c0 3.38233-1.4633 6.08093-6.0319 6.15293Z"/>
	<path fill="#fff" d="M132.443 18.3985c0 .9716.286 1.7991.857 2.4468.571.6476 1.321.9715 2.177.9715.892 0 1.606-.3239 2.177-.9715.571-.6477.856-1.4752.856-2.4468 0-.9355-.285-1.7271-.856-2.3388-.571-.6117-1.285-.9355-2.177-.9355-.892 0-1.606.3238-2.177.9355s-.857 1.4033-.857 2.3388Zm-2.855 0c0-1.6551.535-3.0225 1.642-4.1379 1.106-1.1154 2.534-1.6551 4.247-1.6551s3.141.5397 4.247 1.6551c1.106 1.1154 1.642 2.4828 1.642 4.1379 0 1.6912-.536 3.1304-1.642 4.2459-1.106 1.1514-2.534 1.6911-4.247 1.6911s-3.141-.5757-4.247-1.6911c-1.107-1.1515-1.642-2.5547-1.642-4.2459ZM81.5833 12.785v11.3342h2.7482v-4.2098h1.856c.8565 0 1.5703-.7196 1.5703-1.5833v-.7915h-3.4263v-2.3749h2.6411c.8566 0 1.5348-.6836 1.5348-1.5471v-.8276h-6.9241Zm0 15.0405h2.9624c1.6061 0 2.7482.7196 2.7482 2.1229 0 .6837-.3213 1.3673-.928 1.7271v.036c.9279.2879 1.2492 1.1154 1.2492 1.8351 0 1.7631-1.4633 2.4107-3.0694 2.4107h-2.9624v-8.1318Zm2.9981 3.1304c.4996 0 .7138-.3598.7138-.7556 0-.3599-.2142-.6837-.7495-.6837h-.9637v1.4393h.9994Zm.1427 3.2744c.5711 0 .8566-.3958.8566-.8636 0-.4678-.2855-.8276-.8566-.8276h-1.1778v1.6912h1.1778Zm5.9247-6.4048h2.0701l2.7482 8.0959h-2.0343l-.4997-1.6911h-2.4985l-.4996 1.6911h-2.0344l2.7482-8.0959Zm1.8203 4.8215-.464-1.5831c-.1428-.5038-.3212-1.4034-.3212-1.4034h-.0357s-.1785.8996-.3212 1.4034l-.464 1.5831h1.6061Zm5.782-4.8215h-1.9988v8.0959h1.9631v-3.7781c0-.5037-.1071-1.3673-.1071-1.3673h.0357s.3569.8276.6782 1.3673l2.2488 3.7781h1.963v-8.0959h-1.963v3.7781c0 .5037.107 1.3673.107 1.3673h-.036s-.357-.8276-.678-1.3673l-2.2129-3.7781Zm8.4589 0v3.1304h.821l1.677-3.1304h2.106l-2.177 3.886v.036l2.284 4.2098h-2.213l-1.713-3.2743h-.821v3.2743h-1.963v-8.1318h1.999Zm-13.8484-9.8952h1.1777c.464 0 .8209-.1079 1.0708-.3598.2498-.2518.3926-.5757.3926-1.0434 0-.6118-.2142-1.0435-.6782-1.2234-.2498-.108-.6067-.144-1.035-.144h-.9279v2.7706Zm-2.8197-5.1453h3.9261c.9993 0 1.7131.1079 2.1771.2878.6425.2519 1.1779.6477 1.5348 1.2234s.5353 1.2593.5353 2.087c0 .6476-.1427 1.2593-.4282 1.835-.2856.5757-.7139 1.0075-1.2493 1.2954v.036c.1071.1439.2499.3598.4283.6836l2.1772 3.9939h-3.0338l-1.9987-3.85h-1.2848v3.85h-2.784V12.785Zm10.3861 0v11.3702h7.317v-2.3748h-4.533v-2.1589h3.426v-2.3748h-3.426v-2.087h4.319V12.785h-7.103Zm9.066 11.3702V12.785h7.067v2.3747h-4.283v2.087h3.426v2.3748h-3.426v2.1589h4.533v2.3748h-7.317Zm12.956-2.3748h-1.142v-6.6207h1.142c.963 0 1.713.2519 2.248.8276.536.5758.821 1.4033.821 2.4468 0 1.0795-.285 1.907-.821 2.4827-.535.5757-1.285.8636-2.248.8636Zm-3.891-8.9954v11.3702h3.998c1.784 0 3.212-.5037 4.247-1.5112 1.035-1.0075 1.57-2.3748 1.57-4.1739 0-1.7991-.535-3.1664-1.57-4.1739-1.035-1.0075-2.463-1.5112-4.247-1.5112h-3.998Zm25.056 0-.929 11.3702h2.749l.357-5.1094c.035-.5757.035-1.2234 0-1.907h.035l.643 1.907 1.178 3.3103h2.355l1.178-3.3103c.178-.4678.393-1.1155.642-1.907h.036v1.0434c0 .3238 0 .6117.036.8636l.357 5.1094H155l-.928-11.3702h-2.998l-1.641 4.8215c-.179.4678-.358 1.1154-.572 1.8711h-.035l-.572-1.8711-1.641-4.8215h-2.998Z"/>
</svg>