<svg xmlns="http://www.w3.org/2000/svg" viewBox="0 0 200 50">
	<path class="bg-logo" fill="#060909" d="M0 0h200v50H0z"/>
	<path fill="#B4241C" d="m50.2251 12.9389 3.7649 2.9768c.5253-.7004.9631-1.4008 1.4884-2.1888L51.7135 10.75c-.4377.788-.9631 1.4884-1.4884 2.1889Zm12.4328 6.3039c-.4378.788-.9631 1.576-1.4885 2.1889l3.7649 2.9768c.5253-.7004.9631-1.4008 1.4884-2.1888l-3.7648-2.9769Z"/>
	<path fill="#C23F31" d="m48.1238 15.3927 3.7648 2.9768c.6129-.6129 1.2258-1.2257 1.8387-2.0137l-3.8524-2.9769c-.5254.788-1.1382 1.4009-1.7511 2.0138Zm12.6954 6.5666c-.6129.7004-1.2258 1.4008-1.8386 2.0137l3.7648 2.9769c.6129-.6129 1.2258-1.2258 1.8387-2.0138l-3.7649-2.9768Z"/>
	<path fill="#DA8C97" d="M46.8105 16.4426c-.4377.3502-.8755.6129-1.4008.9631l3.8524 2.9769.0875-.0876c.7005-.4377 1.4009-.9631 2.1013-1.576l-3.7648-2.9768c-.2627.2627-.6129.5253-.8756.7004Zm11.8199 7.8799c-.2626.2627-.6129.4378-.8755.7005-.4378.3502-.8756.6129-1.4009.9631l3.7649 2.9768.0875-.0875c.7004-.4378 1.4009-.9631 2.1013-1.576l-3.6773-2.9769Z"/>
	<path fill="#EDCDCD" d="m42.4326 19.0672 3.8524 2.9769c.788-.4378 1.6636-.8756 2.4516-1.4009l-3.7649-2.8893c-.788.4378-1.576.8756-2.5391 1.3133Zm13.3959 7.1795c-.7005.4378-1.576.8756-2.5391 1.3133l3.8524 2.9769c.788-.4378 1.6635-.8756 2.4515-1.4009l-3.7648-2.8893Z"/>
	<path fill="#DA8D8D" d="m39.1057 20.5578 3.6773 2.8893c.0876 0 .1751-.0876.2627-.0876.8755-.2626 1.7511-.6128 2.6266-1.0506l-3.8524-2.9769c-.788.4378-1.6635.8756-2.7142 1.2258Zm13.6585 7.3546c-.8755.4378-1.751.788-2.7142 1.2258l3.6773 2.8893c.0876 0 .1752-.0876.2627-.0876.8756-.2627 1.7511-.6129 2.6266-1.0507l-3.8524-2.9768Z"/>
	<path fill="#C52E1A" d="M37.2672 21.3456c-.5253.1752-1.0506.4378-1.4884.7005l3.7649 2.9768c.788-.5253 1.6635-.9631 2.6266-1.3133l-3.6773-2.8893c-.3502.1751-.788.3502-1.2258.5253Zm12.1701 8.0551c-.4377.1751-.788.3502-1.2257.5253-.5254.1751-1.0507.4378-1.4885.7004l3.7649 2.9769c.788-.5253 1.6635-.9631 2.6266-1.3133l-3.6773-2.8893Z"/>
	<path fill="#A6201C" d="m33.2395 24.2371 3.7649 2.9768c.6128-.7004 1.3133-1.3133 2.0137-1.8386l-3.7648-2.9769c-.7005.5254-1.4009 1.1382-2.0138 1.8387Zm12.9581 6.7417c-.7004.5253-1.4009 1.1382-2.0138 1.8386l3.7649 2.9769c.6129-.7004 1.3133-1.3133 2.0137-1.8386l-3.7648-2.9769Z"/>
	<path fill="#A01F1C" d="m31.4009 26.8624 3.7648 2.8893c.4378-.788.9631-1.576 1.4885-2.1889l-3.7649-2.9769c-.5253.788-1.0506 1.4885-1.4884 2.2765Zm12.4327 6.3039c-.5253.7004-1.0506 1.4009-1.4884 2.1889l3.7649 2.8893c.4377-.788.9631-1.576 1.4884-2.1889l-3.7649-2.8893Z"/>
	<path fill="#791D19" d="m30 29.8382 3.7649 2.9769c.0875-.4378.2626-1.0506.5253-1.6635.1751-.3502.3502-.6129.5253-.9631l-3.6773-2.8018c-.4378.788-.788 1.576-1.1382 2.4515Zm11.995 6.0413c-.4378.788-.788 1.576-1.1382 2.5391l3.7648 2.9769c.0876-.4378.2627-1.0507.5254-1.6636.1751-.3502.3502-.6129.5253-.9631l-3.6773-2.8893Z"/>
	<path fill="#DFAF1F" d="M55.6536 17.142c.5253-.7004.9631-1.4009 1.4884-2.1889l3.7648 2.9769c-.4377.788-.9631 1.576-1.4884 2.1889l-3.7648-2.9769Z"/>
	<path fill="#F0D24F" d="M53.5522 19.5958c.6129-.6129 1.2258-1.2258 1.8387-2.0138l3.7648 2.9769c-.6128.7004-1.2257 1.4009-1.8386 2.0137l-3.7649-2.9768Z"/>
	<path fill="#F6DA82" d="M50.9255 21.6089c.5254-.3503.9631-.6129 1.4009-.9632.2627-.1751.6129-.4377.8756-.7004l3.7648 2.9769c-.7004.6129-1.4009 1.1382-2.1013 1.576l-.0876.0875-3.8524-2.9768Z"/>
	<path fill="#FFF8BE" d="M47.8611 23.2704c.9631-.4378 1.7511-.8756 2.5391-1.3134l3.7648 2.9769c-.788.5253-1.6635.9631-2.4515 1.4009l-3.8524-3.0644Z"/>
	<path fill="#F6DE73" d="M44.5342 24.8469c.9631-.4378 1.9262-.788 2.7142-1.2258l3.8524 2.9769c-.8756.4377-1.7511.7879-2.6267 1.0506-.0875 0-.1751.0876-.2626.0876l-3.6773-2.8893Z"/>
	<path fill="#E4A922" d="M41.207 26.2492c.4378-.2627.9631-.5253 1.4885-.7004.4377-.1751.8755-.3503 1.2257-.5254l3.6773 2.8893c-.9631.3503-1.8386.788-2.6266 1.3134l-3.7649-2.9769Z"/>
	<path fill="#C6972C" d="M38.6677 28.4402c.6129-.7004 1.3133-1.3133 2.0138-1.8386l3.7648 2.9768c-.7004.5253-1.4008 1.1382-2.0137 1.8387l-3.7649-2.9769Z"/>
	<path fill="#C48422" d="M36.8293 31.0639c.4378-.788.9631-1.576 1.4885-2.1889l3.7648 2.9769c-.5253.6128-1.0506 1.4008-1.4884 2.1888l-3.7649-2.9768Z"/>
	<path fill="#B86821" d="m39.1933 37.1058-3.7648-2.9769c.3502-.8755.7004-1.7511 1.1382-2.5391l3.6773 2.8893c-.1751.2627-.3502.6129-.5254.9632-.1751.6128-.4377 1.2257-.5253 1.6635Z"/>
	<path fill="#D9A41F" d="M57.4922 14.6039c.4378-.7005.9631-1.576 1.3133-2.4516l3.7649 2.9769c-.3503.788-.8756 1.6635-1.2258 2.364l-3.8524-2.8893Z"/>
	<path fill="#D5931F" d="M59.0681 11.6266c.4378-.788.7005-1.75105.9631-2.6266l3.7649 2.9769c-.2627.8755-.6129 1.8386-1.0507 2.539l-3.6773-2.8893Z"/>
	<path fill="#fff" d="M88.7492 17.3149h-3.3271v-1.4008h-4.2026v1.4008h-3.152c-3.5022 0-6.3915 2.8893-6.3915 6.3915v2.8893c0 3.5022 2.8893 6.3915 6.3915 6.3915h3.2395v1.576h4.2027v-1.576h3.327c3.5022 0 6.3915-2.8893 6.3915-6.3915v-2.8893c-.0875-3.5897-2.9768-6.3915-6.479-6.3915Zm-7.5297 12.4328h-1.4884c-2.1014 0-3.7649-1.7511-3.7649-3.7648v-1.7511c0-2.1014 1.7511-3.7649 3.7649-3.7649h1.4884v9.2808Zm9.631-3.7648c0 2.1013-1.7511 3.7648-3.7649 3.7648h-1.5759v-9.2808h1.5759c2.1014 0 3.7649 1.7511 3.7649 3.7649v1.7511Zm10.5945.7004.087-9.3684h-4.2025v15.5848h4.1155l6.566-9.2808v9.2808h4.115V17.3149h-4.202l-6.479 9.3684Zm24.252-3.152h-6.479v-6.2164h-4.29v15.5848h4.29v-6.304h6.479v6.304h4.29V17.3149h-4.29v6.2164Zm40.275-6.2164c-1.488.0876-2.539 1.0507-2.889 2.1889-.963 2.9769-1.926 6.0413-2.889 8.9306l-2.977-9.0182c-.438-1.2257-1.226-2.0137-3.064-2.1013H150.3v15.5848h4.203V22.0429l3.589 10.8568h4.028l3.677-10.9444v10.9444H170V17.3149h-4.028Zm-23.552 0h-9.105v3.0645l7.267-.0876c1.838.0876 3.064.7004 3.064 2.364v.788h-6.567c-6.566 0-6.741 9.5434.175 9.3683h10.157v-9.631c.087-3.94-1.926-5.8662-4.991-5.8662Zm1.226 12.5204h-5.954c-2.276 0-2.276-3.152 0-3.152h5.954v3.152Z"/>
</svg>