<svg xmlns="http://www.w3.org/2000/svg" viewBox="0 0 200 50">
	<path class="bg-logo" fill="#E92314" d="M0 0h200v50H0z"/>
	<path fill="#fff" d="m155.156 32.8128.056-14.1283-2.039-.008-.02 5.2658-5.675-.0238.02-5.2659-4.006-.0158-.004 1.2837 1.972.0079-.052 12.8446 2.034.0119.028-7.547 5.68.0239-.028 7.547 2.034.004Zm-82.1266-14.637h-4.002v1.1247l1.983.004v.7391c-.2305.008-.4848.0199-.6398.0279-3.533.1986-5.4009 2.7143-5.4168 5.6036-.0199 2.9847 2.1023 5.3612 5.4287 5.6195.1789.012.4252.0159.6279.0159v1.6851h2.019v-1.6692c.2066 0 .461 0 .6438-.0159 3.3224-.2584 5.4447-2.6349 5.4287-5.6195-.0159-2.8892-1.8877-5.4049-5.4168-5.6076-.1629-.008-.4212-.0199-.6557-.0278v-1.8798Zm-2.019 2.8852v9.2281c-.1867-.0118-.4093-.0357-.596-.0635-1.8958-.2583-3.3225-2.2653-3.3106-4.6181.0119-2.3329 1.1724-4.0775 2.8456-4.4272.2463-.0517.7113-.0994 1.061-.1193Zm2.019 9.248v-9.236c.3497.0198.8266.0675 1.073.1192 1.6731.3497 2.8336 2.0984 2.8455 4.4312.012 2.3527-1.4148 4.3597-3.3105 4.622-.1868.0239-.4173.0477-.608.0636Zm56.3106-8.3498v-3.3026h-6.367v-.004l-2.01.004v12.8248h-2.047v1.3154h5.885c3.644 0 5.505-2.766 5.389-4.8047-.127-2.2813-2.038-3.6126-4.002-4.0021-.242-.0477-.437-.0755-.624-.0954-.6-.0556-.803.004-2.595-.0198v-3.9703l5.147-.0079v2.0626h1.224Zm-5.206 9.5262h-1.161v-6.3349l1.423.004c2.416.0079 3.541 1.4267 3.597 2.9726.063 1.7249-1.312 3.4695-3.859 3.3583Zm-22.666-12.7851-6.3778-.0278-.004 1.2837 1.9831.0079-.0476 12.8447 2.0466.008.0239-6.2595 2.3208.008c2.44.008 4.245-1.7168 4.256-3.9464.005-2.1421-1.792-3.9106-4.201-3.9186Zm-.878 6.5456-1.4938-.008.0198-5.2658 1.498.004c1.832.0079 2.985 1.1327 2.981 2.6309-.012 1.5618-1.177 2.6468-3.005 2.6389ZM170 32.8128l-6.315-8.5962 5.818-5.5321-1.86-.008-5.818 5.5321.024-5.556-4.03-.0158-.008 1.2837 1.988.0079-.052 12.8446 2.046.008.028-7.7696 5.675 7.7934 2.504.008Zm-26.794.0318-5.533-14.1482-.945-.004-5.604 14.1044 1.435.004 1.415-3.5887 5.615.0239 1.419 3.6006 2.198.008Zm-4.134-4.928-4.574-.02 2.309-5.842 2.265 5.862Zm-21.202 4.8962-5.532-14.1482-.941-.004-5.608 14.1045 1.43.0079 1.419-3.5927 5.616.0238 1.419 3.6007 2.197.008Zm-4.129-4.932-4.574-.0159 2.313-5.8421 2.261 5.858Zm-20.1293-2.313c.016-4.2087-2.7183-7.3642-6.0447-7.3762-3.3861-.0158-6.1481 3.1198-6.16 7.3245-.0159 4.1452 2.7462 7.2728 6.1044 7.2887 3.2946.008 6.0845-3.1317 6.1003-7.237Zm-2.2573-.0437c-.0119 3.5648-1.852 5.997-3.8391 5.9852-2.0785-.008-3.8669-2.4243-3.8509-6.017.0118-3.5967 1.8241-6.0289 3.8986-6.021 2.0149.008 3.8034 2.4561 3.7914 6.0528ZM30 12h26.561v26.561H30z"/>
	<g fill="#E92314">
		<path d="M55.2648 35.3203c-2.7144-.8306-7.1218-1.3711-12.0896-1.3711-4.8406 0-9.1446.5127-11.8749 1.3075v2.007h23.9446v-1.9473l.0199.0039ZM43.3103 24.0097c4.8763.0199 9.403 2.5595 11.9545 5.2222v-2.007c-2.7582-3.9662-7.1099-6.5257-12.0062-6.5257-4.8763.0199-9.2082 2.5753-11.9583 6.5217v2.007c2.5515-2.6587 6.927-5.0314 11.9583-5.2142v.004c-.0039.004 0 .0119.008.0159h.004l.008.0039c.0119.008.0278.008.0317-.0118.004-.004.004-.008 0-.016l-.0079.004.0079-.004Z"/>
		<path d="m43.2586 30.6427.0279-.008h.004l.0198.008v-.008c4.8685.008 8.9142 1.1128 11.9465 2.5912l.008.0198v-2.0108c-2.9688-2.329-7.0702-3.7676-11.9783-3.9107-4.9121.1431-9.0175 1.5817-11.9862 3.9146v2.0069l.008-.0158c3.0362-1.4784 7.074-2.5872 11.9503-2.5912v.004Z"/>
	</g>
	<path fill="#000" d="M55.2648 25.4936c-2.7184-4.9797-7.1218-8.2186-12.0896-8.2186-4.8446 0-9.1486 3.0681-11.8749 7.8252V13.3008h23.9446v12.1928h.0199Z"/>
</svg>