<svg xmlns="http://www.w3.org/2000/svg" viewBox="0 0 200 50">
	<path class="bg-logo" fill="#8A2533" d="M0 0h200v50H0z"/>
	<g fill="#fff">
		<path d="M99.0737 18.1262c-1.0948-.1684-2.1895-.0842-3.2842-.1684h-.5053v-1.4316h-4.2947v1.4316c-1.0948 0-2.1895-.0842-3.2842 0-1.7685.0842-2.9474 1.0105-3.1158 2.6105-.0842 1.4316-.1684 2.9474 0 4.379.1684 1.7684 1.2631 2.6947 3.0316 2.7789 1.0105.0842 1.9368.0842 2.9473.0842h.4211v1.5158h4.2947v-1.5158h.5053c.9263 0 1.9368 0 2.8631-.0842 1.7684-.0842 2.8634-1.0947 3.0314-2.9473.084-1.3474.084-2.6948 0-4.0421-.084-1.4316-1.01-2.4421-2.6103-2.6106Zm-8 7.579c-.5895-.0842-1.179-.0842-1.6842-.2526-.4211-.1685-.6737-.5895-.6737-1.0106 0-1.0947-.0842-2.1052 0-3.2 0-.7579.421-1.0947 1.1789-1.1789.4211-.0842.7579-.0842 1.179-.0842v5.7263Zm6.4842-1.3474c0 .7579-.4211 1.179-1.2632 1.2632h-1.1789v-5.6421c.5053.0842.9263.0842 1.3474.0842.5894.0842.9263.5052 1.0105 1.1789.0842 1.179.0842 2.1053.0842 3.1158Zm38.3161 3.0316h-1.685v-6.3158h-3.536v6.3158h-1.685v-6.3158h-3.705v8.3368h14.232v-8.3368h-3.706c.085 2.1053.085 4.2105.085 6.3158Zm-14.653-6.4c-1.179-.1684-2.358-.1684-3.368.7579 0-.2526 0-.5053-.085-.6737h-3.621v12.1263h3.706v-4.5474c.842.8422 1.936.9264 2.947.9264 1.6-.0842 2.442-.7579 2.779-2.3579.337-1.3474.337-2.6948 0-3.9579-.168-1.3474-1.011-2.1053-2.358-2.2737ZM119.2 27.642c-.589.0842-1.095-.2526-1.263-.8421-.084-.1684-.084-.421-.084-.5895v-2.021c0-.5895.421-1.0105.926-1.0947.674-.0843 1.179.2526 1.179 1.0105v2.6105c.084.5053-.253.9263-.758.9263Zm50.526-6.5684h-7.242c-.252 0-.337.1684-.337.3368-.084 1.0106-.084 2.0211-.168 3.0316s-.084 2.0211-.168 3.0316h-.927v4.6316h2.358c0-.9263.084-1.7684.169-2.6948h4.631c.084.9264.084 1.7685.169 2.6948h2.357v-4.6316h-.842v-6.4Zm-3.789 6.4H164c.084-1.5158.168-2.9474.253-4.4632h1.684v4.4632Zm-55.242-6.2316c-1.937-.5052-3.79-.5052-5.727 0-1.094.3369-1.852 1.0948-1.936 2.2737-.085 1.0105-.085 2.1053 0 3.1158.168 1.6.926 2.4421 2.526 2.6947.674.0842 1.347.1685 2.105.1685 1.011 0 2.105 0 3.116-.3369 1.095-.3368 1.684-1.0105 1.853-2.1053.084-.5894.084-1.2631.168-1.6842 0-.5894-.084-1.0947-.084-1.6-.084-1.3473-.758-2.1894-2.021-2.5263Zm-1.769 3.9579v1.5158c0 .5895-.337.9263-1.01 1.0105-.674.0842-1.095-.2526-1.095-.8421 0-1.0947-.084-2.1894 0-3.2842 0-.6737.505-.9263 1.263-.8421.59.0842.842.4211.842 1.0105v1.4316Zm48.59-4.1263c-1.6-.3368-3.2-.1684-4.884 0-1.6.2526-2.021 1.8526-1.769 2.9474h3.032c.168-1.179.421-1.3474 1.431-1.2632.674.0842.927.4211.842 1.5158-1.179.2526-2.273.4211-3.452.6737-1.684.3368-2.274 1.0947-2.105 2.8631.084.9264.673 1.6 1.6 1.6843.757.0842 1.431.0842 2.189.0842.758-.0842 1.263-.4211 1.684-1.0948v-.1684c.084.0842.084.0842.169.0842v1.0948h3.452v-5.8106c0-.2526 0-.5052-.084-.6737-.168-1.2631-1.01-1.6842-2.105-1.9368Zm-1.348 5.6421c-.168.6737-.926 1.0947-1.6.9263-.252-.0842-.505-.2526-.505-.5895 0-.421.084-.8421.505-1.0105.506-.1684 1.095-.3368 1.685-.5052 0 .421 0 .8421-.085 1.1789Zm-15.494-3.3684h2.694v6.0631h3.706v-6.0631h2.694v-2.2737h-9.094v2.2737Zm38.821-2.2737h-8.506c-.084 0-.168.0842-.168.1684v2.1053h2.779v6.0631h3.705v-6.0631H180v-2.2737h-.505Zm-105.4318.8421c.0842-.0842.1684-.1684.2526-.3368h-2.4421c.0842.1684.1684.2526.2526.3368s.2526.1684.2526.2526v2.1895h-3.1157v-2.1053c0-.1684.1684-.2526.2526-.3368l.2526-.2526-.0842-.0842h-2.2737c.0842.1684.1684.2526.1684.3368.2527.0842.3369.3368.3369.5053v4.6315c0 .1685-.1684.3369-.2526.5053-.1685.1684-.1685.2526-.1685.4211h2.3579c-.0842-.1685-.1684-.3369-.2526-.3369-.2526-.0842-.2526-.2526-.2526-.5052V25.0315h3.1158v2.2737c0 .1684-.1685.2526-.2527.3368-.1684.0842-.2526.2527-.1684.4211h2.1895l.0842-.0842c-.0842-.0842-.1684-.1685-.2526-.3369-.0843-.1684-.2527-.3368-.2527-.5052v-4.6316c0-.2526.1684-.4211.2527-.5895Zm5.9789 4.6316c-.0842-.2526-.0842-.4211-.1684-.6737-.1684-.7579-.6737-1.2632-1.4316-1.4316-.1684-.0842-.3368-.0842-.421-.0842l1.0105-1.0105c.1684-.1684.2526-.3369.421-.5053.2527-.1684.4211-.1684.6737 0 .0842.0842.2526.0842.4211.1684v-1.5157c-.9263-.2527-1.5158 0-1.9369.8421-.1684.3368-.2526.6736-.5052 1.0105-.2527.421-.6737.6737-1.179.6737v-1.6842c0-.1685.1684-.2527.2526-.4211.0843-.0842.1685-.1684.2527-.3368l-.0842-.0842h-2.2737l-.0842.0842.2526.2526c.0842.1684.2526.3368.2526.5053v4.6315c0 .1685-.1684.3369-.2526.5053-.0842.0842-.1684.1684-.2526.3368h2.4421c-.0842-.1684-.0842-.2526-.1684-.3368-.2527-.1684-.3369-.3368-.3369-.5895V24.442c.5895-.0842 1.179.2527 1.3474.8421.1684.4211.2526.7579.3368 1.179.2527 1.0947 1.0106 1.6 2.1053 1.4316.2526-.0843.421-.1685.3368-.4211-.6737 0-.9263-.4211-1.0105-.9263Zm-21.8105-2.2737c-.3369-.0842-.6737-.0842-1.0105-.0842h-.7579v-2.1053h1.0947c.6737-.0842 1.0947.2527 1.2632.8421.0842.2527.1684.2527.421.1685v-1.6c-.421.0842-.8421.0842-1.2632.0842h-3.4526c.0842.1684.0842.3368.1684.3368.2527.0842.3369.3369.3369.5895v4.5473c0 .1685-.1684.3369-.2527.5053-.0842.0842-.1684.1684-.2526.3369l.0842.0842h2.1053c.421 0 .9263 0 1.3474-.0842 1.0105-.1685 1.6-.8422 1.6-1.7685.0842-1.0105-.4211-1.6842-1.4316-1.8526Zm-.1684 2.6105c-.0843.3369-.3369.5895-.6737.5895h-1.0106v-2.7789h.9264c.3368.0842.5894.2526.7579.5894.1684.5053.1684 1.0106 0 1.6Zm7.8315-.6737c-.7579-1.5157-1.4315-2.9473-2.1052-4.4631-.1684-.3369-.3369-.3369-.5895-.1684-.2526.1684-.5053.2526-.7579.3368-.2526.0842-.2526.1684-.2526.3368.421.0843.5052.1685.3368.5053 0 .1684-.0842.2526-.1684.3369-.5895 1.2631-1.179 2.5263-1.7684 3.7052-.1684.2527-.3369.4211-.5053.6737-.0842.0842-.1684.2526-.2526.4211h1.8526l.0842-.0843c-.0842-.0842-.1684-.2526-.2526-.2526-.4211-.1684-.5053-.3368-.3369-.7579.0843-.0842.0843-.1684.1685-.3368.0842-.2527.1684-.2527.421-.2527h1.9369c.6736 0 .6736 0 .9263.6737.0842.3369 0 .5053-.2527.6737-.0842.0842-.1684.1684-.2526.3369h2.6948c0-.1685 0-.2527-.0843-.3369-.421-.3368-.5894-.8421-.8421-1.3474Zm-4.1263-.5052c.4211-.8421.7579-1.6 1.179-2.5263.421.8421.7579 1.6842 1.1789 2.5263h-2.3579Zm-23.2421 8.1684 1.2632-.8421V32.021l9.4316-6.3158-10.6948-7.0737v15.2421Zm1.2632-13.3053 7.7473 5.1369-7.7473 5.1368V20.5683Zm-4.8842 14.1474v-1.9368l-12.0421-8.0842.7579-.4211 11.2842 7.579v-1.179l-10.4421-6.9895 10.4421-6.9894v-1.9369L20 24.7789l14.9053 9.9368Z"/>
		<path d="m36.1685 35.4737 1.1789-.8421-.0842-17.9369 12.8 8.5053 1.4316-.9263L36.1685 14v21.4737Z"/>
	</g>
</svg>