<svg xmlns="http://www.w3.org/2000/svg" viewBox="0 0 200 50">
	<path class="bg-logo" fill="#0059A5" d="M0 0h200v50H0z"/>
	<g fill="#fff">
		<path d="M53.9656 27.992c2.0302-1.1399 4.7752-2.8846 6.3356-4.5014-7.6741-2.2896-28.7448.1986-45.2991 5.8667-.0026-.187-.0026-.374-.0009-.5601 4.8996-2.0722 10.7332-4.385 15.8868-5.8014 5.5992-1.5389 11.2753-2.8524 17.0409-3.5762 3.1996-.4017 10.6652-1.1256 13.2223.8053.6317.5529.5019.2353.6889 3.8911-.0116.2774.0716.5968-.1378.8259-1.0119 1.1076-4.7 2.2547-7.088 3.1601l-.6487-.11Z"/>
		<path d="M53.1004 27.8624c-7.3573-.2031-17.9938 2.7638-23.9759 5.6323 0 .2094-.0009.4187.0009.629 6.9529-2.592 19.7976-5.4113 27.0493-3.1709-2.6895 2.6341-6.2264 3.7847-7.2258 4.513 8.4462-3.4778 8.2252-3.051 8.2422-4.1703-.1243-2.3299-.0313-2.1429-.4563-2.5124-.8732-.663-2.5016-.8894-3.6344-.9207ZM41.4422 15.019c-8.2225.1655-18.0081 3.4134-25.556 6.6067-.0009.1181-.0009.2371 0 .3552 8.2735-2.8524 23.9446-5.8256 30.1934-3.9708-.493.4867-1.0415.9117-1.5935 1.3278.841-.1325 1.6812-.2685 2.5258-.3749.0313-.0877.093-.17.0868-.2693-.0537-.7883-.0439-1.5819-.1316-2.3684-.17-1.5201-6.0966-1.3278-5.5249-1.3063ZM112.643 20.3482c-.612-.5717-1.469-.7865-2.285-.8276-1.485-.0009-2.971 0-4.455 0-.003 3.8616-.001 7.7232-.001 11.5858h1.477c-.001-1.5667.001-3.1333-.001-4.7.97-.0036 1.941-.0009 2.911-.0009.964-.009 1.954-.3642 2.606-1.096.667-.7033.946-1.7081.859-2.6628-.062-.8714-.484-1.699-1.111-2.2985Zm-.927 4.1703c-.426.4644-1.07.6648-1.687.6684-.883.0018-1.766 0-2.649.0009-.001-1.4727 0-2.9464-.001-4.42.948.0027 1.895-.0027 2.843.0027.599.0081 1.215.2559 1.572.7543.666.85.672 2.1938-.078 2.9937Zm-15.5202-4.9988c2.6994-.0009 5.4002 0 8.0992-.0009v1.2821c-1.1-.0009-2.199.0009-3.299-.0009-.004 3.4358-.001 6.8697-.001 10.3055-.499-.0009-.9984.0018-1.4967-.0009.0027-3.4349 0-6.8688.0009-10.3037-1.1014.0009-2.202.0009-3.3034 0-.0017-.4268-.0017-.8544 0-1.2812Zm-24.9207.0009c1.9854-.0009 3.9716-.0018 5.957 0 .0018.4259.0018.8527 0 1.2794-1.4933.0027-2.9866.0009-4.4799.0009 0 3.4349-.0008 6.8697 0 10.3046h-1.4771c0-3.8625-.0009-7.7233 0-11.5849Zm24.1862 7.4495c.1834.8732.0787 1.8315-.3973 2.5982-.3785.6067-.9216 1.1256-1.5881 1.4003-.859.3606-1.8145.416-2.7334.3588-.9842-.0716-1.9845-.4035-2.6949-1.1122-.6585-.6182-1.0227-1.4843-1.1927-2.3594.4474-.1082.8947-.2093 1.3412-.3221.1825.7319.476 1.4898 1.0844 1.9729.6809.5404 1.5899.6711 2.4346.6281.6433-.0403 1.3241-.2398 1.75-.7534.6004-.6817.689-1.7053.3642-2.532-.1745-.4474-.5574-.7883-1.0039-.9529-.7596-.2899-1.5863-.1897-2.38-.2103-.0009-.416-.0035-.8321.0009-1.2472.7883-.0179 1.6463.1029 2.3523-.332 1.0504-.5941 1.1935-2.252.3006-3.0447-.4706-.4375-1.1372-.5914-1.7653-.5887-.6719-.0063-1.377.1574-1.8923.6084-.4734.4115-.7221 1.02-.8348 1.6248-.4814-.0394-.9619-.102-1.4414-.1566.2192-.9332.6388-1.8709 1.4154-2.4703.9305-.7382 2.185-.8831 3.3329-.7829 1.0128.0778 2.0453.4814 2.6958 1.2884.5511.6505.7131 1.5667.5502 2.3898-.0993.5342-.399 1.0263-.8276 1.36-.3677.2935-.8043.4912-1.2544.6218.4179.1163.8473.2148 1.2222.442.5896.3239 1.0209.9126 1.1614 1.5712Zm-14.4337-7.4522c-1.267 3.8598-2.5124 7.7259-3.7767 11.5867.4161.0027.8312 0 1.2473.0009.3534-1.1292.7095-2.2574 1.0584-3.3874 1.4218.0017 2.8435-.0045 4.2652.0035.3785 1.1301.7775 2.2521 1.156 3.3821.5037.0054 1.0065.0009 1.5103.0018-1.258-3.8617-2.5097-7.726-3.7731-11.5858-.5637-.0009-1.1256.0018-1.6874-.0018Zm-1.0827 7.0925c.5968-1.8262 1.1829-3.6559 1.7859-5.4784.595 1.8234 1.1811 3.6514 1.7653 5.4784h-3.5512Zm91.5321-7.0907c.495-.0009.991 0 1.487-.0009v11.5858h-1.488c.001-1.8324 0-3.6657.001-5.4972-1.771-.0009-3.542 0-5.314-.0009.001 1.8324-.001 3.6648.001 5.4972-.492.0009-.983 0-1.474.0009V19.5188c.49.0009.981-.0009 1.472.0009.002 1.5953.001 3.1915.001 4.7868 1.772-.0018 3.543.0035 5.315-.0027-.004-1.5935-.003-3.1888-.001-4.7841ZM185 31.1055h-1.617c-1.142-2.1295-2.297-4.2535-3.44-6.383-.841 1.0495-1.673 2.1071-2.517 3.1548-.052.0689-.125.1351-.108.23-.001.9994 0 1.9988 0 2.9982h-1.477c.001-3.8617-.001-7.7233.001-11.5858.491-.0009.983-.0009 1.475.0009.003 2.2162-.004 4.4324.003 6.6496 1.732-2.2127 3.462-4.4262 5.184-6.6478.53-.0054 1.062-.0018 1.593-.0018-1.048 1.3501-2.096 2.6985-3.146 4.0477 1.351 2.5115 2.701 5.0239 4.049 7.5372Zm-54.032-11.5849c.49-.0027.981-.0009 1.472-.0009v11.5858c-.492-.0009-.983.0009-1.474-.0009.002-1.8324 0-3.6648.001-5.4972-1.772.0009-3.543 0-5.314.0009.001 1.8324 0 3.6648.001 5.4972h-1.488V19.5188c.496.0009.991-.0009 1.487.0009.003 1.5962-.003 3.1924.002 4.7886 1.77-.0027 3.541 0 5.312-.0009 0-1.5953-.001-3.1915.001-4.7868Zm5.416 3.9001c-.189.8741-.221 1.776-.17 2.6672.076.943.3 1.9013.831 2.6976.343.5278.836.9806 1.445 1.1747.866.281 1.901.1137 2.566-.5296.637-.5861.949-1.4253 1.172-2.2404.452.1011.904.2004 1.358.2997-.254 1.0585-.702 2.1196-1.518 2.8676-.567.5243-1.306.8455-2.068.9412-1.023.1414-2.12-.0062-2.996-.5788-.7-.4483-1.218-1.1283-1.601-1.8566-.748-1.4342-.916-3.1029-.763-4.6937.128-1.3162.6-2.6422 1.533-3.6049.591-.6272 1.386-1.0549 2.234-1.2079.847-.1485 1.744-.1279 2.558.1691.695.2541 1.294.7391 1.714 1.3457.451.6362.723 1.3797.91 2.1304-.468.0966-.935.1923-1.402.28-.23-.8428-.598-1.7018-1.297-2.2619-1.007-.7802-2.581-.6173-3.459.2881-.57.5664-.877 1.3403-1.047 2.1125Zm-17.46-3.901c-.567-.0009-1.132-.0009-1.698 0-1.253 3.8625-2.517 7.7206-3.766 11.5858h1.241c.357-1.1283.705-2.2592 1.063-3.3874 1.421.0044 2.842-.009 4.263.0071.377 1.13.773 2.2529 1.157 3.3803.502-.0009 1.004.0009 1.506-.0009-1.253-3.8616-2.516-7.7215-3.766-11.5849Zm-2.775 7.0907c.495-1.5237.991-3.0475 1.486-4.5721.106-.3024.183-.6146.311-.9081.571 1.8306 1.172 3.6532 1.758 5.4802-1.185.0009-2.369-.0009-3.555 0Zm43.288-7.0898c-.564-.0036-1.128 0-1.691-.0009-1.259 3.8607-2.52 7.7215-3.769 11.5858.414 0 .829.0018 1.244-.0009.353-1.1283.704-2.2583 1.06-3.3857 1.418-.0008 2.836.0018 4.255-.0017.391 1.1291.774 2.2609 1.168 3.3901.499-.0009.999 0 1.499 0-1.247-3.8661-2.51-7.7251-3.766-11.5867Zm-2.77 7.0898c.6-1.827 1.175-3.6648 1.795-5.4856.571 1.8324 1.173 3.6559 1.758 5.4847-1.184.0018-2.369 0-3.553.0009Zm-3.795-.6442c-.306-.612-.813-1.1569-1.474-1.3797-.572-.1906-1.178-.238-1.775-.2711-.943-.0465-1.886-.0197-2.828-.0259.001-1.1632-.003-2.3272.003-3.4904 1.742.0036 3.484.0018 5.226.0009.001-.4267.001-.8526 0-1.2794-2.22-.0018-4.439-.0018-6.659 0-.003 3.8616.001 7.7232-.001 11.584 1.361.0027 2.722.0009 4.083.0009.771-.0009 1.566-.1047 2.254-.4742.828-.4492 1.384-1.3242 1.501-2.252.101-.8125.026-1.6678-.33-2.4131Zm-1.683 3.2997c-.433.4018-1.043.5234-1.615.5458-.926.0036-1.852 0-2.779.0018-.001-1.4083 0-2.8157-.001-4.224.862.0018 1.724-.0018 2.585.0018.607.025 1.262.0921 1.755.484.469.3776.636 1.0102.619 1.59.017.5744-.13 1.1962-.564 1.6006Z"/>
	</g>
</svg>