<svg xmlns="http://www.w3.org/2000/svg" viewBox="0 0 200 50">
	<path class="bg-logo" fill="#30A6E0" d="M0 0h200v50H0z"/>
	<path fill="#fff" d="M169.805 31.2486v-4.8029h-5.816v4.8029h-1.85V20.1639h1.85v4.5723h5.816v-4.5723h1.849v11.0847h-1.849Zm12.607-.0004-4.315-4.7176h-2.006v4.7075h-1.844V20.1586h1.844v4.6624h2.055l4.181-4.6624h2.307l-4.828 5.3693L185 31.2282l-2.588.02Zm-26.068-3.2632c-.393.5469-.909.9932-1.507 1.3025-.598.3094-1.26.4728-1.933.4772-1.082 0-1.799-.5012-1.799-1.3787 0-.737.576-1.2883 1.569-1.5641 1.213-.2311 2.438-.3984 3.67-.5014v1.6645Zm3.363 1.3887c-.065.1411-.169.2619-.298.35-.128.0881-.277.1403-.433.1513-.108.0018-.215-.0191-.315-.0612-.099-.0422-.189-.1047-.263-.1837-.074-.079-.13-.1724-.165-.2745-.035-.102-.049-.2102-.039-.3179v-5.4344c0-2.1257-1.825-3.6699-4.297-3.6699-.654-.0301-1.307.07-1.921.2947-.615.2246-1.179.5693-1.659 1.0138l1.234 1.2334c.281-.2969.625-.5277 1.006-.676.382-.1481.791-.2101 1.2-.1814 1.503 0 2.587.9476 2.587 2.216v.8322c-1.71.1855-2.908.3459-3.625.5014-2.217.4612-3.51 1.6394-3.51 3.4191 0 1.7797 1.384 2.8877 3.51 2.8877 1.504 0 2.722-.3108 3.695-1.4439.205 1.0028 1.177 1.4439 2.4 1.4439.389.0018.772-.0807 1.124-.2418.352-.1609.665-.3966.917-.6906l-1.148-1.1682Zm-17.452.08c-.741 0-1.466-.2199-2.083-.632-.616-.4121-1.096-.9978-1.381-1.683-.284-.6852-.358-1.4392-.213-2.1666.144-.7275.502-1.3957 1.026-1.9201.525-.5245 1.193-.8817 1.92-1.0264.728-.1447 1.481-.0703 2.167.2135.685.2838 1.271.7644 1.683 1.3811.412.6167.632 1.3417.632 2.0835 0 .9946-.396 1.9484-1.099 2.6516-.703.7033-1.657 1.0984-2.652 1.0984Zm0-9.3049c-1.372-.0041-2.696.5035-3.714 1.4238.118-.9831.59-1.8893 1.329-2.5491.738-.6599 1.691-1.0279 2.682-1.0355v.0201c1.13-.0226 2.252-.1911 3.339-.5014.712-.2518 1.362-.6517 1.91-1.1731L146.482 15c-.391.3612-.846.6451-1.343.8372-.552.2307-1.273.2757-2.578.3359-1.549.0079-3.032.6259-4.13 1.72-1.096 1.0942-1.718 2.5764-1.73 4.1256v3.68c.001 1.0982.327 2.1714.938 3.0841.611.9127 1.479 1.624 2.493 2.0438 1.016.4198 2.131.5294 3.209.3149 1.077-.2145 2.066-.7435 2.843-1.52.776-.7766 1.305-1.7659 1.519-2.843.215-1.077.106-2.1935-.315-3.2083-.419-1.0148-1.13-1.8825-2.043-2.4932-.913-.6107-1.986-.9372-3.084-.9383M123.787 30.3764l1.368 1.2384 5.389-5.9861L129.3 24.25l-5.513 6.1264ZM66.8838 31.2687v-4.7979h-5.8155v4.7979h-1.8501V20.1889h1.8501v4.5723h5.8155v-4.5723h1.85v11.0798h-1.85Zm-36.7383-3.2336c-.3922.5469-.9083.9933-1.506 1.3026-.5978.3094-1.2602.4729-1.9332.4772-1.0829 0-1.7998-.5013-1.7998-1.3787 0-.737.5765-1.2884 1.5692-1.5641 1.2137-.2311 2.4386-.3985 3.6698-.5014v1.6644Zm3.364 1.3888c-.0664.141-.1692.2619-.298.35-.1286.088-.2784.1404-.434.1513-.1056.0022-.2107-.0174-.3084-.0574-.0978-.0401-.1863-.0997-.2602-.1754-.0738-.0757-.1312-.1657-.1688-.2645-.0376-.0988-.0546-.2043-.0496-.3099v-5.4495c0-2.1257-1.825-3.6699-4.2966-3.6699-.6536-.0298-1.3066.0704-1.9211.2951-.6145.2246-1.1782.5691-1.6584 1.0135l1.2382 1.2132c.2817-.2968.6255-.5277 1.007-.6759.3813-.1481.7908-.2101 1.199-.1815 1.504 0 2.5869.9476 2.5869 2.216v.8322c-1.7096.1855-2.9078.346-3.6247.5014-2.216.4612-3.5094 1.6394-3.5094 3.4192 0 1.7797 1.3636 2.9127 3.4893 2.9127 1.5041 0 2.7223-.3108 3.6949-1.4438.2055 1.0027 1.1781 1.4438 2.4015 1.4438.393.0011.7816-.0848 1.1377-.2511.3562-.1664.6713-.4093.9228-.7114l-1.1481-1.1581Zm39.1849-4.5373h7.7104c-.1261-.9308-.575-1.7877-1.2683-2.4215-2.0053-1.8248-6.3219-.6667-6.4371 2.4215h-.005Zm8.7029 4.3666c-.7525.9452-1.779 1.6349-2.9387 1.9746-1.1596.3397-2.396.3131-3.5398-.0765-1.1439-.3895-2.1396-1.1229-2.851-2.0997-.7113-.9768-1.1036-2.1496-1.1232-3.3579 0-3.3889 2.3513-5.7653 5.6051-5.7653 3.0431 0 5.68 2.1908 5.68 5.4445.0072.4013-.0229.8025-.0902 1.1982h-9.4251c.3459 2.0053 1.87 3.2287 4.0107 3.2287.6821.019 1.3578-.1363 1.9631-.4513.6053-.3149 1.1203-.779 1.4962-1.3485l1.2129 1.2532Zm-30.1204-9.2397c-.8051-.0132-1.604.1429-2.345.4581-.741.3153-1.4075.7826-1.9564 1.3717l1.1832 1.1782c.3896-.4391.8694-.7888 1.4068-1.025.5374-.2362 1.1196-.3535 1.7065-.3436.9353-.0526 1.8559.2497 2.5781.8463.7221.5967 1.1925 1.4439 1.3173 2.3723h-5.8456v1.6694h5.8556c-.1196.9386-.5863 1.7983-1.3082 2.4098-.7221.6115-1.6468.9305-2.5923.8941-.6801.0212-1.3547-.1311-1.9598-.4424-.6052-.3113-1.1211-.7716-1.4994-1.3374l-1.2332 1.2584c.5478.718 1.2599 1.2944 2.0763 1.6808.8164.3863 1.7134.5716 2.6161.5402.7666.0279 1.5305-.1022 2.2445-.3824.7139-.2802 1.3625-.7045 1.9052-1.2463.5428-.5419.9682-1.1897 1.2496-1.9031.2815-.7135.4129-1.4773.3863-2.2437 0-3.4593-2.4064-5.7655-5.7856-5.7655v.0101Zm54.2451.1406h-7.4752v11.0846h1.8452v-9.4051h5.63v-1.6795Zm-83.047 0H15v11.0846h1.845v-9.4051h5.63v-1.6795Zm88.968 9.5755c-.794 0-1.569-.2352-2.228-.6758-.659-.4408-1.174-1.0672-1.477-1.8-.303-.7329-.384-1.5393-.229-2.3173.155-.7781.538-1.4927 1.099-2.0536.561-.5609 1.275-.9429 2.053-1.0977.777-.1547 1.585-.0752 2.317.2282.732.3037 1.359.8177 1.8 1.4773.441.6595.676 1.435.676 2.2282 0 1.0637-.423 2.0839-1.175 2.836-.753.7522-1.773 1.1747-2.836 1.1747Zm0-9.7511c-1.134 0-2.243.3364-3.187.9667-.943.6301-1.678 1.5259-2.112 2.5738-.434 1.0481-.547 2.2013-.326 3.3138.222 1.1126.768 2.1345 1.569 2.9366.802.8021 1.824 1.3484 2.938 1.5696 1.111.2213 2.264.1077 3.313-.3264 1.048-.434 1.943-1.1692 2.574-2.1123.629-.9432.966-2.0521.966-3.1864 0-1.5211-.604-2.9799-1.68-4.0555-1.075-1.0756-2.534-1.6799-4.055-1.6799Zm-21.307 9.7511c-.7932 0-1.5686-.2352-2.2283-.6758-.6591-.4408-1.1737-1.0672-1.477-1.8-.3034-.7329-.3832-1.5393-.2282-2.3173.155-.7781.5368-1.4927 1.0978-2.0536s1.2757-.9429 2.053-1.0977c.7782-.1547 1.585-.0752 2.3179.2282.7323.3037 1.3588.8177 1.7994 1.4773.4407.6595.6761 1.435.6761 2.2282 0 1.0637-.4224 2.0839-1.1744 2.836-.7525.7522-1.7725 1.1747-2.8363 1.1747Zm0-9.7511c-1.3593-.0015-2.6749.482-3.71 1.3637V20.154h-1.845v15.4965h1.845v-5.5649c.7043.5978 1.5418 1.0168 2.4428 1.2213.9004.2044 1.8374.1884 2.7305-.0467.8932-.2352 1.7163-.6826 2.399-1.3041.6832-.6216 1.2063-1.3989 1.5247-2.2659.3178-.867.4224-1.798.3034-2.7139-.119-.9159-.4571-1.7895-.9859-2.5467-.529-.7571-1.2325-1.3754-2.0519-1.8021-.8193-.4268-1.7288-.6494-2.6526-.649Zm-49.9086 1.6946c-.5972-.0187-1.1911.0952-1.7391.3337-.5479.2384-1.036.5953-1.4294 1.045l-1.1882-1.2232c.5535-.6097 1.2356-1.0886 1.9968-1.4025.7613-.3139 1.5827-.4547 2.4051-.4124 2.7222 0 4.2011 1.3135 4.2011 2.968.0154.5226-.1037 1.0405-.3459 1.504-.1986.3459-.4837.6344-.8272.8372v.2055c.9025.3811 1.5692 1.0028 1.5692 2.5518 0 1.805-1.875 3.4443-4.5521 3.4443-2.2812 0-3.8604-.8924-4.7979-2.2209l1.1932-1.2384c.7771 1.2384 1.9652 1.7698 3.5996 1.7698 1.1982 0 2.7022-.5665 2.7022-1.7648 0-1.0678-.6116-1.6995-2.4164-1.6995h-1.9352v-1.5892h1.85c1.5692 0 2.1307-.7169 2.1307-1.5642 0-1.1079-1.1732-1.5392-2.4165-1.5392v-.005ZM129.3 24.2499l-4.11-4.5673-1.374 1.2384 4.241 4.7076 1.243-1.3787Z"/>
</svg>