<svg xmlns="http://www.w3.org/2000/svg" viewBox="0 0 200 50">
	<path class="bg-logo" fill="#00508F" d="M0 0h200v50H0z"/>
	<g fill="#fff">
		<path d="M130.969 31.287h4.199l-2.09-5.2888-2.109 5.2888Zm-1.019-7.703c.662-1.5721 1.509-2.1582 3.128-2.1582 1.6 0 2.48.6047 3.122 2.1582l6.244 15.0523h-4.426l-1.605-3.9956h-6.698l-1.582 3.9956h-4.427l.079-.186 6.165-14.8663Zm-72.7811-1.1928c-.7124.721-.7124 1.521-.7124 2.1071v14.136h4.1632V25.624c0-.0838 0-.2838.0139-.4.0693-.014.2081-.0233.4626-.0233h9.0941v-3.6003H59.1394c-.754 0-1.471.2884-1.9705.7908Zm19.3908 12.5976c-.0093-.0279-.0278-.0838-.0278-.1488v-3.084h9.2607v-3.6003h-9.2607v-2.5676c0-.1488.0046-.2744.0463-.3116.074-.0698.3145-.0698.3978-.0698h9.0433v-3.6003H75.394c-.5134 0-1.5867 0-2.3314.8186-.4302.4931-.6892 1.2606-.6892 2.056v11.1963c0 .8047.0925 1.6419.7678 2.2978.6892.6651 1.4618.6651 2.2065.6651h10.7594V35.04h-8.9554c-.4024-.0047-.5458-.0326-.592-.0512Zm16.7779-6.9078h6.9064v-6.4796h4.158v17.0338h-4.158v-6.954h-6.9064v6.954h-4.1631V21.6014h4.1631v6.4796Zm25.1124 5.2658v.0785c0 .3972 0 1.0469-.291 1.3355-.268.2698-.639.2698-1.11.2698H112.252c-.324 0-.467-.0186-.528-.0372-.009-.079-.023-.2372-.023-.521v-2.6559h5.348c.416 0 .846.0186 1.096.2604.282.2699.305.7536.305 1.2699Zm.074-5.1306h-6.823v-2.656c0-.1861.014-.2791.023-.3163.051-.014.172-.0372.417-.0372h9.755v-3.6003h-11.629c-1.04 0-1.674.4233-2.026.7768-.629.6698-.703 1.5397-.703 2.1397v11.4008c0 .5536.065 1.2653.574 1.87.481.5581 1.161.8465 2.021.8465h8.433c1.781 0 2.729-.7815 3.136-1.2512.671-.7814.999-2.0699.999-3.9491 0-1.735-.305-2.9817-.934-3.8096-.722-.9397-1.813-1.4141-3.243-1.4141Zm36.738-.1352h-6.906v-6.4796h-4.163v17.0338h4.163v-6.954h6.906v6.954h4.159V21.6014h-4.159v6.4796Zm15.362 1.8373c0 .0977.102.3535.8.9862L180 38.6352h-5.564l-6.601-6.2376c-.343-.3256-.62-.6652-.829-1.0141v7.2517h-4.163V21.6014h4.163v6.8424c.158-.2605.357-.5117.592-.7489l6.093-6.0935h5.412l-7.841 7.5401c-.615.6001-.638.7675-.638.7768Z"/>
		<path d="M28.7 10h20.1749l-5.4487 5.4315H28.7c-1.7902 0-3.2513 1.4587-3.2513 3.2407v14.6757L20 38.7766V18.6722C20 13.9013 23.9154 10 28.7 10Z"/>
	</g>
	<path fill="#50B848" d="M48.8751 30.1038c0 4.768-3.9154 8.6722-8.7 8.6722H23.4565c1.8163-1.8106 3.6325-3.6211 5.4487-5.4316h11.2671c1.7902 0 3.2512-1.4587 3.2512-3.2406v-3.0003h-8.2524l5.4486-5.4316h8.2554v8.4319Zm-20.0103-8.4319h8.2987l-5.4517 5.4316h-2.847v-5.4316Z"/>
</svg>