<svg xmlns="http://www.w3.org/2000/svg" viewBox="0 0 200 50">
	<path class="bg-logo" fill="#0066b7" d="M0 0h200v50H0V0Z"/>
	<g fill="#fff">
		<path d="M73.1 22.9c.9 0 1.5 0 1.8.1.3 0 .5.3.8.6.2.3.4.8.5 1.6h.3v-3h-9.8v.3h.4c.5 0 .8.1 1 .3.1.2.2.6.2 1.1v7.7c0 .6 0 1-.3 1.2-.2.2-.5.3-1 .3h-.3v.3h5.8v-.3h-.3c-.5 0-.8 0-1-.3-.2-.2-.3-.6-.3-1.2V23h2.3ZM106 32.9c-.3 0-.5 0-.6-.2-.1-.1-.2-.5-.2-1v-2.2h2.2v2.3c0 .5 0 .8-.2.9-.1.1-.3.2-.6.2v.3h3.9v-.3c-.3 0-.5 0-.7-.2-.1-.1-.2-.5-.2-.9v-4.9c0-.4 0-.6.2-.8.1-.2.3-.2.7-.2v-.3h-3.9v.3c.3 0 .6 0 .6.3 0 .2.1.5.1.8v2h-2.2v-2c0-.5 0-.8.2-.9.1-.1.3-.2.6-.2v-.3H102v.3c.3 0 .5 0 .7.2.1.2.2.5.2 1v4.7c0 .5 0 .8-.2.9-.1.2-.3.2-.7.2v.3h3.9v-.3ZM117.2 26.1c.6 0 1 .1 1.2.3.2.2.3.6.4 1.1h.3v-2h-7.6v2h.3c.1-.6.3-1 .5-1.2.2-.2.6-.3 1.1-.3h.8v5.6c0 .5 0 .8-.2 1-.1.2-.3.3-.7.3v.3h4v-.3c-.3 0-.5 0-.7-.2-.1-.2-.2-.5-.2-1v-5.6h.8ZM136.4 22.7c.2-.2.5-.3 1-.3h.4v-.3h-6v.3h.4c.6 0 .9.1 1 .3.1.2.2.6.2 1.2l-4 6.2V24c0-.6 0-1.1.3-1.3.2-.2.5-.3 1-.3h.4v-.3h-5.9v.3h.4c.6 0 .9 0 1.1.3.1.2.2.6.2 1.3v7.3c0 .7 0 1.1-.2 1.3-.2.2-.5.3-1 .3h-.4v.3h5.9v-.3h-.4c-.6 0-.9-.1-1.1-.3-.1-.2-.2-.6-.2-1.1l4-6.2v6.1c0 .7 0 1.1-.2 1.3-.2.2-.5.3-1 .3h-.4v.3h6V33h-.4c-.5 0-.9 0-1-.3-.2-.2-.3-.6-.3-1.3v-7.3c0-.7 0-1.1.3-1.3ZM141.8 26.1c.1-.1.3-.2.6-.2v-.3h-3.9v.3c.3 0 .5 0 .7.2.1.2.2.5.2 1v4.7c0 .5 0 .8-.2.9-.1.2-.3.2-.7.2v.3h3.9v-.3c-.3 0-.5 0-.6-.2-.1-.1-.2-.5-.2-1v-2.2h2.2v2.3c0 .5 0 .8-.2.9-.1.1-.3.2-.6.2v.3h3.9v-.3c-.3 0-.5 0-.7-.2-.1-.1-.2-.5-.2-.9v-4.9c0-.4 0-.6.2-.8.1-.2.3-.2.7-.2v-.3H143v.3c.3 0 .6 0 .6.3 0 .2.1.5.1.8v2h-2.2v-2c0-.5 0-.8.2-.9ZM164.9 29.5c0 1.1.3 2 .9 2.8.6.8 1.4 1.2 2.5 1.2s1.2-.2 1.7-.5 1-.8 1.3-1.5l-.3-.2c-.3.3-.6.6-.9.7-.2.1-.5.2-.8.2-.4 0-.8-.1-1.1-.4-.4-.3-.7-.8-1-1.5-.2-.7-.3-1.3-.3-2.1s.1-1.5.4-1.9c.2-.3.4-.4.7-.4s.3 0 .4.2c.1.1.2.4.2.7 0 .5.2.9.4 1.1.2.2.5.3.8.3s.6 0 .8-.3c.2-.2.3-.4.3-.7 0-.5-.2-.9-.7-1.3-.5-.4-1.1-.6-1.9-.6-1.2 0-2.1.5-2.8 1.4-.6.8-.8 1.7-.8 2.7ZM172 25.6v2h.3c.1-.6.3-1 .5-1.2.2-.2.6-.3 1.1-.3h.8v5.6c0 .5 0 .8-.2 1-.1.2-.3.3-.7.3v.3h4V33c-.3 0-.5 0-.7-.2-.1-.2-.2-.5-.2-1v-5.6h.8c.6 0 1 .1 1.2.3.2.2.3.6.4 1.1h.3v-2H172ZM68.4 18.7c-.3 0-.5-.1-.5-.3V18l.4-1.3h.1c.2 0 .3 0 .4.1 0 0 .2.3.3.5l.7 1.5h1.1c-.2-.1-.4-.2-.5-.2 0 0-.2-.2-.3-.4l-.5-1.1c-.1-.2-.2-.4-.3-.4.2 0 .4-.2.6-.4.2-.2.3-.5.6-.9 0-.2.2-.3.2-.4h.2c.1 0 .1 0 .2.1l.2.2h.2c.1 0 .2 0 .2-.1V15s0-.2-.1-.3c0 0-.2-.1-.4-.1s-.3 0-.4.1c-.1 0-.3.3-.5.7-.2.4-.3.7-.5.8-.1.1-.3.2-.4.3H68.5l.3-1c.1-.4.2-.6.3-.7.1 0 .3-.1.6-.1 0-.1-1.9-.1-1.9-.1v.1h.4s.1.1.1.2v.4l-.8 2.7c0 .3-.2.5-.2.5s-.1 0-.2.1h-.4c0 .1 1.8.1 1.8.1ZM81.1 18.9c.2 0 .4-.1.6-.3.2-.2.4-1 .8-2.3l.3 2.7h.2l1.8-2.5-.5 1.7c0 .2-.1.4-.1.5 0 .2 0 .3.3.3s.2 0 .4-.2c.2-.1.3-.3.4-.5h-.1c-.2.2-.3.4-.4.4s0 0 0-.1 0-.1.1-.4l.6-2.1h-.6l-1.6 2.3-.2-2.3H83l-1 .2h.3c.1 0 .2 0 .2.1s0 .4-.3.9c-.2.6-.3.9-.4 1 0 .1-.2.2-.2.2h-.5v.2c0 .2.1.2.3.2ZM89 18.9c.2 0 .4-.1.6-.3.2-.2.4-1 .8-2.3l.3 2.7h.2l1.8-2.5-.5 1.7c0 .2-.1.4-.1.5 0 .2 0 .3.3.3s.2 0 .4-.2c.2-.1.3-.3.4-.5h-.1c-.2.2-.3.4-.4.4s0 0 0-.1 0-.1.1-.4l.6-2.1h-.6l-1.6 2.3-.2-2.3h-.1l-1 .2h.3c.1 0 .2 0 .2.1s0 .4-.3.9c-.2.6-.3.9-.4 1 0 .1-.2.2-.2.2H89v.2c0 .2.1.2.3.2ZM110.9 16.4v.6c-.1.2-.2.3-.2.4 0 .1 0 .3.2.4.1 0 .3.1.5.1.3 0 .6 0 .9-.3l-.2.6c0 .2-.1.4-.1.5 0 .2 0 .3.2.3s.5-.2.8-.7h-.1c-.2.2-.3.4-.4.4s0-.1 0-.2l.7-2.3h-.5l-.4 1.3c-.3.2-.5.3-.7.3s-.4 0-.4-.3v-.3l.3-1.1h-.1l-1 .2c0 .1.2.1.2.1.2 0 .2 0 .2.2ZM124.5 18.9c.3 0 .5 0 .7-.2.2-.1.5-.3.7-.6-.2.1-.4.3-.6.4-.2 0-.3.1-.5.1s-.4 0-.5-.2c-.1-.1-.2-.3-.2-.5 0-.3 0-.7.3-1 .2-.3.3-.5.6-.6.2-.1.4-.2.7-.2h.3v.1c0 .1 0 0 0 0v.1l-.1.1V16.7h.2c.1 0 .2 0 .2-.1 0 0 .1-.2.1-.3s0-.3-.2-.4c-.1 0-.3-.1-.5-.1s-.6 0-.9.3c-.3.2-.6.5-.8.8-.2.3-.3.6-.3 1s0 .5.3.7c.2.2.4.3.7.3ZM129.9 18.9h.5l.4-1.4h.3s.2.2.3.4c.1.2.3.5.5.9h.9c-.1-.1-.2-.2-.3-.2 0 0-.2-.1-.3-.3-.2-.4-.4-.6-.4-.7 0 0-.2-.2-.3-.2.2 0 .4-.3.6-.8 0-.2.2-.3.2-.3l.1.1c0 .1.2.2.3.2h.2c.1 0 0-.1 0-.2s0-.2-.1-.3c0 0-.2-.1-.3-.1h-.3l-.2.2s-.1.2-.2.5c-.2.4-.5.7-.9.7h-.1l.4-1.4h-.1l-1 .2h.3c.2 0 .2 0 .2.2v.3l-.7 2.2ZM139.8 16zM137.2 16.4h.2c.1 0 0 0 0 0s0 .2-.1.4l-.4 1c-.1.3-.2.6-.2.7s0 .2.1.3c0 0 .2.1.3.1.2 0 .5-.1.7-.3.3-.2.6-.6 1-1.2-.2.5-.3.9-.3 1v.5h.2c.1 0 .2 0 .3-.1.2-.1.3-.3.5-.6h-.1c-.1.2-.2.3-.3.3 0 0 0-.3.1-.5l.6-1.9h-.5v.3c-.2.5-.4.8-.5 1-.1.2-.3.4-.5.7l-.5.5c-.1 0-.2.1-.3.1h-.1s0-.2.2-.5l.4-1c.1-.3.2-.5.2-.6v-.2h-.2c-.1 0-.3 0-.4.1-.2.1-.4.3-.6.5h.1c.2-.1.3-.3.4-.3ZM139.8 16zM144.2 16.3s.1 0 .1.1 0 .2-.1.4l-.3 1c-.1.3-.2.6-.2.7s0 .2.1.3c0 0 .2.1.3.1.5 0 1-.5 1.7-1.6-.2.7-.4 1.2-.4 1.3v.2h.2c.3 0 .5-.2.8-.7h-.1c-.1.2-.2.3-.3.3h-.1s0-.2.1-.5l.6-1.9h-.5v.2l-.4.8c0 .2-.3.4-.5.7-.2.3-.4.5-.6.6-.1 0-.2.1-.3.1s-.2 0-.2-.1 0-.2.2-.5l.4-1c.1-.3.2-.5.2-.6V16h-.2c-.3 0-.7.2-1 .7h.1c.3-.2.4-.3.5-.3ZM145.5 15.3c.5 0 .8-.3 1.1-.8h-.2c0 .1-.1.2-.3.4-.1.1-.3.2-.4.2s-.3 0-.4-.3c0-.1-.1-.2-.2-.2h-.4v.2c0 .1 0 .3.2.4.1.1.3.2.5.2ZM169.4 18.9h.5l.4-1.4h1.2l-.2.6c0 .3-.1.5-.1.6 0 .2 0 .3.2.3s.5-.2.9-.7h-.1c-.2.2-.3.4-.4.4s0-.1 0-.2l.7-2.2h-.5l-.4 1.3h-1.2l.4-1.3h-.1l-1 .2h.3c.1 0 .2 0 .2.2v.3l-.6 2.1ZM176.2 18.9h.5l.4-1.4h.3s.2.2.3.4c.1.2.3.5.5.9h.9c-.1-.1-.2-.2-.3-.2 0 0-.2-.1-.3-.3-.2-.4-.4-.6-.4-.7 0 0-.2-.2-.3-.2.2 0 .4-.3.6-.8 0-.2.2-.3.2-.3l.1.1c0 .1.2.2.3.2h.2v-.2c0-.1 0-.2-.1-.3 0 0-.2-.1-.3-.1h-.3l-.2.2s-.1.2-.2.5c-.2.4-.5.7-.9.7h-.1l.4-1.4h-.1l-1 .2h.3c.2 0 .2 0 .2.2v.3l-.7 2.2ZM76.4 27.6c0 .3.1.5.3.7.2.2.5.3.9.3s.6 0 .8-.3c.2-.2.3-.4.3-.7s-.1-.4-.3-.7c-.2-.2-.2-.3-.2-.4s0-.2.2-.3c.2-.2.5-.2.9-.2s.4 0 .6.2c.2.1.3.2.3.4V28.5c-1.7.8-2.8 1.4-3.3 1.9s-.7 1-.7 1.6.1.8.4 1.1c.3.3.6.4 1.1.4.7 0 1.6-.4 2.5-1.3 0 .4.2.7.5.9.2.2.6.3 1 .3s.7 0 1-.3c.3-.2.6-.5.8-.9l-.2-.2c-.1.2-.3.3-.4.3h-.2s0-.1-.1-.2v-3.7c0-.8 0-1.4-.1-1.6-.1-.4-.4-.7-.8-1-.4-.3-1-.5-1.7-.5s-1.2 0-1.7.3c-.6.2-1 .5-1.3.8-.3.4-.5.7-.5 1.1Zm3.8 3.9c-.4.3-.7.5-.9.5-.2 0-.4 0-.6-.2-.2-.2-.3-.4-.3-.7s.1-.6.3-.9c.3-.4.8-.9 1.5-1.3v2.5Z"/>
		<path d="M87.3 32.5c.3.3.6.6.9.7.4.2.8.3 1.2.3s1.1-.2 1.6-.5.8-.8 1.1-1.5c.2-.6.4-1.3.4-2.1s-.1-1.4-.4-2c-.2-.6-.6-1.1-1-1.5-.5-.4-1-.5-1.5-.5s-.9.1-1.3.4c-.3.2-.5.5-.8.9v-1h-3.2v.3c.4 0 .6.1.7.3.1.1.2.5.2 1v7.2H66.7v.4h18.5v.5c0 .5 0 .8-.2 1-.2.2-.4.3-.8.3v.3h4.3v-.3h-.7c-.1 0-.2-.2-.3-.3V35h92.1v-.4H87.5v-1.9Zm0-4.9c.4-.8.8-1.2 1.4-1.2s.6.2.8.5c.3.5.5 1.4.5 2.7s-.1 2.2-.4 2.6c-.2.3-.4.5-.7.5-.5 0-1-.3-1.5-1v-4.1Z"/>
		<path d="M94.6 30.3c-.5.5-.7 1-.7 1.6s.1.8.4 1.1c.3.3.6.4 1.1.4.7 0 1.6-.4 2.5-1.3 0 .4.2.7.5.9.2.2.6.3 1 .3s.7 0 1-.3c.3-.2.6-.5.9-.9l-.2-.2c-.1.2-.3.3-.4.3h-.2s0-.1-.1-.2v-3.7c0-.8 0-1.4-.1-1.6-.1-.4-.4-.7-.8-1-.4-.3-1-.5-1.7-.5s-1.2 0-1.7.3c-.6.2-1 .5-1.3.8-.3.4-.5.7-.5 1.1s.1.5.3.7c.2.2.5.3.9.3s.6 0 .8-.3c.2-.2.3-.4.3-.7s-.1-.4-.3-.7c-.2-.2-.2-.3-.2-.4s0-.2.2-.3c.2-.2.5-.2.9-.2s.4 0 .6.2c.2.1.3.2.3.4V28.3c-1.7.8-2.8 1.4-3.3 1.9Zm3.3 1.2c-.4.3-.7.5-.9.5-.2 0-.4 0-.6-.2-.2-.2-.3-.4-.3-.7s.1-.6.3-.9c.3-.4.8-.9 1.5-1.3v2.5ZM119.8 28.6h4.7v1.7h-4.7zM149 27.3v4.6c0 .4 0 .7-.1.8 0 .1-.3.2-.7.3v.3h4.3c1.1 0 2-.2 2.6-.5.6-.3 1-.9 1-1.5 0-1.1-.8-1.8-2.4-2 1.2-.3 1.8-.9 1.8-1.7s-.3-1.1-.8-1.4c-.6-.3-1.3-.5-2.2-.5h-4.3v.3c.4 0 .6.1.7.3.1.2.2.5.2 1.1Zm2.4-1.2c1.3 0 2 .5 2 1.4s-.7 1.4-2 1.4V26Zm0 3.4c.8 0 1.4.1 1.8.4.4.2.5.6.5 1.1s-.2.9-.5 1.2c-.3.3-.7.5-1.2.5s-.5 0-.5-.2c0-.1-.1-.3-.1-.5v-2.5ZM157.3 29.5c0 1 .2 1.9.7 2.6.6.9 1.5 1.3 2.6 1.3s1.2-.2 1.8-.5c.5-.3 1-.9 1.4-1.8l-.3-.2c-.3.5-.6.8-.9 1-.3.2-.6.3-.9.3-.5 0-1-.2-1.4-.7-.5-.6-.8-1.4-.8-2.4h4.3c0-1.2-.4-2.2-.9-2.8-.6-.6-1.2-.9-2-.9s-1.7.4-2.4 1.1c-.7.8-1 1.8-1 3Zm2.1-1.2c0-.8.2-1.5.5-2 .2-.3.4-.4.7-.4s.4 0 .5.1c.2.2.4.4.5.7 0 .3.1.9.1 1.8h-2.3v-.3ZM75.8 18.9c.3 0 .6 0 .9-.3.3-.2.6-.4.7-.7.2-.3.3-.6.3-.9s0-.5-.3-.7c-.2-.2-.4-.3-.7-.3s-.6 0-.9.3c-.3.2-.6.4-.8.7-.2.3-.3.6-.3.9s0 .5.3.7c.2.2.4.3.8.3Zm-.1-2.1c.3-.4.6-.7.9-.7s.3 0 .4.2c.1.1.2.3.2.5 0 .5-.1.9-.4 1.4-.3.4-.6.7-.9.7s-.3 0-.4-.2c-.1-.1-.2-.3-.2-.5 0-.4.1-.9.4-1.3ZM98 18.9c.5 0 1-.3 1.5-.8-.3.1-.5.3-.7.3h-.5c-.2 0-.4 0-.5-.2-.1-.1-.2-.3-.2-.5v-.3c.5 0 .8-.1 1.1-.2.4-.1.7-.3.9-.5.2-.2.2-.3.2-.5s0-.2-.2-.3c-.1 0-.3-.1-.5-.1s-.7 0-1 .3c-.3.2-.6.4-.8.8-.2.3-.3.7-.3 1s0 .5.3.6c.2.2.4.3.7.3Zm.2-2.4c.3-.2.5-.3.8-.3h.3v.2c0 .1 0 .3-.2.5-.1.2-.4.3-.6.4-.2 0-.5.1-.8.2.1-.5.3-.8.6-1ZM104.2 20.1h-.4v-.4l.3-.8c.1 0 .2.1.3.1h.3c.5 0 1-.2 1.4-.7.4-.5.6-1 .6-1.4s0-.4-.2-.6c-.1-.1-.3-.2-.5-.2s-.4 0-.6.2c-.2.1-.4.3-.7.6l.2-.7-1.1.2h.5v.4l-.8 2.8c0 .3-.2.4-.2.5 0 0-.2 0-.4.1 0 .1 1.6.1 1.6.1Zm.2-2.5c.1-.4.3-.7.5-.9.2-.3.5-.4.7-.4s.2 0 .3.1c0 0 .1.2.1.4s0 .4-.1.6c0 .2-.2.4-.2.6 0 .2-.2.3-.3.4-.1.1-.2.2-.4.3h-.4c-.2 0-.4 0-.6-.2l.3-.9ZM118.1 18.9c.5 0 1-.3 1.5-.8-.3.1-.5.3-.7.3h-.5c-.2 0-.4 0-.5-.2-.1-.1-.2-.3-.2-.5v-.3c.5 0 .8-.1 1.1-.2.4-.1.7-.3.9-.5.2-.2.2-.3.2-.5s0-.2-.2-.3c-.1 0-.3-.1-.5-.1s-.7 0-1 .3c-.3.2-.6.4-.8.8-.2.3-.3.7-.3 1s0 .5.3.6c.2.2.4.3.7.3Zm.2-2.4c.3-.2.5-.3.8-.3h.3v.2c0 .1 0 .3-.2.5-.1.2-.4.3-.6.4-.2 0-.5.1-.8.2.1-.5.3-.8.6-1ZM156.7 18.9c.5 0 1-.2 1.4-.6.4-.4.6-.8.6-1.4s0-.6-.3-.8c-.2-.2-.4-.3-.7-.3-.6 0-1.1.3-1.6.9.1-.4.3-.7.4-.9.1-.2.3-.4.4-.5.1-.1.3-.2.4-.2h1.2c.1 0 .2-.1.3-.2.1-.1.2-.3.2-.4h-.1s0 .1-.2.2h-.4c-.4 0-.7 0-.9.2-.2 0-.5.3-.7.5-.2.3-.5.7-.7 1.2-.2.5-.3 1-.3 1.4s0 .5.3.8c.2.2.4.3.8.3Zm-.1-2.1c.3-.4.6-.7 1-.7s.3 0 .3.1c0 0 .1.2.1.4 0 .5-.1 1-.4 1.4-.3.5-.6.7-.9.7s-.3 0-.4-.2c-.1-.1-.2-.3-.2-.5 0-.5.1-.9.4-1.4ZM163.2 18.9c.2 0 .4 0 .6-.2.3-.1.6-.4.9-.8v.2c-.1.2-.1.3-.1.4v.2h.2c.1 0 .2 0 .4-.2.1-.1.3-.3.4-.5h-.1c-.1.1-.2.2-.2.3l.7-2.4h-.5l-.1.4c0-.1-.1-.2-.2-.3h-.4c-.3 0-.5 0-.8.3-.4.2-.7.5-.9.9-.2.4-.4.7-.4 1s0 .4.2.5c.1.1.3.2.5.2Zm.1-1.7c.2-.3.4-.6.7-.8.2-.1.3-.2.5-.2s.2 0 .3.1c0 0 .1.2.1.4 0 .5-.2.9-.6 1.4-.3.3-.6.5-.9.5s-.2 0-.3-.1c0 0-.1-.2-.1-.3 0-.3 0-.6.3-.9ZM49.8 7H30.6c-.3 0-.5.2-.5.6v.6h-.6c-.3 0-.5.2-.5.6v27.9c0 .6.2 1 .5 1.4.3.3.7.5 1.2.5s.9-.2 1.2-.5c.2-.2.3-.4.4-.6.3 0 .5-.2.7-.5.3-.3.4-.8.4-1.3v-5c0-2.7 1.1-5.5 3.3-8.4.4-.6.9-1.2 1.4-1.7 1.3-1.3 2.8-2.4 4.4-3.4v21.6H27.1c-1.5 0-2.8-1.2-2.8-2.8V13.2c0-.5.1-.9.3-1.3.4-.2.9-.4 1.4-.4h1.2c.3 0 .5-.2.5-.5v-.6h.6c.3 0 .5-.2.5-.6V7.5c0-.3-.2-.6-.5-.6h-1.1c-2 0-3.8 1-4.9 2.5-1.4 1.1-2.3 2.9-2.3 4.8v22.5c0 3.4 2.8 6.2 6.2 6.2h19.2c.3 0 .5-.2.5-.6v-.6h.6c.3 0 .5-.2.5-.6V13.5c0-.5-.1-.9-.4-1.3-.3-.4-.8-.6-1.3-.6-1.4 0-3.5 1.1-6.2 3.4-1.1.9-2.2 1.9-3.1 2.9-.9.9-1.8 1.8-2.5 2.8v-9.2h15.4c1.5 0 2.8 1.2 2.8 2.8v22.5c0 .5-.1.9-.3 1.3-.4.2-.9.4-1.4.4h-1.2c-.3 0-.5.2-.5.6v.6h-.6c-.3 0-.5.2-.5.5v2.3c0 .3.2.6.5.6h1.1c2 0 3.8-1 4.9-2.5 1.4-1.1 2.3-2.9 2.3-4.8V13.2C56 9.8 53.2 7 49.8 7Zm4.6 29.8c0 3.1-2.5 5.6-5.6 5.6h-1.1v-2.3h1.2c1.8 0 3.3-1.5 3.3-3.3V14.3c0-1.8-1.5-3.3-3.3-3.3h-17v13.1c1.5-2.7 3.7-5.2 6.5-7.5 2.6-2.2 4.6-3.3 5.9-3.3s.7.1.9.4c.2.3.3.6.3.9v27.9H26.3c-3.1 0-5.6-2.5-5.6-5.6V14.3c0-3.1 2.5-5.6 5.6-5.6h1.1V11h-1.2c-1.8 0-3.3 1.5-3.3 3.3v22.5c0 1.8 1.5 3.3 3.3 3.3h17V15.9c-3.2 1.8-5.8 4.1-7.9 6.9-2.3 3-3.4 5.9-3.4 8.8v5c0 .4-.1.7-.3.9-.2.2-.5.4-.8.4s-.6-.1-.8-.3c-.2-.2-.3-.5-.3-1V8.7h19.2c3.1 0 5.6 2.5 5.6 5.6v22.5Z"/>
	</g>
</svg>