<svg xmlns="http://www.w3.org/2000/svg" viewBox="0 0 200 50">
	<path class="bg-logo" fill="#7399C6" d="M0 0h200v50H0z"/>
	<path fill="#fff" d="M62.3653 15.0488h5.4427v8.9149c-1.8175.3682-3.2092.5547-4.7349.5547-5.9687 0-8.0731-3.4196-8.0731-9.0487C55 9.4196 57.9174 6 63.7331 6c.7366 0 2.1283.05261 3.8644.31566v5.70574h-1.2626l-.7126-2.18093c-.6839-2.07567-1.497-3.10394-2.7883-3.10394-2.2335 0-3.4196 3.02264-3.4196 8.68047 0 5.6818.4735 8.3649 3.3909 8.3649.397 0 .8657-.0526 1.3152-.1817v-6.6336l-1.76-1.21v-.7078h.0048Zm5.3374 23.9324c0 3.5774-2.4439 5.6292-6.7579 5.6292-1.1813 0-2.9174-.1818-4.5483-.4496v-6.9922h1.2627l.526 1.6548c1.1814 3.8117 2.0231 5.0744 3.5249 5.0744 1.5782 0 2.7069-1.3918 2.7069-3.2331 0-1.497-.7078-2.5492-2.2335-3.367l-2.6304-1.4205c-2.0279-1.076-3.1327-2.7595-3.1327-4.8113 0-3.1039 2.5492-4.9692 6.734-4.9692.947 0 2.0518.0813 3.8118.3157v5.7057h-1.2626l-.7079-2.1809c-.7126-2.3148-1.473-3.1566-2.8648-3.1566-1.5543 0-2.4726.9996-2.4726 2.444 0 1.2865.7126 2.2096 2.1044 2.9987l2.6543 1.497c2.2335 1.2626 3.2857 2.9461 3.2857 5.2609Zm11.6267 4.1322.5261.7891v.397h-4.0223l-.1865-1.5257c-.4209 1.1574-1.5256 1.8414-2.9461 1.8414-2.1044 0-3.4196-1.3153-3.4196-3.4722 0-2.1044 1.1813-3.4962 4.8114-4.9166l1.5495-.6026v-1.9705c0-1.7361-.3156-2.4439-1.2865-2.4439-.7891 0-1.2339.4209-1.9991 2.3387l-.8657 2.1474h-1.1813v-4.29c1.5496-.4735 3.1039-.7892 4.4431-.7892 2.97 0 4.577 1.4205 4.577 3.9983v8.4988Zm1.5209-25.592c0 4.4718-2.3914 6.997-5.4714 6.997-3.0753 0-5.4666-2.5252-5.4666-6.997s2.3913-6.997 5.4714-6.997c3.0752 0 5.4666 2.5252 5.4666 6.997Zm-5.2036 23.3824v-4.5483l-.4974.2105c-1.5543.6313-2.133 2.0517-2.133 4.1274 0 1.5543.3682 2.4439 1.2339 2.4439.8656 0 1.3965-.8417 1.3965-2.2335Zm1.3392-23.3824c0-5.0505-.4209-6.3896-1.6022-6.3896s-1.6022 1.3391-1.6022 6.3896c0 5.0505.4209 6.3896 1.6022 6.3896s1.6022-1.3391 1.6022-6.3896Zm13.2049 23.5115.4735.2392c-.8418 2.42-1.9179 3.3383-3.9983 3.3383-3.3909 0-5.2849-2.5492-5.2849-6.997 0-4.4431 2.2096-6.9971 5.811-6.9971.9708 0 2.2622.1579 3.3669.6026v4.4718h-1.2339l-.4974-1.6835c-.66-2.2335-1.0235-2.8122-1.6835-2.8122-1.0522 0-1.8939 1.3679-1.8939 6.5762 0 4.18.6313 5.7057 2.2335 5.7057 1.0761.0048 1.9944-.6792 2.707-2.444Zm-2.9222-16.8301h-4.7349v-.3922l.5261-.7891V8.3435l-.5261-.78914V7.1574l4.2088-.31565V23.0167l.5261.7891v.397Zm6.4709.3156c-2.8935 0-4.6296-2.6304-4.6296-7.1261 0-4.4718 1.8126-6.8631 4.6009-6.8631 1.4205 0 2.2096.55 2.5492 1.6548V8.3435l-.5261-.78914V7.1574l4.2087-.31565V23.0167l.5264.7891v.3922h-3.7355l-.287-1.9991c-.4161 1.7121-1.2052 2.3195-2.707 2.3195Zm9.2305 18.595.526.7891v.397h-4.7347v-.397l.5261-.7891v-9.4697c0-1.1287-.3396-1.8126-1.1574-1.8126-.9757 0-1.6835.8179-1.6835 2.42v8.8623l.5261.7891v.397h-4.7348v-.397l.526-.7891v-14.678l-.526-.7891v-.3922l4.2087-.3156v5.4426c.4735-1.1287 1.5496-1.76 3.0752-1.76 2.1573 0 3.4433 1.3678 3.4433 4.0222v8.4701h.005Zm-9.9909-25.6733c0 4.7348.4208 6.1792 1.5782 6.1792 1.4444 0 1.7075-2.0757 1.7075-6.2318 0-4.0222-.287-6.0214-1.6835-6.0214-1.1814 0-1.6022 1.4205-1.6022 6.074Zm26.4049 5.5766.526.7891v.3922h-4.735v-.3922l.526-.7891v-9.7566c0-.947-.315-1.5257-1.052-1.5257-.918 0-1.655.8178-1.655 2.3913v8.891l.527.7891v.3922h-4.735v-.3922l.526-.7891v-9.7566c0-.947-.316-1.5257-1.052-1.5257-.919 0-1.655.8178-1.655 2.3913v8.891l.526.7891v.3922h-4.735v-.3922l.526-.7891V12.3131l-.526-.6313v-.3922l3.788-.4496h.316l.105 1.4731c.445-1.1574 1.549-1.7887 3.051-1.7887 1.602 0 2.655.7891 3.128 2.2096.392-1.3679 1.631-2.2096 3.209-2.2096 2.076 0 3.391 1.3678 3.391 4.0222v8.4701Zm-4.916 17.4136c0 2.2861-1.474 4.1801-5.022 4.1801-.919 0-2.157-.1052-4.075-.4496v-4.8879h1.076l.34 1.0522c.841 2.6831 1.654 3.6827 2.946 3.6827 1.21 0 1.999-.8705 1.999-2.2096 0-1.1048-.555-1.8653-1.865-2.5779l-2.263-1.21c-1.444-.7891-2.233-2.0231-2.233-3.5487 0-2.3913 1.87-3.8405 4.969-3.8405.894 0 2.052.1291 3.314.3922v3.8405h-1.076l-.554-1.3966c-.632-1.6835-1.234-2.2335-2.234-2.2335-1.076 0-1.707.6313-1.707 1.6835 0 .8944.526 1.497 1.812 2.2335l2.234 1.2626c1.521.8705 2.339 2.1044 2.339 4.027Zm17.016-17.4136.526.7891v.3922h-4.022l-.182-1.5257c-.421 1.1574-1.525 1.8414-2.946 1.8414-2.104 0-3.419-1.3153-3.419-3.4722 0-2.1044 1.181-3.4962 4.811-4.9166l1.55-.6026v-1.9705c0-1.7361-.316-2.4439-1.287-2.4439-.789 0-1.234.4208-1.999 2.3387l-.866 2.157h-1.186v-4.2853c1.554-.4735 3.104-.7891 4.443-.7891 2.97 0 4.577 1.4204 4.577 3.9983v8.4892Zm-3.682-2.2096v-4.5483l-.498.2104c-1.549.6313-2.128 2.0518-2.128 4.1275 0 1.5543.368 2.4487 1.234 2.4487.865 0 1.392-.8418 1.392-2.2383ZM145 23.8058v.3922h-4.735v-.3922l.526-.7891V13.547c0-1.1335-.339-1.8126-1.157-1.8126-.976 0-1.684.8178-1.684 2.42v8.8623l.526.7891v.3922h-4.734v-.3922l.526-.7891V12.3131l-.526-.6313v-.3922l3.787-.4496h.316l.105 1.4731c.445-1.1574 1.526-1.7887 3.076-1.7887 2.157 0 3.443 1.3678 3.443 4.0222v8.4701l.531.7891Z"/>
</svg>