<svg xmlns="http://www.w3.org/2000/svg" viewBox="0 0 200 50">
	<path class="bg-logo" fill="#D6B36A" d="M0 0h200v50H0z"/>
	<path fill="#fff" d="M22.101 21.6132h10.2435c-.0269-2.0934.0952-2.8875.7246-4.0248h10.2107c-.0226.0258-9.3246 11.5303-11.6008 14.0148-2.2801 2.4882-3.0381 3.9855-4.6704 3.9268-1.6376-.0586-2.79-1.8394-2.79-4.6251H15c.2426 1.6317 1.3805 5.1847 5.444 5.8787 4.0586.6929 7.6654.3013 7.9871.4955.3217.1942 2.3128.4567 3.717.3088 1.4047-.1485 4.2507-.1905 6.7917-2.5146 1.339 1.055 3.0746 2.7691 8.3018 2.7691 5.2202 0 10.5135-2.7847 12.0785-6.6513 1.5651-3.8666-.8941-7.2748-4.2765-8.1722-3.3834-.8979-5.5704-.4842-5.5704-.4842l4.1189-4.9694h12.2712l4.7639-7.2743H39.8958c-2.8977.0027-6.407 1.6608-8.1603 4.3825-4.9195.7285-8.0625 2.8708-9.6345 6.9397Zm29.0029-9.2315H66.065l-1.4838 2.28h-15.37l1.8927-2.28Zm-15.8349 2.287c.7672-.8549 2.739-2.2865 4.6854-2.2865h7.6498l-1.9093 2.2865H35.269Zm-5.2734 2.9391c-.3885 1.0899-.5025 1.5688-.5843 2.868h-3.6159c.4503-.8301 1.5172-2.2466 4.2002-2.868Zm9.7657 8.4713 7.0633-8.4929h2.782l-6.7529 8.0964c-2.2209.0107-3.0924.3965-3.0924.3965Zm-15.716 9.7135c-1.1217-.0118-1.6984-.0882-2.9444-.5961-1.2455-.5079-2.5899-1.8539-2.8896-2.8794h3.2791c.0775.5552.3249 1.1191.8635 1.8992.5407.7838 1.0824 1.0727 1.6914 1.5763Zm6.7132.2491c2.4312-1.5914 4.673-4.4449 5.8372-5.5037-.0382.9694.1948 1.6581.4207 2.1719-1.5177 1.445-3.8752 3.6282-6.2579 3.3318Zm9.6425-2.5856 4.5503-5.4768s1.0438.4729 1.5817 1.162c.5397.6908.6602 1.7593.6602 1.7593h3.7487c-.1678-.8264-.7467-2.0955-1.6532-2.9434-.9098-.8506-1.7937-1.4418-2.9122-1.6936l1.4424-1.7356s2.9853-.199 4.4035.516c1.509.7607 3.5104 2.4382 2.9121 5.3186-.5977 2.8756-4.624 4.7193-6.7437 4.9727-2.1144.2528-3.4777.2738-5.1105-.325-1.636-.5988-2.8793-1.5542-2.8793-1.5542Zm.9657-5.961-2.7782 3.3259c-.0802.0941-.5649-1.2261.4874-2.5195 1.0555-1.2965 2.2908-.8064 2.2908-.8064ZM86.215 20.8083h-.6354c-.1238 0-.1872-.0575-.1872-.1732v-9.0615h-5.5565v9.0615c0 .1157-.0629.1732-.1877.1732h-.6349c-.1253 0-.1866-.0575-.1866-.1732v-9.7544c0-.1151.0613-.1727.1866-.1727h7.2011c.1259 0 .1878.0576.1878.1727v9.755c.0005.1151-.0613.1726-.1872.1726Zm7.1042.0582c.3701-.0388.7091-.1028 1.0179-.1883.1054-.0291.1582-.0958.1582-.2023v-.3885c0-.1259-.0678-.1716-.2018-.1447-.3072.0624-.6284.1006-.9662.1297-.3373.029-.6747.043-1.0098.043-.913 0-1.5925-.2007-2.0342-.5993-.4433-.3997-.708-1.012-.7952-1.8394h3.6955c.6047 0 1.0572-.1189 1.3547-.354.2997-.2362.4487-.6177.4487-1.1465 0-.4331-.0678-.8323-.2034-1.1981-.1345-.3648-.3308-.6779-.5912-.9377-.2593-.2599-.5864-.4627-.9803-.6064-.3954-.1442-.8521-.2162-1.3724-.2162-1.0475 0-1.8658.3152-2.4522.9447-.5869.6305-.8791 1.5128-.8791 2.6485v.3169c0 2.5302 1.2299 3.7956 3.6934 3.7956.3734.0005.7483-.0188 1.1174-.057Zm-.0355-3.9974h-3.809c.0194-.9146.2383-1.6156.6563-2.1068.417-.4901.9883-.7365 1.7087-.7365.7043 0 1.2444.1813 1.6237.5407.3814.3615.5703.9022.5703 1.6237 0 .2604-.0587.4374-.1797.5342-.12.0958-.3115.1447-.5703.1447Zm2.8406-2.7276h2.569v6.4936c0 .1157.0607.1732.1861.1732h.5789c.1259 0 .1861-.0575.1861-.1732v-6.4936h2.5696c.125 0 .189-.0576.189-.1727v-.4627c0-.1151-.063-.1721-.189-.1721h-6.0891c-.1249 0-.1889.057-.1889.1721v.4622c-.0005.1156.0635.1732.1883.1732Zm12.0397 6.725c.37-.0388.708-.1028 1.016-.1883.107-.0296.16-.0958.16-.2023v-.3885c0-.1259-.067-.1721-.202-.1447-.306.0619-.63.1006-.967.1297-.337.029-.672.043-1.01.043-.913 0-1.592-.2001-2.034-.5993-.442-.3992-.707-1.012-.794-1.8394h3.694c.606 0 1.057-.1178 1.356-.354.298-.2351.448-.6177.448-1.1465 0-.4331-.068-.8328-.202-1.1981-.135-.3653-.332-.6779-.592-.9377-.261-.2599-.588-.4622-.982-.6064-.394-.1436-.851-.2162-1.369-.2162-1.049 0-1.868.3147-2.455.9447s-.879 1.5128-.879 2.6485v.3169c0 2.5302 1.23 3.7956 3.694 3.7956.375.0005.747-.0188 1.118-.057Zm-.035-3.9974h-3.81c.019-.9146.238-1.6161.656-2.1068.418-.4906.989-.7365 1.712-.7365.701 0 1.242.1803 1.622.5407.38.3599.57.9022.57 1.6237 0 .2604-.061.4374-.182.5342-.12.0958-.31.1447-.568.1447Zm5.531 3.9683c.342.0576.709.0872 1.104.0872.5 0 .96-.0673 1.379-.2023.417-.1345.778-.3443 1.081-.6284.302-.2835.539-.644.707-1.0819.168-.4374.252-.955.252-1.5511v-.5342c0-.567-.073-1.0798-.222-1.5365-.149-.4568-.381-.8468-.694-1.1685-.314-.3218-.702-.5698-1.17-.7425-.466-.1727-1.016-.2604-1.652-.2604-.365 0-.75.0264-1.154.0791-.404.0527-.771.1281-1.096.2384-.272.0925-.404.2985-.404.6057v9.2789c0 .1156.062.1727.186.1727h.579c.126 0 .186-.0571.186-.1727v-2.8288c.271.106.576.1877.918.2453Zm-.918-.8511v-5.7437c.213-.078.464-.1318.753-.1657.287-.0333.576-.0516.865-.0516.934 0 1.644.2512 2.135.7516.49.4998.737 1.2497.737 2.2504v.332c0 1.0006-.241 1.7097-.723 2.1283-.48.4175-1.173.6273-2.077.6273-.308 0-.607-.0086-.894-.028-.288-.0188-.553-.0533-.796-.1006Zm13.595-9.5672c0-.135-.07-.2044-.204-.2023-.923.0145-1.77.1657-2.539.411-.771.2454-1.431.6085-1.985 1.0895-.553.481-.982 1.0884-1.29 1.8184-.308.7322-.464 1.5925-.464 2.5829 0 .7602.059 1.4392.174 2.0347.115.5967.305 1.0992.57 1.508.266.4084.614.7215 1.046.9378.433.2162.972.3255 1.615.3255 1.002 0 1.779-.2911 2.333-.8738.552-.5815.829-1.4934.829-2.734 0-1.2218-.244-2.1386-.735-2.7497-.491-.6112-1.247-.9152-2.266-.9152-.461 0-.908.0716-1.342.2158-.433.1441-.804.3367-1.111.5783.124-.5783.34-1.0728.648-1.4865.308-.4137.686-.7596 1.134-1.0394.447-.2787.955-.4955 1.523-.6494.566-.1533 1.183-.2437 1.846-.3174.145-.0161.219-.0769.219-.1732v-.361h-.001Zm-5.529 5.699v-.418c0-.1442.009-.2744.029-.3901.336-.2598.721-.467 1.154-.6203.433-.1539.865-.2313 1.298-.2313.78 0 1.338.2383 1.675.7144.336.4756.504 1.1906.504 2.1434 0 .9038-.17 1.5968-.511 2.0778-.341.4804-.907.7214-1.697.7214-.424 0-.788-.0742-1.096-.2233-.308-.149-.563-.3846-.765-.7069-.201-.3217-.352-.736-.448-1.2411-.097-.5047-.143-1.1137-.143-1.826Zm10.59 7.5761c1.116 0 1.912-.2206 2.388-.6628.476-.4423.715-1.1503.715-2.1214v-7.4039c0-.1151-.063-.1721-.189-.1721h-.576c-.126 0-.189.057-.189.1721v6.364c-.287.0479-.598.0812-.929.1006-.331.0194-.638.029-.918.029-.856 0-1.463-.1608-1.826-.4836-.36-.3217-.538-.8678-.538-1.6377v-4.3723c0-.1151-.065-.1721-.189-.1721h-.578c-.123 0-.186.057-.186.1721v4.1856c0 1.1347.244 1.9374.73 2.4097.484.4708 1.227.7064 2.228.7064.172 0 .355-.007.548-.021.192-.0145.388-.036.583-.0651.198-.029.388-.0651.572-.1086.181-.0431.351-.0894.503-.1372v.3174c0 .3658-.033.6811-.1.9452-.068.2653-.187.4805-.361.6494-.172.1679-.408.2932-.708.3755-.297.0818-.678.1227-1.138.1227-.752 0-1.437-.049-2.051-.1732-.134-.0269-.201.0188-.201.1441v.375c0 .1162.053.1878.159.2168.279.0764.614.1372 1.009.1803.395.043.811.0651 1.242.0651Zm7.365-2.8568c.341.0576.71.0872 1.104.0872.501 0 .96-.0673 1.378-.2023.418-.1345.78-.3449 1.081-.6284.303-.2841.541-.6435.709-1.0819.169-.4369.252-.955.252-1.5511v-.5342c0-.567-.073-1.0803-.223-1.5365-.15-.4568-.381-.8474-.693-1.1685-.313-.3223-.703-.5698-1.169-.7425-.468-.1732-1.017-.2604-1.654-.2604-.365 0-.75.0264-1.154.0791-.403.0527-.771.1275-1.096.2384-.271.0919-.405.2985-.405.6057v9.2789c0 .1156.063.1727.188.1727h.577c.126 0 .188-.0571.188-.1727v-2.8288c.268.106.575.1877.917.2453Zm-.917-.8511v-5.7437c.212-.078.462-.1318.75-.1657.289-.0333.577-.0516.867-.0516.934 0 1.645.2512 2.136.7516.491.4998.735 1.2497.735 2.2504v.332c0 1.0006-.241 1.7097-.722 2.1283-.481.418-1.173.6273-2.079.6273-.305 0-.605-.0086-.892-.028-.289-.0188-.555-.0533-.795-.1006Zm12.033-6.6523h-4.445c-.125 0-.185.057-.185.1721v7.129c0 .1157.06.1732.185.1732h.578c.126 0 .187-.0575.187-.1732v-6.4936h3.68c.126 0 .188-.0576.188-.1727v-.4627c0-.1151-.062-.1721-.188-.1721Zm4.557 7.59c.367 0 .727-.0193 1.083-.0581.357-.0387.664-.0984.925-.1732.104-.0296.158-.0963.158-.2023v-.375c0-.1248-.067-.17-.203-.1447-.288.0538-.588.0845-.9.1092-.313.0242-.623.0355-.932.0355-.951 0-1.647-.2324-2.085-.6999-.438-.4665-.657-1.1761-.657-2.1283v-.4181c0-.9619.22-1.6764.664-2.1433.443-.467 1.13-.7 2.065-.7.287 0 .584.0129.888.0366.301.0237.598.0533.887.1076.134.0253.202-.0188.202-.1447v-.3739c0-.106-.054-.1722-.16-.2023-.261-.0742-.56-.1345-.901-.1732-.343-.0388-.691-.0576-1.047-.0576-1.202 0-2.094.3249-2.676.9743-.582.6494-.874 1.522-.874 2.619v.5331c0 1.097.295 1.968.882 2.6125.586.644 1.48.9668 2.681.9668Zm6.147-4.0549 3.592-3.3049c.059-.0581.083-.1103.073-.1587-.01-.0484-.067-.0715-.175-.0715h-.75c-.115 0-.206.0328-.274.1l-3.607 3.3189v-3.2468c0-.1151-.062-.1721-.187-.1721h-.576c-.126 0-.189.057-.189.1721v7.129c0 .1157.063.1732.189.1732h.576c.125 0 .187-.0575.187-.1732v-3.6508l3.983 3.6799c.097.0968.202.1441.317.1441h.793c.097 0 .148-.0258.153-.0796.006-.0522-.017-.1027-.065-.1506l-4.04-3.709Zm10.575-3.3764-4.126 6.0019v-5.9885c0-.1151-.062-.1721-.188-.1721h-.578c-.125 0-.187.057-.187.1721v7.129c0 .1157.062.1732.187.1732h.78c.126 0 .221-.0527.289-.1587l4.127-6.0024v5.9879c0 .1157.061.1732.186.1732h.579c.123 0 .186-.0575.186-.1732v-7.129c0-.1151-.063-.1721-.186-.1721h-.764c-.088 0-.15.0129-.189.0425-.038.0285-.078.0678-.116.1162Zm8.843-.1162c-.039.0296-.075.0678-.115.1162l-4.126 6.0019v-5.9885c0-.1151-.063-.1721-.189-.1721h-.577c-.123 0-.188.057-.188.1721v7.129c0 .1157.065.1732.188.1732h.78c.123 0 .221-.0527.289-.1587l4.126-6.0024v5.9879c0 .1157.062.1732.189.1732h.576c.125 0 .188-.0575.188-.1732v-7.129c0-.1151-.063-.1721-.188-.1721h-.765c-.087 0-.149.014-.188.0425Zm-2.034-1.125c.664 0 1.196-.1829 1.594-.5482.399-.3664.618-.8855.656-1.5586 0-.0963-.053-.1447-.159-.1447h-.375c-.105 0-.167.0576-.186.1732-.076.453-.254.7817-.528.9878-.275.2077-.608.311-1.002.311-.395 0-.729-.1033-1.004-.311-.273-.2066-.449-.5353-.525-.9878-.02-.1156-.083-.1732-.189-.1732h-.374c-.106 0-.158.0484-.158.1447.037.6731.255 1.1922.655 1.5586.399.3648.931.5482 1.595.5482ZM78.8267 27.6947v9.755c0 .1151.0613.1737.1866.1737h.6349c.1248 0 .1877-.0586.1877-.1737v-9.0621h5.0083c.1258 0 .1861-.0586.1861-.1737v-.5192c0-.1151-.0603-.1727-.1861-.1727h-5.8309c-.1253 0-.1866.0576-.1866.1727Zm12.0688 9.1131c.5725-.6208.8592-1.5134.8592-2.6776v-.4901c0-1.1637-.2867-2.0568-.8592-2.6771-.5724-.6203-1.3923-.9312-2.4608-.9312-1.0663 0-1.8873.3109-2.4591.9312-.5725.6209-.8592 1.5129-.8592 2.6771v.4901c0 1.1642.2862 2.0562.8592 2.6776.5718.6203 1.3934.9302 2.4591.9302 1.069 0 1.8889-.3093 2.4608-.9302Zm-.093-3.0956v.3465c0 .9431-.1937 1.6565-.5778 2.1423-.3842.4852-.9803.729-1.7894.729-.807 0-1.4037-.2432-1.7889-.729-.3846-.4853-.5762-1.1992-.5762-2.1423v-.3465c0-.9426.191-1.657.5762-2.1428.3852-.4859.9819-.729 1.7889-.729.8091 0 1.4058.2431 1.7894.729.3841.4863.5778 1.2002.5778 2.1428Zm4.7811 3.9392c.3411.0576.7107.0866 1.104.0866.5003 0 .9598-.0667 1.3783-.2017.4191-.1351.7775-.3443 1.0809-.6279.3034-.2835.5407-.6439.7091-1.0819.1681-.4374.2511-.9549.2511-1.551v-.5343c0-.567-.074-1.0797-.2237-1.5365-.1501-.4567-.3793-.8473-.6913-1.1696-.3121-.3222-.7037-.5703-1.1691-.7429-.467-.1733-1.019-.2604-1.6516-.2604-.367 0-.7516.0263-1.1562.0796-.404.0532-.7704.1275-1.0964.2383-.2706.092-.4046.2981-.4046.6053v9.2793c0 .1152.0629.1727.1888.1727h.5762c.1248 0 .1883-.0575.1883-.1727V37.405c.2696.1071.5751.1888.9162.2464Zm-.9156-.8511v-5.7431c.2119-.0775.461-.1324.7489-.1657.291-.0339.5772-.0511.8667-.0511.9323 0 1.6446.2507 2.1353.751.4912.4998.7349 1.2503.7349 2.251v.3314c0 1.0007-.24 1.7097-.7209 2.1283-.481.4186-1.1734.6273-2.0783.6273-.3083 0-.6058-.0091-.8926-.028-.2883-.0188-.5541-.0527-.794-.1011Zm12.746.0075c.572-.6208.858-1.5134.858-2.6776v-.4901c0-1.1637-.286-2.0562-.858-2.6771-.571-.6203-1.391-.9312-2.46-.9312-1.068 0-1.889.3109-2.46.9312-.573.6209-.857 1.5129-.857 2.6771v.4901c0 1.1642.284 2.0562.857 2.6776.571.6198 1.392.9302 2.46.9302 1.069 0 1.889-.3099 2.46-.9302Zm-.094-3.0956v.3465c0 .9431-.193 1.6565-.578 2.1423-.384.4852-.981.729-1.788.729s-1.403-.2438-1.787-.729c-.385-.4858-.579-1.1992-.579-2.1423v-.3465c0-.9426.193-1.6565.579-2.1428.384-.4853.98-.729 1.787-.729.808 0 1.404.2437 1.788.729.385.4863.578 1.2002.578 2.1428Zm4.479-3.2979c-.188.1786-.302.4309-.34.758-.108.9426-.34 1.8948-.705 2.8573-.366.962-.824 1.89-1.372 2.7847h-.475c-.126 0-.188.0575-.188.1738v1.9045c0 .1151.057.1732.173.1732h.591c.125 0 .188-.0581.188-.1732v-1.2697h5.526v1.2697c0 .1151.057.1732.173.1732h.592c.125 0 .187-.0581.187-.1732v-1.9045c0-.1163-.062-.1738-.187-.1738h-.823v-6.4942c0-.1151-.062-.1727-.186-.1727h-2.252c-.414 0-.714.0893-.902.2669Zm2.389 6.4h-3.723c.46-.7984.858-1.671 1.19-2.619.332-.9469.581-1.9013.729-2.8643.02-.1248.064-.2189.136-.2819.073-.0629.18-.0941.325-.0941h1.343v5.8593Zm6.765.9237c.365 0 .727-.0193 1.083-.0575.354-.0382.663-.0996.923-.1733.106-.0301.158-.0968.158-.2023v-.376c0-.1248-.066-.17-.2-.1442-.289.0549-.592.0839-.904.1087-.313.0247-.623.0355-.93.0355-.953 0-1.65-.2324-2.087-.6994-.437-.4659-.656-1.1761-.656-2.1278v-.4191c0-.9619.221-1.6764.665-2.1434.443-.4664 1.13-.6994 2.062-.6994.29 0 .585.0124.889.0366.302.0242.598.0538.887.1082.136.0258.201-.0194.201-.1448v-.3744c0-.106-.053-.1716-.157-.2018-.261-.0747-.561-.1355-.903-.1737-.342-.0382-.69-.0576-1.046-.0576-1.203 0-2.094.3255-2.675.9743-.582.6499-.874 1.5225-.874 2.619v.5331c0 1.0975.292 1.9675.88 2.6125.587.644 1.481.9668 2.684.9668Zm6.145-4.0549 3.594-3.3043c.057-.0587.082-.1109.072-.1587-.009-.0479-.068-.0727-.173-.0727h-.75c-.118 0-.208.0334-.275.1012l-3.607 3.3189v-3.2474c0-.1151-.063-.1727-.189-.1727h-.576c-.126 0-.189.0576-.189.1727v7.129c0 .1151.063.1738.189.1738h.576c.126 0 .189-.0587.189-.1738v-3.6508l3.982 3.6804c.096.0963.201.1442.318.1442h.793c.095 0 .146-.0264.152-.0796.004-.0533-.018-.1039-.065-.1517l-4.041-3.7085Zm10.409 3.1247c.573-.6214.859-1.5134.859-2.6776v-.4901c0-1.1637-.286-2.0562-.859-2.6771-.572-.6197-1.392-.9312-2.459-.9312-1.069 0-1.889.3109-2.461.9312-.573.6203-.858 1.5129-.858 2.6771v.4901c0 1.1642.285 2.0568.858 2.6776.572.6203 1.392.9302 2.461.9302 1.067 0 1.887-.3099 2.459-.9302Zm-.093-3.0956v.3465c0 .9431-.193 1.657-.577 2.1423-.384.4858-.983.729-1.789.729-.809 0-1.404-.2427-1.79-.729-.384-.4848-.576-1.1992-.576-2.1423v-.3465c0-.9426.192-1.6576.576-2.1428.386-.4864.981-.729 1.79-.729.806 0 1.405.2431 1.789.729.384.4858.577 1.2002.577 2.1428Zm8.107-3.5212c-.038.0285-.076.0673-.115.1151l-4.128 6.0025v-5.9885c0-.1151-.06-.1727-.186-.1727h-.579c-.123 0-.185.0576-.185.1727v7.129c0 .1151.062.1738.185.1738h.78c.126 0 .223-.0533.289-.1593l4.127-6.0029v5.9884c0 .1151.061.1738.188.1738h.577c.126 0 .187-.0587.187-.1738v-7.129c0-.1151-.061-.1727-.187-.1727h-.765c-.087 0-.15.0146-.188.0436Zm-2.034-1.1255c.664 0 1.195-.1834 1.594-.5482.4-.3658.618-.8855.658-1.5586 0-.0952-.054-.1442-.159-.1442h-.375c-.106 0-.169.0581-.189.1733-.079.4514-.252.7811-.525.9877-.275.2077-.61.3105-1.004.3105s-.728-.1033-1.002-.3105c-.276-.2076-.452-.5358-.528-.9877-.019-.1152-.082-.1733-.187-.1733h-.377c-.105 0-.157.049-.157.1442.038.6731.259 1.1933.656 1.5586.399.3653.93.5482 1.595.5482Zm11.05 2.3521v-3.03h4.432c.124 0 .185-.0586.185-.1737v-.5192c0-.1151-.061-.1727-.185-.1727h-5.254c-.126 0-.186.0576-.186.1727v9.2213c0 .3168.13.5062.388.5772.367.1012.775.1824 1.228.2303.453.0479.933.0726 1.442.0726 1.174 0 2.045-.2738 2.613-.822.568-.5488.851-1.3617.851-2.4388 0-1.0873-.291-1.9034-.872-2.4457-.583-.545-1.475-.8161-2.678-.8161-.356 0-.699.0118-1.033.0365-.332.0237-.642.0598-.931.1076Zm1.889 5.5118c-.326.0016-.646-.0134-.965-.0425-.317-.0285-.626-.0769-.924-.1452v-4.459c.251-.0473.54-.0844.866-.1086.328-.0242.641-.0355.94-.0355.978 0 1.675.2071 2.083.6203.409.4142.613 1.0103.613 1.7893 0 .7699-.199 1.3563-.599 1.7598-.4.4051-1.068.6171-2.014.6214Zm9.768.729c.481-.0527.9-.1216 1.256-.2093.269-.0667.404-.2593.404-.5773v-3.9532c0-.4906-.056-.9167-.166-1.2766-.111-.361-.29-.6623-.54-.9022-.251-.2411-.584-.4191-1.003-.5343-.419-.1151-.931-.1732-1.538-.1732-.402 0-.795.0242-1.175.0726s-.725.1082-1.031.2018c-.088.0269-.13.0823-.13.1592v.4041c0 .0575.021.0957.063.1156.043.0194.09.0237.138.0146.278-.0512.586-.0861.924-.1157.336-.0291.664-.0436.981-.0436.519 0 .942.0382 1.269.1151.327.077.585.2072.773.3901.187.1824.314.4239.381.7209.068.2991.101.6682.101 1.112v.4326c-.173-.0576-.36-.1103-.562-.1587-.201-.0484-.412-.092-.635-.1302-.222-.0382-.446-.0673-.67-.0866-.226-.0199-.447-.0291-.657-.0291-.905 0-1.597.1867-2.077.5558-.481.3706-.722.9404-.722 1.7097 0 .3755.057.7043.167.9883.11.2835.289.5197.538.7069.251.1883.58.3293.99.4256.409.0963.91.1447 1.507.1447.463 0 .933-.0263 1.414-.0796Zm-1.356-.729c-.828 0-1.419-.1114-1.773-.3319-.356-.2217-.535-.5956-.535-1.125 0-.5186.17-.8925.511-1.1179.342-.2265.917-.3401 1.724-.3401.377 0 .746.0173 1.113.0506.364.0334.707.0888 1.022.1663v2.4963h.017c-.318.0769-.656.1302-1.01.1587-.356.0296-.713.043-1.069.043Zm10.619-2.9713v3.4916c0 .1151.062.1737.186.1737h.579c.126 0 .186-.0586.186-.1737v-7.1296c0-.1151-.06-.1727-.186-.1727h-.579c-.124 0-.186.0576-.186.1727v2.8293h-4.329v-2.8293c0-.1151-.062-.1727-.188-.1727h-.577c-.126 0-.188.0576-.188.1727v7.129c0 .1151.063.1738.188.1738h.577c.125 0 .188-.0587.188-.1738v-3.4916h4.329v.0006Zm5.437-.275 3.594-3.3043c.058-.0587.081-.1109.073-.1587-.009-.0485-.069-.0727-.174-.0727h-.751c-.115 0-.207.0334-.273.1012l-3.609 3.3189v-3.2474c0-.1151-.063-.1727-.188-.1727h-.576c-.125 0-.189.0576-.189.1727v7.129c0 .1151.063.1738.189.1738h.576c.125 0 .188-.0587.188-.1738v-3.6508l3.983 3.6804c.096.0963.201.1442.317.1442h.795c.094 0 .146-.0264.151-.0796.004-.0533-.017-.1039-.066-.1517l-4.04-3.7085Z"/>
</svg>