<svg xmlns="http://www.w3.org/2000/svg" viewBox="0 0 200 50">
	<path class="bg-logo" fill="#1F1E24" d="M0 0h200v50H0z"/>
	<path fill="#fff" d="M115.68 14.2462c5.067 0 7.418-2.1433 7.599-5.2462h-3.437c-.136 1.2927-1.086 2.8813-4.162 2.8813-3.076 0-4.025-1.5886-4.16-2.8813h-3.437c.181 3.1029 2.532 5.2462 7.597 5.2462Zm4.93 1.9316-12.482 16.4816V16.1778h-4.886v19.3641h7.508l12.483-16.4804v16.4804h4.884V16.1778h-7.507Zm-45.9524 5.817c.4061-4.5838 5.427-6.2467 11.3524-6.2467 7.4161 0 11.4879 2.625 11.4879 7.761v12.0464h-4.7491v-3.9536C90.894 34.3 87.3212 36 82.2545 36c-6.2398 0-8.9985-2.4764-8.9985-5.6177 0-3.7703 3.8891-5.5421 11.0347-5.9866l8.096-.5547v-1.1825c0-2.2164-1.9459-3.9536-6.3767-3.9907-3.5289 0-6.152 1.0723-6.6039 3.327h-4.7485Zm3.618 8.203c0 1.627 1.674 2.8813 5.4276 2.8813 5.4276 0 8.6835-2.511 8.6835-5.7266v-.9609l-7.4632.4805c-4.2953.2946-6.6479 1.331-6.6479 3.3257Zm-17.5873-4.5392 10.7184 9.9402H65.165l-7.5969-7.3177-7.5536 7.3177H44l10.537-9.83-10.0851-9.534h6.2857l6.9203 6.9103 7.0112-6.9103h6.0145l-9.9953 9.4238Zm92.6147 2.8392 4.973.2959C157.327 33.4865 152.397 36 145.93 36c-7.961 0-13.07-3.5487-13.07-10.1259 0-6.5785 5.109-10.126 12.935-10.126 6.24 0 11.261 2.4034 12.165 6.9847l-4.93.2959c-.769-2.6992-3.708-4.065-7.235-4.065-4.705 0-7.915 2.5507-7.915 6.9104 0 4.3596 3.21 6.9103 8.05 6.9103 3.754 0 6.602-1.5155 7.373-4.2866Z"/>
	<path fill="#0029FF" d="M167.391 30.6797h-4.91v4.9148h4.91v-4.9148Z"/>
</svg>