<svg xmlns="http://www.w3.org/2000/svg" viewBox="0 0 200 50">
	<path class="bg-logo" fill="url(#a)" d="M0 0h200v50H0z"/>
  	<linearGradient id="a" x1="12.0547" x2="46.3891" y1="10.7453" y2="96.6709" gradientUnits="userSpaceOnUse">
  		<stop stop-color="#00D5D9"/>
  		<stop offset="1" stop-color="#F000EC"/>
  	</linearGradient>
	<path fill="#fff" d="M56.15 18.7665h-9.577v12.0404h5.3984c2.9746 0 5.0037-1.1843 5.0037-3.8687 0-2.339-1.36-3.7996-4.5398-3.7996h-2.8621V21.518h6.569v-2.7515h.0078Zm-3.8529 6.9459c.9988 0 1.5653.3612 1.5653 1.1705 0 .8586-.6711 1.1685-1.5791 1.1685h-2.7101v-2.339h2.7239Zm15.3644 5.0906h3.1798l-5.132-12.0404h-2.8976L57.6186 30.803h3.095l.8092-1.9956h5.3294l.8093 1.9956Zm-3.4562-8.5112 1.5988 3.9477h-3.2154l1.6166-3.9477ZM80.14 30.803h3.0082V18.7626H80.14v4.5615l-4.9859-.0178v-4.5398H72.144v12.0404h3.0101v-4.6642l4.9859.0178v4.6425Zm8.6987-12.0404h-3.0081V30.803h3.0081v-3.5529l1.2732-1.4094 3.4897 4.9524h3.851l-4.9346-6.8433 4.7628-5.1833h-3.8174l-4.6247 5.278V18.7626Zm25.6263 0h-3.553l-2.526 3.8174-2.558-3.8135h-3.553l4.145 5.9314-4.343 6.1051h3.553l2.7-4.0247 2.683 4.0247h3.553l-4.278-6.1051 4.177-5.9215v-.0138Zm9.621 12.0404h3.008V18.7626h-9.37v1.358c0 6.9794-.413 7.8756-1.875 7.8756-.149.0026-.298-.0034-.446-.0178v2.8246c.441.0891.89.1348 1.34.1362 1.755 0 3.717-.7047 3.869-7.1059l.051-2.1435h3.423v9.1132Zm16.777 0h3.01V18.7626h-3.002V30.803h-.008Zm-6.113-5.5603c1.392 0 1.84.4816 1.84 1.3816 0 .987-.466 1.514-1.84 1.514h-1.881v-2.8956h1.881Zm-1.881-6.4762h-3.002v12.0404h4.883c3.18 0 4.935-1.3935 4.935-4.2299 0-2.6134-1.67-3.9891-4.884-3.9891h-1.932v-3.8214Zm21.724 12.0404h3.008V18.7665h-3.002v4.5576l-4.986-.0178v-4.5398h-3.01v12.0404h3.01v-4.6642l4.986.0178v4.6425l-.006.0039Zm5.033-6.0182c0 3.7503 2.665 6.2926 6.449 6.2926s6.446-2.5779 6.446-6.2926c0-3.7503-2.664-6.2926-6.446-6.2926-3.835 0-6.449 2.6469-6.449 6.2926Zm3.095 0c0-2.0627 1.358-3.5411 3.356-3.5411 1.924 0 3.355 1.4784 3.355 3.5411 0 2.0626-1.288 3.541-3.355 3.541-1.96 0-3.356-1.4784-3.356-3.541Zm11.826 6.0182h5.759c2.716 0 4.694-1.0501 4.694-3.5766 0-1.4962-.756-2.4929-2.045-2.941 1.1-.4816 1.65-1.2534 1.65-2.4397 0-1.806-1.018-3.0791-4.161-3.0791h-5.891v12.0404l-.006-.004Zm5.621-4.9346c1.222 0 1.704.3612 1.704 1.2041 0 .8763-.593 1.2376-1.686 1.2376h-2.625v-2.4456l2.607.0039Zm-.197-4.6089c1.152 0 1.529.3948 1.529 1.1014 0 .7066-.45 1.1843-1.478 1.1843h-2.461v-2.2896l2.41.0039ZM32.0198 37.0837h6.9894c.0844.0073.1692-.0084.2454-.0454.0763-.037.1411-.0939.1876-.1647.0465-.0708.073-.1528.0767-.2375.0037-.0846-.0155-.1687-.0557-.2433l-3.9852-8.2901c-.2112-.4382-.5073-.6592-1.1251-.6592h-4.2477l8.977-13.6787c.0532-.0769.0831-.1674.0863-.2608.0031-.0934-.0206-.1857-.0685-.266-.0478-.0803-.1177-.1451-.2014-.1868-.0836-.0417-.1775-.0585-.2704-.0483h-7.2143c-.2151-.0067-.428.0448-.6163.149-.1883.1042-.345.2573-.4535.4431l-3.9596 6.038-2.8818-5.9847c-.0758-.2012-.2145-.3727-.3955-.489-.1809-.1162-.3945-.1711-.6091-.1564h-6.9894c-.0842-.0066-.1686.0095-.2445.0466-.0758.0372-.1403.094-.1867.1646s-.073.1523-.077.2367c-.004.0844.0147.1683.0542.2429l3.9852 8.2901c.2112.4363.5073.6573 1.1251.6573h4.2477l-8.977 13.6807c-.0524.0772-.0817.1677-.0844.261-.0027.0933.0214.1853.0693.2654.0479.0801.1177.1448.2011.1865.0835.0417.1771.0587.2699.049h7.2124c.2151.0066.428-.0449.6163-.1491.1883-.1042.345-.2573.4535-.4431l3.9615-6.0399 2.8838 5.9866c.0757.2006.2138.3716.3939.4878.1802.1162.3929.1715.6068.1577Z"/>
</svg>