<svg xmlns="http://www.w3.org/2000/svg" viewBox="0 0 200 50">
	<path class="bg-logo" fill="#E1192F" d="M0 0h200v50H0z"/>
	<path fill="#fff" d="M46.2933 16c1.84 0 3.4311.3556 4.7911 1.0578 1.3511.7022 2.4 1.6978 3.1377 2.9689.7378 1.2711 1.1023 2.7822 1.1023 4.5244 0 1.7245-.3645 3.2356-1.1023 4.5156-.7377 1.2889-1.7866 2.2844-3.1377 2.9866-1.36.7023-2.9511 1.0578-4.7911 1.0578-1.84 0-3.44-.3555-4.8-1.0578-1.36-.7111-2.4089-1.7066-3.1378-2.9866-.7289-1.28-1.0934-2.7911-1.0934-4.5156 0-1.7422.3645-3.2533 1.0934-4.5244.7289-1.2711 1.7778-2.2667 3.1378-2.9689 1.36-.7022 2.96-1.0578 4.8-1.0578Zm2.5955 13.1289c.7022-.4 1.2356-.9867 1.5822-1.7511.3467-.7734.5245-1.7067.5334-2.8178 0-1.1111-.1778-2.0444-.5245-2.8089-.3466-.7644-.88-1.3511-1.5822-1.7511-.7111-.4-1.5733-.6044-2.6044-.6044-1.0312 0-1.8845.1955-2.5778.5955-.6934.4-1.2178.9867-1.5734 1.7511-.3555.7734-.5333 1.7067-.5333 2.8178s.1778 2.0533.5333 2.8178c.3556.7733.8712 1.3511 1.5645 1.7511.6844.4 1.5467.5955 2.5778.5955s1.9022-.1955 2.6044-.5955Zm-12.1777-12.898h-4.6578l-3.4933 5.36-3.68-5.36h-4.8533l5.8044 8.0622L20 32.8709h4.6844l3.5467-5.52 3.7511 5.52h4.8445l-5.8934-8.3378 5.7778-8.3022Zm78.4709 6.1689c1.094 0 2.054.2133 2.889.64.827.4267 1.476 1.0311 1.947 1.8044.471.7734.702 1.6978.702 2.7556 0 1.0667-.231 1.9911-.702 2.7733-.471.7822-1.111 1.3956-1.938 1.8311-.827.4356-1.795.6667-2.924.6667h-9.529v-16.64h13.857v3.3867h-9.742v2.7822h5.44Zm-.542 7.1733c.613 0 1.093-.1689 1.422-.4978.329-.3288.498-.8088.498-1.4488 0-.4267-.071-.7823-.222-1.0667-.151-.2845-.374-.5067-.667-.6667-.293-.16-.631-.24-1.031-.24h-4.898v3.92h4.898Zm6.916 3.2978 7.208-16.64h4.303l7.217 16.64h-4.444l-1.351-3.3422h-7.316l-1.36 3.3422h-4.257Zm9.297-12.3111-2.329 5.6889h4.64l-2.311-5.6889Zm24.036 2.0355h-7.938v-6.3644h-4.231v16.64h4.231v-6.8533h7.938v6.8533h4.213v-16.64h-4.213v6.3644Zm16.942 1.4134L180 32.8709h-5.396l-6.915-7.5022v7.5022h-4.116v-16.64h4.116v7.1289l6.915-7.1289h5.094l-7.867 7.7778Zm-107.5377.16-4.0534-7.9378h-4.7466l6.5333 12.1511-2.2844 4.4889h4.5422l8.4178-16.64h-4.4978l-3.9111 7.9378Zm20.3911 1.92 5.3067-9.8578h4.5422v16.64h-3.8311V22.0353l-4.2311 7.8934h-3.6622l-4.32-7.84v10.7822h-3.8311v-16.64h4.6133l5.4133 9.8578Z"/>
</svg>