<svg xmlns="http://www.w3.org/2000/svg" viewBox="0 0 200 50">
	<path class="bg-logo" fill="#0b60ae" d="M0 0h200v50H0V0Z"/>
	<g fill="#fff">
		<path d="M153.2 28c-2.1 1.5-5.1 0-5.1-2.6 0-2.4 2.7-3.9 4.7-2.7.9.5 1.3.4 1.7 0 .3-.4.3-.9-.1-1.3-3.3-2.6-8.6-.2-8.5 4.1 0 4.4 5.5 6.7 8.8 3.9.5-.4.5-1 0-1.4-.4-.3-.9-.5-1.6 0ZM94.5 21.3l-2.8 3.5-2.7-3.4c-.7-.8-2.4-1.3-2.5.3v8.8h2.1v-6.9l2.2 2.8c.5.6 1.3.6 1.8 0l2.2-2.8v6.9h2.1V22c0-1.7-1.6-1.5-2.4-.6ZM131 21.3l-2.8 3.5-2.7-3.4c-.7-.8-2.4-1.3-2.5.3v8.8h2.1v-6.9l2.2 2.8c.5.6 1.3.6 1.8 0l2.2-2.8v6.9h2.1V22c0-1.7-1.7-1.5-2.5-.6ZM70.8 20.6c-.7 0-1 .3-1.1 1v3.1h-4.5v-3.1c0-.7-.3-1.1-1.1-1.1S63 21 63 21.7v8.7h2.1v-4h4.5v4h2.1v-8.7c0-.7-.3-1.1-1.1-1.1ZM78.3 24.4l2.7-2.8c.7-.7.2-1-.3-1-.9 0-1 0-1.5.5l-3.5 3.7v-3.1c0-.7-.3-1.1-1-1.1s-1.1.5-1.1 1.2v8.6h2.1v-3.2l1.2-1.2 3.2 4.5h2.6l-4.3-6ZM161.1 24.4l2.7-2.8c.7-.7.2-1-.3-1-.9 0-1 0-1.5.5l-3.5 3.7v-3.1c0-.7-.3-1.1-1-1.1s-1.1.5-1.1 1.2v8.6h2.1v-3.2l1.2-1.2 3.2 4.5h2.6l-4.3-6ZM23.7 21.7c.5-3.1 2.1-5.6 3.7-6.5.2 0 .7.4 1.1.9h.2c.6-.3 1.2-.5 1.9-.7-.8-.9-1.2-1.3-1.9-1.8-.8-.5-1.8-.6-2.6 0-2.3 1.5-3.6 4-4.2 6.5l1.7 1.8Z"/>
		<path d="M22.2 25.4c-1.9-2.5-2.5-5.5-2-7.3.2 0 .8-.2 1.4-.2v-.2c.2-.6.5-1.2.9-1.9-1.2-.1-1.8 0-2.6 0-.9.2-1.7.9-1.8 1.8-.5 2.7.3 5.4 1.7 7.7h2.5ZM27.4 17.7v2.5c2.5-1.9 5.5-2.5 7.3-2 0 .2.2.8.2 1.4h.2c.6.2 1.3.5 1.9.9.1-1.2 0-1.8 0-2.6-.2-.9-.9-1.7-1.8-1.9-2.7-.5-5.4.2-7.6 1.6Z"/>
		<path d="m33 20-1.7 1.7c3.1.5 5.6 2.1 6.5 3.7 0 .2-.4.7-.9 1.1v.2c.3.6.5 1.2.7 1.9.9-.8 1.3-1.2 1.8-1.9.5-.8.6-1.8 0-2.6-1.5-2.3-4-3.6-6.6-4.2Z"/>
		<path d="M35.2 25.4h-2.5c1.9 2.5 2.5 5.5 2 7.3-.2 0-.8.2-1.4.2v.2c-.2.6-.5 1.3-.9 1.9 1.2.1 1.8 0 2.6 0 1-.2 1.7-.9 1.9-1.8.5-2.7-.2-5.4-1.6-7.6Z"/>
		<path d="M31.2 29.1c-.5 3.1-2.2 5.6-3.7 6.5-.2 0-.7-.4-1.1-.9h-.2c-.6.3-1.2.5-1.9.7.8.9 1.2 1.3 1.9 1.8.8.5 1.8.6 2.6 0 2.3-1.5 3.6-4 4.2-6.5l-1.7-1.8Z"/>
		<path d="M27.5 33.1v-2.5c-2.5 1.9-5.5 2.5-7.3 2 0-.2-.2-.8-.2-1.4h-.2c-.6-.2-1.3-.5-1.9-.9-.1 1.2 0 1.8 0 2.6.2 1 .9 1.7 1.8 1.9 2.7.5 5.4-.2 7.6-1.6Z"/>
		<path d="M23.7 29.2c-3.1-.5-5.6-2.2-6.5-3.7 0-.2.4-.7.9-1.1v-.2c-.3-.6-.5-1.2-.7-1.9-.9.8-1.3 1.2-1.8 1.9-.5.8-.6 1.8 0 2.6 1.5 2.3 4 3.6 6.5 4.2l1.7-1.7ZM142.6 21.1c-3.3-1.9-8.1.3-8 4.4 0 4 4.7 6.3 8 4.4 3.5-1.9 3.5-6.8 0-8.7Zm0 5.9c-1.1 2-4.4 2-5.5 0-1.2-2 .4-4.7 2.7-4.6 2.4 0 4 2.6 2.7 4.6ZM61.7 29.4c-1-2.5-3-7.4-3.4-8.4-.3-.6-1.4-.8-1.9-.5-.4.2-.6.6-.8 1.1l-3.4 8.7h2.2l.9-2.3h3.8l.9 2.3h2.2s-.2-.4-.4-1Zm-5.8-2.9 1.3-3.6 1.3 3.6h-2.6ZM113.2 21c-.3-.6-1.3-.8-1.9-.4-.4.2-.6.7-.8 1.1l-3.4 8.7h2.2l.9-2.3h3.8l.9 2.3h2.2s-.2-.4-.4-1c-1-2.4-3.3-8.2-3.4-8.4Zm-2.5 5.5 1.3-3.6 1.3 3.6h-2.6ZM181.6 21.7c-.3-.7-.7-1.2-1.5-1.2s-1.2.5-1.5 1.2l-3.4 8.7h2.2l.9-2.3h3.8l.9 2.3h2.2l-3.4-8.7Zm-2.8 4.8 1.3-3.6 1.3 3.6h-2.6ZM173.1 25.2c1.7-.8 1.6-3.3 0-4.2-.7-.4-1.3-.4-2.2-.4h-3.1c-.4 0-.8.1-1 .3-.2.2-.3.5-.3 1v8.5h4.2c.9 0 1.6 0 2.4-.3 2.1-.9 2.2-4.1-.1-4.9Zm-4.4-3h.4c.8 0 2.1 0 2.6.2s.6 1 .3 1.5-.8.5-1.4.6h-1.9v-2.3Zm2 6.5h-2v-2.6h.8c.9 0 2.2 0 2.6.3.3.2.5.5.5 1 0 .9-.6 1.3-1.9 1.3ZM51.4 25.9c-.7-1.1-1.9-1.5-3.2-1.5h-2.3v-2.2h4.3c.5 0 .8-.2.8-.8s-.2-.8-.8-.8H45c-.9 0-1.2.4-1.2 1.2v8.6h4.6c.7 0 1.4 0 1.9-.3 1.6-.7 2.2-2.7 1.3-4.1Zm-3.6 2.8h-2v-2.6h.8c.9 0 2.2 0 2.6.3.3.2.5.5.5 1 0 .9-.6 1.3-1.9 1.3ZM106.3 25.9c-.7-1.1-1.9-1.5-3.2-1.5h-2.3v-2.2h4.3c.6 0 .8-.2.8-.8s-.2-.8-.8-.8h-5.2c-.9 0-1.2.4-1.2 1.2v8.6h4.6c.7 0 1.4 0 1.9-.3 1.6-.7 2.2-2.7 1.3-4.1Zm-3.6 2.8h-2v-2.6h.8c.9 0 2.2 0 2.6.3.3.2.5.5.5 1 0 .9-.6 1.3-1.9 1.3ZM117.5 25.5c-.2.3-.3.7-.3 1.2h3c1 0 1.4-.7 1.4-1.6h-3c-.5 0-.8.2-1 .4Z"/>
	</g>
</svg>