<svg xmlns="http://www.w3.org/2000/svg" viewBox="0 0 200 50">
	<path class="bg-logo" fill="#EE151F" d="M0 0h200v50H0z"/>
	<path fill="#fff" d="m48.3316 7-.0746.41036s-.0372.29845-.1492.78343l-.0239.09122c-.1878.71417-.4782 1.81929-.8714 2.85589-.3731.97-.8581 1.9399-1.3804 2.4995-.7088-.7834-1.3429-2.2756-1.7533-3.5813-.2239-.70884-.4103-1.38034-.5223-1.86531-.1119-.48498-.1865-.78343-.1865-.78343L43.3327 7h-2.7979l.0746.55958c.373 3.17102 1.9772 6.93882 4.7377 8.84142h.9701c2.7605-1.8652 4.402-5.7077 4.7751-8.84142L51.1296 7h-2.798Zm15.258 20.5555.4103.0746v2.7605l-.5595-.0746c-3.1337-.3357-6.9762-1.9772-8.8415-4.7378v-.97c1.8653-2.7605 5.6704-4.402 8.8415-4.7377l.5595-.0747v2.798l-.4103.0746s-.2984.0746-.7835.1865c-.485.1119-1.1564.2985-1.8652.5223-1.3431.4103-2.8353 1.0445-3.5814 1.7534.5596.5223 1.5296 1.0072 2.4995 1.3802 1.1192.4104 2.2383.7089 2.9471.8954.4851.1119.7835.1493.7835.1493Zm-35.1792-4.8498L28 22.6311v-2.7979l.5596.0746c3.1336.3358 6.9762 1.9772 8.8414 4.7378v.97c-1.9026 2.7606-5.6704 4.4021-8.8414 4.7378L28 30.428v-2.7979l.4104-.1119s.2984-.0374.7834-.112 1.1565-.2611 1.8653-.485c1.3056-.4103 2.7979-1.0445 3.5813-1.7533-.5595-.5223-1.5295-1.0072-2.4995-1.3803-.9603-.3842-1.9207-.631-2.6218-.8112-.1159-.0298-.2247-.0577-.3253-.0841-.485-.1492-.7834-.1866-.7834-.1866Zm14.9969 19.8839L43.3327 43h-2.8353l.0746-.5596c.3731-3.1336 2.0145-6.9762 4.7751-8.8414h.97c2.7606 1.9026 4.402 5.6704 4.7378 8.8414l.0747.5596h-2.7234l-.0746-.4104s-.0746-.2984-.1865-.7834-.2985-1.1565-.5223-1.8653c-.4104-1.3057-1.0446-2.7979-1.7534-3.5814-.5223.5596-1.0073 1.5296-1.3803 2.4995-.3759.9085-.6203 1.8696-.7994 2.574l-.0001.0001c-.0341.1345-.066.2596-.0958.3731-.1493.485-.1865.7834-.1865.7834Zm16.974-28.7253-.3358.2238s-.2611.1865-.6715.4477l-.0604.0355h-.0001c-.6366.3746-1.6135.9495-2.6256 1.4194-.9699.4477-1.9772.7461-2.7233.7834.0374-1.0446.6343-2.5368 1.3058-3.7679.295-.59.59-1.0936.8344-1.5108l.0982-.1679c.2611-.4104.4103-.6715.4103-.6715l.2239-.2985-1.9771-1.97718-.3732.44767c-1.9771 2.49951-3.5067 6.34191-2.9098 9.62491l.6715.6715c3.2829.6342 7.1627-.9326 9.6249-2.9098l.4476-.3731-1.9398-1.9772ZM31.6932 35.5762l-.3358.2238-1.9398-1.9399.4477-.3731c2.4621-1.9772 6.3419-3.544 9.6248-2.9099l.6715.6716c.5969 3.3202-.9327 7.1254-2.9099 9.6249l-.373.4476-1.9772-1.9772.2238-.3358s.1493-.2611.4104-.6715l.0982-.1678.0001-.0001c.2443-.4172.5393-.9208.8344-1.5108.6341-1.2311 1.2683-2.7233 1.3057-3.7679-.7462.0373-1.7534.3358-2.7234.7835-1.012.4698-1.9889 1.0447-2.6255 1.4193l-.0605.0355c-.4104.2612-.6715.4478-.6715.4478Zm25.3679 3.8052-.2238-.3731s-.1865-.2612-.4104-.6715c-.4104-.6342-.97-1.6415-1.4549-2.686-.4477-.9699-.7834-1.9772-.7834-2.7233 1.0445.0373 2.5368.6715 3.7678 1.3057.59.295 1.0937.59 1.5109.8344l.1679.0982c.4104.2611.6715.4477.6715.4477l.3358.2238 1.9772-1.9772-.4477-.373c-2.4995-1.9772-6.342-3.5068-9.6249-2.9099l-.6715.6715c-.6342 3.2829.9326 7.1627 2.9098 9.6249l.3731.4476 1.9026-1.9398ZM35.3492 10.7305l-.2238-.373 1.9026-1.93994.373.44767c1.9773 2.46217 3.5441 6.34197 2.9099 9.62487l-.6715.6715c-3.2829.5969-7.1254-.9327-9.6248-2.9099l-.4477-.373 1.9772-1.9772.3731.2238s.261.1866.6714.4478l.1679.0981c.4172.2444.9209.5394 1.5109.8344 1.231.6715 2.7233 1.2685 3.7679 1.3057-.0373-.7461-.3358-1.7533-.7835-2.7233-.4698-1.0119-1.0447-1.989-1.4194-2.6256l-.0354-.0604c-.2612-.4103-.4478-.6715-.4478-.6715ZM119.138 21.027c-2.723 0-4.477.8953-4.477.8953l.522 1.828s1.381-.6343 3.134-.6343c1.642 0 2.388.6715 2.388 2.0146-4.514 0-6.678 1.5294-6.678 3.7305 0 2.0518 1.642 3.5814 5.036 3.5814 2.052 0 3.955-.6715 4.701-1.0819v-6.23c-.038-2.4249-1.679-4.1036-4.626-4.1036Zm-9.028-3.5442v3.7306h3.059l-.187 2.0892h-2.872v5.7451c0 .7834.522 1.2311 1.194 1.2311.634 0 1.268-.2239 1.902-.5223l.224 1.716c-.933.6343-2.238.9327-3.097.9327-2.051 0-3.32-1.1939-3.32-3.3949V17.7067l3.097-.2239Zm-13.2064 12.311c1.2311.373 2.3876.5222 3.5064.5222 1.344 0 1.94-.2984 1.94-.8953 0-.6472-.947-1.0333-2.078-1.4939-1.6705-.6811-3.7415-1.525-3.7415-3.617 0-2.0145 1.5295-3.2828 4.6635-3.2828 1.529 0 3.134.5595 3.88.8953l-.336 1.828c-1.194-.4477-2.238-.6343-3.172-.6343-1.268 0-1.8644.3731-1.8644.9327 0 .7086.9914 1.1246 2.1574 1.613 1.656.6945 3.662 1.5356 3.662 3.5724 0 2.2011-1.492 3.2084-4.551 3.2084-1.4177 0-3.3949-.3731-4.3649-.7835l.2985-1.8652Zm-2.1264 1.7533c-1.2311.5223-2.798.8954-4.2529.8954-3.6559 0-5.5213-2.2383-5.5585-5.5586 0-3.4694 1.9772-5.8569 5.3347-5.8569s4.999 2.2382 4.999 4.8497c0 .1492-.0374 1.1191-.1492 1.6414h-7.0136c0 1.716 1.1565 2.7607 3.0964 2.7607.9327 0 2.0892-.1866 3.0591-.5969l.485 1.8652Zm-6.6405-6.0062h4.0664c0-1.6042-.7462-2.4995-2.0518-2.4995-1.2685.0374-2.0146 1.0073-2.0146 2.4995Zm32.5303 4.6633c-.008.0027-.019.0063-.031.0108-.164.0578-.71.2502-1.61.2502-1.269 0-1.903-.7087-1.903-1.5295 0-1.231 1.156-1.9025 3.544-2.0518v3.3203ZM81.3098 17.5575h3.2083c.3537 10.0089-4.7914 14.519-5.2953 14.9607-.0276.0242-.0413.0362-.0394.0362h-1.9026s-5.7451-4.4393-5.372-14.9969h3.2083s.0373 8.9161 3.0963 11.8632c3.0591-2.9844 3.0964-11.8632 3.0964-11.8632ZM168.679 32.2553l-4.066-4.999h-1.715v4.9616h-2.202V17.5568l2.202-.2238v8.2445h1.715l3.395-4.2528h2.426l-4.365 4.9617 5.111 5.9689h-2.501Zm-12.012 0v-7.2746c0-2.6115-3.096-2.4623-4.812-1.8654v9.1026h-2.201V21.847c1.119-.4477 2.798-.7461 4.402-.7461 2.462.0373 4.813.8953 4.813 3.6559v7.4985h-2.202Zm-11.08-5.484c-1.529.0746-4.439.0746-4.439 2.2384 0 1.4549 1.343 1.8652 2.574 1.8652.597 0 1.343-.0372 1.865-.2984v-3.8052Zm2.127 4.9244c-1.157.5596-2.649.7834-3.917.7834-2.238 0-4.701-.7461-4.701-3.4321 0-3.3202 4.03-3.6187 6.529-3.7679v-.6715c0-1.4177-1.045-1.8653-2.313-1.8653-1.007 0-2.089.2238-3.022.6716l-.559-1.5296c1.156-.5223 2.536-.7834 3.805-.7834 2.499 0 4.178 1.1937 4.178 3.6932v6.9016Zm-12.087-3.5441c0-2.0518-1.791-2.5741-3.432-2.5741h-2.462v4.8124c1.977.6343 5.894.6716 5.894-2.2383Zm-.336-6.6777c0-2.6487-3.768-2.7606-5.521-2.0518v4.4767h2.387c1.642 0 3.134-.5969 3.134-2.4249Zm2.612 6.827c0 3.1709-2.947 4.1409-5.671 4.1409-1.567 0-3.245-.1493-4.701-.7834v-13.542c1.418-.6342 3.097-.7834 4.664-.7834 2.5 0 5.26 1.0445 5.26 3.9171 0 1.4922-.933 2.8725-2.388 3.2829v.0373c1.642.485 2.836 1.9772 2.836 3.7306Z"/>
</svg>