<svg xmlns="http://www.w3.org/2000/svg" viewBox="0 0 200 50">
	<path class="bg-logo" fill="#106E53" d="M0 0h200v50H0z"/>
	<path fill="#B91C6B" d="m30.1177 13.0294 3.5294 3.5294c2.2941-2.2941 5.3823-3.6176 8.647-3.6176 3.2647 0 6.353 1.3235 8.6471 3.6176l3.5294-3.5294C51.2059 9.85294 46.7941 8 42.2941 8c-4.5882 0-8.9117 1.85294-12.1764 5.0294Z"/>
	<g fill="#fff">
		<path d="M71.2355 28.6473c.0882-.7941.0882-1.8529.0882-2.8235v-6.9706h-4.5v17.2059h4.2353l6.7059-9.8823c-.0883.7941-.0883 1.9411-.0883 2.8235v6.9706h4.4118V18.765h-4.2353l-6.6176 9.8823Zm25.2353-3.2647h-6.353V18.765h-4.5v17.2059h4.5v-6.5294h6.353v6.5294h4.5002V18.765h-4.5002v6.6176Zm16.5882-.5294H109v-2.0294h9.088V18.765H104.5v17.2059h8.559c3.441 0 6.529-1.2353 6.529-5.5589 0-4.3235-3.088-5.5588-6.529-5.5588Zm-.088 7.2353H109v-3.2647h3.971c1.059 0 1.941.2647 1.941 1.5882 0 1.3236-.882 1.6765-1.941 1.6765Zm13.588-13.2353-6.706 17.2059h4.588l.971-2.7353h7.059l.97 2.7353h4.589l-6.706-17.2059h-4.765Zm.265 10.7647 1.764-4.9411c.177-.5295.353-1.1471.442-1.7647.088.6176.264 1.147.441 1.7647l1.764 4.9411h-4.411Zm23.735-4.2353h-6.265V18.765h-4.5v17.2059h4.5v-6.5294h6.265v6.5294h4.5V18.765h-4.5v6.6176Zm18.176 1.853 6-8.4706h-4.941l-4.588 6.6176h-2.118V18.765h-4.5v17.2059h4.5v-6.5294h2.118l4.765 6.5294H175l-6.265-8.7353ZM38.1472 31.5591c1.2353.7941 2.6471 1.2353 4.0589 1.2353 1.9411 0 3.7941-.7941 5.2058-2.2059 1.4118-1.4117 2.1177-3.2647 2.1177-5.2059 0-1.5-.4412-2.9117-1.2353-4.147s-1.9412-2.2059-3.2647-2.7353c-1.3235-.5294-2.8235-.7059-4.2353-.4412-1.4118.2647-2.7353.9706-3.7941 2.0294-1.0588 1.0588-1.7647 2.3824-2.0294 3.7941-.2647 1.4118-.1765 2.9118.4412 4.2353.6176 1.4118 1.5 2.5589 2.7352 3.4412Z"/>
		<path d="M53.5882 30.1456c-.6176 1.5-1.5 2.9117-2.647 4.0588-1.1471 1.147-2.4706 2.0294-3.9706 2.647-1.5.6177-3.0883.9706-4.6765.9706s-3.1765-.3529-4.6765-.9706c-1.5-.6176-2.8235-1.5-3.9705-2.647C32.5 33.0573 31.6176 31.6456 31 30.1456c-.6176-1.5-.9706-3.0883-.9706-4.7647H25c0 4.5882 1.8529 9 5.0294 12.2647 3.2647 3.2647 7.5882 5.1176 12.1765 5.1176 4.5882 0 8.9117-1.8529 12.1764-5.1176 3.2647-3.2647 5.0295-7.6765 5.0295-12.2647h-4.9412c.0882 1.5882-.2647 3.2647-.8824 4.7647Z"/>
	</g>
</svg>