<svg xmlns="http://www.w3.org/2000/svg" viewBox="0 0 200 50">
	<path class="bg-logo" fill="#0047BB" d="M0 0h200v50H0z"/>
	<path fill="#F56E28" d="M30.1222 26.2445c5.6026 0 10.1223-4.5432 10.1223-10.1223C40.2445 10.5197 35.7012 6 30.1222 6 24.5197 6 20 10.5197 20 16.1222c0 5.5791 4.5197 10.1223 10.1222 10.1223Zm.069 8.0507c5.6026 0 10.1223-1.2241 10.1223-2.7306 0-1.5067-4.5433-2.7307-10.1223-2.7307-5.6025 0-10.1222 1.224-10.1222 2.7307 0 1.5065 4.5432 2.7306 10.1222 2.7306Zm10.1223 3.9315c0 .8945-4.5197 1.6007-10.1223 1.6007-5.579 0-10.1222-.7062-10.1222-1.6007s4.5197-1.6007 10.1222-1.6007c5.579-.0236 10.1223.7062 10.1223 1.6007Zm-10.1223 4.896c5.6026 0 10.1223-.1882 10.1223-.4472s-4.5433-.4708-10.1223-.4472c-5.6025 0-10.1222.1882-10.1222.4472 0 .2354 4.5432.4472 10.1222.4472Z"/>
	<path fill="#fff" d="M95.0441 9.03711c4.096.02354 7.0859 2.87189 7.0859 6.99139s-2.9899 6.9679-7.1094 6.9914H94.95c-4.096-.0471-7.0856-2.8719-7.0856-6.9914 0-4.1195 2.9661-6.94431 7.1091-6.99139h.0706Zm-4.096 6.99139c0 2.6365 1.6714 4.2608 4.0489 4.2608 2.3776 0 4.0254-1.6243 4.0489-4.2608-.0235-2.6365-1.6713-4.2607-4.0489-4.2607-2.4011 0-4.0489 1.6242-4.0489 4.2607Zm-31.3083 6.7791h2.919V9.2721h-2.7542l-6.4029 8.8746V9.2721h-2.919v13.5355h2.7778l6.3793-8.8746v8.8746Zm8.0034-13.5355h-2.9425v13.5355h2.9425v-5.4377h5.9556v5.4377h2.9662V9.2721h-2.9662v5.3436h-5.9556V9.2721Zm14.0065 13.5355h-2.9424V9.2721h9.157v2.6836h-6.2146v10.8519Zm51.4823-10.7813h-4.331V9.2721h11.629v2.7542h-4.332v10.7813h-2.966V12.0263Zm15.137-2.7542h-6.051v13.512h2.966v-4.0489h2.802c3.013 0 5.438-1.6242 5.438-4.7551 0-2.8012-1.954-4.708-5.155-4.708Zm2.165 4.7316c0 1.2005-.871 2.095-2.354 2.095h-2.896v-4.143h2.849c1.483 0 2.401.7062 2.401 2.048ZM180 22.8076l-4.802-6.9443 4.614-6.5912h-3.414l-2.895 4.1431-2.848-4.1431h-3.507l4.613 6.6619-4.802 6.8736h3.413l3.084-4.4255 3.036 4.4255H180Zm-13.371-.0001h-3.013l-1.247-3.1073h-5.721l-1.27 3.1073h-3.014l5.768-13.62967h2.73l5.767 13.62967Zm-7.133-10.0045-1.788 4.2372h3.578l-1.79-4.2372Zm-48.962 7.4863c-2.378 0-4.049-1.6243-4.049-4.2608s1.647-4.2607 4.049-4.2607c1.247 0 2.283.3531 3.154 1.1064l1.836-1.8362c-1.247-1.20053-2.919-1.97735-4.943-2.00089h-.071c-4.143.04708-7.109 2.87189-7.109 6.99139s2.99 6.9443 7.086 6.9914h.07c2.025-.0235 3.696-.8003 4.943-2.0009l-1.836-1.8361c-.871.7533-1.883 1.1064-3.13 1.1064Zm8.309-4.2608c0 2.6365 1.671 4.2608 4.049 4.2608 1.248 0 2.283-.3531 3.154-1.1064l1.836 1.8361c-1.247 1.2006-2.918 1.9774-4.943 2.0009h-.071c-4.096-.0471-7.085-2.8719-7.085-6.9914 0-4.1195 2.966-6.94431 7.085-6.99139h.071c2.025.02354 3.696.80036 4.943 2.00089l-1.836 1.8362c-.871-.7533-1.906-1.1064-3.154-1.1064-2.401 0-4.049 1.6242-4.049 4.2607ZM60.0398 31.1647H52.201v3.8606h3.9783c3.2014 0 4.8492 1.3889 4.8492 3.837 0 2.8249-2.0244 4.096-5.3671 4.096H50.459V29.5405h9.5808v1.6242Zm-7.8153 5.4849v4.6609h3.6016c2.2128 0 3.4369-.7533 3.4369-2.4482 0-1.483-1.0593-2.2127-3.3191-2.2127h-3.7194Zm16.7373-7.1562h-1.3889l-5.8614 13.4414h1.789l1.483-3.3898h6.5677l1.483 3.3898h1.8127l-5.8851-13.4414Zm.0942 4.2842 1.8361 4.2373h-5.273l1.8361-4.2373.8004-2.0479.8004 2.0479Zm16.9722 3.1545H78.048v6.0027h-1.7655V29.5169h1.7655v5.7909h7.9802v-5.7909h1.7419v13.4179h-1.7419v-6.0027Zm6.6854-7.4152h-1.7655v13.4179h1.7655v-5.1552l1.1299-1.0359 6.0498 6.1911h2.3307l-6.7327-7.0385 6.2617-6.3794h-2.2599l-6.7795 6.7796v-6.7796Z"/>
</svg>