<svg xmlns="http://www.w3.org/2000/svg" viewBox="0 0 200 50">
	<path class="bg-logo" fill="#215E36" d="M0 0h200v50H0z"/>
	<g fill="#fff">
		<path d="m155.158 24.8838 1.296-3.8865 1.554 3.8865h-2.85Zm-.648 2.0729h4.146l1.037 2.5911c0 .1295.129.3886.129.5182 0 .2591-.259.5181-.777.5181v.9069h5.311v-.8996c-.129 0-.647-.1297-1.036-1.1661l-4.412-11.4077h-3.599l-4.145 11.3934c-.259.5182-.511 1.0364-1.166 1.166v.9067h4.275v-.8923c-.259 0-.777-.1297-.777-.6479-.02-.1826.026-.3664.129-.5182l.907-2.4615-.022-.0071Zm-38.98-2.044 1.439-3.865 1.44 3.865h-2.879Zm-.648 2.0584h4.124l1.037 2.5767c0 .1295.129.3886.129.5182 0 .2591-.259.511-.777.511v.8996h5.283v-.8852c-.13 0-.641-.1296-1.03-1.1588l-4.383-11.3358h-3.598l-4.124 11.3358c-.26.5182-.511 1.0292-1.159 1.1588v.8996h4.253v-.8996c-.259 0-.77-.1296-.77-.6478-.019-.1826.027-.366.13-.5182l.9-2.4471-.015-.0072Z"/>
		<path d="M96.2914 18.0399v.9069h.2591c.5182.1295.6478.5182.6478 1.0364v9.4357c0 .6477-.1296 1.0364-.6478 1.1659h-.2591v.9069h5.1746v-.8997h-.259c-.518-.1295-.648-.5182-.648-1.1659v-3.2388l1.44-1.4395 3.102 5.0381c.129 0 .129.1296.129.2591 0 .2591-.129.5182-.647.5182v.9069h5.815v-.8781c-.281-.0588-.544-.1834-.768-.3635-.224-.1801-.402-.4107-.52-.6729l-4.527-6.9814 2.584-2.4543c.574-.5631 1.286-.9652 2.065-1.1659v-.9141h-5.427v.9069c.389 0 .778.1295.778.3886 0 .1296 0 .2591-.259.5182l-3.75 3.4907v-3.3611c0-.5182.129-.9069.648-1.0364h.259v-.9069h-5.1896Zm-29.9048-.0432v.9285h.2663c.5254.1295.6621.5326.6621 1.058v9.522c0 .5254-.1295.9285-.6621 1.058h-.2663v.9285h5.1605v-.8997h-.2663c-.5326-.1295-.5326-.5254-.5326-1.058v-.9572l5.29-5.29v6.2184c0 .5254-.1296.9285-.6622 1.058h-.2663v.9285h5.1605v-.8997h-.2663c-.5326-.1295-.6622-.5254-.6622-1.058v-9.558c0-.5326.1296-.9285.6622-1.058h.2663v-.9213h-5.1533v.9285h.2663c.5254.1295.6622.5326.6622 1.058v.3958l-5.29 5.2901v-5.6859c0-.5326 0-.9285.5326-1.058h.2663v-.9285h-5.1677Zm14.9992 0v.9285h.2663c.5326.1295.5326.5326.5326 1.058v9.522c0 .5254 0 .9285-.5326 1.058h-.2663v.9285h5.0381v-.8997h-.1296c-.5254-.1295-.6621-.5254-.6621-1.058v-4.3975h5.29v4.3687c0 .5254-.1295.9285-.6621 1.058h-.2663v.9285h5.1604v-.8997h-.3023c-.5254-.1295-.5254-.5254-.5254-1.058v-9.558c0-.5326 0-.9285.5254-1.058h.2663v-.9213h-5.1388v.9285h.2663c.5326.1295.6621.5326.6621 1.058v3.174h-5.29V19.976c0-.5326.1367-.9285.6621-1.058h.1296v-.9213h-5.0237Zm52.0222 5.9522 2.778-3.9657c.159-.3197.405-.5883.709-.7753.304-.1871.654-.285 1.011-.2827v-.9285h-4.908v.9285c.396 0 .928.1295.928.5326-.003.1026-.03.2032-.075.2951-.046.0919-.111.1729-.191.2375l-1.591 2.2456-1.583-2.5119c-.396-.6622.266-.7917.662-.7917v-.9357h-6.067v.9285c.662 0 1.058.5326 1.72 1.4395l2.778 4.232-3.44 5.0381c-.37.4537-.874.7787-1.44.9284v.9285h4.765v-.8997c-.792 0-.929-.3958-.929-.5254 0-.2663.13-.3958.267-.6621l2.116-3.0445 2.116 3.3108c.14.1463.234.3321.266.5326 0 .1295-.13.3958-.792.3958v.9285h5.952v-.9357c-.662-.1295-.928-.6621-1.187-.9284l-3.836-5.6859-.029-.0288Zm5.657-5.9522v.9285h.266c.526.1295.662.5326.662 1.058v9.522c0 .5254-.129.9285-.662 1.058h-.266v.9285h5.16v-.8997h-.266c-.532-.1295-.662-.5254-.662-1.058v-2.0152c4.102-.9285 7.276-2.5119 7.276-5.8154.026-.4692-.053-.9382-.229-1.3737-.177-.4354-.447-.8265-.793-1.1454-1.187-1.1876-2.778-1.1876-3.836-1.1876h-6.65Zm4.232 1.8497h1.058c2.382 0 2.778 1.1948 2.778 1.9865 0 1.8497-1.986 3.174-3.836 3.8362v-5.8227Zm21.772-1.8497v.9285h.266c.533.1295.533.5326.533 1.058v9.522c0 .5254 0 .9285-.533 1.058h-.266v.9285h5.038v-.8997h-.13c-.532-.1295-.662-.5254-.662-1.058v-4.3975h5.29v4.3687c0 .5254-.136.9285-.662 1.058h-.266v.9285h5.16v-.8997h-.266c-.525-.1295-.525-.5254-.525-1.058v-9.558c0-.5326 0-.9285.525-1.058h.266v-.9213h-5.175v.9285h.267c.525.1295.662.5326.662 1.058v3.174h-5.29V19.976c0-.5326.129-.9285.662-1.058h.13v-.9213h-5.024ZM22.044 25.0141c-.009-.0422-.0087-.0859.0006-.128.0093-.0422.0275-.0819.0535-.1163.026-.0346.0591-.0631.0969-.0838.0379-.0206.0798-.0329.1229-.0361.043-.003.0863.0031.1268.0181.0405.0149.0773.0385.108.0689.0305.0304.0544.0671.0697.1074.0153.0404.0218.0835.019.1266v.2088c.2672 4.3581 1.982 8.5022 4.8725 11.7747 2.879 3.2244 6.9382 5.7219 12.1275 7.4133 2.6123-.8259 5.1083-1.9821 7.4276-3.4403 1.8861-1.1791 3.5844-2.6349 5.0381-4.3184h-4.4119c-.058-.0006-.1147-.0178-.1632-.0498-.0485-.0318-.0868-.0771-.1103-.1302l-4.3904-7.9458-6.7007 7.9962c-.0285.0333-.0638.0601-.1035.0787-.0397.0187-.083.0287-.1268.0293h-2.591c-.0545.0001-.1081-.0146-.155-.0425s-.0853-.0679-.1113-.1159l-5.8658-11.163c-.0223-.0676-.0201-.141.0064-.2071.0264-.0661.0754-.1207.1382-.1543.0628-.0335.1355-.0439.2051-.029.0697.0147.1319.0536.1757.1097L33.6748 35.99h2.2672l6.8734-8.2193c.0245-.0287.0537-.0531.0864-.072.069-.0366.1496-.0451.2247-.0236.0751.0214.1391.0712.1783.1388l4.5559 8.1761h4.8654c.0677.0005.1335.0233.1871.0648.031.0239.0569.0538.0762.0878.0194.034.0317.0715.0364.1104.0047.0388.0016.0782-.0091.1159-.0106.0376-.0287.0727-.0531.1033-1.5662 1.9526-3.4464 3.6309-5.5635 4.9662-2.3898 1.5065-4.9636 2.699-7.6579 3.5482-.0587.0179-.1213.0179-.18 0-5.3404-1.7273-9.5292-4.3183-12.4873-7.6147-2.9863-3.3666-4.7599-7.6358-5.0381-12.1275v-.2159l.0072-.0144Zm4.0953-3.3467c.0249.0353.0419.0756.0499.1181.008.0425.0068.0862-.0035.1282-.0104.042-.0296.0813-.0564.1152-.0268.034-.0606.0617-.0991.0815-.0385.0198-.0807.031-.1239.033-.0432.002-.0863-.0052-.1265-.0213-.0401-.0161-.0763-.0405-.1062-.0718-.0299-.0313-.0527-.0686-.0669-.1094l-1.5187-2.9221h-1.5114v2.7853c.0067.0431.004.0872-.0079.1291-.012.042-.0328.0809-.0612.1141-.0283.0331-.0636.0597-.1032.0779-.0397.0183-.0828.0277-.1264.0277-.0436 0-.0867-.0094-.1264-.0277-.0396-.0182-.0749-.0448-.1032-.0779-.0284-.0332-.0493-.0721-.0612-.1141-.0119-.0419-.0146-.086-.0079-.1291v-3.0876c0-.0802.0319-.1571.0885-.2138.0567-.0567.1336-.0885.2138-.0885h1.9865c.0545-.0001.108.0146.155.0424.0468.0279.0853.068.1113.1159l1.605 3.0949Zm9.0901 3.8361c-.0381-.0687-.0475-.1498-.0259-.2253.0216-.0756.0724-.1396.1411-.1777.0687-.0382.1498-.0475.2254-.0259.0755.0216.1395.0723.1777.141l1.4394 2.5479 3.2388-3.6491-2.8141-5.3332H35.323c-.0801 0-.1571-.0318-.2137-.0885-.0567-.0567-.0886-.1336-.0886-.2137v-3.318c0-.0802.0319-.1571.0886-.2138.0566-.0566.1336-.0885.2137-.0885h7.2549c.0526.0005.1042.0147.1496.0412.0454.0265.0832.0644.1095.11l2.4903 4.1312c1.9217-1.9577 3.3611-3.1956 5.0381-3.793 1.677-.5973 3.5986-.5686 6.3768 0v-1.569c-.9149-.3928-1.7383-.9712-2.4183-1.6985-.6752-.7144-1.1969-1.5594-1.533-2.4831H26.5135c-.3283.9327-.8452 1.7878-1.5186 2.5118-.68.7274-1.5034 1.3058-2.4183 1.6986v1.0436h7.2405c.0527-.0003.1046.0136.1501.0402.0456.0266.0832.0649.109.111l3.7354 6.715c.0189.0341.0309.0715.0353.1102.0044.0387.0013.0778-.0094.1152-.0107.0374-.0287.0724-.0529.1029-.0242.0304-.0542.0559-.0882.0748-.034.0189-.0714.0309-.1101.0354-.0387.0045-.0778.0012-.1152-.0095-.0375-.0107-.0725-.0287-.1029-.0529-.0305-.0242-.0559-.0542-.0748-.0882l-3.6563-6.5279h-7.3556c-.0802 0-.1571-.0319-.2138-.0885-.0566-.0567-.0885-.1336-.0885-.2138v-1.569c-.0022-.0605.0137-.1203.0457-.1716.0321-.0514.0789-.0918.1342-.1163.9087-.3562 1.7272-.9092 2.3967-1.6194.6544-.7079 1.1458-1.5505 1.4395-2.46866.0165-.06718.0554-.12669.1104-.16861.0551-.0419.1228-.06369.1919-.06171h26.702c.0639-.00009.1261.02006.1779.05756.0517.03749.0902.09041.11.15117.2909.92585.7824 1.77605 1.4395 2.49025.6734.7122 1.4971 1.2654 2.4111 1.6194.0544.0224.1011.0603.1344.1088.0332.0486.0515.1059.0527.1647 0 .6477.072 1.5978 0 2.2024-.0173.0767-.0638.1436-.1297.1866-.0658.043-.1458.0587-.223.0437-2.8789-.6406-4.779-.7198-6.4128-.1296-1.6338.5902-3.0732 1.8641-5.0381 3.9154l-.072.0575c-.068.0402-.149.052-.2256.0332-.0767-.0188-.143-.0669-.1846-.1339l-2.627-4.2896h-6.7871v2.7062h2.1592c.0545-.0001.108.0145.155.0424.0469.0279.0853.068.1113.1159l2.9869 5.6643c.0386.0521.0594.1151.0594.1799 0 .0648-.0208.1279-.0594.18l-3.6778 4.124-.0792.0648c-.0697.0389-.1521.0486-.2289.027-.0768-.0216-.142-.0727-.1814-.1422l-1.6194-2.9149-.0216-.0216Zm22.067-1.1156c.0067.0431.004.0872-.0079.1291-.012.0421-.0328.0809-.0612.1141-.0283.0331-.0636.0598-.1032.0779-.0397.0183-.0828.0277-.1264.0277-.0436 0-.0867-.0094-.1264-.0277-.0396-.0181-.0748-.0448-.1032-.0779-.0284-.0332-.0492-.072-.0612-.1141-.0119-.0419-.0146-.086-.0079-.1291.0648-2.0296 0-4.088 0-6.1249l-1.5834 2.6127c-.0352.0566-.0882.1001-.1507.1236-.0624.0234-.131.0255-.1948.0059l-.403-.1295c-1.2165-.3298-2.5094-.2332-3.6634.2735-1.2753.5076-2.3947 1.3416-3.246 2.4183.8421 1.3602 1.5258 2.4974 2.1592 3.4906 2.1951 3.6563 3.3179 5.506 4.707 6.3409.3439-.6321.6515-1.2833.9213-1.9505.2959-.7682.5435-1.5543.7413-2.3535.0298-.0645.0812-.1164.1455-.1467.0642-.0304.1371-.0371.2057-.019.0687.018.1288.0596.17.1176.041.0579.0603.1284.0546.1992-.2176.8247-.4868 1.6347-.8061 2.4255-.3177.7811-.6856 1.5408-1.1012 2.2744-.0379.0652-.0987.1139-.1706.1364-.072.0227-.1497.0177-.2181-.0141-1.6769-.8349-2.8213-2.735-5.2108-6.7007-.655-1.0868-1.4035-2.3247-2.224-3.6562-.0331-.0489-.0508-.1065-.0508-.1655 0-.0591.0177-.1167.0508-.1656.9169-1.2469 2.1631-2.2139 3.5987-2.7925 1.297-.5717 2.7528-.6735 4.1168-.2879l.1872.0576 2.0296-3.3252c.0316-.0588.0818-.1056.1428-.133.061-.0272.1293-.0336.1942-.018.0651.0157.123.0524.1648.1044.0419.0521.0654.1166.0668.1834v7.2045l-.036.0143Z"/>
		<path d="M20.0216 23.337h18.9793l-.4966-.8277H20l.0216.8277Zm19.1448.3095H22.1736v.6189l16.6474.4823.6045-.6694-.2591-.4318Zm9.9539.8493 1.6266 2.6918c1.9864.1439 4.2032.8636 6.7655 1.4394.1665-1.1361.1177-2.2934-.144-3.4115-2.7297-.4274-5.4855-.6679-8.2481-.7197Zm1.2523-.6694c.5686.144.5398-1.1588-.4534-1.1803-.2886-.0164-.5754.0544-.8232.2033-.2478.149-.445.369-.5659.6315l.2735.4103c.1727-.1499.386-.245.6129-.2732.2269-.0282.457.0118.661.1148l.2951.0936Zm-23.1393-1.6482h5.3188l-3.3324-5.9809h-6.4775v1.5258h1.4394c.7198 0 .7845.0432 1.1372.7197l1.9721 3.7426-.0576-.0072Z"/>
		<path d="m34.0781 24.9132-5.4411-.1224 5.4843 10.4793h1.5042l7.5932-9.1046 5.0741 9.1046h5.4628v-.7197c-.5254-.072-2.26-1.677-2.8358-2.6198-1.5978-2.5623-3.03-5.1533-4.6926-7.8163l-.3167-.5902.3743-.547c1.6553-2.4039 5.1892-4.1816 8.1473-3.4619l1.7705-2.8789-.6765-.1655c-4.5559-.7989-6.0673.3454-9.4932 3.8649l-.9357.9573-3.102-5.0957h-5.6499v1.2811h1.1012c.8349 0 1.0148.1007 1.4394.8493l3.1668 5.9881-5.1028 5.7579-2.843-5.1029-.0288-.0576Z"/>
	</g>
</svg>