<svg xmlns="http://www.w3.org/2000/svg" viewBox="0 0 200 50">
	<path class="bg-logo" fill="#E77128" d="M0 0h200v50H0z"/>
	<path fill="#fff" d="M68.8875 40.8443h.7625v4.449h-.7625v-3.2472l-2.0503 3.2472h-.7626v-4.449h.7626v3.2471l2.0503-3.2471Zm5.6156 4.449h-.7626v-1.8988h-2.0452v1.8988h-.7626v-4.449h.7626v1.929h2.0452v-1.929h.7626v4.449Zm4.5298-3.8329h-1.4948v3.8329h-.7625v-3.8329h-1.4645v-.6161h3.7168v.6161h.005Zm2.2572 3.9136c-.601 0-1.0959-.197-1.4746-.5959-.3788-.399-.5656-.9242-.5656-1.5908v-.1414c0-.4393.0858-.8383.2525-1.1817.1666-.3433.404-.616.707-.813.303-.1969.6312-.2929.9847-.2929.5808 0 1.0302.1919 1.3483.5707.3182.3787.4798.9241.4798 1.6361v.3182h-3.0148c.0101.4393.1414.7928.3838 1.0655.2474.2727.5555.404.9342.404.2677 0 .4949-.0555.6818-.1666.1868-.1111.3484-.2525.4898-.4343l.4646.3636c-.3636.5757-.9241.8585-1.6715.8585Zm-.0909-3.9895c-.3081 0-.5656.1111-.7727.3333-.207.2222-.3383.5353-.3888.9393h2.227v-.0556c-.0202-.3888-.1262-.6868-.3131-.8988-.1868-.2121-.4393-.3182-.7524-.3182Zm6.4692 1.7321c0 .6767-.1565 1.2221-.4646 1.6362-.308.4141-.7272.6212-1.2574.6212-.5404 0-.9646-.1717-1.2726-.5151v2.1412h-.7625v-6.161h.6968l.0354.4949c.308-.3838.7423-.5757 1.2928-.5757.5353 0 .9595.202 1.2675.606.3131.404.4646.9645.4646 1.6816v.0707Zm-.7625-.0858c0-.5-.1061-.8989-.3232-1.1868-.2121-.2928-.505-.4342-.8787-.4342-.4596 0-.808.202-1.0353.611v2.126c.2273.404.5757.6111 1.0454.6111.3636 0 .6565-.1465.8686-.4343.2171-.2929.3232-.7222.3232-1.2928Zm5.3681 2.2625h-.7626v-3.8229h-2.0502v3.8229h-.7626v-4.449h3.5754v4.449Zm4.9791-2.1767c0 .6767-.1565 1.2221-.4646 1.6362-.308.4141-.7272.6212-1.2574.6212-.5403 0-.9645-.1717-1.2726-.5151v2.1412h-.7625v-6.161h.6969l.0353.4949c.3081-.3838.7424-.5757 1.2928-.5757.5353 0 .9595.202 1.2675.606.3131.404.4646.9645.4646 1.6816v.0707Zm-.7625-.0858c0-.5-.1061-.8989-.3232-1.1868-.2121-.2928-.505-.4342-.8787-.4342-.4595 0-.808.202-1.0352.611v2.126c.2272.404.5757.6111 1.0453.6111.3636 0 .6565-.1465.8686-.4343.2171-.2929.3232-.7222.3232-1.2928Zm1.53-.0051c0-.4343.0859-.8282.2576-1.1766.1717-.3484.409-.6161.7171-.808.303-.1919.6565-.2828 1.0457-.2828.606 0 1.095.2121 1.469.6313.374.4191.561.9796.561 1.6765v.0556c0 .4343-.081.8231-.248 1.1665-.166.3434-.404.6111-.712.803-.308.1919-.661.2878-1.065.2878-.6013 0-1.0911-.2121-1.4648-.6312-.3737-.4192-.5606-.9747-.5606-1.6665v-.0556Zm.7626.0909c0 .4949.1161.8888.3434 1.1868.2272.2979.5353.4494.9194.4494.389 0 .692-.1515.919-.4545.227-.303.343-.7272.343-1.2726 0-.4898-.116-.8837-.348-1.1867-.233-.303-.541-.4545-.924-.4545-.3741 0-.6771.1515-.9094.4495-.2323.2979-.3434.7271-.3434 1.2826Zm7.1158-1.6462h-2.05v3.8229h-.763v-4.449h2.818v.6261h-.005Zm4.418 1.6462c0 .6767-.156 1.2221-.464 1.6362-.308.4141-.728.6212-1.258.6212-.54 0-.964-.1717-1.272-.5151v2.1412h-.763v-6.161h.697l.035.4949c.308-.3838.743-.5757 1.293-.5757.535 0 .96.202 1.268.606.313.404.464.9645.464 1.6816v.0707Zm-.762-.0858c0-.5-.106-.8989-.324-1.1868-.212-.2928-.505-.4342-.878-.4342-.46 0-.808.202-1.035.611v2.126c.227.404.575.6111 1.045.6111.363 0 .656-.1465.868-.4343.218-.2929.324-.7222.324-1.2928Zm3.575 2.3432c-.601 0-1.096-.197-1.474-.5959-.379-.399-.566-.9242-.566-1.5908v-.1414c0-.4393.086-.8383.253-1.1817.166-.3433.404-.616.707-.813.303-.1969.631-.2929.984-.2929.581 0 1.031.1919 1.349.5707.318.3787.479.9241.479 1.6361v.3182h-3.014c.01.4393.141.7928.383 1.0655.248.2727.556.404.935.404.267 0 .495-.0555.681-.1666.187-.1111.349-.2525.49-.4343l.465.3636c-.369.5757-.929.8585-1.672.8585Zm-.096-3.9895c-.308 0-.565.1111-.772.3333-.207.2222-.339.5353-.389.9393h2.227v-.0556c-.02-.3888-.126-.6868-.313-.8988-.182-.2121-.435-.3182-.753-.3182Zm4.495 3.3682c.273 0 .51-.0808.712-.2474.202-.1667.313-.3687.338-.6161h.722c-.015.2525-.101.4999-.262.7272-.162.2272-.379.4141-.647.5504-.267.1364-.555.2071-.858.2071-.606 0-1.086-.202-1.444-.606-.359-.404-.536-.9595-.536-1.6615v-.1262c0-.4343.081-.8181.238-1.1565.156-.3383.389-.6009.686-.7827.298-.1818.652-.2778 1.056-.2778.5 0 .914.1515 1.242.4495.328.2979.505.6868.53 1.1665h-.722c-.02-.2878-.131-.5252-.328-.712-.197-.1869-.439-.2778-.727-.2778-.389 0-.687.1414-.899.4192-.212.2777-.318.6817-.318 1.2069v.1465c0 .5151.106.909.318 1.1867.207.2677.51.404.899.404Zm4.408 0c.273 0 .51-.0808.712-.2474.202-.1667.314-.3687.339-.6161h.722c-.015.2525-.101.4999-.263.7272-.161.2272-.378.4141-.646.5504-.268.1364-.556.2071-.859.2071-.606 0-1.085-.202-1.444-.606-.358-.404-.535-.9595-.535-1.6615v-.1262c0-.4343.081-.8181.237-1.1565.157-.3383.389-.6009.687-.7827.298-.1818.651-.2778 1.055-.2778.5 0 .915.1515 1.243.4495.328.2979.505.6868.53 1.1665h-.722c-.02-.2878-.131-.5252-.328-.712-.197-.1869-.44-.2778-.728-.2778-.388 0-.686.1414-.898.4192-.213.2777-.319.6817-.319 1.2069v.1465c0 .5151.106.909.319 1.1867.207.2677.51.404.898.404Zm4.581-3.6561c.56 0 1.004.1868 1.343.5605.338.3737.505.8686.505 1.4797v.0707c0 .4191-.081.7928-.243 1.1261-.161.3333-.393.5858-.696.7676-.303.1818-.652.2727-1.046.2727-.596 0-1.081-.202-1.444-.6009-.364-.399-.546-.9343-.546-1.6059v-.3687c0-.9342.172-1.6766.521-2.227.348-.5504.858-.8888 1.535-1.01.384-.0707.641-.1515.778-.2525.136-.101.202-.2323.202-.409h.626c0 .3434-.076.611-.233.8029-.156.1919-.404.3283-.742.4091l-.566.1262c-.454.1061-.792.2878-1.02.5403-.227.2525-.373.5909-.444 1.0151.399-.4646.889-.6969 1.47-.6969Zm-.147.6262c-.374 0-.672.1262-.889.3787-.217.2525-.328.601-.328 1.0403v.0657c0 .4747.111.8534.333 1.1312.223.2777.52.4191.894.4191.379 0 .677-.1414.899-.4191.222-.2778.328-.6868.328-1.2272 0-.4191-.111-.7575-.333-1.01-.222-.2525-.525-.3787-.904-.3787Zm5.596 3.5703c-.046-.0859-.081-.2424-.106-.4697-.354.3687-.778.5505-1.268.5505-.439 0-.798-.1263-1.081-.3737-.282-.2475-.419-.5606-.419-.9444 0-.4646.177-.8231.531-1.0807.353-.2575.848-.3838 1.484-.3838h.743v-.3484c0-.2677-.081-.4798-.238-.6363-.156-.1566-.394-.2374-.702-.2374-.272 0-.5.0707-.681.2071-.182.1363-.278.303-.278.4999h-.768c0-.2222.081-.4343.238-.6413.156-.2071.373-.3687.641-.4899.267-.1212.565-.1818.889-.1818.515 0 .914.1263 1.207.3838.292.2576.439.6111.454 1.0605v2.0503c0 .4091.051.7323.157.9747v.0656h-.803v-.005Zm-1.263-.5808c.238 0 .465-.0606.677-.1868.212-.1212.369-.2828.464-.4798v-.914h-.595c-.935 0-1.399.2727-1.399.8181 0 .2373.081.4242.237.5605.162.1364.369.202.616.202Zm6.732.581h-.763v-1.8988h-2.045v1.8988h-.763v-4.449h.763v1.929h2.045v-1.929h.763v4.449Zm2.611-1.8991h-.556v1.8938h-.762v-4.449h.762v1.8836h.5l1.495-1.8836h.919l-1.762 2.1411 1.908 2.3129h-.964l-1.54-1.8988Zm-13.701-27.1437c.308-.3282.581-.6312.869-.9191 1.237-1.2372 2.838-1.6513 4.479-1.929 2.464-.4091 4.914-.3081 7.282.5151 2.995 1.0352 4.737 3.2319 5.454 6.2518.54 2.2674.606 4.5702.106 6.8629-.768 3.5148-2.899 5.8832-6.262 7.0194-4.348 1.4696-8.585 1.1666-12.519-1.3635-2.05-1.318-3.186-3.3329-3.727-5.6408-1.176-5.0095-1.146-10.0241.369-14.963.808-2.6411 2.379-4.79238 4.702-6.32252 1.59-1.05039 3.428-1.48974 5.292-1.70688 2.681-.3131 5.373-.53025 8.06-.7979.429-.04545.863-.1212 1.282-.2222.525-.12119.889.07575 1.01.5656.349 1.40389.359 2.82293-.237 4.15611-.419.9393-1.359 1.37359-2.288 1.60084-1.58.38885-3.186.67165-4.792.93925-1.566.2576-3.166.3434-4.712.6868-2.631.5808-4.11 2.3382-4.368 5.2671Zm11.029 7.878c-.071-.7777-.116-1.5605-.222-2.3331-.066-.4495-.207-.8888-.364-1.318-.555-1.5403-1.772-2.4442-3.267-2.4543-1.682-.0152-2.924.8029-3.479 2.4189-.273.7928-.455 1.6362-.536 2.4745-.166 1.722-.075 3.4441.616 5.0651.581 1.3685 1.652 2.0755 3.157 2.1159 1.555.0404 2.691-.5908 3.348-2.0099.586-1.2574.732-2.5906.747-3.9591Zm-55.4787 6.6002c-.1818.2525-.3535.5202-.5555.7626-1.9291 2.328-4.4591 3.2269-7.4184 3.1007-1.4544-.0606-2.8684-.3131-4.0854-1.1767-1.7221-1.2271-2.6866-2.9542-2.7876-5.0247-.1414-2.9138-.1061-5.8377-.1414-8.7566-.0051-.4141 0-.8232 0-1.2625-.409-.0707-.7928-.1111-1.1665-.202-1.1312-.2828-1.717-1.0554-1.717-2.222 0-.7827 0-1.5705.005-2.3533.0051-.7474.2172-1.01.9696-.9948 2.7472.0454 5.4893.1313 8.2314.1969.4293.0101.6262.2677.6616.6616.0252.3232.0202.6514.0202.9797.0101 3.641.0101 7.282.0303 10.923 0 .4091.0707.8282.1666 1.2272.4343 1.818 2.1816 2.5855 3.9542 1.7069 1.7624-.8737 2.6613-2.3887 2.9643-4.2774.106-.6615.1313-1.3432.1363-2.0199.0152-2.7018.0051-5.4085.0101-8.1103 0-.914.2071-1.111 1.111-1.111 1.7221 0 3.4441-.005 5.1661.0051.7828.005.909.1414.9141.9292.0101 2.3129-.0051 4.6207.0151 6.9336.0303 3.7925.0758 7.585.1212 11.3775.0051.4798.0657.9545.0606 1.4342-.005.5202-.2878.803-.8181.803-1.3281 0-2.6613.0101-3.9894-.0051-.6313-.005-1.106-.3535-1.3029-.9241-.202-.606-.2828-1.2575-.3939-1.8938-.0404-.2171-.0051-.4444-.0051-.6666-.0505-.0202-.106-.0303-.1565-.0404Zm13.8066-12.337c-.5151-.1364-.9494-.2071-1.3534-.3586-.8837-.3333-1.3029-.9645-1.313-1.9038-.005-.8282-.005-1.6564-.005-2.4846 0-.8433.1666-1.0453 1.0403-1.0504 1.5705-.0101 3.136.0404 4.7065.0505 3.6817.0253 7.3677.0101 11.0497.0758 2.489.0454 4.62.8635 5.893 3.1915.682 1.2474.99 2.6058 1.01 4.0097.04 3.3128.02 6.6255.045 9.9383.01 1.1514.081 2.3078.096 3.4592.01.7323-.192.9292-.934.9343-1.525.0101-3.05 0-4.58.005-.637 0-1.162-.2878-1.354-.8484-.247-.7272-.439-1.5099-.449-2.2725-.045-3.444-.02-6.8881-.02-10.3322 0-1.7775-.717-2.4845-2.505-2.4845h-4.126v1.8129c0 4.2925.005 8.59.005 12.8824 0 1.1312-.101 1.2373-1.222 1.2373-1.676 0-3.3581.005-5.0347-.0051-.7979-.005-.9443-.1565-.9494-.9696-.005-4.7318 0-9.4585 0-14.1903v-.6969ZM63.7467 31.0015c.005 2.1362-1.7069 3.8531-3.8531 3.8632-2.1766.0152-3.9037-1.7422-3.8936-3.9591.0101-2.0907 1.7423-3.8228 3.8229-3.8228 2.227-.0051 3.9187 1.6867 3.9238 3.9187Z"/>
</svg>