<svg xmlns="http://www.w3.org/2000/svg" viewBox="0 0 200 50">
	<path class="bg-logo" fill="#0D75D0" d="M0 0h200v50H0z"/>
	<path fill="#fff" d="m36.3112 15.6285 10.4503 17.3351c-3.3355-.5803-7.0553-1.0835-10.5785-1.0835-3.5233 0-7.0553.5032-10.5786 1.0835l10.7068-17.3351Zm0-6.6285 16.0553 26.0025-3.4381-1.0238-12.6172-20.9008-12.8731 20.9008L20 35.0025 36.3112 9ZM20 39.5837c8.9916-4.4617 24.1342-4.1803 32.3665 0v-3.8219c-9.7082-3.566-23.2382-3.4381-32.3665 0v3.8219ZM84.0524 19.2105h.8414l.0005-2.5308h-.5803v-5.7496h-6.9582v4.1869c0 .3856-.0692.6886-.2122.927-.135.2381-.3388.4461-.6226.6357h-.4195v2.5308h.8244v-1.7317h7.1265v1.7317Zm11.9931-1.7149h3.0201c.9049 0 1.5664-.1575 1.9644-.4679.405-.3077.61-.7903.61-1.4334v-.0752h-.858v.0752c0 .3868-.123.6593-.377.8335-.259.1781-.7068.2687-1.331.2687h-3.0198c-.3764 0-.6872-.0327-.9304-.0976-.2001-.0532-.3546-.1284-.4621-.2251-.2431-.2119-.3665-.6293-.3665-1.24v-1.8683c0-.1197.0042-.2316.0126-.3363.0116-.144.0313-.2736.0592-.3891.0603-.2495.1587-.4344.2966-.559.2404-.2245.7084-.3383 1.3906-.3383h3.0198c.6309 0 1.092.1041 1.37.308.227.1793.338.4415.338.8027v.0752h.858v-.0752c0-1.2611-.866-1.9007-2.5744-1.9007h-3.0201c-.9437 0-1.6022.1822-2.0134.5578-.4009.3742-.604.9984-.604 1.8552v1.8683c0 .8749.1953 1.4739.5968 1.8307.3963.3524 1.0761.5308 2.0206.5308Zm82.8805-.0171h.867v-6.5657h-1.49l-5.403 5.8595v-5.8595h-.867v6.5657h1.277l5.459-5.9118h.157v5.9118Zm-8.847 0h.868v-6.5572h-.868v6.5572Zm-8.258 0h4.998c.819 0 1.385-.1457 1.731-.4452.334-.2977.503-.8015.503-1.498 0-.716-.197-1.2297-.584-1.5272-.38-.2918-1.004-.4335-1.906-.4335h-3.874v-2.6618h-.868v6.5657Zm-1.885 0h.867v-6.5657h-.867v2.7812h-5.966v-2.7812h-.868v6.5657h.868v-2.969h5.966v2.969Zm-15.015 0h4.998c.811 0 1.391-.1499 1.721-.4446.339-.2945.504-.7845.504-1.4986 0-.7304-.188-1.2297-.576-1.5277-.388-.2913-1.014-.433-1.913-.433h-3.866v-2.6618h-.868v6.5657Zm-1.885 0h.867v-6.5657h-7.206v4.9722c0 .2989-.075.5123-.23.6513-.11.0955-.263.1437-.454.1437h-.459v.7988h.365c.13 0 .251-.0067.365-.0205.12-.0144.231-.0362.333-.0656.048-.0138.095-.0294.139-.0467.048-.0188.095-.0397.138-.0626.025-.0132.05-.0271.073-.0415.055-.0343.106-.0723.153-.1137.295-.2504.444-.6686.444-1.2432v-4.1561h5.472v5.7496Zm-8.603 0h1.009l-3.659-6.5657h-1.18l-3.658 6.5657h.966l.887-1.6038h4.756l.879 1.6038Zm-8.826 0h.867v-6.5657h-1.49l-5.403 5.8598v-5.8598h-.867v6.5657h1.268l5.469-5.9118h.156v5.9118Zm-14.98 0h.867v-2.653h3.866c.921 0 1.549-.124 1.919-.38.378-.2613.57-.7583.57-1.4781 0-.7415-.193-1.2599-.591-1.5859-.391-.3109-1.033-.4687-1.907-.4687h-4.724v6.5657Zm-4.957 0h.867v-5.7669h3.37v-.7988h-7.581v.7988h3.344v5.7669Zm-18.5208 0h.3142c.5838 0 1.0356-.1202 1.3408-.3553.3087-.2231.7112-.7209 1.2303-1.5218l3.0354-4.6886h-1.0325l-2.8275 4.4432-3.0463-4.4432h-1.0114l3.5593 5.1006c-.1887.2775-.3518.4594-.4854.5408-.0179.0109-.0379.0212-.0598.0306-.0482.0208-.1061.0385-.1736.0526-.1355.0282-.3094.0423-.5208.0423h-.3227v.7988Zm-12.771 0h.8671v-6.5657h-.8671v2.7812h-5.9661v-2.7812h-.8671v6.5657h.8671v-2.969h5.9661v2.969Zm-8.8125 0h.8586l-.0006-6.5657H64.942l-5.4111 5.8598v-5.8598h-.867v6.5657h1.277l5.4598-5.9118h.165v5.9118Zm101.2703-.7988h-4.148v-2.315h4.08c.534 0 .921.0884 1.118.2542.202.1766.299.4849.299.9416 0 .4447-.096.743-.289.8894-.182.1525-.539.2298-1.06.2298Zm-16.9 0h-4.147v-2.3148h4.079c.536 0 .91.0862 1.112.2552.2.1692.297.4767.297.9404 0 .4429-.094.7415-.279.8882-.025.02-.053.0388-.083.0561-.021.0121-.043.0236-.066.0344l-.032.0141-.027.0103c-.029.0112-.059.0215-.092.0312-.028.0085-.059.0161-.09.0235-.18.0411-.403.0614-.672.0614Zm-66.489 0h-5.8278c.1835-.1669.3271-.39.4279-.6651.029-.0743.0542-.1516.076-.2322l.0173-.0679c.0081-.0338.0156-.0684.0225-.1034.0403-.2037.0601-.4268.0601-.6733v-3.2089h5.224v4.9508Zm47.738-5.0754 1.92 3.4716h-3.84l1.92-3.4716Zm-15.612 2.4306h-4.079v-2.3233h4.148c.494 0 .838.0914 1.048.2774.2.1923.301.5211.301.9781 0 .3125-.05.5511-.15.7136-.017.0274-.035.0524-.054.0753-.03.0344-.062.0641-.098.0887-.119.0867-.41.1902-1.116.1902Zm59.7-3.1932h.802c.669 0 1.189-.1373 1.548-.4083.393-.3036.592-.70534.592-1.1941v-.07524h-.867v.07524c0 .19721-.064.36797-.195.52109-.228.25301-.583.37621-1.087.37621h-.784c-.27 0-.499-.0347-.687-.1035-.075-.0273-.143-.05993-.204-.09813-.054-.03321-.102-.07054-.145-.11227-.018-.01676-.034-.0341-.05-.05232-.137-.16135-.204-.33475-.204-.53108v-.07524h-.867v.07524c0 .35298.127.67686.377.9631.38.4241.976.6393 1.771.6393Zm3.159 28.5875h1.485l-5.169-3.5586L180 32.8631h-1.505l-4.658 2.6534h-1.048v-2.6534h-.859v6.5661h.859v-3.1224h1.079l4.564 3.1224Zm-37.649 0h.859v-6.5661h-.859v2.7812h-5.923v-2.7812h-.859v6.5661h.859v-2.969h5.923v2.969Zm-37.77 0h1l-3.632-6.5661h-1.172l-3.6323 6.5661h.9655l.8789-1.6039h4.7219l.87 1.6039Zm-44.3062 0h4.9549c.8057 0 1.3823-.1499 1.7134-.4459.3328-.2968.4943-.7838.4943-1.4895 0-.7359-.1881-1.2382-.5747-1.535-.3666-.2881-1.0022-.4341-1.8892-.4341h-3.8404v-1.8625h5.7245v-.7991h-6.5828v6.5661Zm4.972-.7989h-4.1134v-2.3065h4.0451c.2835 0 .5208.0226.7107.0673.1735.0411.3072.1008.3998.1787.1953.1713.2901.4793.2901.9414 0 .4485-.0938.75-.2786.8964-.1866.1478-.5408.2227-1.0537.2227Zm34.2084-1.6041 1.9033-3.471 1.9035 3.471h-3.8068Zm-36.7931-8.517h2.9944c.884 0 1.5304-.1545 1.9226-.4587.3874-.3016.5838-.7668.5838-1.3822v-.0327h-.7728v.0327c0 .397-.1303.6865-.387.8605-.266.1828-.7163.2757-1.338.2757h-2.9859c-.7008 0-1.1626-.1088-1.4118-.3333-.2564-.2234-.3813-.6369-.3813-1.2638v-1.8427c0-.6408.1286-1.0775.3822-1.2985.246-.2295.7076-.3409 1.4109-.3409h2.9859c.6445 0 1.1086.1037 1.3795.3089.229.1719.3452.4476.3452.8185v.0326h.7728v-.0326c0-1.2162-.8433-1.8325-2.5064-1.8325h-2.9944c-.908 0-1.5671.1807-1.9587.5375-.3917.366-.5904.974-.5904 1.807v1.8427c0 .8473.1962 1.4469.5823 1.7814.3798.3453 1.0416.5204 1.9671.5204Zm117.8829-.0173h.773v-6.4117h-1.412l-5.4 5.8521h-.013v-5.8521h-.773v6.4117h1.198l5.409-5.8519h.218v5.8519Zm-9.333 0h.774v-6.4032h-.774v6.4032Zm-8.173 0h4.904c.798 0 1.362-.1461 1.676-.4341.325-.2807.489-.7653.489-1.4407 0-.703-.188-1.2023-.558-1.4845-.373-.2862-.982-.425-1.863-.425h-3.875v-2.6274h-.773v6.4117Zm-2.439 0h.773v-6.4117h-.773v2.7468h-5.992v-2.7468h-.773v6.4117h.773v-2.9428h5.992v2.9428Zm-15.442 0h4.896c.794 0 1.362-.1461 1.685-.4341.318-.2757.48-.7603.48-1.4407 0-.7071-.185-1.2065-.55-1.4845-.373-.2862-.985-.425-1.871-.425h-3.867v-2.6274h-.773v6.4117Zm-2.439 0h.773v-6.4117h-7.052v4.8775c0 .3039-.082.5282-.245.6672-.114.1061-.281.1619-.482.1619h-.399v.7048h.314c.521 0 .913-.1146 1.165-.3406.278-.244.42-.6454.42-1.193v-4.156h5.506v5.6899Zm-14.887 0h6.114v-.7045h-5.34V25.532h5.203v-.7047h-5.203v-2.0424h5.323v-.7047h-6.097v6.4117Zm-5.46 0h.774v-5.707h3.335v-.7047h-7.419v.7047h3.31v5.707Zm-5.037 0h.902l-3.576-6.4117h-1.122l-3.568 6.4117h.859l.871-1.5953h4.764l.87 1.5953Zm-14.405 0h.773v-5.707h5.136v-.7047h-5.909v6.4117Zm-7.9508 0h6.1133l.0003-.7045h-5.3404V25.532h5.2038v-.7047h-5.2038v-2.0424h5.3149v-.7047h-6.0881v6.4117Zm-8.5995 0h.7732l-.0003-2.6187h3.8748c.8697 0 1.4988-.1252 1.8698-.3726.366-.2528.5514-.7327.5514-1.426 0-.7151-.1935-1.2318-.5752-1.5354-.3831-.3047-1.0097-.459-1.8629-.459h-4.6308v6.4117Zm-7.8907 0h6.1133l.0003-.7045h-5.3405V25.532h5.2041v-.7047h-5.2041v-2.0424h5.3233v-.7047H76.921v6.4117Zm-8.5995 0h4.9034c.7949 0 1.362-.1461 1.6851-.4338.3187-.2757.4804-.7606.4804-1.4407 0-.7095-.1881-1.2088-.5586-1.4845-.3724-.2863-.9815-.425-1.8623-.425h-3.8748v-1.923h5.7157v-.7047h-6.4889v6.4117Zm98.0705-.7048h-4.148v-2.3747h4.08c.54 0 .921.0894 1.131.2654.207.174.312.4958.312.9561 0 .4611-.101.7682-.303.9131-.201.1593-.562.2401-1.072.2401Zm-17.881 0h-4.148v-2.3747h4.08c.298 0 .547.0273.746.0811.162.0438.29.1052.385.1843.204.1722.304.4849.304.9561 0 .459-.099.7659-.295.9131-.201.1593-.562.2401-1.072.2401Zm-75.2689 0h-4.1477v-2.3747h4.0794c.5387 0 .9327.0917 1.1394.2654.2044.1719.3039.4846.3039.9561 0 .4593-.0989.7662-.2946.9131-.2016.1593-.5649.2401-1.0804.2401Zm41.2529-1.5864h-3.943l1.976-3.5604 1.967 3.5604Zm-24.8307-1.0325h-4.0794l.0003-2.3833h4.1477c.4951 0 .8523.0976 1.0616.2898.1227.1132.2098.2769.2607.4891.0353.1472.0529.3177.0529.5108 0 .4455-.1045.7468-.3104.8949-.1096.0758-.2829.1302-.5177.1628-.1724.0238-.3778.0359-.6157.0359Zm85.6517-3.245h.793c.657 0 1.149-.1305 1.504-.3982.382-.2784.576-.6631.576-1.1439v-.0326h-.773v.0326c0 .1975-.069.38-.205.542-.146.1719-.36.2877-.64.3456-.141.0291-.297.0438-.47.0438h-.776c-.524 0-.887-.1249-1.11-.3809-.139-.1649-.206-.3451-.206-.5508v-.0326h-.773v.0326c0 .3415.12.644.366.9255.363.4153.924.6169 1.714.6169Z"/>
</svg>