<svg xmlns="http://www.w3.org/2000/svg" viewBox="0 0 200 50">
	<path class="bg-logo" fill="#9CC549" d="M0 0h200v50H0z"/>
	<g fill="#fff">
		<path d="M79.3018 24.4769h4.2846l6.5691-12.9346h.0202c-.153.9009-.2278 1.8137-.2231 2.7277v10.2069h2.9924V9h-4.2846l-6.5508 12.9148h-.0407c.073-.4275.1282-.8576.166-1.2894.0425-.4853.063-.9718.0612-1.4589V9h-2.9943v15.4769Zm3.9561 11.5093h-3.2723v4.4175h3.2865c.4009.0037.7564-.0348 1.067-.1167.3366-.0893.6199-.2296.8501-.4219.4421-.3686.6633-.9153.6633-1.6432.0125-.2978-.0381-.5956-.1486-.8736l-.0307-.0733c-.0192-.0434-.0397-.0856-.0617-.1278-.0292-.0565-.0611-.1111-.0953-.1638-.0868-.1353-.1889-.2606-.3046-.3742-.4276-.4058-1.0788-.613-1.9537-.623ZM83.278 41h-3.9762v-9.9245h6.6137v.605h-5.9299v3.7113h3.2723c1.1293.0105 1.9642.2631 2.5053.7582.5411.4946.8116 1.1765.8116 2.0459.0041.945-.2832 1.6487-.8622 2.111-.5789.4623-1.3906.6931-2.4346.6931Zm10.2531-3.81-2.0285-5.5381-2.039 5.5381h4.0675ZM88.0253 41h-.7567l3.7898-9.9146h.8541L95.7184 41h-.7548l-1.2172-3.2155h-4.504L88.0253 41Zm9.0642 0h.6816v-4.9573h5.8149V41h.685v-9.9146h-.685v4.3628h-5.8149v-4.3628h-.6816V41Zm10.4885 0h-.686v-9.9146h.686v5.5238l5.693-5.5238h.919l-4.182 4.0321L114.488 41h-.874l-4.088-5.4171-1.948 1.8771V41Zm-5.465-16.5231h-2.9948V11.5218h-4.5747V9h12.1445v2.5218h-4.575v12.9551Zm9.932.1874h.069c1.687 0 3.015-.7657 4.26-3.5543L121.783 9h-3.534l-3.014 7.7695c-.256.7254-.444 1.4725-.563 2.232h-.042c-.019-.2904-.053-.5796-.099-.8663-.02-.1197-.042-.2395-.066-.358l-.036-.1651c-.057-.2556-.125-.5094-.205-.7595L111.096 9h-3.597l5.364 11.4063c.114.2184.178.4586.188.7037 0 .7216-.728 1.0325-1.768 1.0325-.144.0013-.287-.0037-.429-.0142-.097-.0075-.195-.018-.292-.0311-.114-.0155-.227-.0347-.341-.0577v2.5199c.606.0739 1.216.1086 1.824.1049Zm17.703-13.1425h-3.619v5.3426h3.619c2.037 0 2.808-.4734 2.808-2.5199 0-2.2177-.779-2.8227-2.808-2.8227Zm-3.619 12.9551h-2.994V9h6.633c3.802 0 5.823.84887 5.823 5.0845 0 4.2356-1.457 5.3104-5.552 5.3104h-3.91v5.082Zm15.402.1874h.069c1.684 0 3.014-.7657 4.26-3.5543L151.269 9h-3.534l-3.007 7.7695c-.123.3487-.23.7024-.322 1.0598-.098.3866-.178.7775-.239 1.1722h-.047c-.053-.7273-.194-1.4452-.42-2.1389L140.582 9h-3.597l5.364 11.4063c.112.2184.177.4586.188.7037 0 .7216-.729 1.0325-1.768 1.0325-.357.0031-.713-.0316-1.062-.103v2.5199c.606.0739 1.216.1086 1.824.1049Zm14.084-.1874h-2.995V9h13.248v15.4769h-2.997V11.5218h-7.256v12.9551Z"/>
		<path d="M67.0073 13.6069V9.24219H35V40.8936h32.0073V25.3057c-1.767-9.072-9.7378-7.9309-9.7378-7.9309H43.4619v10.8481c.0446.4274.5477 4.1994 4.24 4.1994l11.1419-.0222v-4.3425H47.8561v-6.3161h9.4864c4.2441-.2944 5.2747 3.5683 5.2747 3.5683v11.2211h-23.225v-22.924h27.6151Z"/>
	</g>
</svg>