<svg xmlns="http://www.w3.org/2000/svg" viewBox="0 0 200 50">
	<path class="bg-logo" fill="#A0216D" d="M0 0h200v50H0z"/>
	<path fill="#FDB516" d="m87.8008 32.4387-.4031.3194v1.6606c0 1.3626-.4456 2.0226-1.3579 2.0226-.9124 0-1.3792-.6813-1.3792-2.0226v-5.578c0-1.3413.4456-2.0225 1.3792-2.0225.6789 0 1.1033.4045 1.273 1.1709.0637.2342.0849.8942.0849 1.98l2.3339-2.4271c.488-.4896.9548-.7451 1.4003-.7451.3183 0 .5941.1064.8063.298.2334.1916.3395.4471.3395.7665 0 .4471-.2334.8942-.7002 1.3413l-1.8459 1.7244 2.5461 3.0232c.3607.4258.5517.8942.5517 1.3626 0 .3406-.1274.5961-.4032.7877-.2546.1916-.5517.2981-.8911.2981-.5517 0-1.0185-.2768-1.4216-.8303l-2.3127-3.1297ZM100.043 29.2028h-2.0366c-.4243 0-.6365.2129-.6365.6387v4.3858c0 .7026-.191 1.2348-.5729 1.618-.3819.3832-.9123.5749-1.6125.5749-.6153 0-1.0184-.0426-1.2518-.1278-.4244-.1703-.6366-.4896-.6366-.9793 0-.4897.1486-.7877.4668-.9368.2122-.1064.5729-.1703 1.1033-.1703v-4.3645c0-1.1283.2546-1.9161.7426-2.3631.4668-.4259 1.2519-.66 2.3764-.66h3.3948c.552 0 .934.1916 1.124.5748.149.2768.213.7026.213 1.2987v5.6844c0 1.3413-.446 2.0225-1.358 2.0225-.531 0-.913-.2128-1.125-.6386-.148-.3194-.212-.7665-.212-1.3839v-5.1735h.021ZM108.615 32.4372h-1.294v1.98c0 1.3412-.446 2.0012-1.358 2.0012-.912 0-1.379-.6812-1.379-2.0225v-5.6206c0-1.3413.467-2.0013 1.379-2.0013.912 0 1.358.66 1.358 2.0013v1.8522h1.315c.149-1.1922.616-2.1716 1.379-2.8954.764-.7239 1.74-1.1071 2.928-1.1071 1.38 0 2.462.4897 3.268 1.469.743.8942 1.124 2.0651 1.124 3.4916 0 1.4051-.381 2.5548-1.124 3.4276-.785.9156-1.867 1.384-3.246 1.384-1.189 0-2.186-.362-2.95-1.0859-.785-.7025-1.251-1.6606-1.4-2.8741Zm2.758-.8516c0 1.5542.51 2.3206 1.549 2.3206 1.04 0 1.57-.7664 1.57-2.3206 0-.6174-.106-1.1497-.318-1.5755-.276-.5535-.679-.809-1.252-.809s-.976.2768-1.252.809c-.191.4258-.297.9368-.297 1.5755ZM121.897 32.4387l-.403.3194v1.6606c0 1.3626-.446 2.0226-1.358 2.0226-.912 0-1.379-.6813-1.379-2.0226v-5.578c0-1.3413.467-2.0225 1.379-2.0225.679 0 1.103.4045 1.273 1.1709.064.2342.085.8942.085 1.98l2.334-2.4271c.488-.4896.955-.7451 1.4-.7451.318 0 .594.1064.806.298.234.1916.34.4471.34.7665 0 .4471-.234.8942-.7 1.3413l-1.846 1.7244 2.546 3.0232c.361.4258.552.8942.552 1.3626 0 .3406-.128.5961-.404.7877-.254.1916-.551.2981-.891.2981-.551 0-1.018-.2768-1.421-.8303l-2.313-3.1297ZM129.323 36.3988c-1.04 0-1.549-.596-1.549-1.7883v-6.0038c0-1.1922.531-1.7883 1.549-1.7883h2.461c1.231 0 2.143.1703 2.716.4896.785.4258 1.188 1.2136 1.188 2.3419 0 .8091-.382 1.4052-1.124 1.8097.933.511 1.4 1.1922 1.4 2.0651 0 1.1497-.424 1.9374-1.273 2.3632-.615.3193-1.549.4897-2.801.4897h-2.567v.0212Zm1.167-7.7921v2.1077h1.103c.446 0 .764-.0638.955-.1703.276-.1703.403-.4471.403-.8729 0-.7025-.488-1.0645-1.464-1.0645h-.997Zm0 3.8961v2.1077h1.103c1.04 0 1.549-.3406 1.549-1.0432 0-.4471-.17-.7451-.488-.9155-.212-.1064-.573-.149-1.061-.149h-1.103ZM143.348 35.4633c-.573.7026-1.337 1.0432-2.292 1.0432-1.23 0-2.249-.5109-3.055-1.5328-.743-.9581-1.103-2.0652-1.103-3.3426 0-1.2987.382-2.4058 1.145-3.3638.807-1.022 1.846-1.5329 3.098-1.5329.913 0 1.655.3406 2.207 1.0006.318-.5748.742-.8729 1.294-.8729.912 0 1.358.66 1.358 2.0013v5.578c0 1.3412-.446 2.0225-1.358 2.0225-.594-.0213-1.018-.3619-1.294-1.0006Zm-3.607-3.8748c0 .5961.148 1.1284.424 1.5329.318.4684.764.7238 1.337.7238s1.018-.2341 1.337-.7238c.275-.4258.403-.9368.403-1.5329s-.128-1.1071-.403-1.5329c-.319-.4684-.764-.7026-1.337-.7026-.552 0-.997.2342-1.337.7026-.297.4258-.424.9368-.424 1.5329Z"/>
	<g fill="#fff">
		<path d="M76.9587 12.8526c0 .4684-.3819.8304-.8275.8304-.4668 0-.8275-.3833-.8275-.8304 0-.4683.3819-.8303.8275-.8303.4456-.0213.8275.362.8275.8303Z"/>
		<path d="m83.7058 10.2547-9.0386-3.02323c-.0425-.76644-.2758-1.57546-1.0397-2.00126-.8487-.46838-2.249-.51096-6.0045 2.74641-2.4824 2.15028-5.1558 5.06708-7.2988 7.98378-7.32 9.9211-8.3384 18.863-2.7794 24.4835C61.2578 44.2122 67.9413 45 72.8637 45c3.3524 0 5.8772-.3619 6.1318-.4045.5092-.0639.9336-.4045 1.1033-.8942l1.2943-3.3212c.2758-.7239-.0637-1.5542-.8063-1.8523-.7214-.298-1.5489.0639-1.8246.8091l-.976 2.5335c-3.0129.3193-13.7489 1.1283-18.247-3.449-2.7795-2.8316-3.4584-6.6425-1.9944-11.3476 2.6309-8.4735 10.9694-16.6914 14.2368-18.75654 1.1246-.83031 2.1854.0213.9548 1.25612l8.2535 2.76772c.0425 0 .1062.0213.1486.0426.1697.0851.297.2767.297.4896v.0852c0 .0425-.0212.1065-.0424.149-.297.9581-.6153 1.6181-.785 1.8735-.3395.511-1.2731 1.2136-2.1643 1.6181-1.4215.6174-3.0552 1.2987-3.8827 2.8315-1.7186 3.1723-.0637 9.7935 1.1033 13.5618.0212.0639.0849.2768.0849.2981 0 .2341-.191.4471-.4244.4471H71.9089l-.9547-5.2374c-.1486-.7664-.87-1.2774-1.6338-1.1496-.7638.149-1.273.8941-1.1246 1.6606l1.167 6.2593c.1274.6813.7002 1.1709 1.3792 1.1709h6.9593c.4668 0 .8911-.2342 1.1669-.6174.2546-.3832.2971-.7878.1697-1.32-.1697-.6813-.6789-2.2567-1.0608-3.6618-1.0821-3.8536-1.8672-8.2819-.9336-10.0277.3395-.6387 1.4428-1.1071 2.5037-1.5542 1.2518-.5322 2.5036-1.4264 3.3311-2.5335.5516-.7238 1.2943-2.8315 1.7823-4.7476.1485-.7239-.2547-1.4904-.9548-1.7245Z"/>
	</g>
</svg>