<svg xmlns="http://www.w3.org/2000/svg" viewBox="0 0 200 50">
	<path class="bg-logo" fill="#366AF3" d="M0 0h200v50H0z"/>
	<path fill="#fff" d="M39.3139 30.5706c-.702-1.1454-1.053-2.4754-1.053-3.9903 0-1.5148.3417-2.8264 1.0253-3.9348.6835-1.1269 1.6256-1.9766 2.8264-2.5493 1.1638-.5727 2.4385-.859 3.824-.859 1.4224 0 2.7063.2863 3.8516.859 1.1639.5727 2.0783 1.404 2.7433 2.4939.6835 1.1269 1.0253 2.457 1.0253 3.9902 0 1.5149-.3418 2.8357-1.0253 3.9626-.665 1.1268-1.5887 1.9951-2.771 2.6047-1.1823.6096-2.4569.9144-3.8239.9144-1.3671 0-2.6417-.3048-3.824-.9144-1.1823-.6096-2.1152-1.4686-2.7987-2.577Zm62.0981 1.524v6.5396h-3.3807V19.6806h3.1317v1.9119c.498-.7574 1.154-1.33 1.967-1.718.813-.3879 1.838-.5819 3.076-.5819 1.311 0 2.466.3048 3.464.9144.997.5912 1.773 1.441 2.327 2.5494.536 1.1638.804 2.4477.804 3.8516 0 1.4594-.277 2.7526-.831 3.8795-.536 1.1083-1.294 1.9674-2.273 2.577-.443.314-.979.5449-1.607.6927-.609.1663-1.238.2494-1.884.2494-1.201 0-2.198-.1385-2.993-.4156-.776-.2771-1.376-.7759-1.801-1.4964Zm-13.3562 2.9927c.1662-.2032.3232-.508.471-.9144l-5.3203-14.4923h3.5469c1.3485 3.7131 2.4939 7.1122 3.436 10.1972.9791-3.3806 2.0875-6.7797 3.3252-10.1972h3.3806l-5.154 14.2706c-.4434 1.2008-.8683 2.106-1.2747 2.7156-.4064.6096-.9052 1.0714-1.4963 1.3855-.6281.3325-1.4502.4988-2.4662.4988-.5912 0-.9052-.0093-.9421-.0277l-1.1362-2.6602c.3141.0739.7482.1108 1.3024.1108 1.1269 0 1.9028-.2955 2.3277-.8867ZM42.7499 23.172c-.7205.7759-1.0807 1.9028-1.0807 3.3806 0 1.5333.3602 2.7064 1.0807 3.5192.7389.7944 1.7734 1.1915 3.1035 1.1915 1.3486 0 2.3923-.4064 3.1313-1.2192.7389-.8128 1.1083-1.9767 1.1083-3.4915 0-1.4778-.3694-2.6047-1.1083-3.3806-.739-.7759-1.7827-1.1638-3.1313-1.1638-1.3485 0-2.383.3879-3.1035 1.1638Zm59.6871.1108c-.702.7944-1.071 1.8936-1.108 3.2975.037 1.404.406 2.5216 1.108 3.3529.721.8129 1.709 1.2193 2.965 1.2193 1.256 0 2.236-.4064 2.938-1.2193.702-.8313 1.062-1.9489 1.08-3.3529-.018-1.3855-.378-2.4846-1.08-3.2975-.702-.8128-1.682-1.2192-2.938-1.2192-1.256 0-2.244.4064-2.965 1.2192Zm-73.2927-1.4963L35.0188 14h3.9903l-6.8444 9.3106 7.1769 10.3635h-4.018l-6.1793-8.8395h-2.965v8.8395h-3.5191V17.2975H20L21.7734 14h4.4059v7.7865h2.965Zm29.5666 5.9854v5.9022H55.358V19.6806h3.3529v5.3203h5.7359v-5.3203h3.3252v13.9935h-3.3252v-5.9022h-5.7359Zm15.2405 5.9022V22.3407h-4.7107v-2.6601h12.8851v2.6601h-4.7661v11.3334h-3.4083Zm58.2386-.7205c-1.016.4803-2.133.7205-3.352.7205h-8.23V14h13.356v2.1337h-10.807v5.8745h5.681c1.293 0 2.42.2401 3.38.7205.961.4618 1.709 1.1268 2.245 1.9951.517.8682.776 1.912.776 3.1312 0 2.42-1.016 4.1196-3.049 5.0986Zm-3.74-8.8117h-5.293v7.3985h5.293c1.33 0 2.373-.3233 3.131-.9698.757-.6466 1.136-1.5518 1.136-2.7156 0-1.1638-.379-2.069-1.136-2.7156-.758-.665-1.801-.9975-3.131-.9975Zm19.385-3.5746c.997.8497 1.496 2.032 1.496 3.5468v9.56h-2.161v-1.8843c-.499.739-1.164 1.3116-1.995 1.718-.832.388-1.792.582-2.882.582-1.552 0-2.771-.351-3.658-1.053-.868-.702-1.302-1.6903-1.302-2.965v-.1386c0-1.4039.489-2.4661 1.468-3.1866.998-.7389 2.531-1.1638 4.6-1.2747l3.658-.2493v-.9422c0-.9975-.286-1.7457-.859-2.2445-.573-.5173-1.404-.7759-2.494-.7759-.905 0-1.727.1848-2.466.5542-.721.351-1.459.9422-2.217 1.7735l-1.524-1.3855c1.607-1.9397 3.658-2.9096 6.152-2.9096 1.792 0 3.186.4249 4.184 1.2747Zm-1.33 9.837c.369-.5727.554-1.21.554-1.912V26.996l-3.491.1662c-1.441.0739-2.457.3141-3.049.7205-.591.4064-.886 1.053-.886 1.9397v.1386c0 .7204.268 1.2746.803 1.6626.555.3879 1.33.5819 2.328.5819.794 0 1.524-.1571 2.189-.4711.665-.314 1.182-.7574 1.552-1.3301Zm15.608-10.7237h2.383v13.9935h-2.383v-6.207h-7.01v6.207h-2.384V19.6806h2.384v5.8468h7.01v-5.8468Zm12.602 6.7335 5.681 7.26h-2.716l-4.905-6.1793h-2.41v6.1793h-2.383V19.6806h2.383v5.8745h2.438l4.6-5.8745h2.549l-5.237 6.7335Z"/>
</svg>