<svg xmlns="http://www.w3.org/2000/svg" viewBox="0 0 200 50">
	<path class="bg-logo" fill="#366AF3" d="M0 0h200v50H0z"/>
	<path fill="#fff" d="M38.0811 26.4565c0 1.4999.3475 2.8168 1.0426 3.9509.6768 1.0975 1.6005 1.948 2.7711 2.5517 1.1707.6036 2.4328.9054 3.7864.9054 1.3535 0 2.6156-.3018 3.7863-.9054 1.1706-.6037 2.0852-1.4634 2.7437-2.5791.6768-1.1158 1.0152-2.4236 1.0152-3.9235 0-1.5182-.3384-2.8352-1.0152-3.951-.6585-1.0792-1.5639-1.9023-2.7163-2.4693-1.1341-.5671-2.4053-.8506-3.8137-.8506-1.3719 0-2.634.2835-3.7864.8506-1.1889.567-2.1218 1.4084-2.7986 2.5242-.6767 1.0975-1.0151 2.3962-1.0151 3.8961ZM100.61 38.3916v-6.4752c.421.7134 1.015 1.2073 1.784 1.4816.786.2744 1.774.4116 2.963.4116.64 0 1.262-.0823 1.866-.2469.622-.1464 1.152-.375 1.591-.686.969-.6036 1.719-1.4541 2.25-2.5516.549-1.1158.823-2.3962.823-3.8412 0-1.3902-.265-2.6614-.796-3.8138-.548-1.0975-1.317-1.9389-2.304-2.5242-.988-.6036-2.131-.9054-3.43-.9054-1.226 0-2.241.1921-3.046.5762-.804.3841-1.454.9511-1.948 1.7011v-1.8932h-3.1001v18.767h3.3471Zm-12.758-4.4174c-.1463.4024-.3018.7042-.4664.9055-.4207.5853-1.189.8779-2.3047.8779-.5488 0-.9786-.0365-1.2896-.1097l1.1249 2.634c.0366.0182.3476.0274.9329.0274 1.006 0 1.82-.1646 2.4419-.4939.5853-.3109 1.0792-.7682 1.4816-1.3718.4024-.6036.8231-1.4999 1.2621-2.6889l5.1033-14.1301h-3.3473c-1.2255 3.3839-2.323 6.7495-3.2925 10.0969-.9328-3.0547-2.0669-6.4203-3.4022-10.0969h-3.5119l5.2679 14.3496ZM41.4558 26.429c0-1.4633.3567-2.5791 1.0701-3.3473.7133-.7683 1.7377-1.1524 3.0729-1.1524 1.3353 0 2.3688.3841 3.1004 1.1524.7317.7682 1.0975 1.884 1.0975 3.3473 0 1.4999-.3658 2.6523-1.0975 3.4571-.7316.8048-1.7651 1.2072-3.1004 1.2072-1.3169 0-2.3413-.3932-3.0729-1.1798-.7134-.8048-1.0701-1.9663-1.0701-3.4845Zm59.0722.0275c.037-1.3902.402-2.4785 1.097-3.2651.714-.8048 1.692-1.2072 2.936-1.2072s2.213.4024 2.909 1.2072c.695.8049 1.051 1.8932 1.07 3.2651-.019 1.3901-.375 2.4967-1.07 3.3198-.696.8049-1.665 1.2073-2.909 1.2073-1.244 0-2.222-.4024-2.936-1.2073-.695-.8231-1.06-1.9297-1.097-3.3198ZM34.8709 14l-5.8166 7.7098h-2.9358V14H21.756L20 17.265h2.634v16.2154h3.4845v-8.7525h2.9358l6.1184 8.7525h3.9784l-7.1062-10.2615L38.8219 14h-3.951Zm23.4588 19.4804v-5.8441h5.6794v5.8441h3.2925V19.6246h-3.2925v5.2679h-5.6794v-5.2679h-3.3199v13.8558h3.3199Zm15.0904-11.2218v11.2218h3.3748V22.2586h4.7191v-2.634H68.7558v2.634h4.6643ZM128.126 33.4804c1.207 0 2.314-.2378 3.32-.7134 2.012-.9694 3.018-2.6523 3.018-5.0484 0-1.2073-.256-2.2407-.768-3.1004-.531-.8597-1.271-1.5182-2.223-1.9755-.951-.4756-2.066-.7134-3.347-.7134h-5.624v-5.8166h10.7V14h-13.225v19.4804h8.149Zm-5.624-9.4384h5.24c1.317 0 2.35.3292 3.1.9877.75.6402 1.125 1.5365 1.125 2.6889 0 1.1523-.375 2.0486-1.125 2.6888-.75.6402-1.783.9603-3.1.9603h-5.24V24.042Zm26.19-.0274c0-1.4999-.494-2.6706-1.481-3.512-.988-.8414-2.369-1.2621-4.143-1.2621-2.47 0-4.5.9603-6.091 2.8809l1.509 1.3718c.75-.8231 1.481-1.4084 2.195-1.7559.731-.3659 1.545-.5488 2.442-.5488 1.079 0 1.902.2561 2.469.7683.567.4938.85 1.2346.85 2.2224v.9328l-3.621.247c-2.049.1097-3.567.5304-4.555 1.2621-.969.7133-1.454 1.7651-1.454 3.1552v.1372c0 1.2621.43 2.2407 1.29 2.9358.878.6951 2.085 1.0426 3.621 1.0426 1.079 0 2.031-.192 2.854-.5762.823-.4024 1.481-.9694 1.975-1.7011v1.8658h2.14v-9.4658Zm-2.25 4.335c0 .6951-.182 1.3261-.548 1.8932-.366.567-.878 1.006-1.537 1.317-.658.3109-1.381.4664-2.167.4664-.988 0-1.756-.1921-2.305-.5762-.53-.3841-.796-.9328-.796-1.6462v-.1372c0-.878.293-1.5182.878-1.9206.586-.4024 1.592-.6402 3.018-.7134l3.457-.1646v1.4816Zm17.541-8.725h-2.36v5.7892h-6.942v-5.7892h-2.359v13.8558h2.359v-6.146h6.942v6.146h2.36V19.6246ZM180 33.4804l-5.625-7.1886 5.186-6.6672h-2.525l-4.553 5.8167h-2.416v-5.8167h-2.36v13.8558h2.36v-6.1185h2.388l4.855 6.1185H180Z"/>
</svg>