<svg xmlns="http://www.w3.org/2000/svg" viewBox="0 0 200 50">
	<path class="bg-logo" fill="#196D1F" d="M0 0h200v50H0z"/>
	<path fill="#fff" d="M57.8806 31.5305h5.5895v.9l-4.541.0003v2.1171h2.3068c.8826 0 1.5521.1832 2.0116.551.4595.3679.6884.8969.6884 1.5869 0 .034-.0005.0677-.0016.101-.0048.1443-.0198.2817-.0451.412-.0935.4815-.3271.868-.7002 1.1593-.4973.3885-1.2079.5827-2.1331.5827h-3.1753v-7.4103Zm3.1343 6.5716c.6063 0 1.0689-.1168 1.3863-.3489.2231-.1632.3682-.3811.4347-.653.0222-.0907.0356-.1873.0402-.29.0013-.0273.0019-.055.0019-.0831 0-.8969-.6205-1.3437-1.8632-1.3437h-2.0857v2.7203h2.0857l.0001-.0016Zm5.8153.8368 1.0894.0003.8147-1.8521h3.9379l.8163 1.8521h1.1116l-3.3663-7.4087h-1.0484l-3.3552 7.4084Zm3.8746-6.3281 1.5978 3.6297H69.107l1.5978-3.6297Zm13.8174-1.0803v7.4084l-1.0579.0003v-3.3016H79.209l.0001 3.3013-1.058.0003v-7.4084l1.058-.0003v3.1848h4.2552v-3.1845l1.0579-.0003Zm10.7667 7.4084-2.7724-3.8209 2.6462-3.5872-1.132-.0003-2.329 3.2179h-1.5663v-3.2179H89.098v7.4087h1.0373v-3.2605h1.5458l2.4016 3.2605 1.2062-.0003ZM63.1338 20.7211l-1.9484 2.0305v3.6679h-3.3363V11.9137h3.3363v6.7768l6.4247-6.7768h3.7311l-6.0095 6.4642 6.3632 8.04h-3.9174l-4.6437-5.6968Zm13.8647 4.9721c-1.2094-.649-2.1552-1.5443-2.8389-2.6827-.6837-1.14-1.0247-2.4221-1.0247-3.8447 0-1.4211.341-2.7032 1.0247-3.8432.6837-1.14 1.6295-2.0337 2.8389-2.6842 1.2095-.6473 2.5674-.9726 4.0721-.9726 1.5064 0 2.8611.3253 4.0627.9726 1.2031.6505 2.1489 1.5442 2.8389 2.6842.69 1.14 1.0358 2.4206 1.0358 3.8432s-.3458 2.7047-1.0358 3.8447c-.69 1.1384-1.6373 2.0337-2.8389 2.6827-1.2016.6489-2.5563.9726-4.0627.9726-1.5047 0-2.8626-.3237-4.0721-.9726Zm6.3948-2.4743c.69-.3947 1.2331-.9442 1.6263-1.6468.3932-.7042.5905-1.5063.5905-2.4047 0-.8969-.1973-1.6974-.5905-2.4032-.3932-.7042-.9363-1.2553-1.6263-1.6468-.69-.3948-1.4653-.5906-2.3211-.5906-.8573 0-1.6294.1958-2.321.5906-.69.3931-1.2332.9426-1.6263 1.6468-.3932.7042-.5906 1.5063-.5906 2.4032 0 .8984.1974 1.6989.5906 2.4047.3931.7026.9363 1.2521 1.6263 1.6468.69.3932 1.4637.5906 2.321.5906.8558-.0016 1.6295-.199 2.3211-.5906Zm28.1507-11.3052v14.5042H92.3949V11.9137h3.3363v11.7695h4.5808V11.9137h3.336v11.7695h4.56V11.9137h3.336Zm15.825 11.8121v2.6921h-11.233V11.9137H127.1v2.6952h-7.626v3.15h6.736v2.61h-6.736v3.3569h7.895Zm16.667-11.8121v14.5042h-3.317V14.6484h-4.974l-.104 3.0253c-.07 2.0589-.236 3.7263-.498 5.0037-.262 1.2773-.701 2.2579-1.315 2.9415-.614.6837-1.475 1.0248-2.58 1.0248-.456 0-1.009-.0758-1.658-.2274l.207-2.8374c.18.0537.379.0822.602.0822.8 0 1.359-.4737 1.678-1.4195.317-.9458.518-2.4284.602-4.4448l.206-5.8847h11.151v.0016Zm15.429 11.8121v2.6921h-11.231V11.9137h10.965v2.6952h-7.627v3.15h6.734v2.61h-6.734v3.3569h7.893Zm16.197-3.5842c.471.5937.706 1.3247.706 2.1947 0 1.2853-.486 2.2863-1.461 3.0048-.974.7184-2.366 1.0768-4.176 1.0768h-7.151V11.9137h6.756c1.687 0 2.999.3252 3.938.9742.94.6489 1.409 1.5742 1.409 2.7774 0 .7184-.179 1.3484-.537 1.8947-.362.5463-.865.9774-1.514 1.2947.884.2637 1.563.6932 2.03 1.2869Zm-8.744-2.2184h3.128c.733 0 1.285-.1485 1.659-.4453.371-.2968.559-.7358.559-1.3168 0-.5653-.191-.9995-.568-1.3058-.381-.3032-.932-.4548-1.65-.4548h-3.128v3.5227Zm6.052 4.1447c0-1.2016-.788-1.8047-2.364-1.8047h-3.688v3.6679h3.688c1.576 0 2.364-.6206 2.364-1.8632ZM35.1691 24.6921 48.0833 10H28.0559c-.1396 0-.2776.0071-.4137.021-2.0408.208-3.6394 1.9376-3.6394 4.0322V35.68c-.0058.1597-.0011.2735.001.3235.0002.0049.0004.0092.0005.0128l.0063.0932c.0032.0979.0079.1958.019.2921l.011.1737.0158-.0016C24.358 38.5111 26.0349 40 28.0575 40h22.4053L35.1691 24.6921ZM26.1312 36.13l-.0095-.2053v-.1768c.0111-.2653.0774-.8558.4184-1.309.0442-.0552.3711-.4247.7421-.84l6.48-7.3121L45.347 37.8811H28.0559c-.0628-.0001-.1248-.0032-.1861-.0092-.9187-.0894-1.6513-.8227-1.7386-1.7419Zm-.0079-22.0768c0-1.0658.8668-1.9343 1.9326-1.9343H43.397L32.9522 24.0053l-6.8289 7.7052V14.0532Z"/>
</svg>