<svg xmlns="http://www.w3.org/2000/svg" viewBox="0 0 200 50">
	<path class="bg-logo" fill="#E52E0E" d="M0 0h200v50H0z"/>
	<g fill="#fff">
		<path d="M45.6483 15.2183h-7.1958L31.7225 25l6.6667 9.7817H45.71L38.8875 25l6.76-9.595v.0008l.125-.1875h-.1242ZM23 24.7508h7.3208l6.9159-9.9066L30.3833 5h-7.3208l6.8533 9.7508-.9033 1.34L23 24.7508Z"/>
		<path d="M109.857 16.665h-.443v1.6285c-.344.1383-.672.2075-.984.2075-.146 0-.276-.0358-.39-.1066-.031-.0196-.061-.0415-.09-.0659-.132-.1148-.199-.3549-.199-.7203v-.9423h-.442v.983c0 .271.029.4891.09.6568.035.1001.092.1896.17.2685.052.0529.114.1017.186.1457.102.0618.212.1066.331.1335.09.0203.185.0301.285.0301.298 0 .646-.0741 1.043-.2222v1.3485h.443V16.665Zm-6.318 1.8116h-1.851v1.1385h2.054v.3947h-2.496V16.665h2.418v.3947h-1.976v1.0246h1.851v.3923Zm21.36-2.1696c-.116.1025-.272.153-.465.153-.195 0-.35-.0505-.465-.1514-.117-.1009-.187-.2474-.21-.4395h.281c.021.1034.064.1807.127.232.063.0504.147.0765.254.0765.123 0 .217-.0253.28-.0741.063-.0504.105-.1278.126-.2344h.281c-.023.1897-.092.3361-.209.4379Zm-17.993 1.3256c0-.1652-.033-.3173-.102-.4557-.067-.1383-.156-.2466-.267-.3239-.111-.0765-.249-.1286-.413-.1562-.116-.0212-.286-.0318-.509-.0318h-1.262v3.3448h.443v-1.3599h.858c.473 0 .799-.0985.981-.2946.181-.1977.271-.4386.271-.7227Zm-.474-.1489c.012.0505.018.105.018.1628 0 .1937-.06.3426-.18.45-.069.0611-.165.1042-.289.1302-.091.0196-.198.0293-.32.0293h-.864v-1.1963h.855c.201 0 .338.0106.413.0301.116.0318.209.0985.279.1978.042.0586.071.1237.088.1961Zm-7.4834 2.0451c.0383-.1212.0966-.3003.1782-.5363l.8008-2.3266h.5954v3.3447h-.427v-2.7987l-.9716 2.7987h-.3992l-.9676-2.8475v2.8475h-.4266v-3.3447h.6667l.7916 2.3681c.0726.2197.1259.3858.1593.4948Zm-6.0675-1.1873c0-.3337-.0651-.634-.1943-.8977-.13-.2628-.32-.4687-.5674-.6152-.2484-.1489-.5267-.2222-.835-.2222-.2728 0-.5163.0529-.7308.1571-.157.0765-.2984.1815-.4242.3141-.2976.3134-.4467.7479-.4467 1.3029 0 .2938.0634.5721.1908.835.1284.2629.316.4712.5642.6226.2476.1529.5291.2286.8441.2286.2909 0 .5617-.0691.8126-.2067.1373-.0757.2577-.1709.3611-.2848.0852-.0944.1587-.2026.2205-.3239.1367-.2669.2051-.5705.2051-.9098Zm-.5035-.4468c.0317.1367.0476.2848.0476.4451 0 .4305-.1075.7626-.3217.997-.215.2343-.4899.3507-.8225.3507-.3274 0-.5992-.1156-.8159-.3475-.059-.0627-.11-.1318-.153-.2075-.1153-.2035-.1727-.4509-.1727-.7446 0-.5038.1133-.8627.3392-1.0783.2258-.2157.495-.3231.8083-.3231.2209 0 .4199.057.5975.1684.1766.1107.3117.2686.4032.4721.0377.083.0678.1725.09.2677Zm2.7502 1.4128.1066-.315.8008-2.3266h.5951v3.3447h-.4269v-2.7987l-.9714 2.7987h-.3992l-.9676-2.8475v2.8475h-.4266v-3.3447h.6667l.7916 2.3681c.0724.2197.1257.3858.1591.4948l.0718-.2213Zm-6.6842-1.1849c-.0775.0732-.17.1326-.2785.1766.2167.0594.4293.2579.6384.5981l.6891 1.1133h-.5499l-.5583-.9082c-.1542-.2507-.2826-.4232-.3859-.5168-.1034-.0928-.2374-.14-.4016-.14v1.565h-.4425v-3.3447h.4425v1.4648c.2024 0 .345-.0391.4274-.1172.0818-.0797.1868-.2669.3142-.5656.0457-.1082.0874-.201.1253-.2775.0386-.0789.0732-.1408.1039-.1864.0393-.0577.0888-.1106.1488-.157.0329-.0252.0691-.0488.1086-.0708.1101-.0619.2334-.0928.3668-.0928.1699 0 .26.0016.2692.0041v.3833l-.0893-.0016-.0883-.0025c-.0755 0-.1404.0098-.1951.0293-.048.0171-.0879.0415-.1199.0741-.0699.0683-.1499.214-.2392.437-.1125.2832-.2073.4622-.2857.5355Zm45.2004 1.8872-1.37-3.3448h-.475l-1.285 3.3448h.47l.367-1.0132h1.398l.391 1.0132h.504Zm-1.381-2.299.349.9261h-1.133l.366-.9815c.078-.2116.138-.4248.18-.6388.034.118.079.2572.136.4175l.102.2767Zm2.191.3271h1.738V16.665h.442v3.3448h-.442v-1.5764h-1.738v1.5764h-.443V16.665h.443v1.3729Zm-4.04.6926c-.026-.0839-.064-.1628-.113-.236-.105-.1563-.244-.2621-.418-.319-.175-.0562-.409-.0847-.704-.0847h-.799v-1.0311h1.727v-.3947h-2.17v3.3448h1.309c.36 0 .614-.0464.763-.1392.148-.092.26-.2124.335-.3589.045-.0854.076-.1749.094-.2685.013-.0668.02-.1351.02-.2051 0-.1099-.015-.2124-.044-.3076Zm-.535-.0277c.068.092.102.2083.102.3467 0 .1066-.018.1985-.053.2759-.03.0634-.072.118-.126.1619-.081.0651-.189.1082-.324.1294-.065.0106-.136.0163-.214.0163h-.885v-1.1613h.591c.294 0 .502.0146.624.0456.121.0309.216.0927.285.1855Zm8.509-.4036c.216.0594.429.2579.639.5973l.688 1.1141h-.55l-.558-.9082c-.154-.2507-.283-.4232-.386-.5168-.061-.0545-.132-.0936-.215-.1164-.057-.0154-.119-.0236-.187-.0236v1.565h-.442v-3.3447h.442v1.4648c.203 0 .345-.0391.428-.1172.081-.0797.186-.2669.314-.5656.093-.2189.168-.3735.229-.4639.061-.0895.146-.1668.258-.2278.11-.0619.233-.0928.366-.0928.17 0 .26.0016.269.0041v.3833l-.089-.0016-.088-.0025c-.142 0-.247.0342-.315.1034-.07.0683-.15.214-.239.437-.113.2832-.208.4622-.286.5355-.046.0439-.098.083-.155.1163-.038.022-.08.0423-.123.0603Zm-14.823-1.6342v2.649l1.78-2.649h.444v3.3448h-.4v-2.6416l-1.783 2.6416h-.443V16.665h.402Zm-5.194 1.4576c-.078.0732-.17.1326-.278.1766.216.0594.429.2579.638.5981l.689 1.1133h-.55l-.558-.9082c-.154-.2507-.283-.4232-.386-.5168-.103-.0928-.237-.14-.402-.14v1.565h-.442v-3.3447h.442v1.4648c.203 0 .345-.0391.428-.1172.081-.0797.186-.2669.314-.5656.093-.2189.168-.3735.229-.4639.061-.0895.146-.1668.258-.2278.072-.0407.149-.0676.231-.0814.044-.0073.089-.0114.135-.0114.17 0 .26.0016.269.0041v.3833l-.089-.0016-.088-.0025c-.142 0-.247.0342-.315.1034-.07.0683-.15.214-.239.437-.113.2832-.208.4622-.286.5355Zm-2.99 1.5323c.133-.0341.252-.0944.358-.1814.171-.1424.288-.354.349-.6381l.441.1124c-.093.3629-.26.6404-.501.8317-.241.1912-.535.2864-.884.2864-.36 0-.654-.0732-.88-.2197-.12-.0789-.225-.1758-.315-.2913-.078-.101-.145-.2165-.2-.3467-.119-.2783-.177-.577-.177-.8968 0-.3483.067-.6511.199-.9115.082-.1571.184-.2913.306-.4036.079-.0717.166-.1343.262-.1872.246-.1343.517-.2018.812-.2018.335 0 .617.0854.844.2563.229.1701.388.4085.477.7178l-.435.1025c-.078-.2433-.19-.4207-.338-.5314-.091-.0684-.197-.1164-.318-.1424-.074-.0163-.154-.0244-.238-.0244-.257 0-.472.0618-.644.1847-.174.1229-.295.2889-.365.4964-.07.2075-.105.4216-.105.6421 0 .2848.041.5339.124.7455.083.2124.212.3711.387.4752.175.105.364.1579.568.1579.097 0 .188-.0106.273-.0326Zm-2.493-1.1783h-1.851v1.1385h2.053v.3947h-2.496V16.665h2.419v.3947h-1.976v1.0246h1.851v.3923Zm7.318-1.8116v2.649l1.78-2.649h.444v3.3448h-.401v-2.6416l-1.782 2.6416h-.443V16.665h.402Zm48.588 7.2128c.09-.3785.09-.7731 0-1.1524-.156-.1863-.467-.2807-.997-.2799h-.342v-.2808H173v.2808h-.374c-.167-.022-.336-.009-.498.039-.16.0489-.31.1302-.436.2409-.194.3638-.269.7772-.219 1.1841v6.7912c-.049.4175.027.8406.219 1.215.126.1099.276.192.436.2409.162.048.331.0618.498.039H173v.2808h-5.67v-.2808h.343c.195.0497.4.0505.596.0017.196-.0489.377-.1465.525-.2824.119-.3972 0-6.8229 0-6.8229l-3.582 5.7015c-.024.3719.039.7462.186 1.0896 0 .1872.468.3117.998.3117h.342v.2808h-5.514v-.2808h.343c.166.0228.336.009.497-.039.162-.0489.311-.1311.438-.2409.206-.3703.293-.7943.249-1.215v-6.7912c.04-.4037-.024-.8122-.187-1.1841 0-.1864-.467-.2799-.997-.2799h-.343v-.2808h5.514v.2808h-.342c-.169-.0253-.343-.0098-.505.0439-.162.0545-.309.1465-.43.2677-.199.3492-.286.752-.249 1.1524v5.6706l3.582-5.7015Zm-1.837-2.71c-.779.044-1.559-.0944-2.274-.4045-.199-.0919-.367-.2368-.488-.4191-.121-.1823-.19-.3938-.198-.6111-.004-.0985.013-.197.051-.2881.038-.092.094-.1734.167-.2409.147-.1261.336-.1929.529-.1872.277 0 .503.1009.688.3093.106.1204.198.2767.278.4703.073.2499.227.4688.437.6234.256.0602.522.0602.778 0 .266.0659.544.0659.81 0 .219-.1725.39-.3979.498-.6543.25-.498.561-.7479.966-.7479.194-.0008.38.066.53.1872.073.0733.13.1603.168.2572.037.0968.055.2002.05.3035-.005.2189-.077.4313-.205.6096-.127.1782-.306.3133-.511.3881-.694.3117-1.453.4509-2.213.4045h-.061Zm-30.249 4.3302v-3.5823l-.281.1562c-.014.2206-.101.4289-.249.5917-.131.048-.275.048-.405 0-.313-.0521-.616-.1465-.904-.28-.722-.2962-1.493-.4557-2.274-.4671-.984-.0041-1.952.2539-2.804.7471-.875.4752-1.598 1.1881-2.087 2.0565-.503.8496-.772 1.8172-.779 2.8035.007.9204.253 1.8221.717 2.6172.447.8162 1.131 1.4787 1.962 1.9002.909.4557 1.912.6901 2.929.6844.564.0098 1.125-.07 1.662-.2344.186-.0569.369-.1237.549-.201.331-.144.645-.3214.938-.5297.317-.2255.609-.4867.87-.7789v-.8724c-.487.5803-1.065 1.0743-1.714 1.4641-.55.2824-1.158.4321-1.775.4362-.692.0228-1.372-.1856-1.932-.5917-.259-.2189-.484-.472-.67-.7511-.196-.2954-.349-.6193-.452-.9627-.228-.8212-.344-1.6708-.342-2.5228-.016-.8773.154-1.7481.498-2.5545.179-.4436.451-.8423.795-1.1687.112-.1066.231-.205.358-.2954.52-.3637 1.14-.559 1.775-.5607.765-.0154 1.507.2507 2.088.7471.638.5607 1.077 1.3159 1.246 2.1492h.281Zm-82.9913-3.3333h-5.3583v.28h.2175c.2783 0 .4964.026.6632.0822.1506.0504.2596.1261.3335.2294.1833.3777.2592.7976.2183 1.2151v6.8847c0 .5615-.0934.9033-.28 1.0596-.3359.2327-.7466.332-1.1525.2799v.28h5.3876v-.28c-.3876.044-.7792-.0325-1.1219-.2181-.3114-.1253-.3114-.437-.3114-.935v-3.3334c.2223-.0691.4616-.0691.6848 0 .2242.236.4034.5095.5292.8098l2.0876 3.9876h3.3333v-.2799c-.2859.013-.5693-.0627-.8099-.2181-.2342-.1563-.436-.3573-.5919-.5917l-1.0282-1.9002c-.2905-.5282-.5225-.9342-.6956-1.2199-.0989-.1627-.1784-.2856-.2387-.3686-.1133-.2019-.274-.3728-.4675-.4981-.2207-.1684-.4757-.2848-.7475-.3426.2484-.223.4401-.5005.5609-.8097.125-.3426.2808-.8106.4676-1.4649.1149-.4883.2933-.9586.53-1.4013.0315-.0578.0712-.1115.1171-.1587.0391-.0399.0828-.0757.1303-.1058.1041-.0659.2225-.1034.345-.1099.0676 0 .12-.0057.1601-.0106.0507-.0057.0824-.0097.1042.0033.0366.0228.0433.096.0598.2962l.0185.21c.0625.6535.3742.9961.9349.9961.1265.004.2514-.0147.369-.0546.1392-.0472.2684-.1237.3784-.2254.0436-.0447.0826-.0928.1168-.1448.0411-.0619.0753-.1286.1018-.1994.0482-.1286.0699-.2653.0624-.4029.0075-.1936-.0285-.3857-.1033-.5639-.0759-.1774-.1892-.3361-.3335-.4647-.1556-.14-.3383-.2474-.5357-.3174-.1975-.07-.4075-.0993-.6166-.0879-.4401-.0106-.8735.1091-1.246.3426-.33.2328-.5975.5428-.7792.9034-.2283.568-.4148 1.1499-.5607 1.7447-.0883.4761-.2683.931-.5292 1.3396-.1416.2018-.3525.3458-.5916.4052-.4142.0375-.8317.0375-1.2459 0v-3.1152c-.0259-.3369.0508-.673.2183-.966.1434-.1139.3084-.1977.485-.2466.1776-.048.3617-.0594.5434-.0333h.1866v-.2808Zm9.8126 8.5042v-2.8662c.8299.0814 1.6648.0716 2.4925-.0309.3867-.0757.7535-.223 1.0817-.4329.2319-.1481.4446-.3272.6315-.5331.2509-.2685.4417-.5867.5601-.9342.1182-.3475.1616-.717.1258-1.0816-.035-.3654-.1484-.7194-.3309-1.0376-.1261-.2189-.2832-.4174-.4659-.5908-.0826-.0781-.1704-.1513-.2632-.2189-.9225-.5981-2.0193-.8724-3.1151-.7788H59.76v.4053c.3184-.0668.6476-.0668.966 0 .0868.0488.1645.1115.2303.1847.0427.048.0803.1009.1121.1579.075.3491.075 8.5913 0 8.9404-.0808.1432-.1992.2621-.3424.3426-.3201.0497-.646.0497-.966 0v.1555h5.1092v-.28c-.32.0505-.6457.0505-.9658 0-.1458-.0887-.2726-.2059-.3741-.3418-.0525-.3515-.0525-.7088 0-1.0596Zm0-3.4578v-4.4548l.4683-.0008c.2716-.0162.5449.022.8016.1123.2568.0912.4926.2336.6934.4175.3817.4737.5599 1.0775.4982 1.683.0218.3344-.025.6705-.1375.9863-.0801.2254-.1931.4378-.3339.6299-.0567.0773-.118.1513-.1835.2221-.1959.1652-.425.2865-.6726.3565-.2466.07-.5057.0871-.7599.048h-.3741Zm9.564-4.2399v3.9909l.1868.0016c.2716.0228.545-.0228.7951-.131.1436-.0627.2771-.1449.3967-.2442.0885-.074.1695-.157.2415-.2482.1721-.2702.3115-.5591.4158-.8602.1058-.3051.1756-.6225.2076-.9464h.2799v5.3898h-.2799c-.0385-.4972-.165-.9823-.3742-1.4339-.1526-.3174-.39-.5868-.685-.7788-.3558-.1433-.7383-.2075-1.1216-.1872v2.8979c-.0171.1945-.0247.389-.023.5835.0014.1587.0091.3174.023.4753.0573.1318.1558.2417.2807.3117.2059.0464.4183.0464.6234 0h.6234c.4842.0212.9643-.0529 1.4142-.2157.3149-.1139.6148-.271.8907-.4687.6333-.52 1.0809-1.2305 1.2774-2.0256h.1868l-.4675 3.2715h-8.8784v-.1562h.3426c.2474.0032.4923-.0497.7166-.1555.0419-.0244.0805-.0537.1153-.0879.0228-.0219.044-.0455.0631-.0708.0482-.0643.0824-.1375.1015-.2156.0454-.2637.033-5.7333.0132-7.8133-.0042-.4444-.0087-.7341-.0132-.7854-.0466-.1619-.1449-.3043-.2799-.4052-.1502-.105-.3211-.1742-.4995-.2035-.092-.0154-.1858-.0203-.2798-.0146h-.2807v-.2808h8.6299v3.1152h-.3116c-.0666-.5843-.2816-1.1417-.6232-1.6202-.2942-.3459-.685-.5949-1.1218-.717-.5274-.0667-2.5859.0285-2.5859.0285Zm16.3552-.8065-2.8034 6.792-2.8983-6.792h-4.2367v.2808h.3424c.2385-.0033.4735.0504.6859.1562.1499.0708.2716.1913.3426.3426.023.1473.0354.2954.0372.4436.002.1741-.0104.3491-.0372.5216v7.4146c-.0326.2058-.1184.3987-.2492.5607-.1117.144-.2633.2522-.4358.3117-.2151.0504-.4393.0504-.6543 0v.2807h3.49v-.2807c-.3599.0236-.719-.0635-1.0283-.2491-.215-.1489-.3701-.3703-.4358-.6233-.0258-.3117-.0258-.6242 0-.9351v-7.2583l3.925 9.283h.1866l3.9567-9.3457v7.6327c.0549.3198.0549.647 0 .966-.0242.0797-.0641.1538-.1174.2181-.0535.0643-.1192.1163-.1935.1546-.2224.1099-.4684.1636-.7166.1562h-.3426v.2808h5.3892v-.2808h-.3424c-.2384.0065-.4742-.0463-.6858-.1562-.1502-.0708-.2718-.1913-.3426-.3418-.025-.1546-.0383-.3109-.0399-.4671-.0016-.1774.0116-.3548.0399-.5298v-6.7912c-.0558-.3092-.0558-.6258 0-.9351.0242-.0797.0643-.1538.1176-.2181.0358-.0431.0775-.0805.1233-.1131.0223-.0154.0457-.0293.07-.0415.2225-.109.4683-.1627.7167-.1562h.3424v-.2808h-4.2057Zm15.6395.2808c-.372-.0415-.746.0472-1.06.249-.203.2905-.292.6453-.25.9969v7.1647c-.055.3817.033.7707.249 1.0905.204.1294.432.2116.668.2442.139.0195.281.0211.422.0048v.2808h-5.1719v-.2808c.1679.0253.3379.0358.5079.0318.122-.0033.244-.0139.365-.0318.15-.0708.271-.192.342-.3426.067-.2767 0-9.034 0-9.034h-2.3475l-.1133 6.2305c-.0383.3841-.1152.7625-.2289 1.1303-.0814.2629-.1817.5201-.3003.7699-.2334.5558-.6232 1.0319-1.1216 1.3713-.4358.3108-.9591.4736-1.495.4671-.2091.0146-.4201-.0122-.6183-.0822-.1983-.0692-.38-.1799-.5342-.3231-.1559-.144-.2716-.3255-.3367-.5273-.0657-.2019-.0784-.4167-.0375-.625-.0091-.28.0784-.555.2493-.778.0832-.1083.1932-.1945.3182-.2482.1251-.0546.2626-.0765.3983-.0635.5916 0 .9033.3735.966 1.0897.049.5647.1174.5493.2517.5167l.0675-.0138c.0175-.0024.0358-.0041.0549-.0041.0969 0 .2364-.0431.3945-.1294.1984-.1074.4256-.2824.6338-.5249.3975-.5151.6449-1.1295.7167-1.7757.078-.5819.1319-1.167.1618-1.7529.023-.4533.0315-.9074.0256-1.3623v-2.0874c.0676-.3711.0676-.7512 0-1.1223-.0307-.0887-.0799-.1717-.1448-.2417-.0643-.0699-.1427-.1245-.2293-.1627-.3516-.0488-.7074-.0488-1.0592 0v-.4053h8.3803l-.124.2808Zm4.703 4.5166V22.937s2.058-.061 2.586.0041c.437.1221.827.3719 1.121.7169.342.4786.557 1.036.624 1.6203h.311v-3.1152h-8.66v.2807h.374c.276-.0179.551.0595.778.2181.135.101.233.2434.281.4053.024.2897.024.5827 0 .8724v6.7603c.055.3198.055.6469 0 .966-.019.0781-.054.1513-.102.2156-.048.0643-.109.118-.179.1579-.223.1066-.468.1595-.717.1562h-.373v.1555h8.878l.468-3.2707h-.312c-.172.7975-.612 1.512-1.246 2.0256-.67.4793-1.482.721-2.305.6844h-.623c-.206.0464-.418.0464-.623 0-.118-.0798-.214-.1864-.281-.3117-.031-.3524-.031-.7064 0-1.0588V27.522c.383-.0204.766.0439 1.122.1871.18.1091.338.2499.466.4135.088.1114.162.2343.219.3654.105.2254.188.4589.251.6982.062.2409.104.4867.123.7349h.281v-5.389h-.281c-.044.638-.236 1.2557-.561 1.8066-.168.214-.388.3833-.638.4915-.25.1099-.523.1547-.795.1319h-.187Zm13.053.0317c.743.1441 1.452.4305 2.088.8407.27.2164.486.4915.631.8024.057.1212.102.2466.136.3743.054.2043.079.4151.074.6275.007.3694-.074.7332-.236 1.0644-.163.3312-.403.6177-.699.8366-.97.686-2.148 1.0156-3.333.9351h-5.265v-.28c.33.0529.667.0529.997 0 .143-.0805.261-.1994.342-.3426.053-.3507.053-8.5897 0-8.9404-.084-.1514-.216-.271-.373-.3426-.318-.0725-.648-.0725-.966 0v-.4053h4.953c.853-.0513 1.709.0545 2.524.3117.46.2043.858.5265 1.152.935.274.3939.426.8602.436 1.3404-.002.5029-.203.9847-.561 1.3395-.537.4712-1.195.7845-1.9.9033Zm-2.741.4045v3.6759c-.015.114-.005.2303.032.3394.038.109.098.2075.18.2897.082.0814.181.1432.29.1798.108.0367.225.0481.339.0326.392.0032.778-.0928 1.121-.28.332-.1757.603-.4475.779-.7796.191-.3532.288-.7503.281-1.1523.001-.4492-.117-.8895-.343-1.2777-.194-.3686-.515-.6559-.904-.8097-.574-.1758-1.175-.2491-1.775-.2181Zm0-.5917c.541.0245 1.081-.0602 1.589-.249.319-.1514.589-.389.778-.6852.186-.3451.283-.73.283-1.1214 0-.3923-.097-.7772-.283-1.1223-.172-.3043-.449-.5354-.778-.6543-.507-.192-1.048-.2775-1.589-.249v4.0812Zm17.788-4.6419h5.358v.28c-.09-.0131-.182-.0171-.272-.0122-.091.0057-.182.0211-.271.0455-.177.048-.342.1319-.485.2466-.095.1522-.165.3174-.208.4899-.046.1848-.06.3776-.041.5697v3.0216c.456.0456.915.0456 1.371 0 .132-.048.253-.1229.354-.2181.067-.0643.127-.1375.176-.2181.192-.3003.34-.6266.44-.9684.036-.1213.065-.245.089-.3703.066-.284.145-.5639.237-.8398.102-.3076.221-.6096.355-.9058.159-.3654.419-.6779.748-.9033.372-.2336.805-.3532 1.246-.3426.12-.0065.242.0008.36.0211.087.0155.173.0375.256.0668.199.0692.38.1774.536.3174.144.1285.258.2872.333.4655.055.1285.089.2644.1.4028.005.0529.006.1066.004.1603.009.1375-.012.2751-.06.4037-.049.1293-.124.2457-.221.3434-.098.0968-.215.1725-.343.2213-.13.0489-.267.0692-.405.0594-.56 0-.872-.3418-.935-.9961l-.005-.0683-.013-.14c-.009-.1172-.016-.1904-.027-.236-.007-.0334-.017-.0521-.033-.0618-.022-.0131-.053-.009-.104-.0033l-.078.0081-.082.0025c-.123.0073-.241.0447-.344.1098-.061.0391-.116.0863-.162.1408-.033.0383-.062.0798-.086.1237-.129.2417-.241.4924-.335.7495-.077.2133-.143.4305-.195.6519-.186.6543-.342 1.1222-.466 1.4648-.121.3101-.314.5876-.561.8098.273.0496.531.1684.747.3426.193.1253.354.2962.468.498.166.2295.477.7585.934 1.5894l1.028 1.9002c.156.2336.357.4354.592.5917.241.1554.524.2311.81.2181v.2799h-3.427l-2.15-3.9567c-.126-.3003-.305-.5737-.529-.8097-.223-.0692-.462-.0692-.685 0v3.3333c0 .4989 0 .8097.311.9351.215.1163.448.1896.687.2172.144.0171.289.0171.435.0009v.2799h-5.452v-.2799c.269.0349.54.0032.789-.0904.128-.0472.25-.1107.363-.1896.188-.1562.281-.498.281-1.0596v-6.8847c.028-.284.002-.5689-.076-.8407-.036-.1278-.084-.2531-.142-.3743 0-.2181-.468-.3117-.997-.3117h-.218v-.2808Zm18.854 1.4738c.002.0798-.001.1595-.007.2393l-3.645 5.7015v-5.6706c-.036-.4004.05-.8024.25-1.1524.12-.1212.268-.2132.43-.2677.059-.0195.12-.0342.182-.0431.107-.0163.216-.0171.323-.0008h.373v-.2808h-5.545v.2808h.342c.53 0 .998.0935.998.2799.162.3727.227.7804.187 1.1841v6.7912c.044.4207-.044.8447-.25 1.215-.125.2799-.467.2799-.935.2799h-.342v.2808h5.67v-.2808h-.374c-.529 0-.997-.1253-.997-.3117-.148-.3434-.212-.7169-.187-1.0896l3.52-5.7015v5.6079c.05.4174-.026.8406-.218 1.215-.132.1131-.286.1969-.452.2449-.167.048-.342.0611-.514.0358h-.342v.2808h5.545v-.2808h-.374c-.166.0228-.336.009-.497-.039-.162-.0489-.31-.131-.438-.2409-.191-.3744-.267-.7975-.217-1.215v-6.7912c-.052-.4077.025-.8211.217-1.1841.058-.0496.12-.0936.186-.1318.079-.0456.163-.0822.252-.1091.161-.048.331-.061.497-.039h.374v-.2808h-5.545v.2808h.342c.53 0 .998.0936.998.2799.121.2906.187.6006.193.9131Z"/>
	</g>
</svg>