<svg xmlns="http://www.w3.org/2000/svg" viewBox="0 0 200 50">
	<path class="bg-logo" fill="#FFB400" d="M0 0h200v50H0z"/>
	<path fill="#fff" d="M34.4 12.6V10l-1.6001 1.4L31.5 10l-1.2 1.4-1.6-1.4v2.6c.9-.2 1.9-.3 2.9-.3.9 0 1.8.1 2.8.3Zm-2.9 1.1.5999.7-.5999.6-.6-.7c-.1 0 .6-.6.6-.6Zm15.7 11.8.0999-.4h-1c-.4 0-.6.2-.7.6-.1.5-.2 1-.3 1.7-.1.7-.5.8-1.2.8.3-4.6-2.2999-8.9-6.3999-11-.5-.2-.9001-.4-1.4001-.6v.1c.5.2 1.0001.5 1.4001.8 3.8 2.4 5.5999 6.6 4.8999 10.7-.7 0-1.2 0-1.3-.8-.1-.8-.1999-1.3-.2999-1.7-.1-.4-.3001-.6-.7001-.6h-1l.1001.4h.6v.2h-.6l.1.4h.5999v.2H39.5l.0999.4H40.2c.1.6.2 1.2.3 1.5.1.5.2999 1.3 1.7999 1.4-.3.8-.5999 1.6-1.0999 2.4-2.9 4.6-9 5.9-13.6 2.9-1.9-1.2-3.2-3.2-3.8-5.3 1.4-.1 1.6-.8 1.8-1.4.1-.2.2-.9.3-1.5h.6l.1-.4H26v-.2h.6l.1-.4h-.6v-.2h.6l.1-.4h-1c-.4 0-.6.2-.7.6-.1.5-.2 1-.3 1.7-.1.7-.5.8-1.2.8-.2-2 .2-4 1.4-5.8 2.2-3.2 6.1-4.3 9.5-3.3l-2.8-2.9 2.8-2.9c-2.2-.5-4.4-.4-6.5.2-2 .6-3.8 1.7-5.1 3.3-2.9 3.1-3.8 8.2-2.6 12.3 1.1 4.1 4.5 7.6 8.7 8.6 1.9.5 4 .5 5.9 0v.1c-1.9.5-4 .6-6 .1-4.3-.9-7.9-4.3-9.1-8.6-1-3.4-.8-7.2.9-10.3l-.1-.1c-.8 1.2-1.5 2.6-1.8 4.1-.4 1.7-.5 3.4-.3 5.1-.7 0-1.2 0-1.3-.8-.1-.8-.2-1.3-.3-1.7-.1-.4-.3-.6-.7-.6h-1l.1.4h.6v.2h-.6l.1.4h.6v.2h-.6l.1.4h.6c.1.6.2 1.2.3 1.5.1.5.3 1.4 1.9 1.4h.4v.1c1.2 4.8 4.9 8.7 10.1 9.9 6.8 1.6 13.5999-2.6 15.2999-9.4.1-.2.1001-.4.1001-.7h.2c1.6 0 1.7999-.8 1.8999-1.4.1-.2.2-.9.3-1.5H47.2l.0999-.4H46.7v-.2h.5999l.1001-.4h-.6001v-.2c-.2.2.4001.2.4001.2ZM120.2 24.6992c-.4 0-.9.1-.9.1v-4.9h-1.9v13.4h2.5c2.3 0 3.8-1.9 3.8-4.5.1-2.6-1.1-4.1-3.5-4.1Zm0 7h-.8v-5.2s.3-.1.7-.1c1.1 0 1.8.8 1.8 2.6 0 1.6-.7 2.7-1.7 2.7Zm-10-11.8s-.3 6-.5 8.3c-.2 2.1-.3 2.8-.5 3.1-.2.3-.4.4-.7.5-.4.1-.7 0-.7 0l.6 1.8h.1c.6 0 1.3-.2 1.6-.5.6-.5.9-1.2 1.1-2.1.1-.7.2-1.6.4-3.6 0-.5.4-5.8.4-5.8h1.5v11.8h1.9v-13.5h-5.2Zm61.4 0s-.3 6-.5 8.3c-.2 2.1-.3 2.8-.5 3.1-.2.3-.4.4-.7.5-.4.1-.7 0-.7 0l.6 1.8h.1c.6 0 1.3-.2 1.6-.5.6-.5.9-1.2 1.1-2.1.1-.7.2-1.6.4-3.6 0-.5.4-5.8.4-5.8h1.5v11.8h1.9v-13.5h-5.2Zm-76.1999 4.5 4-8h-2.1l-3.7001 7.9v-8h-1.9v17h1.9v-8.5l4.1 8.5 2.1001-.2-4.4-8.7Zm36.5999 7.2v-11.9h-1.9v11.9h-2.7v-11.9h-1.9v13.5h6.1v2.9h1.8v-4.5H132Zm18.6-15.3-1.8 9.9c-.3-1.8-.5-3-.8-4.6-.1-.4-1.2-5.3-1.2-5.3h-2l3.2 12.7s-.1.4-.2 1.2c-.2.9-.4 1.6-1.9 1.6h-.4l.6 1.8h.6c.8 0 1.5-.2 1.9-.8.4-.4.7-1 1-2.2.2-1 3.1-14.4 3.1-14.4l-2.1.1Zm6.4 3.3c-.6 0-1.4.4-1.9.9l-.1-.6h-1.8s.4 2.5.4 2.9v15.1h1.9v-4.7c.2.2.7.5 1.4.5 3.3 0 3.5-4.7 3.5-7.5-.1-3.4-.6-6.6-3.4-6.6Zm-.2 12.4c-.5 0-1.1-.2-1.3-.5v-9.7c.4-.3.8-.5 1.2-.5 1.1 0 1.7 1.1 1.7 4.9 0 4.6-.6 5.8-1.6 5.8Zm11.3-.9v-8.1c0-2.1-.7-3.4-2.8-3.4-.8 0-2.1.4-2.9.8.1.2.5 1.4.5 1.5.6-.2 1.5-.6 2-.6.9 0 1.3.8 1.3 1.9v1.7c-.4-.1-.8-.1-1.2-.1-1 0-1.9.4-2.5 1.2-.6.8-.9 2.1-.9 3.4 0 2.6 1 4.3 2.8 4.3.6 0 1.5-.4 1.9-1 0 .2.1.8.1.8h1.7c.2-.2 0-1.7 0-2.4Zm-1.9.2c-.3.4-.7.6-1.1.6-.8 0-1.4-.6-1.4-2.8 0-1.7.5-2.8 1.6-2.8.4 0 .6 0 .9.1v4.9Zm15.5.6c-.8 0-1.4-.6-1.4-2.8 0-1.7.5-2.8 1.6-2.8.4 0 .6 0 .9.1v4.9c-.2.4-.6.6-1.1.6Zm3.1-.9v-8c0-2-.7-3.4-2.8-3.4-.8 0-2.1.4-2.9.8.1.2.5 1.4.5 1.5.6-.2 1.5-.6 2-.6.9 0 1.3.8 1.3 1.9v1.7c-.4-.1-.8-.1-1.2-.1-1 0-1.9.4-2.5 1.2-.6.8-.8 2.1-.8 3.4 0 2.6 1 4.3 2.8 4.3.6 0 1.5-.4 1.9-1 0 .2.1.8.1.8h1.7c.1-.2-.1-1.7-.1-2.5Zm-81-11.4c-2.2 0-3.5 1.5-3.5 7s1.3 7 3.4 7c2.2 0 3.6-1.9 3.6-7-.1-5.1-1.3-7-3.5-7Zm0 12.4c-1.4 0-1.6-3.2-1.6-5.4s0-5.4 1.5-5.4c1.4 0 1.5 2.4 1.5 5.4 0 3-.1 5.4-1.4 5.4Zm34.3-12.4c-2.2 0-3.5 1.5-3.5 7s1.3 7 3.4 7c2.2 0 3.6-1.9 3.6-7-.1-5.1-1.3-7-3.5-7Zm0 12.4c-1.4 0-1.6-3.2-1.6-5.4s0-5.4 1.5-5.4c1.4 0 1.5 2.4 1.5 5.4 0 3-.1 5.4-1.4 5.4Zm-69-.9v-8.1c0-2.1-.6999-3.4-2.7999-3.4-.8 0-2.1.4-2.9.8.1.2.5 1.4.5 1.5.6-.2 1.5-.6 2-.6.9 0 1.2999.8 1.2999 1.9v1.7c-.4-.1-.8-.1-1.2-.1-1 0-1.9.4-2.5 1.2-.6.8-.7999 2.1-.7999 3.4 0 2.6.9999 4.3 2.7999 4.3.6 0 1.5001-.4 1.9001-1 0 .2.0999.8.0999.8h1.7c.1-.2-.1-1.7-.1-2.4Zm-1.9.2c-.2.5-.7.7-1.1.7-.8 0-1.4-.6-1.4-2.8 0-1.7.5001-2.8 1.6001-2.8.4 0 .5999 0 .8999.1v4.8Zm9.2001-11.4H76.1v5.4h-2.9v-5.4h-1.8999v13.4H73.2v-6.3h2.9v6.4H78v-13.5h-1.5999Zm7.2999 6 3.4-6.1-2-.1-3 6.1v-6h-1.9v13.5h1.9v-6.8l3.3001 6.9 2.0999-.1c0-.1-3.8-7.4-3.8-7.4Zm-26.7-3.5c-.8 0-1.2999.2-1.2999.2v-4.5h4.7v-1.6H53.8v16.9H57c2.1 0 4.3-1.5 4.3-5.6-.1-4.1-1.8-5.4-4.3-5.4Zm-.4 9.3h-.8999v-7.5s.3999-.2 1.0999-.2c1.6 0 2.4001 1.2 2.4001 3.6.1 2.4-.7001 4.1-2.6001 4.1Z"/>
</svg>