<svg xmlns="http://www.w3.org/2000/svg" viewBox="0 0 200 50">
	<path class="bg-logo" fill="#273981" d="M0 0h200v50H0V0Z"/>
	<g fill="#fff">
		<path d="M50.7 13.8c-.8 0-1.5-.4-1.5-1.3h-1c0 1.4 1.1 2.1 2.5 2.1s2.3-1.1 2.3-1.8-.5-1.3-1.1-1.4c.2 0 .4-.2.6-.4.2-.2.3-.5.3-.9 0-1.1-1-1.6-2.1-1.6s-2.2.5-2.2 1.9h1c0-.7.6-1 1.3-1s1 .3 1 .8-.4.9-.9.9h-.7v.8h.7c.7 0 1.1.3 1.1.9s-.4 1-1.2 1ZM39 12.5l.9-.8 1.9 2.8h1.3L40.6 11 43 8.6h-1.3L39 11.3V8.6h-1v5.9h1v-2zM45.1 12.9c-.2.4-.3.6-.5.8h-.2c-.4 0-.6 0-.7-.1v.9c.2 0 .4.1.7.1.7 0 1.2-.3 1.7-1.3l2.3-4.7h-1.1l-1.5 3.2-1.4-3.2h-1.1l2 4.2ZM58.7 12.7c0-1.2-.7-1.8-2-1.8h-1.8V9.5h3.3v-.9h-4.3v5.9h2.8c1.3 0 2-.7 2-1.8Zm-3.7 1v-2h1.7c.6 0 1 .4 1 1s-.3 1-1 1H55ZM60.7 13H63l.6 1.6h1.1l-2.3-5.9h-1.1L59 14.6h1.1l.6-1.6Zm1.2-3.3.9 2.5H61l.9-2.5ZM67.7 14.7c1.5 0 2.5-1 2.6-2.4h-1c-.1.9-.5 1.5-1.5 1.5s-1.7-1.1-1.7-2.2.5-2.2 1.7-2.2 1.3.4 1.5 1.1h1c-.2-1.4-1.3-2-2.5-2-1.8 0-2.8 1.4-2.8 3.1s1.1 3.1 2.8 3.1ZM73.7 14.7c1.5 0 2.5-1 2.6-2.4h-1c-.1.9-.5 1.5-1.5 1.5s-1.7-1.1-1.7-2.2.5-2.2 1.7-2.2 1.3.4 1.5 1.1h1c-.2-1.4-1.3-2-2.5-2-1.8 0-2.8 1.4-2.8 3.1s1.1 3.1 2.8 3.1ZM97.9 11.6l-.5.9 11.3 6.5v13.5h1V18.4h-.1l-11.7-6.8zM86 18.6h-1v14.1l11.7 6.8.5-.9L86 32.1V18.6z"/>
		<path d="M104.2 28.3h-.3l-2.6-4.5-2.6-4.6c.3-.3.5-.8.5-1.3 0-1-.8-1.9-1.9-1.9s-1.9.8-1.9 1.9.2.9.5 1.3l-2.6 4.6-2.5 4.4h-.4c-1 0-1.9.8-1.9 1.9s.8 1.9 1.9 1.9 1.4-.5 1.7-1.1h10.4c.2.7.9 1.3 1.8 1.3s1.9-.8 1.9-1.9-.8-1.9-1.9-1.9Zm-1.8 1.4H92.2c0-.4-.3-.8-.5-1.1l2.5-4.4 2.6-4.6h1l2.6 4.6 2.6 4.4c-.3.3-.5.6-.6 1ZM131.6 26.7h3.2l-1.6-4.5-1.6 4.5zM122.1 25.7h-2.8v3.5h2.8c1.3 0 2.1-.5 2.1-1.8s-.9-1.7-2.1-1.7Z"/>
		<path d="M167.7 16.5H112l-7.1-4.1L97.3 8l-7.6 4.4-7.1 4.1H15l17.3 17.9h50.1l7.5 4.3 7.6 4.4 7.6-4.4 7.5-4.3h72.6l-17.3-17.9Zm-119 14.9L46 27.2l-2.7 4.2h-3l4.3-6.3-3.9-5.8h3.1l2.4 3.9 2.4-3.9h2.9l-3.9 5.8 4.2 6.3h-3.2Zm14.6 0h-2.7V23L56 31.4h-3V19.3h2.7v8.4l4.6-8.4h3v12.1Zm15.4 0h-2.5v-8.6l-3 8.6h-2.1l-3-8.5v8.5h-2.5V19.3h3.8l2.8 8.3 2.8-8.3h3.7v12.1Zm33.2 2.6-7.3 4.2-7.3 4.2-7.3-4.2-7.3-4.2V17.1l7.3-4.2 7.3-4.2 7.3 4.2 7.3 4.2V34Zm10.4-2.6h-5.7V19.3h9v2.2h-6.3v2.2h3.2c2.4 0 4.3 1.2 4.3 3.9s-1.8 3.9-4.4 3.9Zm14.1 0-1-2.7h-4.5l-1 2.7h-2.7l4.6-12.1h2.7l4.6 12.1h-2.8Zm14 0h-2.7v-5.2h-4.9v5.2h-2.7V19.3h2.7v4.6h4.9v-4.6h2.7v12.1Zm10.3 0L157 26l-1.5 1.5v3.9h-2.6V19.3h2.6v5l4.8-5h3.3l-4.7 4.8 5.2 7.3h-3.3Z"/>
	</g>
</svg>