<svg xmlns="http://www.w3.org/2000/svg" viewBox="0 0 200 50">
	<path class="bg-logo" fill="#A70133" d="M0 0h200v50H0z"/>
	<path fill="#fff" d="m106.483 31.3525-1.255-2.1166c.283-2.2146.458-4.2061.378-5.3544-.228-3.2153-.933-4.9977-1.22-5.7243-.035-.0878-.063-.1601-.084-.2177-.734-1.985-1.314-2.2822-1.314-2.2822.052-.1145.109-.2265.171-.3357.086-.1522.182-.2992.287-.4399.09-.1156.183-.2277.281-.3362.148-.1641.304-.3198.469-.4668 0 0 .665.0127.602-.5301-.108-.9201-.665-.3629-.665-.3629-.128-.0817-.219-.2111-.252-.3597-.006-.1933.034-.3854.116-.5604.122-.4184.197-.8496.221-1.2848.008-.4915-.032-.9827-.12-1.46638 0 0 .49-.75797.496-1.31206.01-.60867-.462-1.14018-.462-1.14018-.053-.05693-.099-.11982-.136-.18726-.018-.03121-.033-.06336-.047-.0963-.011-.02572-.021-.05191-.029-.07857-.005-.01443-.009-.02886-.013-.04344-.003-.01349-.007-.02714-.01-.04094-.001-.14303.044-.28261.129-.3982 0 0 .579-.98287-.506-1.10818-1.152.1606-.436 1.20134-.436 1.20134.01.0138.018.02792.026.04235.006.01113.012.02242.018.03387.011.02431.021.04925.03.07481.016.04815.026.09834.031.14931-.01.04532-.03.08814-.057.12546-.028.03733-.063.06838-.104.09128-.027.0229-.055.04627-.082.06995-.019.01678-.038.03372-.056.05097l-.036.03309c-.067.06211-.131.12641-.193.19275-.085.09081-.165.18569-.241.28434-.04.05473-.08.10994-.118.16561l-.043.06242-.028.04251-.037.05552c-.132.20184-.255.4098-.369.62309 0 0-.38-.41278-1.379-.37263-.7315.02588-1.4486.20937-2.1024.53809-.1532-.35554-.36-.68536-.6135-.97801-.0254-.0287-.0519-.05944-.0791-.0919l-.0344-.04141-.0265-.03246-.0249-.03106c-.023-.02901-.0461-.05865-.069-.08892-.0199-.02619-.0398-.05285-.0592-.07967-.065-.08955-.1264-.18146-.1775-.26928-.0396-.06807-.0729-.13363-.0969-.19385-.0252-.06336-.0402-.12076-.0412-.16875 0-.04831.0475-.17032.1046-.31728.024-.06179.0498-.12797.0744-.19494.0652-.17722.1226-.35946.1198-.47866 0-.09002-.1301-.61682-.5669-.6071-.4368.00957-.6424.49936-.6424.6954 0 .0538.0255.14021.0627.23729.0256.06697.0566.13895.0885.20875.0904.19745.1877.37781.1877.37781-.0867.24199-.2079.47034-.3598.67767-.0905.11857-.1693.24498-.2356.37734-.117.23353-.1951.48587-.2301.74685-.0723.61839.4674 1.22863.4674 1.22863-.1528.39286-.2333.81023-.2377 1.23173-.0168.4745.1881.995.3503 1.4067.1018.2586.1868.4744.1893.6088.0064.3485-.3678.5235-.4417.5252-.0739.0016-.2939-.0851-.3517-.0836h-.0095c-.0654.0002-.2237.0007-.1993.5043.0257.5301.2907.5846.2907.5846s.2473-.0836.2617-.0836c.5397-.0432 1.2575 1.4101 1.2575 1.4101s-2.5695 2.7961-2.4362 8.9245c.0273 1.3056.1767 2.9324.387 4.6573l-1.5048 2.4234c-.1319.2429-.2205.5072-.2617.7804-.0213.2581-.0005.5179.061.7693 0 0 2.1889 7.32 2.2243 7.6509-.0141.0508-.0462.1459-.0893.2731l-.0009.0028c-.2027.5996-.6459 1.9104-.6037 2.7063.0515.9669.824.9957.824.9957s.7049.0803 1.4806.1173c.9155.0433 1.9272.0449 1.9272.0449.1142.0003.2269-.0248.3301-.0737.1031-.0489.1938-.1203.2657-.2089.0461-.0673.1054-.1245.1744-.1683.069-.0434.146-.0726.227-.0855.171.029.324.1213.429.2586.196.2667.642.2296.642.2296s.742.0098 1.504-.0594c.039-.0036.086-.0075.138-.0119.661-.0555 2.282-.1917 2.431-.7283.263-.8931-.57-2.5503-.57-2.5503-.103-.2193-.173-.4526-.207-.6923.015-.3474.083-.6904.199-1.0181 0 0 .482-1.622.923-3.1301.075-.2552.148-.5069.218-.7469l.168-.5842.194-.6773c.097-.3371.156-.545.156-.545s.345-.9636.331-1.643c-.02-.4335-.155-.8536-.392-1.2173l.013.0048Zm-9.9332-17.2802c-.5589-.1832-.143-.5412-.0418-.604.1011-.0625.6424-.4094.0996-1.4549-.1605-.3213-.2561-.6711-.2811-1.0293-.0251-.3584.0207-.718.1349-1.05846 0 0 .8544.25376 1.2751.16856 0 0 .7549-.1397 0-.30344-.4335-.01929-.8897-.04015-1.2012-.37106-.2849-.25658-.4579-.61463-.4818-.99731-.0241-.48179.7259-1.51595.7259-1.51595.0294.08077.0712.15668.1237.22474.1461.17189.9925 1.12419 1.1611 1.68314.0931.32119.3212.11245.3212.11245.6233-.30896 1.3008-.49324 1.9946-.5428.465-.04329.929.09175 1.298.37734 0 0 .268.40792.42-.11402.245-.8367 1.365-1.74257 1.365-1.74257l.07-.15245.518.87513c.278.50203.154.8113-.046 1.30956l-.042.10539c-.307.76927-1.067.8549-1.428.89537-.062.0069-.112.01254-.146.02007-.336.05461-.199.19901.077.22471.339.1606 1.254-.1364 1.254-.1364s.054.0113.1.1971c.016.067.032.1565.044.2765.007.0792.013.1716.017.2795.023.6684-.148 1.1623-.272 1.5222-.067.1936-.12.3484-.123.4708-.008.3502.44.7003.528.7597.008.0051.016.0099.024.0148.091.0542.206.1226-.345.5376-.424.3179-.836 1.0553-1.182 1.6729-.07.1258-.138.2466-.202.3578-.099.1705-.19.3187-.272.4281-.396.5315-.99.872-1.956.8946-.9155.0213-1.4583-.4984-1.7791-.8053l-.0498-.0475c-.1146-.1087-.2989-.4524-.5141-.8535-.3726-.6948-.8377-1.5621-1.1931-1.6791h.0049Zm-1.1371 29.7924c-.0465-.8464.5188-2.4187.5188-2.4187.0375-.0833.0676-.1695.0899-.2577.015-.0589.0265-.1187.0345-.1791.0083-.0616.0128-.1237.0137-.1863-.0193-.2789-.0822-.553-.1864-.8126l-1.8291-6.2632c-.1099-.3252-.2-.6566-.2698-.9926.0061-.3412.1048-.6743.2858-.9636l1.2463-2.0284c.6002 4.697 1.6024 9.8827 1.8082 10.9475.041.212.0503.2606.0187.1094.1278.615-.1423.8772-.1423.8772l-.8271.9732s-.3822.5492-.35 1.0053c.0128.1933.1321.3983.2488.5555.0457.0616.091.1159.1294.1592.0604.0682.1036.1093.1036.1093l.0128.024h-.1446s-.7194.0931-.7596-.6424l-.0016-.016Zm7.2513.6568c-.787.053-1.508.0273-1.508.0273s-.392-.0643-.72-1.0086l-.03-13.5945s-.003-.0153-.01-.0353c-.004-.0109-.01-.0233-.018-.0353-.003-.0048-.006-.0097-.01-.0142l-.004-.0046c-.02-.0218-.05-.0382-.092-.0359-.046.0027-.082.0278-.107.0566-.014.016-.025.0331-.034.0482-.005.0103-.01.0196-.013.027-.004.0097-.006.016-.006.016v13.6507c-.384 1.1129-.8546 1.0198-.8546 1.0198s-2.3061-.0963-2.3093-.0995c-1.317-.771-.4193-1.7586-.4193-1.7586l.6826-.8335c.0994-.0791.1799-.1794.2355-.2936.0555-.1142.0847-.2393.0857-.3664-.013-.2286-.0474-.4556-.1027-.6778 0 0-2.1794-11.0458-2.2324-16.0517-.0594-6.1026 2.2484-8.4971 2.2484-8.4971s.88 1.8018 2.7731 1.7633c1.841-.0369 2.594-1.8372 2.594-1.8372s.737.4962 1.559 3.1718c.563 1.8436.924 3.4576.921 4.7456-.016 5.9807-2.335 17.0234-2.335 17.0234-.046.2336-.031.4748.043.7012.074.2259.205.4297.379.5915 0 0 .79.7806.789 1.2992-.005.184-.056.3637-.15.522-.094.1584-.226.2898-.385.3822 0 0-.166.0219-.373.0462-.2.0237-.439.0496-.602.0598l.005-.008Zm3.455-9.9796c-.175.5981-.403 1.3738-.646 2.1891l-.193.6461c-.483 1.6141-.962 3.2148-.986 3.5888.019.2229.091.4378.212.6263.35.6965.584 1.4457.692 2.2179.04.4528-.633.5138-.633.5138s-.189.0273-.482.0627l.098-.0546s.46-.5381.339-.9635c-.18-.6424-1.034-1.521-1.034-1.521-.117-.141-.192-.3126-.215-.4947-.013-.2702.015-.5409.083-.8029 0 0 1.124-5.8104 1.791-10.7729l1.145 1.9127c.052.1349.099.2718.139.4104.024.0816.046.1639.066.2466.017.0713.033.1432.047.2152-.019.2793-.052.5575-.099.8334l.009-.0032s-.056.1945-.151.5232l-.182.6266Zm-5.951-19.9685c.336 0 .726-.1606.705-.4208-.012-.1471-.055-.2505-.095-.3433-.03-.0715-.057-.1368-.066-.2108-.019-.1701.428-1.9271.498-2.054.071-.1269.138-.3614 1.625-.1783.151.0183.226.0542.261.0901.05.0521.019.1043.019.1043s.085.5877-.015.713c-.026.0331-.183.1019-.398.1956l-.002.0009c-.595.2602-1.631.7127-1.548 1.1348.031.227.09.4494.175.6617-.013.1316-.063.2569-.143.3622-.037.0478-.079.0908-.125.1278-.056.0447-.119.0809-.186.1074-.419.151-.506.1848-.501.3999.005.2152.56.3727.752.3678.133-.0034.315-.1659.413-.149.015.0027.028.0096.039.0223.007.0081.013.0186.017.0318.008.0229.012.054.012.0949 0 .3356-.281.4561-.499.4818-.066.0078-.151-.0246-.245-.0734l-.022-.0113-.026-.0144-.038-.0214-.038-.0219-.047-.0276-.008-.0047c-.173-.1018-.356-.2092-.501-.2059-.2828.0064-.7068.3726-.9381.3773-.2312.0049-.6745-.3099-.6777-.4641.0033-.0652.0321-.1267.0801-.1711.048-.0444.1114-.0684.1768-.0665.0527 0 .1127.0439.1775.0913.0774.0568.1615.1184.2481.1159.0141-.0005.0312-.0022.0506-.005.0168-.0025.0352-.0058.055-.0099.0193-.0039.0399-.0086.0613-.0139.0242-.0062.0495-.0131.0754-.0206.0929-.0273.1932-.0638.2753-.1041.1008-.0496.1742-.1051.173-.1566 0-.2118-.0996-.297-.5188-.4817-.0452-.0162-.0883-.0375-.1283-.0634-.0503-.0326-.0958-.0725-.135-.1184-.0705-.0825-.1181-.1821-.1382-.2887 0-.0614.0206-.1693.0432-.288.0283-.149.0599-.3151.0581-.4267-.0033-.2008-.1301-.6007-1.1242-.803-.9187-.1928-.8689-1.2848-.8689-1.2848s.0241-.1879.1847-.191c.0189-.0005.0525-.0017.0973-.0039l.0823-.0038c.3886-.0184 1.2266-.058 1.3461.0077.1461.0803.7002 1.5159.7147 2.2129 0 .1277-.0326.2352-.0634.3372-.0142.0467-.028.0924-.0381.1382-.0104.0475-.0169.0952-.0158.1446.0048.2007.2425.3757.734.387v-.0064Zm-1.4101-2.1649c.0964-.2811-.7805-.6134-.8223-.3678-.061.3438.6199.5108.8223.3678Zm2.8621-.1462c.221.212 1.061-.024.865-.3308-.12-.1878-1.087.1172-.865.3308ZM58.925 41.5456c0-3.8656.7388-7.6412 1.3812-9.5187.3212-.9379.758-1.2959 1.1836-1.2959.7997 0 .8511.7145.8511 1.9656v8.804c0 1.2992-.0112 2.5695-.6857 2.7301v.1783h2.5021v-.2007c-.6648-.2007-.6745-1.3635-.6745-2.5696V32.634c0-1.2093.0097-2.507.6745-2.7301v-.2008h-4.5674v.2008c.4256.1124.3726 1.2076.1863 1.7665C58.281 36.2732 58 42.4786 58 44.4058h1.8484v-.2008c-.7049-.1557-.9234-1.5352-.9234-2.6594Zm8.8537-10.1658 1.1515 7.1499c-.5396-1.2061-1.3282-1.81-2.0973-1.7874l.9458-5.3625Zm-1.7023 10.0326.5942-3.5541c1.6702.0676 2.8538 2.7494 2.8538 4.7826 0 .7821-.1349 1.3844-.5091 1.5643v.2007h2.3576v-.2007c-.416-.2232-.4818-.8272-.6328-1.6317L68.964 31.5806c-.0529-.288-.084-.5794-.0932-.872 0-.4465.114-.6921.3003-.803v-.2008h-2.3045v.2008c.1766.0674.3212.3212.3212.7162-.0167.4359-.0704.8694-.1606 1.2961l-1.6574 9.4945c-.1189.7016-.2798 1.3957-.4818 2.0781-.1606.4689-.2907.6022-.5396.7147v.2007h2.1247v-.2007c-.3019-.045-.5718-.4914-.5718-1.2061.0109-.5324.0647-1.063.1606-1.5867h.0145Zm8.0122 2.9934v-.1911c-.6649-.1381-.6761-1.4566-.6761-2.7301v-6.6134h3.0947v6.7578l-.0005.0588c-.011 1.2509-.021 2.4002-.674 2.5108v.2007h2.4909v-.2007c-.6522-.1799-.6632-1.4355-.6741-2.6667l-.0005-.0635v-9.003l.0005-.0572c.0109-1.2072.021-2.3353.6741-2.5123v-.2008h-2.4909v.2008c.6531.1119.6633 1.3517.6735 2.6068l.001.1233v1.1612h-3.0947v-1.3169c0-1.2511.0112-2.409.6761-2.5696V29.7h-2.4925v.2007c.6649.2055.6746 1.5015.6746 2.7302v9.0046c0 1.2062-.0097 2.3688-.6746 2.5695v.2008h2.4925Zm8.8553-.2006v.2007h-2.4925v-.2007c.6649-.045.6761-1.2287.6761-2.5696V30.8659c-1.2671 0-2.0573.8705-2.4507 3.0386l-.0931-.0676.5075-4.426c.1349.3807.4159.2906.6134.2906h3.986c.1976 0 .4818.0901.6136-.2906l.509 4.4244-.0947.0675c-.3935-2.1681-1.1836-3.0385-2.4491-3.0385v10.6364c0 1.3618.0096 2.6579.6745 2.7029v.0016Zm6.0337-5.6755-1.1443-7.145-.9435 5.3576c.7596-.0226 1.5482.5813 2.0878 1.7874Zm-2.2484-.6714-.599 3.5541c-.096.5237-.1496 1.0543-.1606 1.5867 0 .7147.2698 1.1611.5717 1.2061v.2007H84.423v-.2007c.2489-.1125.379-.2458.5396-.7147.194-.6822.3463-1.3756.4562-2.0765l1.6717-9.4961c.0406-.1915.0738-.3844.0995-.5782.0157-.118.0286-.2364.0387-.355.0104-.1207.0178-.2416.0224-.3629 0-.395-.1461-.6488-.3212-.7162v-.2008h2.3046v.2008c-.1863.1109-.3019.3565-.3019.803.0092.2926.0403.584.0932.872l1.7762 10.9929.0188.1013.0251.1375c.1243.6845.2166 1.1924.5888 1.3929v.2007h-2.3591v-.2007c.3725-.1799.5091-.7822.5091-1.5643 0-2.0332-1.1837-4.715-2.8555-4.7826Zm24.5328 3.9089v-6.0015c2.385 0 3.267 2.2645 3.267 4.394 0 1.8324-.826 3.3051-2.281 3.3051-.992 0-.992-.0195-.987-1.3697.001-.1016.001-.2108.001-.3279Zm-1.261-9.3532v9.2842c0 1.2238-.011 2.4089-.745 2.6048v.2041h3.427c2.225 0 3.175-1.6302 3.175-4.28 0-2.7863-1.479-5.4796-4.596-5.4796V32.573c0-.2367-.004-.442-.008-.6201-.024-1.1187-.025-1.1689 1.211-1.1689 1.399 0 2.271.8833 2.706 3.0802l.103-.0674-.562-4.4839c-.148.3855-.458.2939-.675.2939h-4.77v.2039c.734.204.734 1.4454.734 2.6033Zm11.382 6.1365-1.274-7.2446-1.042 5.4346c.848-.0241 1.718.5878 2.316 1.81Zm-2.488-.6778-.665 3.599v.0016c-.107.529-.168 1.0665-.183 1.606 0 .7244.297 1.1789.63 1.2237v.2041h-2.338v-.2041c.274-.114.424-.244.595-.7258.037-.1162.073-.2329.107-.3499.094-.3217.178-.6461.252-.9728.028-.1211.054-.2425.079-.3642.028-.1391.055-.2787.08-.4186l1.845-9.623c.098-.4314.155-.8713.172-1.3136 0-.4032-.161-.6568-.357-.7244v-.2039h2.546v.2039c-.208.1142-.333.3631-.333.8158.006.1564.018.3125.037.4677.017.1393.039.2779.066.4156l1.961 11.1407.03.1485.028.1339c.135.6722.236 1.1706.64 1.3701v.2041h-2.601v-.2041c.412-.1814.56-.7932.56-1.5851 0-2.0605-1.305-4.7778-3.151-4.8452Zm8.698 6.4305v.2039h-2.891v-.2039c.773-.2041.784-1.3812.784-2.605v-9.125c0-1.2447-.011-2.5585-.784-2.7624v-.204h2.891v.204c-.772.1606-.783 1.3363-.783 2.6033v1.333h3.602v-1.1772l-.002-.1219c-.011-1.2732-.023-2.5297-.782-2.6404v-.2039h2.891v.2039c-.759.1787-.771 1.3228-.783 2.546l-.001.0574v9.1266l.001.0635c.012 1.2473.025 2.5203.783 2.6988v.2072h-2.891v-.2039c.759-.1123.771-1.278.783-2.5471l.001-.0579v-6.8607h-3.602v6.7034c0 1.2848.011 2.6257.783 2.7623Zm5.851-14.6964v.2039c.756.2265.769 1.5177.769 2.7623v9.1252c0 1.2238-.013 2.3784-.769 2.6048v.2041h2.834v-.2041c-.756-.1364-.767-1.4775-.767-2.7623v-4.9366l1.124-1.72c.631 1.3166 1.164 2.6785 1.594 4.0744.307 1.0421.863 3.2601.863 4.4612 0 .498-.165.8159-.413.8833v.2041h2.597v-.2041c-.484-.1215-.677-1.0699-.839-1.8682-.02-.0974-.039-.1926-.059-.2837l-.225-1.0407c-.613-2.9438-1.393-5.4812-2.611-7.6765l.887-1.4037c.05-.0781.101-.1564.151-.2343.617-.962 1.206-1.8797 2.058-1.9852v-.2039h-2.847v.2039c.191.045.321.1366.321.5429 0 .7746-1.06 2.4394-1.491 3.116l-.092.1457-1.017 1.5627v-2.7639c0-1.2672.011-2.4668.768-2.6034v-.2039h-2.836Z"/>
</svg>