<svg xmlns="http://www.w3.org/2000/svg" viewBox="0 0 200 50">
	<path class="bg-logo" fill="#0039A6" d="M0 0h200v50H0z"/>
	<path fill="#fff" d="M49.6123 43H28.3877C24.3145 43 21 39.6855 21 35.6123V14.3877C21 10.3145 24.3145 7 28.3877 7h21.2246c4.0732 0 7.3843 3.3145 7.3843 7.3877v21.2246C57 39.6855 53.6855 43 49.6123 43ZM39.0012 22.896l-.0046.0079 7.5474 13.0716c1.0282 1.7804 3.3045 2.3894 5.0848 1.3611 1.7871-1.0283 2.396-3.3045 1.3678-5.0882L42.2312 13.6062c-.4624-.7988-1.1734-1.3615-1.9784-1.6469-1.0224-.3682-2.1622-.2641-3.1062.2819-1.7804 1.0283-2.3894 3.3045-1.3611 5.0849l3.2157 5.5699Zm-.2386.4183-3.4132-5.7359c-.3978-.69-.6195-1.4944-.5482-2.2953L25.0036 32.247c-1.0282 1.7838-.4159 4.06 1.3644 5.0882 1.7804 1.0283 4.0599.4193 5.0849-1.361l7.3097-12.6599Zm.2402 14.6508c2.1166 0 3.8303-1.7105 3.8303-3.8304 0-2.1131-1.7171-3.8302-3.8336-3.8302-2.1165 0-3.8303 1.7171-3.8303 3.8302 0 2.1165 1.7171 3.8304 3.8336 3.8304Zm33.3648-20.4436c.03-.569.1698-.9717.416-1.2179.2429-.243.609-.3661 1.0982-.3661h7.7536c1.0084 0 1.5142.5291 1.5142 1.584v14.5657c0 .1731-.03.2862-.0932.3328-.0632.0466-.183.0699-.3561.0699h-2.01c-.1563 0-.2695-.0233-.3427-.0699-.0699-.0466-.1065-.1597-.1065-.3328V18.4666h-5.2246l-.1431 2.0599c-.1264 1.7638-.2529 3.3411-.386 4.7288-.1332 1.3877-.3627 2.5923-.6922 3.6173-.3261 1.0283-.8053 1.8702-1.4309 2.5292-.6257.6622-1.4942 1.1613-2.5957 1.4941-.1564.03-.2862.0266-.3894-.0134-.0998-.0399-.183-.1463-.2462-.3194l-.4991-1.3977c-.03-.1431-.0367-.2595-.01-.3527.0232-.0965.1197-.183.2961-.2596.659-.2862 1.1781-.6489 1.5474-1.0915.3694-.4392.659-1.0316.862-1.7703.2062-.7421.3593-1.6707.4625-2.7788.1031-1.1115.2163-2.4858.3428-4.1264l.2329-3.2646Zm24.5857 8.7027c0 2.0964-.4858 3.7072-1.4543 4.8353-.9716 1.1247-2.4159 1.6905-4.3393 1.6905-1.9069 0-3.3277-.5491-4.2695-1.644-.9384-1.0948-1.4044-2.6988-1.4044-4.8119 0-1.0383.1398-1.9634.426-2.7654.2829-.802.6789-1.4809 1.1814-2.0333.5058-.5524 1.1048-.9717 1.8103-1.2645.6988-.2896 1.4775-.436 2.3294-.436 1.8735 0 3.2978.5724 4.2695 1.7138.9684 1.1415 1.4509 2.7154 1.4509 4.7155Zm-2.8119.0699c0-.5691-.04-1.1115-.1298-1.6173-.0865-.5092-.2363-.9551-.4493-1.3444-.213-.3895-.5024-.6922-.8752-.9152-.3693-.2229-.8385-.3328-1.4076-.3328-.5025 0-.9451.1066-1.3245.3194-.3761.213-.6922.5026-.9451.8687-.2528.366-.4358.7986-.5557 1.3078-.1165.5058-.1763 1.0515-.1763 1.6373 0 1.3177.2129 2.3527.6355 3.1015.426.7553 1.1814 1.1314 2.2696 1.1314.5523 0 1.0183-.1131 1.3943-.3461.3794-.2263.6822-.5325.9118-.9151.2263-.3795.3927-.8187.4959-1.3179.1032-.4959.1564-1.0216.1564-1.5773Zm27.2546 4.7654c.972-1.1281 1.454-2.7389 1.454-4.8353 0-2.0001-.482-3.574-1.451-4.7155-.971-1.1414-2.392-1.7138-4.269-1.7138-.849 0-1.627.1464-2.33.436-.702.2928-1.307.7121-1.81 1.2645-.502.5524-.898 1.2313-1.181 2.0333-.283.802-.426 1.7271-.426 2.7654 0 2.1131.469 3.7171 1.404 4.8119.939 1.0949 2.363 1.644 4.27 1.644 1.923 0 3.371-.5658 4.339-1.6905Zm-1.484-6.3827c.083.5058.13 1.0482.13 1.6173 0 .5557-.054 1.0814-.157 1.5773-.099.4992-.266.9384-.492 1.3179-.233.3826-.536.6888-.912.9151-.379.233-.845.3461-1.398.3461-1.088 0-1.84-.3761-2.269-1.1314-.423-.7488-.636-1.7838-.636-3.1015 0-.5858.06-1.1315.176-1.6373.117-.5092.307-.9418.56-1.3078.252-.3661.569-.6557.945-.8687.376-.2128.822-.3194 1.324-.3194.566 0 1.035.1099 1.405.3328.366.223.662.5257.875.9152.209.3893.359.8352.449 1.3444Zm7.025 7.8131c-.506 0-.852-.1031-1.042-.3095-.189-.203-.286-.5424-.286-1.015V17.5448c0-1.0715.503-1.6073 1.514-1.6073h8.915c.173 0 .283.0366.33.1065.05.0699.069.193.069.366v1.6073c0 .1565-.019.2662-.069.3296-.047.0632-.157.0931-.33.0931h-7.52v3.6639h3.88c.898 0 1.66.0898 2.289.2729.632.1797 1.162.4226 1.598.7221.432.2995.778.6356 1.041 1.005.26.3693.46.7521.593 1.1481.133.3926.219.772.259 1.1347.037.3628.06.6856.06.9685 0 .7387-.146 1.4275-.439 2.0565-.29.629-.689 1.1747-1.192 1.6306-.502.4559-1.095.8087-1.773 1.0649-.676.2529-1.401.376-2.173.376h-5.724v.0067Zm8.299-5.3112c0-.7521-.239-1.3809-.722-1.8935-.482-.5091-1.178-.7653-2.093-.7653h-3.903v5.3677h3.856c.566 0 1.032-.0899 1.395-.2729.363-.1797.652-.4027.875-.6722.223-.2662.372-.5591.462-.8819.087-.3161.13-.6123.13-.8819Zm15.038 4.7393c.299-.1364.45-.3993.45-.7786h-.004v-7.0883c0-1.3876-.379-2.4426-1.149-3.168-.761-.7254-1.963-1.0882-3.603-1.0882-.692 0-1.434.0532-2.223.1531-.789.1031-1.514.2829-2.176.5324-.203.0799-.273.2429-.21.4959l.33 1.3444c.029.1431.083.2296.163.2596.079.0332.206.0232.379-.0233.392-.1265.905-.2363 1.537-.3328.63-.0931 1.211-.1398 1.751-.1398.503 0 .915.0499 1.228.1531.313.1031.562.2462.742.4359.183.1898.306.4127.37.6623.062.2529.093.5291.093.8286v.4026h-2.649c-.946 0-1.745.1166-2.4.3528-.652.2363-1.188.5491-1.597.9351-.406.386-.706.8353-.885 1.3477-.18.5126-.273 1.045-.273 1.594 0 .5391.08 1.045.239 1.5275.157.4826.436.8985.838 1.2546.403.3527.946.639 1.635.8519.685.2096 1.548.3195 2.589.3195.376 0 .776-.0133 1.192-.04.419-.0199.845-.0665 1.267-.1298.422-.0632.838-.1464 1.241-.2595.403-.1098.776-.2429 1.125-.4027Zm-4.612-5.2446h2.262v3.4742c-.206.0766-.432.1398-.674.1864-.244.0499-.477.0865-.696.1198-.223.0332-.432.0499-.629.0599-.196.01-.347.0133-.46.0133-.755 0-1.36-.1331-1.82-.4026-.452-.2662-.681-.7388-.681-1.4177 0-.4725.092-.8419.272-1.1115.18-.2695.409-.4759.686-.6157.276-.1396.569-.2262.875-.2595.306-.0299.598-.0466.865-.0466Zm10.759 5.7336c-.08.0532-.213.0832-.399.0832h-1.711c-.173 0-.3-.0333-.386-.0965-.084-.0632-.13-.1897-.13-.376V20.5269c0-.1731.043-.2929.13-.3561.086-.0632.216-.0966.386-.0966h1.711c.186 0 .319.03.399.0832.08.0533.116.1764.116.366v4.2064h5.228v-4.2029c0-.1731.044-.2929.13-.3561.083-.0632.213-.0966.39-.0966h1.723c.206 0 .34.03.402.0832.064.0533.097.1764.097.366v11.491c0 .2063-.033.3361-.097.3893-.062.0532-.196.0832-.402.0832h-1.723c-.177 0-.307-.0333-.39-.0965-.09-.0633-.13-.1897-.13-.376v-5.035h-5.228v5.035c0 .2096-.036.3394-.116.3926Zm18.519-6.4991 4.006 6.1463c.067.0799.08.1897.041.2863-.044.0932-.137.1531-.24.1531h-2.522c-.08 0-.15-.04-.203-.0999l-3.641-5.4609h-2.084v5.178c0 .1731-.029.2796-.093.3195-.062.0399-.172.0599-.332.0599h-1.893c-.144 0-.25-.0233-.321-.0599-.069-.0433-.106-.1464-.106-.3195V20.4537c0-.1765.037-.2829.106-.3196.074-.0399.177-.0599.321-.0599h1.893c.16 0 .27.02.332.0599.064.0367.093.1465.093.3196v4.326h2.237l3.172-4.579c.049-.0599.12-.0931.195-.0931h2.454c.1 0 .195.0632.236.1563.039.0932.026.203-.041.2829l-3.61 5.3611Zm-64.253 6.1463-4.01-6.1463 3.608-5.3611c.07-.0799.086-.1897.04-.2829-.04-.0931-.134-.1563-.237-.1563h-2.449c-.077 0-.15.0332-.196.0931l-3.175 4.579h-2.233v-4.326c0-.1731-.033-.2829-.096-.3196-.064-.0399-.174-.0599-.33-.0599h-1.8901c-.143 0-.2495.02-.3194.0599-.0699.0367-.1065.1431-.1065.3196v11.6571c0 .1731.0366.2762.1065.3195.0699.0366.1764.0599.3194.0599h1.8901c.16 0 .27-.02.33-.0599.063-.0399.096-.1464.096-.3195v-5.178h2.083l3.644 5.4609c.05.0599.123.0999.203.0999h2.523c.099 0 .193-.0599.236-.1531.036-.0966.027-.2064-.037-.2863Z"/>
</svg>