<svg xmlns="http://www.w3.org/2000/svg" viewBox="0 0 200 50">
	<path class="bg-logo" fill="#000" d="M0 0h200v50H0z"/>
	<path fill="#fff" d="M144.938 7.09354c-1.109-.60063-2.319-.96201-3.574-1.06295-5.861-.46968-11.023 4.53501-10.321 10.50811.672 5.7166 6.558 9.8252 12.172 8.0684.568-.1778 1.151-.4119 1.752-.7026.031-.0149.04-.038.028-.0697-.121-.3069-.393-.7883-.61-.958-.171-.1345-.382-.1476-.634-.0393-1.098.4724-2.216.6995-3.355.6814-4.012-.0613-7.587-3.3109-7.895-7.3617-.324-4.2443 2.8-8.1252 7.063-8.63367 1.462-.17468 2.816.07768 4.196.63799.632.2564 1.022-.44222 1.22-.956.015-.04102-.003-.09109-.042-.11198ZM67.3883 15.6575c-.2813.4616-.5623.9347-.8429 1.4193-.0545.0934-.1096.0942-.1655.002-1.8695-3.0909-3.7288-6.173-5.5781-9.24633-.2584-.43009-.5182-.8453-.7793-1.24571-.0495-.0751-.1242-.09834-.2079-.05047-.0345.01961-.0732.04071-.1148.06338-.3705.20228-.9695.52916-.818.99553.062.19038.1444.37114.2474.54207 2.2524 3.72343 4.468 7.38903 6.647 10.99673.2819.4668.9037.7637 1.2669.1615 2.0706-3.4152 4.074-6.7289 6.0101-9.94081.0787-.13061.1329-.12115.1625.02819.2005 1.01892.4048 2.02492.6127 3.01822.8143 3.8957 1.6289 7.7911 2.4438 11.6861.0535.2554.1696.5885.4795.5986.3668.0127.744.0141 1.1316.0041.0687-.002.0959-.0371.0818-.105l-1.458-6.981c-.7238-3.4667-1.4474-6.9341-2.1709-10.40232-.0445-.20997-.0939-.40417-.1484-.58249-.1696-.55311-.7874-.71567-1.1659-.23313-.1016.12854-.1925.25975-.2725.39361-1.4489 2.42331-3.2359 5.38263-5.3611 8.87793Zm36.8437 2.8738c-.053-.0004-.097.0447-.097.0969l-.002 5.3389c0 .3159-.109.65-.475.6914-.318.0364-.641.0468-.968.0314-.047-.0021-.07-.0266-.07-.0738l.001-12.0141c0-.0706.056-.1302.126-.1353.196-.0145.377-.0137.542.0023.119.0116.237.0316.352.0633.469.1292.492.6834.492 1.0832l.005 3.329c.001.181.092.2726.274.2745.813.0115 1.605-.0262 2.376-.1129 1.444-.1626 2.863-1.2275 3.495-2.5247 1.337-2.7426-.149-5.80516-3.045-6.62384-.261-.07403-.614-.11198-1.06-.11405-.925-.00335-1.85-.00867-2.775-.01617-.733-.00502-.867-.6712-.766-1.25261.015-.0822.088-.14419.171-.1454.913-.01282 1.799-.01853 2.659-.01715 2.068.00375 4.079.73269 5.379 2.41256.946 1.22236 1.403 2.65076 1.256 4.19316-.248 2.6152-2.285 4.9552-4.904 5.3993-.985.1676-1.991.1242-2.966.1141Zm16.922-2.6285c.102.1394.215.2807.232.4583.006.052-.008.1043-.038.1474-1.72 2.43-3.422 4.8405-5.108 7.2315-.071.1009-.135.2095-.192.326-.016.0323-.011.0613.015.0868.266.2645.566.4597.902.5855.437.1634.722-.2557.937-.5643 1.761-2.5099 3.624-4.9679 5.301-7.5342.066-.1003.13-.2009.192-.3019.04-.064.038-.1262-.007-.1867-2.205-3.0284-4.408-6.0592-6.593-9.10192-.223-.31101-.407-.56879-.811-.61285-.479-.05254-.98-.05215-1.504.00098-.063.0067-.085.04012-.068.09996.029.09595.081.18379.14.26448 2.186 3.01073 4.387 6.04445 6.602 9.10095Zm7.043-9.14344c.159-.21903.36-.30282.616-.32904.501-.05117 1.014-.04407 1.539.02119.041.00542.051.02553.03.06053-.086.14737-.179.2904-.278.429-1.226 1.71809-2.46 3.45766-3.703 5.21876-.03.0423-.094.0456-.128.0061-.271-.319-.522-.6575-.752-1.0155-.136-.2113-.121-.431.043-.6592.895-1.23104 1.741-2.49813 2.633-3.73184ZM82.6155 6.4243c-.387 0-.6212.16886-.7026.50669-.072.2974-.1006.60161-.0858.91252.0021.04973.0447.09089.0949.09089l3.3054.00108c1.6509.0004 3.2833.0003 4.8971-.0001.2665 0 .637-.03026.7086-.35329.0774-.34798.1047-.70394.0818-1.06798-.0031-.05094-.0472-.09089-.0979-.09089-2.5309-.00335-5.2648-.00296-8.2015.00108Zm.8166 8.1713c1.2684.0041 2.645.0017 4.1295-.0071 2.0527-.0114 3.9984.6753 5.1027 2.5216.5753.9623.795 2.0343.6591 3.216-.2384 2.0716-1.8699 3.8834-3.9357 4.284-.3413.066-.8002.0969-1.3769.0929-2.0532-.0148-4.0949-.0172-6.1252-.0071-.0315 0-.0595-.0284-.0595-.0605V12.602c0-.0798.0433-.1339.1292-.1414.3684-.0312 1.1214.0041 1.2567.4735.1504.5249.1393 1.0276.1262 1.5656-.0014.0639.0299.0959.0939.0959Zm-.098 1.4778.0122 7.1609c0 .0313.0262.0575.0575.0575l4.8452-.0081c1.9583-.0032 3.6887-1.5806 3.6854-3.5754v-.1372c-.0033-1.9723-1.7405-3.5669-3.6975-3.5633l-4.8453.0081c-.0305 0-.0575.027-.0575.0575Zm-25.1774-1.3666c-.4808-.102-1.0705-.2271-1.2574.3874-.0444.1467-.0827.3012-.115.4633l-1.1489 5.7495c-.2123 1.064-.4236 2.1236-.6338 3.1789-.009.0466.0205.0894.0646.101.4876.113 1.3496.2887 1.4869-.3644.5814-2.7678 1.174-5.6878 1.7776-8.7598.0343-.1723.0606-.3442.0787-.5159.0081-.0764-.029-.1525-.0937-.1936-.0471-.0297-.1055-.0352-.159-.0464Zm20.6401 17.801c.0027-.1346.1019-.2079.2049-.2079 14.1807 0 26.0993.01 42.8223.01.127 0 .177.071.179.1888l.003.2019c.002.1117-.054.1676-.165.1676l-42.8585-.0011c-.1292 0-.1925-.0643-.1897-.1927l.004-.1666Zm-11.8527 9.1494c-.0262.0383-.0602.068-.1019.0888-.0458.0229-.0687.0088-.0687-.0424l.0141-2.7043c.0014-.1802-.0881-.2728-.2684-.2775l-.1676-.0041c-.1797-.004-.2699.0835-.2706.2625l-.009 3.9539c0 .0711.0589.1312.1302.1312l.4623-.002c.0652.0004.1183-.0565.1161-.1211-.0034-.0969.0199-.1817.0696-.2544.5539-.8035 1.14-1.6451 1.7585-2.5246.0177-.0251.0579-.0159.0636.0141.0262.1353.039.2669.0383.3947-.004.7807-.0064 1.5647-.0071 2.352 0 .0956.0478.143.1434.1423l.4149-.0019c.0982-.0007.1473-.0505.1473-.1495-.0006-1.2685.0014-2.5443.0061-3.8277.001-.1969-.0333-.3462-.2695-.3745-.3556-.0429-.3921.1096-.4367.2951-.0214.0894-.0447.1865-.1064.2732-.5807.8163-1.1336 1.6084-1.6585 2.3762Zm5.0966-.3663c-.0062.31-.0094.6156-.0094.9168 0 .2513.0021.4995.0064.7447.0013.0733-.0344.11-.1071.11l-.4754.002c-.0848.0006-.1272-.0413-.1272-.1262V38.949c.0007-.1521.0767-.2281.2281-.2281l.2868-.0011c.1265-.0006.1897.0626.1897.1898l.001 1.4819c0 .1036.0518.155.1555.1544l1.6494-.0121c.0581-.0006.1064-.049.107-.1071l.0232-1.5686c.0012-.0912.0537-.1484.1504-.1484h.2927c.0956.0007.1433.0485.1433.1434l.0021 4.0851c0 .0849-.0421.1272-.1262.1272l-.3513-.001c-.0765 0-.1272-.0427-.1272-.1262v-1.6413c0-.1103-.0552-.1648-.1655-.1636-.5088.0088-1.0175.0075-1.5262-.0009-.1037-.0016-.218.0381-.2201.1585Zm9.8883.0867c.0008-.0639-.0015-.2311.098-.2311l1.6867-.0111c.0716 0 .1312.0591.1312.1312v1.6837c.0005.0622.052.1141.1141.1141l.4694-.001c.08 0 .1204-.0401.1211-.1201.0033-1.1972.0037-2.418.001-3.6622 0-.1555-.0104-.3224-.0313-.4583-.0094-.0606-.0447-.0939-.106-.1l-.4108-.0181c-.1017-.0101-.1528.036-.1535.1383l-.008 1.5696c-.0006.065-.0546.1197-.1202.1201l-1.6897.0102c-.0556.0004-.102-.0455-.102-.101l-.0091-1.5929c-.0006-.0793-.0404-.1409-.1191-.1443h-.3563c-.0665-.0035-.1232.0702-.1232.1362l.0031 4.1125c-.0002.0619.0526.1124.114.112l.3644-.002c.0794-.0007.1192-.041.1192-.1212-.0014-.2682-.0015-.5355-.0002-.802.0012-.2549.0036-.5091.0072-.7626Zm6.4038 1.175c.3947-.109.5996-.5189.6723-.9165.0101-.0552.0431-.0862.0989-.0929.1339-.0168.2688-.0088.4048.0243.0603.0152.1028.0715.0999.1342-.0292.6389-.4794 1.3738-1.1739 1.4566-1.0667.1279-1.7659-.315-2.0976-1.3284-.0976-.2988-.1259-.7295-.0848-1.2921.0457-.6346.3089-1.144.7893-1.5283.3251-.2603.774-.36 1.3466-.2988.6693.0728 1.0841.6269 1.169 1.28.0038.0293-.0087.0568-.0313.0747-.1414.103-.5401.1403-.6027-.0818-.0848-.3038-.1655-.5592-.5218-.6369-1.4637-.322-1.5808 1.3385-1.3769 2.3187.1302.6268.6723 1.0618 1.3082.8872Zm4.1498-3.8105c-1.3446.3109-1.6696 1.8653-1.3587 3.0242.1292.4818.4257.8805.8893 1.1961.1548.1057.3237.1713.5067.1969 1.5959.221 2.2602-.9439 2.2501-2.3278-.0091-1.284-.8671-2.4175-2.2874-2.0894Zm1.3991 1.2203c.2634.6643.2533 1.5202-.1182 2.1642-.1938.3365-.5084.4873-.9437.4523-.4997-.0404-.8419-.4078-.9802-.8792-.1844-.6273-.1666-1.1975.0535-1.711.3846-.9025 1.606-.9943 1.9886-.0263Zm4.7382.7662c-.0579.0302-.0566.0581.004.0838.5613.2331.8116.5824.7843 1.183-.0323.7157-.6006 1.0831-1.3041 1.077-.525-.004-1.0502-.0074-1.5757-.01-.0209 0-.041-.0085-.0557-.0234-.0047-.0047-.0088-.01-.0121-.0157-.0071-.0122-.011-.0263-.011-.0407l.0151-4.0983c.0007-.0881.0448-.1362.1323-.1443.5397-.0525 1.1255-.0276 1.7574.0747.6278.101.9145.7278.8227 1.3001-.0525.326-.2897.4705-.5572.6138Zm-1.4556-1.2457v.9105c0 .0866.0726.1585.1584.1585h.5209c.3295 0 .6592-.244.6592-.5946v-.0383c0-.3502-.3299-.5945-.6592-.5945h-.5209c-.0865 0-.1584.0727-.1584.1584Zm-.0041 1.7897.0122 1.1609c.0004.0707.0601.1299.1312.1292l.7096-.0081c.3658-.0039.6973-.2947.6935-.6713l-.001-.0929c-.0038-.3764-.341-.6606-.7066-.6571l-.7097.0081c-.0708 0-.1298.0603-.1292.1312Zm5.7978-.7611c-.383-.0868-.673-.0555-1.028-.0767-.075-.004-.113-.0431-.113-.1171l-.014-1.4091c-.002-.1037-.054-.1602-.157-.1697l-.378-.0343c-.108-.01-.162.0387-.162.1464l-.002 4.1315c0 .0382.033.0722.072.0738.485.0168.988.0227 1.51.0181.546-.0047.924-.2052 1.135-.6016.424-.7974.046-1.7564-.863-1.9613Zm-1.146 1.9199-.008-1.282c-.001-.0603.049-.112.11-.112l.531-.003c.375-.0024.824.2359.827.6582l.002.1755c.003.4188-.443.668-.819.6703l-.531.003c-.061.0011-.112-.0498-.112-.11Zm13.386-1.5131c.059-.0895.11-.1844.153-.2846.105-.2448.21-.4894.316-.7337.149-.3424.298-.6844.447-1.0257.043-.098.143-.1616.251-.1586l.33.0102c.171.0046.218.0834.139.2362-.311.5976-.596 1.187-.856 1.7685-.134.2988-.278.5901-.422.8802-.225.4535-.449.9041-.627 1.3769-.021.0543-.076.0921-.134.0908l-.598-.0182c-.027-.0008-.046-.0297-.037-.0555.082-.2284.235-.423.357-.6311.08-.1377.153-.2762.218-.4157.077-.1605.037-.323-.036-.4744-.39-.8217-.779-1.6766-1.167-2.565-.02-.0483-.034-.1099.013-.1485.056-.0449.15-.0436.217-.0506.086-.0088.171-.0127.256-.0118.101.0012.196.0631.237.1564.251.572.493 1.1541.727 1.7464.038.0989.088.2012.151.3069.02.035.042.0352.065.0009Zm5.018 1.6423c-.445.0899-.908-.0817-1.137-.4612-.302-.5007-.381-1.073-.236-1.7171.148-.6602.464-1.1426 1.245-1.074.436.0382.59.3683.749.7093l.001.0033c.019.0404.049.0687.091.0849.107.0424.22.0545.338.0363.076-.0122.118-.0562.127-.1322.039-.3514-.199-.7349-.433-.9752-.153-.1588-.345-.257-.575-.2947-.55-.0898-1.208-.0434-1.624.3644-.796.7793-.873 2.0734-.439 3.0515.377.8489 1.33 1.2325 2.215.9377.581-.1938.828-.752.957-1.3284.031-.1345-.023-.2069-.16-.217l-.219-.0151c-.139-.0101-.226.0521-.26.1867-.084.3321-.27.7662-.64.8408Zm9.056-1.6342.857-1.9703c.063-.144.21-.238.366-.2362l.23.002c.058.0006.101.0107.13.03.066.0446.037.1355.009.1951-.153.3223-.304.6461-.456.9707-.269.5817-.541 1.1622-.826 1.7365-.201.4052-.388.8163-.559 1.2336-.045.1093-.155.1818-.273.1806l-.358-.005c-.128-.0013-.162-.0586-.103-.1717l.503-.969c.049-.0962.052-.2144.007-.3139l-1.228-2.678c-.056-.1239-.011-.2034.128-.208l.355-.01c.136-.0041.228.0579.276.1857.064.1678.136.3321.21.496v.0009c.229.5114.394 1.0463.675 1.5341.021.0376.04.0368.057-.0031Zm9.751-.8085c.094-.1292.141-.1138.141.0464l-.004 2.7739c0 .0854.043.1282.129.1282l.359-.001c.073-.0007.109-.0373.109-.1101l.014-4.1294c-.002-.046-.03-.0866-.078-.0969-.113-.0243-.248-.0267-.405-.0071-.064.0074-.1.043-.109.1069-.023.1602-.075.2988-.155.4159-.224.3261-.466.6754-.726 1.0479-.316.4529-.659.9401-1.029 1.4616-.022.0302-.043.0302-.064 0-.05-.0714-.074-.1491-.074-.2333.005-.5458.008-1.0825.009-1.6101.001-.3546.002-.7092.002-1.0637-.001-.0796-.046-.1314-.132-.1333l-.3-.006c-.115-.0021-.172.0544-.172.1695l-.005 4.077c0 .0664.056.121.122.1202l.372-.004c.039-.0007.066-.0196.079-.0566.045-.1191.078-.2241.152-.331.296-.432.591-.856.884-1.272.3-.4259.574-.8726.881-1.293Zm-76.9947-1.0761.0302-.2574c.0045-.0345.0347-.0614.0697-.0616l.3745-.003c.0907-.0009.1617.0855.1443.1747-.0134.0679-.0067.1305.0202.1877.0128.0276.0343.0411.0646.0404.3647-.0061.7292.1181 1.0932.3724.2457.1716.4216.4099.528.7147.429 1.2275-.2353 2.46-1.5788 2.5478-.1043.0067-.1484.0612-.1322.1635.0114.0747-.0463.1447-.1222.1464-.1345.0034-.256-.0021-.3644-.0162-.0872-.0118-.1264-.0744-.116-.1604.0064-.0611-.0383-.1172-.099-.1242-1.0646-.1212-1.6436-.6666-1.7372-1.6363-.11-1.1386.6087-1.9653 1.7433-2.0128.0411-.0017.0774-.0353.0818-.0757Zm0 3.1363.012-2.4812c0-.0232-.0213-.0242-.0383-.0242-.6429-.0038-1.1413.5576-1.1447 1.183v.1515c-.0033.6252.4899 1.1913 1.1306 1.1951.0174 0 .0404-.0006.0404-.0242Zm.6248-2.3803-.0101 2.2288c.0028.0704.0532.1304.1251.1364.3634.0289.638-.1232.8237-.4563.2594-.4643.322-1.3789-.1756-1.7725-.1783-.1401-.3892-.2299-.6127-.2645-.0785-.0125-.1478.0494-.1504.1281Zm14.7587 2.2581c.4005-.0134.7924-.0131 1.1761.001.0845.0038.1595.0637.1807.1454l.1867.7328c.0187.0739.0872.1274.1635.1272l.4825.0011c.0882.0006.1181-.0412.0898-.1252l-1.4101-4.1286c-.0209-.0599-.063-.0898-.1262-.0898l-.4109.001c-.0861.0007-.1433.0418-.1715.1232l-1.3981 4.0811c-.0303.0895.002.1349.0969.1362l.4492.004c.0848.0014.139-.039.1625-.1211l.2241-.7823c.0325-.1063.2244-.103.3048-.106Zm-.0433-.6723c.1002-.3411.2102-.689.3301-1.0437.0551-.1642.1052-.3402.1503-.5279.0209-.0909.0589-.0986.1141-.0232.0592.0821.1026.1703.1302.2654.1326.4616.2678.9136.4058 1.3557.0216.0687-.0311.1403-.103.1403l-.9024.001c-.0869.0004-.1488-.0857-.1251-.1676Zm27.1525 1.6798c-.037 0-.07-.0325-.071-.0697l-.007-4.0266c0-.1074.065-.2477.189-.2483h.319c.124-.0016.19.1392.191.2463l.007 4.0266c0 .0386-.032.0717-.071.0717h-.557Zm3.411-3.7208 1.628-.0192c.067-.001.122-.0555.125-.1222l.013-.3321c.004-.0902-.04-.1355-.13-.1362l-2.327-.0162c-.042 0-.078.0355-.078.0788v4.1941c0 .0424.036.0767.077.0767l2.435-.006c.075 0 .113-.0372.114-.1121l.003-.2423c.001-.0745-.06-.138-.135-.1393l-1.706-.0191c-.087-.0011-.161-.0684-.171-.1554-.036-.36-.036-.7178 0-1.073.011-.101.066-.1525.168-.1545l1.539-.0252c.065-.0007.098-.0334.098-.0979l.003-.3988c0-.0555-.046-.1019-.102-.1019l-1.622-.0031c-.047.0002-.086-.0366-.091-.0828-.029-.323-.029-.6453.001-.967.008-.0807.077-.1441.158-.1453Zm17.304-.0101c-.323-.0336-.645-.0295-.966.0122-.023.003-.042.0228-.045.0464-.087.7584-.163 1.571-.227 2.4377-.016.2128-.054.4381-.116.6763-.127.4881-.527.5432-.943.6006l-.074.0101c-.04.0054-.059-.0117-.058-.0514l.004-.3765c0-.0349.014-.0633.042-.0848.097-.0744.22-.1137.313-.1924.065-.0548.113-.1327.13-.2801.077-.6092.124-1.2224.177-1.8341.042-.4922.069-.9873.138-1.4768.008-.0546.057-.0969.112-.0969h2.216c.055 0 .103.0462.102.102l-.009 4.1295c0 .0741-.037.111-.111.111l-.462.0011c-.076 0-.115-.0384-.117-.1151-.018-1.08-.019-2.1332-.001-3.1595.002-.1245-.006-.2523-.026-.3836-.007-.0456-.034-.071-.079-.0757Zm7.869 3.6421-.002-3.5613c0-.0479.04-.0879.088-.0879l1.641.002c.048 0 .088-.0398.088-.0877l.003-.422c0-.0478-.04-.0879-.088-.0879l-2.349-.01c-.048 0-.088.04-.088.0878v4.1699c0 .0476.04.0878.088.0878l.531-.003c.048 0 .088-.0401.088-.0877Z"/>
</svg>