<svg xmlns="http://www.w3.org/2000/svg" viewBox="0 0 200 50">
	<path class="bg-logo" fill="#133371" d="M0 0h200v50H0z"/>
	<g fill="#fff">
		<path d="M42.9774 37.8367 30 24.9766v12.8601h12.9774ZM42.9775 37.8367l12.9728-12.8601v12.8601H42.9775ZM43.0054 12.1875v22.6387L31.5676 23.4836l11.4378-11.2961Z"/>
		<path d="M96.9231 12.8376v-.7147h-4.1373v.7377l.8897.0745.2199.1765v7.7639l-.2199.2321-.8897.0699v.7147h4.1467v-.6918l-.8749-.0693-.2342-.2322v-3.6108h.5428c.9456 0 1.343.6546 1.6195 1.3091l1.1371 2.7843v.5107h3.3132v-.6918l-.964-.0693-.393-.2505-.964-2.0931c-.4823-1.0632-.894-1.8197-2.0311-1.9682v-.0275c.454-.1903.7578-.5107 1.1231-1.3412l.5991-1.3927c.0967-.2495.2289-.4836.3929-.6958l.884.8029c.138-.0025.274-.0321.4-.0872.126-.0546.24-.1337.335-.2326.095-.099.169-.2158.218-.3434.049-.1275.072-.2632.068-.3999.007-.1551-.019-.3097-.079-.4535-.06-.1434-.151-.2719-.267-.3765-.116-.1041-.254-.1816-.404-.2265-.149-.0454-.308-.0566-.462-.0342-.9782 0-1.5634.7565-2.0595 1.8335l-.641 1.3921c-.454 1.0071-.7631 1.2116-1.3618 1.2116h-1.0063v-3.3139l.2342-.1994.8655-.0975Zm-16.8246 8.1817-3.3601-9.0127h-1.535l-3.2994 9.0408-.8751.1296v.7147h3.1542v-.7147l-.9358-.1021-.1452-.1856.8892-2.464h3.1871l.8749 2.4782-.1028.1903-.9361.0832v.7147h3.9452v-.7285l-.8611-.1439Zm-3.3601-3.4205h-2.4803l1.2682-3.5827 1.2121 3.5827Zm-6.7673-5.4759v2.3207h-1.0203l-.2199-1.281-.1918-.2275h-3.0093v3.397c.2023-.0229.4563-.0444.7124-.0607.1607-.0102.3222-.0183.4721-.0229.098-.0031.1911-.0046.2758-.0046 1.2307 0 3.7439.3622 3.7439 2.7849 0 2.5476-2.7285 2.8404-3.6784 2.8404h-4.563v-.6917l.8798-.0694.2293-.2321v-7.7644l-.2293-.1765-.8798-.0745v-.7377h7.4785Zm-4.4413 8.9388c.089 0 .1898.0051.2989.0112l.0457.0031c.1484.0086.3102.0178.4744.0178.6397.0541 1.2767-.1331 1.7832-.5244.1957-.1837.3472-.4086.4428-.6586.0957-.25.1329-.5183.1095-.7846 0-.9285-.5242-2.0651-2.2465-2.0651-.1663.0005-.3326.0087-.4981.025-.0674.0067-.1347.0148-.2018.0245-.0696.0097-.139.0209-.2081.0337v3.9174Zm19.6653 11.9685c0 3.0165-2.0266 5.105-5.0216 5.105-3.1402 0-4.8765-2.3436-4.8765-5.1514-.0273-.7025.0918-1.4034.3505-2.0585.2584-.6545.6504-1.2493 1.1519-1.7472.9208-.8418 2.1357-1.2963 3.3881-1.2667 2.8923-.0189 5.0076 2.0049 5.0076 5.1188Zm-7.0387-2.9237c-.4688.8826-.6994 1.8707-.6691 2.8681-.0263.9922.1888 1.9758.627 2.868.1923.4102.4971.7581.8795 1.004.3823.2464.8269.3811 1.2827.3882.7581 0 2.728-.6127 2.728-4.1766.0334-1.0243-.1969-2.04-.669-2.9517-.1985-.3846-.5-.708-.8713-.934-.3717-.2255-.7987-.3459-1.2346-.3469-.165.0015-.3288.0199-.4885.0551-.2573.0566-.5042.1566-.73.2959-.3658.2259-.6616.5478-.8547.9299Zm-15.7199 7.0727.9359-.102.2012-.2602v-7.718l-.1729-.1898-.9642-.0699v-.7147h3.8236v.4087l2.279 6.6783 2.2651-6.6692V28.12h3.8702v.7148l-.992.0693-.1638.2046v7.7644l.1638.2367.992.0694v.7147h-4.048v-.7147l.9078-.0694.1451-.2367v-7.8154h-.028l-3.0091 8.8178H67.589l-2.9341-8.7438h-.0235v7.6853l.2199.2602.9032.102v.7147h-3.318v-.7147Zm29.1328.8774c1.0061-.003 2.0039-.1806 2.9484-.5244l.0046-2.4926h-1.0532l-.365 1.7636-.2153.2184c-.0658.0153-.1321.029-.1984.0413l-.0827.0143-.1071.0163c-.1813.0255-.3642.0403-.5479.0439-2.4987 0-3.4348-1.9814-3.4348-4.1766 0-1.7217.5852-2.6966 1.1139-3.221.5824-.5602 1.3649-.8688 2.1763-.8586.4-.0041.7971.075 1.1649.2321l.2064.2505.2711 1.5411h1.0813v-2.4323c-.8992-.3347-1.8483-.5168-2.8079-.5383-1.3399-.0576-2.6563.3623-3.7115 1.1836-.5548.4856-.9941 1.0871-1.2871 1.761-.2931.6739-.4321 1.4039-.4071 2.1375-.0067.4602.05.9178.1673 1.3611l.0383.1367.0148.049.0339.1066c.0372.1127.0783.2239.1234.3341.2587.6306.6426 1.203 1.1295 1.6835.4941.4734 1.0818.8397 1.7263 1.0754.6449.2357 1.3318.3357 2.0176.2938Zm8.0912-9.932v.7147l-.8797.0699-.2342.2041v3.3368h1.0108c.5996 0 .9036-.204 1.3576-1.211l.641-1.3927c.496-1.0764 1.081-1.8564 2.059-1.8564.155-.0225.313-.0113.463.0336.15.0454.288.123.404.227.115.1046.207.2332.266.3765.06.1439.087.2985.079.4535.005.1368-.018.2725-.068.4l-.022.0536-.008.0173-.024.0475-.012.0219-.035.0561c-.016.0245-.033.0485-.051.0714l-.033.0393-.033.0362c-.095.099-.208.1781-.334.2327-.127.055-.263.0846-.4.0872l-.861-.7984c-.167.2112-.301.4454-.398.6958l-.599 1.3927c-.365.8306-.669 1.1509-1.123 1.3412v.0276c1.142.1438 1.549.9284 2.031 1.9681l.964 2.0931.393.2505.964.0694v.7147h-3.327v-.5102l-1.142-2.7848c-.276-.6545-.669-1.3131-1.6196-1.3131h-.5428v3.6103l.2342.2367.8797.0698v.7148h-4.1416v-.7428l.8938-.0694.2152-.2367v-7.7598l-.2152-.2041-.8938-.0699v-.7147h4.1416ZM113.569 30.38c0-2.0233-2.265-2.2554-3.14-2.2554h-4.525v.7147l.875.0694.234.2046v7.7598l-.234.2362-.875.0699v.7239h4.553c.936 0 3.683-.2643 3.683-2.7844 0-1.2947-.86-2.39-2.569-2.39h-.088v-.0281c1.094-.2785 2.086-.8494 2.086-2.3206Zm-4.439 2.09c-.063-.0005-.126-.0025-.189-.0061l.014-3.5455c.155-.0199.312-.0311.468-.0326.558-.0393 1.114.0933 1.592.3805.187.1674.333.3755.426.6081.051.126.085.2571.103.3908.015.1133.018.228.008.3423.02.2571-.018.5153-.111.756-.093.2408-.238.4582-.426.6362-.49.3316-1.075.4948-1.667.4642-.073.0046-.145.0067-.218.0061Zm.087 4.6072c-.103-.0072-.197-.0138-.276-.0138v-3.7547c.188-.0097.334-.0158.449-.0199.222-.0081.325-.0081.384-.0081.354-.0153.707.026 1.045.1209.192.054.38.125.56.2132.135.0913.254.2015.356.3265.046.0571.089.1173.127.1806.032.0515.06.1046.086.1592.126.2688.177.5657.147.8606.02.2617-.017.5239-.107.7703-.091.2464-.233.4714-.417.6591-.556.4923-1.432.5244-1.961.5244-.123 0-.246-.0097-.36-.0183h-.033Zm10.961-9.0546 3.355 9.0127.861.1439v.7147h-3.941v-.7147l.937-.0837.102-.1903-.875-2.4782h-3.182l-.875 2.4645.145.1857.936.102v.7147h-3.14v-.7147l.88-.1301 3.275-9.0265h1.522Zm-2.485 5.5922h2.485l-1.213-3.5965-1.272 3.5965Zm10.552 1.4856v-1.4295h-3.711v1.4295h3.711Zm9.599 2.4318c-.946.3438-1.946.5214-2.953.5244-.686.0424-1.373-.0576-2.018-.2933-.434-.1586-.842-.3765-1.212-.6463-.181-.1312-.352-.2745-.514-.4296-.487-.4805-.87-1.0529-1.13-1.6835-.258-.631-.387-1.3064-.377-1.9875-.025-.7336.114-1.4636.407-2.1375.293-.6739.733-1.2754 1.287-1.761 1.054-.8239 2.372-1.2437 3.711-1.1836.96.022 1.91.2041 2.808.5388v2.4318h-1.081l-.276-1.5549-.206-.2505c-.369-.1571-.768-.2357-1.169-.2321-.808-.001-1.585.3122-2.163.8724-.524.5244-1.109 1.4993-1.109 3.221 0 2.1952.936 4.1766 3.435 4.1766.316-.0057.629-.0444.936-.1158l.22-.2184.365-1.7636h1.053l-.014 2.4926Zm5.124-8.6929v-.7147h-4.127v.7147l.847.0694.234.2367v7.7277l-.234.2362-.847.0699v.7147h4.118v-.7147l-.875-.0699-.234-.2362v-.5525l4.507-5.5182v6.0707l-.22.2362-.889.0699v.7147h4.118v-.7147l-.847-.0699-.234-.2362v-7.7277l.234-.2367.847-.0694v-.7147h-4.118v.7147l.889.0694.22.2367v.4041l-4.498 5.5228v-5.9269l.235-.2367.874-.0694Zm15.674-.7147v2.5758h-1.006l-.249-1.555-.219-.1903h-1.746v7.918l.248.2362.936.0699v.7147h-4.366v-.7147l.935-.0699.249-.2362v-7.918h-1.746l-.234.1903-.234 1.555h-1.006v-2.5758h8.438Zm4.965.7147v-.7147h-4.118v.7147l.847.0694.234.2367v7.7277l-.234.2362-.847.0699v.7147h4.118v-.7147l-.88-.0699-.229-.2362v-.5525l4.498-5.5182v6.0707l-.22.2362-.894.0699v.7147H170v-.7147l-.847-.0699-.234-.2362v-7.7277l.234-.2367.847-.0694v-.7147h-4.118v.7147l.894.0694.22.2367v.4041l-4.498 5.5228v-5.9269l.229-.2367.88-.0694ZM85.6907 12.1229v.7147l-.8703.0975-.2339.2321v3.1649h4.212v-3.1884l-.2199-.2316-.894-.0745v-.7147h4.1187v.7147l-.8239.0975-.2293.2321v7.7088l.2293.2321.8468.0694v.7147h-4.1179v-.7147l.8938-.0694.2199-.2321v-3.671H84.61v3.671l.2339.2321.8751.0694v.7147h-4.1184v-.7147l.8471-.0694.2342-.2321v-7.7323l-.2671-.2086-.8468-.0745v-.7377h4.1227Z"/>
	</g>
</svg>