<svg xmlns="http://www.w3.org/2000/svg" viewBox="0 0 200 50">
	<path class="bg-logo" fill="#000" d="M0 0h200v50H0V0Z"/>
	<path fill="#d8232a" d="m90.7 40.2-1.6-2.8h-3.2l1.6-2.8-1.6-2.8-1.6 2.8 1.6 2.8 1.6 2.8h3.2Zm-4.9-2.8h-3.2L81 40.2h3.2l1.6-2.8Z"/>
	<g fill="#fff">
		<path d="M131.3 35.4c1.1-1.4 3.2-.8 3.6.9v-2h-.2c-.2.4-.4.4-.7.2h-.2c-3.2-1.1-5.5 2.8-3.4 5.2 1.2 1.3 3.7 1.2 4.8-.2l-.2-.2c-3 2.8-5.6-1.1-3.7-3.8ZM142.4 42.4v-.1h-.1l.1.1zM159.5 39.7s-.1.1-.2.1h-.2c-.5 0-.5-.4-.5-.8v-2.5h.9v-.3h-.9v-1.1c-.1.2-.2.3-.3.4-.2.2-.3.3-.3.4 0 0-.1 0-.2.2-.1.1-.3.2-.4.3h.5v2.7c0 .9.5 1.5 1.3 1.1.2 0 .4-.3.6-.6ZM100.1 40.1v-.2.2c-.3 0-.5 0-.6-.2-.2 0-.2-.3-.2-.6v-4.1c0-.6.2-.8.8-.8v-.2h-1.8l-2 4.5-2.1-4.5h-1.8v.2c.7 0 .8 0 .8.8v3.7c0 .9 0 1.1-.9 1.1v.2h2.1V40c-.9-.2-.9-.3-.9-1.2v-3.7l2.3 5h.2l2.4-5.2V39c0 .7 0 .8-.8.9v.2h3-.5Z"/>
		<path d="M101.6 39.2V36h-.2c-.3.2-.6.3-1.1.5h-.2v.2h.2c.4 0 .4.2.4.6v2.1c0 .5 0 .6-.3.7h1.6c-.6 0-.6-.2-.6-.8ZM104 39.9c-.5 0-.5-.4-.5-.8v-2.5h.9v-.3h-.9v-1.1c-.2.3-.3.4-.4.6-.2.3-.3.5-.8.8h.5v2.7c0 .6.2 1.1.8 1.1s.3 0 .5-.2c.2 0 .3-.2.5-.4v-.2c-.2.2-.3.3-.6.3Z"/>
		<path d="M106.7 38.1c-.6-.2-1.7-.7-1.1-1.5.6-.6 1.5 0 1.5.9v-1.2h-.2c-1.9-.8-3.1 1.4-1.1 2.3 0 0 .2 0 .3.1.3.1.6.3.6.5v.3c0 .4-.3.6-.7.6-.8 0-1.1-.6-1.2-1.3v1.5h.2c.6.2 1.5.3 2-.2.7-.6.4-1.5-.6-2ZM111.4 39.4v-3.2h-1.5v.2c.5 0 .6 0 .6.6v2.4c-.3.5-1.2.7-1.5.2-.1-.2-.1-2.2 0-3v-.3h-1.2v.2h.4c.2 0 .2.2.2.5v2.4c0 1.5 1.8 1.5 2.4.4v.7c.4-.2.6-.2.8-.3.1 0 .3 0 .4-.1v-.2c-.5 0-.6 0-.6-.5ZM120.1 38.1c-.6-.2-1.7-.7-1.1-1.5.6-.6 1.5 0 1.5.9v-1.2h-.2c-1.9-.8-3.1 1.3-1.1 2.3 0 0 .2 0 .2.1.3.1.6.3.6.5v.3c0 .4-.3.6-.7.6-.7 0-1.1-.6-1.2-1.3v1.5h.2c.6.2 1.5.3 2-.2.7-.6.4-1.5-.6-2ZM124.9 39.3v-1.8c.2-1.7-1.5-1.9-2.4-.7V34c-.3.2-.9.3-1.3.4v.2c.4 0 .6 0 .6.5v4.3c0 .6 0 .7-.6.8h1.9V40c-.6 0-.6-.2-.6-.8V37c.2-.4 1.2-.9 1.5-.3.2.3.2 1.5.2 2.2v.3c0 .7 0 .7-.6.8v.2h1.9V40c-.6 0-.6-.2-.6-.8ZM37.9 38l-.6-.3c-.9-.3-.8-1.4 0-1.4s.6.2.8.5v.1c0 .1.2.3.2.5v-1.2h-.4c-.8-.3-1.8.2-1.8 1.1s.5 1 1.1 1.3c0 0 .2 0 .3.1.3.1.6.3.6.5v.3c0 .4-.3.6-.7.6-.8 0-1.1-.6-1.2-1.3v1.4h.2c.6.2 1.5.3 2-.2.7-.6.4-1.5-.6-2ZM42.6 39.4v-3.2h-1.5v.2c.5 0 .6 0 .6.6v2.4c-.3.5-1.2.7-1.5.2-.1-.2-.1-2.2 0-3v-.2H39v.2h.4c.2 0 .2.2.2.5v2.4c0 1.1 1.1 1.5 1.9.9l.2-.2c.1-.1.3-.2.4-.4v.7c.4-.2.6-.2.8-.3.1 0 .3 0 .4-.1v-.2c-.5 0-.6 0-.6-.5ZM49.4 38l-.6-.3c-.9-.3-.8-1.4 0-1.4s.6.2.8.5v.1c0 .1.2.3.2.5v-1.2h-.5c-.8-.3-1.8.2-1.8 1.1s.5 1 1.1 1.3c0 0 .2 0 .3.1.3.1.6.3.6.5v.3c0 .4-.3.6-.7.6-.7 0-1.1-.6-1.2-1.3v1.5H48.8c1.5 0 2-1.7.5-2.4ZM64.3 37v-.8c-.2 0-.4.2-.7.2-.2 0-.5.2-.7.2v.2h.2c.4 0 .4.4.4.8v2c0 .6-.2.6-.6.6v.2h2.2v-.2c-.6 0-.8 0-.8-.6v-2c0-.3.4-.8.6-.8s.2 0 .3.2c.1 0 .2.2.3.2s.2-.2.2-.2v-.3c-.2-.8-1.1-.4-1.6.4ZM69 36.5h.3c.1 0 0 .2 0 .3v.2l-.8 2.3-1.1-2.3c-.2-.2-.2-.5 0-.6h.3v-.2h-1.9l.2.3v.2c.3 0 .4.2.6.6l1.4 3v.2c0 .2-.5 1.4-.8 1.4H67c-.1 0-.3-.1-.4-.1-.8 0-.5.9.2.9.8 0 1.1-.7 1.4-1.5 0-.1.1-.3.2-.4l1.4-3.7.2-.3c0-.2.2-.2.2-.2v-.2H69v.2ZM78.3 34.1c-1.1 0-1.5 1.1-1.5 2.1h-.7v.3h.7v2.8c0 .6-.2.8-.8.8v.3h2.4v-.2c-.7 0-.8 0-.8-.8v-2.8h1.1v-.3h-1.1v-1.5c0-.2.2-.3.5-.3h.2l.2.2.2.2h.4c.4-.5-.4-.8-.9-.8ZM32.9 12.6l5.5 8.1 5.6-8.1V25h2.9V9h-3.7l-4.8 7.1L33.6 9H30v16h2.9V12.6zM61.2 22.1c-.1 0-.2 0-.4.1-.5.2-.9.4-3.7.4s-4.5-1.2-4.5-5.6 1.1-5.6 4.5-5.6 3.3.3 4.1.6V9.2c-.3 0-.4-.2-.5-.2-.2-.2-.4-.3-3.9-.3s-7.1 2-7.1 8.3v.2c0 6.4 2.4 8.3 7.1 8.3s3.3-.3 4.4-.6v-2.8ZM101.3 15.5c.6-.4 1.2-.6 3-.6s2.4.6 2.4 1.9v8.3h2.8V16c0-2.3-1-3.7-4.1-3.7s-3.5.6-4.2 1.2v-1.1h-2.7v12.7h2.8v-9.7ZM115.3 18.7l5 6.3h3.4l-5.3-6.4 5-6.1h-3.5l-4.6 6V8h-2.8v17h2.8v-6.3zM150.8 25.4c1.9 0 3.3-.6 4.1-1.2l.2 1h2.4V12.6h-2.8v9.6s-.2 0-.3.1c-.6.3-1.1.5-2.7.5s-2.4-.6-2.4-1.9v-8.3h-2.8v9.1c0 2.4 1.1 3.7 4.2 3.7ZM163.2 19.4l2.3.6h.2c1.1.3 1.5.4 1.5 1.4s-1 1.3-2.4 1.3-3.1-.3-4.5-.8v2.7c.2 0 .4.2.6.2.6.3.9.4 3.9.4s5.3-1.4 5.3-3.7-1.1-3.1-3.3-3.7l-2.2-.6c-1.1-.3-1.5-.6-1.5-1.4s.4-1.1 2.4-1.1 2.8.2 4.1.6v-2.6c-.2 0-.3-.1-.5-.2-.4-.2-.8-.3-3.6-.3s-5.2 1.2-5.2 3.5 1.1 3.1 3.2 3.7ZM161.2 39.2V36h-.2c-.3.2-.6.3-1.1.5h-.2v.2h.2c.4 0 .4.2.4.6v1.3c0 .7 0 1.4-.1 1.5 0 0-.2.2-.6.2h2.1v-.2c-.6 0-.6-.2-.6-.8Z"/>
		<path d="M159.6 40.2h.1l-.1-.1v.1zM160.3 34.2c-.2.2-.2.5 0 .6 0 .2.2.2.3.2s.2 0 .3-.2c.3-.3 0-.8-.3-.8s-.2 0-.3.2ZM161.6 38.3c0 .6.2 1.1.6 1.5 2.1 2 4.6-1.2 2.8-3.1-1.3-1.3-3.6-.3-3.5 1.5Zm2.2 1.9c-1.5 0-1.9-3.7-.3-3.8 1.5 0 1.9 3.7.3 3.8Z"/>
		<path d="M169.6 40c-.2-.1-.2-1.7-.2-2.3v-.2c0-1.7-1.5-1.7-2.4-.6v-.6c-.2 0-.5.1-.7.2-.3 0-.5.2-.6.2v.2c.2 0 .4 0 .4.2v2.7c0 .5 0 .6-.5.6h1.9v-.2c-.4 0-.6-.2-.6-.6v-2.5c.2-.2.5-.5.9-.5s.6.4.6.9v.9c0 .7 0 1.5-.1 1.6 0 0-.2.2-.5.2v.2h1.9v-.2c-.2 0-.3 0-.4-.2ZM79.9 16.6h.3c1.3-.3 2-.5 2-3.5S80.4 9 76.8 9h-6.4v16.2h6.7c3.7 0 5.6-1 5.6-4.5 0-2.7-1.1-3.7-2.8-4.1Zm-6.7-5.1h2.9c2.4 0 3.1.2 3.1 1.9s-.6 2.2-2.5 2.2h-3.5v-4.1Zm3.4 11.1h-3.4V18h3.7c2.1 0 2.8.6 2.8 2.4 0 1.9-.8 2.3-3.1 2.3ZM84.6 21.2ZM93.1 25h2.2v-8.7c0-3.2-2.2-4.1-5.5-4.1s-2.9.2-4.1.5v2.4h.4c1-.3 1.5-.4 3.4-.4s3 .5 3 1.9v1.5c-.2 0-.3-.1-.4-.2-.4-.2-.7-.3-2.9-.3s-4.5.7-4.5 3.7c0 2.8 1.2 4 4.3 4s2.9-.4 3.9-1.2l.3 1Zm-.8-2.3c-.5.2-.9.3-2.4.3s-2.4-.6-2.4-1.7.6-1.5 2.4-1.5 1.7 0 2.6.2v2.6h-.3ZM134.8 19.3h2.9l3.7 5.8h3.3l-4.2-6.2h.2c1.9-.5 3.1-.7 3.1-4.7s-2.2-5-6-5h-6v16.1h2.9v-5.8Zm-.1-7.6h2.9c2.4 0 3.3.4 3.3 2.5s-1 2.5-3.3 2.5h-2.9v-5ZM33.2 40q-.2 0-.2-.2v-1.3c0-.7 0-1.4-.1-1.7-.5-1.1-3.2-.5-2.6.7 0 0 .2.2.3.2.4 0 .4-.4.3-.7 0-.6 1.1-.6 1.3-.2v2.5c0 .4-.5.6-.8.6-.9 0-.8-1.2 0-1.6.1 0 .3-.1.4-.2.1 0 .3-.1.4-.2-.2.1-.5.2-.7.3-.9.4-1.5.6-1.6 1.5 0 .8 1.1 1.1 1.7.7 0 0 .1 0 .2-.1.2 0 .3-.2.4-.3 0 .9 1 .8 1.4.2V40s-.2 0-.2.2h-.2ZM44.4 36.9v-2.8c-.1 0-.4 0-.7.2-.2 0-.5.2-.7.2v.2h.2c.3 0 .4 0 .4.4v4.7c0 .4 1.1.6 1.5.6 1.3 0 2.2-1.1 2.2-2.3.2-1.7-1.9-2.8-2.8-1.2Zm.9 3.2h-.6c-.2 0-.3-.2-.3-.3v-2.3c0-.2 0-.3.3-.5 1.9-1.1 2.6 3.2.6 3.2ZM51.9 39.2V36h-.2c-.3.2-.6.2-.8.3-.2 0-.3 0-.5.2v.2h.2c.4 0 .4.2.4.6v2.1c0 .7 0 .7-.7.8s2.2 0 2.2 0V40c-.6 0-.6-.2-.6-.8ZM51.4 35s.2 0 .3-.2c.2 0 .2-.2.2-.3 0-.2-.2-.5-.5-.5s-.2 0-.3.2c-.2.2-.2.5 0 .6 0 .2.2.2.3.2Z"/>
		<path d="M56.1 39.2V34c-.2 0-.5.2-.7.2-.2 0-.4.1-.6.2v.2c.4 0 .6 0 .6.5v1.5c-.2-.2-.5-.4-.9-.4-2.7 0-2.4 5.3.5 4.1.2 0 .3-.2.4-.4v.6l.7-.2.6-.2v-.2c-.4 0-.6 0-.6-.5Zm-.7.2c0 .3-.4.6-.8.6-1.4 0-1.6-2.2-1-3.1.5-.9 1.9-.6 1.8.6v1.9ZM54.4 36.2Z"/>
		<path d="M58.4 39.2V36h-.2c-.3.2-.6.2-.8.3-.2 0-.3 0-.5.2v.2h.2c.4 0 .4.2.4.6v2.1c0 .7 0 .7-.7.8s2.2 0 2.2 0V40c-.6 0-.6-.2-.6-.8ZM57.5 34.2c-.2 0-.2.2-.2.3s0 .2.2.3c0 .2.2.2.3.2s.2 0 .3-.2c.2 0 .2-.2.2-.3 0-.2-.2-.5-.5-.5s-.2 0-.3.2ZM62.4 39.9q-.2 0-.2-.2v-1.3c0-.7 0-1.4-.1-1.7-.5-1.1-3.2-.5-2.6.7 0 0 .2.2.3.2.4 0 .4-.4.3-.7 0-.6 1.1-.6 1.3-.2v1c-.2.1-.5.2-.7.3-.9.4-1.5.6-1.6 1.5 0 1.4 1.5 1.1 2.3.2 0 .9 1 .8 1.4.2v-.2s-.2 0-.2.2h-.2Zm-1-.7c0 .4-.5.6-.8.6-.9 0-.8-1.2 0-1.6.1 0 .3-.1.4-.2.1 0 .3-.1.4-.2v1.5ZM75.5 36.7c-1.3-1.3-3.6-.3-3.5 1.5 0 .6.2 1.1.6 1.5 2.1 2 4.6-1.2 2.9-3.1Zm-1.3 3.5c-1.5 0-1.9-3.7-.3-3.8 1.5 0 1.9 3.7.3 3.8ZM101.2 34.1s-.2 0-.3.2c-.2.2-.2.5 0 .6 0 .2.2.2.3.2s.2 0 .3-.2c.2-.2.2-.5 0-.6 0-.2-.2-.2-.3-.2ZM113.2 36.9v-2.8c-.2 0-1 .3-1.4.4v.2h.2c.3 0 .4 0 .4.4v4.7c0 .4 1.1.6 1.5.6 1.3 0 2.2-1.1 2.2-2.3 0-1.7-1.9-2.8-2.8-1.2Zm.8 3.2h-.6c-.2 0-.3-.2-.3-.3v-2.4c0-.4.6-.7.9-.6 1.5 0 1.6 3.4 0 3.4ZM115.8 40.2h.1l-.1-.1v.1z"/>
		<path d="M117.3 39.2V36h-.2c-.2.1-.6.3-1 .4h-.3v.2h.4c.3 0 .3.2.3.6v2.1c0 .7 0 .7-.7.8s2.1 0 2.1 0v-.2c-.6 0-.6-.2-.6-.8ZM116.6 34.2c-.3.3 0 .8.3.8s.2 0 .3-.2c.2 0 .2-.2.2-.3 0-.2-.2-.5-.5-.5s-.2 0-.3.2ZM127.1 39.2V36h-.2c-.3.2-.6.2-.8.3-.2 0-.3 0-.5.2v.2h.3c.3 0 .3.2.3.6v2.1c0 .7 0 .7-.7.8s2.2 0 2.2 0V40c-.6 0-.6-.2-.6-.8ZM126.7 35s.2 0 .3-.2c.2 0 .2-.2.2-.3s0-.2-.2-.3c0-.2-.2-.2-.3-.2s-.2 0-.3.2c-.3.3 0 .8.3.8ZM135.3 38.3c0 2.9 4.1 2.9 4.1 0s-4.1-2.8-4.1 0Zm2.3 1.9c-1.5 0-1.9-3.7-.3-3.8 1.5 0 1.9 3.7.3 3.8Z"/>
		<path d="M140.6 37v-.8c-.5.2-1 .3-1.4.5v.2h.2c.4 0 .4.4.4.8v2c0 .5-.2.6-.6.6h2.2v-.2c-.6 0-.8 0-.8-.6v-2c0-.3.4-.8.6-.8s.2 0 .3.2c.1 0 .2.2.3.2.2 0 .4-.2.4-.4-.2-.8-1.1-.4-1.6.4ZM144.2 36.4s-.2.1-.2.2-.2.1-.2.2v-.6l-.9.3-.4.2v.2c.4 0 .5 0 .5.5v4.7s-.2.2-.5.2h2.1v-.2c-.6 0-.8 0-.8-.6V40c1.3 1.2 2.9-.5 2.8-1.9 0-1.4-1.1-2.5-2.4-1.7ZM144 40c-.2 0-.2-.2-.3-.5v-2.3c.2-.7 1.3-.8 1.7-.2.8.9.2 3.7-1.4 2.9ZM150.4 36.7c-1.3-1.3-3.6-.3-3.5 1.5 0 .6.2 1.1.6 1.5 2.1 2 4.6-1.2 2.9-3.1Zm-1.3 3.5c-1.5 0-1.9-3.7-.3-3.8 1.5 0 1.9 3.7.3 3.8Z"/>
		<path d="M153.8 36.5c-.2-.8-1.1-.4-1.6.4v-.8c-.2 0-.5.2-.7.2-.2 0-.4.2-.7.2v.2h.2c.4 0 .4.4.4.8v.9c0 .7 0 1.6-.1 1.6 0 .1-.2.2-.4.2h2.2V40c-.6 0-.8 0-.8-.6v-2c0-.4.6-1.1.9-.6 0 .2.2.2.3.2s.2-.2.2-.2v-.3ZM150.8 40.2h.2-.2ZM156.9 39.9h-.1v-2.2c.2-1.5-1.5-1.8-2.4-1.1-.5.3-.6 1.1 0 1.1s.5-.2.3-.6v-.2c0-.6 1.1-.6 1.3-.2v1c-.2.1-.5.2-.7.3-.9.4-1.5.6-1.6 1.5 0 1.5 1.5 1.1 2.3.3 0 .9 1 .8 1.4.2v-.2s-.2 0-.2.2h-.2Zm-.9-.7c0 .4-.5.6-.8.6-.9 0-.8-1.2 0-1.6.1 0 .3-.1.4-.2.1 0 .3-.1.4-.2v1.5Z"/>
	</g>
</svg>