<svg xmlns="http://www.w3.org/2000/svg" viewBox="0 0 200 50">
	<path class="bg-logo" fill="#41A6E4" d="M0 0h200v50H0z"/>
	<g fill="#fff">
		<path d="M74.4471 22.7998c.2464 4.1879-2.2933 7.5816-8.5993 11.1044.5561-4.487-.0096-9.25-1.8769-11.8449 1.2881-3.0412 2.0979-6.322 2.1465-8.8938.3545.169 8.0019 4.0188 8.3297 9.6343Zm-11.0558-1.4331c-.1347-.1361-.2719-.2626-.4176-.3805-1.9438-1.5614-4.9024-2.049-9.1153-1.1796.8317-6.5152 5.1294-9.6841 11.4997-6.9846-.0024 2.4283-.7467 5.6215-1.9668 8.5447Z"/>
		<path d="M49.6469 22.2412c1.083-.4925 2.0883-.895 3.0304-1.2184-.0122.1143-.5621 3.6419.3909 8.4511-1.3161-.1289-2.8033-.4876-4.5078-1.0931-1.5577-.5521-3.2477-1.3558-4.7107-2.421 1.644-1.6708 4.0126-2.9002 5.7972-3.7186Zm-6.9436 2.7947c-1.6487-1.52-2.7838-3.4497-2.6988-5.8294.1578-4.1027 3.9226-7.1196 7.5381-8.9169 1.7313-.85723 15.789-7.27401 17.6489.5472.0182.0779.1336.8099.1397.8707-.1567-.3356-3.8559-1.5881-6.6483-.4633-4.0125 1.6245-5.4148 5.5741-5.887 8.805-.726.1775-1.4775.3939-2.2703.6445-2.5532.8183-5.8094 2.1522-7.8223 4.3422Zm11.0726-4.3527c3.1432-.8901 5.4536-.7345 7.089.2772.6895.4244 1.2892 1.1126 1.8004 1.9918-1.0502 2.1098-2.3456 3.9532-3.7709 5.0634-.6131.4852-1.2979.8634-2.0663 1.1175-.6908.2432-1.4569.3818-2.3032.4049-.5147-1.948-.7539-4.2997-.8036-6.8995-.0158-.6785 0-1.3291.0546-1.9553Z"/>
		<path d="M54.994 33.3676c2.274 2.5633 6.0206 2.7955 9.6895 1.8495-.3181 3.2382-1.3003 6.0167-3.0073 7.0564-3.3156 1.8215-11.0723-1.6659-15.8241-5.9608-1.7993-1.6136-3.1639-3.3415-3.692-4.9442-.2088-.6177-.2938-1.2184-.2343-1.7827.1311-1.1649.6774-2.2057 1.4617-3.1214 1.2796 1.1236 2.7207 2.0453 4.1169 2.7554 2.3662 1.1929 4.3755 1.8046 6.1153 1.914.3581.8499.8122 1.6015 1.3743 2.2338Zm3.5975-3.6139c1.7058-1.2208 3.2792-3.3974 4.5455-5.8963 1.2833 2.7907 1.8478 6.8752 1.6148 10.5281-.8172.3258-1.6354.5642-2.4331.687-2.1064.4134-4.0841.1568-5.5191-1.1904-.7321-.6896-1.3149-1.6332-1.7641-2.7713 1.3416-.1387 2.5083-.6055 3.556-1.3571ZM83.5399 23.1329c-.0813 0-.1504-.0285-.2074-.0855-.0569-.0569-.0854-.126-.0854-.2073v-7.9424c0-.0894.0264-.1626.0793-.2196.0528-.0569.124-.0854.2135-.0854h.9882c.1546 0 .2766.0773.366.2318l2.3546 4.3677 2.3547-4.3677c.0894-.1545.2114-.2318.366-.2318h.976c.0895 0 .1626.0285.2196.0854.0569.057.0854.1302.0854.2196v7.9424c0 .0894-.0285.1606-.0854.2135-.057.0528-.1301.0793-.2196.0793h-1.0492c-.0814 0-.1505-.0285-.2075-.0855-.0568-.0569-.0853-.126-.0853-.2073V17.594l-1.6959 3.2209c-.0894.1788-.2236.2684-.4025.2684h-.5124c-.1709 0-.3091-.0896-.4149-.2684L84.882 17.594v5.2461c0 .0813-.0265.1504-.0794.2073-.0528.057-.124.0855-.2135.0855h-1.0492Zm12.9949.122c-1.1143 0-1.9805-.2807-2.5986-.8419-.6182-.5612-.9435-1.3949-.976-2.501-.0082-.2359-.0123-.5815-.0123-1.037 0-.4636.0041-.8133.0123-1.0492.0325-1.0817.366-1.9113 1.0004-2.4889.6344-.5774 1.4925-.8662 2.5742-.8662 1.0736 0 1.9297.2888 2.5682.8662.6385.5776.974 1.4072 1.007 2.4889.016.4717.024.8215.024 1.0492 0 .2196-.008.5653-.024 1.037-.033 1.1061-.3605 1.9398-.9826 2.501-.6223.5612-1.4864.8419-2.5926.8419Zm0-1.4152c.545 0 .976-.1628 1.2932-.488.3172-.3254.488-.8256.5124-1.5007.0163-.488.0244-.8174.0244-.9882 0-.1871-.0081-.5165-.0244-.9882-.0244-.6669-.1993-1.1651-.5245-1.4945-.3254-.3295-.7524-.4941-1.2811-.4941-.5368 0-.9679.1646-1.2932.4941-.3253.3294-.4961.8276-.5124 1.4945-.0081.2359-.0122.5652-.0122.9882 0 .4148.0041.7442.0122.9882.0163.667.185 1.1651.5063 1.4945.3212.3294.7544.4942 1.2993.4942Zm5.5652 1.2932c-.082 0-.15-.0285-.207-.0855-.058-.0569-.086-.126-.086-.2073v-7.9424c0-.0894.027-.1626.079-.2196.053-.0569.124-.0854.214-.0854h5.587c.09 0 .163.0285.22.0854.057.057.086.1302.086.2196v.8663c0 .0894-.029.1606-.086.2134-.057.0529-.13.0794-.22.0794h-4.16v1.9398h2.038c.919 0 1.641.2277 2.165.6832s.787 1.0736.787 1.8544c0 .4636-.114.8927-.342 1.2871-.227.3945-.563.7117-1.006.9516-.443.24-.978.36-1.604.36H102.1Zm3.294-1.3055c.415 0 .744-.1261.988-.3781.244-.2522.366-.5653.366-.9395 0-.366-.116-.6649-.348-.8967-.231-.2318-.567-.3477-1.006-.3477h-1.867v2.562h1.867Zm4.711 1.3055c-.09 0-.161-.0285-.214-.0855-.053-.0569-.079-.1301-.079-.2196v-7.9301c0-.0894.026-.1626.079-.2196.053-.0569.124-.0854.214-.0854h1.134c.082 0 .151.0285.208.0854.057.057.085.1302.085.2196v5.5755l3.99-5.6731c.073-.1382.191-.2074.353-.2074h1.025c.09 0 .161.0285.214.0854.052.057.079.1302.079.2196v7.9424c0 .0813-.027.1504-.079.2073-.053.057-.124.0855-.214.0855h-1.122c-.089 0-.163-.0285-.22-.0855-.056-.0569-.085-.126-.085-.2073v-5.4536l-3.977 5.5389c-.082.1383-.199.2075-.354.2075h-1.037Zm14.727 0c-.081 0-.15-.0285-.207-.0855-.057-.0569-.086-.126-.086-.2073v-6.698h-2.635v1.5128c0 1.3421-.091 2.4015-.274 3.1782-.184.7768-.495 1.3461-.934 1.7081-.439.3619-1.053.555-1.842.5794-.081.0082-.152-.0182-.213-.0793-.061-.0609-.092-.1321-.092-.2135v-.9393c0-.0814.026-.1464.08-.1952.053-.0488.119-.0814.201-.0976.48-.0732.836-.4494 1.068-1.1286.231-.6791.347-1.6897.347-3.0318v-2.5497c0-.0895.029-.1607.085-.2135.057-.0529.127-.0794.208-.0794h5.416c.09 0 .164.0285.22.0854.057.057.086.1302.086.2196v7.9424c0 .0813-.029.1504-.086.2073-.056.057-.13.0855-.22.0855h-1.122Zm3.698 0c-.08 0-.15-.0285-.207-.0855-.057-.0569-.085-.126-.085-.2073v-7.9545c0-.0895.028-.1607.085-.2135.057-.0529.127-.0794.207-.0794h1.123c.089 0 .163.0285.22.0854.057.057.085.1261.085.2075v2.7816h1.562c.976 0 1.728.2297 2.257.6893.529.4596.793 1.1285.793 2.0069 0 .5287-.116 1.0024-.348 1.4213-.232.4189-.577.7483-1.037.9882-.459.24-1.015.36-1.665.36h-2.99Zm2.916-1.3787c.424 0 .755-.1281.995-.3843s.36-.5958.36-1.0187c0-.4311-.116-.7584-.348-.9821-.232-.2237-.567-.3355-1.007-.3355h-1.488v2.7206h1.488Zm4.882 1.3787c-.081 0-.15-.0285-.207-.0855-.057-.0569-.086-.126-.086-.2073v-7.9424c0-.0894.027-.1626.079-.2196.053-.0569.124-.0854.214-.0854h1.122c.09 0 .164.0285.22.0854.057.057.086.1302.086.2196v3.1355h3.562v-3.1355c0-.0894.028-.1626.085-.2196.058-.0569.127-.0854.208-.0854h1.135c.089 0 .16.0285.213.0854.053.057.079.1302.079.2196v7.9424c0 .0813-.026.1504-.079.2073-.053.057-.124.0855-.213.0855h-1.135c-.081 0-.15-.0285-.208-.0855-.057-.0569-.085-.126-.085-.2073v-3.2575h-3.562v3.2575c0 .0813-.029.1504-.086.2073-.056.057-.13.0855-.22.0855h-1.122Zm8.176 0c-.073 0-.134-.0244-.183-.0732-.049-.0488-.073-.1099-.073-.1831l.024-.1097 2.928-7.8692c.082-.2033.228-.305.439-.305h1.343c.211 0 .357.1017.439.305l2.928 7.8692.024.1097c0 .0732-.027.1343-.079.1831-.053.0488-.112.0732-.177.0732h-1.086c-.171 0-.289-.0773-.353-.2319l-.562-1.4761h-3.611l-.561 1.4761c-.066.1546-.183.2319-.354.2319h-1.086Zm2.428-3.1233h2.757l-1.379-3.7576-1.378 3.7576Zm12.775-5.4169c.09 0 .161.0265.214.0794.053.0528.079.124.079.2135v7.9545c0 .0813-.026.1504-.079.2073-.053.057-.124.0855-.214.0855h-1.122c-.09 0-.163-.0265-.219-.0793-.058-.0529-.086-.1241-.086-.2135v-2.7817h-1.342l-1.623 2.745c-.049.1058-.109.1871-.183.244-.073.057-.174.0855-.305.0855h-1.122c-.065 0-.124-.0244-.177-.0732-.053-.0488-.079-.1099-.079-.1831 0-.0406.012-.0853.036-.1341l1.769-2.8915c-.512-.1952-.911-.5063-1.196-.9333-.284-.427-.427-.9496-.427-1.5677 0-.5124.116-.9781.348-1.397.232-.4188.578-.7502 1.037-.9942.46-.2441 1.015-.3661 1.666-.3661h3.025Zm-1.427 1.3665h-1.538c-.422 0-.752.1281-.988.3843s-.353.5958-.353 1.0186c0 .8622.447 1.2933 1.341 1.2933h1.538v-2.6962Zm-68.1886 18.959c.0244.0325.0366.0773.0366.1342 0 .0732-.0265.1383-.0793.1952-.0529.0569-.12.0854-.2013.0854h-1.281c-.1627 0-.2847-.0691-.3661-.2074l-2.0862-3.3428h-1.1468v3.2574c0 .0814-.0285.1505-.0853.2074-.057.0569-.1302.0854-.2196.0854h-1.1225c-.0813 0-.1504-.0285-.2074-.0854-.0569-.0569-.0854-.126-.0854-.2074v-7.9423c0-.0894.0264-.1626.0793-.2196.0528-.057.124-.0854.2135-.0854h1.1225c.0894 0 .1626.0284.2196.0854.0568.057.0853.1302.0853.2196v3.1354l1.0492.0123 1.9642-3.2331c.0896-.1464.236-.2196.4393-.2196h1.2443c.0814 0 .1445.0244.1892.0732.0447.0488.0671.1098.0671.183 0 .0406-.0203.0894-.061.1464l-2.2937 3.721 2.5255 4.0017Zm.9167.4148c-.0732 0-.1341-.0244-.1829-.0732-.0488-.0488-.0732-.1098-.0732-.183l.0243-.1098 2.928-7.8691c.0814-.2034.2278-.305.4392-.305h1.3421c.2115 0 .3579.1016.4392.305l2.928 7.8691.0244.1098c0 .0732-.0264.1342-.0793.183-.0528.0488-.1118.0732-.1768.0732h-1.0859c-.1708 0-.2887-.0773-.3538-.2318l-.5612-1.4762H93.009l-.5612 1.4762c-.0651.1545-.1831.2318-.3539.2318h-1.0858Zm2.4278-3.1233h2.7573l-1.3786-3.7576-1.3787 3.7576Zm6.9431 3.1233c-.081 0-.15-.0285-.207-.0854-.057-.0569-.086-.126-.086-.2074v-7.9423c0-.0894.028-.1626.08-.2196.053-.057.124-.0854.213-.0854h3.271c.984 0 1.756.2318 2.317.6954.562.4636.842 1.1387.842 2.0252 0 .8785-.28 1.5434-.842 1.9948-.561.4514-1.333.677-2.317.677h-1.794v2.8549c0 .0895-.029.1607-.086.2135-.056.0528-.13.0793-.22.0793h-1.171Zm3.209-4.5141c.472 0 .832-.1118 1.08-.3355.248-.2237.372-.551.372-.9821 0-.4229-.12-.7523-.36-.9882-.24-.2358-.604-.3538-1.092-.3538h-1.757v2.6596h1.757Zm6.81 4.5141c-.082 0-.151-.0285-.208-.0854-.056-.0569-.085-.126-.085-.2074v-6.7223h-2.257c-.082 0-.15-.0285-.207-.0854-.058-.0569-.086-.1301-.086-.2196v-.915c0-.0894.027-.1626.079-.2196.053-.057.124-.0854.214-.0854h6.234c.089 0 .163.0284.22.0854.056.057.085.1302.085.2196v.915c0 .0895-.029.1627-.085.2196-.057.0569-.131.0854-.22.0854h-2.244v6.7223c0 .0814-.027.1505-.08.2074-.053.0569-.124.0854-.213.0854h-1.147Zm3.912 0c-.072 0-.134-.0244-.183-.0732-.049-.0488-.073-.1098-.073-.183l.024-.1098 2.928-7.8691c.082-.2034.228-.305.44-.305h1.342c.211 0 .358.1016.439.305l2.928 7.8691.024.1098c0 .0732-.026.1342-.079.183-.053.0488-.112.0732-.177.0732h-1.085c-.172 0-.289-.0773-.354-.2318l-.562-1.4762h-3.611l-.561 1.4762c-.065.1545-.183.2318-.354.2318h-1.086Zm2.428-3.1233h2.757l-1.378-3.7576-1.379 3.7576Z"/>
	</g>
</svg>