<svg xmlns="http://www.w3.org/2000/svg" viewBox="0 0 200 50">
	<path class="bg-logo" fill="#1E1E1F" d="M0 0h200v50H0z"/>
	<path fill="url(#a)" d="M71.8586 25.1068c0 8.7071-7.0462 15.7533-15.7533 15.7533s-15.7532-7.0462-15.7532-15.7533S47.3982 9.35352 56.1053 9.35352 71.8586 16.3997 71.8586 25.1068Zm-15.7533-14.797c-8.2038 0-14.797 6.5932-14.797 14.797 0 8.2038 6.6436 14.797 14.797 14.797 8.2038 0 14.797-6.6436 14.797-14.797 0-8.2038-6.5932-14.797-14.797-14.797Z"/>
	<path fill="url(#b)" d="M56.1058 10.3086c-8.2037 0-14.797 6.5932-14.797 14.797 0 8.2038 6.6436 14.797 14.797 14.797 8.2038 0 14.797-6.6436 14.797-14.797 0-8.2038-6.5932-14.797-14.797-14.797Zm0 28.6377c-7.6501 0-13.8407-6.1906-13.8407-13.8407 0-7.6502 6.1906-13.8407 13.8407-13.8407 7.6502 0 13.8408 6.1905 13.8408 13.8407 0 7.6501-6.1906 13.8407-13.8408 13.8407Z"/>
	<path fill="url(#c)" opacity=".4" d="M56.1056 40.8588c8.7071 0 15.7532-7.0461 15.7532-15.7532S64.8127 9.35231 56.1056 9.35231 40.3523 16.3985 40.3523 25.1056s7.0462 15.7532 15.7533 15.7532Zm0-31.8588c8.858 0 16.1056 7.2475 16.1056 16.1056 0 8.858-7.2476 16.1056-16.1056 16.1056C47.2475 41.2112 40 33.9636 40 25.1056 40 16.2475 47.2475 9 56.1056 9Z"/>
	<path fill="#fff" d="M41.1069 25.1561c0-8.2541 6.6939-15.0487 14.9984-15.0487 8.3044 0 14.9983 6.7442 14.9983 15.0487 0 8.2541-6.6939 14.948-14.9983 14.948-8.3045 0-14.9984-6.6939-14.9984-14.948Zm4.6807-10.368c-2.6675 2.6675-4.3284 6.3416-4.3284 10.368 0 4.0264 1.6609 7.7004 4.2781 10.3176 2.6675 2.6172 6.3416 4.278 10.368 4.278 4.0263 0 7.7004-1.6105 10.3176-4.278 2.6675-2.6172 4.278-6.2912 4.278-10.3176 0-4.0264-1.6609-7.7005-4.278-10.368-2.6172-2.6675-6.2913-4.3284-10.3176-4.3284-4.0264 0-7.7005 1.6609-10.3177 4.3284Z"/>
	<path fill="url(#d)" opacity=".4" d="M56.1054 38.9989c-3.7244 0-7.1972-1.4595-9.8143-4.0767-2.6172-2.6172-4.0767-6.0899-4.0767-9.8143 0-3.7245 1.4595-7.1972 4.0767-9.8144 2.6171-2.6171 6.0899-4.0767 9.8143-4.0767 3.7244 0 7.1972 1.4596 9.8144 4.0767 2.6171 2.6172 4.0767 6.0899 4.0767 9.8144 0 3.7244-1.4596 7.1971-4.0767 9.8143-2.6172 2.6172-6.09 4.0767-9.8144 4.0767Zm0-.4026c3.5734 0 6.9959-1.4093 9.5124-3.9258 2.5668-2.5668 3.9257-5.9389 3.9257-9.5123 0-3.5734-1.4092-6.9959-3.9257-9.5124-2.5668-2.5668-5.939-3.9257-9.5124-3.9257-3.5734 0-6.9958 1.4092-9.5123 3.9257-2.5669 2.4662-3.9761 5.8886-3.9761 9.4621 0 3.5734 1.4092 6.9958 3.9257 9.5123 2.5669 2.5668 5.9893 3.9761 9.5627 3.9761Z"/>
	<path fill="#fff" d="M68.336 31.6471c-.2517-.2013-9.9653-7.9018-9.9653-7.9018l-2.2649-12.9348c-.151.0504-.3523.2014-.453.4027l-1.6105 12.5825-10.0157 7.7004s-.2013.2517-.302.4027c-.0503.1006-.0503.2516-.0503.4026l12.3812-5.0833 12.3811 5.0833c.1007-.2516 0-.5033-.1006-.6543Z"/>
	<path fill="#565F64" d="m56.2064 25.5067-.1007 2.3152 11.3746 4.58c.4026.2013.7046.1007 1.0066-.1006l-12.1295-6.8449c-.0504-.0503-.151 0-.151.0503Z"/>
	<path fill="url(#e)" d="M56.2065 25.5067s.6543 1.1576 1.4093 1.9629c1.0569 1.1576 2.4661 1.9629 2.4661 1.9629l7.3985 2.9694c.4027.2013.7047.1007 1.0066-.1006l-12.1295-6.8449c-.0503-.0503-.151 0-.151.0503Z"/>
	<path fill="#A4AAAE" fill-opacity=".6" d="M68.4365 31.8519c0-.0503-.0504-.1006-.1007-.2013l-10.368-7.5998-1.4092.9059s.1007.0504.151 0c.151-.0503.453-.1006.7549 0 .2517.1007 10.972 6.9456 10.972 6.9456v-.0504Z"/>
	<path fill="#333E46" d="m68.0838 31.3943-9.6633-7.6502-.453.302 10.368 7.6502c-.0503-.1007-.151-.2014-.2517-.302Z"/>
	<path fill="#565F64" d="m56.3572 24.7524-.0504.0503s0 .1007.1007.0503c.0503-.0503 1.5099-.8052 2.0132-1.1072l-1.7616-12.0792c-.0503-.453-.2516-.6543-.6039-.8053l.2013 13.9917.1007-.1006Z"/>
	<path fill="#A4AAAE" fill-opacity=".6" d="M55.5015 11.6669v.6543l-1.1072 11.1229c0 .151.0503.302.2013.4027l.6543.5033.453-12.2806.0503-.9562c-.151.1006-.2013.302-.2517.5536ZM54.8976 24.5541l-.6039-.5033-10.217 7.3985s-.302.2013-.3523.4026l.3523-.2013 10.7203-6.7442c.2013-.1007.2516-.2013.1006-.3523Z"/>
	<path fill="#565F64" d="M55.9548 25.5067c0-.0503-.0503-.1006-.1006-.0503l-12.1799 6.8952c.302.2013.604.2516 1.0066.1007l11.3746-4.5801-.1007-2.3655Z"/>
	<path fill="url(#f)" d="m56.3071 24.8059.0504-.0504-.0504.0504s0 .0503.0504.0503h.0503c.0503-.0503 1.5099-.8053 2.0132-1.1072l-.2013-1.4596-1.5603-10.6196c0-.2014-.0503-.3523-.151-.453 0 0 .755 10.1666.755 11.2739 0 1.4596-.9563 2.3152-.9563 2.3152Z"/>
	<path fill="url(#g)" fill-opacity=".8" d="M55.9548 25.5067c0-.0503-.0503-.1006-.1006-.0503l-12.1799 6.8952c.302.2013.604.2516 1.0066.1007l11.3746-4.5801-.1007-2.3655Z"/>
	<path fill="url(#h)" opacity=".8" d="m44.6808 32.4059 11.3746-4.5801-.1007-2.2145c-.2013.604-.5536 1.2583-1.5099 1.7616-.7046.4026-7.4488 3.7244-9.8646 4.882-.151.1006-.3523.151-.453.2013.2013.1007.3523.0503.5536-.0503Z"/>
	<path fill="url(#i)" d="m56.3572 24.7524-.0504.0503s0 .1007.1007.0503c.0503-.0503 1.5099-.8052 2.0132-1.1072l-1.7616-12.0792c-.0503-.453-.2516-.6543-.6039-.8053l.2013 13.9917.1007-.1006Z"/>
	<path fill="url(#j)" d="m56.3572 24.7524-.0504.0503s0 .1007.1007.0503c.0503-.0503 1.5099-.8052 2.0132-1.1072l-1.7616-12.0792c-.0503-.453-.2516-.6543-.6039-.8053l.2013 13.9917.1007-.1006Z"/>
	<path fill="url(#k)" d="M42.5666 31.345c-.3523-.8053-2.3655-4.7311-.151-12.2805H41.56c-.453 1.5099-.8053 2.4158-1.0066 3.7747 0 0-.1007.5033-.151 1.0569-.0503.5537-.0503.8556-.0503 1.2079 0 3.0198.7549 4.7814.7549 4.7814.8053 2.5165 2.2145 4.7813 4.1271 6.4926 1.6608 1.4595 4.2277 2.5668 6.3415 2.9694-.3523-.0503-6.3919-2.6171-9.009-8.0024Z"/>
	<path fill="url(#l)" d="M56.3072 25.4056h-.453c.0504 0 .1007 0 .1007.0503l.1007 2.3152h.0503l.1007-2.3152c0-.0503.0503-.1006.1006-.0503Z"/>
	<path fill="url(#m)" d="M61.1387 10.1582c5.2846 2.0132 10.2673 7.5495 10.2673 14.5454 0 8.4554-6.7442 15.3506-15.3003 15.3506v.8053c8.5561 0 15.7533-7.0462 15.7533-15.7533 0-6.9455-4.4291-12.7838-10.7203-14.948Z"/>
	<path fill="url(#n)" d="M69.594 19.167c-3.5231-8.1032-11.4752-8.5561-11.9282-8.6065h-.0503c6.0899 1.1073 9.9653 5.0834 11.3242 9.2608v.0503c.604 1.6105.906 3.3218.9563 5.184.0503 1.7615-.3523 3.7244-1.1073 5.5363-.0503.2516-.1006.5536-.151.5536h.8053c2.4159-4.5297 1.3589-9.1097.151-11.9785Z"/>
	<path fill="#FBFBFB" d="M41.1069 25.1561c0-8.2541 6.6939-15.0487 14.9984-15.0487 8.3044 0 14.9983 6.7442 14.9983 15.0487 0 8.2541-6.6939 14.948-14.9983 14.948-8.3045 0-14.9984-6.6939-14.9984-14.948Zm4.6807-10.368c-2.6675 2.6675-4.3284 6.3416-4.3284 10.368 0 4.0264 1.6609 7.7004 4.2781 10.3176 2.6675 2.6172 6.3416 4.278 10.368 4.278 4.0263 0 7.7004-1.6105 10.3176-4.278 2.6675-2.6172 4.278-6.2912 4.278-10.3176 0-4.0264-1.6609-7.7005-4.278-10.368-2.6172-2.6675-6.2913-4.3284-10.3176-4.3284-4.0264 0-7.7005 1.6609-10.3177 4.3284Z"/>
	<path fill="#333F47" d="m43.9761 31.5501 10.2673-7.3985c.5536.302 1.4596.7046 1.5602.7046.1007.0503.1007-.0503.1007-.0503L54.646 23.749c-.151-.1007-.2013-.2517-.2013-.4027l1.2079-12.1295c-.0503.0503-.0503.151-.1006.2013-.0504.1007-.0504.151-.0504.2517l-1.7615 12.1295-9.6634 7.5998c-.0503.0503-.1006.1007-.1006.151Z"/>
	<path fill="#fff" d="M117.878 22.471c-.217-.216-.224-.3729-.224-4.5307 0-3.3263.042-4.1487-.236-4.2764-.125-.0577-.316.026-.605.0851-.246.0504-.637.1227-.868.161-.529.0871-.541.2501-.025.3467.217.0407.444.1655.504.2774.06.1117.109.8146.109 1.5617v1.3583l-.294-.3482c-.394-.4681-.83-.6762-1.409-.6733-1.44.0074-2.42 1.2213-2.529 3.1309-.098 1.7074.461 2.9641 1.562 3.5116.927.4612 1.695.3694 2.346-.2804l.425-.4246.09.4521c.049.2486.128.4509.175.4495.047-.0013.375-.0605.728-.1314.354-.071.759-.1515.9-.1788.326-.063.211-.2668-.151-.2668-.151 0-.375-.1006-.498-.2237Zm10.978 10.6373-.029-3.0631c-.022-2.2161.015-2.8757-.235-3.0124-.14-.0761-.368.0098-.744.0795-.308.0571-.725.1289-.925.1596-.502.0774-.456.2186.112.3382l.477.1001.029 4.1387c.025 3.4458.044 4.2074-.261 4.3734-.1.0543-.235.0449-.416.0449-.118 0-.206.0192-.251.0518-.029.0206-.04.0468-.03.0767.064.1908 3.114.202 3.114.0113 0-.0768-.117-.1398-.259-.1398-.559 0-.691-.2381-.726-1.3054l-.032-.9879.531-.5484c.292-.3016.547-.5029.566-.4475.02.0557.476.8791 1.014 1.8303l.979 1.7293.981.0068c.721.005.98-.0308.98-.1352 0-.0476-.048-.0899-.122-.1157-.047-.0166-.104-.0263-.166-.0263-.429 0-.781-.4239-1.935-2.3276l-1.039-1.7122.791-.8761c.777-.8604 1.321-1.2368 1.788-1.2368.129 0 .235-.0634.235-.1409 0-.106-.348-.1407-1.401-.1399-1.415.0011-1.78.1207-1.044.3415.197.0589.376.165.398.2356.022.0706-.504.7064-1.169 1.413l-1.211 1.2845ZM83.3609 20.6252c-.041.0253-.6494-1.5123-1.3521-3.417l-1.2775-3.4629h-1.2627c-.9955 0-1.2628.0325-1.2628.1535 0 .0918.1746.1814.4337.2228.1918.0305.3339.0461.4366.1177.3023.2109.2646.9073.1528 3.9025-.074 1.9812-.1629 3.7941-.1977 4.0291-.065.4394-.1976.546-.8534.686-.1696.0362-.3082.1277-.3082.2036 0 .1023.3606.1347 1.4032.126.7717-.0065 1.4385-.0469 1.4817-.0901.1072-.1071-.1977-.286-.491-.2881-.1319-.001-.3478-.0898-.4797-.1975l-.2399-.1958.1202-3.3c.0997-2.74.1156-3.8955.2827-3.9177.1321-.0176.3586.6727.7956 1.8481.4574 1.2305 1.1203 3.0546 1.473 4.0532.3526.9988.6974 1.8169.7661 1.8179.0686.0011.3342-.5895.5901-1.3125.256-.723.9356-2.5642 1.5103-4.0919l1.0448-2.7772.0682 3.7744c.0424 2.3482.0272 3.8507-.04 3.9761-.0595.111-.309.2557-.5545.3217s-.4464.1809-.4464.2556c0 .1002.4522.1354 1.7399.1354 1.486 0 1.7352-.0245 1.7081-.1678-.0184-.0972-.1797-.1822-.3833-.202-.1637-.0159-.2898-.0271-.3881-.0851-.3328-.1964-.3473-.9299-.422-4.2025-.0482-2.1145-.0659-3.9294-.0392-4.0332.0494-.1924.5649-.4266.9392-.4266.1141 0 .2074-.0755.2074-.1678 0-.1393-.216-.1678-1.2718-.1678h-1.2717l-1.2687 3.417c-.6976 1.8794-1.3019 3.4376-1.3429 3.4629Zm55.3211-2.6638c1.477-.7624 1.501-3.007.042-3.8634-.5-.2935-.533-.2971-2.999-.3324-2.129-.0304-2.494-.0118-2.494.1279 0 .1864.234.2993.619.2993.589 0 .614.1721.614 4.3104 0 2.8763-.035 3.8591-.14 3.9999-.077.1027-.338.2271-.58.2764-.157.032-.305.0861-.395.1407-.05.0295-.082.0591-.091.0854-.035.1048.524.136 2.401.1342 2.219-.0023 2.494-.0237 2.951-.2304 2.122-.9585 2.228-3.9011.167-4.6133l-.445-.154.35-.1807Zm-27.395 10.4078c-.255-.4873-.895-1.0181-1.395-1.1565-.233-.0645-1.445-.1176-2.693-.118-1.93-.0005-2.269.0243-2.269.1651 0 .1536.16.2212.726.3064.477.0718.51.3726.479 4.4166-.02 2.6577-.067 3.8646-.155 3.9522-.07.0694-.334.154-.588.188-.298.0399-.462.1189-.462.2224 0 .1359.392.1552 2.549.1252 2.23-.0311 2.599-.0617 2.942-.244 1.19-.6329 1.781-1.886 1.458-3.0928-.159-.5921-.885-1.3524-1.446-1.5148l-.368-.1062.508-.3566c.279-.1962.595-.5235.702-.7272.251-.4802.258-1.5905.012-2.0598Zm25.222-10.3731-.812.0002V14.1928l.868.0004c1.441.0008 1.933.4764 1.933 1.8678 0 1.4271-.522 1.9348-1.989 1.9351Zm-28.357 13.3487-.869.0002v-3.8034l.869.0002c1.516.0002 2.045.4921 2.045 1.9034 0 1.3946-.543 1.8994-2.045 1.8996Zm-3.102-12.7892c.134 0 .164-.2188.164-1.1746 0-.9236-.033-1.1746-.154-1.1746-.085 0-.218.1511-.294.3356-.077.1846-.16.3356-.186.3356-.026 0-.201-.1133-.389-.2517-.517-.3814-1.652-.3573-2.347.0494-1.522.8918-2.013 3.5424-.988 5.3337 1.071 1.8722 3.718 1.7197 4.303-.2478.218-.7308.216-.7445-.111-.7445-.238 0-.298.0759-.408.5118-.074.2924-.284.676-.491.895-.317.3351-.431.3831-.912.3831-.664 0-.968-.1913-1.298-.8184-.205-.389-.254-.6977-.29-1.8272-.053-1.6533.134-2.4536.705-3.0238.316-.3157.452-.3715.901-.3715.462 0 .582.0532.953.4236.252.2518.476.6147.551.8949.076.281.194.4714.291.4714Zm24.315-.1118c.138 0 .168-.1989.168-1.1187 0-.6712-.045-1.1187-.112-1.1187-.062 0-.112.0408-.112.0906 0 .0497-.067.1815-.148.2926-.142.1929-.167.1933-.521.0102-.28-.1443-.574-.1822-1.179-.1517-.68.0341-.873.0911-1.228.3617-.54.4106-.774.962-.707 1.6624.072.7402.363 1.0169 1.766 1.6783 1.451.6847 1.681.8805 1.681 1.4366 0 .8645-.986 1.4987-1.885 1.2123-.581-.1852-.993-.6107-1.203-1.2414-.103-.3085-.249-.5413-.339-.5413-.128 0-.16.2348-.16 1.1746 0 .9696.03 1.1746.168 1.1746.093 0 .169-.0406.169-.0904 0-.0499.066-.1813.147-.2924.142-.1932.167-.1918.612.0347.338.1719.672.2362 1.227.2362.897 0 1.372-.2105 1.875-.8307.295-.3643.337-.5038.339-1.1324.002-.6593-.027-.7457-.359-1.0773-.198-.1982-.929-.6398-1.625-.9813-1.435-.7046-1.655-.9534-1.434-1.6214.231-.6977 1.196-1.0446 1.898-.6823.358.1852.786.898.791 1.3194.002.1077.078.1958.171.1958Zm-34.7344.6991c-.2056-1.4621-.811-2.3698-1.771-2.6544-.618-.1833-.9875-.2002-1.4305-.0657-.8461.257-1.418.7704-1.8143 1.6294-.22.4764-.2582.7417-.2582 1.7899 0 1.3555.2041 2.0209.8185 2.6671 1.3202 1.3889 3.7353.9453 4.3294-.795.2282-.6685.2241-.6975-.0961-.6975-.2149 0-.3.0876-.4078.4195-.2978.9165-.8531 1.3704-1.676 1.3704-1.1204 0-1.6799-.7418-1.8356-2.4331l-.0643-.6992h4.2805l-.0746-.5314Zm2.5544-2.1349c-.0176-.1075-.0297-.225-.0319-.3262-.0031-.1423-.0021-.2345-.0475-.2859-.0849-.0961-.3323-.049-1.0724.0804-.7448.1305-1.0753.3999-.4942.4031.1795.0009.3095-.0005.4044.0564.2526.1516.2563.7166.2829 2.8405.0324 2.5796.0248 2.6924-.1961 2.9128-.1263.1261-.3558.2293-.5099.2293-.1541 0-.2802.0631-.2802.1399 0 .1052.3886.1398 1.569.1398s1.5689-.0346 1.5689-.1398c0-.0513-.0511-.0964-.1268-.1207-.0378-.0122-.0817-.0192-.1284-.0192-.1404 0-.3673-.0784-.5043-.1741-.2415-.1688-.2491-.2345-.2491-2.1611 0-2.1873.1306-2.9143.6027-3.3571.1816-.1704.3757-.2418.5904-.2172.275.0314.325.0913.357.4276.0473.4984.1946.6716.5705.6716.4124 0 .569-.1923.569-.6986 0-1.0315-1.3345-1.4441-2.232-.6903-.1835.154-.369.3912-.4122.5269-.0764.2402-.0809.2408-.1662.023-.0238-.0607-.0463-.1561-.0636-.2611Zm14.353 2.1909c-.215-1.5444-.863-2.497-1.869-2.75-1.005-.2525-1.715-.0665-2.439.6393-.795.7755-1.045 1.5388-.976 2.9776.06 1.2354.221 1.7268.77 2.3518.901 1.0231 2.499 1.2161 3.544.4271.461-.3486.675-.6738.872-1.3262l.156-.516-.289.0351c-.219.0266-.322.1349-.431.4536-.339.9884-.911 1.3803-1.88 1.2874-.945-.0907-1.475-.8485-1.61-2.304l-.075-.8003h4.294l-.067-.4754Zm12.915-.1782c-.12-1.1438-.627-2.0133-1.411-2.418-.43-.2222-1.274-.3082-1.776-.1811-1.474.3739-2.38 2.208-2.056 4.1645.244 1.4752.983 2.3905 2.156 2.6713 1.403.336 2.876-.5343 3.085-1.8229.064-.3938.051-.4178-.227-.4178-.19 0-.295.0608-.295.1723 0 .2706-.397.9752-.719 1.275-.406.3787-1.425.4506-1.927.136-.499-.3131-.832-1.0775-.908-2.0833l-.064-.8424h4.211l-.069-.6536Zm21.876-.3757c-.208-.9824-.682-1.7069-1.341-2.0509-.373-.1944-1.294-.2885-1.727-.1764-1.424.3686-2.133 1.5285-2.125 3.4803.004.9495.041 1.1416.351 1.8021.394.8397.864 1.2623 1.685 1.5139 1.205.3694 2.453-.132 2.986-1.1996.379-.758.384-.9977.021-.9977-.225 0-.297.0791-.392.4328-.232.8598-.859 1.3574-1.708 1.3566-1.051-.0008-1.659-.7884-1.747-2.2648l-.052-.867h2.088c1.409 0 1.92.0322 2.053-.1761.091-.1426.005-.3979-.092-.8532Zm2.831-1.3079-.076-.5093c-.082-.5444-.136-.5722-.78-.3985-.185.05-.525.1232-.756.1627-.555.0951-.579.3975-.032.3975.269 0 .424.0664.504.2164.07.1309.116 1.2145.116 2.7407 0 2.3753-.013 2.5376-.224 2.7481-.123.1231-.35.2237-.504.2237-.093 0-.175.0228-.226.0576-.034.0232-.054.0516-.054.0823 0 .105.377.1398 1.512.1398 1.136 0 1.513-.0348 1.513-.1398 0-.0768-.104-.1399-.231-.1399s-.329-.0521-.448-.1158c-.204-.1085-.217-.2556-.217-2.3602 0-1.8175.034-2.3157.178-2.6184.333-.7012 1.158-.9895 1.837-.6426.631.3221.671.5053.673 3.0723.002 2.5102-.035 2.6647-.623 2.6647-.15 0-.272.0631-.272.1399 0 .1055.371.1371 1.513.1285 1.443-.011 1.931-.1293 1.172-.2843-.194-.0396-.411-.13-.482-.2011-.087-.0863-.148-.9369-.186-2.557-.05-2.166-.08-2.4688-.28-2.8075-.352-.5959-.751-.83-1.507-.8847-.881-.0636-1.157.0169-1.682.4902l-.438.3947Zm-28.064 13.3536-.077-.5118c-.035-.2284-.051-.3657-.128-.4324-.12-.1031-.384-.0383-1.084.1194-.831.1871-1.053.4723-.368.4723.269 0 .424.0665.504.2165.07.1308.116 1.2144.116 2.7407 0 2.3752-.013 2.5376-.224 2.7481-.123.1231-.35.2237-.504.2237-.154 0-.281.063-.281.1398 0 .105.378.1399 1.513.1399 1.136 0 1.513-.0349 1.513-.1399 0-.0768-.122-.1398-.272-.1398-.584 0-.624-.1644-.624-2.5547 0-2.5954.07-2.8381.924-3.1938.584-.2435.936-.1926 1.396.202l.313.269.035 2.4958c.031 2.2699.016 2.5089-.162 2.6389-.108.0785-.312.1428-.454.1428-.087 0-.165.0235-.212.0592-.03.0229-.047.0507-.047.0806 0 .1907 3.05.1795 3.114-.0113.025-.077-.088-.1285-.282-.1285-.178 0-.422-.0713-.541-.1586-.201-.1466-.222-.3492-.274-2.677-.052-2.3316-.073-2.5417-.29-2.8338-.443-.5957-.905-.8189-1.695-.8189-.794 0-1.041.0919-1.559.5812l-.35.3306Zm-3.615 2.7798c-.064-2.7725-.13-2.9962-1.006-3.4399-1.409-.7128-3.476.0669-3.476 1.3112 0 .4189.129.5626.505.5626.283 0 .503-.3464.503-.791 0-.533.274-.8441.834-.949 1.045-.1956 1.498.3318 1.515 1.7629.005.3933-.017.418-.415.4833-2.089.3425-3.297 1.2436-3.297 2.4583 0 1.0245.634 1.6425 1.758 1.7138.878.0558 1.292-.0939 1.731-.6263l.324-.3917.166.3982c.212.505.506.6607 1.169.618.397-.0256.537-.0825.565-.2298.029-.1513-.039-.1958-.3-.1958-.186 0-.379-.0628-.429-.1398-.05-.0768-.116-1.2221-.147-2.545Zm40.746-13.8518c.934-1.5291 1.724-2.8468 1.755-2.9284.046-.1201-.38-.1483-2.245-.1483-1.587 0-2.104-.0428-2.312.1895-.133.1486-.141.4095-.222.8659-.065.365-.119.6798-.119.6992 0 .0194.063.0352.14.035.078-.0002.267-.2357.421-.5234.447-.8357.673-.9452 1.874-.9071l1.024.0324-1.838 3.0205c-1.012 1.6613-1.84 3.0582-1.842 3.1043-.001.0461 1.076.0839 2.395.0839h2.398l.13-.7551c.072-.4154.158-.8683.192-1.0068.116-.4749-.26-.2726-.459.2464-.105.2741-.366.6517-.58.839-.377.3313-.42.3409-1.509.3409-1.05 0-1.114-.013-1.011-.2038.06-.1123.873-1.455 1.808-2.9841Zm-67.6937-.7071c0-.5602.3473-1.503.6736-1.8287.2467-.2463.4216-.3172.782-.3172.122 0 .2556.0118.3749.0312.1303.0212.2435.0512.3057.0844.3326.1777.6838.9719.7495 1.6943l.0592.6512H90.5333v-.3152Zm16.9227-.0721c0-.561.415-1.5846.75-1.8474.414-.3252 1.148-.3057 1.522.0405.312.2881.641 1.2249.641 1.8231v.3711H107.456v-.3873Zm12.937-.0288c.169-.9382.324-1.3212.678-1.6746.295-.2948.461-.3704.815-.3704.801 0 1.331.7207 1.398 1.9018l.029.5034-1.498.0313-1.498.0314.076-.4229Zm22.092-.6951c.185-.6535.406-.9991.778-1.2142.353-.2046 1.001-.1608 1.319.0894.339.2664.621.9762.665 1.6767l.031.5034-1.485.0312c-.931.0196-1.335.0447-1.455-.1276-.101-.1435-.005-.4241.147-.9589Zm-28.958 2.0664c-.054-1.6229.093-2.3865.562-2.9198.29-.3295.409-.3846.835-.3846.66 0 .975.2283 1.275.9239.468 1.0866.429 3.3485-.075 4.4105-.311.6536-1.056.8815-1.736.5308-.573-.296-.809-.9973-.861-2.5608Zm22.37 2.4129c-.232-.1859-.2-.7006-.2-2.1068v-2.071l1.041.0454c1.698.0741 2.227.5754 2.222 2.1063-.005 1.4867-.637 2.1259-2.104 2.1259-.511 0-.798.0287-.959-.0998Zm-28.514 13.113c-.106-.3833-.12-3.7454-.016-3.8519.159-.1622 2.08-.0049 2.475.2025.786.4137 1.082 2.0814.548 3.0886-.379.7155-.818.9086-1.981.8711-.904-.0291-.952-.0434-1.026-.3103Zm25.751-16.0336-.036-.3076-.035-.3077-1.261-.0317-1.261-.0315v.6785h2.593Zm-19.321 14.8432c.075-.664.602-1.2141 1.442-1.5034.331-.1141.722-.2091.87-.2111l.269-.0037-.063 1.042c-.073 1.237-.274 1.7864-.74 2.0271-1.011.5215-1.912-.1636-1.778-1.3509Z"/>
  	<linearGradient id="a" x1="44.0261" x2="68.1845" y1="14.9905" y2="35.2231" gradientUnits="userSpaceOnUse">
  		<stop stop-color="#fff"/>
  		<stop offset=".1" stop-color="#CDD0D0"/>
  		<stop offset=".2" stop-color="#A5ACAF"/>
  		<stop offset=".3" stop-color="#98A0A4"/>
  		<stop offset=".4" stop-color="#828A8F"/>
  		<stop offset=".5" stop-color="#667075"/>
  		<stop offset=".6" stop-color="#535C63"/>
  		<stop offset=".7" stop-color="#475158"/>
  		<stop offset=".8" stop-color="#434D54"/>
  		<stop offset="1" stop-color="#475157"/>
  	</linearGradient>
  	<linearGradient id="b" x1="44.7816" x2="67.4301" y1="15.5932" y2="34.618" gradientUnits="userSpaceOnUse">
  		<stop stop-color="#0B1F2A"/>
  		<stop offset=".2" stop-color="#333F47"/>
  		<stop offset=".5" stop-color="#81898D"/>
  		<stop offset=".7" stop-color="#B3B8B8"/>
  		<stop offset=".8" stop-color="#DEE0DD"/>
  		<stop offset="1" stop-color="#FBFBFB"/>
  	</linearGradient>
  	<linearGradient id="c" x1="61.6281" x2="50.6058" y1="40.2585" y2="9.95984" gradientUnits="userSpaceOnUse">
  		<stop stop-color="#E1E3E1"/>
  		<stop offset=".1" stop-color="#C1C5C4"/>
  		<stop offset=".3" stop-color="#9BA1A2"/>
  		<stop offset=".5" stop-color="#7D8487"/>
  		<stop offset=".7" stop-color="#687074" stop-opacity="0"/>
  		<stop offset=".8" stop-color="#5B6469" stop-opacity="0"/>
  		<stop offset="1" stop-color="#576065" stop-opacity="0"/>
  	</linearGradient>
  	<linearGradient id="d" x1="49.1599" x2="63.0509" y1="13.079" y2="37.1367" gradientUnits="userSpaceOnUse">
  		<stop stop-color="#E1E3E1"/>
  		<stop offset=".1" stop-color="#C1C5C4"/>
  		<stop offset=".3" stop-color="#9BA1A2"/>
  		<stop offset=".5" stop-color="#7D8487"/>
  		<stop offset=".7" stop-color="#687074" stop-opacity="0"/>
  		<stop offset=".8" stop-color="#5B6469" stop-opacity="0"/>
  		<stop offset="1" stop-color="#576065" stop-opacity="0"/>
  	</linearGradient>
  	<linearGradient id="e" x1="62.3971" x2="61.5415" y1="28.8285" y2="30.2377" gradientUnits="userSpaceOnUse">
  		<stop stop-color="#27343C"/>
  		<stop offset="1" stop-color="#00111E" stop-opacity="0"/>
  	</linearGradient>
  	<linearGradient id="f" x1="59.9309" x2="58.5216" y1="23.6483" y2="21.3834" gradientUnits="userSpaceOnUse">
  		<stop offset=".1" stop-color="#02131F"/>
  		<stop offset=".9" stop-color="#02131F" stop-opacity="0"/>
  	</linearGradient>
  	<linearGradient id="g" x1="56.1058" x2="53.992" y1="27.3186" y2="27.9226" gradientUnits="userSpaceOnUse">
  		<stop offset=".2" stop-color="#02131F"/>
  		<stop offset=".9" stop-color="#02131F" stop-opacity="0"/>
  	</linearGradient>
  	<linearGradient id="h" x1="50.4688" x2="50.1668" y1="30.0907" y2="29.3357" gradientUnits="userSpaceOnUse">
  		<stop stop-color="#02131F"/>
  		<stop offset=".1" stop-color="#02131F"/>
  		<stop offset="1" stop-color="#02131F" stop-opacity="0"/>
  	</linearGradient>
  	<linearGradient id="i" x1="57.9174" x2="56.2062" y1="17.6559" y2="17.8572" gradientUnits="userSpaceOnUse">
  		<stop offset=".3" stop-color="#02131F"/>
  		<stop offset=".8" stop-color="#02131F" stop-opacity="0"/>
  	</linearGradient>
  	<linearGradient id="j" x1="57.9677" x2="56.8101" y1="17.6055" y2="17.7565" gradientUnits="userSpaceOnUse">
  		<stop offset=".4" stop-color="#27343C"/>
  		<stop offset="1" stop-color="#3B474E" stop-opacity="0"/>
  	</linearGradient>
  	<linearGradient id="k" x1="39.7984" x2="53.8405" y1="25.557" y2="33.6601" gradientUnits="userSpaceOnUse">
  		<stop stop-color="#25323B" stop-opacity="0"/>
  		<stop offset=".1" stop-color="#27343C"/>
  	</linearGradient>
  	<linearGradient id="l" x1="56.1059" x2="56.1059" y1="27.8214" y2="25.4056" gradientUnits="userSpaceOnUse">
  		<stop offset=".3" stop-color="#A5ABAF"/>
  		<stop offset="1" stop-color="#A5ABAF" stop-opacity="0"/>
  	</linearGradient>
  	<linearGradient id="m" x1="64.0075" x2="64.0075" y1="10.1582" y2="40.8595" gradientUnits="userSpaceOnUse">
  		<stop stop-color="#6B7378"/>
  		<stop offset=".2" stop-color="#333F47"/>
  		<stop offset=".5" stop-color="#27343C"/>
  		<stop offset=".8" stop-color="#333F47"/>
  		<stop offset="1" stop-color="#434D54"/>
  	</linearGradient>
  	<linearGradient id="n" x1="68.8391" x2="62.0445" y1="13.077" y2="23.0424" gradientUnits="userSpaceOnUse">
  		<stop offset=".7" stop-color="#49545B"/>
  		<stop offset=".8" stop-color="#fff" stop-opacity="0"/>
  	</linearGradient>
</svg>