<svg xmlns="http://www.w3.org/2000/svg" viewBox="0 0 200 50">
	<path class="bg-logo" fill="#004785" d="M0 0h200v50H0z"/>
	<path fill="#fff" d="m47.8214 30.825-.7149-5.74-1.1746 5.74h-1.6291l-1.3022-5.74-.7813 5.74h-2.8649l1.6597-11.4137h2.9619l1.0775 5.0379 1.1389-5.0404h2.8674l1.6265 11.4162h-2.8649Zm9.8689-11.4137v2.8675h-2.8981v1.4707h2.0504v2.8701h-2.0504v1.3685h2.8981v2.8369h-5.7681V19.4113h5.7681Zm1.5627 0h6.3196v3.0999h-1.7261v8.3113h-2.9006v-8.3088H59.253v-3.1049.0025Zm7.3921 11.4137 2.8342-11.4137h3.3552l2.8343 11.4137h-2.8343l-.457-1.6342h-2.4412l-.4238 1.6342h-2.8674Zm5.2114-3.9067-.6817-2.9007-.7482 2.9058h1.4324l-.0025-.0051Zm10.8136-7.507 2.2802 11.4137h-2.898l-1.2385-8.5104h-.2298l-1.269 8.5104h-2.8649l2.2138-11.4137h4.0062Zm9.2817 0 2.3133 11.4137H91.367l-1.2384-8.5104h-.2297l-1.2691 8.5104h-2.8649l2.247-11.4137h3.9399Zm11.9852 0V30.825h-2.897v-5.2396l-2.6716 5.2396h-2.8649V19.4113h2.8649v5.5051l2.8646-5.5076h2.704v.0025Zm4.951 0v4.3382h2.183v-4.3407h2.866V30.825h-2.866v-4.2029h-2.183v4.2055h-2.865V19.4139h2.865v-.0026Zm11.432 0c.352-.0098.702.0599 1.024.2041.321.1442.606.3589.832.6283.454.5669.685 1.3023.685 2.1704 0 .6996-.097 1.2333-.294 1.6342-.197.3677-.454.6358-.781.7353.503.1335.941.4412 1.238.8682.358.5005.518 1.1363.518 1.8691 0 1.0367-.226 1.8691-.714 2.4385-.521.6001-1.206.8682-2.118.8682h-4.787V19.4062h4.397v.0051Zm-1.499 2.4666v1.6368h.49c.422 0 .651-.2656.651-.7993 0-.5694-.229-.8375-.651-.8375h-.49Zm0 4.3408v1.6699h.749c.459 0 .717-.2681.717-.8349 0-.2656-.064-.4673-.195-.6001-.137-.1439-.324-.2282-.522-.2349h-.749Zm11.986-6.8099v2.8725h-2.898v1.4708h2.864v2.87h-2.862v1.3687h2.898v2.8368h-5.765V19.4139h5.765l-.002-.0051Zm6.58 3.6743c-.232-.0086-.461.0382-.671.1364-.209.0981-.393.2448-.534.4279-.264.3677-.391.8682-.391 1.4708 0 .5668.127 1.0673.422 1.4682.131.1857.308.3352.514.4342.205.0991.432.1447.66.1326.324 0 .554 0 .715-.0664.194-.0331.357-.1021.487-.1659v3.9067c-.064.0331-.227.0664-.39.0995-.161.0332-.455.0332-.812.0332-1.499 0-2.707-.5668-3.616-1.8026-.814-1.1031-1.205-2.4385-1.205-4.0395 0-1.5704.391-2.9058 1.205-4.0089.878-1.2001 2.084-1.8001 3.616-1.8001.26 0 .485 0 .682.0332.196.0664.357.1021.52.1327v3.8736c-.127-.0664-.293-.1328-.39-.1686-.265-.067-.538-.0997-.812-.097Zm2.735-3.6743h6.35v3.1049h-1.726v8.3113h-2.898v-8.3113h-1.726v-3.1049Zm11.007 4.2386h1.76c.814 0 1.498.3013 2.017.9039.587.6333.85 1.4682.85 2.5687 0 1.1031-.263 2.0044-.817 2.7066-.241.3132-.553.5663-.908.7395-.356.1732-.747.2618-1.142.2589h-4.658V19.4113h6.677v2.4002h-3.779V23.65v-.0026Zm0 2.773v1.6342h.718c.488 0 .714-.2656.714-.8324 0-.2682-.063-.4699-.193-.6026-.068-.0683-.15-.1214-.239-.1558-.09-.0343-.186-.0491-.282-.0434h-.718Zm5.539 4.4046 2.834-11.4137h3.319l2.835 11.4137h-2.835l-.421-1.6342h-2.477l-.424 1.6342h-2.834.003Zm5.178-3.9705-.684-2.7705-.751 2.7705h1.435Zm8.174-7.4457v4.3407h2.149v-4.3407h2.867V30.825h-2.867v-4.2029h-2.149v4.2055h-2.899V19.4139h2.899v-.0051Zm9.932 0v4.139l1.989-4.1365h2.962l-2.541 5.306L185 30.825h-2.962l-2.084-4.9076v4.9076h-2.867V19.4113h2.867l-.002-.0025ZM24.5421 16c4.8515.1788 8.7275 4.1722 8.7581 9.0671.011 2.4232-.9386 4.752-2.6408 6.4768-1.7022 1.7246-4.0184 2.7047-6.4416 2.7257-2.4249.0149-4.7569-.9322-6.4848-2.6337-1.7279-1.7016-2.7106-4.0188-2.7329-6.4437-.0108-2.3584.8883-4.63 2.5101-6.3422 1.6219-1.7122 3.8415-2.733 6.1969-2.85l.0102 2.5968c-1.6714.1104-3.2378.8543-4.3799 2.0798-1.142 1.2255-1.7736 2.8405-1.766 4.5156.0073.9769.2331 1.9397.6607 2.8181.4277.8783 1.0465 1.6499 1.811 2.2581l2.4818-6.5367-1.7235.0127s-.3396-.0689-.5337.092l-.4085.3932s-.0332-1.0775.0153-1.1899c.0485-.1379.1864-1.218.6665-1.7695.4851-.5311 1.2588-.6051 1.2588-.6051l5.5153-.0384-.7967.8299 1.9151 8.6509c.7199-.6191 1.2964-1.3874 1.6897-2.2516.3933-.8642.5939-1.8036.5879-2.7531-.0153-1.6677-.6635-3.2673-1.8136-4.4751-1.15-1.208-2.7159-1.9339-4.3809-2.0309L24.5421 16Zm-2.1065 5.3902c.166 0 .3064.1277.3064.286 0 .1557-.1353.286-.3013.286-.1685.0025-.3064-.1252-.3064-.2809 0-.1609.1328-.2886.3013-.2911Z"/>
</svg>