<svg xmlns="http://www.w3.org/2000/svg" viewBox="0 0 200 50">
	<path class="bg-logo" fill="#2E274D" d="M0 0h200v50H0z"/>
	<path fill="#fff" d="m49.9405 42.5732 2.5796-5.1548h2.4064v.6245h-.8613v6.1756h.8613v.6153h-3.2769v-.6153h.8705v-5.2869l-2.5796 5.2413h-.8478l-2.6206-5.2413v5.2869h.8796v.6153H45v-.6153h.8568v-6.1756H45v-.6245h2.3517l2.5888 5.1548Zm11.002-4.4119v2.411h2.3153v-.793h.5971v2.215h-.5971v-.7748h-2.3153v2.8623h2.9717v-.825h.5651v1.577h-5.9842v-.6153h.8705v-6.1756h-.8705v-.6245h5.7973v1.4631h-.6061v-.7202h-2.7438Zm10.5057 6.6725h-1.6727v-.6153h.866v-6.1756h-1.7957v.7839h-.67v-1.4084h6.5175v1.4084h-.6882v-.7839h-1.773v6.1756h.8523v.6153h-1.6362Zm9.3248-3.8832 2.9762-2.9033h-.907v-.6289h2.6844v.6289h-.9297l-2.0784 2.0054 1.7457 3.081c.2279.4011.442.6836.6517.8432.2142.1549.5059.2278.8842.2233v.638c-.2552.0775-.5606.1277-.907.155-.9161.0638-1.5952-.3236-2.0464-1.1577l-1.4721-2.6525-.5971.5971v2.4429h.8568v.6152h-3.3224v-.6152h.8796v-6.1802h-.8796v-.629h3.3224v.629h-.8568v2.9078h-.0045Zm16.3483-1.6818c-.3509-.5925-.8432-1.0665-1.4766-1.4266-.6336-.3554-1.3536-.5377-2.1513-.5377-.7975 0-1.5131.1823-2.1512.5424-.6426.3645-1.1348.8385-1.4766 1.4265-.3464.5834-.5196 1.2032-.5196 1.8504 0 .6563.1732 1.2762.5196 1.8641.3418.5924.834 1.0664 1.4766 1.4265.6427.36 1.3582.5424 2.1512.5424.7977 0 1.5177-.1777 2.1513-.5378.6334-.3556 1.1257-.8295 1.4766-1.4266.351-.5924.5288-1.2123.5288-1.8686 0-.6472-.1778-1.267-.5288-1.855Zm-1.6498 3.7829c-.2415.4922-.5378.8432-.8933 1.0528-.3555.2097-.7156.3099-1.0848.3099-.3691 0-.7337-.1093-1.0938-.3282-.3554-.2187-.6517-.5788-.8842-1.0847-.2324-.5013-.3463-1.1257-.3463-1.8777 0-1.1257.237-1.9553.7019-2.4885.4693-.5332 1.0072-.7976 1.6133-.7976.3828 0 .752.1094 1.1121.3282.3555.2187.6517.5743.8842 1.0619.2279.4877.3418 1.1212.3418 1.896.0091.793-.1093 1.4402-.3509 1.9279Zm10.4415-.4785 2.58-5.1548h2.411v.6245h-.866v6.1756h.866v.6153h-3.282v-.6153h.871v-5.2869l-2.58 5.2413h-.848l-2.616-5.2413v5.2869h.876v.6153h-2.352v-.6153h.856v-6.1756h-.856v-.6245h2.352l2.588 5.1548Zm14.58-1.5724c-.469-.278-.926-.4466-1.368-.5014-.223-.0228-.551-.0319-.98-.0319h-.733v-2.3062h2.279v.752h.697v-1.4949h-5.428v.629h.856v6.1711h-.856v.6153h3.235c.78 0 1.491-.1322 2.134-.4011.647-.2689.947-.9025.902-1.896-.027-.7429-.274-1.2579-.738-1.5359Zm-1.422 2.7528c-.265.2916-.602.4376-1.012.4376h-.647v-2.9853h.511c1.016 0 1.526.4876 1.535 1.4539.005.4375-.123.8021-.387 1.0938Zm12.907.4649-3.035-6.8001h-.908l-2.757 6.8001h-.824v.6153h2.232v-.6153h-.792l.565-1.4312h3.258l.607 1.4312h-.858v.6153h3.332l.023-.6153h-.843Zm-5.292-2.0373 1.286-3.1311.032-.2507h.05l.022.2507 1.39 3.1311h-2.78Zm11.404-.9617v2.999h.87v.6153h-3.322v-.6153h.856v-6.1756h-.856v-.6245h3.322v.6245h-.87v2.5294h3.323v-2.5294h-.867v-.6245h3.318v.6245h-.866v6.1756h.866v.6153h-3.318v-.6153h.867v-2.999h-3.323Zm12.169-.2689 2.976-2.9033h-.907v-.6289h2.685v.6289h-.93l-2.079 2.0054 1.746 3.081c.224.4011.437.6836.652.8432.214.1549.506.2278.884.2233v.638c-.26.0775-.561.1277-.907.155-.912.0638-1.595-.3236-2.046-1.1577l-1.472-2.6525-.597.5971v2.4429h.856v.6152h-3.317v-.6152h.874v-6.1802h-.874v-.629h3.317v.629h-.856v2.9078h-.005ZM113.52 7.84853c-1.677-1.45845-3.509-2.11019-5.305-2.25148-1.8-.14584-3.623.12306-5.47 1.00724V5h-5.619v1.52681c-4.0153-1.69545-8.6458-1.45845-12.2692 3.02172-4.3435 5.35517.5424 13.35847 5.2094 18.08017-1.1394.1458-2.2789.2871-3.4137.4421.0365.8568.0729 1.7182.1139 2.5751h8.1627v-2.5751c-4.8037-5.9341-7.5291-12.0641-5.4463-16.3346 1.7593-3.6051 4.9268-3.76917 7.5839-1.92333V30.6367h5.6783V9.92681c2.266-1.47668 4.244-1.57694 5.479-.87507 2.867 1.63166 3.163 4.53036 2.784 7.40616-.514 3.915-3.025 8.0124-5.833 11.6584v2.4658h8.171v-2.5204c-1.121-.1504-2.241-.2963-3.363-.4421 4.271-4.5668 6.618-8.7097 6.823-12.3603.159-2.7529-.843-5.29147-3.286-7.41077Zm1.75 9.16547c-1.035 3.9696-3.855 7.7206-7.771 11.3667 1.55.1869 3.095.3783 4.645.5697v.5333h-5.889v-.9891c2.023-2.6935 3.879-5.3278 4.767-7.8436 1.012-2.8623 1.896-5.7746.884-8.5821-.414-1.1485-1.089-2.32439-1.996-3.14933-1.03-.93887-2.293-1.44477-3.91-1.37184-1.618.07291-2.904.70187-4.425 1.77291V29.5931h-3.3689V9.17024c-1.7-1.18499-3.286-1.74101-5.0635-1.62251-1.7821.10938-3.9333 1.26702-5.1456 4.69437-.597 1.6863-.3646 3.5914-.0456 5.2504.7384 3.7965 3.0172 7.4062 5.7746 10.9611v.989h-5.8839v-.4922c1.545-.1686 3.0946-.3281 4.6396-.4968-1.0528-1.0938-2.0737-2.0008-3.008-3.1037-1.814-2.1239-3.3271-4.3115-4.2067-6.5448-1.0984-2.7802-1.504-5.9021.4466-8.5729 1.8231-2.50217 4.0836-3.35901 6.3033-3.62791 2.2241-.2689 4.1839.3555 6.1938 1.84129V6.09839h3.3683v2.46113c1.636-1.29437 3.332-1.94156 5.022-2.03727 3.058-.18231 6.322 1.53137 7.885 4.00165 1.139 1.8139 1.427 4.0289.784 6.4901Z"/>
</svg>