<svg xmlns="http://www.w3.org/2000/svg" viewBox="0 0 200 50">
	<path class="bg-logo" fill="#8A2E3D" d="M0 0h200v50H0z"/>
	<g fill="#fff">
		<path d="m83.0577 16.8075 4.5045-12.10026s.1766-.44162.5299-.44162h2.6497c.7949 0 1.6782.61827 1.6782 1.41318v4.7695l4.1512-5.82938s.1766-.3533.7949-.3533h3.4449c.441 0 .706.26498.53.70659-.707 2.03144-2.8267 8.03739-3.18 9.00899-.4416 1.1482.5299 2.473 3.18 1.2365 1.059-.3533.176.7066 0 .7949-.884.7949-2.2968 1.6782-4.2399 1.6782-.8832 0-4.2395-.265-.7066-8.83236-.9715 1.50146-5.2111 8.30236-6.3593 8.30236-1.0599 0-.4416-4.0628-.5299-7.94907-.4416 1.67817-1.9431 6.09427-2.738 7.50747-.1767.265-.265.4416-.53.4416H83.146c-.265-.0883-.0883-.3533-.0883-.3533Z"/>
		<path d="M105.58 19.6332s2.915-8.9206 3.886-10.77542c.883-1.76646 2.032-3.70958 3.356-3.70958 1.325 0 1.237.52994 1.679.44162C115.207 5.5015 115.031 4 112.293 4c-2.738 0-4.77 1.41317-6.095 4.41617-1.325 3.00303-5.564 15.27993-6.182 16.95803-.6187 1.6782-2.4734 3.9746-4.2399 3.9746-1.7665 0-2.2964-1.8548-2.1198-3.3563.265-2.3847 2.6497-4.9461 4.7695-5.6527 2.1202-.6182 1.9432-2.1197-.265-1.5898-2.2081.4416-7.9491 2.5614-7.9491 7.3308 0 4.7695 6.006 6.271 8.1258 3.6213-1.0599 3.3563-1.3249 4.5928-2.4731 7.3308-1.0599 2.6497-2.5614 7.5958-3.8862 7.5958-1.3249 0-1.9431-.0883-2.4731-.3533-.5299-.3532-1.3248.6183-.3533.9716.9716.3533 3.8863 1.5015 5.6527 0 1.6782-1.5015 4.3279-7.1542 5.5645-11.1287 1.236-3.9746 2.826-8.1258 3.886-10.5105 1.06-2.3847 2.208-3.6213 3.621-3.6213 1.414 0 2.65 1.7665 2.12 4.2395-.441 2.3848-3.179 4.5045-5.123 4.5929-1.943.1766-1.413 1.8548.442 1.5015 1.855-.3533 4.681-1.3249 6.094-2.5614 1.325-1.2365 2.208-2.8264 2.12-5.4761-.088-2.473-2.385-4.0628-4.593-4.0628s-3.356 1.4131-3.356 1.4131Z"/>
		<path d="m108.495 37.4741 4.858-4.8578c.088-.0883.265-.1766.441-.1766h3.533c.088 0 .088.0883 0 .0883l-6.448 6.0943 4.77 6.8009s0 .0883-.088.0883h-3.533c-.177 0-.354-.0883-.442-.265l-3.091-4.7694s-.972.4416-1.855 2.0314c-.618 1.1482-1.06 2.2964-1.148 2.738 0 .0884-.177.1767-.265.1767h-3.356c-.089 0-.177-.0883-.089-.1767.442-1.1482 3.092-8.214 3.533-9.3622.53-1.3249-.618-3.0913-2.208-2.4731-1.148.4416-1.325-.1766-.53-.6182.795-.4417 1.767-.795 3.798-.795.972 0 3.091.7066 2.65 2.7381-.354 2.1197-.53 2.738-.53 2.738Z"/>
	</g>
</svg>