<svg xmlns="http://www.w3.org/2000/svg" viewBox="0 0 200 50">
	<path class="bg-logo" fill="#1B3281" d="M0 0h200v50H0z"/>
	<path fill="#fff" d="M123.675 12.4065h7.279l-.26 3.8998v11.266c0 1.2999.087 2.5998.174 3.8997h-5.72v-.0003c.087-1.2998.173-2.5996.173-3.8994v-4.6798h-7.453v4.6798c0 1.2998.087 2.5996.174 3.8994v.0003h-.174c-2.513.1733-5.113.26-7.712.26-1.647 0-3.294-.0867-4.853-.3467-5.113-.7799-5.72-4.853-5.72-6.7595V14.4864c-.0867-.4333-.26-.7799-.52-1.0399s-.6933-.4333-1.0399-.4333h-.1734v-.6067h7.2793c-.005.0768-.01.1532-.015.2294-.081 1.2141-.158 2.3606-.158 3.5837v9.3594c0 1.3.347 3.4665 2.686 3.8998.073.0073.145.0145.217.0218.782.0788 1.503.1515 2.297.1515.78 0 1.56-.0866 2.339-.1733V14.4864c-.086-.4333-.26-.7799-.519-1.0399-.26-.26-.607-.4333-1.04-.4333h-.174v-.6067h7.28v.0003c-.087 1.2999-.174 2.5997-.174 3.8995v4.5064h7.453v-6.3263c0-.4333-.173-.7799-.433-1.0399s-.607-.4333-1.04-.4333h-.173v-.6067ZM87.1039 29.3918l-.0002.0003v.0867H93.69c1.2232 0 2.3697-.0767 3.5838-.158.0762-.0051.1526-.0102.2293-.0153v2.2532H79.5642v-.52l7.6262-12.6525c.7799-1.2132 1.4732-2.5131 2.1664-3.8129l.0001-.0002H82.424c-.4333 0-.8666.1733-1.1265.5199-.26.3467-.4334.78-.4334 1.2133h-.6932v-3.8998h16.7256v.52l-7.6262 12.5659c-.7799 1.2998-1.4732 2.5996-2.1664 3.8994Zm-17.419-16.9853h7.5395l-.26 3.8998v11.266c0 1.2999.0867 2.5998.1733 3.8997h-5.7196v-.0003c.0866-1.2998.1733-2.5996.1733-3.8994V14.8331c0-.9533-.78-1.7333-1.7332-1.7333h-.1733v-.6933ZM65.6984 10.5c.1734 2.5998.3467 5.1997.6067 7.7995l.5199 5.4597c.26 2.5998.6067 5.1996.9533 7.7995h-6.2396c-.1733-2.5999-.3466-5.1997-.6066-7.7995l-.8666-8.6662-3.3798 7.5396-.52 1.1266c-1.1266 2.5998-2.1665 5.1996-3.2065 7.7995h-.7799c-1.0399-2.5998-2.1665-5.1995-3.293-7.7992l-.0001-.0003-.26-.6933c-1.1266-2.5132-2.2532-5.0264-3.4665-7.5396l-.8666 8.2329c-.26 2.5998-.4333 5.1996-.6066 7.7995H41v-.0002c.3467-2.5998.6933-5.1996.9533-7.7993l.5199-5.4597c.0867-.9099.1517-1.7982.2167-2.6865.065-.8883.13-1.7765.2166-2.6865 0-.4333-.1733-.8666-.5199-1.2132-.3467-.3467-.78-.52-1.2133-.52V10.5h8.4928c1.04 2.5998 2.1665 5.1997 3.2931 7.7995l1.5599 3.4665 1.4733-3.4665c1.1266-2.5998 2.1665-5.1997 3.2064-7.7995h6.4996ZM144.3 12.1466c5.46 0 11.006 3.2064 11.179 9.446v.3467c0 6.4996-5.633 9.7927-11.179 9.7927s-11.179-3.2931-11.179-9.7927 5.633-9.7927 11.179-9.7927Zm-5.72 9.7927c0 3.5531 1.474 7.7128 5.72 7.7128 4.247 0 5.72-4.1597 5.72-7.7128 0-3.5531-1.473-7.7129-5.72-7.7129-4.246 0-5.72 4.1598-5.72 7.7129ZM97.8498 36.4981c-15.7724-.0867-31.458 1.6465-46.8837 5.113-.0434 0-.065.0216-.0867.0433-.0217.0217-.0433.0433-.0866.0433v.26c0 .0867 0 .0867.0866.1733 0 .0867.0867.0867.1733.0867 15.5991-1.3866 31.1981-1.9065 46.8837-1.6466 21.8386.4334 43.5906 2.3399 65.1696 5.893.086.0867.173 0 .173-.0867 0-.0866 0-.1733-.087-.1733-20.625-6.3262-42.637-9.706-65.3422-9.706Z"/>
</svg>