<svg xmlns="http://www.w3.org/2000/svg" viewBox="0 0 200 50">
	<path class="bg-logo" fill="#DD0A34" d="M0 0h200v50H0z"/>
	<path fill="#fff" d="M104.896 26.7261h-1.447l-7.2719-13.6128h-5.5929v22.9608h5.0338V24.069h1.645l4.935 9.7753h3.948l4.936-9.7753h1.645v12.0051h5.034V13.1133h-5.593l-7.272 13.6128Zm57.33-4.9205h-9.016v-3.7718h15.25v-4.9205h-20.503v22.9608h14.269c5.085 0 7.774-2.8532 7.774-7.1503 0-4.2972-3.016-7.1182-7.774-7.1182Zm-.425 9.5104h-8.591v-4.7537h8.595c1.968 0 2.885.6554 2.885 2.3615 0 1.706-.921 2.3951-2.889 2.3951v-.0029Zm-16.088-18.2027h-6.477l-8.271 8.8563h-2.922v-8.8563h-5.315v22.9608h5.315V26.89h2.922l8.304 9.1841h6.71l-10.812-11.8528 10.546-11.108ZM58.99 13 46.8749 24.511l-5.625-5.5423L47.0851 13H36.0577L30 18.9687l16.8749 17.053L62.019 20.6739h9.9517l7.2476-7.6389L58.99 13Zm20.7669 9.8057H62.8823L49.4689 36.0218H60.286l6.0575-5.9687h5.6251l7.7883-7.2474Z"/>
</svg>