<svg xmlns="http://www.w3.org/2000/svg" viewBox="0 0 200 50">
	<path class="bg-logo" fill="#005FF9" d="M0 0h200v50H0z"/>
	<path fill="#fff" d="M94.0439 27.6185c-.1737-.2841-.2581-.5823-.2535-.8948.001-.0237.0132-.0354.0369-.0354l12.2637.0099c.124.0008.236-.107.241-.2322.085-2.4231-.24-4.8201-1.896-6.6919-1.656-1.8718-4.005-2.8115-6.4756-2.7498-3.3855.0864-6.2472 2.3817-7.3403 5.5662-1.1597 3.3784.1501 7.1293 3.0585 9.191 2.6861 1.9016 6.5574 1.9384 9.4174.2605.765-.4474 1.409-1.0634 2.09-1.6184.162-.1321.171-.3852.018-.5282-.554-.5164-1.072-1.0539-1.556-1.6128-.074-.0861-.204-.1147-.307-.0679-.779.4732-1.508 1.0874-2.399 1.4187-2.6021.9657-5.3901.4617-6.8981-2.0149Zm2.8178-7.2213c2.5331-.7024 5.3663.4828 6.1823 3.0598.022.0739-.031.1324-.101.1445l-9.2064.034c-.0479-.0051-.0865-.0424-.075-.0935.3611-1.5661 1.7034-2.7286 3.2001-3.1448ZM85.7971 32.8656c.2025 0 .1673.1454.1673.2152l-.017 2.9382c-.001.2039.1005.3068.3044.3086l2.604.0184c.1448.0018.2676-.1183.2676-.2633l.0142-5.9966c0-.1436-.126-.271-.2691-.2719l-1.5943-.0071c-.1445-.0008-.2167-.0736-.2167-.218l.0014-12.0371c0-.1236-.0613-.1855-.184-.1855l-11.5302.0015c-.0523 0-.0954.044-.0948.0962.0321 2.7357.0354 5.2071.0099 7.414-.017 1.495-.3111 2.979-1.2347 4.1827-.5081.664-1.363.6986-2.1254.8043-.1539.0218-.2308.11-.2308.2648l-.0014 5.9569c0 .1634.0817.245.2449.245l2.7187.0014c.1529 0 .2294-.0765.2294-.2294l.0042-2.9763c.0011-.1581.137-.2391.281-.2394 3.5505-.0081 7.1009-.0226 10.6514-.0226Zm-1.9807-3.0089h-6.6522c-.1503 0-.248-.1734-.1501-.2959.5994-.7495.9601-1.5811 1.0818-2.4949.283-2.1142.3971-4.2272.3314-6.3605-.0057-.1926.0878-.2889.2803-.2889l4.9955.0113c.094 0 .177.0825.177.1756l-.0028 9.1599c0 .0406-.014.0934-.0609.0934ZM120.34 17.3741l2.918.0014c.064 0 .12.0568.12.1204l-.001 15.264c0 .0636-.057.1204-.121.1204l-2.922.0042c-.064 0-.12-.0566-.12-.1203v-6.2203c0-.0638-.057-.1204-.121-.1204l-7.547.0057c-.064 0-.12.0566-.12.1203l-.004 6.2118c0 .0636-.057.1204-.121.1204h-2.929c-.064 0-.121-.0567-.121-.1204l.004-15.2668c0-.0637.057-.1204.121-.1204l2.918.0014c.064 0 .12.0567.12.1204l.01 5.7587c0 .0637.057.1203.121.1203l7.544-.0042c.064 0 .12-.0567.12-.1204l.01-5.7558c0-.0638.057-.1204.121-.1204Zm9.74 4.456c-.007-1.4905-.009-2.9108-.006-4.2606.001-.1062-.087-.1954-.194-.1954l-2.85.0028c-.076 0-.143.0677-.143.1445l-.003 15.1833c0 .0912.08.1719.172.1727 2.109.0095 4.26.0114 6.451.0057 2.381-.0076 4.524-.9701 5.556-3.2482.553-1.2259.51-2.4992.201-3.7792-.607-2.5127-3.163-3.7531-5.558-3.7976-1.153-.0227-2.301-.0269-3.442-.0127-.112.002-.184-.1124-.184-.2153Zm-.042 7.7623.014-4.2535c0-.1243.105-.2272.229-.2266l3.556.0128c1.26.0045 2.346 1.0392 2.342 2.3136v.0992c-.005 1.2689-1.092 2.3013-2.359 2.2966l-3.556-.0127c-.124-.0006-.227-.1066-.226-.2294Zm15.37-9.1724c-.14 0-.21.0698-.21.2096l-.007 12.0597c0 .1049-.092.1982-.197.1982l-2.955-.0071c-.039 0-.073-.0345-.073-.0736.004-5.0427-.016-10.2856-.016-15.3433-.005-.0505.036-.0949.086-.0949l10.691.0014c.096 0 .176.081.174.177l-.025 2.7158c-.001.0882-.075.162-.163.1614l-7.305-.0042Zm21.171 2.5912c.147-.1663.221-.1384.221.0835 0 3.1265-.037 6.298-.037 9.5747-.006.1136.088.211.201.211l2.787.0057c.163 0 .243-.0817.243-.245L170 17.5682c0-.1054-.093-.1982-.198-.1982l-2.26.0028c-.13-.0003-.261.0589-.345.1586-2.819 3.2539-5.629 6.4922-8.43 9.7149-.079.0915-.175.1608-.287.2081-.078.031-.166-.0257-.166-.1104l.026-9.7984c0-.0935-.078-.1725-.172-.1714l-2.904.0029c-.046 0-.086.0407-.086.0863l-.006 15.2457c0 .0941.079.1733.173.1727.589-.0028 1.243.0014 1.961.0127.419.0071.644-.1529.918-.4616 2.736-3.0934 5.521-6.234 8.355-9.4217Z"/>
	<path fill="#FF9E00" d="M52.0443 24.9469c0 2.8108-2.2866 5.0974-5.0974 5.0974-2.8108 0-5.0975-2.2866-5.0975-5.0974 0-2.8108 2.2867-5.0975 5.0975-5.0975s5.0974 2.2867 5.0974 5.0975ZM46.9469 8C37.6019 8 30 15.6019 30 24.9469c0 9.345 7.6019 16.9469 16.9469 16.9469 3.3977 0 6.8041-1.0313 9.5944-2.9815l-2.283-2.6533c-2.2078 1.3777-4.698 2.1607-7.3114 2.1607-7.4288 0-13.4728-6.044-13.4728-13.4728s6.044-13.4728 13.4728-13.4728 13.4728 6.044 13.4728 13.4728c0 1.8644-.2852 5.3084-2.8871 5.1095-.9248-.0751-2.007-.7336-2.0142-2.346v-2.7635c0-4.727-3.8445-8.5715-8.5715-8.5715s-8.5715 3.8445-8.5715 8.5715 3.8445 8.5715 8.5715 8.5715c2.2963 0 4.4498-.897 6.073-2.5299.9442 1.4695 2.4828 2.3907 4.2343 2.5312.1501.012.3039.0181.4553.0181 4.6727 0 6.1843-4.7389 6.1843-8.5909C63.8938 15.6019 56.2919 8 46.9469 8Z"/>
</svg>