<svg xmlns="http://www.w3.org/2000/svg" viewBox="0 0 200 50">
	<path class="bg-logo" fill="#008BB0" d="M0 0h200v50H0z"/>
	<path fill="#fff" d="M27.5508 19.7986c0-3.2024 2.5961-5.7986 5.7989-5.7986 3.2027 0 5.7988 2.5962 5.7986 5.7986 0 3.203-2.5959 5.7991-5.7986 5.7991-3.203 0-5.7989-2.5964-5.7989-5.7991Zm2.3723 0c0 1.8925 1.534 3.4265 3.4266 3.4265 1.8927 0 3.4262-1.534 3.4262-3.4265 0-1.8925-1.5335-3.4262-3.4262-3.4262-1.8928 0-3.4266 1.5339-3.4266 3.4262Zm32.6841 5.7992c0-3.2023 2.5962-5.7987 5.7989-5.7987 3.2027 0 5.7989 2.5962 5.7986 5.7987 0 3.2027-2.5959 5.7989-5.7986 5.7989-3.203 0-5.7989-2.5962-5.7989-5.7989Zm2.3724 0c0 1.8925 1.534 3.4265 3.4265 3.4265 1.8926 0 3.4265-1.534 3.4263-3.4265 0-1.8926-1.5337-3.4264-3.4263-3.4264-1.8928 0-3.4265 1.5338-3.4265 3.4264Zm-47.3213-5.6063 2.947 4.7396 2.9463-4.7396h2.6588v11.2106h-2.4506v-7.3193l-3.1545 4.7877h-.0641l-3.1231-4.7398v7.2714H15V19.9915h2.6583Zm24.2386 5.6048c0 1.9218 1.3292 3.5236 3.2511 3.5236 1.2813 0 2.0662-.5132 2.9469-1.3131l1.5691 1.586c-1.1524 1.232-2.4338 2.0005-4.5961 2.0005-3.2998 0-5.7493-2.5461-5.7493-5.7648v-.0322c0-3.187 2.4021-5.7974 5.8446-5.7974 2.1142 0 3.3803.7053 4.4205 1.7302l-1.5691 1.8096c-.8647-.7847-1.7451-1.2653-2.8666-1.2653-1.8902 0-3.2511 1.5699-3.2511 3.4907v.0322Zm36.9828-5.6048 2.946 4.7396 2.9473-4.7396h2.658v11.2106h-2.4507v-7.3193l-3.1546 4.7877h-.0636l-3.1226-4.7398v7.2714h-2.4188V19.9915h2.659Zm13.8997 0 2.9467 4.7396 2.9463-4.7396h2.6606v11.2106h-2.4515v-7.3193l-3.1554 4.7877h-.0641l-3.123-4.7398v7.2714h-2.4177V19.9915h2.6581Zm18.9766 6.6619h-5.284v2.3542h6.086v2.1945h-8.536V19.9915h8.456v2.1933h-6.006v2.2748h5.284v2.1938Zm3.156-6.6619h4.58c2.675 0 4.292 1.5855 4.292 3.8756v.0321c0 2.5938-2.017 3.9393-4.532 3.9393h-1.874v3.3636h-2.466V19.9915Zm4.42 5.6522c1.233 0 1.953-.7358 1.953-1.6973h.001v-.0317c0-1.105-.769-1.6978-2.002-1.6978h-1.905v3.4268h1.953Zm29.359 5.5587 4.805-11.2908h2.274l4.804 11.2908h-2.578l-1.024-2.5142h-4.741l-1.024 2.5142h-2.516Zm5.91-8.3283-1.49 3.6358h2.979l-1.489-3.6358Zm9.848 1.5531h4.55v-4.4357h2.465v11.2106h-2.465v-4.501h-4.55v4.501h-2.465V19.9915h2.465v4.4357Zm-22.847-.413h1.783c2.75 0 4.623.842 4.623 3.5293v.032c0 2.0745-1.617 3.6266-4.292 3.6266h-4.58V19.9915h8.101l-.919 2.2254h-4.716v1.7973Zm0 4.9622h1.905c1.134 0 2.002-.3874 2.002-1.3949 0-.8909-.591-1.3743-1.952-1.3743h-1.955v2.7692Zm-8.946-8.9849h2.465v8.936h1.783v2.2746h-11.05V19.9915h2.467v8.936h4.335v-8.936ZM54.0995 31.2021H51.634V19.9915h2.4655v11.2106Zm5.0488-11.2106h2.9787l-4.4878 5.5119 4.8405 5.6987h-3.1076l-4.5746-5.6987 4.3508-5.5119Zm125.4987 0-4.486 5.5119L185 31.2021h-3.106l-4.576-5.6987 4.352-5.5119h2.977Zm-8.026 11.2106h-2.468V19.9915h2.468v11.2106Z"/>
</svg>