<svg xmlns="http://www.w3.org/2000/svg" viewBox="0 0 200 50">
	<path class="bg-logo" fill="#ED1A23" d="M0 0h200v50H0z"/>
	<path fill="#fff" d="M21.0536 15.2088c5.3598 0 9.7146 4.2859 9.7146 9.4509 0 5.275-4.3548 9.451-9.7146 9.451-5.3598 0-9.7146-4.2859-9.7146-9.451-.1117-5.165 4.3548-9.4509 9.7146-9.4509Zm0-1.2088c-6.1414 0-11.05458 4.8353-11.05458 10.7696S14.9122 35.5393 21.0536 35.5393c6.0298 0 11.0546-4.8354 11.0546-10.7697C31.9965 18.7255 27.0834 14 21.0536 14Zm-1.3393 7.0329-2.345-2.3077-2.3449 2.3077v6.8135l4.6899-4.6156v-2.1979Zm3.9075 4.7255-2.5682-2.5276v-2.1979l-2.3449-2.3077h5.1365l2.3449 2.3077v2.1979l-2.5683 2.5276Zm-.5579.55-2.68-2.6374-6.8114 6.5936h5.3599l4.1315-3.9562Zm-3.0149 3.9562 6.8114-6.5936v6.5936H20.049ZM61.6987 30.5943c2.2332 0 4.1315-.7693 5.6947-2.3077 1.5633-1.5386 2.345-3.4068 2.345-5.6047s-.7817-4.0661-2.345-5.6046c-1.5632-1.5385-3.4615-2.3078-5.6947-2.3078-2.2333 0-4.1315.7693-5.6948 2.3078-1.5632 1.5385-2.3449 3.4067-2.3449 5.6046 0 2.1979.7817 4.0661 2.3449 5.6047 1.5633 1.5384 3.4615 2.3077 5.6948 2.3077Zm0-2.5276c-1.5633 0-2.9032-.5494-3.9083-1.5385-1.1165-.989-1.5632-2.1978-1.5632-3.8463 0-1.6484.5583-2.9671 1.5632-3.9562 1.0051-.989 2.345-1.5385 3.9083-1.5385s2.9032.5495 3.9082 1.5385c1.0049.9891 1.5632 2.1979 1.5632 3.8463 0 1.6484-.5583 2.9672-1.5632 3.9562-1.005.9891-2.3449 1.5385-3.9082 1.5385ZM51.314 30.2646V14.9893h-2.6799l-4.6899 7.6926-4.6898-7.6926h-2.7915v15.2753h2.5682V19.3851l4.6898 7.6926h.335l4.6898-7.6926v10.8795h2.5683Zm28.0273.3297c-2.3449 0-4.2432-.7693-5.8064-2.3077-1.5633-1.5386-2.3449-3.4068-2.3449-5.6047s.7816-4.176 2.3449-5.6046c1.5632-1.5385 3.4615-2.3078 5.8064-2.3078 1.4517 0 2.68.3297 3.9083.9891 1.2282.5495 2.1215 1.4286 2.7915 2.6374l-2.2333 1.3188c-.4466-.7693-1.0049-1.3188-1.7865-1.7583-.7817-.4396-1.675-.6594-2.68-.6594-1.6749 0-3.0149.5495-4.0198 1.5385-1.005.9891-1.5633 2.3078-1.5633 3.9562 0 1.5386.5583 2.8572 1.5633 3.9562 1.0049.989 2.3449 1.5386 4.0198 1.5386 1.005 0 1.8983-.2199 2.68-.6594.7816-.4396 1.4515-1.099 1.7865-1.7583l2.2333 1.2088c-.67 1.0989-1.5633 1.9781-2.7915 2.6375-1.1167.5494-2.4566.8791-3.9083.8791Zm16.0791 0c2.2333 0 4.1317-.7693 5.6946-2.3077 1.564-1.5386 2.234-3.4068 2.345-5.6047 0-2.1979-.781-4.0661-2.345-5.6046-1.5629-1.5385-3.4613-2.3078-5.6946-2.3078-2.2333 0-4.1315.7693-5.6948 2.3078s-2.3449 3.4067-2.3449 5.6046c0 2.1979.7816 4.0661 2.3449 5.6047 1.5633 1.5384 3.4615 2.3077 5.6948 2.3077Zm-.1117-2.5276c-1.5632 0-2.9032-.5494-3.9081-1.5385-1.005-.989-1.5633-2.3078-1.5633-3.9562s.5583-2.9671 1.5633-3.9562c1.0049-.989 2.3449-1.5385 3.9081-1.5385 1.5633 0 2.9032.5495 3.9084 1.5385 1.0049 1.099 1.5629 2.3078 1.5629 3.9562s-.558 2.9672-1.5629 3.9562c-1.0052.9891-2.3451 1.5385-3.9084 1.5385Zm16.3033-7.1431c1.452 0 2.68.4396 3.573 1.3187.893.8791 1.451 1.9782 1.451 3.4068 0 1.3187-.446 2.5275-1.451 3.4067-.893.8792-2.121 1.3187-3.573 1.3187h-5.918V14.9893h9.491v2.4177h-7.035v3.5166h3.462Zm0 7.0332c.669 0 1.228-.2197 1.787-.6594.446-.4395.67-.989.67-1.6483 0-.6594-.224-1.2089-.67-1.6485-.447-.4395-1.006-.6593-1.787-.6593h-3.35v4.7254h3.35v-.1099Zm5.583 0v2.3078c.732.103 1.367.013 2.086-.0891l.147-.0208c.558-.1099 1.117-.4395 1.675-.8791s.893-1.099 1.229-2.088c.335-.9891.446-2.088.446-3.4068V17.407h5.248v12.9675h2.457V15.0992h-10.385v8.7915c0 1.6485-.223 2.8573-.67 3.4068-.558.5495-1.228.7692-2.233.6593Zm22.555-7.3629c1.564 0 2.904.4396 3.797 1.3187.893.8792 1.452 2.088 1.452 3.5167 0 1.4286-.448 2.6374-1.452 3.5166-.893.8791-2.233 1.3187-3.797 1.3187h-6.364V14.9893h10.272v3.7364h-6.364v1.8682h2.456Zm-.223 6.0442c.446 0 .781-.1099 1.005-.3297.224-.2198.335-.5494.335-.989s-.111-.7692-.335-.9891c-.224-.2198-.559-.3297-1.005-.3297h-2.233v2.5276h2.233v.1099Zm15.41 1.4286.67 2.1979h4.243l-5.136-15.2753h-4.802l-5.136 15.2753h4.354l.67-2.1979h5.137Zm-2.568-8.5717 1.563 5.165h-3.126l1.563-5.165Zm16.972-4.5057h3.909v15.2753h-3.909v-5.8244h-4.354v5.8244h-4.02V14.9893h4.02v5.6046h4.354v-5.6046Zm14.851 15.2753h4.467l-5.137-7.8025 4.913-7.4728h-4.466l-4.243 6.3739v-6.3739h-4.02v15.2753h4.02v-6.8135l4.466 6.8135Zm-46.897 5.1647v1.3187h-2.569v5.4948h-1.339v-6.8135h3.908Zm4.801.6593c-.446-.4395-1.005-.6593-1.675-.6593h-2.568v6.8135h1.34v-2.198h1.228c.67 0 1.229-.2197 1.675-.6593.447-.4396.67-.989.67-1.6484 0-.6594-.223-1.2089-.67-1.6485Zm-1.005 2.3079c-.111.2197-.335.3297-.67.3297v-.11h-1.228v-2.088h1.228c.223 0 .446.11.67.3297.224.2198.335.4396.335.7693 0 .3296-.111.5495-.335.7693Zm6.141-2.9672h1.34l-2.122 4.9452c-.558 1.3188-1.451 1.9782-2.679 1.8683v-1.2089c.335 0 .67 0 .893-.1099.223-.1098.446-.3297.558-.6593l-2.233-4.7255h1.34l1.563 3.2968 1.34-3.4067Zm5.807 6.8135h1.34v-6.8135h-5.137v6.8135h1.341V36.748h2.456v5.4948Zm7.705 0h-1.34V36.748h-2.457v5.4948h-1.34v-6.8135h5.137v6.8135Zm5.248-1.2089.447 1.2089h1.451l-2.456-6.8135h-1.675l-2.456 6.8135h1.451l.446-1.2089h2.792Zm-.446-1.2088h-1.899l1.005-2.7474.894 2.7474Zm10.607 2.4177h-1.34V36.748h-2.456v5.4948h-1.341v-6.8135h5.137v6.8135Zm1.898-.8784c.671.6594 1.564.9891 2.569.9891.186 0 .384-.0122.583-.0244.396-.0244.793-.0488 1.091.0244.559-.3297.894-.7692 1.229-1.2088l-1.229-.6594c-.112.2198-.335.4396-.67.6594-.335.1099-.67.2197-1.116.2197-.67 0-1.228-.2197-1.675-.6593-.447-.4396-.67-.989-.67-1.6484 0-.6594.223-1.2089.67-1.6484.447-.4396 1.005-.6594 1.675-.6594.446 0 .781 0 1.116.2198.335.1099.558.3297.782.6594l1.229-.6594c-.335-.5495-.67-.8791-1.229-1.2088-.558-.3297-1.117-.4397-1.786-.4397-1.005 0-1.898.3297-2.569.9891-.67.6594-1.005 1.5385-1.005 2.5276 0 .989.335 1.8682 1.005 2.5275Zm8.933-3.2976c.67 0 1.228.2197 1.675.5494.447.4397.67.8792.67 1.5386s-.223 1.0989-.67 1.5385c-.447.4395-1.005.5495-1.675.5495h-2.679v-6.8135h4.354v1.3187h-3.015v1.3188h1.34Zm0 2.9671c.223 0 .446-.1099.67-.2197.223-.11.223-.3297.223-.6594 0-.2198-.112-.4397-.223-.6594l-.001-.0003c-.223-.1097-.446-.2195-.669-.2195h-1.228v1.7583h1.228Zm3.015-7.5825-.893-1.2089H36.4629l.8933 1.2089H189.999Z"/>
</svg>