<svg xmlns="http://www.w3.org/2000/svg" viewBox="0 0 200 50">
	<path class="bg-logo" fill="#292929" d="M0 0h200v50H0z"/>
	<path fill="#fff" d="M51.4773 15.4687h2.1806c.5192 0 .9912.0519 1.416.1558.4342.0944.8355.2549 1.2036.4814.3681.2171.6561.5381.8637.9629.2077.4248.3116.9299.3116 1.5151 0 2.0768-1.265 3.1152-3.7949 3.1152h-4.3047v-9.912h7.2924v1.9116h-5.1683v1.77Zm0 4.3613h2.1948c.5003 0 .892-.0849 1.1753-.2549.2925-.1793.4389-.5097.4389-.9912 0-.4814-.1464-.8071-.4389-.977-.2833-.1794-.675-.2691-1.1753-.2691h-2.1948V19.83Zm13.2793.1133c0 .302.1604.4531.4815.4531.132 0 .2548-.0189.368-.0566v1.2885c-.3586.1321-.722.1983-1.0902.1983-.7175 0-1.2178-.2549-1.501-.7647-.708.557-1.5245.8354-2.4497.8354-.6702 0-1.2366-.184-1.6991-.5522-.4531-.3776-.6798-.8873-.6798-1.5293 0-.538.1605-.9864.4815-1.3451.321-.3588.6938-.5995 1.1187-.7222.4247-.1322.8873-.1983 1.3876-.1983.557 0 1.095.0614 1.6143.1841v-.2407c0-.3493-.1369-.6278-.4107-.8354-.2737-.2077-.6702-.3116-1.1894-.3116-.7552 0-1.5576.17-2.4073.5098v-1.6992c.9064-.3021 1.7842-.4531 2.6339-.4531 2.2277 0 3.3417 1.0242 3.3417 3.0727v2.1665Zm-3.1294-1.2177c-.4059 0-.7458.0754-1.0195.2265-.2737.151-.4106.387-.4106.7079 0 .2455.0991.4485.2974.6089.2076.1511.4625.2266.7646.2266.5947 0 1.1044-.1841 1.5293-.5522v-1.062c-.4343-.1039-.8213-.1557-1.1612-.1557Zm7.0018 2.9735h-1.9683v-6.7968h1.9683v2.5771h2.7471v-2.5771h1.9682v6.7968h-1.9682V19.122H68.629v2.5771Zm8.3522 0h-1.9683v-6.7968h1.9683v2.5346h.8213l1.7275-2.5346h2.2089l-2.3364 3.356 2.5348 3.4408h-2.209l-1.9542-2.6904h-.7929v2.6904ZM55.7394 35.5087H53.757l-1.8266-2.5629v-.3681l1.8266-2.563h1.9824l-1.9257 2.747 1.9257 2.747Zm-3.2285 0h-1.9824l-1.8266-2.5629v-.3681l1.8266-2.563h1.9824l-1.9257 2.747 1.9257 2.747Zm13.503-9.2606h1.9682v9.912h-2.124v-6.1029l-2.6196 3.9789h-1.232L59.387 30.043v6.1171h-2.1241v-9.912h1.9683l3.3984 5.1543 3.3843-5.1543Zm5.5822 9.912h-1.7133v-6.7967h1.9682v3.8232l3.0302-3.8232h1.6992v6.7967h-1.9541v-3.8232l-3.0302 3.8232Zm8.3943-5.8056c.557-.7929 1.3782-1.1894 2.4639-1.1894 1.0289 0 1.836.354 2.4213 1.062.5948.6985.8921 1.5434.8921 2.5346 0 .9913-.2973 1.8408-.8921 2.5488-.5853.6986-1.3924 1.0478-2.4213 1.0478-.9346 0-1.6804-.3067-2.2373-.9204v3.8374h-1.9683v-9.9119h1.7417v.9911Zm3.2852 3.7949c.3209-.3776.4814-.8402.4814-1.3877s-.1605-1.0053-.4814-1.3735c-.321-.3776-.7553-.5664-1.3028-.5664-.4059 0-.7693.1086-1.0903.3257-.3115.2171-.5381.4861-.6797.8071v1.6142c.1416.321.3682.59.6797.8071.321.2171.6844.3257 1.0903.3257.5475 0 .9818-.184 1.3028-.5522Zm9.2712 2.0107h-2.124v-9.912h8.6236v9.912H96.936v-8.0004h-4.3892v8.0004Zm10.1362-5.8056c.556-.7929 1.377-1.1894 2.463-1.1894 1.03 0 1.837.354 2.422 1.062.595.6985.892 1.5434.892 2.5346 0 .9913-.297 1.8408-.892 2.5488-.585.6986-1.392 1.0478-2.422 1.0478-.934 0-1.68-.3067-2.237-.9204v3.8374h-1.968v-9.9119h1.742v.9911Zm3.284 3.7949c.321-.3776.481-.8402.481-1.3877s-.16-1.0053-.481-1.3735c-.321-.3776-.754-.5664-1.302-.5664-.406 0-.769.1086-1.09.3257-.312.2171-.538.4861-.68.8071v1.6142c.142.321.368.59.68.8071.321.2171.684.3257 1.09.3257.548 0 .981-.184 1.302-.5522Zm5.496 2.0107h-1.714v-6.7967h1.968v3.8232l3.031-3.8232h1.699v6.7967h-1.954v-3.8232l-3.03 3.8232Zm10.815 0h-4.162v-6.7967h4.049c.756 0 1.317.1746 1.685.5238.368.3399.552.7646.552 1.2744 0 .7741-.349 1.2933-1.048 1.5577.802.2642 1.204.7976 1.204 1.6 0 .5381-.179.9818-.538 1.331-.359.3399-.939.5098-1.742.5098Zm-2.195-2.8178v1.4726h1.615c.604 0 .906-.2407.906-.7221 0-.5004-.302-.7505-.906-.7505h-1.615Zm-.013-2.6338v1.4443h1.5c.567 0 .85-.236.85-.7079 0-.4909-.288-.7364-.864-.7364h-1.486Zm7.53 5.4516h-1.713v-6.7967h1.968v3.8232l3.03-3.8232h1.699v6.7967h-1.954v-3.8232l-3.03 3.8232Zm9.669-5.2392c-.057.8307-.137 1.5482-.241 2.1523-.095.5947-.236 1.1518-.424 1.6709-.189.5098-.445.8968-.765 1.1611-.321.2644-.709.3966-1.162.3966-.349 0-.707-.0662-1.076-.1984v-1.5575c.142.0566.279.0849.411.0849.491 0 .835-.4389 1.034-1.3169.198-.8779.335-2.1948.41-3.9505h5.522v6.7967h-1.967v-5.2392h-1.742Zm4.995 1.8408c0-.6136.108-1.1564.325-1.6284.217-.4815.501-.859.851-1.1328.358-.2738.73-.4814 1.118-.6231.396-.1415.797-.2123 1.203-.2123.68 0 1.265.1274 1.757.3823.5.2549.867.5853 1.104.9912.236.3965.397.8496.482 1.3594.094.5002.07 1.0006-.072 1.5009h-4.785c.103.4721.377.8261.821 1.0621.443.2265.967.3398 1.571.3398.747 0 1.43-.1369 2.054-.4107v1.5435c-.671.2831-1.501.4247-2.492.4247-1.133 0-2.073-.3162-2.818-.9487-.746-.6324-1.119-1.5151-1.119-2.6479Zm4.998-.6372c.047-.3115-.042-.6325-.269-.9629-.226-.3303-.613-.4956-1.16-.4956-.435 0-.807.1322-1.12.3965-.311.2549-.471.6089-.481 1.062h3.03Zm5.068 4.0356h-1.967v-6.7967h5.182V31.02h-3.215v5.1401Zm5.982 0h-1.713v-6.7967h1.968v3.8232l3.03-3.8232h1.7v6.7967h-1.955v-3.8232l-3.03 3.8232Zm12.176-8.1844c-.615.3775-1.337.5664-2.168.5664-.83 0-1.552-.1889-2.166-.5664V26.503c.652.3587 1.374.5381 2.166.5381.794 0 1.516-.1794 2.168-.5381v1.4727Zm-3.809 8.1844h-1.715v-6.7967h1.969v3.8232l3.03-3.8232h1.7v6.7967h-1.954v-3.8232l-3.03 3.8232Zm11.495-.6514h-1.983l1.926-2.747-1.926-2.747h1.983l1.826 2.563v.3681l-1.826 2.5629Zm-3.229 0h-1.983l1.927-2.747-1.927-2.747h1.983l1.826 2.563v.3681l-1.826 2.5629Z"/>
	<path fill="#292929" d="M32.3675 34.8101c6.82-.011 12.34-5.35 12.3295-11.925C44.6865 16.3101 39.1494 10.989 32.3295 11c-6.8198.011-12.34 5.35-12.3295 11.925.0105 6.5749 5.5476 11.8961 12.3675 11.8851Z"/>
	<path fill="url(#a)" d="M25.2364 13.3514c-.188.1259-.508.337-.5351.3268.0136-.0153.0221-.0238.0745-.0647l.0237-.0187.3776-.2758c.8363-.5447.8363-.5447.8786-.5515-.0593.0698-.8126.5788-.8193.5839Zm.2844.1532c.2454-.1736.5434-.4358.4621-.4817-.2201-.0324-1.163.64-1.0513.7489.0474.0477.3115-.0715.5892-.2672Zm.7127.2145c.2302-.1822.4351-.4579.2235-.5005-.3894-.0204-1.1935.5873-1.0124.766.093.0919.4587-.0034.7889-.2655Zm6.2335.5157c.0304-.2519-.237-.5906-.8144-.5753-.7144.0698-.9937.6145-.6281.9055.4436.3541 1.3866.1379 1.4425-.3302Zm1.803-.046c-.0491-.2502-.4284-.5787-1.0107-.5429-.6569.0868-.7974.5923-.4012.8817.5316.3881 1.5084.1549 1.4119-.3388Zm1.7776-.1123c-.1303-.2468-.6044-.5583-1.1495-.5021-.5655.1021-.5688.5736-.1609.8476.5536.3728 1.4509.2145 1.351-.2383-.0068-.034-.0236-.0766-.0406-.1072Zm1.4627-.1634c-.2031-.2417-.7161-.5362-1.1478-.4647-.4419.1209-.2675.5856.1845.846.557.3183 1.1936.2162 1.0801-.1753-.0169-.0664-.0575-.1362-.1168-.206Zm1.0632-.2026c-.259-.2332-.7822-.5123-1.0868-.4289-.3184.1447.1201.7081.7195.926.4401.16.7245.0374.5739-.2502-.0407-.0749-.1151-.1652-.2066-.2469Zm.6315-.2246c-.298-.2247-.7991-.4852-.9667-.3967-.1879.1992.794.9618 1.2359.9584.1862-.0017.1675-.1532-.0457-.3694-.0423-.0426-.1152-.1123-.2235-.1923Zm-11.8796.5089c.2151-.2094.3285-.5192-.0152-.5515-.5417-.0017-1.2765.5958-1.0361.8409.1625.1634.7009.0527 1.0513-.2894Zm1.4323.1311c.1507-.2009.1473-.4903-.2489-.5073-.5468.0187-1.0919.5022-.86.7609.193.2162.8329.1157 1.1089-.2536Zm1.7234.0834c.0965-.2162-.022-.5175-.4943-.5209-.5909.0375-1.0429.5243-.7416.7983.2794.2571 1.0514.1362 1.2359-.2774Zm8.8932-.9618c-.3555-.2417-.7653-.451-.7821-.3659.0609.2281 1.2815 1.0366 1.361.9021.034-.0578-.22-.2927-.5789-.5362Zm-15.3721 1.0077-.0271.0239c.1218-.1056.2861-.2468.408-.3541-.1778.1481-.2997.257-.3809.3302Zm-.943 1.6614c.2674-.3149.4824-.7422.3588-.8222-.176-.0357-.5857.4562-.6026.4766-.3674.4426-.4572.6877-.4232.7626.0542.1226.3859-.0851.667-.417Zm.8566.223c.1625-.206.1981-.4682-.0135-.5124-.3623-.0255-.789.5685-.6332.7524.1135.1327.452.0068.6467-.24Zm8.6206.6689c.0457-.3098-.3285-.7285-1.1461-.7081-.916.0783-1.2698.686-.8296 1.0554.5773.4834 1.8877.2536 1.9757-.3473Zm2.4362-.0494c-.017-.3046-.4774-.7013-1.3003-.6553-.8718.1004-1.1292.6536-.6924 1.0094.6299.5124 2.0265.2638 1.9927-.3541Zm2.404-.1838c-.0796-.3047-.5722-.7183-1.3764-.6383-.8228.1379-.9531.7251-.4537 1.0792.684.4868 1.9062.24 1.8419-.3728-.0017-.0204-.0067-.0477-.0118-.0681Zm1.9756-.2213c-.1388-.2996-.6382-.6979-1.2714-.5974-.6957.1719-.6263.8136-.0542 1.1336.7094.3983 1.5441.109 1.3545-.4698-.0085-.0204-.0204-.0459-.0289-.0664Zm1.4374-.2723c-.1896-.303-.6602-.6758-1.114-.5583-.5045.1991-.259.9191.4097 1.2017.5654.24.9769-.0323.772-.5124-.0169-.0408-.044-.0936-.0677-.131Zm.8329-.2996c-.3182-.4204-.755-.6417-.8836-.446-.1931.2945.5128 1.2426 1.0005 1.1132.2725-.1378-.0762-.6127-.1169-.6672Zm-16.3354.7966c.1439-.2145.1354-.5328-.2556-.5736-.5519-.0068-.9735.577-.7246.8306.2167.2179.7567.0766.9802-.257Zm2.2584.0579c.1406-.2724.017-.6673-.5807-.6962-.7534.0204-1.2189.6451-.8972.9856.3386.3574 1.2358.1804 1.4779-.2894Zm2.2906.1174c.0914-.2689-.1321-.6468-.7889-.6519-.7805.0443-1.158.6179-.8058.9447.4147.383 1.4271.1975 1.5947-.2928Zm12.0353-1.2987c-.0575-.0681-.5689-.6673-.6247-.5022-.0136.3643.8888 1.3107 1.0446 1.2222.0863-.0494-.1574-.4085-.4199-.72Zm-20.5222 3.3158c.1711-.3626.2201-.8017.0999-.8868-.1252-.0323-.2962.3098-.3859.5175-.1761.4017-.2506.7114-.1965.8119.0729.1276.32-.0987.4825-.4426Zm1.0531.4596c.1185-.2536.0627-.577-.2049-.6366-.4062-.0323-.6484.6707-.4706.9004.154.1992.5266.0545.6755-.2638Zm10.19.6213c.0576-.3285-.3945-.7711-1.39-.749-1.119.0834-1.4796.7166-.921 1.1116.6908.4902 2.2043.2519 2.311-.3626Zm2.8848-.0238c.0203-.3813-.5452-.7643-1.4915-.7167-1.0497.1107-1.3832.7132-.877 1.0996.7178.5465 2.3329.2843 2.3685-.3829Zm2.8475-.2349c-.0271-.3558-.5112-.8154-1.5-.7217-1.0022.1565-1.251.8204-.711 1.2187.7805.5754 2.267.2417 2.211-.497Zm2.4531-.2877c-.0795-.4017-.5807-.9056-1.4457-.7711-.982.2315-1.0582 1.0469-.3962 1.4639.8431.5293 1.9977.097 1.8419-.6928Zm1.7116-.3302c-.1167-.3881-.5553-.9396-1.2341-.7677-.8008.2962-.6332 1.2868.0863 1.6426.728.3575 1.3713-.1328 1.1478-.8749Zm.8905-.3473c-.1303-.3386-.4418-.7864-.7669-.6298-.4808.3388.0051 1.4162.5266 1.4878.3267.0425.4351-.349.2403-.858Zm-19.1017.9209c.1338-.3166-.0457-.691-.5249-.7421-.6534-.0103-.9937.6707-.6551 1.0247.3098.3217.9938.1583 1.18-.2826Zm2.0078.2911c.1084-.3081-.1556-.6571-.7194-.6842-.7128.0169-1.0395.5701-.7128.9191.3674.3915 1.263.2451 1.4322-.2349Zm3.0372-.063c.0762-.2893-.2167-.6962-.9615-.7047-.833.0442-1.1632.5991-.7924.9651.4639.4597 1.6117.2894 1.7539-.2604Zm14.3259-1.5303c-.3521-.7881-.408-.6553-.4249-.611-.0965.4527.4994 1.5711.6653 1.4639.0694-.0443-.0186-.3558-.2404-.8529Zm-16.911-5.6597c.0067-.0034.7602-.3847.7906-.4647l-.0033-.0051c-.1744-.034-1.4306.5941-1.4781.7405l.0052.0068c.0846.0187.5078-.189.6856-.2775Zm.3657.1719c.2675-.1515.5908-.383.5045-.4255l-.017-.0051c-.325-.0222-1.3527.5396-1.2341.674.0491.0596.3487-.0187.7466-.2434Zm5.9541.4171c-.0186-.1771-.2539-.4239-.6332-.4069-.4368.0545-.6348.446-.3352.6673.3217.2366 1.0074.1123.9684-.2604Zm1.5424-.063c-.1068-.2026-.5012-.4749-.9329-.4392-.4435.0749-.4656.4749-.1591.7081.4401.3336 1.2071.2128 1.1258-.1787-.0051-.0272-.0203-.0647-.0338-.0902Zm1.3018-.1124c-.1879-.1974-.667-.4544-1.0378-.4034-.3555.0868-.2319.4477.1135.6707.4571.2962 1.1055.2638 1.0496-.0528-.0102-.063-.0559-.1413-.1253-.2145Zm.9989-.1464c-.2608-.194-.789-.4289-1.0582-.3693-.2606.1021.1304.5242.5824.7234.4266.1872.7923.1515.7229-.0715-.0254-.0817-.1151-.1838-.2471-.2826Zm.6704-.1702c-.3098-.1855-.8465-.4017-1.0192-.3353-.171.1396.7703.7524 1.2308.8.1913.0205.2455-.0578.1354-.1923-.0321-.0392-.127-.1413-.347-.2724Zm-9.7025.2451c.2676-.1821.4436-.4017.2811-.4357l-.0288-.0034c-.4435-.0068-1.2815.4987-1.1343.6843.083.1055.4961.0204.882-.2452Zm1.0565.1311c.1862-.1685.3233-.4289.022-.4477-.5147.0137-1.2054.5107-.9853.7098.1456.1345.6383.0307.9633-.2621Zm1.2359.0817c.1219-.1702.1219-.4102-.1998-.417-.4622.0272-.9531.4477-.7618.6536.171.1822.7347.08.9616-.2366Zm1.4153.0426c.0559-.1771-.0592-.4205-.4215-.4154-.4622.0409-.8076.4511-.5622.6656.2456.2111.8737.097.9837-.2502Zm6.3097-.686c-.3691-.1907-.8618-.3694-.9176-.303-.0051.1651 1.3256.8426 1.4678.7456.0711-.0477-.1744-.2469-.5502-.4426Zm-.0661-.1889c-.3605-.172-.7076-.3047-.7568-.2877l.0069.0136c.1388.1157 1.4017.7353 1.4813.703-.0475-.1004-.7246-.4255-.7314-.4289Zm-13.8434 2.2281c.3065-.2723.6433-.6434.618-.7098-.11-.0477-1.241.9924-1.1986 1.1013.066.0255.3419-.177.5806-.3915Zm.5723.1532c.2031-.1923.3352-.4375.1997-.4817-.2844-.029-.86.5787-.7754.7217.056.097.3471-.0238.5757-.24Zm9.0268.8017c.0018-.2536-.3724-.5923-1.0834-.5651-.8025.0766-1.0633.5821-.6433.88.5603.3949 1.7217.1839 1.7267-.3149Zm2.1807-.1651c-.0712-.286-.5418-.6536-1.2376-.5975-.7348.109-.8737.6367-.4453.9652.6027.4613 1.7421.2553 1.693-.3064-.0018-.017-.0051-.0426-.0101-.0613Zm1.9485-.1685c-.1388-.2706-.6332-.6332-1.2545-.5549-.6501.1362-.6331.6655-.1456.9753.6417.4086 1.5609.2179 1.4458-.2995-.0085-.0375-.0271-.0852-.0457-.1209Zm1.4983-.2196c-.1964-.2638-.7043-.6111-1.1698-.5157-.491.16-.2608.7302.2708 1.0128.5604.2961 1.1225.1514 1.0175-.2639-.0203-.0749-.0592-.1532-.1185-.2332Zm1.0022-.2553c-.2387-.257-.7313-.5873-1.0293-.48-.3352.1957.2302.9396.8397 1.1081.3336.0919.5587-.0477.3607-.4-.0407-.0732-.0983-.1498-.1711-.2281Zm-14.5797.4272c.2234-.2451.3334-.6127-.039-.6655-.5976-.0187-1.2664.703-1.0412.977.1761.2145.7517.0494 1.0802-.3115Zm1.5219.1856c.0271-.0375.0931-.1379.1033-.2502.0372-.412-.579-.4818-1.0632-.1209-.381.2843-.4487.6911.0423.7694.4723.0323.8059-.2468.9176-.3983Zm2.1078.0885c.1422-.2843.0016-.6843-.6299-.7013-.8227.0374-1.3256.6911-.9734 1.0332.3792.3694 1.3527.1668 1.6033-.3319Zm2.1161.0562c.0745-.2877-.1895-.6809-.8787-.6741-.8379.063-1.2155.6792-.821 1.0179.4656.4017 1.5626.1804 1.6997-.3438Zm9.3046-1.035c-.2709-.2536-.7077-.5617-.8279-.4493-.066.131.1862.451.447.6927.2776.2571.6077.4358.7364.4018.1456-.0392-.0102-.3218-.3555-.6452Zm.2438.0222c-.2117-.1839-.4859-.4358-.7026-.6128l-.0136-.0119c-.1236-.0971-.1727-.1311-.1964-.1345l.0085.0272c.176.2451 1.0615 1.0418 1.2054 1.0588l.0051-.0051c-.0186-.0579-.2777-.2962-.3064-.3217Zm-19.056 2.6962c.2589-.4017.4317-.8238.4164-.9021l-.0051-.0051c-.0897.017-.7111 1.0706-.7161 1.0808l-.0186.0324c-.0492.0902-.1643.303-.0881.2791.0577-.0187.232-.2093.4115-.4851Zm.6635.3813c.1728-.2689.2185-.6196.0237-.6843-.3368-.0408-.7888.8188-.6348 1.0128.1066.1362.4216-.0323.6111-.3285Zm11.3853.6911c.0253-.3115-.43-.7251-1.3527-.6928-1.0463.0953-1.351.703-.8059 1.0707.6959.4698 2.1078.223 2.1586-.3779Zm2.7375-.0238c-.027-.3064-.5062-.7286-1.4509-.6622-.9514.1226-1.1952.7064-.6907 1.069.7161.5158 2.1975.2332 2.1416-.4068Zm2.4464-.269c-.0847-.3387-.5672-.7711-1.3815-.6707-.8584.1703-.9786.8086-.447 1.1796.7737.5396 2.0028.1958 1.8285-.5089Zm1.979-.2843c-.1473-.3761-.6619-.8425-1.3476-.7064-.8025.2418-.6619 1.0741.0356 1.4349.7652.3967 1.5287.0273 1.3408-.6468-.0085-.0255-.0203-.0578-.0288-.0817Zm1.2139-.3217c-.1727-.337-.6145-.8119-1.07-.657-.5383.2757-.1642 1.2732.5637 1.5013.5435.1719.8042-.2621.5063-.8443Zm-18.3823.5771c.1744-.3013.1-.6622-.2894-.72-.574-.0239-1.0056.6877-.7433 1.0094.2235.2723.8008.1089 1.0327-.2894Zm2.0925.1821c.1558-.32.0152-.7915-.6534-.8392-.8686.0068-1.3442.8018-.904 1.1984.4028.3642 1.3069.1566 1.5574-.3592Zm2.2483.1583c.105-.286-.1185-.6928-.8075-.7132-.8194.0323-1.2003.6298-.8329.9941.4232.4187 1.4508.2417 1.6404-.2809Zm2.7358.0766c.0677-.2536-.2523-.6009-1.0242-.5958-.877.0528-1.2172.5396-.8228.8511.5113.4017 1.7183.235 1.847-.2553ZM42.8263 16.96c-.1575-.2638-.5063-.7234-.6874-.5702-.2692.3744.5434 1.4537.8482 1.3651.1558-.0443.0897-.3796-.1608-.7949Zm.3809.3983c-.2354-.417-.5909-.9481-.8651-1.3396l.0135.034c.3284.6588.7483 1.2511.86 1.3414l.0068-.0034-.0152-.0324Zm-22.6621 2.841c.144-.492.1863-.9669.1794-1.0434-.0118.0067-.0118.0067-.0338.0714-.127.4273-.2895.9975-.3894 1.4315l-.005.0273c-.0051.0425-.0051.0494-.0035.0663l.0136.0034c.0609-.0578.1608-.291.2387-.5565Zm.6992.3829c.1202-.3727.0203-.7983-.2048-.8765-.3844-.0511-.579.9991-.4013 1.2629.149.223.4775.0137.6061-.3864Zm12.8868.8699c.056-.4443-.5095-.8971-1.5168-.858-1.1411.1124-1.5034.7984-.987 1.2597.7212.6434 2.4073.3744 2.5038-.4017Zm3.088-.092c.022-.4204-.5654-.8306-1.5524-.7591-1.1241.1446-1.4323.8051-.8871 1.2239.7584.5803 2.4006.2689 2.4395-.4648Zm2.746-.2791c-.0169-.4035-.4859-.9141-1.4779-.7915-1.1241.2161-1.3357 1.0263-.6671 1.4519.8346.5294 2.1772.1175 2.145-.6604Zm2.1518-.3694c-.0559-.4425-.5045-.9923-1.3273-.8307-.9819.2843-1.0411 1.2562-.3386 1.6766.7872.4716 1.7691-.0271 1.6659-.8459Zm1.5372-.24c-.0846-.3881-.4385-.9379-1.0276-.7592-.8042.349-.5705 1.469.1709 1.7192.5706.189 1.0023-.2945.8567-.96Zm-20.9369.4647c.0863-.2672-.0661-.6025-.4215-.657-.5011-.0222-.6637.5957-.4301.8817.2371.2877.7297.1566.8516-.2247Zm2.2059.3421c.0863-.2945-.1574-.6332-.6585-.6707-.6908.0035-.8652.6061-.5384.9142.3539.3319 1.07.1872 1.1969-.2435Zm2.7849.1532c.0898-.3574-.2895-.7541-.9971-.7745-.8838.034-1.1935.6792-.728 1.0758.5198.4426 1.5847.257 1.7251-.3013Zm3.303.1226c.0746-.3438-.3741-.8153-1.4068-.8086-1.1461.0698-1.5254.7285-.9633 1.1507.7008.526 2.2296.3064 2.3701-.3421Zm13.173-1.5405c-.0237-.0902-.2336-.8698-.4927-.6639-.3504.4069.0508 1.5831.4081 1.5712.2166-.0051.1964-.4749.0846-.9073Zm-.1947-.9225-.0474-.1278.0085.0256c.0913.2945.1524.5991.2387.8953.0609.2128.1405.4205.2048.6316-.1117-.4307-.2607-1.006-.4046-1.4247Zm-15.704-7.2684c.8905-.2979.8905-.2979.916-.3132v-.0034c-.2083-.0102-1.4035.3779-1.5795.5107l.0033.0085c.0592-.0034.2251-.0562.6602-.2026Zm.1254.1362c.1235-.046.7448-.2792.7922-.337l-.0101-.0102c-.2523-.0171-1.6185.4306-1.5694.5651.0762.034.4689-.1005.7873-.2179Zm.4181.1294c.1896-.0851.706-.3337.5993-.3694l-.0186-.0034c-.4165-.0085-1.6219.4919-1.4644.6094.0542.0391.3335.0085.8837-.2366Zm3.5603.2366c.0102-.1328-.1049-.3898-.4148-.3779-.3538.0442-.6636.4289-.4181.6332.2437.2043.8075.0783.8329-.2553Zm1.0226-.0256c-.0779-.1634-.359-.3779-.6416-.3574-.3302.0544-.3929.4221-.105.6128.325.2161.8211.0987.7719-.1822-.005-.0238-.0152-.0527-.0253-.0732Zm1.0089-.0646c-.1659-.1549-.5739-.3609-.8397-.3303-.2539.0596-.1235.3813.1575.5549.364.2247.8549.1924.7991-.0527-.0051-.0239-.0271-.0885-.1169-.1719Zm.8313-.092c-.2692-.1651-.7516-.3353-.9446-.2996-.1728.0647.154.3779.5061.5413.4232.1958.7653.1583.6857-.0153-.0135-.0323-.0661-.1157-.2472-.2264Zm.6027-.114c-.3285-.1515-.86-.3081-.9904-.2673-.1117.0869.7737.5805 1.2206.6281.1677.0188.2269-.0289.1491-.1208-.0593-.0698-.1981-.1566-.3793-.24Zm.3589-.1294c-.3978-.1515-.9176-.2757-.9769-.2349-.005.0681.6807.3524.8974.4324.3402.1259.5941.1804.6348.1361.0406-.0425-.1558-.1804-.5553-.3336Zm-6.7092.2962c.2201-.1277.4994-.337.3945-.3779l-.0474-.0068c-.4183.0085-1.4204.4613-1.2817.6315.0779.0936.4944.0085.9346-.2468Zm.8448.0766c.176-.1481.325-.3728.1303-.3898l-.0322-.0017c-.4401.0238-1.2206.4681-1.0258.6519.127.1192.5992.0137.9277-.2604Zm.9683.0443c.0881-.1362.1321-.3898-.1574-.3881-.4232.0357-.9701.4698-.7246.6604.1862.143.6925.0221.882-.2723Zm4.9875-.5498c-.3724-.1243-.7449-.2077-.8296-.1992l-.005.0085c.0744.0647 1.3967.543 1.4813.4885-.0016-.051-.3368-.194-.6467-.2978Zm-.1811-.1362c-.3877-.1192-.689-.1839-.7585-.1856l.0102.012c.0118.0051 1.478.4749 1.5626.48-.0186-.0341-.474-.2026-.8143-.3064Zm-1.8809-.4409c-.3319-.0476-.6111-.063-.6298-.0528.0169.0034.022.0034.061.0086.4537.0323.9006.0953 1.3357.1855l-.0152-.0051c-.0051 0-.3674-.0817-.7517-.1362Zm-4.2984.1566c.3657-.0664.6044-.1004.7956-.1277.144-.0204.1491-.0221.1643-.0272v-.0017c-.2082-.0221-1.3477.1566-1.6287.2707.0119.0034.0119.0034.6688-.1141Zm-.0068.08c.3047-.0647.6163-.0953.9159-.1855v-.0051c-.2743-.0102-1.4593.1906-1.6744.3217v.0102c.0627.0068.1964-.0221.7585-.1413Zm.1625.0783c.7974-.2076.7974-.2076.811-.2162l-.0102-.0051c-.3217 0-1.5761.2554-1.6184.3779.0405.0426.4434-.0579.8176-.1566Zm2.553.1719c-.0356-.0953-.1879-.2706-.3233-.2604-.1677.034-.3403.337-.1186.4783.1914.1226.5029.0256.452-.1906l-.0101-.0273Zm.6163-.0272c-.1372-.114-.447-.257-.5621-.2434-.1101.034-.0237.3047.2133.4374.2218.1243.4892.0988.4621-.0425-.005-.0323-.0304-.0834-.1133-.1515Zm.5519-.0477c-.2438-.1157-.6586-.2366-.7517-.2195-.0728.0391.3402.3523.6873.4527.2184.0647.3741.0409.3284-.0493-.0168-.029-.0727-.0936-.264-.1839Zm.4232-.0612c-.3301-.109-.8211-.2111-.8804-.1924.0119.0443.6502.3047.8144.3575.4655.1515.4977.0783.5011.0681.0085-.0392-.1236-.1294-.4351-.2332Zm.2844-.0732c-.425-.109-.9261-.1788-.9497-.16.0964.0612 1.483.4834 1.5304.3864-.0271-.0613-.3115-.1566-.5807-.2264Zm-4.0936.1089c.1388-.0477.596-.206.6399-.2366l-.0033-.0068-.0135-.0017c-.4386.0136-1.5661.3523-1.4357.4323.0221.0154.1473.0426.8126-.1872Zm.4538.0545c.005-.0017.4282-.2094.4401-.2537l-.0288-.0068c-.3826.0256-1.3188.3694-1.1715.4698.0542.0341.3064.0103.7602-.2093Zm.5417.0357c.0711-.0578.2929-.2621.193-.2689h-.017c-.3166.0323-1.0175.3779-.8431.4919.0864.0562.3894-.0017.6671-.223Zm.5992.0153c.0271-.0612.0763-.2757-.0744-.2689-.2167.0323-.6619.3421-.496.4851.1151.1005.4656.0187.5704-.2162Zm2.6326-.2927c-.4266-.0868-.9293-.1464-.9582-.1277.0119.0051 1.5356.3796 1.6524.3455-.0135-.0578-.4334-.1634-.6942-.2178Zm-.0304-.0783c-.3877-.0664-.8109-.1056-.8364-.092.0136.0035 1.5051.2911 1.561.269-.039-.0306-.3556-.1141-.7246-.177Zm-.1947-.0783c-.3488-.0528-.6755-.0749-.7263-.0664.0118.0034 1.4661.2281 1.4915.223l-.0068-.0034c-.0913-.0307-.4147-.1022-.7584-.1532Zm-2.123-.1515c-.0102.0187-.0118.0391-.0186.0579l.0034-.0018c.0592-.0272.11-.0442.2082-.0715.0355-.0102.0406-.0102.0457-.0136V11.05c-.0033-.0017-.2082-.0272-.2387.0307Zm-.1524.0017c.0745.0255.1118.0442.1321.0562v-.0018c-.0017-.0221.0067-.0425.0034-.0629l-.0153-.0171c-.0389-.0153-.1912-.0119-.2014-.0034.0017.0034.0017.0034.0812.029Zm-.1456.0085c.1524.0187.2405.0391.2777.0477-.1321-.0528-.2268-.0903-.4859-.0784-.0203.0017-.0203.0017-.0271.0035.0051.0016.0119.0034.0762.0102.0356.0034.0948.0085.1591.017Zm-.1287.0136c.2151.0119.3488.0272.4064.0341-.1253-.0222-.4605-.0835-.8008-.0528l-.0102.0034c.1338.0136.2693.0068.4046.0153Zm-.0965.0153c.2608.0034.4318.0136.5029.0188-.6755-.0664-1.0107-.0256-1.0479-.0205l-.0034.0017c.1828.017.3657-.0017.5484 0Zm-.0625.0188c.2911-.0069.4824-.0018.5654 0-.8448-.0426-1.2139.0187-1.2172.0187l-.0018.0017c.017.0017.0542.0017.1914-.0051.1286-.0051.2878-.0119.4622-.0153Zm1.0039-.0358c-.1338.0068-.2692.0187-.4368.0358h.0102c.3368-.0222.5942-.0256.9514-.0222.1303.0017.1406 0 .1574-.0017-.0542-.0136-.3605-.0289-.6822-.0119Zm-.1219-.0119c-.1202.0136-.2268.0323-.3166.0493l.0085-.0016c.2725-.0324.4943-.0443.7652-.0511.0761-.0017.0846-.0034.0998-.0034-.027-.0102-.2844-.0239-.5569.0068Zm-.1406-.0085c-.066.0153-.1252.0374-.176.0562l.0051-.0018c.1541-.0323.2963-.0527.5061-.0697.0542-.0052.0593-.0052.0695-.0069-.0085-.0034-.2252-.0187-.4047.0222Zm-.7635.0749c.3047-.0171.4961-.0187.5892-.0187-.9363-.012-1.3019.0612-1.3053.0629.0085.0051.0796 0 .2844-.0153.0965-.0068.2608-.0187.4317-.0289Zm.017.0204c.298-.0272.4825-.0357.5722-.0391-.9108.0187-1.2799.0953-1.3053.1072.0186.0034.0678 0 .3065-.0255.1506-.0154.281-.029.4266-.0426Zm.0559.0204c.1895-.0272.3572-.0459.5146-.0595h-.0101c-1.004.0578-1.2562.1565-1.2562.1565.0169.0069.0169.0069.7517-.097Zm.5281.0358c-.0016-.0324-.0135-.063-.0135-.0953l-.0017.0016c-.0694.0494-.1472.1073-.1743.1567-.0441.0799.0101.0987.0354.1021.0576.0085.1643-.0324.1541-.1651Zm.1524-.0051c-.0474-.0307-.0965-.0562-.1659-.0902v.0016c.0203.046.0254.0971.0474.1413.0068.0136.0237.0426.0576.0715.0609.0494.1557.0596.1709.017.0085-.017.0102-.0612-.11-.1412Zm.149-.0085c-.1253-.0392-.2573-.0681-.3149-.0817l.0034.0016c.1507.0613.2861.1549.4384.2111.0847.0307.1762.0409.1659.0085-.0033-.0204-.0727-.0715-.2928-.1395Zm.1236-.0137c-.1693-.0323-.3301-.0544-.4385-.068l.0068.0016c.1202.0239.2048.0443.4249.1056.1828.0511.4571.1294.4808.0987-.0186-.0323-.2133-.0885-.474-.1379Zm.0897-.017c-.1574-.0187-.3301-.0357-.5265-.051l.0084.0016c.2438.029.408.0579.6993.1107.2403.0442.4113.0749.4384.0613-.0508-.0358-.3504-.0902-.6196-.1226Zm.0525-.0187c-.1761-.0136-.3657-.0238-.5807-.0323h.0101c.3048.0204.5215.0459.8939.0936.2337.0306.3589.0459.3962.0408-.0237-.0238-.3369-.0732-.7195-.1021Zm-.9938.0425c.2066-.0442.3352-.0646.4148-.0748l-.0102.0016c-.8939.092-1.0614.1924-1.0632.1941.0153.017.0153.017.6586-.1209Zm.1253.012c.1185-.0409.2032-.0664.2895-.0868l-.0068.0016c-.6467.109-.8041.2009-.8092.2247.0322.029.2184-.034.5265-.1395Zm.1422.0068c.0576-.0409.0948-.0681.1456-.0936l-.0051.0016c-.5722.1669-.5045.2452-.5028.2452.0034.0017.0796.0476.3623-.1532Zm.7399-.0817c-.1846-.0085-.3726-.0119-.5943-.0119h.0119c.3555.0102.6077.0289 1.036.068.2117.0188.2777.0239.32.0222-.0304-.0239-.4131-.063-.7736-.0783Zm-.0271-.0205c-.1744-.0017-.3556 0-.5672.0086h.0119c.3318-.0018.5958.0068 1.0445.0323.2167.0119.2658.0153.2945.0119-.0219-.0153-.369-.0477-.7837-.0528Zm.667.0068c-.4046-.0238-.8161-.0238-1.2342.0018h.0101c.3963-.0171.6908-.0103 1.0345-.0018.154.0034.1641.0034.1862.0018l.0034-.0018ZM24.62 31.5732c-.3165-.3796-.9649-.771-1.0868-.6979-.1473.0868.6247.8681 1.0852 1.0248.0203.0051.0474.0118.0677.0118.1303.0069.1033-.1361-.0661-.3387Zm7.9909.543c.066-.2893-.3996-.5907-1.1935-.5754-.8144.0562-1.0396.4171-.7315.7081.4962.4665 1.8099.3762 1.925-.1327Zm2.2821-.0578c.1473-.2946-.237-.5805-1.0445-.5396-.9143.0918-1.2393.5327-.855.8187.518.3812 1.6878.143 1.8995-.2791Zm2.2534-.143c.22-.2979-.0289-.5771-.816-.5056-.9516.131-1.3849.6196-1.0159.8885.4149.3014 1.4933.0749 1.8319-.3829Zm1.8538-.2077c.2759-.3081.154-.5328-.2777-.5106-.0525.0033-.1219.0118-.1744.0204-.8854.177-1.4153.7608-1.0513.9821.32.1958 1.1207-.0663 1.5034-.4919Zm1.3458-.2554c.2912-.2979.3251-.5123.0813-.5123-.0592 0-.1304.017-.1777.0272-.7382.2196-1.3595.909-1.0683 1.0571.2031.1039.7804-.1805 1.1647-.572Zm.8008-.2859c.2607-.2639.4672-.526.342-.5209-.0271.0017-.0711.0205-.0999.0324-.5418.2706-1.2664 1.0621-1.0869 1.1115.0999.0255.4792-.2537.8448-.623Zm-15.1605.6196c-.2183-.3473-.9396-.6349-1.1173-.5022-.1897.1414.3639.6758.8938.7746.3386.0408.2946-.1601.2235-.2724Zm1.7641.1617c-.0694-.189-.4284-.4085-.8532-.4324-.4199.0035-.3471.2298-.2033.3728.3437.3388 1.0734.4239 1.0683.1225 0-.0203-.0051-.0459-.0118-.0629Zm2.3481.1327c-.0203-.2535-.4791-.531-1.1292-.5412-.6196.0238-.7212.308-.4605.5583.4825.4629 1.627.4493 1.5897-.0171Zm-3.159 1.3618c-.4402-.2655-.9955-.5259-1.0446-.4885.0135.0885.926.5856 1.2849.6996.0289.0085.0356.0085.0508.0085l.0051-.0102c-.0237-.0358-.1235-.1056-.2962-.2094Zm5.6223.3796c.0507-.1889-.2878-.3847-.8752-.3762-.5706.0357-.7027.2502-.4978.429.3487.3046 1.2849.2689 1.373-.0528Zm1.6066-.0409c.1591-.194-.0778-.3812-.6822-.3506-.6467.0596-.9041.32-.6942.5038.2997.2639 1.1461.1277 1.3764-.1532Zm1.5846-.0987c.2015-.1566.1727-.2876-.0744-.3302-.1304-.0221-.2794-.0085-.359-.0017-.7449.097-1.0902.4238-.9124.5787.2183.1907 1.0123.0102 1.3458-.2468Zm1.3036-.1464c.2624-.1634.3318-.2978.1727-.3336-.0829-.0187-.2049-.0017-.2708.0068-.7128.1328-1.2546.5532-1.0683.6638.1659.0971.7974-.1072 1.1664-.337Zm.9481-.1804c.325-.1856.4807-.3337.369-.3524-.0406-.0068-.0981.0069-.1557.0187-.6078.1669-1.3425.6605-1.219.7201.0847.0443.6028-.1567 1.0057-.3864Zm.1151.0409.6162-.3388.0373-.0222c.2251-.1361.3335-.2076.3639-.2433l-.0067-.0068c-.0203.0051-.0288.0068-.0694.0238-.3911.1719-1.2663.6928-1.3375.7643.0475.0067.3912-.1754.3962-.177Zm-10.0884.223c-.2641-.1976-.7754-.4393-1.1427-.4851-.0526-.0018-.21-.0103-.1101.1105.2252.2707 1.3934.7388 1.4187.5685.0068-.0391-.0542-.1105-.1659-.1939Zm1.3273.1191c-.1473-.1668-.6179-.4136-1.1207-.4443-.4165 0-.2286.1992-.1863.2383.3268.3099 1.4052.6162 1.3697.3183-.0051-.0323-.0271-.0698-.0627-.1123Zm1.5203.0697c-.0626-.1888-.4909-.3982-1.031-.4084-.5011.0169-.4503.2076-.342.3166.342.349 1.3492.4579 1.3814.1514.0018-.0187-.0016-.0425-.0084-.0596Zm1.6184.8869c.0305-.0596-.1473-.1464-.4859-.143-.2708.012-.3012.0767-.2555.1174.1133.0971.6805.1396.7414.0256Zm.7924-.0187c.0948-.0392.1084-.08.0389-.1072-.0863-.0341-.2455-.0273-.2979-.0256-.3556.0272-.5012.1243-.4402.177.083.0749.5299.0238.6992-.0442Zm.7838-.0511c.1778-.0459.2675-.0953.2218-.1192-.0407-.0238-.1795-.0118-.2252-.0085-.4266.046-.7499.1856-.7449.2264.0423.0239.4809-.0289.7483-.0987Zm.6433-.0715c.0847-.0187.3674-.0851.4182-.1327l-.0051-.0102c-.0271-.0051-.0542-.0035-.1321.0067-.3741.0596-1.0648.2639-1.0699.2656.1677-.0222.3911-.0544.5587-.0817l.0389-.0068c.0508-.0119.1185-.0239.1913-.0409Zm-4.4576.0409c-.3216-.0732-.6382-.1753-.965-.2196l-.0304-.0017c.0457.0579.6924.1804.9041.2196.132.0222.3097.0493.4418.0698h-.0034c-.0931-.0136-.2065-.0358-.3471-.0681Zm.6552.0596c-.3826-.1124-.6636-.1736-.8566-.1873-.0576-.0017-.0745.0017-.083.0137.0406.097 1.0192.2468 1.1259.2348-.0102-.0085-.0119-.0102-.1863-.0612Zm.7517.034c-.1032-.063-.3876-.1549-.6958-.1617-.1846.0034-.1659.0408-.1388.0646.1134.0937.8922.2163.8769.1379l-.0423-.0408Zm1.4729-.3268c.1033-.1311-.1135-.269-.5858-.2536-.4892.0357-.5891.1991-.474.3046.2285.2077.9091.1431 1.0598-.051Zm1.2392-.0545c.1558-.097.1507-.1838-.0168-.2247-.1169-.0272-.2557-.0187-.337-.0136-.562.0579-.8143.269-.7042.3779.1506.1481.8007.0187 1.058-.1396Zm1.1055-.0953c.2286-.1038.3099-.1941.21-.2298-.0694-.0255-.1981-.0103-.2692-.0034-.6095.0902-1.0479.3643-.9599.4442.0914.08.6754-.0561 1.0191-.211Zm.8499-.1243c.2946-.1174.4639-.223.4029-.2485-.0304-.0136-.1202.0017-.1642.0102-.491.1038-1.141.4102-1.1885.4902l.0068.0103c.0931.0204.6095-.1294.943-.2622Zm-1.6473.4783c.359-.0697.4673-.0919.8821-.194l.0118-.0034c.083-.0221.1727-.0494.2049-.0647-.0068-.0034-.0085-.0034-.0728.0102-.3453.0766-.6823.1771-1.026.2519Zm2.2161-.6246c.2523-.0987.5435-.2247.5842-.2673-.0119-.0051-.0154-.0068-.0848.0136-.3504.1107-1.3408.5311-1.3695.5465.0439.0033.2725-.0767.772-.2537l.0236-.0086c.0221-.0102.0526-.022.0745-.0305Zm-8.2108.2195c-.127-.0527-.7754-.3233-1.0699-.3762-.0322-.0034-.0374-.0034-.0492.0018.0508.1242 1.3137.5344 1.4424.5311-.0085-.0154-.0169-.0273-.3233-.1567Zm.9091.1073c-.2235-.1209-.6941-.3065-1.0378-.337-.0508-.0018-.1676-.0051-.105.0647.1575.1718 1.3374.5327 1.3138.4016-.0035-.0255-.066-.0715-.171-.1293Zm1.0869.0714c-.1253-.1174-.5215-.2876-.9396-.3046-.2794.0034-.2286.0919-.1947.1294.1625.177 1.1715.4595 1.1867.2637.0034-.0323-.0354-.0731-.0524-.0885Zm1.2002.0324c-.0202-.1293-.347-.2741-.7855-.2758-.3673.0153-.4113.1294-.2962.2281.2895.2503 1.1191.286 1.0817.0477Zm-8.8033-4.1448c-.2759-.4188-.7856-.8426-.8821-.8085-.1184.0425.5672 1.0008.9244 1.1863l.0271.0103c.1252.0357.0931-.1413-.0694-.3881Zm10.8248.7404c.105-.3353-.3775-.6741-1.2647-.6417-.9548.0817-1.268.5498-.8921.8818.5484.4834 1.9808.3251 2.1568-.2401Zm2.6089-.114c.1726-.3387-.2015-.6655-1.1055-.6008-1.0108.1225-1.412.6416-1.0192.9634.5011.4084 1.8504.1787 2.1247-.3626Zm2.3312-.2026c.1912-.2979.0728-.6723-.7958-.5702-.9801.1685-1.4593.749-1.0885 1.0435.43.342 1.5388.0629 1.8843-.4733Zm1.7894-.2621c.2794-.3847.127-.6401-.3402-.5703-.0255.0035-.0593.0103-.0847.0154-.8567.2161-1.373.8937-1.0242 1.1438.3131.2264 1.0869-.0885 1.4491-.5889Zm1.2003-.3047c.2828-.3745.303-.6179.0475-.5788-.034.0051-.0763.0188-.1101.029-.6958.274-1.2681 1.1184-.9447 1.234.2049.0733.6755-.2468 1.0073-.6842Zm-17.4189.4852c-.1168-.2281-.4824-.5227-.8211-.5771-.3301-.0221-.1574.2792-.0203.4408.3301.3898.8414.5703.8821.3115.0101-.0663-.0255-.1447-.0407-.1752Zm1.6947.1395c-.0678-.2077-.4148-.4528-.8245-.4852-.408-.0033-.342.2605-.1693.4409.3775.3915 1.0073.4137 1.0056.1141 0-.0221-.005-.0494-.0118-.0698Zm2.3854.1804c-.0306-.2552-.4623-.5413-1.0598-.5617-.6434.017-.6281.3643-.3725.5991.5231.4767 1.4796.3711 1.4323-.0374Zm2.7222.0954c.0322-.3183-.4825-.6571-1.2985-.6554-.9073.0511-.9886.4851-.6992.766.5418.5243 1.9419.4459 1.9977-.1106Zm11.0043-.9992.3318-.4511.0255-.0375c.1523-.223.198-.3081.1861-.337-.0168-.0034-.0253 0-.0744.034-.4926.3882-1.0734 1.2869-.9294 1.2767.0981-.0051.457-.4801.4604-.4851Zm-16.9652 2.4971c-.3674-.2945-.8278-.5924-.9328-.6213l-.0085.0068c.0085.0153.0305.0544.3166.2774l.4521.3371c.2979.2111.3927.257.4283.2758.0305.0118.0305.0118.0423.0051-.017-.0528-.2151-.2145-.298-.2809Zm8.3108.5668c.1067-.2434-.2556-.4868-.965-.4647-.7635.0613-.9955.3916-.6856.6332.4622.3609 1.4915.1958 1.6506-.1685Zm2.0028-.0885c.2014-.2485-.0559-.4835-.7619-.4341-.7974.092-1.1648.4647-.8939.6945.3607.3081 1.3663.0987 1.6558-.2604Zm1.7894-.1532c.2557-.2349.1693-.4205-.198-.4306-.0898-.0017-.1829.0085-.2489.0152-.8228.1329-1.3205.5822-1.0378.7848.2946.211 1.1224-.0358 1.4847-.3694Zm1.373-.2026c.2844-.228.3386-.4051.1321-.4307-.0779-.0084-.1575.0052-.2353.0205-.723.1702-1.3443.703-1.1208.8596.188.1328.8414-.1413 1.224-.4494Zm.921-.2349c.3115-.2383.4622-.4204.3657-.4408-.0356-.0085-.0914.0085-.144.0255-.6094.2213-1.3238.846-1.1935.9225.0898.0529.5604-.1923.9718-.5072Zm-13.3237.3456c-.369-.354-1.08-.6639-1.1986-.5652-.1303.1107.6654.715 1.1817.8375.022.0034.0525.0085.0762.0085.1406.0035.1169-.1123-.0593-.2808Zm1.4611.177c-.2726-.366-1.1376-.6451-1.3612-.4987-.2336.1531.4352.686 1.1039.7812.4926.0392.2675-.2706.2573-.2825Zm1.6659.1022c-.0728-.1992-.4893-.4239-.9938-.4426-.4384.0084-.4537.194-.2828.3625.3776.3711 1.2799.4732 1.2884.1447 0-.0188-.0051-.0459-.0118-.0646Zm2.0874.0698c.0084-.2401-.4385-.4989-1.1157-.4989-.6535.0341-.7754.3064-.5129.5396.4723.4222 1.6133.3933 1.6286-.0407Zm7.8689-.4393c.3741-.274.8668-.6501 1.224-.948l.0119-.012.005-.0067c-.0118.0033-.0118.0033-.049.0271-.4064.2758-1.1987.904-1.2461.9703.0102-.0018.017-.0034.0542-.0307Zm-17.788-5.1949c-.1084-.3797-.4503-.8393-.6907-.9278-.3014-.0511.0778.8664.3098 1.1813.2099.2843.3741.2605.4097.0715.0119-.0595.0169-.1634-.0288-.325Zm12.4975.8613c.0846-.3559-.3792-.8273-1.4678-.7865-1.1462.1055-1.4932.7269-.9616 1.1422.7009.5481 2.2686.32 2.4294-.3557Zm3.0118-.1329c.1337-.4118-.3488-.8102-1.3612-.737-1.1461.1464-1.549.7813-1.0649 1.1779.6383.526 2.2043.2418 2.4261-.4409Zm2.6918-.2315c.1354-.3591-.11-.8119-1.0784-.6961-1.1039.1992-1.5287.9055-1.0276 1.2681.5959.4323 1.8572.0902 2.106-.572Zm2.0671-.303c.1456-.3625.0203-.8119-.7144-.6706-.9566.2537-1.3409 1.0741-.8346 1.3787.4672.281 1.3069-.1021 1.549-.7081Zm1.4712-.3642c.1625-.4086.1913-.9498-.3928-.7626-.8414.3575-1.2511 1.4571-.7805 1.6903.3455.1719.916-.2792 1.1733-.9277Zm-20.1768.5941c-.0474-.2519-.347-.5703-.7008-.6248-.3997-.022-.3115.4205-.0441.7082.3318.3592.7382.3081.7517.0033.0017-.0254-.0017-.0612-.0068-.0867Zm2.1788.0918c-.0457-.5361-1.0699-.9718-1.4796-.6297-.3454.2876.0677.9498.8126 1.0621.5604.0425.6823-.2638.667-.4324Zm2.6005.269c.0084-.3404-.4791-.7217-1.219-.7439-.8347.0273-.899.5345-.5756.858.5993.5991 1.7794.4255 1.7946-.1141Zm3.0439.0954c.0457-.3353-.4233-.7984-1.4221-.7933-.9768.0613-1.2561.5941-.8363.9958.6281.5992 2.1687.4613 2.2584-.2025Zm12.9174-1.4231c.0846-.2281.2623-.7524.1015-.6894-.0186.0068-.039.0239-.0558.0358-.4927.4408-.7703 1.5217-.5468 1.5081.1167-.0068.3097-.3336.5011-.8545Zm-22.1559 1.7992c-.198-.3932-.5536-.8817-.618-.897 0 .0136.0018.0255.0306.0851.1303.2689.3267.6179.4672.8817l.1168.1941c.0694.1123.0931.1379.1151.1617.0186.0153.022.0169.0339.0153.0304-.046-.0542-.2605-.1456-.4409Zm1.1038.4136c-.1151-.291-.4656-.6145-.733-.6774-.2997-.0323-.0694.4188.1133.6553.3352.4323.6281.4358.6552.2281.0102-.0783-.022-.1702-.0355-.206Zm9.6787.5941c.0694-.3507-.4487-.7132-1.3307-.6962-.9463.0698-1.2274.5566-.8312.9124.5891.5277 2.0434.3829 2.1619-.2162Zm2.8662-.0647c.1287-.3778-.3725-.7473-1.3256-.6962-1.0937.1158-1.4611.6894-.9837 1.0605.6146.4732 2.1028.24 2.3093-.3643Zm2.7494-.1736c.1507-.3285-.1033-.7473-1.1343-.6519-1.1106.1616-1.5457.8017-1.0446 1.1438.5824.4 1.9063.1005 2.1789-.4919Zm2.2601-.2536c.1761-.3337.0525-.7472-.7686-.6264-1.004.2111-1.4543.909-1.0022 1.2205.4706.3233 1.4626-.0102 1.7708-.5941Zm1.6421-.3115c.1761-.3149.2235-.7592-.3961-.6111-.8312.2639-1.2816 1.0758-.8804 1.3141.3234.1906.9803-.1702 1.2765-.703Zm.9769-.349c.1896-.3439.2912-.6894.0643-.64-.0271.0068-.0609.0222-.0863.0324-.6129.3353-1.0818 1.326-.7619 1.3873.1998.0391.5553-.366.7839-.7797Zm-18.6023.7081c-.0593-.223-.3894-.5004-.7669-.5447-.4013-.0119-.3268.3217-.0965.5567.3656.3762.8719.3625.8735.0647 0-.0239-.005-.0545-.0101-.0767Zm2.26.2468c-.0287-.2399-.3961-.5157-.8988-.5429-.5605.0067-.5401.3591-.2794.5974.4706.4307 1.2223.3252 1.1782-.0545Zm2.9221.1686c.0136-.3438-.5214-.72-1.3391-.732-.9278.0409-.9887.5532-.623.8749.6179.5431 1.9384.446 1.9621-.1429Zm13.5743-1.1728c.1456-.2894.3471-.6724.479-.9685l-.0016.0033-.0203.0341c-.3234.5345-.7162 1.2136-.745 1.4128.017-.0086.2844-.4784.2879-.4817Zm-22.5402-2.8546c-.0779-.4715-.3166-.9601-.4046-1.0094-.0795-.0443-.0322.24.0305.5549l.0135.0682.0339.1599c.1117.4987.176.6503.2403.7234l.017.0136c.0779.0375.1252-.1752.0694-.5106Zm1.1123.3183c-.0238-.2604-.2556-.5992-.5299-.6621-.3504-.0307-.2015.6009.0203.8544.2285.2605.4858.1634.5096-.1021.0017-.0272.0017-.0629 0-.0902Zm10.8671.8001c.0678-.383-.4283-.8988-1.5388-.875-1.1648.0936-1.5051.7592-.9549 1.2171.7313.6093 2.3634.3847 2.4937-.3421Zm3.0728-.0784c.088-.3847-.386-.8851-1.5034-.8238-1.1901.1345-1.5694.8102-1.0327 1.2494.7094.5821 2.3684.3047 2.5361-.4256Zm3.0321-.1923c.0998-.383-.2591-.8767-1.3679-.7711-1.2038.1856-1.5914.938-.9904 1.3431.7195.4884 2.1737.1361 2.3583-.572Zm2.492-.2791c.1016-.3864-.149-.8699-1.0293-.7354-1.0565.2349-1.4034 1.0622-.833 1.423.6197.3916 1.6811 0 1.8623-.6876Zm1.9604-.3558c.1101-.4324-.0101-1.0435-.799-.8511-1.0276.3489-1.3442 1.4894-.7094 1.8179.5417.2792 1.3171-.2179 1.5084-.9668Zm.9295-.3728c.0728-.32.1067-.88-.2895-.6996-.6315.3796-.8024 1.5167-.3742 1.5932.2472.0443.5384-.3489.6637-.8936Zm-20.4917.8545c-.0051-.2673-.3064-.5975-.7297-.6434-.4993-.0103-.496.4646-.2284.7558.3859.4204.9666.2859.9581-.1124Zm2.5395.2298c.0152-.3268-.3928-.6979-1.026-.7303-.7465.0154-.8075.5362-.4825.8664.5181.526 1.4831.3575 1.5085-.1361Zm3.0778.1464c.0389-.3302-.391-.7933-1.2968-.8034-1.0056.051-1.1242.6587-.7111 1.0281.6028.5378 1.9368.3898 2.0079-.2247ZM44.4701 24.95l.088-.5719.0017-.0119v-.029c-.0118.0034-.0118.0034-.0322.0392-.2708.5753-.4248 1.5745-.3148 1.6069.0677-.0409.2556-1.0231.2573-1.0333Zm-24.0249-2.7643c.0592-.3813-.0203-.8052-.1253-.8834-.0287-.0085-.1066-.0323-.1726.5242-.0238.1975-.0677.669.0169.7984.0744.114.2116-.0749.2708-.3762.0035-.0171.0085-.0425.0102-.063Zm1.1665.3745c.0643-.3404-.1134-.7779-.4723-.858-.4825-.0391-.5587.829-.2963 1.1728.2387.3116.6839.1294.7686-.3148Zm11.0195.6672c.0745-.4323-.4892-.8851-1.5288-.8613-1.163.092-1.5388.7541-1.0191 1.2119.706.6247 2.4209.3882 2.5479-.3506Zm3.1117-.0596c.0593-.4255-.5231-.8511-1.5677-.7966-1.1783.126-1.5372.7864-.9955 1.2188.7584.6025 2.4582.3217 2.5632-.4222Zm3.071-.2535c.0338-.3966-.4114-.909-1.505-.8035-1.1818.1872-1.483.9787-.8363 1.4111.8108.543 2.277.1617 2.3413-.6076Zm2.6495-.2912c.0118-.4425-.4063-.9974-1.368-.8493-1.168.269-1.3713 1.217-.628 1.6579.7991.4749 1.9757-.0017 1.996-.8086Zm1.8216-.3523c-.0118-.4187-.3064-1.0162-1.0445-.8323-.9599.3404-.9785 1.4587-.2405 1.8026.635.2962 1.307-.2111 1.285-.9703Zm1.0175-.3864c-.0288-.3507-.193-.9617-.6128-.766-.6332.412-.4368 1.6835.1117 1.7788.3639.063.5434-.4766.5011-1.0128Zm-20.9149.9107c.0593-.2894-.1727-.6315-.6129-.6775-.5806-.0103-.6873.5855-.391.8954.3182.3353.9192.2042 1.0039-.2179Zm2.5649.2944c.066-.325-.2692-.6945-.8719-.725-.7873.0169-.9261.6348-.557.9702.447.4085 1.329.2553 1.4289-.2452Zm3.2877.0937c.0762-.3881-.4131-.8086-1.2646-.8187-1.0108.051-1.3325.6927-.8245 1.1183.6179.5191 1.9672.3251 2.0891-.2996Zm15.3721-1.1882c-.0305-.303-.0762-.7063-.127-1.006l-.0034-.0169c-.0203-.1141-.0524-.2843-.0998-.2077l-.0102.0221c-.1896.5549.0779 1.7345.2133 1.6375.0644-.0459.0271-.4256.0271-.429Zm-24.4312 1.7652c-.0135-.3761-.0965-.7456-.1033-1.1234l-.0033.3693c.0186.4.0423.9345.0846 1.3329v.0016c.0186-.0254.0322-.2893.022-.5804Zm.8668.3813c.0068-.4239-.2218-.909-.4723-.9975-.3793-.0511-.2421 1.0741-.0271 1.3856.1947.2809.4351.0953.4876-.2486.0068-.0425.0118-.097.0118-.1395Zm13.1629.9141c.0694-.4051-.4335-.943-1.5609-.8987-1.2546.1241-1.5136.88-1.0175 1.3055.7331.6332 2.4446.3626 2.5784-.4068Zm3.1878-.1413c.0694-.3932-.3657-.9328-1.522-.8443-1.1613.1583-1.5609.892-1.0225 1.3448.7177.6042 2.4056.2723 2.5445-.5005Zm2.8493-.2469c.0643-.4051-.2947-.9208-1.2934-.7982-1.1428.2179-1.4713 1.0196-.8737 1.4383.7297.5124 2.0468.1225 2.1671-.6401Zm2.321-.3284c.061-.4647-.2421-1.0418-1.1038-.8733-1.0954.3099-1.3408 1.3839-.6349 1.7788.6789.3762 1.6371-.1225 1.7387-.9055Zm1.4475-.3797c.0457-.4647-.11-1.0808-.7229-.8782-.8634.3948-.9735 1.6561-.3454 1.9336.4758.2094.9955-.303 1.0683-1.0554Zm-21.6665.618c.0168-.2621-.2015-.589-.5435-.6401-.4402-.0187-.4538.5277-.1964.8171.2726.3081.7144.2025.7399-.177Zm2.2126.1191c.0288-.2791-.2573-.6026-.7314-.6366-.6043.0051-.6568.5311-.3436.8221.3691.3422 1.0327.2281 1.075-.1855Zm3.1371.2758c.0457-.3388-.3386-.8188-1.18-.8426-.9717.0391-1.0953.7149-.6569 1.103.5858.5175 1.7539.3523 1.8369-.2604Zm3.1997.1004c.0593-.3779-.4012-.897-1.4221-.8903-1.1191.0767-1.3442.7763-.899 1.1916.667.6196 2.2076.4204 2.3211-.3013Zm13.6927-1.5047c.0135-.223.0339-.9328-.2285-.7303-.4318.4426-.4199 1.6835-.0881 1.675.1812-.0051.2895-.4784.3166-.9447Z"/>
  	<linearGradient id="a" x1="17.4622" x2="46.3532" y1="30.9433" y2="30.9433" gradientUnits="userSpaceOnUse">
  		<stop stop-color="#47B547"/>
  		<stop offset="1" stop-color="#FFDA5A"/>
  	</linearGradient>
</svg>