<svg xmlns="http://www.w3.org/2000/svg" viewBox="0 0 200 50">
	<path class="bg-logo" fill="#4D4D4F" d="M0 0h200v50H0z"/>
	<path fill="#D3D5D6" d="M120.99 38.9587h11.995L125.4 19.8203l-4.41 19.1384Z"/>
	<path fill="#ADAFB2" d="m121.961 11 3.439 8.8195 7.585 19.1385 4.41-19.1385L133.955 11h-11.994Z"/>
	<path fill="#75BEE9" d="m134.749 38.9587 4.498-19.1384 7.497 19.1384h-11.995Z"/>
	<path fill="#0072BC" d="m151.153 19.8195-4.409 19.1385-7.497-19.1385L135.719 11h11.995l3.439 8.8195Z"/>
	<path fill="#F37164" d="m148.596 38.9587 4.409-19.1384 7.585 19.1384h-11.994Z"/>
	<path fill="#ED1B35" d="m165 19.8195-4.41 19.1385-7.584-19.1385L149.566 11h11.906L165 19.8195Z"/>
	<path fill="#fff" d="m41.6147 23.5235-2.9987-6.3501H35v10.5835h2.6459v-7.3203l3.3514 7.3203h1.1465l3.4397-7.3203v7.3203h2.6458V17.1734h-3.7042l-2.9104 6.3501Zm13.8466-4.6744c1.2348 0 2.2931.7056 2.8223 1.5875l2.2049-.9701c-.7938-1.4111-2.2931-2.7341-4.939-2.7341-3.616 0-6.35 2.3813-6.35 5.7327 0 3.4396 2.8222 5.7327 6.35 5.7327 2.5577 0 4.057-1.3229 4.939-2.734l-2.2049-.9702c-.5292.882-1.5875 1.5875-2.8223 1.5875-2.1166 0-3.7042-1.4993-3.7042-3.616s1.5876-3.616 3.7042-3.616Zm6.4383 9.1723h2.5577v-8.9077h5.5563v8.9077h2.5577V16.997H61.8996v11.0244Zm22.8426-7.0556h-3.0868v-1.9403h6.1737V16.997h-8.7314v11.0244h5.6445c2.5577 0 3.9688-1.5875 3.9688-3.5278 0-1.9403-1.4111-3.5278-3.9688-3.5278Zm-.3527 5.0271h-2.7341v-2.8222h2.7341c.9701 0 1.6757.5292 1.6757 1.4111 0 .882-.7056 1.4111-1.6757 1.4111Zm9.4369-5.9972c-1.4112 0-2.7341.3527-3.7924 1.2347l.8819 1.4111c.7056-.6174 1.5875-.9701 2.4695-.9701 1.0583 0 1.8521.5291 1.8521 1.3229v1.0583c-.6174-.6173-1.5875-.9701-2.7341-.9701-1.4111 0-2.9986.7056-2.9986 2.5577 0 1.7639 1.5875 2.6458 2.9986 2.6458 1.1466 0 2.1167-.441 2.7341-1.0583v.9701h2.3813v-5.2035c0-2.2931-1.8521-2.9986-3.7924-2.9986Zm1.4111 6.1736c-.441.441-1.1466.6174-1.8521.7056-.882 0-1.5875-.441-1.5875-1.1465 0-.7938.7055-1.2348 1.5875-1.2348.7937 0 1.4993.2646 1.8521.7056v.9701Zm10.1425-3.0868h-3.616v-3.0868h-2.2049v8.0257h2.2049v-3.175h3.616v3.175h2.205v-8.0257h-2.205v3.0868Zm9.172.6174 3.44-3.7042h-2.734l-3.263 3.5278v-3.5278h-2.293v8.0257h2.293v-2.1167l.97-.8819 2.293 2.9986h2.822l-3.528-4.3215Z"/>
</svg>