<svg xmlns="http://www.w3.org/2000/svg" viewBox="0 0 200 50">
  	<path class="bg-logo" fill="#5b6db0" d="M0 0h200v50H0V0Z"/>
  	<path fill="#e2a250" d="M20.3 28.7s5.5-9.5 28.8-9.5 18.5 3.4 19.5 3.9 1.9.6 3.1-.6c1.4-1.4 1.5-2.3 1.5-3.8s-4-6.8-14.6-6.8-32.7 6.4-37.8 14.3c-1.3 2-.5 2.4-.5 2.4Z"/>
  	<path fill="#fff" d="M99.5 15.2c-.9 0-1.7.2-2.2 1.6L94 25.3c-.1.3-.2.5-.3.5s-.2-.2-.3-.5l-3.3-8.5c-.5-1.4-1.3-1.6-2.2-1.6s-2 0-2 1.7v11.2h2.4v-9.9s0-.4.1-.4.3.3.3.4l3.2 8.5c.5 1.2.8 1.5 1.8 1.5s1.4-.4 1.8-1.5l3.2-8.5c0-.1.2-.4.3-.4s.2 0 .2.4v9.9h2.3V16.9c0-1.2-.9-1.7-2-1.7ZM114.6 15.3h-12.2v1.9h4.9V28h2.4V17.2h4.9v-1.9zM125.6 15.2c-.9 0-1.4.3-2.1 1.4l-5.1 8.4c0 .2-.2.3-.3.3-.2 0-.2-.3-.2-.5v-9.5h-2.4v10.6c0 .7 0 2.2 1.9 2.2s1.7-.6 2-1.2 5.2-8.4 5.2-8.4v-.1c.1-.2.3-.4.4-.4s.2.2.2.4V28h2.4V17.5c0-.6 0-2.3-1.9-2.3ZM161.8 23.9h4.5V28h2.2v-9.6h-2.2v3.8h-4.5v-3.8h-2.1V28h2.1v-4.1zM170.8 18.4h2.1V28h-2.1zM177.4 28h2.5l-4.1-4.3c-.1-.1-.3-.5-.3-.7 0-.3.3-.6.4-.8l3.6-3.9H177l-3 3.4c-.3.3-.7.8-.7 1.2s.3.9.5 1.1l3.5 3.8ZM121.3 33.4c0 .2-.1.3-.2.4-.1 0-.2.1-.4.1s-.4 0-.5-.2c-.1-.2-.2-.4-.2-.7s0-.6.2-.8c.1-.2.3-.3.5-.3s.3 0 .4.1c0 0 .2.2.2.4l1.2-.2c-.1-.4-.3-.7-.6-1-.3-.2-.7-.3-1.2-.3s-.7 0-.9.2c-.2 0-.3.2-.4.3-.1.1-.3.3-.3.5-.1.3-.2.6-.2 1s0 .7.1.9c0 .2.2.4.4.6.2.2.4.3.6.4.2 0 .5.1.9.1s.6 0 .9-.2c.2-.1.4-.3.6-.5.1-.2.3-.5.3-.7l-1.2-.2ZM125.8 32.5h-1.1v-1.3h-1.3v3.7h1.3v-1.4h1.1v1.4h1.2v-3.7h-1.2v1.3zM143.6 32.5h-1.1v-1.3h-1.2v3.7h1.2v-1.4h1.1v1.4h1.3v-3.7h-1.3v1.3zM156 30.5c-.2.2-.6.4-1 .6v1.2c.3 0 .5-.2.7-.3.2-.1.4-.3.6-.4V35h1.3v-5.2h-1c-.1.3-.3.6-.5.8ZM175.2 34.9h1.3v-2.7h1.4v-1h-2.7v3.7zM178.7 33.5h1.3v1.4h-1.3zM144.5 20.6h-6V18c0-.2 0-.5.2-.6.2-.1.4-.1.7-.1h7.4v-1.9h-8.9c-.7 0-1.1.3-1.3.5-.4.4-.4.9-.4 1.4v9.1c0 .4 0 .8.3 1.2.2.3.6.5 1.3.5h6.8c1.2 0 1.9-.5 2.2-.8.4-.4.7-1.2.7-2.8s-.2-2.1-.7-2.8c-.6-.8-1.6-.9-2.2-.9Zm.4 3.7c0 .4 0 1.1-.4 1.4-.4.4-.8.4-1.2.4h-3.9c-.3 0-.7 0-.9-.2v-3.3h4.8c.4 0 .9 0 1.2.3.4.4.4.9.4 1.4ZM151.1 22c-.5 0-1.1 0-1.7.6-.7.6-.8 1.5-.8 2.3s0 1.9.8 2.6c.5.5 1.2.5 1.7.5h4.6c.5 0 1 0 1.3-.4.3-.3.4-.9.4-1.2v-5c0-1.1-.3-1.8-.7-2.3-.4-.5-1.2-.7-2-.7h-5.4V20h4.7c.3 0 .7 0 1 .4.2.3.3.6.3.9v.7h-4.1Zm4.2 3.9c0 .1 0 .3-.1.4-.1.1-.3.1-.5.1h-2.9c-.3 0-.5-.1-.7-.3-.3-.3-.3-.8-.3-1.1 0-.7.2-.9.2-1 .2-.3.6-.3.8-.3h3.5v2.2ZM116.1 31.1c-.6 0-1 .2-1.3.6-.3.4-.5.8-.5 1.4 0 .6.2 1.1.6 1.5.3.3.7.5 1.3.5s1-.2 1.4-.6c.3-.4.5-.8.5-1.4s-.1-.9-.4-1.3c-.3-.4-.8-.6-1.5-.6Zm.5 2.7c-.1.2-.3.2-.4.2s-.3 0-.4-.2c-.1-.2-.2-.4-.2-.7 0-.3 0-.6.2-.7.1-.2.3-.2.4-.2s.3 0 .4.2c.1.2.2.4.2.7s0 .6-.2.8ZM129.8 31.1c-.6 0-1 .2-1.3.6-.3.4-.5.8-.5 1.4s.2 1.1.6 1.5c.3.3.7.5 1.3.5s1-.2 1.4-.6c.3-.4.5-.8.5-1.4s-.1-.9-.4-1.3c-.3-.4-.8-.6-1.5-.6Zm.5 2.7c-.1.2-.3.2-.4.2s-.3 0-.4-.2c-.1-.2-.2-.4-.2-.7 0-.3 0-.6.2-.7.1-.2.3-.2.4-.2s.3 0 .4.2c.1.2.2.4.2.7s0 .6-.2.8ZM135.1 32.9c.2 0 .4-.2.5-.3.1-.1.2-.3.2-.5s-.1-.5-.3-.7c-.2-.2-.5-.2-.8-.2h-2v3.7h1.8c.5 0 .9 0 1.1-.3.2-.2.3-.4.3-.8s0-.5-.2-.6c-.1-.2-.3-.3-.6-.3Zm-1.2-.9h.3c.2 0 .3 0 .3.3s-.1.3-.3.3h-.3V32Zm.6 1.9H133.9v-.7h.4c.2 0 .3.1.3.3v.2ZM140.2 34.1v-2.2c0-.2-.1-.3-.2-.4-.1-.2-.3-.3-.6-.3h-1.5c-.2 0-.4 0-.5.2-.2.1-.3.2-.4.4 0 .1-.2.3-.2.6h1.2l.2-.2c.1 0 .3-.1.5-.1s.3 0 .3.1v.4c-.2 0-.3.1-.4.2-.1 0-.4.1-.9.2-.4 0-.7.2-.8.4-.1.2-.2.4-.2.7s.1.6.3.8c.2.2.5.3.9.3s.5 0 .8-.2c.2 0 .3-.2.5-.4v.4h1.2c0-.1-.1-.3-.1-.4v-.4Zm-1.2-1V33.7c0 .1-.1.2-.3.3-.1 0-.2.1-.4.1s-.2 0-.3-.1c0 0-.1-.2-.1-.3s0-.2.1-.3c0 0 .2-.2.5-.2.2 0 .4-.1.5-.2ZM151.4 33.2c-.1-.2-.3-.3-.6-.3.2 0 .4-.2.5-.3.1-.1.2-.3.2-.5s0-.5-.3-.7c-.2-.2-.5-.2-.8-.2h-2v3.7h1.8c.5 0 .9 0 1.1-.3.2-.2.3-.4.3-.8s0-.5-.2-.6Zm-1.8-.6V32h.3c.2 0 .3 0 .3.3s-.1.3-.3.3h-.3Zm.7 1.3H149.7v-.7h.4c.2 0 .3.1.3.3v.2ZM162 29.9c-.3-.2-.6-.3-1.1-.3s-.7 0-.9.2c-.2.1-.4.4-.6.6-.1.3-.2.6-.2.9 0 .5.1.9.4 1.2.3.3.6.5 1 .5s.4 0 .5-.1c.2 0 .3-.2.5-.4 0 .6-.1.9-.2 1.1-.1.2-.3.3-.5.3s-.2 0-.3-.1l-.2-.4-1.2.2c0 .3.2.5.3.7.1.2.3.3.5.4.2 0 .5.1.8.1.6 0 1.1-.2 1.4-.6.3-.4.5-1.1.5-2s0-1.1-.2-1.5c-.2-.4-.4-.7-.6-.8Zm-.6 2.2c-.1.1-.3.2-.4.2s-.3 0-.4-.2c-.1-.2-.2-.4-.2-.7s0-.5.2-.6c.1-.1.2-.2.4-.2s.3 0 .4.2c.1.2.2.4.2.7s0 .5-.2.6ZM166.5 29.9c-.3-.2-.6-.3-1.1-.3s-.7 0-.9.2c-.2.1-.4.4-.6.6-.1.3-.2.6-.2.9 0 .5.1.9.4 1.2.3.3.6.5 1 .5s.4 0 .5-.1c.2 0 .3-.2.5-.4 0 .6-.1.9-.2 1.1-.1.2-.3.3-.5.3s-.2 0-.3-.1l-.2-.4-1.2.2c0 .3.2.5.3.7.1.2.3.3.5.4.2 0 .5.1.8.1.6 0 1.1-.2 1.4-.6.3-.4.5-1.1.5-2s0-1.1-.2-1.5c-.2-.4-.4-.7-.6-.8Zm-.4 1.5c0 .3 0 .5-.2.6-.1.1-.3.2-.4.2s-.3 0-.4-.2c-.1-.2-.2-.4-.2-.7s0-.5.2-.6c.1-.1.2-.2.4-.2s.3 0 .4.2c.1.2.2.4.2.7ZM171.6 30.6c0-.1-.2-.3-.3-.4-.1-.1-.3-.2-.5-.3-.2 0-.4-.1-.7-.1-.6 0-1.1.2-1.4.6-.3.4-.5 1.1-.5 2.1v1.1c0 .3.1.6.2.8.1.3.3.5.6.6.2.1.5.2.9.2.7 0 1.1-.2 1.4-.7.3-.4.4-1.1.4-2.1s0-.8-.1-1.2c0-.2-.1-.4-.2-.5Zm-1 2.8c0 .2-.1.4-.2.5 0 .1-.2.2-.3.2-.2 0-.3-.1-.4-.4-.1-.2-.2-.7-.2-1.3s0-1.1.1-1.3c0-.2.2-.4.4-.4s.4.1.5.4c.1.2.2.7.2 1.4v1ZM73.5 21.4s-5.5 9.5-28.8 9.5-18.5-3.4-19.5-3.9-1.9-.7-3.2.7c-1.2 1.2-1.5 1.9-1.4 3.8.2 2.4 4 6.7 14.6 6.7S67.9 31.8 73 23.9c1.3-2 .5-2.4.5-2.4ZM73.5 21.4z"/>
</svg>