<svg xmlns="http://www.w3.org/2000/svg" viewBox="0 0 200 50">
	<path class="bg-logo" fill="#571E76" d="M0 0h200v50H0z"/>
	<path fill="#fff" d="M174.917 26.9851c-.176-.7932-.705-1.4983-1.41-1.9389-.969-.5289-2.115-.7933-3.173-.9695-1.145-.1763-2.291-.2644-3.437-.3526-1.234-.0881-2.468-.0881-3.613-.4406-.529-.1763-.97-.5289-.97-1.0577-.088-.5288.441-.9694.97-1.1457 1.057-.4407 2.203-.4407 3.349-.4407 2.115 0 4.142.4407 5.993 1.4102.352-.4407 1.146-1.2339 1.586-1.8509-2.203-1.4101-4.847-1.9389-7.403-1.9389-1.851 0-3.702.2644-5.288 1.0576-.97.5288-1.763 1.4101-1.939 2.644-.176.7051-.176 1.4983.176 2.1153.353.6169.97 1.1457 1.587 1.4101.969.4407 2.115.617 3.261.7051 1.41.1763 2.908.1763 4.318.2644.793.0881 1.587.1763 2.292.5288.44.1763.881.617.881 1.1458 0 .5288-.264.9695-.705 1.322-.617.4407-1.498.7051-2.291.7932-2.997.3526-6.17-.0881-8.726-1.8508-.441.6169-.969 1.2339-1.41 1.8508 2.468 1.8508 5.553 2.3797 8.549 2.3797 1.675-.0882 3.437-.2644 5.024-.9695.793-.4407 1.498-.9695 1.939-1.6746.529-.8813.617-2.0271.44-2.9966Zm-89.5447 3.0847-9.2541-11.3694h-3.9661v13.661h2.644V20.9919l9.3423 11.3695h3.878v-13.661h-2.6441v11.3694Zm67.5997-11.4575h2.644v13.6609h-2.644V18.6123Zm-3.878 0h-3.349l-5.112 5.1118-5.2-5.1118h-3.349l6.786 6.7864-7.051 6.8745h3.35l5.288-5.1999 5.552 5.1999h3.349l-7.051-6.9626 6.787-6.6983Zm-22.915 13.6609h2.732V18.6123h-2.644l-.088 13.6609Zm-18.597-11.1931h6.522v11.1931h2.644V20.9919h6.522v-2.3796h-15.688v2.4678Zm-9.6945-2.4678-7.4033 13.6609h2.9084l1.5864-2.9084h9.166l1.587 2.9084h2.908l-7.403-13.6609h-3.3495Zm-1.5864 8.3728 3.261-5.9932 3.1729 5.9932h-6.4339Z"/>
	<path fill="#FFFBFE" d="M37.427 23.1028c.1763 0 .4407-.0881.7051-.1763.2644-.0881.6169 0 .8814-.1762.0881 0 .1762.0881.2644.0881v.3525h.0881c.1763-.1762.2644-.4406.3525-.6169l-.0881-.0881.2644-.5289c-.0881-.0881-.0881-.1762-.1763-.2644.0882-.0881.2644-.0881.4407-.0881 0-.2644.0881-.6169 0-.8813-.0881-.2645 0-.617 0-.8814-.1763-.1763-.3525-.4407-.5288-.6169.1763-.1763.3525-.2644.5288-.3526-.2644-.3525-.4407-.7932-.4407-1.2339-.0881 0-.2644-.0881-.3525-.0881v-.4407h-1.5864c-.5288.0882-1.0577.0882-1.5865.2644-.2644 0-.4406.1763-.705.1763-.0882 0-.1763.0881-.2644.0881l-.0882-.1762h-.1763v.0881h.1763v.1763c-.4407.1762-.8813.2644-1.2339.6169-.1762.1763-.5288.2644-.7932.3525-1.0576.617-2.0271 1.3221-2.9084 2.0272-.1763.0881-.5288.1762-.5288.4406.5288-.1762 1.0576-.4406 1.5864-.7051-.0882.2645-.3526.4407-.617.5289.3526.3525.7933.6169 1.2339.4406.1763.0882.3526-.0881.5288-.2644h.3526c0-.0881.0881-.1762.0881-.2644h.3525c.0882-.0881.1763-.2644.1763-.3525h.3526c.0881-.2644.3525-.5288.4406-.8814h.2644v-.2644h.1763c.1763-.1762.2644-.3525.3525-.5288h-.2644c-.0881-.1763-.1762-.3525-.2644-.4407h.4407c.617-.5288 1.4983-.6169 2.2034-.8813.4407-.1763.7932-.1763 1.2339-.1763l.0881.0882c-.2644.2644.1763.5288.3525.6169 0 .0881-.0881.1763-.0881.1763.0881.1762.0881.5288.0881.7932-.2644.1763-.5288.3525-.6169.7051.1763 0 .3525.1762.4407.3525-.1763.0881-.2644.1763-.3526.1763.2644.1762.4407.2644.617.4407-.1763.4406-.7051.705-.7932 1.2338-.0882.2644-.3526.617-.5288.8814h-.617c-.5288.1763-1.0576.3525-1.4983.6169-.5288-.0881-.7932.3526-1.2339.4407-.0881-.0881-.1762-.2644-.1762-.3525h-.0882v.3525c-.0881 0-.1762.0881-.2644.1763 0 .1763-.0881.3525-.0881.4407-.0881-.0882-.1763-.1763-.2644-.1763 0 .1763-.0882.3525-.0882.4407-.4406 0-.7932.2644-1.2338.4406v.1763c-.0882-.0881-.2644-.0881-.3526-.0881h-.0881c-.0882.1762-.0881.3525-.0881.4406-.0882.0882-.2645.1763-.4407.1763-.0882 0-.0882.0881-.0882.0881-.2644.0882-.5288.2645-.705.4407l.0881.1763c.3525-.0881.6169-.2644.9695-.3525.4407-.2645.7051-.5289 1.0576-.617.3525-.1763.6169-.4407.9695-.6169.1763-.1763.5288-.1763.7051-.3526.3525-.2644.705-.3525 1.0576-.5288l.7932-.5288h.3525c0-.0881.0882-.1763.0882-.1763.4406-.0881.7932-.1762 1.1457-.3525Zm1.939-5.9932v-.1762c-.0881.0881-.1763.1762 0 .1762Zm18.5083 4.7593c-.0881 0-.1762.0881-.2644.0881l.2644-.0881c.1763 0 .3526-.2644.3526-.4407h.1762v-.1762h-.2644c-.0881.1762-.1762.3525-.2644.6169Zm-29.1726-.4407c-.0882.1763-.1763.2644-.2644.7932h-.1763c-.1763.1763-.2644.3526-.5288.3526-.0882.0881-.1763.1763-.1763.2644-.1763 0-.2644.1763-.3525.1763l-.1763.0881-.0881.1763c-.1763 0-.3526.0881-.4407.1762 0 .2644-.1763.4407-.3525.617-.0882.3525-.4407.6169-.5289.9695 0 .0881-.1762.1762-.1762.1762v.2644c-.1763.0882-.2644.1763-.4407.2644h.2644c0 .0882.0881.2644.0881.3526h.1763c0 .2644.2644.3525.4407.3525v.1763c.0881-.0881.1763-.1763.2644-.1763.0881.1763.2644.3526.4407.4407v-.0881c.1762 0 .3525 0 .5288.0881.0881-.0881.1762-.1763.2644-.1763-.1763-.0881-.4407-.0881-.617-.2644l-.3525-.3525c-.3525-.2644-.7051-.7932-.5288-1.322.2644-.8814 1.0576-1.4102 1.6745-1.939.3526-.2644.617-.7051 1.0577-.617v-.3525h.3525c.0881-.2644.1763-.5288.3525-.7932l-.0881-.0881c-.1763.1762-.3525.3525-.6169.4406Zm30.2302-4.9355c-.2644 0-.4406.1762-.6169.3525-.0881 0-.1763-.0881-.2644-.0881.1763-.1763.2644-.3526.3525-.4407-.1762.0881-.4406.1763-.6169.2644-.0881-.0881-.0881-.1763 0-.1763-.2644.1763-.5288.4407-.7051.7051-.2644 0-.4407-.1762-.6169 0-.3526.2644-.617.5288-1.0577.5288-.2644.4407-.8813.4407-1.322.7932-.0881 0-.1762-.1762-.1762-.1762v.2644c-.1763.2644-.4407.4407-.7051.6169 0 .0882.0881.1763.0881.2644.0881 0 .0881.1763.0881.1763h.4407v.3525c-.1763 0-.2644.0882-.4407.0882 0 .0881-.0881.1762-.1762.1762.0881.0882.1762.1763.2644.1763v.1763c.0881.0881.2644.1763.3525.1763.1763 0 .1763-.2645.2644-.3526.2644 0 .3526-.1763.4407-.3525-.0881.0881-.2644.1762-.3525.1762.0881-.0881 0-.3525.1762-.3525.1763 0 .4407.0881.617.1763 0-.1763-.0882-.3526-.1763-.4407h.6169c-.2644-.1763-.5288-.2644-.6169-.5288.1763-.0881.4407 0 .6169 0 .0882-.2644.0001-.4407-.0881-.617.3526-.1762.7932-.1762 1.1458.0882l.1762-.1763c.0882 0 .1763.0881.2644.0881.0882-.1762.0882-.2644.1763-.4406 0-.0882.1763-.0882.1763-.0882v-.1762h.4407c.0881.2644.0881.5288.2644.7932.0881-.0882.0881-.2644.1762-.3526 0 0 .0882.0882.1763.0882v-.2644c-.0881-.0882-.2644-.1763-.3525-.1763.0881-.2644.2644-.6169.6169-.6169-.0881 0-.1763-.1763-.1763-.1763h.3526c.0881-.1763.1762-.3526.1762-.5288ZM40.4236 36.4993h-.3525c-.2644-.0881-.4407-.0881-.617-.0881-.1762-.2644-.5288-.4407-.7932-.7051.0881-.1763.1763-.2644.1763-.3526.0881.0882.2644.1763.3525.2645v-.3526c.0882-.0881.1763-.1763.2644-.1763-.1762-.0881-.4406-.2644-.6169-.3525l-.1763.0881c0 .1763.0881.3526.1763.4407-.3526 0-.5288-.2644-.617-.4407-.2644.1763-.3525.3526-.3525.617-.1763-.0882-.2644-.2644-.3525-.3526v-.3525c-.2644.0881-.4407.1763-.617.2644-.0881 0-.1763 0-.0881.0881-.2644 0-.3526.2645-.3526.4407.0882-.0881.1763-.1763.2644-.1763 0 .0882.0882.1763.1763.2645-.1763.0881-.4407.1762-.6169.1762.1762.0882.3525.2644.4406.3526h-.4406c.0881.0881.1762.1762.1762.2644.1763 0 .2644.1762.3526.3525.1762 0 .2644.1763.4407.2644h.2644v.0881l-.0882.1763c.2644.2644.7051.1763 1.0576.1763l.1763.1763c.0881-.2644.4407-.1763.617-.1763.0881-.0881.2644-.1763.3525-.2644 0 .0881.0881.1763.1763.1763.0881-.1763.0881-.4407.0881-.617.0881.0881.2644.0881.4407.0881-.0882.0882-.1763.1763-.2644.1763v.5288c.1762-.0881.4406-.0881.7051-.0881l.0881-.0881c.0881-.1763.1763-.2645.2644-.3526-.1763-.1763-.7051-.1763-.7051-.5288Zm-11.7219-9.783c-.3526.1763-.7051-.2644-1.0577-.1762l.3526.3525c-.0881.0881-.2644.1763-.3526.1763h.8814c.1763-.0882.4407-.1763.6169-.1763 0-.2644-.2644-.2644-.4406-.1763Z"/>
	<g fill="#F3F2F4">
		<path d="M33.9016 17.9939c.0881.1763.1763.3525.2644.4407h.2644c-.0881.1762-.2644.3525-.3525.5288h-.1763v.2644h-.2644c-.0881.3525-.2644.6169-.4407.8813.3526-.1762.7051-.1762.9695 0 0-.0881.0882-.1762.1763-.1762v-.3526c.0881 0 .1763.0882.2644.0882.0881-.0882.1763-.2644.2644-.3526-.0881-.0881-.1763-.1762-.2644-.1762.0881 0 .1763-.0882.1763-.1763v-.1763c.1762-.0881.2644-.1763.3525-.2644v-.3525l.5288-.2644.0881.1762c0-.0881.0882-.0881.0882-.0881.0881.0881.2644.1763.3525.1763-.0881-.0882-.1763-.1763-.1763-.2644.1763-.1763.3526-.3526.617-.1763v-.1763c-.7051.1763-1.4983.3526-2.2915.4407h-.4407Zm2.7322-.4407c.0881 0 .0881 0 .1763-.0881h.0881c-.0881 0-.1763 0-.2644-.0881v.1762Z"/>
		<path d="M37.2508 22.7539c.2644-.2644.4406-.5288.5288-.8813.1762-.4407.6169-.7932.7932-1.2339-.1763-.1763-.4407-.3526-.617-.4407.1763-.0881.2644-.1763.3526-.1763-.0882-.1762-.2644-.2644-.4407-.3525.0881-.2644.3525-.5288.617-.7051.0881-.2644 0-.5288-.0882-.7932 0-.0881.0882-.1763.0882-.1763-.1763-.0881-.617-.3525-.3526-.6169l-.0881-.0881c-.4407 0-.7051 0-1.1458.1762.1763 0 .3526 0 .5288-.0881.0882.0881.0882.1763.0882.1763-.0882.0881-.2644.0881-.3526.0881v.3525c.0882-.0881.2644-.0881.3526-.0881v.1763h-.2644c0 .2644.2644.2644.4406.3525v.5288c-.1762.0882-.5288.0882-.5288.2644-.0881.1763 0 .2644 0 .3526-.1762.1762-.2644.4406-.3525.6169-.0881 0-.1763.0881-.2644.0881.0881.0882.1763.0882.2644.1763l-.2644.7932c.0881 0 .1763-.0881.2644-.0881.2644.3525.1763.7932 0 1.1457h-.617v.1763c-.1762 0-.3525.0882-.4406.1763v-.0881c-.0882.0881-.1763.0881-.2644.0881-.1763-.0881-.3526-.2644-.5288-.0881-.0882 0-.1763-.0882-.2645-.0882v.2644c-.1762-.0881-.2644-.1762-.4406-.2644-.0882.0882-.0882.1763-.1763.2644-.1763-.1762-.2644-.3525-.3525-.5288.2644.0881.6169.1763.8813 0 .2644.0881.4407.1763.617.2644.0881-.0881.2644-.0881.3525-.0881-.0881-.0882-.0881-.1763-.1763-.1763 0-.1763-.0881-.4407-.1762-.6169l-.2644.2644c-.1763-.0882-.2645-.1763-.3526-.2644l-.2644.2644c0 .0881.0881.1762.0881.1762h-.3525c0-.0881-.0881-.1762-.0881-.1762l.2644-.2644c-.1763-.1763-.3526-.4407-.5288-.5288h-.1763v-.3526c.0881.0882.2644.1763.3525.2644v-.5288h-.7932c-.0881.0881-.1762.2644-.1762.3526h-.3526c0 .0881-.0881.1762-.0881.2644h-.3526c-.0881.1762-.2644.3525-.5288.2644-.5288.1762-.9695-.0882-1.2339-.4407.2644-.0881.5288-.2644.617-.5288-.5288.1762-1.0576.5288-1.5864.7051-.1763.2644-.2645.5288-.1763.705h-.3526v.3526c-.4406-.0882-.7932.3525-1.0576.6169-.7051.5288-1.4101 1.0576-1.6745 1.939-.1763.5288.1762.9695.5288 1.322.0881-.0881.1762-.2644.1762-.3525-.0881-.0882-.2644-.0882-.4406-.1763-.0882-.0881-.1763-.2644-.1763-.3525.0881-.1763.2644-.4407.3525-.617.2644.0882.5288.0882.7933-.0881-.2645-.1763-.617-.1763-.7933-.4407.1763-.0881.4407-.1763.617-.3525h.6169c-.0881-.0882-.1762-.2644-.1762-.2644.0881-.0882.2644-.1763.4406-.2644-.0881-.0882-.1762-.2644-.1762-.3526.1762.0882.4406.1763.6169.2644-.0881 0-.2644.0882-.3525.0882h.705v.6169c.1763.4407.7051.3525 1.0577.4407l-.1763.1762c.0881.0882.0881.1763.0881.2645l-.1762-.1763c-.0882.0881-.1763.1763-.1763.2644h-.7932c.1762.1763.3525.2644.5288.3525 0 .2644 0 .617.3525.7051.0882.0881.0882.2644.0882.3525-.1763.0882-.4407.1763-.617.1763.0881-.1763.1763-.3525.3526-.4407-.3526-.1762-.5289-.5288-.7051-.8813l-.3526.3525c.1763.1763.4407.3526.617.5288v.1763c-.0882-.0881-.1763-.0881-.2644-.0881l-.2644.2644c-.0882-.1763-.1763-.2644-.2644-.3526-.2644.0882-.617.1763-.617.617h-.6169c.1762.1763.4406.2644.6169.2644-.0881.0881-.1762.1763-.2644.1763.0882.0881.2644.1762.3526.1762.0881-.0881.2644-.1762.3525-.1762-.1763-.0882-.2644-.1763-.3525-.2644.3525 0 .705.3525 1.0576.1762.1762-.0881.4406-.0881.4406.1763.0882-.0881.2645-.0881.4407-.0881.1763 0 .4407-.1763.617-.2644l-.0882-.1763c.1763-.2644.4407-.3526.7051-.4407.0881 0 .0881-.0881.0881-.0881.1763-.0882.3526-.0882.4407-.1763.0882-.1763.0882-.3525.0882-.4407h.0881c.0881.0882.2644.0882.3525.0882v-.1763c.4407-.1763.7932-.4407 1.2339-.4407 0-.1762.0882-.3525.0882-.4407.0881.0882.1762.1763.2644.1763 0-.1762.0881-.3525.0881-.4407.0881 0 .1763-.0881.2644-.1762v-.3526c.0881.0882.0881.1763.0881.2644.4407-.0881.7932-.5288 1.2339-.4406.4407-.3526.9695-.5288 1.4983-.617.2644-.0881.4407 0 .617 0Zm-3.261.3526v.3525h-.2644s0 .0881.0881.0881h-.0881c0-.1762-.0882-.4406-.0882-.6169.0882-.0881.2644-.0881.3526-.0881.0881 0 .2644.0881.3525.0881-.1763.0881-.2644.1763-.3525.1763Zm17.9795-2.556c-.0881-.0881-.2644-.2644-.4407-.2644.0882.0882.0882.1763.0882.2644.0881.0882.2644 0 .3525 0Zm-5.5525 6.522c.1763.1763.4407.3526.7051.3526.0881-.0882.0881-.3526.1762-.4407-.0881-.0881-.2644-.1763-.3525-.2644 0 .1763 0 .2644.0881.4407-.1762 0-.4406-.0882-.6169-.0882ZM61.0472 14.293v.2644c.0881-.1763.1763-.1763.2644-.1763-.0881 0-.1763 0-.2644-.0881Z"/>
		<path d="M66.6878 14.0271h-.4407s0-.0881-.0881-.0881h-.5288c-.1763.0881-.4407.1763-.617.0881v-.3525c-.4406-.0881-.6169.5288-.9694.617-.1763.0881-.3526.0881-.4407.0881 0-.0881 0-.1763-.0882-.3526v.3526c-.3525-.1763-.7932 0-1.0576.1763l-.0881.0881c0-.0881-.0881-.1763-.0881-.3525-.1763.0881-.3526.0881-.5289.1762 0 .0882-.0881.2644-.1762.3526v-.3526c-.0882 0-.0882 0-.1763-.0881 0 .0881-.0881.1763-.1763.2644-.4406.2644-.7932.5288-1.322.4407v-.0882h.4407v-.2644c-.0881.0882-.2644.3526-.4407.0882v-.0882l.0881-.0881c-.1762.0881-.3525.1763-.4406.3525h.1762c.1763.3526-.2644.3526-.4406.2644v.0882c-.1763.0881-.4407.1762-.617.2644v-.2644l-.1762.1762s-.0882.1763-.1763.1763h.3525c-.2644 0-.5288 0-.6169.2644h-.0882v.1763c.1763-.0881.4407-.1763.617-.2644-.0881.0881-.1763.2644-.3526.4407.0882 0 .1763.0881.2645.0881.1762-.1763.3525-.3525.6169-.3525 0 .1762-.0881.3525-.1763.5288h-.3525s.0881.1762.1763.1762c-.3526 0-.5289.3526-.617.617.0881 0 .2644.0881.3526.1762v.2644s-.0882-.0881-.1763-.0881c-.0882.0881-.0882.2644-.1763.3526-.1763-.1763-.1763-.5289-.2644-.7933h-.4407v.1763l-.1762.0881c-.0882.1763-.1763.2644-.1763.4407-.0881 0-.1763-.0881-.2644-.0881l-.1763.1763c-.3525-.2645-.7932-.2645-1.1457-.0882.0881.1763.1762.3526.0881.617-.1763 0-.4407-.0882-.6169 0 .0881.2644.3525.3525.6169.5288h-.6169c.0881.1762.1762.2644.1762.4406-.1762-.0881-.3525-.1762-.6169-.1762-.1763 0-.0882.2644-.1763.3525.0881-.0881.2644-.0881.3525-.1763-.0881.1763-.1762.3526-.4406.3526-.0882.0881-.0882.3525-.2644.3525-.0882 0-.2644-.0881-.3526-.1762v-.1763c-.0881 0-.1762-.0881-.2644-.1763v-.4407c.0882 0 .1763-.0881.2644-.1762v-.1763c0-.0881-.0881-.1763-.0881-.2644 0 .0881-.0881.1763-.0881.2644-.1763 0-.3526 0-.5288.1763 0 .0881.0881.1762.1762.2644-.1762 0-.4407.0881-.6169.1762l.1762-.1762c-.1762.0881-.4406.1762-.6169.2644 0 0 .0881.0881.0881.1763.1763 0 .3526-.0882.5288 0l.0882.1762v.1763c0 .0881-.0882.0881-.1763.1763v.4406s-.0881 0-.1763.0882c0-.0882-.0881-.1763-.1762-.3526-.4407 0-.617.4407-.7932.7051-.2644.0881-.4407.2644-.617.4407 0 0-.0881-.0882-.0881-.1763-.0882.3526-.3526.617-.617.7932-.1762 0-.3525-.0881-.4406-.0881-.0882 0-.1763.0881-.2644.1763 0-.0882-.0882-.1763-.0882-.2644.0882 0 .1763-.0882.3526-.1763.1762-.0881.2644-.1763.3525-.4407v-.3525c-.3525.4407-.9695.6169-1.322 1.0576-.5288.5288-1.2339.9695-1.6746 1.4983h-.3525c0 .0881-.0882.1763-.0882.2644h-.0881l-.1763.1763-.2644.1762c0-.2644 0-.6169-.1762-.8813-.0882-.1763-.2644-.1763-.4407-.2644h-.3526s.1763.0881.1763.1762c.0881.1763.1763.4407.3526.617 0 0-.0882.0881-.0882.1763-.2644-.0882-.6169-.1763-.7932.1762.0881.0882.1763.2644.3525.3526-.0881 0-.2644 0-.3525.0881.4407 0 .6169-.2644.9695-.5288 0 .1763.0881.3525.1763.4407-.0882.1762-.2644.4406-.1763.6169.0881.2644.0881.617 0 .8814 0 .0881 0 .1762-.0881.2644h.0881c0 .0881-.0881.0881-.0881.1762v.2644s-.0882.0882-.1763.0882c0 0 0 .0881.0881.0881 0 .0882-.0881.1763-.0881.2644.1763 0 .2644.0882.4407.0882.1762-.0882.3525-.1763.5288-.1763l.0881-.0881c-.0881 0-.1763-.0001-.3525.0881.0881-.1763.0881-.4407.0881-.617h.1763c0-.0881.0881-.0881.0881-.1762l.1763-.0882c.0881-.0881.1762-.1762.3525-.2644 0 .1763-.0881.4407-.0881.617h.3525c-.0881 0-.1763-.0882-.2644-.1763.3526-.1763.7051-.3525 1.1458-.3525.4406 0 .6169-.3526 1.0576-.4407 0-.0881-.0881-.1763-.1763-.1763.3526 0 .617-.0881.8814-.2644v-.5288l-.5288.2644v-.1763s-.1763 0-.1763-.0881v-.1763h.4407s-.0882-.0881-.0882-.1762c.3526-.0882.617 0 .8814.0881v.1763c.1762.0881.2644.1762.4406.2644v.4407c.2645-.3526.4407-.617.617-.9695h.3525v-.3526c-.1762.1763-.4406.2644-.6169.5288-.0881.1763-.2644.1763-.4407.2644v-.7932l.2644-.2644c-.1763 0-.3525 0-.5288-.0881.1763-.617.7932-.7051 1.2339-1.0576.4407-.1763.6169-.617 1.0576-.8814 0 0 .0882.1763.0882.2644.3525.0882.6169.1763.9694 0l-.1762-.1762c0-.0882.0881-.0882.1762-.1763 0 0 .0882.1763.1763.2644v-.1763c-.2644-.2644 0-.6169.0881-.8813.1763.1762.2644.3525.4407.4406.1763-.0881.4407-.1762.617-.1762 0-.1763 0-.3526.0881-.4407h-.3525c.0881-.0881.2644-.1763.3525-.1763 0 .0882.0881.1763.0881.2644.3526-.3525.9695-.4406 1.1458-.9694h.6169c.0882-.3526.2644-.617.5288-.7933.1763 0 .3526.0882.4407-.0881.1763-.2644.2644-.6169.4407-.8813.1763 0 .3525 0 .5288-.0882 0-.0881-.0881-.2644-.0881-.3525.0881 0 .1762 0 .2644-.0882v.1763s.0881 0 .1762.0881v-.3525c.2644.1763.617.2644.9695.1763l.1763.1762c.0881 0 .1763-.0881.2644-.0881.1763-.2644.4407-.3525.7932-.4407l.2644-.5288c.1763 0 .3526-.0881.4407-.1762h.1763c0-.0882.0881-.1763.1762-.2644h.3526c.1762 0 .3525-.0882.4406-.0882l.0882-.1762c0-.0882-.0882-.2645-.0882-.3526v-.2644c.0882 0 .1763-.0881.2644-.0881.0882 0 .1763-.0882.2645-.0882.0881-.0881.1762-.1762.3525-.1762.3525 0 .4407.3525.6169.6169.0882-.0881.1763-.1763.1763-.2644h.3525v-.2644s-.0881-.0881-.0881-.1763h.2644c0-.6169.7051-.6169 1.1458-.6169-.1763-.0881-.1763-.1763-.1763-.3526ZM47.3863 24.2508c-.1763 0-.0882-.2644 0-.2644.1762-.0881.1762.2644 0 .2644Zm.4406-.2644h-.1762v-.1763h.2644c.0881-.0881.1762-.2644.2644-.3525 0 .2644-.1763.3525-.3526.5288Zm.5288-.9695c-.0881.0881-.1762.1763-.2644.3525-.2644.0882-.3525.3526-.6169.3526.0881-.2644.4407-.2644.6169-.3526v-.2644c.2644 0 .3526-.2644.5288-.4406h.3526c-.1763.2644-.4407.2644-.617.3525Zm12.9559-8.6372s.0881 0 0 0c.0881 0 .0881 0 0 0 0 0 .0881 0 0 0Zm-24.149 19.7422c-.2644.0881-.2644.4407-.4407.617-.1762-.0882-.2644-.2645-.2644-.4407-.1762.1762-.3525.3525-.4407.6169 0 .1763.0882.4407.2645.617.1762 0 .4406-.0882.6169-.1763-.0881-.0881-.1763-.1763-.1763-.2644-.0881 0-.1762.0881-.2644.1763.0882-.1763.0882-.4407.3526-.4407.0881 0 .1762 0 .2644.0881.1762-.0881.3525-.1762.6169-.2644-.2644-.0881-.3525-.3525-.5288-.5288Z"/>
		<path d="M45.9763 33.7693c-.0881 0-.1762 0-.2644.0881.0882-.1762.1763-.4406.1763-.7051-.1763 0-.2644.1763-.4407.3526 0-.0881 0-.1763-.0881-.2644.0881 0 .2644-.0882.4407-.0882-.1763-.2644-.4407-.1762-.7051-.1762l-.2644.2644c0 .0881.0881.1763.1763.2644-.3526-.1763-.7051-.1763-1.0577 0-.2644-.1763-.4406-.0881-.705 0-.2645 0-.617-.0881-.8814-.1763-.1763.1763-.3525.3526-.5288.4407 0-.0881.0881-.2644.0881-.3525h.2644c0-.2645.0882-.617-.0881-.8814-.0881-.3525-.5288-.3525-.7932-.3525-.0881.1762-.2644.3525-.3526.4406-.1762 0-.3525-.1762-.3525-.4406 0 .0881-.0881.1762-.1763.2644h-.4406c.2644.1762.5288.2644.705.4406-.3525 0-.705-.1762-1.1457-.1762-.0881 0-.1763 0-.2644-.0882 0-.0881.0881-.1762.0881-.2644 0-.2644 0-.6169-.1763-.8813-.0881.0881-.1762.1763-.1762.2644-.1763 0-.4407.1763-.617.2644h-.3525v-.4407c-.1763 0-.2644.0882-.4407.1763-.1763 0-.3525-.0881-.4407-.1763.0882-.0881.2644-.1762.3526-.2644-.0882 0-.1763 0-.2644-.0881.1762 0 .3525-.0882.5288-.1763h.2644s0-.1763.0881-.1763h-.5288v-.5288c-.2644.3526-.6169.7051-.6169 1.2339-.1763-.1762-.3526-.3525-.617-.5288 0 .0881-.0881.0881-.1762.1763-.0882.1763-.1763.7051.1762.6169v.1763c-.1762-.0881-.3525-.1763-.5288-.1763 0 .1763 0 .3526.1763.5288-.0881 0-.1763.0882-.2644.1763v.5288c.1763.1763.4407.3526.6169.5288-.0881 0-.1762.0882-.2644.1763 0 .1763-.0881.2644-.0881.4407h.0881c.1763-.1763.3526-.3526.617-.4407v.5288l.1762-.1763c.0882 0 .2644 0 .3526-.0881v-.1763c.0881 0 .1762-.0881.2644-.1762v.2644s.0881.0881.1763.0881v.9695c.0881.0881.1762.2644.3525.3525 0-.2644.0881-.4407.3525-.6169.0882.1762.2644.4407.617.4407-.0882-.0882-.1763-.2645-.1763-.4407l.1763-.0882c.1762.0882.4407.1763.6169.3526-.0881 0-.1762.0881-.2644.1763v.3525c-.0881-.0881-.2644-.1763-.3525-.2644 0 .0881-.0882.1763-.1763.3525.2644.2644.617.4407.7932.7051.1763 0 .3526 0 .617.0881h.3525c0 .3526.5288.3526.7051.5288-.0881.0882-.1763.1763-.2644.3526v.3525c.1762 0 .2644-.0881.3525-.1762.2644 0 .5288-.0882.7932-.0882l-.2644-.2644s.1763 0 .1763-.0881c.1763-.0881.3525-.1763.4407-.2644-.1763 0-.3526 0-.5288-.0882.0881 0 .1762-.0881.2644-.1762.1762-.0882.4406-.1763.6169-.3526 0-.0881 0-.1762-.0881-.2644.1762-.0881.3525-.2644.5288-.4406 0 .0881.0881.1762.0881.2644l.2644-.2644c.1763 0 .3526 0 .5288-.0882.617-.2644.8814-1.1457 1.5865-1.1457v-.1763c-.1763 0 0-.0881.1762-.2644Zm-9.8711-.8814c-.1762-.0881 0-.4406.1763-.3525.0881.0881-.0881.2644-.1763.3525Zm.7932 4.2305c-.1762 0-.6169.1763-.6169-.0881h-.1763c-.0881-.0881-.0881-.1763-.0881-.2644 0 .0881 0 .2644.0881.3525.3526.1763.7051.3526 1.0576.3526v-.0882c0-.0881.0882-.0881.0882-.0881l.0881-.1763c-.1763-.0881-.5288-.1763-.7932-.1763.0881.0882.2644.1763.3525.1763Zm-.1762-1.322c-.0882.2644-.1763.5288.0881.5288.1763-.0881.2644-.2644.2644-.4407h.2644c-.0881-.1762-.4407-.0881-.6169-.0881Z"/>
		<path d="M39.3662 37.2964c0-.0881-.0881-.1763-.1763-.1763-.1762.0882-.2644.1763-.3525.2644l.5288-.0881v.1763h-.5288v.3525c.3525-.0881.6169-.0881.9695-.1763v-.6169c.0881-.0881.1763-.1763.2644-.1763-.0881-.0881-.2644-.0881-.4407-.0881 0 .1762 0 .4407-.2644.5288ZM63.7793 15.7012c.1763.1762.3526.2644.4407.3525 0 .1763-.0881.2644-.0881.4407.0881-.1763.2644-.2644.4407-.3526-.1763-.2644-.4407-.4406-.7933-.4406ZM39.366 16.7588h-.9695c.1763 0 .3525.0881.5288.0881l.0881.0882c.1763.0881.3526 0 .3526-.1763l.0881.1763v.2644c.2644 0 .4407-.0882.7051-.0882-.1763-.3525-.5288-.3525-.7932-.3525Zm24.3252 0c-.3525.2644-.6169.4407-.9695.6169v.1763c.4407-.2644.9695-.5288 1.4102-.8813v-.0882h-.5288c0 .0882 0 .1763.0881.1763Zm.9695 1.6746c0 .1762 0 .3525-.0881.6169.1762-.0881.3525-.1763.4406-.3525l-.2644.0881v-.0881h.1763c.0881-.2644.4407-.2644.6169-.3526 0-.0881.0882-.1763.0882-.1763-.3526.0882-.617.1763-.9695.2645Zm-4.4068.7932-.0881.1762h.1763c.0881-.0881.1763-.1762.3525-.2644-.1762 0-.2644.0882-.4407.0882Zm-21.6811-.0882c-.1763.0882-.2645.2644-.2645.3526.1763.0881.4407 0 .617 0-.0881-.1763-.1763-.2644-.3525-.3526Zm21.8574-.1762s.1763.0881.2644.1762l.1763-.1762h-.4407Zm.2644.1762s.0882 0 0 0c.0882 0 0 0 0 0Zm-1.322.8814c-.1763.0881 0 .2644.1763.2644l.0881-.0881c0-.1763-.1763-.2645-.2644-.1763Zm1.2339 1.2339v.2644c.0881 0 .2644-.0882.4407-.0882l.2644-.2644v-.1762c-.1763.1762-.4407.2644-.617.4406 0-.0881-.0881-.1762-.0881-.1762Zm-16.8338 3.966v-.5288c-.1763.0882-.2644.0882-.3525.1763-.1763 0-.4407-.0881-.617-.1763 0 .1763.0882.3526.1763.5288l.1763-.1762.5288.2644v.1762c.0881-.0881.1762-.0881.1762-.0881-.0881 0-.0881-.1763-.0881-.1763Zm8.1084 3.3492c-.0881.0881-.0881.2644-.1762.4406-.1763 0-.2644-.0881-.3526-.0881v.2644c-.2644.0881-.4407.2644-.4407.5288h.3526c.0881-.0881.1763-.1762.1763-.2644 0-.0881-.0882-.2644 0-.3525.0881 0 .1762.1762.1762.1762l.7932-.7932c0-.0881-.1762-.1762-.1762-.1762v.2644h-.3526Zm2.9966-3.1729c-.0881-.1763-.2644-.2644-.4407-.3525-.0881.1762-.0881.2644-.0881.2644-.0881 0-.1763-.0882-.2644-.0882.0881.1763.0881.2644.0881.4407-.0881.1763-.1762.4407-.2644.617-.0881.0881-.2644.0881-.4406.0881v.0881c.0881 0 .2644.0882.1762.2644-.0881.0882-.0881.0882-.0881.1763-.0881.0881-.1763.0881-.1763.0881v.0882c.0882.0881.0882.2644.0882.3525l-.0882-.0881c-.1763.1763-.2644.4407-.4407.6169 0-.1762 0-.2644.0882-.3525.0881-.0881.0881-.2644.0881-.2644.1763-.0882.0882-.2644.0882-.4407 0-.0881.0881-.0881.0881-.0881l-.1763-.0882c0 .3526-.2644.7051-.4407.9695-.0881 0-.1762-.0881-.2644-.0881-.0881.2644-.1762.4407-.1762.7051.0881-.1763.1762-.2644.3525-.2644v.3525c.1763-.3525.5288-.5288.7932-.7932.2644-.0881.3526-.3526.3526-.617h.3525c.0881-.1762.1763-.4406 0-.6169.0881-.1763.1763-.3525.4407-.3525-.0882-.0882-.1763-.1763-.1763-.2644.0881-.1763.3525-.2645.5288-.3526Zm-16.3049 1.7627c0 .0881.0881.1763.0881.2644l-.1763.1763v.6169c.2644-.1762.5288-.3525.7051-.6169-.0881-.0881-.1763-.1763-.1763-.2644.0882 0 .1763-.0882.1763-.0882-.1763-.0881-.4407-.0881-.6169-.0881Zm1.322-.3525c-.0882 0-.1763-.0882-.1763-.0882v.4407c0-.0881-.0881-.1763-.1763-.1763-.1762.1763-.0881.4407-.1762.617-.0882.1763-.0882.2644 0 .3525.1762 0 .1762-.3525.3525-.4406h.2644c-.1763-.1763-.0881-.4407-.0881-.7051Zm10.0474 3.261c0 .0881 0 .1762-.0882.3525 0 .0881 0 .2644-.0881.3525 0 .0882.0881.1763.0881.2644.4407-.2644.3526-.705.617-.8813-.0882 0-.1763-.0881-.1763-.0881h-.3525Z"/>
	</g>
	<g fill="#EDE6F0">
		<path d="M63.2505 14.1152c-.0881 0-.2644-.0881-.3525-.0881.3525-.1763.705-.1763 1.0576-.1763h.0881c.0881 0 .1763.0882.1763.0882.1762-.2644.5288-.3526.7932-.3526v.4407c.1763.0881.4407 0 .6169-.0881v-.1763c-.1762 0-.3525-.0881-.4406-.1763.1762-.0881.4406-.1762.6169-.1762.0881-.0882.0881-.2644.1763-.3526.1762.0882.3525.0882.5288.0882.1763 0 .3525-.2645.2644-.4407l.1763.1762v-.3525h.0881v.2644c.1763-.0881.4407-.1763.5288-.4407h.5288V12c-.6169.1763-1.322.2644-1.939.7051-.0881 0-.1762 0-.3525.0881v.2644c-.0881-.2644-.4407 0-.6169 0-.0882 0-.0882.1763-.0882.1763-.0881-.0881-.1762-.0881-.2644-.0881v.1762h-.3525c0 .0882-.0882.1763-.0882.2644-.1762 0-.2644.0882-.3525.0882l.0881-.2644h-.5288v.2644h-.0881c0-.1763 0-.3526-.0881-.4407v.4407c-.1763-.0882-.5288 0-.5288.1762h-.1763c-.0881.0882-.0882.1763-.0882.1763-.2644.0881-.0881-.2644-.0881-.3525-.0881 0-.1763.0881-.1763.0881v.2644c0 .0881-.0881.1763-.0881.1763.3526.0881.617 0 .9695-.0882Zm-.617 6.2576v.0882c.0882 0 .1763-.0882.1763-.0882h-.1763Zm6.9627-5.1999h-.3525c-.0882-.2644-.0882-.5289-.0882-.8814-.0881 0-.1762-.0881-.1762-.0881.0881.2644.0881.4406 0 .3525-.0882-.0881-.2644-.0881-.3526-.0881h-.7051v.2644h-.1762c0-.0882 0-.1763-.0882-.2644.0882 0 .2644-.0882.3526-.0882v-.3525l-.1763.0881c-.0881.0882-.2644.0882-.3525.0882.0881-.0882.1762-.1763.2644-.1763v-.1763c-.0882.1763-.2644.2644-.3526.3526 0-.3526.3526-.4407.5288-.617-.2644-.1762-.4406-.2644-.705-.3525l-.2644.2644h-.2644c0 .0881.0881.1763.0881.2644-.0881.0881-.1763.1763-.1763.2644l.0882.0881v.2644c.2644.0882.4406.1763.705.1763h.2644c0 .0881-.0881.0881-.0881.0881h-.2644c.0881.0882.0881.2645.1763.3526h-.1763v.6169c-.0881 0-.2644-.0881-.3525-.0881-.1763.0881-.2644.1763-.4407.2644-.2644 0-.4407-.0881-.617-.0881 0 .0881-.0881.1762-.0881.1762-.1763.0882-.3525.1763-.5288.1763.1763.3525.1763.617 0 .9695h.7932c-.3525.0881-.7051.3525-1.0576.1763v.1762c-.0881-.0881-.1763-.2644-.2644-.3525 0 .2644.1763.6169.2644.8813.1763-.0881.3525-.1762.6169-.1762h.0882c-.2644-.0882 0-.2644.0881-.0882.1763.0882.2644.0882.3525.1763.0882-.0881.1763-.0881.1763-.0881-.0881 0-.1763-.0882-.1763-.0882.1763.0882.3526-.0881.3526-.2644 0 .0882.1763.0882.1763.0882.2644-.1763.5288-.4407.8813-.4407.1763-.0881.3525-.1763.5288-.3525-.1763 0-.3525 0-.5288-.0882.3525-.1763.617-.4407.9695-.5288.1763-.0881.5288-.1763.6169-.3525h.2644c.1763-.1763.4407-.4407.7051-.5288v-.1763c-.0881.1763-.3525.1763-.5288.1763Zm-8.6372-.1763c-.0881-.0881-.2644-.1763-.3526-.1763v.2644c-.0881-.1762-.1762-.3525-.3525-.3525-.0881.1763-.0881.3525-.1763.5288v.0881h-.4406v.0882c.5288.0881.8813-.1763 1.322-.4407Z"/>
		<path d="M64.4844 17.9917v-.3525c-.0882 0-.1763.0881-.1763.0881-.0881-.0881-.1763-.1763-.1763-.2644-.0881.1763-.1762.4407-.2644.7051-.0881-.0882-.1762-.1763-.1762-.2644-.2644 0-.617.1762-.8814.3525 0 .0881.0882.2644.0882.2644.1762 0 .3525.0881.5288.0881h.2644c-.1763.1763-.3526.3526-.5288.4407.0881-.0881.1762-.2644.2644-.4407-.2644 0-.617.1763-.7933.3526-.0881.0881-.0881.1763-.0881.1763-.1763 0-.4407-.0882-.6169-.0882h-.0882c0 .0882-.0881.2644-.0881.3526l-.2644-.2644c-.1763 0-.3525.0881-.5288.0881-.1763.1763-.3526.3525-.5288.4407.1762.0881.2644.1762.3525.1762 0-.2644.2644-.1762.2644 0h.1763v-.2644c.0881.0882.2644.0882.3525.0882 0 .3525-.2644.6169-.5288.7932-.0881.0881-.1763.0881-.1763.1762 0 .0882-.1762.0882-.1762.0882-.0882.0881-.1763.1763-.1763.2644v.4407c-.0881.1762-.3525 0-.4407 0-.0881.0881-.2644.1762-.3525.1762v-.2644c-.3525.0882-.1763.5288-.3525.7051h.1762c.2644-.0881.4407-.2644.5288-.4407h.5288c0-.0881.0882-.2644.0882-.3525.0881 0 .1762-.0881.1762-.0881v.3525c.0882-.1763.4407-.2644.617-.3525v-.1763h-.2644c-.0881 0-.2644.0881-.4407.0881v-.2644c0 .0882.0881.1763.0881.1763.1763-.0881.4407-.2644.617-.4407v.1763c.0881-.2644.2644-.4407.5288-.4407 0 .1763-.0881.3525-.0881.5288h.2644l.1762-.1763h-.1762c-.0882-.3525.3525-.5288.3525-.8813h.0881c0-.1763.0882-.2644.1763-.4407.0882-.1762.2644 0 .2644.0882.1763-.1763.3526-.3526.617-.5289.1762-.0881.4406-.2644.4406-.4406h.4407c-.0881.0881-.2644.1762-.2644.2644.0881-.0882.1763-.0882.2644-.0882.0882-.1762.0882-.4406.0882-.6169.0881 0 .2644-.0881.3525-.0881-.1763-.0882-.2644-.1763-.4407-.2644 0 .1762-.0881.2644-.0881.3525Z"/>
		<path d="M62.3692 20.5478c.0881 0 .1763 0 .2644-.0881-.0881.0881-.1763.0881-.2644.0881Zm1.1457-.7051c-.0881.0882-.1762.1763-.1762.2644.0881 0 .0881-.0881.1762-.0881v-.1763Zm-.705 0c.0881 0 .0881.1763.0881.1763v-.2644h-.2644v.1763c.0881-.0882.1763-.0882.1763-.0882Zm.3525.3526s.0881-.0882.1763-.0882h-.4407c-.0881.0882-.0881.2644-.0881.2644h.2644c0-.0881.0881-.1762.0881-.1762Zm-9.166-1.8509c.4406-.2644.9695-.3525 1.322-.7932.4407 0 .7051-.2644 1.0576-.5288.1763-.1763.4407 0 .617 0 .1762-.2644.4406-.5288.705-.7051h.0882l-.1763-.1762c-.1763 0-.4407-.0882-.4407.1762-.0881 0-.2644 0-.4406.1763.0881.0881.0881.1763.1762.2644l-.2644-.2644c-.4407.0881-.7932.5288-1.2339.7051-.4406.2644-.7932.6169-1.2339.7932-.1762 0-.2644.0881-.3525.1763.0881 0 .1763.1762.1763.1762Zm-18.3321 4.583c.0881-.0881.1763-.0881.2644-.0881v.0881c.1763-.0881.2644-.1762.4407-.1762v-.1763h.6169c.1763-.4407.2644-.7932 0-1.1457-.0881 0-.1762.0881-.2644.0881l.2644-.7932c-.0881-.0882-.1762-.0882-.2644-.1763.0882 0 .1763-.0881.2644-.0881.0882-.2644.2644-.4407.3526-.617v-.3525c.0881-.2644.3525-.2644.5288-.2644v-.5288c-.1763-.0882-.4407-.0882-.4407-.3526h.2644v-.1762c-.0881.0881-.2644.0881-.3525.0881v-.3525c.0881-.0882.2644-.0882.3525-.0882-.0881-.0881-.0881-.1763-.0881-.1763h-.7932c0 .1763 0 .2645.0881.617-.1763-.1763-.4407.0881-.6169.1763.0881.0881.1762.1762.1762.2644-.0881-.0882-.2644-.1763-.3525-.1763 0 .0881-.0882.0881-.0882.0881l-.0881-.1762c-.1763.0881-.4407.0881-.5288.2644v.3525c-.1763.0881-.2644.1763-.3525.2644v.1763c-.0882 0-.1763.0881-.1763.1763.0881 0 .1763.0881.2644.1762-.0881.0882-.1763.2644-.2644.3526-.0881 0-.1763-.0882-.2644-.0882v.3526c0 .0881-.0881.1762-.1763.1762-.3525-.2644-.7051-.1762-.9695 0h.4407v.5288c-.0881-.0881-.2644-.1762-.3525-.2644v.3526h.1762l.5289.5288-.2645.2644c0 .0881.0882.1763.0882.1763h.3525c0-.0882-.0881-.1763-.0881-.1763l.2644-.2644c.1763.0881.2644.1763.3525.2644l.2644-.2644c.0882.1763.1763.4407.1763.6169 0 .0882.0881.1763.1763.1763-.0882.0881-.2644.0881-.3526.0881-.2644-.0881-.4406-.1762-.6169-.2644-.2644.1763-.617.0882-.8814 0 .0882.2644.2644.4407.4407.617-.1763.0881-.3525.0881-.5288.0881 0 .1763.0881.4407.0881.617h.4407v-.3526c.1763-.0881.2644-.1763.3526-.1763-.0882 0-.2644-.0881-.3526-.0881.0882-.0881.1763-.2644.2644-.3525.1763.0881.2644.1762.4407.2644v-.2644c.0881 0 .1763.0881.2644.0881.1763-.1763.3525-.0881.5288.0881Zm14.1016-1.4101.0881-.0881-.0881.0881Zm.6169.6169c0 .0882.0882.1763.0882.1763.1762-.1763.3525-.3525.6169-.4407.1763-.2644.3526-.7051.7932-.7051.0882 0 .1763-.0881.1763-.0881v-.2644c0-.0881.1763-.0881.1763-.0881v.1762c.0881-.0881.1762-.0881.1762-.1762v-.1763h-.1762c-.1763 0 0-.2644.0881-.2644-.1763-.0881-.3525 0-.5288 0 0-.0881-.0881-.1763-.0881-.1763.1762-.0881.4406-.1762.6169-.2644l.2644-.2644c.1763-.0881.3526-.1763.5288-.1763 0-.0881.0882-.1762.0882-.2644.1762-.1762.5288-.3525.705-.6169v-.1763c-.6169.0882-.8813.7051-1.4983.7051 0 0 0 .1763-.1762.617-.1763.0881-.3526.2644-.5288.3525 0-.0881-.0882-.0881-.0882-.0881 0 .1762-.0881.3525-.1762.4406-.0882 0-.2644.0882-.3526.0882-.1762.2644-.5288.3525-.7051.6169 0 .0881-.2644.0881-.3525.0881 0 .0882-.0881.1763-.0881.2645.0881 0 .0881-.0882.1762-.0882.0882.2644-.1762.617-.1762.8814l.0881.1762c-.1763.0882-.2644.0882-.3525.0882-.0882.1762-.2644.2644-.3526.3525.0882 0 .2644.0881.4407.0881.2644-.1762.5288-.4406.6169-.7932Z"/>
		<path d="M33.7254 21.7827c-.1763 0-.3526-.0881-.5289-.1762v.3525c.1763.0881.3526.1763.5289.1763v-.3526Zm-4.8475 2.0271v-.6169h-.705c.0881 0 .2644-.0882.3525-.0882-.1763-.1762-.3525-.2644-.6169-.2644.0881.1763.0881.2644.0881.3526-.1763.0881-.2644.1763-.4407.2644.0881.0881.1763.2644.1763.2644-.1763.0881-.4407 0-.617 0-.1762.1763-.3525.2644-.6169.3525.1763.2644.5288.3526.7932.4407-.1763.0881-.5288.0881-.7932.0881-.0881.2644-.1763.4407-.3525.617.0881.0881.0881.2644.1762.3525.0882.0882.2644.1763.4407.1763-.0881.0881-.1763.2644-.1763.3525l.3526.3526h.6169c0-.3526.3525-.5288.617-.5288.0881.1762.1762.2644.2644.3525l.2644-.2644c.0881.0881.1762.0881.2644.0881v-.1762c-.1763-.1763-.4407-.3526-.617-.5288l.3526-.3526c.1762.2644.3525.7051.705.8814-.1762.0881-.2644.2644-.3525.4406.1763-.0881.4407-.1762.6169-.1762-.0881-.1763-.0881-.2644-.0881-.3526-.3525-.0881-.3525-.4406-.3525-.7051-.1763-.0881-.4407-.1762-.5288-.3525h.7932c.0881-.0881.1762-.1763.1762-.2644l.1763.1763c-.0881-.0882-.0881-.1763-.0881-.2644l.1763-.1763c-.3526-.1763-.8814-.0881-1.0577-.4407Zm2.2034-.6169h-.3525c-.0882-.0882-.1763-.1763-.1763-.2644-.0881.2644 0 .5288.1763.5288v.3525c.1762.1763.3525 0 .4406 0v-.2644h.2644c-.2644 0-.4406 0-.6169-.0881l.2644-.2644Zm29.3489-4.4068c0-.1762-.0881-.1762-.0881-.2644v-.4406h.0881l-.1762-.1763c-.3526.0881-.617 0-.9695-.1763v.3526s-.0882 0-.1763-.0882v-.1762c-.0881 0-.1763 0-.2644.0881 0 .0881.0881.2644.0881.3525-.1762 0-.3525 0-.5288.0882-.1762.2644-.3525.6169-.4406.8813-.0882.1763-.3526.0881-.4407.0881-.2644.1763-.4407.4407-.5288.7933h-.617c-.1762.5288-.7932.6169-1.1457.9694 0-.0881-.0882-.1762-.0882-.2644-.0881.0882-.2644.1763-.3525.1763h.3525c0 .1763 0 .3525-.0881.4407-.2644 0-.4407.0881-.6169.1763l-.4407-.4407c-.0881.2644-.3526.6169-.0881.8813v.1763s-.0882-.1763-.1763-.2644c0 .0881-.0882.0881-.1763.1763l.1763.1762c-.2644.1763-.617.1763-.9695 0 0 0-.0881-.1762-.0881-.2644-.4407.2644-.617.617-1.0577.8814-.4406.2644-1.1457.4407-1.2338 1.0576.1762 0 .3525 0 .5288.0881l-.2644.2644v.7932c.1762 0 .3525-.0881.4406-.2644.0882-.2644.3526-.4406.617-.5288v.3526h-.3526c-.1762.3525-.4406.6169-.6169.9695V25.22c-.1763-.0882-.2644-.1763-.4407-.2644v-.1763c-.2644-.1763-.6169-.1763-.8813-.0881 0 0 .0881.0881.0881.1762h-.4407v.1763s.1763 0 .1763.0881v.1763l.5288-.2644v.5288c-.2644.0882-.6169.1763-.8813.2644 0 .0882.0881.1763.1762.1763-.4406 0-.705.3525-1.0576.4407-.4407.0881-.7051.2644-1.1457.3525.0881 0 .1762.0881.2644.1763h-.3526c0-.1763.0882-.4407.0882-.617-.0882.0882-.1763.1763-.3526.2644l-.1763.0882c0 .0881-.0881.0881-.0881.1762h-.1763c0 .1763 0 .4407-.0881.617.0881 0 .1763 0 .3525-.0881l-.0881.0881c-.1763 0-.3525.0881-.5288.1763-.1763 0-.2644-.0882-.4407-.0882 0-.0881.0882-.1762.0882-.2644-.0882.0882-.0882.0882-.0882 0 0 0 .0882-.0881.1763-.0881v-.2644c0-.0882.0881-.0882.0881-.1763h-.0881v-.1763s0-.0881.0881-.0881c0-.1763 0-.3525-.0881-.5288-.0881-.2644.0881-.4407.1763-.6169 0-.1763-.0882-.3526-.1763-.4407-.2644.0881-.4407.2644-.6169.4407-.0882-.0882-.1763-.2645-.3526-.3526.1763-.2644.5288-.2644.7932-.1763 0 0 .0882-.0881.0882-.1762-.1763-.1763-.2644-.3526-.3526-.617 0 0-.0881-.0881-.1762-.0881-.4407 0-.7933.1763-1.2339.2644-.1763 0-.3526.0881-.5288.1763v.1762c-.4407.0882-.617.5288-1.0577.7051-.2644.1763-.6169.1763-.8813.4407.0881.0881.1763.1763.3525.2644l-1.0576.2644c.0881 0 .1763.0881.2644.1763v.2644c-.1763-.0882-.3525-.1763-.6169-.3526 0-.1762-.0882-.4406 0-.6169-.1763-.0881-.5288-.0881-.617.0881-.1762.3526-.5288.5288-.8813.617v-.4407c-.0882.1763-.1763.2644-.2644.4407-.0882.4406-.4407.8813-.5288 1.322-.2644.6169-.617 1.2339-.7933 1.8508-.1762.3526-.0881.7051-.3525 1.0576-.0881.1763.0881.3526.0881.5289h-.2644v.3525c0-.0881.0882-.1763.1763-.1763l.5288.5288c0-.4406.3526-.7932.617-1.2339v.5289h.5288s0 .1762-.0882.1762h-.2644c-.1762 0-.3525.0882-.5288.1763.0882 0 .1763 0 .2644.0881-.0881.0882-.2644.1763-.3525.2644.1763 0 .3525.0882.4407.1763.1762 0 .2644-.0881.4406-.1763v.4407h.3526c.1762-.0881.4406-.2644.6169-.2644.0882-.0881.1763-.1763.1763-.2644.1763.2644.1763.6169.1763.8814 0 .0881-.0882.1762-.0882.2644 0 0 .1763 0 .2644.0881.3526 0 .7051.2644 1.1458.1763-.2644-.1763-.5288-.2644-.7051-.4407h.4407c0-.0882.0881-.1763.1762-.2644 0 .1763.0882.4407.3526.4407.0881-.1763.2644-.3526.3525-.4407.2644 0 .7051 0 .7932.3525.1763.2644.0882.617.0882.8814l.2644-.2644c.2644 0 .6169.1762.8813.1762.2644-.0881.4407-.1762.7051 0 .3526-.1762.7051-.2644 1.0576 0 0-.0881-.0881-.1762-.1762-.2644l.2644-.2644c.2644 0 .5288 0 .705.1763-.0881 0-.2644.0881-.4406.0881 0 .0882 0 .1763.0881.2644.0881-.0881.2644-.2644.4407-.3525 0 .2644 0 .5288-.1763.7051.0881 0 .1763 0 .2644-.0882-.0881.0882-.2644.1763-.3525.3526v.1762c-.7051 0-.9695.8814-1.5865 1.1458-.1762 0-.3525 0-.5288.0881l-.2644.2644c0-.0881-.0881-.1762-.0881-.2644-.1763.1763-.3525.3526-.5288.4407 0 .0881 0 .1763.0881.2644.4407-.2644.7932-.5288 1.2339-.6169 0 .0881-.0881.0881-.1763.1762-.3525.3526-.9694.5289-1.4101.7933-.0882.0881-.2644 0-.3526 0-.0881 0-.1762.0881-.2644.1762.1763 0 .3526.0882.5288.0882.0882 0 .1763 0 .3526-.0882.1763-.0881.3525-.1762.6169-.2644.1763-.0881.3526-.0881.4407-.0881.2644-.2644.5288-.4407.7932-.617v-.2644c.4407-.0881.617-.4406.9695-.6169.2644-.2644.6169-.4407.7051-.8814.1763-.0881.3525-.1762.5288-.4406.1763-.2644.6169-.3526.7932-.7051.2644 0 .5288-.1763.617-.3525 0-.0882-.0882-.1763-.0882-.2645.1763-.1762.3526-.4406.617-.5288 0 0 .0881 0 .1762-.0881v-.3525c.1763-.0882.4407-.1763.617-.2644.1762-.1763.3525-.4407.5288-.617v-.3525h.3525s.0882.0881.1763.0881v-.2644c.0881 0 .1763-.0881.3525-.1763h-.0881c0-.2644.1763-.4406.4407-.5288v-.2644c.0881 0 .1762.0882.3525.0882.0881-.1763.0881-.3526.1763-.4407h.3525c0-.3526 0-.617.1763-.9695.0881 0 .1763.0881.2644.0881.1763-.2644.4407-.6169.4407-.9695l.1762.0882v.0881s.0882 0 .1763-.0881c0-.0882 0-.0882.0881-.1763-.0881 0-.1762 0-.2644-.0881v-.2644c.1763 0 .3526 0 .4407-.0882.0881-.1762.1763-.4406.2644-.6169 0-.1763 0-.3525-.0881-.4407.0881 0 .1763 0 .2644.0882 0-.1763.0881-.2645.0881-.4407.1763.0881.3526.1762.4407.3525 0 0 .0881.1763.1763.1763v-.0881s-.0882-.0882-.0882-.1763c.1763-.0882.3526-.2644.5288-.4407.0882-.1763-.0881-.4407.0882-.6169.2644-.1763.6169-.4407.7932-.7051h.2644c.0881-.1763.1763-.3526.4407-.4407 0-.0881-.3526-.2644 0-.2644v-.2644c0-.0881.1762-.0881.1762-.0881l-.1762.1762c0 .0882 0 .3526.1762.3526.2644 0 .1763-.1763.1763-.3526 0 0 .0881.1763.1763.1763 0-.0881 0-.2644.0881-.3525.3526.0881.5288-.2644.7051-.4407.0881-.1763.3525-.1763.4407-.2644h-.1763s0-.1763.0881-.1763c-.0881 0-.1762-.0881-.2644-.0881v.2644h-.2644c-.2644.1763-.4406.4407-.6169.7932-.1763-.0881 0-.2644 0-.4407v-.2644c.0881 0 .1763-.0881.2644-.0881l.2644-.5288h.2644l.2644-.2644v.1762h.2644c0-.1762 0-.3525.0881-.5288 0 0 .1763 0 .2644-.0881-.5288-.1763-.7932.3525-1.2338.5288.1762-.2644.4406-.6169.705-.7932v-.617c.1763 0 .3526-.0881.617-.0881l.0881-.0881c.1763-.1763.3526-.4407.5288-.617h.5288Zm-14.1897 8.5491c.1763 0 .4407 0 .617.0882-.0882-.1763-.0882-.2644-.0882-.4407.0882.0881.2644.1763.3526.2644 0 .1763 0 .3525-.1763.4407-.2644 0-.5288-.1763-.7051-.3526Zm-.3525 3.6136s-.0882 0-.0882-.0882c-.0881 0-.1762 0-.1762.0882l-.0882-.0882h.3526v.0882Zm.7051.1762c-.0882-.2644-.1763-.2644-.2645-.2644v.1763h-.3525l.2644-.2644h-.0881c.0881 0 .2644-.0882.3525-.1763 0 .0881.0882.1763.1763.2644 0 .0882-.0881.1763-.0881.2644Zm1.5864-1.322c0-.0881 0-.1763-.0882-.1763 0 0-.0881 0-.0881.0882l-.1763-.1763v.3525c.0882.0882.2644.1763.3526.2644-.1763 0-.3526.0882-.617.1763 0 .0881.0882.1763.1763.2644-.1763.1763-.3525.3526-.4407.5288-.0881-.0881-.1762-.1762-.2644-.1762 0 .1762 0 .2644.0882.4406-.0882-.0881-.1763-.1762-.2644-.3525 0 0 .0881-.0881.0881-.1763 0-.0881-.0881-.1763-.1763-.2644h.2644v-.1763h.3526c0-.1762 0-.4406-.0882-.6169-.1762-.1763-.4406-.3525-.6169-.5288-.0881 0-.1763.0881-.1763.1763-.1763-.0882-.2644-.0882-.4407-.1763v-.2644c-.1762.0881-.3525.1763-.5288.3525v.2644c.2644-.0881.617 0 .8814.0882l.0881.1762c.0882 0 .1763 0 .2644.0882v.2644c-.0881 0-.1762.0881-.2644.0881v-.1763c-.3525.1763-.7051.5288-1.1457.5288-.0882-.0881-.2644-.0881-.3526 0-.0881.0882-.1762.3526-.1762.4407h-.1763c-.0881.1763-.2644.3526-.4407.4407-.0881 0-.2644-.0881-.4407-.0881 0-.2644-.0881-.617-.4406-.617.0881-.1763.2644-.3525.3525-.5288-.2644.0881-.5288.1763-.6169.4407-.1763 0-.4407.0881-.617.1763 0-.1763.0881-.3526.3525-.3526 0-.0881-.0881-.1763-.1762-.2644h.3525c.0882-.0881.1763-.1763.3526-.2644 0 .0881 0 .1763.0881.2644.1763-.1763.3525-.2644.6169-.3525-.1762-.1763-.3525-.0882-.6169-.0882.0881-.0881.1763-.1762.1763-.2644v-.1762l-.0882.0881c-.0881 0-.1762-.0881-.3525-.0881v-.2644c.1763 0 .2644-.0882.4407-.0882-.2644-.0881-.617-.0881-.8814-.0881.0882.1763.0882.3525.1763.5288l-.2644.2644c-.2644 0-.617-.2644-.7051-.5288.0881 0 .1763-.0881.3525-.1763-.1762-.0881-.2644-.1762-.4406-.2644l.1762-.0881s.0882 0 .1763.0881l.2644-.2644H42.01c.0882-.2644.3526-.2644.617-.2644 0 .2644 0 .6169.2644.7051.2644 0 .1763-.3526.2644-.5288 0 .0881.0881.1762.0881.2644.0882-.0882.2644-.1763.3526-.2644l-.617-.617v-.1762c.0882 0 .0882.0881.1763.0881v-.1763c.1763 0 .3525-.0881.3525-.2644-.1762-.0881-.3525-.0881-.4406-.0881.2644 0 .5288 0 .6169-.1763-.0881 0-.2644 0-.3525-.0881h.0881c.1763.0881.4407.0881.6169.1763.1763 0 .3526-.0882.5288-.1763v.3525c.1763 0 .3526-.0881.4407-.0881l-.1762-.1763h.2644v-.3525c.0881 0 .0881.0881.1762.0881-.0881.2644-.1762.4407-.4406.7051.0881.1763.2644.3525.3525.5288.3525.1763.7051.4407 1.0576.7051v.2644c.3526-.1763.617-.5288 1.0576-.617l.1763.1763s.0881 0 .0881-.0881c.1763.1762.3526.2644.5288.4407 0 0 0 .0881-.0881.0881.0881.0881.2644.1763.3526.3525.0881.1763-.0882.2644-.1763.4407Z"/>
		<path d="M42.0982 33.9471c.0881 0 .1762-.0882.2644-.1763h-.2644v.1763Zm-2.0271-11.105v-.2645c.0881-.1762.2644-.2644.4406-.3525-.0881-.1763-.2644-.2644-.3525-.4407.1763-.2644.2644-.5288.2644-.8813.1763-.0882.2644-.0882.3525-.0882 0-.0881.0882-.1762.0882-.1762-.1763-.0882-.2644-.0882-.3526-.0882-.0881-.3525-.2644-.6169-.2644-.9694-.0881 0-.1762-.0882-.1762-.1763.0881-.2644.2644-.5288.3525-.7932-.0881 0-.1763-.0882-.1763-.0882.0882-.2644-.2644-.5288-.3525-.7932 0-.1762 0-.4406.2644-.4406.1763 0 .1763.3525.2644.4406v-.3525l.5288.2644-.2644.2644c.0881-.0881.2644-.1763.4407-.1763-.0882.1763-.0882.3526-.0882.4407.1763.0881.4407.0881.617.0881-.1763-.0881-.3526-.1762-.5288-.1762.1762 0 .4406-.0882.6169-.1763-.1763-.1763-.2644-.3525-.4407-.3525-.4406-.1763-.7932-.4407-1.2338-.4407-.2645 0-.4407.0881-.7933.1763v.2644c.0882 0 .2644.0881.3526.0881 0 .4407.1762.8813.4407 1.2339-.1763.1762-.3526.2644-.5289.3525.1763.1763.3526.3526.5289.617-.0882.2644-.0882.6169 0 .8813.1762.2644.0881.617 0 .8814-.0882.0881-.2645.0881-.4407.0881.0881.0881.0881.1763.1763.2644l-.2645.5288.0882.0881c-.1763.1763-.2644.4407-.3526.617h-.1762v.3525c.1762-.1762.4406-.2644.6169-.2644.0881-.1762.2644-.3525.3526-.4406Zm14.1897-3.4373c-.2644-.0881-.4407.2644-.4407.4407.1763 0 .6169-.1763.4407-.4407Zm-.7051.1763c-.0881.0881-.0881.2644-.1763.4406.1763 0 .2644-.0881.4407-.0881v-.3525h-.2644ZM35.488 34.1233c0-.0881-.0881-.1762-.0881-.2644-.2644.4407-.0881.9695-.2644 1.322l.2644.7933c.1763-.4407-.1763-.7933 0-1.2339 0-.2644.1763-.4407.0881-.617Zm1.939-.3525c-.0881.0881-.1763.1763-.2644.1763 0 0 0 .0881-.0881.0881-.0882.0881-.2644.0881-.3526.0881l-.1762.1763v-.5288c-.2644.0881-.4407.2644-.617.4407h-.0881c0 .1762-.0882.3525.0881.4406h-.2644c.0881.4407.2644.7932.4407 1.2339-.0882 0-.1763-.0881-.2644-.0881 0 .2644.2644.4407.5288.4407-.0881-.0882-.1763-.1763-.1763-.2644h.4407c-.1763-.0882-.3525-.2645-.4407-.3526-.1763-.1763-.2644-.4407-.2644-.6169 0-.2644.2644-.4407.4407-.617.0881.1763.0881.3526.2644.4407.1763-.1763.1763-.5288.4407-.6169.1762.1762.2644.4406.5288.5288v-.617c-.0882 0-.1763-.0881-.1763-.0881v-.2644Zm.3525-.7051c-.0881-.0881-.1762-.1763-.2644-.1763.1763-.0881.3526-.1762.4407-.3525 0-.0881-.0881-.2644-.0881-.3525h-.2644c0 .1762.0881.2644.2644.4406-.1763 0-.4407 0-.617.0882.0882.0881.2644.0881.2644.0881 0 .0881-.0881.1763-.0881.2644.1763.0881.4407.1763.617.1763-.0882 0-.1763.0881-.2645.0881h.2645c.0881 0 .0881-.2644.0881-.3525-.0881-.0882-.1763-.0882-.1763-.0882-.0881.0882-.0881.1763-.1763.1763Z"/>
	</g>
	<g fill="#EAE3ED">
		<path d="M65.8067 13.938h.3525c0-.1763.0881-.3525.1763-.4407h-.4407c.2644-.0881.4407-.1763.6169-.3525-.1762-.0882-.3525-.0882-.5288-.0882-.0881.1763-.1762.2644-.1762.4407-.1763.0882-.4407.0882-.617.1763.1763.0881.2644.1763.4407.1763l.1763.0881Zm-3.5254.7051c.2644-.1763.705-.3526 1.0576-.1763v-.3525c.0881.1762.0881.2644.0881.3525.0881-.0881.2644-.0881.4407-.1763 0-.0881-.0881-.1762-.1763-.2644l.1763-.1762c-.4407 0-.7051 0-1.0576.1762.0881.0882.1762.0882.2644.0882-.2644.0881-.5288.0881-.7932.0881h-.3526v-.2644c-.0881.0881-.2644.1763-.3525.2644v.3525c.1762-.0881.4407-.1762.7051-.2644v.3526Zm5.4643.6169h.1763v-.0881h-.1763v.0881Zm-7.844 4.583c0 .0882-.0881.0882 0 0-.2644.3526-.4407.617-.7051.7051v.1763c-.2644.1762-.5288.5288-.705.7932.0881 0 .0881-.0881.1762-.0881v.0881h-.2644c.0882 0 .1763.0881.2644.0881.0882 0 .1763.1763.1763.1763.1763 0 .3525-.1763.5288-.1763.1763-.1762.2644-.3525.4407-.5288h.3525c.1763-.1763.3526-.5288.7051-.4407v.2644c.2644-.1762.5288-.4406.5288-.7932-.0881-.0881-.2644-.0881-.3525-.0881v.2644h-.4407c-.1763-.0881-.1763-.0881-.2644-.1763l.3525-.3525h-.1762l.1762-.1763h-.0881c.0881-.1762.0881-.2644.1763-.3525h-.3526c-.1762.1763-.3525.4407-.5288.6169Zm-.9695 1.7627v-.2644h-.1762c.2644-.1762.5288-.4407.7932-.3525-.0882.0881-.1763.2644-.2644.3525 0 .2644-.1763.2644-.3526.2644ZM60.166 20.46c-.0881.0881-.1763.0881-.2644.1762-.1763 0-.2644-.1762-.1763-.2644.0882-.0881.2644.0882.2644.1763.0882-.0881.0882-.1763.1763-.2644v.1763Zm5.2881-4.2305s.0881-.0881 0 0c.0881-.0881 0-.0881 0 0Zm-4.6711 2.9966h.0881s-.0881 0-.0881-.0881v.0881Z"/>
		<path d="M66.1589 15.613c.2644 0 .4407-.2644.617-.2644-.1763.1763-.4407.3526-.7932.3526v.2644h-.3526c0 .0881-.0881.0881-.0881.1762 0 .2645-.1763.3526-.3525.4407v.2644c-.0882-.0881-.1763-.0881-.2644-.0881-.1763.0881-.2645.1763-.3526.2644-.0881 0-.1763.0881-.1763.0881v.1763c-.3525.3525-.7932.5288-1.1457.8814l-.0881-.1763v.5288h-.4407c0-.0881.0881-.2644.0881-.4407-.2644.3526-.6169.5288-.9695.8814-.2644.2644-.6169.5288-.8813.7932.1763 0 .3525-.0882.5288-.0882l.2644.2644c0-.0881.0881-.2644.0881-.3525h-.2644c.2644-.3525.4407-.7051.7932-.9695.1763.0882.2644.1763.3526.1763-.1763.3525-.5288.5288-.7932.7932.1762 0 .4406.0881.6169.0881.0881 0 .0881-.1762.0881-.1762.1763-.2644.4407-.3526.7933-.3526-.1763 0-.3526-.0881-.5288-.0881 0-.0881-.0882-.2644-.0882-.2644.2644-.1763.5288-.3525.8814-.3525.0881.0881.1762.1762.1762.2644.0882-.1763.1763-.4407.2644-.7051.0882.0881.0882.1763.1763.2644.0881 0 .1763-.0881.1763-.0881v.3525c0-.1763.0881-.2644.0881-.3525.1763.0881.2644.1762.4407.2644-.1763-.2644-.2644-.5289-.2644-.8814.0881.0881.1763.2644.2644.3525v-.1762c.3525.1762.7051-.0882 1.0576-.1763-.2644-.0881-.5288 0-.7932 0 .1763-.3525.1763-.6169 0-.9695.1763-.0881.3525-.1762.5288-.1762 0-.0882.0881-.1763.0881-.1763.2644 0 .4407.0881.617.0881.1763-.0881.2644-.1763.4407-.2644.0881 0 .2644.0881.3525.0881v-.6169h.1763c-.0882-.0881-.0882-.2644-.1763-.3525h.2644v-.0882c-.0881 0-.1763-.0881-.2644-.0881-.4407 0-1.1458 0-1.1458.6169Z"/>
		<path d="M67.5693 15.0833h.0882c0-.0882-.0882-.1763-.0882-.1763.0882 0 0 .0881 0 .1763Zm.3526-.0882v.1763h.0881c.2644 0 .4407-.0881.617-.1763-.2644 0-.4407.0882-.7051 0Zm2.644-.3525c-.1762-.0882-.4406-.1763-.705-.2644l-.2644.2644c0-.0882-.0882-.2644-.0882-.2644-.0881.0881-.1763.0881-.2644.0881v-.4407c-.1763 0-.3525.0882-.5288 0-.0881.1763-.2644.2644-.4407.2644h-.0881v-.3525h-.2644s0 .1763.5288.7932l.1763-.0881v.3525c.0881.0882.2644.0882.3525.0882v-.617c.0881 0 .1763.0881.1763.0881 0 .2644 0 .5289.0881.8814h.3526c-.0882-.0881-.0882-.2644-.0882-.3525.3526-.1763.7051-.3526 1.0576-.4407Zm-6.6101 2.0271-.0881.1763c-.0882 0-.2644.0881-.4407.0881v.3525l.5288-.2644v-.2644h.5288v.0882c0-.0882.0882-.0882.0882-.0882.0881-.1763.0881-.2644.0881-.4407-.0881-.0881-.2644-.1762-.3525-.2644-.1763.0882-.3526.1763-.4407.2644 0 .0882.0881.2644.0881.3526Zm-.6169.3525h-.2644v.2644c-.1763.0882-.2644.2644-.2644.3526-.0882 0-.1763.0881-.2644.0881 0-.0881.0881-.2644.1762-.3525-.0881.0881-.2644.1762-.4406.1762.0881.0882.0881.2644.0881.3526-.0881.0881-.2644.1762-.4407.2644-.2644.1762-.3525.5288-.7051.7051v-.3526c-.0881 0-.1762.0882-.2644.0882h-.0881c.0881.0881.1763.2644.2644.3525-.1763.0881-.2644.0881-.3525.0881.0881 0 .1762.0882.1762.1763h-.0881c.1763.0881.3525 0 .4407-.1763h.3525c.1763-.2644.4407-.4407.617-.6169.1762-.1763.5288-.3526.705-.617v-.1762c.1763-.0882.2644-.1763.4407-.2644 0 0-.0881-.0882-.1763-.0882 0-.0881.0882-.1762.0882-.2644Zm1.4983-1.4101c-.1763 0-.2644.0881-.3526.1762-.0881 0-.1762.0882-.2644.0882v.0881c.2644 0 .5288.1763.7051.4407.1763-.0882.3525-.1763.5288-.1763-.1763-.2644-.2644-.6169-.6169-.6169Z"/>
		<path d="M64.3084 16.0549v-.0881h-.0881s0 .0881.0881.0881Zm-22.827 9.8711c-.1762-.0881-.2644-.1762-.3525-.2644.2644-.2644.617-.2644.8814-.4406.4406-.1763.6169-.617 1.0576-.7051v-.1763c.1763-.0881.3525-.1763.5288-.1763.4407-.0881.7932-.2644 1.2339-.2644l.0881-.0881h.2644c.1763.0881.3526.1763.4407.2644 0-.2644-.0881-.4407-.1763-.6169-.2644.0881-.5288.0881-.7932.0881.0881-.0881.1763-.1763.1763-.2644-.1763-.0881-.3526-.3525-.3526-.5288h-.2644c.0882-.1763.1763-.3526.1763-.5288-.1763-.0882-.3525-.1763-.4407-.1763v-.2644h-.2644v-.1763h.1763c0-.0881.0881-.1762.0881-.2644.0882 0 .3526-.0881.4407-.1762h-.3525v-.1763c.0881 0 .1762-.0881.2644-.0881-.0882-.0882-.2644-.0882-.2644-.0882v-.2644c-.0882-.1763-.2644-.3525-.2644-.5288h.2644c0-.1763-.0882-.4407-.2644-.5288.0881-.0881 0-.2644 0-.4407-.1763-.0881-.2644-.2644-.3526-.3525.0882.2644.1763.4407.2644.6169v1.0576c-.2644-.3525-.6169-.705-.7051-1.1457h-.2644c-.0881-.0881-.1762-.1763-.1762-.2644v.1763c-.1763-.1763-.3526-.3526-.2644-.5289-.1763-.3525-.5288-.5288-.7933-.7932-.1762 0-.4406.0882-.6169.1763.1763 0 .3525.0881.5288.1763-.2644.0881-.4407 0-.6169-.0882.0881-.1762.0881-.3525.0881-.4406-.0881.0881-.2644.1762-.4407.1762l.2644-.2644-.5288-.2644v.3526c-.0881-.1763-.0881-.4407-.2644-.4407-.2644-.0881-.2644.2644-.2644.4407.0882.2644.4407.5288.9695 1.1457.0881 0 .1763.0881.1763.0881-.0882.2645-.2644.5289-.3526.7933.0882 0 .1763.0881.1763.1762.0881.3526.1763.617.2644.9695.1763.0882.2644.0882.3525.0882 0 .0881-.0881.1762-.0881.1762-.1763.0882-.2644.0882-.3525.0882 0 .3525-.0882.6169-.2644.8813.0881.1763.2644.2644.3525.4407-.0881.1763-.2644.2644-.4407.3525v.2644c-.0881.1763-.2644.3526-.3525.4407-.2644.0881-.4407.0881-.617.2644-.1762.2644-.2644.5288-.3525.7932-.1763.3526-.4407.7932-.4407 1.2339l-.0881.0881v.4407c.3525-.0881.7051-.2644.8813-.6169.0882-.2644.4407-.1763.617-.0882-.0881.1763 0 .4407 0 .617.1763.1763.4407.2644.6169.3525v-.2644c-.0881-.0881-.1762-.1763-.2644-.1763l1.0576-.2644Zm18.7728-4.0542v-.4406c0 .0881-.0881.1762-.0881.1762s-.0882 0-.2645.0882l-.0881.1762c.1763 0 .3526.1763.4407 0Zm-11.3694 0c-.3526-.0881-.3526.4407-.7051.617-.2644.1763-.6169.2644-.7932.6169-.3525.2644-.617.617-.9695.8814-.0881.0881-.1763.0881-.1763.0881-.2644.0881-.5288.2644-.4406.617l.1762-.1763h.0882c.0881-.0882.0881-.1763.0881-.2644h.3525c.4407-.5288 1.1458-.9695 1.6746-1.4983.3525-.4407.9695-.617 1.322-1.0576v.1762c.0882-.1762.0882-.3525.0882-.4406v-.0882c-.3526-.0881-.5288.2644-.7051.5288Z"/>
		<path d="M44.4779 21.7822c.1763 0 0-.3525-.1762-.3525-.0882.1763 0 .2644.1762.3525Zm15.9525.2644c-.1763 0-.3526 0-.5289.0882-.1762.1762-.3525.3525-.5288.4406h-.1762c-.0882-.0881-.0882-.2644-.0882-.2644 0 .0882-.0881.0882-.0881.0882.1763.4406-.3525.705-.6169.8813-.0882-.0881-.0882-.2644-.1763-.2644-.0882.1763-.0882.2644-.0882.3526-.3525.1762-.7932.3525-.7932.7932-.1762 0-.3525.0881-.5288.1762.0882.2644-.2644.4407-.3525.7051.7932-.4407 1.4101-1.2339 2.2034-1.6745.6169-.4407 1.1457-1.0577 1.8508-1.2339 0-.1763.0881-.2644 0-.4407 0 .0881-.0881.2644-.0881.3525Zm-15.5999 5.2881-.0882.0882h.1763l-.0881-.0882Zm-.0882-.0881c.0882.0881.1763 0 .1763 0h-.1763Z"/>
		<path d="m47.915 28.9214.0882-.0881c-.1763-.1763-.3526-.2644-.5288-.4407 0 .0881-.0882.0881-.0882.0881l-.1762-.1763c-.4407.0882-.617.4407-1.0576.617v-.2644c-.3526-.2644-.7051-.5288-1.0577-.7051-.0881-.1763-.2644-.3525-.3525-.5288-.0881 0-.1763.0881-.2644.0881v-.3525c-.1763.0881-.3526.1763-.5288.1763-.1763-.0882-.4407-.1763-.617-.1763h-.0881c.0881.0881.2644.0881.3525.0881-.0881.1763-.4406.1763-.6169.1763 0 .1763-.0881.4407-.0881.6169.2644.1763.4406.4407.6169.617-.0881.0881-.2644.1763-.3525.2644 0-.0881-.0882-.1763-.0882-.2644-.0881.1763 0 .5288-.2644.5288-.2644-.0881-.2644-.4407-.2644-.7051-.2644 0-.5288 0-.6169.2644h.4406l-.2644.2644c-.0881-.0881-.1762-.0881-.1762-.0881 0 .0881-.1763.0881-.1763.0881.1763.0882.2644.1763.4407.2644-.1763.0882-.2644.1763-.3526.1763.0882.2644.3526.5288.7051.5288l.2644-.2644c-.0881-.1763-.1762-.3525-.1762-.5288.2644 0 .6169 0 .8813.0881-.1763 0-.2644.0882-.4407.0882v.2644c.1763 0 .2644 0 .3526.0881l.0881-.0881v.1762c0 .0882-.0881.1763-.1763.2644.2644 0 .4407-.0881.617.0882-.2644.0881-.4407.1762-.617.3525 0-.0881-.0881-.1763-.0881-.2644-.1763.0881-.2644.1763-.3525.2644h-.3526c.0882.0882.1763.1763.1763.2644-.2644 0-.3526.1763-.3526.3526.1763-.0882.4407-.1763.617-.1763.0881-.2644.3525-.3525.6169-.4407-.0881.1763-.1762.3526-.3525.5288.3525 0 .4407.3526.4407.617.1762 0 .3525.0881.4406.0881.1763-.0881.3526-.2644.4407-.4407h.1763c0-.0881.0881-.3525.1763-.4406.1762-.1763.4406.0881.6169.2644 0-.0882.0881-.0882.1763-.0882 0 .0882.0881.0882.0881.0882v-.2644c.0881.0881.2644.0881.3526.0881l-.2645.2644h.3526v-.1763h.2644c0-.0881.0881-.1762.0881-.2644 0-.0881-.0881-.1762-.1762-.2644-.3526.2644-.7933.2644-1.2339.2644 0-.0881.0881-.1762.0881-.1762.5288 0 .7932-.3526 1.1458-.5289v.1763c.0881 0 .1762-.0881.2644-.0881v-.2644c-.0882 0-.2644-.0882-.2644-.0882 0-.0881-.0882-.1762-.0882-.1762-.2644-.0882-.5288-.1763-.8813-.0882v-.2644c.1762-.1762.3525-.2644.5288-.3525v.2644c.1763.0881.3525.0881.4407.1763 0-.0882.0881-.1763.1762-.1763.1763.1763.4407.3525.617.5288.0881.1763.0881.4407.0881.6169h-.3525v.1763h-.2644c.0881.0882.1762.1763.1762.2644 0 .0882-.0881.1763-.0881.1763.0881.1763.1763.2644.2644.3525-.0881-.1762-.0881-.2644-.0881-.4406.0881.0881.1762.0881.2644.1762.0881-.1762.2644-.3525.4406-.5288-.0881-.0881-.1762-.1763-.1762-.2644.2644-.0881.4406-.1763.6169-.1763-.0881-.0881-.2644-.1762-.3525-.2644v-.3525c.0881 0 .1762.1763.1762.1763l.0882-.0882c.0881 0 .0881.0882.0881.1763.0882-.1763.2644-.2644.1763-.4407-.0881-.1762-.2644-.2644-.3526-.3525Zm-2.9084-1.8508c0 .0881-.0881.0881-.0881.1762h.0881v-.1762Zm.4407-.617v-.1763c0 .0882-.0882.1763-.1763.1763 0-.0881-.0881-.1763-.1763-.1763 0 .0882 0 .2644-.0881.7933.0881-.1763.1763-.3526.1763-.5289.0881 0 .2644-.0881.2644-.0881Z"/>
	</g>
</svg>