<svg xmlns="http://www.w3.org/2000/svg" viewBox="0 0 200 50">
	<path class="bg-logo" fill="#0056A4" d="M0 0h200v50H0z"/>
	<path fill="url(#a)" d="M30.0876 25.7027c.0875 2.6233.9619 5.2467 2.4485 7.5203 1.3117-1.1368 6.9082-1.9238 13.4666-1.9238s12.1549.787 13.4666 1.9238c1.3991-2.2736 2.2736-4.897 2.361-7.6078-2.0112 1.3117-8.3947 2.1862-15.8276 2.1862-7.6952 0-13.9913-.8745-15.9151-2.0987Z"/>
	<path fill="url(#b)" d="M33.6726 34.8848c5.5091 6.7333 15.3904 7.87 22.1237 2.2735.8744-.6995 1.6615-1.4865 2.2736-2.2735-2.2736.787-6.9957 1.3991-12.2424 1.3991-5.2467-.0875-9.9688-.6121-12.1549-1.3991Z"/>
	<path fill="url(#c)" d="M58.1574 14.8588C55.0968 11.0987 50.6371 9 45.8276 9h-.0874c-4.8095 0-9.2693 2.1861-12.2424 5.8588 2.2736-.8744 6.9956-1.3991 12.3298-1.3991 5.3342 0 10.1437.6121 12.3298 1.3991Z"/>
	<path fill="url(#d)" d="M59.3817 16.4336c-1.3117 1.1368-6.8208 2.0112-13.4666 2.0112-6.6459 0-12.2424-.787-13.4666-2.0112-1.3992 2.2736-2.2736 4.8969-2.4485 7.6077 1.9238-1.2242 8.3073-2.1861 15.8276-2.1861 7.5203 0 13.9913.9619 15.8276 2.1861v-.0874c-.0874-2.7108-.8744-5.2467-2.2735-7.5203Z"/>
	<path fill="#fff" d="M92.8732 23.4292h-4.9844v-3.4104h8.3073v-2.4485H84.8282v14.7783h8.1324c3.0606 0 4.5472-.787 4.5472-3.9351v-1.0493c0-3.2355-1.574-3.935-4.6346-3.935Zm1.574 5.0718c0 1.0493-.2623 1.3991-1.9238 1.3991h-4.6346v-3.935h4.7221c1.574 0 1.7489.4372 1.7489 1.3991.0874 0 .0874 1.1368.0874 1.1368Zm-14.8657-4.9844h-7.258v-5.8588h-3.0606V32.436h3.0606v-6.3835h7.258v6.3835h3.0606V17.6578h-3.0606v5.8588Zm75.8155 2.5359h-5.509v-3.7601h-2.886V32.436h2.886v-4.2848h5.509v4.2848h2.798V22.2924h-2.798v3.7601Zm-27.371-2.6233h-4.897v-3.4104h8.308v-2.4485h-11.368v14.7783h8.045c3.06 0 4.547-.787 4.547-3.9351v-1.0493c0-3.2355-1.662-3.935-4.635-3.935Zm1.574 5.0718c0 1.0493-.262 1.3991-1.836 1.3991h-4.635v-3.935h4.722c1.574 0 1.749.4372 1.749 1.3991v1.1368Zm-16.09-10.9307h-11.892v8.832c0 1.8363-.437 2.4485-1.574 3.4978h-1.5743v2.5359h16.3523v-2.5359h-1.312V17.5703Zm-3.06 12.3298h-6.996c.7-1.0493 1.049-1.3991 1.049-2.8857v-6.8207h5.947v9.7064Zm54.828-2.7108 4.285-4.8969h-2.886l-3.41 3.935h-.35l.087-3.935h-2.885V32.436h2.885v-4.2848h.263l3.585 4.2848H170l-4.722-5.2467Zm-24.048-4.8969h-3.497c-2.886 0-3.673 1.1368-3.673 2.6233h2.711c.175-.5246.35-.787 1.399-.787h2.448c1.137 0 1.662.1749 1.662 1.1368v1.9238c-.35-.6121-1.05-.9619-1.662-.8744h-2.885c-2.886 0-3.673.9619-3.673 2.4484v1.3117c0 1.574 1.137 2.2736 3.061 2.2736h3.235c1.137 0 1.399-.3498 1.924-1.0494v1.0494h2.886v-6.5584c0-1.7489-.962-3.4978-3.936-3.4978Zm1.137 7.1705c0 .787-.349 1.0493-1.486 1.0493h-2.536c-1.137 0-1.487-.2623-1.487-1.0493v-.2624c0-.6995.437-.9619 1.487-.9619h2.536c1.049 0 1.486.3498 1.486.9619v.2624Z"/>
  	<radialGradient id="a" cx="0" cy="0" r="1" gradientTransform="matrix(29.8421 0 0 29.842 45.8325 11.684)" gradientUnits="userSpaceOnUse">
  		<stop stop-color="#FAC39D"/>
  		<stop offset=".24" stop-color="#F08436"/>
  		<stop offset=".48" stop-color="#EC6707"/>
  		<stop offset=".73" stop-color="#EC6508"/>
  		<stop offset="1" stop-color="#E74011"/>
  	</radialGradient>
  	<radialGradient id="b" cx="0" cy="0" r="1" gradientTransform="translate(45.8322 11.6844) scale(29.842)" gradientUnits="userSpaceOnUse">
  		<stop stop-color="#FAC39D"/>
  		<stop offset=".24" stop-color="#F08436"/>
  		<stop offset=".48" stop-color="#EC6707"/>
  		<stop offset=".73" stop-color="#EC6508"/>
  		<stop offset="1" stop-color="#E74011"/>
  	</radialGradient>
  	<radialGradient id="c" cx="0" cy="0" r="1" gradientTransform="translate(45.8322 11.6834) scale(29.8421)" gradientUnits="userSpaceOnUse">
  		<stop stop-color="#FAC39D"/>
  		<stop offset=".24" stop-color="#F08436"/>
  		<stop offset=".48" stop-color="#EC6707"/>
  		<stop offset=".73" stop-color="#EC6508"/>
  		<stop offset="1" stop-color="#E74011"/>
  	</radialGradient>
  	<radialGradient id="d" cx="0" cy="0" r="1" gradientTransform="translate(45.8323 11.6842) scale(29.8421)" gradientUnits="userSpaceOnUse">
  		<stop stop-color="#FAC39D"/>
  		<stop offset=".24" stop-color="#F08436"/>
  		<stop offset=".48" stop-color="#EC6707"/>
  		<stop offset=".73" stop-color="#EC6508"/>
  		<stop offset="1" stop-color="#E74011"/>
  	</radialGradient>
</svg>