<svg xmlns="http://www.w3.org/2000/svg" viewBox="0 0 200 50">
	<path class="bg-logo" fill="#930B0F" d="M0 0h200v50H0z"/>
	<path fill="#fff" d="M115.546 9c-.261 0-.462.20334-.462.46448V22.6435c0 .2631.201.4645.462.4645h1.894c.263 0 .465-.2033.465-.4645v-4.7146c0-.2632.201-.4645.462-.4645h7.536c.26 0 .462.2033.462.4645v4.7146c0 .2631.204.4645.465.4645h1.893c.262 0 .463-.2033.463-.4645V9.46448c0-.26314-.201-.46448-.463-.46448h-1.893c-.263 0-.465.20334-.465.46448v4.71462c0 .2612-.202.4625-.462.4625h-7.536c-.261 0-.462-.2013-.462-.4625V9.46448c0-.26314-.204-.46448-.465-.46448h-1.894Zm-13.78.02161c-1.551 0-2.8207 1.26989-2.8207 2.82079h.0021v10.8207c0 .2631.2013.4645.4624.4645h1.8942c.263 0 .464-.2033.464-.4645v-1.8938c0-.2632.201-.4645.463-.4645h7.998c1.551 0 2.82-1.2698 2.82-2.8208v-5.6416c0-1.5509-1.269-2.82079-2.82-2.82079h-8.463Zm.002 3.28529c0-.2631.201-.4645.463-.4645h7.535c.261 0 .463.2033.463.4645v4.7146c0 .2612-.202.4625-.463.4625h-7.535c-.262 0-.463-.2013-.463-.4625v-4.7146Zm29.457-2.82247c0-.26115.202-.46249.463-.46249h1.894c.261 0 .465.20134.465.46249v4.71467c0 .2611.201.4624.462.4624h1.752c.303 0 .585-.1216.766-.3628l4.272-4.91594c.182-.24121.464-.36281.766-.36281h2.802c.08 0 .162.03987.181.1216.04.07974.021.16147-.019.24121l-5.48 6.32734c-.181.2014-.181.5243 0 .7257l5.48 6.3273c.04.0797.059.1615.019.2413-.019.0797-.101.1216-.181.1216h-2.801c-.303 0-.583-.1216-.765-.3629l-4.272-4.9159c-.181-.2412-.465-.3629-.765-.3629h-1.753c-.261 0-.463.2014-.463.4645v4.7146c0 .2612-.2.4645-.464.4645h-1.894c-.261 0-.462-.2013-.462-.4645V9.48443h-.003Zm17.49-.46282c-1.551 0-2.82 1.26989-2.82 2.82079v8.4624c0 1.551 1.269 2.8208 2.82 2.8208h8.463c1.551 0 2.82-1.2698 2.82-2.8208v-8.4624c0-1.5509-1.269-2.82079-2.82-2.82079h-8.463Zm8.463 10.82069c0 .2612-.202.4625-.463.4625h-7.535c-.262 0-.463-.2013-.463-.4625v-7.5354c0-.2631.201-.4645.463-.4645h7.535c.261 0 .463.2033.463.4645v7.5354ZM98.9453 27.777c0-.2512.1935-.4426.4426-.4426h1.8101c.251 0 .443.1934.443.4426v4.5053c0 .2512.193.4425.442.4425h7.201c.251 0 .442-.1933.442-.4425V27.777c0-.2512.194-.4426.443-.4426h1.81c.251 0 .442.1934.442.4426v12.5929c0 .2512-.193.4426-.442.4426h-1.81c-.251 0-.443-.1934-.443-.4426v-4.5053c0-.2512-.193-.4426-.442-.4426h-7.201c-.251 0-.442.1934-.442.4426v4.5053c0 .2512-.194.4426-.443.4426h-1.8101c-.2512 0-.4426-.1934-.4426-.4426V27.777Zm17.7327-.4243c-1.483 0-2.695 1.2121-2.695 2.6953v8.0875c0 1.4832 1.212 2.6953 2.695 2.6953h8.086c1.483 0 2.695-1.2121 2.695-2.6953V30.048c0-1.4832-1.212-2.6953-2.695-2.6953h-8.086Zm8.088 10.3403c0 .2492-.192.4425-.443.4425h-7.201c-.249 0-.442-.1913-.442-.4425v-7.2005c0-.2492.191-.4426.442-.4426h7.201c.249 0 .443.1914.443.4426v7.2005Zm5.389-7.645c0-1.4832 1.213-2.6953 2.695-2.6953h8.086c1.484 0 2.696 1.2121 2.696 2.6953v7.643c0 .2512.193.4426.442.4426h.462c.251 0 .443.1933.443.4425v1.8101c0 .2512-.193.4426-.443.4426h-15.287c-.252 0-.443-.1934-.443-.4426v-1.8101c0-.2512.193-.4425.443-.4425h.462c.251 0 .442-.1934.442-.4426v-7.643h.002Zm3.138 0c-.251 0-.443.1933-.443.4425v7.2005c0 .2512.194.4426.443.4426h7.201c.251 0 .442-.1934.442-.4426v-7.2005c0-.2512-.193-.4425-.442-.4425h-7.201Zm15.924-2.6953c-1.483 0-2.695 1.2121-2.695 2.6953h.001v10.3402c0 .2492.192.4426.443.4426h1.81c.25 0 .443-.1914.443-.4426v-1.8101c0-.2492.191-.4426.442-.4426h7.201c.249 0 .443.1914.443.4426v1.8101c0 .2492.191.4426.442.4426h1.81c.25 0 .443-.1914.443-.4426V30.048c0-1.4832-1.212-2.6953-2.695-2.6953h-8.088Zm0 3.1378c0-.2492.191-.4425.443-.4425h7.2c.249 0 .443.1913.443.4425v4.5053c0 .2492-.192.4425-.443.4425h-7.2c-.25 0-.443-.1914-.443-.4425v-4.5053Z"/>
	<path fill="#fff" d="M137.23 33.0543V31.912c0-.1575.128-.285.285-.285h.57c.158 0 .285.1275.285.285v1.1423c0 .1575-.127.2851-.285.2851h-.57c-.157.0019-.285-.1276-.285-.2851Z"/>
	<path fill="#540608" d="M82.9289 36.8337H47.0727c-1.6269 0-2.9472-1.3203-2.9472-2.9472V11.9472C44.1255 10.3204 45.4458 9 47.0727 9h35.8562c1.6268 0 2.9472 1.3204 2.9472 2.9472v21.9393c0 1.6269-1.3204 2.9472-2.9472 2.9472Z"/>
	<path fill="#fff" d="M78.8033 40.9587H42.9472c-1.6268 0-2.9472-1.3203-2.9472-2.9472V16.0722c0-1.6268 1.3204-2.9472 2.9472-2.9472h35.8561c1.6269 0 2.9473 1.3204 2.9473 2.9472v21.9393c0 1.6269-1.3204 2.9472-2.9473 2.9472Z"/>
</svg>