<svg xmlns="http://www.w3.org/2000/svg" viewBox="0 0 200 50">
	<path class="bg-logo" fill="#363584" d="M0 0h200v50H0V0Z"/>
	<g fill="#fff">
		<path d="M69.4 20.9h-1.6s-.2 0-.2.2v2.7s0 .1-.1.1h-2.6s-.1 0-.1-.1v-2.7s0-.2-.2-.2H63s-.2 0-.2.2v7.3s0 .2.2.2h1.6s.2 0 .2-.2v-2.8s0-.1.1-.1h2.6s.1 0 .1.1v2.7s0 .2.2.2h1.6s.2 0 .2-.2V21s0-.2-.2-.2ZM76.5 20.9h-.1l-2.8 3.2v-3s0-.2-.2-.2h-1.5s-.2 0-.2.2v7.3s0 .2.2.2h1.5s.2 0 .2-.2v-1.9l.3-.3h.2l2.2 2.4h2.1c.1 0 .2-.1.1-.2l-3.3-3.5v-.1l3.3-3.6s0-.2-.1-.2h-1.9ZM89.1 20.9h-1.6s-.2 0-.2.2v2.7s0 .1-.1.1h-2.6s-.1 0-.1-.1v-2.7s0-.2-.2-.2h-1.6s-.2 0-.2.2v7.3s0 .2.2.2h1.6s.2 0 .2-.2v-2.8s0-.1.1-.1h2.6s.1 0 .1.1v2.7s0 .2.2.2h1.6s.2 0 .2-.2V21s0-.2-.2-.2ZM114.5 22.5c.7 0 1.3.3 1.7.7h.3l1-.9v-.2c-.7-.7-1.8-1.1-3-1.1-2.6 0-4.2 1.8-4.2 3.9s1.6 3.9 4.2 3.9 2.3-.4 3-1.1v-.2l-1-.9h-.3c-.4.4-1 .7-1.7.7-1.4 0-2.3-1.1-2.3-2.3s.9-2.3 2.3-2.3ZM133.8 22.6s.2 0 .2-.2v-1.2s0-.2-.2-.2h-5.5s-.2 0-.2.2v7.3s0 .2.2.2h5.5s.2 0 .2-.2v-1.2s0-.2-.2-.2H130v-1.6h3.1s.2 0 .2-.2v-1.2s0-.2-.2-.2H130v-1.6h3.8ZM116.5 10c.3 0 .9 0 1.5-.1.5 0 1.2 0 1.4-.1h3c.9 0 1.4-.1 1.4-.1s.2-.4.5-.8.5-.9.6-1c0-.2.2-.4.3-.5 0-.1.1-.2.1-.2s.6 1 1.3 2.1c0 .2.1.2.2.3h2.4c1 0 1.4.1 2.9.2.7 0 1.4 0 1.9.1 2.7.2 3.8.3 3.8.3s0-.1-.3-.4c-.6-.5-1.5-1-2.8-1.7-3.4-1.7-6.5-2.4-10.3-2.3-2.2 0-4.1.4-6.4 1.3-1 .4-2.8 1.2-3.9 1.9-.8.5-1.6 1.1-1.5 1.1 0 0 1.2 0 3.8-.2ZM110.6 12.9c.5 0 .7-.1 1.8-.3 1.1-.2 1.7-.3 2.6-.4.3 0 1.6-.2 2.1-.3 1.3-.2 3.2-.3 4.6-.4h.8l.3-.6c.2-.3.3-.6.3-.6h-.6c-2 0-4.1.3-5.8.6-.6 0-.7.1-1.1.2-.7.1-1 .2-2 .4-1.9.5-3.3 1-3.8 1.4-.2.2-.2.2.7 0ZM136.1 11.2s-.4 0-.6-.1c-.3 0-.6-.1-.7-.1-.5 0-1-.2-1.4-.2h-1.6c-.8 0-2.6-.2-3.4-.3H127.5s.6 1.1.7 1.2c0 0 .4 0 1.6.1 1.6.1 3.1.3 4.7.5.9.1 1.4.2 3.2.5.9.1 1.9.3 2.2.4.3 0 .7.1.8.1h.3s-.2-.3-.5-.4c-.6-.3-1.4-.6-2.3-.9-.3 0-.6-.2-.6-.2-.2 0-1.1-.3-1.3-.3ZM108.2 15.9h.6c.2 0 1.3-.4 1.7-.5.5-.1 1.8-.4 2.6-.6 1.3-.2 1.9-.3 3.4-.5 1.1-.2 2.7-.3 3.7-.3h1.1l.3-.4c.4-.6.6-1.1.6-1.1h-.2s-.5 0-.9.1c-2.8.3-5.2.7-6.8 1h-.4c-.4 0-1 .2-1.1.3 0 0-.3 0-.6.2-1.5.4-2.7.9-3.5 1.4-.3.2-.7.5-.7.6s.2 0 .3 0ZM138.2 13.7c-.4 0-1.5-.4-1.8-.4 0 0-.3 0-.5-.1-.2 0-.5 0-.6-.1s-.3 0-.4 0c-1.5-.3-3-.5-5-.7-.6 0-1.2-.1-1.3-.1h-.1s.8 1.4.9 1.5h.8c1.4 0 2.3.1 3.7.3 1.5.2 3.9.6 5.2.9.2 0 .5.1.6.1.1 0 .5.1.8.2 1.1.3 1.9.5 2.1.5 0 0-.4-.4-.7-.6-.6-.4-1.8-.9-3.2-1.3-.3 0-.3 0-.7-.2ZM112 19.3h5.7c.6-1 .7-1.1 2.7-4.4H119c-1.3.1-2.8.4-4.6.7-.3 0-.7.1-.8.2h-.4c-.1 0-.4 0-.5.1-.4 0-.6.1-1.1.3-.3 0-1 .3-1.4.4-1.1.4-2 .8-2.8 1.4-.3.2-1.2 1.1-1.2 1.2s1.6 0 5.7 0ZM133 15c-.7 0-.8-.1-1.3-.2h-1.4c1.4 2.4 2 3.3 2.7 4.4h11.4s-.7-.8-1.1-1.1c-1.3-1-3.2-1.7-5.8-2.3-1.4-.3-3.2-.6-4.4-.8ZM58 21l-3.3 7.4c0 .1 0 .2.2.2h1.6s.1 0 .2-.1l.3-.7h2.3l.3.7s0 .1.2.1h1.6c.1 0 .2-.1.2-.2L58.3 21c0-.2-.4-.2-.5 0Zm.9 5.4h-1.3l.7-2 .7 2ZM53.8 25.5c-.2-.6-.5-.9-1-1.2-.6-.3-1-.3-2.1-.4H50s-.1 0-.1-.1v-1.2s0-.1.1-.1h3.3s.2 0 .2-.2v-1.2s0-.2-.2-.2h-5.1s-.2 0-.2.2v7.2s0 .2.2.2h1.4c1.4 0 1.8 0 2.3-.1 1-.2 1.6-.7 1.9-1.6 0 0 .1-.3.1-.7s0-.5-.1-.7Zm-2 1.3c-.2.2-.4.2-1.2.2h-.7s-.1 0-.1-.1v-1.3s0-.1.1-.1H51.1c.6 0 .9.3.9.8s0 .4-.3.5ZM112.8 33.5c.2 0 .4 0 .5.1h.4c.1 0 .4 0 .8.2 1.9.4 3.2.6 4.5.7h1.4v-.2s-.4-.7-.9-1.4c-.4-.7-.9-1.4-1-1.6s-.3-.5-.5-.8l-.3-.5h-11.4s.6.7.9.9c1 .8 2.7 1.6 4.5 2.1.5.1.7.2 1.1.3ZM138.6 30.2h-5.8c0 .3-.9 1.6-1.4 2.5-.2.2-.5.8-.7 1.2-.3.4-.5.8-.5.8h1.4c1-.1 2.3-.3 3.5-.5 1.3-.2 1.9-.4 2.8-.6 2.3-.6 4-1.3 5.2-2.2.4-.3 1.1-1 1.1-1.1s-.6 0-5.7 0ZM112.6 35.7c.1 0 .7.2 1.1.3h.4c1.6.4 4.1.7 6.9 1 .5 0 .9 0 1 .1h.1s-.3-.5-.6-1.1l-.3-.4h-1.1c-1 0-2.5-.2-3.7-.3-1.5-.2-2.1-.3-3.4-.5-.8-.1-2.1-.4-2.6-.6-.4-.1-1.5-.4-1.7-.5H107.8s.4.4.7.6c.7.5 2 1 3.5 1.4.3 0 .6.2.6.2ZM142.2 33.7c-.2 0-.5.1-.5.1-.4.1-1.7.5-1.8.5-.1 0-.4 0-.6.1-1.3.3-3.7.7-5.2.9-1.4.2-2.4.3-3.7.3h-.8c-.1.1-.9 1.5-.9 1.5h.1s.6 0 1.3-.1c1.9-.2 3.5-.4 5-.7h.2c.1 0 .4 0 .6-.1.3 0 1.4-.3 1.8-.4.4-.1.5-.1.7-.2 1.4-.4 2.5-.9 3.2-1.3.3-.2.7-.5.7-.6s-.2 0-.6 0ZM115.7 38.4c.4 0 .5 0 1.1.2.5 0 1.4.2 2 .3 1 .1 2.6.2 3.6.3H123.3s-.5-.9-.6-1.1l-1.6-.2c-2.5-.2-4-.3-8.5-1.1-1.3-.2-1.5-.2-1.7-.3h-.8s.4.3.6.5c.7.4 1.8.7 3.3 1.1.9.2 1.3.3 2 .4ZM140.5 36.5s-.4 0-.7.1c-.3 0-1.5.2-2.6.4h-.4c-1.6.3-1.9.4-2.2.4H134.3c-1.8.3-3 .4-4.6.5-1.2 0-1.6.1-1.6.1s-.7 1.1-.7 1.2 0 0 .2 0h.7c.8 0 2.7-.2 3.4-.3h.7c.3 0 .6 0 1.1-.1.9-.1 1.8-.3 2.7-.5.2 0 .4 0 .5-.1h.3c.1 0 .3 0 .5-.1 1.2-.3 2-.6 2.7-.9.3-.2.7-.4.7-.5s-.1 0-.4 0Z"/>
		<path d="M133.2 39.5H127s-.1.1-.2.3c-.5.9-1.3 2.1-1.3 2.1l-.1-.2c0-.1-.2-.3-.3-.5s-.4-.6-.6-1c-.3-.4-.5-.8-.5-.8s-.5 0-2.4-.2h-2c-.5 0-1.1 0-1.9-.1-.3 0-1.4-.1-2.4-.2-1.1 0-2-.1-2.2-.2h-.2c0 .1 1 .9 2.1 1.5 1.6.9 3.3 1.6 4.9 2 1.9.5 3.5.7 5.6.7 2 0 3.5-.2 5.1-.6 1.5-.4 2.7-.9 4.3-1.6l1.4-.7c.9-.5 1.9-1.2 1.7-1.3 0 0-1.4 0-4.8.3ZM144.7 21c0-.2-.4-.2-.5 0l-3.3 7.4c0 .1 0 .2.2.2h1.6s.1 0 .2-.1l.3-.7h2.3l.3.7s0 .1.2.1h1.6c.1 0 .2-.1.2-.2l-3.3-7.4Zm.4 5.4h-1.3l.7-2 .7 2ZM95.1 20.9c-2.6 0-4.2 1.8-4.2 3.9s1.6 3.9 4.2 3.9 4.2-1.8 4.2-3.9-1.6-3.9-4.2-3.9Zm0 6.3c-1.4 0-2.3-1.1-2.3-2.3s.9-2.3 2.3-2.3 2.3 1.1 2.3 2.3-.9 2.3-2.3 2.3ZM108.9 24.8c0-2.1-1.6-3.9-4.2-3.9s-4.2 1.8-4.2 3.9 1.6 3.9 4.2 3.9 4.2-1.8 4.2-3.9Zm-4.2 2.4c-1.4 0-2.3-1.1-2.3-2.3s.9-2.3 2.3-2.3 2.3 1.1 2.3 2.3-.9 2.3-2.3 2.3ZM122 28.7h1.5s.2 0 .2-.2v-.8h.3c1.6 0 2.9-1.3 2.9-2.9s-1.3-2.9-2.9-2.9h-.3v-.7s0-.2-.2-.2H122s-.2 0-.2.2v.7h-.3c-1.6 0-2.9 1.3-2.9 2.9s1.3 2.9 2.9 2.9h.3v.8s0 .2.2.2Zm1.7-5.4c.8 0 1.3.7 1.3 1.5s-.6 1.4-1.3 1.5v-3Zm-3.2 1.5c0-.8.6-1.4 1.3-1.5v3c-.8 0-1.3-.7-1.3-1.5ZM137.1 21h-1.7v7.5s0 .2.2.2h1.5s.2 0 .2-.2v-2.9h1.7c1.3 0 2.3-1 2.3-2.3s-1-2.3-2.3-2.3h-1.8Zm2.3 2.3c0 .4-.3.7-.7.7h-1.4v-1.5h1.4c.4 0 .7.3.7.7Z"/>
	</g>
</svg>