<svg xmlns="http://www.w3.org/2000/svg" viewBox="0 0 200 50">
	<path class="bg-logo" fill="#0100A0" d="M0 0h200v50H0z"/>
	<path fill="#fff" d="M40.0173 21.4701V37.74c-.2099.0185-.3864.0457-.5629.0469-1.2749.0037-2.5499-.0185-3.8249.0124-.4888.0123-.6319-.142-.6282-.6271.0209-2.4677.0098-4.9353.0098-7.4042.0013-5.2846.0099-10.5705-.0111-15.8564-.0024-.5826.1457-.79.7505-.7666 1.1503.0457 2.3031.0346 3.4534.0025.4579-.0123.7554.1383 1.0479.4839 4.2211 4.9945 8.4546 9.978 12.6844 14.9639.1937.2284.3925.453.738.6382V13.9672c0-.8074.0025-.8086.8122-.8086 1.1306-.0012 2.2624.0161 3.3929-.0074.4357-.0086.6221.0951.6209.5777-.0124 7.856-.0111 15.7132-.0037 23.5692 0 .3864-.1111.5641-.5221.5592-1.1726-.0148-2.3451.021-3.5152-.0235-.2579-.0098-.5727-.2111-.7504-.4184-4.4001-5.1119-8.7854-10.236-13.1744-15.3565-.1296-.1543-.2654-.3036-.5171-.5888ZM113.5 37.8548v-2.5503c-1.279 1.5134-2.85 2.2405-4.612 2.6022-4.143.8505-8.557-1.032-10.8326-4.6094-4.3618-6.8561-.1012-15.712 7.9976-16.5168 2.561-.2543 4.977.3481 7.155 2.0344v-7.8141c1.458 0 2.83-.0061 4.202.0149.097.0012.234.1925.276.3209.05.1481.019.3247.019.4901v25.1727c0 .853-.003.8542-.838.8554-1.104.0013-2.208 0-3.367 0Zm-12.565-10.4297c-.006 3.37 2.691 6.0919 6.038 6.0956 3.373.0037 6.071-2.6738 6.092-6.0463.021-3.3724-2.667-6.1092-6.014-6.1215-3.416-.0124-6.11 2.6626-6.116 6.0722Zm24.938 3.2293c1.621 2.9528 6.143 4.7057 9.656 1.4467.459-.4258.776-1.0023 1.194-1.4788.131-.1481.408-.3136.563-.2716 1.244.3382 2.476.7259 3.904 1.1554-.552.8975-.966 1.7974-1.578 2.5331-2.931 3.5132-6.704 4.8798-11.13 3.7564-4.443-1.1283-7.169-4.1502-7.888-8.6682-.981-6.1525 3.213-11.4902 9.172-12.2901 6.177-.8295 10.83 3.47 11.915 8.8225.093.4605-.003.6777-.513.8148-4.894 1.3122-9.779 2.659-14.667 3.9959-.196.053-.39.1135-.628.1839Zm10.447-6.8388c-.878-2.001-3.772-3.8774-7.056-2.6973-2.542.9123-4.704 3.8823-4.115 5.7698 3.718-1.0233 7.44-2.0455 11.171-3.0725Zm24.458 14.0392v-2.717c-.878.6617-1.706 1.4925-2.698 1.9986-3.363 1.7122-6.646 1.1789-9.694-.7987-3.727-2.417-5.487-6.7882-4.616-11.0334.877-4.2749 4.237-7.6004 8.599-8.3991 5.625-1.0308 11.233 2.5306 12.388 8.5176.143.7419.223 1.5085.228 2.264.022 3.1478-.006 6.2956.015 9.4422.004.5654-.165.7555-.734.737-1.146-.0371-2.292-.0112-3.488-.0112Zm-.448-10.4125c.003-3.3786-2.681-6.0845-6.043-6.0894-3.404-.005-6.091 2.6898-6.086 6.1043.004 3.3367 2.699 6.0549 6.008 6.0635 3.411.0087 6.117-2.6787 6.121-6.0784ZM71.8682 16.7299c5.8948.0024 10.7022 4.8229 10.696 10.7272-.0049 5.8883-4.8308 10.6903-10.7392 10.6891-5.9083-.0013-10.6799-4.7995-10.6713-10.7323.0086-5.9314 4.7765-10.6865 10.7145-10.684Zm.0074 4.6254c-3.3806-.0086-6.0873 2.6602-6.1058 6.0216-.0185 3.3836 2.6549 6.1265 5.9886 6.1438 3.3868.0173 6.1391-2.6849 6.1688-6.0574.0308-3.3219-2.7228-6.0994-6.0516-6.108Zm17.9794-1.8269c1.607-2.3911 4.2804-2.9664 5.9849-2.7343 0 1.3406.0123 2.6923-.021 4.044-.0025.1259-.2752.3074-.4517.3543-.532.1432-1.0985.1753-1.6169.3543-2.1649.7468-3.2831 2.3639-3.6398 4.5563-.1012.6246-.1296 1.2665-.1321 1.901-.0111 3.0022-.0024 6.0044-.0012 9.0065v.7863h-4.7124c-.0123-.232-.0333-.4481-.0333-.6653-.0012-6.3537.0062-12.7073-.0148-19.061-.0025-.5851.1814-.7333.7319-.7135 1.0676.037 2.139.0444 3.2066-.0025.59-.0259.7591.1914.7085.7419-.0408.4259-.0087.8567-.0087 1.432Z"/>
</svg>