<svg xmlns="http://www.w3.org/2000/svg" viewBox="0 0 200 50">
	<path class="bg-logo" fill="#005BAA" d="M0 0h200v50H0z"/>
	<path fill="#fff" d="M98.6008 15.704c-1.1119 1.1031-2.5066 1.6549-4.1835 1.6549-1.6728 0-3.0628-.547-4.1659-1.6457-1.1032-1.0988-1.6549-2.4441-1.6549-4.0316 0-1.5782.5561-2.92355 1.6728-4.02668C91.3812 6.55178 92.776 6 94.4528 6c1.6729 0 3.0629.54697 4.166 1.64572 1.1031 1.09875 1.6552 2.44408 1.6552 4.03148 0 1.5831-.5565 2.9236-1.6732 4.0268Zm-4.652-.6066c.1624.0219.3306.0329.504.0329.9643 0 1.7535-.332 2.3679-.9959.6188-.6634.924-1.4841.924-2.4572 0-.4519-.0692-.8714-.2071-1.2581-.1564-.43837-.4012-.83513-.7349-1.19028-.6275-.66828-1.4215-1.0046-2.3854-1.0046-.9643 0-1.7534.33194-2.3678.9954-.6188.66389-.924 1.48458-.924 2.45758 0 .9639.314 1.7802.9419 2.4485.381.4055.8229.6888 1.327.8487.1769.056.3617.0972.5544.123ZM78 17.1706V6.18393h2.4169v4.34557h4.4576V6.18393h2.4169V17.1706h-2.4169v-4.4082h-4.4576v4.4082H78Zm23.677-10.98667V17.1618h5.22c1.278 0 2.283-.2557 3.014-.7672.731-.5111 1.098-1.2599 1.098-2.2422 0-.7129-.17-1.2822-.515-1.704-.234-.2842-.543-.5342-.928-.7466-.075-.0412-.153-.081-.233-.1196-.12-.0565-.245-.1103-.377-.1607.963-.5426 1.443-1.3317 1.443-2.36742 0-.76242-.251-1.39479-.753-1.89708-.076-.07577-.155-.14671-.238-.21327-.051-.04117-.104-.08058-.159-.11824-.206-.14233-.435-.26101-.686-.35604-.505-.19049-1.101-.28552-1.787-.28552h-5.099Zm4.583 4.44407h-2.228V8.30523h2.385c.511 0 .902.09854 1.175.29122.274.19269.408.47077.408.83863 0 .79352-.578 1.19292-1.74 1.19292Zm.642 4.4261h-2.875v-2.4174h2.794c1.193 0 1.789.3994 1.789 1.1929 0 .8163-.569 1.2245-1.708 1.2245Zm14.838 2.1209h-2.385V9.97329l-4.803 7.20171h-2.273V6.18831h2.385v7.20649l4.83-7.20649h2.246V17.175ZM78 19.5787v10.9867h2.4217v-3.3589l1.2691-1.3182 3.408 4.6727H88l-4.677-6.3232 4.4707-4.6591h-2.9192l-4.4576 4.8027v-4.8027H78Zm19.5336 9.5201c-1.1119 1.1031-2.5067 1.6549-4.1835 1.6549-1.6729 0-3.0628-.547-4.166-1.6458-1.1031-1.0987-1.6549-2.444-1.6549-4.0315 0-1.5783.5562-2.9236 1.6729-4.0267 1.1119-1.1031 2.5067-1.6549 4.1835-1.6549 1.6729 0 3.0628.547 4.166 1.6457 1.1031 1.0988 1.6549 2.4441 1.6549 4.0315 0 1.5783-.5562 2.9236-1.6729 4.0268Zm-6.5378-1.5783c.6276.6682 1.4215 1.0046 2.3854 1.0046.9643 0 1.7535-.332 2.3679-.9959.6188-.6634.9236-1.4841.9236-2.4572 0-.9643-.3136-1.7801-.9416-2.4484-.628-.6683-1.4215-1.0046-2.3858-1.0046-.9639 0-1.7534.332-2.3674.9954-.6192.6639-.924 1.4846-.924 2.4576.0043.9639.3183 1.7802.9419 2.4485Zm12.1292-7.9418h-2.605v10.9867h2.368v-7.1255l3.067 4.6455h.063l3.09-4.6906v7.1706h2.399V19.5787h-2.605l-2.888 4.646-2.889-4.646ZM80.4169 35.1929v1.9146h2.9017c.5999 0 1.1342.0731 1.6024.2203.3411.1068.6468.2535.9174.4392.1156.0793.2247.166.3276.2597.677.61 1.0133 1.4395 1.0133 2.4892 0 1.1075-.363 1.9684-1.0808 2.5737-.7217.6056-1.7263.9104-3.0133.9104H78V33.0134h8.4261v2.1795h-6.0092Zm2.6547 3.9238h-2.6499v2.6994h2.6679c1.121 0 1.6772-.4664 1.6772-1.3948 0-.8697-.5649-1.3046-1.6952-1.3046Zm9.1841-6.1839-4.7085 11.0628h2.462l1.0046-2.462h4.6499l1.0046 2.462h2.5246l-4.7086-11.0628h-2.2286Zm2.5383 6.4664h-2.9192l1.4617-3.5604 1.4575 3.5604Zm5.726 4.5964V33.009h2.417v4.3455h4.458V33.009h2.417v10.9866h-2.417v-4.4081h-4.458v4.4081h-2.417Zm11.225-10.9866v10.9822h2.426v-3.3588l1.269-1.3186 3.403 4.6774h2.902l-4.677-6.3231 4.47-4.6591h-2.919l-4.457 4.8027V33.009h-2.417Z"/>
</svg>