<svg xmlns="http://www.w3.org/2000/svg" viewBox="0 0 200 50">
	<path class="bg-logo" fill="#1971C0" d="M0 0h200v50H0z"/>
	<g fill="#fff">
		<path d="M51.6501 34.0354h3.6568v-6.3501h5.967v6.3501h3.6567v-15.297h-3.6567v5.7733h-5.967v-5.7733h-3.6568v15.297Zm24.1507.3836c4.9146 0 7.9739-3.3459 8.3705-8.0806 0-4.7299-3.7406-8.0806-8.3705-8.0806-4.6281 0-8.2734 3.2736-8.2734 7.9831 0 4.6208 3.6445 8.1781 8.2734 8.1781Zm0-3.3668c-2.6833 0-4.2369-2.3022-4.2369-4.81 0-2.4218 1.6668-4.6167 4.2369-4.6167 2.5329 0 4.237 2.136 4.237 4.6167 0 2.4694-1.5658 4.81-4.237 4.81Zm10.777 2.9832h6.0602c.5768 0 1.1532 0 1.7334-.0966 2.2939-.3843 4.0437-1.9179 4.0437-4.3302 0-1.8678-1.439-3.219-3.1765-3.5567 1.5566-.6265 2.5001-1.6022 2.5001-3.3702 0-2.9499-2.6442-3.9433-5.1969-3.9433h-6.0603v15.297h.0963Zm3.5567-2.9832v-3.4635h2.0199c.7269 0 1.6199.0699 2.1535.64.35.3733.4399.9502.2733 1.4333-.1632.4832-.5565.8701-1.0201 1.0901-1.4732.4157-2.6687.3001-3.4266.3001Zm0-6.2535v-3.1736h1.8266c.7701 0 1.347.0966 1.7335.3831.3831.2899.5768.5768.5768 1.1532s-.1933.9634-.5768 1.2499c-.3832.2899-.9634.3831-1.6368.3831h-1.9233v.0043Zm18.3775 9.6203c4.914 0 7.974-3.3459 8.37-8.0806 0-4.7299-3.74-8.0806-8.37-8.0806-4.628 0-8.274 3.2737-8.274 7.9831 0 4.6209 3.644 8.1781 8.274 8.1781Zm0-3.3668c-2.683 0-4.237-2.3024-4.237-4.81 0-2.422 1.667-4.6167 4.237-4.6167 2.57 0 4.237 2.1661 4.237 4.6167 0 2.4695-1.566 4.81-4.237 4.81Zm10.777 2.9832h6.06c2.881 0 5.77-1.509 5.77-4.7167 0-3.3042-2.804-4.7167-5.77-4.7167h-2.407v-2.8799h7.024v-2.9837h-10.777v15.297h.1Zm3.657-2.9832v-3.5601h2.019c1.236 0 2.504.3959 2.504 1.8266 0 1.3787-1.2 1.8267-2.406 1.8267h-2.02l-.097-.0932Zm8.753 2.9832h4.04l1.154-2.9832h5.967l1.153 2.9832h4.137l-6.351-15.297h-3.56l-6.447 15.297h-.093Zm6.16-5.9631 1.924-5.2902 1.923 5.2902h-3.847Zm11.447 5.9631h3.657v-6.3501h5.967v6.3501h3.657v-15.297h-3.657v5.7733h-5.967v-5.7733h-3.657v15.297Zm16.551 0h3.656v-7.0231l5.677 7.0236H180l-7.024-8.2735 6.64-7.0235H175l-5.483 6.2534h-.097v-6.2539h-3.657v15.297h.094Z"/>
		<path d="M25.769 17.6803c-2.2132 1.9267-3.2736 3.5601-4.6201 6.0637-1.6368 3.9432-1.8266 8.4671 1.4436 11.547 9.3334 6.64 22.2239-10.2938 14.6235-16.357-2.79-1.5402-7.6004.1933-10.2001 2.79 3.1799-2.4069 11.5102-4.2967 8.087 3.5567-4.9134 11.2703-17.7039 4.4269-7.1203-8.657.0967-.1932 2.02-2.5967-2.1165 1.0566h-.0971Zm2.6938-10.58367c-.0966-.18987-2.5132 1.04684-3.1769 1.6368-1.3703 1.22358-4.3501 4.84687-1.9233 6.35017.9531.5899 6.2501-.2234 8.9468-.4802 9.1304-.8735 12.4104 1.0566 8.1768 4.6167 5.967-1.8267 9.6204-9.81364 2.6934-10.87362-5.2867-.2865-13.0804 1.54017-14.8138 1.25367-1.1532-.19326-1.3469-.48316-.7701-1.6368.1933-.2899.9633-.77009.8667-.96335l.0004.09663Z"/>
	</g>
</svg>