<svg xmlns="http://www.w3.org/2000/svg" viewBox="0 0 200 50">
	<path class="bg-logo" fill="#FF0508" d="M0 0h200v50H0z"/>
	<path fill="#fff" d="M40 22.5039v14.7753h38.3952V13.6426H54.7744v8.8613H40Zm7.7137 10.1055h.3191l1.5468-6.7901h2.8213v8.2241h-1.4666v-6.7901h-.3191l-1.4983 6.7901h-2.4864l-1.4666-6.7901h-.3191v6.7901h-1.4666v-8.2241h2.8213l1.5142 6.7901Zm20.3535 1.434h-5.1481v-8.2241h5.1481v1.4349h-3.6497v1.9284h3.1394v1.3696h-3.1394v2.0563h3.6497v1.4349Zm-12.8618-4.1116c0 1.6252.7809 2.8847 2.4546 2.8847 1.6738 0 2.4546-1.2595 2.4546-2.8847s-.7808-2.8847-2.4546-2.8847c-1.6737 0-2.4546 1.2595-2.4546 2.8847Zm-1.5301-.0327c0-2.5498 1.4667-4.2869 3.9847-4.2869 2.5181 0 3.9847 1.7371 3.9847 4.2869 0 2.5508-1.4666 4.3514-3.9847 4.3514-2.518 0-3.9847-1.8016-3.9847-4.3514Zm17.022 4.1443h-1.5936l2.4547-4.3523-2.2951-3.8727h1.5935l1.7054 2.9323 1.6738-2.9323h1.5935l-2.3912 3.9212 2.5498 4.3038h-1.5935L72.482 30.792l-1.7847 3.2514ZM160 19.8527V13.669h-1.338l-2.794 4.7909V13.669h-1.061v6.1837h1.329l2.807-4.8085v4.8085H160Zm-2.635-7.3312c-.393 0-.647-.1763-.685-.5215h-.863c.012.78.551 1.2073 1.547 1.2073.997 0 1.553-.4264 1.566-1.2073h-.862c-.038.3443-.306.5215-.703.5215Zm-46.18 1.0617c1.721-.0215 2.98 1.2287 2.963 3.1776.016 1.9491-1.242 3.1992-2.963 3.1778-1.725.0214-2.988-1.2287-2.966-3.1778-.023-1.9489 1.241-3.1991 2.966-3.1776Zm.043 5.4112c1.125 0 1.863-.8452 1.863-2.2336 0-1.3882-.737-2.2334-1.863-2.2334h-.086c-1.126 0-1.864.8452-1.864 2.2334 0 1.3884.737 2.2336 1.864 2.2336h.086ZM83.3681 13.669h-1.0607v6.1837h1.0607v-2.6179h2.8801v2.6179h1.0608V13.669h-1.0608v2.617h-2.8801v-2.617Zm6.4188 4.6704h2.7467l.5868 1.5133h1.113l-2.4023-6.1837h-1.281l-2.449 6.1837h1.1037l.5821-1.5133Zm1.3706-3.562 1.0094 2.6132h-2.0143l1.0049-2.6132Zm8.7428 6.3694v-1.2941h-4.8514V13.669h1.0608v5.2396h2.8119V13.669h1.0561v5.2396h.9393l.009 2.2382h-1.0257Zm7.1607-1.2941V13.669h-1.336l-2.794 4.7908V13.669h-1.061v6.1837h1.327l2.808-4.8085v4.8085h1.056Zm9.309-6.1837h-1.061v6.1837h1.061v-2.6179h2.88v2.6179h1.061V13.669h-1.061v2.617h-2.88v-2.617Zm9.165 4.6704h-2.746l-.583 1.5133h-1.103l2.449-6.1837h1.281l2.402 6.1837h-1.113l-.587-1.5133Zm-.366-.9488-1.01-2.6132-1.005 2.6132h2.015Zm2.702 1.4834-.436.0047h-.001v.975h.552c.548 0 .949-.125 1.204-.3797.254-.2547.406-.5916.444-1.0095.03-.3107.056-.793.077-1.4489.022-.6559.035-1.2166.035-1.6822v-.7155h2.285v5.2339h1.061v-6.1837h-4.363v1.656c0 .4964-.009 1.0012-.026 1.5095-.008.3193-.02.5942-.034.825-.008.1374-.017.2593-.027.3656-.051.6689-.276.8322-.771.8498Zm9.384.9787h-2.652V13.669h1.061v2.3203h1.582c1.38 0 2.036.7715 2.036 1.8846.009 1.0048-.642 1.9965-2.027 1.9788Zm-.125-2.9453h-1.466v2.0012h1.517c.668 0 1.04-.3919 1.04-1.0086.001-.6521-.362-.9926-1.091-.9926Zm4.245-3.2384h-1.061v6.1837h1.061v-2.6179h2.881v2.6179h1.061V13.669h-1.061v2.617h-2.881v-2.617Zm8.105 6.1837h-2.652V13.669h1.061v2.3203h1.582c1.38 0 2.036.7715 2.036 1.8846.009 1.0048-.643 1.9965-2.027 1.9788Zm-.125-2.9453h-1.466v2.0012h1.518c.668 0 1.039-.3919 1.039-1.0086-.001-.6521-.363-.9926-1.091-.9926Zm3.942-3.2384v6.1837h-1.061V13.669h1.061Zm-70.9887 8.7205h2.7074c1.1644-.013 1.9966.7249 1.9835 1.9144.0131 1.1905-.8191 1.9275-1.9835 1.9191h-1.6466v2.3502h-1.0608v-6.1837Zm2.5731 2.8847c.6857 0 1.0608-.3619 1.0608-.9703 0-.6082-.3751-.9656-1.0608-.9656h-1.5133v1.9368h1.5133v-.0009Zm3.6712 1.7857h2.7466l.5878 1.5133h1.1121l-2.4024-6.1837h-1.2809l-2.449 6.1837h1.1037l.5821-1.5133Zm1.3715-3.562 1.0085 2.6132h-2.0133l1.0048-2.6132Zm6.3012-1.1942c1.4667-.0131 2.4752.8835 2.5442 2.0823h-1.0608c-.056-.3536-.2155-.6297-.4702-.8322-.2547-.2024-.5738-.3059-.9656-.3059h-.0905c-1.1121-.0169-1.8501.918-1.837 2.2334-.0131 1.3156.7249 2.2513 1.837 2.2336h.0905c.3928 0 .7156-.099.9703-.2977.2547-.2024.4095-.4786.4655-.8368h1.0608c-.0737 1.2203-1.0738 2.0954-2.5442 2.0786-1.8193.0168-2.9538-1.3201-2.9369-3.1777-.0159-1.85 1.1176-3.1991 2.9369-3.1776Zm5.0817 4.0061h1.994v2.2634h1.061v-6.1837h-1.061v2.9771h-1.674c-.725 0-.936-.2286-.936-.8845l-.004-2.0917h-1.061l.0084 2.5657c.0037.9265.5296 1.3537 1.6726 1.3537Zm4.564-3.9203h4.605v.9488h-3.544v1.587h3.014v.9488h-3.014v1.755h3.631v.9441h-4.692v-6.1837Zm5.207.9488h2.169v5.2349h1.056v-5.2349h2.174v-.9488h-5.399v.9488Zm6.311-.9488h1.06v2.6179h2.881v-2.6179h1.061v6.1837h-1.061v-2.6179h-2.881v2.6179h-1.06v-6.1837Zm6.514 6.1837h2.651c1.384.0177 2.035-.974 2.027-1.9788 0-1.1121-.655-1.8846-2.035-1.8846h-1.583v-2.3203h-1.06v6.1837Zm1.06-2.9454h1.466c.729 0 1.091.3415 1.092.9918 0 .6167-.372 1.0095-1.04 1.0095h-1.518v-2.0013Zm5.407 2.9454v-6.1837h-1.061v6.1837h1.061Zm6.703-6.1838v6.1837h-1.056v-4.8076l-2.807 4.8076h-1.329v-6.1837h1.061v4.7908l2.794-4.7908h1.337Zm-3.32-1.669c.039.3452.293.5215.686.5215.396 0 .664-.1763.702-.5215h.863c-.013.7809-.569 1.2073-1.565 1.2073-.997 0-1.535-.4273-1.548-1.2073h.862ZM88.241 38.5876v-2.2372h-.9143v-5.2396h-4.3765l-.0047 1.5478c-.0047.7641-.013 1.3845-.0261 1.8547-.013.4693-.0346.8407-.0644 1.1037-.0513.487-.2668.7193-.7156.724l-.4487.0084v2.2382h1.0346v-1.2931h4.4848v1.2931h1.0309Zm-4.2729-6.5289H86.2715v4.2907h-2.6692c.1596-.1427.2584-.3751.293-.7072.0106-.0933.0197-.2176.0277-.3731.0115-.2254.0205-.5163.0282-.8733.0122-.6083.0169-1.1821.0169-1.7251v-.612Zm5.245-.9488h4.6051v.9488h-3.5443v1.587h3.0145v.9488h-3.0145v1.7549h3.6311v.9442h-4.6919v-6.1837Zm10.7562 6.1837v-6.1837H95.019v6.1837h1.0608v-5.2349h2.8334v5.2349h1.0561Zm4.1247-6.2695c1.72-.0215 2.98 1.2287 2.962 3.1776.017 1.949-1.242 3.2001-2.962 3.1786-1.725.0215-2.988-1.2287-2.967-3.1786-.021-1.9489 1.242-3.1991 2.967-3.1776Zm.043 5.4121c1.125 0 1.863-.8452 1.863-2.2335 0-1.3882-.737-2.2335-1.863-2.2335h-.087c-1.125 0-1.863.8453-1.863 2.2335 0 1.3883.737 2.2335 1.863 2.2335h.087Zm3.689-1.1429c.108 1.3584.957 2.087 2.523 2.087 1.474.0131 2.384-.7379 2.372-1.8192 0-.7632-.44-1.2334-1.164-1.3929.702-.2202 1.074-.7464 1.074-1.3845 0-1.0739-.854-1.7596-2.265-1.7596-.538 0-.987.1036-1.353.3107-.367.2061-.639.4693-.824.793-.186.319-.29.6502-.316 1.0001h1.074c.099-.737.543-1.1728 1.436-1.1728.746 0 1.19.3322 1.19.8537 0 .5561-.413.8883-1.125.8883h-.819v.9497h.841c.78 0 1.194.3023 1.194.8667 0 .6073-.439.9227-1.302.9227-.884 0-1.354-.3713-1.471-1.1429h-1.065Zm11.277 2.0003h-1.056v-4.8085l-2.807 4.8085h-1.328v-6.1837h1.061v4.7907l2.794-4.7907h1.336v6.1837Zm.912-5.2349h2.169v5.2349h1.057v-5.2349h2.173v-.9488h-5.399v.9488Zm9.29 3.7216h-2.746l-.582 1.5133h-1.104l2.449-6.1837h1.281l2.402 6.1837h-1.112l-.588-1.5133Zm-.366-.9488-1.01-2.6132-1.004 2.6132h2.014Zm5.591-3.7216h-2.708v6.1837h1.06v-2.3502h1.648c1.164.0084 1.997-.7286 1.983-1.9191.014-1.1895-.819-1.9274-1.983-1.9144Zm.926 1.9144c0 .6083-.375.9703-1.06.9703h-1.514v-1.9359h1.514c.685 0 1.06.3574 1.06.9656Zm7.285 4.2693h-1.056v-4.8085l-2.807 4.8085h-1.328v-6.1837h1.061v4.7907l2.794-4.7907h1.336v6.1837Zm5.647 0h1.056v-6.1837h-1.336l-2.794 4.7908v-4.7908h-1.061v6.1837h1.328l2.807-4.8085v4.8085Zm-1.578-7.3312c-.393 0-.647-.1763-.686-.5215h-.862c.013.78.551 1.2073 1.548 1.2073.996 0 1.552-.4264 1.565-1.2073h-.863c-.038.3443-.306.5215-.702.5215Z"/>
</svg>