<svg xmlns="http://www.w3.org/2000/svg" viewBox="0 0 200 50">
	<path class="bg-logo" fill="#1EAAA2" d="M0 0h200v50H0z"/>
	<path fill="#fff" d="M67.7287 21.5498h2.7556c1.0985 0 1.9919-.9211 1.9919-2.052 0-1.1315-.8934-2.0525-1.9919-2.0525h-2.7556v4.1045Zm0-5.4162h2.7556v.0033c1.8583 0 3.3643 1.5061 3.3643 3.3637 0 1.8575-1.506 3.3636-3.3643 3.3636h-4.1287V11.8496h6.5734v1.3117h-5.2003v2.9723Zm8.4444 2.7666c.0081 1.5904 1.3036 2.8724 2.894 2.8643l.0007.0007c.0209 0 .0412 0 .0621-.0007 1.5687-.0216 2.8231-1.311 2.8015-2.8791v-.0155c-.0088-1.5897-1.3043-2.8724-2.8947-2.8637-1.5896.0081-2.8723 1.3036-2.8636 2.894Zm5.7583 2.7807c-.7112.8724-1.7591 1.365-2.9399 1.365-1.085.0027-2.1254-.4298-2.8886-1.2004-1.6119-1.6437-1.6119-4.2752 0-5.9195.7639-.7706 1.8043-1.2025 2.8893-1.1997 1.1801 0 2.228.4918 2.9399 1.365v-1.1815h1.3097v7.9546h-1.3104v-1.1835Zm8.7672-3.4351h-4.1051v-3.3359h-1.311v7.9518h1.311v-3.3352h4.1051v3.3352h1.3111v-7.9518h-1.3111v3.3359Zm8.275 4.6159-3.6139-3.4837v3.4837h-1.3104v-7.9518h1.3104v3.1868l3.4317-3.1868h1.8206l-4.1127 3.8251 4.2537 4.1267h-1.7794Zm-32.5652 9.1602c0 1.7874-.2672 2.8899-.8164 3.3724-.3016.2672-.7011.3596-1.2476.2874l-.1701-.0216v1.2584l.1383.0115c.1512.0135.3016.0196.4427.0196.7935 0 1.3906-.2052 1.8562-.6336.7867-.724 1.1693-2.118 1.1693-4.2637v-4.8238h4.5033v9.7002h1.3744V25.9195h-7.2501v6.1024Zm15.7343.3083c-.2868-1.6598-1.554-2.2536-2.5789-2.2536-1.4251 0-2.5209.8988-2.7759 2.2536h5.3548Zm-6.7245.6248c0-2.4101 1.7442-4.1598 4.1456-4.1598 1.1046-.0148 2.1605.4535 2.8906 1.2821.6923.809 1.0675 1.8413 1.0546 2.9054 0 .1626-.0162.3387-.031.4892l-.0135.1356h-6.6746c.2598 1.357 1.3664 2.224 2.8643 2.224 1.0445 0 1.8947-.4467 2.3319-1.224l.0756-.1336 1.1532.6781-.0817.1316c-.7186 1.1633-1.9925 1.8313-3.4938 1.8313-1.2018 0-2.2915-.4271-3.0479-1.1822-.757-.7544-1.1733-1.8117-1.1733-2.9777Zm13.4935 2.6973h-2.5573v-2.085h2.5573c.7894 0 1.2422.3691 1.2422 1.0122 0 .8852-.6755 1.0715-1.2422 1.0715v.0013Zm-.3057-3.3663h-2.2516v-2.0256h2.2516c.9797 0 1.1808.5331 1.1808.9797.0007.693-.3967 1.0459-1.1808 1.0459Zm1.7631.533c.4784-.3771.7287-.9392.7287-1.6389 0-1.3367-.9797-2.2004-2.4918-2.2004h-3.562v7.9512h3.8677c1.5512 0 2.5539-.8994 2.5539-2.2927 0-.8138-.3968-1.4636-1.0965-1.8192Zm3.3759.1518c.0081 1.5898 1.3036 2.8718 2.894 2.8637h.0621c1.5688-.0216 2.8231-1.3104 2.8022-2.8792 0-.0047-.0007-.0101-.0007-.0148-.008-1.5904-1.3036-2.8724-2.894-2.8643-1.5897.0087-2.8723 1.3043-2.8636 2.8946Zm-1.2806-.0155c0-2.3326 1.8339-4.1598 4.1746-4.1598 2.3441 0 4.175 1.8272 4.175 4.1598s-1.8343 4.1598-4.175 4.1598-4.1746-1.8272-4.1746-4.1598Zm13.5076 2.8479c-1.502 0-2.638-1.0796-2.638-2.5114 0-1.1525 1.014-2.3427 2.714-2.3427 1.502 0 2.511.9797 2.511 2.4344.001 1.4022-1.088 2.4197-2.587 2.4197Zm.214-6.1348c-.749 0-1.718.2334-2.477.8529.337-.608.909-1.0236 1.941-1.4676.192-.0841.389-.1659.58-.2453v-.0002l.043-.0177.003-.0014c1.324-.548 2.574-1.0659 2.797-2.4661l.017-.1019-1.08-.6228-.03.2213c-.132.9352-.918 1.2679-2.006 1.7274l-.052.0222c-.298.1266-.607.2576-.934.415-2.586 1.2456-3.023 2.5627-3.023 5.0498 0 2.3664 1.685 4.0829 4.007 4.0829 1.083 0 2.073-.3765 2.789-1.0553.723-.6997 1.126-1.6673 1.111-2.674-.001-2.1572-1.551-3.7192-3.686-3.7192Zm11.407 2.6618c-.287-1.6598-1.554-2.2536-2.579-2.2536-1.426 0-2.521.8988-2.776 2.2536h5.355Zm-6.724.6248c0-2.4101 1.744-4.1598 4.145-4.1598 1.103-.0148 2.159.4542 2.888 1.2821.693.809 1.068 1.8413 1.055 2.9054 0 .1626-.015.3387-.031.4892l-.013.1356h-6.677c.263 1.357 1.371 2.224 2.869 2.224 1.043 0 1.894-.4467 2.332-1.224l.074-.1336 1.154.6781-.081.1316c-.719 1.1633-1.992 1.8313-3.495 1.8313-1.201 0-2.291-.4271-3.048-1.1822-.755-.7544-1.172-1.8117-1.172-2.9777Zm13.464-2.8782c1.59-.008 2.885 1.274 2.894 2.8644.008 1.5897-1.274 2.8858-2.864 2.8939-1.591.0081-2.886-1.2739-2.894-2.8636v-.0162c-.022-1.5688 1.233-2.8575 2.803-2.8785h.061Zm.075-1.2813c-1.181 0-2.229.4926-2.939 1.365v-1.1808h-1.312v11.0112h1.312v-4.2381c.711.8731 1.759 1.365 2.939 1.365 1.086.0034 2.126-.4291 2.891-1.1997 1.61-1.6443 1.61-4.2752 0-5.9195-.765-.7713-1.805-1.2044-2.891-1.2031Zm11.975 3.5348c-.287-1.6599-1.554-2.2537-2.579-2.2537-1.428 0-2.522.8988-2.777 2.2537h5.356Zm-6.724.6248c0-2.4102 1.744-4.1598 4.145-4.1598 1.106-.0155 2.163.4527 2.893 1.2827.693.809 1.067 1.8414 1.055 2.9054 0 .1633-.015.3388-.031.4892l-.013.1357h-6.677c.259 1.3569 1.367 2.2239 2.864 2.2239 1.045 0 1.894-.4467 2.333-1.224l.074-.1343 1.153.6782-.081.1315c-.719 1.1633-1.992 1.8313-3.495 1.8313-1.2 0-2.291-.4271-3.047-1.1822-.757-.7543-1.173-1.8116-1.173-2.9776Zm18.433-3.9754h-1.629l-2.749 3.1457v-3.1457h-1.311v3.1457l-2.749-3.1457h-1.628l3.409 3.8245-3.556 4.1267h1.624l2.9-3.4263v3.4263h1.311v-3.4263l2.901 3.4263h1.622l-3.556-4.1267 3.411-3.8245Zm2.584 3.3353h4.105v-3.3353h1.311v7.9512h-1.311v-3.3345h-4.105v3.3345h-1.311v-7.9512h1.311v3.3353Zm14.217 4.6159h1.312v-7.9512h-1.312v7.9512Zm-5.42-1.2799h1.946c.958 0 1.395-.6431 1.395-1.2416s-.437-1.2422-1.395-1.2422h-1.946v2.4838Zm0-3.7645h1.946c1.542 0 2.705 1.0857 2.705 2.5229 0 1.4372-1.163 2.5215-2.705 2.5215h-3.257v-7.9512h1.311v2.9068Zm10.027-3.8298h4.279v-1.1882H169.5v1.1882Zm.087 6.5228 4.335-5.5998H175v7.9512h-1.308v-5.5997l-4.334 5.5997h-1.082v-7.9512h1.311v5.5998Z"/>
	<path fill="#FFCA8C" d="M47.7997 25.503H31.7454L49.0885 8.04127c.2125-.21457.3306-.50605.3272-.80834V4.79778c0-.7058-.8468-1.07016-1.3441-.55736L25.303 27.1737c-.6444.637-.1923 1.7415.7112 1.7415h19.8422c.2996-.0027.5871-.1207.8016-.3306l1.7065-1.7179c.3103-.3165.3049-.8239-.0108-1.1342-.1485-.1451-.3469-.2274-.554-.2295Z"/>
	<path fill="#fff" d="M55.6754 4.37706 36.2751 23.9204h4.7907l12.9491-13.0388v22.5412H31.6302l2.8926-2.9142h-4.7907l-4.3501 4.3818c-.7125.7173-.2031 1.9467.8023 1.9467h29.7624c.8124-.0014 1.4702-.6613 1.4689-1.4737V5.10511c-.0115-.92172-1.1079-1.37717-1.7402-.72805Z"/>
</svg>