<svg xmlns="http://www.w3.org/2000/svg" viewBox="0 0 200 50">
	<path class="bg-logo" fill="#8DC63F" d="M0 0h200v50H0z"/>
	<path fill="#fff" d="m38.4422 24.1657 6.3147-10.9148c.0836-.1254 0-.2509-.1254-.2509h-4.0147c-.9618 0-1.7564.46-2.2164 1.2546l-6.7747 11.7093c-.0418.0837 0 .2091.0836.251 3.1365 1.129 5.6874 3.5128 7.0675 6.4819.0418.1255-.0418.2509-.1673.2509H25.1437c-.0836 0-.1672-.0836-.1672-.1673V18.1437c0-.0836.0836-.1672.1672-.1672h6.7748c.8782 0 1.7145-.46 2.1746-1.2546l2.0072-3.471c.0837-.1254 0-.2509-.1254-.2509H20.1673c-.0837 0-.1673.0836-.1673.1673v24.5896c0 .0836.0836.1673.1673.1673h24.5896c.0836 0 .1673-.0837.1673-.1673-.0418-5.3946-2.551-10.2038-6.4401-13.3821-.0837-.0418-.0837-.1255-.0419-.2091ZM133.413 26.2982c0-2.5092-2.049-4.4328-4.558-4.5583-1.715-.0836-3.303.5437-4.642 1.4219-.083.0418-.083.1254-.041.209l.459.8364c.168.2928.544.3764.837.251 1.004-.5437 2.174-.9201 3.387-.8364 1.338.0836 2.468 1.1291 2.468 2.5091V26.8c0 .0836-.084.1673-.167.1673h-4.099c-1.924 0-3.555 1.5473-3.597 3.471-.041 1.9655 1.548 3.4292 3.514 3.5964 1.588.1255 2.968-.4182 4.223-1.1709.084-.0418.167-.0418.251.0418l.335.6273c.125.2091.334.2927.543.2927h.92c.084 0 .167-.0836.167-.1673v-7.3601Zm-2.508 4.8928c-.963.7109-2.133 1.2128-3.429 1.1291-1.046-.0836-1.966-.7945-1.966-1.8818 0-1.0455.836-1.8819 1.881-1.8819h3.765c.083 0 .167.0836.167.1673v1.5891c.041.3764-.126.6691-.418.8782Zm24.547-4.8928c0-2.5092-2.049-4.4328-4.558-4.5583-1.715-.0836-3.304.5437-4.642 1.4219-.083.0418-.083.1254-.042.209l.46.8364c.167.2928.544.3764.836.251 1.004-.5437 2.175-.9201 3.388-.8364 1.338.0836 2.467 1.1291 2.467 2.5091V26.8c0 .0836-.083.1673-.167.1673h-4.14c-1.924 0-3.555 1.5473-3.597 3.471-.041 1.9655 1.548 3.4292 3.513 3.5964 1.589.1255 2.969-.4182 4.224-1.1709.084-.0418.167-.0418.251.0418l.334.6273c.126.2091.335.2927.544.2927h.92c.084 0 .167-.0836.167-.1673v-7.3601h.042Zm-2.509 4.8928c-.962.7109-2.133 1.2128-3.429 1.1291-1.045-.0836-1.966-.7945-1.966-1.8818 0-1.0455.836-1.8819 1.882-1.8819h3.764c.084 0 .167.0836.167.1673v1.5891c0 .3764-.167.6691-.418.8782Zm12.671-8.6565v4.1819c0 .0836-.083.1673-.167.1673h-5.688c-.083 0-.167-.0837-.167-.1673v-4.6001c0-.0836-.083-.1673-.167-.1673h-1.757c-.083 0-.167.0837-.167.1673v11.5003c0 .0836.084.1672.167.1672h1.297c.335 0 .627-.2926.627-.6271v-4.3911c0-.0837.084-.1673.167-.1673h5.688c.084 0 .167.0836.167.1673v4.851c0 .0836.084.1672.168.1672h1.756c.083 0 .167-.0836.167-.1672V22.1163c0-.0836-.084-.1673-.167-.1673h-1.297c-.334 0-.627.251-.627.5855Zm-48.134 3.0526c-.083-.0837-.083-.2092 0-.251.711-.5018 1.297-1.1709 1.757-1.9237l3.471-5.9801c.083-.1254 0-.2509-.126-.2509h-1.631c-.46 0-.836.2509-1.087.6273l-3.262 5.562c-.376.6272-1.046 1.0454-1.798 1.0454h-1.756c-.084 0-.168-.0836-.168-.1672v-6.942c0-.0837-.083-.1673-.167-.1673h-1.966c-.083 0-.167.0836-.167.1673v16.2677c0 .0836.084.1672.167.1672h1.506c.335 0 .627-.2928.627-.6273v-6.4402c0-.0836.084-.1673.168-.1673h1.756c.752 0 1.422.3765 1.798 1.0455l3.22 5.6038c.209.3764.628.6273 1.087.6273h1.631c.126 0 .21-.1255.126-.2509l-3.471-5.9802c-.418-.7945-1.004-1.4636-1.715-1.9654Zm25.05 2.2166c-.084-.0418-.126-.2091 0-.2927.753-.5019 1.255-1.3801 1.255-2.3419 0-1.9237-1.547-3.3874-3.471-3.471-1.715-.0836-3.304.5018-4.643 1.38-.083.0419-.083.1255-.041.2091l.46.7946c.167.2927.502.3764.795.2509.961-.5018 2.09-.8782 3.178-.7945.92.0835 1.673.7109 1.714 1.5891 0 .92-.711 1.6727-1.631 1.6727h-1.881c-.084 0-.168.0837-.168.1673v.8364c0 .3345.293.6273.627.6273h1.38c1.046 0 1.883.8364 1.883 1.8818 0 1.0037-.837 1.7146-1.841 1.7982-1.38.1255-2.802-.3345-4.014-.92-.084-.0418-.168 0-.21.0837l-.71 1.2545c-.042.0837 0 .1673.083.2091 1.548.7528 3.304 1.3383 5.102 1.2128 2.007-.1255 3.68-1.6309 3.68-3.6801-.125-1.0455-.71-1.9655-1.547-2.4673Zm-64.1507-1.5055c0-2.5092-2.0491-4.4328-4.5582-4.5583-1.7146-.0836-3.3037.5437-4.6419 1.4219-.0837.0418-.0837.1254-.0419.209l.4601.8364c.1672.2928.5436.3764.8363.251 1.0037-.5437 2.1746-.9201 3.3874-.8364 1.3382.0836 2.4673 1.1291 2.4673 2.5091V26.8c0 .0836-.0836.1673-.1673.1673H71.981c-1.9236 0-3.5546 1.5473-3.5964 3.471-.0419 1.9655 1.5473 3.4292 3.5128 3.5964 1.5891.1255 2.9692-.4182 4.2237-1.1709.0837-.0418.1673-.0418.2509.0418l.3346.6273c.1254.2091.3345.2927.5436.2927h.9199c.084 0 .1675-.0836.1675-.1673v-7.3601h.0417Zm-2.5091 4.8928c-.9618.7109-2.1328 1.2128-3.4292 1.1291-1.0454-.0836-1.9654-.7945-1.9654-1.8818 0-1.0455.8363-1.8819 1.8818-1.8819h3.7637c.0837 0 .1673.0836.1673.1673v1.5891c0 .3764-.1673.6691-.4182.8782Zm12.6712-8.6147v4.1819c0 .0837-.0835.1673-.1676.1673h-5.6873c-.0835 0-.1669-.0836-.1669-.1673v-4.6419c0-.0836-.0841-.1673-.1676-.1673h-1.7145c-.0835 0-.1675.0837-.1675.1673v11.5003c0 .0836.084.1672.1675.1672h1.2966c.3345 0 .6272-.2926.6272-.6271v-4.3911c0-.0837.0835-.1673.1669-.1673h5.6874c.084 0 .1675.0836.1675.1673v4.851c0 .0836.0835.1672.1675.1672h1.7563c.0835 0 .1669-.0836.1669-.1672V22.1163c0-.0836-.0834-.1673-.1669-.1673h-1.2967c-.3761 0-.6688.251-.6688.6273Zm10.2458 5.3529c-.0835-.0837-.0835-.2091 0-.251.6271-.4181 1.1708-1.0036 1.5478-1.6727l2.216-3.8055c.084-.1255 0-.251-.125-.251h-1.506c-.377 0-.711.2092-.9202.5019l-2.2583 3.931c-.1669.3345-.5431.5018-.9199.5018h-1.8397c-.0841 0-.1675-.0837-.1675-.1673v-4.6001c0-.0836-.0835-.1673-.167-.1673h-1.7568c-.0835 0-.167.0837-.167.1673v11.5003c0 .0836.0835.1672.167.1672h1.2966c.3345 0 .6272-.2926.6272-.6271v-4.3911c0-.0837.0834-.1673.1675-.1673h1.7145c.3762 0 .7107.2091.9199.5018l2.3835 4.1401c.1672.3346.5432.5019.9202.5019h1.506c.125 0 .209-.1255.125-.251l-2.3-4.0146c-.4182-.5855-.9201-1.1291-1.4638-1.5473Zm-36.6335-3.9313h-4.391c-.0836 0-.1673-.0836-.1673-.1672v-4.4329c0-.0836.0837-.1673.1673-.1673h5.8129c.46 0 .8364-.2509 1.0873-.6273l.7109-1.2127c.0837-.1255 0-.2509-.1255-.2509h-9.7856c-.0837 0-.1673.0836-.1673.1673v16.3094c0 .0836.0836.1673.1673.1673h6.7747c2.7182 0 4.9346-2.2164 4.8928-4.9347-.0418-2.7182-2.3001-4.851-4.9765-4.851Zm-.209 7.6947h-4.182c-.0836 0-.1673-.0836-.1673-.1673v-5.2692c0-.0836.0837-.1672.1673-.1672h4.2656c1.5473 0 2.76 1.2127 2.8018 2.76.0419 1.5474-1.2963 2.8437-2.8854 2.8437Zm115.0443-9.1163-4.976 8.5729c-.042.0837-.168.0418-.168-.0417v-8.9912c0-.0836-.083-.1673-.167-.1673h-1.757c-.083 0-.167.0837-.167.1673v11.5003c0 .0836.084.1672.167.1672h1.757c.46 0 .836-.2508 1.087-.6271l4.977-8.5731c.041-.0836.167-.0418.167.0419v8.9911c0 .0836.084.1672.167.1672h1.756c.085 0 .168-.0836.168-.1672V22.1163c0-.0836-.083-.1673-.168-.1673h-1.756c-.46 0-.878.2092-1.087.6273Z"/>
</svg>