<svg xmlns="http://www.w3.org/2000/svg" viewBox="0 0 200 50">
	<path class="bg-logo" fill="#8BBC06" d="M0 0h200v50H0z"/>
	<path fill="#fff" d="M132.501 24.7766c.011-1.9428-.366-3.8682-1.108-5.6637-.742-1.7956-1.834-3.4254-3.213-4.7942-1.379-1.3689-3.016-2.4495-4.817-3.1786-1.801-.7292-3.729-1.0923-5.671-1.0682-1.943.0241-3.861.4349-5.643 1.2084-1.783.7736-3.393 1.8944-4.737 3.297-1.344 1.4027-2.396 3.059-3.093 4.8724-.697 1.8134-1.026 3.7475-.968 5.6895-.003 3.955 1.517 7.7594 4.243 10.6243 1.322 1.42 2.92 2.5536 4.697 3.3309 1.778.7773 3.695 1.1815 5.635 1.1878 4.446 0 10.676-2.1443 13.637-8.2187.033-.0617.059-.1272.077-.195h-5.967l-.035.042c-.962 1.0244-2.125 1.839-3.417 2.3925-1.291.5535-2.683.834-4.088.824-2.215-.0393-4.347-.8465-6.033-2.2837-1.685-1.4373-2.819-3.4152-3.207-5.5958h23.587c.048-.5615.121-1.6912.121-2.4709Zm-23.531-2.3471c.426-2.0441 1.544-3.879 3.164-5.1961 1.62-1.3171 3.644-2.0361 5.733-2.0361 2.088 0 4.112.719 5.732 2.0361s2.738 3.152 3.164 5.1961H108.97Zm-22.2644-7.4078c-5.317 0-8.014 2.8588-8.014 8.517V40.292h-5.4584V23.1478c-.0846-2.4986.5406-4.9702 1.8032-7.128 1.257-1.9275 2.9937-3.495 5.0395-4.5483 2.0459-1.0534 4.3306-1.55644 6.6297-1.4598 2.2975-.09464 4.5801.4094 6.6241 1.4626 2.0439 1.0533 3.7791 2.6196 5.0354 4.5455 1.2617 2.1577 1.8829 4.6302 1.7909 7.128V40.292h-5.4529V23.5397c0-5.6533-2.6843-8.5141-7.9984-8.5141l.0009-.0039Zm74.1594-5.0032-11.501 28.1622-2.843 6.9692L144.95 49h-5.672l4.401-10.8193-11.757-28.1622h5.995l8.607 21.1746 8.625-21.1746h5.716ZM55.0588 35.1445c-1.2955-.0091-2.5763-.2747-3.7686-.7817-1.1922-.5069-2.2722-1.245-3.1776-2.1717-.9053-.9266-1.6181-2.0235-2.0972-3.2272-.4791-1.2037-.7149-2.4904-.6939-3.7857-.0218-1.2963.2134-2.5841.692-3.7889.4786-1.2049 1.1912-2.303 2.0965-3.231.9053-.928 1.9855-1.6675 3.1782-2.1757 1.1927-.5083 2.4742-.7752 3.7706-.7854 1.2946.0139 2.5736.2835 3.7637.7933 1.19.5097 2.2677 1.2496 3.1709 2.177.9033.9275 1.6144 2.0243 2.0926 3.2274.4781 1.2031.7138 2.4888.6936 3.7833.0197 1.2936-.2165 2.5785-.695 3.7806-.4784 1.2021-1.1898 2.2977-2.0932 3.224-.9033.9263-1.9808 1.6648-3.1706 2.1733-1.1897.5084-2.4682.7767-3.762.7894v-.001Zm0-25.126c-1.99-.0158-3.9632.3662-5.8036 1.1235-1.8404.7573-3.511 1.8746-4.9137 3.2865-1.4026 1.4118-2.509 3.0896-3.2543 4.9349-.7453 1.8453-1.1144 3.8209-1.0856 5.8109-.0284 1.9897.3409 3.9651 1.0861 5.8102.7452 1.8452 1.8513 3.523 3.2535 4.935 1.4022 1.412 3.0722 2.5298 4.9121 3.2878 1.84.758 3.8127 1.1411 5.8026 1.1266 1.9882.0123 3.9589-.3724 5.7965-1.1315 1.8376-.7591 3.5052-1.8774 4.9051-3.2893 1.3999-1.4118 2.5039-3.0889 3.2473-4.9329.7434-1.8441 1.1113-3.8179 1.0821-5.8059.0299-1.9881-.3376-3.962-1.0808-5.8061-.7432-1.8441-1.8473-3.5212-3.2473-4.9329-1.4001-1.4117-3.068-2.5296-4.9059-3.288-1.8379-.7585-3.8088-1.1422-5.797-1.1288"/>
</svg>