<svg xmlns="http://www.w3.org/2000/svg" viewBox="0 0 200 50">
	<path class="bg-logo" fill="#00BEF0" d="M0 0h200v50H0z"/>
	<path fill="#fff" d="M34 9c-8.8479 0-16 7.1521-16 16s7.1521 16 16 16 16-7.1521 16-16S42.8479 9 34 9Zm-2.212 22.7834-1.1797 3.4654c-4.424-1.4746-7.3733-5.6774-7.3733-10.3963 0-4.7189 2.9493-8.8479 7.447-10.3963l1.1798 3.4655c-2.9494.9585-4.8664 3.7603-4.8664 6.8571-.1475 3.2442 1.8433 6.0461 4.7926 7.0046Zm5.4562 3.5392-1.106-3.5392c3.0231-.9585 5.0139-3.7604 5.0139-6.9309s-1.9908-5.8986-4.9401-6.8571l1.1797-3.5392c4.4977 1.4747 7.5207 5.6774 7.5207 10.3963 0 4.8664-3.0967 9.0692-7.6682 10.4701ZM180.507 27.8753l1.77 2.1383c-1.844 1.917-4.13 2.4331-5.973 2.4331-1.769 0-3.023-.2949-4.129-.811-2.359-1.1797-3.539-3.5392-3.539-6.4148 0-4.3502 2.949-7.5944 7.299-7.5944 4.867 0 7.226 3.6129 6.858 8.3318h-11.06c.073 1.1797.737 2.2857 1.696 2.8755.811.5162 1.769.7374 3.023.7374 1.401 0 2.801-.4424 4.055-1.6959Zm-8.701-4.4977h7.816c-.221-1.6958-1.622-3.1705-3.834-3.1705-2.286 0-3.687 1.6221-3.982 3.1705Zm-74.2484 8.6267h3.9814l-6.2671-7.2995 6.1931-6.8571h-3.9074l-4.7189 5.4562h-1.4009v-5.4562h-3.023v14.0829h3.023v-5.6037h1.4009l4.7189 5.6774Zm12.9774-11.576c-2.581 0-4.277 1.9908-4.277 4.4977s1.696 4.4977 4.277 4.4977c2.58 0 4.202-1.917 4.202-4.4977.074-2.4332-1.548-4.4977-4.202-4.4977Zm.516-2.8756c3.981 0 6.931 3.0968 6.931 7.3733 0 4.2028-2.876 7.447-6.931 7.447-1.917 0-3.466-.6636-4.572-1.8433v7.3733h-3.097V17.9214h3.024v1.6959c1.179-1.401 2.728-2.0646 4.645-2.0646Zm40.184.3687h-12.608v2.8018h4.792v11.2811h3.097V20.7232h4.793v-2.8018h-.074Zm-64.9585 0h-12.682v2.8018h4.7926v11.2811h3.0968V20.7232h4.7926v-2.8018Zm-16.3687 7.0783c0-2.6543-1.8433-4.5714-4.4239-4.5714-2.5069 0-4.424 1.9171-4.424 4.5714 0 2.6544 1.8433 4.5715 4.424 4.5715 2.5069 0 4.4239-1.9171 4.4239-4.5715Zm-12.0184 0c0-4.2027 3.2442-7.3732 7.5945-7.3732 4.2765 0 7.5944 3.1705 7.5944 7.3732 0 4.2028-3.2442 7.447-7.5944 7.447-4.2765-.0737-7.5945-3.2442-7.5945-7.447Zm108.3136-7.0783v14.0829h-3.023v-9.0691l-7.374 9.0691h-2.433V17.9214h3.023v9.0691l7.374-9.0691h2.433Zm-29.715 14.0829h-3.023V17.9214h3.023v14.0829Zm-7.815-4.7926c0-1.2534-.885-2.1382-2.065-2.1382h-3.096v4.3502h3.096c1.18 0 2.065-.9585 2.065-2.212Zm3.023 0c0 2.8019-2.065 4.7926-5.014 4.7926h-6.194V17.9214h3.024v4.5714h3.465c2.949 0 4.719 1.9171 4.719 4.7189Z"/>
</svg>