<svg xmlns="http://www.w3.org/2000/svg" viewBox="0 0 200 50">
	<path class="bg-logo" fill="#222" d="M0 0h200v50H0z"/>
	<path fill="#fff" d="M14.999 25.4675c0-9.0871 7.5109-16.45675 16.7796-16.4675v5.9506c-5.9193.008-10.7103 4.7142-10.7103 10.5169s4.8046 10.5223 10.7349 10.5223c5.9302 0 10.7295-4.6658 10.7295-10.56l6.0719.0055c0 9.1301-7.5191 16.505-16.8014 16.505-9.2824 0-16.8042-7.3777-16.8042-16.4728Zm9.3883-.0002c0-4.0343 3.3412-7.3051 7.4536-7.3051 4.1125 0 7.4564 3.2708 7.4564 7.3051 0 4.0342-3.3412 7.3051-7.4564 7.3051s-7.4536-3.2681-7.4536-7.3051Zm16.8939-13.4406c-2.3574 0-4.2705 1.8733-4.2705 4.1874 0 2.3115 1.9105 4.1901 4.2705 4.1901 2.3602 0 4.2733-1.8759 4.2733-4.1901 0-2.3141-1.9159-4.1874-4.2733-4.1874ZM131.14 28.6391c-.73 2.8006-2.759 7.6412-8.991 7.6412-4.412 0-6.832-2.2443-6.832-6.6629 0-.7975.1-1.5858.212-2.3732 1.199-7.3266 4.44-14.269 11.55-14.3388.945-.0108 2.87-.1075 4.175-.4113l-.475 2.9269c-1.315.3306-3.401.5026-4.618.5107-1.51.0161-2.554.5779-3.279 1.2605-.575.5413-.984 1.2066-1.338 1.9056.951-.2903 1.989-.473 3.159-.473 5.943 0 7.733 5.045 6.437 10.0116v.0027Zm-3.45-1.0133c.648-2.6309.67-6.6278-2.987-6.6278-5.206 0-5.873 7.9287-5.873 9.13 0 2.6018 1.591 3.7413 3.385 3.7413 3.547 0 4.872-3.5746 5.472-6.2435h.003Zm39.254-1.3866-.001.0075-.001.0032v.0009l-.001.0013v.0019c-.704 3.0986-1.158 5.0952-1.958 9.1963l-.234.1935-3.361.0968-.163-.2258 1.354-5.5662.395-1.8249c-1.445-.0323-2.888-.0564-4.332-.0564-1.129 0-1.987.0134-2.865.0376-.496 2.1904-.907 4.1149-1.543 7.3427l-.235.1935-3.364.0968-.164-.2258 1.886-7.9904c.888-3.8193 1.054-4.6578 1.583-8.1841l.235-.2258c1.545-.1935 1.91-.2607 3.49-.5832l.172.2258-.357 1.6045-.512 2.4969-.537 2.3651c1.213.0297 2.425.0485 3.646.0485 1.188 0 2.375-.0288 3.563-.0511.463-2.0696.651-3.1984 1.057-5.8807l.231-.2258c1.551-.1935 1.914-.2607 3.499-.5832l.164.2258c-.546 2.4924-1.079 4.9896-1.647 7.4848Zm6.974-.5994-.005.0027 1.501-6.8805-.163-.2258c-1.587.3225-1.946.3897-3.499.5832l-.232.2258c-.529 3.5263-.695 4.3648-1.584 8.184l-1.88 7.9906.163.2258 3.369-.0968.229-.1935c.818-4.1633 1.264-6.1683 1.992-9.3506 1.569 3.114 3.215 6.2075 4.587 9.4151l.264.1935 3.666-.0995.195-.2553-5.118-9.5467 4.296-3.881c1.088-.9519 2.216-1.8585 3.3-2.8141l-.096-.2902h-3.798l-.365.1908c-2.182 2.2857-4.411 4.5736-6.822 6.6225Zm-22.867-6.7541v-.0027.0027Zm0-.0007-.164-.26-4.578-.0296c-3.051 0-7.328.1908-10.412 3.7333-1.393 1.6179-2.652 4.4078-2.652 6.9692 0 4.053 2.755 6.3912 6.134 6.3912 1.793 0 3.448-.5347 4.843-1.6529l-.231 1.2955.162.2311 3.116-.0671.237-.2285c.659-3.8649.896-5.0932 2.054-10.0896l1.491-6.2926Zm-6.336 12.6543c-.362.285-.727.6155-1.093.8359-.861.5215-1.989.7499-2.883.7499-3.019 0-3.881-2.4969-3.881-4.053 0-.1587.066-4.3461 3.546-6.6763 1.959-1.2982 4.115-1.3626 5.208-1.3626.498 0 .991.0295 1.491.0295l-2.391 10.4766h.003Zm-75.4144-4.8462c-.7659 3.322-1.9486 5.9022-4.4723 5.9022h-.0027c-2.837 0-2.6735-2.8167-1.9594-5.9022.7657-3.3247 1.9158-5.765 4.5131-5.765 3.0468 0 2.4636 3.4267 1.9213 5.765Zm-12.5446.2393c-1.8776 8.1382 3.3004 9.2563 6.895 9.2563 5.7449 0 10.0346-2.5452 11.6207-9.4257l.0038-.0174c.5348-2.4584 2.0328-9.3439-6.8062-9.3439-8.8599 0-11.0129 6.4747-11.7133 9.5307Zm27.9548 8.8505c-1.6652 0-4.396 0-5.5432.0323l-.1963-.2016c.3189-1.0859 1.0983-4.0047 1.9159-7.5659.505-2.1897 1.0468-4.3747 1.4825-6.5794-1.3926.0323-3.5374.0323-4.5812.0671l-.1908-.2365c.2753-.8815.6623-2.4055.9048-3.3193l.3189-.1747c.9266.0323 4.4476.0672 7.282.0672 3.4284 0 6.7641-.0672 7.4645-.1021l.2372.1747c-.2546.804-.7004 2.4523-.9306 3.3037l-.0042.0157-.3271.2042c-1.3708-.0296-2.4118-.0296-4.3876-.0296-.0483.2081-.1255.53-.2312.9713l-.0002.001-.0001.0005c-.2698 1.1263-.7256 3.03-1.3656 5.8056-.6704 2.9215-1.2236 5.5958-1.5425 7.2917l-.3025.2741h-.0027Zm19.2272-13.9062-.002-.0026c1.038 0 2.273.0349 2.829.0349-.237 1.0186-.837 3.7654-1.428 6.343-.785 3.3946-1.453 6.1414-1.758 7.3239l.152.242c1.426-.0323 4.162-.0323 5.647-.0323l.256-.207c.191-.9837.93-4.475 1.736-7.969 1-4.3379 2.042-8.7081 2.287-9.6246l-.158-.2097c-1.878.035-5.396.1371-9.029.1371-4.6358 0-6.5245-.0699-8.394-.0699l-.2916.2392c-.2453 1.0509-1.0002 4.7841-1.875 8.5765-.8694 3.7681-1.7769 7.5631-2.1339 8.958l.1935.2017c1.7414-.0323 3.9189-.0323 5.614-.0323l.3271-.207c.2535-1.2525.9048-4.2385 1.6406-7.4261.6213-2.7118 1.3003-5.4937 1.4713-6.2408.556 0 1.804-.035 2.916-.035Z"/>
</svg>