<svg xmlns="http://www.w3.org/2000/svg" viewBox="0 0 200 50">
	<path class="bg-logo" fill="#005BFF" d="M0 0h200v50H0z"/>
	<path fill="#fff" d="M127.6 28.9c0-5.1 3.7-8.6 8.9-8.6 2.1 0 3.9.6 5.5 1.6l-1.6 2.9c-1.1-.7-2.5-1.2-4-1.2-3.1 0-5.1 2.2-5.1 5.3 0 3 2 5.3 5.1 5.3 1.5 0 2.9-.5 4-1.2l1.6 2.9c-1.6 1.1-3.4 1.6-5.5 1.6-5.3 0-8.9-3.5-8.9-8.6Zm15.1 0c0-5.4 3.6-8.6 7.8-8.6 2.7 0 4.4 1.2 5.4 2.9h.1v-2.4h3.4v16.1H156v-2.4h-.1c-1 1.7-2.8 2.9-5.4 2.9-4.3.1-7.8-3.1-7.8-8.5Zm13.5 0c0-3.1-2-5.2-5-5.2s-5 2.2-5 5.2c0 3.1 2 5.2 5 5.2s5-2.1 5-5.2Zm16.5-4.5h-.5c-3.3 0-5.1 1.6-5.1 5.4V37h-3.4V20.8h3.4v3.5h.1c.8-2.4 2.6-4 5.3-4h.2v4.1Zm.5 4.5c0-5.4 3.6-8.6 7.9-8.6 2.6 0 4.4 1.2 5.4 2.9h.1V12.5h3.4v24.4h-3.4v-2.4h-.1c-1 1.7-2.8 2.9-5.4 2.9-4.3.1-7.9-3.1-7.9-8.5Zm13.6 0c0-3.1-2-5.2-5-5.2s-5 2.2-5 5.2c0 3.1 2 5.2 5 5.2s5-2.1 5-5.2ZM23.1001 13.7c-6.5-.7-12.3 4-13 10.5-.70003 6.5 4 12.3 10.5 13 6.5.7 12.3-4 13-10.5.1-.8.1-1.6 0-2.4-.6-5.6-5-10-10.5-10.6Zm-.4 18c-3.5.5-6.6-2-7.1-5.4-.5-3.5 2-6.6 5.4-7.1 3.5-.5 6.6 2 7.1 5.4.5 3.4-2 6.7-5.4 7.1Zm17.2-17.5c-1.5 0-2.8 1.2-2.8 2.8 0 .2 0 .4.1.6.3 1.3 1.5 2.2 2.8 2.2h7.7l-12 15.8c-.3.3-.2.8.2 1.1.1.1.3.2.5.2h18.8c1.3 0 2.5-.9 2.8-2.2.3-1.5-.6-3-2.1-3.3-.2 0-.4-.1-.6-.1h-9.4l11.9-15.8c.3-.4.2-.8-.2-1.1-.1-.1-.3-.2-.5-.2h-17.2Zm74.9999 0c-1.3.3-2.2 1.5-2.2 2.8v9.2L97.8001 14.3c-.3-.3-.8-.2-1.1.1-.1.1-.2.3-.2.5v19c0 1.3.9 2.5 2.2 2.8C100.2 37 101.7 36.1 102 34.6c0-.2.1-.4.1-.6v-9.3L117 36.6c.3.3.8.2 1.1-.1.1-.1.2-.3.2-.5V16.9c0-1.5-1.2-2.8-2.8-2.8-.2.1-.4.1-.6.1Zm-38.7999 5c6.3 0 11 3.3 11 6.3s-4.7 6.3-11 6.3-11-3.3-11-6.3 4.7-6.3 11-6.3Zm0-5.6c-9.1 0-16.5 5.3-16.5 11.8 0 6.5 7.4 11.8 16.5 11.8s16.5-5.3 16.5-11.8c0-6.5-7.4-11.8-16.5-11.8Z"/>
</svg>