<svg xmlns="http://www.w3.org/2000/svg" viewBox="0 0 200 50">
	<path class="bg-logo" fill="#005BFF" d="M0 0h200v50H0z"/>
	<path fill="#fff" d="M40.0182 25.4847c0 5.1439-3.8109 8.693-9.0096 8.693-5.201 0-9.0096-3.5491-9.0096-8.693 0-5.1441 3.8109-8.6932 9.0096-8.6932 5.201 0 9.0096 3.5491 9.0096 8.6932Zm35.1131 0c0 5.1439-3.8109 8.693-9.0096 8.693-5.1987 0-9.0096-3.5491-9.0096-8.693 0-5.1441 3.8109-8.6932 9.0096-8.6932 5.1987 0 9.0096 3.5491 9.0096 8.6932Zm18.3306-1.9039v10.0317h-4.3766v-9.105c0-2.6223-1.2366-3.7047-3.3459-3.7047-2.2146 0-3.8109 1.2334-3.8109 4.7848v8.0249H77.552V17.3041h4.3261v2.469h.1031c1.081-1.8512 2.936-2.9839 5.3041-2.9839 3.5497.0023 6.1766 1.9565 6.1766 6.7916Zm65.9721-6.2767v16.3084h-4.377v-6.5856h-7.003v6.5856h-4.377V17.3041h4.377v5.9151h7.003v-5.9151h4.377Zm-23.839 0v2.3661h-.102c-.772-1.6453-2.833-2.881-5.458-2.881-4.273 0-7.775 3.0869-7.775 8.6428 0 5.6085 3.399 8.7457 7.775 8.7457 2.677 0 4.583-1.2356 5.458-2.778h.102v2.2128h4.377V17.3041h-4.377Zm-23.167-.1533c-2.677 0-4.736 1.2357-5.817 3.1898h-.103c.153-3.6017 1.39-5.144 5.611-5.5559l6.538-.6178V10l-7.26.5652c-7.104.5652-9.215 5.4026-9.215 13.1185 0 6.842 3.964 10.494 9.112 10.494 5.098 0 9.01-3.652 9.01-8.7457 0-5.0914-3.552-8.2812-7.876-8.2812Zm-70.8136.1533v3.7046h8.5974l-8.8035 9.105v3.4988h14.6228v-3.7047h-9.2157l8.8035-9.1576v-3.4461H41.6144Zm89.5546 12.9126c-2.628 0-4.324-1.9542-4.324-4.6817 0-2.778 1.699-4.7848 4.324-4.7848 2.624 0 4.426 1.9541 4.426 4.7321 0 2.7276-1.802 4.7344-4.426 4.7344Zm-104.5873-4.732c0 2.8282 1.7497 4.6817 4.4269 4.6817s4.4269-1.8512 4.4269-4.6817c0-2.8307-1.7497-4.6819-4.4269-4.6819s-4.4269 1.8512-4.4269 4.6819Zm35.1131 0c0 2.8282 1.7497 4.6817 4.4269 4.6817s4.4269-1.8512 4.4269-4.6817c0-2.8307-1.7497-4.6819-4.4269-4.6819s-4.4269 1.8512-4.4269 4.6819Zm49.5472 4.732c-2.522 0-4.48-1.9038-4.48-4.732 0-2.881 1.956-4.5789 4.48-4.5789 2.524 0 4.479 1.6979 4.479 4.5789 0 2.8282-1.955 4.732-4.479 4.732Zm62.196 3.3958-5.919-7.819v7.819h-4.377V17.3041h4.377v6.7389l5.457-6.7389h5.407l-6.694 7.4071 7.31 8.899h-5.561v.0023Z"/>
</svg>