<svg xmlns="http://www.w3.org/2000/svg" viewBox="0 0 200 50">
	<path class="bg-logo" fill="#003087" d="M0 0h200v50H0z"/>
	<path fill="#fff" d="M83.8454 14.1562h-7.252c-.4958 0-.9179.3608-.9955.8508l-2.9327 18.5954c-.0577.3671.2258.6989.5975.6989h3.4627c.4957 0 .9178-.3606.9954-.8504l.7913-5.0168c.0773-.4899.4994-.8507.9951-.8507h2.2949c4.7769 0 7.5337-2.3119 8.2543-6.8935.3242-2.0039.0131-3.5784-.9251-4.6807-1.0319-1.2122-2.86-1.853-5.2859-1.853Zm.837 6.7915c-.3963 2.6032-2.3846 2.6032-4.3072 2.6032H79.281l.7673-4.8602c.0465-.2941.2995-.5104.597-.5104h.5017c1.309 0 2.5455 0 3.1827.7457.3813.4465.4967 1.1078.3527 2.0217Zm20.8386-.0831h-3.472c-.298 0-.551.2164-.597.5104l-.153.971-.243-.3517c-.752-1.0916-2.4283-1.4563-4.1019-1.4563-3.8362 0-7.1139 2.9074-7.7517 6.9848-.3321 2.0341.1392 3.9783 1.2926 5.3352 1.0597 1.2467 2.572 1.7656 4.3738 1.7656 3.0921 0 4.8074-1.9869 4.8074-1.9869l-.1551.9654c-.0583.367.2253.6991.5969.6991h3.127c.496 0 .918-.3605.996-.85l1.877-11.8878c.058-.3673-.226-.6988-.597-.6988Zm-4.839 6.7592c-.336 1.9839-1.9112 3.316-3.9202 3.316-1.0072 0-1.8135-.3239-2.3318-.9373-.5136-.6079-.7069-1.4742-.5439-2.439.3125-1.9664 1.9132-3.3415 3.8916-3.3415.9859 0 1.7868.327 2.3153.9462.532.6235.741 1.4954.589 2.4556Zm34.887-13.4676h-7.252c-.495 0-.917.3608-.995.8508l-2.932 18.5954c-.058.3671.225.6989.596.6989h3.722c.347 0 .643-.2523.696-.5956l.832-5.2716c.077-.4899.5-.8507.996-.8507h2.295c4.776 0 7.533-2.3119 8.254-6.8935.323-2.0039.012-3.5784-.926-4.6807-1.032-1.2122-2.859-1.853-5.286-1.853Zm.838 6.7915c-.397 2.6032-2.384 2.6032-4.308 2.6032h-1.094l.768-4.8602c.046-.2941.299-.5104.596-.5104h.503c1.308 0 2.545 0 3.182.7457.382.4465.497 1.1078.353 2.0217Zm20.838-.083h-3.472c-.297 0-.551.2164-.597.5104l-.153.971-.242-.3518c-.753-1.0915-2.429-1.4562-4.103-1.4562-3.836 0-7.113 2.9073-7.751 6.9848-.332 2.0341.139 3.9783 1.293 5.3352 1.059 1.2466 2.571 1.7656 4.373 1.7656 3.092 0 4.808-1.9869 4.808-1.9869l-.156.9654c-.057.367.226.6991.598.6991h3.127c.496 0 .918-.3605.995-.8501l1.878-11.8877c.057-.3674-.226-.6988-.598-.6988Zm-4.839 6.7592c-.336 1.9839-1.91 3.316-3.92 3.316-1.007 0-1.813-.3239-2.331-.9373-.514-.6079-.708-1.4742-.544-2.439.313-1.9664 1.913-3.3415 3.891-3.3415.986 0 1.787.327 2.316.9461.531.6236.74 1.4955.588 2.4557Zm5.956 5.9785 2.977-18.9358c.046-.2939.299-.5107.597-.5103h3.35c.372 0 .655.3318.597.6987l-2.935 18.5955c-.078.4899-.499.8504-.995.8504h-2.994c-.371 0-.655-.3318-.597-.6985Zm-37.836-12.7376h3.49c.488 0 .775.5483.497.9488l-11.608 16.7527c-.188.2719-.497.4338-.828.4338h-3.487c-.491 0-.777-.5538-.493-.9543l3.615-5.1003-3.844-11.2811c-.133-.3925.158-.7999.573-.7999h3.431c.444 0 .837.2927.965.719l2.04 6.8143 4.815-7.091c.188-.276.5-.442.834-.442Z"/>
	<path fill="#AED6FA" d="M58.4386 15.1301c.3905-2.4895-.0025-4.183-1.349-5.71754C55.6072 7.72357 52.9294 7 49.5031 7h-9.9455c-.7001 0-1.2965.50943-1.4054 1.20139L34.0106 34.4625c-.0815.5182.3191.9866.8432.9866h6.1399l-.4238 2.6873c-.0713.4534.2787.8631.7376.8631h5.1756c.6124 0 1.1338-.4456 1.2294-1.0508l.0508-.2634.9749-6.1823.0629-.3415c.0955-.605.617-1.0512 1.2294-1.0512h.7741c5.0138 0 8.9397-2.0368 10.0867-7.9277.4794-2.4614.2314-4.5161-1.0362-5.9606-.383-.4361-.8601-.7972-1.4165-1.0919Z"/>
	<path fill="#E6F2FC" d="M58.4386 15.1301c.3905-2.4895-.0026-4.183-1.349-5.71754C55.6072 7.72357 52.9294 7 49.5031 7h-9.9455c-.7001 0-1.2965.50943-1.4054 1.20139L34.0106 34.4625c-.0815.5182.3191.9866.8432.9866h6.1399l1.5423-9.7803-.048.3067c.1093-.6916.7002-1.2014 1.4006-1.2014h2.9184c5.7313 0 10.219-2.3285 11.5299-9.0622.0392-.1989.072-.3921.1017-.5818Z"/>
	<path fill="#fff" d="M44.1931 15.163c.0655-.4159.3327-.7568.6922-.9289.1633-.0782.3462-.1219.5374-.1219h7.7961c.9237 0 1.7848.0606 2.572.1874.2248.0362.4439.0779.6567.1252.2125.0473.4192.0997.619.1584.1.0289.1981.06.2949.0919.3866.1284.7467.2796 1.0778.4554.3905-2.4896-.0025-4.1831-1.349-5.71761C55.6072 7.72357 52.9294 7 49.5031 7h-9.9455c-.7001 0-1.2965.50943-1.4054 1.20139L34.0106 34.4625c-.0815.5182.3191.9866.8432.9866h6.1399l1.5423-9.7803 1.6571-10.5058Z"/>
</svg>