<svg xmlns="http://www.w3.org/2000/svg" viewBox="0 0 200 50">
	<path class="bg-logo" fill="#19b5ff" d="M0 0h200v50H0V0Z"/>
	<path fill="#fff" d="M94.4 38.1h-42c-.2 0-.3 0-.3.2s.1.2.3.2L94.3 45h.1v-6.6ZM138.5 12.1c.2 0 .4 0 .5-.2.1-.1.2-.3.2-.5h-.3c0 .1 0 .2-.2.3 0 0-.2.1-.3.1s-.2 0-.3-.1c0 0-.2-.2-.2-.3h-.3c0 .2.1.4.3.5.1.1.3.2.5.2ZM107.1 9.8h-2V8.6h1.9v-.4h-1.9V7.1h2v-.5h-2.5v3.6h2.5v-.4zM101.4 7.1h1.9v3.2h.5V6.6h-2.9v3.6h.5V7.1zM108.2 10.2V8.7h1c.8 0 1.2-.4 1.2-1.1v-.4c0-.1-.1-.3-.3-.4-.3-.2-.6-.3-.9-.3h-1.5v3.6h.5Zm0-3.2h1.5s.2.1.2.2v.6s0 .2-.2.2c-.2.1-.4.2-.6.1h-.9V6.8ZM125.1 12.7v-.4h-2.6v3.6h2.6v-.4H123v-1.3h2v-.4h-2v-1.1h2.1zM146.2 6.2c.1.1.3.2.5.2h.3s.2 0 .2-.1c.1-.1.2-.3.2-.5h-.3s0 .2-.2.2c0 0-.2.1-.3.1-.1 0-.2 0-.3-.1 0 0-.2-.2-.2-.3h-.3V6s.1.2.2.2ZM104.7 14.6l.6-.5 1.3 1.8h.6l-1.6-2.2 1.5-1.4h-.6l-1.8 1.8v-1.8h-.5v3.6h.5v-1.3zM139.3 11.4zM135.9 10.3c.4 0 .9-.1 1.2-.4.3-.3.5-.7.5-1.1h-.4c0 .3-.1.6-.3.8 0 0-.2.2-.3.2h-.9c-.2 0-.3-.2-.4-.3-.2-.3-.4-.7-.3-1.1 0-.4 0-.7.3-1 .1-.1.2-.3.4-.3s.3-.1.5 0c.2 0 .5 0 .7.2.2.1.3.3.4.6h.5c0-.2 0-.4-.1-.5 0-.2-.2-.3-.4-.4-.3-.2-.7-.3-1-.3-.2 0-.5 0-.7.1-.2 0-.4.2-.6.4-.3.4-.5.9-.5 1.3 0 .5.1 1 .5 1.4.3.3.7.5 1.1.5ZM124.5 10.3l.4-1.1h1.5l.4 1.1H128c.1 0 .2-.1.3-.3.2-.3.2-.6.2-.9v-2h1.4v3.2h.5V6.7h-2.3V9.6s0 .2-.2.3h-.5v.3L126 6.7h-.5l-1.4 3.6h.5Zm1.2-3.2.6 1.7h-1.2l.6-1.7ZM119.2 9.4c-.2.3-.3.5-.5.5h-.4v.4h.4c.2 0 .4 0 .5-.2.2-.2.4-.4.5-.6l1.4-2.9h-.5l-1 2.2-1.1-2.2h-.5l1.3 2.7ZM135.8 12.3h.5v3.6h-.5zM119.3 12.3h-.4v3.6h.4v-1.7h2v1.7h.4v-3.6h-.4v1.5h-2v-1.5zM133.2 10.2c.1 0 .3-.1.4-.2.1-.1.2-.2.2-.4v-.8c0-.1-.1-.3-.2-.4-.1 0-.2-.2-.4-.2h-1.5V6.7h-.5v3.6h2Zm-1.5-.4V8.5h.9c.5 0 .8.2.8.7 0 .5-.3.7-.8.7h-.9ZM122 10.2V8.7h1c.8 0 1.2-.4 1.2-1.1v-.4c0-.1-.1-.3-.3-.4-.3-.2-.6-.3-.9-.3h-1.5v3.6h.5Zm0-3.2h1.5s.2.1.2.2v.6s-.1.2-.2.2c-.2.1-.4.2-.6.1h-.9V6.8ZM133.2 12.3h-.5V16h2c.1 0 .3-.1.4-.2.1-.1.2-.2.2-.4v-.9c0-.1-.1-.3-.2-.4-.1 0-.2-.2-.4-.2h-1.5v-1.5Zm.9 1.9c.5 0 .8.2.8.6 0 .4-.3.6-.8.7h-.9v-1.3h.9ZM113.9 9.2c0-.2 0-.4-.2-.6-.1-.2-.3-.3-.5-.3.2 0 .3-.2.4-.3 0-.1.1-.3.1-.5v-.4c0-.1-.1-.2-.3-.3-.2-.1-.5-.2-.8-.2H111v3.6h1.5c.9 0 1.4-.3 1.4-1Zm-2.4-2.1H113.1s.1 0 .1.2v.6s0 .1-.1.2H111.5v-1Zm0 1.5H113.3c0 .2.1.2.1.3v.6s0 .1-.1.2c0 0-.1 0-.2.1h-1.5V8.5ZM114.2 15.9v-3.6h-.6l-1.8 3v-3h-.5v3.6h.6l1.8-3.1v3.1h.5zM114.7 9.8c.1.2.3.3.5.4.2.1.5.2.8.2.2 0 .5 0 .7-.1.2 0 .4-.2.6-.4.3-.4.5-.9.5-1.4 0-.5-.1-1-.5-1.3-.2-.2-.4-.3-.6-.4s-.5-.1-.7-.1c-.2 0-.5 0-.7.1-.2 0-.4.2-.6.4-.3.4-.5.9-.5 1.3 0 .3 0 .5.1.7 0 .2.2.4.3.6Zm.4-2.4c.1-.1.2-.2.4-.3.2 0 .3-.1.5-.1s.4 0 .5.1c.2 0 .3.2.4.3.2.3.4.7.3 1.1 0 .4-.1.8-.3 1.1-.1.1-.2.2-.4.3-.2 0-.3.1-.5 0h-.5c-.2 0-.3-.2-.4-.3-.2-.3-.4-.7-.3-1.1 0-.4.1-.7.3-1ZM110.4 16.8h.4v-1.3h-.4v-3.2h-.4v3.2h-1.9v-3.2h-.5v3.6h2.8v.9zM132.2 20.9s-.2.2-.3.2h-.9c-.2 0-.3-.2-.4-.3-.2-.3-.4-.7-.3-1.1 0-.4.1-.7.3-1 .1-.1.2-.3.4-.3s.3-.1.5 0c.2 0 .5 0 .7.2.2.1.3.3.4.6h.5c0-.2 0-.3-.1-.5 0-.1-.2-.3-.3-.4-.3-.2-.7-.3-1-.3-.2 0-.5 0-.7.1-.2 0-.4.2-.6.4-.3.4-.5.9-.5 1.3 0 .5.1 1 .5 1.4.3.3.7.5 1.1.5.4 0 .9-.1 1.2-.4.3-.3.5-.7.5-1.1h-.4c0 .3-.1.6-.3.8ZM133 20.1zM137.5 20.9v-3h-.5v3.6h.6l1.8-3.1v3.1h.5v-3.6h-.6l-1.8 3zM136.5 17.9h-.6l-1.8 1.8v-1.8h-.5v3.6h.5v-1.2l.6-.6 1.3 1.8h.6l-1.6-2.2 1.5-1.4zM128.4 13.3v-.4c0-.1-.1-.3-.3-.4-.3-.2-.6-.3-.9-.3h-1.5v3.6h.5v-1.5h1c.8 0 1.2-.4 1.2-1.1Zm-2.2.7v-1.3h1.5s.2.1.2.2v.6s0 .2-.2.2c-.2.1-.4.2-.6.1h-.9ZM131.3 15.9h.5v-3.6h-.5v1.5h-1.9v-1.5h-.4v3.6h.4v-1.7h1.9v1.7zM127.3 19.8h1.9v-.4h-1.9v-1.1h2v-.4h-2.5v3.6h2.5v-.4h-2v-1.3zM125.5 17.9v1.6c-.3 0-.7.1-1 .1h-.4s-.2 0-.2-.1c0 0 0-.1-.1-.2v-1.4h-.5v1.3s0 .2.1.3c0 .1.1.2.2.3.1 0 .2.2.4.2h.6c.3 0 .7 0 1-.1v1.6h.5v-3.6h-.5ZM137.6 15.3v-3h-.5v3.6h.6l1.8-3.1v3.1h.5v-3.6h-.6l-1.8 3zM142.4 17.6s.2 0 .2-.1c.1-.1.2-.3.2-.5s-.3 0-.3 0c0 .1 0 .2-.2.3 0 0-.2.1-.3.1-.1 0-.2 0-.3-.1 0 0-.2-.2-.2-.3h-.3c0 .2.1.4.3.5.1.1.3.2.5.2h.3ZM147.6 6.6l-1.8 3.1V6.6h-.5v3.6h.6l1.8-3v3.1h.5V6.6h-.6zM142.1 9.7V6.6h-.5v3.6h.6l1.8-3v3.1h.5V6.6h-.6l-1.8 3.1zM141.2 20.9v-3h-.5v3.6h.5l1.9-3.1v3.1h.4v-3.6h-.6l-1.7 3zM139.6 8.1l1.5-1.5-.6.1-1.8 1.8V6.7h-.5v3.6h.5V9l.6-.6 1.3 1.8h.6l-1.6-2.1zM106.4 17.9c-.2 0-.5-.1-.7-.1-.2 0-.5 0-.7.1-.2 0-.4.2-.6.4-.3.4-.5.9-.5 1.3 0 .3 0 .5.1.7 0 .2.2.4.3.6.1.2.3.3.5.4.2.1.5.2.8.2.2 0 .5 0 .7-.1.2 0 .4-.2.6-.4.3-.4.5-.9.5-1.4 0-.5-.1-1-.5-1.3-.2-.2-.4-.3-.6-.4Zm.3 2.9c-.1.1-.2.2-.4.3-.2 0-.3.1-.5 0h-.5c-.2 0-.3-.2-.4-.3-.2-.3-.4-.7-.3-1.1 0-.4.1-.7.3-1 .1-.1.2-.2.4-.3.2 0 .3-.1.5-.1h.5c.2 0 .3.2.4.3.3.3.4.7.4 1.1 0 .4-.1.8-.3 1.1ZM103.8 17.9h-.6l-1.8 1.8v-1.8h-.5v3.6h.5v-1.2l.6-.6 1.3 1.8h.6l-1.6-2.2 1.5-1.4zM105.4 23.5l-1.4 3.6h.5l.4-1.1h1.5l.4 1.1h.5l-1.4-3.6h-.5Zm-.4 2.2.6-1.7.6 1.6H105ZM103.4 25.3c-.2-.2-.5-.3-.8-.3h-1.2v-1.1h2v-.4h-2.5v3.6h2.1c.1 0 .3-.1.4-.2.1-.1.2-.2.2-.4v-.8c0-.1-.1-.3-.2-.4Zm-1 1.4h-1v-1.3h1c.5 0 .8.2.8.7 0 .4-.3.7-.8.7ZM110.1 25h-1.9v-1.5h-.5v3.6h.5v-1.7h1.9v1.7h.5v-3.6h-.5V25zM101.4 14.8h1.5l.4 1.1h.5l-1.4-3.6h-.5l-1.4 3.6h.5l.4-1.1Zm.8-2.1.6 1.7h-1.2l.6-1.7ZM117 21.5h2.5v-.4h-2.1v-1.3h2v-.4h-2v-1.1h2.1v-.4H117v3.6zM117.8 15.5c.3-.4.5-.9.5-1.4 0-.5-.1-1-.5-1.4-.2-.2-.4-.3-.6-.4-.2 0-.5-.1-.7-.1-.2 0-.5 0-.7.1-.2 0-.4.2-.6.4-.3.4-.5.9-.5 1.3 0 .3 0 .5.1.7 0 .2.2.4.3.6.1.2.3.3.5.4.2.1.5.2.8.2.2 0 .5 0 .7-.1.2 0 .4-.2.6-.4Zm-1.3.1c-.2 0-.3 0-.5-.1-.2 0-.3-.2-.4-.3-.2-.3-.4-.7-.3-1.1 0-.4.1-.8.3-1.1.1-.1.2-.2.4-.3.2 0 .3-.1.5-.1s.3 0 .5.1c.2 0 .3.2.4.3.2.3.4.7.3 1.1 0 .4-.1.8-.4 1.1-.1.1-.3.2-.4.3-.2 0-.3.1-.5.1ZM114.4 20.9l-1.2-3h-.7v3.6h.5v-3l1.1 3h.5l1.1-3v3h.5v-3.6h-.7l-1.1 3zM114.3 23.5h-.6l-1.8 1.8v-1.8h-.5v3.6h.5v-1.2l.6-.6 1.3 1.8h.6l-1.6-2.1 1.5-1.5zM122.5 18.2c-.3-.2-.6-.3-.9-.3h-1.5v3.6h.5V20h1c.8 0 1.2-.4 1.2-1.1v-.4c0-.1-.1-.3-.3-.4Zm-.2 1.1s0 .2-.2.2c-.2.1-.4.2-.6.1h-.9v-1.3H122s.2.1.2.2.1.2.1.4v.3ZM111.7 21.5v-3.6h-.7l-1.1 3-1.1-3h-.7v3.6h.4v-3l1.2 3h.5l1.1-3v3h.4zM95.3 21.3c-1 1.2-2.3 2.1-3.8 2.6v.1c.5.7.8 1.5.7 2.4 0 .7 0 1.3-.4 1.9-.3.6-.7 1.1-1.3 1.5-1.6 1.1-4 1.1-5.1 1.1H80v-9.1h5.4c4.9 0 10.3-2.3 10.4-8.6.1-8.3-9.5-8.3-10.6-8.3h-9.5c-.2 0-.4 0-.6.3-.2.2-.2.4-.2.6v29.1s.1.2.2.2c0 0 .2.1.3.2H86.1c1.6 0 3.2-.2 4.8-.6 1.3-.3 2.4-.9 3.5-1.7.9-.7 1.7-1.7 2.2-2.8.5-1.2.8-2.5.8-3.8 0-.7 0-1.4-.3-2.1-.3-1.1-.8-2.2-1.6-3ZM79.9 9.4h4.8c1.5 0 3.1.2 4.4 1 .5.3.9.8 1.1 1.3s.4 1.1.4 1.7c0 .6 0 1.2-.4 1.7s-.6 1-1.1 1.3c-1.4.9-2.8.9-4.4 1h-4.8v-8ZM52.5 35.3h4.1c.1 0 .2-.1.3-.2.1-.2.2-.4.2-.6V24.3h4.5c1.6 0 3.2-.2 4.8-.6 1.3-.4 2.6-1 3.6-1.9 1-.8 1.8-1.8 2.4-3 .6-1.3.9-2.7.8-4.2 0-1.4-.3-2.8-.8-4.1-.5-1.2-1.3-2.2-2.4-3-1.1-.9-2.3-1.5-3.6-1.9-1.6-.4-3.2-.6-4.8-.6H52.5c-.1 0-.2.1-.3.2-.1.2-.2.4-.2.6v28.7c0 .2 0 .4.2.6 0 0 .2.1.3.2Zm4.6-25.9h4c2.3 0 4 .4 5.1 1.2 1.1.8 1.7 2.1 1.7 4s-.6 3.2-1.7 4c-1.1.8-2.8 1.2-5.1 1.2h-4V9.4Z"/>
</svg>