<svg xmlns="http://www.w3.org/2000/svg" viewBox="0 0 200 50">
	<path class="bg-logo" fill="#ED1A3B" d="M0 0h200v50H0z"/>
	<path fill="#545758" d="M20 9h40.2522v32.5636H20V9Z"/>
	<path fill="#fff" d="M53.6727 26.1815c.3827-1.7743-.3674-3.557-2.1194-4.1735-.8869-.3117-1.7576-.3075-2.6121.0126-1.3257.4954-2.0507 1.4848-2.1751 2.9683-.1669 1.9983 1.0479 3.5305 3.0546 3.7865 1.7674.2269 3.4651-.8043 3.852-2.5939Zm-1.4105-1.3159.0044.8405c.0052 1.0058-.8312 1.8511-1.837 1.8563l-.334.0018c-1.0058.0053-1.851-.8311-1.8563-1.837l-.0044-.8405c-.0053-1.0058.8312-1.851 1.837-1.8563l.334-.0018c1.0058-.0052 1.851.8312 1.8563 1.837ZM29.0746 28.618v-2.125c0-.0723.0362-.1071.1086-.1043 1.5795.0542 3.312-.1601 3.472-2.1208.1197-1.4807-.9226-2.3477-2.3365-2.3741-.8665-.0149-1.7381-.0167-2.6148-.0056-.0519.0009-.0779.0274-.0779.0793v6.6519c0 .0523.0437.096.096.096l1.2566-.0013c.064 0 .096-.0321.096-.0961Zm0-3.4122-.0027-2.1848c0-.0266.0235-.0501.0501-.0501l1.0284-.0014c.5728-.0008 1.0707.4652 1.0715 1.0451v.192c.0007.5799-.496 1.0471-1.0688 1.0479l-1.0284.0014c-.0265 0-.0501-.0235-.0501-.0501Zm6.0033-.4344 2.8681-.0041c.0259 0 .0488-.0229.0488-.0488l.0027-2.7887c0-.0266.0222-.0487.0487-.0487l1.3457.0041c.0266 0 .0487.0222.0487.0487l-.0014 6.7326c0 .0259-.0228.0487-.0487.0487l-1.3456-.0055c-.0259 0-.0488-.0229-.0488-.0487l-.0027-2.8584c0-.0265-.0222-.0487-.0487-.0487h-2.8668c-.0258 0-.0487.0229-.0487.0487v2.8625c0 .0259-.0228.0488-.0487.0488h-1.3512c-.0259 0-.0487-.0229-.0487-.0488v-6.7339c0-.0259.0228-.0487.0487-.0487l1.3512.0041c.0259 0 .0487.0229.0487.0487v2.7874c0 .0259.0229.0487.0487.0487Zm9.964.9327c-.1494-.2533-.3776-.4513-.6847-.5942-.0557-.026-.0557-.0524 0-.0793.2199-.1076.4008-.27.5427-.4871.5789-.886 1.1555-1.771 1.7298-2.6552.0018-.004-.0012-.0092-.0056-.0097-.5863-.0074-1.0975.0083-1.5335.0473-.0216.0017-.0416.0133-.0529.0306-.5362.7635-1.0507 1.547-1.5433 2.3504-.2528.413-.6641.403-1.0905.3926-.0219-.0005-.0439-.001-.0659-.0015-.0483-.0019-.0724-.0269-.0724-.0752v-2.6566c0-.021-.0083-.0412-.0232-.056-.0149-.0149-.0351-.0233-.0561-.0233l-1.2622-.0028c-.0519 0-.0779.026-.0779.078v6.656c0 .051.0444.0961.0946.0961h1.2427c.0548 0 .0821-.027.0821-.0808v-2.7943c0-.052.026-.0793.078-.0821.0273-.0016.0554-.0033.0841-.005.41-.0252.9462-.058 1.153.2944.4602.7793.9106 1.5424 1.3512 2.2892.1494.2542.3749.3809.6764.3799h1.1578c.0201-.0001.0319-.0275.0222-.0431-.5928-1.0103-1.1749-1.9997-1.7464-2.9683ZM132.054 20.2491c.032.5901-.578.7432-.959.4551-.14-.1075-.13-.3532-.157-.5107-.008-.0408-.032-.0612-.073-.0612h-.668c-.147.0005-.28.1169-.3.2616-.078.5483.314.917.814 1.0228.801.1698 2.581.1962 2.382-1.066-.022-.1438-.106-.2161-.252-.2171l-.673-.0027c-.08 0-.118.0394-.114.1182Zm-59.8311 8.4348V22.995c0-.0221.0196-.0417.0417-.0417l2.6622-.0014c.0221 0 .0417.0196.0417.0417v5.6875c0 .0222.0196.0418.0417.0418l1.3777.0028c.0222 0 .0418-.0196.0418-.0418v-6.7701c0-.0222-.0196-.0418-.0418-.0418h-5.5901c-.0221 0-.0417.0196-.0417.0418v6.7687c0 .0222.0196.0418.0417.0418l1.3833.0014c.0222 0 .0418-.0196.0418-.0418Zm8.2466-5.6443c-.0362.9361-.1336 1.8847-.2923 2.8458-.1572.9546-.487 2.2892-1.3596 2.7303-.3637.1847-.8043.2357-1.322.1531-.2004-.0315-.3006-.1489-.3006-.3521v-.6053c0-.1336.0668-.1939.2004-.1809.5474.0556.9259-.2412 1.1356-.8907.4951-1.5266.5379-3.2035.5761-4.794.0009-.0492.0259-.0738.0751-.0738h4.3446c.0464 0 .0696.0232.0696.0696v6.7145c0 .0464-.0232.0696-.0696.0696l-1.322-.0014c-.0464 0-.0696-.0228-.0696-.0682v-5.6346c0-.0464-.0227-.0696-.0682-.0696h-1.5071c-.0575 0-.0877.0292-.0904.0877Zm5.522 5.4077.4425-1.2413c.0195-.0528.057-.0793.1127-.0793h2.5453c.0519 0 .0862.0251.1029.0752.1206.372.2612.7681.4217 1.1884.0798.2097.2282.3177.4453.3242.3516.0102.7083.0149 1.0702.014.0686-.001.0904-.033.0654-.0961l-2.6065-6.6797c-.0204-.0538-.0594-.0807-.1169-.0807h-1.3318c-.051 0-.0863.0241-.1057.0724l-2.5912 6.6421c-.0455.116-.0056.1707.1197.1642.3664-.0204.7329-.0403 1.0993-.0598.1453-.0083.2785-.1074.3271-.2436Zm.8572-2.4227.9407-2.6497c.0176-.0491.0353-.0491.0529 0l.9546 2.7123c.0061.0138-.0045.0295-.0194.0292h-1.8648c-.0468 0-.0788-.0483-.064-.0918Zm5.3688-3.0059h-1.9357c-.0229 0-.0431-.0203-.0431-.0431l-.0014-1.0605c0-.0228.0202-.0431.0431-.0431h5.38c.0228 0 .0431.0203.0431.0431v1.0618c0 .0229-.0203.0432-.0431.0432l-1.8982-.0014c-.0229 0-.0431.0203-.0431.0431v5.6193c0 .0236-.0195.0432-.0432.0432h-1.3735c-.0229 0-.0431-.0203-.0431-.0432l.0014-5.6193c0-.0229-.0203-.0431-.0432-.0431Zm5.8155 1.6644V23.027c0-.0221.0196-.0417.0417-.0417h2.8393c.022 0 .041-.0196.041-.0418l.002-1.0297c0-.0222-.02-.0418-.042-.0418h-4.3001c-.0221 0-.0417.0196-.0417.0418v6.7687c0 .0222.0196.0418.0417.0418h4.2991c.022 0 .041-.0196.041-.0418l.002-1.0632c0-.0226-.019-.0417-.042-.0417l-2.8403.0014c-.0221 0-.0417-.0196-.0417-.0418v-1.6574c0-.0221.0196-.0417.0417-.0417h2.2173c.022 0 .041-.0196.041-.0418v-1.0298c0-.0221-.019-.0417-.041-.0417h-2.2173c-.0221 0-.0417-.0196-.0417-.0417Zm5.95.3463c-.183-.0965-.326-.2245-.427-.3841-.553-.873-1.112-1.7367-1.677-2.5912-.1-.1512-.06-.2198.121-.2059.312.025.621.0343.929.0278.308-.0065.544.1215.705.3841.387.6271.787 1.2844 1.2 1.9719.282.4731.64.4787 1.135.4564.046-.0018.068-.0259.068-.0723l-.001-2.7095c0-.0232.012-.0348.035-.0348h1.287c.023 0 .035.0116.035.0348v2.7123c0 .1115.171.0725.232.0713.405-.0078.702-.0136.966-.4499.393-.6531.802-1.3266 1.226-2.0206.119-.1939.292-.2978.519-.3117.401-.0241.761-.0455 1.081-.064.187-.0111.229.0612.127.2171-.544.8294-1.095 1.682-1.653 2.5578-.113.1762-.269.3182-.468.4258-.028.0162-.029.0608.003.0737.307.1322.54.3883.705.6708.562.9528 1.112 1.8866 1.651 2.8013.051.0863.026.1308-.074.1336-.463.0167-.83.0074-1.101-.0278-.236-.0313-.453-.1728-.578-.3772-.422-.6902-.856-1.4134-1.303-2.1695-.238-.4039-.588-.3951-.962-.3857-.096.0024-.194.0048-.292.0002-.053-.0018-.079.0237-.079.0766v2.85c0 .0232-.012.0343-.035.0334h-1.287c-.023 0-.035-.0111-.035-.0334v-2.8486c0-.0436-.021-.0668-.064-.0696-.025-.0016-.051-.0033-.076-.0049-.496-.0327-.941-.0621-1.211.4015-.443.7645-.87 1.4765-1.283 2.1361-.153.2431-.373.3753-.66.3966-.297.0223-.619.0362-.967.0418-.152.0028-.189-.0612-.111-.1921.555-.9323 1.096-1.8513 1.622-2.7567.17-.2904.402-.5145.697-.6722.059-.0315.059-.0626 0-.0932Zm10.02 3.6475-.001-2.8597c0-.0259.022-.0487.048-.0487h2.859c.026 0 .048.0228.048.0487v2.8583c0 .0266.023.0488.049.0488l1.369.0013c.026 0 .049-.0228.049-.0487v-6.7562c0-.0259-.023-.0487-.049-.0487h-1.37c-.026 0-.049.0228-.049.0487l.001 2.7915c0 .0259-.022.0488-.048.0488h-2.859c-.026 0-.048-.0222-.048-.0488l.001-2.7929c0-.0258-.023-.0487-.049-.0487l-1.363.0028c-.026 0-.049.0228-.049.0487v6.7534c0 .0259.023.0488.049.0488l1.363.0013c.026 0 .049-.0228.049-.0487Zm7.342-4.0133c.057-.002.113-.004.17-.0061.722-.0265 1.463-.0536 2.123.2134.673.2728 1.051.7306 1.133 1.3735.196 1.5364-.885 2.4534-2.35 2.4729-.895.0121-1.752.0135-2.57.0042-.049 0-.073-.0241-.073-.0724v-6.7075c0-.0369.033-.0696.07-.0696h1.322c.046 0 .069.0232.069.0696v2.6176c0 .0714.036.1062.106.1044Zm-.11 1.1467.006 1.7589c0 .0207.018.039.039.039l1.167-.0042c.468-.0015.914-.3599.912-.8488v-.1476c-.003-.4879-.45-.842-.917-.8405l-1.168.0042c-.021 0-.039.0183-.039.039Zm4.462-3.9383h1.383c.021 0 .038.0168.038.0376v6.7771c0 .0208-.017.0376-.038.0376h-1.383c-.021 0-.038-.0168-.038-.0376v-6.7771c0-.0208.017-.0376.038-.0376Zm4.223 4.8984c1.074-1.8221 2.01-3.3491 2.808-4.5812.116-.1767.327-.3242.549-.32.351.0065.696.006 1.032-.0014.054-.001.081.0255.081.0793v6.6741c0 .0687-.035.103-.104.103h-1.289c-.046 0-.07-.0232-.07-.0696l.005-4.8748c0-.0148-.003-.0153-.009-.0014-.107.2403-.222.4616-.345.6638-.82 1.3592-1.634 2.6775-2.442 3.955-.242.3822-.796.3581-1.251.3384-.12-.0052-.233-.0101-.331-.0072-.052.0018-.078-.0232-.078-.0752v-6.7117c0-.0464.023-.0696.069-.0696h1.318c.047 0 .071.0242.071.0724.005 1.6171.004 3.1376-.001 4.5617 0 .0835-.011.1688-.034.256-.012.0483-.005.0511.021.0084Zm16.75.8392-.783.0014c-.057 0-.086-.0288-.086-.0863v-5.5831c0-.0464-.023-.0696-.069-.0696h-1.322c-.047 0-.07.0232-.07.0696v5.5998c0 .0455-.023.0682-.068.0682l-2.612.0014c-.047 0-.07-.0232-.07-.0696v-5.5998c0-.0464-.023-.0696-.068-.0696H140.2c-.046 0-.07.0232-.07.0696v6.7145c0 .0454.024.0682.07.0682h5.149c.047 0 .071.0236.071.071l-.001 1.4625c0 .0473.023.071.07.071l.833-.0014c.227 0 .417-.1901.417-.4175v-2.2293c0-.0473-.023-.071-.069-.071Zm2.31-.0306 2.827-.0014c.025 0 .048.0222.048.0473v1.0535c0 .0251-.023.0473-.048.0473l-4.289-.0014c-.025 0-.047-.0222-.047-.0473v-6.7577c0-.0251.022-.0473.047-.0473h4.289c.025 0 .048.0222.048.0473v1.0187c0 .0251-.023.0473-.048.0473h-2.829c-.025 0-.047.0222-.047.0473l.003 1.6421c0 .0251.022.0473.047.0473l2.199.0042c.025 0 .047.0219.047.0473l.001 1.0173c0 .0258-.021.0473-.047.0473l-2.201.0014c-.025 0-.048.0222-.048.0473v1.6449c0 .0251.023.0473.048.0473Zm5.588 1.1049v-2.8736c0-.0222.02-.0418.042-.0418h2.875c.022 0 .042.0196.042.0418l-.002 2.8722c0 .0222.02.0418.042.0418h1.377c.022 0 .041-.0196.041-.0418l.002-6.7687c0-.0222-.02-.0418-.042-.0418h-1.378c-.022 0-.042.0196-.042.0418l.002 2.8054c0 .0222-.02.0418-.042.0418h-2.875c-.022 0-.042-.0196-.042-.0418v-2.8054c0-.0222-.019-.0418-.041-.0418h-1.378c-.022 0-.042.0196-.042.0418v6.7687c0 .0222.02.0418.042.0418l1.378.0014c.022 0 .041-.0196.041-.0418Zm8.665-5.6193.001 5.6165c0 .0244-.022.046-.046.046l-1.336-.0042c-.024 0-.046-.0216-.046-.0459l-.001-5.6124c0-.025-.021-.0459-.046-.0459h-1.926c-.024 0-.046-.0216-.046-.0459l-.001-1.0549c0-.0243.021-.0459.046-.0459h5.371c.025 0 .046.0216.046.0459l-.001 1.0563c0 .0243-.022.0459-.046.0459l-1.923-.0014c-.025 0-.046.0216-.046.0459Zm4.277 5.5562v-2.1319c0-.0677.034-.1002.102-.0974 1.137.032 2.623.0042 3.233-1.1871.427-.8363.342-2.111-.426-2.7386-.442-.3609-.937-.552-1.486-.5734-.675-.0278-1.613-.0334-2.816-.0167-.045.0009-.068.0241-.068.0696v6.7089c0 .0464.023.0696.068.0696h1.289c.07.0009.104-.0334.104-.103Zm0-3.4219v-2.1876c0-.0266.024-.0501.051-.0501h.976c.585 0 1.1.4714 1.1 1.0659v.1559c0 .5945-.515 1.066-1.1 1.066h-.976c-.027 0-.051-.0235-.051-.0501Z"/>
</svg>