<svg xmlns="http://www.w3.org/2000/svg" viewBox="0 0 200 50">
	<path class="bg-logo" fill="#C11F3E" d="M0 0h200v50H0z"/>
	<path fill="#fff" d="M28.5858 27.491c0 2.5584-2.2937 5.3373-6.1754 5.3373-1.1909 0-2.2055-.1324-3.7052-.1324-1.3233 0-2.4701.0442-3.5288.0442-.1323-.4852-.1764-.9705-.1764-1.4557.7058-.0882 1.3674-.2205 2.0732-.4411.0882-.4411.1323-.9704.1323-1.4556v-7.4545c0-1.3674-.0441-2.3819-.1323-3.3082-.7058-.2206-1.3674-.397-2.0732-.4411 0-.4852.0441-.9704.1764-1.4556 1.0146 0 2.1614.0441 3.4406.0441h2.823c1.6762 0 4.1463 0 5.6019-.0441l.2206.2205c.0441 1.588-.0441 2.823-.2647 4.1022-.6616.1323-1.2351.1323-1.8085 0-.0441-.7499-.1764-1.5879-.3529-2.2937h-4.6756v4.7197c.9704-.1764 1.985-.2205 2.9554-.2205 3.3964 0 5.4696 1.9408 5.4696 4.2345Zm-6.837 3.2641c1.7644 0 2.6465-.2646 2.823-.4411.5293-.4411.9263-1.1909.9263-2.3378 0-1.6761-1.3674-2.7348-3.617-2.7348-.6175 0-1.1468.0441-1.7203.0882v5.4255h1.588Zm14.2915-5.4255c-.0441-1.5879-.397-2.6906-1.7203-2.6906-.5293 0-1.1027.0441-1.6762.1323-.1764.5734-.1764 1.2351-.1764 1.8967-.6175.3088-1.2351.397-1.8526.2647-.4411-.7499-.7057-1.7203-.7057-2.779 1.3232-.7939 3.1317-1.3232 4.9402-1.3232 1.4998 0 4.1022.5293 4.1022 3.9257v4.3669c0 .5293.0441 1.235.0882 1.7644.5294-.0883 1.0587-.1765 1.5439-.3088.2646.2205.4411.5734.4411.9704-.8381.8381-2.1173 1.5438-3.2641 1.5438-.5735 0-1.1028-.6616-1.4557-1.6761-1.1909.9704-2.6024 1.6761-3.7493 1.6761-1.9849 0-3.1759-1.0586-3.1759-2.9994.0441-2.6907 3.7935-4.1463 6.6606-4.7639Zm0 4.6757v-2.7348c-1.4997.1764-2.8671.5293-3.1318.7498-.3088.2647-.4852.8822-.4852 1.3233 0 .794.5293 1.4997 1.6321 1.4997.5734 0 1.3674-.3528 1.9849-.838Zm17.4674-.8381c0 .6616.0441 1.2351.0882 1.8085.6617.0882 1.3674.2205 1.7644.4411 0 .4411-.0441 1.1027-.1323 1.3674-.6617-.0441-2.2496-.0441-3.1318-.0441-1.191 0-2.2496.0441-3.1759.0441-.1323-.4411-.1764-.9704-.1764-1.3674.6175-.0882 1.235-.2206 1.8526-.4411.0882-.3529.0882-.8822.0882-1.3233v-1.8526c-1.2351-.0882-2.426-.0882-3.5729-.0882h-1.3674v1.4115c0 .6616.0441 1.235.0882 1.8085.6176.0882 1.2792.2205 1.6762.4411 0 .4411-.0441 1.1027-.1323 1.3674-.6617-.0441-2.2055-.0442-3.0877-.0442-1.2351 0-2.3378.0442-3.2641.0442-.1324-.4411-.1765-.9705-.1765-1.3674.6176-.0883 1.2792-.2206 1.8968-.4411.0882-.3529.1323-.8822.1323-1.3233v-5.1609c0-.3969-.0441-.8821-.0882-1.3232-.6617-.2206-1.2792-.3529-1.8968-.4411 0-.4411.0442-.9704.1765-1.3674.9263 0 1.9408.0441 3.1759.0441 1.0586 0 2.3819-.0441 3.1759-.0441.1323.397.1323.8822.1323 1.3674-.4852.2205-1.0586.3528-1.7203.4411-.0441.5293-.0882 1.1909-.0882 1.8085v1.0586h4.9403v-1.5439c0-.3969-.0441-.8821-.0882-1.3232-.6176-.2206-1.2351-.3529-1.8526-.4411 0-.4411.0441-.9704.1764-1.3674.9263 0 1.8967.0441 3.0877.0441 1.1027 0 2.426-.0441 3.2641-.0441.0882.397.1323.8822.1323 1.3674-.4852.2205-1.1027.3528-1.8085.4411-.0441.5293-.0882 1.1909-.0882 1.8085v4.2345Zm7.5427-3.0436h.3529c.9263 0 1.6762-.0882 1.8967-.3529 1.1028-1.5879 1.3233-4.6756 3.3083-4.6756.8821 0 1.8085.3529 2.5142.8381.0882.5734-.1323 1.2792-.5293 1.7644-.7058-.0882-1.2792-.1323-1.9408-.0882l-1.5439 3.0435c.7499 1.4115 1.6762 2.8672 2.3378 3.617.6176.6617 1.0587.8381 1.8085.8381.2206 0 .4411-.0441.6617-.0882.1764.3529.3087.794.2205 1.2351-.4852.2646-2.029.7057-3.3964.7057-1.3233 0-2.7348-2.2496-3.8376-5.1608h-1.8526v1.2792c0 .6616.0442 1.235.0883 1.8085.6175.0882 1.3233.2205 1.7643.4411 0 .441-.0441 1.1027-.1323 1.3673-.6616-.0441-2.2496-.0441-3.1318-.0441-1.235 0-2.3378.0441-3.2641.0441-.1323-.441-.1764-.9704-.1764-1.3673.6175-.0883 1.2792-.2206 1.8967-.4411.0882-.3529.1323-.8822.1323-1.3233v-5.1168c0-.3969-.0441-.8821-.0882-1.3232-.6616-.2206-1.2792-.3529-1.8967-.4411 0-.4411.0441-.9704.1764-1.3674.9263 0 1.9409.0441 3.1759.0441 1.1028 0 2.4261-.0441 3.2641-.0441.1324.397.1324.8822.1324 1.3674-.5293.2205-1.1028.3528-1.8085.4411-.0441.5293-.0882 1.1909-.0882 1.8085v1.1909h-.0442ZM184.69 14.2581c-.53 1.4556-3.441 9.0425-3.794 9.8365-.308.7057-.75 1.4556-1.764 1.1468-.926-.2646-.926-1.5879-.838-2.2496.132-.8381.529-2.2937.926-3.3964.485-1.4556.971-2.8671 1.412-4.3228.529-1.5879.441-3.2641 2.47-3.9698 1.455-.4852 2.426.7498 1.588 2.9553Zm-7.499 14.4239c-1.103.3529-2.117 1.632-2.117 2.9553 0 .794.485 1.2792.97 1.4556.662.2647 1.279.1324 1.897-.3087.617-.4852 1.191-1.5439 1.279-2.382 0-1.1468-.662-2.1613-2.029-1.7202Zm-4.543-.0882c.573.838-.133 2.1172-1.235 2.9994-1.676 1.3233-3.75 1.8967-5.117 1.9849-3.926.1765-3.882-2.9553-3.882-2.9553s-2.161 2.6025-4.631 2.6466c-1.323 0-2.338-1.3233-2.338-1.3233s-1.5 2.5583-4.058 2.2055c-1.764-.2647-2.823-2.2937-2.823-3.9258 0-.397.044-.7057.132-1.0145-.529.2205-1.102.3529-1.676.4411-1.235.1764-2.779.2205-3.573.2205h-.309c0 .2206.133.8822.794 1.191.442.2205 1.015.3088 1.544.3529.574.0882 1.103.1764 1.412.397.441.3087.706.838.794 1.3674.044.4852-.088.9263-.397 1.235-.397.397-1.324.6617-2.338.6617-.706 0-2.029-.1324-3.176-.9263-.662-.4411-1.588-1.4556-1.941-3.3524 0 .3529-.044.6176-.044.8381-.044 1.0587-.088 4.1022-.441 7.3222-.353 3.22-1.367 6.1754-4.146 5.4696-2.029-.5293-3.22-2.6907-3-6.043.133-1.8967.927-4.1904 1.676-5.7343.309-.7057.927-1.6761.927-1.6761s-1.544 1.1468-3.75.8822c-.617-.0883-1.102-.2647-1.499-.5293.441.7939.573 1.8084-.309 2.6465-.926.8822-2.161.397-2.514.1765-.75-.4852-1.28-1.1469-1.765-1.8967-.485-.7499-1.058-2.5143-1.058-2.5143s-.971 1.0145-1.765 1.7203c-1.102.9704-2.779 2.2055-3.881 2.2055-1.103 0-1.721-.6617-2.118-1.4115-.397-.7058-.485-1.6762-.485-1.6762s-.926 2.4701-2.514 3.9699c-1.059.9704-2.426 1.3674-3.794 1.1027-1.94-.397-2.734-1.8967-3.131-3.3964-.397-1.4116-.353-2.5143-.353-2.5143s-1.368.6617-3.573 3.4406c-.618.7939-1.147 1.4556-2.029 1.3232-.8382-.1323-1.588-.6616-1.8527-1.5879-.2206-.7499-.3088-3.1759.0882-6.2195.3088-2.2495.9704-5.7342.9704-5.7342s-1.2792 3.5729-2.823 7.4104c-1.5879 4.1022-3.1759 7.4545-5.1167 9.0866-1.3674 1.1468-3.1759 1.8085-5.249 1.8967-2.3379.1323-5.7784-.8822-7.7633-3.7052-2.2055-3.0877-2.2055-7.2781-1.1469-9.7041 1.1027-2.4702 3.6611-3.9699 7.1017-4.014 2.2054 0 4.455.5293 5.1608 2.3378.7057 1.8085-.3529 4.1022-1.6762 5.0726-1.3233.9704-3.8816 1.3233-5.249-.1764-.8822-1.0145-.3529-1.985.3087-2.2055.1765-.0882 1.3233-.3088 1.6321-.397.5734-.2205.6616-.6616.6616-.6616s-1.8967-.7058-3.5728.0882c-1.8085.794-2.3378 3.1318-1.7203 5.3373.7498 2.6024 2.6025 4.5874 5.6019 4.5432 2.5143-.0441 3.7934-1.1027 4.808-2.823 1.7202-3.0435 3.3523-7.5427 4.1463-9.7041 1.8967-5.1167 3.7493-10.6304 3.7493-10.6304s-1.6762.1323-5.5137.6175c-2.6907.3529-6.6165 1.1028-7.9839 1.3674-1.6761.3088-3.5728.397-3.7934-1.1909-.2205-1.3233 1.2351-2.0291 4.3669-2.9554 1.8085-.5293 8.2926-1.67615 14.3356-2.07313 5.5134-.35288 9.8804-1.23507 10.6304.9263.441 1.36743-.265 2.51423-2.47 2.69073-1.235.0882-3.132.1764-4.102.3087-1.412.1765-1.765 1.8085-1.765 1.8085s1.147-.1323 2.162.0882c2.646.5735.573 4.411-.486 7.2781-.617 1.7644-1.191 3.5729-1.455 5.4255-.044.3088-.132.9704-.132.9704s2.161-1.4556 3.264-2.3378c.926-.7057 1.411-1.5438 1.72-2.0731.573-.9263 1.72-2.2496 3.882-2.4261 2.205-.1764 3.969 1.0587 4.763 2.5143.486.8381.574 1.5438.574 1.5438s.617-2.1614.926-2.6907c.309-.5293.794-.7057 1.279-.5734.706.2206 1.147.9704 1.324 1.5438.22.7058.176 1.4557-.045 2.1614-.176.7058-.838 3.0877-.838 3.0877s1.412-.4411 3.573-3.0877c.441-.5293 1.809-2.3819 2.029-2.7348.486-.7057 1.412-.5293 2.162.0882.573.4411.926.9704.926 1.6321 0 .7499-.132 1.4997-.132 2.2937-.044 1.4115.441 2.3378.882 2.9994-.265-.7057-.309-1.4997-.265-2.2937.309-2.9112 1.544-4.6756 3.176-5.9548 1.059-.838 2.47-1.5438 4.235-1.4997 1.72.0441 3.352.8381 4.19 2.2055.882 1.4115.485 3.1318.485 3.3964-.044.2647-.088.5294-.088.794.97-2.6907 3.573-4.5433 6.572-4.5433 2.647 0 4.411 1.2351 4.676 3.2641.132 1.0146-.176 1.8526-.706 2.5143.441.0882.794.397 1.015.8381 1.014 1.7643 1.72.397 2.029-.1765.264-.4852 1.102-3.7052 1.499-5.7783.353-1.8085 1.809-1.985 2.691-1.7203.882.2646 1.323 1.0145.926 2.823-.176.8381-.749 3.1759-1.014 4.3669-.132.5293.088.838.75.7498 1.676-.2205 3.132-1.8967 3.97-5.3372.441-1.7644 1.455-2.4261 2.602-2.1614.794.2205 1.544.9263 1.191 2.5142-.22.9704-1.191 3.4406-.926 4.411.397 1.6321 1.985 1.4115 3.44.9263 1.324-.4852 3.132-1.6321 3.794-.6616Zm-61.136-3.8376c-.926 0-1.588 1.2351-1.897 2.7789-.309 1.5439-.617 4.1904.574 4.2345.705.0442 2.029-1.7202 2.558-3.6169.353-1.2351.309-3.3524-1.235-3.3965Zm25.01 8.8661s-1.103 2.1613-1.456 3.9698c-.352 1.8526-.22 2.9113.265 2.9995.838.2205.882-2.3378.97-2.823.045-.9263.221-4.1463.221-4.1463Zm-.132-9.7483c-.441-.5293-1.941-.2205-3 .7499-1.058.9263-1.852 2.5142-1.588 3.0877.353.7939 2.118.3969 3.441-.8822.97-.9704 1.72-2.2937 1.147-2.9554Zm11.953 1.8526c0-.4411-.882-.6175-1.676-.6175-1.367 0-2.911 1.0145-3.308 1.7203h.088c1.147 0 2.206-.0883 3.088-.1765 1.147-.1764 1.808-.6175 1.808-.9263Zm3.397-7.5427c.926-.5293 1.632-2.1614 1.323-3.2641-.176-.7499-.838-1.3233-1.72-1.3233-.574 0-.971.3087-1.279.794-.397.5734-.883 1.9849-.309 3.1758.529 1.1469 1.456.9264 1.985.6176Zm-5.823-.3529c.486-.4852.838-1.4115.838-2.2496 0-.8381-.485-1.9849-1.676-2.029-1.014-.0441-1.588.9704-1.852 1.9849-.265 1.0145.044 1.9408.264 2.3378.309.4411 1.103 1.2792 2.426-.0441Zm-24.348.9704c1.676-.8381 4.014-.4852 4.808-.5734 1.014-.0882 1.588-.5734 1.764-1.4997.088-.5293-.044-.8822-.529-1.2351-.353-.2206-1.809-.9704-4.323-.9704-2.073 0-3.529.4852-4.234.8381-.53.2646-1.191.8381-1.059 1.9849.309 1.6762 2.205 2.1614 3.573 1.4556Z"/>
</svg>