<svg xmlns="http://www.w3.org/2000/svg" viewBox="0 0 200 50">
	<path class="bg-logo" fill="#E00025" d="M0 0h200v50H0z"/>
	<path fill="#fff" d="M20.9136 18.0557v7.4232c0 .4569 0 1.5989-.9136 1.5989v.1142h4.7966v-.1142c-.9137 0-.9137-1.142-.9137-1.5989v-8.5653h3.0836v8.5653c0 .4569 0 1.5989-.9137 1.5989v.1142h4.7966v-.1142c-.9136 0-.9136-1.142-.9136-1.5989v-7.4232c0-.4568 0-1.5989.9136-1.5989v-.1142H20v.1142c.9136 0 .9136 1.1421.9136 1.5989Zm16.4454 1.2562c-.6852 0-1.2562.3426-1.713.9137l-.3426.3426v-1.2563l-3.1978.4568c.3427.1142.6853.4569.5711.9137v8.3369c0 .4568-.2284.7994-.5711.9136h3.883c-.1142 0-.3426-.1142-.4568-.2284-.1142-.2284-.2284-.4568-.2284-.6852v-2.5125l.3426.4568c.3426.3426.9136.571 1.3704.4568 1.3705 0 2.7409-1.3704 2.7409-4.2255.1142-1.9415-.6852-3.883-2.3983-3.883Zm-.3426 4.2256c.1142 1.0278 0 1.9414-.571 2.8551-.1142.1142-.3426.2284-.4568.2284-.7995 0-.7995-.9136-.7995-1.2563V21.596c0-.3426 0-1.2562.7995-1.2562.7994 0 1.0278.9136 1.0278 3.1977Zm7.8801-4.2256c-2.2841 0-3.7687 1.5989-3.7687 4.1114 0 3.8829 3.1977 4.1113 3.7687 4.1113.571 0 3.7687-.2284 3.7687-4.1113 0-2.5125-1.4846-4.1114-3.7687-4.1114Zm1.0278 4.454c0 1.142 0 2.6267-.571 3.1977-.2284.2284-.6852.3426-1.0278 0-.571-.571-.571-2.0557-.571-3.0835v-.7994c0-1.1421 0-2.6267.571-3.0836.2284-.2284.6852-.3426 1.0278 0 .571.5711.571 2.0557.571 3.0836v.6852Zm12.6767-4.454c-.571 0-1.0278.1142-1.3705.571l-.3426.3427V16h-3.1977c.571.1142.571.7994.571 1.142v3.0836l-.3426-.3427c-.3426-.3426-.9136-.571-1.3704-.571-2.0557 0-2.6267 2.6267-2.6267 4.1114 0 2.0556.7994 4.1113 2.6267 4.1113.571 0 1.0278-.1142 1.3704-.4568l.3426-.3426v2.2841c0 .3426 0 1.0278-.571 1.142h3.7688c-.2285 0-.3427-.1142-.4569-.3426-.1142-.2284-.2284-.571-.1142-.7994v-2.2841l.3426.3426c.3427.3426.9137.571 1.3705.4568 1.8273 0 2.6267-2.0557 2.6267-4.1113 0-1.5989-.571-4.1114-2.6267-4.1114Zm-4.1114 6.0528c0 .4569 0 1.2563-.7994 1.2563s-1.0278-.9136-1.0278-3.1977c0-2.2841.3426-3.1977 1.0278-3.1977s.7994.7994.7994 1.2562v3.8829Zm2.9694 1.1421c-.7995 0-.7995-.7994-.7995-1.2563v-3.7687c0-.3426 0-1.2562.7995-1.2562.7994 0 1.0278.9136 1.0278 3.0835 0 2.1698-.3426 3.1977-1.0278 3.1977Zm8.6795-7.1949c-2.1699 0-3.6546 1.7131-3.6546 4.3398 0 2.2841 1.3705 3.8829 3.4262 3.8829 1.2562 0 2.3982-.7994 3.0835-1.9415l-.2284-.1142c-.3426.4569-.9137.7995-1.5989.7995-.9136 0-1.9415-.4568-1.9415-2.9693v-.3426h4.1114c0-1.0279-.3426-2.0557-.9136-2.8552-.6853-.571-1.4847-.7994-2.2841-.7994Zm-.9137 3.1977v-.2284c0-.9136 0-2.5125.9137-2.5125.571 0 .7994.7995.9136 2.5125v.2284h-1.8273Zm9.7074-1.3704c0 .3426.1142 1.3704 1.142 1.3704.6853 0 1.0279-.4568 1.0279-1.142 0-1.9415-2.2841-2.0557-2.7409-2.0557-2.1699 0-3.9972 1.8273-3.883 3.9972v.2284c0 2.2841 1.4847 3.9971 3.4262 3.9971 1.2562 0 2.3982-.6852 3.0835-1.713l-.2284-.3427c-.3427.3427-.9137.5711-1.4847.5711-2.0557 0-2.1699-2.7409-2.1699-3.312 0-.9136.1142-2.9693 1.1421-2.9693.2284 0 .571.1142.571.7995l.1142.571Zm7.7659 0c0 .3426.1142 1.3704 1.142 1.3704.6852 0 1.0278-.4568 1.0278-1.142 0-1.9415-2.284-2.0557-2.6266-2.0557-2.1699 0-3.9972 1.8273-3.9972 3.9972v.2284c0 2.2841 1.4847 3.9971 3.4261 3.9971 1.2563 0 2.3983-.6852 3.0835-1.713l-.2284-.3427c-.3426.3427-.9136.5711-1.4846.5711-2.0557 0-2.1699-2.7409-2.1699-3.312 0-.9136.1142-2.9693 1.142-2.9693.2285 0 .5711.1142.5711.7995l.1142.571Zm8.4511-.571-1.5989 3.7687h-.4568v-3.5403c0-.3426 0-1.0279.571-1.1421h-3.7687c.571.1142.571.6853.571 1.1421v5.4818c0 .4568-.2284.7994-.571.9136h3.7687c-.3426-.1142-.6852-.4568-.571-.9136l1.5989-3.883h.4568V26.05c0 .3426 0 1.0278-.571 1.142h3.8829c-.571-.1142-.571-.7994-.571-1.142v-5.2534c0-.3426 0-1.0279.571-1.1421h-3.8829c.3426.1142.571.4568.571.9137Zm8.1085-1.2563c-2.2841 0-3.7688 1.5989-3.7688 4.1114 0 3.8829 3.1977 4.1113 3.7688 4.1113.571 0 3.7683-.2284 3.7683-4.1113 0-2.5125-1.484-4.1114-3.7683-4.1114Zm1.0283 4.454c0 1.142 0 2.6267-.5715 3.1977-.2284.2284-.6852.3426-1.0279 0-.571-.571-.571-2.0557-.571-3.1977v-.6852c0-1.1421 0-2.6267.4568-3.0836.2285-.2284.6853-.3426 1.0279 0 .5707.5711.5707 2.0557.4567 3.0836l.229.6852Zm8.907-.7994h-1.941v-2.3983c0-.5711.343-.7995.457-.9137h-3.655c.571.2284.571.7995.571 1.1421V26.05c0 .3426 0 1.0278-.571 1.142h3.769c-.228-.1142-.457-.3426-.457-.9136v-2.8551h1.942v2.9693c0 .571-.343.7994-.457.9136h3.769c-.571-.1142-.571-.7994-.571-1.142v-5.3676c0-.3426 0-1.0279.571-1.1421h-3.769c.228.1142.457.3426.457.9137l-.115 2.3983ZM120.5 26.621c-.115 0-.229-.1142-.343-.1142-.114-.1142-.228-.3426-.228-.4568v-4.2256c0-1.142-.343-2.5125-2.855-2.5125-2.513 0-3.312 1.0279-3.312 1.9415-.115.6852.342 1.2562 1.027 1.2562h.229c1.028 0 1.028-.7994 1.028-.9136 0-.1142 0-.3426-.115-.4568v-.1142c-.114-.2284-.228-.3426-.228-.571 0-.3427.343-.6853.685-.6853h.114c.343 0 .914.1142.914 1.0279v1.9414h-.114c-2.513.9137-3.883 1.9415-3.883 3.312 0 .7994.571 1.4846 1.37 1.4846h.115c.799 0 1.484-.4568 1.941-1.0278l.114-.1142h.343v.1142c.228.9136.914 1.0278 1.485 1.0278.799 0 1.484-.3426 1.941-.9136l-.114-.1142c0 .1142 0 .1142-.114.1142Zm-3.198-1.5989c0 .4568 0 1.1421-.685 1.1421-.686 0-.686-.4568-.686-1.0279 0-.7994.457-1.4846 1.028-1.8272l.343-.2284v1.9414Zm6.852-3.6545v.2284c0 2.9693-.114 4.5682-.571 4.9108-.114.1142-.228.1142-.342.1142 0 0-.343 0-.343-.4568v-.2284c0-.1142-.114-.2284-.228-.3427-.115-.1142-.343-.2284-.572-.2284-.342 0-.799.2284-.799 1.0279 0 .6852.571 1.142 1.142 1.142 1.827 0 1.942-2.1699 1.942-5.1392v-2.2841h1.827V26.05c0 .4568 0 1.0278-.571 1.142h3.769c-.571-.1142-.571-.7994-.571-1.142v-5.2534c0-.3426 0-1.0279.571-1.1421h-6.167c.456 0 .913.3426.913 1.7131Zm19.072 3.4261c-.685 0-1.37 0-2.055.2284l-.343.1142v-6.5096h1.827c3.312 0 4.226 1.9415 4.454 3.1977h.229l-.115-3.9971h-11.648v.1142c1.142 0 1.142 1.5988 1.142 2.2841v10.8493c0 .6853 0 2.2841-1.142 2.2841v.1142h7.88c3.426 0 5.481-1.713 5.481-4.5681-.114-1.9415-1.598-4.1114-5.71-4.1114Zm-1.256 7.9943c-1.256 0-1.256-1.0278-1.256-1.4846v-5.4818h.913c2.627 0 2.856 2.7409 2.856 3.6545 0 1.4846-.8 3.3119-2.513 3.3119Zm15.532-1.142v-5.025c0-1.4847-.343-3.0835-3.541-3.0835-3.197 0-4.111 1.3704-4.111 2.5125 0 .7994.571 1.4846 1.371 1.4846h.114c1.256 0 1.37-.9136 1.37-1.142 0-.2284 0-.3426-.114-.571l-.114-.2285c-.114-.2284-.229-.4568-.229-.6852 0-.4568.343-.7994.8-.9136h.114c.457 0 1.142.2284 1.142 1.2562v2.2841l-.228.1142c-2.97 1.0279-4.569 2.3983-4.569 3.9972 0 1.0278.686 1.8272 1.714 1.8272h.114c.913-.1142 1.827-.571 2.398-1.2562l.114-.1142h.457v.2284c.228 1.0278 1.142 1.2562 1.827 1.2562.914 0 1.828-.3426 2.399-1.142l-.115-.1142c-.342.1142-.799 0-.913-.3426v-.3426Zm-3.198-1.1421c0 .571 0 1.3705-.799 1.3705-.571 0-.914-.4568-.914-1.1421 0-.9136.457-1.8272 1.256-2.284l.457-.3427v2.3983Zm11.306-5.1392v2.8551h-2.17v-2.8551c0-.6852.343-1.0278.571-1.142h-4.339c.685.2284.685.9136.685 1.4847v6.3954c0 .4568 0 1.2562-.685 1.4846h4.339c-.228-.1142-.571-.3426-.571-1.142v-3.5403h2.284v3.5403c0 .6852-.342 1.0278-.571 1.142h4.34c-.685-.2284-.685-.9136-.685-1.4846v-6.3954c0-.4569 0-1.2563.685-1.4847h-4.454c.229.1142.571.3426.571 1.142Zm13.362 6.8523-2.855-5.1392 1.028-1.3704c.457-.7995 1.256-1.2563 2.17-1.4847h-3.655c.343.1142.571.4568.571.7994 0 .4568-.228 1.0279-.571 1.3705l-1.37 1.9414h-.457v-2.9693c-.114-.4568.114-.9136.571-1.142h-4.454c.685.2284.685.9136.685 1.4847v6.3954c0 .4568 0 1.2562-.685 1.4846h4.454c-.457-.2284-.571-.6852-.571-1.142v-2.7409h.457l1.256 2.3983c.114.2284.228.571.343.9136 0 .2284-.115.4568-.343.571H180v-.1142c-.571-.3426-.799-.7994-1.028-1.2562ZM29.5931 34.7295s1.4847-.2284 4.2256-.4568 6.5096-.5711 11.0778-1.0279 9.9358-.6852 15.646-1.0278 11.6488-.571 17.7016-.7994c6.0528-.2284 12.2198-.3427 17.9301-.3427 5.7098 0 11.0778 0 15.6458.1143 4.568.1142 8.451.2284 11.078.3426 2.627.1142 4.225.2284 4.225.2284s-1.484.1142-4.225.2284l-11.078.4568-33.5759 1.142-17.93.5711-15.646.4568H33.7045l-4.1114.1142Z"/>
</svg>