<svg xmlns="http://www.w3.org/2000/svg" viewBox="0 0 200 50">
	<path class="bg-logo" fill="#004" d="M0 0h200v50H0z"/>
	<path fill="#fff" d="M42.7373 12.9245h3.4717v12.3774c0 .9811.6037 2.1887 1.2076 2.7924 2.6415 2.6415 7.3961.7548 7.3961-3.1698 0-4.3018-5.5094-5.9623-7.849-2.6415v-4.3773c4.9811-2.5661 11.3208.9811 11.3208 6.9434 0 2.1131-.8302 4.0754-2.2642 5.5094-1.434 1.4339-3.3963 2.2642-5.5094 2.3396-4.8302 0-7.6982-3.9245-7.6982-7.9245l-.0754-11.8491ZM25.0015 43.9434h3.4716V45h-3.4716v-1.0566Zm0-2.4906h3.4716v1.585h-3.4716v-1.585Zm0-3.6226h3.4716v2.6415h-3.4716v-2.6415Zm3.5471-13.1321c0-.9811.6038-2.1887 1.2075-2.7924 2.6415-2.6415 7.3208-.7548 7.3208 3.1698 0 4.3018-5.5094 5.9623-7.849 2.6415v4.3773c4.9811 2.5661 11.3207-.9811 11.3207-7.0188 0-2.1133-.8302-4.0755-2.2641-5.5095-1.434-1.4339-3.3963-2.2641-5.5094-2.3396-4.9812-.0755-7.8491 4.0755-7.7736 8.0755V37h3.5471V24.6981ZM42.7373 6.0566h3.4717V5h-3.4717v1.0566Zm0 2.49057h3.4717v-1.5849h-3.4717v1.5849Zm0 3.62263h3.4717V9.5283h-3.4717v2.6415ZM73.4546 22.9629v.151c0 .0755-.0755.0755-.1509.0755-.0755 0-.151.0755-.2264.0755h-.7548c-.0754 0-.1509 0-.2264-.0755-.0754 0-.0754-.0755-.1509-.0755 0 0-.0755-.0755-.0755-.151v-6.9434l-2.4151 6.9434c0 .0755-.0755.0755-.0755.151-.0754.0755-.0754.0755-.1509.0755-.0755 0-.1509.0755-.2264.0755h-.7547c-.0755 0-.151 0-.2264-.0755-.0755 0-.151-.0755-.151-.0755s-.0754-.0755-.0754-.151l-2.3397-6.9434v7.0944c0 .0755-.0755.0755-.1509.0755-.0755 0-.151.0755-.2264.0755h-.7548c-.0754 0-.1509 0-.2264-.0755-.0754 0-.0754-.0755-.1509-.0755v-8c0-.0755.0755-.151.1509-.2265.0755-.0754.151-.0754.2264-.1509.0755 0 .151-.0755.2264-.0755h1.1321c.1509 0 .3773 0 .5283.0755.151 0 .2265.0755.3774.1509.0755.0755.2264.151.2264.302.0755.1509.1509.3019.1509.4528l1.8113 5.0566 1.8869-5.0566c.0754-.1509.0754-.3019.1509-.4528.0755-.151.1509-.2265.2264-.302.0755-.0754.2264-.1509.3019-.1509.1509 0 .3019-.0755.4529-.0755h1.132c.0755 0 .2264 0 .3019.0755.0755 0 .1509.0755.2264.1509.0755.0755.0755.151.1509.2265 0 .0755.0755.2264.0755.3019l-.2264 7.5471Zm5.8869-2.1131c-.151.4528-.3774.8301-.5284 1.2075-.1509.3019-.3773.5283-.6037.7547-.2264.1509-.4528.3018-.6793.3774-.3019.0755-.6038.0755-.8302.0755h-.3773c-.0755 0-.2265 0-.3019-.0755-.0755 0-.151-.0756-.2264-.0756-.0755 0-.151-.0754-.151-.0754l-.0754-.0755c0-.0755-.0755-.0755-.0755-.1509v-.6038c0-.1509 0-.3774.0755-.5283.0754-.0755.0754-.1509.1509-.1509.0755 0 .0755 0 .1509.0754.0755 0 .0755.0755.151.0755.0754 0 .1509.0755.2264.0755.0755 0 .2264.0754.3019.0754h.2264c.0755 0 .1509-.0754.2264-.1509l.2264-.2264c.0755-.1509.1509-.2264.2264-.3773l-2.7924-5.7359c-.0755-.0754-.0755-.2265-.0755-.3019v-.0755s0-.0755.0755-.0755c.0754-.0754.1509-.0754.2264-.0754h.9811c.0755 0 .2264 0 .3019.0754.0755 0 .151.0755.151.151.0755.0754.0755.1509.1509.2265l1.2076 2.5659c.1509.302.2264.5284.3773.8302.151.3019.2264.5283.3019.8303.0755-.302.1509-.6039.3019-.8303.0754-.3018.2264-.6037.3019-.9056l.9811-2.6416c0-.0754.0755-.0754.0755-.1509.0754-.0755.0754-.0755.1509-.0755.0755 0 .2265-.0754.3019-.0754h.9056c.0755 0 .151 0 .2265.0754l.0755.0755v.0755c0 .0754 0 .1509-.0755.2265l-2.2641 5.5849Zm9.8867 2.1132c0 .0755 0 .0755-.0755.1509h-.1509c-.0755 0-.1509.0755-.2264.0755h-.8302c-.0755 0-.1509 0-.2264-.0755-.0755 0-.0755-.0754-.1509-.0754 0 0-.0755-.0755-.0755-.151v-3.3962h-3.1698v3.3962c0 .0755 0 .0755-.0755.151 0 .0754-.0755.0754-.151.0754-.0754 0-.1509.0755-.2264.0755h-.9056c-.0754 0-.151 0-.2265-.0755-.0754 0-.0754-.0754-.1509-.0754 0 0-.0755-.0755-.0755-.151v-8c0-.0754 0-.0754.0755-.1509 0-.0755.0755-.0755.1509-.0755.0755 0 .1511-.0754.2265-.0754h.9056c.0755 0 .151 0 .2264.0754.0755 0 .0755.0755.151.0755 0 0 .0755.0755.0755.1509v3.0943h3.1698v-3.0943c0-.0754 0-.0754.0755-.1509 0-.0755.0754-.0755.1509-.0755.0755 0 .1509-.0754.2264-.0754h.8302c.0755 0 .1509 0 .2264.0754.0755 0 .0755.0755.1509.0755 0 0 .0755.0755.0755.1509v8.0755Zm8.6793-.0001c0 .0755 0 .0755-.0755.151h-.0754c-.0755 0-.151.0755-.2264.0755h-.8303c-.0754 0-.1509 0-.2264-.0755-.0754 0-.0754-.0755-.1509-.0755 0 0-.0755-.0755-.0755-.151V17.4535c0 .0755-.0754.1509-.151.2264-.0754.0755-.0754.151-.1509.2265l-.1509.3018c-.0755.0755-.151.151-.151.3019l-2.9434 4.3773c0 .0755-.0754.0755-.0754.151-.0755 0-.0755.0755-.151.0755-.0754 0-.1509 0-.2264.0755h-.6792c-.0755 0-.151 0-.2264-.0755-.0755 0-.0755-.0755-.151-.0755v-8.151c0-.0754 0-.0754.0755-.0754.0755-.0755.0755-.0755.1509-.0755.0755 0 .151-.0755.2264-.0755h.8302c.0755 0 .151 0 .2264.0755.0755 0 .0755.0755.151.0755l.0754.0754v5.434c.0755-.1509.151-.3019.3019-.4528.0755-.1509.2265-.3773.3774-.5283l2.9434-4.4529c0-.0754.0755-.0754.0755-.0754.0754 0 .0754-.0755.1509-.0755.0755 0 .1509-.0755.2264-.0755h.6793c.0755 0 .1509 0 .2264.0755.0755 0 .0755.0755.1509.0755v.1509l-.1509 8Zm9.4335 2.1887v.0755l-.075.0755c-.076 0-.151.0754-.227.0754h-.755c-.075 0-.15 0-.225-.0754-.076 0-.076-.0755-.151-.0755 0 0-.076-.0755 0-.0755v-2.0377h-5.812c-.075 0-.1508-.0755-.1508-.0755-.0755-.0755-.0755-.151-.0755-.2264v-7.9246c0-.0754 0-.0754.0755-.0754.0758-.0755.0758-.0755.1508-.0755.076 0 .151-.0755.227-.0755h.83c.075 0 .151 0 .226.0755.075 0 .075.0755.151.0755l.075.0754v6.868h3.095v-6.868c0-.0754 0-.0754.075-.0754.076-.0755.076-.0755.151-.0755.076 0 .151-.0755.227-.0755h.83c.076 0 .151 0 .226.0755.075 0 .075.0755.151.0755l.076.0754v6.868h.905c.076 0 .076 0 .076.0755.075.0755.075.1509.075.3019l-.151 3.0188Zm8.076-2.1887c0 .0755 0 .0755-.076.151-.075.0755-.075.0755-.151.0755-.075 0-.151.0755-.226.0755h-.83c-.075 0-.151 0-.226-.0755-.076 0-.076-.0755-.152-.0755 0 0-.075-.0755-.075-.151V17.529c0 .0754-.076.1509-.151.2264-.076.0755-.076.151-.151.2264l-.151.3019c-.075.0755-.151.1509-.151.3019l-2.943 4.3773c0 .0755-.075.0755-.075.151-.076 0-.076.0755-.151.0755-.076 0-.152 0-.227.0755h-.679c-.076 0-.151 0-.227-.0755-.075 0-.075-.0755-.151-.0755v-8.2265c0-.0754 0-.0754.076-.0754.075-.0755.075-.0755.151-.0755.075 0 .151-.0755.302-.0755h.83c.076 0 .151 0 .226.0755.075 0 .075.0755.151.0755l.076.0754v5.434c.075-.1509.151-.3019.302-.4528.151-.1509.226-.3773.377-.5283l2.944-4.3774c0-.0755.075-.0755.075-.0755.075 0 .075-.0754.15-.0754.076 0 .152-.0755.227-.0755h.679c.076 0 .151 0 .227.0755.075 0 .075.0754.151.0754v.151l-.151 7.9245Zm8.452.0001c0 .0755 0 .0755-.075.1509 0 .0755-.075.0755-.15.0755-.076 0-.152.0755-.303.0755h-.83c-.075 0-.151 0-.227-.0755-.075 0-.075-.0755-.15-.0755 0 0-.075-.0754-.075-.1509v-6.8679h-3.17v6.8679c0 .0755 0 .0755-.076.1509-.075.0755-.075.0755-.151.0755-.075 0-.151.0755-.226.0755h-.831c-.075 0-.151 0-.225-.0755-.076 0-.076-.0755-.152-.0755 0 0-.075-.0754-.075-.1509v-7.9245c0-.0755.075-.151.075-.2264.076-.0755.076-.0755.152-.0755h6.037c.075 0 .151.0755.151.0755.076.1509.151.2264.151.3773l.15 7.7736Zm8.755-.4528c.076.1509.076.2264.076.3773v.0755s0 .0755-.076.0755c-.075.0754-.15.0754-.226.0754h-1.057c-.075 0-.226 0-.302-.0754-.075 0-.075-.0755-.15-.0755 0-.0755-.076-.0755-.076-.1509l-.604-1.7359h-3.17l-.528 1.6604c0 .0755-.075.0755-.075.1509 0 .0755-.076.0755-.152.0755-.075 0-.15.0755-.301.0755h-.906c-.075 0-.151 0-.226-.0755l-.076-.0755v-.0754c0-.151.076-.2264.076-.3774l2.566-7.5472c0-.0754.075-.1509.075-.1509.076-.0755.076-.0755.152-.0755.075 0 .225-.0754.301-.0754h1.132c.151 0 .227 0 .377.0754.076 0 .151.0755.151.0755.076.0755.076.1509.076.2264l2.943 7.5472Zm-3.924-6.1887-1.208 3.6227h2.416l-1.208-3.6227Zm11.623 6.6414c0 .0755 0 .0755-.076.1509 0 .0755-.075.0755-.151.0755s-.151.0756-.227.0756h-.83c-.075 0-.15 0-.226-.0756-.075 0-.075-.0755-.151-.0755 0 0-.075-.0754-.075-.1509V16.095h-1.812c-.151.9812-.226 1.8868-.377 2.6415-.151.7548-.226 1.3585-.378 1.9623-.075.4528-.301.9056-.452 1.283-.151.3019-.378.6038-.604.8302-.226.2264-.453.3018-.755.3773-.301.0756-.604.151-.905.0756h-.151c-.076 0-.076-.0756-.151-.0756 0-.0755-.076-.1509-.076-.2264V22.2082c0-.0754 0-.1509.076-.3018 0-.0756.075-.0756.075-.151h.151c.152 0 .302 0 .453-.0755.151-.0755.227-.1509.302-.3019.151-.2264.226-.4528.301-.6792.152-.3774.227-.7547.303-1.1321.075-.4529.226-1.0566.302-1.7359.075-.6792.226-1.5094.301-2.4905 0-.151.076-.3019.151-.4529.076-.0754.076-.0754.151-.0754h4.528c.076 0 .152.0754.152.0754.075.151.151.2264.151.3775v7.698Zm8.075-2.5659c0 .3773-.075.7546-.151 1.132-.151.3019-.302.6038-.603.9056-.303.3019-.68.4528-1.057.6038-.604.151-1.207.2265-1.736.2265h-2.34c-.075 0-.151-.0755-.151-.0755-.076-.0755-.076-.0755-.151-.151 0-.0755-.075-.151 0-.2264v-7.9246c0-.0754 0-.0754.075-.0754.076-.0755.076-.0755.152-.0755.075 0 .151-.0755.302-.0755h.83c.076 0 .151 0 .226.0755.075 0 .075.0755.151.0755l.075.0754v2.9435h1.208c.528 0 1.056.0755 1.51.1509.377.0755.679.3019.981.5283.226.2264.453.5283.604.8302 0 .3019.075.6792.075 1.0567Zm-1.736.0754c0-.2265 0-.3774-.075-.6038-.076-.1509-.151-.3019-.303-.4528-.15-.1509-.301-.2264-.452-.3019-.302-.0755-.604-.0755-.906-.0755h-.981v2.717h1.057c.302 0 .603 0 .906-.151.151-.0754.301-.1509.452-.3018.151-.151.227-.3019.227-.4528 0 0 .075-.151.075-.3774Zm9.51 2.4906c0 .0755 0 .0755-.076.1509 0 .0755-.076.0755-.151.0755-.076 0-.151.0755-.226.0755h-.83c-.076 0-.151 0-.227-.0755-.075 0-.075-.0755-.151-.0755 0 0-.075-.0754-.075-.1509v-3.3962h-3.17v3.3962c0 .0755 0 .0755-.076.1509-.075.0755-.075.0755-.151.0755-.075 0-.15.0755-.226.0755h-.905c-.076 0-.152 0-.227-.0755-.076 0-.076-.0755-.151-.0755 0 0-.076-.0754-.076-.1509v-8.0755c0-.0754 0-.0754.076-.1509.075-.0755.075-.0755.151-.0755.075 0 .151-.0754.227-.0754h.905c.076 0 .151 0 .226.0754.076 0 .076.0755.151.0755 0 0 .076.0755.076.1509v3.0943h3.17v-3.0943c0-.0754 0-.0754.075-.1509 0-.0755.076-.0755.151-.0755.076 0 .151-.0754.227-.0754h.83c.075 0 .15 0 .226.0754.075 0 .075.0755.151.0755 0 0 .076.0755.076.1509v8.0755Zm7.924-2.566c0 .3773-.076.7546-.151 1.132-.15.3019-.301.6038-.604.9056-.302.3019-.679.4528-1.057.6038-.603.151-1.131.2265-1.735.2265h-2.189c-.076 0-.151-.0755-.151-.0755-.075-.0755-.075-.0755-.075-.151s-.075-.151 0-.2264v-7.9246c0-.0754 0-.0754.075-.0754.075-.0755.075-.0755.151-.0755s.151-.0755.302-.0755h.83c.076 0 .152 0 .227.0755.076 0 .076.0755.15.0755l.076.0754v2.9435h1.057c.528 0 .981.0755 1.509.1509.378.0755.679.2264.981.4528.227.2264.453.4528.604.8303-.076.3773 0 .7546 0 1.1321Zm-1.736.1509c0-.2265 0-.3774-.076-.5284-.075-.1509-.15-.3018-.301-.4528-.151-.1509-.302-.2264-.453-.3018-.302-.0755-.604-.0755-.906-.0755h-.905v2.717h.905c.302 0 .604 0 .906-.151.151-.0755.302-.151.453-.3019.151-.1509.226-.3019.301-.4528 0-.1509.076-.3019.076-.4528Zm4.453 2.415c0 .0755 0 .0755-.075.151-.076.0755-.076.0755-.151.0755-.076 0-.151.0755-.227.0755h-.755c-.075 0-.151 0-.225-.0755-.076 0-.076-.0755-.152-.0755 0 0-.075-.0755-.075-.151v-8.0755c0-.0754 0-.0754.075-.0754.076-.0755.076-.0755.152-.0755.074 0 .15-.0755.301-.0755h.755c.075 0 .151 0 .226.0755.076 0 .076.0755.151.0755l.076.0754v8.0755h-.076Zm8.755.0001c0 .0755 0 .0755-.076.1509-.075.0755-.075.0755-.151.0755-.075 0-.151.0755-.226.0755h-.831c-.075 0-.15 0-.225-.0755-.076 0-.076-.0755-.151-.0755 0 0-.076-.0754-.076-.1509V17.529c0 .0755-.076.151-.151.2264-.076.0755-.076.151-.151.2264-.076.0755-.076.151-.151.3019-.075.0755-.151.1509-.151.3019l-2.944 4.3774c0 .0755-.075.0755-.075.1509-.075 0-.075.0755-.15.0755-.076 0-.151 0-.227.0755h-.679c-.076 0-.151 0-.227-.0755-.075 0-.075-.0755-.151-.0755v-8.2264c0-.0755 0-.0755.076-.0755.075-.0755.075-.0755.151-.0755.075 0 .151-.0755.302-.0755h.83c.075 0 .15 0 .226.0755.076 0 .076.0755.151.0755l.076.0755v5.434c.075-.1509.151-.302.302-.4529.075-.1509.226-.3773.377-.5283l2.943-4.3773c0-.0755.075-.0755.075-.0755.076 0 .076-.0755.152-.0755.075 0 .151-.0755.226-.0755h.679c.076 0 .151 0 .227.0755.076 0 .076.0755.151.0755 0 0 .075.0755 0 .151l-.151 7.9245Zm-1.057-10.566c0 .2264-.075.4528-.151.6792-.076.2264-.226.4528-.377.6038-.227.1509-.453.3018-.755.3773-.377.0755-.754.1509-1.132.1509-.377 0-.755-.0754-1.057-.1509-.301-.0755-.528-.2264-.755-.3773-.15-.151-.301-.3774-.376-.6038-.076-.2264-.152-.4528-.152-.7547v-.1509c0-.0756.076-.0756.152-.0756.075 0 .151-.0755.226-.0755h.755c.075 0 .15 0 .226.0755.075 0 .075.0756.075.0756v.1509c0 .0755 0 .2264.076.3019.075.0754.075.1509.151.2264.075.0754.227.1509.302.1509.15.0755.226.0755.377.0755s.227 0 .378-.0755c.075 0 .226-.0755.301-.1509.076-.0755.151-.151.151-.2264.076-.0755.076-.2264.076-.3019v-.1509c0-.0756.075-.0756.075-.0756.076 0 .151-.0755.227-.0755h.679c.076 0 .151 0 .226.0755.075 0 .075.0756.151.0756.151.1509.151.1509.151.2264ZM69.2282 34.5101v.0755s-.0755.0754-.1509.0754c-.0755 0-.151 0-.2264.0755h-.7548c-.0754 0-.1509 0-.2264-.0755-.0754 0-.0754-.0754-.1509-.0754 0-.0755-.0755-.0755-.0755-.151l-.6038-1.6604c-.0755-.2264-.1509-.3773-.2264-.6037-.0755-.151-.1509-.3019-.3019-.3774-.0754-.0754-.2264-.1509-.3773-.2264-.1509-.0755-.302-.0755-.4529-.0755h-.3019v3.0189s-.0754.0755-.1509.0755c-.0755 0-.1509.0754-.2264.0754h-.7547c-.0755 0-.151 0-.2264-.0754-.0755 0-.0755-.0755-.151-.0755 0 0-.0754-.0755 0-.0755v-7.0944s.0755-.0754.151-.0754c.0754 0 .1509 0 .2264-.0755h.7547c.0755 0 .1509 0 .2264.0755.0755 0 .0755 0 .1509.0754v2.868h.3019c.1509 0 .302 0 .4529-.0755.1509-.0755.2264-.1509.3773-.2264.151-.1509.2264-.2264.3019-.3773.0755-.2264.1509-.3774.2264-.6038l.4529-1.5095c0-.0755.0755-.0755.0755-.1509 0-.0755.0754-.0755.1509-.0755.0755 0 .1509-.0755.2264-.0755h.7547c.0755 0 .151 0 .2264.0755.0755 0 .0755 0 .0755.0755 0 0 .0755.0754 0 .1509v.151c0 .0755-.0755.2264-.0755.3019l-.5283 1.283c-.0755.2264-.1509.4528-.3019.6038-.0754.1509-.1509.3018-.3018.4528-.0755.151-.2264.2264-.3019.3019-.1509.0755-.2264.1509-.3774.2264.151.0755.3019.1509.3774.2264.1509.0755.2264.2264.3773.3019.151.1509.2264.3019.3019.4529.1509.2264.2264.4528.3019.6792l.6038 1.5094c.0754.0755.0754.2264.0754.3019.0755.2264.0755.2264.0755.3019Zm7.1698-.3774c.0755.0755.0755.2265.0755.3019v.0755s0 .0755-.0755.0755c-.0755.0754-.1509.0754-.2264.0754h-1.1321c-.0755 0-.0755 0-.1509-.0754 0 0-.0755-.0755-.0755-.151l-.5283-1.5095h-2.7925l-.4528 1.4341c0 .0754 0 .0754-.0755.1509 0 .0755-.0754.0755-.1509.0755-.0755 0-.1509.0754-.2264.0754h-.7548c-.0754 0-.1509 0-.2264-.0754 0 0 0-.0755-.0754-.0755v-.0755c0-.0754.0754-.2264.0754-.3019l2.2642-6.5661c0-.0754.0755-.0754.0755-.1509.0755-.0755.0755-.0755.1509-.0755.0755 0 .151-.0754.3019-.0754h.9811c.0755 0 .2264 0 .3019.0754.0755 0 .1509.0755.1509.0755 0 .0755.0755.0755.0755.1509l2.4906 6.5661Zm-3.3962-5.434-1.0566 3.1699h2.1131l-1.0565-3.1699Zm13.0565 5.8114v.0755l-.0754.0754c-.0755 0-.151.0755-.2264.0755h-.7547c-.0755 0-.151 0-.2265-.0755-.0754 0-.0754-.0754-.0754-.0754v-6.1133l-2.1132 6.0378c0 .0755-.0755.0755-.0755.1509-.0754 0-.0754.0755-.1509.0755h-.8302c-.0755 0-.151 0-.2264-.0755-.0755 0-.0755-.0754-.151-.0754l-.0754-.0755-2.0378-6.0378v6.1133s-.0755.0754-.1509.0754c-.0755 0-.151.0755-.2264.0755h-.6793c-.0755 0-.151 0-.2264-.0755-.0755 0-.0755-.0754-.151-.0754v-6.9434c0-.0755.0755-.1509.151-.2265.0754-.0755.1509-.0755.2264-.1509.0754 0 .1509-.0755.2264 0h.9811c.151 0 .3019 0 .4529.0754.151 0 .2264.0755.3019.1511.0755.0754.1509.1509.2264.3018.0755.151.1509.2264.1509.3774l1.5849 4.4528 1.6605-4.4528c.0754-.151.0754-.3019.1509-.3774.0755-.0754.1509-.2264.2264-.3018.0755-.0756.1509-.1511.3019-.1511.1509 0 .2264-.0754.3773-.0754h.7547c.0755 0 .151 0 .3019.0754.0755 0 .1509.0755.1509.1511.0755.0754.0755.1509.0755.2264 0 .0754.0755.1509 0 .2264l.1509 6.566Zm6.6416 0v.0755s-.0754.0754-.1509.0754c-.0755 0-.1509.0755-.2264.0755h-.7547c-.0755 0-.151 0-.2264-.0755-.0755 0-.0755 0-.151-.0754l-.0754-.0755v-2.566c-.2264 0-.3775 0-.6039.0754h-.6037c-.3773 0-.7548 0-1.1321-.0754-.3019-.0755-.6037-.2264-.8302-.3775-.2264-.2264-.4528-.4528-.5283-.7546-.1509-.3774-.2264-.7548-.2264-1.2076v-2.1887s.0755-.0755.151-.0755c.0754 0 .1509-.0754.2264-.0754h.7547c.0755 0 .1509 0 .2264.0754.0755 0 .0755 0 .1509.0755l.0755.0755v1.9623c0 .2264 0 .3773.0755.6037.0754.151.1509.302.2264.4529.1509.1509.3018.2264.4529.2264.2264.0755.4528.0755.6792.0755h.5282c.1511 0 .302 0 .5284-.0755v-3.2453s0-.0755.0755-.0755c0 0 .0754-.0755.1509-.0755.0755 0 .1509 0 .2264-.0754h.7547c.0755 0 .151 0 .2264.0754.0755 0 .0755 0 .151.0755v.0755l-.151 7.0189Zm7.6231-.3774c0 .0755.075.2265.075.3019v.0755s0 .0755-.075.0755c-.076.0754-.151.0754-.227.0754h-1.132c-.0754 0-.0754 0-.1509-.0754 0 0-.0755-.0755-.0755-.151l-.5282-1.5095h-2.7925l-.4529 1.4341c0 .0754 0 .0754-.0754.1509 0 .0755-.0755.0755-.151.0755-.0754 0-.1509.0754-.2264.0754h-.7547c-.0755 0-.151 0-.2264-.0754 0 0 0-.0755-.0755-.0755v-.0755c0-.0754.0755-.2264.0755-.3019l2.2642-6.5661c0-.0754.0754-.0754.0754-.1509.0755-.0755.0755-.0755.151-.0755.0754 0 .1509-.0754.3018-.0754h.9812c.0754 0 .2264 0 .3018.0754.0755 0 .151.0755.151.0755 0 .0755.0754.0755.0754.1509l2.4911 6.5661Zm-3.3967-5.434-1.0566 3.1699h2.1132l-1.0566-3.1699Zm8.5277-.7546v.3018c0 .0756 0 .1511-.075.2265 0 .0755-.075.0755-.075.0755h-1.887v5.9622c0 .0755 0 .0755-.076.0755 0 0-.075.0754-.151.0754-.075 0-.151.0755-.226.0755h-.755c-.075 0-.15 0-.226-.0755-.075 0-.075-.0754-.151-.0754v-6.0377h-1.8868l-.0755-.0755c0-.0754 0-.1509-.0754-.2265v-.6037c0-.0755 0-.1509.0754-.2264 0-.0755 0-.0755.0755-.0755h5.3588l.075.0755c0 .0755 0 .1509.075.2264v.3019Zm6.642 6.566v.0755s-.076.0754-.151.0754c-.076 0-.15 0-.226.0755h-.755c-.075 0-.151 0-.226-.0755-.076 0-.076 0-.151-.0754 0 0-.076-.0755 0-.0755v-5.9623h-2.718v6.0378s-.074.0754-.15.0754c-.075 0-.151 0-.227.0755h-.754c-.076 0-.151 0-.227-.0755-.075 0-.075 0-.151-.0754V27.4912c0-.0755.076-.151.076-.151.075-.0754.075-.0754.151-.0754h5.208c.074 0 .074.0754.15.0754.075.0755.151.2264.151.3775v6.7924Zm6.642-4.9811c0 .3773-.076.7546-.227 1.132-.151.3019-.301.6038-.603.8302-.303.2265-.604.3774-.906.5283-.378.151-.83.151-1.283.151h-.604v2.3396c0 .0755 0 .0755-.076.0755 0 0-.075.0754-.15.0754-.076 0-.151.0755-.227.0755h-.754c-.076 0-.152 0-.227-.0755-.076 0-.076 0-.151-.0754v-7.019c0-.0754.075-.1509.075-.1509.076-.0755.227-.1509.378-.1509h2.264c.227 0 .377.0754.604.0754.226.0755.453.151.679.2264.226.1511.453.302.604.4529.15.151.302.3774.377.6038.227.3773.227.6793.227.9057Zm-1.51.1509c0-.2264 0-.4528-.151-.6793-.075-.1509-.226-.3019-.302-.3773-.151-.0755-.301-.151-.452-.151h-1.057v2.4906h.679c.227 0 .378 0 .604-.0755.151-.0754.302-.1509.377-.3018.076-.151.151-.302.227-.4529 0-.1509.075-.3019.075-.4528Zm9.359 1.2075c0 .5283-.076 1.1321-.227 1.6604-.151.4529-.377.9057-.679 1.2076-.301.3773-.679.6038-1.132.7547-.529.1509-.981.3019-1.51.3019-.528 0-1.056-.0755-1.509-.2264-.377-.151-.755-.3774-1.056-.6793-.302-.3019-.529-.7547-.68-1.2076-.15-.5282-.226-1.132-.226-1.7358 0-.5283.076-1.0566.226-1.5849.151-.4528.378-.9057.68-1.2075.301-.3774.679-.6038 1.131-.7548.529-.1509.982-.3019 1.51-.3019.529 0 .981.0755 1.509.2264.378.151.756.3775 1.057.6793.302.3019.528.7547.679 1.2076.151.5283.227 1.1321.227 1.6603Zm-1.585.0755c0-.3773 0-.6792-.076-1.0566-.075-.3019-.151-.6037-.302-.8301-.15-.2265-.377-.3775-.604-.5284-.301-.1509-.603-.2264-.905-.1509-.302 0-.604.0754-.906.2264-.226.1509-.453.3019-.604.5283-.151.2264-.301.5283-.301.8302-.076.3019-.076.6792-.076.9811 0 .3773 0 .7548.076 1.0566.076.3019.15.6038.301.8303.151.2264.378.3773.604.5282.302.151.604.2264.906.151.302 0 .604-.0755.905-.2264.227-.151.454-.3019.604-.5284.151-.2264.302-.5283.302-.8301 0-.3019.076-.6039.076-.9812Zm10.037-.1509c0 .3773-.075.7547-.226 1.1321-.151.3018-.302.6037-.604.9057-.301.2264-.604.4528-.981.6037-.453.1509-.905.2264-1.359.3019v.9811s-.074.0755-.15.0755h-1.208c-.075 0-.075 0-.151-.0755v-1.0566c-.452 0-.906-.0755-1.358-.2264-.378-.0755-.679-.3019-.982-.5283-.225-.2265-.452-.5283-.603-.8302-.151-.3773-.227-.8302-.227-1.2076 0-.3773.076-.7547.227-1.0566.151-.3018.302-.6037.603-.8301.303-.2265.604-.4529.982-.6038.452-.151.906-.2264 1.358-.3019v-.9057s.076-.0755.151-.0755h1.208c.076 0 .076 0 .15.0755v.9812c.454 0 .906.0754 1.359.2264.377.0754.68.3018.981.5283.227.2264.453.5283.604.8302.151.2264.226.6038.226 1.0566Zm-4.528-1.6604c-.227 0-.528.0755-.755.2264-.151.0755-.376.2264-.452.3774-.151.1509-.227.3018-.302.5283-.076.2264-.076.3773-.076.6037s0 .4528.076.6793c.075.2264.151.3774.302.5283.15.1509.301.3019.452.3773.227.0755.454.151.755.2264v-3.5471Zm3.019 1.7358c0-.2264 0-.4528-.076-.6792-.074-.151-.15-.3774-.226-.5283-.151-.1509-.302-.3019-.453-.3773-.226-.0755-.452-.151-.755-.2264v3.3961c.227 0 .529-.0754.755-.2264.151-.0754.378-.2264.453-.3773.152-.1509.226-.3019.302-.5284v-.4528Zm8.754 3.6227v.0755s-.075.0754-.15.0754-.151 0-.226.0755h-.755c-.076 0-.151 0-.227-.0755-.075 0-.075 0-.151-.0754v-4.8302c0 .0754-.075.1509-.075.1509-.076.0755-.076.1509-.151.2264l-.151.2265c-.075.0754-.075.1509-.151.2264l-2.566 3.849c0 .0755-.076.0755-.076.0755s-.075.0755-.151.0755h-.83c-.075 0-.15 0-.226-.0755-.075 0-.075-.0755-.075-.0755v-7.1698s.075-.0755.151-.0755c.075 0 .15 0 .226-.0755h.754c.076 0 .151 0 .227.0755.075 0 .075 0 .151.0755v4.9057c.076-.0755.151-.2264.227-.3774.075-.1509.225-.3019.301-.4529l2.566-3.849.076-.0755s.075-.0755.151-.0755c.075 0 .151 0 .227-.0754h.679c.075 0 .15 0 .225.0754.076 0 .076.0755.076.0755v.0755l-.076 7.0189Zm6.491-6.566v.3018c0 .0756 0 .1511-.075.2265 0 .0755-.076.0755-.076.0755h-1.886v6.0377s-.076.0754-.151.0754c-.076 0-.151.0755-.227.0755h-.755c-.075 0-.151 0-.226-.0755-.075 0-.075-.0754-.151-.0754 0 0-.075-.0755 0-.0755v-5.9622h-1.887l-.075-.0755c0-.0754-.076-.1509-.076-.2265v-.6037c0-.0755 0-.1509.076-.2264 0-.0755 0-.0755.075-.0755h5.359l.075.0755c0 .0755 0 .1509.076.2264-.076.0755-.076.1509-.076.3019Zm6.264 4.4529c0 .3018-.075.6037-.15.9056-.151.3018-.302.5283-.529.7547-.226.2264-.528.3773-.906.4528-.452.1509-.905.1509-1.358.1509h-1.962c-.151 0-.226 0-.302-.0754-.076-.0755-.076-.0755-.076-.151v-6.8679c0-.0754.076-.1509.076-.1509.076-.0755.076-.0755.151-.0755h4.377l.076.0755c0 .0755 0 .1509.075.1509v.6038c0 .0754 0 .151-.075.151 0 .0755-.076.0755-.076.0755h-3.17v1.8112h1.208c.377 0 .755 0 1.207.151.303.0754.529.2264.755.3773.227.1509.378.3774.529.6793.075.3773.15.6792.15.9812Zm-1.509.1509c0-.1509 0-.302-.076-.4529-.075-.1509-.15-.2264-.226-.3019-.151-.0754-.226-.1509-.377-.2264-.227-.0754-.453-.0754-.679-.0754h-.982v2.1132h.982c.226 0 .377-.0001.603-.0755.151 0 .302-.0755.378-.2264.075-.0755.226-.2264.226-.3019.075-.1509.151-.3019.151-.4528Zm8.529 1.5848c0 .0755.075.2265.075.3019v.0755s0 .0755-.075.0755c-.076.0754-.151.0754-.227.0754H160.7c-.076 0-.076 0-.151-.0754 0 0-.075-.0755-.075-.151l-.454-1.5095h-2.792l-.453 1.4341c0 .0754 0 .0754-.075.1509 0 .0755-.076.0755-.151.0755s-.151.0754-.226.0754h-.755c-.076 0-.151 0-.227-.0754 0 0 0-.0755-.075-.0755v-.0755c0-.0754.075-.2264.075-.3019l2.264-6.5661c0-.0754.076-.0754.076-.1509 0-.0755.075-.0755.151-.0755s.151-.0754.302-.0754h.981c.075 0 .226 0 .302.0754.075 0 .151.0755.151.0755 0 .0755.076.0755.076.1509l2.415 6.5661Zm-3.397-5.434-1.057 3.1699h2.114l-1.057-3.1699Zm10.189 5.8114v.0755s-.076.0754-.151.0754c-.076 0-.151.0755-.226.0755h-.755c-.075 0-.151 0-.227-.0755-.075 0-.075-.0754-.151-.0754v-3.0944h-2.717v3.0944s-.075.0754-.15.0754c-.076 0-.151.0755-.227.0755h-.755c-.075 0-.151 0-.226-.0755-.076 0-.076-.0754-.151-.0754 0 0-.076-.0755 0-.0755v-7.0944s.075-.0755.151-.0755c.075 0 .151-.0754.226-.0754h.755c.076 0 .151 0 .227.0754.075 0 .075 0 .15.0755v2.7925h2.717v-2.717c0-.0755 0-.0755.076-.0755 0 0 .075-.0755.151-.0755s.151-.0754.226-.0754h.755c.075 0 .151 0 .226.0754.076 0 .076.0755.151.0755v.0755l-.075 7.0189Zm7.094 0v.0755s-.076.0754-.151.0754-.15 0-.226.0755h-.755c-.075 0-.151 0-.226-.0755-.076 0-.076-.0754-.151-.0754 0-.0755-.076-.0755-.076-.151l-.604-1.6604c-.075-.2264-.151-.3773-.226-.6037-.076-.151-.151-.3019-.302-.3774-.075-.0754-.226-.1509-.377-.2264-.151-.0755-.302-.0755-.453-.0755h-.378v3.0189s-.075.0755-.151.0755c-.075 0-.15.0754-.225.0754h-.755c-.076 0-.151 0-.227-.0754-.075 0-.075-.0755-.151-.0755l-.075-.0755v-7.0189c0-.0755 0-.0755.075-.0755 0 0 .076-.0754.151-.0754.076 0 .151 0 .227-.0755h.755c.075 0 .15 0 .225.0755.076 0 .076 0 .151.0754v2.868h.303c.151 0 .301 0 .452-.0755.151-.0755.227-.1509.378-.2264.151-.1509.226-.2264.301-.3773.076-.2264.151-.3774.227-.6038l.528-1.5095c0-.0755.075-.0755.075-.1509 0-.0755.076-.0755.152-.0755.075 0 .151-.0755.226-.0755h.755c.075 0 .151 0 .227.0755.075 0 .075 0 .075.0755v.2264c0 .0755-.075.2265-.075.3019l-.529 1.2831c-.076.2264-.151.4528-.302.6037-.075.1509-.151.3019-.302.4528-.075.151-.227.2265-.302.3019-.15.0755-.226.151-.377.2264.151.0755.302.151.377.2264.151.0755.227.2264.378.3019.151.1509.226.3019.302.4529.15.2264.226.4528.301.6792l.604 1.5094c.075.0755.075.2264.075.3019.076.3019.076.3019.076.3774Z"/>
</svg>