<svg xmlns="http://www.w3.org/2000/svg" viewBox="0 0 200 50">
	<path class="bg-logo" fill="#2C2D84" d="M0 0h200v50H0z"/>
	<path fill="#EA5616" d="M70.3584 10 60.175 20.175h10.1834v20.3583l10.175-10.15V10h-10.175Z"/>
	<path fill="#fff" d="m60.175 40.5333 10.1833-10.175H60.175V10L50 20.15v20.3833h10.175Zm30.5417-5.0916h5.3416v-15.775h8.1087v15.775h5.341v-20.35H90.7167v20.35Zm51.9083-12.7334h-4.567v-3.0416h10.167v-4.5834h-15.517v20.3584h10.167c4.075 0 7.125-2.0417 7.125-6.3667 0-4.325-3.05-6.3667-7.383-6.3667h.008Zm-.517 8.3917h-4.058v-4.05h4.058c1.259 0 2.5.5 2.5 2.025s-1.275 2.025-2.5 2.025Zm-19.491 0c-3.567 0-5.575-2.6167-5.575-5.8333 0-2.5917 1.458-5.8334 5.466-5.8334.899.0078 1.784.2125 2.595.5999.81.3873 1.526.9477 2.097 1.6418l3.25-3.25c-1.002-1.1985-2.255-2.1623-3.671-2.8232-1.415-.661-2.958-1.003-4.521-1.0018-1.407-.0372-2.807.2139-4.114.7378-1.306.5239-2.492 1.3095-3.485 2.3085-.991.999-1.769 2.1905-2.283 3.5009-.515 1.3105-.756 2.7124-.709 4.1195-.018 2.2442.677 4.4361 1.986 6.2599 1.307 1.8238 3.16 3.1855 5.291 3.8888 2.132.7034 4.431.712 6.568.0249 2.136-.6872 4-2.0348 5.321-3.8486l-3.266-3.2667c-.519.8599-1.253 1.5697-2.13 2.0593-.877.4895-1.866.742-2.87.7324"/>
</svg>