<svg xmlns="http://www.w3.org/2000/svg" viewBox="0 0 200 50">
	<path class="bg-logo" fill="#4D4F53" d="M0 0h200v50H0z"/>
	<path fill="#fff" d="M70.6639 8.92957 62.1578 4v5.02231C55.1482 10.9577 50 17.3755 50 25.0001c0 6.5762 3.8283 12.2577 9.3778 14.9383l1.6566-4.5531c-3.7052-1.9829-6.2268-5.8884-6.2268-10.3852 0-4.9368 3.04-9.1609 7.3496-10.9097l.0006 18.208 8.5061-23.36883Z"/>
	<path fill="#55ED00" d="m62.4939 41.0708 8.5067 4.9295v-5.0217c7.0079-1.936 12.1577-8.3538 12.1577-15.9783 0-6.5763-3.8288-12.2577-9.3788-14.9378l-1.6567 4.5525c3.7052 1.9829 6.2269 5.8885 6.2269 10.3853 0 4.9362-3.04 9.1613-7.3497 10.9096l-.0005-18.2085-8.5056 23.3694Z"/>
	<path fill="#fff" d="M114.376 21.4454c.867 0 1.894-.2855 2.649-.6562l1.265 3.4601c-1.355.7366-3.202 1.0582-4.849 1.0582-4.296 0-7.776-3.4815-7.776-7.7766 0-4.2936 3.48-7.77504 7.776-7.77504 1.647 0 3.09.21492 4.572 1.00904l-1.264 3.4617c-.725-.3954-1.504-.6087-2.373-.6087-2.161 0-3.915 1.7522-3.915 3.913 0 2.1623 1.754 3.9145 3.915 3.9145Zm-9.586 19.5302c-.13-.3938-.612-1.9704-.743-2.3724h-3.664l-.743 2.3724h-1.6003c.282-.8515.9522-2.8465 1.6177-4.8268l.5946-1.7686 1.015-3.0352h2.009l3.157 9.6306h-1.643Zm-2.525-8.4083h-.057l-1.46 4.8858h2.963l-1.446-4.8858Zm-6.4315-1.2206h-6.0503v9.6305H93.77c2.054 0 3.004-1.383 3.004-2.963 0-.8514-.2744-1.529-.8214-2.0343-.5475-.507-1.3502-.7597-2.4074-.7597h-2.1755v-2.7644h4.4638v-1.1091Zm-4.4638 8.5198v-3.5356l1.8316-.0016c.8193 0 1.9443.1493 1.9443 1.7128 0 1.5947-1.1008 1.8244-1.7897 1.8244h-1.9862Zm27.1853-8.5067v9.6158h1.574v-4.4937h1.392c1.416 0 1.723.566 1.977 1.4749l.827 3.0188h1.572l-.869-3.3551c-.191-.6661-.493-1.5356-1.643-1.7703.87-.3248 1.258-1.2501 1.375-1.7965l.646-2.6808h-1.516l-.632 2.4577c-.135.466-.349.9844-.858 1.2518-.213.1116-.479.1789-.813.1789h-1.459v-3.9015h-1.573Zm13.965-11.4795c-.468-1.5324-1.718-2.5726-3.332-2.8088 1.54-.315 2.403-1.5439 2.831-2.6972.395-1.0615 1.558-4.2903 1.558-4.2903h-4.784l-1.193 3.3928c-.486 1.3618-.929 1.9393-2.665 1.9393v-5.3534h-4.824v14.938h4.824v-5.9244c2.02 0 2.509.1657 3.055 1.5947l.67 1.8983.852 2.4314h4.787l-1.779-5.1204Zm8.463-4.4724h2.609c3.831 0 5.772 1.4175 5.772 4.6102 0 3.2353-1.896 4.9826-5.349 4.9826h-7.842v-14.938h12.274v3.593h-7.464v1.7522Zm0 6.0326h2.062c.866 0 1.515-.3675 1.514-1.4323 0-1.0664-.684-1.278-1.624-1.278h-1.952v2.7103Zm-42.0467 3.5602V13.9723H94.594v11.0284h-4.8075v-14.938h13.9805v14.938h-4.8307ZM114.179 35.317v-3.9572h1.615v9.6158h-1.615v-4.4494h-4.141v4.4494h-1.613v-9.6158h1.613v3.9572h4.141Z"/>
</svg>