<svg xmlns="http://www.w3.org/2000/svg" viewBox="0 0 200 50">
	<path class="bg-logo" fill="#bea980" d="M0 0h200v50H0V0Z"/>
	<path fill="#fff" d="M139 22.8c-1.1.2-2.1.7-2.8 1.6-.1.2-.2.1-.2 0 .2-2.5 1.5-4 4-4.4 1.2-.2 2.4-.4 3.5-.5.2 0 .3-.2.3-.3v-1c-.1-.1-.2-.2-.3-.2-1.5.2-2.9.4-4.2.7-2.8.6-4.1 2.3-4.5 5.1-.5 3.1-.8 8.4 2.7 9.9 3.1 1.3 6.5-.2 7.3-3.6.3-1.2.3-2.3 0-3.3-.8-3.1-2.7-4.4-5.8-4Zm1 9.6h-.6c-1.8 0-3.2-1.5-3.2-3.2v-1.7c0-1.8 1.4-3.2 3.2-3.2h.6c1.8 0 3.2 1.5 3.2 3.2v1.7c0 1.8-1.4 3.2-3.2 3.2ZM57.9 18.3H46.6s-.1 0-.1.1v15.2s0 .1.1.1h1.3s.1 0 .1-.1V19.9s0-.1.1-.1h8.2s.1 0 .1.1v13.7s0 .1.1.1h1.3s.1 0 .1-.1V18.4s0-.1-.1-.1ZM64.8 21.9c-1 .2-1.8.7-2.4 1.5-.1.2-.2.2-.2 0v-.9c0-.3-.1-.4-.4-.4h-.7c-.2 0-.3.1-.3.3v16.3s0 .1.1.1h1.4s.1 0 .1-.1v-6c0-.2 0-.2.2 0 .1.2.3.3.4.5 2.5 1.9 5.8 1 7.2-1.8 1.8-3.7.2-10.5-5.4-9.4Zm.5 10.6c-3.1-.3-3.4-4.2-2.8-6.6.9-3.4 5.4-3.4 6.4 0 .8 2.7.2 7.1-3.6 6.6ZM107 30.4h-.1c-.5 1.3-1.5 2-3 2-3.6.1-4.2-3.8-3.6-6.4.8-3.4 5.1-3.7 6.6-.7h.1l1.3-.5v-.1c-.9-2.5-3.4-3.5-5.9-3-3.8.8-4.7 5.2-3.8 8.4.9 2.8 3.4 4.1 6.3 3.5 1.6-.3 2.7-1.3 3.4-3l-1.5-.4ZM115.3 21.8c-1.7 0-3.4.7-4.3 2.2-1.2 1.8-1.3 4.3-.7 6.3.7 2.2 2.6 3.7 5 3.7s4.3-1.5 5-3.7c.6-2 .5-4.5-.7-6.3-.9-1.5-2.5-2.2-4.3-2.2Zm0 10.7c-3.3 0-4.1-3.8-3.4-6.4.4-1.5 1.8-2.7 3.4-2.8 1.6 0 3 1.2 3.4 2.8.6 2.6-.1 6.3-3.4 6.4ZM153.6 22.2c-2.6-.9-5.8-.3-6.7 2.7 0 .1 0 .2.1.3l1.1.3c.1 0 .2 0 .2-.1.6-1.8 2.5-2.4 4.3-1.9 1.1.3 1.7 1.2 1.7 2.6 0 .2-.1.3-.3.4-1.4.1-2.9.3-4.4.6-2.2.5-3.5 1.8-3.2 4.1.3 1.9 2 2.9 3.8 2.9 1.8 0 3.2-.7 4.1-2 0-.1.1-.1.1 0v1.4c0 .1 0 .2.2.2h1.1s.2 0 .2-.2v-7.6c0-1.7-.7-3.2-2.4-3.8Zm-1.3 10.1c-1.2.5-3.4.6-4-.8-.7-1.6.5-2.6 2-3 1.3-.3 2.7-.5 4-.6.1 0 .2 0 .2.2 0 1.8-.4 3.5-2.2 4.2ZM81.8 22.1h-.9c-.2 0-.3 0-.4.2l-5.9 8.4V22.3c0-.2 0-.2-.2-.2h-1.1c-.1 0-.2 0-.2.2v11.1c0 .2.1.3.3.3h.9c.1 0 .3 0 .3-.2l5.7-8.4c.2-.2.2-.2.2 0v8.3c0 .1 0 .2.2.2h1.2c.1 0 .2 0 .2-.2V22.1c0-.1 0-.2-.2-.2ZM96.2 22.1h-1c-.1 0-.2 0-.3.2l-4.2 9h-.2c-1.3-2.8-2.6-5.7-4.1-8.8-.2-.4-.7-.4-1.2-.4-.2 0-.4 0-.4.3v11.1c0 .1 0 .2.2.2h1.1c.1 0 .2 0 .2-.2v-7.2c0-.5 0-.5.3 0l3.3 7.1c.1.3.4.4.7.4.3 0 .5-.2.7-.4l3.4-7.3c.1-.2.2-.2.2 0v7.3c0 .2 0 .2.2.2h1.1c.2 0 .3 0 .3-.2V22.2c0-.1 0-.2-.2-.2ZM133.3 32.2h-1.9s-.2 0-.2-.2v-9.8s0-.2-.2-.2h-1.3s-.2 0-.2.2v9.7s0 .2-.2.2h-5.4s-.2 0-.2-.2v-9.7s0-.2-.2-.2h-1.3s-.2 0-.2.2v11.2s0 .2.2.2h9.3c.1 0 .2 0 .2.2v1.6s0 .2.1.2h1.3s.2 0 .2-.2v-3.1s0-.2-.2-.2ZM167.8 22.1h-1.2s-.2 0-.2.2V27s0 .2-.2.2h-6s-.2 0-.2-.2v-4.7s0-.2-.2-.2h-1.2s-.2 0-.2.2v11.3s0 .2.2.2h1.2s.2 0 .2-.2v-4.7s0-.2.2-.2h6s.2 0 .2.2v4.7s0 .2.2.2h1.2s.2 0 .2-.2V22.4s0-.2-.2-.2ZM180 33.5l-5.7-5.5v-.2l5.1-5.5v-.2h-1.8l-4.8 5.3h-.2v-5.1s0-.1-.1-.1h-1.3s-.1 0-.1.1v11.5h1.4s.1 0 .1-.1v-5.1c0-.1.1-.2.2 0l5.2 5.3h2c.1 0 .2-.1 0-.2ZM35.6 16H24.8c-2.7 0-4.8 2.2-4.8 4.8v10.8c0 2.7 2.2 4.8 4.8 4.8h10.8c2.7 0 4.8-2.2 4.8-4.8V20.8c0-2.7-2.2-4.8-4.8-4.8Zm-4.8 7.9c0-.7.5-1.2 1.2-1.2s1.2.5 1.2 1.2-.5 1.2-1.2 1.2-1.2-.5-1.2-1.2Zm.7 2.4c0 .7-.5 1.2-1.2 1.2s-1.2-.5-1.2-1.2.6-1.2 1.2-1.2 1.2.5 1.2 1.2Zm-1.2-6c.7 0 1.2.5 1.2 1.2s-.5 1.2-1.2 1.2-1.2-.5-1.2-1.2.6-1.2 1.2-1.2Zm-.6 3.6c0 .7-.5 1.2-1.2 1.2s-1.2-.5-1.2-1.2.5-1.2 1.2-1.2 1.2.5 1.2 1.2Zm-3-3.6c.7 0 1.2.5 1.2 1.2s-.5 1.2-1.2 1.2-1.2-.5-1.2-1.2.5-1.2 1.2-1.2Zm0 11.9c-.7 0-1.2-.6-1.2-1.2 0-.7.6-1.2 1.2-1.2s1.2.5 1.2 1.2-.5 1.2-1.2 1.2Zm.6-3.6c0-.7.5-1.2 1.2-1.2s1.2.6 1.2 1.2-.5 1.2-1.2 1.2-1.2-.5-1.2-1.2Zm3 3.6c-.7 0-1.2-.6-1.2-1.2 0-.7.6-1.2 1.2-1.2s1.2.5 1.2 1.2-.5 1.2-1.2 1.2Zm.5-3.6c0-.7.5-1.2 1.2-1.2s1.2.6 1.2 1.2-.5 1.2-1.2 1.2-1.2-.5-1.2-1.2Zm3 3.6c-.7 0-1.2-.6-1.2-1.2 0-.7.6-1.2 1.2-1.2s1.2.5 1.2 1.2-.5 1.2-1.2 1.2Zm0-9.5c-.7 0-1.2-.5-1.2-1.2s.6-1.2 1.2-1.2 1.2.5 1.2 1.2-.5 1.2-1.2 1.2Z"/>
</svg>