<svg xmlns="http://www.w3.org/2000/svg" viewBox="0 0 200 50">
	<path class="bg-logo" fill="#FF8C00" d="M0 0h200v50H0z"/>
	<path fill="#fff" d="M81.7292 40.0857c3.9304.8589 7.8734 1.8742 12.1354 7.2093.3785.4734-.1996.9478-.6339.5653-4.3373-3.808-8.2559-5.0356-11.8673-5.0356-4.0203 0-6.7593.5321-9.5197.5321C61.4368 43.3568 53 34.9933 53 24.6774 53 14.3635 61.4368 6 71.8437 6c10.4079 0 18.8437 8.3625 18.8437 18.6774.005 3.3799-.9177 6.6964-2.6675 9.5882-.0557.0909-.1956.0587-.2093-.046-.6466-4.5896-3.4765-7.1192-7.5936-7.8568-.3571-.0645-.4236-.2827.0489-.3228 1.2559-.1076 3.046-.089 3.9557.0734.0548-.4705.0783-.9508.0783-1.436 0-6.8179-5.5766-12.3466-12.4562-12.3466-6.8795 0-12.4562 5.5277-12.4562 12.3466 0 6.8199 5.5767 12.3476 12.4562 12.3476.1956 0 .3913.002.585-.0068-.191-1.1021-.2693-2.2207-.2338-3.3386.0303-.7532.1849-.8569.5282-.2709 1.7226 2.9443 4.1964 5.6275 9.0051 6.677h.001Zm-.3198-4.5827c.4597 0 .9419.1917 1.3567.5399.8383.7024 1.0936 1.5377.6495 2.1276-.2465.3228-.6456.5008-1.1249.5008-.4695 0-.9488-.1731-1.2814-.4597-.763-.6613-.987-1.7314-.4891-2.3399.1946-.2377.5106-.3687.8892-.3687Zm4.1778-3.0559c.6994.2622.9742 1.3225 1.0466 1.8116.1233.8188-.1369 1.1572-.3991 1.1572-.2856 0-.6456-.3316-1.0681-.986-.4177-.6456-.5703-1.389-.3639-1.7627.1369-.2475.4235-.356.7845-.2201Zm23.8478-11.9896c.153-.445.238-.9214.238-1.4164 0-2.2654-1.702-4.2179-4.036-4.2179-2.334 0-4.035 1.9525-4.035 4.2179 0 2.2655 1.701 4.1906 4.035 4.1906.707 0 1.356-.179 1.917-.4891l-1.516-1.8077c-.036-.0425-.058-.0944-.066-.1495-.007-.055.002-.111.026-.1612.023-.0502.061-.0926.108-.1222.047-.0295.101-.0449.157-.0445h3.173-.001Zm2.632 2.6744 2.349 2.6675c.165.18.03.4715-.218.4715h-3.463c-.069 0-.138-.0152-.201-.0446-.063-.0294-.119-.0723-.164-.1256l-.587-.6994c-1.236.7957-2.676 1.2182-4.146 1.2168-4.215 0-7.6435-3.3992-7.6435-7.577 0-4.1778 3.4285-7.577 7.6435-7.577 4.216 0 7.644 3.3992 7.644 7.577 0 1.5064-.448 2.9091-1.214 4.0908Zm34.337-11.3195c.208 0 .376.1672.376.3736v13.7102c0 .2055-.168.3727-.376.3727h-2.824c-.099.0005-.195-.0383-.265-.108-.071-.0697-.111-.1645-.112-.2637V12.185c0-.2063.168-.3736.377-.3736h2.825l-.001.001Zm-27.151 0c.209 0 .376.1672.376.3736v13.7102c0 .2055-.167.3727-.376.3727h-2.825c-.099.0005-.194-.0383-.265-.108-.07-.0697-.111-.1645-.111-.2637V12.185c0-.2063.168-.3736.376-.3736h2.825v.001Zm22.396 0c.12 0 .235.0577.305.1535.035.0472.058.1021.067.16.009.0579.004.1171-.015.1726l-4.645 13.719c-.025.0741-.073.1384-.137.1838-.064.0454-.14.0698-.219.0696h-2.51c-.078.0004-.155-.0236-.219-.0689-.064-.0453-.112-.1094-.138-.1835l-2.722-8.0152-2.723 8.0152c-.026.0739-.074.138-.138.1832-.064.0453-.14.0694-.218.0692h-2.511c-.079.0002-.155-.0242-.219-.0696-.064-.0454-.112-.1097-.137-.1838l-4.644-13.718c-.018-.0555-.024-.1147-.015-.1726.01-.0579.032-.1128.067-.16.035-.0479.081-.0869.134-.1137.053-.0269.112-.0408.171-.0408h3.162c.166 0 .311.1076.36.2621l2.501 8.1033 2.75-8.1131c.025-.0742.073-.1386.137-.184.064-.0455.141-.0697.22-.0693h2.206c.162 0 .306.1017.356.2533l2.75 8.1121 2.502-8.1033c.024-.0764.072-.1431.137-.1903.065-.0472.143-.0724.223-.0718h3.162v.001ZM101.404 36.8578c.66 0 1.032-.3776 1.032-.9684 0-.5996-.391-.9968-1.051-.9968h-1.117v1.9662h1.136v-.001Zm-2.3364-5.5258h4.0574v1.0242h-2.856v1.5132h1.32c1.21 0 2.067.7748 2.067 2.02 0 1.1807-.838 1.9925-2.038 1.9925h-2.5504V31.332Zm7.0914 5.7664c.662 0 1.09-.6651 1.09-1.2364v-.1291h-.205c-.595 0-1.601.0821-1.601.7473 0 .313.243.6182.717.6182h-.001Zm.876-2.1686h.205v-.0646c0-.6182-.401-.8305-.894-.8305-.465 0-.939.1937-1.32.4529l-.438-.8402c.391-.313 1.154-.5811 1.861-.5811 1.237 0 1.973.6828 1.973 1.8733v2.9423h-1.099v-.3961c0-.1937.029-.3424.029-.3424h-.02c-.287.4989-.856.8491-1.497.8491-.856 0-1.563-.5527-1.563-1.4115 0-1.4106 1.711-1.6512 2.763-1.6512Zm2.588-1.7529h1.182v1.8174h2.03v-1.8174h1.181v4.705h-1.18v-1.9006h-2.03v1.9006h-1.182v-4.705h-.001Zm5.659 0h1.183v1.7998h.577l1.154-1.7998h1.312L118 35.4189v.0186l1.694 2.4454h-1.368l-1.247-1.9104h-.614v1.9094h-1.184v-4.705h.001Z"/>
</svg>