<svg xmlns="http://www.w3.org/2000/svg" viewBox="0 0 200 50">
	<path class="bg-logo" fill="#295294" d="M0 0h200v50H0z"/>
	<path fill="#F7931F" d="M48.1899 18.6777v15.259l15.1526-15.259H48.1899Z"/>
	<path fill="#2E3590" d="M48.1899 18.6783V12H20v21.9373l15.1393-15.259h13.0506Z"/>
	<path fill="#41B4E7" d="M35.1393 18.6777 20 33.9367h28.1899v-15.259H35.1393Z"/>
	<path fill="#fff" d="M78.9607 19.4354c.9153.3886 1.6936 1.0418 2.235 1.8758.5248.8505.7927 1.8345.7716 2.8336.0063.9847-.2608 1.9518-.7716 2.7937-.5438.8172-1.3166 1.4558-2.2216 1.8359-1.0726.4528-2.2284.6749-3.3924.6519H72.615v3.991h-3.3923V18.7835h6.359c1.1601-.0276 2.3125.1947 3.379.6519Zm-1.2505 6.5453c.2738-.2271.491-.5148.6341-.8404.1432-.3256.2085-.6801.1907-1.0354.0201-.3569-.0413-.7137-.1796-1.0433-.1383-.3296-.3498-.6234-.6186-.8591-.6764-.4818-1.4998-.7123-2.3281-.6519H72.615v5.0819h2.7671c.8289.0663 1.6542-.1648 2.3281-.6518Zm5.8535-7.1962h11.8666v2.6606h-8.4875v3.0598h4.0708c1.4443-.0987 2.8794.2953 4.0709 1.1175.4689.3866.8398.8785 1.0825 1.4357.2428.5571.3505 1.1638.3143 1.7704.0354.6532-.0877 1.3052-.3587 1.9005-.2711.5953-.682 1.1163-1.1978 1.5185-1.2853.8874-2.831 1.3183-4.3901 1.2239h-6.971V18.7845Zm6.7847 12.1726c.7036.0447 1.4029-.1372 1.9956-.5189.2291-.1752.4118-.4037.5324-.6657.1206-.2621.1753-.5496.1593-.8375 0-1.3304-.8913-1.929-2.6606-1.929h-3.4323v3.991l3.4056-.0399Zm11.0816-.6389h6.825l1.29 3.1529h3.579l-6.572-14.6338h-3.366l-6.545 14.6338h3.459l1.33-3.1529Zm3.419-8.2082 2.328 5.6273h-4.696l2.368-5.6273Zm14.927-3.3255h11.84v2.6606h-8.488v3.0598h4.071c1.444-.0987 2.879.2953 4.071 1.1175.457.3933.815.8882 1.046 1.445.231.5568.328 1.1599.284 1.7611.035.6532-.088 1.3052-.359 1.9005-.271.5953-.682 1.1163-1.197 1.5185-1.286.8874-2.831 1.3183-4.39 1.2239h-6.878V18.7845Zm6.784 12.1726c.704.0447 1.403-.1372 1.996-.5189.231-.1736.415-.4019.536-.6643.12-.2624.174-.5507.156-.8389 0-1.3304-.892-1.929-2.661-1.929h-3.459v3.991l3.432-.0399Zm11.055-.6389h6.825l1.304 3.1529h3.565l-6.572-14.6338h-3.352l-6.559 14.6338h3.459l1.33-3.1529Zm3.446-8.2082 2.302 5.6273h-4.63l2.328-5.6273Zm23.042-3.3255v14.6337h-3.406V27.445h-6.652v6.0264h-3.419V18.7845h3.406v5.7869h6.652v-5.7869h3.419Zm5.866 8.7669h2.355l3.818 5.92H180l-4.949-7.5962 4.803-7.0907h-3.592l-3.858 5.9333h-2.435v-5.9333h-3.379v14.6869h3.379v-5.92Z"/>
</svg>