<svg xmlns="http://www.w3.org/2000/svg" viewBox="0 0 200 50">
	<path class="bg-logo" fill="#323E48" d="M0 0h200v50H0z"/>
	<path fill="#fff" d="M62.0251 12.6154h6.475c1.434-.0097 2.8144.5444 3.8438 1.5428 1.0295.9983 1.6256 2.3611 1.66 3.7947-.0139 1.4481-.6007 2.8319-1.6321 3.8485s-2.4234 1.5835-3.8717 1.5765h-4.025v4.3749h-2.45V12.6154Zm6.2388 8.4612c.4224.0176.8439-.05 1.2397-.1987.3957-.1488.7574-.3756 1.0636-.6671.3061-.2915.5505-.6416.7185-1.0295.1681-.3879.2563-.8057.2594-1.2284.0031-.4246-.0809-.8452-.2468-1.2361-.1658-.3907-.41-.7435-.7176-1.0361-.3075-.2928-.6717-.5194-1.0702-.6658-.3985-.1465-.8228-.2097-1.2466-.1858h-3.78v6.2388l3.78.0087Zm6.4837 1.1463c-.0354-.7577.0864-1.5145.3577-2.2227.2714-.7083.6865-1.3528 1.2191-1.8927.5326-.5401 1.1712-.9639 1.8756-1.2451.7045-.281 1.4595-.4133 2.2176-.3883 3.5 0 5.25 2.9575 5.25 5.915v.5775h-8.4175c.3325 1.89 1.9688 2.9575 4.1913 2.9575 1.2344-.0082 2.4437-.3498 3.5-.9887v2.0562c-1.2048.7503-2.6068 1.1222-4.025 1.0675-3.4563-.0088-6.1688-2.3012-6.1688-5.8362Zm8.4613-1.1463c-.0099-.3628-.0928-.7199-.2436-1.0501-.1508-.3301-.3666-.6265-.6344-.8714-.2678-.245-.5822-.4335-.9244-.5544-.3423-.1208-.7054-.1716-1.0676-.1491-.7494-.0484-1.4876.1998-2.0556.6908-.568.4912-.9203 1.1858-.9807 1.9342h5.9063Zm4.5937-4.3575h2.4675v4.27h5.5825v-4.27h2.4675v11.0075h-2.4675v-4.6025h-5.5825v4.6025h-2.4675V16.7191Zm12.5654 5.5038c-.036-.7577.086-1.5145.358-2.2227.271-.7083.685-1.3528 1.218-1.8927.533-.5401 1.172-.9639 1.876-1.2451.705-.281 1.46-.4133 2.218-.3883 3.5 0 5.25 2.9575 5.25 5.915v.5775h-8.462c.333 1.89 1.969 2.9575 4.192 2.9575 1.234-.0082 2.443-.3498 3.5-.9887v2.0562c-1.205.7503-2.607 1.1222-4.025 1.0675-3.413-.0088-6.125-2.3012-6.125-5.8362Zm8.461-1.1463c-.01-.3628-.093-.7199-.243-1.0501-.152-.3301-.367-.6265-.635-.8714-.268-.245-.583-.4335-.925-.5544-.342-.1208-.705-.1716-1.067-.1491-.749-.0484-1.488.1998-2.056.6908-.567.4912-.92 1.1858-.98 1.9342h5.906Zm3.859 1.1463c-.005-.7771.149-1.547.452-2.2626.303-.7157.748-1.3621 1.309-1.9001.561-.5378 1.225-.9559 1.953-1.2287.727-.2726 1.503-.3942 2.279-.3574 1.138-.0284 2.265.224 3.282.735v2.0563c-.911-.483-1.927-.7354-2.958-.735-.504-.0273-1.008.0478-1.481.2206-.475.1728-.909.4398-1.276.7848-.368.345-.662.761-.865 1.2228-.203.4618-.31.9599-.315 1.4643-.001.5061.101 1.0073.302 1.472.201.4648.495.8833.864 1.2295.369.3463.806.613 1.283.7835.477.1704.983.2411 1.488.2075 1.1.0422 2.188-.2441 3.124-.8225v2.0562c-1.071.5905-2.277.8922-3.5.875-.775.0235-1.546-.1094-2.269-.3908-.722-.2815-1.38-.7056-1.935-1.2471-.554-.5415-.994-1.1893-1.293-1.9047-.298-.7153-.45-1.4835-.444-2.2586Zm10.675 0c-.005-.7771.149-1.547.452-2.2626.303-.7157.748-1.3621 1.309-1.9001.561-.5378 1.225-.9559 1.953-1.2287.727-.2726 1.503-.3942 2.279-.3574 1.138-.0284 2.265.224 3.282.735v2.0563c-.911-.483-1.927-.7354-2.958-.735-.504-.0273-1.008.0478-1.481.2206-.475.1728-.909.4398-1.276.7848-.368.345-.662.761-.865 1.2228-.203.4618-.31.9599-.315 1.4643-.001.5061.101 1.0073.302 1.472.201.4648.495.8833.864 1.2295.369.3463.806.613 1.283.7835.477.1704.983.2411 1.488.2075 1.1.0422 2.188-.2441 3.124-.8225v2.0562c-1.071.5905-2.277.8922-3.5.875-.773.0163-1.542-.1216-2.26-.4056-.72-.2841-1.375-.7085-1.928-1.2486-.553-.5401-.993-1.185-1.294-1.8971-.301-.712-.458-1.4769-.459-2.2499Zm22.907 3.4475v1.8024c-.424.2446-.911.3601-1.4.3326-.503.0405-1.005-.0917-1.424-.3748-.419-.2832-.728-.7003-.877-1.1827-.505.5648-1.126 1.0136-1.821 1.3158-.695.302-1.446.4502-2.204.4341-2.301 0-4.104-1.3124-4.104-3.6924s1.803-3.2025 4.191-3.2025h3.78v-.1663c0-1.89-1.557-2.38-3.202-2.38-1.215.0301-2.402.3705-3.448.9888v-2.1613c1.25-.6167 2.632-.9172 4.025-.875 2.958 0 5.093 1.4 5.093 4.1913v4.1037c-.015.1278-.004.2573.033.3808.037.1234.097.2383.179.3378.081.0995.182.1817.296.2416.114.06.238.0965.367.1073.188-.016.367-.0859.516-.2012Zm-4.025-2.7125h-2.87c-1.557 0-2.625.3325-2.625 1.4 0 1.2337 1.068 1.6449 2.38 1.6449.582 0 1.158-.1161 1.694-.3415.536-.2254 1.023-.5555 1.43-.9709l-.009-1.7325Zm5.749-6.2388h2.467v4.27H156v-4.27h2.468v11.0075H156v-4.6025h-5.582v4.6025h-2.468l.044-11.0075Zm12.565 5.5038c-.005-.7771.149-1.547.452-2.2626.303-.7157.748-1.3621 1.309-1.9001.561-.5378 1.225-.9559 1.953-1.2287.727-.2726 1.503-.3942 2.28-.3574 1.137-.0284 2.264.224 3.281.735v2.0563c-.911-.483-1.927-.7354-2.958-.735-.504-.0273-1.008.0478-1.481.2206-.474.1728-.908.4398-1.276.7848-.368.345-.662.761-.865 1.2228-.203.4618-.31.9599-.315 1.4643-.001.5061.101 1.0073.303 1.472.2.4648.494.8833.863 1.2295.369.3463.806.613 1.283.7835.477.1704.983.2411 1.488.2075 1.1.0422 2.188-.2441 3.124-.8225v2.0562c-1.071.5905-2.277.8922-3.5.875-.774.0235-1.546-.1094-2.269-.3908-.722-.2815-1.38-.7056-1.934-1.2471-.555-.5415-.994-1.1893-1.294-1.9047-.298-.7153-.449-1.4835-.444-2.2586ZM62.0251 33.6416h1.1463v2.135l1.9687-2.135h1.4l-2.3012 2.4675 2.7125 2.9575h-1.4l-2.3013-2.4763v2.4675h-1.225v-5.4162Zm6.405 0h2.38c.238-.0389.4815-.0257.7137.0388.2323.0644.4477.1787.6315.3348.1837.156.3313.3502.4325.569.1012.2188.1536.457.1536.698 0 .2411-.0524.4793-.1536.698-.1012.2188-.2488.413-.4325.5691-.1838.156-.3992.2703-.6315.3348-.2322.0645-.4757.0777-.7137.0387h-1.2337v2.135h-1.1463v-5.4162Zm2.3013 2.3012c.49 0 .8225-.245.8225-.6562 0-.4113-.3325-.6563-.8225-.6563h-1.155v1.3125h1.155Zm3.605-2.3012h3.9375v.98h-2.87v1.0675h2.3012v.9887h-2.3012v1.4h3.0362v.9888h-4.1037v-5.425Zm5.5912 4.4275h.49c.5878-1.0676.8436-2.2862.735-3.5v-.8225h3.78v4.4362h.735v2.135h-1.0675v-1.0937h-3.6925v1.0675h-1.0325v-2.2225h.0525Zm3.9375 0v-3.4475h-1.5575c.0493 1.1768-.1474 2.3509-.5775 3.4475h2.135Zm3.535-4.4275h1.1463v3.5l2.625-3.5h.9537v5.4162h-1.0325v-3.5l-2.7912 3.5h-.875l-.0263-5.4162Zm10.85 0v.98h-1.75v4.4362h-1.1375v-4.4362h-1.75v-.98h4.6375Z"/>
	<path fill="url(#a)" d="M33.5 33.64H30V18.4412c.0138-2.4997 1.0129-4.8931 2.7805-6.6607 1.7676-1.7676 4.161-2.76672 6.6607-2.7805H51.105v9.3625c0 2.504-.9947 4.9054-2.7653 6.676-1.7705 1.7705-4.172 2.7652-6.676 2.7652h-5.915l1.3125-3.5h4.515c.7807.0047 1.5546-.1459 2.2765-.4431.722-.2971 1.3776-.7348 1.9289-1.2877.5512-.5528.987-1.2098 1.282-1.9326.295-.7228.4434-1.4971.4364-2.2778V12.535h-8.1375c-.7777-.0035-1.5485.1472-2.2677.4432-.7192.296-1.3727.7316-1.9226 1.2815s-.9855 1.2034-1.2815 1.9226c-.296.7192-.4467 1.4899-.4432 2.2677v15.19H33.5Z"/>
  	<radialGradient id="a" cx="0" cy="0" r="1" gradientTransform="translate(30.7087 32.6425) scale(20.4312)" gradientUnits="userSpaceOnUse">
  		<stop stop-color="#D6005E"/>
  		<stop offset="1" stop-color="#E3448A"/>
  	</radialGradient>
</svg>