<svg xmlns="http://www.w3.org/2000/svg" viewBox="0 0 200 50">
	<path class="bg-logo" fill="#990032" d="M0 0h200v50H0z"/>
	<path fill="#fff" d="M91.1 21.1004v-4.1h9.8v-5H85.7v26.2h12.4l3.8-3.8v-9.4l-4-3.8c0-.1-6.8-.1-6.8-.1Zm5.4 11.9h-5.4v-6.9h5.4v6.9Zm12.5-21.1-5.4 26.2h5.3l1.2-6.2h6.9l1.2 6.2h5.4l-5.4-26.2H109Zm2 15 2-10h1l2 10h-5Zm26.9-4.3h-6.6v-10.7h-5.4v26.2h5.4v-10.4h6.6v10.4h5.4v-26.2h-5.4v10.7Zm22.3 2.1 4.6-12.8h-5.5l-3.7 10.4h-3v-10.4h-5.4v26.2h5.4v-10.8h2.9l3.8 10.8h5.7l-4.8-13.4ZM54.1 38.1004h5.4v-21.1h6.8v-5.1H54.1v26.2Zm-19.1-26.2v26.2h5.3v-6.6h6.8l4-3.8v-12l-3.8-3.8H35Zm10.7 14.5h-5.4v-9.4h5.4v9.4Zm27.7-9.4H81v-5.1h-9.2l-3.8 3.8v18.6l3.8 3.8H81v-5.1h-7.6v-16Z"/>
</svg>