<svg xmlns="http://www.w3.org/2000/svg" viewBox="0 0 200 50">
	<path class="bg-logo" fill="#0039A6" d="M0 0h200v50H0z"/>
	<g fill="#fff">
		<path d="m175 35.175-3.8-4.7h-9.7c-3.4-.2-7-2.6-6.5-7.6s6.9-5.3 7-5.2l-2.7-3.6c0-.1-.1-.1-.2 0h-.9c-1.1 0-9 .8-8.4 10.2.6 9.4 9.7 10.8 9.7 10.8l15.5.1Zm-92.4-14.91-5.9-5.9-3.2 3.2 17.9 17.8h6.3l-9.8-9.8v-1.8h7.7v9.4l2.1 2h3.2v-21h-5.3v4.4H88v-4.4h-5.4v6.1Zm-41.6-5.9H25v21.2h5.4v-5.6h11.8s5.8-.5 6-7.2c.1-8-6.6-8.4-7.2-8.4Zm-1.3 10.21h-9.3v-4.7h9.5c.3 0 .7 0 1 .1.3.1.6.2.9.4.3.2.5.5.6.8.1.3.2.6.2.9.3 2.7-2.9 2.5-2.9 2.5Zm103.7-10.41-16.5 16.1-7.9-7.6 8.9-8.6h-7l-12.4 12v-12H103v21.1h3.2l8.8-8.6 9 8.6h4.7l5.4-5.2h8.4v5.2h5.4v-21h-4.5Zm-.9 11.31h-3.8l3.8-3.6v3.6Zm-92.3-2.2h5.2v5.3h-5.2v-5.3Zm5.3-9.01 17.3 17.3 3.1-3.2-14.1-14.1h-6.3Zm-7.4 0 21 21 3.1-3.2-17.8-17.8h-6.3Zm42.1 21.11-17.3-17.31-3.1 3.2 14.1 14.1h6.3v.01Z"/>
		<path d="M49 14.7656h5.2l6.7 6.5h-5.2c-3.7-3.6-6.7-6.5-6.7-6.5Zm26.1 6.3h-4.5l2.3-2.2 2.2 2.2Zm-18.5-6.3h5l6.6 6.4h-5.1c-3.4-3.4-6.5-6.4-6.5-6.4Zm26.3 6.4-6.2-6.2-2.6 2.6 3.6 3.7h5.2v-.1Z"/>
	</g>
	<path fill="#D52B1E" d="M96.3999 34.8648h-5l-6.4-6.4h5c3.5 3.4 6.3 6.2 6.4 6.4Zm-25.8-6.3 2.2 2.2 2.2-2.2h-4.4Zm18.3 6.3c-.2-.3-3.1-3.1-6.4-6.4h-4.9l6.4 6.4h4.9Zm-20.9-6.3h-5.1l6.2 6.2 2.5-2.5-3.6-3.7Z"/>
	<path fill="#0039A6" d="M62.91 28.5656H68l-7.1-7.3h-5.2l7.2 7.3h.01ZM70.6101 28.5641h4.39l.26-.28-7.06-7.12h-5.1l7.5 7.4h.01ZM77.6001 28.4645H82.5001l-7.39-7.4h-4.51l-.26.23 7.26 7.17ZM77.7 21.2656l7.3 7.2H90l-7-7.2h-5.3Z"/>
</svg>