<svg xmlns="http://www.w3.org/2000/svg" viewBox="0 0 200 50">
	<path class="bg-logo" fill="#F68C28" d="M0 0h200v50H0z"/>
	<path fill="#fff" d="M144.775 36.3809H55v4.6193h89.775v-4.6193ZM136.853 14.9136v6.3598h.557l4.754-6.3598h2.789l-5.489 6.6499c2.03.2455 3.257 1.8299 4.24 4.4631.334.9596.78 2.3877 1.361 3.5705h-2.432c-.336-.6472-.782-1.7852-1.183-3.0126-.871-2.3654-2.031-3.4588-4.173-3.4588h-.447v6.4491h-2.276V14.9136h2.299Zm-22.07 14.6834-.179-1.8521h-.089c-.714 1.1603-2.053 2.1869-3.861 2.1869-2.543 0-3.86-2.0976-3.86-4.2176 0-3.5482 2.7-5.4896 7.587-5.4673v-.3124c0-1.205-.29-3.3919-2.857-3.3919-1.182 0-2.387.424-3.28 1.0934l-.513-1.7628c1.049-.7811 2.544-1.2944 4.151-1.2944 3.86 0 4.798 3.0572 4.798 6.0029v5.4895c0 1.272.044 2.5216.2 3.5258h-2.097Zm-.357-7.4979c-2.5-.067-5.334.4463-5.334 3.3027 0 1.7182.982 2.5439 2.165 2.5439 1.651 0 2.677-1.205 3.057-2.4546.067-.2678.134-.5803.134-.8481v-2.5439h-.022ZM103.491 9.15625v2.20925h-7.5872v5.4895c.5579-.0893 1.5844-.1562 2.1646-.1562 1.6736 0 3.3026.424 4.5306 1.3613 1.339 1.0041 2.231 2.6109 2.231 4.9986 0 1.9191-.558 3.3696-1.451 4.4184-1.427 1.629-3.7932 2.2762-6.2033 2.2762-1.5843 0-2.7893-.1116-3.548-.2455V9.15625h9.8633ZM95.9038 27.5664c.5133.1116 1.1157.1562 1.8968.1562 1.4059 0 2.8344-.5133 3.7044-1.5845.603-.7363.959-1.7182.959-3.0124 0-1.5845-.58-2.6333-1.427-3.3474-.916-.7364-2.076-1.0265-3.3257-1.0265-.5132 0-1.2273.067-1.8075.1116v8.703ZM122.57 14.9136v5.9136h5.981v-5.9136h2.276v14.6835h-2.276v-6.65h-5.981v6.65h-2.275V14.9136h2.275ZM55.0222 9.42399C56.2496 9.17852 57.9679 9 60.4002 9c2.4547 0 4.1953.53557 5.378 1.629 1.1158 1.0265 1.8745 2.7225 1.8745 4.7308 0 2.0084-.5802 3.7044-1.6068 4.8425-1.3612 1.4951-3.3695 2.1422-5.7126 2.1422-.5133 0-.9819-.0223-1.3613-.0893v7.3195h-3.9498V9.42399Zm3.9275 9.28321c.3347.0892.7587.1115 1.3389.1115 2.12 0 3.4142-1.2497 3.4142-3.325 0-1.8744-1.1157-3.0125-3.1017-3.0125-.8034 0-1.3613.0892-1.6514.1785v6.0475Zm15.1967-9.55101v7.85501h6.5384V9.15619h3.9721V29.597h-3.9721v-8.5467h-6.5384v8.5467H70.152V9.15619h3.9944Z"/>
</svg>