<svg xmlns="http://www.w3.org/2000/svg" viewBox="0 0 200 50">
	<path class="bg-logo" fill="#241E20" d="M0 0h200v50H0z"/>
	<path fill="#4B9B45" d="M74.8997 21.5623c0-3.7636 2.0454-7.0363 5.1544-8.9999-2.4545-2.78175-6.1362-4.4999-10.2271-4.4999C62.2181 8.0625 56 14.1988 56 21.7259c0 7.5271 6.2181 13.6634 13.827 13.6634 4.1727 0 7.8544-1.8 10.3907-4.7454-3.1908-1.8818-5.318-5.2363-5.318-9.0816ZM139.699 37.762l3.027-3.0272h-1.718l-3.273 3.2726v-6.2999h-1.309v11.1271h1.309v-3.1908l.982-.9 2.7 4.0908h1.636l-3.354-5.0726Zm-5.891-2.2091c-.164-.2454-.491-.4909-.9-.6545-.409-.1636-.818-.2455-1.309-.2455-1.064 0-1.964.4909-2.537 1.3091v-1.1454h-1.227v8.018h1.309v-4.4181c0-.9818.164-1.7181.655-2.1272.409-.4091.9-.5727 1.472-.5727.328 0 .655.0818.982.2454.246.1636.491.4091.573.6545.082.2455.164.6546.164 1.2273v4.909h1.39v-4.909c0-.6545 0-1.0636-.081-1.3091-.164-.4091-.328-.7363-.491-.9818Zm-8.018 3.9272v-1.7999c0-.5728 0-.9818-.082-1.2273-.082-.4091-.246-.6545-.409-.9818-.164-.2454-.491-.4909-.982-.5727-.409-.1636-.982-.2455-1.718-.2455-.655 0-1.309.0819-1.8.2455-.491.1636-.9.4909-1.227.8182-.246.3272-.491.8181-.573 1.3908l1.309.1637c.164-.5727.409-.9818.654-1.2273.328-.2454.819-.3272 1.391-.3272.655 0 1.228.1636 1.555.4909.245.2454.409.5727.409 1.1454v.3273c-.573.1636-1.309.3272-2.455.4909-.572.0818-.981.1636-1.227.1636-.409.0818-.736.2454-.982.4909-.327.1636-.572.4909-.736.8182-.164.3272-.245.6545-.245 1.0636 0 .6545.245 1.2272.736 1.6363s1.145.6545 2.045.6545c.573 0 1.064-.0818 1.473-.2454.491-.1636.982-.4909 1.473-.9 0 .4091.163.7364.327.9818h1.391c-.164-.3273-.246-.6545-.327-.9818v-2.3727Zm-1.555-.2454c0 .5727-.082 1.0636-.245 1.309-.164.4091-.491.7364-.9.9818-.409.2455-.9.3273-1.391.3273s-.9-.1636-1.227-.3273c-.246-.2454-.41-.5727-.41-.8999 0-.2455.082-.4091.164-.6546.164-.1636.327-.3272.573-.4091.245-.0818.654-.1636 1.227-.2454.982-.1636 1.718-.3273 2.209-.4909v.4091Zm-7.609-3.4363c-.245-.3273-.654-.6546-1.063-.8182-.41-.1636-.9-.3273-1.391-.3273-.9 0-1.637.3273-2.209 1.0637v-4.0091h-1.391v11.1271h1.309v-.9818c.573.8182 1.309 1.1454 2.209 1.1454.982 0 1.718-.3272 2.454-1.1454.655-.7363.982-1.8.982-3.1908 0-.5728-.082-1.1455-.245-1.6364-.164-.4909-.409-.9-.655-1.2272Zm-1.227 5.3181c-.409.4909-.982.7363-1.555.7363-.736 0-1.309-.3273-1.718-1.0636-.245-.4091-.409-1.1454-.409-2.1272 0-.9818.246-1.7182.655-2.2091.409-.4909.982-.7363 1.554-.7363.573 0 1.064.2454 1.473.7363.409.4909.573 1.3091.573 2.2909.081 1.0636-.082 1.7999-.573 2.3727Z"/>
	<path fill="#fff" d="M66.4725 29.2546c0 .6545-.5727 1.1454-1.1454 1.1454-.6546 0-1.1455-.5727-1.1455-1.1454l.0819-9.5725c0-2.0455.7363-3.6818 1.9636-4.8272 1.2272-1.1455 2.9454-1.7182 5.0726-1.7182.6545 0 1.1454.4909 1.1454 1.1455 0 .6545-.4909 1.1454-1.1454 1.1454-1.4727 0-2.7.4091-3.4363 1.1454-.7364.7364-1.2273 1.8-1.2273 3.1909l-.1636 9.4907ZM85.5361 12.7272c-2.3727 0-4.5.9818-6.0545 2.5363-1.5545 1.5545-2.5363 3.6817-2.5363 6.0544s.9818 4.4999 2.5363 6.0545c1.5545 1.5545 3.6818 2.5363 6.0545 2.5363s4.4999-.9818 6.0544-2.5363c1.5545-1.5546 2.5363-3.6818 2.5363-6.0545s-.9818-4.4999-2.5363-6.0544c-1.5545-1.5545-3.6817-2.5363-6.0544-2.5363Zm4.5817 13.1725c-1.2272 1.1454-2.7818 1.8817-4.5817 1.8817-1.8 0-3.4363-.7363-4.5818-1.8817-1.1454-1.1455-1.8818-2.7818-1.8818-4.5818 0-1.7999.7364-3.4363 1.8818-4.5817 1.2273-1.1454 2.8636-1.8818 4.5818-1.8818 1.7999 0 3.4363.7364 4.5817 1.8818 1.1454 1.2272 1.8818 2.7818 1.8818 4.5817 0 1.8-.7364 3.4363-1.8818 4.5818ZM108.608 12.809c-.572 0-1.063.4909-1.063 1.0636v9.8998c-.082 1.7182-1.064 2.8636-2.373 3.4363-.654.2455-1.391.4091-2.127.4091-.736 0-1.555-.1636-2.209-.4091-1.4729-.5727-2.6183-1.7181-2.782-3.5181l.0818-9.818c0-.5727-.4909-1.0636-1.0636-1.0636-.5727 0-1.0636.4909-1.0636 1.0636l-.0818 9.9816v.0819c.1636 2.6999 1.9636 4.4999 4.1722 5.318.982.4091 1.964.5728 3.028.5728 1.063 0 2.045-.2455 2.945-.5728 2.045-.8999 3.6-2.6181 3.682-5.318V13.7908c-.082-.5727-.573-.9818-1.146-.9818Zm12.846.7363c-.982-.3272-1.964-.5727-3.028-.5727-1.063 0-2.045.2455-2.945.5727-2.045.9-3.6 2.6182-3.682 5.3181v10.0635c0 .5727.491 1.0636 1.064 1.0636.573 0 1.063-.4909 1.063-1.0636v-9.8998c.082-1.7182 1.064-2.8636 2.373-3.4363.655-.2455 1.391-.4091 2.127-.4091.737 0 1.555.1636 2.209.4091 1.473.5727 2.619 1.7181 2.782 3.5181l-.082 9.818c0 .5727.491 1.0636 1.064 1.0636.573 0 1.064-.4909 1.064-1.0636l.081-9.9817v-.0818c-.163-2.6999-1.963-4.4181-4.09-5.3181ZM143.871 7c-.572 0-.981.4909-.981.9818v8.1817c-1.555-2.0454-4.009-3.2727-6.709-3.2727-4.746 0-8.509 3.8454-8.509 8.5089 0 4.6636 3.681 8.509 8.427 8.509 2.782 0 5.154-1.3091 6.709-3.2727v2.2909c0 .5727.491.9818.982.9818.572 0 .981-.4909.981-.9818V7.9818c.082-.4909-.409-.9818-.9-.9818Zm-7.772 20.8633c-3.6 0-6.464-2.9454-6.464-6.4636 0-3.5999 2.946-6.4635 6.464-6.4635 3.6 0 6.463 2.9454 6.463 6.4635 0 3.6-2.945 6.4636-6.463 6.4636Z"/>
</svg>