<svg xmlns="http://www.w3.org/2000/svg" viewBox="0 0 200 50">
	<path class="bg-logo" fill="#005177" d="M0 0h200v50H0z"/>
	<path fill="#E41A19" d="M41.3364 13H15v23.4668h26.3364V13Z"/>
	<path fill="#fff" d="M51.5499 19.0918h-5.0184v10.4788h1.9992v-4.0052h3.7332c2.3664 0 3.4-1.0336 3.4-3.3388 0-2.89-2.1352-3.128-4.1412-3.128l.0272-.0068Zm2.1012 3.2708c0 1.36-.5304 1.5912-1.8088 1.5912h-3.3116v-3.2504h3.3388c1.1424 0 1.8088.272 1.8088 1.6524l-.0272.0068Zm40.6097-3.2708h2.4208l-4.284 5.1204 4.7804 5.3584h-2.4888L90.65 25.0894h-1.768v4.4812h-1.9992V19.0918h1.9992v4.3792h1.7816l3.5972-4.3792Zm5.0796 3.7128c.7936-.4334 1.6946-.6316 2.5976-.5712h.007c2.856 0 4.019 1.0472 4.019 3.6176 0 3.2368-1.544 3.8692-4.203 3.8692-.777.0208-1.549-.135-2.2574-.4556v3.7808h-1.9312V22.3286h1.7068l.0612.476Zm2.4276.8636c-.66-.0479-1.321.0689-1.9244.34v-.0068c-.0769.0401-.1444.096-.1983.164-.0539.0679-.0929.1464-.1145.2304-.0148.2604-.0148.5216 0 .782v2.108c-.0188.1328.0022.2683.0603.3894.0581.121.1506.2221.2661.2906.4568.2484.9688.377 1.4888.374 1.864 0 2.72-.0068 2.72-2.176s-.306-2.4956-2.298-2.4956Zm34.415.2108h2.842v5.6916h1.877V23.879h2.897v-1.564h-7.616v1.564Zm-20.917 1.6388c.003.2677-.027.5349-.088.7956l-.028.1496h-6.194c.027 1.6932.408 1.8564 2.278 1.8564s2.108-.0612 2.108-1.0744v-.204h1.863v.204c.048.2932.035.5934-.039.8813-.073.288-.206.5574-.39.7915-.822.7956-2.386.7956-3.542.7956-3.292 0-4.189-.7616-4.189-3.6856s.979-3.8148 4.189-3.8148c2.611 0 4.032.5304 4.032 3.3048Zm-1.856-.4556c-.041-1.2036-.476-1.4688-2.183-1.4688-1.061 0-1.612.1292-1.918.4352-.239.2896-.358.6593-.333 1.0336h4.434Zm15.483 2.8016V22.315h-1.836v7.2556h2.496l3.93-5.5624v5.5624h1.809V22.315h-2.611l-3.788 5.5488ZM118 22.315h6.786v5.746h.993v3.5768h-1.659v-2.04h-6.617v2.04h-1.632V28.061h.68c.755-.0272 1.17-.6528 1.238-1.8428L118 22.315Zm4.964 5.746v-4.2636h-3.258l-.204 2.6248c-.01.5922-.207 1.1659-.564 1.6388h4.026Zm49.993-2.8764h-3.855v-2.856h-1.864v7.242h1.864v-3.0464h3.855v3.0464h1.85v-7.242h-1.85v2.856Zm-23.433-2.04h2.272c2.652 0 4.943.0204 4.943 3.2232s-2.985 3.2028-4.957 3.2028h-4.257V19.0918h8.344v1.6184h-6.345v2.4344Zm-.013 4.8756h3.4v-.0272c1.251 0 1.781-.4896 1.781-1.6524 0-1.3736-.55-1.6048-1.781-1.6048h-3.4v3.2844Zm12.022-5.8004c-.863 0-3.495 0-3.495 1.768v.68h1.863v-.1972c-.033-.2127.018-.4299.143-.6052.464-.234.989-.3195 1.503-.2448 1.693 0 2.183.238 2.183 1.0744v.2856h-3.067c-1.285 0-2.992.2448-2.992 2.3392s2.135 2.4072 3.74 2.4072c.86.0344 1.712-.1855 2.448-.6324l.061.476h1.707v-4.1548c0-2.3868-.197-3.2096-4.08-3.2096l-.014.0136Zm2.21 4.6444c0 .7208 0 .8024-.326 1.0132-.621.2949-1.307.4283-1.993.3876-1.36 0-1.822-.1564-1.822-1.02s.483-.952 1.863-.952h2.278v.5712Zm20.529-4.5356-3.325 3.502 4.053 3.74h-2.475l-3.264-3.0396h-1.034v3.0396h-1.802v-7.242h1.802v2.856h1.088l2.591-2.856h2.366ZM65.2221 25.2924c-.0751-.2554-.0973-.5235-.0653-.7878H65.15c0-2.1896 2.0129-2.1896 3.4817-2.1896h3.876v7.2556h-1.836v-2.856h-1.5709c-.6052.7412-2.3459 2.7812-2.3459 2.7812l-.0749.0748h-2.0807l.2719-.3332c.003-.003.0675-.0819.1751-.2135l.0031-.0039.0004-.0005.0003-.0003.0003-.0004c.379-.4639 1.2791-1.5657 1.9221-2.3246-.2658-.0174-.525-.0889-.7621-.21-.2371-.1211-.447-.2892-.6169-.4941-.17-.2049-.2963-.4424-.3714-.6977Zm5.4496-1.563h-2.4345c-.9316 0-1.1831.2856-1.1831.8568 0 .5712.136.7752.8976.7752h2.72v-1.632Zm-10.8323-1.5096c-3.184.0013-4.2094.9403-4.2094 3.8624 0 2.924.9452 3.638 4.216 3.638 3.2708 0 4.114-.7548 4.182-3.4816v-.204c0-2.9559-.9371-3.8136-4.1886-3.8148Zm-.007 6.12c-2.0399 0-2.1896-.1496-2.1896-2.2984s.1972-2.3936 2.2032-2.3936 2.1896.1768 2.1896 2.3868-.1156 2.2984-2.1896 2.2984l-.0136.0068Zm14.3277-.204c.6799 0 .9247-.3944.9928-1.5164l.2175-4.3044h6.7864v7.2012H80.28v-5.7324h-3.094l-.1768 2.9988c-.102 1.7612-.9247 2.7744-2.2847 2.7744-.3524.0028-.7045-.0177-1.0541-.0612H73.48l.136-1.36h.5441ZM33.0539 15.3815c-.1208.1693-.2677.3184-.4352.442-.1674-.1236-.3142-.2727-.4352-.442.121-.1694.2678-.3185.4352-.442.1675.1235.3143.2726.4352.442Zm-.1359 1.1492v.8228h-.4964v-.8364c-.2788-.068-.612-.1156-.612.0612.0255.2874.1187.5647.272.8092-.0736.0136-.1429.0338-.2091.0531-.0989.0288-.1909.0557-.2805.0557-.2355-.3251-.3936-.6995-.4624-1.0948.0272-.6052.9656-.4216 1.2852-.3332l.2652.068.2652-.068c.3128-.0884 1.2784-.2652 1.2784.34-.0621.397-.2158.7741-.4488 1.1016-.054-.0098-.1106-.0267-.1696-.0443-.1044-.0311-.2162-.0645-.3336-.0645.1529-.2447.2462-.5219.272-.8092-.0272-.1768-.34-.136-.6256-.0612Zm.7616 1.19c-.3275-.0827-.6623-.1328-.9996-.1496-.3438.0143-.6854.0622-1.02.1428l.1564.544c.2818-.0751.572-.1139.8636-.1156.2952.0026.5885.0484.8704.136l.1292-.5576Zm-4.114 15.8984h-1.7612l.0068-.0205v-.3671l-.3332.3536v-.4829c-.0009-.0848.0222-.1682.0667-.2403.0446-.0723.1087-.1304.1849-.1676.1423-.017.2861-.017.4284 0 .2603-.0355.5047-.1455.7039-.3168.1991-.1714.3443-.3967.4181-.6489-.3819-.6607-.627-1.3914-.7208-2.1488 0-1.0472.68-1.8903 2.2644-1.8903.5686.0309 1.1265.1669 1.6456.4012 0 0-2.04 2.0876-2.04 2.7676.1606.3283.2794.6756.3536 1.0336-.3429.6176-.7509 1.1966-1.2172 1.7272Zm8.4184-10.1456-.1088-.17c.1805-.1067.3841-.1686.5935-.1804.2094-.0118.4186.0267.6101.1124-.5236-1.0404-1.802-.7412-1.8428.1904-.2047.1315-.3714.3143-.4836.5303-.1121.2159-.1657.4574-.1556.7005 0 .6604.4538 1.6999.8207 2.54.2489.57.4577 1.0482.4577 1.2544.0135.0781.0092.1583-.0128.2345-.0219.0761-.0609.1463-.1139.2053-.0531.0589-.1188.1051-.1922.1349-.0735.0299-.1528.0426-.2319.0372-.2788 0-.5576-.1971-.9996-.7887-.5149-.7463-1.1738-1.3821-1.938-1.87l-1.2988-.9112 1.8224-1.36.136.68c.3041-.4298.5079-.9224.5961-1.4414.0883-.519.0588-1.0513-.0861-1.5574 0-.039-.0248-.1137-.0498-.1893-.0144-.0431-.0287-.0864-.0386-.1235l.4692.1768v-.238c-.3196-1.6524-1.53-2.9444-3.196-2.9444-.4616-.0095-.9215.0595-1.36.204l.0748.3808c-.1836.0884-1.2444.5304-1.2444.5304-.0053.3888.141.7644.408 1.0472.3125.054.633.0377.9384-.0476.048.0618.0779.1359.0861.2137.0083.0779-.0053.1566-.0391.2271-.0339.0707-.0868.1304-.1527.1727-.066.0422-.1424.0653-.2207.0665h-.476c-.0104.0967.0065.1943.0484.282.0421.0876.1077.1619.1896.2144.3356.0133.6717.0065 1.0064-.0204.1243.0068.2482-.0192.3594-.075.1112-.0559.2058-.1399.2745-.2437.0688-.1038.1092-.2237.1172-.3479.0081-.1243-.0164-.2484-.0711-.3602-.0241-.1196-.0678-.2346-.1292-.34.1181.0758.219.1754.2963.2925.0773.1172.1292.2491.1525.3875.0402.1129.0537.2337.0394.3528-.0144.119-.0562.2331-.1221.3333-.0659.1002-.1541.1837-.2578.244-.1036.0603-.2198.0957-.3395.1035-.3092.0587-.4582.0767-.5976.0935-.1674.0203-.3212.0388-.7216.1241-.3729.0946-.7155.2829-.9952.5472-.2796.2642-.4871.5954-.6028.9624l-.9724.374-.4488.17c-.4563.135-.8964.3197-1.3124.5508-.2647.2087-.4457.5055-.51.8364-.0507.1061-.077.2223-.077.34 0 .1177.0263.2338.077.34.2547.1824.5646.2713.8772.2516l-.3468-.34.4488-.0544c.1708-.1351.2945-.3208.3536-.5304l.68.0884c.4649.0691.9398-.0069 1.36-.2176.2103.4253.5353.7833.9384 1.0336l.3672.2244c.9928.5032 3.094 1.2851 3.094 1.2851-.0015.0419-.0156.0822-.0408.1157-.6161.5853-.9796 1.388-1.0132 2.2372 0 1.122 1.7884 1.1152 1.7884 1.1152h.476c-.0952.4352-.4216 1.0403-.782 1.0403-.165-.018-.3314-.018-.4964 0-.0727.0387-.1333.0966-.1753.1673-.0419.0707-.0636.1517-.0627.2339v.4624l.3264-.3467v.3467h1.802l.1292-.272c.3813-.6502.6762-1.3474.8772-2.0739 0-.3319-1.3775-.6398-1.5414-.6764-.0107-.0024-.0162-.0037-.0158-.0037.2114-.6896.3817-1.3912.51-2.1012.6188.8432 1.1832 1.1628 1.5912 1.1628.2724.0019.5347-.1031.7306-.2926.1958-.1895.3095-.4481.3166-.7205 0-.3698-.154-.7302-.4235-1.3609-.1269-.2972-.2795-.6543-.4537-1.1007l-.0493-.1277c-.3534-.9144-.6424-1.6622-.0119-2.1367l.0272.0952c.1141.0934.2519.1533.398.1729.1461.0197.2948-.0016.4296-.0616.1347-.0599.25-.1561.3332-.2779.0833-.1217.131-.2641.138-.4114-.2549-.0595-.5227-.0258-.7548.0952Zm-6.3172-4.3044c.2813-.0384.5677-.0008.8296.1088-.5916.3808-.9044.2992-.8296-.1088Zm-2.9376 1.4892.2652.3332 1.0404 1.3532c-.4775.2527-1.0287.3298-1.5572.2176-.8228-.2176-.9792-1.36-.9792-1.36l-.0816-.6392c-.1976.019-.3964-.0212-.5712-.1156l-.1632-.374-.1972.3876c-.0966-.2658-.0966-.5571 0-.8228.075-.0745.1663-.1304.2666-.1635.1003-.0331.2069-.0423.3114-.0269.3025-.0329.6067.0443.8568.2176.3053.3003.5766.6332.8092.9928Z"/>
</svg>