<svg xmlns="http://www.w3.org/2000/svg" viewBox="0 0 200 50">
	<path class="bg-logo" fill="#0999D5" d="M0 0h200v50H0z"/>
	<path fill="#fff" d="M49.5312 20.7359v-4.368c0-2.3739-1.8991-4.3679-4.368-4.3679-2.3739 0-4.273 1.994-4.273 4.3679v4.368h-3.5133c0-4.7478-3.8933-8.641-8.641-8.641C23.8932 12 20 15.8932 20 20.7359c0 4.7477 3.8932 8.641 8.641 8.641v4.3679c0 2.3739 1.8991 4.368 4.3679 4.368 2.4689 0 4.368-1.8991 4.368-4.368v-4.3679h3.5133c0 4.7477 3.8932 8.6409 8.641 8.6409 4.7477 0 8.6409-3.8932 8.6409-8.6409 0-4.7478-3.8932-8.641-8.6409-8.641Zm-22.5995 0c0-.9496.7597-1.7092 1.7093-1.7092.9495 0 1.8041.6647 1.8041 1.7092 0 1.0445-.7597 1.7092-1.7092 1.7092-1.0445 0-1.8042-.7597-1.8042-1.7092ZM49.5312 31.086c-.9496 0-1.7092-.7596-1.7092-1.7091 0-.9496.7596-1.7093 1.7092-1.7093.9495 0 1.7092.7597 1.7092 1.7093 0 .9495-.7597 1.7091-1.7092 1.7091Zm5.2225-12.0593c1.9403 0 3.5133-1.573 3.5133-3.5134C58.267 13.573 56.694 12 54.7537 12c-1.9404 0-3.5133 1.573-3.5133 3.5133 0 1.9404 1.5729 3.5134 3.5133 3.5134Zm14.7181 1.4243c.7597-.9495 1.9941-1.5193 3.2285-1.4242 1.2345 0 2.4689.5696 3.4184 1.5192.9496.9496 1.4243 2.279 1.4243 3.7032 0 1.3295-.4747 2.6588-1.4243 3.7033-.8546.9496-2.089 1.5193-3.4184 1.5193-1.2344.095-2.4688-.4747-3.2285-1.4243v5.1276H66.908V19.3116h2.5638v1.1394Zm.7597 5.7924c1.0445 1.0444 2.7537 1.0444 3.8931 0 .5698-.4749.8546-1.2345.7597-1.9942.0949-.7596-.1899-1.4242-.7597-1.994-1.0445-1.0445-2.7537-1.0445-3.8931 0-.4748.5698-.7597 1.2344-.7597 1.994 0 .7597.2849 1.4244.7597 1.9942Zm21.4599-.095c.4747.4748 1.2344.7596 1.8991.7596.9496.095 1.8042-.4748 2.2789-1.3293l2.184 1.2344c-.9496 1.6142-2.6587 2.5638-4.5578 2.5638-2.8488 0-5.2226-2.3739-5.2226-5.2226v-.2849c.0949-2.8486 2.4689-5.0326 5.3175-4.9377 1.8991 0 3.6083.9496 4.4629 2.5639l-2.184 1.3294c-.4747-.8547-1.3293-1.3294-2.2789-1.3294h-.1899c-1.4243.0949-2.5638 1.3294-2.4689 2.7536 0 .6648.2849 1.4244.7597 1.8992Zm10.3506-3.1336h3.987v-3.7032h2.565v9.8753h-2.565v-3.7982h-3.987v3.7982h-2.5642v-9.9703h2.5642v3.7982Zm13.198-3.988c1.235-.0951 2.469.4747 3.228 1.4242v-1.1394h2.565v9.8753h-2.565v-1.1394c-.759.9496-1.993 1.5193-3.228 1.4243-1.329 0-2.564-.5697-3.418-1.5193-.95-.9495-1.425-2.2789-1.425-3.7033 0-1.3293.475-2.6587 1.425-3.7032.854-.9496 2.089-1.5192 3.418-1.5192Zm-1.424 7.2166c1.044 1.0444 2.754 1.0444 3.893 0 .57-.4749.855-1.2345.759-1.9942.096-.7596-.189-1.4242-.759-1.994-1.044-1.0445-2.753-1.0445-3.893 0-.475.5698-.76 1.2344-.76 1.994 0 .7597.285 1.4244.76 1.9942Zm12.155-5.7924c.759-.9495 1.993-1.5193 3.228-1.4242 1.329 0 2.564.5696 3.418 1.5192.95.9496 1.425 2.279 1.425 3.7032 0 1.3295-.475 2.6588-1.425 3.7033-.854.9496-2.089 1.5193-3.418 1.5193-1.235.095-2.469-.4747-3.228-1.4243v5.1276h-2.565V19.3116h2.565v1.1394Zm.854 5.7924c1.044 1.0444 2.754 1.0444 3.893 0 .475-.4749.759-1.2345.759-1.9942.095-.7596-.189-1.4242-.759-1.994-1.044-1.0445-2.754-1.0445-3.893 0-.475.5698-.76 1.2344-.76 1.994 0 .7597.285 1.4244.76 1.9942Zm11.49-4.6529c.759-.7597 1.804-1.2344 2.943-1.1395 2.469 0 4.274 1.9942 4.274 4.2731 0 1.2344-.476 2.4688-1.425 3.3234-2.184 1.8041-5.318 1.7092-7.407-.1899-.949-1.0445-1.424-2.3739-1.424-3.7982-.095-1.3294.19-2.6588.76-3.8932.76-1.0445 1.804-1.9941 3.038-2.4689l.95-.4747.854-.3798c.19-.095.38-.19.665-.3799.57-.2849 1.045-.8545 1.235-1.5193l1.994 1.2344c-.096.7597-.57 1.4244-1.14 1.8992-.76.5697-1.709 1.0445-2.659 1.3294-1.709.6646-2.279 1.2344-2.658 2.1839Zm2.089 5.6024c.664 0 1.329-.1899 1.804-.6647.475-.4748.759-1.0445.57-1.5193v-.1899c-.095-1.3294-1.14-2.2789-2.47-2.184-.569-.0949-1.234.19-1.709.5698-.475.3798-.759.9495-.759 1.6142 0 .6647.284 1.2344.759 1.7092.475.4748 1.14.6647 1.805.6647Zm10.92-8.1661c1.234-.0951 2.468.4747 3.228 1.4242v-1.1394h2.564v9.8753h-2.564v-1.1394c-.76.9496-1.994 1.5193-3.228 1.4243-1.33 0-2.564-.5697-3.419-1.5193-.949-.9495-1.424-2.2789-1.424-3.7033 0-1.3293.475-2.6587 1.424-3.7032.855-.9496 2.089-1.5192 3.419-1.5192Zm-1.425 7.2166c1.045 1.0444 2.753 1.0444 3.893 0 .57-.4749.855-1.2345.76-1.9942.095-.7596-.19-1.4242-.76-1.994-1.044-1.0445-2.754-1.0445-3.893 0-.475.5698-.759 1.2344-.759 1.994 0 .7597.284 1.4244.759 1.9942Zm12.059-3.2286h3.989v-3.7032h2.563v9.8753h-2.563v-3.7982h-3.989v3.7982h-2.563v-9.9703h2.563v3.7982Zm17.947-3.7982-3.988 4.9377L180 29.1869h-2.944l-3.608-4.4628v4.4628h-2.564v-9.8753h2.564v4.273l3.419-4.368h3.038Zm-99.4183.095 2.6587 6.6469 2.089-6.6469h2.7537l-5.0326 13.8635h-2.5639l1.3295-4.0831-3.9881-9.7804h2.7537Z"/>
</svg>