<svg xmlns="http://www.w3.org/2000/svg" viewBox="0 0 200 50">
	<path class="bg-logo" fill="#960F05" d="M0 0h200v50H0z"/>
	<path fill="#fff" d="M39.6342 19.5084c.1312.2514.2056.5434.2056.836 0 .8488-.7507 1.7124-2.0064 1.7124h-.007l-.0013.0012h-2.0776c.9211-.788 1.4981-1.9128 1.4987-3.2798-.0012-2.717-2.2609-4.5478-5.8665-4.5478-.0363 0-.0655.0088-.1037.0102v1.9014c1.5782.14 2.525 1.2584 2.525 2.6114 0 1.6298-1.3215 3.283-3.3954 3.3046h-2.1979c1.0649-.9114 1.7265-2.216 1.7272-3.7984C29.9331 15.1164 27.319 13 23.1459 13c-.0427 0-.0758.0066-.1195.0078v2.152c1.823.1628 3.0922 1.4422 3.0922 3.0058 0 2.2852-1.9988 3.8634-4.3984 3.8924H20v2.5554l1.6515.0014c2.4301-.0014 4.4671 1.584 4.4671 3.8926 0 1.565-1.2692 2.846-3.0922 3.0076v2.1522c.0437.0012.0768.007.1195.007 4.1731 0 6.7872-2.1152 6.789-5.2628-.0007-1.5822-.6648-2.8874-1.7336-3.7992h2.1616c2.0989 0 3.4381 1.6688 3.4381 3.3098 0 1.3508-.9468 2.4704-2.525 2.6116v1.9028c.0382 0 .0674.0076.1037.0076 3.6056 0 5.8653-1.8308 5.8665-4.5478-.0006-1.3696-.5801-2.4958-1.5052-3.2852l2.0841.0012h.0083c1.2557 0 2.0064.8614 2.0064 1.7122 0 .2918-.0744.5856-.2056.8376 3.1359-.6038 5.3909-3.8264 5.3922-3.8264-.0013 0-2.2563-3.2214-5.3922-3.8272ZM172.526 19.7105v4.8883l4.068-4.8883H180l-4.57 5.1783c1.623.2411 2.617 1.5019 3.416 3.3875.361.8933.797 2.0917 1.082 3.2189h-3.158c-.112-.5783-.347-1.3784-.783-2.518-.651-1.6201-1.545-2.3944-3.071-2.3944h-.39v4.9124h-2.972V19.7105h2.972Zm-13.16 0v4.5015h4.547v-4.5015h2.978v11.7847h-2.978v-4.9618h-4.547v4.9618h-2.977V19.7105h2.977Zm-25.223 9.6059c.435.0738.97.098 1.573.098 1.091 0 2.154-.3405 2.854-1.016.511-.5351.85-1.2359.85-2.1311 0-1.0389-.435-1.74-1.089-2.224-.727-.5585-1.742-.7768-2.71-.7768-.462 0-.993.0504-1.478.0968v5.9531Zm7.112-14.1328v2.4448h-7.112v3.5111c.533-.0733 1.404-.1229 2.009-.1229 1.596 0 3.218.3874 4.402 1.2334 1.186.7996 1.986 2.1069 1.986 3.9453 0 1.5733-.555 2.7819-1.477 3.6301-1.45 1.3294-3.846 1.8416-6.219 1.8416-1.67 0-2.878-.1229-3.65-.2208V15.1836h10.061Zm-26.027 11.3757c0 .2895.023.5567.072.8213.314 1.2106 1.352 2.0808 2.637 2.0808 1.889 0 3.001-1.5701 3.001-3.8957 0-2.0809-1.016-3.7744-2.927-3.7744-1.235 0-2.374.8931-2.687 2.2026-.052.2422-.096.508-.096.7491v1.8163Zm-2.976-6.8488h3.02v1.8163c.874-1.3321 1.94-2.0835 3.732-2.0835 2.708 0 4.957 2.3239 4.957 6.0021 0 4.2603-2.685 6.3157-5.37 6.3157-1.475 0-2.712-.6298-3.319-1.5731v6.0998h-3.02V19.7105Zm-4.726 4.6464c.023-1.0904-.462-2.8809-2.445-2.8809-1.839 0-2.613 1.6716-2.733 2.8809h5.178Zm-5.178 2.0808c.073 2.1267 1.717 3.0504 3.629 3.0504 1.378 0 2.347-.2227 3.267-.5342l.436 2.0344c-1.019.4363-2.422.7486-4.116.7486-3.823 0-6.0708-2.3467-6.0708-5.9542 0-3.2635 1.9818-6.3394 5.7588-6.3394 3.823 0 5.081 3.1471 5.081 5.7362 0 .5553-.046.9893-.098 1.2582h-7.887Zm-10.0586-4.6203c-.9912 0-1.717.5301-2.1286 1.2546-.3855.6337-.6056 1.4299-.6056 2.3971 0 1.7422.8003 4.1381 2.8086 4.1381 2.0096 0 2.7348-2.0071 2.7348-3.9188 0-1.7195-.6513-3.871-2.8092-3.871Zm4.504-5.3754c-.6554.2181-1.8168.39-2.6382.4855-1.8194.2422-3.1114.7672-3.9479 1.8384-1.1127 1.4251-1.1864 3.3659-1.1864 3.3659.7544-1.5006 2.2773-2.4213 3.9696-2.4213 3.0776 0 5.1599 2.2253 5.1599 5.8552 0 3.8245-2.3005 6.1954-5.7866 6.1954-4.1394 0-5.8806-3.5829-5.8806-7.8163 0-2.9047.6998-5.2503 2.201-6.8736 1.1591-1.4034 2.7826-2.1266 5.0118-2.441 1.0382-.1488 2.4178-.3149 3.241-.5579l-.1436 2.3697Zm-19.5693 3.2685 2.8549 8.3903 2.4702-8.3903h3.1656l-2.9486 8.0314c-1.6246 4.4053-2.7101 6.3659-4.0906 7.5747-1.187 1.0178-2.3982 1.4064-3.1234 1.5007l-.6777-2.49c.5072-.1227 1.1113-.3875 1.7176-.8225.5816-.3645 1.2355-1.0669 1.6472-1.8645.1221-.2157.1699-.3875.1699-.5312 0-.1208-.0237-.2914-.1453-.5816l-4.3321-10.817h3.2923Zm-25.9184-3.5414c1.1133-.7011 2.6859-1.2818 4.7177-1.2818 3.245 0 5.2762 1.6458 5.2762 4.0891 0 2.0344-1.2074 3.5522-3.3157 3.9708 2.1211.2635 3.8738 1.7176 3.896 3.9652 0 3.5338-3.3385 4.8424-6.338 4.8424-1.598 0-3.2914-.3379-4.6242-1.1158l.6787-2.2979c.8226.4377 2.3952.9925 3.8234.9925 2.1062 0 3.3398-1.0148 3.3398-2.5892 0-2.0796-2.1057-2.5878-3.8952-2.5878h-1.2838v-2.2278h1.2838c1.8874 0 3.3386-1.0165 3.3386-2.4919 0-1.3301-1.0173-2.1285-2.6871-2.1285-1.2329 0-2.5892.5064-3.483.9925l-.7272-2.1318Zm99.5883 9.5899c-2.105-.0267-4.113.411-4.113 2.2011 0 1.1603.751 1.6946 1.695 1.6946 1.208 0 2.058-.7746 2.348-1.6219.07-.217.07-.4352.07-.6522V25.759Zm2.904 5.7586h-2.709v-1.3061s-.832 1.5718-3.557 1.5718c-2.373 0-3.701-1.7169-3.701-3.507 0-2.9549 2.635-4.4778 6.993-4.4555v-.1928c0-.773-.316-2.0549-2.397-2.0549-1.162 0-2.37.3601-3.17.871l-.581-1.9371c.872-.5304 2.396-1.0389 4.26-1.0389 3.775 0 4.862 2.3933 4.862 4.9837v7.0658Zm-83.5038-5.7732c-2.1042-.0254-4.1133.4117-4.1133 2.2036 0 1.1592.7513 1.6921 1.6947 1.6921 1.2101 0 2.0579-.7741 2.3474-1.6214.0712-.2183.0712-.4365.0712-.6533v-1.621Zm2.9041 5.7584h-2.7101v-1.3067s-.8324 1.5739-3.556 1.5739c-2.3728 0-3.7017-1.7188-3.7017-3.5097 0-2.9511 2.6349-4.4739 6.9925-4.453v-.1928c0-.7741-.3149-2.056-2.3957-2.056-1.1624 0-2.3717.3615-3.1706.8715l-.5801-1.9363c.8707-.5305 2.3958-1.0389 4.2588-1.0389 3.7759 0 4.8629 2.3946 4.8629 4.9816v7.0664Z"/>
</svg>