<svg xmlns="http://www.w3.org/2000/svg" viewBox="0 0 200 50">
	<path class="bg-logo" fill="#21A038" d="M0 0h200v50H0z"/>
	<g fill="#fff">
		<path d="m91.5463 20.5547 3.3781-2.4892H83.7233v14.7571h11.2011v-2.4891h-8.0008v-3.7337h6.7563v-2.4892h-6.7563v-3.5559h4.6227Zm-13.957 0 3.3781-2.4892H68.1661v14.7571h6.6673c3.7338 0 5.8673-1.689 5.8673-4.6227 0-2.8447-1.9557-4.356-5.5117-4.356h-3.9115v-3.2892h6.3118Zm-2.8448 5.6895c2.0447 0 2.9337.7112 2.9337 2.0446 0 1.3335-.9779 2.0447-2.9337 2.0447h-3.3781v-4.0893h3.3781Zm29.1585-8.1787h-6.0449v14.7571h3.1999v-4.1782h2.934c3.912 0 6.312-2.0446 6.312-5.3339 0-3.2892-2.489-5.245-6.401-5.245Zm0 8.0898h-2.845v-5.6895h2.845c2.045 0 3.201.9779 3.201 2.8447-.089 1.8669-1.156 2.8448-3.201 2.8448Zm-41.1597 3.467c-.889.4445-1.778.7112-2.7559.7112-2.8447 0-4.9783-2.0447-4.9783-4.8894 0-2.8448 2.0447-4.8894 4.9783-4.8894 1.0668 0 2.0447.3556 2.9337.889l2.3113-1.6891-.1778-.1778c-1.3335-1.1557-3.1114-1.778-5.1561-1.778-2.2224 0-4.1782.7112-5.6895 2.1336-1.4223 1.4224-2.3113 3.3781-2.2224 5.4228 0 2.0446.8001 4.0004 2.2224 5.5117 1.5113 1.4223 3.556 2.2224 5.6006 2.1335 2.3114 0 4.2671-.8001 5.6895-2.2224l-2.0446-1.5113-.7112.3556Zm95.9217-5.5117h-6.846v-6.0451h-3.2v14.7571h3.2v-6.045h6.846v6.045h3.2V18.0655h-3.2v6.0451Zm-21.603-6.0451-6.4 14.7571h3.2l1.244-2.9336h6.757l1.244 2.9336h3.378l-6.222-14.7571h-3.201Zm-.889 9.3343 2.489-5.9561 2.312 5.9561h-4.801Zm37.249-2.2224 5.778-7.1119h-3.645l-4.8 6.3118h-1.778v-6.3118h-3.201v14.7571h3.201v-5.9561h2.044l4.89 5.9561H180l-6.578-7.6452Zm-49.428-1.3335h-3.911v-3.2892h8.356v-2.4892h-11.557v14.7571h6.668c3.733 0 5.867-1.689 5.867-4.6227.089-2.8447-1.867-4.356-5.423-4.356Zm-.533 6.5785h-3.378v-4.0893h3.378c2.044 0 2.933.7111 2.933 2.0446.089 1.3335-.977 2.0447-2.933 2.0447Z"/>
		<path d="M32.1352 13h-.0024c-3.1314-.0039-6.189 1.2541-8.4264 3.4414-3.5665 3.4716-4.6876 8.9674-2.8 13.5832 1.1782 2.8812 3.4546 5.2655 6.297 6.5441 3.0196 1.358 6.5239 1.4049 9.5777.1223 2.8763-1.2081 5.2083-3.5264 6.4592-6.3837.9856-2.251 1.2772-4.7841.8505-7.2021l-2.615 1.9531c0 1.4133-.2327 2.7928-.8031 4.0936-.9631 2.1959-2.7548 3.9795-4.9655 4.9094-2.35.9885-5.0386.9525-7.3639-.0947-2.1871-.9851-3.9338-2.8146-4.8422-5.0329-.9737-2.3776-.9394-5.1106.0921-7.4628.9625-2.1944 2.7532-3.977 4.9646-4.9073 2.8955-1.2181 6.2501-.8694 8.8416.9324l2.3621-1.7646C37.6257 13.9787 34.897 12.9965 32.1352 13Zm9.6112 4.7852c.5771.7562 1.0657 1.5778 1.4558 2.4482l-11.0668 8.2677-4.6252-2.9383v-3.5349l4.6252 2.9383 9.611-7.181Z"/>
	</g>
</svg>