<svg xmlns="http://www.w3.org/2000/svg" viewBox="0 0 200 50">
	<path class="bg-logo" fill="#0A3E86" d="M0 0h200v50H0z"/>
	<path fill="#fff" d="M104.521 31.2788h5.547c.985.0045 1.941-.331 2.707-.9499.765-.6188 1.294-1.483 1.497-2.4467.072-.4125.072-.8343 0-1.2467-.079-.3313-.232-.6402-.448-.9031-.216-.265-.489-.478-.799-.6234l-.304-.1279h-.12c.067-.0558.139-.1041.216-.1438.677-.3657 1.233-.9212 1.599-1.5984.224-.4063.342-.8626.343-1.3267.008-.2102-.016-.4204-.072-.6234-.048-.1661-.106-.329-.176-.4875-.181-.386-.458-.7189-.805-.9666-.348-.2478-.753-.402-1.177-.448h-5.698l-2.31 11.8921Zm7.065-10.4535c.8.0479 1.199.2557 1.407.7033.119.2488.171.5241.152.7992-.012.4127-.15.8119-.396 1.1435-.245.3316-.587.5797-.979.7106-1.422.1608-2.854.2142-4.284.1599 0-.04.68-3.5325.68-3.5405 0-.008 2.581-.032 3.42.024Zm-.471 5.0429c.279.0299.55.1112.799.2398.243.1431.442.3505.575.5994.128.246.183.5231.16.7992-.017.4159-.141.8203-.359 1.1748-.221.3539-.526.6477-.887.8552-.466.2317-.983.3443-1.503.3276-.511 0-3.452.04-3.452 0 0-.0399.799-3.996.799-4.0439 0-.048.711 0 1.87 0 .674-.02 1.349-.004 2.022.0479h-.024Zm22.01 5.4346h1.494l.656-3.3966 1.214-.999 2.038 4.3956h1.823l-2.59-5.4106 3.908-3.1968h-1.894l-4.148 3.4206 1.263-6.7293h-1.47l-2.294 11.9161Zm-13.139-8.7912c-.45.0322-.897.1044-1.335.2158-.859.211-1.612.7281-2.118 1.4545-.178.2856-.333.5849-.463.8951 0 .04 0 .04.687.1279.21.0233.418.058.624.1039 0 0 .08 0 .175-.1918.214-.492.581-.9015 1.047-1.1668.781-.3171 1.645-.3622 2.454-.1279.153.0483.294.1271.415.2317.119.1106.214.2438.28.3917.088.3488.088.714 0 1.0629l-.056.2717-.279.0799c-.789.194-1.59.3329-2.398.4156-.567.0552-1.129.1595-1.678.3117-.524.1556-1.005.429-1.407.7992-.274.2549-.499.5584-.663.8951-.163.3228-.253.6775-.264 1.039-.023.3577.046.7153.2 1.0389.149.2767.366.5106.631.6794.264.1645.562.2682.871.3037.479.0744.964.0932 1.447.0559.955-.114 1.864-.4749 2.637-1.047l.224-.1598v.2717c-.015.2364.007.4736.064.7033v.0959h.799c.266.0167.533.0167.799 0-.004-.0647-.023-.1275-.056-.1838-.081-.2586-.121-.5282-.12-.7992.104-1.1491.288-2.2895.552-3.4126.415-2.1498.439-2.3976.408-2.7732-.01-.2288-.07-.4526-.176-.6553-.11-.2016-.266-.3742-.456-.5035-.856-.434-1.818-.6142-2.773-.5195l-.072.0959Zm1.494 4.5554c0 .064-.167.7992-.223 1.031-.096.4093-.288.79-.56 1.1109-.272.3205-.61.5793-.991.7592-.5.2352-1.045.3605-1.598.3677-.223.0215-.448.0025-.663-.056-.218-.0653-.418-.1802-.584-.3356-.147-.1522-.227-.3562-.224-.5675-.005-.2814.07-.5586.216-.7992.15-.2525.373-.4533.639-.5754.509-.2162 1.048-.3511 1.599-.3996.756-.0886 1.502-.2464 2.23-.4715.096-.0879.112-.0879.112-.048l.047-.016Zm8.04-4.5554c-.909.0734-1.76.4737-2.397 1.1269-.176.1598-.216.2078-.216.1518 0-.0559.216-1.0629.216-1.0629h-1.351l-1.598 8.6313h1.502s.943-4.8911.991-5.1228c.122-.7242.488-1.3846 1.039-1.8702.366-.3004.809-.4913 1.278-.5507.47-.0594.947.0152 1.376.2151.198.1352.352.3274.439.5514.095.2189.12.4617.072.6953 0 .3517-1.119 6.0819-1.119 6.0819h1.511s1.119-5.8661 1.175-6.0499c.079-.3552.079-.7237 0-1.0789-.07-.3579-.218-.6961-.432-.991-.161-.1739-.353-.3151-.567-.4156-.594-.2662-1.247-.3736-1.895-.3117h-.024ZM63.1868 38.9991c-.3719-.0012-.7341.1195-1.0309.3436-.2908.2297-.5007.546-.5994.9031-.0568.2044-.0398.4223.0479.6154.0855.1935.2351.3516.4236.4476.2959.1395.607.2441.9271.3117.7992.2078.999.3117 1.0789.5834.0145.1331-.0048.2678-.056.3916-.0493.1243-.1289.2342-.2317.3197-.2448.1639-.5271.263-.8206.2882-.2936.0252-.5886-.0245-.8577-.1444-.1397-.0611-.2589-.161-.3437-.2877-.079-.1326-.1178-.2853-.1119-.4395 0-.1919 0-.1919-.0639-.1839-.0979.016-.1978.016-.2957 0h-.2158v.08c-.0399.1708-.0399.3486 0 .5194.0549.2387.1835.4539.3676.6154.1811.1644.406.2727.6474.3117.4124.0719.8343.0719 1.2467 0 .3886-.082.7443-.2766 1.023-.5594.1268-.1271.2297-.276.3037-.4396.0677-.1674.1004-.3469.0959-.5275.0084-.2261-.0654-.4475-.2078-.6233-.2318-.2398-.4475-.3357-1.2467-.5435-.7992-.2078-.9271-.2717-1.007-.4316-.0439-.1241-.0439-.2595 0-.3836.0314-.1247.1047-.2347.2078-.3117.1413-.1157.3054-.2005.4817-.2486.1762-.0482.3606-.0588.5412-.0311.6234 0 .7992.2078.8712.6873v.1758h.5914v-.1838c.016-.8871-.6474-1.3746-1.7423-1.2787l-.024.024Zm18.981.0959s-.1118.5674-.1118.6234c0 .0559.1198 0 .2957 0h.2957l.0559-.3117c.0089-.1113.0304-.2212.0639-.3277-.0979-.016-.1977-.016-.2957 0h-.3037v.016Zm5.9381 0s-.1998 1.039-.4236 2.2857c-.2238 1.2468-.4315 2.2777-.4315 2.2857 0 .008 2.2297 0 2.3976 0 .2188-.0476.429-.1284.6233-.2397.3311-.2221.5742-.5528.6873-.9351.086-.2595.086-.5397 0-.7992-.0982-.1716-.242-.3127-.4155-.4076h-.1439l.1359-.0799c.3031-.176.5264-.4624.6233-.7992.0872-.262.073-.5472-.0399-.7992-.0596-.1382-.1531-.2592-.2717-.3517-.1222-.0931-.2646-.1561-.4156-.1838-.4137-.0494-.8308-.0628-1.2468-.0399l-1.0789.0639Zm2.1099.6234c.0681.0246.1306.0627.1838.1119.0537.0466.0972.1037.1279.1678.0083.0663.0083.1335 0 .1998-.0142.1871-.0901.3642-.2158.5035-.1304.139-.3061.2269-.4955.2477h-1.3906l.1678-.6553c.0719-.3756.1359-.6633.1359-.6873h.7113c.2676.0077.5345.0317.7992.0719l-.024.04Zm-.3996 1.8781c.0839.0013.1663.0233.2397.0639.0777.038.1439.0959.1919.1679.0539.0701.0895.1524.1038.2397.02.0814.02.1664 0 .2478-.0218.1325-.0738.2583-.1518.3676-.0757.1077-.1739.1976-.2877.2637-.2398.1359-.3517.1439-1.1668.1439h-.7513v-.056s.0639-.3676.1519-.7272c.0879-.3597.1278-.6953.1278-.7113.532-.042 1.0665-.042 1.5984 0h-.0559Zm8.7352-2.4615c-.0237.1909-.0584.3804-.1039.5674.0971.024.1986.024.2957 0h.2878l.0639-.2877c.0089-.1087.0304-.216.0639-.3197 0-.048 0-.048-.2797-.048s-.3197 0-.3197.072l-.008.016Zm15.7526 0-.839 4.5074h.639l.879-4.5714-.679.064Zm-48.0562.2317-.2957.1679-.064.3756c0 .2238-.0799.3996-.0799.4076 0 .008-.0879 0-.2158 0h-.1998v.1598c-.0084.078-.0218.1554-.0399.2318 0 .0479 0 .0559.1998.0719h.2237l-.1998.983c-.1039.5435-.2077 1.1189-.2237 1.2468v.3996c.0176.0453.0445.0864.0789.1208s.0756.0613.1209.079c.1358.0719.1678.0719.4315.0719h.4476v-.5115h-.1758c-.1918 0-.2718 0-.3277-.1279-.056-.1278 0-.1518.1758-1.1508l.2158-1.1029h.5754v-.1918c.0094-.0785.0254-.156.048-.2318h-.2877c-.2877 0-.2798 0-.2798-.0559 0-.056.056-.2558.1039-.5195.0283-.1724.0656-.3431.1119-.5115.0049-.0085.0075-.0181.0075-.028 0-.0098-.0026-.0194-.0075-.0279-.1164.0369-.2268.0908-.3276.1598l-.016-.016Zm7.2487.1679-.1598.7992h-.3916l-.0879.4475h.3996s-.0959.5035-.1998 1.0789c-.1061.4219-.173.8526-.1998 1.2867 0 .2478 0 .2558.0639.3437.1056.0979.2342.1675.3739.2025.1398.0349.286.034.4253-.0027.1199 0 .2238 0 .2238-.04v-.5274h-.1519c-.2557 0-.3756-.04-.3756-.2078 0 0 .0959-.5435.1998-1.0949.1039-.5515.1998-1.039.1998-1.039h.5674l.1119-.4475h-.5674l.1918-1.1589-.6234.3597Zm58.8295-.1679c-.16.0799-.312.1758-.312.2078s0 .1998-.08.4156l-.064.3676h-.168c-.224 0-.216 0-.255.2318-.04.2318-.056.2158.175.2158h.2s-.096.4795-.2 1.0549c-.215 1.1189-.255 1.4546-.191 1.5984.03.0569.072.1068.123.1466.051.0399.11.0689.172.0852.207.032.417.032.624 0h.143v-.4715c0-.048 0-.056-.127-.04-.256 0-.376-.0479-.376-.2158 0-.1678.336-1.9181.336-2.1578 0-.048 0-.048.295-.048h.28v-.4475h-.567s.048-.2558.096-.5435c.103-.5434.103-.5834.079-.5834-.065.0573-.126.1187-.183.1838Zm-63.7845.9111c-.1267.0566-.2388.1413-.3277.2478l-.1838.1918v-.2238l.0479-.2158h-.2717c-.2557 0-.2637 0-.2797.056-.016.0559-.1519.7592-.3117 1.5984-.1598.8391-.3037 1.5984-.3037 1.5984s0 .0479.2797.0479h.3037c.008 0 .0799-.4396.1758-.9111.056-.4701.1687-.9316.3357-1.3746.0666-.1724.1908-.3165.3517-.4076.0915-.047.1928-.0715.2957-.0715.1028 0 .2042.0245.2957.0715l.1198.0559.1519-.2797c.1518-.2797.1518-.2797-.048-.3756-.217-.0599-.4462-.0599-.6633 0l.032-.008Zm2.1258 0c-.3418.0499-.657.2131-.8951.4635-.1376.152-.246.3281-.3196.5195.1613.0467.3277.0735.4955.0799.0559 0 .0799 0 .1198-.1198.0661-.1366.165-.2546.2878-.3437.1301-.0833.2779-.1353.4315-.1518.2499-.0472.5085-.0017.7273.1278.0316.0319.0561.07.0719.1119.0399.1275.0399.2641 0 .3916v.1759h-.0799c-.2979.0694-.5994.1227-.9031.1598-.2557.04-.5434.0799-.6234.1039-.1833.0464-.3548.1308-.5035.2477-.1509.1149-.2739.2624-.3596.4316-.0806.1344-.1117.2927-.0879.4476 0 .2717 0 .2877.0879.4076.0982.1441.2374.2555.3996.3196.1621.0654.3383.0874.5115.064.4198.0169.8333-.1069 1.1748-.3517l.1119-.0639v.3436c.1079.0241.2198.0241.3277 0h.2957v-.0639c-.072-.3037-.048-.4955.1758-1.6703.1598-.8472.1678-1.0789.0799-1.2548-.072-.1052-.1644-.1949-.2717-.2637-.1074-.0659-.227-.1094-.3517-.1279-.3018-.0241-.6055-.008-.9031.048v-.032Zm.8632 1.8142c-.0417.2131-.1032.4218-.1838.6234-.0558.0859-.123.1639-.1998.2317-.2377.2107-.5456.3248-.8632.3197-.3196 0-.4795-.0799-.5674-.2797-.021-.0379-.032-.0805-.032-.1239 0-.0433.011-.0859.032-.1239.0216-.1022.0715-.1963.1439-.2717.1438-.1678.2877-.2238.8631-.3197.2266-.0298.4509-.0752.6713-.1358.1599 0 .1519 0 .1359.0639v.016Zm4.4435-1.8142c-.4256.1126-.802.3627-1.0709.7113-.2806.4007-.4464.8705-.4795 1.3586-.0515.2977.0112.6038.1757.8572.1645.2534.4185.4354.7114.5095.3246.0639.6585.0639.983 0 .3565-.104.6685-.3232.8871-.6234.1084-.1231.1901-.2673.2398-.4236-.1951-.0416-.3926-.0709-.5914-.0879-.0249.0531-.0543.1039-.0879.1519-.1196.1901-.2879.3446-.4875.4475-.1287.0636-.2731.0886-.4156.0719-.2558 0-.2797 0-.3996-.0799-.0728-.0387-.14-.0871-.1998-.1438-.0547-.0641-.0979-.1371-.1279-.2158-.0731-.1797-.0952-.376-.0639-.5675v-.0639h1.2467c1.1589 0 1.2468 0 1.2468-.0479.0559-.2029.0801-.4132.0719-.6234.0458-.2468.0047-.5019-.1162-.7219-.1209-.22-.3142-.3913-.5471-.4849-.1587-.0569-.3277-.0787-.4955-.064-.1579-.0357-.3217-.0357-.4796 0v.04Zm.6714.5195c.1299.0594.2386.157.3117.2797.069.1273.1021.2709.0959.4156v.1598h-1.8782v-.0479c.1121-.3165.3331-.5828.6234-.7513.1266-.0759.2686-.1223.4156-.1358.1468-.0108.2942.0111.4316.0639v.016Zm2.7652-.5195c-.2559.0659-.4937.1888-.6953.3596-.2006.1711-.3615.3838-.4715.6234-.4716.9351-.3277 1.998.3356 2.2937.2333.1032.4915.1365.7433.0959.2546-.0325.4953-.1348.6953-.2957.1039-.0879.1199-.0879.1039-.0399-.0324.0936-.0565.1898-.0719.2877-.0249.1902-.0963.3714-.2078.5275-.116.1379-.2642.245-.4315.312-.1673.0669-.3485.0915-.5276.0716-.3596 0-.5594-.1838-.5594-.4236v-.1119l-.2797-.04h-.2877c-.0162.0711-.0162.1448 0 .2158-.0193.1082-.0054.2196.0399.3197.0394.1034.1056.1944.1918.2637.1422.1112.3053.1927.4795.2398.1771.0319.3584.0319.5355 0 .1916.0225.3854.0171.5754-.016.1979-.0749.3789-.1884.5325-.3338.1537-.1454.2769-.3199.3626-.5133.2565-.7022.4308-1.4316.5195-2.1739.1519-.7992.2877-1.5184.2877-1.5504 0-.032 0-.0559-.2557-.0559-.2558 0-.2797 0-.3197.1758-.04.1758 0 .1758-.1918 0-.0887-.0822-.1934-.1452-.3075-.1851-.1141-.0398-.2353-.0557-.3558-.0467-.1459-.0202-.2938-.0202-.4396 0Zm.6234.5275c.0761.0367.144.0884.1998.1518.0544.0672.0976.1428.1278.2238.056.1253.0727.2646.048.3996-.0082.323-.0816.6411-.2158.9351-.1241.2386-.3123.4378-.5434.5754-.1233.0713-.2659.1021-.4076.0879-.12.008-.2402-.0111-.3517-.0559-.1518-.0953-.2672-.2389-.3277-.4076-.0518-.1693-.0518-.3502 0-.5195.0156-.4072.1708-.7967.4396-1.1029.1168-.1632.2859-.2816.4793-.3354.1934-.0538.3993-.0398.5836.0397l-.0319.008Zm4.2677-.5275c-.2978.0671-.5732.2103-.7992.4156-.4196.4297-.667.9984-.6953 1.5984-.0879.9031.3117 1.4066 1.1189 1.4625.3386.0156.6744-.0676.9666-.2392.2923-.1717.5284-.4245.6797-.7278.1439-.3037.1439-.2797-.1119-.3117-.2557-.032-.3356-.0559-.4315.1439-.0663.1763-.1831.3291-.3357.4395-.1505.1081-.327.1743-.5115.1918-.1752.0188-.3513-.0266-.4955-.1278-.3117-.1998-.3596-.6953-.1838-1.3427.0319-.1883.1026-.368.2078-.5275.1122-.1537.2534-.284.4156-.3836.1429-.0975.3151-.1426.4875-.1279.1715.0139.3327.0874.4555.2078.0845.1201.1343.2611.1439.4076 0 .056 0 .056.0799.04l.2957-.04h.2158v-.1518c-.0023-.1874-.0638-.3693-.1758-.5195-.1136-.1529-.269-.2695-.4476-.3357-.2719-.0809-.5581-.1027-.8391-.0639l-.04-.008Zm11.7243 0c-.2093.0329-.4087.112-.5834.2318-.1703.1205-.3099.2793-.4076.4635-.094.2082-.1137.4423-.056.6633.1039.2798.3197.3996 1.1269.6314.5514.1439.6234.2158.6234.3996-.0136.1276-.0667.2478-.1519.3437-.0854.0939-.1966.1606-.3197.1918-.2863.0711-.589.0312-.8471-.1119-.0593-.0576-.108-.1253-.1439-.1998-.036-.0753-.0577-.1566-.0639-.2398v-.0879h-.0879l-.3117.04h-.2158v.1758c-.0055.1224.0135.2447.056.3596.0445.1165.1125.2226.1998.3117.0871.0879.1901.1585.3036.2078.1137.0483.2362.0728.3597.072.3911.0905.8019.0306 1.1508-.1679.3455-.2028.6022-.528.7193-.9111.0319-.1014.0319-.2102 0-.3117-.0235-.1015-.0731-.1952-.1438-.2717-.1359-.1438-.3117-.2318-.9511-.4156-.5115-.1518-.6234-.2078-.7033-.2877-.0799-.0799 0-.3277.1519-.4635.1489-.0933.3198-.1457.4955-.1519.1759-.0123.352.0208.5115.0959.0547.0348.1011.0812.1358.1359.0331.0565.0548.119.064.1838v.1279h.5514c.0318-.1394.0318-.2842 0-.4236-.1119-.3516-.4955-.5434-1.1029-.5275-.1144-.0082-.2292-.0082-.3436 0l-.016-.0639Zm4.795 0c-.227.0745-.439.1911-.623.3437l-.128.1198v-.1598c.048-.2877.08-.2717-.2318-.2717-.3117 0-.2558 0-.2718.0479l-.3037 1.5984c-.1598.8632-.3117 1.5984-.3117 1.5984s0 .048.2878.048c.2877 0 .2957 0 .3036-.048.008-.0479.096-.4635.1919-.983.0959-.5195.1998-.991.2317-1.0869.043-.2058.149-.3931.304-.5355.157-.1385.352-.2275.559-.2557.106-.0399.222-.0399.328 0 .076.0199.146.0553.208.1039.058.0494.107.109.143.1758.011.5387-.065 1.0756-.223 1.5904-.112.5754-.208 1.047-.208 1.063h.631l.248-1.1589c.124-.4734.202-.9579.232-1.4465 0-.2718 0-.3117-.072-.4156-.089-.1478-.224-.2628-.384-.3277-.293-.0552-.594-.0552-.887 0h-.024Zm3.197 0c-.37.0832-.705.2786-.959.5594-.279.3194-.464.7093-.536 1.1269-.207 1.063.2 1.7023 1.135 1.7742.348.0341.699-.0354 1.007-.1998.308-.1631.562-.4096.736-.7112.029-.0544.056-.1104.08-.1679-.085-.0115-.171-.0115-.256 0-.099.0087-.198.0087-.296 0 0 0-.072 0-.104.1119-.127.1982-.303.3605-.511.4715-.12.0658-.256.0937-.392.08-.11.0315-.226.0315-.336 0-.111-.0329-.211-.0967-.287-.1839-.086-.0783-.152-.1754-.193-.2835-.042-.1082-.058-.2245-.047-.3398v-.2318h2.493v-.1439c.04-.2649.04-.5343 0-.7992-.029-.2261-.127-.4379-.279-.6073-.159-.1632-.362-.2769-.584-.3277-.227-.04-.46-.04-.687 0l.016-.1279Zm.671.5275c.139.074.248.1921.312.3356.049.1412.071.2904.064.4396v.0719h-.919c-.303.024-.608.024-.911 0l.08-.2158c.079-.1594.194-.2987.335-.4075.141-.1061.301-.1822.472-.2238.188-.056.388-.056.575 0h-.008Zm2.494-.5275c-.207.0309-.402.1133-.568.2398-.166.1283-.298.2958-.383.4875-.057.1136-.079.2414-.064.3676-.024.0917-.024.188 0 .2797.033.0913.091.1715.168.2318.252.1777.542.2953.847.3437l.583.1838c.232.1119.248.3356.048.5674-.072.0744-.156.1364-.248.1838-.127.0719-.159.0719-.463.0719-.146.0175-.295-.0017-.432-.0559-.095-.0498-.175-.1244-.231-.2158-.055-.0914-.08-.1975-.072-.3037v-.0959H105.752v.1918c-.01.1096.002.2201.037.3246.034.1045.09.2008.163.2828.128.1541.306.2586.504.2957.339.048.683.048 1.023 0 .31-.0468.593-.2026.799-.4395.191-.2236.301-.5053.311-.7992-.009-.0984-.039-.1936-.088-.2798-.052-.0842-.123-.1553-.207-.2077-.305-.1464-.624-.2616-.951-.3437-.336-.0959-.488-.1678-.528-.2797-.088-.2398.144-.4875.552-.5515.407-.0639.799.0799.799.4076 0 .1199 0 .1199.096.1119h.511c.008-.1748-.022-.3492-.088-.5115-.074-.1034-.166-.1928-.271-.2637-.108-.0659-.227-.1094-.352-.1279-.284-.0359-.571-.0359-.855 0l-.024-.0959Zm3.125 0c-.308.0426-.591.1926-.8.4236-.081.0826-.147.1803-.191.2877-.042.1072-.063.2208-.064.3357-.025.1272.001.2592.072.3676.12.2318.295.3277.895.4875.282.0428.554.1406.799.2877.192.1998-.056.6234-.44.7033-.26.0827-.539.0827-.799 0-.082-.0382-.151-.0992-.2-.1758-.05-.0731-.078-.1592-.08-.2478v-.1838c-.102.0022-.204.0156-.303.04h-.296v.1598c0 .1209.025.2405.072.3517.044.1126.109.2158.192.3037.086.0835.186.1512.296.1998.113.0483.236.0728.359.0719.39.0865.799.0237 1.145-.176s.605-.5219.725-.9029c.048-.1599.031-.3323-.048-.4795-.074-.1489-.203-.2633-.359-.3197-.08-.04-.392-.1359-.696-.2318-.631-.1998-.743-.2398-.743-.4475 0-.2078.176-.3357.392-.4076.205-.0441.418-.0441.623 0 .105.0089.204.0541.28.1278.073.08.121.1803.136.2877v.1119h.279c.092-.0242.186-.0403.28-.0479v-.1519c0-.4156-.224-.6633-.711-.7992-.287-.0279-.576-.0279-.863 0l.048.024Zm5.594.2078c-.07.0429-.128.1036-.168.1758 0 0 .048-.2078.064-.3117h-.535l-.64 3.2927h.584s.431-2.0379.471-2.1338c.061-.2138.194-.4001.376-.5275.181-.132.399-.2021.623-.1998.096-.0083.192.0082.28.048.087.0375.162.0984.216.1758.112.1598.096.3197-.152 1.5344-.104.5835-.208 1.1029-.208 1.1029h.584s.423-2.1178.447-2.3256c.04-.1465.04-.3011 0-.4476-.031-.1467-.107-.2804-.216-.3836-.09-.0854-.2-.1483-.319-.1838-.205-.0191-.411-.0191-.616 0-.27-.0077-.537.0557-.775.1838h-.016Zm3.868-.2078c-.215.0581-.412.1678-.575.3197-.088.0799-.144.1039-.136.0799.032-.1155.056-.233.072-.3516h-.536l-.311 1.6543-.32 1.6623h.591l.176-.8791c.088-.4875.184-.983.208-1.0869.024-.1693.087-.3307.184-.4715.099-.1426.231-.2603.383-.3437.488-.2477.967-.1119 1.031.2718.016.0899.016.1818 0 .2717 0 .1918-.415 2.2377-.415 2.2377h.591s.4-2.1418.448-2.3496c.048-.1807.048-.3708 0-.5515-.01-.0572-.031-.1118-.064-.1598-.025-.0482-.064-.0874-.112-.1119-.095-.0862-.206-.1516-.328-.1918-.121-.0286-.246-.0286-.367 0-.164-.036-.333-.036-.496 0h-.024Zm3.125 0c-.355.0739-.679.2553-.927.5195-.32.3453-.526.7805-.591 1.2467-.056.2985-.056.6047 0 .9031.06.1694.158.3226.287.4476.128.1218.281.2145.448.2717.325.0799.665.0799.991 0 .256-.0658.494-.1888.695-.3596.207-.1627.374-.3705.488-.6074.234-.498.32-1.0529.247-1.5984-.055-.2045-.165-.3898-.319-.5355-.153-.1441-.34-.246-.544-.2957-.238-.032-.48-.032-.719 0l-.056.008Zm.623.5035c.175.0791.319.214.408.3836.048.0959.048.1599.048.4396.023.4692-.135.9293-.44 1.2867-.09.1069-.202.194-.327.2557-.129.0566-.267.0865-.408.0879-.071.0159-.145.0159-.216 0-.069-.0141-.135-.0442-.191-.0879-.304-.1598-.416-.3916-.384-.8551 0-.2534.055-.5038.163-.7332.108-.2293.265-.432.46-.5935.126-.109.277-.1834.44-.2158.159-.0435.328-.0435.487 0l-.04.032Zm5.811-.5275c-.26.0142-.511.0953-.729.2354-.219.14-.397.3343-.518.5638-.039.0688-.071.1411-.096.2158.174.033.35.0544.527.064 0 0 .072 0 .104-.1039.097-.1741.238-.3201.408-.4236.187-.0815.392-.1097.594-.0815.202.0282.392.1117.549.2413.05.084.07.1828.056.2797.008.0851.008.1707 0 .2558-.289.134-.601.2074-.919.2158-.329.0233-.652.096-.959.2158-.166.0702-.313.1767-.432.3116-.113.1361-.197.2938-.248.4636-.028.1155-.028.2361 0 .3516.016.1191.057.2336.12.3357.069.0987.159.1807.264.2397.106.0561.224.0887.344.096.502.0476 1.006-.0825 1.422-.3677l.136-.0959v.1439c0 .2797 0 .2637.336.2637.335 0 .311 0 .295-.0559-.08-.2957-.08-.4236.144-1.5984.144-.3988.191-.8263.136-1.2468-.037-.137-.122-.2562-.24-.3357-.108-.0896-.243-.1427-.383-.1518-.266-.0253-.534-.0253-.799 0l-.112-.032Zm.727 2.0859c-.05.2348-.173.4476-.352.6074-.12.1144-.261.204-.415.2638-.158.062-.327.0893-.496.0799-.11.0143-.221-.0052-.32-.056-.367-.1998-.287-.6873.144-.8791.205-.0567.414-.102.624-.1358l.679-.1279c.056-.0075.112-.0075.168 0l-.032.2477Zm4.332-2.0619c-.442.1376-.824.4189-1.087.7992-.264.3706-.401.8161-.392 1.2707-.039.2354-.009.4771.088.6953.096.2213.251.4121.448.5515.25.117.523.1777.799.1777s.549-.0607.799-.1777c.245-.1149.463-.2811.639-.4875.176-.2066.304-.4495.376-.7113.133-.4015.171-.8281.112-1.2468-.04-.2057-.14-.3949-.288-.5434-.147-.149-.332-.2541-.535-.3037-.296-.0562-.6-.0562-.895 0l-.064-.024Zm.663.5195c.118.0594.22.1473.296.2557.078.1086.127.235.143.3677.025.4879-.103.9713-.367 1.3826-.147.1712-.333.303-.544.3836-.223.0721-.464.0721-.687 0-.148-.0837-.266-.2125-.336-.3676-.118-.5024-.041-1.0311.216-1.4786.111-.241.307-.432.552-.5354.257-.0955.541-.0955.799 0l-.072-.008Zm2.789-.5275c-.2.0662-.374.1951-.495.3676-.112.1199-.112.1199-.056-.1278-.01-.0609-.01-.123 0-.1838-.088-.0161-.177-.0161-.264 0h-.272s-.128.7432-.303 1.5984c-.176.8551-.312 1.6383-.312 1.6623 0 .024 0 0 .296 0h.295l.144-.7992c.072-.4984.184-.9902.336-1.4705.084-.2039.225-.3789.407-.5035.108-.0398.222-.0562.336-.048.113.0101.222.0456.32.1039.12-.1654.225-.3421.311-.5275l-.167-.0959c-.104-.0619-.224-.0899-.344-.0799h-.152l-.08.1039Zm-55.9439.1119-.3037 1.5984c-.1598.8551-.3117 1.5984-.3117 1.5984s0 .0559.2877.0559.2957 0 .3037-.0399c.008-.04.1519-.7513.3117-1.5984.1599-.8472.3117-1.5984.3197-1.5984.008 0 0-.056-.2797-.056h-.2877l-.04.04Zm9.9501-.0559-.2158 1.1108c-.1216.4678-.1913.9476-.2078 1.4306 0 .2797 0 .3357.0479.4236.1077.1545.2536.2785.4236.3596.1772.0717.3699.0965.5594.072.3507-.0284.6822-.1717.9431-.4076.1039-.0959.1199-.0959.0559.1358.0038.0586.0038.1173 0 .1759.0878.0079.176.0079.2638 0h.2477l.3197-1.6544c.1758-.9111.3197-1.6623.3117-1.6783h-.5914l-.1758.8871c-.045.4944-.1635.9792-.3517 1.4386-.2637.5594-1.0869.7992-1.3906.3596-.0479-.0719-.0559-.1119-.0559-.3357.034-.4364.1035-.8694.2078-1.2947.1039-.5674.1998-1.0389.1998-1.0389h-.5435l-.0479.016Zm6.3936.1118c0 .072-.1679.7992-.3117 1.5984-.1439.7992-.2957 1.5265-.2957 1.5345 0 .008 0 0 .2957 0h.2957l.3037-1.5984c.1678-.8711.3117-1.5984.3276-1.6623v.016h-.5834l-.0319.1118Zm26.6292 0s.144.7992.32 1.6704l.311 1.5984h.568l.943-1.6624.959-1.6543h-.296c-.106-.016-.213-.016-.319 0 0 0-1.135 2.014-1.303 2.3417l-.136.2397v-.1678c0-.1838-.392-2.3976-.4-2.3976-.008 0-.055-.048-.327-.048h-.312l-.008.0799ZM69.4283 16.1915c-1.199.4747-2.2192 1.3132-2.9171 2.3976-.4808.7642-.756 1.6396-.7992 2.5415-.0434.6504.1224 1.2976.4733 1.8469.3509.5494.8684.972 1.4768 1.206.7931.3777 1.6199.68 2.4695.9031.2717.072.7992.2478 1.0709.3197.5691.1211 1.0747.4449 1.4226.9111.0872.2557.0989.5311.0337.7933-.0652.2622-.2045.5001-.4013.6852-.4695.4246-1.064.6854-1.6943.7433-.4594.0315-.921.0073-1.3746-.072-.2451-.0375-.4788-.1285-.6846-.2667-.2059-.1381-.3787-.3199-.5062-.5325-.1713-.4785-.2208-.9921-.1439-1.4945h-3.7163c-.34 1.2402-.1762 2.5644.4556 3.6844.2323.3665.5369.682.8951.927 1.093.6774 2.3685 1.0012 3.6523.9271 1.1775.0019 2.347-.1926 3.4605-.5754.4882-.1933.9522-.4428 1.3827-.7433.692-.4589 1.2801-1.0579 1.7262-1.7582.4433-.7007.7497-1.479.9031-2.2937.1687-.7465.096-1.5273-.2078-2.2298-.1561-.3029-.3675-.574-.6233-.7992-.7033-.6474-1.5984-1.0629-3.6444-1.5984-1.4465-.3996-1.958-.6314-2.2777-.9431-.1327-.1249-.2103-.2974-.2158-.4795.0029-.3324.1248-.6528.3437-.9031.1913-.2442.4495-.4275.7432-.5274.6523-.2102 1.3511-.2296 2.014-.056.2216.0594.4266.1688.5994.3197.1702.1521.2947.3486.3596.5674.056.2823.056.5729 0 .8552h3.7323c.1972-.9237.1079-1.8856-.2557-2.7573-.1595-.3529-.3908-.6687-.6794-.927-.7559-.6689-1.6987-1.09-2.7013-1.2068-.5299-.0681-1.0641-.0975-1.5984-.0879-.9492.0756-1.8829.2855-2.7732.6233Zm10.7173-.3516-3.4605 15.4645h3.996c4.3076 0 4.0759 0 4.907-.1439 1.024-.1418 1.9877-.5682 2.7813-1.2307.7885-.6778 1.3748-1.5599 1.6943-2.5495.1483-.4043.258-.8217.3276-1.2467.089-.4312.0896-.8759.0017-1.3072-.088-.4314-.2625-.8404-.5132-1.2023-.3178-.3743-.7245-.6629-1.1828-.8392 0 0 .6154-.3516.8472-.5274.3094-.2362.5933-.5041.8471-.7992.47-.583.7836-1.2762.9111-2.014.3117-1.8222-.4076-2.989-2.2058-3.4286-.3832-.1038-.7778-.1602-1.1748-.1678l-7.7762-.008Zm6.3936 3.1968c.1191.0104.2346.0456.3393.1034.1046.0578.1959.1369.2681.2322.1455.1892.2166.4253.1998.6634-.01.4158-.1435.8192-.3836 1.1588-.2557.3289-.6123.5648-1.015.6713-.5885.0717-1.1819.0958-1.7742.072h-1.5984l.6473-2.9331h1.5505c.5514-.008 1.3346-.008 1.7662.024v.008Zm-1.1429 5.5464c.2595-.0009.5132.0771.7273.2238.2143.149.3764.3614.4635.6074.0799.3066.0799.6285 0 .9351-.0657.415-.2616.7984-.5594 1.0949-.2948.297-.6746.4953-1.0869.5674-.6554.0799-3.7243.0479-3.7243.0479l.7992-3.4845 3.3806.008Zm4.9631 6.7293h3.7482l3.4446-15.4086h-3.7483l-3.4445 15.4086Z"/>
	<path fill="#FC121B" d="M90.7113 5c-3.6923 0-9.5904 1.39061-14.3856 3.1968-5.1567 1.8938-9.9357 4.6892-14.1139 8.2557-.4715.4076-3.1329 2.9331-4.2118 5.2028 1.8507-1.824 3.8803-3.4573 6.0579-4.8751 6.7908-4.3073 14.4738-7.0104 22.4656-7.90408 4.6753-.45554 9.0309.37562 10.965 1.59838 5.1145 3.2767 1.982 8.1359 1.95 8.2558.3836-.3996 3.7645-3.5405 3.7645-7.7043 0-1.82221-1.359-3.61242-3.3649-4.59543C96.8651 5 94.6993 5 90.7113 5Z"/>
</svg>