<svg xmlns="http://www.w3.org/2000/svg" viewBox="0 0 200 50">
	<path class="bg-logo" fill="#0E0737" d="M0 0h200v50H0z"/>
	<path fill="#5B57A2" d="m60 13.707 4.8439 8.6581v5.2812l-4.8382 8.6411L60 13.707Z"/>
	<path fill="#D90751" d="m78.5986 19.2164 4.5389-2.782 9.2891-.0086-13.828 8.4711v-5.6805Z"/>
	<path fill="#FAB718" d="m78.5727 13.6554.0257 11.463-4.8552-2.9832V5l4.8298 8.6554h-.0003Z"/>
	<path fill="#ED6F26" d="m92.4263 16.4233-9.2894.0087-4.5642-2.7766L73.7432 5 92.426 16.4233h.0003Z"/>
	<path fill="#63B22F" d="M78.5984 36.3358v-5.5616l-4.8552-2.9265.0026 17.1521 4.8526-8.664Z"/>
	<path fill="#1487C9" d="M83.126 33.5788 64.8435 22.3651 60 13.707l32.4068 19.8605-9.2811.0113h.0003Z"/>
	<path fill="#017F36" d="m73.7463 44.9984 4.8519-8.6641 4.5275-2.7566 9.2808-.0113-18.6602 11.432Z"/>
	<path fill="#984995" d="m60.0056 36.2856 13.7773-8.4398-4.6319-2.8419-4.3072 2.6406-4.8382 8.6411Z"/>
	<path fill="#fff" d="M112.96 26.3574c3.126 0 5.447-1.9167 5.447-4.8222 0-2.8124-1.712-4.6382-4.574-4.6382-1.321 0-2.411.4648-3.232 1.2672.196-1.6581 1.598-2.869 3.142-2.869.356 0 3.039-.0056 3.039-.0056l1.517-2.9029s-3.368.0768-4.934.0768c-3.577.0622-5.993 3.3137-5.993 7.2629 0 4.6011 2.356 6.631 5.588 6.631Zm.019-6.8892c1.161 0 1.965.7627 1.965 2.0667 0 1.1735-.714 2.1406-1.965 2.1432-1.196 0-2-.8962-2-2.1233 0-1.3044.804-2.0866 2-2.0866Zm17.499-3.2395v9.7791h-3.492v-6.8599h-3.362v6.8599h-3.492v-9.7797l10.346.0006Zm-28.005 7.0705c1.232-.0899 2.056-.5654 2.056-.5654l1.293 2.3908c-.828.5316-2.186.8773-3.17.9138-3.5217.0647-5.9713-2.0781-5.9713-5.2001 0-3.0826 2.6062-5.2765 5.9713-5.2765 1.333 0 2.479.3577 3.34 1.01-.181.321-.427.7656-.661 1.1911l-.375.6829-.341.6237s-1.24-.6497-2.177-.6497c-1.529 0-2.6424.8883-2.6424 2.438 0 1.5892 1.2614 2.4834 2.6774 2.4414Zm-2.6764 9.2898c-.1066.136-.2469.2389-.4152.3082-.1728.0703-.3575.1061-.5441.1052-.1853.0026-.3697-.0284-.5442-.0912-.1567-.057-.3-.1458-.4207-.2607-.1192-.1153-.2128-.2542-.2746-.4082-.0671-.1683-.1004-.3483-.0983-.5296 0-.18.0309-.3467.0952-.5046.0617-.1582.1514-.2939.2637-.4078.0509-.0528.1064-.1.166-.1423l.0364-.0247c.0383-.0251.0782-.0485.1195-.07l.0444-.0221.0321-.0153c.1543-.0668.3226-.1029.5076-.1029.1992 0 .3843.0251.5526.0749.1063.0312.2023.0758.2882.1338.0505.0341.0974.0729.1408.1162l-.2046.3466c-.0991-.0898-.2156-.1578-.3424-.2002-.1205-.0387-.2464-.0582-.3729-.0579-.1121 0-.2187.0221-.3224.0638-.1021.041-.1955.1012-.2749.1777-.0814.0782-.1453.1729-.1881.2774-.0476.1077-.07.2272-.07.3603 0 .1357.025.2578.0727.3633.048.108.1123.1998.1937.2773.0812.0778.1766.1358.286.1748.0446.0169.0901.0303.1367.0401.0678.0143.1382.0211.2112.0211.1514 0 .2891-.0309.4068-.0892.0616-.0299.1201-.0657.1744-.1071.0482-.0368.0931-.0778.1341-.1227l.2103.3158Zm.5774.3551v-2.4684h.444v1.8392l1.441-1.8392h.444v2.4687h-.444v-1.8388l-1.441 1.8388-.444-.0003Zm5.265-.3551c-.109.1373-.252.2434-.415.3082-.099.0401-.202.069-.307.0863-.078.0127-.157.0192-.237.0189-.074.0009-.149-.0033-.222-.0131-.11-.0143-.218-.0403-.322-.0781-.036-.013-.071-.0277-.105-.0439-.042-.0199-.082-.042-.121-.0661-.07-.0433-.135-.0938-.195-.1507-.119-.1153-.213-.2542-.275-.4082-.067-.1683-.1-.3483-.098-.5296 0-.18.031-.3467.095-.5046.062-.1582.152-.2939.264-.4078.112-.1166.247-.2051.398-.2744.16-.0703.333-.1055.508-.1029.116 0 .227.0085.332.0254l.062.0107c.024.0046.047.0098.07.0153l.041.0101.048.0134c.168.0498.311.1331.429.25l-.205.3466c-.099-.0898-.215-.1578-.342-.2002-.031-.0097-.061-.0185-.092-.026-.022-.0049-.043-.0091-.065-.013-.02-.0036-.041-.0069-.061-.0095l-.045-.0048c-.037-.0033-.073-.0049-.11-.0046-.223.0007-.437.0872-.598.2415-.021.0205-.04.0417-.059.0642-.022.0263-.042.0543-.061.0833-.026.0413-.049.0846-.068.1299-.01.0234-.019.0475-.027.0722-.01.0283-.017.0573-.023.0869-.013.0635-.02.1302-.02.2012 0 .0641.006.125.017.1826.006.0342.015.0667.025.0983.009.0287.019.056.031.0824.03.0683.067.1302.111.1858.025.0326.053.0629.083.0915.081.0778.177.1358.286.1748.109.0388.224.0612.347.0612.052 0 .102-.0036.15-.0107.092-.0134.178-.0401.257-.0785.117-.0563.222-.1344.309-.2298l.21.3158Zm.23-2.1133h2.272v.4385h-.914v2.0299h-.443v-2.0299h-.915v-.4385Zm4.777 2.1995c-.123.1107-.266.1914-.435.2441-.162.0525-.331.0795-.502.0805-.068.0009-.136-.0027-.204-.0105-.119-.014-.235-.041-.348-.081-.166-.0609-.306-.1471-.421-.2608-.118-.1152-.209-.2542-.269-.4075-.062-.1582-.096-.3356-.096-.5299-.001-.1722.028-.3431.087-.5046.054-.152.139-.2907.25-.4078.052-.0544.11-.1039.172-.1475.071-.0504.148-.0931.229-.1273.092-.0384.193-.0667.301-.0836.078-.0124.161-.0189.249-.0189.051-.0003.102.0026.153.0088.046.0055.091.0137.136.0241.055.013.109.0299.162.0504.138.0511.264.1293.371.2302.027.0263.053.0537.077.0826.02.0238.039.0482.057.0736.027.0387.052.0798.075.1218.013.026.026.0527.037.0797.026.0573.046.1169.061.179.021.0882.032.182.032.2816 0 .1136-.008.2106-.028.2965h-1.919c.02.2334.107.416.267.5466.16.1305.362.194.606.194.083 0 .162-.0065.238-.0195.072-.0124.14-.0306.205-.0551.132-.0501.241-.111.322-.1832l.135.3437Zm-1.007-1.8414c-.23 0-.412.0609-.55.1855-.136.1228-.222.2904-.244.4717h1.515c-.011-.2051-.078-.3659-.205-.4824-.021-.0195-.043-.0371-.067-.0531-.022-.0153-.045-.0289-.069-.0413-.019-.0094-.038-.0179-.058-.0257-.093-.0365-.201-.0547-.322-.0547Zm1.784-.3581h.404l.959 1.2233.909-1.2233h.393v2.4687h-.443v-1.8001l-.865 1.1455h-.016l-.898-1.1458v1.8001h-.443v-2.4684Zm3.677.0746c.063-.0267.127-.0489.193-.0661.143-.0387.292-.0609.449-.0609.154 0 .287.0166.401.0498.076.0222.143.0518.201.0886.056.0348.103.0765.142.125.062.0765.111.1673.146.2721.045.1351.067.2933.067.4743v1.5142h-.415v-.319c-.073.0944-.174.1774-.301.2497-.126.0719-.291.1081-.499.1081-.15 0-.281-.0283-.393-.085-.024-.0123-.048-.026-.071-.041-.015-.0104-.03-.0215-.044-.0329-.016-.0127-.032-.0263-.047-.0407-.14-.1331-.211-.3219-.211-.5631-.001-.1162.024-.2308.073-.3359.047-.0957.114-.18.197-.2464.081-.0668.182-.1169.3-.1501.023-.0065.047-.0127.07-.0182l.036-.0078.04-.0072c.073-.0127.149-.0195.227-.0195.108.0013.214.0123.32.0335.109.0189.212.0615.303.125 0-.0492-.001-.0967-.004-.1426l-.004-.0674c-.003-.0364-.007-.0719-.012-.1064-.014-.097-.039-.18-.079-.2467-.018-.0313-.04-.0603-.066-.0856-.012-.0121-.025-.0235-.039-.0339-.01-.0068-.02-.0137-.03-.0199-.011-.0068-.023-.013-.036-.0188-.075-.0388-.174-.0586-.297-.0586-.154 0-.283.0169-.384.053l-.054.0199-.045.0172-.054.0218c-.05.0212-.1.044-.15.0687l-.118-.3499c.06-.0371.123-.0697.188-.0973Zm.539 2.039c.162 0 .294-.0329.395-.1052.091-.0605.174-.1324.247-.2138v-.3135c-.049-.0351-.101-.0644-.157-.0882-.031-.0133-.063-.0247-.096-.0342-.023-.0065-.046-.0124-.07-.0176-.028-.0058-.056-.0104-.084-.014-.05-.0061-.101-.0094-.154-.0094-.067 0-.131.0081-.196.0247-.032.0079-.064.0186-.094.0323-.026.012-.052.0263-.077.0429-.048.0332-.09.0749-.121.1276l-.006.0114c-.005.0088-.009.0176-.013.0267-.004.0101-.008.0205-.011.0313-.003.0097-.005.0198-.007.0302-.005.0251-.008.0518-.008.0804 0 .1166.039.211.118.2829.045.0401.102.069.169.0863.049.0127.104.0192.165.0192Zm5.225-3.1949c-.078.1025-.162.1719-.252.2132-.09.0417-.188.0697-.295.0918-.08.0166-.163.0319-.251.0478l-.088.0163c-.133.0244-.262.0664-.384.1247-.047.0198-.091.0439-.133.0716-.03.0199-.059.0413-.086.0648l-.033.0296-.019.0199-.021.0218c-.015.0179-.03.0361-.044.0546-.028.0368-.054.0749-.077.1146-.024.0401-.045.0817-.064.125-.048.1078-.084.222-.11.3412-.025.1194-.039.2356-.047.3492h.011c.039-.0885.095-.1663.163-.236.068-.0703.147-.1308.232-.18.019-.0107.038-.0211.057-.0312.022-.0111.044-.0215.066-.0313.051-.0224.104-.0413.158-.0566.101-.0277.205-.0417.311-.0417.104-.0013.208.0101.309.0339.059.014.117.0322.174.0547.139.0553.265.1409.367.25.103.1113.181.2425.23.3854.054.15.082.319.082.5045 0 .1722-.031.3356-.096.4883-.026.0657-.058.1286-.095.1878-.048.0781-.105.1497-.168.2145-.116.1172-.253.2103-.404.2744-.157.0667-.331.1029-.519.1029-.205 0-.387-.0362-.55-.1081-.163-.0719-.3-.1722-.415-.3053-.115-.1306-.202-.291-.264-.4828-.062-.1914-.092-.4046-.092-.6406 0-.1829.011-.374.033-.5738.022-.196.067-.3884.132-.5742.065-.1833.16-.3496.281-.4964.12-.1472.28-.2634.479-.3496l.044-.0189c.021-.0088.043-.0173.064-.0251.04-.0143.079-.0273.12-.0391.024-.0068.048-.0133.072-.0192.031-.0074.062-.014.093-.0195l.153-.0264.083-.0143.084-.015c.049-.0084.098-.0198.146-.0341.038-.0111.075-.0238.112-.0381.02-.0078.04-.0179.059-.0293l.025-.0163c.045-.0316.087-.0739.126-.1263l.241.3467Zm-1.873 2.1523c-.003.1464.018.2926.061.4326.037.1185.095.2291.171.3274.073.0879.164.1589.267.208.104.0498.216.0749.339.0749.094 0 .179-.0127.259-.0384l.029-.0098c.015-.0055.031-.0117.046-.0185.097-.041.185-.1016.258-.1771.073-.0758.131-.1657.169-.264.039-.0996.061-.208.061-.3271 0-.2412-.067-.4411-.205-.6016-.046-.0534-.099-.0976-.158-.1331-.049-.0293-.103-.0524-.161-.0697-.083-.0241-.174-.0361-.275-.0361-.21-.0016-.413.0677-.578.1969-.073.0586-.135.125-.182.1999-.017.0247-.032.0505-.045.0771-.011.0215-.02.0433-.029.0655-.011.0302-.02.0615-.027.0931Zm5.085-1.0706h.443v2.4686h-.443v-2.4686Zm-1.874 0h-.446v2.4712h.805c.041 0 .079-.0013.117-.0035.023-.0013.046-.0033.069-.0056.02-.0019.04-.0042.059-.0071.092-.0131.175-.0339.249-.0612.031-.0117.061-.0241.089-.0375l.037-.0182.028-.0153c.02-.0117.04-.0241.058-.0371.012-.0081.023-.0166.035-.0251.013-.0107.026-.0218.039-.0332.011-.0107.023-.0221.034-.0335.078-.0833.137-.1748.171-.2799.021-.0625.036-.125.045-.1885.005-.0439.008-.0885.008-.1338 0-.0238-.001-.0472-.002-.0706-.002-.0205-.004-.0407-.006-.0609-.008-.0638-.021-.126-.04-.1875-.03-.1022-.084-.1937-.159-.2715-.076-.0778-.177-.1412-.303-.1888-.127-.0468-.284-.0719-.477-.0719h-.41v-.7405Zm.323 2.0578h-.323v-.9101h.329c.041 0 .08.0013.117.0042.057.0046.108.0127.154.0241.035.0085.066.0192.095.0316.036.016.067.0348.094.057.029.026.054.0556.075.0895.022.0371.039.0791.049.1256.008.0388.013.0808.013.126 0 .1471-.045.2578-.135.3356-.039.0339-.091.0606-.156.0798-.083.0244-.187.0367-.312.0367Zm4.925.0551c-.106.136-.246.2389-.415.3082-.173.07-.357.1058-.544.1052-.185.0026-.37-.0284-.544-.0912-.157-.057-.3-.1458-.421-.2607-.046-.0443-.088-.0921-.125-.1429l-.031-.0433c-.011-.0163-.022-.0329-.032-.0498l-.014-.0238c-.01-.0159-.018-.0322-.027-.0488-.011-.0218-.022-.044-.032-.0667l-.014-.0329c-.066-.1683-.1-.3483-.098-.5296 0-.18.031-.3467.096-.5046.061-.1582.151-.2939.263-.4078.113-.1166.247-.2051.399-.2744.159-.0703.333-.1055.507-.1029.199 0 .385.0251.553.0749.168.0498.311.1331.429.25l-.205.3466c-.041-.0377-.086-.0716-.133-.1012-.023-.0147-.047-.0283-.072-.041-.019-.0098-.039-.0189-.059-.0277l-.037-.0153-.041-.015c-.121-.0387-.247-.0582-.373-.0579-.045 0-.089.0036-.133.0104-.065.0104-.128.0287-.19.0534-.102.041-.195.1016-.274.1777-.026.0254-.051.0524-.073.0808l-.019.0257c-.039.053-.071.1103-.096.1709-.048.1077-.07.2272-.07.3603 0 .1357.025.2578.072.3633.048.108.113.1998.194.2773.081.0778.177.1358.286.1748.11.0388.225.0612.348.0612.091 0 .176-.0111.256-.0329.02-.0055.039-.0117.059-.0185.031-.0108.062-.0235.092-.0378.116-.0563.221-.1344.308-.2298l.21.3158Zm.23-2.1133h2.273v.4385h-.915v2.0299h-.443v-2.0299h-.915v-.4385Zm2.755.0007h.443v.291c.084-.1003.205-.18.359-.2467.154-.0668.317-.1.491-.1.028-.0006.056 0 .084.0016.056.0033.112.0105.167.0215.078.0157.155.0394.228.071.139.0579.263.1461.362.2581.102.1149.18.2487.23.3936.026.0742.046.152.06.2337.014.0866.022.1771.022.2715 0 .1855-.031.3606-.093.5237-.062.1637-.149.3024-.264.4222-.116.1191-.255.2142-.409.2799-.16.0664-.337.1023-.533.1023-.132 0-.261-.0137-.384-.0414-.124-.0277-.23-.0693-.32-.1276v1.2119h-.443v-3.5663Zm1.164.3574c-.149 0-.286.0335-.412.1003-.126.0664-.23.1468-.309.2408v1.2233c.101.0674.212.1182.328.1501.107.0276.219.0413.34.0413.124.0023.247-.0215.362-.0693.102-.042.195-.1055.272-.1859.076-.0814.134-.1777.171-.2829.039-.111.062-.2301.062-.3632 0-.028-.001-.0557-.003-.0827l-.004-.044-.003-.0312-.005-.0322-.006-.031-.008-.0361c-.007-.0296-.015-.0586-.025-.0869-.033-.1051-.087-.194-.157-.2718-.07-.0775-.154-.1357-.255-.1774-.104-.0417-.219-.0612-.348-.0612Zm4.238-.3577h.443v2.4683h-.443v-2.4683Zm-1.876 0h-.446v2.4709h.805c.196 0 .359-.0277.493-.0771.135-.0502.242-.1166.32-.1999.079-.0833.138-.1748.171-.2803.037-.1051.053-.2109.053-.3219 0-.111-.016-.2161-.047-.319-.031-.1022-.084-.194-.16-.2715-.076-.0778-.177-.1416-.303-.1888-.126-.0468-.283-.0719-.477-.0719h-.409v-.7405Zm.325 2.0578h-.322v-.9101h.328c.213 0 .367.0391.46.1169.09.0778.137.191.137.3411 0 .1471-.045.2578-.134.3353-.09.0781-.247.1168-.469.1168Zm4.121-.8681.947 1.2786h-.543l-.733-.9987-.743.9987h-.516l.942-1.2568-.886-1.2119h.544l.676.932.687-.932h.516l-.891 1.1901Zm-38.9383 4.3293h-1.3603v2.0582h-.4434V35.585h2.2467v2.4683h-.443v-2.0582Zm2.9593.0277h-.875l-.029.416c-.019.2217-.043.4157-.072.583-.018.0986-.038.1881-.059.2685-.059.2165-.132.3828-.216.4994-.084.1165-.183.1969-.295.236-.116.0419-.239.0625-.362.0608l-.033-.4274c.047.0026.103-.0081.165-.0358.062-.0276.124-.0888.182-.18.059-.0947.113-.2278.16-.3997.048-.1748.079-.402.096-.6881l.045-.7683h1.736v2.4687h-.443v-2.0331Zm1.256-.2689c.109-.0693.238-.1247.382-.1634.146-.0404.297-.0609.448-.0609.354 0 .603.0882.744.2634.143.1748.213.4244.213.746v1.5143h-.415v-.319c-.073.0944-.174.1777-.3.2497-.127.0723-.292.1084-.5.1084-.23 0-.415-.0667-.555-.1999-.077-.0726-.133-.1621-.167-.2679-.029-.0875-.043-.1858-.043-.2949 0-.0176 0-.0351.001-.0527.002-.0388.007-.0768.015-.1143.012-.0582.031-.1149.056-.1689.047-.0957.114-.18.197-.2464.044-.0365.094-.0677.149-.0941.047-.0221.097-.0407.151-.056.118-.0335.241-.0527.373-.0527.107.0013.214.0123.32.0332.04.0071.08.0176.118.0309.065.0228.128.0544.185.0937 0-.1136-.006-.2187-.02-.316-.007-.0515-.018-.099-.032-.1423-.007-.0221-.016-.0433-.025-.0631-.006-.0143-.014-.0283-.021-.0414-.04-.0667-.096-.122-.172-.1582-.049-.025-.108-.0423-.177-.0511l-.034-.0035c-.027-.0023-.056-.0036-.086-.0036-.154 0-.283.0169-.384.0527-.03.0104-.059.0215-.088.0329-.072.028-.143.0592-.215.0947l-.118-.3496Zm.73 1.9417c.101 0 .191-.013.269-.0404.046-.0166.088-.0381.126-.0654.091-.0602.174-.1322.247-.2135v-.3135c-.154-.1107-.342-.1631-.561-.1631-.025 0-.051.001-.076.0033-.041.0039-.081.011-.12.0211-.065.0169-.124.0417-.171.0752-.048.0332-.09.0749-.121.1276s-.045.111-.045.1803c0 .1163.039.2107.118.2826.078.0697.188.1058.334.1058Zm1.494-2.1106h2.273v.4381h-.915v2.0302h-.443v-2.0299h-.915v-.4384Zm4.543 2.3612c-.063.0326-.129.0599-.2.0821-.169.0527-.337.0807-.503.0807-.188.0023-.375-.0287-.552-.0918-.166-.0609-.306-.1471-.421-.2607-.115-.1136-.207-.2497-.269-.4076-.062-.1585-.096-.3356-.096-.5299-.001-.1722.028-.3431.087-.5049.026-.0706.058-.1383.096-.2025.043-.0735.095-.1425.154-.205.114-.1179.25-.2113.401-.2748.16-.0667.342-.1025.55-.1025.154-.001.308.0273.452.0833.137.0511.263.1296.37.2302.105.1015.189.2233.247.3577.061.1387.092.2913.092.4603 0 .1139-.008.2112-.028.2968h-1.918c.019.2331.106.4164.266.5466.16.1302.362.194.606.194.163 0 .311-.0248.443-.0746.132-.0501.241-.111.323-.1835l.134.344c-.071.0638-.149.1179-.234.1621Zm-.775-2.0064c-.23 0-.413.0612-.55.1858-.136.1224-.223.2901-.244.4717h1.515c-.012-.2054-.079-.3662-.205-.4827-.126-.1136-.297-.1748-.516-.1748Zm1.96-.3548h-.561l.917 1.1897-.959 1.2786h.544l.915-1.2783-.856-1.19Zm1.408 0h-.443v2.4683h.443V35.585Zm.609 1.1897.976 1.2786h-.55l-.925-1.2786.86-1.1901h.551l-.912 1.1901Zm3.436 1.0094c-.124.1107-.266.1914-.435.2442-.162.052-.331.0794-.502.0807-.188.0023-.375-.0287-.552-.0918-.166-.0609-.306-.1471-.421-.2607-.115-.1136-.208-.2497-.27-.4076-.061-.1585-.095-.3356-.095-.5299-.002-.1722.028-.3431.087-.5049.054-.1517.139-.2907.25-.4075.113-.1179.25-.2113.401-.2748.16-.0667.342-.1025.55-.1025.154-.001.307.0273.451.0833.138.0511.264.1296.37.2302.106.1015.19.2233.247.3577.062.1387.093.2913.093.4603 0 .1139-.009.2112-.028.2968h-1.919c.02.2331.107.4164.266.5466.16.1302.362.194.606.194.163 0 .312-.0248.444-.0746.131-.0501.241-.111.322-.1835l.135.344Zm-1.009-1.8443c-.23 0-.413.0612-.55.1858-.136.1224-.223.2901-.245.4717h1.515c-.011-.2054-.078-.3662-.205-.4827-.126-.1136-.299-.1748-.515-.1748Zm2.674-1.2975c.071.0755.174.1133.307.1133.247 0 .384-.1442.404-.4326h.415c0 .1106-.02.2106-.059.305-.039.0944-.095.1748-.165.2412-.032.0286-.065.0553-.101.0794-.048.0319-.1.0592-.157.0814-.057.0234-.118.0397-.183.0498-.05.0075-.102.011-.157.011-.053 0-.103-.0029-.151-.0088-.077-.0094-.147-.0263-.211-.052-.103-.0414-.193-.0941-.263-.1608-.042-.0401-.079-.0856-.109-.1361-.02-.0329-.037-.068-.051-.1051-.021-.0524-.035-.1068-.045-.1638-.007-.0452-.011-.0921-.011-.1412h.418c.011.1409.05.2473.119.3193Zm-.448 3.411h-.443v-2.4687h.443v1.8389l1.442-1.8389h.443v2.4687h-.443v-1.8391l-1.442 1.8391Z"/>
</svg>