<svg xmlns="http://www.w3.org/2000/svg" viewBox="0 0 200 50">
	<path class="bg-logo" fill="#174882" d="M0 0h200v50H0z"/>
	<path fill="#fff" d="M29.8896 33.6631 25 30.3662s17.4092-.8389 17.4033-4.5781c-.0039-2.3985-2.5615-4.0293-5.0976-5.6465-2.4952-1.5918-4.9698-3.1699-4.9698-5.4521 0-3.2833 4.8907-4.3741 7.503-4.73345-.3633.08695-.753.18265-1.1534.29495-.2597.0732-.5244.1533-.788.2431-2.8643.9727-4.375 2.3975-4.375 4.1358 0 1.6142 2.1728 2.9189 4.6836 4.4248l.0146.0088c3.1533 1.8926 6.7236 4.0273 6.7236 7.2519 0 4.291-12.1894 6.8203-15.0547 7.3477Zm9.4932-23.4209c-1.8935.7314-4.2793 1.9902-4.2793 4.1592 0 1.1269 1.6856 1.9424 3.8135 2.9726 3.6445 1.7637 8.5879 4.1563 8.5918 9.8164.0029 5.4658-13.3291 9.3604-13.3291 9.3604l-3.9434-2.6602c.6446-.122 1.5967-.3164 2.711-.5791 1.292-.3037 2.8017-.7002 4.3007-1.1826 5.2989-1.7021 7.9825-3.6553 7.9825-5.8125 0-3.3799-3.6465-5.5684-6.8672-7.5039l-.0117-.0059c-2.4414-1.4677-4.542-2.7285-4.542-4.1767 0-2.5059 3.0918-3.7998 5.5732-4.3877Zm5.7529 4.3633c1.295 0 2.3379-1.0547 2.3379-2.3379 0-1.2822-1.0429-2.32522-2.3252-2.32522h-2.3379v7.19142h-1.1269V8.81543h3.4648c1.9063 0 3.4522 1.54587 3.4522 3.45217 0 1.9072-1.5586 3.4648-3.4649 3.4648h-.6943v-1.1269h.6943Zm-4.8535-7.19144h4.8662c2.6836 0 4.8536 2.18164 4.8536 4.85354 0 2.6845-2.1817 4.8662-4.8663 4.8662h-.6943v-1.127h.6943c2.0616 0 3.7393-1.6767 3.7393-3.7392 0-2.0615-1.6777-3.72658-3.7266-3.72658h-3.7392v8.59278h-1.127V7.41406ZM53.7656 18.5732l.001 6.0166h-1.1631v-6.0771c0-.5762-.4199-1.0703-.9951-1.127-.6592-.0644-1.21.4561-1.21 1.1036v6.1113h-1.1513v-6.0772c0-.623.2529-1.2177.707-1.6533.4453-.4287 1.0303-.6533 1.6416-.6347 1.1982.0361 2.1699 1.0908 2.1699 2.3378Zm4.7949 0 .001 6.0166h-1.1631v-6.0771c0-.5762-.4199-1.0703-.9941-1.127-.3145-.0302-.6035.0713-.8203.2559-.2393.2041-.3906.5088-.3906.8477v6.1113H54.042v-6.0772c0-.623.251-1.1972.6953-1.6289.4424-.4316 1.0303-.6591 1.6533-.6357.7295.0283 1.374.4258 1.7676 1.0078.2529.375.4023.8272.4023 1.3066Zm-4.663-2.8046c.6836-.587 1.5586-.9014 2.4697-.8868 2.0254.0313 3.6191 1.7373 3.6084 3.7627v5.9688h-1.1514v-6.0762c0-.6953-.2773-1.3379-.7666-1.8223-.4941-.4863-1.1504-.7431-1.834-.7187-.4746.0185-.9277.1699-1.3125.4277-.3623.2432-.665.5801-.8691.9873l-.1318.2764-.1319-.2764c-.4443-.8877-1.3672-1.4463-2.3496-1.415-1.3545.0439-2.457 1.1982-2.457 2.5889v6.0166h-1.1631v-5.9688c0-2.0137 1.5937-3.7197 3.6191-3.751.7559-.0117 1.4707.1963 2.0791.5938.1358.0889.2666.1865.3907.293Zm16.2402 16.7197c.9961.4414 2.1338.6582 3.417.6582 1.0185 0 1.9414-.1533 2.791-.4639.4736-.1728.9111-.3877 1.3154-.6455.3213-.2051.6211-.4375.9024-.6973.622-.5761 1.1386-1.2832 1.5215-2.1093.3828-.8272.623-1.7617.7187-2.8047H77.291c-.1318 1.1142-.5156 2.001-1.1387 2.6846-.623.6826-1.4853 1.0185-2.6005 1.0185-.8262 0-1.5108-.1562-2.085-.4678-.5762-.3125-1.0293-.7334-1.3916-1.2588-.3564-.5166-.6221-1.1035-.7783-1.7617-.1563-.6592-.2403-1.331-.2403-2.0254 0-.7197.0772-1.416.2403-2.0976.0879-.3672.2041-.7158.3506-1.042.122-.2715.2646-.5283.4277-.7676.3603-.5283.8291-.957 1.3916-1.2715.5752-.3213 1.2705-.4795 2.085-.4795.4443 0 .875.0713 1.2832.2159.4082.1425.7783.3466 1.1025.6103.3232.2647.584.5645.8027.9111.1241.1953.2256.4063.3008.6309.0537.1621.0938.332.1192.5078h3.5127c-.1084-.959-.3682-1.7988-.7911-2.54-.416-.7325-.9433-1.3575-1.581-1.8575-.6328-.496-1.3672-.875-2.1817-1.1386-.3798-.1231-.7695-.2178-1.1679-.2842-.4561-.0752-.9229-.1123-1.3965-.1123-1.2715 0-2.4102.2266-3.417.6709-1.0068.4424-1.8428 1.0566-2.54 1.8457-.6924.7812-1.2207 1.7012-1.5938 2.7685-.3691 1.0547-.5508 2.1934-.5508 3.4161 0 1.1992.1787 2.3134.5508 3.3564.3711 1.043.8984 1.9531 1.5938 2.7207.5234.5781 1.1308 1.0606 1.8281 1.4541.2275.1279.4648.2461.7119.3555Zm12.25-2.7686h-1.4033v6.8311h3.2851v-3.7627h10.8584v3.7627h3.2842v-6.8194h-1.7978V16.2832h-11.961v2.5645c0 .6669-.0088 1.3125-.0263 1.9326-.0137.5049-.0332.9922-.0577 1.4599-.0547 1.0547-.1562 2.0254-.3242 2.9121-.168.8877-.3945 1.7149-.6943 2.4698-.3008.7549-.6836 1.4511-1.1631 2.0976Zm10.6074-10.4638v10.4638h-6.6992c.3721-.6592.6719-1.3427.9111-2.0615.2393-.7197.419-1.4873.5508-2.3135.1318-.8271.2158-1.7138.2754-2.6728.0606-.9463.084-1.9893.084-3.1162v-.2998h4.8779Zm12.0229-2.9727h-5.1078v16.4932h3.3928V21.1973h.048l4.039 11.5791h2.792l4.051-11.6856h.048v11.6856h3.393V16.2832h-5.107l-3.655 11.3389h-.036l-3.858-11.3389Zm25.828 0H119.46v16.4941h7.791c1.545 0 2.744-.4199 3.607-1.2705.863-.8525 1.294-2.0136 1.294-3.4892 0-1.4746-.431-2.6367-1.294-3.4883-.863-.8506-2.074-1.2705-3.607-1.2705h-6.221V17.626h9.816v-1.3428Zm-1.259 14.2393c-.637.6084-1.545.9218-2.696.9218h-5.873v-6.8437h5.873c1.151 0 2.049.2988 2.696.9101.647.6123.971 1.4395.971 2.5059 0 1.0674-.327 1.8916-.971 2.5059Zm10.703-14.2393h-1.75l-6.627 16.4932h1.653l1.99-5.1309h7.504l2.013 5.1309h1.69l-6.473-16.4932Zm-.947 1.5693 3.188 8.4502h-6.496l3.308-8.4502Zm10.14-1.5693h-1.57v16.4932h1.57v-7.9952h9.804v7.9952h1.569V16.2832h-1.569v7.1553h-9.804v-7.1553Zm14.66 0h-1.582v16.4932h1.582v-5.6573l3.164-2.9365 6.855 8.5938h2.038l-7.719-9.6856 7.373-6.8076h-2.134l-9.577 8.8691v-8.8691Z"/>
</svg>