<svg xmlns="http://www.w3.org/2000/svg" viewBox="0 0 200 50">
	<path class="bg-logo" fill="#185491" d="M0 0h200v50H0V0Z"/>
	<g fill="#f2cd13">
		<path d="M78.5 28.3c.2-.2.3-.4.3-.7s-.1-.5-.3-.6-.5-.3-.9-.3h-1.9v1.8h2c.3 0 .6 0 .8-.3ZM77.7 30.2h-1.9v2.1H78c.3 0 .6 0 .8-.3.3-.2.4-.4.4-.8s-.1-.6-.4-.8c-.2-.2-.6-.3-1.1-.3Z"/>
		<path d="M81.7 9H68.6l1.2 1.9v1.8L67.5 9h-1.6l3.9 6.5v2.3L64.5 9h-1.8l7.2 11.8V24L60.8 9H54c-1 0-1.9.8-1.8 1.8v28.3c0 1 .8 1.8 1.8 1.8h28.3c1 0 1.8-.8 1.8-1.8V11.3c0-1.2-1-2.3-2.3-2.3ZM61.5 33.5c-.6.6-1.6.8-2.9.8s-2.2-.3-2.9-.8c-.7-.5-1.1-1.3-1.1-2.4h2.2c0 .4.1.8.4 1 .3.3.8.4 1.4.4s1 0 1.2-.2c.3-.1.4-.4.4-.7s-.1-.6-.4-.8c-.3-.2-.9-.4-1.9-.7-1.2-.3-2.1-.6-2.5-1-.4-.4-.6-1-.6-1.8s.3-1.6 1-2.1c.7-.4 1.6-.7 2.8-.7s1.9.3 2.5.7c.6.5.9 1.2 1 2H60c0-.3-.2-.6-.4-.7-.3-.2-.6-.3-1.1-.3s-.8 0-1 .2c-.3.1-.4.4-.4.6s.1.5.3.7c.2.2.7.3 1.5.5 1.4.3 2.4.6 2.8 1.1.5.4.7 1 .7 1.8s-.3 1.7-1 2.2Zm10.3.6h-2.2L66.1 28v6.1H64v-9.2h2.6l3.1 5.2v-5.2h2.1v9.2Zm8.9-.6c-.6.4-1.5.7-2.7.7h-4.4V25h4.6c1 0 1.7.2 2.2.6.4.4.7 1 .7 1.7s-.1.9-.4 1.2c-.3.3-.6.6-1.2.7.6.1 1.1.4 1.5.8.3.4.5.9.5 1.5s-.3 1.5-.8 1.9ZM145.7 10.7c.8 0 1.8-.3 1.8-1.2s0-.3-.3-.3-.4 0-.4.2c-.3.6-1.7.6-1.9 0 0-.2-.1-.2-.4-.2s-.3 0-.3.3c0 .9.9 1.2 1.7 1.2ZM90.3 18.2c1 .6 2.4.7 3.5.3.7-.3 1.4-1.1 1.6-1.9.2-.7.2-.7-.8-.7h-.9v.3c-.3.8-1.3 1.2-2.1.8-.3-.1-.6-.6-.7-1.1-.2-.8 0-2 .4-2.5.6-.8 2-.6 2.3.3v.2h1.9c0-.1-.2-1-.5-1.4-.3-.5-.6-.7-1.3-1-.4-.2-.6-.2-1.3-.2h-1.2c-1 .3-1.9 1.1-2.2 2-.2.4-.2.7-.3 1.4 0 .9 0 1.5.3 2.1.2.5.7 1.1 1.2 1.4ZM102.3 16.8h-3.7v-1.3h3.3V14h-3.3v-1.1h3.6v-1.6h-5.6v7.2h5.7v-1.7zM116.6 16.8H113v-1.3h3.2V14H113v-1.1h3.5v-1.6H111v7.2h5.6v-1.7zM126.9 15.5h2.2v3h2.1v-7.2h-2.1v2.5h-2.2v-2.5h-2v7.2h2v-3zM140.9 11.3H139v7.2h1.9v-7.2zM144.7 18.5l1-2.2 1.1-2.1V18.5l1 .1h1v-7.3h-2.2l-1 2.1-1.1 2.2V11.3h-2V18.6h1.1l1.1-.1zM119.9 16.1h1c1.3 0 1.7-.1 2.2-.7.5-.5.7-1 .7-1.7s-.4-1.7-1.2-2.1l-.5-.2h-4.2v7.3h2v-2.4Zm0-3.3h1.5c.7.2.7 1.4 0 1.6h-1.5v-1.8ZM136.7 18.5l.5-.3c.8-.4 1.2-1 1.2-2.1 0-1-.5-1.7-1.3-2.1-.3-.2-.6-.2-1.4-.2h-1v-2.5h-2v7.2h4Zm-2-3.2h.6c.3 0 .7 0 .8.1.3.1.4.3.4.7 0 .6-.3.8-1.3.8h-.5v-1.6ZM109 14.7l-.3-.2.3-.3c.4-.4.5-.9.4-1.4-.1-.8-.5-1.2-1.3-1.4-.4 0-.9-.1-2.5-.1h-2v7.2h2.1c2.4 0 2.8 0 3.4-.6.9-.8.9-2.5 0-3.2Zm-3.4-1.9h1.6c.3.1.3.2.3.6 0 .5-.2.6-1.1.6h-.8v-1.3Zm2.1 3.8c-.1.2-.6.3-1.4.3h-.7v-1.5h.9c.9 0 .9 0 1.1.2.2.2.3.7.1 1ZM146.8 20c-.2.5-1.6.5-1.9 0 0-.2-.1-.2-.4-.2s-.3 0-.3.2c0 .9.9 1.1 1.7 1.1.7 0 1.7-.2 1.7-1.1s0-.3-.3-.3-.3 0-.4.2ZM93 24h-2.1v-2.4H89v6.8h1.9v-2.8H93v2.8h2v-6.8h-2V24zM129.8 24h-2.2v-2.4h-1.9v6.8h1.9v-2.8h2.2v2.8h2v-6.8h-2V24zM139.3 25v3.4h1.9v-6.8h-1.9V25zM146.7 21.6l-1 2-1 2.1v-4.1h-1.9v6.9h1l1-.1 1-2 1-2.1.1 2.1v2l1 .1h.9v-6.9h-2.1zM107.9 21.9l-.4-.2h-4v6.8h1.9v-2.3h.9c1.2 0 1.6-.1 2.2-.6.4-.4.6-.9.6-1.6s-.4-1.6-1.2-2Zm-1.1 2.7h-1.4v-1.7h1.4c.7.2.7 1.3 0 1.5ZM114.1 28.5c1.7-.4 2.7-1.6 2.7-3.5s-1.4-3.6-3.5-3.6c-.3 0-.7 0-.9.1-.8.2-1.7.9-2 1.6-.6 1.1-.6 2.6 0 3.7.6 1.2 2.3 1.9 3.8 1.6Zm-1.8-5.1c.5-.4 1.1-.5 1.7-.2.9.5 1.1 2.5.3 3.4-.5.5-1.4.6-2 .1-.8-.6-.8-2.7 0-3.3ZM124.1 21.6h-5.3v.9c0 2-.2 3.3-.7 4-.2.3-.2.3-.5.3h-.3V30h1.8v-1.6h3.8V30h1.8v-3.2h-.8v-5.2Zm-1.9 3.4v1.8H120l.2-.4c.2-.5.4-1.3.5-2.4v-.9h1.6v1.8ZM100.3 21.8v-.2h-2L97 25c-.7 1.9-1.3 3.4-1.3 3.4h1.8l.2-.7.2-.7h2.2l.2.7.2.7h2s-.5-1.5-1.2-3.2c-.7-1.8-1.2-3.3-1.3-3.4Zm-1.1 4h-.6s.2-.5.3-1 .3-.9.3-.8c0 0 .2.5.3.9.2.5.3.9.3.9h-.7ZM137.5 24.2c-.3-.1-.6-.2-1.4-.2h-1v-2.4h-1.9v6.8h3.8l.5-.2c.8-.4 1.1-1 1.1-2 0-.9-.5-1.6-1.3-2Zm-1.8 2.7h-.5v-1.5h.5c.3 0 .7 0 .8.1.3.1.4.3.4.6 0 .6-.3.8-1.2.8ZM107 34.3h-2.1v-2.5H103v7h1.9v-2.9h2.1v2.9h2v-7h-2v2.5zM114.3 34.5l.8-.8c.4-.5 1-1.1 1.3-1.4l.5-.5h-2.4l-1 1.2-1 1.2v-2.4h-1.9v7.1h1.8v-2.2l.3-.3.3-.3.7 1.2c.4.7.8 1.3.9 1.5l.2.3h2.2s-.6-1-1.4-2.2l-1.4-2.1ZM99.8 32v-.2h-2l-1.3 3.5c-.7 1.9-1.3 3.5-1.3 3.5H97l.2-.7.2-.7h2.2l.2.7.2.7h2s-.5-1.5-1.2-3.3c-.7-1.8-1.2-3.4-1.3-3.5Zm-1 4.1h-.6s.2-.5.3-1c.2-.5.3-.9.3-.9s.2.5.3 1c.2.5.3.9.3 1s-.3 0-.7 0ZM93.7 34.5c-.3-.2-.5-.2-1.6-.2h-1.2v-1h3.3v-1.5H89v7h2.1c2.1 0 2.2 0 2.6-.3.5-.2.8-.5 1-1 .2-.5.2-1.7 0-2.1-.2-.4-.6-.8-1.1-1Zm-.7 2.4c-.1.3-.5.4-1.4.4h-.7v-1.5h.9c.6 0 .9.1 1.1.2.2.2.3.6.2.9Z"/>
	</g>
</svg>