<svg xmlns="http://www.w3.org/2000/svg" viewBox="0 0 200 50">
	<path class="bg-logo" fill="#083C9C" d="M0 0h200v50H0z"/>
	<path fill="#fff" d="M79.7193 21.1934c-.0781-.938.0782-2.5794.1564-3.4393-.3127.0782-.5472.0782-.8598.0782-.7035 0-1.0162-.0782-1.4852-.1563-.5471-.0782-1.2506-.1563-2.3449-.1563-4.3773 0-7.113 3.1266-7.113 6.8785 0 4.299 3.5174 6.9567 7.3475 6.9567 3.5174 0 4.299-1.407 4.768-2.5795.1564-.3126.1564-.3126.2345-.5471h-.6253c-.7035 1.4069-2.2668 2.4231-4.2991 2.4231-2.8921 0-5.706-2.4231-5.706-6.1751 0-3.9864 2.6576-6.175 5.0025-6.175.6254 0 4.2991-.3908 4.3773 2.9703l.5471-.0782Zm3.9083 8.2855c.0782-.8598.0782-1.2506.0782-2.1886v-1.876c-.0782-1.8759.3126-2.2668 1.1724-2.2668h.3909v-.469h-.938c-.3127 0-.469.0782-.7817.0782h-.7816c-.3127 0-.469-.0782-.7817-.0782h-.938v.469h.3909c1.0943 0 1.0943.7035 1.0943 3.8301 0 .5472 0 3.1266-.1563 4.1428l.5471.0781c2.6576-3.0484 3.9083-4.4554 5.4716-6.7222l.2345.0782c-.1564 1.0943-.1564 1.876-.1564 3.1266 0 1.7978.0782 2.9703-1.4851 2.8921v.469c.8598 0 1.1725-.0782 1.5633-.0782h1.0943c.469 0 .7816.0782 1.5633.0782v-.469c-1.7196.1563-1.4851-.8598-1.4851-2.8921v-2.3449c0-.938 0-1.7197.0781-2.6577l-.5471-.1563c-3.1266 4.6117-2.345 2.814-5.4716 7.113.0782 0-.1563-.1563-.1563-.1563Zm9.6925-3.9083c.0781-.5471.0781-.7816.1563-1.5633.3126-4.6899 1.4851-5.3152 2.3449-5.3152.469 0 .7817.1564 1.3288.3127.469.0782.8599.1563 1.2507.1563 1.0943 0 1.8762-1.0161 2.4232-1.8759h-.469c-.4691.8598-.7817.7816-1.3289.7816-.469 0-.8598-.1563-1.3288-.3127-.3127-.0781-.7035-.1563-1.0161-.1563-1.9542 0-4.2991 2.2668-4.2991 7.4257 0 5.237 2.3449 6.0969 3.8301 6.0969 1.9541 0 4.4558-1.876 4.4558-4.7681 0-2.1105-1.3292-3.7519-3.5179-3.7519-1.8759 0-3.2047 1.4851-3.7519 2.9702.0782.0782-.0781 0-.0781 0Zm.4689.938c0-1.4069.938-2.9702 2.7358-2.9702 1.2507 0 2.8921 1.1724 2.8921 3.6737 0 2.6576-1.5633 3.3611-2.5794 3.3611-1.7197 0-3.0485-2.0323-3.0485-4.0646Zm15.711 2.345c-.547.5471-1.407 1.3288-2.736 1.3288-2.11 0-3.595-1.7196-3.595-4.2991 0-2.2668 1.485-2.8921 2.345-2.8921 1.25 0 1.719 1.0943 1.876 1.7196.469-.469.938-.7816 1.407-1.0943-.626-1.0943-1.642-1.1725-2.189-1.1725-2.97 0-4.768 2.2668-4.768 4.5336 0 1.876 1.407 4.1428 4.065 4.1428.859 0 1.328-.3909 1.954-.7817.703-.469 1.25-.7035 1.563-.8598l.078-.6253c.078 0 0 0 0 0Zm.469-2.1105c-.078 2.2668 1.485 4.4554 4.377 4.4554 2.736 0 4.612-2.1886 4.612-4.6899 0-2.0323-1.563-4.1427-4.377-4.1427-2.736.0781-4.534 2.1104-4.612 4.3772Zm1.485-.469c0-2.2668 1.485-3.2829 2.658-3.2829 1.876 0 3.283 1.9541 3.283 4.5336 0 1.7196-1.094 3.0484-2.658 3.0484-1.954 0-3.283-2.0323-3.283-4.2991Zm11.334 2.345v-3.2048c0-.8598-.078-2.2668.782-2.2668h.547v-.469c-.86 0-1.016.0782-1.641.0782h-.704c-.469-.0782-.86-.0782-1.72-.0782v.3909h.313c.938 0 1.173.5471 1.173 2.2668 0 .4689 0 1.2506-.079 2.1886.313 2.7357-.781 2.9702-1.485 2.8921v.469c1.016 0 1.016-.0782 1.876-.0782.313-.0782.704-.0782 1.016 0 .86.0782 1.251.0782 2.111.0782 1.094 0 2.97-.0782 4.299-.1564l.078.1564c-.86.3908-1.563.9379-2.267 2.1104-.39.7035-.703 1.5633-1.563 1.5633-.234 0-.86.0782-1.172-.5471l-.86.5471c.469.2345.938.3908 1.407.3908 2.188 0 3.517-2.1886 3.908-2.9702.469-.8598.703-1.3288 1.563-1.3288v-.5472c-2.11.6253-1.876-.7816-1.876-3.5174v-1.1725c-.078-1.7196.157-2.3449 1.095-2.3449h.39v-.469c-.938 0-1.25.0781-1.719.0781h-.704c-.625-.0781-.703-.0781-1.641-.0781v.469h.469c.782 0 .86 1.2506.86 2.2668v1.3288c0 1.2506 0 1.9541-.078 3.5955-.782.0782-1.329.0782-2.111.0782-.86 0-1.407-.0782-2.11-.1563l-.157-1.5633Zm9.224-3.0485c.078-.5471.078-.7816.156-1.5633.313-4.6899 1.485-5.3152 2.345-5.3152.469 0 .782.1564 1.329.3127.469.0782.86.1563 1.25.1563 1.095 0 1.876-1.0161 2.424-1.8759h-.469c-.391.8598-.782.7816-1.329.7816-.469 0-.86-.1563-1.329-.3127-.313-.0781-.704-.1563-1.016-.1563-1.954 0-4.299 2.2668-4.299 7.4257 0 5.237 2.345 6.0969 3.83 6.0969 1.954 0 4.455-1.876 4.455-4.7681 0-2.1105-1.329-3.7519-3.517-3.7519-1.876 0-3.205 1.4851-3.752 2.9702h-.078Zm.469.938c0-1.4069.938-2.9702 2.736-2.9702 1.25 0 2.892 1.1724 2.892 3.6737 0 2.6576-1.564 3.3611-2.502 3.3611-1.797 0-3.126-2.0323-3.126-4.0646Zm16.336 2.7358c-1.016 1.0943-1.329 1.0943-1.485 1.0943-.469 0-.469-.7035-.469-1.0943.156-4.5336.235-4.4554.235-4.9244 0-1.4851-1.329-1.876-2.267-1.876-1.329 0-4.768 1.0944-3.752 3.1266l1.563-.9379c-.469-.7817.157-1.5633 1.094-1.5633 1.173 0 1.876.3126 1.876 3.1266v.5471c-3.595.3127-5.158 1.4852-5.158 2.9703 0 .3908.312 1.4851 2.11 1.4851 1.094 0 2.189-.6253 2.892-1.3288.156.7817.469 1.3288 1.094 1.3288.469 0 .938-.3126 2.111-1.3288l.156-.6253Zm-3.126-1.9541c.078 2.8139-1.564 3.2829-2.345 3.2829-.938 0-1.251-.8598-1.251-1.4851 0-1.407 1.798-1.6415 3.596-1.7978Zm6.331-1.876c0-1.8759.156-2.2668 1.094-2.2668h.313v-.469c-.86 0-1.094.0782-1.563.0782h-.86c-.235 0-.547-.0782-.782-.0782h-.938v.469h.391c1.016 0 1.173.469 1.173 3.3611 0 2.5013.234 4.1428-1.486 3.9864v.469c.86 0 1.017-.0781 1.564-.0781h1.094c.547.0781.547.0781 1.485.0781v-.5471c-1.72.0781-1.329-1.7197-1.407-3.6738.235 0 1.876.0782 2.267.0782.313 0 1.876-.0782 2.267-.0782v.7817c0 1.4851.156 3.0484-1.407 2.8921v.469c.86 0 1.094-.0782 1.563-.0782.391-.0782.782-.0782 1.173 0 .469.0782.703.0782 1.485.0782v-.469c-1.798.1563-1.485-1.4852-1.485-3.6738v-.7816c0-2.5013.078-2.8921 1.094-2.8921h.469v-.469c-.938 0-1.329.0781-1.798.0781h-.86c-.547-.0781-.703-.0781-1.563-.0781v.469h.313c1.25 0 1.094.7035 1.172 3.0484-.625.0782-1.407.1563-2.267.1563-.938 0-1.641-.0781-2.267-.1563v-.7816l-.234.0781Zm8.207-2.2668c1.485-.3126 1.485.7035 1.485 2.2668v2.1886c0 1.7197-.078 3.283-1.485 2.8921v.469c1.485-.0781 1.72-.0781 2.658-.0781.156 0 .469.0781.625.0781.313.0782.469.0782.782.0782v-.469c-1.016.1563-1.173-.8598-1.173-1.2506-.078-1.3288-.156-2.1105-.156-3.9083 0-1.5633 0-2.3449 1.329-2.2668v-.469c-.782 0-.938.0782-1.407.0782h-.938c-.469 0-.782-.0782-1.72-.0782v.469c.078 0 0 0 0 0Zm9.693 7.113c-.235.3127-.626.3127-.86.3127-.469 0-.86-.469-1.563-1.5633-1.173-1.7196-1.798-2.2668-2.736-2.5013.703-.5471 1.094-.938 1.798-1.6414 1.094-1.0943 1.876-1.7197 2.892-1.5633v-.469h-.469c-.469 0-.86.0781-1.251.0781-.156.0782-.313.0782-.547 0-.235 0-.469-.0781-1.016-.0781v.469c.313-.0782.625.1563.625.3126 0 .469-1.329 1.6415-2.97 3.2048 1.016.8598 1.563 1.5633 2.189 2.3449.547.7817 1.406 2.1105 2.423 2.1105.469 0 1.094-.1563 1.563-.469l-.078-.5472ZM49.704 17.8326c.5472-2.0322 1.1725-4.6117 1.7197-6.644 4.768 1.1725 9.0671 1.9541 12.5064-.2345-.7817-.6253-1.4852-1.32878-2.2668-1.9541-2.7358 2.7358-8.3637 1.7196-15.7112.2345-7.0348-1.09431-14.6168 4.2991-15.3203 11.5684-.2345 2.345.469 4.2209 1.8759 5.6279-9.3798 15.0077 9.8488 23.4495 19.9321 12.1156-.2345-.469-.5471-.938-.7816-1.4852-6.8004 11.9593-23.6059 4.7681-17.1182-9.1453 2.9703 1.6415 6.4095 2.1887 10.3178 1.0943l-.6253 2.1887c-.469.7034-1.0943 1.0943-1.7978 1.6414 1.1725 0 2.3449-.1563 3.4392 0 17.7435 2.8921 21.1828-15.2421 3.8301-15.0077ZM33.7584 24.633c-2.6576-6.7222 4.3772-15.16401 12.1937-14.77318 2.5013.39078 3.1266 1.01618 3.1266 2.50128-.469 1.7196-.938 3.7519-1.407 5.4715-4.8462 0-10.3177 1.7197-13.9133 6.8004Zm11.1776 3.7519c-4.0646 1.1725-6.9567.6253-9.6925-1.7978 3.0484-5.3934 6.5659-8.051 12.2719-8.2073-.7816 3.2048-1.7196 6.8004-2.5794 10.0051Zm5.0807 4.2991c-2.6576-.1563-3.5956-.7035-3.8301-1.6415.2345-.8598.469-1.7978.7035-2.5794 2.2668-.7035 3.6737-2.1105 4.9244-5.0026-.3127-.2345-.7035-.3908-1.0162-.6253-.7816 2.8921-1.6414 4.4554-3.7519 5.0807.7817-3.0484 1.6415-6.3313 2.4231-9.4579 11.0995-.0782 12.1938 12.9754.5472 14.226Z"/>
</svg>