<svg xmlns="http://www.w3.org/2000/svg" viewBox="0 0 200 50">
	<path class="bg-logo" fill="#E40134" d="M0 0h200v50H0z"/>
	<g fill="#fff">
		<path d="M136.121 29.7015c2.589 0 4.638-2.0029 4.638-4.6505 0-2.6347-2.049-4.6603-4.638-4.6603-2.6 0-4.661 2.0256-4.661 4.6603 0 2.6476 2.061 4.6505 4.661 4.6505Zm-.961-15.5888c2.39-.2924 3.303-.5036 4.509-1.1127l.492 1.4652c-1.429.7374-2.74.9599-4.72 1.2166-2.248.2924-4.039 1.7689-4.039 5.5292v.1982c.971-1.7445 2.739-2.7159 4.741-2.7159 3.632 0 6.431 2.8215 6.431 6.3707 0 3.5378-2.799 6.3349-6.476 6.3349-3.655 0-6.443-2.8101-6.443-6.3349v-3.8773c0-4.5904 2.426-6.6988 5.505-7.074Zm-81.6707 4.6017c-3.592 0-6.2981 2.8426-6.2981 6.3431 0 3.4663 2.673 6.3219 6.3097 6.3219 1.774 0 3.3051-.6676 4.388-1.6698l-1.4638-2.0954c-.7701.6448-1.6343 1.0704-2.7861 1.0704-1.9111 0-3.5338-1.5528-3.5338-3.6271 0-2.1052 1.611-3.6613 3.5338-3.6613 1.1287 0 1.9918.4158 2.7754 1.0932l1.4745-2.1068c-1.0944-1.0006-2.5923-1.6682-4.3996-1.6682Zm13.8299 4.6278v7.7042h2.9248V18.9678h-2.9248l-5.5955 7.2771v-7.2771h-2.925v12.0786h2.7287l5.7918-7.7042Zm4.4519-4.3744h2.9242v4.5352h5.5962v-4.5352h2.9348v12.077h-2.9348v-4.8925h-5.5962v4.8925h-2.9242v-12.077Zm22.3525 6.0669c0 2.0499-1.5419 3.5135-3.4655 3.5135-1.9228 0-3.4083-1.4636-3.4083-3.5135 0-2.0369 1.4962-3.5459 3.4083-3.5459 1.9335 0 3.4655 1.509 3.4655 3.5459Zm-3.7193-6.3203c-3.3157 0-6.0677 2.7971-6.0677 6.3106 0 3.5102 2.7402 6.3089 6.0677 6.3089 1.601 0 2.8336-.692 3.7083-1.7039l.2071 1.4164h2.5683V18.9792h-2.5581l-.184 1.4635c-.8741-1.0266-2.1065-1.7283-3.7416-1.7283Zm14.2287 9.8338c1.924 0 3.409-1.4636 3.409-3.5135 0-2.0369-1.497-3.5459-3.409-3.5459-1.933 0-3.465 1.509-3.465 3.5459 0 2.0499 1.542 3.5135 3.465 3.5135Zm-3.281 1.2767v5.3083h-2.9371v-4.0868l-.0116-7.0236.0116-.0114v-5.0322h2.5211l.208 1.4635c.864-1.0266 2.108-1.7283 3.743-1.7283 3.317 0 6.068 2.7971 6.068 6.3106 0 3.5118-2.74 6.3089-6.068 6.3089-1.497 0-2.672-.5994-3.535-1.509Zm20.281-4.7902c0 2.0499-1.542 3.5135-3.465 3.5135-1.925 0-3.409-1.4636-3.409-3.5135 0-2.0369 1.497-3.5459 3.409-3.5459 1.933 0 3.465 1.509 3.465 3.5459Zm-3.719-6.3203c-3.316 0-6.068 2.7971-6.068 6.3106 0 3.5102 2.74 6.3089 6.068 6.3089 1.599 0 2.833-.692 3.708-1.7039l.208 1.4164h2.566V18.9792h-2.555l-.185 1.4635c-.874-1.0266-2.107-1.7283-3.742-1.7283Zm35.495 6.3252c0 2.6233-1.662 4.5676-4.11 4.5676-2.424 0-4.005-1.9443-4.005-4.5676 0-2.6119 1.592-4.592 4.017-4.592 2.436 0 4.098 1.9801 4.098 4.592Zm-4.228-6.3479c-3.301 0-5.702 2.8003-5.702 6.3365 0 3.5492 2.389 6.335 5.702 6.335 1.851 0 3.245-.9016 4.146-2.2351v1.954h1.781l.011-5.7258V18.95h-1.826v1.9199c-.892-1.2994-2.273-2.1782-4.112-2.1782Zm7.728.2583h1.816v5.1182h7.237V18.95h1.826v12.1338h-1.826v-5.3636h-7.237v5.3636h-1.816V18.95Zm14.378 0h-1.816v12.1338h1.816v-5.3181h2.554l4.039 5.3181H180l-4.754-6.2765 4.145-5.8573h-2.143l-3.444 5.0825h-2.517V18.95Z"/>
		<path d="M39.5981 14.2524c-7.2928 1.549-12.7327 5.4403-12.1506 8.6902.1822 1.0145.9307 1.8462 2.0933 2.4638l-.0041.0178-.0183-.0195-.0042.0195c-3.1304-.5286-5.4607-1.9803-6.1759-4.2015-.7809-2.4288-.1447-5.1252 1.9544-7.4336H20v22.4842c.9439-.1038 1.9078-.2426 2.8992-.4538 7.292-1.5497 12.7327-5.4403 12.1497-8.6902-.1821-1.0139-.9298-1.8462-2.0949-2.4645l.0058-.0178.0183.0208.0041-.0201c3.1304.5292 5.4607 1.9808 6.176 4.2015.7826 2.43.1438 5.1264-1.9569 7.4366h5.296V13.798c-.944.1044-1.9079.2438-2.8992.4544Z"/>
	</g>
</svg>