<svg xmlns="http://www.w3.org/2000/svg" viewBox="0 0 200 50">
	<path class="bg-logo" fill="#0A90E8" d="M0 0h200v50H0z"/>
	<path fill="#fff" d="m59.4335 21.8404 1.1836-1.4866c-.7952-.3068-1.6657-.3601-2.4923-.1527l1.3087 1.6393Zm-4.7887 5.9187 2.1992-2.7094-2.0465-2.5704c-.9046.8349-1.7817 1.7086-2.6451 2.598l2.4924 2.6818Zm4.7333.5005-1.49 1.82c.9167.2104 1.8775.1076 2.729-.2922l-1.239-1.5278Zm-4.1347-9.6566c-1.7708 1.3755-3.4324 2.886-4.97 4.5182l1.0314 1.0839c1.5193-1.593 3.1472-3.0785 4.8723-4.446.8451-.5932 1.8493-.9184 2.8817-.9331.8172-.0061 1.6256.1695 2.3666.5142l.9743-1.2086c-1.0499-.5275-2.2081-.8034-3.3831-.806-1.3613.0133-2.6828.4606-3.7722 1.2769l-.001.0005Zm6.5568 10.6427c.3945-.317.7538-.6756 1.0716-1.0696l-5.9301-7.4476-1.1694.9611 6.0279 7.5561Zm-4.7637 1.9035-1.0162 1.1787c.9778.4577 2.0547.663 3.1323.5972 1.8025-.133 3.5039-.884 4.8168-2.126.915-.8252 1.6327-1.8455 2.1003-2.9853.4675-1.14.6728-2.3704.6008-3.6004-.1406-1.2689-.5891-2.4843-1.3065-3.5404l-.9605 1.2362c.7074 1.1806.9552 2.5804.6959 3.9322-.2245 1.2464-.7874 2.4071-1.6271 3.3552-.8397.9481-1.924 1.647-3.1341 2.0204-1.0777.3389-2.2368.3146-3.2993-.0692l-.0024.0014Zm-11.6392-7.3356c-.167.8908-.167 1.8049 0 2.6957.418-.4587.8349-.9169 1.2671-1.3613l-1.2671-1.3344Zm1.2116-2.7369c-.3375.4098-.6098.8691-.8074 1.3619l7.0994 7.4888 1.0023-1.2092-7.2943-7.6415Zm3.9254-3.9455c-1.0906.9348-2.126 1.932-3.1009 2.9869l2.0047 2.0979c.933-.9723 1.8932-1.9314 2.8975-2.8341l-1.8013-2.2507Zm26.2278 11.0871-1.1973 1.4866c.7949.3068 1.6653.3603 2.4918.1532l-1.2945-1.6398Zm4.7745-5.9188-2.1991 2.7094 2.0459 2.5705c.9193-.8349 1.7822-1.709 2.6456-2.5984l-2.4924-2.6815Zm-4.7298-.5008 1.5032-1.8201c-.9205-.2183-1.8881-.1153-2.7422.2918l1.239 1.5283Zm-27.9673-6.8082c-1.7543 1.4542-3.3459 3.094-4.7471 4.8909-1.7959 2.6121-1.9772 6.1132-.9046 8.9872l1.1689-1.2509c-.0926-.3337-.1669-.6722-.2225-1.0141-.3452-2.0317.0712-4.1194 1.1693-5.8633 1.3184-1.6861 2.8116-3.2278 4.4548-4.5992l-.9188-1.1506Zm-4.1346 2.2369c1.0236-1.105 2.1113-2.1489 3.2575-3.1263-.6822-.556-1.5033-.9862-2.3387-.778-.3391.0992-.6469.2843-.8933.5376-.2464.2533-.4231.5661-.5127.9078-.1179.4193-.1353.8605-.0507 1.2878.0846.4273.2689.8285.5379 1.1711Zm-1.796 2.1815c.2947-.4169.6267-.8196.9469-1.2224-.4433-.5075-.7522-1.1181-.898-1.776-.1459-.6579-.1242-1.3419.0631-1.9892.1549-.5529.4506-1.0561.858-1.4606.4075-.4046.9129-.6966 1.4669-.8476 1.239-.3197 2.84.1808 4.413 2.0135l3.5635 4.474 1.1697-.9449-3.5638-4.4739c-1.4199-1.6953-3.5777-3.1122-5.9307-2.5287-.8051.2243-1.5403.6491-2.1367 1.2347-.5965.5855-1.0348 1.3127-1.274 2.1136-.277.9373-.3006 1.9314-.0683 2.8808.2323.9494.7123 1.8203 1.3909 2.5237l-.0005.003Zm10.789 15.8529c.5722.2539 1.1578.4766 1.7543.6668 1.5339.4727 3.1478.629 4.7438.4593 1.5961-.1695 3.1411-.6615 4.5414-1.4459-.5706-.6384-1.1001-1.3196-1.6289-1.9865-1.1154.6537-2.36 1.056-3.647 1.1786-1.451.1373-2.9116-.1323-4.2181-.7783l-1.5455 1.906Zm-2.4221-1.3339c.4312.278.8629.5402 1.2808.7641l6.0135-7.4471-.933-1.1953-6.3613 7.8783Zm-4.0929-3.5851c.8959 1.0796 1.9249 2.0411 3.0626 2.8617l1.8795-2.3082-2.7286-2.8714-2.2135 2.3179Zm-1.9211 2.0135c.9505 1.1059 2.0248 2.0988 3.202 2.9595 4.413 3.3203 8.6728 4.3069 12.5147 3.751 2.077-.3305 4.0659-1.0772 5.8471-2.1953-.4037-.3334-.8074-.6669-1.1831-1.0279-1.4927.8863-3.1426 1.4759-4.8589 1.7367-3.4662.5141-7.3499-.4028-11.4153-3.4594-.682-.528-1.4059-1.1114-2.1298-1.7926-.3342-.3348-.6503-.6872-.9469-1.0558l-1.0298 1.0838Zm2.4363 3.9598c-1.2034-.8966-2.3094-1.9172-3.2997-3.0448-.2329.2722-.3732.6114-.4007.9686-.0274.3572.0594.7138.2479 1.0184.1729.3401.4123.642.704.8878.2917.2459.6298.4306.9943.5433.2996.0968.6195.1131.9274.0472.3078-.0659.593-.2115.8268-.4224v.0019Zm2.3107 1.5426c-.4317-.25-.8634-.5142-1.2809-.8059-.397.4236-.9053.7266-1.4668.8742-.5614.1477-1.1531.1341-1.7071-.0393-1.0423-.332-1.9122-1.0605-2.4221-2.0283-.2822-.5006-.415-1.0714-.383-1.6451.032-.5737.2277-1.1262.5637-1.5922 1.796-1.7788 3.5085-3.6539 5.2347-5.5161l-1.0314-1.0696c-1.7399 1.8759-3.4662 3.779-5.2896 5.5715-1.2671 1.2504-1.1556 3.5291-.418 4.9459.3376.6568.8017 1.2404 1.3655 1.7174.5638.4769 1.2163.8377 1.92 1.0618.8735.2606 1.8042.26 2.6774-.0018.8731-.2617 1.6506-.7733 2.2366-1.4715l.001-.001Zm30.933-6.4035c1.7704-1.3758 3.4319-2.8864 4.9695-4.5181L84.88 25.8394c-1.5142 1.5974-3.1376 3.0876-4.8584 4.4598-.8471.5895-1.8501.9142-2.8818.933-.8219.0077-1.635-.168-2.3804-.5142l-.9606 1.1953c1.0482.5333 2.2067.814 3.3827.8197 1.356-.0199 2.6713-.4667 3.7589-1.2768l.0014-.001ZM64.9741 15.1157c-1.4768-.8248-3.1062-1.34-4.7887-1.5145-2.1919-.231-4.4035.1843-6.3622 1.1948l1.7262 2.1535c1.2544-.6701 2.6755-.9644 4.0928-.8477 1.2372.0944 2.4412.4445 3.536 1.0284.5711-.7087 1.1693-1.375 1.7959-2.0135v-.001Zm2.325 1.598c-.395-.338-.8087-.6534-1.2391-.9449-.796.7854-1.5356 1.6258-2.2134 2.515l-3.6754 4.6125.9748 1.1673c2.0184-2.4869 3.9396-5.0436 6.1531-7.3499Zm.7096 15.8136c.7055-.6787 1.366-1.4026 1.9772-2.1672-1.1115-1.4456-1.7093-3.2204-1.6988-5.0437.0225-1.9716.6494-3.8889 1.796-5.493-.5934-.7983-1.2301-1.5636-1.9069-2.2925-.7058.6744-1.3663 1.3946-1.9772 2.156 1.11 1.4518 1.7075 3.2307 1.6986 5.0583-.026 1.9693-.6529 3.8835-1.7968 5.4866.5969.7958 1.2333 1.5611 1.9069 2.293l.001.0025Zm2.1162 1.7503c.7957-.7806 1.5353-1.6164 2.2134-2.5012l3.6754-4.6129-.9749-1.1694c-2.0189 2.4732-3.9401 5.0436-6.1388 7.3499.3876.3386.7978.6503 1.2278.933l-.0029.0006Zm12.2368.9866-1.7125-2.1673c-1.2562.6796-2.6832.9788-4.1066.861-1.2356-.1027-2.4381-.4524-3.5359-1.0284-.5707.7091-1.1694 1.3751-1.7961 2.0135 1.2462.697 2.6021 1.1764 4.0094 1.4173 1.7005.3139 3.4511.2187 5.1075-.2775.7015-.2095 1.3821-.4841 2.0327-.8201l.0015.0015Zm1.7262 2.1672-.9331-1.1787c-2.4912 1.3661-5.374 1.8417-8.172 1.3481-3.2096-.5965-6.1317-2.2381-8.3109-4.6688-.5009-.5698-.9743-1.1669-1.4477-1.7783-.3541.3566-.7258.695-1.1139 1.0141.4597.6114.9331 1.2085 1.4341 1.7783 2.4094 2.6653 5.628 4.465 9.1605 5.1221 3.2231.5701 6.5441-.0101 9.383-1.6392v.0024Zm8.2412-5.5578c.4461.5059.7567 1.1168.9027 1.7753.146.6586.1227 1.3434-.0679 1.9905-.1573.5516-.4537 1.0537-.8608 1.4579-.4071.4041-.9112.697-1.4641.8503-1.239.3059-2.8258-.1802-4.4129-2.0136l-3.564-4.4734-1.1693.9449 3.5639 4.4734c1.4203 1.6953 3.5777 3.1122 5.9305 2.5287.8051-.2243 1.5402-.649 2.1365-1.2345.5964-.5854 1.0346-1.3125 1.2738-2.1133.2773-.9364.3024-1.9294.0726-2.8785-.2297-.9492-.7061-1.8207-1.381-2.5266-.0697.0982-.1389.1802-.1963.2642-.2505.3193-.501.6384-.7657.9582l.002-.0035Zm-4.1066 4.085c.6679.5559 1.5032.9866 2.3386.7784.3397-.1009.6483-.2864.8966-.5392.2484-.2528.4285-.5647.5232-.9061.1122-.4208.1254-.8619.0384-1.2886-.0869-.4268-.2714-.8275-.5393-1.1709-1.0238 1.1048-2.1115 2.1485-3.2575 3.1259v.0005Zm.5426-6.0185-2.0046-2.0979c-.9464.9723-1.907 1.9309-2.9093 2.8341l1.796 2.2507c1.093-.938 2.1339-1.9351 3.1179-2.9869Zm1.6153-2.3346-7.0999-7.4874-1.0023 1.2228 7.3085 7.6416c.3281-.4187.5953-.8816.7937-1.3751v-.0019Zm.4174-4.0566c-.4316.4421-.8491.9027-1.267 1.3614l1.2533 1.3201c.1646-.8859.1692-1.794.0137-2.6815Zm2.1996-2.3621c-.3899.4167-.7796.8337-1.1692 1.2508.2829 1.0015.3866 2.045.3059 3.0826-.0931 1.3457-.524 2.6463-1.2528 3.7815-1.318 1.6905-2.8112 3.2365-4.4548 4.6124l.9189 1.1537c1.7509-1.4578 3.3421-3.0973 4.7469-4.891.9919-1.4772 1.5374-3.2087 1.5716-4.9876.0334-1.3642-.1932-2.7221-.6679-4.0015l.0014-.0009Zm-5.5406-8.1828c.397-.4236.9054-.7266 1.4669-.8743.5614-.1477 1.1531-.134 1.7071.0394.5172.1624.9974.4252 1.413.7733.4156.3481.7586.7747 1.0092 1.2554.2823.5005.4152 1.0714.3832 1.6452-.032.5737-.2277 1.1263-.564 1.5922-1.7959 1.7782-3.5084 3.6538-5.2346 5.5003l1.0313 1.0839c1.74-1.8755 3.4662-3.7791 5.2901-5.5711 1.2666-1.2508 1.1693-3.5291.4175-4.9463-.3378-.6567-.8018-1.2403-1.3656-1.717-.5638-.4769-1.2163-.8377-1.9199-1.0617-.8708-.2612-1.7984-.2665-2.672-.0152-.8737.2513-1.6568.7486-2.2557 1.4325.4449.278.8766.5697 1.2945.8614l-.001.002Zm4.3291 3.7814c.2334-.2747.3738-.6161.4013-.9754.0275-.3594-.0593-.7183-.2481-1.0253-.3551-.677-.9589-1.19-1.6844-1.4311-.3035-.0912-.6252-.1034-.9346-.0352-.3094.068-.5963.214-.8334.4242 1.2062.893 2.3122 1.9139 3.2987 3.0448l.0005-.002Zm-5.8441.0555-1.8794 2.32 2.7423 2.8621 2.1996-2.3082c-.8954-1.084-1.9244-2.0502-3.0625-2.8758v.0019Zm-2.3111-1.4733-6.0161 7.4452.9332 1.1953 6.3622-7.8783c-.4317-.2779-.8491-.5402-1.2808-.7641l.0015.0019Zm-12.1794-.2504c.5706.6384 1.0996 1.32 1.6285 1.987 1.1155-.6538 2.3603-1.056 3.6475-1.1787 1.4555-.1375 2.9207.1319 4.2323.7779l1.5312-1.9035c-1.6255-.7471-3.3898-1.1446-5.1787-1.1669-2.0481-.0108-4.0653.5006-5.8608 1.4862v-.002Zm-2.0882-1.931c.4037.3196.8074.6669 1.1836 1.0283 1.4925-.8861 3.142-1.4758 4.858-1.737 3.4666-.5137 7.3508.4032 11.4157 3.4598.7446.5548 1.4559 1.1532 2.1299 1.7921.3482.3472.6542.6944.9464 1.042l1.0312-1.0696c-.942-1.1088-2.012-2.1022-3.1877-2.9593-4.4268-3.3346-8.6871-4.307-12.5152-3.7516-2.0835.3221-4.0785 1.0693-5.8608 2.1953h-.0011ZM51.266 11.6853c3.1503-1.85978 6.8572-2.54438 10.4639-1.93244 2.339.42874 4.5656 1.33124 6.543 2.65194 2.7923-1.8545 6.0875-2.80516 9.4385-2.72315 2.5715.07022 5.0938.72095 7.3783 1.90355.7394-.94 1.7424-1.63785 2.8808-2.00418 1.1384-.36634 2.3602-.38448 3.509-.0521 1.7327.55358 3.1748 1.77238 4.0093 3.38858 1.0161 1.9453 1.0161 4.7519-.6546 6.405-.306.2917-.5844.5834-.8767.8751.6623 1.5636.9893 3.2486.9602 4.9464-.0115 1.5068-.3438 2.9939-.9744 4.3625.8489.8429 1.4839 1.8766 1.852 3.0149.3855 1.264.3806 2.615-.0142 3.8763-.2998 1.0119-.8538 1.9302-1.6094 2.6672-.7555.7369-1.6873 1.268-2.7065 1.5425-2.4776.6119-4.8305-.5402-6.5425-2.237-3.1472 1.8592-6.8513 2.5436-10.4551 1.9315-2.342-.4325-4.5724-1.3346-6.5566-2.6519-.3758.2362-.7515.4724-1.1414.6944-1.8728 1.0668-3.9422 1.7436-6.0835 1.9895-2.1414.246-4.3103.056-6.3763-.5584-1.1051-.3359-2.1768-.7732-3.2015-1.3064-.7401.9392-1.7432 1.6364-2.8815 2.0027-1.1382.3662-2.3598.3849-3.5087.0536-.8608-.2718-1.6594-.7111-2.3498-1.2927-.6905-.5815-1.2592-1.2938-1.6733-2.096-1.0156-1.9442-1.0156-4.7513.6541-6.4045.3066-.2917.5992-.5833.8915-.875-.6333-1.4707-.9646-3.0536-.9744-4.6547-.0283-1.605.3047-3.1958.9744-4.6547-.8504-.8446-1.4814-1.8843-1.8378-3.0286-.3973-1.2569-.3973-2.6057 0-3.8626.2996-1.012.8537-1.9303 1.6091-2.6674.7554-.737 1.6871-1.26817 2.7062-1.54279 1.275-.30898 2.6164-.18671 3.8144.3477 1.0229.44799 1.9497 1.08949 2.7291 1.88929l.0044.0019Zm19.6966 7.2232c.3562-.3601.7333-.6988 1.1296-1.0141-.4734-.6115-.9469-1.2092-1.4477-1.7784-2.4019-2.6684-5.6167-4.4703-9.1464-5.1265-3.2276-.578-6.5555.0026-9.3967 1.6392l.9468 1.1787c2.4862-1.3659 5.3644-1.8413 8.1577-1.3476 3.206.5973 6.1264 2.2328 8.311 4.6542.5008.5697.9743 1.1811 1.4477 1.7926l-.002.0019Zm3.4378 1.9035c-.4022.3135-.7667.6725-1.0863 1.0696l5.9305 7.4476 1.1694-.9586-6.0136-7.5586Zm2.6868-2.1952c.7006-.0541 1.4045.0455 2.0626.2917l1.0161-1.1786c-.977-.46-2.0545-.6654-3.1322-.5973-1.8048.1233-3.5092.8755-4.8167 2.1256-.916.8243-1.6344 1.8445-2.102 2.9846-.4676 1.1401-.6724 2.3709-.5991 3.6011.1406 1.2701.5898 2.4866 1.3088 3.5433l.9601-1.2372c-.453-.7453-.7203-1.5887-.7794-2.4589-.0528-.9406.095-1.8817.4337-2.7609.3386-.8791.8604-1.6762 1.5307-2.3382 1.0854-1.1405 2.5518-1.8427 4.1208-1.9733l-.0034-.0019Zm-2.8543 6.4334-1.517-1.903c-.2962.6036-.456 1.265-.468 1.9372-.0121.6723.1239 1.339.3983 1.9528l1.5867-1.987Zm-12.2775-.0417 1.5174 1.9035c.2962-.6037.4559-1.2652.4679-1.9376.0119-.6723-.1241-1.339-.3986-1.9529l-1.5867 1.987Zm37.0438 15.728v-8.5594h5.9428v1.2361h-4.568v2.3347h2.547c.919.0138 1.588.1385 2.063.5402.459.4032.627 1.0421.627 1.9035.033.3486-.007.7004-.116 1.0328-.11.3325-.289.6384-.523.8983-.572.4599-1.301.6792-2.032.6113h-3.9403l-.0005.0025Zm3.8698-1.2508c1.267-.0555 1.309-.25 1.365-1.2921-.07-1.1816-.154-1.1261-1.474-1.1953h-2.38v2.4869h2.492l-.003.0005Zm21.076 1.1251h-1.125l-.614-1.6393h-3.83l-.654 1.6393h-1.462l3.104-8.2947.056-.1385h1.631l3.227 8.4337h-.335l.002-.0005Zm-5.18-2.8621h2.978l-1.488-4.0428-1.49 4.0428Zm22.819 2.9874h-1.145v-3.7378h-4.41v3.7378h-1.366v-8.559h1.366v3.5851h4.41v-3.5851h1.38v8.559h-.235Zm16.495 0-3.801-3.7378h-.5v3.7378h-1.381v-8.559h1.381v3.5851h.5l3.399-3.5851h1.866l-4.042 4.1405L160 40.7375h-1.921v-.0014ZM114.701 9.16648v2.22322c0 5.0992-5.556 5.2656-5.556 12.4765v6.8106h2.744v-7.1701c.091-2.5191.752-4.9848 1.934-7.2109l.878-1.6393v16.0203h2.742V9.16648h-2.742ZM155.948 9c-2.352 0-3.87 1.0004-3.87 2.7791v.9999c0 1.9453.835 2.237 2.731 2.8067.672.2154 1.262.6321 1.69 1.1937.427.5616.672 1.241.701 1.9464 0 2.07-2.308 3.1677-4.105 3.1677-.342-.0027-.683-.0398-1.017-.1111v8.8944h2.731v-8.4892c.947-.2935 1.782-.8707 2.391-1.6535v10.1427h2.731V11.9476c0-1.7503-1.213-2.94662-3.983-2.94662V9Zm1.252 7.9068c-.57-1.1389-2.391-1.5283-2.391-3.0449v-2.734c0-1.29204.766-1.36129 1.252-1.36129.569 0 1.139.09822 1.139 1.36129v5.7798-.0009Zm-7.823 13.77-.015-21.51032h-2.725V13.557l-2.383 3.6832V9.16648h-2.739V30.6768h2.739V18.7975l2.383-3.6263v15.5056h2.74Zm-10.647-8.8919c-.34.0644-.686.1015-1.032.1109-2.131 0-4.105-1.3337-4.105-3.1675 0-1.5838 1.1-2.652 2.436-3.1401 1.292-.4863 2.686-.5142 2.686-2.8342v-1.0009c0-1.77826-1.517-2.75015-3.87-2.75015-2.77 0-3.982 1.19485-3.982 2.90385v18.77h7.867v-8.8924.0005Zm-5.083-10.7954c0-1.29213.683-1.33388 1.14-1.33388.422 0 1.257.04175 1.257 1.33388v2.7374c0 1.5283-1.675 1.8755-2.397 3.0448V10.989v.0005Zm2.397 19.1873h-2.397v-9.601c.593.8078 1.435 1.3986 2.397 1.6816v7.9194ZM125.338 9.16648v3.02912c-.615 2.7232-2.397 4.2377-4.863 4.2377-.088.003-.176-.0112-.26-.0417l-.014 14.2852h2.74v-8.9199l2.397 3.668v5.2519h2.725l.015-21.51032h-2.74Zm0 14.85242-2.397-3.6675v-3.8881c1.065-.4891 1.917-1.3482 2.397-2.4177v9.9758-.0025Zm-18.949-7.5841v-4.5147c0-1.5981-1.085-2.8759-3.828-2.8759-3.0206 0-3.9531 1.2769-3.9531 3.2654v15.0188c0 1.9728.933 3.2512 3.9251 3.2512 2.729 0 3.829-1.2769 3.829-2.8764v-2.2783h-2.702v2.2783c0 1.5003-.069 2.3081-1.238 2.3081-.933 0-1.13-.8348-1.13-1.7227l.014-16.9367c0-.9031.196-1.73704 1.129-1.73704 1.212 0 1.253.83484 1.253 2.40344l-.014 4.42h2.715v-.0035Z"/>
</svg>