<svg xmlns="http://www.w3.org/2000/svg" viewBox="0 0 200 50">
	<path class="bg-logo" fill="#009E55" d="M0 0h200v50H0z"/>
	<g fill="#fff">
		<path d="M70.1563 29.1541h1.7352l.9972 4.4405h.0149l.9977-4.4405h1.7426v5.7058h-1.0937v-4.7704h-.0153l-1.0783 4.7704h-1.1555l-1.0358-4.7704h-.0149v4.7704h-1.0941v-5.7058Zm6.469 3.5902c.0057-1.258.8619-2.2398 2.1527-2.2398 1.2905 0 2.1522.977 2.1522 2.2398 0 1.2638-.8606 2.2437-2.1522 2.2437-1.2827 0-2.1609-.9835-2.1527-2.2437Zm1.1402 0c0 .6336.2867 1.3044 1.012 1.3044.7437 0 1.013-.6528 1.013-1.3044 0-.6471-.2725-1.3039-1.0125-1.3039-.7214 0-1.0145.6711-1.0125 1.3039Zm7.3346-3.8855c0 .7807-.6031 1.1472-1.3257 1.1452-.7278-.0038-1.3296-.3549-1.3296-1.1452h.7925c.0115.3405.1904.5239.5371.5239.3546 0 .5474-.163.5372-.5239h.7885Zm-3.2192 1.7699h1.0932v2.6088h.0158l1.5344-2.6083h1.1476v4.2307h-1.0902v-2.5504h-.0198l-1.4874 2.5504h-1.1936v-4.2312Zm7.3579 0h1.0932v1.529h1.6076v-1.5295h1.0897v4.2312h-1.0897v-1.8129H90.332v1.8129h-1.0932v-4.2307Zm8.4006 3.3967c0 .2191-.0054.5781.2513.6599v.1746h-1.2094c-.0664-.1581-.1077-.3205-.1044-.4931-.3847.3981-.7728.6265-1.3449.6212-.7672-.008-1.3064-.5267-1.2985-1.3044.0078-.6806.4915-1.2143 1.1555-1.3039 0 0 1.1501-.1726 1.1941-.1825.1606-.037.2668-.1568.2627-.326-.008-.3766-.3443-.4803-.6722-.4773-.3906.004-.6747.1584-.7267.5822h-1.0937c0-.9607.9425-1.4668 1.7971-1.4716.85-.0044 1.7891.2846 1.7891 1.2772v2.2437Zm-1.0936-1.2306c-.2432.1316-.4877.1789-.7573.2295-.3894.0686-.7613.2063-.7613.6593 0 .3287.2326.5244.5525.5244.4083 0 .7785-.2254.9122-.6134.0865-.2515.0539-.5384.0539-.7998Zm1.8895 1.1762h.4368c.5493-1.0351.5304-2.2056.5604-3.3423h3.2925v3.3423h.529v1.9059h-1.028v-1.017h-2.7628v1.017h-1.0279V33.971Zm3.1997 0v-2.4495h-1.252c0 .8091-.037 1.7159-.4133 2.4495h1.6653Zm3.169-.8854c0 .5923.4 1.0091.989 1.0091.308 0 .629-.1808.711-.4927h1.132c0 .9154-1.139 1.3821-1.905 1.3855-1.347.005-2.029-1.0247-2.029-2.2902 0-1.2059.725-2.1933 1.995-2.1933 1.516 0 1.994 1.2538 1.994 2.5811l-2.887.0005Zm1.75-.7291c0-.5159-.313-.9603-.857-.9631-.548-.003-.854.4511-.854.9631h1.711Zm5.361-.047h.208l1.155-1.6808h1.249l-1.415 1.9568 1.488 2.2744h-1.322l-1.155-1.797h-.208v1.797h-1.091v-1.797h-.239l-1.186 1.797h-1.275l1.495-2.2744-1.399-1.9568h1.252l1.148 1.6808h.204v-1.6808h1.091v1.6808Zm3.427-1.6808h1.094v1.5294h1.607v-1.5294h1.09v4.2312h-1.09V33.047h-1.607v1.8129h-1.094v-4.2312Zm9.22 0h1.094v4.2312h-1.094v-4.2312Zm-4.224 0h1.094v1.4716h.993c.893 0 1.654.4073 1.654 1.3855 0 .9035-.705 1.3629-1.538 1.3741h-2.203v-4.2312Zm1.094 3.4047h.8c.361 0 .707-.1337.707-.5476 0-.4459-.427-.5608-.8-.559h-.707v1.1066Zm8.645-5.1746c0 .7807-.603 1.1472-1.326 1.1452-.727-.0038-1.329-.3549-1.329-1.1452h.792c.012.3398.192.5239.537.5239.355 0 .548-.163.538-.5239h.788Zm-3.219 1.7699h1.094v2.6088h.015l1.534-2.6083h1.148v4.2307h-1.09v-2.5504h-.02l-1.487 2.5504h-1.194v-4.2312Zm11.036-1.5408c.007.5492-.335.9327-.862 1.0521-.419.0953-.854.0752-1.263.225-.6.2194-.93.7387-.97 1.3663.208-.6722.936-.9853 1.596-.9898 1.16-.0086 1.874.9106 1.874 2.0186 0 1.2702-.849 2.2358-2.145 2.2358-1.114 0-1.869-.6755-2.064-1.7584-.065-.363-.094-.7263-.096-1.0947-.004-1.0523.361-2.1133 1.36-2.585.32-.1514.706-.2503 1.16-.2914.131-.0117.358-.0319.421-.1785h.989Zm-2.782 3.6564c.002.6338.286 1.3044 1.012 1.3044.75 0 1.013-.649 1.013-1.3044 0-.6157-.291-1.1876-.974-1.1876-.69 0-1.054.5406-1.051 1.1876Zm7.504 1.2811c0 .1267.005.2315.02.3146.025.1485.077.2962.232.3453v.1746h-1.21c-.066-.1581-.108-.3205-.104-.4931-.385.3981-.773.6265-1.345.6212-.767-.008-1.307-.5266-1.299-1.3044.008-.6889.476-1.2057 1.156-1.3039 0 0 1.15-.1726 1.194-.1825.161-.037.267-.1568.263-.326-.008-.3766-.345-.4803-.673-.4773-.41.0042-.675.1612-.726.5822h-1.094c0-.9608.942-1.4668 1.797-1.4716.85-.0044 1.789.2846 1.789 1.2772v2.2437Zm-1.093-1.2306c-.244.1316-.488.1789-.758.2295-.389.0686-.761.2063-.761.6593 0 .409.347.5657.711.5125.35-.0519.638-.2659.754-.6015.086-.2515.054-.5384.054-.7998Zm2.252-2.1661h1.094v1.5294h1.608v-1.5294h1.09v4.2312h-1.09V33.047h-1.608v1.8129h-1.094v-4.2312Zm5.028 0h1.094v1.6076l1.577-1.6076h1.452l-1.738 1.7585L153 34.8604h-1.426l-1.237-1.7857-.44.4462v1.339h-1.094v-4.2312ZM74.6769 17.5428c-.2088-.7379-.7659-1.1963-1.5582-1.1832-1.2479.018-1.6739 1.2983-1.6739 2.3575 0 1.054.4166 2.3565 1.6739 2.3565.8517 0 1.3444-.5048 1.5676-1.2807h1.4147c-.2703 1.4906-1.3874 2.5242-2.9264 2.5198-2.0741-.0081-3.1534-1.651-3.1534-3.5961 0-1.8618 1.0821-3.5956 3.0975-3.5956 1.4616 0 2.8529.8697 2.9818 2.4218h-1.4236Zm2.0958-2.2497h5.5836v1.1787h-2.0825v5.6687h-1.4236v-5.6687h-2.0775v-1.1787Zm6.6684 0h3.0979c1.3449 0 2.133.8701 2.133 2.1938 0 1.3032-.9624 2.1942-2.2492 2.1942h-1.5581v2.4594h-1.4236v-6.8474Zm1.4236 3.2048h1.3498c.6355 0 1.0339-.3691 1.0339-1.011 0-.6321-.4021-1.0236-1.0339-1.0151h-1.3498v2.0261Zm4.7392.2187c.0076-1.9828 1.1899-3.5956 3.2785-3.5956 2.0139 0 3.2741 1.6797 3.2741 3.5956 0 1.9181-1.2578 3.5961-3.2741 3.5961-2.0794 0-3.2867-1.6101-3.2785-3.5961Zm3.2785 2.357c1.2734 0 1.8557-1.2335 1.8505-2.357-.0049-1.1204-.5741-2.357-1.8505-2.357-1.271 0-1.8602 1.234-1.8549 2.357.0049 1.1254.5731 2.357 1.8549 2.357Zm4.5493-5.7805h1.3682v4.6626h.0183l2.6988-4.6626h1.442v6.8474h-1.368v-4.6348h-.018l-2.6945 4.6348h-1.4468v-6.8474Zm2.8803-.3586c-1.1904 0-1.7906-.4623-1.7906-1.4345h1.0759c.0133.4308.2906.6613.7147.6613.412 0 .727-.2243.714-.6613h1.076c0 .9718-.6 1.4345-1.79 1.4345Zm8.379 1.5373h-1.997c0 .896.014 1.7926-.039 2.6875-.067 1.1345-.199 3.1148-1.739 3.1069-.28-.0017-.567-.029-.827-.1395v-1.3094c.205.1041.504.1493.726.0747.375-.1249.416-.7592.454-1.0714.088-.7203.09-1.4553.088-2.1799v-2.3476h4.758v6.8474h-1.424v-5.6687Zm2.945-1.1787h5.003v1.1787h-3.636v1.5186h3.344v1.1827h-3.344v1.7283h3.799v1.2391h-5.166v-6.8474Zm10.818 2.2497c-.209-.7401-.767-1.1898-1.558-1.1832-1.249.0071-1.674 1.3077-1.674 2.3575 0 1.0539.417 2.3565 1.674 2.3565.849 0 1.347-.5039 1.567-1.2807h1.415c-.269 1.4892-1.388 2.5264-2.926 2.5198-2.074-.0081-3.154-1.651-3.154-3.5961 0-1.8617 1.083-3.5956 3.098-3.5956 1.461 0 2.853.8699 2.982 2.4218h-1.424Zm2.759-2.2497h4.962v1.1787h-3.538v1.5186s1.926.003 2.087.0089c1.217.0487 2.058.8258 2.058 2.0726 0 1.3626-.966 2.0686-2.244 2.0686h-3.325v-6.8474Zm1.424 5.6637h1.54c.613 0 1.177-.2128 1.177-.9171 0-.7535-.593-.9225-1.233-.9225h-1.484v1.8396Zm7.433-5.6637h1.628l2.412 6.8474h-1.55l-.435-1.4117h-2.519l-.473 1.4117h-1.502l2.439-6.8474Zm-.083 4.2525h1.739l-.849-2.7112h-.018l-.872 2.7112Zm5.17-4.2525h1.428v2.6038h2.676v-2.6038h1.424v6.8474h-1.424v-3.0604h-2.676v3.0604h-1.428v-6.8474Zm7.216 0h1.423v2.7854l2.607-2.7849h1.841l-2.783 2.8037 2.945 4.0432h-1.804l-2.11-3.0322-.696.7123v2.3199h-1.423v-6.8474Z"/>
		<path d="M56.1234 19.9995 52.3804 7 43 40.7906h1.2334l-.5568 1.9894h9.0529l.1529-.1332c.5274-.6319.9715-1.2214 1.3756-1.8562h1.8654v2.5036h8.5609l-8.0754-28.8749c-.0754-.2693-.4855-.212-.4855.0673v5.5129ZM53.663 31.1619c.8814 2.3772 1.3698 4.0004 1.3597 5.5816-.0032.5161-.0795 1.0267-.2298 1.5447-.4237 1.4608-1.3352 2.7431-2.2964 3.9052H44.45l7.0015-25.0144c-.019.4469-.0283.8908-.0283 1.3309 0 5.0653 1.1118 9.6105 2.2398 12.652Z"/>
	</g>
</svg>