<svg xmlns="http://www.w3.org/2000/svg" viewBox="0 0 200 50">
	<path class="bg-logo" fill="#005187" d="M0 0h200v50H0z"/>
	<g fill="#fff">
		<path d="M58.0612 34.7306c-2.1548-1.5213-3.1078-3.0989-2.2923-4.5263 0 0 3.6129-5.0803 1.1373-15.6728 0 0 6.8404-2.9957 7.9777-9.06197l-5.0523 2.40399c.247-.50709.449-1.03296.5958-1.57762.1281-.3944.2656-.87333.3479-1.2959l-1.228.5916-10.775 5.0615c-.0552.0282-.101.0658-.1188.1221-.578 1.2678-.7706 2.7702-.7342 4.3573-.981-.3287-2.0079-.5166-3.09-.5166-1.5956 0-3.0994.4039-4.4378 1.0894-.0093-.0282-.0187-.0657-.0365-.0939-.0832-.0845-.2113-.1033-.3123-.0376l-1.2832.8169-.3217-2.5824c-.0085-.122-.1188-.2159-.2376-.2253-.1291 0-.2301.0939-.2478.216l-.3854 2.573-1.2747-.8451c-.101-.0658-.2291-.0564-.3114.0281-.0823.0846-.101.216-.0365.3193l.7978 1.3147-2.5224.3193c-.1281.0188-.2198.122-.2198.2535 0 .1314.0917.2348.2114.2536l2.5121.3944-.8343 1.2959c-.0645.0939-.0552.2347.0271.3193.0187.0187.0552.0281.0823.0375-.7519 1.4368-1.1821 3.0801-1.1821 4.8173 0 5.6532 4.4929 10.2546 10.0128 10.2546 1.3664 0 2.6683-.2817 3.8607-.7888.0823.0658.1562.1221.2478.1878 3.8879 2.9017 6.6749 1.7748 8.8672 2.7514 1.8059.8076 2.5944 2.3289 2.5944 2.3289l3.3107-1.1362c-1.2841-2.3383-3.9888-2.5731-5.6489-3.7469ZM49.066 11.0757l10.949-5.12725c-.1656.64795-.4041 1.28651-.7061 1.89689l-7.6757 3.64356c-.0551.0282-.101.0657-.1187.1221-1.3113 2.9298-1.4029 6.8551-1.4768 10.3108-.0271 1.1739-.0552 2.2819-.1281 3.2398-.0552-.6855-.1646-1.4461-.3208-2.2444-.0646-.3098-.1281-.6291-.1927-.9484-.7519-3.7375-1.6049-7.982-.3301-10.8931Zm-3.7233 16.9594c-.2291-.2347-.4489-.8545-1.2467-1.0705-.3946-.1127-.78-.0657-1.0633 0-.2844.0658-.7062.0094-1.0185-.1315-.1282-.0469-.2843-.1315-.2843-.1315-.2105-.0939-.4396-.1878-.6781-.1596-.3582.0469-.8801.3945-.8801.3945l1.6227.77s.3208.1502.5499.4507c.679.9202 1.2383 1.2114 1.6049 1.3898 1.3299 1.1175 1.7882 2.3289 3.9337 4.1507-.953.3474-1.9893.554-3.063.554-5.0522 0-9.1598-4.207-9.1598-9.3719 0-2.1128.6874-4.0566 1.834-5.6248h-.0281l.0187-.0188.3115 2.5917c.0187.1221.1197.2254.2478.2254.1188 0 .2292-.0939.2479-.216l.3937-2.573 1.2561.8546c.101.0657.23.0563.3123-.0282.0823-.0845.101-.216.0365-.3193l-.7978-1.3147 2.5308-.3193c.1188-.0188.2198-.122.2198-.2535s-.0916-.2348-.2104-.2536l-2.5131-.4037c1.4955-1.08 3.3109-1.7279 5.2824-1.7279 1.0998 0 2.1548.216 3.1265.5822.1375 1.972.5593 4.0473.9446 6.0006.0645.3193.1281.6291.1927.9484.4489 2.2819.679 4.8268-.0823 5.4935-1.4946.8264-3.2463-.0845-3.641-.4883Z"/>
		<path d="M66.544 26.29c1.3748 1.4367 3.1172 2.1504 5.2168 2.1504 1.2841 0 2.4579-.3005 3.5128-.9203 1.0634-.6104 1.8977-1.4367 2.4934-2.4697l-2.3746-1.4086c-.3301.6291-.8249 1.1269-1.4674 1.4837-.6416.3662-1.3664.5447-2.1642.5447-1.357 0-2.4475-.432-3.2827-1.3054-.8342-.8639-1.2467-1.9907-1.2467-3.3712 0-1.3992.4125-2.5261 1.2467-3.3993.8258-.8734 1.9257-1.3054 3.2827-1.3054.7978 0 1.5133.1878 2.1549.5447.6331.3568 1.1279.8639 1.4767 1.5025l2.3746-1.4086c-.5957-1.0424-1.43-1.8593-2.5027-2.4697s-2.2381-.9109-3.5035-.9109c-2.109 0-3.842.7137-5.2168 2.141-1.3664 1.418-2.0547 3.1928-2.0547 5.3057 0 2.0942.6789 3.869 2.0547 5.2964Zm86.975 11.3626c.605.6291 1.366.9484 2.292.9484.56 0 1.064-.1127 1.532-.385.467-.2723.834-.6292 1.1-1.0893l-1.045-.6198c-.147.2723-.358.4883-.643.6479-.284.1597-.605.2349-.953.2349-.596 0-1.082-.1879-1.448-.5729-.368-.385-.551-.8733-.551-1.4837s.183-1.1081.551-1.4931c.366-.385.852-.5728 1.448-.5728.358 0 .669.0751.953.2347.285.1503.496.3756.651.6574l1.046-.6198c-.256-.4601-.632-.817-1.1-1.0893-.467-.2723-.981-.4038-1.541-.4038-.926 0-1.687.3099-2.292.9391-.606.6291-.908 1.4086-.908 2.3382 0 .9203.302 1.6997.908 2.3289Zm-27.436-5.4836h1.21l-1.843 4.5639c-.495 1.2207-1.302 1.8029-2.43 1.7372v-1.1644c.33.0282.596-.0188.798-.1409.202-.1221.366-.3192.504-.6009l-2.017-4.4042h1.211l1.347 3.0425 1.22-3.0332Zm-8.886 1.1924v-1.1832h-3.493v6.3011h1.21v-5.1179h2.283Zm4.384-.5822c-.404-.4038-.899-.6104-1.495-.6104h-2.292v6.3011h1.21v-2.0754h1.082c.596 0 1.091-.2066 1.495-.6103.403-.4038.605-.9109.605-1.5025 0-.5916-.202-1.0987-.605-1.5025Zm-.853 2.188c-.174.1784-.386.2723-.642.2723h-1.082v-1.9062h1.082c.256 0 .468.0939.642.2722.174.1785.257.4132.257.6856 0 .263-.083.4977-.257.6761Zm11.746 3.5027v-6.3011h-4.594v6.3011h1.211V33.352h2.173v5.1179h1.21Zm5.658-6.3011v6.3011h-1.21V33.352h-2.174v5.1179h-1.21v-6.3011h4.594Zm4.685 5.1648.368 1.1363h1.329l-2.164-6.3011h-1.504l-2.155 6.3011h1.311l.367-1.1363h2.448Zm-.384-1.155h-1.688l.844-2.5731.844 2.5731Zm9.426-4.0098v6.3011h-1.211V33.352h-2.172v5.1179h-1.211v-6.3011h4.594Zm9.601 2.3853c.595 0 1.091.1783 1.467.5446.385.3662.569.8357.569 1.4085 0 .5823-.193 1.0518-.569 1.4181-.385.3662-.872.5446-1.467.5446h-2.357v-6.3011h3.87v1.1926h-2.659v1.202h1.146v-.0093Zm0 2.7514c.238 0 .44-.0751.595-.2161.157-.1408.239-.338.239-.5915 0-.2536-.082-.4508-.239-.5822-.155-.1409-.357-.2066-.595-.2066h-1.146v1.5964h1.146ZM92.8787 13.8382v14.3206h-2.7319v-9.2872l-3.9346 6.6485h-.3208l-3.9337-6.6297v9.2684h-2.7599V13.8382h2.8338l4.016 6.7706 3.9982-6.7706h2.8329Zm12.8283 14.3206V13.8382H95.2635v14.3112h2.7599V16.5332h4.9336v11.6256h2.75Zm13.352-8.9022c1.357 0 2.466.4131 3.337 1.2395.862.8264 1.303 1.8969 1.303 3.2022 0 1.324-.431 2.3946-1.303 3.221-.861.8263-1.98 1.2395-3.337 1.2395h-5.355V13.8382h8.793v2.7045h-6.033v2.7233h2.595v-.0094Zm0 6.2635c.55 0 .999-.1597 1.357-.479.357-.3193.541-.77.541-1.3428s-.184-1.0142-.541-1.3335c-.358-.3098-.816-.4695-1.357-.4695h-2.595v3.6248h2.595Zm14.204.0563.843 2.5824h2.99l-4.915-14.3206h-3.42l-4.897 14.3206h2.98l.844-2.5824h5.575Zm-.853-2.6387h-3.833l1.917-5.8504 1.916 5.8504Zm13.837-9.0995h2.733v14.3206h-2.733V22.224h-5.19v5.9348h-2.76V13.8382h2.76v5.6907h5.19v-5.6907Zm12.865 14.3206h3.174l-5.374-7.3622 5.172-6.9584h-3.174l-4.795 6.3199v-6.3199h-2.761v14.3206h2.761v-6.7143l4.997 6.7143Z"/>
	</g>
	<path fill="#E85919" d="M164 30.759H66.4336l-.9175-1.1926h97.5579L164 30.759Z"/>
</svg>