<svg xmlns="http://www.w3.org/2000/svg" viewBox="0 0 200 50">
	<path class="bg-logo" fill="#0164A9" d="M0 0h200v50H0z"/>
	<path fill="#fff" d="M75.1021 18.1867h-1.9276v-1.1383h4.2932v-2.1892h-7.535v8.4065h4.9066c1.2266 0 2.1904-.2627 2.8037-.8757.4381-.4379.7009-.9633.7009-1.6638 0-.7006-.2628-1.3135-.7009-1.7514-.6133-.5254-1.4895-.7881-2.5409-.7881Zm-.4381 3.1525c-.1752.1751-.4381.2627-.7009.2627h-.9638v-1.7514h.8762c.3504 0 .6133.0876.7885.2627.1753.1751.2629.3503.2629.613.0876.2627 0 .5254-.2629.613Zm6.8341-6.48-2.9789 8.4065h3.2418l.5256-1.839h2.5409l.5257 1.839h3.417l-2.8913-8.4065h-4.3808Zm1.2266 4.7286.8762-2.627.8761 2.627h-1.7523Zm12.3539-1.7513h-2.1028v-2.9773H89.734v8.494h3.2418v-3.1524h2.1028v3.1524h3.2418v-8.494h-3.2418v2.9773Zm10.6894.9632 2.891-3.9405h-3.68l-2.015 3.3275h-.088v-3.3275h-3.2414v8.494h3.2414v-3.5903h.088l2.015 3.5903h3.855l-3.066-4.5535Zm-45.473-6.2173-8.8493 5.1665V7.59108c-3.2418-.78811-6.0455-.78811-8.4111 0V17.7489L34.273 12.67c-2.278 2.4519-3.6799 4.8162-4.2056 7.2681l8.1461 4.7492 9.1434-5.3462c3.0168 1.7568 5.4309 3.1623 7.3569 4.2833l1.6531.962 8.2213-4.7359c-.8762-2.8021-2.3656-5.1664-4.2932-7.2681Zm-4.2202 12.0794-8.7064-5.051-8.7483 5.1476c1.0596.2009 1.9705.4514 2.9241.7138.288.0795.5793.1598.8801.2402 1.9252.5249 3.6752.2624 4.9005-.7881 1.662-.8753 3.412-1.225 4.8997-1.0497 1.838.1744 2.9753.4376 3.8503.7872ZM34.1998 37.442c-1.8371-1.6635-3.2376-4.027-4.1998-7.2659l8.6047-5.4082L47.5 30.0018l8.6594-5.2844 8.2279 5.3716c-.8749 2.8012-2.1875 5.2519-4.1998 7.265l-8.8372-5.0768v10.2414c-2.8001.613-5.6003.7002-8.4005 0V32.3644l-8.75 5.0776Zm42-10.9415c-.2187 0-.4161-.0222-.6127-.0444-.0993-.0113-.1987-.0223-.301-.0304-.1-.008-.2026-.0132-.3108-.0132-1.75 0-3.0624.4376-3.9375 1.401-.2811.2804-.5058.5839-.6793.9129-.3136.595-.4588 1.2745-.4588 2.0627 0 1.313.4375 2.3635 1.3124 3.1516.5546.4992 1.2852.8583 2.1474 1.054.4973.1128 1.0391.171 1.6158.171.3495 0 .6999 0 1.0493-.0872.4376 0 .7879-.0881 1.2254-.2625v-2.1883c-.4375.1744-.6998.2625-.9621.2625h-.7008c-.8749 0-1.4867-.2625-1.9242-.7881-.2633-.3497-.4376-.7874-.4376-1.4002 0-.6129.2624-1.1378.6118-1.5754.0684-.0684.1393-.1308.2128-.1872.3948-.3009.8605-.4257 1.4501-.4257.2623 0 .6127 0 .875.0872l.7878.2624v-2.1883h-.1751c-.094-.0231-.182-.0462-.2632-.0684-.2214-.059-.3965-.106-.5247-.106Zm7.4375 2.9756h-2.1875v-2.8884h-3.2377v8.4027h3.2377v-3.0636h2.1875v3.0636h3.2377v-8.4027h-3.2377v2.8884Zm7.6127 2.1883h3.9375v-1.8378H91.25v-1.2258h4.1127v-2.0131h-7.2624v8.4027h7.3495v-2.013H91.25v-1.313Zm19.512-4.9895h-3.5l-1.837 3.5012h-.088v-3.5012h-3.149v3.5012h-.088l-1.925-3.5012h-3.4127l2.625 3.8517-3.0624 4.4638h3.8501l1.925-3.7637h.088v3.7637h3.149v-3.7637h.088l1.837 3.7637h3.851l-2.976-4.4638 2.625-3.8517Zm4.551 4.727h-.088v-4.8142h-3.237v8.4027h3.762l2.187-4.7262v4.7262h3.238v-8.4027h-3.762l-2.1 4.8142Zm12.512-1.9258h-2.1v-2.8884h-3.237v8.4027h3.237v-3.0636h2.1v3.0636h3.237v-8.4027h-3.237v2.8884Zm9.975 3.5013c-.875 0-1.575-.2625-1.925-.7873-.262-.3505-.438-.7882-.438-1.401 0-.613.263-1.1378.613-1.5754.438-.4377.962-.6129 1.662-.6129.263 0 .613 0 .875.088l.788.2624v-2.1883h-.175c-.212-.0423-.382-.0847-.512-.1169l-.011-.0027c-.133-.0334-.221-.0556-.264-.0556-.219 0-.416-.0218-.613-.0436s-.394-.0436-.612-.0436c-.616 0-1.176.0539-1.684.1659-.935.2068-1.687.6103-2.254 1.2343-.788.7881-1.137 1.7506-1.137 2.9764 0 1.313.437 2.3627 1.312 3.1508s2.188 1.2258 3.763 1.2258c.35 0 .699 0 1.05-.088.161 0 .311-.012.457-.0359.25-.0411.491-.1163.767-.2266v-2.1883c-.437.1753-.7.2625-.962.2625-.183-.0608-.366-.0368-.52-.0163-.066.0086-.127.0163-.18.0163Zm11.462-6.3897h-3.675l-2.012 3.3261v-3.3261h-3.238v8.4027h3.238v-3.5013l2.1 3.5013h3.85l-3.063-4.4638 2.8-3.9389Zm4.463 4.8142h-.088v-4.8142H150.4v8.4027h3.763l2.187-4.7262v4.7262h3.237v-8.4027h-3.762l-2.1 4.8142Zm9.8-5.8648c.525.3505 1.138.5258 1.925.5258.788 0 1.4-.1753 1.925-.5258.525-.3495.788-.7872.875-1.4001l-1.4-.2624c0 .0709-.007.135-.021.1931-.039.1574-.138.2685-.329.3317l-.005.0016c-.26.0866-.522.1736-.957.1736-.35 0-.613 0-.875-.1752-.263-.1752-.438-.3504-.438-.6129l-1.487.3505c0 .6129.262 1.0506.787 1.4001Zm2.713 1.0506-2.188 4.8142v-4.8142h-3.237v8.4027h3.762l2.187-4.7262v4.7262H170v-8.4027h-3.762Z"/>
</svg>