<svg xmlns="http://www.w3.org/2000/svg" viewBox="0 0 200 50">
	<path class="bg-logo" fill="#004282" d="M0 0h200v50H0z"/>
	<path fill="#fff" d="m66.4539 18.4937.8761-2.2009 1.7174-6.81987-7.6327.00845c-1.3385 0-2.5598.57212-3.4221 1.21492-.437.3051-1.1169 1.216-1.4915 2.051l-.8762 2.2008-2.1913 6.8199 8.1035-.0073c1.3374-.0032 2.564-.5732 3.4211-1.2171.4401-.304 1.121-1.2149 1.4957-2.0499ZM54.3509 6.12577h25.651l-.0233.06333h.0233L76.108 19.6232c-.0507.1665-.1409.3491-.2247.5187-.0489.0991-.0956.1937-.1311.2782-.0817.1693-.1576.3352-.2323.4986-.427.9338-.8155 1.7834-2.0382 2.6881-1.5716 1.103-3.4664 1.5063-4.8776 1.5084h-26.41l1.1695-3.3409 3.4823-10.1555c.051-.1699.1414-.3549.2247-.5252.0475-.0972.0926-.1896.1268-.2717.0863-.1769.1658-.3501.244-.5204.4261-.92769.8126-1.76927 2.0318-2.66735 1.5706-1.102 3.4632-1.50838 4.8777-1.50838ZM87.0216 22.7558c1.5643 1.937 3.5677 2.3455 6.5624 2.3455h8.517v-3.629h-5.3335c-2.0583 0-3.8432 0-4.6697-1.5-.1626-.3261-.4645-2.1575-.4645-4.2866 0-.9278.0792-3.6005.6312-4.5568.8397-1.50067 2.3129-1.50035 4.2925-1.49992l.1018.00002h5.1392V6h-8.1327c-2.1692 0-4.9706.24489-6.7281 2.48161-1.3744 1.72059-1.6763 4.12089-1.6763 7.31499 0 3.6543.6038 5.5396 1.7607 6.9592Zm29.3284-9.2413V6h6.205v19.1013h-6.205v-7.961h-6.124v7.961h-6.208V6h6.208v7.5145h6.124Zm9.7-4.02378V25.1013h6.206V10.8555c0-.3272 0-.7367.165-.95628.229-.27457.67-.27236 1.04-.27051.03.00014.059.00029.087.00029h5.737V6h-10.184c-.936 0-1.788.4085-2.283.92783-.742.79061-.768 1.71739-.768 2.56289Zm21.822 12.35468c-.786.0041-1.177.0061-1.177-1.2556v-3.9319h3.262c.355 0 .96 0 1.37.3293.416.2999.416 2.145.416 2.583 0 .3272 0 1.5939-.357 1.92-.387.3547-1.074.3547-1.429.3547h-1.943c-.049 0-.096.0003-.142.0005Zm.003-12.21641h9.11V6h-13.506c-.683 0-2.992.16361-2.992 3.05583V22.4276c0 1.5516 1.097 2.6716 2.692 2.6716h10.728c1.898 0 2.886-1.1442 3.135-1.4735.931-1.1981 1.069-2.9735 1.069-4.6107 0-1.2836-.082-3.3293-1.099-4.4998-.575-.6555-1.675-1.2561-3.159-1.2561h-7.158v-2.4848c0-.7094.026-1.14531 1.18-1.14531ZM42 42.1497v-7.5525h4.0407v.4591h-3.4971v2.4215c.0592-.0096.1383-.0159.2291-.0222.0725-.0057.1477-.0102.2263-.0148.0231-.0014.0465-.0028.0702-.0042.0298-.0012.0591-.0024.0881-.0035.0719-.0028.1416-.0054.2086-.0092.0388-.0004.0748-.0011.108-.0016.0461-.0008.0866-.0015.121-.0015.341-.0011.6713.0274.9934.0907.3229.0592.6184.1563.8876.2903.2312.115.4338.2618.608.4412.1721.1784.3083.3917.4053.6418.0982.2502.1479.5373.1489.8666-.001.3515-.0548.6587-.1604.9226-.1056.2638-.247.4918-.4264.6798-.2038.211-.4465.381-.7252.5077-.2766.1277-.5774.2174-.8993.2733-.3252.057-.6566.0835-.9975.0824-.2956-.0021-.5659-.0095-.8107-.0254-.0429-.0028-.0847-.0054-.1252-.0081-.19-.0122-.3542-.0228-.4934-.034Zm.8814-4.2434c-.1214.0085-.2333.019-.3388.0306h-.0011v3.7663c.1382.0221.2882.039.4539.0506.1668.0116.362.0169.5868.0169.2534 0 .5078-.0264.76-.0781.2524-.0538.4888-.1341.7094-.2428.2196-.1066.4096-.2428.5668-.4075.1447-.152.2576-.3314.3399-.5404.0813-.2079.1235-.4465.1246-.7146 0-.2555-.0348-.4781-.1056-.6735-.0676-.1941-.1657-.362-.2902-.5045-.1267-.1425-.2734-.2618-.4455-.3589-.2343-.133-.4972-.228-.7843-.2861-.2892-.059-.5921-.0865-.9088-.0844-.0898 0-.1932.0021-.3092.0074-.1105.004-.2258.011-.3431.0181l-.0148.0009Zm10.5629 4.2434-1.0524-2.6559h-3.3196l-1.0292 2.6559h-.5648l3.0104-7.5525h.532l2.9883 7.5525h-.5647Zm-3.1223-5.8045-1.0619 2.6895h2.9556l-1.0514-2.6569c-.0665-.1667-.1224-.3176-.1699-.4538-.0475-.1341-.0908-.2617-.1288-.3821-.0173-.0562-.0345-.1128-.0517-.1695-.0197-.0647-.0394-.1295-.0592-.1936h-.0221c-.0369.1256-.076.2512-.1172.3726-.0412.1204-.0844.2459-.1319.3758-.0454.1212-.0953.2488-.1498.3881l-.0117.0299Zm4.8808 5.8045v-7.5525h.5426v3.306h4.6698v-3.306h.5425v7.5525h-.5425v-3.7874h-4.6698v3.7874h-.5426Zm7.7024 0v-7.5514h.5405v3.4737h.4539l3.2089-3.4737h.6417l-3.3091 3.518c.38.0317.7072.1035.9796.2133.2744.1097.5076.2554.703.4349.1963.1794.3662.3884.513.6259.1466.2386.2807.5014.4063.7885.1119.2565.2153.4951.3114.7178.095.2216.1879.4381.2798.6396.095.2059.1963.4117.305.6144h-.5753c-.1024-.1805-.2026-.3737-.2987-.5784-.096-.2048-.191-.4128-.2808-.626-.0547-.1288-.1083-.2564-.1611-.3823-.0338-.0805-.0673-.1604-.1006-.2394-.1162-.2871-.2492-.5426-.399-.7674-.1479-.2238-.3284-.4149-.5342-.5721-.2079-.1541-.457-.2744-.7483-.3547-.2914-.0812-.6376-.1224-1.0409-.1224h-.3536v3.6417h-.5415Zm8.776 0v-7.5525h.5425v3.306h4.6697v-3.306h.5426v7.5525h-.5426v-3.7874h-4.6697v3.7874h-.5425Zm13.0244 0-1.0514-2.6559h-3.3186l-1.0302 2.6559h-.5647l3.0104-7.5525h.531l2.9882 7.5525h-.5647Zm-3.1202-5.8045-1.063 2.6895h2.9535l-1.0513-2.6569c-.0665-.1667-.1214-.3176-.1689-.4538-.0486-.1341-.0908-.2617-.1288-.3821-.0237-.075-.0465-.1508-.0694-.2264-.0137-.0458-.0275-.0914-.0414-.1367h-.0222c-.0359.1256-.075.2512-.1162.3726-.04.1204-.0833.2459-.1319.3758-.0486.1298-.1013.267-.1604.418Zm4.8798 5.8045v-7.5525h.5415v7.0943h3.0991v-7.0943h.5426v7.0943h3.0991v-7.0943h.5426v7.5525h-7.8249Zm10.3139-4.2128H100.1v.4592h-3.3209v3.2944h3.6969v.4592h-4.2395v-7.5525h4.0505v.4591h-3.5079v2.8806Zm5.1139 4.2128v-7.5536h3.972v.4592h-3.431v7.0944h-.541Zm9.026-.0307c-.367.1098-.747.1658-1.137.1658h-.013c-.533-.0021-1.024-.0982-1.475-.2861-.448-.1879-.841-.4507-1.174-.7917-.335-.3409-.591-.7452-.775-1.2075-.187-.4634-.278-.9712-.282-1.5263.003-.4761.065-.9184.19-1.33.126-.4085.301-.779.532-1.1094.228-.3294.5-.6112.814-.8445.313-.2364.659-.4159 1.04-.5404.38-.1256.785-.1868 1.21-.189.55.0022 1.051.0982 1.503.2893.453.19.842.4581 1.172.8001.33.344.581.7462.76 1.2085.18.4624.271.9659.273 1.5127-.002.5235-.072.9975-.207 1.4208-.135.4254-.322.7969-.563 1.121-.24.324-.52.5942-.837.8106-.32.2196-.663.3843-1.031.4961Zm-2.211-.4644c.326.1192.687.1794 1.074.1816v.001h.011c.494-.0021.936-.0919 1.332-.267.391-.1753.727-.4212 1.006-.74.277-.3177.491-.6893.638-1.1168.146-.4254.22-.8909.222-1.3944 0-.3325-.043-.6587-.126-.9837-.084-.3251-.209-.6345-.379-.9247-.169-.2893-.381-.5468-.633-.7705-.251-.227-.548-.4043-.885-.5331-.339-.1298-.72-.1942-1.142-.1974-.424.0032-.808.0665-1.15.19-.339.1246-.637.2987-.893.5204-.257.2248-.472.4845-.64.7811-.171.2967-.301.6196-.386.9679-.086.3473-.129.7083-.129 1.082 0 .3578.048.7051.141 1.0376.093.3314.23.6397.409.9247.18.2829.397.532.653.7452.256.2122.548.3789.877.4961Zm8.898.4951v-7.5536h3.974v.4592h-3.432v7.0944h-.542Zm9.028-.0307c-.367.1098-.747.1658-1.136.1658h-.012c-.533-.0021-1.025-.0982-1.475-.2861-.449-.1879-.841-.4507-1.176-.7917-.332-.3409-.59-.7452-.775-1.2075-.185-.4634-.277-.9712-.281-1.5263.002-.4761.065-.9184.19-1.33.125-.4085.301-.779.532-1.1094.229-.3294.499-.6112.814-.8445.314-.2364.66-.4159 1.039-.5404.38-.1256.784-.1868 1.21-.189.55.0022 1.051.0982 1.504.2893.452.19.842.4581 1.172.8001.329.344.58.7462.76 1.2085.18.4624.269.9659.272 1.5127-.003.5235-.073.9975-.207 1.4208-.135.4254-.323.7969-.564 1.121-.24.324-.52.5942-.837.8106-.32.2196-.663.3843-1.03.4961Zm-2.212-.4644c.328.1192.687.1794 1.076.1816v.001h.01c.494-.0021.936-.0919 1.332-.267.392-.1753.728-.4212 1.007-.74.276-.3177.49-.6893.636-1.1168.147-.4254.221-.8909.223-1.3944 0-.3325-.042-.6587-.125-.9837-.086-.3251-.211-.6345-.38-.9247-.169-.2893-.38-.5468-.632-.7705-.253-.227-.549-.4043-.886-.5331-.34-.1298-.72-.1942-1.142-.1974-.423.0032-.808.0665-1.149.19-.341.1246-.639.2987-.895.5204-.255.2248-.47.4845-.639.7811-.171.2967-.302.6196-.386.9679-.087.3473-.128.7083-.128 1.082 0 .3578.047.7051.14 1.0376.094.3314.23.6397.41.9247.179.2829.395.532.652.7452.256.2122.548.3789.876.4961Zm6.786.4951h-.541v-7.4765c.24-.0401.507-.0749.806-.1024.298-.0285.62-.0412.965-.0433.498.0021.928.0602 1.288.1753.359.1181.648.2828.869.4971.19.1794.336.3937.442.6375.102.246.153.5236.156.8318 0 .3304-.05.626-.145.8835-.099.2596-.241.4845-.43.6745-.171.1795-.377.3315-.617.4528-.239.1193-.505.2101-.796.2723-.295.0624-.604.094-.934.094-.193.0021-.382-.0042-.56-.019-.18-.0137-.349-.0454-.503-.094v3.2164Zm.479-7.1261c-.205.019-.367.0422-.479.0665h.002v3.3619c.155.0507.329.0845.521.1056.192.0201.394.0296.607.0296.495-.0022.914-.0739 1.259-.2207.343-.1457.605-.3567.784-.6312.179-.2734.269-.607.269-.9975-.001-.324-.061-.5975-.177-.8223-.116-.2237-.279-.4032-.483-.5393-.205-.1362-.441-.2344-.709-.2966-.265-.0623-.551-.0918-.855-.0898-.284.0021-.531.0116-.739.0338Zm9.344 7.0954c-.366.1098-.748.1658-1.136.1658h-.013c-.532-.0021-1.025-.0982-1.475-.2861-.45-.1879-.842-.4507-1.174-.7917-.334-.3409-.592-.7452-.777-1.2075-.184-.4634-.278-.9712-.28-1.5263.001-.4761.064-.9184.19-1.33.124-.4085.299-.779.531-1.1094.229-.3294.5-.6112.813-.8445.315-.2364.661-.4159 1.041-.5404.38-.1256.784-.1868 1.209-.189.551.0022 1.052.0982 1.505.2893.452.19.841.4581 1.172.8001.329.344.581.7462.76 1.2085.179.4624.268.9659.272 1.5127-.004.5235-.071.9975-.207 1.4208-.135.4254-.322.7969-.564 1.121-.241.324-.519.5942-.838.8106-.318.2196-.662.3843-1.029.4961Zm-2.212-.4644c.328.1192.687.1794 1.076.1816v.001h.01c.494-.0021.938-.0919 1.331-.267.394-.1753.728-.4212 1.007-.74.278-.3177.49-.6893.637-1.1168.148-.4254.221-.8909.224-1.3944 0-.3325-.043-.6587-.125-.9837-.086-.3251-.211-.6345-.38-.9247-.17-.2893-.381-.5468-.634-.7705-.253-.227-.548-.4043-.885-.5331-.339-.1298-.721-.1942-1.141-.1974-.425.0032-.809.0665-1.15.19-.34.1246-.638.2987-.895.5204-.256.2248-.47.4845-.639.7811-.172.2967-.301.6196-.386.9679-.086.3473-.129.7083-.129 1.082 0 .3578.047.7051.141 1.0376.095.3314.231.6397.41.9247.179.2829.396.532.653.7452.256.2122.546.3789.875.4961Zm7.141-5.1078v-1.9507h4.15v7.0944h.653L150.697 44h-.442l-.056-1.8503h-5.433L144.709 44h-.442l-.068-2.3085h.542c.082-.1425.172-.2902.266-.4443.094-.1563.184-.3178.273-.4899.091-.1699.17-.3483.237-.5351.105-.2998.191-.6323.257-.9944.066-.363.113-.7652.143-1.2075.027-.4412.043-.9331.043-1.4735Zm3.608-1.4915h-3.098v1.8039c0 .5025-.015.9669-.046 1.3849-.032.4201-.083.8064-.152 1.1558-.069.3515-.157.6756-.267.9679-.064.17-.136.3347-.214.4951-.078.1604-.16.3124-.243.4518-.08.1415-.157.266-.228.3758h4.248v-6.6352Zm7.978 7.0944-1.051-2.6559h-3.32l-1.03 2.6559h-.564l3.01-7.5525h.531l2.989 7.5525h-.565Zm-3.12-5.8045-1.063 2.6895h2.954l-1.052-2.6569c-.067-.1667-.121-.3176-.17-.4538-.048-.1341-.09-.2617-.128-.3821-.037-.1203-.074-.2428-.111-.3631h-.021c-.037.1256-.075.2512-.116.3726-.041.1204-.085.2459-.132.3758-.049.1298-.102.267-.161.418ZM60.7233 19.6966l-4.2381.0042 2.2769-5.9956c.1615-.5331.6946-1.2508 1.3268-1.6308.5912-.3832 1.3153-.5341 2.1302-.5341l4.0891-.0022-2.1807 5.9565c-.2639.645-.7082 1.2129-1.3015 1.595-.5573.38-1.2836.607-2.1027.607Z"/>
</svg>