<svg xmlns="http://www.w3.org/2000/svg" viewBox="0 0 200 50">
	<path class="bg-logo" fill="#3A52AA" d="M0 0h200v50H0z"/>
	<path fill="#fff" d="M36.874 8c-4.3479 0-8.3336 1.65936-11.3358 4.3765h22.6715C45.2076 9.65936 41.222 8 36.874 8Zm-12.8885 6.1374c1.0353-.9062 2.4328-1.5093 3.9339-1.5093s2.8987.6031 3.9856 1.5093h-7.9195Zm-.6727.7032h9.2134c.8283 1.0562 1.3459 2.314 1.3459 3.7218H22.0187c0-1.4078.4658-2.7156 1.2941-3.7218Zm30.4357 10.0608c0 4.5781-1.8117 8.7015-4.7621 11.7202H24.7621C21.8117 33.6029 20 29.4795 20 24.9014h33.7485Zm-25.829-.4016c1.7598 0 3.3644-.7546 4.4514-2.0124h-8.903c1.087 1.2578 2.6916 2.0124 4.4516 2.0124Zm8.9547 17.2514c-4.0892 0-7.8678-1.5093-10.7664-3.9234h21.5328c-2.8987 2.4641-6.6773 3.9234-10.7664 3.9234ZM70.6833 29.6276l-.1368-1.8078c-.0304.0203-.0658.0407-.1063.061l-.1216.0297c-.2433.1015-.5321.1921-.8664.2734-.3345.0719-.7094.1062-1.1248.1062h-.2889l-.2887-.0296c-.7702-.0907-1.4744-.4063-2.1128-.9422-.6384-.5469-.9576-1.4297-.9576-2.6453 0-1.1859.3597-2.0922 1.0792-2.7203.7295-.639 1.6366-.9578 2.7207-.9578.375 0 .7347.0297 1.0792.0906.3446.061.6891.1625 1.0336.3047l.0912-1.825-.1321-.039c-.0508-.0141-.103-.025-.1566-.036l-.2737-.0922c-.2735-.0593-.5573-.1062-.8511-.1359-.2838-.0406-.5979-.0609-.9424-.0609-1.8342 0-3.2832.4968-4.3472 1.489-1.0538.9938-1.5808 2.3312-1.5808 4.014 0 1.7828.5472 3.125 1.6416 4.0266 1.0944.8921 2.3914 1.339 3.8912 1.339.1114 0 .2229-.0062.3343-.0156.1216 0 .2433-.0047.3649-.0156.3546-.0297.7042-.0766 1.0487-.136.3446-.0718.679-.1625 1.0032-.275Zm6.5038-10.4264c1.4794 0 2.7157.4656 3.7087 1.3984 1.0032.9219 1.5049 2.2703 1.5049 4.0437s-.5017 3.1203-1.5049 4.0422c-.993.9218-2.2293 1.3843-3.7087 1.3843-1.4795 0-2.7208-.4625-3.7239-1.3843-.9932-.9219-1.4897-2.2688-1.4897-4.0422s.4965-3.1218 1.4897-4.0437c1.0031-.9328 2.2444-1.3984 3.7239-1.3984Zm0 1.5203c-.152 0-.3192.0156-.5016.0453-.078.0094-.156.0219-.2341.0406-.0592.0141-.1183.0297-.1775.0484l-.1356.0485c-.4763.1812-.912.5515-1.3072 1.1093-.3851.5469-.5776 1.4235-.5776 2.6297 0 1.2047.1925 2.0875.5776 2.6437.1389.1922.2827.3625.4317.5094.2748.2719.5666.4672.8755.5859.1036.0407.2072.075.3108.1016.0788.0203.1576.0375.2364.05.1824.0203.3496.0297.5016.0297.0737 0 .151-.0016.232-.0063.0858-.0047.1757-.0125.2696-.0234.1823-.0297.3648-.0813.5472-.1516.1661-.064.3266-.15.4816-.2578.1069-.075.2111-.1594.3127-.2547.1735-.164.3395-.3578.4977-.5828.3952-.5562.5927-1.439.5927-2.6437 0-1.2062-.1975-2.0828-.5927-2.6297-.2314-.3343-.4791-.6015-.7433-.8015-.1756-.1328-.3585-.2359-.5487-.3078l-.116-.0422c-.1438-.0484-.2875-.0797-.4312-.0953-.1129-.0188-.2199-.0313-.3211-.0375-.0624-.0047-.1225-.0078-.1805-.0078Zm9.1256-1.3985h-2.1584v10.6406h7.9039v2.1874h1.9608v-4.0734h-1.2312V19.323h-2.1584v8.7546h-4.3167V19.323Zm9.0782 0h2.1584v5.4719l-.0456 2.5843h.0456l.7599-1.55 3.7238-6.5062h2.584v10.6406h-2.158v-5.4875l.046-2.5687h-.046l-.73 1.6109-3.7542 6.4453h-2.5839V19.323Zm12.8601 0h-2.417l3.907 7.6156-.304.7141c-.142.3234-.32.5265-.532.6078-.051.0156-.102.0312-.153.0437-.062.0156-.124.0281-.187.0375-.108.0172-.217.025-.329.025-.081 0-.163-.0047-.243-.0156l-.213-.0297c-.071-.0203-.147-.0453-.228-.0766-.071-.0297-.147-.0656-.228-.1062l-.243 1.6109.121.0609.07.0188.082.0281c.163.05.355.0953.578.136.232.05.486.0765.76.0765.229 0 .45-.0219.661-.0656.265-.0563.516-.1453.752-.2688.426-.2328.796-.6843 1.11-1.3531l4.256-9.0593h-2.128l-2.022 4.5141-.456 1.1406h-.045l-.456-1.125-2.113-4.5297Zm15.737 10.6406h-2.052l-2.584-7.6-.487-1.5203h-.045l.03 1.6407v7.4796h-2.158V19.323h3.648l2.128 6.1859.471 1.8859h.045l.472-1.8859 2.128-6.1859h3.648v10.6406h-2.159V22.484l.031-1.6407h-.046l-.486 1.5203-2.584 7.6Zm15.325-10.6406h6.81v1.8844h-4.652v2.2203h1.733c1.327 0 2.27.3187 2.827.9562.557.6282.872 1.3281.943 2.0985v.1968l.011.0844.004.0984-.004.1235c-.005.0734-.014.1484-.026.2265l-.016.1422-.03.2078c-.142.5969-.502 1.15-1.079 1.6563-.568.4968-1.444.7453-2.63.7453h-3.891V19.323Zm2.158 5.7766v3.1921h1.338c.101 0 .222-.0062.365-.0156.152-.0203.304-.0516.456-.0922.263-.0797.506-.2266.729-.4406.233-.2219.35-.5719.35-1.0485 0-.2093-.022-.3921-.067-.5499-.057-.2032-.152-.3641-.283-.4829-.05-.0515-.102-.0984-.155-.1421-.069-.0563-.14-.1063-.213-.15-.116-.0704-.236-.125-.361-.1641-.152-.0406-.304-.0656-.456-.0766-.143-.0203-.264-.0296-.365-.0296h-1.338Zm13.357-5.7766h-2.462l-4.241 10.6406h2.31l.897-2.3875h4.393l.897 2.3875h2.432l-4.226-10.6406Zm.258 6.4906h-3.07l1.475-4.3468h.03l1.565 4.3468Zm5.261-6.4906h2.159v4.2859h4.316V19.323h2.159v10.6406h-2.159v-4.6062h-4.316v4.6062h-2.159V19.323Zm10.761 0h2.158v4.5453h.046l3.845-4.5453h2.569l-4.438 4.8187L180 29.9636h-2.736l-3.952-5.2906h-.046v5.2906h-2.158V19.323Zm-33.777 5.3047h-6.126v1.7781h6.126v-1.7781Z"/>
</svg>