<svg xmlns="http://www.w3.org/2000/svg" viewBox="0 0 200 50">
	<path class="bg-logo" fill="#DB0334" d="M0 0h200v50H0z"/>
	<path fill="#fff" d="m49.0772 35.2273.2442.098-.3908 1.6171c-1.0746.539-2.2469.784-3.6635.784-.9769 0-1.905-.147-2.7354-.441-.8304-.294-1.6119-.735-2.1981-1.2741-.635-.539-1.1234-1.2251-1.4654-2.0091-.3419-.735-.5373-1.617-.5373-2.5481 0-1.176.1954-2.2051.5861-3.1361.3909-.882.8794-1.6661 1.5632-2.2541.6838-.588 1.4654-1.0291 2.3447-1.323.8792-.2941 1.856-.4411 2.8819-.4411.635 0 1.27.098 2.0027.245.6838.1471 1.27.392 1.8073.6861-.0315.1895-.0833.3791-.1423.5949l-.0001.0001c-.0325.1189-.0672.2457-.1018.385-.0745.2989-.1206.5408-.16.7476-.0122.0643-.0238.1253-.0354.1835h-.2443c-.3419-.5391-.7815-.9311-1.3677-1.2252-.5862-.2939-1.1234-.4899-1.7096-.4899-.7327 0-1.3677.147-1.9539.4899-.5373.3431-1.0257.7842-1.3677 1.3231-.3419.539-.635 1.1761-.7815 1.8132-.1954.6859-.2442 1.372-.2442 2.058 0 1.078.1465 2.0091.4884 2.7931.3419.8331.8305 1.4701 1.5143 1.9111.6838.441 1.4654.6861 2.3935.6861.5861 0 1.1723-.1471 1.7584-.392.5862-.1471 1.1235-.4901 1.5143-.8821Zm15.0936-6.5171c-.2442-.784-.586-1.4701-1.1234-2.1071-.5373-.637-1.2212-1.1761-2.1004-1.5681-.8792-.392-1.9539-.588-3.2239-.588-1.1235 0-2.1493.196-3.0773.539-.9281.245-1.6608.735-2.2958 1.3231-.635.6371-1.1235 1.323-1.4654 2.1561-.342.833-.4885 1.666-.4885 2.5971 0 1.372.2931 2.5971.8792 3.5772.5374.98 1.3677 1.764 2.3936 2.3031 1.0257.539 2.2469.784 3.6147.784 1.1234 0 2.1004-.1961 3.0284-.5391.9281-.3429 1.6607-.833 2.3446-1.47.635-.637 1.1235-1.3231 1.4654-2.1561.342-.784.4885-1.6661.4885-2.5972-.0488-.735-.1954-1.5189-.4397-2.254Zm-4.8357-2.7441c.4884.294.9281.686 1.2211 1.176.3419.49.5373 1.078.6839 1.6661.1465.588.2443 1.225.2443 1.8621 0 1.078-.1467 2.0581-.4397 2.9401-.2931.931-.7815 1.6661-1.3677 2.2051-.635.539-1.4166.833-2.2958.833-.8792 0-1.6119-.245-2.1981-.735s-1.0258-1.0781-1.27-1.862c-.2931-.7841-.3908-1.5681-.3908-2.4502 0-1.3721.1466-2.4991.4885-3.4302.3419-.931.7815-1.568 1.4165-2.058.635-.441 1.3677-.6861 2.1981-.6861.635.0981 1.2212.2451 1.7097.5391Zm10.6-1.2744s.1463 0 .3419.049c.1948.049.3418.049.4396.049h.1949c.0492 0 .147 0 .1955-.049.0978 0 .147 0 .1955-.049h.1955c.3905 1.1271.7815 2.1561 1.1234 2.9892.2277.5876.4773 1.2404.7629 1.9875.1431.3743.2952.7723.4582 1.1976.4888 1.274.8792 2.2541 1.1725 2.9401.1178.2959.2674.6632.4487 1.1084l.0009.0021c.2689.6604.6075 1.4921 1.0156 2.5157-.1288 0-.2441-.0137-.353-.0266-.0975-.0115-.1898-.0225-.2821-.0225-.0974 0-.1829-.0122-.2683-.0245-.0856-.0122-.1713-.0245-.2691-.0245h-.9278c-.1049 0-.2097.0141-.3069.0272-.0842.0113-.1626.0218-.2305.0218-.0923 0-.1844.0109-.2817.0225-.1089.0129-.2242.0266-.3535.0266-.1325-.4665-.288-.9556-.4507-1.4673-.0766-.2409-.1548-.4869-.233-.7378-.2441-.7841-.4882-1.4701-.7329-2.0091-.0845-.2551-.1967-.5471-.3246-.88l-.0001-.0002-.0002-.0003c-.1668-.4344-.3605-.9383-.5543-1.5206-.1231-.3245-.2414-.6295-.3533-.9181-.243-.6266-.456-1.1758-.6231-1.6791-1.5146 3.6752-2.638 6.7134-3.4195 9.2125-.2932-.0491-.5862-.0491-.8793-.0491-.2931 0-.5861 0-.8792.0491.5373-1.2251 1.0258-2.3521 1.4653-3.3812.1825-.4272.3566-.8543.5292-1.278l.0002-.0002.0001-.0003c.2432-.5968.4835-1.1866.7406-1.7596.1154-.2896.2352-.5834.3566-.8815l.0004-.0009.0001-.0004c.2895-.7105.5889-1.4453.8641-2.2043.4395-1.0291.8304-2.1071 1.2214-3.2342Zm8.5968 12.8381V24.7892c.1048 0 .2093.0141.3065.0271.0841.0114.1627.0219.2309.0219.0731 0 .1462.0123.2193.0245.0734.0123.1468.0246.2203.0246h.7816c.0679 0 .1359-.0106.2089-.0219.0841-.0131.1748-.0272.2793-.0272.1468-.049.3418-.049.5373-.049v8.7715l.1362-.149.0001-.0001c.5069-.554 1.0892-1.1904 1.6713-1.9091.2922-.3609.5844-.7115.872-1.0564.3371-.4043.6678-.801.9843-1.1976.2556-.3206.5111-.6505.7707-.9856.3357-.4333.6782-.8755 1.0364-1.3176.5003-.7113.9652-1.3154 1.3947-1.8733v-.0001l.0016-.002c.0729-.0948.1449-.1883.2158-.2807h1.4166v12.7896c-.1469 0-.3911 0-.6843-.049-.1611 0-.3077-.0148-.4395-.0282-.1075-.0109-.2052-.0208-.2928-.0208-.1469 0-.391 0-.6844.049-.1713 0-.3259.0168-.4542.0307-.0909.0099-.1685.0183-.2295.0183v-8.8204c-.5374.6371-1.0747 1.2741-1.6606 1.9111-.3567.4175-.7135.8532-1.1033 1.3291l-.0005.0007-.0003.0003c-.2505.3058-.5145.6282-.8008.973-.4994.601-.9534 1.1793-1.3774 1.7194l-.0008.001c-.198.2521-.3894.4959-.5758.7298-.1737.2325-.3432.4563-.5072.6729-.3889.5137-.7465.986-1.0557 1.4341-.0642 0-.1375-.0093-.2201-.0198-.1065-.0136-.2286-.0292-.3665-.0292-.3419.049-.6346.049-.8301.049Zm13.4814-.441c0 .392-.0486.7351-.0971.9801h.2926c.2441-.294.5866-.441 1.1233-.539.5375-.0981 1.2217-.147 2.0518-.147h5.4711c.733 0 1.368.0489 1.904.147.538.049.929.245 1.124.539h.293c-.097-.343-.097-.686-.097-.98v-.0001c0-.0175.006-.0728.016-.1634v-.0002c.019-.1626.05-.4391.081-.8164h-.879c-1.709-4.2142-3.175-8.0364-4.3961-11.3685-.0978 0-.2442 0-.3905.049h-.7821c-.0805 0-.161-.0148-.2335-.0282-.0592-.0109-.1129-.0208-.1569-.0208-.1057.2826-.2113.5778-.3214.8858l-.0003.0006c-.1955.5465-.4053 1.1331-.6553 1.7598l-.022.0551c-.3837.9616-.7678 1.9242-1.1991 2.9339-.1052.2579-.2047.5046-.3001.7408l-.0001.0002c-.3031.7508-.5631 1.395-.8231 1.9542-.2326.5826-.557 1.3501-.9492 2.2778l-.0048.0115c-.1011.2391-.2067.4889-.3163.7488h-.7815c0 .2101.014.392.0269.5609v.0001c.0112.1462.0217.2826.0217.419Zm3.5169-.98c-.5858-.0491-.9763-.0491-1.2695-.0491h-.0001c.5859-1.764 1.6121-4.4101 2.9795-7.8402.416 1.1554.8109 2.1847 1.1574 3.0878l.0001.0003.0006.0014c.1823.4752.3511.9154.5027 1.3207.4396 1.176.8306 2.3521 1.1721 3.43-.293 0-.7812 0-1.3677.0491h-1.6607c-.4396.049-.9278.049-1.5144 0ZM113.75 37.481c.147 0 .439 0 .782-.049.194 0 .357-.0159.498-.0295v-.0001c.106-.0103.199-.0194.283-.0194.196 0 .44 0 .782.049.195 0 .374.0159.528.0296.116.0103.218.0194.302.0194l-5.177-12.8876c-.245.049-.44.049-.685.049-.244 0-.439 0-.683-.049l-5.276 12.8876h1.759v-.0003c.098-.3429.195-.6859.342-1.1267.072-.1941.145-.4122.223-.6483.08-.2409.166-.5006.266-.7728.195-.539.341-.98.439-1.3231h4.347c.293.7841.733 2.0581 1.27 3.8712Zm-3.37-9.3594 1.661 4.3612h-3.371l1.71-4.3612Zm13.58 3.4789c.83-.245 1.464-.637 1.953-1.2251.488-.5879.732-1.421.732-2.45 0-1.0291-.341-1.8621-1.025-2.352-.684-.5391-1.66-.7842-2.931-.7842h-4.543v12.7406c.146 0 .391 0 .684-.049.172 0 .327-.0168.456-.0308.09-.0098.167-.0182.228-.0182.146 0 .391 0 .684.049.171 0 .327.0169.455.0308.091.0098.168.0182.228.0182v-5.5372c1.173-.049 2.199-.1961 3.079-.3921Zm-1.955-5.8312c.489 0 .929.245 1.222.6861.341.4409.488 1.029.488 1.764 0 .637-.147 1.176-.391 1.6171-.293.441-.684.735-1.27.9311-.244.0489-.684.0979-1.221.1469v-5.1452h1.172Zm6.399 11.7115V24.7403c.105 0 .209.0141.307.0271.084.0114.162.0219.231.0219.073 0 .146.0123.219.0245.073.0123.147.0245.22.0245h.782c.073 0 .146-.0122.219-.0245.074-.0122.147-.0245.22-.0245.147-.049.342-.049.537-.049v5.0472c.763.0239 1.374.0478 1.84.066.49.0192.818.032.993.032.14 0 .422-.011.853-.0279.477-.0186 1.134-.0444 1.981-.0701v-5.0472c.105 0 .209.0141.306.0271.084.0114.163.0219.231.0219.073 0 .147.0123.22.0245.073.0123.146.0245.219.0245h.782c.074 0 .147-.0123.221-.0245.073-.0123.146-.0245.219-.0245.068 0 .146-.0105.231-.0219.097-.013.202-.0271.306-.0271v12.7405c-.147 0-.391 0-.683-.049-.172 0-.327-.0168-.456-.0307-.091-.0098-.168-.0182-.229-.0182-.147 0-.391 0-.683.0489-.172 0-.328.0169-.456.0308-.09.0099-.167.0182-.228.0182v-6.2232c-1.27-.049-2.248-.049-2.834-.049-.635 0-1.612 0-2.833.049v6.2232c-.146 0-.39 0-.684-.049-.171 0-.326-.0167-.454-.0307-.091-.0098-.168-.0182-.229-.0182-.146 0-.391 0-.684.0489-.293.049-.537.049-.684.049Zm27.305-8.7706c-.244-.784-.635-1.4701-1.172-2.1071-.537-.637-1.222-1.1761-2.101-1.5681-.879-.392-1.954-.588-3.223-.588-1.124 0-2.149.196-3.029.539-.928.343-1.709.833-2.296 1.4211-.635.6371-1.123 1.323-1.416 2.156-.343.8331-.488 1.6661-.488 2.5972 0 1.3721.293 2.597.879 3.5771.586.9801 1.367 1.7642 2.393 2.3031 1.026.5391 2.247.7841 3.615.7841 1.123 0 2.1-.196 3.028-.5391.928-.3429 1.71-.833 2.345-1.47.635-.6371 1.124-1.3231 1.465-2.1561.342-.7841.488-1.6661.488-2.5971-.029-.1693-.057-.3367-.084-.502l-.001-.003c-.107-.6468-.209-1.2624-.403-1.8471Zm-4.835-2.7441c.488.294.928.686 1.221 1.176.341.49.537 1.078.684 1.6661.146.588.244 1.225.244 1.8621 0 1.078-.147 2.0581-.44 2.9401-.292.931-.781 1.6661-1.416 2.2051-.635.539-1.368.833-2.296.833-.879 0-1.612-.245-2.198-.735-.586-.49-1.026-1.0781-1.27-1.862-.294-.7841-.392-1.5681-.392-2.4502 0-1.3721.148-2.4991.489-3.4302.342-.931.782-1.568 1.417-2.058.635-.441 1.368-.6861 2.198-.6861.635.0981 1.221.2451 1.759.5391Zm17.291 9.1139.245.098-.391 1.6171c-1.026.539-2.247.784-3.664.784-1.807 0-3.614-.49-4.982-1.7151-.634-.5389-1.123-1.225-1.466-2.009-.341-.7841-.537-1.6172-.537-2.5482 0-1.176.196-2.205.586-3.1361.391-.882.929-1.6661 1.563-2.2052.685-.5879 1.466-1.0289 2.345-1.323.879-.294 1.857-.441 2.882-.441.635 0 1.27.098 2.002.245.685.147 1.271.3921 1.809.686-.02.1203-.048.2405-.078.3674-.043.1835-.089.381-.119.6127-.072.2911-.117.5282-.156.7313v.001c-.014.07-.026.136-.039.1987h-.244c-.342-.539-.83-.931-1.367-1.225-.587-.294-1.124-.441-1.71-.441-.733 0-1.417.147-1.955.49-.536.343-.976.784-1.367 1.323-.342.5391-.635 1.1761-.781 1.8131-.147.6861-.244 1.3721-.244 2.0582 0 1.0289.146 2.009.537 2.7931.342.833.83 1.47 1.514 1.9111.684.441 1.465.686 2.394.686.536 0 1.123-.147 1.758-.3921.537-.2449 1.025-.588 1.465-.98Zm8.207-8.9677v11.4665c-.147 0-.391 0-.684-.049h-1.369c-.206 0-.359.0179-.48.032-.079.0093-.145.017-.203.017V26.1123c-1.026 0-2.198.098-3.468.245.024-.2155.048-.3842.066-.5118V25.8447c.019-.1331.031-.2214.031-.2713 0-.0502-.012-.1388-.031-.2723-.018-.1277-.042-.2964-.066-.5119h9.525c0 .0491-.012.0981-.024.1471s-.025.098-.025.147c0 .049-.012.0857-.024.1224-.013.0368-.025.0735-.025.1225v.4901c0 .0574.017.1148.031.1623.01.0337.018.0624.018.0827 0 .049.013.098.025.147v.0001c.012.049.024.098.024.1469-1.465-.1961-2.589-.245-3.321-.245Zm7.229-1.3716c-.161 0-.308.0148-.439.0282-.108.0109-.206.0208-.294.0208-.196 0-.44 0-.733-.049-.171 0-.309-.0168-.423-.0307-.081-.0099-.151-.0183-.212-.0183v12.7406h3.713c1.416 0 2.539-.294 3.468-.8821.879-.588 1.319-1.6661 1.319-3.1851 0-1.029-.342-1.8131-1.026-2.3521-.684-.539-1.661-.7841-2.98-.7841h-1.807v-5.5372c-.098.049-.294.049-.586.049Zm1.807 6.5663c.489 0 .879.245 1.221.686.341.49.489 1.029.489 1.8131 0 .637-.148 1.1761-.44 1.617-.244.4411-.684.7841-1.27.9311-.294.098-.733.147-1.221.147V31.307h1.221ZM23.7259 21.5065c.2084 0 .4167-.0714.6554-.1532l.0002-.0001c.041-.014.0829-.0284.1259-.0428l8.6459-3.2831c-1.1723-1.8621-4.3962-5.6843-9.3297-5.9783C23.4328 12 23.042 12 22.7002 12c-4.7871 0-8.4505 2.1561-10.7952 5.9783C10.3419 20.4774 10 23.0255 10 24.9366c0 1.274.1465 2.2541.2442 2.7441.1466 1.127.7327 2.2541 1.0258 2.4501.1954.147.5373.245.8304.245.1954 0 .4396-.049.635-.098l8.5482-3.2341-.0682-.1226c-.2699-.4841-.7958-1.4274-1.6903-3.3566-1.5143-3.3321-2.1004-5.3412-2.247-6.8113.0489-.196.0489-.294.0489-.392 0-.441.2442-.882.6838-.882.5862.049 1.0747.539 1.6608 1.127.766.7684 1.7801 2.3334 2.494 3.4352.2878.4441.5267.8129.6811 1.024.293.343.5373.4411.8792.4411ZM156.54 17.9783h1.661c.732 0 1.123-.4411 1.123-1.0291 0-.637-.489-.931-1.123-.931h-1.661v1.9601ZM160.301 12v1.225h-3.761v1.4701h1.856c1.368 0 2.443.8331 2.443 2.2541 0 1.4211-1.027 2.2051-2.492 2.2051h-3.321V12h5.275Zm5.862 4.4592h1.905l-.977-2.8421-.928 2.8421ZM167.97 12l2.491 7.2033h-1.613l-.439-1.47h-2.638l-.488 1.47h-1.562L166.212 12h1.758Zm6.937 2.7441h2.783V12h1.515v7.2033h-1.515v-3.2341h-2.783v3.2341h-1.467V12h1.467v2.7441Zm8.986.196L186.629 12h1.905l-2.882 2.9401 3.077 4.2632h-1.954l-2.197-3.1851-.685.735v2.4501h-1.514V12h1.514v2.9401ZM21.1857 28.7589c.2442-.147.5373-.196.7816-.196.3418 0 .635.098.9281.392.1542.211.393.5794.6804 1.0231.714 1.1019 1.7284 2.6675 2.4945 3.4361.5862.5881 1.0747 1.078 1.6609 1.1271.3907 0 .635-.441.635-.8821v-.343c-.1466-1.519-.7327-3.4791-2.247-6.8113-.8942-1.9287-1.4201-2.872-1.6901-3.3562-.0249-.0448-.0477-.0856-.0684-.123l8.5482-3.2341c.1954-.049.4396-.098.635-.098.3419 0 .6839.098.8792.2451.3419.1959.9281 1.323 1.0746 2.45.0978.49.2443 1.4211.2443 2.6952 0 1.9601-.3908 4.5081-1.9051 7.0073-2.3446 3.8221-6.0569 5.9782-10.7951 5.9782-.3907 0-.7327 0-1.1234-.0491-4.9335-.3429-8.1574-4.116-9.3297-5.9781l8.597-3.2832Z"/>
</svg>