<svg xmlns="http://www.w3.org/2000/svg" viewBox="0 0 200 50">
	<path class="bg-logo" fill="#7F003F" d="M0 0h200v50H0z"/>
	<path fill="#fff" d="m15 24.8946 2.8331.85c.0398.5172.1469.9837.3063 1.4145.117.3154.2623.6117.4308.894.1477.2473.3121.4839.4905.7138.6616.85 1.6062 1.5108 2.55 2.0777 1.2286.5661 2.55.9447 3.8724 1.1331.5129.1145 1.0259.1594 1.5389.1776.337.0116.674.0116 1.0111.0116.2838 0 .6615 0 1.0392-.0946.3777-.0946.7554-.0946.9446-.0946.3312 0 .6384.0241.9223.0598.283.0348.542.0821.7777.1294v-.3776c-1.9838-1.0393-4.0615-2.0786-6.2338-3.0224-2.4554-1.1338-5.0054-2.0776-7.65-3.0223v-1.0392c.8998.2888 1.7996.6001 2.6919.9297 1.7299.6383 3.4324 1.3447 5.0527 2.0926 2.1723.9446 4.25 1.983 6.233 3.0223v-1.0393c-1.983-1.0384-4.0607-2.0776-6.233-3.0214-1.2883-.5454-2.6031-1.0908-3.9437-1.6087-1.2144-.469-2.4496-.9156-3.7063-1.3199 0 .1893-.0946.4724-.0946.7562v.1885L15 23.8554v1.0392Zm0-3.1169v1.0392l2.8331.85h.0946c.0946-.2838.1892-.6615.283-.9446-.0323 0-.0763 0-.1245-.0041-.0896-.0075-.1917-.0291-.2531-.0905L15 21.7777ZM15 19.7v1.0393l2.8331.85c.2838.1884.5669.283.85.3776-.0938.1412-.1644.2823-.235.4242-.0713.142-.1427.2839-.2374.4258 2.55.85 5.0062 1.7938 7.2724 2.8331 2.1723.9446 4.25 1.9831 6.2338 3.0223v-1.0392c-1.9838-1.0385-4.0615-2.0777-6.2338-3.0224-2.1724-.9438-4.4385-1.8884-6.8-2.6438l.5669-.85c2.1723.7554 4.25 1.6054 6.2331 2.4554 1.7431.7579 3.3651 1.5763 5.012 2.4072.405.2051.8118.4101 1.2218.6151v-1.0392l-.9139-.484c-.6732-.3577-1.3281-.7064-2.0204-1.0567-.7744-.3918-1.5962-.786-2.5433-1.1978.3776-.1892 1.4161-.3776 2.1714-.3776.7529.0938 1.3174.1884 1.8818.283H30.3c.3777.0946.9446.2831 1.4169.6608V18c-.6615.2831-1.4169.2831-1.8892.2831-.4723 0-1.0384-.1885-2.8331-.2831-.4723 0-1.0392 0-1.5115.0946-1.4162.0947-2.8331.5661-3.7777 1.1331-.9447.4723-1.7947 1.133-2.4554 1.8892-.4723-.1892-.9446-.3776-1.4169-.4723-.9438-.3777-1.8885-.6615-2.8331-.9446Zm1.9831 11.8062h-.1885v-.3785h.1885c.0448 0 .0896 0 .1245.0199.0382.0224.0647.0697.0647.1693.0623.0623.0423.1246-.0315.1602-.039.0183-.093.0291-.1577.0291Zm.2838 0c.0905-.0457.1378-.0913.1619-.137.0266-.0489.0266-.0979.0266-.1469 0-.0921-.02-.1544-.0532-.1967-.0697-.0863-.1967-.0863-.3245-.0863h-.4723v1.133h.1892V31.6h.1885c.1892 0 .1892.0946.1892.1893v.283h.1884v-.283c.0424-.0424.0465-.0847.0308-.1262-.02-.0523-.0723-.1046-.1246-.1569Zm-.2838.9438c-.4724 0-.9438-.3777-.9438-.9438 0-.5669.3776-.9446.9438-.9446.4723 0 .9446.3777.9446.9446 0 .5661-.4723.9438-.9446.9438Zm0-1.9831c-.6608 0-1.1331.4724-1.1331 1.0393 0 .5661.4723 1.1331 1.1331 1.1331.6615 0 1.1338-.4724 1.1338-1.1331 0-.5669-.4723-1.0393-1.1338-1.0393Zm81.5053-2.6446v-5.1946c0-.2831.1893-.7554.4723-.9446h-5.1c.3777.1892.4724.6615.4724.9446v.0946c-1.5863.5595-3.1726 1.2111-4.7597 1.8635l-.0573.0249v-2.0776c0-.1885.1893-.6608.4723-.85h-5.1c.2839.1892.4723.6615.4723.9446v5.1946c0 .2831-.1884.7554-.4723.9438h5.1c-.283-.1884-.4723-.6607-.4723-.9438v-.5669c1.6062-.6608 3.2116-1.2277 4.817-1.8893v2.4562c0 .2831-.1885.7554-.4724.9438h5.1c-.283-.1884-.4723-.6607-.4723-.9438Zm-17.3428-2.4388c.728.9845 1.446 1.9408 1.7598 2.3442.1544.2307.3079.3993.4623.5047.0349.024.0698.0448.1046.0622.1884.0938.2831.2831.5661.3777h-5.7607v-.0946c.0946 0 .1884-.0946.1884-.2831v-.1892c-.0465-.0473-.0697-.0947-.093-.1411-.024-.0474-.0481-.0947-.0954-.142 0-.0946-.0946-.1892-.0946-.1892L76.2 24.8h-.0946l-1.9831 2.8331c-.1892.3776-.2839.5669-.2839.6615 0 .1885 0 .2831.0947.3777h-4.6277c.3777-.1892.6607-.3777.7553-.5669.3777-.5197 1.3697-1.8652 2.3608-3.2108.9919-1.3464 1.9839-2.6919 2.3616-3.2115h4.533c-.127.0423-.1967.1419-.2357.2465-.0473.1295-.0473.2681-.0473.3204 0 .0382.0157.0921.0406.1552.0357.093.0922.2051.1486.3171.2972.4466 1.1165 1.5714 1.9233 2.6612Zm34.5324 4.3272v-2.9276h-1.7c-.189-.3296-.73-1.1298-1.272-1.9316-.545-.8044-1.089-1.6096-1.278-1.9408-.095-.0946-.19-.283-.19-.3776 0-.0947-.093-.6608.19-.7554H105.1c-.567.85-2.55 4.1554-3.022 5.0054h-1.7v2.9276c.134-.034.329-.1394.554-.2614.406-.2208.909-.4939 1.334-.4939h11.617c.508 0 1.072.3345 1.478.5752.122.0722.23.1361.317.1801Zm-6.941-4.4351c.307.4948.613.9895.896 1.5075h-4.722c.243-.5346.511-1.0443.778-1.5548.253-.4814.504-.9629.733-1.4676h1.416c.284.5205.592 1.0177.899 1.5149Zm-39.7147 1.4128c.3777-.4723.5661-1.0384.5661-1.5107 0-.4723-.1884-1.0393-.5661-1.5116-.3777-.4715-.85-.85-1.5116-1.2277-.6607-.3777-1.4161-.6607-2.2661-.85-.9446-.1884-1.8892-.283-2.8339-.283-.9446 0-1.8884.0946-2.7384.283-.85.1893-1.6062.4723-2.2669.85-.6608.3777-1.1331.7562-1.5108 1.2277-.3785.4723-.5669.9446-.5669 1.5116 0 .4374.1245.8749.4001 1.2849.1403.2092.3204.4118.5445.6035.6608.567 1.5108 1.0393 2.55 1.417 1.1331.3776 2.2661.5669 3.5884.5669 1.0393 0 1.9839-.0946 2.8339-.2839.4101-.0905.7977-.2034 1.1638-.3387.3926-.1444.7604-.3154 1.1023-.5113.6616-.3777 1.1339-.7554 1.5116-1.2277ZM65.15 24.2331c.1884.283.3777.5669.3777.9446 0 .3777-.1893.6607-.3777.9446-.2839.2831-.6616.4723-1.1339.6608-.4715.1892-.9438.283-1.5107.283-.567 0-1.0393-.0938-1.5108-.283-.4723-.1885-.85-.3777-1.1339-.6608-.1386-.1394-.2324-.2781-.2913-.4283-.0614-.1561-.0863-.3237-.0863-.5163 0-.3777.0946-.6616.3776-.9446.2839-.2831.6616-.4724 1.1339-.6608.1843-.0373.3694-.0747.5595-.1062.2963-.0482.606-.083.9513-.083.3602 0 .6823 0 .9903.0481.1768.0282.3486.0722.5204.1411.4723.1884.85.3777 1.1339.6608Zm-14.2616-2.9277h.85c.3777.0946.6616.0946.7562.0946.5661 0 .9438-.0946 1.3215-.0946v3.0223c-.3777-.1893-.85-.3777-1.3215-.4723-.5669-.1893-1.0392-.1893-1.6062-.1893-.5661 0-1.133.0946-1.5107.2839-.098.039-.1918.0739-.2814.1071-.3437.1286-.6275.2349-.8517.459-.2839.1893-.4723.4723-.4723.7562 0 .1727.0349.3105.1262.4557.0589.093.1411.1893.2515.2997.2831.283.6607.3777 1.1331.5669.1527.0307.3154.0615.488.0888.3611.0565.7654.0997 1.212.0997.5669 0 1.133-.0947 1.6053-.1885.567-.0946.9447-.2839 1.3223-.4723v3.0223c-.156-.039-.3287-.0622-.5105-.0755-.2573-.0191-.5345-.0191-.8118-.0191h-1.6053c-1.5108 0-2.8331-.1893-4.0608-.5669-1.2277-.3777-2.1723-.85-2.9277-1.417-.6615-.5661-1.0392-1.2277-1.0392-1.8884 0-.567.1892-1.0393.5669-1.5116.2316-.2889.5338-.5429.9073-.7828.2357-.1519.4997-.2988.7927-.4449.7554-.3777 1.6054-.6607 2.55-.85.9438-.1884 1.9831-.283 3.1161-.283Zm74.7066 7.4607h9.727c.756 0 4.25-.0938 4.25-2.0777 0-1.3223-1.606-2.2661-4.061-2.2661h-5.006V23.1c.661-.1893 4.44-.1893 5.1-.1893.661 0 1.511 0 2.456.4724-.053-.1594-.114-.3105-.178-.4566-.163-.3752-.348-.7147-.483-1.0542h-11.805c.66.1884.755.6608.755 1.0384v4.817c0 .3777-.095.7554-.755 1.0384Zm7.933-3.7777c1.038 0 1.983.2839 1.983 1.5116 0 .7554-.473 1.5107-2.078 1.6054-.283 0-2.738-.0947-2.928-.0947v-2.9276c.182-.0606 1.259-.0822 2.081-.0905.46-.0042.84-.0042.942-.0042Zm20.777 3.7777c-.283-.0938-.472-.283-.567-.3777-.083-.0415-.149-.1029-.213-.1909-.079-.1096-.154-.2606-.259-.4698-.367-.4192-1.316-1.6527-2.184-2.8131-.696-.9306-1.341-1.8138-1.594-2.1923-.093-.1892-.188-.3777-.188-.4723 0-.0946 0-.4723.283-.5669h-4.533c-.755 1.133-3.967 5.4776-4.722 6.5169-.095.1884-.378.3777-.756.5661h4.723c-.048-.0473-.072-.0946-.083-.1544-.012-.0589-.012-.1295-.012-.2233 0-.0456.022-.1369.067-.2507.048-.1195.12-.2648.216-.41.095-.1893.189-.2831.283-.4723h3.4c.047.0946.095.1652.142.2357.047.0714.095.142.142.2366 0 0 0 .0946.095.1884.093.0946.188.1893.188.2839v.1884c0 .0947 0 .2839-.188.2839v.0938h5.76Zm-7.131-2.7459c.109.1544.22.313.331.4798h-2.172c.283-.5669.662-1.0393 1.039-1.6054h.094c.201.4001.448.7529.708 1.1256Zm21.298-3.3925v5.1946c0 .1486.053.3495.143.5479.081.1793.195.3561.33.4905h-5.1c.377-.1884.471-.6607.471-.9446v-1.7938H159.5v1.7938c0 .2839.188.7562.472.9446h-5.1c.174-.1153.312-.3378.394-.5586.05-.1386.079-.2764.079-.386v-5.1938c0-.2839-.19-.7562-.473-.9446h5.1c-.284.1884-.472.6607-.472.9446v1.7938h4.816v-1.7938c0-.2839-.188-.7562-.471-.9446h5.1c-.284.0946-.473.5669-.473.85Zm15.31 5.5748c.121.0764.234.1419.368.1859.188.0947.472.1893.85.2839H178.578c.188-.0946.188-.1892.094-.2839l-.094-.0938c-.048-.0473-.095-.0705-.141-.0938-.048-.024-.095-.0481-.142-.0954-.095-.0947-.19-.1893-.284-.1893-.523-.3328-1.022-.6416-1.522-.9513-.492-.3046-.985-.6092-1.501-.9371v1.8884c0 .2839.19.7562.473.9446h-5.1c.377-.1884.472-.6607.472-.9446v-5.1938c0-.1378-.1-.425-.263-.6441-.061-.0822-.132-.1544-.209-.2059h5.1c-.283.0938-.473.5661-.473.85v1.8884c1.512-1.0384 3.023-1.983 4.534-2.9276h3.4c-1.7.4723-2.172.7553-3.022 1.3223-.464.278-1.385.9222-2.314 1.5721l-.048.0332c.85.4724 4.628 2.6447 5.762 3.3054.2.1005.347.2009.482.2864Z"/>
</svg>