<svg xmlns="http://www.w3.org/2000/svg" viewBox="0 0 200 50">
	<path class="bg-logo" fill="#003791" d="M0 0h200v50H0z"/>
	<path fill="#FF4B5F" d="M25.4771 31.7433c-3.5912 0-6.5169-2.8815-6.5169-6.4192s2.9248-6.4201 6.5152-6.4201h.408V15h-.4071C19.7022 15 15 19.6333 15 25.3232c0 5.7273 4.7022 10.3607 10.4771 10.3607h.4072V31.745h-.4072v-.0017Z"/>
	<path fill="#fff" d="M27.587 20.585v-5.3623c4.8134.9479 8.4039 5.1066 8.4039 10.1037 0 5.0352-3.5922 9.1923-8.4039 10.1053v-5.3623h-2.1107c-2.6648 0-4.8117-2.1167-4.8117-4.7414 0-2.6263 2.1469-4.743 4.8127-4.743h2.1097Zm20.2138 9.4097c1.0914.0033 2.1495-.3702 2.9979-1.0575l1.6659 1.6436c-1.2214 1.0923-2.85 1.7498-4.6638 1.7498-3.9246 0-7.0712-3.1743-7.0712-7.0042 0-3.83 3.1466-6.9677 7.0712-6.9677 1.7629-.005 3.4646.6458 4.7753 1.8245l-1.666 1.6402c-.8593-.7553-1.9652-1.1704-3.1093-1.1654-2.6299 0-4.7389 2.0785-4.7389 4.6684 0 2.5898 2.1099 4.6683 4.7389 4.6683Zm73.1172-4.8875 5.22-6.2007h2.073v12.8397h-2.073v-9.2653l-5.22 6.0545-5.294-6.2006v9.4131h-2.111V18.9065h2.111v.0731l.037-.0731 5.257 6.2007ZM61.2018 32.294c3.8871 0 7.0713-3.1011 7.0713-6.9676 0-3.83-3.1842-6.9677-7.0713-6.9677-3.887 0-7.0702 3.1377-7.0702 6.9677 0 3.8299 3.1467 6.9676 7.0702 6.9676Zm-.0365-11.636c2.6291 0 4.7387 2.0785 4.7387 4.6684 0 2.5898-2.1096 4.6683-4.7387 4.6683-2.6291 0-4.7387-2.0785-4.7387-4.6683 0-2.5899 2.1096-4.6684 4.7387-4.6684Zm43.1297 11.636c3.887 0 7.071-3.1011 7.071-6.9676 0-3.83-3.147-6.9677-7.071-6.9677-3.887 0-7.0709 3.1377-7.0709 6.9677 0 3.8299 3.1469 6.9676 7.0709 6.9676Zm0-11.636c2.629 0 4.739 2.0785 4.739 4.6684 0 2.5898-2.148 4.6683-4.739 4.6683-2.629 0-4.7386-2.0785-4.7386-4.6683 0-2.5899 2.1096-4.6684 4.7386-4.6684Zm-9.9594-1.7515h2.8518l-6.4421 6.4564 6.3674 6.385h-2.8136l-5.3685-5.364h-2.1464v5.364h-2.0731V18.9065h2.0731v5.3989h2.1846l5.3668-5.3989Zm87.8524 0H185l-6.405 6.4564 6.331 6.385h-2.813l-5.331-5.364h-2.184v5.364h-2.073V18.9065h2.073v5.3989h2.184l5.406-5.3989Zm-25.545 12.8397h-2.296l-1.258-2.7708h-6.738l-1.258 2.7725h-2.295l5.737-12.8414h2.369l5.739 12.8397Zm-6.923-10.2133-2.443 5.3988h4.887l-2.444-5.3988Zm-68.8594 3.7935c.7549.6939 1.1849 1.6734 1.1849 2.6994 0 2.042-1.666 3.7221-3.7399 3.7586h-7.6253V18.9065h7.6253c2.0594-.0033 3.7331 1.6619 3.7399 3.7205 0 1.0575-.4819 2.0071-1.1849 2.6994Zm-2.5915-4.3397h-5.4792v3.2805h5.4792c.9255 0 1.6651-.7288 1.6651-1.6402 0-.9131-.7396-1.6403-1.6651-1.6403Zm-5.4792 8.7175h5.4792c.9263 0 1.6659-.767 1.7025-1.6768 0-.4333-.1814-.84-.4769-1.1405-.3016-.3055-.7218-.5014-1.1891-.5014h-5.5157v3.3187Zm95.0331-5.3988v-5.3623h2.111v12.7666h-2.111v-5.3275h-7.588v5.3275h-2.11V18.9431h2.11v5.3623h7.588Zm-29.543 0c2.073 0 3.776 1.6767 3.776 3.7204 0 2.042-1.702 3.7221-3.777 3.7569h-7.589V18.9065h10.108v2.0786h-7.997v3.3203h5.479Zm-5.478 5.3988h5.479c.925 0 1.666-.767 1.666-1.6768 0-.8765-.741-1.6419-1.666-1.6419h-5.479v3.3187Z"/>
</svg>