<svg xmlns="http://www.w3.org/2000/svg" viewBox="0 0 200 50">
	<path class="bg-logo" fill="#254194" d="M0 0h200v50H0z"/>
	<path fill="#F36F21" d="M58.0903 15.0186c0 5.5059 4.4228 9.9287 9.9288 9.9287 5.5059 0 9.9287-4.4228 9.9287-9.9287 0-5.41569-4.4228-9.92876-9.9287-9.92876-5.506 0-9.9288 4.42281-9.9288 9.92876Zm0 15.1639c0 1.4442 4.4228 2.6176 9.9288 2.6176 5.5059 0 9.9287-1.1734 9.9287-2.6176s-4.4228-2.6176-9.9287-2.6176c-5.506-.0903-9.9288 1.0831-9.9288 2.6176Zm9.9288 5.2351c7.1306 0 9.9287.7221 9.9287 1.6247 0 .9929-2.7981 1.6247-9.9287 1.6247-7.1307 0-9.9288-.722-9.9288-1.6247 0-.9026 2.7981-1.6247 9.9288-1.6247Zm0 5.9573c8.7553 0 9.9287.1805 9.9287.6318 0 .4513-1.0831.6318-9.9287.6318-8.7554 0-9.9288-.1805-9.9288-.6318 0-.4513 1.0832-.6318 9.9288-.6318Z"/>
	<path fill="#EB690A" d="M68.019 42.8195c-9.658 0-10.019-.2708-10.019-.8124 0-.6318.8124-.8123 10.019-.8123 9.2067 0 10.019.1805 10.019.8123 0 .5416-.4513.8124-10.019.8124Zm0-1.3539c-7.3112 0-9.7482.0902-9.7482.5415s2.437.5416 9.7482.5416c7.3112 0 9.7482-.0903 9.7482-.5416s-2.5273-.5415-9.7482-.5415Zm0-2.6176c-6.6793 0-10.019-.6318-10.019-1.8052s3.3397-1.8053 10.019-1.8053 10.019.6319 10.019 1.8053-3.4299 1.8052-10.019 1.8052Zm0-3.3397c-8.8456 0-9.7482 1.0832-9.7482 1.5345 0 .4513.9929 1.5344 9.7482 1.5344s9.7482-1.0831 9.7482-1.5344c0-.4513-.9929-1.5345-9.7482-1.5345Zm0-2.6176c-5.5962 0-10.019-1.1734-10.019-2.7981 0-1.6247 4.4228-2.7981 10.019-2.7981 5.5962 0 10.019 1.1734 10.019 2.7981 0 1.6247-4.4228 2.7981-10.019 2.7981Zm0-5.2351c-5.867 0-9.7482 1.2636-9.7482 2.5273 0 1.2637 3.8812 2.5273 9.7482 2.5273 5.867 0 9.7482-1.2636 9.7482-2.5273 0-1.2637-3.9715-2.5273-9.7482-2.5273Zm0-2.6176C62.5131 25.038 58 20.5249 58 15.019 58 9.51306 62.4228 5 68.019 5c5.5962 0 10.019 4.51306 10.019 10.019 0 5.5059-4.5131 10.019-10.019 10.019Zm0-19.76722c-5.4157 0-9.8385 4.33255-9.8385 9.74822 0 5.4157 4.4228 9.7482 9.8385 9.7482s9.7482-4.4228 9.7482-9.7482c0-5.32541-4.4228-9.74822-9.7482-9.74822Z"/>
	<path fill="#fff" d="M89.6818 29.64c.8124 0 1.8053.2708 2.5274.6318l.361 2.1663h1.1734v-3.1592c-.8124-.2707-2.1663-.7221-3.8812-.7221-2.5274 0-4.1521.8124-5.1449 1.715-1.1734 1.0831-2.2566 2.7981-2.2566 5.4157 0 2.7981 1.2637 4.4228 1.8955 5.1449 1.6247 1.7149 3.6105 2.1663 5.2352 2.1663 1.3539 0 2.7981-.2708 4.0617-.7221v-3.2494h-1.1734l-.5415 2.6175c-.6319.1806-1.4442.2708-2.076.2708-2.1663 0-3.3397-.9929-4.0618-1.8052-.7221-.9026-1.2637-2.3468-1.2637-4.3325 0-1.6248.4514-3.3397 1.4442-4.5131.8124-.8124 1.9858-1.6247 3.7007-1.6247Zm17.2402.4513c1.354 1.2636 2.256 3.2494 2.256 5.5962 0 2.1663-.722 4.0618-1.895 5.2351-.903.9929-2.437 2.0761-4.784 2.0761-2.166 0-3.7008-.9027-4.7839-1.9858-.8124-.8123-1.8955-2.5273-1.8955-5.3254 0-2.8884 1.1734-4.6033 2.3468-5.5962.8124-.7221 2.2566-1.6247 4.4226-1.6247 1.896 0 3.25.7221 4.333 1.6247Zm-7.3114.7221c-.9929 1.0831-1.6247 2.8883-1.6247 4.8741 0 .8123.0902 2.7981 1.1734 4.4228.9927 1.4442 2.3467 1.8052 3.3397 1.8052.722 0 2.166-.1805 3.249-1.7149 1.174-1.5345 1.264-3.6105 1.264-4.4228 0-2.1663-.542-3.8813-1.534-4.9644-1.084-1.1734-2.437-1.2637-2.979-1.2637-1.444 0-2.347.6319-2.8884 1.2637Zm28.0714-.7221c-.813-.7221-2.166-1.6247-4.242-1.6247-1.806 0-3.25.6318-4.333 1.6247-1.715 1.5344-2.076 3.791-2.166 5.0546h-2.889v-5.4157l1.625-.0902v-.8124h-5.055v.8124l1.535.0902v11.9145l-1.535.0903v.8123h5.055v-.8123l-1.625-.0903v-5.5962h2.889c.09 2.076.902 3.8813 1.805 4.8741.812.9027 2.347 1.9858 4.603 1.9858 2.347 0 3.882-1.0831 4.694-2.076 1.083-1.2637 1.805-3.0689 1.805-5.2352 0-2.3468-.812-4.2423-2.166-5.5059Zm-1.174 10.1093c-.812 1.0831-1.985 1.7149-3.159 1.7149-.993 0-2.346-.361-3.249-1.8052-.812-1.1734-1.083-2.8884-1.083-4.4228 0-1.6247.451-3.7007 1.534-4.8741.722-.7221 1.625-1.2637 2.979-1.2637 1.083 0 1.986.3611 2.798 1.2637 1.083 1.2636 1.444 3.2494 1.444 4.9644-.09 1.5344-.451 3.2494-1.264 4.4228Zm8.034-5.2352v1.2637l1.805-.1806c.722 0 1.986.0903 2.708.9026.361.3611.722 1.0832.722 1.9858 0 .9026-.271 1.715-1.174 2.3468-.812.5416-1.805.6318-2.617.6318-.903 0-1.715-.2708-2.347-.6318l-.361-2.6176h-1.173v3.6105c1.895.6318 3.52.6318 3.971.6318 1.264 0 3.069-.2708 4.242-1.0831 1.174-.8124 1.625-1.8955 1.625-3.2495 0-.8123-.271-1.7149-.993-2.3467-.722-.6319-1.715-.9027-2.617-.9929.722-.1805 1.534-.5416 2.076-1.0832.722-.722.902-1.4441.902-2.076 0-1.4441-.722-2.3468-1.534-2.7981-.993-.5415-2.166-.6318-3.34-.6318-.722 0-1.986 0-3.791.5416v3.1591h1.174l.27-2.2565c.813-.3611 1.715-.5416 2.347-.5416.813 0 1.444.1805 2.076.7221.452.4513.813 1.0831.813 1.9858 0 .8123-.271 1.5344-.993 2.076-.542.4513-1.174.6318-1.806.7221-.27 0-1.985-.0903-1.985-.0903ZM91.7579 16.3716c-1.0832-.7221-2.3468-.8124-3.6105-.8124-.2708 0-1.1734 0-2.3468.0903v-4.9644h5.3254l.3611 2.076h1.1734V9.69224H82.4609v.81236l1.5345.0903v11.9144l-1.5345.1806v.8123h5.4157c1.0832 0 2.8884-.0902 4.0618-1.0831 1.1734-.9026 1.3539-2.076 1.3539-2.8884 0-1.4442-.4513-2.437-1.5344-3.1591Zm-1.354 5.4157c-.8123.8123-2.1662.8123-3.0689.8123-.5415 0-.9928 0-1.5344-.0903v-5.8669c.6318-.0903 1.3539-.1806 2.076-.1806.9026 0 1.8955.0903 2.6176.8124.6318.7221.7221 1.6247.7221 2.1663.0902.722-.0903 1.7149-.8124 2.3468Zm17.2401.6318-4.965-12.90738h-1.353L96.4514 22.4191l-1.7149.2708v.8123h4.513v-.8123l-1.6247-.0903 1.5345-4.2423h4.8737l1.625 4.2423-1.534.0903v.8123h4.693v-.8123l-1.173-.2708Zm-8.0334-4.9644 2.0764-5.6864 2.076 5.6864h-4.1524Zm25.7244-6.8598v-.90266h-5.055v.81236l1.625.0903v5.4156h-7.131v-5.4156l1.625-.0903v-.81236h-5.054v.81236l1.534.0903v11.9144l-1.534.0903v.8124h5.054v-.8124l-1.625-.0903v-5.5962h7.131v5.5962l-1.625.0903v.8124h5.055v-.8124l-1.534-.0903V10.6851l1.534-.0902Zm14.893 12.0047-4.693-6.7696 4.332-5.1449 1.354-.1805v-.81236h-4.333v.81236l1.445.0903-4.513 5.5059h-1.535v-5.5059l1.625-.0903v-.81236h-5.055v.81236l1.535.0903v11.9144l-1.535.0903v.8124h5.055v-.8124l-1.625-.0903v-5.5962H134l4.603 6.4989h2.979v-.8124h-1.354Z"/>
</svg>