<svg xmlns="http://www.w3.org/2000/svg" viewBox="0 0 200 50">
	<path class="bg-logo" fill="#F08064" d="M0 0h200v50H0z"/>
	<path fill="#000" d="M90.9448 11h89.0553v27H90.9448z"/>
	<path fill="#fff" d="M91 11H16v27h75z"/>
	<path fill="#F08064" d="M30.4545 15.2903c-5.5605.3668-9.1265 2.7735-10.2161 6.8945-.2535.9587-.319 3.0669-.1276 4.1049.7888 4.2767 4.029 6.8364 9.3505 7.3864 1.3442.1389 4.1248.056 5.339-.1592 3.8522-.6828 6.2795-2.5538 7.266-5.6009.0954-.2944.1377-.571.1377-.571l-5.3413-1.016s-.0523.1498-.1113.348c-.409 1.374-1.4352 2.3052-2.9872 2.7107-1.881.4915-4.7111.2398-6.1985-.5513-.6514-.3463-1.3513-1.062-1.6695-1.707-.3879-.7861-.5329-1.5025-.5332-2.6336-.0005-1.5983.3777-2.6701 1.2509-3.5449 1.0801-1.0823 3.0669-1.6476 5.3613-1.5254 2.6155.1393 4.1835 1.1044 4.7705 2.9365.0832.2597.0814.295.0814.295 1.8085-.3451 3.6175-.6886 5.4189-1.0695 0 0 .0329-.0297-.0344-.2727-.1674-.6052-.5853-1.4847-1.0027-2.1102-1.3992-2.0971-3.9211-3.4042-7.3221-3.7952-.8115-.0933-2.7847-.1617-3.4323-.1191ZM43.775 33.506h5.2302V19.7256h10.542V33.506h5.2302V15.5671H43.775V33.506Zm23.2088.0066 7.4162-.0272c7.3866-.0269 7.419-.0278 8.1109-.2104 2.8238-.7454 4.386-2.8929 4.2213-5.803-.0576-1.0157-.1897-1.5406-.5956-2.3647-.6254-1.2696-1.927-2.253-3.5849-2.7082-.634-.1741-.8025-.1803-5.5775-.208l-4.9269-.0285v-2.5185h13.3238v-4.077H66.9838v17.9455Zm23.9443-13.786 13.2799-.0417.043-4.1178H90.9281v4.1595Zm13.8929 13.9133 5.57-.0115 1.716-3.3024h9.872l1.678 3.2666h5.762l-9.602-17.9644h-5.345l-9.651 18.0117Zm25.824-.0473h5.311v-7.0991h10.951v7.0991h5.271V15.6282h-5.271v6.6252h-10.951v-6.6252h-5.311v17.9644Zm23.862 0h5.271v-7.7428l8.969 7.7428h7.403l-10.757-9.5391 10.44-8.4253h-6.984l-9.071 7.3591v-7.3591h-5.271v17.9644Zm-34.559-7.2621h-5.824l2.949-5.5754 2.875 5.5754Zm-29.0199-.1727 4.1474.0252c4.1054.0249 4.1508.0269 4.4869.2063.6446.3438.8896.8593.8266 1.7388-.049.6733-.247 1.0264-.7331 1.304l-.3514.2008-4.1882.0232-4.1882.0232v3.9992l4.842-.0302c4.6869-.0292 4.8639-.0359 5.5369-.2112 2.123-.5533 3.636-1.9775 4.128-3.8858.182-.7079.239-1.8554.128-2.5666-.362-2.3067-1.773-3.8444-4.134-4.5025-.638-.1778-.773-.1829-5.5772-.2096l-4.9237-.0274v3.9126Zm-10.4424.0132c.6796.1883 1.124.8335 1.1208 1.6272-.0032.8004-.2491 1.2556-.8527 1.5783-.3219.1722-.3899.1748-4.4946.1748h-4.2119v-3.465h4.0672c2.5457.0003 4.181.032 4.3712.0847Z"/>
</svg>