<svg xmlns="http://www.w3.org/2000/svg" viewBox="0 0 200 50">
	<path class="bg-logo" fill="#A54181" d="M0 0h200v50H0z"/>
	<g fill="#fff">
		<path d="M49.651 14.1761c.5105 1.031-.506 2.0504-1.537 1.537-.1809-.0911-.3267-.2369-.4178-.4178-.5105-1.031.506-2.0504 1.537-1.537.1809.0911.3267.2369.4178.4178Zm4.4961 0c.5104 1.031-.5053 2.0504-1.5371 1.537-.1801-.0904-.3266-.2369-.4171-.4178-.5141-1.031.5053-2.0504 1.5364-1.537.1808.0911.3266.2369.4178.4178ZM55.6667 17.2118c-.7795.5928-2.3202 1.1383-4.3204 1.1383-2 0-3.5415-.5455-4.3203-1.1383h-1.7032c.4294 1.5269 2.9582 2.7016 6.0228 2.7016 3.0647 0 5.5928-1.1747 6.0222-2.7016h-1.7011Zm21.4966 16.0534c-.9305 0-1.6669-.0817-2.2102-.2457-.5307-.1575-1.0259-.4172-1.4582-.7628-.4456-.358-.7956-.8196-1.0209-1.3446-.2326-.5344-.3493-1.241-.3493-2.1197v-6.9029h-1.89v-2.3247h1.8871V15.168h3.0246v4.3968h3.8267v2.3268h-3.8267v6.2774c0 .2603.0219.5192.0649.7758.0445.2632.1225.52.2326.7628.1123.2501.2858.4681.5045.6329.3465.296.7752.4775 1.2287.5199.3726.0459.7481.0722 1.1237.0794h.7495v2.3268l-1.887-.0014Zm11.3494-13.7004c.5557-.005 1.1076.0912 1.6282.2844.4587.1634.8743.4288 1.2156.7759.2916.2916.533.7094.7241 1.2541.191.5447.2857 1.2038.2843 1.9775v7.1094c-.0058.2953-.0358.5891-.0904.8794-.1145.6825-.6489 1.2169-1.3314 1.3315-.3318.0582-.6687.0882-1.0056.0882h-6.5406c-.4106-.0022-.821-.0285-1.2287-.0781-.4375-.051-.8553-.2494-1.2534-.5942-.2705-.2356-.4929-.5206-.6563-.84-.1632-.315-.2858-.6497-.3645-.9953-.0774-.3318-.1262-.6687-.1459-1.0085-.0175-.3274-.0262-.6205-.0255-.8793-.0007-.6002.0642-1.1981.194-1.7836.129-.5833.4521-1.1003.969-1.551.431-.3791.8663-.6073 1.306-.6854.3966-.0728.7991-.1122 1.2024-.1159h5.9456v-.9566c-.0015-.2174-.0226-.4339-.0642-.6468-.0517-.2392-.1626-.4616-.3238-.646-.1757-.2378-.4257-.4106-.7109-.4915-.2486-.0664-.5053-.1014-.7626-.1035H80.731v-2.3247h7.7817Zm-4.2146 7.4973c-.1691.0081-.3375.0299-.5038.0649-.2458.0518-.463.1954-.6074.401-.0838.1299-.1531.2684-.2071.4135-.086.2071-.1291.5608-.1291 1.0602.0044.2581.0256.5163.0649.7715.0292.2822.1517.5461.3485.7503.1255.1181.2699.2144.4266.2844.1743.086.3653.1312.5593.1319h4.2146c.086 0 .1939-.0043.323-.0131.129-.008.2515-.0583.3493-.1422.0904-.0663.1546-.1625.1809-.2712.0175-.0985.0254-.1976.0254-.2975v-3.1559l-5.0451.0022ZM94.4328 15.168h3.0246v18.0972h-3.0246V15.168Zm5.0925 18.0972V15.168h3.0267v18.0972h-3.0267Zm9.5917 0-4.731-5.0153c-.227-.2573-.43-.5337-.608-.8276-.223-.374-.336-.8043-.323-1.2396 0-.5169.112-.9354.336-1.2541.224-.3187.431-.5899.621-.8138l4.136-4.55h3.517l-5.145 5.5329c-.117.1321-.221.275-.311.4266-.092.1706-.136.3624-.129.5556.003.2327.07.4594.195.6563.129.2173.28.4208.451.6074l5.611 5.9209-3.62.0007Zm7.316-18.0972v4.3968h4.011c.427.0007.855.027 1.28.0781.442.0517.875.156 1.292.3098.433.1612.838.388 1.202.6724.41.3281.752.732 1.009 1.1892.387.6636.638 1.3971.736 2.1591.115.8349.171 1.6771.169 2.52 0 1.1207-.077 2.0387-.233 2.7533-.155.7146-.372 1.3031-.65 1.766-.247.45-.58.8466-.983 1.1668-.364.285-.77.5162-1.202.6846-.415.1626-.849.2713-1.292.323-.416.0503-.835.0766-1.254.0781h-4.317c-.385.0007-.769-.0256-1.151-.0781-.387-.0591-.745-.2398-1.021-.5169-.254-.221-.434-.5141-.517-.84-.066-.2837-.101-.5747-.103-.8663V15.168h3.024Zm0 14.6329c0 .1378.004.2917.014.4521.009.1691.078.3288.193.4528.101.1028.233.1706.375.194.15.0262.3.0386.452.0386h2.198c.206 0 .439-.0088.698-.0263.265-.0182.526-.0751.775-.1676.272-.1022.529-.2415.763-.4135.272-.2078.489-.479.633-.789.122-.2982.222-.6044.297-.9172.113-.4222.169-1.0902.169-2.0038 0-1.0858-.064-1.8696-.194-2.353-.129-.4835-.22-.7759-.275-.8787-.258-.5454-.702-.9807-1.253-1.2279-.246-.1109-.508-.1844-.776-.2187-.244-.0329-.491-.0504-.737-.0518h-3.335l.003 7.91Zm19.829-10.2361c.555-.005 1.108.0912 1.629.2844.459.1634.873.4288 1.215.7759.292.2916.533.7094.724 1.2541.191.5447.286 1.2038.284 1.9775v7.1094c-.005.2953-.035.5891-.09.8794-.113.6825-.649 1.2177-1.331 1.3315-.334.059-.671.0896-1.009.0903h-6.541c-.41-.0021-.82-.0284-1.228-.078-.437-.051-.855-.2494-1.254-.5942-.27-.2356-.493-.5206-.656-.84-.163-.315-.286-.649-.365-.9953-.077-.3311-.126-.6687-.146-1.0085-.017-.3274-.026-.6205-.026-.8793 0-.6002.066-1.1981.194-1.7836.13-.5833.454-1.1004.97-1.551.431-.3791.866-.6073 1.305-.6854.397-.0729.799-.1122 1.202-.1159h5.947v-.9588c-.002-.2174-.023-.4339-.065-.6468-.051-.2392-.162-.4616-.323-.646-.176-.2378-.427-.4106-.711-.4915-.248-.0664-.505-.1014-.762-.1035h-6.748v-2.3247h7.785Zm-4.213 7.4973c-.17.0081-.338.0299-.504.0649-.247.0518-.464.1947-.608.401-.084.1299-.153.2684-.207.4135-.087.2071-.13.5608-.129 1.0602.004.2596.026.5185.064.7751.029.2822.153.5462.349.7503.126.1181.27.2144.427.2844.173.0846.363.1283.555.129h4.214c.087 0 .194-.0043.324-.0131.129-.0079.251-.0583.349-.1422.09-.0656.154-.1618.18-.2712.018-.0985.027-.1976.027-.2975v-3.1566l-5.041.0022Zm10.133-5.4053c.003-.2428.025-.4848.066-.7241.046-.2822.176-.5432.374-.7495.265-.3121.641-.5112 1.048-.5556.347-.0394.696-.0613 1.046-.0649h4.834c.685-.0037 1.369.0575 2.043.1815.637.1203 1.232.4303 1.784.9304.361.3274.675.7671.943 1.3184.268.5512.401 1.3008.401 2.2494v9.0228h-3.023v-8.1179c0-.4375-.035-.8743-.104-1.3059-.063-.4069-.222-.7926-.465-1.1244-.215-.2858-.506-.5053-.84-.6336-.336-.1291-.78-.1932-1.331-.1939h-3.077c-.086 0-.173.0043-.259.0131-.099.016-.191.0663-.259.1422-.079.0743-.13.1757-.141.2843-.009.1036-.013.1983-.013.2844v10.6517h-3.027V21.6568Zm14.607 11.6084V15.168h3.025v18.0972h-3.025Zm9.591 0-4.73-5.0153c-.228-.2573-.431-.5337-.608-.8276-.223-.374-.336-.8043-.324-1.2396 0-.5169.113-.9354.337-1.2541.223-.3187.43-.5899.62-.8138l4.136-4.55h3.517l-5.145 5.5329c-.116.1321-.221.275-.311.4266-.092.1706-.135.3624-.128.5556.002.2327.07.4594.194.6563.13.2173.281.4208.451.6074L170 33.2645l-3.62.0007Z"/>
		<path d="M62.558 24.6084V8.8926c0-1.5976-1.2943-2.89187-2.8919-2.8926h-17.489c-1.5977 0-2.8927 1.295-2.8927 2.8926v15.7158c0 1.5975 1.295 2.8925 2.8927 2.8925h12.7676c1.2462 2.8729 7.6133 2.5813 7.6133 2.5813s-1.7274-.8218-2.2065-2.6637c1.295-.3164 2.2065-1.4773 2.2065-2.8101Zm-19.2602-2.1066V10.9992c-.0015-.5447.4397-.9873.9844-.9888h13.2803c.5447 0 .9858.4412.9858.9858v11.5056c.0007.5447-.4404.9858-.9851.9866H44.2843c-.5446 0-.9865-.4419-.9865-.9866Z"/>
		<path d="M47.7603 29.3347v3.4547c-.0022.5447-.4448.9844-.9894.9829H34.9991c-.5446.0015-.9872-.4397-.9887-.9843V22.4572c0-.5447.4412-.9859.9858-.9859h2.4887v-4.0104h-4.5937c-1.5962.0007-2.8897 1.2942-2.8912 2.8904v14.5418c0 1.3329.9115 2.4938 2.2065 2.8102C31.7274 39.543 30 40.3662 30 40.3662s6.3671.2917 7.614-2.5812h11.2663c1.5976 0 2.8919-1.2943 2.8926-2.8919v-5.5584h-4.0126Z"/>
		<path d="M36.5471 25.0204c-.0007.6154.4988 1.1149 1.1142 1.1156.6154.0007 1.1149-.4987 1.1157-1.1141.0007-.6155-.4988-1.1149-1.1143-1.1156h-.0007c-.6153-.0008-1.1141.4979-1.1149 1.1134v.0007Zm6.257 5.1369h-3.0989v1.99h3.0989v-1.99Z"/>
	</g>
</svg>