<svg xmlns="http://www.w3.org/2000/svg" viewBox="0 0 200 50">
	<path class="bg-logo" fill="#EB5C18" d="M0 0h200v50H0z"/>
	<path fill="#fff" d="M185.696 8.64912c-.155.51482-1.234 3.89798-3.399 5.93818-2.248-1.8877-3.522-6.00628-3.522-6.00628l.005-.04086c-1.531 2.34254-2.549 5.15094-2.549 5.15094s2.2 6.69 6.074 9.7571c3.756-3.3368 5.922-9.8361 5.922-9.8361s-.888-2.4161-2.531-4.96298Zm.041-1.45458s-1.242 3.72906-3.397 5.64396c-2.222-1.7596-3.481-5.63579-3.47-5.69844 0 0 1.278-3.22514 3.432-5.14006 2.226 1.75966 3.435 5.19454 3.435 5.19454Zm2.242 8.59676C189.297 18.1965 190 20.106 190 20.106s-2.83 9.6563-7.662 13.9465c-4.977-3.9442-7.758-13.8457-7.758-13.8457l.068-.2261c.147-.4604.727-2.013 1.779-3.9715.683 1.8741 2.805 6.8561 5.913 9.4166 3.356-3.1025 5.108-8.0383 5.639-9.6345ZM166.049 35.5345c0-.0436-.003-.0954-.009-.1499-.005-.0544-.019-.1253-.04-.207-.022-.0844-.052-.1798-.093-.2833-.038-.1062-.09-.2315-.158-.3759l-1.449-3.3341c-.245-.5557-.49-1.0296-.744-1.4246-.25-.3922-.512-.7246-.782-.9915-.272-.2669-.558-.4849-.858-.651-.299-.1662-.621-.3214-.967-.4658v-.0327c.256-.0899.523-.2125.801-.3677.278-.1553.556-.3596.826-.6156.272-.2561.539-.5802.8-.9752.262-.3923.507-.8744.741-1.441l1.183-2.8329c.111-.2669.188-.4766.234-.6319.043-.1553.068-.2887.068-.4004 0-.0872-.027-.1635-.085-.2234-.054-.0599-.158-.1144-.307-.158-.15-.0436-.354-.079-.616-.1008-.261-.0218-.596-.0326-1.008-.0326-.468 0-.841.0108-1.125.0326-.283.0218-.506.0572-.664.1063-.164.0517-.281.1171-.36.2015-.076.0818-.133.1798-.166.2915l-1.25 3.2006c-.177.4767-.365.8771-.559 1.1986-.193.3214-.406.5802-.632.7736-.229.1961-.479.3323-.757.4167-.278.0845-.588.1253-.932.1253h-.849v-5.7856c0-.0763-.041-.1526-.118-.2234-.079-.0708-.198-.1335-.367-.1852-.167-.049-.384-.0899-.651-.1171-.267-.0273-.589-.0409-.967-.0409-.39 0-.717.0136-.984.0409-.267.0272-.482.0681-.648.1171-.166.049-.286.1144-.357.1852-.073.0708-.112.1471-.112.2234V35.45c0 .0763.039.1498.112.2234.071.0708.191.1362.357.1934.166.0572.381.098.648.1253.267.0272.594.0436.984.0436.376 0 .7-.0164.967-.0436.267-.0273.482-.0681.651-.1253.166-.0572.288-.1199.367-.1934.077-.0708.118-.1471.118-.2234v-6.0662h.849c.39 0 .733.0436 1.033.1253.299.0817.566.2234.801.4168.234.1961.446.4521.642.7736.194.3241.376.7218.543 1.2012l1.383 3.5493c.044.109.106.2043.183.2833.076.0763.204.1362.384.1771.177.0381.417.0681.716.0898.3.0218.684.0355 1.15.0355.411 0 .754-.0109 1.024-.0355.272-.0217.488-.0517.643-.0898.155-.0382.264-.0899.324-.1499.052-.0626.082-.1362.082-.226Zm-17.687.1253c.066-.0845.098-.1798.098-.2915V20.5011c0-.1117-.032-.2071-.098-.2915-.068-.0817-.177-.1525-.332-.207-.158-.0545-.371-.0981-.643-.1253-.272-.0273-.61-.0409-1.008-.0409-.411 0-.754.0136-1.027.0409-.272.0272-.485.0708-.643.1253-.155.0545-.267.1253-.332.2097-.065.0817-.098.1798-.098.2915v5.565h-6.017v-5.5677c0-.1117-.033-.2071-.101-.2915-.065-.0817-.18-.1553-.34-.2097-.164-.0545-.376-.0981-.643-.1253-.267-.0273-.605-.0409-1.016-.0409-.412 0-.749.0136-1.016.0409-.265.0272-.48.0708-.643.1253-.161.0544-.273.1253-.341.2097-.065.0817-.1.1798-.1.2915v14.8645c0 .1117.032.2097.1.2914.068.0845.18.1526.341.2098.16.0572.376.098.643.1253.269.0272.604.0408 1.016.0408.411 0 .751-.0136 1.016-.0408.267-.0273.479-.0681.643-.1253.16-.0545.275-.1253.34-.2098.065-.0844.101-.1797.101-.2914v-5.8483h6.017v5.8483c0 .1117.033.207.098.2914.065.0845.177.1526.332.2098.158.0572.371.098.643.1253.273.0272.616.0408 1.027.0408.398 0 .736-.0136 1.008-.0408.272-.0273.485-.0681.643-.1253.155-.0545.267-.1253.332-.207Zm-17.379-1.6916v-8.4769c0-2.5033-1.92-4.835-4.009-5.4506-.82-.2424-1.738-.365-2.719-.365-.569 0-1.144.0518-1.702.1553-.55.1035-1.065.2342-1.534.3922-.471.158-.896.3351-1.266.5339-.395.2098-.676.3977-.861.5748-.229.2233-.379.4712-.444.7409-.049.1988-.074.4494-.074.76 0 .1879.014.365.039.5257.032.207.089.3813.177.5311.098.1716.22.3078.367.4059.166.1117.368.1716.575.1716.253 0 .528-.0953.894-.3132.038-.0218.081-.0491.122-.0736l.049-.0272.041-.0327c.071-.0381.215-.1117.411-.2043 0 0 .175-.0872.259-.128.341-.1635.749-.316 1.209-.4549l.028-.0082c.7-.1634 1.283-.2397 1.781-.2397 1.22 0 2.359.3813 2.512 2.999h-.769c-2.113 0-4.309.0518-5.894.6892-1.795.7218-3.029 2.1029-3.029 4.2139 0 3.3804 2.887 5.3199 7.292 5.3199 1.803 0 4.399-.3923 5.679-.9534.196-.0763.817-.4277.866-1.2857Zm-4.181-1.3211c-.583.1552-1.555.2914-2.419.2914-2.707 0-2.903-.6564-2.903-1.7405 0-1.4574.626-1.8523 2.914-1.8523.382 0 .785.0163 1.21.0218 0 0 .803.0218 1.198.0245v3.2551Zm-12.298-1.3647c.384-1.0542.574-2.22.574-3.4975 0-1.1795-.13-2.2337-.392-3.1598-.261-.9261-.656-1.7161-1.182-2.3671-.528-.651-1.193-1.1468-1.999-1.49-.807-.3459-1.755-.5175-2.841-.5175-.523 0-1.019.0517-1.49.158-.474.1062-.921.2506-1.343.4331-.423.1825-.818.4058-1.191.6646-.373.2615-.708.5475-1.008.858.066-.444.137-.8716.216-1.2829.079-.4113.171-.7873.283-1.1332.112-.3432.245-.6592.4-.9506.156-.2888.327-.5285.515-.7164.188-.188.382-.3487.575-.4822.196-.1334.422-.2533.684-.3595.261-.1063.563-.1989.907-.2806.343-.0844.743-.158 1.198-.2261l4.901-.7327c.177-.0218.326-.0817.441-.1744.117-.0953.207-.226.275-.3895.068-.1661.112-.365.133-.5911.022-.2288.036-.4957.036-.809 0-.444-.011-.7899-.036-1.0405-.021-.2506-.065-.4331-.133-.5503-.068-.1171-.166-.1797-.291-.1906-.129-.0109-.292-.0055-.494.019l-5.298.7655c-.645.1007-1.239.2233-1.781.3677-.545.1444-1.038.3132-1.482.5066-.444.1934-.85.4168-1.217.6674-.368.2506-.744.5802-1.134.9915-.389.4113-.765.9588-1.133 1.6426-.367.6837-.675 1.479-.923 2.3834-.251.9071-.4387 1.904-.5667 2.9909-.1281 1.0895-.1934 2.2499-.1934 3.4839 0 1.6997.1416 3.1788.4249 4.44.2832 1.2612.7352 2.3044 1.3512 3.1325.615.8281 1.4 1.4464 2.351 1.8577.95.4113 2.092.6156 3.424.6156 1.198 0 2.293-.2015 3.274-.6074.983-.4059 1.828-.9806 2.533-1.727.703-.7463 1.248-1.6452 1.632-2.7021Zm-3.678-3.266c0 .7681-.076 1.4546-.231 2.0593-.155.6047-.384 1.1168-.684 1.5336-.3.4167-.673.7327-1.117.9506-.446.2179-.95.3242-1.514.3242-.632 0-1.171-.1226-1.607-.3678-.439-.2451-.796-.6237-1.068-1.1331s-.469-1.1522-.591-1.9231c-.123-.7709-.183-1.678-.183-2.7267v-.4821c0-.158.006-.3024.017-.4331.335-.3569.651-.6674.95-.9316.303-.2669.602-.4958.91-.6837.305-.188.618-.3323.943-.4249.321-.0927.67-.1417 1.048-.1417.567 0 1.052.1144 1.458.3432.405.2288.73.5366.975.9234.245.3896.422.8499.531 1.3838.109.5312.163 1.1086.163 1.7297ZM96.5502 39.19c.365 0 .6565-.2043.6565-.2043v-3.9388c-.0109-.8227-.553-1.0379-.651-1.0705l-1.1768-.3759V20.3322c0-.0518-.0299-.0954-.0299-.0954s-.0572-.0599-.1362-.098c-.0627-.03-.1771-.0627-.3378-.0763-.1689-.0163-.3895-.0245-.6619-.0245-.2615 0-.4794.0082-.6456.0245-.1607.0164-.2805.0463-.3514.079-.0871.0409-.1416.0953-.1416.0953s.0109.0436.0109.0954v13.0885l-1.9177-.1253-4.6906.3051c-1.1822.0081-1.4491-.7083-1.5063-1.1468V20.3322c0-.0545-.0245-.0954-.0245-.0954s-.0572-.0572-.1362-.098c-.0599-.03-.1771-.0627-.3378-.0763-.1689-.0163-.3895-.0245-.6619-.0245-.2642 0-.4794.0082-.6483.0245-.1607.0164-.2806.0463-.3514.079-.0844.0409-.1226.0844-.1226.0844s-.0218.0491-.0218.1063v12.8025c.1172.9942.6129 2.3725 2.4598 2.3725.2206 0 .4113.0082.5802.0191h9.6045l.523 3.4458c.0055-.0028.3187.2179.7164.2179Zm-17.6156-8.0302c.3159-1.0051.4739-2.1056.4739-3.3096 0-1.2366-.1525-2.3425-.4494-3.3177-.2969-.9752-.7409-1.7951-1.3293-2.4679-.5884-.6728-1.3184-1.1849-2.2064-1.539-.8853-.3541-1.9313-.5339-3.1434-.5339-1.2557 0-2.3399.2016-3.2633.5993-.9261.3977-1.6943.9561-2.3099 1.6725-.6183.7191-1.0814 1.5771-1.3892 2.5795-.3105 1.0024-.4658 2.1056-.4658 3.3096 0 1.2476.1471 2.3589.4413 3.3341.2915.9752.7327 1.7923 1.3211 2.4679.5857.6728 1.3184 1.1849 2.2064 1.5417.8826.3541 1.9313.5339 3.1407.5339 1.2421 0 2.3262-.2043 3.2524-.6074.9343-.4059 1.7024-.9643 2.3208-1.6807.6183-.7218 1.0841-1.5799 1.4001-2.5823Zm-1.934-3.1243c0 .8798-.0899 1.6943-.2751 2.4352-.1853.7463-.4767 1.3946-.8772 1.9448-.4031.5503-.9206.9834-1.5444 1.2857-.6293.3051-1.3674.4549-2.1982.4549-.9126 0-1.6889-.1634-2.3236-.5012-.6237-.3323-1.1277-.7872-1.5036-1.3565-.3704-.5638-.6319-1.2203-.7872-1.9667-.1552-.7409-.2315-1.5281-.2315-2.3616 0-.8717.0926-1.6807.2833-2.4216.1906-.7436.4848-1.3974.8853-1.9503.4031-.5557.9179-.9915 1.5362-1.2966.6238-.3051 1.3647-.4549 2.2064-.4549.9126 0 1.6889.1607 2.3263.5012.6238.3323 1.1277.7927 1.4954 1.3674.365.5693.6211 1.2285.7791 1.9749.1498.7381.2288 1.5199.2288 2.3453Zm-14.1318 5.6739c.0109-.1307.0164-.2887.0164-.4739 0-.218-.0082-.4032-.0246-.553-.0163-.1471-.0408-.2642-.0708-.3459-.03-.0818-.0708-.1281-.0708-.1281l-.0599-.0163s-.0627.0054-.1362.0463c-.0736.0381-.1689.1035-.2806.1934-.2452.1988-.5421.4195-.8989.6619-.365.2479-.7927.474-1.2802.681-.5094.2152-1.0951.3187-1.7543.3187-.6918 0-1.3183-.128-1.8659-.3814-.5502-.2533-1.0187-.6455-1.3946-1.1604-.3759-.5175-.6565-1.1522-.8444-1.9013-.188-.7518-.2806-1.6153-.2806-2.5959 0-1.9585.3568-3.4784 1.0978-4.5517.7409-1.0732 1.8441-1.6234 3.2251-1.6207.6646 0 1.2503.0953 1.7569.2915.4822.1879.8989.3949 1.2503.6292.3378.2261.6211.4331.8444.6238.1962.1689.3487.2233.4304.2233l.0708-.0218c.0273-.019.0627-.0599.1035-.1253.0627-.1007.1199-.3813.1199-.7981 0-.1961-.0054-.3568-.0163-.4821-.0109-.1199-.0273-.2206-.0572-.3078-.0273-.0899-.0627-.1634-.1008-.2207-.0327-.0517-.1199-.1525-.2452-.2778-.1144-.1144-.3187-.2697-.6047-.4549-.2778-.1798-.602-.3378-.967-.4767-.365-.1389-.7654-.2533-1.2067-.3405-.4358-.0871-.8853-.128-1.3483-.128-.9643 0-1.855.1607-2.6777.4767-.8172.316-1.5281.7954-2.1328 1.4519-.602.651-1.0814 1.4899-1.4382 2.5305-.3514 1.0296-.5285 2.2745-.5285 3.7345 0 1.283.1471 2.408.4331 3.3777.2888.9697.7028 1.7814 1.2421 2.4379.5394.6565 1.2013 1.1522 2.0048 1.4954.8009.3405 1.7243.5149 2.7785.5149.5066 0 .9969-.0491 1.4709-.1471.4767-.0981.9179-.2234 1.3238-.3787.4059-.1552.7682-.335 1.0869-.5311.3241-.2016.5502-.3705.6673-.4849.1308-.1307.2125-.2342.2288-.2642.0273-.0545.0572-.1253.0817-.207.0218-.0845.0409-.1853.0518-.3133ZM50.5811 21.705c.0191-.1416.03-.3241.03-.5447 0-.1934-.0136-.3623-.0381-.5094-.0273-.1526-.06-.2697-.0926-.3487-.0327-.0735-.0818-.1171-.0818-.1171-.0299-.0191-.0463-.0272-.0844-.0272H38.1981c-.0408 0-.0708.019-.0708.019s-.0545.0545-.0926.1335c-.0381.079-.0735.1907-.098.3296-.0246.1389-.0382.3078-.0382.5012 0 .2179.0136.4004.0382.5448.0245.1498.0599.2642.0926.335.0299.0654.0817.1117.0817.1117.0299.0191.049.0272.0871.0272h4.9249v13.1703c0 .0517.0164.079.0164.079s.0544.0381.0926.0517c.0735.03.1961.0627.3623.0817.1661.0218.384.0327.6537.0327.2778 0 .5039-.0109.6701-.0327.1662-.019.286-.0545.3487-.0817.0735-.0327.1089-.0708.1089-.0708s.0136-.0191.0136-.0627v-13.162h4.9249c.0572 0 .0844-.0191.0844-.0191.0218-.0163.06-.0572.0981-.1335.0327-.0626.0654-.1661.0844-.3078Zm-14.178 13.4263c.0708-.0844.1389-.2043.1525-.4113v-9.4275c0-1.1359-.3568-2.2881-.9615-3.2197-.602-.9289-1.4464-1.6371-2.408-1.9204-.7572-.2206-1.667-.365-2.7512-.365-.5802 0-1.1522.0518-1.716.158-.5721.1062-1.1005.2397-1.5772.4004-.4821.1634-.9016.3432-1.2639.5339-.3677.1934-.6183.3623-.7327.4767-.1253.1226-.188.2288-.2125.3296-.03.1307-.0518.3405-.0518.6129 0 .158.0109.3023.0327.4249.0191.1198.0491.2043.0763.2533.0354.0627.0872.109.0872.109s.0327.019.079.019c0 0 .0681-.0081.1525-.0408.0817-.0327.1934-.0872.3269-.1662.0408-.0245.0844-.0517.1307-.0762l.0354-.03s.2615-.1471.6184-.316c.0926-.0436.1852-.0926.2833-.1389.4358-.2097.937-.395 1.5036-.5666 0 0 .0544-.0163.0926-.0272.7872-.1907 1.5363-.2942 2.2227-.2942.6374 0 1.2285.0981 1.7515.335.523.2343.9697.6129 1.3075 1.1414.2261.3514.4031.7681.5339 1.2584.1743.651.2615 1.4246.2615 2.3481v.2805l-1.0705.0354c-.2806 0-.5584-.0027-.8281-.0027-1.4192 0-2.7294.0272-3.8762.1607-1.1495.1362-2.1219.3759-2.8655.79-.5012.2751-.8962.621-1.1931 1.0677-.395.5939-.6211 1.3811-.6211 2.4461 0 .7709.1389 1.4601.4113 2.0566.2724.5993.6837 1.1086 1.2313 1.5336 1.1004.8471 2.7865 1.3402 5.091 1.3402.9615 0 2.0402-.109 3.0399-.2861.9915-.1743 1.9122-.4031 2.5251-.6755.0327-.0163.1117-.0626.1825-.1471Zm-2.1002-1.1522-.1525.079c-.1798.0844-.4032.1552-.6647.2233-.2587.0654-.5584.1281-.8798.1771-.6401.1008-1.362.1662-2.0293.1662-.8472 0-1.5499-.0518-2.1274-.1825-.5748-.1281-1.0405-.3378-1.3892-.6538-.2315-.2125-.4086-.4685-.5285-.7627-.1607-.3922-.226-.8471-.226-1.3674 0-.7273.1389-1.3075.414-1.7651.2751-.4549.6864-.7654 1.1658-.9643.3187-.1307.6729-.2179 1.0515-.2724.5066-.0735 1.0623-.0953 1.6534-.0953.9234 0 1.9394.0517 2.9909.0517.1389 0 .7218-.0054.7218-.0054v5.3716ZM22.7262 21.7105c.0191-.1417.03-.3269.03-.5448 0-.1934-.0136-.365-.0382-.5121-.0245-.1498-.0572-.2697-.0926-.3514-.0327-.0735-.079-.1171-.079-.1171-.0299-.0191-.049-.0272-.0871-.0272H10.2996c-.0381 0-.0681.019-.0681.019s-.0572.0572-.0953.1362c-.0381.079-.0735.1934-.0981.3323-.0245.139-.0381.3078-.0381.5012 0 .218.0136.4032.0381.5475.0246.1499.06.2643.0926.3378.03.0654.06.0981.0845.1144.03.0191.049.0273.0844.0273h4.944v13.2165c0 .0517.0136.0763.0136.0763s.0545.0408.0953.0544c.0736.0327.1962.0627.365.0845.1662.0218.3868.0327.6538.0327.2778 0 .5066-.0137.6701-.0327.1661-.0218.2887-.0518.3514-.079.0735-.0327.1089-.0708.1089-.0708s.0136-.0191.0136-.0654V22.1736h4.944c.0572 0 .0844-.0191.0844-.0191.0245-.0191.0599-.0572.0981-.1335.0327-.0654.0653-.1689.0844-.3105Z"/>
</svg>