<svg xmlns="http://www.w3.org/2000/svg" viewBox="0 0 200 50">
	<path class="bg-logo" fill="#002456" d="M0 0h200v50H0z"/>
	<path fill="#fff" d="M172.743 18.0652c.698 0 1.396-.0097 2.102 0v5.5904c.233 0 .475-.0097.718-.0097.619-1.8602 1.327-3.6914 1.918-5.5711.775-.0484 1.55-.029 2.325-.0096-.765 2.1509-1.463 4.3309-2.228 6.472.775 2.306 1.608 4.5925 2.422 6.8888-.765.0193-1.521 0-2.286.0193-.718-1.8893-1.366-3.8076-2.084-5.6969-.251-.0582-.522-.0291-.775-.0291-.01 1.9087 0 3.8173 0 5.726h-2.102c-.01-4.4471-.01-8.9137-.01-13.3801Zm-8.855 0c.716.0096 1.434-.0097 2.16.0096v5.5904c.804-.0096 1.609 0 2.412 0-.009-1.8601 0-3.7301 0-5.5904h2.104V31.455h-2.104c-.009-1.9087-.009-3.8076 0-5.7163h-2.412c.01 1.899 0 3.8076 0 5.7163h-2.16c0-4.4665-.01-8.9234 0-13.3898Zm-6.085 9.0396c.62-.0097 1.241.0194 1.86-.0194-.329-2.1509-.659-4.3018-.91-6.4624-.349 2.1509-.65 4.3212-.95 6.4818Zm-.503-9.0687c.959.0194 1.918-.0194 2.867.0291.736 4.4664 1.521 8.933 2.277 13.3995-.727-.0097-1.454-.0097-2.17 0l-.35-2.3544h-2.44c-.097.7848-.224 1.5599-.311 2.3447-.727.0097-1.453 0-2.18 0 .775-4.4762 1.531-8.9523 2.307-13.4189Zm-7.577 6.6562c0 1.5502-.01 3.1101.009 4.6602.465-.0097.93.0291 1.386-.0387.406-.0969.669-.5135.669-.9204.018-.8235 0-1.6568.009-2.4803.009-.3876-.078-.8236-.426-1.0464-.514-.2423-1.095-.1744-1.647-.1744Zm-2.132-6.6175c1.841-.0096 3.692 0 5.533 0v2.0347c-1.134 0-2.258.0097-3.382-.0097-.029.843-.01 1.6859-.01 2.5287 1.124.0485 2.452-.0969 3.343.7267.881.7945.911 2.0831.881 3.1876-.048 1.2402.214 2.616-.504 3.7205-.484.7945-1.433 1.1142-2.315 1.1627-1.181.0581-2.364.0096-3.536.029-.02-4.4568-.01-8.9234-.01-13.3802Zm-13.875-.0096c.718 0 1.435-.0097 2.152.0096.039 1.6859-.078 3.3718-.058 5.0672.01 1.0852 0 2.1607-.03 3.2458.785-2.7613 1.56-5.5322 2.306-8.3033.892-.029 1.783-.0097 2.675-.0193V31.455h-2.132c.029-2.8387.019-5.6776.068-8.5164-.862 2.8291-1.677 5.668-2.5 8.5067-.824.0194-1.657 0-2.489.0097.008-4.4568 0-8.9234.008-13.3898Zm-9.175 0c.698 0 1.396-.0097 2.103 0 .029 2.7516-.058 5.4935-.048 8.2354.775-2.7419 1.52-5.4935 2.296-8.2354.881-.0097 1.773-.0097 2.655 0 .009 4.4568-.02 8.904.019 13.3608-.727.0484-1.463.0193-2.19.0193.077-.9107.039-1.8312.049-2.7516-.029-1.9183.155-3.8367 0-5.7551-.756 2.8582-1.647 5.668-2.461 8.5067h-2.48c-.02-4.4568 0-8.9137.057-13.3801Zm-8.777.0096h2.131c.01 1.8603-.01 3.7303.01 5.6001h.707c.649-1.8698 1.288-3.7398 1.957-5.6001.765.0097 1.522 0 2.287.0097-.737 2.151-1.483 4.3019-2.2 6.4624.698 2.3254 1.628 4.6022 2.374 6.9178h-2.277c-.697-1.9087-1.385-3.8076-2.073-5.7163h-.775c-.01 1.9087 0 3.8173-.01 5.7163h-2.131c-.01-4.4665 0-8.9331 0-13.3899ZM100 18.0652h5.658v2.0734h-3.556c0 1.153.01 2.2962 0 3.4491.989.0194 1.987 0 2.974.0097-.008.6879-.008 1.3758 0 2.0638-.997.0096-1.985-.0194-2.984.0096.03 1.2305.01 2.461.01 3.7011h3.547c0 .6879.009 1.3855 0 2.0831h-5.6587C100 26.9885 100 22.5316 100 18.0652Zm-8.623.0096c.717 0 1.4436-.0096 2.1606 0 .0194 1.9572-.0388 3.924.0291 5.8811.0969 1.0077 1.3079.8236 2.0249.8236v-6.7143c.7169-.0097 1.4339 0 2.1606 0V31.455c-.717 0-1.434-.0097-2.151.0097-.0193-1.5405-.0096-3.0713-.0096-4.6118-1.0173-.0194-2.1218.0775-3.0326-.4748-.8332-.5135-1.1433-1.5405-1.182-2.4609 0-1.9474.0097-3.8949 0-5.8424Zm-9.1462-.0096h2.1315c.0291 1.899-.0387 3.7883-.0291 5.6872-.0096.8914.0388 1.7731-.0387 2.6645.7848-2.771 1.5599-5.5517 2.3156-8.3324.8914-.029 1.7828-.0097 2.6741-.0193.0097 4.4664.0097 8.9233 0 13.3898h-2.1315c.0291-2.8387.0194-5.6776.0775-8.5164-.8623 2.8291-1.6858 5.6777-2.5094 8.5164-.8236.0097-1.6568 0-2.4803 0-.0097-4.4665-.0193-8.9234-.0097-13.3898Zm-6.2104 2.0831c0 1.5405-.0097 3.0906.0096 4.6312.6008-.0388 1.3176.1453 1.8118-.2907.4069-.6298.1841-1.4243.2422-2.1218-.0581-.6491.1744-1.4049-.2713-1.9571-.4747-.4457-1.2014-.2132-1.7923-.2616Zm-2.1316-2.0735h3.3716c.9399.0097 1.996.3198 2.4998 1.1821.6782 1.0658.4554 2.3835.4941 3.5751.0291 1.153.0194 2.4997-.9011 3.3427-.9107.7848-2.1993.6782-3.3232.6782-.0193 1.5405 0 3.081-.0096 4.6118-.7073-.0097-1.4243 0-2.1316 0V18.0748Zm-6.3558 7.3538c-.0097 1.308 0 2.616-.0097 3.9239.6395-.0775 1.4049.1938 1.9475-.2519.4069-.3682.2809-.9785.3197-1.4726-.0388-.6298.1453-1.4146-.3779-1.899-.5038-.4942-1.2595-.2326-1.8796-.3004Zm0-5.416c-.0097 1.153-.0097 2.306 0 3.4686.7073-.0194 1.8118.1647 2.0443-.7364.0679-.7266.1454-1.5017-.0872-2.1993-.3875-.717-1.2886-.4941-1.9571-.5329Zm-2.1122-1.9378h3.5074c.9398.0097 1.957.3973 2.4415 1.2402.5232.9302.4457 2.0444.4069 3.0811-.0484.775-.31 1.6858-1.1239 1.9764.7267.2423 1.153.998 1.2305 1.7247.1066.9688.0969 1.9571-.0291 2.9259-.0969.7654-.465 1.5405-1.1336 1.9572-.7169.436-1.5889.4747-2.4027.4457h-2.8873c-.0097-4.4568-.0097-8.904-.0097-13.3512Zm-5.3772 2.5482c-.252 2.1509-.5814 4.3018-.9205 6.4527.6201.0388 1.2402.0097 1.8603.0291-.3101-2.1606-.591-4.3309-.9398-6.4818Zm-1.4243-2.5675c.9592-.0388 1.9184-.0097 2.8776-.0194.7751 4.4666 1.5405 8.9427 2.2963 13.4189h-2.18c-.1066-.7848-.2229-1.5696-.3295-2.3447-.8138.0097-1.618 0-2.4319.0097-.1259.7848-.2228 1.5696-.3391 2.3447-.7266 0-1.4435-.0097-2.1702 0 .7557-4.4665 1.5502-8.9331 2.2768-13.4092Zm-9.3302.0097h6.4817c.0194.6976.0194 1.3855 0 2.0831-.7169-.0097-1.4339-.0097-2.1509 0V31.455h-2.1315c-.0096-3.7689 0-7.5378 0-11.3067-.7266 0-1.4533-.0097-2.18 0-.0193-.6879-.0193-1.3855-.0193-2.0831Zm58.3159 1.5792c.35-1.0657 1.454-1.7633 2.559-1.7536 1.007-.0872 2.131.0678 2.848.8623.863.9689.833 2.3641.814 3.5849h-2.161c-.019-.6008.068-1.2208-.145-1.7925-.243-.7363-1.415-.8235-1.812-.1744-.252.4069-.242.9108-.252 1.3758.01 2.054 0 4.1177 0 6.1718.02.4747.029 1.0269.397 1.3854.465.3779 1.289.3003 1.599-.2519.31-.5813.184-1.2789.203-1.9086.717 0 1.445 0 2.161.0096.01 1.0174.029 2.0928-.445 3.0229-.456.8914-1.454 1.3758-2.432 1.4146-.959.0678-2.025-.0679-2.733-.7848-.775-.7461-.862-1.8797-.92-2.8969-.019-1.8506 0-3.7012-.01-5.5517.01-.901.029-1.8409.329-2.7129Zm26.819-5.0575h5.659c.018.6007.018 1.2111 0 1.8118-1.89-.0097-3.769 0-5.659 0v-1.8118ZM22.7613 18.3074h16.1415v13.1767l-3.5461 2.0443-.0097-11.6653h-2.7322V35.098l-3.5655 2.0443V21.8631h-2.7322v16.8488l-3.5558 2.0443V18.3074ZM20 12h21.6543v3.5557L20 15.5654V12Z"/>
</svg>