<svg xmlns="http://www.w3.org/2000/svg" viewBox="0 0 200 50">
	<path class="bg-logo" fill="#006636" d="M0 0h200v50H0z"/>
	<g fill="#fff">
		<path d="M115.244 32.365c.386.4329.858.7783 1.384 1.0138.527.2354 1.097.3555 1.673.3525h4c.044-.0006.087-.0143.123-.0394.036-.0251.065-.0604.081-.1016.017-.0412.021-.0865.013-.1303-.008-.0437-.029-.084-.06-.1158l-8.09-8.5847 6.921-7.0362c.029-.0344.048-.076.055-.1203.008-.0444.003-.09-.013-.132-.016-.0419-.043-.0787-.078-.1063-.035-.0278-.077-.0455-.12-.0513h-4.652l-4.496 4.8958-3.056-3.5067c-.38-.4353-.847-.7841-1.37-1.0234-.523-.2394-1.09-.364-1.664-.3657h-3.933c-.202 0-.269.296-.157.4099l7.237 7.6511-7.799 7.9698c-.03.0318-.051.0721-.06.1158-.008.0438-.004.0891.013.1303s.045.0765.081.1016c.037.0251.08.0388.124.0394h4.652l5.304-5.7155 3.887 4.3492Zm-8.292 7.8127c0 .9724 0 2.2191-.848 2.0446v.4986c1.327.2992 1.435-1.122 1.435-2.4933v-1.0224h1.262v3.5157h.587v-4.0642h-2.436v1.521Zm4.934.1089h-.972v-1.6299h-.705v4.0873h1.92c.173.0305.351.0203.519-.0297.169-.0499.324-.1385.455-.2589.131-.1205.234-.2698.301-.4369.066-.1671.097-.3476.087-.5282 0-1.1284-.997-1.2037-1.605-1.2037Zm0 1.981h-.948v-1.4794h.827c.34 0 1.045 0 1.045.7021-.024.2256-.049.7773-.948.7773h.024ZM60.4289 5.00002c-2.5332-.00346-5.0357.54252-7.3282 1.59879-2.2925 1.05627-4.3182 2.59666-5.9319 4.51079-.4199.4983 0 .8882.6409.5849 2.3416-1.0826 4.9031-1.6307 7.4919-1.6032 3.4816 0 6.8206 1.3559 9.2826 3.7693 2.4618 2.4134 3.8449 5.6867 3.8449 9.0998 0 1.249-.251 2.4857-.7386 3.6397-.4875 1.1539-1.2022 2.2023-2.103 3.0855-.901.8832-1.9705 1.5838-3.1476 2.0617-1.1771.478-2.4387.724-3.7127.724-1.8171 0-3.5597-.7076-4.8445-1.9671-1.2848-1.2595-2.0066-2.9678-2.0066-4.749 0-1.1837.4797-2.3189 1.3334-3.1559.8538-.8369 2.0118-1.3072 3.2192-1.3072.3762-.0028.7493.0674 1.0978.2066.3485.1391.6653.3445.9324.6043s.4791.5689.6237.9094.2192.7057.2191 1.0746c.0001.2209-.0447.4396-.1316.6434-.0868.2038-.2142.3887-.3746.5439-.1604.1552-.3506.2776-.5596.3601-.209.0826-.4327.1237-.658.1208-.6188 0-.8398.3249-.3315.8449.2664.27.5859.484.9392.6293.3533.1452.7331.2186 1.1161.2156 1.2095-.0057 2.3674-.4807 3.2205-1.3211.8532-.8405 1.3322-1.9779 1.3322-3.1635 0-1.7813-.7218-3.4896-2.0067-4.7491-1.2848-1.2596-3.0274-1.9671-4.8443-1.9671-2.5714.0057-5.0357 1.0096-6.8539 2.792-1.8183 1.7825-2.8423 4.1983-2.8481 6.719.0288 3.4063 1.4203 6.6655 3.8754 9.0762 2.4551 2.4108 5.7773 3.7806 9.2521 3.8145 2.3024.0811 4.5979-.2935 6.7495-1.1013 2.1514-.8079 4.1149-2.0324 5.773-3.6006 1.6581-1.5681 2.9769-3.4477 3.8776-5.5266.9008-2.0788 1.365-4.3142 1.365-6.5728 0-2.2586-.4642-4.494-1.365-6.5728-.9007-2.0789-2.2195-3.9585-3.8776-5.5266-1.6581-1.56814-3.6216-2.79268-5.773-3.60052-2.1516-.80783-4.4471-1.1824-6.7495-1.10133v-.04333ZM98.7164 39.1603h1.3176v3.6009h.648v-3.6009H102v-.5036h-3.2836v.5036Z"/>
		<path d="m101.905 19.8629-2.473-2.5504H82.5437c-.065 0-.1274.0264-.1734.0734-.0459.0469-.0717.1106-.0717.1771v2.4593c-.0002.0318.0062.0634.0188.0927.0125.0292.031.0554.0541.0769.0231.0215.0504.0377.08.0477.0297.0101.0611.0135.0922.0104h6.684v9.3816c0 .5401.1045 1.075.3074 1.5738.2029.4988.5003.9516.8751 1.3325.3747.381.8195.6824 1.3087.887.489.2046 1.0129.3085 1.5415.3054h.9135c.059 0 .1158-.0239.1575-.0666.0418-.0427.0653-.1007.0653-.1611V20.25h7.4863c.033-.0185.062-.0453.082-.0781.021-.0327.032-.0703.035-.1092.002-.0388-.006-.0775-.022-.1125-.017-.035-.042-.0651-.073-.0873Zm24.564 13.8561h10.573c.663.0461 1.329-.0482 1.956-.2772.626-.229 1.2-.5877 1.686-1.054.486-.4662.873-1.0299 1.139-1.6562.265-.6263.401-1.3018.401-1.9846 0-.6827-.136-1.3583-.401-1.9846-.266-.6263-.653-1.19-1.139-1.6562-.486-.4662-1.06-.825-1.686-1.054-.627-.2289-1.293-.3233-1.956-.2772h-9.421v-3.5271h9.133l2.46-2.5258c.028-.0344.047-.0759.054-.1203.007-.0443.002-.0899-.013-.1318-.016-.0419-.043-.0786-.077-.1064-.035-.0277-.076-.0454-.119-.0511h-16.315c-.061.0057-.117.0346-.158.0809-.041.0463-.064.1068-.064.1694v12.0603c0 1.0785.415 2.1134 1.153 2.8803.739.7668 1.743 1.2036 2.794 1.2156Zm1.152-7.0313h7.138c.495.0535.954.2936 1.288.6739.333.3802.518.8737.518 1.3854 0 .5117-.185 1.0052-.518 1.3855-.334.3802-.793.6203-1.288.6739h-6.008c-.15 0-.299-.0308-.437-.0905-.139-.0597-.264-.1473-.37-.2574-.105-.1103-.188-.2409-.243-.3843-.056-.1435-.083-.2968-.08-.4511v-2.9354Zm-23.392 11.9764c-.411-.0371-.823.0509-1.182.2526-.36.2017-.65.5078-.833.878-.184.3702-.251.7874-.194 1.1968.056.4094.235.7921.513 1.0978.277.3058.639.5204 1.041.6157.4.0953.821.0668 1.205-.0815.385-.1484.716-.4099.95-.7502.233-.3403.359-.7436.361-1.157.033-.2618.01-.5277-.069-.7793-.08-.2518-.212-.4832-.389-.6784-.177-.1952-.394-.3494-.636-.4521-.243-.1026-.505-.1512-.767-.1424Zm0 3.6202c-.276 0-1.149 0-1.149-1.5911 0-1.591.873-1.5679 1.149-1.5679s1.171 0 1.171 1.5679c0 1.568-.872 1.5911-1.171 1.5911Zm16.652-3.1249h1.318v3.6009h.647v-3.6009h1.318v-.5036h-3.283v.5036Zm27.574 2.5312V39.93c0-1.1121-.821-1.2742-1.369-1.2742-1.221 0-1.473.7645-1.473 1.2742h.568c0-.7878.695-.8109.905-.8109.758 0 .779.6024.779.7645 0 .1622-.168.4865-.674.5328-1.389.139-1.683.5329-1.683 1.2047 0 .6718.484 1.1352 1.2 1.1352.233.0195.467-.0331.675-.1518.209-.1186.383-.2987.503-.52 0 .4865.294.556.632.556h.273v-.4634c-.336-.0232-.358-.1853-.336-.4865Zm-.59-.7182c0 1.0657-.589 1.3205-1.074 1.3205-.085.0066-.17-.0066-.251-.039-.08-.0322-.154-.0828-.216-.1484-.061-.0655-.11-.1445-.142-.2321-.031-.0874-.046-.1812-.043-.2754 0-.6256.442-.6487.989-.7414.548-.0927.569 0 .758-.1853l-.021.3011Zm-4.756-1.7391c-.275-.0217-.548.0478-.781.1978-.231.1499-.409.3722-.504.6331 0-.8917.422-1.2363.903-1.3579.482-.1215 1.626 0 1.666-.8714h-.482c0 .304-.341.1418-1.224.3445-.883.2027-1.284.5877-1.284 2.3306 0 .6485 0 2.2496 1.645 2.2496.224.0066.447-.0348.654-.1214.206-.0866.394-.2166.547-.3812.154-.1647.271-.3604.344-.5742.073-.2138.101-.4408.081-.6661.028-.224.009-.4515-.056-.6673-.066-.2158-.177-.415-.325-.584-.148-.169-.331-.3039-.535-.3957-.204-.0918-.426-.1383-.649-.1364Zm0 3.1209c-.863 0-1.043-.7903-1.043-1.297 0-.5066.119-1.4186 1.043-1.4186.923 0 1.023.912 1.023 1.4389s-.421 1.3376-1.084 1.3376l.061-.0609Zm11.936-1.7847 1.858-1.9137h-.821l-1.689 1.7878v-1.7878h-.677v4.1045h.677v-2.0397l1.786 2.0397H157l-1.955-2.1908Zm-2.84-.2266h-1.926v-1.6871h-.667v4.1045h.667v-1.9138h1.926v1.9138h.691v-4.1045h-.691v1.6871Zm-13.675 1.662-1.21-3.3491h-.842v4.1045h.605v-3.2987l1.21 3.2987h.474l1.189-3.2987h.021l-.021.2266v3.0721h.626v-4.1045h-.842l-1.21 3.3491Zm-20.933-2.8455h1.318v3.6009h.647v-3.6009h1.319v-.5036h-3.284v.5036Zm15.248 2.7699v-3.2735h-.472v4.1045h.54l1.434-3.2735v3.2735h.489v-4.1045h-.54l-1.451 3.2735Zm-7.371 0v-3.2735h-.489v4.1045h.54l1.434-3.2735v3.2735h.489v-4.1045h-.54l-1.434 3.2735Zm-11.055-1.9863c-.009.2988.063.5915.202.8166.138.2251.333.3652.543.3908l-.85 1.6099h.549l.761-1.6099h.656v1.6099h.496v-4.1001h-1.435c-.122-.0148-.245.0079-.36.0668-.116.0588-.221.1523-.308.2741-.088.1219-.156.2691-.199.4317-.044.1626-.062.3366-.055.5102Zm1.914-.7797v1.4841h-.709c-.567 0-.691-.4025-.691-.7295 0-.7546.479-.7546.674-.7546h.726Zm15.114-.5075h-.652l-.884 1.5108-.885-1.5108h-.673l1.221 1.9641-1.305 2.1404h.652l.99-1.6871.967 1.6871h.674l-1.305-2.1404 1.2-1.9641Z"/>
	</g>
</svg>