<svg xmlns="http://www.w3.org/2000/svg" viewBox="0 0 200 50">
	<path class="bg-logo" fill="#333" d="M0 0h200v50H0z"/>
	<path fill="#FFDD2D" d="M20 12h27.3659v13.9367c0 3.5738-1.9039 6.8686-4.9995 8.6623l-8.6835 5.115-8.6742-5.115c-3.0956-1.7803-4.9954-5.0885-4.9954-8.6623V12H20Z"/>
	<path fill="#333" d="M27.3677 19.3359v4.3311c.5978-.6642 1.674-1.116 2.8963-1.116h1.3418v5.0353c0 1.3418-.3587 2.511-.9034 3.162h5.9592c-.5447-.651-.8736-1.8202-.8736-3.162V22.551h1.3051c1.2356 0 2.3204.4518 2.905 1.116v-4.3311H27.3677Z"/>
	<g fill="#fff">
		<path d="M172.618 18.7148h-3.158v1.1672c-4.424.0953-7.368 1.9688-7.368 5.2751 0 3.3062 2.944 5.0346 7.368 5.1297v1.1673h3.158v-1.1673c4.448-.0951 7.382-1.8235 7.382-5.1297 0-3.3063-2.934-5.1798-7.382-5.2751v-1.1672Zm-3.158 9.0924c-2.429-.0953-3.8-1.0921-3.8-2.6501s1.366-2.6751 3.8-2.7703v5.4204Zm3.158-5.4204c2.454.0952 3.786 1.2173 3.786 2.7703 0 1.5529-1.332 2.5548-3.786 2.6501v-5.4204ZM153.672 18.7148h-3.158v1.1672c-4.424.0953-7.368 1.9688-7.368 5.2751 0 3.3062 2.944 5.0346 7.368 5.1297v1.1673h3.158v-1.1673c4.448-.0951 7.382-1.8235 7.382-5.1297 0-3.3063-2.934-5.1798-7.382-5.2751v-1.1672Zm-3.158 9.0924c-2.429-.0953-3.799-1.0921-3.799-2.6501s1.365-2.6751 3.799-2.7703v5.4204Zm3.158-5.4204c2.454.0952 3.786 1.2173 3.786 2.7703 0 1.5529-1.332 2.5548-3.786 2.6501v-5.4204ZM134.542 19.0547c-4.738 0-7.584 2.6751-7.584 6.1266 0 3.4516 2.846 6.1267 7.584 6.1267 4.739 0 7.559-2.6751 7.559-6.1267 0-3.4515-2.845-6.1266-7.559-6.1266Zm0 9.4329c-2.36 0-3.867-1.4077-3.867-3.3063 0-1.8986 1.507-3.2812 3.867-3.2812 2.36 0 3.867 1.3877 3.867 3.2812 0 1.8936-1.532 3.3063-3.867 3.3063Z"/>
		<path d="m118.169 26.5696 4.208 4.3783h4.694l-5.861-6.0265 5.64-5.5405h-4.423l-4.253 4.3532h-.971v-4.3532h-3.527V30.953h3.527v-4.3784h.971l-.005-.005ZM107.136 30.945c.802 0 1.533-.0751 2.214-.2654 1.824-.511 3.016-1.9938 3.016-4.0127 0-2.0189-1.022-3.2562-2.65-3.8673-.776-.2906-1.703-.3157-2.575-.3157h-3.622V19.373h-3.5263v11.572h7.1483-.005Zm-.606-5.7359c.486 0 .947 0 1.363.1453.581.1953.921.6813.921 1.2624s-.34 1.1172-.901 1.3626c-.391.1703-.777.1703-1.388.1703h-3.016v-2.9406h3.021ZM94.3618 26.6458v4.3031h3.5259V19.377h-3.5259v4.5791h-5.5777V19.377h-3.5268v11.5719h3.5268v-4.3031h5.5777ZM74.0482 26.1059V19.373h-3.5267v11.572h3.1109l5.9935-6.7327v6.7327h3.526V19.373h-3.1155l-5.9882 6.7329ZM64.5222 30.9474v-8.4207h4.9469v-3.1576h-13.683v3.1576h4.9469v8.4207h3.7892Z"/>
	</g>
</svg>