<svg xmlns="http://www.w3.org/2000/svg" viewBox="0 0 200 50">
  	<path class="bg-logo" fill="#e60020" d="M0 0h200v50H0V0Z"/>
  	<path fill="#fff" d="M64.1 10C50.8 10 40 16.9 40 25.4s10.8 15.4 24.1 15.4 24.1-6.9 24.1-15.4S77.4 10 64.1 10Zm13.8 7.2c0 1.9-3.4 3.6-8.3 4.3-.5-4.1-1.8-7.4-3.5-8.9 6.7.3 11.8 2.3 11.8 4.6ZM64.1 15c1.5 0 2.9 2.8 3.3 6.7-1.1 0-2.2.1-3.3.1s-2.2 0-3.3-.1c.4-3.9 1.8-6.7 3.3-6.7Zm-12.3 0c1.3-.6 2.6-1.1 3.9-1.5 2.1-.5 4.2-.8 6.3-.9-1.7 1.5-3 4.8-3.5 8.9-4.9-.7-8.3-2.4-8.3-4.3s.6-1.5 1.6-2.2Zm-8 10.7c0-2.3.9-4.5 2.5-6.5.7 2.8 5.5 5.1 12 5.9v.4c0 6.6 1.9 12.1 4.4 13.6-10.6-.5-18.9-6.4-18.9-13.5Zm20.3 8.5c-1.8 0-3.3-3.8-3.4-8.7 1.1 0 2.3.1 3.4.1s2.3 0 3.4-.1c-.2 4.9-1.6 8.7-3.4 8.7Zm1.4 5c2.6-1.5 4.5-7 4.5-13.6v-.4c6.7-.9 11.6-3.3 12-6.1 1.7 2 2.6 4.2 2.6 6.7 0 7.2-8.5 13.1-19.2 13.5ZM95.4 10.5h1V40h-1zM109.2 32.9H106v-2.5h5.6v-2h-8v11.5h5.2c2.1 0 3.7-1.7 3.7-3.7s-1.5-3.4-3.4-3.4Zm-.7 5.1H106v-3.2h2.9c.8 0 1.4.6 1.4 1.4s-.8 1.8-1.8 1.8ZM121.3 35.1c0-1.4-.3-3.1-1.9-3.6-1.3-.4-3.4 0-4.6.6l.6 1.7c.9-.3 2-.7 3-.4.9.2.8.9.8 1.6h-1.6c-.8 0-1.5 0-2.2.5-.6.4-1.1 1.1-1.1 2.1 0 1.5 1.2 2.7 2.7 2.7 1 0 2.1-.2 2.9-.9l.7.9 1.5-1.2-.8-1v-3Zm-2.2 2.6c0 .9-.9.9-1.6.8-.6 0-1.2-.2-1.2-.9s.5-1.2 1.2-1.2h1.6v1.3ZM129 34.8h-2.8v-3.1h-2.4V40h2.4v-3.3h2.8V40h2.4v-8.3H129v3.1zM139.7 33.7c0-.1.2-.2.3-.2h.8v-1.9c-.7 0-1.9 0-2.6 1.1l-1.6 2.1h-.6v-3.1h-2.4V40h2.4v-3.2h.5l3 3.5L141 39l-2.8-3.3 1.5-2ZM128.1 12.7c1.3 0 2.6-.8 3.1-2l-1.5-.7c-.3.6-.9 1-1.6 1-.7 0-1.3-.4-1.6-1l-1.5.7c.6 1.2 1.8 2 3.1 2ZM103.6 12.7h3.4v9.5h2.3v-9.5h3.4v-2h-9.1v2zM159.2 20.4v-3.1c0-1.4-.3-3.1-1.9-3.6-1.3-.4-3.4 0-4.6.6l.6 1.7c.9-.3 2-.7 3-.4.9.3.8 1 .8 1.6h-1.6c-.8 0-1.5 0-2.2.5-.6.4-1.1 1.1-1.1 2.1 0 1.5 1.2 2.7 2.7 2.7 1 0 2.1-.2 2.9-.9l.7.9 1.5-1.2-.8-1Zm-2.1-.5c0 .9-.9.9-1.6.8-.6 0-1.2-.2-1.2-.9s.5-1.2 1.2-1.2h1.6v1.3ZM118.2 13.7c-2.6 0-4.2 1.9-4.2 4.4s1.6 4.5 4.2 4.4c2.6 0 4.2-1.9 4.2-4.4s-1.6-4.5-4.2-4.4Zm0 7c-1.1 0-2-1.2-2-2.6s.9-2.6 2-2.6 2 1.2 2 2.6-.9 2.6-2 2.6ZM138 13.7c-2.6 0-4.2 1.9-4.2 4.4s1.6 4.5 4.2 4.4c2.6 0 4.2-1.9 4.2-4.4s-1.6-4.5-4.2-4.4Zm0 7c-1.1 0-2-1.2-2-2.6s.9-2.6 2-2.6 2 1.2 2 2.6-.9 2.6-2 2.6ZM129.4 15.4l-2.7 2.8v-4.3h-2.4v8.3h2.4v-1.4l2.7-2.8v4.2h2.4v-8.3h-2.4v1.5zM143.4 15.8h2.6v6.4h2.4v-6.4h2.5v-1.9h-7.5v1.9z"/>
</svg>