<svg xmlns="http://www.w3.org/2000/svg" viewBox="0 0 200 50">
	<path class="bg-logo" fill="#17375B" d="M0 0h200v50H0z"/>
	<path fill="#A38959" d="m54.6481 32.5057-17.436-17.3444-17.5389 17.3501h-1.1498L37.2007 14 55.815 32.5057h-1.1669ZM37.1443 16.6312l.2746.2632 15.8914 15.6168h-1.0812L37.1558 17.7067 22.1453 32.5112h-1.0697l15.7998-15.6111.2689-.2689Zm22.3264 19.5815-1.9849-2.0136H17.0365L15 36.2298l44.4707-.0171Zm-28.2589-3.7586v-.0114c-.2173-.4633-.2802-.715-.2802-1.3329V27.689l.5491.0286c.2803.019.6867.5981 1.0196 1.0724l.0001.0001c.068.0968.1329.1893.1931.2718l.1029-.0343-.2746-1.5388h-4.1759l-.2689 1.5388.0973.0343c.0435-.0606.0899-.1265.1386-.1957.3424-.486.7951-1.1286 1.0856-1.1486l.5491-.0286v3.4208c0 .6179-.0686.8696-.286 1.3329v.0114h1.5502Zm9.5587-2.8546-.2402 2.0136c-.3147.2403-1.6075.8466-3.0776.8466-2.6028 0-4.1988-1.8992-4.1988-4.3189 0-2.4198 1.7733-4.2961 4.4448-4.2961 1.1441 0 2.2081.3147 2.7801.5549l.2517 1.842-.1373.0343c-.9038-1.4816-1.6761-2.0823-2.9975-2.0823-2.2595 0-3.2664 1.6876-3.2664 3.9472 0 2.2595.9839 3.97 3.1348 3.97 1.6418 0 2.4999-.984 3.1806-2.5456l.1258.0343Zm2.0594 2.8604c1.4385 0 2.1137-.6721 2.1166-1.5446v.0058-.0115.0057c-.0024-.7353-.4731-1.3271-2.0021-1.3271h-.5721v-1.9107l1.0068.0516c.2231.0123.5507.3918.8491.7374.1147.1329.2251.2608.3236.3609l.103-.0343-.2631-1.3043h-3.2778v.0114c.2173.4634.286.7208.286 1.3386v2.271c0 .6236-.0687.8753-.286 1.3386v.0115h1.716Zm-.4576-2.6601h.3661c.7323 0 1.1956.3204 1.1956 1.1213 0 .6635-.3203 1.3157-1.2013 1.3157-.0972 0-.2174 0-.3604-.0115v-2.4255Z"/>
	<path fill="#fff" d="M158.116 19.0612c-.379.0645-.738.111-1.081.1553-.346.0448-.676.0875-.993.1445-.932.162-1.523.4456-1.888 1.1586-.283.5672-.462 1.345-.567 2.455h.065c.583-.8426 1.62-1.4098 2.917-1.4098 2.074 0 3.484 1.6043 3.484 3.9296 0 2.3254-1.24 4.2456-3.914 4.2456-2.406 0-3.945-1.742-3.945-4.7236 0-3.962 1.952-6.4333 6.66-7.3731.461-.0973.68-.2674.842-.5105h.146c-.081 1.1748-.494 1.7744-1.709 1.9203l-.017.0081Zm-4.61 6.2793c0 2.3578.891 3.9782 2.633 3.9782 1.54 0 2.601-1.3774 2.601-3.5812s-1.191-3.3139-2.77-3.3139c-1.143 0-2.01.5429-2.407 1.1425-.033.478-.049.9966-.049 1.7744h-.008ZM70.4489 29.505v-.0324c-.5185-.8102-.6319-1.2559-.6319-2.3497v-8.7991l2.0579.0648c.5038.028 1.2736 1.2163 1.9126 2.2027.1008.1557.1985.3064.2913.4468l.1863-.0648-.6319-3.0708h-8.9531l-.632 3.0708.1864.0648c.0732-.1107.1497-.2278.2288-.3488.6562-1.0038 1.485-2.2718 1.9912-2.3007l2.0418-.0648v8.7991c0 1.0857-.1053 1.5395-.632 2.3497v.0324h2.5846Zm4.8285 3.5649v.0325H77.2868v-.0325c-.3647-.7454-.3971-1.4422-.3971-2.617v-1.191c.4862.2754 1.1344.4779 2.0094.4779 2.7626 0 4.0919-1.9202 4.0919-4.2942s-1.3611-3.9782-3.3465-3.9782c-1.1586 0-2.1471.5347-2.7143 1.3773l-.1134-.0162v-1.4422l-1.8716.8589v.0324c.3808.316.7292.8021.7292 1.6286v6.5629c0 1.191-.0649 1.8554-.397 2.6008Zm6.393-7.365c0 2.2363-1.0941 3.5813-2.6173 3.5813-.8913 0-1.742-.4457-2.1715-1.4747v-4.4401c.3646-.5185 1.1425-1.0613 2.1715-1.0613 1.4908 0 2.6173 1.1586 2.6173 3.3948Zm4.3112 4.0431c-1.1261 0-1.9043-.6158-1.9043-1.6367 0-1.8716 2.5364-2.7224 4.3915-2.9655v-1.2639c0-.9804-.3486-1.6205-1.6613-1.6205-.8425 0-1.6605.2674-2.2847.7292l-.1454-.162c.6806-.794 1.7416-1.3612 3.0463-1.3612 1.7907 0 2.2522.9966 2.2522 2.1228v4.5616c0 .4457.1866.7454.6646.7454.332 0 .5836-.162.8266-.4294l.1295.1135c-.2025.478-.648 1.11-1.5397 1.11-.826 0-1.223-.5429-1.2556-1.1587-.5431.632-1.4421 1.2073-2.5197 1.2073v.0081Zm-.7291-1.9689c0 .6968.4615 1.1749 1.3286 1.1749.8101 0 1.5072-.397 1.8877-.8265v-2.5846c-1.5882.2674-3.2163.9317-3.2163 2.2362Zm8.8062-2.4873V24.36c0-1.191.0166-1.8554.3811-2.617v-.0325h-1.9853v.0325c.3161.7616.3971 1.4098.3971 2.6008v2.5361c0 1.191-.081 1.8553-.3971 2.6008v.0324h1.9853v-.0324c-.3645-.7455-.3811-1.426-.3811-2.617v-1.1263h3.76v1.1425c0 1.1424-.065 1.8553-.397 2.6008v.0324h1.9846v-.0324c-.3645-.7455-.3805-1.4098-.3805-2.617V24.36c0-1.2072.016-1.8554.3805-2.617v-.0325h-1.9846v.0325c.332.7616.397 1.4584.397 2.6008v.948h-3.76Zm13.4263 2.2851.178.1135c-.462 1.1424-1.572 2.0579-3.184 2.0579-2.123 0-3.565-1.5556-3.565-3.9458 0-2.6332 1.969-4.3267 4.157-4.3267 1.077 0 1.79.2998 2.187.4943l.186 1.7744-.162.0486c-.599-1.0128-1.409-1.8716-2.504-1.8716-1.555 0-2.616 1.264-2.616 3.3624 0 2.0986 1.077 3.4274 2.9 3.4274.916 0 1.856-.3485 2.423-1.1263v-.0081Zm8.021.1135-.178-.1135v.0081c-.568.7778-1.507 1.1263-2.423 1.1263-1.823 0-2.901-1.3288-2.901-3.4274 0-2.0984 1.062-3.3624 2.618-3.3624 1.093 0 1.904.8588 2.504 1.8716l.162-.0486-.187-1.7744c-.397-.1945-1.11-.4943-2.188-.4943-2.187 0-4.156 1.6935-4.156 4.3267 0 2.3902 1.442 3.9458 3.565 3.9458 1.613 0 2.723-.9155 3.184-2.0579Zm2.853-5.5018c-.479.0324-.827.4619-1.71 1.7582l-.146-.0486.397-2.1877h6.433l.397 2.1877-.146.0486c-.891-1.2963-1.24-1.7258-1.709-1.7582l-1.159-.0648v4.7399c0 1.191.016 1.8716.381 2.6171v.0324h-1.977v-.0324c.332-.7455.397-1.4099.397-2.6009v-4.7561l-1.158.0648Zm6.708 10.8813v.0325h2.009v-.0325c-.364-.7454-.397-1.4422-.397-2.617v-1.191c.486.2754 1.135.4779 2.01.4779 2.763 0 4.092-1.9202 4.092-4.2942s-1.362-3.9782-3.347-3.9782c-1.159 0-2.147.5347-2.714 1.3773l-.114-.0162v-1.4422l-1.871.8589v.0324c.381.316.729.8021.729 1.6286v6.5629c0 1.191-.065 1.8554-.397 2.6008Zm6.393-7.365c0 2.2363-1.094 3.5813-2.617 3.5813-.892 0-1.742-.4457-2.172-1.4747v-4.4401c.365-.5185 1.143-1.0613 2.172-1.0613 1.491 0 2.617 1.1586 2.617 3.3948Zm6.7 4.0431c-2.269 0-4.141-1.8717-4.125-4.1403 0-2.2524 1.889-4.1403 4.125-4.1403 2.236 0 4.14 1.8879 4.14 4.1403 0 2.2524-1.871 4.1403-4.14 4.1403Zm0-.4619c1.839 0 2.771-1.6771 2.771-3.6784 0-2.0013-.948-3.6784-2.771-3.6784s-2.755 1.6933-2.755 3.6784c0 1.9851.916 3.6784 2.755 3.6784Zm7.187-.9966v-3.9297c0-1.191.016-1.8554.382-2.617v-.0325h-1.978v.0325c.316.7616.397 1.4098.397 2.6008v2.5361c0 1.191-.081 1.8553-.397 2.6008v.0324h1.361l4.06-6.5791v3.9459c0 1.1424-.065 1.8553-.397 2.6008v.0324h1.993v-.0324c-.381-.7455-.397-1.4098-.397-2.617v-2.5037c0-1.2072.016-1.8554.397-2.617v-.0325h-1.378l-4.043 6.5792Zm3.096-10.055c-.017.9236-.179 1.6204-1.127 1.6204-.939 0-1.109-.7049-1.126-1.6204h-1.061c.048 1.11.681 2.0255 2.187 2.0255 1.507 0 2.139-.9155 2.204-2.0255h-1.077Zm12.696 9.8768c0 1.0209.778 1.6367 1.904 1.6367v-.0081c1.077 0 1.977-.5753 2.52-1.2073.032.6158.429 1.1587 1.256 1.1587.891 0 1.336-.632 1.539-1.11l-.13-.1135c-.243.2674-.494.4294-.826.4294-.478 0-.664-.2997-.664-.7454v-4.5616c0-1.1262-.462-2.1228-2.253-2.1228-1.304 0-2.366.5672-3.046 1.3612l.146.162c.623-.4618 1.442-.7292 2.284-.7292 1.313 0 1.662.6401 1.662 1.6205v1.2639c-1.856.2431-4.392 1.0939-4.392 2.9655Zm2.503.8427c-.866 0-1.328-.4781-1.328-1.1749 0-1.3045 1.629-1.9688 3.217-2.2362v2.5846c-.381.4295-1.078.8265-1.889.8265Zm7.479-4.594v.9318h3.759v-.948c0-1.1424-.064-1.8392-.397-2.6008v-.0325h1.985v.0325c-.364.7616-.381 1.4098-.381 2.617v2.5037c0 1.2072.017 1.8715.381 2.617v.0324h-1.985v-.0324c.333-.7455.397-1.4584.397-2.6008v-1.1425h-3.759v1.1263c0 1.191.016 1.8715.381 2.617v.0324h-1.986v-.0324c.317-.7455.398-1.4098.398-2.6008v-2.5361c0-1.191-.081-1.8392-.398-2.6008v-.0325h1.986v.0325c-.365.7616-.381 1.426-.381 2.617Zm8.775 2.5037V24.36c0-1.191.016-1.8554.381-2.617v-.0325h-1.978v.0325c.316.7616.397 1.4098.397 2.6008v2.5361c0 1.191-.081 1.8553-.397 2.6008v.0324h1.978v-.0324c-.365-.7455-.381-1.426-.381-2.617Zm3.249 2.6494H185v-.0324c-.591-.316-.956-.7131-1.507-1.4746l-2.285-3.1195 1.329-1.5232c.713-.794 1.158-1.2397 1.937-1.6204v-.0325h-2.107v.0325c.364.3645.243.9317-.219 1.4584l-1.985 2.2362 2.982 4.0755Z"/>
</svg>