<svg xmlns="http://www.w3.org/2000/svg" viewBox="0 0 200 50">
	<path class="bg-logo" fill="#00446B" d="M0 0h200v50H0z"/>
	<path fill="#E30613" d="M150.519 30.6274V15.913L155 11.4336v19.1938h-4.481Z"/>
	<path fill="#C6C6C6" d="m135.797 30.6284 14.722-14.7143v14.7143h-14.722Z"/>
	<path fill="#008ECF" d="M135.797 30.6284V15.9141h14.722l-14.722 14.7143Z"/>
	<path fill="#fff" d="M106.084 31.0897c-5.595 0-9.2889-4.018-9.2889-10.072C96.7951 15.4251 100.353 11 106.247 11c4.618 0 7.985 2.9048 8.311 6.8685h-4.128c-.435-2.0904-1.983-3.3392-4.265-3.3392-3.693 0-5.133 3.312-5.133 6.5156 0 3.9636 1.956 6.4884 5.079 6.4884 2.526 0 4.047-1.5203 4.4-4.3165h4.182c-.434 4.6965-3.34 7.8729-8.609 7.8729Zm-14.5852-.4615h4.4272l-7.3333-19.221H84.247l-7.3062 19.221h4.3186l1.5752-4.2895h7.1433l1.5209 4.2895Zm-7.632-7.3572 2.553-7.1399 2.5532 7.1399h-5.1062Zm-28.7901-8.2531h5.7851v-3.5836H45.0816v3.5836h5.758v15.6102h4.2371V15.0179Zm93.2143 24.6506c1.332 0 2.228-.9502 2.228-2.3619 0-1.4118-.896-2.3891-2.228-2.3891-1.358 0-2.254.9503-2.254 2.3891 0 1.4117.896 2.3619 2.254 2.3619Zm.028-.8144c-.788-.0272-1.25-.5973-1.25-1.5747 0-.923.462-1.5474 1.25-1.5474.76 0 1.222.5973 1.222 1.5474 0 .9774-.462 1.5747-1.222 1.5747Zm-61.0573-1.5203c0 1.4117-.8963 2.362-2.2272 2.362-1.358 0-2.2543-.9503-2.2543-2.362 0-1.4389.8963-2.389 2.2543-2.389 1.3309.0271 2.2272.9773 2.2272 2.389Zm-3.4494 0c0 .9774.4617 1.5475 1.2494 1.5746.7605 0 1.2222-.5972 1.2222-1.5746 0-.9501-.4617-1.5474-1.2222-1.5474-.7877 0-1.2494.5973-1.2494 1.5474Zm-31.3974 2.2804h1.0321l-1.7111-4.5609h-1.0322l-1.7382 4.5609h1.0321l.3803-1.0045h1.6839l.3531 1.0045Zm-1.7926-1.7647.5975-1.6831.5976 1.6831h-1.1951Zm-1.847.2993c0-.9774-.679-1.4389-1.6025-1.4389h-1.195v-.8144h2.3901v-.8144H45v4.5338h2.1185c.9778 0 1.6568-.4616 1.6568-1.4661Zm-2.7975-.6515h1.0592c.4618 0 .7877.1629.7605.6515 0 .4887-.2716.6516-.7605.6516h-1.0592v-1.3031Zm11.7061 2.117h-1.005v-1.9547H54.832v1.9547h-1.0049v-4.5338h1.0049v1.7103h1.8469v-1.7103h1.005v4.5338Zm5.0791 0-1.9555-2.742 1.7926-1.7918h-1.2495l-1.7925 1.8732v-1.8732h-.9778v4.5338h.9778v-1.4661l.5703-.5701 1.3852 2.0362h1.2494Zm6.2469 0H68.005v-1.9547h-1.847v1.9547h-1.0049v-4.5338h1.0049v1.7103h1.847v-1.7103h1.0049v4.5338Zm1.8741-3.7193h2.3901v-.8145H69.879v4.5338h3.4766v-.8416H70.884v-1.1131h2.2272v-.7873H70.884v-.9773Zm6.9802 3.7193h-1.0049v-3.6922h-1.847v3.6922h-1.0049v-4.5338h3.8568v4.5338Zm4.5085-3.0678c0-1.0044-.679-1.466-1.6567-1.466h-1.9556v4.5338h.9777v-1.629h1.0322c.8963 0 1.6024-.4614 1.6024-1.4388Zm-1.7382.6516h-.8692V35.895h.8963c.4346 0 .7605.1629.7605.6515 0 .5158-.353.6516-.7876.6516Zm10.0766 2.389v-.4886c1.1679-.0272 1.9556-.6787 1.9827-1.819 0-1.0859-.7876-1.7374-1.9827-1.7647v-.4343h-.9778v.4343c-1.1678.0273-1.9556.6788-1.9556 1.7647 0 1.1403.7878 1.7646 1.9556 1.819v.4886h.9778Zm-1.9828-2.2805c0-.6515.3531-1.0316 1.005-1.0587v2.1447c-.6247-.0272-1.005-.4887-1.005-1.086Zm1.9828 1.0588v-2.1175c.6518.0271 1.0049.4072 1.0049 1.0316 0 .6244-.3802 1.0588-1.0049 1.0859Zm6.4913 1.2489h-1.005v-3.1492h-.0271l-1.7111 3.1492h-1.1137v-4.5338h1.005v3.1492h.0272l1.7111-3.1492h1.1136v4.5338Zm3.6126-.0001h1.005v-4.5609h-3.151l-.0814 2.7692c-.0272.923-.2445 1.0587-.5161 1.0587-.118 0-.2358-.0409-.3182-.0695h-.0001l-.0148-.0052-.02-.0067v.8144c.1358.0543.3802.0815.5704.0815.7604 0 1.195-.5702 1.2493-1.8462l.0543-1.9274h1.2226v3.6921Zm1.847.0001v-4.5338h.977v1.6289h1.06c.923 0 1.602.4615 1.602 1.4388.027 1.0045-.651 1.4661-1.629 1.4661h-2.01Zm1.928-2.1176h-.924v1.3031h.951c.489 0 .761-.1629.761-.6516 0-.4886-.327-.6515-.788-.6515Zm5.187 2.1176h1.005v-4.5338h-1.005v1.7103h-1.847v-1.7103h-1.004v4.5338h1.004v-1.9547h1.847v1.9547Zm3.64 0h-1.766v-4.5338h.979v1.6289h.814c.924 0 1.603.4615 1.603 1.4388.027 1.0045-.652 1.4661-1.63 1.4661Zm-.082-2.1176h-.705v1.3031h.705c.49 0 .761-.1629.761-.6516.028-.4886-.299-.6515-.761-.6515Zm3.233-2.4162v4.5338h-1.005v-4.5338h1.005Zm4.725 4.5065-1.602-2.3618 1.467-2.1719h-1.086l-.924 1.466-.897-1.466h-1.167l1.466 2.1719-1.602 2.3618h1.141l1.004-1.5745 1.006 1.5745h1.194Zm6.873-.027h-1.033l-.353-1.0045h-1.684l-.38 1.0045h-1.032l1.739-4.5338h1.031l1.712 4.5338Zm-2.255-3.4207-.598 1.6832h1.195l-.597-1.6832Zm6.844 3.4207-1.955-2.7421 1.792-1.7917h-1.249l-1.792 1.8732v-1.8732h-.978V39.56h.978v-1.4661l.57-.57 1.385 2.0361h1.249Zm3.776-3.6922h-1.358V39.56h-1.005v-3.6922h-1.358v-.8416h3.721v.8416Zm3.341 3.6922h1.004v-4.5338h-1.113l-1.712 3.1492h-.027v-3.1492h-1.004V39.56h1.113l1.711-3.1493h.028V39.56Zm4.047-4.5338c.787 0 1.439.3257 1.439 1.1402 0 .4344-.245.7602-.624.923.461.1358.814.4887.814 1.1131 0 .8959-.678 1.3575-1.548 1.3575h-2.281v-4.5338h2.2Zm-1.195 1.846h.896c.353 0 .76-.0814.76-.5158 0-.4615-.38-.543-.76-.543h-.896v1.0588Zm0 1.9004h1.004c.435 0 .842-.0814.842-.6244 0-.5429-.435-.6243-.896-.6243h-.95v1.2487Zm10.619-3.7464c.788 0 1.439.3257 1.439 1.1402 0 .4344-.244.7602-.624.923.462.1358.815.4887.815 1.1131 0 .8959-.68 1.3575-1.548 1.3575h-2.228v-4.5338h2.146Zm-1.168 1.846h.897c.353 0 .76-.0814.76-.5158 0-.4615-.381-.543-.76-.543h-.897v1.0588Zm0 1.9004h1.005c.435 0 .843-.0814.843-.6244 0-.5429-.435-.6243-.897-.6243h-.951v1.2487ZM71.3728 11.4343c4.1555 0 7.0345 1.9276 7.0345 6.1626 0 4.1809-2.9604 6.1356-6.8173 6.1356h-4.3185v6.8956h-4.1827V11.4343h8.284Zm-4.1013 8.9861h3.7481c1.9013 0 3.2865-.6244 3.2865-2.742 0-2.0361-1.4124-2.7691-3.2592-2.7691h-3.7754v5.5111Zm58.2325-5.4025h5.758v-3.5836h-15.781v3.5836h5.786v15.6102h4.237V15.0179Z"/>
	<path fill="#AE0F0A" d="M135.797 15.913v-4.4794H155l-4.481 4.4794h-14.722Z"/>
</svg>