<svg xmlns="http://www.w3.org/2000/svg" viewBox="0 0 200 50">
	<path class="bg-logo" fill="#E60000" d="M-.00048828 0h200v50h-200z"/>
	<path fill="#fff" d="M109.291 28.8392c0 7.8385-4.388 8.8286-8.776 8.8286-7.5089 0-9.112-3.7955-9.112-9.1586V13.2449h-2.7843v-1.4852h10.5468v1.4852h-2.9532v14.7693c0 5.1981 1.35 7.8384 5.2317 7.8384 3.881 0 5.822-1.8978 5.822-7.3434V13.2449h-2.785v-1.4852h7.509v1.4852h-2.531l-.168 15.5943Zm7.34 7.0134V13.2449h-2.953v-1.4852h11.643c4.978 0 7.426 2.7228 7.426 5.9407 0 3.4654-3.207 5.3632-5.991 5.9408 5.484.495 7.003 3.9604 7.003 6.5182 0 5.1981-4.556 7.1783-8.944 7.1783H113.51v-1.4851h3.121Zm11.391-17.8221c0-2.3929-1.266-4.7856-4.051-4.7856h-3.037v9.8187h2.7c3.037 0 4.388-2.3929 4.388-5.0331Zm1.012 12.2114c0-3.3829-1.519-5.6932-4.978-5.6932h-2.953v11.3864h2.447c3.628-.0825 5.484-2.2278 5.484-5.6932Zm16.453-17.327c-2.784 0-4.556 1.5676-4.556 4.3729 0 2.4754 2.784 3.713 5.484 4.6207 1.603.5775 3.628 1.3201 5.063 2.5577 1.518 1.4027 2.362 3.3004 2.278 5.6932-.085 4.4555-3.291 7.5084-8.944 7.5084-2.109 0-5.4-.4951-7.341-1.5677l-.253-6.6833h1.688c.169 4.538 2.278 6.8483 6.075 6.8483 3.037 0 4.724-1.9802 4.724-5.0331 0-2.6402-2.193-3.7129-5.568-4.868-1.097-.3301-3.291-1.1552-4.809-2.6404-1.35-1.3201-2.025-3.0529-2.025-4.7856 0-5.198 3.796-7.5083 8.522-7.5083 1.856 0 4.64.6601 6.328 1.5677l.168 5.8581h-1.687c-.254-4.1254-2.109-5.9406-5.147-5.9406ZM75.7852 16.987l-.6753.5782.7598 2.3956-2.1948-1.1564-.7598.5782 2.4481 1.3218-2.617 2.0652-.6753-.9088.9286-.7434-.6753-.8261-.9286.7435-.7597-.9914.9285-.7434-.6753-.9087-4.7273 3.8827 4.5585 3.552.8441-.9912c.5909 0 1.013.4956 1.2662.9912l-.8441.9914.5065.413c1.0975-.9912 2.6169-1.6522 4.1364-1.6522 3.2078 0 5.6558 2.561 5.6558 5.7 0 .9914-.2532 2.1478-.8441 3.0566l.8441.6608c0 .5784-.5909 1.2392-1.1818 1.4044l-.8441-.6608c-1.0975 1.0738-2.6169 1.6521-4.1364 1.6521-3.2078 0-5.6559-2.4783-5.6559-5.6173 0-.9914.3377-2.0653.7598-2.974l-.5909-.413-.8442 1.0738c-.5909-.0826-1.0974-.4956-1.2662-1.0738l.8442-.9088-3.7988-3.139v4.9564h1.2662c.1689.2478.2533.4957.2533.7436 0 .2478-.0844.5782-.2533.826h-1.2662v.5782c2.7858.4958 5.1494 2.8088 5.1494 5.6174 0 2.8914-2.2792 5.2044-5.1494 5.7v.9914c-.2532.1652-.5909.2478-.9285.2478-.3377 0-.7598-.0826-1.013-.2478v-.9914c-2.8702-.413-5.065-2.8086-5.065-5.7 0-2.8086 2.1948-5.1216 5.065-5.5348v-.6608h-1.3506c-.1689-.2478-.2533-.4956-.2533-.826 0-.3305.0844-.5784.2533-.8262h1.3506v-4.9564l-3.8832 3.139.8442.9088c-.1688.5782-.6753.9912-1.2662 1.0738l-.8442-1.0738-.5065.4956c.5065.9087.8442 1.9.8442 2.974 0 3.139-2.5324 5.6173-5.6559 5.6173-1.5194 0-3.0389-.5783-4.1363-1.6521l-.8442.6608c-.5065-.1652-1.0974-.826-1.1818-1.4044l.8442-.6608c-.5065-.9088-.8442-1.9826-.8442-3.0566 0-3.139 2.448-5.7 5.6559-5.7 1.5194 0 3.0389.661 4.1364 1.6522l.5064-.3304-.8441-.9913c.1688-.4957.6753-.9087 1.2662-.9913l.8441.9913 4.5585-3.5521-4.7273-3.8826-.6753.9086.9286.7434-.6754.9088-.9285-.7435-.6753.8261.7597.5782-.6753.9088-2.5325-2.0652 2.3637-1.3218-.6754-.5782-2.1948 1.1564.6753-2.2304-.6753-.5782-.8442 2.5608-2.6168-2.0652.6753-.826.9286.7434.7597-.826-.9286-.8262.6754-.826.9285.6608.6753-.826-2.0259-1.487c.1688-.6609.5909-1.1566 1.2662-1.5696l10.7208 8.5913v-5.7H62.532v1.0739h-1.0975v-1.0739h-1.0974v1.0739h-1.0973v-3.2218l2.5325 1.074v-.9087l-2.3637-.9913 2.3637-.9087v-.8261l-2.5325.9913V7.56956h1.0973v1.15652h1.0974V7.56956h1.0975v1.15652h1.0974V6.16522C63.9671 6.0826 64.3047 6 64.6424 6c.3376 0 .6753.0826.9285.16522V20.2913L76.2917 11.7c.5909.413 1.013.9087 1.2662 1.5696l-2.0259 1.5696.6753.826.9286-.6608.6753.826-.9286.8262.6753.826.9286-.7434.6753.826-2.6168 2.0652-.7598-2.6434ZM53.9216 32.5174c0 .9086.6753 1.487 1.5194 1.5696l-1.3506.9912c-.9286-.3304-1.7727-1.4042-1.7727-2.3956 0-.3304.0844-.4956.1688-.7434h-.2532c-1.2662 0-2.2792-1.1566-2.5325-2.3132l1.4351-1.0738v.413c0 .7435.7597 1.4044 1.5195 1.4044.8441 0 1.6038-.6609 1.6038-1.487 0-.9913-.7597-1.6522-1.7727-1.6522-1.8571 0-3.7143 1.8174-3.7143 4.1304 0 .661.1688 1.3218.4221 1.9l.8442-.6608c.5909.2478 1.013.826 1.1818 1.487l-.8441.6608c.8441.6609 1.8571.9914 2.8701.9914 2.1947 0 3.8831-1.7348 3.8831-3.2218 0-.9087-.5909-1.6522-1.5195-1.6522-1.013.1652-1.6883.8261-1.6883 1.6522Zm11.4805 3.3044c0 .826.6753 1.4869 1.5195 1.4869.5909 0 .8442-.2479 1.2663-.5783v1.7348c-.4221.2478-.8443.3304-1.3508.3304-.9285 0-1.6882-.2478-2.1947-1.0738-.5065.826-1.3507 1.0738-2.2792 1.0738-.4221 0-.9287-.0826-1.3507-.3304v-1.7348c.422.413.6754.5783 1.2663.5783.8441 0 1.5194-.6609 1.5194-1.4869 0-.8262-.5065-1.487-1.435-1.487-1.604 0-2.2793 1.487-2.2793 2.8912 0 1.9827 1.5195 3.7174 3.4611 4.048v-.9914c.3376-.1652.6753-.1652.9285-.1652.3377 0 .6754 0 1.013.1652v.9914c1.8571-.248 3.4611-2.148 3.4611-4.048 0-1.4042-.5909-2.8912-2.2793-2.8912-.6753-.0826-1.2662.6608-1.2662 1.487Zm9.6234-6.8566c0 .7435.8442 1.487 1.6039 1.487.7597 0 1.5194-.6609 1.5194-1.4044v-.413l1.3507 1.0739c-.2533 1.3217-1.4351 2.3957-2.7857 2.3131.0844.2478.0844.4956.0844.7434 0 .9914-.8441 2.0652-1.7727 2.3956l-1.2662-1.0738c.8441-.0826 1.5194-.661 1.5194-1.5696 0-.9087-.7597-1.487-1.6038-1.487-.9287 0-1.5196.7436-1.5196 1.6522 0 1.074 1.3508 3.2218 3.9676 3.2218 1.013 0 2.0259-.3304 2.7857-.9914l-.8442-.6608c.1688-.6609.5909-1.2392 1.1819-1.487l.8442.6608c.3376-.5782.5064-1.239.5064-1.9 0-1.8173-1.4351-4.1304-3.7143-4.1304-1.013 0-1.8571.5784-1.8571 1.5696Z"/>
</svg>