<svg xmlns="http://www.w3.org/2000/svg" viewBox="0 0 200 50">
	<path class="bg-logo" fill="#006A40" d="M0 0h200v50H0z"/>
	<path fill="#fff" d="M92.6764 18.9952 73.5099 24.151c-.685.1548-1.3392.5695-1.82 1.1979-.4812.6277-.7123 1.369-.7123 2.104v4.6822l-5.0893 1.348c-.2952.0791-.5663.2525-.7672.5147-.2008.2598-.2952.5671-.2952.8721v4.9815l5.0892-1.3714c.0758-.0202.15-.0468.2218-.0791.2078-.0944.3957-.2404.545-.4332.2009-.259.2952-.5671.2952-.8721l.0005-4.9605 6.1605-1.6522v7.3323l-5.0711 1.3505c-.3013.0823-.578.2589-.7821.5244-.2041.2654-.3013.5792-.3013.8938v5.2009l5.0711-1.3625c.0714-.0202.1415-.0444.2097-.075.0367-.0162.073-.0339.1085-.0533.1759-.0944.3344-.2267.4639-.3961.2041-.2654.3013-.58.3013-.8906v-5.1921l6.1424-1.6554v7.2839l9.4173-2.5307c1.5856-.4243 2.8824-2.1007 2.8824-3.6891V21.0741c.0028-1.5876-1.2936-2.5396-2.9038-2.0789ZM64.0438 45.175 61 46.0011v-3.0212c0-.1348.0262-.2735.0791-.4034.0355-.0879.0831-.1718.1432-.2493.1492-.1984.3529-.3291.5719-.3872l3.0438-.8293v3.0212c0 .2291-.073.4606-.2219.6558-.1492.1953-.3533.326-.5723.3873Z"/>
	<path fill="#B9BABB" d="m73.4731 11.7076 13.5235-3.619c1.342-.36545 2.4407.43321 2.444 1.77721V23.5309c0 1.3416-1.0988 2.7437-2.4412 3.1067l-3.7133.9963v-6.1182l-6.1485 1.6522v-6.186l-6.1452 1.6433v-3.5915c0-.7382.2312-1.4787.7124-2.1064.4626-.6066 1.0894-1.0124 1.7683-1.2133v-.0064Zm-7.6945 13.5303 4.1243-1.1221c.2981-.0823.572-.2558.7761-.5212.0892-.1161.1573-.2404.2057-.3695.0625-.1669.0924-.3412.0924-.5146v-4.0853l-4.124 1.1125c-.1218.0339-.2396.0823-.3501.1468-.1601.0936-.3053.2194-.4259.3776-.2013.2654-.2985.5768-.2985.8873v4.0885Zm-4.7754 6.1158 3.0437-.8261c.2191-.0613.4232-.192.5724-.3872.0847-.1105.1448-.2332.1807-.3606.0274-.0968.0412-.1961.0412-.2953v-3.0212l-3.0438.8293c-.219.0581-.4227.1888-.572.3873-.1492.192-.2222.4235-.2222.6526v3.0212Z"/>
	<path fill="#fff" d="M136.427 17.9692c.758.3873 1.413.9181 1.811 1.674.265.5002.414 1.0979.417 1.7901.003 1.3134-.517 2.4202-1.458 3.1672-.315.2509-.674.4623-1.072.6325-.239.1024-.493.1896-.76.2614-.292.079-.601.1395-.926.1823-.359.0468-.737.0702-1.132.0702-1.254 0-2.31-.2283-3.144-.5825-.834-.3533-1.446-.8293-1.817-1.3383-.177-.2461-.302-.4994-.357-.7551-.021-.0993-.033-.1993-.033-.2993 0-.1953.052-.3752.128-.5309.077-.1589.177-.2928.283-.4082.141-.1492.286-.2654.421-.3493.045-.0282.089-.0532.132-.075.027-.0137.054-.0258.08-.0363.055-.0218.104-.0395.192-.0428.028 0 .061 0 .107.0154.045.0153.106.0516.149.1097l.003.0064c.724 1.0544 2.079 1.945 3.835 1.945.369 0 .701-.0306.993-.0895.243-.0484.46-.1162.648-.2001.413-.1863.69-.4421.852-.7688.11-.2194.167-.4727.167-.768 0-.3356-.082-.576-.225-.7833-.143-.2073-.359-.3816-.642-.5341-.566-.3049-1.397-.5001-2.292-.7074l-.237-.0565-.205-.05-.241-.0622c-.109-.029-.218-.0588-.326-.0911-.086-.025-.172-.0516-.257-.0791-.366-.1178-.723-.2549-1.06-.4227-.718-.3598-1.357-.8688-1.744-1.628-.258-.5066-.402-1.1132-.402-1.8328-.002-1.2287.539-2.3016 1.455-3.0422.917-.7438 2.195-1.1649 3.687-1.1649 1.159 0 2.127.2041 2.891.5211.764.3171 1.321.7438 1.662 1.2045.225.3081.356.6341.356.9576 0 .3348-.14.6187-.307.8349-.171.217-.375.3751-.545.4816-.119.0734-.213.1194-.311.1469l-.022.0048c-.023.0048-.047.0105-.084.0105-.015 0-.031-.0008-.052-.0049l-.046-.0104c-.021-.0065-.051-.0194-.082-.0412-.011-.0081-.023-.0177-.034-.029-.012-.0121-.024-.0266-.036-.0428-.654-.9422-1.908-1.6925-3.375-1.6925-.801 0-1.44.1952-1.863.5099-.423.317-.646.7341-.648 1.277 0 .3291.069.5607.188.747.119.1856.299.3356.551.4695.467.2501 1.178.4147 2.034.6123l.197.046c.263.0613.527.1267.788.2001.304.0847.604.1791.895.2872.281.1041.554.221.813.3541Zm-9.975 3.6077c-.048-.0363-.095-.0678-.141-.096-.044-.0274-.087-.0508-.127-.0718-.042-.0218-.081-.0395-.124-.0516-.043-.0129-.082-.0275-.152-.0275-.028 0-.064.0025-.11.0178-.022.0081-.047.0202-.073.0387-.025.0178-.05.0412-.073.071l-.003.0065c-.7 1.0213-2.006 1.7586-3.726 1.7893l-.012-.0121h-.112c-1.282 0-2.374-.4937-3.157-1.3384-.782-.8446-1.254-2.0458-1.254-3.4753 0-1.4425.46-2.659 1.227-3.5125.77-.8535 1.847-1.3537 3.138-1.3537l.222.0032c1.744-.0032 3.153.7132 3.79 1.6401.051.0702.109.0976.149.1097.039.0121.07.0153.097.0153.049 0 .076-.0088.104-.0153.1-.0274.191-.0734.31-.146.17-.1073.375-.2654.545-.4816.167-.217.307-.5002.307-.8358-.003-.3477-.173-.6736-.441-.9818-.405-.4598-1.053-.8874-1.89-1.2068-.837-.3203-1.866-.5308-3.029-.5308h-.185c-2.091-.0033-3.887.7591-5.148 2.0644-1.262 1.3044-1.993 3.1462-1.993 5.2743 0 2.1185.721 3.9449 1.975 5.2373 1.254 1.2931 3.032 2.0426 5.102 2.0402h.121c1.672 0 2.989-.4058 3.903-.9729.212-.1323.403-.2735.571-.4212.193-.1686.356-.346.488-.5267.246-.3389.386-.6987.389-1.0552 0-.0613-.005-.121-.014-.1783-.01-.0613-.024-.1202-.043-.1775l-.018-.0532-.022-.0533-.022-.0492c-.013-.0282-.027-.0565-.042-.0831-.137-.2622-.341-.4574-.527-.6002Zm-13.169-9.5161c-.07-.2348-.211-.4389-.412-.5671-.2-.1283-.441-.1799-.699-.1799h-.335c-.119 0-.233.0097-.343.0339l-.046.0112c-.034.0089-.068.0186-.101.0307-.061.0202-.12.0468-.175.0783-.077.0435-.147.0976-.209.1597-.062.0613-.115.1307-.158.2073-.037.0662-.068.1364-.092.2106-.053.1613-.075.3396-.075.5332v7.0371c0 1.2802-.268 2.1886-.758 2.7654-.046.0533-.093.1049-.143.1533-.056.0548-.115.1057-.177.1541-.18.1411-.384.2557-.615.3444-.16.0614-.333.1114-.52.1485-.096.0185-.195.0339-.298.046-.177.0209-.365.0314-.564.0314-.529 0-.983-.079-1.363-.2291-.569-.2251-.98-.6002-1.269-1.1584-.29-.5543-.442-1.3013-.442-2.2347v-7.058l-.001-.0629-.002-.0621-.004-.0565-.006-.0524c-.011-.0976-.031-.1912-.06-.2784-.036-.1161-.091-.2258-.161-.3218l-.043-.0549c-.02-.0226-.04-.0436-.061-.0645-.049-.0468-.103-.0888-.161-.1251-.204-.1282-.45-.1831-.721-.1831h-.293c-.173 0-.335.0242-.487.0791-.225.079-.417.2379-.538.4485-.122.2097-.177.4566-.177.7373v7.1194c0 1.9232.487 3.4415 1.477 4.4749.3.3146.647.5832 1.035.8027.046.0266.093.0524.14.0766l.103.0524c.105.0525.213.1017.323.1469.074.0298.149.0588.225.0863.718.2565 1.543.384 2.465.384.922 0 1.75-.1307 2.472-.3929 1.083-.3905 1.932-1.0883 2.492-2.0491.564-.9632.841-2.1797.841-3.6246v-7.0798c0-.0468 0-.0928-.002-.1379l-.004-.0581-.007-.0767c-.011-.0855-.027-.1669-.051-.2452Zm-8.593 16.7137h-.094c-.098 0-.183.0274-.244.0887-.061.0638-.085.1525-.085.2558v1.9603c0 .3566-.073.6131-.213.7745-.086.0984-.196.1686-.338.2081-.061.0177-.128.029-.201.0347l-.051.0024-.061.0016c-.134 0-.25-.0177-.349-.0516-.122-.0412-.22-.1081-.297-.1985-.14-.1645-.216-.4171-.216-.7647V29.119c0-.0339-.003-.0662-.008-.096-.012-.0605-.037-.1146-.077-.1574-.061-.0637-.149-.0911-.25-.0911h-.082c-.05 0-.098.0081-.141.025-.038.0145-.071.0363-.099.0661-.061.0646-.086.1525-.086.2534v1.9845c0 .1904.018.3663.052.5268.063.2896.183.5308.359.7172.274.2872.679.43 1.19.43.512 0 .92-.1461 1.197-.4357.138-.1452.243-.3243.312-.5348.035-.1081.061-.2235.078-.3477.016-.1162.024-.2388.024-.3679V29.119c0-.0484-.005-.0944-.017-.1356-.012-.046-.033-.0863-.066-.1202-.055-.0613-.14-.0887-.237-.0887Zm4.06 0h.07c.095 0 .18.0306.238.1008.057.0638.079.1525.079.2525v3.2019c0 .1154-.031.2162-.091.2921-.065.0734-.159.1161-.262.1161h-.046c-.097 0-.17-.0153-.231-.0548-.061-.0363-.101-.0912-.146-.1557l-1.827-2.588v2.4541c0 .0532-.006.1024-.021.1468l-.01.025-.015.0306c-.01.0186-.022.0355-.036.0509-.025.0258-.054.0459-.088.0605-.047.0209-.101.0306-.158.0306h-.064c-.098 0-.183-.0274-.241-.0944-.054-.0669-.076-.1524-.076-.2533v-3.2011c0-.1129.028-.2137.089-.2896.06-.0758.158-.1186.267-.1186h.101l.055.0025c.027.0032.052.008.077.0145.042.0121.08.0298.114.0532.014.0097.028.0194.04.0307.017.0145.032.0306.048.0484l.044.0532.039.0533 1.729 2.454v-2.3685c0-.1009.021-.1888.079-.2533.033-.0387.077-.0646.127-.0791.036-.0105.076-.0153.116-.0153Zm1.668 0h-.082c-.097 0-.183.0274-.244.0911-.024.0259-.042.0549-.056.0872-.02.0492-.029.1057-.029.1662v3.2656c0 .1.024.1887.085.2525.037.0387.082.0637.133.0774.035.0097.072.0145.111.0145h.082c.035 0 .068-.0032.099-.0104l.024-.0065.033-.0129c.035-.0145.065-.0347.091-.0621.025-.0258.044-.0565.057-.0904.019-.0484.028-.1032.028-.1621v-3.2624c0-.1009-.024-.1888-.085-.2533-.061-.067-.15-.0944-.247-.0944Zm1.196.0242h2.66c.055 0 .105.0073.15.0218.038.0129.072.0322.1.0573.019.0177.034.0379.047.0588.007.0113.013.0234.018.0363.018.0444.026.0936.026.1461v.0274c0 .0492-.007.096-.023.1379-.007.0186-.016.0363-.027.0533-.011.0177-.025.0339-.041.0492-.019.0185-.041.0339-.066.046-.028.0145-.06.0242-.093.0306l-.038.0057-.025.0024-.03.0008h-.956v2.909c0 .1033-.027.192-.088.2558-.035.0355-.077.0597-.126.0742-.039.0113-.08.0169-.124.0169h-.082c-.098 0-.183-.0274-.244-.0911-.061-.0638-.085-.1525-.085-.2533v-2.9083h-.956c-.025 0-.049-.0016-.073-.0048-.03-.004-.059-.0113-.086-.021-.036-.0137-.069-.0331-.096-.0597-.036-.0322-.061-.0742-.077-.121-.005-.0169-.01-.0347-.012-.0532l-.005-.0371-.001-.0291v-.0274c0-.0976.034-.1831.097-.2412.067-.0581.156-.0823.256-.0823Zm6.103 3.235h-1.863v-.9972h1.397c.104 0 .192-.0242.259-.0822.064-.0581.095-.1469.095-.2413v-.0177c0-.0581-.011-.1137-.036-.1605-.014-.0275-.033-.0517-.056-.0718-.064-.0549-.152-.0759-.259-.0759h-1.397v-.9083h1.827c.079 0 .151-.0146.209-.0476.018-.0097.034-.021.049-.0347.015-.0129.028-.0283.039-.0444.011-.0161.02-.0339.029-.0524l.012-.0363c.01-.0339.015-.071.015-.1081v-.0331l-.003-.0444c-.004-.0411-.014-.0807-.031-.1153-.014-.0291-.033-.0557-.058-.0783-.064-.0581-.155-.0855-.259-.0855h-2.179c-.112 0-.213.0395-.283.1162-.036.0379-.065.0855-.084.1387-.017.0484-.025.1017-.025.1565v3.0978c0 .1154.036.2195.109.2929.07.0726.171.1129.283.1097h2.213l.056-.0024c.03-.0033.058-.0089.085-.0178l.03-.0113.031-.0161c.012-.0065.023-.0145.033-.0226l.021-.0185c.064-.0606.088-.1493.088-.2437v-.0306c0-.0242-.002-.0484-.006-.0718-.006-.0323-.016-.063-.03-.0904-.014-.0258-.033-.0492-.055-.0694-.064-.0613-.153-.0822-.256-.0822Zm1.29-3.235h.917c.651 0 1.181.1767 1.546.5155.365.3348.563.8261.563 1.4295 0 .1291-.009.2533-.027.3719l-.012.067c-.01.054-.022.1073-.036.1589-.09.3364-.26.6212-.5.8414-.372.3412-.907.5244-1.565.5244h-.876c-.11 0-.207-.0428-.279-.1122-.076-.0742-.123-.1774-.123-.2904v-3.0978c0-.1186.039-.2219.112-.2953.074-.0734.171-.1129.28-.1129Zm.342 3.2471h.557c.447 0 .791-.1219 1.019-.3389.232-.2194.359-.5364.359-.9567-.003-.4115-.131-.7317-.362-.9488-.084-.079-.182-.146-.294-.1984-.197-.0936-.438-.1428-.719-.1428h-.56v2.5856Zm7.685-.5268c-.091-.0613-.183-.0823-.247-.0856l-.033.0033-.006.0024-.017.0081c-.01.0064-.022.0169-.032.0379-.143.3751-.536.6099-1.02.6099-.715-.0033-1.232-.5462-1.235-1.3481 0-.4017.127-.7373.344-.9721.216-.2347.517-.3686.879-.3686.189 0 .377.0427.544.1242.189.092.351.2339.461.4211l.027.0307.052.0121c.058-.0033.143-.0242.234-.0856.088-.0613.171-.1645.171-.317-.001-.0282-.005-.0573-.013-.0871-.008-.0323-.02-.0646-.036-.0976-.06-.1243-.175-.2533-.338-.3703-.249-.1767-.618-.3138-1.102-.3138-.581 0-1.077.2105-1.43.5727-.35.3631-.554.8721-.554 1.4667 0 .3799.083.726.235 1.0197.084.1621.189.3081.313.4348.158.1637.346.296.56.3912.255.1146.545.1759.858.1759.268 0 .503-.0428.702-.1105.054-.0186.106-.0387.155-.0605.116-.0517.219-.1122.306-.1767.261-.1952.399-.4235.401-.6002-.001-.075-.022-.1388-.054-.1912-.034-.0548-.079-.0968-.125-.1258Zm2.746-2.5186 1.348 3.4568.006.025c-.003.0484-.027.0694-.049.0968-.01.0137-.023.0258-.038.0371-.015.0121-.031.0226-.05.0331-.073.046-.164.0798-.268.0798-.076.0033-.161-.0185-.237-.0701-.073-.0517-.137-.134-.183-.2533l-.314-.8076h-1.406l-.313.814c-.043.1129-.101.1952-.171.2469-.02.0145-.039.0266-.059.0363-.023.0113-.046.0201-.069.0258-.033.008-.067.0113-.1.0113-.152 0-.283-.0702-.353-.1436-.021-.0275-.042-.0517-.046-.1009l.006-.033 1.337-3.4544c.027-.0702.076-.1404.155-.1799.082-.0396.182-.0581.326-.0581l.075.0008c.026.0016.051.004.073.0073.024.0032.046.0072.067.0121l.019.0048.037.0113c.02.0064.038.0137.054.0218.08.0395.128.1097.153.1799Zm-.99 1.9756h1.005l-.499-1.3206-.506 1.3206Zm5.756-.9761c0-.3872-.131-.6978-.387-.8995-.092-.0742-.199-.1339-.321-.1807-.214-.0815-.472-.121-.771-.121h-1.069c-.112 0-.212.0395-.283.1162-.069.0726-.106.1766-.106.2952v3.1438c0 .0484.004.0936.014.1347.013.0517.034.0985.065.1396.026.0331.058.0581.096.0758.043.0202.093.0307.144.0307h.083c.1 0 .191-.0339.249-.0976l.011-.0121.016-.0218.018-.0323c.027-.0532.04-.1153.04-.1807v-1.1496h.308l1.007 1.2384c.067.0879.131.1516.201.1944.044.0274.092.0452.142.0548.033.0065.067.0097.102.0097.131 0 .237-.0524.307-.1097.016-.0137.03-.0274.043-.0411l.019-.0218c.008-.0097.014-.0194.02-.0291.019-.0298.034-.0605.034-.0976l-.021-.0573-1.017-1.2108c.058-.0089.114-.0194.168-.0323.088-.021.171-.0476.247-.0807.13-.0565.242-.1307.334-.2226.207-.2195.31-.5026.307-.835Zm-.746.0274c0 .1888-.057.3292-.173.43-.116.1009-.301.1614-.566.1614h-.718V29.436h.699c.268 0 .457.0549.579.1525.116.0976.176.2347.179.4388Zm2.715-1.2286c.651 0 1.181.1799 1.546.5155.369.3348.564.8261.564 1.4295s-.205 1.098-.576 1.4392c-.371.3412-.907.5244-1.564.5244h-.877c-.096 0-.183-.0323-.251-.0855-.018-.0138-.034-.0291-.05-.046-.035-.0404-.063-.0863-.081-.1372-.015-.0419-.023-.0871-.023-.1339v-3.0978c0-.1186.04-.2219.113-.2953.073-.0734.173-.1129.28-.1129h.919Zm-.572 3.2471h.554c.447 0 .788-.1219 1.023-.3389.231-.2194.359-.5364.359-.9567-.004-.4115-.131-.7317-.363-.9488-.231-.2194-.572-.3412-1.013-.3412h-.56v2.5856Zm-31.759 4.7838c-.249-.1831-.572-.2807-.894-.3566l-.047-.0104c-.241-.0573-.443-.1041-.577-.1759-.032-.0178-.06-.0363-.084-.0557l-.02-.0169-.019-.0186c-.023-.0242-.042-.0508-.056-.0822l-.009-.0226c-.005-.0146-.009-.0299-.012-.046-.006-.0299-.01-.0638-.011-.1025 0-.1524.065-.271.183-.3598.119-.0879.299-.1428.524-.1428.411 0 .761.2098.946.4752l.022.0307h.039l.049-.0089c.049-.0186.119-.0613.182-.1251.065-.0645.119-.1557.122-.2686-.003-.1767-.136-.3566-.365-.5002-.231-.1395-.566-.2436-.995-.2436-.414 0-.77.1162-1.023.3235-.086.0702-.161.1517-.222.242-.045.0654-.081.1355-.11.2098-.047.121-.071.2533-.07.392-.003.4002.165.6712.405.8447.24.1742.545.2589.837.3267.25.0573.481.1121.639.1976.067.0371.12.0759.16.1219.056.0637.085.1419.087.25 0 .1678-.064.2872-.183.3752-.121.0887-.313.1403-.563.1403-.493 0-.87-.2501-1.08-.5518l-.061-.0274c-.043.0032-.064.0153-.098.0339l-.03.0185-.033.0242c-.03.0242-.06.0541-.089.088-.049.0581-.088.1371-.088.2283.003.1952.149.3937.399.5518.252.1589.617.2718 1.083.2718.451 0 .819-.1097 1.081-.317.262-.2073.404-.5123.404-.8785-.001-.0759-.008-.1477-.022-.2154-.013-.0629-.03-.1218-.053-.1775-.021-.0532-.046-.1033-.075-.15-.071-.1162-.165-.213-.273-.2921Zm22.013-.3566c.326.0759.645.1735.895.3566.246.1799.417.4542.417.835 0 .3662-.143.6712-.405.8785-.262.2073-.63.317-1.08.317-.466 0-.831-.1129-1.084-.2718-.252-.1581-.398-.3566-.402-.5518 0-.0912.04-.1702.089-.2283.048-.0581.103-.1033.152-.1307.033-.0186.055-.0307.097-.0339l.064.0274c.026.0371.055.0734.085.1081l.047.0509c.022.0225.045.0443.069.0661.065.0581.137.1105.217.1557.185.1049.409.171.663.171.252 0 .441-.0516.563-.1403.122-.088.182-.2074.182-.3752 0-.1855-.085-.2831-.243-.3719-.158-.0855-.39-.1403-.639-.1976-.131-.0299-.263-.0637-.392-.1073-.159-.0541-.312-.1226-.445-.2194-.241-.1735-.408-.4445-.405-.8447-.003-.3412.149-.6397.402-.8438.252-.2073.608-.3235 1.022-.3235.429 0 .764.1041.996.2436.228.1436.362.3235.365.5002-.003.1129-.058.2041-.122.2686l-.015.0146-.027.0234c-.029.0242-.058.0443-.085.0597l-.031.0169-.024.0105-.049.0089h-.037l-.021-.0307c-.186-.2654-.536-.4752-.947-.4752-.225 0-.404.0549-.523.1428-.119.0888-.183.2074-.183.3598.003.1832.07.2654.21.3445.084.0452.195.0799.325.1137l.177.0436.045.0097.03.0072.047.0121Zm-18.345 1.6401h-1.862v-.9971h1.397c.103 0 .192-.0242.255-.0823.064-.0581.095-.1468.095-.238v-.0185c0-.0646-.014-.1259-.045-.1759-.012-.021-.028-.0395-.046-.0556-.065-.0549-.153-.0791-.259-.0791h-1.397v-.9084h1.829c.103 0 .192-.0242.259-.0823.025-.0225.044-.05.059-.0806.024-.0476.035-.1033.035-.1606v-.033c0-.092-.027-.1775-.091-.238l-.028-.0218c-.017-.0121-.035-.0218-.054-.0307-.051-.0226-.112-.033-.177-.033h-2.18c-.112 0-.213.0395-.282.1161-.07.0726-.11.1799-.107.2953v3.0946c0 .1161.037.2194.11.2928.028.0299.061.0541.098.0718l.031.0129c.047.0178.099.0266.154.025h2.213c.023 0 .046-.0016.067-.004.041-.0056.079-.0153.113-.0315.028-.0137.054-.0314.075-.0532.064-.0605.089-.1493.089-.2469v-.0306c0-.0912-.028-.1767-.092-.2316-.07-.0548-.158-.0758-.259-.0758Zm3.446-2.9332c.256.2041.386.5122.386.8995 0 .3356-.103.6187-.301.8261-.107.1072-.24.1895-.397.2484-.107.0396-.224.0686-.352.0872l1.017 1.21.021.0613c0 .0396-.015.0702-.033.1009-.018.0298-.046.0605-.082.0911-.07.0581-.177.1098-.308.1098-.088 0-.17-.021-.243-.0638-.073-.0427-.137-.1073-.204-.1952l-1.008-1.2351h-.307v1.1496c0 .054-.009.1057-.028.1525-.013.0355-.033.0669-.057.0943-.023.0251-.051.046-.083.0614-.049.0242-.106.0363-.167.0363h-.082c-.039 0-.076-.0057-.111-.017-.052-.0177-.098-.0476-.132-.0895-.055-.0702-.08-.1646-.08-.2743v-3.1438c-.001-.0549.007-.1065.022-.1533.018-.0548.048-.1033.085-.142.07-.0766.17-.1161.283-.1161h1.068c.469 0 .837.0976 1.093.3017Zm-.533 1.3569c.116-.1009.174-.2412.174-.43-.003-.2009-.064-.3412-.18-.4389-.058-.0459-.13-.0822-.219-.1081-.099-.029-.218-.0443-.359-.0443h-.7v1.1826h.718c.131 0 .242-.0145.335-.0419l.057-.0186c.037-.0137.07-.0298.1-.0476.027-.0161.052-.0339.074-.0532Zm4.35-1.6804c-.155-.0033-.326.0944-.399.3235l-.955 2.6767-.956-2.6767c-.013-.0396-.029-.0759-.048-.1089-.015-.0267-.032-.0509-.051-.0726-.084-.096-.199-.1428-.318-.1388-.107 0-.207.0363-.283.0791-.04.0217-.07.0459-.098.0701l-.005.0049-.005.0048c-.01.0121-.019.0234-.026.0371-.008.0154-.014.0331-.016.0573l.01.0363 1.348 3.4052c.036.092.082.1621.155.2106.073.0484.161.0637.277.0637.053 0 .101-.0032.144-.0113.053-.0105.099-.0274.139-.0524.073-.0485.119-.1219.155-.2074l1.346-3.4116.003-.0307c-.002-.0226-.006-.0395-.013-.054-.009-.0194-.022-.0339-.036-.0492-.073-.0791-.21-.1557-.368-.1557Zm1.162 0h.083c.1-.0024.188.0274.249.0919.061.0638.086.1525.086.2525v3.2657c0 .1008-.025.1887-.086.2533-.043.0452-.101.0718-.165.0839l-.037.0048-.047.0024h-.083c-.021 0-.042-.0016-.062-.0048-.024-.0032-.046-.0081-.068-.0153-.043-.0146-.082-.038-.113-.071-.061-.0646-.085-.1525-.085-.2533v-3.2657c0-.1.024-.1887.085-.2525.031-.0322.068-.0556.109-.0709.041-.0146.086-.021.134-.021Zm4.329 2.7412c-.092-.0581-.183-.0823-.247-.0855l-.033.0032c-.008.0016-.02.0049-.033.017-.008.0072-.015.0169-.022.0322-.076.1985-.224.359-.419.4655-.17.0928-.375.1444-.601.1444-.715-.0032-1.233-.5493-1.235-1.348 0-.2533.05-.4792.141-.6704.054-.1137.122-.2146.202-.3017.216-.2348.518-.3695.88-.3695.197 0 .394.046.567.1347.179.0928.332.2316.435.4115.02.0306.039.033.048.0363l.031.0032c.057-.0032.143-.0242.234-.0855.038-.0266.075-.0605.105-.1033.039-.0556.066-.1266.066-.2138-.002-.079-.031-.1645-.085-.2509-.041-.0653-.097-.1323-.168-.1968-.04-.0363-.085-.0726-.134-.1073-.25-.1767-.618-.3138-1.105-.3138-.581 0-1.077.2106-1.431.5728-.136.1411-.25.3049-.339.4872-.138.2856-.215.6164-.215.9794 0 .5889.201 1.0947.548 1.4545.347.3598.84.5671 1.419.5671.116 0 .225-.008.329-.0217.079-.0113.155-.0267.227-.0452.248-.0637.451-.167.606-.284.259-.1952.399-.4235.402-.6002.001-.0597-.013-.1121-.035-.1573-.008-.0153-.016-.0298-.026-.0436-.031-.0467-.072-.0839-.112-.1105Zm1.424.5155h1.863c.103 0 .192.021.252.0758.065.0549.092.1404.092.2316v.0306c0 .0976-.025.1864-.088.2469-.061.0613-.153.0887-.256.0887h-2.213c-.11.0033-.213-.0363-.283-.1097-.07-.0734-.107-.1767-.107-.2928v-3.0946c0-.1154.037-.2227.107-.2953.049-.0532.113-.0887.185-.1048.032-.0073.064-.0113.098-.0113h2.179c.104 0 .195.0242.259.0855.048.046.076.1057.086.171.004.0218.006.0444.006.067v.033c0 .0944-.031.1832-.095.2412-.067.0581-.155.0823-.259.0823h-1.826v.9084h1.397c.107 0 .195.0242.259.0791.064.0548.091.1403.091.2315v.0185c.003.0912-.027.1799-.091.238-.067.0581-.155.0823-.259.0823h-1.397v.9971Z"/>
</svg>