<svg xmlns="http://www.w3.org/2000/svg" viewBox="0 0 200 50">
	<path class="bg-logo" fill="#000" d="M0 0h200v50H0z"/>
	<path fill="#fff" d="M66.6338 20.9776c-1.3359 0-2.4755 1.1245-2.4755 2.4603v2.1209h-3.4264v-4.5812h-.1133c-1.3358 0-2.483 1.1245-2.483 2.4603v8.3926h.1133c1.3358 0 2.483-1.1245 2.483-2.4605v-2.0452h3.4264v4.5057h2.5963V20.9776h-.1208Zm103.1392 0c-1.336 0-2.482 1.1245-2.482 2.4603v2.1209h-3.427v-4.5812h-.113c-1.336 0-2.484 1.1245-2.484 2.4603v8.3926h.114c1.336 0 2.476-1.1245 2.476-2.4605v-2.0452h3.426v4.5057h2.596V20.9776h-.106ZM51.9394 29.9135c-1.5849 0-2.6339-2.5963-2.6339-5.6378 0-3.0415 1.1094-5.1698 2.6339-5.1698 1.5321 0 2.6944 2.1283 2.6944 5.1698 0 3.4415-.9963 5.6378-2.6944 5.6378Zm0-12.9057c-3.0113 0-4.9585 2.5962-5.2302 6.3698H43.645v-6.1509h-.0225c-1.4944 0-2.6491 1.1848-2.6491 2.6339v11.9699h.0226c1.4641-.0151 2.649-1.2076 2.649-2.6944v-3.8189h3.0642c.234 3.5472 2.1887 6.7397 5.2302 6.7397 3.4944 0 5.3434-3.3736 5.3434-7.7661.0076-4.1057-1.9698-7.283-5.3434-7.283Zm24.0529 3.9698c-.8528 0-1.6152.2717-2.2189 1.2378l-3.3887 5.8867v-7.1245h-2.5962v10.8529h1.1019c.8377 0 1.6-.2717 2.2188-1.2378l3.5774-6.0906V29.37c0 1.336 1.1396 2.4605 2.4754 2.4605h.1208V20.9776h-1.2905Zm52.1887 0c-.853 0-1.615.2717-2.219 1.2378l-3.389 5.8867v-7.1245h-2.596v10.8529h1.102c.838 0 1.6-.2717 2.219-1.2378l3.577-6.0906V29.37c0 1.336 1.14 2.4605 2.483 2.4605h.114V20.9776h-1.291Zm-41.6831 5.5623c-.6038-1.3585-1.5018-2.3245-2.8-2.8302l4.6717-6.4906h-2.9132l-4.5132 6.4302v-6.4h-.0604c-1.4943 0-2.6188 1.0868-2.6188 2.5585v12.0227h.0603c1.4944 0 2.6113-1.0869 2.6113-2.5585v-4.4604c1.3359 0 2.3472.8905 2.8303 2.0528l1.9169 4.9585h2.9434l-2.1283-5.283Zm51.3361-5.5623h-7.804v2.0755h2.627v8.7774h.113c1.351 0 2.437-1.1095 2.437-2.4453v-6.3321h2.627v-2.0755Zm-26.883 8.8755c1.2-1.2755 1.773-3.5623 2.045-5.3283l.174-1.5698h2.015l.618 6.8981h-4.852Zm7.252-.0755-.89-8.7925h-6.219l-.385 2.634c-.347 2.3472-.898 5.2906-2.996 6.5509l.174 4.4906h.135c1.027 0 1.857-.8301 1.857-1.8566l.038-.9735h7.079l.098 2.8301h.136c1.027 0 1.857-.8301 1.857-1.8566l.09-2.6415-.974-.3849Zm60.114-1.4188c-.574-1.1397-1.26-2.0076-2.287-2.4303l3.842-4.9434h-2.793l-3.721 4.8906v-4.8981h-2.595v10.8529h.112c1.336 0 2.483-1.1245 2.483-2.4605v-2.4679c1.079 0 1.857.8076 2.287 1.751l1.562 3.1774H180l-1.683-3.4717Zm-31.932 1.683h-1.57v-5.1849c.332-.0755.913-.1887 1.412-.1887 1.879 0 2.973 1.1169 2.973 2.5057.007 1.4867-1.049 2.8679-2.815 2.8679Zm.121-7.351c-.642 0-1.321.1057-1.684.2038v-3.4038h3.442c1.23 0 2.227-.9962 2.227-2.2264v-.0377h-8.264v14.6038h4.203c3.148 0 5.494-1.6981 5.494-4.6038-.007-2.4906-1.954-4.5359-5.418-4.5359Zm-45.631 2.9585c0-1.917.679-2.9434 2.128-2.9811h.099c.716 0 2.052.2339 2.128 2.3849l-4.355.5962Zm6.604.4679c0-3.2528-1.57-5.1321-4.4-5.1321-2.868 0-4.6113 2.151-4.6113 5.4642 0 3.4113 1.8793 5.5397 5.0343 5.5397 1.743 0 2.965-.4302 3.622-.7774v-2.151c-.657.4679-1.57 1.0491-3.373 1.0491-1.623 0-2.521-.9283-2.733-2.6943l6.454-.8906v-.4076h.007Zm50.717 4.3925c-.249.0603-.89.0981-1.433.0981-1.397 0-2.212-.6038-2.212-1.9396 0-1.8038 1.373-2.2642 3.637-2.4755v4.317h.008Zm-5.947-1.7585c0 2.0378 1.494 3.2378 4.354 3.2378h.544c1.004 0 2.672-.1585 3.389-.2944v-6.8981c0-2.7095-1.819-3.8189-4.008-3.8189-1.668 0-2.943.483-3.622.8151v1.7208c1.139-.6038 2.166-.9887 3.192-.9887 1.238 0 2.09.3698 2.09 1.7434v.7169c-3.23.317-5.939.9737-5.939 3.7661ZM92.6338 30.321c-.3698 0-.6567-.0377-.9132-.1358V22.804c.332-.1132.6565-.1735 1.0868-.1735 1.683 0 2.4226 1.2226 2.4226 3.8188 0 1.7359-.4453 3.8717-2.5962 3.8717Zm.2264-9.3434c-1.4717 0-2.6943.2491-3.6377.7547l-.0604.0377v14.3548h.1358c1.3359 0 2.4227-1.1019 2.4227-2.4378v-1.8792c.3698.0982.8755.1736 1.434.1736 2.8075 0 4.649-2.249 4.649-5.6151 0-3.3509-1.8566-5.3887-4.9434-5.3887Z"/>
	<path fill="#E2001A" d="M29.4037 19.6642c.0076-.0076.0076-.0151.0151-.0227.1434-.2037.0831-.3547-.0151-.4378-.0603-.0528-1.4565-.898-1.4565-.898-.0981-.0679-.166-.1812-.166-.317 0-.2038.1207-.3623.4075-.4453.8981-.2491 4.0679-.3774 5.1396-.3774.3698 0 1.0189 0 1.5924.0152l-.0226-.0227C33.3207 15.8151 31.2679 15 29.034 15 24.0452 15 20 19.0452 20 24.034c0 2.1962.7849 4.2038 2.083 5.766 1.1321-1.6302 3.9397-5.6528 4.551-6.4755.7094-.9509 2.3245-3.0566 2.5962-3.4113l.015-.0151.1585-.2339Zm-5.8792 11.5321c1.5246 1.1773 3.434 1.8716 5.5095 1.8716 4.9887 0 9.0339-4.0452 9.0339-9.0339 0-1.5095-.3698-2.9359-1.0264-4.1812.3094-.3019.6718-.7773.4302-1.366-.0754-.1736-.4226-.5811-.5132-.6792l.0151.0376c.2189.6642-.2114 1.0793-.5283 1.3585-.1736.1585-2.468 2.3171-5.1547 4.6718-2.3698 2.0754-5.0264 4.1811-6.5585 5.3358-2.1585 1.6151-2.5812 1.8491-2.5812 1.8491-.0603.0302-.1509.0604-.2188.0604-.1284 0-.2491-.0604-.317-.151-.0151.0302-.0151.0529-.0075.068.2339.3773.6188.8075.8376.8075.068 0 .1661-.0302.2265-.0604-.0075-.0076.1661-.0981.8528-.5886Z"/>
	<path fill="#FEFEFE" d="M29.419 19.6395c.1358-.2037.083-.3547-.0151-.4377-.0604-.0528-1.4566-.8981-1.4566-.8981-.0981-.0679-.166-.1811-.166-.317 0-.2113.1282-.3623.4075-.4453.8981-.2491 4.068-.3773 5.1396-.3773.5057 0 1.517 0 2.1736.0377.7396.0453 1.3057.2038 1.4491.5584.2717.702-.1812 1.1397-.5057 1.4341-.1735.1585-2.4604 2.317-5.1547 4.6716-2.3699 2.0755-5.0264 4.1812-6.5585 5.3359-2.1585 1.6151-2.5811 1.849-2.5811 1.849-.0604.0302-.151.0605-.2264.0605-.2264 0-.4-.1736-.4-.3926 0-.0829.0226-.1659.0679-.2264 0 0 4.2566-6.1282 5.0264-7.1697.7773-1.034 2.6339-3.4642 2.6339-3.4642s.0303-.0226.1661-.2189Z"/>
</svg>