<svg xmlns="http://www.w3.org/2000/svg" viewBox="0 0 200 50">
	<path class="bg-logo" fill="#2A426C" d="M-.00048828 0h200v50h-200z"/>
	<g fill="#fff">
		<path d="M136.791 31.1569h-4.48c-.24.08-.32.3199-.56.5599-2.639 3.1996-6.639 5.7593-12.238 7.8391-4.88 1.8397-10.479 2.9596-16.878 3.3596-6.3993.3999-12.5586 0-18.5579-1.2799-4.5594-.9599-9.2789-2.4797-13.0384-4.7194-2.6397-1.5198-4.7195-3.1197-5.9993-4.7994-.3999-.4 0-.56.32-.32 1.8397 1.9198 4.3994 3.6795 7.3591 5.0394 2.8796 1.3598 6.6392 2.5597 11.6786 3.5196 3.5996.6399 8.399.9598 14.3983.6399 6.3996-.4 12.3986-1.8398 17.3576-4.1595 2.88-1.3599 4.88-2.7197 6.48-4.1595.559-.6399.079-1.3599-.48-1.5198h-2.24c-3.92 4.3194-12.799 8.7989-27.1969 8.8789-14.3983.16-29.9164-5.8393-29.8364-14.9582.1599-9.1189 14.6382-15.11819 28.9565-15.11819 14.3178 0 23.5968 3.75959 28.3168 8.95889h2.32c.479-.2399.799-.9599.319-1.4398-1.599-1.5198-3.599-2.7997-6.479-4.1595-5.039-2.3197-10.958-3.75955-17.3577-4.1595-5.9992-.31996-10.7987 0-14.3982.63992-5.2794.95988-8.959 2.15978-11.9186 3.51958-3.0396 1.3598-5.4394 3.1996-7.2791 5.1194-.32.24-.7199.08-.32-.32 1.2798-1.5998 3.1996-3.2796 5.8393-4.7994 3.7596-2.2397 8.479-3.83954 13.1184-4.79942 5.9993-1.27985 12.1586-1.75979 18.5579-1.35984 6.399.39995 12.078 1.59981 16.878 3.35956 5.599 2.0798 9.679 4.7995 12.238 7.9991.16.24.4.3999.56.4799h4.56c1.12.08 2-1.0399 1.36-2.3197C131.991 9.87942 118.713 5 100.635 5c-19.9175 0-38.5552 8.479-38.6352 19.9176-.08 11.5186 18.5577 20.3176 39.8352 20.0776 18.398-.16 29.276-5.0394 35.516-10.6387 2.079-1.7598.88-3.1996-.56-3.1996Z"/>
		<path d="M87.6764 28.7613h.32v-7.4391h-1.5998v2.6397c0 .2399-.08.4799-.32.4799H83.117c-.16 0-.32-.16-.32-.3999V22.842c0-1.3598-.8799-1.4398-1.2798-1.4398h-.32v7.4391h1.5998v-2.5597c0-.32.16-.4.4799-.4h2.7197c.4 0 .48.16.48.48v1.1198c0 1.1999.8799 1.2799 1.1998 1.2799Zm2.5597-7.5191h-.24v7.4391h1.5998l3.1197-4.3195c.16-.24.5599-.3199.4799.16v2.7997c0 1.3598.8799 1.4398 1.2799 1.4398h.3199v-7.4391h-1.5998l-3.1196 4.3995c-.24.3199-.5599.3199-.5599-.08V22.762c0-1.3598-.8799-1.5198-1.2799-1.5198Zm18.9579 7.5191V23.002c0-.24.16-.4.48-.4h1.2c.56 0 1.04-.7199 1.04-1.1998h-5.68c-.8 0-1.12.5599-1.28 1.1998h2.24c.32 0 .4.16.4.4v5.8393l1.6-.08Zm12.158-7.5191h-.32v7.4391h1.6l3.12-4.3195c.16-.24.56-.3199.48.16v2.7997c0 1.3598.88 1.4398 1.28 1.4398h.32v-7.4391h-1.6l-3.12 4.3995c-.24.3199-.56.3199-.56-.08V22.762c.08-1.4398-.88-1.5198-1.2-1.5198Zm-45.6741 7.5991h1.1198c1.2799 0 2.3197-1.0399 2.3197-2.3197v-2.9597c0-1.2798-1.0398-2.3197-2.3197-2.3197h-1.1198c-1.2799 0-2.3198 1.0399-2.3198 2.3197v.48c0 .3199-.1599.4799-.4799.4799h-1.0399c-.16 0-.3199-.16-.3199-.4V22.762c0-1.3598-.8799-1.4398-1.2799-1.4398h-.24v7.4391h1.5998v-2.6397c0-.32.16-.3999.48-.3999h.8799c.3199 0 .3999.1599.3999.4799v.3999c0 1.1999 1.0399 2.2398 2.3198 2.2398Zm-.8799-5.1194c0-.7199.5599-1.2799 1.2798-1.2799h.32c.7199 0 1.2798.56 1.2798 1.2799v2.6397c0 .7199-.5599 1.2798-1.2798 1.2798h-.24c-.7199 0-1.2799-.5599-1.2799-1.2798v-2.6397h-.0799Zm26.237-1.1999h2c.48-.1599.799-.6399.879-1.1998h-3.039c-1.28 0-2.3199 1.0399-2.3199 2.3197v2.7197c0 1.2798 1.0399 2.3197 2.3199 2.3197h3.199c-.08-.5599-.479-1.0399-.959-1.1999h-2.08c-.48 0-.8-.3999-.8-.7999v-3.2796c0-.4799.32-.8799.8-.8799Zm16.158-1.1998h-3.92v7.4391h1.68v-2.3997h2.16c1.04-.08 1.76-.48 2.16-1.1999.32-.7199.24-1.5198.08-2.3997-.32-.8799-1.12-1.3598-2.16-1.4398Zm-.24 3.8395h-1.92c-.08 0-.24-.08-.24-.24V22.762c0-.08.08-.24.24-.24h2.08c.48 0 .8.32.8.7999v1.0399c.08.32-.4.7999-.96.7999Zm19.758 2.1598c0 1.3598.879 1.4398 1.279 1.4398h.32v-7.4391h-1.839c-.32 0-.48.16-.56.3999l-1.44 3.9196c-.16.5599-.48.5599-.72-.08-.48-1.2799-.96-2.4797-1.36-3.7596-.08-.24-.24-.3999-.56-.3999h-1.84v7.4391h.32c.32 0 1.28-.08 1.28-1.4399v-2.7996c0-.48.4-.48.48-.16l1.36 3.3596h1.44l1.36-3.3596c.16-.32.56-.32.48.16v2.7197Z"/>
	</g>
</svg>