<svg xmlns="http://www.w3.org/2000/svg" viewBox="0 0 200 50">
	<path class="bg-logo" fill="#FCB205" d="M0 0h200v50H0z"/>
	<path fill="#fff" d="M83.9117 24.9644v.0765c-.0047 4.2868-.3201 11.4917-3.5342 15.0595-1.9165 2.1272-4.777 3.8908-9.1397 3.8996l-.0888-2.0572c3.8919-.6626 6.188-3.1552 6.6347-6.7389.4631-3.7142.4107-5.2854.4107-10.2036 0-4.9129.0524-6.4858-.4107-10.2031-.4467-3.5818-2.3009-6.07623-6.194-6.73882L71.2378 6c4.3627.00765 7.2226 1.77534 9.1397 3.90315C83.591 13.4691 83.907 20.6735 83.9117 24.9644Zm-31.783 10.2395c-.4637-3.7142-.4125-5.2854-.4125-10.2036 0-4.9129-.0171-6.4829.4125-10.2031.4807-4.1608 3.0528-6.07623 6.9436-6.73882L59.3 6c-4.3639.00412-7.8475 1.77593-9.7646 3.90315C46.3213 13.4697 46.0018 20.6735 46 24.9644v.0765c.0018 4.2868.3201 11.4917 3.5354 15.0595 1.9165 2.1272 4.7758 3.8955 9.1391 3.8996l.0889-2.0572c-3.8932-.6626-6.1875-3.1547-6.6347-6.7389Zm21.0104-5.6167c0 3.7743-.9592 6.9154-4.2839 8.7249-1.018.5543-2.6215.945-3.8726.945-1.3481 0-2.8168-.22-3.9084-.8756-.8026-.4819-1.7247-1.2316-2.3185-2.0178-1.4499-1.9212-2.159-3.9984-2.159-8.3076 0-8.5183.166-12.2032 2.2614-13.8002 3.9661-3.0223 7.7345-4.94178 8.177-6.26696.2954-.88384 0-1.54113 0-1.54113l1.5353-.4078c1.2034 3.86432 1.9689 7.51799-1.1086 9.17739-2.8222 1.5217-3.2842 1.5859-5.6509 2.8222-1.9724 1.0303-3.1841 2.0089-3.3818 3.7054-.0818.705-.1741 2.5133-.1741 2.5133l.7414-.0459c.2618-.838.6979-1.7354 1.6164-2.5109 1.1593-.9786 2.7304-1.7336 4.4405-1.7889.163-.0053.3242-.0082.4837-.0082 2.0201 0 3.7719.4407 5.1271 1.6588 2.1413 1.9248 2.475 5.0936 2.475 8.024Zm-6.1299-5.7973c-.5143-1.2299-1.2239-1.4464-2.1189-1.4488-.8933-.0023-1.6065.3201-2.1232 1.547-.5607 1.3323-.6773 3.2129-.682 5.6562-.0053 2.4444.1036 4.4333.6603 5.7632.516 1.2334 1.2257 1.6635 2.119 1.6665.892.0029 1.607-.4278 2.126-1.6565.5614-1.3293.6755-3.3182.6803-5.7615.0047-2.445-.1036-4.4327-.6615-5.7661ZM94.493 13.8119l.0135.0547-.0065.0447-.1024.4378c-.0017.0306-.03.1118-.1253.1118h-.9851v.918h.835l.1113.0529.0206.0924v.3996l-.0453.1194-.0866.0259h-.8367v1.0892h1.0439l.0859.0248.0441.12v.3984l-.0441.1206-.0583.0247h-1.6959l-.1106-.0518-.0194-.0935v-3.7867l.0441-.12.0865-.0253h1.7465l.0848.0424Zm2.4214-.0442-.0894.023-.0412.123v1.4687h-.9174v-1.4682l-.043-.1229-.0894-.0236h-.4931l-.0883.023-.0429.123v3.786l.0423.123.0883.0229h.4931l.0889-.0229.0435-.1224v-1.6265h.918v1.6265l.0412.1224.0888.0235h.4973l.1082-.0506.02-.0959v-3.786l-.02-.096-.1106-.05h-.4943Zm3.3276.0018c-.101 0-.126.0712-.152.1412l-.6494 1.5971c-.0677.1688-.213.5572-.3036.8108.0112-.5449.0188-.4513.0188-.7126v-1.6912l-.0206-.0941-.1118-.0512h-.4937l-.0847.0253-.0453.12v3.7855l.0205.0953.1101.0512h.5019c.0842 0 .1165-.0565.1377-.1171l.7097-1.7435c.0688-.1666.1424-.3349.2494-.6609-.008.1813-.015.3831-.015.5096v1.8666l.022.0941.108.0518h.498l.107-.0518.022-.0941v-3.7867l-.021-.0941-.11-.0518h-.498v.0006Zm2.498-.0989c-.279 0-.615.0895-.879.4125-.264.3219-.456.8686-.456 1.776v.0058c0 .8321.149 2.0814 1.351 2.0825h.052c.297-.0123.592-.1159.769-.2836l.073-.12-.031-.1001-.159-.3289-.092-.0741-.145.0747c-.135.0935-.269.1412-.406.1412-.226 0-.354-.1206-.428-.2342-.177-.273-.197-.9433-.197-1.1998 0-.7738.07-1.1145.215-1.2846.095-.1106.227-.1777.395-.1777.155 0 .275.0812.409.2042l.127.0724.082-.0736.19-.3289.03-.0901c0-.05-.034-.0994-.107-.1724-.213-.213-.535-.3013-.793-.3013Zm1.426.0989-.087.0259-.045.1206v3.7867l.021.0935.11.053h1.696l.059-.0277.043-.1194v-.399l-.043-.1206-.087-.0242h-1.042v-1.0892h.836l.086-.0265.045-.12v-.3984l-.02-.0935-.111-.0518h-.836v-.9186h.987c.095 0 .122-.0806.124-.1112l.104-.4396.003-.0441-.014-.0547-.085-.0406-1.744-.0006Zm3.052.0012.11.0517.022.0936v1.6906c-.002.2619-.012.1665-.021.712.091-.2518.237-.6408.305-.8103l.648-1.5964c.024-.07.053-.1412.154-.1412h.496l.109.0517.022.0936v3.7872l-.022.093-.107.053h-.496l-.112-.053-.021-.093v-1.8671c0-.1259.006-.3283.016-.5096-.108.3254-.181.4949-.25.662l-.709 1.7436c-.022.0606-.056.1177-.139.1177h-.5l-.111-.053-.021-.093V13.916l.045-.12.087-.0253h.495Zm1.013-.9927.334.0411.077.1107c0 .0924-.023.2101-.11.3448-.105.1624-.295.3272-.621.349l-.085.0035c-.371 0-.585-.1771-.699-.3531-.087-.1336-.107-.2518-.106-.3448.001-.0683.036-.1101.076-.1101l.381-.0476.046.0194.05.1242c.041.1341.117.2136.256.2142.142.0005.215-.0795.257-.2148l.049-.1236.048-.0194.047.0065Zm2.703.8926c-.279-.0006-.615.0912-.88.4137-.264.3225-.454.868-.453 1.7759.001.8315.147 2.0884 1.348 2.089l.052.0006c.298-.0106.592-.1165.77-.2842l.07-.1201-.028-.1006-.159-.3289-.094-.0736-.143.0753c-.137.0918-.27.1413-.406.1413-.225 0-.356-.1207-.429-.2336-.177-.2743-.197-.9439-.197-1.2005.002-.7732.071-1.1145.215-1.2846.093-.1088.225-.1777.389-.1788l.006.0011c.154 0 .277.0818.409.2036l.127.0718.083-.0735.187-.3278.032-.09c-.001-.0494-.033-.1001-.107-.1742-.212-.2124-.534-.3013-.792-.3019Zm3.471.0006h-.006c-.111 0-.298.043-.455.1518-.241.1672-.29.4067-.326.6473l-.078.4984c-.061.3525-.171.4119-.409.4172h-.148v-1.4693l-.042-.123-.088-.0229h-.494l-.089.0229-.043.123v3.7872l.043.1218.089.0236h.494l.088-.0236.042-.1218v-1.6282h.196c.299.0029.327.1924.362.3701l.122.705c.032.1859.056.4301.225.5967.191.1871.495.2018.555.2018h.009c.092 0 .121-.0641.132-.1065l.134-.4478.007-.0488-.079-.103-.133-.0342c-.142-.0417-.156-.0918-.206-.3713l-.083-.4925c-.019-.1089-.083-.4749-.439-.6285.258-.1212.344-.3465.378-.5731l.061-.416c.044-.2931.096-.3178.207-.3537l.129-.0353.077-.1124-.006-.0435-.109-.4178c-.015-.0712-.073-.0936-.117-.0936Zm2.734.1006c-.099 0-.127.0718-.152.1413l-.649 1.5964c-.066.1701-.212.5579-.303.8103.01-.5449.019-.4502.019-.712v-1.6906l-.021-.0936-.109-.0512h-.496l-.085.0247-.046.1201v3.7878l.021.0924.109.053h.497c.083-.0006.123-.0571.143-.1177l.71-1.743c.067-.1671.142-.3366.248-.6608-.008.18-.014.383-.014.5101v1.8666l.021.0924.11.0535h.495l.108-.0529.022-.093v-3.7878l-.02-.093-.112-.0518h-.489l-.007-.0012Zm2.225.0524.02.093v1.6918c0 .2606-.009.1659-.019.7114.09-.2513.236-.6402.304-.8109l.651-1.597c.024-.0683.051-.1401.152-.1401h.496l.11.0518.021.093v3.7878l-.022.093-.106.0524h-.497l-.111-.0524-.021-.093v-1.8677c.001-.1265.007-.3295.016-.5102-.108.3254-.182.4949-.251.6608l-.71 1.7436c-.02.0606-.053.1159-.136.1165l-.007.0018h-.494l-.111-.0524-.02-.0936V13.916l.045-.1189.088-.0264h.493l.109.0535Zm.503-.1959c42.368 0-42.3677 0 0 0Zm-.307-.8368.049.1259c.042.1342.115.2148.257.2148.141 0 .214-.08.256-.2148l.05-.1241.047-.0195.38.0483c.04.0018.077.0424.077.1094 0 .0924-.021.2113-.107.3443-.114.1759-.327.3383-.702.3525-.377.0141-.589-.1772-.704-.3531-.087-.1324-.108-.2513-.108-.3442 0-.0683.037-.1083.076-.1089l.338-.0412.043-.0077.048.0183Zm-25.1629 13.363h.007c.3984.0006.6232-.3866.745-.9021.1218-.5137.1353-1.1328.1353-1.5388 0-.4784-.0247-1.1039-.1518-1.5994-.1283-.4984-.3489-.8515-.7273-.8515h-.0141c-.3749.0024-.5955.3566-.7221.8527-.1265.4961-.1494 1.1186-.1494 1.5982 0 .406.0118 1.0251.133 1.5388.1218.5155.3448.9021.7444.9021Zm.0094-6.0575c2.1637.0159 2.2031 2.8681 2.2055 3.6048l.0005.0118c-.0023.7014-.0311 3.526-2.136 3.6048l-.0753.0018c-2.179-.0071-2.212-2.8975-2.212-3.6072 0-.7191.0335-3.6083 2.2108-3.6166l.0065.0006Zm4.837 5.8892c.5125-.0088 1.0555-.0618 1.0555-.9339.001-.8897-.5948-.9156-.969-.9238h-.3525v1.8577h.266Zm1.7205-5.7197.125.0353.054.1218c0 .0124-.002.0394-.019.1095l-.174.7067c-.021.09-.086.193-.234.193h-1.7379v1.5305h.562c.4101.0012.9339.0389 1.3489.3684.331.2625.676.7626.679 1.7324v.0194c0 .3207-.037.8344-.316 1.2752-.264.4166-.751.7614-1.6078.7938h-1.7218c-.0906 0-.1547-.0341-.1859-.0877l-.0347-.1577v-6.3946c0-.0977.0276-.1648.0753-.2024l.1465-.0436h3.0404Zm3.612 5.7209c.5-.0071.97-.1177.972-.9127.002-.9245-.684-.908-1.037-.9162h-.276v1.8289h.341Zm-2.651-5.7215h.009l.008.0012h2.08c.085 0 .148.0359.177.0883l.035.1583v2.4797h.562c.374 0 .92.0088 1.377.3877.524.4349.65 1.0957.651 1.6912l.001.0218c-.001.479-.069 1.1392-.573 1.5917-.239.2148-.656.4455-1.353.4667h-1.722c-.088 0-.153-.0341-.184-.0883l-.036-.1571v-5.469h-1.273l-.013-.0012-.098-.0265-.055-.1382.017-.1319.173-.6567c.01-.0794.047-.2177.217-.2177Zm8.677.0012h-2.947l-.146.0424c-.047.0394-.076.1071-.074.2047v6.3929l.034.1583c.031.0518.095.0889.18.0889h2.821l.148-.0424c.047-.0394.075-.1065.075-.203v-.6962c-.004-.0853-.033-.1453-.075-.1818l-.148-.0424h-1.76v-1.8377h1.413l.146-.0423c.048-.0395.076-.1065.075-.2036v-.675l-.034-.1583c-.031-.0518-.094-.0877-.179-.0877h-1.421v-1.5517h1.668c.16 0 .205-.1359.211-.1871l.173-.7415.01-.0753-.025-.0894-.145-.0718Zm3.643 1.1675h-.799v1.1922c0 .5502-.082 1.5199-.202 2.1601-.093.492-.225.8915-.357 1.2022h1.358v-4.5545Zm-1.784-1.1663h2.85c.082 0 .145.037.176.0882l.036.1589v5.4743h.352c.084 0 .147.0359.176.0883l.036.1571v1.9701l-.036.1571c-.029.0536-.095.0889-.18.0889h-.765c-.086 0-.149-.0365-.182-.0871l-.034-.1583V27.1543h-2.463v1.0497c.002.0965-.026.1636-.075.2025l-.146.0429h-.764c-.083 0-.146-.0353-.177-.0877l-.037-.1565v-1.9713l.037-.1583c.032-.0523.096-.0882.183-.0882h.183c.266-.5485.385-1.0304.469-1.6241.121-.848.135-1.7607.135-1.9366v-1.9142l.04-.1577c.031-.0512.093-.0877.177-.0877l.009.0012Zm7.682.0011c-.173 0-.219.1201-.262.2378 0 0-1.33 3.3182-1.47 3.6901-.05.1342-.097.366-.139.479.016-.9209.031-.8644.032-1.3069v-2.8546l-.036-.1583c-.03-.0523-.094-.0876-.179-.0876h-.84l-.146.0423c-.049.0389-.077.1059-.076.203v6.3947l.036.1565c.032.0535.096.0894.186.0894h.847c.141 0 .195-.0959.232-.1989 0 0 1.367-3.3459 1.475-3.6436.043-.1206.092-.3607.143-.5202-.014.3054-.025.7509-.025.9645v3.1529l.036.1571c.032.0529.096.0888.182.0888 0 0 .591-.0017.849-.0017l.102-.0206.074-.0665.036-.1566v-6.394l-.036-.1577c-.03-.0518-.095-.0889-.179-.0889h-.842Zm6.274.0006h-.838l-.149.0395c-.049.0388-.073.1071-.073.2059v2.4809h-1.548v-2.4809c0-.1-.021-.1677-.072-.2059l-.147-.0395h-.835l-.15.0395c-.049.0388-.073.1071-.073.2059V26.91c0 .1007.024.1689.072.2072l.151.0388h.833l.148-.0388c.05-.0389.073-.1059.073-.2066v-2.748h1.548v2.7486c-.001.1006.023.1677.073.2072l.15.0394h.875l.059-.0159.09-.0694.032-.1613v-6.3958l-.032-.16c-.034-.0536-.098-.0854-.187-.0854Zm1.892 0-.145.043c-.05.0394-.077.1065-.077.2018V26.91l.036.1577c.031.0524.095.0883.18.0883h2.821l.146-.0418c.049-.04.075-.1071.075-.2036v-.6967c-.005-.0847-.03-.1447-.075-.18l-.146-.043h-1.76v-1.8371h1.411l.147-.0436c.049-.0388.076-.1071.076-.2036v-.6732l-.035-.1577c-.032-.0512-.094-.0876-.182-.0876h-1.417v-1.5506h1.669c.16 0 .203-.1365.208-.1877l.173-.7409.01-.0759-.026-.0906-.142-.0718-2.947-.0006Zm5.156.0012h-.837l-.149.0389c-.048.04-.071.1076-.071.2071v6.3958c0 .0988.023.1671.071.2059l.149.0383h.836l.147-.0383c.05-.0388.072-.1071.072-.2059v-2.7486h1.547v2.7486c0 .1.025.1671.075.2059l.148.0401h.864l.07-.0159.088-.0689.034-.1612v-6.3952l-.031-.1613c-.031-.0523-.093-.0835-.179-.0835h-.844l-.149.0371c-.051.04-.076.1076-.074.2077v2.4809h-1.548v-2.4809c.002-.1007-.021-.1677-.072-.2077l-.147-.0389Zm8.384.0012h-.841l-.149.0388c-.048.04-.072.1077-.072.206v2.4815h-1.55v-2.4815c.001-.0989-.022-.166-.07-.206l-.15-.0388h-.834l-.147.0388c-.051.04-.075.1077-.075.206v6.3952c0 .1.023.1677.073.206l.147.0406h.835l.149-.0406c.048-.0383.071-.106.071-.206v-2.748h1.55v2.748c0 .1.024.1677.072.2071l.15.0395h.861l.072-.0153.089-.0701.033-.1606v-6.3935l-.031-.1624c-.031-.0523-.096-.0847-.183-.0847Zm6.311.0012h.838l.146.0435c.048.0383.074.1065.074.2024v6.3953l-.035.1577c-.032.0517-.098.087-.184.087h-.845c-.084 0-.148-.0358-.178-.0876l-.035-.1577v-6.3953l.035-.1577c.031-.0529.099-.0876.184-.0876Zm-3.027 5.7208c.5-.0082.972-.12.974-.9144.001-.9239-.688-.9068-1.039-.9139h-.274v1.8283h.339Zm-.561-5.722c.089 0 .155.0347.187.0883l.036.1588v2.4803h.56c.373 0 .919.0083 1.377.3878.523.4349.65 1.0975.651 1.6924v.02c0 .4796-.068 1.141-.571 1.5923-.242.2166-.666.449-1.379.4672h-1.701c-.086 0-.15-.0358-.182-.0876l-.033-.1583v-6.3941c0-.0959.028-.1641.074-.2024l.144-.0447h.837Zm9.214.0018h.842c.086 0 .15.0364.179.0888l.034.1577v6.3941l-.035.1577c-.032.0535-.096.0888-.182.0888h-.84c-.087 0-.152-.0359-.186-.0888l-.033-.1577s.011-3.812.023-4.118c-.032.103-.097.3672-.127.4537-.129.3731-.199.539-.292.7673l-1.2 2.944c-.033.1012-.091.1942-.231.1966l-.013.0006h.005-.845c-.084 0-.15-.0353-.181-.0871l-.033-.1577v-6.3947c0-.0959.026-.1636.074-.2024l.146-.0429h.841c.085 0 .148.0364.178.0888l.037.1577v2.8551c0 .442-.015.3855-.032 1.3064.04-.1106.126-.4243.174-.5561.139-.3719.256-.7044.34-.9162l1.095-2.698c.043-.1177.088-.2377.262-.2377Zm-.349-1.6753.562.0694c.069.0041.132.0735.132.1865 0 .1554-.037.3554-.183.5808-.193.2984-.553.5967-1.185.5961-.631-.0006-.995-.2977-1.189-.5973-.145-.2236-.181-.4242-.181-.5796 0-.1153.064-.1859.129-.1865l.644-.08.079.0317c.057.0571.059.1348.084.2119.073.2248.194.3619.434.3619.237 0 .358-.1365.433-.3643.024-.0753.024-.1524.08-.2083l.081-.0329.08.0106ZM94.1546 35.7208c.5114-.0082 1.0545-.0629 1.0545-.9344 0-.8897-.5943-.9156-.9698-.9233h-.3507v1.8577h.266Zm1.8448-5.6867.0512.1218c0 .0135-.0018.0418-.0159.1118l-.1777.7061c-.0183.0895-.083.1925-.2319.1925H93.888v1.5305h.5597c.4125 0 .9373.0394 1.3522.3684.3313.2624.6744.7632.6779 1.7335v.0183c0 .3207-.0371.835-.3148 1.274-.2648.4183-.7521.7602-1.6112.7926l.0059.0029h-1.7306c-.0859 0-.1501-.0364-.1824-.0888l-.0342-.1571v-6.3947c-.0006-.0971.0277-.1647.0754-.2036l.1471-.0417h3.0422l.1242.0335Zm3.6172 4.0503-.3437-1.6471c-.0494-.2377-.0965-.499-.15-.9403-.0254.2318-.0718.5302-.1654.9403l-.3707 1.6471h1.0298Zm-.9245-4.0838h1.0121c.1195 0 .1542.1023.1736.1936l1.7302 6.5264c0 .1483-.142.1659-.188.1659h-.988c-.099 0-.168-.0635-.203-.2442l-.3753-1.5699H98.435l-.3484 1.5688c-.0235.1429-.0618.2453-.1895.2453l-.0123-.0005h-.931l-.1488-.0495-.0442-.1118 1.7477-6.5417c.0165-.0771.0542-.1824.1836-.1824Zm3.8999.0011-.149.0389c-.049.0394-.074.1065-.074.2071v6.394c0 .1001.024.1678.074.2072l.149.0382h.834l.149-.0382c.049-.0394.075-.1071.075-.2054v-2.7486h1.546v2.7486c0 .1.022.1665.071.2071l.15.0377h.84c.088 0 .151-.0306.183-.0841l.033-.1601v-6.3958l-.031-.1618c-.033-.0524-.098-.0836-.185-.0836h-.839l-.149.0394c-.049.0395-.072.1071-.072.2066v2.4803h-1.547v-2.4803c0-.1006-.024-.1677-.074-.2066l-.149-.04h-.835v-.0006Zm9.009-.1677-.013.0006c-.184 0-.501.073-.765.2566-.407.2818-.49.6849-.549 1.0921l-.132.8427c-.103.5937-.287.6955-.691.7026h-.249v-2.4815c.002-.0988-.023-.1665-.071-.2065l-.149-.0395h-.836l-.148.0395c-.048.0406-.071.1065-.071.2065v6.3958c0 .0995.02.1654.07.2066l.148.0382h.835l.15-.0382c.048-.0412.072-.1071.072-.2066v-2.7492h.326c.51.0041.556.3237.614.6249l.208 1.1899c.053.3148.093.7261.378 1.0068.321.3166.836.3401.94.3413h.016c.153 0 .203-.1089.221-.1818l.225-.7538.012-.083c.003-.0635-.033-.1518-.132-.1754l-.227-.0588c-.238-.0683-.263-.1536-.347-.6267l-.139-.8326c-.035-.1825-.143-.8009-.742-1.0592.434-.2042.58-.5867.637-.9686l.104-.7044c.077-.4943.162-.5337.348-.5955l.218-.0594c.084-.0218.131-.1048.129-.1895l-.01-.0765-.181-.7038c-.027-.1153-.124-.1536-.199-.1536Z"/>
</svg>