<svg xmlns="http://www.w3.org/2000/svg" viewBox="0 0 200 50">
	<path class="bg-logo" fill="#3B175C" d="M0 0h200v50H0z"/>
	<g fill="#fff">
		<path d="M87.7452 20.5234c-2.0827 0-3.6406.7708-4.4113 2.0456h-.1666v-1.6539h-3.8074v17.5188h3.8074v-5.5535h.1666c.7664 1.2748 2.3286 2.0456 4.4113 2.0456 3.9075 0 7.0066-3.1913 7.0066-7.2034 0-4.0078-3.0991-7.1992-7.0066-7.1992Zm-.7705 10.9364c-2.1245 0-3.8074-1.6541-3.8074-3.7372 0-2.1039 1.6829-3.737 3.8074-3.737 2.187 0 3.849 1.6331 3.849 3.737 0 2.104-1.683 3.7372-3.849 3.7372ZM172.904 21.5521c-2.179 0-3.883.8251-4.921 2.2582h-.17c.283-2.5914 1.75-3.8496 4.907-4.2995l5.528-.8V15.207l-5.894.8375c-5.444.7582-8.056 3.6412-8.056 8.8365 0 3.7579.24 4.9453.911 6.3659 1.054 2.279 3.666 3.6789 6.824 3.6789 4.253 0 7.535-3.0164 7.535-6.966-.003-3.7996-2.716-6.4077-6.664-6.4077Zm-.913 9.8907c-2.165 0-3.766-1.479-3.766-3.483 0-2.0248 1.579-3.5038 3.766-3.5038 2.145 0 3.728 1.479 3.728 3.5038 0 2.004-1.604 3.483-3.728 3.483ZM75.368 16.8049l-4.2863 8.6408-5.8403-8.6408h-4.5529l8.477 12.507-.2333.4749c-.3666.7582-.8498 1.1665-1.9662 1.1665h-2.9992v3.5997h3.4241c2.6118 0 3.6657-.6625 4.7572-2.8414l7.4939-14.9108h-4.274v.0041ZM116.746 20.9297l-.65 8.4657c-.1 1.325-.546 1.8082-1.6 1.8082h-.933v3.4454h2.271c2.553 0 3.686-1.1665 3.87-3.5995l.499-6.5785h4.683v10.0614h3.849V20.9297h-11.989ZM138.658 24.0269c1.558 0 2.795.8749 3.383 2.0456l3.403-1.2832c-.95-2.5872-3.645-4.262-6.865-4.262-4.316 0-7.573 3.1121-7.573 7.2033 0 4.0871 3.262 7.2035 7.573 7.2035 3.22 0 5.915-1.6749 6.865-4.2622l-3.403-1.2831c-.588 1.1666-1.825 2.0456-3.383 2.0456-2.166 0-3.728-1.5374-3.728-3.6995 0-2.1707 1.562-3.708 3.728-3.708ZM157.466 20.9141l-5.911 8.649v-8.649h-3.807v13.6234h4.211l5.874-8.5864v8.5864h3.807V20.9141h-4.174ZM107.829 22.5651h-.167c-.766-1.2748-2.329-2.0456-4.411-2.0456-3.9077 0-7.0069 3.1914-7.0069 7.2034 0 4.0078 3.0992 7.2033 7.0069 7.2033 2.082 0 3.64-.7706 4.411-2.0456h.167v1.6541h3.807V20.9112h-3.807v1.6539Zm-3.803 8.8949c-2.167 0-3.85-1.6331-3.85-3.7371 0-2.1039 1.663-3.7371 3.85-3.7371 2.124 0 3.807 1.6332 3.807 3.7371-.004 2.083-1.683 3.7371-3.807 3.7371Z"/>
		<path d="M36.1721 10.0154c.1939.0094.3954.0224.6058.039v2.8783c0 12.6821.4835 18.1644 2.3582 26.6184-2.3954.5993-4.9362.5993-7.3275-.0047 1.8872-8.5155 2.3742-13.9978 2.3742-26.6137v-2.8783c.2523-.0201.4905-.0343.7186-.0426.2016-.0083.3942-.0118.5816-.0118.221 0 .4492.0047.6891.0154Zm13.7844 16.058c0-4.9326-2.6867-9.2696-6.7234-11.74l.0544 3.3487c2.3995 2.0627 3.9196 5.0627 3.9196 8.3913 0 .5544-.0431 1.0993-.1259 1.6324-.1442.9291-.4072 1.8216-.7695 2.6632-1.737-1.6501-2.9746-3.5911-3.7447-5.883-.9291-2.7743-1.146-5.8122-1.1791-9.5238l.0041-1.5957c-.25-.1076-.5035-.2081-.76-.3026-.5981-.2187-1.2116-.3996-1.8351-.5391l.0041 2.4327c.0875 12.8157 2.3079 18.0983 5.6112 22.0688 3.3783-2.5497 5.5443-6.5072 5.5443-10.9529ZM32.1597 14.9599l.0041-2.4327c-.4775.1076-.9492.2388-1.4119.3925-.4013.1323-.7961.2825-1.1833.4491l.0042 1.5958c-.0373 3.7081-.25 6.7495-1.1791 9.5237-.766 2.292-2.0077 4.2294-3.7447 5.8831-.224-.5213-.4102-1.0615-.5538-1.6171-.2216-.8581-.3416-1.7553-.3416-2.6785 0-3.3334 1.5159-6.3287 3.9196-8.3913l.0544-3.3488C23.6868 16.8015 21 21.1384 21 26.0758c0 4.4457 2.1702 8.4032 5.5444 10.9528 3.3115-3.9657 5.5278-9.253 5.6153-22.0687Z"/>
	</g>
</svg>