<svg xmlns="http://www.w3.org/2000/svg" viewBox="0 0 200 50">
	<path class="bg-logo" fill="#01A489" d="M0 0h200v50H0z"/>
	<path fill="#fff" d="m56.9608 20.9258 2.5224-1.2972L39.7416 13 20 19.6286l2.5216 1.2972L20 21.718l2.5216 1.2973L20 23.8795l2.3055 1.1524c-.288.1449-2.3055.7922-2.3055.7922l9.8704 4.9712v.2867c0 3.3866 4.4668 6.1243 9.8707 6.1243 5.4755 0 9.8707-2.7377 9.8707-6.1243v-1.1517c0 3.3851-4.3952 6.1951-9.8707 6.1951-5.4031 0-9.8694-2.8084-9.8707-6.1943v-.0015m0 .0015-7.5649-3.818 1.2253-.4322 6.3396 3.1707c.0013 3.3859 4.4675 6.1943 9.8707 6.1943 5.4755 0 9.8707-2.8107 9.8707-6.1965v-1.081c0 3.4574-4.3952 6.1959-9.8707 6.1959-5.4033 0-9.8696-2.7364-9.8707-6.1939l-7.3488-3.674 1.2972-.4321 6.0516 3.0258v.0696c0 3.3866 4.4668 6.1244 9.8707 6.1244 5.4755 0 9.8707-2.7378 9.8707-6.1974v-1.0086c0 3.3858-4.3952 6.125-9.8707 6.125-5.4032 0-9.8695-2.7362-9.8707-6.1222l-7.3488-3.746 1.2972-.4321 6.0516 3.0978c.0011 3.386 4.4674 6.1216 9.8707 6.1216 5.4755 0 9.8707-2.7377 9.8707-6.1243v-1.0087c0 .4321-.0655.9386-.216 1.3692-.9647 2.7534-4.9711 4.7551-9.6547 4.7551-5.4039 0-9.8707-2.7377-9.8707-6.1966v-.0678l-7.3488-3.6765 17.22-5.7643 17.2192 5.7643-7.3488 3.674v1.1523l6.1244-3.0978 1.2244.4313-7.3488 3.7477v1.0083l6.1244-3.0266 1.2244.4321-7.3488 3.6748v1.0812l6.3405-3.1715 1.2972.4322-7.6377 3.8205v.8651l9.8712-4.9721-2.3064-.7922 2.3064-1.1524-2.5224-.8651 2.5224-1.2964-2.5224-.7922m-31.8455-.9371 14.6255-4.8992 14.6272 4.9-4.9 2.4488c-.8651-2.8818-4.8992-5.0433-9.7272-5.0433-4.8272 0-8.8621 2.1615-9.7255 5.0424l-4.9-2.4487Zm69.0985.6283v5.8371c0 .4446-.0033 1.0001-.096 1.4769-.0688.351-.1863.659-.3867.8485-.1928.183-.5943.3204-.9263.3204-.1681 0-.3461-.0463-.4603-.0761l-.024-.0067v1.3991c.2078.0588.4421.0877.7053.0877.8014 0 1.3544-.298 1.6996-.591.1507-.1275.279-.2649.3874-.4098.1076-.1441.1962-.2964.2682-.4545.2939-.6416.3262-1.3875.3262-2.1458v-4.8867h3.1922v8.4009h1.4926v-9.8h-6.1782Zm-9.1071 6.0209 1.4926-3.3056 1.4363 3.3056h-2.9289Zm4.5341 3.7791h1.6018l-4.5887-10.3605L81.845 30.417h1.6027l1.0629-2.38h4.1053l1.0249 2.38Zm-11.3067-8.4009h.6349c.5116 0 1.8246.0711 1.8246 1.4984 0 1.3717-1.1606 1.5265-1.8105 1.5265h-.649v-3.0249Zm-1.4918-1.3991v9.8h1.4934v-3.9753h.6491c.7044 0 1.6027-.1117 2.3618-.7699.4851-.4205.9413-1.1201.9413-2.1424 0-.7285-.2352-1.7344-1.2029-2.3801-.7335-.4893-1.4794-.5323-2.1151-.5323h-2.1276Zm53.7227 9.8008 1.01-5.9215 2.777 6.3719 2.82-6.3587.967 5.9083h1.519l-1.823-10.5276-3.4 7.5871-3.358-7.5871-2.032 10.5276h1.52Zm-7.299-1.2053c-2.045 0-3.482-1.5265-3.482-3.6814 0-2.1698 1.437-3.7104 3.482-3.7104 2.046 0 3.483 1.5406 3.483 3.7104 0 2.1557-1.437 3.6814-3.483 3.6814Zm0-8.7917c-2.887 0-5.03 2.2261-5.03 5.1103 0 2.856 2.129 5.0838 5.03 5.0838 2.903 0 5.032-2.2278 5.032-5.0838 0-2.8842-2.143-5.1103-5.032-5.1103Zm-9.979 1.5953h.636c.512 0 1.825.0711 1.825 1.4984 0 1.3717-1.161 1.5265-1.812 1.5265h-.649v-3.0249Zm-1.492-1.3991v9.8h1.493v-3.9753h.649c.706 0 1.605-.1117 2.365-.7699.484-.4205.938-1.1201.938-2.1424 0-.7285-.235-1.7352-1.201-2.3801-.733-.4893-1.478-.5323-2.115-.5323h-2.129Zm59.304 9.8h2.71v-4.2137l2.804 4.2137H180l-3.773-5.054 3.676-4.7452h-3.18l-2.914 4.1161v-4.1161h-2.71v9.7992Zm-10.447 0h2.707v-3.919h3.291v3.919h2.708v-9.8h-2.708v3.5283h-3.291V20.617h-2.707v9.8Zm-5.86-7.463 1.106 3.6127h-2.213l1.107-3.6127Zm-5.089 7.463h2.904l.54-1.6929h3.289l.539 1.6929h2.903l-3.442-9.7992h-3.289l-3.444 9.7992Zm-5.511-1.9587v-2.058h1.16c.856 0 1.355.2509 1.355 1.0208 0 .7839-.511 1.0372-1.355 1.0372h-1.16Zm-2.71 1.9587h4.155c.745 0 3.778 0 3.778-3.0373 0-2.9397-3.04-2.9397-3.79-2.9397h-1.433v-1.4703h4.436v-2.3519h-7.146v9.7992Zm-39.002-9.8v9.8h1.493v-8.4009h4.119v8.4009h1.492v-9.8h-7.104Zm-34.9253 0 3.4827 6.8736-1.2988 2.9256h1.5472l4.3677-9.7992h-1.5489l-2.2236 5.0821-2.5299-5.0821h-1.7964Zm-21.1845-.4851c1.3692.9363 2.2335 2.0895 2.2335 3.3867 0 1.2972-.8651 2.5216-2.2335 3.3867v-1.2252c.3352-.3013.6076-.6184.8038-.9512.2252-.3833.3485-.7865.3485-1.2095 0-.7202-.4321-1.5133-1.1523-2.0895v-1.298Z"/>
</svg>