<svg xmlns="http://www.w3.org/2000/svg" viewBox="0 0 200 50">
	<path class="bg-logo" fill="#0073AE" d="M0 0h200v50H0z"/>
	<path fill="#fff" d="M157.633 28.8658h-4.444l2.222-5.8909 2.222 5.8909Zm-8.213 0h-1.256v3.1869h14.686v-3.1869h-1.256l-3.574-8.5949-.098-.2897-.192-.2897-.291-.1931-.289-.2898-.29-.1932-.387-.1931-.483-.0966h-.966l-.483.0966-.386.0966-.387.1931-.29.2898-.193.2897-.193.2897-.097.2897-3.575 8.5949Zm-8.985 0v-6.76h1.642l.291.0966.289.0965.194.0966.193.1931.192.1932.098.1931.096.1932.097.2897.096.2897v3.1869l-.096.2897-.097.2897-.096.2897-.098.1931-.096.1932-.193.1931-.194.0966-.192.0966-.291.0965-.289.0966h-1.546v.0966Zm-3.768 0h-1.546l-.29-.0966-.289-.0966-.194-.0965-.193-.0966-.194-.1931-.096-.1932-.097-.1931-.096-.2897-.097-.2897-.097-.2897v-2.9938l.097-.3863.097-.2897.096-.2897.097-.1931.096-.0966.194-.1932.193-.1931.29-.0966.289-.0965.291-.0966h1.642v6.76h-.193Zm0-13.8097v3.8628h-3.285l-.29.0965-.29.0966-.29.0966-.289.0966-.291.1932-.289.1931-.29.1931-.29.1932-.29.2897-.29.2897-.193.2897-.193.2897-.097.2897-.097.2898-.096.2897-.096.2897-.097.2897-.097.2897-.097.2897v4.3458l.097.2897.097.2897.097.2897.096.2897.096.2898.097.2897.097.2897.193.2897.193.2897.29.2897.29.2897.29.2897.29.1932.289.1932.291.1931.289.0966.29.0966.29.0965.29.0966h3.285v3.8628h3.768v-3.8628h3.382l.289-.0966.291-.0965.289-.0966.29-.0966.29-.1931.29-.1932.29-.1932.289-.2897.29-.2897.29-.2897.193-.2897.193-.2897.097-.2897.097-.2897.097-.2898.096-.2897.096-.2897.097-.2897.097-.2897v-4.3458l-.097-.2897-.097-.2897-.096-.2897-.096-.2897-.097-.2897-.097-.2898-.097-.2897-.193-.2897-.193-.2897-.29-.2897-.29-.2897-.289-.1932-.483-.1931-.291-.1931-.289-.1932-.29-.0966-.29-.0966h-.29l-.29-.0966h-3.285v-3.8628h-3.671v-.0965Zm-16.811 4.732-.194-.2897-.289-.1932-.291-.1932-.29-.1931-.289-.0966-.291-.0966h-.675l-.291.0966-.289.0966-.29.0965-.29.1932-.483.2898-.193.2897-.193.2897-5.218 11.9749h3.961l3.478-8.8846 3.479 8.8846h3.961l-5.121-11.9749-.192-.2897Zm-18.358 8.2085v-1.1588l.096-.0965h4.444v2.2211h-4.347v-.4829l-.193-.4829Zm-3.092-9.0777v3.1869h6.956l.097.0966.096.0965.098.0966.096.0966v.9657h-5.218l-.386.0965-.3863.0966-.2899.1931-.3865.1932-.3865.2898-.3865.3862-.2898.3863-.0966.3863-.1933.4828-.0966.4829-.0965.4829v2.2212l.0965.2897.0966.2897.0967.2897.0966.2897.0966.2897.0966.2897.1932.1931.1933.1932.1932.1932.2899.2897.3865.1931.3865.0966.3863.0966.29.0965h7.633l.29-.0965.29-.0966.289-.1931.29-.1932.193-.2897.194-.2898.096-.2897.097-.2897v-7.6291l-.097-.4829-.096-.4828-.097-.3864-.193-.3863-.193-.5794-.194-.2897-.193-.2897-.29-.2897-.289-.1931-.291-.1932-.386-.1932-.386-.0966-.387-.0965h-8.309Zm-6.2802 8.8846-.0966.0966-.0966.0965-.0967.0966-.0966.1932-.1932.0965-.1933.0966-.1932.0966-.2899.0965-.2898.0966H87.778v-6.76h2.8985l.2898.0966.2899.0966.1933.0965.1932.1932.1932.1931.0967.1932.0966.1931v3.8629l-.0966.2897-.0967.2897.2899.2897Zm-4.3478 4.2492h4.1546l.2898-.0966.2899-.0965.2898-.0966.2899-.0966.2899-.0965.2898-.1932.2898-.1932.2899-.1931.2898-.2898.2899-.2897.2898-.2897.1933-.2897.1932-.2897.0967-.2897.0966-.2897.0966-.2898.0966-.2897.0966-.2897.0967-.2897v-4.3457l-.0967-.2897v-.5795l-.0966-.2897-.0966-.2897-.1932-.3863-.1933-.2897-.1932-.2897-.0967-.3863-.2898-.2897-.2899-.2897-.2898-.1932-.1933-.1931-.2898-.1931-.2898-.0966-.2899-.0966-.2898-.0966-.1933-.0966-.2898-.0966-.2899-.0965h-6.1835l-.1933.0965-.2898.0966-.2899.0966-.1933.1932-.1932.0966-.1932.1931-.1933.1931-.0966.1932-.0966.2897-.1933.2897v15.1617h3.7682v-3.7662Zm-4.3479-13.1338h-3.9614l-3.6714 8.2086-3.3817-8.2086h-4.058l5.604 12.5544-2.1257 4.5388h3.9614l7.6328-17.0932ZM65.749 11h99.614c1.255 0 2.415.5794 3.284 1.3521.87.8691 1.353 2.0279 1.353 3.2834v19.604c0 1.2555-.579 2.4143-1.353 3.2835-.869.8692-2.029 1.352-3.284 1.352H65.749c-1.2561 0-2.4155-.5794-3.285-1.352-.8696-.8692-1.3527-2.028-1.3527-3.2835V15.732c0-1.2554.5797-2.4143 1.3527-3.2834C63.2369 11.5794 64.3963 11 65.749 11ZM41.5797 22.4907c-1.3398.9655-2.3925 2.414-2.3925 4.2486 0 1.545.7656 2.9934 1.9139 4.0556.7657.6759 1.2442.6759 1.2442-.0966v-7.8214c0-.3862-.3828-.5793-.7656-.3862Zm5.0721-4.7315c-.2871-.0965-.3828-.2896-.3828-.4827v-2.7038c0-.2896-.2871-.4828-.6699-.2896-1.1485.7724-1.914 1.3518-3.0624 2.1243-.1914.0965-.2871.2896-.2871.5794v.4828c0 .1931-.1914.3862-.3828.4827-.4785.1931-1.0528.3863-1.5312.5794-3.1581 1.5449-5.3592 4.6349-5.3592 8.3042 0 3.283 1.8182 6.5661 4.785 8.4007.5742.3863 1.1484.4829 1.7225-.0965 1.5313-1.4485 3.0625-2.8968 4.5936-4.3452.1915-.1931.3828-.4829.3828-.8691V23.07c0-.5793.3828-.4827.6699-.2896 1.4356.9656 2.3925 2.5105 2.3925 4.152 0 1.3519-.4784 2.5106-1.3398 3.4762-.287.3863-.287.3863-.3828.8691v3.6692c0 .5794.5743.5794.8614.3863 2.9667-1.6416 4.9764-4.9246 4.9764-8.4973 0-4.4418-3.1582-8.0145-6.9861-9.0767ZM34.1151 11h20.2883c2.2968 0 4.1151 1.9312 4.1151 4.1521v20.5674c0 2.3174-1.8183 4.152-4.1151 4.152H34.1151C31.8183 39.9681 30 38.0369 30 35.816V15.1521C30 12.9312 31.8183 11 34.1151 11Z"/>
</svg>