<svg xmlns="http://www.w3.org/2000/svg" viewBox="0 0 200 50">
	<path class="bg-logo" fill="#003870" d="M0 0h200v50H0V0Z"/>
	<path fill="#fff" d="M72.4 26.4h5.2c.2 0 .4-.2.6-.4.3-.5.5-1.1.4-1.7 0-.6-.1-1.1-.4-1.6-.2-.2-.4-.4-.6-.5-.2 0-.5-.1-.8-.1h-3.5v-1.8h4v-1h-4.9c-.1 0-.3.1-.4.2-.1.1-.2.2-.2.4V25.5c0 .3 0 .5.2.7.1.1.2.2.4.2Zm1-1.5v-1.4h3.3c.1 0 .2 0 .3.2 0 .1.2.2.2.3v.4c0 .3 0 .5-.3.8 0 0-.2.1-.3.2H73.4V25ZM76.7 36.8l-1.5 3.6h.9l.3-.7h1.5l.3.7h.8l-1.5-3.6h-.7Zm-.1 2.5.5-1.3.5 1.3h-1ZM159.1 16.2c.3.2.6.3.9.2h4.9v-.9h-4.6v-1.8h3.7v-1h-3.7V10.9h4.4v-1h-5.3c-.2 0-.3.1-.4.2-.2.2-.3.5-.3.8v5.6c0 .1.1.3.2.4ZM163.4 36.3h-.2v-.2h-.6c0 .5.5.7.9.7.5 0 .9-.2 1-.7h-.6s0 .2-.1.2h-.3ZM81.7 38.3h-1.4v-1.5h-.8v3.7h.8V39h1.4v1.5h.8v-3.7h-.8v1.5zM80 14.4c.1.5.4 1 .7 1.4.9.6 2 .9 3.1.8.9 0 2.2 0 3.1-.8.8-.8.9-2.3.9-3 0-1 0-2.3-.9-3-.9-.6-1.9-.9-3-.8-1.1-.1-2.2.2-3.1.8-.3.4-.6.9-.7 1.4-.1.5-.2 1.1-.1 1.6 0 .5 0 1.1.1 1.6Zm1.9-3.6c.6-.4 1.2-.6 1.9-.6s1.3.2 1.9.6c.4.6.5 1.3.4 2 0 .7 0 1.4-.5 1.9-.3.2-.6.4-.9.5-.3.1-.7.1-1 0-.9 0-1.5 0-1.9-.6-.4-.6-.6-1.3-.5-1.9 0-.7 0-1.4.5-2ZM73.6 38.2h-.9v-.7h2v-.6h-2.8v3.6h1.7c.8 0 1.4-.5 1.4-1.1s-.5-1.1-1.4-1.1Zm-.1 1.6h-.8v-1h1s.1 0 .2.1c0 0 .1.1.1.2v.2c0 .3-.2.5-.6.5ZM87.7 26.3ZM96.7 16.5H98V14h3.5c.4 0 .9-.1 1.2-.4.3-.3.5-.6.6-.9.1-.3.2-.7.1-1.1 0-.7-.2-1.4-.6-2-.4-.3-1-.5-1.5-.5h-4.1c-.1 0-.3.1-.4.2-.1.1-.2.3-.2.4V16.4Zm1.4-5.8v-.3H100.7c.3 0 .6 0 .9.2.2.3.3.6.3.9v.5c0 .2-.1.3-.2.4-.1.1-.3.2-.4.2h-3.2v-2ZM83.5 40.5v-.1.1zM72.5 16.5h4.2c.3 0 .5 0 .8-.1.3 0 .5-.2.7-.4.2-.2.3-.5.4-.7 0-.3.1-.5 0-.8v-.7c0-.2-.2-.4-.3-.6-.2-.2-.4-.3-.7-.4.2 0 .4-.2.6-.4l.3-.6v-.6c0-.6-.1-1.1-.5-1.6-.4-.3-.9-.5-1.4-.5h-4.2c-.2 0-.3.1-.4.3-.2.2-.3.5-.3.8v5.2c0 .3 0 .6.3.8.1.1.3.2.4.3ZM77 15c-.2.2-.5.3-.8.2h-2.6V13.4h2.9c.5 0 .6.2.7.3.1.2.2.5.2.7 0 .2 0 .5-.2.7Zm-3.6-4.3V10.4H76c.2 0 .5 0 .7.2.2.2.3.5.2.7 0 .2 0 .5-.2.7 0 0-.2.2-.3.2H73.2v-1.5ZM79.7 26.4H81l.7-1.9h3.8l.7 1.9h1.2L84.7 20c0-.3-.3-.5-.5-.7-.2-.2-.5-.2-.8-.2-.3 0-.6 0-.8.2-.2.2-.4.4-.5.7l-2.7 6.4Zm3.7-5.9s0-.3.2-.3.2.3.2.3l1.2 2.9h-2.7l1.2-2.9ZM124.6 16.5h8.4v-.9h-.7l-2.3-5.4c0-.3-.3-.5-.5-.7-.2-.2-.5-.2-.8-.2-.3 0-.6 0-.8.2-.2.2-.4.4-.5.7l-2.2 5.4h-.6v.9Zm3.9-6s0-.3.2-.3.2.3.2.3l2 4.8h-4.3l2-4.8ZM134.3 16.2c.3.2.6.3.9.2h4.9v-.9h-4.6v-1.8h3.7v-1h-3.6V10.9h4.4v-1h-5.3c-.2 0-.3.1-.4.2-.2.2-.3.5-.3.8v5.6c0 .1.1.3.2.4ZM114.2 39.2v-2.3h-.8v3.6h.7l1.7-2.3v2.3h.8v-3.6h-.7l-1.7 2.3zM129.9 40.4h.8v-2.9h1.8v-.7h-2.6v3.6zM135.9 36.8h-2.5v.9c0 .7-.1 1.5-.5 2.1h-.4v1.4h.8v-.8h2.3v.8h.8v-1.4h-.5v-3Zm-.7 3h-1.3c.3-.6.4-1.2.4-1.9v-.5h.9v2.4ZM138.1 36.8l-1.5 3.6h.9l.3-.6h1.5l.3.6h.8l-1.5-3.6h-.7Zm-.1 2.4.5-1.3.5 1.3h-1ZM126.4 40.5v-.1h2.7v-.6h-1.9v-.9h1.7v-.6h-1.7v-.8h1.9v-.7h-2.7v3.7zM121.7 38.8s-.2-.1-.3-.2c.2 0 .3-.2.4-.3 0-.1.1-.3.1-.5 0-.6-.5-1-1.3-1h-1.7v3.6h1.7c.8 0 1.3-.4 1.3-1v-.3c0-.1-.1-.2-.2-.3Zm-1.2 1h-.9v-.9h.9c.4 0 .6.2.6.5s-.2.5-.6.5Zm0-1.5h-.8v-.8h.8c.4 0 .6.2.6.4s-.2.4-.6.4ZM121.8 16.4h1.7l-3-2.9c-.2-.2-.3-.4-.4-.7 0-.2.1-.4.3-.5l2.7-2.9v-.2h-1.6l-2.4 2.7c0 .1-.2.2-.3.4v-3h-1.3v3.1c0-.1-.2-.2-.3-.4l-2.4-2.7h-1.6v.1l2.7 2.9c.2.2.3.3.3.5 0 .1 0 .3-.1.4 0 .1-.2.2-.3.3l-3 2.9h1.7l2.6-2.7c.1-.1.3-.3.4-.5V16.5h1.3v-3.2c0 .2.2.3.4.5l2.6 2.7ZM143.3 16.4v-3h3.8v3H148.5l.1-.1V9.2h-1.5v2.9h-3.8V9.2H142V16.4l.1.1H143.5ZM86.6 36.8h-.9l-1.4 1.8v-1.8h-.8v3.6h.8v-1.9l1.4 1.9h1l-1.5-1.9 1.4-1.7zM164.3 36.8l-1.7 2.4v-2.4h-.8v3.7h.7l1.7-2.4v2.4h.8v-3.7h-.7zM161 38.4v-.7c0-.2-.2-.4-.4-.6-.3-.3-.7-.4-1.1-.4s-.8.1-1.1.4c-.3.3-.4.6-.4 1.3v1c0 .2.2.4.3.6.3.3.7.4 1.1.4s.8-.1 1.1-.4c.2-.2.3-.4.4-.6v-1.1Zm-1 1.3c-.1.1-.3.2-.5.2s-.4 0-.5-.2c-.2-.2-.2-.5-.2-.9v-.2c0-.5 0-.8.2-1 .1-.1.3-.2.5-.2s.4 0 .5.2c.2.2.2.2.2 1s0 .9-.2 1.1ZM116 36h-.6s0 .2-.1.2h-.5V36h-.6c0 .5.5.7.9.7.2 0 .4 0 .6-.2.2-.1.3-.3.4-.5ZM157.2 9.6c-.1-.2-.3-.3-.4-.4-.2 0-.4-.1-.6-.1-.3 0-.6 0-.8.2-.2.2-.4.4-.5.6l-3.1 4.7s0 .1-.1.1 0-.1 0-.2V9.1h-1.3v6c0 .4 0 1.3 1.2 1.3.3 0 .5 0 .7-.2.2-.1.4-.3.5-.6l3.2-4.8s.1-.2.2-.2 0 0 0 .2v5.6h1.3v-6c-.1-.3-.2-.6-.3-.8ZM155.9 38.2h-.9v-.7h1.9v-.6h-2.8v3.6h1.7c.8 0 1.3-.5 1.3-1.1s-.5-1.1-1.4-1.1Zm-.1 1.6h-.8v-1h1s.1 0 .2.1c0 0 0 .1.1.2v.2c0 .3-.2.5-.6.5ZM146.9 37.5h1.1v2.9h.8v-2.9h1v-.7h-2.9v.7zM153.4 38.4v-.7c0-.2-.2-.4-.4-.6-.3-.3-.7-.4-1.1-.4s-.8.1-1.1.4c-.3.3-.4.6-.4 1.3v1c0 .2.2.4.3.6.3.3.7.4 1.1.4s.8-.1 1.1-.4c.2-.2.3-.4.4-.6v-1.1Zm-1 1.3c-.1.1-.3.2-.5.2s-.4 0-.5-.2c-.2-.2-.2-.5-.2-.9v-.2c0-.5 0-.8.2-1 .1-.1.3-.2.5-.2s.4 0 .5.2c.2.2.2.2.2 1s0 .9-.2 1.1ZM143.4 37.4h.4c.1 0 .2 0 .3.2 0 0 .2.2.2.3h.8c0-.3-.3-.7-.5-.9-.3-.2-.6-.3-1-.3s-.8.1-1.1.4c-.2.2-.3.4-.4.7v.8c0 .7 0 1.1.4 1.5.3.3.7.4 1.1.4.3 0 .7 0 1-.3.3-.2.5-.5.5-.9h-.8c0 .1-.1.2-.2.3 0 0-.2.1-.3.2h-.4c-.1 0-.2 0-.3-.2-.2-.2-.2-.3-.2-1s0-.9.2-1c0 0 .2-.1.3-.2ZM124.7 39.7s-.2.1-.3.2h-.4c-.1 0-.2 0-.3-.2-.2-.2-.2-.3-.2-1s0-.9.2-1c0 0 .2-.1.3-.2h.4c.1 0 .2 0 .3.2 0 0 .2.2.2.3h.8c0-.3-.3-.7-.5-.9-.3-.2-.6-.3-1-.3s-.8.1-1.1.4c-.2.2-.3.4-.4.7v.8c0 .7 0 1.1.4 1.5.3.3.7.4 1.1.4.3 0 .7 0 1-.3.3-.2.5-.5.6-.9h-.8c0 .1-.1.2-.2.3ZM90.2 36.8v3.6h.8v-1.9h.1v-1.7h-.9zM90.2 40.5v-.1.1zM96.8 38.4v-.7c0-.2-.2-.4-.4-.6-.3-.3-.7-.4-1.1-.4s-.8.1-1.1.4c-.3.3-.4.6-.4 1.3v1c0 .2.2.4.3.6.3.3.7.4 1.1.4s.8-.1 1.1-.4c.2-.2.3-.4.4-.6v-1.1Zm-1 1.3c-.1.1-.3.2-.5.2s-.4 0-.5-.2c-.2-.2-.2-.5-.2-.9v-.2c0-.5 0-.8.2-1 .1-.1.3-.2.5-.2s.4 0 .5.2c.2.2.2.2.2 1s0 .9-.2 1.1ZM93.3 36.8h-.9l-1.3 1.8 1.4 1.8h.9l-1.5-1.9 1.4-1.7zM91.1 38.6v-.1.1zM90.6 26.4v-3h3.8v3H95.8l.1-.1v-7.1c-.1 0-.2 0-.2-.1h-1.3V22h-3.9v-2.9h-1.3V26.3l.1.1h1.5ZM87.2 41.3l.8-.6v-1h-.8v1.6zM94 16.4c.2 0 .5-.2.7-.4.2-.2.3-.5.4-.7 0-.3.1-.5 0-.8v-.7c0-.2-.1-.5-.3-.7-.2-.2-.4-.3-.7-.4.2 0 .4-.2.6-.4l.3-.6v-.6c0-.6-.1-1.1-.5-1.6-.4-.3-.9-.5-1.5-.5h-4.2v.9h3.6c.2 0 .5 0 .7.2.2.2.3.5.2.7 0 .2 0 .5-.2.7 0 0-.2.2-.3.2h-3.1v.9h2.9c.5 0 .6.2.7.3.1.2.2.5.2.7 0 .3 0 .5-.2.7-.2.2-.5.3-.8.2h-3.7v.9h5.1ZM104.3 26.3l-3.5-3c-.2-.1-.5-.4-.5-.6s.2-.3.4-.5l3.2-2.9h-1.7l-3 2.7c-.1.1-.2.2-.3.4v-2.9h-1.3V26.8h1.3v-3.2c0 .2.2.3.4.5l3.3 2.8h1.7v-.1ZM109.8 38.2h-.8v-1.4h-.8v3.6h1.6c.3 0 .7 0 .9-.3.3-.2.4-.5.5-.8 0-.7-.5-1.1-1.4-1.1Zm0 1.7h-.7v-1H110s.1 0 .2.1c0 0 .1.1.1.2v.2c0 .3-.3.5-.6.5ZM106.1 36.8h-1.6v3.6h.8V39h.8c.8 0 1.4-.5 1.4-1.1s-.5-1.1-1.4-1.1Zm0 1.7h-.7v-1h.7c.4 0 .6.2.6.5s-.3.5-.6.5ZM111.6 36.9h.8v3.6h-.8zM97.2 37.5h1.1v3h.8v-3h1v-.7h-2.9v.7zM103.7 38.4v-.7c0-.2-.2-.4-.4-.6-.3-.3-.7-.4-1.1-.4s-.8.1-1.1.4c-.3.3-.4.6-.4 1.3v1c0 .2.2.4.3.6.3.3.7.4 1.1.4s.8-.1 1.1-.4c.2-.2.3-.4.4-.6v-1.1Zm-1 1.3c-.1.1-.3.2-.5.2s-.4 0-.5-.2c-.2-.2-.2-.5-.2-.9v-.2c0-.5 0-.8.2-1 .1-.1.3-.2.5-.2s.4 0 .5.2c.2.2.2.2.2 1s0 .9-.2 1.1ZM108.7 9c-1.1-.1-2.2.2-3.1.8-.3.4-.6.9-.7 1.4s-.2 1.1-.1 1.6c0 .5 0 1.1.1 1.6s.4 1 .7 1.4c.9.6 2 .9 3.1.8.9 0 2.2 0 3-.8.8-.8.9-2.3.9-3 0-1-.1-2.3-.9-3-.9-.6-1.9-.9-3-.8Zm1.8 5.7c-.3.2-.6.4-.9.5-.3.1-.7.1-1 0-.9 0-1.5 0-1.9-.6-.4-.6-.6-1.3-.5-1.9 0-.7 0-1.4.5-2 .6-.4 1.2-.6 1.9-.6s1.3.2 1.9.6c.4.6.5 1.3.5 2s0 1.4-.5 1.9ZM66.1 9.4s-.2-.2-.3-.2H36c-.3 0-.5.1-.7.3-.2.2-.3.4-.3.7V40c0 .1.1.2.2.3 0 0 .2.2.3.2H65.3c.3 0 .5-.1.7-.3.2-.2.3-.4.3-.7V9.7c0-.1-.1-.2-.2-.3Zm-28.6 4.2V13h13.1v.6H37.5Zm2.5 1.6-.1-.1-.2-.5v-.2h8.5l.1.1.2.5v.2H40Zm.8 1.6-.1-.1-.2-.5V16H49l.1.1.2.5v.2h-8.5Zm.7 1.6-.1-.1-.2-.5v-.2h8.5l.1.1.2.5v.2h-8.5Zm.8 1.6-.1-.1-.2-.5v-.2h8.5l.1.1.2.5v.2h-8.5Zm.7 1.6-.1-.1-.2-.5v-.2h8.5l.1.1.2.5v.2H43Zm.8 1.6-.1-.1-.2-.5v-.2H52l.1.1.2.5v.2h-8.5Zm.8 1.6-.1-.1-.2-.5V24h8.5l.1.1.2.5v.2h-8.5Zm18.7 1.5v.1h-8l-.1.1-4.8 10.1-5.2-10.9v-.2H63.4v.5Zm0-12.9v.1h-.4c-.4 0-.8 0-1.2.2-.3.2-.6.5-.8.9l-4.8 10-.1.1h-1.7v-.2l4.4-9.4c.6-1.7-.8-1.7-1.1-1.7h-1.1c-.1 0 0 0 0-.1v-.5c0-.1 0 0 .1 0h6.6v.4Z"/>
	<path fill="#ed1b34" d="M61.3 24.9c.4 0 .8-.1 1.1-.4.3-.2.6-.5.7-.9s.2-.8 0-1.2c0-.4-.3-.7-.6-1-.3-.3-.6-.5-1-.5s-.8 0-1.2.1c-.4.2-.7.4-.9.7s-.3.7-.3 1.1c0 .5.2 1 .6 1.4.4.4.9.6 1.4.6Z"/>
</svg>