<svg xmlns="http://www.w3.org/2000/svg" viewBox="0 0 200 50">
	<path class="bg-logo" fill="#1D1D1B" d="M0 0h200v50H0z"/>
	<path fill="#fff" d="M96.0799 26.0402c-.64-.88-1.6-1.44-2.64-1.68.96-.24 1.84-.8 2.4-1.6.56-.8.88-1.76.8-2.72 0-2.56-1.84-4.8-5.44-4.8h-9.84v18.8h10.24c3.6 0 5.44-2.24 5.44-5.04 0-1.04-.32-2.16-.96-2.96Zm-10.72-7.36h5.04c.32 0 .56 0 .8.08s.48.24.72.4c.24.16.4.4.48.72.08.24.16.56.16.8 0 .32-.08.56-.16.8s-.24.48-.48.72c-.24.16-.48.32-.72.4-.24.08-.56.16-.8.08h-5.04v-4Zm5.12 11.92h-5.12v-4.4h5.12c.32 0 .64 0 .88.08.32.08.56.24.8.48s.4.48.56.72c.16.32.16.56.16.88.08 1.44-.88 2.24-2.4 2.24Zm18.4001-8.48H104v-3.36h9.68v-3.52H99.9999v18.8h8.8801c4 0 6.24-2.72 6.24-6s-2.24-5.92-6.24-5.92Zm1.84 6.96c-.16.32-.32.56-.56.8-.24.24-.56.4-.88.56-.32.08-.64.16-.96.16H104v-4.88h4.32c.32 0 .64 0 .96.16.32.08.64.32.88.56.24.24.4.48.56.8.16.32.24.64.24.96 0 .32-.08.56-.24.88Zm15.68-13.84h-8.8v18.8h4v-6.64h4.8c4.08 0 6.32-2.8 6.32-6.08 0-3.28-2.24-6.08-6.32-6.08Zm2 7.12c-.16.32-.32.64-.64.88-.24.24-.56.4-.88.56-.32.08-.72.16-1.04.08h-4.24v-5.04h4.24c.32 0 .72 0 1.04.08.32.08.64.32.88.56.24.24.48.56.64.88.16.32.24.64.24 1.04 0 .32-.08.64-.24.96Zm15.2-7.12h-8.8v18.8h4v-6.64h4.8c4.08 0 6.32-2.8 6.32-6.08 0-3.28-2.16-6.08-6.32-6.08Zm2.08 7.12c-.16.32-.32.64-.64.88-.24.24-.56.4-.88.56-.32.08-.72.16-1.04.08h-4.32v-5.04h4.24c.32 0 .72 0 1.04.08.32.08.64.32.88.56.24.24.48.56.64.88.16.32.24.64.24 1.04.08.32 0 .64-.16.96ZM54.48 24.04l6.24-.32.56 10-6.24.32-.56-10Zm7.12 7.44 1.6-6.08 9.68 2.56-1.6 6.08-9.68-2.56Zm4-7.92 5.44-8.4 5.28 3.44-5.44 8.4-5.28-3.44Zm-7.36-10.64L63.2 9l6.32 7.76-4.88 3.92c-.08.08-6.32-7.76-6.4-7.76ZM50 18.6l9.36-3.6 2.24 5.84-9.36 3.6L50 18.6Z"/>
	<path fill="#FFD101" d="M54.72 38.2793H150v2.08H54.72v-2.08Z"/>
</svg>