<svg xmlns="http://www.w3.org/2000/svg" viewBox="0 0 200 50">
	<path class="bg-logo" fill="#BD0D31" d="M0 0h200v50H0z"/>
	<path fill="#fff" d="M54.2996 29.2644c-.2685.0895-.358.358-.6266.358-.3581.0896-.7162.0896-1.0743.0896h-4.3865v-4.4761h3.3123c.3581 0 .6266.0895.9847.2686.2686.0895.3581.4476.3581.7161h.9847v-3.4913h-.9847c0 .2686-.0895.4476-.3581.6267-.2685.0895-.4476.0895-.8057.0895h-3.4018v-2.7751h3.7599c.3581 0 .8057.0895 1.2533.0895.2686 0 .4476.0895.6267.3581.2685.2685.358.4476.358.7161h.9848v-2.9542H44.0943v.9848c.2685 0 .4476.0895.6266.2685.0895.0895.0895.3581.0895.6267v9.1311c.0895.2686 0 .3581-.0895.6266-.0895.0896-.3581.2686-.6266.2686v.8057h11.3691v-3.0437h-.9847c.0895.2685 0 .4476-.1791.7162Zm-16.9194-9.3102c.2686 0 .4476.0895.6266.2685.0896.0896.0896.3581.0896.6267v2.9542h-5.1027V20.7599c0-.3581.3581-.7162.8057-.7162v-.9847h-4.8342v.9847c.2686 0 .4476.0895.6267.2686.0895.0895.2686.3581.2686.6266V30.07c0 .2686 0 .3581-.0896.6267-.0895.0895-.3581.2685-.6266.2685v.9848h4.8341v-.9848c-.2686 0-.3581-.0895-.6266-.2685-.0896-.0895-.0896-.3581-.0896-.6267v-4.3865h4.8342V30.07c0 .2686 0 .4476-.4476.7162-.0896.0895-.3581.2686-.6267.2686v.9847h5.0132v-.9847c-.2686 0-.4476-.0896-.6267-.2686-.0895-.0895-.0895-.3581-.0895-.6266V20.6704c0-.3581.3581-.7162.8057-.7162v-.9847h-4.8341l.0895.9847Zm34.1969 0h.0896c.2685 0 .4476.0895.6266.2685.0895.0896.0895.3581.0895.6267v8.9521h-3.6703v-8.8626c0-.2685 0-.4476.0895-.7162.0895-.0895.2686-.2685.4476-.2685h.0895v-.9847h-4.7446v.8056c.0895.0896.0895.0896.2686.0896.0895 0 .3581.0895.4476.2685.0895.2686.0895.4476.0895.7162v8.9521h-.6266c-1.0743.0895-2.1485-.2686-3.0437-.9848-.7162-.7161-1.0743-1.7008-.9848-2.7751 0-.9847.2686-1.9695.4476-2.7751.0896-.3581.2686-.8057.4476-1.3429.2686-.358.3581-.8056.6267-1.2532.0895-.4477.4476-.7162.9847-.8057v-.9848H58.149v.9848c.4476.0895.7162.2685.7162.358 0 .3581-.0895.7162-.3581 1.0743l-.2686.3581c-.0895.0895-.0895.3581-.2685.4476-.0895.2685-.0895.3581-.2686.6266l.2686.6267c-.6267 1.2533-.7162 2.6856-.3581 4.0284.0895.4476.3581.9847.6266 1.4323.2686.4477.6267.8057.9848 1.2533 1.2533 1.0743 2.9542 1.7009 4.6551 1.7009h12.5329v-.9847c-.2686 0-.4476-.0895-.6267-.2686-.2685-.2685-.2685-.4476-.2685-.7161v-8.9521c0-.2686 0-.3581.0895-.6267.2685-.0895.3581-.2685.6266-.2685h.0896v-.9847h-4.7447v.9847ZM25.653 25.5045c-.6267-.3581-1.3428-.6267-2.1485-.8057.7161-.2686 1.4323-.6267 1.9694-1.0743.3581-.358.6267-.9847.6267-1.6113 0-.6267-.0895-1.0743-.3581-1.6114-.2686-.3581-.6266-.7162-1.0743-.9847-.4476-.2686-.9847-.3581-1.4323-.3581-.7162-.0895-1.4323-.0895-2.1485-.0895H15v.8056c.2686.0896.4476.2686.6266.3581.0896.2686.0896.3581.0896.6267v9.1311c.0895.2686 0 .4476-.0896.6266-.0895.0896-.358.2686-.6266.2686v.9847h6.7141c.6266 0 1.2533 0 1.7904-.0895.4476 0 .8057-.0895 1.3428-.2686.3581-.0895.7162-.358.9847-.6266.7162-.7162 1.2533-1.7009 1.0743-2.7751 0-1.0743-.3581-1.88-1.2533-2.5066Zm-6.6246-4.8341h1.9695c.4476 0 1.0742.0895 1.4323.4476.3581.2685.4476.7161.4476 1.2532.0896.4477-.0895.9848-.4476 1.2533-.3581.2686-.9847.3581-1.4323.3581h-1.9695v-3.3122Zm2.059 9.3101h-2.059V25.594h2.059c.7162 0 1.3428.0895 1.7904.6266.4476.3581.7162.9848.7162 1.6114 0 1.4323-.8057 2.1485-2.5066 2.1485Zm143.1436-11.011v.9847c.269 0 .448.0895.627.2685.089.0896.089.3581.089.6267v2.9542h-5.013V20.7599c0-.3581.358-.7162.895-.7162v-.9847h-4.834v.9847c.269 0 .448.0895.627.2686.089.0895.089.3581.089.6266V30.07c0 .2686 0 .4476-.089.6267-.09.0895-.358.2685-.627.2685v.9848h4.834v-.9848c-.268 0-.358-.0895-.626-.2685-.09-.0895-.09-.3581-.09-.6267v-4.3865h5.013v4.4761c.09.2685 0 .4476-.089.6266-.09.0895-.358.2686-.627.2686v.9847h4.834v-.9847c-.268 0-.447-.0896-.626-.2686-.09-.0895-.09-.3581-.09-.6266V20.6704c0-.3581.358-.7162.895-.7162v-.9847h-5.192Zm-9.758 10.9215-4.207-11.1006h-3.312l-4.118 10.9216c-.09.4476-.358.8056-.806.9847v.9847h3.849v-.9847c-.089 0-.358 0-.447-.0895-.09-.0896-.269-.2686-.269-.3581v-.3581l.806-2.5066h4.118l1.074 2.6856v.1791c-.089.0895-.089.2685-.268.3581-.09 0-.358.0895-.448.0895v.9847h4.834v-.9847c-.268-.0895-.627-.4476-.806-.8057Zm-7.877-4.3865 1.432-4.0285 1.432 4.0285h-2.864Zm37.777 5.0131c-.268-.0895-.358-.2685-.447-.4476l-4.476-6.8035 2.775-2.5066c.268-.0895.627-.3581.806-.4476.268-.0896.626-.2686.805-.2686v-.9847h-5.192v1.0742c.448 0 .716.2686.716.3581 0 .0895-.089.2686-.358.4476l-3.491 3.1332v-3.3122c-.09-.2686 0-.4476.089-.6267.09-.0895.358-.2685.627-.2685v-.9848h-4.834v.9848c.268 0 .447.0895.626.2685.09.0895.09.3581.09.6267v9.1311c.09.2686 0 .3581-.09.6266-.089.0896-.358.2686-.626.2686v.9847h4.834v-.9847c-.269 0-.358-.0895-.627-.2686-.089-.2685-.089-.358-.089-.6266v-3.3123l1.432-1.2533 3.044 4.6551c.089.0895.089.2686.089.3581 0 .2686-.089.3581-.626.4476v.9847H185v-.9847c-.179-.0895-.358-.179-.627-.2686Zm-44.939-5.3712c-.716-.4476-1.432-.8057-2.328-1.2533-1.074-.3581-2.148-.7162-3.312-.9847h-.268v-2.1485h3.491c.806 0 1.253.3581 1.343 1.2533h.984v-3.0437h-9.936v.9847c.268 0 .447.0895.626.2685.269.0896.269.3581.269.6267v9.1311c.089.2686 0 .3581-.09.6267-.089.2685-.358.2685-.626.2685v.9848h6.535c1.253.0895 2.327-.0896 3.401-.4477.448-.2685.985-.6266 1.254-1.0742.358-.4476.447-1.0743.447-1.7009s-.268-1.2533-.447-1.7904c-.358-.8952-.895-1.3428-1.343-1.7009Zm-1.97 3.8494c-.089.2685-.447.4476-.716.6266-.716.2686-1.432.3581-2.148.3581-.09 0-.448-.0895-.985-.0895v-5.1027c.716.0895 1.432.3581 2.149.7162.626.2685 1.074.7161 1.432 1.2533.268.3581.448.8057.448 1.3428.089.2685.089.7161-.18.8952ZM95.0316 21.118c-.3581-.4476-.8057-.9848-1.4323-1.2533-.3581-.2686-.7162-.3581-1.0743-.4476-.3581-.0896-.8057-.2686-1.2533-.2686-.4476-.0895-1.0742-.0895-1.9694-.0895h-.2686v-.3581c0-.3581.2686-.6267.7162-.7162V17h-4.9237v.9847c.6267.0895.8057.3581.8057.7162v.3581h-.2685c-.8057 0-1.4324.0895-1.9695.0895-.3581 0-.8057.0895-1.2533.2686-.3581.0895-.7162.2685-1.0742.4476-.4476.358-1.0743.7161-1.4324 1.2533-.8057 1.0742-1.3428 2.417-1.3428 3.8494 0 1.2532.3581 2.417.9847 3.4017.7162.9848 1.6114 1.7905 2.6857 2.4171 1.0742.6266 2.417.8057 3.6703.8057h.0895v.3581c0 .0895 0 .3581-.0895.4476-.0895.0895-.2685.2685-.4476.2685h-.0895v.9848h4.7446v-.9848h-.0895c-.0895 0-.3581-.0895-.4476-.2685-.0896-.0895-.0896-.3581-.0896-.4476v-.3581c1.2533 0 2.5066-.2686 3.6704-.8057 1.0743-.6266 2.059-1.4323 2.6856-2.4171.9848-1.6113 1.2533-3.6703.6267-5.4607-.3581-.5372-.7162-1.2533-1.1638-1.7904Zm-9.2206 8.773c-.7162-.0895-1.4324-.3581-1.9695-.7162-.6266-.3581-1.0742-.9847-1.3428-1.6113-.3581-.7162-.4476-1.6114-.4476-2.3276-.0895-1.0742.2685-2.1485.9847-3.0437.7162-.7162 1.7009-1.2533 2.7752-1.2533v8.9521Zm6.9826-4.7446c0 .8057-.0895 1.6114-.3581 2.3275-.3581.6267-.7162 1.2533-1.3428 1.6114-.6267.4476-1.3428.7162-2.059.8057v-8.9521c.9847 0 2.059.4476 2.7752 1.2533.8056.7162 1.1637 1.8799.9847 2.9542Zm19.6944 5.7293c-.089 0-.268 0-.358-.0895-.089-.0895-.268-.2686-.268-.3581-.09-.0895-.09-.2685-.09-.3581v-9.6682c0-.0895.09-.2686.269-.2686.089-.0895.268-.2685.447-.2685v-.9848h-5.013v1.0743c.09 0 .358 0 .448.0895.089 0 .268.0895.268.2686v1.8799l-5.461 6.8036v-8.6835l.269-.2686c.089-.0895.269-.2686.448-.2686v-.9847h-5.0136v.8057c.0895.0895.3581.0895.4476.2686.0895 0 .2686.0895.2686.2685v9.6683c0 .2685 0 .4476-.0896.6266-.0895.0895-.358.2686-.6266.2686v.9847h5.0136l4.834-6.1769v4.2075c.089.358 0 .6266-.09.8056-.089.0896-.358.2686-.626.2686v.9847h5.102v-.9847h-.179v.0895Zm9.937-10.9215c.269 0 .448.0895.627.2685.089.0896.089.3581.089.6267v2.9542h-4.834V20.7599c0-.3581.358-.7162.806-.7162v-.9847h-4.834v.9847c.268 0 .447.0895.626.2686.09.0895.09.3581.09.6266V30.07c0 .2686 0 .4476-.09.6267-.089.0895-.358.2685-.626.2685v.9848h4.834v-.9848c-.269 0-.358-.0895-.627-.2685-.089-.2686-.089-.3581-.089-.6267v-4.3865h4.834v4.4761c.089.2685 0 .4476-.09.6266-.089.0895-.358.2686-.627.2686v.9847h4.835v-.9847c-.269 0-.448-.0896-.627-.2686-.09-.0895-.09-.3581-.09-.6266V20.6704c0-.4477.359-.8057.806-.7162v-.9847h-4.834c.09 0 .09.8056-.179.9847Z"/>
</svg>