<svg xmlns="http://www.w3.org/2000/svg" viewBox="0 0 200 50">
	<path class="bg-logo" fill="#9D235A" d="M0 0h200v50H0z"/>
	<path fill="#fff" d="M15.6088 20.6851v.0354c.0177.0532.0265.0974.0354.1417.0088.0442.0177.0885.0354.1417l.0354.0707c.0354.1063.0708.2125.1063.2834l.0354.0354c.1062.248.2479.4958.425.7437l.0354.0709c.0354.0353.0708.0708.1062.1416v.0355c.0354.053.0797.0973.124.1416.0442.0443.0885.0886.1239.1416l3.0458-3.0456L19.7524 13l-2.7978 2.7624-.2125.2479c-.7792.7792-1.2042 2.4082-1.2396 3.5415v.4604c0 .1062 0 .1771.0354.2833v.1063c0 .0531.0089.0973.0177.1416.0089.0443.0178.0886.0178.1417.0354-.0354.0354 0 .0354 0Zm19.7971-.4604v.1063c0 .0355 0 .0355-.0709.1062 0 .0177-.0088.0443-.0177.0709-.0088.0266-.0177.0531-.0177.0709v.0353c0 .0354-.0088.062-.0177.0886s-.0177.0531-.0177.0886c0 .0176-.0089.0442-.0177.0707-.0089.0266-.0178.0532-.0178.0709-.0176.0354-.0264.0708-.0353.1062-.0089.0354-.0177.0709-.0354.1063 0 .0177-.0089.0354-.0177.0531-.0089.0177-.0178.0354-.0178.0531-.0177.0354-.0354.0797-.0531.1239v.0002l-.0001.0001c-.0176.0442-.0353.0884-.053.1237l-.0354.0709c-.1416.2833-.3188.602-.5312.8499l-.0354.0354c-.0709.1062-.1771.2125-.248.2833v.0001c-.85-.7084-1.9478-1.0979-3.0811-1.0979-1.275 0-2.5145.4958-3.4352 1.4166l-4.427 4.4269.0354-6.6227 4.4978-4.5331c.85-.85 1.9478-1.3104 3.152-1.3812h.2125c1.1687 0 2.2311.4604 3.0456 1.2749.9562.9562 1.3458 2.6916 1.2396 3.8957v.1062ZM16.317 23.1288c-.6374-.6375-1.0978-1.452-1.2749-2.3374l-.0354 5.4894c-.0709 1.3457.4249 2.6561 1.3812 3.5768l6.3393 6.3394v-1.9832l.0354-.0355 2.3375-2.3374c-.3468-.3293-2.4504-2.4241-4.5118-4.4768-2.1495-2.1405-4.2532-4.2353-4.2713-4.2353Zm19.5492-2.2312c-.2125.8145-.6375 1.5937-1.2395 2.1957l-.0355.0355-11.2973 11.2975-.0355 6.6225L34.485 29.8576c.9917-.9916 1.4875-2.3728 1.3812-3.754v-5.206Zm15.2995 1.6291c0-1.5228-1.0979-2.5852-3.329-2.5852h-4.6749v10.2349h5.2415c1.9124 0 3.2228-1.2041 3.2228-3.0103 0-1.3103-.7438-2.1957-1.9125-2.479.85-.3542 1.4521-1.1688 1.4521-2.1604Zm-3.8249 1.7h-2.4436v-2.8333h2.5145c1.027 0 1.9478.1417 1.9478 1.4167 0 1.027-.6729 1.4166-2.0187 1.4166Zm.2479 4.4977h-2.6561v-3.1873h2.6561c1.1687 0 2.2312.177 2.2312 1.5937 0 1.3103-1.027 1.5936-2.2312 1.5936Zm11.8642 1.4165v-8.6413h-3.152l-.2125 4.8519c-.1063 2.8686-1.275 4.0019-2.7624 4.0019-.3896 0-.8146-.1062-1.0624-.177v-1.3813c.2125.0709.5666.1063.7082.1063.7437 0 1.3104-.425 1.3812-3.0457l.2125-5.9498h6.6935v10.235h-1.8061Zm10.9078.0355h1.9125l-3.9311-10.2349h-1.9124l-3.9666 10.2349h1.8416l.9916-2.7269h4.0727l.9917 2.7269Zm-4.604-4.0727 1.5937-4.3207 1.5229 4.3207h-3.1166Zm15.7599 6.5871v-2.5144h-6.6581v2.5499h-1.7708v-4.1082h.9917c.7791-1.3812 1.3458-4.2853 1.3458-7.1185v-1.5937h6.6581v8.6767h1.1332v4.1082h-1.6999ZM80.277 21.4996h-3.1165v.6021c0 2.5498-.5312 5.2415-1.1687 6.5164h4.2852v-7.1185Zm4.4978 8.6768h4.8519c2.2312 0 3.5061-1.1332 3.5061-3.1519s-1.2749-3.152-3.5061-3.152H86.581v-2.3728h5.7373v-1.5582h-7.5435v10.2349Zm1.7708-4.8518h2.9749c1.1333 0 1.8062.6375 1.7708 1.7353 0 1.0978-.6021 1.6645-1.7708 1.6645h-2.9749v-3.3998Zm8.3225-5.3831h1.7708v7.8621l4.4271-7.8621h2.054v10.2349h-1.771v-7.8622l-4.4267 7.8622h-2.0542V19.9415Zm10.0579 6.835c0 2.4791 1.877 3.6124 4.321 3.6124 2.869 0 3.896-1.9125 3.931-3.1874 0-1.3103-.815-2.3019-1.948-2.5144v-.0355c.779-.2125 1.629-1.1333 1.629-2.1958 0-1.9124-1.664-2.7623-3.683-2.7623-2.09 0-3.754.9208-3.825 3.2228h1.7c.106-1.2749.956-1.8062 2.231-1.8062 1.134 0 1.806.5313 1.806 1.452 0 .9562-.708 1.5937-1.629 1.5937h-1.239v1.3813h1.239c1.169 0 1.913.5312 1.913 1.629 0 1.1687-.709 1.8062-2.019 1.8062-1.452 0-2.656-.6021-2.656-2.1958h-1.771Zm18.487 3.3999h-1.806v-4.6039h-4.675v4.6039h-1.806V19.9415h1.806v4.0727h4.675v-4.0727h1.806v10.2349Zm4.179-8.7121h5.596v-1.5228h-7.367v10.2349h7.437v-1.5228h-5.666v-3.0458h5.171v-1.452h-5.171v-2.6915Zm11.899 8.9601c-2.903 0-4.781-2.1249-4.781-5.3478 0-2.904 1.771-5.3476 4.887-5.3476 2.055 0 3.932 1.1332 4.286 3.5061h-1.77c-.249-1.2396-1.205-1.9833-2.516-1.9833-2.159 0-3.045 1.9478-3.045 3.8248 0 1.9124.85 3.8248 3.011 3.8248 1.664 0 2.443-1.0978 2.62-2.6206h1.806c-.248 2.479-1.948 4.1436-4.498 4.1436Zm14.521-9.9517v-.5312h-7.048v10.2349h4.356c1.169 0 3.329-.5666 3.329-2.8686 0-1.8062-1.204-2.8332-3.258-2.8332h-3.789v-4.0019h6.41Zm-6.375 9.1725v-4.604h3.895c1.878 0 2.55 1.2396 2.55 2.302 0 1.1333-.708 2.302-2.904 2.302h-3.541Zm16.503.5312h-.673l-1.275-3.2936h-4.923l-1.309 3.2936h-.709l4.143-10.2349h.673l4.073 10.2349Zm-4.232-9.1012v-.0005c-.062-.1859-.123-.3718-.194-.5313-.072.1772-.133.3454-.195.5136-.062.1682-.125.3364-.195.5135l-1.912 4.7811h4.568l-1.877-4.7457c-.071-.1592-.132-.345-.195-.5307Zm13.016 9.1012h.637V19.9415h-.637v4.6039h-6.552v-4.6039h-.603v10.2349h.603v-5.0643h6.552v5.0643Zm6.48-5.9851 4.994 5.9851h-.779l-4.675-5.5601-2.125 1.9477v3.6124h-.602V19.9415h.602v5.8788l6.481-5.8788h.814l-4.71 4.2498ZM185 31.8764H84.7748v-.2479h99.9412l.284.2479Z"/>
</svg>