<svg xmlns="http://www.w3.org/2000/svg" viewBox="0 0 200 50">
	<path class="bg-logo" fill="#067941" d="M0 0h200v50H0z"/>
	<path fill="#fff" d="M76.6634 13.8595c2.0377-.5756 4.1583-.83 6.2736-.8567 1.7699-.0162 3.5532.0293 5.2936.3828 1.0416.2035 2.1019.5784 2.8517 1.3629.8594.8033 1.0656 2.0484 1.0469 3.1729-.0134 1.0899-.3507 2.268-1.229 2.9776-.5248.415-1.1353.7283-1.7913.8648-.0054.0322-.0134.0991-.0188.1312 1.4138.2731 2.8651.9345 3.6469 2.201.6106 1.0683.7096 2.3482.6185 3.5505-.0883 1.1862-.5703 2.3777-1.4807 3.1676-.8407.7443-1.9332 1.1193-3.0122 1.3629-1.3495.2865-2.7312.3856-4.1075.4284-2.7954.1312-5.6176-.1259-8.3166-.8782.1767-1.288.4739-2.5598.6855-3.8424.3239.016.6506.0401.9693.1178 1.6654.3802 3.3576.7257 5.074.6989.9077.008 1.8395-.0402 2.7044-.3535.5033-.1928 1.0389-.5301 1.1701-1.0924.1713-.6935.1151-1.5209-.391-2.0699-.4927-.5515-1.2423-.7604-1.9493-.8648-1.7163-.2624-3.4621-.1124-5.1918-.166.0053-1.1031.0188-2.2036-.0107-3.3041 1.4485-.0081 2.8972.0294 4.3457-.0376.7015-.0695 1.4861-.249 1.9199-.8594.6265-.8033.4337-2.2626-.5731-2.6696-.589-.2918-1.2664-.3427-1.9144-.3454-1.944-.0375-3.8504.3962-5.7488.7577-.3053-1.2772-.5087-2.5758-.8649-3.837Zm30.3316-.6345c3.194.0214 6.392.008 9.586.0053.005.8354-.005 1.6708.005 2.5063-2.377-.0135-4.758-.0081-7.135-.0027-.003 1.6681-.009 3.3389 0 5.0097 1.301.0027 2.603-.0053 3.903.0027 1.264.0349 2.617.4097 3.444 1.4299.945 1.1406 1.125 2.6829 1.132 4.11.017 1.3228-.066 2.7125-.674 3.9121-.474.8889-1.307 1.5851-2.274 1.8769-.672.2089-1.381.2678-2.08.2625-1.971 0-3.942-.0027-5.91 0 .012-6.37.005-12.74.003-19.1127Zm2.445 9.8027c.008 2.3241.016 4.6456-.003 6.9697 1.082.0215 2.161.0215 3.242.0081.764-.0322 1.626-.1607 2.14-.7899.64-.7417.699-1.7753.705-2.7071.005-.9559-.097-2.0162-.772-2.7553-.575-.581-1.417-.7149-2.198-.7149-1.036-.0079-2.075.0081-3.114-.0106Zm36.742-9.8c.801.016 1.603.0133 2.407-.0027.041 4.5037.008 9.0101.019 13.5138-.011 1.869.022 3.7353-.017 5.6015-.8-.0026-1.603-.008-2.404.0027-.034-3.0632-.014-6.129-.01-9.1922-2.643 0-5.289.0054-7.932-.0027.022 2.857 0 5.7167.014 8.5737 0 .2116-.041.4204-.073.6292-.795-.0214-1.59 0-2.385-.0133.005-6.3647-.016-12.732.011-19.0967.808-.0027 1.619-.0027 2.428.0027.037 2.5652-.013 5.1303.027 7.6928 2.64-.0108 5.278 0 7.918-.0027-.027-2.5732-.022-5.141-.003-7.7061Zm6.006 0c.806.0106 1.615.016 2.421 0 .085 2.8168-.038 5.6389.061 8.4558.447-.1633.664-.6078.956-.9506 1.547-1.9546 3.122-3.8879 4.667-5.8478.455-.5382.846-1.1354 1.355-1.6253.948-.0589 1.9-.0027 2.851-.0134-.573.8997-1.325 1.6628-1.989 2.4955-.965 1.1112-1.858 2.284-2.828 3.3898-.771.9747-1.617 1.8904-2.375 2.8758.849 1.1567 1.66 2.3429 2.49 3.513 1.323 1.7699 2.541 3.6147 3.856 5.3927.332.4712.632.9666 1.023 1.395-.956.0428-1.917.0428-2.871.0107-.508-.6266-.934-1.3174-1.413-1.9654-1.572-2.233-3.176-4.4475-4.74-6.6886-.232-.3266-.457-.6586-.711-.9719-.073-.0027-.218-.0054-.287-.0081-.045 2.1769-.005 4.3565-.019 6.536-.016 1.0389.043 2.0805-.043 3.1194-.798-.0161-1.595-.0026-2.394-.008-.024-6.3646-.007-12.7346-.01-19.1046Zm-116.8614.024c3.3578.0054 6.7155.0027 10.0732 0 1.4486.0241 2.9748.1366 4.2547.8809 1.0336.5918 1.7057 1.7084 1.8422 2.8812.1606 1.2183.0857 2.5812-.6962 3.588-.4311.6265-1.1139 1.0228-1.8128 1.2799.6454.2249 1.3121.4444 1.8476.8835 1.0737.814 1.5423 2.2091 1.5423 3.5184.0723 1.312-.0803 2.6936-.747 3.8477-.6373 1.0791-1.8395 1.6896-3.0284 1.9493-.9345.233-1.9064.2704-2.8678.2651-3.4567.008-6.9134-.0054-10.3702.008-.0135-.2517-.0295-.5007-.0349-.7497-.0027-6.1183.0135-12.2366-.0027-18.3523Zm6.0033 3.5077c0 1.3281-.0054 2.6562.0026 3.9842.9077-.0133 1.8181.0241 2.7231-.016.9211-.0321 1.6548-.897 1.7056-1.786.0295-.589-.0508-1.2531-.4846-1.6922-.3802-.3776-.9371-.498-1.4566-.4954-.8273.0027-1.6574.0027-2.4901.0054Zm.0026 7.4838c-.0053 1.5424-.008 3.0874.0027 4.6296.8675-.0053 1.7351.0027 2.6026-.0027.4365-.016.8863-.008 1.296-.1767 1.3816-.4552 1.7672-2.4124.9452-3.5156-.4338-.6614-1.2558-.9479-2.0189-.9452-.9425.016-1.885 0-2.8276.0106Zm12.5821-10.9861c2.375-.0134 4.7473.008 7.125-.0107 1.387 3.5934 2.6428 7.2375 3.9709 10.855.0482-.0027.1472-.0108.1954-.0161 1.0444-3.6201 2.26-7.1894 3.3042-10.8068 2.126-.0589 4.2547-.0107 6.3834-.0241-.1419.6909-.4659 1.3227-.7149 1.9761-1.5932 4.1423-3.2078 8.2737-4.8063 12.4106-.6694 1.7753-2.0805 3.2319-3.7941 4.0271-1.2076.5972-2.5518.8783-3.8906.9533-2.3643.0589-4.7259-.2276-7.0421-.6829.3856-1.2557.7604-2.5168 1.0416-3.7994 1.1567.257 2.3161.5837 3.513.5783 1.0068.0161 2.0778.0161 2.9882-.4712.4445-.2169.731-.6346 1.0309-1.0095-1.3817-.1392-2.7606-.6747-3.746-1.6788-.6693-.6614-.9452-1.5851-1.3147-2.4232-1.2933-2.9454-2.5651-5.8961-3.8396-8.8469-.1553-.3373-.3026-.6747-.4043-1.0308Zm71.1464-.0321c.959.0321 1.92-.0161 2.881.0294.04.0241.118.075.158.1018 1.237 4.4742 2.531 8.9377 3.762 13.4147.568 1.8449 1.033 3.7165 1.588 5.5641-.865 0-1.73 0-2.598.0027-.369-1.5022-.813-2.9829-1.183-4.485-.065-.241-.11-.4927-.252-.7015-1.941-.0161-3.88.0106-5.82-.0108-.545 1.7083-.951 3.4568-1.409 5.1892-.862.0107-1.724.0134-2.587 0 1.149-4.0592 2.295-8.1211 3.454-12.1777.673-2.3081 1.285-4.6349 2.006-6.9269Zm.977 4.5438c-.661 2.3671-1.349 4.7287-1.981 7.1037 1.654.0375 3.306-.008 4.962.0214-.865-2.9614-1.599-5.9603-2.443-8.9297-.233.5837-.38 1.1968-.538 1.8046ZM98.5983 20.5c.6399-.2009 1.3602-.1741 1.9677.1151.881.3989 1.535 1.296 1.58 2.2706.035.8756-.31 1.8048-1.028 2.3376-.699.5596-1.6843.7041-2.5304.4445-.9533-.3214-1.7298-1.1916-1.8476-2.201-.2008-1.2692.6292-2.5946 1.8583-2.9668ZM35 35.5883c4.5224-.059 9.0449-.0081 13.5674-.0241H156.092c2.969.016 5.939-.0376 8.908.0268-.069.6881-.037 1.3789-.037 2.0697-10.419.0214-20.84.0027-31.258.0081-32.903-.0081-65.8027.008-98.705-.0081v-2.0724Z"/>
</svg>