<svg xmlns="http://www.w3.org/2000/svg" viewBox="0 0 200 50">
	<path class="bg-logo" fill="#FF4107" d="M0 0h200v50H0z"/>
	<path fill="#fff" d="M91.1921 44.8766v-8.0973h1.4007v8.0925l-1.4007.0048Zm-5.6494-1.6701c0 1.1327.8342 1.7927 2.5044 1.7927.8326 0 1.6717-.1855 2.0816-.4017v-3.421c0-1.4233-.7875-1.9816-2.2139-1.9816-.7065.0053-1.4059.1421-2.0623.4034l.3518.9488c.4949-.2014 1.0215-.3134 1.5555-.3308.6423 0 1.0441.2162 1.0441.7955v.2873c-1.6879.0936-3.2612.3921-3.2612 1.9074Zm1.3248-.0307c0-.8343.8988-.9279 1.9364-.9812l.0048 1.6928c-.2591.0772-.5284.1147-.7987.1113-.7262 0-1.1425-.2985-1.1425-.8229Zm-4.6635 1.7008h1.4523l1.6137-5.5575h-1.3927l-.8068 3.4047c-.0871.4197-.1387.9038-.1387.9038h-.0178s-.0266-.1471-.0676-.3477c-.0338-.1661-.0777-.369-.1244-.5561l-.8956-3.4047h-1.2909l-.894 3.4047c-.1064.4197-.192.9038-.192.9038h-.0145s-.0087-.0732-.0245-.1868l-.014-.0978-.0156-.1029c-.0164-.1053-.0361-.223-.0586-.3409-.0112-.0589-.0232-.1179-.0358-.1754l-.7923-3.4047h-1.4119l1.6136 5.5575h1.4523l.8488-3.1645c.0759-.274.1337-.5526.1727-.8342h.0161c.0382.2808.0921.5594.1614.8342l.8568 3.1645Zm11.5635-8.0973v8.0973l1.4039-.0048v-8.0925h-1.4039Zm7.2245 5.4153-3.5761.4841c.1259.8069.723 1.2183 1.5378 1.2183.5353.0008 1.0633-.1194 1.5463-.3517l.403 1.0504c-.463.2356-1.2441.4019-2.0509.4019-1.8348 0-2.8062-1.1942-2.8062-2.9046 0-1.7106.9682-2.8965 2.5819-2.8965 1.5332 0 2.3912 1.0117 2.3912 2.527.001.0422.001.0844 0 .1267 0 .025-.001.0501-.002.075-.005.0901-.013.1799-.025.2694Zm-2.3998-1.9783c-.7325 0-1.2457.5374-1.2666 1.5765l2.3333-.3227c0-.8327-.4196-1.2538-1.0667-1.2538Zm3.5678 2.9902c0 1.165.507 1.7507 1.577 1.7507.186.0033.372-.017.553-.06.099-.0236.197-.0542.292-.0916v-1.1634c-.128.0511-.264.0785-.402.0807-.364 0-.645-.1533-.645-.6084v-2.7433h1.047v-1.052h-1.047v-1.6379l-1.375.4018v1.2361h-.708v1.052h.708v2.8353ZM116.633 44.8777v-3.6598c0-.5583-.34-.8971-.979-.8971-.286-.0023-.569.0435-.84.1355v4.4214h-1.399v-5.2783c.705-.278 1.458-.4151 2.216-.4034 1.651 0 2.42.6826 2.42 1.8751v3.8066h-1.418Zm-6.587.1229c-1.614 0-2.517-1.2459-2.517-2.9046 0-1.6589.897-2.895 2.517-2.895 1.62 0 2.514 1.2377 2.514 2.8966 0 1.6589-.895 2.903-2.514 2.903Zm0-4.699c-.742 0-1.113.6713-1.113 1.775s.371 1.775 1.113 1.775 1.115-.6583 1.115-1.775c0-1.1166-.369-1.775-1.115-1.775Zm10.215 2.3784 3.575-.4841c.011-.0766.019-.1535.024-.2305.006-.0801.008-.1603.007-.2407 0-1.5153-.855-2.527-2.391-2.527-1.624 0-2.582 1.186-2.582 2.8966 0 1.7104.971 2.9045 2.803 2.9045.803 0 1.588-.1662 2.052-.4018l-.406-1.0504c-.483.2322-1.011.3525-1.546.3517-.815 0-1.409-.4115-1.536-1.2183Zm-.084-.8859c.021-1.0391.537-1.5765 1.27-1.5765.647 0 1.06.4211 1.06 1.2537l-2.33.3228ZM116.351 17.4315v10.7857c0 2.109 1.613 3.834 3.579 3.834 1.965 0 3.584-1.7266 3.584-3.834V8.83561c.033-.49482-.042-.991-.22-1.45373-.179-.46273-.456-.8808-.814-1.2249-.357-.3441-.785-.6059-1.254-.76703-.469-.16112-.968-.21768-1.461-.1657-.421.02169-.833.12299-1.217.29853-.473.20165-.903.49318-1.266.85846-4.447 4.44406-8.85 8.91486-13.294 13.36106V8.83404C103.988 6.725 102.375 5 100.408 5c-.8186.00917-1.6064.31147-2.2207.85201-.22.14721-.4249.31586-.6116.50346L84.1646 19.7698V8.83404C84.1646 6.725 82.551 5 80.5823 5 78.6137 5 77 6.725 77 8.83404V27.9994c-.002.7671.2189 1.5183.6358 2.1623.1378.2513.3093.4826.5099.6874.4299.4191.9634.7165 1.5459.8617h.0129c.6514.1596 1.3331.1473 1.9783-.0358.6452-.183 1.2318-.5304 1.7024-1.0082L96.827 17.2299v10.7663c.0009.5499.1152 1.0937.3356 1.5975.1682.4697.4369.8971.7875 1.2522 1.3909 1.3942 3.7519 1.3119 5.2409-.1791 4.403-4.3979 8.761-8.8421 13.16-13.2353Zm5.986-8.67569-.002.03985V28.2172c0 1.5314-1.164 2.655-2.405 2.655-1.24 0-2.4-1.1201-2.4-2.655V14.5877l-3.266 3.2619c-1.086 1.0839-2.699 1.0556-3.576.1784-.875-.8768-.904-2.4863.185-3.5758l7.244-7.23851.001-.00155c.256-.25722.559-.46251.892-.60451l.015-.0063.015-.00669c.247-.11343.514-.17889.786-.1929l.031-.00162.032-.00331c.322-.03396.648.00299.954.10824.306.10525.586.27626.819.50103.234.22478.415.49787.532.80013.116.30226.165.62637.143.9496Z"/>
</svg>