<svg xmlns="http://www.w3.org/2000/svg" viewBox="0 0 200 50">
	<path class="bg-logo" fill="url(#a)" d="M0 0h200v50H0z"/>
  	<radialGradient id="a" cx="0" cy="0" r="1" gradientTransform="rotate(8.35558 -72.72845138 5.31248065) scale(202.146 66.5439)" gradientUnits="userSpaceOnUse">
  		<stop offset=".747349" stop-color="#DC1FBA"/>
  		<stop offset="1" stop-color="#9C09C8"/>
  	</radialGradient>
	<path fill="#fff" d="M86.4717 18.0686c-1.81 0-3.4456.5323-4.8412 1.4478v-8.3461h-3.8599v15.3934c0 4.684 3.9035 8.4526 8.6793 8.4526 4.7758 0 8.7229-3.7472 8.7229-8.4952 0-4.7478-3.8599-8.4525-8.7011-8.4525Zm-20.0409.2555c-4.296.4258-7.807 4.0453-7.807 8.3461 0 4.5563 3.9908 8.3674 8.6575 8.3674 4.6668 0 8.6575-3.8111 8.6575-8.3674 0-1.9375-.7196-3.7259-1.8754-5.1312l-8.5485-10.3474h-4.9938l5.9097 7.1325Zm-29.8759 9.3254-3.5328-8.9847H30.318l-3.5546 8.9847-3.5546-8.9847H19l6.2151 15.7979h2.7041l3.729-9.4106 3.7509 9.4106h2.7041l6.1933-15.7979h-4.187l-3.5546 8.9847Zm69.0851-9.5596c-4.819 0-8.7223 3.662-8.7223 8.2822s3.4233 8.6655 8.5053 8.6655c3.052 0 5.516-1.4265 7.261-3.875l-3.009-2.3846c-.873 1.5329-2.552 2.4271-4.231 2.4271-2.18 0-4.317-1.5116-4.492-3.7259h12.626v-1.1497c0-4.833-3.271-8.2396-7.938-8.2396Zm49.285 0c-4.82 0-8.701 3.662-8.701 8.4952 0 4.5349 3.423 8.4525 8.483 8.4525 3.053 0 5.517-1.4265 7.262-3.875l-2.661-2.1929c-.937 1.4051-2.639 2.2354-4.667 2.2354-2.027 0-4.209-1.5116-4.383-3.7259h12.583v-1.32c0-4.6627-3.25-8.0693-7.916-8.0693Zm13.52 5.195c0-.9794 1.374-1.7671 3.163-1.7671 1.787 0 3.772.8729 5.059 2.2781L179 21.0068c-2.224-1.9162-4.47-2.9169-7.283-2.9169-3.511 0-7.131 1.5756-7.131 5.195 0 4.4498 3.925 4.7692 7.131 5.0247 1.787.1278 3.379.2555 3.379 1.4052 0 1.2349-1.809 1.8097-3.401 1.8097-1.854 0-3.86-.7665-5.321-2.491l-2.486 2.5762c1.984 2.3633 4.862 3.4066 7.675 3.4066 3.533 0 7.393-1.6394 7.393-5.3867 0-4.2369-3.969-4.6414-7.022-4.9395-1.919-.1916-3.489-.3619-3.489-1.4052Zm-49-1.022v-3.5981h-3.861v15.7766h3.861v-6.6641c.523-3.7259 3.554-5.2163 7.065-5.2163v-3.8962h-.393c-2.965 0-5.124 1.0645-6.672 3.5981Zm12.255 0v-3.5981h-3.86v15.7766h3.86v-6.6641c.524-4.1943 4.231-5.2163 7.066-5.2163v-3.8962h-.415c-2.922 0-5.125 1.0433-6.651 3.5981ZM52.7795 34.4414h3.8599V11.1916h-3.8599v23.2498Zm14.5236-3.1937c-2.6604 0-4.8194-2.0865-4.8194-4.684s2.159-4.7053 4.7976-4.7053c2.6387 0 4.863 2.0865 4.863 4.7053 0 2.6188-2.1807 4.684-4.8412 4.684Zm19.1468 0c-2.6168 0-4.8194-2.0439-4.8194-4.7052 0-2.6614 2.0717-4.6841 4.8412-4.6841 2.7696 0 4.8412 2.1078 4.8412 4.6841 0 2.5762-2.2025 4.7052-4.863 4.7052Zm-40.3434 3.1937h3.8598V18.6648h-3.8598v15.7766Zm94.3165 0h3.86V18.6648h-3.86v15.7766ZM47.9819 11c-1.5701 0-2.8786 1.2775-2.8786 2.8956 0 1.6181 1.3739 2.7465 2.8786 2.7465 1.6791 0 2.944-1.3626 2.944-2.8317S49.5956 11 47.9819 11Zm94.3601 0c-1.57 0-2.9 1.2775-2.9 2.8743 0 1.5968 1.286 2.7465 2.965 2.7465 1.679 0 2.835-1.1284 2.835-2.6826 0-1.5543-1.308-2.9382-2.9-2.9382Zm8.374 13.3282c.633-1.5543 2.006-2.4698 4.035-2.4698 2.027 0 3.248.9581 3.772 2.4698h-7.807Zm-49.306 0c.654-1.5543 2.006-2.4698 4.013-2.4698 2.005 0 3.314.9581 3.837 2.4698h-7.85Z"/>
</svg>