<svg xmlns="http://www.w3.org/2000/svg" viewBox="0 0 200 50">
	<path class="bg-logo" fill="#0062AC" d="M0 0h200v50H0z"/>
	<g fill="#fff">
		<path d="m70.1279 17.1433-4.0597.0146-3.5756 9.5874-1.1453-9.57-3.261.0117-4.742 9.5911.0222-9.5744-4.0609.0139-.008 16.7174 3.9644-.0131 5.0533-9.4338 1.4654 9.409 3.9658-.0116 6.3814-16.7422Zm7.4857 8.3875c-.9655 5.0744-2.7491 5.0824-3.3342 5.0824-.5869.0051-2.3646.0117-1.4031-5.0664.9644-5.0773 2.7469-5.0824 3.3331-5.0846.5861-.0029 2.3686-.0058 1.4042 5.0686Zm4.4231-.016c1.347-7.0863-2.0643-8.5615-5.1629-8.5499-3.0972.0087-7.0739 1.5145-8.4188 8.5986-1.3467 7.0849 2.0625 8.5593 5.1589 8.5506 3.0982-.0131 7.0732-1.5131 8.4228-8.5993Zm10.3036.016c-.9656 5.0744-2.7477 5.0824-3.3349 5.0846-.5858.0029-2.3665.0095-1.4021-5.0686.9634-5.0766 2.7469-5.0824 3.332-5.0846.5862-.0029 2.3683-.0058 1.405 5.0686Zm4.4216-.016c1.346-7.0863-2.0632-8.5615-5.1614-8.5499-3.0972.0087-7.071 1.516-8.421 8.5986-1.3456 7.0849 2.0654 8.5593 5.1603 8.5506 3.0983-.0116 7.0732-1.5131 8.4221-8.5993Zm5.6151-.3182.921-4.7985c.175 0 .391-.0226.626-.0473 1.204-.1282 2.932-.3117 2.563 2.2121-.44 3.0203-4.11 2.6337-4.11 2.6337Zm5.822 4.0921c-.099-.6073-.293-1.4563-1.214-1.9216 2.029-1.1373 3.367-3.3516 3.367-6.2154 0-4.2378-5.066-3.8183-5.066-3.8183h-5.254l-3.5068 16.5317h3.9188l1.151-5.6504h1.53c.47.0837 1.118.3633 1.206 1.2903.152 1.4883.377 4.43.377 4.43h3.94s-.107-1.2284-.219-2.432c-.091-.9786-.186-1.9412-.23-2.2143Zm5.319-11.7726-3.166 16.4189 4.378-.0109 3.164-16.4233-4.376.0153Zm63.324 7.4343L185 17.2372h-5.119l-6.327 6.0691 1.205-6.0691h-4.471l-3.296 16.6046h4.469l1.364-6.8861 3.949 6.8861h5.437l-5.369-8.8914Zm-46.726-4.5195c1.883-.0088 1.99.3713 1.779 1.4613-.204 1.0711-.562 1.4272-1.748 1.5058h-3.075l.561-2.9671h2.483Zm-1.228 6.3086c2.82-.0124 2.569 1.2954 2.434 2.0031-.208 1.0966-.724 1.7738-2.619 1.8866v.0073h-.094l-.234.0066-.218.0014-.189.0044v-.0117h-2.238l.731-3.8977h2.427Zm5.173-1.9376c1.056-.8162 1.73-1.9478 1.996-3.3706.531-2.8062-1.067-4.4744-4.273-4.4664l-7.677.0182-3.23 17.131 7.673-.0175c3.887-.0116 6.186-1.7482 6.828-5.1516.359-1.8982-.11-3.3421-1.317-4.1431Zm11.445 2.622-3.148-.0072 2.54-4.9747.608 4.9819Zm2.278-10.459h-3.934l-9.602 16.8769h4.528l1.782-3.2177 5.217.0372.368 3.1805h4.203l-2.562-16.8769Zm20.298 0h-3.884l-1.743 9.6472-3.503-9.6472h-4.255l-3.259 16.8769 3.948-.1012 1.929-10.2159 3.522 10.3171h3.986l3.259-16.8769Z"/>
		<circle cx="28.795" cy="24.795" r="14.295"/>
	</g>
	<path fill="#1273B8" d="M17.2234 32.3078c1.7351 2.6665 4.367 4.6951 7.4678 5.6599 1.2957.4033 2.6737.6203 4.102.6203 5.208 0 9.7421-2.8863 12.0897-7.1467.0735-.1369.1445-.2752.2129-.415-3.273-.8614-7.6021-1.3857-12.35-1.3857-4.7023 0-8.9936.5148-12.2553 1.3617.2199.4492.4649.8854.7329 1.3055Z"/>
	<path fill="#D9D9D9" d="M41.099 31.0326c-.0092.0182-.0185.0365-.0279.0546-3.2915-.8832-7.6065-1.4184-12.3318-1.4184-4.6801 0-8.9576.5257-12.2371 1.393-.217-.4246-.4126-.862-.5855-1.3107-.5779-1.5004-.901-3.1275-.9167-4.8276.0695-7.6913 6.2019-13.9068 13.7626-13.9235h.0306c.9524 0 1.8822.0968 2.78.2803 6.2453 1.302 10.9524 6.9094 11.0132 13.6432-.0159 1.7249-.3484 3.3745-.9423 4.8931h.0001c-.1624.4158-.3444.8214-.545 1.216h-.0002Z"/>
	<path fill="url(#a)" d="M41.099 31.0326c-.0092.0182-.0185.0365-.0279.0546-3.2915-.8832-7.6065-1.4184-12.3318-1.4184-4.6801 0-8.9576.5257-12.2371 1.393-.217-.4246-.4126-.862-.5855-1.3107-.5779-1.5004-.901-3.1275-.9167-4.8276.0695-7.6913 6.2019-13.9068 13.7626-13.9235h.0306c.9524 0 1.8822.0968 2.78.2803 6.2453 1.302 10.9524 6.9094 11.0132 13.6432-.0159 1.7249-.3484 3.3745-.9423 4.8931h.0001c-.1624.4158-.3444.8214-.545 1.216h-.0002Z"/>
  	<radialGradient id="a" cx="0" cy="0" r="1" gradientTransform="matrix(0 -34.6712 35.0559 0 28.7932 38.5878)" gradientUnits="userSpaceOnUse">
  		<stop offset=".42429" stop-color="#fff"/>
  		<stop offset=".500886" stop-color="#09ABE0"/>
  		<stop offset=".587553" stop-color="#007CC2"/>
  	</radialGradient>
</svg>