<svg xmlns="http://www.w3.org/2000/svg" viewBox="0 0 200 50">
	<path class="bg-logo" fill="#000" d="M0 0h200v50H0z"/>
	<path fill="#FD0" d="M40.3707 25.3723c.6367 1.0971 2.1404 1.0971 2.7772 0L37.1639 15h8.3009l3.2068 5.5621-6.5134 11.2852c-1.7492 3.0227-4.6031 3.0227-6.3523 0l-9.7355-16.8396h8.3086l5.9917 10.3646Zm-9.2982 6.4749c-1.7415 3.0227-4.6031 3.0227-6.3523 0L15 15.0075h8.3009l8.7459 15.1519-.9743 1.6878Z"/>
	<path fill="#fff" d="M159.56 16.9941c-.836 0-1.496.6445-1.496 1.473 0 .8286.668 1.45 1.496 1.45.829 0 1.473-.6521 1.473-1.45 0-.8132-.66-1.473-1.473-1.473ZM57.5556 31.9158h2.8309l.023-.0921c1.7492-6.4827 2.4627-9.2522 2.7542-10.9707.2838 1.7108.9666 4.5187 2.6391 10.9707l.023.0921h2.8923l4.0277-14.822h-2.6391l-.023.092c-1.7492 6.7282-2.4167 9.4517-2.7235 11.1932-.3529-1.8642-1.1124-4.9406-2.7465-11.1932l-.0231-.092h-2.7541l-.0231.092c-1.7031 6.6669-2.4166 9.5208-2.7235 11.3697-.3375-1.8029-1.0817-4.7949-2.7848-11.3697l-.023-.092h-2.7389l3.9817 14.7376.0307.0844Zm19.6705.2075c2.1405 0 4.1658-1.1661 4.9791-2.9076l-1.9564-.9973h-.0383l-.0384.069c-.2378.491-1.1047 1.6341-2.9229 1.6341-1.6495 0-2.9077-1.051-3.0995-2.5777h8.416v-.1151c.0537-2.0791-.514-3.7822-1.6341-4.9253-.9666-.9974-2.3092-1.519-3.8666-1.519s-2.946.583-3.951 1.6341c-.9973 1.0433-1.5497 2.4856-1.5497 4.0507 0 3.3296 2.3323 5.6541 5.6618 5.6541Zm-.1611-9.1832c1.5574 0 2.7465.9974 2.8693 2.386h-5.7846c.1765-1.3886 1.381-2.386 2.9153-2.386Zm15.29 5.8379c0 2.0638-1.7108 3.345-4.465 3.345-2.1098 0-4.6261-1.2045-4.6415-3.4831l2.3246-.4372.023.1687c.1151 1.0127 1.0203 1.6418 2.3706 1.6418 1.1201 0 1.8182-.4373 1.8182-1.1508 0-.8132-1.0817-1.1047-2.3399-1.4423-1.7338-.4603-3.8896-1.0357-3.8896-3.3602 0-1.918 1.7645-3.2606 4.1274-3.2606s4.1812 1.4423 4.1812 3.4984l-2.1942.4143h-.046l-.0767-.445c-.1228-.8823-.8439-1.4346-1.8873-1.4346-.9513 0-1.6187.4449-1.6187 1.074 0 .7806 1.0609 1.0573 2.2921 1.3785l.0094.0025.0154.004c1.7849.4673 3.997 1.0464 3.997 3.4866Zm1.964 1.1203c0 1.2275.7748 2.2248 2.0637 2.2248 1.5958 0 2.0637-.2071 2.0637-.2071v-2.0637s-.4756.0767-1.0587.0767c-.3759 0-.6444-.2302-.6444-.5677v-6.2602h1.6878l-.023-2.0868H96.751v-3.0994l-2.4243.6061v2.4933h-1.2659v2.0868h1.2659v6.7972h-.0077Zm19.011-8.8838v1.3809c.698-1.1431 2.087-1.6111 3.613-1.3963l.108.0154-.023 2.2708-.131-.0153c-1.112-.1534-1.956 0-2.493.4526-.407.3453-.637.8593-.668 1.5267l.024 6.6669h-2.563V21.0145h2.133Zm10.694-.2227c-1.542 0-2.984.6138-3.705 1.7799v-1.5574h-2.217V31.916h2.585v-5.8536c0-1.8796.982-2.9997 2.632-2.9997 1.127 0 2.47.491 2.47 2.8386v6.0147h2.585v-6.3676c0-3.506-2.255-4.7566-4.35-4.7566Zm14.884 8.8915c2.163 0 3.36-1.3886 3.36-3.905v-8.6845h2.585v8.6231c0 4.0124-2.224 6.406-5.945 6.406s-5.946-2.3936-5.946-6.406v-8.6231h2.608v8.6845c0 2.5164 1.174 3.905 3.338 3.905Zm13.41-8.8915c-1.542 0-2.992.6138-3.705 1.7799v-1.5574h-2.225V31.916h2.585v-5.8536c0-1.8796.982-2.9997 2.632-2.9997 1.127 0 2.47.491 2.47 2.8386v6.0147h2.585v-6.3676c.008-3.506-2.24-4.7566-4.342-4.7566Zm5.953.2226h2.563V31.916h-2.563V21.0144Zm5.394 1.3885c1.058-1.0357 2.516-1.6111 4.112-1.6111 1.603 0 3.069.5678 4.127 1.6111 1.051 1.0357 1.634 2.478 1.634 4.0508 0 3.2835-2.432 5.6694-5.761 5.6694-3.33 0-5.746-2.3859-5.746-5.6694 0-1.5728.583-3.0074 1.634-4.0508Zm.874 4.0508c0 1.8872 1.389 3.3142 3.238 3.3142 1.864 0 3.276-1.427 3.276-3.3142 0-1.8873-1.427-3.3143-3.276-3.3143-1.849 0-3.238 1.427-3.238 3.3143Zm16.119-5.6619c-1.542 0-2.985.6138-3.706 1.7799v-1.5574h-2.225V31.916h2.586v-5.8536c0-1.8796.982-2.9997 2.631-2.9997 1.128 0 2.471.491 2.471 2.8386v6.0147H185v-6.3676c.008-3.506-2.24-4.7566-4.342-4.7566Zm-80.017 1.6341c1.005-1.051 2.409-1.6341 3.951-1.6341 1.557 0 2.9.5217 3.866 1.5114 1.12 1.1431 1.688 2.8462 1.634 4.9253v.1151h-8.416c.192 1.5267 1.45 2.5777 3.1 2.5777 1.818 0 2.685-1.1431 2.923-1.6341l.038-.069h.038l1.957.9973c-.813 1.7415-2.839 2.9076-4.979 2.9076-3.337 0-5.6621-2.3245-5.6621-5.6464 0-1.5651.5524-3.0074 1.5501-4.0508Zm3.951.5141c-1.542 0-2.747.9973-2.923 2.3859h5.792c-.123-1.3886-1.327-2.3859-2.869-2.3859Z"/>
</svg>