<svg xmlns="http://www.w3.org/2000/svg" viewBox="0 0 200 50">
	<path class="bg-logo" fill="#3250D5" d="M0 0h200v50H0z"/>
	<path fill="#fff" d="m21.0865 35.1175-.1178.0041c-1.1332.0349-2.0588.0168-2.6802-.0004l-.1241-.0037h2.9221Zm-2.9359-.0002.0138.0002-.7431.0002c-.019-.0253.2436-.0146.7293-.0004Zm24.637-16.1844v16.1848l-21.7011-.0002.1474-.0049c6.6294-.2467 19.7477-2.3407 21.5537-16.1797Zm-23.849 6.5675c.2872.7902 1.3666 1.481 2.9627 1.9848.503.159 1.0602.3008 1.6606.4228.1405.3036.3043.6024.4907.8944.8594 1.3466 2.2068 2.5521 4.0798 3.4355-4.8638-.1871-8.8031-3.0936-9.1938-6.7375Zm19.9103 0c-.3906 3.6433-4.3299 6.5504-9.1937 6.7375 1.8723-.8834 3.2204-2.0889 4.0798-3.4355.1864-.292.3495-.5908.4907-.8944.6003-.122 1.1568-.2638 1.6605-.4228 1.5962-.5038 2.6763-1.1953 2.9627-1.9848ZM24.1396 28.017c.7834.1364 1.6304.2398 2.5227.3056.3242 1.2192.8341 2.3877 1.5393 3.4288-1.7181-.8368-2.9586-1.9567-3.7529-3.2019-.1117-.1755-.2145-.353-.3091-.5325Zm9.5083 0c-.0945.1795-.1973.3577-.309.5325-.7944 1.2452-2.0348 2.3651-3.7529 3.2019.7052-1.0404 1.2151-2.2096 1.5392-3.4288.8923-.0658 1.7394-.1692 2.5227-.3056Zm-3.0168.3378c-.3055 1.0941-.7665 2.1412-1.392 3.0807l-.0863.1274v-3.1601c.5031-.0041.9965-.0205 1.4783-.048Zm-3.4746 0c.4817.0275.9752.0439 1.4782.048v3.1594c-.6696-.9718-1.1589-2.0642-1.4782-3.2074Zm9.5538-13.3202-.1566.0052c-6.6294.2467-19.7476 2.3407-21.553 16.1797L15 15.0347l21.7103-.0001Zm-8.0756 10.2575v2.6433c-.5462-.0048-1.0814-.024-1.6009-.0562-.2008-.8491-.3098-1.7202-.3317-2.5871h1.9326Zm2.4508 0c-.022.8669-.1309 1.738-.3317 2.5871-.5202.0322-1.0548.0514-1.601.0562v-2.6433h1.9327Zm-4.8529 0c.0206.8539.1241 1.7126.3125 2.5529-.9464-.0741-1.838-.1926-2.6515-.3475-.305-.7189-.4763-1.4632-.5216-2.2054h2.8606Zm8.1822 0c-.0445.7422-.2159 1.4865-.5208 2.2054-.8135.1549-1.7058.2734-2.6516.3475.1892-.8403.292-1.699.3125-2.5529h2.8599Zm-11.5136 0c.0391.7025.1851 1.4063.4414 2.0916-.4661-.1028-.9019-.2179-1.3035-.3447-1.5098-.4763-2.5015-1.0897-2.6817-1.7469h3.5438Zm15.529 0c-.1802.6572-1.1726 1.2706-2.6824 1.7469-.4009.1268-.8368.2419-1.3028.3447.2563-.6853.4016-1.3891.4413-2.0916h3.5439Zm-9.2774-3.0744c.5627.0041 1.1137.024 1.6489.0575.183.8307.2803 1.7024.2879 2.5851h-1.9368v-2.6426Zm2.1348.0925c.9856.0795 1.9114.2063 2.7496.3721.2248.6209.3536 1.2686.3831 1.9251.0041.0836.0062.1686.0062.2529H31.559c-.0068-.8683-.0987-1.727-.2714-2.5501Zm3.2835.4859c.4187.0959.8128.2022 1.1767.3173 1.5098.4763 2.5022 1.0897 2.6824 1.7469h-3.5336c-.0007-.0911-.0027-.1823-.0068-.2734-.0275-.6079-.135-1.209-.3187-1.7908Zm-5.9364-.5784v2.6426H26.698c.0068-.8827.1041-1.7544.2878-2.5851.5353-.0335 1.0863-.0534 1.6489-.0575Zm-2.1355.0925c-.1727.8231-.2638 1.6818-.2707 2.5501h-2.8674c0-.0843.002-.1693.0061-.2529.0295-.6565.159-1.3042.3831-1.9251.8389-.1658 1.7641-.2933 2.7489-.3721Zm-3.2827.4859c-.1837.5818-.2913 1.1829-.3187 1.7908-.0041.0911-.0062.1823-.0069.2734h-3.5335c.1802-.6572 1.1726-1.2706 2.6817-1.7469.3646-.1151.7586-.2214 1.1774-.3173Zm6.5812-4.8748c4.7981.2378 8.6647 3.1231 9.0512 6.7314-.2864-.7902-1.3665-1.4817-2.9627-1.9854-.4585-.1447-.9622-.2755-1.5015-.39-.2413-.5962-.5654-1.1664-.9698-1.6955-.8566-1.1205-2.0731-2.056-3.6172-2.6605Zm-1.8072 0c-1.5454.6045-2.7612 1.54-3.6179 2.6605-.4043.5291-.7285 1.0993-.9697 1.6955-.5401.1145-1.0431.2453-1.5016.39-1.5961.5037-2.6762 1.1952-2.9627 1.9854.3865-3.6083 4.2532-6.4936 9.0519-6.7314Zm1.5831.416c1.4872.5716 2.6536 1.4618 3.4692 2.5289.3132.4098.575.8464.784 1.3008-.8176-.1494-1.7078-.2632-2.6488-.3338-.3303-1.3076-.8704-2.5097-1.6044-3.4959Zm-1.3597 0c-.7347.9862-1.274 2.1883-1.6043 3.4959-.941.0706-1.8313.1844-2.6489.3338.2091-.4544.4702-.891.7841-1.3008.8155-1.0671 1.9819-1.9573 3.4691-2.5289Zm.9389.2145c.6936.9122 1.209 2.0279 1.5338 3.2485-.4996-.0295-1.0115-.0466-1.5338-.0507v-3.1978Zm-.5181.0007v3.1971c-.5222.0041-1.0341.0212-1.5338.0507.3242-1.2206.8403-2.3356 1.5338-3.2478Zm11.7316-3.5178c.019.0253-.2436.0146-.7293.0004l-.0146-.0005.7439.0001Zm-.8673-.0035.1234.0034h-2.9121l.1085-.0038c.4453-.0137.8584-.0192 1.2337-.0198l.2008.0001c.4927.0014.9129.0109 1.2457.0201ZM126.905 15c1.506 0 2.791.2482 3.855.7513s1.594 1.4651 1.594 2.886v3.8209c0 1.7405-.537 2.8963-1.611 3.464-1.075.5711-2.499.8532-4.27.8532-.024 0-.044-.0034-.065-.0136-.023-.0102-.047-.0136-.068-.0136-.044 0-.078-.0068-.098-.0136-.024-.0101-.044-.0169-.068-.0169v8.3114h-4.685V15h5.416Zm-.731 3.0628v5.3337c.068 0 .146-.0068.234-.0136.089-.0102.177-.0238.265-.0442.266-.0544.796-.17 1.017-.34.221-.1699.33-.5711.33-.8736v-2.8963c0-.5133-.126-.8328-.381-.9688-.255-.1292-.935-.1972-1.465-.1972ZM64.9136 15c1.5059 0 2.7909.2482 3.8549.7513s1.5943 1.4651 1.5943 2.886v3.8209c0 1.7405-.5371 2.8963-1.6113 3.464-1.0742.5711-2.4985.8532-4.2696.8532-.0238 0-.0442-.0034-.0646-.0136-.0238-.0102-.0476-.0136-.068-.0136-.0442 0-.0782-.0068-.0986-.0136-.0238-.0101-.0442-.0169-.068-.0169v8.3114h-4.6843V15h5.4152Zm-.7309 3.0628v5.3337c.068 0 .1462-.0068.2346-.0136.0884-.0102.1768-.0238.2651-.0442.2652-.0544.8703-.17 1.0946-.34.221-.1699.3298-.5711.3298-.8736v-2.8963c0-.5133-.1258-.8328-.3807-.9688-.255-.1292-1.0131-.1972-1.5434-.1972Zm113.5533 5.1671v-8.1755h-4.685v20.0291h4.685v-8.7942c.554.017 1.366-.017 1.611.2958.241.3127.364.9144.364 1.4073v3.8821c0 .2652.006.5303.017.7955.01.2651.027.5303.051.7954.044.2856.095.5575.149.8227.055.2651.377.5303.486.7954H185c-.177-.5473-.53-1.1014-.588-1.6589-.054-.5609-.082-1.1252-.082-1.6929v-3.5693c0-1.1388-.272-1.9513-.812-2.4442-.544-.4929-1.139-.7954-2.424-.911l-.319-.0748c1.285-.1156 2.199-.4181 2.743-.911.54-.4929.812-1.3054.812-2.4442v-2.9608c0-.5677.028-1.132.082-1.6929.058-.5575.411-1.1116.588-1.6623h-4.586c-.109.2651-.431.5303-.486.7988-.054.2618-.105.5371-.149.8227-.024.2651-.041.5303-.051.7954-.011.2652-.017.5303-.017.7955v3.2668c0 .4963-.123 1.03-.364 1.3428-.214.2753-.966.3025-1.421.3501-.065 0-.126-.0034-.19-.0034ZM159.896 15h4.616v7.1013h1.927L166.514 15h4.688v20.0291h-4.688v-8.5222h-2.002v8.5222h-4.616V15Zm-4.134 0 2.757 20.0291h-4.579l-.479-3.8923h-2.37l-.418 3.8923h-4.616L149.055 15h6.707Zm-3.389 2.8963h-.167c-.024.4351-.044.8804-.068 1.3359-.02.4555-.051.9179-.098 1.3938l-.752 7.6248h1.948l-.765-7.6248c-.013-.153-.006-.306-.017-.4555-.01-.153-.017-.3026-.017-.4556v-.4555c0-.2243-.003-.4521-.017-.6799-.01-.2277-.027-.4555-.047-.6832ZM57.5778 15v20.0291H52.89v-9.0355c-.5507.0204-1.2646.187-1.5059.4997-.2448.3093-.3671.7139-.3671 1.2068v4.12c0 .2618-.0034.5303-.017.7955-.0102.2651-.017.5303-.0476.7954-.034.2856-.0952.5575-.1496.8227-.0578.2651-.2992.5303-.4113.7954h-4.5858c.1802-.5473.4555-1.1048.5099-1.6623.0544-.5575.085-1.1218.085-1.6895v-3.5727c0-1.1354.2719-1.9512.8124-2.4408.5439-.4929 1.0573-.7988 2.3422-.911v-.1122c-1.6181-.1325-2.2266-.5609-2.6243-1.2815-.3977-.7173-.5983-1.5807-.5983-2.5836 0-.1155.0068-.2379.017-.3705s.017-.2651.017-.3977v-.0986c0-.0272-.0068-.0612 0-.0986.0136-.0952.034-.7716.034-.877v-.2958c0-1.4209.5201-2.3829 1.5603-2.886 1.0402-.5031 2.315-.7513 3.8209-.7513h5.796ZM52.89 17.9405c-.5099 0-1.2068.0713-1.4719.2107-.2686.1428-.4011.4623-.4011.9518v2.7433c0 .4182.1121.7003.3331.8533.221.1496.7784.2413 1.0436.2821.0884.0136.1768.0306.2652.0306h.2311v-5.0718ZM83.719 15v20.0291h-4.4532v-8.325l.2515-3.9773-.1563.0578-.7241 3.9195-2.4646 8.325h-4.3886V15h4.3886v5.8809l-.2515 4.9427v.0306l.0612-.0884.6629-3.124L79.2658 15h4.4532Zm1.9308 0h4.8509v7.2135h2.0022V15h4.9189v20.0291h-4.9189v-8.5222h-2.0022v8.5222h-4.8509V15Zm15.8852 3.4436h-2.6344V15h10.6634v3.4436h-2.631v16.5855h-5.398V18.4436ZM110.815 15h8.478v3.3586h-3.637v4.8237h3.45v3.1342h-3.45v4.9699h4.222v3.7427h-9.063V15Zm32.549 0v2.8113h-4.867v4.2934c.465 0 1.149.017 1.737.0442.584.0272 1.574-.0034 2.196.136 1.04.2311 1.818.5915 2.274 1.3597.383.649.419 1.599.422 2.5198v.1968c0 .0653-.001.1304-.001.1951v4.1556c0 1.8663-.421 3.1376-1.397 3.7427-.865.5366-2.471.5733-4.153.5747h-.323c-.036 0-.072 0-.108-.0001l-5.332-.0001V15h9.552Zm-4.867 9.8072v7.38c.068 0 .139-.0033.217-.0135.078-.0102.15-.0034.214-.0136.293-.0476.898-.1666 1.132-.3264.231-.1598.35-.4113.35-.7546V25.912c0-.4351-.146-.7275-.431-.8804-.289-.1496-1.017-.2244-1.482-.2244Z"/>
</svg>