<svg xmlns="http://www.w3.org/2000/svg" viewBox="0 0 200 50">
	<path class="bg-logo" fill="#8B3FFD" d="M0 0h200v50H0z"/>
	<path fill="#fff" d="M154.057 24.9434c0-3.8867-2.941-7.0306-7.095-7.0306-4.071 0-6.971 3.0231-6.971 7.1767 0 4.1747 2.981 7.2188 7.259 7.2188 2.714 0 4.996-1.2136 6.415-3.682l-2.878-1.337c-.678 1.2337-2.16 2.0361-3.537 2.0361-1.747 0-3.763-1.316-3.887-3.1456h10.59c.069-.4086.103-.8216.104-1.2364Zm-10.633-1.1882c.248-1.8507 1.522-3.0634 3.558-3.0634 2.015 0 3.249 1.1882 3.414 3.0634h-6.972Zm-29.008-5.845c-4.175 0-7.136 3.003-7.136 7.2397 0 4.1948 2.961 7.1566 7.177 7.1566 4.236 0 7.197-2.9618 7.197-7.0945 0-4.2577-3.043-7.3018-7.238-7.3018Zm.042 11.249c-2.099 0-3.394-1.5628-3.394-3.9892 0-2.4675 1.316-4.1536 3.394-4.1536 2.097 0 3.413 1.6651 3.413 4.1536 0 2.4474-1.296 3.9892-3.413 3.9892ZM99.5511 17.9137c-1.7097 0-2.9986.5845-4.2866 2.0326h-.4226c-.8654-1.3081-2.2776-2.0326-3.8614-2.0326-1.6047-.0158-3.1194.7402-4.0705 2.0326h-.4226l-.021-.0201v-1.7308H82.927v13.8075h3.8238V24.897c0-2.2942.966-3.6426 2.6372-3.6426 1.5496 0 2.5559 1.148 2.5559 2.898v7.8505h3.8438V24.897c0-2.2776.966-3.6426 2.6574-3.6426 1.5286 0 2.5149 1.148 2.5149 2.919v7.8295h3.845v-8.2932c0-3.6015-1.933-5.796-5.2539-5.796Zm63.0099 9.3012h-.273c0-.2459-1.668-4.6182-2.761-7.3272l-.683-1.694h-3.853l5.466 13.8556-2.153 5.2797h3.826L170 18.198h-3.855l-.629 1.449-2.132 5.2745c-.601 1.4735-.847 2.1569-.823 2.2934Zm-30.301-9.3012c-1.711 0-3.18.7446-4.166 2.0737h-.404l-.039-.0201v-1.7719h-3.541v13.8075h3.823v-7.0647c0-2.254 1.09-3.6637 2.879-3.6637 1.671 0 2.898 1.2478 2.898 3.22v7.5075h3.824v-8.3308c.001-3.3819-2.213-5.7575-5.274-5.7575ZM56.9544 10c-8.2627 0-14.9013 6.6841-14.9013 14.8531 0 8.2364 6.7043 14.8531 14.8995 14.8531 8.1953 0 14.9056-6.6841 14.9056-14.8531S65.1496 10 56.9544 10Zm0 20.3892c-3.0477 0-5.5528-2.4981-5.5528-5.5361 0-3.038 2.5051-5.5361 5.5528-5.5361 3.0476 0 5.5536 2.4981 5.5536 5.5361-.0683 3.038-2.506 5.5361-5.5536 5.5361ZM42.0531 14.3155v21.6046h-5.2797L30 14.3155h12.0531Z"/>
</svg>