<svg xmlns="http://www.w3.org/2000/svg" viewBox="0 0 200 50">
	<path class="bg-logo" fill="#2D3540" d="M0 0h200v50H0z"/>
	<path fill="#fff" d="M53.833 17.7665c0-.5235.1883-.7118.7096-.7118h9.7937c.5212 0 .7095.1883.7095.7118v1.0242c0 .5235-.1883.7118-.7095.7118h-3.5846v11.702c0 .5235-.186.7118-.7072.7118h-1.2102c-.5189 0-.7072-.1883-.7072-.7118v-11.702h-3.5845c-.5213 0-.7096-.1883-.7096-.7118v-1.0242Zm16.6803 3.3067c2.0207 0 3.1873 1.1711 3.1873 2.9921 0 .9851-.333 1.7176-.9989 2.1998.9369.5443 1.4168 1.4008 1.4168 2.5742 0 1.8623-1.2928 3.077-3.3136 3.077h-5.2723c-.5006 0-.6475-.1676-.6475-.6498v-9.5457c0-.5006.1469-.6476.6475-.6476h4.9807Zm-3.2102 2.0506v2.2618h2.8129c.7303 0 1.1689-.4615 1.1689-1.1297 0-.6912-.4386-1.1321-1.1895-1.1321h-2.7923Zm0 4.2504v2.4915h3.0219c.7716 0 1.2722-.5029 1.2722-1.2767 0-.7555-.48-1.2148-1.2929-1.2148h-3.0012Zm8.3815.6685c0 2.6177 1.7291 4.1884 4.7923 4.1884 3.0863 0 4.8154-1.5707 4.8154-4.1861v-3.1c0-2.6155-1.7291-4.1862-4.8154-4.1862-3.0632 0-4.7923 1.5707-4.7923 4.1862v3.0977Zm7.1897.0023c0 1.2537-.8749 1.9885-2.3974 1.9885-1.5201 0-2.3743-.7348-2.3743-1.9885v-3.1c0-1.2768.8542-1.9886 2.3743-1.9886 1.5225 0 2.3974.7118 2.3974 1.9886v3.1Zm4.48-6.3449c0-.4799.1447-.6269.6246-.6269h1.1459c.4799 0 .6475.147.6475.6269v3.9978c0 .9852-.1469 2.0116-.4386 3.0564h.062c.271-.6682.6683-1.3801 1.1689-2.1126l3.6878-5.2539c.147-.2113.3536-.3146.6246-.3146h1.1482c.4776 0 .6245.147.6245.6269v9.5664c0 .4822-.1469.6498-.6245.6498H94.877c-.4776 0-.6453-.1676-.6453-.6498v-3.9336c0-.9851.147-2.0115.4593-3.0793h-.0643c-.2273.5465-.6246 1.2583-1.2078 2.1149l-3.6466 5.2126c-.1676.2296-.3766.3352-.6475.3352h-1.1459c-.4799 0-.6246-.1676-.6246-.6498v-9.5664Zm17.2197-4.6454c-.521 0-.73.1883-.73.7118v13.438c0 .5235.209.7118.73.7118h1.187c.522 0 .71-.1883.71-.7118v-11.702h6.065v11.702c0 .5235.186.7118.707.7118h1.189c.522 0 .708-.1883.708-.7118v-13.438c0-.5235-.186-.7118-.708-.7118h-9.858Zm15.062 4.0185c-.48 0-.646.147-.646.6269v3.1207c0 1.9886-.209 3.348-.626 4.0185-.416.6912-.666.8588-1.188 1.1298-.333.1883-.418.4408-.25.7531l.542 1.0885c.188.3766.436.4822.792.3352.896-.4179 1.417-.8358 2.083-1.8623.668-1.0057 1.001-2.806 1.001-5.3182v-1.6533h3.167v7.9544c0 .4822.167.6498.647.6498h1.125c.48 0 .646-.1676.646-.6498v-9.5664c0-.4799-.166-.6269-.646-.6269h-6.647Zm9.626 2.804c-.457-.209-.583-.5213-.354-.9415.751-1.4444 2.189-2.1769 4.315-2.1769 2.98 0 4.459 1.4444 4.459 4.3125v5.4215c0 .7325-.167.9415-.751 1.1941-.833.3559-2.082.5442-3.749.5442-1.773 0-2.981-.2733-3.647-.8381-.668-.5443-1.001-1.4031-1.001-2.5535 0-2.4915 1.334-3.371 4.73-3.371.084 0 .337.0142.758.0379h.001c.317.0179.731.0411 1.241.0677v-.5855c0-1.3617-.583-2.0736-2.082-2.0736-1.022 0-1.753.3353-2.189 1.0058-.312.4386-.418.4799-.898.3123l-.833-.3559Zm5.773 6.177c.147-.0643.229-.1469.229-.2939v-2.1976c-.955-.0406-1.607-.0733-1.96-.0911h-.001c-.185-.0093-.288-.0145-.31-.0145-1.499 0-2 .4409-2 1.3617 0 .9415.436 1.403 1.959 1.403.895 0 1.584-.0642 2.083-.1676Zm4.158-8.981c-.477 0-.645.147-.645.6269v.9644c0 .48.168.6476.645.6476h2.733v7.9544c0 .4822.165.6498.645.6498h1.125c.48 0 .646-.1676.646-.6498v-7.9544h2.709c.48 0 .645-.1676.645-.6476v-.9644c0-.4799-.165-.6269-.645-.6269H139.193Zm14.398 11.1579c-3.249 0-4.792-1.7383-4.792-4.4801v-2.4708c0-2.9301 1.687-4.5214 4.836-4.5214 3.166 0 4.813 1.8003 4.813 4.3331v1.2768c0 .6085-.313.9001-.937.9001h-6.294v.7739c0 1.3617.854 2.0942 2.374 2.0942 1.169 0 1.982-.3766 2.459-1.1091.336-.4822.563-.5236 1.064-.2526l.73.3995c.48.2297.562.5649.25 1.0449-.813 1.341-2.315 2.0115-4.503 2.0115Zm-2.374-6.8246h4.813v-.4615c0-1.3594-.813-2.1356-2.395-2.1356-1.564 0-2.418.7762-2.418 2.1356v.4615Zm14.903-4.3333c-.522 0-.666.1471-.666.6476v3.5387h-.878l-2.374-3.7042c-.271-.4408-.48-.4821-1.251-.4821h-1.022c-.604 0-.749.2503-.416.753l2.854 4.1038c-.436.3121-.854.8149-1.207 1.5477l-1.835 3.6647c-.271.5651-.188.7741.418.7741h1.063c.728 0 .875-.0852 1.104-.5858l1.291-2.7856c.312-.6911.854-1.0239 1.646-1.0239h.604v3.7248c0 .5027.147.6705.669.6705h1.063c.521 0 .686-.1678.686-.6705v-3.7248h.584c.813 0 1.354.3328 1.646 1.0239l1.293 2.7856c.23.5006.395.5858 1.125.5858h1.043c.604 0 .686-.209.415-.7741l-1.812-3.6647c-.397-.7535-.792-1.2768-1.23-1.5477l2.856-4.1038c.333-.5027.186-.753-.418-.753h-1.022c-.769 0-.978.0413-1.249.4821l-2.356 3.7042h-.875v-3.5387c0-.5005-.165-.6476-.686-.6476h-1.063Zm10.211 0c-.48 0-.624.1471-.624.627v9.5664c0 .4821.144.6499.624.6499h1.146c.271 0 .48-.1059.645-.3355l3.649-5.2124c.583-.8566.978-1.5684 1.208-2.1151h.062c-.312 1.0679-.459 2.0945-.459 3.0794v3.9337c0 .4821.167.6499.647.6499h1.146c.48 0 .625-.1678.625-.6499v-9.5664c0-.4799-.145-.627-.625-.627h-1.146c-.271 0-.48.1032-.624.3144l-3.69 5.2541c-.501.7324-.896 1.4442-1.167 2.1124h-.062c.292-1.0445.436-2.0711.436-3.056v-3.9979c0-.4799-.165-.627-.645-.627h-1.146Z"/>
	<path fill="#80F3AE" d="M39.1004 16.5385c-2.2481-1.6396-8.1679-.5373-9.0405 2.937-1.0632 4.2274 3.9657 8.0301 7.9038 5.7614 2.8222-1.6258 3.3802-7.0566 1.1367-8.6984Z"/>
	<path fill="#65D988" d="M41.4841 19.1361c-.232-1.3273-.7716-2.4341-1.6029-3.1505-1.7061-1.4673-4.7441-1.7544-7.5846-.9484-2.8382.806-5.1621 2.6086-5.6328 4.9531-.5649 2.8061.1974 5.3068 1.8462 7.0083 1.6464 1.6993 4.2321 2.6545 7.4193 2.2458 2.6293-.4409 4.5352-2.9071 5.3113-5.8326.3835-1.4467.4731-2.9507.2435-4.2757Zm.9368 4.588c-.8381 3.1528-2.992 6.177-6.3033 6.7236l-.0092.0023-.0115.0022c-3.5248.4547-6.5123-.5924-8.4618-2.604-1.9496-2.0138-2.8038-4.9324-2.1677-8.099.6039-2.9944 3.4628-5.0243 6.4962-5.8854 3.0357-.8611 6.5674-.6498 8.7145 1.1987 1.1045.9529 1.7428 2.3491 2.0069 3.8646.2641 1.5202.1585 3.2034-.2641 4.797Z"/>
	<path fill="#4FC694" d="M43.1877 26.1493c1.4237-4.4227.9828-9.2219-1.9909-11.865-2.1861-1.9426-6.2276-2.48-10.2071-1.4283-3.9519 1.0471-7.6352 3.6121-9.13 7.6008-1.2355 3.2929-.1952 7.1644 2.2985 10.0991 2.4892 2.9255 6.3493 4.8268 10.6112 4.2343 3.8211-.5281 6.9946-4.2182 8.4183-8.6409Zm1.1619.372c-1.4926 4.6339-4.9256 8.8545-9.4125 9.4791-4.7419.6567-8.9969-1.4673-11.7066-4.6546-2.7027-3.1781-3.9427-7.5066-2.5144-11.3184 1.6763-4.4617 5.7499-7.2357 9.9613-8.3494 4.1862-1.1068 8.7168-.6269 11.3277 1.6947 3.4949 3.1069 3.8348 8.5147 2.3445 13.1486Z"/>
	<path fill="#48A992" d="M46.0397 19.2333c-.4272-2.7165-1.449-4.9669-3.0289-6.3424-3.4008-2.95988-9.3114-3.35485-14.8088-1.7038-5.4927 1.6487-10.269 5.2516-11.5159 9.9108-1.4099 5.2746.5006 10.501 4.0943 14.2164 3.6006 3.7177 8.8247 5.8532 13.9385 4.9967 5.5548-.93 9.3161-6.2505 10.8248-12.276.7486-2.9898.9231-6.0944.496-8.8017Zm.6866 9.0979c-1.5569 6.2184-5.5433 12.1337-11.8053 13.1831-5.5754.9346-11.1899-1.3985-15.0155-5.3527-3.8325-3.9565-5.9382-9.6123-4.3974-15.3783 1.403-5.2447 6.657-9.0566 12.3426-10.765 5.681-1.70617 12.1038-1.40536 15.9616 1.9518 1.8714 1.6304 2.9782 4.1954 3.4329 7.0726.4547 2.8888.2664 6.1587-.5189 9.2885Z"/>
</svg>