<svg xmlns="http://www.w3.org/2000/svg" viewBox="0 0 200 50">
	<path class="bg-logo" fill="#006D78" d="M0 0h200v50H0z"/>
	<path fill="#fff" d="M76.8 30.4c-.2-.1-.3-.3-.3-.4v-5.3c0-1.2.2-2.5-.3-3.6-.9-1.9-3.5-1.9-5.3-1.4-1.3.4-1.8 1.8-1.9 3 0 .2-.1.4-.1.6 0 .1 0 .2.2.2l2.3.4c.1 0 .2 0 .2-.2 0-.6-.1-1.3.4-1.8.3-.2.8-.3 1.1-.1.4.2.4.9.4 1.4 0 .5-.5.9-.9 1.1-1.3.5-3 1.1-3.4 2.8-.3 1.4-.4 3.1 0 4.5.2.7.9 1.2 1.5 1.3.9.2 1.7 0 2.3-.6.2-.2.2-.3.4-.4.1-.1.2 0 .2 0 .1.2.1.4.3.6.7.6 1.9.3 2.8.4.1 0 .2-.1.2-.2l.1-2c.2-.3 0-.3-.2-.3Zm-3.2-1.2c0 .2-.1.5-.2.6-.1.2-.4.3-.6.4-.2 0-.4-.1-.6-.2-.2-.3-.2-.7-.2-1.1 0-.8 0-1.5.7-2 .2-.2.4-.4.7-.5.1-.1.2.1.2.2v2.6Zm37.4-8.5c-.6-1-2-1.5-3.1-1.2l-.8.4c-.1 0-.3.1-.3-.2 0-.6.6-1.3 1.2-1.6.8-.4 1.9-.7 2.7-1.2 1-.7 1.4-1.3 1.4-2.4 0-.1 0-.2-.1-.2l-2.4-.4c-.1 0-.2 0-.2.1 0 .5-.3 1.1-.8 1.3-1.2.6-2 .5-3 1.5-1.4 1.5-1.3 4.4-1.4 6.4 0 1.3 0 4.2.1 4.8 0 .8.1 1.7.3 2.4.5 1.6 1.8 2.3 3.3 2.3 1.5 0 2.9-.6 3.4-2.3.3-1.1.4-3.2.3-4.9.1-1.5.2-3.4-.6-4.8Zm-2.2 7.9c0 .7-.1 1.5-.4 1.8-.1.1-.2.1-.4.1-.1 0-.3 0-.3-.1-.3-.3-.5-1.2-.5-1.9V24c0-.7 0-1.6.3-2.1.1-.2.3-.3.5-.3s.5.2.6.3c.2.4.2 1.4.3 2.1 0 1.6 0 3.1-.1 4.6Zm11.7-9.2c.1 0 .2.1.1.3l-2.2 5.4v.2l2.5 7.2c0 .1 0 .2-.1.2h-2.5c-.2-.1-.2-.1-.2-.3l-1.9-5.6c-.1-.2-.3-.1-.3.1l.1 5.5c0 .1 0 .2-.2.2h-2.5c-.1 0-.2-.1-.2-.2V19.5c0-.1 0-.2.2-.2h2.4c.1 0 .2.1.2.2 0 1.8-.1 2.4 0 4.2 0 .2.2.2.3 0l1.7-4.2c0-.1.1-.2.3-.1.8.1 1.5 0 2.3 0Zm42.6.1h2.6c.1 0 .1.1.1.1v13c0 .1-.1.2-.2.2h-2.5c-.1 0-.2-.1-.2-.2v-6c0-.1-.1-.2-.2-.2h-1.4c-.1 0-.2.1-.2.2v6.1c0 .1-.1.2-.2.2h-2.5c-.1 0-.2-.1-.2-.2v-13c0-.1.1-.1.1-.1h2.6c.1 0 .1.1.1.1v4.2c0 .1 0 .2.2.2h1.4c.1 0 .2-.1.2-.2v-4.2c.2-.2.3-.2.3-.2Zm11.5-.1c.1 0 .2.1.1.3l-2.2 5.4v.2l2.5 7.2c0 .1 0 .2-.1.2h-2.5c-.2-.1-.2-.1-.2-.3l-1.9-5.6c-.1-.2-.3-.1-.3.1l.1 5.5c0 .1 0 .2-.2.2h-2.5c-.1 0-.2-.1-.2-.2V19.5c0-.1 0-.2.2-.2h2.4c.1 0 .2.1.2.2 0 1.8-.1 2.4 0 4.2 0 .2.2.2.3 0l1.7-4.2c0-.1.1-.2.3-.1.8.1 1.5 0 2.3 0Zm-17.6 11c-.2-.1-.3-.3-.3-.4v-5.3c0-1.2.2-2.5-.3-3.6-.9-1.9-3.5-1.9-5.3-1.4-1.3.4-1.8 1.8-1.9 3 0 .2-.1.4-.1.6 0 .1 0 .2.2.2l2.3.4c.1 0 .2 0 .2-.2 0-.6-.1-1.3.4-1.8.3-.2.8-.3 1.1-.1.4.2.4.9.4 1.4 0 .5-.5.9-.9 1.1-1.3.5-3 1.1-3.4 2.8-.3 1.4-.4 3.1 0 4.5.2.7.9 1.2 1.5 1.3.9.2 1.7 0 2.3-.6.2-.2.2-.3.4-.4.1-.1.2 0 .2 0 .1.2.1.4.3.6.7.6 1.9.3 2.8.4.1 0 .2-.1.2-.2l.1-2c.1-.3-.1-.3-.2-.3Zm-3.2-1.2c0 .2-.1.5-.2.6-.1.2-.4.3-.6.4-.2 0-.4-.1-.6-.2-.2-.3-.2-.7-.2-1.1 0-.8 0-1.5.7-2 .2-.2.4-.4.7-.5.1-.1.2.1.2.2-.1.9 0 1.8 0 2.6Zm-23.7-9.7c.9 0 1.6.1 2.8 0 .1 0 .2.1.3.2l1.4 6c0 .2.3.2.3 0l1.4-6c0-.1.1-.2.3-.2 1 .1 1.7 0 2.8 0 .1 0 .2.1.2.2v12.9c0 .1-.1.2-.2.2H137c-.1 0-.2-.1-.2-.2v-7c0-.2-.2-.2-.3 0l-1 5.4c0 .1-.1.2-.3.2h-1.1c-.1 0-.2-.1-.3-.2l-1-5.4c0-.2-.3-.2-.3 0v7c0 .1-.1.2-.2.2H130c-.1 0-.2-.1-.2-.2V19.7c0-.2.1-.2.3-.2Zm-1.8 6.2c0-1.7.1-3.6-.7-5.1-.2-.4-.6-.7-1-.9-.6-.4-1.2-.4-2-.4s-1.4 0-2 .4c-.4.2-.8.5-1 .9-.8 1.5-.7 3.3-.7 5.1 0 1.7 0 3.5.3 4.9.2.9 1.1 1.8 1.9 2.1.4.1.9.2 1.4.2.5 0 1-.1 1.4-.2.9-.3 1.7-1.1 1.9-2.1.5-1.4.6-3.2.5-4.9Zm-2.9-1.7v4.5c0 .7-.1 1.6-.4 1.9-.1.1-.2 0-.3 0h-.3c-.3-.3-.4-1.2-.4-1.9V24c0-.7 0-1.5.3-2.1.1-.2.2-.2.4-.2s.4.1.4.2c.3.6.3 1.4.3 2.1Zm-29.9 6.1V19.7c0-.1.1-.2.1-.2h2.5c.1 0 .2 0 .2.2v10.2c0 .3.3.8.8.7.5-.1.7-.3.7-.8V19.6c0-.1.1-.2.2-.2h2.5c.1 0 .2.1.2.2v12.9c0 .1-.1.2-.2.2H100c-.1 0-.1 0-.2-.2V32c0-.1-.1-.1-.2-.1-.3.1-.5.4-.8.6-.7.4-1.8.4-2.5 0-.7-.5-.8-1.5-.8-2.4Zm-1.6-9.4c.5 1 .3 1.8.4 3 0 .2 0 .5-.1.5l-2.4.4c-.1 0-.2-.1-.2-.2 0-.9.1-1.2 0-2.1-.1-.3-.1-.6-.5-.7-.2-.1-.5 0-.6.1-.5.4-.4 1.1-.4 1.7v5.7c0 .4 0 1 .5 1.2.3.1.5.1.8-.1.2-.3.3-.6.3-.9.1-.9 0-2 0-2.9 0-.1.1-.2.2-.2l2.4.5c.1 0 .2.1.2.2v.4c-.1 1.9.4 4.5-1.7 5.3-1.2.5-2.7.4-3.9 0-.9-.3-1.5-1.3-1.6-2.3-.2-3.3 0-3.9-.1-7.4 0-1.3.3-2.6 1.5-3.3 1-.5 2.3-.5 3.4-.3.6.2 1.4.6 1.8 1.4Zm-8.2 11.9c0 .1-.1.2-.2.2H83c-.1 0-.2 0-.2-.2V21.7c0-.1 0-.2-.2-.2h-1.1c-.1 0-.2 0-.2.2v10.8c0 .1 0 .2-.2.2h-2.5c-.1 0-.2-.1-.2-.2V19.6c0-.1.1-.2.2-.2 2 0 4.4.1 6.9 0 .1 0 .2.1.2.2v13ZM60.3 15.5c-.5 1.2-.4 2.4-.5 3.8 0 .2.1.2.2.2l2.7.5c.1 0 .2-.1.2-.2 0-1-.1-1.5.1-2.4.1-.3.3-.8.7-.8.3-.1.5 0 .7.1.6.6.4 2.2.4 3-.2 1-1.1 1.8-2 1.8-.2 0-.2.1-.2.3.1.7 0 1.4 0 2.1 0 .1.1.2.2.2 1.2 0 2 .3 2 1v3.4c0 .5 0 1.1-.6 1.3-.3.1-.7.1-1-.2-.3-.3-.3-.6-.4-1-.1-1 0-2.1 0-3.1 0-.1-.1-.2-.2-.2l-2.7.7c-.1 0-.2 0-.2.3.1 2.1-.4 5.3 1.9 6.2 1.4.6 3.1.5 4.5 0 1-.4 1.7-1.5 1.8-2.6.1-1.6.1-2.9.1-4.6 0-1.1-.5-2.2-1.3-2.5-.2 0-.1-.3 0-.4.7-.5 1.3-1.5 1.3-2.6V18c0-1.5-.3-3-1.7-3.7-1.1-.6-2.7-.6-3.9-.4-.8.3-1.7.8-2.1 1.6Zm87.3 5.2c-.6-1-2-1.5-3.1-1.2l-.8.4c-.1 0-.3.1-.3-.2 0-.6.6-1.3 1.2-1.6.8-.4 1.9-.7 2.7-1.2 1-.7 1.4-1.3 1.4-2.4 0-.1 0-.2-.1-.2l-2.4-.4c-.1 0-.2 0-.2.1 0 .5-.3 1.1-.8 1.3-1.2.6-2 .5-3 1.5-1.4 1.5-1.3 4.4-1.4 6.4 0 1.3 0 4.2.1 4.8 0 .8.1 1.7.3 2.4.5 1.6 1.8 2.3 3.3 2.3 1.5 0 2.9-.6 3.4-2.3.3-1.1.4-3.2.3-4.9.1-1.5.2-3.4-.6-4.8Zm-2.2 7.9c0 .7-.1 1.5-.4 1.8-.1.1-.2.1-.4.1-.1 0-.3 0-.3-.1-.3-.3-.5-1.2-.5-1.9V24c0-.7 0-1.6.3-2.1.1-.2.3-.3.5-.3s.5.2.6.3c.2.4.2 1.4.3 2.1-.1 1.6-.1 3.1-.1 4.6ZM40.5 9C32 9 25 16 25 24.6c0 8.5 7 15.5 15.5 15.5 8.6 0 15.6-7 15.6-15.5C56.1 16 49.1 9 40.5 9Zm0 28.7c-5.6 0-10.3-3.5-12.3-8.4l2.4-.1c1.8 3.7 5.5 6.2 9.8 6.2 4.6 0 8.7-2.9 10.2-7.1l-4.9-3.8 4.9-3.8c-1.5-4.1-5.6-7.1-10.1-7.1-4.2 0-7.8 2.4-9.6 5.8l-2.4-.1c2-4.7 6.7-7.9 12-7.9 6.1 0 11.1 4.1 12.7 9.7l-4.5 3.4 4.6 3.5h-.1c-1.6 5.5-6.7 9.7-12.7 9.7Zm3.7-17.5h2.9l-4.9 4.3 5.7 4.3h-3.2l-4.9-3.6v3.6l-2.1-.1v-8.6h2.1v3.8l4.4-3.7Zm.2-.5c-1-.9-2.4-1.4-3.9-1.4-1.8 0-3.4.7-4.6 1.9-1 1.2-1.7 2.8-1.7 4.4 0 3.2 2.4 5.9 5.6 6.2.3.1.5.1.7.1 1.5 0 2.8-.5 3.9-1.3h3.1c-1.6 2.2-4.1 3.6-7 3.6-4.7 0-8.5-3.8-8.5-8.5 0-2.2.8-4.1 2.1-5.7 1.4-1.6 3.4-2.6 5.7-2.9h.7c2.9 0 5.4 1.4 7 3.7h-3.1v-.1Z"/>
</svg>