<svg xmlns="http://www.w3.org/2000/svg" viewBox="0 0 180 32.6">
	<path fill="#cd1f45" d="M111 18.5c.6 0 1.1-.2 1.6-.5.2-.2.4-.4.5-.7.1-.3.1-.6.1-.8 0-.3 0-.5-.1-.8-.1-.3-.2-.5-.4-.7-.2-.2-.5-.4-.7-.5-.3-.1-.6-.2-.9-.2h-2.3v4.2h2.2zm-4.4-6.1h4.6c1.2-.1 2.3.3 3.2 1.1.4.4.7.9.9 1.4.2.5.3 1.1.3 1.7 0 .5-.1 1.1-.3 1.6-.2.5-.5 1-.9 1.4-.9.7-2 1.1-3.1 1h-2.5V25h-2.2V12.4zm14 3.1c-.6 1-.9 2.1-.9 3.2-.1 1.2.2 2.3.9 3.2.3.4.7.7 1.1.9.4.2.9.3 1.4.3s1-.1 1.4-.3c.4-.2.8-.5 1.1-.9.6-1 .9-2.1.9-3.2.1-1.2-.2-2.3-.9-3.2-.3-.4-.7-.7-1.1-.9-.4-.2-.9-.3-1.4-.3-.5 0-1 .1-1.4.3-.5.1-.9.5-1.1.9zm6.5-1.6c1.1 1.3 1.7 3 1.6 4.8.1 1.7-.5 3.4-1.6 4.8-.5.6-1.2 1-1.9 1.3-.7.3-1.5.5-2.2.4-.8 0-1.5-.1-2.2-.4s-1.3-.8-1.9-1.3c-1.1-1.3-1.7-3-1.6-4.8-.1-1.7.6-3.4 1.7-4.8.5-.6 1.2-1 1.9-1.3.7-.3 1.5-.4 2.2-.4.8 0 1.5.1 2.2.4.7.3 1.4.8 1.8 1.3zm31.7-1.4v8.7l5.9-8.7h2.2V25h-2.2v-8.8l-5.9 8.8h-2.2V12.5h2.2zM174.7 14.3c-.9 0-2.9-.4-2.9 2 0 .9.4 2.2 3 2.2h3.1v-4.2h-3.2zM171.9 25h-2.6l3.4-4.8c-.9-.1-1.7-.6-2.3-1.3-.6-.7-.9-1.6-.8-2.5 0-1.6.7-4 4.2-4h6.2V25h-2.2v-4.6H175l-3.1 4.6zm-32.7-3.7c-.1.3-.2.5-.4.7-.3.4-.7.7-1.1 1-.4.2-.9.3-1.4.3-.5 0-1-.1-1.4-.3-.4-.2-.8-.5-1.1-1-.6-1-.9-2.1-.9-3.2-.1-1.2.2-2.3.9-3.2.3-.4.7-.7 1.1-.9s.9-.3 1.4-.3c.5 0 1 .1 1.4.3.4.2.8.5 1.1 1 .2.4.4.7.6 1.1h2.3c-.2-1-.7-1.9-1.4-2.6-.5-.6-1.2-1-1.9-1.3-.7-.3-1.5-.4-2.2-.4-.8 0-1.5.1-2.2.4-.7.3-1.3.8-1.9 1.3-1.1 1.3-1.7 3-1.6 4.8-.1 1.7.5 3.4 1.6 4.8.5.6 1.2 1 1.9 1.3.7.3 1.5.5 2.2.4.8 0 1.5-.1 2.2-.4s1.3-.8 1.9-1.3c.6-.7 1-1.4 1.2-2.3l-2.3-.2zm12.8 0c-.1.3-.2.5-.4.7-.3.4-.7.8-1.1 1-.5.2-1 .3-1.5.3s-1-.1-1.4-.3c-.4-.2-.8-.5-1.1-1-.6-1-.9-2.1-.9-3.2-.1-1.2.2-2.3.9-3.2.3-.4.7-.7 1.1-.9s.9-.3 1.4-.3c.5 0 1 .1 1.4.3.4.2.8.5 1.1 1 .2.4.4.7.6 1.1h2.3c-.2-1-.7-1.9-1.4-2.6-.5-.6-1.2-1-1.9-1.3-.7-.3-1.5-.4-2.2-.4-.8 0-1.5.1-2.2.4-.7.3-1.3.8-1.9 1.3-1.1 1.3-1.7 3-1.6 4.8-.1 1.7.5 3.4 1.6 4.8.5.6 1.2 1 1.9 1.3.7.3 1.5.4 2.2.4.8 0 1.5-.1 2.2-.4s1.3-.8 1.9-1.3c.6-.6 1-1.4 1.3-2.2.1-.3-2.3-.3-2.3-.3zM41.8 17.5v-.6c-.5-4-4.2-8-7.5-9.5-2-1-4.2-1.7-6.4-2-1.7-.2-3.3-.6-4.8-1.4-.1 0-.2-.1-.3-.2-.1-.1-.2-.1-.4-.2-.7-.6-1.4-1.2-2-1.9-.4-.4-.7-.9-.9-1.4l-.2-.3v17.7h1.9V5.2c.3.3.7.6 1.1.8 1.5.7 3.2 1.1 4.8 1.3 2 .3 4 .8 5.8 1.5 4.1 1.9 6.7 6.3 7 8.8v3.1H22.8v8.8c.6 0 1 0 1.6-.1h.1v-7h17.4v-4.9"/>
  	<path fill="#073d59" d="M54.9 23.1H58c.6 0 1.1-.2 1.6-.5.2-.2.3-.3.4-.6.1-.2.1-.4.1-.7 0-.3-.1-.5-.2-.8s-.3-.5-.4-.6c-.5-.4-1.1-.6-1.8-.5h-3l.2 3.7zm-2.2 2V12.4h8.7v2.1H55v3.1h2.8c1.2-.2 2.4.1 3.4.8.4.4.8.8 1 1.3s.3 1.1.3 1.6-.1 1-.3 1.5c-.2.5-.5.9-.9 1.3-.9.7-2.1 1.1-3.2 1h-5.4zm17.1-9.9c-.1-.4-.2-.8-.2-1.2 0 .4-.1.8-.2 1.1L67.6 21h3.9l-1.7-5.8zm3 9.8l-.6-2h-5.1l-.6 2h-2.2l4-12.6H71L75.1 25h-2.3zm4.5-12.6h2.2v5.1h5.6v-5.1h2.1V25H85v-5.6h-5.6V25h-2.2c.1.1.1-12.6.1-12.6zM97.1 12.5h2.7l-5.6 5.9 6 6.8h-2.8L92 19.3v5.8h-2.2V12.5H92v5.2l5.1-5.2zM19.3 21.3c-1.7.1-3.3.3-5 .5-1 .2-1.9.4-2.8.7-.4.1-.9.3-1.3.5-.2-.5-.3-.9-.4-1.3v-.2c-.2-.7-.3-1.3-.3-2h9.9s0 1.8-.1 1.8zm0 9.1c-.5-.1-.8-.1-1.2-.2-.8-.2-1.6-.5-2.3-.9-.5-.2-1-.5-1.4-.9-1.1-.8-2.1-1.7-2.8-2.8-.2-.3-.3-.5-.5-.7.1 0 .2 0 .3-.1s.1 0 .2 0c.9-.3 1.9-.6 2.8-.8 1.6-.3 3.3-.5 5-.6 0 .1 0 7-.1 7zm-7.7-1.5c-.6-.2-1.3-.5-1.9-.8l-.3-.1-1.5-.8s-.1 0-.2-.1l.2-.2.1-.2c.3-.3.6-.6 1-.8h.2c.1.1.1.2.2.3l.2.4c.6.8 1.2 1.6 2 2.3 0 0 .1.2.2.3-.1-.2-.2-.2-.2-.3 0 .1 0 0 0 0zm-5.1-3.6l-.4.5c-.3-.2-.6-.5-.8-.8-1.7-1.5-2.8-3.4-3.1-5.6h5.2c.1 1 .3 2.1.5 3.1.1.5.2 1 .4 1.4 0 0-.1.1-.2.1l-.2.1c-.5.4-1 .8-1.4 1.2zm-4-9.3c.3-.8.7-1.6 1.2-2.3l1.5-1.8c.1-.1.2-.2.4-.3l.3-.3c.6.7 1.2 1.2 2 1.7H8c.1.1.2.1.3.2-.1.4-.3.8-.4 1.2v.1c-.1.3-.2.6-.3 1-.1.7-.2 1.3-.3 2H2.2c0-.5.1-1 .3-1.5zm5.2-6c.1 0 .2-.1.3-.1.5-.4 1-.6 1.6-.9h.1l1.4-.6c.1 0 .3-.1.4-.2h.1l-.2.2c-.7.7-1.3 1.4-1.9 2.3l-.1.3c-.1.1-.1.2-.2.4-.4-.3-.9-.6-1.2-.9-.1-.2-.3-.4-.3-.5-.1.1-.1.1 0 0-.1 0 0 0 0 0zm33.4 13.9H25.9v1.8h10.4c-.4.4-.8.7-1.3 1-4.1 2.5-8.9 3.8-13.7 3.8v-11h17.5v-2H9.4c0-.5.1-1 .2-1.6.1-.2.1-.4.1-.5.1-.4.3-.9.5-1.4l.3.1c.4.1.7.2 1.1.4.9.3 1.9.5 2.8.6h.3c.7.1 1.5.3 2.5.4l2.3.1v-2c-.7 0-1.4 0-2.1-.1-.8-.1-1.6-.2-2.3-.3-.2 0-.4 0-.5-.1-1-.2-1.9-.4-2.8-.7-.1 0-.2 0-.4-.1-.1-.1-.1 0-.1 0 .1-.2.2-.4.4-.6 0-.1.1-.1.1-.2.8-1.1 1.7-2.1 2.8-2.8 1.4-1 3-1.7 4.8-2h.2V4.4H19.3c-1.8.1-3.3.3-4.9.6-1 .2-1.9.5-2.8.8-.6.2-1.2.5-1.8.7-.5.3-1.1.5-1.8.9-.9.5-1.8 1.1-2.7 1.7-1.2.9-2.3 2-3.2 3.2-.6.9-1.2 1.9-1.5 2.9-.4 1-.6 2.1-.6 3.2 0 3.4 1.8 6.7 5.2 9.3.2.1.4.3.6.4.2.1.4.3.6.4l1.1.7c.1.1.3.1.4.2.5.3 1 .5 1.5.7l.2.1c.5.2 1.1.5 1.9.7.9.3 1.9.6 2.8.8 2.2.5 4.5.7 6.8.7 5.3.1 10.5-1.3 15-4.1.8-.5 1.5-1 2.2-1.7.5-.5 2.2-2.1 2.7-2.8l.1.1c0 .1 0 0 0 0z"/>
</svg>