<svg version="1.1" id="Layer_1" xmlns="http://www.w3.org/2000/svg" x="0" y="0" viewBox="0 0 170 21" style="enable-background:new 0 0 170 21" xml:space="preserve">
  <style>
    .st0{fill:#113f72}.st1{fill:#bb9434}
  </style>
  <path class="st0" d="m163.4 8.1-2.8 3.9 4.4 7.8h5zM136.1 1.5h4.4v18.3h-4.4zM146.8 8.9h-4.2l-1.3 1.8h5.5v9.1h4.4V1.5h-4.4zM95.1 19.8h4.5V3.4l-4.5 6zM89.1 13.7V1.5h-4.4v18.3h2L99.8 1.5h-2zM47.1 19.8H49L60.2 4.3v7.3h-4l-1.3 1.8h5.3v6.4h4.4V1.5h-4.4zM74 12l4.4 7.8h5L76.8 8.1z"/>
  <path class="st0" d="M78.3 1.6 71.5 11V1.5h-4.4v18.3h4.4v-6l8.8-12.2zM116.3 11.5c-1-1.7-2.8-2.8-4.7-2.7h-3.4l-1.3 1.8h3.8c1.4.7 2.2 2.1 2.2 3.7s-.9 3-2.2 3.7h-4.3V3.4h7.7l1.3-1.8H102v18.3h9.5c1.9.1 3.7-1 4.7-2.7 1.1-1.8 1.1-3.9.1-5.7zM116.1 19.8h2l11.1-15.5v7.3h-4l-1.3 1.8h5.3v6.4h4.4V1.5h-4.4zM164.9 1.6l-6.8 9.4V1.5h-4.4l-.1 18.3h4.5v-6.1l8.8-12.1z"/>
  <g>
    <path class="st1" d="M17.4 1.3 0 10.3l17.4 9 17.4-9-17.4-9zm0 16.1L3.7 10.3l13.7-7.1L31 10.3l-13.6 7.1z"/>
    <path class="st1" d="M18.6 6.4v1.9l1.9 1-1.9 1v1.9l5.6-2.9z"/>
    <path class="st1" d="m21.1 0-1.8 1 18 9.3-18 9.3 1.8 1L41 10.3zM17.4 14.8v-1.9l-5-2.6 3.2-1.7v2l1.8-.9V5.8l-8.7 4.5z"/>
  </g>
</svg>
