<svg xmlns="http://www.w3.org/2000/svg" viewBox="0 0 169.9 25.9">
	<g fill="#0d47a1">
		<path d="M100.5 17.4c-.4-1.1-.5-1.5-.6-1.8-.3-.8-.5-1.3-.7-1.6-.4-.6-.9-1.2-2.1-1.3v-.1c.3-.1.6-.2.9-.4.3-.2.5-.4.7-.7.5-.7.5-1.5.9-2.8.3-.8.7-.9 1.3-.9h.3V6c-.3-.1-.5-.1-.8-.1-.7 0-1.2.1-1.7.4s-.9.8-1.1 1.4c-.3.8-.3 1.1-.6 2.3-.2.6-.4 1-.9 1.4-.5.3-.8.3-1.4.3h-.8V6H91v14.1h2.6v-6.3h.9c1.4 0 1.9.4 2.3 1.1.3.5.4 1.2.8 2.4.3.9.5 1.6.8 2 .7.9 1.6.9 2.2.9.4 0 .8 0 1.1-.1v-1.9h-.1c-.8 0-1-.4-1.1-.8zm-36-4.8c-1.1-.8-2.5-.9-3.6-.9h-2.5V8.1h6.2V6h-8.8v14.1h5.6c1.2 0 2.4-.1 3.5-1.1.7-.7 1.2-1.7 1.2-3.1-.2-1.9-1-2.9-1.6-3.3zm-2 4.9c-.6.5-1.4.6-1.8.6h-2.3v-4.3h2.1c.5 0 1.3 0 1.9.6.4.4.6 1 .6 1.7.1.5-.2 1.1-.5 1.4zm-32.3-2.6c-2.7 0-5.3-.4-7.9-1-2.5-.6-5-.8-7.5-.9C6.9 13 0 15.9 0 19.4s7 6.6 14.7 6.5c2.6 0 5.2-.3 7.7-1 2.6.7 4.9 1 7.5 1 3.7 0 7.2-.5 10.6-1.9 1.4-.7 2.6-1.4 3.6-2.7.4-.7.7-1.2.7-2V17c-.4 3.9-7.9 6.2-14.6 6.3-1.2 0-2.4 0-3.6-.2.7-.4 1.4-.9 1.9-1.6h1.4c3.7 0 7.2-.5 10.6-1.9 1.4-.7 2.6-1.4 3.6-2.7.4-.7.7-1.2.7-2v-2.3c-.4 3.9-7.9 6.2-14.6 6.3h-.7c-.1-.6-.3-1.1-.9-1.8h1.3c3.7 0 7.2-.5 10.6-1.9 1.4-.7 2.6-1.4 3.6-2.7.4-.7.7-1.2.7-2V8.2c-.4 4.3-7.9 6.7-14.6 6.7zm-15.5 8.7c-5 0-9-1.9-9-4 0-2 4.1-4 9-4 5 0 9 1.9 9 4 .1 2-4 4-9 4zm71.7-11.9h-4.9V6h-2.7v14.1h2.7v-6.4h4.9v6.4h2.7V6h-2.7v5.7zM70.6 6L66 20.1h2.3l1.1-3.7h4.7l1.2 3.7h2.8L73.5 6h-2.9zm3 8.5H70l1.6-5.2.2-.8h.1l.2.8 1.5 5.2z"/>
		<path d="M14.6 11c2.7 0 5.3.4 7.9 1 2.5.6 5 .8 7.5.9 7.9 0 14.8-2.9 14.8-6.4S37.8-.1 30.1 0c-2.6 0-5.2.3-7.7 1-2.6-.7-4.9-1-7.5-1-3.7 0-7.2.5-10.6 1.9-1.4.7-2.6 1.4-3.6 2.7-.4.7-.7 1.2-.7 2v2.3C.4 5 7.9 2.7 14.6 2.6c1.2 0 2.4 0 3.6.2-.7.4-1.4.9-1.9 1.6h-1.4c-3.7 0-7.2.5-10.6 1.9C2.9 7 1.7 7.7.7 9c-.4.7-.7 1.2-.7 2v2.3C.4 9.4 7.9 7.1 14.6 7h.7c.1.6.3 1.1.9 1.8h-1.3c-3.7 0-7.2.5-10.6 1.9-1.4.7-2.6 1.4-3.6 2.7-.4.7-.7 1.2-.7 2v2.3C.4 13.4 7.9 11 14.6 11zm15.5-8.6c5 0 9 1.9 9 4 0 2-4.1 4-9 4-5 0-9-1.9-9-4-.1-2.1 4-4 9-4zm119.6 10.3l-.2 1h-.1l-.2-.9-1.7-6.8H142v14.1h3.4v-9.3l-.1-.9h.1l.1.6 2.5 9.6h2.5l2.5-9.5.2-.7h.1v10.2h4V6h-5.7l-1.9 6.7zm19.5.2c-1.1-1.5-2.9-1.6-4-1.6h-2.3V6h-4.2v14.1h6.3c1.1 0 2.6-.1 3.7-1.2.8-.8 1.2-2 1.2-3.3.1-1.6-.5-2.4-.7-2.7zm-3.9 3.7c-.3.3-.7.4-1 .4H163v-2.5h1.3c.4 0 .7.1 1 .4.2.3.3.6.3.9 0 .3-.1.5-.3.8zm-60.5 3.5h4.4V9.3h2.8v10.8h4.4V6h-11.6v14.1zM139 6.7c-1.3-.7-2.9-.7-4.2-.7h-5.2v14.1h4.4V15h1.5c1.5 0 3.7-.1 5-2.1.6-1 .4-2 .4-2.4-.1-2.2-1-3.3-1.9-3.8zm-2.7 4.8c-.4.4-1 .4-1.3.4h-1.1V9.2h1.1c.3 0 .9 0 1.4.4.2.2.4.6.4 1-.1.3-.3.6-.5.9zm-13.7 2.9h4v-3h-4V9.3h5.2V6h-9.6v14.1h9.9v-3.4h-5.5v-2.3z"/>
	</g>
</svg>