<svg xmlns="http://www.w3.org/2000/svg" viewBox="0 0 160 30">
	<path fill="#313131" d="M55.9683 7.09124h-2.1211V.189097h2.1211V2.83649c.1886 0 .33-.09454.4243-.18909.0942-.14183.2828-.47276.4714-1.04005.1414-.42548.3299-.756403.4714-.945504.1414-.1891.4242-.330922.8013-.425471.377-.09455.9427-.1418337 1.7441-.1418337V1.56007h-.0943c-.3771 0-.6129.04727-.8014.1891-.1885.14182-.3299.3782-.4242.66185-.0943.33093-.2357.52003-.3771.70913-.1414.14182-.33.28364-.5185.37819.33.09455.5656.28365.8013.52003.2357.23637.4714.61457.707 1.13459l.9428 1.891h-2.404l-.8484-1.79644c-.1886-.42548-.33-.70913-.4714-.80368-.0943-.09455-.2828-.14182-.4714-.14182v2.78922h.0471Zm5.1851-.52003c-.6127-.52002-.8956-1.18188-.8956-1.98555 0-.7564.2357-1.41825.7542-1.891s1.2256-.75638 2.0741-.75638c.9898 0 1.744.28364 2.2625.85094.4243.47274.6128 1.04005.6128 1.74918 0 .7564-.2357 1.41824-.7542 1.89099s-1.2256.75639-2.1211.75639c-.7542 0-1.4142-.1891-1.9327-.61457Zm1.0371-1.98555c0 .42547.0942.7564.2828.99277.1885.23638.4242.33093.6599.33093.2828 0 .5185-.09455.6599-.33093.1885-.18909.2828-.5673.2828-.99277 0-.42548-.0943-.75639-.2828-.99277-.1886-.18909-.3771-.33093-.6599-.33093-.2828 0-.5185.09456-.7071.33093-.1414.23638-.2356.56729-.2356.99277Zm6.1749-.66184 1.2727 3.16742h1.1313l1.1784-3.16742v3.16742h1.6027V2.08009h-2.2626l-1.0841 2.88378-1.1785-2.88378h-2.2626v5.01115h1.6027V3.92382Zm9.7571 1.04005-1.1784-2.88378h-2.2623v5.01115h1.6024V3.92382l1.2727 3.16742h1.1313l1.1784-3.16742v3.16742h1.6026V2.08009h-2.2625l-1.0842 2.88378Zm4.525 1.04003c-.2356-.42547-.377-.89822-.377-1.41824 0-.80368.2356-1.41825.7541-1.891.5193-.47275 1.1792-.70912 2.0747-.70912.7071 0 1.2727.09455 1.6969.33093.4243.23637.7071.52002.9427.94549.2357.42548.33.9455.33 1.60735v.23637h-3.818c.0471.33093.0943.52003.2357.70913.1885.23637.4242.33093.707.33093.1886 0 .3771-.04728.5185-.14184.0943-.04727.2357-.14181.33-.33091l1.8854.18909c-.2828.52003-.6599.85095-1.037 1.08733-.4242.23637-.9898.33092-1.744.33092-.6599 0-1.1784-.09455-1.5555-.28365-.3771-.28365-.7078-.5673-.9435-.99278Zm1.5563-1.89099h1.8854c-.0471-.3782-.1414-.61456-.2828-.80367-.1414-.14182-.3771-.23637-.6599-.23637-.2828 0-.5656.14182-.707.37819-.1415.14183-.1886.3782-.2357.66185Zm6.4104 4.86934h-1.9325V2.08009h1.7911v.7564c.2357-.33092.4714-.52003.6599-.61458.2828-.14182.5656-.23637.9427-.23637.6599 0 1.1784.23637 1.5555.7564.3771.52002.5656 1.1346.5656 1.891 0 .85094-.1885 1.46552-.6127 1.891-.3771.42547-.8956.66184-1.5084.66184-.2828 0-.5656-.04727-.8013-.14182-.2357-.09455-.4713-.23637-.6599-.42547v2.36376Zm0-4.39659c0 .3782.0943.70914.2357.89823.1885.18911.3771.28364.6128.28364.2356 0 .4242-.09453.5656-.28364.1414-.18909.2357-.47275.2357-.94549 0-.42548-.0943-.70914-.2357-.89824-.1414-.1891-.33-.28364-.5656-.28364-.2357 0-.4714.09454-.6128.28364-.1414.1891-.2357.52002-.2357.9455Zm9.5218 2.50558V2.08009h-1.9329v1.65462c-.2357.28365-.5185.42548-.8485.42548-.1885 0-.3299-.04728-.4242-.1891s-.1414-.33093-.1414-.52003V2.08009h-1.9326v1.65462c0 1.27643.6128 1.93828 1.7912 1.93828.5656 0 1.0841-.14182 1.5555-.42547v1.84372h1.9329Zm.989-1.08734c-.235-.42547-.377-.89822-.377-1.41824 0-.80368.236-1.41825.755-1.891.518-.47275 1.178-.70912 2.074-.70912.707 0 1.272.09455 1.696.33093.425.23637.707.52002.943.94549.236.42548.33.9455.33 1.60735v.23637h-3.818c.047.33093.094.52003.236.70913.188.23637.424.33093.707.33093.188 0 .377-.04728.518-.14184.095-.04727.236-.14181.33-.33091l1.886.18909c-.283.52003-.66.85095-1.037 1.08733-.425.23637-.99.33092-1.744.33092-.66 0-1.179-.09455-1.556-.28365-.377-.28365-.66-.5673-.943-.99278Zm1.603-1.89099h1.885c-.047-.3782-.141-.61456-.282-.80367-.142-.18909-.377-.23637-.66-.23637-.283 0-.566.14182-.707.37819-.142.14183-.189.3782-.236.66185Zm5.044 2.4583c.235.23638.565.3782.896.47275.33.09455.801.14182 1.32.14182.565 0 .99-.09455 1.367-.23637.377-.14183.66-.3782.895-.66186.236-.28364.377-.61457.472-.99277l-1.839-.1891c-.094.28366-.235.47276-.377.61459-.188.14182-.377.18909-.613.18909-.282 0-.565-.09455-.754-.33093-.188-.23637-.283-.52002-.283-.94549 0-.47275.095-.80367.283-1.04005.189-.23637.472-.33093.754-.33093.236 0 .472.04727.613.14182.142.09456.236.28365.33.47276l1.791-.23638c-.188-.5673-.471-.99276-.895-1.27641-.424-.28366-1.037-.42547-1.886-.42547-.565 0-1.084.09454-1.415.23637-.235.09455-.471.23637-.707.42547-.235.1891-.377.42547-.518.66184-.189.33093-.283.75641-.283 1.27644 0 .47274.094.89821.236 1.18187.188.3782.377.61456.613.85094Zm10.276-.99278c-.283-.47275-.519-.75639-.66-.85094-.141-.09455-.33-.14182-.613-.18909.142-.04728.236-.09457.33-.14184.094-.09455.142-.23637.283-.42547.094-.1891.189-.33092.283-.42547.094-.04727.188-.09456.33-.14184.141 0 .33-.04726.565-.04726h.095V1.98554c-.519 0-.896 0-1.179.04728-.283 0-.471.04728-.66.14183-.188.04727-.33.18909-.424.33091-.094.14183-.236.3782-.377.66185-.141.28365-.236.47275-.33.5673-.094.09456-.188.14183-.33.14183V2.08009h-1.932v5.01115h1.932v-1.891c.142 0 .283.04727.424.09454.095.04728.236.18911.33.42549l.707 1.37097h2.169l-.943-1.51281Zm5.043-.94549v2.4583h1.792V2.08009h-1.792l-1.885 2.50557V2.08009h-1.791v5.01115h1.838l1.838-2.4583Zm6.552 0v2.4583h1.791V2.08009h-1.791l-1.885 2.50557V2.08009h-1.791v5.01115h1.838l1.838-2.4583Zm-.942-3.16741c.424 0 .801-.14183 1.084-.37822.33-.23637.471-.614558.471-1.0400322h-.754c-.047.1891002-.142.3309192-.283.3781932-.141.047275-.33.094556-.566.094556-.424 0-.707-.189103-.801-.520027h-.801c.047.425474.188.803662.471 1.04004.283.28365.66.42549 1.179.42549Zm7.212 4.96386c-.471-.52002-.707-1.37098-.707-2.55285 0-1.08733.189-1.93826.613-2.64739.424-.709123.99-.992778 1.791-1.040053h.566c.518 0 .801-.0945475.848-.189097h1.508c0 .898225-.518 1.37097-1.555 1.41825-.707.04727-1.179.09454-1.414.1891-.236.09454-.424.28365-.519.5673.236-.1891.566-.23637.943-.23637.943 0 1.65.23636 2.121.75638.471.47275.754 1.13461.754 1.84374 0 .7564-.235 1.37097-.754 1.89099-.471.52002-1.225.75639-2.168.75639-.849 0-1.556-.23637-2.027-.75639Zm1.226-1.84373c0 .42547.094.70912.235.94549.142.23638.377.33093.707.33093.33 0 .566-.09455.707-.33093.142-.23637.236-.56728.236-.99275 0-.42548-.094-.7564-.236-.94551-.188-.23637-.377-.33093-.66-.33093-.33 0-.565.14182-.707.3782-.235.23638-.282.5673-.282.9455Zm7.211-.61457c.236-.04727.425-.14182.66-.23638 0-.23637-.047-.37819-.141-.47275-.094-.09454-.283-.14181-.519-.14181-.33 0-.565.04727-.707.14181-.141.09456-.235.23638-.283.42547l-1.838-.18909c.047-.33092.189-.5673.283-.7564.141-.1891.33-.33092.566-.47275.188-.09455.424-.1891.707-.23637.33-.04728.66-.09454.989-.09454.566 0 1.037.04726 1.367.09454.33.04727.66.18909.849.42547.141.14182.283.33093.377.61458.094.23637.141.52002.141.7564v2.22191c0 .23638 0 .42549.047.56731.048.14182.095.28365.189.52003h-1.791c-.094-.14183-.142-.23639-.142-.28366 0-.04727-.047-.18911-.047-.33092-.235.23637-.518.42547-.754.52002-.33.14183-.754.1891-1.178.1891-.613 0-1.037-.14183-1.367-.42547-.33-.28365-.471-.61458-.471-1.04006 0-.3782.094-.70912.329-.9455.236-.23637.613-.42546 1.226-.56729.848-.14182 1.273-.23638 1.508-.28365Zm.66.7564c-.283.09455-.518.1891-.801.23638-.377.09454-.613.1891-.754.28365-.095.09455-.142.23636-.142.33091 0 .14183.047.28366.142.37821.094.09456.283.14182.471.14182.236 0 .424-.04726.613-.14182.188-.09455.33-.23638.377-.37821.094-.14182.094-.33091.094-.56729v-.28365Zm6.505 2.36375h1.932V2.08009h-1.932v1.7019h-1.744v-1.7019h-1.933v5.01115h1.933v-1.891h1.744v1.891Zm4.855-1.891c.141 0 .283.04727.424.09454.094.04728.236.18911.33.42549l.707 1.37097H160l-.896-1.51281c-.283-.47275-.519-.75639-.66-.85094-.142-.09455-.33-.14182-.613-.18909.141-.04728.236-.09457.33-.14184.047-.09455.141-.23637.283-.42547.094-.1891.188-.33092.283-.42547.094-.09455.188-.09456.33-.14184.142 0 .33-.04726.566-.04726h.094V1.98554c-.518 0-.896 0-1.179.04728-.283 0-.471.04728-.66.14183-.188.04727-.33.18909-.424.33091-.094.14183-.236.3782-.377.66185-.141.28365-.236.47275-.33.5673-.094.09456-.189.14183-.33.14183V2.08009h-1.933v5.01115h1.933v-1.891h-.047ZM80.1022 14.1352h-5.1378l-2.6395 4.5856-2.7339-4.5856h-5.2322l4.8079 7.1385-5.2793 7.8004h5.2793l3.0168-4.7748 3.0166 4.7748h5.3263l-5.232-7.7059 4.8078-7.233Zm5.9399 8.2259v-8.2259h-4.4787v14.9389h4.4787l5.7505-8.1786v8.1786h4.4308V14.1352h-4.4308l-5.7505 8.2259Zm21.3519.8509-2.403-9.0768h-6.2223v14.9389h3.8653V17.6808l2.969 11.3933h3.489l2.97-11.3933v11.3933h3.865V14.1352h-6.222l-2.311 9.0768Zm15.556-.8509v-8.2259h-4.478v14.9389h4.478l5.751-8.1786v8.1786h4.43V14.1352h-4.43l-5.751 8.2259Zm23.05.0945c-.518-.52-1.084-.8982-1.791-1.1346.518-.1891.895-.4728 1.178-.8037.283-.3309.566-.851.802-1.5128.235-.6619.565-1.1346.942-1.4655.377-.2836.99-.4255 1.791-.4255h.236v-3.1674c-1.744 0-3.017.0946-3.818.2836-.801.1892-1.414.4728-1.744.851-.377.4255-.707 1.0873-1.084 1.9855-.471 1.2764-.848 2.0329-1.084 2.2692-.236.2837-.566.4255-.943.4255v-5.6257h-4.713v14.9389h4.713v-5.9567c.424 0 .754.0946.99.331.236.2363.566.8036 1.037 1.7018l1.838 3.8766h5.327l-2.074-4.0656c-.519-1.1347-1.084-1.9383-1.603-2.5056Zm4.808-4.6802h1.885c-.047.4255-.188.8509-.424 1.1819-.283.3309-.754.6618-1.461.9927l.848 1.6546c1.132-.4727 1.933-1.0873 2.404-1.7491.472-.6619.707-1.5601.707-2.6947v-3.0729h-3.959v3.6875Zm5.232-3.6875v3.6875h1.885c-.047.4255-.188.8509-.424 1.1819-.283.3309-.754.6618-1.461.9927l.848 1.6546c1.132-.4727 1.934-1.0873 2.405-1.7491.471-.6619.707-1.5601.707-2.6947v-3.0729h-3.96Zm-92.8125 1.8437-.8485-1.6546c-1.1313.4728-1.9326 1.0873-2.404 1.7492-.4713.6618-.7071 1.5601-.7071 2.6946v3.0729h3.9596v-3.6874H61.342c.0471-.4255.1885-.8509.4243-1.1819.2828-.3309.7541-.6619 1.4612-.9928Zm-5.2322 0-.8485-1.6546c-1.1313.4728-1.9326 1.0873-2.404 1.7492-.4714.6618-.7071 1.5601-.7071 2.6946v3.0729h3.9596v-3.6874h-1.8855c.0471-.4255.1885-.8509.4242-1.1819.2828-.3309.7542-.6619 1.4613-.9928Z"/>
	<path fill="#313131" d="M18.4472 23.5444H9.82112c-.80134 0-1.36696-.8037-1.0842-1.5592L13.5921 8.88902c.33-.80372 1.0842-1.3707 1.9797-1.3707h5.5621c.99 0 1.8856-.61375 2.2155-1.56067l1.7441-4.77406h-8.1547l-1.367 3.40337c-.2828.71019-.9899 1.18219-1.744 1.18219H8.40695c-1.0841 0-2.07395.66196-2.45106 1.70241L.110885 23.2141c-.424233 1.0872.424233 2.2694 1.602675 2.2694l15.79084.0468.9428-1.9859ZM41.4029 5.67416 25.612 5.6274l-.9899 2.03266h8.6261c.8013 0 1.367.80372 1.0842 1.56067l-4.808 12.99967c-.33.8037-1.0843 1.3722-1.9798 1.3722h-5.5621c-.9899 0-1.8855.6137-2.2155 1.5592l-1.7441 4.7755h8.1547l1.367-3.4048c.2828-.7087.9899-1.1822 1.7441-1.1822h5.4208c1.0841 0 2.074-.6605 2.4511-1.7009l5.7978-15.74261c.4714-1.0872-.3771-2.22263-1.5555-2.22263ZM15.7604 8.27527h5.6093c.8956 0 1.744-.56698 2.074-1.3707l2.2154-5.67275h.99l-2.3568 5.95625c-.4715 1.18218-1.6499 1.9859-2.9226 1.9859h-5.6093c-.2829 0-.6128.23673-.7071.52022L10.5282 21.7967c0 .0949 0 .1417.0471.1885.0472.0482.0943.0949.1885.0949h8.4848l-.4715.8987h-8.0133c-.3771 0-.7541-.1899-.94268-.4734-.23564-.2835-.28277-.7087-.14138-1.0405L14.2049 9.36248c.2357-.66051.8484-1.08721 1.5555-1.08721Zm3.9595 15.97933c.3299-.8038 1.1784-1.3722 2.074-1.3722h5.6565c.707 0 1.3197-.4252 1.5555-1.0872L33.531 9.69273c.1414-.33025.0943-.75549-.1414-1.03898-.1885-.28496-.5657-.47346-.9428-.47346h-8.0132l-.4713.89869h8.4845c.0944 0 .1415.04677.1886.09353.0472.04822.0472.09498.0472.18997L28.1574 21.4649c-.0943.2835-.4242.5203-.707.5203h-5.6565c-1.2727 0-2.4511.8037-2.9225 1.9844l-2.3568 5.9577h.9898l2.2155-5.6727Z"/>
</svg>