<?xml version="1.0" encoding="utf-8"?>
<!-- Generator: Adobe Illustrator 25.4.1, SVG Export Plug-In . SVG Version: 6.00 Build 0)  -->
<svg version="1.1" id="Layer_1" xmlns="http://www.w3.org/2000/svg" xmlns:xlink="http://www.w3.org/1999/xlink" x="0px" y="0px"
	 viewBox="0 0 180 26" style="enable-background:new 0 0 180 26;" xml:space="preserve">
<style type="text/css">
	.st0{fill:#044B98;}
</style>
<g>
	<polygon class="st0" points="61.2,18.7 59.9,18.7 57.3,21.5 57.3,18.7 56.3,18.7 56.3,24.2 56.3,24.4 57.3,24.4 57.3,22.7 
		58.2,21.8 60.1,24.3 61.3,24.3 58.8,21.1 	"/>
	<path class="st0" d="M71.3,19.5c0.5,0,1.1,0.2,1.6,0.7l0.6-0.7c-0.3-0.3-0.6-0.5-1-0.7c-0.3-0.2-0.7-0.2-1.2-0.2
		c-0.8,0-1.5,0.3-2.1,0.8c-0.5,0.5-0.8,1.3-0.8,2.1c0,0.8,0.2,1.5,0.8,2.1c0.5,0.5,1.2,0.8,2,0.8c0.5,0,0.9-0.1,1.3-0.2
		c0.3-0.1,0.7-0.4,1-0.7l-0.6-0.7c-0.1,0.1-0.3,0.3-0.4,0.4c-0.1,0.1-0.2,0.1-0.3,0.2c-0.2,0.1-0.5,0.2-0.8,0.2
		c-0.5,0-1-0.2-1.3-0.6s-0.5-0.8-0.5-1.4c0-0.5,0.2-1,0.5-1.4C70.3,19.6,70.7,19.5,71.3,19.5z"/>
	<polygon class="st0" points="77.2,21.3 75.5,18.7 74.5,18.7 74.5,24.2 75.4,24.2 75.4,20.2 77.2,22.8 77.2,22.8 79,20.2 79,24.2 
		79.9,24.2 79.9,18.7 78.9,18.7 	"/>
	<path class="st0" d="M89.3,20.3c0.1-0.1,0.1-0.2,0.2-0.3c0.4-0.4,0.8-0.5,1.3-0.5c0.5,0,1.1,0.2,1.6,0.7l0.6-0.7
		c-0.2-0.2-0.3-0.3-0.5-0.4c-0.2-0.1-0.3-0.2-0.5-0.3c-0.3-0.2-0.7-0.2-1.2-0.2c-0.8,0-1.5,0.3-2.1,0.8c-0.5,0.5-0.8,1.3-0.8,2.1
		c0,0.8,0.2,1.5,0.8,2.1c0.5,0.5,1.2,0.8,2,0.8c0.1,0,0.2,0,0.3,0l0.1,0l0.1,0c0.2,0,0.5-0.1,0.7-0.2c0.3-0.1,0.7-0.4,1-0.7
		l-0.6-0.7c-0.2,0.2-0.5,0.4-0.7,0.5c-0.1,0.1-0.2,0.1-0.4,0.1c-0.1,0-0.3,0-0.5,0c-0.2,0-0.5,0-0.7-0.1c-0.3-0.1-0.5-0.3-0.7-0.5
		c-0.4-0.4-0.5-0.8-0.5-1.4c0-0.2,0-0.4,0.1-0.6C89.1,20.6,89.2,20.4,89.3,20.3z"/>
	<polygon class="st0" points="123.8,18.7 119.2,18.7 119.2,19.6 121,19.6 121,24.2 122,24.2 122,19.6 123.8,19.6 	"/>
	<polygon class="st0" points="131.3,21.9 134.1,21.9 134.1,21 131.3,21 131.3,19.5 134.5,19.5 134.5,18.7 130.4,18.7 130.4,24.2 
		134.5,24.2 134.5,23.4 131.3,23.4 	"/>
	<polygon class="st0" points="135.3,19.6 137,19.6 137,24.2 138.1,24.2 138.1,19.6 139.8,19.6 139.8,18.7 135.3,18.7 	"/>
	<path class="st0" d="M150.2,19.8c0,0.7,0,1.2-0.1,1.7c-0.1,0.5-0.1,0.8-0.2,1.1c0,0.1-0.1,0.2-0.1,0.3c0,0.1-0.1,0.2-0.2,0.3
		c-0.1,0.2-0.2,0.2-0.3,0.3c-0.1,0.1-0.2,0.1-0.3,0.1c-0.1,0-0.2,0-0.3-0.1l-0.1,0.8h0c0.2,0.1,0.4,0.1,0.7,0.1c0.2,0,0.3,0,0.4,0
		c0.1,0,0.1,0,0.2,0c0.1,0,0.1,0,0.2,0c0.1-0.1,0.2-0.1,0.3-0.2c0.1-0.1,0.2-0.2,0.3-0.4c0.2-0.3,0.3-0.8,0.4-1.3l0-0.3
		c0-0.2,0-0.3,0-0.5c0-0.4,0.1-0.9,0.1-1.4v-0.5h1.9v4.7h1v-5.6h-3.8V19.8z"/>
	<path class="st0" d="M179,23c-0.1,0.1-0.2,0.1-0.3,0.2c-0.1,0-0.2,0.1-0.3,0.1c-0.2,0-0.4,0.1-0.5,0.1c-0.5,0-1-0.2-1.3-0.6
		c-0.2-0.2-0.3-0.4-0.4-0.7c-0.1-0.2-0.1-0.4-0.1-0.7c0-0.5,0.2-1,0.5-1.4c0.4-0.4,0.8-0.5,1.3-0.5c0.3,0,0.6,0.1,0.9,0.2
		c0.2,0.1,0.4,0.3,0.6,0.5l0.6-0.7c-0.3-0.3-0.6-0.5-1-0.7c-0.3-0.2-0.7-0.2-1.2-0.2c-0.8,0-1.5,0.3-2.1,0.8
		c-0.5,0.5-0.8,1.3-0.8,2.1c0,0.8,0.2,1.5,0.8,2.1c0.5,0.5,1.2,0.8,2,0.8c0.3,0,0.6,0,0.8-0.1c0.2,0,0.3-0.1,0.4-0.2
		c0.2-0.1,0.3-0.2,0.5-0.3c0.2-0.1,0.3-0.3,0.5-0.4l-0.6-0.7C179.2,22.8,179.1,22.9,179,23z"/>
	<polygon class="st0" points="81.9,6.4 86.1,6.4 86.1,10.6 88.4,10.6 88.4,0.2 86.1,0.2 86.1,4.4 81.9,4.4 81.9,0.2 79.6,0.2 
		79.6,10.6 81.9,10.6 	"/>
	<polygon class="st0" points="101,10.7 96.5,4.7 100.8,0.2 98,0.2 93.8,4.8 93.8,0.2 91.5,0.2 91.5,10.7 93.8,10.7 93.8,7.5 95,6.2 
		98.2,10.7 	"/>
	<polygon class="st0" points="110.5,7.5 111.7,6.2 114.9,10.7 117.6,10.7 113.2,4.7 117.5,0.2 114.7,0.2 110.5,4.8 110.5,0.2 
		108.2,0.2 108.2,10.6 108.2,10.7 110.5,10.7 	"/>
	<path class="st0" d="M138.6,8.3c-0.4,0.2-0.9,0.3-1.5,0.3c-0.2,0-0.4,0-0.6-0.1c-0.2,0-0.3-0.1-0.5-0.1c0,0-0.1,0-0.1-0.1l-0.1,0
		c-0.3-0.2-0.6-0.4-0.9-0.7c-0.5-0.6-0.8-1.4-0.8-2.3c0-0.9,0.3-1.7,0.8-2.3c0.1-0.1,0.1-0.1,0.2-0.2c0.3-0.3,0.7-0.5,1.1-0.6
		c0.3-0.1,0.6-0.1,0.9-0.1c0.5,0,1,0.1,1.4,0.3c0.4,0.2,0.8,0.5,1.3,0.9l1.4-1.6c-0.5-0.5-1.2-1-1.8-1.3c-0.6-0.3-1.3-0.4-2.2-0.4
		c-1.6,0-2.8,0.5-3.9,1.6c-1,1-1.5,2.3-1.5,3.8s0.5,2.8,1.5,3.8c1,1,2.3,1.6,3.8,1.6c1,0,1.7-0.2,2.4-0.5c0.3-0.1,0.5-0.3,0.7-0.4
		c0.2-0.1,0.4-0.2,0.5-0.4c0.2-0.2,0.4-0.3,0.6-0.5l-1.5-1.6C139.5,7.8,139,8.1,138.6,8.3z"/>
	<polygon class="st0" points="149.2,4.6 146.4,0.2 143.9,0.2 143.9,10.6 146.2,10.6 146.2,3.9 149.1,8.2 149.2,8.2 152.1,3.8 
		152.1,10.6 154.4,10.6 154.4,0.2 151.9,0.2 	"/>
	<path class="st0" d="M175.7,10.8c0.6,0,1.1-0.1,1.6-0.2c0.3-0.1,0.6-0.2,0.8-0.3c0.7-0.3,1.3-0.7,1.8-1.3l-1.5-1.6
		c-0.4,0.4-0.8,0.7-1.3,0.9c-0.4,0.2-0.9,0.3-1.5,0.3c-0.9,0-1.6-0.4-2.2-1c-0.5-0.6-0.8-1.4-0.8-2.3c0-0.5,0.1-1,0.3-1.4
		c0.1-0.3,0.3-0.6,0.6-0.9c0.6-0.7,1.3-1,2.2-1c0.5,0,1,0.1,1.4,0.3c0.4,0.2,0.8,0.5,1.3,0.9l1.4-1.6c-0.5-0.5-1.2-1-1.8-1.3
		c-0.6-0.3-1.3-0.4-2.2-0.4c-1.6,0-2.8,0.5-3.9,1.6c-0.4,0.4-0.7,0.8-0.9,1.3c-0.4,0.8-0.6,1.6-0.6,2.6c0,1.5,0.5,2.8,1.5,3.8
		C172.9,10.2,174.2,10.8,175.7,10.8z"/>
	<path class="st0" d="M128,1.6c-0.4-0.4-0.8-0.7-1.3-1C125.9,0.2,125,0,124.1,0c-1.6,0-2.9,0.5-3.9,1.6c-1,1-1.6,2.3-1.6,3.8
		s0.5,2.8,1.6,3.8c1,1,2.4,1.6,3.9,1.6c0.2,0,0.4,0,0.6,0l0.1,0l0.1,0l0.1,0c0.2,0,0.3-0.1,0.5-0.1c0.4-0.1,0.9-0.3,1.2-0.5
		c0.4-0.2,0.9-0.6,1.2-0.9c0.6-0.6,1-1.2,1.3-1.9c0.2-0.6,0.3-1.2,0.3-1.9c0-0.8-0.1-1.5-0.4-2.1C128.9,2.6,128.5,2.1,128,1.6z
		 M126.3,7.8c-0.6,0.7-1.3,1-2.2,1h0c-0.9,0-1.6-0.4-2.2-1c-0.6-0.7-0.9-1.4-0.8-2.4c0-0.9,0.2-1.7,0.8-2.3c0.5-0.6,1.3-0.9,2.2-0.9
		c0.4,0,0.8,0.1,1.1,0.2c0.4,0.2,0.8,0.4,1.2,0.8c0.3,0.3,0.5,0.6,0.6,0.9c0.2,0.4,0.3,0.9,0.3,1.4C127.2,6.4,126.9,7.2,126.3,7.8z"
		/>
	<path class="st0" d="M77.2,10.6L72.8,0.1h-2.1l-4.4,10.5h2.3l1-2.3h4.4l1,2.3H77.2z M70.4,6.3l1.4-3.4l1.4,3.4H70.4z"/>
	<path class="st0" d="M63.8,9.8c0.7-0.5,1-1.4,1-2.4c0-0.6-0.1-1-0.3-1.4c-0.2-0.4-0.4-0.7-0.7-0.9c-0.6-0.5-1.5-0.8-2.7-0.8h-2.7
		V2.3h5.6V0.2h-7.9v10.4H61C62.2,10.6,63.2,10.3,63.8,9.8z M58.5,6H61c1.1,0,1.6,0.4,1.6,1.2c0,0.9-0.5,1.3-1.6,1.3h-2.5V6z"/>
	<path class="st0" d="M23.8,0.4C10.7,0.4,0,5.6,0,11.9c0,6.4,10.7,11.5,23.8,11.5c13.1,0,23.8-5.2,23.8-11.5
		C47.6,5.6,36.9,0.4,23.8,0.4z M27.5,20l-0.2,0.1l-0.2,0.1c-7,2.9-14.5,2.1-16.6-2.8C8.4,12.4,12.9,6,19.3,3.3c4-1.6,8.5-2,11.9-1
		c-2.6,1.3-5.2,2.6-7.8,3.9l-3.9,2c-3.1,1.6-6.2,3.1-9.3,4.7c8.3-2.4,14.8-1.4,17.6,7C27.7,19.8,27.6,19.9,27.5,20z M28,19.7
		c0.3-1.7,0.6-3.3,1-5l0.7-3.7c0.6-2.9,1.1-5.8,1.7-8.8c2.2,0.6,3.9,1.8,4.7,3.6C38.1,10.5,34.5,16.7,28,19.7z"/>
	<path class="st0" d="M166.2,9.5l0.1-0.1l0.1-0.1l0.1-0.1c1.1-1,1.6-2.3,1.6-3.8s-0.5-2.8-1.6-3.8c-1-1-2.4-1.6-3.9-1.6
		s-2.9,0.5-3.9,1.6c-1,1-1.6,2.3-1.6,3.8s0.5,2.8,1.6,3.8c1,1,2.4,1.6,3.9,1.6c1,0,1.9-0.2,2.8-0.7C165.6,9.9,165.9,9.7,166.2,9.5z
		 M162.5,8.7c-0.4,0-0.8-0.1-1.1-0.2c-0.2-0.1-0.3-0.2-0.5-0.3c-0.1-0.1-0.2-0.1-0.3-0.2c-0.1-0.1-0.2-0.2-0.3-0.3
		c-0.5-0.7-0.8-1.4-0.8-2.4c0-0.3,0-0.7,0.1-1c0.1-0.5,0.4-1,0.7-1.3c0.6-0.6,1.3-0.9,2.2-0.9s1.6,0.4,2.2,1
		c0.6,0.6,0.9,1.4,0.9,2.3c0,0.9-0.2,1.7-0.8,2.3C164.2,8.4,163.5,8.7,162.5,8.7z"/>
	<path class="st0" d="M64.5,18.5c-0.8,0-1.6,0.3-2.1,0.8c-0.5,0.6-0.8,1.3-0.8,2.1c0,0.2,0,0.4,0.1,0.6c0.1,0.6,0.4,1,0.8,1.5
		c0.3,0.3,0.6,0.5,0.9,0.6c0.3,0.1,0.7,0.2,1.2,0.2c0.8,0,1.6-0.3,2.1-0.8c0.5-0.6,0.8-1.3,0.8-2.1c0-0.8-0.3-1.5-0.8-2.1
		C66.1,18.8,65.4,18.5,64.5,18.5z M66.2,22.4L66.2,22.4l-0.1,0.2c-0.1,0.1-0.2,0.2-0.3,0.4c-0.4,0.4-0.8,0.5-1.3,0.5
		c-0.5,0-1-0.2-1.3-0.6c-0.4-0.4-0.5-0.8-0.5-1.4c0-0.2,0-0.4,0.1-0.6c0.1-0.3,0.2-0.6,0.5-0.8c0.4-0.4,0.8-0.5,1.3-0.5
		c0.5,0,1,0.2,1.3,0.6s0.5,0.8,0.5,1.4C66.4,21.8,66.3,22.1,66.2,22.4z"/>
	<path class="st0" d="M86.2,19.4c-0.5-0.5-1.2-0.8-2.1-0.8c-0.8,0-1.6,0.3-2.1,0.8c-0.5,0.6-0.8,1.3-0.8,2.1c0,0.3,0,0.5,0.1,0.7
		c0.1,0.4,0.3,0.8,0.5,1.1c0,0,0.1,0.1,0.1,0.1c0,0,0.1,0.1,0.1,0.1c0.3,0.3,0.7,0.6,1.2,0.7c0.1,0,0.2,0,0.3,0.1c0.1,0,0.2,0,0.3,0
		l0.2,0l0.1,0c0.8,0,1.6-0.3,2.1-0.8h0c0.5-0.6,0.8-1.3,0.8-2.1C87,20.6,86.7,19.9,86.2,19.4z M85.9,21.8c0,0.1,0,0.2-0.1,0.3
		c-0.1,0.3-0.2,0.5-0.5,0.8c-0.2,0.2-0.5,0.4-0.8,0.5c-0.2,0.1-0.4,0.1-0.6,0.1c-0.3,0-0.6-0.1-0.8-0.2c-0.2-0.1-0.4-0.2-0.5-0.4
		c-0.4-0.4-0.5-0.8-0.5-1.4c0-0.5,0.2-1,0.5-1.4c0.4-0.4,0.8-0.5,1.3-0.5c0.5,0,1,0.2,1.3,0.6c0.4,0.4,0.5,0.8,0.5,1.4
		C85.9,21.6,85.9,21.7,85.9,21.8z"/>
	<path class="st0" d="M100.2,19.2c-0.1,0-0.1-0.1-0.2-0.1c0,0-0.1,0-0.1-0.1c-0.1,0-0.2-0.1-0.3-0.1c-0.1,0-0.2-0.1-0.3-0.1
		c-0.2,0-0.4-0.1-0.7-0.1h-2.2h0v5.6h1v-1.8h1.1c0.6,0,1.2-0.1,1.6-0.5c0.4-0.3,0.6-0.8,0.6-1.4C100.8,19.9,100.6,19.5,100.2,19.2z
		 M99.5,21.3c-0.2,0.2-0.5,0.3-0.8,0.3h-1.2h-0.1v-2h1.2c0.4,0,0.7,0.1,0.9,0.2c0.1,0.1,0.2,0.3,0.3,0.4c0,0.1,0,0.2,0,0.3
		C99.8,20.8,99.7,21.1,99.5,21.3z"/>
	<path class="st0" d="M103.3,18.6l-2.5,5.6h1.1l0.5-1.3h2.7l0.5,1.3h1l-2.5-5.6H103.3z M102.7,22l1-2.2l1,2.2H102.7z"/>
	<path class="st0" d="M111.5,21.3c-0.1-0.1-0.3-0.2-0.5-0.3c-0.2-0.1-0.3-0.1-0.5-0.1c-0.1,0-0.3,0-0.5,0h-1.6v-1.3h3.2v-0.9h-4.2
		v5.6h2.5c0.7,0,1.2-0.1,1.5-0.4c0.4-0.3,0.5-0.7,0.5-1.3c0-0.2,0-0.4-0.1-0.6C111.9,21.7,111.7,21.5,111.5,21.3z M110.8,23.2
		c-0.2,0.1-0.5,0.2-1,0.2h-1.3h-0.1v-1.7h1.5c0.8,0,1.2,0.3,1.2,0.8C111.1,22.8,111,23,110.8,23.2z"/>
	<path class="st0" d="M117,18.8c-0.1,0-0.2-0.1-0.3-0.1c-0.1,0-0.3-0.1-0.4-0.1c-0.1,0-0.3,0-0.4,0c-0.8,0-1.6,0.3-2.1,0.8
		c-0.5,0.6-0.8,1.3-0.8,2.1c0,0.1,0,0.3,0,0.4l0,0.1c0,0.3,0.1,0.6,0.3,0.8c0.1,0.3,0.3,0.5,0.5,0.7c0.5,0.5,1.2,0.8,2.1,0.8
		c0.8,0,1.6-0.3,2.1-0.8c0.3-0.3,0.5-0.6,0.6-0.9c0.1-0.3,0.2-0.7,0.2-1.1c0-0.8-0.3-1.5-0.8-2.1C117.7,19.1,117.3,18.9,117,18.8z
		 M117.2,22.9c-0.3,0.3-0.6,0.5-1,0.5l-0.1,0l-0.1,0c-0.1,0-0.1,0-0.2,0c-0.3,0-0.6-0.1-0.9-0.3c-0.1-0.1-0.2-0.1-0.3-0.2
		c0,0-0.1-0.1-0.1-0.1l-0.1-0.1c-0.1-0.1-0.2-0.3-0.3-0.5c-0.1-0.3-0.2-0.6-0.2-0.9c0-0.5,0.2-1,0.5-1.4l0,0l0,0l0.1-0.1l0.1,0
		c0,0,0.1,0,0.1-0.1c0,0,0.1,0,0.1-0.1c0.1,0,0.2-0.1,0.3-0.1c0.1,0,0.2-0.1,0.4-0.1c0.1,0,0.2,0,0.3,0c0.5,0,1,0.2,1.3,0.6
		c0.4,0.4,0.5,0.8,0.5,1.4C117.8,22.1,117.6,22.5,117.2,22.9z"/>
	<path class="st0" d="M126.1,18.6l-2.5,5.6h1.1l0.5-1.3h2.7l0.5,1.3h1l-2.5-5.6H126.1z M125.5,22l1-2.2l1,2.2H125.5z"/>
	<path class="st0" d="M147.8,18.7h-3.9v0.8c0,1.7-0.2,3-0.7,3.9h-0.5v2.1h0.8l0.1-1.2h3.9v1.2h0.8l0.1-2.1h-0.7V18.7z M146.8,23.3
		h-2.6c0.4-0.8,0.6-1.9,0.6-3.2v-0.7h2V23.3z"/>
	<path class="st0" d="M156,19c-0.1,0.1-0.2,0.1-0.3,0.2c-0.2,0.2-0.3,0.4-0.4,0.6c-0.1,0.2-0.1,0.4-0.1,0.7c0,0.4,0.1,0.8,0.4,1.1
		c0.2,0.3,0.5,0.5,1,0.6l-1.5,2.1h1.2l1.4-1.9h1.2v1.9h0.9v-5.6h-2.5C156.8,18.7,156.3,18.8,156,19z M158.8,19.5v1.9h-1.5h0
		c-0.4,0-0.7-0.1-0.8-0.2c0,0-0.1-0.1-0.1-0.1c0,0,0,0-0.1-0.1c0-0.1-0.1-0.1-0.1-0.2c0-0.1,0-0.1-0.1-0.2c0-0.1,0-0.2,0-0.2
		c0-0.3,0.1-0.5,0.3-0.7c0.2-0.2,0.5-0.2,0.8-0.2H158.8z"/>
	<path class="st0" d="M167.1,21.4c0.3-0.2,0.6-0.4,0.7-0.7c0-0.1,0.1-0.2,0.1-0.3c0-0.1,0-0.2,0-0.3c0-0.4-0.1-0.7-0.4-1
		c-0.3-0.3-0.8-0.5-1.5-0.5h-2.5v5.7h2.5c0.4,0,0.8-0.1,1.1-0.2c0.1,0,0.1-0.1,0.2-0.1c0.1,0,0.2-0.1,0.3-0.2
		c0.1-0.1,0.2-0.2,0.3-0.3c0-0.1,0.1-0.1,0.1-0.2c0.1-0.2,0.2-0.4,0.2-0.7C168.2,22.1,167.8,21.6,167.1,21.4z M164.6,19.5h1.4
		c0.3,0,0.5,0.1,0.7,0.2c0.2,0.1,0.2,0.3,0.2,0.5c0,0.3-0.1,0.5-0.3,0.6c-0.1,0.1-0.3,0.1-0.5,0.2c-0.1,0-0.1,0-0.2,0l-0.1,0h-1.3
		V19.5z M167.1,23.1c0,0-0.1,0.1-0.1,0.1c-0.2,0.1-0.4,0.2-0.8,0.2h-1.6v-1.5h1.6c0.8,0,1.2,0.2,1.2,0.7
		C167.3,22.8,167.2,23,167.1,23.1z"/>
	<path class="st0" d="M171.2,18.6l-2.5,5.6h1.1l0.5-1.3h2.7l0.5,1.3h1l-2.5-5.6H171.2z M170.6,22l1-2.2l1,2.2H170.6z"/>
</g>
</svg>
