<svg xmlns="http://www.w3.org/2000/svg" viewBox="0 0 160 34">
	<path fill="#3AAA35" d="M41.3236 4.83453c.6907.57554 1.036 1.3813 1.036 2.30216 0 1.3813-.8058 2.64748-2.072 2.99281-.8562.2854-2.9705.2563-4.3282.2376-.2851-.0039-.5368-.0074-.7365-.0074V0h6.2158v1.95683h-3.9136v1.95684c1.346 0 2.6986.00427 3.7985.92086Zm-2.9928 3.45324c.781 0 1.7266-.25382 1.7266-1.15108 0-.94333-.9574-1.15108-1.7266-1.15108h-.8057v2.30216h.8057ZM72.633 0l-4.4892 4.83453 4.6043 5.52517h-2.9928l-3.5684-4.37409v4.37409h-2.3021V0h2.3021v3.91367L69.6402 0h2.9928ZM42.4747 10.3597 46.8488 0h2.0719l4.259 10.3597h-2.5323l-.9209-2.07193h-3.7986l-.9208 2.07193h-2.5324Zm5.1799-7.13668-1.1511 2.99281h2.3021l-1.151-2.99281Zm8.4028.57554h3.9137V0h2.3022v10.3597h-2.3022V5.98561h-3.9137v4.37409h-2.3021V0h2.3021v3.79856ZM69.1797 15.3095h2.8777v10.4748H74.82V15.3095h2.8777v-2.4173h-8.518v2.4173Zm-3.9136 2.4172h-5.0648v-4.8345h-2.7626v12.8921h2.7626v-5.5252h5.0648v5.5252h2.7626V12.8922h-2.7626v4.8345Zm-19.6835-4.8345h-2.8777V23.367h-4.7194V12.8922h-2.7626v12.8921h9.2086v2.8777h2.6475v-5.295h-1.4964V12.8922Zm86.4464 12.8921h7.367V23.367h-4.605v-3.1079h4.374v-2.4173h-4.374v-2.4172h4.605v-2.4173h-7.367v12.777Zm-3.914-6.9065c.806-.5755 1.151-1.4964 1.151-2.4173 0-2.5657-2.242-3.5683-4.489-3.5683h-3.338v12.8921h4.489c2.215 0 4.489-1.2268 4.489-3.6835 0-1.4672-.824-2.8122-2.302-3.1079v-.1151Zm-3.799-3.6834h.576c.904 0 1.711.3786 1.727 1.3813.01.6528-.346 1.3812-1.036 1.3812h-1.267v-2.7625Zm.921 8.1726h-.921v-3.1079h.691c1.012 0 2.417.1688 2.417 1.4964 0 1.1832-.774 1.6115-2.187 1.6115Zm-76.8918 2.4173h7.2518V23.367h-4.4892v-3.1079h4.3741v-2.4173h-4.3741v-2.4172h4.6043v-2.4173h-7.3669v12.777ZM151.482 12.8922v2.4173h2.878v10.4748h2.762V15.3095H160v-2.4173h-8.518Zm-68.8346 0h-3.7986v12.8921h2.8777V21.18h1.3813c2.4319 0 4.4099-1.49 4.3741-4.0288-.0405-2.8763-2.2292-4.259-4.8345-4.259Zm-.1151 5.7554h-.8058v-3.3381h.6906c1.0232 0 2.3022.3668 2.3022 1.6115 0 1.4219-1.0231 1.5973-2.187 1.7266Zm59.9707-4.259c-1.381 1.2662-2.071 2.9277-2.071 5.0647 0 5.1503 5.889 8.2903 10.244 5.8706v-3.4533c-2.19 3.1022-7.635 1.3019-7.252-2.5324 0-4.0287 4.835-5.7554 7.252-2.5323v-3.4533c-2.525-1.403-5.996-.7778-8.173 1.036Zm-44.7765 6.5612v-8.0576h-2.7626v12.8921h2.1871l6.561-8.1727v8.1727h2.763V12.8922h-2.187l-6.5615 8.0576Zm18.7625-3.2231h-5.065v-4.8345h-2.762v12.8921h2.762v-5.5252h5.065v5.5252h2.763V12.8922h-2.763v4.8345Zm-23.0216 1.6114h-5.2949v2.4172h5.2949v-2.4172ZM14.1582 0v7.48201L20.374 0h-6.2158Zm10.5899 1.03622L14.1582 13.8132v2.4173c1.082-2.5247 2.6173-4.3741 5.6403-4.3741 2.8473 0 4.3543 2.6834 4.9496 5.0647V1.03622ZM19.5684 13.1222c-5.5252.2302-5.5252 10.2446 0 10.3597 5.5252-.2302 5.5252-10.2446 0-10.3597Zm0 8.6331c-3.3381 0-3.3381-7.0216 0-7.0216 3.3382 0 3.3382 7.0216 0 7.0216Zm-5.4102-2.1871v6.2158h10.5899v-6.2158c-.4287 2.5724-2.3701 4.9496-5.1798 4.9496-3.2635 0-4.2956-2.4172-5.4101-4.9496Zm-3.5683-7.5973L0 24.7479V8.86298c.180035.72013.358402 1.40742.690647 2.07192.847573 1.4833 2.411663 2.9928 4.258993 2.9928 1.79559 0 3.30485-.6462 4.3741-2.0719.46043-.6907.92086-1.4964 1.26616-2.30218v2.41728Zm-5.29491.6907c5.52521-.2303 5.52521-10.24465 0-10.35975-5.525184.23021-5.525184 10.24455 0 10.35975Zm0-8.74824c3.33813 0 3.33813 7.02154 0 7.02154s-3.33813-7.02154 0-7.02154Zm5.06471 1.72693c-.2302-.80576-.69064-1.61151-1.15107-2.30216-.95556-1.27409-2.41327-2.07194-4.02877-2.07194-1.92065 0-3.63764 1.17455-4.489213 2.87769C.345324 4.71942.115108 5.52518 0 6.21583V0h10.4748v6.21583c0-.21296-.1151-.33221-.1151-.57554Zm.2302 12.66151-6.21579 7.4821h8.74819v-1.8414h-2.5324v-5.6407ZM.575462 25.7842 21.7553 0h2.4173L2.87762 25.7842H.575462Zm25.323838-.1151v-1.7266c2.4172 0 4.4892 2.187 4.3741 4.6043 0 1.7266-1.036 3.4532-2.5324 4.259-1.9568.8057-4.1439.8057-6.2158.2302l-10.9353-2.6475c-5.98558-1.4964-8.74817-.4604-8.74817.9209H0c0-3.7986 5.41007-5.4101 11.3957-4.0288l10.8201 2.6475c1.1511.3453 2.3022.5755 3.4533.5755 1.2661-.1151 2.3021-1.1511 2.3021-2.4172.1151-1.2662-.9208-2.4173-2.0719-2.4173Z"/>
</svg>