<svg xmlns="http://www.w3.org/2000/svg" viewBox="0 0 170 25.4">
	<path fill="#005e9c" d="M84.3 5.4c-.1 1.2-.2 3.5-.2 6.4 0 2.5 0 5.7.2 8-.6-.1-1 0-1.6 0h-1.8c.2-2.4.2-4.7.2-7.1 0-.9 0-2-.1-2.8-2.8 3.2-5.5 6.6-8.1 9.9h-1.8l.2-7.1c0-2.7 0-5.2-.2-7.3l1.7.1 1.7-.1c-.2 2.2-.2 4.6-.2 7.2v2.8c2.9-3.2 5.8-6.5 8.2-10l1.6-.1c.1.1.2.1.2.1zM44 6.5l.1-1h-3.3l.2 1.4v3c0 3.1-1.8 3.1-2.9 3.1-1.8 0-2.8-1.7-2.8-4.8V6.4l.1-1-1.5.1-1.9-.1.1 4.2c.2 3.7 3.3 4.8 5 4.8 1.3 0 2.8-.4 3.7-.9V16l-.1 2.6-.1 1.3H44V11 6.5zm55.1.2l.1-1.3-1.6.1-1.8-.1.1 1.3.1 1.8v2.7l-1.3.1c-.5 0-1.1.1-1.8.1s-1.4 0-1.9-.1l-1.4-.1v-.9l.1-1.8V6.8l.1-1.3H88l-1.7-.1.1 1.3c0 .6.1 1.7.1 3.4v5.4l-.1 2.9v1.3H89.8l-.1-1.3c-.1-.9-.1-1.7-.1-2.6V13l1.3-.1h1.9l1.9.1H96v2.9l-.1 2.5-.1 1.4H99.2l-.1-1.5-.1-3V10c0-1.4.1-2.5.1-3.3zM53.4 5.4c-.6 0-1.6.1-3 .1h-2l-1.8-.1.1 1.1.1 1.8v8.6c0 .8 0 1.4-.1 2l-.2 1.1 1.8-.1h2.5l2.4.1 1.4.1v-1.9l-1.4.1c-.8.1-1.6.1-2.2.1h-1.2v-5H51c.9 0 1.6.1 2.2.1l1.3.1-.1-.9.1-1-1.2.1c-.7.1-1.5.1-2.3.1h-1.2V7h1.1l2.5.1 1.3.1V5.3c-.1 0-1.3.1-1.3.1zm9.5.1c-.3 0-.7 0-.9-.1-1.8 5-3.9 9.7-5.9 14.5.3-.1.6-.1 1-.1.3 0 .8.1 1 .1 1.1-3.5 2.5-7 4-10.5 1.3 3.5 2.7 7 3.8 10.5.5-.1 1.2-.1 1.8-.1.6 0 1.3 0 1.9.1-1.9-4.8-3.9-9.6-5.7-14.5-.3.1-.7.1-1 .1zm59 13c1.8 0 2.7-1 2.7-2.9 0-1.6-1.1-2.6-2.8-2.6l-.7.1v4l.1 1.3.7.1zm.4-6.9c2.3 0 5.6.9 5.6 4.1 0 2.1-1.3 3.7-3.3 4-.6.1-1.2.1-1.7.1H118l.1-1V6.5l-.1-1.1 1.4.1 2.8.1h3.3l1.5-.1-.1.8.1.8-1.6-.1c-.8 0-2.4-.1-3.3-.1h-1l.1.9v3.8h1.1zm34.1-4.9l.1-1.3-1.6.1-1.8-.1.1 1.3.1 1.7v2.7l-1.3.1c-.5 0-1.1.1-1.8.1s-1.3 0-1.9-.1l-1.4-.1v-.9l.1-1.8V6.7l.1-1.3-1.7.1-1.7-.1.1 1.3c0 .6.1 1.7.1 3.4v5.4l-.1 2.9v1.3h3.3l-.1-1.3c-.1-.9-.1-1.7-.1-2.6V13l1.3-.1h1.9l1.9.1 1.4.1V16l-.1 2.5-.1 1.4H156.6l-.1-1.5-.1-3V10.1c-.1-1.5-.1-2.6 0-3.4zm12.7 12l-1.5-2.1-2.2-3.2-1.2-1.9.8-.9 2-2.2 1.6-1.7 1.2-1.2-1.4.1-1.4-.2-.8 1.2c-.4.6-1 1.4-1.8 2.3l-1.3 1.6-1.3 1.4v-1.4l.1-2.4V6.5l.1-1.1-1.7.1-1.7-.1.1 1.1v12l-.1 1.2H162l-.1-1.3c-.1-.5-.1-1.2-.1-1.8v-3.4l.9 1.4 1.3 2c.6.9 1 1.6 1.3 2l.6 1.1h4.1l-.9-1zm-33.5-4.5l.7-.1-.3-.8-1-2.6-.5-1.2-.5 1.2-1 2.6-.3.8.7.1c.4 0 .8.1 1.2.1.3-.1.7-.1 1-.1zm5.7 4.1l.8 1.5h-3.7l-.4-1.4-.7-1.8-.3-.9-1.1-.1h-2.8l-1.1.1-.3.9-.6 1.8-.4 1.4h-2.2l.8-1.5c1.2-2.6 2.4-5.5 3.8-8.8l1-2.7.5-1.4.7.1.9-.1.5 1.4 1 2.6c1.1 3.4 2.4 6.3 3.6 8.9zm-34.2.2h4c-.6-2-1.5-4.4-2.6-7.4l-.7-1.8-.7 1.8c-1.3 3.4-2.2 5.8-2.6 7.3h.1c1 .1 1.8.1 2.5.1zm7.5-.2l1.8-.2-.2.9-.1 1s-4.4-.2-5.8-.3h-3.5l-5.8.3-.1-1-.2-.9 1.8.2 1.3-2.9c.7-1.5 1.3-3.2 2.1-5.2l1.3-3.4.5-1.3h2l.5 1.4 1.2 3.4 2 5.3c.4.8.8 1.8 1.2 2.7zM12.7 0C5.7 0 0 5.7 0 12.7c0 7 5.7 12.7 12.7 12.7 7 0 12.7-5.7 12.7-12.7 0-7-5.7-12.7-12.7-12.7zm1.4 24.6l1.8-4.3h-2.1c-1.1 0-1.5-.8-1.2-1.5l3-7.5s.3-.6-.2-.9c-.5-.3-.8.3-.8.3L9 19.5c-.2.3-.7.9-1.5.5s-.6-1.2-.5-1.4l2.9-6.9s.3-.7 0-1.2-.6-.5-1-.5H7.3l-2.1 5.1V7.5L11.4.3l-2 4.8h2.5c.4 0 .7.2.9.5.2.4.2.8 0 1.2l-3.1 7.5c-.1.3-.1.7.3.9.4.2.7-.1.8-.2l5.4-8.8c.4-.6.9-.9 1.6-.6.8.4.6 1.1.5 1.4l-2.8 6.9c-.6 1.4.5 1.6 1 1.6h1.3l2.1-5.1.2 7.7c0-.1-6 6.5-6 6.5z"/>
</svg>