<svg xmlns="http://www.w3.org/2000/svg" viewBox="0 0 180 20">
	<path fill="#C8AF64" d="m11.4075.785337.0099 2.479433v6.3855c.0097.61993.5493 1.14133 1.1573 1.14133.618 0 1.1477-.5313 1.1477-1.16102V4.54383c1.5105 1.26924 2.4718 3.16817 2.4718 5.30327 0 3.8273-3.1094 6.9463-6.92495 6.9463-3.78618-.0098-6.89554-3.119-6.89554-6.9463 0-2.09573.93183-3.97499 2.40314-5.24423v5.02771c0 .62972.51004 1.16102 1.1476 1.16102.62778 0 1.16722-.5313 1.16722-1.16102V.805013C3.02108 1.79875 0 5.46871 0 9.8471c0 5.1458 4.1687 9.3077 9.29865 9.3077 5.10055 0 9.27905-4.1619 9.27905-9.3077 0-4.40791-3.0702-8.10739-7.1702-9.061763ZM9.26925 10.7916c-.63762 0-1.15744-.5214-1.15744-1.15117V1.661c0-.63953.51982-1.161 1.15744-1.161h1.15745v9.14043c0 .62977-.52974 1.15117-1.15745 1.15117Zm0-8.77639c-.206 0-.37275-.1771-.37275-.38372 0-.21646.16675-.38372.37275-.38372.21578 0 .38253.16726.38253.38372 0 .20662-.16675.38372-.38253.38372Z"/>
	<path fill="#222" d="M28.2489 8.97214c.1177-.00984.2354-.01969.3531-.02946.1079 0 .2158-.00985.3237-.01969.0686-.00985.1373-.01969.206-.02954h.049v-5.7755h1.7362V16.135h-1.7362v-5.5197c-.0686.0098-.1373.0098-.1962.0197-.1569 0-.304.0098-.4511.0197h-.0099c-.0785 0-.1471.0098-.2256.0098-.0686.0098-.1471.0196-.2158.0295h-.0196c-.1961.0098-.3923.0197-.5983.0197-.1668.0098-.3433.0098-.51.0098-.9319 0-2.0599-.1082-2.874-.6002-.9024-.55096-1.0299-1.91858-1.0299-2.86314V3.11795h1.7361v3.86676c0 .4919.049 1.35777.5199 1.66276.4904.31483 1.3634.35421 1.9225.35421.1668 0 .3237 0 .4806-.00985.1863 0 .3629-.00984.5395-.01969Zm6.6994-.41321h5.6596v1.72187h-5.6596v4.1323h6.4148v1.7219h-8.1412V3.11795h7.9647v1.72182h-6.2383v3.71916Zm8.6414 5.85417c.9024-.0196 1.3046-.7379 1.5106-1.5349.2844-1.1511.4315-2.3416.4708-3.53216 0-.09838.0098-.2066.0098-.31483.0098-.09838.0098-.19683.0098-.29521l.0981-5.61805h7.0328V16.135h-1.7263V4.83977h-3.59l-.0981 4.26029c-.0098.41328-.0294.83633-.049 1.24954-.0197.4821-.0589.9544-.1276 1.4267-.1275 1.0429-.4119 2.0465-.8827 2.9911-.4905.9838-1.3242 1.4168-2.4032 1.4168-.1177 0-.2255-.0099-.3334-.0197-.108-.0098-.2257-.0197-.3335-.0295l-.1276-.0197v-1.7808l.157.0294c.0686.0099.1471.0197.2157.0296.0589.0098.108.0196.1668.0196Zm12.565-3.9651c-.4708-.2558-.8436-.6789-1.1378-1.12165-.4218-.6395-.5297-1.50537-.5297-2.26295v-.27552c.0392-.91501.3335-1.75132.8632-2.50893.667-.94455 1.9127-1.161 3.0014-1.161h4.7376V16.135h-1.7263v-5.0671h-2.2364L56.498 16.135h-2.1089l2.9328-5.2639c-.1275-.0197-.2648-.0591-.3923-.0885-.2747-.0689-.5297-.187-.7749-.3346Zm10.6617-5.60823v3.53218h3.1686c.9905 0 2.1577.17714 2.8152.99378.5003.62967.824 1.34797.9123 2.14487.0196.1378.029.2657.0391.4035 0 .1279.0095.2557.0095.3836 0 .2067-.0196.4133-.029.6101-.0196.2164-.0688.4329-.1275.6493-.1672.6887-.5394 1.2791-1.0397 1.7809-.6575.6592-1.6777.8068-2.5604.797h-4.9239V3.11795h7.9354v1.72182h-6.1996Zm10.3485 8.12703 5.5124-9.84885h1.6777V16.135h-1.7363V6.21724L77.1063 16.135h-1.6777V3.11795h1.7363v9.84885Zm11.1233-2.8238v5.992H86.562V3.11795h1.7262v5.30322h5.1395V3.11795h1.7363V16.135h-1.7363v-5.992h-5.1395Zm15.6158-.90518c.559.16723 1.02.54112 1.392.98388.511.6002.647 1.4464.647 2.2138 0 .8855-.147 1.9186-.813 2.5581-.501.4822-1.089.8265-1.766.9839-.245.0689-.5.1082-.765.1279-.225.0197-.451.0296-.677.0296h-4.698V3.11795h4.875c.794 0 1.736.12791 2.325.71824.441.44276.764.95439.902 1.56441.049.18694.088.38372.098.57066.02.1771.02.35421.02.53133 0 .68873-.138 1.37746-.579 1.92843-.265.33452-.588.61988-.971.8068h.01Zm5.737-.67889h5.65v1.72187h-5.65v4.1323h6.405v1.7219h-8.14V3.11795h7.964v1.72182h-6.229v3.71916Zm17.647 5.09667c-.304.7575-.795 1.397-1.404 1.9382-.784.6888-1.882.8855-2.893.8855-.127 0-.255-.0098-.373-.0295-.205-.0098-.411-.0393-.617-.059-.559-.0689-1.099-.2854-1.599-.5707-.785-.4329-1.383-1.1708-1.844-1.9382-.697-1.1316-.844-2.7353-.844-4.03404.01-.1673.01-.33452.02-.51166.01-.26568.029-.54113.039-.81665.049-.71826.196-1.42661.422-2.11537.304-.94455.824-1.77103 1.51-2.49911.844-.88551 2.06-1.15116 3.238-1.15116 1.049 0 2.236.18693 3.04.92486.598.56082 1.079 1.22988 1.324 2.02684.078.24597.137.50179.177.76744.039.23614.068.46244.088.69858l.01.15745h-1.766v-.12792c-.019-.1476-.029-.28536-.059-.42312-.02-.13769-.059-.2853-.098-.42306-.157-.51162-.47-.9347-.853-1.29875-.491-.46243-1.216-.5805-1.863-.5805-1.148 0-2.041.44275-2.59 1.47585-.628 1.16098-.814 2.52866-.814 3.82736 0 1.22996.274 2.40076.882 3.47316.579 1.0233 1.452 1.5153 2.619 1.5153.834 0 1.56-.246 2.089-.9052.491-.6101.776-1.3185.824-2.1056l.01-.1279h1.776l-.01.1574c-.02.2853-.069.5805-.128.8757-.078.3345-.186.669-.313.9938Zm4.805-8.81583h-3.501V3.11795h8.739v1.72182h-3.501V16.135h-1.737V4.83977Zm8.878 0v3.53218h3.168c.981 0 2.158.17714 2.815.99378.5.62967.814 1.34797.912 2.14487.02.1378.03.2657.039.4035v.3836c0 .2067-.009.4133-.029.6101-.019.2164-.059.4329-.118.6493-.166.6887-.539 1.2791-1.04 1.7809-.656.6592-1.677.8068-2.569.797h-4.915V3.11795h7.935v1.72182h-6.198Zm10.701 7.99913-1.02 3.2961h-1.844l4.169-13.01705h1.755l4.179 13.01705h-1.854l-1.03-3.2961h-4.355Zm10.24-2.6959v5.992h-1.726V3.11795h1.726v5.30322h5.14V3.11795h1.736V16.135h-1.736v-5.992h-5.14Zm10.976-1.466 4.649-5.55905h2.149l-5.258 6.03133L180 16.135h-2.256l-4.856-6.3659v6.3659h-1.726V3.11795h1.726V8.677Zm-111.5249.66904V4.83977h-2.8936c-.4904 0-1.0985.06888-1.4811.42308-.2746.26565-.5002.58051-.6081.95439-.0491.14758-.0785.30504-.0981.45257-.0196.13776-.0294.27552-.0294.41328 0 .58051.1569 1.11179.4904 1.58407.4022.5805 1.2751.67888 1.9225.67888h2.6974Zm5.4533.74776v4.3193h2.884c.5691 0 1.1281-.1279 1.6183-.4427.5395-.3542.6474-1.0528.6474-1.653 0-.4723-.0681-1.0822-.3925-1.4561-.2353-.2756-.5293-.5018-.8725-.6199h-.0101c-.1666-.0689-.3432-.1082-.5293-.1279-.1572-.0099-.3143-.0197-.4613-.0197h-2.884Zm32.1338.1476v4.1717H102.07c.519-.0196 1-.1673 1.451-.4427.54-.3345.627-1.0922.627-1.6727 0-.5608-.107-1.1905-.568-1.5644-.471-.4034-1.177-.4919-1.775-.4919h-2.8548Zm0-5.40163v3.67978h2.7658c.501 0 1.148-.06884 1.481-.48212.275-.32468.442-.69858.471-1.12163v-.00985h.01c0-.03931.01-.06884.01-.10822v-.12792c0-.11807-.01-.24596-.02-.36402-.019-.14759-.059-.29517-.108-.42308v-.00984c-.098-.28533-.294-.52146-.53-.70841-.323-.27549-.863-.32469-1.265-.32469h-2.8148Zm42.0208 5.25403v4.3193h2.873c.579 0 1.139-.1279 1.629-.4427.539-.3542.647-1.0528.647-1.653 0-.4723-.069-1.0822-.392-1.4561-.246-.2756-.53-.5018-.883-.6199-.166-.0689-.353-.1082-.53-.1279-.156-.0099-.313-.0197-.471-.0197h-2.873Zm11.182 1.0233h3.393l-1.696-5.63779-1.697 5.63779Z"/>
</svg>