<svg xmlns="http://www.w3.org/2000/svg" viewBox="0 0 190 26">
	<path fill="#0AE15F" d="M60.8955 4.45312V22.458h12.317c2.5895 0 4.688-2.0987 4.688-4.6882V4.45312h-17.005Z"/>
	<path fill="#000" d="M22.5849 25.0528h2.9767v-7.4353H22.837V0h-5.5212v17.6175H6.512c-.54491 0-.99076-.4413-.99076-.9907V0H0v18.5993c0 2.1301 1.72933 3.8595 3.86397 3.864H21.2744l1.3105 2.5895ZM143.029 10.5602c1.577 0 2.882.5405 3.927 1.6213 1.046 1.0808 1.568 2.4904 1.568 4.2243 0 1.8553-.585 3.3595-1.756 4.5214-1.171 1.1619-2.64 1.7429-4.405 1.7429-1.824 0-3.333-.6305-4.522-1.887s-1.796-3.0984-1.81-5.5257c0-1.6933.171-3.1435.518-4.3594.347-1.21143.811-2.18869 1.392-2.92275.581-.73407 1.355-1.31501 2.319-1.74284.964-.42783 1.963-.71155 2.999-.86016 1.036-.14862 2.284-.22067 3.742-.22067v2.35981c-1.175 0-2.17.04503-2.98.1306-.811.09007-1.563.2477-2.262.47286-.698.22969-1.256.55393-1.675.97276-.418.41882-.756.95469-1.013 1.61229-.256.6529-.424 1.4545-.495 2.3958.427-.8107 1.04-1.4321 1.842-1.8779.801-.4369 1.67-.6576 2.611-.6576Zm-3.431 8.8583c.698.7296 1.585 1.0944 2.657 1.0944s1.972-.3648 2.693-1.0944c.721-.7295 1.081-1.6887 1.081-2.8777 0-1.1484-.347-2.0761-1.036-2.7787-.694-.7069-1.558-1.0582-2.603-1.0582-1.058 0-1.963.3558-2.715 1.0718-.753.7116-1.126 1.6348-1.126 2.7696.004 1.1845.351 2.1482 1.049 2.8732Zm20.121-9.1458h2.49v12.1368h-2.495v-2.0311c-.972 1.5311-2.382 2.2967-4.237 2.2967-1.635 0-2.977-.59-4.027-1.7743-1.053-1.1844-1.576-2.7021-1.576-4.5575 0-1.8374.532-3.3551 1.59-4.544 1.058-1.1934 2.391-1.7879 3.994-1.7879 1.856 0 3.275.7792 4.261 2.3373v-2.076Zm-3.711 10.0202c1.073 0 1.964-.3694 2.671-1.1034.707-.7341 1.058-1.6843 1.058-2.8462 0-1.1484-.351-2.0942-1.058-2.8372-.707-.7431-1.594-1.1123-2.671-1.1123-1.058 0-1.927.3692-2.603 1.1033-.675.7341-1.013 1.6843-1.013 2.8462 0 1.1619.338 2.1121 1.013 2.8462.676.734 1.54 1.1034 2.603 1.1034Zm20.103-10.0211h-2.494v4.7692h-6.445v-4.7692h-2.494v12.1368h2.494v-5.0078h6.445v5.0078h2.494V10.2718ZM190 22.4086h-3.22l-5.714-5.6067v5.6067h-2.496V10.2718h2.496v5.2511l5.251-5.2511h3.197l-5.936 5.76L190 22.4086Zm-161.4529.0502V0h5.5212v14.7848L46.9708 0h5.251v22.4588h-5.5212V7.70992L33.7666 22.4588h-5.2195Zm70.0699-7.3046c2.792 0 4.814-1.4816 4.814-4.8143V4.8142C103.431 1.71582 101.716 0 98.617 0H81.3777v22.4633h5.5212v-7.3091H98.617ZM96.5949 4.85023c1.0448 0 1.315.47287 1.315 1.41408v2.79216c0 .81062-.3737 1.24743-1.315 1.24743h-9.696V4.85023h9.696ZM123.422 22.4588l-1.955-3.873h-12.222l-1.954 3.873h-5.895L113.086 0h4.883l11.483 22.4588h-6.03Zm-8.079-16.87-4.107 8.3539h8.182l-4.075-8.3539Zm-37.4375-.73857H62.5487c-.6935 0-1.2564.55843-1.2564 1.25197v4.2017h9.9707v4.8458h-9.9662v7.3091h-5.5213V4.33683C55.7755 1.94099 57.7165 0 60.1123 0h17.7932v4.85023Z"/>
</svg>