<svg xmlns="http://www.w3.org/2000/svg" viewBox="0 0 190 32">
	<path fill="#072638" d="M63.9671 12.7437c-.9237-.4635-2.0217-.6724-3.2567-.6724-1.235 0-2.3141.2319-3.2567.6724-.4174.2097-.7963.4542-1.1344.7344-.23.1907-.4412.3982-.6323.6216-.1488.174-.2857.3581-.4104.5518-.5207.8093-.7715 1.7745-.7715 2.8536 0 1.0792.2508 2.0444.7715 2.8537.5206.8097 1.235 1.4443 2.1771 1.9078.9237.4634 2.0217.6724 3.2567.6724 1.235 0 2.333-.2316 3.2567-.6724.9232-.4635 1.6565-1.0981 2.1772-1.9078.5206-.8093.7904-1.7745.7904-2.8537 0-1.0791-.2698-2.0443-.7904-2.8536-.5207-.8094-1.254-1.4439-2.1772-1.9078Zm-.3648 6.3003c-.1336.2108-.2906.3971-.4757.56-.1889.1659-.4075.3073-.6606.4245-.174.0802-.357.1462-.5499.1986-.3637.0983-.7626.1469-1.202.1469-.3507 0-.6768-.0308-.9767-.0935-.2746-.0575-.5269-.1414-.7559-.252-.2427-.112-.4531-.2464-.6364-.4033-.1959-.1678-.3607-.3615-.4999-.5812-.1306-.2059-.2293-.4334-.2961-.6817-.0712-.2642-.1065-.5514-.1065-.8609 0-.6004.1329-1.098.4026-1.5426.0286-.0453.0587-.0894.0898-.1325.0527-.0723.1088-.1417.1685-.2078l.0501-.0538c.1455-.1521.3102-.2868.4932-.4045.1054-.0675.2171-.1295.3347-.1859.5014-.2315 1.0791-.3455 1.7326-.3455s1.2732.114 1.7519.3455c.5014.2319.8665.5589 1.1363.9845.1317.2078.2308.4379.2976.6887.0702.262.105.547.105.8539-.0189.5967-.1328 1.1174-.4026 1.5426Zm-20.8314-6.7601h9.2642v7.9001h1.7939v4.6624h-2.6982v-2.1011h-8.7855v2.1011h-2.6978V20.184h1.5997c.5815-.5967 2.0254-2.618 1.5237-7.9001Zm6.3764 7.938v-5.415h-3.6782s.4026 3.4126-1.0034 5.415h4.6816Zm99.9807-3.4998c-.559-.2697-1.292-.4026-2.178-.4026h-3.72l.019-1.7935h6.958v-2.1964h-9.865v10.465h6.589c.207 0 .405-.0085.597-.026.148-.0133.29-.0319.429-.0556.211-.0364.412-.0846.603-.1451.106-.0338.21-.0713.31-.1128.049-.0201.097-.0412.144-.0631.577-.2702 1.022-.6349 1.33-1.1363.307-.4828.463-1.0602.463-1.7137 0-.6538-.133-1.2123-.425-1.714-.27-.4446-.696-.8283-1.254-1.0981v-.0078Zm-1.562 3.6404c-.055.0468-.114.0887-.176.1258-.071.0419-.147.0776-.229.1069-.174.062-.372.0942-.598.0942h-3.371l.019-2.3901h3.352c.087 0 .17.004.249.0122.05.0052.098.0119.144.02.036.0067.072.0145.107.023.194.049.361.1318.503.2524.146.1243.246.275.304.4549.022.0694.038.1429.048.2212.008.0664.013.1362.013.2093 0 .3841-.114.6539-.365.8665v.0037ZM190 22.7946l-4.819-5.5136 4.298-4.9325h-3.332l-5.495 6.3423v-6.3423h-2.869v10.4461h2.599l3.01-3.4504 3.063 3.4504H190Zm-39.083.0189 4.762-10.465h3.788l4.762 10.465h-3.082l-.867-2.0027h-5.415l-.866 2.0027h-3.082Zm6.669-8.2875-1.694 3.9328h3.389l-1.695-3.9328Zm15.88 1.6796h-5.358v-3.8571h-2.872v10.4461h2.872v-4.0281h5.358v4.0281h2.892V12.3485h-2.892v3.8571ZM67.2616 20.1235s1.7174.4824 2.5839-.6538l.0037-.0037c.9236-1.2161 1.1552-3.1806 1.1552-4.7615.0193-1.3678.0193-2.428.0193-2.428h9.0171v10.4651h-2.8919v-7.8812h-3.45s.1517 7.9988-4.5106 7.9988c-1.1934 0-1.9267-.3455-1.9267-.3455v-2.3902Zm17.5595-.2471v-7.5925h-2.8347v10.4614h3.663l5.2212-7.7253v7.7253h2.873V12.2839h-3.7774l-5.1451 7.5925Zm13.7559-3.7202h5.339v-3.8723h2.892v10.4614h-2.892v-4.0282h-5.339v4.0282h-2.8878V12.2839h2.8878v3.8723Zm35.537 6.5891-4.837-5.5289 4.298-4.9325h-3.337l-5.491 6.3575v-6.3575h-2.869v10.4614h2.599l3.025-3.4693 3.048 3.4693h3.564ZM114.4 14.5754c-.654 0-1.212.1139-1.695.3458-.482.232-.847.5585-1.079.9842-.157.2787-.268.5874-.329.9307-.036.2041-.055.4204-.055.6501 0 .6156.133 1.1363.384 1.5808.251.4446.597.7905 1.079 1.022.483.2319 1.041.3459 1.695.3459.32 0 .614-.023.886-.0698.221-.0382.427-.092.619-.1618.444-.1558.79-.4067 1.06-.7147.194-.2316.349-.5013.444-.8093h2.949c-.152.7714-.44 1.4669-.904 2.0636-.521.6954-1.216 1.235-2.083 1.6187-.866.3837-1.85.5774-2.967.5774-1.235 0-2.292-.209-3.2-.6724-.908-.4635-1.619-1.0981-2.12-1.9078-.502-.8093-.753-1.7745-.753-2.8537 0-1.0791.251-2.0443.753-2.8536.501-.8094 1.216-1.4439 2.12-1.9078.927-.4405 1.988-.6724 3.2-.6724 1.117 0 2.101.1937 2.967.5774.848.3841 1.562.9236 2.083 1.6191.46.6004.771 1.2917.904 2.0632h-2.949c-.051-.1603-.117-.3054-.196-.4401-.072-.1239-.155-.2394-.248-.3503-.27-.3117-.635-.5396-1.06-.7144-.445-.1747-.946-.2508-1.505-.2508Z"/>
	<path fill="#3ADCC9" d="M18.3716.507774c-.5738-.083599-.969.524396-.646.991786 1.8809 2.71696 2.9601 5.87091 2.9601 9.23764 0 8.8691-7.4745 16.2752-17.42651 18.0231-.361.0646-.54719-.3914-.2394-.5852C11.6191 22.8818 16.0536 14.7918 13.0364 9.24764c-1.6263-2.98296-5.10708-4.67393-9.44282-5.00832-.50919-.038-.90058.43319-.74478.90438.89298 2.69796 1.35277 5.5707 1.38697 8.5537.076 6.9349-2.25716 11.833-3.989934 14.5081-.668789 1.0298.106399 2.3636 1.367974 2.3636H12.7438c6.9843 0 10.7501-1.9152 13.8052-4.4269 2.8614-2.3522 5.1755-6.5131 5.1755-10.6893 0-7.58084-5.7949-13.86214-13.3529-14.945126Z"/>
</svg>