<svg xmlns="http://www.w3.org/2000/svg" viewBox="0 0 145 40">
	<path fill="#231F20" d="M42.0835 21.0485V10.5254h6.012v1.4268h-4.5084v2.7061h3.4565v1.427h-3.4565v3.5453h4.6591v1.4297l-6.1627-.0118Zm9.4094-1.1274h1.7724c.5703 0 .8273-.1064.9928-.2955.1639-.1814.2547-.4172.2541-.6618-.003-.2384-.0934-.4677-.2541-.6438-.1655-.1802-.4225-.2955-.9928-.2955h-1.7724v1.8966Zm1.2025-3.0075c.5581 0 .7827-.1034.9481-.2689.3422-.3519.3422-.9123 0-1.2642-.1654-.1655-.39-.2689-.9481-.2689h-1.2025v1.802h1.2025Zm.3306-2.9307c.8125 0 1.2793.195 1.6398.5112.4139.3596.6544.8787.6618 1.4271-.0065.4703-.1888.9215-.5111 1.2642.6857.3224 1.121 1.0149 1.1136 1.7725.0056.546-.2071 1.0713-.5907 1.4595-.3752.3901-.9159.6471-1.8052.6471h-3.4563v-7.0816h2.9481Zm8.1945 5.8638c-.7688-.0148-1.4864-.3873-1.9408-1.0075v-2.647c.4792-.6299 1.2232-1.0022 2.0147-1.0075.026 0 .052.0003.078.0011 1.2492.0376 2.2313 1.0805 2.1938 2.33.0003.0187.0003.0376 0 .0565-.0198 1.2758-1.0699 2.2939-2.3457 2.2744Zm-3.3676 4.8095h1.4268l.0029-4.2248c.5933.5103 1.3538.7839 2.1359.7682.621-.0006 1.2318-.1616 1.7727-.4668.5138-.315.9449-.7484 1.2572-1.264 1.0796-1.784.5088-4.1054-1.2749-5.185-1.2578-.7115-2.8237-.5741-3.9382.3457v-.6471h-1.3824v10.6738Zm14.2658-8.4637c-.4772-.6305-1.2211-1.0031-2.0118-1.0075-1.2498-.0053-2.2673 1.0033-2.273 2.2531 0 .026.0003.052.0012.0777-.0118 1.2761 1.0131 2.3197 2.2892 2.3312.0187.0003.0376.0003.0565 0 .7679-.0142 1.4849-.387 1.9379-1.0075v-2.647Zm.0473 4.2097c-.6037.5253-1.3801.8093-2.1802.7977-.6211-.0006-1.2318-.1616-1.7728-.4668-1.1304-.6751-1.8168-1.9004-1.802-3.2173-.0092-1.3227.6819-2.5521 1.8168-3.2317.5259-.3043 1.1239-.4606 1.7314-.452.8092-.0124 1.5949.2712 2.2097.7977v-.6471h1.3913v7.0665h-1.3824l-.0118-.647Zm2.975-.6464c.8166.9378 2.0065 1.4667 3.2498 1.4445 1.6513 0 2.9306-.8893 2.9158-2.4136-.0115-.6181-.3335-1.1889-.8568-1.5187.3587-.3646.5584-.8562.5555-1.3676 0-1.3618-1.3086-2.068-2.6293-2.068-1.0294-.0269-2.0283.3507-2.7829 1.0516l.7534.9632c.5427-.45 1.2187-.7085 1.9231-.7357.6618 0 1.2941.2836 1.2941.9307.0059.2145-.0963.4175-.2718.5407-.2532.1515-.5493.2148-.8421.1802h-1.0075v1.2052h.9928c.585 0 .9159.0738 1.1434.2688.1696.1608.2668.3838.2686.6175 0 .6767-.6143 1.0664-1.4563 1.0664-.8838-.0006-1.73-.3584-2.3457-.9925l-.9041.8273Zm8.1682-5.7733h1.4268v4.7268l4.1184-4.7268h.9779v7.0665h-1.427v-4.7267l-4.1211 4.7267h-.975v-7.0665Zm12.2745-1.1322c1.1624.0438 2.1403-.8633 2.1838-2.0259H96.565c.002.0345.002.0688 0 .1034-.0284.4984-.4556.8793-.9541.8509-.4984-.0287-.8796-.4559-.8509-.9543h-1.2022c.041 1.1014.9245 1.9849 2.0259 2.0259Zm-1.8605 1.1322h-1.427v7.0665h.9779l4.1181-4.7267v4.7267h1.4271v-7.0665h-.975l-4.1211 4.7268v-4.7268Zm13.9538 5.5628c-.71 1.037-1.887 1.6563-3.143 1.6543-2.181 0-3.773-1.5805-3.773-3.6838-.053-1.9817 1.51-3.6312 3.492-3.6844.069-.0021.138-.0018.207.0003 1.172.0024 2.278.5478 2.992 1.4773l-1.007.8418c-.496-.5874-1.217-.9375-1.985-.963-1.235-.0206-2.253.9635-2.274 2.1986 0 .044 0 .0883.002.1323-.032 1.256.961 2.2996 2.217 2.3312.043.0012.086.0009.129-.0003.845-.0213 1.634-.4325 2.135-1.1139l1.008.8096Zm6.614 1.5037h1.908l-3.938-3.8938 3.486-3.1727h-1.956l-3.007 2.7061v-2.7061h-1.427v7.0665h1.427v-3.4595l3.507 3.4595Zm3.158-7.0665h1.427v4.7268l4.121-4.7268h.975v7.0665h-1.427v-4.7267l-4.118 4.7267h-.978v-7.0665Zm12.28-1.1322c1.163.0438 2.141-.8633 2.184-2.0259h-1.202c.004.0484.004.0975 0 .1459-.04.4979-.477.8684-.974.8282-.498-.0405-.868-.4766-.828-.9741h-1.205c.041 1.1014.924 1.9849 2.025 2.0259Zm-1.86 1.1322h-1.427v7.0665h.978l4.118-4.7267v4.7267h1.43v-7.0665h-.978l-4.121 4.7268v-4.7268ZM43.5864 34.8864v3.5452h1.9526c.9485 0 1.3976-.2098 1.7285-.5407.3173-.3356.491-.7818.4842-1.2439 0-.4547-.1781-.8917-.496-1.217-.331-.3309-.78-.5436-1.7285-.5436h-1.9408Zm-1.5036-5.56h6.1624v1.4271h-4.6588v2.7061h2.254c1.0666 0 1.7725.2568 2.2984.7059 1.3748 1.154 1.5535 3.2039.3997 4.5784-.1214.1445-.2549.2783-.3997.3995-.5407.4491-1.2318.7061-2.2984.7061h-3.7576V29.3264Zm12.13 4.6584c.7919.0041 1.5367.3764 2.0148 1.0075v2.647c-.453.6204-1.17.9933-1.9379 1.0075-.0189.0003-.0379.0003-.0565 0-1.2761-.0115-2.301-1.0551-2.2892-2.3312-.0009-.0248-.0012-.0496-.0012-.0747.0039-1.2498 1.0202-2.26 2.27-2.2561Zm-.1181 6.0149c.8001.0115 1.5765-.2724 2.1801-.7977l.003.647h1.3825v-7.0665h-1.3825v.6471c-.6148-.5265-1.4008-.8102-2.2097-.7978-.6075-.0085-1.2055.1478-1.7314.4521-1.1349.6796-1.826 1.909-1.8168 3.2317-.0148 1.3169.6716 2.5422 1.802 3.2173.541.3052 1.1517.4659 1.7728.4668Zm6.0274-7.2167h1.4298v2.5998h3.7431V32.783h1.4271v7.0665H65.295v-3.1874h-3.7431v3.1874h-1.4298V32.783Zm13.9964 7.0665h1.9114l-3.9557-3.8938 3.5036-3.1727h-1.9556l-3.0046 2.7061V32.783h-1.4297v7.0665h1.4297V36.39l3.5009 3.4595Zm8.361-6.0888h2.4048c.7209 0 1.1138-.1802 1.3827-.4668.5629-.5744.5629-1.4936 0-2.068-.2689-.2954-.6618-.4668-1.3827-.4668h-2.4048v3.0016Zm-1.5036 6.0888V29.3264h3.9999c1.0223 0 1.6839.2541 2.195.6911 1.2368 1.0492 1.389 2.9023.3398 4.1391-.1037.1223-.2175.2361-.3398.3398-.5111.4373-1.1815.6911-2.195.6911h-2.4815v4.662h-1.5184Zm11.5156-5.8647c.7915.0053 1.5355.3775 2.0147 1.0075v2.647c-.4532.6202-1.17.9927-1.9379 1.0075l-.0188.0002h-.0214l-.0163-.0002c-1.276-.0115-2.301-1.0551-2.2892-2.3312l-.0006-.02-.0003-.0144-.0001-.0088-.0002-.0315c.0039-1.2498 1.0203-2.26 2.2701-2.2561Zm-.1212 6.0149c.8001.0115 1.5766-.2724 2.1802-.7977v.647h1.3854v-7.0665h-1.3854v.6471c-.6143-.5274-1.4005-.8111-2.2097-.7978-.6066-.0085-1.2037.1478-1.7285.4521-1.136.679-1.8283 1.9084-1.8197 3.2317-.0136 1.3175.6739 2.5425 1.805 3.2173.5409.3052 1.1517.4659 1.7727.4668Zm8.4047.0006c-1.2373.0177-2.4198-.5108-3.232-1.4445l.9012-.8273c.6163.6332 1.4619.991 2.3458.9925.842 0 1.459-.3897 1.459-1.0663-.003-.2343-.101-.4571-.271-.6175-.225-.195-.556-.2689-1.141-.2689h-.9926v-1.2052h1.0076c.293.0346.589-.0286.842-.1802.175-.1235.276-.3268.269-.5407 0-.6471-.63-.9307-1.291-.9307-.7056.0281-1.3822.2863-1.9265.7357l-.7504-.9632c.7528-.7014 1.7512-1.0793 2.7799-1.0515 1.323 0 2.632.7061 2.632 2.0679.002.5117-.198 1.0036-.558 1.3677.525.3285.848.8996.86 1.5186 0 1.5243-1.28 2.4136-2.934 2.4136Zm8.115-1.2801h-1.758v-1.8966h1.758c.573 0 .827.1152.993.2955.163.1749.254.4047.257.6438.001.2452-.091.4816-.257.6618-.166.1891-.42.2955-.993.2955Zm.369-3.2764c-.165.1655-.39.2689-.945.2689h-1.182v-1.802h1.182c.555 0 .78.1034.945.2688.343.3519.343.9124 0 1.2643Zm1.034-2.1506c-.363-.3162-.827-.5112-1.639-.5112h-2.963v7.0816h3.471c.886 0 1.427-.2571 1.802-.6471.385-.3876.598-.9135.591-1.4595.007-.7576-.428-1.4502-1.114-1.7725.323-.3427.505-.7939.511-1.2643-.006-.5481-.245-1.0672-.659-1.427Zm3.185-.5102h1.43v4.7268l4.119-4.7268h.978v7.0665h-1.428v-4.7267l-4.135 4.7267h-.978l.014-7.0665Zm8.148 1.2791h2.364l-.006 5.7874h1.426v-5.7874h2.364v-1.2794h-6.148v1.2794Zm7.777-1.2791h1.426v4.7268l4.122-4.7268h.975v7.0665h-1.427v-4.7267l-4.118 4.7267h-.978V32.783Zm13.228 1.2022v1.9498l-1.773.0059c-.617 0-.889-.1359-1.069-.3605-.28-.364-.28-.8707 0-1.2347.183-.2246.452-.3605 1.069-.3605h1.773Zm-2.827 3.0962-2.133 2.7681h1.701l2.03-2.7061h1.232v2.7061h1.427v-7.0668h-3.46c-.842 0-1.353.195-1.728.5259-.077.0671-.149.1392-.216.2163-.795.9136-.698 2.2984.216 3.0926.264.2337.585.3938.931.4639Z"/>
	<path fill="url(#a)" d="M0 15.7867c0 8.7192 7.06827 15.7875 15.7876 15.7875-5.5777-.338-7.89382-3.1573-7.89382-6.3148 0-3.1573 2.65262-6.3149 7.89382-9.4727H0Z"/>
	<path fill="url(#b)" d="M23.6801 6.31567c0 3.15727-2.6523 6.31483-7.8935 9.47243h15.7876c0-8.71931-7.0683-15.7872827-15.7876-15.7872827C21.364.338527 23.6801 3.15809 23.6801 6.31567Z"/>
	<path fill="url(#c)" d="M0 15.7871h15.7876c5.2411-3.1573 7.8935-6.31484 7.8935-9.47212 0-3.15757-2.6524-6.31484744-7.8935-6.31484744C7.06827.00013256 0 7.06811 0 15.7871Z"/>
	<path fill="url(#d)" d="M15.7876 15.7869c-5.2412 3.1576-7.8938 6.3152-7.8938 9.4725 0 3.1575 2.6526 6.3148 7.8938 6.3148 8.7193 0 15.7875-7.0683 15.7875-15.7873H15.7876Z"/>
  	<radialGradient id="a" cx="0" cy="0" r="1" gradientTransform="rotate(-45 26.95022404 -11.1637483) scale(15.6589)" gradientUnits="userSpaceOnUse">
  		<stop stop-color="#99D98C"/>
  		<stop offset=".0584617" stop-color="#99D98C"/>
  		<stop offset=".65" stop-color="#CCEBB5"/>
  		<stop offset=".751153" stop-color="#CCEBB5"/>
  		<stop offset=".99879" stop-color="#fff" stop-opacity="0"/>
  	</radialGradient>
  	<radialGradient id="b" cx="0" cy="0" r="1" gradientTransform="rotate(-45 26.95122257 -11.16206191) scale(15.6589)" gradientUnits="userSpaceOnUse">
  		<stop stop-color="#99DEF9"/>
  		<stop offset=".65" stop-color="#CCEFFC"/>
  		<stop offset=".6942" stop-color="#CCEFFC"/>
  		<stop offset="1" stop-color="#fff" stop-opacity="0"/>
  	</radialGradient>
  	<radialGradient id="c" cx="0" cy="0" r="1" gradientTransform="translate(15.7875 15.7874) scale(15.7875)" gradientUnits="userSpaceOnUse">
  		<stop stop-color="#4DC6F4"/>
  		<stop offset=".485427" stop-color="#4DC6F4"/>
  		<stop offset="1" stop-color="#99DEF9"/>
  	</radialGradient>
  	<radialGradient id="d" cx="0" cy="0" r="1" gradientTransform="translate(15.7876 15.7869) scale(15.7875)" gradientUnits="userSpaceOnUse">
  		<stop stop-color="#4DBD38"/>
  		<stop offset=".485427" stop-color="#4DBD38"/>
  		<stop offset="1" stop-color="#9CDA8E"/>
  	</radialGradient>
</svg>