<svg xmlns="http://www.w3.org/2000/svg" viewBox="0 0 150 45">
	<path fill="#FFDB00" d="M71.8418 44.6899c0 .131-.1159.2468-.2469.2468H.246836C.115684 44.9367 0 44.8207 0 44.6899V.246835C0 .115841.115931 0 .246836 0H71.5949c.1308 0 .2469.115639.2469.246835V44.6899Z"/>
	<path fill="#444" d="M150 44.6835c0 .1342-.119.2532-.253.2532H75.2532c-.1342 0-.2532-.119-.2532-.2532V.253165C75 .118861 75.119 0 75.2532 0h74.4938c.134 0 .253.118861.253.253165V44.6835Z"/>
	<path fill="#fff" d="M132.282 23.2661c0-.2258.078-.2563.234-.0918l6.554 6.8767c.276.2867.609.3943 1 .3227l1.405-.2563c.394-.0718.451-.2513.171-.538l-7.383-7.595c-.058-.0582-.056-.1554.003-.212l6.956-6.7532c.269-.2637.216-.4071-.162-.4303-.667-.0401-1.316-.0528-1.949-.038-.264.0063-.491.1023-.681.288l-6 5.8829c-.053.0503-.15.0174-.148-.0601v-6.0254c0-.0506-.027-.0759-.079-.0759l-1.981-.0032c-.055 0-.083.0274-.083.0823v15.3007c0 .0823.04.1234.121.1234h1.863c.106 0 .159-.0528.159-.1582v-6.6393Zm-37.1427 3.1422c.3164-2.1814-.4579-3.6762-2.3228-4.4842-.1351-.059-.1392-.1255-.0127-.1994 1.3608-.7953 1.9345-2.0875 1.7216-3.8765-.2595-2.1931-2.1203-3.2247-4.1709-3.2659-1.6035-.0337-3.1605-.04-4.6709-.019-.1098.0022-.1646.057-.1646.1646v15.1678c0 .0902.0802.1708.1709.1708 1.3839 0 2.8481-.0022 4.3924-.0063 2.3671-.0063 4.6772-1.0538 5.057-3.6519Zm-7.4842-5.3893.0063-4.6455c0-.0842.0743-.1583.1583-.1583l1.5569.0032c1.4542.0021 3.0159.9357 3.0159 2.5317-.0016 1.5337-1.643 2.4324-3.0222 2.4303l-1.557-.0031c-.0839 0-.1582-.0741-.1582-.1583Zm.0063 7.2343v-5.3229c0-.0736.065-.1392.1393-.1392h1.7595c1.6193 0 3.4747 1.0239 3.4747 2.8323 0 1.7756-1.907 2.769-3.4747 2.769h-1.7595c-.0741 0-.1393-.0652-.1393-.1392Zm13.7436-3.1518h5.737c.083.0001.162.055.19.1329l1.867 5.0695c.033.0907.134.1475.228.1298l1.861-.3481c.123-.0227.197-.1557.152-.2722l-5.968-15.1297c-.03-.0766-.108-.13-.19-.1297h-1.972c-.08.0004-.156.0521-.187.1266l-5.99 15.1043c-.0494.1296.0475.274.1867.2753l1.9304.0095c.0831 0 .1614-.0552.1898-.1329l1.7751-4.7056c.03-.0767.108-.1301.19-.1297Zm.582-1.8165 2.184-5.5538c.032-.086.157-.0861.19 0l2.202 5.5443c.027.0658-.024.14-.095.1392l-4.386.0095c-.07.0008-.122-.0727-.095-.1392Zm22.216 2.4782V14.6429c0-.0467.038-.0854.085-.0854h1.902c.042 0 .079.0371.079.0791v15.269c0 .0827-.074.155-.158.155l-1.345.0032c-.331 0-.595-.3908-.763-.6298-2.592-3.7173-5.129-7.3354-7.607-10.8544-.169-.2384-.253-.212-.253.0791v11.326c0 .0418-.038.0791-.08.0791h-1.902c-.045 0-.085-.0399-.085-.0854V14.7189c0-.1076.055-.1614.165-.1614h1.746c.112 0 .2.0453.263.136l7.82 11.1108c.088.1266.133.1129.133-.0411Z"/>
	<path fill="#333" d="M22.3416 16.4138c2.0981-1.0982 4.076-.2849 5.9052.9208.3101.2068.4968.1266.5601-.2405l.1804-1.0411c.061-.3544-.0687-.6129-.3893-.7753-1.8122-.9262-3.6762-1.2215-5.5918-.8861-4.5031.7911-6.2848 4.9209-5.8322 9.0949.4303 3.9779 2.7942 6.7847 6.9461 6.8797 1.6772.0401 3.2258-.3554 4.6457-1.1868.3648-.2129.5148-.5484.4493-1.0063-.0085-.0588-.0411-.2826-.0981-.6707-.0696-.4684-.2997-.5697-.6899-.3038-1.4937 1.0188-3.424 1.8511-5.2057 1.3195-3.6836-1.0949-4.4778-5.3006-3.6044-8.6455.4093-1.5717 1.3175-2.7247 2.7246-3.4588ZM38.1613 30.338c6.7627.3038 8.9684-6.4336 7.0095-11.7943-1.2278-3.3608-4.6772-4.7564-8.0759-4.133-4.807.883-6.4368 5.9051-5.4906 10.2184.75 3.4209 3.1203 5.5538 6.557 5.7089Zm.4573-1.5886c-3.2915.0062-5.1354-3.5295-5.1408-6.4341-.0055-2.9049 1.8275-6.4463 5.1183-6.452 3.2914-.0057 5.1357 3.5289 5.1412 6.4341.0054 2.9054-1.8277 6.4458-5.1187 6.452ZM8.22777 16.3827l.00633 4.6455c0 .0857.07576.1614.16139.1614l4.73731.0127c.0755.0003.1449.0586.1583.1329l.2215 1.2532c.0173.0972-.0595.1894-.1582.1898l-4.96841.0032c-.08563 0-.16139.0758-.16139.1614l.01583 5.2911c0 .0852.07551.1614.16139.1614l6.29748-.0031c.0843 0 .1597.0732.1614.1582l.0158 1.3544c.0017.0891-.0723.1646-.1614.1646l-8.41455.0031c-.08588 0-.16139-.0762-.16139-.1614l.00316-15.193c0-.0856.07576-.1614.1614-.1614l8.09808.0032c.0857 0 .1614.0757.1614.1614l.0127 1.3449c0 .0856-.0758.1614-.1614.1614l-6.02534-.0063c-.08791 0-.16139.0735-.16139.1614ZM51.7595 18.408c.0655.0401.113.096.1424.1677 1.4073 3.4367 2.9304 7.1878 4.5696 11.2532.0581.1388.2009.2341.3513.2341l1.2278-.0031c.1795 0 .3029-.0823.3703-.2469l4.4842-11.0474c.1813-.4473.2902-.4304.3259.0506l.7943 10.9525c.0149.194.1181.2912.3102.2912l1.5569.0063c.1519 0 .2215-.075.2089-.2247l-1.2247-15.1329c-.0063-.081-.0814-.1491-.1646-.1487l-1.9746-.0032c-.1668 0-.2807.077-.3418.231l-4.7975 12.0317c-.0823.2025-.1636.2025-.2437 0l-4.7373-11.9431c-.0752-.1886-.2681-.32-.4715-.3196h-1.8228c-.1604 0-.2468.0791-.2595.2374l-1.212 15.1708c-.0041.0529.0199.0801.0728.0823l1.8196.0158c.0504.0019.0981-.0421.1013-.0949l.8544-11.5285c0-.0308.035-.045.0601-.0316Z"/>
</svg>