<svg xmlns="http://www.w3.org/2000/svg" viewBox="0 0 140 36">
	<path fill="#EE7C00" d="M17.439.449002 30.0554 7.72173c1.0311.59867 1.6076 1.60754 1.6076 2.80487v14.5565c0 1.1974-.5987 2.2062-1.6076 2.8049l-12.6053 7.2838c-1.031.5987-2.2062.5987-3.2372 0l-12.60536-7.317C.576496 27.2561 0 26.2472 0 25.061V10.5044c0-1.19731.576496-2.20618 1.60754-2.80485L14.2239.449002c1.0089-.598669 2.1841-.598669 3.2151 0Z"/>
	<path fill="#fff" d="m16.9624 5.63794 8.8359 5.11086c.7206.4102 1.1308 1.1308 1.1308 1.9512v10.1996c0 .8204-.4102 1.541-1.1308 1.9512l-8.8359 5.0887c-.7206.4102-1.541.4102-2.2616 0l-2.2838-1.3193c-.5987-.3104-.4102-.9867 0-1.1752 2.9046-1.6851 5.8314-3.3592 8.725-5.0443.765-.4324 1.031-.9313 1.0532-1.9401v-2.306c-.0443-.6541-.6763-1.1309-1.4412-.6763-4.4013 2.5721-8.8138 5.1219-13.21509 7.6607-.5765.3548-.7428.2439-1.153 0-1.58536-.9312-1.62971-1.3747-1.62971-3.0487 0-.3659.12195-.4768.35477-.6541 4.46785-2.5943 8.95783-5.1663 13.42573-7.7606.9091-.4767.6208-1.4412 0-1.6629l-1.9401-1.1087c-.6431-.388-1.2528-.5543-2.0954-.0222-2.8825 1.663-5.76495 3.3371-8.66961 5-.59867.3548-1.08647-.0221-1.08647-.5765V12.7c0-.8204.4102-1.541 1.13082-1.9512l8.83596-5.08869c.7095-.43237 1.5299-.43237 2.2505-.02217Z"/>
	<path fill="#575656" d="M44.3239 20.1599h3.4368c-.0117.0625-.0275.1221-.045.1883-.0323.1216-.0703.2652-.0991.488-.0998.266-.2439.521-.4324.7317-.2106.2439-.4545.3991-.7316.5211-.3326.1551-.765.1885-1.1309.1885-.4656 0-1.0754-.0334-1.4745-.2772-.2771-.1885-.5543-.3992-.7649-.6763l-.0009-.001c-.1216-.1548-.2433-.3097-.365-.4313-.2106-.2218-.4878-.3106-.7982-.3106h-3.0044c-.2439 0-.4213.0888-.6098.244-.1774.1552-.2772.3991-.2439.643.0332.6541.2772 1.2306.5876 1.785.3658.654.8869 1.1973 1.4745 1.6629.6763.5211 1.4412.9202 2.2394 1.2306.9424.3658 1.9956.4878 3.0045.4878 1.0421 0 2.0842-.122 3.0377-.5211.8314-.3326 1.5964-.7982 2.2727-1.4412.6097-.6098 1.1419-1.3193 1.4745-2.1175.3326-.7982.5432-1.6519.6097-2.5166.0887-1.2861.0887-2.5832 0-3.8692-.0554-.887-.2771-1.7185-.6097-2.5167-.3437-.7981-.8315-1.5077-1.4745-2.1175-.643-.6097-1.408-1.1086-2.2727-1.4412-.9535-.39908-1.9956-.55434-3.0377-.55434-1.0089 0-2.051.12191-3.0045.48784-.7982.2772-1.5631.6762-2.2394 1.2306-.5876.4656-1.1087 1.0199-1.4745 1.6629-.3104.5544-.5544 1.1419-.5876 1.7849-.0333.2439.0554.4546.2439.6431.1774.1552.3659.2438.6098.2438h3.0265c.3105 0 .5876-.0997.7983-.3104.1219-.1551.2439-.2771.3658-.4323.2107-.2771.4878-.4878.765-.6763.3991-.2439 1.0089-.2772 1.4745-.2772.3659 0 .7982.0333 1.1308.1885.2661.1219.5211.3104.7317.5211.1885.2106.3437.4545.4324.7317.0333.1552.0887.3326.1219.5211h-3.4368c-.2439 0-.4878.0886-.6762.2771-.1885.1885-.2772.3991-.2772.6762v2.3948c0 .2439.0887.4877.2772.6762.1884.1885.3991.2772.6762.2772Zm76.2971 3.6474.554 1.6297c.067.2107.189.3992.344.5543.211.2439.554.3104.887.3104h2.86c.244 0 .455-.0886.61-.2438.155-.1774.244-.3659.244-.6098 0-.1552-.055-.3105-.122-.4656l-4.945-14.3127c-.088-.2438-.21-.4545-.399-.643-.244-.27716-.587-.36583-.953-.36583h-3.681c-.366 0-.709.08867-.953.36583-.155.1441-.311.3658-.399.6098l-4.945 14.3127c-.044.1061-.095.2405-.114.3694-.005.0326-.008.0648-.008.0961 0 .2439.089.4546.244.6098.177.1552.366.2439.61.2439h2.86c.299 0 .643-.0665.887-.3104.144-.1553.266-.3104.333-.5211l.554-1.6297h5.532Zm-1.408-4.235h-2.672l1.353-3.9579 1.319 3.9579Zm16.208 5.7428V14.0179h3.626c.244 0 .488-.0886.676-.2771.189-.1885.277-.3991.277-.6763v-2.3947c0-.2438-.088-.4877-.277-.67624-.188-.18849-.399-.27716-.676-.27716h-12.195c-.244 0-.488.08867-.677.27716-.188.18854-.277.39904-.277.67624v2.3947c0 .244.089.4878.277.6763.189.1885.4.2771.677.2771h3.658v11.2972c0 .2439.089.4877.277.6762.189.1885.399.2772.677.2772h3.004c.244 0 .488-.0887.676-.2772.189-.1885.277-.399.277-.6762ZM98.7585 14.018v6.4412c0 .8649-.1219 1.7518-.4323 2.5499-.2772.7318-.6763 1.3858-1.2307 1.9291-.5543.5211-1.2306.9202-1.929 1.1641-.7982.2772-1.663.3991-2.5166.3991h-.3659c-.2771 0-.4878-.0887-.6763-.2772-.1885-.1884-.2771-.4323-.2771-.6762v-2.3947c0-.2771.0886-.4878.2771-.6763s.4324-.2772.6763-.2772c.3991 0 .9202-.0664 1.1973-.3658.3105-.3104.3326-.9202.3326-1.3193v-9.8116c0-.2771.0888-.4877.2772-.6762.1885-.18848.4324-.27715.6763-.27715h11.4186c.278 0 .488.08867.677.27715.188.1885.277.4324.277.6762v14.6786c0 .2771-.089.4878-.277.6762-.189.1885-.433.2772-.677.2772h-2.971c-.277 0-.488-.0887-.676-.2772-.188-.1884-.277-.4323-.277-.6762V14.018h-3.5035ZM79.08 14.0179h4.8116v11.2972c0 .2439.0887.4878.2771.6762.1885.1885.3991.2772.6763.2772h2.9823c.2439 0 .4878-.0887.6762-.2772.1885-.1884.2772-.399.2772-.6762V10.6366c0-.2439-.0887-.4878-.2772-.67627-.1884-.18849-.399-.27717-.6762-.27717h-12.683c-.2439 0-.4878.08868-.6762.27717-.1885.18847-.2772.39907-.2772.67627v14.6785c0 .2439.0887.4878.2772.6762.1884.1885.3991.2772.6762.2772h2.9823c.2439 0 .4878-.0887.6763-.2772.1885-.1884.2771-.399.2771-.6762V14.0179Zm-17.1064.0001v6.4412c0 .8649-.1219 1.7518-.4323 2.5499-.2772.7318-.6763 1.3858-1.2307 1.9291-.5543.5211-1.2306.9202-1.929 1.1641-.7982.2772-1.663.3991-2.5166.3991h-.3659c-.2771 0-.4878-.0887-.6763-.2772-.1884-.1884-.2771-.4323-.2771-.6762v-2.3947c0-.2771.0887-.4878.2771-.6763.1885-.1885.4324-.2772.6763-.2772.3991 0 .9202-.0664 1.1973-.3658.3105-.3104.3326-.9202.3326-1.3193v-9.8116c0-.2771.0887-.4877.2772-.6762.1885-.18848.4324-.27715.6763-.27715h11.4523c.2772 0 .4878.08867.6763.27715.1885.1885.2771.4324.2771.6762v14.6786c0 .2771-.0886.4878-.2771.6762-.1885.1885-.4324.2772-.6763.2772h-2.9823c-.2771 0-.4878-.0887-.6762-.2772-.1885-.1884-.2772-.4323-.2772-.6762V14.018h-3.5255Z"/>
</svg>