<svg xmlns="http://www.w3.org/2000/svg" viewBox="0 0 140 37">
	<path fill="#212121" d="M51.1524 6.58178c.494.24031 1.028.36047 1.6288.36047.6809 0 1.2816-.14686 1.829-.45392.5474-.29371.9612-.70758 1.2816-1.24159.3071-.52067.454-1.12144.454-1.77562 0-.65417-.1469-1.25494-.454-1.78896-.3204-.52067-.7342-.934534-1.2816-1.241594C54.0628.146855 53.4621 0 52.7812 0c-.6008 0-1.1348.120154-1.6288.347112s-.8945.54737-1.2015.961238c-.3204.41386-.5207.89448-.6008 1.4285h1.3217c.1202-.46727.3605-.84108.7343-1.12144.3738-.26701.8411-.41387 1.4151-.41387.3471 0 .6676.06675.9613.21361.2937.14686.5473.34711.7476.60077.2003.25366.3471.54737.4272.86778h-2.4164v1.17484h2.4164c-.0801.32042-.2269.61413-.4272.86778-.2003.25366-.4539.45392-.7476.60078-.2937.14685-.6142.2136-.9613.2136-.574 0-1.0413-.14685-1.4151-.42721-.3872-.28036-.6275-.65417-.7343-1.12144h-1.3217c.0801.52067.2804 1.00128.5874 1.41515.3071.41386.7209.74763 1.2149.97458Zm6.0612.29348c.1335.01335.2804.0267.4272.0267.3739 0 .6943-.06675.9479-.21361.2537-.14685.4539-.34711.6275-.62747.2403-.41387.4005-.93453.4673-1.58871.0667-.65417.1068-1.5086.1068-2.56329v-.46726h2.8303v5.36689h1.4018V.133269h-5.5405V2.04239c-.0133.76097-.0534 1.4018-.0934 1.93582-.0401.53401-.1068.92118-.2003 1.14814-.0667.1602-.1735.28036-.3071.34711-.1468.0801-.307.12015-.4939.12015-.0801 0-.1602 0-.2403-.0267-.083 0-.1554-.02103-.236-.04442l-.031-.00898v1.28165c.0801.0267.1869.0534.3337.0801Zm11.9486.06699c-.7075 0-1.3217-.14686-1.869-.45392-.5474-.29371-.988-.70758-1.2817-1.22824-.307-.52067-.4672-1.10809-.4672-1.76227 0-.65417.1602-1.25494.4806-1.78896.3204-.52067.761-.934533 1.3083-1.254944C67.8806.146855 68.4947 0 69.1489 0c.6542 0 1.2416.146855 1.7756.440566.5207.30706.9346.707574 1.2416 1.228244.3071.53402.4539 1.10809.4539 1.74891v.26701c-.0066.04005-.01.0801-.0133.12015-.0034.04006-.0067.08011-.0134.12016h-5.6606c.0534.33376.1869.64082.3872.92118.2002.28036.4672.49397.801.65417.3338.17356.6942.25366 1.1081.25366.3872 0 .7343-.0801 1.068-.25366.3205-.17355.5474-.40051.6943-.68087h1.3884c-.0934.38716-.2803.74763-.5741 1.06804-.307.32041-.6808.57407-1.1347.76098-.4673.20025-.9613.29371-1.5087.29371Zm2.056-4.152c-.0801-.32041-.2136-.60077-.4138-.84108-.2003-.22696-.4406-.41387-.721-.54737-.2803-.12015-.6007-.18691-.9479-.18691-.3471 0-.6675.06676-.9612.18691-.3071.1335-.5607.32041-.761.56072-.2136.24031-.3604.52067-.4405.82773h4.2454Zm4.606-2.656981h-1.4018V6.80851h1.4018v-2.6968h1.0547l2.096 2.6968h1.7489l-2.6701-3.41773 2.59-3.257511h-1.6688l-2.096 2.670091h-1.0547V.133269Zm8.1972 1.308351h-2.6567V.133269H88.08V1.44162h-2.6568v5.36689h-1.4018V1.44162ZM90.5098.133505h-1.295V9.47884h1.4018V5.95431c.2803.30706.6274.54737 1.0146.72093.3872.1869.801.26701 1.2549.26701.6275 0 1.1882-.14686 1.7089-.45392.5073-.30706.9078-.72093 1.2016-1.25494.2803-.52067.4272-1.10809.4272-1.76227 0-.65417-.1469-1.24159-.4272-1.77561-.2938-.52067-.6943-.934533-1.2016-1.241594C94.0877.146855 93.5136 0 92.8861 0c-.4939 0-.9345.0934533-1.335.28036-.4139.200257-.761.467267-1.0413.82773V.133505Zm3.2441 5.233385c-.3204.20026-.6808.29371-1.068.29371-.3872 0-.7476-.09345-1.0681-.29371-.3204-.18691-.574-.44057-.7476-.78768-.1869-.33376-.2803-.69422-.2803-1.10809 0-.41386.0934-.78767.2803-1.12144.1736-.33376.4272-.58742.7476-.78767.3205-.18691.6809-.28036 1.0681-.28036.3872 0 .7476.09345 1.068.28036.3204.20025.5741.45391.761.78767.1869.33377.2804.70758.2804 1.12144 0 .41387-.0935.77433-.2804 1.10809-.1869.34711-.4406.60077-.761.78768Zm7.3161 1.57536c-.681 0-1.2816-.14686-1.829-.45392-.5474-.30706-.9879-.72093-1.295-1.25494-.3204-.52067-.4806-1.10809-.4806-1.76227 0-.65417.1602-1.24159.4806-1.77561.3071-.52067.7476-.934533 1.295-1.241594C99.7884.146855 100.402 0 101.07 0c.681 0 1.282.146855 1.842.453916.548.307061.975.720924 1.295 1.241594.307.53402.468 1.12144.468 1.77561 0 .64083-.161 1.22825-.468 1.74891-.32.53402-.761.94789-1.308 1.25495s-1.161.46727-1.829.46727Zm0-1.28165c.414 0 .788-.09345 1.121-.28036.334-.18691.588-.44057.775-.78768.187-.33376.28-.70757.28-1.12144 0-.41386-.093-.80103-.28-1.13479-.187-.33376-.441-.58742-.775-.77432-.333-.18691-.707-.28036-1.121-.28036-.414 0-.788.09345-1.1214.28036-.3338.1869-.6008.44056-.7744.77432-.1869.33376-.2803.70758-.2803 1.13479 0 .41387.0934.78768.2803 1.12144.187.34711.4406.60077.7744.78768.3334.18691.7074.28036 1.1214.28036Zm6.836-5.527331h-1.402V6.80851h1.402V4.12506h3.471v2.68345h1.401V.133269h-1.401V2.81671h-3.471V.133269Zm7.009 0h1.402V2.81671h3.471V.133269h1.402V6.80851h-1.402V4.12506h-3.471v2.68345h-1.402V.133269Zm9.946 0h-1.402V6.80851h2.937c.841 0 1.509-.18691 2.002-.57407.481-.37382.721-.88114.721-1.53531 0-.65417-.24-1.17484-.721-1.562-.493-.37382-1.161-.56072-2.002-.56072h-1.522l-.013-2.443141Zm2.509 5.233381c-.213.17356-.507.25366-.894.25366h-1.589l-.013-1.86906h1.602c.374 0 .668.0801.894.25366.214.17355.321.40051.321.68087s-.107.50732-.321.68087Zm4.379-5.233381h-1.401V6.80851h1.401V.133269Zm4.793 6.808981c-.707 0-1.321-.14686-1.869-.45392-.547-.29371-.988-.70758-1.281-1.22824-.308-.52067-.468-1.10809-.468-1.76227 0-.65417.16-1.25494.481-1.78896.32-.52067.761-.934533 1.308-1.254944C135.261.146855 135.875 0 136.529 0c.654 0 1.241.146855 1.775.440566.521.30706.935.707574 1.242 1.228244.307.53402.454 1.10809.454 1.74891v.26701c-.007.04004-.01.08007-.013.12011-.004.04006-.007.08013-.014.1202h-5.66c.053.33376.187.64082.387.92118.2.28036.467.49397.801.65417.334.17356.694.25366 1.108.25366.387 0 .734-.0801 1.068-.25366.32-.17355.547-.40051.694-.68087h1.389c-.094.38716-.281.74763-.574 1.06804-.307.32041-.681.57407-1.135.76098-.467.20025-.961.29371-1.509.29371Zm2.056-4.152c-.08-.32041-.213-.60077-.414-.84108-.2-.22696-.44-.41387-.721-.54737-.28-.12015-.6-.18691-.947-.18691-.348 0-.668.06676-.962.18691-.307.1335-.56.32041-.761.56072-.213.24031-.36.52067-.44.82773h4.245ZM51.1257 19.8388c.534.3071 1.1348.4539 1.8156.4539.5741 0 1.1081-.1201 1.5888-.3471.4806-.2269.8811-.5607 1.1881-.9746.3071-.4138.494-.8944.5741-1.4285h-1.3884c-.1068.4406-.3338.8011-.6809 1.0681-.3605.267-.7877.4005-1.2817.4005-.4138 0-.7743-.0935-1.0947-.2937-.3338-.1869-.5874-.4406-.7743-.7877-.1869-.3338-.2804-.6942-.2804-1.1081 0-.4138.0935-.7877.2804-1.1214.1869-.3338.4405-.5874.7743-.7877.3204-.1869.6809-.2804 1.0947-.2804.494 0 .9212.1335 1.2683.3872.3472.267.5741.6275.6943 1.068h1.3884c-.0667-.534-.2536-1.0146-.5607-1.4285-.3071-.4138-.6942-.7342-1.1748-.9612-.4807-.227-1.0147-.3471-1.6155-.3471-.6541 0-1.2549.1468-1.8023.4539-.5474.3071-.9746.7209-1.2816 1.2416-.3071.534-.4673 1.1214-.4673 1.7756 0 .6542.1602 1.255.4673 1.7756.2937.5207.7209.9346 1.2683 1.2416Zm6.9557-6.355h1.4018v4.8328l3.6047-4.8328h1.4552v6.6752h-1.4018v-4.8329l-3.6047 4.8329h-1.4552v-6.6752Zm9.7859 6.355c.534.3071 1.1347.4539 1.8156.4539.5741 0 1.1081-.1201 1.5887-.3471.4807-.2269.8812-.5607 1.1882-.9746.3071-.4138.494-.8944.5741-1.4285h-1.3885c-.1068.4406-.3337.8011-.6808 1.0681-.3605.267-.7877.4005-1.2817.4005-.4138 0-.7743-.0935-1.0947-.2937-.3338-.1869-.5874-.4406-.7743-.7877-.187-.3338-.2804-.6942-.2804-1.1081 0-.4138.0934-.7877.2804-1.1214.1869-.3338.4405-.5874.7743-.7877.3204-.1869.6809-.2804 1.0947-.2804.494 0 .9212.1335 1.2683.3872.3471.267.5741.6275.6942 1.068h1.3885c-.0668-.534-.2537-1.0146-.5607-1.4285-.3071-.4138-.6942-.7342-1.1749-.9612-.4806-.227-1.0146-.3471-1.6154-.3471-.6542 0-1.2549.1468-1.8023.4539-.5474.3071-.9746.7209-1.2816 1.2416-.3071.534-.4673 1.1214-.4673 1.7756 0 .6542.1602 1.255.4673 1.7756.2937.5207.7209.9346 1.2683 1.2416Zm8.5176-5.0467h-2.6567v-1.3083h6.7153v1.3083h-2.6568v5.3669h-1.4018v-5.3669Zm6.0478 5.0467c.5474.3071 1.1615.4539 1.8691.4539.5474 0 1.0413-.0934 1.5086-.2937.4539-.1869.8277-.4405 1.1348-.7609.2937-.3205.4806-.6809.5741-1.0681h-1.3885c-.1469.2804-.3738.5073-.6942.6809-.3338.1735-.6809.2536-1.0681.2536-.4138 0-.7743-.0801-1.1081-.2536-.3337-.1602-.6007-.3738-.801-.6542-.2002-.2803-.3338-.5874-.3872-.9212h5.6607c.0066-.04.01-.0801.0133-.1201.0033-.0401.0067-.0801.0134-.1202v-.267c0-.6408-.1469-1.2149-.454-1.7489-.307-.5207-.7209-.9212-1.2416-1.2282-.534-.2938-1.1214-.4406-1.7756-.4406-.6541 0-1.2683.1468-1.8156.4539-.5474.3204-.988.7343-1.3084 1.255-.3204.534-.4806 1.1347-.4806 1.7889 0 .6542.1602 1.2416.4673 1.7623.2937.5206.7342.9345 1.2816 1.2282Zm3.5112-4.5391c.2003.2403.3338.5206.4139.841h-4.2455c.0801-.307.227-.5874.4406-.8277.2002-.2403.4539-.4272.7609-.5607.2938-.1202.6142-.1869.9613-.1869.3471 0 .6675.0667.9479.1869.2803.1335.5206.3204.7209.5474Zm3.618-1.8159h2.2428l2.0293 5.0598 2.0159-5.0598h2.2029v6.6752h-1.3751v-5.3669l-2.1495 5.3669h-1.4151l-2.1761-5.3802v5.3802h-1.3751v-6.6752Zm11.7621 0h-1.4021v6.6752h2.9371c.841 0 1.509-.1869 2.003-.5741.48-.3738.721-.8811.721-1.5353 0-.6541-.241-1.1748-.721-1.562-.494-.3738-1.162-.5607-2.003-.5607h-1.522l-.013-2.4431Zm2.51 5.2333c-.214.1736-.508.2537-.895.2537h-1.589l-.013-1.8691h1.602c.374 0 .668.0801.895.2537.213.1736.32.4005.32.6809 0 .2803-.107.5073-.32.6808Zm4.379-5.2333h-1.402v6.6752h1.402v-6.6752Zm5.14 0h1.402v4.8328l3.604-4.8328h1.456v6.6752h-1.402v-4.8329l-3.605 4.8329h-1.455v-6.6752ZM51.3126 26.8345h-1.295v9.3453h1.4018v-3.5245c.2804.3071.6275.5474 1.0147.7209.3871.1869.801.267 1.2549.267.6275 0 1.1882-.1468 1.7089-.4539.5073-.307.9078-.7209 1.2015-1.2549.2804-.5207.4272-1.1081.4272-1.7623 0-.6542-.1468-1.2416-.4272-1.7756-.2937-.5207-.6942-.9345-1.2015-1.2416-.5073-.3071-1.0814-.4539-1.7089-.4539-.494 0-.9345.0934-1.335.2803-.4139.2003-.761.4673-1.0414.8278v-.9746Zm3.2442 5.2334c-.3204.2002-.6809.2937-1.068.2937-.3872 0-.7477-.0935-1.0681-.2937-.3204-.1869-.5741-.4406-.7476-.7877-.1869-.3338-.2804-.6942-.2804-1.1081 0-.4139.0935-.7877.2804-1.1214.1735-.3338.4272-.5875.7476-.7877.3204-.1869.6809-.2804 1.0681-.2804.3871 0 .7476.0935 1.068.2804.3204.2002.5741.4539.761.7877.1869.3337.2803.7075.2803 1.1214 0 .4139-.0934.7743-.2803 1.1081-.1869.3471-.4406.6008-.761.7877Zm7.3294 1.5753c-.7075 0-1.3217-.1468-1.869-.4539-.5474-.2937-.988-.7076-1.2817-1.2282-.307-.5207-.4673-1.1081-.4673-1.7623 0-.6542.1603-1.2549.4807-1.789.3204-.5206.7609-.9345 1.3083-1.2549.5474-.3071 1.1615-.4539 1.8157-.4539.6542 0 1.2416.1468 1.7756.4406.5207.307.9345.7075 1.2416 1.2282.3071.534.4539 1.1081.4539 1.7489v.267c-.0067.0401-.01.0801-.0133.1202-.0034.04-.0067.0801-.0134.1201h-5.6606c.0534.3338.1869.6408.3872.9212.2002.2804.4672.494.801.6542.3338.1735.6942.2536 1.1081.2536.3872 0 .7343-.0801 1.068-.2536.3204-.1736.5474-.4005.6943-.6809h1.3884c-.0934.3872-.2803.7476-.5741 1.068-.307.3205-.6808.5741-1.1348.761-.4672.2003-.9612.2937-1.5086.2937Zm2.056-4.152c-.0801-.3204-.2136-.6007-.4138-.841-.2003-.227-.4406-.4139-.721-.5474-.2803-.1202-.6007-.1869-.9479-.1869-.3471 0-.6675.0667-.9612.1869-.3071.1335-.5607.3204-.761.5607-.2136.2403-.3604.5207-.4405.8277h4.2454Zm4.606-2.6569h-1.4018v6.6752h9.599v-6.6752h-1.4018v5.4202h-2.6968v-5.4202H71.245v5.4202h-2.6968v-5.4202Zm13.0701 6.8089c-.7076 0-1.3217-.1468-1.8691-.4539-.5473-.2937-.9879-.7076-1.2816-1.2282-.3071-.5207-.4673-1.1081-.4673-1.7623 0-.6542.1602-1.2549.4806-1.789.3204-.5206.761-.9345 1.3084-1.2549.5474-.3071 1.1615-.4539 1.8157-.4539.6541 0 1.2416.1468 1.7756.4406.5206.307.9345.7075 1.2416 1.2282.307.534.4539 1.1081.4539 1.7489v.267c-.0067.0401-.01.0801-.0134.1202-.0033.04-.0066.0801-.0133.1201h-5.6606c.0534.3338.1869.6408.3871.9212.2003.2804.4673.494.8011.6542.3337.1735.6942.2536 1.1081.2536.3871 0 .7342-.0801 1.068-.2536.3204-.1736.5474-.4005.6942-.6809h1.3885c-.0935.3872-.2804.7476-.5741 1.068-.3071.3205-.6809.5741-1.1348.761-.4673.2003-.9612.2937-1.5086.2937Zm2.056-4.152c-.0801-.3204-.2136-.6007-.4139-.841-.2002-.227-.4405-.4139-.7209-.5474-.2804-.1202-.6008-.1869-.9479-.1869-.3471 0-.6675.0667-.9612.1869-.3071.1335-.5608.3204-.761.5607-.2136.2403-.3605.5207-.4406.8277h4.2455Zm4.6059-2.6569h-1.4018v6.6752h1.4018V30.826h3.4712v2.6835h1.4018v-6.6752h-1.4018v2.6834h-3.4712v-2.6834Zm7.1426 0h1.4018v4.8328l3.6044-4.8328h1.455v6.6752h-1.401v-4.8329l-3.605 4.8329h-1.4552v-6.6752Zm8.5442 3.391c.227.3337.548.6007.961.7743l-1.829 2.5099h1.629l1.562-2.2295h1.669v2.2295h1.402v-6.6752h-2.924c-.868 0-1.562.2002-2.056.5874-.494.4005-.748.9479-.748 1.6287 0 .454.107.8411.334 1.1749Zm2.403-2.2429h1.589v2.1628h-1.589c-.414 0-.734-.0935-.974-.2937-.241-.2003-.361-.454-.361-.7877 0-.3338.12-.5874.361-.7877.24-.2003.56-.2937.974-.2937ZM10.8329.00976562 19.6139 17.5717 28.3948.00976562H10.8329ZM28.392 35.2992l-8.781-17.5619-8.781 17.5619h17.562ZM8.80335 1.26888 19.6146 17.6433l10.813-16.3769 8.7809 15.2091-19.5699 1.1746 19.5731 1.1749-8.7809 15.2091-10.815-16.3801-.0162-.001L.0223837 16.478 8.80335 1.26888ZM0 18.8295l19.5996-1.1765L8.78097 34.0386 0 18.8295Z"/>
</svg>