<svg xmlns="http://www.w3.org/2000/svg" viewBox="0 0 140 43">
	<path fill="#4FB84E" d="M18.2156 42.4519S0 37.0481 0 10.2581V0h36.4311v10.2581c0 25.7825-18.2155 32.1938-18.2155 32.1938Z"/>
	<path fill="#055532" d="M28.7544 10.3495H14.082v8.5179h14.6724v2.5645c0 4.3047-1.2264 7.7851-7.6768 7.7851H14.082v11.2198c2.4076 1.5112 4.1338 2.0149 4.1338 2.0149s18.2155-6.4113 18.2155-32.1938V2.51855c0 4.30474-1.8624 7.73935-7.6769 7.83095Z"/>
	<path fill="#000" d="M111.292 13.2353c0 1.2365.363 2.2898 1.09 3.114.726.8243 1.681 1.2365 2.771 1.2365 1.135 0 2.044-.4122 2.77-1.2365.727-.8242 1.09-1.8775 1.09-3.114 0-1.1907-.363-2.1981-1.09-2.9767-.726-.77852-1.635-1.19066-2.77-1.19066-1.136 0-2.045.41214-2.771 1.19066-.727.7786-1.09 1.786-1.09 2.9767Zm-3.635 0c0-2.1065.682-3.8468 2.09-5.26642 1.408-1.41965 3.226-2.10658 5.406-2.10658 2.18 0 3.997.68693 5.405 2.10658 1.408 1.41962 2.09 3.15992 2.09 5.26642 0 2.1524-.682 3.9841-2.09 5.4038-1.408 1.4654-3.225 2.1523-5.405 2.1523s-3.998-.7327-5.406-2.1523c-1.408-1.4655-2.09-3.2514-2.09-5.4038ZM46.5605 6.09076V20.5161h3.4978v-5.3579h2.3621c1.0902 0 1.9987-.9159 1.9987-2.015v-1.0075h-4.3608V9.11321h3.3615c1.0902 0 1.9533-.87009 1.9533-1.96917V6.09076h-8.8126Zm0 19.14254h3.7704c2.0441 0 3.4978.9159 3.4978 2.7018 0 .8702-.4089 1.7403-1.1811 2.1982v.0458c1.181.3664 1.5899 1.4196 1.5899 2.3356 0 2.2439-1.8625 3.0682-3.9066 3.0682h-3.7704V25.2333Zm3.8158 3.9841c.6359 0 .9085-.4579.9085-.9616 0-.4581-.2726-.8702-.9539-.8702h-1.2265v1.8318h1.2719Zm.1817 4.1674c.7268 0 1.0902-.5038 1.0902-1.0991 0-.5954-.3634-1.0533-1.0902-1.0533h-1.499v2.1524h1.499Zm7.5405-8.1515h2.6347l3.4977 10.3038h-2.5892l-.6359-2.1523h-3.1799l-.6358 2.1523h-2.5893l3.4977-10.3038Zm2.3167 6.1364-.5905-2.0149c-.1817-.6411-.4088-1.786-.4088-1.786h-.0454s-.2272 1.1449-.4088 1.786l-.5906 2.0149h2.0441Zm7.3589-6.1364h-2.5438v10.3038h2.4984v-4.8085c0-.6411-.1363-1.7401-.1363-1.7401h.0454s.4543 1.0532.8632 1.7401l2.8618 4.8085h2.4983V25.2333h-2.4983v4.8084c0 .6411.1362 1.7402.1362 1.7402h-.0454s-.4543-1.0533-.8631-1.7402l-2.8164-4.8084Zm10.766 0v3.9841h1.0447l2.135-3.9841H84.4l-2.771 4.9458v.0458l2.9072 5.358h-2.8164l-2.1804-4.1674h-1.0448v4.1674h-2.4983V25.2333h2.5438ZM60.9147 12.6394h1.4991c.5905 0 1.0447-.1374 1.3627-.4579.318-.3206.4997-.7327.4997-1.328 0-.7786-.2726-1.32815-.8631-1.55712-.3179-.13738-.7722-.18317-1.3173-.18317h-1.1811v3.52619Zm-3.5886-6.54864h4.9968c1.2719 0 2.1804.13739 2.7709.36636.8177.32056 1.4991.82431 1.9534 1.55703.4542.73272.6813 1.60279.6813 2.65615 0 .8243-.1817 1.6028-.545 2.3355-.3635.7327-.9086 1.2823-1.59 1.6486v.0458c.1363.1832.318.458.5451.8701l2.771 5.0832h-3.8612l-2.5438-4.9h-1.6353v4.9h-3.5432V6.09076Zm13.2188 0V20.5619h9.3122v-3.0224H74.088v-2.7477h4.3609v-3.0225H74.088V9.11321h5.4966V6.09076h-9.0397ZM82.0832 20.5619V6.09076h8.9943v3.02245h-5.4511v2.65609h4.3608v3.0225h-4.3608v2.7477h5.769v3.0224h-9.3122Zm16.4891-3.0224H97.119V9.11321h1.4533c1.2266 0 2.1807.32056 2.8617 1.05329.682.7328 1.045 1.786 1.045 3.114 0 1.3739-.363 2.4272-1.045 3.1599-.681.7327-1.6351 1.0991-2.8617 1.0991ZM93.6208 6.09076V20.5619h5.0879c2.2703 0 4.0883-.6411 5.4063-1.9233 1.316-1.2823 1.997-3.0225 1.997-5.3123 0-2.2897-.681-4.02992-1.997-5.31215-1.318-1.28226-3.136-1.92339-5.4063-1.92339h-5.0879Zm31.8882 0-1.181 14.47114h3.498l.455-6.5029c.045-.7327.045-1.557 0-2.427h.045l.817 2.427 1.5 4.2133h2.997l1.5-4.2133c.226-.5953.499-1.4196.817-2.427h.045v1.328c0 .4121 0 .7785.046 1.099l.455 6.5029H140l-1.181-14.47114h-3.816l-2.089 6.13654c-.227.5953-.454 1.4196-.727 2.3814h-.045l-.727-2.3814-2.089-6.13654h-3.817Z"/>
</svg>