<svg xmlns="http://www.w3.org/2000/svg" viewBox="0 0 180 33">
	<g fill="#00508F">
		<path d="M124.84 23.9474h4.724l-2.352-5.9499-2.372 5.9499Zm-1.146-8.6659c.745-1.7686 1.697-2.428 3.518-2.428 1.801 0 2.79.6803 3.513 2.428l7.025 16.9339h-4.98l-1.806-4.4951h-7.535l-1.779 4.4951h-4.981l.089-.2093 6.936-16.7246Zm-81.879-1.3419c-.8013.8112-.8013 1.7111-.8013 2.3705v15.903h4.6835V17.5765c0-.0942 0-.3192.0156-.45.0781-.0157.2342-.0262.5204-.0262h10.2309V13.05H44.0319c-.8483 0-1.6548.3244-2.2169.8896Zm21.8147 14.1723c-.0104-.0313-.0312-.0942-.0312-.1674v-3.4694h10.4183v-4.0504H63.5985v-2.8886c0-.1674.0052-.3087.052-.3505.0833-.0786.3538-.0786.4476-.0786h10.1736v-4.0502H62.3183c-.5776 0-1.785 0-2.6228.9209-.484.5547-.7754 1.4182-.7754 2.313v12.5957c0 .9053.1041 1.8472.8638 2.5851.7754.7483 1.6445.7483 2.4823.7483h12.1044v-4.0503H64.2958c-.4528-.0052-.6141-.0367-.6661-.0576Zm18.8752-7.7713h7.7696v-7.2895h4.6783v19.163h-4.6783v-7.8232h-7.7696v7.8232h-4.6836v-19.163h4.6836v7.2895Zm28.2521 5.924V26.353c0 .4469 0 1.1778-.328 1.5025-.302.3035-.718.3035-1.249.3035h-5.397c-.364 0-.525-.021-.593-.0419-.01-.0889-.026-.2668-.026-.5861v-2.9879h6.016c.468 0 .952.0209 1.233.2929.318.3037.344.8479.344 1.4286Zm.083-5.7718h-7.676v-2.988c0-.2094.016-.314.026-.3559.057-.0157.193-.0419.469-.0419h10.975v-4.0502h-13.083c-1.171 0-1.8839.4761-2.2795.8738-.7077.7535-.7909 1.7321-.7909 2.4072v12.8259c0 .6227.0728 1.4234.6452 2.1037.5413.6279 1.3062.9524 2.2742.9524h9.487c2.003 0 3.07-.8792 3.528-1.4077.755-.8791 1.124-2.3286 1.124-4.4427 0-1.9519-.343-3.3544-1.051-4.2858-.812-1.0571-2.04-1.5908-3.648-1.5908Zm41.33-.1522h-7.769v-7.2895h-4.684v19.163h4.684v-7.8232h7.769v7.8232h4.678v-19.163h-4.678v7.2895Zm17.282 2.067c0 .1099.115.3977.9 1.1095l9.648 8.697h-6.26l-7.426-7.0173c-.385-.3663-.697-.7483-.932-1.1408v8.1581h-4.684v-19.163h4.684v7.6977c.177-.293.401-.5757.666-.8426l6.854-6.8551h6.089l-8.821 8.4826c-.693.6751-.718.8635-.718.8739Z"/>
		<path d="M9.78752 0H32.4843l-6.1298 6.11048H9.78752c-2.01403 0-3.65774 1.64105-3.65774 3.64571V26.2664L0 32.3737V9.75619C0 4.38899 4.40487 0 9.78752 0Z"/>
	</g>
	<path fill="#50B848" d="M32.4846 22.6178c0 5.364-4.4049 9.7561-9.7875 9.7561H3.88867c2.04327-2.0368 4.08653-4.0736 6.12983-6.1105h12.6754c2.014 0 3.6576-1.641 3.6576-3.6456v-3.3754h-9.2839l6.1297-6.1106h9.2873v9.486Zm-22.51162-9.486H19.309l-6.1331 6.1106H9.97298v-6.1106Z"/>
</svg>