<svg xmlns="http://www.w3.org/2000/svg" viewBox="0 0 170 24">
	<path fill="#000" d="M41.0022 5.74406h-9.5427V17.7413h5.3791c2.9639 0 4.9857-1.1801 4.9857-3.8549 0-2.3306-1.3551-3.786-4.5236-3.786h-2.8518V8.48572h6.5454V5.74406h.0079Zm-3.8391 6.92104c.9952 0 1.5596.3599 1.5596 1.1663 0 .8555-.6687 1.1643-1.5734 1.1643h-2.7004v-2.3306h2.7142Zm15.3092 5.0723h3.1685L50.5272 5.74012H47.64L42.4655 17.7374h3.0838l.8064-1.9884h5.3103l.8063 1.9884Zm-3.4438-8.48071 1.5931 3.93351h-3.2038l1.6107-3.93351Zm15.8777 8.48071h2.9973V5.74012h-2.9973v4.54518l-4.968-.0177V5.74406h-2.9994V17.7413h2.9994v-4.6475l4.968.0177v4.6259Zm8.6675-11.99728h-2.9973V17.7374h2.9973v-3.5402l1.2686-1.4043 3.4772 4.9346h3.8371l-4.9169-6.8187 4.7458-5.16474h-3.8037l-4.6081 5.25914V5.74012Zm25.5344 0H95.568l-2.5175 3.80372-2.5489-3.79978h-3.5402l4.1302 5.91014-4.3268 6.0832h3.5401l2.6905-4.0103 2.6729 4.0103h3.5401l-4.2619-6.0832 4.1616-5.90031v-.01377Zm9.5859 11.99728h2.997V5.74012h-9.336v1.35313c0 6.95445-.411 7.84735-1.868 7.84735-.149.0026-.297-.0033-.445-.0177v2.8145c.44.0888.887.1343 1.336.1357 1.748 0 3.703-.7022 3.855-7.0804l.051-2.13587h3.41v9.08057Zm16.718 0h2.999V5.74012h-2.992V17.7374h-.007Zm-6.091-5.5404c1.386 0 1.833.4799 1.833 1.3767 0 .9834-.465 1.5085-1.833 1.5085h-1.875V12.197h1.875Zm-1.875-6.45294h-2.991V17.7413h4.866c3.168 0 4.916-1.3885 4.916-4.2148 0-2.604-1.663-3.9748-4.865-3.9748h-1.926V5.74406Zm21.646 11.99724h2.998V5.74406h-2.992v4.54124l-4.968-.0177V5.74406h-2.999V17.7413h2.999v-4.6475l4.968.0177v4.6259l-.006.0039Zm5.016-5.9967c0 3.7369 2.655 6.2701 6.425 6.2701s6.423-2.5686 6.423-6.2701c0-3.7368-2.655-6.26999-6.423-6.26999-3.821 0-6.425 2.63742-6.425 6.26999Zm3.083 0c0-2.05522 1.354-3.52833 3.344-3.52833 1.918 0 3.343 1.47311 3.343 3.52833 0 2.0553-1.284 3.5284-3.343 3.5284-1.953 0-3.344-1.4731-3.344-3.5284Zm11.783 5.9967h5.739c2.707 0 4.677-1.0463 4.677-3.5638 0-1.4908-.753-2.484-2.037-2.9305 1.095-.4798 1.644-1.24884 1.644-2.43087 0-1.79958-1.015-3.06814-4.146-3.06814h-5.871V17.7452l-.006-.0039Zm5.602-4.9169c1.217 0 1.697.3599 1.697 1.1997 0 .8733-.59 1.2332-1.68 1.2332h-2.615v-2.4368l2.598.0039Zm-.197-4.59239c1.149 0 1.524.39335 1.524 1.09745 0 .70414-.448 1.18004-1.473 1.18004h-2.452V8.22807l2.401.00394Z"/>
    <linearGradient id="gr" x1="1" x2="23" y1="5" y2="19" gradientUnits="userSpaceOnUse">
      <stop stop-color="#00D5D9"/>
      <stop offset="1" stop-color="#F000EC"/>
    </linearGradient>
	<path fill="url(#gr)" d="M16.9588 23.9973h6.9643c.0841.0073.1686-.0083.2446-.0452.0759-.0368.1405-.0935.1869-.164.0463-.0706.0728-.1524.0764-.2367.0037-.0843-.0155-.1681-.0555-.2424l-3.9709-8.2604c-.2104-.4366-.5055-.6569-1.1211-.6569h-4.2324L23.9959.762043c.053-.076594.0828-.166793.0859-.259856.0032-.093063-.0205-.185068-.0682-.265061-.0476-.079992-.1173-.1446002-.2006-.186131-.0834-.0415308-.1769-.0582342-.2695-.04812113H16.355c-.2143-.00663893-.4264.04466663-.614.14850913-.1877.103842-.3438.256374-.4519.441519L11.3437 6.60922 8.47226.646004c-.07559-.200547-.21378-.371403-.3941-.487245C7.89785.0429177 7.685-.0117446 7.47118.00287387H.506887C.422987-.0037204.338855.0123314.263277.049353S.123446.143008.0772276.21334C.0310095.283672.00452146.365122.00052926.449186-.00346294.53325.0151872.616844.0545322.69124L4.02542 8.95163c.21044.43465.50546.65493 1.12105.65493h4.23247L.434117 23.2382c-.05224.0769-.081413.1671-.084081.26-.002668.093.021279.1847.069021.2645.047742.0798.117289.1443.200449.1858.08316.0416.176468.0585.268932.0488H8.07498c.21433.0067.42647-.0446.61408-.1485.18761-.1038.34373-.2563.4519-.4415l3.94724-6.0183 2.8735 5.9652c.0754.1999.213.3703.3925.486.1795.1158.3915.1709.6046.1571Z"/>
</svg>