<svg xmlns="http://www.w3.org/2000/svg" viewBox="0 0 180 20">
	<path fill="#E1192F" d="M29.5799 0c2.07 0 3.86.4 5.39 1.19 1.52.79 2.7 1.91 3.53 3.34.83 1.43 1.24 3.13 1.24 5.09 0 1.94-.41 3.64-1.24 5.08-.83 1.45-2.01 2.57-3.53 3.36-1.53.79-3.32 1.19-5.39 1.19s-3.87-.4-5.4-1.19c-1.53-.8-2.71-1.92-3.53-3.36-.82-1.44-1.23-3.14-1.23-5.08 0-1.96.41-3.66 1.23-5.09.82-1.43 2-2.55 3.53-3.34 1.53-.79 3.33-1.19 5.4-1.19Zm2.92 14.77c.79-.45 1.39-1.11 1.78-1.97.39-.87.59-1.92.6-3.17 0-1.25-.2-2.3-.59-3.16-.39-.86-.99-1.52-1.78-1.97-.8-.45-1.77-.68-2.93-.68-1.16 0-2.12.22-2.9.67-.78.45-1.37 1.11-1.77 1.97-.4.87-.6 1.92-.6 3.17s.2 2.31.6 3.17c.4.87.98 1.52 1.76 1.97.77.45 1.74.67 2.9.67s2.14-.22 2.93-.67ZM18.8.259766h-5.24L9.63 6.28977 5.49.259766H.03L6.56 9.32977 0 18.9798h5.27l3.99-6.21 4.22 6.21h5.45L12.3 9.59977 18.8.259766Zm88.28 6.940004c1.23 0 2.31.24 3.25.72.93.48 1.66 1.16 2.19 2.03.53.87003.79 1.91003.79 3.10003 0 1.2-.26 2.24-.79 3.12-.53.88-1.25 1.57-2.18 2.06-.93.49-2.02.75-3.29.75H96.3301V.259766H111.92V4.06977h-10.96v3.13h6.12Zm-.61 8.07003c.69 0 1.23-.19 1.6-.56.37-.37.56-.91.56-1.63 0-.48-.08-.88-.25-1.2-.17-.32-.42-.57-.75-.75-.33-.18-.71-.27-1.16-.27h-5.51v4.41h5.51Zm7.78 3.71L122.36.259766h4.84l8.12 18.720034h-5l-1.52-3.76h-8.23l-1.53 3.76h-4.79Zm10.46-13.85003-2.62 6.40003h5.22l-2.6-6.40003Zm27.04 2.29h-8.93V.259766h-4.76V18.9798h4.76v-7.71h8.93v7.71h4.74V.259766h-4.74V7.41977Zm19.06 1.59L180 18.9798h-6.07l-7.78-8.44v8.44h-4.63V.259766h4.63V8.27977l7.78-8.020004h5.73l-8.85 8.750004Zm-120.9801.18-4.56-8.930004h-5.34l7.35 13.670034-2.57 5.05h5.11l9.47-18.720034h-5.06l-4.4 8.930004ZM72.77 11.3498 78.74.259766h5.11V18.9798h-4.31V6.78977l-4.76 8.88003h-4.12L65.8 6.84977V18.9798h-4.31V.259766h5.19L72.77 11.3498Z"/>
</svg>