<svg xmlns="http://www.w3.org/2000/svg" viewBox="0 0 140 34.9">
	<path fill="#fff" d="M94.2 10.4l.3-1.9.4-1.8.6-.9.4-1.9.8-1.5 1-.4 1.6-.1s2.7.4 3 .4c.4 0 3.4.1 3.4.1L108 2l1.3.8.6 2.3 1.5 3.2s.4 1.5.6 1.9c.3.4 1.5 5.3 1.9 5.6.4.3 4.4 2.4 4.4 2.4l3.4-.6.5-2 1.6-.6 2.5 1.6s2.5 6.5 2.8 6.9c.2.4.4 4.2.4 4.2v2.2l1.8 1.9s-.9-1.3.4 0c1.9 1.9 15-9.7-.1-22l-2.1-.1h-2.2l-2-1.2-.4-.7V5.6l2.1-.5 1-.3.8.2 1.9 2.2 1.3 1.5 1.3 1.2 4.9 6 1.4 4.1-1 7.1-3.7 5-5.9 1.5-7 .8h-20.2L88 33.8l-.6-2.1 1.1-1.6 3-1.5 1.7.7.4-.7 2.1-5.7-1.3-4.6.1-1.1.7-1.6-1-5.2z"/>
	<path fill="#006" d="M78 25.4v6.7c-3.7 1.9-7.3 2.8-10.8 2.8-9.8 0-15.6-5.8-15.6-13.1 0-7.9 6.7-14.4 15.3-14.4 2.1 0 3.7.4 5.4.9 1.2.4 2 .8 2.7.8.7 0 .8-1.1.9-1.8h.9l.8 9.1h-1.1c-.5-1.8-1.3-3.3-2.4-4.3-1.8-1.8-4.2-2.7-7-2.7-5.9 0-9.3 4.7-9.3 11.7 0 6.9 4.2 11.7 9.8 11.7 1.7 0 3.1-.4 5-1.2v-6.9c0-2.3-.4-3.1-3.5-3.1v-1h11.8v1c-3 .1-2.9 1-2.9 3.8zm-32.5-11v20.1h-1.6l-20-20.8c.1.6.1 1 .1 1.6v12.6c0 3.9 0 5.3 3.5 5.3v1h-9.4v-1c3.5 0 3.5-1.7 3.5-5.3V13.5c0-2.1 0-4.5-3.7-4.5V8h8.8l16.5 17c-.1-.5-.1-.7-.1-1.4v-9.3c0-3.7.1-5.3-3.4-5.3V8h9.4v1c-3.4.1-3.6 1.6-3.6 5.4zM0 34.3v-1c2.2 0 3.8-.2 3.8-3.5V12.5C3.8 9.1 2.6 9 0 9V8h13.2v1c-2.7 0-3.8.1-3.8 3.5v17.3c0 3.3 1.4 3.5 3.8 3.5v1H0z"/>
	<path fill="#ff6200" d="M130 8c-.2-.4-.5-.6-.8-.6-.3-.4-.7-.8-1-.8.3 0 .7-.3 1.1-.3.2.5.5.8.6 1.1l.1.6zm10 14.1c0-4.1-1.7-8.2-4.7-11.2-1.3-1.3-2.8-2-3.9-3.3-.6-.6-1-1.1-1.4-1.9-.5-.5-.7-.7-1.3-1l.3.8h-.1c-.5 0-.9-.3-1.3-.6l.4-.4c-.1-.2-.4-.2-.6-.2-1.5-.3-2.9.6-4.4.8v.2c.9.3 1.1 1.4 1.7 2h.6c.2 0 .5.2.7.2 0-.2-.2-.6-.2-.6.2-.2.4-.2.6 0 .5.3 1.1-.2 1.6.6-.6 0-1.1 0-1.6.3 0 .1.3.3.2.5-.5-.2-1 0-1.2-.4l-.1.1c.6.7 1.4 1.2 2.2 1.5 1.2.2 2.2-.4 3.4-.1 4.3 2.1 7.3 6.9 7.3 11.8 0 6.9-3.9 9.7-6.4 9.7-.5 0-1.2-.3-1.5-.6.3-1 .5-2.2.5-3.8 0-4-1.6-8.3-3.7-10.6-1-1-2.1-1.9-3.4-1.9-.6 0-1.1 0-1.5.5-.5.4-.7 1.1-.7 1.6-.7.6-2 .8-2.9.8-1 0-2.3-.4-3.5-1.3v-1.4c-.3-.1-1.2-.7-.7-1.1.3.1.5.3.6.3-.1-.6-.1-1.4-.6-1.9-.2 0-.5 0-.7-.2-.3-.3-.6-.7-.6-1.1.3.5.7.3 1 .6-.5-1.1-.3-1.6-1.1-3.3-.2-.8-1-1.3-1.6-1.9-.3-.2-.4-.5-.7-.5-.4-.1-.4-.6-.4-.8.1 0 .4.2.6.3-.6-1.3-.9-2.7-2.1-3.4l-.3.2H107c.2-.2.6-.2.8-.4-.3-.3-.5-.4-1-.4-.3.1-.7.4-1 .4h-.1c0-.3-.1-.7.5-.8-.6-.1-1-.1-1.6 0-.1.5-.4.7-.4 1.1-.3.2-.4.4-.7.7 0-.6.3-1.1.4-1.7-.4.1-.8.4-1 .4-.9-.3-1.9-.7-2.3-.7.6.4.3 1 .4 1.5l-.4-.2c-.1-.4-.6-.7-.7-1.1-.6 0-.9.2-1.4.5v.1c.3 0 .7.3.8.6-.7 0-1.1-.3-1.8-.3l-.1-.1c-.1 0-.4.3-.6.5-.7.6-1.1 1-1.4 1.9.2 0 .5 0 .6.1-.4.1-.6.6-.9.7v1.4c-.3.3-.7.6-.8 1.1-.5 1.5-.6 3.2-.6 5.1-.1.4-.3.5-.4.6v1.5s.5-.5.8-.7v1.2c-.4 0-.6.5-.6.7 0 .4.1.8.1 1.1 0 .2 0 .2.1.4 0-.2.2-.4.5-.5 0 0 .2-.2.6-.2-.3.3-.4.7-.6 1l-.3.3-.1.3c.4 2 .9 3.7 1.7 5.5-.7 1.2-1.6 3.5-2.1 5.8-.5-.5-1.1-.6-1.7-.6-.6.1-1.1.3-1.5.8-.6-.3-1.3-.2-1.7.2-.8.7-.8 1.1-.8 1.7-.4.1-.7.6-.7 1.2 0 .8.1 1.4.6 2.2h14.1c-.1-.3-.3-.7-.5-.8-.3-.6-.1-1.3-.1-1.9.3-.6.6-1.1.9-1.6.1-.3 0-.3.1-.4l.7-.2c.4 0 .7-.3 1.1-.3.3.5.3-.3.7-.5 1-.2 2 0 2.6.7 0 .2.1.2.1.3h-.5c-.6-.3-1.2-.6-1.8-.3 0 .3-.1.3-.1.6v.5c.4 0 .6.4 1 .6.2-.3.7-.6 1.1-.6.5 0 1.1.3 1.1 1v1c.4.4.8.5 1.3.7-.2.4-.5.4-.7.4h-.7c-.1-.1-.3-.1-.3-.4-.3.4-.5.7-.7 1.1h10.9c-.2-.4-.4-.7-.5-.8-.2-.6-.2-1.3-.2-1.9l1-1.4c.6 0 1-.2 2.1-.3.2-.3 0-.5.8-.5.6 0 1.1.2 1.3.3.1.2.1.2 0 .4-.2.2-.6-.2-.8-.1-.2.2.1.3.1.5.2.2-.8-.2-.8-.2s-.2.6-.3.7l.6.6c.2.3-.3.6-.3.8-.2-.1-.6-.4-.6-.3-.2.7 0 1.4-.1 2.2h1l.1-1.6c.1-.9 1.2-2.6 1.9-2.6.4 0 .7.2.9.4.2.4.7.6.7.7 0 .2-.3.3-.8.3-.2 0-.2-.3-.5-.5l-.6.6s.7.6.7.9c0 .5-.1.7-.4.9l-.6-1.1c-.3 0-.7.6-.7.8 0 .4-.2.6-.2 1.1h5.8c.7 0 1.2-.2 1.9-.6h1.1c2.3 0 4.2-.7 5.9-2.3 2.3-2.1 3.6-5.6 3.6-9.1zm-20.2 8.6l-.9.1c.4.2.4.7.4.7 0 .3-.2.6-.4.7-.2-.2-.2-.5-.4-.7-.2 0-.3.5-.3.7 0 .8.4 1.5.6 2.1h.8c-.1-.7-.3-1.4-.3-2.3.1-.4.4-1 .5-1.3zm-12.3 1.1c0-.4-.3-.5-.6-.5-.2 0-.7.3-.7.5 0 .4-.2 2.4-.2 2.4h.7c.3-.8.8-1.9.8-2.4zm-2 0c-.1 0 .1.2-.8-.7-.2 0-.5.6-.5.7 0 .7.2 1.8.5 2.5h.7c0-.9.1-1.8.1-2.5zm-1.6 2.5c-.5-.8-.6-2.2-.6-2.4 0-.5 0-1.1.3-1.6l-1 .2c-.3.4-.4.6-.4.8l.5-.2c.1 0 .2.2.3.4-.1.5-.6.5-.8.7-.3.9.6 1.5.7 2.3l1-.2zm23.4-28.2h-1c-.2-.3-.5 0-.6 0-.2 0-.3 0-.7-.3.6 0 .8-.3 1.3-.5.3.3.7.4 1 .8zM125 16.8c-.7-.2-1-.5-1.6-.5-.2 0-1 .3-1.1.5-.3-.4.2-1.1.6-1.3.4-.2.6-.1.7 0 0 .6.7.3 1 .5.2.2.3.4.4.8zm-.1 1.4c-.6 0-.7-.1-1-.1-.5 0-1 .2-1.3.7-.2-.4-.1-.6 0-.8.3-.3.8-.7 1.1-.7.7 0 1.2.4 1.2.9zm2.2 2.1c-.7-.5-1.9-.7-2.5-.7-.4 0-1.5.5-1.9.8l-.2-.8c.6-.1.6-.6.9-.6.3 0 .7-.1.9-.1.3 0 .5-.2.6-.2.5 0 .3.5.6.5s.5-.2.7-.2c.4 0 .8.7.9 1.3zm.3 2c-.7 0-1.3-.2-1.4-.5-.2-.2 0-.6-.5-.6-.2 0-.5.3-.5.3-.2.1-.7-.3-.7 0 0 .5-.4.7-.8.7-.2 0-.4 0-.6-.1v-.9c1.2 0 1.1-.4 1.7-.4.4 0 .7.2.9.2.5 0 .2-.2.7-.2.5 0 .7.4.9.5 0 .3.3.7.3 1zm-.9 2.1c-.3-.1-.9-.2-.9-.5 0-.4-.2-.5-.7-.5-.4 0-.7.1-1.2.3 0 0-.3-.4-.4-.7.2-.1.9-.3 1.3-.3.7 0 1.3 0 1.3.3.1.4.6.5.6 1.4zM110.2 9.7l-.2.9-.7.2.5-2.1c.1.4.4.8.4 1zm18.1 17.9c0 .6 0 .8-.3 1.2l-.6-.8c.2-.3.2-.7.5-1.1l.4.7zm-2.3-1.2c-.7 0-.3-1.3-1.7-1.3-.3 0-.5.4-.8.5l.1-.6c0-.2.1-.6.5-.7.8 0 .6.3 1.1.5.3.1.5.3.8.3v1.3zm-5.8-5.3c-.8-.5-1.3-1.3-2.1-2.2.7 0 .9.7 1.5.8.2.2.4.3.6.6v.8zm-8-6.9c-.6 0-.8-.3-1.1-.8 0-.3-.1-.7 0-1.1.2.4.2.6.4.8.4-.2.4.3.5.4 0 .1.2.4.2.7zm15.4 16c-.2.3-.2.3-.3.6 0-.5-.6-.7-.9-1.6l.4-.7c.3.2.6.5.6.9 0 0-.1.3 0 .5 0 .1.2.1.2.3zm-1.8-2.8c0 .4-.1.5-.2.9-.7-.1-.7-.8-.7-.9-.5-.6-1.1-.1-1.6-.1-.2-.6.1-.6.1-.9.3 0 .6-.2.8 0 .5-.2.7.3 1.2.3.1.2.3.7.4.7zm-4.8-3.8c0 .4-.2.7-.1 1-.2-.6-.6-1.1-.7-1.7 0-.1-.1-.1.1-.2l.5.1c0 .3.2.6.2.8zm-8.2-7.4c-.1.4-.5 0-.6 0h-.8c-.1-.2-.2-.3-.2-.5.4-.1.7-.3.9-.1.3.4.5.6.7.6zm2.1 2.2c-.3.3-1 .4-1.6-.1l.7-.4c.3.3.7.4.9.5zm4.8 5.3c0 .6-.1 1.2-.1 1.9-.3 0-.3-.2-.3-.5-.1-.6-.3-1-.5-1.6-.2-.7-.6-1.4-1-2.2-.1-.4-.5-.6-.9-.8.5 0 .9 0 1.3.4 0 .2.1.3.4.6.7 0 .5.8 1 1.2-.3.3-.4.5-.6.7.3 0 .6.1.7.3zm-3.6-2.8c0 .3-.2.4-.4.6 0 0-.4-.5-.4-.7 0-.4 0-.6.1-.8.3.3.7.6.7.9zm8.7 8.5l-.2.3c-.5-.3-.7-.4-1.3-.4 0-.4-.3-.8-.5-.8-.6 0-.5.4-.9.4l.8-.8c.1-.2.1-.2.3-.2.3.2.4.3.7.3 0 .2 0 .3-.1.6.3.2.5-.1.7.2.3-.1.5 0 .5.4zm-7.5-6.4c0 .2-.3.4-.4.4 0 0-.5-.5-.6-.9-.1-.4.3-1 .3-1l.3.2c.1.1 0 .4.1.7.3 0 .5.4.3.6zm-7.3-9.1c-1.1-.6-2.3-1.1-3.7-1.2 0 .3 0 .6-.1.7 1.1.5 2.1 1 3.1 1.8v.8c-.9-.9-2-1.9-3.2-2.2-.1.2-.5.4-.6.8-.6-.5-1.4-.9-2.1-1-.3 0-.5-1-.5-1 .5-.2.7-.5.9-.9h.4c.3 0 .3-.2.3-.5 0-.6-1.2-.6-1.8-.6-.7 0-1.1 0-1.5.3-.2 0-.1.3-.1.5l.3.3c.2 0 .4-.2.6-.2-.1.6.1.8.7 1.1l-.1.9c-1.1 0-1.9.5-2.7.8-.3-.2-.5-.5-.7-.7-1.1.4-3.1 1.9-3.1 1.9v-.7c.8-.7 2-1.1 2.8-1.6v-.7c-.4-.2-.7 0-1.1 0-.8.1-1.6.4-2.2.9 0-.3-.1-.6-.1-.6 1-.6 2.3-1 3.5-.8v-.4c-.1-.2-.1-.5-.3-.5-.6-.6-1.1-1.4-1.1-2h.4c-.2-.6-.4-2 0-2.4-.6-.3-1.1-.8-1.3-1.1-.2-.5-.4-.7-.5-1.3.3-.6.5-.8.7-1.3.2 0 .5-.1.6-.3.5-.2.8-.7 1.4-.4.4 0 .7.2 1 .3 0 .2 0 .3.2.5.6 0 .6.6.8 1 .3.1.6.1.7.1.6.2 1 .2 1.2.5.7-.5 1.5-.6 2.3-.5.1-.3.3-.7.3-1.1.1.3.1 0 .3 0 .4-.3.8-.7 1.5-.6.4.3 1 .1 1.4.6.3.4.5.9.7 1.4-.3.6 0 1.3-.6 1.6l-.6.6c-.2 0-.2.2-.5.2.3.7.1 1.6-.2 2.2.2-.1.5-.1.5-.4v.7c0 .5-.3.9-.7 1.3-.2.6-.6 1.3-1.3 1.4v.2c1.4 0 2.5.4 3.8 1l.3.6zm3.9 5.9l-.5.2c-1 0-1.5-.3-2-.7.4 0 .8-.5.8-.5.5.5 1.2.9 1.7 1zm-2.6-2.2c-.6 0-1.2.3-1.5-.3.2-.1.4-.4.6-.6-.1.1.9.9.9.9zm7.6 8.8c0 .5-.6 1-.7 1.4.2-.5.2-1.4 0-1.4-.2-.1-.6 0-.6-.2 0-.3.1-.7.1-.8 0-.4-.3-.6-.3-.7 0-.6.6-.7.8-1 .1.4.1.7.1 1.2 0 .2.3.7 0 1.2 0 .2.6 0 .6.3zm-2.2-1c0 .5-.4 1-.5 1.6 0-.6-.1-1-.5-1.4 0-.2.3-.2.1-.4 0 0-.6-.3-.6-.7 0-.4.4-.7.6-.9 0-.1.4.2.4.7 0 .1 0 .4-.1.6 0 .2.6.2.6.5zm-7.7-6.6c-.5.1-.8-.4-1.3-.6-.2-.6-.2-1.1-.4-1.4.4.3 1.2.3 1 1.1.1.3.4.5.7.9zm2.6 2.6c-.4 0-1 0-1.4-.3-.6-.3-.7-.5-1-.8.4-.3.8-.3 1-.4.4.5.8 1.1 1.4 1.5zM95.9 6.9l-.7.2.1-.5c.2-.3.3-.6.6-.8v1.1zm12 13.1c-.4.1-1 .3-1.2-.2-.6-.8-.3-1.6 0-2.2.2.6.3 1.1.4 1.6 0 .3.6.5.8.8zm-2.7-5.2c-.1.6-.3 1.4-.8 1.8 0-.4-.2-.6-.4-.8l-.1.3c0 .2-.2.6-.2.9-.2.1-.6.3-.9.1v-.3c-.1-.2-.1-.6-.1-.8l-.1-.1c-.3.1-.3.3-.3.5-.1.2-.3.4-.3.7-.4 0-.6-.1-.8-.3V16c0-.2 0-.2-.1-.2l-.5.5c-.4-.3-.5-1-.5-1.5 1.5-.8 3.4-.6 4.5-.1.2 0 .4 0 .6.1zm4.8 7.6h-.3c-1 .4-1.9-.3-2.7-.8.5-.2 1.1-.3 1.7-.3l.3.6c.3.1.8.3 1 .5zM96.1 8.2l-.5.6c.1.9-.3 1.6-.3 2.4l-.5-1.5c.2-.4.3-.7.5-1.2l.8-.3zm9.6 12.2c-.4-.3-1.3-.4-1.1-.9.2-.5.5-.6.6-.7.1.5.2 1 .5 1.6zm8.6 9.6c-.3-.3-.4-.6-.6-.6.3-1-.3-1.9-.5-2.7v-.3c.3.5 1 .9.9 1.4.2.9.2 1.6.2 2.2zm-2.1-3.6c-.5 0-.8 0-1.1-.5-.1 0-.3-.3-.4-.1-.5.4-.9-.3-1.5-.2-.3.3-.6.5-1 .6v-.1c0-.3.2-.6.6-.7.6.2 1-1 1.6-.4.3.1.6.1.7.1.6.3.8.9 1.1 1.3zm-8.6-7.5c0 .7-.1 1.5-.7 1.8l-.2-.9c.3-.3.6-.5.9-.9zm3.2 4.1c-.2.2-.7.4-1.1.4-.5-.5-.9-1-1.5-1.8l1.5.3c.2.1.8.8 1.1 1.1zm5.6 5.3c-.4-.3-.9-.3-1.1-.7-.4-.1-.7-.1-1.1-.1-.4.1-.8.1-1.2.1-.1 0 0-.1-.2-.2-.6.2-1.1.2-1.7.7l.5-1.1c.4 0 .7-.2.8-.2.4-.1.6-.1.9-.1v.1c1 0 2.2-.1 3 .8l.1.7zm-10.7-7.9c-.6-.6-1-1-1-1.6.3 0 .6 0 .8.2 0 .4.2.8.2 1.4zm-1.8-2.8l-.3 1.2c-.3-.6-.6-1.1-.7-1.8l1 .6zm13.4 12.7c-.2.4-.3.7-.4 1.1-.2-.6-.4-1.4-1-1.4-.1-.4-.2-.6-.6-.8l-.7-.1c.1.4.7.4.3.9.4.3.7.3.8.7.2.3 0 .7.1.8l-.6.3c0-.5.1-1.4-.6-1.6-.6.2-.6-.6-1-.8-.2 0-.2-.5-.5-.3-.5.3-1 0-1.5.3l.5-.7c.4-.3.7-.2 1.1-.3l.7-.1c.7 0 1.4.4 2.1.7.4.2.6.5.6.9.3.1.7.1.7.4zm-7.5-4.4h-.2c-.1 0-.7-.3-.9-.4-.1-.3-.1-.6-.1-.6h.7l.5 1zm-7.1-6.8c-.6-.2-1.2-.7-1.5-1.2-.2-.4-.3-.7-.3-1.1.4 0 .7.3.7.5v.1c.5.5 1 1 1.1 1.7zm4.5 3.3c-.1.6-.4.7-.8 1.4-.3.2-.8.3-1.4.6.1-.3.4-.4.6-.7.2-.3.6-.7.7-1 .3-.3.5-.3.9-.3zm6.8 9.2l-.3.3c-.3-.3-.1-1-.6-1.1-.5 0-.8-.5-1-.6l.4-.2s.2-.1.4 0c.2.2.4.3.4.5.2.3.5 0 .7.3 0 .2.1.6 0 .8zm-8.5-9.9c-.3.6-.6 1.1-1.1 1.3-.3 0-.7.2-1.3 0 .3-.2.6-.3.9-.6l.7-.7h.8zm1.9 4.3c-.4.3-.6.3-1.1.2l-.6-.7h1.4l.3.5zm-6.9-7.1c-.5.5-.9.7-1.1 1.2 0-.3-.1-.6-.2-.8.1-.4.4-.6.5-.7.3.2.5.2.8.3zm1.2 1.4c0 .4-.2.8-.7 1.3l-.4.3c0-.6.3-1 .3-1.5.3-.1.6-.3.8-.1zm1.3 1.1l-.4 1.4c-.5.4-1.1.2-1.7.2.7-.2 1.3-1 1.7-1.6.1-.1.2 0 .4 0zm.4 4.7c0 .3-.1 1.4-.1 1.4-.2-.7-.7-1.3-1.2-1.3-.3-.3-.6-.6-.7-.8-.3-.3-.6 0-.9-.3-.4 0-.8 0-1.2.3v-.3l.7-.8c.7.1 1.5 0 1.7.5.5.3.9.6 1 .7v.3c.2.2.6.2.7.3zM99 29l-.7.7c-.2-.3 0-.8-.3-1 0-.2.2-.3.1-.4-.1-.2-1.2-.6-1.2-.6l-1.2-.9c-.4-.1-.7.1-1.1.2v-.2c.2-.4.2-.8.7-.8.3 0 .7 0 .8.3.4 0 .6.4.8.5.5.5.8.7 1.1.8 0 .3.1.5.3.6.7-.1.5.5.7.8zm-1.4 1.4l-.3.9-.7-1.7c-.7-.8-1.6-.8-2.1-1.2-.4-.1-.4.2-.6 0 0-.2 0-.5.3-.8h.6l.6.3c.3.3.9.3.9.8 0 .1-.1.2.2.6l.9.3.2.8zm-2.6 1c0 .7-1.2 1.8-1.2 1.8 0-.5.3-1 .3-1.6 0 0-.4-.4-.7-.4-.3.2-.3.4-.4.7-.3.6-.8 1.1-.9 1.7l-.1-.1c0-.9.1-2.5.6-3.2.5-.6.8-.6 1.4-.7l.5.1-.5.6c.4.1 1 .5 1 1.1zm-3.3-.6c0 .4-.1.7-.3 1-.1-.4-.4-.8-.8-.8-.4.7-.5 1-.1 2.2-.3.3-.5.4-.8.6-.2-.4-.2-1-.2-1.4 0-.7.1-1.3.3-1.9.3-.3.5-.7.7-1h1c-.5 0-.5.5-.5.7.4.1.7.2.7.6zm-2.4 1c-.1 0-.4-.3-.7-.3-.3.6 0 .9 0 1.6 0 .3-.1.6-.1.6-.2 0-.6-.4-.7-.8v-1.5l.8-1c.7.4.9 1 .7 1.4zm19.2-26c.2-.5.2-1.3-.2-1.8-.2-.4-.7-.6-1.1-.9l-.7.4c-.4.2-.6.6-.6 1 .7.3 1.3 1 1.6 1.6h.3c.4-.3.6 0 .7-.3zm-3.1.5c0-.3-.1-.3-.2-.3-.5 0-.5-.7-.8-.6-.2 0-.4-.2-.7 0 0 .1 0 .1.2.1.5 0 .3.7.7.8h.8zm1.5 1.2s.2 0 0 0l-2-.4c-.2.3-.7.3-.7.6h-.2c.2.7.2 1.6.2 2.4.4.1.7.3.7.8.4.2.7.3 1.1.6.2-.1.3-.4.4-.7-.4-.5-1.2-.2-1.2-1l-.6-.2c0-.6 0-1.1-.1-1.5l.1-.1c0 .1.1.2.3.4.4 0 .7.1 1.1-.2.2-.1.2-.6.4-.6.2.1.4.1.5-.1zm-4.7-2c-.2-.2-.7.1-1 .2-.4.1-.7.4-.7.7h1c.2-.3.5-.7.7-.9zm-2-1c-.1-.9-1.1-1-1.6-1.4h-.4c-.7.3-.9 1-1 1.7.3.8.8.2 1.2.8.4-.3 1.3-.9 1.8-1.1zm5.5 8.6v-.5h-.9l-.1.1 1 .4zm-4.2-5.4c0-.2-.2-.4-.5-.6h-2.2c0 .4.3.6.6.6 0 .4.3.5.4.6.3.2.4.2.7 0 .3.2.4-.2.5 0 0 .6 0 .8-.1 1.3-.1.7-.6.6-1.1.8 0 .3-.3.8 0 1 .3-.2.5-.3.9-.5 0-.3.3-.6.7-.7-.2-.9.1-1.7.1-2.5zm-.8 4.9c-.2-.4-.6 0-1.1-.2 0 .2 0 .4.3.6.3-.3.7-.4.8-.4"/>
</svg>