<svg xmlns="http://www.w3.org/2000/svg" viewBox="0 0 176.6 40">
	<g fill="#215e36">
		<path d="M150.2 17.7l1.4-4.3 1.7 4.3h-3.1zm-.7 2.3h4.6l1.2 2.9c0 .1.1.4.1.6 0 .3-.3.6-.9.6v1h5.9v-1c-.1 0-.7-.1-1.2-1.3L154.4 10h-4l-4.6 12.7c-.3.6-.6 1.2-1.3 1.3v1h4.8v-1c-.3 0-.9-.1-.9-.7 0-.2 0-.4.1-.6l1-2.7zm-43.3-2.3l1.6-4.3 1.6 4.3h-3.2zm-.7 2.3h4.6l1.2 2.9c0 .1.1.4.1.6 0 .3-.3.6-.9.6v1h5.9v-1c-.1 0-.7-.1-1.1-1.3l-4.9-12.6h-4l-4.6 12.6c-.3.6-.6 1.1-1.3 1.3v1h4.7v-1c-.3 0-.9-.1-.9-.7 0-.2 0-.4.1-.6l1.1-2.8z"/>
		<path d="M84.8 10v1h.3c.6.1.7.6.7 1.2v10.5c0 .7-.1 1.2-.7 1.3h-.3v1h5.8v-1h-.3c-.6-.1-.7-.6-.7-1.3v-3.6l1.6-1.6 3.4 5.6c.1 0 .1.1.1.3 0 .3-.1.6-.7.6v1h6.5v-1c-.3-.1-.6-.2-.9-.4-.2-.2-.4-.5-.6-.7l-5-7.8 2.9-2.7c.6-.6 1.4-1.1 2.3-1.3v-1h-6v1c.4 0 .9.1.9.4 0 .1 0 .3-.3.6L89.6 16v-3.7c0-.6.1-1 .7-1.2h.3v-1c0-.1-5.8-.1-5.8-.1zm-33.2 0v1h.3c.6.1.7.6.7 1.2v10.6c0 .6-.1 1-.7 1.2h-.3v1h5.7v-1H57c-.6-.1-.6-.6-.6-1.2v-1.1l5.9-5.9v6.9c0 .6-.1 1-.7 1.2h-.3v1H67v-1h-.3c-.6-.1-.7-.6-.7-1.2V12.2c0-.6.1-1 .7-1.2h.3v-1h-5.7v1h.3c.6.1.7.6.7 1.2v.4l-5.9 5.9v-6.3c0-.6 0-1 .6-1.2h.3v-1h-5.7zm16.6 0v1h.3c.6.1.6.6.6 1.2v10.6c0 .6 0 1-.6 1.2h-.3v1h5.6v-1h-.1c-.6-.1-.7-.6-.7-1.2v-4.9h5.9v4.9c0 .6-.1 1-.7 1.2h-.3v1h5.7v-1h-.3c-.6-.1-.6-.6-.6-1.2V12.2c0-.6 0-1 .6-1.2h.3v-1h-5.7v1h.3c.6.1.7.6.7 1.2v3.5H73v-3.5c0-.6.2-1 .7-1.2h.1v-1h-5.6zm57.9 6.6l3.1-4.4c.2-.4.4-.7.8-.9s.7-.3 1.1-.3v-1h-5.5v1c.4 0 1 .1 1 .6 0 .1 0 .2-.1.3-.1.1-.1.2-.2.3l-1.8 2.5-1.8-2.8c-.4-.7.3-.9.7-.9v-1h-6.7v1c.7 0 1.2.6 1.9 1.6l3.1 4.7-3.8 5.6c-.4.5-1 .9-1.6 1v1h5.3v-1c-.9 0-1-.4-1-.6 0-.3.1-.4.3-.7l2.4-3.4 2.4 3.7c.2.2.3.4.3.6 0 .1-.1.4-.9.4v1h6.6v-1c-.7-.1-1-.7-1.3-1l-4.3-6.3zm6.2-6.6v1h.3c.6.1.7.6.7 1.2v10.6c0 .6-.1 1-.7 1.2h-.3v1h5.7v-1h-.3c-.6-.1-.7-.6-.7-1.2v-2.2c4.6-1 8.1-2.8 8.1-6.5 0-.5-.1-1-.3-1.5-.2-.5-.5-.9-.9-1.3-1.3-1.3-3.1-1.3-4.3-1.3h-7.3zm4.7 2.1h1.2c2.6 0 3.1 1.3 3.1 2.2 0 2.1-2.2 3.5-4.3 4.3v-6.5zm24.2-2.1v1h.3c.6.1.6.6.6 1.2v10.6c0 .6 0 1-.6 1.2h-.3v1h5.6v-1h-.1c-.6-.1-.7-.6-.7-1.2v-4.9h5.9v4.9c0 .6-.2 1-.7 1.2h-.3v1h5.7v-1h-.3c-.6-.1-.6-.6-.6-1.2V12.2c0-.6 0-1 .6-1.2h.3v-1h-5.8v1h.3c.6.1.7.6.7 1.2v3.5H166v-3.5c0-.6.1-1 .7-1.2h.1v-1h-5.6zM2.3 17.8v-.1s0-.1.1-.1l.1-.1h.2s.1 0 .1.1l.1.1V18c.3 4.8 2.2 9.5 5.4 13.1 3.2 3.6 7.7 6.4 13.5 8.2 2.9-.9 5.7-2.2 8.3-3.8 2.1-1.3 4-2.9 5.6-4.8h-4.9c-.1 0-.1 0-.2-.1-.1 0-.1-.1-.1-.1l-4.9-8.8-7.4 8.9-.1.1H14.8c-.1 0-.1-.1-.1-.1L8.2 18.1v-.2l.2-.2h.2c.1 0 .1.1.2.1L15.2 30h2.5l7.6-9.1.1-.1c.1 0 .2-.1.2 0 .1 0 .2.1.2.2l5.2 9h5.4c.1 0 .1 0 .2.1l.1.1v.2s0 .1-.1.1c-1.7 2.2-3.8 4-6.2 5.5-2.7 1.7-5.5 3-8.5 3.9h-.2c-5.9-1.9-10.6-4.8-13.9-8.5-3.3-3.6-5.2-8.4-5.5-13.3v-.3zm4.5-3.7s0 .1.1.1v.1s0 .1-.1.1l-.1.1h-.1-.1s-.1 0-.1-.1l-.1-.1-1.7-3.2H2.9v3.2s0 .1-.1.1l-.1.1h-.1-.1s-.1 0-.1-.1l-.1-.1v-3.5c0-.1 0-.2.1-.2s.1-.1.2-.1H5v.1l1.8 3.5zm10.1 4.2c0-.1-.1-.2 0-.3s.1-.2.2-.2.2-.1.3 0 .2.1.2.2l1.6 2.8 3.6-4.1-3.1-5.9H17c-.1 0-.2 0-.2-.1s-.1-.1-.1-.2V6.8c0-.1 0-.2.1-.2s.1-.1.2-.1H25.3c.1 0 .1.1.1.1l2.8 4.6C30.3 9 31.9 7.6 33.8 7s4-.6 7.1 0V5.3c-1-.4-1.9-1.1-2.7-1.9-.8-.8-1.3-1.7-1.7-2.8H7.2c-.4 1-.9 2-1.7 2.8-.7.9-1.6 1.5-2.6 1.9v1.2h8.2c.1 0 .1.1.1.1l4.2 7.5v.2s0 .1-.1.1l-.1.1h-.1-.1s-.1 0-.1-.1l-.1-.1L10.7 7H2.5c-.1 0-.2 0-.2-.1s-.1.1-.1 0V5.1c0-.1 0-.1.1-.2 0-.1.1-.1.1-.1 1-.4 1.9-1 2.7-1.8.7-.8 1.3-1.7 1.6-2.7 0-.1.1-.1.1-.2S6.9 0 7 0h29.7c.1 0 .1 0 .2.1.1 0 .1.1.1.2.3 1 .9 2 1.6 2.8.7.8 1.7 1.4 2.7 1.8.1 0 .1.1.1.1 0 .1.1.1.1.2 0 .7.1 1.8 0 2.4 0 .1-.1.2-.1.2s-.2.1-.2 0c-3.3-.7-5.4-.8-7.2-.1-1.8.7-3.4 2.1-5.6 4.4l-.1.1c-.1 0-.2.1-.3 0s-.1-.2-.2-.2l-2.9-4.8h-7.5v3H20c.1 0 .1.1.1.1l3.3 6.3c0 .1.1.1.1.2s0 .1-.1.2l-4.1 4.6-.1.1c-.1 0-.2.1-.3 0s-.2-.1-.2-.2l-1.8-3.2c.1.1 0 0 0 0zm24.6-1.2v.1s0 .1-.1.1l-.1.1h-.1-.1s-.1 0-.1-.1l-.1-.1v-.1c.1-2.3 0-4.5 0-6.8L39 13.2c0 .1-.1.1-.2.1h-.2l-.4-.1c-1.4-.4-2.8-.3-4.1.3-1.4.6-2.7 1.5-3.6 2.7.9 1.5 1.7 2.8 2.4 3.9 2.4 4.1 3.7 6.1 5.2 7 .4-.7.7-1.4 1-2.2.3-.9.6-1.7.8-2.6 0-.1.1-.1.2-.2h.2c.1 0 .1.1.2.1 0 .1.1.1.1.2-.2.9-.5 1.8-.9 2.7-.4.9-.8 1.7-1.2 2.5 0 .1-.1.1-.2.2h-.2c-1.9-.9-3.1-3-5.8-7.4-.7-1.2-1.6-2.6-2.5-4.1 0-.1-.1-.1-.1-.2s0-.1.1-.2c1-1.4 2.4-2.5 4-3.1 1.4-.6 3.1-.7 4.6-.3l.2.1 2.3-3.7c0-.1.1-.1.2-.1h.2c.1 0 .1.1.2.1 0 .1.1.1.1.2l-.1 8z"/>
		<path d="M0 15.9h21.1l-.5-.9H0v.9zm21.3.4H2.4v.7l18.5.5.7-.7-.3-.5zm11.1.9l1.8 3c2.2.2 4.7 1 7.5 1.6.2-1.3.1-2.5-.2-3.8-3-.5-6.1-.7-9.1-.8zm1.4-.7c.6.2.6-1.3-.5-1.3-.3 0-.6.1-.9.2-.3.2-.5.4-.6.7l.3.5c.2-.2.4-.3.7-.3.3 0 .5 0 .7.1-.1 0 .3.1.3.1zM8 14.6h6L10.2 8H3v1.7h1.6c.8 0 .9 0 1.3.8L8 14.6c.1.1 0 0 0 0z"/>
		<path d="M15.6 17.7l-6-.1 6.1 11.6h1.7l8.4-10.1 5.6 10.1h6.1v-.8c-.6-.1-2.5-1.9-3.2-2.9-1.8-2.8-3.4-5.7-5.2-8.7l-.4-.7.4-.6c1.8-2.7 5.8-4.6 9.1-3.8l2-3.2-.8-.2c-5.1-.9-6.7.4-10.6 4.3l-1 1.1L24.4 8h-6.3v1.4h1.2c.9 0 1.1.1 1.6.9l3.5 6.7-5.7 6.4-3.1-5.7z"/>
	</g>
</svg>