<svg xmlns="http://www.w3.org/2000/svg" viewBox="0 0 160 31">
	<path fill="#0D75D0" d="M16.3112 6.62854 26.7615 23.9636c-3.3355-.5803-7.0553-1.0835-10.5785-1.0835-3.5233 0-7.05533.5032-10.57861 1.0835L16.3112 6.62854Zm0-6.62854 16.0553 26.0025-3.4381-1.0238L16.3112 4.07794 3.43811 24.9787 0 26.0025 16.3112 0ZM0 30.5837c8.99164-4.4617 24.1342-4.1803 32.3665 0v-3.8219c-9.7082-3.566-23.23823-3.4381-32.3665 0v3.8219ZM64.0521 10.2105h.8415l.0004-2.53079h-.5803V1.93012h-6.9581v4.18692c0 .3856-.0692.68861-.2122.92696-.135.23806-.3389.44615-.6226.63571h-.4196v2.53079h.8244V8.47883h7.1265v1.73167Zm11.9931-1.71492h3.0202c.9049 0 1.5665-.15753 1.9649-.46789.4045-.30771.6097-.7903.6097-1.43336V6.5191h-.8587v.07523c0 .38678-.123.65923-.3768.83351-.2587.1781-.7065.26863-1.3308.26863h-3.0198c-.3763 0-.6871-.03263-.9303-.09758-.2002-.0532-.3546-.12844-.4622-.22513-.2431-.2119-.3665-.62924-.3665-1.23997V4.26546c0-.11962.0043-.2316.0126-.33622.0117-.14402.0313-.27363.0593-.38913.0602-.24952.1587-.43439.2965-.559.2404-.22454.7085-.33828 1.3906-.33828h3.0198c.6309 0 1.0922.10404 1.3698.30801.2275.17928.3381.44144.3381.80264v.07524h.8586v-.07524c0-1.26113-.8664-1.90066-2.5748-1.90066h-3.0202c-.9437 0-1.6022.18222-2.0133.55783-.4009.37413-.604.99838-.604 1.8551v1.86833c0 .87495.1953 1.47392.5968 1.83072.3963.35239 1.0761.53078 2.0205.53078Zm82.8808-.01704h.867V1.91278h-1.49L152.9 7.77229V1.91278h-.868v6.56576h1.277l5.46-5.91183h.157v5.91183Zm-8.847 0h.867V1.9213h-.867v6.55724Zm-8.258 0h4.998c.819 0 1.385-.14578 1.73-.44526.334-.29773.503-.80147.503-1.49802 0-.71594-.196-1.22968-.583-1.52711-.381-.29185-1.004-.43351-1.906-.43351h-3.875V1.91278h-.867v6.56576Zm-1.886 0h.868V1.91278h-.868v2.78119h-5.966V1.91278h-.867v6.56576h.867v-2.969h5.966v2.969Zm-15.014 0h4.998c.811 0 1.39-.14989 1.721-.44468.339-.29449.504-.78442.504-1.4986 0-.73035-.188-1.22968-.576-1.5277-.389-.29126-1.015-.43292-1.914-.43292h-3.866V1.91278h-.867v6.56576Zm-1.885 0h.867V1.91278h-7.206V6.885c0 .2989-.075.51227-.23.65129-.11.09552-.263.14372-.454.14372h-.459v.79882h.365c.129 0 .251-.00676.365-.02057.12-.0144.231-.03615.333-.06554.048-.01382.094-.02939.139-.04673.048-.01881.094-.03968.138-.0626.025-.01323.049-.02704.072-.04144.056-.03439.107-.0723.153-.11374.296-.25041.445-.66863.445-1.24321V2.72894h5.472v5.7496Zm-8.603 0h1.009l-3.659-6.56576h-1.18l-3.659 6.56576h.966l.887-1.60382h4.757l.879 1.60382Zm-8.826 0h.867V1.91278h-1.49l-5.4034 5.85981V1.91278h-.8672v6.56576h1.2687l5.4679-5.91183h.157v5.91183Zm-14.9804 0h.867l-.0003-2.65305h3.8661c.9214 0 1.5496-.12403 1.9198-.38002.3779-.26128.57-.75826.57-1.47803 0-.74151-.1932-1.25995-.5918-1.58589-.3906-.31095-1.0321-.46877-1.9065-.46877h-4.7243v6.56576Zm-4.9568 0h.867V2.7116h3.3699v-.79882h-7.5811v.79882h3.3442v5.76694Zm-18.5208 0h.3142c.5838 0 1.0355-.12021 1.3407-.35533.3088-.22307.7113-.72094 1.2303-1.52182l3.0354-4.68861h-1.0324l-2.8275 4.4432-3.0463-4.4432h-1.0115l3.5593 5.10066c-.1887.27744-.3518.45937-.4854.54078-.0179.01087-.0379.02116-.0598.03056-.0482.02087-.1061.0385-.1735.05261-.1355.02822-.3095.04232-.5208.04232h-.3227v.79883Zm-12.7711 0h.8672V1.91278h-.8672v2.78119h-5.966V1.91278h-.8672v6.56576h.8672v-2.969h5.966v2.969Zm-8.8125 0h.8587l-.0006-6.56576h-1.4817l-5.4112 5.85981V1.91278h-.867v6.56576h1.277l5.4598-5.91183h.165v5.91183Zm101.2706-.79883h-4.148V5.36465h4.079c.535 0 .922.08846 1.119.25423.201.17663.299.48493.299.94166 0 .44467-.096.74298-.289.88934-.183.15254-.54.22983-1.06.22983Zm-16.9 0h-4.148V5.36494h4.08c.536 0 .909.08612 1.111.25511.2.16929.298.47671.298.94049 0 .44291-.094.74151-.279.88817-.025.01998-.053.03879-.084.05613-.02.01205-.042.02351-.066.03439l-.032.01411-.026.01028c-.029.01117-.06.02146-.092.03116-.029.00852-.059.01616-.09.02351-.18.04114-.403.06142-.672.06142Zm-66.4893 0h-5.8278c.1836-.16693.3271-.39.428-.6651.0289-.07435.0542-.15165.0759-.23218l.0174-.06789c.0081-.0338.0155-.06848.0225-.10345.0402-.20368.0601-.42675.0601-.67333V2.72894h5.2239v4.95077Zm47.7383-5.07538 1.919 3.47156h-3.839l1.92-3.47156ZM95.5731 5.03489h-4.0795l.0003-2.32329h4.1474c.4942 0 .8382.0914 1.0486.27744.1996.19222.301.52109.301.97811 0 .31242-.0503.55106-.1499.71359-.0168.02733-.0348.05232-.0544.07524-.0294.03439-.0619.06407-.0976.08876-.1191.0867-.41.19015-1.1159.19015Zm59.6999-3.19324h.802c.668 0 1.189-.13725 1.547-.40823.393-.3036.592-.70536.592-1.194119V.164062h-.867v.075239c0 .197208-.064.367965-.194.521088-.228.253051-.584.376191-1.087.376191h-.785c-.269 0-.499-.03468-.686-.10345-.075-.02733-.143-.059957-.204-.098164-.054-.033211-.102-.070536-.145-.11227-.018-.016753-.035-.034093-.05-.052315-.137-.161352-.204-.334753-.204-.53108V.164062h-.867v.075239c0 .352976.126.676856.377.963119.38.4241.976.63923 1.771.63923Zm3.158 28.58755h1.486l-5.169-3.5586L160 23.8631h-1.506l-4.658 2.6534h-1.048v-2.6534h-.858v6.5661h.858v-3.1224h1.079l4.564 3.1224Zm-37.648 0h.859v-6.5661h-.859v2.7812h-5.924v-2.7812h-.858v6.5661h.858v-2.969h5.924v2.969Zm-37.7701 0h1l-3.6319-6.5661h-1.1722l-3.6323 6.5661h.9654l.8789-1.6039h4.722l.8701 1.6039Zm-44.3064 0h4.9549c.8057 0 1.3824-.1499 1.7135-.4459.3328-.2968.4943-.7838.4943-1.4895 0-.7359-.1881-1.2382-.5747-1.535-.3667-.2881-1.0022-.4341-1.8892-.4341h-3.8404v-1.8625h5.7244v-.7991h-6.5828v6.5661Zm4.9721-.7989h-4.1134v-2.3065h4.0451c.2834 0 .5208.0226.7106.0673.1736.0411.3073.1008.3999.1787.1953.1713.2901.4793.2901.9414 0 .4485-.0938.75-.2787.8964-.1866.1478-.5407.2227-1.0536.2227Zm34.2084-1.6041 1.9033-3.471 1.9031 3.471H77.887Zm-36.7931-8.517h2.9944c.8839 0 1.5303-.1545 1.9226-.4587.3873-.3016.5838-.7668.5838-1.3822v-.0327h-.7728v.0327c0 .397-.1304.6865-.3871.8605-.266.1828-.7162.2757-1.338.2757h-2.9859c-.7008 0-1.1625-.1088-1.4117-.3333-.2565-.2234-.3814-.6369-.3814-1.2638v-1.8427c0-.6408.1286-1.0775.3823-1.2985.246-.2295.7075-.3409 1.4108-.3409h2.9859c.6445 0 1.1086.1037 1.3796.3089.2289.1719.3452.4476.3452.8185v.0326h.7728v-.0326c0-1.2162-.8434-1.8325-2.5064-1.8325h-2.9944c-.908 0-1.5671.1807-1.9587.5375-.3918.366-.5905.974-.5905 1.807v1.8427c0 .8473.1962 1.4469.5824 1.7814.3797.3453 1.0416.5204 1.9671.5204Zm117.8831-.0173h.773v-6.4117h-1.412l-5.4 5.8521h-.013v-5.8521h-.773v6.4117h1.198l5.409-5.8519h.218v5.8519Zm-9.333 0h.773v-6.4032h-.773v6.4032Zm-8.173 0h4.904c.798 0 1.362-.1461 1.676-.4341.325-.2807.489-.7653.489-1.4407 0-.703-.188-1.2023-.559-1.4845-.372-.2862-.981-.425-1.862-.425h-3.875v-2.6274h-.773v6.4117Zm-2.439 0h.773v-6.4117h-.773v2.7468h-5.992v-2.7468h-.774v6.4117h.774v-2.9428h5.992v2.9428Zm-15.442 0h4.896c.794 0 1.361-.1461 1.684-.4341.319-.2757.481-.7603.481-1.4407 0-.7071-.185-1.2065-.551-1.4845-.372-.2862-.984-.425-1.87-.425h-3.867v-2.6274h-.773v6.4117Zm-2.44 0h.774v-6.4117h-7.052v4.8775c0 .3039-.082.5282-.246.6672-.114.1061-.28.1619-.481.1619h-.399v.7048h.314c.52 0 .912-.1146 1.165-.3406.278-.244.42-.6454.42-1.193v-4.156h5.505v5.6899Zm-14.886 0h6.113l.001-.7045h-5.341V16.532h5.204v-.7047h-5.204v-2.0424h5.324v-.7047h-6.097v6.4117Zm-5.46 0h.773v-5.707h3.336v-.7047h-7.419v.7047h3.31v5.707Zm-5.0372 0h.902l-3.5765-6.4117h-1.1217l-3.5678 6.4117h.8592l.8704-1.5953h4.7641l.8703 1.5953Zm-14.4049 0h.7728l.0003-5.707h5.136v-.7047h-5.9091v6.4117Zm-7.9509 0h6.1133l.0003-.7045h-5.3405V16.532h5.2038v-.7047h-5.2038v-2.0424h5.3149v-.7047h-6.088v6.4117Zm-8.5996 0h.7733l-.0003-2.6187h3.8748c.8697 0 1.4988-.1252 1.8698-.3726.3659-.2528.5514-.7327.5514-1.426 0-.7151-.1936-1.2318-.5752-1.5354-.3831-.3047-1.0097-.459-1.8629-.459h-4.6309v6.4117Zm-7.8906 0h6.1133l.0003-.7045h-5.3405V16.532h5.2041v-.7047h-5.2041v-2.0424h5.3233v-.7047h-6.0964v6.4117Zm-8.5996 0h4.9035c.7948 0 1.3619-.1461 1.6851-.4338.3187-.2757.4803-.7606.4803-1.4407 0-.7095-.1881-1.2088-.5585-1.4845-.3724-.2863-.9815-.425-1.8623-.425h-3.8748v-1.923h5.7156v-.7047h-6.4889v6.4117Zm98.0708-.7048h-4.148v-2.3747h4.08c.54 0 .921.0894 1.131.2654.207.174.312.4958.312.9561 0 .4611-.101.7682-.303.9131-.202.1593-.562.2401-1.072.2401Zm-17.881 0h-4.148v-2.3747h4.079c.298 0 .548.0273.747.0811.162.0438.29.1052.384.1843.205.1722.304.4849.304.9561 0 .459-.098.7659-.294.9131-.202.1593-.562.2401-1.072.2401Zm-75.2691 0h-4.1477v-2.3747h4.0793c.5388 0 .9327.0917 1.1395.2654.2044.1719.3039.4846.3039.9561 0 .4593-.0989.7662-.2947.9131-.2016.1593-.5648.2401-1.0803.2401Zm41.2526-1.5864h-3.9423l1.9752-3.5604 1.9671 3.5604Zm-24.8304-1.0325h-4.0794l.0003-2.3833h4.1477c.4951 0 .8523.0976 1.0615.2898.1228.1132.2099.2769.2607.4891.0353.1472.0529.3177.0529.5108 0 .4455-.1044.7468-.3103.8949-.1096.0758-.2829.1302-.5177.1628-.1724.0238-.3778.0359-.6157.0359Zm85.6519-3.245h.793c.657 0 1.149-.1305 1.503-.3982.383-.2784.577-.6631.577-1.1439v-.0326h-.773v.0326c0 .1975-.07.38-.206.542-.145.1719-.359.2877-.64.3456-.14.0291-.297.0438-.47.0438h-.776c-.523 0-.887-.1249-1.11-.3809-.138-.1649-.205-.3451-.205-.5508v-.0326h-.774v.0326c0 .3415.12.644.367.9255.363.4153.924.6169 1.714.6169Z"/>
</svg>