<svg xmlns="http://www.w3.org/2000/svg" viewBox="0 0 180 28">
	<path fill="#222" d="M20.4929 14.1179c0 1.7001.3939 3.1927 1.1817 4.4781.767 1.2438 1.8139 2.2078 3.1407 2.8919 1.3269.6841 2.7572 1.0262 4.2914 1.0262 1.5341 0 2.9645-.3421 4.2913-1.0262 1.3268-.6841 2.3634-1.6585 3.1097-2.923.767-1.2647 1.1506-2.7469 1.1506-4.447 0-1.7206-.3836-3.2132-1.1506-4.47787-.7463-1.22311-1.7724-2.15602-3.0786-2.79872-1.2853-.64269-2.7261-.96399-4.3224-.96399-1.5548 0-2.9853.3213-4.2914.96399-1.3475.6427-2.4048 1.59626-3.1718 2.8609-.7672 1.24389-1.1506 2.71579-1.1506 4.41569Zm70.8698 13.5272v-7.3389c.4768.8086 1.1505 1.3684 2.0212 1.6793.8915.311 2.0109.4664 3.3585.4664.7256 0 1.4305-.0932 2.1146-.2799.7049-.1658 1.306-.4249 1.804-.7773 1.098-.6841 1.948-1.6482 2.55-2.892.622-1.2646.932-2.7159.932-4.3537 0-1.5755-.3-3.0163-.901-4.32234-.622-1.24388-1.493-2.19754-2.612-2.861-1.12-.68411-2.4157-1.02617-3.8876-1.02617-1.389 0-2.5396.21772-3.4517.65303-.9122.43542-1.6481 1.07801-2.2079 1.92798V6.37492h-3.514V27.6451h3.7939Zm-14.4601-5.0065c-.1659.456-.3421.7981-.5286 1.0261-.4768.6635-1.3476.9951-2.6122.9951-.6219 0-1.1091-.0414-1.4616-.1243l1.2751 2.9853c.0414.0206.3938.0311 1.0572.0311 1.1402 0 2.0628-.1866 2.7677-.5598.6633-.3525 1.2231-.8707 1.6791-1.5548.4561-.6841.933-1.7 1.4306-3.0475l5.7839-16.01488H82.5c-1.389 3.83518-2.6329 7.64978-3.7316 11.44358-1.0573-3.4621-2.3427-7.2766-3.856-11.44358H70.932l5.9706 16.26368Zm-52.5848-8.5517c0-1.6585.4042-2.9231 1.2127-3.7938.8086-.87078 1.9695-1.30609 3.4829-1.30609 1.5134 0 2.6847.43531 3.514 1.30609.8292.8707 1.2438 2.1353 1.2438 3.7938 0 1.6999-.4146 3.0061-1.2438 3.9182-.8293.9122-2.0006 1.3682-3.514 1.3682-1.4927 0-2.6536-.4456-3.4829-1.3371-.8085-.9122-1.2127-2.2286-1.2127-3.9493Zm66.9515.031c.0415-1.5755.4562-2.809 1.2439-3.7005.8085-.91215 1.9176-1.36822 3.3274-1.36822 1.4097 0 2.5085.45607 3.2963 1.36822.7878.9123 1.1921 2.1457 1.2131 3.7005-.021 1.5756-.4253 2.8298-1.2131 3.7628-.7878.9122-1.8866 1.3683-3.2963 1.3683-1.4098 0-2.5189-.4561-3.3274-1.3683-.7877-.933-1.2024-2.1872-1.2439-3.7628ZM16.8545 0 10.262 8.73821H6.9346V0H1.9902L0 3.70053h2.9853V22.0788h3.9493v-9.9199h3.3274l6.9346 9.9199h4.5091l-8.0541-11.6302L21.3325 0h-4.478Zm26.5879 22.0788v-6.6236h6.437v6.6236h3.7316V6.37492h-3.7316v5.97058h-6.437V6.37492h-3.7627V22.0788h3.7627ZM60.5457 9.36015V22.0788h3.8249V9.36015h5.3486V6.37492h-14.46v2.98523h5.2865Z"/>
	<path fill="#366AF3" d="M122.14 22.0788c1.368 0 2.622-.2696 3.762-.8086 2.281-1.0986 3.422-3.006 3.422-5.7218 0-1.3682-.291-2.5396-.871-3.5139-.602-.9744-1.441-1.7207-2.52-2.23893-1.077-.53911-2.342-.80856-3.793-.80856h-6.375V2.39446h12.128V0h-14.989v22.0788h9.236Zm-6.375-10.6973h5.94c1.492 0 2.663.3731 3.514 1.1194.849.7257 1.274 1.7415 1.274 3.0475 0 1.3061-.425 2.3219-1.274 3.0476-.851.7255-2.022 1.0883-3.514 1.0883h-5.94v-8.3028Zm29.373-.0312c0-1.69994-.56-3.02675-1.679-3.98031-1.12-.95366-2.684-1.4305-4.695-1.4305-2.799 0-5.101 1.08845-6.904 3.26523l1.71 1.55488c.851-.93294 1.679-1.5964 2.488-1.9903.829-.41455 1.752-.62194 2.768-.62194 1.223 0 2.155.29021 2.798.87074.643.55976.964 1.3994.964 2.5188v1.0574l-4.105.2798c-2.322.1244-4.042.6013-5.162 1.4305-1.099.8085-1.647 2.0006-1.647 3.5761v.1555c0 1.4305.487 2.5396 1.461 3.3274.995.7878 2.363 1.1817 4.105 1.1817 1.223 0 2.3-.2177 3.234-.6531.933-.4561 1.679-1.0987 2.239-1.928v2.1146h2.425V11.3503Zm-2.55 4.9133c0 .7878-.207 1.503-.621 2.1457-.416.6427-.996 1.1403-1.742 1.4927-.746.3524-1.566.5287-2.457.5287-1.12 0-1.989-.2177-2.612-.653-.601-.4355-.901-1.0574-.901-1.8659v-.1555c0-.9951.331-1.7207.994-2.1768.664-.456 1.805-.7256 3.422-.8085l3.917-.1866v1.6792Zm19.569-9.88868h-2.675v6.56138h-7.866V6.37492h-2.676V22.0788h2.676v-6.9657h7.866v6.9657h2.675V6.37492ZM180 22.0788l-6.375-8.1474 5.877-7.55648h-2.861l-5.162 6.59248h-2.736V6.37492h-2.674V22.0788h2.674v-6.9346h2.705l5.504 6.9346H180Z"/>
</svg>