<svg xmlns="http://www.w3.org/2000/svg" viewBox="0 0 180 28">
	<path fill="#222" d="M20.3412 14.0135c0 1.6874.391 3.169 1.173 4.4449.7614 1.2346 1.8005 2.1915 3.1175 2.8706 1.317.679 2.7369 1.0186 4.2596 1.0186 1.5228 0 2.9427-.3396 4.2597-1.0186 1.3169-.6791 2.3458-1.6463 3.0866-2.9015.7614-1.2553 1.1421-2.7266 1.1421-4.414 0-1.7079-.3807-3.1895-1.1421-4.44479-.7408-1.21409-1.7594-2.1401-3.0558-2.77801-1.2758-.63791-2.706-.95687-4.2905-.95687-1.5433 0-2.9632.31896-4.2596.95687-1.3375.63791-2.387 1.5845-3.1484 2.83975-.7614 1.23465-1.1421 2.69565-1.1421 4.38305Zm70.3455 13.4271V20.156c.4733.8026 1.1421 1.3582 2.0064 1.6668.8848.3087 1.996.463 3.3336.463.7202 0 1.4198-.0926 2.0989-.2778.6997-.1646 1.2964-.4218 1.7903-.7716 1.0911-.6791 1.9341-1.636 2.5311-2.8706.617-1.2553.926-2.6957.926-4.3214 0-1.5639-.298-2.9941-.895-4.29049-.618-1.23467-1.482-2.18125-2.593-2.83974-1.1112-.67907-2.3973-1.01861-3.8583-1.01861-1.3788 0-2.5208.21607-3.4263.64821-.9054.43213-1.6359 1.07004-2.1915 1.91374V6.3277H86.921v21.1129h3.7657ZM76.3336 22.471c-.1646.4528-.3395.7923-.5247 1.0186-.4733.6585-1.3376.9878-2.5928.9878-.6173 0-1.1009-.0412-1.4507-.1235l1.2655 2.9632c.0411.0206.391.0309 1.0495.0309 1.1317 0 2.0475-.1852 2.7471-.5556.6585-.3498 1.2141-.8643 1.6668-1.5433.4527-.6791.926-1.6874 1.4199-3.025l5.7412-15.8964h-3.7657c-1.3788 3.8069-2.6134 7.5932-3.7041 11.359-1.0494-3.4365-2.3252-7.2228-3.8274-11.359h-3.951l5.9264 16.1433Zm-52.1957-8.4883c0-1.6463.4012-2.9015 1.2038-3.7658.8025-.86425 1.9549-1.29639 3.457-1.29639 1.5022 0 2.6649.43214 3.488 1.29639.8231.8643 1.2347 2.1195 1.2347 3.7658 0 1.6874-.4116 2.9838-1.2347 3.8892-.8231.9054-1.9858 1.3581-3.488 1.3581-1.4816 0-2.6339-.4424-3.457-1.3272-.8026-.9055-1.2038-2.2122-1.2038-3.9201Zm66.4562.0308c.0412-1.5639.4527-2.7883 1.2347-3.6731.8025-.90544 1.9034-1.35816 3.3027-1.35816 1.3993 0 2.49.45272 3.2719 1.35816.782.9054 1.1832 2.1298 1.2038 3.6731-.0206 1.564-.4218 2.8089-1.2038 3.7349-.7819.9054-1.8726 1.3582-3.2719 1.3582s-2.5002-.4528-3.3027-1.3582c-.782-.926-1.1935-2.1709-1.2347-3.7349ZM16.7298 0 10.186 8.67358H6.8833V0H1.97548L0 3.67315h2.96321V21.9154H6.8833v-9.8465h3.3027l6.8833 9.8465h4.4757l-7.9945-11.5441L21.1746 0h-4.4448Zm26.3911 21.9154v-6.5746h6.3895v6.5746h3.704V6.3277h-3.704v5.9264h-6.3895V6.3277h-3.7348v15.5877h3.7348ZM60.0977 9.29091V21.9154h3.7966V9.29091h5.3091V6.3277H54.8503v2.96321h5.2474Z"/>
	<path fill="#366AF3" d="M121.642 21.9154c1.358 0 2.603-.2675 3.735-.8025 2.263-1.0906 3.395-2.9838 3.395-5.6795 0-1.3581-.288-2.5208-.864-3.4879-.597-.9672-1.43-1.708-2.5-2.22245-1.07-.53503-2.326-.80254-3.766-.80254h-6.328V2.37674h12.038V0h-14.878v21.9154h9.168Zm-6.328-10.6181h5.896c1.481 0 2.644.3704 3.488 1.1112.843.7202 1.265 1.7285 1.265 3.0249 0 1.2964-.422 2.3047-1.265 3.025-.844.7202-2.007 1.0803-3.488 1.0803h-5.896v-8.2414Zm29.465-.0309c0-1.6874-.556-3.00438-1.667-3.95096-1.111-.94659-2.665-1.41988-4.661-1.41988-2.778 0-5.062 1.08034-6.852 3.24102l1.697 1.54332c.844-.92599 1.667-1.58448 2.47-1.97546.823-.41155 1.739-.61733 2.747-.61733 1.214 0 2.14.28809 2.778.86427.638.5556.957 1.38902.957 2.50022v1.0495l-4.075.2778c-2.304.1234-4.012.5967-5.124 1.4198-1.09.8026-1.635 1.9858-1.635 3.5497v.1544c0 1.4198.483 2.5207 1.45 3.3027.988.782 2.346 1.1729 4.075 1.1729 1.214 0 2.284-.216 3.21-.6482.926-.4527 1.667-1.0906 2.222-1.9137v2.0989h2.408v-10.649Zm-2.531 4.8769c0 .782-.206 1.4919-.618 2.1299-.411.6379-.987 1.1317-1.728 1.4816-.741.3498-1.554.5247-2.439.5247-1.111 0-1.975-.2161-2.592-.6482-.597-.4321-.896-1.0495-.896-1.852v-.1543c0-.9878.33-1.708.988-2.1607.659-.4527 1.79-.7202 3.396-.8026l3.889-.1852v1.6668Zm19.732-9.8156h-2.654v6.5129h-7.81V6.3277h-2.654v15.5877h2.654v-6.9141h7.81v6.9141h2.654V6.3277ZM180 21.9154l-6.328-8.0871 5.834-7.5006h-2.841l-5.122 6.5438h-2.717V6.3277h-2.655v15.5877h2.655v-6.8833h2.686l5.462 6.8833H180Z"/>
</svg>