<svg xmlns="http://www.w3.org/2000/svg" viewBox="0 0 121.3 44">
	<path fill="#2e274d" d="M5.4 41.3l2.8-5.7h2.6v.7H10v6.8h.9v.7H7.3v-.7h1v-5.8l-2.8 5.8h-1l-2.9-5.8v5.8h1v.7H0v-.7h.9v-6.8H0v-.7h2.6c0 .1 2.8 5.7 2.8 5.7zm12.1-4.8v2.7H20v-.9h.7v2.4H20v-.9h-2.5V43h3.3v-.9h.6v1.7h-6.6v-.7h1v-6.8h-1v-.7h6.4v1.6h-.7v-.8h-3zm11.6 7.3h-1.8v-.7h1v-6.8h-2v.9h-.7v-1.5h7.2v1.5H32v-.9h-2v6.8h.9v.7h-1.8zm10.3-4.3l3.3-3.2h-1v-.7h3v.7h-1l-2.3 2.2 1.9 3.4c.3.4.5.8.7.9.2.2.6.3 1 .2v.7c-.3.1-.6.1-1 .2-1 .1-1.8-.4-2.3-1.3L40 39.8l-.7.7v2.7h.9v.7h-3.7v-.7h1v-6.8h-1v-.7h3.7v.7h-.9l.1 3.1zm17.9-1.8c-.4-.7-.9-1.2-1.6-1.6-.7-.4-1.5-.6-2.4-.6-.9 0-1.7.2-2.4.6-.7.4-1.2.9-1.6 1.6-.4.6-.6 1.3-.6 2s.2 1.4.6 2.1c.4.7.9 1.2 1.6 1.6.7.4 1.5.6 2.4.6.9 0 1.7-.2 2.4-.6.7-.4 1.2-.9 1.6-1.6.4-.7.6-1.3.6-2.1 0-.7-.2-1.4-.6-2zm-1.8 4.2c-.3.5-.6.9-1 1.2-.4.2-.8.3-1.2.3-.4 0-.8-.1-1.2-.4-.4-.2-.7-.6-1-1.2-.3-.6-.4-1.2-.4-2.1 0-1.2.3-2.2.8-2.7.5-.6 1.1-.9 1.8-.9.4 0 .8.1 1.2.4.4.2.7.6 1 1.2.3.5.4 1.2.4 2.1 0 .8-.1 1.5-.4 2.1zm11.5-.6l2.8-5.7h2.7v.7h-1v6.8h1v.7h-3.6v-.7h1v-5.8L67 43.1h-.9l-2.9-5.8v5.8h1v.7h-2.6v-.7h.9v-6.8h-.9v-.7h2.6l2.8 5.7zm16-1.7c-.5-.3-1-.5-1.5-.6H79.6v-2.5h2.5v.8h.8v-1.6h-6v.7h.9v6.8H77v.7h3.6c.9 0 1.6-.1 2.3-.4.7-.3 1-1 1-2.1-.1-.9-.3-1.5-.9-1.8zm-1.5 3c-.3.3-.7.5-1.1.5h-.7v-3.3h.6c1.1 0 1.7.5 1.7 1.6-.1.5-.2.9-.5 1.2zm14.2.5l-3.3-7.5h-1l-3 7.5h-.9v.7H90v-.7h-1l.6-1.6h3.6l.7 1.6H93v.7h3.7v-.7h-1zm-5.8-2.2l1.4-3.4v-.3h.1v.3l1.5 3.4h-3zm12.5-1.1v3.3h1v.7h-3.7v-.7h.9v-6.8h-.9v-.7h3.7v.7h-1v2.8h3.7v-2.8h-1v-.7h3.6v.7h-1v6.8h1v.7h-3.6v-.7h1v-3.3h-3.7zm13.4-.3l3.3-3.2h-1v-.7h3v.7h-1l-2.3 2.2 1.9 3.4c.2.4.5.8.7.9.2.2.6.3 1 .2v.7c-.3.1-.6.1-1 .2-1 .1-1.8-.4-2.3-1.3l-1.6-2.9-.7.7v2.7h.9v.7h-3.6v-.7h1v-6.8h-1v-.7h3.6v.7h-.9v3.2zM75.4 3.1C73.6 1.5 71.5.8 69.6.6c-2-.2-4 .1-6 1.1V0h-6.2v1.7C52.9-.2 47.8.1 43.8 5c-4.8 5.9.6 14.7 5.7 19.9-1.3.2-2.5.3-3.8.5 0 .9.1 1.9.1 2.8h9v-2.8c-5.3-6.5-8.3-13.3-6-18 1.9-4 5.4-4.1 8.3-2.1v22.9h6.2V5.4c2.5-1.6 4.7-1.7 6-1 3.2 1.8 3.5 5 3.1 8.1-.6 4.3-3.3 8.8-6.4 12.8V28h9v-2.8c-1.2-.2-2.5-.3-3.7-.5 4.7-5 7.3-9.6 7.5-13.6.4-2.8-.7-5.6-3.4-8zm1.9 10.1c-1.1 4.4-4.2 8.5-8.5 12.5l5.1.6v.6h-6.5v-1.1c2.2-3 4.3-5.9 5.2-8.6 1.1-3.1 2.1-6.4 1-9.4-.5-1.3-1.2-2.6-2.2-3.5-1.1-1-2.5-1.6-4.3-1.5-1.8.1-3.2.8-4.9 2v22.3h-3.7V4.6c-1.9-1.3-3.6-1.9-5.6-1.8-2 .1-4.3 1.4-5.7 5.2-.7 1.9-.4 4-.1 5.8.8 4.2 3.3 8.1 6.4 12.1V27H47v-.5c1.7-.2 3.4-.4 5.1-.5-1.2-1.2-2.3-2.2-3.3-3.4-2-2.3-3.7-4.7-4.6-7.2-1.2-3.1-1.7-6.5.5-9.4 2-2.8 4.5-3.7 6.9-4 2.4-.3 4.6.4 6.8 2V1.2h3.7v2.7c1.8-1.4 3.7-2.1 5.5-2.2 3.4-.2 7 1.7 8.7 4.4 1.4 2 1.7 4.4 1 7.1z"/>
</svg>