<svg xmlns="http://www.w3.org/2000/svg" viewBox="0 0 164 40">
	<path fill="#072DA0" d="M.399902 7.50039c0-3.9 3.199998-7.099999 7.099998-7.099999h25c3.9 0 7.1 3.199999 7.1 7.099999V32.5004c0 3.9-3.2 7.1-7.1 7.1h-25c-3.9 0-7.099998-3.2-7.099998-7.1V7.50039zM61 25.9v-7.2l-3.5 5.9h-1.2l-3.5-5.8v7H50V14h2.3l4.5 7.4 4.4-7.4h2.3v12H61v-.1zm6.9-.3998c.8.4 1.6.6 2.6.6s1.8-.2 2.6-.6c.7-.4 1.4-1 1.8-1.7.4-.7.6-1.5.6-2.4 0-.9-.2-1.7-.6-2.4-.4-.7-1-1.3-1.8-1.7-.8-.4-1.6-.6-2.6-.6-.9 0-1.8.2-2.6.6-.7.4-1.4 1-1.8 1.7-.4.7-.6 1.5-.6 2.4 0 .9.2 1.7.6 2.4.4.7 1 1.3 1.8 1.7zm4.3-2.3c-.4.5-1 .7-1.7.7s-1.3-.2-1.7-.7c-.5-.5-.7-1.1-.7-1.9 0-.7.3-1.4.7-1.8.4-.5 1-.7 1.7-.7s1.3.2 1.7.7c.5.4.7 1 .7 1.8s-.3 1.4-.7 1.9zm15.3.5996v4.2H85v-2h-6.5v2H76v-4.2h.4c.6 0 1-.3 1.2-1 .2-.6.3-1.6.4-2.8l.1-3.2h8v7h1.4zm-7.1-3.7c0 1-.1 1.7-.2 2.3-.1.6-.3 1.1-.6 1.4h3.9v-4.8h-3l-.1 1.1zm13.6001 6.3998l4.2-9.8-2.6.1-2.6 6.2-2.6-6.4h-2.8l4 9.3v.1c-.2.4-.4.7-.6.9-.2.2-.5.3-.9.3-.2374 0-.4122-.0626-.6234-.1383-.0557-.0199-.114-.0408-.1766-.0617-.3-.1-.5-.2-.7-.4l-1 1.9c.4.3.7.5 1.2.6.4.1.9.2 1.4.2.8 0 1.6-.2 2.2-.6.6-.4 1.2-1.1 1.6-2.2zm13.4999-.5994h-2.7v-7h-2.9l-.1 1.6c0 .9167-.117 1.7167-.216 2.4v.0002l-.001.0034c-.031.2098-.06.4086-.083.5964-.2.8-.5 1.4-.9 1.9-.4.4-1 .7-1.7.7-.2928 0-.5856-.0536-.9569-.1215-.1359-.0249-.2823-.0517-.4431-.0785l.1-2.2h.4c.4 0 .7-.1.9-.4.2-.3.3-.7.4-1.1.0553-.2212.08-.5341.108-.888.0226-.2862.0473-.5991.092-.912l.1-3.7h7.9v9.2zm10.2-5.4c-.7-.5-1.6-.8-2.8-.8h-2.4v-3h-2.6v9.2h4.7c1.3 0 2.3-.3 3-.8.7-.6 1.1-1.4 1.1-2.4 0-.9-.4-1.7-1-2.2zm-2.1 3.3c-.3.2-.7.3-1.2.3l-1.7-.1v-2.5h1.7c.6 0 .9.1 1.2.3.3.2.4.6.4 1s-.1.8-.4 1zm9.9-6.4002c.9 0 1.7.2 2.3.5.7.3 1.2.8 1.5 1.5.4.6.5 1.4.5 2.3 0 .9-.2 1.7-.6 2.3-.4.7-1 1.2-1.8 1.6-.8.4-1.6.5-2.6.5-1.6 0-2.9-.5-3.8-1.5-.9-1.1-1.4-2.5-1.4-4.6 0-1.8.4-3.3 1.2-4.4.8-1.1 2.1-1.8 3.7-2.2l4.4-.9.4 2.3-3.9.8c-1.1.2-1.8.5-2.3 1-.5.5-.8 1.2-.9 2 .4-.4.9-.8 1.4-1 .6-.1 1.3-.2 1.9-.2zm-.6 6.7c.7 0 1.2-.2 1.7-.7.4-.4.6-1 .6-1.7s-.2-1.3-.6-1.7c-.4-.4-1-.6-1.7-.6s-1.3.2-1.7.6c-.4.4-.6 1-.6 1.7s.2 1.3.6 1.7c.4.5 1 .7 1.7.7zm13.4-6.5004c-.8-.7-1.9-1-3.3-1-.7 0-1.5.1-2.2.4-.7.2-1.3.5-1.8.8l1 1.9c.3-.3.7-.5 1.2-.6.5-.1 1-.2 1.5-.2.7 0 1.3.2 1.6.5.3.3.5.7.5 1.3h-2.1c-1.3 0-2.4.2-3 .7-.7.5-1 1.2-1 2 0 .5.1 1 .4 1.4.3.4.7.8 1.2 1 .6.3 1.2.4 1.9.4 1.4 0 2.3-.5 2.8-1.3v1.1h2.5v-5.3c0-1.4-.4-2.4-1.2-3.1zm-2.3 6.4c-.4.2-.8.3-1.2.3-.5 0-.8-.1-1.2-.4-.3-.2-.4-.5-.4-.8 0-.7.6-1.1 1.7-1.1h1.8v1c-.1.5-.4.8-.7 1zm5.6-7.2994h2.6v3.6h4v-3.6h2.7v9.2h-2.7v-3.4h-4v3.4h-2.6v-9.2zm14.4 5.7996h1.4l2.5 3.5h3.2l-3.5-4.8 3.2-4.4h-2.9l-2.5 3.6H156v-3.6h-2.7v9.2h2.7v-3.5z"/>
	<path fill="#fff" d="M7.5 40h25c4.1 0 7.5-3.4 7.5-7.5v-25C40 3.4 36.6 0 32.5 0h-25C3.4 0 0 3.4 0 7.5v25C0 36.6 3.4 40 7.5 40zM.799999 7.5C.799999 3.8 3.8.8 7.5.8h25c3.7 0 6.7 3 6.7 6.7v25c0 3.7-3 6.7-6.7 6.7h-25c-3.7 0-6.700001-3-6.700001-6.7v-25zM30 14h-4v-4h-8v4h-4v-4h-4v8h4v4h-4v8.1h4V26h4v4h4v-4h4v4h4v-4h-4v-4h4v-8zm-8 8h4v-4h-4v-4h-4v4h4v4zm0 0h-4v4h4v-4z"/>
</svg>
