<svg xmlns="http://www.w3.org/2000/svg" viewBox="0 0 160 39">
	<path fill="#005FF9" d="M73.1927 22.4215c-.1986-.3248-.295-.6656-.2897-1.0228.0011-.027.0151-.0404.0421-.0404l14.0155.0113c.1423.001.27-.1222.2751-.2654.0982-2.7692-.2733-5.5086-2.1668-7.6478-1.8923-2.1392-4.5765-3.2132-7.4002-3.1426-3.8692.0987-7.1396 2.7219-8.3889 6.3613-1.3254 3.8611.1715 8.1478 3.4954 10.504 3.0698 2.1733 7.494 2.2154 10.7629.2977.8738-.5113 1.6101-1.2153 2.3885-1.8496.1854-.1509.1953-.4401.021-.6036-.6332-.5902-1.2261-1.2045-1.7784-1.8432-.0852-.0984-.2334-.131-.3512-.0777-.8909.5409-1.7234 1.2429-2.7413 1.6215-2.9743 1.1037-6.1606.5276-7.884-2.3027Zm3.2203-8.253c2.895-.8027 6.1331.5518 7.0652 3.497.0257.0844-.0352.1512-.1149.165l-10.5218.0389c-.0548-.0058-.0989-.0484-.0857-.1068.4126-1.7898 1.9467-3.1184 3.6572-3.5941ZM63.7678 28.4181c.2314 0 .1912.1662.1912.246l-.0194 3.3578c-.0012.2331.1148.3507.3479.3528l2.9759.0211c.1655.002.3059-.1352.3059-.301l.0161-6.8533c0-.1641-.144-.3097-.3074-.3107l-1.8222-.0081c-.165-.0009-.2475-.0841-.2475-.2492l.0016-13.7566c0-.1413-.0701-.212-.2104-.212l-13.1773.0016c-.0598 0-.1091.0504-.1084.1101.0367 3.1264.0404 5.9509.0113 8.4731-.0193 1.7085-.3555 3.4045-1.4111 4.7802-.5807.7589-1.5576.7984-2.429.9192-.1759.0249-.2637.1257-.2637.3026l-.0017 6.8079c0 .1868.0934.28.28.28l3.107.0016c.1748 0 .2622-.0874.2622-.2622l.0048-3.4015c.0012-.1807.1565-.2732.3212-.2736 4.0576-.0093 8.1153-.0258 12.173-.0258Zm-2.2637-3.4387h-7.6025c-.1717 0-.2834-.1982-.1715-.3382.685-.8566 1.0972-1.807 1.2363-2.8514.3234-2.4162.4538-4.831.3787-7.2691-.0065-.2201.1003-.3301.3204-.3301l5.7092.0129c.1074 0 .2022.0942.2022.2007l-.0032 10.4684c0 .0464-.016.1068-.0696.1068Zm41.7409-14.2658 3.335.0016c.073 0 .138.0648.138.1375l-.002 17.4446c0 .0727-.065.1376-.138.1376l-3.34.0048c-.072 0-.137-.0647-.137-.1375v-7.1089c0-.0729-.065-.1376-.138-.1376l-8.6249.0065c-.0728 0-.1375.0647-.1375.1375l-.0049 7.0992c0 .0727-.0646.1376-.1375.1376H90.71c-.0728 0-.1375-.0647-.1375-.1376l.0048-17.4478c0-.0728.0648-.1375.1376-.1375l3.3352.0016c.0728 0 .1375.0647.1375.1375l.0113 6.5814c0 .0728.0648.1375.1376.1375l8.6215-.0048c.073 0 .138-.0649.138-.1376l.011-6.5781c0-.0728.065-.1375.138-.1375Zm11.132 5.0925c-.009-1.7035-.011-3.3266-.007-4.8692.001-.1214-.1-.2233-.221-.2233l-3.258.0032c-.087 0-.163.0773-.163.165l-.004 17.3524c0 .1042.092.1965.196.1974 2.411.0109 4.869.013 7.373.0065 2.722-.0086 5.171-1.1087 6.35-3.7122.632-1.4011.583-2.8563.23-4.3191-.694-2.8717-3.615-4.2893-6.352-4.3401-1.318-.0259-2.63-.0308-3.934-.0146-.128.0024-.21-.1284-.21-.246Zm-.049 8.8712.016-4.8612c.001-.142.121-.2596.263-.2589l4.063.0146c1.441.0052 2.682 1.1877 2.677 2.6442v.1133c-.006 1.4502-1.248 2.6301-2.696 2.6247l-4.064-.0145c-.142-.0007-.259-.1218-.259-.2622Zm17.566-10.4827c-.159 0-.239.0797-.239.2395l-.008 13.7825c0 .1199-.106.2265-.225.2265l-3.377-.008c-.045 0-.085-.0395-.085-.0842.005-5.763-.017-11.7549-.017-17.5352-.006-.0577.04-.1084.098-.1084l12.218.0016c.109 0 .201.0926.199.2023l-.029 3.1037c-.001.1008-.085.1852-.186.1845l-8.349-.0048Zm24.196 2.9613c.168-.19.253-.1581.253.0955 0 3.5731-.043 7.1976-.043 10.9425-.006.1298.1.2411.23.2411l3.185.0065c.186 0 .278-.0934.278-.28L160 10.9354c0-.1205-.107-.2266-.227-.2266l-2.583.0033c-.148-.0004-.297.0672-.394.1812-3.222 3.7187-6.433 7.4196-9.634 11.1027-.09.1046-.2.1839-.328.2379-.089.0354-.19-.0294-.19-.1262l.03-11.1982c0-.1068-.089-.1972-.196-.1958l-3.319.0032c-.053 0-.099.0465-.099.0987l-.006 17.4236c0 .1076.089.1981.197.1974.673-.0032 1.42.0016 2.241.0146.479.0081.737-.1748 1.049-.5276 3.127-3.5353 6.311-7.1246 9.549-10.7677Z"/>
	<path fill="#FF9E00" d="M25.1935 19.3679c0 3.2123-2.6133 5.8256-5.8256 5.8256-3.2124 0-5.8257-2.6133-5.8257-5.8256 0-3.2124 2.6133-5.8257 5.8257-5.8257 3.2123 0 5.8256 2.6133 5.8256 5.8257ZM19.3679 0C8.68788 0 0 8.68783 0 19.3679c0 10.68 8.68788 19.3679 19.3679 19.3679 3.8831 0 7.7761-1.1786 10.965-3.4074l-2.6091-3.0324c-2.5232 1.5745-5.3692 2.4694-8.3559 2.4694-8.4901 0-15.39749-6.9074-15.39749-15.3975 0-8.4901 6.90739-15.39749 15.39749-15.39749 8.4901 0 15.3975 6.90739 15.3975 15.39749 0 2.1308-.3259 6.0667-3.2996 5.8394-1.0568-.0858-2.2937-.8384-2.3019-2.6811v-3.1583c0-5.4023-4.3937-9.79603-9.796-9.79603-5.4023 0-9.79602 4.39373-9.79602 9.79603s4.39372 9.796 9.79602 9.796c2.6243 0 5.0855-1.0252 6.9406-2.8913 1.079 1.6794 2.8374 2.7322 4.8392 2.8927.1715.0138.3473.0207.5202.0207 5.3404 0 7.0679-5.4159 7.0679-9.8181C38.7358 8.68783 30.0479 0 19.3679 0Z"/>
</svg>