<svg xmlns="http://www.w3.org/2000/svg" viewBox="0 0 190 34">
	<path fill="#292929" d="M37.3792 5.30647h2.5895c.6166 0 1.1771.06166 1.6816.18497.5156.11211.9921.30267 1.4293.57171.4371.25784.779.63898 1.0256 1.14342.2466.50446.37 1.10421.37 1.79924 0 2.46619-1.5022 3.69929-4.5065 3.69929h-5.1118V.93457h8.6598V3.2046h-6.1375v2.10187Zm0 5.17903h2.6064c.5941 0 1.0593-.1009 1.3956-.3027.3475-.21293.5213-.60526.5213-1.17699s-.1738-.95845-.5213-1.16026c-.3363-.213-.8015-.31949-1.3956-.31949h-2.6064v2.95944Zm15.7693.1345c0 .3587.1905.5381.5717.5381.1568 0 .3026-.0224.4371-.0672v1.5301c-.4259.1569-.8575.2354-1.2947.2354-.852 0-1.4461-.3026-1.7824-.908-.8407.6615-1.8104.9921-2.909.9921-.7959 0-1.4685-.2186-2.0178-.6558-.538-.4484-.8072-1.0537-.8072-1.816 0-.63895.1906-1.17142.5718-1.59741.3812-.42599.8239-.71185 1.3284-.85759.5044-.15694 1.0537-.23541 1.6479-.23541.6614 0 1.3003.07286 1.9169.21858v-.28585c0-.41476-.1626-.74546-.4877-.99208-.325-.24662-.7959-.36993-1.4124-.36993-.8968 0-1.8497.20178-2.8586.60534V4.93654c1.0762-.35872 2.1187-.53808 3.1277-.53808 2.6454 0 3.9683 1.21629 3.9683 3.6489V10.62Zm-3.7161-1.44601c-.4821 0-.8857.08964-1.2107.26903-.3251.17928-.4877.45954-.4877.84068 0 .2914.1177.5325.3532.723.2466.1794.5493.2691.908.2691.7062 0 1.3115-.2186 1.816-.6558V9.35888c-.5158-.1233-.9753-.18489-1.3788-.18489Zm8.3145 3.53111h-2.3373V4.63387h2.3373v3.06034h3.2622V4.63387h2.3373v8.07123h-2.3373V9.64474h-3.2622v3.06036Zm9.9183 0h-2.3373V4.63387h2.3373v3.00989h.9752l2.0515-3.00989h2.6231l-2.7745 3.98522 3.01 4.08601h-2.6231l-2.3206-3.19488h-.9416v3.19488ZM42.4405 29.104h-2.3541l-2.1691-3.0434v-.4372l2.1691-3.0436h2.3541l-2.2868 3.2621 2.2868 3.2621Zm-3.8338 0h-2.3541l-2.1691-3.0434v-.4372l2.1691-3.0436h2.3541l-2.2868 3.2621 2.2868 3.2621Zm16.0348-10.997h2.3372v11.7706h-2.5223v-7.2473l-3.1107 4.725h-1.463l-3.1107-4.7418v7.2641h-2.5223V18.107h2.3373l4.0356 6.1207 4.0189-6.1207Zm6.6289 11.7706h-2.0346v-8.0712h2.3373v4.54l3.5984-4.54h2.0178v8.0712h-2.3205v-4.5401l-3.5984 4.5401Zm9.9682-6.8942c.6614-.9416 1.6367-1.4125 2.9259-1.4125 1.2219 0 2.1803.4204 2.8753 1.2611.7063.8296 1.0594 1.8329 1.0594 3.0099 0 1.1771-.3531 2.186-1.0594 3.0267-.695.8296-1.6534 1.2443-2.8753 1.2443-1.1098 0-1.9955-.3642-2.6568-1.0929v4.5569h-2.3373V21.8064h2.0682v1.177Zm3.9012 4.5064c.3811-.4484.5717-.9977.5717-1.6479 0-.6501-.1906-1.1938-.5717-1.631-.3812-.4484-.8969-.6726-1.547-.6726-.482 0-.9136.1289-1.2948.3867-.3699.2578-.639.5774-.8072.9585v1.9169c.1682.3811.4373.7006.8072.9584.3812.2578.8128.3868 1.2948.3868.6501 0 1.1658-.2186 1.547-.6558Zm11.0096 2.3878h-2.5223V18.107h10.2405v11.7706h-2.506v-9.5005h-5.2122v9.5005Zm12.0365-6.8942c.6606-.9416 1.636-1.4125 2.9251-1.4125 1.223 0 2.181.4204 2.876 1.2611.706.8296 1.059 1.8329 1.059 3.0099 0 1.1771-.353 2.186-1.059 3.0267-.695.8296-1.653 1.2443-2.876 1.2443-1.109 0-1.9955-.3642-2.6561-1.0929v4.5569h-2.3377V21.8064h2.0687v1.177Zm3.9001 4.5064c.382-.4484.572-.9977.572-1.6479 0-.6501-.19-1.1938-.572-1.631-.381-.4484-.896-.6726-1.546-.6726-.482 0-.9139.1289-1.2951.3867-.3698.2578-.6389.5774-.8071.9585v1.9169c.1682.3811.4373.7006.8071.9584.3812.2578.8131.3868 1.2951.3868.65 0 1.165-.2186 1.546-.6558Zm6.526 2.3878h-2.034v-8.0712h2.336v4.54l3.599-4.54h2.018v8.0712h-2.321v-4.5401l-3.598 4.5401Zm12.844 0h-4.944v-8.0712h4.809c.897 0 1.563.2073 2.001.6221.437.4035.656.908.656 1.5133 0 .9192-.415 1.5358-1.245 1.8497.953.3138 1.43.9473 1.43 1.9001 0 .639-.213 1.1658-.64 1.5806-.426.4035-1.115.6054-2.067.6054Zm-2.607-3.3463v1.7488h1.918c.716 0 1.076-.2858 1.076-.8575 0-.5942-.36-.8913-1.076-.8913h-1.918Zm-.016-3.1275v1.715h1.781c.673 0 1.01-.2802 1.01-.8406 0-.5829-.342-.8744-1.026-.8744h-1.765Zm8.942 6.4738h-2.034v-8.0712h2.336v4.54l3.599-4.54h2.018v8.0712h-2.321v-4.5401l-3.598 4.5401Zm11.482-6.2216c-.068.9865-.163 1.8385-.287 2.5558-.112.7063-.279 1.3677-.503 1.9842-.225.6054-.528 1.065-.908 1.3789-.381.3139-.842.4708-1.38.4708-.414 0-.84-.0785-1.277-.2355v-1.8495c.168.0672.331.1008.487.1008.583 0 .992-.5212 1.228-1.5638.236-1.0425.398-2.6063.487-4.6913h6.558v8.0712h-2.337V23.656h-2.068Zm5.931 2.1859c0-.7287.129-1.3732.387-1.9337.258-.5717.594-1.0201 1.01-1.3452.426-.3251.868-.5717 1.328-.7399.47-.1681.947-.2522 1.429-.2522.807 0 1.502.1513 2.085.454.595.3027 1.031.6951 1.311 1.177.281.4709.472 1.009.573 1.6144.112.594.083 1.1882-.085 1.7824h-5.683c.122.5605.448.9808.975 1.2611.527.269 1.149.4036 1.866.4036.887 0 1.698-.1626 2.439-.4877v1.8328c-.797.3363-1.783.5044-2.959.5044-1.346 0-2.462-.3755-3.347-1.1266-.886-.751-1.329-1.7992-1.329-3.1444Zm5.936-.7566c.056-.37-.05-.7511-.319-1.1435-.269-.3923-.729-.5885-1.379-.5885-.516 0-.958.1569-1.329.4709-.37.3027-.56.723-.571 1.2611h3.598Zm6.018 4.7923h-2.336v-8.0712h6.153v1.9673h-3.817v6.1039Zm7.104 0h-2.034v-8.0712h2.336v4.54l3.599-4.54h2.018v8.0712h-2.321v-4.5401l-3.598 4.5401Zm14.458-9.7191c-.729.4483-1.587.6726-2.573.6726s-1.844-.2243-2.573-.6726v-1.7488c.774.426 1.632.639 2.573.639.942 0 1.799-.213 2.573-.639v1.7488Zm-4.523 9.7191h-2.036v-8.0712h2.338v4.54l3.598-4.54h2.019v8.0712h-2.321v-4.5401l-3.598 4.5401Zm13.651-.7736h-2.355l2.287-3.2621-2.287-3.2621h2.355L190 25.6234v.4372l-2.168 3.0434Zm-3.834 0h-2.355l2.287-3.2621-2.287-3.2621h2.355l2.168 3.0436v.4372l-2.168 3.0434ZM14.6865 28.2745c8.0986-.013 14.6537-6.3531 14.6412-14.1609C29.3152 6.30579 22.7399-.0130651 14.6413.00002029 6.54273.0130943-.0124609 6.35317.00001779 14.1609.0124964 21.9687 6.58783 28.2876 14.6865 28.2745Z"/>
	<path fill="url(#a)" d="M6.21815 2.79398c-.22325.14957-.60321.40022-.63538.3881.01614-.01819.02621-.0283.08849-.07682l.02816-.02223.44832-.32746c.99314-.64683.99314-.64683 1.0434-.65491-.07041.08287-.96498.68725-.97299.69332Zm.33772.18191c.29148-.20617.64534-.51746.54883-.57203-.26136-.03841-1.38112.76003-1.24843.88939.05621.05659.36989-.0849.6996-.31736Zm.84637.25469c.27339-.21628.51667-.54373.26538-.59427-.4624-.02425-1.4173.69737-1.20219.90961.11048.10914.54471-.00404.93681-.31534Zm7.40226.61248c.0362-.29917-.2814-.70142-.967-.68323-.8484.08289-1.1801.72971-.7459 1.07537.5267.42044 1.6466.16372 1.7129-.39214Zm2.1411-.05459c-.0583-.29713-.5087-.68725-1.2002-.6448-.7801.10309-.947.70343-.4764 1.04705.6312.46087 1.7912.18394 1.6766-.40225Zm2.1109-.13341c-.1548-.29308-.7177-.66299-1.3651-.59629-.6714.12128-.6754.6812-.1909 1.00662.6573.44269 1.7228.2547 1.6042-.28297-.008-.04044-.028-.09097-.0482-.12736Zm1.7369-.19404c-.2412-.28704-.8503-.63672-1.363-.55182-.5247.14351-.3176.69533.2191 1.0046.6615.37799 1.4174.25671 1.2827-.2082-.0201-.07884-.0683-.16171-.1388-.24458Zm1.2626-.24054c-.3075-.27693-.9288-.60842-1.2906-.50937-.378.1718.1426.84087.8544 1.09961.5227.18999.8604.04446.6815-.29714-.0483-.08895-.1367-.19608-.2453-.2931Zm.7499-.26682c-.3538-.26681-.9489-.57608-1.148-.47097-.2231.2365.9429 1.14206 1.4677 1.13802.221-.00203.199-.18193-.0543-.43863-.0502-.05054-.1368-.13341-.2654-.22842Zm-14.10702.60438c.25541-.24862.39004-.6165-.01809-.65491-.64328-.00203-1.51575.70747-1.23035.99854.19302.19405.83229.06266 1.24844-.34363Zm1.70092.15565c.1789-.23852.1749-.58215-.2956-.60236-.64939.02223-1.29668.59629-1.02134.90353.22919.25672.98914.13746 1.31694-.30117Zm2.0465.09904c.1146-.2567-.0261-.61449-.587-.61853-.7017.04447-1.2385.62257-.8806.94801.3318.30523 1.2484.16171 1.4676-.32948ZM23.007 2.67067c-.4222-.28702-.9088-.53565-.9288-.43459.0723.27087 1.5218 1.231 1.6162 1.07132.0403-.06873-.2612-.34767-.6874-.63673ZM4.75253 3.8673l-.03217.0283c.14471-.12532.33979-.29308.4845-.42043-.21111.17585-.35582.30522-.45233.39213ZM3.63278 5.84013c.31757-.37394.57287-.8813.4261-.9763-.20904-.04245-.6956.54172-.71563.56597-.4363.52555-.54288.81662-.50258.90557.06434.14553.45827-.10107.79211-.49524Zm1.01718.2648c.19302-.24458.23526-.55587-.01603-.60842-.43023-.03032-.93693.67512-.75193.89343.13475.15767.53682.00808.76796-.28501Zm10.23694.79439c.0543-.36788-.39-.86514-1.361-.84088-1.0877.09299-1.5078.81461-.9851 1.25324.6855.57405 2.2416.30117 2.3461-.41236Zm2.893-.05861c-.0201-.36183-.5669-.8328-1.544-.77823-1.0353.11926-1.341.7762-.8222 1.19866.7479.60842 2.4064.31331 2.3662-.42043Zm2.8548-.21831c-.0945-.36183-.6795-.85302-1.6345-.75801-.977.16373-1.1318.8611-.5388 1.28154.8123.57809 2.2637.285 2.1873-.44269-.002-.02424-.008-.05658-.014-.08084Zm2.3461-.26278c-.1649-.35575-.7579-.82875-1.5098-.70949-.8263.20415-.7438.9662-.0644 1.34622.8424.47298 1.8336.12936 1.6084-.55789-.0101-.02426-.0242-.05458-.0342-.07884Zm1.7068-.32341c-.2251-.3598-.784-.80248-1.3229-.66301-.5991.2365-.3075 1.09153.4866 1.42707.6714.28502 1.16-.0384.9168-.60842-.0202-.04851-.0523-.11117-.0805-.15564Zm.9891-.35576c-.3779-.49927-.8966-.76204-1.0493-.5296-.2292.34971.609 1.47559 1.1881 1.32196.3236-.16372-.0905-.72767-.1388-.79236Zm-19.39833.94599c.17092-.25469.16084-.63268-.3035-.6812-.65542-.00808-1.15605.68524-.86046.98642.25736.25873.89858.09096 1.16396-.30522Zm2.68188.06872c.16691-.32341.02014-.79236-.68954-.82672-.89468.02425-1.44752.76608-1.06549 1.17036.40206.42448 1.46756.21425 1.75503-.34364Zm2.72015.13948c.1085-.31938-.1569-.76812-.9369-.77418-.92681.05256-1.37512.73375-.95692 1.12185.49252.4548 1.69472.23447 1.89382-.34767Zm14.2919-1.54228c-.0683-.08086-.6755-.79238-.7418-.5963-.0162.43256 1.0554 1.55643 1.2404 1.45132.1025-.05862-.187-.48512-.4986-.85502ZM1.60219 9.2299c.20309-.43057.26136-.95204.1186-1.05313-.14871-.03835-.3518.36795-.45827.61454-.20916.47706-.297544.84489-.23332.96418.08655.15157.37997-.11723.57299-.52559Zm1.2505.54574c.1407-.30109.07441-.68518-.24328-.75593-.48243-.03835-.77001.79646-.55891 1.06929.18295.2365.62531.0647.80219-.31336Zm12.10061.73786c.0684-.3902-.4684-.91565-1.6506-.88944-1.3288.09903-1.7571.85094-1.0937 1.32004.8203.5821 2.6176.2991 2.7443-.4306Zm3.4257-.0283c.0242-.4528-.6474-.90762-1.7712-.85106-1.2465.13142-1.6425.84696-1.0413 1.30576.8523.6489 2.7703.3376 2.8125-.4547Zm3.3815-.279c-.0322-.42243-.6071-.96817-1.7813-.85701-1.1901.18592-1.4856.97421-.8443 1.44731.9268.6832 2.692.287 2.6256-.5903Zm2.913-.34161c-.0944-.47705-.6895-1.07534-1.7168-.91563-1.1661.27487-1.2565 1.24314-.4705 1.73834 1.0013.6286 2.3723.1153 2.1873-.82271Zm2.0325-.3921c-.1386-.46091-.6594-1.11575-1.4655-.91163-.951.35169-.7519 1.52814.1025 1.95054.8645.4245 1.6284-.1576 1.363-1.03891Zm1.0575-.41237c-.1548-.40218-.5247-.93384-.9107-.74792-.5709.4023.0061 1.68176.6253 1.7667.388.0505.5167-.41442.2854-1.01878ZM5.08018 10.1537c.15891-.376-.05426-.82065-.62324-.88133-.77597-.01213-1.18009.79643-.77803 1.21683.36795.382 1.18021.188 1.40127-.3355Zm2.38434.3456c.12868-.3658-.18489-.78022-.85438-.8125-.84638.02015-1.23436.6771-.84638 1.0915.4363.4649 1.49973.291 1.70076-.279Zm3.60668-.0748c.0904-.3435-.2574-.82665-1.14185-.83684-.98914.05255-1.38124.71154-.94094 1.14604.55089.5459 1.91389.3437 2.08279-.3092Zm17.012-1.81716c-.4181-.93587-.4845-.7782-.5046-.72565-.1146.53767.593 1.86567.7901 1.73837.0824-.05255-.0221-.42245-.2855-1.01272ZM8.00133 1.88639c.00802-.00404.9027-.45682.93888-.55182L8.9362 1.3285c-.2071-.04042-1.69881.70545-1.75514.87929l.00607.00808c.10052.02224.6031-.22437.8142-.32948Zm.43424.20416c.31769-.1799.70167-.45481.59909-.50534l-.02015-.00606c-.38592-.02628-1.60631.64077-1.4655.80045.05827.07075.41409-.02224.88656-.28905Zm7.07063.49523c-.0221-.21022-.3016-.50331-.752-.48311-.5187.06469-.7538.5296-.398.79238.382.28096 1.1962.1334 1.15-.30927Zm1.8315-.07479c-.1268-.24054-.5951-.56396-1.1078-.52151-.5267.08895-.5529.56396-.189.84088.5227.39618 1.4335.25267 1.3369-.21224-.006-.03234-.0241-.07682-.0401-.10713Zm1.5459-.13341c-.2231-.23447-.7921-.53969-1.2324-.47905-.4222.10308-.2754.5316.1348.7964.5427.35171 1.3128.31331 1.2464-.06266-.0121-.07479-.0663-.16777-.1488-.25469Zm1.1862-.17384c-.3097-.23043-.9369-.50937-1.2566-.43863-.3095.12128.1548.62258.6916.85907.5066.22235.9408.1799.8584-.08489-.0301-.09703-.1367-.21831-.2934-.33555Zm.7961-.20213c-.3679-.22032-1.0053-.47703-1.2103-.39821-.2031.16576.9147.89344 1.4616.95004.2271.02426.2915-.06872.1607-.22842-.0381-.04649-.1507-.16776-.412-.32341Zm-11.52168.29107c.31769-.21628.52674-.47704.33372-.51746l-.03412-.00404c-.52673-.00809-1.52182.59225-1.347.81257.09857.12533.58913.02426 1.0474-.29107Zm1.25448.15565c.2212-.20011.384-.50938.0262-.53161-.6112.01616-1.43145.60639-1.17009.84289.17287.15969.75799.03639 1.14389-.31128Zm1.4677.09702c.1447-.20214.1447-.48714-.2373-.49522-.5489.03234-1.1318.53161-.9047.77619.2031.21628.8725.095 1.142-.28097Zm1.6806.05054c.0664-.21023-.0703-.49927-.5005-.49322-.5488.04852-.959.53566-.6676.79035.2916.25065 1.0375.11522 1.1681-.29713Zm7.4928-.8146c-.4382-.22639-1.0233-.43864-1.0896-.3598-.0061.19606 1.5741 1.00056 1.743.88534.0845-.0566-.2071-.29309-.6534-.52554Zm-.0784-.22437c-.4282-.20416-.8403-.36182-.8987-.34162l.0081.01618c.1649.13745 1.6646.87322 1.7591.83481-.0564-.11926-.8605-.50533-.8685-.50937ZM4.72231 4.20285c.36394-.32341.76395-.76407.73384-.8429-.13063-.0566-1.47363 1.17844-1.42337 1.30781.07842.03031.40607-.21021.68953-.46491Zm.67957.18192c.24122-.22841.39806-.51948.23721-.57204-.33772-.03436-1.0213.68725-.92079.85706.0664.11521.41214-.02831.68358-.28502Zm10.71942.95205c.002-.30118-.4423-.70343-1.2866-.67109-.9529.09097-1.2626.69131-.7639 1.04504.6653.46896 2.0445.21831 2.0505-.37395Zm2.5895-.19606c-.0845-.33959-.6434-.7762-1.4697-.7095-.8725.12937-1.0374.75599-.5287 1.1461.7157.54779 2.0687.3032 2.0104-.36384-.0021-.02021-.0061-.05053-.012-.07276Zm2.3139-.20012c-.1649-.32139-.7519-.75194-1.4898-.65895-.7719.16171-.7518.79034-.1728 1.15822.762.48513 1.8536.25874 1.7169-.35575-.0101-.04448-.0322-.10107-.0543-.14352Zm1.7792-.26076c-.2332-.3133-.8363-.72565-1.3892-.61246-.583.19001-.3096.86715.3216 1.2027.6655.35171 1.333.1799 1.2083-.31331-.0241-.08893-.0703-.18192-.1407-.27693Zm1.1902-.30319c-.2835-.30523-.8685-.69737-1.2224-.57003-.398.23246.2734 1.11579.9972 1.31591.3961.10914.6634-.0566.4282-.47503-.0483-.08691-.1166-.17787-.203-.27085Zm-17.31356.50735c.26538-.29107.396-.72768-.04625-.79034-.70968-.02224-1.50385.83482-1.23641 1.16025.20904.25469.89262.05861 1.28266-.36991Zm1.80735.22033c.03217-.04447.11047-.16373.12261-.29714.04419-.48916-.68759-.57203-1.26252-.14351-.45244.33756-.5328.82066.05026.91364.56085.03841.95696-.29309 1.08965-.47299Zm2.50291.10511c.1689-.33756.002-.81258-.7479-.83279-.97699.04446-1.57413.82066-1.15592 1.22695.45026.43863 1.60632.19809 1.90382-.39416Zm2.5129.0667c.0885-.34161-.225-.80854-1.0434-.80044-.995.07478-1.4434.80651-.9749 1.20875.5528.47704 1.8555.21427 2.0183-.40831ZM24.553 4.0472c-.3217-.30117-.8405-.66703-.9831-.53362-.0784.15563.2211.53565.5307.82268.3297.30523.7217.51747.8746.47703.1728-.04648-.0122-.38203-.4222-.76609Zm.2895.02629c-.2514-.21831-.577-.51746-.8344-.72769l-.0161-.01415c-.1468-.11522-.2051-.15564-.2332-.15968l.0101.03234c.209.29107 1.2605 1.23706 1.4313 1.25728l.0061-.00607c-.0221-.06873-.3297-.35172-.3638-.38203ZM2.21341 7.27528c.3075-.47703.51266-.97832.49457-1.07131l-.00607-.00605c-.10658.0202-.84442 1.27142-.85038 1.28355l-.02209.03841c-.05839.10712-.19508.35979-.10464.33149.06846-.02223.27545-.24862.48861-.57609Zm.78799.4528c.20516-.31938.25942-.73578.02816-.81259-.4-.04851-.93681.97227-.75387 1.20266.12662.16177.50064-.03835.72571-.39007Zm13.52.82064c.0301-.36989-.5106-.86108-1.6063-.82267-1.2425.11319-1.6043.83481-.957 1.27145.8264.55787 2.503.2648 2.5633-.44878Zm3.2509-.02827c-.0322-.36383-.6012-.86515-1.723-.78632-1.1298.14554-1.4194.83886-.8203 1.26944.8504.61248 2.6095.27693 2.5433-.48312Zm2.905-.31941c-.1005-.40223-.6735-.91565-1.6406-.79639-1.0192.20214-1.162.9601-.5307 1.40075.9187.64076 2.3783.23251 2.1713-.60436Zm2.3501-.33754c-.175-.44672-.7861-1.00056-1.6003-.83885-.9529.28703-.786 1.27542.0423 1.70393.9086.47098 1.8153.0324 1.5922-.76807-.0101-.0303-.0242-.06871-.0342-.09701Zm1.4414-.38203c-.205-.40022-.7297-.96418-1.2705-.78024-.6393.32746-.1951 1.51194.6694 1.78281.6453.20412.955-.31128.6011-1.00257Zm-21.82892.68522c.2071-.35777.11872-.78629-.34367-.85501-.68164-.0283-1.19418.81666-.88267 1.19869.26537.32342.95101.12937 1.22634-.34368Zm2.48486.21626c.185-.37997.01809-.93989-.77597-.99649-1.03138.00809-1.59624.95207-1.07351 1.42306.47843.43251 1.55194.18592 1.84948-.42657Zm2.66986.18798c.12467-.33955-.1407-.82265-.95891-.84691-.97311.03841-1.42543.74789-.98913 1.18052.50258.4972 1.72285.28701 1.94804-.33361Zm3.2488.09102c.0804-.30121-.2996-.71355-1.2163-.7075-1.0414.06261-1.4454.64075-.9771 1.01065.6072.47705 2.0406.27899 2.1934-.30315Zm14.0628-1.58273c-.187-.31331-.6012-.85907-.8163-.67715-.3196.44469.6453 1.72627 1.0072 1.62106.185-.05255.1066-.45071-.1909-.94391Zm.4523.473c-.2795-.49523-.7017-1.1259-1.0273-1.5908l.016.04042c.3901.78226.8887 1.4857 1.0214 1.59282l.008-.00404-.0181-.0384ZM.647287 10.9259c.170923-.5843.221181-1.1482.213053-1.2391-.014082.00801-.014083.00801-.040185.08483C.669381 10.279.476362 10.9562.357758 11.4716l-.005953.0324c-.006067.0505-.006069.0586-.004122.0788l.016143.004c.072353-.0687.190958-.3457.283461-.6609Zm.830233.4547c.14276-.4426.02415-.9479-.24317-1.0409-.45644-.0607-.68758 1.1865-.476473 1.4997.176876.2648.566923.0163.719643-.4588Zm15.30318 1.033c.0664-.5276-.605-1.0653-1.8013-1.0188-1.355.1333-1.7852.948-1.1721 1.4958.8565.7641 2.8588.4447 2.9734-.477Zm3.667-.1093c.0261-.4992-.6714-.9863-1.8435-.9014-1.3349.1717-1.7009.956-1.0535 1.4534.9007.6892 2.8508.3193 2.897-.552Zm3.2608-.3314c-.02-.4791-.577-1.0855-1.755-.9399-1.3349.2567-1.5862 1.2188-.7921 1.7241.9911.6286 2.5854.1396 2.5471-.7842Zm2.5553-.4387c-.0664-.5255-.5991-1.1784-1.5762-.9864-1.166.3376-1.2363 1.4917-.4021 1.991.9349.5599 2.1009-.0323 1.9783-1.0046Zm1.8254-.2849c-.1005-.4609-.5206-1.1138-1.2203-.9016-.955.4144-.6775 1.7444.203 2.0416.6775.2244 1.1902-.3498 1.0173-1.14Zm-24.86261.5518c.10258-.3174-.07842-.7155-.50052-.7802-.59508-.0264-.7881.7074-.51071 1.047.28151.3417.86652.186 1.01123-.2668Zm2.6196.4063c.10246-.3498-.18695-.752-.78203-.7965-.82027.0041-1.02737.7197-.63939 1.0855.42027.3942 1.27065.2224 1.42142-.289Zm3.30707.1819c.10659-.4245-.34379-.8955-1.18409-.9198-1.04947.0404-1.4173.8066-.86447 1.2775.61718.5256 1.88176.3053 2.04856-.3577Zm3.92234.1455c.0885-.4083-.4443-.9682-1.6707-.9602-1.361.0829-1.81133.8652-1.1439 1.3665.8323.6246 2.6477.3638 2.8146-.4063Zm15.6429-1.8293c-.0281-.1071-.2775-1.0329-.5851-.78836-.4161.48316.0603 1.87996.4846 1.86576.2573-.0061.2332-.564.1005-1.0774Zm-.2312-1.09552-.0563-.15169.01.03034c.1086.34975.181.71147.2835 1.06317.0723.2527.1669.4994.2433.75-.1327-.5114-.3096-1.1946-.4805-1.69182ZM9.83879.978816C10.8963.625075 10.8963.625075 10.9265.606884V.602842c-.2473-.012123-1.66665.448738-1.8757.606408l.00401.01011c.07029-.00406.26732-.06671.78398-.240544Zm.14883.161704c.14678-.05458.88448-.331505.94078-.400229l-.012-.012124c-.2996-.020218-1.92192.511393-1.86365.671093.09044.04042.55684-.11927.93487-.25874Zm.49648.15362c.2252-.10107.8384-.396183.7118-.438633l-.0221-.004042c-.4946-.010109-1.92609.584175-1.73902.723645.06434.04649.396.0101 1.04932-.28097Zm4.2279.28097c.0121-.15766-.1246-.46289-.4925-.44874-.4202.05255-.7881.50937-.4965.75194.2894.24256.9589.09298.989-.3032Zm1.2143-.03032c-.0925-.19405-.4262-.44874-.7619-.42448-.3921.06468-.4665.50128-.1246.72767.3859.25672.975.11725.9166-.21628-.0059-.0283-.0181-.06265-.0301-.08691Zm1.1982-.07681c-.197-.18394-.6815-.42852-.9972-.39214-.3015.07074-.1467.45278.187.65895.4323.26682 1.0152.22842.9489-.06265-.006-.0283-.0321-.10512-.1387-.20416Zm.9871-.10916c-.3197-.19606-.8925-.398195-1.1217-.35576-.2052.07682.1829.44874.601.64279.5026.23246.9088.18799.8142-.01819-.016-.0384-.0784-.13745-.2935-.26884Zm.7157-.13542c-.39-.1799-1.0213-.365867-1.1761-.31736-.1327.10309.9188.68928 1.4495.74588.1991.02223.2694-.03437.177-.14352-.0704-.08287-.2353-.18596-.4504-.285Zm.4262-.15363c-.4724-.179896-1.0896-.327453-1.16-.278946-.006.080859.8082.418426 1.0656.513426.404.14958.7055.21426.7539.1617.0482-.05053-.185-.21425-.6595-.39618Zm-7.9672.35172c.2614-.1516.593-.40023.4685-.448741l-.0563-.008083c-.4967.010109-1.6867.547774-1.522.749914.0925.11117.5871.01011 1.1098-.29309Zm1.0032.09095c.2091-.17585.386-.44267.1548-.46288l-.0382-.00202c-.5226.0283-1.4495.55586-1.2182.77417.1507.1415.7116.01618 1.1016-.30927Zm1.1499.05256c.1046-.1617.1568-.46289-.187-.46086-.5025.04244-1.1519.55789-.8604.78428.2212.16979.8223.02627 1.0474-.32342Zm5.9227-.652893c-.4423-.147557-.8846-.246608-.9852-.236499l-.0059.010109c.0884.076807 1.6585.644813 1.759.580133-.0019-.06064-.4-.23044-.7679-.353743ZM19.1469.7504c-.4603-.14149-.8182-.218308-.9006-.220323l.012.01415c.0141.006056 1.7552.563953 1.8557.570013-.0221-.04043-.5629-.240542-.9671-.36384ZM16.9134.226869c-.3941-.056589-.7257-.074781-.7478-.062657.02.004041.0261.004041.0723.010109.5388.038409 1.0695.113189 1.5862.220323L17.806.388576c-.0059 0-.4362-.097024-.8926-.161707ZM11.809.412835c.4343-.078833.7177-.119257.9449-.151599.1709-.024259.177-.026273.1951-.032341V.226869c-.2473-.026274-1.6004.185966-1.9341.321399.0141.004042.0141.004042.7941-.135433Zm-.008.095009c.3618-.076818.7318-.113201 1.0876-.220334V.281454c-.3257-.012135-1.7329.226391-1.9883.38203v.012124c.0744.008094.2332-.026274.9007-.167764Zm.1929.092984c.9469-.246608.9469-.246608.9631-.256717l-.0121-.006068c-.382 0-1.8716.303209-1.9219.448739.0482.050533.5266-.068724.9709-.185954Zm3.0318.204146c-.0423-.113189-.2232-.321389-.384-.309265-.1991.040424-.4041.400233-.1408.568001.2272.14554.5971.03032.5368-.226395l-.012-.032341Zm.7318-.032342c-.163-.135422-.5308-.305223-.6675-.289046-.1307.040424-.0281.361823.2533.519474.2634.14756.581.11725.5488-.050529-.006-.038397-.0362-.099039-.1346-.179899Zm.6554-.056589c-.2896-.137459-.7821-.280975-.8927-.260758-.0864.046492.4041.418413.8162.537681.2594.076804.4443.048504.39-.058626-.02-.034357-.0864-.111175-.3135-.218297Zm.5025-.072777c-.3919-.129365-.975-.250637-1.0454-.228405.0141.052548.7721.361813.967.424481.5529.179898.5911.092983.5951.080848.0101-.046492-.1468-.153614-.5167-.276924Zm.3378-.086915c-.5047-.129366-1.0998-.21224-1.1278-.190008.1145.072777 1.7611.574064 1.8173.458849-.0322-.072766-.3699-.185967-.6895-.268841ZM12.392.685717c.1648-.056601.7077-.244582.7599-.280965l-.004-.008082-.016-.002026c-.5208.016176-1.8597.418424-1.7049.513422.0262.018191.1749.050533.965-.222349Zm.5389.064683c.0059-.002015.5085-.248623.5226-.301182l-.0341-.008083c-.4544.030327-1.5662.438631-1.3912.557888.0643.040437.3638.012137.9027-.248623Zm.6432.04245c.0845-.068724.3478-.311291.2292-.319373h-.0201c-.376.038409-1.2083.448739-1.0012.584173.1026.0667.4624-.00203.7921-.2648Zm.7117.018192c.0321-.072766.0905-.327456-.0884-.319374-.2574.038409-.7861.406289-.589.576082.1367.11927.5528.02224.6774-.256708ZM17.412.463368c-.5066-.103081-1.1037-.173831-1.1379-.151599.0141.006068 1.8235.450766 1.9621.410331-.016-.068725-.5146-.194049-.8242-.258732Zm-.0362-.092983c-.4604-.078833-.9629-.125314-.9932-.109149.0162.004042 1.7874.345648 1.8536.319374-.0462-.036383-.4222-.135434-.8604-.210225Zm-.2312-.092972c-.4142-.062668-.8021-.088942-.8625-.078833.0141.004041 1.7411.270855 1.7712.264788l-.008-.004042c-.1086-.036382-.4925-.121283-.9007-.181913Zm-2.521-.1799102c-.0121.0222442-.0141.0464912-.0221.0687352l.004-.002026c.0703-.032341.1306-.052559.2473-.0849007.0421-.0121237.0482-.0121236.0543-.0161648V.0611201c-.004-.0020149-.2473-.0323415-.2835.0363827Zm-.181.0020264c.0885.0303148.1327.0525588.1569.0667088V.164212c-.0021-.026274.008-.050533.004-.0747917l-.0181-.0202064c-.0463-.0181914-.2272-.0141499-.2393-.0040525.0021.0040527.0021.0040527.0965.0343678Zm-.1729.0101088c.1809.022232.2856.046492.3298.0566-.1569-.062668-.2694-.107133-.577-.0929829-.0242.0020149-.0242.002015-.0322.0040413.0061.0020149.0141.0040414.0904.0121239.0423.0040412.1127.0101087.189.0202177Zm-.1528.016165c.2554.01415.4142.032342.4826.040435-.1489-.026285-.5469-.0990502-.9509-.062668l-.0122.004041c.1589.016177.3198.008095.4805.018192Zm-.1146.018191c.3097.004053.5127.016177.5972.022244-.8022-.0788326-1.2003-.030326-1.2445-.024259l-.004.002015c.2171.020218.4343-.002015.6513 0Zm-.0743.022244c.3457-.008093.5729-.002026.6715 0-1.0033-.050532-1.4415.022233-1.4455.022233l-.0021.002015c.0202.002026.0644.002026.2273-.006056.1527-.006068.3417-.01415.5488-.018192Zm1.1921-.04245c-.1588.008083-.3196.022233-.5186.04245h.012c.4-.026285.7057-.030326 1.1299-.026285.1547.002026.1669 0 .1869-.002015-.0643-.016176-.4281-.034368-.8102-.01415Zm-.1447-.01415c-.1427.016165-.2694.038409-.3759.058615l.01-.002015c.3237-.038409.587-.052559.9087-.060641.0904-.002027.1005-.004041.1186-.004041-.0322-.0121356-.3377-.0283009-.6614.008082Zm-.1669-.0101088c-.0784.0181918-.1487.0444648-.209.0667088l.006-.002026c.183-.038409.3518-.062657.6011-.0828743.0643-.0060676.0704-.0060677.0824-.0080826-.0101-.0040412-.2673-.0222324-.4805.0262741Zm-.9067.0889418c.3619-.020218.5891-.022233.6997-.022233-1.1118-.01415-1.5461.072766-1.5501.074781.0101.006067.0946 0 .3377-.018192.1146-.008082.3097-.022232.5127-.034356Zm.0201.024259c.3539-.032342.573-.04245.6796-.046492-1.0816.022233-1.5199.11319-1.5501.12734.0221.004041.0805 0 .364-.030315.1789-.018192.3337-.034368.5065-.050533Zm.0664.024248c.2251-.032342.4242-.054575.6112-.07074h-.0121c-1.1922.068725-1.4917.185955-1.4917.185955.0201.008094.0201.008094.8926-.115215Zm.6272.04245c-.002-.038409-.016-.074792-.016-.11319l-.0021.002015c-.0824.058616-.1748.127351-.207.185967-.0523.094998.012.117242.0421.121283.0684.010097.1951-.038409.183-.196075Zm.181-.006068c-.0563-.036382-.1146-.066698-.197-.107122v.002015c.0241.054574.0301.115216.0563.167775.008.016165.0281.050533.0683.08489.0724.058626.1849.07075.203.020217.0101-.020218.0121-.072765-.1306-.167775Zm.1769-.010097c-.1488-.046492-.3056-.08086-.3739-.097025l.004.002015c.1789.072766.3397.18394.5206.25065.1005.036382.2092.048506.1971.010108-.0041-.024259-.0865-.0849-.3478-.165748Zm.1467-.016177c-.201-.038409-.392-.064683-.5206-.080848l.008.002015c.1427.028301.2432.052559.5046.125325.2171.060642.5428.153625.5709.117242-.0221-.038409-.2532-.105118-.5629-.163734Zm.1066-.020217c-.1869-.022233-.392-.042439-.6252-.060631l.01.002015c.2895.034368.4845.068724.8303.131393.2854.052547.4885.08893.5207.072765-.0603-.04245-.4162-.107133-.7358-.145542Zm.0623-.022233c-.2091-.016165-.4342-.0283-.6895-.038398h.012c.3619.024248.6192.054575 1.0615.111175.2775.036383.4262.054574.4705.048506-.0282-.0283-.4001-.086915-.8545-.121283Zm-1.1801.050533c.2453-.052548.3981-.076807.4926-.088931l-.0121.002015c-1.0615.10916-1.2605.228417-1.2625.230432.018.020218.018.020217.782-.143516Zm.1488.01415c.1407-.048506.2412-.078833.3438-.103081l-.0081.002015c-.768.129366-.9549.238526-.961.266815.0383.034367.2594-.040424.6253-.165749Zm.1689.008094c.0683-.048518.1125-.080859.1729-.111175l-.0061.002015c-.6795.19809-.5991.291073-.597.291073.004.002027.0944.056601.4302-.181913Zm.8785-.097025c-.2191-.010108-.4423-.01415-.7056-.01415h.014c.4222.012124.7217.034357 1.2304.080848.2513.022233.3297.028301.38.026274-.0362-.028288-.4906-.07478-.9188-.092972ZM15.273.15613c-.2071-.002027-.4223 0-.6735.010108h.014c.3941-.002026.7077.008083 1.2405.038398.2573.01415.3156.018191.3497.01415-.0261-.018191-.4382-.0566-.9307-.062656Zm.7921.008082c-.4805-.0283-.9691-.0283-1.4656.002026h.012c.4705-.020217.8202-.012135 1.2284-.002026.1829.004041.1949.004041.2212.002026l.004-.002026ZM5.48626 24.4325c-.37585-.4509-1.14587-.9157-1.29057-.8288-.17493.103.74174 1.0308 1.28862 1.2168.02416.0061.05633.0141.08037.0141.15478.0082.12272-.1616-.07842-.4021Zm9.48914.6447c.0784-.3435-.4745-.7014-1.4173-.6832-.967.0667-1.2345.4952-.8686.8409.5892.5538 2.1492.4467 2.2859-.1577Zm2.7101-.0687c.1748-.3497-.2816-.6893-1.2405-.6407-1.0856.1091-1.4716.6326-1.0152.9722.6151.4527 2.0043.1699 2.2557-.3315Zm2.6758-.1697c.2613-.3538-.0343-.6853-.969-.6004-1.13.1556-1.6446.7358-1.2063 1.0551.4926.3579 1.7732.0889 2.1753-.4547Zm2.2014-.2466c.3276-.3659.1829-.6328-.3297-.6065-.0624.004-.1449.0141-.2071.0243-1.0515.2102-1.6808.9035-1.2485 1.1662.38.2326 1.3309-.0787 1.7853-.584Zm1.5982-.3033c.3458-.3538.386-.6084.0965-.6084-.0703 0-.1548.0202-.211.0323-.8766.2608-1.6145 1.0795-1.2686 1.2553.2412.1233.9267-.2143 1.3831-.6792Zm.951-.3396c.3095-.3133.5547-.6246.406-.6185-.0321.002-.0845.0243-.1186.0384-.6434.3214-1.5038 1.2613-1.2907 1.3199.1186.0304.569-.3012 1.0033-.7398Zm-18.00319.7358c-.2593-.4124-1.11575-.754-1.32686-.5963-.22519.1678.43218.8025 1.06149.9197.40206.0486.34974-.19.26537-.3234Zm2.09481.192c-.08243-.2244-.50865-.4851-1.01317-.5135-.49858.0042-.41214.273-.24133.4428.40813.4022 1.27465.5033 1.26858.1455 0-.0242-.00606-.0545-.01408-.0748Zm2.78848.1576c-.0242-.301-.569-.6305-1.341-.6427-.73574.0283-.8564.3658-.5468.663.5729.5498 1.932.5336 1.8878-.0203Zm-3.75139 1.6171c-.52273-.3153-1.18216-.6245-1.24043-.5801.01603.1051 1.09961.6954 1.52583.8308.03423.0101.04225.0101.06033.0101l.00607-.0121c-.02816-.0425-.14676-.1254-.3518-.2487Zm6.67649.4509c.0603-.2244-.3418-.4569-1.0393-.4468-.6776.0424-.8344.2971-.5911.5094.4141.3617 1.5258.3194 1.6304-.0626Zm1.9079-.0486c.1889-.2304-.0925-.4528-.8102-.4164-.7679.0708-1.0736.38-.8243.5983.3558.3134 1.361.1516 1.6345-.1819Zm1.8816-.1172c.2393-.1861.2052-.3416-.0883-.3921-.1548-.0264-.3318-.0102-.4263-.0021-.8846.1152-1.2946.5033-1.0835.6873.2593.2264 1.2022.0121 1.5981-.2931Zm1.5481-.1739c.3116-.1941.394-.3537.205-.3961-.0984-.0222-.2432-.0021-.3216.008-.8463.1577-1.4897.657-1.2685.7883.197.1153.9468-.1273 1.3851-.4002Zm1.1258-.2142c.3861-.2204.5709-.3962.4383-.4184-.0482-.0082-.1166.0081-.1849.0222-.7218.1981-1.5943.7843-1.4476.855.1006.0526.7158-.186 1.1942-.4588Zm.1367.0485.7318-.4023.0443-.0263c.2673-.1616.396-.2466.4322-.289l-.0081-.0081c-.0241.0061-.0342.0081-.0824.0283-.4644.2041-1.5037.8227-1.5882.9076.0563.008.4645-.2082.4704-.2102Zm-11.97996.2648c-.31357-.2345-.92079-.5216-1.35697-.5761-.06239-.002-.24934-.0121-.13074.1314.26744.3214 1.65463.8772 1.68474.6751.00801-.0465-.06434-.1313-.19703-.2304Zm1.57616.1415c-.1749-.1981-.7338-.4912-1.33082-.5276-.49457 0-.27144.2365-.22118.283.38798.3679 1.6686.7318 1.6265.378-.0061-.0385-.0322-.0829-.0745-.1334Zm1.8053.0828c-.0743-.2243-.5829-.4729-1.2243-.4851-.595.0202-.5347.2466-.406.376.406.4144 1.6022.5438 1.6404.1798.0021-.0222-.0019-.0504-.0101-.0707Zm1.922 1.0531c.0361-.0707-.175-.1738-.577-.1698-.3216.0142-.3578.0911-.3035.1395.1346.1153.8081.1658.8805.0303Zm.9409-.0222c.1125-.0465.1287-.095.0463-.1273-.1026-.0404-.2916-.0324-.3539-.0303-.4222.0323-.5951.1475-.5227.2102.0985.0889.6293.0282.8303-.0526Zm.9308-.0607c.2111-.0545.3176-.1131.2634-.1415-.0483-.0282-.2132-.014-.2675-.01-.5065.0546-.8905.2203-.8846.2688.0503.0284.5711-.0344.8887-.1173Zm.7639-.0848c.1005-.0222.4363-.1011.4966-.1576l-.006-.0122c-.0322-.006-.0644-.0041-.1569.008-.4443.0708-1.2644.3134-1.2705.3154.1991-.0263.4644-.0646.6634-.097l.0463-.008c.0603-.0142.1407-.0284.2271-.0486Zm-5.2934.0486c-.3819-.0871-.7578-.2083-1.1459-.2608l-.0362-.0021c.0544.0688.8223.2143 1.0736.2608.1569.0263.3678.0586.5247.0829h-.004c-.1106-.0162-.2452-.0425-.4122-.0808Zm.7781.0707c-.4544-.1335-.7881-.2062-1.0173-.2224-.0684-.002-.0884.002-.0985.0162.0482.1152 1.2102.2931 1.337.2789-.0122-.0101-.0141-.0121-.2212-.0727Zm.8926.0404c-.1226-.0749-.4603-.184-.8262-.1921-.2193.0041-.1971.0486-.1649.0768.1346.1112 1.0594.2568 1.0414.1637l-.0503-.0484Zm1.7491-.3881c.1226-.1557-.1348-.3194-.6956-.3012-.581.0425-.6996.2365-.5629.3618.2713.2466 1.0795.1699 1.2585-.0606Zm1.4715-.0647c.185-.1153.179-.2183-.02-.2668-.1388-.0323-.3036-.0222-.4001-.0162-.6675.0687-.9671.3194-.8363.4488.1789.1759.9509.0222 1.2564-.1658Zm1.3128-.1132c.2715-.1233.368-.2304.2494-.2729-.0825-.0302-.2353-.0122-.3197-.004-.7237.1071-1.2444.4326-1.1399.5275.1085.095.8021-.0666 1.2102-.2506Zm1.0093-.1476c.3497-.1394.5508-.2648.4784-.2951-.0362-.0161-.1427.0021-.1949.0121-.5831.1233-1.3551.4872-1.4114.5822l.008.0121c.1106.0243.7238-.1536 1.1199-.3113Zm-1.9562.568c.4262-.0828.5549-.1091 1.0474-.2303l.0141-.0042c.0986-.0262.205-.0586.2433-.0768-.008-.004-.0101-.004-.0865.0121-.41.0911-.8101.2104-1.2183.2992Zm2.6316-.7417c.2996-.1173.6454-.2669.6937-.3174-.0141-.0061-.0182-.0081-.1006.0161-.4162.1315-1.5923.6307-1.6264.6489.0522.004.3237-.091.9168-.3012l.028-.0102c.0263-.0121.0624-.0262.0885-.0362Zm-9.7504.2606c-.1507-.0626-.92075-.3839-1.2705-.4467-.03824-.004-.0443-.004-.05839.0021.06034.1475 1.56009.6347 1.71289.6307-.0101-.0182-.0201-.0324-.384-.1861Zm1.0796.1275c-.2654-.1436-.8243-.364-1.2324-.4003-.0603-.002-.19897-.006-.1247.0768.1871.2042 1.5883.6327 1.5602.477-.0041-.0302-.0784-.0849-.2031-.1535Zm1.2907.0848c-.1488-.1395-.6192-.3416-1.1158-.3618-.3317.004-.2714.1091-.2312.1537.193.2101 1.3912.5457 1.4093.3132.004-.0384-.0422-.0869-.0623-.1051Zm1.4253.0385c-.024-.1537-.4121-.3255-.9328-.3276-.4362.0182-.4885.1537-.3518.2709.3438.2972 1.3289.3397 1.2846.0567Zm-10.45401-4.922c-.32766-.4973-.93281-1.0006-1.04741-.9602-.1407.0505.6735 1.1886 1.09766 1.4088l.03217.0122c.14872.0424.11059-.1677-.08242-.4608Zm12.85451.8792c.1247-.3982-.4483-.8005-1.5018-.762-1.1338.097-1.5058.6529-1.0594 1.0471.6513.574 2.3521.386 2.5612-.2851Zm3.098-.1354c.2051-.4022-.2393-.7903-1.3128-.7135-1.2002.1455-1.6767.762-1.2103 1.144.5951.4851 2.1974.2123 2.5231-.4305Zm2.7683-.2406c.2272-.3537.0865-.7984-.9449-.6771-1.164.2001-1.7329.8894-1.2926 1.2391.5106.4062 1.8273.0748 2.2375-.562Zm2.125-.3112c.3317-.4568.1508-.7601-.4041-.6772-.0302.0041-.0704.0121-.1005.0182-1.0173.2567-1.6304 1.0613-1.2162 1.3583.3718.2689 1.2906-.105 1.7208-.6993Zm1.4254-.3618c.3358-.4448.3598-.7338.0563-.6874-.0403.0061-.0905.0224-.1307.0345-.8263.3254-1.5058 1.328-1.1219 1.4654.2433.087.8022-.2931 1.1963-.8125Zm-20.68505.5761c-.13864-.2709-.57288-.6206-.97506-.6853-.39199-.0262-.18695.3315-.02404.5235.39199.4629.9991.6772 1.04741.3699.01202-.0788-.03022-.1718-.04831-.2081Zm2.01249.1656c-.08048-.2466-.49261-.5376-.97917-.576-.48449-.004-.40607.3093-.20103.5235.44832.4649 1.19623.4912 1.19417.1354 0-.0262-.00595-.0586-.01397-.0829Zm2.83266.2144c-.0363-.3032-.54895-.6429-1.25851-.6671-.76406.0202-.74586.4326-.44236.7115.62118.566 1.75707.4406 1.70087-.0444Zm3.2327.1132c.0382-.378-.573-.7803-1.542-.7783-1.0775.0607-1.174.5761-.8304.9096.6434.6227 2.3061.5296 2.3724-.1313Zm13.0675-1.1865.3941-.5357.0302-.0445c.1809-.2648.2351-.3659.2211-.4003-.0201-.004-.0302 0-.0884.0405-.585.4609-1.2747 1.5281-1.1038 1.516.1166-.006.5428-.5701.5468-.576ZM6.24826 25.5118c-.4363-.3496-.98307-.7034-1.10774-.7377l-.01008.008c.01008.0182.03618.0647.37596.3295l.53682.4002c.35375.2507.4664.3052.50864.3275.03618.0141.03618.0141.05026.0061-.02014-.0627-.25541-.2547-.35386-.3336Zm9.86904.6732c.1267-.2891-.3035-.5782-1.1459-.5519-.9067.0727-1.1821.465-.8142.752.5488.4285 1.7712.2324 1.9601-.2001Zm2.3784-.1051c.2391-.2952-.0664-.5742-.9048-.5156-.9469.1093-1.3832.5519-1.0615.8248.4283.3659 1.6225.1172 1.9663-.3092Zm2.1249-.182c.3036-.2789.201-.4993-.2352-.5113-.1066-.0021-.2171.01-.2956.018-.977.1578-1.568.6914-1.2324.9319.3499.2506 1.3329-.0424 1.7632-.4386Zm1.6304-.2406c.3378-.2707.4021-.4811.1569-.5114-.0925-.0101-.1871.0061-.2795.0243-.8585.2022-1.5963.8348-1.3309 1.0208.2232.1577.9992-.1678 1.4535-.5337Zm1.0937-.2789c.3699-.283.5488-.4992.4342-.5235-.0422-.0101-.1085.0101-.1709.0303-.7237.2628-1.5721 1.0046-1.4173 1.0955.1066.0628.6655-.2284 1.154-.6023Zm-15.8219.4103c-.43825-.4204-1.28256-.7883-1.42337-.6711-.15478.1315.79016.849 1.40333.9945.0261.0041.06228.0101.09044.0101.16692.0041.13876-.1334-.0704-.3335Zm1.73499.2102c-.32365-.4346-1.3509-.766-1.61639-.5922-.27739.1819.51678.8147 1.31083.9278.58501.0465.31769-.3214.30556-.3356Zm1.97831.1214c-.0865-.2365-.581-.5034-1.1801-.5256-.52071.0101-.53879.2304-.33582.4306.44832.4406 1.51992.5618 1.52992.1718 0-.0223-.006-.0546-.014-.0768Zm2.4787.0829c.0101-.2851-.5206-.5924-1.3248-.5924-.776.0404-.9207.3639-.6091.6408.5608.5013 1.9159.467 1.9339-.0484Zm9.3444-.5216c.4443-.3254 1.0293-.7721 1.4536-1.1259l.0141-.0141.0059-.0081c-.0141.004-.0141.004-.0583.0323-.4825.3274-1.4233 1.0734-1.4797 1.1522.0122-.0021.0202-.004.0644-.0364ZM1.93591 19.5125c-.12868-.4508-.53475-.9965-.82016-1.1016-.357874-.0607.09239 1.0288.36783 1.4027.24935.3376.44431.3094.48656.085.01408-.0708.02003-.1941-.03423-.3861Zm14.84079 1.0228c.1005-.4225-.4503-.9823-1.743-.9339-1.3611.1253-1.7731.8632-1.1419 1.3564.8323.6508 2.6939.3799 2.8849-.4225Zm3.5766-.1577c.1587-.4891-.4142-.9621-1.6164-.8752-1.3611.1739-1.8395.9277-1.2646 1.3987.758.6246 2.6175.2871 2.881-.5235Zm3.1964-.2749c.1609-.4264-.1306-.9642-1.2806-.8267-1.3108.2365-1.8153 1.0754-1.2202 1.5059.7076.5134 2.2054.1071 2.5008-.6792Zm2.4548-.3598c.1729-.4305.024-.9642-.8484-.7964-1.1359.3012-1.5923 1.2755-.9911 1.6373.5548.3336 1.5519-.1213 1.8395-.8409Zm1.747-.4325c.193-.4852.2271-1.1279-.4664-.9056-.9992.4245-1.4858 1.7303-.9269 2.0072.4102.2042 1.0877-.3315 1.3933-1.1016Zm-23.95994.7054c-.05632-.2991-.41214-.6772-.83229-.7418-.47453-.0263-.36989.4992-.05232.8408.39405.4266.8766.3659.89263.004.00206-.0302-.00195-.0727-.00802-.103Zm2.58732.1091c-.05426-.6366-1.27053-1.1541-1.75709-.7478-.41007.3415.08049 1.1279.96498 1.2613.66549.0505.8102-.3134.79211-.5135Zm3.08807.3194c.00996-.4042-.56898-.857-1.44753-.8833-.99119.0324-1.06755.6347-.68357 1.0188.71174.7115 2.11301.5053 2.1311-.1355Zm3.61465.1132c.0543-.3981-.5027-.948-1.6887-.9419-1.1601.0728-1.49172.7054-.9931 1.1825.7458.7115 2.5753.5478 2.6818-.2406Zm15.3394-1.6898c.1005-.2709.3115-.8935.1205-.8187-.022.0081-.0462.0284-.0662.0425-.585.5235-.9148 1.8071-.6494 1.7909.1387-.0081.3678-.3962.5951-1.0147ZM2.11084 21.0043c-.23515-.467-.65736-1.0471-.73384-1.0653 0 .0161.00206.0303.03629.1011.15478.3193.38799.7337.55479 1.047l.13875.2305c.08243.1334.11059.1637.13669.192.0221.0182.02611.0201.04019.0182.03617-.0546-.06434-.3093-.17287-.5235Zm1.31083.4911c-.13669-.3456-.55296-.7297-.87053-.8045-.35582-.0383-.08243.4973.13463.7783.39806.5133.74586.5174.77803.2708.01213-.093-.0261-.2021-.04213-.2446Zm11.49343.7054c.0824-.4163-.5328-.8469-1.5802-.8267-1.1238.0829-1.4575.661-.9871 1.0835.6996.6266 2.4266.4547 2.5673-.2568Zm3.4036-.0768c.1528-.4486-.4423-.8873-1.5742-.8267-1.2987.1375-1.735.8187-1.168 1.2593.7298.5619 2.4969.285 2.7422-.4326Zm3.2649-.2062c.1789-.39-.1226-.8873-1.347-.7741-1.3188.192-1.8355.952-1.2404 1.3583.6916.475 2.2637.1193 2.5874-.5842Zm2.6838-.3011c.2092-.3962.0624-.8873-.9126-.7439-1.1922.2507-1.727 1.0795-1.1902 1.4494.5589.384 1.7369-.0122 2.1028-.7055Zm1.9501-.3699c.2091-.374.2654-.9015-.4704-.7257-.987.3134-1.5219 1.2776-1.0454 1.5606.3839.2263 1.164-.2022 1.5158-.8349Zm1.1601-.4144c.2251-.4083.3457-.8187.0764-.76-.0322.0081-.0724.0263-.1026.0384-.7278.3982-1.2846 1.5746-.9047 1.6474.2372.0465.6595-.4345.9309-.9258Zm-22.09031.8409c-.07041-.2648-.4624-.5943-.91072-.6468-.47648-.0142-.38798.382-.1146.661.43424.4467 1.03539.4304 1.03734.0768 0-.0284-.00596-.0647-.01202-.091Zm2.68382.2931c-.03411-.285-.47041-.6125-1.06744-.6448-.66549.008-.64133.4265-.33177.7095.55891.5114 1.45153.3861 1.39921-.0647Zm3.46999.2001c.0161-.4083-.6192-.855-1.59018-.8692-1.10178.0486-1.17413.6569-.7399 1.039.73384.6448 2.30188.5296 2.33008-.1698Zm16.1194-1.3927c.1729-.3437.4122-.7984.5689-1.1501l-.0019.004-.0242.0404c-.384.6347-.8504 1.4412-.8846 1.6778.0201-.0102.3377-.5681.3418-.5721ZM.794052 17.384c-.092502-.5599-.375961-1.1401-.480484-1.1987-.094448-.0525-.038238.2851.036176.659l.016027.0809.040299.1899c.132686.5923.209046.7722.285406.8591l.020148.0162c.092502.0445.148714-.2082.082428-.6064Zm1.320788.378c-.02816-.3092-.30349-.7115-.62919-.7863-.41615-.0364-.23927.7136.02404 1.0147.27144.3093.57699.194.60515-.1213.00206-.0324.00206-.0747 0-.1071Zm12.90476.9501c.0805-.4549-.5086-1.0674-1.8274-1.0391-1.3832.1112-1.7873.9016-1.1339 1.4454.8684.7235 2.8065.4568 2.9613-.4063Zm3.6489-.0931c.1045-.4568-.4584-1.0511-1.7852-.9783-1.4133.1597-1.8637.9622-1.2264 1.4837.8424.6913 2.8125.3618 3.0116-.5054Zm3.6006-.2284c.1186-.4547-.3076-1.041-1.6244-.9156-1.4294.2204-1.8897 1.1138-1.1761 1.5948.8544.5801 2.5814.1617 2.8005-.6792Zm2.9593-.3314c.1207-.4589-.1769-1.033-1.2223-.8733-1.2545.279-1.6666 1.2614-.9892 1.6899.7359.4649 1.9964 0 2.2115-.8166Zm2.328-.4225c.1308-.5134-.012-1.2391-.9488-1.0107-1.2203.4144-1.5963 1.7687-.8424 2.1588.6433.3315 1.5641-.2588 1.7912-1.1481Zm1.1037-.4427c.0865-.3801.1268-1.045-.3437-.8308-.7499.4507-.9529 1.8011-.4444 1.892.2936.0525.6394-.4143.7881-1.0612ZM4.32631 18.2087c-.00606-.3174-.36394-.7095-.86652-.7641-.59302-.0121-.58901.5518-.27132.8976.45827.4992 1.14792.3395 1.13784-.1335Zm3.0156.2729c.01809-.3881-.4664-.8287-1.21833-.8672-.88655.0182-.95891.6368-.57298 1.0289.61523.6246 1.7612.4245 1.79131-.1617Zm3.65489.1738c.0462-.3921-.4644-.942-1.53993-.954-1.19417.0606-1.33498.7822-.84442 1.2209.71574.6387 2.29995.4628 2.38435-.2669Zm18.0614-2.0881.1045-.6791.0021-.0142v-.0343c-.0141.004-.0141.004-.0382.0465-.3216.6832-.5046 1.8697-.3739 1.9082.0803-.0486.3036-1.2149.3055-1.2271ZM.52868 13.2848c.070293-.4528-.024154-.9562-.148827-1.0491-.034116-.0101-.126618-.0384-.205039.6225-.028163.2345-.080368.7944.020148.948.088381.1355.251292-.0889.321584-.4467.004122-.0202.010074-.0505.012134-.0747Zm1.38513.4446c.07636-.4042-.13463-.9237-.56085-1.0188-.572988-.0464-.66343.9845-.35181 1.3927.28346.37.81215.1537.91266-.3739Zm13.08579.7924c.0884-.5134-.581-1.0511-1.8155-1.0228-1.3811.1092-1.8274.8955-1.2102 1.4391.8384.7419 2.8748.4609 3.0257-.4163Zm3.695-.0708c.0704-.5053-.6212-1.0106-1.8616-.946-1.3992.1497-1.8254.9339-1.1821 1.4473.9006.7156 2.9191.3821 3.0437-.5013Zm3.6469-.3011c.0402-.471-.4885-1.0794-1.7872-.9541-1.4033.2223-1.7611 1.1623-.9931 1.6757.9629.6448 2.7039.192 2.7803-.7216Zm3.1463-.3457c.014-.5255-.4825-1.1845-1.6245-1.0086-1.3871.3194-1.6284 1.4452-.7457 1.9688.9488.5639 2.3461-.0021 2.3702-.9602Zm2.1632-.4185c-.0141-.4972-.364-1.2066-1.2404-.9883-1.14.4043-1.162 1.7323-.2856 2.1406.754.3517 1.5521-.2507 1.526-1.1523Zm1.2082-.4588c-.0342-.4164-.2292-1.142-.7277-.9096-.752.4892-.5188 1.9991.1327 2.1124.4321.0747.6453-.566.595-1.2028ZM4.0227 14.0084c.07041-.3437-.20504-.75-.72777-.8046-.68953-.0121-.81614.6954-.46434 1.0634.37791.3981 1.0916.2424 1.19211-.2588Zm3.04583.3497c.07842-.3861-.31964-.8248-1.03539-.8611-.93487.0202-1.09972.7539-.66137 1.1522.53075.485 1.57815.3031 1.69676-.2911Zm3.90417.1111c.0905-.4608-.4905-.9602-1.50175-.9722-1.20024.0606-1.58227.8227-.97905 1.328.73372.6165 2.336.3861 2.4808-.3558Zm18.2544-1.4109c-.0362-.3598-.0905-.8388-.1508-1.1946l-.004-.0202c-.0242-.1354-.0623-.3376-.1186-.2465l-.012.0262c-.2252.6589.0925 2.0597.2532 1.9446.0765-.0546.0322-.5055.0322-.5095ZM.214997 15.1545c-.016028-.4467-.114597-.8854-.1226112-1.3341l-.0040069.4386c.0220951.475.0502591 1.1097.1005171 1.5828v.0019c.022095-.0302.038236-.3436.026101-.6892Zm1.029323.4528c.00812-.5034-.263316-1.0795-.560858-1.1846-.450376-.0606-.287466 1.2755-.032168 1.6454.231255.3336.516656.1132.579056-.2951.00801-.0505.01397-.1152.01397-.1657Zm15.63098 1.0854c.0824-.4811-.5148-1.1198-1.8536-1.0672-1.4898.1474-1.7974 1.045-1.2083 1.5503.8705.7519 2.903.4306 3.0619-.4831Zm3.7855-.1677c.0824-.467-.4343-1.1077-1.8074-1.0027-1.379.188-1.8536 1.0592-1.2142 1.597.8523.7174 2.8567.3234 3.0216-.5943Zm3.3835-.2932c.0764-.4811-.3499-1.0935-1.5359-.9479-1.3571.2587-1.7471 1.2108-1.0374 1.708.8665.6084 2.4305.1455 2.5733-.7601Zm2.7563-.39c.0724-.5519-.2876-1.2372-1.3108-1.037-1.3008.3679-1.5923 1.6434-.7539 2.1123.8062.4467 1.944-.1455 2.0647-1.0753Zm1.7189-.4509c.0542-.5518-.1307-1.2835-.8584-1.0429-1.0254.4689-1.1561 1.9667-.4102 2.2962.5649.2486 1.1821-.3599 1.2686-1.2533Zm-25.72909.7339c.02003-.3113-.23927-.6994-.64534-.7601-.52273-.0222-.53887.6266-.2332.9702.32364.3659.84832.2406.87854-.2101Zm2.6275.1415c.03423-.3316-.30556-.7157-.86847-.7561-.71769.0061-.77997.6307-.40813.9763.43835.4063 1.22634.2709 1.2766-.2202Zm3.72528.3274c.05426-.4023-.40207-.9723-1.40116-1.0006-1.15399.0465-1.30076.849-.78009 1.3098.6956.6145 2.08279.4184 2.18125-.3092Zm3.79971.1193c.0704-.4488-.4765-1.0653-1.6888-1.0573-1.32888.091-1.5962.9218-1.0675 1.415.7921.7358 2.6215.4993 2.7563-.3577Zm16.2601-1.7869c.0161-.2648.0402-1.1077-.2714-.8672-.5127.5256-.4986 1.9991-.1045 1.989.2151-.006.3438-.568.3759-1.1218Z"/>
  	<linearGradient id="a" x1="-3.01365" x2="31.2944" y1="23.6844" y2="23.6844" gradientUnits="userSpaceOnUse">
  		<stop stop-color="#47B547"/>
  		<stop offset="1" stop-color="#FFDA5A"/>
  	</linearGradient>
</svg>