<svg xmlns="http://www.w3.org/2000/svg" viewBox="0 0 155 40">
	<path fill="#0DB14B" d="M17.1663 10.905v8.6618H8.58318V10.905H.0135091v25.9992H8.58318v-8.6755h8.58312v8.6755h8.5697V10.905h-8.5697ZM8.58316 4.39818c0-.85842-.25205-1.69768-.72421-2.41119C7.38678 1.27331 6.71573.717245 5.93077.38947 5.1458.0615268 4.28221-.0235529 3.44936.14491 2.6165.313373 1.85186.727751 1.2522 1.33584.652553 1.94394.24489 2.71812.0808246 3.56044c-.1640644.84231-.07714889 1.71497.2497404 2.50728.32689.79232.879055 1.46889 1.586565 1.94394.70752.47488 1.53859.72707 2.38795.72436.56293 0 1.12035-.11237 1.64026-.33049.51993-.21812.99214-.53793 1.38958-.94079.39744-.40302.71227-.88129.92647-1.40752.21421-.52624.32355-1.08993.32177-1.65904Zm17.15284 0c-.0002-.85672-.2512-1.69429-.7215-2.40696-.4704-.71283-1.1391-1.268723-1.9218-1.597853-.7825-.3291297-1.644-.4165802-2.4757-.251507-.8318.165243-1.5966.575724-2.1977 1.17958-.6013.60403-1.0121 1.37431-1.1808 2.21391-.1687.83961-.0875 1.7109.2333 2.50407.3206.79317.8665 1.47244 1.5687 1.95224.7021.47997 1.5292.73893 2.3768.74436.5659.00355 1.1268-.10593 1.6506-.32236.5238-.21642 1-.53538 1.4014-.93841.4015-.40319.72-.88265.9374-1.41075.2173-.52793.3293-1.09433.3293-1.66632Z"/>
	<path fill="#303E50" d="M42.7093 3.41217H40.27V.897976h4.0883V0h-4.9042v8.54834h3.2552c.6515 0 1.2763-.27054 1.737-.75216.4606-.48162.7194-1.13483.7194-1.81592 0-.6811-.2588-1.3343-.7194-1.81592-.4607-.48162-1.0855-.75217-1.737-.75217Zm0 4.328H40.27V4.31004h2.4393c.4351 0 .8523.18073 1.16.50237.3076.32164.4805.75785.4805 1.2127 0 .45484-.1729.89117-.4805 1.21269-.3077.32164-.7249.50237-1.16.50237ZM57.023 5.15413h-3.1177V2.73866h-.8159v5.85453h.8159V6.00714h3.1177v2.58605h.8161V2.73866h-.8161v2.41547Zm-7.9815-2.55001c-.7367.02309-1.4588.21956-2.1128.57466l.395.74525c.5328-.28583 1.1193-.44525 1.7178-.4669.1811-.00848.3617.02366.5299.09428.1682.0705.3199.17783.4452.31472.1253.13688.2211.30021.2811.47905.0599.17873.0826.36894.0665.5576v.29631c-.5959-.14827-1.2096-.20271-1.8209-.16166-.4991.01729-.9738.22994-1.3301.59587-.3564.36581-.5682.85814-.5938 1.37959-.0035.22625.0364.45094.1176.66079.0811.20974.2018.4004.3548.56039.1893.18921.4131.33681.658.43398.2449.09717.5061.14191.7677.13175.6704-.02833 1.3144-.28002 1.8382-.71835v.52981h.8159V4.90278c.0167-.30033-.0264-.60111-.1266-.88314-.1002-.28204-.2553-.53919-.4555-.75529-.2003-.2161-.4413-.38634-.7078-.50003-.2664-.11368-.5525-.16823-.8402-.1602Zm-.5582 5.34267c-.1561.01037-.3125-.01216-.46-.06616-.1476-.054-.2832-.13834-.399-.24812-.0762-.0801-.1359-.17548-.1757-.28047-.0399-.10498-.059-.21732-.0562-.33011 0-.7274.6356-1.05963 1.2197-1.13148.5779-.03224 1.1573.02833 1.7177.17962v.72739c-.2014.32811-.4731.60278-.7936.80226-.3206.19947-.681.31829-1.0529.34707Zm15.147.6464h1.0135l-2.4479-3.43002 2.2589-2.42451h-1.1423l-2.7743 2.98121V2.73866h-.8159v5.85453h.8159V6.94997l1.0823-1.16729 2.0098 2.81051ZM43.443 30.6247c.5883.001 1.1531.2408 1.5791.6696l1.0765-1.2002c-.7149-.7224-1.6669-1.1244-2.6556-1.1219-.523-.0255-1.0449.0615-1.5352.2556-.4903.1941-.9387.4914-1.3166.8739-.379.3825-.6803.8422-.8866 1.3515-.2053.5092-.3115 1.0572-.3115 1.611 0 .5539.1062 1.102.3115 1.6112.2063.5091.5076.9689.8866 1.3514.3779.3825.8263.6798 1.3166.8739.4903.1941 1.0122.2811 1.5352.2556.9887.0026 1.9407-.3994 2.6556-1.122l-1.0765-1.2002c-.4239.432-.9898.6724-1.5791.6698-.3136.0197-.6292-.0286-.9254-.1422-.2952-.1136-.5669-.2901-.7957-.5186-.2298-.2284-.4127-.5041-.5373-.81-.1246-.3059-.1889-.6356-.1889-.9689 0-.3331.0643-.6629.1889-.9687.1246-.3059.3075-.5817.5373-.8101.2288-.2285.5005-.405.7957-.5186.2962-.1136.6118-.162.9254-.1421Zm26.8969 1.6002h-3.577v-3.0701H65.193v7.8014h1.5699v-3.0788h3.577v3.0788h1.5617v-7.8014h-1.5617v3.0701Zm-22.4224-1.4176h2.3921v6.1489h1.5699v-6.1489h2.4014v-1.6525h-6.3634v1.6525Zm61.3385-1.6525h-6.363v1.6525h2.401v6.1489h1.562v-6.1489h2.4v-1.6525Zm-27.7585 0H76.178l-.0654.748s-.2635 2.7831-.5097 4.3486c-.1399.8697-.6087 1.0958-.9703 1.0958h-.5424v2.9657h1.5617v-1.348h5.0806v1.3133h1.5617v-2.9658h-.8212l.0245-6.1576Zm-4.3492 5.3401c.1726-1.0958.3534-2.7396.4443-3.6876h2.3421v4.5051h-3.0162c.1062-.2621.1838-.5364.2298-.8175Zm20.3919-5.5141c-.8447.0113-1.6629.317-2.3268.8698v-.661h-1.5617v10.8106h1.5617v-3.6963c.6619.557 1.4811.8632 2.3268.8697.5229.0256 1.0449-.0614 1.5352-.2556.4902-.1941.9386-.4913 1.3166-.8738.379-.3826.68-.8423.887-1.3515.205-.5092.311-1.0573.311-1.6111 0-.5539-.106-1.102-.311-1.6111-.207-.5092-.508-.969-.887-1.3514-.378-.3825-.8264-.6798-1.3166-.874-.4903-.1942-1.0123-.281-1.5352-.2555v-.0088Zm0 6.5317c-.4556-.0017-.8999-.1461-1.2768-.4147-.3779-.2685-.671-.6496-.8447-1.0947-.1726-.445-.2165-.9344-.1277-1.4062.0899-.4719.3105-.905.6323-1.2446.3228-.3398.7323-.5708 1.1787-.6641.4464-.0932.909-.0445 1.3288.1401.4198.1846.7794.4966 1.0317.8969.2523.4003.3871.8708.3871 1.352-.002.6467-.2462 1.2661-.6792 1.7226-.4331.4564-1.0194.7127-1.6302.7127Zm-9.793-6.5577c-.9806.033-1.9407.2975-2.812.774l.7569 1.4524c.6353-.3428 1.334-.5356 2.0469-.5652.1941-.0113.3871.0221.5679.098.1798.0758.3432.1922.477.3411.1338.1488.2349.3267.2973.5212.0623.1945.0837.401.0633.6051v.0522c-.6455-.1506-1.3044-.2293-1.9652-.2348-.3422-.0273-.6864.0178-1.0122.1323-.3269.1146-.6282.2965-.8866.535-.2595.2387-.4719.5293-.6241.8552-.1522.3258-.2421.6804-.2635 1.0432 0 .35.0664.6966.1951 1.019.1287.3223.3186.6139.5556.8573.238.2435.5199.4339.8284.5598.3095.1259.6384.1846.9693.173.7896-.0196 1.5587-.2727 2.2195-.7305v.4783h1.5699v-4.74c.0225-.4238-.0398-.8479-.1808-1.2453-.1409-.3973-.3595-.7592-.6393-1.0626-.2809-.3034-.618-.5418-.9908-.6999-.3718-.1582-.7722-.2328-1.1726-.2188Zm-.8222 6.6185c-.1308.0139-.2636-.0023-.3882-.0473-.1246-.0449-.239-.1177-.335-.2133-.096-.0956-.1706-.2119-.2206-.341-.0501-.129-.0726-.268-.0674-.4072.049-.6001.6741-.9393 1.3319-.9393.6404.0151 1.2778.1085 1.8988.2783v.6349c-.2778.3358-.6221.6027-1.0092.7815-.3861.179-.8048.2654-1.2267.2534h.0164Zm-27.5537-6.6011c-.9806.0286-1.9428.2932-2.812.774l.764 1.4438c.6364-.3429 1.335-.5358 2.048-.5654.193-.0112.3871.0223.5679.0981.1797.0758.3432.1921.4759.341.1339.149.236.3268.2983.5212.0623.1945.0837.401.0633.6052v.0522c-.6455-.1474-1.3043-.2232-1.9652-.2261-.3473-.0308-.6966.0129-1.0275.1286-.332.1157-.6374.3009-.8989.5445-.2614.2436-.4749.5407-.6251.8734-.1501.3327-.2359.6942-.2512 1.0626.0071.3442.0786.6834.2104.9981.1328.3147.3217.5987.5577.8356.2359.2369.5148.422.8181.5446.3044.1227.6282.1805.954.17.7875-.0171 1.5546-.2704 2.2114-.7305v.487h1.5699v-4.74c.0215-.4213-.0388-.8427-.1787-1.2377-.14-.395-.3565-.7551-.6343-1.0575-.2779-.3024-.6129-.5404-.9816-.6993-.3698-.1588-.7661-.2349-1.1644-.2234Zm-.8223 6.6185c-.1328.0103-.2655-.0097-.3902-.0583-.1246-.0487-.2379-.1251-.3319-.224-.094-.0989-.1675-.2181-.2145-.3494-.047-.1313-.0674-.2717-.0582-.4119.049-.5915.6741-.9393 1.3319-.9393.6414.0127 1.2788.1091 1.8988.287v.6697c-.2788.3342-.6231.5994-1.0102.7768-.3861.1774-.8049.2625-1.2257.2494ZM140.029 18.1191h-1.868v-2.378h-1.579v7.8685h3.464c.659-.0394 1.279-.3445 1.733-.8526.454-.508.708-1.1805.708-1.8795 0-.6991-.254-1.3716-.708-1.8796-.454-.508-1.074-.8131-1.733-.8525l-.017-.0263Zm0 3.8032h-1.868V19.789h1.885c.267 0 .523.1123.712.3124.189.2.296.4714.296.7542 0 .2829-.107.5542-.296.7543-.189.2-.445.3124-.712.3124h-.017Zm-8.048-3.0951h-3.604v-3.0861h-1.57v7.8423h1.57v-3.0862h3.604v3.0862h1.57v-7.8423h-1.57v3.0861ZM54.4331 15.575c-.9851.0332-1.9509.299-2.8265.7781l.7686 1.46c.6376-.3487 1.3406-.5428 2.0579-.5683.1949-.0112.3897.0224.5712.0986.1813.0762.3448.1932.4792.3428.1344.1497.2365.3285.2991.5241.0628.1954.0844.403.0638.6083v.0524c-.6491-.1487-1.3111-.2248-1.9752-.2273-.346-.031-.6944.0116-1.0246.1251-.3303.1136-.6357.296-.8982.5363-.2627.2404-.4772.5338-.6309.8631-.1538.3294-.2438.688-.2646 1.0547-.0003.3526.0668.7017.197 1.0264.1303.3247.3211.6182.5611.863.24.2449.5241.4361.8354.5621.3115.126.6437.1843.9769.1713.7912-.0213 1.561-.2757 2.2231-.7343v.4807h1.5704v-4.7735c.0218-.4247-.0398-.8495-.1809-1.2476-.1411-.3982-.3587-.7612-.6391-1.0658-.2803-.3049-.6172-.5448-.9896-.7049-.3725-.1601-.7721-.2368-1.1741-.2253Zm-.8264 6.6533c-.1355.0147-.2724-.0025-.4008-.0502-.1286-.0477-.2456-.1249-.3426-.2259-.0971-.101-.172-.2234-.2191-.3586-.0473-.1352-.0658-.2797-.054-.4232.0496-.6033.6777-.9443 1.3389-.9443.6451.0129 1.2863.1097 1.9091.2885v.6558c-.2766.3422-.6221.6147-1.0109.7978-.389.183-.8116.2719-1.2371.2601h.0165Zm-6.9323-5.3856h-5.3473v-4.6425h-1.5703v11.3832h1.5703v-5.0795h5.3473v5.0795h1.5786V12.2002h-1.5786v4.6425Zm20.2946-1.1016h-1.5703v6.1724h-3.4215v-6.1724h-1.5786v7.8335h5.7936v1.3115h1.5786v-2.9726h-.8018v-6.1724Zm5.0148 5.0621v-5.0621h-1.5702v7.8423h1.5702l3.5787-5.0622v5.0622h1.5703v-7.8423h-1.5703l-3.5787 5.0621Zm11.66-5.2107c-.7699 0-1.5225.2415-2.1627.694-.6401.4524-1.1391 1.0956-1.4337 1.848-.2946.7525-.3717 1.5804-.2214 2.3792.1501.7988.5209 1.5326 1.0653 2.1084.5443.5759 1.238.9682 1.993 1.127.7552.1589 1.5378.0773 2.2491-.2343.7113-.3117 1.3193-.8395 1.747-1.5166.4278-.6772.6561-1.4735.6561-2.2878-.0022-1.0915-.413-2.1376-1.1426-2.9093-.7295-.7717-1.7183-1.2063-2.7501-1.2086Zm0 6.5659c-.4574-.0018-.9039-.1468-1.2834-.4168-.3795-.2701-.6748-.653-.8487-1.1005-.1738-.4474-.2185-.9394-.1283-1.4137.0902-.4742.3113-.9096.6353-1.2511.324-.3415.7362-.5738 1.185-.6675.4486-.0938.9135-.0448 1.3358.1407.4225.1856.7834.4993 1.0372.9018.254.4023.3895.8753.3895 1.3591 0 .3222-.0602.6412-.1769.9388-.1169.2976-.288.5678-.5038.7953-.2158.2273-.4718.4076-.7536.5301-.2817.1224-.5835.1849-.8881.1838Zm30.1992-6.4173h-3.992l-.066.7519s-.264 2.7976-.512 4.3714c-.149.8742-.612 1.0928-.975 1.0928h-.554v1.6699h.554c.627-.0266 1.224-.2928 1.68-.7494.455-.4566.74-1.0725.799-1.7336.182-1.1015.364-2.754.455-3.7069h2.611v6.1812h1.571v-7.8686h-1.571v-.0087Zm8.016 2.378h-1.885v-2.378h-1.57v7.8685h3.455c.351.0211.702-.034 1.033-.1617.33-.1279.633-.3257.889-.5815.256-.2557.46-.5641.6-.9061.138-.3419.21-.7104.21-1.0828 0-.3724-.072-.7409-.21-1.0828-.14-.342-.344-.6504-.6-.9061-.256-.2558-.559-.4536-.889-.5815-.331-.1277-.682-.1828-1.033-.1617v-.0263Zm0 3.8032h-1.885V19.789h1.885c.267 0 .523.1123.712.3124.189.2.296.4714.296.7542 0 .2829-.107.5542-.296.7543-.189.2-.445.3124-.712.3124Zm23.046-6.1812h-1.57v7.8423h1.57v-7.8423Zm8.122 0-3.578 5.0621v-5.0621h-1.57v7.8423h1.57l3.578-5.0622v5.0622h1.57v-7.8423h-1.57Zm-1.802-1.2415c.566-.0023 1.107-.2407 1.506-.6632s.625-.995.627-1.5924h-1.099c.013.1511-.005.3034-.05.4472-.046.1437-.12.2758-.217.3878-.096.112-.214.2015-.346.2626-.131.0612-.273.0928-.416.0928-.143 0-.285-.0316-.416-.0928-.132-.0611-.25-.1506-.347-.2626-.096-.112-.17-.2441-.216-.3878-.045-.1438-.063-.2961-.05-.4472h-1.099c0 .5967.224 1.1691.621 1.5919.398.4228.939.6614 1.502.6637Zm-56.0648 4.3276H91.565v-3.0861h-1.5702v7.8423h1.5702v-3.0862h3.5952v3.0862h1.5785v-7.8423h-1.5785v3.0861Zm7.5108-3.2522c-.985.0332-1.951.299-2.8266.7781l.7686 1.46c.638-.347 1.341-.541 2.058-.5683.194-.0098.389.0249.569.1017.181.0767.344.1936.478.343.134.1494.236.3275.3.5223.063.1949.085.4018.066.6068v.0524c-.652-.1481-1.316-.2243-1.983-.2273-.346-.031-.695.0116-1.025.1252-.33.1135-.636.2959-.898.5362-.2628.2404-.4773.5338-.6311.8631-.1538.3294-.2437.688-.2645 1.0547-.0002.3526.0667.7017.197 1.0264.1302.3247.321.6182.5606.863.24.2449.525.4361.836.5621.311.126.644.1843.977.1714.794-.0212 1.566-.2755 2.231-.7344v.4807h1.571v-4.7735c.023-.425-.038-.8504-.179-1.2491-.14-.3988-.358-.7623-.639-1.0673-.28-.305-.618-.545-.991-.7046-.373-.1597-.773-.2354-1.175-.2226Zm-.827 6.6533c-.132.0118-.265-.0069-.39-.0549s-.238-.1241-.333-.223c-.094-.099-.167-.2184-.213-.35-.047-.1317-.065-.2725-.055-.4125.049-.6033.677-.9443 1.33-.9443.648.0136 1.292.1104 1.918.2885v.6383c-.281.3443-.63.6179-1.024.8009-.393.1831-.82.2708-1.249.257h.016Z"/>
</svg>