<svg xmlns="http://www.w3.org/2000/svg" viewBox="0 0 116 26">
	<path fill="#5345FF" d="M11.0081 0c3.1348 0 5.9184.89875 7.837 2.62741 2.7007 2.44893 3.1488 5.10821 3.1488 11.44029l.0267 11.277h-5.4919V13.0899c0-3.1909-.1791-5.01518-1.4386-6.33589-1.0129-1.06065-2.3839-1.63177-4.082-1.63177-1.69807 0-3.06978.57112-4.08199 1.63177-1.25953 1.32071-1.43673 3.14244-1.43673 6.33589v12.2548H0l.0267713-11.277c0-6.33208.4430007-8.99136 3.1494487-11.44029C5.08718.89875 7.87776 0 11.0081 0Zm26.1874 26c-3.1246 0-5.9082-.9-7.8268-2.63-2.7013-2.4374-3.1494-5.0967-3.1494-11.4377L26.1976.652709h5.4894V12.9063c0 3.1909.1765 5.019 1.4393 6.3384 1.0122 1.0619 2.3813 1.6318 4.0794 1.6318.9478 0 1.7937-.1772 2.5324-.5189.5845-.2702 1.1021-.6437 1.5496-1.1129 1.2595-1.3194 1.4386-3.1424 1.4386-6.3384V.652709h5.4824L48.1819 11.9323c0 6.341-.4436 9.0003-3.1494 11.4377-1.911 1.73-4.7022 2.63-7.837 2.63Zm18.3721-2.63C57.4836 25.1 60.2672 26 63.402 26c3.1297 0 5.9133-.9 7.8319-2.63 2.7058-2.4374 3.1494-5.0967 3.1494-11.4377L74.4101.652709h-5.4875V12.9063c0 3.196-.1791 5.019-1.4386 6.3384-1.0129 1.0619-2.3839 1.6318-4.082 1.6318-1.0026 0-1.8906-.1989-2.658-.5801-.5322-.2651-1.0071-.617-1.4214-1.0517-1.2621-1.3194-1.4393-3.1475-1.4393-6.3384V.652709h-5.4894l.0242 11.279591c0 6.341.4481 9.0003 3.1495 11.4377ZM89.2095 5.12224c1.5699 0 2.6453.57112 3.6167 1.63177 1.2117 1.32071 1.3812 3.14244 1.3812 6.33589v12.2548H99.6726V13.0899c0-3.19345.1696-5.01518 1.3814-6.33589.649-.7088 1.344-1.19833 2.203-1.44565.426-.12366.893-.18612 1.414-.18612.71-.02168 1.415.11218 2.067.39519.652.28174 1.233.7037 1.702 1.23658 1.163 1.32071 1.327 3.14499 1.327 6.33589v12.2548h5.49l-.025-11.277c0-6.33208-.421-8.99136-2.986-11.44029C110.424.89875 107.78 0 104.804 0c-2.978 0-5.3201.979064-7.0449 2.86453-.3028.33145-.5756.668-.8203 1.01475-.2448-.34675-.5176-.6833-.8204-1.01475C94.3936.979064 92.0562 0 89.0763 0c-2.9799 0-5.6226.89875-7.4373 2.62741-2.5701 2.44893-2.9914 5.10821-2.9914 11.44029l-.0268 11.277h5.4894V13.0899c0-3.1909.1651-5.01518 1.3303-6.33589.4685-.53288 1.0498-.95484 1.7012-1.23658.6515-.28301 1.3577-.41687 2.0678-.39519Z"/>
</svg>