<svg xmlns="http://www.w3.org/2000/svg" viewBox="0 0 160 36">
	<g fill="#25dab3">
		<path d="M22.5 3.4 19.8 5 11 0 0 6.4v12.8l8.7 5v3.1l13.8 7.9 13.8-7.9v-16L22.5 3.4ZM8.7 21l-5.9-3.4V8L11 3.2l5.9 3.4-8.2 4.7v9.6Zm24.9 4.7-11 6.3-11-6.3V13l11-6.3 11 6.3v12.7Z"/>
		<path d="M13.8 14.4v10l8.7 5 8.7-5v-10l-8.7-5-8.7 5ZM28.4 16v6.8l-5.9 3.4-5.9-3.4V16l5.9-3.4 5.9 3.4Z"/>
	</g>
	<g fill="#143a3d">
		<path d="M67.2 17.5h-7.4v-5.8h-2.5v14.1h2.5v-6.1h7.4v6.1h2.4V11.7h-2.4v5.8zM122.8 25.8h2.4V13.9h7.4v11.9h2.5V11.7h-12.3v14.1zM149.1 11.7H146l-5.5 6.7v-6.7H138v14.1h2.5v-4.5l1.2-1.4 4.8 5.9h3l-6.1-7.4 5.7-6.7zM83.9 11.7h-3.1l-5.5 6.7v-6.7h-2.5v14.1h2.5v-4.5l1.2-1.4 4.7 5.9h3.1l-6.2-7.4 5.8-6.7zM115.2 14.9h-1.7l-3.4 5.1v.2l3.4 5.1h1.7l-3.2-5.2 3.2-5.2z"/>
		<path d="m117.8 14.9-3.4 5.1v.2l3.4 5.1h1.8l-3.2-5.2 3.2-5.2h-1.8zM155.7 20l-3.4-5.1h-1.8l3.2 5.2-3.2 5.2h1.8l3.4-5.1V20z"/>
		<path d="M156.6 14.9h-1.8l3.2 5.2-3.2 5.2h1.8l3.4-5.1V20l-3.4-5.1zM50.5 11.7h-6.2v14.1h2.5v-5.3h3.7c1.4 0 2.5-.4 3.4-1.3.8-.9 1.2-1.9 1.2-3.1s-.4-2.3-1.2-3.1c-.8-.8-1.9-1.3-3.4-1.3Zm1.4 6.1c-.5.4-1 .6-1.7.6h-3.4v-4.5h3.4c.7 0 1.3.2 1.7.6.5.4.7 1 .7 1.6s-.2 1.2-.7 1.6ZM93.1 11.7c-2.1 0-3.8.7-5.2 2.1-1.4 1.4-2 3.1-2 5.2s.7 3.9 2 5.2c1.4 1.4 3.1 2 5.2 2s3.8-.7 5.2-2c1.4-1.4 2-3.1 2-5.2s-.7-3.9-2-5.2c-1.4-1.4-3.1-2.1-5.2-2.1Zm3.4 11c-.9 1-2 1.4-3.4 1.4s-2.5-.5-3.4-1.4c-.8-1-1.3-2.2-1.3-3.7s.4-2.7 1.3-3.7 2-1.4 3.4-1.4 2.5.5 3.4 1.4c.9 1 1.3 2.2 1.3 3.7s-.4 2.7-1.3 3.7Z"/>
	</g>
</svg>