<svg xmlns="http://www.w3.org/2000/svg" viewBox="0 0 180 34.5">
	<path fill="#ffd100" d="M33.1 17.9c0 9.2-7.4 16.6-16.6 16.6S0 27.1 0 17.9C0 8.8 7.4 1.3 16.5 1.3s16.6 7.5 16.6 16.6z"/>
	<g fill="#5e686b">
		<path d="M39.6 30.3V11.4H56v18.9h-5.1V16h-6.3v14.3h-5zm18.9 0V11.4h13.8v4.5h-8.8v2.8h8.8v4.1h-8.8v3h8.8v4.5H58.5zm23.2-9.9h2.4c.9 0 1.6-.3 2.2-.7.5-.4.8-1 .8-1.8s-.3-1.4-.8-1.8c-.5-.4-1.2-.6-2.2-.6h-2.4v4.9zm-5.1 9.3V11.2h7.9c2.3 0 4.2.6 5.6 1.7 1.4 1.1 2.1 2.8 2.1 4.8 0 1.5-.3 2.7-1 3.6-.7 1-1.6 1.8-2.8 2.2-1.2.5-2.5.8-4 .8h-2.5v5.3h-5.3zm17.7 0V11.2h13.9v4.4h-8.9v2.8h8.9v4h-8.9v2.9h8.9v4.4H94.3zm31-.1h-4.6c-1.7 0-3.4-.4-4.7-1.2-1.5-.8-2.6-1.9-3.4-3.3s-1.3-2.9-1.3-4.7c0-1.3.3-2.5.8-3.6s1.1-2.2 2-2.9c.9-.9 1.9-1.5 3.1-2s2.5-.7 3.9-.7h4.5v4.4H121c-1.3 0-2.3.4-3.2 1.4-.9.9-1.2 2.2-1.2 3.5s.4 2.5 1.2 3.4c.9.9 1.9 1.4 3.2 1.4h4.6l-.3 4.3c.1 0 0 0 0 0zm8.2-3.9h4c.8 0 1.4-.2 1.8-.4.4-.3.6-.8.6-1.3s-.2-.9-.6-1.2c-.4-.3-1-.4-1.9-.4h-3.9v3.3zm0-7.2h3.2c1.6 0 2.4-.6 2.4-1.7 0-.5-.2-.9-.6-1.2-.4-.3-.9-.4-1.7-.4h-3.3v3.3zm-5 11.2V11.2h9.5c2.2 0 3.9.5 5 1.6.8.8 1.2 1.8 1.2 3 0 2-.9 3.4-2.8 4.1 1.2.4 2.1.9 2.8 1.7.6.7.9 1.7.9 2.9 0 1.5-.6 2.8-1.8 3.7-1.2.9-2.9 1.4-5.2 1.4h-9.6zm18.9 0V11.2h14.5v4.4h-9.5v2.8h9.5v4h-9.5v2.9h9.5v4.4h-14.5zm16.4-14v-4.5H180v4.5h-5.5v14h-5.1v-14h-5.6zM41 4.4h1.6l-.9-2-.7 2zm-1.7 1.9l2.2-4.9h.8l2.2 4.9h-.9L43 5.1h-2.3l-.5 1.2h-.9zm5.5 0V1.4h.9v2.5L48 1.4h1l-2 2.1 2.2 2.8h-1l-1.7-2.1-.8.8v1.4c0-.1-.9-.1-.9-.1zm4.7 0V1.4h.9v4.1h2.2V1.4h.9v4.1h.7l-.1 1.8h-.8v-1h-3.8zm5 0V1.4h.9v3.5l2.5-3.5h.8v4.9h-.9V2.8l-2.4 3.5h-.9zm5.7-2.4c0 .3.1.6.2.9.2.3.3.5.6.6.3.2.5.3.9.3s.6-.1.9-.3c.3-.2.4-.3.6-.6.2-.3.2-.5.2-.9 0-.3-.1-.6-.2-.9-.2-.3-.3-.5-.6-.6-.3-.2-.5-.3-.9-.3s-.6.1-.9.3c-.3.2-.4.3-.6.6-.1.3-.2.5-.2.9zm-.9 0c0-.3.1-.7.2-.9.1-.3.3-.6.5-.8.3-.3.5-.4.8-.5.3-.2.7-.2 1-.2s.7.1 1 .2c.3.2.6.3.8.5.3.3.4.5.5.8.1.3.2.6.2.9 0 .3-.1.7-.2.9-.1.3-.3.6-.5.8-.2.3-.4.4-.8.6-.3.2-.7.2-1 .2-.5 0-.9-.1-1.3-.3-.4-.3-.7-.5-.9-.9-.2-.5-.3-.9-.3-1.3zm5.8 2.4V1.4h.9v2.1h2.3V1.4h.9v4.9h-.9V4.2H66v2.1h-.9zm4.9 0V1.4h3.6v.8h-2.8v1.3h2.4v.8h-2.4v1.3h2.8v.8H70zM75.2 4h1c.3 0 .6-.1.8-.3.2-.2.3-.3.3-.6s-.1-.5-.3-.7c-.2-.2-.4-.3-.8-.3h-1V4zm-.9 2.3V1.4h1.9c.6 0 1 .2 1.4.4.3.3.5.7.5 1.2 0 .3-.1.7-.3.9-.2.3-.4.4-.7.6-.3.1-.6.2-.9.2h-.9v1.5c-.1.1-1 .1-1 .1zm4.3 0V1.4h.9v2.1h2.3V1.4h.9v4.9h-.9V4.2h-2.3v2.1h-.9zm9.3 0h.9V1.4h-.9v4.9zm-3.5-.8h1.1c.3 0 .6-.1.8-.3.2-.2.3-.3.3-.6s-.1-.4-.3-.6-.4-.2-.8-.2h-1.1v1.7zm-.9.8V1.4h.9v1.7h1.1c.5 0 1 .2 1.3.4.3.3.5.6.5 1.1s-.2.9-.5 1.2c-.3.3-.8.4-1.4.4 0 .1-1.9.1-1.9.1zM90.6.1l.5-.1c.1.3.3.5.6.5s.5-.2.6-.5l.5.1c-.1.3-.2.5-.3.7-.2.1-.5.2-.7.2s-.6-.1-.8-.2-.4-.5-.4-.7zm-1 6.2V1.4h.9v3.5L93 1.4h.8v4.9h-.9V2.8l-2.5 3.5h-.8zm6.7 0V1.4h.9v2.5l2.3-2.5h1l-2 2.1 2.2 2.8h-1L98 4l-.8.8v1.4h-.9v.1z"/>
		<path d="M101.5 3.9c0 .3.1.6.2.9.2.3.3.5.6.6.3.2.5.3.9.3.3 0 .6-.1.9-.3.3-.2.4-.3.6-.6.2-.3.2-.5.2-.9 0-.3-.1-.6-.2-.9-.2-.3-.3-.5-.6-.6-.3-.2-.5-.3-.9-.3-.3 0-.6.1-.9.3-.3.2-.4.3-.6.6-.1.3-.2.5-.2.9zm-.9 0c0-.3.1-.7.2-.9.1-.3.3-.6.5-.8.3-.3.5-.4.8-.5.3-.2.7-.2 1-.2.3 0 .7.1 1 .2.3.2.6.3.8.5.3.3.4.5.5.8.1.3.2.6.2.9 0 .3-.1.7-.2.9-.1.3-.3.6-.5.8-.3.3-.5.4-.8.5-.3.2-.7.2-1 .2-.5 0-.9-.1-1.3-.3-.4-.3-.7-.5-.9-.9-.2-.4-.3-.8-.3-1.2zm5.8 2.4V1.4h.9l1.5 2.3 1.5-2.3h.9v4.9h-.9V2.8l-1.6 2.3-1.5-2.3v3.5h-.8zm5.7 0V1.4h.9l1.5 2.3 1.5-2.3h.9v4.9h-.9V2.8l-1.5 2.3-1.6-2.3v3.5h-.8zm5.7 0V1.4h3.6v.8h-2.8v1.3h2.4v.8h-2.4v1.3h2.8v.8h-3.6zm5.1-2.3h1c.3 0 .6-.1.8-.3.2-.2.3-.3.3-.6s-.1-.5-.3-.7c-.2-.2-.4-.3-.8-.3h-1V4zm-.8 2.3V1.4h1.9c.6 0 1 .2 1.4.4.3.3.5.7.5 1.2 0 .3-.1.7-.3.9-.2.3-.4.4-.7.6-.3.1-.6.2-.9.2h-1v1.5h-.9v.1zm4.1-3.1V1.4h.9v1.5c0 .3.1.5.3.7.2.2.3.3.7.3.2 0 .4 0 .7-.1.3-.1.4-.2.6-.3V1.4h.9v4.9h-.9V4.4c-.5.3-.9.4-1.4.4-.5 0-.9-.2-1.2-.4-.4-.3-.6-.7-.6-1.2zm4.7 3.1V1.4h3.6v.8h-2.8v1.3h2.4v.8h-2.4v1.3h2.8v.8h-3.6zm4.1-2.4c0-.3.1-.7.2-.9.1-.3.3-.6.5-.8.3-.3.5-.4.8-.5.3-.2.7-.2 1-.2.4 0 .8.1 1 .2.3.2.6.3.9.6l-.5.5c-.2-.2-.4-.3-.6-.4-.3-.1-.4-.2-.7-.2-.3 0-.6.1-.9.3-.3.2-.4.3-.6.6-.2.3-.2.5-.2.9 0 .5.2.9.4 1.2.3.3.7.5 1.1.5.3 0 .5-.1.8-.2.2-.1.4-.3.7-.5l.5.5c-.2.2-.3.3-.5.4-.2.1-.3.2-.6.3-.3.1-.5.1-.8.1-.4 0-.9-.1-1.3-.3-.3-.3-.7-.5-.9-.9-.1-.4-.3-.8-.3-1.2zm5 2.4V1.4h.9v2.5l2.3-2.5h1l-2 2.1 2.2 2.8h-1L141.7 4l-.8.8v1.4h-.9v.1zm4.7 0V1.4h.9v3.5l2.5-3.5h.8v4.9h-.9V2.8l-2.5 3.5h-.8zm5.9-6.2l.5-.1c.1.3.3.5.6.5s.5-.2.6-.5l.5.1c-.1.3-.2.5-.3.7-.2.2-.4.3-.7.3s-.5-.1-.8-.3-.3-.5-.4-.7zm-.9 6.2V1.4h.9v3.5l2.5-3.5h.8v4.9h-.9V2.8l-2.4 3.5h-.9zm7.6-.8h1.1c.3 0 .7-.1.9-.2.2-.1.3-.3.3-.6s-.1-.4-.3-.5c-.2-.1-.4-.2-.8-.2h-1.3l.1 1.5zm-.9.8V1.4h3.6v.8h-2.8v1.1h1.4c.5 0 .9.2 1.3.4.3.3.5.6.5 1.1s-.2.9-.5 1.1c-.3.3-.8.4-1.3.4h-2.2zm5.9-1.9h1.6l-.9-2-.7 2zm-1.7 1.9l2.2-4.9h.8l2.2 4.9h-.9l-.5-1.2H162l-.5 1.2h-.9zm5.5 0V1.4h.9v2.1h2.3V1.4h.9v4.9h-.9V4.2H167v2.1h-.9zm4.9 0V1.4h.9v2.5l2.3-2.5h1l-2 2.1 2.2 2.8h-1L172.8 4l-.8.7v1.4h-1v.2zM9.6 18.9v6.5c0 2.4-1.6 4.5-4 4.9.3.3.6.5.9.8l8.4-1.8c3.4-.7 5.8-3.7 5.8-7.1v-5.8c-.1 0-11.1 2.5-11.1 2.5zm6.6-17.6c0 4.9-6.5 4.9-6.5 9.9v6.6l14-3v-3.6c0-4.9-6.5-5-6.5-9.9h-1z"/>
	</g>
</svg>