<svg xmlns="http://www.w3.org/2000/svg" viewBox="0 0 101.1 49">
	<path fill="#15008f" d="M0 0h49v49H0V0z"/>
	<path fill="#dd002e" d="M52.1 0h49v49h-49V0z"/>
	<g fill="#fff">
		<path d="M14.9 15.8c.6 1.1 1.5 2.1 2.6 2.7.2.1.4.4.5.6s.1.5-.1.8c-.3.7-.8 1.7-.6 2.2.4.3.8.4 1.2.5.4 0 .9-.1 1.3-.3.2.4.4.7.6 1.1-.1.1-.2.2-.4.2-.1 0-.3 0-.4-.1.1.1.2.3.2.4 0 .2 0 .3-.1.5-.1.1-.3.2-.4.2-.2 0-.3 0-.5-.1-.1-.1-.2-.2-.2-.3v-.3c-.2.3-.4.5-.8.6-.2-.1-.3-.3-.4-.5-.1-.2-.1-.4 0-.6-.1.2-.3.5-.6.6-.2.2-.5.3-.8.3v-.8c0-.3.2-.6.4-.8-.2.2-.5.3-.7.3-.3 0-.5 0-.8-.1 0 0-.2-.5.7-1.2-.3 0-.6-.1-.8-.2s-.4-.3-.6-.6c.2-.2.4-.3.7-.4.3-.1.5-.1.8-.1-.3-.1-.6-.3-.8-.5-.2-.2-.4-.5-.4-.8.3-.1.6-.2.9-.1.3 0 .6.2.8.4-.2-.3-.4-.5-.6-.7-.3-.4-.6-.9-.7-1.4-.1-.5-.1-1 0-1.5zm3.9 11.5c-.2-.2-.3-.4-.3-.6.2 1.4.2 2.3 1 3.2.3-.6.3-1.3.2-2-.1-.1-.3-.1-.4-.2.1.4.1.8.1 1.2-.3-.5-.5-1-.6-1.6.1 0 .1 0 0 0zm-1.2-.1c-.2-.2-.3-.4-.3-.6-.1.8-.3 2.9.4 3.6 0 0 .5-.4.6-3.4-.2.1-.2.4-.3.5.1.6 0 1.1-.2 1.7 0-.1-.4-.3-.2-1.8zm-1.7 1.6c.6-.7.8-2.9.8-2.9l.3-.2.1-.1v.2c0 1.1-.2 2.2-.6 3.3-.3.4-.7.8-1.1 1-.7-1.2.2-2.8.8-4l.3-.1c-.3 1-.8 2-.6 2.8zm-1.6-3.7c0 .1 0 .2.1.3v.1c-.7.7-1.3 1.4-1.8 2.3-.3.3-.6.6-1 .8s-.8.3-1.2.4c.1-.9.5-1.8 1.1-2.5.7-.8 1.5-1.4 2.3-2 .2.1.5.1.7.1h.1c-.1.1-.1.2-.2.4-1.1.5-2 1.3-2.6 2.2-.2-.1.8-.4 2.5-2.1zM13.2 24l.2-.2c-.6.2-2.5 1-3.2 1.3-.5.3-.9.6-1.3 1.1-.3.4-.6 1-.7 1.5.4 0 .9 0 1.3-.1s.8-.3 1.1-.6c1.1-.9 2.4-2.2 2.9-2.6l-.2-.1c-.9.7-1.9 1.4-3 1.9.2-.4.6-.8 1-1.1.5-.5 1.2-.9 1.9-1.1zM12 23l.1-.1c-.6.1-2.3.4-3 .6-.6.2-1.2.4-1.6.8-.5.4-.9.9-1.2 1.4 0 0 1.1.4 3.3-.6 1-.5 2.1-1 3.2-1.3-.3 0-.5-.1-.7-.2-1 .5-2.1.8-3.2.8.3-.2.7-.4 1.1-.6.6-.4 1.3-.7 2-.8zm0-1c.2.1.4.1.6.1-.2.1-.3.2-.4.4-1.4.3-2.8.6-4.2.6-1.1.2-2.2.1-3.2-.2.9-.5 1.8-.8 2.7-1.1.8-.1 2.9-.1 3.8-.3.1.1.2.1.3.2-1.1 0-2.2.2-3.3.6 1.3.2 2.5.1 3.7-.3zm-.1-1.3c.1-.1.3-.1.4-.2-1.5-.5-3.1-.9-4.8-1-1.1-.1-2.3-.1-3.4.1 1 .6 2 1.1 3.2 1.4 1.3.2 2.7.3 4.1.1.1-.1.2-.2.3-.4-1.3 0-2.6-.2-3.8-.6 1.3.1 2.6.2 4 .6zm0-1.2c.1.4.4.8.8 1-1.5-.6-4.5-1.1-6.1-1.7-2.2-.9-2.5-2-2.5-2 1.5 0 3.1.3 4.5.8 1.4.4 3.4 1.2 4.2 1.5-.3 0-.6.1-.8.3-.8-.4-1.6-.6-2.4-.8-.6-.2-1.1-.3-1.7-.3.5.3 1.1.5 1.7.7.7.2 1.5.4 2.3.5zm-.1-1.6c.1.1.2.4.3.5-2.2-.5-4.3-1.7-5.8-3.4-.5-.8-.7-1.8-.6-2.8 1.1.5 2.1 1.2 2.9 2.1.8.9 1.8 1.7 2.7 2.5l.3.8c-.8-.6-1.7-1.3-2.3-1.8-.6-.4-1.2-.8-1.8-1.1.3.4.7.8 1.1 1.2.5.4 1.1.8 1.7 1.1.5.4 1 .7 1.5.9"/>
		<path d="M18.6 24.5l.2-.2c.3.4.5.7.7 1.1.1.4.3.8.3 1.3.1.4.2.8.4 1.2-.2 0-.4 0-.5-.1-.2-.1-.3-.2-.5-.3-.3-.4-.6-.9-.6-1.5-.1-.6-.1-1 0-1.5-.1 0 0 0 0 0zm-1.1.1l.2.2.1.1h.1l.2-.1c.1.2.1.4.2.6.1.3.1.7 0 1.1-.1.3-.3.6-.5.8-.2-.2-.4-.5-.5-.8-.2-.4-.2-.8 0-1.2.1-.3.2-.5.2-.7zm-1.2 0c.3 0 .6-.2.9-.4 0 .1.1.2.1.3v.3c-.1.3-.3.5-.5.8-.2.2-.4.3-.7.4-.3.1-.5.1-.8.1-.1 0-.2-.4 1-1.5zm-.5-.7c0 .2.1.5.3.6-.2.3-.4.5-.7.7-.3.1-.6.2-1 .2-.1-.2-.1-.4 0-.6.1-.2.2-.4.4-.4.4-.3.7-.4 1-.5"/>
		<path d="M16 23.2c-.3.1-.7.1-1.1 0h-.2V23c-.6.4-1.1.5-1.3.9.1.2.3.3.4.4s.4.1.6.1c.3 0 .6-.1.9-.3.3-.1.5-.3.7-.6v-.2-.1zm-1.2-.7l.3-.6c-.5-.1-.9-.1-1.4 0-.4 0-.7.1-1 .3-.3.2-.5.5-.6.9.3.2.7.3 1.1.2.3 0 .6-.1.9-.3.3 0 .5-.2.7-.5zm-.3-1c-.2-.2-.3-.4-.4-.6H14c-.5-.3-1.1-.3-1.7-.1-.3.1-.6.3-.8.6.4.3.9.5 1.3.6.6 0 1.2-.1 1.7-.5 0 .1 0 0 0 0zm.2-1.1c.1-.1.2-.1.3-.1-.3-.3-.5-.7-.6-1.1-.4.1-.8.1-1.1-.1-.2-.1-.4-.1-.6-.1s-.4.1-.6.2c.1.2.2.4.4.6.2.2.4.3.7.3.2.1.5.2.7.2.3.2.5.2.8.1zm-.4-1.4l.2-.1c.2-.1.4-.1.6-.1-.5-.4-1-.7-1.5-1.1-.6-.3-1.2-.6-1.9-.8.2.6.5 1.1.9 1.5.2.2.5.4.8.5.3.2.6.2.9.1zm.9-.5c-.2-.3-.4-.7-.5-1.1-.2-.5-.3-1.1-.5-1.5-.3-.6-.9-1.1-1.6-1.3-.2.7-.1 1.4.2 2 .7.8 1.5 1.5 2.4 1.9zm5.5 5c.1.1.3.2.4.3.1.2.1.4.1.7s-.1.5-.2.7c-.3.6-.6 1.2-.8 1.9 0 0-.2 0-.4-1.2-.1-.4-.3-.9-.6-1.2.1.1.3.1.4.1h.2l.1-.1c.1-.2.2-.5.2-.7v-.2h.4c.2 0 .1-.2.2-.3z"/>
		<path d="M12.4 15v.6c-.6-.7-1.3-1.6-2-2.4-.4-.5-.8-.9-1.3-1.2.3.9.8 1.7 1.5 2.3.5.6 1.1 1.1 1.7 1.5l.1.2c.1.2.2.4.2.6.2.3.3.5.6.8l-.6-.3h-.2c-1.8-1-3.2-2.4-4.2-4.2-.5-1.2-.6-2.6-.2-3.8.9.8 1.7 1.7 2.5 2.7.7 1 1.3 2.1 1.9 3.2zm24.7 5.7c-.1-.1-.3-.1-.4-.2 1.5-.5 3.1-.9 4.8-1 1.1-.1 2.3-.1 3.4.1-1 .6-2 1.1-3.2 1.4-1.3.2-2.7.3-4.1.1-.1-.1-.2-.2-.3-.4 1.3 0 2.6-.2 3.8-.6-1.3.1-2.7.2-4 .6zm0-1.2c-.1.4-.4.8-.8 1 1.5-.6 4.5-1.1 6.1-1.7 2.2-.9 2.5-2 2.5-2-1.5 0-3.1.3-4.6.8-1.4.4-3.4 1.2-4.2 1.5.3 0 .6.1.8.3.8-.4 1.6-.6 2.4-.8.6-.2 1.1-.3 1.7-.3-.5.3-1.1.6-1.7.8-.7.1-1.4.3-2.2.4zm.1-1.6c-.1.1-.2.4-.3.5 2.3-.5 4.3-1.7 5.8-3.4.5-.8.7-1.8.6-2.8-1.1.5-2.1 1.2-2.9 2.1-.8.9-1.7 1.7-2.7 2.5l-.3.8c.8-.6 1.7-1.3 2.3-1.8.6-.4 1.2-.8 1.8-1.1-.3.4-.7.8-1.1 1.2-.5.4-1.1.8-1.7 1.1-.4.3-.9.6-1.5.9zm-.6-2.9v.6c.6-.7 1.3-1.6 2-2.4.3-.5.8-.9 1.2-1.2-.3.9-.8 1.7-1.5 2.3-.5.6-1.1 1.1-1.7 1.5v.2c-.1.2-.2.4-.2.6-.2.3-.3.5-.6.8l.6-.3.2-.1c1.8-1 3.2-2.4 4.2-4.2.5-1.2.5-2.6.2-3.8-.9.8-1.7 1.7-2.4 2.7-.8 1.1-1.5 2.1-2 3.3-.1 0 0 0 0 0zm-22 10.6c-.7.7-2.3 2.4-2.1 4.1.8-.3 1.5-.8 2-1.5.4-.7.7-1.4 1.2-2H15c-.4.8-1 1.5-1.7 2.1 0 0-.2-.8 1.7-2.6 0-.1.1-.1.2-.2-.2.1-.5.1-.6.1-.1 0 0 0 0 0zm19.5-9.8c-.6 1.1-1.5 2.1-2.6 2.7-.2.2-.4.4-.4.7-.1.3 0 .5.1.8.3.7.8 1.7.6 2.2-.3.4-1.6.6-2.7.2-.2.4-.4.7-.6 1.1.1.1.2.2.4.2.1 0 .3 0 .4-.1-.1.2-.1.4-.1.5 0 .2.1.4.2.5.2 0 .4-.1.6-.2.2-.1.3-.3.4-.5.2.3.4.5.8.6.2-.1.3-.3.4-.5.1-.2.1-.4 0-.6.1.2.3.5.6.6.2.2.5.3.8.3.2-.3.2-.6.2-.9s-.2-.6-.4-.8c.2.2.5.3.7.3.3 0 .5 0 .8-.1 0 0 .2-.5-.7-1.2.3 0 .6-.1.8-.2s.4-.3.6-.6c-.2-.2-.4-.3-.7-.4-.3-.1-.5-.1-.8-.1.3-.1.6-.3.8-.5s.3-.5.3-.8c-.3-.1-.6-.2-.9-.1-.3 0-.6.2-.8.4.2-.3.4-.5.6-.7.4-.4.6-.8.8-1.3.2-.5.2-1 .1-1.6l-.3.1zm-3.9 11.5c.1-.2.3-.4.3-.6-.2 1.4-.2 2.3-1 3.2-.3-.6-.3-1.3-.2-2 .1-.1.3-.1.4-.2-.1.4-.1.8-.1 1.2.4-.5.5-1.1.6-1.6zm1.2-.2c.2-.2.3-.4.3-.6.1.8.3 2.9-.4 3.6 0 0-.5-.4-.6-3.4.2.1.2.4.3.5-.1.6 0 1.1.2 1.7.1 0 .4-.2.2-1.8zm1.7 1.7c-.6-.7-.8-2.9-.8-2.9-.1-.1-.2-.2-.3-.2v-.1.2c0 1.1.2 2.2.6 3.3.3.4.7.8 1.1 1 .7-1.2-.2-2.8-.8-4-.1 0-.2-.1-.3-.1.2 1 .7 2 .5 2.8zm1.7-3.7c0 .1 0 .2-.1.3v.1c.7.7 1.3 1.4 1.8 2.3.3.3.6.6 1 .8s.8.3 1.2.4c-.1-.9-.5-1.8-1.1-2.5-.7-.8-1.5-1.4-2.3-2-.2.1-.5.1-.7.1h-.1c.1.1.1.2.2.4 1 .5 1.9 1.3 2.6 2.2.1-.1-.9-.4-2.5-2.1zm1-1.1v-.1l-.1-.1c.6.2 2.5 1 3.2 1.3.5.3.9.6 1.3 1.1.3.4.6 1 .7 1.5-.4 0-.9 0-1.3-.1s-.8-.3-1.1-.6c-1.1-.9-2.4-2.2-2.9-2.6l.2-.1c.9.7 1.9 1.4 3 1.9-.2-.4-.6-.8-1-1.1-.6-.6-1.3-.9-2-1.1 0-.1 0 0 0 0zm1.2-1c0-.1-.1-.1-.1-.1.6.1 2.3.4 3 .6.6.2 1.2.4 1.6.8.5.4.9.9 1.2 1.4 0 0-1.1.4-3.3-.6-1-.5-2.1-1-3.2-1.3.3 0 .5-.1.7-.2 1 .5 2.1.8 3.2.8-.3-.2-.7-.4-1.1-.6-.6-.4-1.3-.6-2-.8zm0-1c-.2.1-.4.1-.6.1.2.1.3.2.4.4 1.4.3 2.8.6 4.2.6 1.1.2 2.2.1 3.2-.2-.9-.5-1.8-.8-2.7-1.1-.8-.1-2.9-.1-3.8-.3-.1.1-.2.1-.3.2 1.1 0 2.2.2 3.3.6-1.3.2-2.5.1-3.7-.3z"/>
		<path d="M30.4 24.5l-.2-.2c-.3.3-.5.7-.6 1.1-.1.4-.3.8-.3 1.3-.1.4-.3.8-.4 1.2.2 0 .4 0 .6-.1s.3-.2.5-.3c.3-.4.6-.9.6-1.5s0-1.1-.2-1.5zm1 .1l-.2.2-.1.1H31l-.3-.1c-.1.2-.1.4-.2.6-.1.3-.1.7 0 1.1.1.3.3.6.5.8.2-.2.4-.5.5-.8.2-.4.2-.8 0-1.2.1-.3 0-.5-.1-.7zm1.3 0c-.3 0-.6-.2-.9-.4 0 .1-.1.2-.1.3v.3c.1.3.3.5.5.8.2.2.4.3.7.4.3.1.5.1.8.1 0 0 .2-.4-1-1.5zm.4-.7c0 .2-.1.5-.3.6.2.3.4.5.7.7.3.1.6.2 1 .2.1-.2.1-.4 0-.6-.1-.2-.2-.4-.4-.4-.3-.3-.6-.4-1-.5zm-.1-.7c.3.1.7.1 1.1 0h.2V23c.6.4 1.1.5 1.4.9-.1.1-.2.3-.4.3-.2.1-.3.1-.5.1-.3 0-.6-.1-.9-.3-.3-.1-.5-.3-.7-.6-.1 0-.2-.1-.2-.2zm1.2-.7l-.3-.6c.5-.1.9-.1 1.4 0 .4 0 .7.1 1 .3.3.2.5.5.6.9-.3.2-.7.3-1.1.2-.3 0-.6-.1-.9-.2-.3-.1-.5-.3-.7-.6zm.3-1c.2-.2.3-.4.4-.6l.1-.1c.5-.3 1.1-.3 1.7-.1.3.1.6.3.8.6-.4.3-.9.5-1.3.6-.6 0-1.2-.1-1.7-.4zm-.2-1.1c-.1-.1-.2-.1-.3-.1.3-.3.5-.7.6-1.1.4.1.8.1 1.1-.1.2-.1.4-.1.6-.1s.4.1.6.2c-.1.2-.2.4-.4.6-.2.2-.4.3-.7.3-.2.1-.5.2-.7.2-.3.2-.6.2-.8.1zm.3-1.4h-.2c-.2-.1-.4-.1-.6-.1.5-.4 1-.7 1.5-1.1.6-.4 1.2-.6 1.9-.8-.2.6-.5 1.1-.9 1.5-.2.2-.5.4-.8.5-.2.2-.5.2-.9 0 .1.1 0 0 0 0zm-.9-.4c.2-.3.4-.7.5-1.1.2-.5.3-1.1.5-1.5.3-.6.9-1.1 1.6-1.3.2.7.1 1.4-.2 2-.6.8-1.4 1.5-2.4 1.9zm-5.4 5c-.1.1-.3.2-.4.3-.1.2-.1.4-.1.7s.1.5.2.7c.3.6.6 1.2.8 1.9 0 0 .2 0 .4-1.2.1-.4.3-.9.6-1.2-.1.1-.3.1-.4.1h-.2l-.1-.1c-.1-.2-.2-.5-.2-.7v-.2h-.4c0-.1-.1-.2-.2-.3z"/>
		<path d="M34.4 25.6c.7.7 2.3 2.4 2.1 4.1-.8-.3-1.5-.8-2-1.5-.4-.7-.7-1.4-1.2-2h.6c.4.8 1 1.5 1.7 2.1 0 0 .2-.8-1.7-2.6 0-.1-.1-.1-.2-.2.3.1.5.1.7.1zM19.6 12.8c.5-.2.9-.2 1.4 0-.5.1-1 .1-1.4 0zm5.1-.8c0 .1-.1.2-.2.2h-.1-.1v-.1-.1c0-.1.1-.2.2-.2h.2v.2c0-.1 0 0 0 0zm-1.4-.8c-.3-.6-.5-1.1-.6-1.7.1-.1.2-.3.3-.3s.3-.1.3 0c.2.6.4 1.2.4 1.8-.1.1-.2.2-.4.2zm.7-.1h.3L24 9.6c0-.1-.1-.2-.1-.3-.2-.2-.3-.3-.4-.3.1.3.2.6.3.8.1.5.1.9.2 1.3zm-.6 1.5c-.4.2-.8.3-1.2.3.2-.3.4-.5.6-.7.4-.2.8-.3 1.2-.3-.1.3-.3.5-.6.7zm-.6.1c.3-.1.6-.3.8-.6-.3.1-.6.3-.8.6z"/>
		<path d="M19.5 12.9c.4.1.9.2 1.4.2.8 0 1.6-.1 2.4-.3 0 .1-.1.2-.2.3-.1.1-.2.1-.3.2.1 0 .3.1.3.1 0 .1-.1.2-.2.2-.1.1-.2.1-.3.1.3.3.7.5 1.1.5-.1.1-.2.2-.4.2h-.4c-.4-.1-.7-.3-.9-.6.1.1.1.3.1.4-.1 0-.2 0-.3-.1-.1 0-.2-.1-.2-.2.1.1.1.3.2.5-.2 0-.3-.1-.4-.1.1.1.1.2.1.4-.4-.1-.7-.3-1.1-.6v.4c.2.1-.9 0-.9-1.6zm1.8.7h-1.2c0 .1 0 .2.1.3 0 .1.1.2.2.2 0-.5.9-.5.9-.5zm-2-.5c0 .3.1.6.2.9-.2-.1-.4-.3-.5-.6-.1-.3-.1-.5.3-.3zm.2 1l.6.4c-.2.1-.4.1-.6.2-.2-.2-.5-.3-.7-.3s-.5.1-.7.3c-.1-.1-.2-.1-.3-.2-.1-.1-.1-.2-.1-.3v-.3c0-.1.1-.2.1-.3.1-.1.3-.2.5-.3.2 0 .4 0 .5.1.1.2.2.3.3.5.1 0 .2.1.4.2zm-1 .1c.1 0 .1 0 0 0 .1 0 .1-.1.1-.1V14v-.1h-.2s-.1 0-.1.1v.1c.1 0 .1.1.2.1zm1.6.4c.1.2.3.4.5.6-.3 0-.6.1-.8.2-.2.2-.4.4-.6.7-.1-.1-.2-.3-.2-.5s0-.4.1-.5c.1-.1.3-.3.4-.3.3-.1.4-.2.6-.2zm1.2.2l.5.1v-.3c.2 0 .2.1.3.1.1.4.3.8.6 1.2 0 .2-.1.3-.2.4-.2-.3-.4-.6-.6-.8-.2-.3-.4-.5-.8-.7h.2zm-.9 0c.4.1.7.2 1 .4.2.1.3.3.4.4.1.2.2.4.2.6-.2-.2-.3-.4-.6-.6-.4-.1-.8-.4-1-.8zm0-3.6c.2 0 .3.1.3.2-.1.3-.2.5-.3.8-.3-.2-.4-.5-.4-.8 0-.1.1-.1.2-.2h.2zm-.2 1.4c-.1-.3-.2-.7-.3-1-.1-.1-.3-.1-.4-.1-.1 0-.1 0-.1.1l-.1.1v.1l.6.9c0-.1.1-.2.3-.1zm.3 0c.1-.3.2-.7.3-1 .1-.1.3-.1.4-.1.1 0 .1 0 .1.1l.1.1v.1c-.2.3-.3.6-.6.9-.1-.1-.2-.2-.3-.1zm.4-2.2h-.4V10h-.2v.4h-.4v.3h.4v.3h.2v-.4h.4v-.2zm-4.3 2.5v-.7c-.2.1-.3.1-.5.3-.1.1-.2.3-.3.4 0 0 .6-.3.8 0zm.5.9c.1-.3.2-.6.2-.9.1-.2.1-.4.1-.6 0-.2-.1-.4-.2-.6-.1-.3-.2-.7-.2-1l-.5.2c0 .3.1.7.3 1 .1.3.1.6.1.8v.6c0 .2.1.4.2.5zm0-3v-.2c.3-.3.6-.5 1-.6.2-.1.3 0 .6.1-.1 0-.3.1-.3.1-.2.2-.5.4-.7.5-.3.1-.4.1-.6.1"/>
		<path d="M18.6 10.1c.2.1.3.3.3.6-.1.3-.2.6-.3.8-.2.2-.3.4-.3.7 0 .1.2.3.2.4-.1 0-.3-.1-.4-.2-.1-.1-.2-.2-.3-.4v-.4c0-.1.1-.3.2-.4.1-.3.3-.5.5-.8.1.1.1-.1.1-.3zm3.7 4.5c.1.4.3.8.6 1.2.2.3.3.6.3 1 .1-.3.2-.7.2-1.1-.3-.5-.6-.9-1.1-1.1zm.7.1c.2 0 .4.1.6.1.3.2.5.6.6 1l-.6-.3c-.2-.2-.5-.5-.6-.8zm-2.2.9c-.2 0-.3.1-.4.1l.6.3c.1.1.2.2.2.3.1.1.1.3.1.4.1.4.2.8.4 1.1 0-.4.1-.8.2-1.1-.2-.1-.3-.2-.4-.4-.2-.3-.4-.6-.7-.7zm2 1c.2.3.2.7.2 1-.2.4-.4.7-.6 1.1-.1-.4-.1-.8-.2-1.3 0-.2 0-.4.1-.5.1-.2.3-.3.5-.3-.1-.1 0 0 0 0zm.7-.1c.2.4.4.8.5 1.2v.4c0 .1-.1.3-.2.4-.2.3-.4.6-.6.8l-.3-.6c0-.3 0-.6.1-.8.2-.4.4-.9.5-1.4zm.3 2.7c-.3.3-.5.6-.7.9-.1.2-.1.3-.1.4s0 .3.1.4c.2.3.5.6.8.8-.2-.3-.3-.6-.3-1 .1-.2.2-.5.3-.7 0-.3 0-.5-.1-.8zm-1-.3c.1.2.2.4.2.6 0 .3-.1.6-.2.8-.2.4-.3.8-.6 1.2-.1-.2-.3-.4-.3-.6.2-.3.3-.6.6-.8l.3-1.2zm-.2-.2c-.1.7-.4 1.5-.8 2.1-.1.2-.3.4-.5.5l-.6.3c-.2 0-.4-.1-.6-.2-.2-.1-.3-.3-.3-.5-.1-.2-.1-.4-.1-.6 0-.2.1-.4.2-.5 0 .2.1.3.3.5.1.1.3.2.5.3.5-.1 1.2-.7 1.9-1.9"/>
		<path d="M22 18.2c.1.3.1.5 0 .8 0 .1-.1.3-.2.4l-.3.3c-.2.1-.4.1-.5.1-.2 0-.3-.1-.5-.3l-.1-.1c.4 0 .7-.2 1-.4.3-.2.5-.5.6-.8zm1.7 4.8c.3.3.5.7.6 1.1 0 .5-.2 1-.4 1.5-.3-.3-.6-.6-.7-1 0-.3 0-.6.1-.8s.2-.6.4-.8zm-.7.5c.1-.3.3-.6.6-.9.1-.3 0-.6-.1-.9-.1-.3-.3-.5-.6-.6-.3.3-.4.7-.6 1.1 0 .5.5.8.7 1.3zm-1.2-2.4c-.2.2-.3.4-.6.6v.7c.1.4.3.8.4 1.2.2-.3.4-.6.5-.9.1-.3.1-.6.1-.8-.1-.3-.3-.6-.4-.8zm-1.2 2c-.3-.4-.5-.9-.6-1.4.2.1.3.1.5.1s.3 0 .5-.1c.1.3.1.6 0 .9-.1.3-.3.4-.4.5zm0 .2l.4-.3c.1-.1.3.6.4.8-.2 0-.3 0-.3-.1-.1-.1-.3-.2-.5-.4.1.1.1 0 0 0zm1.6-.3c-.2.3-.4.7-.7 1 .1.2.2.5.3.7.2.3.4.6.6.8.2-.3.3-.5.4-.8.2-.2.2-.5.2-.7-.2-.4-.6-.7-.8-1zm.8 1.9c.2.3.4.6.6 1 0 .2 0 .4-.1.6-.1.1-.3.5-.4.8-.3-.2-.5-.5-.6-.8 0-.1-.1-.3 0-.4 0-.1.1-.3.1-.4 0-.3.3-.5.4-.8zm-1.4 0c.2.3.4.5.5.8.1.1.1.3.1.4s0 .3-.1.4c-.2.3-.3.5-.3.6-.2-.2-.4-.5-.5-.8-.1-.3-.1-.6 0-.8.1-.1.2-.4.3-.6zm2 2c-.3.4-.5.8-.6 1.3.1.4.3.9.4 1.3.2-.2.4-.4.5-.7.2-.3.2-.6.2-.9 0-.2 0-.3-.1-.5s-.2-.3-.3-.4c0-.1-.1-.1-.1-.1zm-1.2-.1c.2.3.3.7.3 1.1-.1.4-.3.7-.6 1-.1-.3-.3-.5-.3-.8 0-.2 0-.5.1-.7.1-.3.3-.4.5-.6zm7-14c-.5-.2-.9-.2-1.4 0 .5.1 1 .1 1.4 0zm-4.9-2.2c.2-.4.3-.9.4-1.3 0-.1 0-.2-.1-.3-.1-.1-.2-.1-.3-.1s-.2 0-.3.1c-.1.1-.1.2-.1.3.1.4.2.8.4 1.3zm1.2.7c.3-.6.5-1.1.6-1.7-.1-.1-.2-.3-.3-.3s-.3-.1-.3 0c-.2.6-.4 1.2-.4 1.8l.4.2zm-.7-.2h-.3l.3-1.5c0-.1 0-.3.1-.4.2-.1.3-.2.4-.2-.1.3-.2.6-.3.8-.1.5-.1.9-.2 1.3zm.1.8c.4 0 .8.1 1.2.3.3.2.5.4.6.7-.4 0-.8-.1-1.2-.3-.2-.1-.3-.2-.4-.3s-.2-.3-.2-.4zm.2.2c.2.2.5.4.8.6-.1-.1-.2-.3-.4-.4 0-.1-.2-.2-.4-.2zm3.1 2.5v-.4c-.3.2-.6.4-1 .6 0-.1 0-.2.1-.4-.1.1-.3.1-.4.1.1-.1.1-.4.2-.5l-.2.2c-.1 0-.2.1-.3.1 0-.1 0-.3.1-.4-.2.3-.5.5-.8.6h-.4c-.1 0-.3-.1-.4-.2.4 0 .8-.2 1.1-.5-.2-.1-.3-.2-.4-.4.1-.1.2-.1.3-.1-.1 0-.2-.1-.3-.2-.1-.1-.1-.2-.2-.3.8.2 1.6.3 2.4.3.5 0 .9-.1 1.4-.2-.2 1.6-1.2 1.7-1.2 1.7zm.2-.6l.2-.2c0-.1.1-.2.1-.3-.4 0-.8 0-1.3-.1v.1c.1.1 1 .1 1 .5zm1.1-.9c0 .3-.1.6-.2.9.2-.1.4-.3.5-.6.1-.3.1-.5-.3-.3zm.7.3c.2-.1.4-.1.5-.1.2 0 .3.1.5.3.1.2.1.4.1.6-.1.2-.2.4-.3.5-.2-.2-.5-.3-.7-.3s-.5.1-.7.3c-.2-.1-.4-.2-.6-.2.2-.2.3-.3.6-.4.2-.1.5-.3.6-.7zm.3.8s0-.1 0 0c0-.1-.1-.1-.1-.1h-.1-.1v.2s0 .1.1.1h.1c.1 0 .1-.1.1-.2zm-1.8.5c-.1.2-.3.4-.5.6.3 0 .6.1.8.2.2.2.4.4.6.7.1-.1.2-.3.2-.5s0-.4-.1-.5l-.4-.4c-.2-.1-.4-.1-.6-.1"/>
		<path d="M27.7 14.9l-.5.1v-.3c-.2 0-.2.1-.3.1-.1.4-.4.8-.6 1.1 0 .2.1.3.2.4.2-.3.4-.6.6-.8 0-.2.3-.4.6-.6zm.9-.1c-.4.1-.7.2-1 .4-.2.1-.3.3-.4.4-.1.2-.2.4-.2.6.2-.2.3-.4.6-.6.4-.1.8-.4 1-.8zm0-3.6c-.2 0-.3.1-.3.2.1.3.2.5.3.8.2-.2.3-.5.3-.8 0-.1-.1-.2-.3-.2zm.2 1.4c0-.3.1-.7.3-1 .1-.1.3-.1.4-.1.1 0 .2.1.2.2v.1l-.6.9c0-.1-.1-.1-.3-.1zm-.3 0c-.1-.3-.2-.7-.3-1-.1-.1-.3-.1-.4-.1-.1 0-.1 0-.1.1l-.1.1v.1l.6.9c0-.1.2-.2.3-.1zm-.4-2.2h.4V10h.3v.4h.3v.3h-.3v.3h-.3v-.4h-.4v-.2zM24 8.1h.3v-.4h.3v.4h.4v.2h-.3v.5h-.3v-.5H24v-.2zm8.4 4.8v-.7c.2.1.3.1.5.3.1.1.2.3.3.4 0 0-.6-.4-.8 0zm-.5.9c-.1-.3-.2-.6-.2-.9-.1-.4-.1-.9.1-1.3.2-.3.3-.7.2-1l.5.2c0 .3-.1.7-.3 1-.1.3-.1.6-.1.8.1.2.1.4.1.6-.1.3-.2.5-.3.6zm0-3v-.2c-.3-.3-.6-.5-1-.6-.2-.1-.3 0-.6.1.1 0 .3.1.3.1.2.2.5.4.7.5.3.1.4.1.6.1"/>
		<path d="M30.4 10.1c-.2.1-.3.3-.3.6.1.3.2.6.3.8.2.2.3.4.3.7 0 .1-.2.3-.2.4.1 0 .3-.1.4-.2.1-.1.2-.2.3-.4v-.4c0-.1-.1-.3-.2-.4-.1-.3-.3-.5-.5-.8-.1.1-.1-.1-.1-.3zm-3.7 4.5c-.1.4-.3.8-.6 1.2-.2.3-.3.7-.3 1.1-.1-.3-.2-.7-.2-1.1.1-.3.2-.5.3-.7s.5-.5.8-.5zm-.7.1c-.2 0-.4.1-.6.1-.3.2-.5.6-.6 1l.6-.3c.2-.2.5-.5.6-.8zm2.2.9c.2 0 .3.1.4.1l-.6.3c-.1.1-.2.2-.2.3-.1.1-.1.3-.1.4-.1.4-.2.8-.4 1.1 0-.4-.1-.8-.2-1.1.2-.1.3-.2.4-.4.1-.2.2-.3.3-.4.1-.2.3-.3.4-.3 0 0 0-.1 0 0zm-2 1c-.2.3-.2.7-.2 1.1.2.4.4.7.6 1.1.1-.4.1-.8.2-1.3 0-.2-.1-.4-.1-.5s-.3-.4-.5-.4c.1-.1 0 0 0 0zm-1.7 1.2c0-.3.6-.9.6-1.3 0-.1-.1-.3-.2-.4s-.2-.2-.4-.2c-.3.1-.5.4-.6.6 0 .4.6 1.1.6 1.3zm1-1.3c-.2.4-.4.8-.5 1.2v.4c0 .1.1.3.2.4.2.3.4.6.6.8l.3-.6c0-.3 0-.6-.1-.8-.2-.4-.4-.9-.5-1.4zm-1 3.3c.2-.1.3-.3.4-.6 0-.1.1-.2 0-.3 0-.1-.1-.2-.1-.3-.2-.2-.3-.4-.3-.6l-.3.6c-.1.1-.1.2-.1.3v.3c.1.3.2.5.4.6zm.7-.6c.3.3.5.6.7.9.1.1.1.2.1.4s0 .3-.1.4c-.2.3-.5.6-.8.8.2-.3.3-.6.3-1-.1-.2-.2-.5-.3-.7 0-.3 0-.5.1-.8zm1-.3c-.1.2-.2.4-.2.6 0 .3.1.6.2.8.2.4.3.8.6 1.2.1-.2.3-.4.3-.6-.2-.3-.3-.6-.6-.8s-.2-.9-.3-1.2zm.2-.2c.1.7.4 1.5.8 2.1.1.2.3.4.5.5l.6.3c.2 0 .4-.1.6-.2.2-.1.3-.3.3-.5.1-.2.1-.4.1-.6 0-.2-.1-.4-.2-.5 0 .2-.1.3-.3.5-.1.1-.3.2-.5.3-.4-.1-1.1-.7-1.9-1.9"/>
		<path d="M27 18.2c-.1.3-.1.5 0 .8 0 .1.1.3.2.4l.3.3c.2.1.4.1.5.1.2 0 .3-.1.5-.3l.1-.1c-.4 0-.7-.2-1-.4-.3-.2-.5-.5-.6-.8zm-2.5 3.5c.2-.1.3-.2.4-.4.1-.3.2-.5.2-.8l-.3-.6c-.1.1-.2.2-.3.2-.1-.1-.2-.1-.3-.2-.1.2-.3.4-.3.6v.4c0 .1.1.3.2.4.1.3.2.3.4.4zm0 2.1c.1-.4.7-.9.7-1.3s-.4-.4-.7-.6c-.3.2-.6.1-.7.6 0 .3.6.9.7 1.3zm.8-.8c-.3.3-.5.7-.6 1.1 0 .5.2 1 .4 1.5.3-.3.6-.6.7-1 0-.3 0-.6-.1-.9-.1-.2-.2-.5-.4-.7zm.7.5c-.1-.3-.3-.6-.6-.9-.1-.3 0-.6.1-.9.1-.3.3-.5.6-.6.2.3.4.7.6 1.1 0 .5-.5.8-.7 1.3zm1.2-2.4c.2.2.3.4.6.6v.7c-.1.4-.3.8-.4 1.2-.2-.3-.4-.6-.5-.9-.1-.3-.1-.6-.1-.8l.4-.8zm1.2 2c.3-.4.5-.9.6-1.4-.2.1-.3.1-.5.1s-.3 0-.5-.1c-.1.3-.1.6 0 .9.1.3.3.4.4.5zm0 .2c-.2-.1-.3-.2-.3-.4-.2.3-.3.6-.4.8.2 0 .3 0 .3-.1 0 0 .2-.2.4-.3zm-1.7-.3c.2.3.4.7.7 1-.1.2-.2.5-.3.7-.2.3-.4.6-.6.8-.2-.3-.3-.5-.4-.8-.1-.2-.1-.5-.1-.7.2-.4.6-.7.7-1 0-.1 0 0 0 0zm-2.2 4.4c.2-.3.3-.5.5-.8.1-.2.1-.4 0-.6-.1-.2-.4-.7-.5-.8-.2.3-.4.5-.5.8-.1.2-.1.4 0 .6.1.5.5.7.5.8 0 .1 0 0 0 0zm1.4-2.5c-.2.3-.4.6-.6 1 0 .2 0 .4.1.6.1.1.3.5.4.8.3-.2.5-.5.6-.8 0-.1.1-.3 0-.4 0-.1-.1-.3-.1-.4 0-.2-.3-.4-.4-.8zm1.4 0c-.2.3-.4.5-.5.8-.1.1-.1.3-.1.4s0 .3.1.4c.2.3.3.5.3.6.2-.2.4-.5.5-.8.1-.3.1-.6 0-.8-.1-.1-.2-.4-.3-.6zm-2.8 6.6c.3-.6.5-1.2.6-1.9-.1-.5-.3-.9-.6-1.3-.3.4-.5.8-.6 1.3.1.7.3 1.3.6 1.9zm.8-4.6c.3.4.5.8.7 1.3-.1.4-.3.9-.4 1.3-.2-.2-.4-.4-.5-.7-.1-.1-.2-.3-.2-.4v-.5c0-.2 0-.3.1-.5 0-.3.1-.4.3-.5zm1.3-.1c-.2.3-.3.7-.3 1.1.1.4.3.7.6 1 .1-.3.3-.5.3-.8 0-.2 0-.5-.1-.7-.1-.3-.3-.4-.5-.6"/>
		<path d="M25 32.9c.1-.5.3-1 .5-1.4v-.6c0-.2-.1-.4-.3-.6-.2.6-.4 1.2-.7 1.8-.3-.6-.5-1.2-.7-1.8l-.3.6c0 .2-.1.4 0 .6.2.4.4.9.5 1.4 0 .2-.1.4-.2.6-.1.2-.3.3-.5.3.2.1.4.1.5 0 .2-.1.3-.2.5-.3.1-.1.2-.2.2-.3.1.1.1.2.2.3.1.2.3.3.5.3.2.1.4 0 .5 0-.2-.1-.3-.2-.4-.4-.1-.1-.2-.3-.3-.5zm-2.3-4.4c.1.2.3.7.3.8 0 .2 0 .4-.1.5-.1.2-.2.3-.4.4-.2-.1-.3-.3-.4-.5 0-.1-.1-.2 0-.3 0-.1.1-.2.1-.3.2-.2.3-.4.5-.6zm1 1c0 .4-.1.9-.3 1.3-.1.2-.3.4-.5.6-.2.2-.4.3-.7.3-.2 0-.4-.1-.6-.3 0-.1.1-.3.2-.4.1-.1.2-.2.3-.2.7-.3 1.3-.7 1.6-1.3zm-1.3 1c-.1-.1-.2-.1-.3-.2-.2.1-.5.2-.7.4-.3.2-.5.5-.8.8.2.1.5.1.8 0 .1-.3.2-.5.4-.6.2-.3.4-.4.6-.4zm-.4-.4c-.1-.2-.2-.4-.2-.6l-.8.5c-.3.2-.5.4-.7.7.3-.1.5-.2.8-.2.3-.1.6-.3.9-.4zm-1.1.7c-.5.2-1 .3-1.5.4-.3.1-.7.4-.9.6l.8.2c.3-.2.5-.3.8-.5.3-.2.6-.4.8-.7zm-.7 2.3c.2-.1.2-.2.1-.3-.1-.2-.3-.3-.5-.3-.4-.2-.9-.3-1.3-.4-.1.1-.1.2-.2.3 0 .1 0 .2.2.2h.9s.1.1.1.2v.2c.1-.1.3-.1.4-.2.1.1.2.1.2.2 0-.1.1 0 .1.1zm-.7-1.1c.2.1.5.2.7.3.1-.1.2-.1.2-.2.1-.2.3-.4.6-.6-.1 0-.2 0-.3-.1-.2.1-.3.1-.4.1-.4.2-.6.3-.8.5zm2-.5c-.1.1-.2.1-.3.1-.4.2-.6.6-.8 1v.4c.1.1.1.2.3.3.1.1.3.1.5 0s.3-.2.4-.3c0-.1.1-.1.1-.2-.1 0-.1.1-.2.1h-.2c-.1 0-.1 0-.2-.1-.1 0-.1-.1-.2-.1-.1-.1-.1-.2-.1-.4 0-.1.1-.3.2-.3s.1-.1.2-.1c.2-.1.5-.2.8-.2-.3-.1-.4-.2-.5-.2"/>
		<path d="M16.9 37c.1-.3.2-.7.3-1 .3-.7 1.1-2.5 2.7-2.7.2 0-.2-.4-.3-.3l-.6.3v-.4c0-.1-.1-.1-.2-.1-.2 0-.4.1-.6.2-.5.7-1 1.6-1.3 2.4-.3.8-.6 1.1-1 1s-.6-.6-1.3-.4c-.3.1-.5.2-.7.4 0 .1.1.1.2.2s.2 0 .3 0c.4 0 .8.1 1.2.3.5 0 .9.1 1.3.1zm6.4-5.5c0 .3.2.5.3.8 0 0-.5 2.3-2.3 2.5.1-.3.3-.6.6-.8.6-.3 1.3-.9 1.3-1.7-.2.1-.3.2-.4.3-.3.3-.8 1.3-1.7 1.3.1-.3.3-.5.5-.7.4-.2.8-.5 1.1-.9.1-.4.3-.7.6-.8zm-.8 8.3l1.1 1.5.8-1.5-.3-.5-.6 1.1-.7-1.1-.3.5"/>
		<path d="M22.2 38.5L19.8 35l.4-.3-1.3-.5v1.4l.4-.3 2.6 3.6.3-.4zm-8.8-8.2c.3-.4.8-.1 1.4.5.6.6.9 1 .6 1.3-.3.3-.8.1-1.4-.4-.6-.6-.9-1.1-.6-1.4z"/>
		<path d="M14.3 36.4c-.2-.1-.3-.3-.4-.5-.1-.2-.1-.4-.1-.6 0-.2 0-.4.1-.6.1-.2.2-.4.3-.5.1-.1.3-.3.5-.4.2-.1.4-.1.6-.1.2 0 .4 0 .6.1.2.1.4.2.5.4.1.1.2.3.3.5.1.2.1.4.1.6v.3c.1-.3.2-.5.3-.8-.1-.5-.4-.9-.9-1.1-.4-.3-.9-.3-1.4-.2-.5.2-.9.5-1.2 1 .1-.6.3-1.2.8-1.7.2-.2.5-.3.8-.4-.3 0-.5-.1-.7-.2-.2-.1-.4-.3-.6-.5-.4-.3-.7-.7-.8-1.2.1.4 0 .8-.2 1.1-.4.8-.6 1.7-.5 2.5.2.8.6 1.6 1.3 2.2.1.1.1.2.2.3v.3h1.3s.3 0 .3-.2-.2-.2-.3-.2c-.3 0-.6 0-.9-.1zm5.8.3c-.7.2-1.3.4-2 .5-.4.1-.8.1-1.2.1v.2s0 .1.1.1 0 .1 0 .1c.4 0 .8 0 1.3-.1.8-.1 1.5-.3 2.2-.6l-.4-.3zm1.1 0c1.1-.6 2-1.4 2.6-2.5l.2-.2c-.1 0-.2.1-.2.1s-.2 0-.2-.1l-.1.2c-.6.9-1.4 1.7-2.4 2.3l.1.2zm-6 .4h-.8H14.1l-.1.1v.2c-.1.2 0 .3.2.4s.3.1.3 0c.3-.1.6-.3.8-.5 0-.1.1-.3-.1-.2zm.6.3c-.1-.1-.2-.1-.3-.1-.3.2-.5.3-.8.6-.1.2 0 .2.2.3.1.1.2.1.3.1.1 0 .3-.1.3-.2.1-.1.3-.4.4-.5 0 0 0-.1-.1-.2zm.1.4c-.1.1-.3.4-.3.4s0 .1.1.2h.1c.3 0 .5-.1.7-.2.2-.1.4-.5.2-.6-.1 0-.1-.1-.2-.1h-.2c-.1 0-.1 0-.2.1s-.2.1-.2.2zm.2-.9c-.1 0-.1-.1-.2-.1s-.1 0-.2.1c-.1.2 0 .3.2.3.1.1.2.1.4.1h.4c0-.1-.2-.3-.6-.4zm10.3-8.4c-.1.2-.3.7-.3.8 0 .2 0 .4.1.5.1.2.2.3.4.4.2-.1.3-.3.4-.5 0-.1.1-.2 0-.3 0-.1-.1-.2-.1-.3-.2-.2-.4-.4-.5-.6zm-1.1 1c0 .4.1.9.3 1.3.1.2.3.4.5.6.2.2.4.3.7.3.2 0 .4-.1.6-.3 0-.1-.1-.2-.1-.3-.1-.1-.2-.2-.3-.2-.7-.4-1.2-.8-1.7-1.4"/>
		<path d="M26.6 30.4c.1-.1.2-.1.3-.2.2.1.5.2.7.4.3.2.5.5.8.8-.2.1-.5.1-.8 0-.1-.3-.2-.5-.4-.6-.1-.2-.3-.3-.6-.4zm.4-.3c.1-.2.2-.5.2-.7l.8.6c.3.2.5.4.7.7-.3-.1-.5-.2-.8-.2-.3-.1-.6-.3-.9-.4.1-.1 0 0 0 0zm1.1.7c.5.2 1 .3 1.5.4.3.1.7.4.9.6l-.8.2c-.3-.2-.5-.3-.8-.5-.3-.2-.6-.4-.8-.7zm.7 2.3c-.2-.1-.2-.2-.1-.3.1-.2.3-.3.5-.3.4-.2.9-.3 1.3-.4.1.1.1.2.2.3 0 .1 0 .2-.2.2h-.9s-.1.1-.1.2v.2c-.1-.1-.3-.1-.4-.2-.1-.1-.3.1-.3.3zm.7-1.1c-.2.1-.5.2-.7.3h-.1v-.1c-.1-.2-.3-.4-.6-.6.1 0 .2 0 .3-.1.2.1.3.1.4.1.3.1.5.2.7.4zm-2-.5c.1.1.2.1.3.1.4.2.6.6.8 1v.4c-.1.1-.1.2-.3.3-.1.1-.3.1-.5 0s-.3-.2-.4-.3c0-.1-.1-.1-.1-.2.1.1.2.1.4.1.1 0 .3-.1.3-.2.1-.1.1-.2.1-.4s-.1-.3-.2-.3-.1-.1-.2-.1c-.2-.1-.5-.2-.8-.2.4 0 .5-.2.6-.2zm4.6 5.5c-.1-.3-.2-.7-.4-1-.3-.7-1.1-2.5-2.7-2.7-.2 0 .2-.4.3-.3l.6.3v-.4c0-.1.1-.1.2-.1h.3c.1 0 .2.1.3.1.6.8 1 1.6 1.3 2.5.3.8.6 1.1 1 1s.6-.6 1.3-.4c.3.1.5.2.7.4 0 .1-.1.1-.2.2s-.2 0-.3 0c-.4 0-.8.1-1.2.3-.3 0-.7.1-1.2.1 0 .1 0 0 0 0zm-6.4-5.5c0 .3-.2.5-.3.8 0 0 .5 2.3 2.3 2.5-.1-.3-.3-.6-.6-.8-.6-.3-1.3-.9-1.3-1.7.2.1.3.2.4.3.3.3.8 1.3 1.7 1.3-.1-.3-.3-.5-.5-.7-.4-.2-.8-.5-1.1-.9-.1-.4-.3-.7-.6-.8zm-1.2 2.2c.3.6.6 1.1 1.1 1.5.3.3 1 1 1.4 1.3-.6-.1-1.2-.4-1.7-.8-.2.1-.5.2-.8.3-.3 0-.5-.1-.8-.3-.5.4-1.1.7-1.7.8.3-.3 1.1-1.1 1.4-1.3.5-.4.9-1 1.1-1.5"/>
		<path d="M24.5 36.2c.2 0 .4-.1.6-.2-.1.3-.3.6-.6.8-.3-.2-.5-.5-.6-.8.2.1.4.2.6.2z"/>
		<path d="M25.4 41.3l4.3-5.9.4.3v-1.4l-1.3.5.4.3-3.8 5.3-2-3.5-.2.3-1.7 2.6-.4-.3v1.4l1.3-.5-.4-.3 1.5-2.3 1.9 3.5"/>
		<path d="M26.2 38.9l-.7-1.1c-.1.2-.3.6-.6 1.1l-.3-.6.8-1.5.2.3.8 1.3-.2.5zm.9.4l.3.5.4-.3v1.4l-1.3-.5.4-.3-.2-.3.4-.5c0-.1 0 0 0 0zm8.5-9.1c-.3-.4-.8-.1-1.4.5s-.9 1-.6 1.3c.3.3.8.1 1.4-.4.6-.5.9-1 .6-1.4z"/>
		<path d="M34.8 36.4c.2-.1.3-.3.4-.5.1-.2.1-.4.1-.6 0-.4-.2-.7-.5-1s-.6-.4-1-.4-.7.1-1 .4-.4.6-.5 1v.3c-.1-.2-.3-.7-.3-.8.1-.5.4-.9.9-1.1.4-.3.9-.3 1.4-.2.5.2.9.5 1.2 1-.1-.6-.3-1.2-.8-1.7-.2-.2-.5-.3-.8-.4.3 0 .5-.1.7-.2.2-.1.4-.3.6-.5.4-.3.7-.7.8-1.2-.1.4 0 .8.2 1.1.4.8.6 1.7.5 2.5-.2.8-.6 1.6-1.3 2.2-.1.1-.1.2-.2.3v.3h-1.4s-.3 0-.3-.2.2-.2.3-.2c.3 0 .7 0 1-.1zm-6.9.3c-1.1-.6-2-1.4-2.6-2.5l-.2-.2c.1 0 .2.1.2.1s.2 0 .2-.1l.1.2c.6.9 1.4 1.7 2.4 2.3l-.1.2zm1 0c.7.2 1.3.4 2 .5.4.1.8.1 1.2.1v.2s0 .1-.1.1 0 .1 0 .1c-.4 0-.8 0-1.3-.1-.7-.1-1.4-.3-2.1-.6l.3-.3zm4.8.4h.8c.2 0 .4.1.6.2v.3c0 .1-.1.2-.2.2-.2.1-.3.1-.3 0-.3-.1-.6-.3-.8-.5-.2-.1-.3-.3-.1-.2.1 0 0 0 0 0zm-.6.3c.1-.1.3-.1.4-.1.3.2.5.3.8.6.1.2 0 .2-.2.3-.1.1-.2.1-.3.1-.1 0-.3-.1-.3-.2-.1-.1-.3-.4-.4-.5v-.2zm-.1.4c.1.1.3.4.3.4s0 .1-.1.2h-.1c-.3 0-.5-.1-.7-.2-.2-.2-.4-.5-.2-.6.1 0 .1-.1.2-.1h.2c.1 0 .1 0 .2.1s.2.1.2.2zm-.2-.9c.1 0 .1-.1.2-.1s.1 0 .2.1c.1.2 0 .3-.2.3-.1.1-.2.1-.4.1h-.4c0-.1.2-.3.6-.4zM95.7 14.7c-.2-1.9-1.1-2.9-3.2-2.9h-2.6l-.4 10.7h2s.2-5 .2-5.2h2.4c0 .2.4 5.2.4 5.2h2s-.7-7.4-.8-7.8zm-4 .8c0-.2.1-1.7.1-2h.4c1.4 0 1.7.3 1.8 2h-2.3zM72.1 29.4c-.2-1.9-1.1-2.9-3.2-2.9h-2.7l-.3 10.7h2s.2-5 .2-5.2h2.4c0 .2.4 5.2.4 5.2h2s-.7-7.4-.8-7.8zm-4 .8c0-.2.1-1.7.1-2h.3c1.4 0 1.7.3 1.8 2h-2.2zM57.5 11.8v10.7h2v-9h2.4v9h2V11.8h-6.4zm20.8 3.8h-1.1c-.4 0-.7-.1-1-.3-.1-.1-.1-.2-.2-.3V11.8h-2v3.1c0 .3.1.7.2 1 .1.3.4.6.6.8.6.5 1.3.7 2 .7h1.4v5.2h2V11.8h-2l.1 3.8zm4.1-3.8v1.7H84v9h2v-9h1.6v-1.7h-5.2zm-2.8 14.6v3.4h-2.7v-3.4H75v10.7h1.9v-5.5h2.7v5.5h2V26.5l-2-.1zM60.4 30h-.9v-1.7H63v-1.7h-5.5v10.7h3c.5 0 .9-.1 1.4-.3.4-.2.8-.5 1.2-.8.3-.3.6-.7.7-1.2.2-.4.2-.9.2-1.4-.1-1.2-.5-3.6-3.6-3.6zm-.2 5.5c-.2 0-.7-.1-.7-.1v-3.8h.3c1 0 2.2-.1 2.2 1.9 0 1.9-1.3 2.1-1.8 2zm12.5-18.7c0-1.2-.2-2.4-.7-3.4-.2-.5-.6-1-1.1-1.3s-1.1-.5-1.6-.5h-.1c-.6 0-1.2.2-1.6.5s-.9.8-1.1 1.3c-.5 1.1-.7 2.3-.7 3.4v.4c0 .9.1 1.7.3 2.6.6 2.2 1.7 2.9 3.1 3h.1c1.3 0 2.5-.8 3.1-3 .2-.8.3-1.7.3-2.6v-.4zm-5.1.3c0-2.9.7-3.8 1.5-3.8s1.5 1 1.5 3.8-.7 3.8-1.5 3.8-1.4-1-1.5-3.8zm23.6 20.1l-2.4-6.3c.6-.4 1-1 1.1-1.7.1-.7.4-2.6.4-2.6h-2c0 .2-.1.8-.1 1.5-.1 1.1-.4 2-1.4 2h-.7v-3.5h-2v10.7h2v-5.5h1.2l2 5.5c0-.1 1.9-.2 1.9-.1z"/>
	</g>
</svg>