<svg xmlns="http://www.w3.org/2000/svg" viewBox="0 0 141 36">
	<path fill="#D9007E" d="M11.0973.597656C8.43193 1.31853 6.00131 2.75178 4.05406 4.75077 2.10148 6.7427.702146 9.23155 0 11.9613V3.20053c.00122974-.68911.268674-1.34971.74389-1.83743C1.21911.875378 1.86345.600184 2.53612.597656h8.56118ZM30.1716 11.9613c-.7015-2.72897-2.0991-5.21761-4.0495-7.21053C24.1732 2.7516 21.741 1.3184 19.0742.597656h8.5612c.6727.002528 1.317.277722 1.7923.765444.4752.48772.7426 1.14832.7439 1.83743v8.76077Zm-4.0495 15.3972c-1.9477 2.0009-4.3803 3.4343-7.0479 4.1532h8.5612c.6719-.0026 1.3155-.2771 1.7906-.7638.4751-.4867.7431-1.1461.7456-1.8343v-8.7752c-.6989 2.7329-2.0968 5.2252-4.0495 7.2201ZM0 20.1383c.70062 2.7332 2.10006 5.2255 4.05406 7.2201 1.946 2.0007 4.37709 3.4342 7.04324 4.1532H2.53612c-.67224-.0013-1.31659-.2754-1.791942-.7624C.268829 30.2622.00123461 29.6021 0 28.9135v-8.7752Z"/>
	<path fill="#00B295" d="M8.21554 9.01936c1.35876-1.39154 3.08976-2.3391 4.97416-2.72287 1.8844-.38377 3.8376-.18651 5.6126.56683 1.775.75335 3.292 2.02894 4.3594 3.66548 1.0673 1.6365 1.637 3.5606 1.637 5.5288 0 1.9682-.5697 3.8922-1.637 5.5288-1.0674 1.6366-2.5844 2.9122-4.3594 3.6655-1.775.7533-3.7282.9506-5.6126.5668-1.8844-.3837-3.6154-1.3313-4.97416-2.7228-.90296-.9239-1.6193-2.021-2.10804-3.2287-.48875-1.2077-.74031-2.5023-.74031-3.8096 0-1.3074.25156-2.6019.74031-3.8096.48874-1.2077 1.20508-2.30478 2.10804-3.22864Z"/>
	<path fill="#D9007E" d="M44.0808 6.3588V22.11c.0264.2146-.027.4315-.1495.6077-.0934.1052-.3316.1483-.7193.1483h-4.2455c-.2323.0236-.466-.0283-.6679-.1483-.0793-.0771-.1393-.1725-.1751-.2782-.0358-.1058-.0462-.2188-.0304-.3295V2.421C47.9013-2.56465 57.7842.416218 57.7842 8.91861V22.11c.0297.2141-.0221.4317-.1448.6077-.0934.1052-.3316.1483-.7146.1483h-4.2502c-.2292.021-.4591-.0308-.6585-.1483-.0775-.0782-.1361-.1739-.1709-.2794-.0349-.1055-.0452-.218-.03-.3283V10.9425c.012-.8037-.0648-1.60624-.2288-2.39231-.1248-.62446-.3921-1.2098-.78-1.70813-.4008-.48745-.929-.84764-1.5226-1.03828-1.3498-.47847-3.7879-.4067-5.2124.56938M97.3531 17.1629V1.43562c-.0255-.21454.0277-.43113.1494-.607656.2173-.129316.4701-.181462.7193-.148326h4.2452c.229-.014973.457.036436.659.148326.079.077484.138.172936.174.278546.036.10562.046.21839.031.32911V21.1007c-9.8078 4.9856-19.7001 2.0048-19.7001-6.4976V1.43562c-.0243-.21378.0271-.42937.1448-.607656.2165-.126635.467-.178633.7146-.148326h4.2502c.226-.017794.452.033848.6492.148326.0821.07534.145.170069.1833.275956.0382.1059.0507.21976.0362.3317V12.5839c-.0118.8037.065 1.6063.2289 2.3924.1187.6276.383 1.2167.7706 1.7177.3996.4888.9282.8493 1.5226 1.0382 1.3405.4785 3.7879.4067 5.2124-.5693M67.0276 30.7656c.0289.2095-.023.4223-.1448.5933-.2227.107-.4702.1484-.7146.1196h-4.2596c-.2227.0151-.4456-.0259-.6492-.1196-.1401-.0861-.2008-.2871-.2008-.5933V2.33021c4.353-2.71292 10.9619-2.956939 14.8478-1.19139 1.2475.54059 2.3496 1.38084 3.2133 2.44976.8325 1.07425 1.4298 2.31928 1.7515 3.65071.3671 1.47744.5476 2.99701.5371 4.52151.0096 1.5049-.1837 3.0039-.5744 4.4545-.3559 1.3263-.9621 2.5682-1.7842 3.6555-.8134 1.0503-1.8501 1.8964-3.0312 2.4737-1.3563.6278-2.8324.9368-4.3203.9043-.822 0-1.5927-.0382-2.2933-.1052-.7995-.0854-1.5934-.2196-2.3773-.4019v8.0239Zm8.1175-19.1388c.0192-.9819-.0908-1.96197-.327-2.91382-.1756-.70802-.5117-1.36369-.9808-1.91388-.4245-.47789-.9689-.82712-1.574-1.00957-.6769-.20815-1.3811-.30821-2.0877-.29665-.5067.00745-1.0124.05062-1.5133.12919-.5528.06668-1.0994.17868-1.6347.33493v11.5311c.6326.1765 1.2775.3029 1.929.378.5651.0526 1.0649.0861 1.5132.0861.6291.0229 1.2555-.0935 1.8367-.3412.5811-.2477 1.1033-.6209 1.5308-1.0942.875-.9474 1.3109-2.5742 1.3078-4.8804v-.0096ZM126.362 11.7417c0 3.0479-.607 6.177-2.615 8.5263-2.009 2.3493-4.858 3.067-7.791 3.067-2.933 0-5.787-.7273-7.781-3.067-1.994-2.3397-2.62-5.4784-2.62-8.5263 0-3.04781.607-6.177 2.62-8.53106 2.013-2.354067 4.853-3.062202 7.781-3.062202 2.929 0 5.806.736843 7.814 3.062202 2.008 2.32536 2.615 5.47847 2.615 8.53106h-.023Zm-6.198 0c.006-.8576-.062-1.7141-.201-2.55977-.122-.70788-.369-1.38713-.728-2.00478-.312-.54426-.75-1.00119-1.275-1.33015-.621-.31793-1.305-.48345-1.999-.48345-.694 0-1.379.16552-1.999.48345-.526.32896-.964.78589-1.275 1.33015-.353.62517-.592 1.311-.706 2.02392-.139.84563-.206 1.70213-.2 2.55973-.006.8545.061 1.7078.2 2.5503.114.7144.353 1.4018.706 2.0287.313.539.751.9909 1.275 1.3158.62.3179 1.305.4834 1.999.4834.694 0 1.378-.1655 1.999-.4834.526-.3303.964-.7889 1.275-1.3349.353-.627.592-1.3144.705-2.0288.139-.8424.207-1.6957.201-2.5502h.023Z"/>
	<path fill="#00B295" d="m72.7402 33.4359.1215.0575c.5941.2408 1.2295.3563 1.8682.3397.6931.0563 1.3802-.1669 1.9149-.622.1599-.1632.2868-.357.3733-.5705.0866-.2135.1312-.4424.1312-.6736.0057-.1498-.0178-.2994-.0691-.4399-.0513-.1404-.1295-.269-.2299-.3782-.1442-.1426-.3207-.2461-.5137-.3015.2664-.0842.5097-.2318.7099-.4306.13-.1275.2325-.2816.3009-.4521.0684-.1706.1011-.354.0961-.5383.0066-.1637-.0194-.327-.0764-.48-.057-.153-.1438-.2925-.2552-.41-.1689-.1572-.3677-.2771-.5838-.352-.2162-.0749-.4452-.1033-.6726-.0834-.3301-.0152-.6597.0394-.9682.1604-.3086.121-.5895.3058-.8253.543-.3326.4126-.5533.9077-.6399 1.4354l-.6679 3.177-.014.0191Zm1.4479-2.2248h.9855c.2788-.0316.5592.0415.7893.2057.0681.0691.1211.1521.1557.2436.0346.0915.05.1895.0452.2875.0105.1557-.0149.3117-.0741.4555-.0593.1438-.1507.2713-.2669.3723-.2691.2048-.5992.3079-.9341.2918-.2505-.0041-.5004-.0281-.7473-.0718-.1121 0-.2055-.0574-.3129-.0909l.3596-1.6937Zm.1261-.689.1215-.5551c.0482-.301.1851-.5798.3923-.799.1167-.116.255-.2067.4066-.2667.1517-.06.3136-.0881.4761-.0826.2124-.0106.4208.0612.5839.201.0627.0614.1118.1359.144.2185.0322.0825.0468.1711.0428.2599.0037.2486-.0809.4901-.2382.6795-.1424.1237-.3074.2171-.4855.2747-.178.0575-.3655.078-.5514.0602l-.8921.0096Zm5.0536.6268h2.041l-.5231 2.5358h.9622l1.1536-5.6028-.9995.1914-.4344 2.1196h-2.041l.4671-2.311-.9995.1914-1.1117 5.4114h.9342l.5511-2.5358Zm8.6312-1.6412c0-.9139-.5885-1.4354-1.602-1.4354-.3316-.0012-.66.0659-.9657.1974-.3057.1315-.5825.3248-.8138.5682-.7578.8054-1.1799 1.8813-1.177 3 0 1.2583.7567 1.9808 1.8169 1.9808.3914.0246.7836-.0341 1.1517-.1725.3682-.1383.7044-.3533.9874-.6313l-.3456-.622c-.415.4034-.9693.6219-1.5413.6076-.1407.0077-.2814-.016-.4124-.0693s-.2491-.1351-.3463-.2397c-.0972-.1045-.1711-.2294-.2167-.3661-.0456-.1366-.0618-.2817-.0474-.4253.0044-.211.0294-.421.0747-.6268.1728 0 .4157.0335.6585.0335 1.1303 0 1.8309-.2201 2.2746-.6555.1522-.1434.2742-.317.3585-.5104.0843-.1933.1292-.4023.1319-.6141l.014-.0191Zm-.9901.0287c0 .1149-.0223.2286-.0656.3346-.0433.106-.1067.202-.1866.2826-.2663.2728-.6913.3876-1.5133.3876h-.5091c.2662-1.0813.8827-1.689 1.5226-1.689.5371 0 .738.3349.738.7034l.014-.0192Zm8.0474-1.2631-.7426 3.5885c-.222.268-.4675.5146-.7333.7368-.2589.237-.5877.3785-.9341.4019-.0486.0069-.0981.0019-.1444-.0148-.0464-.0166-.0881-.0444-.1219-.0809-.0747-.0903-.1116-.2072-.1027-.3253.0113-.2044.0458-.4067.1027-.6029l.8034-3.8947-.9995.1914-.738 3.598c-.2052.2738-.4402.5226-.7006.7417-.2399.2266-.5478.3632-.8734.3875-.1224.0085-.2432-.0327-.3362-.1148-.0728-.095-.1078-.2146-.0981-.3349.0025-.1614.0229-.3219.0607-.4785l.8174-3.9761-1.0136.1914-.78 3.7943c-.0492.2068-.0758.4187-.0794.6316-.0155.3003.0795.5957.2663.8277.2136.196.4934.299.78.2871.3756-.0034.7429-.1145 1.0602-.3206.3095-.2008.5829-.455.808-.7512v.067c-.006.1407.0153.2812.0626.4134.0473.1322.1197.2535.213.3569.0835.0803.182.1424.2895.1827.1076.0403.222.0579.3363.0518.3853-.0065.7616-.1206 1.0883-.3302.3218-.1988.6064-.4548.8407-.7559-.0353.1309-.0542.266-.0561.4019.0018.2511.0444.5001.1261.7368l.9341-.4163c-.0502-.169-.0754-.3448-.0747-.5215.0068-.279.0428-.5565.1074-.8277l.8127-4.0192-.9808.1771Zm8.8737.8803c.01-.1405-.009-.2816-.056-.414-.047-.1324-.12-.2532-.216-.3544-.096-.1011-.211-.1805-.339-.2328-.128-.0522-.265-.0763-.402-.0705-.377.0369-.742.1543-1.072.3447-.33.1904-.617.4495-.843.7605 0-.6842-.308-1.0717-.934-1.0717-.3733.0267-.7362.1365-1.0637.3216-.3275.1851-.6117.4411-.8327.7501.0367-.1567.0555-.3173.056-.4784.0051-.2274-.0395-.453-.1307-.6603l-.9108.4163c.0494.1691.073.345.07.5215-.0072.2771-.0416.5528-.1027.8229l-.8034 3.8756h.9622l.7333-3.5406c.5745-.7512 1.2143-1.1675 1.6067-1.1675.3082 0 .4018.1675.4018.4306-.016.2079-.047.4143-.0936.6173l-.766 3.689h.9346l.747-3.5886c.514-.6698 1.125-1.1483 1.56-1.1483.341 0 .467.1436.467.4498-.003.1757-.025.3506-.066.5215l-.775 3.7656h.934l.799-3.8613c.064-.2175.111-.4399.14-.6651l-.005-.0335Zm5.465.8756c0-1.1866-.621-1.9473-1.84-1.9473-1.728 0-2.999 1.6459-2.999 3.7799 0 1.2296.663 1.9521 1.831 1.9521 1.845.0192 3.013-1.7081 3.013-3.7655l-.005-.0192Zm-1.037-.0574c0 1.5024-.607 3.0479-1.756 3.0479-.607 0-.934-.3158-.934-1.067 0-1.5072.64-3.0479 1.779-3.0479.472 0 .911.2823.911 1.067Zm6.539-.0861c0-1.067-.467-1.7655-1.401-1.7655-.366.0224-.723.1265-1.046.3051-.323.1785-.603.4271-.822.7283.031-.1397.046-.2825.046-.4258-.003-.2275-.05-.4521-.14-.6603l-.934.4163c.05.1723.076.3512.075.5311-.007.2719-.038.5426-.094.8086l-1.289 6.177 1.014-.2201.467-2.2153c.376.194.794.2863 1.214.268.37-.0103.734-.1009 1.067-.2658.334-.165.629-.4006.867-.6912.624-.8667.966-1.9132.976-2.9904Zm-1.06.0526c-.02.8519-.249 1.6848-.668 2.4211-.14.198-.323.3602-.535.4739-.211.1137-.445.1759-.684.1816-.355.0164-.706-.0897-.995-.3014l.542-2.6029c.171-.2963.404-.5497.683-.7417.279-.1921.596-.3179.928-.3684.481.0048.715.2632.715.9378h.014Zm2.508-.6268c.139-.0811.284-.1499.434-.2057.293-.1365.612-.2051.934-.201.237-.0198.473.0538.659.2058.056.0549.1.1211.13.1943.03.0733.044.1522.043.2315.004.088-.009.176-.04.2583-.031.0824-.077.1574-.138.2202-.248.225-.544.3887-.864.4785l-.467.1866c-.509.1475-.985.3962-1.401.732-.144.1376-.257.3045-.334.4899-.076.1855-.114.3854-.11.5867-.006.1658.019.3312.076.4866.057.1553.144.2974.256.4177.381.3276.872.4891 1.368.4497.343.0033.686-.0385 1.018-.1244.315-.0735.618-.1911.902-.3492l.121-.067-.299-.7656c-.074.0431-.261.1483-.387.2058-.359.1782-.755.2668-1.154.2583-.266.0216-.532-.051-.752-.2057-.059-.0507-.106-.1145-.138-.1867-.031-.0721-.046-.1506-.044-.2296-.003-.1029.017-.2052.057-.2995.041-.0943.101-.1783.177-.2459.391-.2975.835-.5136 1.307-.6364.54-.1656 1.043-.437 1.481-.799.12-.1152.214-.2557.276-.4118.063-.1561.091-.3241.084-.4925.007-.1763-.021-.3523-.083-.5169-.062-.1647-.156-.3145-.277-.4401-.179-.1586-.386-.2795-.611-.3559-.224-.0763-.461-.1066-.697-.0891-.341-.0012-.681.0488-1.009.1484-.266.0826-.522.1932-.766.3301l.248.7416Zm8.748-3.9521c-.19.1128-.389.2103-.593.2919-.383.1674-.365.1339-.715.2727l-.715.2823c-.558.2025-1.071.5182-1.508.9282-.646.7356-1.089 1.6339-1.285 2.6029-.182.6826-.29 1.3838-.322 2.0909-.016.277.025.5544.119.8146s.24.4976.428.6973c.176.1657.383.2934.609.3755.225.0822.464.1172.703.103.692-.0055 1.357-.2731 1.868-.7512.742-.8188 1.141-1.9026 1.112-3.0191.015-.2493-.018-.4992-.098-.735-.08-.2359-.206-.4529-.369-.6382-.163-.161-.357-.2864-.569-.3686-.212-.0823-.438-.1196-.664-.1099-.339-.0094-.674.0679-.976.2249-.344.193-.647.4531-.892.7655.032-.0861.172-.4784.247-.6555.105-.2303.247-.4407.42-.622.654-.5493 1.413-.952 2.228-1.1818.44-.1443.866-.3268 1.275-.5454l-.303-.823Zm-2.289 3.6842c.122-.008.243.0109.357.0555.114.0446.217.1138.302.2029.181.2249.27.5131.247.8038-.003.6622-.148 1.3155-.425 1.9139-.11.2857-.3.5322-.546.709-.246.1767-.536.2762-.836.2862-.122.0083-.243-.0104-.357-.055-.114-.0447-.217-.114-.302-.2034-.195-.2333-.294-.5354-.275-.8421.021-.8674.291-1.7093.775-2.421.135-.1483.3-.2654.483-.3438.182-.0784.379-.1161.577-.1108v.0048Zm7.202-.512c-.451-.289-.976-.437-1.508-.4258-.406-.0117-.809.0617-1.186.2155-.376.1539-.718.385-1.005.6792-.735.8401-1.139 1.9295-1.135 3.0575 0 1.1818.584 1.7272 1.317 1.7272.347.0088.691-.0748.997-.2425.306-.1677.565-.4138.75-.7144-.022.1956.002.3938.07.5779.068.184.179.3485.322.4795l.794-.622c-.093-.0919-.166-.2038-.213-.3279-.047-.124-.067-.2571-.057-.3898.007-.2142.033-.4272.079-.6364l.467-2.1961c.084-.3685.224-.9091.308-1.1867v.0048Zm-1.097.5072-.57 2.7464c-.322.6747-.934 1.1962-1.448 1.1962-.467 0-.682-.2536-.682-.9043-.021-.8801.235-1.7437.729-2.4641.163-.2225.374-.4025.618-.5256.243-.123.511-.1856.783-.1826.197.0032.391.0488.57.134Zm2.938 2.1292h2.041l-.519 2.5359h.934l1.159-5.6029-1 .1914-.416 2.1196h-2.036l.467-2.311-.995.1914-1.121 5.4115h.962l.524-2.5359Zm5.048-2.8708-1.125 5.4115h.967c.314-.844.725-1.647 1.223-2.3924.187-.0024.371.0472.533.1436.056.0579.1.1277.127.2046.027.0768.038.1588.032.2403v.7895c-.027.2829.046.5664.205.7991.185.1655.423.2543.668.2488l.439.0526.262-.6746-.201-.0479c-.11-.018-.212-.0678-.295-.1435-.043-.0488-.077-.1062-.097-.1688-.021-.0626-.029-.129-.024-.1949l-.065-.8469c.016-.1364.002-.2748-.04-.4052-.042-.1305-.112-.2498-.204-.3495-.092-.0996-.205-.1771-.33-.227-.125-.0498-.259-.0708-.393-.0613l-.215-.0287c.157-.2589.347-.4954.565-.7034.485-.5138 1.094-.8869 1.766-1.0813l.177-.0383-.233-.7177c-.364.0721-.716.1961-1.047.3684-.378.1857-.724.4348-1.023.7369-.323.3229-.605.6862-.84 1.0813-.276.4785-.509.9569-.551 1.0239l.271-.9904.467-2.2345-1.019.2058Z"/>
</svg>