<svg xmlns="http://www.w3.org/2000/svg" viewBox="0 0 120 36.6">
	<path fill="#ea5616" d="M24.4 0L12.2 12.2h12.2v24.4l12.2-12.2V0H24.4z"/>
	<path fill="#2c2d84" d="M12.2 36.6l12.2-12.2H12.2V0L0 12.2v24.5h12.2zm36.7-6.1h6.4V11.6H65v18.9h6.4V6.1H48.9v24.4zm62.2-15.2h-5.5v-3.6h12.2V6.1H99.3v24.4h12.2c4.9 0 8.6-2.5 8.6-7.6s-3.8-7.6-9-7.6zm-.6 10h-4.9v-4.9h4.9c1.5 0 3 .6 3 2.4 0 1.9-1.5 2.5-3 2.5zm-23.4 0c-4.3 0-6.7-3.1-6.7-7 0-3.1 1.8-7 6.6-7 1.1 0 2.1.3 3.1.7 1 .5 1.8 1.1 2.5 2l3.9-3.9c-1.2-1.4-2.7-2.6-4.4-3.4-1.7-.8-3.6-1.2-5.4-1.2-1.7 0-3.4.3-4.9.9-1.6.6-3 1.6-4.2 2.8-1.2 1.2-2.1 2.6-2.7 4.2-.6 1.6-.9 3.3-.9 4.9 0 2.7.8 5.3 2.4 7.5 1.6 2.2 3.8 3.8 6.3 4.7 2.6.8 5.3.9 7.9 0s4.8-2.4 6.4-4.6L93.1 22c-.6 1-1.5 1.9-2.6 2.5-1 .5-2.2.9-3.4.8"/>
</svg>