<svg xmlns="http://www.w3.org/2000/svg" viewBox="0 0 119 50">
	<path fill="#4D4F53" d="M24.5997 5.86848 14.4734 0v5.97889C6.12872 8.2829 0 15.9231 0 24.9999c0 7.8288 4.55744 14.5923 11.1639 17.7835l1.9722-5.4203c-4.41092-2.3605-7.41285-7.01-7.41285-12.3632 0-5.8771 3.61901-10.9057 8.74945-12.9876l.0007 21.6759L24.5997 5.86848Z"/>
	<path fill="#55ED00" d="m14.8735 44.1311 10.1269 5.8684v-5.9782c8.3428-2.3047 14.4734-9.9449 14.4734-19.0216 0-7.8288-4.5581-14.5924-11.1652-17.7829l-1.9721 5.4196c4.4109 2.3606 7.4128 7.01 7.4128 12.3633 0 5.8763-3.619 10.9063-8.7495 12.9875l-.0007-21.6766-10.1256 27.8205Z"/>
	<path fill="#4D4F53" d="M76.6377 20.7676c1.032 0 2.2541-.3399 3.1538-.7813l1.5056 4.1192c-1.6133.8769-3.8122 1.2597-5.7732 1.2597-5.1135 0-9.2568-4.1445-9.2568-9.2578 0-5.1113 4.1433-9.25584 9.2568-9.25584 1.961 0 3.6795.25586 5.4434 1.20117l-1.5044 4.12107c-.864-.4707-1.7908-.7246-2.8252-.7246-2.5732 0-4.6604 2.086-4.6604 4.6582 0 2.5742 2.0872 4.6602 4.6604 4.6602Zm-11.4116 23.25c-.1551-.4688-.7288-2.3457-.8845-2.8242h-4.3624l-.8845 2.8242h-1.905c.3357-1.0137 1.1335-3.3887 1.9258-5.7461l.7075-2.1055 1.2092-3.6133h2.3914l3.7583 11.4649h-1.9558Zm-3.0064-10.0098h-.0683l-1.7371 5.8164h3.5264l-1.721-5.8164Zm-7.6565-1.4531h-7.2026v11.4648h4.7461c2.4453 0 3.5762-1.6465 3.5762-3.5273 0-1.0137-.3267-1.8203-.9778-2.4219-.6519-.6035-1.6074-.9043-2.866-.9043h-2.5898v-3.291h5.3139v-1.3203Zm-5.3139 10.1426v-4.209l2.1804-.002c.9753 0 2.3147.1778 2.3147 2.0391 0 1.8984-1.3106 2.1719-2.1306 2.1719h-2.3645Zm32.3632-10.127v11.4473h1.8736V38.668h1.6567c1.6863 0 2.0523.6738 2.354 1.7558l.9844 3.5938h1.8716l-1.0344-3.9942c-.2273-.7929-.5867-1.8281-1.9563-2.1074 1.0356-.3867 1.4978-1.4883 1.6377-2.1387l.7688-3.1914h-1.8045l-.7524 2.9258c-.1617.5547-.4158 1.1719-1.0218 1.4903-.2541.1328-.5703.2128-.9675.2128h-1.737v-4.6445h-1.8729Zm16.6246-13.666c-.5574-1.8242-2.0445-3.0625-3.9661-3.3438 1.833-.375 2.8601-1.8378 3.3694-3.2109.4712-1.2637 1.8557-5.10741 1.8557-5.10741h-5.6963l-1.4194 4.03901c-.5789 1.6211-1.1067 2.3086-3.1729 2.3086v-6.373h-5.7422V25h5.7422v-7.0527c2.4053 0 2.9868.1972 3.6375 1.8984l.7973 2.2598L94.6562 25h5.6988l-2.1179-6.0957Zm10.0759-5.3242h3.105c4.561 0 6.872 1.6875 6.871 5.4883 0 3.8515-2.257 5.9316-6.367 5.9316h-9.337V7.2168h14.613v4.2773h-8.885v2.086Zm0 7.1816h2.454c1.031 0 1.803-.4375 1.803-1.7051 0-1.2695-.815-1.5214-1.934-1.5214h-2.323v3.2265ZM58.2571 25V11.8711h-5.1695V25h-5.7231V7.2168h16.6428V25h-5.7502Zm18.1455 12.2812v-4.7109h1.9228v11.4473h-1.9228v-5.2969h-4.9299v5.2969H69.553V32.5703h1.9197v4.7109h4.9299Z"/>
</svg>