<svg xmlns="http://www.w3.org/2000/svg" viewBox="0 0 150 21.6">
	<path fill="#0039a6" d="M150 21.2l-3.8-4.7h-9.7c-3.4-.2-7-2.6-6.5-7.6s6.9-5.3 7-5.2L134.3.1c0-.1-.1-.1-.2 0h-.9c-1.1 0-9 .8-8.4 10.2s9.7 10.8 9.7 10.8l15.5.1zM57.6 6.3L51.7.4l-3.2 3.2 17.9 17.8h6.3l-9.8-9.8V9.8h7.7v9.4l2.1 2h3.2V.2h-5.3v4.4H63V.2h-5.4v6.1zM16 .4H0v21.2h5.4V16h11.8s5.8-.5 6-7.2C23.3.8 16.6.4 16 .4zm-1.3 10.2H5.4V5.9h9.5c.3 0 .7 0 1 .1s.6.2.9.4c.3.2.5.5.6.8s.2.6.2.9c.3 2.7-2.9 2.5-2.9 2.5zM118.4.2l-16.5 16.1L94 8.7l8.9-8.6h-7l-12.4 12V.1H78v21.1h3.2l8.8-8.6 9 8.6h4.7l5.4-5.2h8.4v5.2h5.4V.2h-4.5zm-.9 11.3h-3.8l3.8-3.6v3.6zM25.2 9.3h5.2v5.3h-5.2V9.3zm5.3-9l17.3 17.3 3.1-3.2L36.8.3h-6.3zm-7.4 0l21 21 3.1-3.2L29.4.3h-6.3zm42.1 21.1L47.9 4.1l-3.1 3.2 14.1 14.1h6.3z"/>
	<path fill="#d52b1e" d="M71.4 20.9h-5L60 14.5h5c3.5 3.4 6.3 6.2 6.4 6.4zm-25.8-6.3l2.2 2.2 2.2-2.2h-4.4zm18.3 6.3c-.2-.3-3.1-3.1-6.4-6.4h-4.9l6.4 6.4h4.9zM43 14.6h-5.1l6.2 6.2 2.5-2.5-3.6-3.7z"/>
	<path fill="#fff" d="M24 .8h5.2l6.7 6.5h-5.2C27 3.7 24 .8 24 .8zm26.1 6.3h-4.5l2.3-2.2 2.2 2.2zM31.6.8h5l6.6 6.4h-5.1C34.7 3.8 31.6.8 31.6.8zm26.3 6.4L51.7 1l-2.6 2.6 3.6 3.7h5.2v-.1z"/>
</svg>