<svg xmlns="http://www.w3.org/2000/svg" viewBox="0 0 102.6 36.4">
	<path fill="#f68c28" d="M102.3 31.2H0v5.3h102.3v-5.3z"/>
	<path fill="#a9acae" d="M93.2 6.7V14h.6l5.4-7.2h3.2l-6.3 7.6c2.3.3 3.7 2.1 4.8 5.1.4 1.1.9 2.7 1.6 4.1h-2.8c-.4-.7-.9-2-1.3-3.4-1-2.7-2.3-3.9-4.8-3.9h-.5v7.3h-2.6V6.7h2.7zM68.1 23.5l-.2-2.1h-.1c-.8 1.3-2.3 2.5-4.4 2.5-2.9 0-4.4-2.4-4.4-4.8 0-4 3.1-6.3 8.6-6.2v-.4c0-1.4-.3-3.9-3.3-3.9-1.3 0-2.7.5-3.7 1.2l-.6-2c1.2-.9 2.9-1.5 4.7-1.5 4.4 0 5.5 3.5 5.5 6.8v6.3c0 1.4.1 2.9.2 4 .1.1-2.3.1-2.3.1zm-.4-8.6c-2.8-.1-6.1.5-6.1 3.8 0 2 1.1 2.9 2.5 2.9 1.9 0 3.1-1.4 3.5-2.8.1-.3.2-.7.2-1l-.1-2.9zM55.2.2v2.5h-8.6V9c.6-.1 1.8-.2 2.5-.2 1.9 0 3.8.5 5.2 1.6 1.5 1.1 2.5 3 2.5 5.7 0 2.2-.6 3.8-1.7 5-1.6 1.9-4.3 2.6-7.1 2.6-1.8 0-3.2-.1-4-.3V.2h11.2zm-8.6 20.9c.6.1 1.3.2 2.2.2 1.6 0 3.2-.6 4.2-1.8.7-.8 1.1-2 1.1-3.4 0-1.8-.7-3-1.6-3.8-1-.8-2.4-1.2-3.8-1.2-.6 0-1.4.1-2.1.1v9.9zM77 6.7v6.7h6.8V6.7h2.6v16.7h-2.6v-7.6H77v7.6h-2.6V6.7H77z"/>
	<path fill="#555d63" d="M0 .5C1.4.2 3.4 0 6.2 0 9 0 11 .6 12.3 1.9 13.5 3 14.4 5 14.4 7.2c0 2.3-.7 4.2-1.8 5.5-1.6 1.7-3.8 2.4-6.5 2.4-.6 0-1.1 0-1.6-.1v8.3H0V.5zm4.5 10.6c.4.1.9.1 1.5.1 2.4 0 3.9-1.4 3.9-3.8C9.9 5.3 8.6 4 6.4 4c-.9 0-1.6.1-1.9.2v6.9zM21.8.2v8.9h7.4V.2h4.5v23.3h-4.5v-9.7h-7.4v9.7h-4.5V.2h4.5z"/>
</svg>