<svg xmlns="http://www.w3.org/2000/svg" viewBox="0 0 80 49.9">
	<path fill="#00b2c3" d="M73.4 49.9H0l6.7-21.7H80l-6.6 21.7z"/>
	<path fill="#2c384a" d="M31.3 20V6.4h6v4.5H40V6.4h6V20h-6v-4.5h-2.8V20h-5.9zm29.6-7.6l2.3-6h-5.8l-1.8 4.5h-1.1V6.4h-6V20h6v-4.5h1.4l1.8 4.5h6l-2.8-7.6zm13.3-4.5c-.7 0-1.5.1-2.1.4-.7.3-1.3.7-1.8 1.2 0-.6.3-1.2.6-1.7.4-.5.8-.9 1.4-1.2 2-.8 4.3-.3 6-1.7V0c-1.3.5-2.6.8-4 .9-2 .2-4 .9-5.7 1.9-2.4 1.5-4.2 4-4.2 9.1 0 6.6 3.8 8.5 7.8 8.5s7.4-2 7.4-6.3c.1-4.2-2.4-6.2-5.4-6.2zm-2.1 7.9c-1.4 0-1.8-1.1-1.8-2s.3-2 1.8-2 1.8 1.1 1.8 2-.4 2-1.8 2zm-42.9-2.6c0-3.3-1.5-6.5-4.9-7.1L24 6c-.2 0-.4-.1-.6-.1h-.8c-1 0-2 .4-2.8.9-.5.3-.9.7-1.2 1.1L18 6.4h-4.7v19h6v-6.2c.5.4 1 .7 1.6.9.7.3 1.4.4 2.1.4 4.4-.1 6.2-3.6 6.2-7.3zM21 15.6c-.4 0-.7-.1-1-.3s-.6-.4-.7-.7v-3c.2-.3.4-.6.8-.7s.7-.3 1-.3c1.4 0 2.1 1.3 2.1 2.5v.4c0 .5-.2 1-.6 1.4-.5.4-1 .6-1.6.7"/>
</svg>