<svg xmlns="http://www.w3.org/2000/svg" viewBox="0 0 170 30">
	<path fill="#5052FE" d="M117.41 14.5637c.011 3.2865-2.534 5.767-5.822 5.6906-3.091.0187-5.759-2.3313-5.711-5.5062-.047-3.274 2.52-5.74432 5.756-5.74795 3.155-.02186 5.831 2.31225 5.777 5.56355Zm-3.003.0492c.006-1.7405-.352-4.9487-2.758-4.85072-2.42-.01737-2.753 3.16542-2.753 4.93672-.009 1.8008.381 4.8525 2.77 4.8525 2.43 0 2.758-3.1519 2.741-4.9385Zm-9.051 5.346h-6.4976v-.5736c.292-.0002 1.4746.0325 1.4746-.4506-.035-.2874-.217-.5641-.3685-.803-.4955-.8499-1.0681-1.6568-1.6141-2.4745-1.0488 1.2291-1.7166 2.0238-1.9993 2.4212-.1939.2327-.3339.5056-.4097.7989-.0242.4759.872.4892 1.1717.508v.5736h-4.1337v-.5736c.6379-.03 1.1767-.2721 1.6388-.721.6663-.6132 1.2995-1.3691 1.8844-2.0689.4385-.5244.9014-1.0365 1.3889-1.5978-.4589-.6965-.9217-1.3724-1.3806-2.0279-.5553-.7941-1.0565-1.7006-1.7698-2.3681-.4732-.473-1.1105-.66752-1.7617-.7128v-.58587h6.5099v.58587c-.3778.00607-.754.05134-1.1225.1352-.3119.0951-.4365.2845-.295.5818.2357.4858.5508.9329.844 1.3847l.8602 1.3151c.942-1.1267 1.536-1.864 1.782-2.2041.175-.2014.298-.4416.361-.7006.012-.49844-.875-.49707-1.188-.5121v-.58587h4.15v.58587c-.29.02479-.574.1007-.84.2172-.288.1252-.551.2999-.779.5161-.619.6078-1.179 1.271-1.753 1.9215l-1.229 1.4257c.606.9095 1.122 1.6756 1.553 2.2902.573.8085 1.092 1.7329 1.811 2.4253.461.4719 1.116.6888 1.765.7087v.5654h-.053ZM120.71 9.8888c.529.09282 1.423.1012 1.573.7415.228.9306.078 2.0028-.077 2.9293-.278 1.6244-.777 3.2696-1.627 4.6909-.389-.4651-.913-.9672-1.557-.975-.817-.0125-1.524.6459-1.47 1.4748.012.9312.676 1.4835 1.606 1.4544 1.295-.0774 2.235-1.3107 2.736-2.3966.478-1.0009.833-2.056 1.057-3.1423.323-1.5245.504-3.0757.541-4.6336h2.544v8.4518c.038.8859-.929.8509-1.561.9013v.5736h5.785v-.5736c-.638-.0601-1.585-.1614-1.561-.9955v-7.5464c-.01-.85042.901-.91782 1.561-.9546v-.58587h-9.55v.58587Zm25.23 10.0701h-5.768v-.5736c.654 0 1.701-.1304 1.663-.9914v-7.9725l-3.675 9.3736h-.934c-.203-.7344-.522-1.4346-.746-2.1631l-2.696-7.3211v6.4731c-.013.4756.028.9513.123 1.4174.178.8249 1.028 1.061 1.762 1.1718v.5858h-4.621v-.5736c.692 0 1.615-.322 1.716-1.0815.086-.4703.123-.948.111-1.4257v-5.2768c.041-1.1333-.692-1.64063-1.737-1.71654v-.58183h4.916l2.626 7.02197 2.217-5.6986c.143-.4264.274-.87535.327-1.32337h4.72v.58587c-.666.04734-1.518.1267-1.507.9669v7.5341c-.02.8204.869.9199 1.503.9833v.5858Zm6.691.2962v.0122c2.069.0414 3.796-1.1009 4.683-2.9415l-.648-.4097c-.677 1.2555-1.873 2.3216-3.367 2.2983-2.525.041-3.293-2.6178-3.249-4.7072 0-1.8147.473-4.80935 2.88-4.74004 1.848-.03952 2.859 1.88534 3.269 3.44124h.664l-.07-3.89189h-.651l-.467.40963c-.877-.45138-1.853-.71898-2.843-.70463-2.305-.02376-4.482 1.24589-5.363 3.41679-1.489 3.8491 1.041 7.8481 5.162 7.8168ZM170 19.9593h-4.097c-.34-1.0008-.651-2.0164-1.082-2.9825-.218-.5146-.471-1.0445-.917-1.4011-.459-.3727-1.056-.4813-1.635-.4711v3.2774c-.02.8273.9.9268 1.532.9833v.594h-5.755v-.5735c.645 0 1.581-.0723 1.561-.9136v-7.5505c.035-.8022-.948-.95891-1.561-1.03242v-.58182h5.76v.58182c-.648 0-1.547.14542-1.532.95452v3.5438c.595 0 1.259.0318 1.707-.4343.637-.5981 1.005-1.3765 1.283-2.1918.275-.7453.512-1.481 1.122-2.02795.384-.37365.936-.57123 1.467-.56941 1.066-.05759 1.917.87366 1.542 1.90876-.287.7802-1.234 1.0656-1.931.623-.317-.2256-.593-.5025-.82-.8193-.388.4318-.513 1.032-.72 1.5608-.25.6778-.613 1.3392-1.209 1.7699v.1352c1.411.338 2.368 1.4021 2.971 2.6722.226.4765.443.9602.676 1.4329.098.2485.254.4703.454.6473.319.2483.794.252 1.184.2991v.5653ZM50.1261 12.0032c0-2.25605-2.3442-2.70288-4.1647-2.70288H40v.59387c.1167.01531.2919.04826.5253.09901.5607.1073 1.0583.298 1.0583.9441v7.6212c0 .8963-.9083.8819-1.5836.9517v.5939h5.8549v-.5939c-.6766-.0654-1.5684-.1698-1.5684-1.0202v-3.0379h.8831c.7309 0 1.3882-.0634 1.972-.1903 1.6615-.3582 2.9845-1.4933 2.9845-3.2586Zm-3.4642-1.4161c.3299.3908.4949.9923.4949 1.8044 0 .7969-.2183 1.3882-.6548 1.774-.6109.539-1.4426.5709-2.2155.5709V9.9932c.7997 0 1.814-.09042 2.3754.5939Zm11.6184 9.517h5.8396v-.5939c-.6691-.046-1.5836-.1527-1.5836-.9974v-7.6516c0-.854.9125-.92481 1.5836-.96701v-.59387h-5.8396v.59387c.6381.07405 1.5532.25031 1.5532 1.04311v3.152h-4.6139v-3.2281c0-.8405.8853-.92367 1.5532-.96701v-.59387h-5.8396v.59387c.6483.0621 1.5836.23931 1.5836 1.04311v7.6441c0 .8739-.909.9017-1.5836.9288v.5939h5.8396v-.5939c-.6565-.0451-1.5532-.1696-1.5532-.9974v-3.6393h4.6139v3.7231c0 .8845-.8881.8606-1.5532.9136v.5939Zm14.8694 0h4.1417v-.5939c-.4189-.0379-.8716-.0565-1.2258-.3045-.1471-.1066-.2994-.3249-.4568-.6548-.2568-.5395-.4911-1.089-.7461-1.6293-.5778-1.2367-1.57-2.1532-2.9008-2.5049v-.1371c.6188-.438.9545-1.1079 1.2258-1.7967.2045-.5164.3185-1.1732.7157-1.5837.3198.4061.5939.6802.8222.8222.5199.3165 1.2215.2847 1.6674-.1522.5365-.5363.4949-1.5298-.0685-2.0252-.7275-.6397-2.0475-.47223-2.7104.19031-.8951.86989-1.0714 2.10539-1.6065 3.19009-.42.8402-1.0796 1.5304-2.0556 1.5304h-.4949v-3.5936c0-.8405.8852-.92367 1.5532-.96701v-.59387h-5.8397v.59387c.6484.0621 1.5837.23931 1.5837 1.04311v7.6441c0 .8739-.9091.9017-1.5837.9288v.5939h5.8397v-.5939c-.6567-.0451-1.5532-.1696-1.5532-.9974v-3.3424c.3705 0 .6903.0407.9593.1219.8691.2415 1.3024 1.0127 1.6369 1.7892.4342.9799.7517 2.0087 1.0964 3.0226Zm10.362-11.10061c-3.31 0-5.8548 2.56341-5.8548 5.81671 0 3.2342 2.6337 5.5808 5.8016 5.5808 3.3413 0 5.9005-2.3793 5.9005-5.7711 0-3.2811-2.6304-5.62641-5.8473-5.62641Zm0 10.65141c-2.426 0-2.8093-3.076-2.8093-4.9109 0-1.8361.3505-4.99447 2.8093-4.99447 2.4426 0 2.8019 3.09477 2.8019 4.93367 0 1.839-.345 4.9717-2.8019 4.9717ZM21.4022 1.43928c2.9803 1.40839 5.4139 3.75849 6.925 6.6874l.0165.0164c1.1756 2.28552 1.7424 4.83532 1.6457 7.40352-.5102-.0082-1.0286-.0329-1.5428-.0699-1.5882-1.0324-11.5778-7.25957-11.5778-7.25957-.1729-.11382-.3733-.1792-.5801-.18916-.2292.01552-.4522.08002-.6542.18916-3.9868 1.82617-7.96127 3.91977-10.36402 5.19067-.08426.0067-.16851.013-.25261.0192-.17468.013-.34872.0259-.5209.0425.65004-.5963 9.54113-8.41119 10.43803-8.46878.79.06581 8.8253 6.78658 9.0187 6.95938 0 0-6.5829-6.99228-8.2945-7.85192-.2273-.13248-.4747-.22695-.7324-.27968-.2565.05027-.5027.14344-.7283.27557-2.0077.86375-12.20308 9.69043-12.20308 9.69043S.662407 14.0536 0 14.2058c.175446-3.2908 1.42982-6.43242 3.56934-8.93952C5.70886 2.75915 8.61451 1.02592 11.8376.334232c3.2231-.691687 6.5843-.3033492 9.5646 1.105048ZM7.52068 13.0018h-.00009c-.19771.1003-.37426.1898-.52525.2662 5.39796-.4401 9.52466.1933 14.60176 1.2051 1.5799.3126 3.2915.6293 5.0401.8226-2.6538-1.9373-9.6728-6.42048-10.364-6.42048l-.0042.01236c-.6356 0-6.30627 2.87572-8.74832 4.11422Zm21.96102 3.5818c-2.711.1375-5.4287.0357-8.1217-.3044-5.8012-.658-10.9154-1.0694-15.36709-.0576-1.98113.4238-3.87142 1.1953-5.583168 2.2787.25942 1.055.630468 2.0795 1.106768 3.056 1.31673-.8161 2.73817-1.4498 4.22542-1.8838 3.16805-.9377 6.55827-1.0241 10.04717-.7362.6711.0551 1.3403.1145 2.0093.1739h.0002c3.2235.2862 6.4445.5721 9.8687.3814.5677-.0275 1.1273-.0727 1.6786-.1357.2801-.9177.4729-1.8596.576-2.8134l-.4115.0329-.0287.0082Zm-6.2532 7.9131c1.277-.0293 2.5461-.2088 3.7811-.5347.7547-1.0144 1.3781-2.1199 1.8556-3.2905-.6007.1111-1.2343.2056-1.8433.2838-2.1969.2738-4.4762.0643-6.7551-.1452-2.4456-.2247-4.8909-.4495-7.2336-.0769-2.2899.3123-4.48046 1.1346-6.41013 2.4062-.90056.62-1.70823 1.3651-2.39865 2.2128.87383.8313 1.79859 1.6075 2.76894 2.3239 1.88027-2.0196 4.65744-3.4139 9.05154-3.6113 1.3681-.0621 2.5712.0707 3.7655.2026 1.1008.1215 2.194.2422 3.4017.2087l.0164.0206Zm-2.5411 1.206c.8764.0084 1.7784.017 2.7973-.0869.8653-.0886 1.7214-.251 2.5591-.4854-1.8146 1.98-4.1275 3.437-6.6972 4.219-2.5698.7821-5.3024.8605-7.9128.2273.2467-.4448.545-.8589.8887-1.2339.9576-.9629 2.1417-1.67 3.4437-2.0566 1.8982-.6123 3.3697-.5983 4.9212-.5835Z"/>
</svg>