<svg xmlns="http://www.w3.org/2000/svg" viewBox="0 0 200 27.6">
	<path fill="#e41a19" d="M31 0H0v27.6h31V0z"/>
	<path fill="#005177" d="M43 7.2h-5.9v12.3h2.4v-4.7h4.4c2.8 0 4-1.2 4-3.9-.1-3.4-2.6-3.7-4.9-3.7zm2.5 3.8c0 1.6-.6 1.9-2.1 1.9h-3.9V9.1h3.9c1.3 0 2.1.3 2.1 1.9zm47.7-3.8H96l-5 6 5.6 6.3h-2.9L89 14.2h-2.1v5.3h-2.4V7.2h2.4v5.2H89l4.2-5.2zm6 4.3c.9-.5 2-.7 3.1-.7 3.4 0 4.7 1.2 4.7 4.3 0 3.8-1.8 4.6-4.9 4.6-.9 0-1.8-.2-2.7-.5v4.4h-2.3V11h2c.1 0 .1.5.1.5zm2.9 1.1c-.8-.1-1.6.1-2.3.4-.1 0-.2.1-.2.2-.1.1-.1.2-.1.3v3.4c0 .2 0 .3.1.5.1.1.2.3.3.3.5.3 1.1.4 1.8.4 2.2 0 3.2 0 3.2-2.6s-.5-2.9-2.8-2.9zm40.5.2h3.3v6.7h2.2v-6.7h3.4V11h-9l.1 1.8zM118 14.7c0 .3 0 .6-.1.9v.2h-7.3c0 2 .5 2.2 2.7 2.2s2.5-.1 2.5-1.3v-.2h2.2v.2c.1.3 0 .7 0 1-.1.3-.2.7-.5.9-1 .9-2.8.9-4.2.9-3.9 0-4.9-.9-4.9-4.3s1.2-4.5 4.9-4.5c3 .1 4.7.8 4.7 4zm-2.2-.5c0-1.4-.6-1.7-2.6-1.7-1.2 0-1.9.2-2.3.5-.3.3-.4.8-.4 1.2h5.3zm18.2 3.3V11h-2.2v8.5h2.9l4.6-6.5v6.5h2.1V11h-3.1l-4.3 6.5zM121.2 11h8v6.8h1.2V22h-2v-2.4h-7.8V22h-1.9v-4.2h.8c.9 0 1.4-.8 1.5-2.2l.2-4.6zm5.8 6.7v-5h-3.8l-.2 3.1c0 .7-.2 1.4-.7 1.9h4.7zm58.8-3.4h-4.5V11h-2.2v8.5h2.2v-3.6h4.5v3.6h2.2V11h-2.2v3.3zm-27.5-2.4h2.7c3.1 0 5.8 0 5.8 3.8s-3.5 3.8-5.8 3.8h-5V7.2h9.8v1.9h-7.5v2.8zm-.1 5.8h4c1.5 0 2.1-.6 2.1-1.9 0-1.6-.6-1.9-2.1-1.9h-4v3.8zm14.2-6.9c-1 0-4.1 0-4.1 2.1v.8h2.2v-.2c0-.3 0-.5.2-.7.5-.3 1.2-.4 1.8-.3 2 0 2.6.3 2.6 1.3v.3h-3.6c-1.5 0-3.5.3-3.5 2.8s2.5 2.8 4.4 2.8c1 0 2-.2 2.9-.7l.1.6h2v-4.9c-.2-2.9-.4-3.9-5-3.9zm2.6 5.5c0 .8 0 .9-.4 1.2-.7.3-1.5.5-2.3.5-1.6 0-2.1-.2-2.1-1.2s.6-1.1 2.2-1.1h2.7c-.1-.1-.1.6-.1.6zm24.1-5.3l-3.9 4.1 4.8 4.4h-2.9l-3.8-3.6H192v3.6h-2.1V11h2.1v3.4h1.3l3-3.4h2.8zm-140 3.5c-.1-.3-.1-.7-.1-1 0-2.6 2.4-2.6 4.1-2.6h4.6v8.5h-2.2V16h-1.8c-.7.9-2.8 3.3-2.8 3.3l-.1.1h-2.4l.3-.4s.1-.1.2-.3c.4-.5 1.5-1.8 2.3-2.7-.3 0-.6-.1-.9-.2-.3-.1-.5-.3-.7-.6-.3-.2-.4-.4-.5-.7zm6.4-1.9h-2.9c-1.1 0-1.4.3-1.4 1s.2.9 1.1.9h3.2v-1.9zm-12.7-1.8c-3.7 0-5 1.1-5 4.5s1.1 4.3 5 4.3 4.8-.9 4.9-4.1v-.2c0-3.4-1.1-4.5-4.9-4.5zm-.1 7.2c-2.4 0-2.6-.2-2.6-2.7s.2-2.8 2.6-2.8 2.6.2 2.6 2.8-.1 2.7-2.6 2.7zm16.9-.2c.8 0 1.1-.5 1.2-1.8l.2-5h8v8.5h-2.2v-6.7h-3.6l-.2 3.4c-.1 2.1-1.1 3.3-2.7 3.3-.4 0-.8 0-1.2-.1h-.2l.2-1.6h.5z"/>
	<path fill="#fff" d="M21.2 2.8c-.1.2-.3.4-.5.5-.2-.1-.4-.3-.5-.5.1-.2.3-.4.5-.5.2.1.4.3.5.5zm-.1 1.4v1h-.6v-1c-.3-.1-.7-.1-.7.1 0 .3.1.7.3 1-.1 0-.2 0-.2.1-.1 0-.2.1-.3.1-.4-.6-.5-1-.6-1.5 0-.7 1.1-.5 1.5-.4l.3.1.3-.1c.4-.1 1.5-.3 1.5.4-.1.5-.3.9-.5 1.3-.1 0-.1 0-.2-.1-.1 0-.3-.1-.4-.1.2-.3.3-.6.3-1 0-.1-.4 0-.7.1zm.9 1.4c-.4-.1-.8-.2-1.2-.2-.4 0-.8.1-1.2.2l.2.6c.3-.1.7-.1 1-.1.3 0 .7.1 1 .2 0-.1.2-.7.2-.7zm-4.9 18.7H15v-.4l-.4.4v-.6c0-.1 0-.2.1-.3.1-.1.1-.2.2-.2h.5c.3 0 .6-.2.8-.4.2-.2.4-.5.5-.8-.4-.8-.7-1.6-.8-2.5 0-1.2.8-2.2 2.7-2.2.7 0 1.3.2 1.9.5 0 0-2.4 2.5-2.4 3.3.2.4.3.8.4 1.2-.3.7-.8 1.3-1.4 2zm9.9-12l-.1-.2c.2-.1.5-.2.7-.2.2 0 .5 0 .7.1-.6-1.2-2.1-.9-2.2.2l-.6.6c-.1.3-.2.5-.2.8 0 .8.5 2 1 3 .3.7.5 1.2.5 1.5v.3c0 .1-.1.2-.1.2l-.2.2c-.1 0-.2.1-.3 0-.3 0-.7-.2-1.2-.9-.6-.9-1.4-1.6-2.3-2.2l-1.5-1.1 2.1-1.6.2.8c.4-.5.6-1.1.7-1.7.1-.6.1-1.2-.1-1.8 0 0 0-.1-.1-.2V10l.6.2v-.3c-.4-1.9-1.8-3.5-3.8-3.5-.5 0-1.1.1-1.6.2l.1.4c-.2.1-1.5.6-1.5.6 0 .5.2.9.5 1.2.4.1.7 0 1.1-.1.1.1.1.2.1.3v.3c0 .1-.1.2-.2.2s-.2.1-.3.1h-.6c0 .1 0 .2.1.3 0 .1.1.2.2.3h1.2c.1 0 .3 0 .4-.1l.3-.3c.1-.1.1-.3.1-.4 0-.1 0-.3-.1-.4 0-.1-.1-.3-.2-.4.4.2.5.3.6.4.1.1.2.3.2.5 0 .1.1.3 0 .4 0 .1-.1.3-.1.4l-.3.3c-.1.1-.3.1-.4.1-.4.1-.5.1-.7.1-.2 0-.4 0-.8.1s-.8.3-1.2.6c-.3.3-.6.7-.7 1.1l-1.1.4-.5.2c-.5.2-1.1.4-1.5.6-.3.2-.5.6-.6 1-.1.1-.1.3-.1.4 0 .1 0 .3.1.4.3.2.7.3 1 .3l-.4-.4.5-.1c.2-.2.3-.4.4-.6l.8.1c.5.1 1.1 0 1.6-.3.2.5.6.9 1.1 1.2l.4.3c1.2.6 3.6 1.5 3.6 1.5v.1c-.7.7-1.2 1.6-1.2 2.6 0 1.3 2.1 1.3 2.1 1.3h.6c-.1.5-.5 1.2-.9 1.2h-.6c-.1 0-.2.1-.2.2s-.1.2-.1.3v.5l.4-.4v.4h2.1l.2-.3c.4-.8.8-1.6 1-2.4 0-.4-1.6-.8-1.8-.8.2-.8.4-1.6.6-2.5.7 1 1.4 1.4 1.9 1.4.3 0 .6-.1.9-.3s.4-.5.4-.8c0-.4-.2-.9-.5-1.6-.1-.3-.3-.8-.5-1.3l-.1-.2c-.4-1.1-.8-2 0-2.5v.1c.1.1.3.2.5.2s.3 0 .5-.1.3-.2.4-.3c.1-.1.2-.3.2-.5l-1.2.4zm-7.4-5c.3 0 .7 0 1 .1-.7.4-1.1.3-1-.1zM16.2 9l.3.4 1.2 1.6c-.6.3-1.2.4-1.8.3-1-.3-1.2-1.6-1.2-1.6l-.1-.8c-.2 0-.5 0-.7-.1l-.2-.4-.2.5c-.1-.3-.1-.7 0-1 .1-.1.2-.2.3-.2h.4c.4 0 .7.1 1 .3.4.2.7.6 1 1z"/>
</svg>