<svg xmlns="http://www.w3.org/2000/svg" viewBox="0 0 171.2 30">
	<path fill="#e9041e" d="M28.9 1H0v14.8h28.9V1z"/>
	<path fill="#000" d="M57.6 8.2L51.7 1h3L59 6.3 63 1h3l-8.8 11.9h-3l3.4-4.7zm50.1 4.5h2.2V.7h-2.3l-7.8 9h-.1c.1-2.3.2-4.1.2-5.9V.7h-2.2v12h2.3l7.8-9c-.1 1.8-.1 4.9-.1 5.9v3.1zm15.5-7.1h-7.8V.7h-2.2v12h2.2V7.5h7.8v5.2h2.2V.7h-2.2v4.9zm9.2 2.3h4.6L134.7 3l-2.3 4.9zm-.9 1.9l-1.4 2.9h-2.4l5.9-12h2.4l5.9 12h-2.4L138 9.8h-6.5zm21.9-4.2h-7.8V.7h-2.2v12h2.2V7.5h7.8v5.2h2.2V.7h-2.2v4.9zm12.2 7.6c-4 0-7-2.5-7-6.3 0-3.7 3.1-6.3 7-6.3 2.3 0 4 .7 5.5 1.8L170 4.2c-1.1-.8-2.5-1.5-4.3-1.5-2.9 0-4.7 1.8-4.7 4.2 0 2.5 1.8 4.2 4.8 4.2 1.8 0 3.3-.6 4.4-1.4l1.2 1.7c-1.7 1.2-3.5 1.8-5.8 1.8zm-92.9 0c2.3 0 4.1-.6 5.6-1.8l-1.2-1.7c-1.1.8-2.5 1.4-4.4 1.4-2.9 0-4.8-1.8-4.8-4.2 0-2.4 1.8-4.2 4.7-4.2 1.8 0 3.2.6 4.3 1.5l1.2-1.7C76.6 1.4 74.9.7 72.6.7c-3.9 0-7 2.6-7 6.3.1 3.6 3.1 6.2 7.1 6.2zm13.8.1h2.1v-1.1c3.6-.3 6.4-2.6 6.4-5.8C95 3.2 92.2 1 88.6.6V0h-2.1v.6c-3.5.4-6.2 2.7-6.2 5.8 0 3.1 2.7 5.4 6.2 5.8v1.1zm0-10.6v7.4C84.3 9.7 83 8.3 83 6.4c-.1-1.8 1.3-3.3 3.5-3.7zm2.1 7.4V2.7c2.3.3 3.7 1.8 3.7 3.7 0 1.9-1.4 3.4-3.7 3.7zM46.5 1c2.6 0 4.2 1.7 4.2 4 0 2.5-1.6 3.9-4.2 3.9h-5.2v4h-2.2V1h7.4zm.2 5.9c1.1 0 1.9-.8 1.9-1.9 0-1.2-.7-2.1-2-2.1h-5.2v4h5.3zM28.9 15.4H0v14.5h28.9V15.4zM60.2 18h-2.4l-5.9 12h2.4l1.4-2.9h6.5l1.4 2.9H66l-5.8-12zm-3.5 7.1l2.3-4.9 2.3 4.9h-4.6zm34.7 4.8h3.1L88 23.8l6.3-5.8h-3.1l-5.9 5.5V18h-2.2v12h2.2v-5.6h.2l5.9 5.5zm-13.7-7.1h-7.8V18h-2.2v12h2.2v-5.2h7.8V30h2.2V18h-2.2v4.8zm-27.3 1.3c-.7-1.2-2.1-1.7-3.4-1.7h-5.6v-2.5h8.5V18H39.1v11.9h7c.8 0 1.7-.1 2.5-.4 1-.4 1.9-1.3 2.2-2.4.2-1.1.2-2.2-.4-3zm-3.2 3.7c-1.9.1-3.8 0-5.7 0v-3.6H47c1 0 2 .8 1.9 1.9 0 1-.9 1.7-1.7 1.7z"/>
	<path fill="#fff" d="M23.9 14.5H5.1v1.8h18.8v-1.8z"/>
</svg>