<svg xmlns="http://www.w3.org/2000/svg" viewBox="0 0 180 29.4">
	<path fill="#0999d5" d="M33.2 9.8V4.9c0-2.7-2.1-4.9-4.9-4.9-2.7 0-4.8 2.2-4.8 4.9v4.9h-4c0-5.3-4.4-9.7-9.7-9.7C4.4 0 0 4.4 0 9.8c0 5.3 4.4 9.7 9.7 9.7v4.9c0 2.7 2.1 4.9 4.9 4.9 2.8 0 4.9-2.1 4.9-4.9v-4.9h4c0 5.3 4.4 9.7 9.7 9.7 5.3 0 9.7-4.4 9.7-9.7 0-5.3-4.3-9.7-9.7-9.7zm-25.4 0c0-1.1.9-1.9 1.9-1.9 1.1 0 2 .7 2 1.9s-.9 1.9-1.9 1.9c-1.1.1-2-.8-2-1.9zm25.4 11.7c-1.1 0-1.9-.9-1.9-1.9 0-1.1.9-1.9 1.9-1.9 1.1 0 1.9.9 1.9 1.9 0 1-.8 1.9-1.9 1.9zm5.9-13.6c2.2 0 4-1.8 4-4s-1.8-4-4-4-4 1.8-4 4 1.8 4 4 4zm16.6 1.6c.9-1.1 2.2-1.7 3.6-1.6 1.4 0 2.8.6 3.8 1.7 1.1 1.1 1.6 2.6 1.6 4.2 0 1.5-.5 3-1.6 4.2-1 1.1-2.4 1.7-3.8 1.7-1.4.1-2.8-.5-3.6-1.6v5.8h-2.9V8.2h2.9v1.3zm.8 6.5c1.2 1.2 3.1 1.2 4.4 0 .6-.5 1-1.4.9-2.2.1-.9-.2-1.6-.9-2.2-1.2-1.2-3.1-1.2-4.4 0-.5.6-.9 1.4-.9 2.2s.4 1.6.9 2.2zm24.2-.1c.5.5 1.4.9 2.1.9 1.1.1 2-.5 2.6-1.5l2.5 1.4c-1.1 1.8-3 2.9-5.1 2.9-3.2 0-5.9-2.7-5.9-5.9v-.3c.1-3.2 2.8-5.7 6-5.6 2.1 0 4.1 1.1 5 2.9l-2.5 1.5c-.5-1-1.5-1.5-2.6-1.5h-.2c-1.6.1-2.9 1.5-2.8 3.1 0 .7.3 1.6.9 2.1zm11.6-3.5h4.5V8.2h2.9v11.1h-2.9V15h-4.5v4.3h-2.9V8.1h2.9v4.3zm14.8-4.5c1.4-.1 2.8.5 3.6 1.6V8.2h2.9v11.1h-2.9V18c-.9 1.1-2.2 1.7-3.6 1.6-1.5 0-2.9-.6-3.8-1.7-1.1-1.1-1.6-2.6-1.6-4.2 0-1.5.5-3 1.6-4.2 1-1 2.4-1.6 3.8-1.6zm-1.6 8.1c1.2 1.2 3.1 1.2 4.4 0 .6-.5 1-1.4.9-2.2.1-.9-.2-1.6-.9-2.2-1.2-1.2-3.1-1.2-4.4 0-.5.6-.9 1.4-.9 2.2s.4 1.6.9 2.2zm13.7-6.5c.9-1.1 2.2-1.7 3.6-1.6 1.5 0 2.9.6 3.8 1.7 1.1 1.1 1.6 2.6 1.6 4.2 0 1.5-.5 3-1.6 4.2-1 1.1-2.4 1.7-3.8 1.7-1.4.1-2.8-.5-3.6-1.6v5.8h-2.9V8.2h2.9v1.3zm1 6.5c1.2 1.2 3.1 1.2 4.4 0 .5-.5.9-1.4.9-2.2.1-.9-.2-1.6-.9-2.2-1.2-1.2-3.1-1.2-4.4 0-.5.6-.9 1.4-.9 2.2s.3 1.6.9 2.2zm12.9-5.2c.9-.9 2-1.4 3.3-1.3 2.8 0 4.8 2.2 4.8 4.8 0 1.4-.5 2.8-1.6 3.7-2.5 2-6 1.9-8.3-.2-1.1-1.2-1.6-2.7-1.6-4.3-.1-1.5.2-3 .9-4.4.9-1.2 2-2.2 3.4-2.8l1.1-.5 1-.4c.2-.1.4-.2.7-.4.6-.3 1.2-1 1.4-1.7l2.2 1.4c-.1.9-.6 1.6-1.3 2.1-.9.6-1.9 1.2-3 1.5-1.9.8-2.6 1.4-3 2.5zm2.4 6.3c.7 0 1.5-.2 2-.7.5-.5.9-1.2.6-1.7v-.2c-.1-1.5-1.3-2.6-2.8-2.5-.6-.1-1.4.2-1.9.6s-.9 1.1-.9 1.8.3 1.4.9 1.9c.6.6 1.3.8 2.1.8zm12.2-9.2c1.4-.1 2.8.5 3.6 1.6V8.2h2.9v11.1h-2.9V18c-.9 1.1-2.2 1.7-3.6 1.6-1.5 0-2.9-.6-3.8-1.7-1.1-1.1-1.6-2.6-1.6-4.2 0-1.5.5-3 1.6-4.2 1-1 2.3-1.6 3.8-1.6zm-1.6 8.1c1.2 1.2 3.1 1.2 4.4 0 .6-.5 1-1.4.9-2.2.1-.9-.2-1.6-.9-2.2-1.2-1.2-3.1-1.2-4.4 0-.5.6-.9 1.4-.9 2.2s.4 1.6.9 2.2zm13.6-3.6h4.5V8.2h2.9v11.1h-2.9V15h-4.5v4.3h-2.9V8.1h2.9v4.3zm20.2-4.3l-4.5 5.6 4.6 5.7h-3.3l-4.1-5v5h-2.9V8.2h2.9V13l3.8-4.9h3.5zM68 8.2l3 7.5 2.4-7.5h3.1l-5.7 15.6h-2.9l1.5-4.6-4.5-11H68z"/>
</svg>