<svg xmlns="http://www.w3.org/2000/svg" viewBox="0 0 128 42">
	<path fill="#F2CD13" d="M2.40294 0H39.012c1.6663 0 2.9895 1.37223 2.9895 2.9895v36.6091c0 1.3232-1.0781 2.4014-2.4014 2.4014H2.40294C1.07972 42 .00154049 40.9218.00154049 39.5986V2.4014C-.0474677 1.07818 1.07972 0 2.40294 0Z"/>
	<path fill="#185491" d="m13.8707 0 9.4096 15.5356v4.2147L11.2733 0h2.5974Zm4.2638 0 5.1458 8.52742v3.03848L16.2721 0h1.8624Zm3.6266 0 1.5192 2.54842v2.3524L20.2908 0h1.4703Zm4.2637 32.9825h-2.9405l-4.6558-8.0373v8.0373H15.684v-12.105h3.4306l4.1167 6.8121v-6.8121h2.7935v12.105Zm2.3033-12.105h6.0771c1.2742 0 2.2543.294 2.8424.8331.5881.5391.8822 1.2742.8822 2.2544 0 .5881-.147 1.1272-.4901 1.5683-.3431.441-.8331.7351-1.5193.9801.8332.1961 1.4703.5391 1.9114 1.0782.441.5391.6861 1.2252.6861 2.0093 0 1.0782-.3431 1.9114-1.0782 2.4994-.7351.5881-1.9113.8822-3.5776.8822h-5.734v-12.105Zm2.8425 2.3524v2.4014h2.6465c.441 0 .7841-.098 1.0291-.3431.2451-.245.3921-.5391.3921-.8821 0-.3431-.147-.6371-.3921-.8332-.245-.196-.6371-.343-1.1272-.343 0 .049-2.5484.049-2.5484 0Zm0 4.6557v2.7445h2.9405c.3921 0 .7841-.098 1.0782-.3431.3431-.245.4901-.5881.4901-1.0291 0-.4901-.147-.8332-.4901-1.0292-.2941-.245-.7841-.3431-1.4703-.3431h-2.5484ZM3.33398 29.0618h2.84248c0 .5881.19603 1.0292.5881 1.3723.39206.343 1.02917.5391 1.86231.5391.73512 0 1.27421-.0981 1.61723-.2941.3431-.196.5391-.5391.5391-.9802 0-.392-.147-.7351-.4901-1.0291-.34301-.2451-1.17615-.5881-2.54838-.8822-1.61727-.392-2.69545-.8331-3.23454-1.3722-.53909-.4901-.78413-1.2742-.78413-2.3034 0-1.1762.44107-2.0583 1.32322-2.6954.88215-.5881 2.10735-.8822 3.6266-.8822 1.37223 0 2.49943.3431 3.33253.9802.8332.6861 1.2252 1.5682 1.2742 2.6464h-2.6954c-.049-.392-.245-.7351-.58811-.9801-.34305-.2451-.83313-.3431-1.47024-.3431-.5881 0-1.07818.098-1.37223.2941-.34306.196-.49008.49-.49008.8331 0 .3431.14703.6371.44107.8821.29405.2451.93116.4411 1.96033.6371 1.86236.3921 3.08756.8332 3.72466 1.4213.6371.5881.9311 1.3722.9311 2.3524 0 1.2252-.4411 2.2053-1.2742 2.9405-.8331.7351-2.1073 1.0781-3.82263 1.0781-1.61727 0-2.89149-.343-3.82264-1.0781-.98016-.6862-1.47025-1.7643-1.47025-3.1366ZM120.798.687958c.008 1.217082 1.13 1.536942 2.228 1.543982 1.065.00683 2.347-.33097 2.347-1.53416 0-.346083-.009-.353053-.452-.353053-.383 0-.469.040871-.572.269516-.338.752997-2.191.752997-2.529 0-.103-.228645-.19-.269516-.573-.269516-.44 0-.451.008343-.449.343231ZM51.5041 2.89289c-1.3076.38389-2.4513 1.41707-2.9532 2.6677-.234.5835-.2999.93877-.3397 1.83455-.0552 1.24123.0617 1.99285.4381 2.81726.2905.6362.9738 1.4275 1.5547 1.8005 1.2752.8189 3.1704.9609 4.5885.3437.9457-.4116 1.799-1.4575 2.0879-2.55937.256-.97647.3163-.92556-1.096-.92556h-1.2443l-.1166.43912c-.2824 1.06521-1.5398 1.54121-2.6002.98451-.3346-.1757-.7714-.82968-.9221-1.38044-.2875-1.05113-.051-2.68354.4818-3.32649.8419-1.01576 2.5836-.7529 3.0356.45824l.1082.29042h1.1928c.656 0 1.2133-.03569 1.2386-.0792.1013-.1751-.2705-1.27387-.6045-1.78618-.4201-.64454-.8287-.98027-1.6669-1.36986-.5157-.23974-.7872-.2918-1.66-.3181-.6515-.01975-1.2233.02133-1.5227.1092Zm7.0849 4.81707v4.75244h7.3857v-2.2178h-4.7851V8.55484h4.265V6.54825h-4.265V5.17533h4.6811V2.95752H58.589v4.75244Zm9.1542 0v4.75244h2.7457c3.1343 0 3.7126-.1011 4.5016-.7867 1.2268-1.0661 1.1639-3.30747-.1167-4.14739l-.4475-.29359.3968-.43923c.4686-.51886.6639-1.1483.5659-1.82388-.1534-1.05684-.6189-1.57475-1.6643-1.85124-.478-.12631-1.217-.16285-3.2987-.16285h-2.6828v4.75244Zm9.6743 0v4.75244h7.3857v-2.2178h-4.7851V8.55484h4.265V6.54825h-4.265V5.17533h4.6811V2.95752h-7.2817v4.75244Zm9.0501-.00644v4.75888h2.6006V9.29411h1.2884c1.6611 0 2.2016-.16454 2.9408-.89547.6124-.60546.868-1.27481.868-2.27283 0-1.31283-.564-2.28169-1.6411-2.81861l-.5954-.29687-2.7307-.03285-2.7306-.03274v4.75878Zm9.2582.00644v4.75244h2.6006V8.55484h2.9126v3.90756h2.705V2.95752h-2.705v3.37951h-2.9126V2.95752h-2.6006v4.75244Zm10.1942.00803v4.76041l2.629-.0344 2.63-.0344.687-.344c1.1-.5499 1.559-1.3573 1.559-2.73981-.001-1.29668-.615-2.29416-1.72-2.79317-.439-.19812-.762-.24702-1.858-.28113l-1.326-.04129V2.95752h-2.601v4.76047Zm8.218-.00803v4.75244h2.601V2.95752h-2.601v4.75244Zm4.681.05576v4.80818l1.424-.0293 1.425-.0294 1.358-2.8767 1.359-2.87681.052 2.87681.052 2.8767 1.274.0297 1.274.0297V2.95752h-2.874l-1.346 2.84566-1.345 2.84565-.028-2.84565-.027-2.84566h-2.598v4.8082ZM72.3894 5.07637c.369.14236.4474.27195.4494.74265.0026.63112-.2564.7757-1.4655.81837l-1.0295.03622v-1.7095h.8774c.4826 0 1.0082.05048 1.1682.11226Zm18.5771-.00116c.9026.25452.9505 1.78216.0658 2.0953-.1819.06431-.6982.11701-1.1474.11701h-.8167V4.96411l.7542.00063c.4148.00032.9297.05006 1.1441.11047Zm19.3695 3.31224c.404.1713.577.43944.577.89282 0 .83273-.372 1.06823-1.69 1.06933l-.702.0006V8.23801h.731c.403 0 .89.06727 1.084.14944Zm-37.3349.32105c.2763.28039.3515.94531.1501 1.3272-.1502.285-.7386.4188-1.8452.4195l-.9622.0006V8.44923h1.2009c1.1365 0 1.2148.01394 1.4564.25927ZM121.025 14.438c.008 1.2012 1.18 1.452 2.241 1.4255.975-.0244 2.168-.3049 2.168-1.4162 0-.3246-.009-.3311-.435-.3311-.369 0-.453.0383-.552.2527-.326.7061-2.112.7061-2.438 0-.099-.2144-.182-.2527-.551-.2527-.425 0-.435.0078-.433.3218Zm-41.806 2.0505c-1.0983.3024-2.2065 1.1673-2.6864 2.0964-.7497 1.4517-.7524 3.474-.0067 4.9179.8426 1.6315 2.9657 2.5388 4.9614 2.12 2.2383-.4697 3.5462-2.156 3.5462-4.5724 0-2.8277-1.864-4.727-4.6075-4.6949-.4157.0049-.9588.0647-1.207.133Zm-30.676 4.5124v4.4562h2.5062v-3.664H53.8561v3.664H56.4626v-8.9124H53.8561v3.1689H51.0492v-3.1689H48.543v4.4562Zm10.4916-.0247c-.9191 2.4372-1.6708 4.4649-1.6704 4.5057.0003.0408.5608.0743 1.2454.0743h1.2447l.2923-.8665.2923-.8665 1.5043-.0273 1.5043-.0272.2715.8937.2716.8938h1.2985c.7143 0 1.2986-.0208 1.2986-.0462 0-.0253-.7044-1.9304-1.5654-4.2334-.861-2.303-1.6098-4.3098-1.6639-4.4596l-.0985-.2723h-2.5544l-1.6709 4.4315Zm8.5556.0187v4.4622h2.5062v-2.9708h1.2416c1.6009 0 2.1218-.1543 2.8341-.8396.5902-.5678.8365-1.1954.8365-2.1312 0-1.231-.5435-2.1395-1.5815-2.6429l-.5738-.2784-2.6316-.0308-2.6315-.0307v4.4622Zm20.1484-3.2371c-.0035 2.6734-.2744 4.2933-.8694 5.1989-.2449.3726-.32.4209-.6551.4209h-.3786v4.1653l1.1779-.0278 1.1779-.0279.0286-1.015.0285-1.0151h4.9984l.0286 1.0151.0286 1.015 1.1779.0279 1.1779.0278v-4.1653h-1.0025v-6.8329h-6.9171l-.0016 1.2131Zm9.024 3.2431v4.4562h2.5062v-3.664h2.8072v3.664h2.606v-8.9124h-2.606v3.1689h-2.8072v-3.1689h-2.5062v4.4562Zm9.9244.0075v4.4638l2.534-.0323 2.534-.0323.663-.3225c1.059-.5157 1.502-1.2727 1.501-2.5691 0-1.2158-.592-2.1511-1.657-2.619-.423-.1858-.735-.2317-1.79-.2637l-1.279-.0387v-3.0499h-2.506v4.4637Zm7.92-.0075v4.4562h2.506v-8.9124h-2.506v4.4562Zm4.511.0523v4.5085l1.373-.0275 1.372-.0276 1.309-2.6974 1.309-2.6975.05 2.6975.051 2.6974 1.228.0279 1.228.0278v-9.0176h-2.77l-1.297 2.6683-1.297 2.6683-.026-2.6683-.027-2.6683h-2.503v4.5085Zm-47.1922-2.5228c.8698.2386.916 1.6711.0634 1.9647-.1753.0603-.6729.1097-1.1057.1097h-.7871v-2.1786l.7268.0006c.3998.0003.8959.0469 1.1026.1036Zm9.5025.1186c1.2451.6202 1.4973 3.3102.4166 4.4433-.6366.6674-1.8282.7494-2.5654.1765-1.0169-.7901-1.0763-3.4897-.0959-4.3654.5897-.5268 1.4925-.6291 2.2447-.2544Zm10.7228 2.3024v2.4262H89.255l.2481-.5354c.3183-.6867.5092-1.692.5989-3.1534l.0714-1.1636h1.9777v2.4262Zm-29.7365-.232c.2.6349.3637 1.1809.3637 1.2131 0 .0322-.3883.0587-.8629.0587-.6485 0-.8512-.0308-.8159-.1238.0259-.068.2208-.6468.4331-1.2861.2124-.6392.4159-1.1294.4522-1.0893.0363.0401.2297.5925.4298 1.2274Zm48.5284.9168c.389.1606.556.412.556.8371 0 .7809-.359 1.0017-1.629 1.0027l-.677.0006V21.496h.705c.388 0 .858.0631 1.045.1402ZM48.543 34.5528v4.6006l2.8202-.0326c2.7991-.0325 2.8243-.0346 3.3693-.2982.6313-.3054 1.0274-.6811 1.3325-1.2643.3111-.5947.3104-2.1671-.0013-2.7574-.2942-.5573-.7848-1.0163-1.3812-1.2927-.4345-.2013-.7026-.2363-2.0714-.2711l-1.5724-.0399v-1.3056h4.3926v-1.9395H48.543v4.6007Zm9.9487-.0327c-.9153 2.5124-1.6638 4.6025-1.6634 4.6446.0003.042.5584.0765 1.2402.0765h1.2395l.2911-.8931.291-.8932 1.498-.0281 1.4981-.0281.2703.9213.2705.9212h1.2931c.7113 0 1.2932-.0214 1.2932-.0475 0-.0262-.7015-1.9899-1.5589-4.3639-.8574-2.3739-1.603-4.4426-1.6569-4.5969l-.0982-.2808H60.1556l-1.6639 4.568Zm8.4201.0256v4.5935H69.4075V35.3623h2.7953V39.1392h2.5956V29.9521h-2.5956V33.2186h-2.7953V29.9521H66.9118v4.5936Zm9.8832.0542v4.6477l1.2229-.0287 1.2229-.0287.0279-1.4793.0278-1.4792.4149-.4323.4149-.4323.8904 1.5543c.4898.8548.9987 1.7266 1.131 1.937l.2406.3828h1.496c.8339 0 1.4961-.0411 1.4961-.093 0-.0512-.8078-1.3376-1.7951-2.8587l-1.7951-2.7657 1.0163-1.0968c.5589-.6033 1.3093-1.4069 1.6676-1.7858l.6513-.6891H81.999l-1.3292 1.5894-1.3292 1.5893-.0274-1.5893-.0276-1.5894H76.795v4.6478Zm-14.9375-.3445c.1992.6546.3622 1.2173.3622 1.2505 0 .0333-.3866.0605-.8592.0605-.6458 0-.8477-.0317-.8125-.1276.0257-.0701.2198-.6667.4312-1.3256.2116-.659.4142-1.1642.4504-1.1229.0361.0413.2287.6107.4279 1.2651Zm-8.2892 1.1377c.3215.2154.4377.7569.2491 1.1599-.1858.3968-.6386.5319-1.8053.5389l-.9734.0057v-1.9652l1.1367.0445c.8403.0329 1.2034.0893 1.3929.2162Z"/>
</svg>