<svg xmlns="http://www.w3.org/2000/svg" viewBox="0 0 165 44">
	<path fill="#005187" d="M30.5393 37.735c-2.735-1.9309-3.9446-3.9332-2.9095-5.7449 0 0 4.5856-6.4481 1.4434-19.8925 0 0 8.6821-3.8021 10.1256-11.501653L32.7863 3.64716c.3134-.64361.5698-1.31107.7562-2.00236.1626-.50059.3371-1.108455.4416-1.6448l-1.5586.750881-13.676 6.424259c-.0701.03575-.1282.08342-.1508.15493-.7336 1.60906-.9781 3.51603-.9318 5.53033-1.2453-.4171-2.5486-.6556-3.9221-.6556-2.0251 0-3.93383.5126-5.6325 1.3827-.01187-.0358-.02374-.0834-.0463-.1192-.10564-.1073-.26827-.1311-.39647-.0477L6.0409 14.4575l-.40835-3.2777c-.01069-.1549-.15075-.2741-.30151-.286-.16381 0-.29201.1192-.31457.2741l-.48907 3.2658-1.61793-1.0727c-.12821-.0834-.29084-.0716-.3953.0357-.10446.1074-.12821.2741-.0463.4053l1.01257 1.6686-3.201482.4053C.116332 15.8998 0 16.0308 0 16.1977c0 .1668.116328.298.268271.3218l3.188419.5006-1.05884 1.6448c-.08191.1192-.07005.2979.03441.4052.02374.0239.07003.0358.10446.0478-.95439 1.8235-1.50042 3.9093-1.50042 6.1142 0 7.1751 5.70258 13.0154 12.7085 13.0154 1.7343 0 3.3867-.3575 4.9002-1.0011.1045.0834.1982.1549.3146.2383 4.9345 3.683 8.4719 2.2527 11.2544 3.4922 2.2922 1.025 3.2929 2.9559 3.2929 2.9559l4.2021-1.4422c-1.6298-2.9678-5.0627-3.2658-7.1697-4.7556ZM19.1222 7.71148 33.019 1.2038c-.2101.8224-.5128 1.63288-.8962 2.4076l-9.7421 4.62451c-.0701.03575-.1282.08343-.1508.15492-1.6642 3.71867-1.7806 8.70077-1.8744 13.08687-.0344 1.4899-.07 2.8963-.1626 4.1121-.07-.8701-.2089-1.8356-.4071-2.8487-.082-.3933-.1627-.7985-.2446-1.2038-.9544-4.7437-2.037-10.131-.419-13.82582ZM14.3966 29.2369c-.2909-.298-.5698-1.0846-1.5824-1.3587-.5009-.1431-.99-.0835-1.3497 0-.3608.0834-.8962.0118-1.2927-.1669-.1626-.0596-.36083-.1669-.36083-.1669-.26709-.1192-.55792-.2384-.86062-.2027-.45464.0596-1.11701.5007-1.11701.5007l2.05954.9773s.40712.1907.69802.5721c.8618 1.168 1.5716 1.5376 2.0369 1.764 1.688 1.4183 2.2697 2.9559 4.9928 5.2682-1.2096.441-2.5249.7032-3.8876.7032-6.41246 0-11.62599-5.3397-11.62599-11.8951 0-2.6817.87248-5.1488 2.3278-7.1393H4.3992l.02375-.0238.39529 3.2895c.02375.1549.15195.2861.31457.2861.15076 0 .29083-.1192.31457-.2742l.49974-3.2657 1.59421 1.0846c.1282.0835.29201.0715.39647-.0357.10446-.1073.1282-.2742.0463-.4053l-1.01255-1.6686 3.21215-.4053c.1508-.0238.279-.1549.279-.3218 0-.1669-.1164-.2979-.2671-.3218l-3.18964-.5124c1.8981-1.3707 4.20214-2.1931 6.70444-2.1931 1.396 0 2.735.2741 3.9683.7389.1745 2.5029.7099 5.137 1.199 7.6161.0819.4053.1626.7986.2445 1.2038.5698 2.8963.8618 6.1263-.1045 6.9725-1.8969 1.0489-4.1202-.1072-4.6211-.6197Z"/>
	<path fill="#005187" d="M41.3059 27.0196c1.745 1.8236 3.9565 2.7294 6.6214 2.7294 1.6298 0 3.1196-.3814 4.4586-1.1681 1.3496-.7747 2.4085-1.8235 3.1646-3.1346l-3.0139-1.7878c-.419.7985-1.047 1.4303-1.8625 1.8831-.8143.4649-1.7342.6914-2.7468.6914-1.7224 0-3.1065-.5483-4.1665-1.6568-1.0589-1.0965-1.5824-2.5268-1.5824-4.2788 0-1.776.5235-3.2063 1.5824-4.3146 1.0481-1.1085 2.4441-1.6568 4.1665-1.6568 1.0126 0 1.9207.2384 2.735.6914.8036.4528 1.4315 1.0964 1.8743 1.907l3.0139-1.7879c-.7561-1.3231-1.815-2.3599-3.1765-3.1346-1.3615-.7748-2.8406-1.1562-4.4467-1.1562-2.6768 0-4.8764.9058-6.6214 2.7175-1.7342 1.7997-2.6079 4.0524-2.6079 6.7342 0 2.6579.8618 4.9105 2.6079 6.7222ZM151.697 41.4414c.768.7985 1.734 1.2038 2.909 1.2038.711 0 1.351-.143 1.945-.4887.593-.3456 1.058-.7985 1.396-1.3826l-1.326-.7866c-.187.3456-.455.6197-.816.8224-.361.2026-.768.298-1.209.298-.758 0-1.374-.2384-1.839-.727-.467-.4887-.699-1.1085-.699-1.8833 0-.7747.232-1.4064.699-1.895.465-.4887 1.081-.7271 1.839-.7271.453 0 .848.0954 1.209.298.361.1908.629.4767.826.8344l1.327-.7867c-.325-.584-.802-1.037-1.396-1.3827-.593-.3455-1.245-.5124-1.956-.5124-1.175 0-2.141.3933-2.909 1.1919-.768.7985-1.152 1.7878-1.152 2.9677 0 1.1681.384 2.1574 1.152 2.9559Zm-34.822-6.9599h1.536l-2.34 5.7926c-.628 1.5494-1.652 2.2884-3.084 2.2049v-1.4779c.419.0358.756-.0238 1.013-.1787.256-.1551.465-.4053.639-.7628l-2.56-5.59h1.537l1.711 3.8617 1.548-3.8498Zm-11.279 1.5134v-1.5017h-4.433v7.9975h1.536v-6.4958h2.897Zm5.564-.7389c-.513-.5126-1.141-.7748-1.897-.7748h-2.909v7.9975h1.536v-2.634h1.373c.756 0 1.384-.2622 1.897-.7747.512-.5126.768-1.1562.768-1.907 0-.7509-.256-1.3945-.768-1.907Zm-1.082 2.777c-.221.2265-.489.3457-.815.3457h-1.373v-2.4195h1.373c.326 0 .594.1192.815.3456.22.2265.326.5244.326.8701 0 .3338-.106.6317-.326.8581Zm14.909 4.4457v-7.9975h-5.831v7.9975h1.536V35.983h2.759v6.4957h1.536Zm7.18-7.9975v7.9975h-1.536V35.983h-2.758v6.4957h-1.536v-7.9975h5.83Zm5.948 6.5554.466 1.4421h1.687l-2.747-7.9975h-1.909l-2.735 7.9975h1.664l.466-1.4421h3.108Zm-.488-1.466h-2.143l1.072-3.2658 1.071 3.2658Zm11.964-5.0894v7.9975h-1.537V35.983h-2.758v6.4957h-1.536v-7.9975h5.831Zm12.185 3.0275c.756 0 1.385.2263 1.862.6912.489.4648.722 1.0607.722 1.7878 0 .7391-.244 1.335-.722 1.7998-.489.4649-1.106.6912-1.862.6912h-2.991v-7.9975h4.912v1.5137h-3.375v1.5256h1.454v-.0118Zm0 3.4922c.303 0 .559-.0954.756-.2743.198-.1787.303-.429.303-.7508 0-.3218-.105-.5721-.303-.7389-.197-.1788-.453-.2622-.756-.2622h-1.454v2.0262h1.454ZM74.7307 11.2155v18.1761h-3.4674V17.604l-4.9939 8.4385h-.4072l-4.9927-8.4147v11.7638h-3.503V11.2155h3.5968l5.0972 8.5934 5.0746-8.5934h3.5956Zm16.2827 18.1761V11.2155H77.7576v18.1642h3.503V14.6361h6.2617v14.7555h3.4911ZM107.96 18.0927c1.722 0 3.13.5243 4.235 1.5732 1.095 1.0488 1.654 2.4075 1.654 4.0643 0 1.6805-.547 3.0393-1.654 4.0882-1.093 1.0488-2.513 1.5732-4.235 1.5732h-6.797V11.2155h11.16v3.4326h-7.657v3.4564h3.294v-.0118Zm0 7.9498c.698 0 1.268-.2027 1.722-.6079.454-.4053.686-.9773.686-1.7044s-.232-1.2872-.686-1.6925c-.454-.3933-1.036-.5959-1.722-.5959h-3.294v4.6007h3.294Zm18.028.0714 1.07 3.2777h3.794l-6.238-18.1761h-4.341l-6.215 18.1761h3.783l1.071-3.2777h7.076Zm-1.083-3.3491h-4.865l2.433-7.4255 2.432 7.4255Zm17.563-11.5493h3.468v18.1761h-3.468v-7.5327h-6.587v7.5327h-3.503V11.2155h3.503v7.2227h6.587v-7.2227Zm16.328 18.1761h4.028l-6.821-9.3443 6.565-8.8318h-4.028l-6.086 8.0214v-8.0214h-3.504v18.1761h3.504v-8.5219l6.342 8.5219Z"/>
	<path fill="#E85919" d="M165 32.6934H41.1657l-1.1645-1.5137H163.825L165 32.6934Z"/>
</svg>