<svg xmlns="http://www.w3.org/2000/svg" viewBox="0 0 160 28">
	<path fill="#F08064" d="M70.9448 0h89.0553v27.0232H70.9448z"/>
	<path fill="#000" d="M10.4545 4.29032C4.89403 4.65709 1.32797 7.06376.238383 11.1848c-.2534991.9587-.3189578 3.0669-.127567 4.1049.788772 4.2767 4.029014 6.8364 9.350444 7.3864 1.34424.1389 4.12484.056 5.33904-.1592 3.8522-.6828 6.2795-2.5538 7.266-5.6009.0954-.2944.1377-.571.1377-.571l-5.3413-1.016s-.0523.1498-.1113.348c-.409 1.374-1.4352 2.3052-2.9872 2.7107-1.881.4915-4.71105.2398-6.19854-.5513-.65132-.3463-1.35126-1.062-1.66948-1.707-.38785-.7861-.5329-1.5025-.53323-2.6336-.00041-1.5983.3778-2.6701 1.25091-3.54492C7.69405 8.86859 9.68085 8.30327 11.9752 8.4255c2.6155.13927 4.1835 1.10438 4.7705 2.9365.0832.2597.0814.295.0814.295 1.8085-.3451 3.6175-.6886 5.4189-1.0695 0 0 .0329-.0297-.0344-.2727-.1674-.6052-.5853-1.4847-1.0027-2.1102-1.3992-2.09707-3.9211-3.40425-7.3221-3.79523-.8115-.09329-2.7847-.1617-3.4323-.11905ZM23.775 22.506h5.2302V8.72565h10.542V22.506h5.2302V4.56707H23.775V22.506Zm23.2088.0066 7.4162-.0272c7.3866-.0269 7.419-.0278 8.1109-.2104 2.8238-.7454 4.386-2.8929 4.2213-5.803-.0576-1.0157-.1897-1.5406-.5956-2.3647-.6254-1.2696-1.927-2.253-3.5849-2.7082-.634-.1741-.8025-.1803-5.5775-.208l-4.9269-.0285V8.64411h13.3238V4.56707H46.9838V22.5126ZM70.9281 8.72663l13.2797-.04175.0437-4.11781H70.9281v4.15956ZM84.8207 22.6399l5.5708-.0115 1.7156-3.3024h9.8719l1.678 3.2666h5.762L99.8165 4.62822h-5.3447L84.8207 22.6399Zm25.8243-.0473h5.311v-7.0991h10.951v7.0991h5.271V4.62822h-5.271v6.62518h-10.951V4.62822h-5.311V22.5926Zm23.862 0h5.271v-7.7428l8.969 7.7428h7.403l-10.757-9.5391 10.44-8.42528h-6.984l-9.071 7.35908V4.62822h-5.271V22.5926Zm-34.5587-7.2621h-5.8242l2.9494-5.5754 2.8748 5.5754Zm-29.0202-.1727 4.1474.0252c4.1054.0249 4.1508.0269 4.4869.2063.6443.3438.8892.8593.8262 1.7388-.0483.6733-.2467 1.0264-.7327 1.304l-.3514.2008-4.1882.0232-4.1882.0232v3.9992l4.842-.0302c4.6874-.0292 4.8641-.0359 5.5366-.2112 2.1234-.5533 3.6363-1.9775 4.1279-3.8858.1824-.7079.2397-1.8554.1282-2.5666-.3616-2.3067-1.7732-3.8444-4.1335-4.5025-.6378-.1778-.7736-.1829-5.5775-.2096l-4.9237-.0274v3.9126Zm-10.4424.0132c.6796.1883 1.124.8335 1.1208 1.6272-.0032.8004-.2491 1.2556-.8527 1.5783-.3219.1722-.3899.1748-4.4946.1748h-4.2119v-3.465h4.0672c2.5457.0003 4.181.032 4.3712.0847Z"/>
</svg>