<svg xmlns="http://www.w3.org/2000/svg" viewBox="0 0 170 22">
	<path fill="#212471" d="m165.7 9.39922 3.8-7.2h-4l-2.7 6h-1.4v-6H158V17.5992h3.4v-6.1h1.6l3.1 6.1h3.9l-4.3-8.19998Zm-12.8-.9h-5.7v-6.3h-3.4V17.5992h3.4v-6.2h5.7v6.2h3.4V2.19922h-3.4v6.3Zm-19.1-6.3-5.5 15.39998h3.9l1-3.4h4.7l1.1 3.4h3.9l-5.6-15.39998h-3.5Zm.3 9.19998 1.5-4.89998 1.5 4.89998h-3Zm-9-2.79998c-1-.5-2.1-.6-3.2-.6h-2.1v-3h6.8v-2.8h-10.2V17.4992h5.5c1.6.1 3.2-.4 4.5-1.4 1.1-.9 1.7-2.2 1.7-3.6 0-.8-.2-1.6-.7-2.3-.7-.59998-1.4-1.19998-2.3-1.59998Zm-1.4 5.59998c-.5.5-1.1.7-1.8.6h-2.1v-4.1h2.1c.6-.1 1.3.2 1.8.6.4.3.6.7.6 1.3.1.6-.2 1.2-.6 1.6ZM79.3 2.89922c-1-.5-2-.6-3.1-.6h-6V17.6992h3.4v-5.4h2.6c1.5.1 3.1-.3 4.3-1.3 1.1-.9 1.7-2.19998 1.6-3.49998 0-1-.2-1.9-.7-2.7-.6-.9-1.2-1.5-2.1-1.9Zm-1.5 6c-.5.3-1 .6-1.6.5h-2.6v-4.3h2.7c.6-.1 1.1.2 1.5.6.4.5.6 1.1.6 1.7 0 .6-.2 1.1-.6 1.5ZM58.2 17.5992h10.3v-2.8h-6.9v-3.4h6.1V8.49922h-6.1v-3.4h6.9v-2.9H58.2V17.5992ZM54.8 2.19922h-10l-.5 6.5c-.1 1.39998-.3 2.69998-.7 3.89998-.3.9-.7 1.6-1.4 2.2h-1.1l.3 6.3h3.1v-3.4h8.6v3.4H56l.4-6.3h-1.6V2.19922ZM51.3 14.7992h-5.1c.9-1.4 1.4-3.5 1.6-5.89998l.3-3.8h3.2v9.69998ZM35.9 8.49922h-5.7v-6.3h-3.4V17.5992h3.4v-6.2h5.7v6.2h3.5V2.19922h-3.5v6.3ZM14.3 17.5992h10.2v-2.8h-6.8v-3.4h6V8.49922h-6v-3.4h6.8v-2.9H14.3V17.5992ZM0 5.09922h4.6V17.5992H8V5.09922h4.6v-2.9H0v2.9ZM111.8 6.89844V21.5984H86.3V6.89844h6.2l-.1 10.79996h13.2l.1-10.79996h6.1Z"/>
	<path fill="#D2561D" d="M111.8.0999994 111.7 3.9h-9.1l.1 10.8h-7.1999l.2-10.7v-.1h-9.1V0L111.8.0999994Z"/>
</svg>