<svg xmlns="http://www.w3.org/2000/svg" viewBox="0 0 200 28">
	<g fill="#09a543">
		<path d="M4.5 22.5H0v.9h1.7v3.8h1v-3.8h1.8v-.9z"/>
		<path d="M3.2 27.2h1v-2.7h1.3v2.7h1v-3.5H3.2v3.5zM7.9 25.4c-.2-1 1.5-1.5 1.6-.4.2 0 .7-.1 1-.1-.3-2.1-3.9-1.5-3.7.5-.2 2.1 3.5 2.5 3.7.3-.2 0-.7-.1-1-.1 0 1.3-1.9 1-1.7-.2ZM22.1 25h-1.4v-1.3h-1v3.5h1v-1.4h1.4v1.4h1v-3.5h-1V25zM25.6 25.3h.1c.2-.2.3-.5.5-.8h.5v-.8c-1-.2-1.2.2-1.5.7-.1.2-.3.5-.5.7v-1.3h-1v3.5h1v-1.5h.1c.1.1.2.2.3.4l.7 1H27c-.2-.2-.3-.4-.5-.7-.3-.4-.6-.9-1-1.2ZM30.9 16h3.2v11.1H36V16h3.1v-2.1h-8.2V16zM56.3 18.9c-.6 2.3-1.2 4.5-1.2 4.7 0-.3-2.3-9.3-2.4-9.7h-2.5v13.2h1.9v-8.4l2.1 8.1v.2h1.7v-.2l2.1-8V27h1.9V13.8h-2.3c0 .2-.7 2.7-1.3 5ZM68 22c.1 2.5-2.8 4.7-4.5 2.1-1.6-2.4-.9-10.4 3.4-7.7.5.4.8 1.3 1 2.1.4-.2 1.5-.5 1.9-.6-1.3-7.4-9.8-4-9 2.5-.7 7.1 7.9 10.1 9.1 2.1-.4-.1-1.5-.5-1.9-.6h-.1ZM74.8 20.3c.7-.4.9-1.4 1.2-2.2.4-1.3.7-2.5 2.2-2.1v-2c-.6-.3-1.7-.2-2.3.2-.8.6-1.2 1.7-1.5 2.8-.2.7-.4 1.4-.8 2-.1.2-.4.3-.6.3v-5.5h-2.1V27h2v-5.8c1.1.6 1.8 2.3 2.4 3.9.3.7.6 1.4.9 1.9h2.3c-.3-.5-.6-1.2-.9-2-.8-1.8-1.7-3.9-2.7-4.8ZM78.7 27h1.9V16h4.3v11h2V13.8h-8.2V27zM113.6 18.9c-.6 2.3-1.2 4.5-1.2 4.7 0-.3-2.3-9.3-2.4-9.7h-2.5v13.2h1.9v-8.4l2.1 8.1v.2h1.7v-.2l2.1-8V27h1.9V13.8h-2.3c0 .2-.7 2.7-1.3 5ZM125.5 21.9h-.1c.1 2.6-2.8 4.8-4.5 2.2-1.6-2.4-.9-10.4 3.4-7.7.5.4.8 1.3 1 2.1.4-.2 1.5-.5 1.9-.6-1.3-7.4-9.8-4-9 2.5-.7 7.1 7.8 10.1 9.1 2.1-.2 0-.6-.2-.9-.3-.4-.1-.7-.2-.9-.3ZM127.4 16h3.2v11.1h1.9V16h3.2v-2.1h-8.3V16zM157.5 22.7v-8.8h-1.8v13.2h1.8c0-.2 4.4-8.7 4.5-8.8v8.8h1.8V13.9H162c0 .1-4.4 8.7-4.5 8.8ZM189.1 19h-4.3v-5.1h-1.9v13.2h1.9v-5.9h4.3v5.9h1.9V13.9h-1.9V19zM199.1 25.1c-.8-1.8-1.7-3.9-2.7-4.8.7-.4.9-1.4 1.2-2.2.4-1.3.7-2.5 2.2-2.1v-2c-.6-.3-1.7-.2-2.3.2-.8.6-1.1 1.5-1.4 2.4-.3.8-.5 1.6-1 2.3-.1.2-.4.3-.6.3v-5.5h-2v13.2h2v-5.8c.2 0 .4.2.5.4.6.9 1.4 2.5 2 3.9.3.6.5 1.1.7 1.5h2.3c-.3-.5-.6-1.2-.9-2ZM17.4 13.4c.9.7.8 2.9.4 3.8L24 12l-5.1 3.6 5.3-4.6c0-.1-5.4 3.8-5.4 3.8l5.4-4.8-5.5 4.1 5.2-4.9-5.7 4.3 5.3-4.9-5.7 4.3L23 8.1l-5.7 4.3 5.2-4.9-5.7 4.4L22 7.1l-5.7 4.5 5.2-4.9-5.7 4.5L21 6.3l-5.8 4.5 5.3-4.9-5.7 4.5L20 5.5 14.3 10l3.2-3.4-3.8 2.9 4.2-3.9-4.8 3.6L18 4.7l-5.4 4 5.1-4.8-5.5 4.2 5.1-4.6-5.6 4.2 5.1-4.8-5.5 4.3 5.1-4.8-5.5 4.3L16 1.9 10.5 6l5.3-4.6-5.5 4.1L14.6 1 9.2 4.8 14 .5 9.2 4.1 13.5 0 9 3.7s-.9 1.2.5 2.6l7.9 7ZM15.7 14.9l-8-7.3c-.2-.2-.5-.9-.2-2.3 0-.2 0-.4.1-.6-.5.5-1.1.9-1.8 1.4-2 1.4-4.2 3-1.7 6.1l9.3 8.5c.2-.2.5-.5.8-.7 1.4-1.2 3.2-2.7 1.4-5.1ZM14.2 24.5c-.6-.1-1.6-.1-2.3-.1v-1h2.7v-.9h-3.8v4.8h1.1c.9 0 1.9 0 2.5-.2 1.2-.5 1-2.3-.2-2.6ZM12 26.3v-1.2c2.9-.3 3 1.5 0 1.2Z"/>
		<path d="M19 25.5v-.9c-.3-1.6-3.5-1.3-3.5.3.2 0 .7.1 1 .1 0-.7 1-.7 1.5-.5.1.1.1.2.1.4-3-.2-3.8 2.9-.4 2.3.2 0 .3-.1.5-.2V27.3h1.1c-.4-.4-.4-1.1-.4-1.7Zm-2.5.8c0-.4.4-.4.9-.5.3 0 .5 0 .7-.1.1.7-1.1 1.1-1.6.6ZM162.1 11.3h-.9c-.2 1.4-2.4 1.4-2.7 0h-.9c0 2.8 4.5 2.9 4.5 0ZM40.8 15.5c-1 1.4-1.3 3.2-1.3 5.1s.6 4.2 2.2 5.6c1.2 1.2 3.2 1.3 4.7.5 6.5-3.4 1.2-18.5-5.5-11.2Zm5.6 8.5c-2.3 3.1-5 .2-5-3.4 0-3.5 2.5-7 5-3.7 1.2 2 1.2 5.1 0 7.1ZM94.3 14.2c-1-.4-2.9-.3-4.5-.3h-1.6v13.2h2V22c4.6.7 7.3-2 5.5-6.5-.4-.6-.8-1.1-1.4-1.3Zm-.5 5.1c-.5.6-1.7.5-2.7.5h-.9V16h1.1c.8 0 1.7 0 2.1.1 1 .6 1 2.4.3 3.2ZM98.1 15.5c-1 1.4-1.3 3.2-1.3 5.1 0 2 .5 4.2 2.1 5.6 1.2 1.2 3.2 1.3 4.7.5 6.5-3.4 1.2-18.5-5.5-11.2Zm5.6 8.5c-2.3 3.1-5.4-.5-5-3.4-.5-3 2.5-7 5-3.7 1.2 2 1.2 5.1 0 7.1ZM142.4 14.2c-1-.4-2.9-.3-4.5-.3h-1.6v13.2h2V22h.7c1.6 0 3.5 0 4.4-1.2 1-1.3 1.2-3.7.3-5.2-.4-.6-.8-1.1-1.4-1.3Zm-.5 5.1c-.5.6-1.8.5-2.7.5h-.9V16h1.1c.8 0 1.7 0 2.2.1 1 .6 1 2.4.3 3.2ZM147.8 14.1c-.6.3-1.2.8-1.6 1.4-1 1.4-1.3 3.2-1.3 5.1-.2 3.7 2.9 8.3 6.9 6.2 5.2-2.9 3.2-15.7-4-12.7Zm4 9.9c-2.3 3-5.4-.3-5-3.4-.5-3 2.5-7 5-3.7 1.2 2 1.2 5.1 0 7.1ZM172 20c-1-.9-2.5-.9-3.8-.9h-1.1v-3.2h4.9v-2.1h-6.8v13.1h.8c1.4 0 3.9 0 4.6-.1 2.8-.7 3.1-4.9 1.3-6.8Zm-4.2 5h-.6v-3.7h1.1c1.2 0 2.5-.1 2.8 1.2.5 2.6-1.4 2.5-3.2 2.5ZM180.5 20.3c-1-3.1-2-6.2-2-6.4h-1.8s-.6 1.9-1.2 4.1c-1.1 3.7-2.5 8.4-2.5 8.6v.4h2v-.2l1-3.5h3.5s1 3.5 1.1 3.5v.2h2.1v-.4c-.2-.1-1.1-3.2-2.1-6.4Zm-4 .9c0-.2.2-.6.3-1.1.3-1.1.8-2.6.9-3.1.2.7.9 3.4 1.2 4.1h-2.3Z"/>
	</g>
</svg>