<svg xmlns="http://www.w3.org/2000/svg" viewBox="0 0 200 27">
	<path fill="#A38959" d="M46.6448 21.7714 26.1319 1.36618 5.49793 21.7781H4.14521L26.1185 0l21.8992 21.7714h-1.3729ZM26.0521 3.09556l.3231.30958L45.0709 21.7779H43.799L26.0656 4.36079 8.40621 21.7779h-1.2585L25.7358 3.41187l.3163-.31631ZM52.3185 26.1326l-2.3353-2.3689H2.39586L0 26.1528l52.3185-.0202Zm-33.2458-4.4219v-.0134c-.2556-.5451-.3297-.8412-.3297-1.5681v-4.0245l.6461.0337c.3297.0223.8079.7036 1.1995 1.2616l.0001.0001c.08.1139.1564.2228.2271.3198l.1212-.0404-.3231-1.8104H15.701l-.3163 1.8104.1145.0404c.0511-.0713.1058-.1489.1631-.2302.4028-.5718.9353-1.3278 1.2771-1.3513l.646-.0337v4.0245c0 .7269-.0807 1.023-.3365 1.5681v.0134h1.8238Zm11.2456-3.3583-.2827 2.3689c-.3701.2827-1.8911.996-3.6207.996-3.0621 0-4.9397-2.2343-4.9397-5.0811s2.0862-5.0542 5.2291-5.0542c1.346 0 2.5978.3702 3.2708.6528l.2961 2.1671-.1615.0403c-1.0634-1.743-1.9719-2.4497-3.5265-2.4497-2.6583 0-3.8428 1.9854-3.8428 4.6437 0 2.6583 1.1575 4.6706 3.6879 4.6706 1.9316 0 2.9411-1.1576 3.7419-2.9948l.1481.0404Zm2.4228 3.3651c1.6923 0 2.4866-.7907 2.4901-1.8172v.0068-.0135.0067c-.0029-.865-.5566-1.5613-2.3554-1.5613h-.6731v-2.2478l1.1845.0606c.2625.0146.6479.461.9989.8676.1349.1563.2648.3068.3807.4246l.1212-.0404-.3096-1.5345h-3.8562v.0135c.2557.5451.3365.848.3365 1.5748v2.6718c0 .7336-.0808 1.0297-.3365 1.5748v.0135h2.0189Zm-.5384-3.1295h.4308c.8614 0 1.4066.3769 1.4066 1.3191 0 .7807-.3769 1.5479-1.4134 1.5479-.1144 0-.2557 0-.424-.0135V18.588Z"/>
	<path fill="#17375B" d="M168.372 5.95127c-.446.07592-.869.13058-1.272.1828-.407.05268-.795.10287-1.168.16989-1.096.19064-1.792.52427-2.221 1.3631-.334.66725-.544 1.58235-.667 2.88824h.075c.687-.99132 1.907-1.65857 3.433-1.65857 2.439 0 4.098 1.88737 4.098 4.62307 0 2.7357-1.458 4.9948-4.604 4.9948-2.83 0-4.642-2.0494-4.642-5.5572 0-4.66121 2.297-7.56853 7.836-8.67426.543-.11438.8-.31456.991-.60052h.172c-.096 1.38216-.582 2.08754-2.012 2.25912l-.019.00953Zm-5.424 7.38743c0 2.7739 1.049 4.6803 3.098 4.6803 1.811 0 3.06-1.6205 3.06-4.2132 0-2.5928-1.401-3.89867-3.26-3.89867-1.344 0-2.364.63867-2.831 1.34407-.038.5624-.057 1.1724-.057 2.0875h-.01Zm-97.714 4.8995V18.2c-.6101-.9532-.7435-1.4775-.7435-2.7643V5.08377l2.4212.07626c.5927.03293 1.4983 1.43094 2.25 2.5914.1187.18322.2335.36052.3427.52559l.2193-.07624-.7435-3.61268H58.4471l-.7435 3.61268.2193.07624c.0861-.13019.1762-.26798.2692-.41029.772-1.18096 1.7471-2.67267 2.3426-2.7067l2.4021-.07626V15.4357c0 1.2773-.1239 1.8111-.7435 2.7643v.0382h3.0407Zm5.6805 4.1939v.0382h2.364v-.0382c-.429-.8769-.4671-1.6967-.4671-3.0788v-1.4012c.572.3241 1.3345.5623 2.364.5623 3.2501 0 4.814-2.2591 4.814-5.052 0-2.7929-1.6014-4.68033-3.937-4.68033-1.3631 0-2.5261.62913-3.1933 1.62043l-.1334-.019V8.68678l-2.202 1.0104v.03812c.448.3718.8579.9437.8579 1.916v7.721c0 1.4012-.0763 2.1829-.4671 3.0598Zm7.5212-8.6647c0 2.6309-1.2872 4.2133-3.0792 4.2133-1.0485 0-2.0494-.5243-2.5546-1.7349v-5.2237c.4289-.61 1.344-1.24861 2.5546-1.24861 1.7539 0 3.0792 1.36311 3.0792 3.99391Zm5.072 4.7566c-1.3248 0-2.2403-.7244-2.2403-1.9255 0-2.2019 2.9839-3.2028 5.1664-3.4888v-1.487c0-1.1534-.4101-1.90641-1.9544-1.90641-.9912 0-1.9536.31461-2.6879.85781l-.171-.1906c.8006-.93412 2.0489-1.60137 3.5838-1.60137 2.1068 0 2.6496 1.17249 2.6496 2.49747v5.3665c0 .5243.2195.877.782.877.3905 0 .6866-.1906.9725-.5052l.1523.1335c-.2382.5623-.7624 1.3059-1.8115 1.3059-.9717 0-1.4388-.6387-1.4771-1.3632-.639.7436-1.6966 1.4204-2.9644 1.4204v.0095Zm-.8577-2.3163c0 .8197.5429 1.3821 1.5631 1.3821.953 0 1.7732-.467 2.2207-.9722v-3.0408c-1.8684.3146-3.7838 1.0962-3.7838 2.6309Zm10.3602-2.9263v-1.0962c0-1.4012.0195-2.1828.4484-3.07889v-.03812H91.123v.03812c.3718.89609.4671 1.65859.4671 3.05989v2.9835c0 1.4012-.0953 2.1828-.4671 3.0598v.0381h2.3356v-.0381c-.4289-.877-.4484-1.6776-.4484-3.0788v-1.325h4.4236v1.344c0 1.3441-.0766 2.1828-.4671 3.0598v.0381h2.3348v-.0381c-.4289-.877-.4476-1.6586-.4476-3.0788v-2.9455c0-1.4203.0187-2.1828.4476-3.07889v-.03812h-2.3348v.03812c.3905.89609.4671 1.71579.4671 3.05989v1.1152h-4.4236Zm15.7958 2.6884.21.1335c-.544 1.344-1.85 2.4211-3.747 2.4211-2.497 0-4.194-1.8301-4.194-4.6422 0-3.0979 2.316-5.09015 4.89-5.09015 1.268 0 2.106.35268 2.573.58147l.22 2.08758-.191.0572c-.705-1.1916-1.658-2.20195-2.945-2.20195-1.831 0-3.079 1.48705-3.079 3.95585s1.268 4.0321 3.412 4.0321c1.077 0 2.183-.4099 2.851-1.3249v-.0096Zm9.436.1335-.209-.1335v.0096c-.668.915-1.773 1.3249-2.85 1.3249-2.145 0-3.413-1.5633-3.413-4.0321s1.249-3.95585 3.079-3.95585c1.287 0 2.24 1.01035 2.946 2.20195l.19-.0572-.219-2.08758c-.467-.22879-1.306-.58147-2.574-.58147-2.574 0-4.89 1.99225-4.89 5.09015 0 2.8121 1.697 4.6422 4.194 4.6422 1.898 0 3.204-1.0771 3.746-2.4211Zm3.356-6.47269c-.562.03812-.972.54339-2.011 2.06849l-.172-.0572.467-2.57371h7.569l.467 2.57371-.172.0572c-1.049-1.5251-1.459-2.03037-2.011-2.06849l-1.363-.07624v5.57633c0 1.4012.019 2.2019.448 3.0789v.0381h-2.326v-.0381c.391-.877.467-1.6587.467-3.0599V9.55437l-1.363.07624Zm7.893 12.80149v.0382H131.855v-.0382c-.429-.8769-.468-1.6967-.468-3.0788v-1.4012c.572.3241 1.335.5623 2.365.5623 3.25 0 4.813-2.2591 4.813-5.052 0-2.7929-1.601-4.68033-3.937-4.68033-1.363 0-2.526.62913-3.193 1.62043l-.134-.019V8.68678l-2.202 1.0104v.03812c.449.3718.859.9437.859 1.916v7.721c0 1.4012-.077 2.1829-.467 3.0598Zm7.521-8.6647c0 2.6309-1.287 4.2133-3.08 4.2133-1.048 0-2.049-.5243-2.554-1.7349v-5.2237c.429-.61 1.344-1.24861 2.554-1.24861 1.755 0 3.08 1.36311 3.08 3.99391Zm7.882 4.7566c-2.669 0-4.871-2.2019-4.852-4.8709 0-2.65 2.221-4.87097 4.852-4.87097 2.631 0 4.87 2.22097 4.87 4.87097 0 2.6499-2.201 4.8709-4.87 4.8709Zm0-.5434c2.164 0 3.26-1.9731 3.26-4.3275 0-2.3545-1.116-4.32761-3.26-4.32761-2.145 0-3.241 1.99221-3.241 4.32761 0 2.3353 1.077 4.3275 3.241 4.3275Zm8.456-1.1725V12.185c0-1.4013.019-2.1829.448-3.07893v-.03811h-2.326v.03811c.372.89603.467 1.65863.467 3.05983v2.9836c0 1.4012-.095 2.1828-.467 3.0598v.0381h1.601l4.776-7.7401v4.6422c0 1.344-.076 2.1828-.467 3.0598v.0381h2.345v-.0381c-.448-.877-.467-1.6586-.467-3.0789V12.185c0-1.4203.019-2.1829.467-3.07893v-.03811h-1.621l-4.756 7.74014Zm3.642-11.82944c-.02 1.08667-.211 1.90643-1.326 1.90643-1.105 0-1.305-.82929-1.325-1.90643h-1.248c.057 1.30591.801 2.38304 2.573 2.38304 1.773 0 2.517-1.07713 2.593-2.38304h-1.267Zm14.936 11.61984c0 1.2011.915 1.9255 2.24 1.9255v-.0095c1.268 0 2.326-.6768 2.964-1.4204.039.7245.506 1.3632 1.478 1.3632 1.049 0 1.573-.7436 1.811-1.3059l-.152-.1335c-.286.3146-.581.5052-.973.5052-.562 0-.781-.3527-.781-.877v-5.3665c0-1.32498-.544-2.49747-2.65-2.49747-1.535 0-2.784.66725-3.584 1.60137l.172.1906c.733-.5432 1.696-.85781 2.688-.85781 1.544 0 1.954.75301 1.954 1.90641v1.487c-2.183.286-5.167 1.2869-5.167 3.4888Zm2.945.9913c-1.019 0-1.563-.5624-1.563-1.3821 0-1.5347 1.916-2.3163 3.785-2.6309v3.0408c-.448.5052-1.268.9722-2.222.9722Zm8.798-5.4046v1.0962h4.423v-1.1152c0-1.3441-.076-2.1638-.467-3.05989v-.03812h2.336v.03812c-.429.89609-.449 1.65859-.449 3.07889v2.9455c0 1.4202.02 2.2018.449 3.0788v.0381h-2.336v-.0381c.391-.877.467-1.7157.467-3.0598v-1.344h-4.423v1.325c0 1.4012.019 2.2018.449 3.0788v.0381h-2.336v-.0381c.372-.877.467-1.6586.467-3.0598v-2.9835c0-1.4013-.095-2.1638-.467-3.05989v-.03812h2.336v.03812c-.43.89609-.449 1.67769-.449 3.07889Zm10.324 2.9455v-2.9455c0-1.4012.019-2.1828.448-3.07889v-.03812h-2.326v.03812c.372.89609.467 1.65859.467 3.05989v2.9835c0 1.4012-.095 2.1828-.467 3.0598v.0381h2.326v-.0381c-.429-.877-.448-1.6776-.448-3.0788Zm3.823 3.1169H200v-.0381c-.696-.3717-1.125-.8388-1.773-1.7348l-2.688-3.6699 1.563-1.792c.839-.9342 1.363-1.45851 2.279-1.90649v-.03812h-2.479v.03812c.429.42892.286 1.09619-.257 1.71579l-2.335 2.6308 3.508 4.7947Z"/>
</svg>