<svg xmlns="http://www.w3.org/2000/svg" viewBox="0 0 180 23.8">
	<path fill="#000" d="M52.5 6.7c-1.5 0-2.8 1.3-2.8 2.8v2.4h-3.9V6.7h-.1c-1.5 0-2.8 1.3-2.8 2.8v9.4h.1c1.5 0 2.8-1.3 2.8-2.8v-2.3h3.9v5.1h2.9V6.7h-.1zm116 0c-1.5 0-2.8 1.3-2.8 2.8v2.4h-3.9V6.7h-.1c-1.5 0-2.8 1.3-2.8 2.8v9.4h.1c1.5 0 2.8-1.3 2.8-2.8v-2.3h3.9v5.1h2.9V6.7h-.1zM35.9 16.8c-1.8 0-3-2.9-3-6.3s1.2-5.8 3-5.8c1.7 0 3 2.4 3 5.8.1 3.8-1.1 6.3-3 6.3zm0-14.5c-3.4 0-5.6 2.9-5.9 7.2h-3.4v-7c-1.7 0-3 1.3-3 3V19c1.6 0 3-1.4 3-3v-4.3H30c.3 4 2.5 7.6 5.9 7.6 3.9 0 6-3.8 6-8.7.1-4.8-2.2-8.3-6-8.3zM63 6.7c-1 0-1.8.3-2.5 1.4l-3.8 6.6v-8h-2.9v12.2H55c.9 0 1.8-.3 2.5-1.4l4-6.9v5.5c0 1.5 1.3 2.8 2.8 2.8h.1V6.7H63zm58.7 0c-1 0-1.8.3-2.5 1.4l-3.8 6.6v-8h-2.9v12.2h1.2c.9 0 1.8-.3 2.5-1.4l4-6.9v5.5c0 1.5 1.3 2.8 2.8 2.8h.1V6.7h-1.4zM74.8 13c-.7-1.5-1.7-2.6-3.2-3.2l5.3-7.3h-3.3l-5.1 7.2V2.5h-.1c-1.7 0-2.9 1.2-2.9 2.9v13.5h.1c1.7 0 2.9-1.2 2.9-2.9v-5c1.5 0 2.6 1 3.2 2.3l2.2 5.6h3.3L74.8 13zm57.8-6.3h-8.8V9h3v9.9h.1c1.5 0 2.7-1.2 2.7-2.8v-7h3V6.7zm-30.3 10c1.3-1.4 2-4 2.3-6l.2-1.8h2.3l.7 7.8h-5.5zm8.2-.1l-1-9.9h-7l-.4 3c-.4 2.6-1 6-3.4 7.4l.2 5.1h.1c1.2 0 2.1-.9 2.1-2.1V19h8l.1 3.2h.2c1.2 0 2.1-.9 2.1-2.1l.1-3-1.1-.5zm67.6-1.6c-.6-1.3-1.4-2.3-2.6-2.7l4.3-5.6h-3.1l-4.2 5.5V6.7h-2.9v12.2h.1c1.5 0 2.8-1.3 2.8-2.8v-2.8c1.2 0 2.1.9 2.6 2l1.8 3.6h3.1l-1.9-3.9zm-35.9 1.9h-1.8v-5.8c.4-.1 1-.2 1.6-.2 2.1 0 3.3 1.3 3.3 2.8.1 1.7-1.1 3.2-3.1 3.2zm.1-8.2c-.7 0-1.5.1-1.9.2V5.1h3.9c1.4 0 2.5-1.1 2.5-2.5h-9.3V19h4.7c3.5 0 6.2-1.9 6.2-5.2 0-2.8-2.2-5.1-6.1-5.1zM91 12c0-2.2.8-3.3 2.4-3.4h.1c.8 0 2.3.3 2.4 2.7L91 12zm7.4.5c0-3.7-1.8-5.8-4.9-5.8-3.2 0-5.2 2.4-5.2 6.1 0 3.8 2.1 6.2 5.7 6.2 2 0 3.3-.5 4.1-.9v-2.4c-.7.5-1.8 1.2-3.8 1.2-1.8 0-2.8-1-3.1-3l7.3-1-.1-.4zm57.1 4.9c-.3.1-1 .1-1.6.1-1.6 0-2.5-.7-2.5-2.2 0-2 1.5-2.5 4.1-2.8v4.9zm-6.7-1.9c0 2.3 1.7 3.6 4.9 3.6h.6c1.1 0 3-.2 3.8-.3V11c0-3-2-4.3-4.5-4.3-1.9 0-3.3.5-4.1.9v1.9c1.3-.7 2.4-1.1 3.6-1.1 1.4 0 2.4.4 2.4 2v.8c-3.7.4-6.7 1.1-6.7 4.3zm-67.1 1.7c-.4 0-.7 0-1-.2V8.8c.4-.1.7-.2 1.2-.2 1.9 0 2.7 1.4 2.7 4.3 0 1.9-.5 4.3-2.9 4.3zM82 6.7c-1.7 0-3 .3-4.1.8h-.1v16.1h.2c1.5 0 2.7-1.2 2.7-2.7v-2.1c.4.1 1 .2 1.6.2 3.2 0 5.2-2.5 5.2-6.3 0-3.7-2.1-6-5.5-6z"/>
	<path fill="#e2001a" d="M10.6 5.2c.2-.3.1-.4 0-.5-.1-.1-1.6-1-1.6-1-.2-.1-.2-.2-.2-.3 0-.2.1-.4.5-.5 1-.3 4.6-.4 5.8-.4h1.8C15 .9 12.7 0 10.2 0 4.6 0 0 4.6 0 10.2c0 2.5.9 4.7 2.3 6.5 1.3-1.8 4.4-6.4 5.1-7.3.8-1.1 2.6-3.4 2.9-3.8.1-.1.3-.4.3-.4zM4 18.2c1.7 1.3 3.9 2.1 6.2 2.1 5.6 0 10.2-4.6 10.2-10.2 0-1.7-.4-3.3-1.2-4.7.3-.3.8-.9.5-1.5-.1-.2-.5-.7-.6-.8.2.7-.2 1.2-.6 1.5-.2.2-2.8 2.6-5.8 5.3C10 12.3 7 14.7 5.3 16c-2.4 1.8-2.9 2.1-2.9 2.1-.1 0-.2.1-.2.1-.1 0-.3-.1-.4-.2v.1c.3.4.7.9 1 .9.1 0 .2 0 .3-.1-.1 0 .1-.1.9-.7z"/>
	<path fill="#fefefe" d="M10.6 5.2c.2-.2.1-.4 0-.5-.1-.1-1.6-1-1.6-1-.2-.1-.2-.2-.2-.3 0-.2.1-.4.5-.5 1-.3 4.6-.4 5.8-.4h2.4c.8.1 1.5.2 1.6.6.3.8-.2 1.3-.6 1.6-.2.2-2.8 2.6-5.8 5.3-2.7 2.3-5.7 4.7-7.4 6-2.4 1.8-2.9 2.1-2.9 2.1-.1 0-.2.1-.3.1-.3 0-.4-.2-.4-.4 0-.1 0-.2.1-.3 0 0 4.8-6.9 5.7-8.1.9-1.2 3-3.9 3-3.9s-.1-.1.1-.3z"/>
</svg>