<svg xmlns="http://www.w3.org/2000/svg" viewBox="0 0 159 30">
	<g fill="#3B175C">
		<path d="M66.7452 10.5254c-2.0827 0-3.6406.7708-4.4113 2.0456h-.1666v-1.6539h-3.8074v17.5188h3.8074v-5.5535h.1666c.7664 1.2748 2.3286 2.0456 4.4113 2.0456 3.9075 0 7.0066-3.1914 7.0066-7.2034 0-4.0078-3.0991-7.1992-7.0066-7.1992Zm-.7705 10.9363c-2.1245 0-3.8074-1.654-3.8074-3.7371 0-2.104 1.6829-3.7371 3.8074-3.7371 2.187 0 3.849 1.6331 3.849 3.7371 0 2.1039-1.683 3.7371-3.849 3.7371ZM151.904 11.5531c-2.179 0-3.883.825-4.92 2.2582h-.171c.283-2.5914 1.75-3.84964 4.907-4.29955l5.528-.79996V5.20801l-5.894.83748c-5.444.75821-8.056 3.64117-8.056 8.83651 0 3.7578.241 4.9453.911 6.3659 1.055 2.279 3.667 3.6788 6.825 3.6788 4.252 0 7.534-3.0163 7.534-6.9659-.003-3.7996-2.716-6.4077-6.664-6.4077Zm-.913 9.8907c-2.165 0-3.765-1.479-3.765-3.483 0-2.0248 1.578-3.5038 3.765-3.5038 2.145 0 3.728 1.479 3.728 3.5038 0 2.004-1.603 3.483-3.728 3.483ZM54.368 6.80294l-4.2863 8.64076-5.8403-8.64076h-4.5529l8.477 12.50696-.2333.475c-.3666.7582-.8498 1.1664-1.9662 1.1664h-2.9992v3.5997h3.4241c2.6118 0 3.6657-.6625 4.7572-2.8413L58.642 6.79883h-4.274v.00411ZM95.7459 10.9316l-.6498 8.4658c-.0999 1.3249-.5457 1.8081-1.5996 1.8081h-.933v3.4455h2.2702c2.5535 0 3.6866-1.1665 3.8698-3.5996l.4999-6.5785h4.6826v10.0615h3.849V10.9316H95.7459ZM117.658 14.0269c1.558 0 2.795.8749 3.383 2.0456l3.403-1.2832c-.95-2.5872-3.645-4.262-6.865-4.262-4.316 0-7.573 3.1121-7.573 7.2033 0 4.0871 3.262 7.2035 7.573 7.2035 3.22 0 5.915-1.6749 6.865-4.2622l-3.403-1.2831c-.588 1.1666-1.825 2.0456-3.383 2.0456-2.166 0-3.728-1.5374-3.728-3.6995 0-2.1707 1.562-3.708 3.728-3.708ZM136.466 10.9121l-5.911 8.649v-8.649h-3.807v13.6235h4.211l5.874-8.5865v8.5865h3.807V10.9121h-4.174ZM86.8287 12.5661h-.1666c-.7666-1.2748-2.3286-2.0456-4.4115-2.0456-3.9073 0-7.0065 3.1914-7.0065 7.2034 0 4.0078 3.0992 7.2033 7.0065 7.2033 2.0829 0 3.6408-.7707 4.4115-2.0456h.1666v1.654h3.8073V10.9122h-3.8073v1.6539Zm-3.8032 8.8949c-2.1661 0-3.8491-1.6331-3.8491-3.7371 0-2.1039 1.6621-3.7371 3.8491-3.7371 2.1244 0 3.8074 1.6332 3.8074 3.7371-.0043 2.083-1.683 3.7371-3.8074 3.7371Z"/>
		<path d="M15.1721.0153666c.1939.0094563.3954.0224588.6058.0390075V2.93265c0 12.68215.4835 18.16445 2.3582 26.61845-2.3954.5993-4.9362.5993-7.3275-.0047 1.8872-8.5155 2.3742-13.9978 2.3742-26.61375V.0543741c.2523-.0200948.4905-.0342793.7186-.0425537C14.103.00354613 14.2956 0 14.483 0c.221 0 .4492.00472818.6891.0153666ZM28.9565 16.0734c0-4.9326-2.6867-9.26955-6.7234-11.74002l.0544 3.34873c2.3995 2.06267 3.9196 5.06269 3.9196 8.39129 0 .5544-.0431 1.0993-.1259 1.6324-.1442.9291-.4072 1.8216-.7695 2.6632-1.737-1.6501-2.9746-3.5911-3.7447-5.883-.9291-2.7743-1.146-5.81216-1.1791-9.52378l.0041-1.59576c-.25-.10756-.5035-.20804-.76-.3026-.5981-.21868-1.2116-.39953-1.8351-.53901l.0041 2.43265c.0875 12.8157 2.3079 18.0983 5.6112 22.0688 3.3783-2.5497 5.5443-6.5072 5.5443-10.9529ZM11.1597 4.95986l.0041-2.43265c-.4775.10757-.9492.23877-1.41193.39244-.40131.13239-.79611.28251-1.18323.44918l.00414 1.59576c-.03724 3.70807-.25 6.74951-1.17909 9.52371-.76597 2.292-2.0077 4.2294-3.74472 5.8831-.224-.5213-.41017-1.0615-.55379-1.6171-.22163-.8581-.34161-1.7553-.34161-2.6785 0-3.3334 1.51598-6.32866 3.91966-8.39133l.05438-3.34873C2.68679 6.80148 0 11.1384 0 16.0758c0 4.4457 2.17023 8.4032 5.54438 10.9528 3.3115-3.9657 5.52782-9.253 5.61532-22.06874Z"/>
	</g>
</svg>