<svg xmlns="http://www.w3.org/2000/svg" viewBox="0 0 150 37.3">
	<path fill="#003870" d="M0 1.3C0 1 .1.7.3.5.5.3.8.2 1.1.1H35c.1 0 .3 0 .4.1.1.1.3.1.4.3.2.1.2.2.3.3.1.1.1.3.1.4v33.9c0 .3-.1.6-.3.8-.2.2-.5.3-.8.4h-34c-.1 0-.3 0-.4-.1-.1-.1-.3-.1-.4-.3s-.2-.2-.2-.4c-.1 0-.1-.2-.1-.3V1.3zM70.1 11.7h-1.5-.1v3.5H64v-3.4-.1h-1.6c-.1 0-.1.1-.1.1V20c0 .1.1.1.2.1H64c.1 0 .1-.1.2-.1v-3.5h4.4V20c0 .1.1.1.2.1h1.5c.1 0 .1-.1.2-.1v-8.1c-.3-.1-.3-.2-.4-.2zM50 15.9c-.2-.2-.4-.4-.7-.5-.3-.1-.6-.2-.9-.1h-4.1v-1.7c0-.1 0-.3.1-.4.1-.1.3-.1.4-.1h4.3V11.9v-.1h-5.3c-.2 0-.3 0-.5.1s-.3.1-.4.3c-.1.1-.2.3-.3.4-.1.2-.1.3-.1.5v6c0 .3.1.6.3.8.1.1.3.2.4.3.2.1.3.1.5.1h4.7c.3 0 .6 0 .8-.1.3-.1.5-.2.7-.4.4-.6.6-1.2.5-1.9.1-.9 0-1.5-.4-2zm-1.6 2.7c-.1.1-.2.2-.4.2h-3.1c-.2 0-.4 0-.5-.1v-2H48.1c.1 0 .3.1.4.2.1.1.2.3.2.4 0 .1.1.3 0 .5 0 .2-.1.5-.3.8zM60.9 20l-3.2-7.4c-.1-.3-.3-.6-.6-.8-.3-.2-.6-.3-1-.2-.3 0-.7 0-1 .2-.3.2-.5.5-.6.8L51.4 20v.1H53s.1 0 .1-.1l.9-2.1h4.3l.9 2.1.1.1h1.4s.1 0 .2-.1c-.1.1-.1 0 0 0zm-6.4-3.4l1.3-3.3s.1-.3.2-.3.2.3.2.3l1.3 3.3h-3zM80 19.9l-4-3.4c-.2-.1-.5-.5-.5-.7 0-.3.2-.4.4-.6l3.6-3.3v-.1-.1l-.1-.1h-1.9l-3.4 3.1c-.1.1-.2.3-.3.4v-3.4-.1h-1.6c-.1 0-.1.1-.1.1v8.2c0 .1.1.1.1.1h1.6v-3.7c.1.2.3.4.4.5L78 20h2v-.1c.1.1.1 0 0 0zm61.2-18.2c0-.3-.1-.6-.2-.9-.1-.2-.3-.4-.5-.5-.2-.1-.5-.2-.7-.1-.3 0-.6.1-.9.3s-.5.4-.6.7l-3.5 5.5c0 .1-.1.1-.1.1V.2.1H133c-.1 0-.1.1-.1.2v6.9c0 .4 0 1.5 1.4 1.5.3 0 .6 0 .8-.2.3-.1.5-.4.6-.6l3.6-5.6c.1-.1.1-.3.2-.3s.1 0 .1.2v6.3c0 .1.1.1.1.1h1.6v-.1l-.1-6.8zM50 4.7c-.2-.2-.5-.4-.8-.4.3-.1.5-.2.6-.4.2-.2.3-.4.3-.7.1-.2.1-.5.1-.7.1-.7-.1-1.3-.6-1.8-.5-.4-1.1-.6-1.7-.5h-4.3c-.2 0-.4 0-.5.1-.2.1-.3.2-.5.3-.2.3-.3.6-.3.9v6c0 .3.1.6.3.9.1.1.3.2.5.3.2.1.4.1.6 0H48c.3 0 .6 0 .9-.1.3-.1.6-.3.8-.5.2-.3.4-.5.4-.8.1-.3.1-.6.1-1 .1-.3 0-.5 0-.8.1-.3 0-.6-.2-.8zm-5.7-1.1V1.9v-.2c0-.1 0-.1.1-.2l.1-.1h3c.3 0 .6 0 .8.2.2.2.3.6.3.9 0 .3 0 .6-.2.8-.1.1-.2.2-.4.2-.1 0-.3.1-.5 0l-3.2.1zM48.4 7c-.3.2-.6.3-.9.3h-2.6c-.1 0-.4 0-.4-.1-.1-.1-.1-.3-.1-.4V5h3.3c.5 0 .8.2.8.3.1.2.2.5.2.8 0 .4-.1.6-.3.9zm11.4-6c-1-.7-2.2-1.1-3.5-.9-1.2-.1-2.5.2-3.5.9-.4.5-.7 1-.9 1.6-.2.6-.2 1.2-.1 1.8-.1.6 0 1.2.1 1.8.2.6.5 1.1.9 1.6 1 .7 2.3 1 3.5.9 1 0 2.6 0 3.5-.9s1-2.7 1-3.4c.1-1.2-.1-2.6-1-3.4 0-.1 0 0 0 0zm-5.7 1.1c.6-.4 1.4-.7 2.2-.7.8 0 1.5.2 2.2.7.4.7.6 1.5.5 2.3.1.8-.1 1.6-.5 2.3-.3.3-.6.5-1 .6s-.8.2-1.2.1c-1 0-1.7-.1-2.2-.7-.4-.7-.6-1.5-.6-2.3 0-.8.1-1.6.6-2.3zM88.5.9c-1-.7-2.3-1-3.5-.9-1.2-.1-2.5.2-3.5.9-.4.5-.7 1-.9 1.6-.2.6-.2 1.2-.1 1.8-.1.6 0 1.2.1 1.8.2.6.5 1.1.9 1.6 1 .7 2.3 1 3.5.9 1 0 2.6 0 3.5-.9s1-2.7 1-3.4c0-1.1-.1-2.5-1-3.4zm-5.8 1.2c.6-.4 1.4-.7 2.2-.7s1.5.2 2.2.7c.4.7.6 1.5.5 2.3.1.8-.1 1.6-.5 2.3-.3.3-.6.5-1 .6-.4.1-.8.2-1.2.1-1 0-1.7-.1-2.2-.7-.4-.7-.6-1.5-.6-2.3 0-.8.2-1.6.6-2.3zm38.5 5.1h-4.6c-.2 0-.4 0-.5-.1L116 7V5h4.3V3.8v-.1H116V2v-.2c0-.1.1-.1.1-.2.1-.1.3-.1.4-.1H121.2V.3.2H115.5c-.2 0-.4 0-.6.1-.2.1-.4.2-.5.3-.2.3-.3.6-.3.9v5.9c0 .2 0 .4.1.5.1.2.2.3.3.5.3.2.6.3 1 .3H121.2V7.3c.1 0 0-.1 0-.1zm28.6 0h-4.6c-.2 0-.4 0-.5-.1l-.1-.1V5H149V3.8v-.1h-4.3V2v-.2c0-.1.1-.1.1-.2.1-.1.3-.1.4-.1H149.9V.3.2H144.2c-.2 0-.4 0-.6.1-.2.1-.4.2-.5.3-.2.3-.3.6-.3.9v5.9c0 .2 0 .4.1.5.1.2.2.3.3.5.3.2.6.3 1 .3H149.9V7.3l-.1-.1zM130.9.1h-1.5-.1v3.5h-4.4V.3.2h-1.6c-.1 0-.1.1-.1.2v8.2c0 .1.1.1.1.1h1.5c.1 0 .1-.1.1-.1V5h4.4v3.4c0 .1.1.1.1.1h1.5c.1 0 .1-.1.1-.1V.3c0-.1 0-.2-.1-.2zM78.4.6c-.5-.4-1.1-.6-1.8-.5h-4.2c-.2 0-.4 0-.5.1-.2.1-.3.2-.5.3-.1.1-.2.3-.3.5-.1.2-.1.4 0 .5v7c0 .1.1.1.1.1h1.6V5.7h4c.5 0 1-.1 1.4-.4.3-.3.5-.7.7-1.1.1-.4.2-.9.1-1.3.1-.8-.2-1.6-.6-2.3-.1 0 0 0 0 0zM76.9 4c-.1.1-.3.2-.5.3-.2.1-.4.1-.5 0h-3.1V1.9c0-.1 0-.3.1-.3.1-.1.2-.1.3-.1h2.7c.4 0 .7.1 1 .3.2.3.3.7.3 1.1v.6c0 .2-.1.3-.3.5zm25.4 4.4L98.8 5c-.2-.2-.4-.5-.4-.8 0-.2.2-.4.3-.6l3.1-3.3v.1c0-.1 0-.2-.1-.2h-1.9l-2.7 3.1c-.1.1-.2.3-.3.4V.3.2h-1.6c-.1 0-.1.1-.1.2v3.4c-.1-.1-.2-.3-.3-.4L92 .2h-1.9c-.1 0-.1.1-.1.2v.1l3.1 3.3c.2.2.3.3.3.6 0 .1-.1.3-.2.4s-.1.2-.2.3l-3.4 3.4v.2h2l3-3.1c.2-.2.3-.4.4-.6v3.6c0 .1.1.1.1.1h1.6V4.9c.1.2.2.4.4.6l3 3.1h2c.2-.1.2-.1.2-.2-.1 0 0 0 0 0zm10.6-1.2h-.7L109.7 1c-.1-.3-.3-.6-.6-.8-.3-.2-.6-.3-1-.2-.3 0-.7 0-1 .2-.3.2-.5.5-.6.8L104 7.2h-.7-.1V8.5H113.1V7.4l-.1-.1c0-.1 0-.1-.1-.1zm-5-5.5s.1-.3.2-.3.2.3.2.3l2.3 5.6h-4.9l2.2-5.6zM69 4.7c-.2-.2-.5-.4-.8-.4.3-.1.5-.2.6-.4.2-.2.3-.4.3-.7.1-.2.1-.5.1-.7.1-.7-.1-1.3-.6-1.8-.5-.4-1.1-.6-1.7-.5h-4.8-.1V1.5H66.2c.3 0 .6 0 .8.2.2.2.3.6.3.9 0 .3 0 .6-.2.8-.1.1-.2.2-.4.2-.1 0-.3.1-.5 0H63h-.1V4.9h3.5c.5 0 .8.2.8.3.1.2.2.5.2.8 0 .3-.1.6-.2.8-.3.2-.6.3-.9.3h-4.2-.1V8.4h5.1c.3 0 .6 0 .9-.1.3-.1.5-.3.8-.5.2-.3.4-.5.4-.8.1-.3.1-.6.1-1 .1-.3.1-.6 0-.8 0 0-.1-.2-.3-.5zM44.5 36.3h-1.9v-4.2h3.2v.7h-2.3v.9h1c1 0 1.6.5 1.6 1.3s-.7 1.3-1.6 1.3zm0-1.9h-.9v1.2h.9c.4 0 .7-.2.7-.6 0-.1 0-.2-.1-.3 0-.1-.1-.1-.2-.2s-.1-.1-.2-.1h-.2c-.1 0 0 0 0 0zm5.3 1.9l-.3-.8h-1.8l-.3.8h-1l1.8-4.2h.8l1.8 4.2h-1c-.1 0 0 0 0 0zm-1.2-3l-.6 1.6h1.2l-.6-1.6c0 .1 0 0 0 0zm5.3 3v-1.8h-1.7v1.8h-.9v-4.2h.9v1.7h1.6v-1.7h.9v4.2h-.8zm2.1 0v-4.2h.9v2l1.5-2h1.1L57.9 34l1.8 2.2h-1.2L56.8 34v2.2l-.8.1zm4.2 1v-1.8h1v1.2l-1 .6zm3.5-1v-4.2h.9v2l1.5-2h1.1L65.7 34l1.8 2.2h-1.1L64.7 34v2.2l-1 .1c0-.1 0 0 0 0zm7.6-1.9c0 .3 0 .5-.1.8-.1.3-.2.5-.4.7-.4.3-.8.4-1.3.4s-.9-.2-1.3-.4c-.2-.2-.3-.4-.4-.7-.1-.3-.1-.5-.1-.8V34c0-.8.1-1.2.5-1.5.4-.3.8-.4 1.3-.4s.9.2 1.3.4c.2.2.3.4.4.6.1.2.1.5.1.8v.5zM70.1 33c-.2-.1-.4-.2-.6-.2-.2 0-.4.1-.6.2-.2.2-.2.6-.2 1.1v.2c0 .5 0 .8.2 1 .2.1.4.2.6.2.2 0 .4-.1.6-.2.2-.2.2-.4.2-1.2s0-.9-.2-1.1zm3.8-.2v3.5H73v-3.5h-1.3v-.7h3.4v.7h-1.2zm5.3 1.6c0 .3 0 .5-.1.8-.1.3-.2.5-.4.7-.4.3-.8.4-1.3.4s-.9-.2-1.3-.4c-.2-.2-.3-.4-.4-.7-.1-.3-.1-.5-.1-.8V34c0-.8.1-1.2.5-1.5.4-.3.8-.4 1.3-.4s.9.2 1.3.4c.2.2.3.4.4.6.1.2.1.5.1.8v.5zM78.1 33c-.2-.1-.4-.2-.6-.2s-.5.1-.6.2c-.2.2-.2.6-.2 1.1v.2c0 .5 0 .8.2 1 .2.1.4.2.6.2s.4-.1.6-.2c.2-.2.2-.4.2-1.2s-.1-.9-.2-1.1zm4-.9c.9 0 1.6.5 1.6 1.3s-.6 1.3-1.6 1.3h-.9v1.6h-.9v-4.2h1.8zM82 34c.4 0 .7-.2.7-.6s-.3-.6-.7-.6h-.9V34h.9zm4.4 2.4h-1.9v-4.2h.9v1.6h.9c.9 0 1.6.5 1.6 1.3 0 .4-.2.7-.5 1s-.7.3-1 .3c-.1-.1 0 0 0 0zm-.1-2h-.9v1.2h.9c.4 0 .7-.2.7-.6 0-.1 0-.2-.1-.3 0-.1-.1-.2-.2-.2-.1-.1-.1-.1-.2-.1h-.2zm2.1 2v-4.2h.9v4.2h-.9zm4.8 0v-2.7l-1.9 2.7h-.8v-4.2h.9v2.7l1.9-2.7h.8v4.2h-.9zm-.9-4.5c-.5 0-1-.2-1.1-.8h.7v.2c0 .1.1.1.1.1l.1.1h.2c.1 0 .2 0 .3-.1.1-.1.1-.2.2-.3h.7c-.1.3-.2.5-.4.6-.3.2-.5.2-.8.2zm7.7 2.5c.1.1.2.2.2.3.1.1.1.3.1.4 0 .8-.6 1.2-1.5 1.2h-2v-4.2h1.9c.9 0 1.5.5 1.5 1.2 0 .2 0 .4-.2.5s-.3.3-.4.4c.2 0 .3.1.4.2zm-1.3-.6c.4 0 .6-.2.6-.5s-.2-.5-.6-.5h-.9v1h.9zm0 1.8c.4 0 .6-.2.6-.5s-.2-.5-.6-.5h-1v1h1zm4.2.7c-.5 0-.9-.1-1.3-.5-.5-.4-.5-.9-.5-1.7-.1-.3 0-.6 0-.9.1-.3.2-.6.4-.8.4-.3.8-.5 1.3-.5.4 0 .8.1 1.1.3.3.2.5.6.6 1h-.9c0-.1-.1-.3-.2-.4-.1-.1-.2-.2-.4-.2h-.4c-.1 0-.3.1-.4.2-.2.2-.2.4-.2 1.2s0 1 .2 1.2c.1.1.2.2.4.2h.4c.1 0 .3-.1.4-.2.1-.1.2-.2.2-.4h.9c-.1.4-.3.7-.6 1s-.6.6-1 .5zm2.5 0v-4.2h3.2v.7h-2.2v1h1.9v.7h-1.9v1h2.2v.7l-3.2.1zm5-3.5v3.5h-.9v-4.2h3v.7h-2.1zm5.7 4.4v-.9h-2.7v.9h-.9v-1.7h.4c.4-.7.6-1.6.6-2.4V32h2.9v3.5h.6v1.7h-.9zm-.6-4.4h-1v.6c0 .7-.1 1.5-.4 2.1h1.5l-.1-2.7c.1 0 0 0 0 0zm5 3.5l-.3-.8h-1.7l-.3.8h-1l1.8-4.2h.8l1.8 4.2h-1.1zm-1.1-3l-.6 1.5h1.2l-.6-1.5zm5.9 3c-.5 0-.9-.1-1.3-.5-.5-.4-.5-.9-.5-1.7-.1-.3 0-.6 0-.9.1-.3.2-.6.4-.8.4-.3.8-.5 1.3-.5.4 0 .8.1 1.1.3.3.2.5.6.6 1h-.9c0-.1-.1-.3-.2-.4-.1-.1-.2-.2-.4-.2h-.4c-.1 0-.3.1-.4.2-.2.2-.2.4-.2 1.2s0 1 .2 1.2c.1.1.2.2.4.2h.4c.1 0 .3-.1.4-.2.1-.1.2-.2.2-.4h.9c-.1.4-.3.8-.6 1-.2.5-.6.6-1 .5zm6-3.5v3.5h-.9v-3.4h-1.3v-.7h3.4v.7l-1.2-.1zm5.3 1.6c0 .3 0 .5-.1.8-.1.3-.2.5-.4.7-.4.3-.8.4-1.3.4s-.9-.2-1.3-.4c-.2-.2-.3-.4-.4-.7-.1-.3-.1-.5-.1-.8V34c0-.8.1-1.2.5-1.5.4-.3.8-.4 1.3-.4s.9.2 1.3.4c.2.2.3.4.4.6.1.2.1.5.1.8v.5zm-1.2-1.4c-.2-.1-.4-.2-.6-.2-.2 0-.4.1-.6.2-.2.2-.2.6-.2 1.1v.2c0 .5 0 .8.2 1 .2.1.4.2.6.2.2 0 .4-.1.6-.2.2-.2.2-.4.2-1.2s0-.9-.2-1.1zm4 3.3h-1.9v-4.2h3.2v.7h-2.3v.9h1c1 0 1.6.5 1.6 1.3s-.6 1.3-1.6 1.3zm0-1.9h-.9v1.2h.9c.4 0 .7-.2.7-.6 0-.1 0-.2-.1-.2 0-.1-.1-.1-.1-.2-.1-.1-.1-.1-.2-.1-.1-.1-.2-.1-.3-.1zm5.9 0c0 .3 0 .5-.1.8-.1.3-.2.5-.4.7-.4.3-.8.4-1.3.4s-.9-.2-1.3-.4c-.2-.2-.3-.4-.4-.7-.1-.3-.1-.5-.1-.8V34c0-.8.1-1.2.5-1.5.4-.3.8-.4 1.3-.4s.9.2 1.3.4c.2.2.3.4.4.6.1.2.1.5.1.8v.5zm-1.1-1.4c-.2-.1-.4-.2-.6-.2-.2 0-.4.1-.6.2-.2.2-.2.6-.2 1.1v.2c0 .5 0 .8.2 1 .2.1.4.2.6.2.2 0 .4-.1.6-.2.2-.2.2-.4.2-1.2s0-.9-.2-1.1zm4.8 3.3v-2.7l-1.9 2.7h-.8v-4.2h.9v2.7l1.9-2.7h.9v4.2h-1zm-.9-4.4c-.5 0-1-.2-1.1-.8h.7v.2c0 .1.1.1.1.1l.1.1h.2c.1 0 .2 0 .3-.1.1-.1.1-.2.1-.3h.7c0 .6-.5.8-1.1.8z"/>
	<path fill="#fff" d="M15.5 7.2c.1 0 .2-.1.1-.2l-.2-.6c0-.1-.1-.1-.1-.1-.1 0-.1-.1-.2-.1H5.5c-.1 0-.2.1-.1.2l.2.6c0 .1.1.1.1.1.1 0 .1.1.2.1h9.6zm.7 1.1c0-.1-.1-.1-.1-.1-.1 0-.1-.1-.2-.1H6.4c-.1 0-.2.1-.1.2l.3.6c0 .1.1.1.1.1h9.7c.1 0 .2-.1.1-.2l-.3-.5zm.9 1.9c0-.1-.1-.1-.1-.1 0-.1-.1-.1-.2-.1H7.2c-.1 0-.2 0-.1.2l.3.6c0 .1.1.1.1.1.1 0 .1.1.2.1h9.6c.1 0 .2-.1.1-.2l-.3-.6zM18 12c0-.1-.1-.1-.1-.1-.1 0-.1-.1-.2-.1H8.1c-.1 0-.1.1-.1.2l.3.6c0 .1.1.1.1.1.1 0 .1.1.2.1h9.6c.1 0 .2-.1.1-.2L18 12zm.9 1.9c0-.1-.1-.1-.1-.1-.1 0-.1-.1-.2-.1H9c-.1 0-.2.1-.1.2l.3.6c0 .1.1.1.1.1.1 0 .1.1.2.1H19c.1 0 .2-.1.1-.2 0-.1-.2-.6-.2-.6zm.9 1.8c0-.1-.1-.1-.1-.1-.1 0-.1-.1-.2-.1H9.9c-.1 0-.2.1-.1.2l.3.6c0 .1.1.1.1.1.1 0 .1.1.2.1H20c.1 0 .2-.1.1-.2-.1 0-.3-.6-.3-.6zm.9 1.9c0-.1-.1-.1-.1-.1-.1 0-.1-.1-.2-.1h-9.6c-.1 0-.2.1-.1.2l.3.6c0 .1.1.1.1.1.1 0 .1.1.2.1h9.6c.1 0 .2-.1.1-.2l-.3-.6zM17.9 5.3c.1 0 .1 0 .2-.1 0 0 .1-.1.1-.2v-.4c0-.1 0-.1-.1-.2 0 0-.1-.1-.2-.1H3.1l-.2.2s-.1.1-.1.2v.5c0 .1 0 .1.1.2s.1-.1.2-.1h14.8zm-6.3 14c-.1 0-.2.1-.1.2l6 12.5v.1h.2V32l5.5-11.6c0-.1.1-.1.1-.1.1 0 .1-.1.2-.1h8.9c.1 0 .1 0 .2-.1 0 0 .1-.1.1-.2v-.5c0-.1 0-.1-.1-.2 0 0-.1-.1-.2-.1 0 .1-20.8.2-20.8.2zM32.5 4.4h-7.6c-.1 0-.1 0-.2.1 0 0-.1.1-.1.2v.5c0 .1 0 .1.1.2s.1.1.2.1H26c.3 0 1.9 0 1.3 1.9l-5.1 10.9c0 .1 0 .2.1.2H24c.1 0 .1 0 .2-.1.1 0 .1-.1.1-.1l5.5-11.5c.2-.4.5-.8.9-1 .4-.2.9-.3 1.4-.3h.3c.1 0 .1 0 .2-.1 0 0 .1-.1.1-.2v-.6-.1-.1h-.2c.1 0 0 0 0 0z"/>
	<path fill="#ed1b34" d="M30.4 18.3c.5 0 .9-.2 1.3-.4.4-.3.7-.6.8-1.1.2-.4.2-.9.1-1.3s-.3-.9-.7-1.2c-.3-.3-.7-.5-1.2-.6-.4-.1-.9 0-1.3.1-.4.2-.8.5-1 .9-.3.4-.4.9-.4 1.3 0 .6.3 1.2.7 1.6.5.5 1.1.7 1.7.7z"/>
</svg>