<svg xmlns="http://www.w3.org/2000/svg" viewBox="0 0 72 40">
	<path fill="#004691" d="M41.4518 23.5693H4.25342l2.40941-3.3601-5.974353 5.1713H71.4465l-10.1949-8.9821H39.2637l2.1881 7.1709Z"/>
	<path fill="#004691" d="M10.2685 27.7563h.4344l.0164.7779-2.80273 2.9099v-3.6878h.47539v-.4594H6.06443v.4594h.43437v5.3269h-.43437v.4754h2.32753v-.4754h-.47539v-.7955l2.80273-2.926-.0164 3.7215h-.4344v.4754h2.3111v-.4754h-.4507v-5.3269h.4507v-.4594h-2.3111v.4594Zm-5.66266 3.0892c-.33233-.2929-.7539-.4658-1.19668-.4914v-.0896c.07783-.0128.15467-.0321.2295-.0577l.24589-.0896c.2345-.1136.44578-.2689.62285-.4594.11285-.1376.19348-.2977.2383-.4674.0142-.0528.02461-.1072.03161-.1632.0078-.0625.01081-.1249.0088-.1889v-.2465c0-.048 0-.0896-.0096-.1329-.0086-.0384-.02501-.0784-.05602-.12-.12045-.2817-.32713-.517-.59004-.6723-.43537-.2401-.93057-.3473-1.42597-.3121H0v.4594h.434374v5.3189H0v.4754h3.37655c.19708-.0144.39216-.0512.58183-.1072.30953-.0753.59264-.2353.81953-.4578.12725-.1409.22189-.3089.27711-.4898.05522-.1809.06983-.373.04242-.5602.01561-.2161-.02101-.4338-.10644-.6339-.08564-.1985-.21769-.3745-.38516-.5138Zm-2.77831-3.0812h.21309c.08183-.008.16406-.008.24589 0l.27852.0496c.20268.0528.38695.16.53281.3121.09864.1089.17167.2401.21408.381.04262.1424.05343.2913.03182.4385.008.1505-.01621.3026-.07143.4434-.05502.1409-.13966.2689-.2483.3762-.22249.2048-.51701.3137-.81953.3025h-.39336l.01641-2.3033Zm1.27471 5.1252c-.08703.0576-.18227.1041-.28311.1361-.09584.0416-.19888.064-.30312.0656l-.12745.0048-.12666-.0048h-.43437V30.527h.54902c.30052.0384.58423.1616.81953.3521.13425.1169.23849.2641.30412.429.06543.1664.09064.3441.07303.5218.02621.2961-.05862.5906-.2377.8275v.024c-.06782.0801-.14645.1505-.23329.2081Zm32.48156-5.1332v-.4354h4.5731v.8195h-.4426v-.3841h-2.2619v5.3269h.4754v.4834h-2.3194v-.4834h.4508v-5.3269h-.4754Zm18.0296-.4594h-.5982l-2.7373 5.7863h-.3851v.4754h1.4423v-.4754h-.4015l.5326-1.2133h2.7619l.5818 1.2133h-.3933v.4754h2.3275v-.4754h-.369l-2.7617-5.7863Zm.3606 4.0976h-2.2373l1.1064-2.4009 1.1309 2.4009Zm10.2525-3.6382h-.4344v5.3269h.4508l-.0164.4754h-2.3111v-.4754h.4507l-.0164-2.5162h-3.0158l-.0082 2.5162h.459v.4754h-2.3275v-.4754h.4344v-5.3269h-.4344v-.4594h2.3275v.4594h-.459l.0082 2.3353h3.0158l.0164-2.3353h-.4507v-.4594h2.3111v.4594Zm4.5156 1.7126 1.6308-1.7126h.7293v-.4594h-2.3111v.4594h.8033l-2.3357 2.4409.0082-2.4409h.459v-.4594h-2.3193v.4594h.4343v5.3269h-.4343v.4754h2.3193v-.4754h-.459l-.0082-2.0744.6885-.7123 1.3029 2.7867h-.459v.4754h2.3193v-.4754h-.4425l-1.9258-3.6143Zm-43.6647-1.7126h-.4505v-.4594h2.3273v.4594h-.4508v5.3269h.4508v.4754h-2.3273v-.4754h.4505v-3.7215l-2.7863 2.926v.7955h.459v.4754H20.439v-.4754h.4343v-5.3269h-.4343v-.4594h2.3111v.4594h-.459v3.6878l2.7863-2.9099v-.7779Zm-8.1704 1.7126 1.6554-1.7126h.7211v-.4594h-2.3111v.4594h.8115l-2.3521 2.4409.0082-2.4409h.459v-.4594h-2.3112v.4594h.4344v5.3269h-.4344v.4754h2.3112v-.4754h-.459l-.0082-2.0744.6967-.7123 1.3029 2.7867h-.459v.4754h2.3111v-.4754h-.4426l-1.9339-3.6143Zm31.9531.778c.311.2433.5305.5842.6229.9667.0292.0833.051.1681.0656.2545v.2289c0 .0913.0164.1889 0 .2882-.0164.0976-.0656.2048-.0656.3025-.1233.3569-.3517.669-.6557.8931-.4848.317-1.0622.461-1.639.4098H44.402v-.4834h.4507v-5.3509h-.4507v-.4514h4.704v.8195h-.4753v-.3601h-2.352v2.0488h.8688c.2585-.024.5172-.0096.7681.04.3353.0672.6566.2001.9445.3938Zm-1.9914 2.8443c.293.0208.5839-.0624.8196-.2385.1885-.1633.2787-.549.3031-1.1797.0344-.3601-.0458-.7219-.2293-1.0324l-.0468-.0592-.0634-.0656c-.1115-.1041-.2481-.1809-.398-.2193h-.9506v2.7947h.5654Zm-12.637-5.3349h.4508v-.4594h-2.3112v.4594h.4344v2.3353h-3.0322v-2.3353h.4508v-.4594h-2.3111v.4594h.4343v5.3269h-.4343v.4754h2.3111v-.4754h-.4508V30.567h3.0322v2.5162h-.4344v.4754h2.3112v-.4754h-.4508v-5.3269Zm10.7467 11.4205c.0666-.1536.099-.3201.0956-.4882-.0014-.1776-.046-.3521-.1304-.5074l-.0172-.0288c-.0146-.0256-.03-.0512-.0466-.0736l-.0549-.072c-.067-.0817-.146-.1521-.2345-.2113-.0836-.0608-.1702-.1169-.2597-.1681l-.1032-.0576c-.0634-.0336-.1281-.064-.1939-.0913l-.1643-.0624-.0828-.0288-.0892-.0272-.3197-.0976c-.0897-.0256-.1781-.0561-.265-.0897-.088-.0352-.1746-.0736-.2595-.1152-.082-.0448-.1502-.1121-.1978-.1921-.0477-.0816-.0727-.1729-.0727-.2673-.0054-.0816.0088-.1649.0416-.2401.0131-.0304.0291-.0592.0477-.0864.0276-.0401.061-.0769.0992-.1073.1405-.1088.3147-.1632.4918-.1552.3027.0112.592.1264.8195.3265.2179.1905.4058.4114.5573.6563l.2048-.0657-.3523-1.1636c-.0338.0304-.0702.0592-.1086.0848-.0309.0208-.0631.0384-.0963.0544-.0678.0384-.1436.0608-.2213.0656H43.8365c-.0372-.0176-.0754-.0336-.1142-.0464-.0588-.0192-.1193-.0336-.1809-.0432h-.2949c-.3033.0016-.5952.1153-.8195.3185-.1131.1041-.2023.2305-.2617.373-.0595.1408-.0877.2945-.0827.4466-.0064.2657.0841.525.2541.7299.1803.176.3914.3185.6229.4177.2375.1057.4812.1953.7295.2705.1814.0464.3553.1185.5162.2129.0362.024.0696.0512.0992.0816l.033.0369c.02.024.0378.0496.0533.0784.0442.0816.0678.1713.0686.2625.0026.0976-.0184.1937-.0612.2801-.0429.088-.1063.1633-.1847.2193l-.0594.048-.0547.0352c-.032.0192-.0652.0352-.0994.0497l-.0342.0144c-.0446.016-.0907.0272-.1377.0368-.0274.0048-.0552.0096-.0832.0112l-.0804.0016-.0969-.0064-.0918-.0128c-.1121-.0208-.2209-.0545-.3237-.1009-.0369-.016-.0729-.0352-.1081-.056-.0458-.0256-.0902-.056-.1328-.088-.0401-.0304-.0787-.0625-.1155-.0961-.2407-.2177-.4478-.469-.6146-.7459l-.2049.0657.3441 1.2373c.1095-.0545.2215-.1041.3362-.1473.0262-.0048.0528-.0064.0794-.0048l.0598.0048h.2787c.1145.04.2323.0704.3524.0896h.3277c.3459.0032.6801-.1264.9344-.3601.0586-.0528.1114-.1121.1578-.1761.0523-.0704.0965-.1472.1317-.2289Zm1.7593.6579h-1.4506v-.1633c.042.0064.0846.0032.1257-.008.0408-.0112.0788-.0304.112-.0576.0818-.0576.1065-.1889.1065-.3762v-1.09c.0086-.1184-.0141-.2385-.0657-.3441-.0356-.0496-.0822-.0913-.1362-.1201-.0541-.0272-.1141-.0432-.1751-.0448v-.1633l1.1555-.3361v2.1881c-.006.0512-.0002.104.0168.1536.017.0497.0448.0961.0816.1329.0668.048.1477.0704.2295.0656v.1633Zm-.3033-3.5726c0 .12-.0474.2337-.1321.3185-.0844.0848-.1991.1328-.3187.1328l-.0498-.0032-.0617-.0096-.0322-.0096-.0296-.0112c-.036-.0144-.0696-.0336-.1002-.0576l-.046-.04c-.0326-.0368-.0593-.0768-.0793-.1201-.0288-.0624-.0442-.1296-.0442-.2 0-.1185.044-.2321.1235-.3202.0414-.0416.0912-.0752.1462-.0976.055-.0224.1141-.0336.1733-.032.0302-.0032.0604-.0016.09.0032.029.0048.0577.0128.0851.024.0554.024.1048.0576.1446.1024.0218.0208.0412.0449.058.0689.0167.024.0309.0496.0421.0768.0226.056.0332.1152.031.1745Zm2.1716 3.5742h1.4424v-.1729c-.081 0-.1606-.0224-.2293-.0656-.0404-.0368-.0716-.0832-.0916-.1345-.0096-.0256-.0166-.0512-.0206-.0784-.004-.0272-.005-.0544-.0026-.0816v-1.3526c.0004-.0448-.0032-.0896-.0108-.1344-.0052-.0304-.0122-.0608-.021-.0897-.0334-.112-.0923-.2144-.1731-.3009-.0704-.08-.1575-.144-.2551-.1872-.0974-.0449-.2035-.0673-.3103-.0657-.1739.0064-.3432.056-.4918.1473-.0901.0576-.2295.1472-.4344.2945v-.4834l-1.1555.3361v.1633l.0503.0048.0592.0144c.0224.0064.0442.016.0652.0272.0224.0128.0438.0256.0636.0416.0274.0225.0521.0481.0731.0769.0464.1088.0688.2257.0656.3441v1.09l.0048.0673c.0002.024-.0018.0512-.0058.0752l-.0124.0576c-.0182.0641-.05.1249-.0931.1761-.0702.0544-.1584.0768-.2458.0656v.1649h1.4751v-.1649c-.0818.0064-.163-.0176-.2295-.0656-.0378-.0368-.0668-.0816-.0852-.1313-.0184-.0496-.0256-.1024-.0214-.1552v-1.3926c.0612-.0784.1363-.1456.2213-.1969.0808-.0592.1785-.0912.2787-.0912.0634-.0048.1273.0064.1849.0336.0576.0288.1068.0705.1428.1233.0833.1664.1199.3537.1067.541v.8931c0 .1873-.0246.3186-.1067.3762-.033.0272-.0712.0464-.112.0576-.0408.0112-.0836.0144-.1257.008v.1649Zm4.2535-.6723c-.0438.0689-.0928.1345-.1464.1953l-.049.0528-.0332.0336-.0635.0577-.0894.0736c-.0582.0448-.1197.0848-.1839.12-.1358.0785-.2833.1345-.436.1665-.0988.0208-.1998.0304-.3015.0304-.1656.0016-.3301-.0304-.4824-.096-.1524-.064-.2897-.1601-.4027-.2817-.1163-.1185-.2075-.2593-.2681-.4146-.0303-.0768-.0525-.1569-.0667-.2385-.0124-.072-.0186-.1457-.0182-.2193l.0006-.0288c-.0036-.1905.0316-.3793.1035-.5554.072-.1761.1788-.3362.3145-.469.2167-.2001.486-.3345.7765-.3874.1843-.032.372-.032.5544 0 .1051.0192.2083.0497.3082.0913.1016.0352.1908.0976.2565.1824.0216.0289.0404.0577.0562.0881.0158.032.0286.0656.038.0992l.0142.0672.0038.0385c-.0014.0544-.0136.1072-.0354.1552-.0194.0432-.046.0817-.0794.1153-.0789.064-.1771.0992-.2786.0992-.0544.0048-.109-.0032-.159-.0256-.05-.0208-.0941-.0544-.1279-.0976l-.0514-.1393-.0386-.1312c-.0082-.0993-.0484-.1953-.1149-.2706-.0176-.0192-.0376-.0368-.0594-.0512l-.0484-.024c-.041-.0176-.0854-.0256-.1299-.0224-.0988.0016-.1942.0368-.2713.0992-.0386.0321-.0716.0689-.0978.1105l-.016.0288-.0218.0448-.0192.0608c-.0234.0673-.0426.1361-.0576.2065-.0267.1249-.0403.2497-.0407.3746-.012.2833.0443.5634.1639.8195.0246.0592.057.1153.096.1649.0463.0592.1021.1104.1655.152.1169.0785.2541.1185.3942.1185.1622-.0016.3189-.0592.4425-.1649.1287-.0992.2443-.2145.3442-.3441l.1556.1152Zm2.2619.5907c.2139-.1089.4014-.2625.5493-.4514l-.1313-.1137c-.0636.0705-.135.1345-.2125.1905l-.0738.0496-.066.0384c-.1321.0753-.2819.1153-.4344.1153-.1313.0032-.2617-.024-.3802-.0816-.1182-.0577-.2212-.1425-.3001-.2465-.1622-.1985-.2493-.4482-.2457-.7059h1.8194c.0134-.3538-.1099-.6995-.3444-.9668-.1104-.1265-.2481-.2273-.4027-.2945-.1545-.0657-.3222-.0977-.4904-.0897-.1909-.008-.381.0304-.5547.1105-.0664.0304-.1296.0672-.189.1088-.0479.032-.0933.0689-.1359.1089-.043.04-.0832.0832-.1202.1296-.1265.1505-.2203.3249-.2779.5106-.0457.1473-.0685.3009-.0665.4562-.009.1777.0234.3537.0945.517.0254.0576.0554.1137.0896.1649.0308.0464.065.0912.1022.1328.0381.0432.0793.0833.1235.1201.0814.0704.1699.1312.2635.1809.1078.056.2229.0992.3417.1264.1177.0272.2393.04.362.0368.143.0032.2851-.0144.4223-.0512l.1235-.0384.0672-.0272.067-.0304Zm-.2703-2.0985c.0809.2033.1173.421.1065.6403h-1.1309c-.0062-.2001.039-.397.1311-.5747.0392-.0928.1054-.1728.1901-.2272.0846-.0561.184-.0849.2853-.0833.0306-.0032.0612-.0032.0912 0 .055.008.1085.0272.1571.056.0396.0225.0746.0513.1042.0865.0266.0304.0486.0656.0654.1024Zm5.6711 2.1801h-2.3357v-.1649c.2127.0256.4279-.0176.6146-.1216.054-.0785.0969-.1617.1279-.2497.0542-.1521.0728-.3169.0524-.4802v-1.5574l.0012-.0641c-.002-.0736-.015-.1472-.0388-.2161-.031-.0896-.0795-.1728-.1427-.2448-.0838-.0721-.1815-.1265-.2871-.1601-.1056-.0352-.2171-.0464-.3275-.0368v-.1633c.572-.056 1.1282-.2193 1.639-.4834v3.1053c-.008.064-.0088.128-.0026.1904.0118.1201.0486.2369.1091.3426.2017.1216.4387.1712.672.1392l-.0818.1649Zm3.3519-.5986c.3508-.4242.5395-.9588.5327-1.5079-.013-.4513-.1711-.8851-.4508-1.2388-.0694-.0849-.1479-.1617-.2335-.2289-.0924-.0737-.1933-.1361-.3009-.1857-.2071-.0961-.4336-.1457-.6621-.1425-.2147-.0048-.4266.032-.6242.1073l-.0859.0352c-.0416.0176-.0824.0384-.1224.0608-.0937.0512-.1827.1121-.2655.1825-.1465.1248-.2629.2817-.341.4562-.078.176-.1154.3681-.1098.5602-.0088.2977.09.589.2785.8195.0708.0785.1533.1441.2441.1953.041.024.0838.0448.128.0624.1419.0576.295.0817.4474.0705.2199-.0017.4362-.0545.6311-.1569.0872-.0416.1706-.0896.2497-.1441.0572-.0384.112-.08.1644-.1248.0473-.0416.0923-.0865.1351-.1329.036.4962-.0572.994-.2705 1.4438-.0218.0384-.0474.0736-.0764.1072-.0445.0497-.0967.0929-.1551.1265-.0964.056-.2061.0848-.3175.0848-.0328-.0016-.0649-.008-.0951-.0192-.0198-.008-.0388-.0176-.0566-.0288l-.027-.0192c-.0276-.0224-.0506-.0496-.0682-.08-.0144-.0256-.0252-.0528-.0318-.0817-.1311-.3201-.287-.4914-.459-.4914-.1113-.008-.2217.0241-.3114.0897-.038.0336-.0678.0752-.0876.1232-.02.0464-.0292.0961-.0272.1473.002.096.0308.1873.0828.2673.0523.08.1259.1441.2123.1841.0738.0368.1507.0688.2297.0928.0664.0192.1343.0336.2031.0432.0682.0096.1372.0128.2065.0112.1246.0016.2487-.0096.3701-.0336.1475-.0304.2911-.0784.4274-.144.2487-.1185.4666-.2946.6366-.5106Zm-.5164-2.5819c.0395.1345.0691.2705.0885.4082.0224.16.0314.3217.0264.485v-.024c-.0678.1104-.1537.2113-.2541.2945-.1439.152-.3403.2417-.549.2545-.1015.0016-.2009-.0272-.2867-.08-.0435-.0273-.0825-.0609-.1159-.0993-.0326-.0368-.06-.0784-.081-.1248-.0933-.1857-.1383-.3906-.1311-.5987-.0096-.2417.0382-.4834.1393-.7043.05-.1072.1298-.1984.2301-.2625.0446-.0288.0924-.0512.1422-.0672.0621-.0192.1271-.0304.1931-.0304.1527 0 .2833.0528.389.1633.0872.0912.1574.2193.2092.3857Zm4.6139 2.0328c-.001.1569-.0368.3122-.1049.4546-.068.1409-.1664.2657-.2885.365-.3583.2945-.8155.4417-1.2783.4097-.3449.0128-.6879-.0576-1-.2049-.1648-.0608-.3059-.1744-.4017-.3217-.0961-.1472-.1419-.3217-.1309-.4978.0036-.112.0302-.2225.078-.3233.0481-.1025.1163-.1921.2007-.2673.1745-.1473.364-.2769.5654-.3842-.168-.0928-.3159-.2177-.4343-.3697-.1211-.1505-.1849-.3394-.1803-.5314-.0072-.1745.0322-.3458.1144-.4994.0823-.1521.2041-.2801.3528-.3698.2947-.1985.6446-.2993.9998-.2865.3013-.008.6.0592.8687.1953.1389.0544.2585.1488.3432.2721.0848.1232.1308.2673.132.4178-.0012.0944-.0222.1904-.0616.2769-.0394.088-.0966.1664-.1679.2305-.144.1328-.3143.2321-.4998.2945.2285.112.443.2497.6393.4097.1701.2049.2605.4642.2539.7299Zm-.6883.3602c-.0016-.056-.0112-.1121-.0286-.1665-.0102-.0336-.0232-.064-.0388-.0928l-.0154-.0288c-.0194-.0321-.0418-.0625-.0668-.0913-.0417-.0464-.0907-.088-.1455-.12-.1805-.1057-.3698-.1969-.5654-.2705l-.5244-.2049c-.1075.0992-.2013.2129-.2788.3361-.0694.1281-.1032.2721-.0984.4178-.0064.1184.013.2369.0568.3473.0194.0496.0436.0961.0721.1409.0354.0544.0774.1056.1252.1504.1903.1521.4288.2305.6721.2225.0914 0 .1823-.0112.2701-.0336.1036-.0256.2033-.0672.2953-.1232.0828-.0496.1511-.1217.1985-.2065.029-.0512.0496-.1073.061-.1649.0074-.0368.011-.0736.011-.112Zm-.1394-2.2617c.004-.0993-.0191-.1985-.0667-.2865-.0476-.0881-.118-.1617-.2037-.2129-.0682-.0432-.1408-.0769-.2162-.1025-.1119-.0384-.2299-.056-.3492-.0528-.0892-.0032-.1778.008-.2623.0336-.0628.0192-.1232.0464-.1803.0801-.0702.0368-.129.0928-.1694.16-.0406.0688-.0614.1457-.06.2257.0026.048.0106.096.0234.1409.0196.0704.051.136.093.1968.0694.1009.1653.1793.2769.2273.0416.0224.1133.0545.2139.0945l.4664.184c.0616-.0464.1206-.096.1769-.1488.0438-.0416.086-.0848.1262-.1297.0868-.1184.1329-.2625.1311-.4097Zm4.3245 2.1944c.0282-.0944.043-.192.0436-.2929.0106-.2705-.08-.5362-.2539-.7459-.1963-.16-.4108-.2977-.6393-.4097.1123-.0368.2187-.0881.3164-.1521.0622-.0416.1208-.0896.1752-.1424.0725-.0641.1305-.1409.1701-.2289.0394-.0881.0598-.1825.0594-.2786.0004-.1488-.0438-.2945-.1272-.4177-.0832-.1217-.2017-.2177-.3398-.2721-.2691-.1345-.5674-.2033-.8687-.1953-.3551-.0128-.7051.088-.9998.2865-.1487.0896-.2705.2177-.3527.3698-.0823.1536-.1217.3249-.1145.4994-.0006.1904.0596.3777.1721.5314.1222.1472.2691.2721.4344.3697-.1979.1089-.3844.2385-.5573.3842-.0872.072-.1574.1616-.2056.2641-.0483.1024-.0733.2145-.0731.3265-.011.1761.0348.3505.1309.4978.0958.1473.2369.2609.4017.3217.3108.1537.6537.2289 1 .2209.4604.0336.9156-.1136 1.2701-.4097.1245-.0977.2251-.2209.2948-.3634.0256-.0528.0466-.1072.0632-.1633Zm-.7275-.2192c.0516.0864.08.1856.0828.2881.0002.0976-.0264.1953-.0768.2801-.0506.0848-.1231.1553-.2101.2033-.1677.1024-.3605.1552-.5572.1552-.2459.0096-.4874-.0688-.6803-.2209-.042-.04-.0796-.0848-.1122-.1328-.034-.0496-.0627-.1041-.0851-.1601-.0438-.1104-.0632-.2289-.0568-.3473-.0004-.1441.0334-.2881.0985-.4178.078-.1264.1746-.2385.2869-.3361l.5244.2049c.1981.0752.3899.1648.5736.2705.0876.0512.1607.1248.2123.2129Zm-.1267-2.2601c.0463.088.0677.1856.0619.2849.0048.1472-.0384.2913-.1229.4097-.0954.1025-.1995.1953-.3113.2785-.2355-.0928-.4162-.1632-.537-.216-.06-.0256-.1053-.0465-.1351-.0625-.1116-.048-.2075-.1264-.2769-.2257-.0694-.1008-.1098-.2176-.1164-.3393-.0008-.0496.007-.0992.023-.1456.0094-.0273.0218-.0545.037-.0801.0404-.0672.0992-.1232.1695-.16.1336-.0785.2871-.1185.4425-.1137.1995-.0048.3962.0496.5655.1553.0604.0368.1128.0848.1546.1424.017.0224.0322.0464.0456.0721ZM38.4769 13.3584l-1.5983-5.77832h14.3418L59.26 14.9798H12.6206l5.4005-4.7363-2.3101 3.1149h22.7659ZM35.8543 4.42417 34.666 0h7.5642l7.0152 6.16246H22.8237l5.6957-4.93317-2.1545 3.19488h9.4894Z"/>
</svg>