<svg xmlns="http://www.w3.org/2000/svg" viewBox="0 0 150 28.5">
	<path fill="#067941" d="M48.1 1c2.4-.7 4.8-1 7.2-1 2 0 4.1 0 6.1.4 1.2.2 2.4.7 3.3 1.6 1 .9 1.2 2.4 1.2 3.7 0 1.3-.4 2.6-1.4 3.4-.6.5-1.3.8-2.1 1v.2c1.6.3 3.3 1.1 4.2 2.5.7 1.2.8 2.7.7 4.1-.1 1.4-.7 2.7-1.7 3.7-1 .9-2.2 1.3-3.5 1.6-1.6.3-3.2.4-4.7.5-3.2.2-6.5-.1-9.6-1 .2-1.5.5-3 .8-4.4.4 0 .8 0 1.1.1 1.9.4 3.9.8 5.9.8 1 0 2.1 0 3.1-.4.6-.2 1.2-.6 1.4-1.3.2-.8.1-1.8-.5-2.4-.6-.6-1.4-.9-2.2-1-2-.3-4-.1-6-.2V9.1h5c.8-.1 1.7-.3 2.2-1 .7-.9.5-2.6-.7-3.1-.7-.3-1.5-.4-2.2-.4-2.2 0-4.4.5-6.6.9-.4-1.6-.6-3.1-1-4.5zm35-.7h11.1v2.9H86V9h4.5c1.5 0 3 .5 4 1.6 1.1 1.3 1.3 3.1 1.3 4.7 0 1.5-.1 3.1-.8 4.5-.5 1-1.5 1.8-2.6 2.2-.8.2-1.6.3-2.4.3h-6.8c-.1-7.3-.1-14.7-.1-22zm2.8 11.3v8h3.7c.9 0 1.9-.2 2.5-.9.7-.9.8-2 .8-3.1s-.1-2.3-.9-3.2c-.7-.7-1.6-.8-2.5-.8h-3.6zM128.3.3h2.8v22.1h-2.8V11.8h-9.2v9.9c0 .2 0 .5-.1.7h-2.8V.4h2.8v8.9h9.1c.2-3.1.2-6.1.2-9zm6.9 0h2.8c.1 3.3 0 6.5.1 9.8.5-.2.8-.7 1.1-1.1 1.8-2.3 3.6-4.5 5.4-6.7.5-.6 1-1.3 1.6-1.9 1.1-.1 2.2 0 3.3 0-.7 1-1.5 1.9-2.3 2.9-1.1 1.3-2.1 2.6-3.3 3.9-.9 1.1-1.9 2.2-2.7 3.3 1 1.3 1.9 2.7 2.9 4.1 1.5 2 2.9 4.2 4.4 6.2.4.5.7 1.1 1.2 1.6h-3.3c-.6-.7-1.1-1.5-1.6-2.3-1.8-2.6-3.7-5.1-5.5-7.7-.3-.4-.5-.8-.8-1.1h-.3c-.1 2.5 0 5 0 7.5 0 1.2.1 2.4 0 3.6h-2.8c-.2-7.4-.2-14.8-.2-22.1zM.4.3H12c1.7 0 3.4.2 4.9 1 1.2.7 2 2 2.1 3.3.2 1.4.1 3-.8 4.1-.5.7-1.3 1.2-2.1 1.5.7.3 1.5.5 2.1 1 1.2.9 1.8 2.5 1.8 4.1.1 1.5-.1 3.1-.9 4.4-.7 1.2-2.1 1.9-3.5 2.2-1.1.3-2.2.3-3.3.3H.3v-.9c.1-6.9.1-14 .1-21zm6.9 4v4.6h3.1c1.1 0 1.9-1 2-2.1 0-.7-.1-1.4-.6-2-.4-.4-1.1-.6-1.7-.6-.9.1-1.8.1-2.8.1zm0 8.7v5.3h3c.5 0 1 0 1.5-.2 1.6-.5 2-2.8 1.1-4.1-.5-.8-1.4-1.1-2.3-1.1-1.1.1-2.2.1-3.3.1zM21.8.3H30c1.6 4.1 3 8.4 4.6 12.5h.2C36 8.6 37.4 4.5 38.6.3c2.5-.1 4.9 0 7.4 0-.2.8-.5 1.5-.8 2.3-1.8 4.8-3.7 9.5-5.5 14.3-.8 2-2.4 3.7-4.4 4.6-1.4.7-2.9 1-4.5 1.1-2.7.1-5.5-.3-8.1-.8.4-1.4.9-2.9 1.2-4.4 1.3.3 2.7.7 4.1.7 1.2 0 2.4 0 3.4-.5.5-.3.8-.7 1.2-1.2-1.6-.2-3.2-.8-4.3-1.9-.8-.8-1.1-1.8-1.5-2.8-1.5-3.4-3-6.8-4.4-10.2-.3-.4-.5-.8-.6-1.2zm82.1 0h3.3s.1.1.2.1c1.4 5.2 2.9 10.3 4.3 15.5.7 2.1 1.2 4.3 1.8 6.4h-3c-.4-1.7-.9-3.4-1.4-5.2-.1-.3-.1-.6-.3-.8h-6.7c-.6 2-1.1 4-1.6 6h-3c1.3-4.7 2.6-9.4 4-14.1.9-2.6 1.6-5.3 2.4-7.9zm1.1 5.2c-.8 2.7-1.6 5.5-2.3 8.2h5.7c-1-3.4-1.8-6.9-2.8-10.3l-.6 2.1zM73.4 8.7c.7-.2 1.6-.2 2.3.1 1 .5 1.8 1.5 1.8 2.6 0 1-.4 2.1-1.2 2.7-.8.6-1.9.8-2.9.5-1.1-.4-2-1.4-2.1-2.5-.3-1.5.7-3 2.1-3.4zM0 26.1c5.2-.1 10.4 0 15.7 0h134.4c-.1.8 0 1.6 0 2.4H.1c-.1 0-.1-2.4-.1-2.4z"/>
</svg>