<svg xmlns="http://www.w3.org/2000/svg" viewBox="0 0 170 26">
  	<path fill="#000" d="M120.8 6.5c-1-.6-2-.8-3.2-.8s-1.9.2-2.7.6c-.8.4-1.5.9-1.9 1.5V2.4h-2.8v16.5h2.8V17c.5.6 1.1 1.1 1.9 1.5.8.4 1.7.6 2.8.6s2.2-.3 3.2-.8c1-.6 1.7-1.4 2.3-2.4.6-1 .8-2.2.8-3.5s-.3-2.5-.8-3.5c-.6-1-1.3-1.8-2.3-2.4Zm-.3 8.2c-.4.7-.9 1.2-1.5 1.6-.6.3-1.3.5-2 .5s-1.4-.2-2-.5c-.6-.3-1.1-.8-1.5-1.5-.4-.7-.6-1.5-.6-2.4s.2-1.7.6-2.3c.4-.7.9-1.2 1.5-1.5.6-.3 1.3-.5 2-.5s1.4.2 2 .5c.6.3 1.1.8 1.5 1.5.4.6.6 1.4.6 2.3s-.2 1.7-.6 2.4ZM170 5.9h-3.8l-4.9 5.7V2.4h-2.8v16.5h2.8v-5.6l5 5.6h3.7l-6.2-6.5 6.2-6.5zM72.1 15.8 68.6 2.5h-3.1l-3.8 13.4-3.5-13.4h-2.9L60 18.9h3.2l3.7-12.4 3.6 12.4h3.1l5-16.4h-3l-3.5 13.3zM89.9 7.8c-.5-.6-1.1-1.1-1.9-1.5-.8-.4-1.7-.6-2.7-.6s-2.2.3-3.2.8c-1 .6-1.7 1.3-2.3 2.3-.6 1-.8 2.2-.8 3.5s.3 2.5.8 3.5c.6 1 1.3 1.8 2.3 2.4 1 .6 2 .8 3.2.8s2-.2 2.8-.6c.8-.4 1.5-.9 1.9-1.5v1.9h2.8V5.9H90v1.9Zm-.6 7c-.4.7-.9 1.2-1.5 1.5-.6.3-1.3.5-2 .5s-1.4-.2-2-.5c-.6-.4-1.1-.9-1.5-1.6-.4-.7-.6-1.5-.6-2.4s.2-1.7.6-2.3c.4-.7.9-1.2 1.5-1.5.6-.3 1.3-.5 2-.5s1.4.2 2 .5c.6.3 1.1.9 1.5 1.5.4.7.6 1.4.6 2.3s-.2 1.7-.6 2.4ZM101.6 15.8l-3.8-9.9h-3.1l5.3 12.8-2.7 6.3h2.9l8.2-19.1h-2.9l-3.9 9.9zM136.6 7.8c-.5-.6-1.1-1.1-1.9-1.5-.8-.4-1.7-.6-2.7-.6s-2.2.3-3.2.8c-1 .6-1.7 1.3-2.3 2.3-.6 1-.8 2.2-.8 3.5s.3 2.5.8 3.5c.6 1 1.3 1.8 2.3 2.4 1 .6 2 .8 3.2.8s2-.2 2.8-.6c.8-.4 1.4-.9 1.9-1.5v1.9h2.8V5.9h-2.8v1.9Zm-.5 7c-.4.7-.9 1.2-1.5 1.5-.6.3-1.3.5-2 .5s-1.4-.2-2-.5c-.6-.4-1.1-.9-1.5-1.6-.4-.7-.6-1.5-.6-2.4s.2-1.7.6-2.3c.4-.7.9-1.2 1.5-1.5.6-.3 1.3-.5 2-.5s1.4.2 2 .5c.6.3 1.1.9 1.5 1.5.4.7.6 1.4.6 2.3s-.2 1.7-.6 2.4ZM152.7 6.3c-.8-.4-1.8-.6-2.8-.6s-1.5.1-2.3.4c-.7.3-1.3.7-1.7 1.3V5.9h-2.8v13h2.8v-7.3c0-1.2.3-2.1.9-2.7.6-.6 1.4-.9 2.5-.9s1.9.3 2.5.9c.6.6.9 1.5.9 2.7v7.3h2.7v-7.7c0-1.2-.2-2.2-.7-3-.5-.8-1.1-1.5-2-1.9Z"/>
  	<path fill="url(#a)" d="M0 .3C0 .2 0 0 .2 0H3s.1 0 .2.1l9.4 16.2c1 1.8 3.7 1.7 4.7 0l2.2-3.7s.1-.1.2-.1h2.8c.2 0 .3.2.2.3l-2.8 4.9c-2.1 3.6-7.4 3.6-9.5 0S0 .3 0 .3Z"/>
  	<path fill="url(#b)" d="M16.7 8.1s.1 0 .2-.1l2.2-3.8c1-1.8 3.6-1.8 4.6 0l7.5 13.5c2.1 3.7 7.4 3.7 9.5 0l5-8.8c.8-1.4 1.4-3.8 0-6.2-2.1-3.7-7.4-3.7-9.5 0l-2.9 5.1c0 .1 0 .3.2.3h2.7s.1 0 .2-.1l2.2-3.9c1-1.8 3.6-1.8 4.6 0 .7 1.3.4 2.6 0 3.4l-5 8.8c-1 1.8-3.6 1.8-4.6 0L26.1 2.8c-2.1-3.7-7.4-3.7-9.5 0l-2.8 5c0 .1 0 .3.2.3h2.7Z"/>
  	<linearGradient id="a" x1="40.3" x2="6.3" y1="6.2" y2="17.8" gradientTransform="matrix(1 0 0 -1 0 27.3)" gradientUnits="userSpaceOnUse">
  		<stop offset="0" stop-color="#ff4d01"/>
  		<stop offset="1" stop-color="#ff8a01"/>
  	</linearGradient>
  	<linearGradient id="b" x1="43.5" x2="9.4" y1="15.3" y2="27" gradientTransform="matrix(1 0 0 -1 0 27.3)" gradientUnits="userSpaceOnUse">
  		<stop offset="0" stop-color="#ff4d01"/>
  		<stop offset="1" stop-color="#ff8a01"/>
  	</linearGradient>
</svg>