<svg xmlns="http://www.w3.org/2000/svg" viewBox="0 0 170 28">
	<path fill="#0062AC" d="m55.1282 6.14428-4.0598.01457-3.5755 9.58745-1.1454-9.56998-3.261.01165-4.742 9.59113.0222-9.57438-4.0608.01383-.008 16.71745 3.9643-.0131 5.0533-9.4338 1.4654 9.409 3.9658-.0117 6.3815-16.74212Zm7.4856 8.38742c-.9655 5.0745-2.7491 5.0825-3.3341 5.0825-.5869.0051-2.3647.0116-1.4032-5.0664.9645-5.07736 2.747-5.08246 3.3331-5.08465.5862-.00291 2.3687-.00582 1.4042 5.06855Zm4.4231-.016c1.3471-7.08625-2.0643-8.56146-5.1629-8.54981-3.0971.00874-7.0739 1.51453-8.4187 8.59861-1.3467 7.0848 2.0624 8.5593 5.1588 8.5506 3.0983-.0131 7.0732-1.5131 8.4228-8.5994Zm10.3036.016c-.9655 5.0745-2.7476 5.0825-3.3349 5.0847-.5858.0029-2.3665.0094-1.402-5.0686.9633-5.07664 2.7469-5.08246 3.3319-5.08465.5862-.00291 2.3683-.00582 1.405 5.06855Zm4.4216-.016c1.346-7.08625-2.0632-8.56146-5.1614-8.54981-3.0971.00874-7.071 1.51599-8.421 8.59861-1.3456 7.0848 2.0654 8.5593 5.1604 8.5506 3.0982-.0117 7.0732-1.5131 8.422-8.5994Zm5.6147-.3182.9211-4.79842c.1755 0 .3911-.02257.6266-.04733 1.2033-.12815 2.9319-.31165 2.5627 2.21205-.4398 3.0204-4.1104 2.6337-4.1104 2.6337Zm5.8223 4.0922c-.0991-.6073-.2924-1.4563-1.2135-1.9216 2.0283-1.1373 3.3669-3.3516 3.3669-6.2154 0-4.23778-5.0667-3.81837-5.0667-3.81837h-5.2536L81.5255 22.8661h3.9192l1.1505-5.6504h1.5298c.4704.0837 1.1184.3633 1.2065 1.2902.1515 1.4884.3772 4.4301.3772 4.4301h3.9393s-.1063-1.2284-.2185-2.432c-.091-.9787-.186-1.9413-.2304-2.2143Zm5.3194-11.77261L95.3525 22.936l4.3773-.011 3.1652-16.4232-4.3765.01529Zm63.3235 7.43431L170 6.23821h-5.118l-6.328 6.06909 1.205-6.06909h-4.471l-3.296 16.60459h4.469l1.364-6.8861 3.95 6.8861h5.436l-5.369-8.8914Zm-46.726-4.51956c1.883-.00873 1.99.37136 1.78 1.46136-.205 1.0711-.563 1.4272-1.749 1.5058h-3.075l.561-2.96716h2.483Zm-1.228 6.30866c2.82-.0124 2.569 1.2953 2.434 2.0031-.208 1.0966-.723 1.7737-2.618 1.8866v.0073h-.094l-.235.0065-.218.0015-.189.0044v-.0117h-2.238l.732-3.8977h2.426Zm5.174-1.9376c1.056-.8163 1.729-1.9478 1.995-3.3706.531-2.80625-1.067-4.47442-4.273-4.46641l-7.677.0182-3.23 17.13101 7.673-.0175c3.887-.0116 6.186-1.7483 6.828-5.1516.359-1.8983-.11-3.3422-1.316-4.1431Zm11.444 2.622-3.147-.0073 2.539-4.9746.608 4.9819Zm2.278-10.45901h-3.934l-9.602 16.87691h4.528l1.782-3.2177 5.217.0371.369 3.1806h4.202l-2.562-16.87691Zm20.298 0h-3.883l-1.744 9.64711-3.503-9.64711h-4.255l-3.259 16.87691 3.948-.1013 1.93-10.2158 3.521 10.3171h3.986l3.259-16.87691Z"/>
	<path fill="#1273B8" d="M2.2236 21.3088c1.73516 2.6664 4.36703 4.695 7.46782 5.6598 1.29568.4034 2.67378.6204 4.10198.6204 5.208 0 9.7422-2.8863 12.0897-7.1467.0736-.1369.1445-.2752.213-.415-3.273-.8614-7.6022-1.3857-12.35-1.3857-4.70236 0-8.99367.5148-12.25538 1.3616.2199.4493.46492.8854.73288 1.3056Z"/>
	<path fill="#D9D9D9" d="M26.099 20.0336c-.0092.0182-.0185.0364-.0279.0546-3.2915-.8832-7.6065-1.4184-12.3318-1.4184-4.68012 0-8.95759.5257-12.23714 1.3929-.21699-.4246-.4126-.8619-.585429-1.3106C.33882 17.2517.0156945 15.6246 0 13.9245.0695375 6.23314 6.20195.0177238 13.7626.00097656h.0306c.9524 0 1.8822.09684284 2.78.28033444C22.8185 1.58323 27.5256 7.19065 27.5864 13.9245c-.0159 1.7249-.3484 3.3745-.9423 4.8931h.0001c-.1624.4158-.3444.8214-.545 1.216h-.0002Z"/>
    <radialGradient id="gr" cx="0" cy="0" r="1" gradientTransform="matrix(0 -34.6712 35.0559 0 13.7932 27.5888)" gradientUnits="userSpaceOnUse">
		<stop offset=".42429" stop-color="#fff"/>
		<stop offset=".500886" stop-color="#09ABE0"/>
		<stop offset=".587553" stop-color="#007CC2"/>
    </radialGradient>
	<path fill="url(#gr)" d="M26.099 20.0336c-.0092.0182-.0185.0364-.0279.0546-3.2915-.8832-7.6065-1.4184-12.3318-1.4184-4.68012 0-8.95759.5257-12.23714 1.3929-.21699-.4246-.4126-.8619-.585429-1.3106C.33882 17.2517.0156945 15.6246 0 13.9245.0695375 6.23314 6.20195.0177238 13.7626.00097656h.0306c.9524 0 1.8822.09684284 2.78.28033444C22.8185 1.58323 27.5256 7.19065 27.5864 13.9245c-.0159 1.7249-.3484 3.3745-.9423 4.8931h.0001c-.1624.4158-.3444.8214-.545 1.216h-.0002Z"/>
</svg>