<svg xmlns="http://www.w3.org/2000/svg" viewBox="0 0 200 23">
	<path fill="#FD0" d="M29.8479 12.2027c.7491 1.2907 2.5181 1.2907 3.2673 0L26.0751 0h9.7658l3.7727 6.54362-7.6628 13.27678c-2.0578 3.5561-5.4154 3.5561-7.4732 0L13.024.00902416h9.7748L29.8479 12.2027Zm-10.9391 7.6175c-2.0488 3.5561-5.4154 3.5561-7.4733 0L0 .00881414h9.76578L20.0551 17.8345l-1.1463 1.9857Z"/>
	<path fill="#000" d="M170.071 2.3457c-.984 0-1.76.75816-1.76 1.73293 0 .97478.785 1.70586 1.76 1.70586s1.733-.76719 1.733-1.70586c0-.95672-.776-1.73293-1.733-1.73293ZM50.0654 19.9005h3.3305l.0271-.1083c2.0578-7.6267 2.8972-10.88493 3.2402-12.90669.3339 2.01273 1.1372 5.31609 3.1048 12.90669l.0271.1083h3.4027l4.7384-17.43757h-3.1048l-.0271.10831c-2.0578 7.91556-2.8431 11.11966-3.2041 13.16846-.4152-2.1932-1.3087-5.81253-3.2312-13.16846l-.0271-.10831h-3.2402l-.027.10831c-2.0038 7.84336-2.8431 11.20086-3.2042 13.37606-.3971-2.121-1.2726-5.6411-3.2763-13.37606l-.0271-.10831H45.345l4.6843 17.33837.0361.0992Zm23.1418.2442c2.5182 0 4.901-1.3719 5.8577-3.4207l-2.3016-1.1733h-.0451l-.0451.0812c-.2798.5776-1.2997 1.9225-3.4388 1.9225-1.9405 0-3.4207-1.2366-3.6464-3.0327h9.9012v-.1354c.0632-2.4459-.6047-4.44961-1.9225-5.79444-1.1372-1.17334-2.7167-1.78708-4.5489-1.78708-1.8322 0-3.4659.68595-4.6482 1.92247-1.1734 1.22749-1.8232 2.92435-1.8232 4.76555 0 3.9171 2.7438 6.6519 6.6609 6.6519Zm-.1895-10.80371c1.8322 0 3.2312 1.17331 3.3756 2.80701h-6.8054c.2076-1.6337 1.6247-2.80701 3.4298-2.80701Zm17.9881 6.86811c0 2.4279-2.0127 3.9352-5.2529 3.9352-2.4821 0-5.4425-1.417-5.4605-4.0976l2.7348-.5145.027.1986c.1354 1.1913 1.2004 1.9314 2.789 1.9314 1.3177 0 2.139-.5144 2.139-1.3538 0-.9567-1.2726-1.2997-2.7528-1.6968-2.0398-.5416-4.576-1.2185-4.576-3.9533 0-2.2564 2.0759-3.8359 4.8558-3.8359 2.7799 0 4.919 1.69683 4.919 4.1157l-2.5813.4874h-.0542l-.0902-.5235c-.1445-1.03794-.9929-1.68779-2.2204-1.68779-1.1191 0-1.9044.52349-1.9044 1.26359 0 .9183 1.2482 1.2439 2.6966 1.6217l.0111.0029.0182.0048c2.0998.5497 4.7022 1.231 4.7022 4.1019Zm2.3107 1.318c0 1.4441.9116 2.6174 2.4279 2.6174 1.8773 0 2.4279-.2437 2.4279-.2437v-2.4279s-.5596.0903-1.2456.0903c-.4422 0-.7581-.2708-.7581-.6679V9.53032h1.9856l-.0271-2.45499h-1.9495V3.42896l-2.8521.71303v2.93334h-1.4892v2.45499h1.4892v7.99678h-.009ZM115.682 7.07552v1.62463c.822-1.34483 2.455-1.8954 4.251-1.64268l.127.01805-.027 2.6716-.154-.01805c-1.309-.18051-2.301 0-2.933.53253-.479.4061-.749 1.0109-.785 1.7961l.027 7.8433h-3.015V7.07552h2.509Zm12.582-.26193c-1.814 0-3.511.72205-4.359 2.09396V7.07533h-2.609V19.9008h3.042v-6.8866c0-2.2113 1.155-3.52901 3.096-3.52901 1.326 0 2.906.57761 2.906 3.33951v7.0761h3.042v-7.4913c0-4.12472-2.654-5.59591-5.118-5.59591Zm17.51 10.46051c2.545 0 3.953-1.6337 3.953-4.5941V2.46293h3.042V12.6078c0 4.7204-2.618 7.5364-6.995 7.5364-4.378 0-6.995-2.816-6.995-7.5364V2.46293h3.069V12.68c0 2.9604 1.38 4.5941 3.926 4.5941Zm15.777-10.46051c-1.815 0-3.52.72205-4.36 2.09396V7.07533h-2.617V19.9008h3.041v-6.8866c0-2.2113 1.156-3.52901 3.096-3.52901 1.327 0 2.906.57761 2.906 3.33951v7.0761h3.042v-7.4913c.009-4.12472-2.635-5.59591-5.108-5.59591Zm7.004.26178h3.014V19.9009h-3.014V7.07537Zm6.345 1.63361c1.245-1.21846 2.96-1.89539 4.837-1.89539 1.887 0 3.611.6679 4.856 1.89539 1.237 1.21847 1.923 2.91532 1.923 4.76552 0 3.863-2.861 6.67-6.779 6.67-3.917 0-6.76-2.807-6.76-6.67 0-1.8502.686-3.53802 1.923-4.76552Zm1.029 4.76552c0 2.2204 1.633 3.8991 3.808 3.8991 2.194 0 3.854-1.6787 3.854-3.8991 0-2.2203-1.678-3.89905-3.854-3.89905-2.175 0-3.808 1.67875-3.808 3.89905Zm18.962-6.66091c-1.814 0-3.511.72205-4.359 2.09396V7.07533h-2.617V19.9008h3.041v-6.8866c0-2.2113 1.156-3.52901 3.096-3.52901 1.327 0 2.906.57761 2.906 3.33951v7.0761H200v-7.4913c.009-4.12472-2.636-5.59591-5.109-5.59591Zm-94.137 1.92247c1.182-1.23652 2.834-1.92247 4.648-1.92247 1.832 0 3.412.61375 4.549 1.77806 1.318 1.34482 1.986 3.34855 1.922 5.79445v.1354h-9.901c.226 1.7961 1.706 3.0327 3.647 3.0327 2.139 0 3.159-1.3449 3.438-1.9225l.045-.0813h.046l2.301 1.1734c-.957 2.0488-3.339 3.4207-5.858 3.4207-3.926 0-6.6605-2.7348-6.6605-6.6429 0-1.8412.6499-3.53805 1.8235-4.76554Zm4.648.60472c-1.814 0-3.231 1.17332-3.439 2.80702h6.815c-.145-1.6337-1.562-2.80702-3.376-2.80702Z"/>
</svg>