<svg viewBox="0 0 160 34" xmlns="http://www.w3.org/2000/svg">
	<path fill="#000" d="M141.779 17.1044c0-4.442-3.361-8.03499-8.108-8.03499-4.653 0-7.967 3.45499-7.967 8.20199 0 4.771 3.407 8.25 8.296 8.25 3.102 0 5.71-1.387 7.332-4.208l-3.29-1.528c-.775 1.41-2.468 2.327-4.042 2.327-1.997 0-4.3-1.504-4.442-3.595h12.103c.078-.467.117-.939.118-1.413Zm-12.151-1.358c.283-2.115 1.739-3.501 4.066-3.501 2.303 0 3.713 1.358 3.901 3.501h-7.967ZM96.475 9.06641c-4.771 0-8.155 3.43199-8.155 8.27399 0 4.794 3.384 8.179 8.202 8.179 4.841 0 8.225-3.385 8.225-8.108.001-4.866-3.477-8.34499-8.272-8.34499Zm.048 12.85599c-2.398 0-3.878-1.786-3.878-4.559 0-2.82 1.504-4.747 3.878-4.747 2.397 0 3.901 1.903 3.901 4.747 0 2.797-1.481 4.559-3.901 4.559ZM79.487 9.07041c-1.954 0-3.427.668-4.899 2.32299h-.483c-.989-1.49499-2.603-2.32299-4.413-2.32299-1.834-.018-3.565.846-4.652 2.32299h-.483l-.024-.023V9.39241h-4.045V25.1724h4.37v-8.121c0-2.622 1.104-4.163 3.014-4.163 1.771 0 2.921 1.312 2.921 3.312v8.972h4.393v-8.121c0-2.603 1.104-4.163 3.037-4.163 1.747 0 2.874 1.312 2.874 3.336v8.948h4.394v-9.478c0-4.116-2.209-6.62399-6.004-6.62399Zm72.011 10.62999h-.312c0-.281-1.906-5.278-3.155-8.374l-.781-1.93599h-4.403l6.247 15.83499-2.461 6.034h4.373L160 9.39541h-4.406l-.719 1.65599-2.436 6.028c-.687 1.684-.968 2.465-.941 2.621ZM116.869 9.07041c-1.956 0-3.635.851-4.762 2.36999h-.461l-.045-.023V9.39241h-4.047V25.1724h4.37v-8.074c0-2.576 1.245-4.187 3.29-4.187 1.909 0 3.312 1.426 3.312 3.68v8.58h4.37v-9.521c.001-3.865-2.529-6.57999-6.027-6.57999Z"/>
	<path fill="#8B3FFD" d="M30.805.0253906c-9.443 0-17.03 7.6389994-17.03 16.9750094 0 9.413 7.662 16.975 17.028 16.975s17.035-7.639 17.035-16.975c0-9.33601-7.667-16.9750094-17.033-16.9750094Zm0 23.3020094c-3.483 0-6.346-2.855-6.346-6.327s2.863-6.327 6.346-6.327 6.347 2.855 6.347 6.327c-.078 3.472-2.864 6.327-6.347 6.327ZM13.775 4.95739V29.6484H7.741L0 4.95739h13.775Z"/>
</svg>