<svg xmlns="http://www.w3.org/2000/svg" viewBox="0 0 180 16.6">
	<path fill="#40406b" d="M10.4 14.1l1.1-3.5H1.8c-.5 0-1 .2-1.3.6-.3.4-.5.9-.5 1.4 0 .5.2 1 .5 1.3.3.4.8.6 1.3.6h8.3c.1-.1.2-.2.3-.4zm2.7-8.5H3.7c-.5 0-1 .2-1.3.6s-.6.8-.6 1.3.2 1 .5 1.3.8.6 1.3.6h8.2c.1 0 1.3-3.8 1.3-3.8zM14.7.5H5.5c-.5 0-1 .2-1.3.6-.4.4-.6.8-.6 1.3s.2 1 .5 1.3.9.6 1.4.6h8.1L14.7.5c0 .1 0 0 0 0zm4.4 5.8h9.3c.5 0 1-.2 1.3-.6.3-.4.5-.8.5-1.3s-.2-1-.5-1.3c-.3-.4-.8-.6-1.3-.6h-8.1l-1.2 3.8c0-.1 0 0 0 0zm8.4 5.1H17.4v-.1l1.2-3.8h4.5c.6 0 1.2.1 1.8.4.6.2 1.1.6 1.5 1.1.7.6 1.1 1.4 1.1 2.4zm-2.2 4.4c-.7.4-1.4.6-2.2.6h-8.6v-.1l1.2-3.8h11.4c0 .6-.2 1.3-.6 1.8-.2.7-.7 1.2-1.2 1.5zm10.3-11l-2.9-.7c.3-1.2 1.1-2.2 2.2-2.8 1-.6 2.2-.9 3.3-.9 1.3 0 2.6.4 3.7 1.1.5.3.9.7 1.2 1.2.3.5.4 1.1.4 1.6 0 .8-.3 1.6-.8 2.3-.6.8-1.5 1.3-2.4 1.5.7.3 1.3.7 1.7 1.3.4.6.6 1.2.6 1.9 0 .6-.2 1.2-.5 1.8-.3.6-.7 1-1.2 1.4-1.1.9-2.6 1.4-4.5 1.4-3.2 0-5.1-1.2-5.7-3.7l3-.9c.1.6.4 1.1.8 1.5.5.4 1.2.7 1.8.6.8 0 1.5-.2 2.2-.6.3-.2.5-.4.7-.7.2-.3.2-.6.2-1 0-.3-.1-.6-.2-.8-.2-.3-.4-.5-.7-.6-.5-.4-1.2-.5-1.9-.5-.2 0-.5 0-.7.1l.6-2.6c.4.1.7.1 1.1.1.7 0 1.3-.2 1.8-.6.2-.2.4-.4.5-.7s.2-.5.2-.8c0-.2 0-.5-.1-.7-.1-.2-.3-.4-.5-.5-.3-.4-.8-.5-1.4-.5-1.3 0-2.2.6-2.5 1.8zm19.7 6.3h-7.4v.3c0 .6.2 1.3.6 1.8.2.2.4.4.7.5.3.1.5.2.8.2 1 0 1.7-.5 2.3-1.5l2.6.4c-.4 1-1.1 1.8-2 2.4-.9.5-1.9.8-2.9.7-.7 0-1.3-.1-1.9-.3-.6-.2-1.2-.6-1.6-1.1-.5-.5-.8-1.1-1.1-1.7-.2-.6-.3-1.3-.3-2 0-1.4.4-2.8 1.2-4 1.1-1.6 2.7-2.4 4.8-2.4.6 0 1.2.1 1.7.3.5.2 1 .5 1.5 1 .8.8 1.2 2 1.2 3.5 0 .7-.1 1.3-.2 1.9zm-2.5-1.7v-.3c0-.6-.1-1.3-.5-1.8-.2-.2-.4-.4-.7-.5s-.5-.2-.8-.1c-.6 0-1.2.3-1.6.7-.5.6-.9 1.3-1 2h4.6zm6.4-4.6h3.6l1.1 7.5 4.4-7.5h3.5l-2.3 10.9H67l1.5-7.1-4.1 7.1H62l-1-7.2-1.6 7.2H57c-.1 0 2.2-10.9 2.2-10.9zm21.2 6.8l2.9.5c-.4 1.1-1.1 2.2-2.1 2.9-.9.7-2.1 1-3.2 1-.6 0-1.2-.1-1.8-.3-.6-.2-1.1-.5-1.5-1-.8-.8-1.2-2-1.2-3.4 0-1.2.2-2.3.7-3.3.5-1 1.2-1.9 2.2-2.5 1-.6 2.1-.9 3.3-.9 1.1-.1 2.2.3 3.1 1 .4.3.7.7.9 1.2.2.5.4.9.4 1.5l-2.8.3c0-.5-.2-1-.6-1.3-.2-.1-.4-.3-.6-.3-.2-.1-.4-.1-.6-.1-.6 0-1.2.2-1.6.6-.5.5-.9 1.2-1.1 1.9-.3.8-.4 1.6-.4 2.4 0 .5.1 1.1.5 1.5.1.2.3.3.5.4.2.1.4.1.6.1.5 0 1-.2 1.4-.5.5-.6.8-1.1 1-1.7zm7.2-6.8h2.9l-1 4.6c.4 0 .8-.1 1.2-.3.4-.4.7-.8 1-1.3.8-1.4 1.4-2.2 1.8-2.5.4-.3 1.2-.5 2.2-.5h.8l-.4 2h-.4c-.2 0-.5 0-.6.2-.2.2-.4.5-.6.7-.5.7-1 1.4-1.5 2-.3.2-.7.4-1.1.5.7.1 1.2.8 1.5 1.9l1 3.6h-2.8l-.9-3.2c-.1-.5-.3-.9-.6-1.2-.2-.3-.6-.3-1-.3l-1 4.7h-2.9l2.4-10.9zm11.2 0h2.9l-1.3 6.5c-.1.5-.2 1-.2 1.4 0 .2 0 .3.1.4.1.1.2.3.3.4.1.1.3.2.4.3.2.1.3.1.5.1.3 0 .5 0 .8-.1.3-.1.5-.3.8-.5.3-.2.5-.4.7-.7.2-.3.4-.7.6-1 .2-.5.3-1 .4-1.5l1.1-5.2h2.9l-2.3 10.9h-2.7l.3-1.5c-.5.5-1.1 1-1.8 1.3-.7.3-1.4.5-2.1.5-.4 0-.8 0-1.1-.2-.4-.1-.7-.3-1-.6-.3-.3-.5-.6-.6-.9-.1-.4-.2-.7-.2-1.1.1-.8.2-1.5.3-2.2-.1-.2 1.2-6.3 1.2-6.3zm13.4 0h2.9l-1.3 6.5c-.1.5-.2 1-.2 1.4 0 .2 0 .3.1.4.1.1.1.3.3.4.1.1.3.2.4.3.2.1.3.1.5.1.3 0 .5 0 .8-.1.3-.1.5-.3.8-.5.3-.2.5-.4.7-.7.2-.3.4-.7.6-1 .2-.5.3-1 .4-1.5l1.1-5.2h2.9l-2.3 10.9h-2.7l.3-1.5c-.5.5-1.1 1-1.8 1.3-.7.3-1.4.5-2.1.5-.4 0-.8 0-1.1-.2-.4-.1-.7-.3-1-.6-.3-.3-.5-.6-.6-.9-.1-.4-.2-.7-.2-1.1.1-.8.2-1.5.3-2.2l1.2-6.3zm2.2-4.4h1.4c.1.4.3.9.6 1.2.3.2.6.3 1 .3.8 0 1.5-.5 2-1.5h1.4c-.2.9-.7 1.6-1.4 2.2-.6.5-1.3.8-2.1.8-.4 0-.7 0-1.1-.2-.3-.1-.6-.3-.9-.6-.5-.5-.9-1.3-.9-2.2zm26.3-.4h2c0 .7-.1 1.3-.4 1.9-.2.4-.5.7-1 .9-.8.2-1.6.3-2.4.3-.8 0-1.5.1-2.3.2-.5.1-1 .4-1.3.8-.5.5-.9 1.1-1.1 1.8.9-.6 1.9-1 2.9-1 .6 0 1.2.1 1.7.3.6.2 1.1.6 1.5 1 .8 1 1.3 2.2 1.2 3.5 0 1.6-.6 3.1-1.6 4.3-1.1 1.3-2.6 2-4.6 2-1.6 0-2.8-.5-3.7-1.4-.5-.5-.8-1-1-1.6-.2-.6-.3-1.2-.3-1.9 0-1.6.4-3.1 1-4.5.5-1.4 1.3-2.6 2.2-3.7.6-.8 1.4-1.3 2.3-1.7 1.1-.3 2.2-.4 3.3-.4.4 0 .9 0 1.3-.1.2-.2.3-.4.3-.7zm-7.4 11.1c0 .4 0 .7.1 1 .1.3.3.6.6.9.4.4 1 .6 1.6.6.5 0 .9-.1 1.3-.4.4-.2.7-.6.9-1 .6-.9.9-1.9.9-2.9 0-.6-.2-1.2-.6-1.7-.2-.2-.5-.4-.7-.5-.3-.1-.6-.1-.9-.1-.5 0-.9.1-1.3.3-.4.2-.7.5-1 .9-.6.9-.9 1.9-.9 2.9zm14.3-3.2l-2.9-.2c.3-.9.9-1.7 1.7-2.3 1-.6 2.1-.9 3.2-.8 1.4 0 2.4.3 3.1.8.3.2.6.6.7.9.2.4.3.8.3 1.1 0 .4 0 .7-.1 1-.1.4-.3 1.3-.6 2.9-.2.9-.4 1.8-.4 2.7 0 .5.1 1 .2 1.5H150c-.1-.4-.2-.8-.2-1.2-.4.5-.9.8-1.5 1.1-.5.3-1.1.4-1.7.4-.4 0-.8-.1-1.2-.2-.4-.2-.7-.4-1-.7-.3-.3-.5-.7-.7-1-.2-.4-.2-.8-.2-1.2 0-.5.1-.9.2-1.3.2-.4.4-.8.7-1.1.6-.6 1.8-1 3.5-1.1 1 0 1.9-.2 2.8-.4.1-.3.2-.6.2-1 0-.2 0-.3-.1-.4-.1-.1-.2-.3-.3-.4-.3-.2-.7-.3-1.1-.3-.4 0-.9.1-1.2.3-.3.2-.5.5-.6.9zm2.7 2.7c-.2.1-.5.1-.7.1-1.5.2-2.4.4-2.9.8-.1.1-.3.3-.3.4-.1.2-.1.4-.1.5 0 .2 0 .3.1.5.1.1.2.3.3.4.1.1.3.2.4.3.2.1.3.1.5.1.4 0 .9-.1 1.3-.3.4-.2.7-.5.9-.8.3-.5.4-1 .5-1.6v-.4zm7.6-5.8h2.9l-.9 4h4l.9-4h2.9l-2.3 10.9h-2.9l1-4.6h-4l-1 4.6h-2.9l2.3-10.9zm13.3 0h2.9l-1 4.6c.4 0 .8-.1 1.2-.3.4-.4.7-.8 1-1.3.8-1.4 1.4-2.2 1.8-2.5.4-.3 1.2-.5 2.2-.5h.8l-.4 2h-.4c-.2 0-.5 0-.6.2-.2.2-.4.5-.6.7-.4.7-.9 1.4-1.4 1.9-.3.2-.7.4-1.1.5.7.1 1.2.8 1.5 1.9l1 3.6h-2.8l-.9-3.2c-.1-.5-.3-.9-.6-1.2-.3-.2-.7-.3-1.1-.2l-1 4.7h-2.9l2.4-10.9z"/>
	<path fill="#328455" d="M12.1 2.7L7.7 16.6h4.4l4-13.9h-4zm5.7-2l-4.4 13.9h4.4l4-13.9h-4z"/>
</svg>
