<svg xmlns="http://www.w3.org/2000/svg" viewBox="0 0 40 40">
	<g fill="#01704a">
		<path d="M21 26.2l7.4-4.3v-5.7L21 20.5v5.7z"/>
		<path d="M37.7 10.7l-2.8 1.7c1.2 2.4 1.8 5 1.8 7.6s-.6 5.2-1.8 7.6c-1.2 2.4-2.9 4.4-5 5.9s-4.6 2.6-7.2 3v-3.6l5.8-3.4v-5.7L21 28.1V40c5.1-.2 9.9-2.4 13.5-6.1C38 30.1 40 25.2 40 20c0-3.2-.8-6.4-2.3-9.3z"/>  
	</g>
	<g fill="#f7842a">
		<path d="M20.2 0C15-.1 9.9 1.9 6.1 5.6s-6 8.7-6.1 14S1.9 30 5.5 33.8s8.6 6 13.9 6.2V28.1L12 23.8v5.7l5.8 3.4v3.6c-2.7-.4-5.3-1.5-7.5-3.2-2.2-1.7-3.9-3.9-5.1-6.4-1.1-2.5-1.6-5.3-1.4-8.1s1.1-5.5 2.6-7.8 3.5-4.3 6-5.6c2.4-1.3 5.1-2 7.9-2 2.8 0 5.5.7 7.9 2 2.4 1.3 4.5 3.3 6 5.6L37 9.3c-1.8-2.8-4.2-5.2-7.2-6.8C26.8.9 23.5 0 20.2 0z"/>
		<path d="M19.4 26.2L12 21.9v-5.7l7.4 4.3v5.7zm.8-16.7L12 14.2l8.2 4.8 8.2-4.8-8.2-4.7z"/>
	</g>
</svg>