<svg xmlns="http://www.w3.org/2000/svg" viewBox="0 0 40 40">
	<path fill="#832b43" d="M38.7 11.8c-4.1 1-8 .5-12-.5-3-1-6.1-1.9-9.1-2.9-4.4-1.4-8.2-.3-11.5 2.9-2.5 2.3-4.2 5-5.9 7.8-.4.8-.4 1 .5 1.2 1.1.3 2 .7 3 1.2 2.6 1.5 4.9 3.4 7.1 5.5 1.5 1.5 3 2.7 4.8 4 1.5 1 3.1 1.5 5 1.1 3.5-.7 6.3-2.7 8.9-4.9.4-.4.3-.7-.3-.8-.3 0-.5-.1-1-.1-1.2-.1-2.3-.7-3.3-1.4.5-.1.8-.3 1.1-.4 4.2-1.1 8-3.4 10.9-6.5 1.2-1.4 2.3-2.7 2.7-4.6.6-1.7.5-1.8-.9-1.6zM25.8 26.7c.3 0 .5 0 .5.3s-.3.3-.5.4c-2.5 1.1-4.8.5-6.7-1.2-1.2-1.1-2.2-2.3-3.3-3.5-1.6-1.9-3.4-3.7-6-4.5-1.2-.4-2.5-.5-3.7-.4h-.3c-.1 0-.1-.1-.3-.1 1.1-.7 2.2-1.1 3.4-1.4 3.7-1.1 6.3.7 8.5 3.4 1.5 1.9 3 4 4.9 5.6 1.1.6 2.2 1.1 3.5 1.4zm10-11.9c-1.2 1.2-2.6 2.2-4.1 2.9-2 1-4.1.7-6-.3-1.5-.7-2.9-1.6-4.4-2.6-2.6-1.6-5.6-2.3-8.7-1.9-2.6.4-5 1.2-7.4 2.6-.4.3-.8.4-1.4.5 1-1.5 2.2-2.9 3.5-3.8 1.8-1.5 3.8-2.3 6.1-2.5 1.6 0 3.4.3 4.9.8 2.6.8 5 2.2 7.6 3.1 2.9 1 5.7 1.6 8.7 1.1h.4c.7 0 .7 0 .8.1z"/>
</svg>
