<svg viewBox="0 0 40 40" xmlns="http://www.w3.org/2000/svg">
  <path fill="#103984" d="M20.0035 33.2803C31.0444 33.2803 40 27.3994 40 20.1401 40 12.8809 31.0444 7 20.0035 7 8.96272 7 0 12.8809 0 20.1401c0 7.2593 8.95565 13.1402 20.0035 13.1402zM36.5506 16.302c.6344 1.0807 1.0252 2.2868 1.1451 3.5342.311 5.9657-6.9694 11.2104-16.2573 11.6911-5.8526.2969-11.1044-1.343-14.26399-4.0997 3.86139 1.9889 8.19089 2.8905 12.52519 2.6083 9.7049-.516 17.3317-5.8244 17.0136-11.8679-.0374-.4356-.1753-.8565-.4029-1.2298-3.1242 0-9.1889-.0425-12.2566 0-.2613.7879-.4668 1.5934-.6149 2.4103 1.1592 0 7.5631.1413 7.5631 1.2299 0 1.4985-7.0259 5.6547-9.1889 5.6547-1.456 0-1.6822-.41-1.6822-1.2441.1717-1.6727.5321-3.3207 1.0744-4.9125l-2.2124-.0848c-2.2124 3.414-4.4531 4.8418-10.19266 6.199-.98564.2498-1.995.3943-3.01113.4311-.95565-.6577-1.75844-1.5135-2.35377-2.5092-.65868-1.1288-1.05036-2.3933-1.14508-3.6968C1.97208 14.4501 9.25958 9.22654 18.5474 8.73882c5.8527-.31101 11.1045 1.34298 14.2782 4.08548-3.8596-1.9775-8.184-2.8693-12.5111-2.5799-9.4716.5018-16.96408 5.5557-17.0277 11.4013.06179.8714.3024 1.7208.70684 2.4951.87993.1945 1.77779.2964 2.67892.304 5.49214 0 8.16394-2.1205 10.23504-4.6793-1.8449-.0424-9.54941-.417-9.54941-2.2265 0-1.1027 3.20901-1.5551 4.74291-1.5551 2.5093 0 5.1104.1414 7.7116.1838.7704-1.0391 2.3679-3.6826 4.6722-3.6826.2262 0 .8411 0 .8411.1837 0 .8129-.8411 2.7284-.9966 3.6403H36.593l-.0424-.0071zm-17.0913 2.8274c.4735-.7069.9613-1.4137 1.4843-2.1983.3817.0424 1.1946.0424 1.5692.0424-.3746.7704-.6715 1.4702-.9684 2.2407-.6149-.0424-1.5409 0-2.1205-.0848h.0354zm2.1205-2.9688c.2262-.1837 1.1875-1.7529 1.9862-1.7247.0267.0309.0467.0669.0589.1058.0122.0389.0162.0799.0118.1204-.1689.5417-.4064 1.0596-.7069 1.5409h-.5442c-.2763.0051-.5527-.009-.827-.0424h.0212zm7.1815 4.9126v.1837c0 .8694-4.7359 3.6403-6.1213 3.6403-.0948-.0314-.1764-.0938-.2315-.1771-.0551-.0834-.0806-.1828-.0724-.2824.1176-1.4627.4119-2.9057.8765-4.2976.8411.099 4.8984.2262 5.3508.7846.1555.0848.0706.1697.1555.1697l.0424-.0212zm-9.4787-4.128c-.615.7069-1.1168 1.4137-1.654 2.0286-1.2158-.0424-7.3653-.4453-7.3653-1.4136 0-.3252 1.4561-.4171 1.8448-.4171 2.17-.0848 4.955-.1131 7.132-.1696l.0425-.0283z"/>
</svg>
