<svg xmlns="http://www.w3.org/2000/svg" viewBox="0 0 40 40">
	<path fill="#7a66a8" d="M10.2 9.5c-3.6 0-6.2.7-8.4 1.6l1.6 4.7c2-.7 3.6-1.1 6-1.1 2.9 0 4.7 1.5 4.7 4v.4c-1.5-.5-3.1-.9-5.3-.9-5.2-.2-8.8 2-8.8 6.7 0 4.2 3.3 6.5 7.5 6.5 3.1 0 5.1-.9 6.5-2.7v2.4h5.8V18.7c0-2.7-.7-5.1-2.4-6.7-1.4-1.6-3.8-2.5-7.2-2.5zm3.8 14c0 2.2-1.8 3.8-4.9 3.6-2 0-3.3-.9-3.3-2.7 0-2 1.6-2.9 4.4-2.9 1.5 0 2.9.4 4 .9v1.1H14zM28.7 2.7l-2.7 4c5.5 3.8 7.8 7.5 7.8 13.1s-2.4 9.3-7.8 13.1l2.7 4.4C36.2 33.1 40 27.6 40 20c0-7.8-3.8-13.3-11.3-17.3z"/>
</svg>
