<?xml version="1.0" encoding="utf-8"?>
<!-- Generator: Adobe Illustrator 25.4.1, SVG Export Plug-In . SVG Version: 6.00 Build 0)  -->
<svg version="1.1" id="Layer_1" xmlns="http://www.w3.org/2000/svg" xmlns:xlink="http://www.w3.org/1999/xlink" x="0px" y="0px"
	 viewBox="0 0 40 40" style="enable-background:new 0 0 40 40;" xml:space="preserve">
<style type="text/css">
	.st0{fill:url(#SVGID_1_);}
	.st1{fill:#433A31;}
</style>
<linearGradient id="SVGID_1_" gradientUnits="userSpaceOnUse" x1="37.2216" y1="10.0273" x2="2.7216" y2="29.9273" gradientTransform="matrix(1 0 0 -1 0 39.8898)">
	<stop  offset="0" style="stop-color:#A1742B"/>
	<stop  offset="0.5216" style="stop-color:#EADC66"/>
	<stop  offset="1" style="stop-color:#A1742B"/>
</linearGradient>
<path class="st0" d="M20,39.9c11,0,20-9,20-20C40,8.9,31,0,20,0C9,0,0,9,0,20C0,31,9,39.9,20,39.9z"/>
<g>
	<path class="st1" d="M33.1,6.9C25.9-0.5,14-0.5,6.8,6.7C-0.5,14-0.4,25.8,6.9,33.1c7.3,7.3,19.2,7.3,26.4,0.1
		C40.5,25.9,40.4,14.1,33.1,6.9z M28.9,28.8c-1.3,1.3-3.5,1.3-4.9-0.1c-1.5-1.3-1.5-3.6-0.1-4.9c1.3-1.4,3.6-1.4,5,0
		C30.3,25.1,30.3,27.4,28.9,28.8z M32.8,20c-3.3-3.3-8.7-3.5-12.2-0.4c0,0-0.1,0.1-0.2,0.2c-0.2,0.2-0.6,0.5-0.7,0.7
		c-3.5,3-8.8,2.9-12.2-0.5C4,16.5,4,10.9,7.4,7.4c6.9-6.9,18.2-6.9,25.1,0.1c6.3,6.3,7,16.1,1.8,23.1C36.1,27.2,35.6,22.8,32.8,20z"
		/>
	<path class="st1" d="M11,10.8c-1.4,1.3-1.4,3.6,0,4.9c1.3,1.3,3.6,1.3,5,0c1.4-1.4,1.4-3.6,0-4.9C14.6,9.5,12.4,9.4,11,10.8z"/>
</g>
</svg>
