<svg xmlns="http://www.w3.org/2000/svg" viewBox="0 0 40 40">
	<path fill="#02ace2" d="M4.5.5c0-.2-.1-.3-.2-.5-1 1.6-1.8 3.1-2.7 4.7-.4.8-.6 1.8-.9 2.6-.1.5-.2.8-.2 1.2v1.8c0 .1.1.2.1.3.2 1.6.6 3 1.5 4.4 2.4 4.3 4.9 8.5 7.4 12.9.1.1.2.2.3.4.7-1.3 1.5-2.4 2.1-3.7 2.1-3.7 2.1-7.6 0-11.3C9.4 8.9 7 4.7 4.5.5z"/>
	<path fill="#fe720a" d="M37.4 15.1c-2.2-3.7-5.5-5.6-9.8-5.6H12.5c.1.2.2.3.2.4.6 1.2 1.3 2.2 1.9 3.4 2.1 3.6 5.4 5.5 9.6 5.5h15.3c-.1-.2-.2-.3-.2-.4-.6-1.2-1.3-2.2-1.9-3.3z"/>
	<path fill="#0062a4" d="M27.3 21.2h-4.4c-4.3.1-7.6 1.9-9.8 5.6-2.4 4.1-4.9 8.4-7.3 12.7-.1.1-.2.3-.3.5h4.4c4.4 0 7.6-1.9 9.8-5.6 2.4-4.1 4.9-8.4 7.3-12.7.2-.2.2-.3.3-.5z"/>
</svg>
