<svg xmlns="http://www.w3.org/2000/svg" viewBox="0 0 40 40">
	<path fill="#6059F4" d="M11.6863 5.79781 1.3066 23.7694c-3.70882 6.3971.92097 14.4121 8.31371 14.4121H30.3798c7.3927 0 12.0224-8.015 8.3136-14.4121L28.3138 5.79781c-3.684-6.397079-12.9187-6.397079-16.6275 0Z"/>
	<path fill="#fff" d="M6.88315 25.2881c-1.39384 2.4145-.57244 5.5015 1.84147 6.8959 2.41458 1.3932 5.47668.5718 6.89528-1.8427l9.3092-16.1046c1.3939-2.4145.5725-5.50143-1.8421-6.89463-2.4139-1.39448-5.5008-.57307-6.8946 1.84146L6.88315 25.2881ZM33.8398 27.602c0 3.1073-2.5184 5.6263-5.625 5.6263-3.1074 0-5.6257-2.519-5.6257-5.6263 0-3.106 2.5183-5.625 5.6257-5.625 3.1066 0 5.625 2.519 5.625 5.625Z"/>
</svg>