<svg viewBox="0 0 40 40" xmlns="http://www.w3.org/2000/svg">
	<g fill="#216B36">
		<path d="M21.1917 3.44373c-.618 0-.9712 0-1.3244.08829 1.7659.4415 2.2957 1.23619 3.1787 2.64897l7.5054 11.12561 2.7373-2.4723-5.2096-7.94692c-1.8543-2.73726-4.8565-3.44365-6.8874-3.44365z"/>
		<path d="M20.0438 0C8.91818 0 0 8.91818 0 19.9555c0 11.0374 8.91819 20.0439 19.9555 20.0439 11.0374 0 20.0439-8.9182 20.0439-19.9556C40.0877 9.09478 30.9929 0 20.0438 0zm17.9247 21.8098l-3.7086-5.5628-11.1256 10.066c-3.9735 3.6203-9.0948 9.2714-12.5384 3.0022-2.29581-4.15-1.76601-11.3022.9712-14.8342 1.766-2.1192 4.3267-2.1192 6.0044.3532l6.0926 9.0948 2.7373-2.4724-4.1501-6.3575c-2.1192-3.0905-4.7681-4.4149-7.4171-4.4149-2.2958-.0883-4.3266.7063-6.09262 2.1191-5.20963 4.1501-5.47452 13.1566-1.32448 18.2779 4.7681 5.8277 11.5671 3.9734 16.6885-.6181l9.5363-8.565 3.1787 4.8564c-.0883.2649-.2649.5298-.3532.883l-2.5606-3.8851-2.8256 2.6489 3.267 4.8565c-.2649.3532-.5298.6181-.7947.9713l-3.4436-5.2097-2.7373 2.649 3.4437 5.1213c-3.0022 2.2958-6.799 3.6203-10.8608 3.6203-9.8894-.0883-18.01292-8.2118-18.01292-18.1013 0-10.066 8.12352-18.01293 18.10122-18.01293 9.9778 0 18.013 8.12353 18.013 18.10123 0 .3532-.0883.883-.0883 1.4128z"/>
		<path d="M17.13 3.97339c-1.4128 0-2.8255.35319-4.0617 1.05958 2.1192-.26489 3.9734.6181 5.3862 2.64897l8.7416 12.97996 2.7373-2.4724-7.8586-11.83204c-1.2362-1.85428-3.0022-2.38407-4.9448-2.38407z"/>
	</g>
</svg>
