<svg xmlns="http://www.w3.org/2000/svg" viewBox="0 0 40 40">
	<path fill="#00753a" d="M6.8 7.5c-.2.2.1.4.2.4 2.2.8 2.6 1.7 2.9 3.4.1.6.2 1.2.1 1.8 0 .1 0 .2.1.3 0 .1.1.1.2.2.1 0 .2.1.3.1.1 0 .2 0 .3-.1L20 8.1c3.8 2.3 4.9 2.9 7.7 4.5.5.3 1 .6 1.6.9.1 0 .2.1.3.1.1 0 .2 0 .3-.1.1 0 .1-.1.2-.2 0-.1.1-.2.1-.3-.2-1.1 0-2.3.5-3.4.2-.5.6-.9 1-1.2.3-.2.8-.4 1.3-.5.3-.1.4-.4.2-.5-.9-.5-1.6-.9-2.3-1.3-1.1-.6-2-1.1-3.1-1.7-.3 0-.4.1-.4.2 0 .5 0 .9-.1 1.4-.1.4-.3.7-.5 1-.2.3-.6.5-.9.6-.4.1-.8 0-1.1-.1-.4-.2-.6-.5-.8-.9-.1-.3-.1-.6 0-.9.1-.6 1-1.4 1.8-1.9.1-.1.2-.3 0-.4-1.2-.7-2-1.2-2.7-1.6C22 1.1 21.4.8 20 0l-1.5.9c-1.3.7-2.7 1.5-4.3 2.5-.2.2-.1.3 0 .4 1.4 1 1.7 1.6 1.9 2.2.3 1.1-1.2 1.8-1.9 1.6-1.6-.3-1.6-2.2-1.6-2.9v-.1c0-.1-.1-.1-.2-.2l-.1-.1-.3.3C9.8 5.8 8.9 6.3 6.8 7.5zm4.2 5.2c-.2.1-.5.2-.4-.2.4-1.6-.8-4.4-2.6-5l4-2.2c0 .6.1 1.3.4 1.8 1 1.8 4.6 1.3 4.3-1.2-.2-.8-.8-1.6-1.5-2.1v-.1c-.1-.1-.2-.3.1-.4 1-.6 2-1.1 3-1.7.6-.3 1.1-.6 1.7-1 1 .6 2 1.1 4.6 2.7.3.2.2.4.1.5-1 .9-1.9 1.9-1.3 3.1.2.4.6.7 1 .9.4.2.8.3 1.3.3s.9-.2 1.3-.5.7-.7.9-1.1l.1-1.2c1.3.8 1.8 1 2.8 1.6.3.2.7.4 1.2.6-.6.3-1.2.7-1.6 1.2-.4.5-.8 1.1-.9 1.8-.2.6-.2 1.3-.1 2 0 .2 0 .4-.4.2-1.1-.7-2-1.2-2.8-1.7-1.9-1.1-3.4-2-6.2-3.6-3.2 2-5.8 3.5-9 5.3zm-1.3 2.9c-.1-.3-.2-.5.1-.7.3-.1.6-.3 1-.5.3-.2.6-.3 1-.5.7-.4 1.9-1.1 3.2-1.9 1.7-1 3.7-2.2 5.1-2.9 2.4 1.4 3.3 2 4.6 2.6.9.5 2 1.1 3.8 2.2.6.3 1.3.6 1.8 1 .1.1.1.2.1.3v.4c-.5 1-.1 3 .1 4H30c-.4-1.3-.6-2.6-.3-3.9.1-.2.1-.3 0-.4-1.4-.6-2.7-1.3-4-2.1-1-.6-1.8-1-2.6-1.5-1-.6-1.9-1.2-3.2-1.8-3.1 1.9-6.4 3.8-9.7 5.5v.3l.1 1-.1.9-.3 2.1c-.4 2.1-.9 4.4.3 7.7.9 2.5 2.4 4.8 4.4 6.6 0 0-.1.1-.1.2s-.1.2-.2.3C12.1 32.2 9.7 29 9.2 26c-.5-2.9-.1-5.2.3-7 .3-1.5.5-2.6.2-3.4zm1.3.1c.3 1.2-.2 3.8-.6 5.6-.1.8-.3 2.4.4 3 .2.1.3.1.5.1s.3 0 .5-.1.3-.2.5-.3c1.8-1 4.6-2.6 5.8.4 1 2.7 1.3 7.3 1 10.4-.2-2.1-1-10.2-4.7-9.1-1.3.4-2.9.8-4-.3.7 3 2.2 5.8 4.4 7.9.2-.6.3-1 .5-1.3.1-.2.1-.4.2-.7-.2-.6-.5-1.1-.7-1.7-.5-1-1-2-1.1-3.1.1 0 .3 0 .5-.1.3-.1.7-.2.9-.1.4.1.8.4 1 .7.3.3.4.8.4 1.2v6.7l3.3 3.1V10.8c-.5.3-1 .6-1.5.8-3 1.7-4.5 2.6-7.3 4.1zm3.1 2.1c.2-.5.5-.9.9-1.1.4-.3.9-.4 1.4-.4v5.5c-1-.1-2 .1-2.8.6-.5-1.1.1-3.9.5-4.6zm16.2 5.1c-.1.3-.3.7-.6.9 0 0-.1.1-.1.2 0 0 0 .1-.1.1-.8.6-1.9 0-2.9-.6-.4-.2-.8-.5-1.2-.6-.3-.2-.7-.2-1.1-.2-.4 0-.7.1-1.1.2-.3.2-.6.4-.9.7-.2.3-.4.6-.5 1-.5 1.5-.9 3.1-1 4.7-.1 1.9-.1 3.8 0 5.7.1-.5.1-1 .2-1.5.1-1.5.3-3.1.8-4.5.8-2.1 2-4.1 4.4-3.1.5.3 1.1.4 1.7.3.6-.1 1.1-.3 1.6-.6l-.6 2.2c-.7 1.9-1.8 3.7-3.2 5.2-1.7 1.9-3.4 3.7-5.3 5.4V10.8c4.5 2.6 5.8 3.3 8.7 4.8-.1 1.3 0 2.5.2 3.7-1.7-.9-2.4-1.3-3.6-2-.5-.3-1.2-.6-2.1-1.1v5.5c1.2-.3 1.8.1 2.7.6.6.4 1.3.8 2.3 1.2.9-.1 1.2-.9 1.5-1.7.1-.2.2-.4.2-.6h.4c1.6 5-2.9 11.2-6.5 14.4-.7.6-1.4 1.4-2.2 2.2-.7.7-1.4 1.5-2.1 2.1L19 39c-.7-.7-1.6-1.5-2.8-2.7-.1-.1-.1-.3 0-.5v-.2c.3.3.6.6.9.8.7.7 1.5 1.4 2.8 2.7l1.5-1.5c2.7-2.6 5.8-5.5 7.5-8.8 1.2-1.6 1.7-3.8 1.4-5.9zm-6.6 9.7c1.4-1.7 2.3-3.8 2.7-5.9-1.2-.6-1.9-.1-2.6.8-.1 1.8-.1 2.5-.1 5.1z"/>
	<path fill="#fc0" d="M12.4 7.9c-.4-.5-.7-1.1-.9-1.8-.7.4-1.6 1-2.3 1.4.7.5 1.2 1.1 1.6 1.9.4.7.6 1.5.7 2.4 1.9-1.1 4-2.3 5.6-3.3.8-.5 2-1.2 2.9-1.7 2.9 1.7 5.6 3.2 8.6 5 .4-2.2 1-3.3 2.3-4.2-.7-.4-1.6-1-2.3-1.4-.1.5-.3.9-.5 1.3-.5.6-1.1 1-1.8 1.2-.7.2-1.5.1-2.2-.2-.4-.2-.7-.4-1-.8-.3-.3-.4-.7-.4-1.2s.1-1.1.4-1.6c.3-.5.6-.9 1.1-1.2C23 3 21.1 2 20.1 1.4 18.9 2 17 3 16 3.7c.6.4 1 1 1.3 1.6.1.3.2.6.2.9 0 .3-.1.6-.2.9-.2.4-.6.8-.9 1-.4.3-.8.4-1.3.5-.5.1-.9.1-1.4-.1-.5-.1-.9-.3-1.3-.6z"/>
</svg>
