<svg xmlns="http://www.w3.org/2000/svg" viewBox="0 0 40 40">
	<path fill="#004380" d="M39.1 19.3c-1.8-3.3-5-2.3-7.8-.7-1-4.3-1.1-5.1-5.1-6.2v-1.1c-1.2.4-2.6.8-3.8 1.6.9.7 1.9 1.3 2.8 2 .4-.3.8-.5 1-1 3.3.5 2.8 3 3.3 6-1.6 1.2-2.9 2.6-3.7 3.6-.6-.5-1.8-.8-1.8.9-2.2 1.6-3.8 1-5-.6 1-.3 1.7-1.1 1.5-2.9.7-.8 1.6-1.5 1-2.8.8-.5 1.2-1.4.9-2.9.5-.5.6-1.1 0-1.9-.1-.8-.2-1.7-.2-2.5-.4 0-.8-.2-1.2-.7.2-1.7-.8-1.8-2-1.5-.7-.2-1.5-.5-2.2-.7-.4-.4-.8-.6-1.2-.9-.2.4-.1 1 .2 1.6-.3 0-.7 0-1 .1-.4 1.1-1.9 1.5-2.4 2.5-.3.2-.7.4-1.1.4-.3 0-.5.2-.5.6 0 .3.1.8.1 1.1.5.3.6.3.9.7l.6-.3v.7c.1.2.4.3.8.2.2-.3.4-.4.5-.7.2-.4 1.3-.5 2-.7.4.5 1.1.5 2 .4-.8.5-1.1 1.2-1.5 2.1-.6 1.2-3.3 2.4-3.6 4-.5 1.9-3.3 2.7-3.2 5.5-.5-.7-1.1-1.5-1.6-2.2-.5-.1-1 0-1.4.1l-.6.6c-.2.5-.2 1-.1 1.5h-1c-.9 2.3-2.9 1.8-4.4 3.7-.3.1-.3.4-.2.6.2.1.5.3.7.4.8.3 1.6.2 2.4 0 .5-.1 1.2-.1.7-1 .4.2.8.3 1.2.2.9-1.1 1.2-2.8 2-3.6.3.1.5.3.7.8C9.9 35.9 22.3 36 28 29.2c.8-1 2.9-.5 4.4-1.9-.6-.5-1.2-.3-1.7-.9.4-.7.8-1.3 1.2-1.8l.2.2c2.1 2.1 10.2.6 7-5.5zm-19.7 5.9c.5.2 1.7.7 1.8 1.1.1.8-.7.9-.7.6 0-.6-.6-.9-1.2-1.2-.2-.2-.1-.5.1-.5zm3.2.8c-.1-.4.7-.4.7 0 0 3.6-2.3 4.5-4.5 5.6-.1.1-.3-.2 0-.4 2.2-.9 4-2.2 3.8-5.2zm-3.1-3.6c-.1.2-.5 0-.5-.1.2-.5 0-.7 0-1 0-.1.6-.6.6.2 0 .3.1.6-.1.9zm1.5-3.8c-.2.2-.2.6-.5.9-.2.2-.6-.1-.5-.3.4-.4.2-.7.4-1 .1-.2.8-.5.6.4zm1.2-4.9c-.1.2.1.5 0 .8-.1.2-.5.1-.4 0 .1-.4-.1-.6-.2-.8 0-.2.4-.7.6 0zm-.3 2.3c-.2.2.1.5-.1.8-.1.2-.6.1-.6-.1.2-.5 0-.6 0-.9 0-.1.6-.6.7.2zm-1.6-5.2c.1-.1.4-.6.4-.2 0 .6.8.6.7.8-.3.7-1.3-.3-1.1-.6zm-1.2 7.8c0-.1.1-.2.1-.3l1.6-5.8.5.1c-.1 2.3-.5 3.9-1.6 5.9l-1.8 6.6-.3-.3c-1.3-1.3.1-4 1.5-6.2zm-2.7-6c-.1.1-.2.6-.3.3-.2-.6-.9-.4-.9-.6.1-.7 1.4-.1 1.2.3zm-1.2-2.1c-.6 1.4-2.3 1.9-3.3 2.3-.3 0-.8-.5-.2-.7.3-.1 1.2 0 1.5-.5.1-.2 0-.7.2-.8.8-.2 2-1.8 2.7-2-.1-.5 0-.8 0-1 .7 1.1 3.2.8 2.8 2.7-.1.3-.2.3-.2 0-.3-1.7-2.8-1.4-3.5 0zm1.8 4.6c.5-.3.5-.5.7-.8.1-.1.9-.1.4.7-.3.1-.4.5-.8.6-.2 0-.4-.4-.3-.5zM10.4 29c-1.4-1.6-1.8-3.7-3.2-4.7-.1-.3-.6-.3-.7.2 0 .3-.5 0-.4-.2 0-.4.1-.6.4-.5.4 0 .8-.3 1.3.3 1.3 1.3 1 2 3.4 4 .7.5 0 1.8-.8.9zm.5-5.4c0 .1-.1.2-.2.2h-.1c-.1-.1-.2-.2-.1-.4.2-.5.6-.8 1-1.2.3-.2.5-.5.7-.8.1-.1.2-.2.4-.1.1.1.2.2.1.4-.2.4-.5.6-.8.9-.5.3-.8.6-1 1zm3-4.9c.3-.6.8-1 1.5-1.5.1-.1.3-.2.4-.3l.9-.8.4.4-.9.9-1.9 1.6-.4-.3zm14.3 8.4c-.5.9-1.1.8-.6-.3.1-.8-.4-.7-.6 0-1 2.3-1.9-.1-1.7-2 .1-.4-.4-.3-.4 0 .4 7.4-6.7 8.7-9.6 8.3-.4-.1 0-.4.2-.3 4.4.4 8.8-2.3 9-8.5.1-.8 1.2-.3 1.4.2.2.6 0 .9.1 2.1.1.6.5.6.6.3.1-.8.6-1 .8-1.1.4-.3 1 .8.8 1.3zm.2-1.3c.2.1.5 0 .7.1.2.1.1.5-.1.4-.4-.2-.6 0-.8 0-.1 0-.4-.4.2-.5zm1.6 1.6c-.6 0-.7.2-1.1.3-1 .1.1-1.1 1.1-.9.2.1.2.6 0 .6zm.5-1.9c-.4.5-.5-.2-.3-.5 1.4-1.7 2.6-3 3.7-4 .1-.1.2.2.1.3-1.2 1.2-2.4 2.6-3.5 4.2zm2.9-2.8c1.1-1.4 2.7-2.7 3.6-1 .1 1.6-2 1.9-3.6 1z"/>
</svg>