<svg xmlns="http://www.w3.org/2000/svg" viewBox="0 0 40 40">
	<path fill="#009882" d="M15.2.5v11.4c0 1 .1 1.5 1.3 1.5h2.1c1.2.1 1 1.1 1 2.1v4.7c-.4-.9-1.7-.6-2.7-.5h-.1c-.9.1-1.7.1-2.6-.1-.5-.1-.7-.4-.9-.9V5.5c-5.5 2.6-9.2 8.3-9.2 14.6 0 7.7 5.9 14.6 13.5 15.8h.2v-8.3c0-.4.1-.9-.2-.9H17c-.7 0-1.2 0-1.6.1h-.2c-.7.1-1.7-.1-1.8-1v-6.1c0 .4.2.6.5.6 1 .2 2.2.1 3.2 0l.6-.1c.9-.1 1.7-.1 2 .7v5.5h.9v-5.5c0-.7 1.1-.9 2.6-.7h.2c1.5.2 3.3.2 3.3-.7v6.1c0 1.6-3.7.7-4.3.9-.2.1-.2.5-.2.7v8.5c7.7-1.1 13.7-8 13.7-15.8 0-6.1-3.6-11.8-9.1-14.5l-.1-.1v13.1c0 .5-.2.9-.6 1-1 .2-2.3.1-3.3 0h-.4c-.9-.1-1.5-.1-1.8.5v-4.7c0-.6-.2-1.8.5-2.1.7-.2 3.9.6 3.9-.6V.2c8.2 2.3 14.5 9.7 15 18.4.6 10.3-7 19.7-17.3 21.1C11.4 41.3.9 32.6 0 21.1-.6 11.8 5.9 2.8 15.2.5zm7-.4v12.4h-4.4L17.9.1h4.3z"/>
</svg>
