<?xml version="1.0" encoding="utf-8"?>
<!-- Generator: Adobe Illustrator 25.4.1, SVG Export Plug-In . SVG Version: 6.00 Build 0)  -->
<svg version="1.1" id="Layer_1" xmlns="http://www.w3.org/2000/svg" xmlns:xlink="http://www.w3.org/1999/xlink" x="0px" y="0px"
	 viewBox="0 0 40 40" style="enable-background:new 0 0 40 40;" xml:space="preserve">
<style type="text/css">
	.st0{fill:#044B98;}
</style>
<path class="st0" d="M20,10C9,10,0,14.4,0,19.7c0,5.3,9,9.7,20,9.7c11,0,20-4.3,20-9.7C40,14.4,31,10,20,10z M22.7,26.6
	c-5.9,2.4-12.2,1.7-13.9-2.4c-1.8-4.1,2-9.5,7.4-11.7c3.3-1.4,7.1-1.7,10-0.9c-5.8,2.9-11.7,5.9-17.6,8.8c7-2,12.4-1.2,14.8,5.9
	C23.2,26.4,23,26.5,22.7,26.6z M23.5,26.3c0.5-2.4,0.9-4.8,1.4-7.2c0.5-2.5,0.9-4.9,1.4-7.4c1.8,0.5,3.2,1.5,3.9,3.1
	C32,18.5,28.9,23.7,23.5,26.3z"/>
</svg>
