<svg viewBox="0 0 40 40" xmlns="http://www.w3.org/2000/svg">
	<path fill="#0075BE" d="M37.9 22.56L31.72 20 40 16.57l-2.56-6.18c-.48-1.16-1.81-1.71-2.97-1.23l-6.18 2.56 3.43-8.28L25.54.88c-1.16-.48-2.49.07-2.97 1.23L20 8.28 16.57 0l-6.18 2.56c-1.17.48-1.72 1.81-1.24 2.97l2.56 6.18-8.28-3.43-2.56 6.18c-.48 1.16.07 2.49 1.23 2.97L8.28 20 0 23.43l2.56 6.18c.48 1.16 1.81 1.71 2.97 1.23l6.18-2.56-3.43 8.28 6.18 2.56c1.16.48 2.49-.07 2.97-1.23L20 31.72 23.43 40l6.18-2.56c1.16-.48 1.71-1.81 1.23-2.97l-2.56-6.18 8.28 3.43 2.56-6.18c.49-1.17-.06-2.5-1.22-2.98zM21.82 24.4L20 31.71l-1.82-7.31-6.46 3.88 3.88-6.46L8.28 20l7.31-1.82-3.88-6.46 6.46 3.88L20 8.29l1.82 7.31 6.46-3.88-3.88 6.46L31.71 20l-7.31 1.82 3.88 6.46-6.46-3.88z"/>
</svg>
