<svg viewBox="0 0 40 40" xmlns="http://www.w3.org/2000/svg">
	<g fill="#30445A">
		<path opacity=".4" d="M31.5877 3.80281c.1139.11107 1.5482.64419 1.2181.3221-.3302-.43317-.7741-.75527-1.2181-.97741C7.78529-10.0252-10.815 21.5182 7.22751 35.6794c.66023.5443 1.10418.8664 1.33185.9774.21628 0 4.31424 2.9211 1.21801-1.7326C-1.29857 17.7419 11.9857-5.38255 31.5877 3.80281zM40 17.6308c-.2163-2.4879-.8879-4.9647-2.1059-7.2416-7.7406-9.07432-37.303045.2221-27.1264 23.5576.3301.6442.6602 1.0773.8879.9774.2163-.1111 1.1042-.2111 1.0017-.8664C9.99365 15.7982 33.3635 11.3666 40 17.6308zM16.0837 36.4347c.1138.5442.1138.6442.3301.7553.1139 0 2.2198.6442 2.2198.111.6602-5.62 16.3919-11.4511 17.4961-6.5863 1.3318-2.0548 2.7661-4.1096 3.4377-6.5864 0-.3221.1139-.4331.1139-.4331-1.3319-4.4428-27.5817-.0111-23.5976 12.7395z"/>
		<path d="M37.7917 10.5002c-1.662 4.6426-17.0522-3.45425-19.3744-7.88588-.2163-.43317-.444-.54423-.5578-.54423-.1138.11106-.3301.21103-.4439.75526C15.9813 9.41171 31.2576 21.4071 40 18.386v-.5442c-.2163-2.699-.9903-5.1758-2.2083-7.3416zM12.8736 4.44695c.1139-.6442.2163-.9774 0-1.18843-.2162-.11107-.5577.21103-1.1041.86633C2.25303 16.7644 23.1755 36.0015 36.6875 31.0256c1.4343-2.1658 2.436-4.5427 2.9938-7.0195-7.4219 5.3979-29.1299-7.4527-26.8077-19.55915zm-2.5384-2.04366c.5577-.54423 1.218-.9774 1.0017-1.07736-.1138 0-.7741.21103-1.54813.64419C-5.04366 10.0781-1.61729 35.3573 17.7571 39.8889c.5577 0 1.1041.111 1.6619.111 2.3222 0 4.542-.4331 6.6479-1.0773 1.8782-.6442 2.8799-1.1885 4.7582-2.2658.2163-.1111.4439-.211.5578-.4332C14.5356 41.2883-4.95259 16.3313 10.3352 2.40329z"/>
	</g>
</svg>
