<svg xmlns="http://www.w3.org/2000/svg" viewBox="0 0 40 40" style="enable-background:new 0 0 40 40" xml:space="preserve">
  <path d="M20 0C9 0 0 9 0 20s9 20 20 20 20-9 20-20S31 0 20 0zM4.3 20c0-7.9 5.8-14.4 13.3-15.5v7.3h-3.3c-2.5 0-4 1.8-4 4.3v7.7c0 2.5 2 4.4 4.5 4.4h2.7v7.4C10.1 34.4 4.3 27.9 4.3 20zm10.9 3.9s-.2 0-.3-.2c-.1-.2-.1-.3-.1-.3v-6.7s0-.2.1-.4c.1-.1.3-.1.3-.1h9.4s.2 0 .3.1c.2.1.2.4.2.4v6.9s-.1.2-.2.3c-.1.1-.2.1-.2.1h-2.5l-7-.1zm7.1 11.6v-7.4h2.9c2.5 0 4.3-1.8 4.3-4.3v-7.7c0-2.5-2-4.3-4.4-4.3h-2.8V4.5c7.6 1.1 13.4 7.6 13.4 15.5s-5.8 14.4-13.4 15.5z" style="fill:#b10a32"/>
</svg>
