<svg viewBox="0 0 40 40" xmlns="http://www.w3.org/2000/svg">
	<g fill="#C4122F">
		<path d="M31.6701 29.8182v1.1429c0 2.1818-5.0909 3.948-11.3246 3.948-6.2338 0-11.32472-1.7662-11.32472-3.948v-1.1429H31.6701z"/>
		<path d="M9.02078 38.6494c0-.3117 5.09092-.6234 11.32472-.6234 6.2337 0 11.3246.3117 11.3246.6234v.7273c0 .3116-5.0909.6233-11.3246.6233-6.2338-.1039-11.32472-.4156-11.32472-.7272v-.6234z"/>
	</g>
	<linearGradient id="gr1" x1="16.1698" y1="15.5842" x2="28.8895" y2="2.86441" gradientUnits="userSpaceOnUse">
		<stop stop-color="#E11837"/>
		<stop offset="1" stop-color="#F15A22"/>
	</linearGradient>
	<path fill="url(#gr1)" d="M31.1506 15.0649c2.078-5.92204-1.0389-12.3636-6.961-14.441524C23.0883.218182 21.9351 0 20.761 0h-.8311c-4.4676.207792-8.6234 3.11688-10.28575 7.58441C7.56623 13.5065 10.6831 19.948 16.6052 22.026c1.0389.3117 2.0779.5194 3.1169.6233h1.3506c4.4675-.2077 8.4156-3.1168 10.0779-7.5844z"/>
	<linearGradient id="gr2" x1="14.859" y1="30.8265" x2="33.4933" y2="27.743" gradientUnits="userSpaceOnUse">
		<stop stop-color="#E11837"/>
		<stop offset=".9843" stop-color="#F15A22"/>
	</linearGradient>
	<path fill="url(#gr2)" d="M20.3247 33.8597c6.2544 0 11.3246-1.763 11.3246-3.9377s-5.0702-3.9376-11.3246-3.9376C14.0702 25.9844 9 27.7473 9 29.922c0 2.1747 5.0702 3.9377 11.3247 3.9377z"/> 
</svg>
