<svg viewBox="0 0 40 40" xmlns="http://www.w3.org/2000/svg">
	<g fill="#50B848">
		<path d="M18.9925 0v9.05471L26.3609 0h-7.3684zM3.12646 4.30798c.51392-.82613 1.06607-1.47785 1.83054-2.09039l.58041-.39412c.54861-.2984 1.04519-.4969 1.65869-.64947.37163-.06649.71404-.10278 1.09691-.11531.51168.01703.9498.08126 1.44702.20396.34887.11146.66457.23641.99577.39347.7522.415 1.3243.88203 1.9002 1.51415l.4327.54638c.6347.92924 1.0452 1.8498 1.348 2.92519l.1639.73106c.0215.1166.0395.23254.0539.344V0H2v7.73778c.15675-.85344.40793-1.97411.79305-2.80442l.33341-.62538zM31.628 1.25159L18.9925 16.7802v3.5232c.0148-.1137.034-.228.0533-.3433l.1632-.7298c.3038-1.076.715-1.9976 1.3487-2.9271l.4327-.5486c.493-.5358.9723-.9508 1.5915-1.3398.3187-.1779.6283-.3231.9617-.4583.7442-.2342 1.3806-.3248 2.1659-.3013l.7272.106c.6084.1522 1.1053.3507 1.6513.6533.3032.1869.5766.3851.8541.6067.8216.7375 1.3937 1.5219 1.8944 2.499l.2862.6585c.231.6215.3964 1.5353.5056 2.1504-.0003 0-.0003-19.07751-.0003-19.07751z"/>
		<path d="M25.3351 26.9529c-1.7827 0-3.2352-2.2757-3.2352-5.0692 0-2.7919 1.4525-5.0676 3.2352-5.0676 1.7849 0 3.239 2.2757 3.239 5.0676 0 2.7935-1.4541 5.0692-3.239 5.0692zm0-11.4589c-2.5253 0-4.5833 2.8693-4.5833 6.3897 0 3.5204 2.0583 6.392 4.5833 6.392 2.524 0 4.5852-2.8716 4.5852-6.392.0019-3.5188-2.0612-6.3897-4.5852-6.3897z"/>
		<path d="M19.209 24.5413l-.1632-.7329c-.0193-.116-.0385-.2297-.0533-.3415v7.7185H31.628v-7.6803c-.1593.8557-.4089 1.9141-.7918 2.7463l-.3376.6264c-.5139.8232-1.0644 1.4724-1.8279 2.0878l-.583.3919c-.5464.3022-1.043.4985-1.6513.651-.3771.0665-.7205.1035-1.1014.116-.5101-.017-.9508-.079-1.4477-.204-.3485-.1121-.6649-.2373-.9957-.3918-.7523-.4176-1.325-.8834-1.9015-1.5145l-.4327-.5502c-.6334-.9261-1.0423-1.8492-1.3484-2.9227zM14.6352 10.8806c-.0142.1137-.0325.2274-.054.344l-.1638.7304c-.3029 1.0761-.7134 1.9982-1.3481 2.9252l-.433.549c-.4901.5351-.9739.9498-1.5938 1.3413-.3154.1741-.6238.3203-.961.4561-.74683.2364-1.37671.327-2.16141.2984l-.72431-.1005c-.61318-.1529-1.11008-.3511-1.65869-.654-.30161-.1892-.57431-.3874-.85183-.6083-.82389-.7398-1.3937-1.519-1.89285-2.499-.39894-.9167-.61446-1.7811-.79241-2.7704v19.0387l12.6352-15.5241v-3.5268z"/>
		<path d="M8.29301 14.3661c-1.78332 0-3.23965-2.2747-3.23965-5.0663 0-2.7919 1.45633-5.0718 3.23965-5.0718 1.78079 0 3.23199 2.28022 3.23199 5.0718 0 2.7916-1.4512 5.0663-3.23199 5.0663zm0-11.45631c-2.52529 0-4.58549 2.86866-4.58549 6.38968 0 3.51843 2.0602 6.38743 4.58549 6.38743 2.52239 0 4.58069-2.8693 4.58069-6.38743 0-3.5207-2.0583-6.38968-4.58069-6.38968zM14.6351 22.1331l-7.36868 9.0524h7.36868v-9.0524zM31.2624 0h-3.5509L2.38043 31.1856h3.49855L31.2624 0zM17.9037 29.0391h-2.1675v2.1466h2.1675v-2.1466z"/>
		<path d="M32.7209 29.0391v2.1466c1.4811 0 2.6846 1.1871 2.6846 2.6512 0 1.465-1.2035 2.6521-2.6846 2.6521-1.0905 0-2.0869-.2444-4.157-.7529-4.0112-.9825-8.9497-2.1954-12.905-3.1654-7.10821-1.7422-13.62928.2341-13.65658 4.8521h2.16684c0-1.7169 3.32541-2.8562 10.44684-1.1117 6.1594 1.5113 8.4759 2.0795 13.1147 3.2172 3.0627.7506 5.5732.5698 7.3774-.2901l.0067.0068c1.8042-.876 3.0447-2.7103 3.0447-4.828.0003-2.9715-2.4363-5.3779-5.4386-5.3779z"/>
	</g>
</svg>
