<svg xmlns="http://www.w3.org/2000/svg" viewBox="0 0 40 40">
	<g fill="#02ac5d">
		<path d="M20 0C9 0 0 9 0 20s9 20 20 20 20-9 20-20S31 0 20 0zm0 39.3C9.4 39.3.7 30.6.7 20 .7 9.4 9.4.7 20 .7 30.6.7 39.3 9.3 39.3 20c0 10.6-8.7 19.3-19.3 19.3z"/>
		<path d="M28.9 18.4c-2.8-.3-2.8-.3-2.3-.7 1.2-.8 3-2.6 3.7-3.9.5-.8.5-1 .1-1.6-.6-1.1-1.2-1.2-2-1.4-.5-.1-1-.3-1.5-.6s-.8-.8-1.2-1.2c-.6-.7-1.2-1.4-2.1-1.4-1.6 0-2.3 2-2.8 3.4 0 .1-.1.2-.1.3-.4 1-.8 1.8-.8 1.8-.1 0-.5-.9-1-2.1-.4-1-1-2.1-1.6-2.9-1-1.5-3 .1-3.7 1.1-.7.9-1.2 1-1.8 1.2-.6.2-1.2.4-2.1 1.2-.5.7-.7 1.4-.4 2.2.5 1.4 3.1 3.6 4.1 4.2.3.2-.3.3-1.9.4-3 .2-3.9.5-4.5 1.3-.6.8-.5 1.7.4 3.1.5.7.7 1.4.8 2.7.2 2.3.6 3 1.9 3 3.7 0 7.6-3.8 9.5-6.7l.1 1.2c.1.7.4 1.9.8 2.7.9 2.1.9 3.5-.1 5.1-.7 1.2-.8 1.3-.3 1.6.4.4.5.3 1.2-1.1 1.1-2.1 1.2-3.6-.2-6-1-1.8-1-3.5-1-3.5s.1 0 .8 1.1c1.5 2.6 4.4 4.2 8.5 5.5 1.6.5 2.1-2 2.1-3 .1-1.5.3-2 .7-2.5.7-.8 1.1-2.2.8-2.8-.2-1.1-1.1-1.4-4.1-1.7z"/>
	</g>
</svg>