<svg xmlns="http://www.w3.org/2000/svg" viewBox="0 0 40 40">
	<path fill="#020168" d="M28 9.6l-3.2 1.7v3.2H22v3h2.8v9c0 2.4 1.4 4.1 3.6 4.2 1 0 2-.2 2.9-.7l.8-3.1-.1.1c-.7.5-1.6.8-2.4.8-1.1 0-1.6-.5-1.6-1.8v-8.5h3.3v-3H28V9.6zM8.3 14.3c-2.1 0-4.2.7-5.8 2.1-.8.8-1.5 1.7-1.9 2.8-.4 1.1-.6 2.2-.6 3.3 0 1.1.2 2.3.6 3.3.4 1.1 1.1 2 1.9 2.8 1.6 1.4 3.7 2.2 5.8 2.1 1.1 0 2.2-.2 3.1-.7s1.8-1.1 2.5-2l.1-.1-1.9-2.3-.1.1c-.5.5-1.1 1-1.8 1.3-.7.3-1.4.5-2.1.5-.7 0-1.3-.1-2-.4-.6-.3-1.2-.6-1.7-1.1-.5-.5-.8-1.1-1.1-1.7-.2-.6-.3-1.3-.3-2s.1-1.3.3-2c.2-.6.6-1.2 1.1-1.7s1-.9 1.7-1.1c.6-.3 1.3-.4 2-.3.7 0 1.5.2 2.1.5.7.3 1.3.7 1.8 1.3l.1.1 1.9-2.2v.1c-.7-.9-1.5-1.6-2.5-2-1-.5-2.1-.7-3.2-.7zm7.6.2h3.2v15.9h-3.2V14.5zm18.7 0h3.3v15.9h-3.2c0 .1-.1-15.9-.1-15.9z"/>
	<path fill="#ff0100" d="M39.8 11.7c-1.5-2.1-3.4-3.8-5.7-5S29.4 5 26.9 5s-5.1.6-7.3 1.8c-2.3 1.2-4.2 2.9-5.7 5l-.2.2h3.8c1.2-1.3 2.6-2.3 4.3-3s3.3-1.1 5.1-1.1 3.5.4 5.1 1.1c1.6.7 3.1 1.7 4.3 3H40l-.2-.3z"/>
</svg>