<svg viewBox="0 0 40 40" xmlns="http://www.w3.org/2000/svg">
	<path fill="#0057B6" d="M.690343 19.7816C.690343 9.24408 9.35281.676236 20 .676236c10.6539 0 19.3097 8.567844 19.3097 19.105364 0 10.5309-8.6558 19.0987-19.3097 19.0987-10.64719 0-19.309657-8.5678-19.309657-19.0987ZM0 19.7816c0 10.9051 8.97446 19.7749 20 19.7749 11.0256 0 20-8.8763 20-19.7749C40 8.86986 31.0256 0 20 0 8.97446 0 0 8.86986 0 19.7816Zm32.3197-1.6943-.086.0661c-1.1086.8403-2.8477 1.5166-5.2705 2.1534-2.8136.751-5.1953 1.1428-7.4762 1.518-1.7872.294-3.5124.5778-5.335 1.0162-.8032.1904-1.6528.4661-2.4361.7813.7833.3873 1.6131.742 2.4693 1.0637 1.6794-.4728 2.4893-.6894 4.9253-1.0965.9294-.1576 3.7969-.65 5.8613-1.0833 3.7372-.7944 9.2068-2.5014 7.7531-4.7402-.1224.1045-.2587.209-.4052.3213Zm-1.9977-4.9696c-.7899-.348-1.7856-.696-2.841-.9782-.478.3676-1.0289.6959-1.8122 1.0044.9683.1693 1.7599.4099 2.553.6507.2834.0862.567.1724.8589.2553.2058.1051 1.1019-.7353 1.2413-.9322Zm-18.3008 4.9437c2.5739-.7481 5.2142-1.2222 7.8958-1.7036 2.4014-.4312 4.8359-.8682 7.2852-1.5134-2.0179-.5384-3.1331-.7682-5.2772-.5253-3.1066.3612-6.5317 1.0309-9.459 1.8909l-.1231.0363c-1.3994.4123-7.01726 2.0674-5.32663 4.3691.00069.0034.01226-.0089.0368-.0347.21398-.2254 1.41322-1.4886 4.96813-2.5193Zm-3.35872 8.1412c-.01328.4333.25888.8271.85629 1.313.07302-.2363.17922-.4136.35844-.6368-.41818-.2036-.82973-.4333-1.21473-.6762Zm2.28342-.2167c.3651-.2167.8099-.4268 1.3143-.6303-.697-.2823-1.4072-.5909-2.1307-.9192-.3253.197-.61737.4202-.8497.6369.22304.1208.44396.2437.66488.3666.33132.1844.66272.3687 1.00122.546Zm18.7587-10.2552c-.9824.4531-2.3963.9192-4.4142 1.4247-.7611.1897-2.0232.4111-3.5857.6852-1.8444.3237-4.1072.7206-6.4575 1.2253-1.374.2955-5.0912 1.1621-6.92326 2.705.36254.2887.62488.4221.95049.5878.13344.0679.27752.1413.44347.2329.7634-.4793 1.7856-.9389 3.3123-1.3394 2.657-.7012 4.6393-1.0099 7.0363-1.3833l.0131-.002c2.3831-.361 6.8504-1.2934 9.3263-2.1732.8098-.2823 1.5599-.65 2.1176-1.0833-.1727-.1969-1.7658-.9519-1.8189-.8797Zm1.4405-.8798c.1003.0483.1981.0941.2938.1389.3733.1748.7155.335 1.0537.5702.3053-.5777.1194-.952-.5178-1.4838-.2455.2889-.531.545-.8297.7747ZM8.42351 23.5632c-.4381-.2363-.73017-.4005-1.09525-.6499-.19914.4136.17258.8863.56422 1.1095.09783-.1006.2049-.1875.31168-.2743.07433-.0603.14851-.1206.21935-.1853ZM29.1868 10.2486c-.0796.3283-.438.7091-.6836.9651.7368.1905 1.4736.4595 2.1839.7222-.0864-.6434-.8497-1.2737-1.5003-1.6873ZM6.22636 14.3585C11.3375 11.043 16.9931 9.11279 26.5781 10.7476c.5312-.302.8165-.5843.9559-1.20806-2.3962-.85351-4.9851-1.15551-8.3438-1.09642-3.0136.07878-8.4434 1.18833-11.33755 2.88228l.88285-1.0965c2.0311-1.16863 7.3083-2.7312 11.2711-2.80998 2.7946-.05253 4.2417.10503 7.5607.99137-.2678-.52965-.8977-.81088-1.7966-1.21221l-.1816-.08117c-3.2127-1.43127-9.2133-1.56257-14.132.57775.6173-.40049 1.2279-.77472 2.0245-1.14239 1.613-.73532 4.2682-1.43781 7.5872-1.38529 2.6484.03939 5.7948.95854 7.7198 2.84281.3252.37424.5045.77472.5908 1.09643 1.5267.76159 2.4095 1.47068 2.914 2.32408.1992.4268.2855.9061.1926 1.4379.6372.3743.9359.6828 1.2478 1.103.2324.3479.3984.7353.4381 1.0964.0664.4793.1196 1.0111-.3783 1.6348.5244.2495.9293.9585.9957 1.2802.2324 1.1425-.5045 2.2454-1.4802 3.112-1.1218.9717-3.5979 2.1272-5.6158 2.6328-2.85.7093-5.4585 1.1301-7.7396 1.498-.9279.1497-1.8016.2907-2.6154.4388l.0123.0029c1.2535.2951 2.9707.6996 5.7626.6996 5.9741 0 11.2579-2.7969 11.2579-2.7969s-.1195.3677-.2323.6894c-3.7903 2.2651-9.8308 3.2301-12.413 3.112-2.6219-.1248-4.819-.5056-6.983-1.1621-.6638.1707-1.3077.3742-1.9382.65 3.2857 1.4772 5.755 1.812 8.5695 2.0089 2.8609.2101 7.5937-.4726 11.5964-1.9039-.0861.0883-.1538.2008-.2207.312-.0725.1204-.1441.2395-.2373.3249-2.0511 1.057-6.3791 2.1271-8.5497 2.2191-2.1639.0853-4.8124.0065-7.1025-.4202-1.9781-.3808-3.5845-1.0045-5.2706-1.7267-.3119.2166-.4646.5186-.5176.8338 6.5848 3.4008 12.7513 3.4731 19.7677 1.3196l-.6373.6106c-7.7266 3.0923-13.7603 1.8909-18.4335-.3414-.0243-.0105-.0495-.0211-.0751-.032-.1355-.0572-.2857-.1206-.4029-.1978.4315.7485 4.0027 3.3222 7.9922 3.6504 2.7547.2232 6.1135-.2429 8.0982-1.0242l-1.1616.5974c-.9691.4727-3.5248 1.5297-7.1027 1.3-4.7593-.3217-7.441-2.403-8.6425-3.4928-.55092-.5121-.82307-1.103-.98903-1.8252-1.07534-.5581-1.75241-1.1358-2.31662-1.9959-.3319-.5055-.26552-1.0767-.17922-1.556.02654-.151.06637-.2955.12611-.4267-.51776-.3742-1.04215-.7682-1.2612-1.1687-.47129-.8404-.17923-1.5626.14603-2.1206-.27878-.3151-.54431-.6369-.65715-.9586-.12612-.4005-.15268-.755-.11284-1.162.08629-.7091.47129-1.3525.95586-1.9106 1.04215-1.1883 2.67508-2.1075 5.48296-3.0266 2.0512-.673 3.1845-.916 4.4927-1.1964.4402-.0944.9001-.193 1.4216-.3137.9204-.2094 1.9069-.365 2.9093-.523 1.6362-.2578 3.3148-.5224 4.8172-1.0396-6.7374-1.1751-13.7404-.1116-19.44903 3.7752l.36509-1.0899Z"/>
</svg>