<svg viewBox="0 0 40 40" xmlns="http://www.w3.org/2000/svg">
	<g fill="#006F4E">
		<path d="M26.3133 19.0943l-2.4764-6.3746-3.2302 7.0378c-1.0914 2.2146-4.6616 2.8582-7.1601 3.213l.4527-.9421L21.128 8.16321h5.6356l4.0377 8.40819 1.7692 3.9887 3.6462 8.002-2.5132-.0049-1.9601-.0123c-.8247.0123-1.6297-.0489-1.9723-.9323l-.695-1.7081-1.1648-2.8924-1.598-3.9178z"/>
		<path d="M37.2127 30.8553H0v3.2498h37.2127v-3.2498z"/>
	</g>
	<g fill="#009B9D">
		<path d="M27.9407 23.0418c-3.8395 1.9797-7.7426 3.9373-12.211 4.9651-4.1624.9568-8.74338 1.0816-11.93926-.7733-2.87777-1.664-3.8174481-4.926-3.7636123-7.3216.0367062-1.5686.8001953-3.7637 2.3002523-5.5916C5.1192 10.914 10.3853 7.96531 14.5796 7.83072c1.4952-.04894 2.4446.44782 3.0124 4.14048-1.5613-.0049-2.9145.1957-4.5541.783-1.04.3769-3.0196 1.2407-5.28075 2.8338-2.95607 2.0824-4.64211 4.1649-4.8183 6.1397-.15416 1.735 1.45846 2.7627 4.13312 2.9854 6.33303.5408 13.65223-2.4813 19.27073-5.5916l4.4855-2.5229 9.1717-4.9822-.0294 4.6714-7.3706 4.2995-4.6592 2.4545z"/>
		<path d="M13.2704 9.40619c1.4071.07341 3.7783-.91765 4.3215 2.67711-.6582-.2031-1.9405-.0294-2.6722.1224"/>  
	</g>
	<path fill="#ED1C24" d="M38.4607 6.80754l-5.2931 2.82637s-1.8206.99839-2.9854 1.24799l.8222 1.9063c.2447.7977 1.1428 1.0645 1.8427.7072l7.1087-3.88106V6l-1.4951.80754z"/>
</svg>
