<svg viewBox="0 0 40 40" xmlns="http://www.w3.org/2000/svg">
	<path fill="#006F4E" d="m23.7973 12.8353 2.5317 6.3291 1.6455 3.7974 1.1393 2.9114.5063 2.0253c.3797.8861 1.1392.8861 2.0253.8861h4.557l-3.6709-7.9747-1.7722-4.0506-4.0506-8.48098h-5.6962L13.7973 22.2024l-.5063.886c2.5317-.2531 6.076-.8861 7.2152-3.1645l3.2911-7.0886ZM0 30.9365h37.2151v3.2912H0v-3.2912Z"/>
	<path fill="#009B9D" d="M27.9746 23.0883c-3.7974 2.0253-7.7215 3.924-12.2784 4.9367-4.1772 1.0126-8.73419 1.1392-11.89874-.7595C.886075 25.6199 0 22.3288 0 19.9237c0-1.519.759492-3.7974 2.27848-5.5696 2.7848-3.4177 8.10122-6.32908 12.27842-6.45566 1.519 0 2.4051.50633 3.038 4.17716-1.519 0-2.9114.2532-4.5569.7595-1.0127.3798-3.03802 1.2659-5.31649 2.7848-2.91139 2.0254-4.68354 4.1773-4.81012 6.2026-.12658 1.7721 1.51898 2.7848 4.17721 3.0379 6.3291.5064 13.6709-2.5316 19.2405-5.5696l4.4303-2.5316 9.2405-4.9367v4.6835l-7.3417 4.3038-4.6836 2.2785Z"/>
	<path fill="#ED1C24" d="M38.4811 6.75949 33.1647 9.5443s-1.7722 1.0127-3.038 1.2658l.8861 1.8988c.2531.7594 1.1392 1.0126 1.8987.7594l7.0886-3.924V6l-1.519.75949Z"/>
</svg>