<svg viewBox="0 0 40 40" xmlns="http://www.w3.org/2000/svg">
	<path fill="#fff" d="M20 40c11.0457 0 20-8.9543 20-20S31.0457 0 20 0 0 8.9543 0 20s8.9543 20 20 20Z"/>
	<path fill="#ED1C24" d="M20.0004 1.41798c-3.6802-.00342-7.2786 1.08497-10.34 3.12743C6.59903 6.58787 4.21236 9.49259 2.80244 12.892c-1.40992 3.3993-1.77971 7.1406-1.06258 10.7502.71713 3.6096 2.48894 6.9254 5.09121 9.5277 2.60228 2.6022 5.91803 4.3741 9.52763 5.0912 3.6097.7171 7.3509.3473 10.7503-1.0626 3.3993-1.4099 6.3041-3.7966 8.3465-6.858 2.0425-3.0613 3.1309-6.6598 3.1275-10.34 0-2.4403-.4807-4.8567-1.4146-7.1112-.9338-2.2545-2.3026-4.30307-4.0281-6.02862-1.7256-1.72555-3.7741-3.09433-6.0287-4.02819-2.2545-.93386-4.6709-1.41451-7.1112-1.41451Zm0 27.76142-9.1616-9.1789 9.1616-9.1616 9.1616 9.1616-9.1616 9.1789Z"/>
</svg>