<svg xmlns="http://www.w3.org/2000/svg" viewBox="0 0 40 40">
	<path fill="#183964" d="M15.4799 6.0455c3.8227 2.50992 15.9471 10.9276 24.4807 22.3572.0649.1081.045.2284-.026.2996-.0019.0017-.0035.0037-.0053.0053-.0213.0198-.0468.0356-.0757.0455-.0466.0161-.1023.0175-.1633-.003-1.3899-.3863-4.7879-1.2356-8.4948-1.8533-.0386 0-.0773 0-.1159-.0389-3.5522-3.0502-7.1434-5.8303-10.6571-8.3017-.0389-.0386-.0773-.0771-.0773-.1546-.7339-3.7067-2.2398-8.1474-5.1741-12.0087-.1546-.23171.0769-.50199.3088-.3474Zm5.9065 20.465c2.6643-.4634 6.2941-.1546 9.6535.3859.0214 0 .0399.003.0554.0083.0084.0026.016.0059.0226.0099l.0077.0049c.0201.0145.0302.0343.0302.0541 2.3555 2.0854 4.6721 4.2861 6.873 6.6415.0923.0922.0743.2396-.0044.3269-.0531.059-.1339.0903-.2271.0593-2.9735-.8108-13.6307-3.3593-24.2492-1.3128-.0793 0-.1585-.0362-.2131-.0962-.0252-.0277-.0451-.0603-.0573-.0969C12.8531 30.526 9.5324 15.7371.0718395 7.04914c-.1929815-.19315.0388935-.50199.2704385-.38597C3.58573 8.20769 11.5014 12.3007 20.2669 18.4402c.0769.0385.1158.0771.1158.1542.7334 3.7456.7334 6.7575.7334 7.6844 0 .1542.1162.2702.2703.2317Z"/>
</svg>