<svg viewBox="0 0 40 40" xmlns="http://www.w3.org/2000/svg">
	<path fill="#00563F" d="M34.836 31.0964c.309.2207.6621.3531 1.1034.3531.6621.0441 1.1476-.1765 1.4124-.5738.2648-.3972.3972-.8827.3972-1.4124 0-.7944-.2207-1.3682-.6179-1.5889-.4414-.2648-.9269-.3972-1.4565-.3972-.309 0-.5738.0441-.7945.0441v3.5751h-.0441zm0-4.0164c.6179-.1324 1.1476-.1766 1.5448-.1766.662 0 1.4124.1766 2.2951.4855.8827.309 1.3241 1.0152 1.3241 2.0744 0 .7504-.309 1.3242-.9269 1.8097-.6179.4413-1.4565.662-2.5158.662-.4413-.0441-.7503-.0441-.971-.0441h-3.7957v-.4414h.5737c.309 0 .4414-.0883.4414-.2648 0-.0442.0442-.0883.0442-.1766v-6.0467c0-.0883 0-.1324-.0442-.1765-.0441-.1766-.1765-.2649-.4414-.2649h-.5737v-.4413h7.5032l.0441 1.942h-.5296v-.4414c0-.1765-.2207-.3531-.6179-.5296-.3972-.1766-.9269-.309-1.4565-.3973-.5738-.0882-1.0152-.1324-1.28-.1324-.1765.0442-.3089.0442-.3972.0883-.0883.0441-.1324.1324-.1324.2648V27.08h-.0883zm-9.357 4.0164c.3531.2648.7945.3972 1.28.3972.5296-.0441.9269-.1765 1.1917-.5296.3089-.309.4413-.7945.4413-1.3682 0-1.1917-.6179-1.7655-1.8096-1.7655h-1.1475v3.2661h.0441zm0-3.7957h1.5889c.3531-.0442.618-.1766.8386-.3973.2207-.2207.309-.5296.309-.9269 0-.2648-.0441-.5296-.1766-.7503-.1324-.2207-.3089-.3972-.5296-.4855-.2207-.1324-.5296-.1765-.8827-.1765-.4414 0-.8386.1324-1.1476.3531v2.3834zm2.6924.2648c.662.0441 1.2799.2207 1.7654.6179.5297.3531.7503.8827.7503 1.5448 0 .662-.3089 1.1917-.8827 1.5889-.5738.3972-1.4124.6179-2.4716.6179-.2207 0-.3973-.0441-.5297-.0441h-4.3695v-.4414h.5738c.3089 0 .4413-.0883.4413-.2648.0442-.0442.0442-.0883.0442-.1766v-6.0467c0-.0883 0-.1324-.0442-.1765-.0441-.1766-.1765-.2649-.4413-.2649h-.5738v-.4413h2.913c.3972 0 .9269 0 1.5889-.0442 1.3683 0 2.2951.1766 2.7806.5738.4855.3972.7504.8386.7504 1.3241 0 .309-.0883.6179-.309.8827-.2207.2649-.4855.4414-.8386.5738-.4414.0883-.7944.1766-1.1475.1766zm-13.5059 3.7957h3.1337c.2207 0 .3973-.0441.4414-.2207 0-.0441.0441-.0882.0441-.1765v-5.8261c0-.2648-.0441-.4413-.0882-.4855-.0442-.0441-.1325-.0882-.309-.0882h-.971c-.2207 0-.3972.0441-.4855.1324-.0883.0883-.1766.2648-.2207.5738-.0441.0882-.0883.2648-.1324.5296-.1766.6179-.3531 1.28-.5297 1.942-.2206.6621-.3972 1.2358-.6179 1.8096-.1324.309-.2648.6179-.3972.971-.1324.309-.2207.4855-.2207.5297-.0883.2207.0883.3089.3531.3089zm-.3972-6.8412v-.4413h7.106v.4413h-.6179c-.309 0-.4414.0883-.4414.2649v6.0467c0 .3531.1324.5296.4414.5296h.7944v2.3393h-.5737v-.5297c0-.2648-.2207-.4855-.7062-.662-.4855-.2207-1.0152-.3531-1.6772-.4855-.6179-.1324-1.1917-.1766-1.6331-.1766-.4413 0-.971.0442-1.5889.2207-.6179.1324-1.1476.309-1.5889.4855-.4414.2207-.6621.3973-.7062.6179l-.0441.5297h-.6621l.1765-2.3393c.4856.0442.9711-.3531 1.4566-1.1475.4413-.7945.8386-1.7214 1.1475-2.7806.309-1.0593.4414-1.8096.4855-2.2952 0-.2206-.0441-.353-.1324-.4413-.0883-.0883-.3089-.1324-.6179-.1324h-.6179V24.52zm25.1138-2.3833H28.6127c1.7214-8.5626-10.8135-17.65475-16.5954-1.5448 1.9862-19.06711 28.071-12.18178 27.3648 1.5448zM.188661 31.9791H11.0022C7.29468 12.6473 16.9606 6.64465 25.8762 7.92462 12.9 4.83505-1.84163 8.67494.188661 31.9791z"/>
</svg>
