<svg xmlns="http://www.w3.org/2000/svg" viewBox="0 0 40 40">
	<g fill="#00247d">
		<path d="M12.4 21.3c0 .3-.1.5-.1.8 0 .1 0 .2-.1.3h4.1v-7.2h-3l-.9 6.1zm15.3-3.6c-1.3 0-2.2.9-2.2 2.4s1 2.4 2.2 2.4c1.3 0 2.2-.9 2.2-2.4s-.9-2.4-2.2-2.4z"/>
		<path d="M32 0H8C3.6 0 0 3.6 0 8v32h32c4.4 0 8-3.6 8-8V8c0-4.4-3.6-8-8-8zM21.4 28h-3.3v-2.6H10V28H6.8v-5.7h1.9c.2-.3.4-.7.5-1.4l1.4-9h9v10.3h1.9c-.1 0-.1 5.8-.1 5.8zm11.8-2.6h-3.3v-1.2c-.7.8-1.6 1.4-3 1.4-2.7 0-4.8-2.3-4.8-5.5 0-3.3 2.1-5.5 4.8-5.5 1.3 0 2.3.6 3 1.4v-1.2h3.2l.1 10.6z"/>
	</g>
</svg>
