<svg xmlns="http://www.w3.org/2000/svg" viewBox="0 0 40 40">
	<path fill="#1D478C" d="M8 0h24c4.4 0 8 3.6 8 8v24c0 4.4-3.6 8-8 8H0V8c0-4.4 3.6-8 8-8Z"/>
	<path fill="#fff" d="M9.06948 29.5525c1.75002 0 3.10562-1.294 3.10562-3.1426 0-1.7254-1.22-2.9085-2.62495-2.9085-1.03523 0-1.70069.5176-2.0581 1.1338l-.02463-.0123c.07392-1.368.36969-2.0088 1.7623-2.2553l2.50168-.456-.4683-1.7007-2.37845.419c-2.5387.4437-3.1056 2.1075-3.11792 4.8433-.01235 2.206.85036 4.0793 3.30275 4.0793Zm-.08624-1.7007c-.71479 0-1.26935-.5916-1.26935-1.4296 0-.5792.41903-1.2694 1.23237-1.2694.71479 0 1.28174.53 1.28174 1.3187 0 .838-.5793 1.3803-1.24476 1.3803Zm6.78646 1.7007c.7271 0 1.2693-.2465 1.6637-.7518l.0246.0123v.6285h1.8364v-6.0264h-1.9349v.6286l-.0246.0123c-.4191-.493-1.0229-.7518-1.6638-.7518-1.5528 0-2.7482 1.2817-2.7482 3.1303 0 1.8609 1.1954 3.118 2.8468 3.118Zm.4065-1.7007c-.7639 0-1.2939-.5669-1.2939-1.4173 0-.8627.5546-1.4295 1.2939-1.4295.715 0 1.2695.6038 1.2695 1.4295 0 .8627-.5791 1.4173-1.2695 1.4173Zm4.4696 1.5897h1.9225v-2.1566h1.9102v2.1566h1.9349v-6.0264h-1.9349v2.317h-1.9102v-2.317h-1.9225v6.0264Zm7.144 0h1.8979v-1.6884l.5791-.6901 1.5158 2.3785h2.1815l-2.243-3.463 2.1195-2.5634h-2.2427l-1.8856 2.3909h-.0246v-2.3909h-1.8979v6.0264ZM13.2992 15.4548h-.9545V11.066H7.6578c0 1.1125-.01223 2.0049-.19582 2.8729-.11012.5134-.26918 1.0146-.51394 1.5159h-.88112l-.01223 3.1417h1.57864l.06118-1.5525h3.91589l.1102 1.5525h1.5786v-3.1417Zm-4.51558 0c.14683-.3179.26924-.648.35489-.9903.14682-.5867.22029-1.198.26923-1.8581h1.06466v2.8484H8.78362Zm8.24508 1.6992c.722 0 1.2604-.2445 1.652-.7457l.0245.0122v.6235h1.8234v-5.978h-1.9213v.6235l-.0245.0122c-.416-.4889-1.0157-.7456-1.652-.7456-1.5419 0-2.7289 1.2713-2.7289 3.105 0 1.846 1.187 3.0929 2.8268 3.0929Zm.4038-1.687c-.7587 0-1.2849-.5624-1.2849-1.4059 0-.8557.5507-1.418 1.2849-1.418.7098 0 1.2605.5989 1.2605 1.418 0 .8557-.5752 1.4059-1.2605 1.4059Zm6.0048 1.577h1.9212v-4.4254h1.6154V11.066h-5.1641v1.5526h1.6275v4.4254Zm7.0556.11c.722 0 1.2604-.2445 1.652-.7457l.0244.0122v.6235h1.8234v-5.978h-1.9212v.6235l-.0245.0122c-.4161-.4889-1.0157-.7456-1.652-.7456-1.542 0-2.729 1.2713-2.729 3.105 0 1.846 1.187 3.0929 2.8269 3.0929Zm.4038-1.687c-.7587 0-1.2849-.5624-1.2849-1.4059 0-.8557.5507-1.418 1.2849-1.418.7098 0 1.2604.5989 1.2604 1.418 0 .8557-.5751 1.4059-1.2604 1.4059Z"/>
</svg>