<svg xmlns="http://www.w3.org/2000/svg" viewBox="0 0 40 40">
	<g fill="#db082b">
		<path d="M39.5 2.6h-5.9c-.4 0-.8.3-.8.7L31 20.9c-.1.3-1.3 9.4-10.4 9.4h-9.2c-.4 0-.8.3-.8.7l-.6 6c0 .2 0 .3.2.4.1.1.2.2.4.2h9.2c16.4 0 18.3-16.2 18.4-16.8L40 3.2c0-.2 0-.3-.1-.4-.1-.2-.2-.2-.4-.2z"/>
		<path d="M18.9 18.7h5.6c1.5 0 2.8-1.2 3-2.7l.2-2.2c0-.2 0-.3-.2-.4-.1-.1-.2-.2-.4-.2h-7.7c-2.7 0-6.9 1.8-7.4 6.8-.6 5 3.3 6.8 6 6.8h4.7c1.5 0 2.8-1.2 3-2.7l.2-2.1c0-.2 0-.3-.2-.4-.1-.1-.2-.2-.4-.2h-6.8c-.9 0-1.3-.9-1.2-1.3.2-.4.3-1.4 1.6-1.4z"/>
		<path d="M19.3 9.8h9.2c.4 0 .8-.3.8-.7l.6-6c0-.2 0-.3-.2-.4-.1 0-.2-.1-.3-.1h-9.2C3.8 2.6 1.9 18.7 1.8 19.3L0 36.9c0 .2 0 .3.2.4.1.1.2.2.4.2h5.9c.4 0 .8-.3.8-.7l1.9-17.6c-.1-.4 1-9.4 10.1-9.4z"/>
	</g>
</svg>