<svg xmlns="http://www.w3.org/2000/svg" viewBox="0 0 40 40">
	<path fill="#a3002f" d="M20.1 40c-1-.4-1.3-1.2-1.3-2.1v-2.6c0-.2-.1-.4-.4-.5-2.6-.4-4.9-1.3-7-3 0 0-.1 0-.2-.2-.1.1-.1.4-.2.4-.7.7-1.4 1.4-2.1 2-.5.5-1.2.7-1.9.5-1.3-.5-1.4-1.5-.8-2.4.2-.5.6-.8 1-1.2l1.7-1.7c-1.8-2.3-3-4.9-3.2-7.8H2c-.7 0-1.6-.5-1.7-1.1-.4-.8.1-1.8 1.1-2 .4-.1.7-.1 1.1-.1h3.1c.4-2.7 1.3-5.4 3.1-7.6L6.4 8.4c-.7-.6-.8-1.5-.5-2.2.2-.5.8-1 1.4-.8.5.1 1 .2 1.4.7.7.7 1.6 1.4 2.3 2.3 1.2-.8 2.3-1.7 3.6-2.1 1.3-.5 2.6-.8 4.1-1.1V1.9c0-1 .5-1.7 1.4-1.9h.4c1.1.4 1.4 1.2 1.4 2.1v2.6c0 .4.1.4.4.5.7.2 1.7.4 2.5.7 1.3.4 2.6 1 3.7 1.8l1.1.7 2.1-2.1c.7-.7 1.9-.8 2.5-.1.5.6.5 1.7-.1 2.3l-2 2-.2.2c1.8 2.3 2.7 4.8 3.1 7.6h2.5c1 0 1.9.2 2.3 1.3v.6c-.4 1-1.1 1.3-2 1.3H35c-.4 2.9-1.4 5.5-3.2 7.8l2 2c.2.2.4.5.6.7.5.8.2 2-.7 2.3-.7.1-1.3 0-1.8-.5s-1.1-1-1.6-1.6c-.2-.2-.5-.5-.6-.7-2.3 1.8-4.8 2.7-7.5 3.1-.2 0-.2.3-.2.4v2.6c0 1-.4 1.8-1.3 2.1-.2.3-.4.3-.6.3zm6.4-27.5c-1.6-1.2-3.2-1.9-5.3-2v4.7c0 .1.1.2.2.2.5.2 1.1.4 1.6.6 1.2-1.1 2.3-2.3 3.5-3.5zm-5.1 17.2c1.4 0 3.8-1 5-2-.2-.2-.5-.4-.7-.6l-2.4-2.4c-.2-.2-.5-.5-.8-.2-.2.1-.6.2-.8.4-.2 0-.2.1-.2.4-.1-.1-.1 4.4-.1 4.4zm-10.5-8.3c.2 1.8 1 3.5 2.1 4.9 1.1-1.2 2.1-2.3 3.2-3.3.1-.1.1-.2 0-.4s-.2-.6-.4-.8c-.1-.4-.2-.4-.6-.4h-4.3zm1.9-7.2c-1.1 1.4-1.8 3-1.9 4.9h4.3c.5 0 .7-.1.7-.6 0-.2.2-.6.4-.8-1.3-1.1-2.3-2.3-3.5-3.5zm17.3 7.2h-4.3c-.5 0-.7.1-.8.6 0 .1-.1.4-.2.5-.1.2-.1.4.1.5 1.1 1 2 2 3.1 3 0 0 .1.1.2.1.8-1 1.8-3.2 1.9-4.7zm-1.9-7.2c-1.1 1.2-2.3 2.3-3.3 3.3v.2c.1.2.2.5.4.8.1.2.2.4.5.4h4.5c-.4-1.6-1-3.3-2.1-4.7zM17.8 16c.4-.1.7-.2 1-.5.1-.1.2-.2.2-.4V10.5c-1.7.2-3.2 1-4.5 1.9 1.1 1.3 2.2 2.4 3.3 3.6zm1.3 13.7v-4.4c0-.5-.2-.6-.6-.7-.4-.1-.6-.2-1 .1l-2.9 2.9-.2.2c1.5 1.1 2.9 1.7 4.7 1.9z"/>
</svg>
