<svg viewBox="0 0 40 40" xmlns="http://www.w3.org/2000/svg">
	<path fill="#6A2538" d="M40 0H0v40h40V0Z"/>
	<path fill="#fff" d="M19.9319 38.0231c8.1321-.0076 14.8863-6.2761 15.5007-14.3843H4.42276c.6144 8.1116 7.37454 14.3809 15.50914 14.3843Zm9.51-10.1321c-1.9429 3.4223-5.5747 5.5373-9.51 5.539-3.9386.0017-7.5739-2.1142-9.5185-5.539h19.0285ZM19.0883 2.08789h-4.2608v4.84874C8.57614 9.11303 4.38697 15.0082 4.38867 21.6277v.196H19.0883V2.08789ZM14.8275 17.5374H9.77427c.96973-2.4065 2.76013-4.3928 5.05323-5.6072v5.6072Zm20.6051 4.0903c.0017-6.6195-4.1875-12.51467-10.4389-14.69107V2.08789h-4.2608V21.8322h14.6997v-.2045Zm-10.4389-4.0733v-5.6242c2.3008 1.2152 4.0946 3.2084 5.0618 5.6242h-5.0618Z"/>
</svg>