<svg xmlns="http://www.w3.org/2000/svg" viewBox="0 0 40 40">
	<path fill="#006f8b" d="M20 0C9 0 0 9 0 20s9 20 20 20 20-9 20-20S31 0 20 0zm9.5 35c-1.2.7-2.3.9-3.7.9-2.4 0-3.8-.5-5.4-2-2.2-2-3.1-5.2-2.3-8 1.4-5 6.7-7.1 13.1-5.1.7.2 1.3.4 1.3.3 0-.4-2.6-2.2-4.3-3.1-3.8-1.9-8.8-2.4-12.9-1.2-1.4.4-4.5 1.8-4.5 2 0 0 .5-.1 1.1-.2 1.6-.4 3.4-.4 5.1-.5l-1.5 1c-1.4.9-4.5 3.8-4.5 4.1 0 .1.2.2.4.2.1 0 0 .1-.2.2-.2.2-.6.4-1.2.6-.9.4-2.3 1.3-3.1 2-.8.6-1.4 1.1-1.4 1 .6-1.4 2.5-3.4 3.5-4.5-1 .5-1.3.4-.2-.6 1.4-1.3 1.5-1.4 2.3-1.8.4-.2.6-.4.6-.4-.3 0-2.5.9-3.7 1.5-.7.4-1.4.6-1.4.6-.3-.3 2.5-3.1 4.1-4.3 3.3-2.4 7-3.4 11.2-3.5-4.6-2.5-9.7-3.1-14.9-1.7-1.1.3-2 .8-3 1.1C6.3 6.8 12.6 2.3 20 2.3c9.8 0 17.7 7.9 17.7 17.7 0 6.3-3.3 11.8-8.2 15z"/>
</svg>