<svg xmlns="http://www.w3.org/2000/svg" viewBox="0 0 40 40">
	<path fill="#F34236" d="M34.2857 10H5.71429C2.55837 10 0 12.5584 0 15.7143v7.619c0 3.1559 2.55837 5.7143 5.71429 5.7143H34.2857c3.1559 0 5.7143-2.5584 5.7143-5.7143v-7.619C40 12.5584 37.4416 10 34.2857 10Z"/>
	<path fill="#fff" d="M10.7786 21.619v1.2381H5.6167v-6.6666h5.0381v1.2381H7.15003v1.4476h3.09527v1.2H7.15003v1.5428h3.62857Zm4.3995 1.3524c-.6794 0-1.2952-.146-1.8476-.4381-.546-.2984-.9778-.7079-1.2953-1.2286-.3111-.527-.4666-1.1206-.4666-1.7809 0-.6603.1555-1.2508.4666-1.7714.3175-.527.7493-.9366 1.2953-1.2286.5524-.2984 1.1714-.4476 1.8572-.4476.5777 0 1.0983.1015 1.5618.3047.4699.2032.8635.4953 1.181.8762l-.9905.9143c-.4508-.5206-1.0095-.7809-1.6762-.7809-.4127 0-.7809.092-1.1047.2761-.3238.1778-.5778.4286-.762.7524-.1777.3238-.2666.6921-.2666 1.1048 0 .4127.0889.7809.2666 1.1048.1842.3238.4382.5777.762.7619.3238.1777.692.2666 1.1047.2666.6667 0 1.2254-.2635 1.6762-.7905l.9905.9143c-.3175.3873-.7111.6826-1.181.8857-.4698.2032-.9936.3048-1.5714.3048Zm6.8834 0c-.6921 0-1.3175-.1492-1.8763-.4476-.5523-.2984-.9873-.708-1.3047-1.2286-.3111-.527-.4667-1.1175-.4667-1.7714 0-.654.1556-1.2413.4667-1.7619.3174-.527.7524-.9397 1.3047-1.2381.5588-.2984 1.1842-.4476 1.8763-.4476.692 0 1.3142.1492 1.8666.4476s.9873.7111 1.3048 1.2381c.3174.5206.4762 1.1079.4762 1.7619 0 .6539-.1588 1.2444-.4762 1.7714-.3175.5206-.7524.9302-1.3048 1.2286-.5524.2984-1.1746.4476-1.8666.4476Zm0-1.3143c.3936 0 .7492-.0889 1.0666-.2666.3175-.1842.5651-.4381.7429-.7619.1841-.3239.2762-.6921.2762-1.1048 0-.4127-.0921-.781-.2762-1.1048-.1778-.3238-.4254-.5746-.7429-.7524-.3174-.1841-.673-.2761-1.0666-.2761-.3937 0-.7493.092-1.0668.2761-.3174.1778-.5682.4286-.7523.7524-.1778.3238-.2667.6921-.2667 1.1048 0 .4127.0889.7809.2667 1.1048.1841.3238.4349.5777.7523.7619.3175.1777.6731.2666 1.0668.2666Zm10.8738 1.2-.0096-4-1.9619 3.2953h-.6952l-1.9524-3.2096v3.9143h-1.4476v-6.6666h1.2761l2.4953 4.1428 2.4572-4.1428h1.2666l.0191 6.6666h-1.4476Z"/>
</svg>