<svg xmlns="http://www.w3.org/2000/svg" viewBox="0 0 40 40">
	<path fill="#EE7C00" d="M21.5829.504202 35.7504 8.67102c1.1578.67227 1.8052 1.80518 1.8052 3.14968v16.3461c0 1.3446-.6723 2.4775-1.8052 3.1497l-14.155 8.1793c-1.1578.6723-2.4774.6723-3.6352 0L3.80517 31.2792C2.64737 30.6069 2 29.474 2 28.1419V11.7958c0-1.3445.64737-2.47741 1.80517-3.14968L17.9726.504202c1.1329-.672269 2.4525-.672269 3.6103 0Z"/>
	<path fill="#fff" d="m21.0479 6.3307 9.9222 5.7392c.8092.4606 1.2698 1.2698 1.2698 2.1911v11.4535c0 .9212-.4606 1.7304-1.2698 2.1911l-9.9222 5.7142c-.8092.4607-1.7305.4607-2.5397 0l-2.5646-1.4814c-.6723-.3486-.4606-1.108 0-1.3197 3.2618-1.8923 6.5484-3.7722 9.7977-5.6645.859-.4855 1.1578-1.0457 1.1827-2.1786v-2.5895c-.0498-.7345-.7594-1.2698-1.6184-.7594-4.9424 2.8883-9.8973 5.7516-14.8397 8.6025-.6474.3984-.83414.2739-1.29477 0-1.78027-1.0457-1.83007-1.5437-1.83007-3.4236 0-.4108.13695-.5353.39838-.7345 5.01716-2.9131 10.05916-5.8014 15.07626-8.7146 1.0208-.5353.6972-1.6184 0-1.8674l-2.1787-1.2449c-.722-.4358-1.4067-.6225-2.3529-.0249-3.2368 1.8674-6.4737 3.7473-9.73544 5.6147-.67227.3984-1.22005-.0249-1.22005-.6474V14.261c0-.9213.46063-1.7305 1.26984-2.1911l9.92215-5.7143c.7968-.48553 1.7181-.48553 2.5273-.0249Z"/>
</svg>