<svg viewBox="0 0 40 40" xmlns="http://www.w3.org/2000/svg">
	<path fill="#009033" d="M24.2696 37.6288h-8.6333L14.704 40H0V25.2953l2.32446-.8855v-8.8202L0 14.704V0h14.704l.9323 2.37051h8.634L25.2019 0h14.7047v14.7047l-2.3245.8849v8.8195l2.3238.8856v14.7046h-14.704l-.9323-2.3705Zm5.4477-4.2561h3.5613V29.862l-2.3244-.8856V11.0223l2.3244-.8856V6.62664h-3.5613l-.9317 2.37051H11.1203l-.9323-2.37051H6.62664v3.51006l2.3238.8856v17.9548l-2.3238.8856v3.51H10.188l.9323-2.3712H28.785l.9323 2.3712Z"/>
</svg>