<svg viewBox="0 0 40 40" xmlns="http://www.w3.org/2000/svg">
	<path fill="#3C46FA" d="M40 19.9996C40 31.0454 31.046 40 19.9996 40 8.95397 40 0 31.0454 0 19.9996 0 8.95541 8.95397.00000595 19.9996.00000595 25.2944-.00408328 30.3761 2.10105 34.1422 5.85823 37.8865 9.59333 39.9959 14.6852 40 19.9996Z"/>
	<path fill="#fff" d="M19.4318 32.2557c-4.6937-.2225-8.8479-3.1037-10.70056-7.4211-1.85269-4.3183-1.075-9.3276 1.99606-12.868.2997-.3443.8198-.3787 1.1617-.0753.0105.009.021.0188.0308.0287l2.1248 2.1247c.2957.2912.32.7606.0568 1.0812-2.1476 2.5918-2.3404 6.3048-.4723 9.1092 1.868 2.8085 5.3547 4.063 8.5837 3.0873 3.2282-.9748 5.4382-3.9502 5.439-7.3229-.0049-1.823-.6675-3.5822-1.864-4.948-.2811-.3083-.2811-.7827 0-1.091l2.171-2.1526c.3087-.3296.8239-.3443 1.1512-.0327.0113.0106.0218.0213.0324.0327 3.3051 3.6656 4.0788 8.989 1.9555 13.4585-2.1224 4.4695-6.7238 7.2256-11.6661 6.9885v.0008Z"/>
</svg>