<svg viewBox="0 0 40 40" xmlns="http://www.w3.org/2000/svg">
	<path fill="#F5A04C" d="M12.7313 16.275c0-1.4388.4267-2.8454 1.2261-4.0418.7994-1.1963 1.9356-2.1288 3.2649-2.67942 1.3293-.55063 2.7921-.6947 4.2033-.41399 1.4112.28071 2.7075.97361 3.725 1.99101 1.0174 1.0174 1.7103 2.3137 1.991 3.7249.2807 1.4113.1366 2.874-.414 4.2034-.5506 1.3293-1.4831 2.4655-2.6795 3.2649-1.1963.7994-2.6029 1.2261-4.0418 1.2261-1.9294 0-3.7798-.7665-5.1442-2.1309-1.3643-1.3643-2.1308-3.2147-2.1308-5.1442M40 26.2782H0v5.4563h40v-5.4563zM2.72813 9C1.79306 8.99923.866658 9.17937 0 9.53047V23.0196c.994828.4022 2.06632.5794 3.13769.5189 1.07136-.0606 2.11606-.3574 3.05921-.8692.94316-.5118 1.76142-1.2259 2.39613-2.0912.63471-.8652 1.07016-1.8601 1.27512-2.9135.20495-1.0533.17435-2.1389-.08955-3.179-.26394-1.0401-.75471-2.0089-1.43712-2.8371-.68241-.8281-1.53957-1.495-2.51005-1.95291C4.86096 9.2377 3.80121 9.00016 2.72813 9M37.2719 9c.9351-.00077 1.8615.17937 2.7281.53047V23.0196c-.9948.4022-2.0663.5794-3.1377.5189-1.0713-.0606-2.116-.3574-3.0592-.8692-.9431-.5118-1.7614-1.2259-2.3961-2.0912-.6347-.8652-1.0702-1.8601-1.2751-2.9135-.205-1.0533-.1744-2.1389.0895-3.179.264-1.0401.7547-2.0089 1.4371-2.8371.6825-.8281 1.5396-1.495 2.5101-1.95291.9705-.45789 2.0302-.69543 3.1033-.69559"/>
</svg>
