<svg viewBox="0 0 40 40" xmlns="http://www.w3.org/2000/svg">
	<path fill="#015289" d="M17.7739 4.68689s2.258 1.46523.7645 3.30561c-1.4935 1.84038-2.5624 2.2792-2.6827 3.4684 0 0-1.0264-1.0759.3114-2.59068 1.3378-1.51478 2.612-2.32879 1.6068-4.18333zM19.3736 7.85791S19.2603 9.04 17.4058 10.1584c-1.8545 1.1184-.9839 1.5431-1.0051 1.4511-.0213-.0921 2.5907-.2619 2.9729-3.75159zM15.4875 4.02847s.9273-.1628.9839.29021c.1345 1.11839-1.1184 2.03858-2.527 3.24191-1.6917 1.45107-1.4794 1.92532-1.5006 2.01026-.0213.08494-1.1396-1.18209.2265-2.47744.0071 0 2.3713-1.72005 2.8172-3.06494zM15.1974 4.02856l-3.1499 3.05787s-.2478-2.43497 3.1499-3.05787zM39.5116 35.5486h-4.3957c-.1285-.0101-.249-.0668-.3389-.1592-.0899-.0925-.143-.2146-.1495-.3434V22.4324c0-3.702-.5804-4.9549-2.7606-4.9549-1.451 0-3.5816 1.2387-5.3725 2.7818V35.046c-.0064.1288-.0596.2509-.1495.3434-.0898.0924-.2103.1491-.3389.1592h-4.424c-.1285-.0101-.249-.0668-.3389-.1592-.0899-.0925-.143-.2146-.1495-.3434V13.8109c.0065-.1288.0596-.2509.1495-.3433.0899-.0925.2104-.1491.3389-.1593h4.063c.1286.0102.2491.0668.3389.1593.0899.0924.1431.2145.1495.3433v2.1235c2.2085-1.9253 4.785-3.2915 7.2837-3.2915 4.4098 0 6.5829 2.5695 6.5829 8.0906V35.046c-.0079.1283-.0615.2496-.1511.3418-.0896.0922-.2093.1492-.3373.1608zM10.3982 4.38945c-.91485-.19396-1.84676-.29592-2.78186-.30437C1.33074 4.08508 0 7.62428 0 11.9987v23.0472c.00793339.1284.0615519.2496.151145.3418.089592.0922.209236.1492.337264.1608H4.87701c.12929-.01.25063-.0663.34167-.1587.09105-.0923.14567-.2144.15382-.3439V17.3995h3.17819c.1293-.01.25063-.0663.34168-.1586.09104-.0924.14566-.2145.15381-.3439v-3.1004c-.00666-.1299-.0608-.2529-.15214-.3455-.09134-.0927-.21353-.1485-.34335-.157H5.37957v-1.2883c0-2.69687.79278-3.53919 2.86675-3.53919.3464.00274.69201.03351 1.03345.09201.12876.00341.25558-.03186.3641-.10125.10851-.0694.19373-.16974.24464-.28806.04955-.20527.60169-2.24385.86359-3.20651.0259-.12273.0036-.25073-.0623-.35747s-.1703-.18404-.2916-.21588zM19.3239 35.046V13.8108c-.0091-.1345-.0617-.2625-.1497-.3646-.0881-.1021-.2069-.1729-.3387-.2017-2.5868-.2983-5.1994-.2983-7.7862 0-.1312.0274-.2498.0968-.3379.1977-.0882.101-.141.2279-.1505.3615v3.1004c.0037.1264.057.2463.1484.3337.0914.0874.2135.1353.34.1334.9697-.0708 1.9466-.1132 2.9234-.1274V35.046c.0081.1294.0628.2515.1538.3439.091.0923.2124.1486.3417.1586h4.3956c.123-.0178.2359-.0775.3198-.1691.0839-.0916.1334-.2094.1403-.3334z"/>
</svg>
