<svg xmlns="http://www.w3.org/2000/svg" viewBox="0 0 40 40">
	<g fill="#e92314">
		<path d="M40 36.8c-4.5-1.4-11.9-2.3-20.2-2.3-8.1 0-15.3.9-19.8 2.2V40h40v-3.2zM20 17.9c8.1 0 15.7 4.3 20 8.7v-3.3c-4.6-6.6-11.9-10.9-20-10.9S4.6 16.7 0 23.3v3.3c4.3-4.5 11.6-8.4 20-8.7.1 0 .1 0 0 0z"/>
		<path d="M20 28.9c8.2 0 15 1.8 20 4.3v-3.4c-5-3.9-11.8-6.3-20-6.5-8.2.3-15 2.8-20 6.6v3.3c5.1-2.4 11.8-4.3 20-4.3z"/>
	</g>
	<path fill="#000" d="M40 20.4C35.5 12 28.1 6.6 19.8 6.6 11.7 6.6 4.6 11.8 0 19.7V0h40v20.4z"/>
</svg>