<svg xmlns="http://www.w3.org/2000/svg" viewBox="0 0 40 40">
	<path fill="url(#gr1)" d="M32.3 5c-1.1-2-3.3-3.2-5.5-3.2H13.2C10.9 1.8 8.8 3 7.7 5L.9 16.8c-1.2 2-1.2 4.4 0 6.5L7.7 35c1.2 2 3.3 3.2 5.5 3.2h13.6c2.3 0 4.4-1.2 5.5-3.2l6.8-11.7c1.2-2 1.2-4.4.1-6.5L32.3 5z"/>
	<linearGradient id="gr1" gradientUnits="userSpaceOnUse" x1="38.0918" y1="48.0997" x2="1.8124" y2="87.9352" gradientTransform="translate(0 -48)">
		<stop offset="0" stop-color="#ff8447"/>
		<stop offset="1" stop-color="#fa363b"/>
	</linearGradient>
	<path fill="#f0f8ff" d="M16.8 21.6c.2-.3.4-.5.5-.8v-.1c.1-.2.3-.4.4-.8.7-1.5 1.5-2.8 2.5-4.2 1.2-1.6 3.1-2.5 5.1-2.4 2.1 0 4.2 1 5.4 2.8 1.2 1.7 1.5 4 .7 6-.7 2-2.4 3.5-4.5 4.1-2 .5-4.3 0-5.9-1.4l2-3.6c.5.8 1.4 1.3 2.3 1.3.9 0 1.8-.5 2.3-1.4.4-.8.4-1.8 0-2.7-.5-.8-1.4-1.3-2.3-1.3-.8-.1-1.6.3-2 .9-.2.3-.4.5-.5.8v.1c-.1.2-.3.4-.4.8-.7 1.5-1.5 2.8-2.4 4.2-1.2 1.6-3.1 2.5-5.1 2.4-2.1 0-4.2-1-5.4-2.8s-1.5-4-.7-6c.7-2 2.4-3.5 4.5-4.1 2-.5 4.3 0 5.9 1.4l-2 3.6c-.1-.2-.3-.4-.5-.6-.7-.6-1.5-.9-2.4-.7-.9.2-1.6.8-1.9 1.6-.3.8-.2 1.7.3 2.5.5.7 1.3 1.2 2.2 1.2.6.3 1.4-.1 1.9-.8z"/>
</svg>
