<svg viewBox="0 0 40 40" xmlns="http://www.w3.org/2000/svg">
	<g fill="#0D356C">
		<path d="M1.00217 20.0141c0 10.4634 8.52806 18.9885 19.01233 18.9885 10.4649 0 18.9833-8.5251 18.9833-18.9885 0-10.48222-8.5184-19.00728-18.9833-19.00728C9.5206.997412 1.00217 9.52247 1.00217 20.0141zM0 20.0141C0 8.97671 8.97133 0 20.0145 0 31.0287 0 40 8.9673 40 20.0141 40 31.0327 31.0287 40 20.0145 40 8.97133 40 0 31.0327 0 20.0141z"/>
		<path d="M14.0399 7.377c-.6938.3011-1.349.67749-1.9561 1.11033 4.7603-2.11715 10.5709-1.98542 13.6931-.59281.9829.45166 1.6381.73395 1.9368 1.2797-3.2377-.86568-4.6253-1.02564-7.3331-.95977-3.8545.06587-8.981 1.59021-10.93715 2.75695l-.86726 1.0821C11.3996 10.3881 16.661 9.29655 19.5808 9.20245c3.257-.04705 5.7913.25406 8.1137 1.09155-.1349.5928-.4337.8845-.9347 1.1856-9.299-1.61848-14.7917.2917-19.75432 3.5285l-.36617 1.0727C12.1801 12.2794 18.964 11.2255 25.507 12.3641c-2.3416.8186-5.1457 1.0068-7.4969 1.5431-2.0044.4611-3.074.5928-5.7432 1.4867-2.70782.8845-4.30743 1.7973-5.3096 2.964-.48181.5458-.84799 1.1856-.93471 1.8725-.03855.4047-.01928.781.11563 1.1386.106.3199.36618.6399.63599.9598-.31799.5457-.59744 1.2514-.1349 2.0795.20236.3858.73235.7716 1.23343 1.1385l-.14454.4047c-.06745.4798-.13491 1.0538.18309 1.5243.53963.8657 1.20453 1.4397 2.25491 1.9854.1638.7057.4047 1.2797.954 1.7784 1.1659 1.0727 3.7581 3.124 8.3835 3.4439 3.469.2258 5.9455-.8186 6.8802-1.2797l1.1371-.5928c-1.9369.7716-5.1939 1.2327-7.8631.9974-3.8738-.3199-7.3332-2.8511-7.7668-3.585.1349.0941.3179.16.4721.2258 4.5387 2.1924 10.3879 3.378 17.8945.3199l.6167-.5928c-6.8224 2.1172-12.7872 2.0513-19.1953-1.2985.0674-.3199.212-.6022.501-.8186 1.6382.7245 3.2185 1.3267 5.1265 1.7031 2.2356.414 4.7892.5081 6.8803.414 2.12-.0941 6.3117-1.1385 8.2968-2.1924.1831-.1599.2698-.4328.4529-.6116-3.8738 1.4114-8.4799 2.0701-11.2551 1.8631-2.7175-.207-5.1265-.5269-8.3161-1.9854.6167-.2447 1.2527-.4517 1.8887-.6399 2.1007.6399 4.2399 1.0257 6.7646 1.1386 2.5055.1129 8.3643-.8187 12.055-3.0487.1156-.3199.2312-.6681.2312-.6681s-5.1264 2.7382-10.9371 2.7382c-2.7174 0-4.3748-.3858-5.6083-.6869 2.7367-.4987 6.1768-.9127 10.0506-1.8913 1.9562-.4987 4.3749-1.6467 5.4734-2.5971.9347-.8468 1.6671-1.9383 1.4165-3.0581-.0482-.3011-.4529-1.0068-.9636-1.2514.4818-.6117.4336-1.1386.3662-1.5903-.0482-.3481-.212-.7339-.4047-1.0726-.318-.4141-.6168-.734-1.2335-1.101.0964-.4799.0289-.9691-.1831-1.4114-.4818-.8186-1.3394-1.5243-2.8234-2.27711-.0674-.3011-.2505-.6869-.5685-1.07269-1.8695-1.84427-4.9241-2.73818-7.497-2.78522h-.424c-3.0065.02822-5.4252.70571-6.9285 1.40202zm14.5893 4.5636c.2313-.254.5685-.6398.6553-.9597.6456.414 1.3683 1.0256 1.455 1.6654-.6745-.254-1.4069-.5269-2.1103-.7057zm.5685 2.7758c-1.0889-.3011-2.0525-.6586-3.3245-.8844.7806-.3012 1.3009-.6117 1.7538-.9786 1.0215.2728 1.9755.6116 2.756.9597-.1349.1976-.9155.9222-1.1564.9222-.0096-.0094-.0192-.0094-.0289-.0189zm1.9851.7999c.2987-.2259.5685-.4799.8191-.7716.6167.5269.7998.8845.5011 1.4585-.4144-.3011-.848-.4611-1.3202-.6869zM7.77638 21.1714c-1.68634-2.3242 4.16282-3.9896 5.28062-4.3284 2.8427-.8469 6.1769-1.4773 9.1834-1.8443 2.0718-.254 3.1703-.0188 5.1264.4987-5.0397 1.3456-10.012 1.7784-14.7434 3.1711-3.81594 1.1009-4.82775 2.5029-4.84702 2.5029zm1.25271 1.1197c1.78271-1.5055 5.40591-2.3524 6.72611-2.644 4.211-.9128 8.133-1.4868 9.7518-1.8914 1.9562-.4799 3.3246-.9315 4.2785-1.3926.0482-.0658 1.5997.6869 1.7538.8657-.5203.4328-1.2527.7998-2.0525 1.0727-2.3898.8657-6.7453 1.7784-9.0484 2.1265-2.3223.3858-4.2689.6775-6.8321 1.3644-1.484.3952-2.4861.8469-3.2185 1.3268-.53963-.3294-.85762-.4235-1.35871-.8281zm3.30521 1.8255c.7516-.3199 1.5707-.574 2.3609-.7716 4.0087-.988 7.5452-1.1668 12.4211-2.4841 2.3416-.621 4.0569-1.2797 5.1265-2.0983.1542-.1412.318-.2541.4818-.3858 1.4165 2.1924-3.893 3.8767-7.5259 4.6577-1.8983.3764-3.7967.7339-5.695 1.0727-2.3705.3858-3.1414.5928-4.7892 1.0727-.8095-.3388-1.6286-.6775-2.3802-1.0633zm-4.26883-.6869c.36618.2352.63599.414 1.06962.6398-.16382.1412-.36618.2729-.52036.4329-.35654-.207-.72271-.6587-.54926-1.0727zm1.89834 2.0983c.23129-.207.52039-.4046.83839-.6116.6841.3199 1.3876.6116 2.0525.9127-.4433.16-.8673.367-1.272.6211-.5493-.3106-1.0889-.6117-1.61889-.9222zm-.59745 1.1103c.38545.2541.77094.4611 1.16594.6587-.1638.2258-.2794.4046-.3372.6399-.5782-.4705-.84801-.8563-.82874-1.2986z"/>
	</g>
</svg>
