<svg viewBox="0 0 40 40" xmlns="http://www.w3.org/2000/svg">
	<path fill="#0059A5" d="M33.2706 23.0724c1.7334-.9733 4.0772-2.463 5.4096-3.8435-6.5525-1.9549-24.5437.1696-38.67837118 5.0093-.00229187-.1597-.00229187-.3194-.00076396-.4783C4.18449 21.9906 9.16548 20.0158 13.5659 18.8065c4.7808-1.3141 9.6273-2.4355 14.5503-3.0536 2.7319-.343 9.1063-.961 11.2897.6876.5394.4721.4286.2009.5883 3.3224-.01.2369.0611.5096-.1177.7052-.864.9457-4.013 1.9251-6.052 2.6983l-.5539-.094Z"/>
	<path fill="#929295" d="M32.5315 22.9616c-6.282-.1735-15.3639 2.3598-20.4717 4.8091 0 .1787-.0008.3575.0007.537 5.9367-2.2132 16.9041-4.6204 23.0959-2.7074-2.2964 2.249-5.3163 3.2315-6.1697 3.8534 7.2118-2.9695 7.0231-2.6051 7.0376-3.5608-.1062-1.9894-.0267-1.8297-.3896-2.1452-.7456-.5661-2.136-.7594-3.1032-.7861ZM22.5773 11.9948c-7.0207.1413-15.37613 2.9145-21.820868 5.641-.000764.1009-.000764.2025 0 .3033C7.82073 15.5036 21.2014 12.965 26.5369 14.5487c-.4209.4156-.8892.7784-1.3606 1.1337.7181-.1131 1.4355-.2292 2.1566-.3201.0268-.0749.0795-.1452.0741-.23-.0458-.673-.0374-1.3506-.1123-2.0222-.1451-1.2979-5.2056-1.1337-4.7174-1.1153Z"/>
</svg>