<svg xmlns="http://www.w3.org/2000/svg" viewBox="0 0 40 40">
	<path fill="#0059a5" d="M40 19.4c0 .2 0 0 0 0-.3-.3-.5-.5-1-.8.7.5 1 .8 1 .8s0-3-.3-3.3c-1.8-2.5-12.8-1.8-27.2 2.3-3.5 1.3-8.3 3-12.6 4.8v.5c1.8-.8 3.8-1.3 5.8-1.8 11.3-3.3 25.2-4.5 31.2-3.5.8 0 1.3.3 1.5.3h.3-.3c-1.5 1.5-4.3 3.5-7.5 5 4.1-1.6 9.1-3.1 9.1-4.3 0 .2 0 .2 0 0z"/>
	<path fill="#929295" d="M26.7 14.4c.3 0 .5.3.8.5-.8.3-1.3.3-2 .3.5-.3 1-.8 1.3-1-.1 0-.2 0-.3-.1-.2-.1-.4-.2-.7-.2-4-.5-13.3.3-20.6 2.3-1.5.5-3 1-4.3 1.5v-.3c2.8-1.3 6-2.5 8.6-3.3 9.6-2.8 16.9-3.3 17.9-1.5.2.2.2 1.9.3 2.2-.3-.2-.3-.4-1-.4zm.7.4c0 .1 0 0 0 0zM36 25.7c0-.1 0-.2-.1-.2.1.1.1.2.1.2zm-.1-.2c-.1-.1-.2-.2-.4-.3.1.1.2.2.3.2l.1.1zm.1-1.8v2c0 .6-2 1.3-4 2.1-.6.2-1.2.5-1.8.7 2.3-1 4-2.3 5-3.3-.1 0-.2 0-.3-.1-.2-.1-.4-.2-.7-.2H34c-4-.5-7.5-.9-19 2-.2.1-.5.2-.8.2-.7.2-1.5.4-2.2.8v-.5c1.5-.8 3.3-1.5 6.3-2.3 9.4-3 16.4-3 17.7-1.4z"/>
</svg>
