<svg viewBox="0 0 40 40" xmlns="http://www.w3.org/2000/svg">
	<path fill="#0066B7" d="M13.0838 0h-1.2659c-.3326 0-.5977.273728-.5977.615692V31.5673c0 .6369.1797 1.1404.5326 1.5036.3498.3592.8071.5506 1.3224.5506.5474 0 1.0164-.204 1.3545-.5914.3302-.3781.4972-.8675.4972-1.4628V25.961c0-3.0141 1.2244-6.1624 3.6401-9.3569 2.0682-2.742 4.6753-5.044 7.7122-6.9099v25.2716H8.00767c-1.7012 0-3.08866-1.371-3.08866-3.0565V6.85339c0-1.6855 1.38746-3.05885 3.08866-3.05885h1.30118c.32863 0 .59922-.27529.59922-.61255V.615692C9.90729.273728 9.6367 0 9.30807 0H8.0712C4.28763 0 1.20996 3.08238 1.20996 6.86829V31.8928c0 3.7867 3.07767 6.8667 6.86124 6.8667h21.3225c.3279 0 .5945-.2729.5945-.6133V7.19379c0-.53491-.1607-1.0055-.4753-1.40158-.3419-.42903-.8337-.65099-1.4172-.65099-1.5749 0-3.8361 1.22589-6.9146 3.75376-2.5757 2.10822-4.6573 4.37962-6.2542 6.75772V3.79533h18.2724c1.7058 0 3.0965 1.37334 3.0965 3.05885V31.9085c0 1.6855-1.3907 3.0565-3.0965 3.0565h-1.2957c-.3318 0-.6.2753-.6.6126v2.5686c0 .3404.269.6133.6.6133h1.2306c3.7882 0 6.8667-3.08 6.8667-6.8667V6.86829C40.0001 3.08238 36.9224 0 33.1334 0H13.0838Z"/>
	<path fill="#0066B7" d="M11.8793 1.2373h-1.2706c-.3302 0-.5984.2753-.5984.61177V32.8062c0 .6329.1788 1.1412.5372 1.5051.3491.3584.8055.549 1.3153.549.5475 0 1.0181-.207 1.3624-.5945.3239-.3733.4933-.8651.4933-1.4596v-5.6095c0-3.0125 1.222-6.1608 3.6385-9.3569 2.069-2.7388 4.6738-5.0424 7.7169-6.9075v25.2731H6.79614c-1.70512 0-3.08944-1.3733-3.08944-3.0596V8.09226c0-1.6855 1.38432-3.05963 3.08944-3.05963h1.30197c.33098 0 .59765-.27451.59765-.61098V1.84907c0-.33647-.26667-.61177-.59765-.61177H6.8628C3.07767 1.2373 0 4.31968 0 8.10481V33.1309C0 36.9184 3.07767 40 6.8628 40h21.3147c.3318 0 .6016-.2737.6016-.6141V8.43266c0-.53569-.1585-1.0055-.4777-1.40315-.3435-.42745-.8306-.65098-1.4149-.65098-1.5749 0-3.8369 1.22824-6.9177 3.75537-2.5734 2.109-4.6542 4.3796-6.251 6.7608V5.03263h18.2691c1.7106 0 3.0973 1.37413 3.0973 3.05963V33.1458c0 1.6863-1.3867 3.0596-3.0973 3.0596h-1.298c-.3294 0-.5992.2722-.5992.611v2.5695c0 .3396.2698.6141.5992.6141h1.2353c3.7867 0 6.8652-3.0816 6.8652-6.8683V8.10481c0-3.78513-3.0785-6.86751-6.8652-6.86751H11.8793Z"/>
	<path fill="#fff" d="M6.8627 1.85156h1.23609v2.57257H6.79682c-2.0306 0-3.68866 1.64943-3.68866 3.67062V33.1483c0 2.0188 1.65884 3.6706 3.68866 3.6706H25.6699V9.83516c-3.5247 1.99614-6.4541 4.54274-8.7851 7.63144-2.5083 3.3224-3.7671 6.5687-3.7671 9.7326v5.6095c0 .4408-.1146.7914-.3389 1.0494-.2313.2612-.5357.3914-.9153.3914-.3545 0-.6517-.1232-.8933-.3702-.2408-.2486-.36-.6055-.36-1.0706V1.85156h21.3162c3.4495 0 6.2621 2.81571 6.2621 6.25574v25.0261c0 3.44-2.8126 6.255-6.2621 6.255h-1.2353v-2.5695h1.2981c2.0314 0 3.6957-1.651 3.6957-3.6706V8.09397c0-2.0212-1.6643-3.67062-3.6957-3.67062H13.1184V18.9843c1.6495-2.986 4.0597-5.7781 7.2276-8.3703 2.9372-2.41572 5.1239-3.622 6.542-3.622.4055 0 .7223.14196.9521.42588.2251.28628.3381.62197.3381 1.0157V39.3868H6.8627c-3.44787 0-6.263579-2.8142-6.263579-6.255V8.10652c0-3.43925 2.815709-6.25496 6.263579-6.25496Z" clip-rule="evenodd"/>
</svg>