<svg viewBox="0 0 40 40" xmlns="http://www.w3.org/2000/svg">
	<path fill="#009CA3" d="M31.5726 18.0796c.7346 0 1.2154.2008 1.7362.5487.4541-.8699 1.162-2.5159 1.162-3.5731-1.4157.4551-3.793 1.4855-5.0217 2.2884-2.0301 1.3248-3.5393 3.64-3.5393 5.2191 0 .6424.3206 1.0305 1.0017 1.0305 1.763 0 5.0484-2.8371 5.4625-3.4125-.1336-.5219-.5743-.7094-1.0952-.7094-1.3222 0-2.3506.7763-2.8314.7763-.3606 0-.5476-.1873-.5476-.522 0-.7628 2.4575-1.646 3.6728-1.646zm-8.227-4.6972c1.9632-1.1643 3.793-1.994 5.8497-1.994.414 0 .8414.0268 1.2822.0937-2.6712 1.3516-4.8214 2.8371-6.3039 4.8979-.0668-1.124-.3205-2.1277-.828-2.9976zm-7.2388-2.6096c-3.4056 0-6.05 1.3516-7.23868 2.2616 1.66948-.8697 3.31218-1.124 4.70118-1.124 1.803 0 3.1519.4148 3.6728.6155.5743-.4818 1.1886-.9635 1.8697-1.3918-1.0818-.2676-2.0834-.3613-3.005-.3613zm3.5927 17.4373c1.3489-1.5122 2.4441-3.0913 3.3122-4.831.0267.0937 1.0017 1.7129 3.1252 1.7129 1.99 0 4.5943-1.7129 6.2103-3.4527-.5475 3.6132-5.7829 7.1195-10.03 7.1195-.9349 0-1.8431-.1607-2.6177-.5487zm-16.90818.2543c.64107 0 1.00167.4549 2.09683.4549 1.82972 0 3.15192-1.5121 3.15192-3.225 0-1.6728-1.25543-2.6766-2.83139-2.6766C2.08347 23.0177 0 25.9217 0 28.7187c0 3.5462 2.8581 4.483 6.0768 4.483 6.7846 0 13.9966-5.1254 16.2805-11.1877-.0268-.2275-.0268-.4549-.0268-.6423 0-1.7665.5743-2.9308.8414-3.3456.0268-.2542.0268-.4818.0268-.7093 0-1.1643-.1603-2.1545-.7346-3.292 0 0-1.9633 1.5121-2.7646 2.6363-.8414 1.1241-.8681 1.5122-1.1219 2.3821-.3873 1.0705-.9349 2.1277-1.6694 3.3456-2.3773 4.0013-7.30553 9.4077-11.89985 9.4077-1.38898 0-3.19199-.5486-3.19199-2.2884-.02671-.6289.3606-1.0437.97496-1.0437zM36.5943 14.3861c1.4825-.6156 2.5109-1.5524 3.4057-2.8104v22.8171C40 37.8723 37.9032 40 34.4708 40H5.60935C2.16361 40 .0801336 37.8723.0801336 34.3928v-2.0341C1.45576 33.8441 3.68615 34.2857 6.02337 34.2857c3.17864 0 6.94493-1.1642 9.84303-2.7701 1.3222.5219 2.6979.736 4.0868.736 6.5576 0 14.1837-5.6741 14.1837-11.6025 0-.2543 0-.4818-.0267-.736.9349-1.3115 2.4841-4.336 2.4841-5.527zM34.4708 0C37.9165 0 40 2.1278 40 5.6072v1.76653c-1.0284 1.19107-2.7379 2.2616-4.6611 2.2616-1.4157-.9368-3.4725-1.3516-5.7563-1.3516-3.0851 0-6.5576.77614-9.2687 2.15457-1.2555-.5487-2.6044-.77617-4.0201-.77617-3.6728 0-7.39897 1.41857-10.25707 4.12177-.80134.7761-2.7379 2.7032-2.7379 3.8674 0 .3212.18698.5755.57429.5755.25376 0 .48081-.1337.73456-.388 2.19032-2.3152 5.11519-4.898 8.77462-4.898.8948 0 1.8297.1339 2.8047.4817-2.9917 2.971-4.8214 7.0258-4.8214 10.7595 0 .8967.1336 1.8333.3606 2.6765-1.3222 1.539-4.31384 3.8274-6.65107 3.8274-1.38898 0-1.98999-.5755-1.98999-.9368 0-.067.02671-.0936.09349-.0936.13356 0 .77463.388 1.80301.388 2.35058 0 4.20701-2.0342 4.20701-4.3894 0-2.2617-1.77629-3.8006-3.95326-3.8006-2.15025 0-3.85976 1.0705-5.1419008 2.8638V5.62067C.0934892 2.14119 2.19032.0133864 5.62271.0133864H34.4708V0z"/>
</svg>
