<svg xmlns="http://www.w3.org/2000/svg" viewBox="0 0 40 40">
	<linearGradient id="gr" x1="3" x2="37" y1="9" y2="31" gradientUnits="userSpaceOnUse">
		<stop stop-color="#00D5D9"/>
		<stop offset="1" stop-color="#F000EC"/>
	</linearGradient>
	<path fill="url(#gr)" d="M27.8515 38.9958h11.0268c.1332.0115.267-.0132.3872-.0716.1203-.0583.2225-.1481.2959-.2598.0734-.1117.1153-.2412.1211-.3747.0058-.1335-.0246-.2662-.088-.3838l-6.2872-13.079c-.3332-.6913-.8003-1.0401-1.775-1.0401h-6.7014L38.9935 2.20657c.0838-.12128.1311-.26409.136-.41144.005-.14735-.0325-.29303-.1079-.41968-.0755-.12665-.1858-.22895-.3177-.29471-.132-.06576-.2801-.092202-.4266-.07619H26.8955c-.3394-.010511-.6753.07072-.9723.23514-.2971.16442-.5443.40593-.7155.69907l-6.2468 9.52584-4.5465-9.44176c-.1197-.31753-.3385-.58805-.624-.77147-.2855-.18342-.6225-.269966-.961-.24682H1.80257c-.13284-.010441-.26605.01497-.38571.07359-.11967.05862-.2214.14829-.29458.25965-.07318.11136-.11512.24032-.12144.37342-.006323.1331.02321.26546.0855.38325L7.37358 15.1734c.3332.6882.80031 1.037 1.775 1.037H15.85L1.68735 37.7938c-.08271.1217-.1289.2646-.13313.4118-.00422.1471.0337.2924.10929.4187.07559.1263.1857.2284.31737.2942.13167.0658.27941.0926.42581.0773H13.7854c.3393.0105.6752-.0707.9723-.2352.297-.1644.5442-.4059.7155-.699l6.2499-9.529 4.5496 9.4449c.1193.3165.3372.5862.6214.7695.2843.1834.6199.2706.9574.2488Z"/>
</svg>