<svg viewBox="0 0 40 40" xmlns="http://www.w3.org/2000/svg">
	<g fill="#2E56A6">
		<path d="M9.88147 12.3251c.14553.9359.39273 1.8532.73713 2.7355 1.2368-.366 2.5133-.581 3.8018-.6404.3888-4.1655 1.5549-7.58271 5.5789-10.8798.7782.63479 1.4982 1.33784 2.1512 2.10077.9157-.40788 1.8638-.73864 2.8344-.98883C23.5822 2.84522 21.899 1.27454 19.9994 0c-4.1247 3.00248-7.2501 6.5103-8.1431 11.8561-.6677.1136-1.3274.2702-1.97483.469zM12.3251 30.117c.9359-.1452 1.8532-.3921 2.7356-.7364-.366-1.237-.581-2.5138-.6403-3.8026-4.1704-.3857-7.58883-1.5616-10.87992-5.5791.63505-.7777 1.33808-1.4973 2.10078-2.1504-.40791-.9155-.73867-1.8634-.98885-2.834C2.84533 16.4168 1.27462 18.0996 0 19.9989c2.99692 4.1157 6.49954 7.2491 11.8563 8.1439.1135.6675.27 1.327.4688 1.9742zM28.1438 11.8559c-.1138-.6676-.2704-1.3272-.4689-1.97467-.9364.14537-1.8541.39247-2.7369.73687.3678 1.2364.5829 2.5132.6403 3.8019 4.1784.3906 7.5888 1.5617 10.8806 5.579-.6348.7781-1.3379 1.4981-2.1007 2.1514.4077.9157.7384 1.8637.9888 2.8343 1.8073-1.4028 3.3782-3.0861 4.6531-4.9857-3.0031-4.1242-6.5106-7.2497-11.8563-8.1431zM30.1173 27.6748c-.1449-.9364-.3919-1.8542-.7365-2.7369-1.2368.3669-2.5137.5819-3.8024.6403-.3845 4.1734-1.5635 7.59-5.579 10.8805-.7778-.6351-1.4975-1.3381-2.1506-2.1008-.9154.4078-1.8632.7386-2.8337.9888 1.4022 1.8074 3.0849 3.3784 4.9843 4.6532 4.1333-3.009 7.2524-6.5227 8.1444-11.8569.6672-.1134 1.3265-.2698 1.9735-.4682z"/>
		<path d="M18.2719 7.41832c-.5591.76492-1.033 1.58854-1.4135 2.45623 1.1337.61485 2.1884 1.36545 3.1408 2.23505 3.2299-2.6794 6.4707-4.26037 11.6391-3.74806.1004.99915.112 2.00526.0346 3.00646.9361.3583 1.8406.7946 2.7037 1.3043.2864-2.2698.2071-4.57081-.2351-6.81546-5.0614-.78915-9.7305-.52181-14.1424 2.62638-.5521-.39195-1.1291-.74767-1.7272-1.0649zM7.41831 21.7264c.76476.5596 1.58839 1.0338 2.45623 1.4144.61456-1.1342 1.36506-2.1893 2.23486-3.1419-2.67041-3.2188-4.2624-6.4595-3.74787-11.63784.99914-.10154 2.00537-.11356 3.00667-.0359.3584-.93582.7947-1.83997 1.3041-2.70297-2.2698-.28512-4.57051-.20607-6.81535.23416-.79647 5.08385-.5083 9.75115 2.62623 14.14255-.39192.5522-.74762 1.1293-1.06487 1.7275zM32.5813 18.2716c-.765-.5588-1.5886-1.0327-2.4562-1.4133-.6148 1.1341-1.3658 2.1888-2.2363 3.1408 2.6712 3.2181 4.2628 6.4604 3.7493 11.6389-.9992.1008-2.0054.1124-3.0066.0348-.3592.9359-.7956 1.8404-1.3048 2.7039 2.2695.2862 4.5702.2069 6.8146-.2351.7913-5.0294.5295-9.7215-2.625-14.1425.3917-.5524.7474-1.1294 1.065-1.7275zM21.7269 32.5808c.5597-.7644 1.0341-1.5878 1.4148-2.4553-1.1337-.6161-2.1887-1.3669-3.1422-2.2362-3.228 2.6797-6.473 4.2615-11.63777 3.7489-.10156-.999-.1136-2.0051-.03597-3.0062-.93553-.3595-1.83965-.7959-2.70305-1.3049-.28591 2.2695-.20676 4.5702.23444 6.8147 5.02945.7908 9.72145.5294 14.14235-2.6251.5523.3915 1.1293.747 1.7274 1.0641z"/>
	</g>
</svg>
