<svg xmlns="http://www.w3.org/2000/svg" viewBox="0 0 40 40">
	<path fill="#ee151f" d="M22.6 0l-.1.5s0 .3-.2.9v.1c-.2.8-.5 2-1 3.2-.4 1.1-1 2.2-1.5 2.8-.8-.9-1.5-2.5-1.9-4-.2-.8-.5-1.5-.6-2.1-.1-.5-.2-.9-.2-.9V0H14v.6c.4 3.5 2.2 7.7 5.3 9.8h1.1c3.1-2.1 4.9-6.3 5.3-9.8V0h-3.1zm16.9 22.8l.5.1V26l-.6-.1c-3.5-.4-7.7-2.2-9.8-5.3v-1.1c2.1-3.1 6.3-4.9 9.8-5.3l.6-.1v3.1l-.5.1s-.3.1-.9.2c-.5.1-1.3.3-2.1.6-1.5.5-3.1 1.2-4 1.9.6.6 1.7 1.1 2.8 1.5 1.2.5 2.5.8 3.3 1 .6.3.9.3.9.3zm-39-5.3l-.5-.1v-3.1l.6.1c3.5.4 7.7 2.2 9.8 5.3v1.1c-2.1 3.1-6.3 4.9-9.8 5.3L0 26v-3.1l.5-.1s.3 0 .9-.1c.5-.1 1.3-.3 2.1-.5 1.4-.5 3.1-1.2 4-1.9-.6-.6-1.7-1.1-2.8-1.5-1.1-.4-2.1-.7-2.9-.9-.1 0-.2-.1-.4-.1-.6-.3-.9-.3-.9-.3zm16.6 22v.5H14l.1-.6c.4-3.5 2.2-7.8 5.3-9.8h1.1c3.1 2.1 4.9 6.3 5.3 9.8l.1.6h-3l-.1-.5s-.1-.3-.2-.9c-.1-.5-.3-1.3-.6-2.1-.5-1.5-1.2-3.1-1.9-4-.6.6-1.1 1.7-1.5 2.8-.4 1-.7 2.1-.9 2.9 0 .1-.1.3-.1.4-.4.6-.5.9-.5.9zM36 7.6l-.4.2s-.3.2-.7.5h-.1c-.7.5-1.8 1.2-2.9 1.7-1.1.5-2.2.8-3 .9 0-1.2.7-2.8 1.4-4.2.3-.7.7-1.2.9-1.7l.1-.2c.3-.5.5-.7.5-.7l.2-.4-2.2-2.2-.4.5c-2.2 2.8-3.9 7-3.2 10.7l.7.7c3.6.7 8-1 10.7-3.2l.5-.4L36 7.6zM4.1 31.8l-.3.2-2.2-2.2.5-.4c2.7-2.2 7-3.9 10.7-3.2l.7.7c.7 3.7-1 7.9-3.2 10.7l-.4.5-2.2-2.2.3-.3s.2-.3.5-.7l.1-.2c.3-.5.6-1 .9-1.7.7-1.4 1.4-3 1.4-4.2-.8 0-1.9.4-3 .9S5.7 30.9 5 31.3h-.1c-.5.2-.8.5-.8.5zM32.3 36l-.3-.4s-.2-.3-.5-.7c-.5-.7-1.1-1.8-1.6-3-.5-1.1-.9-2.2-.9-3 1.2 0 2.8.7 4.2 1.5.7.3 1.2.7 1.7.9l.2.1c.5.3.7.5.7.5l.4.2 2.2-2.2-.4-.5c-2.8-2.2-7-3.9-10.7-3.2l-.7.7c-.7 3.6 1 8 3.2 10.7l.4.5 2.1-2.1zM8.2 4.1L8 3.7l2.1-2.2.4.5c2.2 2.7 3.9 7 3.2 10.7l-.7.8c-3.6.7-7.9-1-10.7-3.2l-.5-.4L4 7.7l.4.2s.3.2.7.5l.2.1c.5.3 1 .6 1.7.9 1.4.7 3 1.4 4.2 1.5 0-.8-.4-1.9-.9-3S9.2 5.7 8.7 5v-.1c-.3-.5-.5-.8-.5-.8z"/>
	<path fill="#cf151c" d="M19.8 7.3c-.8-.8-1.6-2.9-1.9-4-.6-1.8-.8-3.3-.8-3.3S16 5.6 19.8 10.4C23.6 5.6 22.6 0 22.6 0s-.2 1.5-.8 3.3c-.8 2.6-1.7 3.7-2 4 .1 0 0 0 0 0zM3.4 22.1c1.1-.3 3.2-1.2 4-1.9-.2-.2-1.2-1.1-4-1.9-1.8-.7-3.4-.9-3.4-.9s5.6-1.1 10.4 2.8C5.6 24 0 22.9 0 22.9s1.6-.2 3.4-.8zm33.3-3.9c-1.1.3-3.2 1.2-4 1.9h.1c.3.2 1.4 1.1 4 1.9 1.8.6 3.3.8 3.3.8s-5.6 1.1-10.4-2.8c4.8-3.9 10.4-2.8 10.4-2.8s-1.6.4-3.4 1zM21.8 36.7c-.3-1.1-1.2-3.2-1.9-4-.2.2-1.1 1.2-1.9 4-.6 1.8-.8 3.3-.8 3.3s-1.1-5.6 2.8-10.4c3.9 4.8 2.8 10.4 2.8 10.4s-.4-1.5-1-3.3zm7-25.8c0-1.2.9-3.2 1.4-4.2.9-1.7 1.8-3 1.8-3s-4.7 3.2-5.4 9.4c6.1-.7 9.3-5.5 9.3-5.5s-1.2.9-2.9 1.8c-2.3 1.2-3.7 1.4-4.2 1.5.1 0 0 0 0 0zM9.5 33c.5-1 1.4-3.1 1.4-4.2-.2 0-1.7.1-4.2 1.5-1.6.8-2.9 1.7-2.9 1.7s3.2-4.7 9.4-5.4c-.7 6.1-5.4 9.4-5.4 9.4s.8-1.3 1.7-3zm19.6-4.2c1.2 0 3.2.9 4.2 1.5 1.7.9 2.9 1.8 2.9 1.8s-3.2-4.7-9.4-5.4c.7 6.1 5.4 9.3 5.4 9.3s-.9-1.3-1.7-2.9c-1.3-2.6-1.4-4.1-1.4-4.3zM7 9.5c1 .5 3.1 1.4 4.2 1.5v-.1c0-.5-.2-1.9-1.5-4.2C8.9 5 8 3.7 8 3.7s4.7 3.2 5.5 9.4c-6.1-.7-9.4-5.4-9.4-5.4s1.2.9 2.9 1.8z"/>
</svg>
