<svg xmlns="http://www.w3.org/2000/svg" viewBox="0 0 40 40">
	<g fill="#215e36">
		<path d="M2.1 18v-.1s0-.1.1-.1l.1-.1h.2s.1 0 .1.1l.1.1V18.2c.3 4.4 2 8.6 4.9 11.9 2.9 3.3 7 5.8 12.3 7.5 2.6-.8 5.2-2 7.5-3.5 1.9-1.2 3.6-2.7 5.1-4.4H28c-.1 0-.1 0-.2-.1l-.1-.1-4.4-8-6.8 8.1-.1.1H13.5l-.1-.1-5.9-11.4V18c0-.1.1-.1.1-.2h.2c.1.1.2.1.2.2l5.8 11.1h2.3l6.9-8.3.1-.1h.2c.1 0 .1.1.2.1l4.6 8.3H33c.1 0 .1 0 .2.1l.1.1v.2s0 .1-.1.1c-1.6 2-3.5 3.7-5.6 5-2.4 1.5-5 2.7-7.7 3.6h-.2c-5.4-1.7-9.6-4.4-12.6-7.7-3-3.4-4.8-7.7-5.1-12.3l.1-.2zm4.1-3.4s0 .1.1.1v.1s0 .1-.1.1l-.1.1H6h-.1s-.1 0-.1-.1l-.1-.1-1.5-3H2.6v2.9s0 .1-.1.1l-.1.1h-.1-.1s-.1 0-.1-.1c0 0 0-.1-.1-.1v-3.2c0-.1 0-.2.1-.2.1-.1.1-.1.2-.1h2.2l.1.1c0 .2 1.6 3.3 1.6 3.3zm9.2 3.9v-.2s.1-.1.1-.2h.2s.1.1.2.1l1.5 2.6 3.3-3.7-2.8-5.4h-2.3c-.1 0-.2 0-.2-.1-.1-.1-.1-.1-.1-.2V8c0-.1 0-.2.1-.2.1-.1.1-.1.2-.1h7.5l.1.1 2.5 4.2c1.9-2 3.4-3.2 5.1-3.8 1.7-.6 3.6-.6 6.4 0V6.6c-.9-.4-1.8-1-2.4-1.7-.7-.7-1.2-1.6-1.5-2.5H6.6c-.3 1-.8 1.8-1.5 2.6-.7.7-1.5 1.3-2.5 1.7v1.1H10.2l.1.1 3.8 6.8v.2l-.1.1-.1.1h-.1-.1s-.1 0-.1-.1l-.1-.1-3.7-6.5H2.3c-.1 0-.2 0-.2-.1S2 8.1 2 8.1V6.5v-.2c0-.1.1-.1.1-.1 1-.4 1.9-.9 2.5-1.7C5.3 3.8 5.8 3 6.1 2c0-.1.1-.1.1-.2.1 0 .1-.1.2-.1h27c.1 0 .1 0 .2.1.1 0 .1.1.1.2.3 1 .8 1.8 1.4 2.5.7.7 1.5 1.3 2.4 1.6.1 0 .1.1.1.1s.1.1.1.2c0 .7.1 1.6 0 2.2 0 .1-.1.1-.1.2-.1 0-.1.1-.2 0-2.9-.6-4.8-.7-6.5-.1-1.7.6-3.1 1.9-5.1 4l-.1.1c-.1 0-.2.1-.2 0-.1 0-.1-.1-.2-.1l-2.7-4.3h-6.9v2.7h2.5l.1.1 3 5.7c0 .1.1.1.1.2s0 .1-.1.2l-3.7 4.2-.1.1h-.2s-.1-.1-.2-.1l-1.7-3zm22.3-1.1v.1s0 .1-.1.1l-.1.1h-.1-.1s-.1 0-.1-.1c0 0 0-.1-.1-.1v-.1c.1-2.1 0-4.1 0-6.2l-1.6 2.6c0 .1-.1.1-.2.1h-.2l-.4-.1c-1.2-.3-2.5-.2-3.7.3-1.3.5-2.4 1.4-3.3 2.4.9 1.4 1.5 2.5 2.2 3.5 2.2 3.7 3.4 5.6 4.8 6.4.3-.6.7-1.3.9-2 .3-.8.5-1.6.7-2.4 0-.1.1-.1.1-.1h.2c.1 0 .1.1.2.1 0 .1.1.1.1.2-.2.8-.5 1.7-.8 2.5-.3.8-.7 1.6-1.1 2.3 0 .1-.1.1-.2.1h-.2c-1.7-.8-2.9-2.8-5.3-6.8-.7-1.1-1.4-2.3-2.2-3.7 0 0-.1-.1-.1-.2s0-.1.1-.2c.9-1.3 2.2-2.2 3.6-2.8 1.3-.6 2.8-.7 4.2-.3l.2.1 2.1-3.4c0-.1.1-.1.1-.1h.2c.1 0 .1.1.2.1 0 .1.1.1.1.2l-.1 7.4c.1-.1 0 0 0 0z"/>
		<path d="M.1 16.3h19.2l-.5-.8H0l.1.8zm19.3.3H2.2v.6l16.8.5.6-.7-.2-.4zm10.1.9l1.6 2.7c2 .1 4.2.9 6.8 1.5.2-1.1.1-2.3-.1-3.4-2.8-.5-5.6-.8-8.3-.8zm1.2-.7c.6.1.5-1.2-.5-1.2-.3 0-.6.1-.8.2-.3.2-.4.4-.6.6l.3.4c.2-.2.4-.2.6-.3.2 0 .5 0 .7.1 0 .1.3.2.3.2zM7.3 15.1h5.4l-3.4-6H2.8v1.5h1.5c.7 0 .8 0 1.1.7l1.9 3.8c.1 0 0 0 0 0z"/>
		<path d="M14.3 17.9l-5.5-.1 5.5 10.6h1.5l7.7-9.2 5.1 9.2h5.5v-.7c-.5-.1-2.3-1.7-2.9-2.6-1.6-2.6-3.1-5.2-4.7-7.9l-.3-.6.4-.6c1.7-2.4 5.2-4.2 8.2-3.5l1.8-2.9-.7-.2c-4.6-.8-6.1.3-9.6 3.9l-.9 1-3.1-5.1h-5.7v1.3h1.1c.8 0 1 .1 1.5.9l3.2 6.1-5.2 5.8-2.9-5.4z"/>
	</g>
</svg>
