<svg viewBox="0 0 40 40" xmlns="http://www.w3.org/2000/svg">
	<path fill="#E8B909" d="M35.76 11.28c-.1275-.0864-.2733-.1422-.4259-.163-.1527-.0208-.3081-.0061-.4541.043-1.5562-.1337-3.1183-.1871-4.68-.16h-2.56L21 10.92h-5c-1.24 0-2.48 0-3.68.08-1.2.08-4.36 0-6.2 0H4.56c-.12733.0338-.2414.1054-.32712.2054-.08572.1-.13903.2237-.15288.3546-.01553.0505-.0191.1039-.01043.156.00868.052.02936.1014.06041.1441.03105.0427.07162.0775.11848.1018.04687.0243.09875.0374.15154.0381h6.28c1.5024-.1393 3.0123-.1794 4.52-.12h3c.2115.0398.4285.0398.64 0h.28c.2497.0611.5103.0611.76 0 .2529-.021.5071-.021.76 0 .1953-.0614.4047-.0614.6 0 .0923.0195.1877.0195.28 0 2.2294-.0478 4.4598.0324 6.68.24l1.24.12c1.1178-.0999 2.2422-.0999 3.36 0 .84.08 1.64.12 2.4.12l.4-.32c.0953-.0955.1488-.225.1488-.36 0-.1349-.0535-.2644-.1488-.36"/>
	<path fill="#007638" d="M24.68 25.5201v-2.72c0-.4 0-.84-.08-1.28-.08-.44 0-1-.08-1.52-.0368-.713-.1304-1.422-.28-2.12l-.08-.48c-.0935-.1136-.1494-.2534-.16-.4-.0358-.1397-.0896-.2742-.16-.4-.1907-.3317-.4189-.6404-.68-.92-.0563-.0652-.1241-.1195-.2-.16 0 0-.08 0-.12-.08-.2508-.1968-.5355-.3459-.84-.44-.0317-.0432-.0744-.0771-.1236-.0982-.0493-.0211-.1033-.0287-.1564-.0218v-.08h-.12l-.6-.12v.08h-.16c-.0666-.0039-.1334-.0039-.2 0h-.08c-.0261-.0078-.0539-.0078-.08 0l-.24-.08v.12c-.092-.0225-.188-.0225-.28 0h-.76v.12c-.0652-.0144-.1332-.0108-.1966.0103-.0633.0211-.1198.059-.1634.1097-.0461.0026-.0911.0146-.1323.0353-.0413.0206-.0779.0494-.1077.0847h-.08c0 .08-.24.16-.32.2l-.2.08c-.0205.0021-.0396.0113-.0541.0258-.0146.0146-.0237.0337-.0259.0542h-.2v.16h-.12l-.08.08c-.1356.1697-.2826.3301-.44.48-.1845.19-.3582.3903-.52.6v.16s-.12.08-.16.2c-.04.12-.08.2-.12.24v.08c-.08.08-.08.2-.12.24.0083.0189.0125.0393.0125.06 0 .0206-.0042.041-.0125.06l-.08.12c-.0157.0657-.0157.1342 0 .2v.08c.0412.1708.0412.3491 0 .52-.0213.186-.0213.3739 0 .56-.0374.1033-.0374.2166 0 .32v.32l-.08.08.08.12v.36c-.0395.1304-.0395.2695 0 .4v.24l-.08.16.12.08v.52l.08.08c-.0057.0496-.0016.0999.0121.1479.0137.0481.0368.0929.0679.1321h-.16l.08.2c-.0356.0899-.0356.19 0 .28-.0203.1057-.0203.2142 0 .32v.08c-.0386.0668-.0589.1427-.0589.22 0 .0772.0203.1531.0589.22-.08.08 0 .2 0 .28l-.16.08.2.2c-.0145.0523-.0145.1076 0 .16l.08.08.08.16c-.0194.0923-.0194.1876 0 .28-.0078.0261-.0078.0539 0 .08l-.08.08.08.12c.0412.1164.0412.2435 0 .36-.0602.1543-.0602.3256 0 .48l-.12.08.12.08c-.0293.0408-.0451.0897-.0451.14 0 .0502.0158.0992.0451.14v.24c-.0383.1712-.0383.3487 0 .52v.44c.0216.1458.0216.2941 0 .44-.0284.177-.0181.358.0303.5307.0483.1726.1335.3327.2497.4693h.16c.0759-.0344.1396-.0911.1824-.1626.0429-.0715.063-.1543.0576-.2374v-.16c-.06-.3307-.06-.6694 0-1-.0191-.0789-.0191-.1612 0-.24-.0196-.1192-.0196-.2408 0-.36.0202-.1326.0202-.2675 0-.4v-2.76c-.0697-.3285-.0966-.6647-.08-1v-.84c.059-.2904.059-.5897 0-.88v-.24c.0276-.0339.0427-.0763.0427-.12 0-.0438-.0151-.0862-.0427-.12.0196-.1058.0196-.2143 0-.32-.0229-.0648-.0229-.1353 0-.2v-.28c.0402-.1029.0402-.2172 0-.32.0953-.2566.1493-.5266.16-.8v-.08c.0183-.0518.0183-.1083 0-.16.008-.1355.0648-.2634.16-.36.1135-.1362.1832-.3036.2-.48.0352-.0298.064-.0664.0847-.1077.0206-.0413.0326-.0863.0353-.1323.0796-.0835.1469-.1777.2-.28.0321-.0656.0769-.1241.1318-.1722.055-.0481.1189-.0847.1882-.1078h.08v-.08c.0584-.099.141-.1816.24-.24.1119-.0555.2081-.138.28-.24h.2c.1105-.0452.2175-.0987.32-.16.12-.12.16-.12.28-.08h.08c.0345-.0052.0673-.0188.0952-.0398.0279-.0209.0502-.0485.0648-.0802.0189.0082.0394.0125.06.0125s.0411-.0043.06-.0125h.52c.3737-.075.7607-.0474 1.12.08l.12.08.08-.12c.0517.0664.1187.1193.1954.1542.0766.0348.1605.0505.2446.0458.0191.0242.0434.044.0711.0578.0276.0139.058.0214.0889.0222.0867.0805.2017.1236.32.12.2265.2047.3925.4675.48.76v-.04H23c.0199.2191.1033.4276.24.6v.44l.08.08c.002.0862.0299.1698.08.24-.0213.0366-.0352.0772-.0407.1193-.0055.0421-.0026.0848.0086.1258.0111.0409.0303.0792.0565.1127.0261.0335.0586.0614.0956.0822-.08 0-.08.12-.08.2v.4l.08.12v.28c-.0994.2573-.0994.5426 0 .8-.08.08 0 .2 0 .28v.24c.0259-.0092.0541-.0092.08 0v.32c.0229.0647.0229.1352 0 .2-.0176.0749-.0196.1526-.0058.2283.0137.0757.043.1477.0858.2117v.08c-.0083.0189-.0125.0393-.0125.06 0 .0206.0042.041.0125.06v.08c.0022.0204.0113.0395.0259.0541.0145.0146.0336.0237.0541.0259v.16h-.08v.08c-.0229.0647-.0229.1352 0 .2h-.08c0 .0212.0084.0415.0234.0565.015.015.0354.0235.0566.0235-.0113.0808-.0026.1631.0253.2398.0279.0767.0741.1454.1347.2002 0 0 0 .08.08.08h-.08v.2h-.12v.36c-.0488.0609-.0892.1282-.12.2v.76h.12v.2l.2.12c-.0183.0517-.0183.1082 0 .16h-.16v1.16l-.12.08.16.16v.16h-.12l.2.24c.006.0397.006.0802 0 .12-.0565.0667-.0852.1526-.08.24v.16s-.08 0-.08.08c-.0085.0075-.0153.0167-.02.027-.0047.0104-.0071.0216-.0071.033 0 .0113.0024.0225.0071.0329.0047.0103.0115.0195.02.0271h-.2l.16.16h-.16l.2.12v.4c.0007.0309.0083.0612.0221.0889.0138.0277.0336.0519.0579.0711.0789.019.1611.019.24 0v.16h.2c.1192-.0196.2408-.0196.36 0h.16v-.16c.0391-.5594.0391-1.1207 0-1.68-.0405-.5059-.0405-1.0142 0-1.52.0052-.0874-.0235-.1733-.08-.24"/>
	<path fill="#0061AF" d="M13.6 25.52V22.8c0-.4 0-.84-.08-1.28-.08-.44 0-1-.08-1.52-.0368-.713-.1304-1.4219-.28-2.12l-.08-.48c-.12-.12-.12-.24-.2-.4-.0358-.1397-.0896-.2741-.16-.4-.1978-.3617-.4397-.6976-.72-1-.0563-.0652-.1241-.1194-.2-.16 0 0-.08 0-.12-.08-.21-.1389-.4391-.2467-.68-.32-.0317-.0432-.0744-.0771-.1236-.0982-.0493-.0211-.1033-.0286-.1564-.0218v-.08h-.12l-.56-.08h-.2v.08h-.16c-.06661-.0038-.13339-.0038-.2 0h-.12c-.0261-.0078-.0539-.0078-.08 0l-.28-.2v.12c-.09198-.0225-.18802-.0225-.28 0H8v.12c-.06525-.0144-.13317-.0108-.19655.0103-.06339.0212-.11987.0591-.16345.1097-.04605.0027-.09108.0147-.13234.0353-.04126.0207-.07789.0495-.10766.0847h-.08c-.08372.0978-.1954.1676-.32.2l-.2.08c-.02047.0022-.03958.0113-.05414.0259-.01456.0145-.02369.0336-.02586.0541h-.2v.16H6.4l-.08.08c-.13561.1698-.28261.3302-.44.48-.18454.19-.35816.3903-.52.6v.16s-.12.08-.12.2c0 .12-.08.2-.12.24v.08c-.08.08-.08.2-.12.24.00826.0189.01252.0394.01252.06 0 .0207-.00426.0411-.01252.06v.08c-.01572.0658-.01572.1343 0 .2v.08c.04117.1709.04117.3491 0 .52-.02131.1861-.02131.374 0 .56-.03743.1034-.03743.2166 0 .32v.4h-.44l.08.12v.36c-.03949.1304-.03949.2696 0 .4v.24l-.08.16.12.08v.52l.08.08c-.00573.0497-.00161.0999.01212.148.01372.048.03679.0929.06788.132h-.16l.08.2c-.021.0922-.021.1879 0 .28-.02026.1057-.02026.2143 0 .32v.08c-.03862.0669-.05895.1428-.05895.22 0 .0773.02033.1531.05895.22-.08.08 0 .2 0 .28l-.2.08.2.2c-.01448.0524-.01448.1077 0 .16l.08.08.08.16c-.01942.0923-.01942.1877 0 .28-.00778.0261-.00778.0539 0 .08l-.08.08.08.12c.04118.1165.04118.2435 0 .36-.06024.1543-.06024.3257 0 .48L4.8 26l.12.08c-.0293.0408-.04506.0898-.04506.14 0 .0502.01576.0992.04506.14v.24c-.03833.1712-.03833.3488 0 .52v.44c.02163.1459.02163.2941 0 .44-.02839.177-.01806.3581.03028.5307.04834.1727.13353.3328.24972.4693h.16c.07592-.0344.13955-.0911.18243-.1625.04288-.0715.06296-.1543.05757-.2375v-.16c-.06-.3306-.06-.6694 0-1v-.04c-.01959-.1192-.01959-.2408 0-.36.02017-.1326.02017-.2674 0-.4.04171-.666.04171-1.334 0-2v-.76c-.04002-.3053-.04002-.6146 0-.92v-.84c.05899-.2904.05899-.5896 0-.88v-.44c.02761-.0339.04269-.0763.04269-.12 0-.0437-.01508-.0861-.04269-.12.01956-.1058.01956-.2142 0-.32-.02288-.0647-.02288-.1353 0-.2v-.28c.04016-.1029.04016-.2171 0-.32.09526-.2565.14927-.5265.16-.8v-.08c.0183-.0517.0183-.1082 0-.16 0-.12.08-.2.16-.36.1135-.1362.18321-.3035.2-.48.03524-.0298.06405-.0664.08468-.1076.02063-.0413.03265-.0863.03532-.1324.09216-.0722.16159-.1694.2-.28.08-.12.12-.24.32-.28h.08v-.08c-.00891-.0747.00107-.1505.02902-.2204.02796-.0699.07299-.1316.13098-.1796.10206-.0719.18455-.1681.24-.28h.2c.11055-.0452.21752-.0987.32-.16.12-.12.16-.12.28-.08h.08c.03455-.0051.06727-.0188.0952-.0397.02794-.021.05021-.0486.0648-.0803.01893.0083.03935.0125.06.0125.02065 0 .04108-.0042.06-.0125h.56c.37361-.0765.76106-.0488 1.12.08l.12.08.08-.12c.0517.0665.1187.1194.1954.1542.0766.0349.1605.0506.2446.0458.0191.0243.0434.0441.0711.0579.0276.0138.058.0214.0889.0221.0867.0805.2017.1237.32.12.2265.2047.3925.4676.48.76V17h.12c.0199.2191.1033.4276.24.6v.4l.08.08c.002.0862.0299.1698.08.24-.0213.0367-.0352.0773-.0407.1193-.0055.0421-.0026.0849.0086.1258.0111.041.0303.0793.0565.1128.0261.0334.0586.0613.0956.0821-.08 0-.08.12-.08.2v.28l-.08.12v.12l.08.12v.28c-.0994.2574-.0994.5426 0 .8-.08.08 0 .2 0 .28v.24c.0259-.0091.0541-.0091.08 0v.32c.0229.0647.0229.1353 0 .2-.0176.0749-.0196.1526-.0058.2283.0137.0757.043.1478.0858.2117v.08c-.0083.0189-.0125.0394-.0125.06 0 .0207.0042.0411.0125.06v.08c.0022.0205.0113.0396.0259.0542.0145.0145.0336.0236.0541.0258v.16h-.08v.08c-.0229.0647-.0229.1353 0 .2v.12c0 .0212.0084.0416.0234.0566.015.015.0354.0234.0566.0234-.0113.0808-.0026.1632.0253.2399.0279.0767.0741.1454.1347.2001l.08.08h-.08v.2h-.12v.36c-.0488.061-.0892.1283-.12.2v.12h.12v.2l.2.12c-.0183.0518-.0183.1083 0 .16h-.16V26c-.0083.0189-.0125.0394-.0125.06 0 .0207.0042.0411.0125.06v.72l-.12.08.16.16v.16h-.12l.2.24c.006.0398.006.0802 0 .12-.0565.0667-.0852.1527-.08.24V28s-.08 0-.08.08c-.0085.0075-.0153.0168-.02.0271-.0047.0103-.0071.0216-.0071.0329 0 .0114.0024.0226.0071.0329.0047.0104.0115.0196.02.0271h-.2l.16.16h-.16l.12.12v.4c.0007.0309.0083.0613.0221.089.0138.0276.0336.0519.0579.071.0789.0191.1611.0191.24 0v.16h.2c.1192-.0196.2408-.0196.36 0h.16v-.16c.0391-.5593.0391-1.1207 0-1.68-.0405-.5058-.0405-1.0141 0-1.52.0242-.1188.0242-.2412 0-.36"/>
	<g fill="#F37021">
		<path d="M35.6 25.72V23c0-.4 0-.84-.08-1.28-.08-.44 0-1-.08-1.52-.0368-.713-.1304-1.4219-.28-2.12l-.08-.48c-.1053-.1103-.175-.2497-.2-.4-.0358-.1397-.0896-.2742-.16-.4-.1978-.3618-.4397-.6977-.72-1-.0473-.0738-.1176-.1301-.2-.16 0 0-.08 0-.12-.08-.21-.1389-.4391-.2467-.68-.32-.0365-.0743-.0937-.1364-.1646-.179-.071-.0426-.1527-.0638-.2354-.061h-.12l-.6-.08h-.08V15h-.16c-.0666-.0039-.1334-.0039-.2 0h-.08c-.0261-.0078-.0539-.0078-.08 0l-.28-.16V15c-.0497-.0083-.1006-.0054-.149.0085-.0484.0138-.0932.0382-.131.0715H30v.12c-.0652-.0144-.1332-.0108-.1966.0103-.0633.0211-.1198.059-.1634.1097-.0875.0228-.1692.0637-.24.12h-.08c-.0837.0978-.1954.1676-.32.2l-.2.08c-.0261-.0078-.0539-.0078-.08 0h-.2V16h-.12l-.08.08c-.12.16-.28.32-.4.48-.1845.19-.3582.3903-.52.6v.16s-.12.08-.16.2c-.0565.0667-.0852.1527-.08.24v.08C27 17.88 27 18 27 18c.0083.0189.0125.0393.0125.06 0 .0206-.0042.041-.0125.06l-.08.12c-.0157.0657-.0157.1342 0 .2v.08c.0412.1709.0412.3491 0 .52-.0213.186-.0213.3739 0 .56-.0374.1033-.0374.2166 0 .32V20l-.08.08.08.12v.36c-.0395.1304-.0395.2696 0 .4v.24l-.08.16.12.08v.4l-.08.16.08.08c-.0067.0998.0216.1988.08.28h-.16l.08.2c-.0356.0899-.0356.19 0 .28-.0203.1057-.0203.2143 0 .32v.08c-.0386.0669-.0589.1427-.0589.22 0 .0772.0203.1531.0589.22-.08.08 0 .2 0 .28h-.12l.2.2c-.0145.0523-.0145.1076 0 .16l.08.08.08.16c-.0225.0919-.0225.188 0 .28-.0078.0261-.0078.0539 0 .08l-.08.08.08.12c.0412.1164.0412.2435 0 .36-.0602.1543-.0602.3256 0 .48h-.16l.12.08c-.0308.0401-.0475.0893-.0475.14 0 .0506.0167.0998.0475.14v.24c-.039.1576-.039.3223 0 .48v.44c.0216.1458.0216.2941 0 .44-.0284.177-.0181.3581.0303.5307.0483.1726.1335.3327.2497.4693h.08c.0759-.0344.1396-.0911.1824-.1626.0429-.0714.063-.1543.0576-.2374v-.16c-.06-.3307-.06-.6694 0-1-.0191-.0789-.0191-.1612 0-.24v-.08c-.0196-.1192-.0196-.2408 0-.36.0202-.1326.0202-.2675 0-.4.0417-.666.0417-1.334 0-2v-.76c-.04-.3054-.04-.6147 0-.92v-.84c.059-.2904.059-.5897 0-.88V21c.0276-.0339.0427-.0763.0427-.12 0-.0438-.0151-.0861-.0427-.12.0196-.1058.0196-.2143 0-.32v-.48c.0402-.1029.0402-.2171 0-.32.0914-.2438.1453-.5001.16-.76v-.08c0-.08 0-.12-.08-.16-.08-.04.08-.2.16-.32.1135-.1362.1832-.3035.2-.48.0352-.0298.064-.0664.0847-.1077.0206-.0413.0326-.0863.0353-.1323.0922-.0722.1616-.1694.2-.28.0321-.0656.0769-.1241.1318-.1722.055-.0481.1189-.0847.1882-.1078h.08v-.08c0-.08.12-.12.24-.2.1119-.0555.2081-.138.28-.24.0373.0031.0748-.0024.1095-.0163.0347-.0139.0657-.0357.0905-.0637.1105-.0452.2175-.0987.32-.16.12-.12.16-.12.28-.08h.08c.0345-.0052.0673-.0188.0952-.0398.0279-.0209.0502-.0485.0648-.0802.0189.0082.0394.0125.06.0125s.0411-.0043.06-.0125h.48c.2943-.1072.6116-.1348.92-.08l.12.08.08-.08c.0517.0664.1187.1194.1954.1542.0766.0348.1605.0505.2446.0458.0456.0494.0998.0901.16.12.0261.0077.0539.0077.08 0 .0867.0805.2017.1236.32.12.2265.2047.3925.4675.48.76v.16h.12c.0199.2191.1033.4276.24.6v.4l.08.08c.0079.0977.0351.1929.08.28-.0213.0367-.0352.0772-.0407.1193-.0055.0421-.0026.0848.0086.1258.0111.0409.0303.0793.0565.1127.0261.0335.0586.0614.0956.0822-.08 0-.08.12-.08.2v.28l.08.12V20c-.0994.2574-.0994.5426 0 .8-.08.08 0 .2 0 .28v.24c.0259-.0092.0541-.0092.08 0v.16h.08V22c.0229.0647.0229.1353 0 .2-.0176.0749-.0196.1526-.0058.2283.0137.0757.043.1478.0858.2117v.08c-.0083.0189-.0125.0393-.0125.06 0 .0206.0042.041.0125.06v.08c.0022.0204.0113.0395.0259.0541.0145.0146.0336.0237.0541.0259v.16h-.08v.08c-.0229.0647-.0229.1353 0 .2l-.08.12c0 .0212.0084.0415.0234.0565.015.015.0354.0235.0566.0235-.0073.0806.0032.1618.0308.2378.0277.0761.0718.1451.1292.2022 0 0 0 .08.08.08v.2h-.12v.32c-.0488.0609-.0892.1282-.12.2V25h.12v.2l.2.12c-.0183.0517-.0183.1082 0 .16h-.16V27l-.12.08.16.16v.16h-.12l.2.24c.006.0397.006.0802 0 .12-.0565.0667-.0852.1527-.08.24v.08l-.08.08v.12h-.2l.16.16h-.16l.12.12V29c.0007.0309.0083.0613.0221.0889.0138.0277.0336.0519.0579.0711.0789.0191.1611.0191.24 0v.16h.2c.1192-.0196.2408-.0196.36 0h.16v-.12c.0395-.5593.0395-1.1207 0-1.68-.0405-.5059-.0405-1.0142 0-1.52v-.28"/>
		<path d="M0 40h40V0H0v40zm37.88-2.12H2.12V2.12h35.76v35.76z"/>
	</g>
</svg>
