<svg viewBox="0 0 40 40" xmlns="http://www.w3.org/2000/svg">
	<path fill="#32AE50" d="M16.9731.311539c2.9994-.625597 6.194-.30660436 8.9984.935301 4.3435 1.89073 7.7007 5.93234 8.6824 10.57636.2648 1.1381.3345 2.3088.3624 3.4733.0015 6.5765-.0016 13.1514-.0031 19.728-2.3429.0062-4.6858.0201-7.0271-.0047-.0852-6.8274.0031-13.6594-.0449-20.4868-.0496-2.253-1.2667-4.3637-2.9887-5.7697-2.5906-2.03784-6.4557-2.25618-9.2213-.44133-1.9512 1.20939-3.3061 3.32463-3.605 5.59783-.0882.6612-.0557 1.3287-.0573 1.9945.0016 6.369 0 12.7396-.0031 19.1086-2.35524.0124-4.71052.017-7.0658-.0046.00774-6.6184-.00619-13.2382.00929-19.8581.01239-3.255 1.03286-6.51614 3.01959-9.10679C10.1751 3.13137 13.4223 1.04089 16.9731.311539zM18.7554 30.1327c-.9709.2772-1.8644.8362-2.5365 1.5919-.9895 1.1846-1.4586 2.8245-1.0963 4.342.3143 1.5191 1.4091 2.8384 2.809 3.4872.9028.4584 1.9511.5141 2.9406.3872 1.4618-.2416 2.7873-1.1815 3.5089-2.473.669-1.1552.8037-2.5814.4398-3.8589-.415-1.5268-1.6244-2.8043-3.1109-3.337-.94-.3531-1.9837-.3624-2.9546-.1394z"/>
</svg>
