<svg xmlns="http://www.w3.org/2000/svg" viewBox="0 0 40 40">
	<path fill="#768086" d="M27.1 16.3h3.4v12.5h6.1V16.3H40V11H27.1v5.3zM4.3 23.4H0v5.4h6.1c.3 0 .6 0 .8-.1.9-.1 1.7-.6 2.4-1.3.6-.7 1-1.6 1-2.5V11h-6v12.4zm22-1c0-.5 0-.9-.1-1.4h-1.9c0 .4.1.8.1 1.3s-.1.8-.1 1.2l-7-5.9c-.9-.8-1.3-1.3-1.3-2.5 0-2.4 1.5-2.4 3.4-2.4 2.6 0 3 .5 3 2.7v1h2v-1c0-3.8-1.8-4.5-5-4.5-3.5 0-5.4.7-5.4 4.2 0 2 .4 2.5 1.6 3.5-2.2.6-3.6.6-3.6 4.9 0 5.6 2.8 5.5 6.8 5.5 2.9 0 5.6 0 6.6-2.3l2.6 2.2 1.1-1.4-3.1-2.6c.3-.8.4-1.7.3-2.5zM19 27.1c-4.2 0-4.7-.3-4.7-3.8 0-2.9.3-3.1 2.9-3.8l7 5.8c-.6 2.1-3.3 1.8-5.2 1.8z"/>
</svg>
