<svg viewBox="0 0 40 40" xmlns="http://www.w3.org/2000/svg">
	<path fill="#008D36" d="M19.0354 22.7781 5.65916 36.1543H0l16.2058-16.2057 2.8296 2.8295ZM40 19.0054c0 2.5294-.9861 4.8874-2.7867 6.6881L26.7524 36.1543l-6.5595-6.5594-6.5166 6.5594H8.01715L20.2358 23.9357l6.5595 6.5595 7.5884-7.6313c2.1436-2.1436 2.1436-5.6163 0-7.7171-2.1436-2.1436-5.5734-2.1436-7.717 0l-6.4309 6.4309L8.31726 9.61629V4L20.2358 15.9185l3.6013-3.6012c3.687-3.68708 9.6892-3.68708 13.3762 0C39.0139 14.075 40 16.4759 40 19.0054Z"/>
</svg>