<svg xmlns="http://www.w3.org/2000/svg" viewBox="0 0 40 40">
	<path fill="#e0002e" d="M0 40h40V0H0v40z"/>
	<path fill="#ffc733" d="M10.2 30.3h19.4V28H10.2v2.3zm9.7-23.5l2.6 2.5-2.6 2.5-2.5-2.5 2.5-2.5zM33.6 18c-3.5-3.2-8.2-5-12.9-5.1v14.2h4.7c.9 0 1.2-.7 1.2-.7L30 18c.3.1.6.4 1 .7l-3.5 8.4H30c-.1 0 3.6-9.1 3.6-9.1zM24 25h-1.2v-9.7c1.8.3 3.4.9 5 1.6l-3.2 7.8c-.1.3-.6.3-.6.3zM6.4 18c3.5-3.2 8.2-5 12.9-5.1v14.2h-4.7c-.9 0-1.2-.7-1.2-.7L10.1 18c-.3.1-.6.4-1 .7l3.5 8.4h-2.5L6.4 18zm9.4 7H17v-9.7c-1.8.3-3.4.7-5 1.6l3.2 7.8c.3.3.6.3.6.3z"/>
</svg>
