<svg viewBox="0 0 40 40" xmlns="http://www.w3.org/2000/svg">
	<path fill="#FFB400" d="M23.981 4.21278V1l-1.9877 1.778L20.4889 1 18.982 2.778 17.0078 1v3.23148c1.1641-.24236 2.347-.36992 3.5384-.36992 1.1489 0 2.3025.12076 3.4348.35122zM20.4247 5.56478l.797.81943-.797.82573-.796-.82573.796-.81943zM39.9252 20.2619L40 19.8223h-1.1827c-.5426 0-.7965.1945-.8754.7502-.0783.5657-.1973 1.2218-.3684 2.1625-.1611.881-.6446.9463-1.4423.9484.3672-5.7347-2.895-10.9684-7.9918-13.6005-.5731-.29593-1.1165-.52452-1.7921-.77777l-.0513.15171c.6025.27043 1.2128.57116 1.7854.93046 4.7049 2.9747 6.9904 8.2402 6.0562 13.2961-.8923.0008-1.4258-.0107-1.5971-.9484-.1719-.9407-.2891-1.5968-.3702-2.1625-.0769-.5557-.33-.7502-.8725-.7502H30.112l.0765.4396h.7654c.0131.085.0306.1803.0476.284l-.7633-.001.077.4412h.7577c.015.0918.0329.1864.0488.2825h-.7568l.076.4391h.7525c.1275.7467.2573 1.4978.3234 1.8046.1336.6565.3951 1.6339 2.2323 1.6957-.0003.0015-.0003.0044-.0003.0054-.3216 1.0077-.7686 2.0006-1.3692 2.9527-3.6077 5.697-11.2067 7.2952-16.878 3.6448-2.3903-1.5389-4.0268-3.9244-4.7214-6.5718-.0023-.0113-.0037-.022-.0085-.0311 1.7877-.0807 2.0435-1.044 2.1786-1.6957.0642-.3068.1944-1.0579.3211-1.803l.7529-.0016.0769-.4391h-.7574c.0179-.0961.0323-.1908.0488-.2825h.7569l.0782-.4412h-.7624c.0165-.1029.0319-.198.0464-.283h.7665l.0744-.4396h-1.1852c-.542 0-.7964.1945-.8733.7502-.0808.5657-.1968 1.2218-.3684 2.1625-.1621.8788-.6429.9463-1.4397.9484-.2796-2.4298.2219-4.9699 1.6746-7.2198 2.7053-3.9959 7.5664-5.3602 11.783-4.078l-3.4832-3.63186 3.4844-3.57606c-2.7599-.59409-5.501-.45105-8.033.28573-2.4525.76144-4.6958 2.13873-6.33759 4.14174C6.01158 13.477 4.8059 19.7073 6.29068 24.7999c1.38682 5.0983 5.58842 9.4164 10.80542 10.644 2.3889.6106 4.9302.5744 7.3225-.0386l.0357.1426c-2.4049.6588-4.9775.742-7.4217.1627-5.3324-1.1586-9.80581-5.3751-11.33056-10.6297-1.29157-4.1577-.95363-8.9019 1.07949-12.7553l-.15137-.099c-1.03986 1.5421-1.82426 3.2692-2.27871 5.1322-.50698 2.0688-.61515 4.2153-.31873 6.3246-.89512.0024-1.43342-.0073-1.60502-.9484-.17229-.9407-.28914-1.5968-.36754-2.1625-.07892-.5557-.33234-.7502-.87489-.7502H0l.0768753.4396H.841036c.014457.085.029424.1803.047792.284l-.76263-.001.076535.4412h.757698c.015307.0918.031465.1864.048299.2825H.250525l.076875.4391h.75532c.12671.7467.25545 1.4978.31923 1.8046.14066.6793.41006 1.7011 2.4146 1.7011h.50292c.01395.0617.02858.1213.04405.184 1.46574 5.9051 6.10108 10.808 12.51438 12.2722 8.4523 1.935 16.8979-3.2026 18.9004-11.6306.0658-.2737.1245-.549.176-.8256h.2314c2.0018 0 2.2742-1.0218 2.413-1.7011.0653-.3068.1939-1.0579.3206-1.803l.7545-.0016.0753-.4391h-.7548c.0153-.0961.0323-.1908.0468-.2825h.7584l.0779-.4412h-.7647c.0184-.1029.0344-.198.0485-.283h.764z"/>
</svg>
