<svg viewBox="0 0 40 40" xmlns="http://www.w3.org/2000/svg">
	<linearGradient id="gr" x1="17.8701" y1="19.5301" x2="27.1401" y2="32.7701" gradientUnits="userSpaceOnUse">
		<stop stop-color="#B4966A"/>
		<stop offset=".5" stop-color="#FEF0C7"/>
		<stop offset="1" stop-color="#B4966A"/>
	</linearGradient>
	<path fill="#335497" d="M40 0H0v40h40V0z"/>
	<path fill="#fff" d="M37.78 2.38989H2.48004V38.1699H37.78V2.38989z"/>
	<path fill="#335497" d="M3.16022 3.26013H37.0902V37.2601H3.16022V3.26013z"/>
	<path fill="#fff" d="M4.21009 10.4298h2.83V4.94983H35.5001V35.8498H6.99009v-1.64H4.1601l.04999-23.78z"/>
	<path fill="#335497" d="M5.56982 11.7002H16.6298c-3.59 3.54-7.12997 7.07-10.65997 10.6 3.53 3.63 7.06997 7.26 10.65997 10.88H5.56982v-21.48z"/>
	<path fill="#335497" d="M18.9402 11.63h2.27c-3.72 3.53-7.46 7.1-11.16 10.66 3.7 3.66 7.44 7.32 11.16 11h-2.27c-3.7467-3.66-7.47-7.3267-11.17-11 3.73-3.56 7.42-7.13 11.17-10.66zM22.3701 16.0802h11.58v17.15h-11.58v-.19c.253.0158.5069.0158.76 0 5.37.03 9.77-3.17 9.77-7.17s-4.4-7.25-9.77-7.25h-.76v-2.54z"/>
	<path fill="#B4966A" d="M23.0801 20.9803c1.55 0 2.78 2.33 2.78 5.23 0 2.9-1.23 5.21-2.78 5.21-1.55 0-2.8-2.37-2.8-5.24s1.22-5.21 2.8-5.2z"/>
	<path fill="url(#gr)" d="M22.5001 20.9301c1.54 0 2.78 2.33 2.78 5.23 0 2.9-1.24 5.21-2.78 5.21-1.54 0-2.8-2.37-2.8-5.24s1.25-5.26 2.8-5.2z"/>
</svg>
