<svg xmlns="http://www.w3.org/2000/svg" viewBox="0 0 40 40">
	<path fill="#273981" d="m20.2148 0 8.607 5.00023 8.6077 4.99997v19.9999l-8.6077 5L20.2148 40l-8.6077-4.9999-8.6071-5V10.0002l8.6071-4.99997L20.2148 0Z"/>
	<path fill="#fff" d="M34.1367 11.8142 20.7306 4.06738l-.5793 1.01321 12.8539 7.42761v15.3559h1.1424V11.8402h-.026l.0151-.026ZM6.00957 28.1668 19.415 35.9142l.5794-1.0132-12.85398-7.4282V12.1175H5.99805v16.0239h.02601l-.01449.0254ZM30.0404 25.233c0-1.1787-.9508-2.1358-2.1234-2.1358-.109 0-.2154.0083-.3204.0242l-2.966-5.1694-2.9961-5.2215c.3461-.3801.5574-.8873.5574-1.443 0-1.1793-.9523-2.13695-2.1242-2.13695-1.1726 0-2.1228.95765-2.1228 2.13695 0 .5486.2069 1.0505.5459 1.4288l-3.0047 5.2357-2.8863 5.0299c-.0605-.0136-.1223-.0248-.185-.0331-.0916-.0124-.185-.0189-.2799-.0189-1.1725 0-2.1216.9565-2.1216 2.1352 0 1.1811.9491 2.1369 2.1216 2.1369.8705 0 1.62-.5278 1.9475-1.2827H25.906c.2852.8429 1.0782 1.4506 2.011 1.4506 1.1726 0 2.1234-.9564 2.1234-2.1369Zm-15.8025-.4694c-.0671-.4776-.2917-.9044-.6186-1.226l2.8673-4.998 2.9855-5.2014c.1889.0561.3887.0857.5956.0857.2009 0 .396-.0272.5799-.0798l2.9825 5.1955 2.9078 5.0695c-.342.2944-.5899.697-.6931 1.1545H14.2379Z"/>
</svg>