<svg xmlns="http://www.w3.org/2000/svg" viewBox="0 0 40 40">
	<path fill="#a70133" d="M0 0h40v40H0V0z"/>
	<g fill="#fff">
		<path d="M28.6 23.6c-.3-.2-.5-.5-.5-.8 0-.4.1-.8.2-1.2.1-.3.2-.6.2-.8 0-.2.1-.3.1-.5.1-.5.1-.9.2-1.4 0-1.1-.1-2.1-.3-3.1 0 0 1.1-1.6 1.1-2.8 0-1.3-1-2.4-1-2.4-.3-.3-.4-.6-.5-1v-.3c0-.2.1-.4.2-.6 0 0 1.2-2.1-1.1-2.4-2.5.3-.9 2.6-.9 2.6.1.2.2.4.2.6 0 .1-.1.2-.1.3l-.2.2c-.2.1-.3.3-.4.4-.3.3-.6.6-.9 1-.5.6-.9 1.3-1.3 2 0 0-.8-.9-3-.8-1.6.1-3.1.4-4.5 1.2-.1-.3-.2-.5-.4-.7-.3-.5-.6-.9-1-1.4-.5-.6-1.3-1.6-1.3-2.1 0-.1.1-.4.2-.7.2-.5.4-1.1.4-1.4 0-.2-.3-1.3-1.2-1.3-.9 0-1.4 1.1-1.4 1.5 0 .2.1.5.2.8.2.5.5 1 .5 1-.2.5-.4 1-.8 1.5-.5.7-.9 1.5-1 2.4-.2 1.3 1 2.6 1 2.6-.3.8-.5 1.7-.5 2.6 0 1 .4 2.1.8 3 .2.6.4 1 .4 1.3 0 .7-.8 1.1-.9 1.1-.1 0-.2 0-.3-.1h-.1c-.1 0-.3-.1-.3-.1-.1 0-.2 0-.3.1-.1.1-.2.4-.2 1 .1 1.1.6 1.3.6 1.3s.5-.2.6-.2c1.2-.1 2.6 2.8 2.7 3 .1.2.2.7.3.9.1.2 1.9 3.9 6 3.8 4-.1 5.4-3.6 5.6-3.9.1-.1.2-.3.2-.4.1-.2.2-.3.2-.3s.6-1.1 1-1.7c.5-.6 1-1.2 1.6-1.7 0 0 1.4 0 1.3-1.1-.2-2.2-1.4-1-1.4-1zm-1 2c-.9.7-1.8 2.3-2.5 3.6-.4.7-.7 1.3-1 1.7-.9 1.1-2.1 1.9-4.2 1.9-2 0-3.1-1.1-3.8-1.7L16 31c-.2-.2-.6-1-1.1-1.8-.8-1.5-1.8-3.4-2.6-3.6-1.2-.4-.3-1.2-.1-1.3.2-.1 1.4-.9.2-3.1-.3-.7-.5-1.4-.6-2.2-.1-.8 0-1.5.3-2.3 0 0 1.8.5 2.7.4 0 0 1.6-.3 0-.7-.9 0-1.9-.1-2.6-.8-.6-.6-1-1.3-1-2.1-.1-1 1.6-3.3 1.6-3.3s0 .1.1.1v.1c0 .1.1.1.1.1l.1.1c.3.4 2.1 2.4 2.5 3.6.2.7.7.2.7.2 1.3-.7 2.8-1.1 4.3-1.2 1-.1 2 .2 2.8.8 0 0 .6.9.9-.2.5-1.8 2.9-3.7 2.9-3.7l.1-.3 1.1 1.9c.6 1.1.3 1.7-.1 2.8l-.1.2c-.7 1.7-2.3 1.8-3.1 1.9h-.3c-.7.1-.4.4.2.5.7.3 2.7-.3 2.7-.3s.3.1.3 1.6c0 1.4-.3 2.5-.6 3.3-.1.4-.3.7-.3 1 0 .8.9 1.5 1.1 1.6h.1c.3.2.5.4-.7 1.3z"/>
		<path d="M25.8 19.7c-3.1-.4-3.3.1-3.5.4-.2.3-1.1 4-1.1 4.4 0 .4.3.6.3 1.2s-.8.9-1.5.9c-1.1 0-1.6-.4-1.6-.8s.3-.8.3-1.3c0-1.5-1.2-4.6-1.5-4.8-.3-.1-2.1-.1-2.9 0h-.4c-.3 0-.4.4-.4.4s-.1 2.3 1.9 2.8c2.1.4 2.4 1.3 2.4 1.7s-.2 1.2-.2 1.5c0 .2.1.4.3.6l.3.3c.1 0 .1.1.2.1.5.2.8.4 1 .6.1.1.1.3.1.5 0 .3-1.1.7-1.5.7-.3 0-.7-.4-.9-.4-.1 0-.3 0-.4.1-.1.1-.2.2-.2.4 0 .3 1 1 1.5 1s1.4-.8 2-.8c.3 0 .7.2 1.1.4.4.2.7.4.9.4.5-.1 1.1-.3 1.1-1s-.6 0-1 0-1.6-.3-1.6-.8.2-.5 1.1-.9c.3-.1.5-.3.7-.5.2-.2.3-.5.3-.8-.2-.5-.3-.9-.4-1.4-.2-.9 2-1.9 3.3-2.4.5-.2.8-.4.9-.4.2-.3 0-1.5 0-1.5s.2-.5-.6-.6zm-10.5 1.4c.1-.5 2 .2 1.8.8-.5.3-2 0-1.8-.8zm7.9.5c-.5-.5 1.6-1.1 1.9-.7.3.6-1.5 1.2-1.9.7z"/>
	</g>
</svg>