<svg xmlns="http://www.w3.org/2000/svg" viewBox="0 0 40 40">
	<path fill="#a3003a" d="M0 0h40v40H0z"/>
	<g fill="#fff">
		<path d="M14.8 23.5c.5.2 1.3.4 2 .7.2 0 .4.2.5.2s.4.2.4.4c.2.2.2.4.2.5v.5c0 .4-.2.7-.2 1.1 0 .2 0 .4.2.5.2.2.2.4.4.4l1.1.5c.2 0 .2.2.2.2s.2.2.2.4 0 .2-.2.4l-.2.2c-.4.2-.7.4-1.1.4-.2 0-.5 0-.7-.2-.2-.2-.5-.4-.7-.2-.2.2-.2.4-.2.5 0 .2.2.4.2.4.2.4.5.5.9.5s.7 0 .9-.2c.4-.4.9-.5 1.4-.5s1.1.2 1.4.5c.4.2.7.4 1.1.2.4 0 .7-.2.9-.5.2-.2.2-.2.2-.4s0-.4-.2-.5c-.2 0-.2-.2-.4 0-.2 0-.4 0-.4.2-.2.2-.5.2-.7.2-.4 0-.7-.2-.9-.4-.2 0-.2-.2-.2-.2 0-.2-.2-.2-.2-.4s0-.2.2-.4l.2-.2 1.1-.5c.2-.2.4-.2.5-.5.2-.2.2-.4 0-.7 0-.4-.2-.5-.2-.9v-.5c0-.2.2-.4.2-.5.2-.2.2-.4.4-.4.2-.2.4-.2.5-.2.5-.2.9-.4 1.4-.5.5-.2 1.1-.5 1.4-1.1.4-.5.5-1.1.5-1.6s-.2-.7-.5-.7h-2.5c-1.1 0-1.3 0-1.6 1.1-.5 1.6-1.3 3.1-.7 4.9 0 .2.2.2.2.4v.4c0 .2-.2.2-.2.4-.2 0-.2.2-.4.2-.5.2-1.1.2-1.6.2-1.1-.2-1.3-.5-.9-1.6.2-.4.2-.7.2-1.1-.2-1.4-.5-2.9-1.3-4.1l-.2-.2h-3.6s-.2 0-.2.2c0 0 0 .2-.2.2V21c0 .5.2 1.1.4 1.6.1.4.4.7 1 .9zm8.6-1.4c.4-.2.7-.4 1.3-.4h.2s.2 0 .2.2v.4l-.5.5c-.3.2-.7.2-.9.2l-.5-.4c0-.2.2-.4.2-.5zm-8.5-.2c.2-.2.2-.2.4-.2.4.2.9.2 1.3.4.2.2.2.4.4.5-.2.2-.4.2-.5.4-.4 0-.5 0-.7-.2s-.5-.4-.7-.5l-.2-.4z"/>
		<path d="M9.4 26s0 .2.2.2.2.2.2.2h.9c.2 0 .5.2.7.4.9.7 1.6 1.8 2 3.1.1.2.1.3.5.7 1.4 2.5 3.4 4 6.3 4s4.9-1.4 6.3-4c.2-.4.4-.7.4-.7.4-.9.9-1.6 1.4-2.5.2-.4.5-.5.9-.7.4-.2.7-.2 1.1 0h.2s.2 0 .2-.2l.2-.2v-.9c.2-.9 0-1.1-.9-.9h-.7c-.2 0-.2-.2-.4-.2 0 0-.2-.2-.2-.4-.2-.2-.2-.4-.2-.5v-.5c.2-.4.4-.7.4-1.1.7-1.4.9-3.2.4-4.9-.3-.4-.3-.8-.3-1.1s.2-.7.4-.9c.2-.2.2-.4.2-.5.2-.5.2-1.1.2-1.4 0-.5-.2-1.1-.5-1.4-.4-.7-.7-1.4-1.3-2.2-.2-.2-.2-.4-.2-.5 0-.2.2-.4.2-.5.5-.9.7-2.2-.5-2.5h-.9c-.2.2-.4.2-.5.4-.2.2-.2.4-.4.5v.7c0 .2.2.5.4.7.2.4.4.9.4 1.3 0 .5-.2.9-.5 1.3-.9.9-1.4 2-2 3.1-.2.2-.4.2-.5.2-.5-.2-.9-.4-1.4-.5-1.6-.5-3.4-.5-4.9.2-.4.2-.7.4-1.1.4-.4-.2-.5-.5-.5-.9-.4-.5-.7-.9-.9-1.4-.2-.2-.4-.5-.5-.7-.4-.4-.5-.7-.7-1.3 0-.5.2-.9.4-1.4.2-.2.2-.4.2-.7 0-.4 0-.7-.2-1.1-.2-.4 0-.5-.4-.7h-.9l-.2.2c-1.6-.1-1.4 1.1-.9 1.8.2.2.4.5.4.9s-.2.5-.4.9c-.5.7-.9 1.4-1.3 2.2-.2.5-.4.9-.4 1.4 0 .5.2 1.1.5 1.4.2.2.4.5.4.9s0 .7-.2.9c-.5 1.6-.4 3.4.4 4.9.4.4.4.9.5 1.3v.5c0 .2-.2.4-.4.5 0 .2-.2.2-.4.4H9.5c-.2 0-.2 0-.2.2l-.2.2v.4c0 .4 0 .5.2.9v.1zm1.8-1.1c.4-.4.5-.5.9-.7.2-.2.4-.4.4-.5v-.5c-.2-.7-.4-1.3-.5-2-.5-1.1-.7-2.5-.5-3.8.2-.7.4-.9 1.1-.7.7.2 1.6.2 2.3.2h.4c.2 0 .2-.2.2-.2 0-.2-.2-.2-.4-.2-.4 0-.7 0-1.1-.2-1.6-.2-2.5-.7-3.2-2.7 0-.4-.2-.5 0-.9s.2-.5.4-.9c.4-.7.9-1.4 1.4-2.2.9 1.3 1.8 2.3 2.5 3.4.2.4.4.7.5 1.3v.2l.2.2h.2c.5-.2.9-.4 1.4-.5.7-.4 1.6-.5 2.5-.5s1.6.2 2.5.5c.5.2.9.4 1.4.5.4.2.5 0 .5-.2.4-1.1 1.1-2 1.8-2.9.4-.5.7-1.1 1.3-1.6.5.9 1.1 1.6 1.4 2.5.2.2.2.5.2.9s0 .5-.2.9c-.2.7-.5 1.3-1.1 1.8-.4 0-1.1.2-1.8.2-.4 0-.7 0-1.1.2-.2 0-.4.2-.4.2.2.2.2.2.4.2.9 0 1.6 0 2.5-.2.9-.2 1.1-.2 1.1.7.2 1.3 0 2.5-.5 3.8-.2.7-.4 1.3-.5 2v.5c0 .2.2.4.4.5.4.2.5.5.9.7.4.4.4.5 0 .7-.9.5-1.8 1.4-2.2 2.5-.5.9-.9 2-1.4 2.9s-1.3 1.6-2.2 2.2c-.9.5-1.8.7-2.9.7-2.9 0-4.7-1.4-5.9-4-.4-.5-.5-1.3-.9-1.8-.4-1.1-1.3-2-2.2-2.5-.2-.1-.2-.3.2-.7z"/>
	</g>
</svg>
