<svg viewBox="0 0 40 40" xmlns="http://www.w3.org/2000/svg">
	<path fill="#00858B" d="M4.276 34.9038h33.2669V6C3.00041 36.0272 8.00131 31.7003 4.276 34.9038z"/>
	<g fill="#000">
		<path d="M28.9253 23.0249v2.0511c.9204 1.1741 3.7108 6.9288-.8625 6.1895l.0073 2.1598c7.0375.4929 5.1313-4.5878 3.8267-8.3493l2.7976.0072v8.3421l2.2686-.029.0217-10.3569h-8.0594v-.0145z"/>
		<path d="M28.7371 25.1265v-2.0801h-7.0882v10.5454h6.2982c1.0582 0 1.2683-1.5655 1.1379-2.3048-.029-.2392-1.3263-4.3776-1.7177-4.3776h-2.1236c.058.1812.3479.5218.3479.6958.4566.9132 1.5945 3.2904.8045 3.805h-2.5802v-6.2765h4.9212v-.0072z"/>
	</g>
	<g fill="#D7B369">
		<path d="M37.3329 18.0021L40 13.2041l-13.5532 3.0078c4.0442-.087 7.023.2247 10.8861 1.7902zM16.3727 18.8141c3.979-1.9569 8.1826-2.4715 10.0888-2.5874-.3189.058-9.6322 2.4135-10.0888 2.5874z"/>
		<path d="M16.5681 18.7048c-3.2977 1.6453-6.2764 4.0877-5.9648 7.0448.5653 2.2468 3.2397 3.6673 8.0087 4.6023.1449 0-.058.3406-.058.3116-3.7181-.2537-16.84361-.9349-18.5250674-3.979C-.58712 23.9377 8.75514 20.9806 16.5681 18.7048z"/>
	</g>
	<g fill="#fff">
		<path d="M27.128 25.5397v-2.0801h-7.139V34.005h6.1098c1.0582 0 1.4133-1.5655 1.2828-2.3048-.0579-1.0219-1.3625-4.1964-1.6742-4.3776h-2.1235c.3116.9567 2.196 3.9065 1.1523 4.5805l-2.5801-.0217v-6.3345h4.9719v-.0072z"/>
		<path d="M27.7878 23.5252v2.0656c.8262 1.0654 3.4499 6.2475.087 6.2475l.0217 2.109c5.0009.0073 3.8413-5.0154 2.3337-8.3638l3.0658.0073v8.371h2.1598l-.0072-10.4801-7.6608.0435z"/>
	</g>
</svg>
