<svg viewBox="0 0 40 40" xmlns="http://www.w3.org/2000/svg">
	<path fill="#0039A6" d="M31.7944 40H8.20931C3.6831 40 0 36.3172 0 31.7914V8.20853C0 3.68275 3.6831 0 8.20931 0H31.7944C36.3207 0 40 3.68275 40 8.20853V31.7914C40.0038 36.3172 36.3207 40 31.7944 40ZM8.20931.580513C4.00111.580513.580568 4.00073.580568 8.20853V31.7914c0 4.2041 3.420542 7.6244 7.628742 7.6244H31.7944c4.2045 0 7.6251-3.424 7.6251-7.6244V8.20853c0-4.2078-3.4206-7.628017-7.6251-7.628017H8.20931Z"/>
	<path fill="#00A1DE" d="M17.9389 5.82317c.6102-.35496 1.2758-.53244 1.9377-.55462-1.3868.04068-2.7179.77648-3.4612 2.06692L4.44903 28.0527c-1.14264 1.982-.46223 4.5111 1.51614 5.6536 1.97837 1.1426 4.51143.4659 5.65033-1.5123l8.3868-14.5239-3.5758-6.1934c-1.1426-1.98187-.4659-4.51098 1.5124-5.65353Z"/>
	<path fill="#0039A6" d="M35.5541 28.0539 23.5914 7.34035c-.747-1.29043-2.0782-2.02624-3.465-2.06691.6584.01848 1.324.19966 1.9341.55463 1.9784 1.14253 2.6588 3.67165 1.5124 5.64983l-3.5758 6.1933 8.3867 14.524c1.1427 1.9782 3.672 2.6548 5.6504 1.5123 1.9858-1.1425 2.6625-3.6717 1.5199-5.6536Z"/>
	<path fill="#002C77" d="M22.066 5.82317c-.6101-.35496-1.2757-.53244-1.9339-.55462h-.2515c-.6619.01849-1.3239.19966-1.9377.55462-1.9784 1.14255-2.6551 3.67166-1.5125 5.64983l3.5759 6.1934 3.5758-6.1934c1.139-1.97817.4623-4.50728-1.5161-5.64983Z"/>
	<path fill="#EEAF30" d="M24.2614 30.1498c0 2.3554-1.9044 4.2559-4.2563 4.2559-2.3519 0-4.26-1.9043-4.26-4.2559 0-2.3479 1.9045-4.2558 4.2563-4.2558 2.3519 0 4.26 1.9079 4.26 4.2558Z"/>
</svg>