<svg viewBox="0 0 40 40" xmlns="http://www.w3.org/2000/svg">
	<path fill="#0039A6" d="M39.3931 30.298 24.5639 4.61731c-.4416-.75788-1.0686-1.39036-1.8224-1.83882-.7538-.44846-1.6085-.6979-2.485-.7238.1895 4.30738-1.1736 5.67048-1.8551 12.48601l12.1043 21.0462c.6788 1.1709 1.7924 2.0282 3.0983 2.3854 1.3058.3571 2.7003.1854 3.8807-.4771 1.1614-.7429 1.9997-1.8988 2.3432-3.2333.3435-1.3358.169-2.7521-.4894-3.9639"/>
	<path fill="#00A1DE" d="M19.9294 2c-1.7339.07088-3.3791 1.06322-4.2529 2.56262L.682472 30.2979C.00228629 31.4838-.177642 32.8905.179489 34.21c.358494 1.3194 1.225421 2.4413 2.411321 3.1215 1.18589.6801 2.59261.8601 3.91208.5029 1.31948-.3585 2.44131-1.2254 3.12149-2.4113L20.0384 17.3757c.409-6.243-.109-10.40176-.109-15.3757Z"/>
	<path fill="#002C77" d="M22.6556 2.70881c-.7347-.41574-1.5552-.65838-2.399-.70881h-.3817c-.8478.02454-1.6739.26853-2.399.70881-.5875.33668-1.1028.78514-1.5158 1.32084-.4144.5357-.7183 1.14773-.8955 1.80065-.1772.65292-.2236 1.33447-.1377 2.00648.0859.67064.304 1.31948.6406 1.90561l4.471 7.74241 4.471-7.74241c.3475-.58204.5765-1.22679.672-1.89743.0954-.67065.0558-1.35356-.1173-2.00921-.1731-.65565-.4743-1.26904-.8887-1.8061-.4144-.53706-.931-.98688-1.5199-1.32084Z"/>
	<path fill="#EEAF30" d="M25.3806 32.9148c0 1.0455-.3108 2.0692-.8915 2.9388-.5807.8697-1.4067 1.5471-2.3731 1.9479-.9665.4007-2.0297.5057-3.0561.3012-1.0264-.2044-1.9683-.7074-2.7085-1.4476-.7401-.7401-1.2431-1.682-1.4476-2.7084-.2044-1.0265-.0995-2.0897.3013-3.0561.4007-.9664 1.0782-1.7925 1.9478-2.3732.8697-.5806 1.892-.8914 2.9389-.8914 1.4026 0 2.748.5575 3.7403 1.5485.9923.9923 1.5485 2.3377 1.5485 3.7403Z"/>
</svg>