<svg viewBox="0 0 40 40" xmlns="http://www.w3.org/2000/svg">
	<path fill="#00A1DE" d="M20.1208 6c-1.3157.05399-2.5642.80629-3.2268 1.94432L5.51772 27.4702c-.51567.8997-.65282 1.9674-.38129 2.9682.27154 1.0008.92951 1.8527 1.82918 2.3684.89968.5156 1.96735.6528 2.96814.3813 1.00075-.2716 1.85275-.9295 2.36835-1.8292l7.9014-13.693c.3103-4.7367-.0827-7.89251-.0827-11.6659z"/>
	<path fill="#0039A6" d="M34.8893 27.4703L23.6371 7.9857c-.3349-.5748-.8107-1.05488-1.3825-1.39503-.5717-.34015-1.2206-.52918-1.8856-.54929.1448 3.26812-.8894 4.30232-1.4065 9.47342l9.1838 15.9682c.5153.8887 1.3598 1.5388 2.3507 1.8097.9909.271 2.0486.141 2.9445-.3618.8815-.5636 1.5167-1.4403 1.7777-2.4536.261-1.0132.1284-2.0877-.3712-3.007"/>
	<path fill="#002C77" d="M22.1892 6.53779c-.5577-.31584-1.1804-.4998-1.8202-.53779h-.2896c-.6431.01853-1.2703.20385-1.8202.53779-.4455.25527-.8364.59582-1.1503 1.00218-.3139.40637-.5447.87059-.6791 1.36615-.1345.49557-.17 1.01277-.1045 1.52208.0655.5093.2306 1.0007.486 1.4461l3.3922 5.8743 3.3922-5.8743c.2641-.4411.4373-.9307.5095-1.4397.0722-.50911.0418-1.02748-.0892-1.52466-.131-.49719-.3602-.96316-.6739-1.37053-.3137-.40737-.7057-.74792-1.1529-1.00162z"/>
	<path fill="#EEAF30" d="M24.2577 29.456c0 .7936-.2354 1.5694-.6763 2.2293-.4409.6599-1.0676 1.1743-1.8009 1.478-.7332.3037-1.54.3831-2.3184.2283s-1.4934-.537-2.0546-1.0982c-.5612-.5612-.9434-1.2762-1.0982-2.0546-.1549-.7784-.0754-1.5852.2283-2.3184.3037-.7333.8181-1.36 1.4779-1.8009.6599-.4409 1.4358-.6763 2.2294-.6763 1.0643 0 2.0849.4228 2.8374 1.1753.7526.7526 1.1754 1.7732 1.1754 2.8375z"/>
</svg>
