<svg viewBox="0 0 40 40" xmlns="http://www.w3.org/2000/svg">
	<path fill="#004785" d="M20.8567 0c10.604.391331 19.0761 9.13478 19.1431 19.8517.0238 5.3054-2.0517 10.4042-5.7723 14.1803-3.7206 3.7761-8.7832 5.9218-14.0796 5.9676-5.3004.0328-10.39758-2.0408-14.17427-5.7661C2.19695 30.5081.0488594 25.4348.00020986 20.1256-.023375 14.9622 1.9418 9.98852 5.48671 6.23981 9.03163 2.4911 13.8832.256105 19.0317 0l.0223 5.68548c-3.6535.24191-7.0773 1.87045-9.57343 4.55362-2.49616 2.6832-3.87671 6.2189-3.86021 9.8865.01602 2.1388.5095 4.2469 1.44429 6.17.93479 1.923 2.28721 3.6122 3.95815 4.9438l5.4248-14.3115-3.7672.0279s-.7423-.1509-1.1664.2013l-.893.8609s-.0726-2.3592.0335-2.6052c.106-.3018.4074-2.6666 1.4567-3.8741 1.0604-1.1628 2.7514-1.325 2.7514-1.325l12.0552-.0838-1.7413 1.8169 4.1858 18.9404c1.5733-1.3556 2.8336-3.0377 3.6932-4.9297.8596-1.8921 1.2981-3.9488 1.2851-6.0276-.0335-3.6513-1.4504-7.1536-3.9641-9.7981-2.5137-2.64455-5.9364-4.23385-9.5756-4.44632L20.8567 0zm-4.6044 11.8014c.3628 0 .6697.2795.6697.6262 0 .341-.2958.6261-.6585.6261-.3684.0056-.6698-.2739-.6698-.615 0-.3522.2903-.6317.6586-.6373z"/>
</svg>
