<svg viewBox="0 0 40 40" xmlns="http://www.w3.org/2000/svg">
	<path fill="#2E274D" d="M36.0746 8.38592c-1.9937-1.73359-4.1715-2.50829-6.306-2.67623-2.1399-.17336-4.3069.14627-6.5009 1.19726V5h-6.6798v1.81486C11.8151 4.79955 6.31095 5.08126 2.00405 10.4066c-5.16286 6.3656.64468 15.8787 6.19218 21.4912-1.35437.1733-2.70874.3413-4.05769.5255.04334 1.0185.08668 2.0424.13544 3.0609h9.70272v-3.0609C8.26666 25.3697 5.02701 18.0832 7.50279 13.007c2.09115-4.28519 5.85631-4.48022 9.01471-2.2861v24.7524h6.7502v-24.617c2.6924-1.75527 5.0436-1.87445 6.5118-1.04016 3.4076 1.93946 3.7597 5.38496 3.31 8.80336-.6121 4.6537-3.5972 9.524-6.9343 13.858v2.9308h9.7135v-2.9959c-1.3327-.1787-2.6654-.3521-3.9981-.5254 5.0762-5.4284 7.8662-10.3529 8.11-14.6923.1896-3.2721-1.0023-6.2896-3.906-8.80878zm2.0803 10.89458c-1.2298 4.7186-4.5832 9.1772-9.2368 13.5112 1.8419.2221 3.6785.4496 5.5204.6772v.6338h-6.9994v-1.1756c2.4054-3.2017 4.6103-6.333 5.6667-9.3235 1.2027-3.4022 2.2537-6.8639 1.051-10.2011-.493-1.3652-1.2948-2.7629-2.3729-3.74347-1.2243-1.116-2.725-1.71734-4.6482-1.63066-1.9232.08668-3.4509.83429-5.2603 2.10743v24.0969h-4.0036V9.95699c-2.0207-1.40854-3.906-2.06947-6.0188-1.92862-2.11821.13002-4.67526 1.50606-6.11631 5.58003-.70969 2.0044-.43339 4.2689-.05417 6.2409.87763 4.5128 3.58637 8.8034 6.86398 13.029v1.1756h-6.994v-.585c1.83653-.2005 3.67847-.3901 5.515-.5906-1.25144-1.3001-2.46496-2.3782-3.57554-3.6893-2.15616-2.5245-3.95476-5.1249-5.00033-7.7795-1.30562-3.3046-1.787771-7.0156.53091-10.1902C5.18953 8.24507 7.8766 7.22658 10.5149 6.90695c2.6437-.31963 4.9733.42257 7.3624 2.18866v-2.79h4.0035v2.92544c1.9449-1.53856 3.9602-2.30784 5.97-2.42161 3.6352-.2167 7.5141 1.82027 9.3723 4.75656 1.3544 2.1561 1.6957 4.789.9318 7.7145z"/>
</svg>
