<svg xmlns="http://www.w3.org/2000/svg" viewBox="0 0 40 40">
	<path fill="#fff" d="M20 39.5c-3.9 0-7.6-1.1-10.8-3.3C5.9 34.1 3.4 31 2 27.5.5 23.9.1 20 .9 16.2c.8-3.8 2.6-7.3 5.3-10 2.7-2.7 6.2-4.6 10-5.3C20 .1 23.9.5 27.5 2c3.6 1.5 6.6 4 8.8 7.2 2.1 3.2 3.3 7 3.3 10.8 0 5.2-2.1 10.1-5.7 13.8-3.8 3.7-8.7 5.7-13.9 5.7z"/>
	<g fill="#ff0500">
		<path d="M20 1c3.8 0 7.4 1.1 10.6 3.2 3.1 2.1 5.6 5.1 7 8.5 1.4 3.5 1.8 7.3 1.1 11s-2.5 7.1-5.2 9.8c-3.6 3.6-8.4 5.6-13.5 5.6s-9.9-2-13.5-5.6C2.9 29.9.9 25.1.9 20s2-9.9 5.6-13.5c1.8-1.8 3.9-3.2 6.2-4.1C15 1.4 17.5 1 20 1zm0-1c-4 0-7.8 1.2-11.1 3.4s-5.9 5.3-7.4 9C0 16-.4 20 .4 23.9c.8 3.9 2.7 7.4 5.5 10.2 2.8 2.8 6.4 4.7 10.2 5.5s7.9.4 11.6-1.1c3.7-1.5 6.8-4.1 9-7.4C38.8 27.8 40 24 40 20c0-5.3-2.1-10.4-5.9-14.1C30.4 2.1 25.3 0 20 0z"/>
		<path d="M9.2 13.1v12.5l8.5-8.5v-4l-4.2-4.2-4.3 4.2zm16-4.2H16l4.2 4.2v4l4.6 4.7 4.6-4.7v-4l-4.2-4.2z"/>
		<path d="M23.8 22.7L19 17.9 6.7 30.1h9.6l7.5-7.4zM30.6 17.8L18.2 30.1h12.3V17.8z"/>
	</g>
	<linearGradient id="gr1" gradientUnits="userSpaceOnUse" x1="20.66" y1="18.8698" x2="10.85" y2="9.0598" gradientTransform="matrix(1 0 0 -1 0 39.8898)">
		<stop offset="0" stop-color="#f9f6f1"/>
		<stop offset="1" stop-color="#c8b67f"/>
	</linearGradient>
	<path fill="url(#gr1)" d="M19 19.3l-9.9 9.8H16l6.4-6.4-3.4-3.4z"/>
	<linearGradient id="gr2" gradientUnits="userSpaceOnUse" x1="19.3074" y1="21.6224" x2="7.1074" y2="9.4124" gradientTransform="matrix(1 0 0 -1 0 39.8898)">
		<stop offset="0" stop-color="#f7f4ec"/>
		<stop offset="1" stop-color="#cab880"/>
	</linearGradient>
	<path fill="url(#gr2)" d="M19 19.3v-1.4L6.7 30.1l2.4-1 9.9-9.8z"/>
	<linearGradient id="gr3" gradientUnits="userSpaceOnUse" x1="2652.127" y1="-2611.9189" x2="2500.3438" y2="-2460.1289" gradientTransform="matrix(1 0 0 -1 0 39.8898)">
		<stop offset="0" stop-color="#f7f4ec"/>
		<stop offset="1" stop-color="#cab880"/>
	</linearGradient>
	<path fill="url(#gr3)" d="M29.6 20.2l1-2.4-12.4 12.3 2.4-1c.1 0 9-8.9 9-8.9z"/>
	<linearGradient id="gr4" gradientUnits="userSpaceOnUse" x1="1902.7683" y1="-1864.5961" x2="1825.1573" y2="-1786.8959" gradientTransform="matrix(1 0 0 -1 0 39.8898)">
		<stop offset="0" stop-color="#f9f6f1"/>
		<stop offset="1" stop-color="#c8b67f"/>
	</linearGradient>
	<path fill="url(#gr4)" d="M29.6 29.1v-8.9l-8.9 8.9h8.9z"/>
</svg>