<svg xmlns="http://www.w3.org/2000/svg" viewBox="0 0 40 40">
	<path fill="#382c3f" d="M10.9 18.4c.2 0 .4-.1.6-.2.2-.1.5 0 .8-.2.1 0 .2.1.2.1v.3h.1c.2-.2.2-.4.3-.5l-.1-.1.2-.5c-.1-.1-.1-.2-.2-.2.1-.1.2-.1.4-.1 0-.2.1-.5 0-.8-.1-.2 0-.5 0-.8-.2-.2-.3-.4-.5-.5.2-.2.3-.2.5-.3-.2-.3-.4-.7-.4-1.1-.1 0-.2-.1-.3-.1V13h-1.4c-.5.1-.9.1-1.4.2-.2 0-.4.2-.6.2-.1 0-.2.1-.2.1l-.1-.2h-.1v.1h.2v.2c-.4.2-.8.2-1.1.5-.2.2-.5.2-.7.3-.9.5-1.8 1.2-2.6 1.8-.2.1-.5.2-.5.4.5-.2.9-.4 1.4-.6-.1.2-.3.4-.5.5.3.3.7.5 1.1.4.2.1.3-.1.5-.2h.3c0-.1.1-.2.1-.2h.3c.1-.1.2-.2.2-.3h.3c0-.3.3-.5.3-.8h.2v-.2h.2c.2-.2.2-.3.3-.5h-.2c-.1-.2-.2-.3-.2-.4h.4c.5-.5 1.3-.5 1.9-.8.4-.2.7-.2 1.1-.2l.1.1c-.2.2.2.5.3.5 0 .1-.1.2-.1.2.1.2.1.5.1.7-.2.2-.5.3-.5.6.2 0 .3.2.4.3-.2.1-.2.2-.3.2.2.2.4.2.5.4-.2.4-.6.6-.7 1.1-.1.2-.3.5-.5.8h-.5c-.5.2-.9.3-1.3.5-.5-.1-.8.3-1.2.4 0-.1-.1-.2-.1-.3h-.1v.3c-.1 0-.2.1-.2.2 0 .2-.1.3-.1.4l-.2-.2c0 .2-.1.3-.1.4-.4 0-.7.2-1.1.4v.2c-.1-.1-.2-.1-.3-.1h-.1c-.1.2-.1.3-.1.4-.1.1-.2.2-.4.2-.1 0-.1.1-.1.1-.1-.1-.4.1-.5.3l.1.2c.3-.1.5-.2.9-.3.4-.2.6-.5.9-.5.3-.2.5-.4.9-.5 0-.3.3-.3.5-.5.3-.2.6-.3.9-.5l.7-.5h.3c0-.1.1-.2.1-.2.4 0 .7 0 1-.2zm1.7-5.2V13c-.1.1-.1.2 0 .2zm16.3 4.1c-.1 0-.2.1-.2.1l.2-.1c.2 0 .3-.2.3-.4h.2v-.2h-.2c-.2.2-.3.4-.3.6zm-25.7-.4c-.1.2-.2.2-.2.7h-.1c-.2.2-.2.3-.5.3l-.2.2c-.2 0-.2.2-.3.2l-.2.1-.1.2c-.2 0-.3.1-.4.2 0 .2-.2.4-.3.5-.1.3-.4.5-.5.9 0 .1-.2.2-.2.2v.2c-.2.1-.2.2-.4.2H0c0 .1.1.2.1.3h.2c0 .2.2.3.4.3v.2l.2-.2c.1.2.2.3.4.4v-.1c.2 0 .3 0 .5.1l.2-.2c-.2-.1-.4-.1-.5-.2l-.2-.4c-.3-.2-.6-.7-.5-1.2.2-.8.9-1.2 1.5-1.7.3-.2.5-.6.9-.5v-.3h.3c.1-.2.2-.5.3-.7l-.1-.1c-.1.2-.2.4-.5.4zm26.6-4.3c-.2 0-.4.2-.5.3-.1 0-.2-.1-.2-.1.2-.2.2-.3.3-.4-.2.1-.4.2-.5.2-.1-.1-.1-.2 0-.2-.2.2-.5.4-.6.6-.2 0-.4-.2-.5 0-.3.2-.5.5-.9.5-.2.4-.8.4-1.2.7-.1 0-.2-.2-.2-.2v.2c-.2.2-.4.4-.6.5 0 .1.1.2.1.2.1 0 .1.2.1.2h.4v.3c-.2 0-.2.1-.4.1 0 .1-.1.2-.2.2l.2.2v.2c.1.1.2.2.3.2.2 0 .2-.2.2-.3.2 0 .3-.2.4-.3-.1.1-.2.2-.3.2.1-.1 0-.3.2-.3s.4.1.5.2c0-.2-.1-.3-.2-.4h.5c-.2-.2-.5-.2-.5-.5.2-.1.4 0 .5 0 .1-.2 0-.4-.1-.5.3-.2.7-.2 1 .1l.2-.2c.1 0 .2.1.2.1l.2-.4c0-.1.2-.1.2-.1v-.2h.4c.1.2.1.5.2.7.1-.1.1-.2.2-.3 0 0 .1.1.2.1V14c-.1-.1-.2-.2-.3-.2.1-.2.2-.5.5-.5-.1 0-.2-.2-.2-.2h.3c0-.2.1-.3.1-.5zM13.5 30.2h-.3c-.2-.1-.4-.1-.5-.1-.2-.2-.5-.4-.7-.6.1-.2.2-.2.2-.3.1.1.2.2.3.2v-.3l.2-.2c-.2-.1-.4-.2-.5-.3l-.2.1c0 .2.1.3.2.4-.3 0-.5-.2-.5-.4-.2.2-.3.3-.3.5-.2-.1-.2-.2-.3-.3v-.3c-.2.1-.4.2-.5.2-.1 0-.2 0-.1.1-.2 0-.3.2-.3.4l.2-.2c0 .1.1.2.2.2-.2.1-.4.2-.5.2.2.1.3.2.4.3h-.6l.2.2c.2 0 .2.2.3.3.2 0 .2.2.4.2h.2v.1l-.1.2c.2.2.6.2.9.2l.2.2c.1-.2.4-.2.5-.2.1-.1.2-.2.3-.2 0 .1.1.2.2.2.1-.2.1-.4.1-.5.1.1.2.1.4.1l-.2.2v.5c.2-.1.4-.1.6-.1l.1-.1c.1-.2.2-.2.2-.3-.2-.3-.7-.3-.7-.6zM3.2 21.6c-.3.2-.6-.2-.9-.2l.3.3c-.1.1-.2.2-.3.2h.8c.2-.1.4-.2.5-.2 0-.2-.2-.2-.4-.1z"/>
	<g fill="#563a69">
		<path d="M7.8 13.9c.1.2.2.3.2.4h.2c0 .2-.2.3-.2.5h-.2v.2h-.2c-.1.3-.2.5-.4.8.3-.2.6-.2.9 0 0-.1.1-.2.2-.2v-.3c.1 0 .2.1.2.1.1-.1.2-.2.2-.3l-.2-.2c.1 0 .2-.1.2-.2v-.2c.2-.1.2-.2.3-.2V14l.5-.2-.1.2c0-.1.1-.1.1-.1.1.1.2.2.3.2l-.2-.2c.2-.2.3-.3.5-.2v-.2c-.6.2-1.3.3-2 .4h-.3zm2.4-.4c.1 0 .1 0 .2-.1h.1c-.1 0-.2 0-.2-.1-.1.1-.1.2-.1.2z"/>
		<path d="M10.8 18.1c.2-.2.4-.5.5-.8.2-.4.5-.7.7-1.1-.2-.2-.4-.3-.5-.4.2-.1.2-.2.3-.2-.1-.2-.2-.2-.4-.3.1-.2.3-.5.5-.6.1-.2 0-.5-.1-.7 0-.1.1-.2.1-.2-.2-.1-.5-.3-.3-.5l-.1-.1c-.4 0-.6 0-1 .2.2 0 .3 0 .5-.1.1.1.1.2.1.2-.1.1-.2.1-.3.1v.3c.1-.1.2-.1.3-.1v.2h-.2c0 .2.2.2.4.3v.5c-.2.1-.5.1-.5.2-.1.2 0 .2 0 .3-.2.2-.2.4-.3.5-.1 0-.2.1-.2.1.1.1.2.1.2.2l-.2.7c.1 0 .2-.1.2-.1.2.3.2.7 0 1h-.7v.2c-.2 0-.3.1-.4.2V18h-.2c-.2-.1-.3-.2-.5-.1-.1 0-.2-.1-.2-.1v.2c-.2-.1-.2-.2-.4-.2-.1.1-.1.2-.1.3-.2-.2-.2-.3-.3-.5.2.1.5.2.8 0 .2.1.4.2.5.2.1-.1.2-.1.3-.1-.1-.1-.1-.2-.2-.2 0-.2-.1-.4-.2-.5l-.2.2c-.2-.1-.2-.2-.3-.2l-.2.2c0 .1.1.2.1.2H8c0-.1-.1-.2-.1-.2l.2-.2c-.2-.2-.3-.4-.5-.5h-.1v-.3c.1.1.2.2.3.2v-.5h-.7c-.1.3-.1.4-.1.5h-.3c0 .1-.1.2-.1.2h-.3c-.1.2-.2.3-.5.2-.5.2-.8 0-1.1-.3.3-.1.5-.3.6-.5-.5.2-.9.5-1.4.6-.2.2-.2.5-.2.6h-.3v.3c-.4-.1-.7.3-.9.5-.6.6-1.3 1-1.5 1.8-.2.5.2.9.5 1.2.1-.1.2-.2.2-.3-.1-.1-.2-.1-.4-.2-.1-.1-.2-.2-.2-.3.1-.2.2-.4.3-.5.2.1.5.1.7-.1-.2-.2-.5-.2-.7-.4.2-.1.4-.2.5-.3h.5l-.2-.2c.1-.1.2-.2.4-.2-.1-.1-.2-.2-.2-.3.2.1.4.2.5.2-.1 0-.2.1-.3.1h.6v.5c.2.4.6.3.9.4l-.2.2c.1.1.1.2.1.2l-.2-.2-.2.2h-.4c.2.2.4.2.5.3 0 .2 0 .5.3.6.1.1.1.3.1.3-.2.1-.4.2-.5.2.1-.2.2-.3.3-.4-.3-.2-.5-.5-.6-.8l-.3.3c.2.2.4.3.5.5v.2c-.1-.1-.2-.1-.2-.1l-.3.2c-.1-.2-.2-.2-.2-.3-.2.1-.5.2-.5.5h-.6c.2.2.4.2.5.2l-.2.2c.1.1.2.2.3.2.1-.1.2-.2.3-.2-.2-.1-.2-.2-.3-.2.3 0 .6.3.9.2.2-.1.4-.1.4.2.1-.1.2-.1.4-.1s.4-.2.5-.2l-.1-.2c.2-.3.5-.4.7-.4.1 0 .1-.1.1-.1.2-.1.3-.1.4-.2.1-.2.1-.3.1-.4h.1c0 .1.2.1.2.1v-.2c.4-.2.7-.4 1.1-.4 0-.2.1-.3.1-.4l.2.2c0-.2.1-.3.1-.4.1 0 .2-.1.2-.2v-.3c.1.2.1.3.1.3.4-.1.7-.5 1.1-.4.4-.3.9-.5 1.3-.5.2-.1.4 0 .6 0zm-2.9.3v.3h-.2s0 .1.1.1h-.1c0-.2-.1-.4-.1-.5.1-.1.2-.1.3-.1s.2.1.3.1c-.2 0-.2.1-.3.1zm15.8-2.2c-.1-.1-.2-.2-.4-.2.1.1.1.2.1.2h.3zm-4.9 5.7c.2.2.4.3.6.3.1-.1.1-.3.2-.4-.1-.1-.2-.2-.3-.2 0 .2 0 .2.1.4-.2 0-.4-.1-.6-.1zm12.8-11.2v.2c.1-.2.2-.2.2-.2 0 .1-.1.1-.2 0z"/>
		<path d="M36.6 10.4h-.4s0-.1-.1-.1h-.5c-.2.1-.4.2-.5.1v-.3c-.4-.1-.5.5-.9.5-.2.1-.3.1-.4.1 0-.1 0-.2-.1-.3v.3c-.3-.2-.7 0-.9.2v.1c0-.1-.1-.2-.1-.3-.2.1-.3.1-.5.2 0 .1-.1.2-.2.3v-.3c-.1 0-.1 0-.2-.1 0 .1-.1.2-.2.2-.4.2-.7.5-1.2.4v-.1h.6v-.2c-.1.1-.2.3-.4.1v-.1l.1-.1c-.2.1-.3.2-.4.3h.2c.2.3-.2.3-.4.2v.1c-.2.1-.4.2-.5.2v-.2l-.2.2s-.1.2-.2.2h.3c-.2 0-.5 0-.5.2h-.1v.2c.2-.1.4-.2.5-.2-.1.1-.2.2-.3.4.1 0 .2.1.2.1.2-.2.3-.3.5-.3 0 .2-.1.3-.2.5h-.3s.1.2.2.2c-.3 0-.5.3-.5.5.1 0 .2.1.3.2v.2s-.1-.1-.2-.1c-.1.1-.1.2-.2.3-.2-.2-.2-.5-.2-.7h-.4v.2l-.2.1c-.1.2-.2.2-.2.4-.1 0-.2-.1-.2-.1l.1-.1c-.3-.2-.7-.2-1-.1.1.2.2.3.1.5-.2 0-.4-.1-.5 0 .1.2.3.3.5.5h-.5c.1.2.2.2.2.4-.2-.1-.3-.2-.5-.2s-.1.2-.2.3c.1-.1.2-.1.3-.2-.1.2-.2.3-.4.3-.1.1-.1.3-.2.3s-.2-.1-.3-.2v-.2c-.1 0-.2-.1-.2-.2v-.4c.1 0 .2-.1.2-.2v-.2c0-.1-.1-.2-.1-.2 0 .1-.1.2-.1.2-.2 0-.3 0-.5.2 0 .1.1.2.2.2-.2 0-.4.1-.5.2l.2-.2c-.2.1-.4.2-.5.2 0 0 .1.1.1.2.2 0 .3-.1.5 0l.1.2v.2c0 .1-.1.1-.2.2v.4s-.1 0-.2.1c0-.1-.1-.2-.2-.3-.4 0-.5.4-.7.6-.2.1-.4.2-.5.4 0 0-.1-.1-.1-.2-.1.3-.3.5-.5.7-.2 0-.3-.1-.4-.1-.1 0-.2.1-.2.2 0-.1-.1-.2-.1-.2.1 0 .2-.1.3-.2s.2-.2.3-.4v-.3c-.3.4-.9.5-1.2.9-.5.5-1.1.9-1.5 1.3H19c0 .1-.1.2-.1.2h-.1l-.2.2-.2.2c0-.2 0-.5-.2-.8-.1-.2-.2-.2-.4-.2h-.3s.2.1.2.2c.1.2.2.4.3.5 0 0-.1.1-.1.2-.2-.1-.5-.2-.7.2l.3.3c-.1 0-.2 0-.3.1.4 0 .5-.2.9-.5 0 .2.1.3.2.4-.1.2-.2.4-.2.5.1.2.1.5 0 .8 0 .1 0 .2-.1.2h.1c0 .1-.1.1-.1.2v.2s-.1.1-.2.1c0 0 0 .1.1.1 0 .1-.1.2-.1.2.2 0 .2.1.4.1.2-.1.3-.2.5-.2l.1-.1c-.1 0-.2 0-.3.1.1-.2.1-.4.1-.5h.2c0-.1.1-.1.1-.2l.2-.1c.1-.1.2-.2.3-.2 0 .2-.1.4-.1.5h.3c-.1 0-.2-.1-.2-.2.3-.2.6-.3 1-.3s.5-.3.9-.4c0-.1-.1-.2-.2-.2.3 0 .5-.1.8-.2v-.5l-.5.2v.2s-.2 0-.2-.1v-.2h.4s-.1-.1-.1-.2c.3-.1.5 0 .8.1v.2c.2.1.2.2.4.2v.4c.2-.3.4-.5.5-.9h.3v-.3c-.2.2-.4.2-.5.5-.1.2-.2.2-.4.2v-.7l.2-.2c-.2 0-.3 0-.5-.1.2-.5.7-.6 1.1-.9.4-.2.5-.5.9-.8l.1.2c.3.1.5.2.9 0l-.2-.2c0-.1.1-.1.2-.2 0 0 .1.2.2.2V17c-.2-.2 0-.5.1-.8.2.2.2.3.4.4.2-.1.4-.2.5-.2 0-.2 0-.3.1-.4h-.3c.1-.1.2-.2.3-.2 0 .1.1.2.1.2.3-.3.9-.4 1-.9h.5c.1-.3.2-.5.5-.7.2 0 .3.1.4-.1.2-.2.2-.5.4-.8.2 0 .3 0 .5-.1 0-.1-.1-.2-.1-.3.1 0 .2 0 .2-.1v.2s.1 0 .2.1V13c.2.2.5.2.9.2l.2.2c.1 0 .2-.1.2-.1.2-.2.4-.3.7-.4l.2-.5c.2 0 .3-.1.4-.2h.1c0-.1.1-.2.2-.2h.3c.2 0 .3-.1.4-.1l.1-.2c0-.1-.1-.2-.1-.3v-.2c.1 0 .2-.1.2-.1l.2-.1c.1-.1.2-.2.3-.2.3 0 .4.3.5.5l.2-.2h.3v-.2s-.1-.1-.1-.2h.2c0-.5.6-.5 1-.5-.1.5-.1.4-.1.2zm-16.9 9c-.2 0-.1-.2 0-.2.1-.1.1.2 0 .2zm.3-.2h-.2V19h.2c.1-.1.2-.2.2-.3.1.3 0 .3-.2.5zm.5-.9c-.1.1-.2.2-.2.3-.3.1-.3.4-.6.4.1-.2.4-.2.5-.3v-.2c.2 0 .3-.2.5-.4h.3c-.1.2-.3.2-.5.2zm11.4-7.5s.1 0 0 0c.1 0 .1 0 0 0 .1 0 0 0 0 0zM10.7 28.1c-.2.1-.2.4-.4.5-.2-.1-.2-.2-.2-.4-.2.2-.3.3-.4.5 0 .2.1.4.2.5.2 0 .4-.1.5-.2l-.2-.2c-.1 0-.2.1-.2.2.1-.2.1-.4.3-.4.1 0 .2 0 .2.1.2-.1.3-.2.5-.2-.1 0-.2-.3-.3-.4z"/>
		<path d="M18.4 27.8c-.1 0-.2 0-.2.1.1-.2.2-.4.2-.6-.2 0-.2.2-.4.3 0-.1 0-.2-.1-.2.1 0 .2-.1.4-.1-.2-.2-.4-.2-.6-.2l-.2.2c0 .1.1.2.2.2-.3-.2-.6-.2-.9 0-.2-.2-.4-.1-.6 0-.2 0-.5-.1-.8-.2-.2.2-.3.3-.5.4 0-.1.1-.2.1-.3h.2c0-.2.1-.5-.1-.8-.1-.3-.5-.3-.7-.3-.1.2-.2.3-.3.4-.2 0-.3-.2-.3-.4 0 .1-.1.2-.2.2h-.4c.2.2.5.2.6.4-.3 0-.6-.2-1-.2-.1 0-.2 0-.2-.1s.1-.2.1-.2c0-.2 0-.5-.2-.8l-.2.2c-.2 0-.4.2-.5.2h-.3v-.4c-.2 0-.2.1-.4.2-.2 0-.3-.1-.4-.2.1-.1.2-.2.3-.2-.1 0-.2 0-.2-.1.2 0 .3-.1.5-.2h.2s0-.2.1-.2h-.5v-.5c-.2.3-.5.6-.5 1.1l-.5-.5c0 .1-.1.1-.2.2-.1.2-.2.6.2.5v.2c-.2-.1-.3-.2-.5-.2 0 .2 0 .3.2.5-.1 0-.2.1-.2.2v.5c.2.2.4.3.5.5-.1 0-.2.1-.2.2 0 .2-.1.2-.1.4h.1c.2-.2.3-.3.5-.4v.5l.2-.2c.1 0 .2 0 .3-.1v-.2c.1 0 .2-.1.2-.2v.2s.1.1.2.1v.9l.3.3c0-.2.1-.4.3-.5.1.2.2.4.5.4-.1-.1-.2-.2-.2-.4l.2-.1c.2.1.4.2.5.3-.1 0-.2.1-.2.2v.3c-.1-.1-.2-.2-.3-.2 0 .1-.1.2-.2.3.2.2.5.4.7.6.2 0 .3 0 .5.1h.3c0 .3.5.3.6.5-.1.1-.2.2-.2.3v.3c.2 0 .2-.1.3-.2.2 0 .5-.1.7-.1l-.2-.2s.2 0 .2-.1c.2-.1.3-.2.4-.2-.2 0-.3 0-.5-.1.1 0 .2-.1.2-.2.2-.1.4-.2.5-.3 0-.1 0-.2-.1-.2.2-.1.3-.2.5-.4 0 .1.1.2.1.2l.2-.2c.2 0 .3 0 .5-.1.5-.2.8-1 1.4-1v.1c-.2 0 0-.1.1-.2zM9.7 27c-.2-.1 0-.4.2-.3.1.1-.1.2-.2.3zm.7 3.7c-.2 0-.5.2-.5-.1h-.2c-.1-.1-.1-.2-.1-.2 0 .1 0 .2.1.3.3.2.6.3.9.3v-.1c0-.1.1-.1.1-.1l.1-.2c-.2-.1-.5-.2-.7-.2.1.2.3.3.3.3zm-.1-1.1c-.1.2-.2.5.1.5.2-.1.2-.2.2-.4h.2c0-.2-.4-.1-.5-.1zM12.6 30.9c0-.1-.1-.2-.2-.2-.2.1-.2.2-.3.2h.5v.1h-.5v.3c.3-.1.5-.1.9-.2v-.5l.2-.2c-.1-.1-.2-.1-.4-.1 0 .3 0 .5-.2.6zM34 11.9c.2.2.3.2.4.3 0 .2-.1.2-.1.4.1-.2.2-.2.4-.3-.1-.2-.3-.4-.7-.4zm-21.4.9h-.9c.2 0 .3.1.5.1l.1.1c.2.1.3 0 .3-.2l.1.2v.2c.2 0 .4-.1.6-.1-.1-.3-.5-.3-.7-.3zm21.4 0c-.3.2-.5.4-.9.5v.2c.4-.2.9-.5 1.2-.8v-.1h-.5c.1.2.1.2.2.2zm.8 1.5c0 .2 0 .3-.1.5.2-.1.3-.2.4-.3l-.2.1v-.1h.1c.1-.2.4-.2.5-.3 0-.1.1-.2.1-.2-.2.2-.5.2-.8.3zm-3.9.7l-.1.2h.2c.1-.1.2-.2.3-.2-.1-.1-.2 0-.4 0zm-19-.1c-.2.1-.2.2-.2.3.2.1.4 0 .5 0-.1-.1-.1-.2-.3-.3zm19.2-.1s.2.1.2.2l.2-.2h-.4zm.2.1s.1 0 0 0c.1 0 0 0 0 0zm-1.1.8c-.2.1 0 .2.2.2l.1-.1c-.1-.1-.2-.2-.3-.1zm1.1 1.1v.2c.1 0 .2-.1.4-.1l.2-.2v-.2c-.2.2-.4.2-.5.4-.1 0-.1-.1-.1-.1zm-14.8 3.5v-.5c-.2.1-.2.1-.3.2-.2 0-.4-.1-.5-.2 0 .2.1.3.2.5l.2-.2.4.2-.1.2c.1-.1.2-.1.2-.1-.1 0-.1-.1-.1-.1zm7.1 2.9c-.1.1-.1.2-.2.4-.2 0-.2-.1-.3-.1v.2c-.2.1-.4.2-.4.5h.3l.2-.2s-.1-.2 0-.3c.1 0 .2.2.2.2l.7-.7c0-.1-.2-.2-.2-.2v.2h-.3zm2.6-2.8c-.1-.2-.2-.2-.4-.3l-.1.2c-.1 0-.2-.1-.2-.1.1.2.1.2.1.4-.1.2-.2.4-.2.5-.1.1-.2.1-.4.1v.1c.1 0 .2.1.2.2-.1.1-.1.1-.1.2-.1.1-.2.1-.2.1v.1c.1.1.1.2.1.3l-.1-.1c-.2.2-.2.4-.4.5 0-.2 0-.2.1-.3s.1-.2.1-.2c.2-.1.1-.2.1-.4 0-.1.1-.1.1-.1l-.2-.1c0 .3-.2.6-.4.9-.1 0-.2-.1-.2-.1-.1.2-.2.4-.2.6.1-.2.2-.2.3-.2v.3c.2-.3.5-.5.7-.7.2-.1.3-.3.3-.5h.3c.1-.2.2-.4 0-.5.1-.2.2-.3.4-.3l-.2-.2c.1-.2.4-.3.5-.4zM11.9 22c0 .1.1.2.1.2l-.2.2v.5c.2-.2.5-.3.6-.5l-.2-.2c.1 0 .2-.1.2-.1-.1-.1-.3-.1-.5-.1zm1.2-.3c-.1 0-.2-.1-.2-.1v.4c0-.1-.1-.2-.2-.2-.2.2-.1.4-.2.5s-.1.2 0 .3c.2 0 .2-.3.3-.4h.2c0-.1.1-.3.1-.5zm8.8 2.8c0 .1 0 .2-.1.3 0 .1 0 .2-.1.3 0 .1.1.2.1.2.4-.2.3-.6.5-.8-.1 0-.2-.1-.2-.1l-.2.1z"/>
	</g>
	<g fill="#78578f">
		<path d="M33.6 10.5c-.1 0-.2-.1-.3-.1.3-.2.6-.2.9-.2h.1c.1 0 .2.1.2.1.2-.2.5-.3.7-.3v.4c.2.1.4 0 .5-.1v-.2c-.2 0-.3-.1-.4-.2.2-.1.4-.2.5-.2.1-.1.1-.2.2-.3.2.1.3.1.5.1s.3-.2.2-.4l.2.2v-.2h.1v.2c.2-.1.4-.2.5-.4h.5v-.2c-.5.2-1.2.2-1.7.6-.1 0-.2 0-.3.1v.2c-.1-.2-.4 0-.5 0-.1 0-.1.2-.1.2-.3-.1-.4-.1-.4-.1v.2h-.3c0 .1-.1.2-.1.2-.2 0-.2.1-.3.1l.1-.2h-.5v.2h-.1c0-.2 0-.3-.1-.4v.4c-.2-.1-.5 0-.5.2H33c-.2.1-.1-.2-.1-.3-.1 0-.2.1-.2.1v.2c0 .1-.1.2-.1.2.4.1.7 0 1-.1zM33 16c.1.1.2 0 .2 0H33zm6.1-4.5h-.3c-.1-.2-.1-.5-.1-.8-.1 0-.2-.1-.2-.1.1.2.1.4 0 .3s-.2-.1-.3-.1h-.6v.2h-.2c0-.1 0-.2-.1-.2.1 0 .2-.1.3-.1v-.3l-.2.1c-.1.1-.2.1-.3.1l.2-.2v-.2c-.1.2-.2.2-.3.3 0-.3.3-.4.5-.5-.2-.2-.4-.2-.6-.3l-.1.3h-.2c0 .1.1.2.1.2l-.2.2.1.1v.2c.2.1.4.2.6.2h.2c0 .1-.1.1-.1.1h-.2c.1.1.1.2.2.3h-.2v.5c-.1 0-.2-.1-.3-.1-.2.1-.2.2-.4.2s-.4-.1-.5-.1c0 .1-.1.2-.1.2-.2.1-.3.2-.5.2.2.3.2.5 0 .9h.7c-.3.1-.6.3-.9.2v.2c-.1-.1-.2-.2-.2-.3 0 .2.2.5.2.8.2-.1.3-.2.5-.2h.1c-.2-.1 0-.2.1-.1.2.1.2.1.3.2.1-.1.2-.1.2-.1-.1 0-.2-.1-.2-.1.2.1.3-.1.3-.2 0 .1.2.1.2.1.2-.2.5-.4.8-.4.2-.1.3-.2.5-.3-.2 0-.3 0-.5-.1.3-.2.5-.4.9-.5.2-.1.5-.2.5-.3h.2c.2-.2.4-.4.6-.5v-.2c-.1.2-.3.2-.5.2zm-7.5-.2c-.1-.1-.2-.2-.3-.2v.2c-.1-.2-.2-.3-.3-.3-.1.2-.1.3-.2.5v.1h-.4v.1c.5.1.8-.2 1.2-.4z"/>
		<path d="M34.7 13.9v-.3c-.1 0-.2.1-.2.1l-.2-.2c-.1.2-.2.4-.2.6-.1-.1-.1-.2-.1-.3-.2 0-.5.2-.8.3 0 .1.1.2.1.2.2 0 .3.1.5.1h.2c-.2.2-.3.3-.5.4.1-.1.2-.2.2-.4-.2 0-.5.2-.7.3v.2c-.2 0-.4-.1-.5-.1h-.1c0 .1-.1.2-.1.3l-.3-.2c-.2 0-.3.1-.5.1-.2.2-.3.3-.5.4.2.1.2.2.3.2 0-.2.2-.2.2 0h.2v-.2c.1.1.2.1.3.1 0 .3-.2.5-.5.7-.1.1-.2.1-.2.2s-.2.1-.2.1l-.2.2v.4c-.1.2-.3 0-.4 0-.1.1-.2.2-.3.2v-.2c-.3.1-.2.5-.3.6h.2c.2-.1.4-.2.5-.4h.5c0-.1.1-.2.1-.3.1 0 .2-.1.2-.1v.1c.1-.2.4-.2.5-.3v-.2h-.2c-.1 0-.2.1-.4.1v-.2c0 .1.1.2.1.2.2-.1.4-.2.5-.4v.2c.1-.2.2-.4.5-.4 0 .2-.1.3-.1.5h.2l.2-.2h-.2c-.1-.3.3-.5.3-.8h.2c0-.2.1-.2.2-.4s.2 0 .2.1l.5-.5c.2-.1.4-.2.4-.4h.4l-.2.2c.1-.1.2-.1.2-.1.1-.2.1-.4.1-.5.1 0 .2-.1.3-.1-.2-.1-.2-.2-.4-.2v.3z"/>
		<path d="M32.8 16.2c.1 0 .2 0 .2-.1 0 .1-.1.1-.2.1zm1-.6l-.2.2c.1 0 .1-.1.2-.1v-.1zm-.6 0c.1 0 .1.2.1.2l-.1-.2-.2-.1v.2c.1-.1.2-.1.2-.1zm.3.3s.1-.1.2-.1h-.4c-.1.1-.1.2-.1.2h.2c0-.1.1-.1.1-.1zm-8-1.7c.4-.2.9-.3 1.2-.7.4 0 .6-.2.9-.5.2-.2.4 0 .5 0 .2-.2.4-.5.6-.6h.1l-.2-.2c-.2 0-.4-.1-.4.2-.1 0-.2 0-.4.2.1.1.1.2.2.2l-.2-.2c-.4.1-.7.5-1.1.6-.4.2-.7.5-1.1.7-.2 0-.2.1-.3.2.1 0 .2.1.2.1zM9.4 18.3c.1-.1.2-.1.2-.1v.1c.2-.1.2-.2.4-.2v-.2h.5c.2-.4.2-.7 0-1-.1 0-.2.1-.2.1l.2-.7c-.1-.1-.2-.1-.2-.2.1 0 .2-.1.2-.1.1-.2.2-.4.3-.5v-.3c.1-.2.3-.2.5-.2v-.5c-.2-.1-.4-.1-.4-.3h.2V14c-.1.1-.2.1-.3.1v-.3c.1-.1.2-.1.3-.1-.1-.1-.1-.2-.1-.2h-.7c0 .2 0 .2.1.5-.2-.2-.4.1-.5.2l.2.2c-.1-.1-.2-.2-.3-.2 0 .1-.1.1-.1.1l-.1-.2c-.2.1-.4.1-.5.2v.3c-.1.3-.2.4-.3.5v.2c-.1 0-.2.1-.2.2.1 0 .2.1.2.2-.1.1-.2.2-.2.3-.1 0-.2-.1-.2-.1v.3c0 .1-.1.2-.2.2-.3-.2-.6-.2-.9 0h.4v.5c-.1-.1-.2-.2-.3-.2v.3h.2l.5.5-.2.2c0 .1.1.2.1.2h.3c0-.1-.1-.2-.1-.2l.2-.2c.2.1.2.2.3.2l.3-.4c.1.2.2.4.2.5 0 .1.1.2.2.2H9c-.2-.1-.4-.2-.5-.2-.2.2-.5.1-.8 0 0 .2.2.4.3.5-.2.1-.3.1-.5.1 0 .2.1.4.1.5H8v-.3c.2-.1.2-.2.3-.2-.1 0-.2-.1-.3-.1.1-.1.2-.2.2-.3.2.1.2.2.4.2V18c.1 0 .2.1.2.1.3-.1.4 0 .6.2zM21.7 17zm.6.6c0 .1.1.2.1.2.2-.2.3-.3.5-.4.2-.2.3-.6.7-.6.1 0 .2-.1.2-.1v-.2c0-.1.2-.1.2-.1v.2c.1-.1.2-.1.2-.2v-.2H24c-.2 0 0-.2.1-.2-.2-.1-.3 0-.5 0 0-.1-.1-.2-.1-.2.2-.1.4-.2.5-.2l.2-.2c.2-.1.3-.2.5-.2 0-.1.1-.2.1-.2.2-.2.5-.3.6-.5v-.2c-.5.1-.8.6-1.3.6 0 0 0 .2-.2.5-.2.1-.3.2-.5.3 0-.1-.1-.1-.1-.1 0 .2-.1.3-.2.4-.1 0-.2.1-.3.1-.2.2-.5.3-.6.5 0 .1-.2.1-.3.1 0 .1-.1.2-.1.2.1 0 .1-.1.2-.1.1.2-.2.5-.2.8l.1.2c-.2.1-.2.1-.3.1-.1.2-.2.2-.3.3.1 0 .2.1.4.1.3-.2.5-.4.6-.7z"/>
		<path d="M7.7 17.3c-.2 0-.3-.1-.5-.2v.3c.2.1.3.2.5.2v-.3zM3.4 19v-.5h-.6c.1 0 .2-.1.3-.1-.2-.2-.3-.2-.5-.2.1.2.1.2.1.3-.2.1-.2.2-.4.2 0 .1.1.3.1.3h-.5c-.2.2-.3.2-.5.3.2.2.5.3.7.4-.2.1-.5.1-.7.1-.2.2-.2.3-.4.5.1.1.1.2.2.3.1.1.2.2.4.2-.1 0-.2.2-.2.2l.3.3h.5c0-.3.3-.5.5-.5.2.2.2.3.3.4l.2-.2h.3v-.2c-.2-.2-.4-.3-.5-.5l.3-.3c.2.2.3.6.6.8-.2.1-.2.2-.3.4.2-.1.4-.2.5-.2-.1 0-.1-.1-.1-.2-.3-.1-.3-.4-.3-.6-.2-.1-.4-.2-.5-.3h.7l.2-.2.2.2c-.1-.1-.1-.2-.1-.2l.2-.2c-.4-.2-.8-.2-1-.5zm1.9-.5H5l-.2-.2c-.1.2 0 .5.2.5v.2c.2.2.3 0 .4 0v-.2h.2c-.2 0-.4 0-.5-.1l.2-.2zm25.8-3.9c0-.2-.1-.2-.1-.2V14h.1l-.2-.2c-.3.1-.5 0-.9-.2v.4s-.1 0-.2-.1v-.2c-.1 0-.2 0-.2.1s.1.2.1.3c-.2 0-.3 0-.5.1-.2.2-.3.5-.4.8-.1.2-.3.1-.4.1-.2.2-.4.4-.5.7h-.5c-.2.5-.7.5-1 .9 0-.1-.1-.2-.1-.2-.1.1-.2.2-.3.2h.3c0 .2 0 .3-.1.4-.2 0-.4.1-.5.2l-.4-.4c-.1.2-.3.5-.1.8v.2s-.1-.2-.2-.2c0 .1-.1.1-.2.2l.2.2c-.2.2-.5.2-.9 0l-.1-.2c-.4.2-.5.5-.9.8-.4.2-1 .4-1.1.9.2 0 .3 0 .5.1l-.2.2v.7c.2 0 .3-.1.4-.2.1-.2.3-.4.5-.5v.3h-.3c-.2.3-.4.5-.5.9v-.4c-.2-.1-.2-.2-.4-.2v-.2c-.2-.2-.5-.2-.8-.1 0 0 .1.1.1.2h-.4v.2s.2 0 .2.1v.2l.5-.2v.5c-.2.1-.5.2-.8.2 0 .1.1.2.2.2-.4 0-.6.3-.9.4-.4.1-.6.2-1 .3.1 0 .2.1.2.2H19c0-.2.1-.4.1-.5-.1.1-.2.2-.3.2l-.2.1c0 .1-.1.1-.1.2h-.2c0 .2 0 .4-.1.5.1 0 .2 0 .3-.1l-.1.1c-.2 0-.3.1-.5.2-.2 0-.2-.1-.4-.1 0-.1.1-.2.1-.2-.1.1-.1.1-.1 0 0 0 .1-.1.2-.1v-.2c0-.1.1-.1.1-.2h-.1v-.2s0-.1.1-.1c0-.2 0-.3-.1-.5s.1-.4.2-.5c0-.2-.1-.3-.2-.4-.2.1-.4.2-.5.4l-.3-.3c.2-.2.5-.2.7-.2 0 0 .1-.1.1-.2-.2-.2-.2-.3-.3-.5 0 0-.1-.1-.2-.1-.4 0-.7.2-1.1.2-.2 0-.3.1-.5.2v.2c-.4.1-.5.5-.9.6-.2.2-.5.2-.8.4.1.1.2.2.3.2l-.9.2c.1 0 .2.1.2.2v.2c-.2-.1-.3-.2-.5-.3 0-.2-.1-.4 0-.5-.2-.1-.5-.1-.5.1-.2.3-.5.5-.8.5v-1c-.1.2-.2.2-.2.4-.1.4-.4.8-.5 1.2-.2.5-.5 1.1-.7 1.6-.2.3-.1.6-.3.9-.1.2.1.3.1.5h-.2v.3c0-.1.1-.2.2-.2l.5.5c0-.4.3-.7.5-1.1v.5h.5s0 .2-.1.2h-.2c-.2 0-.3.1-.5.2.1 0 .2 0 .2.1-.1.1-.2.2-.3.2.2 0 .3.1.4.2.2 0 .2-.1.4-.2v.4h.3c.2-.1.4-.2.5-.2l.2-.2c.2.2.2.5.2.8 0 .1-.1.2-.1.2s.2 0 .2.1c.3 0 .6.2 1 .2-.2-.2-.5-.2-.6-.4h.4c0-.1.1-.2.2-.2 0 .2.1.4.3.4.1-.2.2-.3.3-.4.2 0 .6 0 .7.3.2.2.1.5.1.8l.2-.2c.2 0 .5.2.8.2.2-.1.4-.2.6 0 .3-.2.6-.2.9 0 0-.1-.1-.2-.2-.2l.2-.2c.2 0 .5 0 .6.2-.1 0-.2.1-.4.1 0 .1 0 .2.1.2.1-.1.2-.2.4-.3 0 .2 0 .5-.2.6.1 0 .2 0 .2-.1l-.3.3v.2c-.6 0-.9.8-1.4 1-.2 0-.3 0-.5.1l-.2.2c0-.1-.1-.2-.1-.2-.2.2-.3.3-.5.4 0 .1 0 .2.1.2.4-.2.7-.5 1.1-.5 0 .1-.1.1-.2.2-.3.3-.9.5-1.2.7-.1.1-.2 0-.3 0-.1 0-.2.1-.2.2.2 0 .3.1.5.1.1 0 .2 0 .3-.1.2-.1.3-.2.5-.2.2-.1.3-.1.4-.1.2-.2.5-.4.7-.5v-.2c.4-.1.5-.4.9-.5.2-.2.5-.4.6-.8.2-.1.3-.2.5-.4s.5-.3.7-.6c.2 0 .5-.2.5-.3 0-.1-.1-.2-.1-.2.2-.2.3-.4.5-.5 0 0 .1 0 .2-.1v-.3c.2-.1.4-.2.5-.2.2-.2.3-.4.5-.5v-.3h.3s.1.1.2.1v-.2c.1 0 .2-.1.3-.2h-.1c0-.2.2-.4.4-.5v-.2c.1 0 .2.1.3.1.1-.2.1-.3.2-.4h.5c0-.3 0-.5.2-.9.1 0 .2.1.2.1.2-.2.4-.5.4-.9l.2.1v.1s.1 0 .2-.1c0-.1 0-.1.1-.2-.1 0-.2 0-.2-.1v-.2c.2 0 .3 0 .4-.1.1-.2.2-.4.2-.5 0-.2 0-.3-.1-.4.1 0 .2 0 .2.1 0-.2.1-.2.1-.4.2.1.3.2.4.3 0 0 .1.2.2.2v-.1s-.1-.1-.1-.2c.2-.1.3-.2.5-.4.1-.2-.1-.4.1-.5.2-.2.5-.4.7-.6h.2c.1-.2.2-.3.4-.4 0-.1-.3-.2 0-.2v-.2c0-.1.2-.1.2-.1l-.2.2c0 .1 0 .3.2.3s.2-.2.2-.3c0 0 .1.2.2.2 0-.1 0-.2.1-.3.3.1.5-.2.6-.4.1-.2.3-.2.4-.2h-.2s0-.2.1-.2c-.1 0-.2-.1-.2-.1v.2h-.2c-.2.2-.4.4-.5.7-.2-.1 0-.2 0-.4v-.2c.1 0 .2-.1.2-.1l.2-.5h.2l.2-.2v.2h.2c0-.2 0-.3.1-.5 0 0 .2 0 .2-.1-.5-.2-.7.3-1.1.5.2-.2.4-.5.6-.7v-.5c.2 0 .3-.1.5-.1l.1-.1c.2-.2.3-.4.5-.5l.2-.9zm-12.5 7.5c.2 0 .4 0 .5.1-.1-.2-.1-.2-.1-.4.1.1.2.2.3.2 0 .2 0 .3-.2.4-.1 0-.3-.1-.5-.3zm-.3 3.2c-.2-.1-.2-.1-.2 0l-.1-.1.3.1c0-.1 0 0 0 0zm.7.2c-.1-.2-.2-.2-.2-.2v.2h-.3l.2-.2h-.1c.1 0 .2-.1.3-.2 0 .1.1.2.2.2-.1 0-.1.1-.1.2zm1.3-1.2c0-.1 0-.2-.1-.2 0 0-.1 0-.1.1l-.1-.1v.3c.1.1.2.2.3.2-.2 0-.3.1-.5.2 0 .1.1.2.2.2-.2.2-.3.3-.4.5l-.2-.2c0 .2 0 .2.1.4-.1-.1-.2-.2-.2-.3 0 0 .1-.1.1-.2s-.1-.2-.2-.2h.2v-.2h.3c0-.2 0-.4-.1-.5-.2-.2-.4-.3-.5-.5-.1 0-.2.1-.2.2l-.4-.2v-.2c-.2.1-.3.2-.5.3v.2c.2-.1.5 0 .8.1l.1.2c.1 0 .2 0 .2.1v.2c-.1 0-.2.1-.2.1v-.2c-.3.2-.6.5-1 .5-.1-.1-.2-.1-.3 0-.1.1-.2.3-.2.4h-.2c-.1.2-.2.3-.4.4-.1 0-.2-.1-.4-.1 0-.2-.1-.5-.4-.5.1-.2.2-.3.3-.5-.2.1-.5.2-.5.4-.2 0-.4.1-.5.2 0-.2.1-.3.3-.3 0-.1-.1-.2-.2-.2h.3c.1-.1.2-.2.3-.2 0 .1 0 .2.1.2.2-.2.3-.2.5-.3-.2-.2-.3-.1-.5-.1l.2-.2V24l-.1.1c-.1 0-.2-.1-.3-.1v-.2c.2 0 .2-.1.4-.1-.2-.1-.5-.1-.8-.1.1.2.1.3.2.5l-.2.2c-.2 0-.5-.2-.6-.5.1 0 .2-.1.3-.2-.2-.1-.2-.2-.4-.2l.2-.1s.1 0 .2.1l.2-.2H15c0-.2.2-.2.5-.2 0 .2 0 .5.2.6.2 0 .2-.3.2-.5 0 .1.1.2.1.2.1-.1.2-.2.3-.2l-.5-.5v-.2c.1 0 .1.1.2.1v-.2c.2 0 .3-.1.3-.2-.2-.1-.3-.1-.4-.1.2 0 .5 0 .5-.2-.1 0-.2 0-.3-.1h.1c.2.1.4.1.5.2.2 0 .3-.1.5-.2v.3c.2 0 .3-.1.4-.1l-.2-.2h.2v-.3c.1 0 .1.1.2.1-.1.2-.2.4-.4.6.1.2.2.3.3.5l.9.6v.2c.3-.2.5-.5.9-.5l.2.2s.1 0 .1-.1c.2.2.3.2.5.4 0 0 0 .1-.1.1l.3.3c.1.3-.1.3-.2.5z"/>
		<path d="M15 27.9c.1 0 .2-.1.2-.2H15v.2zm-1.8-9.7V18c.1-.2.2-.2.4-.3-.1-.2-.2-.2-.3-.4.2-.2.2-.5.2-.8.2-.1.2-.1.3-.1 0-.1.1-.2.1-.2-.2-.1-.2-.1-.3-.1-.1-.3-.2-.5-.2-.9-.1 0-.2-.1-.2-.2.1-.2.2-.5.3-.7-.1 0-.2-.1-.2-.1.1-.2-.2-.5-.3-.7 0-.2 0-.4.2-.4s.2.3.2.4v-.3l.5.2-.2.2c.1-.1.2-.2.4-.2-.1.2-.1.3-.1.4.2.1.4.1.5.1-.2-.1-.3-.2-.5-.2.2 0 .4-.1.5-.2-.2-.2-.2-.3-.4-.3-.4-.2-.7-.4-1.1-.4-.2 0-.4.1-.7.2v.2c.1 0 .2.1.3.1 0 .4.2.8.4 1.1-.2.2-.3.2-.5.3l.5.5c-.1.2-.1.5 0 .8.2.2.1.5 0 .8-.1.1-.2.1-.4.1.1.1.1.2.2.2l-.2.5.1.1c-.2.2-.2.4-.3.5h-.2v.3c.2-.2.4-.2.5-.2.3.1.5 0 .5-.1zm12.5-3c-.2-.1-.4.2-.4.4.2 0 .5-.2.4-.4zm-.6.1c-.1.1-.1.2-.2.4.2 0 .2-.1.4-.1v-.3h-.2zM9.2 28.1c0-.1-.1-.2-.1-.2-.2.4-.1.9-.2 1.2l.2.7c.2-.4-.2-.7 0-1.1 0-.3.2-.5.1-.6zm1.7-.3l-.2.2s0 .1-.1.1c-.1.1-.2.1-.3.1l-.2.2v-.5c-.2.1-.4.2-.5.4h-.1c0 .2-.1.3.1.4h-.2c.1.4.2.7.4 1.1-.1 0-.2-.1-.2-.1 0 .2.2.4.5.4l-.2-.2h.4c-.2-.1-.3-.2-.4-.3-.2-.2-.2-.4-.2-.5 0-.2.2-.4.4-.5.1.2.1.3.2.4.2-.2.2-.5.4-.5.2.2.2.4.5.5v-.5c-.1 0-.2-.1-.2-.1v-.6zm.3-.6c-.1-.1-.1-.2-.2-.2.2-.1.3-.2.4-.3 0-.1-.1-.2-.1-.3h-.2c0 .2.1.2.2.4-.2 0-.4 0-.5.1.1.1.2.1.2.1 0 .1-.1.2-.1.2.2.1.4.2.5.2-.1 0-.2.1-.2.1h.2c.1 0 .1-.2.1-.3 0-.2-.1-.2-.1-.2-.1.1-.1.2-.2.2z"/>
	</g>
	<g fill="#9783a6">
		<path d="M35.8 10.4h.3c0-.2.1-.3.2-.4h-.4c.2-.1.4-.2.5-.3-.2-.1-.3-.1-.5-.1-.1.2-.2.2-.2.4-.2.1-.4.1-.5.2.2.1.2.2.4.2.1-.1.2 0 .2 0zm-3.1.6c.2-.2.6-.3.9-.2v-.3c.1.2.1.2.1.3.1-.1.2-.1.4-.2 0-.1-.1-.2-.2-.2l.2-.2c-.4 0-.6 0-.9.2.1.1.2.1.2.1-.2.1-.5.1-.7.1h-.3v-.2c-.1.1-.2.2-.3.2v.3c.2-.1.4-.2.6-.2v.3zm4.8.5h.2v-.1l-.2.1zm-6.9 4.1c-.2.3-.4.5-.6.6v.2c-.2.2-.5.5-.6.7.1 0 .1-.1.2-.1h-.2c.1 0 .2.1.2.1.1 0 .2.2.2.2.2 0 .3-.2.5-.2.2-.2.2-.3.4-.5h.3c.2-.2.3-.5.6-.4v.2c.2-.2.5-.4.5-.7-.1-.1-.2-.1-.3-.1v.2h-.4c-.2-.1-.2-.1-.2-.2l.3-.3h-.2l.2-.2h-.1c.1-.2.1-.2.2-.3h-.3c-.4.4-.5.6-.7.8zm-.8 1.5v-.2h-.2c.2-.2.5-.4.7-.3-.1.1-.2.2-.2.3 0 .2-.2.2-.3.2zm1.1-1c-.1.1-.2.1-.2.2-.2 0-.2-.2-.2-.2.1-.1.2.1.2.2.1-.1.1-.2.2-.2 0-.2 0 0 0 0zm4.6-3.7s.1-.1 0 0c.1-.1 0-.1 0 0zM31.4 15c.1 0 0 0 0 0z"/>
		<path d="M36.1 11.8c.2 0 .4-.2.5-.2-.2.2-.4.3-.7.3v.2h-.3c0 .1-.1.1-.1.2 0 .2-.2.3-.3.4v.2c-.1-.1-.2-.1-.2-.1-.2.1-.2.2-.3.2-.1 0-.2.1-.2.1v.2c-.3.3-.7.5-1 .8l-.1-.2v.5H33c0-.1.1-.2.1-.4-.2.3-.5.5-.9.8-.2.2-.5.5-.8.7.2 0 .3-.1.5-.1l.2.2c0-.1.1-.2.1-.3H32c.2-.3.4-.6.7-.9.2.1.2.2.3.2-.2.3-.5.5-.7.7.2 0 .4.1.5.1.1 0 .1-.2.1-.2.2-.2.4-.3.7-.3-.2 0-.3-.1-.5-.1 0-.1-.1-.2-.1-.2.2-.2.5-.3.8-.3l.2.2c.1-.2.2-.4.2-.6.1.1.1.2.2.2s.2-.1.2-.1v.3c0-.2.1-.2.1-.3.2.1.2.2.4.2-.2-.2-.2-.5-.2-.8.1.1.2.2.2.3v-.2c.3.2.6-.1.9-.2-.2-.1-.5 0-.7 0 .2-.3.2-.5 0-.9.2-.1.3-.2.5-.2 0-.1.1-.2.1-.2.2 0 .4.1.5.1.2-.1.2-.2.4-.2.1 0 .2.1.3.1v-.5h.2c-.1-.1-.1-.2-.2-.3h.2v-.1c-.1 0-.2-.1-.2-.1-.3.3-1 .3-1 .8z"/>
		<path d="M37.4 11.4c.1-.1 0-.2 0-.2v.2zm.3-.1v.2h.1c.2 0 .4-.1.5-.2-.2 0-.4.1-.6 0zM40 11c-.2-.1-.4-.2-.6-.2l-.3.2c0-.1-.1-.2-.1-.2-.1.1-.2.1-.2.1v-.4c-.2 0-.3.1-.5 0-.1.2-.2.2-.4.2h-.1v-.3h-.2s0 .2.5.7l.2-.1v.3c.1.1.2.1.3.1v-.5c.1 0 .2.1.2.1 0 .2 0 .5.1.8h.3c-.1-.1-.1-.2-.1-.3.3-.3.6-.4.9-.5zm-5.8 1.8l-.1.2c-.1 0-.2.1-.4.1v.3l.5-.2v-.4l.5.1v.1c0-.1.1-.1.1-.1.1-.2.1-.2.1-.4-.1-.1-.2-.2-.3-.2-.2.1-.3.2-.4.2-.1 0 0 .2 0 .3zm-.5.3h-.2v.2c-.2.1-.2.2-.2.3-.1 0-.2.1-.2.1 0-.1.1-.2.2-.3-.1.1-.2.2-.4.2.1.1.1.2.1.3-.1.1-.2.2-.4.2-.2.2-.3.5-.6.6v-.3c-.1 0-.2.1-.2.1h-.1c.1.1.2.2.2.3-.2.1-.2.1-.3.1.1 0 .2.1.2.2h-.1c.2.1.3 0 .4-.2h.3l.5-.5c.2-.2.5-.3.6-.5v-.2c.2-.1.2-.2.4-.2 0 0-.1-.1-.2-.1-.1-.2 0-.2 0-.3zm1.3-1.3c-.2 0-.2.1-.3.2-.1 0-.2.1-.2.1v.1c.2 0 .5.2.6.4.2-.1.3-.2.5-.2-.2-.3-.3-.6-.6-.6zM34.5 12.2c-.1-.1-.1 0 0 0zm-20 8.7c-.2-.1-.2-.2-.3-.2.2-.2.5-.2.8-.4.4-.2.5-.5.9-.6v-.2c.2-.1.3-.2.5-.2.4-.1.7-.2 1.1-.2l.1-.1h.2c.2.1.3.2.4.2 0-.2-.1-.4-.2-.5-.2.1-.5.1-.7.1l.2-.2c-.2-.1-.3-.3-.3-.5H17c.1-.2.2-.3.2-.5-.2-.1-.3-.2-.4-.2v-.2h-.2V17h.2c0-.1.1-.2.1-.2.1 0 .3-.1.4-.2H17v-.2c.1 0 .2-.1.2-.1-.1-.1-.2-.1-.2-.1V16c-.1-.2-.2-.3-.2-.5h.2c0-.2-.1-.4-.2-.5.1-.1 0-.2 0-.4-.2-.1-.2-.2-.3-.3.1.2.2.4.2.5V16c-.2-.3-.5-.6-.6-1h-.2l-.2-.2v.2c-.2-.2-.3-.3-.2-.5-.2-.3-.5-.5-.7-.7-.2 0-.4.1-.5.2.2 0 .3.1.5.2-.2.1-.4 0-.5-.1.1-.2.1-.3.1-.4-.1.1-.2.2-.4.2l.2-.2-.5-.2v.3c-.1-.2-.1-.4-.2-.4-.2-.1-.2.2-.2.4.1.2.4.5.9 1 .1 0 .2.1.2.1-.1.2-.2.5-.3.7.1 0 .2.1.2.2.1.3.2.5.2.9.2.1.2.1.3.1 0 .1-.1.2-.1.2-.2.1-.2.1-.3.1 0 .3-.1.5-.2.8.1.2.2.2.3.4-.1.2-.2.2-.4.3v.2c-.1.2-.2.3-.3.4-.2.1-.4.1-.5.2-.2.2-.2.5-.3.7-.8-.1-1 .3-1 .7l-.1.1v.4c.3-.1.6-.2.8-.5.1-.2.4-.2.5-.1-.1.2 0 .4 0 .5.2.2.4.2.5.3v-.2l-.2-.2 1-.2zm16.4-3.6v-.4c0 .1-.1.2-.1.2s-.1 0-.2.1l-.1.2c.2-.1.4.1.4-.1zm-9.9 0c-.3-.1-.3.4-.6.5-.2.2-.5.2-.7.5-.3.2-.5.5-.9.8-.1.1-.2.1-.2.1-.2.1-.5.2-.4.5l.2-.2h.1c.1-.1.1-.2.1-.2h.3c.4-.5 1-.9 1.5-1.3.3-.4.9-.5 1.2-.9v.2c.1-.2.1-.3.1-.4v-.1c-.4 0-.6.3-.7.5z"/>
		<path d="M17.1 17.3c.2 0 0-.3-.2-.3 0 .1 0 .2.2.3zm14 .2c-.2 0-.3 0-.5.1-.2.2-.3.3-.5.4H30c-.1-.1-.1-.2-.1-.2 0 .1-.1.1-.1.1.2.4-.3.6-.5.8-.1-.1-.1-.2-.2-.2-.1.2-.1.2-.1.3-.3.2-.7.3-.7.7-.2 0-.3.1-.5.2.1.2-.2.4-.3.6.7-.4 1.2-1.1 1.9-1.5.7-.5 1.2-1.1 1.7-1.3.1-.1.2-.2.1-.3 0 .1-.1.2-.1.3zm-13.7 4.6c.1.1 0 0 0 0zm-.1 0c.1.1.2 0 .2 0h-.2z"/>
		<path d="M20.1 23.5c-.1-.2-.2-.3-.4-.5 0 .1-.1.1-.1.1l-.1-.1c-.4.1-.5.4-.9.5v-.2c-.3-.2-.6-.5-.9-.6-.1-.2-.2-.3-.3-.5-.1 0-.2.1-.2.1V22c-.2.1-.3.2-.5.2-.2-.1-.4-.2-.5-.2H16c.1.1.2.1.3.1-.1.2-.4.2-.5.2 0 .2-.1.4-.1.5l.5.5c-.1.1-.2.2-.3.2 0-.1-.1-.2-.1-.2-.1.2 0 .5-.2.5-.2-.1-.2-.4-.2-.6-.2 0-.5 0-.5.2h.4l-.3.2c-.1-.1-.2-.1-.2-.1 0 .1-.2.1-.2.1.2.1.2.2.4.2-.2.1-.2.2-.3.2.1.2.3.5.6.5l.2-.2c-.1-.2-.2-.3-.2-.5.2 0 .5 0 .8.1-.2 0-.2.1-.4.1v.2c.2 0 .2 0 .3.1l.1-.1v.2c0 .1-.1.2-.2.2.2 0 .4-.1.5.1-.2.1-.4.2-.5.3 0-.1-.1-.2-.1-.2-.2.1-.2.2-.3.2h-.3l.2.2c-.2 0-.3.2-.3.3.2-.1.4-.2.5-.2.1-.2.3-.3.5-.4-.1.2-.2.3-.3.5.3 0 .4.3.4.5.2 0 .3.1.4.1.2-.1.3-.2.4-.4h.2c0-.1.1-.3.2-.4.2-.2.4.1.5.2 0-.1.1-.1.2-.1 0 .1.1.1.1.1v-.2c.1.1.2.1.3.1l-.2.2h.3v-.2h.2c0-.1.1-.2.1-.2 0-.1-.1-.2-.2-.2-.3.2-.7.2-1.1.2 0-.1.1-.2.1-.2.5 0 .7-.3 1-.5v.2c.1 0 .2-.1.2-.1v-.2c-.1 0-.2-.1-.2-.1 0-.1-.1-.2-.1-.2-.2-.1-.5-.2-.8-.1v-.2c.2-.2.3-.2.5-.3v.2c.2.1.3.1.4.2 0-.1.1-.2.2-.2.2.2.4.3.5.5.1.2.1.4.1.5h-.3v.2H19l.2.2c0 .1-.1.2-.1.2.1.2.2.2.2.3-.1-.2-.1-.2-.1-.4.1.1.2.1.2.2.1-.2.2-.3.4-.5l-.2-.2c.2-.1.4-.2.5-.2-.1-.1-.2-.2-.3-.2V24c.1 0 .2.2.2.2l.1-.1c.1 0 .1.1.1.2.1-.2.2-.2.2-.4s-.2-.3-.3-.4zm-2.5-1.6c0 .1-.1.1-.1.2h.1v-.2zm.3-.5v-.2c0 .1-.1.2-.2.2 0-.1-.1-.2-.2-.2 0 .1 0 .2-.1.7.1-.2.2-.3.2-.5h.3z"/>
	</g>
</svg>