<svg xmlns="http://www.w3.org/2000/svg" viewBox="0 0 40 40">
	<radialGradient id="gr1" cx="-268.0694" cy="427.9532" r="1" gradientTransform="matrix(31.1354 0 0 -31.1354 8373.1152 13335.3018)" gradientUnits="userSpaceOnUse">
		<stop offset="0" stop-color="#f28e76"/>
		<stop offset=".2095" stop-color="#e5302f"/>
		<stop offset=".8715" stop-color="#b42b28"/>
		<stop offset="1" stop-color="#cf2c2a"/>
	</radialGradient>
	<path fill="url(#gr1)" d="M20 40c11 0 20-9 20-20S31 0 20 0 0 9 0 20s9 20 20 20z"/>
	<radialGradient id="gr2" cx="-266.908" cy="426.2708" r="1" gradientTransform="matrix(27.5523 0 0 -27.5523 7381.3701 11753.8193)" gradientUnits="userSpaceOnUse">
		<stop offset="0" stop-color="#fff"/>
		<stop offset=".17" stop-color="#fff"/>
		<stop offset=".75" stop-color="#dfdfe1"/>
		<stop offset=".96" stop-color="#bdc0c5"/>
		<stop offset="1" stop-color="#c4c5ca"/>
	</radialGradient>
	<path fill="url(#gr2)" d="M29.7 11.5c-1 0-1.9.5-2.4 1.4L23.2 20l-4.1-7.1c-.5-.8-1.4-1.4-2.4-1.4s-1.9.5-2.4 1.4L8 24.1c-.8 1.3-.3 3 1 3.7.4.2.9.4 1.4.4.9 0 1.9-.5 2.4-1.4l4.1-7.1 4.1 7.1c.5.8 1.4 1.4 2.4 1.4s1.9-.5 2.4-1.4L32 15.6c.8-1.3.3-3-1-3.7-.4-.2-.8-.3-1.3-.4z"/>
</svg>