<svg xmlns="http://www.w3.org/2000/svg" viewBox="0 0 40 40">
	<path fill="#dd1f2a" d="M13.7 8.1c0-4.8 2.9-8 6.5-8.1 3.6-.1 6.7 3.1 6.8 7.1 0 1.9-.5 3.8-1.5 5.5-1.4 2.5-5.9 7-5.9 7L18 16.2s.7-1 1.7-2.2c1.2-1.4 2.2-3.1 3-4.8.3-.6.4-1.3.4-2-.1-1.7-1.2-3-2.7-3-1.4 0-2.6 1.4-2.7 3-.1 1.2.3 2.4.9 3.4.3.5.8 1.4.8 1.4l-2.5 3c-.6-.7-1.1-1.5-1.6-2.3-1-1.7-1.6-3.5-1.6-4.6m-1 4.5c-1.1-1.1-2.4-1.9-3.9-2.3-3.7-1-7.6 1-8.6 4.6-.4 1.8-.2 3.7.8 5.3s2.5 2.8 4.3 3.3c1.7.5 3.7.5 5.5 0 .7-.2 1.3-.4 1.9-.6l-1.9-3.6s-.8.3-1.4.4c-1.1.3-2.3.2-3.4-.3-1.5-.6-2.3-2.3-1.8-3.6.5-1.4 2.3-2 3.7-1.5.8.4 1.5.8 2.1 1.4 3.4 2.9 4.7 8 4.7 8s-4.4 1.5-6 2.5c-3.1 2.1-4.4 5.9-3.2 9.1.4 1.2 1.2 2.3 2.3 3 1 .8 2.3 1.2 3.6 1.2 1.5 0 2.9-.4 4.1-1.3 1.2-.8 2.2-2 2.7-3.3.9-2.1 1.1-4.3 1.1-6.5 0-3-.6-5.9-1.7-8.7-1.1-2.5-2.8-5-4.9-7.1zm1.6 21.3c-.6 1.1-1.6 1.8-2.9 1.7-.5 0-.9-.2-1.3-.5s-.6-.7-.8-1.1c-.5-1.3 0-2.3.8-3.3 1.3-1.8 5-2.7 5-2.7s.1 1.5.1 2c.1 1.3-.3 2.7-.9 3.9m7.8-.4c.4 1.5 1.1 2.9 2.1 4.1 2.7 2.9 7 3.2 9.7.7 2.7-2.6 2.8-7.1.2-10-1.3-1.4-2.9-2.4-4.7-3-.6-.2-1.3-.4-1.9-.5l-.2 4.1s.8.2 1.4.4c1.1.3 2.1 1.1 2.8 2.1 1 1.4.8 3.2-.3 4.1-1.2.9-3 .5-3.9-.8-.5-.7-.8-1.5-1-2.3-1.4-4.3.1-9.4.1-9.4s4.5 1.1 6.4 1c3.7-.2 6.8-2.6 7.4-6 .3-1.3.1-2.6-.3-3.8-.5-1.2-1.3-2.3-2.4-3-1.2-.8-2.7-1.2-4.1-1.1-1.5 0-2.9.5-4.1 1.4-1.8 1.3-3.1 3-4.3 4.9-1.5 2.6-2.6 5.4-3 8.3-.8 2.9-.7 5.9.1 8.8zm9.5-18.9c.5-.3 1.1-.5 1.7-.5.6 0 1.2.2 1.6.6.4.3.7.6.9 1.1.2.4.2.9.1 1.4-.3 1.3-1.2 1.9-2.3 2.4-2 .8-5.6-.4-5.6-.4l.9-1.8c.6-1.2 1.6-2.1 2.7-2.8"/>
</svg>
