<svg xmlns="http://www.w3.org/2000/svg" viewBox="0 0 40 40">
	<g fill="#0063ab">
		<path d="M18.6 11.2h2.1l-4.3 13.3h-2l4.2-13.3zm3.4 3.5h2l-4.3 13.2h-1.9L22 14.7zM9.6 24.5h.8l2-6.3 1.6 5 1.1-3.3-2-5.9c.1-.1-3.5 10.5-3.5 10.5zm4-11.9l.4-1.1 1.8 6.2-.4 1.2-1.8-6.3zm20.2 4.2c.1.3.1.4.1.8h6c0-.3 0-.3-.1-.7-2-.1-4-.1-6-.1z"/>
		<path d="M39.7 16.1h-6.1c-.1-.2-.2-.5-.4-.7-.1-.2-.5-.6-.5-.7h2c0-.3-.1-.4-.1-.5-2.1-5.7-6.4-11.4-15.4-11.7C7.7 2.5.8 10.9.5 20.2H.1C.2 9.3 8 .3 19.2 0c9.4-.3 18.3 5.6 20.5 16.1z"/>
		<path d="M17.1 24.5l4.3-13.3h.6l-4.2 13.4-.7-.1zm3.4 3.4l4.2-13.2h.8l-4.2 13.2h-.8zm5.1-11.6c.1-.4.3-1.1.5-1.7H31c3 .5 2.7 5.9-.6 6.5 2.5 1.9.3 6.5-2.4 6.5h-6c.1-.3.3-.8.4-1.1 1.8-.1 3.5 0 5.3 0 2.3-1.3 2.7-3.8 1.4-5.4 3.5-1.1 2.4-4.9 1.2-4.9-1.9.1-3 .2-4.7.1z"/>
		<path d="M22.5 26c.1-.2.2-.6.3-.8h3.8c.9-.4 1.1-1.3.9-2.1h-4.1c.2-.5.4-1.2.6-1.8h4.2c1.3.8.7 4.1-.9 4.6l-4.8.1zm1.7-5.3h4.2c1.2-.2 2-1.5 2.1-2.3 0-.4-.2-1.1-.6-1.2h-4.6l-.2.5h4.2c.6.6 0 2.2-1.1 2.3h-3.9l-.1.7zM6.3 24.6l4.3-13.4h2.6L9 24.5l-2.7.1zm16.3-11.8l.5-1.6h2l-.5 1.7-2-.1zm2.6 0l.5-1.6h.8l-.5 1.7-.8-.1zm-3 1.2l.2-.6h2l-.2.6h-2zm2.7 0l.2-.6h.8l-.2.6h-.8zm-5.6-4.6l.5-1.6h2l-.5 1.7-2-.1zm2.6 0l.5-1.6h.7l-.5 1.7-.7-.1zm-3 1.2l.2-.6h2l-.2.6h-2zm2.6 0l.2-.6h.6l-.2.6h-.6zM6.4 22l.2-.8H0v.8h6.4z"/>
		<path d="M.3 22.8h5.9c-.2.7-.4 1.4-.6 1.8h-.5c.1.2.1.3.1.4C7 30.8 11 36.7 20 37.5c11.4.6 18.9-7.4 19.6-16.6h.4c-.7 10.8-9 19.3-20.1 19.1-9.5-.3-18-6.6-19.6-17.2z"/>
	</g>
</svg>