<svg viewBox="0 0 40 40" xmlns="http://www.w3.org/2000/svg">
	<path fill="#123A92" d="m28.8375 36.7859-4.0196-8.7694h-9.6337l-4.0217 8.7694h17.675Zm3.2664-30.26187c3.9138 3.41824 6.2812 8.56937 6.2812 13.86887 0 5.2996-2.3681 10.4507-6.2812 13.869l-5.063-11.0432H12.9611L7.89817 34.2619c-3.91519-3.4196-6.28396-8.5707-6.28396-13.869 0-5.2989 2.36877-10.44927 6.28396-13.86887L12.9611 17.5679h14.0798l5.063-11.04387ZM31.4856 4l-5.4799 11.9537H13.9971L8.51714 4C3.20537 7.66977 0 13.9151 0 20.3929c0 6.4786 3.20537 12.7232 8.51714 16.393l5.47996-11.953h12.0086l5.4799 11.953C36.798 33.1161 40 26.8715 40 20.3929 39.9993 13.9151 36.7973 7.66977 31.4856 4Zm-2.6481 0-4.0196 8.77h-9.6337L11.1625 4h17.675Z"/>
</svg>