<svg xmlns="http://www.w3.org/2000/svg" viewBox="0 0 40 40">
	<g fill="#293895">
		<path d="M20 1l1.4 2.2c3.9.1 7.8.4 11.7 1.1C29.5 1.6 25 0 20 0S10.6 1.6 7 4.3c3.8-.6 7.7-1 11.7-1.1C18.6 3.2 20 1 20 1z"/>
		<path d="M18 4.2c-4.8.2-9.2.9-13.2 2l-.7.8c4.4-.9 8.7-1.4 13.2-1.5-.1 0 .7-1.3.7-1.3zm5 1.6c4.4.2 8.9.6 13.2 1.5-.2-.2-.5-.6-.8-.8-4-1.1-8.4-1.8-13.2-2 0 .1.8 1.3.8 1.3zm-6.3.7c-5.3.2-10.2 1.2-14.2 2.6-.2.3-.4.6-.5.9 4-1 8.7-1.6 13.7-1.8l1-1.7zM15 9.3C9.6 9.7 4.7 10.7.8 12.2c-.3.6-.5 1.4-.8 2h12l3-4.9zm-3 16.5H0c.2.7.5 1.4.8 2 3.8 1.4 8.7 2.5 14.2 2.9l-3-4.9zm3.7 6.1c-5-.2-9.7-.9-13.7-1.8.2.3.4.6.5.9 4.1 1.4 8.9 2.3 14.2 2.6l-1-1.7zm1.6 2.6c-4.4-.2-8.9-.6-13.2-1.5.2.2.5.6.8.8 3.9 1.1 8.4 1.8 13.2 2l-.8-1.3z"/>
		<path d="M20 39l-1.4-2.2c-3.9-.1-7.8-.4-11.7-1.1 3.6 2.7 8.1 4.3 13 4.3s9.4-1.6 13-4.3c-3.8.6-7.7 1-11.7 1.1.2 0-1.2 2.2-1.2 2.2z"/>
		<path d="M22 35.8c4.8-.2 9.2-.9 13.2-2l.8-.8c-4.4.9-8.7 1.4-13.2 1.5l-.8 1.3zm1.3-2.3c5.3-.2 10.2-1.2 14.2-2.6.2-.2.4-.6.5-.9-4.1 1-8.7 1.6-13.8 1.8l-.9 1.7zm1.7-2.8c5.4-.4 10.4-1.4 14.2-2.9.3-.6.5-1.4.8-2H28l-3 4.9zm3-16.5h12c-.2-.7-.5-1.4-.8-2-3.8-1.4-8.7-2.5-14.2-2.9l3 4.9zm-3.7-6.1c5 .2 9.7.9 13.7 1.8-.2-.3-.4-.6-.5-.9-4.1-1.4-8.9-2.3-14.2-2.6l1 1.7z"/>
	</g>
</svg>
