<svg viewBox="0 0 40 40" xmlns="http://www.w3.org/2000/svg">
	<path fill="#0100A0" d="M15.5021 28.0404c-1.7142 0-3.1052-1.393-3.1052-3.1135V3.11345C12.3969 1.39295 13.7879 0 15.5021 0c1.7143 0 3.1053 1.39295 3.1053 3.11345V24.9269c0 1.7188-1.391 3.1135-3.1053 3.1135zM24.3392 39.3545c-1.7143 0-3.1053-1.3929-3.1053-3.1134V14.4294c0-1.7188 1.3893-3.1135 3.1053-3.1135 1.7142 0 3.1053 1.393 3.1053 3.1135v21.8134c0 1.7188-1.3911 3.1117-3.1053 3.1117zM32.4972 29.4034c-1.4139 0-2.5608-1.1499-2.5608-2.5675v-7.7713c0-1.4176 1.1469-2.5675 2.5608-2.5675s2.5608 1.1499 2.5608 2.5675v7.7713c0 1.4176-1.1469 2.5675-2.5608 2.5675zM38.4367 22.2221c-.8642 0-1.5632-.7027-1.5632-1.5673v-2.5904c0-.8665.7008-1.5673 1.5632-1.5673.8641 0 1.5631.7026 1.5631 1.5673v2.5904c0 .8664-.699 1.5673-1.5631 1.5673zM7.50179 9.54321c1.41389 0 2.56081 1.14989 2.56081 2.56749v7.7713c0 1.4176-1.14692 2.5676-2.56081 2.5676s-2.56081-1.15-2.56081-2.5676v-7.7713c0-1.4176 1.14692-2.56749 2.56081-2.56749zM1.56318 16.7241c.86415 0 1.56319.7027 1.56319 1.5673v2.5904c0 .8665-.7008 1.5673-1.56319 1.5673C.699042 22.4491 0 21.7465 0 20.8818v-2.5904c0-.8664.700798-1.5673 1.56318-1.5673z"/>
</svg>
