<svg xmlns="http://www.w3.org/2000/svg" viewBox="0 0 40 40">
	<path fill="#e3000f" d="M36.9 22.7c-4.6 5.2-9.9 7.8-16.9 7.7-7 .1-12.3-2.5-16.9-7.7L0 26.5c2.6 2.7 5.7 4.8 9.1 6.3C12.5 34.3 16.2 35 20 35c3.7 0 7.4-.8 10.9-2.2 3.4-1.5 6.5-3.6 9.1-6.3l-3.1-3.8z"/>
	<path fill="#44413e" d="M31.5 20.8h3.8l-6.7-8.3L35 5.4h-3.5L26 11.8V5.4h-3v15.4h3v-7.7l5.5 7.7zM16.6 9.2c.9 1.1 1.4 2.5 1.4 3.9.1 1.4-.4 2.8-1.4 3.9-.5.5-1 .8-1.6 1.1-.6.3-1.3.4-1.9.4-.7 0-1.3-.1-1.9-.4-.6-.3-1.2-.6-1.6-1.1-.9-1.1-1.4-2.5-1.4-3.9-.2-1.4.3-2.8 1.3-3.9 1-.9 2.2-1.5 3.6-1.5 1.3 0 2.6.5 3.5 1.5zm4.1 7c.4-1 .6-2.1.6-3.2s-.1-2.1-.5-3.1-1-1.9-1.7-2.7c-1.6-1.5-3.7-2.3-5.8-2.3s-4.5.8-6 2.3c-.8.8-1.4 1.7-1.8 2.7-.4 1-.6 2.1-.6 3.2s.2 2.2.6 3.2c.4 1 1 1.9 1.8 2.7 1.6 1.5 3.7 2.3 5.8 2.3 2.2 0 4.3-.8 5.8-2.3.8-.9 1.4-1.8 1.8-2.8z"/>
</svg>
