<svg viewBox="0 0 40 40" xmlns="http://www.w3.org/2000/svg">
	<path fill="#FFD503" d="M18.644 10.3427v19.9791h-4.7046v-8.1915H4.70456v8.1915H0V10.3427h4.70456v7.8774h9.23484v-7.8774h4.7046zM31.6073 30.6641c-2.0716 0-3.9496-.4376-5.6339-1.3129-1.6649-.8943-2.9814-2.1216-3.9494-3.6819-.9487-1.5793-1.423-3.3584-1.423-5.3373 0-1.9788.4743-3.7484 1.423-5.3087.968-1.5793 2.2845-2.8066 3.9494-3.6818C27.6577 10.4472 29.5454 10 31.6363 10c1.7618 0 3.3494.3044 4.7626.9133 1.4327.6089 2.6331 1.4842 3.6011 2.6259l-3.0202 2.7399c-1.3746-1.5602-3.0783-2.3404-5.1112-2.3404-1.2583 0-2.3812.2759-3.3686.8277-.9874.5328-1.7618 1.2844-2.3233 2.2548-.5421.9704-.8131 2.074-.8131 3.3108 0 1.2369.271 2.3404.8131 3.3109.5615.9704 1.3359 1.7315 2.3233 2.2833.9874.5327 2.1103.7991 3.3686.7991 2.0329 0 3.7366-.7896 5.1112-2.3689L40 27.0964c-.968 1.1607-2.1684 2.0455-3.6011 2.6543-1.4326.609-3.0298.9134-4.7916.9134z"/>
</svg>
