<svg xmlns="http://www.w3.org/2000/svg" viewBox="0 0 40 40">
	<path fill="#FFCA8C" d="M27.7737 26.1942H8.21705L29.3437 4.92292c.2589-.26138.4027-.61645.3986-.98469V.971825c0-.85978-1.0315-1.303627-1.6373-.678952L.369076 28.2294c-.784976.7759-.234242 2.1214.866334 2.1214H25.4065c.365-.0033.7151-.1471.9765-.4027l2.0787-2.0927c.3781-.3855.3715-1.0036-.0131-1.3817-.1809-.1768-.4225-.277-.6749-.2795Z"/>
	<path fill="#1EAAA2" d="M37.3678.458197 13.7351 24.2652h5.8359L35.345 8.38181V35.8407H8.07678l3.52372-3.55H5.76463L.465523 37.6284c-.867972.8738-.247409 2.3714.977307 2.3714H37.6982c.9897-.0017 1.7911-.8055 1.7894-1.7951V1.34509C39.4737.222287 38.138-.332528 37.3678.458197Z"/>
</svg>