<svg viewBox="0 0 40 40" xmlns="http://www.w3.org/2000/svg">
	<path fill="#B50029" d="M20 0C8.96722 0 0 8.9673 0 20c0 11.0328 8.96722 20 20 20 11.0328 0 20-8.9672 20-20C40 8.91687 31.0328 0 20 0zm-2.3174 35.466c-7.5567-1.1083-13.40049-7.6574-13.40049-15.5163 0-7.859 5.79349-14.40813 13.40049-15.51644v7.35514h-2.9219c-2.3677 0-4.2821 1.9144-4.2821 4.2821v7.7078c0 2.3678 1.9144 4.2821 4.2821 4.2821h2.9219v7.4056zm-2.4685-11.6373c-.2519 0-.4534-.2015-.4534-.4534v-6.7506c0-.2519.2015-.4534.4534-.4534h9.5718c.2518 0 .4534.2015.4534.4534v6.7506c0 .2519-.2016.4534-.4534.4534h-9.5718zm7.1033 11.6373v-7.3551h2.9219c2.3677 0 4.2821-1.9144 4.2821-4.2822v-7.7078c0-2.3678-1.9144-4.2821-4.2821-4.2821h-2.9219V4.48363C29.8741 5.59194 35.7179 12.141 35.7179 20c-.0504 7.859-5.8438 14.3577-13.4005 15.466z"/>
</svg>
