<svg xmlns="http://www.w3.org/2000/svg" viewBox="0 0 40 40">
	<path fill="#00bef0" d="M20 0c-4 0-7.8 1.2-11.1 3.4s-5.9 5.3-7.4 9C0 16-.4 20 .4 23.9c.8 3.9 2.7 7.4 5.5 10.2 2.8 2.8 6.4 4.7 10.2 5.5s7.9.4 11.6-1.1c3.7-1.5 6.8-4.1 9-7.4C38.8 27.8 40 24 40 20c0-5.3-2.1-10.4-5.9-14.1C30.4 2.1 25.3 0 20 0zm-2.9 28.5l-1.5 4.3c-2.7-.9-5-2.7-6.7-5-1.7-2.3-2.5-5.1-2.5-8 0-2.9.9-5.7 2.6-8 1.7-2.3 4-4.1 6.7-5l1.5 4.3c-1.8.6-3.3 1.8-4.4 3.3-1.1 1.5-1.7 3.4-1.6 5.3-.1 1.9.4 3.8 1.5 5.4 1 1.6 2.6 2.8 4.4 3.4zM24 33l-1.4-4.4c1.8-.6 3.4-1.7 4.5-3.3 1.1-1.5 1.7-3.4 1.7-5.3s-.6-3.8-1.7-5.3c-1.1-1.6-2.7-2.7-4.5-3.3L24.1 7c2.7.9 5.1 2.7 6.8 5 1.7 2.4 2.6 5.2 2.6 8.1 0 2.9-1 5.7-2.7 8-1.6 2.3-4 4-6.8 4.9z"/>
</svg>