<svg xmlns="http://www.w3.org/2000/svg" viewBox="0 0 40 40">
	<path fill="#4fae2e" d="M11.2 20c0-1.8.5-3.5 1.5-4.9 1-1.5 2.4-2.6 4-3.3 1.6-.7 3.4-.8 5.1-.5 1.7.3 3.3 1.2 4.6 2.4s2.1 2.8 2.4 4.6c.3 1.7.2 3.5-.5 5.1-.7 1.6-1.8 3-3.3 4-1.5 1-3.2 1.5-4.9 1.5-2.4 0-4.6-.9-6.3-2.6-1.7-1.7-2.6-3.9-2.6-6.3z"/>
	<g fill="#016438">
		<path d="M26.2 8.8c0-1 .3-2 .9-2.8.6-.8 1.4-1.5 2.3-1.9.9-.4 2-.5 2.9-.3 1 .2 1.9.7 2.6 1.4.7.7 1.2 1.6 1.4 2.6.2 1 .1 2-.3 2.9-.4.9-1 1.7-1.9 2.3-.8.6-1.8.9-2.8.9-1.4 0-2.6-.5-3.6-1.5-.9-1-1.5-2.3-1.5-3.6z"/>
		<path d="M0 20C0 14.7 2.1 9.6 5.9 5.9 9.6 2.1 14.7 0 20 0v7.3c-2.5 0-5 .7-7.1 2.1-2.1 1.4-3.7 3.4-4.7 5.7-1 2.3-1.2 4.9-.7 7.4S9.2 27.3 11 29c1.8 1.8 4.1 3 6.6 3.5s5.1.2 7.4-.8c2.3-1 4.3-2.6 5.7-4.7 1.4-2.1 2.1-4.6 2.1-7.1H40c0 2.6-.5 5.2-1.5 7.7-1 2.4-2.5 4.6-4.3 6.5-1.9 1.9-4.1 3.3-6.5 4.3S22.7 40 20 40c-2.6 0-5.2-.5-7.7-1.5-2.4-1-4.6-2.5-6.5-4.3-1.9-1.9-3.3-4.1-4.3-6.5C.5 25.2 0 22.6 0 20"/>
	</g>
</svg>