<svg xmlns="http://www.w3.org/2000/svg" viewBox="0 0 40 40">
	<path fill="#009cde" d="M33.6 10.2c.5-3.1 0-5.2-1.7-7.1C30 1 26.7.1 22.4.1H10C9.1 0 8.4.6 8.2 1.5L3.1 34.3c-.1.7.4 1.3 1 1.3h7.7l-.5 3.4c-.1.6.3 1.1.9 1.1h6.5c.8 0 1.4-.6 1.5-1.3l.1-.3 1.2-7.7.1-.4c.1-.8.8-1.3 1.5-1.3h1c6.3 0 11.2-2.5 12.6-9.9.6-3.1.3-5.6-1.3-7.5-.5-.7-1.1-1.2-1.8-1.5z"/>
	<path fill="#012169" d="M33.6 10.2c.5-3.1 0-5.2-1.7-7.1C30 1 26.7.1 22.4.1H10C9.1 0 8.4.6 8.2 1.5L3.1 34.3c-.1.7.4 1.3 1 1.3h7.7l1.9-12.2-.1.4c.1-.9.9-1.5 1.8-1.5H19c7.2 0 12.8-2.9 14.4-11.3.1-.4.2-.6.2-.8z"/>
	<path fill="#003087" d="M15.8 10.2c.1-.5.4-.9.9-1.2.2-.1.4-.2.7-.2h9.7c1.2 0 2.2.1 3.2.2.3 0 .6.1.8.2.3.1.5.1.8.2.1 0 .2.1.4.1.5.2.9.3 1.3.6.5-3.1 0-5.2-1.7-7.1-1.9-2.1-5.2-3-9.5-3H10c-.9 0-1.6.6-1.8 1.5L3.1 34.3c-.1.7.4 1.3 1 1.3h7.7l1.9-12.2c0-.1 2.1-13.2 2.1-13.2z"/>
</svg>
