<svg viewBox="0 0 40 40" xmlns="http://www.w3.org/2000/svg">
	<g fill="#EF7F1A">
		<path d="M39.4219 22.088c-.8546.4797-2.7481.106-7.4973.2676-1.9447.0657-5.3633-.0353-7.9375-.106-1.6478-.0455-1.6734-4.2419.0819-4.3732 4.1043-.303 8.4799.1111 11.5608.0202-.696-5.1761-4.5906-10.34205-9.3653-12.17009-5.1177-1.95933-10.0869-.90392-13.398.97462-2.3541 1.33315-4.17598 3.48437-6.46868 3.57027-.91606.0353-2.03683-.30808-2.0266-2.09067C4.38146 6.1608 11.9249 0 19.5399 0c11.0285 0 19.9895 7.6303 20.358 17.8764.046 1.2827.3787 3.7318-.476 4.2116z"/>
		<path d="M.578798 17.9171c.854642-.4798 2.748152-.1061 7.497322-.2677 1.94468-.0656 5.36328.0354 7.93748.1061 1.6479.0454 1.6735 4.2418-.0819 4.3731-4.1043.303-8.47993-.1111-11.56075-.0202.696 5.1761 4.59055 10.3421 9.36535 12.1701 5.1176 1.9594 10.0868.9039 13.3979-.9746 2.3541-1.3332 4.176-3.4844 6.4687-3.5702.916-.0354 2.0368.308 2.0266 2.0906C35.6141 33.8392 28.0707 40 20.4557 40 9.42717 40 .466209 32.3697.0977388 22.1236.0567977 20.846-.275847 18.3968.578798 17.9171zM20.0006 7.91357c1.2539 0 2.2825 1.01502 2.2825 2.25223v4.9135c0 1.2372-1.0286 2.2522-2.2825 2.2522-1.2538 0-2.2824-1.015-2.2824-2.2522v-4.9135c-.0052-1.23721 1.0235-2.25223 2.2824-2.25223z"/>
		<path d="M20.0006 23.27c1.2539 0 2.2825 1.015 2.2825 2.2522v4.9135c0 1.2372-1.0286 2.2523-2.2825 2.2523-1.2538 0-2.2824-1.0151-2.2824-2.2523v-4.9135C17.713 24.28 18.7417 23.27 20.0006 23.27z"/>
	</g>
</svg>
