<svg viewBox="0 0 40 40" xmlns="http://www.w3.org/2000/svg">
	<path fill="#C11F3E" d="M33.5845 22.1559c-1.5239.6889-3.4914 2.479-3.4914 2.479s.1044-.7829.1565-1.1482c.3132-2.1919.9916-4.3316 1.7223-6.4191 1.2525-3.3923 3.7053-7.93266.574-8.61111-1.2003-.26094-2.5572-.10437-2.5572-.10437s.4175-1.93097 2.0875-2.13973c1.1482-.15656 3.3923-.26094 4.8536-.36531 2.6094-.20876 3.4444-1.56565 2.9225-3.18349-.8872-2.557229-6.0538-1.51346-12.5774-1.09596-7.1498.4697-14.8215 1.8266-16.9612 2.45286C6.60834 5.11644 4.88613 5.95145 5.14707 7.5171c.26094 1.87878 2.50504 1.77441 4.48819 1.40909 1.61784-.31313 6.26264-1.20033 9.44614-1.61784 4.5403-.57407 6.5235-.73064 6.5235-.73064s-2.1919 6.52359-4.436 12.57739c-.9394 2.5572-2.8704 7.8804-4.9057 11.4814-1.2004 2.0354-2.7138 3.2879-5.6885 3.3401-3.54885.0522-5.74076-2.2963-6.62796-5.3754-.73064-2.6094-.10438-5.3754 2.03534-6.3148 1.98316-.9394 4.22722-.1044 4.22722-.1044s-.1043.5219-.78279.7828c-.36532.1044-1.72221.3654-1.93097.4697-.78282.261-1.40908 1.4091-.36532 2.6095 1.61784 1.7744 4.64478 1.3569 6.21038.2087 1.5657-1.1481 2.8182-3.8619 1.9832-6.0016-.835-2.1398-3.4966-2.766-6.10604-2.766-4.07069.0522-7.09761 1.8266-8.402322 4.7491-1.25252 2.8704-1.25252 7.8283 1.356892 11.4814 2.34848 3.3401 6.41917 4.5404 9.18517 4.3839 2.4528-.1044 4.5926-.8872 6.2104-2.2441 2.2963-1.931 4.1751-5.8973 6.0538-10.7508 1.8266-4.5404 3.3401-8.7677 3.3401-8.7677s-.7828 4.1229-1.1482 6.7845c-.4697 3.601-.3653 6.4714-.1043 7.3586.3131 1.0959 1.2003 1.7222 2.1919 1.8787 1.0437.1566 1.67-.6262 2.4006-1.5656 2.6095-3.2879 3.0374-3.2148 4.2273-4.0707 2.6303-1.8892 1.4821-5.6624-.9446-4.5665z"/>
</svg>
