<svg xmlns="http://www.w3.org/2000/svg" viewBox="0 0 40 40">
	<path fill="#9d2235" d="M40 0H0v40h40V0z"/>
	<g fill="#fff">
		<path d="M22.9 19.8v.4c2 1.4 4.2 2.4 6.4 2.5 1.2 0 4.6-.3 4.6-2.4 0-2-2.6-2.6-3.8-2.7-2.4-.3-5.4.4-7.2 2.2zm9.4.3c0 1.2-2.9 1-3.5 1-1.3-.1-2.6-.5-3.8-1.2v-.1c1.3-.7 2.7-1 4.3-.9.8 0 3 .3 3 1.2zm-22.2-2.6c-1.2.1-3.8.8-3.8 2.7 0 2.1 3.4 2.5 4.6 2.4 2.2-.1 4.4-1 6.4-2.5v-.4c-2-1.7-5-2.4-7.2-2.2zm4.9 2.4c-1.2.7-2.5 1-3.8 1.2-.7.1-3.4.1-3.5-1 0-1 2.4-1.2 3-1.3 1.5 0 2.9.4 4.3 1.1zm5.1.9h-.3c-1 .9-1.7 2.4-1.8 3.9 0 1.4.4 3 1.7 3.4h.5c1.3-.4 1.8-2 1.7-3.4-.1-1.5-.7-2.9-1.8-3.9zm.3 5.1l-.3.4H20l-.4-.4c-.1-.3-.1-.5-.3-.8 0-.4 0-.7.1-1 .1-.4.3-.8.5-1.2.3.4.4.8.5 1.2.1.4.1.7.1 1 0 .5 0 .6-.1.8zm-.4-9.5h.1c1.2-1.8 1.8-4.1 2.1-6.3-.8 0-1.4-.1-2.2-.1s-1.4 0-2.2.1c.3 2.2.9 4.4 2.1 6.3h.1zm0-4.8h.7c-.1.8-.3 1.7-.7 2.4h-.1c-.4-.7-.5-1.6-.7-2.4h.8z"/>
		<path d="M21.2 17.8l.7-.1c2.4-1 4.7-1.6 7.1-1.7 3.3 0 5.1.9 6.7 3.5l.3-.1c-.3-5.9-6.8-8-11.9-9-.4 2.5-1 4.7-2.4 6.8-.1 0-.5.6-.5.6zm3.6-5.6c2 .4 4.4 1 6.1 2.4v.1c-2.2-.4-4.7 0-6.8.5v-.1c.3-1 .6-2 .7-2.9zM11.1 16c2.5 0 4.8.7 7.2 1.7l.5.3.1-.1-.4-.7c-1.2-2.1-2-4.3-2.4-6.8-4.6.7-11.9 3.3-11.9 9l.3.1c1.1-2.6 3.7-3.5 6.6-3.5zm4.1-3.8c.1 1 .4 2 .8 2.9l-.1.1c-2.1-.5-4.7-.9-6.8-.5v-.1c1.6-1.3 4.1-2 6.1-2.4zm14.2 12c-2.1 0-3.9-.8-5.9-1.8l-.1.3c1 2.7.8 5.9-2 6.9l.1.4c4.1-.1 13.1-2.2 14.2-8.4l-.4-.3c-1.3 2-3.3 2.9-5.9 2.9zM24.8 28c.1-.5.3-1 .3-1.6v-1.6c.9.4 2 .7 2.9.8.9.1 2.4.1 3.1 0v.1c-1.8 1.3-4.2 1.9-6.3 2.3zm-8.1-5.3l-.3-.4c-1.8 1-3.8 1.8-5.9 1.8-2.4.1-4.3-.8-6-2.9l-.4.3c1.3 6.4 10.2 8.4 14.2 8.5l.1-.4c-2.5-1-2.7-4.2-1.7-6.9zm-7.8 3.1c.9 0 2.4 0 3.1-.1 1-.1 2-.4 2.9-.8v1.6c0 .5.1 1 .3 1.6-2-.5-4.5-1.1-6.3-2.3z"/>
	</g>
</svg>
