<svg xmlns="http://www.w3.org/2000/svg" viewBox="0 0 40 40">
	<path fill="#058b8c" d="M40 0H0v40h40V0z"/>
	<g fill="#fff">
		<path d="M20.3 20.7h-.2c-.9.9-1.5 2.1-1.6 3.5 0 1.3.4 2.7 1.6 3.1h.4c1.2-.3 1.6-1.8 1.6-3.1-.2-1.4-.8-2.6-1.8-3.5zm.3 4.6-.3.3h-.2l-.3-.3c-.1-.2-.1-.4-.2-.7 0-.3 0-.6.1-.9.1-.4.2-.7.4-1.1.2.3.3.7.4 1.1.1.3.1.6.1.9.1.3.1.5 0 .7zM28.7 23.7c-1.9 0-3.6-.7-5.3-1.7l-.2.3c.9 2.5.7 5.3-1.7 6.2l.1.4c3.7-.1 11.8-2 12.9-7.6l-.3-.2c-1.3 1.9-3.1 2.7-5.5 2.6zm-4.1 3.5c.1-.4.2-.9.3-1.4V24.4c.9.3 1.7.6 2.6.7.8.1 2.1.1 2.8 0v.1c-1.6 1-3.9 1.6-5.7 2zM17.2 22.4l-.2-.3c-1.6 1-3.4 1.6-5.3 1.7-2.1.1-3.9-.7-5.4-2.5l-.3.1c1.1 5.7 9.2 7.6 12.9 7.6l.1-.4c-2.5-.9-2.7-3.7-1.8-6.2zm-7.1 2.8c.8 0 2.1 0 2.8-.1.9-.1 1.8-.4 2.6-.7V25.8c0 .5.1 1 .3 1.4-1.8-.4-4-1-5.7-2zM21.3 18l.1.1.5-.2c2.1-1 4.2-1.4 6.4-1.5 3 0 4.7.8 6 3.2l.2-.2c-.2-5.3-6.2-7.3-10.8-8.1-.3 2.3-1 4.3-2.1 6.1l-.3.6zm3.3-5.1c1.8.4 4.1 1 5.5 2.1v.1c-1.9-.3-4.3 0-6.2.5v-.1c.3-.9.6-1.7.7-2.6zM12.2 16.3c2.2 0 4.3.6 6.4 1.5l.5.2.1-.1-.3-.6c-1.1-1.9-1.8-3.9-2.1-6.1-4.1.6-10.7 3-10.8 8.1l.2.2c1.1-2.3 3.4-3.2 6-3.2zm3.7-3.4c.1.9.4 1.7.7 2.6l-.1.1c-1.9-.5-4.2-.8-6.1-.5V15c1.4-1.2 3.7-1.7 5.5-2.1zM20.4 16.7c1.1-1.6 1.6-3.6 1.9-5.7-.6 0-1.3-.1-2-.1s-1.3 0-2 .1c.3 2.1.8 4 1.9 5.7h.2zm-.1-4.4h.6c-.1.7-.3 1.5-.6 2.1h-.1c-.3-.6-.5-1.4-.6-2.1h.7z"/>
		<path d="M22.8 19.8v.3c1.7 1.2 3.8 2.2 5.7 2.2 1.1 0 4.1-.2 4.2-2.2 0-1.7-2.4-2.3-3.5-2.4-2-.2-4.7.5-6.4 2.1zm8.6.2c0 1-2.6 1-3.1.9-1.2-.1-2.4-.5-3.5-1.1v-.1c1.2-.6 2.5-.9 3.8-.9.7.1 2.8.3 2.8 1.2zM11.3 17.7c-1 .1-3.5.7-3.5 2.4 0 1.9 3.1 2.2 4.2 2.2 1.9-.1 4-1 5.7-2.2v-.3c-1.7-1.6-4.4-2.3-6.4-2.1zm4.4 2.2c-1.1.6-2.3 1-3.5 1.1-.5 0-3.1.1-3.1-1 0-.9 2.1-1.1 2.7-1.1 1.3 0 2.6.3 3.8.9v.1z"/>
	</g>
</svg>