<svg viewBox="0 0 40 40" xmlns="http://www.w3.org/2000/svg">
<path fill="#B49F64" d="M40 34.9854C40 37.7259 37.7745 40 35.022 40H4.97804C2.22548 39.9417 0 37.7259 0 34.9854V5.01458C0 2.27405 2.22548 0 4.97804 0H34.9634c2.7526 0 4.978 2.27405 4.978 5.01458V34.9854H40z"/>
<path fill="#fff" d="M19.971 17.4925c1.4056 0 2.5183 1.1079 2.5183 2.5073 0 1.3994-1.1127 2.5073-2.5183 2.5073s-2.5183-1.1079-2.5183-2.5073c.0586-1.3994 1.1713-2.5073 2.5183-2.5073zm3.7482-5.0145c-1.4056 0-2.5183 1.1078-2.5183 2.5072 0 1.3995 1.1127 2.5073 2.5183 2.5073 1.4055 0 2.5183-1.1078 2.5183-2.5073 0-1.3994-1.1128-2.5072-2.5183-2.5072zm-7.4964 0c-1.4055 0-2.5183 1.1078-2.5183 2.5072 0 1.3995 1.1128 2.5073 2.5183 2.5073 1.4056 0 2.5183-1.1078 2.5183-2.5073 0-1.3994-1.1127-2.5072-2.5183-2.5072zm11.2445-5.01462c1.4056 0 2.5183 1.10787 2.5183 2.50729 0 1.39943-1.1127 2.50733-2.5183 2.50733-1.4055 0-2.5183-1.1079-2.5183-2.50733.0586-1.39942 1.1713-2.50729 2.5183-2.50729zm-7.4963 0c1.4056 0 2.5183 1.10787 2.5183 2.50729 0 1.39943-1.1127 2.50733-2.5183 2.50733s-2.5183-1.1079-2.5183-2.50733c.0586-1.39942 1.1713-2.50729 2.5183-2.50729zm-4.978 2.50729c0 1.39943-1.1128 2.50733-2.5183 2.50733-1.4056 0-2.51834-1.1079-2.51834-2.50733 0-1.39942 1.11274-2.50729 2.51834-2.50729 1.4055 0 2.5183 1.10787 2.5183 2.50729zm8.7262 12.47813c-1.4056 0-2.5183 1.1079-2.5183 2.5073 0 1.3994 1.1127 2.5073 2.5183 2.5073 1.4055 0 2.5183-1.1079 2.5183-2.5073 0-1.3411-1.1128-2.5073-2.5183-2.5073zm-7.4964 0c-1.4055 0-2.5183 1.1079-2.5183 2.5073 0 1.3994 1.1128 2.5073 2.5183 2.5073 1.4056 0 2.5183-1.1079 2.5183-2.5073 0-1.3411-1.1127-2.5073-2.5183-2.5073zm11.2445 5.0146c1.4056 0 2.5183 1.1079 2.5183 2.5073 0 1.3411-1.1127 2.5073-2.5183 2.5073-1.4055 0-2.5183-1.1662-2.5183-2.5073.0586-1.3994 1.1713-2.5073 2.5183-2.5073zm-7.4963 0c1.4056 0 2.5183 1.1079 2.5183 2.5073 0 1.3411-1.1127 2.5073-2.5183 2.5073s-2.5183-1.1662-2.5183-2.5073c.0586-1.3994 1.1713-2.5073 2.5183-2.5073zm-7.4963 0c1.4055 0 2.5183 1.1079 2.5183 2.5073 0 1.3411-1.1128 2.5073-2.5183 2.5073-1.4056 0-2.51834-1.1662-2.51834-2.5073.05854-1.3994 1.17134-2.5073 2.51834-2.5073z"/>
</svg>
