<svg xmlns="http://www.w3.org/2000/svg" viewBox="0 0 40 40">
	<g fill="#ec6608">
	<path d="M23 31.6h8.5l1.7-4.6h-6.5c-.9 1.8-2.2 3.3-3.7 4.6zM28.1 22.7zM28.3 20.3c0 .1 0 .1 0 0 0 .1 0 .1 0 0 0 .9-.1 1.7-.2 2.4h6.8l1.7-4.6h-8.5c.2.8.2 1.5.2 2.2zM23.2 9.4c1.5 1.3 2.7 2.8 3.6 4.6h11.5L40 9.4H23.2z"/>
	<path d="m9.1 31.6 1.7-4.6h15.8c.7-1.3 1.2-2.8 1.4-4.3H12.5l1.7-4.6h13.9c-.2-1.5-.7-3-1.3-4.3H15.9l1.7-4.6h5.6c-2.4-1.9-5.6-3.2-9-3.2C6.3 6 0 12.4 0 20.4c0 7.9 6.3 14.4 14.2 14.4 3.3 0 6.4-1.2 8.8-3.2H9.1z"/>
	</g>
</svg>