<svg viewBox="0 0 40 40" xmlns="http://www.w3.org/2000/svg">
	<path fill="#FF8C00" d="M31.7494 26.9114c.1163.7805-.1292 1.1035-.3773 1.1035-.2688 0-.6099-.3153-1.0079-.9407-.3955-.6151-.5376-1.3206-.3438-1.6799.1292-.2351.4006-.3385.7418-.2093.659.2507.9174 1.2612.9872 1.7264zm-3.6518 1.7005c.7909.6694 1.0312 1.4654.6125 2.0262-.2326.3075-.6099.4781-1.0622.4781-.4445 0-.8967-.1654-1.2095-.4393-.7184-.628-.9303-1.6489-.46-2.2278.1835-.2274.4807-.3515.84-.3515.4341 0 .889.1835 1.2792.5143zm-1.3232 6.4585c3.4088 0 7.1071 1.1681 11.2008 4.7966.4109.3644.9562-.0879.5996-.5401-4.0239-5.081-7.7455-6.0475-11.4567-6.8642-4.5382-1.0002-6.8745-3.5536-8.5026-6.3602-.3231-.5583-.4678-.4601-.4988.2584-.0362.8761.0258 2.0391.2222 3.1788-.1835.0078-.367.0052-.553.0052-6.4946 0-11.75907-5.2644-11.75907-11.759S11.2913 6.02683 17.7859 6.02683c6.4946 0 11.759 5.26447 11.759 11.75907 0 .4626-.0233.92-.075 1.3671-.858-.1551-2.5482-.1731-3.7344-.0698-.4471.0388-.3825.2456-.0465.3076 3.8869.7029 6.5566 3.1116 7.1691 7.4818.0129.1008.1447.1318.1964.044 1.5998-2.6697 2.5172-5.7917 2.5172-9.1307C35.5769 7.96513 27.6118 0 17.7884 0 7.96513 0 0 7.96513 0 17.7884c0 9.8234 7.96513 17.7885 17.7884 17.7885 2.6051 0 5.1921-.5065 8.986-.5065z"/>
</svg>
