<svg viewBox="0 0 40 40" xmlns="http://www.w3.org/2000/svg">
	<path fill="#FFED00" d="M1.32001 1.31995H38.64V38.6399H1.32001V1.31995z"/>
	<g fill="#000">
		<path d="M40 40H0V0h40v40zM38.68 1.32H1.32v37.32h37.32V1.32h.04z"/>
		<path d="M20 24.56L8.51999 36l-4.52-4.52L15.44 20 13 17.6v-4.72l-1.6-1.68v4.12l-1.40001 1.44-5.88-5.76-1.44 1.4c.02532-2.58136 1.0589-5.05046 2.88-6.88005 2.88-2.76 6.00001-1.52 7.00001-.44L18.4 10.92 17 12.4l3 3 3.08-3.08-1.48-1.44 5.8-5.88005c.9911-.85981 2.2805-1.29555 3.5901-1.21324 1.3095.08232 2.5342.67609 3.4099 1.65324 1.826 1.82973 2.8725 4.29546 2.92 6.88005l-1.44-1.44-5.8 5.92-1.44-1.44V11.2L27 12.88v4.72L24.56 20 36 31.48 31.52 36 20 24.56z"/>
	</g>
</svg>
