<svg viewBox="0 0 40 40" xmlns="http://www.w3.org/2000/svg">
	<path fill="#00863E" d="m40 27.0066-.3119-2.4669c-.3689-4.1456-1.8871-8.1048-4.3851-11.4337-2.1821-2.7116-5.0542-4.78372-8.3158-6.00035V0l-2.419.264035C20.4096.634202 16.4388 2.16276 13.106 4.67756c-2.7103 2.18088-4.78631 5.04902-6.00941 8.30674H0l.292509 2.4669c.37405 4.1521 1.910371 8.1139 4.431641 11.4338 2.17959 2.7154 5.05291 4.7927 8.31585 6.0094V40l2.4565-.2925c4.1443-.3715 8.1036-1.8897 11.4338-4.3851 2.7154-2.1795 4.7927-5.0529 6.0094-8.3158H40ZM24.1631 31.855c-1.9945 1.5195-4.3074 2.5666-6.7653 3.0623v-14.619h-4.4031v7.7774c-1.8845-.9345-3.54251-2.2702-4.85751-3.9126-1.51302-1.9971-2.55622-4.31-3.05193-6.7653H19.712v-4.4135h-7.7864c.9345-1.8819 2.2702-3.53729 3.9126-4.84711 1.9919-1.51561 4.3022-2.5588 6.7562-3.05193V19.8932h4.4135v-7.9767c1.8819.9358 3.536 2.2702 4.8471 3.9127 1.5169 1.9945 2.5614 4.3086 3.052 6.7652H20.42v4.4135h7.6544c-.9345 1.8806-2.2702 3.536-3.9113 4.8471Z"/>
</svg>