<svg xmlns="http://www.w3.org/2000/svg" viewBox="0 0 40 40">
	<path fill="#0039a6" d="M28.4 14.2L26.7 16l9.8 9.8H40L28.4 14.2zm-19.6 0H0v11.7h3v-3.1h6.5s3.2-.3 3.3-4c0-4.4-3.7-4.6-4-4.6zm-.7 5.6H3v-2.6h5.2c.2 0 .4 0 .6.1.2.1.3.1.5.2s.3.3.3.4.1.3.1.5c.1 1.5-1.6 1.4-1.6 1.4zm5.8-.7h2.9V22h-2.9v-2.9zm2.9-5l9.5 9.5 1.7-1.8-7.8-7.8-3.4.1zm-4.1 0l11.6 11.6 1.7-1.8-9.8-9.8h-3.5zm23.2 11.6l-9.5-9.5-1.8 1.8 7.8 7.8 3.5-.1z"/>
	<path fill="#d52b1e" d="M39.3 25.5h-2.8L33 22h2.8c1.9 1.8 3.4 3.4 3.5 3.5zM25.1 22l1.2 1.2 1.2-1.2h-2.4zm10.1 3.5c-.1-.2-1.7-1.7-3.5-3.5H29l3.5 3.5h2.7zM23.7 22h-2.8l3.4 3.4 1.4-1.4-2-2z"/>
	<path fill="#fff" d="M13.2 14.4h2.9l3.7 3.6h-2.9c-2-2-3.7-3.6-3.7-3.6zm14.4 3.5h-2.5l1.3-1.2 1.2 1.2zm-10.2-3.5h2.8l3.6 3.5H21c-1.9-1.8-3.6-3.5-3.6-3.5zm14.5 3.5l-3.4-3.4L27 16l2 2 2.9-.1z"/>
</svg>
