<svg xmlns="http://www.w3.org/2000/svg" viewBox="0 0 40 40">
	<path fill="#384A97" d="M28.5363 1.91901c3.9737 1.87745 7.2185 5.01148 9.2333 8.91669l.022.0216c1.5675 3.0477 2.3231 6.4475 2.1943 9.8719-.6802-.0112-1.3715-.044-2.0573-.0938-2.1174-1.3765-15.437-9.6791-15.437-9.6791-.2304-.1518-.4976-.2389-.7735-.2523-.1865.0126-.3701.0491-.5462.1094-.1121.0387-.2211.0864-.326.1429-5.3156 2.4351-10.615 5.2259-13.81863 6.921-.21204.0171-.42426.032-.635.0476-.13273.0104-.26491.0216-.39634.0343C6.8627 17.1641 18.7175 6.74438 19.9135 6.66771c1.0531.08784 11.7669 9.04849 12.0248 9.27929 0 0-8.7774-9.32322-11.0594-10.46963-.3031-.17643-.633-.30224-.9764-.37296-.3422.067-.6704.19132-.9711.36775C16.2544 6.62378 2.66064 18.3924 2.66064 18.3924S.883156 18.7378 0 18.941c.234007-4.3876 1.90649-8.5765 4.75906-11.91969C7.61182 3.67884 11.4861 1.36814 15.7834.445797c4.2974-.922344 8.7791-.4049679 12.7529 1.473213Zm-6.8455 9.93069c-.9162 0-9.677 4.4806-12.36498 5.8407 7.19738-.5866 12.69968.2576 19.46908 1.6065 1.1514.2278 2.3553.4571 3.5911.6603 1.025.169 2.072.3201 3.129.437-3.5384-2.5832-12.8972-8.5609-13.8187-8.5609l-.0055.0164Zm17.6203 10.2619c-3.6146.1831-7.2382.0476-10.8289-.4058-7.7349-.8776-14.5537-1.4263-20.4893-.0774-2.64165.565-5.16192 1.5938-7.444278 3.0388.34589 1.4062.840528 2.7722 1.475708 4.0742 1.7557-1.0876 3.65084-1.9325 5.63385-2.5117 4.22402-1.2499 8.74422-1.3653 13.39622-.9811.8979.0737 1.7932.1533 2.6882.233 4.2948.3811 8.5868.7615 13.1493.5069.3142-.0149.6268-.0342.9373-.0573l.3582-.029c.3161-.0276.6303-.0588.9427-.0946.3735-1.2231.6305-2.4797.7679-3.7511l-.5484.0439-.0385.0112Zm-8.3385 10.5507c1.7027-.0395 3.3949-.2784 5.0415-.7132 1.0062-1.3526 1.8374-2.8265 2.4741-4.3869-.801.1474-1.6458.274-2.4577.3782-2.9295.3655-5.9688.0864-9.0075-.1928-3.2606-.3-6.5207-.6-9.6441-.1035-3.0533.4169-5.974 1.5127-8.54678 3.2085-1.20075.8263-2.2777 1.8201-3.19828 2.9502 1.1652 1.1084 2.39815 2.1432 3.69198 3.0983 2.50688-2.6926 6.20988-4.5515 12.06878-4.815 1.8238-.0826 3.4278.0946 5.02.2702 1.4679.1623 2.9256.3231 4.5361.2785l.0219.0275Zm-3.39 1.608c1.1687.0111 2.3715.0223 3.7303-.1162 1.1537-.1176 2.2952-.3342 3.4122-.6469-2.4195 2.6398-5.5033 4.5827-8.9296 5.6257-3.4264 1.0421-7.0699 1.1471-10.5504.3029.3289-.5933.7267-1.1456 1.1849-1.6451 1.2769-1.2842 2.8555-2.2274 4.5915-2.7425 2.5307-.8159 4.4927-.7973 6.5611-.7779Z"/>
</svg>