<svg viewBox="0 0 40 40" xmlns="http://www.w3.org/2000/svg">
	<path fill="#4D4D4D" d="M20.0006 13.0617l.1715-.0472C11.635 15.6638 4.88117 20.202 4.74199 23.5348c-.14788 3.5677 7.33791 4.4053 16.71751 1.8702 9.3784-2.5337 17.1052-7.4833 17.2531-11.0509.0771-1.8479-1.8988-2.9638-5.1235-3.2571C37.5308 11.2735 40 12.423 40 14.4734c0 3.9094-8.9558 9.6169-19.9994 12.7484C8.9571 30.3508 0 29.7183 0 25.8089s8.9571-9.6169 20.0006-12.7472z"/>
	<path fill="#F01941" d="M4.33936 33.6166L32.0656 7l-2.5139 20.9239-4.5842-5.249L4.33936 33.6166z"/>
</svg>
