<svg viewBox="0 0 40 40" xmlns="http://www.w3.org/2000/svg">
	<path fill="#941114" d="M24.4293 17.79v3.7617c.6312-.0067 1.257.1174 1.838.3645.5809.2471 1.1043.6119 1.5372 1.0713.4329.4595.766 1.0036.9782 1.5982.2122.5945.2989 1.2266.2547 1.8563.0415.6576-.0731 1.3157-.3346 1.9204-.2616.6048-.6625 1.1391-1.17 1.5592-1.5973 1.0884-3.5368 1.5565-5.4546 1.3166H11.6393V35h10.4765c2.0199.001 4.0247-.3491 5.9248-1.0345 1.2776-.5389 2.4066-1.3776 3.2915-2.4451 1.1719-1.3276 1.8379-3.026 1.8809-4.7963.0632-1.1738-.1183-2.348-.533-3.448-.4147-1.1001-1.0535-2.1019-1.8758-2.9419-.8224-.8401-1.8104-1.5-2.9013-1.938-1.091-.438-2.261-.6444-3.436-.6062h-.0376zM30.2976 5H11.6769v3.76175h18.6207V5z"/>
	<path fill="#C29A5B" d="M22.116 17.79h-6.6771v-6.7712h-3.7618v6.6771H5v3.7618h6.6771v6.6771h3.7618v-6.6771h6.6771V17.79z"/>
</svg>
