<svg viewBox="0 0 40 40" xmlns="http://www.w3.org/2000/svg">
	<path fill="#CD1F45" d="M39.92 19.7V19c-.52-3.84-4-7.59-7.11-9-1.9255-.97843-4.0065-1.61457-6.15-1.88-1.5775-.1861-3.1161-.618-4.56-1.28l-.36-.24c-.12-.08-.24-.12-.36-.2-.705-.52666-1.349-1.1304-1.92-1.8-.3179-.39243-.5865-.8223-.8-1.28L18.5 3v16.86h1.8v-12c.305.28855.6403.54335 1 .76 1.4631.64758 3.0127 1.07876 4.6 1.28 1.9006.2792 3.7628.7757 5.55 1.48 4 1.8 6.39 6 6.67 8.35v3H21.74v8.39c.5224.002 1.0441-.0381 1.56-.12h.16v-6.62H40v-1.72c0-.88 0-2-.08-3"/>
	<path fill="#073D59" d="M18.46 23.26c-1.5969.0613-3.1875.2351-4.76.52-.92.16-1.84.4-2.72.64-.4.12-.84.28-1.24.44-.16-.44-.28-.84-.4-1.24v-.16c-.15226-.6325-.2658-1.2736-.34-1.92h9.47l-.01 1.72zm0 8.71h-.12c-.32-.08-.68-.12-1-.24-.7787-.2042-1.5305-.4996-2.24-.88-.4762-.2393-.9283-.524-1.35-.85-1.0569-.7295-1.9662-1.6524-2.68-2.72-.1606-.2173-.3076-.4444-.44-.68.08 0 .16 0 .24-.08.0602-.0097.116-.0376.16-.08.8-.24 1.72-.52 2.68-.72 1.5583-.2969 3.1355-.484 4.72-.56V32l.03-.03zm-7.39-1.44c-.6008-.2193-1.18839-.4731-1.75999-.76L9.07 29.65c-.48-.24-1-.48-1.44-.76 0 0-.12 0-.16-.12-.04-.12.08-.12.16-.2l.12-.16c.28483-.2786.59258-.5329.92-.76 0 0 .08 0 .12-.08.01893-.0082.03936-.0125.06001-.0125.02064 0 .04107.0043.05999.0125.07559.1009.1425.2079.2.32.05751.1122.12442.2192.20001.32.52038.7592 1.10949 1.4689 1.75999 2.12.0699.1016.1503.1955.24.28-.0798.0069-.1601.0069-.24 0v-.08zM6.23 27.1c-.12353.1807-.25707.3543-.4.52-.28-.24-.56-.48-.8-.72-1.59559-1.377-2.65728-3.2704-3-5.35H7c.07316 1.0148.24735 2.0198.52 3 .12043.4115.28121.8101.48 1.19l-.2.12-.2.12c-.49948.3177-.95938.6937-1.37 1.12zm-3.79999-8.83c.26619-.7908.65786-1.5336 1.15999-2.2.44593-.6.94097-1.1619 1.48-1.68.11647-.0964.22361-.2035.32-.32.10309-.083.19696-.1769.28-.28.53884.6442 1.18921 1.1862 1.92 1.6h.08l.28.16c-.12.32-.28.72-.4 1.12v.16c-.07999.32-.2.64-.24.92-.14409.6429-.24763 1.2942-.31 1.95H2.00001c.07253-.4906.19311-.9729.35999-1.44l.07001.01zM7.28 12.55c.08863-.0391.16983-.0932.24-.16.52-.32 1-.56 1.56-.84h.12c.44239-.2239.8964-.4242 1.36-.6l.4-.16h.12l-.2.2c-.6646.6528-1.25492 1.3772-1.76 2.16-.08.12-.16.28-.24.4l-.23999.36c-.38599-.2591-.73864-.5647-1.05001-.91-.13205-.1219-.25256-.2558-.36-.4.04373-.0206.08417-.0475.12-.08l-.07.03zM39.2 25.78H24.7v1.72h10c-.3852.3669-.7999.7013-1.24 1-3.9267 2.4161-8.46 3.6648-13.07 3.6V21.54H37V19.7H9c0-.52.12-1 .2-1.48 0-.16.08-.36.12-.52.10369-.4484.23733-.8894.40001-1.32l.23999.08c.3259.1288.6599.2357 1 .32.8882.2761 1.7981.4768 2.72.6h.24c.68.12 1.48.24 2.36.32.68.08 1.4.08 2.16.12v-2c-.6684-.0021-1.3361-.0422-2-.12-.76-.08-1.52-.16-2.24-.28-.1761-.0036-.3509-.0305-.52-.08-.91-.1549-1.8062-.3823-2.68-.68-.12 0-.24 0-.32-.08-.08-.08-.08 0-.12 0L11 14c.0308-.0717.0712-.139.12-.2.7465-1.0404 1.6507-1.9581 2.68-2.72 1.3393-.9518 2.8785-1.58463 4.5-1.84997h.16v-2h-.16c-.0518-.0183-.1082-.0183-.16 0-1.4766.11856-2.9455.31887-4.4.6-.9258.1967-1.8351.46415-2.72.8-.6006.17282-1.18866.38666-1.76.64-.57567.2475-1.1366.52796-1.68.83997-.89431.5055-1.75601 1.0666-2.58 1.68-1.14624.8888-2.15686 1.9398-2.99999 3.12-.59934.832-1.071195 1.7488-1.400005 2.72-.327775.967-.5032035 1.9791-.52 3C.00000498 23.9 1.76 27 5 29.49c.19332.1238.38023.2573.56.4.2.12.36.28.56.4.36.2.72.44 1.08.64.12787.0888.2615.169.4.24.48.24 1.00001.48 1.44.68l.24.12c.57311.2603 1.1608.4874 1.76.68.88.28 1.8.56 2.72.76 2.1228.4821 4.2932.7236 6.47.72 5.059.0988 10.0355-1.2922 14.31-4 .734-.4783 1.4294-1.0132 2.08-1.6.9161-.844 1.7841-1.7388 2.6-2.68l-.02-.07z"/>
</svg>
