<svg viewBox="0 0 40 40" xmlns="http://www.w3.org/2000/svg">
	<path fill="#21DBBC" d="M14.9395 14.3613c0-2.4204 1.9521-4.3579 4.3717-4.3579 2.4183 0 4.3926 1.9368 4.3926 4.3363 0 2.3995-1.9528 4.3364-4.3926 4.3364-2.4203.0222-4.3717-1.9146-4.3717-4.3148Zm8.2329 15.5363c1.2199.0048 2.3606-.6044 3.0344-1.6215l8.3816-12.6935c1.1032-1.6625.637-3.8945-1.0393-4.9894-1.677-1.09414-3.9264-.63146-5.0296 1.0316L20.1379 24.34c-1.1032 1.6631-.637 3.8945 1.0393 4.99.6002.3689 1.2907.5655 1.9952.5676Zm8.0425-4.3363c0-2.4002 1.9521-4.3364 4.3926-4.3364 2.419 0 4.3926 1.9362 4.3926 4.3364 0 2.3994-1.9528 4.3578-4.3926 4.3578-2.4405-.0215-4.3926-1.9584-4.3926-4.3578Z"/>
	<path fill="#1E1F1A" d="M17.5488 14.3608c0-2.4203-1.9521-4.3579-4.3717-4.3579-2.4183 0-4.3926 1.9369-4.3926 4.3579 0 2.4002 1.9528 4.3363 4.3926 4.3363 2.4412.0007 4.3717-1.9361 4.3717-4.3363ZM3.62912 29.8964C1.63394 29.8964 0 28.2972 0 26.2965V13.6029c0-1.9785 1.63394-3.6 3.62912-3.6 1.99449 0 3.62842 1.6208 3.62842 3.5993v12.6949c0 2.0001-1.63393 3.5993-3.62842 3.5993Z"/>
</svg>