<svg viewBox="0 0 40 40" xmlns="http://www.w3.org/2000/svg">
	<path fill="#19502E" d="M19.7686 40C9.97093 40 2 32.0339 2 22.2411c0-5.6306 2.58268-10.8056 7.08419-14.19749l.18898-.14052V0H19.4682v4.47729c.0969 0 .1987-.00485.2956-.00485 9.7977 0 17.7638 7.97096 17.7638 17.76866C37.5324 32.0339 29.5615 40 19.7686 40z"/>
	<path fill="#FFCB05" d="M17.278 5.33499l.4894-.47971V1.14844h.5573v5.49l-3.6972 3.63416V1.14844h.5572v6.23622l.4894-.47971V1.14844h.5573V6.3574l.4894-.47486v-4.7341h.5572v4.18655zm-3.7117 2.04968l-.4894-.47971V1.14845h-.562v5.20897l-.4846-.47971V1.14845h-.5621v4.18656l-.4894-.47971V1.14845h-.5572v5.49001l3.702 3.63414V1.14845h-.5573v6.23622zm1.0612 5.93583l3.6972-3.63905V7.35558l-3.6972 3.61962v2.3453zm0 9.2065l3.6972-3.6342v-2.4712l-3.6972 3.6196v2.4858zm3.6972-9.7977l-3.6972 3.6342v-2.3453l3.6972-3.6148v2.3259zm0 3.0479l-3.6972 3.6341v-2.3452l3.6972-3.6148v2.3259zm-7.9031 3.1156l3.702 3.6342v-2.4858l-3.702-3.6196v2.4712zm0-9.20651l3.702 3.63421v-2.3453l-3.702-3.61962v2.33071zm3.702 6.67721l-3.702-3.6342v-2.3259l3.702 3.6148v2.3453zm-3.702-.5863l3.702 3.6341v-2.3452l-3.702-3.6197v2.3308zm13.4415 1.9188h8.6057c.252 0 .4652.2132.4603.4749v.2907c0 .2616-.2083.4749-.4651.4749h-1.3229v.407h.659v.5717h-.659v.5912h.659v1.0903h-.659v-.4943h-.9788v.4943h-.659v-1.0903h.659v-.5912h-.659v-.5717h.659v-.407h-6.6917c.189.2955.3004.6444.3004 1.0224 0 1.0708-.8722 1.9382-1.943 1.9382-1.0709 0-1.9382-.8674-1.9382-1.9382 0-.4216.1356-.8092.3634-1.1242-.1696-.1115-.2811-.3004-.2811-.5185 0-.218.1115-.407.2811-.5185-.2278-.3198-.3634-.7026-.3634-1.1241 0-1.0709.8673-1.9382 1.9382-1.9382 1.0708 0 1.943.8673 1.943 1.9382 0 .3779-.1114.7268-.3004 1.0224h.3925zm-2.0351 3.2562c.5524 0 1.003-.4458 1.003-.9982 0-.407-.47-1.3761-.47-1.3761v-.5282s.47-.9739.47-1.381c0-.5524-.4506-1.003-1.003-1.003-.5476 0-.9982.4506-.9982 1.003 0 .2035.0581.3925.1647.5476l.2811.4748c-.1745.1551-.2811.378-.2811.6251s.1066.47.2811.6203l-.2811.47c-.1066.155-.1647.344-.1647.5475 0 .5524.4506.9982.9982.9982z"/>
	<path fill="#fff" d="M19.7686 5.62085c-.2665 0-.533.00485-.7946.01938v1.13386c.2616-.01454.5281-.01938.7946-.01938 8.5524 0 15.4864 6.93399 15.4864 15.49119 0 8.5476-6.934 15.4816-15.4864 15.4816-8.5572-.0049-15.49118-6.9389-15.49118-15.4864 0-4.7487 2.13689-8.9982 5.4997-11.8377V8.95943C5.75047 11.9927 3.14841 16.8092 3.14841 22.2411c0 9.1726 7.44279 16.6105 16.62019 16.6105 9.1775 0 16.6203-7.4379 16.6203-16.6105-.0049-9.1775-7.4428-16.62025-16.6203-16.62025zM7.05878 18.9364v-2.4179s.39249 1.3373 1.87523 2.8298c.47873.4787 1.03044 1.014 1.72009 1.6831l.0002.0002.0006.0006.0009.0008v.0001l.0008.0008c.4336.4206.9217.8942 1.4803 1.4397.052.0509.1082.1039.1675.1599l.0001.0001c.6475.6114 1.664 1.5713 1.664 3.7553v2.6699c-.2422-.5961-.4264-.9401-1.4972-1.9867-.0243-.0243-.897-.8825-1.8059-1.7762-.90827-.8931-1.85258-1.8217-2.02212-1.9888-.57662-.5766-1.5845-2.0594-1.5845-4.3707zm3.59532 8.0647l.0007.0007c.434.4211.9227.8952 1.4821 1.4416.0505.0489.105.1.1623.1538l.0001.0001c.6472.6074 1.6696 1.567 1.6741 3.7613v2.8298l-.018-.0442c-.234-.5767-.435-1.0721-1.4793-2.0927-.0436-.0485-3.49363-3.421-3.83282-3.7505-.53301-.6057-1.5845-2.0787-1.5845-4.3852v-2.0884s.39249 1.003 1.87523 2.4906c.47872.4787 1.03042 1.014 1.72009 1.6831zm21.6015 2.8281c-.2277.3731-.4748.7317-.7316 1.0854v-3.3192h.7316v2.2338zm1.4004-3.043c.1066-.3198.1987-.6445.281-.974h-2.413v.596h.3682c.6396-.0145 1.3568-.0242 1.7638.378zm-16.7123-1.0515h.6542v6.619h-.6542v-6.619zm-1.5021-1.2792h2.1563c.5572 0 .9448.1163 1.1774.3343.2278.2132.3295.6057.3295 1.163v6.1877c0 .5621-.1066.9497-.3295 1.1678-.344.3392-.9739.3392-1.4972.3392-.1163-.0097-.2278-.0097-.3295-.0097v2.9315c.0567.0101.1131.0205.1694.0309.1602.0296.3198.0591.4847.0806v-2.4082c.9933 0 1.6475-.3392 1.9528-1.0176v3.5857h.2132c.1356 0 .2762 0 .4118-.0049V26.069c0-.5717.1163-.9691.3295-1.1968.2181-.2277.6057-.3392 1.1581-.3392.076 0 .1566-.0015.2403-.0031h.0001c.5358-.01 1.1976-.0223 1.5622.3423.218.2277.3198.6299.3198 1.1968v3.1739h-1.4828v-3.3871h-.6396v10.8734c.2132-.0242.4264-.0581.6396-.0969v-6.7547h1.4828v6.4059c.3052-.0873.6057-.1842.9012-.2908v-5.8631c0-.6638.1599-1.1629.8335-1.3907l-.7462-4.0751h1.4972l.252 4.4531h.1841l.252-4.4531h1.5797l-.8432 4.0751c.7075.2472.8432.6833.8432 1.3907v3.7892c.4361-.3295.8576-.6832 1.255-1.0611v-8.2278h4.3852c.029-.1938.0581-.3973.0823-.596H24.0037l.1453.7365c-.3246-.596-.94-.8964-1.8413-.8964h-.6396c-1.0854 0-1.7492.4313-2.0012 1.2938-.2326-.9013-.9206-1.3519-2.0642-1.3519h-2.8104v12.1574c.2132.0776.4312.1503.6493.2181V24.4555zm13.6257 4.6808l-.7075-.6736.7075-3.6535v4.3271zm-2.1176 5.8243c-.2228.126-.4457.2423-.6735.3586v-5.3737h.6735v5.0151z"/>
</svg>
