<svg viewBox="0 0 40 40" xmlns="http://www.w3.org/2000/svg">
	<path fill="#00529C" d="M29.5256 22.9792h9.9546c0-1.3515-2.4172-2.3132-5.3282-2.3132h-4.6264v2.3132zM29.5256 23.395h9.9546c0 1.4295-2.4172 2.4432-5.3282 2.4432h-4.6264V23.395zM17.6998 22.9792h9.9545c0-1.3515-2.4171-2.3132-5.3281-2.3132h-4.6264v2.3132zM17.6998 23.395h9.9545c0 1.4295-2.4171 2.4432-5.3281 2.4432h-4.6264V23.395zM15.4126 22.9792H1.45549C1.1436 22.7193 0 21.8096 0 20.666h15.4126v2.3132zM15.4126 23.395H1.71539c1.22158 1.0137 4.13256 2.4432 7.01755 2.4432h6.67966V23.395zM40 17.7811H1.45549C1.1436 18.041 0 18.9767 0 20.1203h40v-2.3392zM40 17.3912H1.71539C2.93697 16.4035 5.84795 15 8.73294 15H39.974v2.3912H40z"/>
</svg>
