<svg xmlns="http://www.w3.org/2000/svg" viewBox="0 0 40 40">
	<path fill="#21a038" d="M35.8 7.8c.9 1.2 1.7 2.6 2.4 4L20 25.2l-7.6-4.8v-5.7l7.6 4.8c0-.1 15.8-11.7 15.8-11.7zM39.7 16.4l-4.3 3.2v.4c0 4.5-1.9 8.5-5 11.4l3.1 3.5c4-3.7 6.6-8.9 6.6-14.8-.1-1.3-.2-2.5-.4-3.7z"/>
	<linearGradient id="gr1" gradientUnits="userSpaceOnUse" x1="19.5054" y1="38.1642" x2="31.109" y2="34.025">
		<stop offset=".1226" stop-color="#a3cd39"/>
		<stop offset=".2846" stop-color="#86c339"/>
		<stop offset=".8693" stop-color="#21a038"/>
	</linearGradient>
	<path d="M30.9 30.9c-2.8 2.8-6.6 4.5-10.9 4.5h-.8L19 40c.4 0 .7.1 1.1.1 5.6 0 10.6-2.3 14.2-5.9l-3.4-3.3z" fill="url(#gr1)"/>
	<linearGradient id="gr2" gradientUnits="userSpaceOnUse" x1="5.668" y1="32.992" x2="19.1715" y2="37.0634">
		<stop offset=".1324" stop-color="#f2e913"/>
		<stop offset=".2977" stop-color="#ebe716"/>
		<stop offset=".5306" stop-color="#d9e01f"/>
		<stop offset=".8023" stop-color="#bbd62d"/>
		<stop offset=".9829" stop-color="#a3cd39"/>
	</linearGradient>
	<path d="M20 35.4c-4.5 0-8.6-2-11.4-5.1l-3.4 3.1c3.6 4 8.9 6.6 14.8 6.6v-4.6z" fill="url(#gr2)"/>
	<linearGradient id="gr3" gradientUnits="userSpaceOnUse" x1="6.0096" y1="33.1155" x2="3.2275" y2="20.5619">
		<stop offset=".1444" stop-color="#f2e913"/>
		<stop offset=".3037" stop-color="#e7e518"/>
		<stop offset=".5823" stop-color="#cadb26"/>
		<stop offset=".891" stop-color="#a3cd39"/>
	</linearGradient>
	<path d="M9.1 30.9C6.3 28.1 4.6 24.3 4.6 20v-.9L0 18.9V20c0 5.5 2.2 10.5 5.8 14.1l3.3-3.2z" fill="url(#gr3)"/>
	<linearGradient id="gr4" gradientUnits="userSpaceOnUse" x1="2.5649" y1="21.1395" x2="6.5685" y2="6.7538">
		<stop offset=".0698" stop-color="#a3cd39"/>
		<stop offset=".2599" stop-color="#81c55f"/>
		<stop offset=".9216" stop-color="#0fa8e0"/>
	</linearGradient>
	<path d="M4.6 20c0-4.5 2-8.6 5.1-11.4L6.6 5.2C2.5 8.9 0 14.1 0 20h4.6z" fill="url(#gr4)"/>
	<linearGradient id="gr5" gradientUnits="userSpaceOnUse" x1="6.2619" y1="6.2341" x2="20.5119" y2="3.1127">
		<stop offset=".0592" stop-color="#0fa8e0"/>
		<stop offset=".5385" stop-color="#0099f9"/>
		<stop offset=".9234" stop-color="#0291eb"/>
	</linearGradient>
	<path d="M8.9 9.4c2.8-2.9 6.7-4.7 11.1-4.7h.8l.3-4.7H20C14.3 0 9.2 2.4 5.6 6.2l3.3 3.2z" fill="url(#gr5)"/>
	<linearGradient id="gr6" gradientUnits="userSpaceOnUse" x1="18.8779" y1="2.3341" x2="32.1779" y2="5.0484">
		<stop offset=".0566" stop-color="#0291eb"/>
		<stop offset=".79" stop-color="#0c8acb"/>
	</linearGradient>
	<path d="M20 4.6c3.2 0 6.2 1 8.7 2.7l3.9-2.9C29.1 1.7 24.8 0 20 0v4.6z" fill="url(#gr6)"/>
</svg>