<svg xmlns="http://www.w3.org/2000/svg" viewBox="0 0 40 40">
	<path fill="#fc121b" d="M28.9 7.2h-.5c-4.2.4-8.4 1.3-12.2 2.8-4.5 1.7-8.7 4.2-12.4 7.3-.4.4-1.5 1.5-1.8 1.9-.5.6-1 1.2-1.4 1.9-.2.3-.5.6-.6.9.2-.1.4-.4.6-.5 1.5-1.4 3-2.7 4.8-3.8 5.8-3.7 13.4-6.4 19.8-7 .8-.1 1.6-.1 2.4-.1.8 0 1.6 0 2.4.1 1.7.1 3.3.6 4.9 1.4.9.5 1.7 1.3 2.2 2.3.6 1.3.6 3-.3 4.7-.1.1-.1.2-.1.3.4-.4.6-.7 1-1.1 1.1-1.3 1.9-2.9 2.3-4.5.1-.4.1-.9.1-1.3-.2-1.6-1.2-3-3-3.9-1.8-.8-3.7-1.3-5.6-1.3-.5-.1-2.3-.1-2.6-.1z"/>
	<path fill="#0a3e86" d="M16.2 24.1c-.1-.3-.4-.5-.6-.7-.6-.6-1.4-.9-3.2-1.4-1.3-.4-1.8-.6-2-.8-.1-.1-.2-.3-.2-.4 0-.3.1-.6.3-.8.1-.2.4-.4.6-.5.6-.2 1.2-.2 1.8-.1.2.1.4.1.5.3s.3.3.4.5c.1.2.1.4 0 .6v.1H17v-.1c.2-.8.1-1.6-.2-2.3-.1-.3-.4-.6-.6-.8-.6-.6-1.5-1-2.4-1.1-.5-.1-1-.1-1.4-.1l-.4.1c-.7.1-1.4.3-2.1.6-1.1.4-2 1.1-2.5 2.1-.4.7-.6 1.5-.7 2.3-.1 1.2.5 2 1.7 2.7.7.4 1.4.6 2.2.8l.9.3c.5.1.9.4 1.3.8.1.2.1.5.1.7s-.2.4-.4.6c-.4.2-.9.5-1.5.5H9.8c-.2 0-.4-.1-.6-.2-.2-.1-.4-.3-.4-.5-.1-.3-.1-.6-.1-.8V26H5.4v.1c-.3 1.1-.1 2.2.4 3.1.2.3.5.6.8.8 1 .6 2.1.8 3.2.8s2-.1 3-.5c.4-.1.8-.4 1.3-.6.6-.4 1.1-.9 1.6-1.6.4-.6.6-1.3.8-2 .1-.7 0-1.4-.3-2zm12.4.6c-.1-.4-.2-.8-.4-1.1-.2-.3-.6-.6-.9-.7l-.1-.1.1-.1.6-.4c.3-.2.5-.5.8-.7.4-.5.7-1.1.8-1.8.3-1.6-.4-2.6-2-3-.4-.1-.7-.1-1.1-.1h-6.8s-.7 3.1-1.6 6.8c-.8 3.7-1.6 6.8-1.6 6.8h3.5c3.8 0 3.6 0 4.3-.1.9-.1 1.8-.5 2.5-1.1s1.2-1.3 1.6-2.3c.1-.4.2-.7.3-1.1v-1zm-3.3 1.4c-.1.4-.2.7-.5 1-.3.3-.6.4-1 .5-.6.1-1.1.1-1.8.1-.5.1-1.1.1-1.6 0 0 0 .1-.7.4-1.6l.4-1.6h3c.2 0 .4.1.6.2.2.1.4.4.4.6s.1.5.1.8zm.2-4.6c-.2.3-.5.5-.9.5-.5.1-1.1.1-1.6.1h-1.4s.1-.6.3-1.3c.1-.7.3-1.3.3-1.3v-.1h3c.2 0 .4.1.6.3.1.1.2.4.1.6 0 .5-.1.9-.4 1.2zm7.7-4.7h-1.6v.1c0 .1-.7 3.1-1.6 6.8l-1.5 6.7h3.2l1.5-6.8c.8-3.7 1.6-6.8 1.6-6.8h-1.6z"/>
</svg>
