<svg xmlns="http://www.w3.org/2000/svg" viewBox="0 0 40 40">
	<path fill="#874691" d="M12.6 20l-5.2 3-4.8 8.4L22.4 20h-9.8z"/>
	<path fill="#da1844" d="M27.6 11.4l-5.2 3-4.9 8.4 19.8-11.4h-9.7z"/>
	<path fill="#f9b229" d="M22.4 8.4L17.5 0v40l4.9-8.4V8.4z"/>
	<path fill="#f07f1a" d="M17.5 0l4.9 8.4 5.2 3h9.8L17.5 0z"/>
	<path fill="#72b22c" d="M17.5 17.2V40l4.9-8.4v-6l-4.9-8.4z"/>
	<path fill="#00743e" d="M27.6 28.6l-5.2 3-4.9 8.4 19.8-11.4h-9.7z"/>
	<path fill="#5f5a94" d="M2.6 8.6v22.8L7.5 23v-6L2.6 8.6z"/>
	<path fill="#0d90cd" d="M17.5 17.2L2.6 8.6 7.5 17l20.1 11.7h9.8L17.5 17.2z"/>
</svg>