<svg viewBox="0 0 40 40" xmlns="http://www.w3.org/2000/svg">
	<g fill="#164883">
		<path d="M0 29.4847l5.54016 3.7835c3.37815-.6756 17.43124-3.5133 17.43124-8.5129 0-4.9997-4.1889-6.2158-7.8373-8.3778-3.6484-2.162-5.40504-3.2431-5.40504-5.1348 0-1.89178 1.75664-3.64841 5.13474-4.72942l2.1621-.5405c-2.9728.40538-8.6481 1.62151-8.6481 5.40502 0 3.7835 11.6208 7.2968 11.6208 12.837C19.9986 29.7549 0 29.4847 0 29.4847z"/>
		<path d="M11.6209 11.1076c0-2.56742 2.7025-4.0538 4.8645-4.86456-2.8377.67563-6.3509 2.16202-6.3509 4.99966 0 2.8376 2.4322 3.243 5.2699 4.8645 2.8376 1.6215 7.8373 4.7294 7.8373 8.6481 0 3.9186-3.1079 4.7294-9.1886 6.7563l-8.10753 2.0269 4.59433 2.9727s15.4043-4.4591 15.4043-10.6749c0-10.4047-14.3233-11.2155-14.3233-14.7287z"/>
		<path d="M25.809 8.54023c0 1.48637-1.2162 2.70247-2.7025 2.70247h-.6757v1.3513h.6757c2.162.0811 3.9727-1.6215 4.0537-3.78352v-.27025c0-2.16201-1.7566-3.91865-3.9186-3.91865h-4.0538v9.59392h1.3513V5.97284h2.7025c1.4188 0 2.5674 1.14857 2.5674 2.56739z"/>
		<path d="M23.2416 3h-5.6752v11.2154h1.3512V4.35126h4.324c2.3107 0 4.1889 1.87825 4.1889 4.1889 0 2.39174-1.9323 4.32404-4.324 4.32404h-.6756v1.3512h.6756c3.1079-.4459 5.2564-3.3241 4.8105-6.41843C27.5657 5.35119 25.6739 3.40538 23.2416 3zM33.1058 22.8635v-7.0266c.0135-1.3918-1.0405-2.5674-2.4323-2.7025-1.4594.0676-2.635 1.2432-2.7025 2.7025v7.0266h1.2161v-7.1617c.0676-.7432.7297-1.2837 1.4729-1.2161h.0135c.6621.0675 1.1486.6621 1.081 1.3377v7.0401h1.3513zM38.6459 22.8635v-7.0266c-.0675-1.4188-1.1621-2.5674-2.5674-2.7025-.7161.0135-1.3918.2973-1.8917.8108-.4865.5134-.7703 1.1891-.8108 1.8917v7.0266h1.3513v-7.1617c.0675-.7432.7296-1.2837 1.4728-1.2161h.0135c.6351.1351 1.0946.7026 1.0811 1.3512v7.0266h1.3512z"/>
		<path d="M36.0786 11.648c-1.0269-.0405-2.0404.2973-2.8376.9459-1.8647-1.4864-4.5808-1.1891-6.0807.6757-.608.7702-.9459 1.7161-.9459 2.7025v6.8914h1.3513v-7.0266c0-1.5944 1.2432-2.9052 2.8376-2.9727 1.1351.0135 2.1621.6351 2.7026 1.6215.4999-.9729 1.4728-1.5945 2.5674-1.6215 1.5674-.0811 2.8917 1.135 2.9727 2.689v7.3103h1.3513v-6.8914c.0811-2.2701-1.6621-4.1754-3.9187-4.3241z"/>
	</g>
</svg>
