<svg viewBox="0 0 40 40" xmlns="http://www.w3.org/2000/svg">
	<path fill="#3A913F" d="M22.4211 0c.8859.175439 1.7807.307018 2.6491.535088 2.614.692982 4.8772 2.013162 6.7631 3.956142 1.0834 1.11403 1.0702 2.85088.0264 4.00877-.9606 1.06579-2.7062 1.22807-3.8772.34649-.3772-.28509-.693-.64473-1.0658-.93421-2.7895-2.15789-5.8816-2.67982-9.1492-1.40351-3.2719 1.27632-5.25 3.75443-5.7631 7.23683-.7676 5.193 2.6754 9.7939 7.8728 10.5263 2.9474.4167 5.5439-.478 7.7018-2.5482 1.5438-1.4781 3.9298-1.0965 4.7982.7807.5088 1.1009.2982 2.3903-.5746 3.2544-3.3552 3.307-7.3947 4.7982-12.0833 4.3552-6.5088-.614-11.68421-5.1008-13.22807-11.3903-.20176-.829-.26755-1.693-.39912-2.5395-.02193-.1316-.06141-.2631-.09211-.3947v-1.3684c.06579-.4606.13596-.9255.19737-1.386C6.9693 7.06579 11.4254 2 17.2325.526316 18.1097.302632 19.0044.175439 19.8947 0h2.5264zM10.1053 40c-.079-.0351-.15356-.079-.23689-.1009-1.40351-.3991-2.17982-1.557-1.99123-2.9737.17106-1.3114 1.26755-2.2631 2.66662-2.2763 1.7895-.0132 3.579-.0044 5.3641-.0044 4.8202 0 9.6447-.0044 14.4649 0 1.1535 0 2.0482.4869 2.5351 1.5483.4737 1.0307.3553 2.0614-.4342 2.8772-.3991.4166-1.0132.6271-1.5307.9298H10.1053z"/>
</svg>
