<svg viewBox="0 0 40 40" xmlns="http://www.w3.org/2000/svg">
	<linearGradient id="gr1" x1="20.0871" y1="40.0007" x2="20.0871" y2="0" gradientUnits="userSpaceOnUse">
		<stop stop-color="#0073B7"/>
		<stop offset="1" stop-color="#1A93CD"/>
	</linearGradient>
	<path fill="url(#gr1)" d="M20.004 0H20c-.6725.804644-4.2314 5.84868-7.3699 13.715-.8247 2.3619-2.3299 7.522-2.5821 12.506-.024.5284-.04 1.0568-.048 1.5812v1.205c.0641 5.024.8767 9.5717 1.237 10.9928 0-2.0096.048-8.703 1.6493-14.2194C14.4836 20.2682 17.53 13.8911 20 10.6485c2.6781 3.3907 6.0328 10.7686 7.2178 15.1642 1.1849 4.4235 1.8054 10.06 1.5452 14.0712.7206-2.3299 1.289-6.225 1.3931-9.9119.1001-3.6589-.3723-9.912-2.6821-16.4292C25.1601 7.02562 20.6845.808647 20.004 0z"/>
	<linearGradient id="gr2" x1="20.0857" y1="39.9983" x2="20.0857" y2="15.8907" gradientUnits="userSpaceOnUse">
		<stop stop-color="#0073B7"/>
		<stop offset="1" stop-color="#1A93CD"/>
	</linearGradient>
	<path fill="url(#gr2)" d="M15.2723 24.1593c-.5365 1.4211-1.5052 4.5316-1.6694 7.538-.1921 3.643.4924 7.2859.7686 8.3027 0-1.209.0281-5.2442 1.0649-8.5709 1.0288-3.3266 2.9984-7.1617 4.5957-9.1193 1.7293 2.0457 3.8951 6.4892 4.6597 9.1353.7646 2.6662 1.1689 6.0609 1.0008 8.4788.4644-1.4011.8327-3.751.9007-5.9728.0641-2.2057-.2402-5.9727-1.7334-9.8999-1.5012-3.9271-4.3955-7.6781-4.8278-8.1585-.4284.4804-2.7302 3.5188-4.7598 8.2666z"/>
</svg>
