<svg viewBox="0 0 40 40" xmlns="http://www.w3.org/2000/svg">
	<path fill="#F2CD13" d="M2.28843 0H37.153C38.7398 0 40 1.30684 40 2.84704V37.7116c0 1.2601-1.0268 2.2869-2.287 2.2869H2.28843c-1.26016 0-2.28696292-1.0268-2.28696292-2.2869V2.28696C-.0452057 1.0268 1.02827 0 2.28843 0Z"/>
	<path fill="#185491" d="m13.2094 0 8.9612 14.7953v4.0138L10.7358 0h2.4736ZM17.27 0l4.9006 8.12105v2.89375L15.4964 0H17.27Zm3.4538 0 1.4468 2.42698v2.24029L19.3236 0h1.4002Zm4.0605 31.4108h-2.8004L17.55 23.7564v7.6544h-2.6137V19.8826h3.2671l3.9205 6.4875v-6.4875h2.6604v11.5282Zm2.1936-11.5282h5.7874c1.2135 0 2.147.28 2.707.7934.5601.5134.8401 1.2135.8401 2.147 0 .56-.14 1.0734-.4667 1.4935-.3267.4201-.7934.7001-1.4468.9335.7934.1866 1.4001.5133 1.8202 1.0267.4201.5134.6534 1.1669.6534 1.9136 0 1.0268-.3267 1.8203-1.0268 2.3803-.7001.5601-1.8202.8402-3.4071.8402h-5.4607V19.8826Zm2.707 2.2403v2.2869h2.5203c.4201 0 .7468-.0933.9802-.3267.2333-.2333.3734-.5134.3734-.8401s-.1401-.6067-.3734-.7934c-.2334-.1867-.6068-.3267-1.0735-.3267 0 .0466-2.427.0466-2.427 0Zm0 4.4339v2.6137h2.8004c.3734 0 .7467-.0934 1.0268-.3268.3267-.2333.4667-.56.4667-.9801 0-.4667-.14-.7934-.4667-.9801-.2801-.2334-.7468-.3267-1.4002-.3267h-2.427ZM3.1748 27.6769h2.70702c0 .5601.18669.9802.56008 1.3069.37338.3267.98012.5134 1.77356.5134.70009 0 1.21349-.0934 1.5402-.2801.32674-.1867.51344-.5134.51344-.9334 0-.3734-.1401-.7001-.46677-.9802-.32671-.2333-1.12014-.56-2.42698-.8401-1.5402-.3733-2.567-.7934-3.0804-1.3068-.5134-.4667-.74676-1.2135-.74676-2.1936 0-1.1202.42005-1.9603 1.26016-2.567.84011-.5601 2.00693-.8401 3.45378-.8401 1.30684 0 2.38027.3267 3.17377.9334.7934.6534 1.1668 1.4936 1.2135 2.5204h-2.567c-.0467-.3734-.23339-.7001-.5601-.9335-.32671-.2334-.79344-.3267-1.40019-.3267-.56007 0-1.0268.0933-1.30683.28-.32671.1867-.46673.4668-.46673.7935s.14002.6067.42006.8401c.28003.2333.88678.42 1.86691.6067 1.77358.3734 2.94038.7935 3.54708 1.3535.6068.5601.8868 1.3069.8868 2.2403 0 1.1668-.42 2.1003-1.2135 2.8004-.7934.7001-2.00689 1.0268-3.64044 1.0268-1.5402 0-2.75369-.3267-3.64047-1.0268-.93346-.6534-1.40019-1.6802-1.40019-2.9871Z"/>
</svg>