<svg xmlns="http://www.w3.org/2000/svg" viewBox="0 0 40 40">
	<path fill="#0a90e8" d="M13.8 17.7l.8-1.1c-.6-.2-1.2-.3-1.8-.1l1 1.2zm-3.4 4.2L12 20l-1.5-1.8c-.6.6-1.3 1.2-1.9 1.8.1 0 1.8 1.9 1.8 1.9zm3.4.4l-1.1 1.3c.7.1 1.3.1 1.9-.2l-.8-1.1zm-2.9-6.9c-1.3 1-2.4 2.1-3.5 3.2l.6.8c1.1-1.1 2.2-2.2 3.5-3.2.6-.4 1.3-.7 2.1-.7.6 0 1.2.1 1.7.4l.7-.9c-.7-.4-1.6-.6-2.4-.6-1 .1-2 .4-2.7 1zm4.6 7.6c.3-.2.5-.5.8-.8l-4.2-5.3-.8.7 4.2 5.4zm-3.4 1.4l-.7.8c.7.3 1.5.5 2.2.4 1.3-.1 2.5-.6 3.4-1.5.7-.6 1.2-1.3 1.5-2.1.3-.8.5-1.7.4-2.6-.1-.9-.4-1.8-.9-2.5l-.7.9c.5.8.7 1.8.5 2.8-.2.9-.6 1.7-1.2 2.4s-1.4 1.2-2.2 1.4c-.7.2-1.5.2-2.3 0zm-8.3-5.3c-.1.6-.1 1.3 0 1.9.3-.3.6-.7.9-1 0 .1-.9-.9-.9-.9zm.9-1.9c-.2.3-.4.6-.6 1l5.1 5.3.7-.9-5.2-5.4zm2.8-2.8c-.8.6-1.5 1.4-2.2 2.1L6.7 18c.7-.7 1.3-1.4 2.1-2l-1.3-1.6zm18.7 7.9l-.9 1.1c.6.2 1.2.3 1.8.1 0-.1-.9-1.2-.9-1.2zm3.4-4.2L28 20l1.5 1.8c.7-.6 1.3-1.2 1.9-1.8-.1 0-1.8-1.9-1.8-1.9zm-3.4-.4l1.1-1.3c-.7-.2-1.3-.1-2 .2l.9 1.1zM6.3 12.9c-1.2 1-2.4 2.2-3.4 3.5-1.3 1.9-1.4 4.4-.6 6.4l.8-.9c-.1-.3-.1-.5-.2-.8-.2-1.4.1-2.9.8-4.2.9-1.2 2-2.3 3.2-3.3l-.6-.7zm-3 1.5c.7-.8 1.5-1.5 2.3-2.2-.5-.4-1.1-.7-1.7-.6-.2.1-.5.2-.6.4-.2.2-.3.4-.4.6-.1.3-.1.6 0 .9.1.4.3.7.4.9zM2.1 16c.2-.3.4-.6.7-.9-.3-.4-.5-.8-.6-1.3-.1-.5-.1-1 0-1.4.1-.4.3-.8.6-1 .3-.3.6-.5 1-.6.9-.2 2 .1 3.1 1.4l2.5 3.2.8-.7-2.5-3.2c-1-1.2-2.5-2.2-4.2-1.8-.5.2-1 .5-1.5.9-.4.4-.7.9-.9 1.5-.2.7-.2 1.4 0 2.1.1.7.5 1.3 1 1.8zm7.7 11.3c.4.2.8.3 1.2.5 1.1.3 2.2.4 3.4.3 1.1-.1 2.2-.5 3.2-1-.4-.5-.8-.9-1.2-1.4-.8.5-1.7.8-2.6.8-1 .1-2.1-.1-3-.6l-1 1.4zm-1.8-1c.3.2.6.4.9.5l4.3-5.3-.7-.9c.1.1-4.5 5.7-4.5 5.7zm-2.9-2.5c.6.8 1.4 1.5 2.2 2l1.3-1.6-1.9-2c0-.1-1.6 1.6-1.6 1.6zm-1.4 1.4c.7.8 1.5 1.5 2.3 2.1 3.1 2.4 6.2 3.1 8.9 2.7 1.5-.2 2.9-.8 4.2-1.6-.3-.2-.6-.5-.8-.7-1.1.6-2.2 1.1-3.5 1.2-2.5.4-5.2-.3-8.1-2.5-.5-.4-1-.8-1.5-1.3-.2-.2-.5-.5-.7-.8 0 .1-.8.9-.8.9zM5.5 28c-.9-.6-1.6-1.4-2.3-2.2-.2.2-.3.4-.3.7 0 .3 0 .5.2.7.1.2.3.5.5.6.2.2.4.3.7.4.2.1.4.1.7 0 .1.1.3 0 .5-.2zm1.6 1.1l-.9-.6c-.3.3-.6.5-1 .6-.4.1-.8.1-1.2 0-.7-.2-1.4-.8-1.7-1.4-.3-.3-.4-.8-.3-1.2 0-.4.2-.8.4-1.1 1.3-1.3 2.5-2.6 3.7-3.9l-.7-.8c-1.2 1.3-2.5 2.7-3.8 4-.9.9-.8 2.5-.3 3.5.2.5.6.9 1 1.2.4.3.9.6 1.4.8.6.2 1.3.2 1.9 0 .6-.2 1.1-.6 1.5-1.1zm22-4.5c1.3-1 2.4-2.1 3.5-3.2l-.6-.8c-1.1 1.1-2.2 2.2-3.5 3.2-.6.4-1.3.7-2.1.7-.6 0-1.2-.1-1.7-.4l-.7.9c.7.4 1.6.6 2.4.6 1-.1 2-.4 2.7-1zM17.8 12.9c-1.1-.6-2.2-1-3.4-1.1-1.6-.2-3.1.1-4.5.9l1.2 1.5c.9-.5 1.9-.7 2.9-.6.9.1 1.7.3 2.5.7.4-.4.8-.9 1.3-1.4zm1.6 1.2c-.3-.2-.6-.5-.9-.7L17 15.2l-2.6 3.3.7.8c1.4-1.8 2.8-3.6 4.3-5.2zm.5 11.2c.5-.5 1-1 1.4-1.5-.8-1-1.2-2.3-1.2-3.6 0-1.4.5-2.8 1.3-3.9-.4-.6-.9-1.1-1.4-1.6-.5.5-1 1-1.4 1.5.8 1 1.2 2.3 1.2 3.6 0 1.4-.5 2.8-1.3 3.9.5.6 1 1.1 1.4 1.6zm1.5 1.3c.6-.6 1.1-1.2 1.6-1.8l2.6-3.3-.7-.8c-1.4 1.8-2.8 3.6-4.4 5.2.4.3.6.5.9.7zm8.8.7L29 25.8c-1 .4-2 .6-3 .6-.9-.1-1.7-.3-2.5-.7-.4.5-.8 1-1.3 1.4.9.5 1.9.8 2.9 1 1.2.2 2.5.2 3.6-.2l1.5-.6zm1.2 1.5l-.7-.8c-1.8 1-3.8 1.3-5.8 1-2.3-.4-4.4-1.6-5.9-3.3-.4-.4-.7-.8-1-1.3-.3.3-.5.5-.8.7.3.4.7.9 1 1.3 1.7 1.9 4 3.2 6.5 3.6 2.3.4 4.7 0 6.7-1.2zm5.9-3.9c.3.4.5.8.6 1.3.1.5.1 1 0 1.4-.1.4-.3.8-.6 1-.3.3-.6.5-1 .6-.9.2-2-.1-3.1-1.4l-2.5-3.2-.8.7 2.5 3.2c1 1.2 2.5 2.2 4.2 1.8.6-.2 1.1-.5 1.5-.9.4-.4.7-.9.9-1.5.2-.7.2-1.4.1-2-.2-.7-.5-1.3-1-1.8 0 .1-.1.1-.1.2-.4.1-.6.3-.7.6zm-3 2.9c.5.4 1.1.7 1.7.6.2-.1.5-.2.6-.4.2-.2.3-.4.4-.6.1-.3.1-.6 0-.9-.1-.3-.2-.6-.4-.8-.7.6-1.5 1.4-2.3 2.1zm.4-4.3L33.3 22c-.7.7-1.4 1.4-2.1 2l1.3 1.6c.8-.6 1.5-1.4 2.2-2.1zm1.2-1.7l-5.1-5.3-.7.9 5.2 5.4c.2-.3.4-.6.6-1zm.3-2.9c-.3.3-.6.6-.9 1l.9.9c.1-.6.1-1.2 0-1.9zm1.5-1.6c-.3.3-.6.6-.8.9.2.7.3 1.5.2 2.2-.1 1-.4 1.9-.9 2.7-.9 1.2-2 2.3-3.2 3.3l.7.8c1.2-1 2.4-2.2 3.4-3.5.7-1.1 1.1-2.3 1.1-3.6 0-1-.1-1.9-.5-2.8zm-3.9-5.9c.3-.3.6-.5 1-.6.4-.1.8-.1 1.2 0 .4.1.7.3 1 .6.3.2.5.6.7.9.2.4.3.8.3 1.2 0 .4-.2.8-.4 1.1-1.3 1.3-2.5 2.6-3.7 3.9l.7.8c1.2-1.3 2.5-2.7 3.8-4 .9-.9.8-2.5.3-3.5-.2-.5-.6-.9-1-1.2-.4-.3-.9-.6-1.4-.8-.6-.2-1.3-.2-1.9 0-.6.2-1.2.5-1.6 1 .4.2.7.4 1 .6zm3.1 2.7c.2-.2.3-.4.3-.7 0-.3 0-.5-.2-.7-.3-.5-.7-.8-1.2-1-.2-.1-.4-.1-.7 0-.2 0-.4.2-.6.3.9.6 1.7 1.3 2.4 2.1zm-4.2.1l-1.3 1.7 2 2 1.6-1.6c-.7-.9-1.5-1.5-2.3-2.1zm-1.6-1.1l-4.3 5.3.7.9 4.5-5.6-.9-.6zm-8.7-.2c.4.5.8.9 1.2 1.4.8-.5 1.7-.8 2.6-.8 1-.1 2.1.1 3 .6l1.1-1.4c-1.2-.5-2.4-.8-3.7-.8-1.5 0-2.9.3-4.2 1zm-1.5-1.3c.3.2.6.5.8.7 1.1-.6 2.2-1.1 3.5-1.2 2.5-.4 5.2.3 8.1 2.5.5.4 1 .8 1.5 1.3l.7.7.7-.8c-.7-.8-1.4-1.5-2.3-2.1-3.2-2.4-6.2-3.1-8.9-2.7-1.4.2-2.8.8-4.1 1.6zM8 10.5c2.2-1.3 4.9-1.8 7.4-1.4 1.7.3 3.3.9 4.7 1.9 2-1.3 4.3-2 6.7-1.9 1.8 0 3.6.5 5.3 1.4.5-.7 1.2-1.2 2.1-1.4s1.7-.3 2.5 0c1.2.4 2.3 1.3 2.9 2.4.7 1.4.7 3.4-.5 4.6l-.6.6c.5 1.1.7 2.3.7 3.5 0 1.1-.2 2.1-.7 3.1.6.6 1.1 1.3 1.3 2.1.3.9.3 1.9 0 2.8-.2.7-.6 1.4-1.1 1.9-.5.5-1.2.9-1.9 1.1-1.8.4-3.4-.4-4.7-1.6-2.2 1.3-4.9 1.8-7.4 1.4-1.7-.3-3.3-1-4.7-1.9-.3.2-.5.3-.8.5-1.3.8-2.8 1.2-4.3 1.4-1.5.2-3.1 0-4.5-.4-.8-.2-1.5-.6-2.3-.9-.5.7-1.2 1.2-2.1 1.4-.8.3-1.7.3-2.5 0-.6-.2-1.2-.5-1.7-.9s-.9-.9-1.2-1.5c-.7-1.4-.7-3.4.5-4.6l.6-.6c-.5-1-.7-2.2-.7-3.3 0-1.1.2-2.3.7-3.3-.6-.6-1.1-1.3-1.3-2.2-.3-.9-.3-1.9 0-2.7.2-.7.6-1.4 1.1-1.9.5-.6 1.1-1 1.9-1.2.9-.2 1.9-.1 2.7.2.7.4 1.4.8 1.9 1.4zm14 5.1c.3-.3.5-.5.8-.7-.3-.4-.7-.9-1-1.3-1.7-1.9-4-3.2-6.5-3.6-2.3-.4-4.7 0-6.7 1.2l.7.8c1.8-1 3.8-1.3 5.8-1 2.3.4 4.4 1.6 5.9 3.3.4.5.7.9 1 1.3zm2.5 1.4c-.3.2-.5.5-.8.8l4.2 5.3.8-.7-4.2-5.4zm1.9-1.6c.5 0 1 0 1.5.2l.7-.8c-.7-.3-1.5-.5-2.2-.4-1.3.1-2.5.6-3.4 1.5-.7.6-1.2 1.3-1.5 2.1-.3.8-.5 1.7-.4 2.6.1.9.4 1.8.9 2.5l.7-.9c-.3-.5-.5-1.1-.6-1.8 0-.7.1-1.3.3-2 .2-.6.6-1.2 1.1-1.7.7-.7 1.8-1.2 2.9-1.3zm-2 4.6l-1.1-1.4c-.2.5-.3 1-.3 1.4 0 .5.1 1 .3 1.4l1.1-1.4zm-8.8 0l1.1 1.4c.2-.4.3-.9.3-1.4 0-.5-.1-1-.3-1.4.1 0-1.1 1.4-1.1 1.4z"/>
</svg>
