<svg xmlns="http://www.w3.org/2000/svg" viewBox="0 0 40 40">
	<path fill="#005288" d="M38.8.6c-.8.3-1.5.5-2.1.7.1-.2.1-.5.2-.7-.3 0-.6-.1-.8 0-.7.3-1.3.7-2 1-3.3 1.6-6.6 3.1-9.9 4.5-.5.2-1 .5-1.3 1-.3.5-.5 1-.6 1.6v.1l-.6 4.7c-2.1-1.9-4.8-2.9-7.6-2.9-1.6 0-3.1.4-4.5 1s-2.7 1.5-3.8 2.7c-1.1 1.1-1.9 2.5-2.5 3.9s-.8 3-.8 4.6c0 1.6.2 3.1.8 4.6s1.4 2.8 2.5 3.9 2.4 2 3.8 2.7c1.4.6 3 1 4.5 1 1.7 0 3.4-.4 4.9-1.2.1.1.2.2.3.2 2.7 1.9 6 3 9.3 3.1.7 0 1.4.2 2 .5.6.3 1.2.7 1.6 1.3l1.2 1.3h1.8c.6-.1 1.2-.3 1.7-.4.1-1.9-1.1-2.9-2.6-3.6-1.1-.5-2.2-1-3.3-1.6-.8-.4-1.5-1-2-1.7s-1-1.5-1.2-2.4c-.2-.4-.2-.8-.1-1.1.1-.4.3-.7.6-.9.2-.1.2-.5.3-.7s.1-.4.2-.7c.1-.6.3-1.1.4-1.7.1-.8.2-1.5.4-2.2.2-.8.3-1.7.4-2.6-.1-1-.2-2-.4-3 0-.5 0-1-.1-1.5l-.4-4.6c-.1-.4 0-.8.2-1.2.2-.4.5-.6.9-.8.4-.2.7-.5 1.1-.7.2-.1.2-.4.3-.5.3-.7 1.2-.5 1.4-1.3.5-.2 1-.4 1.4-.7.1-.1.1-.4.2-.6l1.4-1c-.3-.1-.5-.2-.8-.3.2-.1.5-.1.7-.2.6-.3 1.3-.7 1.9-1 .1-.1.2-.4.2-.5-.2-.1-.3-.1-.5-.1H37c.6-.6 1.6-.8 1.8-2zm-24.7 33c-3 0-5.8-1.2-7.8-3.3-2.1-2.1-3.2-5-3.2-7.9 0-3 1.1-5.8 3.2-7.9 2.1-2.1 4.9-3.3 7.8-3.3 2.8 0 5.5 1.1 7.5 3l-.7 5.8c-.2 1.7-.3 3.4-.5 5.2 0 .4-.2.8-.4 1.1s-.5.6-.9.8c-.7.2-1.5.3-2.2.1-.7-.2-1.4-.6-2-1.1-.3-.4-.7-.8-1.2-.9-.5-.2-1-.2-1.5-.1-.4.1-.8 0-1.2-.2-.3-.2-.7-.3-1.1-.3-.4 0-.8.2-1.1.5.8.3 1.6.7 2.3 1.1.8 1 1.8 1.6 2.7 2.5 1 1 3 3 4.4 4.2-1.4.4-2.7.7-4.1.7z"/>
	<path fill="#00aeef" d="M4.5 14.8L2.7 13c.7.3 1.4.6 2.1 1V9.9l1.1 4 2.4-2.4-1.8 2.9H9l-2.6.8 1.7 2L6.2 16v3.7l-1-3.6-2.7 2.3 2-2.9H2l2.5-.7zm14.2.4c.1.9.2 1.8.3 2.8l.6 4.6c.2 1.1.3 2.2.5 3.4.1-.3.2-.6.2-.8.2-1.7.3-3.4.5-5.2.4-3.8 1-7.5 1.4-11.2v-.3c0-.6.2-1.1.6-1.5.3-.4.8-.8 1.3-1 2.7-1.2 5.4-2.4 8.1-3.7l.3-.6c-.4 0-.6 0-.9-.1.4-.3.8-.5 1.1-.7.1 0 .2-.1.3-.1.1-.1.2-.1.2-.2s.1-.2.1-.3V0h-.8L30 1.2 19.7 6.5c-.4.1-.7.4-.9.7-.2.3-.4.7-.4 1.1-.1 1.2-.1 2.5 0 3.7.1 1 .2 2.1.3 3.2z"/>
</svg>