<svg xmlns="http://www.w3.org/2000/svg" viewBox="0 0 40 40">
	<path fill="#00528e" d="M38 .9C37.8.6 35 2 35 2c.1 0 .1-.1.1-.1.5-.4 1.5-.8 1.1-1.2-.2-.2-.5-.1-1.6.5-.5.3-3.1 1.4-5.8 2.6-2.3 1-6.3 2.7-6.7 3.2l-.1.1s0 .1-.1.1c-.2.3-.3.8-.4 1.4v.2c-.2.8-.3 1.8-.5 2.9-.5 3.3-1 8.3-1 8.3s-.1 3.4-.4 5c-.1.3-.1.5-.2.7 0 .1-.1.2-.1.3-.1.3-.3.6-.5.8-.6.7-2.2.5-2.6.4-1-.1-2-.8-2.1-1s-.8-1.1-1.7-1.2c-.3 0-1.3.2-1.7.2s-.9-.5-1.4-.6c-.4-.1-1.3.4-1.3.4s2.2.8 2.5 1.2c.3.4.9 1.3 1.7 1.7.8.4 3.6 3.5 3.6 3.5s.6.6 1.5 1.4c-.8.3-1.7.5-2.6.6C8.4 34.1 3 30 2.3 23.8c-.2-1.4-.1-2.7.3-4 .4-1.5 1-3 2-4.3 1.9-2.4 4.5-3.9 7.6-4.2 1.9-.2 3.8.1 5.5.7 0-.2 0-.4-.1-.6-1.7-.7-3.6-.9-5.5-.7-3.1.4-5.9 1.9-7.9 4.3-1.4 1.7-2.3 3.7-2.5 5.9-.1.3-.1.5-.1.9-.1.7-.1 2.1.1 2.9.7 6.2 6.5 10.8 12.9 10 1.3-.2 2.6-.5 3.8-1.1.9.7 2 1.4 3.2 1.9 3 1.3 6.7 1.4 7.5 1.5 1.7.2 3.2 2.4 3.7 2.8.5.4 3.7-.3 3.7-.3s-.2-.6-.4-1.5c-.1-.8-1.1-1.2-1.2-1.4-.2-.2-4.3-2.1-5-2.5-.6-.4-1.5-1.3-2.4-2.7s-.5-2.5-.4-2.8c.2-.3.5-.3.7-.7.2-.4.1-.4 0-.6 0-.2.1-.3.2-.6.2-.3.1-.3.1-.3l.1-.4c.1-.4 0 0 .1-.2l.1-.2s0-.2.1-.3c.1-.1-.1-.3-.1-.4.1-.2.1-.2.1-.5.1-.3 0-.2.1-.5 0-.3.1-.2.3-.4.2-.2-.2-.4-.2-.4s0-.2.3-.7c.3-.6 0 0 .1-.3s-.1-.5-.2-.7c-.1-.3.1-.2.1-.5l.1-.3c.1-.3.1-.4.1-.4l-.2-.6.1-.2c.1-.2 0-.5 0-.5l-.3-.7s0-.3.1-.5-.2-.9-.2-.9l.2-.7-.2-1.1-.2-.9s-.1-1.4-.1-1.9 0-1.2.1-1.9 2.2-1.6 2.4-2c.1-.3-1.4.2-1.4.2s2.6-.7 2.8-1.1c.1-.3-1.7.1-1.7.1-.2.1 0 0 0 0 .7-.2 2.6-.6 3.2-1.2.7-.6-1.3-.2-1.6-.1.3-.1 2.5-.7 2.8-1.3.2-.4-1.6-.1-1.6-.1.9-.2 2-.5 2.6-.9 1.3-.6 1.4-1.1 1.1-1.3-.3-.2-2.4.6-2.4.6-.1 0-.1 0-.1.1.1 0 .1-.1.1-.1.6-.2 1.3-.5 1.7-.8.9-.4 2-1.1 1.6-1.5z"/>
	<path fill="#00a1e9" d="M32.4.1c-.2-.2-1.6.3-1.6.3s-8.1 3.9-11.7 5.8c-.8.4-1.7 1.1-1.7 2.3 0 4 .8 9.8 1.2 12.9.4 3.1.7 4.3.6 4.4 0-.1.2-.4.3-.9.3-1.6.4-5 .4-5s.5-5 1-8.3c.3-2.2.6-4 1.1-4.7.3-.5 6.8-3.2 8-3.8 1.4-.6 1.6-.8 1.6-1.3.1-.3-1.4.2-1.4.2s1.3-.7 1.8-1c.4-.3.7-.6.4-.9zM5.4 14.5l2.1-3L4.9 14 3.7 9.9l.2 4.3-2.2-1.4 1.9 2-2.6.7 2.8-.2-2.3 3.2 2.7-2.6 1.1 3.9-.2-3.9 2 1.3-2-2 2.7-.8z"/>
</svg>