<svg viewBox="0 0 40 40" xmlns="http://www.w3.org/2000/svg">
	<path fill="#7F003F" d="M6.74121 21.4268 0 19.4043v-2.4717l6.74121 2.0225v2.4717Zm0 0c.22461 2.9218 1.34863 5.1689 2.92188 7.1914 1.57321 2.0224 3.82031 3.5957 6.06741 4.9433 2.9209 1.3487 6.0674 2.2471 9.2129 2.6973.7812.1738 1.5625.2803 2.3447.3457 1.2412.1035 2.4824.1035 3.7236.1035.6738 0 1.5723 0 2.4717-.2246.8984-.2246 1.7978-.2246 2.2471-.2246 1.5732 0 2.9209.2246 4.0449.4492v-.8994c-4.7188-2.4717-9.6631-4.9434-14.832-7.1904-5.8418-2.6973-11.9092-4.9444-18.20219-7.1914Zm0-2.4717v-.4492c0-.3194.05078-.6377.10352-.9327.05859-.3291.12109-.6279.12109-.8652 6.29298 2.0225 12.36038 4.4941 18.20308 6.9658 5.168 2.2471 10.1123 4.7198 14.8311 7.1914v2.4717c-2.9131-1.5264-5.9131-3.0527-8.998-4.5254-1.9112-.9131-3.8555-1.8056-5.8331-2.665-5.8427-2.6973-12.1347-5.169-18.42769-7.1914ZM0 14.4609v-2.4726l6.74121 2.0234c.22461.2246.67481.2246.89941.2246-.13574.4063-.27148.8936-.40722 1.3643-.08887.3105-.17774.6142-.26758.8828h-.22461L0 14.4609Zm0-4.9443V7.04492c2.24707.67383 4.49414 1.34863 6.74121 2.24707 1.12402.22461 2.24707.67383 3.37109 1.12401l-1.34863 2.0225c-.4082-.1358-.8164-.2725-1.22461-.458-.26562-.1211-.53125-.2637-.79785-.4414L0 9.5166Zm8.76367 2.9219c-.1123.1689-.21094.3379-.30273.5068-.27344.5049-.4834 1.0098-.82032 1.5156 6.06738 2.0225 11.91018 4.2696 17.30278 6.7412 5.1689 2.2471 10.1132 4.7188 14.832 7.1915v-2.4727c-4.7188-2.4717-9.6631-4.9434-14.832-7.1904-5.168-2.2471-10.5616-4.4942-16.17973-6.292Zm1.34863-2.0225c5.1689 1.7979 10.1123 3.8203 14.8311 5.8428 5.1689 2.2471 9.8877 4.7187 14.832 7.1904v-2.4717c-1.7422-.917-3.3721-1.7968-5.043-2.6689-2.4228-1.2656-4.9316-2.5176-7.9912-3.8477.8994-.4492 3.3711-.8994 5.169-.8994 1.7783.2227 3.1171.4463 4.4502.669l.0439.0058c.8994.2246 2.2471.6739 3.3711 1.5723V3c-1.5733.67383-3.3711.67383-4.4942.67383-.4394 0-.914-.06836-1.5839-.16602-1.043-.15136-2.5596-.37109-5.1582-.50781-1.1231 0-2.4717 0-3.5957.22461-3.3702.22461-6.7413 1.34863-8.9883 2.69629-2.2471 1.12402-4.2696 2.69726-5.8428 4.4951ZM4.26953 35.1357h.44922c.4502 0 .6748-.2246.4502-.4492 0-.4492-.22559-.4492-.4502-.4492h-.44922v.8984Zm1.52051-.3427c-.05469.1142-.16699.2285-.39649.3427.22461.2247.44922.4493.22461.6748v.6739h-.44921v-.6739c0-.1386 0-.2773-.10547-.3632-.06543-.0537-.17188-.0869-.34473-.0869h-.44922v1.124h-.44922v-2.6963h1.12305c.45019 0 .89941 0 .89941.6738 0 .1104 0 .2207-.05273.3311Zm-3.31836.3427c0 1.3487 1.12402 2.2471 2.24707 2.2471 1.12402 0 2.24707-.8984 2.24707-2.2471 0-1.3476-1.12305-2.247-2.24707-2.247-1.34766 0-2.24707.8994-2.24707 2.247Zm-.44922 0c0-1.3476 1.12402-2.4716 2.69629-2.4716 1.57324 0 2.69727 1.124 2.69727 2.4716 0 1.5733-1.12403 2.6973-2.69727 2.6973-1.57227 0-2.69629-1.3486-2.69629-2.6973Z"/>
</svg>