<svg xmlns="http://www.w3.org/2000/svg" viewBox="0 0 40 40">
	<g fill="#db0334">
		<path d="M21.3 14.6c.4 0 .8-.2 1.2-.3l13.4-5C34.1 6.4 29.1.6 21.4.1c-.5-.1-1.1-.1-1.7-.1C12.3 0 6.6 3.3 3 9.2.5 13 0 16.9 0 19.8c0 2 .2 3.5.4 4.2.2 1.7 1.1 3.5 1.6 3.8.3.2.8.4 1.3.4.3 0 .7-.1 1-.2l13.3-5c-.4-.7-1.2-2.1-2.7-5.3-2.4-5.1-3.3-8.2-3.5-10.5.1-.3.1-.5.1-.6 0-.7.4-1.4 1.1-1.4.9.1 1.7.8 2.6 1.7 1.7 1.7 4.1 5.7 4.9 6.8.3.7.7.9 1.2.9z"/>
		<path d="M18.6 25.4c-.4 0-.8.1-1.2.3L4 30.8c1.8 2.9 6.8 8.6 14.5 9.2.6.1 1.1.1 1.7.1 7.4 0 13.1-3.3 16.8-9.2 2.4-3.8 3-7.7 3-10.8 0-2-.2-3.4-.4-4.1-.2-1.7-1.1-3.5-1.7-3.8-.3-.2-.8-.4-1.4-.4-.3 0-.7.1-1 .2l-13.3 5c.4.7 1.2 2.1 2.7 5.3 2.4 5.1 3.3 8.1 3.5 10.5v.5c0 .7-.4 1.4-1 1.4-.9-.1-1.7-.8-2.6-1.7-1.7-1.7-4.1-5.7-4.9-6.8-.3-.6-.8-.8-1.3-.8z"/>
	</g>
</svg>
