<svg xmlns="http://www.w3.org/2000/svg" viewBox="0 0 40 40">
	<g fill="#f36f21">
		<circle cx="19.5" cy="10.5" r="10.5"/>
		<ellipse cx="19.5" cy="39.3" rx="10.5" ry=".7"/>
		<path d="M9 26.7c0 1.5 4.7 2.8 10.5 2.8S30 28.2 30 26.7c0-1.6-4.7-2.8-10.5-2.8S9 25.1 9 26.7zm10.5 5.6c7.6 0 10.5.7 10.5 1.7s-2.9 1.8-10.5 1.8S9 35 9 34s2.9-1.7 10.5-1.7z"/>
	</g>
	<g fill="#eb690a">
		<path d="M19.5 21.2c-5.9 0-10.6-4.8-10.6-10.7S13.6-.1 19.5-.1c5.9 0 10.7 4.8 10.7 10.6s-4.8 10.7-10.7 10.7zm0-21C13.8.2 9.1 4.8 9.1 10.6S13.7 21 19.5 21s10.3-4.6 10.3-10.4S25.2.2 19.5.2z"/>
		<path d="M19.5 36c-4.9 0-10.6-.3-10.6-2 0-1.2 3.5-1.9 10.6-1.9 7.2 0 10.7.6 10.7 1.9 0 1.6-5.8 2-10.7 2zm0-3.5c-9.3 0-10.4 1.1-10.4 1.5 0 .4.7 1.6 10.4 1.6s10.3-1.3 10.3-1.6c0-.5-1-1.5-10.3-1.5zm0-2.8c-5.9 0-10.6-1.3-10.6-3 0-1.9 5.5-3 10.6-3s10.7 1 10.7 3c0 1.6-4.8 3-10.7 3zm0-5.7c-5.7 0-10.4 1.2-10.4 2.7 0 1.3 4.3 2.6 10.4 2.6s10.3-1.4 10.3-2.6c0-1.5-4.6-2.7-10.3-2.7z"/>
		<path d="M19.5 40.2c-1.8 0-10.6 0-10.6-.9s8.9-.9 10.6-.9 10.7 0 10.7.9-8.9.9-10.7.9zm-10.2-.9c.7.2 4.4.5 10.2.5s9.5-.3 10.3-.5c-.7-.2-4.4-.5-10.3-.5s-9.5.3-10.2.5z"/>
	</g>
</svg>