<svg xmlns="http://www.w3.org/2000/svg" viewBox="0 0 40 40">
	<path fill="#003791" d="M24 .4v10.4h-4c-2.4 0-4.8 1-6.5 2.7s-2.7 4.1-2.7 6.5c0 2.4 1 4.8 2.7 6.5 1.7 1.7 4.1 2.7 6.5 2.7h4v10.4c4.5-.9 8.6-3.3 11.5-6.9C38.4 29 40 24.6 40 20s-1.6-9.1-4.5-12.6c-2.9-3.6-7-6.1-11.5-7z"/>
	<path fill="#ff4b5f" d="M20 32.4c-3.2-.1-6.3-1.4-8.6-3.8-2.3-2.3-3.5-5.4-3.5-8.7s1.3-6.3 3.5-8.7C13.7 9 16.8 7.6 20 7.5h.8V0H20C14.7 0 9.6 2.1 5.9 5.9 2.1 9.6 0 14.7 0 20s2.1 10.4 5.9 14.1C9.6 37.9 14.7 40 20 40h.8v-7.6H20z"/>
</svg>