<svg viewBox="0 0 40 40" xmlns="http://www.w3.org/2000/svg">
	<path fill="#003791" d="M23.9855.425781V10.7965h-4.0202c-5.0796 0-9.1711 4.0914-9.1711 9.1707 0 5.0776 4.0915 9.169 9.1694 9.169h4.0219v10.3707C33.1549 37.7431 40 29.7017 40 19.9655 40 10.3017 33.1582 2.26025 23.9855.425781Z"/>
	<path fill="#FF4B5F" d="M19.9651 32.3794c-6.8434 0-12.41865-5.5725-12.41865-12.4139 0-6.8415 5.57355-12.41557 12.41545-12.41557h.7775V0h-.7759C8.96049 0 0 8.9603 0 19.9638 0 31.0397 8.9605 40 19.9651 40h.7759v-7.6173h-.7759v-.0033Z"/>
</svg>