<svg viewBox="0 0 40 40" xmlns="http://www.w3.org/2000/svg">
	<path fill="#EB5C18" d="M23.8727 8.29778c-.1938.64248-1.5399 4.86442-4.2424 7.41052-2.8044-2.3557-4.3953-7.4955-4.3953-7.4955l.0068-.05099C13.3314 11.0852 12.06 14.59 12.06 14.59s2.7467 8.3487 7.5805 12.1764c4.6877-4.1642 7.3902-12.275 7.3902-12.275s-1.1082-3.0152-3.158-6.19362Zm.051-1.81524s-1.5501 4.65366-4.239 7.04346c-2.7738-2.196-4.3443-7.03327-4.3307-7.11145 0 0 1.5943-4.02482 4.2831-6.41455 2.7773 2.19597 4.2866 6.48254 4.2866 6.48254Zm2.7976 10.72826c1.6453 3.0017 2.5224 5.3846 2.5224 5.3846S25.7117 34.646 19.6813 40C13.4707 35.0778 10 22.7212 10 22.7212l.085-.2822c.1836-.5745.9076-2.5121 2.2198-4.9562.8532 2.3387 3.5013 8.5561 7.3799 11.7515 4.188-3.8718 6.3738-10.0314 7.0366-12.0235Z"/>
</svg>