<svg xmlns="http://www.w3.org/2000/svg" viewBox="0 0 40 40">
	<path fill="#006636" d="M17.4 0c-3 0-6 .6-8.7 1.9S3.6 5 1.7 7.3c-.5.6 0 1 .7.7 2.8-1.3 5.9-2 8.9-1.9 4.1 0 8.1 1.6 11 4.5 2.9 2.9 4.6 6.8 4.6 10.8 0 1.5-.3 3-.9 4.3-.6 1.4-1.4 2.6-2.5 3.7-1.1 1-2.3 1.9-3.7 2.5-1.4.6-2.9.9-4.4.9-2.2 0-4.2-.8-5.8-2.3C8.1 29 7.2 27 7.2 24.9c0-1.4.6-2.8 1.6-3.8s2.4-1.6 3.8-1.6c.4 0 .9.1 1.3.2.4.2.8.4 1.1.7.3.3.6.7.7 1.1.2.4.3.8.3 1.3 0 .3-.1.5-.2.8-.1.2-.3.5-.4.6-.2.2-.4.3-.7.4-.2.1-.5.1-.8.1-.7 0-1 .4-.4 1 .3.3.7.6 1.1.7.4.2.9.3 1.3.3 1.4 0 2.8-.6 3.8-1.6s1.6-2.4 1.6-3.8c0-2.1-.9-4.1-2.4-5.6s-3.6-2.3-5.8-2.3c-3.1 0-6 1.2-8.1 3.3s-3.4 5-3.4 8c0 4 1.7 7.9 4.6 10.8 2.9 2.9 6.9 4.5 11 4.5 2.7.1 5.5-.3 8-1.3 2.6-1 4.9-2.4 6.9-4.3s3.5-4.1 4.6-6.6c1.1-2.5 1.6-5.1 1.6-7.8s-.6-5.3-1.6-7.8c-1.1-2.5-2.6-4.7-4.6-6.6-2-1.9-4.3-3.3-6.9-4.3-2.3-.9-5-1.3-7.8-1.3 0 .1 0 0 0 0z"/>
</svg>
