<svg viewBox="0 0 40 40" xmlns="http://www.w3.org/2000/svg">
	<path fill="#fff" d="M39.4716 18.7062L40 17.0469l-1.7185.0543c-.805-.0296-1.5803-.3012-2.2321-.7802h.2321c1.0469-.005 2.0049-.6025 2.4691-1.5408l.7556-1.6148c-.5926.005-1.1852-.0296-1.7729-.1037-.5629-.1333-1.0666-.4395-1.4469-.874-.5136-.5482-1.2247-.8593-1.9753-.8642-.2913 0-.5827.0493-.8642.1382.0395-.1333.0741-.2666.0988-.4049.1185-.963-.1531-1.93581-.7506-2.70124l-1.3037-1.60494-.8 1.87654c-.1284.26667-.321.49877-.5679.66667-.1383-.67161-.4642-1.28395-.9482-1.7679-.8099-.82963-1.921-1.29383-3.0815-1.28395-.2024 0-.4049.01481-.6024.04444l-1.5605.30617c.1333-.52345.3456-1.02222.6321-1.48148l.8592-1.33827-2.1629.20247-.6914-1.48148-1.3333.72592L20 2l-1.2346 1.21975-1.3333-.69135-.6914 1.44691-2.1629-.24692.8592 1.34321c.2865.45926.4988.95803.6321 1.48149l-1.4814-.29136h-.0494c-.2074-.02963-.4148-.04445-.6223-.04445-1.1604-.00987-2.2716.45433-3.0814 1.28395-.4889.48889-.8247 1.11112-.95806 1.7926-.23703-.16297-.42963-.38519-.55802-.64692l-.80494-1.89135L7.2 8.36543c-.58765.76543-.84938 1.73337-.7358 2.69137.02469.1383.05926.2716.09876.4049-.28148-.0889-.57284-.1382-.86419-.1382-.75062.0049-1.46173.316-1.97531.8642-.37531.4296-.87408.7358-1.4321.874-.59259.0889-1.19506.1235-1.797533.1037l.735803 1.6395c.4642.9383 1.42222 1.5358 2.46914 1.5408h.23209c-.64197.4691-1.4074.7407-2.20246.7753L0 17.0469l.528395 1.6593c.395062 1.2987 1.516045 2.2518 2.864195 2.4247-.13827.874-.69136 1.6296-1.48148 2.0247l-1.323456.5382.711116 1.2395c.58765.9136 1.6 1.4568 2.68148 1.4469.28148 0 .56296-.0296.8395-.0888.06914.3012.15803.6024.25679.8938.24692.6518.26173 1.3629.04939 2.0247l-.64198 1.3481 1.43704.3803c.32099.0839.65679.1234.98765.1234.23704 0 .46914-.0247.70124-.079.1679-.0395.3358-.0889.49382-.1531.18272.3309.41482.6371.67655.9087.91852.9432 2.22225 1.4222 3.87655 1.4222h1.1802l-2.4345 1.0123 1.8469.9136c.7457.3655 1.5062.6963 2.2815.9877l-.2223.6419.6371.2914c1.0568.4148 2.1778.6469 3.3136.6864h1.516c1.1309-.0395 2.2469-.2765 3.2988-.6913l.6173-.2865-.2173-.6419c.7852-.3013 1.5555-.642 2.3061-1.0223l1.8124-.879-2.4296-.9876h1.1851c1.6544 0 2.963-.4938 3.8766-1.4222.2667-.2716.4938-.5778.6765-.9087.1581.0642.326.1136.4939.1531.2321.0543.4642.079.7012.079.3309 0 .6667-.0444.9877-.1234l1.4419-.3803-.6271-1.3234c-.2371-.6716-.2272-1.4074.0247-2.0741.1037-.3013.1876-.6074.2567-.9136.2766.0593.563.0889.8445.0889 1.0913.0099 2.1086-.5531 2.6864-1.4815l.7012-1.2247-1.3037-.5333c-.7901-.3951-1.3432-1.1506-1.4814-2.0247 1.3481-.1778 2.4691-1.1259 2.8642-2.4296l-.0198.0395z"/>
	<path fill="#FCE527" d="M25.9359 23.9506H14.084v4.4444c0 1.8272 1.3185 2.963 3.2691 2.963 1.6297 0 2.0593.0642 2.6618.6666.3802-.4098.9185-.6419 1.4815-.6321v-.0691l.3753-1.1556-.6371-.6963c-.2568.0791-.5234.1087-.7901.0939-.4-.005-.7951-.0445-1.1852-.1235h-.1234c-.0544 0-.0544 0-.0692.0296l-.074.1235-.1334.2222-.2568-.0592-1.1407-.2667-.158.2568v.0296l.1382.1531-.0592.1975c-.1037.242-.2519.4593-.4395.647l-.2864.3061-.2618-.3259-.1926-.242c-.2074-.2716-.2568-.6271-.1382-.9481l-.321.1333-.1432-.316-.079-.2223c-.2025-.4691-.0494-1.0123.3604-1.3086l.9186-.4938.874.1728c0-.0839.0544-.3852.0791-.4593h-.0494l-.4939.1877-.4938-.3358c-.0988-.0988-.1037-.2617 0-.3654l.4691-.7111-1.1901-1.4815 1.7827.7012.1235-.1481.2469-.2963.2815.2666c.0741.0741.1234.163.1481.2667.4939.1975 1.4074.7753 1.4815 1.7136l-.2815.1136c.0346.0493.0791.0888.1334.1135l1.3037.1284.1185-.0345c.2222-.084.4593-.1284.6963-.1334.237 0 .4691.0544.6815.1581.0938-.0346.1975-.0544.2963-.0593h.0642c.6963 0 1.0469.5235 1.3234.9383l.1432.2074c.242.3457.563.8494.5778.8691l.1432.2222-.1778.2074c-.1629.2173-.4197.3408-.6913.3408-.079.0049-.158.0049-.2371 0-.0691-.0148-.1382-.0346-.2074-.0642 0 .0691 0 .1531-.0395.2222l-.2024 1.1654c1.3432-.2716 2.2913-1.4765 2.237-2.8493l-.0049-4.4642zM14.0692 23.5901h9.2296c-.3753-.395-.5037-.9629-.3358-1.4815-.1234-.0592-.242-.1382-.3457-.2271-.3605.2666-1.4814 1.0666-1.7481 1.2691l-.0593.0395-3.6247-.642h-.074c-.1186.005-.2371.005-.3556 0-.0346.163-.1778.2766-.3407.2766h-.0593c-.1926-.0346-.3259-.2173-.2963-.4099v-.079c-.4691-.3358-.6913-.9185-.5679-1.4815v-.0642l.0543-.0395s.0692-.0494.163-.1037l-.2617-.0395c-.0988-.0198-.163-.1086-.1482-.2074.0148-.0988.1037-.163.2025-.1482h.0049l.6272.0988.0592-2.2074.9334-.9877.5827 1.2247-.6123 2.1235.553.0889c.0988.0197.163.1086.1482.2074-.0148.0889-.0889.1481-.1778.1481h-.0296l-.4494-.074v.0345c.0494.0889.1235.1581.2173.2025l2.7605.0444.7061-.6962c-.5382-.1877-.9234-.6618-.9876-1.2297-.3457-.1333-.6272-.3901-.7852-.721-.1333-.3111-.158-.6617-.0642-.9876-.4346-.1729-.8296-.4346-1.1506-.7704h-4.0988c.1976.484.3111.9975.3309 1.5161v5.3234z"/>
	<g fill="#222220">
		<path d="M17.8569 25.8914c-.0593 0-.1136.0444-.1186.1037V26c-.0049.0642.0445.1235.1087.1284h.0049c.0691 0 .1185-.0543.1185-.1185 0-.0692-.0494-.1185-.1135-.1185z"/>
		<path d="M17.8519 25.8865c.0049 0 .0049.0049.0049.0049.005 0 .005-.0049.0099-.0049h-.0148zM25.9209 33.9852l-.6814-.2617.1876-.7062.2074-.7704c-.9333.4791-1.9111.8642-2.9185 1.1507-.4938.1382-.8494.2024-.8494.2024v.4988c-.6074.0988-1.2197.1531-1.837.158h-.0543c-.6173-.0049-1.2297-.0592-1.8371-.158v-.4938s-.3605-.0692-.8543-.2074c-1.0074-.2865-1.9852-.6716-2.9185-1.1507l.2025.7704.1925.7062-.6864.2617-.7407.2815c1.0173.5284 2.079.9679 3.1753 1.3136l-.2617.7111c1.1901.4543 2.4642.6765 3.7382.6469h.0297c1.274.0296 2.5481-.1926 3.7382-.6469l-.2568-.7111c1.0914-.3457 2.1531-.7852 3.1704-1.3136l-.7457-.2815zm-11.7629.3259l1.1061-.3703-.3308-1.0864c.7259.3604 1.4765.6617 2.2518.8987l-.5432 1.4815c-.8543-.2272-1.6889-.5383-2.4839-.9235zm5.8716 2.2766l-.0247-.0198c-1.0864-.0049-2.1679-.1531-3.2148-.4395l.6666-1.8074c.8297.2074 1.684.321 2.5432.3259h.0544c.8592-.0098 1.7135-.1185 2.5432-.3259l.6666 1.8074c-1.0518.2963-2.1432.4494-3.2345.4593zm3.3679-1.3235v-.0148l-.5432-1.4815c.7753-.237 1.5259-.5382 2.2518-.8987l-.3308 1.0864 1.1209.3753c-.8.3901-1.6395.7062-2.4987.9333zM20 5.79757c1.116-.02963 2.2123.30617 3.1209.95309.1433-.73087.4149-1.4321.805-2.06914l-1.121.1284-.5827-1.24939-1.1309.58272L20 3.06177l-1.0914 1.08148-1.1309-.58272-.5827 1.24939-1.121-.1284c.3902.63704.6618 1.33827.805 2.06914.9086-.64692 2.0049-.98272 3.121-.95309zm-2.8544-.55309l.3112.03457.1333-.28148.3901-.83951.7259.37531.2815.14321.2272-.20741L20 3.67411l.7851.79506.2272.22223.2815-.14321.721-.37531.395.8395.1334.28149.3111-.03457.2963-.03457c-.1185.27161-.2222.55309-.3062.83951-1.7827-.91358-3.9012-.91358-5.6839 0-.084-.28642-.1877-.5679-.3062-.83951l.2913.01975zM34.647 15.9901l-.1334-.1629c-.9185-1.1704-1.7926-2.2815-3.353-2.7902.0642-.0543.1284-.1037.1975-.1481.7407-.4198 1.2642-1.1407 1.4321-1.9753.0839-.7556-.1284-1.51112-.5926-2.11359l-.4938-.61728-.3111.7358c0 .04444-.5482 1.22467-1.6544 1.22467H29.4124c.0593-.77529-.2222-1.54072-.7704-2.09381-.6666-.68148-1.5851-1.06173-2.5382-1.05679-.1778 0-.3556.01482-.5284.03951l-.7556.14815.4692.61728c.3654.49383.6962 1.34815.3061 1.80741-.1876.16296-.4.29136-.6321.38024-.4938.23211-1.2049.56301-1.2049 1.39261 0 .5383.4197 1.1012 1.1753 1.5802 2.2272 1.4124 3.6049 2.8692 4.2025 4.5087.9234 2.4987-.2815 3.921-1.4519 4.6716l-.5234.3358.4592.4197c.4099.3507.9136.5679 1.4519.6223h.4493c.4593 0 .9136-.0642 1.3531-.1976-.1086.1926-.2419.3753-.3851.5432-.6667.7753-1.6544 1.2-2.6766 1.1457h-.4395l-.0346.4395c-.0049.6173.2667 1.2.7358 1.6.1235.1087.2618.1976.4099.2667-.7309.7111-1.1457 1.6839-1.1605 2.7062 0 .558-.1284 1.1111-.3704 1.6148l-.4938.7407h.879c1.4519 0 2.563-.4 3.3334-1.195.4-.4198.6963-.9284.8691-1.4815.2864.2419.6222.4099.9877.4938.1728.0395.3506.0593.5284.0593.2666 0 .5333-.0346.7901-.0939l.5629-.1481-.2469-.5235c-.3111-.8345-.3111-1.758 0-2.5926.1827-.5432.3111-1.1061.3803-1.679.4444.2272.9382.3408 1.437.3358.8198.0099 1.5852-.395 2.0296-1.0815l.2716-.4938-.4938-.2074c-1.6543-.6864-2.0197-2.5333-2.0938-3.5309.163.0346.3259.0544.4938.0593l.1383.0938c1.7975 0 2.4-1.8321 2.4247-1.9111l.2024-.6469h-.6765c-1.4222-.0494-2.7506-.721-3.6296-1.842zm1.6839 3.9013h-.0691c-.3605.0049-.7161-.0939-1.0222-.2815 0 0-.2618 3.5704 2.4 4.6765v.0148c-.3506.5334-.9531.8494-1.5902.8395-.7209.0445-1.4172-.2617-1.8716-.8197.0149.8395-.1234 1.679-.4049 2.4691-.3605.9531-.3605 2.0099 0 2.963-.2222.0543-.4444.0839-.6716.0839-.1383 0-.2815-.0148-.4148-.0493-.6568-.1581-1.1803-.642-1.3926-1.2791 0 0 .1037 3.4272-3.8914 3.4272h-.0296c.3012-.5728.4593-1.2099.4543-1.8568.1729-2.5333 1.8914-2.8938 1.8914-2.8938-.4741-.0593-.9235-.2272-1.3185-.4938-.3605-.3013-.5679-.7457-.5778-1.2148 1.1555.0493 2.2716-.4297 3.0271-1.3087.4544-.5185.7556-1.1506.884-1.8272-.637.4791-1.4222.721-2.2173.6865h-.4049c-.4297-.0445-.8395-.2124-1.1704-.4939 1.521-.9876 2.5877-2.6765 1.6444-5.2395-.7604-2.0543-2.5827-3.5901-4.4148-4.7456-.6074-.3754-.9728-.8-.9728-1.1655 0-.8592 1.2197-.8839 1.7235-1.48146.5777-.6716.2172-1.75802-.2865-2.40987.1432-.02469.2914-.03457.4346-.03457.8247-.00988 1.6198.32099 2.1926.91358.5827.55309.8049 1.38765.5827 2.15802l.2667.0543c.1629.0297.3259.0445.4938.0494h.1086c1.447 0 2.0988-1.51604 2.0988-1.51604s1.5407 1.89634-.7259 3.37774c-.3901.2519-.563.4939-.4938.7408l.0345.1629.163.0297c1.6444.4444 2.4691 1.5802 3.4913 2.8691.9679 1.2296 2.4297 1.9704 3.9951 2.0247h.0296s-.4938 1.5704-1.9753 1.5704z"/>
		<path d="M33.1604 13.2593c.5531.316 1.0321.7457 1.4075 1.2592.2814.4346.6814.7803 1.1555.9877.1778.0593.3704.0889.558.0889.7556 0 1.4469-.4296 1.7926-1.1013l.2864-.6419-.6963-.0395c-.7506-.1383-1.4271-.5235-1.9259-1.1013-.3703-.4-.8889-.6321-1.437-.637-.4247.0049-.8346.1333-1.1901.3605l-.642.4494.6913.3753zm1.1556-.7062l-.0148.0049c.4197 0 .8148.1828 1.0963.4939.5778.6617 1.3679 1.1012 2.237 1.2444-.2666.4988-.7852.8099-1.3531.8148-.1382 0-.2765-.0247-.4098-.0691-.8-.2716-1.0815-1.4815-2.4692-2.2123.2716-.1778.5877-.2717.9136-.2766zM33.4864 19.6247l-.0098-.0099c-.405-3.2593-2.7704-5.6148-5.4025-7.042-.242-.1333-.4691-.2419-.6864-.3457 1.0864.2223 2.2173-.0444 3.0913-.7259 0 0-1.5259 1.121-4.6469.1037.8642.563 2.5432 1.3531 4.079 2.6371 3.8321 3.3679 1.0914 6.6568 1.0914 6.6568 1.1457-1.0865 1.5457-2.7457 1.0321-4.2371.8099 1.3482 1.2 2.9087 1.116 4.479-.1086 2.5877-1.5456 4.8494-3.0271 6.6519-.4445.5679-.7506 1.2345-.879 1.9457.2518-.7062.6321-1.3581 1.1259-1.921 1.6049-1.8815 2.963-3.8321 3.1555-6.642.168.4938.8494 1.9309 1.9359 2.4691 0 0-1.363-.8197-1.9754-4.0197zM13.042 31.6692c-.237-.5037-.3654-1.0568-.3704-1.6148-.0148-1.0222-.4345-1.9951-1.1654-2.7062.1481-.0691.2864-.158.4099-.2666.4691-.4.7407-.9828.7358-1.6l-.0297-.4396h-.4444c-1.0173.0494-2.0049-.3703-2.6716-1.1456-.14321-.1679-.27161-.3506-.38519-.5432.43951.1333.89379.1975 1.35309.1975h.4494c.5383-.0543 1.0469-.2716 1.4568-.6222l.4592-.4198-.5234-.3358c-1.1753-.7506-2.37534-2.1728-1.4519-4.6716.5976-1.6247 1.9753-3.0914 4.2222-4.5037.7556-.4938 1.1704-1.042 1.1704-1.5802 0-.8297-.6963-1.1605-1.2049-1.3926-.2321-.08893-.4445-.21732-.6321-.38029-.3951-.45925-.0642-1.33333.3061-1.8074l.4939-.61729-.7605-.14814c-.1729-.02963-.3506-.03951-.5284-.03951-.963-.02963-1.8914.34074-2.5729 1.01728-.558.54815-.8493 1.31852-.795 2.09875h-.2963c-1.11112 0-1.63458-1.17529-1.65433-1.22467l-.31111-.73581-.49383.61729c-.45926.60247-.6716 1.35799-.58765 2.11359.1679.8346.68642 1.5555 1.42716 1.9753.06913.0444.13827.0938.19753.1481-1.5605.4939-2.43457 1.6198-3.35309 2.7902l-.13333.1679c-.87901 1.121-2.21235 1.7926-3.63457 1.8419h-.67654l.2074.647c0 .079.62223 1.9111 2.42469 1.9111h.08889c.16791-.005.33087-.0247.49383-.0593-.07407.9877-.43951 2.8445-2.09876 3.5309l-.49383.2074.2716.4938c.44445.6864 1.20988 1.0914 2.02963 1.0815.49877.0049.98766-.1087 1.4321-.3358.06914.5728.19753 1.1358.38025 1.679.31111.8346.31111 1.758 0 2.5926l-.24691.5235.56296.1481c.25679.0593.52345.0938.79012.0938.17778 0 .35556-.0197.5284-.0592.36543-.084.70123-.2519.98765-.4939.17284.5531.46914 1.0618.86914 1.4815.7753.7951 1.8864 1.1901 3.3333 1.1951h.879l-.4444-.8099zm-.4247.2765c-3.99506 0-3.89629-3.4271-3.89629-3.4271-.21235.637-.7358 1.121-1.39259 1.279-.13334.0346-.27655.0494-.41482.0494-.22716 0-.44938-.0296-.66666-.084.36049-.9531.36049-2.0098 0-2.9629-.28149-.7902-.41482-1.6297-.4-2.4692-.45432.5581-1.15062.8642-1.87161.8198h-.02469c-.64198.0099-1.24444-.3111-1.59506-.8445 2.66173-1.1061 2.4-4.6765 2.4-4.6765-.30617.1877-.66173.2864-1.02222.2815h-.05433c-1.48148 0-1.9753-1.5704-1.9753-1.5704h.02963c1.56543-.0494 3.03209-.7901 4-2.0197 1.01728-1.2889 1.84691-2.4247 3.49135-2.8692l.16297-.0296.03456-.163c.04445-.2518-.12839-.4938-.49382-.7407-2.26667-1.4815-.72593-3.37779-.72593-3.37779s.64198 1.51609 2.09881 1.51609h.0691c.1679-.005.3309-.0198.4938-.0494l.2667-.0543c-.2272-.77041 0-1.60498.5827-2.15807.5728-.59259 1.3679-.92345 2.1926-.91358.1432 0 .2914.00988.4346.03457-.4939.65679-.8593 1.74321-.2815 2.40988.4938.5778 1.7185.6025 1.7185 1.4815 0 .3654-.3407.7901-.9481 1.1703-1.8371 1.1556-3.6593 2.6914-4.4149 4.7457-.94317 2.563.1235 4.2667 1.6445 5.2395-.3309.2766-.7408.4494-1.1704.4939h-.4099c-.79503.0345-1.58021-.2074-2.21725-.6865.1284.6766.42963 1.3087.87901 1.8272.75556.8741 1.87654 1.358 3.03214 1.3086-.0099.4692-.2173.9136-.5778 1.2149-.3951.2666-.8445.4345-1.3185.4938 0 0 1.7234.3506 1.9111 2.8938-.005.6469.1531 1.284.4543 1.8568l-.0247-.0198z"/>
		<path d="M3.71358 15.5901h.00493c.18766 0 .38025-.0296.55803-.0888.47407-.2075.87407-.5531 1.15555-.9877.37037-.5136.84939-.9432 1.40247-1.2593l.69136-.3703-.64197-.4494c-.35556-.2272-.76544-.3556-1.18519-.3605-.54815.0049-1.06667.237-1.43704.642-.49382.5728-1.17531.9629-1.92098 1.1012l-.6963.0346.28148.6419c.34568.6717 1.0321 1.0914 1.78766 1.0963zm.88888-2.5382c.27655-.3111.67161-.4939 1.09136-.4939.32099.005.63704.1038.90864.2766-1.39753.7457-1.68888 1.9407-2.46913 2.2123-.1284.0445-.26667.0692-.40494.0692-.57284 0-1.0963-.3161-1.36296-.8198.86913-.1432 1.65926-.5827 2.23703-1.2444zM6.8593 21.1605c-.08395-1.5704.30123-3.1309 1.11605-4.479-.51358 1.4913-.11358 3.1506 1.0321 4.237 0 0-2.74568-3.2889 1.09135-6.6568 1.5358-1.2839 3.2099-2.074 4.0741-2.637-3.121 1.0173-4.64693-.1037-4.64693-.1037.87403.6815 2.00003.9481 3.08643.7259-.2173.1037-.4445.2173-.6864.3457-2.63213 1.4321-5.01238 3.7877-5.4025 7.0469v-.0247c-.61235 3.2-1.97531 4.0198-1.97531 4.0198 1.08148-.5334 1.7679-1.9753 1.93086-2.4692.18272 2.8149 1.55556 4.7655 3.1605 6.642.48885.563.87405 1.2148 1.12595 1.921-.1334-.7062-.4395-1.3728-.88892-1.9358C8.3951 25.9901 6.963 23.7284 6.8593 21.1605zM19.0963 15.2148c.1728-.1679.4148-.2469.6568-.2173v.9333c-.0049.2321-.0642.4544-.1778.6568h.9333c-.1135-.2024-.1728-.4247-.1777-.6568v-.9333c.237-.0296.479.0494.6518.2173v-.6469h-1.8864v.6469zM18.7062 10.7358h-.0099c.1432.1235.3111.2222.4939.2815l.1185.0543v-.6123L18.2124 10c.0543.3062.2321.5728.4938.7358zM21.3087 10.7309l-.005.0049c.2618-.163.4395-.4296.4939-.7358l-1.0963.4593v.6074l.1135-.0544c.1828-.0592.3507-.158.4939-.2814z"/>
		<path d="M23.2741 8.25675c0-.92346-1.5556-1.75309-3.2692-1.75309s-3.2691.82963-3.2691 1.75309l.0345.22716.6865 3.95059-.6865.4-1.7925 1.0173s-.4.2074-.5877.3309c-.6765.4938-.8198 1.1555-.4296 1.442.0987-.6717.6864-1.1655 1.3679-1.1457.5679.0148 1.0963.3012 1.4173.7703.0987.1186.1876.247.2666.3754.1037.1679.2074.316.3111.4592h-4.5728c.3852.6617.6074 1.4074.6568 2.1728v10.1581c0 2.4691 1.8913 3.6296 3.9506 3.6296 1.5803 0 1.7926-.0741 2.6617.7951.8692-.8692 1.0815-.7951 2.6618-.7951 2.0444 0 3.9506-1.1704 3.9506-3.6296V18.2666c.0494-.7654.2716-1.5111.6568-2.1728h-4.6223c.1037-.1432.2075-.2914.3112-.4593.0839-.1284.1728-.2568.2666-.3753.3259-.4691.8543-.7555 1.4222-.7704.6815-.0197 1.2692.4741 1.3679 1.1457.3951-.2815.2519-.9876-.4296-1.4419-.1827-.1284-.5827-.3309-.5827-.3309l-1.7778-1.0469-.6864-.4.6864-3.95064.0297-.20741zm-5.8766.45432l2.4099.81481v3.78272l-1.7729-.9383-.637-3.65923zm-3.6593 8.03953h4.1531c.321.3358.7161.6024 1.1507.7703-.0939.326-.0692.6766.0642.9877.158.3309.4395.5877.7851.721.0642.5679.4494 1.042.9877 1.2296-.2963.3013-.5877.5827-.7062.6963l-2.7605-.0444c-.0938-.0445-.1679-.1136-.2173-.2025v-.0346l.4494.0741h.0297c.0888 0 .1629-.0593.1777-.1481.0148-.0988-.0494-.1877-.1481-.2074l-.5531-.0889.6123-2.1235-.5827-1.2247-.9333.9877-.0593 2.2074-.6271-.0988c-.0988-.0197-.1877.0445-.2074.1432v.005c-.0149.0987.0493.1876.1481.2074l.2617.0395c-.0938.0543-.158.0938-.1629.1037l-.0543.0395v.0642c-.1235.5629.1037 1.1457.5679 1.4815v.079c-.0297.1926.1037.3753.2963.4098h.0592c.163 0 .3062-.1135.3408-.2765.1185.0049.2321.0049.3506 0h.074l3.6198.6568.0593-.0395c.2864-.2025 1.3876-.9877 1.7481-1.2691.1037.0888.2222.1679.3457.2271-.1679.5185-.0395 1.0864.3358 1.4815h-9.2741v-5.3383c-.0197-.5185-.1333-1.0321-.3309-1.516zm8.6124 4.8839c-.3753.2766-1.2988.9482-1.6346 1.1852l-3.2839-.5728v-.0889c.0543-.2222.0839-.4494.0889-.6766l2.7654.0445.0543-.0543c.0445-.0445.9185-.8889 1.363-1.3778.1185.1481.2568.2716.4148.3704-.079.4049.0049.8246.2321 1.1703zm-5.4864-.5926v.0148c.0741.1383.1827.2568.316.3359-.0049.2024-.0247.4-.0592.5975 0 .0444 0 .0889-.0346.1333v.0692c-.2272 0-.4494-.0346-.6667-.1038-.395-.2123-.6173-.6469-.5531-1.0913.1778-.1235.3803-.2025.5926-.2321.1828-.0049.3457.1037.405.2765zm-.3408-.6568l.0544-2.0888.4938-.4939.3012.6272-.5876 2.0346-.2618-.0791zm5.8025 11.0025h-.4741l.3704-1.2099c.0593-.1679-.2469-.3852-.3753-.5777.3012.1827.6123.3456.9333.4938 0 .0395-.4543 1.2938-.4543 1.2938zm1.2691-1.3531L23.5555 30l-.2568 1.3333c-.1629 0-.3358.0346-.4938.0444l.2716-1.2839c.079-.3803-.9432-.4938-1.4469-1.2494-.3309.2765-.7555.4049-1.1802.3605-.3753-.0049-.7457-.0445-1.1112-.1185-.0641-.005-.1283-.005-.1925 0-.1531-.0099-.3013.0691-.3803.2024l-.0741.1235-1.4074-.3407-.3358.5827c-.0543.079-.0444.1876.0247.2568l.0938.1037c-.0938.1827-.2123.3506-.3555.4938l-.2074-.2568c-.158-.2568-.1432-.5876.0346-.8296l.553-.9334 1.1803.1778-.1827-.4197c-.2469-.5531.1284-1.2593.1679-1.6642 0 .1234-.1284.1481-.2568.1481h-.3408c-.0247-.0049-.0543-.0049-.079 0l-.321.1926-.2518-.2321c-.0395-.0741-.0247-.1629.0346-.2173l.5827-.6568-.6914-.8049.9877.4938.2963-.3555c.079.079.0444.2864.0444.2864.7161.1778 1.2148.8296 1.1951 1.5704v.1432c.0987.158.2568.2666.4345.3111l1.3383.1333c.2667-.0839.5383-.1383.8148-.1728.2371 0 .4741.0741.6716.2024.0939-.0641.2074-.1037.321-.1086h.0445c.5975 0 .8493.5432 1.1703.9877.242.3407.5679.8543.5679.8543-.0938.1383-.2469.2222-.4148.2222-.0592.0049-.1136.0049-.1728 0-.642-.1185-.7358-1.442-1.1013-1.5457h-.0592c-.0692 0-.1333.0395-.1679.1037.1679.4494.0691.6321.2518.9877.1334.2123.3013.4049.4939.5679 0 0-.0247.1975-.0544.3407zM16.4 28.7407h-.0099l.0593.1531c-.0395.1333-.4939.3259-.4939.3259l-.0987-.2173c-.1284-.3111-.0346-.6666.237-.8691l.7457-.4543.795.1679c-.0049.158.0445.3111.1383.4395l-.8346-.158-.4938.3456c-.079.0692-.0938.1778-.0444.2667zm9.5506-.321c.0543 1.3729-.8988 2.5778-2.2469 2.8445l.2271-1.1951c0-.0691.0247-.1531.0346-.2222.0691.0296.1383.0494.2074.0642.079.0049.158.0049.2371 0 .2716 0 .5284-.1235.6913-.3408l.1778-.2074-.1482-.2024s-.3308-.5235-.5777-.8692l-.1383-.2074c-.2766-.4148-.6272-.9383-1.3235-.9383h-.0642c-.0987.005-.2024.0247-.2963.0593-.2123-.1037-.4444-.158-.6814-.158-.2371.0049-.4741.0494-.6963.1333l-.1186.0346-1.3037-.1284c-.0543-.0247-.0987-.0642-.1333-.1136l.2815-.1136c-.079-.9432-.9877-1.521-1.4815-1.7136-.0247-.1037-.0741-.1926-.1481-.2666l-.2815-.2667-.2469.2963-.1235.1481-1.8272-.7506 1.1902 1.4815-.4692.7111c-.0987.0988-.1037.2618 0 .3655l.4939.3358.4938-.1877h.0494c0 .0741-.0543.3753-.079.4593l-.8593-.1482-.9185.4938c-.4247.3062-.5729.8692-.3506 1.3433l.1037.2222.1432.316.321-.1333c-.1186.321-.0692.6765.1382.9481l.1926.247.2568.3259.2864-.3062c.1877-.1876.3358-.4049.4395-.6469l.0593-.1975-.1383-.1531v-.0297l.1581-.2567 1.1407.2666.2568.0593.1383-.2272.074-.1234c0-.0247 0-.0297.0692-.0297h.1234c.3902.079.7852.1186 1.1803.1235.2666.0148.5333-.0148.7901-.0938l.6321.721-.3753 1.1555v.0691c-.563-.0098-1.1012.2223-1.4815.6321-.6074-.6024-1.037-.6666-2.6617-.6666-1.9506 0-3.2692-1.1408-3.2692-2.963v-4.4444h11.8519v4.4444zm.321-11.6691c-.2025.479-.3111.9926-.3309 1.516v3.3284c-.4296-.0938-.7506-.4592-.7802-.8987v-.1531h-.1482c-.2568-.0198-.4938-.1383-.6716-.321-.2173-.2519-.3358-.5679-.3407-.8988-.2124.3457-.1926.7901.0543 1.1161.1926.2419.4741.4049.7802.4444.0889.5728.5482 1.0173 1.121 1.0914v1.6296h-2.074c-.5432-.2765-.7704-.9235-.5284-1.4815l.079-.1778-.1827-.0691c-.5926-.2074-.9186-.8444-.7309-1.4469l.0395-.1482-.1383-.0642c-.5185-.3012-.8049-.8888-.721-1.4814-.2716.2765-.3407.6963-.1679 1.0419-.0987.1136-.2271.2469-.3703.3951-.5185-.1086-.8939-.558-.9136-1.0864v-.1235l-.1136-.0444c-.3012-.0889-.5481-.2963-.6913-.5729-.0939-.2271-.1136-.4839-.0494-.721.0987.0198.1975.0346.2963.0445.0987.0049.2024.0049.3012 0 .8 0 1.5605-.3457 2.0938-.9383l4.1877.0198zm-3.2-3.3679l.8099.4938.2024.1185c-.4197.1136-.8.3408-1.1012.6568l-.0346.0296c-.0691.0741-.1333.1482-.1975.2272l-.0395.0494c-.0642.079-.1235.1629-.1778.2518l-.0296.0445c-.0692.0987-.1334.2074-.1975.316-.4494.8939-1.3235 1.4914-2.3161 1.5902-.9926-.0988-1.8667-.6963-2.316-1.5902-.0642-.1086-.1284-.2123-.1926-.316L17.442 15.2l-.1581-.2568-.0444-.0544c-.0642-.079-.1284-.153-.1926-.2222l-.0346-.0345c-.3012-.3161-.6815-.5433-1.1012-.6568l.2074-.1186.8148-.4938.8346-.4938 2.2271 1.2099 2.2272-1.1704.8494.4741zm-1.0963-.9877l-1.7729.9334V9.53082l2.405-.81481-.6321 3.67899zM20 9.13082l-2.6371-1.05679c.2223-.53333 1.2593-.98765 2.6371-.98765 1.3778 0 2.4148.45432 2.637.98765L20 9.13082z"/>
	</g>
</svg>
