<svg xmlns="http://www.w3.org/2000/svg" viewBox="0 0 40 40">
	<path fill="#00afaa" d="M0 12.6h9.5C13.8 20 20 26.2 27.4 30.4V40c-6.4-2.2-12.1-5.8-16.9-10.5C5.8 24.7 2.2 18.9 0 12.6zM27.4 12.6H9.5c-2.3-3.9-4-8.2-5-12.6h10.4c3.3 0 6.5 1.3 8.9 3.7 2.3 2.3 3.6 5.5 3.6 8.9zM27.3 0c.7 3.1 2.2 5.9 4.5 8.2 2.2 2.2 5.1 3.8 8.2 4.5V0H27.3z"/>
	<path fill="#00539b" d="M27.4 12.6v17.9C20 26.2 13.8 20 9.6 12.6h17.8z"/>
	<path fill="#f39a00" d="M40 25.2v10.4c-4.4-1.1-8.6-2.7-12.6-5v-18c3.3 0 6.5 1.3 8.9 3.7s3.7 5.5 3.7 8.9z"/>
</svg>