<svg xmlns="http://www.w3.org/2000/svg" viewBox="0 0 40 40">
	<g fill="#a58a57">
		<path d="M32.4 26.2L20.1 13.9l-.2-.2-.2.2L7.6 26.2h.8l11.5-11.6 11.6 11.6h.9z"/>
		<path d="M5.3 26.2L20 11.5l14.7 14.6h1L20 10.5 4.3 26.2h1zM0 30.5h40l-2.1-2.1H2.2L0 30.5z"/>
	</g>
	<path fill="#00345e" d="M27.1 18.7h-.9v-4.5c.8-.1 2.3-.1 2.6-.1.5 0 2.3.1 3.3.2 0-.2-.1-.5-.1-.6 0-.2 0-.4.1-.6-1.2.1-3.2.2-4.2.2-.4 0-2.3-.1-3.5-.2.1 1 .1 4.1.1 6.1v4.2c-1.4 1.4-2.7 1.9-3.8 1.9-3.6 0-5.2-3.8-5.2-7.3 0-3.7 1.5-7.6 5.2-7.6 1.1 0 2.3.6 3.7 2.1h.3l.5-1.8c-1.4-.9-3-1.1-4.4-1.1-2.8 0-5 1.3-6.2 3.6-.8 0-1.8.1-2.8.1-1.6 0-3.8-.1-4.7-.1 0 .2.1.5.1.6 0 .1 0 .4-.1.6 1.2-.1 2.3-.2 3.5-.1h.3c.1 1 .1 3.7.1 5.1 0 2.3 0 5-.1 6.9.3 0 .8-.1 1-.1.1 0 .6 0 .9.1-.1-2-.1-4.7-.1-6.9 0-1.4 0-4.1.1-5.1h1.5c-.4 1.2-.7 2.5-.6 3.8 0 5.1 2.8 8.2 6.9 8.2 1.5 0 2.9-.4 4.2-1.2 0 .4 0 .8-.1 1.2.3 0 .7-.1 1-.1.8 0 2 .1 2.3.1 2.9 0 5.1-1.2 5.1-3.8-.2-3.5-4.1-3.8-6-3.8zm.6 6.4h-1.5v-5.5c3.4 0 4.9.6 4.9 2.6 0 1.9-1.2 2.9-3.4 2.9z"/>
</svg>
