<svg xmlns="http://www.w3.org/2000/svg" viewBox="0 0 40 40">
	<path fill="#000" d="M31.7 11.6l-.7.6.8 2.5-2.3-1.2-.8.6 2.6 1.4-2.8 2.2-.7-1 1-.8-.7-.9-1 .8-.8-1 1-.8-.7-1-5 4.1 4.8 3.7.9-1c.6 0 1.1.5 1.3 1l-.9 1 .5.4c1.2-1 2.8-1.7 4.4-1.7 3.4 0 6 2.7 6 6 0 1-.3 2.3-.9 3.2l.9.7c0 .6-.6 1.3-1.2 1.5l-.9-.7c-1.2 1.1-2.8 1.7-4.4 1.7-3.4 0-6-2.6-6-5.9 0-1 .4-2.2.8-3.1l-.6-.4-.9 1.1c-.6-.1-1.2-.5-1.3-1.1l.9-1-4-3.3v5.2h1.3c.2.3.3.5.3.8 0 .3-.1.6-.3.9H21v.6c2.9.5 5.4 3 5.4 5.9 0 3-2.4 5.5-5.4 6v1c-.3.2-.6.3-1 .3s-.8-.1-1.1-.3v-1c-3-.4-5.3-3-5.3-6s2.3-5.4 5.3-5.8v-.7h-1.4c-.2-.3-.3-.5-.3-.9 0-.3.1-.6.3-.9h1.4v-5.2l-4.1 3.3.9 1c-.2.6-.7 1-1.3 1.1l-.9-1.1-.5.6c.5 1 .9 2 .9 3.1 0 3.3-2.7 5.9-6 5.9-1.6 0-3.2-.6-4.4-1.7l-.8.7c-.5-.2-1.2-.9-1.2-1.5l.9-.7c-.5-1-.9-2.1-.9-3.2 0-3.3 2.6-6 6-6 1.6 0 3.2.7 4.4 1.7l.5-.3-.9-1c.2-.5.7-1 1.3-1l.9 1 4.8-3.7-5-4.1-.7 1 1 .8-.7 1-1.1-1-.7.9.8.6-.7 1-2.7-2.2 2.5-1.4-.7-.6-2.3 1.2.7-2.3-.7-.6-.9 2.7-2.8-2.2.7-.9 1 .8.8-.9-1-.9.7-.9 1 .7.7-.9-2.1-1.4c.2-.7.6-1.3 1.3-1.7l11.3 9V9h-1.2v1.1h-1.2V9h-1.2v1.1h-1.2V6.8L17 7.9V7l-2.5-1L17 5v-.9l-2.7 1V1.7h1.2v1.2h1.2V1.7h1.2v1.2h1.2V.2c.2-.1.5-.2.9-.2s.7.1 1 .2V15l11.3-9c.6.4 1.1 1 1.3 1.7l-2.1 1.7.7.9 1-.7.7.9-1 .9.7.9 1-.8.7.9-2.8 2.2c0-.3-.8-3-.8-3zm-23 16.3c0 1 .7 1.6 1.6 1.7l-1.4 1c-1-.3-1.9-1.5-1.9-2.5 0-.3.1-.5.2-.8h-.3c-1.3 0-2.4-1.2-2.7-2.4l1.5-1.1v.4c0 .8.8 1.5 1.6 1.5.9 0 1.7-.7 1.7-1.6 0-1-.8-1.7-1.9-1.7-2 0-3.9 1.9-3.9 4.3 0 .7.2 1.4.4 2l1-.7c.6.3 1.1.9 1.2 1.6l-.8.7c.9.7 2 1 3 1 2.3 0 4.1-1.8 4.1-3.4 0-1-.6-1.7-1.6-1.7-1.1.1-1.8.8-1.8 1.7zm12.1 3.5c0 .9.7 1.6 1.6 1.6.6 0 .9-.3 1.3-.6v1.8c-.4.3-.9.3-1.4.3-1 0-1.8-.3-2.3-1.1-.5.9-1.4 1.1-2.4 1.1-.4 0-1-.1-1.4-.3v-1.8c.4.4.7.6 1.3.6.9 0 1.6-.7 1.6-1.6 0-.9-.5-1.6-1.5-1.6-1.7 0-2.4 1.6-2.4 3 0 2.1 1.6 3.9 3.6 4.3v-1c.4-.2.7-.2 1-.2.4 0 .7 0 1.1.2v1c2-.3 3.6-2.3 3.6-4.3 0-1.5-.6-3-2.4-3-.7-.1-1.3.7-1.3 1.6zm10.1-7.2c0 .8.9 1.6 1.7 1.6s1.6-.7 1.6-1.5v-.4l1.4 1.1c-.3 1.4-1.5 2.5-2.9 2.4.1.3.1.5.1.8 0 1-.9 2.2-1.9 2.5l-1.3-1.1c.9-.1 1.6-.7 1.6-1.7s-.8-1.6-1.7-1.6c-1 0-1.6.8-1.6 1.7 0 1.1 1.4 3.4 4.2 3.4 1.1 0 2.1-.3 2.9-1l-.9-.7c.2-.7.6-1.3 1.2-1.6l.9.7c.4-.6.5-1.3.5-2 0-1.9-1.5-4.3-3.9-4.3-1 0-1.9.6-1.9 1.7z"/>
</svg>
