<svg viewBox="0 0 40 40" xmlns="http://www.w3.org/2000/svg">
	<path fill="#E2001A" d="M20.8187 10.3258c.0167-.0167.0167-.0334.0334-.0501.3175-.45114.1838-.78531-.0334-.9691-.1337-.11696-3.2247-1.9883-3.2247-1.9883-.2172-.15038-.3676-.40101-.3676-.70176 0-.45113.2673-.802.9023-.9858 1.9883-.55138 9.0058-.83542 11.3784-.83542.8187 0 2.2556 0 3.5255.03342l-.0501-.05013C29.4904 1.80451 24.9457 0 20 0 8.95572 0 0 8.95572 0 20c0 4.8622 1.73768 9.3066 4.61153 12.7652 2.50626-3.609 8.72177-12.5146 10.07517-14.3358 1.5706-2.1053 5.1462-6.7669 5.7477-7.5522l.0334-.0334.3509-.518zM7.80286 35.8563C11.178 38.4629 15.4052 40 20 40c11.0443 0 20-8.9557 20-20 0-3.3417-.8187-6.4995-2.2723-9.2564.685-.6684 1.487-1.72101.9523-3.02426-.167-.3843-.9356-1.28655-1.1361-1.50376l.0334.08354c.4845 1.47034-.4678 2.38931-1.1696 3.00752-.3843.35087-5.4637 5.12946-11.4119 10.34256-5.2464 4.5948-11.1278 9.2564-14.5196 11.8128-4.7786 3.5756-5.71427 4.0936-5.71427 4.0936-.13367.0668-.33417.1337-.48455.1337-.28404 0-.55138-.1337-.70175-.3342-.03342.0668-.03342.117-.01671.1504.51796.8354 1.37009 1.7878 1.85463 1.7878.15038 0 .36759-.0669.50126-.1337-.01671-.0167.36758-.2172 1.88805-1.3033z"/>
	<path fill="#FEFEFE" d="M20.8521 10.2757c.3008-.45117.1838-.78534-.0334-.96913-.1337-.11696-3.2247-1.98831-3.2247-1.98831-.2172-.15037-.3676-.401-.3676-.70175 0-.46784.284-.80201.9022-.9858 1.9883-.55138 9.0059-.83542 11.3785-.83542 1.1195 0 3.3584 0 4.812.08354 1.6374.10025 2.8906.45113 3.208 1.23642.6015 1.55389-.401 2.52298-1.1194 3.17461-.3843.35088-5.447 5.12944-11.4119 10.34254-5.2464 4.5948-11.1278 9.2565-14.5196 11.8128-4.77864 3.5757-5.71431 4.0936-5.71431 4.0936-.13367.0668-.33417.1337-.50126.1337-.50125 0-.88554-.3843-.88554-.8689 0-.1838.05012-.3675.15037-.5012 0 0 9.42354-13.5673 11.12784-15.873 1.721-2.2891 5.8312-7.6692 5.8312-7.6692s.0669-.0501.3676-.4845z"/>
</svg>
