<svg xmlns="http://www.w3.org/2000/svg" viewBox="0 0 40 40">
	<path fill="#ab0873" d="M16.2 15.9c-1.9 1.3-3.4 3.3-3.4 5.9 0 2.1 1.1 4.1 2.7 5.6 1.1.9 1.7.9 1.7-.1V16.5c.1-.6-.4-.8-1-.6zm7.2-6.5c-.4-.2-.6-.4-.6-.7V4.9c0-.4-.4-.7-.9-.4-1.6 1.1-2.7 1.9-4.3 2.9-.3.1-.4.4-.4.8V9c0 .3-.3.5-.5.7-.7.3-1.5.5-2.1.8C10.1 12.6 7 16.9 7 21.9c0 4.5 2.6 9.1 6.7 11.6.8.5 1.6.7 2.4-.1 2.1-2 4.3-4 6.4-6 .3-.3.5-.7.5-1.2v-9.5c0-.8.5-.7.9-.4 2 1.3 3.4 3.5 3.4 5.8 0 1.9-.7 3.5-1.9 4.8-.4.5-.4.5-.5 1.2v5.1c0 .8.8.8 1.2.5 4.2-2.3 7-6.8 7-11.8.1-6.1-4.4-11.1-9.7-12.5zM5.8 0h28.5C37.4 0 40 2.7 40 5.8v28.5c0 3.2-2.6 5.8-5.8 5.8H5.8c-3.2 0-5.8-2.6-5.8-5.7V5.8C0 2.7 2.6 0 5.8 0z"/>
</svg>
