<svg xmlns="http://www.w3.org/2000/svg" viewBox="0 0 40 40">
	<path fill="#fff" d="M2.5 15.7L0 14.4l20-6.7 20 6.7-2.5 1.3 2.5.8-2.5 1.3 2.5.9-2.3 1.2 2.3.8-10 5.1v.2c0 3.5-4.5 6.2-10 6.2-5.4 0-9.9-2.8-9.9-6.2v-.3L0 20.6l2.3-.8L0 18.7l2.5-.9L0 16.5l2.5-.8z"/>
	<g fill="#016350">
		<path d="M9.9 23.8v1h.1l-.1-1zM20 9.8l-14.8 5 4.9 2.5c.9-2.9 4.9-5.1 9.8-5.1s9 2.2 9.8 5.1l4.9-2.5c.1 0-14.6-5-14.6-5z"/>
		<path d="M20 7.7L0 14.4l2.5 1.3-2.5.8 2.5 1.3-2.5.9 2.3 1.2c-.2.1-2.3.7-2.3.7l9.9 5v-.9L2.3 21l1.2-.4 6.3 3.2v-1L2.5 19l1.3-.4 6 3v-1.1l-7.3-3.8 1.3-.3 6 3.1v-1l-7.4-3.8 17.6-6 17.5 5.9-7.5 3.7v7.5l10-5.2-2.3-.8 2.3-1.2-2.5-.9 2.5-1.3-2.5-.8 2.5-1.3-20-6.6zm10 13.9l6.1-3.1 1.2.4-7.4 3.7c.1-.3.1-.7.1-1zm7.8-.6l-7.7 3.9v-1.1l6.4-3.2 1.3.4zm-7.8-.5v-1.1l6.1-3.1 1.2.4-7.3 3.8z"/>
		<path d="M9.9 20.5l.1-1h-.1v1zm0 2.1l.1-1h-.1v1z"/>
	</g>
	<g fill="#d7b56d">
		<path d="M20 28.9c-5.4 0-9.9-2.8-9.9-6.2v1.1c0 3.5 4.5 6.2 9.9 6.2 5.5 0 10-2.9 10-6.2v-1.1c0 3.5-4.5 6.2-10 6.2z"/>
		<path d="M20 31.1c-5.4 0-9.9-2.9-9.9-6.2v1.2c0 3.5 4.5 6.2 9.9 6.2 5.5 0 10-2.8 10-6.2v-1.2c0 3.4-4.5 6.2-10 6.2z"/>
		<path d="M29.9 18.2v.2c0 .4 0 1-.2 1.4-1 2.8-5 4.8-9.8 4.8-5.4 0-9.9-2.8-9.9-6.2v1.1c0 3.5 4.5 6.2 9.9 6.2 5.5 0 10-2.8 10-6.2v-1.3z"/>
		<path d="M20 26.7c-5.4 0-9.9-2.8-9.9-6.2v1.1c0 3.5 4.5 6.2 9.9 6.2 5.5 0 10-2.8 10-6.2v-1c0 3.3-4.5 6.1-10 6.1z"/>
		<path d="M28.9 18.3c0-1.3-.9-2.5-2.2-3.5v1.3c.7.6 1.2 1.4 1.2 2.2 0 .8-.4 1.5-1.2 2.2v1.2c1.4-.8 2.2-2.1 2.2-3.4z"/>
	</g>
</svg>
