<svg viewBox="0 0 40 40" xmlns="http://www.w3.org/2000/svg">
	<path fill="#01A489" d="m40 14.7153-2.5555 1.3142L40 16.8321l-2.5555 1.3134L40 19.0219l-2.3366 1.1675L40 20.992l-10.0004 5.0371v-.8764l7.7376-3.8705-1.3142-.4378-6.4234 3.213V22.962l7.4449-3.7229-1.2404-.4377-6.2045 3.0662v-1.0215l7.4449-3.7967-1.2404-.437-6.2045 3.1383v-1.1674l7.4449-3.7221L20 9.02151 2.55462 14.8612l7.44496 3.7246v1.1666l-6.13075-3.1383-1.31421.4378 7.44496 3.795v1.0223l-6.13075-3.0653-1.31421.4378 7.44496 3.722v1.0953l-6.42261-3.2121-1.24125.4378 7.66386 3.868v.8756L0 20.992s2.04386-.6559 2.33572-.8026L0 19.0219l2.55462-.8756L0 16.8321l2.55462-.8026L0 14.7153 20 8l20 6.7153Zm-20.0008-4.5985-14.817 4.9633 4.9641 2.4809c.8748-2.9187 4.9625-5.1084 9.8529-5.1084 4.8911 0 8.978 2.1897 9.8544 5.1092l4.9642-2.4808-14.8186-4.9642Zm6.7161 5.1084c1.3872.9486 2.2628 2.1169 2.2628 3.4311s-.8765 2.5546-2.2628 3.431v-1.2412c.7297-.6567 1.1675-1.3872 1.1675-2.189 0-.7296-.4378-1.5331-1.1675-2.1168v-1.3151Z"/>
	<path fill="#CCAC70" d="M29.9998 25.1526v1.1668c0 3.4309-4.4528 6.2044-9.9999 6.2044-5.4747 0-9.9999-2.7735-9.9999-6.2044v-1.1676c0 3.4309 4.5252 6.2769 9.9999 6.2769 5.5471 0 9.9999-2.8467 9.9999-6.2761Zm-.2188-5.037c-.9774 2.7894-5.0362 4.8174-9.7811 4.8174-5.4747 0-9.9999-2.7736-9.9999-6.2777v1.0966c0 3.4309 4.5252 6.2029 9.9999 6.2029 5.5471 0 9.9999-2.7735 9.9999-6.2044v-1.0219c0 .4377-.0664.9509-.2188 1.3871Zm-9.7811 9.1237c-5.4747 0-9.9999-2.7728-9.9999-6.2761v1.095c0 3.431 4.5252 6.277 9.9999 6.277 5.5471 0 9.9999-2.8476 9.9999-6.2777v-1.0951c0 3.5026-4.4528 6.2769-9.9999 6.2769Zm0-2.1894c-5.4747 0-9.9999-2.7728-9.9999-6.2037v1.0943c0 3.4309 4.5252 6.2045 9.9999 6.2045 5.5471 0 9.9999-2.7736 9.9999-6.2784v-1.0219c0 3.4301-4.4528 6.2052-9.9999 6.2052Z"/>
</svg>