<svg xmlns="http://www.w3.org/2000/svg" viewBox="0 0 40 40">
	<path fill="#3B175C" d="M20.3107 0c.5327 0 1.0993.0220648 1.7265.0724987V3.9102c0 16.9095.6447 24.2193 3.1443 35.4913-3.1939.7991-6.5816.7991-9.77-.0063 2.5162-11.3539 3.1655-18.6637 3.1655-35.485V.0724987C19.2106.0220648 19.7772 0 20.3107 0Zm19.298 21.4313c0-6.5769-3.5824-12.3595-8.9646-15.65347l.0725 4.46497c3.1994 2.7502 5.2262 6.7503 5.2262 11.1885 0 2.0268-.4334 3.9606-1.1938 5.7274-2.3161-2.2002-3.9662-4.7881-4.993-7.8441-1.2388-3.699-1.528-7.7495-1.5721-12.6983l.0055-2.12768-.4539-.18913-.4161-.16076c-.8416-.31521-1.7084-.57526-2.5902-.77227l.0055 3.24353C24.8513 23.6976 27.8119 30.741 32.2162 36.035c4.5044-3.3995 7.3925-8.6762 7.3925-14.6037ZM15.8796 6.61315l.0055-3.24353c-1.1884.26635-2.3491.6446-3.4602 1.12215l.0055 2.12768c-.0497 4.94405-.3334 8.99925-1.5721 12.69835-1.02133 3.0559-2.67699 5.6391-4.993 7.844-.76045-1.7668-1.19387-3.7006-1.19387-5.7274 0-4.4445 2.0213-8.4382 5.22621-11.1884l.0725-4.46501C4.58238 9.06865 1 14.8512 1 21.4344c0 5.9276 2.89365 11.2042 7.39251 14.6038 4.41529-5.2877 7.37039-12.3374 7.48709-29.42505Z"/>
</svg>