<svg viewBox="0 0 40 40" xmlns="http://www.w3.org/2000/svg">
	<path fill="#0E3263" d="M19.88 13.32c.3381-.03.6786.0109 1 .12v-9H22s-.12 2.48.32 9.28c2.5592.5631 4.8931 1.8746 6.705 3.7678 1.8118 1.8931 3.0196 4.2823 3.4699 6.8638.4502 2.5815.1225 5.2385-.9414 7.6332-1.0639 2.3948-2.816 4.419-5.0335 5.8152-.08-.08-.2-.28-.32-.4-4-5-5-12.56-5.2-19.16.56.12 1.12.2 1.68.28.8252 5.5823 3.3214 10.7838 7.16 14.92 1.3786-1.7124 2.0827-3.8702 1.9796-6.0662-.1032-2.1959-1.0065-4.2782-2.5396-5.8538-1.725-1.8539-3.9465-3.1729-6.4-3.8-1.1656-.2801-2.3614-.4144-3.56-.4-1.1981-.0032-2.3925.131-3.56.4C10.64 19 6.8 23 6.8 27.8c.05093 2.0325.75188 3.9951 2 5.6 3.8394-4.1308 6.3238-9.3369 7.12-14.92.5914-.0604 1.179-.1539 1.76-.28-.28 6.6-1.24 14.08-5.2 19.08-.1238.1933-.2573.3802-.4.56-2.20029-1.4291-3.92798-3.4779-4.96505-5.8879-1.03707-2.4099-1.33704-5.0731-.86206-7.6534.47498-2.5803 1.70363-4.9621 3.53089-6.8448 1.82732-1.8827 4.17132-3.182 6.73622-3.7339.36-6.76.28-9.28.28-9.28h1.12l-.08 9.08c.2961-.0987.6085-.1395.92-.12V0h1.16v13.32h-.04zm.12 4.84c.12 6.32.56 14.16 2.64 19.48.2475.5887.5279 1.1629.84 1.72-1.3433.3749-2.7262.5897-4.12.64-1.3961-.0243-2.7823-.2397-4.12-.64.32-.72.64-1.32.92-1.92 2-5.28 2.52-13 2.56-19.28H20z"/>
</svg>
