<svg viewBox="0 0 40 40" xmlns="http://www.w3.org/2000/svg">
	<linearGradient id="gr1" x1="5.34" y1="12.15" x2="5.34" y2="25.2" gradientUnits="userSpaceOnUse">
		<stop stop-color="#571356"/>
		<stop offset=".25" stop-color="#A30046"/>
		<stop offset=".34" stop-color="#B40B3A"/>
		<stop offset=".51" stop-color="#D41E25"/>
		<stop offset=".74" stop-color="#A30046"/>
		<stop offset=".76" stop-color="#9D0247"/>
		<stop offset=".92" stop-color="#6B0E52"/>
		<stop offset="1" stop-color="#571356"/>
	</linearGradient>
	<path fill="url(#gr1)" d="M10.68 31c-1.75581-.059-3.42136-.7924-4.6505-2.0476C4.80036 27.6972 4.10216 26.0166 4.08 24.26V10.68c-.00133-.2131.03967-.4244.12061-.6215.08094-.19719.20022-.37631.35092-.527.15069-.1507.32981-.26998.52696-.35092.19714-.08094.4084-.12194.62151-.12061-1.17654-.00392-2.33133.31706-3.33709.92757C1.35715 10.5981.539476 11.4744 0 12.52v11.94c1.05559 1.9265 2.59653 3.5436 4.46995 4.6908C6.34337 30.298 8.48418 30.9355 10.68 31z"/>
	<linearGradient id="gr2" x1=".21" y1="10.06" x2="10.24" y2="5.78004" gradientUnits="userSpaceOnUse">
		<stop stop-color="#ED1C24"/>
		<stop offset=".1" stop-color="#D7142E"/>
		<stop offset=".26" stop-color="#BB093B"/>
		<stop offset=".4" stop-color="#AA0243"/>
		<stop offset=".5" stop-color="#A30046"/>
		<stop offset=".57" stop-color="#960349"/>
		<stop offset=".75" stop-color="#740C50"/>
		<stop offset=".9" stop-color="#5F1154"/>
		<stop offset="1" stop-color="#571356"/>
	</linearGradient>
	<path fill="url(#gr2)" d="M5.7 9.00004h4c.5304 0 1.0391-.21072 1.4142-.58579s.5858-.88378.5858-1.41421c0-.53044-.2107-1.03915-.5858-1.41422s-.8838-.58578-1.4142-.58578h-4c-.74759-.00264-1.48834.14234-2.17978.42661-.69144.28426-1.31996.70223-1.84952 1.22993S.720966 7.81133.43427 8.50176C.147573 9.1922-.00000463 9.93244 0 10.68v1.82c.540227-1.048 1.35698-1.9282 2.36174-2.54513C3.36651 9.33791 4.52096 9.0077 5.7 9.00004z"/>
	<linearGradient id="gr3" x1=".520001" y1="26.06" x2="36.3" y2="11.81" gradientUnits="userSpaceOnUse">
		<stop stop-color="#00AEEF"/>
		<stop offset=".14" stop-color="#02ABEC"/>
		<stop offset=".25" stop-color="#07A1E3"/>
		<stop offset=".34" stop-color="#1091D3"/>
		<stop offset=".42" stop-color="#1D7BBD"/>
		<stop offset=".51" stop-color="#2D5EA0"/>
		<stop offset=".58" stop-color="#413B7D"/>
		<stop offset=".65" stop-color="#571356"/>
		<stop offset=".69" stop-color="#641053"/>
		<stop offset=".77" stop-color="#86074C"/>
		<stop offset=".82" stop-color="#A30046"/>
		<stop offset=".84" stop-color="#AD0441"/>
		<stop offset=".95" stop-color="#DB162C"/>
		<stop offset="1" stop-color="#ED1C24"/>
	</linearGradient>
	<path fill="url(#gr3)" d="M36.88 12.22c-.3631-2.0118-1.4169-3.83378-2.9795-5.15181C32.3378 5.75015 30.3642 5.01871 28.32 5H18v19.3c-.042 1.816-.8025 3.5412-2.1148 4.7973C14.573 30.3533 12.8161 31.0376 11 31c-.1198.01-.2402.01-.36 0-2.19139-.0714-4.32607-.7143-6.19241-1.865S1.04806 26.3658 0 24.44c.0883817 2.8581 1.28621 5.5694 3.33961 7.5593C5.39301 33.9892 8.14058 35.1014 11 35.1c2.8877.0161 5.6647-1.1103 7.7253-3.1334C20.786 29.9434 21.9631 27.1876 22 24.3V9h6.58c3.0708.00413 6.0299 1.1521 8.3 3.22z"/>
	<linearGradient id="gr4" x1="34.22" y1="12.37" x2="34.22" y2="26.3" gradientUnits="userSpaceOnUse">
		<stop stop-color="#571356"/>
		<stop offset=".26" stop-color="#A30046"/>
		<stop offset=".41" stop-color="#C6152F"/>
		<stop offset=".5" stop-color="#D41E25"/>
		<stop offset=".64" stop-color="#B60B3A"/>
		<stop offset=".75" stop-color="#A30046"/>
		<stop offset=".91" stop-color="#710D51"/>
		<stop offset="1" stop-color="#571356"/>
	</linearGradient>
	<path fill="url(#gr4)" d="M40 24.6c-.0136-1.4518-.3301-2.8849-.9293-4.2073-.5993-1.3225-1.468-2.5053-2.5507-3.4727.3425-.9632.5183-1.9777.52-3 .0072-.5641-.0464-1.1274-.16-1.68-2.2507-2.0502-5.1757-3.20313-8.22-3.24h-.22c1.2449.05206 2.4198.59019 3.2724 1.4989.8526.9086 1.3149 2.1154 1.2876 3.3611-.001.3358-.0345.6707-.1 1-.1252.6273-.3696 1.2248-.72 1.76-.1556.1908-.2676.4134-.3281.652-.0606.2387-.0683.4877-.0226.7296.0457.242.1438.471.2873.6711.1434.2001.3289.3664.5434.4873.6001.3275 1.1409.7534 1.6 1.26 1.0839 1.1851 1.6835 2.734 1.68 4.34.0148 1.5258-.531 3.004-1.5337 4.1542C33.4036 30.0644 32.0136 30.8066 30.5 31c2.0308-.0423 4.0065-.6683 5.691-1.8031C37.8756 28.062 39.1979 26.4662 40 24.6z"/>
	<linearGradient id="gr5" x1="39.74" y1="29.84" x2="21.05" y2="29.84" gradientUnits="userSpaceOnUse">
		<stop stop-color="#ED1C24"/>
		<stop offset=".14" stop-color="#DD162C"/>
		<stop offset=".42" stop-color="#B2063F"/>
		<stop offset=".5" stop-color="#A30046"/>
		<stop offset=".57" stop-color="#960349"/>
		<stop offset=".75" stop-color="#740C50"/>
		<stop offset=".9" stop-color="#5F1154"/>
		<stop offset="1" stop-color="#571356"/>
	</linearGradient>
	<path fill="url(#gr5)" d="M30.52 31H23.3c-.5304 0-1.0391.2107-1.4142.5858-.3751.375-.5858.8837-.5858 1.4142 0 .5304.2107 1.0391.5858 1.4142S22.7696 35 23.3 35h6.56c2.7029-.0342 5.2834-1.1327 7.1816-3.0572C38.9399 30.0184 40.0029 27.4231 40 24.72v-.12c-.8047 1.8602-2.125 3.4512-3.8048 4.5853-1.6798 1.134-3.649 1.7637-5.6752 1.8147z"/>
</svg>
