<svg xmlns="http://www.w3.org/2000/svg" viewBox="0 0 40 40">
	<path fill="#003870" d="M0 1.3c0-.2 0-.3.1-.5S.3.5.4.4C.5.3.7.2.8.1c.1-.1.3-.1.4-.1h37.5c.3 0 .7.1.9.4s.4.5.4.9v37.4c0 .2 0 .3-.1.5s-.2.3-.3.4-.3.2-.4.3c-.1.1-.3.1-.5.1H1.2c-.2 0-.3 0-.5-.1s-.3-.2-.4-.3c-.1-.1-.2-.3-.3-.4v-.5V1.3z"/>
	<path fill="#ed1b34" d="M33.6 20.1c.5 0 1-.2 1.4-.4.4-.3.7-.7.9-1.1.2-.5.2-1 .1-1.5s-.3-1-.7-1.3c-.4-.4-.8-.6-1.3-.7-.5-.1-1 0-1.5.1-.5.2-.9.5-1.1.9-.3.4-.4.9-.4 1.4 0 .7.3 1.3.8 1.8s1.1.8 1.8.8z"/>
	<g fill="#fff">
		<path d="M17.1 7.8c.1 0 .2-.1.1-.2L17 7c0-.1-.1-.1-.1-.1-.1 0-.1-.1-.2-.1H6c-.1 0-.2.1-.1.2l.3.6c0 .1.1.1.1.1s.1.1.2.1h10.6zM18 9c0-.1-.1-.1-.2-.2s-.1-.1-.2-.1H7c-.1.1-.2.1-.1.3l.3.6c0 .1.1.1.1.1.1 0 .1.1.2.1h10.6c.1 0 .2-.1.1-.2L18 9zm1 2c0-.1-.1-.1-.1-.1-.1 0-.1-.1-.2-.1H8c-.1 0-.2.1-.1.2l.3.6c0 .1.1.1.1.1s.1.1.2.1H19c.1 0 .2-.1.1-.2L19 11zm1 2c0-.1-.1-.1-.1-.1-.1 0-.1-.1-.2-.1H9c-.1 0-.2.1-.1.2l.3.6c0 .1.1.1.1.1s.1.1.2.1H20c.1 0 .2-.1.1-.2L20 13zm1 2.1c0-.1-.1-.1-.1-.1-.1 0-.1-.1-.2-.1H10c-.1 0-.2.1-.1.2l.3.6c0 .1.1.1.1.1.1 0 .1.1.2.1H21c.1 0 .2-.1.1-.2l-.1-.6zm1 2c0-.1-.1-.1-.1-.1-.1 0-.1-.1-.2-.1H11c-.1 0-.2.1-.1.2l.3.6c0 .1.1.1.1.1.1 0 .1.1.2.1H22c.1 0 .2-.1.1-.2l-.1-.6zm1 2c0-.1-.1-.1-.1-.1-.1 0-.1-.1-.2-.1H11.9c-.1 0-.2.1-.1.2l.3.6c0 .1.1.1.1.1.1 0 .1.1.2.1H23c.1 0 .2-.1.1-.2l-.1-.6z"/>
		<path d="M19.8 5.8c.1 0 .1 0 .1-.1 0 0 .1-.1.1-.2V5c0-.1 0-.1-.1-.2 0 0-.1-.1-.2-.1H3.4c-.1 0-.1 0-.2.1 0 0-.1.1-.1.2v.6c0 .1 0 .1.1.2 0 0 .1.1.2.1l16.4-.1zm-7 15.3c-.1 0-.2.1-.1.2l6.7 13.9v.1h.2v-.1l6.1-12.8c0-.1.1-.1.1-.1.1 0 .1-.1.2-.1h9.8c.1 0 .1 0 .2-.1 0 0 .1-.1.1-.2v-.6c0-.1 0-.1-.1-.2 0 0-.1-.1-.2-.1h-23zM35.9 4.7h-8.5c-.1 0-.1 0-.2.1 0 0-.1.1-.1.2v.6c0 .1 0 .1.1.2 0 0 .1.1.2.1h1.2c.3 0 2.1 0 1.4 2.1l-5.6 12c0 .1 0 .2.1.2h1.9c.1 0 .1 0 .2-.1.1 0 .1-.1.1-.1L33 7.2c.2-.5.5-.9 1-1.2.5-.2 1-.3 1.6-.3h.4c.1 0 .1 0 .2-.1 0 0 .1-.1.1-.2v-.5c-.2-.1-.3-.2-.4-.2z"/>
	</g>
</svg>