<svg viewBox="0 0 40 40" xmlns="http://www.w3.org/2000/svg">
	<path fill="url(#a)" d="M23.876 30.5996s1.0336 2.7907 1.9639 2.894H13.8502c-2.3773 0-4.54785-1.3437-5.27137-3.9276L1.55039 8.89406S.930235 6.41344 0 6h12.1964c2.3773.10336 4.031.93024 4.9613 4.1344l6.7183 20.4652Z"/>
	<path fill="#EF5145" d="M16.2273 30.5996s-1.0336 2.7907-1.9639 2.894h11.9897c2.3773 0 4.5478-1.3437 5.2714-3.9276l6.925-20.67194S39.0697 6.41344 39.9999 6H27.8035c-2.3773 0-3.9276.82688-4.9612 4.031l-6.615 20.5686Z"/>
    <linearGradient id="a" x1="12.9199" y1="3.55038" x2="12.9199" y2="35.9244" gradientUnits="userSpaceOnUse">
		<stop stop-color="#F2746A"/>
		<stop offset=".33" stop-color="#F2746A"/>
		<stop offset=".76" stop-color="#C74A40"/>
		<stop offset="1" stop-color="#C2453B"/>
    </linearGradient>
</svg>