<svg xmlns="http://www.w3.org/2000/svg" viewBox="0 0 40 40">
	<path fill="#bd0d31" d="M11.7 23.1l.6.3c1.6.7 2.8 1.7 3.5 3.3 1.4 2.9-.1 5.7-2.7 6.8-1.3.5-2.6.7-4 .7H1.4c-.3 0-.6.1-.8.1-.2 0-.4-.1-.7-.1.1-.2.1-.5.2-.6 1.1-1 1.5-2.2 1.5-3.6V17.8c0-1.2-.7-2.2-1.4-3.2-.2-.2-.2-.5-.2-.7.2 0 .5-.1.7-.1 1.1 0 2.1.1 3.2.1h2.4c.4 0 .7-.1.9-.5 1.2-2 3-3.1 5.2-3.6 1.9-.5 3.8-.3 5.7-.3.6 0 .7-.1.6-.7-.2-.9-.6-1.7-1.3-2.3-.1-.1-.2-.4-.2-.6.2 0 .4-.1.7-.1.4 0 .9.1 1.3.1h2c.2 0 .5-.1.7-.1h.6c0 .2 0 .5-.2.7-.3.6-.8 1.1-1.1 1.6v.1c-.5 1.1-.4 1.3.8 1.3 1.8.1 3.5-.1 5.3.3 2.2.5 4 1.6 5.2 3.5.3.4.5.6 1 .6h3.2c.2 0 .5-.1.6-.3.3-.3.6-.5.9-.3.2.1.3.4.3.6-.1.4-.4.6-.8.6-1.3.1-2.7.2-4 .2-.4 0-.6.1-.5.6.3 2-.1 3.9-1.5 5.5-.1.1-.1.2-.3.4h.5c3.5-.5 6.4.9 7.5 4.3 1.1 3.5-.1 6.8-3.9 8.2-.9.4-2 .5-3.1.5-2.5.1-5.1 0-7.6 0-.2 0-.4.2-.7.2-.2 0-.5 0-.6-.2-.1-.1 0-.4.1-.5 1.4-1.2 1.6-2.8 1.6-4.5-.1-1.9 0-3.7 0-5.6 0-.4-.1-.5-.5-.6-1.8-.3-3.4-1.8-3.4-3.9 0-1.3.1-2.4 1.1-3.3.3-.3.7-.5 1-.6.4-.2.6-.3.2-.6-.1-.1-.1-.4-.1-.5.1-.1.3-.2.5-.2.7 0 1.3.2 2 .2h3.3c.2 0 .4-.1.4-.2.1-.1 0-.3-.1-.5-1.2-1.8-2.9-2.8-5.1-2.8h-3.2c-.4 0-.6.2-.6.6v10.7c-.1 1.4.4 2.6 1.3 3.6.1.1.3.2.3.4s.1.5 0 .6c0 .1-.4 0-.6 0-.3 0-.5-.2-.8-.2h-2.5c-.3 0-.7.1-1 .2-.2 0-.5 0-.5-.1-.1-.1 0-.4 0-.6.1-.2.4-.4.5-.6.7-.9 1.1-1.9 1-3.2V11.2c0-.4-.1-.6-.5-.6h-3c-2.5-.1-4.3 1.1-5.6 3.1.2.3.5.3.8.4.8.2 1.5.5 2.3.7.2.1.4.3.7.3.2.1.6.1.8 0 2.6-1.2 4.6.9 4.6 2.9 0 1.5-.2 2.9-1.5 3.9s-2.9 1.1-4.5.9c-.2 0-.5 0-.7-.1 0 .3-.1.3-.1.4zm-1.7-.7v-.2c-.5-.3-1-.6-1.4-1-1.7-1.7-2.3-3.7-1.9-6 .1-.4-.1-.5-.5-.5H5c-1.1 0-1.2 0-1.2 1.1v14.4c0 2 1.5 2.9 3 3 1 .1 2 .1 3.1 0 3.1-.1 5-2.8 4.1-5.8-.8-2.7-3.4-4.3-6.4-4-1.2.1-1.9.9-1.6 2.3l.3.6c.2-.1.3-.2.5-.4.3-.3.8-.3 1.2 0 .4.4.4.7.1 1.1-.5.6-1.1.3-1.7.1-1-.3-1.3-1.1-1.4-2.1-.1-.9.5-1.5 1.2-2 .9-.6 1.9-.6 3-.6.3.1.5.1.8 0zm19.2.1c-.6.1-1 .2-1.4.4-.1 0-.3.3-.3.4v6.8c0 1.9 1.2 3.1 3.1 3.2 1.1 0 2.1 0 3.2-.1 1.6-.1 2.8-1 3.6-2.4.9-1.6.8-3.3.2-5-1-2.7-3.2-4.4-6-3.6-1.5.4-2.1 1.4-1.8 2.9 0 .2.2.4.3.5.1-.1.3-.2.4-.4.3-.3.6-.5 1-.4.5.2.7.6.7 1.1 0 .4-.2.8-.6.9-.7.1-1.4 0-1.9-.5-.9-.9-1.1-2.2-.6-3.4.1-.1.1-.2.1-.4zm-1.6-4c-.1 0-.1 0 0 0v2.8c0 .4.2.5.5.3.4-.2.7-.4 1.1-.7 1.2-1 1.5-2.5 1.6-3.9.1-.6 0-1.1-.1-1.7 0-.3-.2-.6-.6-.6L28 15c-.3.1-.4.3-.4.6v2.9zM9.2 16.3h-.1c.2.9.3 1.9.5 2.8.2.8.7 1.5 1.4 2 .8.6.8.5 1.4-.2.8-.9.8-1.8.3-2.8-.1-.1-.2-.3-.1-.5.2-.7-.2-1.2-.7-1.6-.4-.3-.8-.6-1.3-.7-1.3-.5-1.4-.5-1.3.8-.1.1-.1.1-.1.2zm16.2 3.6c0-.5-.1-1.1-.1-1.7 0-.4 0-.8-.1-1.2-.1-.5-.3-1.1-.7-1.4-.1-.2-.8 0-1.1.2-.3.2-.7.6-.8.9-.2.6-.3 1.3-.3 2 0 1.6 1 2.7 2.5 3.1.4.1.6-.1.6-.5v-1.4zm-11.3-4.1c0 .1 0 .2.1.2 1.5 1.9 1.5 3.7-.2 5.6-.1.1-.1.2-.2.4 0 .1.1.1.1.2.6-.2 1.3-.2 1.9-.5 2-1 2.2-3.3 1.4-4.9-.5-1.3-2-1.6-3.1-1z"/>
</svg>