<svg xmlns="http://www.w3.org/2000/svg" viewBox="0 0 40 40">
	<path fill="#2787f5" d="M0 19.2c0-9 0-13.6 2.8-16.4S10.1 0 19.2 0h1.7c9 0 13.6 0 16.4 2.8C40 5.6 40 10.1 40 19.2v1.7c0 9 0 13.6-2.8 16.4C34.4 40 29.9 40 20.8 40h-1.7c-9 0-13.6 0-16.4-2.8C0 34.4 0 29.9 0 20.8v-1.6z"/>
	<g fill="#fff">
		<path d="M10.8 9.5H7.9c-.8 0-1 .4-1 .8 0 .8 1 4.6 4.6 9.7 2.4 3.5 5.8 5.3 8.9 5.3 1.9 0 2.1-.4 2.1-1.1v-2.6c0-.8.2-1 .8-1 .4 0 1.2.2 2.9 1.9 2 2 2.3 2.9 3.4 2.9h2.9c.8 0 1.3-.4 1-1.2-.3-.8-1.2-2-2.5-3.4-.7-.8-1.7-1.7-2-2.1-.4-.6-.3-.8 0-1.3 0 0 3.6-5 3.9-6.7.2-.6 0-1.1-.9-1.1h-2.9c-.7 0-1.1.4-1.3.8 0 0-1.5 3.6-3.6 6-.7.7-1 .9-1.4.9-.2 0-.5-.2-.5-.8v-5.8c0-.7-.2-1.1-.8-1.1h-4.6c-.5 0-.7.3-.7.7 0 .7 1.1.9 1.2 2.8v4.3c0 .9-.2 1.1-.5 1.1-1 0-3.4-3.6-4.8-7.8-.2-.9-.5-1.2-1.3-1.2z"/>
		<path d="M13 34.8v-6.5h.8l.2.8c.3-.4.9-.8 1.8-.8 1.3 0 2.3 1 2.3 2.4s-.9 2.4-2.3 2.4c-.8 0-1.4-.4-1.7-.8v2.5H13zm4-4.2c0-.9-.6-1.5-1.5-1.5s-1.5.6-1.5 1.5.6 1.5 1.5 1.5 1.5-.6 1.5-1.5zM22.7 30.3v2.6h-.8l-.2-.7c-.2.4-.7.8-1.5.8-.9 0-1.6-.6-1.6-1.5s.7-1.5 2.1-1.5h1c-.1-.6-.4-1-.9-1s-.8.3-.9.5l-.9-.2c.2-.8 1-1.3 1.9-1.3 1 .2 1.8 1 1.8 2.3zm-1.1.6h-1c-.8 0-1 .3-1 .6 0 .4.3.6.8.6.8.1 1.2-.4 1.2-1.2zM26.8 28.3h1l-1.9 5.2c-.3.9-.8 1.2-1.6 1.2h-.7l-.1-.9h.9c.3 0 .5-.1.6-.5l.1-.1-2.1-4.9h1.1l1.4 3.4h.1l1.2-3.4z"/>
	</g>
</svg>