<svg xmlns="http://www.w3.org/2000/svg" viewBox="0 0 40 40">
	<circle fill="#4480c1" cx="20" cy="20" r="20"/>
	<path fill="#fff" d="M30.3 21.6c-.2-.7-1.1-1.8-2.2-3-.6-.7-1.5-1.5-1.8-1.9-.4-.5-.3-.7 0-1.1 0 0 3.1-4.4 3.5-5.9.2-.5 0-.9-.8-.9h-2.6c-.7 0-1 .3-1.1.7 0 0-1.3 3.2-3.2 5.3-.6.6-.9.8-1.2.8-.2 0-.4-.2-.4-.7V9.7c0-.7-.2-.9-.7-.9h-4.1c-.4 0-.7.3-.7.6 0 .6.9.8 1 2.5v3.8c0 .8-.2 1-.5 1-.9 0-3-3.2-4.3-6.9-.2-.7-.5-1-1.2-1H7.6c-.7 0-.9.3-.9.7 0 .7.9 4.1 4.1 8.5 2.1 3.1 5.1 4.7 7.9 4.7 1.6 0 1.8-.4 1.8-1v-2.3c0-.7.2-.9.7-.9.4 0 1 .2 2.6 1.7 1.7 1.7 2 2.5 3 2.5h2.6c.7 0 1.1-.4.9-1.1zM15.6 26.2c-.9 0-1.4.5-1.4.5l-.2-.5h-.9v6.6h1.2v-2.1s.5.5 1.3.5c1.2 0 2.3-1.1 2.3-2.5s-1.1-2.4-2.3-2.5zm-.1 3.9c-.7 0-1.2-.5-1.2-1.3s.5-1.3 1.2-1.3 1.2.5 1.2 1.3-.5 1.3-1.2 1.3zM25.3 29.5l-1.2-3.2h-1.3l1.9 4.6-.1.3c-.2.3-.5.6-1 .6v1s.2.1.4.1c.8 0 1.2-.4 1.7-1.6.1-.2 2-5 2-5h-1.3l-1.1 3.2zM20.8 26.3c-1.3 0-2 .7-2.1 1.6h1.2s.1-.5.7-.5c.5 0 .8.3.8.8-2.2 0-2.9.6-2.9 1.6 0 .8.5 1.4 1.6 1.4.9 0 1.4-.5 1.4-.5l.2.5h.9v-3c0-1.1-.8-1.9-1.8-1.9zm.6 3c0 .6-.5 1-1.1 1-.3 0-.6-.2-.6-.5 0-.4.3-.7 1.7-.7v.2z"/>
</svg>