<svg xmlns="http://www.w3.org/2000/svg" viewBox="0 0 40 40">
	<path fill="#9d235a" d="M6 11c0 .1 0 .2.1.3 0 .1 0 .1.1.2l.1.1c.1.2.1.3.2.4h-.2c.2.4.4.7.6 1.1H7l.2.2v.1l.2.2.2.2 4.3-4.3V0l-4 3.9-.3.4c-1.1 1.1-1.7 3.4-1.8 5v.7c0 .2 0 .3.1.4v.4s0 .1.1.2c0-.1 0 0 0 0zm28.2-.7v.2c0 .1 0 .1-.1.2v.7c0 .1 0 .1-.1.2 0 .1 0 .1-.1.2v.2c0 .1-.1.1-.1.2s-.1.1-.1.2l-.1.1c-.2.4-.5.9-.8 1.2l-.1.1c-.1.2-.3.3-.4.4-1.2-1-2.8-1.6-4.4-1.6-1.8 0-3.6.7-4.9 2l-6.3 6.3.1-9.4L23.2 5c1.2-1.2 2.8-1.9 4.5-2h.3c1.7 0 3.2.7 4.3 1.8 1.4 1.4 1.9 3.8 1.8 5.6.1-.2.1-.1.1-.1zM7 14.4c-.9-.9-1.6-2.1-1.8-3.3l-.1 7.8c-.1 1.9.6 3.8 2 5.1l9 9v-2.8l.1-.1 3.3-3.3-6.4-6.4c-3.1-3-6.1-6-6.1-6zm27.9-3.1c-.3 1.2-.9 2.3-1.8 3.1l-.1.1-16.1 16.1V40l16-16c1.4-1.4 2.1-3.4 2-5.4v-7.3z"/>
</svg>
