<svg xmlns="http://www.w3.org/2000/svg" viewBox="0 0 40 40">
	<path fill="#eb3723" d="M3.4 13.5c-.4-.8-.6-1.7-.3-2.5.2-.9.8-1.6 1.5-2l15-8.7c.4-.2.6-.3.9-.3s.6.1.8.2l15 8.7c.4.2.8.5 1.1.8.3.3.5.8.6 1.2.1.4.2.9.1 1.3-.1.5-.2.9-.4 1.3s-.5.7-.9 1c-.4.3-.8.5-1.2.6-.4.1-.9.1-1.3 0s-.9-.2-1.3-.5L20.5 7.4 8 14.7c-.8.4-1.7.6-2.5.3-.9-.2-1.6-.8-2.1-1.5"/>
	<path fill="#1b58a9" d="M34.6 18.3H6.4c-.2 0-.4 0-.6.1-.2.1-.4.2-.5.4-.2.2-.3.3-.4.6-.1.2-.1.4-.1.6v16.2c0 1 .4 2 1.1 2.7.7.7 1.6 1.1 2.6 1.1s2-.4 2.7-1.1c.7-.7 1.1-1.7 1.1-2.7V25h4.5v11.2c0 1 .4 2 1.1 2.7.7.7 1.7 1.1 2.7 1.1 1 0 2-.4 2.7-1.1.7-.7 1.1-1.7 1.1-2.7V25h4.5v11.2c0 1 .4 2 1.1 2.7.7.7 1.7 1.1 2.7 1.1 1 0 2-.4 2.7-1.1.7-.7 1.1-1.7 1.1-2.7V20c0-.4-.2-.9-.5-1.2s-.9-.5-1.4-.5"/>
</svg>