<svg viewBox="0 0 40 40" xmlns="http://www.w3.org/2000/svg">
	<path fill="#067941" d="M6.53532 0C12.0377.00877578 17.5402.00438789 23.0426 0c2.3738.039491 4.8749.223782 6.9723 1.44362 1.6937.96972 2.7951 2.79947 3.0189 4.72136.2633 1.99649.1404 4.22992-1.1409 5.87982-.7064 1.0267-1.8253 1.6761-2.9706 2.0974 1.0575.3686 2.1501.7284 3.0277 1.448 1.7595 1.3339 2.5274 3.62 2.5274 5.7657.1185 2.15-.1316 4.4142-1.2242 6.3054-1.0443 1.7683-3.0145 2.7687-4.9627 3.1943-1.5314.3818-3.1242.4432-4.6994.4344-5.6648.0132-11.3296-.0087-16.99435.0132-.02194-.4125-.04826-.8205-.05704-1.2286C6.53532 20.0483 6.56165 10.0219 6.53532 0zM16.373 5.74814c0 2.17639-.0088 4.35276.0044 6.52916 1.4875-.0219 2.9793.0395 4.4624-.0263 1.5095-.0527 2.7118-1.47 2.7951-2.92674.0483-.96533-.0833-2.05353-.7942-2.77314-.6231-.61869-1.5357-.81615-2.387-.81176-1.3558.00439-2.7161.00439-4.0807.00878zm.0044 12.26416c-.0088 2.5274-.0132 5.0592.0043 7.5866 1.4217-.0087 2.8434.0044 4.2651-.0043.7152-.0264 1.4524-.0132 2.1237-.2896 2.2642-.746 2.896-3.9535 1.5489-5.7613-.7108-1.0838-2.0579-1.5534-3.3084-1.549-1.5446.0264-3.0891 0-4.6336.0176zM6 36.6038c7.4594 0 25.6209.0044 28.4774.0044V40H6v-3.3962z"/>
</svg>
