<svg xmlns="http://www.w3.org/2000/svg" viewBox="0 0 40 40">
    <linearGradient id="gr" x1="2" x2="149" y2="0" gradientUnits="userSpaceOnUse">
		<stop stop-color="#CB11AB"/>
		<stop offset=".5" stop-color="#909"/>
		<stop offset="1" stop-color="#481173"/>
    </linearGradient>
	<path fill="url(#gr)" d="m18.506 24.9169-3.7008-12.9158L12.0667 12 8.37872 24.8486 4.93763 12.0011H2l4.47846 16.7271 3.37791-.003 3.58063-12.495 3.5775 12.4916 3.405.0037L24.9 12l-2.9377.0043-3.4563 12.9126ZM35.647 20.05c1.1189-.8291 1.6973-1.9474 1.6973-3.4127 0-1.3111-.4629-2.4101-1.427-3.297-.9452-.8677-2.1023-1.3304-3.4715-1.3304h-6.6345v16.7163h7.1551c1.4273 0 2.5844-.4625 3.5678-1.3689.9837-.906 1.4658-2.0438 1.4658-3.4127 0-1.7352-.8871-3.1234-2.353-3.8946Zm-7.0778-5.4565h3.8959c1.2148 0 2.1408.9641 2.1408 2.198 0 1.234-.926 2.198-2.1408 2.198h-3.8959v-4.396Zm4.4164 11.5686h-4.4164v-4.6853h4.4164c1.273 0 2.276 1.0219 2.276 2.333 0 1.3111-1.003 2.3523-2.276 2.3523Z"/>
</svg>