<svg viewBox="0 0 40 40" xmlns="http://www.w3.org/2000/svg">
	<path fill="#036cb5" d="m23.7 34.8-7.8-8.6 2.2-1.9-5.5-6.1 2.2-1.9-5.6-6.1 8.7-7.7 2.8 3 4.7-4.1 2.7 2.8 1.8-1.6c-.4-.2-.8-.5-1.3-.6C26 .7 23 0 19.9 0 8.9 0 0 8.9 0 19.7c0 10.9 8.9 19.7 19.9 19.7 3.6 0 6.9-.9 9.8-2.6 1-.5 1.8-1.1 2.6-1.7l-4-4.5-4.6 4.2z"/>
	<path fill="#036cb5" d="M25.3 19 21 14.3l-4.7 4.2 4.2 4.7zM28.7 27.1l-4.3-4.8-4.8 4.3 4.3 4.7zM12.9 10.5l4.2 4.7 4.8-4.3-4.3-4.7zM21.6 8.2l3.2 3.5 3.5-3.2L25.1 5zM34.6 23.1l-3.2-3.6-3.5 3.2 3.2 3.5zM31 29.8l3.2 3.5 3.6-3.2-3.2-3.5zM34.6 15.9l2.4-2.1-2.2-2.4-2.3 2.1zM31.6 8.9l2.3-2.1-2.1-2.4-2.4 2.2zM37.6 22.8l2.4-2.1-2.2-2.3-2.3 2.1zM31.6 15.6l-3.2-3.5-3.5 3.2 3.2 3.5z"/>
</svg>