<svg xmlns="http://www.w3.org/2000/svg" viewBox="0 0 40 40">
	<g fill="#006cb4">
		<path class="st0" d="m23.7 34.8-7.8-8.4 2.2-1.8-5.5-5.9 2.2-1.8L9.2 11l8.7-7.5 2.8 2.9 4.7-4 2.7 2.7 1.8-1.6c-.4-.2-.8-.4-1.3-.6C26 1.7 23 1 19.9 1 8.9 1 0 9.6 0 20.1c0 10.5 8.9 19.1 19.9 19.1 3.6 0 6.9-.9 9.8-2.5 1-.5 1.8-1.1 2.6-1.7l-4-4.4-4.6 4.2z"/>
		<path class="st0" d="M25.3 19.4 21 14.8l-4.7 4.1 4.2 4.6zM28.7 27.2l-4.3-4.5-4.8 4.1 4.3 4.5zM12.9 11.1l4.2 4.6 4.8-4.1-4.3-4.5zM21.6 9l3.2 3.4 3.5-3.1-3.2-3.4zM34.6 23.4l-3.2-3.5-3.5 3.1 3.2 3.4zM31 29.9l3.2 3.4 3.6-3.1-3.2-3.4zM34.6 16.4l2.4-2-2.2-2.3-2.3 2zM31.6 9.6l2.3-2-2.1-2.3-2.4 2.1zM37.6 23.2l2.4-2.1-2.2-2.3-2.3 2.1zM31.6 16.1l-3.2-3.3-3.5 3 3.2 3.4z"/>
	</g>
</svg>