<svg xmlns="http://www.w3.org/2000/svg" viewBox="0 0 40 41">
	<path fill="#1273B8" d="M3.22379 30.8957c2.51597 3.8663 6.33216 6.8078 10.82831 8.2067 1.8788.5849 3.8769.8996 5.9478.8996 7.5516 0 14.1261-4.1852 17.53-10.3627.1066-.1985.2095-.3991.3088-.6018-4.7458-1.249-11.0231-2.0092-17.9074-2.0092-6.8184 0-13.04072.7465-17.77017 1.9744.31885.6514.67413 1.2838 1.06266 1.893Z"/>
	<path fill="#D9D9D9" d="m37.8434 29.0471-.0405.0792c-4.7728-1.2807-11.0294-2.0567-17.881-2.0567-6.7862 0-12.98847.7623-17.74379 2.0198-.31463-.6157-.59826-1.2499-.84886-1.9005C.491286 25.0134.0227569 22.654 0 20.189.100829 9.03658 8.99277.0242834 19.9557 0H20c1.381 0 2.7292.140421 4.031.406483C33.0866 2.29425 39.9118 10.425 40 20.189c-.023 2.501-.5051 4.8929-1.3663 7.0949.0001 0 .0001 0 .0001.0001-.2354.6028-.4994 1.1909-.7903 1.7631h-.0001Z"/>
    <radialGradient id="gr" cx="0" cy="0" r="1" gradientTransform="matrix(0 -50.2729 50.8307 0 20 40.0021)" gradientUnits="userSpaceOnUse">
		<stop offset=".42429" stop-color="#fff"/>
		<stop offset=".500886" stop-color="#09ABE0"/>
		<stop offset=".587553" stop-color="#007CC2"/>
    </radialGradient>
	<path fill="url(#gr)" d="m37.8434 29.0471-.0405.0792c-4.7728-1.2807-11.0294-2.0567-17.881-2.0567-6.7862 0-12.98847.7623-17.74379 2.0198-.31463-.6157-.59826-1.2499-.84886-1.9005C.491286 25.0134.0227569 22.654 0 20.189.100829 9.03658 8.99277.0242834 19.9557 0H20c1.381 0 2.7292.140421 4.031.406483C33.0866 2.29425 39.9118 10.425 40 20.189c-.023 2.501-.5051 4.8929-1.3663 7.0949.0001 0 .0001 0 .0001.0001-.2354.6028-.4994 1.1909-.7903 1.7631h-.0001Z"/>
</svg>