<svg xmlns="http://www.w3.org/2000/svg" viewBox="0 0 40 40">
	<path fill="#000" d="M20 40c11.0457 0 20-8.9543 20-20C40 8.95431 31.0457 0 20 0 8.95431 0 0 8.95431 0 20c0 11.0457 8.95431 20 20 20Z"/>
	<path fill="#fff" d="M27.2372 32.5555h-4.3904V10.8409h-1.9559c-3.585 0-5.4629 1.7926-5.4629 4.4684 0 3.0358 1.2952 4.4424 3.9747 6.2349l2.2082 1.4882-6.3462 9.5194h-4.7208l5.7117-8.4988c-3.2845-2.3455-5.1327-4.6353-5.1327-8.4988 0-4.8283 3.3661-8.11279 9.7384-8.11279h6.3462V32.5481h.0297v.0074Z"/>
</svg>