<svg xmlns="http://www.w3.org/2000/svg" viewBox="0 0 40 40">
	<linearGradient id="gr" x1="1" x2="1" y1="6" y2="35" gradientUnits="userSpaceOnUse">
		<stop stop-color="#1971D0"/>
		<stop offset="1" stop-color="#3B50A1"/>
	</linearGradient>
	<path fill="url(#gr)" d="m8.76149 34.9433-.16957.0058c-1.63131.0502-2.96366.0243-3.85812-.0005l-.17873-.0053h4.20642Zm-4.22627-.0004.01985.0004-1.06965.0002c-.02734-.0364.35064-.021 1.0498-.0006ZM40 11.6456v23.2979l-31.23851-.0002.21213-.0072C18.5167 34.581 37.4003 31.5668 40 11.6456ZM5.66961 21.0995c.41336 1.1375 1.96715 2.1319 4.26478 2.857.72411.2289 1.52621.4331 2.39041.6087.2022.437.438.8672.7063 1.2874 1.2371 1.9386 3.1767 3.6739 5.8729 4.9455-7.0015-.2693-12.67207-4.4532-13.23439-9.6986Zm28.66079 0c-.5623 5.2444-6.2329 9.4293-13.2344 9.6986 2.6952-1.2716 4.6358-3.0069 5.8729-4.9455.2683-.4202.5031-.8504.7063-1.2874.8642-.1756 1.6653-.3798 2.3904-.6087 2.2976-.7251 3.8524-1.7205 4.2648-2.857Zm-21.174 3.6226c1.1276.1963 2.347.3453 3.6314.44.4667 1.755 1.2007 3.437 2.2158 4.9356-2.4732-1.2046-4.2589-2.8166-5.4023-4.6091-.1608-.2525-.3087-.5081-.4449-.7665Zm13.6872 0c-.1362.2584-.2841.5149-.4449.7665-1.1434 1.7925-2.9291 3.4045-5.4023 4.6091 1.0151-1.4976 1.7491-3.1806 2.2158-4.9356 1.2844-.0947 2.5038-.2437 3.6314-.44Zm-4.3427.4863c-.4398 1.575-1.1034 3.0822-2.0037 4.4346l-.1243.1834v-4.5489c.7241-.0059 1.4344-.0296 2.128-.0691Zm-5.0018 0c.6936.0395 1.4039.0632 2.128.0691v4.5479c-.9639-1.3989-1.6682-2.9714-2.128-4.617ZM31.2518 6.03403l-.2254.00756C21.4834 6.39666 2.59991 9.41095.00098653 29.3321L0 6.03416l31.2518-.00013ZM19.6271 20.7996v3.8051c-.7863-.0069-1.5568-.0346-2.3046-.0809-.289-1.2223-.4459-2.4762-.4774-3.7242h2.782Zm3.5278 0c-.0315 1.248-.1884 2.5019-.4775 3.7242-.7487.0463-1.5182.074-2.3045.0809v-3.8051h2.782Zm-6.9856 0c.0296 1.2292.1786 2.4654.4498 3.6748-1.3624-.1065-2.6458-.2772-3.8169-.5001-.439-1.0349-.6856-2.1063-.7507-3.1747h4.1178Zm11.7782 0c-.0641 1.0684-.3107 2.1398-.7498 3.1747-1.171.2229-2.4554.3936-3.8169.5001.2723-1.2094.4203-2.4456.4499-3.6748h4.1168Zm-16.5738 0c.0563 1.0112.2664 2.0244.6354 3.0109-.6709-.148-1.2983-.3137-1.8764-.4962-2.17335-.6857-3.60086-1.5686-3.86032-2.5147h5.10132Zm22.3539 0c-.2594.9461-1.6879 1.829-3.8613 2.5147-.5771.1825-1.2045.3482-1.8754.4962.369-.9865.5781-1.9997.6353-3.0109h5.1014ZM20.3729 16.374c.81.0059 1.6031.0345 2.3736.0829.2634 1.1957.4035 2.4505.4144 3.7212h-2.788V16.374Zm3.0731.1332c1.4186.1144 2.7514.2969 3.9579.5357.3236.8938.5091 1.8261.5515 2.7712.0059.1203.0089.2427.0089.364h-4.1277c-.0098-1.2499-.142-2.4861-.3906-3.6709Zm4.7264.6995c.6028.1381 1.1701.291 1.6939.4567 2.1734.6857 3.6019 1.5686 3.8613 2.5147H28.641c-.0009-.1312-.0039-.2624-.0098-.3936-.0395-.8751-.1944-1.7403-.4588-2.5778Zm-8.5453-.8327v3.8041h-2.788c.0099-1.2707.15-2.5255.4144-3.7212.7705-.0484 1.5636-.077 2.3736-.0829Zm-3.0741.1332c-.2486 1.1848-.3798 2.421-.3896 3.6709h-4.1277c0-.1213.003-.2437.0089-.364.0424-.9451.2289-1.8774.5515-2.7712 1.2075-.2388 2.5393-.4222 3.9569-.5357Zm-4.7254.6995c-.2644.8375-.4193 1.7027-.4588 2.5778-.0059.1312-.0089.2624-.0099.3936H6.27238c.25946-.9461 1.68796-1.829 3.86032-2.5147.5248-.1657 1.0921-.3186 1.6949-.4567Zm9.4736-7.0173c6.9068.3424 12.4728 4.4957 13.0292 9.6898-.4124-1.1375-1.9672-2.1329-4.2648-2.858-.66-.2082-1.3851-.3966-2.1615-.5614-.3473-.8582-.8139-1.679-1.3959-2.4406-1.2332-1.613-2.9843-2.9596-5.207-3.8298Zm-2.6015 0c-2.2246.8702-3.9747 2.2168-5.2079 3.8298-.582.7616-1.0487 1.5824-1.3959 2.4406-.7774.1648-1.5015.3532-2.16151.5614-2.29763.7251-3.85241 1.7205-4.26478 2.858.5564-5.1941 6.12239-9.3474 13.03009-9.6898Zm2.2789.5989c2.1408.8227 3.8199 2.1042 4.9939 3.6403.4508.5899.8277 1.2183 1.1286 1.8724-1.177-.215-2.4585-.3788-3.813-.4804-.4755-1.8823-1.2529-3.6127-2.3095-5.0323Zm-1.9572 0c-1.0576 1.4196-1.834 3.15-2.3095 5.0323-1.3545.1016-2.636.2654-3.813.4804.3009-.6541.6768-1.2825 1.1286-1.8724 1.174-1.5361 2.8531-2.8176 4.9939-3.6403Zm1.3515.3088c.9984 1.313 1.7403 2.9191 2.2079 4.6761-.7192-.0424-1.4562-.0671-2.2079-.073v-4.6031Zm-.7458.0009v4.6022c-.7518.0059-1.4887.0306-2.2079.073.4667-1.757 1.2095-3.3621 2.2079-4.6752Zm16.8875-5.06384c.0273.03646-.3507.02107-1.0498.00062l-.021-.00075 1.0708.00013Zm-1.2484-.00504.1776.00491h-4.192l.1563-.00542c.6409-.01972 1.2356-.0277 1.7757-.02861l.2892.00018c.7092.00205 1.314.01565 1.7932.02894Z"/>
</svg>