<svg viewBox="0 0 40 40" xmlns="http://www.w3.org/2000/svg">
	<path fill="red" d="M0 0v40h40V0H0Zm11.7621 10.2518h5.7208V8.97029h1.2039l1.3591-1.35911 1.3591 1.35911h1.2038v1.28151h5.7206v2.4714H11.7618v-2.4714h.0003Zm-1.6018 3.2953h19.7712v.8238H10.1603v-.8238Zm3.2494 18.9473h-2.4715v-3.57c0-.7582-.5532-1.3729-1.23555-1.3729-.68236 0-1.23559.6147-1.23559 1.3729v3.5697H5.99559V25.08h7.41411v7.4144Zm0-8.2382H5.99529v-.8238h7.41411v.8238h.0003Zm12.4485 8.2382h-.8238v-8.2838c0-2.755-2.2335-4.9885-4.9885-4.9885-2.755 0-4.9885 2.2335-4.9885 4.9885v8.2838h-.8239v-8.2838c0-3.21 2.6024-5.8124 5.8124-5.8124 3.21 0 5.8123 2.6024 5.8123 5.8124v8.2838Zm8.238 0h-2.4715v-3.57c0-.7582-.5532-1.3729-1.2356-1.3729-.6823 0-1.2356.6147-1.2356 1.3729v3.5697h-2.4714V25.08h7.4141v7.4144Zm0-8.2382h-7.4141v-.8238h7.4141v.8238Zm0-1.6474h-7.6927c-.3926-2.7994-3.0791-4.9656-6.335-4.9656s-5.942 2.1662-6.3347 4.9656H5.99559v-.8238h5.81231v-6.5906h16.4759v6.5903h5.8124v.8241Z"/>
</svg>