<svg xmlns="http://www.w3.org/2000/svg" viewBox="0 0 40 40">
	<path class="bg-logo" fill="#FF333A" d="M0 0h40v40H0z"/>
	<path fill="#fff" d="M29.4 8H10.6C9.16406 8 8 9.16406 8 10.6v18.8c0 1.4359 1.16406 2.6 2.6 2.6h18.8c1.4359 0 2.6-1.1641 2.6-2.6V10.6C32 9.16406 30.8359 8 29.4 8Zm-15 8h2v8H15v-6.6h-1.4l.8-1.4Zm10 0h2v8H25v-6.6h-1.4l.8-1.4Zm-5 4 1.4-2.6h-3.2l.8-1.4H23l-.8 1.4-.7774 1.4437C22.3534 19.2698 23 20.2094 23 21.3c0 1.4912-1.2088 2.7-2.7 2.7s-2.7-1.2088-2.7-2.7H19c0 .718.582 1.3 1.3 1.3.718 0 1.3-.582 1.3-1.3 0-.718-.582-1.3-1.3-1.3h-.9Z"/>
</svg>