<svg xmlns="http://www.w3.org/2000/svg" viewBox="0 0 40 40">
	<path class="bg-logo" fill="#CD1F45" d="M0 0h40v40H0z"/>
	<path fill="#fff" d="M35.9359 18.8248v.529C36 20.1554 36 21.0531 36 21.7585v1.3787H22.7423v5.3062h-.1282c-.4135.0657-.8317.0978-1.2504.0962v-6.725h13.1294v-2.4047c-.2244-1.8836-2.1402-5.2501-5.3464-6.6929-1.4325-.5645-2.9251-.9625-4.4486-1.1863-1.2723-.1613-2.5144-.5069-3.6871-1.026-.2883-.1736-.5571-.3779-.8016-.60916v9.49076h13.3859v1.4748H20.2816v8.4644c3.6951.052 7.3288-.9489 10.4763-2.8856.3527-.2394.6851-.5074.9939-.8015h-8.0155v-1.3787h11.6225l.016.0561c-.654.7545-1.3497 1.4717-2.084 2.1482-.5215.4703-1.0789.8991-1.6673 1.2825-3.4262 2.1704-7.4151 3.2854-11.4702 3.2062-1.7448.0029-3.4845-.1907-5.186-.5771-.7374-.1604-1.4748-.3848-2.1802-.6092-.4803-.1544-.9514-.3364-1.4107-.5451l-.1924-.0962c-.3527-.1603-.7695-.3526-1.1542-.545-.11106-.0569-.21817-.1212-.32067-.1924-.14428-.0801-.28856-.1683-.43284-.2565-.14427-.0882-.28855-.1763-.43283-.2565-.08016-.0481-.1523-.1042-.22444-.1603-.07214-.0561-.14428-.1122-.22443-.1603-.1441-.1144-.29391-.2214-.44887-.3206-2.59702-1.9959-4.00775-4.4807-3.94363-7.1018.01347-.8183.15408-1.6295.41681-2.4046.26356-.7785.64177-1.5133 1.12218-2.1802.67581-.946 1.48587-1.7885 2.40464-2.5009.66047-.4916 1.35117-.9414 2.06798-1.3466.4356-.2501.8852-.4749 1.3466-.6733.458-.203.9293-.3744 1.4108-.513.7092-.2692 1.4381-.4835 2.1802-.64119 1.1658-.22534 2.3432-.3859 3.5268-.48093.0415-.01467.0867-.01467.1282 0h.1283v1.60312h-.1283c-1.2997.2127-2.5334.7199-3.6069 1.4828-.8251.6107-1.5498 1.3463-2.1482 2.1802-.0391.0489-.0715.1029-.0962.1604l-.3527.4649c.0107 0 .0179-.0072.025-.0143.0142-.0142.0285-.0285.0712.0143.0642.0641.1603.0641.2565.0641.7004.2386 1.4188.4209 2.1482.545.1355.0397.2756.0613.4168.0642.5771.0961 1.1863.1603 1.7955.2244.5321.0624 1.0673.0945 1.6031.0962v1.6031c-.1957-.0103-.3881-.0173-.5772-.0242-.3995-.0145-.7842-.0285-1.1542-.072-.7054-.0641-1.3466-.1603-1.8916-.2565h-.1924c-.739-.0988-1.4683-.2596-2.1802-.4809-.2726-.0676-.5404-.1533-.8016-.2565l-.1924-.0642c-.1303.3452-.2375.6987-.3206 1.0581-.0093.0374-.0214.0775-.0338.1187-.0302.1003-.0624.2072-.0624.2981-.0153.0919-.0324.1838-.0497.2761-.0549.2943-.1106.5929-.1106.9102h7.6148V6l.1282.2565c.1711.36687.3864.71143.6412 1.02598.4577.53672.9739 1.02065 1.539 1.44279.0481.03207.0962.05611.1443.08016.0481.02404.0962.04809.1443.08015l.2885.19238c1.1574.53062 2.3907.87681 3.6551 1.02594 1.7181.2128 3.3862.7227 4.9296 1.507 2.4928 1.1301 5.2822 4.136 5.699 7.2139Zm-21.0167 3.8318c1.2605-.2283 2.5354-.3676 3.8154-.4168l.008-1.3787h-7.5907c.0595.5182.1505 1.032.2726 1.539v.1283c.0961.3206.1923.6412.3206.9939.3206-.1283.6733-.2565.9939-.3527.7054-.1924 1.4428-.3847 2.1802-.513Zm3.7913 6.5647v-5.4585c-1.27.0609-2.5342.2108-3.7833.4488-.7376.1537-1.4457.3663-2.0679.5531-.0269.0081-.0537.0161-.0802.024-.0353.034-.08.0564-.1283.0642-.0641.0641-.1282.0641-.1923.0641.1061.1888.2239.3709.3526.545.5722.8558 1.301 1.5955 2.1482 2.1803.338.2613.7004.4895 1.0821.6813.5687.3049 1.1713.5417 1.7955.7054.166.0622.3455.0976.521.1322.0956.0189.19.0375.2805.0601h.0721Zm-7.3101-1.7634c.4582.23.9292.4334 1.4107.6092v.0641c.0641.0055.1284.0055.1924 0-.0719-.0677-.1363-.143-.1924-.2244-.5214-.5219-.9936-1.0908-1.4107-1.6993-.0606-.0808-.1142-.1666-.1603-.2565-.0461-.0899-.0997-.1756-.1603-.2565-.0152-.0066-.0316-.01-.0481-.01-.0166 0-.0329.0034-.0481.01-.0321.0641-.0962.0641-.0962.0641-.2624.1821-.5091.3859-.7374.6092l-.0962.1282c-.0209.021-.0453.0351-.06752.048-.04576.0264-.08232.0476-.06073.1124.03206.0961.12825.0961.12825.0961.2826.1799.6064.3391.9219.4943.0782.0385.1559.0767.2323.1149l.1924.0962Zm-2.78939-1.7233c.11456-.1328.2216-.272.32062-.4168.32913-.3417.69776-.6431 1.09817-.8978l.1603-.0962.1603-.0961c-.1594-.3045-.2882-.624-.38477-.9539-.21854-.7857-.35817-1.5912-.41681-2.4046H5.56511c.27471 1.6669 1.12571 3.1845 2.40466 4.2883.19237.1923.4168.3847.64124.5771Zm-1.79548-9.2579c-.40248.5341-.71642 1.1295-.92979 1.7634l-.05611-.008c-.13377.3744-.23042.761-.28855 1.1542h4.00774c.04999-.5257.13299-1.0477.24848-1.563.0202-.1414.06586-.2956.11292-.4544.02763-.0933.05574-.1882.07946-.2831v-.1282c.07762-.2589.17622-.5178.26192-.7429.0205-.0537.0402-.1054.0587-.1548l-.2244-.1283h-.0642c-.58573-.3317-1.10703-.7661-1.53894-1.2825-.06656.0827-.1418.1579-.22444.2245-.07726.0933-.16313.1792-.25649.2565-.43206.4152-.82886.8656-1.1863 1.3466Zm3.1501-2.9497c-.05625.0535-.12133.0969-.19237.1282l.0561-.024c-.02871.026-.06113.0476-.09618.0641.08612.1156.18271.2229.28852.3206.2496.2768.5323.5217.8417.7294l.1923-.2885c.0321-.0481.0642-.1042.0962-.1604.0321-.0561.0641-.1122.0962-.1603.4049-.6274.878-1.2081 1.4107-1.7313l.1603-.1603h-.0961l-.3207.1282c-.3716.1409-.7355.3015-1.0901.481h-.0962c-.4488.2244-.8336.4168-1.25037.6733Z"/>
</svg>