<svg xmlns="http://www.w3.org/2000/svg" viewBox="0 0 40 40">
	<path class="bg-logo" fill="#FF5000" d="M0 0h40v40H0z"/>
	<path fill="#fff" d="M12.375 15.875v1.75H12c-.6875-1.25-2-2-3.5-2-2.4375 0-4.75 2.3125-4.75 5.3125s2.25 5.25 4.75 5.25c1.5 0 2.8125-.75 3.5-2h.375v1.75h2.1875V15.875H12.375Zm-3.25 8.25c-1.75 0-3.1875-1.375-3.1875-3.25 0-1.8125 1.375-3.25 3.1875-3.25 1.75 0 3.25 1.375 3.25 3.25s-1.4375 3.25-3.25 3.25ZM23.6875 19.5625H19.875v-1.625h6.4375v-2h-8.625V26h6c2.0625 0 3.4375-1.375 3.4375-3.25 0-1.8125-1.4375-3.1875-3.4375-3.1875ZM23.4375 24H19.875v-2.5h3.5625c1 0 1.5.5 1.5 1.25s-.5 1.25-1.5 1.25Z"/>
	<path fill="#00F500" d="M32.5 20c2.0625 0 3.75-1.6875 3.75-3.75s-1.6875-3.75-3.75-3.75-3.75 1.6875-3.75 3.75S30.4375 20 32.5 20Z"/>
</svg>