<svg xmlns="http://www.w3.org/2000/svg" viewBox="0 0 40 40">
	<path class="bg-logo" fill="#073F37" d="M0 0h40v40H0z"/>
	<path fill="#fff" d="M16.8655 34.672V12.3877c.5974-.4476 2.1049-1.3427 3.358-1.3427 1.2539 0 2.6121.8958 3.1343 1.3434l-.2163 22.2821c.3759-.0801.7465-.1743 1.1114-.2819V13.0604c2.6867.3581 3.9555 3.1343 4.2538 4.4777 1.4329 0 2.2385 1.6417 2.463 2.4629v10.2298C33.47 27.551 35 23.9542 35 20c0-8.2843-6.7157-15-15-15S5 11.7157 5 20c0 4.1237 1.66399 7.8587 4.35713 10.5702-.03632-.0887-.0718-.1791-.10639-.2713V20.001c.22449-.8212 1.03006-2.4629 2.46296-2.4629.2983-1.3434 1.5671-4.1196 4.2538-4.4777v21.3914c.2958.0823.5952.1558.898.2202Z"/>
</svg>