<svg xmlns="http://www.w3.org/2000/svg" viewBox="0 0 40 40">
	<path class="bg-logo" fill="#103984" d="M0 0h40v40H0z"/>
	<path fill="#fff" d="M20.0026 29.7102C28.2833 29.7102 35 25.2995 35 19.8551S28.2833 10 20.0026 10C11.722 10 5 14.4107 5 19.8551s6.7167 9.8551 15.0026 9.8551Zm12.4103-12.7337c.4758.8105.769 1.7151.8589 2.6506.2332 4.4743-5.2271 8.4078-12.193 8.7684-4.3894.2226-8.3283-1.0073-10.698-3.0748 2.896 1.4917 6.1432 2.1679 9.3939 1.9562 7.2787-.387 12.9988-4.3683 12.7602-8.9009-.0281-.3267-.1315-.6424-.3022-.9224-2.3431 0-6.8917-.0318-9.1924 0-.196.591-.3501 1.1951-.4612 1.8078.8694 0 5.6723.1059 5.6723.9224 0 1.1239-5.2694 4.241-6.8917 4.241-1.092 0-1.2616-.3075-1.2616-.9331.1288-1.2545.3991-2.4905.8058-3.6843l-1.6593-.0636c-1.6593 2.5605-3.3398 3.6313-7.6445 4.6492-.7392.1874-1.4962.2957-2.25834.3233-.71674-.4932-1.31883-1.1351-1.76533-1.8819-.49401-.8466-.78777-1.7949-.85881-2.7726-.23856-4.4742 5.22708-8.3919 12.19288-8.7577 4.3896-.2332 8.3284 1.0072 10.7087 3.0641-2.8947-1.4831-6.138-2.152-9.3833-1.9349-7.1037.3763-12.72309 4.1668-12.7708 8.551.04634.6535.2268 1.2906.53013 1.8713.65995.1459 1.33334.2223 2.00917.228 4.1191 0 6.123-1.5904 7.6763-3.5095-1.3837-.0318-7.1621-.3127-7.1621-1.6699 0-.827 2.4068-1.1663 3.5572-1.1663 1.882 0 3.8328.1061 5.7837.1379.5778-.7794 1.7759-2.762 3.5042-2.762.1696 0 .6308 0 .6308.1378 0 .6097-.6308 2.0463-.7475 2.7302h9.1977l-.0318-.0053ZM19.5945 19.097c.3551-.5301.7209-1.0602 1.1132-1.6487.2863.0318.896.0318 1.1769.0318-.2809.5778-.5036 1.1027-.7263 1.6805-.4612-.0318-1.1557 0-1.5904-.0636h.0266Zm1.5903-2.2266c.1697-.1377.8907-1.3146 1.4897-1.2935.02.0232.035.0502.0442.0794.0091.0291.0121.0599.0088.0903-.1267.4062-.3048.7947-.5301 1.1556h-.4082c-.2072.0039-.4145-.0067-.6203-.0318h.0159Zm5.3862 3.6845v.1378c0 .652-3.552 2.7302-4.591 2.7302-.0711-.0236-.1323-.0704-.1736-.1328-.0413-.0626-.0605-.1371-.0543-.2118.0882-1.0971.3089-2.1793.6574-3.2232.6308.0742 3.6738.1696 4.0131.5884.1166.0636.0529.1273.1166.1273l.0318-.0159Zm-7.109-3.096c-.4613.5302-.8377 1.0603-1.2406 1.5214-.9118-.0318-5.5239-.3339-5.5239-1.0602 0-.2439 1.092-.3128 1.3836-.3128 1.6275-.0636 3.7162-.0848 5.349-.1272l.0319-.0212Z"/>
</svg>