<svg xmlns="http://www.w3.org/2000/svg" viewBox="0 0 40 40">
	<path class="bg-logo" fill="#0061AB" d="M0 0h40v40H0z"/>
	<path fill="#fff" d="m22.0643 21.0717-.9899.9901.658 1.5901 1.9216-1.9221-1.5897-.6581Zm-1.3568 1.1415h-1.4033l-.6581 1.5901h2.7136l-.6522-1.5901Zm1.514-2.9121v1.3978l1.5839.6582v-2.7142l-1.5839.6582Zm-3.29 2.7607-.99-.9901-1.5838.6581 1.9216 1.9221.6522-1.5901Zm2.8009-5.7137-.658 1.5901.9899.9901 1.5897-.6581-1.9216-1.9221Zm-2.4282 1.4328h1.4033l.6522-1.5842h-2.7136l.6581 1.5842Zm-1.5141 2.918v-1.3978l-1.5838-.6582v2.7142l1.5838-.6582Zm.1514-1.7706.99-.9901-.6522-1.5901-1.9216 1.9221 1.5838.6581Zm1.0482-3.7742h9.5964c.3319 0 .6639.1281.9201.3844.2561.2563.3843.5883.3843.9203 0 .332-.1282.6698-.3843.9261l2.2011 2.2016C32.5691 18.7244 33 17.5887 33 16.4588c0-1.13-.4309-2.2599-1.2927-3.1219-.8619-.862-1.9915-1.293-3.1212-1.293h-6.4869l-3.1095 3.1102Zm3.7209.699 6.7839 6.7912c.2387.2329.3843.5591.3843.9202s-.1456.6873-.3843.9261c-.2329.2329-.559.3785-.92.3785v3.1161c1.217 0 2.3234-.4951 3.1211-1.293.8036-.8038 1.2928-1.9046 1.2928-3.1277 0-1.2173-.495-2.3239-1.2928-3.1277l-4.5827-4.5837h-4.4023Zm2.1371 3.1276v9.5986c0 .332-.1281.6698-.3843.9261-.2562.2504-.5882.3786-.9201.3786-.3318 0-.6696-.1282-.92-.3786l-2.207 2.2016c.8677.862 1.9973 1.293 3.127 1.293 1.1297 0 2.2594-.431 3.127-1.293.8618-.862 1.2927-1.9978 1.2927-3.1277l-.0058-6.4825-3.1095-3.1161Zm-.6988 3.7218-6.7839 6.7912c-.2387.233-.5648.3786-.9258.3786s-.6813-.1456-.92-.3786c-.2388-.2387-.3844-.5649-.3844-.9261h-3.1153c0 1.2232.4949 2.324 1.2985 3.1277.7978.798 1.9042 1.2931 3.1212 1.2931 1.2228 0 2.3234-.4951 3.127-1.2931l4.5827-4.5896v-4.4032Zm-3.127 2.1375h-9.5964c-.3319 0-.6696-.1281-.92-.3785-.2562-.2563-.3843-.5883-.3843-.9261 0-.332.1281-.664.3843-.9203l-2.20113-2.2016c-.86764.8621-1.29855 1.992-1.29855 3.1219 0 1.1299.43091 2.2657 1.29855 3.1277.86181.862 1.99153 1.293 3.12113 1.293h6.487l3.1094-3.1161Zm-3.7384-.7397-6.7838-6.7853c-.2388-.2388-.3844-.565-.3844-.9261 0-.3611.1456-.6873.3844-.9202.2329-.2389.559-.3845.92-.3845V11.974c-1.217 0-2.3234.4951-3.12116 1.293C7.49496 14.065 7 15.1716 7 16.3889c0 1.2231.49496 2.3239 1.29854 3.1277l4.58276 4.5837h4.4022Zm-2.1196-3.0869v-9.5985c0-.332.1281-.664.3844-.9203.2504-.2562.5881-.3786.92-.3844.3319 0 .6638.1282.9201.3844l2.2069-2.20159C18.7277 7.431 17.598 7 16.4683 7c-1.1296 0-2.2593.431-3.127 1.29301-.8618.86201-1.2927 1.99189-1.2927 3.12769v6.4825l3.1153 3.1102Zm.6988-3.7218 6.7839-6.7853c.2387-.2388.5649-.3786.9259-.3786s.6812.1456.92.3786c.2387.2388.3843.5591.3843.926h3.1153c0-1.2231-.5007-2.3297-1.2985-3.12764-.7978-.79794-1.9041-1.29301-3.1211-1.29301-1.2229 0-2.3292.49507-3.1271 1.29301l-4.5827 4.58374v4.4032Zm4.9205 4.5838 1.0947-1.1007v-1.5552l-1.0947-1.0949h-1.5548l-1.1005 1.0949v1.5552l1.1005 1.1007h1.5548Zm-2.4922 2.2657-2.4283-2.4229v-3.4364l2.4283-2.4287h3.4297l2.4282 2.4287v3.4364l-2.4282 2.4229H18.291Z"/>
</svg>