<svg xmlns="http://www.w3.org/2000/svg" viewBox="0 0 40 40">
	<path class="bg-logo" fill="#7A66A8" d="M0 0h40v40H0z"/>
	<path fill="#fff" d="M16.851 22.4333v-.7407c-.7354-.3247-1.6922-.5486-2.739-.5486-1.8327 0-2.963.7142-2.963 2.087 0 1.1251.9567 1.781 2.3441 1.781 2.005.0013 3.3579-1.0641 3.3579-2.5787ZM7 23.3397c0-3.2081 2.50847-4.6923 6.0943-4.6923 1.5278 0 2.6264.2465 3.6984.599v-.2438c0-1.7254-1.1012-2.6861-3.2466-2.6861-1.6378 0-2.7933.3048-4.17677.7911L8.29598 13.926c1.66701-.7156 3.30352-1.1794 5.87032-1.1794 2.3402 0 4.039.6016 5.111 1.6485 1.129 1.0985 1.6379 2.7125 1.6379 4.6923v8.5312h-4.1543v-1.5929c-1.0402 1.1264-2.4793 1.8698-4.569 1.8698C9.34416 27.8982 7 26.3027 7 23.3397Zm18.2881 5.384c3.8111-2.5853 5.4476-5.1084 5.4476-8.9791 0-3.8667-1.6378-6.3937-5.4476-8.9698L27.1791 8C32.3709 10.7457 35 14.4786 35 19.7446c0 5.2687-2.6291 8.999-7.8209 11.7433l-1.891-2.7642Z"/>
</svg>