<svg xmlns="http://www.w3.org/2000/svg" viewBox="0 0 40 40">
	<path class="bg-logo" fill="#433a31" d="M0 0h40v40H0V0Z"/>
	<g fill="#deab3e">
		<path d="M20 5C11.7 5 5 11.7 5 20s6.8 14.9 15 14.9 15-6.7 15-15S28.3 5 20 5Zm9.9 24.9c-5.4 5.4-14.3 5.4-19.8 0-5.4-5.4-5.5-14.3 0-19.8 5.4-5.4 14.3-5.4 19.8 0 5.4 5.4 5.5 14.3 0 19.8Z"/>
		<path d="M23 22.8c-1.1 1-1.1 2.7 0 3.7 1.1 1.1 2.7 1.1 3.7 0 1.1-1 1.1-2.7 0-3.7-1-1.1-2.7-1.1-3.7 0Z"/>
		<path d="M29.4 10.6c-5.2-5.2-13.7-5.2-18.8 0-2.5 2.6-2.5 6.8 0 9.4 2.5 2.5 6.5 2.6 9.2.4l.5-.5.1-.1c2.6-2.3 6.7-2.2 9.2.3 2.1 2.2 2.5 5.4 1.1 8 3.9-5.2 3.4-12.6-1.4-17.3ZM17 16.8c-1 1-2.7 1-3.7 0-1.1-1-1.1-2.7 0-3.7 1-1.1 2.7-1 3.7 0 1.1 1 1.1 2.6 0 3.7Z"/>
	</g>
</svg>