<svg xmlns="http://www.w3.org/2000/svg" viewBox="0 0 40 40">
	<path class="bg-logo" fill="#F78429" d="M0 0h40v40H0z"/>
	<path fill="#fff" d="M20.1612 4.00286c-4.1596-.07999-8.2391 1.51985-11.27884 4.47954-3.03969 2.9597-4.79951 6.9593-4.8795 11.1989-.07999 4.2395 1.51985 8.3191 4.39955 11.3588 2.87969 3.0397 6.87929 4.7995 11.11889 4.9595v-9.519l-5.9194-3.4397v4.5595l4.6395 2.7198v2.8797c-2.1598-.32-4.2396-1.1999-5.9994-2.5598-1.7598-1.3598-3.11966-3.1197-4.07956-5.1194-.87991-1.9998-1.27987-4.2396-1.11989-6.4794s.87991-4.3995 2.07979-6.2393c1.19986-1.8399 2.79976-3.43969 4.79946-4.47958 1.9198-1.0399 4.0796-1.59984 6.3194-1.59984s4.3995.55994 6.3194 1.59984c1.9198 1.03989 3.5996 2.63968 4.7995 4.47958l2.2397-1.3599c-1.4398-2.23977-3.3596-4.15958-5.7594-5.43944-2.3997-1.27987-5.0395-1.9998-7.6792-1.9998Zm11.7589 9.91944 2.2397-1.3599c1.1999 2.3198 1.8398 4.8795 1.8398 7.4392 0 4.1596-1.5998 8.0792-4.3995 11.1189C28.7204 34.0802 24.8808 35.84 20.8012 36v-9.519l5.9994-3.4397v4.5596l-4.6395 2.7197v2.8797c2.0798-.32 4.0795-1.1999 5.7594-2.3998 1.6798-1.1998 3.0397-2.7997 3.9996-4.7195.9599-1.9198 1.4398-3.9996 1.4398-6.0794 0-2.0797-.4799-4.1595-1.4398-6.0793Zm-5.1995 7.5992-5.9194 3.4396v-4.5595l5.9194-3.4396v4.5595Zm-13.1187-.0002 5.9194 3.4397v-4.5596l-5.9194-3.4396v4.5595Zm0-6.1593 6.5594-3.7597 6.5593 3.7597-6.5593 3.8396-6.5594-3.8396Z"/>
</svg>