<svg xmlns="http://www.w3.org/2000/svg" viewBox="0 0 40 40">
	<path class="bg-logo" fill="#FE5000" d="M0 0h40v40H0z"/>
	<path fill="#fff" d="M28.0479 8H11.993C9.78851 8 8 9.78547 8 11.9862v16.0276C8 30.2145 9.78851 32 11.993 32h16.0133c2.2045 0 3.993-1.7855 3.993-3.9862V11.9862C32.0409 9.78547 30.2524 8 28.0479 8Zm2.7452 19.5986c-.0416.0416-.1248.0831-.1664.0416-3.0779-1.8686-6.7381-2.9481-10.6062-2.9481-3.8682 0-7.5284 1.0795-10.60633 2.9481-.04159.0415-.12478 0-.16637-.0416-.0416-.083 0-.1246.04159-.1661 2.82831-2.1592 5.24081-4.8996 7.11251-8.1384 1.8716-3.2387 3.0363-6.7266 3.4938-10.21451 0-.04153.0415-.12457.1248-.12457.0831 0 .1247.04152.1247.12457.4576 3.48791 1.6222 6.97581 3.4939 10.21451 1.8717 3.2388 4.3257 5.9792 7.1124 8.0969.0832.083.0832.1246.0416.2076Z"/>
</svg>