<svg xmlns="http://www.w3.org/2000/svg" viewBox="0 0 40 40">
	<path class="bg-logo" fill="#F5671E" d="M-.00024414 0h40v40h-40z"/>
	<path fill="#fff" d="M28.3141 9.1731C26.475 8.55131 24.3357 8.19457 22.0692 8l-2.8138 6.2695c-2.8133 0-5.4254.375-7.6193 1.1167-1.69038.5715-3.3201 1.5425-4.59391 2.9398-1.34058 1.4706-2.04243 3.3168-2.04243 5.4065 0 2.0899.70185 3.9361 2.04243 5.4066 1.19153 1.307 2.73766 2.1556 4.31591 2.7273l2.3884-5.3215c-1.951 0-3.5892-.3294-4.43056-.6139-1.08115-.3655-1.64493-.8108-1.92107-1.1139-.20937-.2296-.36462-.5142-.36462-1.0846 0-.5702.15525-.8548.36462-1.0844.27614-.3031.83992-.6994 1.92107-1.0649 1.19846-.4051 3.97906-.9048 7.06336-.9048l2.8762-6.4088c4.2266 0 9.6408.3983 11.4279 1.0026 1.0812.3655 1.645.7618 1.9212 1.0648.2092.2296.3647.5143.3647 1.0846 0 .5702-.1555.8549-.3647 1.0846-.2762.3029-.84.6993-1.9212 1.0648-2.2229.7516-10.1042 1.1075-14.3042 1.1075l-2.6329 5.8661h2.9409c2.6343.0001 8.3165.0001 11.6269-1.1192 1.6904-.5716 3.3694-1.2 4.6431-2.5972 1.3406-1.4707 2.0426-3.3169 2.0426-5.4066 0-2.0898-.702-3.936-2.0426-5.4066-1.2737-1.3973-2.9527-2.27042-4.6431-2.8419Z"/>
</svg>