<svg xmlns="http://www.w3.org/2000/svg" viewBox="0 0 40 40">
	<path class="bg-logo" fill="#216B36" d="M0 0h40v40H0z"/>
	<path fill="#fff" d="M20.0353 4C11.1347 4 4 11.1347 4 19.9646 4 28.7947 11.1347 36 19.9646 36 28.7947 36 36 28.8653 36 20.0353 36.0706 11.2759 28.7947 4 20.0353 4Zm14.34 17.4481-2.967-4.4503-8.9006 8.0529c-.27.246-.5466.5037-.8285.7663v.0001c-3.0367 2.8291-6.6814 6.2248-9.2024 1.6354-1.8366-3.32-1.4128-9.0419.777-11.8675 1.4128-1.6954 3.4614-1.6954 4.8036.2825l4.8742 7.276 2.1898-1.978-3.3201-5.086c-1.6954-2.4725-3.8145-3.532-5.9338-3.532-1.8366-.0707-3.4613.565-4.8741 1.6953-4.1678 3.3201-4.37971 10.5254-1.05963 14.6225 3.81453 4.6623 9.25383 3.1788 13.35103-.4945l7.6291-6.8521 2.543 3.8852c-.0286.0859-.0688.1717-.1112.2622v.0001c-.0623.133-.1293.276-.1713.4441l-2.0486-3.1081-2.2605 2.1192 2.6137 3.8852c-.106.1413-.212.2649-.3179.3885-.106.1237-.2119.2473-.3179.3886l-2.7549-4.1679-2.1899 2.1193 2.755 4.0971c-2.4018 1.8366-5.4393 2.8963-8.6888 2.8963-7.9116-.0707-14.41051-6.5696-14.41051-14.4813 0-8.0529 6.49891-14.41056 14.48121-14.41056S34.4459 12.3356 34.4459 20.3178c0 .127-.0143.2826-.03.4538v.0001c-.0192.2097-.0406.4431-.0406.6764ZM20.9535 6.75473c-.4944 0-.7769 0-1.0595.07063 1.4127.35321 1.8366.98897 2.543 2.11921l6.0044 8.90063 2.1899-1.9779-4.1678-6.35761c-1.4834-2.18984-3.8852-2.75496-5.51-2.75496Zm-6.4987 1.2719c.989-.56512 2.1192-.84768 3.2495-.84768 1.5541 0 2.9669.42384 3.9559 1.90729l6.2869 9.46576-2.1898 1.978-6.9934-10.3842c-1.1303-1.62468-2.6137-2.33108-4.3091-2.11917Z"/>
</svg>