<svg xmlns="http://www.w3.org/2000/svg" viewBox="0 0 40 40">
	<path class="bg-logo" fill="#00753A" d="M0 0h40v40H0z"/>
	<path fill="#FC0" d="M13.8243 9.7257c-.3558-.4509-.6258-.96378-.7982-1.51149-.5859.35665-1.3417.84916-1.987 1.2058 1.1421.86949 1.8588 2.18569 1.97 3.61739 1.6389-.9426 3.3966-1.9615 4.7807-2.8192.6878-.41607 1.7408-1.03595 2.4965-1.46902 2.471 1.42662 4.7213 2.73422 7.2857 4.24572.3397-1.8851.8492-2.7682 1.9531-3.60886-.6114-.36513-1.3672-.84915-1.9955-1.22277-.0883.38551-.2225.75914-.3991 1.11238-.794 1.04275-2.2053 1.39515-3.3966.84915-.687-.26663-1.1591-.90434-1.2143-1.63886-.0212-.9502.4551-1.84181 1.2567-2.35215-.968-.56893-2.5474-1.46903-3.4475-1.97852-.9681.57743-2.5814 1.42658-3.4815 1.97003.4678.37618.8432.85595 1.0954 1.4011.2369.47638.2369 1.03512 0 1.51149-.743 1.29321-2.3938 1.73911-3.6871.99601-.1537-.08827-.298-.19186-.4313-.3082Z"/>
	<path fill="#fff" d="M9.069 9.33467c-.1953.21228.07643.35664.16983.3906 1.87667.72183 2.22477 1.40963 2.43707 2.86163.1112.5104.1342 1.036.0679 1.554.0187.2573.242.4509.4993.433.0569-.0042.1121-.0187.1631-.0424l7.8631-4.6279c3.8212 2.3182 4.3731 2.6154 7.8801 4.6364.2081.1265.4798.0611.6072-.1469.0458-.0756.0687-.1631.0637-.2522-.1308-.9766.0322-1.9692.467-2.8532.3974-.8007 1.1387-1.37561 2.0125-1.56243.2292-.05094.3142-.35664.1868-.42457-2.038-1.12088-3.1504-1.6983-4.6364-2.54745-.2208 0-.3142.07642-.3057.21228.023.39826-.0025.79736-.0764 1.18882-.1274.61223-.5808 1.10474-1.1803 1.28221-.6564.12738-1.3162-.19955-1.6134-.7982-.0654-.25305-.0654-.51968 0-.77273.0679-.47552.8491-1.21428 1.5285-1.63037.1189-.06793.1953-.22927 0-.38211C22.2733 4.15485 22.112 4.04446 20.2693 3c-1.4605.84915-2.972 1.6983-4.9166 2.87013-.1698.18681-.1019.28022 0 .34815 1.1803.86614 1.4606 1.35015 1.6049 1.91059.2463.95954-.985 1.51149-1.5964 1.4011-1.4096-.24625-1.3586-2.004-1.3586-2.505 0-.0934-.2208-.17832-.2887-.23776-2.021 1.09541-2.7598 1.49451-4.6449 2.54746Zm3.5495 4.49203c-.1529.1104-.3991.1613-.3312-.1868.3312-1.3926-.6539-3.7448-2.2503-4.24579l3.4476-1.91059c-.0229.54685.1095 1.08861.3821 1.56243.8492 1.56245 3.9146 1.11235 3.6938-1.00199-.1961-.71669-.6462-1.33827-1.2652-1.74926-.068-.11038-.2378-.24625.0679-.42457 1.3162-.74725 2.6239-1.51998 3.9316-2.27572.8491.48401 1.6983.96803 3.8976 2.2927.2887.16134.1613.32268.0679.40759-.8491.76424-1.6049 1.63037-1.1378 2.64936.4313.63941 1.1556 1.01982 1.9275 1.01048.8195-.04415 1.5404-.55619 1.8512-1.31618l.1783-1.16334c1.4181.84916 1.7408.97653 3.4475 1.86814-1.0826.46108-1.8851 1.40454-2.1653 2.54744-.1758.5503-.1961 1.1379-.0594 1.6983 0 .1613 0 .3482-.3652.2038-3.0909-1.8257-4.2457-2.5474-7.6423-4.492-2.7513 1.6728-4.9251 2.955-7.6763 4.526Zm-1.07 1.8087c-.2123.1868-.1783.3226-.0679.6114.6369 1.5709-1.0954 4.5259-.3651 8.8481.4245 2.5475 2.471 5.2732 4.3816 7.1499.1104-.0765.1613-.3227.2377-.3907-1.6736-1.5615-2.9533-3.4959-3.7362-5.6468-1.2653-3.8127-.1189-6.1139.0679-8.3557l.0679-.7557s-.1019-.8491-.1104-.8491c-.0084 0-.0424-.2038 0-.2378 2.8107-1.4096 5.579-3.0145 8.2113-4.6534 1.9106 1.019 3.006 1.7918 4.8996 2.8447 1.1014.6513 2.235 1.2466 3.3966 1.7832.0595.0679.068.1698 0 .3482-.1987 1.1174-.1019 2.2681.2803 3.3371h.4245c-.2123-.8491-.5519-2.5474-.1273-3.3966.0772-.1995.0458-.4245-.085-.5944-.4848-.3396-1.0062-.625-1.5539-.8491-3.7278-2.1569-3.5919-1.987-7.1329-4.0929-2.2162 1.0444-5.7063 3.3966-7.1328 4.0844-.6114.2717-1.1124.5859-1.6559.8152Zm1.07.6963c.2547.9935-.1784 3.2437-.518 4.7892-.1019.6793-.2548 2.0549.3396 2.5474.2718.113.5775.113.8492 0 1.469-.8067 4.2457-2.7597 5.3496.1274.8492 2.3097 1.0954 6.2243.8492 8.8312-.1698-1.6983-.8492-8.7293-3.9825-7.7698-1.0785.3397-2.4371.7133-3.3966-.2292.563 2.5729 1.8749 4.9216 3.7702 6.7507.2972-.7812.3736-1.1463.5604-1.6983-.4755-1.3331-1.435-2.6154-1.5624-4.0844.2547 0 .8491-.2887 1.1633-.1783.7193.2038 1.2041.8755 1.1719 1.6219 0 2.1823-.051 3.2607 0 5.7487l2.8276 2.6494V12.1454c-3.3966 1.9785-4.7212 2.7767-7.4215 4.1863Zm2.6238 1.8002c.3023-.8135 1.1039-1.3315 1.9701-1.2738v4.6704c-.8356-.1164-1.6848.0704-2.3946.5264-.4416-.9085.1273-3.3456.4245-3.923Zm13.2892 5.1203c.2157-.2275.3881-.4925.5095-.7812.2123 1.8002-.1664 3.6217-1.0784 5.1883-1.6983 3.2608-5.0524 6.1564-7.6423 8.6953-1.5455-1.4775-2.1484-2.0804-3.1079-3.0144 0 .1783-.1444.4415 0 .5944 1.452 1.4775 2.4115 2.3351 3.1588 3.0654 1.2058-1.1039 2.4116-2.5475 3.6004-3.6174 3.0654-2.7088 6.9036-7.9905 5.5025-12.2193-.1121-.0246-.2276-.0246-.3397 0-.3566.7643-.5689 1.8087-1.469 1.9276-2.2418-.8491-2.6154-1.987-4.2457-1.5285v-4.6788c2.3436 1.2652 2.7257 1.4436 4.7977 2.6069-.2259-1.0427-.2981-2.1127-.2123-3.1758-2.4371-1.3247-3.541-1.9361-7.3792-4.1099v23.2667c1.5846-1.4427 3.0901-2.9703 4.509-4.5769 1.1761-1.2856 2.0957-2.7844 2.7088-4.4156l.518-1.8341c-.7855.6334-1.8715.7438-2.7682.2802-1.97-.8492-3.0145.9001-3.7108 2.6748-.6199 1.6219-.6369 3.5325-.8492 5.0949-.118-1.6168-.118-3.2404 0-4.8571.1079-1.3502.394-2.6808.8492-3.9571.3023-1.1574 1.4852-1.8503 2.6417-1.548.1308.034.259.0807.3813.1384 1.0869.4076 2.5474 1.6983 3.473 1.019.0509-.0424.0594-.1698.1359-.2378h.0169Zm-5.0949 7.4216c0-2.2078 0-2.7427.0425-4.3561.6029-.7812 1.1803-1.1549 2.2248-.6793-.3337 1.8384-1.1116 3.5672-2.2673 5.0354Z"/>
</svg>