<svg xmlns="http://www.w3.org/2000/svg" viewBox="0 0 40 40">
	<path class="bg-logo" fill="#0D47A1" d="M0 0h40v40H0z"/>
	<path fill="#fff" d="M20 18.987c-1.791-.3731-3.5075-.6716-5.2985-.6716-4.403 0-9.40299 1.5671-9.7015 4.4776v-1.5672c0-.4154.14156-.7364.27459-1.0381.03427-.0777.06797-.1541.09854-.2305.67165-.8956 1.49254-1.3433 2.38806-1.7911 2.31341-.9701 4.62691-1.2686 7.08951-1.2686h.8956c-.3732-.4478-.5224-.8209-.597-1.1941h-.4478c-4.403.0747-9.40299 1.5672-9.7015 4.1791v-1.5671c0-.4946.15365-.7843.33366-1.1238.03728-.0703.07569-.1427.1141-.2195.67164-.8955 1.49254-1.3433 2.38806-1.7911 2.31348-.9701 4.62688-1.2686 7.08958-1.2686h.8955c.2563-.3844.6776-.6589 1.075-.9177.0655-.0427.1303-.0849.1937-.1271-.8209-.1492-1.5672-.1492-2.3881-.1492-4.403.0746-9.40299 1.5671-9.7015 4.1791v-1.5672c0-.424.14752-.7006.32281-1.0291.04065-.0763.0828-.1553.12495-.2396.67164-.8955 1.49254-1.3432 2.38806-1.791 2.31348-.9702 4.62688-1.2687 7.08958-1.2687 1.7164 0 3.2836.2239 5 .6717 1.7164-.4478 3.4328-.6717 5.1492-.6717 5.0747-.0746 9.7761 2.015 9.7761 4.3284S30.2985 19.584 25 19.584c-1.6418-.0746-3.3582-.2239-5-.597Zm11.0448-3.7313c0-1.4179-2.612-2.6866-5.9702-2.6866s-6.0448 1.2687-5.9701 2.6866c0 1.4179 2.6119 2.6865 5.9701 2.6865 3.209 0 5.9702-1.3432 5.9702-2.6865ZM19.8507 20.181c1.7911.3731 3.5075.6716 5.2986.6716 4.4029 0 9.4029-1.5671 9.8507-4.5522v1.5672c0 .5224-.1493.8955-.4478 1.3432-.6716.8209-1.4179 1.3433-2.388 1.7911-2.3135.9701-4.6269 1.2687-7.0896 1.2687h-.8955c.3731.4477.5224.8208.597 1.194h.4478c4.403-.0746 9.403-1.5672 9.7015-4.1791v1.5671c0 .5224-.1493.8956-.4478 1.3433-.6716.8209-1.4179 1.3433-2.388 1.7911-2.3135.9701-4.6269 1.2686-7.0896 1.2686h-.9701c-.2563.3845-.6777.6589-1.0751.9177-.0655.0427-.1303.0849-.1936.1271.8209.1493 1.5672.1493 2.3881.1493 4.4029-.0747 9.4029-1.5672 9.7014-4.1791v1.5671c0 .5224-.1492.8955-.4477 1.3433-.6717.8209-1.4179 1.3433-2.3881 1.791-2.3134.9702-4.6268 1.2687-7.0895 1.2687-1.7164 0-3.2836-.2239-5-.6716-1.7164.4477-3.4329.6716-5.1493.6716C9.70149 28.3153 5 26.3004 5 23.9123c0-2.388 4.62687-4.3283 9.8507-4.3283 1.6418.0746 3.3583.2239 5 .597ZM8.80597 23.987c0 1.4179 2.61193 2.6865 5.97013 2.6865s6.1194-1.3432 5.9702-2.6865c0-1.4179-2.612-2.6866-5.9702-2.6866-3.2089 0-5.97013 1.3433-5.97013 2.6866Z"/>
</svg>