<svg xmlns="http://www.w3.org/2000/svg" viewBox="0 0 40 40">
	<path class="bg-logo" fill="url(#a)" d="M0 0h40v40H0z"/>
  	<linearGradient id="a" x1="-.0529319" x2="27.9743" y1="20" y2="20" gradientUnits="userSpaceOnUse">
  		<stop stop-color="#CC2445"/>
  		<stop offset=".144" stop-color="#CD213F"/>
  		<stop offset=".613" stop-color="#CE1930"/>
  		<stop offset="1" stop-color="#CF162B"/>
  	</linearGradient>
	<path fill="#fff" d="M16.1002 20.1774c0 5.7042 4.3169 10.4067 9.8672 11.023h-9.8672C10.0104 31.2004 5 26.2672 5 20.1002 5 14.0104 9.93361 9 16.1002 9h9.8672c.0768 0 .0768.0772.0768.0772 0 .07675-.0768.07675-.0768.07675-5.5503.61671-9.8672 5.31915-9.8672 11.02345Zm10.4067-5.0104c-.3855 0-.6921-.2325-.8478-.4627-.8391-1.2392-2.0041-2.2352-3.3147-3.0063 1.3106-.6935 2.7751-1.079 4.3937-1.079h.6939c3.0063 0 5.7042 1.3873 7.4771 3.623.2316.3855 0 .925-.4623.925h-7.9399Zm0 10.0207h7.7855c.5395 0 .7733.6185.4628 1.0023-1.7588 2.1704-4.3941 3.5458-7.4004 3.5458h-.6939c-1.5414 0-3.0831-.3855-4.3937-1.079 1.3874-.7711 2.5189-1.791 3.3919-3.0068.1107-.1543.2439-.269.3873-.3454.1469-.0785.3043-.1169.4605-.1169Zm1.079-5.0103c0 1.6957 1.3106 3.0063 3.0063 3.0063s3.0063-1.3106 3.0063-3.0063-1.3106-3.0063-3.0063-3.0063-3.0063 1.3106-3.0063 3.0063Z"/>
</svg>