<svg xmlns="http://www.w3.org/2000/svg" viewBox="0 0 40 40">
	<path class="bg-logo" fill="#313131" d="M0 0h40v40H0z"/>
	<path fill="#fff" d="M17.6991 25.6055h-6.4058c-.5951 0-1.0151-.5969-.8051-1.1579l3.6055-9.7254c.245-.5969.8051-1.0179 1.4701-1.0179h4.1306c.7351 0 1.4002-.4558 1.6453-1.159L22.6348 9H16.579l-1.0152 2.5274c-.2099.5274-.735.8779-1.2951.8779h-4.0256c-.80504 0-1.54012.4916-1.82016 1.2642L4.08235 25.3602c-.31505.8074.31504 1.6853 1.19017 1.6853l11.72658.0347.7-1.4747Zm17.0473-13.2707L23.0199 12.3l-.7351 1.5095h6.4058c.5951 0 1.0152.5969.8051 1.159l-3.5704 9.6538c-.2451.5968-.8052 1.019-1.4702 1.019h-4.1306c-.7351 0-1.4002.4557-1.6452 1.1579l-1.2952 3.5463h6.0558l1.0152-2.5284c.21-.5264.735-.878 1.2951-.878h4.0256c.8051 0 1.5402-.4905 1.8202-1.2631l4.3056-11.6907c.35-.8073-.2801-1.6505-1.1552-1.6505Zm-19.0425 1.9316h4.1655c.6652 0 1.2952-.4211 1.5402-1.0179l1.6452-4.21269h.7352L22.0398 13.459c-.3501.8779-1.2252 1.4748-2.1704 1.4748h-4.1655c-.2101 0-.455.1758-.5251.3863l-3.3604 8.9875c0 .0705 0 .1052.035.14.035.0358.07.0705.14.0705h6.3009l-.3501.6674h-5.9508c-.2801 0-.56-.1411-.7001-.3516-.175-.2105-.21-.5263-.105-.7727l3.3605-8.9874c.175-.4905.63-.8074 1.1551-.8074Zm2.9404 11.8665c.245-.5969.8751-1.019 1.5402-1.019h4.2006c.525 0 .98-.3158 1.1551-.8074l3.3605-8.9875c.1049-.2452.0699-.561-.1051-.7716-.14-.2116-.42-.3515-.7001-.3515h-5.9507l-.3501.6673h6.3008c.0701 0 .1051.0348.1401.0695.035.0358.035.0705.035.1411l-3.3605 8.9874c-.07.2106-.315.3864-.525.3864h-4.2006c-.9452 0-1.8202.5968-2.1703 1.4736l-1.7502 4.4243h.7351l1.6452-4.2126Z"/>
</svg>