<svg xmlns="http://www.w3.org/2000/svg" viewBox="0 0 40 40">
	<path class="bg-logo" fill="#009882" d="M0 0h40v40H0z"/>
	<path fill="#fff" d="M21.2598 5.05146C20.8435 5.01619 20.4255 5 20.0012 5h-.0532c-.4053.00058-.8077.0185-1.2066.05146-.1544.01214-.307.02832-.4597.04682v8.51952c0 .4215.3446.7661.7649.7661h1.8015c.4215 0 .7678-.3446.7678-.7661V5.08499c-.1185-.01272-.2382-.02197-.3561-.03353Zm2.0218.30757v9.09307c-.0301.3168-.2799.5689-.5973.6007v.0023h-1.7361c-.3695 0-.6678.2983-.6678.6655v4.6644c0-.352.2729-.6382.618-.6619h3.3215c.0214.0017.0399.0017.0607.0017s.0416 0 .063-.0017c.2261-.0203.4186-.1579.5232-.3498.0006-.0041.0023-.0052.0041-.0098.0156-.0284.0277-.0602.0399-.092.0046-.0185.0121-.0375.0156-.0578.0046-.0133.0075-.0277.0075-.0439.0075-.0347.0098-.0671.0121-.1035V9.51995c3.9378 1.87265 6.6585 5.88375 6.6585 10.53205 0 5.8723-4.3424 10.731-9.9921 11.5381v-6.5394h2.6063c.0214.0017.0399.0029.0607.0029s.0417-.0018.0631-.0029c.337-.0324.603-.3145.603-.662v-4.6726c0 .3695-.2978.6661-.6661.6661h-3.333c-.3694 0-.6677.2989-.6677.6666v3.9955h-.6661v-3.9955c0-.3677-.2977-.6666-.666-.6666h-3.3318c-.3683 0-.669-.2966-.669-.6661v4.672c.0052.3475.2683.6296.6083.662.0185.0017.0393.0029.0607.0029.019 0 .041-.0017.0624-.0029h2.6045v6.54c-5.649-.8071-9.98974-5.6658-9.98974-11.5381 0-4.6483 2.71964-8.66 6.65334-10.53205v9.54115c0 .0023.0029.0023.0029.0046.0023.0364.0046.0688.0092.1035.0041.0162.0064.0306.0116.0439.0023.0203.0086.0394.0156.0579.011.0318.0248.063.0399.0919.0006.0046.0023.0063.0046.0098.1046.192.296.3301.5244.3498.0185.0017.0393.0017.0607.0017.0191 0 .041 0 .0624-.0017h3.3168c.3487.0237.6204.3099.6204.662V15.72c0-.3671-.2977-.6655-.666-.6655h-1.7339l-.004-.0023c-.3151-.0318-.5666-.2838-.5961-.6007V5.38215C9.96049 6.91829 5 12.8778 5 20.0006 5 28.2663 11.6897 34.9705 19.948 35h.0532c8.2842 0 15-6.7157 15-14.9994 0-7.1575-5.0114-13.14417-11.7196-14.64157Z"/>
</svg>