<svg xmlns="http://www.w3.org/2000/svg" viewBox="0 0 40 40">
	<path class="bg-logo" fill="#006DF0" d="M0 0h40v40H0z"/>
	<path fill="url(#a)" d="M20 34c7.732 0 14-6.268 14-14S27.732 6 20 6 6 12.268 6 20s6.268 14 14 14Z"/>
  	<linearGradient id="a" x1="20" x2="20" y1="34.2789" y2="8.27087" gradientUnits="userSpaceOnUse">
  		<stop stop-color="#4581E9"/>
  		<stop offset=".4792" stop-color="#80ACF0"/>
  		<stop offset="1" stop-color="#fff"/>
  	</linearGradient>
	<path fill="url(#b)" d="M20 34c7.732 0 14-6.268 14-14S27.732 6 20 6 6 12.268 6 20s6.268 14 14 14Z"/>
  	<linearGradient id="b" x1="38.7828" x2="14.8416" y1="34.4587" y2="16.0292" gradientUnits="userSpaceOnUse">
  		<stop stop-color="#4581E9"/>
  		<stop offset="1" stop-color="#4581E9" stop-opacity="0"/>
  	</linearGradient>
	<path fill="url(#c)" d="M20.0001 6.06934c-2.59 0-5.04.7-7.07 1.96-.21.14-.42.35-.56.42-4.76003 4.19996-4.13003 11.82996 1.12 17.00996 5.25 5.18 13.3 5.95 17.99 1.75.49-.42 1.05-1.05 1.33-1.54.7-1.75 1.12-3.57 1.12-5.53.07-7.84-6.23-14.06996-13.93-14.06996Z"/>
  	<radialGradient id="c" cx="0" cy="0" r="1" gradientTransform="rotate(-143.994 22.4851417 8.0228955) scale(34.2811 48.5566)" gradientUnits="userSpaceOnUse">
  		<stop offset=".0969745" stop-color="#4581E9"/>
  		<stop offset=".4599" stop-color="#80ACF0"/>
  		<stop offset=".7942" stop-color="#F0F6FD"/>
  	</radialGradient>
	<path fill="url(#d)" d="M32.7401 19.58c.63-.91.84-2.03.7-3.22-1.05-3.71-3.5-6.79-6.72-8.68-.07-.07-.21-.07-.28-.21-1.89-.98-4.06-1.47-6.44-1.47-1.96 0-3.78.42-5.46 1.12-.42.42-.91.84-1.26 1.33-2.1 3.29.42 8.54 5.81 11.55 5.25 3.22 11.41 2.87 13.65-.42Z"/>
  	<radialGradient id="d" cx="0" cy="0" r="1" gradientTransform="rotate(176.111 24.43697585 5.96131715) scale(30.4704 36.3312)" gradientUnits="userSpaceOnUse">
  		<stop stop-color="#4581E9"/>
  		<stop offset=".5368" stop-color="#87B1F0"/>
  		<stop offset=".8057" stop-color="#CCE0FD"/>
  		<stop offset="1" stop-color="#F0F6FD"/>
  	</radialGradient>
</svg>