<svg xmlns="http://www.w3.org/2000/svg" viewBox="0 0 40 40">
	<path class="bg-logo" fill="#ED1C24" d="M0 0h40v40H0z"/>
	<path fill="#F58220" d="M24.266 19.5969h-1.1974V15.446h1.1176c.3991 0 .7184.0799.9578.2395.2395.1597.3193.3991.3193.7983 0 .1596-.0798.3991-.2394.5587-.1597.1597-.3193.2395-.479.3193.3193.0799.5588.2395.7184.3992.1597.1596.2395.3991.2395.7184 0 .3991-.1596.6386-.3991.8781-.2395.1596-.5588.2394-1.0377.2394Zm-.5588-3.6719v1.1974h.479c.5587 0 .7982-.2395.7982-.6386 0-.3992-.2395-.5588-.7184-.5588-.2395-.0798-.479 0-.5588 0Zm0 1.5965v1.5965h.479c.3193 0 .6386-.0798.7982-.2395.1596-.1596.2395-.3193.2395-.6386 0-.2395-.0799-.4789-.2395-.6386-.1596-.1596-.3991-.1596-.7982-.1596l-.479.0798Zm4.7895 2.0754-.3193-.878h-1.5167l-.3193.878h-.6386l1.6763-4.2307h.1597l1.5965 4.2307h-.6386Zm-1.0377-3.1131-.6386 1.8359h1.1973l-.5587-1.8359Zm4.4702 3.193-2.1553-3.0334v2.9535h-.5588V15.446h.2395l2.0754 2.8737V15.446h.5588v4.2308h-.1596Zm3.0333-.0799-1.1175-1.9158-.5588.7983v1.1175h-.5588V15.446h.5588v2.2351l1.5166-2.2351h.6386l-1.2771 1.836 1.4368 2.3948h-.6386v-.0799ZM23.8668 10.4971c.4789 2.4745-2.0755 7.3439-6.4659 11.814-5.1087 5.3483-10.85613 8.1422-12.77192 6.3062-.87808-.7982-.79825-2.4746 0-4.4702-.55878 1.5965-.47895 2.8737.3193 3.5123 1.91579 1.6763 7.58332-1.1175 12.61232-6.2263 4.1509-4.0711 6.5456-8.5413 6.3062-10.936Z"/>
	<path fill="#fff" d="M10.5359 17.9219c0 .2394 0 .3991-.0798.5587-.0799.1597-.1597.3193-.2395.3992-.0798.1596-.23947.2394-.3193.3193-.07982.0798-.3193.1596-.47895.2394-.15965.0799-.3193.0799-.55877.1597-.15965 0-.39913.0798-.6386.0798H6.70431c-.07983 0-.15965 0-.23948-.0798-.07982-.0798-.07982-.1597-.07982-.3193v-4.9491c0-.1597 0-.2395.07982-.3193.07983-.0799.15965-.0799.23948-.0799h1.43685c.31929 0 .63859 0 .87807.0799.23947.0798.47895.1596.6386.2394.15965.1597.3193.2395.39917.479.0798.2395.1596.3991.1596.6386 0 .1596 0 .2394-.0798.3991 0 .1596-.0798.2395-.15967.3193l-.23948.2395c-.07982.0798-.23947.1596-.3193.1596.15965 0 .3193.0798.47895.1597.1597.0798.2395.1596.3193.3193.0798.0798.1596.2394.2395.3991.0798.2395.0798.3991.0798.5588Zm-1.51667-2.3948c0-.0798 0-.2395-.07983-.3193 0-.0798-.07982-.1596-.15965-.2394-.07982-.0799-.15965-.0799-.23947-.1597-.07983 0-.23948-.0798-.39912-.0798h-.6386v1.5166h.6386c.15964 0 .31929 0 .39912-.0798.07982-.0798.23947 0 .3193-.0798.07982-.0798.07982-.1597.15965-.2395v-.3193Zm.3193 2.4746c0-.1597 0-.2395-.07983-.3193-.07982-.0798-.07982-.1597-.15965-.2395-.07982-.0798-.15965-.1596-.3193-.1596s-.3193-.0799-.47894-.0799h-.79825v1.5965h.87807c.15965 0 .3193 0 .39912-.0798.07983 0 .23948-.0798.3193-.1596.07983-.0799.15965-.1597.15965-.2395.07983-.0798.07983-.2395.07983-.3193Zm4.78947 1.1974v.3991s0 .0798-.0798.0798h-2.9535c-.0799 0-.1597 0-.2395-.0798-.0798-.0798-.0798-.1597-.0798-.3193v-4.9491c0-.1597 0-.2395.0798-.3193.0798-.0799.1596-.0799.2395-.0799h2.9535s0 .0799.0798.0799v.7982s0 .0798-.0798.0798h-2.1553v1.4369h1.836l.0798.0798v.7982s0 .0799-.0798.0799h-1.836v1.5965h2.1553l.0798.0798v.2395Zm3.9114-1.2772c0 .3193-.0798.5587-.1596.7982-.0798.2395-.2395.3991-.479.5588-.1596.1596-.3991.2395-.6386.3193-.2394.0798-.5587.0798-.7982.0798-.1597 0-.3991 0-.5588-.0798-.1596 0-.3193-.0798-.4789-.0798-.1597-.0799-.2395-.0799-.3193-.1597-.0799-.0798-.1597-.0798-.1597-.1596 0 0-.0798-.0799-.0798-.1597V18.321s0-.0798.0798-.0798h.0798c.0799 0 .0799 0 .1597.0798.0798.0798.1596.0798.3193.1596.0798.0799.2395.0799.3991.1597.1597.0798.3193.0798.5588.0798.1596 0 .2395 0 .3991-.0798.0798 0 .2395-.0798.3193-.1597.0798-.0798.1597-.1596.1597-.2394.0798-.0799.0798-.1597.0798-.3193 0-.1597 0-.2395-.0798-.3193l-.2395-.2395c-.0798-.0798-.2395-.1597-.3991-.2395l-.479-.2395-.4789-.2394c-.1597-.0799-.2395-.1597-.3992-.3193-.0798-.1597-.2394-.2395-.2394-.479-.0799-.1596-.0799-.3991-.0799-.6386 0-.2395.0799-.4789.1597-.7184.0798-.2395.2395-.3991.3991-.4789.1597-.1597.3991-.2395.6386-.3193.2395-.0799.479-.0799.7184-.0799h.3992c.1596 0 .2394.0799.3991.0799.0798 0 .2395.0798.3193.1596.0798.0798.1596.0798.1596.0798l.0799.0799v.7982s0 .0798-.0799.0798h-.0798s-.0798 0-.1596-.0798c-.0799-.0798-.1597-.0798-.2395-.1596-.0798-.0799-.2395-.0799-.3193-.1597-.1597-.0798-.3193-.0798-.479-.0798-.1596 0-.2394 0-.3193.0798-.0798 0-.1596.0798-.2394.1597-.0799.0798-.0799.1596-.1597.1596 0 .0798-.0798.1596-.0798.2395 0 .1596 0 .2394.0798.3193l.2395.2394c.0798.0799.2395.1597.3991.2395l.479.2395.4789.2395c.1597.0798.2395.1596.3991.3193.0799.1596.2395.2394.2395.4789 0 .3991.0798.6386.0798.7983Zm4.2307-3.5123v.3991s0 .0798-.0798.0798h-1.5167v4.7097l-.0798.0798h-.9579c-.0798 0-.0798 0-.0798-.0798v-4.7097H18.0394s0-.0798-.0798-.0798v-.7982s0-.0799.0798-.0799h4.2307l.0799.0799v.1596c-.0799.0798-.0799.1597-.0799.2395ZM9.97713 25.8245v.3991s0 .0799-.07983.0799H6.70431c-.07983 0-.15965 0-.23948-.0799-.07982-.0798-.07982-.1596-.07982-.3193v-5.3482c0-.1597 0-.2395.07982-.3193.07983-.0798.15965-.0798.23948-.0798h3.11317l.07982.0798v.7982s0 .0799-.07982.0799h-2.2351v1.5166h1.9158l.07982.0799v.7982s0 .0798-.07982.0798h-1.9158v1.7562H9.8973l.07983.0798v.3991Zm3.59207-5.1088v.3992s0 .0798-.0798.0798h-2.1553v1.6763h1.9158l.0799.0798v.7983c0 .0798 0 .0798-.0799.0798h-1.9158v2.3947l-.0798.0799c-.0798 0-.0798 0-.1596.0798-.0799.0798-.1597 0-.3193 0h-.3193c-.0799 0-.1597 0-.1597-.0798-.0798 0-.0798 0-.0798-.0799v-5.5877c0-.1596 0-.2395.0798-.3193.0798-.0798.1597-.0798.2395-.0798h2.9535l.0798.0798v.3991Zm3.5123 0v.3992s0 .0798-.0798.0798h-2.0754v1.6763h1.9158l.0798.0798v.7983c0 .0798 0 .0798-.0798.0798h-1.9158v2.3947l-.0799.0799c-.0798 0-.0798 0-.1596.0798h-.6386c-.0798 0-.1597 0-.1597-.0798 0-.0799-.0798 0-.0798-.0799v-5.5877c0-.1596 0-.2395.0798-.3193.0799-.0798.1597-.0798.2395-.0798h2.9535l.0799.0798v.1597c-.0799 0-.0799.0798-.0799.2394Zm5.8272 2.4746c0 .479-.0798.9579-.1596 1.357-.1597.3992-.3193.7184-.5588 1.0377-.2395.2395-.5588.479-.9579.6386-.3991.1597-.7982.2395-1.2772.2395-.4789 0-.878-.0798-1.2772-.1596-.3193-.1597-.6386-.3193-.878-.5588-.2395-.2395-.3992-.5588-.5588-.9579-.0798-.3991-.1597-.8781-.1597-1.4368 0-.479.0799-.9579.1597-1.3571.1596-.3991.3193-.7184.5588-1.0377.2394-.2395.5587-.4789.9579-.6386.3991-.1596.7982-.2395 1.2772-.2395.4789 0 .878.0799 1.1973.1597.3193.1596.6386.3193.8781.5588.2395.2394.3991.5587.5588.9579.2394.3991.2394.878.2394 1.4368Zm-1.2772 0c0-.3193 0-.6386-.0798-.8781-.0798-.2394-.1596-.4789-.2395-.6386-.1596-.1596-.3193-.3193-.4789-.3991-.2395-.0798-.4789-.1596-.7184-.1596-.3193 0-.5588.0798-.7983.1596-.2394.0798-.3991.2395-.4789.479-.1597.1596-.2395.3991-.2395.6386-.0798.2394-.0798.5587-.0798.7982 0 .3193 0 .6386.0798.8781l.2395.7184c.1596.1597.3193.3193.4789.3991.2395.0798.479.1597.7983.1597.3193 0 .5587-.0799.7982-.1597.2395-.0798.3991-.2394.479-.4789.1596-.1597.2394-.3991.2394-.7184v-.7983Zm5.9869 2.9535v.0798l-.0798.0799H26.421c-.0798 0-.0798-.0799-.0798-.0799s0-.0798-.0798-.0798l-.5588-1.357c-.0798-.1596-.1596-.3193-.1596-.3991-.0799-.1597-.1597-.2395-.2395-.3193-.0798-.0798-.1597-.1597-.2395-.1597-.0798-.0798-.2395-.0798-.3193-.0798h-.3991v2.3947l-.0798.0799h-.9579c-.0799 0-.0799 0-.0799-.0799v-5.6675c0-.1597 0-.2395.0799-.3193.0798-.0798.1596-.0798.2394-.0798h2.315c.2394 0 .4789.0798.6386.1596.1596.0798.3991.1597.4789.3193.1597.1597.2395.3193.3193.479.0798.1596.0798.3991.0798.6386 0 .2394 0 .3991-.0798.5587l-.2395.479c-.0798.1596-.2394.2395-.3991.3193l-.4789.2395c.0798.0798.1596.0798.2394.1596l.2395.2395c.0798.0798.1597.1596.2395.3193.0798.0798.1596.2395.1596.3991l.479 1.1974c.0798.1596.0798.2394.0798.2394v.2395Zm-1.5965-4.1509c0-.2394-.0798-.3991-.1596-.4789-.0799-.1597-.2395-.2395-.479-.3193h-1.1175v1.7561h.6386c.1596 0 .3193 0 .4789-.0798.1597-.0798.2395-.0798.3193-.1596.0798-.0799.1597-.1597.1597-.2395.1596-.2395.1596-.3193.1596-.479Zm5.9869-1.2772v.3992c0 .0798 0 .0798-.0799.0798h-1.5964v5.0289l-.0799.0799h-.9579c-.0798 0-.0798 0-.0798-.0799v-5.0289h-1.5965l-.0798-.0798v-.7983c0-.0798 0-.0798.0798-.0798h4.4702l.0798.0798v.1597c-.1596 0-.1596.0798-.1596.2394ZM36 24.4675c0 .3193-.0798.6386-.1596.8781-.1597.2394-.3193.4789-.479.6386-.2395.1596-.4789.3193-.7184.3991-.2395.0798-.5588.1596-.8781.1596-.2395 0-.3991 0-.5588-.0798-.1596 0-.3193-.0798-.4789-.1596-.1597-.0799-.2395-.0799-.3193-.1597-.0798-.0798-.1597-.0798-.2395-.1596 0-.0799-.0798-.0799-.0798-.1597V25.1061c0-.0798 0-.0798.0798-.0798h.0798c.0799 0 .0799 0 .1597.0798.0798.0798.1596.0798.3193.1596.1596.0799.2395.1597.4789.1597.1597.0798.3992.0798.6386.0798.1597 0 .3193 0 .3992-.0798.1596 0 .2394-.0798.3193-.1597.0798-.0798.1596-.1596.1596-.2394.0798-.0798.0798-.2395.0798-.3193 0-.1597 0-.2395-.0798-.3193-.0798-.0798-.1596-.1597-.3193-.2395-.1596-.0798-.2395-.1596-.3991-.2395l-.479-.2394-.4789-.2395c-.1597-.0798-.3193-.2395-.3991-.3193-.1597-.1597-.2395-.3193-.3193-.479-.0799-.1596-.0799-.3991-.0799-.6386 0-.3193.0799-.5587.1597-.7982.0798-.2395.2395-.3991.3991-.5588.1597-.1596.3991-.2395.6386-.3193.2395-.0798.479-.0798.7983-.0798h.3991c.1596 0 .3193.0798.3991.0798.1597 0 .2395.0798.3193.1597.0798.0798.1597.0798.1597.0798l.0798.0798v.8781c0 .0798 0 .0798-.0798.0798h-.0799s-.0798 0-.1596-.0798-.1597-.0798-.2395-.1597c-.0798-.0798-.2395-.0798-.3991-.1596-.1597-.0798-.3193-.0798-.479-.0798-.1596 0-.2394 0-.3193.0798-.0798 0-.1596.0798-.2394.1596-.0799.0799-.0799.1597-.1597.2395 0 .0798-.0798.1597-.0798.2395 0 .1596 0 .2395.0798.3193.0798.0798.1597.1596.3193.2395.1597.0798.2395.1596.3991.2394l.479.2395.4789.2395c.1597.0798.3193.2395.3992.3193.1596.1596.2394.3193.3193.4789.1596.0799.1596.3193.1596.5588Z"/>
	<path fill="#F58220" d="M24.3457 12.4137c-.8781.2394-1.836-.2395-2.1553-1.1974-.2395-.8781.2395-1.83597 1.1974-2.15527.8781-.23948 1.836.23947 2.1553 1.19737.2394.9579-.2395 1.9158-1.1974 2.1553Z"/>
</svg>