<svg xmlns="http://www.w3.org/2000/svg" viewBox="0 0 40 40">
	<path class="bg-logo" fill="#A61731" d="M0 0h40v40H0z"/>
	<path fill="#fff" d="M32 8H8v15.42h24V8Zm0 16.44H8V32h24v-7.56Zm-7.08-4.74-2.34-4.08v5.46h-2.22V10.7h2.22l2.7 5.34 2.7-5.34h2.22v10.38h-2.22v-5.46l-2.34 4.08c-.18.24-.54.24-.72 0Zm-6.18-3.12v2.7c0 .96-1.14 1.86-2.16 1.8H9.8V10.7h8.28v1.86h-6v2.16h4.5c1.02 0 2.16.84 2.16 1.86Zm-3.3 2.7c.54 0 .96-.48.96-.96V17.3c0-.54-.48-.96-.96-.96h-3.36v2.94h3.36Zm-4.8 8.76h2.28c.36 0 .72.3.66.6v.9c0 .36-.36.66-.72.66H9.8v-3.54h3.6v.66h-2.76v.72Zm1.92 1.56c.18 0 .3-.12.3-.3v-.42c0-.18-.12-.3-.3-.3h-1.92v1.02h1.92Zm4.02-2.88h.84l1.98 3.48h-.9l-.48-.84h-2.1l-.48.84h-.78l1.92-3.48Zm.42.72-.78 1.38h1.56L17 27.44Zm4.44.78h2.64v-1.5h.72v3.48h-.72v-1.5h-2.64v1.5h-.78v-3.48h.78v1.5Zm7.5-1.5h1.32l-2.1 1.68 2.34 1.8h-1.32l-1.98-1.56v1.56h-.78v-3.48h.78v1.38l1.74-1.38Z"/>
</svg>