<svg xmlns="http://www.w3.org/2000/svg" viewBox="0 0 40 40">
	<path class="bg-logo" fill="#03A776" d="M0 0h40v40H0z"/>
	<path fill="#fff" d="M29.52 11.9242c-2.125 1.275-2.72 1.36-5.015 2.72 1.36-1.445 1.785-2.04 2.635-3.23-2.125.085-5.185.34-7.31.85 1.87-1.02 5.695-2.125 7.65-2.37998-.425-.595-4.165-2.635-5.1-3.06 2.975.255 6.545 1.36 8.33 2.38.595-.255 1.275-.255 2.55-.34-.34.595-.34.85-1.615 1.69998.34.935-.51 6.035-1.19 7.395.085-2.125-.17-4.845-.935-6.035Zm-15.385 18.36c-1.19-.425-2.04-.935-3.06-1.87.255-.765.595-1.445 1.105-2.21-1.02.17-1.7.255-2.55004.425-.68-1.19-1.02-2.38-1.36-3.995-.17 1.7-.255 2.975 0 4.335-.68.255-1.275.425-1.87.68.935.51 1.615.935 2.635 1.445.51 1.19 1.02004 1.955 1.95504 2.805-.17-.765-.255-1.36-.17-2.125 1.105.34 2.04.51 3.315.51Zm3.145-17c-.34.51-.85 1.36-.935 1.785 3.145.425 5.61 2.04 5.61 2.04-2.72-.51-4.165-.425-5.185-.34-1.02.085-1.19.255-1.19.255-.765 1.615-1.19 4.335-1.19 4.335-.51-1.19-1.19-3.57-1.19-3.57-1.36.765-4.50504 3.74-4.50504 3.74 1.70004-3.485 3.48504-5.015 3.48504-5.015-.595-.595-2.21004-.935-3.31504-.935.595-.255 2.12504-.51 3.31504-.595h1.87c1.105-.935 2.72-1.615 3.23-1.7Zm3.315 14.875c-.51.765-1.02 1.36-1.615 2.04-1.02.255-1.87.425-2.89.425.595.34 1.19.51 1.87.68-.68.595-1.19 1.02-1.87 1.445 1.105-.255 2.465-.68 3.485-1.36.51 0 1.02 0 1.445-.085-.085-.34-.17-.51-.255-.935 1.02-.765 1.7-1.445 2.465-2.295-.85.595-1.615 1.02-2.635 1.53v-1.445Z"/>
</svg>