<svg xmlns="http://www.w3.org/2000/svg" viewBox="0 0 40 40">
	<path class="bg-logo" fill="#3AAA35" d="M0 0h40v40H0z"/>
	<path fill="#fff" d="M20.8541 7v6.2644L26.0583 7h-5.2042Zm8.8665.86758L20.8541 18.5652v2.0239c.9059-2.1138 2.1914-3.6623 4.7223-3.6623 2.384 0 3.6457 2.2468 4.1442 4.2405V7.86758ZM25.3838 17.9866c-4.626.1928-4.626 8.5774 0 8.6738 4.626-.1928 4.626-8.5774 0-8.6738Zm0 7.2282c-2.7949 0-2.7949-5.8789 0-5.8789s2.7949 5.8789 0 5.8789Zm-4.5297-1.8312v5.2043h8.8665v-5.2043c-.359 2.1538-1.9844 4.1441-4.3369 4.1441-2.7323 0-3.5965-2.0238-4.5296-4.1441Zm-2.9876-6.3609L9 27.7204V14.4206c.15074.6029.30008 1.1784.57825 1.7348.70965 1.2418 2.01915 2.5057 3.56585 2.5057 1.5034 0 2.767-.5411 3.6623-1.7347.3855-.5783.771-1.2529 1.0601-1.9275v2.0238Zm-4.4332.5783c4.626-.1928 4.626-8.57739 0-8.67376-4.62603.19275-4.62603 8.57736 0 8.67376Zm0-7.3245c2.7948 0 2.7948 5.8789 0 5.8789-2.7949 0-2.7949-5.8789 0-5.8789Zm4.2405 1.4459c-.1928-.6746-.5783-1.3493-.9638-1.92752-.8001-1.06674-2.0205-1.73475-3.3731-1.73475-1.6081 0-3.0457.9834-3.75865 2.40937-.28912.4819-.48187 1.1565-.57825 1.7348V7h8.7701v5.2043c0-.1784-.0963-.2782-.0963-.4819Zm.1927 10.601-5.2042 6.2643h7.3245V27.046h-2.1203v-4.7226ZM9.48181 28.588 27.2148 7h2.0239L11.4093 28.588H9.48181Zm21.20259-.0963V27.046c2.0239 0 3.7586 1.8312 3.6622 3.855 0 1.4457-.8673 2.8913-2.1202 3.5659-1.6384.6746-3.4695.6746-5.2043.1928l-9.1556-2.2167c-5.0115-1.2528-7.3245-.3855-7.3245.771H9c0-3.1803 4.5296-4.5296 9.5411-3.3731l9.0593 2.2166c.9637.2892 1.9275.4819 2.8912.4819 1.0602-.0964 1.9275-.9637 1.9275-2.0239.0964-1.0601-.771-2.0238-1.7347-2.0238Z"/>
</svg>