<svg xmlns="http://www.w3.org/2000/svg" viewBox="0 0 40 40">
	<path class="bg-logo" fill="#3A913F" d="M-.00024414 0h40v40h-40z"/>
	<path fill="#fff" d="M21.4945 6c.6202.12281 1.2465.21491 1.8544.37456 1.8298.48509 3.414 1.40921 4.7342 2.7693.7583.77982.7491 1.99564.0184 2.80614-.6724.7461-1.8943.8596-2.714.2425-.264-.1995-.4851-.4513-.7461-.6539-1.9526-1.5105-4.1171-1.87588-6.4044-.9825-2.2903.8935-3.675 2.6281-4.0342 5.0658-.5373 3.6351 1.8728 6.8557 5.511 7.3684 2.0632.2917 3.8807-.3346 5.3913-1.7837 1.0806-1.0347 2.7508-.7676 3.3587.5465.3562.7706.2087 1.6732-.4022 2.2781-2.3487 2.3149-5.1763 3.3587-8.4583 3.0486-4.5562-.4298-8.179-3.5706-9.2597-7.9732-.1412-.5803-.1873-1.1851-.2794-1.7777-.0153-.0921-.043-.1841-.06444-.2763v-.9578c.04604-.3225.09514-.6479.13814-.9702.5404-4.1785 3.6596-7.7246 7.7246-8.75618.614-.15658 1.2403-.24561 1.8635-.36842h1.7685Zm-8.621 28c-.0553-.0246-.1075-.0553-.1659-.0706-.9824-.2794-1.5258-1.0899-1.3938-2.0816.1197-.918.8873-1.5842 1.8666-1.5934 1.2527-.0093 2.5053-.0031 3.7549-.0031 3.3741 0 6.7513-.0031 10.1254 0 .8075 0 1.4338.3408 1.7746 1.0838.3316.7215.2487 1.443-.304 2.014-.2793.2917-.7092.439-1.0714.6509H12.8735Z"/>
</svg>