<svg xmlns="http://www.w3.org/2000/svg" viewBox="0 0 40 40">
	<path class="bg-logo" fill="#F27007" d="M0 0h40v40H0z"/>
	<path fill="#fff" d="M22.8306 9.80301c-1.606.32119-2.8908 1.92719-2.5696 3.85449-4.4166-1.5258-9.9574-1.2849-13.81182-.5621-.88331.1606-1.68632.4015-2.32873.5621-.1606.0803-.1606.2409 0 .3212 5.94225 1.3651 8.27105 4.4165 12.84815 5.2195-3.2923 4.5772-3.1317 10.3589-2.7302 11.724.0803.3212 1.606 2.409 2.4893 3.2121.0803.0803.2409.0803.3212.0803.1606 0 .3212-.1606.3212-.3213-.0803-5.2998.5621-8.8331 2.2485-9.3952 1.0439-.4015 1.606-.5621 1.8469-.6424 4.4969-1.4454 4.0954-6.9059 4.0954-8.8331-.0803-3.2121 1.5257-4.0954 2.8105-4.3363l6.5044-1.28479c.5621-.08031.8833-.08031 1.0439-.08031H36C36 9.1606 35.7591 9 35.3576 9h-.0803c-.1606 0-.2409 0-.4015.0803l-6.7453 1.2848c-.8833.1606-1.606.2409-1.8469.1606-.4015-.2409-2.0076-1.04389-3.453-.72269Z"/>
</svg>