<svg xmlns="http://www.w3.org/2000/svg" viewBox="0 0 40 40">
	<path class="bg-logo" fill="#C8AF64" d="M0 0h40v40H0z"/>
	<path fill="#fff" d="m23.3452 5.45887.0158 3.98733v10.2689c.0157.9969.8834 1.8355 1.8613 1.8355.9938 0 1.8456-.8544 1.8456-1.8671v-8.1803c2.4291 2.0411 3.975 5.0949 3.975 8.5285 0 6.155-5.0003 11.1708-11.1364 11.1708-6.0888-.0159-11.08919-5.0158-11.08919-11.1708 0-3.3703 1.49849-6.3925 3.86469-8.4336v8.0854c0 1.0127.8202 1.8671 1.8455 1.8671 1.0096 0 1.8771-.8544 1.8771-1.8671V5.49051C9.8584 7.0886 5 12.9905 5 20.0317 5 28.307 11.704 35 19.9538 35c8.2025 0 14.9222-6.693 14.9222-14.9683 0-7.0887-4.9373-13.03803-11.5308-14.57283ZM19.9065 21.5506c-1.0254 0-1.8614-.8386-1.8614-1.8513V6.86709C18.0451 5.83861 18.8811 5 19.9065 5h1.8613v14.6993c0 1.0127-.8519 1.8513-1.8613 1.8513Zm0-14.11389c-.3313 0-.5995-.28481-.5995-.61709 0-.3481.2682-.61709.5995-.61709.347 0 .6152.26899.6152.61709 0 .33228-.2682.61709-.6152.61709Z"/>
</svg>