<svg xmlns="http://www.w3.org/2000/svg" viewBox="0 0 40 40">
	<path class="bg-logo" fill="#020168" d="M0 0h40v40H0z"/>
	<path fill="#fff" d="m25.6 12.2188-2.24 1.19v2.24H21.4v2.1h1.96v6.3c0 1.68.98 2.87 2.52 2.94.7 0 1.4-.14 2.03-.49l.56-2.17-.07.07c-.49.35-1.12.56-1.68.56-.77 0-1.12-.35-1.12-1.26v-5.95h2.31v-2.1H25.6v-3.43Zm-13.79 3.29c-1.47 0-2.94.49-4.06 1.47-.56.56-1.05 1.19-1.33 1.96s-.42 1.54-.42 2.31.14 1.61.42 2.31c.28.77.77 1.4 1.33 1.96 1.12.98 2.59 1.54 4.06 1.47.77 0 1.54-.14 2.17-.49.63-.35 1.26-.77 1.75-1.4l.07-.07-1.33-1.61-.07.07c-.35.35-.77.7-1.26.91-.49.21-.98.35-1.47.35s-.91-.07-1.4-.28c-.42-.21-.84-.42-1.19-.77-.35-.35-.56-.77-.77-1.19-.14-.42-.21-.91-.21-1.4 0-.49.07-.91.21-1.4.14-.42.42-.84.77-1.19.35-.35.7-.63 1.19-.77.42-.21.91-.28 1.4-.21.49 0 1.05.14 1.47.35.49.21.91.49 1.26.91l.07.07 1.33-1.54v.07c-.49-.63-1.05-1.12-1.75-1.4-.7-.35-1.47-.49-2.24-.49Zm5.32.14h2.24v11.13h-2.24v-11.13Zm13.09 0h2.31v11.13h-2.24c0 .07-.07-11.13-.07-11.13Z"/>
	<path fill="#FF0100" d="M33.8599 13.69c-1.05-1.47-2.38-2.66-3.99-3.5-1.61-.84-3.29-1.19-5.04-1.19s-3.57.42-5.1101 1.26c-1.61.84-2.94 2.03-3.99 3.5l-.14.14h2.66c.84-.91 1.82-1.61 3.0101-2.1 1.19-.49 2.31-.77 3.57-.77 1.26 0 2.45.28 3.57.77 1.12.49 2.17 1.19 3.01 2.1h2.59l-.14-.21Z"/>
</svg>