<svg xmlns="http://www.w3.org/2000/svg" viewBox="0 0 40 40">
	<path class="bg-logo" fill="#00414C" d="M0 0h40v40H0z"/>
	<path fill="#fff" d="M19.736 10.1187c-.5031.6078-.9512 1.2591-1.3391 1.9462l-3.1661 5.4872-3.1722 5.4873c-.1309.2321-.2976.5237-.4702.8808l-1.4224-.2618c-.94623-.1553-1.84419-.5259-2.62456-1.0832-.50753-.369-.93308-.8391-1.24982-1.3808L6 20.6767l.22021-.3809L13.3025 8h8.5285c-.2957.22513-.576.46969-.8392.73203-.363.35709-1.0653 1.16649-1.2558 1.38667Zm7.6179 21.1576-.3035.5237H12.4217l-4.25536-7.3798c.34101.1486.69324.27 1.05341.363.48803.1309 1.54145.3452 1.82715.3928.7861.1355 1.5829.1992 2.3806.1904h13.6408c.1845.5297.4523 1.2737.4761 1.351.3435.8962.4739 1.8599.3809 2.8151-.0732.6133-.2674 1.2061-.5714 1.7438Zm6.1182-10.6175-4.2613 7.3918c-.0454-.3697-.117-.7356-.2143-1.0951-.1309-.488-.4761-1.5057-.5951-1.7855-.2622-.7374-.5888-1.4504-.976-2.1306l-3.1662-5.4873-3.1722-5.4872c-.125-.2262-.3035-.5238-.5178-.8451l.9047-1.0951c.6095-.74466 1.3837-1.33753 2.2615-1.7319.5742-.25297 1.1938-.38661 1.8212-.3928h.5951l7.3204 12.6588Z"/>
</svg>