<svg xmlns="http://www.w3.org/2000/svg" viewBox="0 0 40 40">
	<path class="bg-logo" fill="#0057B6" d="M0 0h40v40H0z"/>
	<path fill="#fff" d="M6 19.988C6 27.7077 12.2916 34 19.988 34 27.7077 34 34 27.7077 34 19.988 34 12.2676 27.7077 6 19.988 6 12.2916 6 6 12.2676 6 19.988Zm4.3557-3.8238c3.5822-2.3477 7.5509-3.7271 14.2543-2.5653.363-.2175.5565-.4111.6533-.8468-1.6697-.6053-3.4848-.8228-5.8325-.7748-2.1048.0487-5.9046.8469-7.9373 2.0327l.6293-.7741c1.4034-.8228 5.1058-1.9359 7.8652-1.9846 1.96-.0481 2.9763.0727 5.2993.702-.1935-.4111-.6773-.6053-1.3787-.9196-2.2509-1.0164-6.4618-1.08909-9.8986.4111.4358-.2903.8716-.5566 1.4281-.7982 1.1372-.5085 2.9763-1.01631 5.3-.99228 1.8632.04806 4.0654.67738 5.4207 2.03268.2182.2663.339.5326.4111.7501 1.0651.5566 1.6703 1.0651 2.0334 1.6457.1448.3149.1935.6533.1208 1.0163.4598.2663.6773.4845.8955.7988.1449.2422.2663.5085.2903.7748.0481.3383.0968.7013-.2662 1.1371.363.1935.6533.6774.702.9196.1695.7988-.339 1.5729-1.041 2.2022-.7742.678-2.5166 1.5002-3.92 1.8632-2.8075.702-5.2759.9923-7.2606 1.3554.8956.2182 2.0814.5085 4.0654.5085 4.1629 0 7.8659-1.9847 7.8659-1.9847s-.0727.2663-.1695.4838c-2.638 1.5976-6.8735 2.299-8.688 2.2022-1.8152-.0727-3.3641-.363-4.8642-.8228-.4845.1215-.9196.2663-1.3794.4598 2.299 1.041 4.0414 1.2826 6.0013 1.4281 2.0087.1448 5.324-.339 8.1315-1.3554-.1455.1455-.1935.339-.339.4605-1.4274.7494-4.4525 1.4995-5.9773 1.5729-1.5242.0481-3.364 0-4.9616-.315-1.4028-.2662-2.5166-.702-3.7024-1.2099-.2176.1455-.3143.3631-.363.5806 4.5979 2.4198 8.9302 2.4685 13.8431.9443l-.4598.4351c-5.3973 2.1782-9.6323 1.3313-12.8989-.2422-.0967-.0481-.2422-.0961-.339-.1689.3144.5319 2.8075 2.3477 5.5903 2.5893 1.9359.1695 4.2836-.1695 5.687-.7261l-.8228.4111c-.6774.3397-2.4685 1.0891-4.961.9196-3.34-.2176-5.2272-1.6937-6.05-2.4685-.3871-.3623-.5813-.7741-.7021-1.2826-.75-.3864-1.2339-.7981-1.6216-1.4274-.2175-.339-.1688-.7501-.1208-1.0891.0241-.0968.0487-.2176.0968-.3143-.363-.2423-.7501-.5326-.8956-.8229-.33831-.5812-.12076-1.089.0975-1.5008-.19423-.2175-.38776-.4351-.46049-.6773-.09677-.2663-.09677-.5326-.07209-.8228.04806-.4839.31432-.9437.67738-1.3554.726-.8228 1.8632-1.4761 3.8238-2.1295 1.9119-.6293 2.686-.726 4.1381-1.065 1.6944-.3871 3.7271-.5326 5.3968-1.1131-4.6947-.8229-9.6076-.0728-13.601 2.686l.2663-.7741Zm16.0694-2.9043c-.0481.2182-.315.4839-.4845.678.5326.1208 1.0411.3144 1.5249.5079-.0481-.4598-.5806-.8956-1.0404-1.1859ZM11.9046 22.674c-.3143-.1695-.5079-.2903-.7741-.4598-.1455.2903.1208.6293.387.7748.1208-.0968.2663-.1942.3871-.315Zm15.8999-6.1708c.339.1695.6293.2903.9436.5078.1935-.4111.0727-.6773-.363-1.0404-.1695.1936-.3871.3631-.5806.5326Zm-1.0164.6293c-.678.3143-1.6696.6533-3.0977.9916-1.1619.291-3.9693.7021-7.0184 1.3554-.9676.2182-3.5569.8475-4.8402 1.9119.3631.2903.5813.363.9683.5806.5326-.3384 1.258-.6533 2.323-.9436 1.8639-.4839 3.2433-.7014 4.9376-.9683 1.669-.2656 4.7908-.919 6.5092-1.5483.5813-.1935 1.0891-.4598 1.5008-.7507-.1214-.1448-1.2345-.6773-1.2826-.6286Zm-13.1164 7.2599c.2416-.1695.5565-.3143.9196-.4598-.4845-.1935-.9924-.4117-1.5009-.654-.2175.1455-.4351.291-.5806.4605.3871.2175.7501.4351 1.1619.6533Zm-1.5976.1448c-.024.315.1695.6053.5812.9436.0481-.1688.1208-.2896.2656-.4591-.2903-.1455-.5806-.315-.8468-.4845Zm2.3477-5.7591c3.412-.9923 6.9936-1.3073 10.6239-2.2749-1.4281-.3877-2.2022-.5326-3.7024-.3631-2.1781.2416-4.5745.7261-6.6072 1.3307-.7982.2422-5.03372 1.4521-3.8238 3.1218 0 .0247.726-.9917 3.5095-1.8145Zm12.8021-3.4855c-.5572-.2416-1.2586-.5078-1.9847-.7013-.339.2662-.726.5078-1.2826.7013.9436.1695 1.6216.4358 2.3958.654.1454.0721.7747-.5325.8715-.654Zm1.6697 3.2913c-.0968.0728-.2176.1695-.339.2663-.7741.5812-1.9847 1.0651-3.6784 1.5248-3.5095.9437-6.0741 1.0891-8.9783 1.7912-.5566.1208-1.1378.3143-1.6943.5565.5565.2663 1.1377.5079 1.7183.7501 1.1859-.339 1.7424-.4838 3.4608-.7748.6533-.1208 2.662-.4598 4.0895-.7741 2.6139-.5565 6.4377-1.7664 5.4214-3.34ZM6.48382 19.988c0-7.4541 6.07408-13.50418 13.50418-13.50418 7.4535 0 13.5275 6.05008 13.5275 13.50418 0 7.4534-6.074 13.5275-13.5275 13.5275-7.4301 0-13.50418-6.0741-13.50418-13.5275Z"/>
</svg>