<svg xmlns="http://www.w3.org/2000/svg" viewBox="0 0 40 40">
	<path class="bg-logo" fill="#183964" d="M0 0h40v40H0z"/>
	<path fill="#fff" d="M16.8359 10.0318c2.6759 1.757 11.163 7.6494 17.1365 15.6501.0455.0757.0315.1599-.0182.2097-.0013.0012-.0024.0026-.0037.0037-.0149.0139-.0328.0249-.053.0319-.0326.0113-.0716.0122-.1143-.0021-.9729-.2704-3.3515-.865-5.9464-1.2974-.0269 0-.0541 0-.0811-.0272-2.4866-2.1351-5.0004-4.0812-7.46-5.8112-.0272-.027-.0541-.0539-.0541-.1082-.5137-2.5947-1.5679-5.7032-3.6219-8.4061-.1082-.1622.0539-.35136.2162-.2432Zm4.1346 14.3255c1.865-.3244 4.4058-.1082 6.7574.2702.015 0 .028.0021.0388.0058.0059.0018.0112.0041.0158.0069l.0054.0035c.0141.0101.0211.024.0211.0378 1.6489 1.4598 3.2705 3.0003 4.8112 4.649.0646.0646.052.1678-.0032.2289-.0371.0413-.0936.0632-.1589.0415-2.0815-.5675-9.5415-2.3515-16.9744-.9189-.0555 0-.111-.0254-.1492-.0674-.0176-.0194-.0316-.0422-.0401-.0678-.2972-1.3786-2.6217-11.7308-9.24411-17.8124-.13509-.1352.02722-.3514.1893-.2702 2.27042 1.0812 7.81141 3.9463 13.94721 8.2439.0539.027.0811.054.0811.108.5134 2.6219.5134 4.7303.5134 5.379 0 .108.0813.1892.1892.1622Z"/>
</svg>