<svg xmlns="http://www.w3.org/2000/svg" viewBox="0 0 40 40">
	<path class="bg-logo" fill="#006F4E" d="M0 0h40v40H0z"/>
	<g fill="#fff">
		<path d="m22.6581 14.7836 1.7721 4.4304 1.1519 2.6582.7975 2.038.3544 1.4177c.2658.6202.7975.6202 1.4177.6202h3.1899l-2.5696-5.5822-1.2405-2.8355-2.8355-5.9366h-3.9873l-5.0506 9.7467-.3544.6203c1.7721-.1772 4.2531-.6203 5.0506-2.2152l2.3038-4.962ZM6 27.4544h26.0505v2.3038H6v-2.3038Z"/>
		<path d="M25.5822 21.9629c-2.6582 1.4178-5.405 2.7469-8.5949 3.4557-2.924.7089-6.1139.7975-8.32908-.5316C6.62025 23.7351 6 21.4313 6 19.7478c0-1.0633.53164-2.6583 1.59493-3.8988 1.94936-2.3923 5.67087-4.4303 8.59487-4.5189 1.0633 0 1.6836.3544 2.1266 2.924-1.0633 0-2.038.1772-3.1899.5317-.7088.2658-2.1265.886-3.7215 1.9493-2.03793 1.4177-3.27843 2.9241-3.36703 4.3418-.08861 1.2405 1.06328 1.9493 2.92403 2.1265 4.4304.3545 9.5696-1.7721 13.4683-3.8987l3.1012-1.7721 6.4684-3.4557v3.2785l-5.1392 3.0126-3.2785 1.5949Z"/>
		<path d="m32.9367 10.5316-3.7215 1.9494s-1.2405.7089-2.1266.8861l.6203 1.3291c.1772.5316.7974.7088 1.3291.5316L34 12.481V10l-1.0633.5316Z"/>
	</g>
</svg>