<svg xmlns="http://www.w3.org/2000/svg" viewBox="0 0 40 40">
	<path class="bg-logo" fill="#1D478C" d="M0 0h40v40H0z"/>
	<path fill="#fff" d="M10.8083 28.81c1.488 0 2.6406-1.1003 2.6406-2.672 0-1.4671-1.0373-2.473-2.2319-2.473-.8802 0-1.44601.4401-1.74991.964l-.02094-.0105c.06286-1.1631.31434-1.708 1.49845-1.9176l2.1271-.3877-.3982-1.446-2.0223.3563c-2.1586.3772-2.64062 1.7918-2.65109 4.1181-.0105 1.8756.72304 3.4684 2.80819 3.4684Zm-.0733-1.446c-.6078 0-1.07928-.503-1.07928-1.2156 0-.4925.35628-1.0793 1.04788-1.0793.6077 0 1.0898.4506 1.0898 1.1212 0 .7126-.4926 1.1737-1.0584 1.1737Zm5.7703 1.446c.6182 0 1.0792-.2096 1.4146-.6392l.021.0105v.5344h1.5613v-5.1241h-1.6451v.5344l-.021.0105c-.3563-.4191-.8696-.6392-1.4146-.6392-1.3203 0-2.3367 1.0898-2.3367 2.6616 0 1.5823 1.0164 2.6511 2.4205 2.6511Zm.3457-1.446c-.6496 0-1.1002-.4821-1.1002-1.2051 0-.7335.4716-1.2155 1.1002-1.2155.6079 0 1.0794.5134 1.0794 1.2155 0 .7335-.4924 1.2051-1.0794 1.2051Zm3.8003 1.3517h1.6347v-1.8338h1.6242v1.8338h1.6451v-5.1241h-1.6451v1.97H22.286v-1.97h-1.6347v5.1241Zm6.0743 0h1.6138v-1.4356l.4924-.5868 1.2888 2.0224h1.8549l-1.9072-2.9445 1.8021-2.1796h-1.9068l-1.6033 2.0329h-.0209v-2.0329h-1.6138v5.1241ZM14.4049 16.8251h-.8116v-3.7316H9.60819c0 .9459-.0104 1.7047-.1665 2.4427-.09363.4366-.22887.8627-.43699 1.2889h-.74918l-.0104 2.6713h1.34227l.05201-1.3201h3.3296l.0936 1.3201h1.3423v-2.6713Zm-3.8395 0c.1249-.2703.229-.5509.3018-.8419.1248-.499.1873-1.0187.2289-1.58h.9052v2.4219h-1.4359Zm7.0106 1.4448c.6139 0 1.0717-.2079 1.4046-.6341l.0208.0104v.5301h1.5504v-5.0828h-1.6336v.5302l-.0208.0103c-.3537-.4157-.8636-.634-1.4046-.634-1.3111 0-2.3204 1.081-2.3204 2.6402 0 1.5695 1.0093 2.6297 2.4036 2.6297Zm.3433-1.4344c-.6451 0-1.0925-.4782-1.0925-1.1953 0-.7277.4682-1.2058 1.0925-1.2058.6035 0 1.0717.5093 1.0717 1.2058 0 .7275-.489 1.1953-1.0717 1.1953Zm5.1057 1.3408h1.6336v-3.7627h1.3735v-1.3201h-4.3909v1.3201h1.3838v3.7627Zm5.9991.0936c.6139 0 1.0717-.2079 1.4047-.6341l.0208.0104v.5301H32v-5.0828h-1.6336v.5302l-.0209.0103c-.3537-.4157-.8636-.634-1.4046-.634-1.3111 0-2.3203 1.081-2.3203 2.6402 0 1.5695 1.0092 2.6297 2.4035 2.6297Zm.3434-1.4344c-.6451 0-1.0925-.4782-1.0925-1.1953 0-.7277.4682-1.2058 1.0925-1.2058.6035 0 1.0717.5093 1.0717 1.2058 0 .7275-.489 1.1953-1.0717 1.1953Z"/>
</svg>