<svg xmlns="http://www.w3.org/2000/svg" viewBox="0 0 40 40">
	<path class="bg-logo" fill="#6A2538" d="M0 0h40v40H0z"/>
	<path fill="#fff" d="M20.111 33c6.3363-.006 11.599-4.8902 12.0778-11.208H8.02656C8.50529 28.1125 13.7726 32.9973 20.111 33Zm7.41-7.8947c-1.5139 2.6665-4.3438 4.3145-7.41 4.3159-3.0689.0013-5.9015-1.6474-7.4167-4.3159H27.521ZM19.4536 5h-3.3199v3.77804C11.2628 10.4738 7.99867 15.0673 8 20.225v.1528h11.4536V5Zm-3.3199 12.0379h-3.9374c.7557-1.875 2.1507-3.4228 3.9374-4.3689v4.3689Zm16.0551 3.1871c.0013-5.1577-3.2628-9.7512-8.1338-11.44696V5h-3.3199v15.3844h11.4537v-.1594Zm-8.1338-3.1738V12.669c1.7928.9468 3.1904 2.4998 3.9441 4.3822H24.055Z"/>
</svg>