<svg xmlns="http://www.w3.org/2000/svg" viewBox="0 0 40 40">
	<path class="bg-logo" fill="#3ADCC9" d="M0 0h40v40H0z"/>
	<path fill="#fff" d="M22.8983 8.00588c-.4341-.06324-.733.39671-.4887.7503 1.423 2.05542 2.2394 4.44142 2.2394 6.98842 0 6.7095-5.6545 12.3123-13.1834 13.6347-.2731.0489-.4139-.2961-.1811-.4427 6.5055-4.0045 9.8602-10.1247 7.5777-14.3189-1.2304-2.2566-3.8636-3.5359-7.1436-3.7889-.3852-.0287-.6813.3278-.5635.6842.6756 2.0411 1.0234 4.2143 1.0493 6.471.0575 5.2463-1.7076 8.9518-3.01842 10.9756-.50595.779.08049 1.788 1.03492 1.788h8.42c5.2837 0 8.1325-1.4488 10.4438-3.349C31.2493 25.6192 33 22.4714 33 19.3121c0-5.735-4.3839-10.48693-10.1017-11.30622Z"/>
</svg>