<svg xmlns="http://www.w3.org/2000/svg" viewBox="0 0 40 40">
	<path class="bg-logo" fill="#99C45A" d="M0 0h40v40H0z"/>
	<path fill="#fff" d="M16.7732 29.5515h-6.4825v-2.7392h6.4681v2.7392h.0144Zm1.305-4.116H9v6.8553h1.2907V30.914h7.7589v-5.4785h.0286ZM10.2907 13.116l2.5959-2.7392v9.5946h-2.5959V13.116ZM9 21.3338h5.163V9h-1.9218L9 12.4276v8.9062Zm7.7732-10.957h2.5958v9.5946h-2.5958v-9.5946Zm-1.2908 10.957h5.163V9h-5.163v12.3338Zm14.2126 0h1.2907V9h-1.9505v.01434l-1.9504 2.05086V9h-1.9505l-3.2125 3.4276v8.9062h1.2908V13.116l2.5958-2.7392v10.957h1.2907V13.116l2.5959-2.7392v10.957ZM9 24.073h22v-1.3767H9v1.3767Zm16.8227 2.7393h3.8723v2.7392h-3.8723v-2.7392Zm-1.2907 2.7392h-3.8866v-2.7392h3.8866v2.7392Zm1.2907 1.3625H31v-5.4785H19.369v5.4785h5.163v1.3768h1.2907V30.914Z"/>
</svg>