<svg xmlns="http://www.w3.org/2000/svg" viewBox="0 0 40 40">
	<path class="bg-logo" fill="#00563F" d="M0 0h40v40H0z"/>
	<path fill="#fff" d="M31.8688 27.2771c.2472.1766.5297.2825.8827.2825.5297.0353.9181-.1412 1.1299-.459.2119-.3178.3178-.7062.3178-1.13 0-.6355-.1766-1.0945-.4943-1.2711-.3531-.2118-.7415-.3177-1.1652-.3177-.2472 0-.4591.0352-.6356.0352v2.8601h-.0353Zm0-3.2131c.4943-.1059.9181-.1413 1.2358-.1413.5296 0 1.13.1413 1.8361.3884.7062.2472 1.0593.8122 1.0593 1.6595 0 .6004-.2472 1.0594-.7415 1.4478-.4943.353-1.1652.5296-2.0127.5296-.353-.0353-.6002-.0353-.7768-.0353h-3.0365v-.3531h.4589c.2472 0 .3532-.0706.3532-.2118 0-.0354.0353-.0707.0353-.1413v-4.8374c0-.0706 0-.1059-.0353-.1412-.0353-.1413-.1412-.2119-.3532-.2119h-.4589v-.353h6.0025l.0353 1.5536h-.4237v-.3532c0-.1412-.1765-.2824-.4943-.4236-.3177-.1413-.7415-.2472-1.1652-.3179-.459-.0705-.8121-.1059-1.024-.1059-.1412.0354-.2471.0354-.3177.0706-.0707.0353-.106.106-.106.2119v1.7655h-.0706Zm-7.4856 3.2131c.2825.2119.6356.3178 1.024.3178.4237-.0353.7415-.1412.9534-.4237.2471-.2472.353-.6356.353-1.0946 0-.9533-.4943-1.4124-1.4477-1.4124h-.918v2.6129h.0353Zm0-3.0365h1.2711c.2825-.0354.4944-.1413.6709-.3179.1766-.1765.2472-.4237.2472-.7415 0-.2118-.0353-.4237-.1413-.6002-.1059-.1766-.2471-.3178-.4237-.3884-.1765-.106-.4236-.1412-.7061-.1412-.3531 0-.6709.1059-.9181.2824v1.9068Zm2.1539.2118c.5296.0353 1.0239.1766 1.4123.4943.4238.2825.6003.7062.6003 1.2359 0 .5296-.2471.9533-.7062 1.2711-.459.3177-1.1299.4943-1.9773.4943-.1765 0-.3178-.0353-.4237-.0353h-3.4956v-.3531h.459c.2471 0 .3531-.0706.3531-.2118.0353-.0354.0353-.0707.0353-.1413v-4.8374c0-.0706 0-.1059-.0353-.1412-.0353-.1413-.1412-.2119-.3531-.2119h-.459v-.353h2.3304c.3177 0 .7415 0 1.2711-.0354 1.0946 0 1.8361.1413 2.2245.459.3884.3178.6003.6709.6003 1.0593 0 .2472-.0706.4943-.2472.7062-.1766.2119-.3884.3531-.6709.459-.3531.0707-.6355.1413-.918.1413ZM15.7324 27.489h2.507c.1765 0 .3178-.0353.3531-.1766 0-.0353.0353-.0706.0353-.1412v-4.6609c0-.2118-.0353-.353-.0706-.3884-.0354-.0353-.106-.0705-.2472-.0705h-.7768c-.1766 0-.3178.0352-.3884.1059-.0706.0706-.1413.2118-.1766.459-.0352.0706-.0706.2119-.1059.4237-.1413.4943-.2825 1.024-.4237 1.5536-.1765.5297-.3178.9886-.4944 1.4477-.1059.2472-.2118.4943-.3177.7768-.1059.2472-.1766.3884-.1766.4237-.0706.1766.0707.2472.2825.2472Zm-.3178-5.473v-.353h5.6848v.353h-.4943c-.2472 0-.3531.0706-.3531.2119v4.8374c0 .2825.1059.4237.3531.4237h.6355v1.8714h-.4589v-.4238c0-.2118-.1766-.3884-.565-.5296-.3884-.1765-.8121-.2824-1.3417-.3884-.4944-.1059-.9534-.1412-1.3065-.1412-.3531 0-.7768.0353-1.2711.1765-.4944.1059-.9181.2472-1.2712.3884-.3531.1766-.5296.3179-.5649.4943l-.0353.4238h-.5297l.1412-1.8714c.3885.0353.7769-.2825 1.1653-.918.353-.6356.6709-1.3772.918-2.2245.2472-.8475.3531-1.4477.3884-1.8362 0-.1765-.0353-.2824-.1059-.353-.0707-.0707-.2471-.1059-.4943-.1059h-.4944v-.0354Zm20.0911-1.9066h-8.6155c1.3771-6.8501-8.6508-14.12384-13.2764-1.2359 1.589-15.25367 22.4568-9.7454 21.8919 1.2359ZM4.15093 27.9833h8.65087C9.83574 12.5178 17.5685 7.71572 24.701 8.7397 14.32 6.26804 2.5267 9.33995 4.15093 27.9833Z"/>
</svg>