<svg xmlns="http://www.w3.org/2000/svg" viewBox="0 0 40 40">
	<path class="bg-logo" fill="#444" d="M0 0h40v40H0z"/>
	<path fill="#FFDB00" d="M31.9988 31.8682c0 .0699-.0387.1318-.0825.1318H8.08246C8.03864 32 8 31.938 8 31.8682V8.13183C8 8.06187 8.03873 8 8.08246 8H31.9163c.0437 0 .0825.06176.0825.13183V31.8682Z"/>
	<path fill="#333" d="m17.8066 15.0398.0054 3.8978c0 .0719.0651.1355.1388.1355l4.0721.0106c.0649.0002.1246.0492.136.1115l.1905 1.0514c.0149.0816-.0511.159-.1361.1593l-4.2707.0027c-.0736 0-.1387.0636-.1387.1354l.0136 4.4395c0 .0714.0649.1354.1387.1354l5.4132-.0027c.0725 0 .1374.0615.1388.1328l.0136 1.1364c.0014.0748-.0621.1381-.1388.1381l-7.233.0026c-.0739 0-.1388-.0639-.1388-.1354l.0028-12.7475c0-.0718.0651-.1354.1387-.1354l6.961.0027c.0736 0 .1388.0635.1388.1354l.0108 1.1284c0 .0719-.0651.1354-.1387.1354l-5.1793-.0053c-.0756 0-.1387.0617-.1387.1354Z"/>
</svg>