<svg xmlns="http://www.w3.org/2000/svg" viewBox="0 0 40 40">
	<path class="bg-logo" fill="#575656" d="M0 0h40v40H0z"/>
	<path fill="#EE7C00" d="m21.6664 4.40336 11.3339 6.53344c.9262.5378 1.4441 1.4442 1.4441 2.5198v13.0769c0 1.0756-.5378 1.9819-1.4441 2.5197l-11.324 6.5434c-.9262.5379-1.9819.5379-2.9082 0L7.44413 29.0233C6.5179 28.4855 6 27.5792 6 26.5135V13.4367c0-1.0757.5179-1.982 1.44413-2.5198L18.7781 4.40336c.9063-.53781 1.962-.53781 2.8883 0Z"/>
	<path fill="#fff" d="m21.2384 9.063 7.9377 4.5913c.6474.3685 1.0159 1.0159 1.0159 1.7529V24.57c0 .737-.3685 1.3844-1.0159 1.7529l-7.9377 4.5714c-.6474.3685-1.3844.3685-2.0318 0l-2.0517-1.1852c-.5378-.2788-.3685-.8864 0-1.0557 2.6094-1.5138 5.2388-3.0177 7.8382-4.5316.6872-.3884.9262-.8366.9462-1.7429v-2.0716c-.0399-.5876-.6076-1.0159-1.2948-.6075-3.9539 2.3106-7.9178 4.6013-11.8718 6.882-.5179.3187-.6672.2191-1.0357 0-1.4243-.8366-1.4641-1.235-1.4641-2.7388 0-.3287.1096-.4283.3187-.5877 4.0137-2.3305 8.0473-4.6411 12.061-6.9716.8167-.4283.5577-1.2948 0-1.494l-1.7429-.9959c-.5777-.3486-1.1254-.498-1.8824-.0199-2.5894 1.4939-5.1789 2.9978-7.7883 4.4917-.5378.3187-.9761-.0199-.9761-.5179v-2.3405c0-.737.3685-1.3844 1.0159-1.7529l7.9378-4.57138c.6374-.38842 1.3744-.38842 2.0218-.01992Z"/>
</svg>