<svg xmlns="http://www.w3.org/2000/svg" viewBox="0 0 40 40">
	<path class="bg-logo" fill="#FF8200" d="M0 0h40v40H0z"/>
	<path fill="#fff" d="M21.6146 5.10749C28.5629 5.807 34.198 11.3485 34.9093 18.1832c1.0395 9.3616-7.0029 17.2712-16.5226 16.2492-6.9483-.6995-12.58353-6.241-13.29477-13.0741C4.10718 12.5326 11.1649 5 19.9733 5c.5305 0 1.0609.05118 1.5914.10237l.0499.00512Zm-.5471 27.28101c6.237-.4846 11.2704-5.4358 11.7628-11.5693.6565-7.8021-5.9635-14.31269-13.8965-13.66607-6.237.48284-11.27041 5.43397-11.76285 11.56757-.60183 7.4796 5.36175 13.7206 12.80235 13.7206.3829 0 .7112 0 1.0942-.0528Zm9.6289-13.6678c-.0019-.0188.0019-.0359 0-.0546v.0546ZM20.0278 9.24996c5.5614 0 10.0962 4.11344 10.6686 9.41614H17.347v2.1531h13.3494c-.5471 5.3265-5.1428 9.469-10.6686 9.469-6.1823 0-11.10625-5.1115-10.72333-11.2451.38302-5.1115 4.54103-9.3086 9.73843-9.73854.3284-.0546.6566-.0546.9849-.0546Zm.3535 3.69034c-.1761.1911-.304.4248-.3535.6688-.1641.9145.5471 1.7215 1.4772 1.7215h.2735c.3096-.0614.6016-.2252.8166-.4641.1651-.1825.2848-.4094.3324-.6654.1642-1.0236-.7113-1.9381-1.7507-1.7231-.2996.058-.5827.2303-.7955.4623Z"/>
</svg>