<svg xmlns="http://www.w3.org/2000/svg" viewBox="0 0 40 40">
	<path class="bg-logo" fill="#009033" d="M0 0h40v40H0z"/>
	<path fill="#fff" d="M22.5618 30.5773h-5.18L16.8224 32H8v-8.8228l1.39467-.5313v-5.2921L8 16.8224V8h8.8224l.5594 1.42231h5.1804L23.1211 8h8.8228v8.8228l-1.3946.531v5.2917l1.3942.5313v8.8228h-8.8224l-.5593-1.4223Zm3.2686-2.5537h2.1368v-2.1064l-1.3947-.5313V14.6134l1.3947-.5314v-2.106h-2.1368l-.559 1.4223H14.6722l-.5594-1.4223H11.976v2.106l1.3943.5314v10.7729l-1.3943.5313v2.106h2.1368l.5594-1.4227H25.271l.5594 1.4227Z"/>
</svg>