<svg xmlns="http://www.w3.org/2000/svg" data-name="Layer 1" viewBox="0 0 40 40">
	<path class="bg-logo" fill="#3c46fa" d="M0 0h40v40H0V0Z"/>
	<path fill="#fff" d="M29.9 10.1C27.3 7.5 23.7 6 20 6 12.3 6 6 12.3 6 20s6.3 14 14 14 14-6.3 14-14c0-3.7-1.5-7.3-4.1-9.9Zm-2.1 13.6c-1.5 3.1-4.7 5.1-8.2 4.9-3.3-.2-6.2-2.2-7.5-5.2-1.3-3-.8-6.5 1.4-9 .2-.2.6-.3.8 0l1.5 1.5c.2.2.2.5 0 .8-1.5 1.8-1.6 4.4-.3 6.4s3.7 2.8 6 2.2c2.3-.7 3.8-2.8 3.8-5.1 0-1.3-.5-2.5-1.3-3.5-.2-.2-.2-.5 0-.8l1.5-1.5c.2-.2.6-.2.8 0 2.3 2.6 2.9 6.3 1.4 9.4Z"/>
</svg>