<svg xmlns="http://www.w3.org/2000/svg" viewBox="0 0 40 40">
	<path class="bg-logo" fill="#8C261E" d="M0 0h40v40H0z"/>
	<g fill="#fff">
		<path d="M24.36 6.21c-.63-.07-1.4-.21-2.03-.21-2.45 0-4.76.63-7 1.68-2.31 1.12-4.34 2.8-5.95 4.76l3.15 3.29c.49-.77 1.05-1.33 1.68-1.96l-1.54-1.47c1.33-1.19 2.8-2.24 4.41-2.87 1.47-.63 3.15-1.05 4.9-1.05.56 0 1.19 0 1.75.07 5.53.77 8.96 6.02 8.05 11.55-.49 3.15-2.24 6.09-4.69 8.26-2.45 2.03-5.53 3.36-8.82 3.36-3.15 0-6.3-1.33-8.05-3.85l2.17-1.68c-.49-.56-.84-1.19-1.05-1.96L7 27.49c.91 1.96 2.45 3.64 4.41 4.9 1.82 1.05 4.06 1.61 6.51 1.61 3.85 0 7.56-1.61 10.57-4.13 2.87-2.52 5.04-6.02 5.74-9.94.56-3.43-.28-7.14-2.59-9.94-1.82-1.96-4.27-3.36-7.28-3.78Z"/>
		<path d="M15.4001 19.0234h12.95c0-1.96-.63-3.78-1.96-5.04-1.19-1.19-3.01-1.96-5.04-1.96-2.24 0-4.41.91-6.16 2.45-1.68 1.47-3.01 3.43-3.29 5.81-.07.28-.07.77-.07 1.12 0 1.75.56 3.29 1.61 4.48 1.05 1.19 2.45 2.03 4.2 2.31.35.07.84.07 1.19.07 2.03 0 4.06-.77 5.74-1.96 1.68-1.33 2.87-3.01 3.57-5.04h-13.09c.07.84.35 1.61.84 2.24h8.4l-.07.14c-.07.07-.07.21-.21.21-.63.63-1.4 1.19-2.24 1.61-.84.35-1.68.56-2.52.56-1.47 0-2.87-.56-3.85-1.61-.77-.84-1.12-1.96-1.12-3.15 0-.28 0-.56.07-.91.28-1.61 1.12-3.08 2.31-4.13 1.19-1.05 2.8-1.68 4.41-1.68.91 0 1.75.21 2.59.63.77.35 1.33 1.05 1.68 1.75h-8.26c-.77.49-1.33 1.26-1.68 2.1Z"/>
	</g>
</svg>