<svg xmlns="http://www.w3.org/2000/svg" viewBox="0 0 40 40">
	<path class="bg-logo" fill="#D1001B" d="M0 0h40v40H0z"/>
	<g fill="#fff">
		<path d="M8 29.1186c1.2.42 2.52.6 3.9.6 5.94 0 10.68-4.14 11.1-9.36h-7.08c-.48 0-.84-.3-.84-.72s.84-.72.84-.72h7.14c-.36-5.22-5.22-9.36001-11.16-9.36001-1.38 0-2.7.24-3.9.66001v7.02h7.32c.48 0 .84.3.84.72s-.84.72-.84.72H8v10.44Z"/>
		<path d="M18.98 8h10.74C30.98 8 32 9.02 32 10.28v18.78c0 1.26-1.02 2.28-2.28 2.28H19.04c4.56-2.34 7.62-6.72 7.62-11.7 0-5.04-3.12-9.42-7.68-11.64Z"/>
	</g>
</svg>