<svg xmlns="http://www.w3.org/2000/svg" data-name="Layer 1" viewBox="0 0 40 40">
	<path class="bg-logo" fill="#264796" d="M0 0h40v40H0V0Z"/>
	<path fill="#fff" d="M35 20v-.2c0-.4-.2-.7-.3-1.1-.2-.5-.4-1-.8-1.4l-.4-.6-.9-.9q-.2-.2-.5-.4t1.2-3l-1.2.6c-.6.3-1.2.7-1.8 1.2q-.3-.1-.7-.3c-.8-.4-1.7-.7-2.7-1-.4 0-.8-.2-1.1-.3-1.2-.2-2.3-.4-3.5-.5h-2.5c-.8 0-1.5 0-2.3.1h-.8c-.8.1-1.6.2-2.4.4-.4.1-.8.2-1.1.3-.2 0-.4.1-.6.2-.3 0-.6.2-.8.3-.7.3-1.4.6-2.1 1-.6.4-1.1.7-1.6 1.1-.2.2-.3.3-.5.4-.6.5-1 1-1.4 1.6-.4.6-.7 1.2-.8 2v1.9c.2.6.3 1.1.6 1.6q.2.4.3.5s.2.2.2.3c.4.5.8 1 1.4 1.4l.6.6c.3.2.6.5.9.7.1 0 .2.1.3.2.5.3 1 .5 1.5.7.2 0 .5.2.8.2q.4.1.7.2.3 0 .7.1c.2 0 .5.1.7.2 1.8.4 3.7.7 5.6.8h2.5c.4 0 .8 0 1.2-.1 1-.1 2-.3 2.9-.5.2 0 .5-.1.7-.2.6-.2 1.3-.4 2-.7.7-.3 1.4-.6 2-1 .2-.2.4-.3.6-.4l1.2-.9c.2-.1.3-.3.4-.4.2-.1.3-.3.4-.4.2-.3.5-.6.7-.9.2-.4.4-.7.6-1.1.2-.4.3-.9.3-1.4V20Zm-2.8-6.6c-.4.4-.6.9-.9 1.4l-.3-.2c-.1 0-.3-.2-.4-.2.5-.4 1-.7 1.6-1Zm-11-.4c0 .4.1.7.2 1.1-.3-.5-.7-.9-1.2-1.2h1Zm-5.1.4s.2-.1.3-.2c.8-.1 1.6-.2 2.4-.2h.1c.8.2 1.4.6 2 1.1.4.5.6 1.1.9 1.6 0 0 .2 0 .3.1-.3-.9-.5-1.8-.6-2.8-.2 0 1.8.1 2 .2.3 0 .6 0 .9.2.8.2 1.7.4 2.6.6.7.2 1.4.5 2 .8.1 0 .2.1.4.2-1.4 1.4-2.8 3.5-4.3 5.7-.7-.5-1.4-1-2.2-1.4-.5-.2-1.1-.4-1.7-.5-2.1-.5-5.7-.2-5.1 2.4.5 1.6 2.1 2.7 3.7 3.5-1.2.5-3 .9-4.4.7 1-.7 1.3-1.6.7-2.7-.9-1.3-2.6-1.7-4.2-2 .3-1.9 2.4-3.4 4.3-4 1.5.4 3.1.6 4.5 0 .3-.1.3-.3 0-.5-.9-.4-3.2 0-4.3.1 0 0-.2-.1-.2-.2-.8-.8-1-1.8 0-2.6Zm7.2 7.3c-.2-.5-.4-.9-.8-1.2.6.1 1.9 1 2.5 1.4-1 1.2-2.3 3.1-3.6 4.1-.2 0-.5-.2-.7-.3 1.3-.9 3.1-2.4 2.7-4Zm-3.2 3.7c-1.4-1-3-1.8-2.9-3.7.2-1.1 1.2-1.5 2.4-1.6 1.3 0 2.2.3 2.9 1.3 0 .1.1.2.1.3.4 1.5-1.3 2.9-2.6 3.7Zm-4.9.8-.2.2h-.5c-2.3-.6-3.1-1.9-2.8-3.9 1.9.1 5.7 1.4 3.5 3.8Zm1.8-8.7c1.1-.2 2.1-.3 3.2-.2v.2c-.4.2-2.1.5-3.2 0ZM6.8 22.8c-.3-.5-.5-1-.7-1.5v-1.7c.1-.5.3-.9.6-1.4 0-.1.2-.2.2-.3.3-.4.6-.7.9-1 .3-.3.6-.5 1-.8.8-.6 1.7-1 2.7-1.4.2 0 .3-.1.5-.2.8-.3 1.7-.6 2.6-.8.4 0 .7-.2 1-.2-1.4.9-1.2 2.1.2 2.9-2 .3-5.1 1.8-5.5 4.3-1.6.1-3.2.6-3.5 2.2Zm6.3 4.1c-1-.3-1.9-.7-2.9-1.2-.4-.2-.8-.4-1.1-.7-.5-.3-1-.7-1.4-1.1-.4-1.1.2-2.7 2.5-2.7-.2 1.7.6 3.1 2.2 4 2.3 1.2 5.3.8 7.6-.3h.2c.1 0 .8.3.9.3-1.4 1.1-3.7 2.1-5.7 2.2-.8-.2-1.6-.4-2.3-.6Zm13.5.1-.8.2c-2.9.7-5.8.8-8.8.5 1.7-.4 3.2-1.2 4.5-2.3 1.6.6 3.7 1.1 5.4.9 0 .2-.2.5-.2.7Zm.4-1c-2.2 0-4-.4-5.3-.9.8-.6 3.3-3.9 3.5-4 1.6 1.4 2 3.5 1.8 4.9Zm-1.6-5.1c1.8-2.4 2.4-3.6 3.9-5.4l.4-.4c.4.2.7.4 1.1.6-1.3 2.9-2.4 5.8-3.4 8.8-.2-1-.5-2.4-2-3.6Zm8.4.8s0 .2-.1.3c-.2.5-.5 1-.9 1.4-.2.2-.3.3-.4.5-.4.4-.8.8-1.3 1.1l-1.5.9q-.4.2-.7.4c.6-3.4 1.7-6.5 3-9.8.3.2.5.5.8.8q.2.2.4.5t.3.5c.2.3.3.6.4 1 .2.5.2 1 .2 1.6 0 .3-.1.6-.2.9Z"/>
</svg>