<svg xmlns="http://www.w3.org/2000/svg" viewBox="0 0 40 40">
	<path class="bg-logo" fill="#003867" d="M0 0h40v40H0z"/>
	<path fill="#72B3E6" d="M2.59253 35.9261v-1.8519h1.48148c.8182 0 1.48148-.6633 1.48148-1.4815V7.01518c0-.8182-.66328-1.48149-1.48148-1.48149H2.59253V3.70312H22.5925V11.852h-1.1111v-1.4815c0-2.45458-1.9898-4.44443-4.4444-4.44443h-4.4445c-.4091 0-.7407.33164-.7407.74074V18.5187h1.8518c1.6364 0 2.963-1.3266 2.963-2.963v-1.4815h1.4815v11.1111h-1.4815v-1.0544c0-1.6364-1.3266-2.963-2.963-2.963h-1.8518v12.2868h5.4853c1.567 0 2.9689-.9847 3.4508-2.4756.3835-1.1867.7878-2.5278.9468-3.3615h.8578v8.3085H2.59253Z"/>
	<path fill="#fff" d="M27.8481 33.455h2.8928v2.4711h-8.1481v-8.3088h.8579c.0992.5209.2941 1.2395.5199 1.9947 5.4489-.3119 7.5111-4.6618 7.5111-9.9821 0-5.2074-3.0614-9.4852-7.3548-9.95684-.0348.23077-.0526.46414-.0526.69744v1.4815h-1.4815V3.70312h7.7778v2.22295h-2.2223c-1.4527 0-2.613.77851-3.3181 1.87474.2392-.01491.4811-.02249.7255-.02249 6.6911 0 12.2223 5.67658 12.2223 12.22218 0 6.5456-5.4242 11.8519-12.1153 11.8519-.2915 0-.5768-.0064-.8558-.0189.6585 1.0011 1.7979 1.6215 3.0412 1.6215Z"/>
</svg>