<svg xmlns="http://www.w3.org/2000/svg" viewBox="0 0 40 40">
	<path class="bg-logo" fill="#060909" d="M0 0h40v40H0z"/>
	<path fill="#B4241C" d="m21.76 9.44344 3.28 2.63996c.48-.64.88-1.2 1.36-1.92l-3.28-2.63996c-.4.72-.88 1.36-1.36 1.92Zm10.96 5.59996c-.4.72-.88 1.36-1.28 1.92l3.28 2.6401c.48-.64.88-1.2001 1.28-1.9201l-3.28-2.64Z"/>
	<path fill="#C23F31" d="m19.9199 11.5998 3.28 2.64c.56-.56 1.04-1.04 1.6-1.76l-3.36-2.63996c-.4.71996-.96 1.27996-1.52 1.75996Zm11.12 5.7601c-.56.64-1.04 1.2-1.6 1.76l3.28 2.64c.56-.56 1.04-1.04 1.6-1.76l-3.28-2.64Z"/>
	<path fill="#DA8C97" d="M18.8001 12.56c-.4.32-.8.56-1.2.88l3.36 2.64.08-.08c.64-.4 1.2-.88 1.84-1.36l-3.28-2.64c-.32.16-.56.4-.8.56Zm10.32 6.88c-.24.24-.56.4-.8.64-.4.32-.8.56-1.2.88l3.28 2.64.08-.08c.64-.4 1.2-.88 1.84-1.36l-3.2-2.72Z"/>
	<path fill="#EDCDCD" d="m14.96 14.8778 3.36 2.64 2.16-1.2-3.28-2.56c-.72.32-1.44.72-2.24 1.12Zm11.76 6.32c-.64.4-1.36.8-2.24 1.12l3.36 2.64 2.16-1.2-3.28-2.56Z"/>
	<path fill="#DA8D8D" d="m12 16.1611 3.2 2.56c.08 0 .16-.08.24-.08.8-.24 1.52-.56 2.32-.96l-3.36-2.56c-.72.32-1.44.72-2.4 1.04Zm12 6.48c-.8.4-1.52.72-2.4 1.04l3.2 2.56c.08 0 .16-.08.24-.08.8-.24 1.52-.56 2.32-.96l-3.36-2.56Z"/>
	<path fill="#C52E1A" d="M10.3999 16.8805c-.48003.16-.96003.4-1.28003.64l3.28003 2.64c.72-.48 1.44-.88 2.32-1.12l-3.2-2.56c-.4.08-.72.24-1.12.4Zm10.64 7.04c-.4.16-.72.32-1.04.48-.48.16-.96.4-1.28.64l3.28 2.64c.72-.48 1.44-.88 2.32-1.12 0-.08-3.28-2.64-3.28-2.64Z"/>
	<path fill="#A6201C" d="m6.88013 19.3578 3.27997 2.64c.56-.64 1.12-1.12 1.76-1.6l-3.27997-2.64c-.64.48-1.28 1.04-1.76 1.6Zm11.35997 5.92c-.64.48-1.2 1.04-1.76 1.6l3.28 2.64c.56-.64 1.12-1.12 1.76-1.6l-3.28-2.64Z"/>
	<path fill="#A01F1C" d="m5.19995 21.6797 3.36001 2.56c.4-.72.88-1.36 1.28-1.92l-3.28001-2.64c-.48.72-.96 1.36-1.36 2Zm10.96005 5.52c-.48.64-.96 1.2-1.28 1.92l3.28 2.56c.4-.72.88-1.36 1.28-1.92l-3.28-2.56Z"/>
	<path fill="#791D19" d="m4 24.3202 3.28 2.64c.08-.4.24-.96.48-1.44.16-.32.32001-.56.48001-.88L5.04 22.1602c-.4.72-.72 1.36-1.04 2.16Zm10.56 5.28c-.4.72-.72 1.36-1.04 2.24l3.28 2.64c.08-.4.24-.96.48-1.44.16-.32.32-.56.48-.88l-3.2-2.56Z"/>
	<path fill="#DFAF1F" d="M26.5601 13.2013c.48-.64.88-1.2 1.28-1.9201l3.28 2.6401c-.4.72-.88 1.36-1.28 1.92 0-.08-3.28-2.64-3.28-2.64Z"/>
	<path fill="#F0D24F" d="M24.72 15.2834c.56-.56 1.04-1.04 1.6-1.76l3.28 2.64c-.56.64-1.04 1.2-1.6 1.76l-3.28-2.64Z"/>
	<path fill="#F6DA82" d="M22.3999 17.1216c.48-.32.88-.56 1.2-.88.24-.16.56-.4.8-.64l3.28 2.64c-.64.56-1.2.96-1.84 1.36l-.08.08-3.36-2.56Z"/>
	<path fill="#FFF8BE" d="M19.6802 18.5614c.88-.4 1.52-.8 2.24-1.12l3.28 2.64c-.72.48-1.44.88-2.16 1.2l-3.36-2.72Z"/>
	<path fill="#F6DE73" d="M16.8 19.9228c.88-.4 1.6801-.72 2.4001-1.04l3.36 2.64c-.8.4-1.52.72-2.32.96-.08 0-.16.08-.24.08 0-.08-3.2001-2.64-3.2001-2.64Z"/>
	<path fill="#E4A922" d="M13.8401 21.202c.4-.24.88-.48 1.28-.64.4-.16.8-.32 1.04-.48l3.2 2.56c-.88.32-1.6.72-2.32 1.12.08 0-3.2-2.56-3.2-2.56Z"/>
	<path fill="#C6972C" d="M11.6001 23.1234c.56-.64 1.12-1.12 1.76-1.6l3.28 2.64c-.64.48-1.2.96-1.76 1.6.08-.08-3.28-2.64-3.28-2.64Z"/>
	<path fill="#C48422" d="M10 25.3614c.4-.64.88-1.36 1.28-1.92l3.28 2.64c-.48.56-.96 1.2-1.28 1.92l-3.28-2.64Z"/>
	<path fill="#B86821" d="m12.0801 30.7198-3.28005-2.64c.32-.8.64-1.52.96-2.24l3.20005 2.56c-.16.24-.32.56-.48.88-.08.48-.32 1.04-.4 1.44Z"/>
	<path fill="#D9A41F" d="M28.1599 10.9608c.4-.64.88-1.36002 1.12-2.16002l3.28 2.64002c-.32.72-.8 1.44-1.04 2.08 0-.08-3.36-2.56-3.36-2.56Z"/>
	<path fill="#D5931F" d="M29.52 8.32c.4-.72.64-1.52.88-2.32l3.28 2.64c-.24.8-.56 1.6-.96 2.24l-3.2-2.56Z"/>
</svg>