<svg xmlns="http://www.w3.org/2000/svg" viewBox="0 0 40 40">
	<path class="bg-logo" fill="#111" d="M0 0h40v40H0z"/>
	<path fill="#EB1C2D" d="M15.0411 23.9129H9V31h6.9495v-6.175c0-.5368-.3745-.9121-.9084-.9121ZM18.3017 7H9v7.0871h9.3555c4.0628 0 7.3772 3.3293 7.3772 7.4093V31h7.0565v-9.4497C32.7361 13.4964 26.2673 7 18.3017 7Zm-.1069 8.4292H9v7.0878h6.3611c.2677.0008.5324.0538.7791.1563.2467.1024.471.2534.6594.4426.1884.1891.338.4142.4404.6609.1017.2475.154.5122.1533.7791v6.4434h6.9495v-9.3952c0-3.3824-2.726-6.1742-6.148-6.1749Z"/>
</svg>