<svg xmlns="http://www.w3.org/2000/svg" viewBox="0 0 40 40">
	<path class="bg-logo" fill="#015289" d="M0 0h40v40H0V0Z"/>
	<path fill="#fff" d="M17.7 12.9c-.8.9-.2 1.6-.2 1.6 0-.7.7-1 1.6-2.1.9-1.1-.5-2-.5-2 .6 1.1-.2 1.6-1 2.5ZM18.4 13.7c-1.1.7-.6.9-.6.9s1.5-.2 1.8-2.2c0 .2-.2.8-1.2 1.3ZM19.6 12.4ZM15.5 13.3s-.1-.3.9-1.2c.8-.7 1.6-1.3 1.5-1.9 0-.3-.6-.2-.6-.2-.3.8-1.7 1.8-1.7 1.8-.8.8-.1 1.5-.1 1.5ZM17.1 10c-2 .4-1.9 1.8-1.9 1.8l1.9-1.8ZM28.1 15.2c-1.5 0-3 .8-4.4 2v-1.5H20.9V28.8H24v-9.1c1.1-.9 2.4-1.7 3.2-1.7 1.3 0 1.7.8 1.7 3v7.8H31.9V20c0-3.3-1.3-4.9-3.9-4.9ZM14.4 10.4s-.1-.1-.2-.1c-.5-.1-1.1-.2-1.7-.2-3.8 0-4.6 2.1-4.6 4.7v14c0 .1.1 0 .2 0H10.9V18H13V15.7h-2.1v-.8c0-1.6.5-2.1 1.7-2.1h.8s.1-.1.1-.2.4-1.3.5-1.9v-.2ZM19.3 15.5c-1.6-.2-3.1-.2-4.7 0 0 0-.2 0-.2.1V17.9h2V28.8H19.2s.1 0 .2-.1V15.6s-.1-.1-.2-.1Z"/>
</svg>