<svg xmlns="http://www.w3.org/2000/svg" viewBox="0 0 40 40">
	<path class="bg-logo" fill="#476BF0" d="M0 0h40v40H0z"/>
	<path fill="#fff" d="M5 20.0081C5 11.7277 11.7301 5 20.0102 5 28.2715 5 35 11.7277 35 20.0081 35 28.2715 28.2715 35 20.0102 35 11.7301 35 5 28.2715 5 20.0081Zm.74992 0c0 7.85 6.39688 14.2416 14.26028 14.2416 7.8475 0 14.2399-6.3933 14.2399-14.2416 0-7.8629-6.39-14.25777-14.2399-14.25777-7.8658 0-14.26028 6.39157-14.26028 14.25777Zm18.51648-9.4303c-2.3739-1.05876-6.7973-1.16374-10.4208.45.2897-.2075.5921-.3947.9058-.5623.1912-.1025.3869-.1978.5859-.2848 1.141-.53145 2.981-1.04659 5.2743-1.04659.1082 0 .2164.00082.3251.00326 1.9608.03499 4.2855.71208 5.7064 2.11753.2417.2946.3816.5884.4333.8154 1.1275.5729 1.7859 1.11 2.1493 1.735.1574.3288.2091.6747.1383 1.0743.3699.2075.6905.4923.94.8357.1534.2596.275.5518.3108.8163.0509.3442.0851.743-.2791 1.2125.3817.1913.6925.7268.73.9546.1908.8472-.3658 1.6805-1.0759 2.3242-.5314.4639-1.4709.9847-2.469 1.4006-.5673.236-1.1536.4386-1.6944.577-2.0837.5273-4.0055.8382-5.6876 1.1108-.695.1131-1.3493.2189-1.9572.3304.5542.1327 1.2243.2914 2.1073.398.6079.074 1.3167.1229 2.1586.1229 4.4198 0 8.3224-2.0842 8.3224-2.0842s-.0859.2621-.1742.5054c-2.8084 1.6992-7.264 2.4097-9.1732 2.3226-1.925-.0879-3.5543-.3817-5.1501-.8683-.4875.1375-.9676.2994-1.4384.4866 2.4292 1.11 4.2659 1.3542 6.3301 1.5088 2.1139.1579 5.6189-.3475 8.5641-1.4201-.0659.0667-.1164.1489-.1656.2295-.0541.0879-.1074.175-.1795.2384-1.5092.7976-4.698 1.5959-6.3114 1.6651-1.5967.07-3.5384 0-5.2384-.3133-1.4568-.293-2.6551-.7471-3.9026-1.2997-.2234.1709-.3276.3817-.3817.625 4.8759 2.5497 9.4165 2.6001 14.6041.988l-.47.4516c-5.7056 2.3251-10.1623 1.4218-13.6149-.2441-.1192-.0521-.2584-.105-.3609-.1733.33.5558 2.9634 2.4812 5.9118 2.7246 1.0661.0911 2.2559.0382 3.3586-.1172.9977-.1408 1.9246-.3662 2.6245-.6454l-.8667.4501c-.7117.3475-2.6013 1.1474-5.2388.9725-3.5193-.2442-5.4969-1.8059-6.3819-2.6197-.4158-.3841-.605-.8162-.7275-1.3541-.7984-.4167-1.3009-.8521-1.7151-1.5104-.2433-.3638-.1933-.7968-.1416-1.1638l.1082-.3084c-.3841-.2808-.78244-.5754-.93828-.8683-.34912-.625-.13753-1.1638.10417-1.5804-.07691-.0887-.15137-.1775-.21892-.2662-.11637-.1538-.2124-.3076-.26489-.4614-.10539-.2775-.12166-.5582-.09033-.8691.0708-.5192.34831-1.0034.71248-1.4217.76177-.8855 1.97837-1.5788 4.03927-2.2551 1.5715-.5249 2.4154-.7064 3.4237-.9228.295-.0635.6038-.1294.9489-.2084 1.7859-.4134 3.9193-.5509 5.7039-1.1759-4.9772-.8667-10.144-.07-14.35828 2.8247l.27669-.8146c3.78009-2.4626 7.96019-3.9193 15.03499-2.6872.3817-.2262.6067-.4525.7125-.9025-1.77-.6413-3.6939-.8667-6.1731-.8333-2.2209.0708-6.2284.9-8.3752 2.1712l.6559-.8171c1.4909-.8878 5.3926-2.0483 8.326-2.1004 2.0618-.0513 3.1197.0692 5.5831.7292-.2275-.4142-.7292-.6242-1.475-.9717Zm3.7801 3.61c-.0676-.4858-.6226-.9546-1.1092-1.2671-.0452.1579-.1693.3369-.2987.4956-.07.0863-.1416.1661-.2031.2336.5376.14 1.0926.3451 1.611.5379Zm-2.3735.1546c-.3491.2784-.7458.5201-1.3375.7479.9733.1701 1.7017.4484 2.5318.6755.0085.0041.0183.0057.0276.0049.1807 0 .7748-.5493.8773-.6999-.3214-.1408-.6824-.2824-1.0693-.415-.3276-.1123-.6734-.219-1.0299-.3134Zm3.7101 2.5505c.2242-.4338.0859-.7113-.3808-1.1108-.1917.2278-.4.4166-.625.59.1636.0781.3206.1456.4724.2173.1851.087.3625.1798.5334.3035Zm-7.8023-.918c-2.2892.2775-4.8226.7609-6.9893 1.4038l-.1156.035c-1.0754.3272-5.142 1.5609-3.9071 3.2618l.0147-.0163c.118-.1335.9753-1.1076 3.6772-1.8929 1.9006-.5583 3.8492-.9131 5.8284-1.2736 1.7778-.3239 3.5803-.6527 5.3939-1.1369-1.0795-.2873-1.8152-.459-2.7356-.4598-.352 0-.7308.0252-1.1666.0789Zm2.4793 2.0988c-1.2309.3117-4.2151.7455-7.4219 1.4388-1.0067.2255-3.7651.8667-5.1176 2.0126.2169.179.3894.2783.5741.3751.1396.0733.2865.1457.4651.2499.555-.3654 1.3192-.7121 2.4483-1.0083 1.781-.4729 3.1653-.7007 4.7335-.9587l.4684-.0773c1.7517-.2653 5.063-.9587 6.8831-1.6178.4187-.1416.811-.3174 1.145-.5217.1518-.0928.2914-.1912.4159-.2946-.1217-.1367-1.3009-.7088-1.3359-.6559-.7259.3459-1.7667.6917-3.258 1.0579Zm1.2312 2.3592c-3.7105 1.0051-6.4005 1.1418-9.4531 1.8921-.3515.0887-.7084.1913-1.0571.3085-.2539.0846-.5038.1774-.7438.2791.57.2954 1.195.5566 1.8184.8 1.2484-.3646 1.8408-.5209 3.641-.8155l.9997-.1798c.9534-.1742 2.2848-.4208 3.3358-.634 2.76-.5924 6.8001-1.8766 5.7251-3.5416-.0537.0455-.1074.087-.1611.1285-.068.0538-.1355.1075-.2031.1669-.8158.6209-2.1167 1.1263-3.9018 1.5958ZM11.2089 23.208c.12-.1204.2775-.2254.3992-.3296-.2792-.144-.4704-.2661-.6897-.4061l-.1262-.0805c-.1391.3157.1408.6583.4167.8162Zm3.2243 1.0067c-.5025-.2254-1.0392-.4492-1.5601-.6926-.2425.1563-.4667.3109-.6408.4672.4158.2433.8158.4671 1.2325.6958.3064-.1888.6307-.3467.9684-.4704Zm-2.0268 1.6146c.0501-.175.1384-.3125.26-.4859-.1371-.0732-.2738-.1456-.4105-.2213-.1587-.0887-.3166-.1807-.4745-.284-.0191.3312.1908.6258.625.9912Z"/>
</svg>