<svg xmlns="http://www.w3.org/2000/svg" viewBox="0 0 40 40">
	<path class="bg-logo" fill="#0059A5" d="M0 0h40v40H0z"/>
	<g fill="#fff">
		<path d="M30.6165 21.8755c1.3867-.7786 3.2618-1.9704 4.3276-3.0748-5.2419-1.564-19.6349.1357-30.94264 4.0074-.00183-.1277-.00183-.2554-.00061-.3826 3.34674-1.4154 7.33155-2.9953 10.85185-3.9628 3.8247-1.0512 7.7019-1.9484 11.6402-2.4428 2.1856-.2744 7.2851-.7688 9.0318.5501.4315.3777.3429.1607.4706 2.6579-.0079.1895.0489.4077-.0941.5641-.6912.7566-3.2104 1.5402-4.8416 2.1587l-.4431-.0752Z"/>
		<path d="M30.0255 21.786c-5.0256-.1387-12.2911 1.8879-16.3774 3.8473 0 .143-.0006.286.0006.4297 4.7494-1.7706 13.5233-3.6964 18.4767-2.166-1.8371 1.7993-4.253 2.5852-4.9357 3.0827 5.7694-2.3756 5.6184-2.0841 5.63-2.8486-.0849-1.5915-.0214-1.4638-.3117-1.7162-.5965-.4528-1.7088-.6075-2.4825-.6289ZM22.0619 13.013c-5.6166.1131-12.30092 2.3316-17.45671 4.5128-.00061.0807-.00061.162 0 .2427 5.65141-1.9484 16.35601-3.9793 20.62441-2.7124-.3368.3325-.7114.6228-1.0885.907.5745-.0905 1.1484-.1834 1.7253-.2561.0214-.0599.0636-.1161.0593-.184-.0367-.5384-.03-1.0805-.0899-1.6177-.1161-1.0384-4.1644-.907-3.7739-.8923Z"/>
	</g>
</svg>