<svg xmlns="http://www.w3.org/2000/svg" viewBox="0 0 40 40">
	<path class="bg-logo" fill="#00508F" d="M0 0h40v40H0z"/>
	<path fill="#fff" d="M15.2311 8h16.7687l-4.5288 4.5145H15.2311c-1.488 0-2.7023 1.2124-2.7023 2.6935v12.1979L8 31.9181V15.208C8 11.2426 11.2544 8 15.2311 8Z"/>
	<path fill="#50B848" d="M32.0001 24.7095c0 3.963-3.2544 7.208-7.2312 7.208H10.873c1.5096-1.5049 3.0192-3.0097 4.5288-4.5146h9.3647c1.488 0 2.7024-1.2124 2.7024-2.6934v-2.4938h-6.8591l4.5287-4.5145h6.8616v7.0083Zm-16.6319-7.0083h6.8975l-4.5311 4.5145h-2.3664v-4.5145Z"/>
</svg>