<svg xmlns="http://www.w3.org/2000/svg" data-name="Layer 1" viewBox="0 0 40 40">
	<path class="bg-logo" fill="#0066b7" d="M0 0h40v40H0V0Z"/>
	<path fill="#fff" d="M29.2 6H14.3c-.2 0-.4.2-.4.4v.4h-.4c-.2 0-.4.2-.4.4v21.7c0 .4.1.8.4 1.1.2.3.6.4.9.4s.7-.1 1-.4c.1-.1.2-.3.3-.5.2 0 .4-.2.6-.4.2-.3.3-.6.3-1v-3.9c0-2.1.9-4.3 2.5-6.5.3-.5.7-.9 1.1-1.3 1-1 2.2-1.9 3.5-2.7v16.8H11.8c-1.2 0-2.2-1-2.2-2.1V10.8c0-.4 0-.7.2-1 .3-.2.7-.3 1.1-.3h.9c.2 0 .4-.2.4-.4v-.4h.4c.2 0 .4-.2.4-.4V6.5c0-.2-.2-.4-.4-.4h-.9c-1.6 0-2.9.7-3.8 1.9-1.1.9-1.8 2.2-1.8 3.8v17.5c0 2.7 2.2 4.8 4.8 4.8h14.9c.2 0 .4-.2.4-.4v-.4h.4c.2 0 .4-.2.4-.4V11c0-.4-.1-.7-.3-1-.2-.3-.6-.5-1-.5-1.1 0-2.7.9-4.8 2.6-.9.7-1.7 1.5-2.4 2.3-.7.7-1.4 1.4-2 2.2V9.5h11.9c1.2 0 2.2 1 2.2 2.1v17.5c0 .4 0 .7-.2 1-.3.2-.7.3-1.1.3h-.9c-.2 0-.4.2-.4.4v.4h-.4c-.2 0-.4.2-.4.4v1.8c0 .2.2.4.4.4h.9c1.6 0 3-.8 3.8-1.9 1.1-.9 1.8-2.2 1.8-3.8V10.8c0-2.7-2.2-4.8-4.8-4.8Zm3.5 23.2c0 2.4-2 4.4-4.4 4.4h-.9v-1.8h.9c1.4 0 2.6-1.2 2.6-2.6V11.7c0-1.4-1.2-2.6-2.6-2.6H15.1v10.2c1.2-2.1 2.8-4 5.1-5.9 2.1-1.7 3.6-2.5 4.6-2.5s.5 0 .7.3c.2.2.2.4.2.7v21.7H10.8c-2.4 0-4.4-2-4.4-4.4V11.7c0-2.4 2-4.4 4.4-4.4h.9v1.8h-.9c-1.4 0-2.6 1.2-2.6 2.6v17.5c0 1.4 1.2 2.6 2.6 2.6H24V12.9c-2.5 1.4-4.5 3.2-6.1 5.3-1.8 2.3-2.6 4.6-2.6 6.8v3.9c0 .3 0 .6-.2.7-.2.2-.4.3-.6.3s-.5 0-.6-.3c-.2-.2-.3-.4-.3-.7V7.3h14.9c2.4 0 4.4 2 4.4 4.4v17.5Z"/>
</svg>