<svg xmlns="http://www.w3.org/2000/svg" viewBox="0 0 40 40">
	<path class="bg-logo" fill="#7399C6" d="M0 0h40v40H0z"/>
	<path fill="#fff" d="m6.57064 16.4571.70914.4432v2.1274c-.17729.0886-.35457.0886-.44321.0886-.97507 0-1.241-.7977-1.241-2.7479 0-1.8615.44321-2.9252 1.241-2.9252.44321 0 .70914.2659.97506.8864l.26593.7978h.44322v-1.9501C7.90028 13 7.36842 13 7.10249 13 5.06371 13 4 14.241 4 16.3684c0 1.9502.79778 3.1025 2.74792 3.1025.44322 0 1.15236 0 1.8615-.1773v-3.1025H6.65928l-.08864.266Zm-.17729 5.4958c-.44321-.2659-.70914-.6205-.70914-.9751 0-.4432.35457-.7091.88643-.7091.44321 0 .70914.2659.97507.9751l.26592.7091h.44322v-1.9501c-.6205-.0887-.97507-.0887-1.32964-.0887-1.41829 0-2.30471.7092-2.30471 1.7729 0 .7091.35457 1.3296 1.06371 1.6842l.88643.5318c.53185.266.79778.7092.79778 1.1524 0 .6205-.44321 1.0637-.97507 1.0637-.53185 0-.79778-.3546-1.241-1.5956l-.17728-.5318h-.53186v2.3933c.53186.0887 1.15236.1773 1.59557.1773 1.50693 0 2.39335-.7091 2.39335-1.9501 0-.7978-.35457-1.3297-1.06371-2.1274l-.97507-.5319Zm6.20495 1.1524c0-.8865-.6205-1.4183-1.6842-1.4183-.5318 0-1.06368.0886-1.59554.2659v1.5069h.53186l.26588-.7091c.1773-.5319.3546-.7091.7092-.7091s.5318.1772.5318.7091v.6205l-.6205.2659c-1.24095.5319-1.68417.9751-1.68417 1.7729s.44321 1.241 1.15237 1.241c.5318 0 .9751-.3546 1.0637-.7092l.0886.6205h1.4183v-.1773l-.1773-.2659v-3.0138Zm-1.241 2.1274c0 .4432-.1772.7978-.5318.7978-.2659 0-.4432-.266-.4432-.8865 0-.7091.2659-1.0637.7978-1.3296l.1772-.0886v1.5069Zm-.0886-10.7258c-1.0637 0-1.95014.8865-1.95014 2.482 0 1.5956.88644 2.482 1.95014 2.482 1.0637 0 1.9501-.8864 1.9501-2.482 0-1.5955-.8864-2.482-1.9501-2.482Zm-.0886 4.6094c-.4433 0-.6205-.4432-.6205-2.1274 0-1.6842.1772-2.1274.6205-2.1274.4432 0 .6205.4432.6205 2.1274 0 1.7729-.0887 2.1274-.6205 2.1274Zm2.1274 5.1413c0 1.5069.6205 2.3934 1.7728 2.3934.7978 0 1.241-.3546 1.507-1.1524l-.266-.1773c-.2659.6205-.4432.7978-.8864.9751-.6205 0-.7978-.5319-.7978-1.9501 0-1.7729.3546-2.2161.7092-2.2161.2659 0 .4432.0886.6205.7978l.1772.6205h.4433v-1.5956c-.4433-.0886-.8865-.1773-1.241-.1773-1.3297 0-2.0388.7978-2.0388 2.482Zm2.1274-4.964-.1773-.2659v-5.6731l-1.4183.0886v.0887l.1773.3545v5.1413l-.1773.2659v.0887h1.6842l-.0886-.0887Zm5.4958 6.8255v-3.0138c0-.9751-.4432-1.4183-1.2409-1.4183-.3546 0-.8865.1773-1.0638.6205V20.446l-1.5069.0886v.1773l.1773.2659v5.1413l-.1773.2659v.1773h1.6842v-.1773l-.1773-.2659v-3.1025c0-.4432.266-.7978.6205-.7978.266 0 .4433.1773.4433.5319v3.3684l-.1773.2659v.1773h1.6842v-.1773l-.266-.2659Zm-2.1274-7.3573.0887.7091h1.3296v-.1773l-.1773-.2659v-5.6731l-1.5069.0886v.1773l.1773.2659v1.3297c-.0887-.3546-.4432-.6205-.8864-.6205-1.0638 0-1.6843.7978-1.6843 2.3933 0 1.5956.6205 2.482 1.6843 2.482.5318 0 .7977-.1773.975-.7091Zm-1.3296-1.7729c0-1.5955.1773-2.0388.6205-2.0388.5318 0 .6205.6205.6205 2.0388 0 1.4183-.0887 2.1274-.6205 2.1274-.4432 0-.6205-.5318-.6205-2.1274Zm9.3075-1.0637c0-.9751-.4432-1.4183-1.1524-1.4183-.6205 0-1.0637.266-1.241.7092-.1773-.4432-.5318-.7092-1.0637-.7092s-.9751.266-1.1524.7092l-.0886-.5319h-.0886l-1.3297.1773v.0886l.1773.266v3.8116l-.1773.2659v.0887h1.6842v-.1773l-.1773-.2659v-3.1025c0-.4432.266-.7978.6205-.7978.266 0 .4433.1773.4433.5318v3.4571l-.1773.2659v.0887h1.6842v-.1773l-.1773-.2659v-3.1025c0-.4432.1773-.7978.5319-.7978.2659 0 .4432.1773.4432.5318v3.4571l-.1773.2659v.1773h1.6842v-.1773l-.1773-.2659-.0886-3.1025ZM23.59 23.2825c-.4432-.2659-.6205-.4432-.6205-.7091 0-.3546.1773-.5318.6205-.5318.4432 0 .6205.1772.7978.6204l.1773.4433h.3546v-1.3297c-.4432-.0886-.7978-.1773-1.1524-.1773-1.1523 0-1.7728.4433-1.7728 1.3297 0 .5318.2659.975.7977 1.241l.7978.4432c.4432.2659.6205.5318.6205.8864 0 .4432-.2659.7092-.7091.7092-.5319 0-.7092-.266-1.0637-1.1524l-.1773-.3546h-.4432v1.6842c.6205.0887 1.0637.1773 1.4183.1773 1.241 0 1.7728-.6205 1.7728-1.5069 0-.6205-.2659-.9751-.6205-1.3296l-.7978-.4433Zm7.5347-7.2686c0-.8865-.6205-1.4183-1.6843-1.4183-.5318 0-1.0637.0886-1.5955.2659v1.5069h.4432l.2659-.7091c.1773-.5319.3546-.7092.7092-.7092.3545 0 .5318.1773.5318.7092v.6205l-.6205.2659c-1.241.5319-1.6842.9751-1.6842 1.7729 0 .7977.4432 1.241 1.1524 1.241.5318 0 .975-.266 1.1523-.7092l.0887.6205h1.4182v-.1773l-.1772-.2659v-3.0138Zm-1.241 2.1274c0 .4432-.1773.7978-.5319.7978-.2659 0-.4432-.266-.4432-.8865 0-.7091.1773-1.0637.7978-1.3296l.1773-.0887v1.507Zm5.939.7978v-3.0139c0-.9751-.4432-1.4183-1.241-1.4183-.4432 0-.9751.1773-1.1523.7092l-.0887-.6205h-.0886l-1.3297.1773v.0886l.1773.2659v3.8117l-.1773.2659v.1773h1.6842v-.1773l-.1772-.2659v-3.1025c0-.4432.2659-.7978.6205-.7978.2659 0 .4432.1773.4432.5318v3.4571l-.1773.2659v.1773H36v-.1773l-.1773-.3545Z"/>
</svg>