<svg xmlns="http://www.w3.org/2000/svg" viewBox="0 0 40 40">
	<path class="bg-logo" fill="#D6B36A" d="M0 0h40v40H0z"/>
	<path fill="#fff" d="M8.08492 18.5131h5.89258c-.0154-1.2042.0548-1.661.4169-2.3152h5.8738c-.013.0148-5.3641 6.6329-6.6735 8.0621-1.3116 1.4314-1.7477 2.2927-2.6866 2.259-.94212-.0338-1.60505-1.0582-1.60505-2.6607H4c.13958.9387.79414 2.9825 3.1317 3.3818 2.33476.3986 4.4096.1733 4.5946.285.1851.1117 1.3305.2627 2.1383.1776.808-.0854 2.4452-.1095 3.9069-1.4465.7704.6069 1.7688 1.5929 4.7757 1.5929 3.003 0 6.048-1.6019 6.9483-3.8262.9003-2.2242-.5144-4.1848-2.4601-4.7011-1.9464-.5165-3.2044-.2785-3.2044-.2785l2.3694-2.8587h7.0591L36 12H18.3215c-1.6669.0015-3.6857.9554-4.6943 2.5211-2.8299.419-4.63796 1.6514-5.54228 3.992ZM24.769 13.2027h8.6066l-.8536 1.3116h-8.8417l1.0887-1.3116Zm-9.1091 1.3156c.4413-.4918 1.5756-1.3153 2.6953-1.3153h4.4006l-1.0983 1.3153h-5.9976Zm-3.0336 1.6907c-.2234.627-.289.9025-.3361 1.6499h-2.08c.259-.4775.8727-1.2924 2.4161-1.6499Zm5.6178 4.8732 4.0633-4.8856h1.6003l-3.8846 4.6575c-1.2776.0062-1.779.2281-1.779.2281ZM9.2034 26.67c-.64528-.0068-.97705-.0508-1.69382-.3429-.71646-.2922-1.48987-1.0665-1.66225-1.6564h1.88632c.04456.3194.18693.6437.49672 1.0925.31104.4509.62269.6171.97303.9068Zm3.8618.1433c1.3985-.9155 2.6882-2.557 3.3579-3.1661-.022.5577.112.9539.242 1.2494-.873.8313-2.2292 2.0872-3.5999 1.9167Zm5.5469-1.4874 2.6176-3.1506s.6004.272.9099.6685c.3105.3974.3798 1.012.3798 1.012h2.1565c-.0966-.4754-.4296-1.2054-.9511-1.6932-.5233-.4893-1.0318-.8294-1.6752-.9742l.8297-.9985s1.7173-.1145 2.5332.2968c.8681.4377 2.0194 1.4026 1.6752 3.0596-.3438 1.6542-2.66 2.7148-3.8794 2.8606-1.2163.1455-2.0005.1575-2.9398-.1869-.9412-.3445-1.6564-.8941-1.6564-.8941Zm.5555-3.4291L17.5694 23.81c-.0461.0542-.3249-.7053.2804-1.4493.6073-.7459 1.3178-.4639 1.3178-.4639Z"/>
</svg>