<svg xmlns="http://www.w3.org/2000/svg" viewBox="0 0 40 40">
	<path class="bg-logo" fill="url(#a)" d="M0 0h40v40H0z"/>
  	<linearGradient id="a" x1="2.41093" x2="38.2547" y1="8.59625" y2="31.022" gradientUnits="userSpaceOnUse">
  		<stop stop-color="#00D5D9"/>
  		<stop offset="1" stop-color="#F000EC"/>
  	</linearGradient>
	<path fill="#fff" d="M24.9588 31.9973h6.9643c.0841.0073.1686-.0083.2446-.0452.0759-.0368.1405-.0935.1869-.164.0463-.0706.0728-.1524.0764-.2367.0037-.0843-.0155-.1681-.0555-.2424l-3.9709-8.2604c-.2104-.4366-.5055-.6569-1.1211-.6569h-4.2324l8.9448-13.62966c.053-.07659.0828-.16679.0859-.25985.0032-.09307-.0205-.18507-.0682-.26506-.0476-.08-.1173-.1446-.2006-.18613-.0834-.04154-.1769-.05824-.2695-.04813H24.355c-.2143-.00664-.4264.04467-.614.14851-.1877.10384-.3438.25638-.4519.44152l-3.9454 6.0163-2.8714-5.9632c-.0756-.20054-.2138-.3714-.3941-.48724-.1804-.11584-.3932-.1705-.607-.15589H8.50689c-.0839-.00659-.16803.00946-.24361.04648-.07558.03702-.13983.09366-.18605.16399-.04622.07033-.07271.15178-.0767.23585-.00399.08406.01466.16765.054.24205l3.97087 8.26036c.2105.4347.5055.655 1.1211.655h4.2324L8.43412 31.2382c-.05224.0769-.08142.1671-.08408.26-.00267.093.02128.1847.06902.2645.04774.0798.11729.1443.20045.1858.08316.0416.17646.0585.26893.0488H16.075c.2143.0067.4265-.0446.6141-.1485.1876-.1038.3437-.2563.4519-.4415l3.9472-6.0183 2.8735 5.9652c.0754.1999.213.3703.3925.486.1795.1158.3915.1709.6046.1571Z"/>
</svg>