<svg xmlns="http://www.w3.org/2000/svg" viewBox="0 0 40 40">
	<path class="bg-logo" fill="#E1192F" d="M0 0h40v40H0z"/>
	<path fill="#fff" d="M15.8776 13c.6912 0 1.2889.1336 1.7998.3974.5076.2638.9016.6378 1.1788 1.1153.2772.4775.4141 1.0452.4141 1.6997 0 .6478-.1369 1.2155-.4141 1.6963-.2772.4842-.6712.8582-1.1788 1.122-.5109.2638-1.1086.3974-1.7998.3974-.6913 0-1.2923-.1336-1.8033-.3974-.5109-.2671-.9049-.6411-1.1787-1.122-.2738-.4808-.4108-1.0485-.4108-1.6963 0-.6545.137-1.2222.4108-1.6997.2738-.4775.6678-.8515 1.1787-1.1153.511-.2638 1.112-.3974 1.8033-.3974Zm.975 4.9321c.2638-.1503.4642-.3706.5944-.6578.1302-.2905.197-.6412.2004-1.0586 0-.4174-.0668-.768-.197-1.0552-.1303-.2872-.3306-.5076-.5944-.6578-.2672-.1503-.5911-.2271-.9784-.2271-.3874 0-.708.0735-.9684.2237-.2605.1503-.4575.3707-.5911.6579-.1336.2905-.2003.6411-.2003 1.0585s.0667.7714.2003 1.0586c.1336.2905.3273.5075.5877.6578.2571.1503.5811.2237.9684.2237.3874 0 .7146-.0734.9784-.2237Zm-4.5748-4.8455h-1.7497l-1.31237 2.0136-1.38246-2.0136H6.01002l2.18055 3.0288L6 19.3378h1.7598l1.33237-2.0737 1.40923 2.0737h1.8199l-2.214-3.1323 2.1705-3.1189Zm-2.68807 9.9985c.41077 0 .77137.0801 1.08527.2404.3105.1603.5543.3874.7313.6779.177.2905.2638.6378.2638 1.0351 0 .4008-.0868.748-.2638 1.0419-.177.2939-.4174.5243-.728.6879-.3105.1636-.6745.2504-1.09859.2504H6v-6.2511h5.2059v1.2723H7.54609v1.0452h2.04364Zm-.2037 2.6948c.23041 0 .41073-.0635.53428-.187.12359-.1236.18699-.3039.18699-.5443 0-.1603-.0267-.2939-.0835-.4008-.05673-.1068-.14021-.1903-.25041-.2504-.1102-.0601-.23709-.0902-.38736-.0902H7.54609v1.4727h1.83994Zm2.59787 1.2388 2.7081-6.2511h1.6163l2.7114 6.2511h-1.6696l-.5076-1.2555h-2.7482l-.5109 1.2555h-1.5995Zm3.4929-4.6249-.8749 2.1372h1.7431l-.8682-2.1372Zm9.0294.7647h-2.9819v-2.3909h-1.5895v6.2511h1.5895v-2.5745h2.9819v2.5745h1.5829v-6.2511h-1.5829v2.3909Zm6.3647.531 3.0688 3.3292h-2.027l-2.5979-2.8183v2.8183h-1.5461v-6.2511h1.5461v2.6781l2.5979-2.6781h1.9134l-2.9552 2.9219Zm-8.2312-7.6209-1.5227-2.982h-1.7832l2.4544 4.5648-.8582 1.6864h1.7064l3.1623-6.2512H24.109l-1.4693 2.982Zm7.6604.7213 1.9935-3.7033H34v6.2512h-1.4392v-4.0706l-1.5895 2.9653h-1.3758l-1.6229-2.9453v4.0506h-1.4392v-6.2512h1.7331l2.0336 3.7033Z"/>
</svg>