<svg xmlns="http://www.w3.org/2000/svg" viewBox="0 0 40 40">
	<path class="bg-logo" fill="#0B60AE" d="M0 0h40v40H0z"/>
	<path fill="#fff" d="M18.6088 6.43535c-2.5652 1.73905-4.0868 4.47805-4.739 7.34755l1.9565 1.9999C16.348 12.3047 18.2175 9.43522 20 8.43526c.1739.08696.7826.47824 1.2173.95649.087 0 .1305-.08696.2174-.08696.6956-.30433 1.3913-.60867 2.1738-.82605-.8695-.99996-1.3912-1.43472-2.1303-1.99992-.8695-.60867-1.9999-.65214-2.8694-.04347ZM9.39174 11.3482c-.56519 3.0433.30434 6.0867 1.86946 8.6083h2.7825c-2.0868-2.7825-2.7825-6.1736-2.2607-8.1735.2173-.087.8695-.2174 1.5216-.174 0-.0869.0435-.1739.087-.2173.2608-.6957.5217-1.3913.9565-2.13038-1.3043-.13043-2 0-2.913.08695-1.0434.1739-1.86945.95653-2.04336 1.99993ZM20 11.2612c2.5216-1.56512 5.5215-2.39117 8.5649-1.82598 1.0434.17391 1.826 1.04348 1.9999 2.08688.1304.913.2174 1.6086.0869 2.9129-.6956-.4348-1.4347-.6956-2.1303-.9565-.087 0-.1739-.0434-.2174-.0869 0-.6522-.087-1.3478-.1739-1.5652-1.9564-.5217-5.3476.1739-8.1736 2.2608v-2.7825L20 11.2612Zm13.5647 7.3041c-1.7391-2.5651-4.5216-4.0868-7.391-4.739l-1.9565 1.9565c3.4781.5217 6.3476 2.3912 7.3475 4.1737-.0869.1739-.4782.7826-.9564 1.2174 0 .0869.0869.1304.0869.2173.3043.6957.6087 1.3913.8261 2.1739.9999-.8696 1.4347-1.3913 1.9999-2.1304.6086-.8695.6521-1.9999.0435-2.8694Zm-4.8259 1.3912c1.5651 2.5217 2.3912 5.5215 1.826 8.5649-.1739 1.0434-1 1.826-2.0869 1.9999-.913.1304-1.6086.2174-2.9129.087.4348-.6957.6956-1.4348.9565-2.1304 0-.0869.0434-.1739.0869-.2174.6522 0 1.3478-.0869 1.5217-.1739.5217-1.9564-.1739-5.3476-2.2608-8.1736h2.7825l.087.0435Zm-7.3041 13.5212c2.5651-1.7391 4.0868-4.4781 4.739-7.3475l-1.9565-1.9999c-.5217 3.4781-2.4347 6.3475-4.1737 7.3475-.1739-.087-.7826-.4783-1.2174-.9565-.0869 0-.1304.087-.2173.087-.6957.3043-1.3913.6086-2.1739.826.8696 1 1.3913 1.4347 2.1304 1.9999.8695.6087 1.9999.6522 2.8694.0435ZM20 28.6953c-2.5216 1.5651-5.5215 2.3912-8.5649 1.826-1.0434-.1739-1.82597-1-1.99988-2.0869-.13043-.913-.21738-1.6086-.08695-2.9129.69563.4348 1.43473.6956 2.13033.9565.087 0 .1739.0435.2174.0869 0 .6522.087 1.3478.1739 1.5217 1.9999.5217 5.3476-.1739 8.1736-2.2608v2.7825l-.0435.087ZM6.47882 21.3912c1.73906 2.5652 4.47808 4.0868 7.34748 4.739l1.9565-1.9565C12.3047 23.652 9.43522 21.7391 8.43526 20c.08696-.1739.47824-.7826.95648-1.2173 0-.087-.08695-.1305-.08695-.2174-.30433-.6956-.60867-1.3913-.82605-2.1738-.99996.8695-1.43472 1.3912-1.99992 2.1303-.60867.8695-.65214 1.9999-.04347 2.8694h.04347Z"/>
</svg>