<svg xmlns="http://www.w3.org/2000/svg" viewBox="0 0 40 40">
	<path class="bg-logo" fill="#CF0106" d="M0 0h40v40H0z"/>
	<path fill="#fff" d="M4 20c0-8.8 7.2-16 16-16 8.96 0 16.16 7.2 16 16 0 8.8-7.2 16-16 16S4 28.8 4 20Zm3.12 0c0 7.2 5.84 12.88 12.88 12.88 7.2 0 12.88-5.68 12.88-12.88 0-7.2-5.84-12.88-12.88-12.88-7.2 0-12.88 5.84-12.88 12.88Zm9.2-1.36h-5.28V11.6h7.84v2.32h-5.44v2.48h5.44v7.04h-5.44V26h5.44v2.32h-7.84v-7.2h5.28v-2.48Zm10.16-4.72H21.2V11.6h7.84v7.04H23.6v2.48h5.44v7.2H21.2V26h5.28v-2.56H21.2V16.4h5.28v-2.48Z"/>
</svg>