<svg xmlns="http://www.w3.org/2000/svg" viewBox="0 0 40 40">
	<path class="bg-logo" fill="#173A79" d="M0 0h40v40H0z"/>
	<path fill="#fff" d="M26.4857 25.4803c-1.1214-.3633-1.989-1.1986-2.5445-2.2348-.6548 1.141-1.8376 2.0323-3.1323 2.2884-.3018.0599-.6028.0874-.8983.0874-.3531 0-.6974-.0417-1.03-.1189-.68 1.0433-1.5925 1.925-2.6626 2.5744 1.104.5807 2.36.9117 3.6918.9117 1.2962 0 2.5373-.3058 3.6839-.9078 1.1686-.6139 2.1591-1.5161 2.892-2.6004Zm3.8084-11.8965-.3097-.0701s1.3743-1.6107 1.539-1.8101c-.1829-.1922-2.383-2.48138-2.5965-2.7036-.1852.18676-3.7572 3.8265-5.2662 5.3608-.3034.3569-.9149 1.0299-2.1403 2.3388-.9865 1.2568-1.4034 2.8738-1.4034 4.501 0 1.4153.3783 2.7454 1.0284 3.8967 1.1197-.3436 2.0685-1.1505 2.5815-2.2214l.0433-.0953c-.1805-.4941-.286-1.0268-.286-1.58 0-2.5216 2.0519-4.5696 4.5743-4.5696 2.5216 0 4.5712 2.048 4.5712 4.5696 0 2.5217-2.0496 4.5728-4.5712 4.5728-.4287 0-.8416-.063-1.2332-.1733-.6785 1.0267-1.5784 1.8943-2.6327 2.5302 1.1434.6407 2.4648 1.0095 3.8667 1.0095 4.3773 0 7.9407-3.5618 7.9407-7.9392 0-3.4995-2.3467-6.6357-5.7059-7.6168Zm-11.7767 11.839c-.9898-.3215-1.8227-.963-2.3948-1.8156-.078-.1166-.1521-.2364-.2175-.3538-.5831 1.0189-1.5366 1.7722-2.6516 2.1158-.1127.0347-.2301.0638-.3428.0906-.0252.0039-.0496.0087-.0733.0118-.3002.0631-.602.0914-.8951.0914-2.52163 0-4.57359-2.048-4.57359-4.568 0-2.5193 2.05196-4.5712 4.57359-4.5712.3246 0 .6501.0402.9732.1103.4026-.5926.8943-1.115 1.4215-1.5957.0394-.0363.0812-.0733.1237-.1072.0134-.0102.026-.022.041-.0347.3491-.2986.7218-.576 1.1198-.8203-1.1324-.5933-2.3924-.918-3.6792-.918C7.56492 13.0582 4 16.6192 4 20.9958c0 4.3765 3.56492 7.9367 7.9423 7.9367 1.26 0 2.4759-.2687 3.587-.8644.0323-.0173.0662-.0276.0969-.0449.0859-.041.1647-.0914.2482-.1387 1.0638-.6005 1.959-1.4555 2.643-2.4617Zm-3.5358-10.5892c-1.8534 1.4286-3.011 3.7028-3.011 6.2165 0 1.4681.4004 2.8392 1.0962 4.0212 1.1473-.3183 2.122-1.1182 2.6579-2.1867-.2467-.5642-.3869-1.1796-.3869-1.8345 0-2.5184 2.0527-4.5696 4.5728-4.5696.3096 0 .9905.0946 1.2292.13.8164-.8699 2.0236-2.1772 2.3924-2.6122-1.1158-.5745-2.36-.8857-3.6216-.8857-1.2868 0-2.5035.3112-3.5807.8581l.0283.0134-.271.1426c-.3901.2073-.7589.4398-1.1056.7069Z"/>
</svg>