<svg xmlns="http://www.w3.org/2000/svg" viewBox="0 0 40 40">
	<path class="bg-logo" fill="#106E53" d="M0 0h40v40H0z"/>
	<path fill="#B91C6B" d="m10.8347 10.77 2.665 2.665c1.755-1.69 4.095-2.73 6.565-2.73 2.47 0 4.81.975 6.565 2.73l2.665-2.665c-2.47-2.405-5.85-3.77-9.23-3.77-3.445 0-6.76 1.365-9.23 3.77Z"/>
	<g fill="#fff">
		<path d="M16.9451 24.6177c.91.585 2.015.91 3.055.91 1.495 0 2.86-.585 3.965-1.625 1.04-1.04 1.625-2.47 1.625-3.9 0-1.105-.325-2.21-.91-3.12-.585-.91-1.495-1.625-2.47-2.015-.975-.39-2.145-.52-3.185-.325s-2.08.715-2.86 1.495c-.78.78-1.365 1.755-1.56 2.86-.195 1.04-.13 2.21.325 3.185.39 1.04 1.04 1.885 2.015 2.535Z"/>
		<path d="M28.58 23.575c-.455 1.105-1.105 2.21-2.015 3.055-.845.845-1.885 1.495-2.99 1.95-1.105.455-2.34.715-3.51.715s-2.405-.26-3.51-.715c-1.105-.455-2.145-1.105-2.99-1.95-.845-.845-1.56-1.95-2.015-3.055-.455-1.105-.78-2.34-.78-3.575H7c0 3.445 1.43 6.76 3.77 9.165C13.24 31.635 16.555 33 20 33c3.445 0 6.76-1.365 9.23-3.835C31.7 26.695 33 23.445 33 20h-3.705c.065 1.17-.26 2.47-.715 3.575Z"/>
	</g>
</svg>