<svg xmlns="http://www.w3.org/2000/svg" viewBox="0 0 40 40">
	<path class="bg-logo" fill="#006" d="M0 0h40v40H0z"/>
	<path fill="#fff" d="m9.34808 15.2487.15369-1.1507.22782-1.0704.38151-.5367.2263-1.1461.4587-.9175.6094-.2325.9893-.0757s1.601.2294 1.8311.2294c.2271 0 2.0396.0796 2.0396.0796l1.4481-.2325.7622.4587.3792 1.3778.9144 1.9161s.2279.9152.3831 1.146c.1505.2294.9144 3.1996 1.1422 3.3511.2286.1529 2.6528 1.4557 2.6528 1.4557l2.0582-.3838.3035-1.2241.9924-.3838 1.5206.9924s1.523 3.9062 1.679 4.1364c.1452.2309.2124 2.5084.2124 2.5084v1.3021l1.0666 1.1476s-.5284-.7545.23 0c1.1438 1.1484 9.0536-5.8764-.0818-13.285l-1.2805-.0749-1.3283.0155-1.2326-.7237-.2487-.4086-.0146-1.3159 1.2974-.2881.5777-.1823.4827.1314 1.1214 1.3004.7584.9222.7877.7275 2.9548 3.6328.8626 2.4745-.617 4.3125-2.2127 3.0305-3.5579.9275-4.2338.4989H13.8714l-8.27358-.2788-.34367-1.265.64409-.9786 1.79558-.8888 1.04028.3977.25023-.4147L10.23 22.8164l-.77458-2.757.03399-.6488.44021-.9955-.58154-3.1664Z"/>
	<path fill="#FF6200" d="M30.983 13.8446c-.1158-.2263-.3312-.3383-.4942-.3383-.1684-.2255-.3938-.5073-.617-.5073.1675 0 .3938-.1715.6741-.1715.1059.2803.3206.4533.3785.6788l.0586.3383ZM37 22.3614c0-2.4875-1.011-4.9743-2.815-6.7668-.7877-.7885-1.6867-1.1855-2.3624-1.9763-.3352-.3375-.6172-.6773-.8396-1.1306-.2834-.2819-.4363-.4511-.773-.6225l.1668.509h-.0556c-.2811 0-.563-.1684-.7885-.3376l.2247-.2293c-.0525-.1097-.2247-.1097-.3375-.1097-.8966-.1706-1.743.339-2.642.5082v.112c.5638.1707.6735.848 1.011 1.1893h.3374c.1151 0 .2827.112.3978.112 0-.112-.1143-.3375-.1143-.3375.1143-.1158.2247-.1158.3383 0 .2818.1683.6733-.1158.9576.3375-.3383 0-.6758 0-.9576.1707 0 .0556.1691.1684.1127.2803-.2811-.1119-.6186 0-.7337-.2247l-.0533.0556c.3632.4136.8276.7257 1.3477.9059.7306.1143 1.3353-.2294 2.0674-.0579 2.5857 1.2441 4.3905 4.1642 4.3905 7.1051 0 4.1657-2.3616 5.8601-3.8839 5.8601-.2826 0-.7275-.1691-.9066-.3398.1784-.6225.2896-1.2998.2896-2.3169 0-2.4126-.9438-5.0098-2.2366-6.3691-.617-.6194-1.2928-1.129-2.0241-1.129-.3384 0-.6774 0-.9021.2834-.2803.2262-.4495.6758-.3939.9584-.4479.3398-1.1808.509-1.7438.509-.6194 0-1.3894-.2256-2.1207-.7916v-.8457c-.1699-.0556-.7299-.3939-.4495-.6635.1676.058.2796.1514.3367.2109-.0563-.3785-.0563-.8325-.3367-1.1693-.1128 0-.2804 0-.4495-.115-.1691-.1707-.3382-.3986-.3382-.6804.1691.2818.4471.1722.6177.339-.2803-.6742-.1706-.9592-.6749-1.9763-.1151-.5105-.6186-.7908-.9584-1.1306-.1699-.1135-.2247-.2819-.4495-.2819-.2232-.058-.2232-.3414-.2232-.5082.0548 0 .2232.1097.3352.1668-.3352-.7908-.5615-1.6357-1.2928-2.07357l-.1645.09576h-.9005c.1074-.09576.3336-.14982.5043-.26566-.1715-.16914-.2796-.22706-.6217-.22706-.1684.05792-.3931.22706-.6163.22706h-.0564c0-.16914-.0517-.39465.2796-.50663-.3321-.05638-.6032-.05638-.9955 0-.0556.27957-.2263.45102-.2263.67653-.1691.09576-.2224.26567-.3939.43787 0-.34211.1715-.66338.2248-1.00242-.2248.05793-.5036.22551-.6186.22551C14.042 9.22628 13.4782 9 13.2527 9c.3367.22628.1668.62093.2247.88659l-.2247-.09653c-.0579-.22474-.3367-.39619-.3938-.67576-.3375 0-.5623.11198-.8465.27957v.05792c.1707 0 .3954.16914.509.33827-.3939 0-.6742-.16913-1.0681-.16913l-.0587-.05561c-.1653.05561-.3367.22474-.4464.32127-.3946.34211-.675.62401-.8472 1.12911.1135 0 .2827 0 .3398.0579-.2263.0572-.3398.339-.56376.3985v.8449c-.16759.1707-.39387.339-.50586.682-.27956.9004-.33749 1.9206-.33749 3.0505-.05638.2232-.15678.2795-.2649.3367v.8912s.32283-.3259.49195-.4371v.7175c-.22628 0-.38305.2834-.38305.451 0 .2255.04865.4534.04865.6781 0 .1127 0 .1127.05175.2255 0-.1128.11353-.2255.28265-.2796 0 0 .11122-.1158.33519-.1158-.16991.1699-.22398.3954-.33519.6232l-.16912.1692-.05716.1691c.22628 1.187.56147 2.2065 1.01244 3.3348-.45097.7344-.95451 2.1315-1.27733 3.4861-.28189-.2796-.67731-.3383-1.01325-.3383-.33826.0587-.67267.1715-.9005.509-.33595-.1707-.78696-.1143-1.0117.1143-.50585.4494-.50585.6773-.50585 1.0163-.11276.1127-.33827.3954-.33827.79 0 .5067.05561.8496.33827 1.2999h8.53383c-.054-.1684-.1683-.3963-.2803-.5075-.1707-.339-.0541-.7916-.0541-1.1298.1669-.3391.3352-.6804.5615-.9592.0548-.1723 0-.1723.0548-.2279l.3938-.1143c.2272 0 .3947-.1675.6766-.1675.1691.2818.1691-.1707.4502-.285.6024-.1089 1.2195 0 1.5608.4525 0 .1143.0526.1143.0526.1707h-.2788c-.3398-.1707-.733-.3382-1.1122-.1707 0 .1707-.0548.1707-.0548.3422v.2788c.2232 0 .3777.2278.6016.3405.112-.1691.4496-.3405.6728-.3405.2833 0 .6772.1722.6772.6232v.6201c.2248.2279.5051.282.7901.3986-.1143.2262-.285.2262-.4495.2262h-.4541c-.0556-.0571-.1668-.0571-.1668-.2262-.1707.2262-.2796.4494-.3977.6765h6.5668c-.1112-.2271-.2248-.3962-.2734-.5074-.1043-.339-.1043-.7916-.1043-1.1299l.604-.8495c.3374 0 .6224-.1104 1.2387-.1707.1105-.1676 0-.2819.5043-.2819.3915 0 .6758.1143.787.1707.0571.112.0571.112 0 .2271-.1112.1127-.3367-.1151-.5051-.0548-.1128.1104.0572.1675.0572.2795.112.1128-.5052-.1127-.5052-.1127s-.1127.339-.1721.4525l.3382.3391c.1135.1676-.1668.3382-.1668.5081-.1128-.0571-.3383-.2293-.3383-.1707-.1135.4527 0 .8496-.0571 1.2999h.6209l.0548-.9585c.0541-.5668.7299-1.5832 1.1252-1.5832.2248 0 .3932.1128.5608.2248.1127.227.3961.3397.3961.4517 0 .1144-.1706.1707-.4525.1707-.1112 0-.1112-.1707-.2788-.2819l-.3375.3383s.3939.3382.3939.563c0 .2819-.0556.3985-.2232.5668l-.3406-.6788c-.1691 0-.4487.3391-.4487.5097 0 .2263-.1151.339-.1151.6766h3.4892c.3955.0008.7329-.1128 1.1191-.3376h.6649c1.404 0 2.5332-.3969 3.5433-1.4132 1.3507-1.3554 2.1393-3.5024 2.1385-5.5776Zm-12.1891 5.1829-.5646.0556c.2263.1128.2263.3955.2263.4526 0 .1676-.1135.3382-.2263.451-.1112-.1128-.1112-.2834-.2232-.451-.1135 0-.1691.2788-.1691.3954 0 .5082.2232.9051.3923 1.2419h.5059c-.0548-.4503-.1684-.8472-.1684-1.3585 0-.2788.1684-.6186.2271-.787Zm-7.411.6758c0-.2247-.166-.2803-.3907-.2803-.1158 0-.3954.1699-.3954.2803 0 .2278-.1144 1.4697-.1144 1.4697h.394c.1691-.5075.5065-1.1863.5065-1.4697Zm-1.2325-.0564c-.0487 0 .0517.1128-.4943-.451-.1128 0-.2811.339-.2811.451 0 .451.112 1.0758.2811 1.5261h.4448c0-.5075.0495-1.0751.0495-1.5261Zm-.9445 1.5261c-.2819-.5075-.3391-1.2998-.3391-1.4697 0-.2803 0-.6758.1723-.9592l-.6187.112c-.1691.2278-.2278.3405-.2278.4525l.2819-.112c.0548 0 .1135.112.166.2264-.0517.2803-.3892.2803-.5043.3923-.1698.5653.3383.9082.3939 1.3585h.6758v-.0008Zm14.0858-17.033h-.6185c-.1113-.1691-.2804 0-.3908 0-.1152 0-.1731 0-.3963-.1691.3383 0 .5059-.1707.7871-.2819.2262.1684.4509.2248.6185.451Zm-1.35 6.4826c-.3946-.1127-.6162-.2826-.9568-.2826-.1105 0-.6155.1699-.6734.2826-.1692-.227.1112-.6772.3382-.7908.2247-.1143.3352-.0564.4495 0 0 .3383.3931.1684.6163.2842.1158.1668.1706.2796.2262.5066Zm-.0556.8496c-.3382 0-.3938-.0572-.6185-.0572-.2827 0-.6179.1144-.7886.3947-.1104-.2255-.0571-.3375 0-.5075.1707-.1676.4526-.3976.6758-.3976.3931-.0008.7313.2818.7313.5676Zm1.2936 1.2403c-.4494-.2811-1.1237-.4472-1.5191-.4472-.2254 0-.8989.2773-1.1252.5043l-.1127-.5043c.339-.0603.339-.3406.5629-.3406.1708 0 .394-.0602.5631-.0602.1683 0 .2834-.1104.3382-.1104.2803 0 .1699.2826.3383.2826.1676 0 .2819-.1127.3923-.1127.2819 0 .5066.451.5622.7885Zm.1707 1.2449c-.3954 0-.7885-.1128-.8433-.2811-.1143-.1151 0-.3398-.2819-.3398-.1143 0-.2827.1676-.2827.1676-.1112.0571-.4494-.1676-.4494 0 0 .2834-.2248.3977-.5075.3977-.1104 0-.2232 0-.3351-.0564v-.5653c.7283 0 .6757-.2278 1.0109-.2278.2255 0 .3954.1159.5638.1159.2819 0 .112-.1159.3923-.1159.2819 0 .3954.2278.563.285-.0008.166.1699.3923.1699.6201Zm-.5074 1.2403c-.1706-.054-.5614-.1096-.5614-.2803 0-.2248-.1151-.2819-.3962-.2819-.2255 0-.3939.0571-.7306.1675 0 0-.1707-.2216-.2232-.4502.1104-.0563.5607-.1698.7839-.1698.3946 0 .7908 0 .7908.1698.0008.2278.3367.2819.3367.8449Zm-9.8282-8.8535-.1128.5652-.4502.1112.2819-1.2402c.1127.2239.2811.451.2811.5638Zm10.8963 10.8159c0 .3413 0 .4541-.1707.736l-.3375-.5082c.1128-.1706.1128-.3953.2843-.6773l.2239.4495Zm-1.3492-.7329c-.3954 0-.1699-.7754-1.014-.7754-.1691 0-.2796.2688-.5051.3244l.0572-.38c0-.1158.0556-.3413.2788-.4525.4525 0 .3375.1691.6772.2865.1692.0494.2804.166.5059.166v.831Zm-3.5448-3.2042c-.5028-.2835-.7885-.7916-1.238-1.299.4495 0 .5622.451.9005.5066.1135.112.2248.1707.3375.3383v.4541Zm-4.823-4.182c-.3367 0-.5066-.1707-.6765-.492 0-.1706-.0548-.3969 0-.6796.1151.2256.1151.3375.227.4541.2255-.1166.2255.1676.2827.2255.0571.1529.1668.3213.1668.492Zm9.3223 9.6452c-.1127.1699-.1127.1699-.166.3405 0-.2834-.3383-.4509-.5637-.9607l.2262-.3938c.1676.1088.3916.2788.3916.5614 0 0-.0533.1707 0 .2819-.0008.061.1119.061.1119.1707Zm-1.1244-1.638c0 .227-.0556.2818-.1104.5652-.3962-.0571-.3962-.5081-.4511-.5652-.2834-.3384-.6757-.0556-.9561-.0556-.1127-.3391.0572-.3391.0572-.5654.1676 0 .336-.1127.5028 0 .2803-.1127.451.1691.7313.1691.0595.1143.1707.3963.2263.4519Zm-2.8683-2.3c0 .2264-.1128.3955-.0541.6233-.1127-.3406-.3382-.6789-.4517-1.0187 0-.0563-.0564-.0563.0563-.1127l.2819.0556c.0541.1127.1676.2849.1676.4525Zm-4.9326-4.4654c-.0603.2271-.2819 0-.3383 0h-.5074c-.0579-.1127-.112-.1668-.112-.2826.2247-.0541.3946-.1684.5614-.0541.1144.1699.224.3367.3963.3367Zm1.2357 1.3006c-.1692.1707-.6172.2255-.9539-.054l.4495-.2279c.1676.1707.3924.2279.5044.2819Zm2.9084 3.2189c0 .3406-.0548.736-.0548 1.1175-.1661 0-.1661-.098-.1661-.3244-.0587-.3413-.173-.6216-.285-.9607-.112-.4525-.3923-.848-.6185-1.3561-.0556-.2279-.3229-.3391-.5476-.509.278 0 .5476 0 .7738.2255 0 .1128.0549.1723.2232.3406.3954 0 .2811.5082.6202.7345-.1661.1691-.2248.2811-.3383.3923.1722.1181.3383.1722.3931.3398Zm-2.1756-1.6937c0 .1708-.1127.2279-.2263.3384 0 0-.2277-.2788-.2277-.3955 0-.2247 0-.3382.0602-.5081.1675.1691.3938.3961.3938.5652Zm5.2717 5.125-.115.1707c-.2804-.1707-.448-.224-.7839-.224 0-.2286-.1707-.5074-.2819-.5074-.3383 0-.2804.2232-.5638.2232l.5051-.5082c.0587-.1127.0587-.1127.1706-.1127.1708.1127.2232.1676.394.1676 0 .1135 0 .1714-.0556.3382.1683.1144.2788-.054.393.1144.1669.0563.3375.1135.3375.3382Zm-4.5434-3.8815c0 .1112-.166.2285-.2247.2285 0 0-.2788-.2849-.3344-.5684-.058-.2247.166-.6201.166-.6201l.1684.112c.0587.0571 0 .2262.0587.3977.166.1104.2703.3383.166.4503Zm-4.3859-5.4818c-.6757-.3792-1.4055-.6634-2.2504-.7182 0 .1714 0 .339-.0548.3969.6726.3213 1.2959.6055 1.855 1.1121v.509c-.5599-.5646-1.1824-1.1291-1.9145-1.2998-.0556.1135-.2788.2286-.336.4541-.3776-.2834-.8271-.563-1.2781-.6225-.1676 0-.2834-.6069-.2834-.6069.2834-.1128.451-.2828.5653-.5623h.2247c.1691 0 .1691-.1151.1691-.2842 0-.3383-.7329-.3383-1.0704-.3383-.3938 0-.6749 0-.8989.1676-.1112 0-.0579.1707-.0579.2842l.1691.1714c.1128 0 .2248-.115.3391-.115-.0556.3382.0548.5074.3938.6773l-.0541.5476c-.6788 0-1.1298.2865-1.6341.512-.1684-.1135-.2804-.2842-.3947-.4526-.6742.2271-1.8542 1.1299-1.8542 1.1299v-.3985c.5043-.4503 1.18-.6735 1.6874-.943v-.3961c-.2278-.1128-.4494 0-.6742 0-.4907.0607-.9569.2495-1.3515.5475 0-.1514-.0571-.3777-.0571-.3777.6209-.3398 1.4086-.6224 2.14-.5089v-.2232c-.0572-.1151-.0572-.2842-.1699-.2842-.3375-.3383-.6742-.8457-.6742-1.1886l.2247-.112c-.1128-.3374-.2247-1.1839 0-1.4657-.3383-.1715-.6758-.4557-.7885-.682-.1128-.2811-.2247-.4526-.2819-.79.1699-.3391.2819-.4534.4495-.7924.1127 0 .2819-.0541.3367-.1684.2842-.0556.4533-.3375.7885-.1676.2247 0 .451.112.6194.1676 0 .1143 0 .1684.1135.285.3367 0 .3367.3367.5028.6209.1699.0549.3382.0549.4518.0549.3382.1135.6186.1135.7328.2803.4504-.2803.899-.3352 1.4041-.2803.0556-.17.1583-.3962.2101-.6758.0563.1645.0563 0 .1676 0 .227-.1707.505-.4526.8997-.3406.227.1699.6232.0556.848.3406.1629.2224.2772.5614.4479.8464-.1707.3383 0 .7901-.339.9592l-.3336.3422c-.1167 0-.1167.1088-.2851.1088.1684.3985.0556.9616-.1112 1.3569.1112-.0556.2788-.0556.2788-.2239v.3946c0 .285-.1683.5623-.3931.7908-.1127.3384-.3907.7886-.7862.8457v.1135c.8419 0 1.5207.2256 2.3053.6217v.38h.0023Zm2.3076 3.5611-.2818.112c-.6186 0-.8998-.1676-1.1824-.3955.2255 0 .5074-.2834.5074-.2834.278.2834.6742.5105.9568.5669Zm-1.5762-1.2975c-.339 0-.7306.1676-.899-.173.1128-.0571.2248-.2239.336-.3383l.563.5113Zm4.5959 5.2933c0 .2834-.3374.6217-.4494.8487.1127-.2826.1127-.8487 0-.8487-.1135-.0556-.3383 0-.3383-.1127 0-.1691.0579-.3939.0579-.492 0-.2263-.1575-.3421-.1575-.451 0-.3406.3823-.3969.4958-.6233.0548.2264.0548.4495.0548.7314 0 .1158.1684.4402 0 .7229-.0007.1683.3367.0541.3367.2247Zm-1.2773-.6054c0 .3228-.2224.6046-.2804.9452 0-.3398-.0556-.6224-.2826-.8472 0-.098.1714-.098.0586-.2688 0 0-.3413-.1722-.3413-.3976 0-.224.2278-.3924.3413-.5623 0-.0572.224.1104.224.451 0 .0541 0 .2278-.0556.3367-.0564.173.336.173.336.343Zm-4.6701-4.0129c-.2803.0549-.5051-.2255-.7854-.3375-.1136-.3383-.1136-.6796-.2271-.8488.2271.1692.7306.1692.6233.6781 0 .1715.2247.2827.3892.5082Zm1.5762 1.5832c-.2247 0-.6201 0-.8433-.1699-.3375-.1715-.448-.2827-.6201-.4533.2262-.1676.5073-.1676.6201-.2263.2232.2263.448.6248.8433.8495Zm-9.4907-8.7439-.39229.1158.05409-.2818c.112-.1715.1691-.3422.3382-.5113v.6773Zm7.2403 7.8944c-.2248.0587-.6155.1699-.7321-.112-.3376-.5066-.1684-.9592 0-1.3562.1166.3398.1699.6789.224.9623.0586.2286.3968.3383.5081.5059Zm-1.6157-3.1085c-.0556.3405-.1676.8487-.505 1.075 0-.2263-.112-.339-.2263-.5089l-.0541.1699c0 .1127-.1142.339-.1142.5669-.1105.0548-.3352.1668-.5623.0548v-.1692c-.0549-.1135-.0549-.3398-.0549-.4525l-.054-.0541c-.1692.0541-.1692.1668-.1692.2796-.0586.1135-.1706.227-.1706.3962-.2263 0-.339-.0548-.5082-.1692v-.5066c0-.1158 0-.1158-.0525-.1158l-.2834.2826c-.2248-.1668-.2811-.6217-.2811-.9043.8997-.5082 2.0265-.3375 2.7014-.0541.1097.0541.2217.0541.3344.1097Zm2.91 4.5781h-.1683c-.6171.2279-1.1268-.1676-1.6349-.5081.2834-.112.6772-.1676 1.0178-.1676l.1646.339c.1706.0541.4532.2247.6208.3367Zm-8.4218-8.5716-.2819.339c.0579.5638-.1691.9584-.1691 1.4682l-.28038-.9044c.05716-.2256.112-.4518.28038-.7337l.451-.1691Zm5.779 7.3283c-.2672-.1676-.7722-.2263-.6595-.5639.1105-.2803.2796-.3405.3923-.4509.0556.3938.1089.6773.2672 1.0148Zm5.2308 5.8076h-.0587c-.1097-.1722-.1661-.3421-.2803-.3421.1714-.6202-.1676-1.1283-.2781-1.6381v-.1691c.1699.2834.6179.5654.5592.848.0579.5058.0579.9584.0579 1.3013Zm-1.2959-2.1493c-.2788 0-.5066 0-.6765-.2818-.0548 0-.1684-.1692-.224-.0572-.2788.2263-.5599-.1676-.8989-.112-.1645.1764-.3815.2949-.6187.3383v-.0572c0-.1691.1159-.3367.3406-.4348.3352.0981.6171-.6248.9522-.2263.1684.0556.3376.0556.448.0556.3985.17.5105.4928.6773.7754Zm-5.1566-4.5634c0 .4015-.0563.9051-.4503 1.0757l-.1127-.5637c.166-.1105.3375-.2279.563-.512Zm1.8945 2.4883c-.1105.1112-.4496.227-.6728.227-.3228-.2834-.549-.6217-.8842-1.0758l.8842.1722c.1668.112.5052.5067.6728.6766Zm3.3772 3.2042c-.2248-.1691-.5638-.1691-.6758-.451-.2262-.0571-.3954-.0571-.6742-.0571-.2248.0571-.5066.0571-.7321.0571-.0571 0 0-.0571-.1097-.1127-.3406.1127-.6789.1127-1.0178.4502l.2833-.6758c.2248 0 .3939-.1135.5098-.1135.2247-.0572.3892-.0572.5599-.0572v.0572c.6178 0 1.3507-.0572 1.8002.4526l.0564.4502Zm-6.4548-4.7874c-.3352-.3383-.6187-.6218-.6187-.96.1668 0 .3367 0 .5051.1151.0008.281.1136.5074.1136.8449Zm-1.0689-1.6358-.1684.7307c-.1676-.3352-.3375-.6774-.3938-1.072l.5622.3413Zm8.0867 7.611c-.0916.2205-.167.4473-.2255.6789-.1159-.3391-.2279-.8465-.6194-.8465-.0572-.2279-.1128-.3421-.3398-.5097l-.4495-.0572c.0556.2248.3954.2248.1692.5669.2262.1676.3961.1676.5081.451.1127.1691 0 .3955.0548.5082l-.3374.1676c0-.2803.054-.848-.3391-.9592-.3352.112-.3916-.3391-.6163-.5097-.1112 0-.1112-.2819-.2826-.1676-.2773.1676-.6187 0-.8982.1676l.2795-.4526c.2248-.1676.4503-.1089.6758-.1676l.4502-.0572c.4472 0 .8426.2248 1.2921.3955.2247.1143.3367.2819.3367.5637.1159.0603.3414.0603.3414.2279Zm-4.5018-2.6567h-.1119c-.0564 0-.4348-.1676-.5491-.2656-.0533-.1708-.0533-.3422-.0533-.3422h.4448l.2695.6078Zm-4.3155-4.0515c-.3383-.1119-.7314-.4525-.9013-.7344-.102-.2121-.159-.4429-.1676-.6781.2271 0 .3924.1692.4518.2812v.0571c.2796.3398.5584.6217.6171 1.0742Zm2.7015 1.9763c-.0572.3399-.2271.4511-.5051.8504-.1707.1127-.5097.1683-.848.3359.0571-.1676.2271-.2232.3383-.3955.1128-.1675.339-.4502.3946-.62.2842-.1708.3931-.1708.6202-.1708Zm4.1456 5.5235-.1683.1676c-.1676-.1676-.0564-.6202-.339-.6758-.2773 0-.502-.2834-.6187-.3405l.2248-.1105s.1158-.0603.2255 0c.1128.1105.2255.1676.2255.2788.1143.1722.2819 0 .3946.1722.0556.1684.1128.3947.0556.5082Zm-5.1604-5.9745c-.1692.339-.3383.6789-.6727.7909-.1691 0-.451.1112-.7885 0 .1699-.1128.3375-.1699.563-.3399l.4464-.451h.4518Zm1.1252 2.5834c-.2263.1691-.3923.1691-.6742.112l-.3382-.4348h.8448l.1676.3228Zm-4.1055-4.2808c-.2811.2833-.563.4015-.6773.7375 0-.1707-.0548-.3367-.10966-.4542.05406-.2231.22316-.3382.28116-.3938.1691.0556.2811.0556.5058.1105Zm.6765.8487c0 .227-.1143.5097-.3969.7908l-.2248.1722c0-.339.1699-.6248.1699-.9066.1676-.0564.3375-.1676.4518-.0564Zm.7862.6796-.2278.848c-.2788.2232-.6727.1127-1.0102.1127.4518-.1127.7886-.6225 1.0102-.9599.0587-.0564.1151-.0008.2278-.0008Zm.2811 2.8645c0 .1706-.0548.8495-.0548.8495-.1143-.3955-.3954-.7924-.7329-.7924-.1676-.1683-.3383-.3375-.3939-.4912-.1699-.1707-.3375 0-.5622-.1707-.224 0-.5043 0-.7321.1707v-.1707l.3954-.4541c.3923.0564.8989 0 1.014.2819.2788.1722.5584.3422.6171.4402v.1676c.1112.0572.3359.1151.4494.1692Zm-.2811 1.7523-.3931.3954c-.1135-.1707 0-.4526-.1683-.6233 0-.1088.112-.1676.054-.2247-.054-.1135-.7306-.339-.7306-.339-.2247-.1691-.5058-.3391-.729-.5638-.2278-.0572-.39696.0571-.67885.1127v-.1127c.11431-.2263.11431-.5081.45105-.5081.1691 0 .3954 0 .5081.1683.224 0 .3368.2263.5036.2826.2819.2819.5081.397.6757.5098 0 .1691.0572.2818.1692.3374.3382-.0007.2255.3375.3382.5654Zm-.8456.8464-.1653.5669-.397-1.0179c-.4494-.4526-.95607-.5082-1.23872-.7314-.22397-.0587-.22397.1089-.33518 0 0-.1159.00001-.285.16527-.4556h.33981l.33592.1706c.173.1691.5646.1691.5646.5082 0 .0556-.0572.1128.1127.3383l.5623.1706.0556.4503Zm-1.57242.5669c0 .451-.73136 1.0742-.73136 1.0742 0-.2818.16912-.6232.16912-.9607 0 0-.22628-.2279-.43711-.2279-.16373.1144-.16373.2279-.22242.3955-.16682.3405-.50895.6773-.56223 1.0194l-.05484-.0572c0-.5668.05484-1.5268.39156-1.9214.2842-.3391.50199-.3391.82712-.3955l.28266.0557-.22474.339c.22474.112.56224.3398.56224.6789Zm-1.95313-.3391c0 .2247-.05561.4526-.16991.6202-.05483-.2247-.22242-.5067-.50585-.5067-.22474.4511-.28343.6187-.05561 1.3006-.16914.1691-.28266.2262-.50585.339-.11276-.2278-.11275-.6216-.11275-.8495 0-.3946.0556-.7901.16913-1.1314.16681-.1691.28033-.451.44947-.6217h.61784c-.27803 0-.27803.2819-.27803.4526.16681.0579.39156.115.39156.3969Zm-1.46427.6202c-.05638 0-.2232-.1676-.3931-.1676-.16913.3382 0 .563 0 .9607 0 .1691-.05561.339-.05561.339-.11275 0-.33826-.2278-.39464-.4556v-.902l.50586-.6232c.33749.2285.45178.5676.33749.8487ZM18.017 12.4877c.1166-.2819.1166-.7901-.1081-1.0751-.1166-.2247-.3962-.339-.6758-.5614l-.3953.2224c-.2248.1143-.3391.339-.3391.624.3931.1668.7877.6194.9561.9592h.1691c.1683-.1691.2858 0 .3931-.1691Zm-1.8991.3398c0-.1707-.0533-.1707-.1097-.1707-.2833 0-.2833-.451-.505-.339-.1127 0-.2263-.112-.3954 0 0 .0572 0 .0572.1143.0572.2803 0 .1676.3961.3938.4532h.502v-.0007Zm.8913.6788s.1074 0 0-.0571l-1.2249-.1684c-.1112.1684-.3938.1684-.3938.3375h-.1128c.1143.4511.1143.9584.1143 1.4705.2247.0548.4494.1668.4494.5058.2232.1151.4348.1707.658.3398.1144-.0556.17-.2247.2248-.397-.2248-.2818-.7152-.1104-.7152-.617l-.3359-.1143c0-.3414 0-.6788-.0564-.9067l.0564-.0548c0 .0548.0533.1128.1683.2248.2232 0 .4348.0579.658-.112.1144-.058.1144-.3391.2248-.3391.1143 0 .2248 0 .285-.112Zm-2.7996-1.1893c-.112-.112-.451.0572-.6202.1128-.2232.0571-.3946.2262-.3946.3969h.6225c.0541-.1699.2803-.3961.3923-.5097Zm-1.238-.6194c-.0548-.5668-.6742-.624-.9584-.8464h-.2216c-.4511.1645-.5623.6209-.621 1.0132.1699.5098.5082.1715.7322.5098.2255-.1684.7862-.5669 1.0688-.6766Zm3.3046 5.1976v-.2834h-.549l-.0541.0571.6031.2263Zm-2.5176-3.2769c0-.112-.1112-.224-.2804-.3375h-1.3499c0 .2255.1691.3375.3382.3375 0 .2263.1676.2811.2217.3391.1707.112.2278.112.3969 0 .1676.112.2217-.1128.2804 0 0 .339 0 .5073-.0587.79-.0541.3954-.3908.3406-.6727.5074 0 .1714-.1676.4541 0 .6233.1684-.1128.2819-.1692.5607-.2843 0-.1676.1714-.339.3946-.451 0-.5074.1692-1.0155.1692-1.5245Zm-.451 2.9935c-.1128-.2256-.3908 0-.6727-.1128 0 .1128 0 .2247.1684.3413.1683-.1714.4494-.2285.5043-.2285"/>
</svg>