<svg xmlns="http://www.w3.org/2000/svg" viewBox="0 0 40 40">
	<path class="bg-logo" fill="#215E36" d="M0 0h40v40H0z"/>
	<g fill="#fff">
		<path d="M7.49604 19.611v-.0713s0-.0712.07123-.0712l.07123-.0712h.14247s.07123 0 .07123.0712l.07123.0712v.2137c.2137 3.1343 1.42466 6.1261 3.49037 8.4767 2.0658 2.3507 4.9863 4.1315 8.7617 5.3425 1.852-.5699 3.7041-1.4247 5.3425-2.4931 1.3534-.8548 2.5643-1.9233 3.6328-3.1343h-3.2054c-.0713 0-.0713 0-.1425-.0712l-.0712-.0713-3.1343-5.6986-4.8438 5.7699-.0713.0712h-2.0657l-.0712-.0712-4.2028-8.1206v-.1424c0-.0713.0712-.0713.0712-.1425h.1425c.0712.0712.1425.0712.1425.1425l4.1315 7.9068h1.6383l4.9151-5.9123.0712-.0713h.1425c.0712 0 .0712.0713.1425.0713l3.2767 5.9123h3.4904c.0712 0 .0712 0 .1425.0712l.0712.0713v.1424s0 .0713-.0712.0713c-1.1398 1.4246-2.4932 2.6356-3.9891 3.5616-1.7096 1.0685-3.5616 1.9233-5.4849 2.5644h-.1425c-3.8465-1.211-6.8383-3.1342-8.9753-5.4849-2.137-2.4219-3.4192-5.485-3.6329-8.7617l.07124-.1424Zm2.92056-2.422s0 .0713.0712.0713v.0712s0 .0712-.0712.0712l-.0712.0713H10.2029s-.0712 0-.0712-.0713l-.0713-.0712-1.06847-2.137H7.8522v2.0658s0 .0712-.07123.0712l-.07123.0712H7.56727s-.07123 0-.07123-.0712c0 0 0-.0712-.07124-.0712v-2.2795c0-.0712 0-.1424.07124-.1424.07123-.0713.07123-.0713.14246-.0713h1.56713l.07123.0713c0 .1424 1.13974 2.3506 1.13974 2.3506Zm6.5534 2.7781v-.1424s.0712-.0713.0712-.1425h.1425s.0712.0712.1425.0712l1.0685 1.8521 2.3507-2.6356-1.9946-3.8466h-1.6383c-.0713 0-.1425 0-.1425-.0712-.0712-.0713-.0712-.0713-.0712-.1425v-2.4219c0-.0713 0-.1425.0712-.1425.0712-.0712.0712-.0712.1425-.0712h5.3424l.0713.0712 1.7808 2.9918c1.3534-1.4247 2.4219-2.2795 3.6329-2.7069 1.2109-.4274 2.5644-.4274 4.5589 0v-1.1397c-.6411-.2849-1.2822-.7123-1.7096-1.2109-.4986-.49868-.8548-1.13977-1.0685-1.78087H10.7015c-.2137.71233-.5698 1.28219-1.06848 1.85207-.49863.4986-1.06849.926-1.78082 1.2109v.7836h5.4137l.0712.0712 2.7069 4.8439v.1424l-.0712.0713-.0713.0712h-.1424s-.0713 0-.0713-.0712l-.0712-.0713-2.6356-4.6301H7.6385c-.07123 0-.14246 0-.14246-.0712 0-.0713-.07124-.1425-.07124-.1425v-1.2822c0-.0712.07124-.0712.07124-.0712.71233-.285 1.35342-.6411 1.78082-1.21098.49863-.49863.85484-1.06849 1.06854-1.78082 0-.07123.0712-.07123.0712-.14247.0712 0 .0712-.07123.1425-.07123h19.2328c.0713 0 .0713 0 .1425.07123.0712 0 .0712.07124.0712.14247.2137.71233.5699 1.28219.9973 1.78082.4986.49868 1.0685.92598 1.7096 1.13968.0712 0 .0712.0713.0712.0713s.0712.0712.0712.1424c0 .4987.0713 1.1398 0 1.5672 0 .0712-.0712.0712-.0712.1424-.0712 0-.0712.0713-.1425 0-2.0657-.4274-3.4191-.4986-4.6301-.0712-1.211.4274-2.2082 1.3534-3.6329 2.8493l-.0712.0712c-.0712 0-.1425.0713-.1425 0-.0712 0-.0712-.0712-.1424-.0712l-1.9233-3.063h-4.9151v1.9233h1.7808l.0713.0712 2.137 4.0603c0 .0712.0712.0712.0712.1425 0 .0712 0 .0712-.0712.1424l-2.6357 2.9918-.0712.0712h-.1425s-.0712-.0712-.1424-.0712l-1.211-2.137Zm15.8849-.7835v.0712s0 .0712-.0712.0712l-.0712.0713H32.57s-.0712 0-.0712-.0713c0 0 0-.0712-.0713-.0712v-.0712c.0713-1.4959 0-2.9206 0-4.4165l-1.1397 1.8521c0 .0712-.0712.0712-.1424.0712h-.1425l-.2849-.0712c-.8548-.2137-1.7809-.1425-2.6357.2137-.926.3561-1.7095.9972-2.3506 1.7096.6411.9972 1.0684 1.7808 1.5671 2.4931 1.5671 2.6356 2.4219 3.9891 3.4192 4.5589.2137-.4274.4986-.926.6411-1.4246.2137-.5699.3561-1.1398.4986-1.7096 0-.0713.0712-.0713.0712-.0713h.1425c.0712 0 .0712.0713.1424.0713 0 .0712.0713.0712.0713.1424-.1425.5699-.3562 1.211-.5699 1.7809-.2137.5698-.4986 1.1397-.7835 1.6383 0 .0713-.0713.0713-.1425.0713h-.1425c-1.2109-.5699-2.0657-1.9946-3.7753-4.8439-.4986-.7835-.9973-1.6383-1.5671-2.6356 0 0-.0713-.0712-.0713-.1425 0-.0712 0-.0712.0713-.1424.6411-.9261 1.5671-1.5672 2.5643-1.9946.9261-.4274 1.9946-.4986 2.9918-.2137l.1425.0713 1.4959-2.4219c0-.0713.0712-.0713.0712-.0713h.1425c.0712 0 .0712.0713.1424.0713 0 .0712.0713.0712.0713.1424l-.0713 5.2713c.0713-.0713 0 0 0 0Z"/>
		<path d="M6.07123 18.3983H19.7479l-.3561-.5699H6l.07123.5699Zm13.74797.2137H7.56712v.4274l11.96708.3562.4274-.4987-.1424-.2849Zm7.1945.6411 1.1397 1.9233c1.4247.0712 2.9918.6411 4.8439 1.0685.1424-.7836.0712-1.6384-.0713-2.4219-1.9945-.3562-3.989-.5699-5.9123-.5699Zm.8548-.4986c.4274.0712.3562-.8548-.3562-.8548-.2137 0-.4274.0712-.5698.1424-.2137.1425-.285.285-.4274.4274l.2137.285c.1424-.1425.2849-.1425.4274-.2137.1424 0 .3561 0 .4986.0712 0 .0712.2137.1425.2137.1425ZM11.2 17.5435h3.8466l-2.4219-4.274H7.99452v1.0685h1.06849c.49863 0 .56987 0 .78357.4987L11.2 17.5435c.0712 0 0 0 0 0Z"/>
		<path d="m16.1864 19.5395-3.9178-.0712 3.9178 7.5507h1.0685l5.4849-6.5534 3.6329 6.5534h3.9178v-.4986c-.3562-.0713-1.6384-1.211-2.0658-1.8521-1.1397-1.852-2.2082-3.7041-3.3479-5.6274l-.2137-.4274.2849-.4274c1.211-1.7096 3.7041-2.9918 5.8411-2.4931l1.2822-2.0658-.4986-.1425c-3.2767-.5698-4.3452.2137-6.8384 2.7781l-.6411.7124-2.2082-3.6329h-4.0603v.926h.7836c.5698 0 .7123.0712 1.0685.6411l2.2794 4.3452-3.7041 4.1315-2.0657-3.8466Z"/>
	</g>
</svg>