<svg xmlns="http://www.w3.org/2000/svg" viewBox="0 0 40 40">
	<path class="bg-logo" fill="#E77128" d="M0 0h40v40H0z"/>
	<path fill="#fff" d="M26.6772 25.4762c-.1451.2016-.2822.4152-.4435.6088-1.5403 1.8589-3.5605 2.5766-5.9234 2.4758-1.1612-.0484-2.2902-.25-3.262-.9395-1.375-.9798-2.1452-2.3589-2.2258-4.0121-.1129-2.3266-.0847-4.6612-.1129-6.9918-.004-.3307 0-.6573 0-1.0081-.3266-.0564-.633-.0887-.9314-.1613-.9033-.2258-1.371-.8427-1.371-1.7742 0-.6249 0-1.254.004-1.879.0041-.5967.1734-.8064.7742-.7943 2.1936.0363 4.383.1048 6.5726.1572.3427.0081.5.2138.5282.5283.0201.258.0161.5201.0161.7822.008 2.9073.008 5.8145.0242 8.7217 0 .3266.0565.6613.133.9798.3468 1.4516 1.742 2.0645 3.1573 1.3629 1.4072-.6975 2.125-1.9072 2.3669-3.4152.0847-.5283.1048-1.0726.1089-1.613.012-2.1572.004-4.3185.008-6.4757 0-.7298.1654-.8871.8871-.8871 1.375 0 2.75-.004 4.1249.004.6251.0041.7259.1129.7299.742.0081 1.8468-.004 3.6894.0121 5.5362.0242 3.0282.0605 6.0564.0968 9.0846.004.3831.0524.7621.0484 1.1451-.0041.4154-.2299.6412-.6533.6412-1.0604 0-2.1249.0081-3.1854-.004-.5041-.0041-.8831-.2823-1.0403-.738-.1613-.4838-.2258-1.004-.3145-1.512-.0323-.1734-.0041-.3548-.0041-.5323-.0403-.0161-.0847-.0242-.125-.0322Zm-14.4917.2177c.004 1.7056-1.3629 3.0766-3.07663 3.0847-1.73788.012-3.1169-1.3912-3.10883-3.1613.00806-1.6694 1.39111-3.0524 3.05238-3.0524 1.77818-.0041 3.12898 1.3468 3.13308 3.129Z"/>
</svg>