<svg xmlns="http://www.w3.org/2000/svg" viewBox="0 0 40 40">
	<path class="bg-logo" fill="#00539B" d="M0 0h40v40H0z"/>
	<path fill="#fff" d="M20.2048 7C14.5499 7 10 11.6149 10 17.2698v13.3897h5.9799V17.2698c0-2.34 1.8849-4.2899 4.2899-4.2899 2.34 0 4.2899 1.8849 4.2899 4.2899v13.3897h5.9799V17.2698C30.4096 11.6149 25.8597 7 20.2048 7Z"/>
	<path fill="#F39A00" d="M20.2048 26.6953c1.755 0 3.185 1.43 3.185 3.12 0 1.7549-1.43 3.1849-3.12 3.1849-1.7549 0-3.1199-1.365-3.1849-3.1199-.065-1.755 1.365-3.185 3.1199-3.185Z"/>
</svg>