<svg xmlns="http://www.w3.org/2000/svg" viewBox="0 0 40 40">
	<path class="bg-logo" fill="#503629" d="M0 0h40v40H0z"/>
	<path fill="#fff" d="M12.3875 16h-3.675v.2625H9.85V22.3c0 1.75-.525 2.275-1.6625 2.275-.4375.0875-.7875-.2625-.875-.7v-.0875c0-.6125-.0875-1.05-.6125-1.05s-.7.6125-.7.7875c0 .875.35 1.4875 2.0125 1.4875 2.0125 0 3.0625-.6125 3.0625-2.8875v-5.8625H12.3L12.3875 16ZM17.2 21.075h.9625c2.7125 0 3.5-1.05 3.5-2.5375S21.1375 16 18.425 16h-3.5875v.2625h1.05v6.825c0 .2625 0 .525-.0875.875-.0875.175-.2625.35-.4375.4375-.175.0875-.4375.0875-.7.0875v.2625h3.7625v-.2625c-.2625 0-.525 0-.7-.0875-.175-.0875-.35-.175-.4375-.4375-.0875-.175-.0875-.35-.0875-.525V21.075Zm0-.35V16.35h.6125c2.1 0 2.625.875 2.625 2.275s-.875 2.1875-2.5375 2.1875l-.0875-.0875H17.2Zm15.75 3.2375c-.0875-.175-.0875-.4375-.0875-.6125v-7.0875h.9625V16H31.55l-2.7125 6.65s0 .0875-.0875.0875c0 0-.0875 0-.0875-.0875 0 0-2.8-6.65-2.8875-6.65h-2.5375v.2625h1.225V23.7c0 .175-.0875.2625-.175.4375s-.2625.2625-.4375.2625c-.175.0875-.35.0875-.525.0875v.2625h2.45v-.2625c-.175 0-.2625 0-.4375-.0875s-.35-.175-.4375-.2625c-.0875-.175-.175-.2625-.175-.4375v-6.475h.175s3.2375 7.4375 3.2375 7.525H28.4l3.0625-7.525h.0875v6.0375c0 .175 0 .4375-.0875.6125-.0875.175-.175.35-.35.4375-.175.0875-.4375.0875-.6125.0875v.2625H34V24.4c-.175 0-.4375-.0875-.6125-.0875-.175-.0875-.35-.2625-.4375-.35Z"/>
</svg>