<svg xmlns="http://www.w3.org/2000/svg" viewBox="0 0 40 40">
	<path class="bg-logo" fill="#768086" d="M0 0h40v40H0z"/>
	<path fill="#fff" d="M24.97 17.78h2.38v8.75h4.27v-8.75H34v-3.71h-9.03v3.71ZM9.01 22.75H6v3.78h4.27c.21 0 .42 0 .56-.07.63-.07 1.19-.42 1.68-.91.42-.49.7-1.12.7-1.75v-9.73h-4.2v8.68Zm15.4-.7c0-.35 0-.63-.07-.98h-1.33c0 .28.07.56.07.91s-.07.56-.07.84l-4.9-4.13c-.63-.56-.91-.91-.91-1.75 0-1.68 1.05-1.68 2.38-1.68 1.82 0 2.1.35 2.1 1.89v.7h1.4v-.7c0-2.66-1.26-3.15-3.5-3.15-2.45 0-3.78.49-3.78 2.94 0 1.4.28 1.75 1.12 2.45-1.54.42-2.52.42-2.52 3.43 0 3.92 1.96 3.85 4.76 3.85 2.03 0 3.92 0 4.62-1.61l1.82 1.54.77-.98-2.17-1.82c.21-.56.28-1.19.21-1.75Zm-5.11 3.29c-2.94 0-3.29-.21-3.29-2.66 0-2.03.21-2.17 2.03-2.66l4.9 4.06c-.42 1.47-2.31 1.26-3.64 1.26Z"/>
</svg>