<svg xmlns="http://www.w3.org/2000/svg" viewBox="0 0 40 40">
	<path class="bg-logo" fill="#00008b" d="M0 0h40v40H0V0Z"/>
	<g fill="#fff">
		<path d="M14.6 8v1.5h15.5c.6 0 1.3.3 1.4 1.2h.6V7.9H14.6Z"/>
		<path d="M29.8 13.2h.6v-2.8H11.6v1.5h16.8c.6 0 1.3.3 1.4 1.2Z"/>
		<path d="m23.9 29.8-5.8-10.6 6-5c.4-.4.7-.7 1.5-.8v-.6H21v.6c1.2 0 1.1.7.8 1l-7.1 5.9v-5.9c0-.2 0-.8.8-.8v-.8H8.4v.7c.8 0 .8.5.8.9v15.1c0 .3-.4.9-1.1.9v.7h7.5v-.8c-.9 0-.9-.6-.9-.9v-7.1l4.5 8.2h-.3v.6h6.3v-.6c-.4 0-.9-.2-1.2-.7Zm-13.3.2h-.9V13.8h.9v16.3Zm9.4.5-4.8-8.9.7-.6 5 9.5H20Z"/>
		<path d="M27.8 17.9h-7.2l-1.8 1.6h6.3c1.1 0 2.1 1 2.4 2.2-.7-.7-1.4-1.1-2.2-1.1h-5.9l.9 1.5h2.1c2.3 0 2.7 1.7 2.7 2.8s-.6 2.1-1.3 3l.2.4c1.1-.8 1.8-2.4 1.8-3.8 0-1.2-.8-2.7-2-2.9v-.2h1.1c1.5 0 2.2 2.1 2.1 3.3 0 2.4-1.7 3.5-2.7 4l.3.6c1.2-.4 2.2-.8 3.7-2.1 2-.7 3.5-2 3.4-4.5 0-2-1.1-4.6-3.8-4.6Zm.4 8.4c.4-.5.6-2.5.2-3.6 0-2-1.4-3.9-3.1-4v-.2H27c2.9 0 3.4 6.6 1.2 7.8Z"/>
	</g>
</svg>