<svg xmlns="http://www.w3.org/2000/svg" viewBox="0 0 40 40">
	<path class="bg-logo" fill="#609A42" d="M0 0h40v40H0z"/>
	<path fill="#fff" d="m20.3248 21.1447-9.3634 9.3633H7l11.3441-11.344 1.9807 1.9807ZM35 18.5038c0 1.7706-.6902 3.4212-1.9507 4.6816l-7.3226 7.3226-4.5916-4.5916-4.5617 4.5916H12.612l8.5531-8.553 4.5916 4.5916 5.3119-5.3419c1.5005-1.5005 1.5005-3.9314 0-5.4019-1.5005-1.5005-3.9014-1.5005-5.4019 0l-4.5016 4.5016-8.343-8.373V8l8.343 8.343 2.5209-2.5209c2.5809-2.5809 6.7824-2.5809 9.3633 0C34.3098 15.0525 35 16.7331 35 18.5038Z"/>
</svg>