<svg xmlns="http://www.w3.org/2000/svg" viewBox="0 0 40 40">
	<path class="bg-logo" fill="#008375" d="M0 0h40v40H0z"/>
	<g fill="#fff">
		<path d="M24.4345 24.4095c.1498 1.124.0749 2.248-.075 3.2222-.0749.7493-.3746 1.4986-.5245 2.2479-.6744 1.9483-1.5736 3.8216-2.9973 5.2453-.2997.2998-.5245.4496-.8992.3747-.0749 0-.1499-.0749-.1499-.1499-.0749-.1498 0-.3746 0-.6744.075-.2997.075-.4496.1499-.7493.6744-2.3978 1.1989-4.8706 1.124-7.4183 0-.5246-.0749-1.124-.3747-1.6486-.2997-.4496-.7493-.8991-1.2738-1.049-.3747-.0749-.6744 0-.8992.1499-.075.0749-.2998.0749-.3747.2997-.1498.1498-.2997.3746-.3746.6744-.2998.7493-.1499 1.4986-.075 2.248.075.5245 0 1.1989-.5245 1.5736-.3747.2997-.8992.2997-1.4987.0749-.4496-.1499-.8242-.5245-1.124-.8992-.8242-1.2739-.8242-3.1472-.3746-4.6458.0749-.2998.1498-.5246.3746-.8243.3747-.8243 1.0491-1.4987 1.7235-1.9483 1.6485-1.049 3.6717-1.049 5.4701 0 1.124.6744 1.8733 1.5736 2.3229 2.7726.2248.2997.2997.6744.3747 1.1239ZM35 12.72c0 .2998-.2997.5246-.4496.7494-1.124.8992-2.4728 1.5735-3.8216 2.0981-4.0463 1.6485-8.6922 2.248-13.0383 2.7725-2.6226.3747-5.0954.5245-7.71806.7493-.89919.075-1.94825-.4496-2.69758-.8992-.82426-.4496-1.57359-1.124-2.02319-2.0232-.37466-.7493-.37466-1.7234.29973-2.3978.4496-.4496 1.27386-.3747 1.94826-.3747.74933.075 1.49865.1499 2.09812.3747 1.19892.1499 2.32292.3747 3.52182.5245 6.744.8992 14.0125.5245 20.3817-1.9482.3747-.075.6744-.2998 1.0491-.3747.0749.1499.4496.3747.4496.7493Z"/>
		<path d="M16.4917 10.6226c0 1.4238 1.124 2.4728 2.6226 2.4728 1.4238 0 2.6227-1.124 2.6227-2.4728 0-.1498-.0749-.3746-.0749-.67435-.1499-.44959-.4496-.67439-.4496-1.19892C21.2125 8 20.3133 8 19.7138 8c-.5245 0-1.1989.07493-1.6485.37466-.3747.14987-.7493.4496-1.0491.8992-.3746.29973-.5245.82424-.5245 1.34874Z"/>
	</g>
</svg>