<svg xmlns="http://www.w3.org/2000/svg" viewBox="0 0 40 40">
	<path class="bg-logo" fill="#084E98" d="M0 0h40v40H0z"/>
	<path fill="#fff" d="M8 8h24v24H8V8Zm1.48823 1.43353H30.6681V30.9015H9.48823V9.43353Zm20.76587.5219H9.89618V30.3554H30.2541V9.95543Zm-18.03 4.30217h-1.698l-.03 14.2681h1.698v.9839H29.3v-18.54H12.2241v3.288Zm8.5018.7209h-1.362c-1.503 1.4148-2.9899 2.8402-4.4786 4.2675l-.0003.0002-.0007.0007-.0006.0006c-.7395.7089-1.4793 1.4182-2.2219 2.1269 2.22 2.204 4.4541 4.404 6.7021 6.6h1.362c-1.1179-1.1058-2.2387-2.2086-3.358-3.3099-1.1157-1.0977-2.2299-2.1939-3.338-3.2901 2.22-2.136 4.464-4.2779 6.696-6.3959Zm7.644 2.6701h-6.9481v1.524h.456c3.222 0 5.8621 1.9501 5.8621 4.35 0 2.4-2.6401 4.32-5.8621 4.302-.1518.0095-.3041.0095-.456 0v.114h6.9481v-10.29ZM17.978 15.0195h-6.636v12.8879h6.636c-2.1541-2.172-4.278-4.35-6.396-6.5279 2.118-2.118 4.2419-4.236 6.396-6.36Zm3.5221 5.5388c-.93-.0361-1.68 1.3979-1.68 3.12 0 1.2992.4485 3.1753 2.028 3.1753.93 0 1.668-1.386 1.668-3.126 0-1.3028-.4307-3.1693-2.016-3.1693Z"/>
</svg>