<svg xmlns="http://www.w3.org/2000/svg" viewBox="0 0 40 40">
	<path class="bg-logo" fill="#A0216D" d="M0 0h40v40H0z"/>
	<g fill="#fff">
		<path d="M25.219 10.889c0 .3513-.2864.6227-.6206.6227-.3501 0-.6206-.2874-.6206-.6227 0-.3513.2864-.6227.6206-.6227.3342-.016.6206.2714.6206.6227Z"/>
		<path d="m30.2793 8.941-6.7789-2.2674c-.0319-.57483-.2069-1.18159-.7798-1.50094-.6365-.35129-1.6867-.38322-4.5033 2.05981-1.8619 1.61272-3.8669 3.80033-5.4741 5.98783-5.49002 7.4408-6.25385 14.1472-2.0846 18.3626C13.4433 34.4092 18.456 35 22.1478 35c2.5143 0 4.4079-.2714 4.5988-.3034.3819-.0479.7002-.3034.8275-.6706l.9707-2.4909c.2069-.5429-.0477-1.1657-.6047-1.3892-.541-.2236-1.1617.0479-1.3685.6068l-.732 1.9001c-2.2596.2395-10.3116.8462-13.6852-2.5868-2.0846-2.1236-2.59384-4.9818-1.4958-8.5107 1.9732-6.3551 8.227-12.5185 10.6776-14.06735.8434-.62274 1.6391.01597.7161.94208l6.1901 2.07577c.0319 0 .0797.016.1115.0319.1273.0639.2227.2076.2227.3673v.0639c0 .0319-.0159.0798-.0318.1117-.2227.7186-.4615 1.2136-.5887 1.4052-.2547.3832-.9548.9101-1.6232 1.2135-1.0662.4631-2.2915.974-2.9121 2.1237-1.2889 2.3792-.0477 7.3451.8275 10.1713.0159.0479.0637.2076.0637.2236 0 .1756-.1433.3353-.3183.3353H21.4317l-.7161-3.928c-.1114-.5749-.6524-.9581-1.2253-.8623-.5729.1118-.9548.6706-.8434 1.2455l.8752 4.6945c.0955.5109.5252.8782 1.0344.8782h5.2195c.3501 0 .6683-.1757.8752-.4631.1909-.2874.2228-.5908.1272-.99-.1272-.511-.5091-1.6925-.7956-2.7464-.8115-2.8901-1.4004-6.2114-.7002-7.5207.2547-.479 1.0821-.8303 1.8778-1.1657.9388-.3991 1.8777-1.0698 2.4983-1.9001.4137-.5429.9707-2.1236 1.3367-3.5607.1114-.54293-.191-1.11776-.7161-1.2934Z"/>
	</g>
</svg>