<svg xmlns="http://www.w3.org/2000/svg" viewBox="0 0 40 40">
	<path class="bg-logo" fill="#366AF3" d="M0 0h40v40H0z"/>
	<path fill="#fff" d="M24.9236 30.1786h.0015c3.3707.2202 5.9393-.9221 7.7056-3.4269 2.9393-4.1663 1.4382-9.5776-2.8472-11.9484-.5908-.3268-1.2628-.5283-1.9348-.7299-.2891-.0867-.8299-.1578-1.1124-.2545-.295-.1008-.3306-.1266-.5618-.3371-.4809-.4419-.9446-1.0185-1.4225-1.429-3.3236-2.85171-8.1887-2.57531-11.2629.4022-.6619.6391-1.1907 1.4619-1.7054 2.2628-.1441.2242-.2961.6825-.4407.8988-.1873.2789-.4315.2709-.7281.4272-2.56624 1.355-4.38197 3.1685-4.7213 6.0989-.20449 1.7797.23146 3.5595 1.27191 5.0045 1.15056 1.5955 2.76704 2.5775 4.84939 3.0314h12.9087ZM12.8369 17.6014c.0526-.0505.0907-.1143.1106-.1846.2315-.8202.4944-1.6314.9708-2.3393 2.3955-3.5663 7.4989-4.0562 10.3438-.7079.3131.3686.6165.7551.9102 1.1596.0658.0903.1514.1646.2503.2171.0989.0526.2084.0821.3204.0863 1.4457.0494 2.6772.4224 3.6944 1.1191 3.1438 2.1528 3.5731 6.6202.9169 9.3842-1.6158 1.6809-3.591 1.8674-5.7888 1.8967-4.1543.0584-7.8734.0554-11.1573-.009-2.0674-.042-3.60973-.8173-4.62696-2.3259-1.5955-2.3663-1.04719-5.4472 1.22476-7.1326.7685-.5685 1.7281-.8359 2.6427-1.0606.0707-.0169.1357-.0525.1882-.1031Z"/>
</svg>