<svg xmlns="http://www.w3.org/2000/svg" viewBox="0 0 40 40">
	<path class="bg-logo" fill="#4E7BF9" d="M0 0h40v40H0z"/>
	<path fill="#fff" d="M30.6944 8.88867H9.30554c-2.07107 0-3.75 1.67893-3.75 3.75003v14.7222c0 2.0711 1.67893 3.75 3.75 3.75H30.6944c2.0711 0 3.75-1.6789 3.75-3.75V12.6387c0-2.0711-1.6789-3.75003-3.75-3.75003Z"/>
	<path fill="#222" d="M10 12.7773c-.46022 0-.83331.3731-.83331.8334 0 .4602.37309.8333.83331.8333h20c.4603 0 .8334-.3731.8334-.8333 0-.4603-.3731-.8334-.8334-.8334H10Zm-.83331 4.7223c0-.4603.37309-.8334.83331-.8334h6.1668c.809 0 1.5056.5711 1.6643 1.3644.2033 1.0168 1.1178 1.7606 2.1689 1.7606s1.9656-.7439 2.169-1.7607c.1587-.7932.8552-1.3643 1.6642-1.3643H30c.4603 0 .8334.3731.8334.8334 0 .4602-.3731.8333-.8334.8333h-5.9953l-.2014.0246c-.362 1.8096-1.9719 3.1004-3.8033 3.1004-1.822 0-3.4481-1.3252-3.8032-3.1004l-.2015-.0246H10c-.46022 0-.83331-.3731-.83331-.8333Z"/>
</svg>