<svg xmlns="http://www.w3.org/2000/svg" viewBox="0 0 40 40">
	<path class="bg-logo" fill="#196D1F" d="M0 0h40v40H0z"/>
	<path fill="#fff" d="M18.6799 19.7332 29.8722 7H12.5151c-1.9363 0-3.51272 1.57642-3.51272 3.5127V29.256c-.00547.1519 0 .2559.00137.2915l.00548.0807c.00273.0849.00684.1697.01642.2532l.00958.1505.01368-.0014C9.31028 31.7096 10.7635 33 12.5165 33h19.4179L18.6799 19.7332ZM10.847 29.646l-.0082-.1779v-.1533c.0096-.2299.0671-.7416.3626-1.1344.0384-.0479.3216-.3681.6432-.728l5.616-6.3371 10.0401 10.0483H12.5151c-.8703-.0014-1.5873-.6678-1.6681-1.5176Zm1.6681-20.80958h13.2956L16.7586 19.1379l-5.9184 6.6779V10.5127c0-.92365.7512-1.67628 1.6749-1.67628Z"/>
</svg>