<svg xmlns="http://www.w3.org/2000/svg" viewBox="0 0 40 40">
	<path class="bg-logo" fill="#273981" d="M0 0h40v40H0z"/>
	<path fill="#fff" d="M26.0753 9.50016 20.0503 6 14.025 9.50016 8 13.0002v13.9999l6.025 3.5L20.0503 34l6.025-3.4999 6.0254-3.5V13.0002l-6.0254-3.50004Zm-5.6639-.65231 9.3843 5.42275-.0106.0182h.0182v11.2168h-.7996V14.7564l-8.9978-5.1993.4055-.70925Zm-.9209 22.29275-9.3838-5.4232.0101-.0178h-.0182V14.4829h.7997v10.7487l8.9977 5.1998-.4055.7092Zm5.9514-8.9719c.8208 0 1.4864.67 1.4864 1.4951 0 .8263-.6656 1.4958-1.4864 1.4958-.6529 0-1.208-.4253-1.4077-1.0154H15.7577c-.2293.5284-.7539.8979-1.3633.8979-.8207 0-1.4851-.6691-1.4851-1.4959 0-.8251.6644-1.4946 1.4851-1.4946.0665 0 .1318.0046.196.0133.0438.0058.0871.0136.1295.0231l2.0203-3.5209 2.1034-3.665c-.2374-.2648-.3822-.6162-.3822-1.0002 0-.8255.6652-1.4958 1.486-1.4958.8203 0 1.4869.6703 1.4869 1.4958 0 .389-.1479.744-.3902 1.0101l2.0973 3.6551 2.0763 3.6186c.0734-.0112.1479-.017.2242-.017Zm-10.0084.3083c.2288.2251.386.5239.433.8582h8.1249c.0722-.3203.2458-.6021.4851-.8081l-2.0354-3.5487-2.0878-3.6369c-.1287.0369-.2653.0559-.4059.0559-.1449 0-.2847-.0207-.4169-.06l-2.0899 3.641-2.0071 3.4986Z"/>
</svg>