<svg xmlns="http://www.w3.org/2000/svg" viewBox="0 0 40 40">
	<path class="bg-logo" fill="#007D2F" d="M0 0h40v40H0z"/>
	<path fill="#fff" d="M30.9346 28.882V6c-.0615.17647-.0793.22979-.0882.28248l-.0628.19805-.061.19043c-.577 1.79643-1.1546 3.59414-1.7228 5.39884-.0476.1517-.1015.252-.1815.3028-.0578.0362-.1289.0469-.2209.0323-.0413-.0069-.0864-.0184-.1365-.0349-.2108-.0704-.4348-.1123-.6741-.1574l-.0096-.0019-.1568-.0298-.1136-.0229c.0089.1498.0089.2558.0267.353l.0762.4894.3135 1.9773.1346.8436.2266 1.434 1.7488 11.0522c.1149.7249.1416.7338.9014.5745Zm-7.0238-4.6943-2.3411-2.9041c-3.7281 3.6043-7.9684 6.2463-13.06632 7.6422H27.7277l-3.8169-4.7381ZM8 32v-1.4308c.06411-.0032.12569-.0076.18599-.0121.10601-.0076.20757-.0146.3085-.0146l7.12031.0013 4.4721.0006c3.4335 0 6.867-.0025 10.3006-.0107.4589 0 .6093.1237.5567.5655-.0191.2006-.0153.4107-.0115.6266l.0026.2653C23.2754 32 15.6599 32 8 32Zm20.7034-3.0888c.1733.0603.3796.0444.6417-.0299-1.1756-4.4263-2.3328-8.8171-3.49-13.199l-.4938.6932c-.6374.8963-1.2607 1.7723-1.9006 2.6375-.1853.2476-.2031.4152-.0527.6894.8253 1.4797 1.6505 2.96 2.4712 4.4422.7961 1.4378 1.5876 2.8774 2.3703 4.3216.134.2412.2768.3834.4539.445Z"/>
</svg>