<svg xmlns="http://www.w3.org/2000/svg" viewBox="0 0 40 40">
	<path class="bg-logo" fill="#0039A6" d="M0 0h40v40H0z"/>
	<path fill="#fff" d="M27.0749 32H12.9251C10.2096 32 8 29.7903 8 27.0749V12.9251C8 10.2096 10.2096 8 12.9251 8h14.1498c2.7155 0 4.9228 2.2096 4.9228 4.9251v14.1498C32 29.7903 29.7904 32 27.0749 32Zm-7.0741-13.4026-.0031.0052 5.0316 8.7144c.6855 1.1869 2.203 1.5929 3.3899.9074 1.1914-.6855 1.5974-2.203.9119-3.3922l-7.177-12.4281c-.3082-.5325-.7823-.9076-1.3189-1.0979-.6816-.2455-1.4415-.176-2.0708.1879-1.1869.6856-1.5929 2.203-.9074 3.3899l2.1438 3.7134Zm-.1591.2788-2.2754-3.824c-.2652-.4599-.413-.9962-.3655-1.5302l-6.5317 11.3093c-.68553 1.1892-.2773 2.7067.9096 3.3922 1.1869.6855 2.7066.2795 3.3899-.9074l4.8731-8.4399Zm.1602 9.7672c1.411 0 2.5535-1.1403 2.5535-2.5536 0-1.4087-1.1448-2.5534-2.5557-2.5534-1.411 0-2.5536 1.1447-2.5536 2.5534 0 1.411 1.1448 2.5536 2.5558 2.5536Z"/>
</svg>