<svg xmlns="http://www.w3.org/2000/svg" viewBox="0 0 40 40">
	<path class="bg-logo" fill="#000" d="M0 0h40v40H0z"/>
	<path fill="#fff" d="M10.75 11.1893H8v12.4952h2.25v-9.6554l4.25 6.2476 4.25-6.2476v9.6554H21V11.1893h-2.8125L14.5 16.7427l-3.75-5.5534ZM28.625 11c-3.75 0-5.5 1.5777-5.5 6.4369v.1262c0 4.9854 1.8125 6.4369 5.5 6.4369 1.1875 0 2.5625-.2524 3.375-.4417v-2.1457c-.1072.0361-.1918.0745-.2765.113-.3598.1634-.7239.3288-2.8485.3288-2.625 0-3.5-.9466-3.5-4.3544s.875-4.3544 3.5-4.3544c1.4375 0 2.5625.2525 3.125.4418v-2.1457C31.2471 11 30.9102 11 28.625 11Z"/>
	<path fill="#F80000" d="M0 27.5h40V40H0z"/>
</svg>