<svg xmlns="http://www.w3.org/2000/svg" viewBox="0 0 40 40">
	<path class="bg-logo" fill="#1E1E1F" d="M0 0h40v40H0z"/>
	<path fill="url(#a)" d="M34.6721 20.002c0 8.1093-6.5625 14.6718-14.6719 14.6718-8.1093 0-14.67183-6.5625-14.67183-14.6718 0-8.1094 6.56253-14.67192 14.67183-14.67192 8.1094 0 14.6719 6.56252 14.6719 14.67192ZM20.0002 6.2207c-7.6406 0-13.78121 6.1406-13.78121 13.7813 0 7.6406 6.18751 13.7812 13.78121 13.7812 7.6407 0 13.7813-6.1875 13.7813-13.7812 0-7.6407-6.1406-13.7813-13.7813-13.7813Z"/>
	<path fill="url(#b)" d="M20.0002 6.21875C12.3596 6.21875 6.21899 12.3594 6.21899 20S12.4065 33.7813 20.0002 33.7813c7.6407 0 13.7813-6.1875 13.7813-13.7813 0-7.6406-6.1406-13.78125-13.7813-13.78125Zm0 26.67185c-7.125 0-12.89058-5.7656-12.89058-12.8906 0-7.125 5.76558-12.89062 12.89058-12.89062S32.8909 12.875 32.8909 20s-5.7657 12.8906-12.8907 12.8906Z"/>
	<path fill="url(#c)" opacity=".4" d="M20 34.6719c8.1094 0 14.6719-6.5625 14.6719-14.6719S28.1094 5.32812 20 5.32812 5.32812 11.8906 5.32812 20 11.8906 34.6719 20 34.6719ZM20 5c8.25 0 15 6.75 15 15s-6.75 15-15 15S5 28.25 5 20 11.75 5 20 5Z"/>
	<path fill="#fff" d="M6.03125 20.0488C6.03125 12.3613 12.2656 6.0332 20 6.0332s13.9687 6.2813 13.9687 14.0156c0 7.6875-6.2343 13.9219-13.9687 13.9219S6.03125 27.7363 6.03125 20.0488Zm4.35935-9.6562c-2.48435 2.4844-4.03122 5.9062-4.03122 9.6562s1.54687 7.1719 3.98432 9.6094C12.8281 32.0957 16.25 33.6426 20 33.6426s7.1719-1.5 9.6094-3.9844c2.4843-2.4375 3.9843-5.8594 3.9843-9.6094 0-3.75-1.5468-7.1718-3.9843-9.6562S23.75 6.36133 20 6.36133c-3.75 0-7.1719 1.54687-9.6094 4.03127Z"/>
	<path fill="url(#d)" opacity=".4" d="M20 32.9375c-3.4687 0-6.7031-1.3594-9.1406-3.7969C8.42188 26.7031 7.0625 23.4688 7.0625 20c0-3.4687 1.35938-6.7031 3.7969-9.1406C13.2969 8.42188 16.5313 7.0625 20 7.0625c3.4688 0 6.7031 1.35938 9.1406 3.7969 2.4375 2.4375 3.7969 5.6719 3.7969 9.1406 0 3.4688-1.3594 6.7031-3.7969 9.1406-2.4375 2.4375-5.6718 3.7969-9.1406 3.7969Zm0-.375c3.3281 0 6.5156-1.3125 8.8594-3.6562 2.3906-2.3907 3.6562-5.5313 3.6562-8.8594 0-3.3281-1.3125-6.5156-3.6562-8.8594C26.4688 8.79687 23.3281 7.53125 20 7.53125c-3.3281 0-6.5156 1.3125-8.8594 3.65625C8.75 13.4844 7.4375 16.6719 7.4375 20s1.3125 6.5156 3.6563 8.8594C13.4844 31.25 16.6719 32.5625 20 32.5625Z"/>
	<path fill="#fff" d="M31.3906 26.0938c-.2344-.1875-9.2812-7.3594-9.2812-7.3594L20 6.6875c-.1406.04688-.3281.1875-.4219.375l-1.5 11.7188L8.75 25.9531s-.1875.2344-.28125.375c-.04688.0938-.04687.2344-.04687.375l11.53122-4.7343 11.5313 4.7343c.0937-.2343 0-.4687-.0938-.6093Z"/>
	<path fill="#565F64" d="m20.094 20.3768-.0938 2.1563 10.5938 4.2656c.375.1875.6562.0938.9375-.0937L20.2346 20.33c-.0469-.0469-.1406 0-.1406.0468Z"/>
	<path fill="url(#e)" d="M20.094 20.3768s.6094 1.0782 1.3125 1.8282c.9844 1.0781 2.2969 1.8281 2.2969 1.8281l6.8906 2.7656c.375.1875.6562.0938.9375-.0937L20.2346 20.33c-.0469-.0469-.1406 0-.1406.0468Z"/>
	<path fill="#A4AAAE" fill-opacity=".6" d="M31.4844 26.2813c0-.0469-.0469-.0938-.0938-.1875l-9.6562-7.0782-1.3125.8438s.0937.0469.1406 0c.1406-.0469.4219-.0938.7031 0 .2344.0937 10.2188 6.4687 10.2188 6.4687v-.0468Z"/>
	<path fill="#333E46" d="m31.1565 25.8574-9-7.125-.4219.2813 9.6563 7.125c-.0469-.0938-.1407-.1875-.2344-.2813Z"/>
	<path fill="#565F64" d="m20.2341 19.6738-.0468.0469s0 .0938.0937.0469c.0469-.0469 1.4063-.75 1.875-1.0313L20.5154 7.48633c-.0469-.42188-.2344-.60938-.5625-.75l.1875 13.03127.0937-.0938Z"/>
	<path fill="#A4AAAE" fill-opacity=".6" d="M19.4375 7.48633v.60937l-1.0313 10.3594c0 .1406.0469.2812.1875.375l.6094.4687.4219-11.43747.0469-.89063c-.1407.09375-.1875.28125-.2344.51563ZM18.875 19.4844l-.5625-.4688-9.51562 6.8906s-.28126.1876-.32813.3751l.32813-.1875 9.98432-6.2813c.1875-.0937.2344-.1875.0938-.3281Z"/>
	<path fill="#565F64" d="M19.8594 20.3768c0-.0468-.0469-.0937-.0938-.0468L8.42188 26.7518c.28125.1875.5625.2344.9375.0938L19.9531 22.58l-.0937-2.2032Z"/>
	<path fill="url(#f)" d="m20.1877 19.7188.0469-.0469-.0469.0469s0 .0468.0469.0468h.0469c.0469-.0468 1.4062-.75 1.875-1.0312l-.1875-1.3594-1.4531-9.89062c0-.1875-.0469-.32813-.1407-.42188 0 0 .7032 9.4688.7032 10.5 0 1.3594-.8907 2.1563-.8907 2.1563Z"/>
	<path fill="url(#g)" fill-opacity=".8" d="M19.8594 20.3768c0-.0468-.0469-.0937-.0938-.0468L8.42188 26.7518c.28125.1875.5625.2344.9375.0938L19.9531 22.58l-.0937-2.2032Z"/>
	<path fill="url(#h)" opacity=".8" d="m9.35962 26.7969 10.59378-4.2656-.0938-2.0625c-.1875.5625-.5156 1.1718-1.4062 1.6406-.6563.375-6.9375 3.4687-9.18753 4.5469-.14063.0937-.32813.1406-.42188.1874.1875.0938.32813.0469.51563-.0468Z"/>
	<path fill="url(#i)" d="m20.2341 19.6738-.0468.0469s0 .0938.0937.0469c.0469-.0469 1.4063-.75 1.875-1.0313L20.5154 7.48633c-.0469-.42188-.2344-.60938-.5625-.75l.1875 13.03127.0937-.0938Z"/>
	<path fill="url(#j)" d="m20.2341 19.6738-.0468.0469s0 .0938.0937.0469c.0469-.0469 1.4063-.75 1.875-1.0313L20.5154 7.48633c-.0469-.42188-.2344-.60938-.5625-.75l.1875 13.03127.0937-.0938Z"/>
	<path fill="url(#k)" d="M7.39087 25.8125c-.32813-.75-2.20313-4.4063-.14063-11.4375h-.79687c-.42188 1.4062-.75 2.25-.9375 3.5156 0 0-.09375.4688-.14063.9844-.04687.5156-.04687.7969-.04687 1.125 0 2.8125.70312 4.4531.70312 4.4531.75 2.3438 2.0625 4.4532 3.84375 6.0469 1.54686 1.3594 3.93746 2.3906 5.90626 2.7656-.3281-.0469-5.95313-2.4375-8.39063-7.4531Z"/>
	<path fill="url(#l)" d="M20.188 20.2792h-.4219c.0469 0 .0938 0 .0938.0469l.0937 2.1562h.0469l.0937-2.1562c0-.0469.0469-.0938.0938-.0469Z"/>
	<path fill="url(#m)" d="M24.6877 6.07617c4.9219 1.875 9.5625 7.03123 9.5625 13.54683 0 7.875-6.2812 14.2969-14.25 14.2969v.75c7.9688 0 14.6719-6.5625 14.6719-14.6719 0-6.4687-4.125-11.9062-9.9844-13.92183Z"/>
	<path fill="url(#n)" d="M32.5625 14.4688C29.2813 6.92188 21.875 6.5 21.4531 6.45312h-.0469c5.6719 1.03126 9.2813 4.73438 10.5469 8.62498v.0469c.5625 1.5.8438 3.0938.8907 4.8281.0468 1.6407-.3282 3.4688-1.0313 5.1563-.0469.2344-.0937.5156-.1406.5156h.75c2.25-4.2187 1.2656-8.4844.1406-11.1562Z"/>
	<path fill="#FBFBFB" d="M6.03125 20.0488C6.03125 12.3613 12.2656 6.0332 20 6.0332s13.9687 6.2813 13.9687 14.0156c0 7.6875-6.2343 13.9219-13.9687 13.9219S6.03125 27.7363 6.03125 20.0488Zm4.35935-9.6562c-2.48435 2.4844-4.03122 5.9062-4.03122 9.6562s1.54687 7.1719 3.98432 9.6094C12.8281 32.0957 16.25 33.6426 20 33.6426s7.1719-1.5 9.6094-3.9844c2.4843-2.4375 3.9843-5.8594 3.9843-9.6094 0-3.75-1.5468-7.1718-3.9843-9.6562S23.75 6.36133 20 6.36133c-3.75 0-7.1719 1.54687-9.6094 4.03127Z"/>
	<path fill="#333F47" d="m8.70312 26 9.56248-6.8906c.5157.2812 1.3594.6562 1.4532.6562.0937.0469.0937-.0468.0937-.0468l-1.1719-.9844c-.1406-.0938-.1875-.2344-.1875-.375l1.125-11.2969c-.0468.04688-.0468.14063-.0937.1875-.0469.09375-.0469.14063-.0469.23438L17.7969 18.7813l-9.00002 7.0781c-.04688.0469-.09376.0937-.09376.1406Z"/>
  	<linearGradient id="a" x1="8.75024" x2="31.2502" y1="10.5801" y2="29.4238" gradientUnits="userSpaceOnUse">
  		<stop stop-color="#fff"/>
  		<stop offset=".1" stop-color="#CDD0D0"/>
  		<stop offset=".2" stop-color="#A5ACAF"/>
  		<stop offset=".3" stop-color="#98A0A4"/>
  		<stop offset=".4" stop-color="#828A8F"/>
  		<stop offset=".5" stop-color="#667075"/>
  		<stop offset=".6" stop-color="#535C63"/>
  		<stop offset=".7" stop-color="#475158"/>
  		<stop offset=".8" stop-color="#434D54"/>
  		<stop offset="1" stop-color="#475157"/>
  	</linearGradient>
  	<linearGradient id="b" x1="9.45337" x2="30.5471" y1="11.1406" y2="28.8594" gradientUnits="userSpaceOnUse">
  		<stop stop-color="#0B1F2A"/>
  		<stop offset=".2" stop-color="#333F47"/>
  		<stop offset=".5" stop-color="#81898D"/>
  		<stop offset=".7" stop-color="#B3B8B8"/>
  		<stop offset=".8" stop-color="#DEE0DD"/>
  		<stop offset="1" stop-color="#FBFBFB"/>
  	</linearGradient>
  	<linearGradient id="c" x1="25.1434" x2="14.8778" y1="34.1127" y2="5.89395" gradientUnits="userSpaceOnUse">
  		<stop stop-color="#E1E3E1"/>
  		<stop offset=".1" stop-color="#C1C5C4"/>
  		<stop offset=".3" stop-color="#9BA1A2"/>
  		<stop offset=".5" stop-color="#7D8487"/>
  		<stop offset=".7" stop-color="#687074" stop-opacity="0"/>
  		<stop offset=".8" stop-color="#5B6469" stop-opacity="0"/>
  		<stop offset="1" stop-color="#576065" stop-opacity="0"/>
  	</linearGradient>
  	<linearGradient id="d" x1="13.5313" x2="26.4688" y1="8.79687" y2="31.2031" gradientUnits="userSpaceOnUse">
  		<stop stop-color="#E1E3E1"/>
  		<stop offset=".1" stop-color="#C1C5C4"/>
  		<stop offset=".3" stop-color="#9BA1A2"/>
  		<stop offset=".5" stop-color="#7D8487"/>
  		<stop offset=".7" stop-color="#687074" stop-opacity="0"/>
  		<stop offset=".8" stop-color="#5B6469" stop-opacity="0"/>
  		<stop offset="1" stop-color="#576065" stop-opacity="0"/>
  	</linearGradient>
  	<linearGradient id="e" x1="25.8596" x2="25.0627" y1="23.4706" y2="24.7831" gradientUnits="userSpaceOnUse">
  		<stop stop-color="#27343C"/>
  		<stop offset="1" stop-color="#00111E" stop-opacity="0"/>
  	</linearGradient>
  	<linearGradient id="f" x1="23.5627" x2="22.2502" y1="18.6406" y2="16.5313" gradientUnits="userSpaceOnUse">
  		<stop offset=".1" stop-color="#02131F"/>
  		<stop offset=".9" stop-color="#02131F" stop-opacity="0"/>
  	</linearGradient>
  	<linearGradient id="g" x1="20" x2="18.0313" y1="22.0643" y2="22.6268" gradientUnits="userSpaceOnUse">
  		<stop offset=".2" stop-color="#02131F"/>
  		<stop offset=".9" stop-color="#02131F" stop-opacity="0"/>
  	</linearGradient>
  	<linearGradient id="h" x1="14.7502" x2="14.469" y1="24.6406" y2="23.9375" gradientUnits="userSpaceOnUse">
  		<stop stop-color="#02131F"/>
  		<stop offset=".1" stop-color="#02131F"/>
  		<stop offset="1" stop-color="#02131F" stop-opacity="0"/>
  	</linearGradient>
  	<linearGradient id="i" x1="21.6873" x2="20.0935" y1="13.0645" y2="13.252" gradientUnits="userSpaceOnUse">
  		<stop offset=".3" stop-color="#02131F"/>
  		<stop offset=".8" stop-color="#02131F" stop-opacity="0"/>
  	</linearGradient>
  	<linearGradient id="j" x1="21.7341" x2="20.656" y1="13.0176" y2="13.1582" gradientUnits="userSpaceOnUse">
  		<stop offset=".4" stop-color="#27343C"/>
  		<stop offset="1" stop-color="#3B474E" stop-opacity="0"/>
  	</linearGradient>
  	<linearGradient id="k" x1="4.81274" x2="17.8909" y1="20.4219" y2="27.9687" gradientUnits="userSpaceOnUse">
  		<stop stop-color="#25323B" stop-opacity="0"/>
  		<stop offset=".1" stop-color="#27343C"/>
  	</linearGradient>
  	<linearGradient id="l" x1="20.0005" x2="20.0005" y1="22.5292" y2="20.2792" gradientUnits="userSpaceOnUse">
  		<stop offset=".3" stop-color="#A5ABAF"/>
  		<stop offset="1" stop-color="#A5ABAF" stop-opacity="0"/>
  	</linearGradient>
  	<linearGradient id="m" x1="27.3596" x2="27.3596" y1="6.07617" y2="34.6699" gradientUnits="userSpaceOnUse">
  		<stop stop-color="#6B7378"/>
  		<stop offset=".2" stop-color="#333F47"/>
  		<stop offset=".5" stop-color="#27343C"/>
  		<stop offset=".8" stop-color="#333F47"/>
  		<stop offset="1" stop-color="#434D54"/>
  	</linearGradient>
  	<linearGradient id="n" x1="31.8594" x2="25.5313" y1="8.79687" y2="18.0781" gradientUnits="userSpaceOnUse">
  		<stop offset=".7" stop-color="#49545B"/>
  		<stop offset=".8" stop-color="#fff" stop-opacity="0"/>
  	</linearGradient>
</svg>