<svg xmlns="http://www.w3.org/2000/svg" viewBox="0 0 40 40">
	<path class="bg-logo" fill="#004785" d="M0 0h40v40H0z"/>
	<path fill="#fff" d="M20.5997 6c7.4228.27393 13.3533 6.3943 13.4002 13.8962.0166 3.7138-1.4362 7.2829-4.0406 9.9262-2.6045 2.6433-6.1483 4.1453-9.8558 4.1773-3.7102.023-7.2783-1.4285-9.922-4.0362-2.64363-2.6078-4.1473-6.1591-4.18135-9.8756-.01651-3.6144 1.35911-7.0959 3.84055-9.72C12.3221 7.74377 15.7182 6.17927 19.3222 6l.0156 3.97984c-2.5574.16936-4.9541 1.30936-6.7014 3.18756-1.7473 1.8782-2.7137 4.3532-2.70215 6.9205.01122 1.4972.35665 2.9729 1.01105 4.319.6543 1.3461 1.601 2.5286 2.7707 3.4607l3.7973-10.0181-2.637.0196s-.5196-.1057-.8165.1409l-.6251.6026s-.0508-1.6514.0235-1.8236c.0742-.2113.2851-1.8667 1.0196-2.7119.7423-.814 1.926-.9275 1.926-.9275l8.4387-.0587-1.2189 1.2719 2.93 13.2583c1.1013-.949 1.9835-2.1264 2.5853-3.4508.6017-1.3245.9086-2.7642.8995-4.2194-.0234-2.5559-1.0152-5.0075-2.7748-6.8586-1.7596-1.8512-4.1555-2.9637-6.703-3.11246L20.5997 6Zm-3.2231 8.261c.254 0 .4688.1956.4688.4383 0 .2387-.2071.4383-.4609.4383-.2579.0039-.4689-.1917-.4689-.4305 0-.2465.2032-.4422.461-.4461Z"/>
</svg>