<svg xmlns="http://www.w3.org/2000/svg" viewBox="0 0 40 40">
	<path class="bg-logo" fill="#2E274D" d="M0 0h40v40H0z"/>
	<path fill="#fff" d="M31.2522 11.3701c-1.3956-1.2135-2.92-1.75576-4.4142-1.87332-1.4979-.12135-3.0148.10239-4.5506.83812V9h-4.6759v1.2704c-3.3409-1.41072-7.1938-1.21352-10.20866 2.5142-3.614 4.4559.45127 11.1151 4.33456 15.0439-.9481.1213-1.89616.2389-2.84042.3678.03034.713.06067 1.4297.09481 2.1426h6.79191v-2.1426c-3.997-4.9375-6.26479-10.0381-4.5317-13.5914 1.4638-2.9996 4.0994-3.1362 6.3102-1.6003v17.3267h4.7252V13.0994c1.8847-1.2287 3.5305-1.3121 4.5582-.7281 2.3854 1.3576 2.6318 3.7695 2.317 6.1623-.4284 3.2576-2.518 6.6668-4.854 9.7006v2.0516h6.7995v-2.0971c-.9329-.1251-1.8658-.2465-2.7987-.3678 3.5534-3.7999 5.5064-7.247 5.677-10.2846.1327-2.2905-.7016-4.4027-2.7342-6.1662Zm1.4562 7.6262c-.8608 3.3031-3.2082 6.4241-6.4657 9.4579 1.2893.1555 2.5749.3147 3.8642.474v.4437h-4.8995v-.8229c1.6837-2.2412 3.2272-4.4331 3.9667-6.5265.8418-2.3815 1.5775-4.8047.7357-7.1408-.3451-.9556-.9064-1.934-1.6611-2.6204-.857-.7812-1.9075-1.2021-3.2537-1.1414-1.3463.0606-2.4156.584-3.6822 1.4752v16.8678h-2.8025v-16.993c-1.4145-.986-2.7342-1.4486-4.2132-1.35-1.4827.091-3.2727 1.0542-4.2814 3.906-.4968 1.4031-.30339 2.9882-.03794 4.3686.61434 3.159 2.51044 6.1624 4.80474 9.1203v.8229H9.88675v-.4095c1.28555-.1403 2.57495-.273 3.86045-.4134-.876-.9101-1.7254-1.6647-2.5028-2.5825-1.50934-1.7672-2.76836-3.5874-3.50026-5.4457-.91393-2.3132-1.25144-4.9109.37164-7.1331 1.51689-2.082 3.39782-2.7949 5.24462-3.0186 1.8506-.2238 3.4813.2958 5.1537 1.532V9.91393h2.8025v2.04777c1.3614-1.077 2.7721-1.6155 4.179-1.6951 2.5446-.1517 5.2598 1.2742 6.5606 3.3296.948 1.5093 1.187 3.3523.6522 5.4001Z"/>
</svg>