<svg xmlns="http://www.w3.org/2000/svg" viewBox="0 0 40 40">
	<path class="bg-logo" fill="#1B3281" d="M0 0h40v40H0z"/>
	<path fill="#fff" d="M31.57 17.605c-.26-2.535-.39-5.07-.585-7.605H24.68c-1.04 2.535-2.015 5.07-3.12 7.605l-1.43 3.38-1.495-3.38c-1.105-2.535-2.21-5.07-3.185-7.605H7.195v.65c.39 0 .845.195 1.17.52.325.325.52.78.52 1.17-.195 1.755-.26 3.445-.39 5.2l-.52 5.33c-.325 2.6-.65 5.07-.975 7.605h2.6c.195-2.535.325-5.07.585-7.605l.845-7.995c1.17 2.47 2.275 4.94 3.38 7.345l.26.65c1.105 2.535 2.21 5.07 3.185 7.605h.78c1.04-2.535 2.015-5.07 3.12-7.605l.52-1.105 3.25-7.345.845 8.385c.26 2.535.39 5.07.585 7.605H33c-.325-2.535-.65-5.07-.91-7.605 0 .13-.52-5.2-.52-5.2Z"/>
</svg>