<svg xmlns="http://www.w3.org/2000/svg" viewBox="0 0 40 40">
	<path class="bg-logo" fill="#072DA0" d="M0 0h40v40H0z"/>
	<path fill="#fff" d="M6.55991 11.25c0-2.59082 2.09991-4.68945 4.69009-4.68945h17.5c2.5902 0 4.6901 2.09863 4.6901 4.68945v17.5c0 2.5908-2.0999 4.6895-4.6901 4.6895h-17.5c-2.59018 0-4.69009-2.0987-4.69009-4.6895v-17.5ZM11.25 6C8.35049 6 6 8.34985 6 11.25v17.5C6 31.6501 8.35049 34 11.25 34h17.5c2.8995 0 5.25-2.3499 5.25-5.25v-17.5C34 8.34985 31.6495 6 28.75 6h-17.5Zm4.55 6.9983H13V18.5986h2.8v2.7993H13V26.9983h2.8V24.199h2.7999v2.7993h2.8002V24.199H24.2v2.7993H27V24.199h-2.8v-2.8011H27V15.7976h-2.8v-2.7993H18.5999v2.7993H15.8v-2.7993Zm5.6001 5.6003h-2.8002v-2.801h2.8002v2.801Zm0 2.7993h-2.8002v2.8011h2.8002v-2.8011Zm0 0v-2.7993H24.2v2.7993h-2.7999Z"/>
</svg>