<svg xmlns="http://www.w3.org/2000/svg" viewBox="0 0 40 40">
	<path class="bg-logo" fill="#ED1A23" d="M0 0h40v40H0z"/>
	<path fill="#fff" d="M19.9999 6.64027c7.2728 0 13.1818 5.81553 13.1818 12.82393 0 7.1576-5.909 12.824-13.1818 12.824-7.2726 0-13.18172-5.8155-13.18172-12.824C6.66666 12.4558 12.7273 6.64027 19.9999 6.64027Zm0-1.64027C11.6667 5 5 11.5611 5 19.6133c0 8.0523 6.6667 14.6134 14.9999 14.6134C28.1818 34.2267 35 27.6656 35 19.6133 34.8484 11.412 28.1818 5 19.9999 5Zm-1.8173 9.543-3.1818-3.1314-3.1818 3.1314v9.2452l6.3636-6.2629V14.543Zm5.3022 6.412-3.4849-3.4297V14.543l-3.1817-3.1314h6.9697l3.1818 3.1314v2.9823l-3.4849 3.4297Zm-.7571.7463-3.6364-3.5787-9.2424 8.9468h7.2727l5.6061-5.3681Zm-4.0909 5.3681 9.2424-8.9468v8.9468h-9.2424Z"/>
</svg>