<svg xmlns="http://www.w3.org/2000/svg" viewBox="0 0 40 40">
	<path class="bg-logo" fill="#292929" d="M0 0h40v40H0z"/>
	<path fill="#292929" d="M20.505 33c7.4472-.012 13.4749-5.8421 13.4634-13.0218-.0114-7.1797-6.0578-12.99021-13.505-12.97818-7.447.01202-13.47486 5.84208-13.46338 13.02178C7.01149 27.2014 13.0579 33.012 20.505 33Z"/>
	<path fill="url(#a)" d="M12.718 9.56565c-.2053.13754-.5547.36802-.5843.35687.0148-.01672.0241-.02602.0814-.07063l.0259-.02045.4122-.30111c.9133-.5948.9133-.5948.9595-.60223-.0648.07621-.8874.63197-.8947.63755Zm.3105.16728c.268-.18959.5934-.47584.5047-.52602-.2403-.03532-1.27.69889-1.148.81789.0517.052.3401-.07812.6433-.29187Zm.7783.2342c.2514-.19888.4751-.5.244-.54647-.4252-.0223-1.3033.64124-1.1055.83644.1016.1004.5009-.0037.8615-.28997Zm6.8068.56317c.0332-.2751-.2588-.64496-.8893-.62823-.78.07622-1.0851.67103-.6858.98883.4843.3866 1.5141.1506 1.5751-.3606Zm1.9688-.0502c-.0536-.2732-.4677-.63193-1.1036-.5929-.7173.0948-.8708.6468-.4381.9628.5804.4238 1.6471.1692 1.5417-.3699Zm1.9411-.1226c-.1423-.2695-.6599-.6097-1.2552-.54837-.6175.11153-.6212.62637-.1756.92567.6044.4071 1.5842.2342 1.4752-.2602-.0074-.0372-.0258-.0837-.0444-.1171Zm1.5972-.1785c-.2218-.26392-.7819-.58548-1.2533-.50741-.4825.13198-.2921.63941.2015.92381.6082.3476 1.3033.236 1.1794-.1915-.0185-.0725-.0628-.1487-.1276-.2249Zm1.161-.22117c-.2828-.25464-.8541-.55947-1.1868-.46839-.3476.15798.1312.77326.7857 1.01116.4807.1747.7912.0409.6267-.2732-.0444-.0818-.1257-.1803-.2256-.26957Zm.6896-.24535c-.3254-.24535-.8726-.52973-1.0556-.43308-.2052.21747.867 1.0502 1.3496 1.0465.2032-.0019.1829-.1673-.0499-.40338-.0462-.04646-.1258-.12267-.2441-.21004Zm-12.9722.55572c.2349-.2286.3587-.56687-.0166-.60219-.5915-.00186-1.3938.65059-1.1314.91819.1775.1785.7654.0576 1.148-.316Zm1.5641.1432c.1645-.2194.1608-.53534-.2718-.55394-.5972.02045-1.1924.54834-.9392.83084.2108.2361.9096.1264 1.211-.2769Zm1.8818.091c.1054-.236-.024-.56501-.5397-.56873-.6452.04089-1.1388.57253-.8098.87173.3051.2807 1.148.1487 1.3495-.303Zm9.7112-1.05014c-.3882-.26393-.8357-.49257-.8541-.39963.0666.24908 1.3994 1.13197 1.4863.98517.037-.06324-.2403-.31974-.6322-.58554Zm-16.786 1.10034-.0295.0261c.133-.1153.3124-.2696.4455-.3867-.1941.1617-.3272.2807-.416.3606Zm-1.0296 1.8142c.292-.3439.5268-.8105.3918-.8978-.1922-.039-.6396.4981-.6581.5204-.40117.4833-.49918.751-.46212.8327.05916.1339.42142-.0929.72842-.4553Zm.9353.2435c.1775-.225.2164-.5112-.0147-.5595-.3956-.0279-.8616.6208-.6915.8215.124.145.4937.0075.7062-.262Zm9.4135.7304c.0499-.3383-.3587-.7955-1.2515-.7732-1.0002.0855-1.3866.7491-.9059 1.1524.6304.5279 2.0613.277 2.1574-.3792Zm2.6602-.0539c-.0185-.3327-.5213-.7658-1.4198-.7156-.952.1097-1.2331.7138-.7561 1.1022.6878.5595 2.2129.2882 2.1759-.3866Zm2.6251-.2007c-.0868-.3327-.6248-.7844-1.503-.697-.8984.1505-1.0407.7918-.4954 1.1784.7469.5316 2.0816.2621 2.0114-.4071-.0019-.0223-.0074-.052-.013-.0743Zm2.1574-.2416c-.1516-.3272-.6969-.7621-1.3883-.6525-.7598.1878-.684.8885-.0592 1.238.7746.4349 1.686.1189 1.479-.5131-.0093-.0223-.0222-.0501-.0315-.0724Zm1.5695-.2974c-.2069-.3309-.7209-.738-1.2164-.6097-.5509.2175-.2828 1.0037.4474 1.3122.6174.2621 1.0667-.0353.843-.5594-.0185-.0446-.0481-.1023-.074-.1431Zm.9096-.3272c-.3475-.4591-.8245-.7007-.965-.487-.2107.3216.5601 1.3569 1.0926 1.2156.2976-.1505-.0832-.6691-.1276-.7286Zm-17.8379.8699c.1572-.2342.1479-.5818-.2791-.6264-.6026-.0074-1.063.6301-.7912.9071.2367.2379.8263.0836 1.0703-.2807Zm2.4662.0632c.1535-.2974.0185-.7286-.6341-.7602-.8227.0223-1.3311.7044-.9798 1.0762.3697.3903 1.3495.197 1.6139-.316Zm2.5013.1283c.0998-.2937-.1443-.7064-.8615-.7119-.8523.0483-1.2645.6747-.88 1.0316.4529.4182 1.5584.2156 1.7415-.3197ZM30.883 11.863c-.0628-.0743-.6212-.7286-.6822-.5483-.0148.3978.9705 1.4312 1.1407 1.3346.0942-.0539-.1719-.4461-.4585-.7863ZM8.47333 15.4838c.18675-.3959.24034-.8754.10906-.9684-.13675-.0353-.3235.3384-.42141.5651-.19233.4387-.2736.7769-.21454.8866.07958.1394.3494-.1078.52689-.4833Zm1.1499.5019c.12938-.2769.06843-.6301-.2237-.6952-.44363-.0352-.70807.7324-.51395.9833.16823.2175.575.0595.73765-.2881Zm11.12717.6785c.0629-.3588-.4308-.842-1.5178-.8179-1.2219.091-1.6157.7825-1.0057 1.2138.7543.5353 2.407.2751 2.5235-.3959Zm3.1501-.0261c.0222-.4163-.5953-.8346-1.6287-.7826-1.1462.1209-1.5103.7789-.9575 1.2008.7837.5967 2.5474.3104 2.5862-.4182Zm3.1095-.2565c-.0296-.3885-.5583-.8903-1.638-.7881-1.0944.171-1.3661.8959-.7764 1.3309.8522.6283 2.4754.2639 2.4144-.5428Zm2.6787-.3141c-.0869-.4387-.6341-.9889-1.5787-.842-1.0723.2527-1.1555 1.1431-.4327 1.5985.9207.578 2.1815.106 2.0114-.7565Zm1.869-.3606c-.1275-.4238-.6064-1.026-1.3476-.8383-.8745.3234-.6914 1.4052.0942 1.7937.7949.3903 1.4974-.145 1.2534-.9554Zm.9724-.3792c-.1423-.3698-.4825-.8587-.8374-.6877-.525.3699.0055 1.5464.575 1.6245.3567.0465.4751-.3811.2624-.9368Zm-20.8586 1.0056c.1462-.3457-.0499-.7546-.5731-.8104-.7135-.0112-1.0851.7324-.7154 1.1189.3383.3513 1.0853.1729 1.2885-.3085Zm2.1926.3178c.1183-.3364-.17-.7174-.7857-.7471-.7783.0185-1.135.6226-.7783 1.0036.4012.4276 1.3791.2677 1.564-.2565Zm3.3165-.0687c.0832-.316-.2367-.7602-1.05-.7696-.9096.0483-1.2701.6543-.8652 1.0539.5065.5019 1.7599.316 1.9152-.2843Zm15.6434-1.6711c-.3844-.8605-.4455-.7155-.4639-.6672-.1054.4944.5453 1.7156.7265 1.5985.0758-.0483-.0203-.3885-.2626-.9313ZM14.3577 8.73107c.0074-.00372.8301-.42007.8633-.50743l-.0036-.00558c-.1905-.03717-1.5622.6487-1.614.80856l.0056.00743c.0924.02044.5546-.20633.7487-.30298Zm.3993.18773c.2921-.16542.6452-.41821.5509-.46468l-.0185-.00557c-.3549-.02417-1.4771.58921-1.3476.73605.0535.06506.3807-.02044.8152-.2658Zm6.5018.4554c-.0203-.19332-.2773-.46283-.6914-.44425-.477.05948-.6933.487-.3661.72863.3513.25836 1.1.12268 1.0575-.28438Zm1.6842-.06878c-.1166-.22119-.5473-.51859-1.0187-.47955-.4843.08179-.5084.51859-.1738.77323.4807.36431 1.3182.23234 1.2294-.19516-.0056-.02974-.0222-.07064-.0369-.09852Zm1.4216-.12267c-.2052-.21561-.7284-.49628-1.1333-.44052-.3882.09479-.2533.48884.1239.73233.4991.32343 1.2072.28811 1.1461-.05761-.011-.06878-.0609-.15428-.1367-.2342Zm1.0907-.15986c-.2848-.2119-.8616-.46839-1.1555-.40335-.2846.11153.1424.5725.636.78997.4658.20446.8651.16542.7893-.07806-.0277-.08922-.1257-.20075-.2698-.30856Zm.7321-.18587c-.3384-.2026-.9244-.43866-1.113-.36617-.1867.15242.8412.82156 1.3441.87361.2088.0223.268-.0632.1478-.21004-.0351-.04276-.1387-.15427-.3789-.2974Zm-10.5948.26766c.2921-.19889.4843-.43867.3068-.47584l-.0313-.00372c-.4844-.00743-1.3994.54461-1.2387.74721.0906.11525.5417.02231.9632-.26765Zm1.1535.14313c.2034-.18402.3531-.46841.0241-.48885-.562.01486-1.3163.55761-1.076.77508.159.14685.6971.03346 1.0519-.28623Zm1.3496.0892c.1331-.18587.1331-.44795-.2182-.45538-.5047.02974-1.0407.48885-.8319.71376.1868.19888.8023.08735 1.0501-.25838Zm1.5455.04648c.061-.19331-.0647-.45911-.4603-.45354-.5047.04462-.8819.49257-.6138.72677.2681.23048.9539.10595 1.0741-.27323Zm6.89-.74907c-.403-.20818-.941-.40335-1.002-.33085-.0056.18029 1.4475.92006 1.6028.81412.0777-.05205-.1904-.26951-.6008-.48327Zm-.0721-.20632c-.3937-.18773-.7727-.33271-.8264-.31413l.0075.01487c.1516.12639 1.5306.80298 1.6175.76766-.0518-.10967-.7912-.46468-.7986-.4684Zm-15.1166 2.4331c.3346-.2974.7024-.7026.6748-.7751-.1202-.0521-1.3551 1.0836-1.3089 1.2026.0721.0279.3734-.1933.6341-.4275Zm.6249.1673c.2218-.2101.366-.4777.2181-.5261-.3106-.0315-.9392.632-.8467.7882.061.1059.379-.0261.6286-.2621Zm9.857.8754c.0019-.2769-.4066-.6468-1.183-.6171-.8763.0837-1.1611.6357-.7025.961.6118.4312 1.8801.2007 1.8855-.3439Zm2.3812-.1803c-.0777-.3122-.5916-.7137-1.3514-.6524-.8024.119-.954.6952-.4862 1.0539.6581.5037 1.9022.2788 1.8487-.3346-.0019-.0185-.0056-.0464-.0111-.0669Zm2.1278-.184c-.1516-.2955-.6914-.6914-1.3699-.6059-.7099.1487-.6914.7267-.159 1.065.7007.4461 1.7045.2379 1.5788-.3271-.0093-.0409-.0296-.0929-.0499-.132Zm1.636-.2398c-.2144-.2881-.769-.6672-1.2773-.5632-.5362.1748-.2848.7974.2957 1.106.6119.3234 1.2257.1654 1.111-.2881-.0221-.0818-.0646-.1673-.1294-.2547Zm1.0945-.2788c-.2607-.2806-.7986-.6412-1.124-.5241-.3661.2137.2514 1.026.9169 1.21.3642.1004.6101-.052.3938-.4368-.0444-.0799-.1072-.1636-.1867-.2491Zm-15.9207.4666c.244-.2677.3641-.6692-.0426-.7268-.6526-.0204-1.3828.7677-1.1369 1.0669.1922.2342.8208.0539 1.1795-.3401Zm1.6619.2026c.0296-.0409.1016-.1506.1128-.2733.0406-.4498-.6323-.526-1.161-.1319-.416.3104-.4899.7546.0462.8401.5157.0353.88-.2695 1.002-.4349Zm2.3016.0966c.1553-.3104.0018-.7472-.6878-.7658-.8984.0409-1.4475.7547-1.0629 1.1283.414.4033 1.4771.1821 1.7507-.3625Zm2.3108.0614c.0813-.3142-.207-.7435-.9595-.7361-.915.0688-1.3273.7416-.8965 1.1115.5083.4387 1.7063.1971 1.856-.3754Zm10.1603-1.1301c-.2958-.277-.7728-.6134-.904-.4907-.0721.1431.2033.4925.4881.7565.3032.2806.6636.4758.8042.4386.1589-.0427-.0112-.3513-.3883-.7044Zm.2663.0241c-.2312-.2007-.5306-.4758-.7673-.6691l-.0148-.013c-.135-.10598-.1886-.14316-.2145-.14687l.0093.02974c.1922.26763 1.1592 1.13753 1.3162 1.15613l.0056-.0056c-.0203-.0632-.3032-.3234-.3345-.3513ZM9.03538 13.6864c.28277-.4386.47142-.8996.45479-.9851l-.00558-.0055c-.09801.0185-.7765 1.1691-.78197 1.1802l-.02032.0354c-.05369.0985-.17939.3308-.09622.3048.06295-.0204.25328-.2286.4493-.5298Zm.7246.4164c.18865-.2937.23855-.6766.0259-.7472-.36783-.0446-.86145.8941-.69323 1.1059.11644.1488.46036-.0353.66733-.3587Zm12.43242.7546c.0276-.3401-.4696-.7918-1.4771-.7564-1.1426.104-1.4752.7676-.88 1.1691.7598.513 2.3016.2435 2.3571-.4127Zm2.9893-.026c-.0296-.3345-.5528-.7955-1.5844-.723-1.0389.1338-1.3051.7714-.7542 1.1673.7819.5632 2.3996.2547 2.3386-.4443Zm2.6713-.2937c-.0924-.3698-.6193-.842-1.5086-.7323-.9372.1859-1.0685.8829-.488 1.2881.8448.5892 2.187.2138 1.9966-.5558Zm2.1611-.3104c-.1609-.4107-.7228-.92-1.4715-.7713-.8763.2639-.7229 1.1728.0388 1.5668.8356.4331 1.6693.0298 1.4641-.7062-.0092-.0279-.0222-.0632-.0314-.0893Zm1.3255-.3513c-.1886-.368-.671-.8866-1.1684-.7174-.5878.3011-.1793 1.3903.6156 1.6394.5934.1877.8782-.2863.5528-.922Zm-20.0729.6302c.1904-.329.1091-.7231-.3161-.7863-.6268-.026-1.09808.751-.8116 1.1023.244.2974.8745.1189 1.1277-.316Zm2.2849.1988c.1701-.3494.0167-.8643-.7135-.9163-.9484.0074-1.4679.8755-.9872 1.3086.44.3977 1.4271.1709 1.7007-.3923Zm2.4551.1729c.1146-.3123-.1294-.7565-.8818-.7788-.8948.0353-1.3107.6877-.9095 1.0855.4621.4572 1.5842.264 1.7913-.3067Zm2.9875.0837c.0739-.277-.2756-.6562-1.1185-.6506-.9576.0576-1.3292.5892-.8985.9293.5584.4387 1.8764.2566 2.017-.2787Zm12.9314-1.4554c-.1719-.2881-.5528-.79-.7506-.6227-.2939.4089.5935 1.5874.9262 1.4906.1701-.0483.098-.4144-.1756-.8679Zm.416.4349c-.257-.4554-.6453-1.0353-.9447-1.4628l.0148.0372c.3586.7193.8171 1.3661.9391 1.4646l.0074-.0037-.0166-.0353ZM7.59525 17.0433c.15717-.5372.20338-1.0557.19591-1.1393-.01295.0073-.01295.0073-.03695.078-.13865.4666-.31614 1.0892-.4252 1.5632l-.00548.0298c-.00558.0464-.00558.0539-.00379.0724l.01485.0037c.06653-.0632.17559-.3178.26066-.6078Zm.76344.4182c.13127-.407.02221-.8717-.2236-.9572-.41973-.0557-.63228 1.0911-.43815 1.3791.16265.2435.52131.015.66175-.4219Zm14.07211.9499c.0611-.4851-.5564-.9796-1.6564-.9369-1.246.1227-1.6416.8718-1.0778 1.3755.7876.7026 2.6288.4089 2.7342-.4386Zm3.372-.1005c.024-.4591-.6174-.907-1.6952-.8289-1.2275.1579-1.5641.8792-.9687 1.3365.8282.6337 2.6214.2936 2.6639-.5076Zm2.9985-.3047c-.0184-.4406-.5306-.9982-1.6138-.8643-1.2275.236-1.4586 1.1207-.7284 1.5854.9113.5781 2.3774.1283 2.3422-.7211Zm2.3497-.4034c-.061-.4832-.5509-1.0836-1.4494-.9071-1.0722.3105-1.1368 1.3717-.3697 1.8308.8597.5149 1.9319-.0296 1.8191-.9237Zm1.6786-.2621c-.0924-.4238-.4788-1.0242-1.1221-.829-.8782.3811-.623 1.6041.1866 1.8774.6231.2063 1.0945-.3217.9355-1.0484Zm-22.86255.5075c.09435-.2919-.07211-.658-.46025-.7175-.54721-.0242-.7247.6505-.46962.9629.25886.3141.79681.1709.92987-.2454Zm2.40885.3736c.0942-.3216-.1719-.6915-.7191-.7324-.7543.0038-.9447.6617-.588.9982.3865.3624 1.1685.2044 1.3071-.2658Zm3.0411.1673c.098-.3904-.3162-.8235-1.0889-.8458-.965.0372-1.3033.7416-.7949 1.1747.5675.4833 1.7304.2807 1.8838-.3289Zm3.6067.1338c.0814-.3754-.4085-.8903-1.5362-.883-1.2515.0762-1.6657.7956-1.0519 1.2566.7653.5743 2.4346.3345 2.5881-.3736Zm14.3846-1.6822c-.0259-.0984-.2552-.9498-.5381-.7249-.3826.4442.0555 1.7287.4457 1.7156.2365-.0056.2144-.5186.0924-.9907Zm-.2127-1.0074-.0518-.1395.0093.0279c.0998.3217.1665.6543.2607.9777.0665.2324.1535.4592.2237.6897-.122-.4703-.2847-1.0986-.4419-1.5558ZM16.0473 7.8965c.9724-.32528.9724-.32528 1.0002-.34201v-.00371c-.2274-.01115-1.5325.41264-1.7248.55762l.0037.00929c.0647-.00372.2458-.06134.7209-.22119Zm.1369.1487c.135-.05019.8133-.30484.8651-.36803l-.011-.01115c-.2755-.01859-1.7674.47026-1.7138.6171.0832.03717.5121-.10967.8597-.23792Zm.4566.14126c.207-.09294.7709-.36431.6544-.40335l-.0203-.00371c-.4548-.0093-1.7711.53718-1.5991.66543.0592.04275.3642.00929.965-.25837Zm3.8877.25837c.0112-.14498-.1145-.42565-.4529-.41264-.3863.04832-.7247.4684-.4565.69145.2661.22304.8817.0855.9094-.27881Zm1.1166-.02789c-.085-.17843-.3919-.41264-.7005-.39033-.3606.05948-.429.46096-.1147.66914.3549.23607.8966.10781.8429-.19888-.0054-.02602-.0166-.05762-.0277-.07993Zm1.1018-.07062c-.1811-.16915-.6267-.39405-.9169-.3606-.2773.06505-.135.41636.1719.60595.3975.24535.9336.21004.8726-.05762-.0055-.02602-.0296-.09666-.1276-.18773Zm.9077-.10038c-.2939-.18029-.8207-.36616-1.0315-.32714-.1886.07064.1683.41264.5527.59108.4622.21376.8357.17287.7487-.01673-.0147-.03531-.0721-.12639-.2699-.24721Zm.6582-.12453c-.3587-.16543-.9392-.33643-1.0815-.29183-.122.0948.8448.63383 1.3329.68588.183.02044.2477-.0316.1627-.13197-.0647-.07621-.2163-.17101-.4141-.26208Zm.3919-.14127c-.4345-.16542-1.002-.30111-1.0667-.2565-.0055.07435.7432.38476.9799.47212.3715.13755.6488.19703.6932.14869.0443-.04646-.1701-.19702-.6064-.36431Zm-7.3263.32343c.2404-.13941.5453-.36804.4308-.41264l-.0518-.00744c-.4567.0093-1.551.50372-1.3995.68959.0851.10223.5398.00929 1.0205-.26951Zm.9225.08364c.1923-.16172.3549-.40707.1424-.42566l-.0352-.00185c-.4806.02602-1.3329.51115-1.1202.71189.1386.13012.6544.01488 1.013-.28438Zm1.0574.04833c.0962-.1487.1442-.42566-.1719-.42379-.4622.03902-1.0593.51301-.7913.72118.2034.15614.7562.02416.9632-.29739Zm5.4462-.60038c-.4067-.13568-.8134-.22677-.9059-.21747l-.0054.00929c.0812.07063 1.5251.59295 1.6175.53347-.0018-.05577-.3678-.21191-.7062-.32529Zm-.1978-.1487c-.4233-.1301-.7524-.20074-.8282-.2026l.0111.01302c.0129.00557 1.6139.51858 1.7063.52415-.0203-.03717-.5176-.22119-.8892-.33457Zm-2.0539-.48141c-.3623-.05204-.6673-.06877-.6876-.05762.0184.00372.024.00372.0665.0093.4954.03532.9835.10408 1.4586.2026l-.0167-.00558c-.0054 0-.4011-.08922-.8208-.1487Zm-4.6937.171c.3993-.07249.66-.10966.8688-.1394.1572-.02231.1628-.02416.1794-.02974v-.00186c-.2274-.02416-1.4716.171-1.7785.29554.013.00372.013.00372.7303-.12454Zm-.0074.08737c.3327-.07064.6729-.10409 1.0001-.20261v-.00557c-.2995-.01116-1.5935.20818-1.8284.3513v.01115c.0685.00744.2145-.02416.8283-.15427Zm.1774.0855c.8707-.22677.8707-.22677.8856-.23606l-.0111-.00558c-.3513 0-1.7211.27882-1.7673.41264.0443.04647.4842-.0632.8928-.171Zm2.7879.18773c-.0389-.10409-.2052-.29554-.3531-.28439-.1831.03717-.3716.36804-.1295.52231.209.13383.5491.02788.4936-.20818l-.011-.02974Zm.6729-.02974c-.1498-.12453-.4881-.28067-.6138-.2658-.1202.03718-.0259.33272.2329.47769.2422.13569.5343.10781.5047-.04647-.0055-.0353-.0333-.09107-.1238-.16542Zm.6027-.05204c-.2663-.1264-.7192-.25837-.8209-.23978-.0794.04275.3716.38475.7505.49443.2386.07062.4086.0446.3587-.05391-.0184-.0316-.0795-.10223-.2883-.20074Zm.4621-.06692c-.3604-.11896-.8966-.23048-.9614-.21003.013.04832.71.3327.8893.39033.5084.16543.5435.0855.5472.07434.0093-.04275-.135-.14125-.4751-.25464Zm.3106-.07993c-.4641-.11895-1.0113-.19516-1.0371-.17472.1053.06692 1.6194.52789 1.6711.42194-.0296-.06691-.3401-.17101-.634-.24722Zm-4.4702.11896c.1516-.05204.6508-.2249.6988-.25836l-.0036-.00743-.0148-.00186c-.4789.01487-1.71.38476-1.5677.47212.0241.01672.1609.04646.8873-.20447Zm.4956.05948c.0054-.00185.4676-.22862.4805-.27695l-.0313-.00743c-.4179.02788-1.4402.40334-1.2793.51301.0591.03718.3345.01115.8301-.22863Zm.5915.03904c.0777-.0632.3198-.28625.2108-.29368h-.0186c-.3457.03532-1.111.41264-.9206.53718.0943.06133.4252-.00187.7284-.2435Zm.6544.01673c.0296-.06692.0832-.30112-.0813-.29368-.2366.03531-.7228.3736-.5416.52973.1257.10968.5083.02046.6229-.23605Zm2.8747-.31971c-.4659-.09479-1.0149-.15985-1.0463-.1394.0129.00558 1.6768.4145 1.8042.37732-.0147-.0632-.4732-.17844-.7579-.23792Zm-.0333-.0855c-.4233-.07249-.8854-.11523-.9132-.10037.0148.00372 1.6435.31784 1.7044.29368-.0425-.03345-.3882-.12454-.7912-.19331Zm-.2125-.08549c-.3809-.05763-.7377-.08179-.7932-.0725.013.00372 1.601.24907 1.6287.24349l-.0073-.00371c-.0998-.03346-.4529-.11153-.8282-.16728Zm-2.3183-.16544c-.0111.02045-.0129.04275-.0203.06321l.0037-.00187c.0646-.02974.1201-.04833.2274-.07807.0387-.01115.0443-.01115.0499-.01486v-.00187c-.0037-.00185-.2274-.02974-.2607.03346Zm-.1664.00186c.0814.02788.122.04833.1442.06135v-.00187c-.0019-.02416.0074-.04647.0037-.06877l-.0166-.01858c-.0426-.01673-.2089-.01302-.22-.00373.0018.00373.0019.00373.0887.0316Zm-.159.0093c.1664.02044.2626.04275.3032.05205-.1442-.05763-.2477-.09852-.5306-.08551-.0222.00185-.0222.00185-.0295.00372.0055.00185.0129.00371.0831.01115.0389.00371.1036.00929.1738.01859Zm-.1405.01486c.2349.01301.3809.02974.4437.03719-.1368-.02418-.5029-.09109-.8744-.05763l-.0111.00371c.1461.01488.294.00745.4418.01673Zm-.1054.01673c.2848.00373.4714.01488.5491.02046-.7376-.0725-1.1037-.02789-1.1443-.02231l-.0037.00185c.1996.01859.3993-.00185.5989 0Zm-.0683.02046c.3179-.00745.5268-.00187.6174 0-.9225-.04647-1.3255.02044-1.3292.02044l-.0019.00185c.0186.00187.0592.00187.209-.00557.1405-.00558.3143-.01301.5047-.01672Zm1.0962-.03904c-.146.00743-.2939.02044-.4769.03904h.0111c.3678-.02418.6489-.02789 1.0389-.02418.1423.00187.1535 0 .1719-.00185-.0591-.01487-.3937-.0316-.745-.01301Zm-.1331-.01301c-.1312.01486-.2477.03532-.3457.0539l.0093-.00185c.2976-.03532.5397-.04834.8355-.05577.0832-.00186.0925-.00371.1091-.00371-.0296-.01116-.3105-.02603-.6082.00743Zm-.1534-.0093c-.0722.01673-.1368.04089-.1923.06135l.0056-.00187c.1682-.03532.3235-.05761.5527-.07621.0592-.00558.0647-.00558.0758-.00743-.0093-.00371-.2458-.02044-.4418.02416Zm-.8338.08179c.3328-.01859.5417-.02044.6434-.02044-1.0224-.01302-1.4217.06691-1.4254.06876.0093.00558.087 0 .3106-.01673.1054-.00743.2847-.02044.4714-.03159Zm.0185.02231c.3254-.02974.5269-.03904.6249-.04275-.9946.02044-1.3976.10408-1.4254.11709.0203.00372.074 0 .3347-.02788.1645-.01672.3069-.0316.4658-.04646Zm.0611.02229c.2069-.02974.39-.05018.5619-.06504h-.011c-1.0963.06319-1.3717.17099-1.3717.17099.0184.00744.0184.00744.8208-.10595Zm.5767.03904c-.0018-.03532-.0148-.06878-.0148-.10408l-.0019.00185c-.0758.0539-.1607.1171-.1903.171-.0481.08736.011.10781.0387.11153.0629.00929.1794-.03532.1683-.1803Zm.1664-.00558c-.0518-.03346-.1054-.06133-.1812-.0985v.00185c.0222.05018.0277.10595.0518.15428.0074.01486.0259.04646.0629.07806.0665.05391.17.06506.1866.01859.0093-.01859.0112-.06691-.1201-.15428Zm.1626-.00929c-.1367-.04275-.2809-.07435-.3438-.08921l.0037.00185c.1646.06691.3125.16914.4788.23048.0924.03346.1923.04461.1812.0093-.0037-.02231-.0795-.07807-.3199-.15242Zm.135-.01487c-.1849-.03532-.3604-.05948-.4788-.07434l.0074.00185c.1313.02602.2237.04833.464.11524.1996.05576.4991.14127.525.10781-.0203-.03532-.2328-.09666-.5176-.15056Zm.098-.01859c-.1719-.02045-.3604-.03903-.5749-.05575l.0092.00185c.2662.0316.4455.06319.7635.12082.2625.04832.4492.08178.4788.06691-.0555-.03903-.3827-.09851-.6766-.13383Zm.0573-.02045c-.1922-.01486-.3993-.02602-.6341-.0353h.0111c.3327.02229.5694.05018.9761.10223.2552.03345.3919.05018.4327.0446-.0259-.02602-.368-.07992-.7858-.11153Zm-1.0852.04647c.2256-.04832.3661-.07063.453-.08177l-.0111.00185c-.9761.10038-1.1591.21004-1.161.21189.0166.01859.0166.01859.7191-.13197Zm.1369.01301c.1294-.0446.2218-.07249.3161-.09478l-.0075.00185c-.7061.11896-.878.21934-.8836.24535.0351.0316.2385-.03717.575-.15242Zm.1553.00745c.0628-.04462.1034-.07436.1589-.10223l-.0056.00185c-.6247.18215-.5509.26766-.549.26766.0037.00186.0869.05204.3957-.16728Zm.8078-.08922c-.2015-.0093-.4067-.01301-.6489-.01301h.013c.3882.01114.6636.03159 1.1313.07434.2311.02044.3032.02602.3495.02416-.0333-.02601-.4511-.06877-.8449-.08549ZM21.0443 7.14c-.1904-.00186-.3882 0-.6193.0093h.013c.3623-.00187.6507.00743 1.1406.0353.2367.01302.2903.01673.3216.01302-.024-.01673-.403-.05205-.8559-.05762Zm.7284.00743c-.4418-.02602-.8911-.02602-1.3477.00187h.0111c.4327-.0186.7543-.01116 1.1296-.00187.1682.00372.1792.00372.2034.00187l.0036-.00187ZM12.0449 29.4634c-.3456-.4146-1.0536-.842-1.1867-.7621-.1609.0948.6821.9479 1.185 1.119.0222.0056.0517.0129.0739.0129.1423.0075.1128-.1486-.0722-.3698Zm8.7258.5929c.0722-.3159-.4363-.645-1.3032-.6283-.8893.0614-1.1352.4554-.7988.7733.5418.5093 1.9763.4107 2.102-.145Zm2.4921-.0632c.1607-.3216-.2589-.6338-1.1407-.5892-.9983.1003-1.3533.5818-.9335.894.5656.4164 1.843.1562 2.0742-.3048Zm2.4605-.1561c.2404-.3253-.0314-.6301-.891-.552-1.039.143-1.5123.6766-1.1093.9702.453.329 1.6306.0818 2.0003-.4182Zm2.0243-.2267c.3013-.3365.1683-.5819-.3031-.5577-.0574.0037-.1332.013-.1905.0223-.9668.1933-1.5455.8309-1.148 1.0725.3494.2138 1.2238-.0725 1.6416-.5371Zm1.4697-.2789c.318-.3253.3549-.5594.0887-.5594-.0646 0-.1423.0185-.194.0297-.8061.2398-1.4846.9926-1.1666 1.1543.2219.1134.8522-.1971 1.2719-.6246Zm.8745-.3122c.2846-.2882.5101-.5744.3734-.5688-.0296.0019-.0777.0223-.1091.0353-.5916.2955-1.3829 1.1598-1.1869 1.2137.1091.0279.5233-.2769.9226-.6802Zm-16.5549.6765c-.2385-.3792-1.026-.6933-1.2201-.5483-.2071.1543.3974.7379.9761.8457.3697.0447.3216-.1747.244-.2974Zm1.9263.1766c-.0758-.2063-.4678-.4461-.9317-.4722-.4585.0038-.379.251-.2219.4071.3753.37 1.1721.4629 1.1665.1338 0-.0222-.0056-.0501-.0129-.0687Zm2.5641.1449c-.0222-.2768-.5232-.5798-1.2331-.591-.6765.026-.7875.3364-.5028.6097.5269.5055 1.7766.4907 1.7359-.0187Zm-3.4496 1.487c-.4807-.2899-1.087-.5742-1.1406-.5334.0147.0967 1.0111.6394 1.4031.764.0314.0092.0388.0092.0554.0092l.0056-.0111c-.0259-.0391-.1349-.1153-.3235-.2287Zm6.1395.4146c.0553-.2063-.3144-.4201-.9558-.4108-.623.039-.7673.2732-.5435.4684.3807.3326 1.403.2937 1.4993-.0576Zm1.7543-.0446c.1737-.2119-.085-.4164-.745-.3829-.7062.065-.9872.3494-.7579.5501.3271.2882 1.2514.1394 1.5029-.1672Zm1.7303-.1078c.22-.1711.1887-.3142-.0813-.3606-.1423-.0242-.305-.0094-.3919-.0019-.8134.1059-1.1905.4628-.9964.632.2384.2082 1.1055.0111 1.4696-.2695Zm1.4235-.1599c.2866-.1785.3624-.3252.1886-.3643-.0906-.0204-.2237-.0019-.2957.0074-.7783.145-1.37.6041-1.1666.7249.1812.106.8707-.1171 1.2737-.368Zm1.0353-.197c.355-.2027.525-.3644.403-.3848-.0443-.0075-.1072.0075-.17.0204-.6638.1823-1.4661.7213-1.3311.7863.0924.0483.6581-.171 1.0981-.4219Zm.1257.0446.6729-.3699.0407-.0242c.2458-.1487.3642-.2268.3974-.2657l-.0073-.0075c-.0222.0056-.0315.0075-.0758.026-.4271.1877-1.3828.7565-1.4605.8346.0518.0074.4271-.1915.4326-.1933Zm-11.0163.2435c-.2883-.2157-.8467-.4796-1.2478-.5297-.0573-.0019-.2292-.0112-.1202.1207.2459.2956 1.5215.8067 1.5492.6208.0074-.0427-.0591-.1207-.1812-.2118Zm1.4494.1301c-.1608-.1822-.6748-.4517-1.2238-.4852-.4547 0-.2496.2175-.2033.2603.3567.3383 1.5343.6729 1.4956.3476-.0056-.0354-.0296-.0762-.0685-.1227Zm1.6601.0762c-.0683-.2063-.536-.4349-1.1258-.4461-.5472.0185-.4917.2268-.3734.3457.3734.3811 1.4733.5001 1.5085.1654.0019-.0204-.0018-.0464-.0093-.065Zm1.7673.9684c.0333-.0651-.1608-.1598-.5305-.1562-.2958.0131-.329.0837-.2791.1283.1238.106.7431.1524.8096.0279Zm.8653-.0205c.1035-.0427.1183-.0873.0425-.117-.0943-.0372-.2681-.0298-.3254-.0279-.3882.0297-.5472.1357-.4807.1933.0907.0818.5787.026.7636-.0484Zm.8559-.0558c.1941-.0501.2921-.104.2422-.1301-.0444-.026-.196-.0129-.2459-.0092-.4659.0502-.819.2026-.8135.2471.0462.0262.5251-.0315.8172-.1078Zm.7024-.078c.0925-.0204.4012-.0929.4567-.1449l-.0056-.0112c-.0295-.0056-.0591-.0038-.1442.0074-.4085.065-1.1627.2881-1.1683.29.1831-.0242.4271-.0595.6101-.0893l.0425-.0073c.0555-.0131.1294-.0261.2088-.0447Zm-4.8675.0447c-.3512-.08-.6969-.1915-1.0538-.2398l-.0332-.0019c.05.0632.7561.197.9872.2398.1442.0242.3383.0539.4825.0762h-.0037c-.1017-.0148-.2255-.0391-.379-.0743Zm.7155.065c-.4179-.1227-.7248-.1896-.9355-.2045-.0629-.0018-.0813.0019-.0905.0149.0443.1059 1.1128.2695 1.2293.2565-.0111-.0093-.0129-.0112-.2033-.0669Zm.8208.0372c-.1128-.0689-.4233-.1692-.7598-.1767-.2016.0038-.1812.0447-.1516.0707.1238.1022.9742.2361.9576.1505l-.0462-.0445Zm1.6083-.3569c.1128-.1432-.1239-.2937-.6396-.277-.5343.0391-.6433.2175-.5176.3327.2495.2268.9927.1562 1.1572-.0557Zm1.3532-.0595c.1701-.106.1646-.2007-.0184-.2454-.1276-.0296-.2792-.0204-.3679-.0148-.6138.0632-.8893.2937-.7691.4127.1646.1617.8744.0204 1.1554-.1525Zm1.2072-.1041c.2496-.1134.3383-.2119.2293-.2509-.0758-.0278-.2164-.0112-.2939-.0037-.6656.0985-1.1444.3978-1.0483.4851.0998.0873.7376-.0613 1.1129-.2305Zm.9281-.1357c.3216-.1282.5065-.2435.4399-.2714-.0332-.0148-.1313.0019-.1793.0112-.5361.1134-1.246.4479-1.2978.5353l.0074.0112c.1017.0223.6655-.1413 1.0298-.2863Zm-1.7988.5223c.3919-.0761.5102-.1003.9631-.2118l.013-.0038c.0906-.0241.1885-.0539.2237-.0707-.0074-.0036-.0093-.0036-.0795.0112-.3771.0837-.745.1934-1.1203.2751Zm2.4199-.6821c.2755-.1078.5934-.2454.6378-.2918-.0129-.0056-.0167-.0075-.0925.0148-.3827.1209-1.4641.58-1.4955.5967.048.0037.2976-.0837.843-.2769l.0258-.0094c.0241-.0112.0574-.0241.0814-.0334Zm-8.966.2397c-.1387-.0576-.8468-.3531-1.1684-.4107-.0351-.0037-.0407-.0037-.0537.0018.0555.1357 1.4346.5837 1.5751.58-.0092-.0167-.0185-.0298-.353-.1711Zm.9927.1172c-.244-.132-.758-.3347-1.1333-.368-.0555-.0019-.1829-.0056-.1146.0706.172.1877 1.4604.5817 1.4346.4386-.0037-.0278-.0721-.078-.1867-.1412Zm1.1868.078c-.1368-.1282-.5694-.3141-1.026-.3327-.305.0037-.2496.1004-.2126.1413.1775.1933 1.2793.5019 1.2959.288.0037-.0352-.0387-.0799-.0573-.0966Zm1.3107.0354c-.0221-.1413-.379-.2993-.8578-.3012-.4011.0167-.4492.1413-.3235.2491.3162.2733 1.222.3123 1.1813.0521Zm-9.613-4.526c-.3013-.4574-.85782-.9201-.9632-.883-.12938.0465.6193 1.093 1.0094 1.2955l.0295.0112c.1368.039.1017-.1542-.0757-.4237Zm11.8204.8085c.1146-.3662-.4123-.7361-1.381-.7007-1.0426.0891-1.3847.6003-.9742.9628.5989.5278 2.1629.355 2.3552-.2621Zm2.8488-.1246c.1885-.3698-.22-.7267-1.2072-.656-1.1037.1338-1.5418.7007-1.1129 1.0519.5472.4461 2.0206.1952 2.3201-.3959Zm2.5456-.2212c.2089-.3253.0795-.7341-.8689-.6227-1.0703.1841-1.5936.8179-1.1887 1.1395.4695.3735 1.6804.0688 2.0576-.5168Zm1.954-.2862c.3051-.42.1387-.6989-.3715-.6227-.0278.0038-.0648.0112-.0925.0167-.9354.2361-1.4993.9759-1.1184 1.2491.3419.2472 1.1869-.0966 1.5824-.6431Zm1.3107-.3327c.3088-.409.3309-.6748.0518-.632-.037.0056-.0832.0205-.1202.0317-.7597.2991-1.3847 1.2211-1.0316 1.3475.2237.08.7377-.2695 1.1-.7472Zm-19.021.5298c-.1275-.2491-.5268-.5707-.8966-.6302-.3605-.0241-.1719.3049-.0221.4814.3605.4256.9187.6227.9631.3402.0111-.0725-.0277-.1581-.0444-.1914Zm1.8506.1523c-.074-.2268-.453-.4944-.9004-.5297-.4455-.0037-.3734.2844-.1848.4814.4122.4275 1.1.4517 1.0981.1245 0-.0241-.0055-.0539-.0129-.0762Zm2.6048.1971c-.0334-.2788-.5048-.5911-1.1573-.6135-.7026.0187-.6858.3979-.4067.6543.5712.5205 1.6157.4052 1.564-.0408Zm2.9726.1041c.0352-.3476-.5269-.7176-1.4179-.7157-.9909.0558-1.0796.5298-.7636.8364.5917.5726 2.1206.487 2.1815-.1207Zm12.0163-1.0911.3624-.4925.0278-.041c.1663-.2435.2162-.3364.2033-.368-.0185-.0037-.0277 0-.0813.0371-.538.4239-1.1721 1.4052-1.0149 1.3942.1071-.0056.4991-.5243.5027-.5298Zm-18.5255 2.7267c-.4012-.3215-.9039-.6468-1.0186-.6784l-.0092.0074c.0092.0167.0332.0595.3457.303l.4936.368c.3253.2306.4289.2807.4677.3012.0333.013.0333.013.0462.0056-.0185-.0577-.2348-.2342-.3254-.3068Zm9.0751.619c.1166-.2658-.279-.5316-1.0536-.5074-.8338.0669-1.0871.4275-.7487.6914.5046.3941 1.6286.2138 1.8023-.184Zm2.1871-.0966c.2199-.2714-.0611-.528-.832-.4741-.8707.1005-1.2719.5075-.9761.7584.3939.3365 1.492.1078 1.8081-.2843Zm1.954-.1673c.2792-.2565.1848-.4592-.2163-.4702-.098-.0019-.1997.0092-.2718.0166-.8984.1451-1.4419.6357-1.1332.8569.3217.2305 1.2257-.039 1.6213-.4033Zm1.4993-.2213c.3105-.2489.3697-.4423.1442-.4702-.0851-.0093-.172.0055-.257.0223-.7894.1859-1.4679.7676-1.2239.9387.2053.145.9189-.1543 1.3367-.4908Zm1.0057-.2564c.3401-.2603.5046-.4591.3993-.4814-.0389-.0093-.0998.0092-.1572.0279-.6655.2416-1.4456.9237-1.3033 1.0073.098.0577.612-.21 1.0612-.5538Zm-14.5491.3773c-.403-.3866-1.1794-.7249-1.3089-.6171-.1423.1208.7266.7807 1.2904.9145.024.0037.0573.0092.0832.0092.1535.0038.1276-.1226-.0647-.3066Zm1.5954.1933c-.2976-.3997-1.2423-.7044-1.4864-.5446-.2551.1673.4752.7491 1.2054.8531.5379.0428.2921-.2955.281-.3085Zm1.8191.1115c-.0795-.2174-.5343-.4628-1.0852-.4833-.4787.0093-.4954.212-.3087.396.4122.4052 1.3976.5167 1.4068.158 0-.0205-.0055-.0502-.0129-.0707Zm2.2794.0763c.0092-.2622-.4788-.5447-1.2182-.5447-.7137.0371-.8468.3345-.5602.5892.5157.461 1.7617.4294 1.7784-.0445Zm8.5926-.4797c.4086-.2991.9465-.7099 1.3367-1.0352l.0129-.0131.0055-.0073c-.013.0036-.013.0036-.0536.0296-.4437.3011-1.3089.9871-1.3607 1.0595.0112-.0019.0186-.0037.0592-.0335Zm-19.424-5.6727c-.11833-.4146-.49173-.9164-.75418-1.0131-.32908-.0558.08496.9461.33825 1.2899.22928.3105.40856.2845.44741.0782.01295-.0651.01842-.1785-.03148-.355Zm13.6469.9405c.0924-.3886-.414-.9034-1.6028-.8588-1.2516.1152-1.6304.7937-1.05 1.2472.7654.5985 2.4772.3495 2.6528-.3884Zm3.2889-.1451c.146-.4497-.3809-.8847-1.4864-.8048-1.2516.1599-1.6915.8531-1.1628 1.2862.697.5744 2.4069.2641 2.6492-.4814Zm2.9393-.2527c.1479-.3922-.1201-.8867-1.1776-.7602-1.2054.2175-1.6693.9888-1.1221 1.3847.6507.4721 2.028.0985 2.2997-.6245Zm2.2573-.3309c.1589-.3958.0221-.8866-.7802-.7323-1.0445.277-1.4641 1.1729-.9114 1.5055.5102.3068 1.4271-.1115 1.6916-.7732Zm1.6065-.3977c.1774-.4462.2088-1.0372-.4289-.8327-.9189.3903-1.3663 1.5911-.8523 1.8457.3772.1877 1.0002-.3049 1.2812-1.013Zm-22.0325.6487c-.0518-.2751-.379-.6227-.76536-.6822-.43636-.0241-.34014.4591-.04811.7732.36237.3923.80607.3365.82077.0037.0019-.0278-.0017-.0668-.0073-.0947Zm2.3792.1003c-.0499-.5854-1.1684-1.0613-1.6158-.6877-.3771.3141.074 1.0372.8874 1.1598.6119.0465.745-.2881.7284-.4721Zm2.8396.2937c.0092-.3717-.5232-.7881-1.3311-.8123-.9114.0298-.9816.5836-.6286.9368.6545.6543 1.9431.4647 1.9597-.1245Zm3.3239.1041c.0499-.3661-.4622-.8718-1.5529-.8662-1.0667.067-1.3717.6487-.9132 1.0874.6858.6543 2.3681.5037 2.4661-.2212Zm14.1054-1.5539c.0924-.2491.2864-.8216.1108-.7528-.0203.0074-.0425.0261-.0609.039-.538.4814-.8411 1.6618-.5971 1.6469.1275-.0075.3382-.3643.5472-.9331ZM8.94106 26.311c-.21623-.4294-.60448-.9628-.6748-.9796 0 .0149.00189.0279.03337.093.14233.2936.35677.6747.51015.9628l.12759.2119c.0758.1227.1017.1506.1257.1766.02032.0167.024.0185.03695.0167.03327-.0502-.05916-.2844-.15896-.4814Zm1.20534.4516c-.1257-.3178-.50843-.671-.80046-.7397-.32719-.0353-.07579.4573.1238.7156.36604.4721.68586.4758.71546.2491.0111-.0856-.024-.1859-.0388-.225Zm10.5689.6487c.0758-.3829-.49-.7788-1.4531-.7602-1.0334.0762-1.3403.6078-.9077.9963.6433.5762 2.2314.4182 2.3608-.2361Zm3.1297-.0706c.1406-.4126-.4066-.816-1.4475-.7602-1.1942.1264-1.5954.7528-1.0741 1.158.6711.5167 2.2961.262 2.5216-.3978Zm3.0023-.1896c.1646-.3587-.1127-.816-1.2386-.7119-1.2128.1766-1.6879.8755-1.1406 1.2491.6359.4368 2.0815.1097 2.3792-.5372Zm2.468-.2769c.1923-.3643.0573-.816-.8393-.6841-1.0963.2306-1.588.9927-1.0944 1.3328.5139.3531 1.5972-.0112 1.9337-.6487Zm1.7932-.3401c.1922-.344.244-.8291-.4326-.6674-.9076.2882-1.3995 1.1748-.9613 1.435.3531.2081 1.0704-.1859 1.3939-.7676Zm1.0667-.3811c.207-.3755.318-.7528.0702-.6989-.0295.0074-.0665.0242-.0943.0353-.6692.3662-1.1813 1.448-.8319 1.5149.2182.0428.6064-.3996.856-.8513Zm-20.3132.7732c-.0648-.2435-.4252-.5465-.8375-.5948-.4381-.013-.3567.3513-.1054.6079.3993.4107.9521.3958.9539.0706 0-.0261-.0054-.0595-.011-.0837Zm2.4679.2695c-.0314-.262-.4326-.5632-.9816-.5929-.6119.0074-.5897.3922-.305.6524.5139.4702 1.3347.3551 1.2866-.0595Zm3.1908.184c.0149-.3754-.5694-.7862-1.4622-.7992-1.0132.0446-1.0797.604-.6804.9553.6748.5931 2.1167.487 2.1426-.1561Zm14.8228-1.2806c.1589-.3161.3789-.7342.5231-1.0576l-.0018.0037-.0222.0371c-.3531.5837-.782 1.3253-.8135 1.5428.0185-.0093.3106-.5223.3144-.526ZM7.7302 22.9819c-.08506-.5148-.34571-1.0483-.44183-1.1022-.08685-.0483-.03516.2621.03327.606l.01474.0744.03705.1746c.12201.5446.19223.7101.26245.79l.01853.0149c.08506.0409.13675-.1914.07579-.5577Zm1.21454.3476c-.02589-.2843-.27907-.6542-.57858-.723-.38267-.0335-.22002.6562.02211.9331.2496.2844.53058.1784.55647-.1115.0019-.0298.0019-.0688 0-.0986Zm11.86666.8737c.074-.4182-.4678-.9815-1.6804-.9555-1.2719.1023-1.6435.8291-1.0427 1.3291.7986.6653 2.5808.4201 2.7231-.3736Zm3.3554-.0856c.0961-.42-.4216-.9665-1.6417-.8995-1.2996.1468-1.7137.8847-1.1277 1.3643.7746.6356 2.5863.3327 2.7694-.4648Zm3.3109-.21c.1091-.4181-.2829-.9573-1.4937-.842-1.3145.2027-1.7378 1.0242-1.0815 1.4666.7857.5334 2.3737.1486 2.5752-.6246Zm2.7212-.3048c.111-.4219-.1626-.9499-1.124-.803-1.1536.2566-1.5324 1.1599-.9095 1.5539.6767.4276 1.8357 0 2.0335-.7509Zm2.1408-.3884c.1202-.4722-.0111-1.1395-.8725-.9295-1.1222.3811-1.4679 1.6265-.7746 1.9852.5915.3048 1.4382-.238 1.6471-1.0557Zm1.0149-.4071c.0795-.3495.1165-.961-.3161-.764-.6896.4145-.8762 1.6562-.4086 1.7398.2699.0483.588-.381.7247-.9758Zm-22.3763.933c-.0056-.2918-.3347-.6524-.7968-.7026-.54532-.0111-.54163.5074-.2495.8254.4214.4591 1.0556.3122 1.0463-.1228Zm2.773.251c.0167-.3569-.4289-.7621-1.1203-.7975-.8152.0168-.8818.5856-.5269.9461.5657.5744 1.6195.3904 1.6472-.1486Zm3.3609.1598c.0425-.3606-.427-.8662-1.4161-.8772-1.0981.0556-1.2276.7192-.7765 1.1226.6582.5873 2.115.4256 2.1926-.2454Zm16.6084-1.9201.0962-.6245.0019-.013v-.0316c-.013.0037-.013.0037-.0352.0427-.2957.6283-.4639 1.7194-.3438 1.7547.0739-.0446.2792-1.1171.2809-1.1283ZM7.48618 19.2125c.06464-.4164-.02221-.8792-.13685-.9647-.03138-.0093-.11644-.0353-.18855.5725-.0259.2156-.0739.7304.01853.8717.08127.1246.23107-.0818.29571-.4108.00379-.0186.00927-.0464.01116-.0687Zm1.2737.4089c.07022-.3717-.1238-.8495-.51573-.9368-.52689-.0428-.61006.9052-.32351 1.2806.26066.3403.74681.1413.83924-.3438ZM20.793 20.35c.0812-.4721-.5343-.9665-1.6695-.9405-1.27.1004-1.6803.8234-1.1128 1.3234.7709.6821 2.6435.4238 2.7823-.3829Zm3.3978-.0651c.0647-.4647-.5713-.9293-1.7119-.8698-1.2866.1375-1.6786.8587-1.087 1.3308.8281.658 2.6842.3513 2.7989-.461Zm3.3534-.2768c.037-.4331-.4492-.9927-1.6434-.8774-1.2904.2044-1.6194 1.0687-.9132 1.5409.8854.5929 2.4864.1765 2.5566-.6635Zm2.8933-.318c.0128-.4832-.4437-1.0891-1.4939-.9274-1.2754.2937-1.4974 1.3289-.6857 1.8104.8725.5185 2.1574-.0019 2.1796-.883Zm1.9891-.3847c-.0129-.4572-.3346-1.1096-1.1406-.9089-1.0482.3718-1.0685 1.5929-.2626 1.9684.6934.3234 1.4272-.2305 1.4032-1.0595Zm1.1111-.422c-.0315-.3829-.2108-1.0501-.6692-.8364-.6915.4499-.477 1.8383.122 1.9424.3974.0688.5934-.5204.5472-1.106Zm-22.8386.9945c.0648-.316-.1885-.6896-.6692-.7398-.63406-.0112-.75049.6394-.42699.9778.34751.3661 1.00379.2229 1.09619-.238Zm2.8008.3215c.0721-.3549-.2939-.7583-.9521-.7917-.8596.0185-1.0112.6932-.6081 1.0595.488.446 1.4512.2787 1.5602-.2678Zm3.5902.1023c.0831-.4238-.4511-.883-1.381-.894-1.1037.0557-1.455.7565-.9003 1.2212.6747.5669 2.1481.3549 2.2813-.3272Zm16.7858-1.2974c-.0332-.3309-.0831-.7714-.1386-1.0986l-.0037-.0185c-.0222-.1245-.0573-.3104-.1091-.2267l-.011.0241c-.2071.6059.085 1.894.2328 1.7881.0704-.0502.0296-.4647.0296-.4684ZM7.19773 20.9318c-.01474-.4107-.10538-.8142-.11275-1.2267l-.00368.4033c.02032.4368.04621 1.0204.09243 1.4554v.0018c.02032-.0278.03516-.3159.024-.6338Zm.94652.4164c.00747-.4629-.24213-.9926-.51574-1.0893-.41415-.0558-.26434 1.1729-.02958 1.513.21265.3068.4751.1041.53247-.2714.00737-.0464.01285-.1059.01285-.1523Zm14.37355.9981c.0758-.4424-.4734-1.0297-1.7045-.9814-1.3699.1356-1.6528.961-1.1111 1.4256.8005.6915 2.6694.396 2.8156-.4442Zm3.4809-.1542c.0758-.4294-.3993-1.0187-1.6619-.922-1.2681.1728-1.7045.974-1.1166 1.4684.7838.6598 2.6269.2974 2.7785-.5464Zm3.1114-.2696c.0702-.4424-.3217-1.0056-1.4124-.8717-1.2479.2379-1.6065 1.1134-.9539 1.5706.7968.5595 2.235.1338 2.3663-.6989Zm2.5346-.3587c.0665-.5074-.2645-1.1376-1.2054-.9536-1.1961.3384-1.4642 1.5112-.6933 1.9424.7414.4108 1.7877-.1338 1.8987-.9888Zm1.5805-.4146c.0499-.5074-.1201-1.1802-.7893-.959-.9428.4312-1.0631 1.8085-.3772 2.1114.5195.2287 1.087-.3308 1.1665-1.1524Zm-23.65924.6748c.01843-.2862-.22002-.6431-.59342-.6989-.48068-.0204-.49553.5762-.21445.8922.29761.3365.78008.2212.80787-.1933Zm2.41614.1301c.0315-.3048-.281-.658-.7986-.6952-.66.0056-.7172.58-.3753.8978.4031.3736 1.1277.2491 1.1739-.2026Zm3.4256.3011c.0499-.3699-.3697-.8941-1.2884-.9201-1.0612.0428-1.1962.7807-.7174 1.2045.6397.5651 1.9153.3847 2.0058-.2844Zm3.494.1097c.0648-.4127-.4381-.9795-1.5529-.9722-1.222.0837-1.4678.8477-.9816 1.3012.7283.6766 2.4106.4591 2.5345-.329Zm14.9521-1.6431c.0148-.2435.037-1.0186-.2496-.7974-.4714.4833-.4585 1.8383-.0961 1.829.1978-.0056.3161-.5224.3457-1.0316Z"/>
  	<linearGradient id="a" x1="4.22881" x2="35.7769" y1="28.7755" y2="28.7755" gradientUnits="userSpaceOnUse">
  		<stop stop-color="#47B547"/>
  		<stop offset="1" stop-color="#FFDA5A"/>
  	</linearGradient>
</svg>