<svg xmlns="http://www.w3.org/2000/svg" viewBox="0 0 40 40">
	<path class="bg-logo" fill="#4D4D4F" d="M0 0h40v40H0z"/>
	<path fill="#D3D5D6" d="M8 23.2388h6.54l-4.14-10.44-2.4 10.44Z"/>
	<path fill="#ADAFB2" d="m8.53979 8 1.86001 4.8 4.14 10.44 2.4-10.44-1.86-4.8H8.53979Z"/>
	<path fill="#75BEE9" d="m15.5 23.2388 2.46-10.44 4.08 10.44H15.5Z"/>
	<path fill="#0072BC" d="m24.4398 12.8-2.4 10.44-4.08-10.44-1.92-4.8h6.54l1.86 4.8Z"/>
	<path fill="#F37164" d="m23.0601 23.2388 2.4-10.44 4.1399 10.44h-6.5399Z"/>
	<path fill="#ED1B35" d="m31.9998 12.8-2.4 10.44-4.1399-10.44-1.86-4.8h6.4799l1.92 4.8Z"/>
	<path fill="#fff" d="m12.26 29.0002-1.92-4.02H8v6.72h1.68v-4.68l2.16 4.68h.72l2.22-4.68v4.68h1.68v-6.72h-2.34l-1.86 4.02Zm8.88-2.94c.78 0 1.44.42 1.8 1.02l1.38-.6c-.54-.84-1.5-1.74-3.18-1.74-2.28 0-4.02 1.5-4.02 3.66 0 2.22 1.8 3.66 4.02 3.66 1.62 0 2.58-.84 3.18-1.74l-1.38-.6c-.36.6-1.02 1.02-1.8 1.02-1.32 0-2.34-.96-2.34-2.28 0-1.44.96-2.4 2.34-2.4Zm4.02-1.2v7.08h1.62v-5.76h3.54v5.76H32v-7.08h-6.84Z"/>
</svg>