<svg xmlns="http://www.w3.org/2000/svg" viewBox="0 0 40 40">
	<path class="bg-logo" fill="#5B6DB0" d="M0 0h40v40H0z"/>
	<path fill="#E2A250" d="M3.16515 22.5882s3.44974-5.9886 18.22405-5.9886c5.7143 0 11.7076 2.1249 12.3114 2.4514.6039.3273 1.2085.3687 1.9569-.3843.8711-.8758.9411-1.4538.9411-2.3819 0-1.0679-2.5265-4.2848-9.2161-4.2848-6.6904-.0008-20.68135 4.0739-23.9267 9.0602-.81289 1.2492-.29065 1.5288-.29065 1.5288v-.0008Z"/>
	<path fill="#fff" d="M36.8351 17.9531s-3.4498 5.9894-18.2233 5.9894c-5.7143 0-11.70762-2.1248-12.31146-2.4514-.60384-.3273-1.19602-.4218-2.00891.4203-.74295.7703-.96988 1.2179-.87196 2.3819.12901 1.5178 2.50862 4.2496 9.19903 4.2496 6.6904 0 20.6806-4.0747 23.9259-9.0602.8137-1.2491.2899-1.5296.2899-1.5296h.0008Z"/>
</svg>