<svg xmlns="http://www.w3.org/2000/svg" viewBox="0 0 40 40">
	<path class="bg-logo" fill="#E60000" d="M0 0h40v40H0z"/>
	<g fill="#fff">
		<path d="M20 15.6406c-2.56 0-4.72 2.16-4.72 4.72 0 2.56 2.16 4.72 4.72 4.72 2.56 0 4.72-2.16 4.72-4.72 0-2.56-2.16-4.72-4.72-4.72Z"/>
		<path d="M24.64 9c-1.68 0-3.2.32-4.64.96-1.44-.64-2.96-.96-4.64-.96C9.12 9 4 14.12 4 20.36c0 6.24 5.12 11.36 11.36 11.36 1.68 0 3.2-.4 4.64-.96 1.44.64 2.96.96 4.64.96C30.88 31.72 36 26.6 36 20.36 35.92 14.12 30.88 9 24.64 9ZM20 30.6c-5.68 0-10.24-4.56-10.24-10.24 0-5.68 4.56-10.24 10.24-10.24 5.68 0 10.24 4.56 10.24 10.24 0 5.68-4.56 10.24-10.24 10.24Z"/>
	</g>
</svg>