<svg xmlns="http://www.w3.org/2000/svg" viewBox="0 0 40 40">
	<path class="bg-logo" fill="#571E76" d="M0 0h40v40H0z"/>
	<path fill="#FFFBFE" d="M12.7273 18.7972c.1237 0 .3094-.0619.4951-.1238.1857-.0619.4333 0 .619-.1238.0619 0 .1238.0619.1857.0619v.2476h.0619c.1237-.1238.1856-.3095.2475-.4333l-.0619-.0619.1857-.3713c-.0619-.0619-.0619-.1238-.1238-.1857.0619-.0619.1857-.0619.3095-.0619 0-.1857.0619-.4333 0-.619-.0619-.1857 0-.4332 0-.6189-.1238-.1238-.2476-.3095-.3714-.4333.1238-.1238.2476-.1857.3714-.2476-.1857-.2476-.3095-.557-.3095-.8665-.0619 0-.1856-.0619-.2475-.0619v-.3095h-1.1142c-.3713.0619-.7427.0619-1.1141.1857-.1857 0-.3095.1238-.4951.1238-.0619 0-.1238.0619-.1857.0619l-.0619-.1238h-.1238v.0619h.1238v.1238c-.3095.1238-.619.1857-.8666.4332-.1238.1238-.37133.1857-.55702.2476-.74274.4333-1.4236.9285-2.04255 1.4236-.12379.0619-.37137.1238-.37137.3095.37137-.1238.74274-.3095 1.11412-.4952-.0619.1857-.24759.3095-.43327.3714.24758.2476.55706.4333.86653.3095.1238.0619.24759-.0619.37138-.1857h.24758c0-.0619.06189-.1238.06189-.1857h.24759c.06189-.0619.12379-.1857.12379-.2476h.24753c.0619-.1857.2476-.3713.3095-.6189h.1857v-.1857h.1238c.1238-.1238.1857-.2476.2476-.3714h-.1857c-.0619-.1238-.1238-.2476-.1857-.3095h.3095c.4333-.3713 1.0522-.4332 1.5474-.6189.3095-.1238.557-.1238.8665-.1238l.0619.0619c-.1857.1857.1238.3714.2476.4333 0 .0619-.0619.1237-.0619.1237.0619.1238.0619.3714.0619.5571-.1857.1238-.3714.2476-.4333.4952.1238 0 .2476.1238.3095.2476-.1238.0618-.1857.1237-.2476.1237.1857.1238.3095.1857.4333.3095-.1238.3095-.4952.4952-.5571.8666-.0619.1856-.2476.4332-.3713.6189h-.4333c-.3714.1238-.7428.2476-1.0522.4333-.3714-.0619-.5571.2476-.8666.3095-.0619-.0619-.1238-.1857-.1238-.2476h-.0619v.2476c-.0619 0-.1238.0619-.1856.1237 0 .1238-.0619.2476-.0619.3095-.06194-.0619-.12383-.1238-.18573-.1238 0 .1238-.06189.2476-.06189.3095-.30948 0-.55706.1857-.86654.3095v.1238c-.0619-.0619-.18569-.0619-.24758-.0619h-.0619c-.06189.1238-.06189.2476-.06189.3095-.0619.0619-.18569.1238-.30948.1238-.0619 0-.0619.0618-.0619.0618-.18568.0619-.37137.1857-.49516.3095l.0619.1238c.24758-.0619.43326-.1857.68085-.2476.30947-.1857.49516-.3713.74274-.4332.24758-.1238.43327-.3095.68085-.4333.12379-.1238.37133-.1238.49513-.2476.2476-.1857.4952-.2476.7428-.3714l.557-.3713h.2476c0-.0619.0619-.1238.0619-.1238.3095-.0619.5571-.1238.8047-.2476Zm1.3617-4.2089v-.1238c-.0619.0619-.1238.1238 0 .1238Zm12.998 3.3424c-.0619 0-.1238.0619-.1857.0619l.1857-.0619c.1238 0 .2476-.1857.2476-.3095h.1238v-.1238h-.1857c-.0619.1238-.1238.2476-.1857.4333Zm-20.48739-.3095c-.0619.1238-.12379.1857-.18569.557h-.12379c-.12379.1238-.18568.2476-.37137.2476-.0619.0619-.12379.1238-.12379.1857-.12379 0-.18569.1238-.24758.1238l-.12379.0619-.0619.1238c-.12379 0-.24758.0619-.30948.1238 0 .1857-.12379.3095-.24758.4332-.06189.2476-.30948.4333-.37137.6809 0 .0619-.12379.1238-.12379.1238v.1857c-.12379.0619-.18569.1238-.30948.1857h.18569c0 .0619.06189.1856.06189.2475h.12379c0 .1857.18569.2476.30948.2476v.1238c.0619-.0619.12379-.1238.18569-.1238.06189.1238.18568.2476.30947.3095v-.0619c.12379 0 .24759 0 .37138.0619.06189-.0619.12379-.1238.18568-.1238-.12379-.0619-.30947-.0619-.43327-.1857l-.24758-.2476c-.24758-.1856-.49516-.557-.37137-.9284.18569-.6189.74275-.9903 1.17601-1.3617.24758-.1857.43327-.4952.74275-.4333v-.2475h.24758c.0619-.1857.12379-.3714.24758-.5571l-.06189-.0619c-.12379.1238-.24758.2476-.43327.3095ZM27.8297 14.155c-.1856 0-.3094.1238-.4332.2476-.0619 0-.1238-.0619-.1857-.0619.1238-.1238.1857-.2476.2476-.3095-.1238.0619-.3095.1238-.4333.1857-.0619-.0619-.0619-.1238 0-.1238-.1857.1238-.3714.3095-.4952.4952-.1856 0-.3094-.1238-.4332 0-.2476.1857-.4333.3714-.7428.3714-.1857.3095-.6189.3095-.9284.557-.0619 0-.1238-.1238-.1238-.1238v.1857c-.1238.1857-.3095.3095-.4952.4333 0 .0619.0619.1238.0619.1857.0619 0 .0619.1238.0619.1238h.3095v.2476c-.1238 0-.1857.0619-.3095.0619 0 .0619-.0619.1237-.1238.1237.0619.0619.1238.1238.1857.1238v.1238c.0619.0619.1857.1238.2476.1238.1238 0 .1238-.1857.1857-.2476.1857 0 .2476-.1238.3095-.2475-.0619.0619-.1857.1237-.2476.1237.0619-.0618 0-.2475.1238-.2475s.3095.0619.4332.1238c0-.1238-.0618-.2476-.1237-.3095h.4332c-.1857-.1238-.3713-.1857-.4332-.3714.1238-.0619.3094 0 .4332 0 .0619-.1857 0-.3095-.0619-.4333.2476-.1238.5571-.1238.8047.0619l.1238-.1238c.0619 0 .1238.0619.1856.0619.0619-.1238.0619-.1856.1238-.3094 0-.0619.1238-.0619.1238-.0619v-.1238h.3095c.0619.1857.0619.3713.1857.557.0619-.0619.0619-.1857.1238-.2475 0 0 .0619.0618.1238.0618v-.1856c-.0619-.0619-.1857-.1238-.2476-.1238.0619-.1857.1857-.4333.4333-.4333-.0619 0-.1238-.1238-.1238-.1238h.2476c.0618-.1238.1237-.2476.1237-.3714Zm-12.998 14.0503h-.2476c-.1857-.0619-.3095-.0619-.4332-.0619-.1238-.1857-.3714-.3095-.5571-.4952.0619-.1237.1238-.1856.1238-.2475.0619.0619.1857.1238.2476.1856v-.2475c.0619-.0619.1238-.1238.1857-.1238-.1238-.0619-.3095-.1857-.4333-.2476l-.1238.0619c0 .1238.0619.2476.1238.3095-.2476 0-.3714-.1857-.4333-.3095-.1857.1238-.2476.2476-.2476.4333-.1238-.0619-.1857-.1857-.2475-.2476v-.2476c-.1857.0619-.3095.1238-.4333.1857-.0619 0-.1238 0-.0619.0619-.1857 0-.2476.1857-.2476.3095.0619-.0619.1238-.1238.1857-.1238 0 .0619.0619.1238.1238.1856-.1238.0619-.3095.1238-.4333.1238.1238.0619.2476.1857.3095.2476h-.3095c.0619.0619.1238.1238.1238.1857.1238 0 .1857.1238.2476.2476.1238 0 .1857.1238.3095.1857h.1857v.0619l-.0619.1238c.1856.1856.4951.1238.7427.1238l.1238.1237c.0619-.1856.3095-.1237.4333-.1237.0619-.0619.1856-.1238.2475-.1857 0 .0619.0619.1238.1238.1238.0619-.1238.0619-.3095.0619-.4333.0619.0619.1857.0619.3095.0619-.0619.0619-.1238.1238-.1857.1238v.3713c.1238-.0618.3095-.0618.4952-.0618l.0619-.0619c.0619-.1238.1238-.1857.1857-.2476-.1238-.1238-.4952-.1238-.4952-.3714Zm-8.23209-6.8704c-.24758.1238-.49517-.1857-.74275-.1238l.24758.2476c-.06189.0619-.18568.1238-.24758.1238h.61896c.12379-.0619.30948-.1238.43327-.1238 0-.1857-.18569-.1857-.30948-.1238Z"/>
	<g fill="#F3F2F4">
		<path d="M10.2515 15.2106c.0619.1238.1238.2476.1857.3095h.1857c-.0619.1238-.1857.2476-.2476.3714h-.1238v.1856h-.1857c-.0619.2476-.18566.4333-.30945.619.24755-.1238.49515-.1238.68085 0 0-.0619.0619-.1238.1238-.1238v-.2476c.0619 0 .1238.0619.1857.0619.0619-.0619.1238-.1857.1857-.2476-.0619-.0619-.1238-.1237-.1857-.1237.0619 0 .1238-.0619.1238-.1238v-.1238c.1238-.0619.1857-.1238.2475-.1857v-.2476l.3714-.1857.0619.1238c0-.0619.0619-.0619.0619-.0619.0619.0619.1857.1238.2476.1238-.0619-.0619-.1238-.1238-.1238-.1857.1238-.1238.2476-.2476.4333-.1238v-.1238c-.4952.1238-1.0523.2476-1.6093.3095h-.3095Zm1.9188-.3095c.0619 0 .0619 0 .1238-.0619h.0619c-.0619 0-.1238 0-.1857-.0619v.1238Z"/>
		<path d="M12.6035 18.5513c.1857-.1856.3095-.3713.3714-.6189.1237-.3095.4332-.5571.557-.8666-.1238-.1237-.3095-.2475-.4333-.3094.1238-.0619.1857-.1238.2476-.1238-.0619-.1238-.1857-.1857-.3095-.2476.0619-.1857.2476-.3714.4333-.4952.0619-.1857 0-.3713-.0619-.557 0-.0619.0619-.1238.0619-.1238-.1238-.0619-.4333-.2476-.2476-.4333l-.0619-.0619c-.3094 0-.4951 0-.8046.1238.1238 0 .2476 0 .3714-.0619.0619.0619.0619.1238.0619.1238-.0619.0619-.1857.0619-.2476.0619v.2476c.0619-.0619.1857-.0619.2476-.0619v.1238h-.1857c0 .1857.1857.1857.3095.2476v.3713c-.1238.0619-.3714.0619-.3714.1857-.0619.1238 0 .1857 0 .2476-.1238.1238-.1857.3095-.2476.4333-.0619 0-.1238.0619-.1857.0619.0619.0619.1238.0619.1857.1238l-.1857.557c.0619 0 .1238-.0619.1857-.0619.1857.2476.1238.5571 0 .8047h-.4333v.1238c-.1238 0-.2475.0618-.3094.1237v-.0619c-.0619.0619-.1238.0619-.1857.0619-.1238-.0619-.2476-.1856-.3714-.0619-.0619 0-.1238-.0618-.1857-.0618v.1856c-.1238-.0619-.1857-.1238-.3095-.1856-.0619.0618-.0619.1237-.1238.1856-.1237-.1238-.1856-.2475-.2475-.3713.1856.0619.4332.1238.6189 0 .1857.0619.3095.1238.4333.1857.0619-.0619.1857-.0619.2476-.0619-.0619-.0619-.0619-.1238-.1238-.1238 0-.1238-.0619-.3095-.1238-.4333l-.1857.1857c-.1238-.0619-.1857-.1238-.2476-.1857l-.1857.1857c0 .0619.0619.1238.0619.1238h-.2476c0-.0619-.0619-.1238-.0619-.1238l.1857-.1857c-.1238-.1238-.2475-.3095-.3713-.3714h-.1238v-.2476c.0619.0619.1857.1238.2476.1857v-.3713h-.55711c-.06189.0619-.12379.1856-.12379.2475h-.24758c0 .0619-.06189.1238-.06189.1857h-.24759c-.06189.1238-.18568.2476-.37137.1857-.37137.1238-.68085-.0619-.86653-.3095.18568-.0619.37137-.1857.43326-.3713-.37137.1238-.74274.3713-1.11411.4951-.1238.1857-.18569.3714-.12379.4952h-.24759v.2476c-.30947-.0619-.55706.2476-.74274.4332-.49517.3714-.99033.7428-1.17601 1.3617-.1238.3714.12379.6809.37137.9285.06189-.0619.12379-.1857.12379-.2476-.0619-.0619-.18569-.0619-.30948-.1238-.06189-.0619-.12379-.1857-.12379-.2476.0619-.1238.18569-.3095.24758-.4333.18569.0619.37137.0619.55706-.0618-.18569-.1238-.43327-.1238-.55706-.3095.12379-.0619.30948-.1238.43327-.2476h.43327c-.0619-.0619-.12379-.1857-.12379-.1857.06189-.0619.18568-.1238.30947-.1857-.06189-.0619-.12379-.1857-.12379-.2476.12379.0619.30948.1238.43327.1857-.06189 0-.18568.0619-.24758.0619h.49516v.4333c.12379.3095.49517.2476.74275.3095l-.12379.1238c.06189.0618.06189.1237.06189.1856l-.12379-.1237c-.06189.0618-.12379.1237-.12379.1856h-.55706c.12379.1238.24758.1857.37138.2476 0 .1857 0 .4333.24758.4952.06189.0619.06189.1857.06189.2476-.12379.0619-.30947.1238-.43327.1238.0619-.1238.12379-.2476.24759-.3095-.24759-.1238-.37138-.3714-.49517-.619l-.24758.2476c.12379.1238.30948.2476.43327.3714v.1238c-.0619-.0619-.12379-.0619-.18569-.0619l-.18568.1857c-.0619-.1238-.12379-.1857-.18569-.2476-.18569.0619-.43327.1238-.43327.4332h-.43327c.12379.1238.30948.1857.43327.1857-.06189.0619-.12379.1238-.18568.1238.06189.0619.18568.1238.24758.1238.06189-.0619.18568-.1238.24758-.1238-.12379-.0619-.18569-.1238-.24758-.1857.24758 0 .49516.2476.74274.1238.12379-.0619.30948-.0619.30948.1238.0619-.0619.18569-.0619.30948-.0619.12379 0 .30947-.1238.43326-.1857l-.06189-.1238c.12379-.1856.30948-.2475.49516-.3094.0619 0 .0619-.0619.0619-.0619.12379-.0619.24758-.0619.30948-.1238.06189-.1238.06189-.2476.06189-.3095h.0619c.06189.0619.18568.0619.24758.0619v-.1238c.30948-.1238.55706-.3095.86653-.3095 0-.1238.0619-.2476.0619-.3094.0619.0618.12379.1237.18569.1237 0-.1237.06192-.2475.06192-.3094.0619 0 .1238-.0619.1857-.1238v-.2476c.0619.0619.0619.1238.0619.1857.3094-.0619.557-.3714.8665-.3095.3095-.2476.6808-.3714 1.0522-.4333.1857-.0619.3095 0 .4333 0Zm-2.2902.2476v.2476h-.1856s0 .0619.0619.0619h-.0619c0-.1238-.0619-.3095-.0619-.4333.0619-.0619.1857-.0619.2475-.0619.0619 0 .1857.0619.2476.0619-.1238.0619-.1857.1238-.2476.1238ZM22.94 17.004c-.0619-.0619-.1857-.1857-.3095-.1857.0619.0619.0619.1238.0619.1857.0619.0618.1857 0 .2476 0Zm-3.8994 4.5802c.1238.1238.3095.2476.4952.2476.0619-.0619.0619-.2476.1238-.3095-.0619-.0619-.1857-.1238-.2476-.1857 0 .1238 0 .1857.0619.3095-.1238 0-.3095-.0619-.4333-.0619Zm10.2746-8.9748v.1857c.0619-.1238.1238-.1238.1857-.1238-.0619 0-.1238 0-.1857-.0619Z"/>
		<path d="M33.2764 12.4235h-.3094s-.0001-.0619-.0619-.0619h-.3714c-.1238.0619-.3095.1238-.4333.0619v-.2475c-.3095-.0619-.4333.3713-.6808.4332-.1238.0619-.2476.0619-.3095.0619 0-.0619 0-.1238-.0619-.2476v.2476c-.2476-.1238-.5571 0-.7428.1238l-.0618.0619c0-.0619-.0619-.1238-.0619-.2476-.1238.0619-.2476.0619-.3714.1238 0 .0619-.0619.1857-.1238.2476v-.2476c-.0619 0-.0619 0-.1238-.0619 0 .0619-.0619.1238-.1238.1857-.3095.1857-.557.3714-.9284.3095v-.0619h.3095v-.1857c-.0619.0619-.1857.2476-.3095.0619v-.0619l.0619-.0619c-.1238.0619-.2476.1238-.3095.2476h.1238c.1238.2476-.1857.2476-.3095.1857v.0619c-.1238.0619-.3095.1238-.4333.1857v-.1857l-.1237.1238s-.0619.1238-.1238.1238h.2475c-.1856 0-.3713 0-.4332.1856h-.0619v.1238c.1238-.0619.3095-.1238.4332-.1857-.0618.0619-.1237.1857-.2475.3095.0619 0 .1238.0619.1857.0619.1237-.1238.2475-.2476.4332-.2476 0 .1238-.0619.2476-.1238.3714h-.2476s.0619.1238.1238.1238c-.2475 0-.3713.2476-.4332.4333.0619 0 .1857.0619.2476.1238v.1856s-.0619-.0619-.1238-.0619c-.0619.0619-.0619.1857-.1238.2476-.1238-.1238-.1238-.3713-.1857-.557h-.3095v.1238l-.1238.0619c-.0619.1237-.1238.1856-.1238.3094-.0619 0-.1238-.0619-.1857-.0619l-.1238.1238c-.2475-.1857-.557-.1857-.8046-.0619.0619.1238.1238.2476.0619.4333-.1238 0-.3095-.0619-.4333 0 .0619.1857.2476.2476.4333.3714h-.4333c.0619.1238.1238.1857.1238.3095-.1238-.0619-.2476-.1238-.4332-.1238-.1238 0-.0619.1856-.1238.2475.0619-.0619.1857-.0619.2475-.1237-.0618.1237-.1237.2475-.3094.2475-.0619.0619-.0619.2476-.1857.2476-.0619 0-.1857-.0619-.2476-.1238v-.1238c-.0619 0-.1238-.0619-.1857-.1238v-.3094c.0619 0 .1238-.0619.1857-.1238v-.1238c0-.0619-.0619-.1238-.0619-.1857 0 .0619-.0619.1238-.0619.1857-.1238 0-.2476 0-.3714.1238 0 .0619.0619.1238.1238.1857-.1238 0-.3094.0619-.4332.1238l.1238-.1238c-.1238.0619-.3095.1238-.4333.1856 0 0 .0619.0619.0619.1238.1238 0 .2476-.0619.3714 0l.0619.1238v.1238c0 .0619-.0619.0619-.1238.1238v.3095s-.0619 0-.1238.0619c0-.0619-.0619-.1238-.1238-.2476-.3095 0-.4333.3095-.5571.4952-.1857.0619-.3095.1856-.4332.3094 0 0-.0619-.0619-.0619-.1238-.0619.2476-.2476.4333-.4333.5571-.1238 0-.2476-.0619-.3095-.0619-.0619 0-.1238.0619-.1857.1238 0-.0619-.0619-.1238-.0619-.1857.0619 0 .1238-.0619.2476-.1238s.1857-.1238.2476-.3095v-.2475c-.2476.3094-.6809.4332-.9284.7427-.3714.3714-.8666.6809-1.1761 1.0522h-.2475c0 .0619-.0619.1238-.0619.1857h-.0619l-.1238.1238-.1857.1238c0-.1857 0-.4333-.1238-.619-.0619-.1237-.1857-.1237-.3095-.1856h-.2476s.1238.0619.1238.1238c.0619.1237.1238.3094.2476.4332 0 0-.0619.0619-.0619.1238-.1857-.0619-.4332-.1238-.557.1238.0619.0619.1238.1857.2475.2476-.0618 0-.1856 0-.2475.0619.3094 0 .4332-.1857.6808-.3714 0 .1238.0619.2476.1238.3095-.0619.1238-.1857.3095-.1238.4333.0619.1856.0619.4332 0 .6189 0 .0619 0 .1238-.0619.1857h.0619c0 .0619-.0619.0619-.0619.1238v.1857s-.0619.0619-.1238.0619c0 0 0 .0619.0619.0619 0 .0619-.0619.1238-.0619.1856.1238 0 .1857.0619.3095.0619.1238-.0619.2476-.1237.3714-.1237l.0619-.0619c-.0619 0-.1238 0-.2476.0619.0619-.1238.0619-.3095.0619-.4333h.1238c0-.0619.0619-.0619.0619-.1238l.1238-.0619c.0619-.0619.1238-.1238.2475-.1857 0 .1238-.0618.3095-.0618.4333h.2475c-.0619 0-.1238-.0619-.1857-.1238.2476-.1238.4952-.2476.8047-.2476s.4333-.2476.7427-.3095c0-.0619-.0619-.1238-.1238-.1238.2476 0 .4333-.0619.619-.1856v-.3714l-.3714.1857v-.1238s-.1238 0-.1238-.0619v-.1238h.3095s-.0619-.0619-.0619-.1238c.2476-.0619.4333 0 .619.0619v.1238c.1238.0619.1857.1238.3094.1857v.3094c.1857-.2475.3095-.4332.4333-.6808h.2476v-.2476c-.1238.1238-.3095.1857-.4333.3714-.0619.1238-.1857.1238-.3094.1857v-.5571l.1856-.1857c-.1238 0-.2475 0-.3713-.0619.1238-.4332.557-.4951.8665-.7427.3095-.1238.4333-.4333.7427-.619 0 0 .0619.1238.0619.1857.2476.0619.4333.1238.6809 0l-.1238-.1238c0-.0619.0619-.0619.1238-.1238 0 0 .0619.1238.1238.1857v-.1238c-.1857-.1857 0-.4332.0619-.6189.1238.1238.1857.2476.3095.3095.1237-.0619.3094-.1238.4332-.1238 0-.1238 0-.2476.0619-.3095h-.2476c.0619-.0619.1857-.1238.2476-.1238 0 .0619.0619.1238.0619.1857.2476-.2476.6809-.3095.8047-.6809h.4332c.0619-.2475.1857-.4332.3714-.557.1238 0 .2476.0619.3095-.0619.1238-.1857.1857-.4333.3094-.619.1238 0 .2476 0 .3714-.0619 0-.0619-.0619-.1857-.0619-.2475.0619 0 .1238 0 .1857-.0619v.1237s.0619 0 .1238.0619v-.2475c.1857.1238.4333.1856.6809.1238l.1237.1237c.0619 0 .1238-.0619.1857-.0619.1238-.1856.3095-.2475.5571-.3094l.1857-.3714c.1238 0 .2476-.0619.3095-.1238h.1237c0-.0619.0619-.1238.1238-.1857h.2476c.1238 0 .2476-.0619.3095-.0619l.0619-.1238c0-.0619-.0619-.1857-.0619-.2475v-.1857c.0619 0 .1238-.0619.1857-.0619.0619 0 .1238-.0619.1857-.0619.0619-.0619.1238-.1238.2475-.1238.2476 0 .3095.2476.4333.4333.0619-.0619.1238-.1238.1238-.1857h.2476v-.1857s-.0619-.0619-.0619-.1238h.1857c0-.4333.4951-.4333.8046-.4333-.1238-.0619-.1238-.1238-.1238-.2476Zm-13.5551 7.1799c-.1238 0-.0619-.1857 0-.1857.1238-.0619.1238.1857 0 .1857Zm.3095-.1857h-.1238v-.1238h.1857c.0619-.0619.1238-.1857.1857-.2476 0 .1857-.1238.2476-.2476.3714Zm.3714-.6808c-.0619.0619-.1238.1238-.1857.2476-.1857.0618-.2476.2475-.4333.2475.0619-.1857.3095-.1857.4333-.2475v-.1857c.1857 0 .2476-.1857.3714-.3095h.2475c-.1237.1857-.3094.1857-.4332.2476Zm9.0986-6.0658s.0619 0 0 0c.0619 0 .0619 0 0 0 0 0 .0619 0 0 0ZM12.5415 26.5357c-.1857.0619-.1857.3095-.3095.4333-.1238-.0619-.1857-.1857-.1857-.3095-.1238.1238-.2476.2476-.3095.4333 0 .1237.0619.3094.1857.4332.1238 0 .3095-.0619.4333-.1238-.0619-.0619-.1238-.1238-.1238-.1857-.0619 0-.1238.0619-.1857.1238.0619-.1238.0619-.3094.2476-.3094.0619 0 .1238 0 .1857.0619.1238-.0619.2475-.1238.4332-.1857-.1857-.0619-.2476-.2476-.3713-.3714Z"/>
		<path d="M18.7311 26.2889c-.0619 0-.1238 0-.1856.0619.0618-.1238.1237-.3095.1237-.4951-.1237 0-.1856.1237-.3094.2475 0-.0619 0-.1238-.0619-.1857.0619 0 .1857-.0618.3094-.0618-.1237-.1857-.3094-.1238-.4951-.1238l-.1857.1856c0 .0619.0619.1238.1238.1857-.2476-.1238-.4952-.1238-.7428 0-.1856-.1238-.3094-.0619-.4951 0-.1857 0-.4333-.0619-.619-.1238-.1238.1238-.2476.2476-.3713.3095 0-.0619.0618-.1857.0618-.2476h.1857c0-.1856.0619-.4332-.0619-.6189-.0619-.2476-.3713-.2476-.557-.2476-.0619.1238-.1857.2476-.2476.3095-.1238 0-.2476-.1238-.2476-.3095 0 .0619-.0619.1238-.1238.1857h-.3095c.1857.1238.3714.1857.4952.3095-.2476 0-.4952-.1238-.8046-.1238-.0619 0-.1238 0-.1857-.0619 0-.0619.0619-.1238.0619-.1857 0-.1857 0-.4333-.1238-.619-.0619.0619-.1238.1238-.1238.1857-.1238 0-.3095.1238-.4333.1857h-.2475v-.3095c-.1238 0-.1857.0619-.3095.1238-.1238 0-.2476-.0619-.3095-.1238.0619-.0619.1857-.1238.2476-.1856-.0619 0-.1238-.0001-.1857-.0619.1238 0 .2476-.0619.3714-.1238h.1857s0-.1238.0618-.1238h-.3713v-.3714c-.1857.2476-.4333.4952-.4333.8665-.1238-.1238-.2476-.2475-.4333-.3713 0 .0619-.0619.0619-.1238.1238-.0618.1237-.1237.4951.1238.4332v.1238c-.1238-.0619-.2475-.1238-.3713-.1238 0 .1238 0 .2476.1238.3714-.0619 0-.1238.0619-.1857.1238v.3714c.1238.1238.3094.2475.4332.3713-.0619 0-.1238.0619-.1856.1238 0 .1238-.0619.1857-.0619.3095h.0619c.1237-.1238.2475-.2476.4332-.3095v.3714l.1238-.1238c.0619 0 .1857 0 .2476-.0619v-.1238c.0619 0 .1238-.0619.1857-.1238v.1857s.0619.0619.1238.0619v.6809c.0619.0619.1238.1856.2476.2475 0-.1856.0618-.3094.2475-.4332.0619.1238.1857.3094.4333.3094-.0619-.0618-.1238-.1856-.1238-.3094l.1238-.0619c.1238.0619.3095.1238.4333.2476-.0619 0-.1238.0619-.1857.1237v.2476c-.0619-.0619-.1857-.1238-.2476-.1857 0 .0619-.0619.1238-.1238.2476.1857.1857.4333.3095.5571.4952.1238 0 .2476 0 .4332.0619h.2476c0 .2476.3714.2476.4952.3714-.0619.0619-.1238.1237-.1857.2475v.2476c.1238 0 .1857-.0619.2476-.1238.1857 0 .3714-.0619.557-.0619l-.1857-.1857s.1238 0 .1238-.0618c.1238-.0619.2476-.1238.3095-.1857-.1238 0-.2476 0-.3714-.0619.0619 0 .1238-.0619.1857-.1238.1238-.0619.3095-.1238.4333-.2476 0-.0619 0-.1238-.0619-.1857.1238-.0619.2476-.1857.3714-.3095 0 .0619.0619.1238.0619.1857l.1857-.1857c.1237 0 .2475 0 .3713-.0619.4333-.1856.619-.8046 1.1141-.8046v-.1238c-.1237 0 0-.0619.1238-.1857Zm-6.9322-.6189c-.1238-.0619 0-.3095.1237-.2476.0619.0619-.0619.1857-.1237.2476Zm.557 2.9709c-.1238 0-.4333.1238-.4333-.0618h-.1237c-.0619-.0619-.0619-.1238-.0619-.1857 0 .0619 0 .1857.0619.2475.2475.1238.4951.2476.7427.2476v-.0619c0-.0619.0619-.0619.0619-.0619l.0619-.1238c-.1238-.0618-.3714-.1237-.5571-.1237.0619.0619.1857.1237.2476.1237Zm-.1238-.9284c-.0619.1857-.1238.3714.0619.3714.1238-.0619.1857-.1857.1857-.3095h.1857c-.0619-.1238-.3095-.0619-.4333-.0619Z"/>
		<path d="M14.0891 28.7659c0-.0619-.0618-.1238-.1237-.1238-.1238.0619-.1857.1238-.2476.1857l.3713-.0619v.1238h-.3713v.2476c.2476-.0619.4332-.0619.6808-.1238v-.4333c.0619-.0619.1238-.1238.1857-.1238-.0619-.0619-.1857-.0619-.3095-.0619 0 .1238 0 .3095-.1857.3714ZM31.234 13.5996c.1238.1238.2476.1857.3095.2476 0 .1238-.0619.1857-.0619.3095.0618-.1238.1856-.1857.3094-.2476-.1238-.1857-.3094-.3095-.557-.3095Zm-17.1451.7428h-.6808c.1238 0 .2476.0619.3714.0619l.0619.0618c.1237.0619.2475 0 .2475-.1237l.0619.1237v.1857c.1857 0 .3095-.0619.4952-.0619-.1238-.2475-.3714-.2475-.5571-.2475Zm17.0832 0c-.2476.1856-.4333.3094-.6809.4332v.1238c.3095-.1857.6809-.3714.9904-.6189v-.0619h-.3714c0 .0619 0 .1238.0619.1238Zm.6808 1.176c0 .1238 0 .2475-.0619.4332.1238-.0619.2476-.1238.3095-.2475l-.1857.0619v-.0619h.1238c.0619-.1857.3095-.1857.4333-.2476 0-.0619.0619-.1238.0619-.1238-.2476.0619-.4333.1238-.6809.1857Zm-3.0947.557-.0619.1238h.1238c.0618-.0619.1237-.1238.2475-.1857-.1238 0-.1857.0619-.3094.0619Zm-15.2263-.0619c-.1238.0619-.1857.1857-.1857.2476.1238.0619.3095 0 .4333 0-.0619-.1238-.1238-.1857-.2476-.2476Zm15.35-.1238s.1238.0619.1857.1238l.1238-.1238h-.3095Zm.1857.1238s.0619 0 0 0c.0619 0 0 0 0 0Zm-.9284.619c-.1238.0619 0 .1857.1238.1857l.0619-.0619c0-.1238-.1238-.1857-.1857-.1238Zm.8665.8665v.1857c.0619 0 .1857-.0619.3095-.0619l.1857-.1857v-.1238c-.1238.1238-.3095.1857-.4333.3095 0-.0619-.0619-.1238-.0619-.1238Zm-11.822 2.7853v-.3714c-.1238.0619-.1857.0619-.2476.1238-.1238 0-.3095-.0619-.4332-.1238 0 .1238.0619.2476.1237.3714l.1238-.1238.3714.1857v.1238c.0619-.0619.1238-.0619.1238-.0619-.0619 0-.0619-.1238-.0619-.1238Zm5.6944 2.352c-.0619.0619-.0619.1857-.1238.3095-.1238 0-.1857-.0619-.2476-.0619v.1857c-.1857.0619-.3095.1857-.3095.3714h.2476c.0619-.0619.1238-.1238.1238-.1857 0-.0619-.0619-.1857 0-.2476.0619 0 .1238.1238.1238.1238l.5571-.5571c0-.0618-.1238-.1237-.1238-.1237v.1856h-.2476Zm2.1044-2.2282c-.0619-.1238-.1857-.1857-.3094-.2476-.0619.1238-.0619.1857-.0619.1857-.0619 0-.1238-.0619-.1857-.0619.0619.1238.0619.1857.0619.3095-.0619.1238-.1238.3095-.1857.4333-.0619.0619-.1857.0619-.3095.0619v.0619c.0619 0 .1857.0618.1238.1856-.0619.0619-.0619.0619-.0619.1238-.0619.0619-.1238.0619-.1238.0619v.0619c.0619.0619.0619.1857.0619.2476l-.0619-.0619c-.1238.1238-.1857.3095-.3095.4333 0-.1238 0-.1857.0619-.2476.0619-.0619.0619-.1857.0619-.1857.1238-.0619.0619-.1857.0619-.3095 0-.0619.0619-.0619.0619-.0619l-.1238-.0619c0 .2476-.1857.4952-.3095.6809-.0618 0-.1237-.0619-.1856-.0619-.0619.1857-.1238.3095-.1238.4952.0619-.1238.1238-.1857.2476-.1857v.2476c.1237-.2476.3713-.3714.557-.5571.1857-.0619.2476-.2476.2476-.4333h.2476c.0619-.1238.1238-.3095 0-.4332.0619-.1238.1238-.2476.3095-.2476-.0619-.0619-.1238-.1238-.1238-.1857.0619-.1238.2475-.1857.3713-.2476ZM13.5319 21.646c0 .0619.0619.1238.0619.1857l-.1238.1238v.4333c.1857-.1238.3714-.2476.4951-.4333-.0618-.0619-.1237-.1238-.1237-.1857.0618 0 .1237-.0619.1237-.0619-.1237-.0619-.3094-.0619-.4332-.0619Zm.9284-.2476c-.0619 0-.1238-.0619-.1238-.0619v.3095c0-.0619-.0619-.1238-.1238-.1238-.1238.1238-.0619.3095-.1238.4333-.0619.1238-.0619.1857 0 .2476.1238 0 .1238-.2476.2476-.3095h.1857c-.1238-.1238-.0619-.3095-.0619-.4952Zm7.0561 2.2902c0 .0619 0 .1238-.0619.2475 0 .0619 0 .1857-.0619.2476 0 .0619.0619.1238.0619.1857.3095-.1857.2476-.4951.4333-.6189-.0619 0-.1238-.0619-.1238-.0619h-.2476Z"/>
	</g>
	<g fill="#EDE6F0">
		<path d="M30.8627 12.4855c-.0619 0-.1857-.0619-.2476-.0619.2476-.1238.4951-.1238.7427-.1238h.0619c.0619 0 .1238.0619.1238.0619.1238-.1857.3714-.2476.5571-.2476v.3095c.1238.0619.3094 0 .4332-.0619v-.1238c-.1238 0-.2475-.0619-.3094-.1238.1238-.0619.3094-.1238.4332-.1238.0619-.0619.0619-.1857.1238-.2476.1238.0619.2476.0619.3714.0619.1238 0 .2476-.1856.1857-.3094l.1238.1238v-.2476h.0619v.1857c.1238-.0619.3094-.1238.3713-.3095h.3714V11c-.4333.1238-.9284.1857-1.3617.4952-.0619 0-.1238 0-.2476.0619v.1856c-.0619-.1856-.3094 0-.4332 0-.0619 0-.0619.1238-.0619.1238-.0619-.0619-.1238-.0619-.1857-.0619v.1238h-.2476c0 .0619-.0619.1238-.0619.1857-.1238 0-.1857.0619-.2476.0619l.0619-.1857h-.3714v.1857h-.0619c0-.1238 0-.2476-.0618-.3095v.3095c-.1238-.0619-.3714 0-.3714.1238h-.1238c-.0619.0619-.0619.1238-.0619.1238-.1857.0619-.0619-.1857-.0619-.2476-.0619 0-.1238.0619-.1238.0619v.1857c0 .0619-.0619.1238-.0619.1238.2476.0619.4333 0 .6809-.0619Zm-.4333 4.3946v.0619c.0619 0 .1238-.0619.1238-.0619h-.1238Zm4.8897-3.6519h-.2475c-.0619-.1857-.0619-.3713-.0619-.6189-.0619 0-.1238-.0619-.1238-.0619.0619.1857.0619.3095 0 .2476-.0619-.0619-.1857-.0619-.2476-.0619h-.4952v.1857h-.1238c0-.0619 0-.1238-.0619-.1857.0619 0 .1857-.0619.2476-.0619v-.2476l-.1238.0619c-.0619.0619-.1857.0619-.2476.0619.0619-.0619.1238-.1238.1857-.1238v-.1238c-.0619.1238-.1857.1857-.2476.2476 0-.2476.2476-.3095.3714-.4333-.1857-.1238-.3095-.1857-.4951-.2476l-.1857.1857h-.1857c0 .0619.0619.1238.0619.1857-.0619.0619-.1238.1238-.1238.1857l.0619.0619v.1857c.1857.0619.3095.1238.4951.1238h.1857c0 .0619-.0619.0619-.0619.0619h-.1856c.0619.0619.0618.1856.1237.2475h-.1237v.4333c-.0619 0-.1857-.0619-.2476-.0619-.1238.0619-.1857.1238-.3095.1857-.1857 0-.3095-.0619-.4333-.0619 0 .0619-.0619.1238-.0619.1238-.1238.0619-.2476.1238-.3713.1238.1237.2476.1237.4333 0 .6808h.557c-.2476.0619-.4951.2476-.7427.1238v.1238c-.0619-.0619-.1238-.1857-.1857-.2476 0 .1857.1238.4333.1857.619.1238-.0619.2476-.1238.4332-.1238h.0619c-.1857-.0619 0-.1857.0619-.0619.1238.0619.1857.0619.2476.1238.0619-.0619.1238-.0619.1238-.0619-.0619 0-.1238-.0619-.1238-.0619.1238.0619.2476-.0619.2476-.1857 0 .0619.1238.0619.1238.0619.1857-.1238.3714-.3095.6189-.3095.1238-.0619.2476-.1238.3714-.2475-.1238 0-.2476 0-.3714-.0619.2476-.1238.4333-.3095.6809-.3714.1238-.0619.3714-.1238.4333-.2476h.1856c.1238-.1238.3095-.3095.4952-.3714v-.1238c-.0619.1238-.2476.1238-.3714.1238Zm-6.0657-.1238c-.0619-.0619-.1857-.1237-.2476-.1237v.1856c-.0619-.1238-.1238-.2475-.2476-.2475-.0619.1237-.0619.2475-.1238.3713v.0619h-.3094v.0619c.3713.0619.6189-.1238.9284-.3095Z"/>
		<path d="M30.2438 17.0031c.0619 0 .1238 0 .1857-.0619-.0619.0619-.1238.0619-.1857.0619Zm.8047-.4952c-.0619.0619-.1238.1238-.1238.1857.0619 0 .0619-.0619.1238-.0619v-.1238Zm-.4952 0c.0619 0 .0619.1238.0619.1238v-.1856h-.1857v.1237c.0619-.0619.1238-.0619.1238-.0619Zm.2476.2476s.0619-.0619.1238-.0619h-.3095c-.0619.0619-.0619.1857-.0619.1857h.1857c0-.0619.0619-.1238.0619-.1238Zm-6.4371-1.2998c.3095-.1857.6808-.2476.9284-.557.3095 0 .4952-.1857.7428-.3714.1237-.1238.3094 0 .4332 0 .1238-.1857.3095-.3714.4952-.4952h.0619l-.1238-.1238c-.1238 0-.3095-.0619-.3095.1238-.0619 0-.1857 0-.3095.1238.0619.0619.0619.1238.1238.1857l-.1857-.1857c-.3094.0619-.557.3714-.8665.4952-.3095.1857-.5571.4333-.8665.557-.1238 0-.1857.0619-.2476.1238.0619 0 .1238.1238.1238.1238Zm-12.8743 3.2186c.0619-.0619.1238-.0619.1857-.0619v.0619c.1238-.0619.1857-.1238.3095-.1238v-.1238h.4333c.1237-.3095.1856-.5571 0-.8046-.0619 0-.1238.0619-.1857.0619l.1857-.5571c-.0619-.0619-.1238-.0619-.1857-.1238.0619 0 .1238-.0619.1857-.0619.0619-.1857.1856-.3095.2475-.4333v-.2475c.0619-.1857.2476-.1857.3714-.1857v-.3714c-.1238-.0619-.3095-.0619-.3095-.2476h.1857v-.1238c-.0619.0619-.1857.0619-.2476.0619v-.2475c.0619-.0619.1857-.0619.2476-.0619-.0619-.0619-.0619-.1238-.0619-.1238h-.557c0 .1238 0 .1856.0619.4332-.1238-.1238-.3095.0619-.4333.1238.0619.0619.1238.1238.1238.1857-.0619-.0619-.1857-.1238-.2476-.1238 0 .0619-.0619.0619-.0619.0619l-.0619-.1238c-.1238.0619-.3095.0619-.3714.1857v.2476c-.1238.0619-.1856.1238-.2475.1857v.1238c-.0619 0-.1238.0619-.1238.1238.0619 0 .1238.0619.1857.1237-.0619.0619-.1238.1857-.1857.2476-.0619 0-.1238-.0619-.1857-.0619v.2476c0 .0619-.0619.1238-.1238.1238-.2476-.1857-.4952-.1238-.68086 0h.30946v.3714c-.0619-.0619-.1857-.1238-.2476-.1857v.2476h.1238l.3714.3713-.1857.1857c0 .0619.0619.1238.0619.1238h.2476c0-.0619-.0619-.1238-.0619-.1238l.1857-.1857c.1238.0619.1857.1238.2476.1857l.1856-.1857c.0619.1238.1238.3095.1238.4333 0 .0619.0619.1238.1238.1238-.0619.0619-.1857.0619-.2476.0619-.1856-.0619-.3094-.1238-.4332-.1857-.1857.1238-.4333.0619-.619 0 .0619.1857.1857.3095.3095.4333-.1238.0619-.2476.0619-.3714.0619 0 .1238.0619.3095.0619.4332h.3095v-.2475c.1238-.0619.1857-.1238.2476-.1238-.0619 0-.1857-.0619-.2476-.0619.0619-.0619.1238-.1857.1857-.2476.1238.0619.1857.1238.3095.1857v-.1857c.0619 0 .1238.0619.1857.0619.1237-.1238.2475-.0619.3713.0619Zm9.9033-.9903.0619-.0619-.0619.0619Zm.4333.4332c0 .0619.0619.1238.0619.1238.1237-.1238.2475-.2476.4332-.3095.1238-.1856.2476-.4951.5571-.4951.0619 0 .1238-.0619.1238-.0619v-.1857c0-.0619.1238-.0619.1238-.0619v.1238c.0619-.0619.1238-.0619.1238-.1238v-.1238h-.1238c-.1238 0 0-.1857.0619-.1857-.1238-.0619-.2476 0-.3714 0 0-.0619-.0619-.1238-.0619-.1238.1238-.0619.3095-.1238.4333-.1857l.1856-.1856c.1238-.0619.2476-.1238.3714-.1238 0-.0619.0619-.1238.0619-.1857.1238-.1238.3714-.2476.4952-.4333v-.1238c-.4333.0619-.619.4952-1.0522.4952 0 0 0 .1238-.1238.4333-.1238.0619-.2476.1856-.3714.2475 0-.0619-.0619-.0619-.0619-.0619 0 .1238-.0619.2476-.1238.3095-.0619 0-.1857.0619-.2476.0619-.1238.1857-.3713.2476-.4951.4333 0 .0619-.1857.0619-.2476.0619 0 .0619-.0619.1238-.0619.1857.0619 0 .0619-.0619.1238-.0619.0619.1857-.1238.4332-.1238.6189l.0619.1238c-.1238.0619-.1857.0619-.2476.0619-.0619.1238-.1857.1857-.2476.2476.0619 0 .1857.0619.3095.0619.1857-.1238.3714-.3095.4333-.5571Z"/>
		<path d="M31.7291 15.2093v-.2476c-.0619 0-.1238.0619-.1238.0619-.0619-.0619-.1238-.1238-.1238-.1857-.0619.1238-.1238.3095-.1857.4952-.0619-.0619-.1238-.1238-.1238-.1857-.1857 0-.4332.1238-.6189.2475 0 .0619.0619.1857.0619.1857.1238 0 .2476.0619.3713.0619h.1857c-.1238.1238-.2475.2476-.3713.3095.0619-.0619.1238-.1857.1856-.3095-.1856 0-.4332.1238-.557.2476-.0619.0619-.0619.1238-.0619.1238-.1238 0-.3095-.0619-.4333-.0619h-.0619c0 .0619-.0619.1857-.0619.2476l-.1857-.1857c-.1237 0-.2475.0619-.3713.0619-.1238.1238-.2476.2476-.3714.3095.1238.0619.1857.1238.2476.1238 0-.1857.1857-.1238.1857 0h.1238v-.1857c.0619.0619.1857.0619.2475.0619 0 .2476-.1856.4332-.3713.557-.0619.0619-.1238.0619-.1238.1238s-.1238.0619-.1238.0619c-.0619.0619-.1238.1238-.1238.1857v.3095c-.0619.1238-.2476 0-.3095 0-.0619.0619-.1857.1238-.2476.1238v-.1857c-.2475.0619-.1237.3714-.2475.4952h.1237c.1857-.0619.3095-.1857.3714-.3095h.3714c0-.0619.0619-.1857.0619-.2476.0619 0 .1238-.0619.1238-.0619v.2476c.0619-.1238.3095-.1857.4332-.2476v-.1238h-.1856c-.0619 0-.1857.0619-.3095.0619v-.1857c0 .0619.0619.1238.0619.1238.1238-.0619.3095-.1857.4332-.3095v.1238c.0619-.1857.1857-.3095.3714-.3095 0 .1238-.0619.2476-.0619.3714h.1857l.1238-.1238h-.1238c-.0619-.2476.2476-.3713.2476-.6189h.0619c0-.1238.0619-.1857.1238-.3095s.1857 0 .1857.0619c.1238-.1238.2475-.2476.4332-.3714.1238-.0619.3095-.1857.3095-.3095h.3095c-.0619.0619-.1857.1238-.1857.1857.0619-.0619.1238-.0619.1857-.0619.0619-.1238.0619-.3094.0619-.4332.0619 0 .1857-.0619.2476-.0619-.1238-.0619-.1857-.1238-.3095-.1857 0 .1238-.0619.1857-.0619.2476Z"/>
		<path d="M10.1277 17.8706c-.1238 0-.24759-.0619-.37138-.1238v.2476c.12379.0619.24758.1238.37138.1238v-.2476Zm-3.40425 1.4236v-.4332h-.49517c.0619 0 .18569-.0619.24758-.0619-.12379-.1238-.24758-.1857-.43326-.1857.06189.1238.06189.1857.06189.2476-.12379.0619-.18569.1237-.30948.1856.0619.0619.12379.1857.12379.1857-.12379.0619-.30947 0-.43326 0-.12379.1238-.24758.1857-.43327.2476.12379.1857.37137.2476.55706.3095-.12379.0619-.37137.0619-.55706.0619-.0619.1857-.12379.3095-.24758.4332.06189.0619.06189.1857.12379.2476.06189.0619.18568.1238.30947.1238-.06189.0619-.12379.1857-.12379.2476l.24759.2476h.43326c0-.2476.24759-.3714.43327-.3714.0619.1238.12379.1857.18569.2476l.18568-.1857c.0619.0619.1238.0619.18569.0619v-.1238c-.12379-.1238-.30948-.2476-.43327-.3714l.24758-.2475c.1238.1856.24759.4951.49517.6189-.12379.0619-.18569.1857-.24758.3095.12379-.0619.30947-.1238.43326-.1238-.06189-.1238-.06189-.1857-.06189-.2476-.24758-.0619-.24758-.3095-.24758-.4951-.12379-.0619-.30948-.1238-.37138-.2476h.55706c.0619-.0619.12379-.1238.12379-.1857l.1238.1238c-.0619-.0619-.0619-.1238-.0619-.1857l.12379-.1238c-.24758-.1238-.61895-.0619-.74274-.3095Zm1.54738-.4332h-.24758c-.0619-.0619-.12379-.1238-.12379-.1857-.0619.1857 0 .3713.12379.3713v.2476c.12379.1238.24758 0 .30948 0v-.1857h.18568c-.18568 0-.30947 0-.43326-.0619l.18568-.1856ZM28.882 15.7662c0-.1238-.0619-.1238-.0619-.1857v-.3095h.0619l-.1238-.1238c-.2476.0619-.4332 0-.6808-.1238v.2476s-.0619 0-.1238-.0619v-.1238c-.0619 0-.1238 0-.1857.0619 0 .0619.0619.1857.0619.2476-.1238 0-.2476 0-.3714.0619-.1238.1857-.2476.4333-.3095.619-.0619.1238-.2475.0619-.3094.0619-.1857.1237-.3095.3094-.3714.557h-.4333c-.1238.3714-.557.4333-.8046.6809 0-.0619-.0619-.1238-.0619-.1857-.0619.0619-.1857.1238-.2476.1238h.2476c0 .1238 0 .2476-.0619.3094-.1857 0-.3095.0619-.4333.1238l-.3095-.3094c-.0619.1856-.2475.4332-.0619.6189v.1238s-.0618-.1238-.1237-.1857c0 .0619-.0619.0619-.1238.1238l.1238.1238c-.1857.1238-.4333.1238-.6809 0 0 0-.0619-.1238-.0619-.1857-.3095.1857-.4333.4333-.7427.619-.3095.1857-.8047.3094-.8666.7427.1238 0 .2476 0 .3714.0619l-.1857.1857v.5571c.1238 0 .2476-.0619.3095-.1857.0619-.1857.2476-.3095.4333-.3714v.2476h-.2476c-.1238.2476-.3095.4332-.4333.6808v-.3095c-.1238-.0618-.1857-.1237-.3095-.1856v-.1238c-.1857-.1238-.4332-.1238-.6189-.0619 0 0 .0619.0619.0619.1238h-.3095v.1238s.1238 0 .1238.0619v.1237l.3714-.1856v.3713c-.1857.0619-.4333.1238-.619.1857 0 .0619.0619.1238.1238.1238-.3095 0-.4952.2476-.7427.3095-.3095.0619-.4952.1857-.8047.2476.0619 0 .1238.0619.1857.1238h-.2476c0-.1238.0619-.3095.0619-.4333-.0619.0619-.1238.1238-.2476.1857l-.1238.0619c0 .0619-.0619.0619-.0619.1238h-.1237c0 .1238 0 .3094-.0619.4332.0619 0 .1238 0 .2475-.0619l-.0619.0619c-.1237 0-.2475.0619-.3713.1238-.1238 0-.1857-.0619-.3095-.0619 0-.0619.0619-.1238.0619-.1857-.0619.0619-.0619.0619-.0619 0 0 0 .0619-.0619.1238-.0619v-.1856c0-.0619.0619-.0619.0619-.1238h-.0619v-.1238s0-.0619.0619-.0619c0-.1238 0-.2476-.0619-.3714-.0619-.1857.0619-.3095.1238-.4333 0-.1238-.0619-.2475-.1238-.3094-.1857.0619-.3095.1856-.4333.3094-.0619-.0619-.1238-.1856-.2476-.2475.1238-.1857.3714-.1857.5571-.1238 0 0 .0619-.0619.0619-.1238-.1238-.1238-.1857-.2476-.2476-.4333 0 0-.0619-.0619-.1238-.0619-.3095 0-.557.1238-.8665.1857-.1238 0-.2476.0619-.3714.1238v.1238c-.3095.0619-.4333.3714-.7427.4951-.1857.1238-.4333.1238-.619.3095.0619.0619.1238.1238.2476.1857l-.7428.1857c.0619 0 .1238.0619.1857.1238v.1857c-.1238-.0619-.2475-.1238-.4332-.2476 0-.1238-.0619-.3095 0-.4333-.1238-.0619-.3714-.0619-.4333.0619-.1238.2476-.3714.3714-.619.4333v-.3095c-.0619.1238-.1237.1857-.1856.3095-.0619.3095-.3095.6189-.3714.9284-.1857.4333-.4333.8666-.5571 1.2998-.1238.2476-.0619.4952-.2476.7428-.0619.1238.0619.2475.0619.3713h-.1856v.2476c0-.0619.0618-.1238.1237-.1238l.3714.3714c0-.3095.2476-.5571.4333-.8665v.3713h.3714s0 .1238-.0619.1238h-.1857c-.1238 0-.2476.0619-.3714.1238.0619 0 .1238 0 .1857.0619-.0619.0619-.1857.1238-.2476.1857.1238 0 .2476.0619.3095.1238.1238 0 .1857-.0619.3095-.1238v.3095h.2475c.1238-.0619.3095-.1857.4333-.1857.0619-.0619.1238-.1238.1238-.1857.1238.1857.1238.4333.1238.619 0 .0619-.0619.1238-.0619.1856 0 0 .1238 0 .1857.0619.2476 0 .4951.1857.8046.1238-.1857-.1238-.3713-.1857-.4951-.3094h.3094c0-.0619.0619-.1238.1238-.1857 0 .1238.0619.3094.2476.3094.0619-.1237.1857-.2475.2476-.3094.1857 0 .4952 0 .5571.2476.1237.1856.0618.4332.0618.6189l.1857-.1857c.1857 0 .4333.1238.619.1238.1857-.0619.3095-.1238.4952 0 .2475-.1238.4951-.1857.7427 0 0-.0619-.0619-.1238-.1238-.1857l.1857-.1857c.1857 0 .3714 0 .4952.1238-.0619 0-.1857.0619-.3095.0619 0 .0619 0 .1238.0619.1857.0619-.0619.1857-.1857.3095-.2476 0 .1857 0 .3714-.1238.4952.0619 0 .1238 0 .1856-.0619-.0618.0619-.1856.1238-.2475.2476v.1238c-.4952 0-.6809.6189-1.1142.8046-.1237 0-.2475 0-.3713.0619l-.1857.1857c0-.0619-.0619-.1238-.0619-.1857-.1238.1238-.2476.2476-.3714.3095 0 .0619 0 .1238.0619.1857.3095-.1857.5571-.3714.8666-.4333 0 .0619-.0619.0619-.1238.1238-.2476.2476-.6809.3714-.9904.557-.0619.0619-.1857 0-.2475 0-.0619 0-.1238.0619-.1857.1238.1238 0 .2475.0619.3713.0619.0619 0 .1238 0 .2476-.0619s.2476-.1237.4333-.1856c.1238-.0619.2476-.0619.3095-.0619.1857-.1857.3713-.3095.557-.4333v-.1857c.3095-.0619.4333-.3095.6809-.4333.1857-.1856.4332-.3094.4951-.6189.1238-.0619.2476-.1238.3714-.3095.1238-.1857.4333-.2476.5571-.4952.1857 0 .3713-.1237.4332-.2475 0-.0619-.0619-.1238-.0619-.1857.1238-.1238.2476-.3095.4333-.3714 0 0 .0619 0 .1238-.0619v-.2476c.1238-.0619.3095-.1238.4333-.1857.1238-.1238.2476-.3094.3713-.4332v-.2476h.2476s.0619.0619.1238.0619v-.1857c.0619 0 .1238-.0619.2476-.1238h-.0619c0-.1857.1238-.3095.3095-.3714v-.1857c.0619 0 .1238.0619.2476.0619.0619-.1237.0619-.2475.1237-.3094h.2476c0-.2476 0-.4333.1238-.6809.0619 0 .1238.0619.1857.0619.1238-.1857.3095-.4333.3095-.6808l.1238.0619v.0619s.0619 0 .1238-.0619c0-.0619 0-.0619.0619-.1238-.0619 0-.1238 0-.1857-.0619v-.1857c.1238 0 .2476 0 .3095-.0619.0618-.1238.1237-.3095.1856-.4333 0-.1238 0-.2476-.0619-.3095.0619 0 .1238 0 .1857.0619 0-.1238.0619-.1856.0619-.3094.1238.0619.2476.1238.3095.2475 0 0 .0619.1238.1238.1238v-.0619s-.0619-.0619-.0619-.1238c.1238-.0618.2476-.1856.3714-.3094.0619-.1238-.0619-.3095.0619-.4333.1857-.1238.4332-.3095.557-.4952h.1857c.0619-.1238.1238-.2475.3095-.3094 0-.0619-.2476-.1857 0-.1857v-.1857c0-.0619.1238-.0619.1238-.0619l-.1238.1238c0 .0619 0 .2476.1238.2476.1857 0 .1238-.1238.1238-.2476 0 0 .0619.1238.1238.1238 0-.0619 0-.1857.0619-.2476.2475.0619.3713-.1857.4951-.3095.0619-.1238.2476-.1238.3095-.1857h-.1238s0-.1238.0619-.1238c-.0619 0-.1238-.0619-.1857-.0619v.1857h-.1857c-.1857.1238-.3094.3095-.4332.5571-.1238-.0619 0-.1857 0-.3095v-.1857c.0619 0 .1238-.0619.1856-.0619l.1857-.3713h.1857l.1857-.1857v.1238h.1857c0-.1238 0-.2476.0619-.3714 0 0 .1238 0 .1857-.0619-.3714-.1238-.5571.2476-.8666.3714.1238-.1857.3095-.4333.4952-.5571v-.4333c.1238 0 .2476-.0619.4333-.0619l.0619-.0618c.1238-.1238.2475-.3095.3713-.4333h.3714ZM18.9168 21.77c.1238 0 .3095 0 .4333.0619-.0619-.1238-.0619-.1857-.0619-.3094.0619.0619.1857.1237.2476.1856 0 .1238 0 .2476-.1238.3095-.1857 0-.3714-.1238-.4952-.2476Zm-.2475 2.5378s-.0619 0-.0619-.0619c-.0619 0-.1238 0-.1238.0619l-.0619-.0619h.2476v.0619Zm.4951.1237c-.0619-.1856-.1238-.1856-.1857-.1856v.1237h-.2475l.1856-.1856h-.0618c.0618 0 .1856-.0619.2475-.1238 0 .0619.0619.1238.1238.1857 0 .0619-.0619.1237-.0619.1856Zm1.1141-.9284c0-.0619 0-.1238-.0619-.1238 0 0-.0618 0-.0618.0619l-.1238-.1238v.2476c.0619.0619.1857.1238.2475.1857-.1237 0-.2475.0619-.4332.1238 0 .0619.0619.1238.1238.1857-.1238.1238-.2476.2476-.3095.3713-.0619-.0619-.1238-.1237-.1857-.1237 0 .1237 0 .1856.0619.3094-.0619-.0619-.1238-.1238-.1857-.2476 0 0 .0619-.0618.0619-.1237 0-.0619-.0619-.1238-.1238-.1857h.1857v-.1238h.2476c0-.1238 0-.3095-.0619-.4333-.1238-.1238-.3095-.2476-.4333-.3714-.0619 0-.1238.0619-.1238.1238-.1238-.0619-.1857-.0619-.3094-.1238v-.1856c-.1238.0618-.2476.1237-.3714.2475v.1857c.1857-.0619.4333 0 .6189.0619l.0619.1238c.0619 0 .1238 0 .1857.0619v.1857c-.0619 0-.1238.0619-.1857.0619v-.1238c-.2475.1238-.4951.3714-.8046.3714-.0619-.0619-.1857-.0619-.2476 0-.0619.0619-.1238.2475-.1238.3094h-.1238c-.0619.1238-.1857.2476-.3094.3095-.0619 0-.1857-.0619-.3095-.0619 0-.1857-.0619-.4332-.3095-.4332.0619-.1238.1857-.2476.2476-.3714-.1857.0619-.3714.1238-.4333.3095-.1238 0-.3095.0619-.4333.1238 0-.1238.0619-.2476.2476-.2476 0-.0619-.0619-.1238-.1238-.1857h.2476c.0619-.0619.1238-.1238.2476-.1857 0 .0619 0 .1238.0619.1857.1238-.1238.2476-.1857.4333-.2476-.1238-.1238-.2476-.0619-.4333-.0619.0619-.0619.1238-.1238.1238-.1857v-.1238l-.0619.0619c-.0619 0-.1238-.0619-.2476-.0619v-.1857c.1238 0 .1857-.0619.3095-.0619-.1857-.0618-.4333-.0618-.619-.0618.0619.1237.0619.2475.1238.3713l-.1857.1857c-.1857 0-.4332-.1857-.4951-.3714.0619 0 .1238-.0619.2476-.1238-.1238-.0618-.1857-.1237-.3095-.1856l.1238-.0619s.0619 0 .1238.0619l.1856-.1857h-.3094c.0619-.1857.2475-.1857.4332-.1857 0 .1857 0 .4333.1857.4952.1857 0 .1238-.2476.1857-.3714 0 .0619.0619.1238.0619.1857.0619-.0619.1857-.1238.2476-.1857l-.4333-.4333v-.1238c.0619 0 .0619.0619.1238.0619v-.1238c.1238 0 .2476-.0619.2476-.1857-.1238-.0619-.2476-.0619-.3095-.0619.1857 0 .3714 0 .4333-.1237-.0619 0-.1857 0-.2476-.0619h.0619c.1238.0619.3095.0619.4333.1237.1238 0 .2475-.0618.3713-.1237v.2475c.1238 0 .2476-.0619.3095-.0619l-.1238-.1237h.1857v-.2476c.0619 0 .0619.0619.1238.0619-.0619.1857-.1238.3094-.3095.4951.0619.1238.1857.2476.2476.3714.2476.1238.4952.3095.7427.4952v.1857c.2476-.1238.4333-.3714.7428-.4333l.1238.1238s.0619 0 .0619-.0619c.1238.1238.2476.1857.3713.3095 0 0 .0001.0619-.0618.0619.0619.0618.1856.1237.2475.2475.0619.1238-.0619.1857-.1238.3095Z"/>
		<path d="M16.0077 26.4119c.0619 0 .1237-.0619.1856-.1238h-.1856v.1238Zm-1.4236-7.7989v-.1856c.0619-.1238.1857-.1857.3094-.2476-.0619-.1238-.1856-.1857-.2475-.3095.1237-.1857.1856-.3714.1856-.619.1238-.0618.1857-.0618.2476-.0618 0-.0619.0619-.1238.0619-.1238-.1238-.0619-.1857-.0619-.2476-.0619-.0619-.2476-.1856-.4333-.1856-.6809-.0619 0-.1238-.0619-.1238-.1238.0619-.1857.1857-.3713.2475-.557-.0618 0-.1237-.0619-.1237-.0619.0619-.1857-.1857-.3714-.2476-.5571 0-.1238 0-.3095.1857-.3095.1237 0 .1238.2476.1856.3095v-.2476l.3714.1857-.1857.1857c.0619-.0619.1857-.1238.3095-.1238-.0619.1238-.0619.2476-.0619.3095.1238.0619.3095.0619.4333.0619-.1238-.0619-.2476-.1238-.3714-.1238.1238 0 .3095-.0619.4333-.1238-.1238-.1238-.1857-.2476-.3095-.2476-.3095-.1238-.5571-.3095-.8665-.3095-.1857 0-.3095.0619-.5571.1238v.1857c.0619 0 .1857.0619.2476.0619 0 .3095.1238.619.3095.8666-.1238.1237-.2476.1856-.3714.2475.1238.1238.2476.2476.3714.4333-.0619.1857-.0619.4333 0 .619.1238.1856.0619.4332 0 .6189-.0619.0619-.1857.0619-.3095.0619.0619.0619.0619.1238.1238.1857l-.1857.3714.0619.0619c-.1238.1238-.1857.3094-.2476.4332h-.1238v.2476c.1238-.1238.3095-.1857.4333-.1857.0619-.1238.1857-.2476.2476-.3095Zm9.9651-2.4139c-.1857-.0619-.3094.1857-.3094.3095.1237 0 .4332-.1238.3094-.3095Zm-.4951.1238c-.0619.0619-.0619.1857-.1238.3095.1238 0 .1857-.0619.3095-.0619v-.2476h-.1857ZM11.3655 26.5357c0-.0619-.0619-.1238-.0619-.1857-.1857.3095-.0619.6808-.1857.9284l.1857.5571c.1238-.3095-.1238-.5571 0-.8666 0-.1857.1238-.3094.0619-.4332Zm1.3617-.2476c-.0619.0619-.1238.1238-.1857.1238 0 0 0 .0619-.0619.0619-.0619.0619-.1857.0619-.2476.0619l-.1238.1238v-.3714c-.1856.0619-.3094.1857-.4332.3095h-.0619c0 .1238-.0619.2475.0619.3094h-.1857c.0619.3095.1857.5571.3095.8666-.0619 0-.1238-.0619-.1857-.0619 0 .1857.1857.3095.3714.3095-.0619-.0619-.1238-.1238-.1238-.1857h.3094c-.1237-.0619-.2475-.1857-.3094-.2476-.1238-.1238-.1857-.3095-.1857-.4333 0-.1857.1857-.3095.3095-.4332.0619.1237.0619.2475.1856.3094.1238-.1238.1238-.3713.3095-.4332.1238.1238.1857.3094.3714.3713v-.4332c-.0619 0-.1238-.0619-.1238-.0619v-.1857Zm.2476-.4952c-.0619-.0619-.1238-.1238-.1857-.1238.1238-.0619.2476-.1238.3095-.2476 0-.0619-.0619-.1856-.0619-.2475h-.1857c0 .1238.0619.1857.1857.3094-.1238 0-.3095 0-.4333.0619.0619.0619.1857.0619.1857.0619 0 .0619-.0619.1238-.0619.1857.1238.0619.3095.1238.4333.1238-.0619 0-.1238.0619-.1857.0619h.1857c.0619 0 .0619-.1857.0619-.2476-.0619-.0619-.1238-.0619-.1238-.0619-.0619.0619-.0619.1238-.1238.1238Z"/>
	</g>
	<g fill="#EAE3ED">
		<path d="M32.6577 12.3611h.2476c0-.1237.0619-.2475.1238-.3094h-.3095c.1857-.0619.3095-.1238.4333-.2476-.1238-.0619-.2476-.0619-.3714-.0619-.0619.1238-.1238.1857-.1238.3095-.1238.0619-.3095.0619-.4333.1238.1238.0619.1857.1237.3095.1237l.1238.0619Zm-2.4758.4952c.1857-.1238.4952-.2476.7427-.1238v-.2476c.0619.1238.0619.1857.0619.2476.0619-.0619.1857-.0619.3095-.1238 0-.0619-.0619-.1238-.1238-.1857l.1238-.1238c-.3095 0-.4952 0-.7427.1238.0619.0619.1238.0619.1857.0619-.1857.0619-.3714.0619-.5571.0619h-.2476v-.1857c-.0619.0619-.1857.1238-.2476.1857v.2476c.1238-.0619.3095-.1238.4952-.1857v.2476Zm3.8375.4333h.1238v-.0619h-.1238v.0619Zm-5.5087 3.2185c0 .0619-.0619.0619 0 0-.1857.2476-.3095.4333-.4951.4952v.1238c-.1857.1238-.3714.3714-.4952.557.0619 0 .0619-.0618.1238-.0618v.0618h-.1857c.0619 0 .1238.0619.1857.0619.0619 0 .1238.1238.1238.1238.1238 0 .2476-.1238.3713-.1238.1238-.1237.1857-.2475.3095-.3713h.2476c.1238-.1238.2476-.3714.4952-.3095v.1857c.1857-.1238.3713-.3095.3713-.5571-.0619-.0619-.1856-.0619-.2475-.0619v.1857h-.3095c-.1238-.0619-.1238-.0619-.1857-.1238l.2476-.2476h-.1238l.1238-.1237h-.0619c.0619-.1238.0619-.1857.1238-.2476h-.2476c-.1238.1238-.2476.3094-.3714.4332Zm-.6808 1.2379v-.1856h-.1238c.1857-.1238.3713-.3095.557-.2476-.0619.0619-.1238.1857-.1856.2476 0 .1856-.1238.1856-.2476.1856Zm.8665-.8046c-.0619.0619-.1238.0619-.1857.1238-.1238 0-.1857-.1238-.1238-.1857.0619-.0619.1857.0619.1857.1238.0619-.0619.0619-.1238.1238-.1857v.1238Zm3.7137-2.971s.0619-.0619 0 0c.0619-.0619 0-.0619 0 0Zm-3.2804 2.1045h.0619s-.0619 0-.0619-.0619v.0619Z"/>
		<path d="M32.9052 13.5368c.1857 0 .3095-.1857.4333-.1857-.1238.1238-.3095.2476-.557.2476v.1857h-.2476c0 .0619-.0619.0619-.0619.1238 0 .1856-.1238.2475-.2476.3094v.1857c-.0619-.0619-.1238-.0619-.1857-.0619-.1238.0619-.1857.1238-.2476.1857-.0619 0-.1238.0619-.1238.0619v.1238c-.2475.2476-.557.3714-.8046.619l-.0619-.1238v.3713h-.3095c0-.0619.0619-.1857.0619-.3094-.1857.2475-.4332.3713-.6808.6189-.1857.1857-.4333.3714-.619.5571.1238 0 .2476-.0619.3714-.0619l.1857.1857c0-.0619.0619-.1857.0619-.2476h-.1857c.1857-.2476.3095-.4952.557-.6809.1238.0619.1857.1238.2476.1238-.1238.2476-.3713.3714-.557.5571.1238 0 .3094.0619.4332.0619.0619 0 .0619-.1238.0619-.1238.1238-.1857.3095-.2476.5571-.2476-.1238 0-.2476-.0619-.3714-.0619 0-.0619-.0619-.1857-.0619-.1857.1857-.1238.3714-.2476.619-.2476.0619.0619.1238.1238.1238.1857.0619-.1238.1238-.3095.1857-.4951.0618.0619.0618.1238.1237.1856.0619 0 .1238-.0618.1238-.0618v.2475c0-.1238.0619-.1857.0619-.2475.1238.0618.1857.1237.3095.1856-.1238-.1856-.1857-.3713-.1857-.6189.0619.0619.1238.1857.1857.2476v-.1238c.2476.1238.4952-.0619.7428-.1238-.1857-.0619-.3714 0-.5571 0 .1238-.2476.1238-.4333 0-.6809.1238-.0619.2476-.1238.3714-.1238 0-.0619.0619-.1237.0619-.1237.1856 0 .3094.0618.4332.0618.1238-.0618.1857-.1237.3095-.1856.0619 0 .1857.0619.2476.0619v-.4333h.1238c-.0619-.0619-.0619-.1857-.1238-.2476h.1857v-.0619c-.0619 0-.1238-.0619-.1857-.0619-.3095 0-.8047 0-.8047.4333Z"/>
		<path d="M33.8956 13.166h.0619c0-.0619-.0619-.1238-.0619-.1238.0619 0 0 .0619 0 .1238Zm.2476-.0619v.1238h.0619c.1857 0 .3094-.0619.4332-.1238-.1857 0-.3094.0619-.4951 0ZM36 12.8565c-.1238-.0619-.3094-.1238-.4951-.1857l-.1857.1857c0-.0619-.0619-.1857-.0619-.1857-.0619.0619-.1238.0619-.1857.0619v-.3095c-.1238 0-.2476.0619-.3714 0-.0619.1238-.1857.1857-.3094.1857h-.0619v-.2476h-.1857s0 .1238.3713.5571l.1238-.0619v.2476c.0619.0619.1857.0619.2476.0619v-.4333c.0619 0 .1238.0619.1238.0619 0 .1857 0 .3714.0619.619h.2476c-.0619-.0619-.0619-.1857-.0619-.2476.2476-.1238.4951-.2476.7427-.3095Zm-4.6421 1.4236-.0619.1238c-.0619 0-.1857.0619-.3095.0619v.2476l.3714-.1857v-.1857h.3713v.0619c0-.0619.0619-.0619.0619-.0619.0619-.1238.0619-.1857.0619-.3095-.0619-.0619-.1856-.1238-.2475-.1857-.1238.0619-.2476.1238-.3095.1857 0 .0619.0619.1857.0619.2476Zm-.4333.2476h-.1857v.1857c-.1238.0619-.1857.1856-.1857.2475-.0619 0-.1238.0619-.1857.0619 0-.0619.0619-.1857.1238-.2475-.0619.0618-.1856.1237-.3094.1237.0619.0619.0619.1857.0619.2476-.0619.0619-.1857.1238-.3095.1857-.1857.1238-.2476.3714-.4952.4952v-.2476c-.0619 0-.1238.0619-.1857.0619h-.0619c.0619.0619.1238.1857.1857.2476-.1238.0619-.1857.0619-.2476.0619.0619 0 .1238.0619.1238.1238h-.0619c.1238.0619.2476 0 .3095-.1238h.2476c.1238-.1857.3095-.3095.4333-.4333.1238-.1238.3713-.2476.4951-.4333v-.1238c.1238-.0619.1857-.1238.3095-.1856 0 0-.0619-.0619-.1238-.0619 0-.0619.0619-.1238.0619-.1857Zm1.0522-.9904c-.1238 0-.1857.0619-.2476.1238-.0618 0-.1237.0619-.1856.0619v.0619c.1856 0 .3713.1238.4951.3095.1238-.0619.2476-.1238.3714-.1238-.1238-.1857-.1857-.4333-.4333-.4333Z"/>
		<path d="M31.6055 13.8471v-.0619h-.0619s0 .0619.0619.0619Zm-16.031 6.9322c-.1238-.0619-.1857-.1238-.2475-.1856.1856-.1857.4332-.1857.6189-.3095.3095-.1238.4333-.4333.7428-.4952v-.1238c.1237-.0619.2475-.1238.3713-.1238.3095-.0619.5571-.1857.8666-.1857l.0619-.0619h.1856c.1238.0619.2476.1238.3095.1857 0-.1856-.0619-.3094-.1238-.4332-.1857.0619-.3713.0619-.557.0619.0619-.0619.1238-.1238.1238-.1857-.1238-.0619-.2476-.2476-.2476-.3714h-.1857c.0619-.1238.1238-.2476.1238-.3714-.1238-.0619-.2476-.1238-.3095-.1238v-.1856h-.1857v-.1238h.1238c0-.0619.0619-.1238.0619-.1857.0619 0 .2476-.0619.3095-.1238h-.2476v-.1238c.0619 0 .1238-.0619.1857-.0619-.0619-.0619-.1857-.0619-.1857-.0619v-.1857c-.0619-.1238-.1857-.2476-.1857-.3714h.1857c0-.1237-.0619-.3094-.1857-.3713.0619-.0619 0-.1857 0-.3095-.1238-.0619-.1857-.1857-.2476-.2476.0619.1857.1238.3095.1857.4333v.7427c-.1857-.2476-.4333-.4951-.4951-.8046h-.1857c-.0619-.0619-.1238-.1238-.1238-.1857v.1238c-.1238-.1238-.2476-.2476-.1857-.3714-.1238-.2476-.3714-.3714-.5571-.557-.1238 0-.3094.0619-.4332.1238.1238 0 .2475.0618.3713.1237-.1856.0619-.3094 0-.4332-.0619.0619-.1237.0619-.2475.0619-.3094-.0619.0619-.1857.1238-.3095.1238l.1857-.1857-.3714-.1857v.2476c-.0619-.1238-.0619-.3095-.1857-.3095-.1857-.0619-.1857.1857-.1857.3095.0619.1857.3095.3713.6809.8046.0619 0 .1238.0619.1238.0619-.0619.1857-.1857.3714-.2476.5571.0619 0 .1238.0619.1238.1238.0619.2475.1238.4332.1857.6808.1238.0619.1857.0619.2475.0619 0 .0619-.0618.1238-.0618.1238-.1238.0619-.1857.0619-.2476.0619 0 .2476-.0619.4333-.1857.6189.0619.1238.1857.1857.2476.3095-.0619.1238-.1857.1857-.3095.2476v.1857c-.0619.1238-.1857.2476-.2476.3095-.1857.0619-.3095.0619-.4333.1856-.1238.1857-.1856.3714-.2475.5571-.1238.2476-.3095.5571-.3095.8665l-.0619.0619v.3095c.2476-.0619.4951-.1857.6189-.4333.0619-.1856.3095-.1237.4333-.0618-.0619.1237 0 .3094 0 .4332.1238.1238.3095.1857.4333.2476v-.1857c-.0619-.0619-.1238-.1238-.1857-.1238l.7427-.1857Zm13.1838-2.8471v-.3095c0 .0619-.0619.1238-.0619.1238s-.0619 0-.1857.0619l-.0619.1238c.1238 0 .2476.1237.3095 0Zm-7.9846 0c-.2475-.0619-.2475.3094-.4951.4332-.1857.1238-.4333.1857-.5571.4333-.2476.1857-.4332.4333-.6808.6189-.0619.0619-.1238.0619-.1238.0619-.1857.0619-.3714.1857-.3095.4333l.1238-.1238h.0619c.0619-.0619.0619-.1238.0619-.1857h.2476c.3094-.3713.8046-.6808 1.176-1.0522.2476-.3095.6808-.4333.9284-.7427v.1238c.0619-.1238.0619-.2476.0619-.3095v-.0619c-.2476-.0619-.3714.1857-.4952.3714Z"/>
		<path d="M17.6788 17.8706c.1238 0 0-.2476-.1238-.2476-.0619.1238 0 .1857.1238.2476Zm11.2031.1857c-.1238 0-.2476 0-.3714.0619-.1238.1238-.2475.2476-.3713.3095h-.1238c-.0619-.0619-.0619-.1857-.0619-.1857 0 .0619-.0619.0619-.0619.0619.1238.3095-.2476.4952-.4333.619-.0619-.0619-.0619-.1857-.1238-.1857-.0619.1238-.0619.1857-.0619.2475-.2476.1238-.557.2476-.557.5571-.1238 0-.2476.0619-.3714.1238.0619.1857-.1857.3095-.2476.4952.5571-.3095.9903-.8666 1.5474-1.1761.4333-.3094.8046-.7427 1.2998-.8665 0-.1238.0619-.1857 0-.3095 0 .0619-.0619.1857-.0619.2476ZM17.9264 21.77l-.0619.0619h.1238l-.0619-.0619Zm-.0619-.0619c.0619.0619.1238 0 .1238 0h-.1238Z"/>
		<path d="m20.0929 22.8842.0619-.0619c-.1238-.1238-.2476-.1857-.3713-.3095 0 .0619-.0619.0619-.0619.0619l-.1238-.1238c-.3095.0619-.4333.3095-.7428.4333v-.1857c-.2476-.1857-.4951-.3714-.7427-.4951-.0619-.1238-.1857-.2476-.2476-.3714-.0619 0-.1238.0619-.1857.0619v-.2476c-.1238.0619-.2476.1238-.3714.1238-.1238-.0619-.3094-.1238-.4332-.1238h-.0619c.0619.0619.1857.0619.2476.0619-.0619.1238-.3095.1238-.4333.1238 0 .1238-.0619.3095-.0619.4333.1857.1237.3095.3094.4333.4332-.0619.0619-.1857.1238-.2476.1857 0-.0619-.0619-.1238-.0619-.1857-.0619.1238 0 .3714-.1857.3714-.1857-.0619-.1857-.3095-.1857-.4952-.1857 0-.3714 0-.4333.1857h.3095l-.1857.1857c-.0619-.0619-.1238-.0619-.1238-.0619 0 .0619-.1237.0619-.1237.0619.1237.0619.1856.1238.3094.1857-.1238.0619-.1857.1238-.2476.1238.0619.1857.2476.3714.4952.3714l.1857-.1857c-.0619-.1238-.1238-.2476-.1238-.3714.1857 0 .4333 0 .619.0619-.1238 0-.1857.0619-.3095.0619v.1857c.1238 0 .1857 0 .2476.0619l.0619-.0619v.1238c0 .0619-.0619.1238-.1238.1856.1857 0 .3094-.0618.4332.0619-.1856.0619-.3094.1238-.4332.2476 0-.0619-.0619-.1238-.0619-.1857-.1238.0619-.1857.1238-.2476.1857h-.2476c.0619.0619.1238.1238.1238.1857-.1857 0-.2476.1238-.2476.2476.1238-.0619.3095-.1238.4333-.1238.0619-.1857.2476-.2476.4333-.3095-.0619.1238-.1238.2476-.2476.3714.2476 0 .3095.2476.3095.4333.1237 0 .2475.0619.3094.0619.1238-.0619.2476-.1857.3095-.3095h.1238c0-.0619.0619-.2476.1238-.3095.1238-.1238.3095.0619.4333.1857 0-.0619.0619-.0619.1237-.0619 0 .0619.0619.0619.0619.0619v-.1857c.0619.0619.1857.0619.2476.0619l-.1857.1857h.2476v-.1238h.1857c0-.0619.0619-.1238.0619-.1857 0-.0619-.0619-.1238-.1238-.1857-.2476.1857-.557.1857-.8665.1857 0-.0619.0619-.1238.0619-.1238.3713 0 .557-.2476.8046-.3714v.1238c.0619 0 .1238-.0619.1857-.0619v-.1856c-.0619 0-.1857-.0619-.1857-.0619 0-.0619-.0619-.1238-.0619-.1238-.1857-.0619-.3714-.1238-.6189-.0619v-.1857c.1238-.1238.2475-.1857.3713-.2476v.1857c.1238.0619.2476.0619.3095.1238 0-.0619.0619-.1238.1238-.1238.1238.1238.3095.2476.4333.3714.0619.1238.0619.3094.0619.4332h-.2476v.1238h-.1857c.0619.0619.1238.1238.1238.1857 0 .0619-.0619.1238-.0619.1238.0619.1238.1238.1857.1857.2476-.0619-.1238-.0619-.1857-.0619-.3095.0619.0619.1238.0619.1857.1238.0619-.1238.1857-.2476.3094-.3714-.0618-.0619-.1237-.1238-.1237-.1857.1856-.0619.3094-.1238.4332-.1238-.0619-.0618-.1857-.1237-.2476-.1856v-.2476c.0619 0 .1238.1238.1238.1238l.0619-.0619c.0619 0 .0619.0619.0619.1238.0619-.1238.1857-.1857.1238-.3095-.0619-.1238-.1857-.1857-.2476-.2476Zm-2.0425-1.2998c0 .0619-.0619.0619-.0619.1238h.0619v-.1238Zm.3095-.4333v-.1238c0 .0619-.0619.1238-.1238.1238 0-.0619-.0619-.1238-.1238-.1238 0 .0619 0 .1857-.0619.5571.0619-.1238.1238-.2476.1238-.3714.0619 0 .1857-.0619.1857-.0619Z"/>
	</g>
</svg>