<svg xmlns="http://www.w3.org/2000/svg" viewBox="0 0 40 40">
	<path class="bg-logo" fill="#004017" d="M0 0h40v40H0z"/>
	<path fill="#fff" d="M15.9324 15.8909c4.2755-.0922 17.9546-.3873 18.0676-3.9363-.113-3.54981-13.804-3.84452-18.0733-3.93664-.3109-.00664-.5718-.0121-.774-.01796v7.9092c.2033-.0058.4662-.0117.7797-.0183ZM6 20.4408v-2.6837c12.3803.5699 25.8808-.4844 27.9516-3.1352l-.0445 2.7254c-3.9177 3.5517-20.9031 3.2273-27.40101 3.1032L6 20.4408Zm0 2.173v2.6837l.50784.0097c6.49906.1241 23.48176.4485 27.39926-3.1032l.0445-2.7247C31.8808 22.1298 18.3803 23.1837 6 22.6138Zm0 7.6926v-2.6852c12.3803.5715 25.8808-.4825 27.9516-3.1329l-.0445 2.7246c-3.9175 3.5518-20.9002 3.2274-27.39926 3.1033L6 30.3064Z"/>
</svg>