<svg xmlns="http://www.w3.org/2000/svg" viewBox="0 0 40 40">
	<path class="bg-logo" fill="#242122" d="M0 0h40v40H0z"/>
	<path fill="#DD1F2A" d="M15.505 10.6241c0-3.33185 2.013-5.5531 4.5119-5.62252 2.4989-.06941 4.6508 2.15184 4.7202 4.92841 0 1.31891-.3471 2.63771-1.0412 3.81781-.9718 1.7353-4.0955 4.859-4.0955 4.859l-1.1106-2.3601s.4859-.6942 1.18-1.5271c.833-.9718 1.5271-2.1519 2.0825-3.3319.2082-.4165.2776-.9024.2776-1.3883-.0694-1.18004-.833-2.08242-1.8742-2.08242-.9718 0-1.8047.9718-1.8741 2.08242-.0695.833.2082 1.6659.6247 2.3601.2082.3471.5553.9718.5553.9718l-1.7354 2.0824c-.4164-.4859-.7635-1.0412-1.1106-1.5965-.6941-1.1801-1.1106-2.4295-1.1106-3.1931Zm-.6942 3.1237c-.7635-.7636-1.6659-1.3189-2.7071-1.5966-2.56833-.6941-5.27549.6942-5.96963 3.1931-.27765 1.2494-.13883 2.5683.55532 3.6789.69414 1.1107 1.73535 1.9436 2.98481 2.2907 1.18.3471 2.5683.3471 3.8178 0 .4859-.1388.9024-.2776 1.3188-.4165l-1.3188-2.4989s-.5553.2083-.9718.2777c-.7636.2082-1.5966.1388-2.3601-.2083-1.04122-.4165-1.59653-1.5965-1.24946-2.4989.34707-.9718 1.59656-1.3883 2.56836-1.0412.5553.2777 1.0412.5553 1.4577.9718 2.36 2.013 3.2624 5.5531 3.2624 5.5531s-3.0542 1.0413-4.1648 1.7354c-2.15186 1.4577-3.05425 4.0954-2.22128 6.3167.27768.833.83298 1.5965 1.59648 2.0824.6942.5553 1.5966.833 2.499.833 1.0412 0 2.013-.2777 2.8459-.9024.833-.5553 1.5272-1.3883 1.8742-2.2907.6247-1.4577.7636-2.9848.7636-4.5119 0-2.0824-.4165-4.0954-1.1801-6.039-.7635-1.7354-1.9436-3.4707-3.4013-4.9284Zm1.1107 14.7852c-.4165.7635-1.1107 1.2494-2.013 1.18-.3471 0-.6248-.1388-.9024-.347-.2777-.2083-.4165-.4859-.5553-.7636-.3471-.9024 0-1.5965.5553-2.2907.9024-1.2494 3.4707-1.8742 3.4707-1.8742s.0694 1.0413.0694 1.3883c.0694.9024-.2082 1.8742-.6247 2.7072Zm5.4143-.2777c.2776 1.0412.7635 2.013 1.4577 2.846 1.8742 2.013 4.859 2.2213 6.7331.4859 1.8742-1.8048 1.9436-4.9284.1389-6.9414-.9024-.9718-2.013-1.666-3.2625-2.0824-.4165-.1389-.9024-.2777-1.3189-.3471l-.1388 2.846s.5553.1388.9718.2776c.7636.2083 1.4577.7636 1.9436 1.4577.6941.9718.5553 2.2213-.2082 2.846-.833.6247-2.0825.3471-2.7072-.5553-.3471-.4859-.5553-1.0412-.6941-1.5965-.9718-2.9848.0694-6.525.0694-6.525s3.1236.7636 4.4425.6942c2.5683-.1388 4.7202-1.8048 5.1366-4.1649.2083-.9024.0695-1.8047-.2082-2.6377-.3471-.833-.9024-1.5965-1.6659-2.0824-.833-.5553-1.8742-.833-2.846-.7636-1.0412 0-2.013.3471-2.846.9718-1.2495.9024-2.1518 2.0824-2.9848 3.4013-1.0412 1.8048-1.8048 3.7484-2.0824 5.7614-.5554 2.013-.4859 4.0954.0694 6.1084Zm6.5943-13.1192c.3471-.2083.7636-.3471 1.1801-.3471.4164 0 .8329.1388 1.1106.4165.2776.2082.4859.4164.6247.7635.1388.2777.1388.6247.0694.9718-.2082.9024-.8329 1.3189-1.5965 1.666-1.3883.5553-3.8872-.2777-3.8872-.2777l.6247-1.2495c.4165-.8329 1.1107-1.4577 1.8742-1.9435"/>
</svg>