<svg xmlns="http://www.w3.org/2000/svg" viewBox="0 0 40 40">
	<path class="bg-logo" fill="#057A55" d="M0 0h40v40H0z"/>
	<path fill="#fff" d="M21.9014 10.2621c-.0004.0223.008.0434.0237.0595.0157.016.0368.0248.0591.0248h.267c.8571 0 1.5523.6948 1.5523 1.5523v16.1424L19.144 12.9444c-.4516-1.467-1.8799-2.6972-3.4159-2.6972h-3.3468c-.0456 0-.0825.0368-.0825.0824v.132c0 .0456.0369.0825.0825.0825h.368c.8108 0 1.3277.6693 1.3277 1.5556v14.9099c0 .9418-.7634 1.7052-1.7052 1.7052h-.1638c-.0456 0-.0824.0368-.0824.0824v.1156c0 .0456.0368.0825.0824.0825h5.4963c.0456 0 .0825-.0369.0825-.0825v-.1156c0-.0456-.0369-.0824-.0825-.0824h-.4034c-1.3762 0-2.4919-1.1158-2.4919-2.4919V14.2024l3.3469 10.6432c.6193 1.9211 2.9861 3.9662 5.857 3.9662 2.6754 0 4.9791-2.5047 4.9791-5.2238 0-2.5955-1.5469-4.6596-3.8947-5.2184h.0011c1.468-.2316 2.6797-1.3036 3.0441-2.7443.7433-2.9384-.8892-5.5171-4.827-5.5171h-1.3302c-.0449 0-.0817.0361-.0824.081l-.0015.0729Zm-1.901-3.61091c7.3605 0 13.3488 5.98831 13.3488 13.34881s-5.9883 13.3488-13.3488 13.3488c-7.3605 0-13.34885-5.9883-13.34885-13.3488 0-7.3605 5.98835-13.34881 13.34885-13.34881Zm0-1.65119C11.716 5 5 11.716 5 20c0 8.284 6.716 15 15.0004 15 8.2843 0 15-6.7156 15-15s-6.7157-15-15-15Z"/>
</svg>