<svg xmlns="http://www.w3.org/2000/svg" viewBox="0 0 40 40">
	<path class="bg-logo" fill="#0063AB" d="M0 0h40v40H0z"/>
	<g fill="#fff">
		<path d="M19.0202 13.8477h1.47l-3.01 9.3099h-1.4l2.94-9.3099Zm2.38 2.45h1.4l-3.01 9.2399h-1.33l2.94-9.2399Zm-8.68 6.8599h.56l1.4-4.4099 1.12 3.4999.77-2.31-1.4-4.1299c.07-.07-2.45 7.3499-2.45 7.3499Zm2.8-8.3299.28-.77 1.26 4.34-.28.8399-1.26-4.4099Zm14.14 2.94c.07.21.07.28.07.56h4.2c0-.21 0-.21-.07-.49-1.4-.07-2.8-.07-4.2-.07Z"/>
		<path d="M33.79 17.2776h-4.27c-.07-.14-.14-.35-.28-.49-.07-.14-.35-.42-.35-.49h1.4c0-.21-.07-.28-.07-.35-1.47-3.99-4.48-7.97997-10.7799-8.18997-8.05 0-12.88003 5.87997-13.09003 12.38997h-.28c.07-7.63 5.53003-13.92996 13.37003-14.13996C26.02 5.79764 32.25 9.92763 33.79 17.2776Z"/>
		<path d="m17.9702 23.1576 3.01-9.3099h.42l-2.94 9.3799-.49-.07Zm2.38 2.38 2.94-9.2399h.56l-2.94 9.2399h-.56Zm3.57-8.1199c.07-.28.21-.77.35-1.19h3.43c2.1.35 1.89 4.1299-.42 4.5499 1.75 1.33.21 4.55-1.68 4.55h-4.2c.07-.21.21-.56.28-.77 1.26-.07 2.45 0 3.71 0 1.61-.91 1.89-2.66.98-3.78 2.45-.77 1.68-3.4299.84-3.4299-1.33.07-2.1.14-3.29.07Z"/>
		<path d="M21.75 24.2087c.07-.14.14-.42.21-.56h2.66c.63-.28.77-.91.63-1.47h-2.87c.14-.35.28-.84.42-1.26h2.94c.91.56.49 2.87-.63 3.22l-3.36.07Zm1.19-3.71h2.94c.84-.14 1.4-1.05 1.47-1.61 0-.28-.14-.77-.42-.84h-3.22l-.14.35h2.94c.42.42 0 1.54-.77 1.61h-2.73l-.07.49Zm-12.53 2.73 3.01-9.38h1.82l-2.94 9.31-1.89.07Zm11.41-8.26.35-1.12h1.4l-.35 1.19-1.4-.07Zm1.82 0 .35-1.12h.56l-.35 1.19-.56-.07Zm-2.1.84.14-.42h1.4l-.14.42h-1.4Zm1.89 0 .14-.42h.56l-.14.42h-.56Zm-3.92-3.22.35-1.1199h1.4l-.35 1.1899-1.4-.07Zm1.82 0 .35-1.1199h.49l-.35 1.1899-.49-.07Zm-2.1.84.14-.42h1.4l-.14.42h-1.4Zm1.82 0 .14-.42h.42l-.14.42h-.42Zm-10.57 7.98.14-.56H6v.56h4.48Z"/>
		<path d="M6.20996 21.9667H10.34c-.14.49-.28.98-.42004 1.26h-.35c.07.14.07.21.07.28 1.26004 4.06 4.06004 8.19 10.35994 8.75 7.98.42 13.23-5.18 13.72-11.62h.28c-.49 7.56-6.3 13.51-14.07 13.37-6.6499-.21-12.59994-4.62-13.71994-12.04Z"/>
	</g>
</svg>