<svg xmlns="http://www.w3.org/2000/svg" viewBox="0 0 40 40">
	<path class="bg-logo" fill="#123A92" d="M0 0h40v40H0z"/>
	<path fill="#fff" d="m25.7444 30.3108-2.6128-5.7h-6.2619l-2.6141 5.7h11.4888Zm2.1231-19.6702c2.544 2.2219 4.0828 5.5701 4.0828 9.0148 0 3.4447-1.5392 6.7929-4.0828 9.0148l-3.2909-7.1781h-9.1519l-3.2909 7.1781c-2.54486-2.2227-4.08456-5.5709-4.08456-9.0148 0-3.4443 1.5397-6.792 4.08456-9.0148l3.2909 7.1785h9.1519l3.2909-7.1785ZM27.4656 9l-3.5619 7.7699h-7.8056L12.5361 9C9.08349 11.3853 7 15.4448 7 19.6554c0 4.2111 2.08349 8.2701 5.5361 10.6554l3.562-7.7694h7.8056l3.5619 7.7694C30.9187 27.9255 33 23.8665 33 19.6554 32.9996 15.4448 30.9183 11.3853 27.4656 9Zm-1.7212 0-2.6128 5.7005h-6.2619L14.2556 9h11.4888Z"/>
</svg>