<svg xmlns="http://www.w3.org/2000/svg" viewBox="0 0 40 40">
	<path class="bg-logo" fill="#363584" d="M0 0h40v40H0z"/>
	<path fill="#fff" d="M19.3998 6.01007c-1.638.05145-3.0528.33559-4.7065.94529-.7495.27629-2.0892.93281-2.848 1.39559-.5551.33852-1.1551.8023-1.1041.85342.0178.01786.8949-.04064 2.7872-.18587.201-.01542.6883-.05149 1.083-.0802.3947-.02868.8702-.06381 1.0568-.07804.1866-.01424.5095-.03833.7176-.05357.2081-.01523.5252-.03895.7046-.0527.1794-.01376.5082-.03798.7307-.0538.6816-.04849 1.0299-.08193 1.0484-.1007.0097-.00985.1733-.27342.3635-.58572.1901-.31229.4041-.66288.4755-.77908.0714-.1162.1658-.27379.2098-.35022.044-.07643.0921-.13503.1069-.13028.027.00869.4766.72909.9839 1.5765.0095.01583.0184.03077.0268.0449.0714.11993.1073.18026.1599.21348.0532.03362.1236.03946.2653.0512.0164.00137.0339.00282.0524.0044.1722.01471.4952.0397.7176.05552.2225.01582.5513.03995.7307.05361.6984.05321 1.0033.0759 2.1267.15827.5122.03755 1.0017.074 1.4222.10582 1.9795.14988 2.78.20513 2.7991.19319.0308-.01928-.0389-.0937-.2548-.27181-.4449-.36701-1.0756-.74964-2.0455-1.24091-2.526-1.27944-4.7707-1.77745-7.6097-1.68829Zm-1.4613 3.19417c-1.4813.07263-3.0098.22454-4.2339.42079-.4422.07088-.5361.08672-.8025.13548-.5033.09209-.768.15011-1.4352.31459-1.3982.3447-2.39397.7276-2.80504 1.0787-.15255.1303-.12015.1321.52174.0281.34793-.0564.53291-.0867 1.3569-.2223.7948-.1307 1.2844-.2109 1.9441-.3184.232-.0377 1.1728-.173 1.5527-.2232.9436-.1247 2.3624-.2512 3.4184-.3047.1651-.0084.3499-.022.4108-.0304l.1106-.0151.2482-.40913c.1365-.22501.2481-.42572.2481-.446 0-.02182-.0239-.03524-.0587-.03289-.0323.00219-.2466.01321-.4762.02446Zm3.6142-.00114c0 .02224.4668.8155.5095.8657.0068.0081.271.0273 1.1605.0845 1.1808.0759 2.3132.1932 3.4576.358.6809.0981 1.024.1524 2.3225.3677.6602.1094 1.3941.2288 1.6309.2653.2368.0365.5099.0799.6069.0964.097.0165.185.0209.1957.0099.0282-.0292-.1626-.1889-.3583-.2999-.4062-.2304-.9975-.4583-1.7229-.6638-.2081-.059-.4136-.118-.4567-.1312-.1196-.0366-.7864-.19804-.9786-.23692-.0645-.01307-.27-.05483-.4566-.09278-.1866-.03795-.4068-.08092-.4893-.0955-.3947-.06974-.7007-.11868-.9981-.15964-.1148-.01582-.2851-.03933-.3784-.05224-.0933-.01291-.2724-.03592-.398-.0511-.1255-.01519-.3252-.03962-.4436-.05427-.5559-.06877-1.8884-.17357-2.5116-.19752-.2153-.00827-.459-.02124-.5415-.02879-.1024-.0094-.15-.00425-.15.01616Zm-4.11 1.4432c-.0431.0056-.3484.0399-.6785.0763-2.0667.2281-3.8616.5051-5.0363.7772-.0574.0133-.1807.0417-.274.0632-.2982.0686-.7412.1782-.822.2033-.0431.0134-.2486.0727-.4567.1318-1.087.3088-2.02162.6914-2.54504 1.0417-.20631.1381-.48197.3878-.48197.4366 0 .0313.15033.0324.25053.0018.0416-.0127.14024-.0376.21918-.0552.07893-.0177.17875-.0431.2218-.0564.11949-.0368.95996-.2759 1.23952-.3525.33759-.0925 1.32288-.3151 1.87888-.4245.9289-.1828 1.3702-.2557 2.4659-.4071.8269-.1143 1.9534-.2194 2.7009-.2522.1794-.0079.4346-.0215.5671-.0302l.2409-.016.1866-.3072c.2787-.4588.4667-.7895.4667-.8208 0-.0153-.0147-.026-.0326-.0238-.0179.0022-.0679.0085-.1109.014Zm5.0126.0046c-.0137.0224.557 1.0202.6469 1.131.0021.0027.2503.0175.5515.0331 1.0105.0521 1.6933.1117 2.7526.2401 1.0844.1313 2.8411.4426 3.7986.6729.1569.0377.3616.087.4549.1096.0933.0225.3698.0986.6145.1692.8354.241 1.4272.3932 1.5319.394.0394.0003.0717-.0124.0717-.0282 0-.0513-.2799-.3068-.4882-.4455-.4687-.3122-1.3155-.665-2.3431-.9762-.1857-.0563-.2248-.0675-.548-.1575-.2635-.0734-1.0743-.2722-1.2917-.3167-.0646-.0133-.2407-.0499-.3914-.0814-.1507-.0315-.3357-.0684-.411-.082-.0754-.0136-.1987-.0359-.274-.0496-1.0743-.1953-2.2335-.359-3.6468-.5152-.4665-.0515-.886-.0988-.9324-.1051-.0464-.0064-.0896-.003-.096.0075Zm-7.048 1.9883c-.9555.094-2.0334.267-3.3793.5427-.2512.0514-.5095.1042-.5741.1173-.0646.0131-.1938.0421-.2871.0644-.0933.0223-.2694.0644-.3914.0935-.2888.0689-.4112.1008-.7959.2072-.23159.0641-.73982.2298-1.02828.3352-.83773.3063-1.44872.6169-2.0441 1.0389-.23441.1661-.90712.8109-.90712.8695 0 .0209 1.16601.0271 4.2038.0222l4.2039-.0066c.4266-.7054.5037-.8277 2.0042-3.2942 0-.0265-.704-.0196-1.0046.0099Zm8.2069-.0197c1.0568 1.8052 1.5071 2.4889 2.0008 3.304l4.1925.0066c3.7383.006 4.1925.0024 4.1925-.0334 0-.0641-.5375-.5952-.8104-.8009-.9524-.7175-2.336-1.2717-4.3042-1.724-1.0112-.2324-2.3538-.4835-3.2358-.6053-.4806-.0664-.6103-.0821-.9786-.1186-.3548-.0351-1.0568-.054-1.0568-.0284ZM6 24.0942c0 .0431.47167.5285.67425.6939.75161.6134 1.96516 1.1844 3.30525 1.5551.3847.1064.5071.1383.7959.2072.122.0291.2981.0712.3914.0935.0933.0223.2225.0513.2871.0644.0646.0131.3229.0659.5741.1173 1.3729.2812 2.3508.4382 3.3271.5342.4168.041 1.0568.0521 1.0568.0184 0-.0112-.0276-.0617-.0613-.1123-.0337-.0505-.3294-.5316-.657-1.0691-.3277-.5374-.654-1.0722-.7252-1.1884-.0712-.1162-.2265-.3717-.3451-.5678l-.2156-.3566-4.2039-.0066C7.76043 24.0735 6 24.0805 6 24.0942Zm19.5629.0757c-.0592.0958-.653 1.0743-1.0619 1.7496-.1099.1816-.3544.584-.5433.8942-.1889.3103-.3435.5687-.3435.5744 0 .0255.7024.0065 1.0568-.0285.7603-.0753 1.6626-.2102 2.5834-.3863.932-.1783 1.3853-.2755 2.0876-.4478 1.6832-.4129 2.97-.9527 3.8476-1.6138.2728-.2055.8104-.7368.8104-.8008 0-.0356-.4603-.0401-4.1879-.0401h-4.188l-.0612.0991ZM7.14819 26.6311c0 .0488.27566.2985.48197.4366.52342.3504 1.45804.7329 2.54504 1.0417.2081.0591.4136.1184.4567.1318.0808.0251.5238.1347.822.2033.0933.0215.2166.05.274.0632 1.1805.2735 3.0036.5543 5.0494.778.3372.0368.6572.0731.7111.0805.0602.0084.0978.0028.0978-.0145 0-.0316-.1872-.3609-.4667-.8211l-.1866-.3072-.2409-.016c-.1325-.0087-.3877-.0223-.5671-.0302-.7475-.0327-1.874-.1379-2.7009-.2522-1.0957-.1514-1.537-.2243-2.4659-.4071-.556-.1094-1.54129-.332-1.87888-.4245-.27956-.0766-1.12003-.3156-1.23952-.3525-.04305-.0133-.14287-.0387-.2218-.0564-.07894-.0176-.17758-.0425-.21918-.0552-.1002-.0306-.25053-.0295-.25053.0018Zm25.26001.0555c-.165.042-.3412.0885-.3914.1034-.3186.0947-1.2153.3457-1.357.3799-.0933.0226-.298.0719-.4549.1096-.9575.2304-2.7142.5416-3.7986.673-1.0593.1283-1.7421.1879-2.7526.24-.3012.0156-.5494.0304-.5515.0331-.0899.1108-.6606 1.1086-.6469 1.131.0064.0105.0496.0139.096.0076.0464-.0064.4659-.0537.9324-.1052 1.4133-.1561 2.5725-.3199 3.6468-.5152.0237-.0043.0521-.0094.0823-.0149l.0753-.0136.0613-.0111.0551-.01c.0753-.0136.2603-.0505.411-.082l.0439-.0092.0323-.0067.0595-.0124.0331-.0069.068-.0142.0443-.0092.054-.0112c.0165-.0034.0309-.0063.043-.0088l.0133-.0028c.2174-.0445 1.0282-.2433 1.2917-.3167.3232-.09.3623-.1012.548-.1575 1.0276-.3111 1.8744-.664 2.3431-.9762.2083-.1387.4882-.3942.4882-.4455 0-.0462-.1487-.0299-.4697.0517ZM8.58341 28.7685c0 .0387.262.23.46971.3429.4873.265 1.35418.5598 2.41378.821.6672.1645.9319.2225 1.4352.3146.2664.0488.3603.0646.8025.1355.3382.0542.9993.1439 1.4678.1991.7468.088 1.9195.1819 2.6226.21.2081.0083.4459.0213.5284.0289.1195.011.15.0061.15-.0242 0-.0331-.3795-.6875-.4742-.8177-.0368-.0506-.063-.0534-1.1697-.1231-1.8539-.1167-2.9428-.2565-6.2759-.8054l-.0432-.0071-.0012-.0002c-.94709-.1559-1.10028-.1811-1.25373-.2047-.03056-.0047-.06111-.0094-.09796-.0149-.10764-.0164-.25208-.0405-.32095-.0538-.15808-.0304-.25315-.0307-.25315-.0009Zm22.59829.0059c-.0646.0126-.3112.0526-.548.089-.2368.0364-1.0823.1728-1.8788.3031l-.3066.0502c-1.1768.1925-1.4011.2292-1.6261.2609-.053.0074-.1061.0146-.1716.0235l-.0746.0101c-1.3063.1773-2.202.269-3.3533.343-.8895.0572-1.1537.0764-1.1605.0845-.0427.0502-.5095.8435-.5095.8657 0 .0204.0476.0256.15.0162.0825-.0076.3262-.0206.5415-.0288.6232-.024 1.9557-.1288 2.5116-.1975.0334-.0042.0731-.0091.1159-.0143.0658-.0081.1387-.0171.206-.0253.0442-.0054.086-.0105.1217-.0149.224-.0273.4382-.0558.8025-.1068.6482-.0908 1.3559-.2202 2.0223-.3696.1364-.0306.2949-.0658.3523-.0782.0574-.0125.169-.0401.2479-.0615.079-.0213.2375-.0641.3523-.0951.9101-.2455 1.497-.4551 1.9796-.7069.2351-.1227.4864-.3037.4864-.3505 0-.0302-.0955-.0289-.261.0032Zm-20.4426 2.0263c-.0523.0856.7668.6746 1.5498 1.1145 1.1594.6515 2.4405 1.1985 3.575 1.5265 1.3767.3981 2.5647.5579 4.1491.5583 1.4526.0003 2.545-.1298 3.781-.4503 1.0928-.2834 2.0139-.6393 3.1864-1.2312.5755-.2906.7393-.3776 1.0438-.5548.6688-.389 1.368-.9158 1.2847-.9678-.0219-.0137-1.0074.0552-3.5288.247-.1794.0136-.4965.0372-.7046.0525-.0724.0053-.1587.0116-.2484.0182-.1679.0125-.3476.0259-.4692.035-.1866.0141-.5095.0381-.7176.0533-.2082.0152-.5252.0386-.7046.052-.1794.0134-.5023.0372-.7176.0529-.2153.0158-.5324.0409-.7046.0557l-.0221.0019c-.0123.0011-.0242.0021-.0356.003-.1344.0112-.2035.0169-.2567.0495-.0563.0345-.0946.0991-.1736.2324-.0099.0168-.0206.0348-.032.0539-.3829.6423-.9451 1.5427-.9674 1.5493-.0144.0043-.0625-.0544-.1069-.1303-.0445-.076-.1393-.2332-.2107-.3494-.0714-.1162-.2854-.4668-.4755-.7791-.1902-.3123-.3538-.5758-.3635-.5857-.0228-.0231-.3727-.0537-1.753-.1536-.2081-.0151-.531-.0389-.7176-.053-.1866-.014-.5095-.038-.7176-.0532-.3929-.0288-.7728-.0574-1.3961-.105-.2009-.0154-1.0112-.0751-1.8006-.1326-.7894-.0576-1.5014-.1118-1.5823-.1205-.0872-.0093-.1537-.005-.1632.0106Z"/>
</svg>