<svg xmlns="http://www.w3.org/2000/svg" viewBox="0 0 40 40">
	<path class="bg-logo" fill="#0100A0" d="M0 0h40v40H0z"/>
	<path fill="#fff" d="M16.8515 25.6284c-1.1999 0-2.1736-.9751-2.1736-2.1795V8.17943C14.6779 6.97507 15.6516 6 16.8515 6c1.2 0 2.1737.97507 2.1737 2.17943V23.4489c0 1.2032-.9737 2.1795-2.1737 2.1795Zm6.186 7.9199c-1.2 0-2.1737-.975-2.1737-2.1794V16.1006c0-1.2031.9725-2.1794 2.1737-2.1794 1.2 0 2.1737.9751 2.1737 2.1794v15.2695c0 1.2032-.9737 2.1782-2.1737 2.1782Zm5.7107-6.9658c-.9898 0-1.7926-.805-1.7926-1.7973v-5.4399c0-.9923.8028-1.7973 1.7926-1.7973.9897 0 1.7925.805 1.7925 1.7973v5.4399c0 .9923-.8028 1.7973-1.7925 1.7973Zm4.1576-5.027c-.6049 0-1.0942-.4918-1.0942-1.0971v-1.8133c0-.6065.4905-1.0971 1.0942-1.0971.6049 0 1.0942.4918 1.0942 1.0971v1.8133c0 .6065-.4893 1.0971-1.0942 1.0971Zm-21.6545-8.8752c.9897 0 1.7926.8049 1.7926 1.7972v5.44c0 .9923-.8029 1.7973-1.7926 1.7973s-1.7926-.805-1.7926-1.7973v-5.44c0-.9923.8029-1.7972 1.7926-1.7972Zm-4.15707 5.0266c.60491 0 1.09424.4919 1.09424 1.0971v1.8133c0 .6066-.49056 1.0971-1.09424 1.0971C6.48933 21.7144 6 21.2226 6 20.6173V18.804c0-.6064.49056-1.0971 1.09423-1.0971Z"/>
</svg>