<svg xmlns="http://www.w3.org/2000/svg" viewBox="0 0 40 40">
	<path class="bg-logo" fill="#005BAA" d="M0 0h40v40H0z"/>
	<path fill="#fff" d="M21.4196 30.5305c1.5295.1614 3.5923-1.1089 6.1985-4.0124 1.8917-2.1172 3.6829-4.3351 5.3532-6.6237v9.8598c-.1308 1.0889-1.0968 1.9458-2.2741 1.9458h-18.837c1.4591-1.3207 3.0288-3.2261 4.4476-5.4138 1.4289-2.1877 1.6704-2.8531 2.6766-5.0308.4025-.1512 1.5698-.5343 2.4452-.7661-1.0565 2.1272-2.1534 4.7887-2.254 6.3413-.1912 2.1676.7145 3.5487 2.244 3.6999Zm-5.4237-8.2871s-1.8415 3.5387-3.1395 5.1921c-.7245.8771-3.48165 5.3836-5.39352 3.9318-1.84145-1.8348 2.87792-5.6255 3.81372-6.2708 1.61-1.2703 4.7193-2.8531 4.7193-2.8531ZM9.37475 9.85311C7.63394 11.2645 7 12.6961 7 12.6961V9.18771C7 7.988 8.0465 7 9.31438 7H27.2156s-1.0465.08065-2.0528 1.15939c-.5735.61498-2.4049 3.15551-4.4074 2.63131-1.9923-.5242-1.5999-2.16756-3.5822-2.71197-1.9823-.5444-5.6853.06049-7.79845 1.77438ZM27.93 8.70379c.9459-.68554.644-1.5324-.0402-1.70379h2.8074c1.0465 0 1.932.68555 2.2037 1.60298-1.5798-.15122-4.2061.84686-6.279 3.40762-2.1031 2.601-3.8741 5.7667-3.8741 5.7667s-1.6301.4738-2.4754.7258c.2616-.5544 1.4491-2.8329 3.4415-5.6658 1.6904-2.3995 3.4112-3.54877 4.2161-4.13351ZM17.2436 19.3702C14.084 20.3279 9.14332 22.8685 7 25.7519v-9.628c.77481 1.1694 1.80119 1.8651 3.1294 2.1776 1.6805.3428 3.3609.0907 4.8602-.7359.6843-.3731 1.2981-.8368 1.8515-1.3913 1.117-1.119.7145-2.4499-.2012-2.7221-.9157-.2621-1.8012.3428-2.254 1.0687-.4629.736-1.0666 1.6333-3.0288 1.6333-.9862 0-2.15341-.6252-2.45528-2.0366-.49307-2.1474 2.25398-4.36531 4.73938-4.73833 4.015-.61498 2.9987 2.04653 4.9206 3.37733.483.3529 1.7509.7864 2.9081-.0101-.6138.8671-3.22 4.8694-4.2263 6.6237Zm11.6725-7.3193c1.1874-1.3409 3.1094-2.25828 3.9244-1.2804.805.988-1.6201 2.9338-3.1898 3.9016-1.5597.9678-3.069 1.8046-4.357 2.349.8049-1.4921 2.7772-4.0024 3.6224-4.9702Zm.6742 4.819c.9359-.6351 2.4553-1.8046 3.381-2.722v3.7806c-.7244.8771-4.8904 5.555-6.6211 7.1479-2.9483 2.7119-4.9306 2.3087-4.1659-.5343.4629-1.6836 1.117-3.3169 1.9522-4.8493.9962-.3932 3.5118-1.4921 5.4538-2.8229Z"/>
</svg>