<svg xmlns="http://www.w3.org/2000/svg" viewBox="0 0 40 40">
	<path class="bg-logo" fill="#1971C0" d="M0 0h40v40H0z"/>
	<path fill="#fff" d="M14.0319 16.3157c-1.9304 1.6805-2.8553 3.1052-4.0298 5.2888-1.42763 3.4394-1.59324 7.3852 1.2591 10.0716 8.1408 5.7916 19.3843-8.9785 12.755-14.267-2.4335-1.3433-6.6292.1686-8.8968 2.4336 2.7737-2.0994 10.0395-3.7477 7.0537 3.1022-4.2856 9.8302-15.44179 3.8612-6.2104-7.5508.0842-.1686 1.7618-2.265-1.8462.9216h-.0846Zm2.3496-9.23142c-.0843-.16561-2.1921.91308-2.771 1.42766-1.1952 1.06723-3.79431 4.22756-1.6776 5.53876.8314.5146 5.4515-.1948 7.8037-.4188 7.9638-.7619 10.8246.9215 7.132 4.0268 5.2046-1.5933 8.3911-8.55972 2.3492-9.48426-4.6112-.2499-11.409 1.34337-12.921 1.09347-1.0058-.16856-1.1748-.42142-.6717-1.42765.1686-.25286.8403-.67169.756-.84026l.0004.08428Z"/>
</svg>