<svg xmlns="http://www.w3.org/2000/svg" viewBox="0 0 40 40">
	<path class="bg-logo" fill="#303E50" d="M0 0h40v40H0z"/>
	<path fill="#0DB14B" d="M23.0063 14.5039v5.9938h-6.0032v-5.9938h-5.9937v17.9906h5.9937v-6.0031h6.0032v6.0031H29V14.5039h-5.9937Zm-6.0032-4.5023c0-.5941-.1763-1.17479-.5065-1.6686-.3302-.49381-.7996-.87852-1.3486-1.10542-.549-.22691-1.153-.28579-1.7355-.16921-.5825.11658-1.1173.40339-1.5367.82412-.4194.42072-.7045.95643-.8193 1.53929-.1147.58292-.0539 1.18672.1747 1.73502s.6148 1.0164 1.1097 1.3451c.4948.3286 1.0761.5031 1.6701.5012.3937 0 .7836-.0777 1.1472-.2286.3637-.151.694-.3722.9719-.6511.278-.2788.4982-.6098.648-.9739.1498-.3641.2263-.7542.225-1.1479Zm11.9968 0c0-.59286-.1756-1.17243-.5045-1.66561-.329-.49319-.7967-.87791-1.3441-1.10564-.5473-.22772-1.1499-.28826-1.7316-.17396-.5817.11429-1.1166.3983-1.5371.81618-.4205.4179-.7078.95096-.8258 1.53196-.1179.581-.0612 1.18387.1631 1.73267s.6061 1.0189 1.0972 1.351c.4911.332 1.0696.5112 1.6624.515.3958.0025.7881-.0733 1.1544-.2231.3664-.1497.6995-.3704.9802-.6494.2808-.2789.5035-.6107.6556-.9761.152-.3654.2302-.7572.2302-1.153Z"/>
</svg>