<svg xmlns="http://www.w3.org/2000/svg" viewBox="0 0 40 40">
	<path class="bg-logo" fill="#008D5C" d="M0 0h40v40H0z"/>
	<path fill="#FFD503" d="M5 11h30v17.8947H5z"/>
	<path fill="#fff" d="M19.3801 14.3545v11.4439h-2.6989v-4.692h-5.298v4.692H8.68433V14.3545h2.69887v4.5122h5.298v-4.5122h2.6989Zm7.4367 11.6399c-1.1885 0-2.2658-.2506-3.2321-.752-.9551-.5122-1.7104-1.2152-2.2657-2.1089-.5443-.9046-.8164-1.9237-.8164-3.0572s.2721-2.1471.8164-3.0408c.5553-.9046 1.3106-1.6076 2.2657-2.1089.9663-.5122 2.0492-.7684 3.2487-.7684 1.0107 0 1.9215.1744 2.7322.5231.822.3488 1.5106.8502 2.0659 1.5041l-1.7326 1.5695c-.7886-.8937-1.766-1.3406-2.9322-1.3406-.7219 0-1.3661.158-1.9325.4741-.5665.3052-1.0108.7357-1.3329 1.2915-.3109.5559-.4665 1.188-.4665 1.8964 0 .7085.1556 1.3406.4665 1.8965.3221.5558.7664.9917 1.3329 1.3078.5664.3052 1.2106.4578 1.9325.4578 1.1662 0 2.1436-.4523 2.9322-1.3569l1.7326 1.5694c-.5553.6648-1.2439 1.1717-2.0659 1.5204-.8218.3488-1.7381.5231-2.7488.5231Z"/>
</svg>