<svg xmlns="http://www.w3.org/2000/svg" viewBox="0 0 40 40">
	<path class="bg-logo" fill="#FF0508" d="M0 0h40v40H0z"/>
	<path fill="#fff" d="M6 17.4622v10.775h28V11H16.7744v6.4622H6Zm5.6253 7.3695h.2327l1.128-4.9517h2.0575v5.9974h-1.0696v-4.9517h-.2327l-1.0926 4.9517h-1.8132l-1.06958-4.9517h-.23269v4.9517H8.46359V19.88H10.521l1.1043 4.9517Zm14.843 1.0457H22.714V19.88h3.7543v1.0464h-2.6617v1.4063h2.2895v.9988h-2.2895v1.4995h2.6617v1.0464Zm-9.3796-2.9984c0 1.1852.5694 2.1037 1.79 2.1037 1.2206 0 1.7901-.9185 1.7901-2.1037s-.5695-2.1037-1.7901-2.1037c-1.2206 0-1.79.9185-1.79 2.1037Zm-1.1159-.0238c0-1.8594 1.0696-3.1263 2.9059-3.1263 1.8363 0 2.9059 1.2669 2.9059 3.1263 0 1.8602-1.0696 3.1733-2.9059 3.1733-1.8363 0-2.9059-1.3138-2.9059-3.1733Zm12.4134 3.0222h-1.1621l1.7901-3.1739-1.6737-2.8242h1.1621l1.2437 2.1384 1.2206-2.1384h1.162l-1.7438 2.8596 1.8595 3.1385h-1.1621l-1.3947-2.3711-1.3016 2.3711Z"/>
</svg>