<svg xmlns="http://www.w3.org/2000/svg" viewBox="0 0 40 40">
	<path class="bg-logo" fill="#1EAAA2" d="M0 0h40v40H0z"/>
	<path fill="#FFCA8C" d="M23.6639 22.7162H11.9301L24.6059 9.9537c.1553-.15683.2416-.36987.2391-.59081V7.58308c0-.51585-.6189-.78216-.9823-.40736L7.22144 23.9373c-.47098.4655-.14054 1.2728.51979 1.2728H22.2436c.219-.0019.4291-.0882.5859-.2416l1.2472-1.2556c.2268-.2313.2229-.6022-.0079-.829-.1085-.106-.2535-.1662-.4049-.1677Z"/>
	<path fill="#fff" d="M29.4201 7.2755 15.2407 21.5594h3.5014l9.4643-9.5298v16.475H11.8458l2.1142-2.13h-3.5015l-3.17939 3.2026C6.75834 30.1015 7.13067 31 7.86548 31H29.6183c.5938-.001 1.0746-.4833 1.0736-1.0771V7.80762c-.0084-.67366-.8097-1.00655-1.2718-.53212Z"/>
</svg>