<svg xmlns="http://www.w3.org/2000/svg" viewBox="0 0 40 40">
	<path class="bg-logo" fill="#5345FF" d="M0 0h40v40H0z"/>
	<path fill="#fff" d="M19.8873 10c2.3726 0 4.4794.6777 5.9315 1.9812 2.0441 1.8466 2.3833 3.8518 2.3833 8.6265l.0202 8.5034h-4.1566v-9.2407c0-2.4061-.1356-3.7817-1.0889-4.7776-.7666-.7997-1.8043-1.2304-3.0895-1.2304-1.2852 0-2.3234.4307-3.0895 1.2304-.9533.9959-1.0874 2.3696-1.0874 4.7776v9.2407h-4.1547l.0202-8.5034c0-4.7747.3353-6.7799 2.3837-8.6265C15.406 10.6777 17.5181 10 19.8873 10Z"/>
</svg>