<svg xmlns="http://www.w3.org/2000/svg" viewBox="0 0 40 40">
	<path class="bg-logo" fill="#8DC63F" d="M0 0h40v40H0z"/>
	<path fill="#fff" d="m25.7584 18.7516 6.0805-10.50999c.0806-.1208 0-.24161-.1208-.24161h-3.8657c-.9262 0-1.6913.44295-2.1343 1.20805L19.1946 20.4832c-.0402.0806 0 .2013.0805.2417 3.0202 1.0872 5.4765 3.3825 6.8054 6.2415.0403.1209-.0402.2416-.161.2416H12.953c-.0805 0-.1611-.0805-.1611-.1611V12.953c0-.0805.0806-.1611.1611-.1611h6.5235c.8456 0 1.651-.4429 2.094-1.208l1.9328-3.34229c.0806-.1208 0-.24161-.1207-.24161H8.16107C8.08054 8 8 8.08054 8 8.16107V31.8389c0 .0806.08054.1611.16107.1611H31.8389c.0806 0 .1611-.0805.1611-.1611-.0403-5.1946-2.4564-9.8255-6.2013-12.8858-.0806-.0404-.0806-.1209-.0403-.2015Z"/>
</svg>