<svg xmlns="http://www.w3.org/2000/svg" viewBox="0 0 40 40">
	<path class="bg-logo" fill="#2F9A41" d="M0 0h40v40H0z"/>
	<path fill="#fff" d="M17.3277 10.1839c-2.3155 0-4.3369.6616-6.1011 1.9847.4411-.4411.9189-.8453 1.4334-1.2496 2.2419-1.61718 4.7044-2.16848 7.4241-1.76418 2.7198.44103 4.8883 1.76418 6.5054 3.96938 1.6171 2.2419 2.2051 4.7044 1.7641 7.4609-.0735.5513-.2205 1.1026-.3675 1.5803.8453-1.2128 1.3966-2.6462 1.6539-4.2266.1838-1.1393.1838-2.2052.0367-3.271.7718 1.7274.9924 3.5651.6616 5.5498-.441 2.7197-1.7642 4.8881-4.0061 6.5053-2.0949 1.5069-4.4471 2.1317-7.0199 1.8009-.0735-.4043-.1103-.8086-.1103-1.2496-.0735-1.6171.2206-3.124.8454-4.5207l-1.0658-.2205c-1.6539 2.0214-2.4258 4.3369-2.3523 6.9831 0 .3308.0368.6248.0735.9189-1.323-.4778-2.5359-1.2497-3.6385-2.3522-1.9479-1.948-2.9035-4.3002-2.9035-7.0567s.9923-5.1087 2.9035-7.0566c1.9479-1.9479 4.3001-2.9035 7.0566-2.9035.5513 0 1.1026.0367 1.6172.1102-1.3232-.6615-2.7933-.9923-4.4104-.9923Zm2.1317 19.0749c.6615.2573 1.3598.4411 2.0949.5513 2.83.441 5.366-.147 7.6814-1.8377 2.2787-1.6906 3.6754-3.9326 4.1164-6.7258.441-2.7933-.147-5.366-1.8009-7.6814-.9923-1.3599-2.2052-2.4257-3.6386-3.124-.0368-.0368-.0735-.1103-.1103-.147-1.6539-2.31549-3.8958-3.71211-6.7258-4.15315-2.83-.44104-5.366.14701-7.6814 1.83766-2.0582 1.50688-3.3813 3.45479-3.96939 5.88049C7.80857 15.7336 7 17.9389 7 20.5116c0 2.8667.99233 5.2924 3.0138 7.3138 1.8744 1.8745 4.1163 2.8668 6.7258 3.0138.1837 1.1393.5146 2.2052 1.0659 3.1608h4.1898c-1.2864-1.3599-2.1317-2.9403-2.5359-4.7412Z"/>
</svg>