<svg xmlns="http://www.w3.org/2000/svg" viewBox="0 0 40 40">
	<path class="bg-logo" fill="#8BBC06" d="M0 0h40v40H0z"/>
	<path fill="#fff" d="M20.0135 29.2068c-1.2055-.0084-2.3975-.2538-3.507-.722-1.1094-.4682-2.1145-1.1499-2.957-2.0058-.8425-.8558-1.5058-1.8689-1.9517-2.9806-.4458-1.1118-.6652-2.3002-.6457-3.4966-.0203-1.1972.1986-2.3866.644-3.4994s1.1085-2.127 1.951-2.9841c.8424-.8571 1.8477-1.5401 2.9575-2.0095 1.1099-.4694 2.3025-.7159 3.5089-.7254 1.2047.0129 2.395.2619 3.5024.7327 1.1075.4708 2.1103 1.1541 2.9509 2.0107.8406.8566 1.5023 1.8696 1.9473 2.9808.4449 1.1112.6643 2.2987.6454 3.4942.0184 1.1949-.2014 2.3815-.6467 3.4918-.4452 1.1103-1.1072 2.1222-1.9479 2.9777-.8406.8555-1.8433 1.5377-2.9505 2.0073-1.1071.4696-2.2969.7164-3.5009.7282Zm0-23.20637c-1.8519-.01458-3.6881.3382-5.4008 1.03764-1.7126.69943-3.2672 1.73141-4.5725 3.03533-1.30529 1.304-2.33493 2.8536-3.02848 4.5579-.69355 1.7044-1.03703 3.529-1.01027 5.3669-.02637 1.8378.31725 3.6622 1.01072 5.3664.69347 1.7042 1.72282 3.2538 3.02773 4.5579 1.3048 1.3041 2.8589 2.3365 4.5711 3.0366 1.7122.7002 3.5481 1.0539 5.3998 1.0405 1.8502.0114 3.6841-.3439 5.3941-1.045 1.7101-.7011 3.262-1.734 4.5647-3.038 1.3027-1.304 2.3301-2.8529 3.0219-4.5561.6918-1.7031 1.0341-3.5261 1.0069-5.3623.0279-1.8361-.3141-3.6592-1.0057-5.3625-.6917-1.7032-1.7191-3.2521-3.022-4.556-1.3028-1.30382-2.855-2.33628-4.5653-3.03678-1.7103-.70049-3.5444-1.05492-5.3946-1.04249"/>
</svg>