<svg xmlns="http://www.w3.org/2000/svg" viewBox="0 0 40 40">
	<path class="bg-logo" fill="#00BEF0" d="M0 0h40v40H0z"/>
	<path fill="#fff" d="M20 6C12.2581 6 6 12.2581 6 20s6.2581 14 14 14 14-6.2581 14-14S27.7419 6 20 6Zm-1.9355 19.9355-1.0322 3.0322c-3.871-1.2903-6.4517-4.9677-6.4517-9.0967 0-4.1291 2.5807-7.742 6.5162-9.0968l1.0322 3.0323c-2.5806.8387-4.258 3.2903-4.258 6-.1291 2.8387 1.6129 5.2903 4.1935 6.129Zm4.7742 3.0968-.9677-3.0968c2.6451-.8387 4.3871-3.2903 4.3871-6.0645s-1.742-5.1613-4.3226-6l1.0322-3.0968c3.9355 1.2903 6.5807 4.9677 6.5807 9.0968 0 4.258-2.7097 7.9355-6.7097 9.1613Z"/>
</svg>