<svg xmlns="http://www.w3.org/2000/svg" viewBox="0 0 40 40">
	<path class="bg-logo" fill="#222" d="M0 0h40v40H0z"/>
	<path fill="#fff" d="M7 20.5646C7 13.6312 12.811 8.0082 19.9821 8v4.5402c-4.5797.0062-8.2864 3.597-8.2864 8.0244 0 4.4275 3.7172 8.0285 8.3054 8.0285 4.5881 0 8.3012-3.56 8.3012-8.0572L33 20.54c0 6.9663-5.8173 12.5933-12.9989 12.5933S7 27.5042 7 20.5646Zm7.2635-.0002c0-3.0781 2.585-5.5737 5.7668-5.5737 3.1817 0 5.7689 2.4956 5.7689 5.5737 0 3.0781-2.5851 5.5738-5.7689 5.5738-3.1839 0-5.7668-2.4935-5.7668-5.5738Zm13.0706-10.255c-1.8239 0-3.3041 1.4293-3.3041 3.195 0 1.7636 1.4781 3.197 3.3041 3.197s3.3061-1.4314 3.3061-3.197c0-1.7657-1.4823-3.195-3.3061-3.195Z"/>
</svg>