<svg xmlns="http://www.w3.org/2000/svg" viewBox="0 0 40 40">
	<path class="bg-logo" fill="#005BFF" d="M0 0h40v40H0z"/>
	<path fill="#fff" d="M9.49717 18.5586c1.94513 0 3.37103-1.3387 3.37103-3.2788 0-1.9402-1.425-3.2788-3.37103-3.2788-1.94517 0-3.37104 1.3386-3.37104 3.2788 0 1.9401 1.42501 3.2788 3.37104 3.2788Zm13.13803 0c1.9452 0 3.371-1.3387 3.371-3.2788 0-1.9402-1.4258-3.2788-3.371-3.2788s-3.371 1.3386-3.371 3.2788c0 1.9401 1.4258 3.2788 3.371 3.2788Zm10.2297-.2131v-3.7838c0-1.8237-.9829-2.5607-2.3111-2.5617-.886 0-1.5801.4272-1.9846 1.1255h-.0385v-.9314H26.912v6.1514h1.6375v-3.0271c0-1.3393.5973-1.8046 1.4259-1.8046.7892 0 1.2519.4084 1.2519 1.3974v3.4343h1.6376Zm-19.3994-4.7539v-1.3975h5.2399v1.3l-3.2939 3.4539h3.4482v1.3975h-5.4713v-1.3197l3.2939-3.4342h-3.2168Zm-3.96833 3.4539c-1.00171 0-1.65639-.6991-1.65639-1.7657 0-1.0677.65468-1.766 1.65639-1.766 1.00173 0 1.65643.6983 1.65643 1.766 0 1.0676-.6547 1.7657-1.65643 1.7657Zm13.13803 0c-1.0017 0-1.6564-.6991-1.6564-1.7657 0-1.0677.6547-1.766 1.6564-1.766s1.6564.6983 1.6564 1.766c0 1.0676-.6547 1.7657-1.6564 1.7657Zm4.4189 11.2647v-6.1253h-1.6385v2.2215H22.794v-2.2215h-1.6385v6.1253h1.6385v-2.4735h2.6216v2.4735h1.6385Zm-8.6718-5.2367v-.8886h1.6384v6.1253h-1.6384v-.8312h-.0384c-.3276.5794-1.0408 1.0435-2.043 1.0435-1.6384 0-2.9108-1.1782-2.9108-3.2849 0-2.0868 1.311-3.246 2.9108-3.246.9825 0 1.7541.4641 2.043 1.0819h.0384Zm-10.72422.2517c.40468-.7338 1.17542-1.1979 2.17762-1.1979 1.6187 0 2.9484 1.1979 2.9484 3.1103 0 1.9133-1.4644 3.2849-3.37278 3.2849C7.48405 28.5225 6 27.1509 6 24.5811c0-2.8982.79044-4.715 3.44993-4.9273l2.71777-.2124v1.565l-2.44772.2321c-1.58005.1547-2.04305.7341-2.10048 2.0867h.03858Zm7.44842 1.9511c0 1.0245.6351 1.7586 1.6187 1.7586.9825 0 1.6571-.7538 1.6571-1.7784 0-1.0435-.6746-1.7773-1.6571-1.7773-.9824 0-1.6187.7538-1.6187 1.7971Zm-7.39185-.0188c0 1.0622.73305 1.7774 1.67696 1.7774.94479 0 1.67699-.7152 1.67699-1.7774 0-1.0821-.7322-1.7199-1.67699-1.7199-.94478 0-1.67696.6378-1.67696 1.7199Zm21.98775.1161 2.2159 2.9366L34 28.3094l-2.7366-3.3426 2.5061-2.7819h-2.0241l-2.043 2.5312v-2.5312h-1.6385v6.1253h1.6385v-2.9366Z"/>
</svg>