<svg xmlns="http://www.w3.org/2000/svg" viewBox="0 0 40 40">
	<path class="bg-logo" fill="#003087" d="M0 0h40v40H0z"/>
	<path fill="#AED6FA" d="M29.3053 13.1223c.3491-2.1645 0-3.63083-1.187-4.95749-1.3266-1.46631-3.6308-2.09472-6.6333-2.09472h-8.6582c-.6284-.06983-1.1172.34912-1.2568.97754L8.00894 29.95c-.06982.4887.2793.9077.69824.9077h5.37642l-.3491 2.374c-.0698.4189.2095.7681.6284.7681h4.5386c.5586 0 .9776-.419 1.0474-.9077l.0698-.2095.8379-5.3765.0698-.2793c.0698-.5586.5586-.9077 1.0474-.9077h.6982c4.3989 0 7.8203-1.7456 8.7979-6.9126.4189-2.1645.2094-3.9101-.9077-5.2368-.3492-.4888-.7681-.8379-1.2569-1.0474Z"/>
	<path fill="#E6F2FC" d="M29.3053 13.1223c.3491-2.1645 0-3.63083-1.187-4.95749-1.3266-1.46631-3.6308-2.09472-6.6333-2.09472h-8.6582c-.6284-.06983-1.1172.34912-1.2568.97754L8.00894 29.95c-.06982.4887.2793.9077.69824.9077h5.37642l1.3267-8.5186-.0698.2793c.0698-.6284.6284-1.0473 1.2568-1.0473h2.5137c5.0273 0 8.9375-2.0249 10.0547-7.8902.0698-.2793.1396-.4189.1396-.5586Z"/>
	<path fill="#fff" d="M16.8766 13.1221c.0698-.3492.2793-.6284.6284-.8379.1397-.0698.2793-.1397.4888-.1397h6.773c.8378 0 1.5361.0699 2.2343.1397.2095 0 .419.0698.5586.1396.2095.0699.3491.0699.5586.1397.0698 0 .1397.0698.2793.0698.3491.1396.6284.2095.9077.4189.3491-2.1645 0-3.63081-1.187-4.95747C26.7917 6.62842 24.4875 6 21.485 6h-8.6582c-.6284 0-1.1172.41895-1.2568 1.04736L8.00894 29.9497c-.06982.4888.2793.9077.69824.9077h5.37642l1.3267-8.5185c0-.0699 1.4663-9.2168 1.4663-9.2168Z"/>
</svg>