<svg xmlns="http://www.w3.org/2000/svg" viewBox="0 0 40 40">
	<path class="bg-logo" fill="#5E686B" d="M0 0h40v40H0z"/>
	<path fill="#FFD100" d="M19.9652 34c7.7826 0 14.0378-6.239 14.0378-14.0015 0-7.52-6.0513-13.72182-13.5287-13.9923.0041 2.0615 1.384 3.11186 2.7639 4.1622 1.382 1.052 2.764 2.1039 2.764 4.1715v3.0469L14.1463 19.926v-5.5861c0-2.113 1.394-3.1649 2.782-4.2123C18.3035 9.08986 19.6729 8.05659 19.6742 6 12.0984 6.1564 6 12.4055 6 19.9985 6 27.761 12.1825 34 19.9652 34Zm-5.8915-7.69v-5.5136l9.31-2.1038v4.8606c0 2.9019-2.0365 5.4411-4.8732 6.0214l-7.0553 1.5234c-.291-.2175-.5819-.4352-.8001-.6528 2.0366-.3628 3.4186-2.1039 3.4186-4.1352Z"/>
</svg>