<svg xmlns="http://www.w3.org/2000/svg" viewBox="0 0 40 40">
	<path class="bg-logo" fill="#ED1A3B" d="M0 0h40v40H0z"/>
	<path fill="#fff" d="M17.234 29.7149v-6.2185c0-.2117.1058-.3135.3176-.3054 4.6222.1588 9.6923-.4683 10.1606-6.2063.3502-4.333-2.7-6.8701-6.8375-6.9475-2.5358-.04341-5.0864-.04884-7.652-.0163-.1521.0028-.2281.0801-.2281.2322V29.719c0 .1531.128.281.281.281l3.6774-.0041c.1873 0 .281-.0936.281-.281Zm0-9.9854-.0082-6.3936c0-.0778.0689-.1467.1466-.1467l3.0095-.004c1.6763-.0023 3.1336 1.3613 3.1357 3.0583v.562c.0022 1.6969-1.4514 3.0643-3.1275 3.0665l-3.0095.0041c-.0778 0-.1466-.0689-.1466-.1466Z"/>
</svg>