<svg xmlns="http://www.w3.org/2000/svg" viewBox="0 0 40 40">
	<path class="bg-logo" fill="#C11F3E" d="M-.00024414 0h40v40h-40z"/>
	<path fill="#fff" d="M28.8297 21.7513c-.9906.4478-2.2694 1.6114-2.2694 1.6114s.0678-.5089.1017-.7463c.2036-1.4248.6445-2.8156 1.1195-4.1725.8141-2.205 2.4084-5.1562.3731-5.5972-.7802-.1696-1.6622-.0678-1.6622-.0678s.2714-1.2552 1.3569-1.3908c.7463-.1018 2.205-.1697 3.1548-.2375 1.6961-.1357 2.2389-1.0177 1.8996-2.06927-.5766-1.6622-3.9349-.98375-8.1753-.71237-4.6473.3053-9.6339 1.18729-11.0247 1.59436-2.4085.71238-3.528 1.25508-3.3583 2.27278.1696 1.2212 1.6282 1.1534 2.9173.9159 1.0516-.2035 4.0707-.7802 6.14-1.0516 2.9512-.3731 4.2402-.4749 4.2402-.4749s-1.4247 4.2403-2.8834 8.1753c-.6106 1.6622-1.8657 5.1223-3.1887 7.4629-.7802 1.323-1.7639 2.1372-3.6975 2.1711-2.3067.0339-3.7315-1.4926-4.30816-3.494-.47492-1.6961-.06785-3.494 1.32296-4.1046 1.2891-.6107 2.7477-.0679 2.7477-.0679s-.0678.3392-.5088.5088c-.2375.0679-1.1194.2375-1.2551.3053-.5089.1697-.9159.9159-.2375 1.6962 1.0516 1.1534 3.0191.882 4.0367.1357 1.0177-.7463 1.8319-2.5103 1.2891-3.9011-.5427-1.3909-2.2728-1.7979-3.9689-1.7979-2.6459.0339-4.61345 1.1873-5.46151 3.0869-.81414 1.8658-.81414 5.0884.88198 7.4629 1.52651 2.1711 4.17243 2.9513 5.97033 2.8496 1.5943-.0679 2.9852-.5767 4.0368-1.4587 1.4926-1.2551 2.7138-3.8332 3.935-6.988 1.1872-2.9513 2.171-5.699 2.171-5.699s-.5088 2.6799-.7463 4.4099c-.3053 2.3407-.2375 4.2064-.0678 4.7831.2035.7123.7802 1.1194 1.4247 1.2212.6784.1017 1.0855-.4071 1.5604-1.0177 1.6962-2.1371 1.9743-2.0896 2.7478-2.6459 1.7097-1.228.9633-3.6806-.614-2.9683Z"/>
</svg>