<svg xmlns="http://www.w3.org/2000/svg" viewBox="0 0 40 40">
	<path class="bg-logo" fill="#00B295" d="M0 0h40v40H0z"/>
	<path fill="#fff" d="M16.2986 6c-2.4736.65293-4.7292 1.95107-6.53633 3.76163C7.95023 11.5658 6.65161 13.82 6 16.2925V8.35752c.00114-.62415.24934-1.22248.69035-1.66423.44101-.44175 1.03898-.691 1.66323-.69329h7.94502ZM34 16.2925c-.651-2.4718-1.948-4.7258-3.758-6.53087C28.4333 7.95091 26.1762 6.65281 23.7013 6h7.945c.6243.00229 1.2223.25154 1.6633.69329.441.44175.6892 1.04008.6904 1.66423v7.93498Zm-3.758 13.9458c-1.8076 1.8123-4.0651 3.1106-6.5407 3.7617h7.945c.6236-.0024 1.2209-.251 1.6618-.6918.4409-.4408.6896-1.0381.6919-1.6614v-7.948c-.6486 2.4753-1.9459 4.7326-3.758 6.5395ZM6 23.6987c.65019 2.4756 1.94891 4.7329 3.76227 6.5395 1.80593 1.8121 4.06203 3.1105 6.53633 3.7617H8.35358c-.62385-.0012-1.22183-.2494-1.66296-.6905-.44114-.4411-.68947-1.039-.69062-1.6627v-7.948Z"/>
	<path fill="#fff" d="M13.6243 13.6275c1.261-1.2604 2.8674-2.1186 4.6161-2.4662 1.7488-.3476 3.5614-.1689 5.2087.5134 1.6472.6823 3.055 1.8377 4.0456 3.32.9905 1.4822 1.5192 3.225 1.5192 5.0076 0 1.7827-.5287 3.5253-1.5192 5.0077-.9906 1.4823-2.3984 2.6376-4.0456 3.3199-1.6473.6823-3.4599.861-5.2087.5134-1.7487-.3475-3.3551-1.2058-4.6161-2.4661-.838-.8368-1.5028-1.8305-1.9563-2.9244-.4536-1.0938-.687-2.2664-.687-3.4505s.2334-2.3566.687-3.4505c.4535-1.0938 1.1183-2.0875 1.9563-2.9243Z"/>
</svg>