<svg xmlns="http://www.w3.org/2000/svg" viewBox="0 0 40 40">
	<path class="bg-logo" fill="#164194" d="M0 0h40v40H0V0Z"/>
	<g fill="#ec6608">
		<path d="M22.1 27.9H28l1.2-3.2h-4.6c-.6 1.2-1.5 2.3-2.6 3.2ZM25.7 21.7zM25.8 19.9v.2c0 .5 0 1.1-.1 1.6h4.7l1.2-3.2h-5.9c0 .5 0 .9.1 1.4ZM22.3 12.3c1 .9 1.9 2 2.5 3.2h8l1.2-3.2H22.3Z"/>
		<path d="m12.4 27.9 1.2-3.2h11.1c.5-.9.8-1.9 1-3H14.8l1.2-3.2h9.7c-.2-1.1-.5-2.1-.9-3h-7.6l1.2-3.2h3.9c-1.7-1.5-3.9-2.3-6.4-2.3C10.4 10 6 14.5 6 20.1s4.4 10.1 9.9 10.1 4.5-.8 6.2-2.2h-9.7Z"/>
	</g>
</svg>