<svg xmlns="http://www.w3.org/2000/svg" viewBox="0 0 40 40">
	<path class="bg-logo" fill="#4D4F53" d="M0 0h40v40H0z"/>
	<path fill="#fff" d="M22.7439 7.75587 16.2631 4v3.82653C10.9224 9.30112 7 14.1909 7 20.0001c0 5.0105 2.91679 9.3392 7.145 11.3816l1.2622-3.4691c-2.823-1.5107-4.7443-4.4864-4.7443-7.9125 0-3.7614 2.3162-6.9797 5.5998-8.3121l.0004 13.8727 6.4808-17.80483Z"/>
	<path fill="#55ED00" d="m16.519 32.2445 6.4813 3.7559v-3.8261c5.3394-1.475 9.2631-6.3648 9.2631-12.174 0-5.0105-2.9172-9.3392-7.1458-11.38116l-1.2622 3.46856c2.823 1.5108 4.7442 4.4865 4.7442 7.9126 0 3.7609-2.3161 6.9801-5.5997 8.3121l-.0004-13.8731-6.4805 17.8052Z"/>
</svg>