<svg xmlns="http://www.w3.org/2000/svg" viewBox="0 0 40 40">
	<path class="bg-logo" fill="#FFE600" d="M0 0h40v40H0z"/>
	<path fill="#2B2D34" d="M25.7195 18.0494v-3.82l1.38-1.38v3.31l1.2 1.2 4.83-4.83 1.19 1.19c-.01-.9-.19-3.51-2.4-5.67998-2.38-2.3-4.96-1.26-5.84-.38l-4.82 4.81998 1.23 1.23-2.49 2.51-2.49-2.49 1.23-1.23-4.82-4.81998c-.88-.88-3.46-1.92-5.84006.38-2.21 2.16998-2.39 4.77998-2.4 5.67998l1.19-1.19 4.83006 4.83 1.2-1.2v-3.31l1.38 1.38v3.82l1.94 1.93-9.56006 9.56 3.78006 3.77 9.56-9.55 9.56 9.56 3.78-3.77-9.56-9.57 1.94-1.95Z"/>
</svg>