<svg xmlns="http://www.w3.org/2000/svg" viewBox="0 0 40 40">
	<path class="bg-logo" fill="#990032" d="M0 0h40v40H0z"/>
	<path fill="#fff" d="M7.89 24.0712v-1.4699h3.43v-1.75H6v9.24h4.41l1.33-1.33v-3.2901l-1.4-1.33c0-.07-2.45-.07-2.45-.07Zm1.89 4.2H7.89v-2.45h1.89v2.45Zm4.41-7.49-1.89 9.24h1.89l.42-2.1699h2.45l.42 2.1699h1.89l-1.89-9.24h-3.29Zm.77 5.3201.7-3.5h.35l.7 3.5h-1.75Zm9.45-1.5401H22.1v-3.78h-1.89v9.24h1.89v-3.6399h2.31v3.6399h1.89v-9.24h-1.89v3.78Zm7.91.7701 1.61-4.5501h-1.96l-1.26 3.64h-1.05v-3.64H27.7v9.24h1.96v-3.78h.98l1.33 3.78H34l-1.68-4.6899ZM12.7901 19.24h1.89v-7.49h2.45V10h-4.34v9.24ZM6.07007 10v9.24h1.89v-2.31h2.45003l1.4-1.33v-4.2l-1.4-1.4H6.07007Zm3.78 5.11h-1.96v-3.36h1.89v3.36h.07Zm9.73003-3.36h2.73V10h-3.29l-1.33 1.33v6.58l1.33 1.33h3.29v-1.82h-2.73v-5.67Z"/>
</svg>