<svg xmlns="http://www.w3.org/2000/svg" viewBox="0 0 40 40">
	<path class="bg-logo" fill="#0039A6" d="M0 0h40v40H0z"/>
	<g fill="#fff">
		<path d="m27.7565 15.044-1.4085 1.4085 7.879 7.835H37l-9.2435-9.2435Zm-15.7139 0H5v9.3315h2.37689v-2.4649h5.19391s2.553-.2201 2.641-3.1692c.044-3.5213-2.9051-3.6974-3.1692-3.6974Zm-.5722 4.4941H7.37689v-2.0688h4.18161c.132 0 .3081 0 .4401.044.1321.0441.2641.0881.3962.1761.132.088.2201.2201.2641.3521.044.1321.088.2641.088.3962.1321 1.1884-1.2765 1.1004-1.2765 1.1004Zm4.6218-.5722h2.2888v2.3329h-2.2888v-2.3329ZM18.425 15l7.6149 7.6149 1.3645-1.4086L21.1981 15H18.425Zm-3.2572 0 9.2435 9.2435 1.3645-1.4086L17.9409 15h-2.7731Zm18.531 9.2919-7.6149-7.6193-1.3645 1.4086 6.2063 6.2063h2.7731v.0044Z"/>
		<path d="M15.564 15.2207h2.2888l2.9491 2.8611h-2.2888c-1.6286-1.5846-2.9491-2.8611-2.9491-2.8611Zm11.4883 2.773h-1.9808l1.0124-.9683.9684.9683Zm-8.1431-2.773H21.11l2.9051 2.8171h-2.2448c-1.4966-1.4966-2.8611-2.8171-2.8611-2.8171Zm11.5764 2.8171-2.7291-2.7291-1.1444 1.1445 1.5846 1.6286h2.2889v-.044Z"/>
	</g>
	<path fill="#D52B1E" d="M36.4277 24.0671h-2.2009l-2.817-2.8171h2.2008c1.5406 1.4966 2.773 2.729 2.8171 2.8171ZM25.0714 21.294l.9684.9684.9683-.9684h-1.9367Zm8.055 2.7731c-.088-.1321-1.3645-1.3646-2.817-2.8171h-2.1568l2.817 2.8171h2.1568ZM23.927 21.294h-2.2449l2.7291 2.729 1.1004-1.1004-1.5846-1.6286Z"/>
	<path fill="#0039A6" d="M21.6865 21.2952h2.2405l-3.1252-3.2132h-2.2889l3.1692 3.2132h.0044ZM25.0759 21.2943h1.9323l.1145-.1232-3.1076-3.134h-2.2448l3.3012 3.2572h.0044ZM28.1526 21.2514h2.1568l-3.2528-3.2573H25.0715l-.1145.1013 3.1956 3.156ZM28.1968 18.082l3.2132 3.1692h2.2008l-3.0811-3.1692h-2.3329Z"/>
</svg>