<svg xmlns="http://www.w3.org/2000/svg" viewBox="0 0 40 40">
	<path class="bg-logo" fill="#F68C28" d="M0 0h40v40H0z"/>
	<path fill="#fff" d="M8.01807 7.34449C9.01528 7.14505 10.4114 7 12.3877 7c1.9944 0 3.4086.43515 4.3696 1.32357.9065.83403 1.523 2.21203 1.523 3.84383 0 1.6318-.4714 3.0097-1.3055 3.9344-1.106 1.2148-2.7378 1.7406-4.6415 1.7406-.417 0-.7978-.0181-1.106-.0726v5.9471H8.01807V7.34449ZM11.2091 14.887c.272.0726.6165.0907 1.0879.0907 1.7225 0 2.7741-1.0154 2.7741-2.7015 0-1.5231-.9066-2.44774-2.5203-2.44774-.6527 0-1.106.07252-1.3417.14504v4.9135Zm11.7363-7.76005v6.38215h5.3124V7.12695h3.2274V23.735h-3.2274v-6.9442h-5.3124v6.9442h-3.2455V7.12695h3.2455ZM31.4 29.0996H8v3.9h23.4v-3.9Z"/>
</svg>