<svg xmlns="http://www.w3.org/2000/svg" viewBox="0 0 40 40">
	<path class="bg-logo" fill="#5052FE" d="M0 0h40v40H0z"/>
	<path fill="#fff" d="M25.9692 7.34332c2.7808 1.3145 5.0515 3.50788 6.4614 6.24158l.0153.0153c1.097 2.1332 1.6258 4.513 1.5356 6.91-.476-.0077-.9597-.0307-1.4396-.0653-1.4818-.9635-10.8025-6.7756-10.8025-6.7756-.1614-.1062-.3483-.1672-.5413-.1765-.2138.0145-.4219.0747-.6104.1765-3.7199 1.7045-7.4282 3.6585-9.6701 4.8447-.0786.0062-.1572.012-.2357.0179-.163.0121-.3254.0241-.486.0397.6065-.5566 8.9023-7.8505 9.7392-7.9043.737.0615 8.2344 6.3342 8.4148 6.4954 0 0-6.1422-6.5261-7.7392-7.3284-.212-.12364-.4428-.21182-.6833-.26103-.2394.04691-.4691.13387-.6795.2572-1.8734.80613-11.38608 9.04433-11.38608 9.04433S6.61806 19.1167 6 19.2587c.1637-3.0714 1.33409-6.0035 3.33036-8.3435C11.3266 8.57521 14.0377 6.95752 17.045 6.31195c3.0073-.64557 6.1435-.28313 8.9242 1.03137ZM13.0171 18.135c-.1845.0936-.3492.1772-.4901.2485 5.0365-.4108 8.8869.1804 13.6241 1.1248 1.4741.2917 3.0711.5873 4.7026.7677-2.4761-1.8081-9.0252-5.9925-9.6701-5.9925l-.0039.0116c-.593 0-5.884 2.684-8.1626 3.8399Zm20.4906 3.343c-2.5294.1284-5.0652.0333-7.5779-.2841-5.4128-.6141-10.1845-.9981-14.3381-.0537-1.84852.3955-3.61226 1.1155-5.20939 2.1268.24205.9846.58826 1.9408 1.03266 2.8522 1.22857-.7617 2.55484-1.3532 3.94253-1.7582 2.9559-.8752 6.1191-.9559 9.3745-.6871.6261.0514 1.2505.1069 1.8748.1623h.0001c3.0077.2671 6.013.5339 9.2079.3559.5298-.0256 1.0519-.0678 1.5663-.1266.2613-.8565.4412-1.7356.5374-2.6258l-.3839.0307-.0269.0076Zm-5.8344 7.3856c1.1915-.0274 2.3756-.1949 3.5279-.4991.7041-.9467 1.2858-1.9786 1.7313-3.0711-.5604.1037-1.1516.1919-1.7198.2649-2.0498.2555-4.1765.06-6.3028-.1355-2.2819-.2098-4.5635-.4196-6.7493-.0718-2.1366.2915-4.1805 1.059-5.981 2.2457-.8402.5788-1.5938 1.2741-2.23802 2.0654.81532.7759 1.67812 1.5003 2.58352 2.1689 1.7544-1.8849 4.3456-3.1863 8.4455-3.3706 1.2765-.0579 2.3991.0661 3.5134.1892 1.0271.1134 2.0471.226 3.1739.1947l.0154.0193Zm-2.371 1.1256c.8177.0078 1.6593.0159 2.61-.0811.8074-.0827 1.6062-.2343 2.3878-.453-1.6932 1.848-3.8512 3.2078-6.2489 3.9377-2.3977.7299-4.9473.8032-7.383.2121.2303-.4151.5086-.8017.8293-1.1516.8935-.8987 1.9983-1.5587 3.2131-1.9195 1.7711-.5715 3.1441-.5584 4.5917-.5446Z"/>
</svg>