<svg xmlns="http://www.w3.org/2000/svg" viewBox="0 0 40 40">
	<path class="bg-logo" fill="#00274F" d="M0 0h40v40H0z"/>
	<path fill="#E4003A" d="M27.0832 6 12 7.99065v4.50925l15.0832-1.3598V6Z"/>
	<path fill="#fff" d="M21.3168 15.084c-2.4591 0-4.4577 1.5147-4.9533 2.1417v-1.8176H12v18.5924h4.3362v-6.613c.509.6407 2.4939 2.1281 4.9668 2.1281 4.1036 0 6.3635-2.2235 6.3635-7.2264s-2.2569-7.2052-6.3497-7.2052Zm-1.5534 10.8298c-2.5837 0-3.3968-.9376-3.3968-3.6352 0-2.6976.8071-3.6352 3.3968-3.6352 2.5897 0 3.3816.924 3.3816 3.6352 0 2.7112-.7797 3.6291-3.3816 3.6291v.0061Z"/>
</svg>