<svg xmlns="http://www.w3.org/2000/svg" viewBox="0 0 40 40">
	<path class="bg-logo" fill="#00C09F" d="M0 0h40v40H0z"/>
	<path fill="#fff" d="M10.2091 11C8.43619 11 7 12.4371 7 14.2112v11.4473c0 1.7741 1.43619 3.2112 3.2091 3.2112 1.773 0 3.2092-1.4371 3.2092-3.2112V14.2211c0-1.7741-1.4362-3.2112-3.2092-3.2112V11Zm7.7456 0c-2.0503 0-3.7143 1.6651-3.7143 3.7067 0 2.0417 1.664 3.7167 3.7143 3.7167s3.7143-1.6651 3.7143-3.7167c0-2.0515-1.664-3.7067-3.7143-3.7067Zm13.6489.9517c-.6042-.6045-1.4164-.9415-2.2682-.9415-.8518 0-1.664.337-2.2682.9415L15.647 23.3792c-1.248 1.2488-1.248 3.2905 0 4.5393 1.248 1.2587 3.2883 1.2488 4.5364 0L31.6036 16.491c.6042-.6046.941-1.4074.941-2.2697 0-.8622-.3368-1.665-.941-2.2696Zm-2.3179 16.9282c2.0513 0 3.7143-1.664 3.7143-3.7166 0-2.0527-1.663-3.7167-3.7143-3.7167-2.0514 0-3.7143 1.664-3.7143 3.7167 0 2.0526 1.6629 3.7166 3.7143 3.7166Z"/>
</svg>