<svg xmlns="http://www.w3.org/2000/svg" viewBox="0 0 40 40">
	<path class="bg-logo" fill="#005177" d="M0 0h40v40H0z"/>
	<path fill="#E41A19" d="M32 8H8v24h24V8Z"/>
	<path fill="#fff" d="M24.4401 11.4805c-.12.18-.24.3-.42.42-.18-.12-.3-.24-.42-.42.12-.18.24-.3.42-.42.18.12.3.24.42.42Zm-.12 1.02v.72h-.48v-.72c-.24-.06-.54-.12-.54.06 0 .24.12.54.24.72-.06 0-.12.06-.18.06-.06.06-.18.06-.24.06-.24-.3-.36-.66-.42-1.02 0-.54.9-.36 1.2-.3l.24.06.24-.06c.3-.06 1.14-.24 1.14.3-.06.42-.18.72-.42 1.02-.06 0-.12 0-.18-.06-.12 0-.18-.06-.3-.06.12-.24.24-.48.24-.72 0-.12-.3-.12-.54-.06Zm.72 1.08c-.3-.06-.6-.12-.9-.12-.3 0-.6.06-.9.12l.12.48c.24-.06.48-.06.78-.06.24 0 .54.06.78.12l.12-.54Zm-3.78 14.52h-1.62v-.36l-.24.3v-.42c0-.06 0-.18.06-.24l.18-.18h.42c.24-.06.48-.12.66-.3.18-.18.3-.36.36-.6-.36-.6-.6-1.26-.66-1.98 0-.96.6-1.74 2.04-1.74.54 0 1.02.18 1.5.36 0 0-1.86 1.92-1.86 2.52.12.3.24.6.3.96-.3.66-.72 1.2-1.14 1.68Zm7.68-9.24-.12-.18c.18-.12.36-.18.54-.18.18 0 .36 0 .54.12-.48-.96-1.62-.66-1.68.18-.18.12-.36.3-.42.48-.12.18-.18.42-.12.66 0 .6.42 1.56.72 2.34.24.54.42.96.42 1.14v.24c0 .06-.06.12-.12.18s-.12.12-.18.12-.12.06-.24.06c-.24 0-.48-.18-.9-.72-.48-.66-1.08-1.26-1.74-1.68l-1.2-.84 1.68-1.26.12.6c.3-.42.48-.84.54-1.32.06-.48.06-.96-.06-1.44 0-.06 0-.12-.06-.18 0-.06 0-.06-.06-.12l.42.18v-.24c-.3-1.5-1.38-2.7-2.94-2.7-.42 0-.84.06-1.26.18l.06.36c-.18.06-1.14.48-1.14.48 0 .36.12.72.36.96.3.06.6.06.84-.06.06.06.06.12.06.18s0 .12-.06.18-.06.12-.12.18-.12.06-.18.06h-.42c0 .06 0 .18.06.24l.18.18h.9c.12 0 .24 0 .3-.06.12-.06.18-.12.24-.24s.12-.18.12-.3 0-.24-.06-.3c0-.12-.06-.24-.12-.3.12.06.18.18.3.24.06.12.12.24.12.36.06.12.06.24.06.3 0 .12-.06.24-.12.3-.06.12-.12.18-.24.24.06.12-.06.12-.18.12-.3.06-.42.06-.54.06-.18 0-.3.06-.66.12-.36.06-.66.24-.9.48s-.42.54-.54.9l-.9.36-.42.18c-.42.12-.84.3-1.2.48-.24.18-.42.48-.48.78-.06.12-.06.18-.06.3s0 .24.06.3c.24.18.54.24.78.24l-.3-.3.42-.06c.18-.12.24-.3.3-.48l.6.06c.42.06.84 0 1.26-.18.18.36.48.72.84.96l.36.18c.9.48 2.82 1.2 2.82 1.2 0 .06 0 .06-.06.12-.54.54-.9 1.26-.9 2.04 0 1.02 1.62 1.02 1.62 1.02h.42c-.06.42-.36.96-.72.96h-.48c-.06.06-.12.06-.18.18-.06.06-.06.12-.06.24v.42l.3-.3v.3h1.62l.12-.24c.36-.6.6-1.2.78-1.92 0-.3-1.26-.6-1.38-.6.18-.6.36-1.26.48-1.92.54.78 1.08 1.08 1.44 1.08.24 0 .48-.12.66-.24.18-.18.3-.42.3-.66 0-.36-.12-.66-.36-1.26-.12-.3-.24-.6-.42-1.02l-.06-.12c-.3-.84-.6-1.5 0-1.92v.06l.36.18c.12 0 .24 0 .42-.06.12-.06.24-.12.3-.24s.12-.24.12-.36c-.12-.24-.36-.18-.6-.06Zm-5.76-3.96c.24-.06.54 0 .78.12-.54.36-.84.3-.78-.12Zm-2.64 1.38.24.3.96 1.26c-.42.24-.96.3-1.44.18-.72-.18-.9-1.26-.9-1.26l-.06-.6c-.18 0-.36 0-.54-.12l-.12-.36-.18.36c-.06-.24-.06-.48 0-.72.06-.06.18-.12.24-.12.12-.06.18-.06.3 0 .3 0 .54.06.78.18l.72.9Z"/>
</svg>