<svg xmlns="http://www.w3.org/2000/svg" viewBox="0 0 40 40">
	<path class="bg-logo" fill="#414042" d="M0 0h40v40H0z"/>
	<path fill="#fff" d="M11.1224 6.71974C13.7621 4.95991 16.8018 4 20.0015 4c4.2396 0 8.3192 1.67984 11.2789 4.71955C34.3202 11.6793 36 15.7589 36 19.9985c0 3.1997-.9599 6.2394-2.6397 8.8791-1.7599 2.6398-4.2396 4.7196-7.1994 5.9195-2.9597 1.1999-6.2394 1.5198-9.2791.8799s-5.9194-2.1598-8.15922-4.3996c-2.23979-2.2398-3.75964-5.0395-4.39958-8.1592-.63994-3.1197-.31997-6.3194.87991-9.1991C6.4028 10.9593 8.4826 8.47958 11.1224 6.71974Zm.9599 25.19766c2.3197 1.5198 5.1195 2.3997 7.9192 2.3997 3.7597 0 7.4393-1.4398 10.0791-4.1596 2.7197-2.6397 4.2396-6.3194 4.2396-10.079 0-2.8797-.8-5.6795-2.3998-7.9993-1.5199-2.31974-3.8396-4.23956-6.3994-5.27946-2.5598-1.03991-5.4395-1.35988-8.2392-.79993-2.7998.55995-5.3595 1.91982-7.35933 3.91963C7.92266 11.9193 6.56278 14.399 6.00284 17.2787c-.55995 2.7198-.31997 5.6795.79992 8.2393 1.1199 2.5597 2.95972 4.7995 5.27954 6.3994Zm12.1586-.9599c.4-1.1999.64-3.8397-.7199-5.2795.7999 1.5998.48 4.2396-1.5998 6.0794.3999-.08 1.3598-.32 2.0798-.56.08 0 .1599 0 .1599-.08.08-.08.08-.08.08-.1599Zm.88-9.9191c2.1598.4799 4.2396 1.5198 5.9194 2.9597.04 0 .06.02.08.04.02.02.04.04.08.04v.16c-.24.6399-.56 1.2799-.9599 1.9198-1.1199-2.2398-2.8798-3.9996-5.1195-5.1195Zm6.7193-1.1199c.08 0 .08.08.08.16 0 .3199 0 .6399.08.9599-1.1199-.8799-2.3998-1.5999-3.7596-2.1598.7199 0 1.5198-.16 2.2397-.48-.0533.16-.1066.2489-.1599.3378-.0267.0444-.0534.0889-.08.1422-.08.16-.24.24-.4.32.32.12.66.2399.9999.3599.34.12.68.24.9999.36Zm-6.3993 4.3999c.48.16.9599.16 1.4399 0-.7031-.1758-1.2989-.6627-1.9918-1.229-1.199-.9798-2.6885-2.1972-5.5275-2.4507-.0177 0-.0392.001-.0633.0021-.194.0088-.5501.0249-.3366-.402.6399-.64 1.2798-1.1999 1.9998-1.6799-.1511 0-.5696.0357-1.0115.0734-.494.042-1.0172.0866-1.2283.0866-.4 0-.56-.08-.56-.3999 0 0-.8799.7999-.4799 1.2798.08.08.2399.08.4799 0 .12-.0399.2599-.0799.3999-.1199l.0001-.0001c.14-.04.28-.0799.4-.1199h.0799v.08l-.4799.7199-.0116.0343c-.0748.221-.1252.3695.3316.4456 1.2798.4 2.5597.9599 3.7596 1.6799 1.2799.7999 2.3198 1.8398 3.0397 3.1997.7199 1.2799 1.0399 2.7997 1.0399 4.2396.56-.4 1.1999-.8799 1.6799-1.3599.08-.08.08-.24.08-.24-.64-1.5198-1.6799-2.8797-3.0398-3.8396Zm3.1196-10.7986c.32.16 1.5999.9599 1.8399 1.1199.1599.08-.08.4799-.48.7199-.08.24-.16.48-.32.6399-.16.16-.3199.32-.5599.4-.24.08-.48.08-.7199 0l-.32.32c-.16.08-.24.08-.16-.08 0-.08 0-.24-.08-.32-.128-.128-.256-.0512-.384.0256-.032.0192-.0639.0384-.0959.0544-.16.08-.24-.16-.24-.16-.24-.08-.48-.08-.72 0-.2399 0-.4799.16-.6399.32.24 0 .48.08.6399.24.16.08.32.2399.4.4799.08.24.48.24.6399.08 0-.08.16-.08.16.08 0 .08 0 .24-.08.32.0891.0668.1659.115.2267.1533.1576.0991.2087.1312.0933.2466-.32.64-.6399.56-.7999.48-1.1199-.4-2.3198-.64-3.5197-.7199l.48-.48c-5.5995 0-6.5594.6399-6.8794 1.0399-.08.08-.08.24-.08.32 0 .08 0 .2399.08.3199-1.1199.08-2.1598.48-3.1197 1.0399-.6399.64-.7199 1.9999-.7199 2.4798.0838-.0629.1677-.1313.253-.2008.2402-.1959.4917-.4011.7869-.5191.8799-.32 1.8398-.4 2.7997-.24.24-.08.4 0 .56.08.08.08.2399.24.3199.4.08.3199-.2399.3199-.3999.1599-.5247-.3498-.8582-.1737-1.2226.0186-.3022.1595-.6257.3302-1.0972.2214.16.16.32.24.4799.32.16.08.4.08.56 0 1.0399-.32 1.2799 0 1.3599.16-.8 0-1.5199.16-2.2398.4799l-1.2799.16c.16.16.4.32.6399.4.24.08.56.08.8.08.9599-.08 1.8398-.08 2.7997 0 2.1598.2399 2.3198 2.2398 1.0399 3.5196.32-.08.6399-.2399.8799-.4799s.4-.48.56-.7999c.7999 3.3596-2.3998 5.1995-4.9596 4.7195-1.0399-.24-2.0798-.7199-2.9597-1.3599-.3999-.3199-.7999-.6399-1.1199-.9599 1.9998.48 4.0796.4 5.9995-.3199-2.5598.1599-5.0396-.48-7.2794-1.6799-.4799-.16-.79989-.4799-1.03986-.8799-.47996-.8799-.87992-1.8398-1.1199-2.8797 1.35987 1.1199 4.07966 2.6397 5.43946 2.7997-2.2398-1.2799-4.15958-3.1197-5.43946-5.3595-.23997-.32-.39996-.7999-.39996-1.1999.07999-1.0399.31997-2.0798.63994-3.0397.47995 1.1999 1.43988 3.3597 2.71978 4.3996-.88-2.0798-1.35991-4.3196-1.35991-6.6394 0-.3199.16001-.5599.32001-.7999.4799-.7199 1.1199-1.4399 1.7598-1.9998-.24 1.5998-.32 3.1997 0 4.7195.32-2.1598 1.1199-4.2396 2.3198-6.07938.0388-.03882.0776-.08235.1176-.12716.1247-.13986.2606-.29221.4423-.3528.7999-.31997 1.5999-.63994 2.3998-.79992-.8799.71993-1.5999 1.67986-1.9998 2.71976 2.4224-2.36337 4.7576-2.98111 6.5864-3.46491.6472-.17121 1.231-.32564 1.7328-.53473.4-.23998.5599.07999.5599.39996s-.1599.79993-.1599.79993c.6399.07999 1.1998.39996 1.6798.79992v-.39996c1.5199 1.35989 2.0798 2.47979 1.9998 3.27969 0 .24.08.5599.24.7999.16.24.4.4.6399.56Zm-8.1592.6399-.7199.24c.16-1.4399.8799-2.7997 1.9198-3.7597-1.6799.64-3.0397 3.1997-2.9597 4.7196.0662-.0331.1737-.08.2996-.1349.178-.0776.3929-.1713.5803-.2651-.16.72-.24 1.5199-.16 2.2398.48-.08 1.0399-.16 1.5199-.16-.8-.3199-.8-1.9198-.24-2.7197.24-.24 0-.24-.24-.16Zm2.7026-5.71515c.0696-.10305.1346-.1993.1771-.28427.16-.08.08-.23998-.16-.08-.5599.39997-1.0399.87992-1.2798 1.43987-.08.15998 0 .31997.16.15998.1937-.12917.4396-.2062.6535-.27318.051-.01598.1002-.03138.1464-.04679-.1175-.29374.1102-.63064.3028-.91561Zm3.7572 4.17535c.006-.0188.0125-.0388.0196-.06.16-.32.16-.72-.08-1.0399-.08.7999-.32.7999-.48.7199-.3999-.16-.8799-.24-1.2798-.16.4799.4.7999.9599 1.1199 1.5199.08-.32 0-.64-.16-.88 0-.0774 0-.1173.0181-.1289.0193-.0123.0593.0077.1419.049.0701.035.1402.0547.2037.0725.0812.0228.1513.0425.1962.0874.2187.0729.2381.013.3004-.1799Z"/>
</svg>