<svg xmlns="http://www.w3.org/2000/svg" viewBox="0 0 40 40">
	<path class="bg-logo" fill="#42AB44" d="M0 0h40v40H0z"/>
	<path fill="#fff" d="m16.2858 20.4061 2.6694-2.615v-1.7815l-2.6694 2.6089v1.7876Zm0-6.6311 2.6694-2.627V9.47509L16.2858 12.078v1.697Zm0 2.1923 2.6694-2.615v-1.6789l-2.6694 2.6089v1.685Zm-.7609-6.47409-.3624-.3382V5h-.3986v3.75642l-.3503-.34424V5h-.4046v3.01963l-.3563-.35028V5h-.3986v3.96175l2.6814 2.61495V5h-.4046v4.49321h-.006Zm.7609 8.66629 2.6694-2.615v-1.6789l-2.6694 2.609v1.6849Zm-3.0377-.3684 2.6814 2.615v-1.7876l-2.6814-2.6089v1.7815Zm5.3085-10.12175-.3563.35028V5h-.3986v3.41822l-.3624.3382V5h-.3986v4.14897l-.3503.34424V5h-.4046v6.5828l2.6694-2.62105V5h-.3986v2.66935ZM13.2481 11.148l2.6814 2.627v-1.691l-2.6814-2.61495V11.148Zm0 2.2043 2.6814 2.615v-1.691l-2.6814-2.5969v1.6729Zm0 2.1922 2.6814 2.615v-1.6849l-2.6814-2.6029v1.6728Zm15.9255 1.383h-6.4983c.1419-.2195.2174-.4754.2175-.7368-.0033-.7631-.644-1.3983-1.4072-1.395-.7585.0032-1.3918.6365-1.3951 1.395 0 .302.0967.5798.2597.8093-.1215.0809-.1981.2224-.1993.3684 0 .157.0846.2959.1993.3744-.1682.2364-.259.5192-.2597.8093 0 .7598.6353 1.3951 1.3951 1.3951.7632.0033 1.4039-.6319 1.4072-1.3951 0-.2718-.0786-.5254-.2175-.7368h4.8375v.2959h-.4832v.4107h.4832v.4227h-.4832v.7851h.4832v-.3502h.7066v.3502h.4771v-.7851h-.4771v-.4227h.4771v-.4107h-.4771v-.3019h.9542c.1842 0 .3382-.154.3382-.3382v-.2054c-.0032-.1829-.1553-.335-.3382-.3382Zm-6.9633 1.6306c0 .3948-.33.7247-.7247.7247s-.7247-.3299-.7247-.7247c0-.2773.1886-.5102.3261-.7368-.1307-.1116-.2075-.281-.2053-.4529 0-.1812.0785-.3382.1993-.4469-.1301-.2276-.3184-.4633-.3141-.7368 0-.3947.33-.7247.7247-.7247.3948 0 .7248.33.7248.7247 0 .2959-.3382.9965-.3382.9965v.3744c-.0061.006.3321.7066.3321 1.0025Zm-11.39-2.4821v1.7453c0 1.6608.7247 2.7358 1.1474 3.1465l2.766 2.7177c.773.7549.9059 1.0025 1.081 1.4313v-1.9326c0-1.5728-.7313-2.262-1.2019-2.7055-.8222-.7748-1.6289-1.5687-2.4276-2.3675-.6043-.5654-1.0712-1.2616-1.3649-2.0352Zm1.3649 6.3472c-.562-.5092-1.0229-1.1198-1.3589-1.7996v1.5037c-.018 1.1588.3879 2.2842 1.1414 3.1646l2.766 2.6995c.746.7285.8958 1.0915 1.0628 1.4959l.0182.0441v-2.0352c0-1.5757-.7338-2.2656-1.2008-2.7046l-.0003-.0003-.0007-.0006c-.8206-.7718-1.6307-1.5704-2.4277-2.3675Zm7.8153-14.19833c-.1914 0-.3828.00011-.5742.01208v.80926c4.6098-.35354 9.0726 2.27069 11.0046 6.47099.6331 1.3764.9797 2.8672 1.0186 4.3817.0782 3.0385-1.1177 6.0352-3.2663 8.1851-2.1486 2.1499-5.1447 3.3475-8.1832 3.2712-2.9621.0032-5.8043-1.17-7.9016-3.2617-2.0974-2.0917-3.2783-4.9307-3.2831-7.8928 0-3.4242 1.54-6.4801 3.9738-8.5335v-1.0387c-1.4877 1.1131-2.6952 2.558-3.52662 4.2197C8.43111 16.5099 7.99883 18.3426 8 20.2007c0 6.613 5.3749 11.9758 12.006 11.9758 3.1784.0017 6.2273-1.259 8.4764-3.5047 2.2491-2.2458 3.5144-5.2927 3.5176-8.4711 0-6.6128-5.3747-11.97556-11.9995-11.97583Zm9.0161 17.44743c-.1631.2717-.3442.5375-.5254.7851v-2.3916h.5254v1.6065Zm1.059-2.3532c-.0167.0551-.0336.1107-.0504.167-.2899-.296-.8093-.2899-1.2743-.2778h-.2597v-.4228h1.7393c-.0463.176-.0998.3521-.1549.5336Zm-12.1108-.6h.471v4.777h-.471v-4.777Zm-1.0871-.9124h1.5581c.4046 0 .6885.0845.8455.2415.163.151.2415.4349.2415.8335v4.469c0 .3986-.0724.6764-.2415.8334-.2416.2476-.7006.2476-1.075.2476l-.2416-.006v2.1137l.4711.0846v-1.7393c.7247 0 1.1897-.2416 1.4132-.7368v2.5908h.157l.3019-.006v-7.7725c0-.4107.0786-.7006.2416-.8636.151-.1631.4348-.2416.8274-.2416.0555 0 .1146-.0011.176-.0023.3858-.0075.8628-.0167 1.1285.2439.157.163.2295.4589.2295.8636v2.2949h-1.069v-2.4519h-.465v7.8449c.157-.0181.302-.0422.465-.0724v-4.8616h1.069v4.614c.2174-.0604.4348-.1269.6522-.2054v-4.2274c0-.4832.1148-.8455.6039-1.0086l-.5435-2.9411h1.0871l.1811 3.2068h.1329l.1812-3.2068h1.1354l-.61 2.9411c.5073.1812.61.4892.61 1.0025v2.7358c.3168-.2376.6193-.4937.9059-.767v-5.9366h3.1706l.0604-.4348h-7.4223l.1027.5375c-.2295-.4348-.6764-.6522-1.3287-.6522h-.465c-.7851 0-1.2682.314-1.4494.936-.1631-.6522-.6643-.9783-1.4857-.9783h-2.0292v8.769c.1571.0543.3141.1087.4711.151v-8.4369l.0061-.006Zm9.8379 3.3699-.5133-.4832.5133-2.6391v3.1223Zm-1.9283 4.4141c-.0277.0143-.0553.0285-.0828.0428v-3.8712h.4832v3.6115c-.1256.0753-.2637.1465-.4004.2169Z"/>
</svg>