<svg xmlns="http://www.w3.org/2000/svg" viewBox="0 0 40 40">
	<path class="bg-logo" fill="#0999D5" d="M0 0h40v40H0z"/>
	<path fill="#fff" d="M26.63 16.44v-3.22c0-1.75-1.4-3.22-3.22-3.22-1.75 0-3.15 1.47-3.15 3.22v3.22h-2.59c0-3.5-2.87-6.3-6.3-6.3C7.8 10.07 5 12.94 5 16.44s2.87 6.3 6.3 6.3v3.22c0 1.75 1.4 3.22 3.22 3.22 1.82 0 3.22-1.4 3.22-3.22v-3.22h2.59c0 3.5 2.87 6.3 6.3 6.3 3.5 0 6.3-2.87 6.3-6.3 0-3.43-2.87-6.3-6.3-6.3Zm-16.59 0c0-.7.56-1.26 1.26-1.26s1.33.49 1.33 1.26-.56 1.26-1.26 1.26c-.77 0-1.33-.56-1.33-1.26ZM26.63 24c-.7 0-1.26-.56-1.26-1.26s.56-1.26 1.26-1.26 1.26.56 1.26 1.26S27.33 24 26.63 24Zm3.78-8.82c1.4 0 2.59-1.12 2.59-2.59 0-1.47-1.12-2.59-2.59-2.59-1.4 0-2.59 1.12-2.59 2.59 0 1.47 1.19 2.59 2.59 2.59Z"/>
</svg>