<svg xmlns="http://www.w3.org/2000/svg" viewBox="0 0 40 40">
	<path class="bg-logo" fill="#960F05" d="M0 0h40v40H0z"/>
	<path fill="#fff" d="M27.9252 15.3317c.1396.2793.2095.6284.2095.9077 0 .9776-.8379 1.8853-2.2344 1.8853H23.596c1.0474-.9077 1.6758-2.1646 1.6758-3.6309 0-3.0025-2.5137-5.09729-6.5636-5.09729h-.1396v2.09479c1.7456.1396 2.793 1.3965 2.793 2.9326 0 1.8155-1.4663 3.631-3.7706 3.7008h-2.4439c1.1871-1.0474 1.9551-2.4439 1.9551-4.2594C17.1022 10.3741 14.1696 8 9.49127 8h-.13965v2.3741c2.02498.2094 3.42148 1.606 3.42148 3.3516 0 2.5835-2.2344 4.3292-4.88781 4.3292H6v2.9326h1.81546c2.72324 0 4.95764 1.7457 4.95764 4.3292 0 1.7456-1.3965 3.1422-3.42148 3.3516v2.3741h.13965c4.67833 0 7.54113-2.3741 7.61093-5.8653 0-1.7457-.768-3.212-1.9551-4.2594h2.4439c2.3741 0 3.8404 1.8853 3.8404 3.7008 0 1.5361-1.0474 2.7231-2.793 2.9326v2.0948h.1397c4.0498 0 6.5635-2.025 6.5635-5.0973 0-1.5361-.6284-2.793-1.6758-3.7007h2.3043c1.3965 0 2.2344.9775 2.2344 1.8853 0 .3491-.0698.6284-.2095.9077C31.4863 22.9426 34 19.3815 34 19.3815c-.0698.2095-2.5835-3.4214-6.0748-4.0498Z"/>
</svg>