<svg xmlns="http://www.w3.org/2000/svg" viewBox="0 0 40 40">
	<path class="bg-logo" fill="#21A038" d="M0 0h40v40H0z"/>
	<path fill="#fff" d="M19.8005 6.00001h-.0026c-3.5612-.0044-7.0384 1.42623-9.5829 3.91372C6.15915 13.8617 4.88411 20.1118 7.03076 25.3609c1.33994 3.2767 3.92874 5.9882 7.16124 7.4422 3.4339 1.5445 7.4192 1.5978 10.8921.1391 3.2709-1.3738 5.923-4.0104 7.3456-7.2597 1.1209-2.5599 1.4525-5.4407.9672-8.1905l-2.9738 2.2211c0 1.6072-.2647 3.1761-.9134 4.6554-1.0953 2.4972-3.1328 4.5257-5.6469 5.5832-2.6725 1.1241-5.7301 1.0832-8.3745-.1078-2.4872-1.1202-4.4737-3.2008-5.50676-5.7235-1.10732-2.704-1.06833-5.812.10486-8.487 1.0945-2.4955 3.131-4.5228 5.6458-5.5808 3.2928-1.38526 7.1079-.98862 10.055 1.0604l2.6863-2.00671c-2.4289-1.9933-5.5321-3.11029-8.673-3.10628Zm10.9302 5.44189c.6564.86 1.212 1.7943 1.6557 2.7841l-12.5856 9.4024-5.2599-3.3415v-4.0201l5.2599 3.3416 10.9299-8.1665Z"/>
</svg>