<svg xmlns="http://www.w3.org/2000/svg" viewBox="0 0 40 40">
	<path class="bg-logo" fill="#0A3E86" d="M0 0h40v40H0z"/>
	<path fill="#fff" d="M12.0904 16.9191c-.8488.3361-1.571.9296-2.0651 1.6973-.34033.541-.53521 1.1607-.56574 1.7992-.03076.4604.08664.9186.33505 1.3075.24839.3889.61479.688 1.04539.8537.5615.2674 1.1468.4814 1.7483.6393.1923.0509.5657.1754.7581.2263.4028.0857.7608.315 1.0071.645.0617.181.07.376.0238.5616-.0461.1857-.1448.354-.2841.4851-.3323.3005-.7532.4852-1.1994.5262-.3252.0223-.652.0052-.9731-.051-.1735-.0265-.339-.091-.4847-.1888s-.268-.2265-.3583-.3769c-.1213-.3388-.1563-.7024-.1019-1.058H8.34499c-.24068.8779-.12477 1.8153.32249 2.6082.16448.2595.38009.4828.63367.6563.77385.4795 1.67675.7087 2.58555.6563.8336.0013 1.6615-.1363 2.4498-.4074.3456-.1368.674-.3134.9788-.5262.4899-.3248.9062-.7489 1.2221-1.2446.3137-.4961.5307-1.047.6393-1.6238.1194-.5285.0679-1.0812-.1471-1.5785-.1106-.2145-.2602-.4064-.4413-.5658-.4979-.4583-1.1316-.7525-2.5799-1.1315-1.0241-.2829-1.3862-.447-1.6125-.6676-.0939-.0885-.1488-.2106-.1527-.3395.002-.2353.0883-.4621.2432-.6393.1355-.1729.3183-.3027.5262-.3734.4618-.1488.9564-.1625 1.4257-.0396.1569.042.3021.1194.4244.2263.1204.1077.2086.2468.2546.4017.0396.1998.0396.4055 0 .6054h2.6421c.1396-.654.0764-1.3349-.181-1.952-.1129-.2498-.2767-.4734-.4809-.6563-.5352-.4734-1.2026-.7716-1.9123-.8543-.3752-.0481-.7534-.0689-1.1316-.0622-.672.0535-1.333.2021-1.9632.4413Zm7.587-.2489-2.4498 10.9476h2.8288c3.0496 0 2.8855 0 3.4739-.1018.7249-.1004 1.4071-.4023 1.9689-.8713.5582-.4798.9733-1.1043 1.1994-1.8048.105-.2862.1827-.5818.232-.8826.063-.3052.0634-.62.0011-.9254-.0622-.3054-.1858-.5949-.3632-.8511-.225-.265-.5129-.4693-.8374-.5941 0 0 .4357-.2489.5997-.3734.2191-.1672.4201-.3568.5998-.5658.3327-.4127.5547-.9034.6449-1.4257.2207-1.29-.2885-2.116-1.5615-2.4272-.2713-.0735-.5506-.1134-.8317-.1188l-5.5049-.0056Zm4.5261 2.263c.0843.0074.1662.0323.2402.0733.0741.0409.1388.0969.1898.1644.1031.1339.1534.301.1415.4696-.0071.2943-.1016.5799-.2716.8203-.181.2328-.4334.3998-.7185.4753-.4166.0507-.8367.0677-1.256.0509h-1.1316l.4583-2.0764h1.0976c.3904-.0056.9448-.0056 1.2503.017v.0056Zm-.809 3.9265c.1837-.0007.3633.0546.5148.1584.1517.1055.2665.2559.3282.43.0565.217.0565.4449 0 .6619-.0465.2939-.1852.5653-.396.7752-.2088.2103-.4776.3506-.7695.4017-.4639.0565-2.6365.0339-2.6365.0339l.5658-2.4668 2.3932.0057Zm3.5134 4.7638h2.6535l2.4385-10.9081h-2.6535l-2.4385 10.9081Z"/>
	<path fill="#FC121B" d="M27.157 9c-2.6139 0-6.7892.98444-10.1839 2.2631-3.6505 1.3407-7.03361 3.3196-9.99149 5.8444-.3338.2885-2.21782 2.0764-2.98161 3.6832 1.31017-1.2913 2.74691-2.4476 4.28854-3.4512 4.80736-3.0493 10.24626-4.9629 15.90386-5.5955 3.3097-.3225 6.3932.2659 7.7623 1.1315 3.621 2.3197 1.4031 5.7596 1.3805 5.8444.2716-.2828 2.6648-2.5063 2.6648-5.454 0-1.2899-.9618-2.5573-2.3819-3.2532C31.5134 9 29.9802 9 27.157 9Z"/>
</svg>