<svg xmlns="http://www.w3.org/2000/svg" viewBox="0 0 40 40">
	<path class="bg-logo" fill="#0E0737" d="M0 0h40v40H0z"/>
	<path fill="#5B57A2" d="m9 12.0938 3.3908 6.0607v3.6969l-3.38683 6.0489L9 12.0938Z"/>
	<path fill="#D90751" d="m22.019 15.9495 3.1773-1.9473 6.5025-.0061-9.6798 5.9299v-3.9765Z"/>
	<path fill="#FAB718" d="m22.0013 12.0589.018 8.0243-3.3987-2.0883V6l3.381 6.0589h-.0003Z"/>
	<path fill="#ED6F26" d="m31.6991 13.9965-6.5028.0061-3.195-1.9437L18.6206 6l13.0782 7.9965h.0003Z"/>
	<path fill="#63B22F" d="M22.0193 27.934v-3.8932l-3.3987-2.0486.0019 12.0067 3.3968-6.0649Z"/>
	<path fill="#1487C9" d="m25.1885 26.0043-12.798-7.8498L9 12.0938l22.6852 13.9025-6.4969.008h.0002Z"/>
	<path fill="#017F36" d="m18.6226 33.9987 3.3963-6.065 3.1694-1.9297 6.4966-.0079-13.0623 8.0026Z"/>
	<path fill="#984995" d="m9.00391 27.9012 9.64429-5.9079-3.2424-1.9894-3.0151 1.8485-3.38679 6.0488Z"/>
</svg>