<svg xmlns="http://www.w3.org/2000/svg" viewBox="0 0 40 40">
	<path class="bg-logo" fill="#174882" d="M0 0h40v40H0z"/>
	<path fill="#fff" d="m4 27.9999 4.47402 3.016c2.62078-.482 13.77338-2.7964 13.77338-6.7226 0-2.9501-3.2663-4.9033-6.1516-6.6347-2.3035-1.3823-4.2984-2.5768-4.2984-4.0568 0-1.5898 1.3823-2.8941 4.003-3.78344.6138-.20861 1.2286-.36231 1.7765-.49297-2.3902.32938-6.8653 1.32741-6.8653 4.33131 0 4.2105 9.2049 5.8014 9.2115 10.1546C19.9286 27.2325 4 27.9999 4 27.9999Zm9.2445-14.6067c0-1.9851 2.1826-3.1368 3.9152-3.8054-2.2705.538-5.0999 1.7215-5.0999 4.014 0 1.3274 1.928 2.4824 4.1666 3.8273 2.9468 1.771 6.2834 3.7725 6.2834 6.8653 0 1.9741-2.456 3.7604-7.3033 5.3183-2.5549.8213-5.1427 1.3713-6.41518 1.6118l3.60778 2.4341s12.1979-3.5639 12.1946-8.5649c-.0055-8.2025-11.3492-8.9041-11.3492-11.7005Zm11.3173-1.9521c0 1.1737-.9541 2.1387-2.1387 2.1387h-.6357v1.031h.6357c1.7435 0 3.1697-1.4251 3.1697-3.1697 0-1.74461-1.4141-3.15873-3.1587-3.15873h-3.1697v7.61073h1.0309V9.31332h2.1388c1.1736 0 2.1277.95408 2.1277 2.12778ZM22.4341 7H17.982v8.8931h1.0309V8.03095h3.4212c1.8752 0 3.4101 1.52391 3.4101 3.41015 0 1.8862-1.5349 3.4211-3.4211 3.4211h-.6357v1.0309h.6357c2.456 0 4.452-1.996 4.452-4.452 0-2.44508-1.985-4.4411-4.441-4.4411Zm7.8852 15.7145-.0011-5.505c0-1.1407-.8882-2.1058-1.985-2.1387-.5589-.0165-1.0946.1888-1.502.5808-.415.3985-.6466.9431-.6466 1.5129v5.5599h1.0529v-5.5917c0-.5918.5039-1.0683 1.1078-1.009.5259.0516.9101.504.9101 1.031v5.5598h1.0639Zm4.3873 0-.0011-5.505c0-1.1187-.8882-2.0739-1.985-2.1167-.5699-.022-1.1078.1866-1.513.5808-.4062.3952-.6357.9211-.6357 1.4909v5.5599h1.0529v-5.5917c0-.5918.504-1.0683 1.1078-1.009.5259.0516.9102.504.9102 1.031v5.5598h1.0639Zm-2.0081-8.8821c-.8333-.0132-1.6337.2744-2.2595.8113-.6247-.5369-1.4141-.8245-2.2595-.8113-1.8533.0285-3.3114 1.5897-3.3114 3.432v5.4611h1.0639v-5.505c0-1.2725 1.009-2.3287 2.2486-2.3682.8992-.0285 1.7435.482 2.1497 1.2945l.1208.2525.1207-.2525c.3843-.7675 1.1518-1.2626 1.9961-1.2945.6247-.023 1.2252.2119 1.6776.6577.4479.4424.7015 1.0309.7015 1.6666v5.5599H36v-5.4611c.0098-1.8533-1.4482-3.4145-3.3015-3.443Z"/>
</svg>