<svg xmlns="http://www.w3.org/2000/svg" viewBox="0 0 40 40">
	<path class="bg-logo" fill="#0E84C3" d="M0 0h40v40H0z"/>
	<path fill="#fff" d="M20 4h.0032c.5444.64692 4.1249 5.6205 5.976 10.8342 1.8478 5.2138 2.2258 10.2163 2.1457 13.1434-.0833 2.9495-.538 6.0656-1.1145 7.9295.2082-3.2089-.2882-7.7181-1.2362-11.2569-.948-3.5165-3.6317-9.4188-5.7742-12.1314-1.976 2.5941-4.4131 7.6958-5.691 12.1057-1.281 4.4131-1.3194 9.7678-1.3194 11.3755-.2882-1.1369-.9383-4.775-.9896-8.7942v-.964c.0064-.4196.0192-.8423.0384-1.265.2018-3.9872 1.4059-8.1153 2.0657-10.0048C16.6149 8.67894 19.462 4.64372 20 4Zm-5.1177 25.3577c.1313-2.4051.9063-4.8935 1.3355-6.0304 1.6237-3.7982 3.4651-6.2289 3.8078-6.6132.3459.3843 2.6613 3.3851 3.8623 6.5268 1.1945 3.1417 1.438 6.1553 1.3867 7.9199-.0544 1.7774-.349 3.6573-.7206 4.7782.1345-1.9343-.1889-4.6501-.8006-6.783-.6117-2.1169-2.3443-5.6717-3.7278-7.3083-1.2778 1.5661-2.8535 4.6342-3.6765 7.2955-.8295 2.6613-.8519 5.8895-.8519 6.8567-.221-.8134-.7686-3.7278-.6149-6.6422Z"/>
</svg>