<svg xmlns="http://www.w3.org/2000/svg" viewBox="0 0 40 40">
	<path class="bg-logo" fill="#185491" d="M0 0h40v40H0V0Z"/>
	<g fill="#f2cd13">
		<path d="M27.9 22.5c.1-.1.2-.3.2-.5s0-.4-.2-.5c-.1-.1-.4-.2-.6-.2h-1.5v1.4h1.5c.3 0 .4 0 .6-.2ZM27.3 23.9h-1.5v1.6h1.7c.2 0 .4 0 .6-.2.2-.1.3-.3.3-.6s0-.5-.3-.6c-.2-.1-.4-.2-.8-.2Z"/>
		<path d="M30.3 8h-9.9l.9 1.5v1.3L19.6 8h-1.2l2.9 4.9v1.7l-4-6.6h-1.4l5.4 8.9v2.4L14.4 8H9.3c-.8 0-1.4.6-1.4 1.4v21.3c0 .8.6 1.4 1.4 1.4h21.3c.8 0 1.4-.6 1.4-1.4v-21c0-.9-.8-1.7-1.7-1.7ZM15.1 26.4c-.5.4-1.2.6-2.2.6s-1.7-.2-2.2-.6c-.6-.4-.8-1-.8-1.8h1.6c0 .3.1.6.3.8.2.2.6.3 1.1.3s.7 0 .9-.2c.2-.1.3-.3.3-.6s0-.4-.3-.6c-.2-.1-.7-.3-1.5-.5-.9-.2-1.5-.5-1.8-.8-.3-.3-.4-.7-.4-1.3s.3-1.2.8-1.5c.5-.3 1.2-.5 2.1-.5s1.4.2 1.9.6c.5.4.7.9.7 1.5h-1.5c0-.2-.1-.4-.3-.6-.2-.1-.5-.2-.8-.2s-.6 0-.8.2c-.2.1-.3.3-.3.5s0 .4.3.5c.2.1.5.3 1.1.4 1.1.2 1.8.5 2.1.8.4.3.5.8.5 1.3s-.3 1.3-.7 1.7Zm7.8.4h-1.7l-2.7-4.6v4.6h-1.6v-6.9h2l2.4 3.9v-3.9h1.6v6.9Zm6.6-.5c-.4.3-1.1.5-2 .5h-3.3v-6.9h3.5c.7 0 1.3.2 1.6.5.3.3.5.7.5 1.3s0 .6-.3.9c-.2.3-.5.4-.9.6.5.1.8.3 1.1.6.3.3.4.7.4 1.1s-.2 1.1-.6 1.4Z"/>
	</g>
</svg>