<svg xmlns="http://www.w3.org/2000/svg" viewBox="0 0 40 40">
	<path class="bg-logo" fill="#0F1735" d="M0 0h40v40H0z"/>
	<path fill="#fff" d="M20.5027 24.1611c-.72 0-1.52-.16-2.16-.56-.64-.32-1.12-.88-1.52-1.52-.72-1.36-.72-2.96 0-4.32.32-.64.88-1.12 1.52-1.52.64-.4 1.44-.56 2.16-.56 1.2 0 2.4.48 3.2 1.44 0 0 .08.08.16.08s.08 0 .16-.08l1.6-1.6c.08-.08.08-.16 0-.24-.56-.64-1.28-1.2-2.16-1.52-.96-.4-2-.64-3.12-.64-1.28 0-2.48.24-3.6.88-1.04.56-1.92 1.36-2.56 2.4-.64 1.04-.96 2.24-.96 3.52 0 1.2.32 2.4.96 3.52.64 1.04 1.52 1.84 2.56 2.4 1.12.56 2.4.88 3.6.88 1.04 0 2.08-.16 3.12-.56.72-.32 1.44-.8 2-1.36.08-.08.08-.16 0-.24l-1.52-1.76s-.08-.08-.16-.08-.08 0-.16.08c-.72.88-1.92 1.36-3.12 1.36Z"/>
	<path fill="url(#a)" d="m28.5825 12.7186-1.44 1.36s-.08.08-.16.08-.08 0-.16-.08c-2.8-3.2-7.36-4.08001-11.12-2.16-3.76 1.92-5.68 6.24-4.64 10.32s4.72 6.88 8.96 6.88c.08 0 .16 0 .16.08 0 .48-.08 2.08-.08 2.08 0 .08-.08.16-.16.16-4.96.08-9.36-3.12-10.87999-7.84-1.12-3.52-.56-7.36 1.59999-10.32 2.16-2.96 5.6-4.72001 9.28-4.72001 3.28 0 6.4 1.44 8.56 3.92001.16 0 .16.16.08.24Z"/>
  	<linearGradient id="a" x1="9.69011" x2="28.2889" y1="26.472" y2="12.2242" gradientUnits="userSpaceOnUse">
  		<stop stop-color="#F7AC1E"/>
  		<stop offset="1" stop-color="#DC3B55"/>
  	</linearGradient>
	<path fill="url(#b)" d="M19.6226 36c-6.96-.16-13.03996-4.8-14.95996-11.52-2.00001-6.72.64-13.84 6.39996-17.76 2.64-1.84 5.76-2.72 8.96-2.72.08 0 .16.08.16.16v2.08c0 .08 0 .08-.08.08-2.72 0-5.44.72-7.68 2.24-4.95996 3.36-7.19996 9.52-5.51996 15.28 1.68 5.76 6.95996 9.76 12.95996 9.84h.16c2.32 0 4.64-.56 6.72-1.76.08 0 .16 0 .24.08l.96 1.68v.16c0 .08-.08.08-.08.08-2.4 1.36-5.04 2.08-7.84 2.08h-.4Z"/>
  	<linearGradient id="b" x1="16.0077" x2="16.0077" y1="3.71856" y2="36.4386" gradientUnits="userSpaceOnUse">
  		<stop stop-color="#385CFA"/>
  		<stop offset="1" stop-color="#94C2FC"/>
  	</linearGradient>
</svg>