<svg xmlns="http://www.w3.org/2000/svg" viewBox="0 0 40 40">
	<path class="bg-logo" fill="#083C9C" d="M0 0h40v40H0z"/>
	<path fill="#fff" d="M21.8516 13.0869c.421-1.6139.9122-3.71887 1.4033-5.33272 3.8592.91217 7.2974 1.54368 10.1041-.2105C32.7275 7.05251 32.1662 6.49117 31.5347 6c-2.1752 2.17518-6.7361 1.40334-12.7003.2105-5.6835-.98234-11.78809 3.36803-12.34943 9.2621-.2105 1.8945.35084 3.4382 1.54368 4.5608-7.57806 12.0688 7.92885 18.875 16.06825 9.7533-.2105-.3508-.421-.7718-.6315-1.1929-5.473 9.613-19.01528 3.8592-13.8229-7.3675 2.3857 1.3332 5.1924 1.7542 8.3499.9122l-.4912 1.7541c-.3508.5614-.9121.9122-1.4735 1.3332.9122 0 1.8945-.1403 2.8067 0 14.244 2.2454 17.0506-12.3494 3.0172-12.1389Zm-12.84061 5.473C6.83581 13.1571 12.5194 6.35084 18.8344 6.63151c2.0349.28066 2.526.842 2.526 2.03484-.3508 1.40335-.7718 3.01715-1.1227 4.42055-3.9293 0-8.3499 1.3332-11.22671 5.473Zm9.05161 3.0172c-3.2979.9122-5.6134.4912-7.7886-1.4735 2.3857-4.3504 5.2625-6.4554 9.8234-6.5957-.6315 2.5962-1.3332 5.473-2.0348 8.0692Zm4.0697 3.4382c-2.1752-.1403-2.8769-.5613-3.0874-1.3332.2105-.7016.3508-1.4735.5613-2.105 1.8244-.5613 2.9471-1.684 3.9996-4.0697-.2807-.2105-.5614-.2806-.842-.4911-.6315 2.3155-1.3332 3.5785-3.0172 4.0697.6315-2.4559 1.3332-5.1223 1.9647-7.6483 8.9112.0702 9.8234 10.5953.421 11.5776Z"/>
</svg>