<svg xmlns="http://www.w3.org/2000/svg" viewBox="0 0 40 40">
	<path class="bg-logo" fill="#007A5F" d="M0 0h40v40H0z"/>
	<g fill="#fff">
		<path d="M26.7191 11.2698C26.0892 8.60993 23.5693 7 20.4894 7h-8.1197C8.86988 7 6 9.65989 6 12.8798v7.3497c0 3.2198 2.86988 5.8797 6.3697 5.8797h8.0497c2.9399 0 5.4598-1.4699 6.2297-3.9898H10.6198V11.2698h16.0993Z"/>
		<path d="M27.6289 14.5625h-8.1196c-2.9399 0-5.4598 1.4699-6.2298 3.9898h16.0994v10.7796H13.2795c.63 2.6599 3.2199 4.2698 6.2998 4.2698h8.0496c3.4999 0 6.3698-2.6599 6.3698-5.8797v-7.3497c.07-3.1499-2.8699-5.8098-6.3698-5.8098Z"/>
	</g>
</svg>