<svg xmlns="http://www.w3.org/2000/svg" viewBox="0 0 40 40">
	<path class="bg-logo" fill="#0A90E8" d="M0 0h40v40H0z"/>
	<path fill="#fff" d="m15.2691 18.6864.6007-.826c-.4505-.1502-.9011-.2253-1.3517-.0751l.751.9011Zm-2.5532 3.1539 1.2015-1.4267-1.1264-1.3517c-.4506.4505-.9762.9011-1.4268 1.3517.0751 0 1.3517 1.4267 1.3517 1.4267Zm2.5532.3004-.8261.9762c.5257.0751.9763.0751 1.4268-.1501l-.6007-.8261Zm-2.1777-5.1815c-.9763.751-1.8023 1.577-2.6283 2.403l.4505.6008c.8261-.826 1.6521-1.6521 2.6283-2.403.4506-.3004.9762-.5257 1.577-.5257.4506 0 .9011.0751 1.2766.3004l.5256-.6758c-.5256-.3004-1.2015-.4506-1.8022-.4506-.7509.0751-1.5019.3004-2.0275.7509Zm3.4543 5.7072c.2253-.1502.3754-.3755.6007-.6008l-3.1539-3.9799-.6008.5256 3.154 4.0551Zm-2.5532 1.0513-.5257.6007c.5257.2253 1.1264.3755 1.6521.3004.9762-.0751 1.8773-.4505 2.5532-1.1264.5256-.4505.9011-.9762 1.1264-1.577.2253-.6007.3755-1.2766.3004-1.9524s-.3004-1.3517-.6759-1.8773l-.5256.6758c.3754.6007.5256 1.3517.3754 2.1026-.1501.6759-.4505 1.2766-.9011 1.8023-.4506.5256-1.0513.9011-1.6521 1.0513-.5256.1502-1.1264.1502-1.7271 0Zm-6.23281-3.98c-.0751.4506-.0751.9762 0 1.4268.22528-.2253.45056-.5257.67584-.7509 0 .0751-.67584-.6759-.67584-.6759Zm.67584-1.4268c-.15018.2253-.30037.4506-.45056.751l3.82983 3.98.5256-.6759-3.90487-4.0551Zm2.10267-2.1026c-.60079.4506-1.12644 1.0513-1.6521 1.577l1.05131 1.1264c.52569-.5257.97619-1.0513 1.57699-1.5019l-.9762-1.2015Zm14.0425 5.9324-.6758.8261c.4505.1501.9011.2252 1.3517.0751 0-.0751-.6759-.9012-.6759-.9012Zm2.5532-3.1539-1.2015 1.4268 1.1264 1.3517c.5257-.4506.9763-.9012 1.4268-1.3517-.0751 0-1.3517-1.4268-1.3517-1.4268Zm-2.5532-.3004.8261-.9762c-.5257-.1502-.9763-.0751-1.5019.1502l.6758.826ZM9.63704 15.0819c-.90113.7509-1.80226 1.6521-2.5532 2.6283-.97622 1.4268-1.05131 3.3041-.45056 4.806l.60075-.6759c-.07509-.2252-.07509-.3754-.15019-.6007-.15018-1.0513.0751-2.1777.60075-3.1539.67585-.9012 1.50188-1.7272 2.40301-2.4781l-.45056-.5257Zm-2.25282 1.1264c.52566-.6007 1.12641-1.1264 1.72716-1.6521-.37547-.3003-.82603-.5256-1.2766-.4505-.15019.0751-.37547.1502-.45056.3003-.15019.1502-.22528.3004-.30038.4506-.07509.2253-.07509.4506 0 .6759.0751.3003.22528.5256.30038.6758Zm-.90113 1.2015c.15019-.2253.30038-.4506.52566-.6758-.22528-.3004-.37547-.6008-.45056-.9763-.0751-.3754-.0751-.7509 0-1.0513.07509-.3004.22528-.6007.45056-.7509.22528-.2253.45056-.3755.75094-.4506.67584-.1502 1.50188.0751 2.32791 1.0513l1.8773 2.403.6008-.5256-1.8773-2.403c-.75099-.9011-1.8774-1.6521-3.15399-1.3517-.37547.1502-.75094.3755-1.12641.6758-.30038.3004-.52566.6759-.67585 1.1264-.15019.5257-.15019 1.0514 0 1.577.0751.5257.37547.9762.75094 1.3517Zm5.78221 8.4856c.3004.1502.6008.2253.9012.3755.826.2253 1.652.3004 2.5531.2253.8261-.0751 1.6521-.3755 2.4031-.751-.3004-.3754-.6008-.6758-.9012-1.0513-.6007.3755-1.2766.6008-1.9524.6008-.751.0751-1.577-.0751-2.2528-.4506l-.751 1.0513Zm-1.3517-.7509c.2253.1502.4506.3004.6759.3755l3.229-3.98-.5256-.6759c.0751.0751-3.3793 4.2804-3.3793 4.2804Zm-2.17769-1.8774c.45056.6008 1.05132 1.1264 1.65209 1.5019l.9762-1.2015-1.42679-1.5019c0-.0751-1.2015 1.2015-1.2015 1.2015Zm-1.05132 1.0513c.52566.6008 1.12641 1.1265 1.72717 1.577 2.32794 1.8023 4.65584 2.3279 6.68334 2.0276 1.1264-.1502 2.1777-.6008 3.154-1.2015-.2253-.1502-.4506-.3755-.6008-.5257-.826.4506-1.6521.826-2.6283.9011-1.8773.3004-3.9049-.2253-6.08259-1.8773-.37547-.3004-.75094-.6008-1.12641-.9762-.15018-.1502-.37547-.3755-.52565-.6008 0 .0751-.60076.6758-.60076.6758Zm1.3517 2.1027c-.67585-.4506-1.20151-1.0513-1.72717-1.6521-.15018.1502-.22528.3004-.22528.5257 0 .2253 0 .3754.15019.5256.07509.1502.22528.3755.37547.4506.15019.1502.30038.2253.52566.3004.15019.0751.30037.0751.52566 0 .07509.0751.22528 0 .37547-.1502Zm1.20151.826-.67586-.4506c-.22528.2253-.45056.3755-.75094.4506-.30037.0751-.60075.0751-.90112 0-.52566-.1502-1.05132-.6007-1.2766-1.0513-.22528-.2253-.30038-.6008-.22528-.9011 0-.3004.15019-.6008.30037-.8261.97622-.9762 1.87735-1.9524 2.77848-2.9286l-.52566-.6008c-.90113.9762-1.87735 2.0276-2.85357 3.0038-.67584.6758-.60075 1.8773-.22528 2.6283.15019.3754.45056.6758.75094.9011.30038.2253.67584.4506 1.05131.6007.45057.1502.97623.1502 1.42679 0 .45056-.1501.82603-.4505 1.12642-.826Zm16.5207-3.3792c.9762-.751 1.8022-1.577 2.6282-2.403l-.4505-.6008c-.8261.8261-1.6521 1.6521-2.6283 2.403-.4506.3004-.9762.5257-1.577.5257-.4505 0-.9011-.0751-1.2766-.3004l-.5256.6759c.5256.3003 1.2015.4505 1.8022.4505.751-.0751 1.5019-.3004 2.0276-.7509Zm-8.4857-8.786c-.826-.4506-1.652-.7509-2.5532-.826-1.2015-.1502-2.3279.0751-3.3792.6758l.9011 1.1264c.6759-.3755 1.4268-.5256 2.1778-.4505.6758.075 1.2766.2252 1.8773.5256.3004-.3004.6008-.6758.9762-1.0513Zm1.2015.9011c-.2252-.1502-.4505-.3754-.6758-.5256l-1.1264 1.3517-1.9525 2.4781.5257.6007c1.0513-1.3517 2.1026-2.7034 3.229-3.9049Zm.3755 8.4105c.3755-.3754.751-.7509 1.0513-1.1264C20.3004 22.5162 20 21.54 20 20.5638c0-1.0514.3755-2.1027.9762-2.9287-.3004-.4506-.6758-.826-1.0513-1.2015-.3755.3755-.7509.7509-1.0513 1.1264.6007.7509.9011 1.7272.9011 2.7034 0 1.0513-.3755 2.1026-.9762 2.9286.3755.4506.7509.8261 1.0513 1.2015Zm1.1264.9763c.4506-.4506.8261-.9012 1.2015-1.3517l1.9525-2.4781-.5257-.6008c-1.0513 1.3517-2.1026 2.7034-3.3041 3.9049.3004.2253.4505.3755.6758.5257Zm6.6083.5256-.9011-1.1264c-.751.3004-1.5019.4506-2.2529.4506-.6758-.0751-1.2766-.2253-1.8773-.5257-.3004.3755-.6008.751-.9762 1.0513.6758.3755 1.4268.6008 2.1777.751.9011.1502 1.8773.1502 2.7034-.1502l1.1264-.4506Zm.9011 1.1264-.5256-.6007c-1.3517.7509-2.8536.9762-4.3555.7509-1.7272-.3004-3.3041-1.2015-4.4305-2.4781-.3004-.3004-.5257-.6007-.751-.9762-.2253.2253-.3754.3755-.6007.5257.2253.3003.5256.6758.7509.9762 1.2766 1.4268 3.0038 2.403 4.8811 2.7034 1.7272.3003 3.5294 0 5.0313-.9012Zm4.4306-2.9286c.2252.3003.3754.6007.4505.9762.0751.3755.0751.7509 0 1.0513-.0751.3004-.2253.6008-.4505.7509-.2253.2253-.4506.3755-.751.4506-.6758.1502-1.5019-.0751-2.3279-1.0513l-1.8773-2.403-.6008.5256 1.8774 2.403c.7509.9012 1.8773 1.6521 3.1539 1.3517.4506-.1501.826-.3754 1.1264-.6758.3004-.3004.5257-.6759.6759-1.1264.1501-.5257.1501-1.0513.075-1.5019-.1501-.5257-.3754-.9762-.7509-1.3517 0 .0751-.0751.0751-.0751.1502-.3004.0751-.4505.2253-.5256.4506Zm-2.2529 2.1777c.3755.3004.8261.5256 1.2766.4506.1502-.0751.3755-.1502.4506-.3004.1502-.1502.2253-.3004.3004-.4506.0751-.2253.0751-.4505 0-.6758-.0751-.2253-.1502-.4506-.3004-.6008-.5257.4506-1.1264 1.0513-1.7272 1.577Zm.3004-3.229-1.0513-1.1265c-.5257.5257-1.0513 1.0514-1.577 1.5019l.9762 1.2015c.6008-.4505 1.1265-1.0513 1.6521-1.5769Zm.9011-1.2766-3.8297-3.98-.5257.6758 3.9049 4.0551c.1502-.2253.3004-.4506.4505-.7509Zm.2253-2.1778c-.2253.2253-.4505.4506-.6758.751l.6758.6758c.0751-.4505.0751-.9011 0-1.4268Zm1.1264-1.2015c-.2252.2253-.4505.4506-.6007.6759.1502.5256.2253 1.1264.1502 1.652-.0751.751-.3004 1.4268-.6759 2.0276-.6758.9011-1.5019 1.7271-2.403 2.4781l.5257.6007c.9011-.7509 1.8022-1.652 2.5532-2.6283.5256-.826.826-1.7271.826-2.7033 0-.751-.0751-1.4268-.3755-2.1027Zm-2.9286-4.4305c.2253-.2253.4505-.3755.7509-.4506s.6008-.0751.9011 0c.3004.0751.5257.2253.751.4506.2253.1502.3754.4505.5256.6758.1502.3004.2253.6008.2253.9012 0 .3003-.1502.6007-.3004.826-.9762.9762-1.8773 1.9524-2.7784 2.9287l.5256.6007c.9011-.9762 1.8774-2.0275 2.8536-3.0038.6758-.6758.6007-1.8773.2253-2.6282-.1502-.3755-.4506-.6759-.751-.9012-.3003-.2252-.6758-.4505-1.0513-.6007-.4505-.1502-.9762-.1502-1.4268 0-.4505.1502-.9011.3755-1.2015.7509.3004.1502.5257.3004.751.4506Zm2.3279 2.0275c.1502-.1502.2253-.3004.2253-.5256 0-.2253 0-.3755-.1502-.5257-.2253-.3755-.5257-.6007-.9012-.7509-.1501-.0751-.3003-.0751-.5256 0-.1502 0-.3004.1502-.4506.2252.6759.4506 1.2766.9763 1.8023 1.577Zm-3.154.0751-.9762 1.2766 1.5019 1.5019 1.2015-1.2015c-.5257-.6759-1.1264-1.1264-1.7272-1.577Zm-1.2015-.826-3.229 3.98.5257.6758 3.3792-4.2053-.6759-.4505Zm-6.5331-.1502c.3003.3755.6007.6758.9011 1.0513.6007-.3755 1.2766-.6007 1.9524-.6007.751-.0751 1.577.0751 2.2528.4505l.8261-1.0513c-.9011-.3755-1.8023-.6007-2.7785-.6007-1.1264 0-2.1777.2252-3.1539.7509Zm-1.1264-.9762c.2252.1502.4505.3754.6007.5256.826-.4505 1.6521-.826 2.6283-.9011 1.8773-.3004 3.9049.2253 6.0826 1.8774.3755.3003.7509.6007 1.1264.9762l.5257.5256.5256-.6007c-.5256-.6008-1.0513-1.1264-1.7271-1.577-2.403-1.8022-4.6559-2.3279-6.6834-2.0275-1.0513.1502-2.1026.6007-3.0788 1.2015Zm-9.6872-.8261c1.6521-.9762 3.6796-1.3517 5.557-1.0513 1.2766.2253 2.4781.6759 3.5294 1.4268 1.5019-.9762 3.229-1.5019 5.0313-1.4268 1.3517 0 2.7034.3755 3.98 1.0513.3754-.5256.9011-.9011 1.5769-1.0513.6759-.1502 1.2766-.2253 1.8774 0 .9011.3004 1.7272.9762 2.1777 1.8023.5257 1.0513.5257 2.5532-.3755 3.4543l-.4505.4506c.3755.826.5256 1.7271.5256 2.6283 0 .826-.1501 1.5769-.5256 2.3279.4505.4505.826.9762.9762 1.5769.2253.6759.2253 1.4268 0 2.1027-.1502.5256-.4506 1.0513-.826 1.4268-.3755.3754-.9012.6758-1.4268.826-1.3517.3004-2.5532-.3004-3.5294-1.2015-1.6521.9762-3.6796 1.3517-5.557 1.0513-1.2766-.2253-2.4781-.7509-3.5294-1.4268-.2253.1502-.3755.2253-.6007.3755-.9763.6007-2.1027.9011-3.2291 1.0513-1.1264.1502-2.3279 0-3.3792-.3004-.6008-.1502-1.1264-.4505-1.7272-.6758-.3754.5256-.9011.9011-1.57694 1.0513-.60076.2253-1.2766.2253-1.87735 0-.45057-.1502-.90113-.3755-1.2766-.6759-.37547-.3003-.67585-.6758-.90113-1.1264-.52566-1.0513-.52566-2.5532.37547-3.4543l.45057-.4505c-.37547-.751-.52566-1.6521-.52566-2.4781 0-.8261.15019-1.7272.52566-2.4781-.45057-.4506-.82604-.9763-.97623-1.6521-.22528-.6759-.22528-1.4268 0-2.0276.15019-.5256.45057-1.0513.82604-1.4267.37547-.4506.82603-.751 1.42678-.9012.67585-.1502 1.42679-.0751 2.02754.1502.52565.3004 1.05135.6008 1.42675 1.0513Zm10.5132 3.8298c.2253-.2253.3755-.3754.6007-.5256-.2252-.3004-.5256-.6759-.7509-.9762-1.2766-1.4268-3.0038-2.4031-4.8811-2.7034-1.7272-.3004-3.5294 0-5.0313.9011l.5257.6007c1.3516-.7509 2.8535-.9762 4.3554-.7509 1.7272.3004 3.3041 1.2015 4.4305 2.4781.3004.3755.5257.6759.751.9762Zm1.8773 1.0513c-.2252.1502-.3754.3755-.6007.6008l3.1539 3.98.6008-.5257-3.154-4.0551Zm1.4268-1.2015c.3755 0 .751 0 1.1264.1502l.5257-.6007c-.5257-.2253-1.1264-.3755-1.6521-.3004-.9762.0751-1.8773.4506-2.5532 1.1264-.5256.4506-.9011.9762-1.1264 1.577-.2253.6007-.3755 1.2766-.3004 1.9524.0751.6759.3004 1.3517.6759 1.8774l.5256-.6759c-.2252-.3754-.3754-.826-.4505-1.3517 0-.5256.0751-.9762.2253-1.5018.1501-.4506.4505-.9012.826-1.2766.5257-.5257 1.3517-.9012 2.1777-.9763Zm-1.5019 3.4544-.826-1.0514c-.1502.3755-.2253.751-.2253 1.0514 0 .3754.0751.7509.2253 1.0513l.826-1.0513Zm-6.6082 0 .826 1.0513c.1502-.3004.2253-.6759.2253-1.0513 0-.3755-.0751-.751-.2253-1.0514.0751 0-.826 1.0514-.826 1.0514Z"/>
</svg>