<svg xmlns="http://www.w3.org/2000/svg" viewBox="0 0 40 40">
	<path class="bg-logo" fill="#005187" d="M0 0h40v40H0z"/>
	<path fill="#fff" d="M25.4638 30.0499c-1.7431-1.2306-2.514-2.5068-1.8543-3.6614 0 0 2.9226-4.1096.92-12.6782 0 0 5.5334-2.4233 6.4533-7.33048l-4.0869 1.94465c.1998-.4102.3632-.83559.482-1.27618.1036-.31904.2148-.70646.2814-1.04829l-.9933.47856-8.7163 4.09444c-.0446.0228-.0817.0532-.0961.0987-.4675 1.0255-.6234 2.2409-.5938 3.5247-.7937-.2658-1.6244-.4178-2.4997-.4178-1.2907 0-2.5072.3267-3.5898.8812-.0076-.0228-.0152-.0532-.0295-.0759-.0674-.0684-.171-.0836-.2527-.0305l-1.03801.6609-.26026-2.089c-.00681-.0987-.09608-.1747-.19216-.1822-.1044 0-.18611.0759-.20048.1746l-.31171 2.0815-1.03117-.6837c-.08171-.0532-.18536-.0456-.25194.0227-.06657.0684-.08171.1747-.0295.2583l.64534 1.0635-2.04042.2583C6.07414 16.1335 6 16.217 6 16.3234c0 .1063.07414.1899.17098.2051l2.0321.319-.67484 1.0483c-.0522.076-.04465.1899.02193.2583.01513.0152.04464.0228.06658.0304-.60827 1.1622-.95628 2.4916-.95628 3.8969 0 4.5729 3.63443 8.2952 8.09963 8.2952 1.1053 0 2.1585-.2279 3.1231-.6381.0665.0532.1263.0987.2004.1519 3.145 2.3473 5.3996 1.4357 7.1729 2.2257C26.7174 32.7694 27.3552 34 27.3552 34l2.6782-.9191c-1.0388-1.8916-3.2267-2.0815-4.5696-3.031Zm-7.2765-19.1351 8.8569-4.14757c-.1339.52414-.3268 1.04069-.5712 1.53445l-6.209 2.94742c-.0446.0227-.0817.0531-.0961.0987-1.0606 2.37-1.1348 5.5453-1.1946 8.3407-.0219.9496-.0446 1.846-.1036 2.6208-.0446-.5545-.1332-1.1698-.2595-1.8156-.0522-.2506-.1036-.5089-.1558-.7672-.6083-3.0233-1.2983-6.4568-.2671-8.8117Zm-3.0118 13.7189c-.1854-.1899-.3632-.6912-1.0085-.8659-.3193-.0912-.631-.0532-.8602 0-.23.0532-.5712.0076-.8239-.1064-.1037-.038-.23-.1063-.23-.1063-.1702-.076-.3556-.152-.5485-.1292-.2898.038-.7119.3191-.7119.3191l1.3126.6229s.2595.1215.4449.3646c.5492.7444 1.0016.9799 1.2982 1.1243 1.0758.9039 1.4465 1.8839 3.182 3.3576-.7709.281-1.6091.4481-2.4777.4481-4.0868 0-7.40963-3.4032-7.40963-7.5811 0-1.7092.55607-3.2816 1.4836-4.5502h-.02269l.01513-.0152.25194 2.0966c.01513.0987.09684.1823.20048.1823.09608 0 .18536-.0759.20049-.1747l.3185-2.0814 1.01608.6913c.0817.0531.1861.0455.2527-.0228.0665-.0684.0817-.1748.0295-.2583l-.6454-1.0635 2.0473-.2583c.096-.0152.1777-.0987.1777-.2051 0-.1063-.0741-.1899-.1702-.2051l-2.0328-.3266c1.2097-.8736 2.6782-1.3977 4.273-1.3977.8897 0 1.7431.1747 2.5291.471.1112 1.5951.4524 3.2739.7641 4.854.0522.2583.1037.5089.1559.7672.3631 1.8459.5492 3.9045-.0666 4.4438-1.209.6685-2.626-.0683-2.9452-.395Z"/>
</svg>