<svg xmlns="http://www.w3.org/2000/svg" viewBox="0 0 40 40">
	<path class="bg-logo" fill="#0164A9" d="M0 0h40v40H0z"/>
	<path fill="#fff" d="m30.5245 9.51912-7.1636 4.18238V5.47849c-2.6244-.63799-4.894-.63799-6.809 0v8.22301L9.45909 9.59003C7.615 11.5749 6.48013 13.4888 6.05459 15.4737l6.59451 3.8446 7.4017-4.3279c2.4422 1.4222 4.3965 2.56 5.9557 3.4674l1.3382.7788L34 15.4028c-.7093-2.2684-1.915-4.1824-3.4755-5.88368Zm-3.4163 9.77858-7.048-4.0889-7.082 4.1671c.8578.1626 1.5951.3653 2.3671.5778.2331.0643.469.1294.7125.1944 1.5585.4249 2.9751.2125 3.9671-.638 1.3454-.7085 2.762-.9916 3.9664-.8497 1.4879.1412 2.4086.3542 3.1169.6373ZM9.39986 29.6436C7.91265 28.2969 6.7789 26.3836 6 23.7617l6.9657-4.3782 7.201 4.237 7.01-4.2778 6.6607 4.3484c-.7083 2.2676-1.7708 4.2516-3.3999 5.8812l-7.1539-4.1097v8.2906c-2.2668.4962-4.5336.5668-6.8004 0v-8.2201l-7.08334 4.1105Z"/>
</svg>