<svg xmlns="http://www.w3.org/2000/svg" viewBox="0 0 40 40">
	<path class="bg-logo" fill="#004282" d="M0 0h40v40H0z"/>
	<path fill="#fff" d="m23.9665 22.1595.6488-1.6299 1.2719-5.0508-5.6527.0063c-.9912 0-1.8957.4237-2.5343.8998-.3237.2259-.8271.9006-1.1046 1.5189l-.6489 1.6299-1.6229 5.0507 6.0014-.0054c.9904-.0023 1.8988-.4245 2.5336-.9013.326-.2252.8302-.8998 1.1077-1.5182ZM15.0032 13H34l-.0172.0469H34l-2.8838 9.9491c-.0375.1235-.1044.2588-.1665.3845-.0362.0733-.0708.1432-.097.2057-.0605.1253-.1167.2482-.172.3691-.3162.6917-.6039 1.3209-1.5094 1.9909-1.1641.8169-2.5672 1.1155-3.6124 1.1171H6l.86616-2.4742 2.57892-7.521c.03781-.1258.10475-.2628.16636-.3888.0352-.0721.06866-.1405.09396-.2014.0639-.131.12281-.2593.18074-.3854.31556-.6871.60176-1.3103 1.50466-1.9754C12.554 13.301 13.9556 13 15.0032 13Zm4.7194 10.0478-3.1387.0032 1.6862-4.4402c.1196-.3949.5144-.9264.9826-1.2078.4378-.2838.9741-.3956 1.5776-.3956l3.0284-.0015-1.6151 4.4112c-.1954.4777-.5245.8983-.9638 1.1813-.4128.2814-.9506.4494-1.5572.4494Z"/>
</svg>