<svg xmlns="http://www.w3.org/2000/svg" viewBox="0 0 40 40">
	<path class="bg-logo" fill="#DB0334" d="M0 0h40v40H0z"/>
	<path fill="#fff" d="M21.47 16.0956c-.1867.0622-.3733.1244-.56.1244-.35 0-.63-.14-.84-.63-.1511-.2078-.3838-.5634-.6664-.9953-.7646-1.1686-1.8947-2.8958-2.7636-3.7647-.63-.63-1.19-1.12-1.82-1.19-.49 0-.77.49-.77.98 0 .07 0 .21-.07.42.14 1.61.77 3.78 2.45 7.35 1.05 2.24 1.61 3.22 1.89 3.71l-9.31 3.5c-.21.07-.49.14-.7.14-.35 0-.7-.14-.91-.28-.35-.21-.98-1.47-1.12-2.66-.14-.49-.28-1.54-.28-2.94 0-2.03.35-4.76 2.1-7.42C10.62 8.31 14.61 6 19.79 6c.42 0 .84 0 1.19.07 5.39.35 8.89 4.41 10.15 6.44l-9.38 3.5c-.0933.0233-.1867.0544-.28.0856Zm-3.29 7.8949c.28-.14.56-.21.84-.21.35 0 .7.14.91.56.1511.2078.3838.5634.6664.9953.7646 1.1687 1.8947 2.8959 2.7636 3.7647.63.63 1.19 1.12 1.82 1.19.42 0 .7-.49.7-.98v-.35c-.14-1.68-.77-3.78-2.45-7.35-1.05-2.24-1.61-3.22-1.89-3.71l9.31-3.5c.21-.07.49-.14.7-.14.42 0 .77.14.98.28.42.21 1.05 1.47 1.19 2.66.14.49.28 1.47.28 2.87 0 2.17-.42 4.9-2.1 7.56-2.59 4.13-6.58 6.44-11.76 6.44-.42 0-.77 0-1.19-.07-5.39-.42-8.89-4.41-10.15-6.44l9.38-3.57Z"/>
</svg>