<svg xmlns="http://www.w3.org/2000/svg" viewBox="0 0 40 40">
	<path class="bg-logo" fill="#003791" d="M0 0h40v40H0z"/>
	<path fill="#fff" d="M22.7898 6.29688v7.25942h-2.8141c-3.5557 0-6.4198 2.864-6.4198 6.4195 0 3.5544 2.8641 6.4184 6.4186 6.4184h2.8153v7.2595C29.2084 32.419 34 26.79 34 19.9747 34 13.21 29.2107 7.581 22.7898 6.29688Z"/>
	<path fill="#FF4B5F" d="M19.9756 28.6656c-4.7904 0-8.6931-3.9007-8.6931-8.6898 0-4.789 3.9015-8.6908 8.6908-8.6908h.5443V6h-.5431C12.2723 6 6 12.2722 6 19.9747 6 27.7278 12.2723 34 19.9756 34h.5431v-5.3321h-.5431v-.0023Z"/>
</svg>