<svg xmlns="http://www.w3.org/2000/svg" viewBox="0 0 40 40">
	<path class="bg-logo" fill="#F08064" d="M0 0h40v40H0z"/>
	<path fill="#000" d="M29.625 15H36v9.0625h-6.375z"/>
	<path fill="#fff" d="M29.625 15H4v9.0625h25.625z"/>
	<path fill="#F08064" d="M9.05628 16.4419c-1.89149.1254-3.10455.9481-3.47519 2.3568-.08623.3277-.1085 1.0483-.04339 1.4031.26831 1.4619 1.37053 2.3368 3.18071 2.5248.45726.0475 1.40319.0192 1.81619-.0544 1.3104-.2334 2.1361-.8729 2.4716-1.9145.0325-.1006.0469-.1952.0469-.1952l-1.817-.3472s-.0177.0511-.0378.1189c-.1391.4696-.4882.788-1.0162.9266-.63985.168-1.60252.0819-2.10851-.1885-.22156-.1184-.45966-.363-.5679-.5835-.13194-.2687-.18128-.5136-.18139-.9002-.00014-.5463.12851-.9127.42552-1.2117.36744-.37 1.04328-.5632 1.82374-.5215.88974.0477 1.42314.3776 1.62274 1.0038.0283.0888.0277.1009.0277.1009.6152-.118 1.2306-.2354 1.8434-.3656 0 0 .0111-.0102-.0117-.0932-.057-.2069-.1992-.5076-.3411-.7214-.476-.7168-1.3339-1.1636-2.4908-1.2973-.27602-.0319-.94725-.0552-1.16752-.0407Zm4.53122 6.2266h1.7791V17.958h3.5861v4.7105h1.7791v-6.132h-7.1443v6.132Zm7.8948.0023 2.5228-.0093c2.5126-.0092 2.5237-.0095 2.759-.0719.9606-.2548 1.492-.9889 1.436-1.9836-.0196-.3473-.0645-.5267-.2026-.8084-.2127-.434-.6555-.7701-1.2195-.9257-.2156-.0595-.273-.0616-1.8972-.0711l-1.676-.0098v-.8608h4.5323v-1.3937h-6.2548v6.1343Zm8.1451-4.7124 4.5173-.0143.0149-1.4076h-4.5322v1.4219Zm0 2.1983 1.4108.0086c1.3965.0085 1.4119.0092 1.5263.0706.2192.1175.3025.2937.281.5943-.0164.2302-.0839.3509-.2492.4458l-.1195.0686-1.4247.0079-1.4247.0079v1.3671l1.6471-.0103c1.5945-.01 1.6546-.0123 1.8834-.0722.7222-.1892 1.2369-.676 1.4041-1.3283.0621-.242.0816-.6342.0436-.8773-.123-.7885-.6032-1.3141-1.4061-1.5391-.2169-.0608-.2631-.0625-1.8972-.0717l-1.6749-.0093v1.3374Zm-3.5522.0045c.2312.0644.3824.2849.3813.5562-.0011.2736-.0848.4293-.2901.5395-.1095.0589-.1326.0598-1.5289.0598h-1.4327v-1.1844h1.3835c.8659.0001 1.4222.0109 1.4869.0289Z"/>
</svg>