<svg xmlns="http://www.w3.org/2000/svg" viewBox="0 0 40 40">
	<path class="bg-logo" fill="#9638E3" d="M0 0h40v40H0z"/>
	<path fill="#fff" d="M17.9218 34c-.7165 0-1.4048-.4015-1.7376-1.0875-.4514-.9481-.0452-2.0746.9139-2.5264 4.0335-1.8794 6.635-5.9617 6.635-10.3843 0-4.4226-2.6015-8.5049-6.6293-10.38993-.9591-.44616-1.3653-1.57828-.914-2.52637.4513-.94809 1.5966-1.34963 2.5557-.90347 2.601 1.21578 4.8068 3.12869 6.3695 5.53237 1.6025 2.4706 2.454 5.3372 2.454 8.2874 0 2.9502-.8515 5.8168-2.4597 8.2818-1.5627 2.4037-3.7685 4.3166-6.3694 5.5324-.2596.1283-.5416.184-.8181.184Z"/>
</svg>