<svg xmlns="http://www.w3.org/2000/svg" viewBox="0 0 40 40">
	<path class="bg-logo" fill="#EB5C18" d="M0 0h40v40H0z"/>
	<path fill="#fff" d="M23.4045 11.2233c-.1453.4819-1.1549 3.6484-3.1818 5.558-2.1033-1.7669-3.2965-5.6217-3.2965-5.6217l.0051-.0382c-1.4328 2.1925-2.3863 4.8211-2.3863 4.8211s2.06 6.2615 5.6854 9.1323c3.5158-3.1232 5.5426-9.2063 5.5426-9.2063s-.8311-2.2614-2.3685-4.6452Zm.0383-1.3614s-1.1626 3.4903-3.1793 5.2826c-2.0804-1.647-3.2582-5.27495-3.248-5.33359 0 0 1.1957-3.01861 3.2123-4.81091 2.083 1.64698 3.215 4.8619 3.215 4.8619Zm2.0982 8.0462c1.234 2.2512 1.8917 4.0384 1.8917 4.0384S24.7838 30.9845 20.261 35C15.6031 31.3083 13 22.0409 13 22.0409l.0637-.2116c.1377-.4309.6808-1.8841 1.6649-3.7172.6399 1.7541 2.626 6.4171 5.5349 8.8136 3.141-2.9039 4.7803-7.5236 5.2775-9.0176Z"/>
</svg>