<svg xmlns="http://www.w3.org/2000/svg" viewBox="0 0 40 40">
	<path class="bg-logo" fill="#333" d="M0 0h40v40H0z"/>
	<path fill="#FFDD2D" d="M8 10h24v12.0702c0 3.0943-1.6507 5.9536-4.3303 7.5009L20 34l-7.6697-4.4289C9.65068 28.0238 8 25.1645 8 22.0702V10Z"/>
	<path fill="#333" d="M14.5869 16.3535v3.7541c.5134-.5797 1.4467-.972 2.5139-.972h1.1598v4.3641c0 1.161-.3155 2.1773-.7835 2.7363h5.0446c-.4671-.5596-.7818-1.5745-.7818-2.7341v-4.3663h1.1597c1.0672 0 2.0006.3923 2.514.972v-3.7541H14.5869Z"/>
</svg>