<svg xmlns="http://www.w3.org/2000/svg" viewBox="0 0 40 40">
	<path class="bg-logo" fill="#006636" d="M0 0h40v40H0z"/>
	<path fill="#fff" d="M18.7172 4c-2.3991 0-4.7983.47982-6.9575 1.51943-2.15915 1.03962-4.07843 2.47908-5.59787 4.3184-.39985.47977 0 .79967.5598.55977C8.96079 9.358 11.4399 8.79821 13.839 8.87818c3.2788 0 6.4776 1.27952 8.7967 3.59862 2.3191 2.3192 3.6786 5.438 3.6786 8.6368 0 1.1996-.2399 2.3991-.7197 3.4387-.4798 1.1196-1.1196 2.0793-1.9993 2.9589-.8796.7997-1.8393 1.5195-2.9589 1.9993-1.1195.4798-2.3191.7197-3.5186.7197-1.7594 0-3.3588-.6397-4.6383-1.8393-1.1996-1.1995-1.9193-2.7989-1.9193-4.4783 0-1.1196.4798-2.2392 1.2795-3.0389.7997-.7997 1.9193-1.2795 3.0389-1.2795.3199 0 .7197.08 1.0396.1599.3199.16.6398.3199.8797.5598.2399.2399.4798.5598.5598.8797.1599.3199.2399.6398.2399 1.0396 0 .2399-.08.3999-.16.6398-.0799.1599-.2399.3998-.3198.4798-.16.1599-.3199.2399-.5598.3199-.16.0799-.3999.0799-.6398.0799-.5598 0-.7997.3199-.3199.7997.2399.24.5598.4799.8797.5598.3199.16.7197.2399 1.0396.2399 1.1196 0 2.2392-.4798 3.0389-1.2795.7997-.7997 1.2795-1.9193 1.2795-3.0388 0-1.6794-.7197-3.2788-1.9193-4.4784-1.1995-1.1995-2.8789-1.8393-4.6383-1.8393-2.479 0-4.7982.9597-6.47755 2.639-1.67937 1.6794-2.71899 3.9985-2.71899 6.3976 0 3.1989 1.3595 6.3177 3.67863 8.6368 2.31911 2.3192 5.51791 3.5987 8.79671 3.5987 2.1592.08 4.3984-.2399 6.3976-1.0396 2.0793-.7997 3.9186-1.9193 5.518-3.4387 1.5994-1.5195 2.7989-3.2788 3.6786-5.2781.8797-1.9992 1.2795-4.0785 1.2795-6.2377 0-2.1592-.4798-4.2384-1.2795-6.2376-.8797-1.9993-2.0792-3.75863-3.6786-5.27807-1.5994-1.51943-3.4387-2.63902-5.518-3.43872C23.1155 4.31988 20.9563 4 18.7172 4c0 .07997 0 0 0 0Z"/>
</svg>