<svg xmlns="http://www.w3.org/2000/svg" viewBox="0 0 40 40">
	<path class="bg-logo" fill="#333" d="M0 0h40v40H0z"/>
	<path fill="#FFDD2D" d="M8 10h24v12.2226c0 3.1342-1.6698 6.0238-4.3846 7.5968L20 34.3053l-7.6073-4.4859c-2.71487-1.5613-4.38105-4.4626-4.38105-7.5968V10H8Z"/>
	<path fill="#333" d="M14.4614 16.4316V20.23c.5244-.5825 1.4681-.9787 2.5401-.9787h1.1768v4.416c0 1.1767-.3146 2.2021-.7923 2.773h5.2262c-.4777-.5709-.7662-1.5963-.7662-2.773v-4.416h1.1447c1.0836 0 2.035.3962 2.5476.9787v-3.7984H14.4614Z"/>
</svg>