<svg xmlns="http://www.w3.org/2000/svg" viewBox="0 0 40 40">
	<path class="bg-logo" fill="#00AFAA" d="M0 0h40v40H0z"/>
	<path fill="#fff" d="M11.6702 15.8047h12.5453c-.0051-2.3369-.937-4.5764-2.5913-6.22703C19.9699 7.92701 17.7284 6.99999 15.3915 7H8.1477c.74737 3.0877 1.9332 6.0524 3.5213 8.8037H5c1.51886 4.4546 4.03915 8.5014 7.367 11.8293 3.3279 3.3278 7.3747 5.8481 11.8293 7.367v-6.6697c-5.2103-2.9931-9.5328-7.3154-12.5261-12.5256ZM24.1446 7c.4791 2.17006 1.5685 4.158 3.1399 5.7293 1.5714 1.5715 3.5593 2.6609 5.7294 3.1399V7h-8.8693Zm8.8693 24.8329v-7.2438c-.0008-1.1545-.2291-2.2977-.6716-3.364-.4427-1.0663-1.091-2.0351-1.908-2.8508-.817-.8159-1.7867-1.4627-2.8537-1.9038-1.067-.4411-2.2104-.6676-3.365-.6668v12.4815c2.7517 1.5897 5.7136 2.784 8.7983 3.5477Z"/>
</svg>