<svg xmlns="http://www.w3.org/2000/svg" viewBox="0 0 40 40">
	<path class="bg-logo" fill="#17375B" d="M0 0h40v40H0z"/>
	<path fill="#A38959" d="M32.5297 23.3162 19.9833 10.8356 7.36274 23.3203h-.82737L19.9751 10l13.3943 13.3162h-.8397ZM19.9345 11.8934l.1976.1893 11.435 11.2375h-.778l-10.8464-10.653-10.80114 10.653h-.76975L19.741 12.0868l.1935-.1934ZM36 25.9837l-1.4284-1.4489H5.4654L4 25.996l32-.0123Zm-20.3344-2.7046v-.0082c-.1564-.3334-.2017-.5145-.2017-.9591v-2.4615l.3952.0206c.2017.0136.4941.4303.7337.7716.0489.0698.0957.1363.139.1957l.0741-.0247-.1977-1.1073h-3.0049l-.1934 1.1073.07.0247c.0313-.0436.0647-.0911.0997-.1408.2464-.3498.5721-.8122.7812-.8265l.3951-.0206v2.4615c0 .4446-.0494.6257-.2058.9591v.0082h1.1155Zm6.8782-2.0541-.1729 1.4489c-.2264.1729-1.1566.6092-2.2145.6092-1.8729 0-3.0214-1.3666-3.0214-3.1078 0-1.7411 1.2761-3.0913 3.1984-3.0913.8232 0 1.5889.2264 2.0005.3993l.1811 1.3254-.0988.0247c-.6504-1.0661-1.2061-1.4983-2.1569-1.4983-1.6259 0-2.3504 1.2143-2.3504 2.8402 0 1.626.708 2.8567 2.2557 2.8567 1.1814 0 1.7989-.708 2.2887-1.8317l.0905.0247Zm1.4819 2.0583c1.0351 0 1.5209-.4837 1.523-1.1115 0 .0014.0001.0028.0001.0042v-.0083c0 .0014-.0001.0027-.0001.0041-.0017-.5291-.3404-.955-1.4406-.955h-.4117V19.842l.7245.0371c.1605.0089.3962.2819.6109.5306.0826.0956.162.1877.2329.2597l.0741-.0247-.1893-.9385h-2.3586v.0082c.1564.3334.2058.5187.2058.9632v1.6342c0 .4487-.0494.6298-.2058.9632v.0083h1.2348Zm-.3293-1.9141h.2635c.5269 0 .8603.2305.8603.8068 0 .4775-.2305.9467-.8644.9467-.07 0-.1565 0-.2594-.0082v-1.7453Z"/>
</svg>