<svg xmlns="http://www.w3.org/2000/svg" viewBox="0 0 40 40">
	<path class="bg-logo" fill="#CC163F" d="M0 0h40v40H0z"/>
	<path fill="#fff" d="M31.9999 22.583c-.0101-.8619-.2019-1.7121-.5631-2.4948-.3612-.7827-.8836-1.4804-1.5329-2.0474.2102-.573.317-1.1789.3155-1.7893 0-.3351-.0338-.6657-.0951-.984C29.6656 12.84 27.5377 11 24.9875 11h-6.1849v11.3964c0 2.1937-1.8755 3.9804-4.1813 3.9804-.0726-.0006-.1452-.0023-.2178-.0053-2.2044-.1067-3.9644-1.8498-3.9644-3.9733v-8.0338c0-.5315.4382-.9635.976-.9635h2.4213c.1589.0014.3165-.0286.4639-.0881.1473-.0596.2814-.1476.3947-.2591.1133-.1114.2034-.2441.2654-.3905.0619-.1463.0944-.3034.0956-.4623 0-.6622-.5467-1.2-1.2196-1.2H11.416C9.53155 11.0009 8 12.5093 8 14.3644v1.0774h.00089H8v6.9564l.00089.088c.05244 3.4773 3.00001 6.2915 6.62131 6.2915 3.6506 0 6.6213-2.8622 6.6213-6.3795V13.4h3.7448c.0249 0 .0489.0009.0712.0044 1.5066.0383 2.7199 1.3005 2.7199 2.8471.0035.5688-.1637 1.1255-.48 1.5982-.3662.5654-.2737 1.1876.2889 1.5023.5975.3204 1.0966.7971 1.4442 1.3792.3475.5821.5304 1.2477.5291 1.9256 0 1.9138-1.4275 3.4933-3.2533 3.6987-.1331.0139-.2669.021-.4009.0213h-3.943c-.672 0-1.2178.5387-1.2178 1.2009 0 .664.5458 1.2 1.2178 1.2h3.9422c3.3573 0 6.0915-2.7467 6.0915-6.12.0026-.0258.0018-.0498.0018-.0747Z"/>
</svg>