<svg xmlns="http://www.w3.org/2000/svg" viewBox="0 0 40 40">
	<path class="bg-logo" fill="#E60000" d="M-.00048828 0h40v40h-40z"/>
	<path fill="#fff" d="m28.792 13.7547-.5283.4528.6037 1.8868-1.7358-.9056-.6038.4528 1.9623 1.0566-2.1132 1.6604-.5283-.7547.7547-.6038-.5283-.6792-.7547.6037-.6038-.7547.7547-.6038-.5283-.7547-3.7736 3.0944 3.6227 2.7924.6792-.7547c.4528 0 .8302.3774.9811.7547l-.6792.7547.3774.3019c.9056-.7547 2.1132-1.283 3.3207-1.283 2.566 0 4.5283 2.0377 4.5283 4.5283 0 .7547-.2264 1.7359-.6792 2.4151l.6792.5283c0 .4528-.4528.9811-.9056 1.1321l-.6793-.5283c-.9057.8302-2.1132 1.283-3.3207 1.283-2.5661 0-4.5283-1.9623-4.5283-4.4528 0-.7548.3018-1.6604.6037-2.3397l-.4528-.3018-.6793.8301c-.4528-.0754-.9056-.3773-.9811-.8301l.6793-.7548-3.0189-2.4905v3.9245h.9811c.151.2264.2264.3774.2264.6038s-.0754.4528-.2264.6792h-.9811v.4528c2.1887.3774 4.0755 2.2642 4.0755 4.4529 0 2.2641-1.8114 4.1509-4.0755 4.5283v.7547c-.2264.1509-.4528.2264-.7547.2264-.3019 0-.6038-.0755-.8302-.2264v-.7547c-2.2642-.3019-4-2.2642-4-4.5283 0-2.2642 1.7358-4.0755 4-4.3774v-.5283H18.075c-.151-.2264-.2264-.3773-.2264-.6792 0-.2264.0754-.4529.2264-.6793h1.0566v-3.9245l-3.0944 2.4906.6793.7547c-.151.4528-.5283.7547-.9811.8302l-.6793-.8302-.3773.4528c.3773.7547.6792 1.5094.6792 2.3396 0 2.4906-2.0377 4.4529-4.5283 4.4529-1.20755 0-2.41509-.4529-3.32075-1.2831l-.60378.5283c-.37736-.1509-.90566-.6792-.90566-1.132l.67925-.5283c-.37736-.7547-.67925-1.5849-.67925-2.4151 0-2.4906 1.96227-4.5283 4.52829-4.5283 1.2076 0 2.4151.5283 3.3208 1.283l.3773-.2264-.6792-.7547c.1509-.3774.5283-.7548.9811-.7548l.6793.7548 3.6226-2.7925-3.7736-3.0943-.5283.7547.7547.6038-.5283.7547-.8302-.7547-.5283.6792.6038.4528-.5283.7547-2.0377-1.6603 1.8868-1.0566-.5283-.4529-1.7359.9057.5283-1.7359-.5283-.4528-.6792 2.0378-2.11324-1.6604.5283-.6793.75472.6038.60382-.6792-.75476-.6793.5283-.6792.75476.5283.5283-.6793-1.58495-1.0566c.15095-.5283.45285-.98111.98115-1.283l8.5283 6.7925v-4.5283h-.9057v.8301h-.9056v-.8301h-.9057v.8301h-.9057v-2.4905l2.1887.8302v-.6793l-1.8868-.7547 1.8868-.75471v-.67925l-2.0377.75472V6.28302h.9056v.90566h.9057v-.90566h.9057v.90566h.9056V5.15094c.151-.07547.3774-.15094.6793-.15094s.5283.07547.7547.15094V16.3208l8.5283-6.7925c.4528.30189.8302.7547.9811 1.283l-1.5849 1.283.5283.6793.7547-.5283.5283.6792-.7547.6793.5283.6792.7547-.6038.5283.6793-2.1132 1.6604c0-.2264-.6037-2.2642-.6037-2.2642ZM11.4335 26.0566c0 .7547.5283 1.2076 1.2075 1.283l-1.0566.7547c-.7547-.2264-1.4339-1.132-1.4339-1.8868 0-.2264.0754-.3773.1509-.6037h-.2264c-.98115 0-1.81134-.9057-2.03775-1.8113l1.13207-.8302v.3019c0 .6037.60378 1.132 1.20758 1.132.6792 0 1.283-.5283 1.283-1.2075 0-.7547-.6038-1.283-1.434-1.283-1.50941 0-2.94337 1.4339-2.94337 3.2452 0 .5283.15094 1.0566.30189 1.5095l.75471-.5283c.45283.2264.83019.6792.90566 1.2075l-.60377.5283c.67925.5283 1.50948.7547 2.26418.7547 1.7358 0 3.0943-1.3584 3.0943-2.566 0-.7547-.4528-1.283-1.2075-1.283-.8302.0755-1.3585.6038-1.3585 1.283Zm9.132 2.6415c0 .6793.5284 1.2076 1.2076 1.2076.4528 0 .6792-.2265.9811-.4529v1.3585c-.3019.2264-.6792.2264-1.0566.2264-.7547 0-1.3585-.2264-1.7358-.8301-.3774.6792-1.0566.8301-1.8113.8301-.3019 0-.7548-.0754-1.0566-.2264v-1.3585c.3018.3019.5283.4529.9811.4529.6792 0 1.2075-.5283 1.2075-1.2076 0-.6792-.3773-1.2075-1.132-1.2075-1.2831 0-1.8114 1.2075-1.8114 2.2641 0 1.5849 1.2076 2.9434 2.717 3.2453v-.7547c.3019-.151.5283-.151.7547-.151.3019 0 .5283 0 .8302.151V33c1.5095-.2264 2.717-1.7358 2.717-3.2453 0-1.1321-.4528-2.2641-1.8113-2.2641-.5283-.0755-.9812.5283-.9812 1.2075Zm7.6227-5.4339c0 .6037.6792 1.2075 1.283 1.2075.6038 0 1.2076-.5283 1.2076-1.1321v-.3019l1.0566.8302c-.2265 1.0566-1.1321 1.8868-2.1887 1.8113.0755.2265.0755.3774.0755.6038 0 .7547-.6793 1.6604-1.434 1.8868l-.9811-.8302c.6792-.0754 1.2075-.5283 1.2075-1.283 0-.7547-.6038-1.2075-1.283-1.2075-.7547 0-1.2076.6037-1.2076 1.283 0 .8302 1.0566 2.566 3.1699 2.566.8301 0 1.5849-.2264 2.1886-.7547l-.6792-.5283c.1509-.5283.4528-.9811.9056-1.2076l.6793.5284c.3019-.4529.3774-.9812.3774-1.5095 0-1.4339-1.1321-3.2453-2.9434-3.2453-.7548 0-1.434.4529-1.434 1.2831Z"/>
</svg>