<svg xmlns="http://www.w3.org/2000/svg" viewBox="0 0 40 40">
	<path class="bg-logo" fill="#006A40" d="M0 0h40v40H0z"/>
	<path fill="#fff" d="m30.3412 14.1013-14.1231 3.7991c-.5047.1141-.9868.4197-1.3411.8828-.3546.4624-.5249 1.0087-.5249 1.5503v3.4501l-3.7501.9933c-.2175.0583-.4173.1861-.5653.3793-.148.1914-.21755.4179-.21755.6426v3.6707l3.75005-1.0106c.0559-.0148.1106-.0344.1635-.0582.1531-.0696.2916-.1772.4015-.3192.148-.1909.2176-.4179.2176-.6426l.0003-3.6553 4.5395-1.2174v5.4029l-3.7367.9951c-.222.0606-.4259.1908-.5763.3864-.1504.1956-.222.4268-.222.6586v3.8324l3.7366-1.004c.0526-.0149.1044-.0327.1546-.0553.027-.0119.0538-.0249.0799-.0392.1296-.0696.2464-.167.3418-.2919.1504-.1956.2221-.4274.2221-.6562v-3.8259l4.5261-1.2198v5.3672l6.9392-1.8647c1.1684-.3127 2.124-1.548 2.124-2.7184V15.6332c.0021-1.1699-.9532-1.8713-2.1397-1.5319ZM9.24284 33.3922 7 34.0009v-2.2262c0-.0992.01932-.2015.05826-.2972.02615-.0648.06122-.1266.10551-.1837.10997-.1462.26007-.2425.42146-.2853l2.24284-.6111v2.2262c0 .1688-.0538.3394-.16347.4833-.10997.1439-.26037.2402-.42176.2853Z"/>
	<path fill="#B9BABB" d="m16.1911 8.73197 9.9649-2.66668c.9889-.26929 1.7985.31921 1.8009 1.30956V17.4441c0 .9886-.8096 2.0218-1.7988 2.2893l-2.7362.7341v-4.5083l-4.5306 1.2174v-4.5582l-4.5281 1.2109v-2.6464c0-.544.1703-1.0897.5248-1.55213.341-.44703.8028-.74603 1.3031-.89405v-.00475ZM10.5213 18.702l3.0391-.8269c.2196-.0606.4214-.1884.5718-.384.0657-.0856.1159-.1771.1516-.2722.0461-.1231.0681-.2515.0681-.3793v-3.0103l-3.0388.8198c-.0898.0249-.1766.0606-.258.1082-.118.0689-.225.1616-.3139.2782-.1483.1955-.2199.425-.2199.6538v3.0127Zm-3.51886 4.5065 2.24284-.6087c.16139-.0452.31179-.1415.42176-.2854.06242-.0814.1067-.1718.13316-.2657.02021-.0713.03031-.1444.03031-.2176V19.605l-2.24284.611c-.16139.0428-.31149.1391-.42146.2854-.10997.1415-.16377.3121-.16377.4809v2.2262Z"/>
</svg>