<svg xmlns="http://www.w3.org/2000/svg" viewBox="0 0 40 40">
	<path class="bg-logo" fill="#000" d="M0 0h40v40H0z"/>
	<path fill="#E2001A" d="M20.5731 13.2281c.0117-.0117.0117-.0234.0234-.0351.2222-.3158.1286-.5497-.0234-.6784-.0936-.0819-2.2573-1.3918-2.2573-1.3918-.152-.1053-.2573-.2807-.2573-.4912 0-.3158.1871-.5614.6316-.69008 1.3918-.38597 6.304-.5848 7.9649-.5848.5731 0 1.5789 0 2.4678.0234l-.0351-.03509C26.6433 7.26316 23.462 6 20 6 12.269 6 6 12.269 6 20c0 3.4035 1.21638 6.5146 3.22807 8.9356 1.75443-2.5263 6.10523-8.7602 7.05263-10.035 1.0994-1.4737 3.6023-4.7369 4.0234-5.2866l.0234-.0233.2456-.3626ZM11.462 31.0994C13.8246 32.924 16.7836 34 20 34c7.731 0 14-6.269 14-14 0-2.3392-.5731-4.5497-1.5906-6.4795.4795-.4679 1.0409-1.2047.6666-2.117-.1169-.269-.6549-.9005-.7953-1.0526l.0234.0585c.3392 1.0292-.3275 1.6725-.8187 2.1052-.269.2457-3.8246 3.5907-7.9883 7.2398-3.6725 3.2164-7.7895 6.4795-10.1638 8.269-3.34498 2.5029-3.99995 2.8655-3.99995 2.8655-.09357.0468-.23392.0936-.33918.0936-.19883 0-.38597-.0936-.49123-.2339-.02339.0467-.02339.0819-.0117.1053.36258.5847.95907 1.2514 1.29824 1.2514.10527 0 .25732-.0468.35092-.0936-.0117-.0117.2573-.152 1.3216-.9123Z"/>
	<path fill="#FEFEFE" d="M20.5965 13.1918c.2105-.3159.1286-.5498-.0234-.6784-.0936-.0819-2.2573-1.3919-2.2573-1.3919-.1521-.1052-.2573-.2807-.2573-.4912 0-.3275.1988-.5614.6315-.69004 1.3918-.38596 6.3041-.58479 7.965-.58479.7836 0 2.3508 0 3.3684.05848 1.1461.07017 2.0234.31579 2.2456.86545.421 1.0878-.2807 1.7661-.7836 2.2223-.269.2456-3.8129 3.5906-7.9884 7.2397-3.6724 3.2164-7.7894 6.4796-10.1637 8.269-3.34502 2.503-3.99999 2.8655-3.99999 2.8655-.09357.0468-.23392.0936-.35088.0936-.35088 0-.61988-.269-.61988-.6082 0-.1287.03508-.2573.10526-.3509 0 0 6.59649-9.4971 7.78949-11.1111 1.2047-1.6023 4.0818-5.3684 4.0818-5.3684s.0469-.0351.2574-.3391Z"/>
</svg>