<svg xmlns="http://www.w3.org/2000/svg" viewBox="0 0 40 40">
	<path class="bg-logo" fill="#2A426C" d="M-.00048828 0h40v40h-40z"/>
	<g fill="#fff">
		<path d="M35.2779 22.9594H33.438c-.08 0-.16.16-.24.24-1.1199 1.36-2.7998 2.3999-5.1197 3.2799-2.0799.7999-4.3998 1.1999-7.0397 1.4399-2.6398.16-5.2797 0-7.7596-.56-1.9199-.4-3.91976-1.0399-5.43968-1.9999-1.11995-.6399-1.9999-1.2799-2.47988-1.9999-.15999-.16 0-.24.15999-.16.79996.8 1.83991 1.52 3.03985 2.0799 1.19994.56 2.79982 1.04 4.87972 1.44 1.52.2399 3.5199.3999 5.9997.2399 2.6399-.1599 5.1998-.7999 7.2797-1.7599 1.1999-.5599 2.0799-1.1199 2.7198-1.7599.24-.24 0-.56-.24-.6399h-.9599c-1.6799 1.8399-5.3597 3.6798-11.3594 3.6798-6.0797.24-12.5594-2.2399-12.47941-6.0797.08-3.8398 6.15971-6.3197 12.07941-6.3197s9.8395 1.5999 11.8394 3.7598h.9599c.24-.08.32-.4.16-.64-.6399-.6399-1.5199-1.1999-2.7198-1.7599-2.0799-.9599-4.5598-1.5999-7.2797-1.7599-2.4798-.16-4.4797 0-5.9997.24-2.2399.4-3.75978.88-4.95971 1.4399-1.27994.56-2.23989 1.36-3.03985 2.1599-.15999.08-.31998 0-.15999-.16.55997-.6399 1.35993-1.3599 2.47987-1.9999 1.59992-.9599 3.51978-1.5999 5.51968-1.9999 2.4799-.5599 5.1198-.7199 7.7596-.5599 2.6399.16 5.0398.6399 7.0397 1.4399 2.3199.8799 4.0798 1.9999 5.1197 3.3598l.24.24h1.9199c.48 0 .8-.4.56-.9599C33.358 13.9999 27.7583 12 20.2387 12c-8.3996 0-16.23919 3.5998-16.23919 8.3996 0 4.7997 7.75959 8.4795 16.63919 8.3996 7.6796-.08 12.2394-2.0799 14.8792-4.4798.88-.72.4-1.36-.24-1.36Z"/>
		<path d="M14.7189 22.0006h.16v-3.1198h-.6399v1.1199c0 .08 0 .24-.16.24h-1.28c-.08 0-.16-.08-.16-.16v-.48c0-.5599-.3999-.6399-.5599-.6399h-.08v3.0398h.6399v-1.0399c0-.16.08-.16.24-.16h1.12c.16 0 .24.08.24.24v.4799c0 .4.3999.48.4799.48Zm1.12-3.1998h-.08v3.1198h.64l1.2799-1.8399c.08-.08.24-.16.24.08v1.2c0 .5599.4.6399.56.6399h.1599v-3.1198h-.6399l-1.28 1.8399c-.08.16-.2399.16-.2399 0v-1.2c-.16-.6399-.48-.7199-.64-.7199Zm7.9196 3.1998v-2.3999c0-.08.08-.16.24-.16h.4799c.24 0 .4-.3199.4-.4799h-2.3998c-.32 0-.48.24-.56.4799h.9599c.16 0 .16.08.16.16v2.3999h.72Zm5.0397-3.1998h-.16v3.1198h.64l1.2799-1.8399c.08-.08.24-.16.24.08v1.2c0 .5599.4.6399.56.6399h.16v-3.1198h-.64l-1.2799 1.8399c-.08.16-.24.16-.24 0v-1.2c0-.6399-.4-.7199-.56-.7199ZM9.75919 22.0006h.48001c.4799 0 .9599-.4.9599-.9599v-1.2c0-.5599-.48-1.0399-1.0399-1.0399h-.40001c-.55997 0-.95995.4-.95995.9599v.24c0 .16-.07999.24-.23999.24h-.47997c-.08 0-.15999-.08-.15999-.16v-.56c0-.5599-.39998-.6399-.55998-.6399v3.1198h.63997v-1.1199c0-.16.08-.16.23999-.16h.39998c.15999 0 .15999.08.15999.24v.16c-.07999.4799.39998.8799.95995.8799Zm-.39998-2.1599c0-.32.23999-.5599.55997-.5599h.16002c.32 0 .5599.2399.5599.5599v1.12c0 .32-.2399.5599-.5599.5599h-.16002c-.31998 0-.55997-.2399-.55997-.5599v-1.12Zm10.95949-.4799h.7999c.24-.08.32-.24.4-.48h-1.2799c-.56 0-.96.4-.96.9599v1.12c0 .5599.4.9599.96.9599h1.3599c0-.24-.24-.4-.4-.48h-.8799c-.24 0-.32-.1599-.32-.3199v-1.36c0-.24.16-.3999.32-.3999Zm6.7996-.48h-1.6799v3.1198h.72v-1.0399h.8799c.4 0 .72-.24.88-.48.16-.32.08-.64 0-1.04-.08-.3199-.4-.5599-.8-.5599Zm-.16 1.5999h-.7999s-.08 0-.08-.08v-.88s0-.08.08-.08h.8799c.24 0 .32.16.32.32v.4c.08.08-.16.32-.4.32Zm8.3196.88c0 .5599.4.6399.56.6399h.16v-3.1198h-.8c-.16 0-.24.08-.24.16l-.6399 1.6799c-.08.24-.24.24-.32 0-.24-.56-.4-1.04-.56-1.5999 0-.08-.08-.16-.24-.16h-.8v3.0398h.16c.16 0 .56 0 .56-.6399v-1.2c0-.24.16-.24.24-.08l.56 1.4399h.6399l.56-1.4399c.08-.16.24-.16.24.08l-.08 1.2Z"/>
	</g>
</svg>