<svg xmlns="http://www.w3.org/2000/svg" viewBox="0 0 40 40">
	<path class="bg-logo" fill="#FCB205" d="M0 0h40v40H0z"/>
	<path fill="#fff" d="M32.9396 19.9756v.0524c-.0032 2.9331-.219 7.8627-2.4181 10.3038C29.2101 31.7873 27.253 32.994 24.268 33l-.0608-1.4076c2.6629-.4533 4.2339-2.1588 4.5395-4.6108.3169-2.5413.281-3.6163.281-6.9814 0-3.3615.0359-4.4377-.281-6.981-.3056-2.4508-1.5742-4.15748-4.238-4.61083L24.268 7c2.985.00523 4.9417 1.2147 6.2535 2.67058 2.1987 2.43992 2.4149 7.36912 2.4181 10.30502Zm-21.7463 7.006c-.3173-2.5413-.2822-3.6163-.2822-6.9814 0-3.3615-.0117-4.4357.2822-6.981.3289-2.847 2.0888-4.15748 4.7509-4.61083L16.1 7c-2.9858.00282-5.3693 1.21511-6.68106 2.67058C7.21983 12.1109 7.00121 17.0397 7 19.9756v.0524c.00121 2.9331.21903 7.8627 2.41894 10.3038C10.7303 31.7873 12.6866 32.9972 15.672 33l.0608-1.4076c-2.6637-.4533-4.2335-2.1584-4.5395-4.6108Zm14.3755-3.843c0 2.5824-.6562 4.7316-2.931 5.9697-.6966.3792-1.7937.6466-2.6497.6466-.9224 0-1.9273-.1506-2.6742-.5991-.5492-.3298-1.1801-.8427-1.5863-1.3806-.9921-1.3146-1.4772-2.7358-1.4772-5.6842 0-5.8283.1135-8.3495 1.5473-9.4422 2.7136-2.0679 5.292-3.38124 5.5948-4.28794.2021-.60474 0-1.05447 0-1.05447l1.0504-.27901c.8234 2.644 1.3472 5.14392-.7585 6.27922-1.931 1.0412-2.2471 1.0851-3.8664 1.931-1.3496.705-2.1786 1.3746-2.3139 2.5353-.0559.4823-.1191 1.7196-.1191 1.7196l.5073-.0314c.1791-.5733.4775-1.1873 1.106-1.718.7931-.6695 1.8681-1.1861 3.0381-1.224.1116-.0036.2219-.0056.331-.0056 1.3822 0 2.5808.3016 3.508 1.135 1.4652 1.317 1.6934 3.4851 1.6934 5.4901Zm-4.1941-3.9666c-.3518-.8415-.8374-.9896-1.4498-.9912-.6112-.0016-1.0991.219-1.4526 1.0584-.3837.9116-.4635 2.1984-.4667 3.87-.0036 1.6725.0709 3.0334.4518 3.9433.3531.8439.8386 1.1382 1.4498 1.1402.6104.002 1.0996-.2927 1.4547-1.1334.3841-.9095.4622-2.2703.4654-3.942.0032-1.6729-.0709-3.033-.4526-3.9453Z"/>
</svg>