<svg xmlns="http://www.w3.org/2000/svg" viewBox="0 0 40 40">
	<path class="bg-logo" fill="#3B175C" d="M0 0h40v40H0z"/>
	<path fill="#fff" d="M20.0046 5c.3863 0 .7972.016 1.2521.05258v2.7832c0 12.26322.4675 17.56442 2.2803 25.73912-2.3163.5795-4.7732.5795-7.0854-.0045 1.8248-8.2342 2.2957-13.5354 2.2957-25.73462v-2.7832C19.2068 5.016 19.6177 5 20.0046 5ZM34 20.5425c0-4.7698-2.598-8.9634-6.5014-11.35227l.0526 3.23807c2.3203 1.9946 3.7902 4.8955 3.7902 8.1142 0 1.4699-.3143 2.8723-.8658 4.1536-1.6797-1.5956-2.8764-3.4724-3.621-5.6887-.8984-2.6826-1.1082-5.6201-1.1402-9.2091l.004-1.54304-.3292-.13716-.3017-.11659c-.6104-.2286-1.239-.41719-1.8785-.56007l.004 2.35229c.0845 12.39237 2.2317 17.50047 5.4258 21.33977C31.9055 28.668 34 24.8413 34 20.5425ZM16.791 9.79602l.004-2.35229c-.8618.19316-1.7036.46748-2.5094.81381l.004 1.54305c-.036 3.58561-.2418 6.52651-1.1402 9.20911-.7406 2.2163-1.9413 4.0897-3.62097 5.6887-.55149-1.2813-.86582-2.6837-.86582-4.1536 0-3.2233 1.46589-6.1196 3.79019-8.1142l.0526-3.23809C8.59803 11.5768 6 15.7705 6 20.5448c0 4.2988 2.09854 8.1255 5.3612 10.591 3.2021-3.8348 5.3453-8.9474 5.4298-21.33978Z"/>
</svg>