<svg xmlns="http://www.w3.org/2000/svg" data-name="Layer 1" viewBox="0 0 40 40">
	<path class="bg-logo" fill="#0073ae" d="M0 0h40v40H0V0Z"/>
	<path fill="#fff" d="M23.4 8.4c-.4-.2-.6-.4-.6-.7V3.9c0-.4-.4-.7-.9-.4-.4.3-.7.5-1.1.8-1.1.7-2 1.4-3.2 2.1-.3.1-.4.4-.4.8V8c0 .2-.2.4-.4.6l-.1.1c-.3.1-.6.2-1 .4-.4.1-.8.3-1.1.4C10.1 11.6 7 15.9 7 20.9s2.6 9.1 6.7 11.6c.8.5 1.6.7 2.4 0 1.1-1 2.1-2 3.2-3s2.2-2 3.2-3c.3-.3.5-.7.5-1.2v-9.5c0-.8.5-.7.9-.4 2 1.3 3.4 3.5 3.4 5.8s-.7 3.5-1.9 4.8c-.2.2-.3.4-.4.5 0 .2 0 .3-.1.7v5.1c0 .8.8.8 1.2.5 4.2-2.3 7-6.8 7-11.8.1-6.1-4.4-11.1-9.7-12.5Zm-6.2 17.9c0 1-.6 1-1.7.1-1.6-1.5-2.7-3.5-2.7-5.6s1.5-4.6 3.4-5.9c.6-.2 1.1 0 1 .6v10.8Z"/>
</svg>