<svg xmlns="http://www.w3.org/2000/svg" data-name="Layer 1" viewBox="0 0 40 40">
	<path class="bg-logo" fill="#003870" d="M0 0h40v40H0V0Z"/>
	<path fill="#fff" d="M31.8 8.3c-.1-.2-.4-.2-.5-.2H8.3l-.2.2c-.1.1 0 .2 0 .3V31.5l.2.2c.1.1.2 0 .3 0H31.6l.2-.2c.1-.1 0-.2 0-.3V8.8c0-.2 0-.3-.2-.5ZM9.9 11.5v-.6h10v.4H10Zm1.9 1.1-.2-.4v-.1H18v.4c.2 0 .1.1 0 .1h-6.5Zm.6 1.2-.2-.4v-.1h6.4v.4c.2 0 .1.1 0 .1h-6.4ZM13 15l-.2-.4v-.1h6.4v.4c.1 0 0 .1 0 .1H12.8Zm.6 1.2-.2-.4v-.1h6.4v.4c.1 0 0 .1 0 .1H13.4Zm.6 1.3-.2-.4V17h6.4v.4c.1 0 0 .1 0 .1h-6.3Zm.6 1.2-.2-.4v-.1H21v.4c.1 0 0 .1 0 .1h-6.3Zm.6 1.2-.2-.4v-.1h6.5v.4c.1 0 0 .1 0 .1h-6.4Zm14.3 1.2v.1h-6L20 28.9h-.1l-4-8.4v-.1h13.9v.4Zm.1-9.9v.1H29.5c-.4 0-.7 0-1 .2-.3.2-.5.4-.6.7l-3.8 7.7H23v-.1l3.4-7.2c.4-1.3-.7-1.3-.8-1.3H24.8v-.6H30.2v.3Z"/>
	<path fill="#ed1b34" d="M28.2 20.1c.3 0 .6-.1.8-.2.2-.2.4-.4.5-.7.1-.3.1-.6 0-.9 0-.3-.2-.6-.4-.8-.2-.2-.5-.4-.8-.4h-.9c-.3.1-.5.3-.7.5-.2.2-.2.5-.2.8s.2.8.5 1.1.7.5 1.1.5Z"/>
</svg>