<svg xmlns="http://www.w3.org/2000/svg" viewBox="0 0 40 40">
	<path class="bg-logo" fill="#1D1D1B" d="M0 0h40v40H0z"/>
	<path fill="#FFD101" d="M8 32.5645h23.6926v1.4359H8v-1.4359Z"/>
	<path fill="#fff" d="m12.0493 19.5263 5.6216-.2943.4738 8.9816-5.6216.2943-.4738-8.9816Zm6.3826 6.6555 1.4359-5.4422 8.6945 2.3262-1.4359 5.4421-8.6945-2.3261Zm3.5755-7.0863 4.9036-7.5457 4.717 3.0657-4.8965 7.5529-4.7241-3.0729Zm-6.5765-9.54879L19.8104 6l5.6647 6.9929-4.3796 3.5467-5.6646-6.99289ZM8 14.6155l8.4001-3.2236 2.0175 5.2554-8.4001 3.2093L8 14.6155Z"/>
</svg>