<svg xmlns="http://www.w3.org/2000/svg" viewBox="0 0 40 40">
	<path class="bg-logo" fill="#E32E2A" d="M0 0h40v40H0z"/>
	<path fill="#fff" d="M22.7271 28.3582s.7274 1.942 1.3941 2.0635h-8.4243c-1.6971 0-3.2119-.971-3.6972-2.7919L7.09074 13.0635S6.66669 11.3034 6 11h8.6062c1.6971.0608 2.8486.6676 3.5153 2.9134l4.6056 14.4448Z"/>
	<path fill="url(#a)" opacity=".2" d="M22.7271 28.3582s.7274 1.942 1.3941 2.0635h-8.4243c-1.6971 0-3.2119-.971-3.6972-2.7919L7.09074 13.0635S6.66669 11.3034 6 11h8.6062c1.6971.0608 2.8486.6676 3.5153 2.9134l4.6056 14.4448Z"/>
  	<linearGradient id="a" x1="15.0606" x2="15.0606" y1="9.34895" y2="32.1337" gradientUnits="userSpaceOnUse">
  		<stop stop-color="#fff" stop-opacity="0"/>
  		<stop offset=".33" stop-color="#fff" stop-opacity="0"/>
  		<stop offset=".76" stop-color="#0E1513"/>
  		<stop offset="1" stop-color="#0E1513"/>
  	</linearGradient>
	<path fill="#fff" d="M17.3334 28.3587s-.7275 1.942-1.3942 2.0635h8.4243c1.6971 0 3.2119-.971 3.6972-2.7919l4.8486-14.5658s.4241-1.7601 1.0908-2.0635h-8.5459c-1.6971 0-2.7878.6068-3.4545 2.8526l-4.6663 14.5051Z"/>
</svg>