<svg xmlns="http://www.w3.org/2000/svg" viewBox="0 0 40 40">
	<path class="bg-logo" fill="#BD0D31" d="M0 0h40v40H0z"/>
	<path fill="#fff" d="m14.2827 21.1432.4211.2106c1.1231.4913 1.9654 1.1933 2.4567 2.3163.9827 2.0356-.0702 4.001-1.8951 4.7731-.9125.351-1.825.4913-2.8077.4913H7.05288c-.21058 0-.42115.0702-.56154.0702-.14038 0-.28076-.0702-.49134-.0702.07019-.1403.07019-.3509.14038-.4211.77212-.7019 1.05288-1.5442 1.05288-2.5269V17.423c0-.8423-.49134-1.5442-.98268-2.2461-.14039-.1404-.14039-.351-.14039-.4913.14039 0 .35096-.0702.49135-.0702.77211 0 1.47403.0702 2.24614.0702h1.68462c.2808 0 .4913-.0702.6317-.351.8423-1.4038 2.1058-2.176 3.65-2.5269 1.3337-.351 2.6673-.2106 4.001-.2106.4211 0 .4913-.0702.4211-.4913-.1404-.6318-.4211-1.1933-.9125-1.61446-.0702-.07019-.1404-.28076-.1404-.42115.1404 0 .2808-.07019.4914-.07019.2807 0 .6317.07019.9125.07019h1.4038c.1404 0 .351-.07019.4914-.07019h.4211c0 .14038 0 .35096-.1404.49134-.2106.42116-.5615.77216-.7721 1.12306v.0702c-.351.7721-.2808.9125.5615.9125 1.2635.0702 2.4568-.0702 3.7202.2106 1.5442.3509 2.8077 1.1231 3.65 2.4567.2106.2808.351.4212.7019.4212h2.2462c.1404 0 .3509-.0702.4211-.2106.2106-.2106.4212-.351.6318-.2106.1403.0702.2105.2808.2105.4212-.0702.2807-.2807.4211-.5615.4211-.9125.0702-1.8952.1404-2.8077.1404-.2808 0-.4211.0702-.3509.4211.2105 1.4039-.0702 2.7375-1.0529 3.8606-.0702.0702-.0702.1404-.2106.2808h.351c2.4567-.351 4.4922.6317 5.2644 3.0182.7721 2.4568-.0702 4.7731-2.7375 5.7558-.6318.2808-1.4039.3509-2.176.3509-1.7548.0702-3.5798 0-5.3346 0-.1404 0-.2807.1404-.4913.1404-.1404 0-.351 0-.4212-.1404-.0702-.0701 0-.2807.0702-.3509.9827-.8423 1.1231-1.9654 1.1231-3.1587-.0702-1.3336 0-2.5971 0-3.9307 0-.2808-.0702-.351-.351-.4212-1.2634-.2105-2.3865-1.2634-2.3865-2.7375 0-.9125.0702-1.6846.7721-2.3163.2106-.2106.4914-.351.7019-.4211.2808-.1404.4212-.2106.1404-.4212-.0702-.0702-.0702-.2808-.0702-.351.0702-.0702.2106-.1403.351-.1403.4913 0 .9125.1403 1.4038.1403h2.3164c.1403 0 .2807-.0702.2807-.1403.0702-.0702 0-.2106-.0702-.351-.8423-1.2635-2.0355-1.9654-3.5798-1.9654h-2.2461c-.2808 0-.4212.1404-.4212.4212v7.5105c-.0701.9827.2808 1.825.9125 2.5269.0702.0702.2106.1404.2106.2808s.0702.351 0 .4212c0 .0701-.2807 0-.4211 0-.2106 0-.351-.1404-.5616-.1404h-1.7548c-.2105 0-.4913.0702-.7019.1404-.1404 0-.351 0-.351-.0702-.0701-.0702 0-.2808 0-.4212.0702-.1404.2808-.2808.351-.4211.4914-.6318.7721-1.3337.7019-2.2462v-7.5807c0-.2808-.0702-.4212-.3509-.4212h-2.1058c-1.7548-.0702-3.0183.7721-3.9307 2.176.1403.2105.3509.2105.5615.2807.5615.1404 1.0529.351 1.6144.4914.1404.0702.2808.2106.4914.2106.1403.0702.4211.0702.5615 0 1.825-.8423 3.2288.6317 3.2288 2.0355 0 1.0529-.1404 2.0356-1.0529 2.7375-.9125.7019-2.0355.7721-3.1586.6317-.1404 0-.351 0-.4913-.0701 0 .2105-.0702.2105-.0702.2807Zm-1.1933-.4913v-.1404c-.351-.2106-.7019-.4212-.9827-.7019-1.1933-1.1933-1.6144-2.5971-1.3336-4.2115.0702-.2808-.0702-.351-.351-.351h-.84231c-.77211 0-.8423 0-.8423.7721v10.1077c0 1.4038 1.05288 2.0355 2.10581 2.1057.7019.0702 1.4038.0702 2.1759 0 2.176-.0702 3.5096-1.9654 2.8779-4.0711-.5616-1.8952-2.3866-3.0183-4.4923-2.8077-.8423.0702-1.3337.6317-1.1231 1.6144l.2106.4212c.1404-.0702.2106-.1404.351-.2808.2105-.2106.5615-.2106.8423 0 .2807.2808.2807.4913.0701.7721-.3509.4212-.7721.2106-1.1932.0702-.70194-.2106-.91251-.7721-.98271-1.474-.07019-.6318.35096-1.0529.84231-1.4039.6317-.4211 1.3336-.4211 2.1058-.4211.2105.0702.3509.0702.5615 0Zm13.4769.0702c-.4212.0702-.7019.1404-.9827.2807-.0702 0-.2106.2106-.2106.2808v4.7731c0 1.3336.8423 2.1759 2.176 2.2461.7721 0 1.474 0 2.2461-.0702 1.1231-.0702 1.9654-.7019 2.5269-1.6846.6317-1.1231.5616-2.3163.1404-3.5096-.7019-1.8952-2.2461-3.0884-4.2115-2.5269-1.0529.2808-1.4741.9827-1.2635 2.0356 0 .1403.1404.2807.2106.3509.0702-.0702.2106-.1404.2808-.2807.2105-.2106.4211-.351.7019-.2808.3509.1404.4913.4211.4913.7721 0 .2808-.1404.5615-.4211.6317-.4914.0702-.9827 0-1.3337-.3509-.6317-.6318-.7721-1.5443-.4211-2.3866.0702-.0702.0702-.1403.0702-.2807Zm-1.1231-2.8077c-.0702 0-.0702 0 0 0v1.9654c0 .2807.1404.3509.351.2105.2807-.1403.4913-.2807.7721-.4913.8423-.7019 1.0529-1.7548 1.123-2.7375.0702-.4211 0-.7721-.0701-1.1933 0-.2105-.1404-.4211-.4212-.4211l-1.474.2106c-.2106.0702-.2808.2105-.2808.4211v2.0356Zm-12.9153-1.5442h-.0702c.1404.6317.2105 1.3336.3509 1.9653.1404.5616.4914 1.0529.9827 1.4039.5616.4211.5616.3509.9827-.1404.5615-.6317.5615-1.2635.2106-1.9654-.0702-.0702-.1404-.2106-.0702-.3509.1404-.4914-.1404-.8423-.4914-1.1231-.2807-.2106-.5615-.4212-.9125-.4914-.9124-.3509-.9826-.3509-.9124.5616-.0702.0702-.0702.0702-.0702.1404Zm11.3711 2.5269c0-.351-.0702-.7721-.0702-1.1933 0-.2808 0-.5615-.0702-.8423-.0702-.351-.2106-.7721-.4914-.9827-.0701-.1404-.5615 0-.7721.1404-.2105.1404-.4913.4212-.5615.6317-.1404.4212-.2106.9125-.2106 1.4039 0 1.123.7019 1.8952 1.7548 2.1759.2808.0702.4212-.0702.4212-.3509v-.9827Zm-7.9317-2.8779c0 .0702 0 .1404.0702.1404 1.0528 1.3336 1.0528 2.5971-.1404 3.9307-.0702.0702-.0702.1404-.1404.2808 0 .0702.0702.0702.0702.1404.4211-.1404.9125-.1404 1.3336-.351 1.4039-.7019 1.5443-2.3163.9827-3.4394-.3509-.9125-1.4038-1.123-2.1759-.7019Z"/>
</svg>