<svg xmlns="http://www.w3.org/2000/svg" data-name="Layer 1" viewBox="0 0 40 40">
	<path class="bg-logo" fill="#07f" d="M0 0h40v40H0V0Z"/>
	<path fill="#fff" d="M30.3 9.7C28.6 8 25.9 8 20.5 8h-1c-5.4 0-8.1 0-9.8 1.7C8 11.4 8 14.1 8 19.5v1c0 5.4 0 8.1 1.7 9.8 1.7 1.7 4.4 1.7 9.8 1.7h1c5.4 0 8.1 0 9.8-1.7 1.7-1.7 1.7-4.4 1.7-9.8v-1c0-5.4 0-8.1-1.7-9.8Zm-5.1 15.6c-.6-1.9-2.1-3.4-4.1-3.6v3.6h-.3c-5.5 0-8.6-3.8-8.7-10h2.7c0 4.6 2.1 6.5 3.7 6.9v-6.9h2.6v3.9c1.6-.2 3.2-2 3.8-3.9h2.6c-.4 2.4-2.2 4.2-3.5 5 1.3.6 3.3 2.2 4.1 5h-2.8Z"/>
</svg>