<svg xmlns="http://www.w3.org/2000/svg" viewBox="0 0 40 40">
	<path class="bg-logo" fill="#9D235A" d="M0 0h40v40H0z"/>
	<path fill="#fff" d="M8.72752 13.8c0 .08 0 .16.08.24 0 .08 0 .08.08.16l.08.08c.08.16.08.24.16.32h-.16c.16.32.32.56.48.88h.08l.16.16v.08l.16.16.15998.16 3.44-3.44V5l-3.2 3.12-.24.32c-.87998.88-1.35998 2.72-1.43998 4V13c0 .16 0 .24.08.32v.32s0 .08.08.16c0 0 0-.08 0 0Zm22.55998-.56v.16c0 .08 0 .08-.08.16v.56c0 .08 0 .08-.08.16 0 .08 0 .08-.08.16v.16c0 .08-.08.08-.08.16s-.08.08-.08.16l-.08.08c-.16.32-.4.72-.64.96l-.08.08c-.08.16-.24.24-.32.32-.96-.8-2.24-1.28-3.52-1.28-1.44 0-2.88.56-3.92 1.6l-5.04 5.04.08-7.52 5.12-5.2c.96-.96 2.24-1.52 3.6-1.6h.24c1.36 0 2.56.56 3.44 1.44 1.12 1.12 1.52 3.04 1.44 4.48.08-.16.08-.08.08-.08ZM9.52752 16.52c-.72-.72-1.28-1.68-1.44-2.64l-.08 6.24c-.08 1.52.48 3.04 1.6 4.08l7.19998 7.2v-2.24l.08-.08 2.64-2.64-5.12-5.12c-2.48-2.4-4.87998-4.8-4.87998-4.8Zm22.31998-2.48c-.24.96-.72 1.84-1.44 2.48l-.08.08-12.88 12.88V37l12.8-12.8c1.12-1.12 1.68-2.72 1.6-4.32v-5.84Z"/>
</svg>