<svg xmlns="http://www.w3.org/2000/svg" viewBox="0 0 40 40">
	<path class="bg-logo" fill="#067941" d="M0 0h40v40H0z"/>
	<path fill="#fff" d="M12.3212 9c3.3014.00527 6.6029.00263 9.9044 0 1.4242.02369 2.9249.13427 4.1833.86617 1.0163.58183 1.6771 1.67973 1.8114 2.83283.158 1.1979.0842 2.5379-.6846 3.5279-.4238.616-1.0951 1.0056-1.7823 1.2584.6345.2212 1.29.4371 1.8166.8688 1.0557.8004 1.5164 2.172 1.5164 3.4594.0711 1.29-.0789 2.6486-.7345 3.7833-.6266 1.061-1.8087 1.6612-2.9776 1.9166-.9188.229-1.8745.2659-2.8196.2606-3.3989.0079-6.7978-.0052-10.1967.0079-.0131-.2475-.0289-.4923-.0342-.7371-.0026-6.0158.0132-12.0317-.0026-18.0448Zm5.9026 3.4489c0 1.3058-.0053 2.6116.0026 3.9175.8925-.0132 1.7876.0237 2.6775-.0158.9057-.0316 1.6271-.882 1.677-1.756.029-.5792-.0499-1.2322-.4765-1.6639-.3738-.3712-.9214-.4897-1.4322-.4871-.8135.0027-1.6296.0027-2.4484.0053Zm.0026 7.3585c-.0052 1.5164-.0079 3.0355.0026 4.5519.853-.0052 1.7061.0027 2.5591-.0025.4291-.0159.8714-.008 1.2742-.1738 1.3585-.4476 1.7376-2.3721.9293-3.4568-.4264-.6503-1.2347-.932-1.985-.9294-.9268.0159-1.8535 0-2.7802.0106ZM12 30.9623c4.4756 0 15.3725.0026 17.0864.0026V33H12v-2.0377Z"/>
</svg>