<svg xmlns="http://www.w3.org/2000/svg" viewBox="0 0 40 40">
	<path class="bg-logo" fill="#FF4107" d="M0 0h40v40H0z"/>
	<path fill="#fff" d="M30.3758 19.0166v6.9553c0 1.3601 1.0406 2.4724 2.308 2.4724 1.2675 0 2.3112-1.1134 2.3112-2.4724V13.4734c.0216-.319-.0268-.639-.1419-.9374s-.2941-.568-.5244-.7899c-.2304-.2219-.5064-.3907-.8089-.4946-.3025-.1039-.624-.1404-.9421-.1069-.2714.014-.5376.0793-.7846.1925-.3055.1301-.5829.3181-.8169.5536-2.8677 2.8658-5.7069 5.7489-8.5724 8.6161v-7.0344c0-1.36-1.0406-2.4724-2.3091-2.4724-.5276.0059-1.0356.2009-1.4318.5494-.1419.095-.274.2037-.3944.3247l-8.64829 8.6504v-7.0521c0-1.36-1.04059-2.4724-2.3101-2.4724s-2.3101 1.1124-2.3101 2.4724v12.3591c-.00129.4947.14115.9791.40999 1.3943.08885.1621.19949.3113.32882.4433.27721.2703.62123.4621.99688.5557h.00833c.42007.1029.85966.095 1.27573-.023.41607-.1181.79437-.3421 1.09785-.6502l8.66809-8.665v6.9428c.0006.3546.0743.7053.2164 1.0302.1085.3029.2818.5785.5078.8075.897.899 2.4194.846 3.3798-.1155 2.8393-2.8361 5.6495-5.702 8.4861-8.535Zm3.8606-5.5946-.0018.0257v12.5242c0 .9876-.7501 1.7121-1.5508 1.7121-.7995 0-1.5477-.7223-1.5477-1.7121v-8.7892l-2.1062 2.1035c-.6997.699-1.7405.6808-2.3055.1151-.5648-.5654-.5833-1.6034.1193-2.3059l4.671-4.6679.001-.001c.1647-.1658.3601-.2982.5752-.3898l.0095-.0041.0095-.0043c.1596-.0731.3316-.1153.5069-.1244l.0204-.001.0202-.0021c.2078-.0219.4178.0019.6154.0698.1976.0678.3779.1781.5284.323.1504.145.2673.3211.3425.516.0752.1949.1068.4039.0927.6124Z"/>
</svg>