<svg xmlns="http://www.w3.org/2000/svg" viewBox="0 0 40 40">
	<path class="bg-logo" fill="#000" d="M0 0h40v40H0z"/>
	<path fill="url(#a)" d="M4.01901 14.2405c-.05387-.0929.01316-.2093.12056-.2093h1.89565c.04969 0 .09562.0265.12055.0695l6.46503 11.1478.0009.0014c.707 1.2057 2.5391 1.2024 3.2413-.0059l1.4817-2.5497c.0249-.0429.0709-.0693.1205-.0693h1.8967c.1074 0 .1744.1164.1204.2093l-1.9605 3.3736c-1.441 2.4797-5.1084 2.4847-6.5568.0095l-.0019-.0032-6.94409-11.9737Z"/>
	<path fill="url(#b)" d="M15.5049 19.6045c.0502 0 .0966-.027.1213-.0707l1.491-2.6365c.6958-1.2303 2.4877-1.2343 3.1893-.0083l5.1677 9.2826.0045.008c1.4374 2.524 5.0989 2.5187 6.5286-.0096l3.4126-6.0345c.5476-.9682.9576-2.6199.0316-4.2458-1.4372-2.5239-5.0987-2.5185-6.5285.0097l-1.9778 3.4972c-.0525.0929.0146.2079.1214.2079h1.8839c.0502 0 .0966-.027.1212-.0707l1.5213-2.69c.6965-1.2315 2.4911-1.2342 3.1914-.0047.4904.8612.2957 1.7681-.0345 2.352l-3.4126 6.0345c-.6958 1.2303-2.4876 1.2343-3.1893.0082l-5.1677-9.2825-.0045-.0081c-1.4374-2.5239-5.0988-2.5186-6.5286.0096l-1.9475 3.4438c-.0525.0929.0146.2079.1213.2079h1.8839Z"/>
  	<linearGradient id="a" x1="33.9915" x2="10.5485" y1="22.0005" y2="14.001" gradientUnits="userSpaceOnUse">
  		<stop stop-color="#FF4D01"/>
  		<stop offset="1" stop-color="#FF8A01"/>
  	</linearGradient>
  	<linearGradient id="b" x1="33.9917" x2="10.5487" y1="21.9995" y2="14" gradientUnits="userSpaceOnUse">
  		<stop stop-color="#FF4D01"/>
  		<stop offset="1" stop-color="#FF8A01"/>
  	</linearGradient>
</svg>