<svg xmlns="http://www.w3.org/2000/svg" viewBox="0 0 40 40">
	<path class="bg-logo" fill="url(#a)" d="M0 0h40v40H0z"/>
  	<radialGradient id="a" cx="0" cy="0" r="1" gradientTransform="rotate(30.4342 -15.62416766 4.24999896) scale(46.3923)" gradientUnits="userSpaceOnUse">
  		<stop offset=".747349" stop-color="#DC1FBA"/>
  		<stop offset="1" stop-color="#9C09C8"/>
  	</radialGradient>
	<path fill="#fff" d="M24.8626 16.6c.9365-.6143 2.0339-.9714 3.2483-.9714 3.2484 0 5.8382 2.4857 5.8382 5.6714S31.3008 27 28.0963 27c-3.2044 0-5.8235-2.5286-5.8235-5.6715V11h2.5898v5.6Zm0 4.7143c0 1.7857 1.4779 3.1571 3.2337 3.1571 1.7851 0 3.263-1.4285 3.263-3.1571 0-1.7286-1.3901-3.1429-3.2484-3.1429-1.8582 0-3.2483 1.3571-3.2483 3.1429Zm-10.4542-5.2858 2.3704 6.0286 2.3851-6.0286h2.8093l-4.1555 10.6h-1.8144l-2.5167-6.3143-2.5021 6.3143H9.17015L5 16.0285h2.82399l2.38501 6.0286 2.3851-6.0286h1.8143Z"/>
</svg>