<svg xmlns="http://www.w3.org/2000/svg" viewBox="0 0 40 40">
	<path class="bg-logo" fill="#006CB4" d="M0 0h40v40H0z"/>
	<path fill="#fff" d="M19.9332 7c2.1848 0 4.2627.48545 6.1282 1.35383.2925.128.5867.28119.8784.43452L25.661 9.88712l-1.9173-1.91608-3.3032 2.80996-1.9458-2.01851-6.0739 5.23731 3.8891 4.1131-1.5187 1.277 3.8373 4.1131-1.5187 1.2765 5.4888 5.8503 3.248-2.8613 2.8259 3.0664c-.56.4088-1.1727.8184-1.838 1.1755-2.0252 1.0983-4.3705 1.7358-6.8737 1.7358-7.7004 0-13.96071-6.0023-13.96071-13.3846C5.97334 13.0292 12.2336 7 19.9332 7Zm-2.5576 12.5435 3.3299-2.8614 2.9847 3.1933-3.3308 2.8611-2.9838-3.193Zm2.3712 5.5183 3.304-2.8868 3.0106 3.193-3.3307 2.8615-2.9839-3.1677ZM15.006 14.1023l3.3291-2.8613 2.9839 3.1932-3.3308 2.8612-2.9822-3.1931Zm6.0998-1.5333 2.4774-2.1458 2.2383 2.376-2.4773 2.1711-2.2384-2.4013Zm4.4223 9.8355 2.4774-2.1459 2.2383 2.4007-2.4782 2.1473-2.2375-2.4021Zm2.1849 4.8288 2.4782-2.1464 2.2366 2.3759-2.4773 2.1708-2.2375-2.4003Zm1.0121-11.0366 1.6516-1.4308 1.492 1.5845-1.6516 1.4302-1.492-1.5839Zm-2.1313-4.7262 1.6516-1.4558 1.4928 1.6092-1.6525 1.4306-1.4919-1.584Zm4.2359 9.4527 1.6516-1.4306L34 21.0765l-1.6775 1.4303-1.4928-1.5836Zm-7.4329-3.5511 2.4782-2.1459 2.2375 2.3754-2.4774 2.1463-2.2383-2.3758Z"/>
</svg>