<svg xmlns="http://www.w3.org/2000/svg" viewBox="0 0 40 40">
	<path class="bg-logo" fill="#0062AC" d="M0 0h40v40H0z"/>
	<circle fill="#fff" cx="20" cy="20" r="14"/>
	<path fill="#1273B8" d="M8.66697 27.3543c1.69933 2.6115 4.27693 4.5982 7.31373 5.5431 1.269.395 2.6185.6076 4.0173.6076 5.1006 0 9.5411-2.8268 11.8402-6.9993.0721-.134.1416-.2695.2086-.4065-3.2054-.8436-7.4453-1.357-12.0951-1.357-4.6053 0-8.8081.5042-12.00248 1.3335.21536.44.45532.8672.71775 1.2786Z"/>
	<path fill="#D9D9D9" d="M32.0502 26.1075c-.0091.0178-.0182.0357-.0274.0535-3.2236-.865-7.4495-1.3892-12.0773-1.3892-4.5835 0-8.7727.5149-11.9846 1.3642-.21251-.4158-.40408-.8441-.57334-1.2836-.56599-1.4694-.88244-3.063-.89781-4.7279.0681-7.5327 6.07395-13.61982 13.47855-13.63622h.03c.9327 0 1.8434.09485 2.7227.27455 6.1164 1.27505 10.7263 6.76677 10.7858 13.36167-.0155 1.6892-.3411 3.3048-.9228 4.7921h.0001c-.1591.4072-.3373.8044-.5338 1.1909h-.0001Z"/>
	<path fill="url(#a)" d="M32.0502 26.1075c-.0091.0178-.0182.0357-.0274.0535-3.2236-.865-7.4495-1.3892-12.0773-1.3892-4.5835 0-8.7727.5149-11.9846 1.3642-.21251-.4158-.40408-.8441-.57334-1.2836-.56599-1.4694-.88244-3.063-.89781-4.7279.0681-7.5327 6.07395-13.61982 13.47855-13.63622h.03c.9327 0 1.8434.09485 2.7227.27455 6.1164 1.27505 10.7263 6.76677 10.7858 13.36167-.0155 1.6892-.3411 3.3048-.9228 4.7921h.0001c-.1591.4072-.3373.8044-.5338 1.1909h-.0001Z"/>
  	<radialGradient id="a" cx="0" cy="0" r="1" gradientTransform="matrix(0 -33.9557 34.3325 0 19.9983 33.5068)" gradientUnits="userSpaceOnUse">
  		<stop offset=".42429" stop-color="#fff"/>
  		<stop offset=".500886" stop-color="#09ABE0"/>
  		<stop offset=".587553" stop-color="#007CC2"/>
  	</radialGradient>
</svg>