<svg xmlns="http://www.w3.org/2000/svg" viewBox="0 0 40 40">
	<path class="bg-logo" fill="#3250D5" d="M0 0h40v40H0z"/>
	<path fill="#fff" d="m12.133 30.2603-.1187.0041c-1.1419.0351-2.07452.017-2.70064-.0004l-.12511-.0037H12.133ZM9.17465 30.26l.0139.0003-.74875.0002c-.01915-.0255.24545-.0148.73485-.0005ZM34 13.9519v16.3086l-21.867-.0002.1485-.005C18.9617 30.0067 32.1802 27.8967 34 13.9519ZM9.96873 20.5697c.28937.7962 1.37697 1.4923 2.98537 1.9999.5069.1602 1.0683.3031 1.6732.426.1416.306.3067.6071.4945.9012.866 1.357 2.2236 2.5717 4.111 3.4619-4.901-.1885-8.8704-3.1173-9.26407-6.789Zm20.06257 0c-.3937 3.6711-4.3631 6.6005-9.2641 6.789 1.8867-.8902 3.245-2.1049 4.111-3.4619.1878-.2941.3522-.5952.4945-.9012.6049-.1229 1.1656-.2658 1.6732-.426 1.6084-.5076 2.6967-1.2044 2.9854-1.9999Zm-14.8218 2.5357c.7893.1375 1.6429.2417 2.542.308.3266 1.2286.8404 2.406 1.551 3.455-1.7313-.8432-2.9812-1.9716-3.7816-3.2264-.1125-.1768-.2161-.3556-.3114-.5366Zm9.581 0c-.0953.181-.1989.3605-.3114.5366-.8004 1.2548-2.0504 2.3832-3.7816 3.2264.7106-1.0483 1.2244-2.2264 1.551-3.455.8991-.0663 1.7527-.1705 2.542-.308Zm-3.0399.3405c-.3078 1.1025-.7723 2.1575-1.4026 3.1042l-.087.1284v-3.1843c.5069-.0041 1.0041-.0207 1.4896-.0483Zm-3.5012 0c.4855.0276.9827.0442 1.4896.0483v3.1836c-.6747-.9792-1.1678-2.08-1.4896-3.2319Zm9.6269-13.4221-.1578.0053c-6.6801.2486-19.89856 2.3586-21.71781 16.3034L6 10.0239l21.8763-.0001ZM19.739 20.3597v2.6636c-.5504-.0049-1.0898-.0242-1.6132-.0567-.2024-.8556-.3122-1.7333-.3343-2.6069h1.9475Zm2.4695 0c-.0221.8736-.1319 1.7513-.3343 2.6069-.5241.0325-1.0628.0518-1.6132.0567v-2.6636h1.9475Zm-4.89 0c.0207.8605.125 1.7258.3149 2.5724-.9537-.0746-1.8521-.194-2.6718-.3501-.3073-.7244-.48-1.4744-.5256-2.2223h2.8825Zm8.2448 0c-.0449.7479-.2176 1.4979-.5249 2.2223-.8197.1561-1.7188.2755-2.6718.3501.1906-.8466.2942-1.7119.3149-2.5724h2.8818Zm-11.6017 0c.0394.7079.1865 1.4171.4448 2.1077-.4696-.1036-.9088-.2196-1.3135-.3474-1.5214-.4799-2.5206-1.098-2.7022-1.7603h3.5709Zm15.6477 0c-.1816.6623-1.1815 1.2804-2.7029 1.7603-.404.1278-.8432.2438-1.3128.3474.2583-.6906.4047-1.3998.4448-2.1077h3.5709Zm-9.3483-3.0979c.567.0042 1.1222.0242 1.6616.058.1843.837.2824 1.7154.29 2.6049H20.261v-2.6629Zm2.1512.0932c.993.0801 1.926.2079 2.7706.375.2265.6257.3563 1.2783.386 1.9398.0041.0843.0062.1699.0062.2549h-2.8894c-.0069-.875-.0994-1.7403-.2734-2.5697Zm3.3085.4897c.422.0966.819.2037 1.1857.3197 1.5214.4799 2.5213 1.098 2.7029 1.7603h-3.5606c-.0007-.0919-.0027-.1837-.0069-.2756-.0276-.6125-.136-1.2181-.3211-1.8044Zm-5.9817-.5829v2.6629h-1.9516c.0069-.8895.105-1.7679.29-2.6049.5394-.0338 1.0946-.0538 1.6616-.058Zm-2.1519.0932c-.174.8294-.2658 1.6947-.2727 2.5697H14.425c0-.085.0021-.1706.0062-.2549.0297-.6615.1602-1.3141.386-1.9398.8453-.1671 1.7776-.2955 2.7699-.375Zm-3.3078.4897c-.1851.5863-.2935 1.1919-.3211 1.8044-.0042.0919-.0062.1837-.0069.2756h-3.5606c.1816-.6623 1.1815-1.2804 2.7022-1.7603.3674-.116.7644-.2231 1.1864-.3197Zm6.6316-4.9121c4.8347.2396 8.7309 3.147 9.1204 6.7828-.2887-.7962-1.377-1.493-2.9854-2.0006-.462-.1457-.9695-.2776-1.513-.3929-.2431-.6008-.5697-1.1754-.9772-1.7085-.8632-1.1291-2.089-2.0717-3.6448-2.6808Zm-1.8211 0c-1.5572.6091-2.7823 1.5517-3.6455 2.6808-.4075.5331-.7341 1.1077-.9772 1.7085-.5441.1153-1.051.2472-1.513.3929-1.6084.5076-2.6967 1.2044-2.98537 2.0006.38947-3.6358 4.28567-6.5432 9.12107-6.7828Zm1.5952.4192c1.4986.5759 2.6739 1.473 3.4957 2.5482.3156.413.5794.8529.79 1.3107-.8238-.1505-1.7209-.2652-2.669-.3363-.3329-1.3176-.877-2.5289-1.6167-3.5226Zm-1.3701 0c-.7402.9937-1.2837 2.205-1.6166 3.5226-.9481.0711-1.8452.1858-2.6691.3363.2107-.4578.4738-.8977.7901-1.3107.8217-1.0752 1.9971-1.9723 3.4956-2.5482Zm.9461.2161c.6989.9192 1.2182 2.0434 1.5455 3.2734-.5034-.0297-1.0192-.047-1.5455-.0511v-3.2223Zm-.522.0007v3.2216c-.5263.0041-1.0421.0214-1.5455.0511.3266-1.23.8466-2.3535 1.5455-3.2727Zm11.8212-3.5447c.0191.0255-.2454.0148-.7349.0004l-.0147-.0005.7496.0001Zm-.8739-.0035.1243.0034h-2.9343l.1094-.0038c.4486-.0138.8649-.0194 1.243-.02l.2024.0001c.4964.0015.9198.011 1.2552.0203Z"/>
</svg>