<svg xmlns="http://www.w3.org/2000/svg" viewBox="0 0 40 40">
	<path class="bg-logo" fill="#8B3FFD" d="M0 0h40v40H0z"/>
	<path fill="#fff" d="M24.3183 9c-5.9218 0-10.6798 4.7905-10.6798 10.6453 0 5.9031 4.805 10.6453 10.6786 10.6453C30.1906 30.2906 35 25.5001 35 19.6453 35 13.7905 30.1919 9 24.3183 9Zm0 14.6131c-2.1842 0-3.9797-1.7904-3.9797-3.9678 0-2.1773 1.7955-3.9678 3.9797-3.9678 2.1843 0 3.9803 1.7905 3.9803 3.9678-.0489 2.1774-1.796 3.9678-3.9803 3.9678ZM13.6385 12.0929v15.4842H9.85451L5 12.0929h8.6385Z"/>
</svg>