<svg xmlns="http://www.w3.org/2000/svg" viewBox="0 0 40 40">
	<path class="bg-logo" fill="#2D3540" d="M0 0h40v40H0z"/>
	<path fill="#80F3AE" d="M26.7709 12.496c-1.9375-1.413-7.0395-.4631-7.7915 2.5312-.9163 3.6435 3.4178 6.9208 6.8119 4.9655 2.4322-1.4012 2.9131-6.0816.9796-7.4967Z"/>
	<path fill="#65D988" d="M28.8251 14.735c-.1999-1.1439-.6649-2.0978-1.3814-2.7153-1.4704-1.2646-4.0887-1.512-6.5368-.8173-2.4461.6946-4.4489 2.2482-4.8546 4.2688-.4868 2.4184.1702 4.5736 1.5912 6.0401 1.419 1.4645 3.6474 2.2877 6.3943 1.9355 2.266-.38 3.9086-2.5055 4.5775-5.0268.3305-1.2468.4077-2.5431.2098-3.685Zm.8075 3.9541c-.7224 2.7173-2.5787 5.3237-5.4325 5.7947l-.0079.002-.0099.002c-3.0379.3918-5.6126-.5106-7.2928-2.2443-1.6803-1.7356-2.4165-4.251-1.8683-6.9801.5205-2.5807 2.9844-4.3302 5.5988-5.0723 2.6163-.74217 5.6601-.56009 7.5105 1.033.9519.8213 1.5021 2.0246 1.7297 3.3308.2276 1.3101.1365 2.7608-.2276 4.1342Z"/>
	<path fill="#4FC694" d="M30.2933 20.7804c1.227-3.8116.8471-7.9478-1.7158-10.2257-1.8841-1.6743-5.3672-2.1374-8.7969-1.231-3.4059.9025-6.5803 3.1131-7.8687 6.5507-1.0647 2.8379-.1682 6.1746 1.981 8.7038 2.1453 2.5214 5.4721 4.16 9.1452 3.6494 3.2932-.4552 6.0282-3.6355 7.2552-7.4472Zm1.0014.3206c-1.2863 3.9938-4.245 7.6313-8.1121 8.1696-4.0867.566-7.7539-1.2646-10.0892-4.0116-2.3294-2.739-3.39804-6.4695-2.1671-9.7547 1.4447-3.8453 4.9556-6.23601 8.5852-7.19585 3.6078-.9539 7.5124-.54028 9.7626 1.46054 3.0121 2.67761 3.305 7.33831 2.0206 11.33201Z"/>
	<path fill="#48A992" d="M32.7514 14.8195c-.3681-2.3412-1.2488-4.2807-2.6104-5.46611-2.931-2.551-8.025-2.89139-12.7629-1.46845C12.6442 9.3059 8.52779 12.411 7.45316 16.4265c-1.21514 4.5459.43143 9.0502 3.52864 12.2523 3.1032 3.2041 7.6055 5.0446 12.0129 4.3065 4.7873-.8016 8.029-5.387 9.3292-10.5801.6452-2.5767.7956-5.2524.4275-7.5857Zm.5917 7.841c-1.3418 5.3593-4.7774 10.4574-10.1743 11.3618-4.8051.8055-9.6439-1.2053-12.941-4.6132-3.30305-3.4099-5.11784-8.2843-3.78989-13.2537 1.2092-4.5202 5.73729-7.80539 10.63739-9.2778 4.8962-1.47044 10.4316-1.21118 13.7564 1.68219 1.6129 1.40513 2.5668 3.61571 2.9587 6.09551.3918 2.4896.2296 5.3078-.4473 8.0052Z"/>
</svg>