<svg xmlns="http://www.w3.org/2000/svg" viewBox="0 0 40 40">
	<path class="bg-logo" fill="#006D78" d="M0 0h40v40H0z"/>
	<path fill="#fff" d="M19.9518 5C11.7524 5 5 11.7524 5 20.0482 5 28.2476 11.7524 35 19.9518 35 28.2476 35 35 28.2476 35 20.0482 35 11.7524 28.2476 5 19.9518 5Zm0 27.6849c-5.402 0-9.9357-3.3762-11.86498-8.1029l2.31508-.0965c1.7364 3.5692 5.3055 5.9807 9.4534 5.9807 4.4373 0 8.3923-2.7974 9.8392-6.8488l-4.7267-3.6656 4.7267-3.6656c-1.4469-3.955-5.4019-6.8489-9.7427-6.8489-4.0515 0-7.5241 2.3151-9.2605 5.5949l-2.31509-.0965c1.92929-4.5338 6.46299-7.62059 11.57559-7.62059 5.8842 0 10.7074 3.95499 12.2508 9.35689l-4.3409 3.2798 4.4373 3.3762h-.0964c-1.5434 5.3054-6.463 9.3569-12.2508 9.3569Zm3.5691-16.881h2.7974l-4.7267 4.1479 5.4984 4.1479h-3.0868l-4.7267-3.4727v3.4727l-2.0257-.0965v-8.2958h2.0257v3.6656l4.2444-3.5691Zm.1929-.4824c-.9646-.8681-2.3151-1.3504-3.762-1.3504-1.7364 0-3.2798.6752-4.4373 1.8328-.9647 1.1575-1.6399 2.7009-1.6399 4.2443 0 3.0868 2.3151 5.6913 5.4019 5.9807.2894.0965.4823.0965.6753.0965 1.4469 0 2.7009-.4823 3.762-1.254h2.9904c-1.5434 2.1222-3.955 3.4727-6.7524 3.4727-4.5338 0-8.1994-3.6656-8.1994-8.1994 0-2.1222.7717-3.955 2.0257-5.4984 1.3505-1.5434 3.2798-2.508 5.4984-2.7974h.6753c2.7974 0 5.209 1.3505 6.7524 3.5691h-2.9904v-.0965Z"/>
</svg>