<svg xmlns="http://www.w3.org/2000/svg" viewBox="0 0 40 40">
	<path class="bg-logo" fill="red" d="M0 0h40v40H0z"/>
	<path fill="#fff" d="M8 8v24h24V8H8Zm7.0572 6.1511h3.4326v-.7689h.7223l.8154-.8155.8155.8155h.7223v.7689h3.4323v1.4828h-9.9405v-1.4828h.0001Zm-.961 1.9771h11.8627v.4943H14.0962v-.4943Zm1.9496 11.3684h-1.4829v-2.142c0-.4549-.3319-.8237-.7413-.8237s-.7414.3688-.7414.8237v2.1419h-1.4828V23.048h4.4484v4.4486Zm0-4.9429h-4.4486v-.4943h4.4484v.4943h.0002Zm7.4691 4.9429h-.4943v-4.9702c0-1.653-1.3401-2.9932-2.9931-2.9932s-2.9931 1.3402-2.9931 2.9932v4.9702h-.4943v-4.9702c0-1.926 1.5614-3.4875 3.4874-3.4875 1.926 0 3.4874 1.5615 3.4874 3.4875v4.9702Zm4.9428 0h-1.4829v-2.142c0-.4549-.3319-.8237-.7413-.8237s-.7414.3688-.7414.8237v2.1419h-1.4829V23.048h4.4485v4.4486Zm0-4.9429h-4.4485v-.4943h4.4485v.4943Zm0-.9884h-4.6156c-.2356-1.6797-1.8475-2.9794-3.801-2.9794-1.9535 0-3.5652 1.2997-3.8008 2.9794h-4.6429v-.4943h3.4874v-3.9544h9.8855v3.9542h3.4874v.4945Z"/>
</svg>