<svg xmlns="http://www.w3.org/2000/svg" viewBox="0 0 40 40">
	<path class="bg-logo" fill="#321F6E" d="M0 0h40v40H0z"/>
	<path fill="#fff" d="m14.96 25.48 1.2-3.68H5.92c-.56 0-1.04.24-1.36.64-.32.4-.56.88-.56 1.36 0 .56.24 1.04.56 1.44.4.4.88.64 1.36.64h8.8c.08-.16.16-.32.24-.4Zm2.88-9.04h-10c-.56 0-1.04.24-1.36.64-.4.4-.56.88-.56 1.44 0 .56.24 1.04.56 1.44.4.4.88.64 1.36.64h8.72c0-.16 1.28-4.16 1.28-4.16ZM19.6 11H9.76c-.56 0-1.04.24-1.36.64-.4.4-.56.88-.56 1.44 0 .56.24 1.04.56 1.44.4.4.88.64 1.36.64h8.56L19.6 11c0 .08 0 0 0 0Zm4.64 6.16h9.84c.56 0 1.04-.24 1.36-.64.4-.4.56-.88.56-1.44 0-.56-.24-1.04-.56-1.44-.4-.4-.88-.64-1.36-.64h-8.56l-1.28 4.16c0-.08 0 0 0 0Zm8.8 5.36H22.32v-.08l1.28-4h4.8c.64 0 1.28.16 1.92.4.64.24 1.12.64 1.6 1.12.72.64 1.12 1.6 1.12 2.56Zm-2.32 4.72c-.72.4-1.52.64-2.32.64h-9.04v-.08l1.28-4h12c-.08.72-.24 1.36-.56 1.92-.32.64-.8 1.12-1.36 1.52Z"/>
	<path fill="#328455" d="m16.8001 13.3983-4.72 14.72h4.72l4.24-14.72h-4.24Zm6-2.16-4.64 14.72h4.72l4.24-14.72h-4.32Z"/>
</svg>