<svg xmlns="http://www.w3.org/2000/svg" viewBox="0 0 40 40">
	<path class="bg-logo" fill="#008FB4" d="M0 0h40v40H0z"/>
	<g fill="#fff">
		<path d="m12 34.9985 15.0256-.0204-.0102-14.8726C23.8838 26.0423 18.0184 29.8981 12 31.3772c.0204 1.1221 0 3.6213 0 3.6213Z"/>
		<path d="M16.8044 27.5129c5.6716-2.8664 8.4054-8.0993 8.4054-8.0993s-.0204-1.724-.0204-1.7546c-3.1214-1.1017-5.9572-2.7133-8.3748-5.1207.0102 4.0803-.0102 14.9746-.0102 14.9746ZM17.6103 5s0 4.5495-.0102 5.6818c1.4996 1.3873 2.2442 2.0299 3.7947 3.0194l.0102-6.10003C19.6403 6.63211 18.9568 6.12207 17.6103 5Z"/>
	</g>
</svg>