<svg xmlns="http://www.w3.org/2000/svg" viewBox="0 0 40 40">
	<path class="bg-logo" fill="#E2251D" d="M0 0h40v40H0z"/>
	<path fill="#fff" d="M16.7593 5.90223c0 .82704.0752.97741.4511 1.27816.3007.22555.4511.45111.4511 1.0526 0 .60148-.0752.75185-.2255.67667-.2256-.07519-.2256.07518-.2256.82704 0 .9022 0 .9022.9022 1.7293.5263.4511.9774.7518 1.1278.7518.2256 0 .2256-1.8044 0-1.9548-.2255-.1504-.2255-1.42853 0-1.42853.0752 0 .2256.07519.3008.15037.2255.37593.4511-.07518.4511-.90222v-.90223l-1.2782-1.0526c-1.9548-1.35335-1.9548-1.35335-1.9548-.22556Zm5.4134.30074-1.3534 1.20297v2.63146c0 1.4286.0752 2.6315.1504 2.7067.0752.0752.7518-.4511 1.5037-1.0526l1.3533-1.1278v-.97737c0-.67667-.0751-.90223-.2255-.90223s-.3008.07519-.3759.15037c-.0752.07519-.3008.30075-.6015.5263l-.5263.37593v-.75186c0-.67667.0752-.75185.827-1.35334.8271-.67667.8271-.67667.8271-1.65409 0-.5263-.0752-.97741-.1504-.97741 0 0-.6767.5263-1.4285 1.20297Zm-9.0223 3.1578c-.2256.22556-.1504 4.66153.0752 5.03743.1503.2256 1.4285 1.3534 2.857 2.5563 1.4285 1.203 2.6315 2.3308 2.6315 2.3308 0 .1504-1.1278 1.0526-1.2781 1.0526-.0752 0-.9775-.7519-2.0301-1.6541-1.2029-1.0526-2.03-1.5789-2.1803-1.5037C13 17.2553 13 17.6312 13 19.2853v1.9548l.827.7519.8271.827-.7519.6767-.7518.6767-.0752 2.6315c-.0752 1.7292 0 2.7067.1504 3.0074.3007.5263 6.0148 5.263 6.2404 5.1878.3759-.0752.4511-4.5111.1503-5.1126-.1503-.2256-1.4285-1.4285-2.857-2.6315-1.5037-1.203-2.7067-2.3308-2.7067-2.3308 0-.0752.3007-.3759.7519-.7518l.7518-.6015 1.8045 1.5037c.9774.827 1.8796 1.5037 2.03 1.5037.2255 0 .3007-.2255.3007-2.1052v-2.1052l-.6766-.6015-.6767-.6015.5263-.4511c.3007-.2255.6015-.6767.6767-1.0526.2255-.827.2255-4.7367-.0752-5.263-.2256-.4511-5.8645-5.26298-6.1653-5.26298 0 .07518-.0751.15037-.1503.22555Zm10.9019 2.33073c-1.5789 1.3534-3.0074 2.6315-3.0826 2.8571-.0752.2255-.1504 1.4285-.1504 2.6315 0 2.03 0 2.1804.3008 2.2556.3007.0751.3007.2255.3007 1.1277 0 .6767-.0752 1.2782-.3007 1.7293-.3008.5263-.3008.9774-.3008 2.1804 0 1.7293.0752 2.1052.4511 2.1052.376 0 .3008 2.6315-.0752 3.0826-.2255.2256-.3007.6767-.3759 2.406-.0752 2.3307 0 3.0074.3759 2.857.4512-.0752 5.9397-4.7367 6.1653-5.1878.1503-.2255.1503-2.03.1503-5.1126 0-4.2856.0001-4.7367-.3007-4.7367-.2256 0-.2256 0 0-.3008.2256-.3007.3007-.9022.3007-5.4133 0-4.73674.0001-5.11267-.3007-5.11267-.0752.15037-1.5789 1.27817-3.1578 2.63147Zm2.4059 4.5112c.2256.9022-.1503 1.5037-1.654 2.7818-.7519.6767-1.6541 1.3534-1.8797 1.5789l-.4511.3008v-2.1804l1.6541-1.4285c.9022-.8271 1.8044-1.4286 1.9548-1.4286.1504 0 .3008.1504.3759.376Zm.0752 7.5937c0 1.203-.3007 1.5789-2.03 3.0827-.9022.7518-1.7293 1.4285-1.8796 1.4285-.0752 0-.1504-.5263-.1504-1.2782v-1.3533l1.8045-1.5037c1.9548-1.5789 2.2555-1.6541 2.2555-.376Z"/>
</svg>