<svg version="1.1" id="Layer_1" xmlns="http://www.w3.org/2000/svg" x="0" y="0" viewBox="0 0 200 50" xml:space="preserve">
  <defs/>
  <style>
    .st0{fill:#1a1717}.st1{fill:#7a66a8}
  </style>
  <path class="st0" d="M40.3 21.4c-2.5 0-3.9 1.2-4.4 2 .1-1.2.7-2.4 2.9-2.8l6.6-1.3-.5-2.6-6.4 1.2c-4.5.8-5 4.6-5 8.1 0 4.6 2.3 7.1 6.2 7.1 3.6 0 6.3-2.7 6.3-6-.1-3.2-2.7-5.7-5.7-5.7zm-.5 8.8c-1.6 0-2.9-1.4-2.9-3 0-1.7 1.1-3.1 2.8-3.1 1.6 0 2.9 1.4 2.9 3.1 0 1.6-1.2 3-2.8 3zM54.5 20.9c-2 0-3.4.4-4.6.9l.8 2.6c1.1-.4 2-.6 3.3-.6 1.6 0 2.6.8 2.6 2.2v.2c-.8-.3-1.7-.5-2.9-.5-2.8 0-4.8 1.2-4.8 3.7 0 2.4 1.8 3.6 4.1 3.6 1.6 0 2.8-.5 3.6-1.5v1.3h3.3V26c0-1.5-.4-2.8-1.3-3.7-.9-.9-2.3-1.4-4.1-1.4zm2 7.7c0 1.2-1 2.1-2.7 2-1.1 0-1.8-.5-1.8-1.5 0-1.1.9-1.6 2.4-1.6.8 0 1.6.2 2.2.5v.6zM71.3 25.5h-4.2V21h-3.3v11.8h3.3v-4.5h4.2v4.5h3.4V21h-3.4zM86 25.8l4.3-4.8h-3.9l-4.3 4.8V21h-3.3v11.8h3.3V30l1.6-1.7 3.2 4.5h4z"/>
  <g>
    <path class="st1" d="M118 16.6c-1 0-1.6.5-1.9 1 .1-.9.5-1.4 1.4-1.6l2.5-.6-.1-.5-2.6.6c-1.6.4-1.7 1.8-1.7 3.3 0 1.6 1 2.6 2.3 2.6 1.4 0 2.4-1.1 2.4-2.4s-1.1-2.4-2.3-2.4zm-.1 4.1c-.9 0-1.6-.8-1.6-1.7 0-1 .7-1.7 1.6-1.7.9 0 1.6.8 1.6 1.7.1.9-.6 1.7-1.6 1.7zM123.6 16.6c-.6 0-1.1.1-1.6.4l.2.5c.4-.3.8-.4 1.4-.4.9 0 1.4.5 1.4 1.3v.2c-.4-.1-.8-.2-1.4-.2-1.1 0-1.9.5-1.9 1.5 0 .9.8 1.4 1.6 1.5.8 0 1.4-.5 1.6-.8v.8h.6v-2.8c0-.6-.2-1.1-.5-1.4-.2-.4-.8-.6-1.4-.6zm1.4 2.9c0 .7-.7 1.2-1.5 1.2-.6 0-1.2-.4-1.2-.9s.5-.9 1.4-.9c.5 0 1 .1 1.4.2v.4zM130.8 18.6h-2.7v-2h-.6v4.6h.6v-2h2.7v2h.7v-4.6h-.7zM137.4 16.6h-.8l-2.4 2.7v-2.7h-.8v4.6h.8v-1.1l.9-1 1.6 2.1h.8l-2-2.6zM117.4 28.4c-.6 0-1.1.1-1.6.4l.2.5c.4-.3.8-.4 1.4-.4.9 0 1.4.5 1.4 1.3v.2c-.4-.1-.8-.2-1.4-.2-1.1 0-1.9.5-1.9 1.5 0 .9.9 1.5 1.6 1.5.8 0 1.4-.5 1.6-.8v.8h.6v-2.8c0-.6-.2-1.1-.5-1.4-.2-.4-.8-.6-1.4-.6zm1.4 2.9c0 .7-.6 1.2-1.5 1.2-.6 0-1.2-.4-1.2-.9s.5-.9 1.4-.9c.5 0 1 .1 1.4.2v.4zM122 28.8c0 3.4-.5 3.6-1 3.6-.1 0-.3-.1-.4-.1l-.1.5c.1.1.4.1.5.2.9 0 1.5-.4 1.5-3.9V29h1.9v4h.6v-4.6h-3v.4zM129.1 28.3c-1.3 0-2.2 1-2.2 2.4 0 1.5 1 2.5 2.3 2.5.9 0 1.5-.3 1.9-.8l-.5-.4c-.4.4-.8.6-1.5.6-.8 0-1.5-.5-1.6-1.5h3.6v-.3c0-1.4-.7-2.5-2-2.5zm-1.5 2.1c.1-.9.6-1.5 1.5-1.5s1.4.7 1.5 1.5h-3zM136 28.4l-2.5 2.6v-2.6h-.7v4.5h.7v-1.1l.9-1 1.7 2.1h.8l-1.9-2.5 1.9-2zM140.3 28.9c.5 0 1 .3 1.4.6l.5-.5c-.5-.5-1-.8-1.8-.8-1.4 0-2.4 1.1-2.4 2.4 0 1.4 1 2.5 2.4 2.5.8 0 1.4-.4 1.8-.9l-.5-.5c-.4.5-.8.7-1.4.7-.9 0-1.6-.7-1.6-1.7s.7-1.8 1.6-1.8zM145.4 28.4c-.6 0-1.1.1-1.6.4l.2.5c.4-.3.8-.4 1.4-.4.9 0 1.4.5 1.4 1.3v.2c-.4-.1-.8-.2-1.4-.2-1.1 0-1.9.5-1.9 1.5 0 .9.8 1.5 1.6 1.5s1.4-.5 1.6-.8v.8h.6v-2.8c0-.6-.2-1.1-.5-1.4-.2-.4-.7-.6-1.4-.6zm1.3 2.9c0 .7-.6 1.2-1.5 1.2-.6 0-1.2-.4-1.2-.9s.5-.9 1.4-.9c.5 0 1 .1 1.4.2v.4zM152.6 30.4H150v-2h-.7v4.5h.7V31h2.6v1.9h.7v-4.5h-.7zM158.9 28.4h-3.3v.8c0 1.5-.3 2.6-.6 3.2h-.3V34h.5l.1-1.1h3.6V34h.5l.1-1.7h-.7v-3.9zm-.6 4h-2.5c.4-.6.5-1.6.5-2.7V29h1.9v3.4zM163.4 28.3c-.8 0-1.4.5-1.7 1v-.9h-.7v5.9h.6V32c.4.5.9 1 1.7 1 1.1 0 2.2-.9 2.2-2.4.1-1.5-1-2.3-2.1-2.3zm-.1 4.1c-.8 0-1.6-.6-1.6-1.7 0-1 .8-1.7 1.6-1.7.9 0 1.6.6 1.6 1.7s-.7 1.8-1.6 1.7zM169.4 28.3c-1.4 0-2.4 1.1-2.4 2.4 0 1.4 1 2.5 2.4 2.4 1.4 0 2.4-1.1 2.4-2.4s-1-2.4-2.4-2.4zm-.1 4.1c-.9 0-1.6-.7-1.6-1.7s.6-1.8 1.6-1.8 1.7.8 1.7 1.8c0 .9-.6 1.8-1.7 1.7zM176.3 30.6c.4-.2.7-.5.7-1.1 0-.6-.5-1.1-1.5-1.1h-2.2V33h2.3c1 0 1.6-.5 1.6-1.3.1-.7-.3-1-.9-1.1zM174 29h1.5c.6 0 .9.3.9.6 0 .5-.4.7-.9.7H174V29zm1.7 3.4h-1.5v-1.5h1.5c.7 0 1.1.3 1.1.7 0 .5-.5.8-1.1.8zM181.1 28.9c.5 0 1 .3 1.4.6l.5-.5c-.5-.5-1-.8-1.8-.8-1.4 0-2.4 1.1-2.4 2.4 0 1.4 1 2.5 2.4 2.5.8 0 1.4-.4 1.8-.9l-.5-.5c-.4.5-.8.7-1.4.7-.9 0-1.6-.7-1.6-1.7s.7-1.8 1.6-1.8zM188.5 28.4h-.8l-2.5 2.6v-2.6h-.7v4.5h.7v-1.1l1-1 1.6 2.1h.8l-2-2.5zM190.7 32v-3.6h-.7v4.5h.6l2.8-3.5v3.5h.7v-4.5h-.7zM198 27.7c.7 0 1.2-.5 1.3-1.1l-.5-.1c-.2.4-.4.6-.8.6s-.7-.3-.8-.6l-.5.1c.2.7.7 1.1 1.3 1.1zM199.4 28.4l-2.8 3.6v-3.6h-.6v4.5h.6l2.8-3.6v3.6h.6v-4.5zM5.6 20.9c-2 0-3.4.4-4.6.9l.9 2.6c1.1-.4 2-.6 3.3-.6 1.6 0 2.6.8 2.6 2.2v.2c-.8-.3-1.7-.5-2.9-.5C2 25.6 0 26.8 0 29.4 0 31.7 1.8 33 4.1 33c1.7 0 2.8-.5 3.6-1.5v1.3h3.2V26c0-1.5-.4-2.8-1.3-3.7-.8-.9-2.1-1.4-4-1.4zm2.1 7.7c0 1.2-1 2.1-2.7 2-1.1 0-1.8-.5-1.8-1.5 0-1.1.9-1.6 2.4-1.6.8 0 1.6.2 2.2.5v.6zM15.8 17.2l-1.5 2.2c3 2.1 4.3 4.1 4.3 7.2 0 3.1-1.3 5.1-4.3 7.2l1.5 2.4c4.1-2.3 6.2-5.3 6.2-9.5 0-4.3-2.1-7.3-6.2-9.5zM103.3 13.3h.7v23.5h-.7z"/>
  </g>
</svg>
