<svg width="200" height="50" viewBox="0 0 200 50" fill="none" xmlns="http://www.w3.org/2000/svg">
<path fill-rule="evenodd" clip-rule="evenodd" d="M13.0812 12.4525C12.8514 12.7023 13.1711 12.8721 13.281 12.9121C15.4888 13.7612 15.8984 14.5704 16.1481 16.2787C16.2787 16.8791 16.3057 17.4974 16.228 18.1069C16.2343 18.1957 16.2621 18.2816 16.309 18.3572C16.3558 18.4329 16.4203 18.496 16.497 18.5413C16.5736 18.5865 16.6601 18.6124 16.749 18.6168C16.8379 18.6211 16.9265 18.6039 17.0073 18.5664L26.258 13.1219C30.1019 15.4538 31.1338 16.0475 33.9314 17.6569L33.9314 17.6569L33.9368 17.66L33.9433 17.6638L33.9493 17.6672L33.9558 17.671C34.4237 17.9401 34.9409 18.2377 35.5287 18.5764C35.6094 18.6256 35.7019 18.6518 35.7963 18.6523C35.8908 18.6528 35.9836 18.6276 36.0647 18.5793C36.1459 18.531 36.2123 18.4615 36.257 18.3783C36.3016 18.295 36.3227 18.2012 36.318 18.1069C36.1643 16.9583 36.3555 15.7899 36.8674 14.7503C37.0982 14.2854 37.431 13.8786 37.8409 13.5603C38.2509 13.242 38.7275 13.0204 39.235 12.9121C39.5048 12.8521 39.6047 12.4925 39.4548 12.4126C38.5558 11.9181 37.8098 11.5135 37.1364 11.1483L37.1363 11.1482L37.136 11.1481L37.1358 11.1479C36.0136 10.5393 35.0928 10.0399 34.0003 9.41559C33.7405 9.41559 33.6306 9.5055 33.6406 9.66534C33.6679 10.1335 33.6377 10.6032 33.5507 11.0639C33.4771 11.4174 33.3092 11.7443 33.0647 12.0099C32.8202 12.2755 32.5083 12.4699 32.1621 12.5724C31.7866 12.6451 31.3975 12.5926 31.0547 12.423C30.7118 12.2534 30.4341 11.976 30.264 11.6334C30.1866 11.3353 30.1866 11.0224 30.264 10.7243C30.3439 10.1648 31.263 9.2957 32.0622 8.80619C32.2021 8.72627 32.292 8.53646 32.0622 8.35664C30.8326 7.64382 30.0175 7.16878 29.3792 6.79678L29.3786 6.79641L29.3781 6.79616L29.3779 6.79605C28.228 6.12586 27.6519 5.79009 26.258 5C25.7673 5.28528 25.2717 5.57056 24.7608 5.86469C23.4826 6.60052 22.1082 7.39169 20.4738 8.37662C20.274 8.5964 20.3539 8.70629 20.4738 8.78621C21.8624 9.8052 22.1921 10.3746 22.3619 11.034C22.6516 12.1628 21.2031 12.8122 20.4838 12.6823C18.8775 12.4017 18.8833 10.4529 18.8853 9.79509L18.8854 9.73526C18.8854 9.66014 18.764 9.58969 18.6617 9.53029C18.6143 9.5028 18.571 9.47767 18.5457 9.45555L18.2675 9.60634C16.0964 10.783 15.2103 11.2633 13.0812 12.4525ZM17.257 17.7373C17.0772 17.8671 16.7875 17.9271 16.8674 17.5175C17.257 15.8791 16.0982 13.1119 14.22 12.5225L18.276 10.2747C18.2487 10.9177 18.4046 11.5551 18.7255 12.1129C19.7245 13.951 23.3309 13.4216 23.0712 10.9341C22.8402 10.0907 22.3113 9.35958 21.5827 8.87612C21.5714 8.85774 21.5577 8.83876 21.5435 8.81911L21.5435 8.8191C21.4574 8.69999 21.3539 8.55671 21.6626 8.37662C22.6562 7.81253 23.6456 7.23609 24.6336 6.66051L24.6337 6.66045L24.6338 6.6604L24.6339 6.66034L24.634 6.66029C25.1856 6.33892 25.7368 6.01783 26.288 5.6993C27.287 6.26873 28.286 6.83816 30.8734 8.3966C31.2131 8.58641 31.0632 8.77622 30.9533 8.87612C29.9543 9.77523 29.0652 10.7942 29.6147 11.993C29.8646 12.3635 30.2026 12.6661 30.5985 12.8736C30.9943 13.0812 31.4355 13.187 31.8824 13.1818C32.3548 13.1565 32.8103 12.9975 33.1958 12.7234C33.5814 12.4492 33.8811 12.0712 34.0602 11.6334L34.27 10.2647C35.5278 11.0179 36.0531 11.2884 37.096 11.8255C37.4364 12.0008 37.8319 12.2044 38.3259 12.4625C37.6977 12.7299 37.1405 13.14 36.6983 13.6602C36.2561 14.1804 35.9412 14.7965 35.7785 15.4595C35.5721 16.1065 35.5479 16.7978 35.7086 17.4575C35.7086 17.6474 35.7086 17.8671 35.279 17.6973C34.1735 17.0444 33.2786 16.5114 32.4561 16.0216L32.4558 16.0215L32.4557 16.0214C30.5726 14.9001 29.069 14.0047 26.288 12.4126C23.0512 14.3806 20.4938 15.8891 17.257 17.7373ZM89.1452 23.8213C89.6669 24.7296 89.9036 25.7737 89.8245 26.8183V26.8382C89.9069 27.8842 89.6663 28.9304 89.1352 29.8352C88.9896 30.0503 88.7929 30.2259 88.5628 30.3462C88.3326 30.4665 88.0762 30.5278 87.8165 30.5246C87.557 30.5222 87.3021 30.4563 87.0739 30.3327C86.8458 30.2091 86.6514 30.0314 86.5078 29.8153C85.9796 28.9092 85.7393 27.864 85.8185 26.8183C85.7373 25.7723 85.9779 24.7266 86.5078 23.8213C86.656 23.609 86.8533 23.4356 87.0829 23.3159C87.3125 23.1962 87.5676 23.1337 87.8265 23.1337C88.0854 23.1337 88.3405 23.1962 88.5701 23.3159C88.7996 23.4356 88.9969 23.609 89.1452 23.8213ZM91.8624 32.0131C92.9404 30.5029 93.4724 28.6709 93.3709 26.8183C93.4759 24.9605 92.9476 23.1221 91.8724 21.6035C91.3814 21.0053 90.7638 20.5235 90.0642 20.1927C89.3646 19.8619 88.6004 19.6903 87.8265 19.6903C87.0526 19.6903 86.2883 19.8619 85.5887 20.1927C84.8891 20.5235 84.2716 21.0053 83.7805 21.6035C82.7018 23.117 82.1698 24.9524 82.272 26.8083C82.1682 28.6643 82.7003 30.5002 83.7805 32.0131C84.2696 32.6126 84.8859 33.0958 85.5848 33.4277C86.2838 33.7595 87.0478 33.9317 87.8215 33.9317C88.5952 33.9317 89.3592 33.7595 90.0581 33.4277C90.7571 33.0958 91.3734 32.6126 91.8624 32.0131ZM138.056 33.6414H126.278V30.085H133.411V23.4017H132.881C132.627 23.3901 132.373 23.4301 132.134 23.5194C131.895 23.6087 131.677 23.7453 131.493 23.9211C130.777 24.8891 130.452 26.0912 130.584 27.2878V27.8872C130.584 28.1573 130.641 28.5655 130.718 29.119L130.744 29.3058H127.417C127.337 28.8362 127.277 28.3067 127.237 27.8172C127.21 27.4894 127.219 27.1526 127.228 26.8219C127.233 26.6588 127.237 26.4971 127.237 26.3387C127.237 23.6747 127.84 21.8499 129.045 20.8642C129.831 20.2526 130.808 19.941 131.802 19.9851H136.798V30.085H138.086L138.056 33.6414ZM124.56 33.6414H118.566C117.442 33.7246 116.327 33.3862 115.439 32.6924C115.026 32.2849 114.706 31.7923 114.503 31.2489C114.299 30.7054 114.216 30.1242 114.26 29.5455C114.206 28.4666 114.539 27.4038 115.199 26.5485C115.617 26.0697 116.141 25.6942 116.728 25.4516C117.316 25.2089 117.952 25.1057 118.586 25.1499H120.024C120.176 25.4642 120.274 25.802 120.314 26.1489C120.357 26.5705 120.377 26.994 120.374 27.4176V28.017H119.375C119.031 27.9931 118.687 28.0585 118.376 28.2069C118.199 28.3036 118.053 28.4491 117.955 28.6261C117.858 28.8031 117.813 29.0043 117.826 29.2059C117.817 29.5014 117.925 29.7887 118.126 30.0051C118.234 30.1106 118.362 30.1926 118.503 30.2459C118.644 30.2992 118.795 30.3226 118.945 30.3147H121.043V27.2178C121.171 26.1229 120.906 25.0181 120.294 24.101C119.994 23.8288 119.642 23.6204 119.259 23.4882C118.876 23.356 118.47 23.3027 118.066 23.3317C117.208 23.3399 116.356 23.478 115.539 23.7413V20.2648C116.65 20.1022 117.772 20.0221 118.895 20.025C120.171 19.9604 121.433 20.3109 122.492 21.024C123.897 22.063 124.603 23.8412 124.61 26.3587L124.56 33.6414ZM110.607 30.1993C111.131 29.9185 111.576 29.5118 111.902 29.016C114.49 25.5095 113.371 20.025 108.326 20.025H103.631V33.6513H106.788V23.3716H107.517C109.225 23.3716 109.944 24.1309 109.944 24.97C110.024 26.2088 108.736 27.6274 107.427 27.018V30.4845C107.913 30.587 108.409 30.6339 108.905 30.6244C109.499 30.6262 110.084 30.4801 110.607 30.1993ZM102.082 23.5515H97.9963V33.6314H94.7795V20.005H102.082V23.5515ZM81.6026 23.5515H78.7854V33.6314H75.5686V23.5515H72.7515V20.005H81.6026V23.5515ZM68.6357 28.2068C68.8633 28.4877 68.9742 28.8454 68.9454 29.2058H68.9354C68.9553 29.5499 68.8447 29.8888 68.6257 30.1549C68.5257 30.2662 68.4019 30.3536 68.2636 30.4106C68.1253 30.4677 67.9759 30.4929 67.8265 30.4845H65.8285V23.1519H67.7566C68.0084 23.142 68.2546 23.2276 68.4459 23.3916C68.5524 23.4996 68.6329 23.6303 68.6814 23.774C68.7298 23.9176 68.745 24.0704 68.7256 24.2208C68.7445 24.3906 68.7195 24.5625 68.6531 24.7199C68.5866 24.8773 68.4809 25.015 68.346 25.1199C68.1687 25.2264 67.9628 25.2753 67.7566 25.2598H66.4978V27.8871H67.8365C67.9851 27.8775 68.134 27.9012 68.2723 27.9565C68.4106 28.0118 68.5347 28.0973 68.6357 28.2068ZM71.3829 32.7223C72.0042 31.9973 72.3162 31.0575 72.2521 30.1049H72.2021C72.2463 29.2058 72.0088 28.3152 71.5228 27.5575C71.2086 27.0893 70.7485 26.7381 70.2141 26.5585C70.7127 26.4101 71.1482 26.101 71.4529 25.6793C71.871 25.0588 72.0745 24.3185 72.0323 23.5714C72.065 22.7619 71.8713 21.9593 71.4729 21.2538C71.2295 20.8533 70.8811 20.5271 70.4655 20.3104C70.0499 20.0938 69.5829 19.9951 69.1152 20.025H62.6217V33.6314H69.0453C69.4768 33.6513 69.9077 33.5807 70.3103 33.4241C70.7129 33.2675 71.0782 33.0285 71.3829 32.7223ZM168.106 19.985H164.76V33.6414H168.106V19.985ZM182.622 33.7512H186.078C185.895 32.092 185.534 30.4575 184.999 28.8761C184.503 27.364 183.857 25.9049 183.071 24.5205C183.855 23.7112 184.527 22.8007 185.069 21.8132C185.379 21.2426 185.633 20.6438 185.829 20.025H182.082C181.84 20.6613 181.503 21.2574 181.083 21.7932C180.667 22.3387 180.176 22.8229 179.625 23.2318V20.025H176.298V33.7512H179.625V27.4675C179.943 27.2774 180.243 27.0601 180.524 26.8182C181.116 27.8577 181.573 28.9691 181.882 30.1249C182.221 31.3131 182.468 32.5254 182.622 33.7512ZM174.78 33.6514H171.443V27.8172H168.806V24.3807H171.443V19.985H174.78V33.6514ZM157.247 33.6414H163.241L163.211 26.3187C163.204 23.8012 162.498 22.023 161.093 20.9841C160.033 20.2722 158.772 19.9218 157.497 19.9851C156.399 19.9988 155.304 20.0923 154.22 20.2648V23.7413C155.034 23.4788 155.883 23.3407 156.738 23.3317C157.143 23.3013 157.551 23.3539 157.936 23.4861C158.32 23.6184 158.674 23.8276 158.975 24.1009C159.587 25.0181 159.853 26.1229 159.725 27.2178V30.3147H157.627C157.476 30.3239 157.325 30.301 157.184 30.2476C157.043 30.1943 156.914 30.1116 156.807 30.005C156.603 29.7897 156.492 29.5026 156.498 29.2058C156.487 29.0034 156.533 28.802 156.632 28.6251C156.732 28.4482 156.879 28.3032 157.057 28.2068C157.368 28.0585 157.712 27.9931 158.056 28.017H159.055V27.4176C159.058 26.9939 159.038 26.5704 158.995 26.1489C158.951 25.8029 158.853 25.4659 158.706 25.1499H157.267C156.633 25.1056 155.997 25.2089 155.409 25.4516C154.822 25.6942 154.299 26.0697 153.88 26.5485C153.22 27.4038 152.887 28.4665 152.941 29.5455C152.898 30.1242 152.98 30.7054 153.184 31.2489C153.387 31.7923 153.707 32.2849 154.12 32.6924C155.008 33.3862 156.123 33.7246 157.247 33.6414ZM15.9184 20.5845C15.7885 20.2448 15.7485 20.085 15.9983 19.8652C16.3286 19.7259 16.6455 19.5599 16.9739 19.3879C17.2813 19.2269 17.5986 19.0607 17.9463 18.9061C18.6762 18.5542 19.8653 17.832 21.1905 17.027C22.9125 15.981 24.8645 14.7953 26.338 14.101C28.7126 15.5132 29.6817 16.0555 30.8883 16.7307C31.7985 17.2401 32.8438 17.8251 34.7296 18.9161C35.3742 19.1802 35.9873 19.5153 36.5577 19.9151C36.6331 20.0133 36.6819 20.1292 36.6994 20.2517C36.7169 20.3742 36.7025 20.4991 36.6576 20.6144C36.1581 21.6134 36.5577 23.6114 36.8075 24.6104H36.308C35.8582 23.3528 35.7446 21.9994 35.9783 20.6844C36.0582 20.4746 36.0482 20.3547 35.9783 20.2748C34.6118 19.6433 33.2781 18.9431 31.9823 18.1769C30.9784 17.6186 30.1652 17.1273 29.3689 16.6463L29.3689 16.6463L29.3689 16.6463L29.3688 16.6463C28.3982 16.0599 27.4528 15.4888 26.2181 14.8302C23.1212 16.7583 19.8644 18.6464 16.5577 20.3047C16.5078 20.3447 16.5477 20.5845 16.5577 20.5845C16.5677 20.5845 16.6876 21.5835 16.6876 21.5835L16.6077 22.4726C16.5506 23.1573 16.4175 23.8468 16.2776 24.5708C15.8788 26.6356 15.4257 28.9818 16.5278 32.3028C17.4486 34.8328 18.9548 37.1092 20.9234 38.9461C20.8841 38.9811 20.8505 39.0561 20.8143 39.1371C20.7677 39.2412 20.7167 39.3551 20.6437 39.4057C18.3959 37.1979 15.9883 33.9911 15.4888 30.9941C15.0059 28.1359 15.4383 25.7858 15.7766 23.9475C16.0401 22.5154 16.2465 21.3938 15.9184 20.5845ZM17.2571 20.6844C17.5568 21.8532 17.0473 24.5005 16.6477 26.3187C16.5278 27.1179 16.348 28.7363 17.0473 29.3157C17.2055 29.3817 17.3753 29.4156 17.5468 29.4156C17.7182 29.4156 17.888 29.3817 18.0463 29.3157C18.2061 29.2279 18.3791 29.1286 18.5625 29.0233L18.5628 29.0232C20.3623 27.9902 23.1615 26.3833 24.34 29.4656C25.339 32.1829 25.6287 36.7882 25.339 39.8552L25.3346 39.8117C25.1277 37.7402 24.3138 29.5935 20.6537 30.7143C19.3849 31.1139 17.7865 31.5535 16.6577 30.4446C17.3197 33.4718 18.8631 36.2352 21.0932 38.3867C21.3162 37.8005 21.4336 37.4135 21.5463 37.0415C21.6104 36.8303 21.6729 36.6239 21.7526 36.3887C21.5538 35.8315 21.2833 35.282 21.0103 34.7274C20.5147 33.7208 20.011 32.6978 19.9144 31.5835C20.027 31.5835 20.196 31.5355 20.3827 31.4825L20.3827 31.4825L20.3828 31.4825C20.693 31.3945 21.0523 31.2926 21.283 31.3737C21.694 31.4902 22.0537 31.7419 22.3039 32.0882C22.554 32.4344 22.6801 32.855 22.6617 33.2818C22.6617 34.1754 22.6544 34.9117 22.6474 35.6154V35.6154V35.6155V35.6156C22.6344 36.9335 22.6226 38.1369 22.6617 40.045L25.9883 43.1619V15.7593C25.4644 16.0645 24.9824 16.3458 24.5331 16.608C21.5558 18.3456 20.0173 19.2434 17.2571 20.6844ZM20.344 22.8022C20.5172 22.3361 20.8365 21.9384 21.2541 21.6683C21.6717 21.3983 22.1654 21.2704 22.6617 21.3037V26.7982C21.6788 26.6617 20.6795 26.8814 19.8445 27.4176C19.325 26.3487 19.9943 23.4816 20.344 22.8022ZM36.5776 27.9071C36.4351 28.2473 36.232 28.5587 35.9782 28.8262H35.9582C35.9091 28.8699 35.8839 28.9345 35.8613 28.9922C35.8425 29.0401 35.8256 29.0833 35.7984 29.1059C35.0228 29.6752 33.9279 29.0686 32.9 28.4992C32.4848 28.2691 32.0804 28.0451 31.7125 27.9071C31.3739 27.7466 31.004 27.6627 30.6292 27.6614C30.2544 27.6602 29.884 27.7417 29.5443 27.9001C29.2047 28.0585 28.9041 28.2898 28.6642 28.5777C28.4242 28.8656 28.2507 29.2029 28.156 29.5655C27.6202 31.0667 27.2843 32.6319 27.157 34.2208C27.0182 36.1231 27.0182 38.0329 27.157 39.9351C27.2236 39.4456 27.2738 38.927 27.3254 38.3935L27.3254 38.3934C27.4678 36.9237 27.621 35.341 28.156 33.9411C28.9752 31.8532 30.204 29.7953 32.5217 30.7943C33.038 31.061 33.6208 31.1719 34.199 31.1133C34.7773 31.0548 35.326 30.8294 35.7784 30.4646L35.169 32.6224C34.4475 34.5413 33.3658 36.3046 31.9822 37.8172C30.3129 39.707 28.5421 41.5045 26.6775 43.2019V15.8292C31.193 18.3867 32.4917 19.1059 35.3588 20.6644C35.2583 21.9153 35.3425 23.1742 35.6086 24.4007C33.9479 23.4682 33.21 23.0737 32.0364 22.4462C31.4874 22.1527 30.843 21.8081 29.9642 21.3337V26.8382C31.1544 26.5035 31.7753 26.8918 32.7052 27.4735C33.274 27.8292 33.9583 28.2573 34.9592 28.6364C35.8116 28.5238 36.1397 27.7059 36.454 26.9221L36.4541 26.922L36.4541 26.922C36.5303 26.732 36.6057 26.5441 36.6875 26.3687C36.8192 26.34 36.9555 26.34 37.0871 26.3687C38.7355 31.3437 34.22 37.5575 30.6136 40.7443C29.8981 41.3882 29.1774 42.1472 28.4542 42.9088C27.7636 43.6361 27.0707 44.3657 26.3778 45.0001C26.0943 44.723 25.7849 44.4304 25.4384 44.1028C24.7104 43.4144 23.819 42.5714 22.6615 41.3937C22.5464 41.2717 22.5874 41.09 22.6258 40.9203C22.6439 40.8397 22.6615 40.7619 22.6615 40.6944C22.9679 40.9926 23.2434 41.2622 23.5186 41.5314L23.52 41.5328L23.5202 41.533C24.2582 42.2552 24.9942 42.9753 26.3179 44.2408C26.8091 43.7593 27.3236 43.2668 27.8496 42.7635L27.8497 42.7634C30.5865 40.1443 33.633 37.2288 35.3089 34.011C36.3822 32.1677 36.8275 30.0255 36.5776 27.9071ZM29.9842 37.5572V37.5575C31.3435 35.8301 32.2592 33.7962 32.6516 31.6334C31.4228 31.074 30.7435 31.5135 30.0342 32.4326C29.9842 34.3307 29.9842 34.96 29.9842 37.5572ZM52.9613 19.7053C53.7106 18.077 56.0782 16.7083 56.0782 18.037V23.2418L52.5617 24.021C51.7325 24.1809 52.272 21.4236 52.9813 19.7553L52.9613 19.7053ZM49.7246 16.8982C49.5327 17.0183 49.3919 17.2051 49.3293 17.4226C49.2666 17.6401 49.2864 17.8731 49.3849 18.077C49.4384 18.5967 49.3944 19.1219 49.255 19.6254C48.5877 22.1625 48.4046 24.8027 48.7156 27.4076C49.305 30.5745 51.4528 32.7823 54.1701 35.2298C54.099 34.8822 54.5528 34.122 54.8693 33.592C54.9529 33.4519 55.027 33.3279 55.0792 33.2318C54.9306 32.9572 54.6938 32.59 54.4269 32.1764C53.2766 30.3932 51.5682 27.745 53.9603 27.9071C55.8657 28.0405 55.8813 28.3919 55.948 29.8884C55.9513 29.9612 55.9546 30.0367 55.9583 30.1149C55.9583 30.7984 55.9474 31.5026 55.9364 32.2127V32.2128C55.9141 33.6513 55.8914 35.1142 55.9583 36.4786C55.9547 36.5105 55.9591 36.5428 55.9714 36.5725C55.9836 36.6022 56.0032 36.6283 56.0283 36.6484C59.5547 39.6454 59.5947 39.6454 60.1841 39.6454V15.1099C60.1841 14.9078 60.1847 14.7185 60.1853 14.5414C60.1896 13.211 60.1917 12.5715 59.9139 12.4082C59.6567 12.257 59.1597 12.5139 58.2028 13.0086C57.3446 13.4522 56.1166 14.087 54.3599 14.7903C54.2054 14.8589 53.854 15.0196 53.3748 15.2386L53.3748 15.2386C52.4595 15.657 51.0784 16.2883 49.7146 16.8982H49.7246ZM59.4848 36.4486C59.4848 36.4044 59.4849 36.3593 59.4851 36.3134L59.5048 36.4486H59.4848ZM59.4851 36.3134C59.4868 35.9851 59.494 35.6134 59.5018 35.2091C59.575 31.4113 59.7038 24.7375 55.8285 24.2208C54.2101 23.9511 52.0323 25.01 50.5937 25.7593C49.9629 26.1076 49.8556 26.0567 49.118 25.7069L48.9753 25.6394C48.9753 28.2126 50.5065 27.8587 52.0916 27.4923C52.6604 27.3609 53.2361 27.2278 53.7505 27.2278C58.2834 27.2278 58.8742 31.7084 59.3517 35.3289L59.3517 35.329C59.3961 35.666 59.4396 35.9956 59.4851 36.3134ZM140.264 39.7453V12.2228L140.244 12.1929L150.963 17.1879L151.253 20.9641L144.26 17.6674V23.4516C145.869 23.2844 147.479 23.7542 148.746 24.7603C150.197 25.5444 150.448 25.4477 150.662 25.3656C150.723 25.3421 150.781 25.3197 150.863 25.3197H151.403C152.812 25.3197 150.903 29.9851 150.404 30.3148C149.63 31.7867 148.617 33.1201 147.407 34.2608C146.208 35.5195 140.764 39.7453 140.764 39.7453H140.264ZM144.46 34.2608C144.998 33.7092 145.486 33.1108 145.918 32.4726C150.654 26.6184 144.46 27.108 144.46 29.1759V34.2608ZM151.114 25.9133C151.085 25.9346 151.054 25.9578 151.023 25.9791V26.019C150.715 26.1344 150.374 26.1236 150.074 25.9891C149.018 25.3906 147.903 24.9019 146.748 24.5305C143.96 24.041 141.842 24.4906 141.303 28.3967C141.237 28.9951 141.13 29.8975 141.04 30.6513C140.954 31.3823 140.883 31.9737 140.883 32.0131V36.6185C141.253 33.3217 142.911 24.3207 148.156 27.6274C148.686 27.9284 149.306 28.0311 149.904 27.9171C150.943 27.8372 151.353 26.3687 151.233 25.8392C151.233 25.8253 151.18 25.8646 151.114 25.9133Z" fill="#00753A"/>
<path fill-rule="evenodd" clip-rule="evenodd" d="M18.6755 12.9122C18.2573 12.3812 17.9391 11.7787 17.7365 11.1339C17.0472 11.5535 16.158 12.1329 15.3988 12.5525C16.0633 13.0584 16.6133 13.6991 17.0127 14.4326C17.4121 15.166 17.652 15.9756 17.7165 16.8083C19.6446 15.6994 21.7125 14.5006 23.3409 13.4916C24.1501 13.0021 25.3888 12.2728 26.2779 11.7633C29.185 13.4416 31.8324 14.9801 34.8494 16.7583C35.249 14.5405 35.8484 13.5016 37.1471 12.5126C36.4278 12.083 35.5387 11.5135 34.7994 11.074C34.6953 11.5273 34.5377 11.9666 34.3299 12.3827C33.8762 12.9782 33.2334 13.4015 32.5071 13.5831C31.7808 13.7646 31.0144 13.6936 30.3339 13.3817C29.9379 13.2281 29.5936 12.9655 29.3408 12.6242C29.0879 12.283 28.937 11.8771 28.9053 11.4536C28.8931 10.9042 29.0227 10.3609 29.2817 9.87614C29.5407 9.39141 29.9203 8.98164 30.3838 8.68638C29.245 8.01705 27.3868 6.9581 26.3279 6.3587C25.189 7.03802 23.2909 8.03703 22.232 8.67639C22.7826 9.11943 23.2236 9.6835 23.5207 10.3247C23.658 10.601 23.7294 10.9053 23.7294 11.2138C23.7294 11.5224 23.658 11.8267 23.5207 12.103C23.2866 12.5103 22.9651 12.8607 22.5793 13.1289C22.1934 13.397 21.7529 13.5763 21.2895 13.6537C20.8261 13.7311 20.3513 13.7047 19.8992 13.5765C19.4472 13.4482 19.0293 13.2214 18.6755 12.9122V12.9122Z" fill="#FFCC00"/>
</svg>
