<svg width="200" height="50" viewBox="0 0 200 50" fill="none" xmlns="http://www.w3.org/2000/svg">
<path fill-rule="evenodd" clip-rule="evenodd" d="M62.9671 0.923763C61.3329 1.238 60.0131 2.88418 60.3215 4.81384C55.9254 3.26918 50.293 3.56278 46.3542 4.3151C45.4709 4.48823 44.671 4.67736 43.9851 4.8804C43.7872 4.93853 43.7872 5.13145 43.9606 5.16768C50.0108 6.55775 52.3416 9.67234 57.0391 10.4394C53.6973 15.0953 53.8382 20.9517 54.2555 22.3523C54.337 22.6897 55.8901 24.7605 56.8167 25.5882C56.9198 25.6762 57.0586 25.707 57.1825 25.6834C57.3588 25.6501 57.5163 25.5077 57.5109 25.3173C57.3999 19.9007 58.0555 16.3687 59.7553 15.7532C60.842 15.3623 61.3546 15.2158 61.6688 15.1126C66.2254 13.6757 65.865 8.13442 65.8051 6.1323C65.7186 2.87154 67.3203 1.98822 68.6618 1.73295L75.2973 0.462513C75.8885 0.349623 76.2189 0.417863 76.3952 0.385006L76.4413 0.344989C76.4164 0.191661 76.2056 0.00758218 75.7496 0H75.6922C75.5659 0.00210616 75.422 0.0168493 75.2595 0.0484417L68.402 1.35974C67.4883 1.53455 66.7346 1.58131 66.5155 1.52065C66.0678 1.39302 64.4308 0.647013 62.9671 0.923763Z" fill="#F27007"/>
<path fill-rule="evenodd" clip-rule="evenodd" d="M170 45.681H169.258V43.8118H168.321L167.28 45.681H166.439L167.529 43.7855C167.121 43.7046 166.538 43.2947 166.538 42.5392C166.538 41.7016 167.137 41.2467 168.129 41.2467H170V45.681ZM169.258 41.8659H168.104C167.565 41.8659 167.279 42.1034 167.279 42.5451C167.28 43.0055 167.565 43.2244 168.104 43.2244H169.258V41.8659ZM162.702 41.2467H161.966V45.681H162.738L164.897 42.3618H164.908V45.681H165.653V41.2467H164.877L162.725 44.5655H162.702V41.2467ZM158.092 41.2467H157.353V45.681H158.092V43.6538H160.145V45.681H160.884V41.2467H160.145V43.0334H158.092V41.2467ZM152.663 42.5955C152.663 41.5313 153.387 41.1197 154.474 41.1197C154.825 41.1197 156.101 41.2226 156.101 42.3618V44.8904C156.101 45.0775 156.197 45.1699 156.348 45.1699C156.411 45.1699 156.501 45.1533 156.583 45.1381V45.6823C156.462 45.7144 156.351 45.7631 156.186 45.7631C155.532 45.7631 155.438 45.4201 155.405 45.086C155.115 45.3968 154.677 45.8063 153.814 45.8063C153.012 45.8063 152.445 45.2961 152.445 44.5228C152.445 43.9977 152.576 43.2155 154.126 43.0999C155.28 43.0055 155.364 42.9157 155.364 42.4541C155.364 41.9688 155.036 41.7409 154.338 41.7409C153.496 41.7409 153.387 42.2606 153.343 42.5955H152.663ZM155.364 43.4179C155.247 43.5107 155.066 43.575 154.148 43.694C153.782 43.7448 153.2 43.8478 153.2 44.4059C153.2 44.8904 153.458 45.1868 154.009 45.1868C154.698 45.1868 155.364 44.7421 155.364 44.1455V43.4179ZM148.149 41.2467H150.152C151.124 41.2467 151.588 41.7668 151.588 42.3821C151.588 42.9051 151.231 43.2244 150.85 43.3328C151.313 43.4438 151.848 43.7448 151.848 44.5054C151.848 45.2126 151.28 45.681 150.234 45.681H148.149V41.2467ZM148.895 43.0817H149.966C150.607 43.0817 150.85 42.8958 150.85 42.4126C150.85 42.0607 150.631 41.8659 149.982 41.8659H148.895V43.0817ZM148.895 45.0623H150.215C150.787 45.0623 151.105 44.8658 151.105 44.3724C151.105 43.8939 150.741 43.6678 150.141 43.6678H148.895V45.0623ZM145.276 41.1197C146.681 41.1197 147.313 42.3198 147.313 43.4582C147.314 44.599 146.681 45.8063 145.276 45.8063C143.868 45.8063 143.239 44.599 143.239 43.4582C143.239 42.3198 143.868 41.1197 145.276 41.1197ZM145.276 45.1618C146.333 45.1618 146.555 44.0565 146.555 43.4582C146.555 42.864 146.333 41.7672 145.276 41.7672C144.222 41.7672 143.994 42.864 143.994 43.4582C143.994 44.0565 144.222 45.1618 145.276 45.1618ZM138.798 41.2467H139.488V41.8743C139.732 41.5169 140.052 41.1197 140.822 41.1197C141.984 41.1197 142.64 42.0789 142.64 43.3337C142.64 44.3923 142.227 45.8063 140.728 45.8063C140.14 45.8063 139.743 45.523 139.537 45.1618V47.4295H138.798V41.2467ZM139.537 43.4526C139.537 44.4173 139.916 45.1618 140.718 45.1618C141.187 45.1618 141.885 44.8425 141.885 43.6614C141.885 42.933 141.806 41.793 140.745 41.793C139.6 41.7926 139.537 42.8738 139.537 43.4526ZM134.777 41.2467H134.035V45.681H134.804L136.962 42.3618H136.979V45.681H137.718V41.2467H136.943L134.79 44.5655H134.777V41.2467ZM133.303 42.7395C133.24 41.9684 132.81 41.1197 131.654 41.1197C130.207 41.1197 129.553 42.2186 129.553 43.5865C129.553 44.8658 130.285 45.8063 131.512 45.8063C132.804 45.8063 133.226 44.8154 133.303 44.1145H132.588C132.464 44.7934 132.038 45.1618 131.539 45.1618C130.526 45.1618 130.342 44.2234 130.342 43.4582C130.342 42.6722 130.632 41.7926 131.55 41.793C132.169 41.793 132.492 42.1454 132.588 42.7395H133.303ZM125.918 41.2467H125.179V45.681H125.918V43.6538H127.97V45.681H128.709V41.2467H127.97V43.0334H125.918V41.2467ZM120.486 42.5955C120.486 41.5313 121.215 41.1197 122.303 41.1197C122.653 41.1197 123.93 41.2226 123.93 42.3618V44.8904C123.93 45.0775 124.023 45.1699 124.17 45.1699C124.238 45.1699 124.33 45.1533 124.414 45.1381V45.6823C124.286 45.7144 124.179 45.7631 124.009 45.7631C123.354 45.7631 123.264 45.4201 123.231 45.086C122.938 45.3968 122.5 45.8063 121.642 45.8063C120.837 45.8063 120.27 45.2961 120.27 44.5228C120.27 43.9977 120.404 43.2155 121.952 43.0999C123.108 43.0055 123.187 42.9157 123.187 42.4541C123.187 41.9688 122.864 41.7409 122.166 41.7409C121.327 41.7409 121.214 42.2606 121.165 42.5955H120.486ZM123.187 43.4179C123.072 43.5107 122.891 43.575 121.979 43.694C121.612 43.7448 121.028 43.8478 121.028 44.4059C121.028 44.8904 121.286 45.1868 121.834 45.1868C122.524 45.1868 123.187 44.7421 123.187 44.1455V43.4179ZM116.635 41.2467H115.896V45.681H116.635V43.6538H118.692V45.681H119.429V41.2467H118.692V43.0334H116.635V41.2467ZM111.874 41.2467H111.13V45.681H111.907L114.06 42.3618H114.077V45.681H114.817V41.2467H114.041L111.89 44.5655H111.874V41.2467ZM107.505 40.2257C109.395 40.2257 110.31 41.4 110.31 42.6413C110.31 43.8795 109.403 45.0538 107.505 45.0538V45.681H106.7V45.0538C104.804 45.0538 103.901 43.8795 103.901 42.6413C103.901 41.4 104.813 40.2257 106.7 40.2257V39.5969H107.505V40.2257ZM106.7 44.4059V40.8699C105.572 40.8699 104.736 41.3899 104.736 42.6413C104.736 43.8893 105.572 44.4059 106.7 44.4059ZM107.505 40.8699V44.4059C108.64 44.4059 109.469 43.8893 109.469 42.6413C109.469 41.3899 108.64 40.8699 107.505 40.8699ZM165.275 31.9645C166.677 31.9645 167.312 33.1642 167.312 34.3068C167.313 35.4438 166.677 36.6516 165.275 36.6516C163.872 36.6516 163.24 35.4438 163.24 34.3068C163.24 33.1642 163.872 31.9645 165.275 31.9645ZM165.275 36.0066C166.33 36.0066 166.56 34.9001 166.56 34.3068C166.56 33.7084 166.33 32.6091 165.275 32.6091C164.218 32.6091 163.995 33.7084 163.995 34.3068C163.996 34.9001 164.218 36.0066 165.275 36.0066ZM159.994 32.0945V36.5254H160.736V32.7145H162.856V32.0945H159.994ZM157.117 31.9645C158.523 31.9645 159.158 33.1642 159.158 34.3068C159.158 35.4438 158.523 36.6516 157.117 36.6516C155.712 36.6516 155.082 35.4438 155.082 34.3068C155.082 33.1642 155.712 31.9645 157.117 31.9645ZM157.117 36.0066C158.175 36.0066 158.397 34.9001 158.397 34.3068C158.397 33.7084 158.175 32.6091 157.117 32.6091C156.062 32.6091 155.839 33.7084 155.839 34.3068C155.839 34.9001 156.062 36.0066 157.117 36.0066ZM151.445 32.0945H150.705V36.5254H151.445V34.4952H153.496V36.5254H154.244V32.0945H153.496V33.8753H151.445V32.0945ZM146.171 32.0945H148.168C149.144 32.0945 149.609 32.6103 149.609 33.2235C149.609 33.7525 149.253 34.0679 148.867 34.1802C149.336 34.286 149.867 34.5892 149.867 35.3502C149.867 36.057 149.3 36.5254 148.254 36.5254H146.171V32.0945ZM146.914 33.9235H147.988C148.626 33.9235 148.867 33.7414 148.867 33.257C148.867 32.9063 148.651 32.7145 148.002 32.7145H146.914V33.9235ZM146.914 35.9088H148.237C148.809 35.9088 149.125 35.7123 149.125 35.2177C149.125 34.7396 148.757 34.513 148.16 34.513H146.914V35.9088ZM142.148 32.0945H141.408V36.5254H142.183L144.337 33.204H144.353V36.5254H145.092V32.0945H144.32L142.167 35.4104H142.148V32.0945ZM137.127 32.0945V32.7145H138.573V36.5254H139.316V32.7145H140.762V32.0945H137.127ZM132.925 33.4437C132.925 32.3774 133.648 31.9654 134.741 31.9654C135.089 31.9654 136.371 32.067 136.371 33.2053V35.7369C136.371 35.9228 136.458 36.0164 136.611 36.0164C136.678 36.0164 136.768 35.9969 136.853 35.9799V36.5254C136.727 36.5546 136.62 36.6084 136.453 36.6084C135.796 36.6084 135.702 36.2649 135.673 35.9321C135.382 36.2412 134.938 36.6516 134.083 36.6516C133.278 36.6516 132.71 36.1413 132.71 35.3672C132.711 34.8421 132.846 34.0595 134.39 33.9439C135.546 33.8494 135.631 33.7605 135.631 33.2976C135.631 32.8136 135.303 32.5883 134.607 32.5883C133.765 32.5883 133.648 33.1024 133.607 33.4437H132.925ZM135.631 34.2602C135.513 34.3529 135.333 34.4241 134.412 34.5376C134.048 34.5892 133.467 34.6892 133.467 35.2503C133.467 35.7369 133.727 36.032 134.275 36.032C134.966 36.032 135.631 35.5874 135.631 34.9937V34.2602ZM128.271 32.0945H128.962V32.7183C129.202 32.3571 129.525 31.9645 130.29 31.9645C131.457 31.9645 132.112 32.9207 132.112 34.1797C132.112 35.238 131.698 36.6516 130.2 36.6516C129.608 36.6516 129.221 36.3649 129.011 36.0066V38.2765H128.271V32.0945ZM129.011 34.2949C129.011 35.2592 129.386 36.0066 130.194 36.0066C130.657 36.0066 131.356 35.6856 131.356 34.5045C131.356 33.7749 131.281 32.6353 130.21 32.6353C129.066 32.6353 129.011 33.7148 129.011 34.2949ZM125.392 31.9645C126.801 31.9645 127.43 33.1642 127.43 34.3068C127.43 35.4438 126.801 36.6516 125.392 36.6516C123.99 36.6516 123.354 35.4438 123.354 34.3068C123.354 33.1642 123.99 31.9645 125.392 31.9645ZM125.392 36.0066C126.452 36.0066 126.674 34.9001 126.674 34.3068C126.674 33.7084 126.452 32.6091 125.392 32.6091C124.338 32.6091 124.113 33.7084 124.113 34.3068C124.113 34.9001 124.338 36.0066 125.392 36.0066ZM118.98 32.0945V36.5254H119.722V32.7145H121.777V36.5254H122.516V32.0945H118.98ZM114.303 32.0945H114.994V32.7183C115.233 32.3571 115.555 31.9645 116.323 31.9645C117.487 31.9645 118.142 32.9207 118.142 34.1797C118.142 35.238 117.725 36.6516 116.233 36.6516C115.641 36.6516 115.246 36.3649 115.038 36.0066V38.2765H114.303V32.0945ZM115.038 34.2949C115.038 35.2592 115.416 36.0066 116.221 36.0066C116.688 36.0066 117.386 35.6856 117.386 34.5045C117.386 33.7749 117.311 32.6353 116.246 32.6353C115.101 32.6353 115.038 33.7148 115.038 34.2949ZM111.422 31.9645C112.828 31.9645 113.46 33.1642 113.46 34.3068C113.46 35.4438 112.828 36.6516 111.422 36.6516C110.017 36.6516 109.387 35.4438 109.387 34.3068C109.387 33.1642 110.017 31.9645 111.422 31.9645ZM111.422 36.0066C112.482 36.0066 112.704 34.9001 112.704 34.3068C112.704 33.7084 112.482 32.6091 111.422 32.6091C110.368 32.6091 110.14 33.7084 110.14 34.3068C110.14 34.9001 110.368 36.0066 111.422 36.0066ZM105.026 30.4425H104.216V36.5254H105.026V34.3864L105.974 33.4751L108.089 36.5254H109.146L106.566 32.8949L109.077 30.4425H107.952L105.026 33.3908V30.4425ZM119.539 22.9364H118.799V27.3664H119.539V25.6932L120.163 25.1059L121.587 27.3664H122.467L120.689 24.5837L122.365 22.9364H121.428L119.539 24.8624V22.9364ZM114.994 22.9372H114.249V27.3664H114.994V25.3405H117.043V27.3664H117.786V22.9372H117.043V24.7209H114.994V22.9372ZM109.628 24.2843C109.628 23.2193 110.351 22.8093 111.439 22.8093C111.789 22.8093 113.068 22.9106 113.068 24.0506V26.5791C113.068 26.7663 113.159 26.8574 113.312 26.8574C113.378 26.8574 113.471 26.8413 113.554 26.8218V27.3664C113.431 27.4037 113.32 27.4515 113.153 27.4515C112.496 27.4515 112.405 27.1085 112.37 26.7714C112.079 27.0848 111.638 27.4964 110.784 27.4964C109.976 27.4964 109.414 26.9806 109.414 26.2103C109.414 25.6822 109.546 24.9043 111.088 24.79C112.25 24.6955 112.329 24.6053 112.329 24.1412C112.329 23.6559 112.006 23.4293 111.305 23.4293C110.469 23.4293 110.351 23.9502 110.31 24.2843H109.628ZM112.329 25.1059C112.211 25.199 112.033 25.2638 111.115 25.3803C110.751 25.4302 110.168 25.5332 110.168 26.0921C110.168 26.5791 110.428 26.873 110.978 26.873C111.666 26.873 112.329 26.4301 112.329 25.8351V25.1059ZM108.462 21.2865V22.0119H105.026V23.799H106.993C108.305 23.799 108.804 24.8111 108.804 25.6585C108.804 26.6397 108.108 27.3664 107.015 27.3664H104.216V21.2865H108.462ZM105.026 26.6397H106.777C107.447 26.6397 107.963 26.4127 107.963 25.6492C107.963 24.8289 107.447 24.5253 106.719 24.5253H105.026V26.6397ZM73.5641 21.151H68.157L57.3807 32.2847V26.0578C57.2135 26.1853 57.0194 26.2679 56.8304 26.3035C56.7758 26.3145 56.7043 26.3221 56.6195 26.3221H56.6111C56.3426 26.3221 56.0469 26.2323 55.8062 26.0172C54.858 25.1643 53.6007 23.5305 53.1432 22.7666C53.1432 22.7602 53.1432 22.7568 53.1352 22.756V45.6975H57.3807V37.4566L60.8679 33.9426L68.8775 45.6975H74.1749L63.8128 30.9414L73.5641 21.151ZM87.6159 27.2508V39.217C91.3443 38.7694 93.8477 37.319 93.8477 33.3205C93.8481 29.3203 91.3082 27.6294 87.6159 27.2508ZM83.3402 27.2508C79.648 27.6294 77.1139 29.3203 77.1139 33.3205C77.1139 37.319 79.6118 38.7694 83.3402 39.217V27.2508ZM87.6159 42.9432V45.6975H83.3402V42.9432C78.1411 42.8335 72.8382 39.7315 72.8382 33.3205C72.8382 27.0797 77.763 23.6991 83.3402 23.5242V21.151H87.6159V23.5242C93.2915 23.7321 98.1184 27.0797 98.1184 33.3205C98.1184 39.7315 92.8508 42.8335 87.6159 42.9432ZM41.3237 34.0417H34.2758V42.1801H41.3922C44.1972 42.1801 45.5995 40.8385 45.5995 38.1846C45.5995 35.5959 43.9947 34.0417 41.3237 34.0417ZM41.5644 45.6975H30V21.151H47.923V24.8721H34.2758V30.5264H41.5644C46.9009 30.5264 49.8757 33.2519 49.8757 38.077C49.8757 42.9432 46.8678 45.6979 41.5644 45.6975Z" fill="#686867"/>
</svg>
