<svg version="1.1" id="Layer_1" xmlns="http://www.w3.org/2000/svg" x="0" y="0" viewBox="0 0 200 50" xml:space="preserve">
  <defs/>
  <style>
    .st2{fill-rule:evenodd;clip-rule:evenodd;fill:#2c3345}
  </style>
  <linearGradient id="SVGID_1_" gradientUnits="userSpaceOnUse" x1="68.7656" y1="54.3604" x2="18.9833" y2="-.3016" gradientTransform="matrix(1 0 0 -1 0 52)">
    <stop offset="0" stop-color="#ff8447"/>
    <stop offset="1" stop-color="#fa363b"/>
  </linearGradient>
  <path d="M60.8 4.4C59.3 1.7 56.3 0 53.2 0H34.6c-3.1 0-6.1 1.7-7.6 4.4l-9.3 16.1c-1.6 2.7-1.6 6.1 0 8.9L27 45.5c1.6 2.7 4.5 4.4 7.6 4.4h18.6c3.1 0 6.1-1.7 7.6-4.4l9.3-16.1c1.7-2.7 1.7-6.1.1-8.9L60.8 4.4z" fill-rule="evenodd" clip-rule="evenodd" fill="url(#SVGID_1_)"/>
  <path d="M39.5 27.2c.3-.4.5-.7.7-1.1V26c.2-.3.4-.6.6-1.1 1-2 2.1-3.9 3.4-5.8 1.7-2.2 4.2-3.4 7-3.3 2.9 0 5.7 1.4 7.4 3.8 1.7 2.4 2.1 5.5 1 8.2-1 2.8-3.3 4.8-6.2 5.6-2.8.7-5.9 0-8.1-1.9l2.7-4.9c.7 1.1 1.9 1.8 3.2 1.8 1.3 0 2.5-.7 3.2-1.9.6-1.1.6-2.5 0-3.7-.7-1.1-1.9-1.8-3.2-1.8-1.1-.1-2.2.4-2.8 1.3-.3.4-.5.7-.7 1.1v.1c-.2.3-.4.6-.6 1.1-1 2-2.1 3.9-3.3 5.8-1.7 2.2-4.2 3.4-7 3.3-2.9 0-5.7-1.4-7.4-3.8-1.7-2.4-2.1-5.5-1-8.2 1-2.8 3.3-4.8 6.2-5.6 2.8-.7 5.9 0 8.1 1.9l-2.8 5c-.2-.3-.4-.6-.7-.8-.9-.8-2.1-1.2-3.3-.9-1.2.3-2.2 1.1-2.6 2.2-.4 1.1-.3 2.4.4 3.4s1.8 1.6 3 1.6c1.1.1 2.2-.4 2.8-1.3z" fill-rule="evenodd" clip-rule="evenodd" fill="#f0f8ff"/>
  <path class="st2" d="M92.7 16.5h-1.2v-1.6c0-.2-.1-.3-.4-.3h-2.3c-.2 0-.3.1-.3.3v1.6h-1.2c-1.9 0-3.5.6-4.8 1.7-1.3 1.1-1.9 2.8-1.9 5.1v3.2c0 2.3.6 4 1.9 5.1 1.3 1.1 2.9 1.7 4.8 1.7h1.2V35c0 .2.1.4.3.4h2.3c.2 0 .4-.1.4-.4v-1.7h1.2c1.9 0 3.5-.6 4.8-1.7 1.3-1.1 1.9-2.8 1.9-5.1v-3.2c0-2.2-.6-3.9-1.9-5.1-1.3-1.1-2.9-1.7-4.8-1.7zm-4.2 14.1h-1c-1.1 0-2-.3-2.7-.9-.7-.6-1-1.6-1-3v-3.3c0-2.6 1.3-3.9 3.8-3.9h1v11.1zm7.8-4c0 1.4-.3 2.4-1 3-.7.6-1.6.9-2.7.9h-1V19.4h1c2.5 0 3.8 1.3 3.8 3.9v3.3zM107.7 20.6c-1.7 0-3.1.5-4.1 1.4-1 .9-1.5 2.2-1.5 3.7V29c0 1.5.5 2.8 1.5 3.7 1 .9 2.4 1.4 4.1 1.4 1.7 0 3.1-.5 4.1-1.4 1-.9 1.5-2.1 1.5-3.7v-3.3c0-1.6-.5-2.8-1.5-3.7-1-.9-2.4-1.4-4.1-1.4zm2.7 8.5c0 .8-.2 1.4-.7 1.8-.5.4-1.2.6-2.1.6-1.8 0-2.8-.8-2.8-2.4v-3.3c0-.8.2-1.5.7-1.9.5-.4 1.2-.6 2.1-.6.9 0 1.6.2 2 .7.5.4.7 1.1.7 1.9v3.2zM121.3 20.6c-1.8 0-3.5.3-5 .9-.2.1-.3.2-.3.4v16.3c0 .2.1.4.4.4h2.1c.2 0 .4-.1.4-.4v-4.6c.8.4 1.7.5 2.6.5 1.6 0 2.9-.5 4-1.4 1-1 1.5-2.3 1.5-3.9v-2.7c0-1.8-.5-3.2-1.6-4.1-.9-.9-2.3-1.4-4.1-1.4zm2.8 8.2c0 1.8-.9 2.7-2.8 2.7-.9 0-1.7-.2-2.4-.7v-7.4c.6-.2 1.3-.3 2.3-.3.9 0 1.7.2 2.1.7.5.4.7 1.2.7 2.2v2.8zM137 22.9h-3.8v-4.2h8.2c.2 0 .4-.1.4-.4v-2c0-.2-.1-.4-.4-.4h-10.9c-.2 0-.3.1-.3.4v17.1c0 .2.1.4.3.4h6.5c1.9 0 3.4-.5 4.5-1.4 1.1-.9 1.7-2.3 1.7-4.1 0-1.9-.5-3.2-1.5-4.1-1-.8-2.6-1.3-4.7-1.3zm2.4 7.5c-.5.4-1.3.6-2.4.6h-3.8v-5.4h3.8c1.1 0 1.9.2 2.4.6.5.4.7 1.1.7 2 .1 1.1-.2 1.8-.7 2.2zM150.6 20.6c-2 0-3.6.4-4.9 1.3-.1.1-.1.2 0 .4l1 1.5c.1.2.3.2.5.1.9-.5 2-.8 3.2-.8.9 0 1.6.2 1.9.6.4.4.6 1 .6 1.9v.5c-1-.1-1.8-.2-2.5-.2-1.7 0-3 .3-4 1s-1.5 1.7-1.5 3c0 1.4.5 2.5 1.6 3.2 1 .7 2.4 1 4 1 1.7 0 3.4-.2 5-.7.2-.1.3-.2.3-.4v-7.3c0-1.7-.5-3-1.4-3.8-.9-.9-2.2-1.3-3.8-1.3zm2.3 10.7c-.8.2-1.6.3-2.4.3-.8 0-1.4-.1-1.9-.4-.5-.3-.7-.7-.7-1.3 0-1.1.9-1.6 2.6-1.6.7 0 1.5.1 2.4.2v2.8zM169 20.9h-2.1c-.2 0-.4.1-.4.3v4.6h-4.8v-4.6c0-.2-.1-.3-.4-.3h-2.1c-.2 0-.4.1-.4.3v12.2c0 .2.1.4.4.4h2.1c.2 0 .4-.1.4-.4v-5h4.8v5c0 .2.1.4.4.4h2.1c.2 0 .4-.1.4-.4V21.3c0-.3-.2-.4-.4-.4zM183.4 33.4l-5.2-6.9 4.7-5.1c.1-.1.1-.2.1-.3 0-.1-.1-.1-.3-.1h-2.5c-.2 0-.3.1-.4.2l-4.5 5v-4.8c0-.2-.1-.4-.4-.4h-2.1c-.2 0-.4.1-.4.4v12.2c0 .2.1.4.4.4h2.1c.2 0 .4-.1.4-.4v-3.9l1-1.1 3.9 5.1c.1.1.2.2.4.2h2.5c.4-.1.5-.2.3-.5z"/>
  <path d="M155.4 13l-1.8 5.5c-.1.2-.2.3-.4.3h-1.7c-.3 0-.4-.1-.3-.4l1.4-5.5c.1-.2.2-.3.4-.3h2.2c.1 0 .2.1.2.4z" fill-rule="evenodd" clip-rule="evenodd" fill="#fd6842"/>
</svg>
