<svg width="200" height="50" viewBox="0 0 200 50" fill="none" xmlns="http://www.w3.org/2000/svg">
<path fill-rule="evenodd" clip-rule="evenodd" d="M57.357 24.2354C57.357 24.5647 57.357 24.2354 57.357 24.2354C57.0277 23.9062 56.6984 23.5769 56.0399 23.2476C57.0277 23.9062 57.357 24.2354 57.357 24.2354C57.357 24.2354 57.357 20.284 57.0277 19.9547C54.7227 16.6618 40.234 17.6497 21.4645 22.9183C16.8544 24.5647 10.5979 26.8698 5 29.1748V29.8334C7.30503 28.8455 9.93934 28.1869 12.5737 27.5283C27.3917 23.2476 45.5026 21.6011 53.4055 22.9183C54.3934 22.9183 55.052 23.2476 55.3813 23.2476H55.7106H55.3813C53.4055 25.2233 49.7834 27.8576 45.5026 29.8334C50.7712 27.8576 57.357 25.8819 57.357 24.2354C57.357 24.5647 57.357 24.5647 57.357 24.2354Z" fill="#0059A5"/>
<path fill-rule="evenodd" clip-rule="evenodd" d="M148.57 27.8576L147.253 27.5283C146.924 29.8334 145.607 30.8212 143.302 30.4919C142.314 30.4919 141.326 30.1626 140.667 29.1748C140.009 28.1869 139.679 26.8698 139.679 25.2233C139.679 23.5769 140.009 22.2597 140.667 21.2718C141.326 20.284 142.314 19.9547 143.302 19.9547C144.948 19.9547 145.936 20.9425 146.595 22.9183L148.241 22.589C147.582 19.6254 145.936 18.3082 143.631 18.3082C141.984 18.3082 140.667 18.9668 139.679 20.284C138.692 21.6011 138.362 23.2476 138.362 25.2233C138.362 27.199 138.692 28.8455 139.679 30.1626C140.667 31.4798 141.984 32.1384 143.631 32.1384C146.265 32.1384 147.912 30.8212 148.57 27.8576ZM85.3467 28.5161L86.6638 28.1868C86.9931 29.1747 87.3224 29.8333 87.981 30.4919C88.6396 30.8212 89.2982 31.1504 90.286 31.1504C91.2739 31.1504 91.9325 30.8212 92.591 30.4919C93.2496 30.1626 93.2496 29.504 93.2496 28.5162V28.5161C93.2496 26.8697 92.2618 26.2111 90.6153 26.2111H89.2982V24.5647H90.286C90.9446 24.5647 91.6032 24.2354 92.2618 23.9061C92.591 23.5768 92.9203 22.9182 92.9203 22.2596C92.9203 21.6011 92.591 20.9425 92.2618 20.6132C91.9325 20.2839 91.2739 19.9546 90.286 19.9546C88.6396 19.9546 87.6517 20.9425 87.3224 22.5889L85.676 22.2596C86.3345 19.9546 87.6517 18.6375 90.286 18.6375C91.6032 18.6375 92.591 18.9667 93.5789 19.6253C94.2375 20.2839 94.8961 20.9425 94.8961 22.2596C94.8961 23.9061 93.9082 24.5647 92.2618 25.2232C94.2375 25.5525 95.2254 26.5404 95.2254 28.5161C95.2254 29.504 94.8961 30.4919 93.9082 31.1504C93.2496 31.809 91.9325 32.4676 90.286 32.4676C88.9689 32.4676 87.6517 32.1383 86.9931 31.4797C86.0053 30.4919 85.676 29.504 85.3467 28.5161ZM67.8943 18.9668V32.1384H69.5407V20.6132H74.4801V18.9668H67.8943ZM79.4194 20.6133L81.3951 26.8698H77.4437L79.4194 20.6133ZM83.0416 32.1384H84.688L80.7365 19.2961H78.4315L74.1508 32.1384H75.4679L76.7851 28.5162H81.7244L83.0416 32.1384ZM99.5061 32.1384H101.153V20.6132H104.775V18.9668H95.8839V20.6132H99.5061V32.1384ZM108.068 25.5526H111.031C111.69 25.5526 112.348 25.2233 113.007 24.894C113.336 24.2354 113.666 23.5768 113.666 22.9183C113.666 22.2597 113.336 21.6011 113.007 21.2718C112.678 20.6132 112.019 20.6132 111.031 20.6132H108.068V25.5526ZM108.068 32.1384H106.421V18.9668H111.031C112.348 18.9668 113.666 19.2961 114.324 20.284C114.983 20.9425 115.312 21.9304 115.312 22.9183C115.312 23.9061 114.983 24.894 114.324 25.5526C113.666 26.2112 112.678 26.5405 111.36 26.5405H108.068V32.1384ZM120.251 20.6133L122.227 26.8698H118.276L120.251 20.6133ZM123.873 32.1384H125.52L121.239 19.2961H119.263L114.983 32.1384H116.3L117.617 28.5162H122.556L123.873 32.1384ZM136.386 32.1384H134.74V25.8819H128.813V32.1384H127.166V18.9668H128.813V24.5647H134.74V18.9668H136.386V32.1384ZM152.522 30.4919H155.485C157.132 30.4919 158.12 29.8333 158.12 28.1869C158.12 27.5283 157.79 26.8697 157.461 26.5405C157.132 26.2112 156.144 25.8819 155.156 25.8819H152.522V30.4919ZM150.875 32.1384V18.9668H158.449V20.6132H152.522V24.5647H154.827C156.144 24.5647 156.802 24.5647 157.461 24.894C158.12 25.2233 158.778 25.5526 159.107 26.2112C159.437 26.5405 159.766 27.5283 159.766 28.1869C159.766 29.1748 159.437 30.1626 158.778 30.8212C158.12 31.4798 157.132 31.8091 155.485 31.8091L150.875 32.1384ZM165.364 20.6133L167.34 26.8698H163.388L165.364 20.6133ZM168.986 32.1384H170.633L166.352 19.2961H164.705L160.425 32.1384H161.742L163.059 28.5162H167.669L168.986 32.1384ZM181.828 32.1384H180.182V25.8819H173.925V32.1384H172.279V18.9668H173.925V24.5647H180.182V18.9668H181.828V32.1384ZM193.354 32.1384H195L190.719 23.5768L194.012 18.9668H192.366L186.438 26.5405V18.9668H184.792V32.1384H186.438V28.5162L189.402 24.894L193.354 32.1384Z" fill="#0059A5"/>
<path fill-rule="evenodd" clip-rule="evenodd" d="M39.9047 17.6496C40.234 17.6496 40.5633 17.9789 40.8926 18.3082C39.9047 18.6375 39.2461 18.6375 38.2583 18.6375C38.9169 18.3082 39.5754 17.6496 39.9047 17.3203C39.7683 17.3203 39.6319 17.2638 39.4721 17.1976C39.2461 17.104 38.9734 16.991 38.5876 16.991C33.3189 16.3325 21.1352 17.3203 11.5858 19.9547C9.6101 20.6132 7.63436 21.2718 5.98792 21.9304V21.6011C9.6101 19.9547 13.8909 18.3082 17.1838 17.3203C29.6968 13.6982 39.2461 13.0396 40.5633 15.3446C40.8624 15.6437 40.8898 17.8439 40.8923 18.2454C40.8886 17.9383 40.8297 17.6496 39.9047 17.6496ZM40.8923 18.2454C40.8926 18.2663 40.8926 18.2872 40.8926 18.3082C40.8926 18.3082 40.8926 18.286 40.8923 18.2454ZM52.0884 32.4676C52.0884 32.3346 52.0347 32.2553 51.9489 32.1863C52.0884 32.3506 52.0884 32.4676 52.0884 32.4676ZM51.9489 32.1863C51.8544 32.075 51.6959 31.942 51.4298 31.809C51.5556 31.9348 51.6814 32.0125 51.7888 32.0789C51.849 32.1161 51.9035 32.1498 51.9489 32.1863ZM52.0884 29.8333V32.4676C52.0884 33.2332 49.5175 34.1965 46.8278 35.2043C46.0468 35.497 45.2558 35.7934 44.5147 36.0898C47.4784 34.7726 49.7834 33.1262 51.1005 31.809C50.9641 31.809 50.8277 31.7525 50.6679 31.6863C50.442 31.5927 50.1692 31.4797 49.7834 31.4797C49.7111 31.4707 49.639 31.4617 49.5669 31.4527C44.3863 30.804 39.6969 30.2168 24.7574 34.1141C24.4583 34.2138 24.0988 34.3135 23.7064 34.4223C22.8027 34.6729 21.7243 34.972 20.8059 35.4312V34.7726C22.7816 33.7848 25.0867 32.7969 29.0381 31.809C41.2219 27.8576 50.442 27.8576 52.0884 29.8333Z" fill="#929295"/>
</svg>
