<svg width="200" height="50" viewBox="0 0 200 50" fill="none" xmlns="http://www.w3.org/2000/svg">
<path fill-rule="evenodd" clip-rule="evenodd" d="M42.6322 5L42.5493 5.45596C42.5493 5.45596 42.5079 5.78757 42.3835 6.32643L42.3569 6.42779C42.1483 7.22131 41.8256 8.44923 41.3887 9.60104C40.9742 10.6788 40.4353 11.7565 39.855 12.3782C39.0674 11.5078 38.3628 9.84974 37.9068 8.39897C37.6581 7.6114 37.4509 6.86529 37.3265 6.32643C37.2022 5.78757 37.1193 5.45596 37.1193 5.45596L37.0778 5H33.969L34.0519 5.62176C34.4664 9.14508 36.2488 13.3316 39.3161 15.4456H40.3939C43.4612 13.3731 45.2851 9.10363 45.6996 5.62176L45.741 5H42.6322ZM59.5855 27.8394L60.0414 27.9223V30.9896L59.4197 30.9067C55.9378 30.5337 51.6684 28.7098 49.5958 25.6425V24.5647C51.6684 21.4974 55.8963 19.6735 59.4197 19.3005L60.0414 19.2176V22.3264L59.5855 22.4093C59.5855 22.4093 59.2539 22.4922 58.715 22.6166C58.1761 22.7409 57.43 22.9482 56.6425 23.1969C55.1502 23.6528 53.4922 24.3575 52.6632 25.1451C53.2849 25.7254 54.3627 26.2642 55.4404 26.6787C56.6839 27.1347 57.9274 27.4663 58.715 27.6736C59.2539 27.7979 59.5855 27.8394 59.5855 27.8394ZM20.4975 22.4508L20.0415 22.3679V19.2591L20.6633 19.342C24.1451 19.7151 28.4146 21.5389 30.4871 24.6062V25.684C28.3731 28.7513 24.1866 30.5752 20.6633 30.9482L20.0415 31.0311V27.9223L20.4975 27.798C20.4975 27.798 20.8291 27.7565 21.3679 27.6736C21.9068 27.5907 22.6529 27.3834 23.4405 27.1347C24.8912 26.6788 26.5493 25.9741 27.4197 25.1866C26.798 24.6062 25.7203 24.0674 24.6425 23.6529C23.5755 23.226 22.5084 22.9518 21.7294 22.7516C21.6006 22.7185 21.4797 22.6875 21.3679 22.6581C20.8291 22.4923 20.4975 22.4508 20.4975 22.4508ZM37.1607 44.544L37.0778 45H33.9275L34.0104 44.3782C34.4249 40.8964 36.2487 36.6269 39.3161 34.5544H40.3938C43.4612 36.6684 45.285 40.8549 45.6581 44.3782L45.741 45H42.7151L42.6322 44.544C42.6322 44.544 42.5493 44.2124 42.4249 43.6736C42.3006 43.1347 42.0933 42.3886 41.8446 41.601C41.3886 40.1502 40.684 38.4922 39.8964 37.6217C39.3161 38.2435 38.7772 39.3212 38.3627 40.3989C37.945 41.4083 37.6735 42.4762 37.4745 43.2589L37.4744 43.259C37.4365 43.4084 37.4011 43.5474 37.3679 43.6736C37.2021 44.2124 37.1607 44.544 37.1607 44.544ZM56.0207 12.627L55.6476 12.8757C55.6476 12.8757 55.3575 13.0829 54.9015 13.3731L54.8344 13.4126L54.8343 13.4126C54.127 13.8288 53.0415 14.4676 51.917 14.9897C50.8393 15.4871 49.7201 15.8187 48.8911 15.8601C48.9326 14.6995 49.5958 13.0415 50.3419 11.6736C50.6697 11.018 50.9975 10.4584 51.2691 9.99484L51.3782 9.8083C51.6683 9.35235 51.8341 9.06219 51.8341 9.06219L52.0828 8.73058L49.886 6.53369L49.4714 7.0311C47.2746 9.8083 45.5751 14.0777 46.2383 17.7254L46.9844 18.4715C50.6321 19.1762 54.943 17.4353 57.6787 15.2384L58.1761 14.8239L56.0207 12.627ZM24.1451 36.7513L23.772 37L21.6166 34.8445L22.114 34.43C24.8497 32.2331 29.1606 30.4922 32.8083 31.1968L33.5544 31.943C34.2176 35.6321 32.5181 39.8601 30.3212 42.6373L29.9067 43.1347L27.7098 40.9378L27.9585 40.5647C27.9585 40.5647 28.1244 40.2746 28.4145 39.8186L28.5236 39.6321L28.5236 39.6321L28.5237 39.632C28.7952 39.1684 29.123 38.6089 29.4508 37.9533C30.1554 36.5855 30.8601 34.9274 30.9016 33.7668C30.0725 33.8082 28.9534 34.1399 27.8756 34.6373C26.7512 35.1593 25.6657 35.7981 24.9584 36.2143L24.8912 36.2538C24.4352 36.544 24.1451 36.7513 24.1451 36.7513ZM52.3316 40.9793L52.0829 40.5648C52.0829 40.5648 51.8757 40.2746 51.627 39.8187C51.171 39.114 50.5492 37.9948 50.0104 36.8342C49.513 35.7565 49.1399 34.6373 49.1399 33.8083C50.3005 33.8498 51.9586 34.5544 53.3264 35.2591C53.982 35.5869 54.5416 35.9147 55.0052 36.1862L55.1917 36.2953C55.6477 36.5855 55.9378 36.7928 55.9378 36.7928L56.3109 37.0415L58.5078 34.8446L58.0104 34.4301C55.2332 32.2332 50.9637 30.5337 47.3161 31.1969L46.57 31.943C45.8653 35.5907 47.6062 39.9016 49.8031 42.6373L50.2176 43.1347L52.3316 40.9793ZM28.2073 9.14502L27.9586 8.73051L30.0726 6.57507L30.4871 7.07248C32.684 9.80824 34.425 14.1191 33.7203 17.7668L32.9742 18.5129C29.3265 19.1761 25.0571 17.4766 22.2799 15.2797L21.7825 14.8652L23.9794 12.6683L24.3939 12.917C24.3939 12.917 24.684 13.1243 25.14 13.4145L25.3265 13.5236C25.7901 13.7951 26.3497 14.1229 27.0053 14.4507C28.3731 15.1968 30.0312 15.8601 31.1918 15.9015C31.1504 15.0725 30.8187 13.9533 30.3213 12.8756C29.7993 11.7512 29.1605 10.6656 28.7442 9.95823L28.7048 9.89114C28.4146 9.43518 28.2073 9.14502 28.2073 9.14502ZM121.306 20.5855C118.28 20.5855 116.332 21.5803 116.332 21.5803L116.912 23.6114C116.912 23.6114 118.446 22.9067 120.394 22.9067C122.218 22.9067 123.047 23.6528 123.047 25.1451C118.031 25.1451 115.627 26.8445 115.627 29.2901C115.627 31.5699 117.451 33.2694 121.223 33.2694C123.503 33.2694 125.617 32.5233 126.446 32.0673V25.1451C126.404 22.4508 124.58 20.5855 121.306 20.5855ZM111.275 16.6476V20.7927H114.674L114.466 23.114H111.275V29.4974C111.275 30.3679 111.855 30.8653 112.601 30.8653C113.306 30.8653 114.01 30.6166 114.715 30.285L114.964 32.1917C113.927 32.8964 112.477 33.228 111.523 33.228C109.244 33.228 107.834 31.9015 107.834 29.4559V16.8963L111.275 16.6476ZM96.6011 30.3264C97.9689 30.7409 99.2539 30.9067 100.497 30.9067C101.99 30.9067 102.653 30.5751 102.653 29.9119C102.653 29.1928 101.6 28.7638 100.344 28.252C98.4876 27.4952 96.1865 26.5575 96.1865 24.2331C96.1865 21.9948 97.886 20.5855 101.368 20.5855C103.067 20.5855 104.85 21.2072 105.679 21.5803L105.306 23.6114C103.979 23.114 102.819 22.9067 101.782 22.9067C100.373 22.9067 99.7099 23.3212 99.7099 23.943C99.7099 24.7303 100.812 25.1925 102.107 25.7352C103.947 26.5069 106.176 27.4414 106.176 29.7046C106.176 32.1502 104.518 33.2694 101.119 33.2694C99.5441 33.2694 97.3472 32.8549 96.2694 32.3989L96.6011 30.3264ZM94.2384 32.2746C92.8705 32.8549 91.1295 33.2694 89.513 33.2694C85.4508 33.2694 83.3782 30.7824 83.3368 27.0932C83.3368 23.2383 85.5337 20.5855 89.2643 20.5855C92.9948 20.5855 94.8187 23.0725 94.8187 25.9741C94.8187 26.1399 94.7772 27.2176 94.6529 27.7979H86.8601C86.8601 29.7046 88.1451 30.8653 90.3005 30.8653C91.3368 30.8653 92.6218 30.658 93.6995 30.2021L94.2384 32.2746ZM86.8601 25.601H91.3783C91.3783 23.8186 90.5492 22.8238 89.0985 22.8238C87.6891 22.8653 86.8601 23.943 86.8601 25.601ZM123.005 30.7824C122.996 30.7854 122.984 30.7895 122.97 30.7945C122.788 30.8587 122.181 31.0725 121.181 31.0725C119.772 31.0725 119.067 30.285 119.067 29.373C119.067 28.0052 120.352 27.2591 123.005 27.0932V30.7824ZM79.2746 16.7306H82.8394C83.2324 27.8516 77.5156 32.8628 76.9557 33.3536C76.925 33.3805 76.9098 33.3938 76.9119 33.3938H74.798C74.798 33.3938 68.4145 28.4612 68.829 16.7306H72.3938C72.3938 16.7306 72.4353 26.6373 75.8342 29.9119C79.2332 26.5959 79.2746 16.7306 79.2746 16.7306Z" fill="#EE151F"/>
<path fill-rule="evenodd" clip-rule="evenodd" d="M39.855 12.3368C39.0675 11.5078 38.2384 9.43524 37.9068 8.31606C37.3265 6.53368 37.0778 5 37.0778 5C37.0778 5 36.0001 10.5959 39.855 15.4456C43.6685 10.5959 42.6322 5 42.6322 5C42.6322 5 42.3835 6.53368 41.8032 8.31606C41.0441 10.8972 40.1459 11.9837 39.9044 12.2758L39.9044 12.2758C39.8821 12.3027 39.8655 12.3228 39.855 12.3368ZM23.3575 27.0932C24.4767 26.7616 26.5492 25.9326 27.3782 25.1451C27.2124 24.9793 26.1762 24.0259 23.3575 23.1969C21.5751 22.6166 20.0415 22.3679 20.0415 22.3679C20.0415 22.3679 25.6373 21.2901 30.4871 25.1451C25.5959 29 20 27.9223 20 27.9223C20 27.9223 21.5751 27.6736 23.3575 27.0932ZM56.7254 23.1969C55.6062 23.5285 53.5336 24.3575 52.7046 25.1451C52.7175 25.1547 52.7357 25.1695 52.7598 25.1891L52.7602 25.1893L52.7604 25.1895C53.0487 25.4235 54.1646 26.3288 56.7254 27.0932C58.5077 27.6736 60.0414 27.9223 60.0414 27.9223C60.0414 27.9223 54.4456 29 49.5958 25.1451C54.4456 21.2901 60.0414 22.3679 60.0414 22.3679C60.0414 22.3679 58.5077 22.6166 56.7254 23.1969ZM41.8032 41.6839C41.4716 40.5647 40.6426 38.4922 39.855 37.6632C39.6892 37.829 38.7358 38.8653 37.9068 41.6839C37.3265 43.4663 37.0778 45 37.0778 45C37.0778 45 36.0001 39.4041 39.855 34.5544C43.7099 39.4041 42.6322 45 42.6322 45C42.6322 45 42.3835 43.4663 41.8032 41.6839ZM48.8497 15.9016C48.8912 14.741 49.7616 12.7099 50.3005 11.6736C51.171 10.0156 52.0829 8.73059 52.0829 8.73059C52.0829 8.73059 47.3575 11.9223 46.6528 18.0985C52.7876 17.3524 55.9793 12.627 55.9793 12.627C55.9793 12.627 54.6943 13.5389 53.0363 14.3679C50.7589 15.6373 49.3558 15.8306 48.9481 15.8867C48.9032 15.8929 48.8703 15.8975 48.8497 15.9016ZM29.4923 37.9949C30.0312 36.9586 30.9016 34.9275 30.9431 33.7669C30.7358 33.7669 29.285 33.8498 26.7151 35.2591C25.0571 36.0881 23.7721 37.0001 23.7721 37.0001C23.7721 37.0001 27.0053 32.2747 33.14 31.57C32.4353 37.7047 27.7099 40.9379 27.7099 40.9379C27.7099 40.9379 28.6218 39.6529 29.4923 37.9949ZM49.0985 33.8083C50.2591 33.8498 52.2902 34.7203 53.3265 35.2591C54.9845 36.1296 56.2695 37.0415 56.2695 37.0415C56.2695 37.0415 53.0778 32.3161 46.9016 31.6115C47.6063 37.7462 52.3317 40.9379 52.3317 40.9379C52.3317 40.9379 51.4197 39.6529 50.5907 37.9949C49.1814 35.4664 49.0985 34.0156 49.0985 33.8083ZM27.0053 14.4508C28.0415 14.9897 30.0726 15.8601 31.2332 15.9016C31.2288 15.8795 31.2244 15.8433 31.2183 15.7932C31.167 15.3726 30.9958 13.9698 29.6996 11.6736C28.8705 10.0156 27.9586 8.73059 27.9586 8.73059C27.9586 8.73059 32.684 11.9638 33.4301 18.0985C27.2954 17.3938 24.0623 12.6684 24.0623 12.6684C24.0623 12.6684 25.3472 13.5803 27.0053 14.4508Z" fill="#CF151C"/>
<path fill-rule="evenodd" clip-rule="evenodd" d="M176.352 33.0622L171.834 27.5078H169.928V33.0207H167.482V16.7306L169.928 16.4819V25.6425H171.834L175.606 20.9171H178.301L173.451 26.4301L179.13 33.0622H176.352ZM163.005 33.0622V24.9793C163.005 22.0777 159.565 22.2435 157.658 22.9067V33.0207H155.213V21.4974C156.456 21 158.321 20.6684 160.104 20.6684C162.839 20.7099 165.451 21.6632 165.451 24.7306V33.0622H163.005V33.0622ZM150.694 26.9689C148.995 27.0518 145.762 27.0518 145.762 29.456C145.762 31.0726 147.254 31.5285 148.622 31.5285C149.285 31.5285 150.114 31.4871 150.694 31.1969V26.9689ZM153.057 32.4404C151.772 33.0622 150.114 33.3109 148.705 33.3109C146.218 33.3109 143.482 32.4819 143.482 29.4974C143.482 25.8083 147.959 25.4767 150.736 25.3109V24.5648C150.736 22.9896 149.575 22.4922 148.166 22.4922C147.047 22.4922 145.845 22.7409 144.808 23.2384L144.187 21.5389C145.472 20.9586 147.005 20.6684 148.415 20.6684C151.192 20.6684 153.057 21.9948 153.057 24.772V32.4404ZM139.627 28.5026C139.627 26.2228 137.637 25.6425 135.814 25.6425H133.078V30.9896C135.275 31.6943 139.627 31.7358 139.627 28.5026ZM139.254 21.0829C139.254 18.1399 135.067 18.0156 133.119 18.8031V23.7772H135.772C137.596 23.7772 139.254 23.114 139.254 21.0829ZM142.156 28.6684C142.156 32.1917 138.881 33.2694 135.855 33.2694C134.114 33.2694 132.249 33.1036 130.632 32.399V17.3523C132.207 16.6477 134.073 16.4819 135.814 16.4819C138.591 16.4819 141.658 17.6425 141.658 20.8342C141.658 22.4922 140.622 24.0259 139.005 24.4819V24.5233C140.829 25.0622 142.156 26.7202 142.156 28.6684Z" fill="#007AC3"/>
</svg>
