<svg width="200" height="50" viewBox="0 0 200 50" fill="none" xmlns="http://www.w3.org/2000/svg">
<path fill-rule="evenodd" clip-rule="evenodd" d="M130.71 14.0187H130.262V18.0935H130.785L132.916 14.9533V18.0187H133.402V14.0187H132.878L130.71 17.1963V14.0187ZM132.617 13.0841H132.243C132.186 13.1968 132.094 13.2884 131.981 13.3458H131.645H131.346C131.314 13.2614 131.314 13.1685 131.346 13.0841H131.009C131.019 13.2797 131.099 13.4653 131.234 13.6075C131.395 13.7288 131.592 13.7944 131.794 13.7944C131.997 13.7944 132.193 13.7288 132.355 13.6075C132.501 13.469 132.593 13.2838 132.617 13.0841ZM90.1746 15.2357C90.0846 15.5057 90.0506 15.7911 90.0746 16.0747C90.0698 16.424 90.1466 16.7696 90.2989 17.084C90.4511 17.3974 90.6912 17.6597 90.9899 17.839C91.2886 18.0182 91.633 18.1066 91.9812 18.0934C92.3182 18.0952 92.651 18.0184 92.9531 17.8691C93.2529 17.6884 93.4983 17.43 93.6634 17.1214C93.8206 16.7821 93.8974 16.4111 93.8877 16.0373C93.8935 15.6638 93.8169 15.2937 93.6634 14.9532C93.5133 14.6461 93.2802 14.3871 92.9905 14.2055C92.6793 14.0402 92.3335 13.9506 91.9812 13.9438C91.7245 13.9373 91.4692 13.9837 91.2312 14.0802C90.9932 14.1767 90.7777 14.3211 90.598 14.5046C90.4086 14.717 90.2645 14.9658 90.1746 15.2357ZM91.0092 17.2336C90.724 16.917 90.5761 16.5002 90.598 16.0747C90.5783 15.8461 90.6045 15.6159 90.6751 15.3976C90.7458 15.1793 90.8593 14.9774 91.0092 14.8037C91.1352 14.6732 91.2862 14.5695 91.4532 14.4988C91.6202 14.4281 91.7998 14.392 91.9812 14.3924C92.2362 14.387 92.4858 14.4659 92.6915 14.6167C92.9165 14.738 93.0894 14.9375 93.1774 15.1775C93.2999 15.4476 93.3637 15.7407 93.3643 16.0373C93.3842 16.4738 93.2372 16.9015 92.9531 17.2336C92.8275 17.3647 92.6766 17.4691 92.5096 17.5404C92.3426 17.6118 92.1628 17.6485 91.9812 17.6485C91.7995 17.6485 91.6198 17.6118 91.4528 17.5404C91.2857 17.4691 91.1348 17.3647 91.0092 17.2336ZM87.0468 14.0187H87.757V15.7757H88.243C88.3734 15.5198 88.4498 15.2399 88.4673 14.9533C88.5246 14.7538 88.6129 14.5646 88.729 14.3925C88.8104 14.2863 88.912 14.1974 89.0281 14.1308C89.1757 14.0972 89.329 14.0972 89.4767 14.1308H89.8131V14.5794H89.5888C89.5309 14.5499 89.4669 14.5345 89.4019 14.5345C89.3369 14.5345 89.2729 14.5499 89.215 14.5794C89.0748 14.7274 88.9722 14.9069 88.9159 15.1028C88.8222 15.3239 88.7096 15.5365 88.5795 15.7383L88.243 15.9626C88.5047 15.9626 88.7664 16.2617 88.9907 16.6729L89.8505 17.9813H89.1776L88.5047 16.8972C88.3773 16.6821 88.2269 16.4815 88.0561 16.2991C87.8982 16.2476 87.728 16.2476 87.5701 16.2991V18.1682H87.0468V14.0187ZM184.953 21.271C185.061 21.7258 185.061 22.1995 184.953 22.6542L180.654 29.4953V22.6916C180.61 22.2108 180.714 21.7279 180.953 21.3084C181.098 21.1625 181.275 21.0526 181.469 20.9876C181.664 20.9227 181.872 20.9045 182.075 20.9346H182.486V20.5981H175.869V20.9346H176.28C176.916 20.9346 177.477 21.0467 177.477 21.271C177.672 21.7175 177.749 22.2067 177.701 22.6916V30.8411C177.754 31.3463 177.649 31.8555 177.402 32.2991C177.25 32.4316 177.071 32.5302 176.877 32.5882C176.684 32.6462 176.48 32.6624 176.28 32.6355H175.869V32.972H182.486V32.6355H182.075C181.439 32.6355 180.878 32.486 180.878 32.2617C180.701 31.8494 180.625 31.401 180.654 30.9533L184.953 24.1122V30.8411C185.096 31.3167 185.096 31.8235 184.953 32.2991C184.775 32.4625 184.558 32.5789 184.323 32.6376C184.088 32.6964 183.842 32.6956 183.607 32.6355H183.196V32.972H190V32.6355H189.551C189.351 32.6624 189.148 32.6462 188.954 32.5882C188.761 32.5302 188.582 32.4316 188.43 32.2991C188.2 31.8498 188.109 31.3423 188.168 30.8411V22.6916C188.107 22.2024 188.198 21.7063 188.43 21.271C188.582 21.1385 188.761 21.0399 188.954 20.9819C189.148 20.9239 189.351 20.9077 189.551 20.9346H190V20.5981H183.346V20.9346H183.757C184.393 20.9346 184.766 21.0467 184.953 21.271ZM180.019 18.9159C180.878 19.288 181.813 19.4544 182.748 19.4019H182.822C183.733 19.4568 184.644 19.2901 185.477 18.9159C185.723 18.8259 185.938 18.6636 186.091 18.4503C186.244 18.2369 186.33 17.9823 186.336 17.7196C186.342 17.5955 186.321 17.4715 186.276 17.3557C186.231 17.2399 186.163 17.1346 186.075 17.0467C185.895 16.9014 185.671 16.8222 185.439 16.8224C184.953 16.8224 184.579 17.1215 184.28 17.7196C184.15 18.0276 183.945 18.2976 183.682 18.5047C183.363 18.5838 183.029 18.5838 182.71 18.5047C182.403 18.5764 182.083 18.5764 181.776 18.5047C181.524 18.3198 181.34 18.057 181.252 17.757C180.991 17.1215 180.617 16.8224 180.093 16.8224C179.861 16.8156 179.634 16.8955 179.458 17.0467C179.371 17.1275 179.303 17.2261 179.258 17.3358C179.212 17.4455 179.191 17.5637 179.196 17.6822C179.206 17.9437 179.289 18.1972 179.434 18.4149C179.579 18.6326 179.781 18.8059 180.019 18.9159ZM146.449 20.2989V24.5979H146.112C145.909 23.5979 145.383 22.692 144.617 22.0185C143.92 21.4224 143.029 21.1031 142.112 21.1213C141.35 21.1231 140.606 21.3579 139.981 21.7942C139.363 22.2365 138.883 22.846 138.598 23.5512C138.185 24.5195 137.981 25.5641 138 26.6166C137.998 27.64 138.137 28.6588 138.411 29.6447C138.65 30.4464 139.118 31.1609 139.757 31.7008C140.429 32.1884 141.245 32.4383 142.075 32.411C142.816 32.4068 143.546 32.2274 144.206 31.8877C144.984 31.42 145.678 30.8263 146.262 30.1307V31.1774C145.661 31.8514 144.921 32.3871 144.093 32.7475C143.255 33.1071 142.351 33.2855 141.439 33.2708C140.219 33.2775 139.015 32.9957 137.925 32.4484C136.928 31.9437 136.107 31.1486 135.57 30.168C135.014 29.2144 134.718 28.1317 134.71 27.0279C134.718 25.8434 135.041 24.6824 135.645 23.6634C136.231 22.6218 137.099 21.7666 138.149 21.1961C139.171 20.6037 140.333 20.294 141.514 20.2989C142.451 20.3132 143.376 20.5034 144.243 20.8596C144.588 21.0196 144.952 21.1328 145.327 21.1961C145.484 21.2532 145.656 21.2532 145.813 21.1961C145.991 21.0004 146.096 20.7497 146.112 20.4858L146.449 20.2989ZM40.4299 20.598H46.8598V20.9345H46.6355C46.4178 20.9032 46.196 20.9169 45.9838 20.9747C45.7716 21.0326 45.5736 21.1334 45.4019 21.2709C45.2004 21.6222 45.1092 22.026 45.1402 22.4298V26.1681C45.6376 26.2133 46.1381 26.2133 46.6355 26.1681C46.923 26.0966 47.1751 25.9241 47.3458 25.6821C47.659 25.1921 47.8748 24.6463 47.9813 24.0746C48.1558 23.3618 48.3807 22.6622 48.6542 21.9812C48.8721 21.5486 49.1931 21.1763 49.5888 20.8971C50.0361 20.6163 50.5561 20.4733 51.0841 20.4859C51.3354 20.4716 51.5869 20.5072 51.8243 20.5906C52.0617 20.674 52.2802 20.8036 52.4673 20.9718C52.6402 21.1261 52.7767 21.3167 52.8672 21.53C52.9577 21.7433 52.9999 21.974 52.9907 22.2055C52.9995 22.3701 52.9741 22.5348 52.9162 22.6892C52.8583 22.8436 52.7691 22.9844 52.6542 23.1027C52.4105 23.3276 52.0885 23.4483 51.757 23.4391C51.0841 23.4391 50.7103 23.0279 50.6355 22.2429C50.6262 22.1444 50.6191 22.0612 50.6132 21.991C50.593 21.7513 50.5855 21.6634 50.5409 21.636C50.5151 21.6202 50.4767 21.6247 50.4162 21.6318C50.368 21.6374 50.3056 21.6447 50.2243 21.6447C50.0774 21.6525 49.935 21.6978 49.8107 21.7764C49.6863 21.8549 49.5842 21.9641 49.514 22.0933C49.2299 22.624 49.0163 23.1896 48.8785 23.7756C48.6542 24.5606 48.4673 25.1214 48.3178 25.5326C48.173 25.905 47.9424 26.2379 47.6449 26.5046C47.9708 26.5733 48.2773 26.7138 48.5421 26.9158C48.7745 27.067 48.9669 27.2722 49.1028 27.5139C49.3022 27.788 49.676 28.4236 50.2243 29.4204L51.458 31.7008C51.6451 31.9825 51.8866 32.2239 52.1682 32.4111C52.4569 32.5977 52.7968 32.6893 53.1402 32.6728V33.0092H49.1402L46.6355 28.2242C46.4845 27.8643 46.2691 27.5349 46 27.2522C45.7322 27.1688 45.4454 27.1688 45.1776 27.2522V31.2522C45.1776 31.8503 45.1776 32.2242 45.5514 32.3737C45.9626 32.5969 46.4324 32.6883 46.8972 32.6354V32.9718H40.4299V32.6354C40.9168 32.6985 41.4096 32.5786 41.8131 32.2989C42.0374 32.112 42.1496 31.7008 42.1496 31.0279V22.7662C42.1984 22.2654 42.1078 21.7609 41.8879 21.3083C41.701 21.0466 41.3271 20.9345 40.6916 20.9345H40.4299V20.598ZM58.6354 27.3645V30.8038C58.5724 31.2251 58.5724 31.6535 58.6354 32.0748C58.7574 32.2392 58.9097 32.3788 59.084 32.486C59.468 32.5463 59.859 32.5463 60.2429 32.486V32.8225H54.1121V32.6356C54.496 32.6958 54.887 32.6958 55.2709 32.6356C55.4429 32.5385 55.5851 32.3963 55.6822 32.2244C55.7721 31.8055 55.7721 31.3722 55.6822 30.9533V22.7664C55.7721 22.3475 55.7721 21.9143 55.6822 21.4954C55.5851 21.3234 55.4429 21.1812 55.2709 21.0842C54.8888 21.0046 54.4943 21.0046 54.1121 21.0842V20.5982H59.4952C60.8106 20.486 62.1258 20.8148 63.2336 21.5328C63.5907 21.7908 63.8888 22.1218 64.1081 22.504C64.3273 22.8862 64.4627 23.3106 64.5051 23.7492C64.5476 24.1877 64.4961 24.6303 64.3542 25.0474C64.2123 25.4645 63.9832 25.8466 63.6822 26.1683C63.1399 26.7665 62.4186 27.173 61.6261 27.3272C60.6336 27.4489 59.6307 27.4614 58.6354 27.3645ZM58.6354 21.3085V26.6543H59.084C59.3887 26.7001 59.6997 26.6805 59.9962 26.5967C60.2928 26.5129 60.568 26.3668 60.8036 26.1683C61.0779 25.8736 61.2891 25.5259 61.4241 25.1466C61.5591 24.7673 61.6151 24.3644 61.5887 23.9627C61.6632 23.2372 61.4482 22.5117 60.9906 21.944C60.7496 21.7227 60.4665 21.5524 60.1582 21.4432C59.8499 21.334 59.5226 21.2882 59.1962 21.3085H58.6354ZM70.1121 26.3552V21.3084L71.3083 21.5327C71.9412 21.4514 72.582 21.4514 73.2149 21.5327C73.7392 21.6787 74.2078 21.9781 74.5607 22.3925C74.9711 22.9664 75.2284 23.6355 75.3083 24.3365H75.6822V20.5981H65.327V20.9346H65.6635C65.9957 20.9125 66.3256 21.0049 66.5981 21.1963C66.7598 21.3176 66.8779 21.4881 66.9345 21.6823C66.9642 22.0305 66.9642 22.3807 66.9345 22.729V30.8411C67.0008 31.2246 67.0008 31.6166 66.9345 32C66.9118 32.0937 66.8703 32.1818 66.8124 32.2589C66.7546 32.336 66.6816 32.4006 66.5981 32.4486C66.3295 32.5758 66.0354 32.6398 65.7382 32.6355H65.327V32.8224H75.9812L76.542 28.8972H76.3177C76.0819 29.8511 75.5443 30.7034 74.785 31.3271C73.9812 31.9037 73.0069 32.1933 72.0186 32.1495H71.271C71.0247 32.2044 70.7695 32.2044 70.5233 32.1495C70.3732 32.0652 70.255 31.9338 70.1868 31.7757C70.1494 31.3529 70.1494 30.9275 70.1868 30.5047V27.028C70.6465 27.0033 71.1059 27.0799 71.5326 27.2523C71.8869 27.483 72.1713 27.8062 72.3551 28.1869C72.6059 28.7288 72.7578 29.3112 72.8037 29.9066H73.1401V23.4393H72.8037C72.7282 24.2107 72.472 24.9535 72.056 25.6075C71.8534 25.8644 71.5903 26.0672 71.2902 26.1976C70.9902 26.3281 70.6625 26.3822 70.3364 26.3552H70.1121ZM86.3739 28.7477L89.7383 20.5981H94.7851V20.9346H94.3739C94.0763 20.9261 93.7812 20.9903 93.514 21.1215C93.4248 21.1674 93.3457 21.2307 93.2815 21.3078C93.2173 21.3849 93.1692 21.4741 93.1402 21.5701C93.0729 21.9409 93.0729 22.3208 93.1402 22.6916V30.8411C93.076 31.2373 93.076 31.6412 93.1402 32.0374C93.2254 32.2181 93.3708 32.3635 93.5514 32.4486C93.8052 32.5797 94.0883 32.6441 94.3739 32.6355H94.7851V32.972H88.3178V32.6355H88.729C89.0265 32.644 89.3216 32.5799 89.5888 32.4486C89.678 32.4027 89.7571 32.3394 89.8213 32.2623C89.8856 32.1852 89.9336 32.096 89.9626 32C90.0289 31.6166 90.0289 31.2246 89.9626 30.8411V21.6823L85.215 32.8972H84.9907L80.2804 21.757V30.4673C80.2492 30.8405 80.2492 31.2156 80.2804 31.5888C80.3595 31.8928 80.5452 32.1581 80.8038 32.3365C81.175 32.5592 81.6054 32.6635 82.0374 32.6355V32.972H77.8505V32.6355C78.1087 32.6961 78.3774 32.6961 78.6355 32.6355C78.8428 32.5647 79.0247 32.4347 79.1589 32.2617C79.316 32.0676 79.4192 31.8355 79.458 31.5888V22.6916C79.5182 22.3077 79.5182 21.9167 79.458 21.5327C79.3728 21.3521 79.2274 21.2067 79.0468 21.1215C78.7914 20.9947 78.5094 20.9307 78.2243 20.9346H77.8131V20.5981H82.8972L86.3739 28.7477ZM107.234 21.2337C107.61 20.9904 108.059 20.8848 108.505 20.9346L108.654 20.5981H98.5981V21.0841C99.0198 21.0262 99.4475 21.0262 99.8692 21.0841C99.9735 21.1297 100.067 21.1964 100.144 21.28C100.222 21.3637 100.281 21.4625 100.318 21.5701C100.399 22.015 100.399 22.471 100.318 22.9159V25.4206C100.334 26.6705 100.259 27.9199 100.093 29.1589C100.007 29.9345 99.7099 30.6716 99.2337 31.2897C98.7851 31.8131 98.2617 32.0748 98 32.0748C97.9448 32.0748 97.8962 32.0864 97.8533 32.0967C97.6927 32.1353 97.6104 32.155 97.5514 31.4766C97.4767 30.6168 97.1028 30.1682 96.3925 30.1682C96.2293 30.153 96.0649 30.1793 95.9146 30.2446C95.7642 30.31 95.6329 30.4123 95.5327 30.5421C95.328 30.8097 95.2224 31.1399 95.2337 31.4766C95.1846 31.7263 95.2 31.9844 95.2785 32.2264C95.357 32.4685 95.496 32.6865 95.6823 32.8598C95.8669 33.0317 96.0851 33.1636 96.3231 33.2472C96.5611 33.3309 96.8138 33.3644 97.0654 33.3458C97.7079 33.354 98.3363 33.1576 98.8598 32.7851C99.4581 32.3785 99.9256 31.8071 100.206 31.1402C100.547 30.4222 100.762 29.6508 100.841 28.8598V25.1215V21.3832H103.794V31.215C103.874 31.5467 103.874 31.8925 103.794 32.2243C103.709 32.405 103.564 32.5504 103.383 32.6355C103.036 32.6878 102.683 32.6878 102.336 32.6355V32.972H108.542V32.6355C108.085 32.688 107.623 32.5825 107.234 32.3365C106.975 31.9524 106.869 31.4862 106.935 31.028V22.4299C106.883 22.0079 106.99 21.5817 107.234 21.2337ZM114.149 21.3084V26.3552H114.374C114.7 26.3822 115.028 26.3281 115.328 26.1976C115.628 26.0672 115.891 25.8644 116.093 25.6075C116.483 24.9469 116.714 24.2045 116.766 23.4393H117.103V29.9066H116.766C116.72 29.3112 116.569 28.7288 116.318 28.1869C116.147 27.7979 115.859 27.4714 115.495 27.2523C115.069 27.0799 114.609 27.0033 114.149 27.028V30.5047C114.112 30.9275 114.112 31.3529 114.149 31.7757C114.23 31.9258 114.345 32.0541 114.486 32.1495C114.732 32.2044 114.987 32.2044 115.234 32.1495H115.981C116.969 32.1933 117.944 31.9037 118.748 31.3271C119.508 30.711 120.036 29.8538 120.243 28.8972H120.617L120.056 32.8224H109.402V32.6355H109.85C110.148 32.6398 110.442 32.5758 110.71 32.4486C110.794 32.4006 110.867 32.336 110.925 32.2589C110.982 32.1818 111.024 32.0937 111.047 32C111.113 31.6166 111.113 31.2246 111.047 30.8411V22.729C111.076 22.3807 111.076 22.0305 111.047 21.6823C110.99 21.4881 110.872 21.3176 110.71 21.1963C110.438 21.0049 110.108 20.9125 109.776 20.9346H109.327V20.5981H119.72V24.3365H119.346C119.266 23.6355 119.008 22.9664 118.598 22.3925C118.245 21.9781 117.777 21.6787 117.252 21.5327C116.619 21.4514 115.979 21.4514 115.346 21.5327L114.149 21.3084ZM132.318 27.4016C131.555 26.9081 130.705 26.5655 129.813 26.3923C130.659 26.2489 131.448 25.8736 132.093 25.3082C132.522 24.8826 132.764 24.3045 132.766 23.7007C132.754 23.1249 132.572 22.5656 132.243 22.0932C131.89 21.6032 131.412 21.2161 130.86 20.9717C129.882 20.6627 128.855 20.536 127.832 20.5979H121.888V21.0839C122.269 20.9973 122.665 20.9973 123.047 21.0839C123.236 21.1694 123.394 21.3135 123.495 21.4951C123.558 21.9164 123.558 22.3448 123.495 22.7661V30.953C123.558 31.3744 123.558 31.8027 123.495 32.2241C123.398 32.396 123.256 32.5382 123.084 32.6353C122.688 32.6995 122.284 32.6995 121.888 32.6353V32.9717H128.206C129.628 33.0685 131.041 32.6725 132.206 31.8502C132.561 31.5874 132.849 31.2432 133.044 30.8464C133.239 30.4497 133.336 30.0119 133.327 29.5699C133.337 29.1551 133.252 28.7436 133.076 28.3675C132.901 27.9914 132.642 27.6608 132.318 27.4016ZM126.523 31.2895V26.8783C127.243 26.841 127.965 26.9296 128.654 27.14C129.12 27.3238 129.505 27.6686 129.738 28.1119C130.009 28.5772 130.151 29.1062 130.15 29.6446C130.158 30.1269 130.042 30.6034 129.813 31.0278C129.602 31.4261 129.277 31.7518 128.878 31.9624C128.466 32.187 128.003 32.3028 127.533 32.2988C127.396 32.3173 127.256 32.304 127.126 32.2598C126.995 32.2156 126.876 32.1418 126.778 32.0441C126.68 31.9465 126.607 31.8275 126.562 31.6966C126.518 31.5657 126.505 31.4264 126.523 31.2895ZM128.43 25.8689C127.821 26.0961 127.173 26.1978 126.523 26.168V21.2708C127.173 21.2367 127.822 21.3386 128.43 21.5699C128.825 21.7114 129.157 21.9899 129.364 22.3549C129.587 22.7686 129.703 23.231 129.703 23.7007C129.703 24.1704 129.587 24.6328 129.364 25.0465C129.137 25.4033 128.813 25.6885 128.43 25.8689ZM154.299 20.5979H147.869V20.9344H148.131C148.766 20.9344 149.327 21.0465 149.327 21.3082C149.547 21.7608 149.638 22.2653 149.589 22.7661V31.0278C149.589 31.7007 149.477 32.1119 149.252 32.2989C148.849 32.5785 148.356 32.6984 147.869 32.6353V32.9718H154.411V32.6353C153.946 32.6882 153.477 32.5968 153.065 32.3736C152.692 32.2241 152.692 31.8503 152.692 31.2521V27.2521C152.959 27.1687 153.246 27.1687 153.514 27.2521C153.783 27.5348 153.998 27.8642 154.149 28.2241L156.729 32.9718H160.841V32.6353C160.498 32.6518 160.158 32.5603 159.869 32.3736C159.587 32.1865 159.346 31.945 159.159 31.6633L157.925 29.383C157.377 28.3861 157.003 27.7506 156.804 27.4764C156.668 27.2348 156.475 27.0295 156.243 26.8783C155.983 26.6691 155.674 26.5278 155.346 26.4671C155.643 26.2005 155.874 25.8675 156.019 25.4951C156.168 25.0839 156.355 24.5232 156.579 23.7381C156.717 23.1521 156.931 22.5866 157.215 22.0559C157.285 21.9266 157.387 21.8175 157.512 21.7389C157.636 21.6604 157.778 21.615 157.925 21.6073C158.007 21.6073 158.069 21.6 158.117 21.5943C158.178 21.5872 158.216 21.5827 158.242 21.5986C158.286 21.6259 158.294 21.7139 158.314 21.9537L158.314 21.9556C158.318 22.0049 158.323 22.0607 158.329 22.1236L158.336 22.2054C158.411 22.9904 158.785 23.4017 159.458 23.4017C159.623 23.4127 159.788 23.3883 159.943 23.3302C160.097 23.2721 160.238 23.1816 160.355 23.0648C160.472 22.948 160.562 22.8075 160.62 22.6528C160.678 22.4982 160.703 22.3329 160.692 22.168C160.701 21.9365 160.659 21.7058 160.568 21.4925C160.478 21.2793 160.341 21.0886 160.168 20.9344C159.981 20.7661 159.763 20.6365 159.525 20.5531C159.288 20.4697 159.036 20.4341 158.785 20.4484C158.257 20.4358 157.737 20.5788 157.29 20.8596C156.895 21.1293 156.584 21.5051 156.393 21.9437C156.087 22.6164 155.849 23.3177 155.682 24.0372C155.576 24.6089 155.36 25.1547 155.047 25.6446C154.901 25.8867 154.677 26.0715 154.411 26.168C153.864 26.2227 153.313 26.2227 152.766 26.168V22.5418C152.722 22.0967 152.828 21.6497 153.065 21.2708C153.237 21.1333 153.435 21.0325 153.647 20.9746C153.86 20.9168 154.081 20.9031 154.299 20.9344V20.5979ZM170.486 22.6542C170.522 22.1819 170.445 21.7078 170.262 21.271C170.262 21.0467 169.701 20.9346 169.065 20.9346H168.654V20.5981H175.308V20.9346H174.86C174.66 20.9078 174.456 20.9239 174.263 20.9819C174.069 21.0399 173.891 21.1385 173.738 21.271C173.507 21.7063 173.415 22.2024 173.477 22.6916V30.8411C173.417 31.3423 173.508 31.8499 173.738 32.2991C173.891 32.4316 174.069 32.5302 174.263 32.5882C174.456 32.6462 174.66 32.6624 174.86 32.6355H175.308V32.972H168.654V32.6355H169.065C169.271 32.6654 169.481 32.6509 169.681 32.5928C169.881 32.5348 170.066 32.4346 170.224 32.2991C170.454 31.8499 170.545 31.3423 170.486 30.8411V24.1122L166.262 30.9533C166.232 31.401 166.309 31.8494 166.486 32.2617C166.486 32.486 167.047 32.6355 167.682 32.6355H168.131V32.972H161.327V32.6355H161.738C162.299 32.6355 162.71 32.6355 162.86 32.2991C163.107 31.8555 163.212 31.3463 163.159 30.8411V22.6916C163.207 22.2067 163.13 21.7175 162.935 21.271C162.935 21.0467 162.374 20.9346 161.738 20.9346H161.327V20.5981H167.981V20.9346H167.533C167.33 20.9045 167.122 20.9227 166.927 20.9876C166.733 21.0526 166.556 21.1625 166.411 21.3084C166.172 21.7279 166.068 22.2108 166.112 22.6916V29.4953L170.486 22.6542ZM94.5608 18.0187V14.0187H95.2337L96.1683 16.8598L96.3552 17.4579C96.4139 17.2408 96.4889 17.0283 96.5795 16.8224L97.5515 14.0187H98.2617V18.0187H97.7384V14.6916L96.5795 18.0187H96.0935L95.2337 14.6168V18.0187H94.5608ZM99.2336 14.0187V18.0187H99.9065V14.6168L101.065 18.0187H101.551L102.71 14.6916V18.0187H103.084V14.0187H102.374L101.402 16.8224C101.311 17.0283 101.236 17.2408 101.178 17.4579L100.991 16.8598L100.056 14.0187H99.2336ZM103.944 18.0187V14.0187H106.86V14.5047H104.467V15.7383H106.673V16.1869H104.467V17.5701H106.934V18.0187H103.944ZM107.682 14.0187V18.0187L108.056 17.9813V16.3738H109.065C109.28 16.4018 109.498 16.3828 109.704 16.3183C109.911 16.2537 110.101 16.1451 110.262 16C110.372 15.8861 110.458 15.7514 110.516 15.6038C110.574 15.4562 110.602 15.2986 110.598 15.1402C110.652 14.97 110.652 14.787 110.598 14.6168C110.53 14.4593 110.428 14.3188 110.299 14.2056L109.813 14.0187H107.682ZM109.252 15.9252H108.205L108.318 14.729H109.85C109.978 14.7771 110.093 14.8539 110.187 14.9533C110.201 15.0399 110.201 15.1283 110.187 15.2149C110.229 15.3419 110.23 15.4789 110.19 15.6064C110.149 15.7339 110.07 15.8455 109.963 15.9252C109.732 15.9996 109.483 15.9996 109.252 15.9252ZM114.262 18.0187H113.925V16.4112C113.533 16.5729 113.115 16.6616 112.692 16.6729C112.448 16.7502 112.187 16.7502 111.944 16.6729C111.74 16.571 111.581 16.3982 111.495 16.1869C111.453 15.9269 111.453 15.6619 111.495 15.4019V14.0187H112.056V15.1402C112.056 15.5888 112.056 15.8878 112.28 16C112.432 16.1432 112.632 16.2233 112.841 16.2243C113.216 16.2116 113.585 16.1225 113.925 15.9626V14.0187H114.449L114.262 18.0187ZM115.159 14.0187V18.0187H118.149V17.5701H115.682V16.1869H117.925V15.7383H115.682V14.5047H118.075V14.0187H115.159ZM121.738 16.6354H122.299C122.211 17.0263 122.001 17.3795 121.701 17.6447C121.386 17.8712 121.005 17.9893 120.617 17.9812C120.25 18.001 119.885 17.9098 119.57 17.7195C119.284 17.5446 119.061 17.2825 118.935 16.9718C118.815 16.6227 118.752 16.2567 118.748 15.8877C118.759 15.5644 118.836 15.2466 118.972 14.9531C119.102 14.6423 119.342 14.3897 119.645 14.2429C119.937 14.0647 120.275 13.9739 120.617 13.9812C120.976 13.9729 121.329 14.0775 121.626 14.2802C121.919 14.5056 122.129 14.8208 122.224 15.1774H121.701C121.654 14.967 121.55 14.7732 121.402 14.6167C121.211 14.4659 120.973 14.3866 120.729 14.3924C120.451 14.3865 120.177 14.4646 119.944 14.6167C119.755 14.7746 119.612 14.9815 119.533 15.2148C119.479 15.4738 119.479 15.7409 119.533 15.9999C119.491 16.2975 119.491 16.5995 119.533 16.8971C119.621 17.137 119.794 17.3365 120.019 17.4578C120.239 17.5165 120.471 17.5165 120.692 17.4578C120.827 17.4669 120.964 17.4483 121.092 17.4034C121.221 17.3584 121.339 17.2879 121.439 17.1961C121.591 17.042 121.695 16.8472 121.738 16.6354ZM123.458 14.0187H122.935L122.972 18.1682H123.495V16.2991C123.651 16.2347 123.826 16.2347 123.981 16.2991C124.178 16.4678 124.342 16.6704 124.467 16.8972L125.14 17.9813H126.112L125.29 16.6729C125.065 16.2617 124.804 15.9626 124.542 15.9626L124.879 15.7383C125.009 15.5365 125.121 15.3239 125.215 15.1028C125.271 14.9069 125.374 14.7274 125.514 14.5794C125.572 14.5499 125.636 14.5345 125.701 14.5345C125.766 14.5345 125.83 14.5499 125.888 14.5794V14.1308H125.589C125.442 14.0872 125.287 14.0872 125.14 14.1308C125.033 14.1568 124.933 14.2076 124.849 14.2789C124.764 14.3503 124.698 14.4404 124.654 14.542C124.538 14.7195 124.438 14.9072 124.355 15.1028C124.285 15.3535 124.157 15.5841 123.981 15.7757H123.458V14.0187ZM126.224 14.0187H126.71V17.1962L128.879 14.0187H129.402V18.0187H128.879V14.9533L126.748 18.0934H126.224V14.0187ZM135.832 14.0187H138.449V14.5047H136.355V15.7383H137.29C137.574 15.6916 137.865 15.6916 138.15 15.7383C138.251 15.7648 138.347 15.8116 138.431 15.8758C138.514 15.94 138.584 16.0204 138.636 16.1121C138.77 16.2956 138.836 16.5205 138.822 16.7477C138.865 16.9321 138.865 17.124 138.822 17.3084C138.726 17.4909 138.585 17.6454 138.411 17.757C138.215 17.8064 138.014 17.823 137.814 17.8067C137.902 17.8017 137.99 17.7852 138.075 17.757C138.15 17.6932 138.21 17.6127 138.249 17.5218C138.288 17.431 138.305 17.3323 138.299 17.2336C138.343 17.0873 138.343 16.9314 138.299 16.785C138.206 16.6929 138.09 16.6283 137.963 16.5981H137.215H136.355L136.393 17.757H135.907L135.832 14.0187ZM137.814 17.8067C137.688 17.8138 137.561 17.7973 137.439 17.757H137.514C137.613 17.7819 137.713 17.7985 137.814 17.8067ZM140.467 14.0187L138.935 18.0187H139.645L140.093 16.8224H141.626L142.075 18.0187H142.71L141.065 14.0187H140.467ZM141.477 16.3738H140.093L140.542 15.2149L140.766 14.4299C140.835 14.7219 140.922 15.0091 141.028 15.2897L141.477 16.3738ZM143.121 18.0187V14.0187H143.832V15.6635H145.888V14.0187H146.449V18.0187H145.888V16.1495H143.832V18.0187H143.121ZM147.57 14.0187H147.196V18.1682H147.72V16.2991C147.878 16.2476 148.048 16.2476 148.206 16.2991C148.376 16.4815 148.527 16.6821 148.654 16.8972L149.327 17.9813H150L149.14 16.6729C148.916 16.2617 148.654 15.9626 148.393 15.9626L148.729 15.7383C148.859 15.5365 148.972 15.3239 149.065 15.1028C149.137 14.9136 149.238 14.7369 149.365 14.5794C149.422 14.5499 149.486 14.5345 149.551 14.5345C149.616 14.5345 149.68 14.5499 149.738 14.5794H149.963V14.1308H149.626C149.479 14.0972 149.325 14.0972 149.178 14.1308C149.062 14.1974 148.96 14.2863 148.879 14.3925C148.778 14.5728 148.69 14.7602 148.617 14.9533C148.499 15.2685 148.306 15.5506 148.056 15.7757H147.57V14.0187Z" fill="#1A1A18"/>
<path fill-rule="evenodd" clip-rule="evenodd" d="M37.1776 12.2617V12.2617H28.5421L20.4673 24L28.4673 35.7383H37.2523L29.0654 24L37.1775 12.4861V12.4867L37.3275 12.2617H37.1776ZM10 23.7009H18.785L27.0841 11.8131L18.8598 0H10.0748L18.2991 11.7009L17.215 13.3084L10 23.7009Z" fill="#E52E0E"/>
</svg>
