<svg version="1.1" id="Layer_1" xmlns="http://www.w3.org/2000/svg" x="0" y="0" viewBox="0 0 200 50" xml:space="preserve">
  <defs/>
  <style>
    .st0{fill-rule:evenodd;clip-rule:evenodd;fill:#a3003a}
  </style>
  <path class="st0" d="M142.3 30.6h-3.8l.1.1c0 .1.1.1.1.1.1 0 .2.1.3.2.1.1.2.2.2.3v.1c.1.4.2.7.2 1.1V35.6H135v-.1-.7-2.1c0-.5.1-1 .3-1.4 0-.1.1-.2.2-.3.1-.1.2-.2.3-.2h.1s.1 0 .1-.1v-.1-.1h-3.7s0 .1.1.1c0 .1.1.1.1.2.2.1.3.2.4.4.1.2.2.3.2.5.1.6.2 1.3.2 1.9v13.1c0 .6-.1 1.2-.3 1.8-.1.3-.3.5-.5.6-.1 0-.1.1-.2.2l-.1.1h3.8s0-.1-.1-.1c0-.1-.1-.1-.1-.2-.2-.1-.3-.2-.4-.3-.1-.1-.2-.3-.2-.4-.2-.6-.3-1.2-.2-1.9v-9.3h4.5v9.4c0 .6-.1 1.2-.2 1.8v.1c0 .2-.1.3-.2.5-.1.1-.3.2-.4.3-.1 0-.1.1-.1.2 0 0 0 .1-.1.1h3.8v-.1-.1s0-.1-.1-.1c-.2-.1-.3-.2-.5-.4-.1-.2-.2-.4-.2-.6-.1-.6-.2-1.2-.2-1.7V34.2c0-.7.1-1.5.2-2.2v-.3c0-.2.1-.3.2-.5.1-.1.3-.2.4-.3.1 0 .1-.1.1-.2.1.1.1 0 .1-.1.1.1.1.1 0 0 .1 0 .1 0 0 0 .1 0 .1 0 0 0zM153.6 49.5v-.1c0-.1-.1-.1-.1-.2-.2-.1-.3-.2-.4-.3-.1-.1-.2-.3-.2-.5-.2-.9-.5-1.9-.7-2.9-.7-3.3-1.6-6.8-3.4-10v-.1-.1c.2-.2.3-.5.5-.7l1.8-2.7c.4-.5.9-.9 1.5-1.1.1 0 .1-.1.1-.1s0-.1.1-.1H149v.1c0 .1.1.1.1.2.1.1.2.1.2.3.1.1.1.2.1.3 0 .5-.1.9-.4 1.3-.8 1.5-1.8 3-2.8 4.5l-.2.2v-.1-1.2-2.9c0-.6.1-1.2.2-1.7 0-.2.1-.3.2-.5.1-.1.3-.2.4-.3.1 0 .1-.1.1-.2 0 0 0-.1.1-.1h-3.8s0 .1.1.1c0 .1.1.1.1.2.2.1.3.2.4.3.1.1.2.3.2.5.1.6.2 1.2.2 1.8v13.3c0 .5-.1 1-.2 1.5 0 .2-.1.4-.2.5-.1.2-.3.3-.4.4-.1 0-.1.1-.1.2v.1h3.7v-.1-.1s0-.1-.1-.1c-.2-.1-.3-.2-.5-.3-.1-.2-.2-.3-.2-.5-.1-.6-.2-1.2-.2-1.8V43v-3c0-.3.1-.7.3-1 .3-.4.5-.8.8-1.2.1-.2.2-.3.3-.5 0 .1.1.1.1.2 1.3 2.7 2.3 5.5 2.8 8.5.1.7.2 1.5.2 2.2 0 .2 0 .4-.1.6-.1.2-.2.3-.4.4l-.1.1v.2h3.7c0 .1 0 .1 0 0 0 .1 0 .1 0 0 0 .1 0 .1 0 0 0 .1 0 0 0 0zM118.7 38.3c-.8-.6-1.8-1-2.9-1.1h-.7v-.1-1.3-2.6-.5-.2c0-.1.1-.1.1-.2 0 0 .1-.1.2-.1h.2c.4 0 .9-.1 1.3 0 .5 0 .9.1 1.3.3.4.2.7.5 1 .9.5.7.8 1.5 1 2.3V36h.1c-.1-1.2-.3-2.5-.5-3.7-.1-.6-.2-1.2-.2-1.8-.1 0-.1 0-.2.1-.1 0-.2.1-.4.1h-6.6l-.1.1v.1c0 .1.1.1.1.1.2.1.3.2.4.3.1.1.2.3.2.5v.1c.1.6.2 1.2.2 1.7v13.2c0 .4 0 .8-.1 1.2 0 .3-.1.5-.2.7-.1.2-.3.4-.6.5 0 0-.1 0-.1.1v.2h3.3c.7 0 1.4 0 2-.1.6 0 1.2-.2 1.7-.5s.9-.8 1.2-1.3c.3-.6.5-1.3.6-2 .3-1.7.1-3.4-.5-4.9-.3-.9-1-1.8-1.8-2.4zm.3 7.8c-.2.4-.4.8-.6 1.1-.3.3-.6.6-1 .8-.4.2-.8.2-1.2.2h-.7c-.1 0-.2-.1-.3-.1-.1-.1-.1-.2-.1-.3 0-.3 0-.5-.1-.8v-8.3-.1c.7 0 1.3.1 1.9.4.6.3 1.1.8 1.4 1.3.5.8.8 1.7.9 2.6.2 1.1.2 2.2-.2 3.2zM72 32.1v-.2c0-.2 0-.4.1-.5.1-.2.2-.3.4-.4l.1-.1v-.1-.1-.1h-3.2-.1v.2l.1.1c0 .1.1.1.1.2l.1.1c.1.1.2.1.2.2.1.2.2.5.2.8 0 .9.1 1.9.1 2.8v.8h-3.7v-.6-1.6c0-.5 0-1 .1-1.6 0-.2 0-.4.2-.6.1-.2.3-.3.5-.4l.1-.1v-.1-.1h-3.2-.1c-.1 0 0 0 0 0V31c0 .1.1.1.1.2.1.1.3.2.3.3.1.1.1.3.2.4v.2c.1.8.2 1.6.2 2.5v11.5c0 .7 0 1.4-.1 2 0 .2 0 .5-.2.7-.1.2-.3.4-.5.5l-.1.1v.2h3.2v-.1-.1-.1l-.1-.1c-.1-.1-.3-.2-.3-.3-.1-.1-.1-.3-.2-.4-.1-.6-.2-1.2-.2-1.9v-6.8-2.5H70v9.3c0 .6-.1 1.1-.1 1.7v.1c0 .2 0 .4-.1.5-.1.1-.2.3-.4.3l-.1.1v.2h3.2v-.1-.1s0-.1-.1-.1c-.2-.1-.3-.2-.4-.4-.1-.2-.1-.4-.1-.6-.1-.8-.1-1.6-.2-2.5V34.1c.2-.6.3-1.3.3-2zM131.8 49.4c0-.1 0-.1-.1-.2-.2-.1-.3-.3-.4-.5-.1-.2-.2-.4-.2-.6-.3-1.7-.8-3.9-1.2-6.1-.6-3.2-1.1-5.8-1.5-8.2-.1-.6-.2-1.2-.3-2.1 0-.1 0-.3.1-.4.1-.1.1-.3.3-.3 0-.1.1-.1.1-.2v-.1h-3.3-.1l-.1.1v.1s0 .1.1.1c.1.1.3.2.3.4.1.2.1.3 0 .5 0 .5-.1 1-.2 1.5-.8 4.2-1.7 8.5-2.6 12.7-.1.7-.3 1.3-.5 2-.1.2-.1.4-.2.5 0 .1-.1.3-.2.4l-.3.3c-.1 0-.1.1-.1.2 0 0 0 .1-.1.1h3.2s0-.1-.1-.1c0-.1-.1-.1-.1-.2-.1-.1-.3-.2-.4-.3-.1-.1-.2-.3-.2-.4-.1-.5-.2-1-.1-1.5.2-1.4.5-2.8.8-4.2.1-.5.2-1.1.3-1.6h.4c.6.1 1.2.4 1.7.9.7.8 1.3 1.7 1.7 2.7.4 1 .5 2.1.4 3.1 0 .3 0 .5-.2.7-.1.2-.3.4-.5.6 0 0 0 .1-.1.1v.2h3.5c.2-.1.2-.1.2-.2zm-6.8-9.8l1.3-6.7.4 2.2c.4 2.1.8 4.3 1.2 6.4-.5-.8-1.4-1.7-2.9-1.9zM89.7 49.4c0-.1-.1-.2-.1-.2-.2-.2-.4-.5-.4-.7-.2-1-.4-1.9-.5-2.9l-.6-3.9c-.1-.6-.2-1.3-.3-1.9l-.3-1.6c-.2-1.4-.4-2.8-.7-4.2-.1-.8-.2-1.5-.3-2.1v-.5c.1-.2.1-.3.2-.4.1-.1.1-.1.1-.2v-.1h-3v.1c0 .1.1.2.1.2.1.1.2.1.2.2s.1.2.1.3v.9c-.2 1.2-.4 2.5-.6 3.8l-.2 1.2c-.5 2.9-1 5.8-1.5 8.8l-.6 2.4c-.1.1-.1.3-.3.4l-.2.2c0 .1-.1.1-.1.2l-.1.1v.2h3v-.1-.1-.1c0-.1-.1-.1-.1-.2-.1-.1-.3-.2-.3-.3-.1-.1-.1-.3-.2-.4-.1-.7-.1-1.4 0-2.1.2-1 .3-2.1.5-3.1.1-.4.1-.7.2-1.1 0-.3.1-.5.1-.8v-.3c.5 0 1 .3 1.4.6.7.7 1.3 1.6 1.6 2.6.4 1.1.6 2.4.5 3.6 0 .2 0 .4-.1.6-.1.2-.2.4-.4.5-.1.1-.1.1-.1.2v.1h3c.1.2.1.2 0 .1zm-3.4-8c-.2-.3-.5-.7-.8-1-.4-.4-1-.7-1.6-.8l1.1-6.3 1.3 8.1zM63.7 49.4c0-.1 0-.2-.1-.2-.3-.2-.4-.6-.5-.9-.1-.7-.3-1.5-.4-2.3-.2-1.5-.5-2.9-.7-4.4l-.3-1.7c-.1-.6-.2-1.3-.3-1.9-.2-1.4-.5-2.8-.7-4.3-.1-.7-.2-1.5-.2-2v-.4c0-.1.1-.3.2-.3.1-.1.1-.1.1-.2v-.1h-3-.1v.2l.1.1c0 .1.1.1.1.2l.1.1c.1.1.1.2.1.2 0 .3.1.6 0 .9-.2 1.2-.4 2.5-.6 3.9l-.2 1.2-1.5 8.7c-.2.8-.4 1.6-.6 2.6-.1.1-.1.2-.2.3l-.2.2c0 .1-.1.1-.1.2l-.1.1v.2H57.4v-.1-.1c0-.1-.1-.1-.1-.2l-.3-.3c-.1-.1-.1-.3-.2-.4-.1-.7-.1-1.4 0-2.1v-.1c.1-.9.3-1.8.4-2.6 0-.3.1-.6.1-.9.1-.4.1-.8.2-1.2l.1-.4h.2c.4.1.7.2 1 .4.3.2.5.5.7.8 1.1 1.6 1.7 3.6 1.5 5.6 0 .2 0 .4-.1.6-.1.2-.2.4-.4.5l-.1.1v.2h3v-.1c.3 0 .3 0 .3-.1zm-4.4-9.2c-.4-.3-.9-.5-1.4-.6.4-2.1.7-4.2 1.1-6.3l1.3 8c-.2-.4-.6-.8-1-1.1zM54.3 49.4c0-.1-.1-.2-.1-.2-.1-.1-.3-.2-.3-.3-.1-.1-.1-.3-.2-.4-.1-.6-.2-1.2-.2-1.9V33.9c0-.6.1-1.2.1-1.8 0-.2.1-.4.2-.6.1-.2.2-.3.4-.4.1-.1.1-.1.1-.2v-.1-.1h-5.8v.2c0 .1.1.1.1.2s.1.1.1.2c.1.1.1.2.1.3.1.5.1 1.1-.1 1.6-.6 2-1.1 4-1.4 6.1-.2 1.6-.4 3.4-.6 5.2-.1 1.1-.2 2.2-.2 3.2v2.2H49v-.1-.1s0-.1-.1-.1c0-.1-.1-.1-.1-.2-.2-.1-.3-.2-.4-.3-.1-.1-.2-.3-.2-.5 0-.1 0-.2-.1-.3-.1-.6-.2-1.2-.3-1.7 0-1.3.1-2.7.2-4.4.2-2.1.5-4.2 1-6.3.2-.9.5-1.8.8-2.6.1-.3.3-.6.7-.8.1-.1.3-.1.4-.2.1 0 .3 0 .4.1.1.1.2.1.3.2.1.1.1.2.2.4.1.4.1.8.1 1.2v12.9c0 .4 0 .9-.1 1.3 0 .2 0 .5-.2.7-.1.2-.3.4-.5.5l-.1.1v.2h3.2v-.1c.1-.3.1-.4.1-.4zM80.8 35.8l.1.3v.1H81.2v-.1l-.6-5.5c-.1 0-.1 0-.2.1s-.2.1-.4.1h-5.4c-.1 0-.2 0-.4-.1-.1 0-.1-.1-.2-.1-.2 1.8-.4 3.7-.6 5.5v.1H73.7V36v-.1c0-.1.1-.3.1-.4.1-.3.2-.7.3-1 .2-.7.6-1.3 1.2-1.8.4-.2.8-.4 1.3-.4v14.4c0 .6-.1 1.2-.2 1.8v.2c0 .1-.1.3-.1.4-.1.1-.2.2-.3.2 0 0-.1 0-.1.1 0 0 0 .1-.1.1 0 0 0 .1-.1.1v.2H79v-.1-.1l-.1-.1c-.2-.1-.3-.2-.4-.3-.1-.1-.1-.3-.1-.5-.4-.8-.4-1.3-.4-1.9V32.4v-.2c.4 0 .7.1 1 .3.3.2.6.4.8.7.4.6.7 1.3.9 2.1 0 .1.1.3.1.5zM107.1 31c-.1-.2-.2-.4-.1-.6.3-1.9.5-3.9.5-5.8.1-1.7-.1-3.4-.5-5-.6-2.1-1.1-4.1-2.4-5.9v-.1-.1c.2-.5.5-.9.8-1.4.1-.2.3-.3.5-.4.2-.1.4-.1.6 0h.1s.1 0 .1-.1l.1-.1v-.1-.4c.1-.5 0-.6-.5-.5h-.4c-.1 0-.1-.1-.2-.1 0 0-.1-.1-.1-.2-.1-.1-.1-.2-.1-.3v-.3c.1-.2.2-.4.2-.6.4-.8.5-1.8.2-2.7-.1-.2-.1-.4-.1-.6 0-.2.1-.4.2-.5.1-.1.1-.2.1-.3.1-.3.1-.6.1-.8 0-.3-.1-.6-.3-.8-.2-.4-.4-.8-.7-1.2-.1-.1-.1-.2-.1-.3 0-.1.1-.2.1-.3.3-.5.4-1.2-.3-1.4h-.5c-.1.1-.2.1-.3.2-.1.1-.1.2-.2.3V1c0 .1.1.3.2.4.1.2.2.5.2.7 0 .3-.1.5-.3.7-.5.5-.8 1.1-1.1 1.7-.1.1-.2.1-.3.1-.3-.1-.5-.2-.8-.3-.9-.3-1.9-.3-2.7.1-.2.1-.4.2-.6.2-.2-.1-.3-.3-.3-.5-.2-.3-.4-.5-.5-.8-.1-.1-.2-.3-.3-.4-.2-.2-.3-.4-.4-.7 0-.3.1-.5.2-.8.1-.1.1-.2.1-.4s0-.4-.1-.6 0-.3-.2-.4h-.5l-.1.1c-.7.2-.6.9-.3 1.3.1.1.2.3.2.5s-.1.3-.2.5c-.3.4-.5.8-.7 1.2-.1.3-.2.5-.2.8 0 .3.1.6.3.8.1.1.2.3.2.5s0 .4-.1.5c-.3.9-.2 1.9.2 2.7.2.2.2.5.3.7v.3c0 .1-.1.2-.2.3-.1.1-.2.1-.3.2h-.3H95c-.1 0-.1 0-.1.1l-.1.1v.2c0 .2 0 .3.1.5v.1s0 .1.1.1.1.1.1.1h.5c.1 0 .3.1.4.2.5.4.9 1 1.1 1.7 0 .1 0 .2-.1.2-.2.3-.5.7-.7 1-.6 1.2-1.1 2.4-1.4 3.7-.4 1.3-.7 2.6-.8 3.9-.1 2.7 0 5.4.5 8.1 0 .2 0 .4-.1.6-.5.8-1 1.6-1.4 2.4-.3.4-.4.9-.5 1.4 0 .5 0 1 .2 1.5.5 1.6 1.1 3.2 1.6 4.8.4 1.3.8 2.6 1.3 3.9.1.3.1.6-.1.9-.2.4-.3.8-.5 1.3-.3.6-.4 1.3-.4 1.9 0 .1 0 .3.1.4 0 .1.1.2.2.3.1.1.2.2.3.2.1 0 .3.1.4 0h4.5c.1 0 .2 0 .3-.1.1-.1.2-.2.2-.3.1.1.2.3.3.3.1.1.3.1.4.1h4.7c.1 0 .2-.1.3-.2.1-.1.2-.2.2-.3 0-.1.1-.2.1-.3.1-.3.1-.6 0-.9-.2-.8-.4-1.6-.7-2.3-.2-.4-.2-.9-.1-1.3 0-.1.1-.2.1-.3.9-2.7 1.8-5.5 2.7-8.2.2-.5.2-.9.2-1.4 0-.5-.2-1-.5-1.4-.3-.8-.8-1.6-1.3-2.4zM95.9 11.2c-.2-.1-.2-.2 0-.4s.3-.3.5-.4c.1-.1.2-.2.2-.3v-.3c-.1-.4-.2-.7-.3-1.1-.3-.6-.4-1.4-.3-2.1.1-.4.2-.5.6-.4.4.1.9.1 1.3.1h.2c.1 0 .1-.1.1-.1 0-.1-.1-.1-.2-.1-.2 0-.4 0-.6-.1-.9-.1-1.4-.4-1.8-1.5 0-.2-.1-.3 0-.5s.1-.3.2-.5c.2-.4.5-.8.8-1.2.5.7 1 1.3 1.4 1.9.1.2.2.4.3.7V5l.1.1h.2c.3-.1.5-.2.8-.3.4-.2.9-.3 1.4-.3.5 0 .9.1 1.4.3.3.1.5.2.8.3.2.1.3 0 .3-.1.2-.6.6-1.1 1-1.6.2-.3.4-.6.7-.9.3.5.6.9.8 1.4.1.1.1.3.1.5s0 .3-.1.5c-.1.4-.3.7-.6 1-.2 0-.6.1-1 .1-.2 0-.4 0-.6.1-.1 0-.2.1-.2.1.1.1.1.1.2.1.5 0 .9 0 1.4-.1.5-.1.6-.1.6.4.1.7 0 1.4-.3 2.1-.1.4-.2.7-.3 1.1v.3c0 .1.1.2.2.3.2.1.3.3.5.4.2.2.2.3 0 .4-.5.3-1 .8-1.2 1.4-.3.5-.5 1.1-.8 1.6-.3.5-.7.9-1.2 1.2-.5.3-1 .4-1.6.4-1.6 0-2.6-.8-3.3-2.2-.2-.3-.3-.7-.5-1-.2-.6-.7-1.1-1.2-1.4zm.1 37.7c.1.2.2.4.3.7h-.8c-.1 0-.2-.1-.2-.2-.1-.1-.1-.2-.1-.3v-.3c0-.6.2-1.2.4-1.8.1-.2.1-.3.2-.5.2-.4.3-.8.3-1.2 0-.4-.1-.8-.2-1.2-.9-2.6-1.8-5.3-2.6-7.9-.2-.5-.3-1.1-.2-1.7.1-.3.2-.6.3-.8l1.2-2.1c0-.1.1-.1.1-.2 0 .1.1.2.1.3.3 1.5.5 3 .8 4.5.3 1.8.7 3.5 1.1 5.3.3 1.3.5 2.6.8 3.8.1.2.1.4 0 .6l-.3.6c-.3.3-.6.6-.8 1-.2.2-.3.4-.3.6-.1.3-.1.6-.1.8zm9 .3c-.1.1-.2.3-.3.3-.1 0-.2.1-.3.1h-3-.1s-.1 0-.1-.1l-.1-.1v-.1c0-.2 0-.3-.1-.5V31.5c0-.1 0-.3-.2-.3-.3 0-.3 0-.3.3V48.9c0 .6-.1.7-.7.7h-2.5c-.2 0-.4-.1-.6-.2-.2-.1-.3-.3-.3-.6v-.5c0-.2.1-.3.2-.5.3-.3.5-.6.8-.9.2-.2.4-.5.5-.9.1-.3.1-.7 0-1-.7-3.4-1.4-6.9-2.1-10.3-.4-2-.6-4-.9-5.9-.3-2.1-.4-4.2-.3-6.3.1-1.3.3-2.5.7-3.7.4-1.5.9-2.9 1.7-4.2.1-.2.3-.4.4-.7.8 1.4 1.9 2.2 3.5 2.2s2.7-.8 3.5-2.2c.3.5.6.9.8 1.3 1 2 1.6 4.2 1.9 6.4.1 1.2.1 2.4.1 3.6-.1 2.4-.4 4.8-.8 7.2-.5 3.8-1.4 7.5-2.2 11.2-.1.5-.2 1-.3 1.6-.1.3-.1.5 0 .8.1.3.2.5.4.7.3.3.6.7.9 1.1.1.1.2.3.2.4v.5c0 .2-.3.4-.4.5zm3.4-13c-.4 1.3-.9 2.6-1.3 3.9-.5 1.4-.9 2.8-1.4 4.2-.2.7-.2 1.4.1 2.1.2.6.4 1.1.6 1.7.1.3.1.7.1 1 0 .1 0 .2-.1.3-.1.1-.2.1-.3.1-.3.1-.5.1-.8.1v-.1s0-.1.1-.1c.2-.2.3-.4.3-.7 0-.3 0-.5-.2-.8-.2-.4-.4-.7-.7-1-.3-.3-.5-.6-.6-1-.1-.4-.1-.8 0-1.1.6-2.4 1.1-4.9 1.6-7.4.3-1.5.5-3 .8-4.5.1-.5.2-1 .2-1.4 0-.1.1-.2.1-.2s0 .1.1.1c.4.7.8 1.5 1.3 2.2.2.4.3.8.3 1.2 0 .6-.1 1-.2 1.4z"/>
  <path class="st0" d="M97.9 10c.3.1.7.2 1.1.4.1 0 .2.1.3.1s.2.1.2.2c.1.1.1.2.1.3v.3c0 .2-.1.4-.1.6 0 .1 0 .2.1.3.1.1.1.2.2.2l.6.3c.1 0 .1.1.1.1s.1.1.1.2 0 .1-.1.2l-.1.1c-.2.1-.4.2-.6.2-.1 0-.3 0-.4-.1-.1-.1-.3-.2-.4-.1-.1.1-.1.2-.1.3 0 .1.1.2.1.2.1.2.3.3.5.3s.4 0 .5-.1c.2-.2.5-.3.8-.3.3 0 .6.1.8.3.2.1.4.2.6.1.2 0 .4-.1.5-.3.1-.1.1-.1.1-.2s0-.2-.1-.3c-.1 0-.1-.1-.2 0-.1 0-.2 0-.2.1-.1.1-.3.1-.4.1-.2 0-.4-.1-.5-.2-.1 0-.1-.1-.1-.1 0-.1-.1-.1-.1-.2s0-.1.1-.2l.1-.1.6-.3c.1-.1.2-.1.3-.3.1-.1.1-.2 0-.4 0-.2-.1-.3-.1-.5v-.3c0-.1.1-.2.1-.3.1-.1.1-.2.2-.2.1-.1.2-.1.3-.1.3-.1.5-.2.8-.3.3-.1.6-.3.8-.6.2-.3.3-.6.3-.9 0-.3-.1-.4-.3-.4H103c-.6 0-.7 0-.9.6-.3.9-.7 1.7-.4 2.7 0 .1.1.1.1.2v.2c0 .1-.1.1-.1.2-.1 0-.1.1-.2.1-.3.1-.6.1-.9.1-.6-.1-.7-.3-.5-.9.1-.2.1-.4.1-.6-.1-.8-.3-1.6-.7-2.3l-.1-.1h-1.9-.1s-.1 0-.1.1c0 0 0 .1-.1.1v.1c0 .3.1.6.2.9 0 .2.2.4.5.5zm4.8-.8c.2-.1.4-.2.7-.2h.1s.1 0 .1.1v.2l-.3.3c-.1.1-.3.1-.4.1l-.3-.2c0-.1.1-.2.1-.3zM98 9.1c.1-.1.1-.1.2-.1.2.1.5.1.7.2.1.1.1.2.2.3-.1.1-.2.1-.3.2-.2 0-.3 0-.4-.1-.1-.1-.3-.2-.4-.3v-.1-.1z"/>
</svg>
