<svg width="200" height="50" viewBox="0 0 200 50" fill="none" xmlns="http://www.w3.org/2000/svg">
<path fill-rule="evenodd" clip-rule="evenodd" d="M48.8174 32.2651L50.4578 21.0328H53.7684L55.6593 27.5944L57.5562 21.0328H60.8609L62.4953 32.2651H59.31L58.5405 26.1389L56.7509 32.2651H54.5618L52.7722 26.1389L51.9789 32.2651H48.8174ZM123.172 18.2292C125.313 17.7819 127.037 18.7363 128.105 21.0984C128.61 19.852 129.411 18.7474 130.439 17.8805C131.467 17.0136 132.691 16.4105 134.005 16.1236C131.058 15.5271 129.131 16.3741 127.902 17.7043C126.059 17.0124 124.472 16.8692 123.172 18.2292ZM174.507 32.2651V21.0328H177.842V25.5305L181.069 21.0328H184.916L180.651 26.473L185 32.2651H180.908L177.842 27.6779V32.2651H174.537H174.507ZM162.285 32.2651V21.0328H165.59V25.0771H169.246V21.0328H172.551V32.2651H169.246V27.7734H165.59V32.2651H162.285V32.2651ZM149.365 32.2651L153.385 21.0328H157.364L161.343 32.2651H157.811L157.215 30.3264H153.558L152.962 32.2651H149.43H149.365ZM155.33 23.914L154.137 27.8807H156.523L155.33 23.914ZM139.504 32.2651V21.0328H148.017V23.729H142.863V25.4172H144.515C144.742 25.4172 145.034 25.4172 145.398 25.447C145.784 25.4728 146.167 25.5428 146.537 25.6558C147.154 25.8378 147.719 26.1651 148.184 26.6102C148.452 26.9018 148.656 27.2458 148.785 27.6206C148.913 27.9954 148.962 28.3927 148.929 28.7874C148.964 29.1923 148.916 29.6002 148.788 29.9859C148.66 30.3716 148.454 30.727 148.184 31.0303C147.728 31.484 147.169 31.8198 146.555 32.0086C146.181 32.1338 145.792 32.21 145.398 32.2352C145.022 32.2352 144.73 32.2651 144.515 32.2651H139.558H139.504ZM142.809 30.0222H144.002C144.397 30.0401 144.79 29.9537 145.141 29.7717C145.294 29.6717 145.416 29.531 145.493 29.3655C145.57 29.2 145.599 29.0163 145.577 28.8351C145.597 28.6571 145.568 28.4768 145.494 28.3139C145.419 28.151 145.301 28.0115 145.153 27.9106C144.798 27.7273 144.401 27.6409 144.002 27.66H142.809V30.0222ZM123.22 21.0328H126.256V27.5348L130.432 21.0328H133.7V32.2651H130.509V25.787L126.387 32.2651H123.083V21.0328H123.22ZM115.346 32.5872C113.377 32.5872 111.88 31.9907 110.854 30.7977C109.838 29.6464 109.29 28.1572 109.315 26.6221C109.286 25.0907 109.826 23.6028 110.83 22.4465C111.838 21.2535 113.348 20.657 115.346 20.657H115.507C117.495 20.657 119 21.2535 120.022 22.4465C121.025 23.6043 121.564 25.0911 121.538 26.6221C121.56 28.1415 121.02 29.6157 120.022 30.7619C119.008 31.9549 117.505 32.5514 115.507 32.5514L115.346 32.5872ZM115.411 29.891C115.523 29.8994 115.634 29.8994 115.745 29.891C115.866 29.8731 115.983 29.8432 116.097 29.8015C116.651 29.6395 117.142 29.3129 117.505 28.865C117.97 28.2337 118.194 27.4575 118.137 26.6758C118.197 25.8919 117.968 25.1133 117.493 24.4866C117.132 24.0407 116.646 23.7126 116.097 23.5441C115.984 23.5143 115.865 23.4845 115.751 23.4666C115.644 23.4448 115.534 23.4348 115.423 23.4368C115.299 23.4355 115.176 23.4455 115.054 23.4666C114.929 23.4855 114.807 23.5175 114.69 23.562C114.152 23.7394 113.679 24.0714 113.33 24.5164C112.883 25.1435 112.671 25.9082 112.733 26.6758C112.672 27.4433 112.884 28.2076 113.33 28.8351C113.681 29.2784 114.153 29.61 114.69 29.7896C114.806 29.8312 114.926 29.8631 115.048 29.885C115.169 29.8956 115.29 29.8976 115.411 29.891V29.891ZM98.417 32.277V21.0328H101.722V25.5305L104.949 21.0328H108.802L104.531 26.473L108.91 32.2651H104.817L101.722 27.6779V32.2651H98.417V32.277ZM96.5857 31.764C96.3729 31.9077 96.1472 32.0315 95.9116 32.1338C95.6929 32.2292 95.4676 32.3089 95.2376 32.3724C94.9578 32.4586 94.67 32.5166 94.3786 32.5454C94.0983 32.5454 93.8179 32.5812 93.5554 32.5812H93.3944C91.8877 32.6006 90.4321 32.0362 89.3322 31.0064C88.7566 30.442 88.3086 29.7607 88.0184 29.0085C87.7283 28.2564 87.6026 27.4508 87.65 26.646C87.65 24.6894 88.2465 23.2101 89.4395 22.2079C90.5217 21.2433 91.9208 20.7104 93.3705 20.7107H93.5256C93.7248 20.7089 93.924 20.7189 94.1221 20.7405C94.3249 20.7405 94.5337 20.7942 94.7186 20.836C95.0454 20.9023 95.3651 21.0002 95.673 21.1283C95.9906 21.2563 96.2944 21.4162 96.5797 21.6055V24.8624H96.4187C96.353 24.7908 96.2815 24.7073 96.192 24.6238C96.1025 24.5403 96.013 24.4448 95.9057 24.3494C95.6379 24.1267 95.3433 23.9383 95.0288 23.7887C94.6561 23.6106 94.2488 23.517 93.8358 23.5143C93.4401 23.5073 93.0484 23.5933 92.692 23.7652C92.3356 23.9372 92.0245 24.1904 91.7838 24.5045C91.2884 25.1435 91.0274 25.9331 91.0441 26.7414C91.0128 27.1272 91.0618 27.5153 91.1878 27.8812C91.3139 28.2471 91.5143 28.583 91.7766 28.8677C92.0388 29.1523 92.3572 29.3796 92.7116 29.5352C93.066 29.6908 93.4487 29.7713 93.8358 29.7717C94.3601 29.7635 94.8744 29.6262 95.333 29.372C95.7329 29.1541 96.0987 28.8788 96.4187 28.5548H96.5797L96.5857 31.764ZM77.2052 32.277V21.0328H82.0965C83.0554 20.9605 84.0082 21.2358 84.7808 21.8083C85.3277 22.254 85.7406 22.8424 85.9738 23.5083C86.0436 23.7248 86.0975 23.9461 86.1349 24.1705C86.1634 24.3681 86.1794 24.5673 86.1826 24.767C86.1798 24.9666 86.1639 25.1659 86.1349 25.3635C86.0975 25.5898 86.0437 25.8131 85.9738 26.0316C85.7453 26.7015 85.3317 27.293 84.7808 27.7376C84.0049 28.313 83.048 28.5904 82.0846 28.519H80.4979V32.2233H77.1932L77.2052 32.277ZM80.5098 23.5203V26.1031H81.2435C81.5965 26.1295 81.9494 26.0507 82.2576 25.8765C82.4442 25.76 82.5933 25.5923 82.6871 25.3933C82.7309 25.2866 82.759 25.1741 82.7706 25.0593C82.7752 24.9738 82.7752 24.8882 82.7706 24.8028C82.7706 24.7371 82.7706 24.6715 82.7706 24.6119C82.7706 24.5522 82.7706 24.4806 82.7706 24.415C82.7018 24.1799 82.5622 23.9716 82.3709 23.8185C82.0454 23.5978 81.6527 23.4986 81.2614 23.5382L80.5098 23.5203ZM69.4565 32.5872C67.4682 32.5872 65.9709 31.9907 64.9648 30.7977C63.9491 29.6464 63.4002 28.1572 63.4258 26.6221C63.3965 25.0907 63.9364 23.6028 64.941 22.4465C65.9491 21.2535 67.4582 20.657 69.4565 20.657H69.6176C71.6159 20.657 73.1251 21.2535 74.1332 22.4465C75.1353 23.6043 75.6748 25.0911 75.6483 26.6221C75.6705 28.1415 75.1309 29.6157 74.1332 30.7619C73.1251 31.9549 71.6159 32.5514 69.6176 32.5514L69.4565 32.5872ZM37.2451 28.7934C36.9543 29.6866 36.5536 30.5402 36.0521 31.3345C31.6081 30.9099 27.1304 31.6586 23.0662 33.5058L23.5076 30.3443C27.88 28.7003 32.5921 28.1674 37.2213 28.7934H37.2451ZM37.7402 25.3336V25.3814C37.74 26.1672 37.658 26.9508 37.4957 27.7197C32.8015 27.0819 28.0221 27.676 23.6269 29.4436L24.0146 26.6698C28.4101 25.1016 33.1248 24.6426 37.7402 25.3336ZM37.2809 22.1722C37.4716 22.8408 37.5995 23.5258 37.6627 24.2182C33.0978 23.5491 28.4376 24.0625 24.128 25.7094L24.456 23.3234C28.5566 21.9033 32.9355 21.4761 37.2332 22.0767L37.2809 22.1722ZM35.6883 18.8496C36.1612 19.5167 36.5611 20.2326 36.8813 20.9851C32.7442 20.4985 28.5506 20.9763 24.629 22.3809L24.9452 20.1142C28.4104 19.0099 32.055 18.5786 35.6823 18.8436L35.6883 18.8496ZM32.7594 15.9685C33.5944 16.5365 34.3505 17.2124 35.0082 17.9787V17.9787C31.6246 17.8252 28.2416 18.2963 25.0287 19.3686L25.3389 17.1496C27.7522 16.4499 30.2424 16.0492 32.7534 15.9566L32.7594 15.9685ZM26.3708 14C28.267 13.998 30.1334 14.4718 31.799 15.3779V15.3779C29.6287 15.5576 27.4856 15.9818 25.4104 16.6425L25.6908 14.6263C23.2232 14.7936 20.8884 15.8053 19.0789 17.4914C17.2695 19.1775 16.0956 21.4351 15.7548 23.8848C15.4139 26.3345 15.9268 28.8268 17.2073 30.9428C18.4877 33.0588 20.4576 34.6695 22.7858 35.5041L22.9588 34.2813C26.8998 32.6133 31.1825 31.9118 35.4497 32.2352C34.2816 33.7804 32.7383 35.0017 30.966 35.7834C29.1938 36.565 27.2513 36.8812 25.3226 36.702C23.3939 36.5227 21.543 35.8539 19.9452 34.759C18.3473 33.6641 17.0556 32.1793 16.1923 30.4453C15.329 28.7113 14.9228 26.7857 15.0121 24.8507C15.1014 22.9158 15.6834 21.0357 16.7028 19.3887C17.7222 17.7417 19.1453 16.3822 20.8372 15.4392C22.5291 14.4962 24.4338 14.0008 26.3708 14V14ZM69.5222 29.891C69.6333 29.8994 69.745 29.8994 69.8562 29.891C69.9762 29.8731 70.0942 29.8432 70.2081 29.8015C70.7616 29.6395 71.2526 29.3129 71.6159 28.865C72.0927 28.2302 72.3218 27.4434 72.2601 26.6519C72.3197 25.868 72.0906 25.0894 71.6159 24.4627C71.2481 24.0237 70.7581 23.7039 70.2081 23.5441C70.0948 23.5143 69.9755 23.4845 69.8681 23.4666C69.7581 23.4451 69.6462 23.4351 69.5341 23.4368C69.4121 23.4353 69.2903 23.4453 69.1702 23.4666C69.0439 23.4851 68.9199 23.5171 68.8004 23.562C68.263 23.7394 67.7899 24.0714 67.4403 24.5164C66.9934 25.1435 66.7821 25.9082 66.8438 26.6758C66.7832 27.4433 66.9943 28.2076 67.4403 28.8351C67.7916 29.2784 68.2641 29.61 68.8004 29.7896C68.9171 29.8304 69.0367 29.8623 69.1583 29.885C69.2793 29.8956 69.4009 29.8976 69.5222 29.891V29.891Z" fill="#003869"/>
</svg>
