<svg width="200" height="50" viewBox="0 0 200 50" fill="none" xmlns="http://www.w3.org/2000/svg">
<path fill-rule="evenodd" clip-rule="evenodd" d="M77.139 33.7878C75.9155 30.9982 75.2867 28.0086 75.2883 24.9897C75.2908 20.4431 76.7228 15.9992 79.4032 12.2201C82.0836 8.44105 85.8921 5.49644 90.347 3.75868C94.8019 2.02091 99.7031 1.56804 104.431 2.45733C109.159 3.34662 113.501 5.53813 116.908 8.75474C120.315 11.9713 122.634 16.0686 123.572 20.5283C124.51 24.988 124.025 29.6099 122.178 33.8096C120.331 38.0092 117.205 41.598 113.195 44.122C109.185 46.646 104.472 47.992 99.6508 47.9897C96.4499 47.9881 93.2806 47.392 90.3239 46.2353C87.3672 45.0786 84.681 43.384 82.4188 41.2483C80.1565 39.1125 78.3624 36.5774 77.139 33.7878ZM111.835 7.80299C108.228 5.53232 103.988 4.32159 99.6508 4.32392C93.8381 4.32704 88.2646 6.50695 84.1556 10.3844C80.0466 14.2619 77.7383 19.5195 77.7383 25.0015C77.7383 29.0916 79.0245 33.0899 81.4342 36.4906C83.8439 39.8912 87.2689 42.5415 91.2759 44.1062C95.2829 45.6709 99.6919 46.0797 103.945 45.2809C108.199 44.4821 112.105 42.5116 115.171 39.6186C118.237 36.7256 120.324 33.0401 121.169 29.0283C122.013 25.0164 121.577 20.8585 119.916 17.0804C118.254 13.3022 115.442 10.0736 111.835 7.80299ZM87.5508 11.4903V11.0069H91.9758C93.2296 10.9247 94.4761 11.2444 95.513 11.9142C96.55 12.584 97.3165 13.5646 97.6883 14.6968L105.188 36.011V14.0013C105.188 13.3414 104.913 12.708 104.422 12.2381C103.931 11.7682 103.263 11.4996 102.563 11.4903V11.0187H105.601C107.351 11.0218 109.029 11.6783 110.268 12.8446C111.507 14.0109 112.207 15.5923 112.213 17.2432V17.3493C112.208 18.7361 111.714 20.0818 110.809 21.1746C109.904 22.2674 108.639 23.0451 107.213 23.3852C109.043 23.7884 110.675 24.7618 111.845 26.1481C113.016 27.5343 113.656 29.2523 113.663 31.0244V31.1304C113.657 33.2066 112.778 35.1958 111.221 36.6628C109.663 38.1298 107.552 38.9551 105.351 38.9582C99.8883 38.9582 97.4383 33.9833 96.7508 31.8849L91.7508 18.1745V35.8578C91.7524 36.1859 91.8231 36.5104 91.9589 36.8125C92.0947 37.1146 92.2928 37.3883 92.5417 37.6175C92.7906 37.8468 93.0853 38.0271 93.4088 38.148C93.7322 38.2689 94.0779 38.3279 94.4258 38.3216H95.4133V38.9818H87.5508V38.3216H87.6758C88.3676 38.3185 89.0302 38.0579 89.5195 37.5966C90.0087 37.1352 90.285 36.5103 90.2883 35.8578V13.9542C90.285 13.3017 90.0087 12.6768 89.5195 12.2154C89.0302 11.754 88.3676 11.4934 87.6758 11.4903H87.5508ZM72.1 23.3966C71.9125 24.157 71.7593 24.7258 71.6062 25.2946C71.4531 25.8634 71.3 26.4322 71.1125 27.1926C70.6894 28.7165 69.7391 30.0636 68.4122 31.0203C67.0852 31.977 65.4577 32.4886 63.7875 32.474C60.3875 32.474 58.125 30.3402 58.9 27.1926C59.0938 26.3793 59.2555 25.7852 59.4214 25.1758C59.5656 24.6457 59.713 24.1041 59.8875 23.3966C60.65 20.2372 63.6375 18.4335 67.2 18.4335C70.7625 18.4335 72.8625 20.2372 72.1 23.3966ZM68.35 24.1629C68.825 22.1824 68.05 21.0506 66.5625 21.0506C65.075 21.0506 63.7625 22.2295 63.275 24.1629C63.1691 24.5886 63.0831 24.9182 63.0003 25.2353C62.8975 25.6296 62.7997 26.0045 62.675 26.5207C62.1875 28.5012 63.0125 29.8333 64.425 29.8333C65.8375 29.8333 67.2625 28.5012 67.75 26.5207C67.8973 25.8954 68.0071 25.4774 68.132 25.0019L68.1322 25.0012C68.198 24.7506 68.268 24.4841 68.35 24.1629ZM47.375 18.6457L47.275 19.0583C47.3608 19.0683 47.4431 19.096 47.5163 19.1395C47.5894 19.183 47.6515 19.2411 47.698 19.3098C47.7446 19.3785 47.7745 19.456 47.7856 19.5368C47.7968 19.6177 47.7889 19.6998 47.7625 19.7775C46.8125 23.7267 45.8625 27.6524 44.8875 31.5663C44.8642 31.6484 44.8628 31.7346 44.8832 31.8174C44.9036 31.9002 44.9452 31.977 45.0045 32.0411C45.0638 32.1051 45.1388 32.1544 45.223 32.1847C45.3072 32.215 45.398 32.2253 45.4875 32.2146H49.0625L49.1625 31.8138C49.0783 31.8212 48.9934 31.8098 48.9148 31.7805C48.8362 31.7511 48.766 31.7047 48.71 31.645C48.654 31.5852 48.6137 31.5139 48.5924 31.4367C48.5711 31.3595 48.5694 31.2787 48.5875 31.2008L49.65 26.78L51.2625 25.4597L52.775 31.4602C52.8774 31.7311 53.0814 31.9574 53.3485 32.0964C53.6156 32.2353 53.9273 32.2774 54.225 32.2146H55.7625C56.2875 32.2146 56.55 31.9789 56.6875 31.4484L57.0875 29.7626H56.125C55.825 29.7626 55.65 29.6565 55.6 29.4443L54.025 23.5499L58 20.2372C59.35 19.0583 58.5 18.5396 57.225 18.6457H54.35L54.25 19.0583C54.8125 18.9994 54.925 19.3648 54.475 19.7657L50.6 22.9369L51.4875 19.2705C51.5059 19.19 51.5037 19.1065 51.4811 19.0269C51.4585 18.9473 51.4162 18.874 51.3575 18.8129C51.2989 18.7518 51.2257 18.7048 51.1439 18.6757C51.0622 18.6467 50.9743 18.6364 50.8875 18.6457H47.375ZM39.6875 18.6457H43.2C43.2868 18.6364 43.3747 18.6467 43.4564 18.6757C43.5382 18.7048 43.6114 18.7518 43.67 18.8129C43.7287 18.874 43.771 18.9473 43.7936 19.0269C43.8162 19.1065 43.8184 19.19 43.8 19.2705L42.875 23.0665L40.8875 31.3187C40.8689 31.3977 40.8707 31.4797 40.8926 31.5579C40.9146 31.6361 40.956 31.7082 41.0135 31.7682C41.071 31.8282 41.1429 31.8743 41.2232 31.9028C41.3035 31.9312 41.3898 31.9412 41.475 31.9317L41.375 32.3325H37.7875C37.699 32.341 37.6097 32.3292 37.5272 32.298C37.4447 32.2668 37.3714 32.2172 37.3136 32.1535C37.2559 32.0897 37.2154 32.0137 37.1956 31.932C37.1758 31.8503 37.1773 31.7652 37.2 31.6842C37.75 29.3971 38.3 27.1337 38.8625 24.8584L33.1375 30.9179L33.0375 31.3187C33.0194 31.3966 33.0211 31.4774 33.0424 31.5546C33.0637 31.6318 33.104 31.7031 33.16 31.7629C33.216 31.8226 33.2862 31.869 33.3648 31.8983C33.4434 31.9277 33.5283 31.9391 33.6125 31.9317L33.5125 32.3325H29.9375C29.848 32.3431 29.7572 32.3329 29.673 32.3026C29.5888 32.2723 29.5138 32.223 29.4545 32.1589C29.3952 32.0949 29.3536 32.0181 29.3332 31.9353C29.3128 31.8525 29.3142 31.7663 29.3375 31.6842C30.2525 27.9669 31.1454 24.2807 32.0474 20.5575L32.225 19.8246C32.2492 19.7477 32.2554 19.6668 32.2433 19.5874C32.2311 19.508 32.2008 19.432 32.1544 19.3648C32.108 19.2975 32.0468 19.2406 31.9748 19.1978C31.9028 19.1551 31.8218 19.1276 31.7375 19.1173L31.825 18.7047H35.35C35.4368 18.6953 35.5247 18.7056 35.6064 18.7347C35.6882 18.7638 35.7614 18.8108 35.82 18.8718C35.8787 18.9329 35.921 19.0063 35.9436 19.0858C35.9662 19.1654 35.9684 19.2489 35.95 19.3295L35.025 23.1255L34.3125 25.9548L40.0375 19.9071V19.7067C40.0617 19.6298 40.0679 19.5489 40.0558 19.4695C40.0436 19.3901 40.0133 19.3142 39.9669 19.2469C39.9205 19.1796 39.8593 19.1227 39.7873 19.0799C39.7153 19.0372 39.6343 19.0097 39.55 18.9994L39.65 18.5868L39.6875 18.6457ZM24 18.6457H27.5125C27.5996 18.637 27.6877 18.6476 27.7698 18.6766C27.8518 18.7057 27.9255 18.7524 27.985 18.8131C28.0445 18.8738 28.0882 18.9468 28.1125 19.0262C28.1368 19.1056 28.141 19.1893 28.125 19.2705L27.2 23.0665L25.2 31.3187C25.1842 31.3973 25.188 31.4783 25.211 31.5554C25.2339 31.6324 25.2755 31.7034 25.3324 31.7627C25.3893 31.8221 25.46 31.8682 25.5389 31.8976C25.6179 31.9269 25.7029 31.9386 25.7875 31.9317L25.6875 32.3325H22.1125C22.023 32.3431 21.9322 32.3329 21.848 32.3026C21.7638 32.2723 21.6888 32.223 21.6295 32.1589C21.5702 32.0949 21.5286 32.0181 21.5082 31.9353C21.4878 31.8525 21.4892 31.7663 21.5125 31.6842C21.6749 31.0117 21.839 30.3392 22.003 29.6672L22.0032 29.6662C22.2933 28.4774 22.583 27.2903 22.8625 26.108H18.6125L17.3625 31.3187C17.3444 31.3966 17.3461 31.4774 17.3674 31.5546C17.3887 31.6318 17.429 31.7031 17.485 31.7629C17.541 31.8226 17.6112 31.869 17.6898 31.8983C17.7684 31.9277 17.8533 31.9391 17.9375 31.9317L17.85 32.3325H14.25C14.1608 32.344 14.07 32.3342 13.9858 32.304C13.9017 32.2738 13.827 32.2242 13.7685 32.1596C13.71 32.0951 13.6697 32.0177 13.6512 31.9346C13.6326 31.8516 13.6365 31.7654 13.6625 31.6842C14.0345 30.1531 14.4028 28.6273 14.771 27.1021L14.7713 27.1006L14.7714 27.1004C15.3556 24.6802 15.9395 22.2613 16.5375 19.8246C16.5617 19.7477 16.5679 19.6668 16.5558 19.5874C16.5436 19.508 16.5133 19.432 16.4669 19.3648C16.4205 19.2975 16.3593 19.2406 16.2873 19.1978C16.2153 19.1551 16.1343 19.1276 16.05 19.1173L16.15 18.7047H19.6625C19.7493 18.6953 19.8372 18.7056 19.9189 18.7347C20.0007 18.7638 20.0739 18.8108 20.1325 18.8718C20.1912 18.9329 20.2335 19.0063 20.2561 19.0858C20.2787 19.1654 20.2809 19.2489 20.2625 19.3295L19.3375 23.1255L19.2375 23.5381H23.4875L24.3875 19.8246C24.414 19.7477 24.422 19.6662 24.4108 19.586C24.3996 19.5058 24.3696 19.429 24.3228 19.3611C24.2761 19.2933 24.2139 19.2362 24.1407 19.194C24.0675 19.1518 23.9853 19.1256 23.9 19.1173L24 18.6457ZM176.512 18.4454H172.887L172.825 18.5044L172.725 18.9288C172.813 18.9367 172.899 18.9635 172.974 19.007C173.05 19.0505 173.115 19.1096 173.163 19.1799C173.211 19.2503 173.241 19.33 173.252 19.4131C173.263 19.4962 173.254 19.5805 173.225 19.6597C172.861 21.1614 172.5 22.6583 172.138 24.1533C171.518 26.7191 170.899 29.2795 170.275 31.8493C170.247 31.9334 170.242 32.0227 170.261 32.1091C170.279 32.1955 170.32 32.2762 170.379 32.3441C170.439 32.4119 170.515 32.4647 170.602 32.4977C170.688 32.5307 170.782 32.5428 170.875 32.533H174.625L174.725 32.1086C174.638 32.118 174.55 32.1077 174.469 32.0786C174.387 32.0496 174.314 32.0026 174.255 31.9415C174.196 31.8804 174.154 31.8071 174.131 31.7275C174.109 31.6479 174.107 31.5644 174.125 31.4838L175.237 26.9334L176.887 25.5659L178.45 31.7432C178.687 32.3208 179.162 32.533 179.937 32.533H181.525C182.062 32.533 182.337 32.2737 182.475 31.7432L182.9 29.9985H181.9C181.587 30.0102 181.362 29.9041 181.362 29.6684L179.737 23.5971L183.862 20.0841C185.237 18.8934 184.312 18.3275 183.062 18.4454H180.075L179.975 18.858C180.55 18.8109 180.662 19.1763 180.2 19.6007L176.212 22.8662L177.125 19.0938C177.146 19.0109 177.145 18.9245 177.123 18.8419C177.1 18.7594 177.057 18.6831 176.997 18.6195C176.937 18.5559 176.862 18.5069 176.777 18.4766C176.693 18.4463 176.602 18.4356 176.512 18.4454ZM165.925 18.8698L166.025 18.4454H169.762C169.851 18.4362 169.94 18.4468 170.024 18.4765C170.107 18.5062 170.181 18.5541 170.241 18.6162C170.301 18.6783 170.344 18.7529 170.367 18.8339C170.391 18.9149 170.393 18.9999 170.375 19.082L169.425 22.9959L167.375 31.4367C167.357 31.5177 167.36 31.6016 167.382 31.6816C167.405 31.7615 167.447 31.8354 167.505 31.8973C167.564 31.9591 167.636 32.0073 167.718 32.0378C167.8 32.0684 167.888 32.0805 167.975 32.0733L167.875 32.4859H164.125C164.032 32.4948 163.938 32.4822 163.851 32.4492C163.765 32.4162 163.688 32.3637 163.628 32.2964C163.567 32.229 163.525 32.1488 163.505 32.0627C163.485 31.9766 163.488 31.8871 163.512 31.8021C163.768 30.7423 164.026 29.686 164.285 28.6313C164.495 27.7738 164.705 26.9174 164.912 26.061H160.525L159.275 31.4367C159.259 31.5184 159.264 31.6025 159.288 31.6823C159.312 31.7622 159.356 31.8357 159.415 31.8972C159.474 31.9587 159.548 32.0066 159.63 32.0371C159.711 32.0676 159.8 32.08 159.887 32.0733L159.787 32.4859H156.037C155.944 32.4948 155.851 32.4822 155.764 32.4492C155.677 32.4162 155.6 32.3637 155.54 32.2964C155.48 32.229 155.438 32.1488 155.418 32.0627C155.398 31.9766 155.4 31.8871 155.425 31.8021C156.231 28.5139 157.021 25.2486 157.814 21.9692C158.005 21.1807 158.196 20.3914 158.387 19.6007C158.416 19.5224 158.426 19.439 158.416 19.3567C158.406 19.2744 158.376 19.1953 158.329 19.1252C158.283 19.055 158.22 18.9957 158.145 18.9515C158.071 18.9073 157.987 18.8794 157.9 18.8698L158 18.4454H161.55C161.975 18.4454 162.262 18.7283 162.175 19.082L161.225 22.9959L161.112 23.4203H165.5C165.8 22.1471 166.112 20.8739 166.425 19.6007C166.451 19.5215 166.459 19.4378 166.447 19.3556C166.435 19.2733 166.404 19.1945 166.357 19.1248C166.309 19.055 166.245 18.996 166.171 18.952C166.096 18.9079 166.012 18.8799 165.925 18.8698ZM144.475 28.9846H148.525L148.587 28.9728V31.4603C148.575 31.8021 148.712 32.4269 149.225 32.4269H152.837L152.937 32.0025C152.387 32.0025 152.237 31.4485 152.237 31.0123L152.075 19.695C152.037 18.4454 151.362 18.3865 150.262 18.3865H146.512L146.412 18.7991C147.062 18.7991 147.225 19.1645 146.875 19.7304L139.562 31.5192C139.337 31.9554 139.462 32.4859 140.112 32.4859H143.637L143.737 32.0615C143.618 32.0573 143.501 32.0225 143.401 31.9608C143.3 31.8991 143.219 31.8128 143.167 31.7112C143.114 31.6095 143.092 31.4963 143.102 31.3836C143.112 31.2709 143.155 31.1629 143.225 31.0712L144.475 28.9846ZM145.947 26.6269H145.912L145.925 26.6622L145.947 26.6269ZM145.947 26.6269H148.512V22.4182L145.947 26.6269ZM131.012 29.7863L131.987 25.7545H133.287C134.375 25.7545 135.35 26.2732 135.075 27.4521L134.875 28.2537C134.727 28.726 134.412 29.1361 133.982 29.4152C133.552 29.6942 133.033 29.8253 132.512 29.7863H131.012ZM129.25 18.8816L129.375 18.4218L139.45 18.4101L139.15 19.5889C139.075 19.8577 138.916 20.0986 138.693 20.2797C138.469 20.4608 138.193 20.5735 137.9 20.6028H133.237L132.675 22.9605L132.6 23.2788H134.8C137.287 23.2788 139.5 24.5756 138.875 27.1338L138.375 28.9728C138.043 30.0533 137.329 30.9939 136.351 31.6375C135.372 32.2811 134.19 32.5889 133 32.5095H127.4C127.307 32.5184 127.213 32.5058 127.126 32.4728C127.04 32.4397 126.963 32.3873 126.902 32.3199C126.842 32.2526 126.8 32.1724 126.78 32.0863C126.76 32.0001 126.763 31.9107 126.787 31.8257C127.595 28.5333 128.386 25.2638 129.18 21.9803C129.37 21.1959 129.56 20.4108 129.75 19.6243C129.776 19.5444 129.784 19.46 129.772 19.3771C129.76 19.2942 129.729 19.2146 129.682 19.144C129.634 19.0734 129.571 19.0133 129.496 18.968C129.422 18.9227 129.338 18.8932 129.25 18.8816Z" fill="#008036"/>
</svg>
