<svg width="200" height="50" viewBox="0 0 200 50" fill="none" xmlns="http://www.w3.org/2000/svg">
<path fill-rule="evenodd" clip-rule="evenodd" d="M142.152 26.1109L140.546 22.317L138.973 26.1109H142.152ZM146.483 30.1505H143.923L142.913 27.8277H138.249L137.289 30.1505H134.802L139.346 19.9269H141.834L146.498 30.1505H146.483ZM128.911 21.6623V24.5607H130.197C131.124 24.5607 131.745 24.5085 132.056 24.4008C132.346 24.3084 132.602 24.1328 132.792 23.8958C132.968 23.6684 133.062 23.3876 133.058 23.0997C133.063 22.9287 133.032 22.7585 132.968 22.6C132.904 22.4414 132.807 22.2981 132.684 22.179C132.425 21.9326 132.095 21.7742 131.74 21.7262C131.178 21.6659 130.613 21.6428 130.048 21.6572H128.911V21.6623ZM126.554 30.1538H128.911V26.2977H130.442C131.258 26.3138 132.075 26.2643 132.883 26.1496C133.315 26.0632 133.728 25.8995 134.101 25.6665C134.542 25.3975 134.903 25.015 135.146 24.5591C135.389 24.1032 135.505 23.5905 135.482 23.0744C135.482 22.2632 135.257 21.6 134.808 21.0849C134.37 20.5782 133.78 20.2273 133.125 20.0852C132.692 19.9819 131.76 19.9303 130.329 19.9303H126.554V30.1538V30.1538ZM115.701 30.1538V19.932H124.336V21.6623H118.053V23.9278H123.9V25.648H118.053V28.4303H124.56V30.1538H115.701V30.1538ZM106.42 27.2386V22.6705C105.43 22.6705 104.716 22.8652 104.276 23.2545C103.836 23.6439 103.617 24.2313 103.618 25.0168C103.618 26.4991 104.552 27.2397 106.422 27.2386H106.42ZM108.723 27.2386C109.264 27.2517 109.803 27.1597 110.31 26.9676C110.694 26.8322 111.024 26.5759 111.251 26.2371C111.436 25.9308 111.53 25.4797 111.53 24.8906C111.53 23.4116 110.594 22.6722 108.723 22.6722V27.2403V27.2386ZM108.723 28.9621V30.1538H106.42V28.9621C104.56 28.9027 103.247 28.4998 102.482 27.7536C102.106 27.3917 101.81 26.9557 101.613 26.4732C101.415 25.9907 101.32 25.4724 101.334 24.9512C101.334 23.7707 101.733 22.8242 102.532 22.1117C103.331 21.3991 104.626 21.012 106.419 20.9503V19.9404H108.721V20.9503C110.571 21.0098 111.881 21.4092 112.651 22.1487C113.389 22.8957 113.803 23.9035 113.803 24.9537C113.803 26.0039 113.389 27.0117 112.651 27.7587C111.881 28.4993 110.57 28.8999 108.716 28.9605L108.723 28.9621ZM97.5146 26.3953L99.7919 27.0282C99.4429 28.1503 98.8617 28.9795 98.0481 29.5159C97.2346 30.0523 96.2028 30.3227 94.9528 30.3272C93.4065 30.3272 92.1352 29.8638 91.1388 28.9369C90.1423 28.01 89.6441 26.7421 89.6441 25.133C89.6441 23.4318 90.1451 22.11 91.1472 21.1674C92.1492 20.2249 93.4655 19.7547 95.0959 19.7569C96.5187 19.7569 97.6756 20.1267 98.5666 20.8661C99.0984 21.3015 99.4962 21.9288 99.7599 22.7479L97.4355 23.2377C97.3141 22.7262 97.007 22.2781 96.5737 21.9804C96.1044 21.6637 95.5473 21.5029 94.9814 21.5209C94.1196 21.5209 93.4161 21.7919 92.8792 22.3372C92.3422 22.8826 92.0729 23.7612 92.0729 24.9798C92.0729 26.2725 92.3377 27.1926 92.8674 27.7402C93.1347 28.0139 93.4565 28.2286 93.8119 28.3704C94.1674 28.5121 94.5485 28.5778 94.9309 28.5632C95.513 28.5783 96.0826 28.3935 96.5451 28.0398C96.9945 27.693 97.3176 27.1427 97.5163 26.3953H97.5146ZM79.3499 25.0353C79.3499 26.1922 79.6545 27.0697 80.2639 27.6678C80.5707 27.9654 80.9344 28.1981 81.3332 28.352C81.732 28.5058 82.1577 28.5777 82.5849 28.5632C83.0098 28.5785 83.4333 28.5075 83.83 28.3545C84.2266 28.2015 84.5881 27.9696 84.8925 27.6728C85.4918 27.0804 85.7919 26.1917 85.793 25.0067C85.7942 23.8218 85.5019 22.9482 84.9161 22.386C84.3304 21.8093 83.5528 21.5215 82.5833 21.5226C81.6121 21.5226 80.8311 21.8154 80.2369 22.3978C79.6428 22.9802 79.3465 23.8605 79.3465 25.037L79.3499 25.0353ZM76.9278 25.1043C76.9278 24.0619 77.1046 23.1878 77.458 22.482C77.7313 21.9523 78.0992 21.4771 78.5437 21.0799C78.9817 20.6799 79.4926 20.3679 80.0484 20.1609C80.8546 19.8772 81.7052 19.7403 82.5597 19.7569C84.2765 19.7569 85.6494 20.2243 86.6784 21.159C87.7074 22.0937 88.223 23.3926 88.2252 25.0555C88.2252 26.7073 87.7135 27.9977 86.6902 28.9268C85.6668 29.8559 84.3012 30.3216 82.5933 30.3238C80.8608 30.3238 79.4829 29.8604 78.4595 28.9335C77.4361 28.0067 76.9256 26.7292 76.9278 25.101V25.1043ZM66.6908 25.0353C66.6908 26.1917 66.9972 27.0703 67.6048 27.6678C67.9119 27.9655 68.2759 28.1983 68.6749 28.3522C69.074 28.506 69.5001 28.5778 69.9276 28.5632C70.3524 28.5785 70.776 28.5075 71.1726 28.3545C71.5692 28.2015 71.9307 27.9696 72.2352 27.6728C72.8344 27.0804 73.1345 26.1917 73.1357 25.0067C73.1368 23.8218 72.8445 22.9482 72.2587 22.386C71.673 21.8093 70.8959 21.5215 69.9276 21.5226C68.9592 21.5237 68.1771 21.8154 67.5812 22.3978C66.9904 22.9802 66.6908 23.8605 66.6908 25.037V25.0353ZM64.2688 25.1043C64.2688 24.0619 64.4461 23.1878 64.8006 22.482C65.0732 21.9523 65.4406 21.477 65.8846 21.0799C66.3226 20.6798 66.8334 20.3678 67.3893 20.1609C68.1955 19.8769 69.0461 19.7401 69.9006 19.7569C71.6175 19.7569 72.9909 20.2243 74.021 21.159C75.0511 22.0937 75.5662 23.3926 75.5662 25.0555C75.5662 26.7073 75.0545 27.9977 74.0311 28.9268C73.0077 29.8559 71.6416 30.3216 69.9326 30.3238C68.1989 30.3238 66.821 29.8604 65.7988 28.9335C64.7765 28.0067 64.266 26.7292 64.2671 25.101L64.2688 25.1043ZM53 30.1538V19.932H55.3564V23.9547H59.9616V19.932H62.318V30.1555H59.9616V25.6833H55.3564V30.1538H53Z" fill="#293895"/>
<path fill-rule="evenodd" clip-rule="evenodd" d="M114.435 0C120.959 0 126.97 2.03831 131.721 5.44335C126.607 4.60032 121.438 4.13954 116.255 4.06484L114.435 1.24554L112.618 4.06652C107.435 4.14119 102.265 4.60197 97.151 5.44503C101.903 2.03831 107.911 0 114.435 0ZM93.2511 8.84334C93.563 8.51344 93.8834 8.1914 94.2122 7.87721C99.4637 6.43305 105.437 5.53256 111.8 5.33563L110.79 6.90771C104.9 7.06765 99.0338 7.71507 93.2511 8.84334ZM135.009 8.266C135.338 8.58019 135.659 8.90223 135.97 9.23213C130.189 8.10406 124.324 7.45663 118.436 7.2965L117.426 5.72443C123.782 5.92304 129.752 6.82353 135.009 8.266ZM91.1791 11.3327C90.9244 11.6817 90.6792 12.0363 90.4436 12.3965C95.8449 11.1981 102.057 10.3902 108.731 10.099L110.047 8.05225C103.032 8.39898 96.5653 9.56878 91.1791 11.3327ZM87.8566 17.6732C88.1499 16.8175 88.4928 15.9795 88.8833 15.1636C94.0002 13.3542 100.519 12.08 107.765 11.5886L103.842 17.6732H87.8566ZM87.8549 32.3218C88.1484 33.1769 88.4912 34.0143 88.8816 34.8297C93.9984 36.6391 100.517 37.9149 107.768 38.4064L103.845 32.3218H87.8549ZM91.1791 38.6672C90.9244 38.3183 90.6792 37.9631 90.4436 37.6018C95.8449 38.8019 102.057 39.6098 108.731 39.9061L110.047 41.9477C103.03 41.601 96.5703 40.4312 91.1791 38.6672ZM93.2494 41.155C93.5602 41.4849 93.8806 41.8069 94.2105 42.1211C99.4552 43.5653 105.437 44.4658 111.794 44.661L110.785 43.0889C104.896 42.9298 99.031 42.2829 93.2494 41.155ZM131.721 44.555C126.97 47.96 120.959 50 114.435 50C107.911 50 101.901 47.96 97.151 44.555C102.265 45.3985 107.435 45.8599 112.618 45.9352L114.435 48.7545L116.255 45.9352C121.438 45.8598 126.607 45.3985 131.721 44.555ZM134.662 42.1211C134.992 41.8058 135.312 41.4837 135.623 41.155C129.84 42.2842 123.974 42.9322 118.084 43.0923L117.075 44.6644C123.435 44.4674 129.41 43.5653 134.662 42.1211ZM138.431 37.6018C138.195 37.962 137.95 38.3172 137.695 38.6672C132.309 40.4312 125.842 41.601 118.825 41.9477L120.141 39.9061C126.815 39.6081 133.028 38.8002 138.431 37.6018ZM139.991 34.8263C140.382 34.0105 140.724 33.1725 141.018 32.3167H125.039L121.109 38.403C128.355 37.9115 134.874 36.6357 139.991 34.8263ZM139.991 15.1687C140.382 15.9845 140.725 16.8224 141.018 17.6783H125.039L121.109 11.5936C128.355 12.0851 134.874 13.3593 139.991 15.1687ZM138.431 12.3965C138.195 12.0363 137.95 11.6817 137.695 11.3327C132.302 9.56878 125.842 8.39898 118.825 8.05225L120.143 10.0939C126.817 10.3902 133.029 11.1981 138.431 12.3965ZM53.8416 36.4825H53.2559V39.1671H53.8349V37.9889C53.9101 37.9843 53.985 38.0019 54.0503 38.0394C54.1295 38.1098 54.1941 38.195 54.2405 38.2902C54.2584 38.3217 54.2742 38.3478 54.2864 38.3679C54.3029 38.3951 54.3129 38.4116 54.3129 38.4164L54.3465 38.4737L54.6832 39.1638H55.3564L54.9643 38.4232C54.8864 38.2683 54.794 38.1212 54.6882 37.9839C54.6075 37.8821 54.4958 37.8094 54.3701 37.7768C54.455 37.7391 54.5295 37.6813 54.5872 37.6085C54.6338 37.5355 54.6722 37.4576 54.7017 37.3763C54.7432 37.2572 54.7933 37.1413 54.8515 37.0295C54.8844 36.974 54.933 36.9295 54.9912 36.9016C55.0737 36.8695 55.1621 36.8557 55.2504 36.8612H55.3312V36.4707H55.247C55.0482 36.4571 54.8491 36.4935 54.668 36.5768C54.4973 36.7174 54.372 36.9054 54.3078 37.1171C54.2559 37.2646 54.1852 37.4049 54.0974 37.5345C54.025 37.5929 53.9346 37.6244 53.8416 37.6237V36.4825ZM55.5684 37.8358C55.5685 37.8369 55.5685 37.838 55.5685 37.8391V37.8341C55.5685 37.8346 55.5685 37.8352 55.5684 37.8358ZM55.6998 37.149C55.6067 37.3657 55.5618 37.6 55.5684 37.8358C55.5579 38.0205 55.5858 38.2054 55.6506 38.3788C55.7155 38.5527 55.8159 38.7111 55.9456 38.844C56.0815 38.9684 56.2407 39.0647 56.4141 39.1274C56.5874 39.1901 56.7714 39.2179 56.9554 39.2092C57.1398 39.2186 57.3241 39.1909 57.4975 39.1279C57.671 39.0649 57.83 38.9678 57.9653 38.8423C58.2097 38.5583 58.344 38.1961 58.344 37.8214C58.344 37.4468 58.2097 37.0846 57.9653 36.8006C57.8298 36.6754 57.6707 36.5783 57.4974 36.515C57.324 36.4517 57.1398 36.4235 56.9554 36.432C56.7447 36.4281 56.5351 36.4641 56.3377 36.538C56.1996 36.5937 56.0738 36.6761 55.9674 36.7804C55.8567 36.8861 55.766 37.011 55.6998 37.149ZM56.3899 38.5124C56.2274 38.32 56.1465 38.0718 56.1644 37.8206H56.1745C56.1547 37.5698 56.2331 37.3212 56.3933 37.1271C56.468 37.0505 56.558 36.9905 56.6575 36.9511C56.757 36.9117 56.8637 36.8936 56.9706 36.8982C57.0769 36.8936 57.1829 36.9114 57.2818 36.9506C57.3807 36.9897 57.4703 37.0493 57.5446 37.1255C57.7006 37.3193 57.7754 37.566 57.7533 37.8139C57.7727 38.0672 57.693 38.3182 57.5311 38.5141C57.458 38.5909 57.3696 38.6514 57.2716 38.6917C57.1735 38.732 57.0681 38.7512 56.9622 38.748C56.8556 38.7513 56.7495 38.7319 56.6509 38.6913C56.5523 38.6507 56.4633 38.5897 56.3899 38.5124ZM58.7918 36.4825V39.1671L58.7935 39.1638H59.3388V37.0531L59.901 39.1638H60.4514L61.0169 37.0531V39.1621H61.5404V36.4825H60.6702L60.1652 38.3104L59.6603 36.4825H58.7918ZM62.1244 36.4825V39.1671L62.1261 39.1638H62.663V37.0531L63.2252 39.1638H63.784L64.3496 37.0531V39.1621H64.8815V36.4825H64.0113L63.5063 38.3104L62.993 36.4825H62.1244ZM65.4655 36.4825V39.1671L65.4672 39.1655H67.6435V38.7127H66.0462V37.9872H67.4752V37.5345H66.0462V36.9353H67.5863V36.4825H65.4655ZM68.1333 36.4825V39.1671L68.135 39.1621H68.714V38.1522H69.0927C69.2932 38.1564 69.4937 38.1435 69.6919 38.1135C69.7987 38.0902 69.9003 38.0474 69.9915 37.9872C70.092 37.9194 70.175 37.8289 70.2339 37.723C70.3002 37.5953 70.3327 37.4527 70.3282 37.3089C70.3359 37.12 70.2762 36.9345 70.1599 36.7855C70.0549 36.6551 69.91 36.5629 69.7475 36.5229C69.5204 36.4876 69.2904 36.474 69.0607 36.4825H68.1333ZM68.714 37.7028V36.9403H68.9917C69.1306 36.9368 69.2695 36.943 69.4075 36.9588C69.4954 36.9721 69.5765 37.0141 69.6381 37.0783C69.6688 37.1106 69.6928 37.1486 69.7086 37.1902C69.7245 37.2318 69.732 37.2762 69.7306 37.3207C69.7317 37.3955 69.7087 37.4687 69.665 37.5294C69.6198 37.5906 69.5569 37.6364 69.4849 37.6607C69.3363 37.6968 69.1832 37.711 69.0304 37.7028H68.714ZM70.7557 36.4875H70.754L70.7557 36.4808V36.4875ZM71.3347 36.4875H70.7557V37.3847C70.7428 37.5094 70.7626 37.6353 70.8131 37.7501C70.8635 37.8649 70.9429 37.9646 71.0435 38.0394C71.2582 38.1749 71.5084 38.2435 71.7622 38.2363C71.8754 38.2363 71.9883 38.2239 72.0989 38.1993C72.2174 38.1731 72.3335 38.1365 72.4456 38.0899V39.1688H73.0263V36.4892H72.4456V37.6439C72.3695 37.6945 72.2852 37.7316 72.1965 37.7533C72.0864 37.7802 71.9732 37.7926 71.8598 37.7903C71.7369 37.7986 71.6141 37.773 71.5047 37.7163C71.4698 37.698 71.4388 37.673 71.4137 37.6426C71.3885 37.6123 71.3697 37.5772 71.3583 37.5395C71.3373 37.4031 71.3294 37.265 71.3347 37.1271V36.4875ZM73.6154 39.1655V39.1671L73.6137 39.1655H73.6154ZM73.6154 36.4825V39.1655H75.7917V38.7127H74.1961V37.9872H75.6284V37.5345H74.1961V36.9353H75.7362V36.4825H73.6154ZM78.6767 38.3474L78.1162 38.1791L78.1128 38.1842C78.0814 38.3497 77.9976 38.5008 77.8738 38.6151C77.7619 38.7065 77.621 38.7549 77.4766 38.7514C77.3818 38.7541 77.2876 38.7362 77.2005 38.699C77.1133 38.6618 77.0352 38.6062 76.9716 38.5359C76.8414 38.3901 76.7764 38.1488 76.7764 37.8122C76.7536 37.5643 76.8245 37.317 76.975 37.1187C77.0408 37.0482 77.1209 36.9925 77.2101 36.9557C77.2992 36.9188 77.3953 36.9015 77.4917 36.905C77.632 36.9006 77.7699 36.9426 77.8839 37.0245C77.9932 37.1071 78.0687 37.2268 78.096 37.3611L78.6682 37.2332C78.619 37.044 78.5175 36.8725 78.3754 36.7383C78.1375 36.5377 77.8329 36.4337 77.522 36.4471C77.3434 36.4393 77.1651 36.4681 76.9981 36.5318C76.8311 36.5955 76.6788 36.6927 76.5508 36.8174C76.4225 36.9571 76.3235 37.1212 76.2599 37.2999C76.1963 37.4786 76.1693 37.6683 76.1805 37.8576C76.1707 38.0402 76.1982 38.2229 76.2613 38.3945C76.3244 38.5661 76.4217 38.723 76.5474 38.8558C76.7763 39.0615 77.0659 39.1874 77.3724 39.2144C77.679 39.2414 77.9861 39.1681 78.2474 39.0056C78.4616 38.8418 78.6131 38.6095 78.6767 38.3474ZM79.1967 36.4859H79.1816L79.1967 36.4825V36.4859ZM79.7623 36.4859H79.1967V39.1621H79.7758V37.9839C79.851 37.9793 79.9259 37.9968 79.9912 38.0344C80.0663 38.1048 80.1274 38.1887 80.1713 38.2818C80.1892 38.3133 80.205 38.3393 80.2172 38.3595C80.2337 38.3867 80.2437 38.4032 80.2437 38.408L80.2773 38.4653L80.614 39.1554H81.2872L80.8967 38.4215C80.8186 38.2668 80.7262 38.1197 80.6207 37.9822C80.54 37.8804 80.4283 37.8078 80.3026 37.7752C80.3875 37.7375 80.462 37.6797 80.5197 37.6068C80.566 37.5337 80.6044 37.4559 80.6342 37.3746C80.6754 37.2554 80.7254 37.1395 80.784 37.0278C80.8158 36.9743 80.8618 36.9306 80.9169 36.9016C80.9994 36.8695 81.0878 36.8557 81.1761 36.8612H81.2586V36.4707H81.1745C80.9756 36.4571 80.7766 36.4935 80.5955 36.5768C80.4246 36.7173 80.2993 36.9053 80.2353 37.1171C80.1828 37.2644 80.1122 37.4047 80.0249 37.5345C79.9511 37.5955 79.858 37.6283 79.7623 37.627V36.4859ZM82.1625 36.4859H81.6222L81.6138 36.4825V39.1638H82.1978L83.3575 37.4082V39.1655H83.8978V36.4859H83.3222L82.1625 38.27V36.4859ZM84.5004 36.4859H84.4987L84.5004 36.4825V36.4859ZM85.039 36.4859H84.5004V39.1638H85.076L86.2357 37.4082V39.1655H86.7743V36.4859H86.1987L85.039 38.27V36.4859ZM86.2458 35.7116H85.9816C85.9795 35.7491 85.9698 35.7858 85.953 35.8194C85.9362 35.8529 85.9127 35.8827 85.8839 35.9069C85.8099 35.9502 85.7257 35.973 85.6399 35.973C85.5541 35.973 85.4699 35.9502 85.3958 35.9069C85.367 35.8828 85.3434 35.853 85.3266 35.8194C85.3098 35.7858 85.3002 35.7491 85.2982 35.7116H85.0306C85.0346 35.7858 85.0531 35.8584 85.0852 35.9254C85.1172 35.9924 85.1622 36.0525 85.2174 36.1021C85.3387 36.1933 85.4864 36.2426 85.6382 36.2426C85.79 36.2426 85.9377 36.1933 86.059 36.1021C86.1143 36.0525 86.1593 35.9925 86.1914 35.9255C86.2234 35.8585 86.242 35.7858 86.2458 35.7116ZM55.4002 41.7104H53.271V44.39H54.6175C54.8026 44.3973 54.9875 44.3734 55.1646 44.3193C55.2992 44.2643 55.4158 44.1727 55.5012 44.055C55.6036 43.9216 55.6571 43.757 55.6527 43.5888C55.6558 43.4226 55.603 43.2602 55.5029 43.1276C55.413 43.0029 55.2874 42.9084 55.1427 42.8566C54.9711 42.8035 54.792 42.7791 54.6125 42.7842H53.8416V42.1632H55.4002V41.7104ZM54.4021 43.9305H53.8416V43.232H54.429C54.5944 43.2197 54.7602 43.248 54.9121 43.3144C54.9581 43.3417 54.9956 43.3811 55.0205 43.4283C55.0455 43.4755 55.0569 43.5288 55.0535 43.5821C55.0558 43.6612 55.0268 43.738 54.9727 43.7958C54.9216 43.8517 54.8546 43.8904 54.7808 43.9069C54.6556 43.9269 54.5288 43.9348 54.4021 43.9305ZM58.5508 44.3832H58.5545V44.3917L58.5508 44.3832ZM58.5508 44.3832L57.4032 41.702H56.7905L55.6779 44.3832H56.2957L56.5347 43.7739H57.6792L57.9266 44.3832H58.5508ZM57.0951 42.3281L57.4941 43.3195L57.489 43.3279H56.703L57.0951 42.3281ZM58.8625 41.7104V44.3832L58.8591 44.3917H59.4465V43.2135H60.5742V44.3917H61.1549V41.7104H60.5742V42.7657H59.4432V41.7104H58.8625ZM62.3332 41.7104H61.7525V44.3917H62.355V43.2135C62.4304 43.2092 62.5054 43.2273 62.5705 43.2656C62.6458 43.3358 62.7069 43.4198 62.7506 43.5131C62.7683 43.5443 62.784 43.5699 62.7962 43.5897C62.8128 43.6169 62.823 43.6335 62.823 43.6393L62.8566 43.6948L63.1932 44.3849H63.8665L63.476 43.6511C63.398 43.4963 63.3056 43.3492 63.2 43.2118C63.1193 43.1099 63.0076 43.0372 62.8819 43.0047C62.9669 42.9672 63.0415 42.9094 63.099 42.8364C63.1431 42.7619 63.1792 42.6829 63.2067 42.6008C63.248 42.4817 63.2981 42.3658 63.3565 42.2541C63.3879 42.2006 63.4341 42.1573 63.4895 42.1295C63.5723 42.0966 63.6614 42.0822 63.7504 42.0874H63.8295V41.6868H63.7453C63.5465 41.6732 63.3474 41.7097 63.1663 41.7929C62.9946 41.9336 62.8686 42.1223 62.8044 42.3348C62.7527 42.4825 62.682 42.6228 62.594 42.7523C62.5216 42.8152 62.4291 42.8504 62.3332 42.8516V41.7104Z" fill="#293895"/>
</svg>
