<svg width="200" height="50" viewBox="0 0 200 50" fill="none" xmlns="http://www.w3.org/2000/svg">
<path fill-rule="evenodd" clip-rule="evenodd" d="M29.4466 24.5744C29.691 23.9701 29.8016 23.32 29.7707 22.6688C29.8116 22.0108 29.7059 21.3519 29.461 20.7398C29.2162 20.1276 28.8383 19.5776 28.3549 19.1293C27.2011 18.2335 25.7595 17.7908 24.3019 17.8846H21.9137V13.4583H28.4327V11.778H20V27.4842H24.3019C25.7709 27.5773 27.2202 27.1072 28.3549 26.1695C28.8297 25.7229 29.2022 25.1787 29.4466 24.5744ZM24.2163 19.5572C26.6175 19.5572 27.8181 20.5944 27.8181 22.6688V22.657C27.8181 22.648 27.8181 22.639 27.8181 22.6299V22.657C27.8129 24.7393 26.6123 25.7805 24.2163 25.7805H21.8826V19.5572H24.2163ZM42.7931 27.4842H44.769L37.3243 11.2101L29.8796 27.4842H31.8633L33.7847 23.12H40.8794L42.7931 27.4842ZM37.3243 15.1308L40.1015 21.4942H34.5082L37.3243 15.1308ZM56.29 27.4842H58.1336H58.1725V11.778H56.29V18.0791H47.8262V11.778H45.9125V27.4842H47.8262V19.7516H56.29V27.4842ZM69.9191 27.4842H72.3073L64.746 19.2304L72.1362 11.778H69.8024L62.8478 18.9737V11.778H60.9575V27.4842H62.8478V19.4171L69.9191 27.4842ZM154.907 29.4989C150.216 34.781 144.771 37.4259 137.66 37.3792C130.55 37.4492 125.105 34.781 120.414 29.4989L117.248 33.3885C119.885 36.1446 123.054 38.338 126.562 39.8365C130.07 41.335 133.846 42.1076 137.66 42.1076C141.475 42.1076 145.251 41.335 148.759 39.8365C152.267 38.338 155.435 36.1446 158.073 33.3885L154.907 29.4989Z" fill="#E3000F"/>
<path fill-rule="evenodd" clip-rule="evenodd" d="M174.129 20.0783C175.955 20.0731 176.868 20.8692 176.868 22.4665C176.898 22.796 176.861 23.1284 176.758 23.4429C176.655 23.7574 176.488 24.0473 176.269 24.2947C175.652 24.748 174.891 24.9585 174.129 24.8859H172.636V20.0783H174.129ZM179.646 24.3697C179.889 23.7655 180.002 23.1172 179.979 22.4665L179.995 22.4588C180.027 21.7805 179.908 21.1035 179.647 20.4767C179.386 19.8498 178.99 19.2886 178.486 18.8337C177.269 17.8703 175.741 17.3885 174.191 17.4801H172.636V14.4773H178.431V11.7779H169.547V27.4841H174.215C175.809 27.573 177.374 27.0308 178.571 25.975C179.038 25.5207 179.404 24.9739 179.646 24.3697ZM164.063 27.5075H167.175L167.198 27.4997V11L157.35 20.5217V11.7779H154.238V27.2896L164.063 17.729V27.5075ZM149.407 27.5075H153.242L153.289 27.4919L146.404 19.0126L152.9 11.7779H149.29L143.65 18.3436V11.7779H140.578V27.4841H143.65V19.6427L149.407 27.5075ZM134.23 15.6675C135.195 16.7523 135.702 18.1686 135.646 19.6194L135.63 19.6505C135.694 21.1067 135.193 22.5313 134.23 23.6256C133.749 24.109 133.177 24.4926 132.548 24.7543C131.919 25.016 131.244 25.1508 130.562 25.1508C129.88 25.1508 129.205 25.016 128.576 24.7543C127.946 24.4926 127.375 24.109 126.894 23.6256C125.931 22.5313 125.429 21.1067 125.494 19.6505C125.425 18.1912 125.927 16.7625 126.894 15.6675C127.872 14.7045 129.189 14.1648 130.562 14.1648C131.934 14.1648 133.252 14.7045 134.23 15.6675ZM138.366 22.8412C138.773 21.8173 138.964 20.7205 138.928 19.6194H138.897C138.937 18.5216 138.75 17.4274 138.349 16.4049C137.947 15.3825 137.339 14.4536 136.564 13.676C134.958 12.1533 132.829 11.3045 130.616 11.3045C128.403 11.3045 126.275 12.1533 124.669 13.676C123.881 14.4476 123.26 15.3738 122.846 16.3965C122.433 17.4193 122.235 18.5165 122.265 19.6194C122.235 20.7234 122.432 21.8218 122.846 22.8458C123.26 23.8699 123.88 24.7974 124.669 25.5704C126.272 27.0985 128.402 27.9509 130.616 27.9509C132.831 27.9509 134.961 27.0985 136.564 25.5704C137.345 24.7941 137.959 23.865 138.366 22.8412ZM115.77 20.335C117.326 20.335 118.103 21.113 118.103 22.6688L118.111 22.661C118.111 24.1002 117.248 24.8159 115.505 24.8159H113.514V20.335H115.77ZM115.015 14.3995C116.384 14.3995 117.069 14.9363 117.069 16.002V16.0176C117.069 17.2234 116.532 17.8224 115.451 17.8224H113.506V14.3995H115.015ZM121.037 24.4705C121.253 23.8955 121.351 23.2826 121.324 22.6688L121.347 22.7233C121.361 21.8928 121.119 21.0783 120.655 20.3895C120.177 19.6497 119.456 19.0996 118.617 18.8337C119.138 18.5484 119.567 18.1199 119.852 17.5988C120.137 17.0777 120.267 16.4858 120.227 15.8931C120.227 13.1497 118.526 11.7779 115.124 11.7779H110.457V27.4841H115.723C116.508 27.543 117.297 27.4431 118.043 27.1905C118.789 26.9379 119.476 26.5377 120.064 26.0139C120.489 25.5705 120.82 25.0454 121.037 24.4705ZM104.101 15.6675C105.06 16.7547 105.562 18.1707 105.501 19.6194H105.47C105.535 21.0756 105.033 22.5002 104.07 23.5945C103.589 24.0779 103.018 24.4614 102.388 24.7232C101.759 24.9849 101.084 25.1196 100.402 25.1196C99.7202 25.1196 99.0452 24.9849 98.4157 24.7232C97.7863 24.4614 97.2147 24.0779 96.734 23.5945C95.7711 22.5002 95.2693 21.0756 95.3337 19.6194C95.2814 18.1665 95.7945 16.7499 96.7651 15.6675C97.7431 14.7045 99.0605 14.1648 100.433 14.1648C101.806 14.1648 103.123 14.7045 104.101 15.6675ZM108.203 22.8458C108.617 21.8218 108.815 20.7234 108.784 19.6194C108.815 18.5165 108.617 17.4193 108.203 16.3965C107.789 15.3738 107.169 14.4476 106.38 13.676C104.775 12.1533 102.646 11.3045 100.433 11.3045C98.2201 11.3045 96.0915 12.1533 94.4858 13.676C93.6972 14.4476 93.0766 15.3738 92.6629 16.3965C92.2493 17.4193 92.0515 18.5165 92.082 19.6194C92.0514 20.7234 92.2491 21.8218 92.6627 22.8458C93.0763 23.8699 93.697 24.7974 94.4858 25.5704C96.0888 27.0985 98.2184 27.9509 100.433 27.9509C102.648 27.9509 104.777 27.0985 106.38 25.5704C107.169 24.7974 107.79 23.8699 108.203 22.8458ZM87.2978 27.4841H90.4095L90.4328 11.7779H87.3212V17.7679H80.6233V11.7779H77.5116V27.4841H80.6233V20.3973H87.2978V27.4841ZM22.6375 36.6414C22.6374 36.6359 22.6373 36.6303 22.6371 36.6247V36.648C22.6373 36.6458 22.6374 36.6436 22.6375 36.6414ZM22.5483 37.1068C22.6091 36.9592 22.6395 36.8009 22.6375 36.6414C22.6455 36.4719 22.6158 36.3026 22.5507 36.1458C22.4848 35.9869 22.384 35.8449 22.256 35.7301C21.949 35.4886 21.5647 35.367 21.1747 35.3878H20.7779V34.6099H22.4116V33.9331H20V37.8927H21.1747C21.5758 37.9119 21.9688 37.7754 22.2715 37.5115C22.391 37.3974 22.4853 37.2596 22.5483 37.1068ZM21.1747 36.0257C21.6336 36.0257 21.8592 36.2279 21.8592 36.6247H21.8437C21.8527 36.7073 21.8442 36.7908 21.8187 36.8699C21.7932 36.949 21.7514 37.0218 21.6959 37.0836C21.5413 37.1974 21.3501 37.2501 21.1591 37.2314H20.7779V36.0257H21.1747ZM25.9433 37.8927H26.7212L24.8075 33.7308L22.8316 37.8927H23.6095L23.9985 37.0136H25.5543L25.9433 37.8927ZM24.7375 35.2477L25.2432 36.3835H24.2397L24.7375 35.2477ZM29.5451 37.8927H30.323V33.9331H29.5451V35.4422H27.8492V33.9331H27.0713V37.8927H27.8492V36.1035H29.5451V37.8927ZM33.2947 37.8927H34.2593L32.5245 35.7534L34.1659 33.9331H33.2558L31.8399 35.5823V33.9331H31.062V37.8771H31.8399V35.8934L33.2947 37.8927ZM39.1835 38.5928H39.9614H39.9692V37.1459H39.5569V33.8553H36.7875V36.368C36.8127 36.5868 36.7663 36.8078 36.6553 36.9981C36.597 37.0541 36.5269 37.0964 36.4502 37.122C36.3735 37.1475 36.2921 37.1557 36.2119 37.1459V38.5928H36.9898V37.8149H39.1835V38.5928ZM38.7634 34.5165V37.1459H37.3943C37.4939 36.9233 37.5443 36.6818 37.5421 36.438V34.5165H38.7634ZM44.2568 36.6453C44.3612 36.3869 44.4111 36.1097 44.4033 35.8312C44.4042 35.4824 44.3188 35.1388 44.1548 34.831C43.9907 34.5231 43.7531 34.2607 43.4631 34.0668C43.1731 33.873 42.8397 33.7539 42.4925 33.7201C42.1454 33.6863 41.7952 33.7388 41.4733 33.873C41.1513 34.0072 40.8676 34.219 40.6472 34.4893C40.4268 34.7597 40.2767 35.0804 40.2103 35.4228C40.1438 35.7652 40.163 36.1187 40.2661 36.4519C40.3693 36.7851 40.5532 37.0876 40.8016 37.3326C41.2052 37.7173 41.7414 37.9319 42.2991 37.9319C42.8567 37.9319 43.3929 37.7173 43.7966 37.3326C43.9957 37.1376 44.1524 36.9036 44.2568 36.6453ZM43.2131 34.8277C43.4606 35.1021 43.5917 35.4619 43.5788 35.8312H43.571C43.5886 36.1998 43.46 36.5604 43.2131 36.8347C43.0964 36.9625 42.9529 37.063 42.7929 37.1289C42.6329 37.1948 42.4603 37.2245 42.2874 37.2159C42.1147 37.2234 41.9424 37.1932 41.7825 37.1274C41.6227 37.0615 41.479 36.9617 41.3617 36.8347C41.1248 36.554 40.9948 36.1985 40.9948 35.8312C40.9948 35.4639 41.1248 35.1084 41.3617 34.8277C41.4797 34.7015 41.6234 34.6022 41.7831 34.5365C41.9428 34.4707 42.1148 34.44 42.2874 34.4465C42.4598 34.4415 42.6313 34.4729 42.7908 34.5386C42.9503 34.6042 43.0942 34.7027 43.2131 34.8277ZM47.5744 37.0621C47.6293 36.9176 47.6541 36.7635 47.6473 36.6091V36.6144C47.6455 36.4124 47.5832 36.2155 47.4684 36.049C47.3469 35.8659 47.1653 35.7311 46.9549 35.6678C47.0942 35.595 47.2081 35.4817 47.2817 35.3428C47.3553 35.2039 47.3851 35.046 47.3672 34.8899C47.3672 34.1976 46.9394 33.8553 46.0914 33.8553H44.909V37.8227H46.2315C46.4301 37.8384 46.6298 37.8134 46.8185 37.7492C47.0071 37.685 47.1806 37.5829 47.3283 37.4493C47.4358 37.3383 47.5196 37.2065 47.5744 37.0621ZM47.6473 36.6325V36.6144C47.6473 36.6204 47.6473 36.6264 47.6473 36.6325ZM46.0525 34.5243C46.4026 34.5243 46.5737 34.6643 46.5737 34.9288C46.5737 35.2322 46.4415 35.3878 46.1692 35.3878H45.6791V34.5243H46.0525ZM46.8143 36.3722C46.8405 36.4482 46.8487 36.5293 46.8382 36.6091C46.8382 36.9747 46.6204 37.1537 46.177 37.1537H45.6791V36.0257H46.247C46.3266 36.0142 46.4079 36.0213 46.4843 36.0464C46.5607 36.0716 46.6303 36.114 46.6875 36.1706C46.7448 36.2271 46.7882 36.2961 46.8143 36.3722ZM52.0204 36.6453C52.1248 36.3869 52.1747 36.1097 52.167 35.8312C52.1746 35.5538 52.1246 35.2779 52.0202 35.0208C51.9157 34.7637 51.7591 34.5311 51.5602 34.3376C51.2639 34.0453 50.888 33.847 50.4796 33.7673C50.0711 33.6876 49.6482 33.7301 49.2638 33.8895C48.8794 34.0489 48.5505 34.3181 48.3183 34.6635C48.0862 35.0089 47.961 35.415 47.9584 35.8312C47.9519 36.2513 48.0715 36.6638 48.3018 37.0153C48.5321 37.3667 48.8626 37.641 49.2504 37.8027C49.6383 37.9644 50.0657 38.006 50.4775 37.9222C50.8893 37.8384 51.2664 37.633 51.5602 37.3326C51.7593 37.1376 51.916 36.9036 52.0204 36.6453ZM50.9923 34.8277C51.2314 35.1056 51.354 35.4651 51.3346 35.8312H51.3424C51.3588 36.1982 51.2335 36.5575 50.9923 36.8347C50.7461 37.0789 50.4134 37.2159 50.0666 37.2159C49.7198 37.2159 49.3871 37.0789 49.1409 36.8347C48.9137 36.5496 48.79 36.1958 48.79 35.8312C48.79 35.4666 48.9137 35.1128 49.1409 34.8277C49.3871 34.5835 49.7198 34.4465 50.0666 34.4465C50.4134 34.4465 50.7461 34.5835 50.9923 34.8277ZM54.8197 37.8149H55.5587V33.8553H52.8905V36.4924C52.907 36.703 52.8806 36.9147 52.8127 37.1148C52.7956 37.1514 52.768 37.1821 52.7333 37.2029C52.6987 37.2237 52.6586 37.2337 52.6182 37.2314C52.4978 37.2247 52.3806 37.1901 52.2759 37.1303V37.8149C52.4069 37.8675 52.547 37.8939 52.6882 37.8927C52.8344 37.9117 52.983 37.8923 53.1195 37.8364C53.2559 37.7805 53.3754 37.6899 53.4661 37.5737C53.6339 37.2448 53.7092 36.8764 53.6839 36.508V34.5087H54.8197V37.8149ZM58.9188 37.0339C58.9764 36.8784 59.0005 36.7124 58.9893 36.5469H58.9816C58.9958 36.3811 58.9732 36.2142 58.9154 36.0582C58.8576 35.9022 58.7659 35.7609 58.6471 35.6445C58.3076 35.3911 57.8865 35.272 57.4646 35.31H57.1146V33.8553H56.3366V37.8304H57.4724C57.9013 37.8632 58.3259 37.7263 58.6548 37.4493C58.7712 37.331 58.8611 37.1894 58.9188 37.0339ZM58.1809 36.3086C58.2078 36.385 58.2181 36.4662 58.2114 36.5469C58.219 36.6312 58.2092 36.7162 58.1824 36.7965C58.1556 36.8768 58.1125 36.9507 58.0558 37.0136C57.8864 37.1271 57.6833 37.1792 57.4802 37.1614H57.1535V35.9634H57.4802C57.6822 35.9464 57.8843 35.9955 58.0558 36.1035C58.1115 36.1623 58.1541 36.2322 58.1809 36.3086ZM62.0544 37.8149H62.7934V33.8553H62.0155V35.3644H60.3274V33.8553H59.5494V37.8149H60.3274V36.0257H62.0544V37.8149ZM66.5507 37.8149H67.3287V33.8553H66.5507V37.8149ZM66.1158 37.0377C66.1788 36.8821 66.2078 36.7147 66.2007 36.5469H66.1695C66.1838 36.3811 66.1612 36.2142 66.1034 36.0582C66.0455 35.9022 65.9539 35.7609 65.835 35.6445C65.4962 35.3898 65.0746 35.2705 64.6526 35.31H64.3337V33.8553H63.5557V37.8304H64.6526C65.0814 37.8624 65.5057 37.7256 65.835 37.4493C65.957 37.3337 66.0527 37.1934 66.1158 37.0377ZM65.3909 36.3068C65.4191 36.3835 65.43 36.4655 65.4227 36.5469C65.4304 36.6312 65.4205 36.7162 65.3937 36.7965C65.3669 36.8768 65.3238 36.9507 65.2672 37.0136C65.0977 37.1271 64.8946 37.1792 64.6915 37.1614H64.3959V35.9634H64.6915C64.8911 35.9452 65.0911 35.9945 65.2594 36.1035C65.3177 36.1607 65.3626 36.2301 65.3909 36.3068ZM70.277 37.8149H71.2027L71.1405 37.8071L69.888 35.7534L71.0471 33.8475H70.1836L69.4524 35.1155L68.7211 33.8553H67.8654L69.0323 35.7534L67.7721 37.8149H68.6278L69.4524 36.3991L70.277 37.8149ZM75.7146 37.8927H76.6637L74.9445 35.7534L76.5859 33.9331H75.6757L74.2599 35.5823V33.9331H73.482V37.8771H74.2599V35.8934L75.7146 37.8927ZM79.3942 37.8927H80.1332V33.9331H77.4649V36.5702C77.4815 36.7808 77.4551 36.9925 77.3872 37.1926C77.3698 37.2284 77.3419 37.2582 77.3071 37.2776C77.2723 37.2971 77.2323 37.3054 77.1927 37.3015C77.0739 37.2995 76.9581 37.2645 76.8582 37.2003V37.8849C76.9875 37.9437 77.1284 37.9729 77.2705 37.9705C77.4105 37.9874 77.5526 37.966 77.6814 37.9084C77.8102 37.8509 77.9209 37.7594 78.0017 37.6437C78.1732 37.3189 78.2487 36.952 78.2195 36.5858V34.5865H79.3942V37.8927ZM83.4082 37.8927H84.1862V33.7308L81.6968 36.3835V33.9253H80.9189V38.0872L83.4082 35.4345V37.8927ZM84.8707 37.8927H87.1578V37.2081H85.6487V36.1035H86.9945V35.4578H85.6487V34.6099H87.1578V33.9331H84.8707V37.8927ZM90.4718 37.8927H91.1874V33.9331H90.4095V35.4422H88.7137V33.9331H87.9357V37.8927H88.7137V36.1035H90.4718V37.8927ZM93.4279 34.6099H94.4003V33.9331H91.6698V34.6099H92.6499V37.8927H93.4279V34.6099ZM98.6399 36.707C98.7442 36.4487 98.7945 36.1719 98.7877 35.8934C98.7955 35.6149 98.7456 35.3377 98.6412 35.0794C98.5367 34.821 98.3801 34.587 98.181 34.392C97.8854 34.1029 97.5111 33.9074 97.1049 33.8301C96.6988 33.7528 96.2788 33.797 95.8977 33.9574C95.5166 34.1177 95.1913 34.3869 94.9625 34.7313C94.7338 35.0757 94.6117 35.48 94.6117 35.8934C94.6117 36.3069 94.7338 36.7111 94.9625 37.0555C95.1913 37.3999 95.5166 37.6692 95.8977 37.8295C96.2788 37.9898 96.6988 38.0341 97.1049 37.9567C97.5111 37.8794 97.8854 37.6839 98.181 37.3948C98.3793 37.1993 98.5355 36.9652 98.6399 36.707ZM97.6053 34.8899C97.8486 35.1658 97.9742 35.526 97.9554 35.8934C97.9718 36.2605 97.8464 36.6198 97.6053 36.8969C97.3591 37.1411 97.0263 37.2781 96.6796 37.2781C96.3328 37.2781 96.0001 37.1411 95.7538 36.8969C95.5127 36.6198 95.3873 36.2605 95.4038 35.8934C95.3849 35.526 95.5105 35.1658 95.7538 34.8899C96.0001 34.6457 96.3328 34.5087 96.6796 34.5087C97.0263 34.5087 97.3591 34.6457 97.6053 34.8899ZM101.998 37.1243C102.053 36.9798 102.077 36.8257 102.071 36.6713V36.6922C102.069 36.4902 102.007 36.2932 101.892 36.1268C101.773 35.9413 101.59 35.8057 101.378 35.7456C101.517 35.6728 101.631 35.5595 101.705 35.4206C101.779 35.2817 101.808 35.1238 101.791 34.9677C101.791 34.2754 101.363 33.9331 100.515 33.9331H99.3323V37.8849H100.655C100.853 37.8997 101.053 37.8743 101.241 37.8102C101.43 37.746 101.603 37.6444 101.752 37.5115C101.859 37.4005 101.943 37.2688 101.998 37.1243ZM100.476 34.5865C100.826 34.5865 100.997 34.7188 100.997 34.991C100.997 35.2944 100.865 35.45 100.585 35.45H100.102V34.5865H100.476ZM101.233 36.4348C101.259 36.511 101.266 36.592 101.254 36.6713C101.254 37.0447 101.036 37.2237 100.6 37.2159H100.102V36.0879H100.67C100.75 36.0761 100.831 36.083 100.907 36.1082C100.983 36.1333 101.052 36.176 101.109 36.2327C101.166 36.2894 101.208 36.3586 101.233 36.4348Z" fill="#44413E"/>
</svg>
