<svg xmlns="http://www.w3.org/2000/svg" viewBox="0 0 200 50">
  <defs/>
  <path d="M139.1 17.5V5.6h-3.9v17.2h4.5l6.8-11.5v11.5h3.9V5.6H146zM109.5 5.6h-6.1L98 22.8h4.1l1.3-4.5h6l1.3 4.5h4.2l-5.4-17.2zm-5 9.1l1.7-5.5h.4l1.7 5.5h-3.8zM170.3 5.6v3.6h4.7v13.6h4V9.2h3.4l2.1-3.6h-14.2zM74.1 5.6h-8.5l-2 3.6h3.2v13.6h4v-5.4h3.4c4.2 0 6.5-2.3 6.5-5.8 0-3.3-2.6-6-6.6-6zm-.2 8.3h-3.2V9.2h3.2c2.2 0 2.8 1.3 2.8 2.3 0 1-.5 2.4-2.8 2.4zM161.5 9c1.8 0 3.3.7 4.3 2l3.4-1.7c-.9-1.5-3-4.1-7.2-4.1-5 0-9.2 4.1-9.2 9.1 0 5.3 3.9 9.1 8.9 9.1 1.7 0 3.6-.5 5-1.3 1-.6 2-1.7 2.6-2.7 0 0-3.3-1.8-3.4-1.7-.8 1.1-2 1.9-4.3 1.9-2.8 0-4.9-2-4.9-5.2-.1-3.4 2.3-5.4 4.8-5.4zM118.7 16.3c0 1.6-.6 2.8-2.2 2.8h-.3l1.2 3.7h.5c2.9 0 4.8-1.9 4.8-6.3V9.2h4.8v13.6h4V5.6h-12.7l-.1 10.7zM86.8 15.9h6.9v-3.5h-6.9V9.2H96V5.6H82.8v17.2h12.9l1.1-3.6h-9.9zM93 28.6h-6l-5.4 17.2h4.1l1.3-4.5h6l1.3 4.5h4.2L93 28.6zm-5 9.1l1.7-5.5h.4l1.7 5.5H88zM74.1 34.2h-3.4v-2h8.8v-3.6h-14l-2 3.6h3.2v13.6H74c4 0 6.6-2.8 6.6-5.9.2-3.5-2.3-5.7-6.5-5.7zm-.2 8.2h-3.2v-4.8h3.2c2.2 0 2.8 1.4 2.8 2.3s-.5 2.5-2.8 2.5zM111.4 35.1h-6.8v-6.5h-3.9v17.1h3.9v-7h6.8v7h4V28.6h-4zM129.4 37l4.5-8.4H130l-3.8 6.5h-3.1v-6.5h-4v17.1h4v-7h3.1l4 7h4.4z"/>
  <radialGradient id="a" cx=".00509201" cy="39.654" r="58.2104" gradientUnits="userSpaceOnUse">
    <stop offset="0" stop-color="#0093d8"/>
    <stop offset=".3" stop-color="#006cb7"/>
    <stop offset="1" stop-color="#08296c"/>
  </radialGradient>
  <path d="M15 5v40.8h40.8V5H15zm34.1 34H21.8V11.8h27.3V39z" fill="url(#a)"/>
  <radialGradient id="b" cx="20.9" cy="21.844" r="23.7364" gradientUnits="userSpaceOnUse">
    <stop offset="0" stop-color="#0093d8"/>
    <stop offset=".3" stop-color="#006cb7"/>
    <stop offset="1" stop-color="#08296c"/>
  </radialGradient>
  <path fill="url(#b)" d="M43.8 17.3H30.2L27 22.7h13.6z"/>
  <radialGradient id="c" cx="20.9" cy="32.7689" r="23.7364" gradientUnits="userSpaceOnUse">
    <stop offset="0" stop-color="#0093d8"/>
    <stop offset=".3" stop-color="#006cb7"/>
    <stop offset="1" stop-color="#08296c"/>
  </radialGradient>
  <path fill="url(#c)" d="M43.8 28.2H30.2L27 33.6h13.6z"/>
</svg>
