<svg width="200" height="50" viewBox="0 0 200 50" fill="none" xmlns="http://www.w3.org/2000/svg">
<path fill-rule="evenodd" clip-rule="evenodd" d="M175.01 35.1107L171.166 30.4596V30.4692H161.46C158.068 30.2193 154.416 27.8937 154.925 22.8678C155.435 17.8418 161.796 17.592 161.931 17.6496L159.192 14.0555C159.143 13.9911 159.124 13.9931 158.967 14.0102C158.819 14.0263 158.55 14.0555 158.02 14.0555C156.924 14.0555 149.044 14.8531 149.64 24.2996C150.236 33.7461 159.375 35.1107 159.375 35.1107H175.01ZM82.6016 20.232L76.6627 14.2958L73.5491 17.4767L91.3658 35.2934H97.6698L87.9062 25.5342V23.7229H95.5941V33.0926L97.6987 35.1395H100.918V14.0554H95.6422V18.5336H87.9543V14.0554H82.6016V20.232ZM25 14.3149V35.5143H30.4007V29.9406H42.1632C42.1632 29.9406 47.9484 29.3928 48.1309 22.7428C48.3424 14.6801 41.5962 14.3149 41.0004 14.3149H25ZM30.4007 19.8887V24.5494H39.6839C39.6839 24.5494 42.884 24.684 42.5668 22.0989C42.5556 21.7723 42.4754 21.4518 42.3315 21.1584C42.1875 20.865 41.9831 20.6054 41.7317 20.3966C41.4803 20.1879 41.1875 20.0347 40.8727 19.9471C40.5578 19.8596 40.228 19.8397 39.9049 19.8887H30.4007ZM103.022 35.1395V14.0554H108.385V26.0678L120.791 14.0554H127.826L118.965 22.6466L126.865 30.2L143.413 14.0554H147.977V35.1395H142.557V29.8925H134.168L128.729 35.1395H124.03L115.073 26.4906L106.232 35.1395H103.022ZM142.529 21.7625V25.3951H138.685L142.529 21.7625ZM55.4537 23.2137H50.2163V28.5184H55.4537V23.2137ZM55.5114 14.1997L72.8091 31.4975L75.9323 28.3166L61.8443 14.1997H55.5114ZM48.0637 14.2189L69.0613 35.2165L72.1653 32.0356L54.3678 14.2189H48.0637ZM90.2318 35.303L72.9341 18.0052L69.8012 21.1957L83.8701 35.303H90.2318Z" fill="#0039A6"/>
<path fill-rule="evenodd" clip-rule="evenodd" d="M96.4407 34.8033H96.4493V34.8128L96.4479 34.811L96.4407 34.8033ZM96.4407 34.8033H91.4618L85.1001 28.4127H90.0492C93.4852 31.8395 96.2661 34.6201 96.4407 34.8033ZM70.6084 28.5472L72.8283 30.7479L75.0482 28.5472H70.6084ZM88.9344 34.7745H88.9199C88.6927 34.5127 85.8314 31.6434 82.5823 28.4127H77.6813L84.1295 34.7745H88.9199C88.9252 34.7805 88.929 34.7852 88.9314 34.7884C88.9333 34.7909 88.9343 34.7925 88.9344 34.7933V34.7745ZM68.0282 28.4662H62.9167L69.0902 34.6198L71.6262 32.0838L68.0282 28.4662Z" fill="#D52B1E"/>
<path fill-rule="evenodd" clip-rule="evenodd" d="M49.0247 14.6609H54.214L60.8832 21.1379H55.6939C51.9749 17.5535 49.0247 14.6609 49.0247 14.6609ZM75.1251 20.9842H70.6277L72.886 18.8027L75.1251 20.9842ZM56.5973 14.6898H61.6232L68.2444 21.1284H63.1896C59.6628 17.7169 56.578 14.709 56.5973 14.6898ZM82.8542 21.0653L76.653 14.8442L74.0879 17.4093L77.734 21.0653H82.8542Z" fill="white"/>
</svg>
