<svg width="200" height="50" viewBox="0 0 200 50" fill="none" xmlns="http://www.w3.org/2000/svg">
<path d="M30.984 11.192H0V38.8H30.984V11.192Z" fill="#E41A19"/>
<path fill-rule="evenodd" clip-rule="evenodd" d="M42.9999 18.36H37.0959V30.688H39.4479V25.976H43.8399C46.6239 25.976 47.8399 24.76 47.8399 22.048C47.8399 18.648 45.3279 18.368 42.9679 18.368L42.9999 18.36ZM45.4719 22.208C45.4719 23.808 44.8479 24.08 43.3439 24.08H39.4479V20.256H43.3759C44.7199 20.256 45.5039 20.576 45.5039 22.2L45.4719 22.208ZM93.248 18.36H96.096L91.056 24.384L96.68 30.688H93.752L89 25.416H86.92V30.688H84.568V18.36H86.92V23.512H89.016L93.248 18.36ZM99.224 22.728C100.158 22.2181 101.218 21.985 102.28 22.056H102.288C105.648 22.056 107.016 23.288 107.016 26.312C107.016 30.12 105.2 30.864 102.072 30.864C101.158 30.8885 100.249 30.7052 99.416 30.328V34.776H97.144V22.168H99.152L99.224 22.728ZM102.08 23.744C101.304 23.6877 100.526 23.8251 99.816 24.144V24.136C99.7256 24.1832 99.6461 24.2489 99.5827 24.3289C99.5193 24.4088 99.4734 24.5012 99.448 24.6C99.4306 24.9064 99.4306 25.2136 99.448 25.52V28C99.4259 28.1563 99.4506 28.3157 99.519 28.4581C99.5873 28.6005 99.6962 28.7194 99.832 28.8C100.37 29.0922 100.972 29.2435 101.584 29.24C103.776 29.24 104.784 29.232 104.784 26.68C104.784 24.128 104.424 23.744 102.08 23.744ZM142.568 23.992H145.912V30.688H148.12V23.992H151.528V22.152H142.568V23.992ZM117.96 25.92C117.963 26.235 117.928 26.5493 117.856 26.856L117.824 27.032H110.536C110.568 29.024 111.016 29.216 113.216 29.216C115.416 29.216 115.696 29.144 115.696 27.952V27.712H117.888V27.952C117.945 28.297 117.929 28.6501 117.842 28.9888C117.756 29.3276 117.6 29.6446 117.384 29.92C116.416 30.856 114.576 30.856 113.216 30.856C109.344 30.856 108.288 29.96 108.288 26.52C108.288 23.08 109.44 22.032 113.216 22.032C116.288 22.032 117.96 22.656 117.96 25.92ZM115.776 25.384C115.728 23.968 115.216 23.656 113.208 23.656C111.96 23.656 111.312 23.808 110.952 24.168C110.671 24.5087 110.531 24.9436 110.56 25.384H115.776ZM133.992 28.68V22.152H131.832V30.688H134.768L139.392 24.144V30.688H141.52V22.152H138.448L133.992 28.68ZM121.176 22.152H129.16V28.912H130.328V33.12H128.376V30.72H120.592V33.12H118.672V28.912H119.472C120.36 28.88 120.848 28.144 120.928 26.744L121.176 22.152ZM127.016 28.912V23.896H123.184L122.944 26.984C122.932 27.6807 122.7 28.3557 122.28 28.912H127.016ZM185.832 25.528H181.296V22.168H179.104V30.688H181.296V27.104H185.832V30.688H188.008V22.168H185.832V25.528ZM158.264 23.128H160.936C164.056 23.128 166.752 23.152 166.752 26.92C166.752 30.688 163.24 30.688 160.92 30.688H155.912V18.36H165.728V20.264H158.264V23.128ZM158.248 28.864H162.248V28.832C163.72 28.832 164.344 28.256 164.344 26.888C164.344 25.272 163.696 25 162.248 25H158.248V28.864ZM172.392 22.04C171.376 22.04 168.28 22.04 168.28 24.12V24.92H170.472V24.688C170.433 24.4378 170.493 24.1822 170.64 23.976C171.186 23.7007 171.803 23.6001 172.408 23.688C174.4 23.688 174.976 23.968 174.976 24.952V25.288H171.368C169.856 25.288 167.848 25.576 167.848 28.04C167.848 30.504 170.36 30.872 172.248 30.872C173.26 30.9125 174.262 30.6538 175.128 30.128L175.2 30.688H177.208V25.8C177.208 22.992 176.976 22.024 172.408 22.024L172.392 22.04ZM174.992 27.504C174.992 28.352 174.992 28.448 174.608 28.696C173.878 29.043 173.071 29.1999 172.264 29.152C170.664 29.152 170.12 28.968 170.12 27.952C170.12 26.936 170.688 26.832 172.312 26.832H174.992V27.504ZM199.144 22.168L195.232 26.288L200 30.688H197.088L193.248 27.112H192.032V30.688H189.912V22.168H192.032V25.528H193.312L196.36 22.168H199.144ZM59.0849 25.6548C58.9965 25.3543 58.9704 25.039 59.008 24.728H59C59 22.152 61.3681 22.152 63.0961 22.152H67.6561V30.688H65.4961V27.328H63.648C62.936 28.2 60.8881 30.6 60.8881 30.6L60.8 30.688H58.3521L58.672 30.296C58.6756 30.2925 58.7514 30.1997 58.878 30.0448L58.8817 30.0402L58.8822 30.0396L58.8825 30.0393L58.8829 30.0388C59.3287 29.4931 60.3877 28.1968 61.1441 27.304C60.8315 27.2835 60.5265 27.1994 60.2476 27.057C59.9686 26.9145 59.7217 26.7167 59.5218 26.4757C59.3218 26.2346 59.1732 25.9552 59.0849 25.6548ZM65.4961 23.816H62.632C61.536 23.816 61.2401 24.152 61.2401 24.824C61.2401 25.496 61.4001 25.736 62.2961 25.736H65.4961V23.816ZM52.7523 22.04C49.0064 22.0415 47.8 23.1463 47.8 26.584C47.8 30.024 48.912 30.864 52.76 30.864C56.608 30.864 57.6 29.976 57.68 26.768V26.528C57.68 23.0505 56.5776 22.0414 52.7523 22.04ZM52.744 29.24C50.3441 29.24 50.168 29.064 50.168 26.536C50.168 24.008 50.4 23.72 52.76 23.72C55.12 23.72 55.336 23.928 55.336 26.528C55.336 29.128 55.2 29.232 52.76 29.232L52.744 29.24ZM69.6001 29C70.4 29 70.688 28.536 70.7681 27.216L71.024 22.152H79.008V30.624H76.8V23.88H73.16L72.952 27.408C72.832 29.48 71.8641 30.672 70.2641 30.672C69.8496 30.6753 69.4353 30.6512 69.024 30.6H68.8L68.96 29H69.4H69.6001Z" fill="#005177"/>
<path fill-rule="evenodd" clip-rule="evenodd" d="M21.2399 13.992C21.0978 14.1912 20.925 14.3667 20.7279 14.512C20.531 14.3666 20.3582 14.1912 20.2159 13.992C20.3582 13.7928 20.531 13.6173 20.7279 13.472C20.9249 13.6173 21.0977 13.7928 21.2399 13.992ZM21.08 15.344V16.312H20.496V15.328C20.168 15.248 19.776 15.192 19.776 15.4C19.806 15.7382 19.9157 16.0644 20.096 16.352C20.0094 16.3681 19.9279 16.3918 19.85 16.4145C19.7337 16.4484 19.6254 16.48 19.52 16.48C19.243 16.0976 19.057 15.6571 18.976 15.192C19.008 14.48 20.112 14.696 20.488 14.8L20.8 14.88L21.112 14.8C21.48 14.696 22.616 14.488 22.616 15.2C22.5429 15.6671 22.3621 16.1108 22.088 16.496C22.0245 16.4845 21.9579 16.4646 21.8885 16.4439C21.7656 16.4073 21.6341 16.368 21.496 16.368C21.6759 16.0802 21.7856 15.7541 21.816 15.416C21.784 15.208 21.416 15.256 21.08 15.344ZM21.976 16.744C21.5907 16.6468 21.1968 16.5878 20.8 16.568C20.3955 16.5849 19.9936 16.6412 19.6 16.736L19.784 17.376C20.1155 17.2877 20.4569 17.242 20.8 17.24C21.1473 17.2431 21.4923 17.297 21.824 17.4L21.976 16.744ZM17.136 35.448H15.064L15.072 35.424V34.992L14.68 35.408V34.84C14.6789 34.7402 14.7061 34.6421 14.7585 34.5572C14.8109 34.4722 14.8863 34.4038 14.976 34.36C15.1434 34.34 15.3126 34.34 15.48 34.36C15.7862 34.3183 16.0738 34.1889 16.3081 33.9873C16.5423 33.7857 16.7132 33.5206 16.8 33.224C16.3507 32.4467 16.0623 31.587 15.952 30.696C15.952 29.464 16.752 28.472 18.616 28.472C19.2849 28.5084 19.9413 28.6684 20.552 28.944C20.552 28.944 18.152 31.4 18.152 32.2C18.3409 32.5863 18.4807 32.9949 18.568 33.416C18.1646 34.1426 17.6846 34.8238 17.136 35.448ZM27.04 23.512L26.912 23.312C27.1244 23.1865 27.3639 23.1137 27.6103 23.0998C27.8566 23.0859 28.1027 23.1312 28.328 23.232C27.712 22.008 26.208 22.36 26.16 23.456C25.9192 23.6108 25.7231 23.8258 25.5911 24.0799C25.4592 24.3339 25.3961 24.618 25.408 24.904C25.408 25.681 25.9419 26.9039 26.3735 27.8923C26.6663 28.5629 26.912 29.1255 26.912 29.368C26.9279 29.4599 26.9228 29.5543 26.897 29.6439C26.8712 29.7335 26.8253 29.8161 26.7629 29.8855C26.7005 29.9548 26.6232 30.0091 26.5368 30.0442C26.4503 30.0793 26.3571 30.0943 26.264 30.088C25.936 30.088 25.608 29.856 25.088 29.16C24.4823 28.282 23.7071 27.534 22.808 26.96L21.28 25.888L23.424 24.288L23.584 25.088C23.9418 24.5824 24.1815 24.0029 24.2853 23.3923C24.3892 22.7817 24.3545 22.1555 24.184 21.56C24.184 21.5142 24.1548 21.4263 24.1254 21.3374C24.1085 21.2867 24.0916 21.2357 24.08 21.192L24.632 21.4V21.12C24.256 19.176 22.832 17.656 20.872 17.656C20.3289 17.6449 19.7879 17.7261 19.272 17.896L19.36 18.344C19.144 18.448 17.896 18.968 17.896 18.968C17.8898 19.4255 18.0619 19.8674 18.376 20.2C18.7436 20.2636 19.1207 20.2444 19.48 20.144C19.5365 20.2168 19.5716 20.3039 19.5813 20.3955C19.5911 20.4871 19.5751 20.5797 19.5353 20.6627C19.4954 20.7458 19.4332 20.8161 19.3556 20.8658C19.278 20.9155 19.1881 20.9426 19.096 20.944H18.536C18.5238 21.0578 18.5436 21.1727 18.593 21.2758C18.6425 21.3789 18.7197 21.4663 18.816 21.528C19.2108 21.5437 19.6062 21.5357 20 21.504C20.1462 21.512 20.292 21.4815 20.4228 21.4158C20.5536 21.35 20.665 21.2512 20.7458 21.1291C20.8267 21.007 20.8742 20.8659 20.8837 20.7198C20.8932 20.5736 20.8644 20.4276 20.8 20.296C20.7716 20.1553 20.7202 20.0201 20.648 19.896C20.7869 19.9852 20.9056 20.1024 20.9966 20.2402C21.0875 20.378 21.1486 20.5332 21.176 20.696C21.2233 20.8289 21.2392 20.971 21.2223 21.1111C21.2054 21.2511 21.1563 21.3853 21.0787 21.5032C21.0012 21.6211 20.8974 21.7193 20.7754 21.7903C20.6535 21.8612 20.5168 21.9029 20.376 21.912C20.0122 21.9811 19.837 22.0023 19.6729 22.0221L19.6729 22.0221C19.476 22.0459 19.2951 22.0677 18.824 22.168C18.3853 22.2793 17.9822 22.5009 17.6532 22.8118C17.3242 23.1226 17.0801 23.5123 16.944 23.944L15.8 24.384L15.272 24.584C14.7352 24.7429 14.2174 24.9602 13.728 25.232C13.4166 25.4776 13.2037 25.8268 13.128 26.216C13.0683 26.3409 13.0374 26.4776 13.0374 26.616C13.0374 26.7545 13.0683 26.8911 13.128 27.016C13.4276 27.2306 13.7922 27.3352 14.16 27.312L13.752 26.912L14.28 26.848C14.4809 26.6891 14.6265 26.4707 14.696 26.224L15.496 26.328C16.043 26.4093 16.6017 26.3199 17.096 26.072C17.3434 26.5724 17.7258 26.9936 18.2 27.288L18.632 27.552C19.8 28.144 22.272 29.064 22.272 29.064C22.2703 29.1132 22.2536 29.1607 22.224 29.2C21.4992 29.8887 21.0715 30.833 21.032 31.832C21.032 33.152 23.136 33.144 23.136 33.144H23.696C23.584 33.656 23.2 34.368 22.776 34.368C22.5819 34.3468 22.3861 34.3468 22.192 34.368C22.1065 34.4135 22.0352 34.4816 21.9858 34.5648C21.9365 34.648 21.9109 34.7432 21.912 34.84V35.384L22.296 34.976V35.384H24.416L24.568 35.064C25.0166 34.299 25.3635 33.4788 25.6 32.624C25.6 32.2336 23.9794 31.8714 23.7866 31.8283C23.774 31.8255 23.7675 31.824 23.768 31.824C24.0167 31.0126 24.2171 30.1872 24.368 29.352C25.096 30.344 25.76 30.72 26.24 30.72C26.5605 30.7222 26.8691 30.5986 27.0995 30.3757C27.3299 30.1528 27.4636 29.8485 27.472 29.528C27.472 29.093 27.2908 28.669 26.9738 27.927C26.8245 27.5774 26.6449 27.1572 26.44 26.632L26.382 26.4818C25.9663 25.4061 25.6262 24.5263 26.368 23.968L26.4 24.08C26.5342 24.1899 26.6963 24.2604 26.8682 24.2835C27.0401 24.3067 27.2151 24.2816 27.3736 24.211C27.5321 24.1405 27.6678 24.0273 27.7657 23.8841C27.8636 23.7409 27.9198 23.5733 27.928 23.4C27.6281 23.33 27.3131 23.3697 27.04 23.512ZM19.608 18.448C19.9389 18.4029 20.2759 18.4471 20.584 18.576C19.888 19.024 19.52 18.928 19.608 18.448ZM16.152 20.2L16.464 20.592L17.688 22.184C17.1262 22.4814 16.4778 22.572 15.856 22.44C14.888 22.184 14.704 20.84 14.704 20.84L14.608 20.088C14.3755 20.1104 14.1416 20.0631 13.936 19.952L13.744 19.512L13.512 19.968C13.3983 19.6553 13.3983 19.3126 13.512 19C13.6002 18.9124 13.7076 18.8466 13.8256 18.8077C13.9436 18.7688 14.0691 18.7579 14.192 18.776C14.5479 18.7373 14.9058 18.8282 15.2 19.032C15.5592 19.3853 15.8784 19.777 16.152 20.2Z" fill="white"/>
</svg>
