<svg width="200" height="50" fill="none" xmlns="http://www.w3.org/2000/svg">
  <defs/>
  <path fill-rule="evenodd" clip-rule="evenodd" d="M43.2226 21.8279v-4.914c0-2.6706-2.1365-4.9139-4.914-4.9139-2.6706 0-4.8071 2.2433-4.8071 4.9139v4.914H29.549c0-5.3413-4.3799-9.7211-9.7211-9.7211C14.3798 12 10 16.3798 10 21.8279c0 5.3412 4.3798 9.7211 9.7211 9.7211v4.9139c0 2.6706 2.1365 4.914 4.9139 4.914 2.7775 0 4.914-2.1365 4.914-4.914V31.549h3.9525c0 5.3412 4.3798 9.721 9.7211 9.721 5.3412 0 9.721-4.3798 9.721-9.721 0-5.3413-4.3798-9.7211-9.721-9.7211zm-25.4244 0c0-1.0683.8546-1.9229 1.9229-1.9229 1.0682 0 2.0296.7478 2.0296 1.9229s-.8546 1.9228-1.9228 1.9228c-1.1751 0-2.0297-.8546-2.0297-1.9228zm25.4244 11.6439c-1.0683 0-1.9229-.8546-1.9229-1.9228 0-1.0683.8546-1.9229 1.9229-1.9229 1.0682 0 1.9228.8546 1.9228 1.9229 0 1.0682-.8546 1.9228-1.9228 1.9228zm5.8753-13.5668c2.1829 0 3.9525-1.7696 3.9525-3.9525S51.2808 12 49.0979 12s-3.9525 1.7696-3.9525 3.9525 1.7696 3.9525 3.9525 3.9525zm16.5579 1.6024c.8546-1.0682 2.2433-1.7092 3.632-1.6023 1.3888 0 2.7775.6409 3.8457 1.7092 1.0683 1.0682 1.6024 2.5638 1.6024 4.1661 0 1.4956-.5341 2.9911-1.6024 4.1662-.9614 1.0683-2.3501 1.7092-3.8457 1.7092-1.3887.1068-2.7774-.5341-3.632-1.6024v5.7686h-2.8843V20.2255h2.8843v1.2819zm.8546 6.5164c1.1751 1.175 3.0979 1.175 4.3798 0 .641-.5342.9614-1.3888.8546-2.2434.1068-.8546-.2136-1.6023-.8546-2.2433-1.1751-1.1751-3.0979-1.1751-4.3798 0-.5341.641-.8546 1.3887-.8546 2.2433s.3205 1.6024.8546 2.2434zm24.1424-.1069c.5341.5342 1.3887.8546 2.1365.8546 1.0683.1069 2.0297-.5341 2.5638-1.4955l2.457 1.3887c-1.0683 1.816-2.9911 2.8843-5.1276 2.8843-3.2048 0-5.8754-2.6706-5.8754-5.8754v-.3205c.1068-3.2047 2.7775-5.6617 5.9822-5.5549 2.1365 0 4.0594 1.0683 5.0208 2.8843l-2.457 1.4956c-.5341-.9615-1.4955-1.4956-2.5638-1.4956h-.2136c-1.6024.1068-2.8843 1.4956-2.7775 3.0979 0 .7478.3205 1.6024.8546 2.1365zm11.6442-3.5252h4.486v-4.1662h2.885v11.1098h-2.885v-4.273h-4.486v4.273h-2.8845V20.1187h2.8845v4.273zm14.848-4.4866c1.389-.1069 2.778.5341 3.632 1.6023v-1.2819h2.885v11.1098h-2.885v-1.2819c-.854 1.0683-2.243 1.7092-3.632 1.6024-1.495 0-2.884-.6409-3.845-1.7092-1.069-1.0682-1.603-2.5638-1.603-4.1662 0-1.4955.534-2.9911 1.603-4.1661.961-1.0683 2.35-1.7092 3.845-1.7092zm-1.602 8.1187c1.175 1.175 3.098 1.175 4.38 0 .641-.5342.961-1.3888.854-2.2434.107-.8546-.213-1.6023-.854-2.2433-1.175-1.1751-3.098-1.1751-4.38 0-.534.641-.855 1.3887-.855 2.2433s.321 1.6024.855 2.2434zm13.674-6.5164c.854-1.0682 2.243-1.7092 3.632-1.6023 1.495 0 2.884.6409 3.845 1.7092 1.069 1.0682 1.603 2.5638 1.603 4.1661 0 1.4956-.534 2.9911-1.603 4.1662-.961 1.0683-2.35 1.7092-3.845 1.7092-1.389.1068-2.778-.5341-3.632-1.6024v5.7686h-2.885V20.2255h2.885v1.2819zm.961 6.5164c1.175 1.175 3.098 1.175 4.38 0 .534-.5342.854-1.3888.854-2.2434.107-.8546-.213-1.6023-.854-2.2433-1.175-1.1751-3.098-1.1751-4.38 0-.534.641-.855 1.3887-.855 2.2433s.321 1.6024.855 2.2434zm12.926-5.2345c.854-.8546 2.03-1.3887 3.311-1.2819 2.778 0 4.808 2.2434 4.808 4.8072 0 1.3887-.535 2.7774-1.603 3.7388-2.457 2.0297-5.982 1.9229-8.332-.2136-1.068-1.1751-1.603-2.6706-1.603-4.273-.106-1.4956.214-2.9911.855-4.3798.855-1.1751 2.03-2.2434 3.418-2.7775l1.069-.5341.961-.4273c.214-.1068.427-.2137.748-.4273.641-.3205 1.175-.9614 1.389-1.7092l2.243 1.3887c-.107.8546-.641 1.6024-1.282 2.1365-.855.641-1.923 1.1751-2.991 1.4956-1.923.7477-2.564 1.3887-2.991 2.4569zm2.35 6.3027c.748 0 1.496-.2136 2.03-.7478.534-.5341.854-1.175.641-1.7092v-.2136c-.107-1.4956-1.282-2.5638-2.778-2.457-.641-.1068-1.389.2137-1.923.641s-.854 1.0682-.854 1.816.32 1.3887.854 1.9228c.534.5342 1.282.7478 2.03.7478zm12.285-9.1869c1.389-.1069 2.777.5341 3.632 1.6023v-1.2819h2.884v11.1098h-2.884v-1.2819c-.855 1.0683-2.243 1.7092-3.632 1.6024-1.496 0-2.884-.6409-3.846-1.7092-1.068-1.0682-1.602-2.5638-1.602-4.1662 0-1.4955.534-2.9911 1.602-4.1661.962-1.0683 2.35-1.7092 3.846-1.7092zm-1.603 8.1187c1.176 1.175 3.098 1.175 4.38 0 .641-.5342.962-1.3888.855-2.2434.107-.8546-.214-1.6023-.855-2.2433-1.175-1.1751-3.098-1.1751-4.38 0-.534.641-.854 1.3887-.854 2.2433s.32 1.6024.854 2.2434zm13.567-3.6321h4.487v-4.1662h2.884v11.1098h-2.884v-4.273h-4.487v4.273h-2.884V20.1187h2.884v4.273zm20.19-4.273l-4.486 5.5549L190 31.3353h-3.312l-4.059-5.0207v5.0207h-2.884V20.2255h2.884v4.8072l3.846-4.914h3.418zm-111.8455.1068l2.9911 7.4778 2.3501-7.4778h3.0979L80.8249 35.822h-2.8843l1.4956-4.5935-4.4866-11.003h3.0979z" fill="#0999D5"/>
</svg>
