<svg version="1.1" id="Layer_1" xmlns="http://www.w3.org/2000/svg" x="0" y="0" viewBox="0 0 200 50" xml:space="preserve">
  <defs/>
  <style>
    .st1{fill:#0a3e86}.st2{fill:#595959}
  </style>
  <path d="M88.9 0h-.7c-5.9.5-11.8 1.8-17.3 4-6.4 2.4-12.4 5.9-17.6 10.3-.6.5-2.1 2.1-2.6 2.7-.7.8-1.4 1.7-2 2.7-.2.4-.5.8-.7 1.2.3-.2.5-.5.8-.7 2.1-2 4.3-3.8 6.8-5.4 8.2-5.3 19-9.1 28.1-9.9 1.1-.1 2.3-.2 3.4-.2s2.3 0 3.4.1c2.4.2 4.7.9 6.9 2 1.3.7 2.4 1.8 3.1 3.2.9 1.9.8 4.2-.4 6.7-.1.1-.1.3-.2.4.5-.5.9-1 1.4-1.6 1.6-1.8 2.7-4.1 3.3-6.4.1-.6.1-1.3.1-1.9-.3-2.3-1.7-4.2-4.2-5.5C98 .6 95.3-.1 92.6-.1c-.7.1-3.2.1-3.7.1z" fill="#fc121b"/>
  <path class="st1" d="M71 23.9c-.2-.4-.5-.7-.8-1-.9-.8-2-1.3-4.6-2-1.8-.5-2.5-.8-2.9-1.2-.2-.2-.3-.4-.3-.6 0-.4.2-.8.4-1.1.2-.3.6-.5.9-.7.8-.3 1.7-.3 2.5-.1.3.1.5.2.7.4.2.2.4.4.5.7.1.3.1.6 0 .9v.2h4.7v-.2c.3-1.1.2-2.3-.3-3.3-.2-.4-.5-.8-.8-1.2-.9-.8-2.1-1.4-3.4-1.5-.7-.1-1.4-.1-2-.1l-.5.1c-1 .1-2 .4-3 .8-1.5.6-2.8 1.6-3.6 3-.6 1-.9 2.1-1 3.2-.1 1.7.7 2.9 2.4 3.8 1 .5 2 .9 3.1 1.1l1.3.4c.7.2 1.3.6 1.8 1.1.1.3.1.7.1 1s-.3.6-.5.9c-.6.5-1.3.9-2.1.9h-1.7c-.3 0-.6-.2-.9-.3-.3-.2-.5-.4-.6-.7-.2-.4-.2-.8-.2-1.2v-.7h-4.5v.2c-.4 1.5-.2 3.1.6 4.4.3.4.7.8 1.1 1.2 1.4.8 3 1.2 4.6 1.2 1.5 0 2.9-.2 4.3-.7.6-.2 1.2-.5 1.8-.9.9-.6 1.6-1.3 2.2-2.2.6-.9.9-1.8 1.1-2.9.1-1 0-2-.4-2.9zM88.5 24.8c-.1-.6-.3-1.1-.6-1.5-.3-.4-.8-.8-1.3-1l-.2-.1.1-.1.9-.6c.4-.3.7-.7 1.1-1 .6-.7 1-1.6 1.1-2.5.4-2.3-.5-3.7-2.8-4.3-.5-.1-1-.2-1.5-.2h-9.7s-1 4.4-2.2 9.7c-1.2 5.3-2.2 9.7-2.2 9.7h5c5.4 0 5.1 0 6.1-.2 1.3-.2 2.5-.7 3.5-1.5s1.7-1.9 2.2-3.2c.2-.5.3-1 .4-1.6.2-.5.2-1 .1-1.6zm-4.7 1.9c-.1.5-.3 1-.7 1.4-.4.4-.8.6-1.4.7-.8.1-1.6.1-2.5.1-.7.1-1.5.1-2.2 0 0 0 .2-1 .5-2.2.3-1.2.5-2.2.5-2.2h4.3c.3 0 .6.1.9.3.3.2.5.5.6.8.1.3.1.7 0 1.1zm.4-6.5c-.3.4-.8.7-1.3.8-.7.1-1.5.1-2.2.1h-2s.2-.8.4-1.8.4-1.8.4-1.8v-.1h4.2c.3 0 .6.2.8.4.2.2.3.5.2.8 0 .7-.1 1.2-.5 1.6zM95.1 13.6h-2.3v.1c0 .1-1 4.4-2.2 9.7l-2.1 9.5h4.6l2.1-9.6c1.2-5.3 2.2-9.6 2.2-9.7h-2.3z"/>
  <g>
    <path class="st2" d="M118.4 27.1c-.1-.4-.3-.8-.6-1.1s-.6-.6-1-.8c-.1-.1-.2-.1-.4-.2h-.1s.1-.1.3-.2c.9-.5 1.6-1.2 2-2 .3-.5.4-1.1.4-1.7 0-.3 0-.5-.1-.8-.1-.2-.1-.4-.2-.6-.2-.5-.6-.9-1-1.2s-.9-.5-1.5-.5c-.4-.1-.4-.1-3.8-.1H109v.1c0 .1-2.9 14.8-2.9 14.8h6.9c1.9-.2 3.1-.7 4-1.8.6-.7 1-1.6 1.2-2.5.3-.4.3-.9.2-1.4zm-8.1-5.2c.2-1.2.4-2.2.4-2.2s3.9 0 4.3.1c1 .1 1.5.3 1.8.9.1.3.2.6.2 1 0 .5-.2 1-.5 1.4s-.7.7-1.2.9c-.6.2-1.2.3-3.6.3-1.6 0-1.7 0-1.7-.1-.1-.1.1-1.1.3-2.3zm5.6 7.7c-.3.4-.7.8-1.1 1.1-.6.3-1.2.4-1.9.4-.6 0-4.3.1-4.3 0s.2-1.1.5-2.5.5-2.5.5-2.5h2.3c.8 0 1.7 0 2.5.1.3 0 .7.1 1 .3.3.2.5.4.7.7.2.3.2.7.2 1 0 .5-.1 1-.4 1.4zM147.8 26.1s1.1-.9 2.4-2c1.3-1.1 2.5-2 2.5-2h-2.4l-2.6 2.1c-1.4 1.2-2.6 2.2-2.6 2.2s1.6-8.3 1.6-8.4-.1-.1-.9-.1h-.9l-1.4 7.4c-.8 4.1-1.4 7.5-1.4 7.5s0 .1.9.1h.9l.4-2.1c.2-1.1.4-2.1.4-2.2.5-.4 1-.9 1.5-1.2 0 0 .6 1.3 1.3 2.8l1.3 2.7h2.2s-.7-1.6-1.6-3.4c-.8-1.8-1.6-3.3-1.6-3.4zM120.4 32.6c.3.2.7.3 1.1.4.6.1 1.2.1 1.8.1 1.2-.2 2.3-.6 3.3-1.3l.3-.2v.3c0 .3 0 .6.1.9v.1h2s0-.1-.1-.2c-.1-.3-.1-.7-.1-1 .1-1.4.4-2.9.7-4.3.5-2.7.6-3 .5-3.5 0-.3-.1-.6-.2-.8-.1-.3-.3-.5-.6-.6-.7-.4-1.5-.7-2.3-.7h-1.1c-.6 0-1.1.1-1.7.3-1.1.3-2 .9-2.7 1.9-.2.4-.4.7-.6 1.1l.9.2c.4.1.8.1.8.1s.1 0 .2-.2c.3-.6.7-1.1 1.3-1.5 1-.4 2.1-.5 3.1-.2.2.1.4.2.5.3.2.1.3.3.4.5.1.4.1.9 0 1.3l-.1.4-.4.1c-1 .2-2 .4-3 .5-.7.1-1.4.2-2.1.4-.7.2-1.3.6-1.8 1-.3.3-.6.7-.8 1.1-.2.4-.3.8-.3 1.3s.1.9.3 1.3c0 .4.2.7.6.9zm1.3-3.2c.2-.3.5-.6.8-.7.6-.3 1.3-.4 2-.5.9-.1 1.9-.3 2.8-.6l.1-.1c0 .1-.2 1-.3 1.3-.1.5-.4 1-.7 1.4-.3.4-.8.7-1.2.9-.6.3-1.3.5-1.9.5-.3 0-.6 0-.8-.1-.3-.1-.5-.2-.7-.4-.2-.2-.3-.4-.3-.7-.1-.3 0-.7.2-1zM141.1 25.4c.1-.4.1-.9 0-1.3s-.3-.9-.5-1.2c-.2-.2-.4-.4-.7-.5-.7-.3-1.6-.5-2.4-.4-1.1.1-2.2.6-3 1.4-.2.2-.3.3-.3.2 0-.1.1-.3.1-.7.1-.3.1-.6.1-.6s0-.1-.8-.1h-.9s-.5 2.4-1 5.4c-.6 2.9-1 5.4-1 5.4h1.8s1.2-6.1 1.2-6.4c.1-.9.6-1.7 1.3-2.3.5-.4 1-.6 1.6-.7.6-.1 1.2 0 1.7.3.2.2.4.4.5.7.1.3.1.6.1.9 0 .4-.1.7-.8 4.3-.3 1.8-.6 3.3-.6 3.3h1.8s.3-1.6.7-3.6c.7-2.1 1-3.9 1.1-4.1zM54.5 42.5c-.5 0-.9.2-1.3.4-.4.3-.6.7-.8 1.1-.1.3-.1.5.1.8.1.2.3.4.5.6.4.2.8.3 1.2.4 1 .3 1.2.4 1.3.7 0 .2 0 .3-.1.5s-.2.3-.3.4c-.3.2-.7.3-1 .4-.4 0-.7 0-1.1-.2-.2-.1-.3-.2-.4-.4-.1-.2-.2-.4-.1-.5 0-.2 0-.2-.1-.2h-.7v.7c.1.3.2.6.5.8.2.2.5.3.8.4.5.1 1 .1 1.6 0 .5-.1.9-.3 1.3-.7.2-.2.3-.3.4-.6.1-.2.1-.4.1-.7 0-.3-.1-.6-.3-.8-.3-.3-.6-.4-1.6-.7-1-.3-1.2-.3-1.3-.5-.1-.2-.1-.3 0-.5 0-.2.1-.3.3-.4l.6-.3c.2-.1.4-.1.7 0 .8 0 1 .3 1.1.9v.2h.8v-.2c0-1.1-.8-1.7-2.2-1.6zM78.6 42.6h-.4s-.1.7-.1.8c0 .1.1 0 .4 0h.4l.1-.4c0-.1 0-.3.1-.4h-.5zM89.1 42.9c-.1-.1-.3-.2-.5-.2-.5-.1-1-.1-1.6-.1l-1.4.1s-.3 1.3-.5 2.9c-.3 1.6-.5 2.8-.5 2.9h3c.3-.1.5-.2.8-.3.4-.3.7-.7.9-1.2.1-.3.1-.7 0-1-.1-.2-.3-.4-.5-.5h-.2l.2-.1c.4-.2.6-.5.8-1 .1-.3.1-.7 0-1-.2-.3-.3-.4-.5-.5zm-.6 3.8c0 .2-.1.3-.2.5-.1.1-.2.2-.4.3-.3.2-.4.2-1.5.2h-.9v-.1s.1-.5.2-.9c.1-.5.2-.9.2-.9.6-.1 1.3-.1 2 0 .1 0 .2 0 .3.1.1.1.2.1.2.2.1.1.1.2.1.3v.3zm.2-2.7c0 .2-.1.5-.3.6-.2.2-.4.3-.6.3H86l.2-.8c.1-.5.2-.8.2-.9h.9c.3 0 .7 0 1 .1v.1c.1 0 .2.1.2.1l.2.2v.3zM99.4 43.4l.1-.4c0-.1 0-.3.1-.4 0-.1 0-.1-.4-.1s-.4 0-.4.1c0 .2-.1.7-.1.7h.7zM118.9 42.6h-.4s-.3 1.3-.5 2.8c-.3 1.5-.5 2.8-.5 2.9h.8l.5-2.8c.3-1.6.6-2.8.6-2.9h-.5zM58.8 44.2c-.4 0-.4 0-.4-.1s.1-.3.1-.6c.1-.3.1-.6.1-.6v-.1c-.1 0-.3.1-.4.2l-.2.2-.1.5c0 .3-.1.5-.1.5h-.6v.5c0 .1 0 .1.3.1h.3l-.3 1.2c-.1.7-.3 1.4-.3 1.6v.5c.1.1.1.2.3.3.2.1.2.1.5.1h.6v-.6h-.2c-.2 0-.3 0-.4-.2-.1-.2 0-.2.2-1.4l.3-1.4h.7v-.2c0-.1.1-.3.1-.3-.1-.2-.1-.2-.5-.2zM68.6 44.2h-.8s.1-.3.1-.7c.1-.2.1-.5.1-.7-.1.1-.3.1-.4.2l-.4.2-.1.4c0 .2-.1.4-.1.5v.2h-.5v.5h.6s-.1.6-.3 1.3c-.1.5-.2 1.1-.3 1.6 0 .3 0 .3.1.4.2.2.5.3 1 .3.1 0 .3 0 .3-.1v-.6h-.2c-.3 0-.5-.1-.5-.3 0 0 .1-.7.3-1.4.1-.7.3-1.3.3-1.3h.4c.4 0 .4 0 .4-.4v-.1zM141.4 44.7h.4v-.2-.4h-.8s.1-.3.1-.7l.1-.7s-.1.1-.3.2c-.2.1-.4.2-.4.3 0 0 0 .3-.1.5l-.1.5h-.2c-.3 0-.3 0-.3.3-.1.3-.1.3.2.3h.3s-.1.6-.3 1.3c-.3 1.4-.3 1.8-.2 2 0 .1.1.1.2.2.1 0 .1.1.2.1h1v-.3-.3c0-.1 0-.1-.2 0-.3 0-.5-.1-.5-.3 0-.1.4-2.3.5-2.6 0-.2 0-.2.4-.2zM62.1 44.6c.2-.4.2-.4-.1-.5-.3-.1-.6-.1-.8 0-.2.1-.3.2-.4.3l-.2.2v-.3l.1-.3h-.3c-.3 0-.3 0-.4.1 0 .1-.2 1-.4 2-.2 1.1-.4 2-.4 2s0 .1.4.1h.4s.1-.5.2-1.1c.1-.6.2-1.2.4-1.7.1-.2.2-.4.4-.5.1-.1.2-.1.4-.1.1 0 .3 0 .4.1l.1.1.2-.4zM65.4 44.2c-.1-.1-.3-.1-.4-.2-.4 0-.8 0-1.1.1-.4.1-.8.3-1.1.6-.2.2-.3.4-.4.6.2.1.4.1.6.1.1 0 .1 0 .2-.1.1-.2.2-.3.4-.4.2-.1.3-.2.5-.2.3-.1.6 0 .9.2.1 0 .1.1.1.1.1.2.1.3 0 .5v.2H65c-.4.1-.7.2-1.1.2-.4.1-.8.1-.9.1l-.6.3c-.2.1-.3.3-.5.5-.1.2-.1.4-.1.6 0 .3 0 .4.1.5.1.2.3.3.5.4.2.1.4.1.6.1.5 0 1-.2 1.5-.5l.1-.1v.4h.8v-.1c-.1-.4-.1-.6.2-2.1.2-1.1.2-1.3.1-1.6 0 0-.1-.1-.3-.2zm-.5 2.2c0 .3-.1.5-.2.8l-.3.3c-.3.3-.7.4-1.1.4-.4 0-.6-.1-.7-.4v-.2-.2c0-.1.1-.2.2-.3.2-.2.4-.3 1.1-.4.3 0 .6-.1.8-.2.3.1.2.1.2.2zM72.2 44.5c-.1-.2-.3-.3-.5-.4-.2-.1-.4-.1-.6-.1h-.6c-.5.1-1 .5-1.3.9-.3.5-.6 1.1-.6 1.7-.1.4 0 .8.2 1.1s.5.5.9.6c.4.1.8.1 1.2 0 .4-.1.8-.4 1.1-.8.1-.2.2-.3.3-.5-.2 0-.5-.1-.7-.1 0 0 0 .1-.1.2-.1.2-.4.4-.6.6-.2.1-.3.1-.5.1-.3 0-.4 0-.5-.1-.1 0-.2-.1-.2-.2-.1-.1-.1-.2-.2-.3-.1-.2-.1-.5-.1-.7v-.1H71c1.4 0 1.6 0 1.6-.1.1-.3.1-.5.1-.8v-.6c-.3 0-.3-.2-.5-.4zm-.4 1.4h-2.3v-.1c.1-.4.4-.7.8-.9.2-.1.3-.2.5-.2s.4 0 .5.1c.2.1.3.2.4.4.1.2.1.3.1.5v.2zM76.8 44.2c-.3 0-.4 0-.4.2s0 .2-.2 0c-.1-.1-.2-.2-.4-.2-.1 0-.3-.1-.4-.1h-.6c-.3.1-.6.2-.9.4-.3.2-.5.5-.6.8-.6 1.2-.4 2.5.4 2.9.3.1.6.2.9.1s.6-.2.9-.4l.1-.1c0 .1-.1.2-.1.4s-.1.5-.3.7c-.1.2-.3.3-.5.4-.2.1-.4.1-.7.1-.5 0-.7-.2-.7-.5v-.1c-.1 0-.2 0-.4-.1h-.4v.7c.1.1.1.2.2.3l.6.3c.2.1.4.1.7 0 .2 0 .5 0 .7-.1.5-.2.9-.6 1.1-1.1.3-.9.5-1.8.6-2.7.2-1 .4-1.9.4-1.9.3 0 .3 0 0 0zm-.8 1.6c0 .4-.1.8-.3 1.2-.2.3-.4.5-.7.7-.2.1-.3.1-.5.1-.1 0-.3 0-.4-.1-.2-.1-.3-.3-.4-.5-.1-.2-.1-.4 0-.7 0-.5.2-1 .5-1.4.1-.2.4-.4.6-.4.2-.1.5-.1.7.1.1 0 .2.1.3.2.1.1.1.2.2.3.1.1.1.3 0 .5zM82 44.2c-.3-.1-.7-.1-1.1-.1-.4.1-.7.3-1 .5-.5.5-.8 1.2-.9 2-.1 1.1.4 1.8 1.4 1.8.4 0 .8-.1 1.2-.3.4-.2.7-.5.8-.9.2-.4.2-.3-.1-.4-.4-.1-.4-.1-.5.2-.1.2-.2.4-.4.5-.2.1-.4.2-.6.2-.2 0-.4 0-.6-.2-.4-.3-.5-.9-.2-1.7 0-.2.1-.5.3-.7.1-.2.3-.4.5-.5.2-.1.4-.2.6-.2.2 0 .4.1.6.3.1.2.2.3.2.5 0 .1 0 .1.1.1l.4-.1h.3V45c0-.2-.1-.5-.2-.7-.4.1-.6 0-.8-.1zM96 44.1h-.4c-.3 0-.5.1-.7.3s-.4.3-.5.6c-.1.3-.1.6-.1.8.1.3.4.5 1.4.8.7.2.8.3.8.5s-.1.3-.2.4-.2.2-.4.2c-.4.1-.7 0-1.1-.1-.1-.1-.1-.2-.2-.2 0-.1-.1-.2-.1-.3V47h-.7v.2c0 .2 0 .3.1.5.1.1.1.3.2.4.1.1.2.2.4.3.1.1.3.1.5.1.5.1 1 0 1.4-.2.4-.2.8-.7.9-1.1v-.4c0-.1-.1-.2-.2-.3-.2-.2-.4-.3-1.2-.5-.6-.2-.8-.3-.9-.4-.1-.1 0-.4.2-.6.2-.1.4-.2.6-.2.2 0 .4 0 .6.1.1 0 .1.1.2.2 0 .1.1.1.1.2v.2h.3l.4-.1v-.5c-.1-.5-.6-.8-1.4-.8zM102.7 44.1c-.4-.1-.7-.1-1.1 0-.3.1-.6.2-.8.4l-.2.1v-.2c.1-.4.1-.3-.3-.3s-.3 0-.3.1-.2 1-.4 2c-.2 1.1-.4 2-.4 2s0 .1.4.1.4 0 .4-.1.1-.6.2-1.2.3-1.2.3-1.4c.1-.3.2-.5.4-.7.2-.2.4-.3.7-.3h.4c.1 0 .2.1.3.1l.2.2c0 .6-.1 1.3-.3 1.9-.1.7-.3 1.3-.3 1.3h.8l.3-1.4c.2-.6.3-1.2.3-1.8 0-.3 0-.4-.1-.5-.1 0-.3-.2-.5-.3zM107.2 44.6c-.2-.2-.4-.4-.7-.4-.3-.1-.6-.1-.9 0-.5.1-.9.3-1.2.7-.4.4-.6.9-.7 1.4-.3 1.3.3 2.1 1.4 2.2.4 0 .9 0 1.3-.2s.7-.5.9-.9c0-.1.1-.1.1-.2h-.3c-.2 0-.3-.1-.4-.1s-.1 0-.1.1c-.2.3-.4.5-.6.6-.1.1-.3.1-.5.1h-.4c-.1 0-.3-.1-.4-.2-.1-.1-.2-.2-.2-.4-.1-.1-.1-.3-.1-.4v-.3h3.1v-.2-1c0-.3-.1-.6-.3-.8zm-.3 1.3h-2.2s0-.1.1-.3c.1-.2.2-.4.4-.5l.6-.3c.2-.1.5-.1.7 0 .2.1.3.2.4.4v.7zM111.1 44.3c-.1-.1-.3-.1-.4-.2-.4 0-.7-.1-1.1 0h-.1c-.3 0-.5.1-.7.3-.2.2-.4.4-.5.6-.1.1-.1.3-.1.5v.4c0 .1.1.2.2.3.3.2.7.4 1.1.4l.7.2c.3.1.3.4.1.7-.1.1-.2.2-.3.2-.2.1-.2.1-.6.1-.2 0-.4 0-.5-.1l-.3-.3c-.1-.1-.1-.2-.1-.4h-.8v.2c0 .3.1.5.2.7.2.2.4.3.6.4.4.1.9.1 1.3 0s.7-.3 1-.5.4-.6.4-1c0-.1 0-.2-.1-.3l-.3-.3c-.4-.2-.8-.3-1.2-.4-.4-.1-.6-.2-.7-.3-.1-.3.2-.6.7-.7.5-.1 1 .1 1 .5 0 .1 0 .1.1.1h.7c0-.2 0-.4-.1-.6 0-.3-.1-.4-.2-.5zM114.6 44.1H113.4c-.4.1-.7.3-1 .5-.1.1-.2.2-.2.4-.1.1-.1.3-.1.4 0 .2 0 .3.1.5.1.3.4.4 1.1.6.4 0 .7.2 1 .4.2.3-.1.8-.5.9-.3.1-.7.1-1 0-.1 0-.2-.1-.2-.2s-.1-.2-.1-.3v-.2s-.2 0-.4.1h-.4v.2c0 .2 0 .3.1.4.1.1.1.3.2.4.1.1.2.2.4.3.1.1.3.1.4.1.5.1 1 0 1.4-.2.4-.2.8-.7.9-1.1.1-.2 0-.4-.1-.6-.1-.2-.3-.3-.5-.4-.1-.1-.5-.2-.9-.3-.8-.3-.9-.3-.9-.6s.2-.4.5-.5c.3-.1.5-.1.8-.1.1 0 .3.1.4.2.1.1.2.2.2.4v.1h.4c.1 0 .2 0 .4-.1v-.2c.1-.7-.2-1-.8-1.1zM122.6 44.4c-.1-.1-.3-.2-.4-.2-.1 0-.3-.1-.5 0h-.7c-.3.1-.5.2-.7.4l-.2.1c0-.1.1-.3.1-.4h-.6l-.4 2.1c-.2 1.1-.4 2.1-.4 2.1h.8l.3-1.3c.1-.7.3-1.3.3-1.5.1-.3.2-.5.5-.7.2-.2.5-.2.8-.2.1 0 .2 0 .3.1.1 0 .2.1.3.2.1.2.1.4-.2 1.9-.1.7-.3 1.3-.3 1.4 0 0 0 .1.4.1s.4 0 .4-.1.5-2.6.6-2.9c0-.2.1-.4 0-.6-.1-.2-.2-.4-.4-.5zM127 44.5c0-.1-.1-.1-.1-.1-.1-.1-.3-.2-.4-.2-.1 0-.3-.1-.5-.1s-.4 0-.6.1c-.3.1-.5.2-.7.4-.1.1-.2.1-.2.1 0-.1.1-.3.1-.4h-.6l-.4 2.1c-.2 1.1-.4 2.1-.4 2.1h.8l.2-1.1c.1-.6.2-1.2.3-1.4 0-.2.1-.4.2-.6.1-.2.3-.3.5-.4.6-.3 1.2-.1 1.3.3v.3c0 .2-.5 2.7-.5 2.7 0 .1 0 .1.4.1s.4 0 .4-.1.5-2.6.6-2.9c.1-.2.1-.5 0-.7-.4-.1-.4-.1-.4-.2z"/>
    <path class="st2" d="M130.9 44.5c-.2-.2-.4-.3-.7-.4h-1c-.4.1-.8.3-1.2.6-.4.4-.7 1-.7 1.6-.1.4-.1.8 0 1.1.1.2.2.4.4.6.2.2.4.3.6.3.4.1.8.1 1.2 0 .3-.1.6-.2.9-.4.3-.2.5-.5.6-.8.3-.6.4-1.3.3-2-.1-.2-.2-.4-.4-.6zm-.9 2.9c-.1.1-.3.2-.4.3-.2.1-.3.1-.5.1h-.3c-.1 0-.2-.1-.2-.1-.4-.2-.5-.5-.5-1.1 0-.3.1-.6.2-.9.1-.3.3-.6.6-.8.2-.1.3-.2.6-.3h.6c.2.1.4.3.5.5.1.1.1.2.1.5-.1.8-.3 1.4-.7 1.8zM138.4 44.1c-.3 0-.7-.1-1.1 0h-.1c-.3 0-.6.1-.9.3-.3.2-.5.4-.6.7 0 .1-.1.2-.1.3.2 0 .4.1.7.1 0 0 .1 0 .1-.1.1-.2.3-.4.5-.5.2-.1.5-.1.7-.1.2 0 .5.1.7.3.1.1.1.1.1.3v.3c-.1.1-.4.2-1.1.3-.4 0-.8.1-1.2.3-.2.1-.4.2-.5.4-.1.2-.3.4-.3.6-.1.1-.1.3-.1.4 0 .1.1.3.2.4l.3.3c.1.1.3.1.4.1.6.1 1.3-.1 1.8-.5l.2-.1v.2c0 .3 0 .3.4.3s.4 0 .4-.1c-.1-.4-.1-.5.2-2 .1-.5.2-1 .2-1.6-.1-.2-.2-.3-.3-.4-.3-.1-.4-.2-.6-.2zm-.2 2.6c-.1.3-.2.6-.5.8-.2.1-.3.3-.5.3-.2.1-.4.1-.6.1-.1 0-.3 0-.4-.1-.5-.2-.4-.9.2-1.1.3-.1.5-.1.8-.2l.8-.2c.1 0 .2-.1.2 0v.4zM145.4 44.5c-.2-.2-.4-.3-.7-.4-.4-.1-.7-.1-1.1 0-.5.2-1 .5-1.4 1-.3.5-.5 1-.5 1.6 0 .3 0 .6.1.9.1.3.3.5.6.7.3.1.6.2 1 .2.3 0 .7-.1 1-.2.3-.1.6-.4.8-.6.2-.3.4-.6.5-.9.2-.5.2-1 .1-1.6 0-.3-.2-.5-.4-.7zm-.9 2.8c-.2.2-.4.4-.7.5-.3.1-.6.1-.9 0-.2-.1-.3-.3-.4-.5-.2-.6-.1-1.3.3-1.9.1-.3.4-.5.7-.7.3-.1.6-.1 1 0 .1.1.3.2.4.3.1.1.2.3.2.5-.1.7-.3 1.3-.6 1.8zM148.3 44.1h-.4c-.2.1-.5.2-.6.5-.1.2-.1.2-.1-.2v-.2h-.6s-.2.9-.4 2-.4 2-.4 2.1h.8l.2-1c.1-.6.2-1.2.4-1.8.1-.3.3-.5.5-.6.1-.1.3-.1.4-.1.1 0 .3.1.4.1.2-.2.3-.4.4-.7 0 0-.1-.1-.2-.1h-.4zM78 44.3l-.4 2c-.2 1.1-.4 2-.4 2s0 .1.4.1.4 0 .4-.1.2-.9.4-2 .4-2 .4-2 0-.1-.4-.1-.4 0-.4.1zM93.4 44.2H93l-.2 1.1c-.1.6-.2 1.2-.4 1.8-.3.7-1.4 1-1.7.4-.1-.1-.1-.1-.1-.4 0-.5.1-1.1.3-1.6.1-.7.3-1.3.3-1.3h-.7s-.1.6-.3 1.4c-.2.6-.2 1.2-.3 1.8 0 .4 0 .4.1.5.1.2.3.4.5.4.2.1.5.1.7.1.4 0 .9-.2 1.2-.5.1-.1.1-.1.1.2v.2h.5l.4-2.1c.2-1.1.4-2.1.4-2.1-.1 0-.3 0-.4.1zM98.4 44.3c0 .1-.2 1-.4 2s-.4 1.9-.4 1.9h.8l.4-2c.2-1.1.4-2 .4-2.1V44h-.7l-.1.3zM135.2 44.2h-.4s-1.4 2.5-1.6 2.9l-.2.3v-.2c0-.2-.5-3-.5-3s-.1-.1-.4-.1h-.4v.1s.2 1 .4 2.1l.4 2h.7l1.2-2.1 1.2-2.1h-.4z"/>
  </g>
</svg>
