<svg width="200" height="50" fill="none" xmlns="http://www.w3.org/2000/svg">
  <defs/>
  <path d="M74.6415 19.5889c-.0645-1.1834.0639-3.2927.18-4.4117-.4368.1286-.6813.1286-1.118.1286-.8731 0-1.297-.1286-1.9266-.2444-.6807-.1286-1.5543-.2444-2.9801-.2444-5.5879 0-9.1203 4.0387-9.1203 8.7591 0 5.4663 4.5343 8.8876 9.3642 8.8876 4.5344 0 5.4595-1.8007 6.0757-3.2926.18-.4373.18-.4373.3084-.746h-.8091c-.9246 1.8006-2.8517 3.0997-5.5234 3.0997-3.7253 0-7.2577-3.0997-7.2577-7.8844 0-5.0933 3.3524-7.8844 6.4486-7.8844.8091 0 5.4589-.5016 5.5873 3.8457h.771v-.0128zm4.9583 10.624c.0639-1.0547.0639-1.6206.0639-2.7911v-.8103-.6174-.9903c-.0639-2.4181.4368-2.9197 1.4903-2.9197h.5007v-.5531h-1.1814c-.3728 0-.6167.0643-.9891.0643h-.989c-.4368 0-.6168-.0643-.9891-.0643h-1.1819v.5531h.5007c1.3619 0 1.4258.8746 1.4258 4.9133 0 .6817 0 4.0387-.1794 5.3377l.7446.1286c3.353-3.91 4.9588-5.7107 7.0138-8.6304l.3084.0643c-.244 1.4277-.244 2.4181-.244 3.9744 0 2.3023.1284 3.8458-1.9271 3.6657v.6174c1.0536 0 1.4904-.0643 1.9911-.1287H87.32c.5523 0 .9891.1287 2.0421.1287v-.6174c-2.1705.1801-1.8627-1.0547-1.9266-3.73v-3.0483c0-1.2476 0-2.1737.1284-3.357l-.6807-.1801c-4.0336 5.9037-3.0446 3.6014-7.0138 9.1321l-.2696-.1415zm12.4088-4.9647c.1284-.6818.1284-.9904.1794-2.0451.3728-5.968 1.9271-6.7655 3.0446-6.7655.6167 0 .9891.1801 1.6697.4373.5523.1287 1.0536.1801 1.6188.1801 1.4258 0 2.4149-1.299 3.0959-2.418H101c-.552 1.0547-.989.9904-1.6698.9904-.6168 0-1.1175-.2444-1.6698-.373-.4368-.1287-.8736-.1801-1.2975-.1801-2.4794 0-5.5234 2.8554-5.5234 9.505 0 6.714 3.0441 7.833 4.9067 7.833 2.5433 0 5.7038-2.4181 5.7038-6.1481 0-2.6753-1.7346-4.8489-4.4703-4.8489-2.4149 0-4.0981 1.9293-4.7788 3.8457l-.1923-.0128zm.5651 1.1832c0-1.8006 1.1815-3.8457 3.468-3.8457 1.6187 0 3.6608 1.492 3.6608 4.656 0 3.4214-2.0421 4.3474-3.288 4.3474-2.1071 0-3.8408-2.611-3.8408-5.1577zm20.1023 2.9197c-.68.746-1.798 1.6721-3.467 1.6721-2.673 0-4.586-2.238-4.586-5.4663 0-2.8554 1.926-3.6657 2.98-3.6657 1.618 0 2.171 1.4276 2.415 2.1736.552-.5531 1.182-.9903 1.798-1.3633-.809-1.3634-2.107-1.492-2.787-1.492-3.841 0-6.076 2.9196-6.076 5.8393 0 2.4181 1.798 5.3378 5.215 5.3378 1.117 0 1.67-.5017 2.543-.9904.874-.5531 1.619-.9261 2.043-1.119v-.9261h-.078zm.617-2.611c-.128 2.9197 1.863 5.7108 5.588 5.7108 3.468 0 5.896-2.7911 5.896-5.968 0-2.611-1.991-5.2863-5.588-5.2863-3.532.0129-5.767 2.5595-5.896 5.5435zm1.927-.6173c0-2.9197 1.927-4.1673 3.417-4.1673 2.364 0 4.213 2.5466 4.213 5.775 0 2.1737-1.362 3.9101-3.353 3.9101-2.607 0-4.277-2.5982-4.277-5.5178zm14.451 2.9711v-2.4824-1.6206c0-1.119-.129-2.9197.989-2.9197h.681v-.6174c-1.117 0-1.297.0643-2.107.1287h-.925c-.616-.0644-1.053-.1287-2.235-.1287v.5531h.437c1.182 0 1.49.6817 1.49 2.9197 0 .6174 0 1.6206-.064 2.791.372 3.4728-.989 3.8458-1.927 3.73v.6174c1.297 0 1.297-.1286 2.364-.1286.437-.0643.873-.0643 1.297 0 1.118.0643 1.618.1286 2.672.1286 1.426 0 3.841-.1286 5.459-.2444l.064.1801c-1.117.5016-2.042 1.2476-2.851 2.7396-.502.8747-.874 2.0451-1.991 2.0451-.309 0-1.118.0643-1.491-.6817l-1.053.746c.553.3087 1.182.5016 1.798.5016 2.788 0 4.471-2.7911 5.023-3.7943.617-1.0547.874-1.6721 1.991-1.6721v-.6817c-2.671.8104-2.415-.9903-2.415-4.4759v-.5531-1.1833c-.064-2.238.18-2.984 1.426-2.984h.501v-.5531c-1.182 0-1.554.0643-2.235.1287h-.925c-.809-.0644-.925-.1287-2.107-.1287v.6174h.617c.989 0 1.054 1.6206 1.054 2.9197v1.7364c0 1.5563 0 2.5467-.129 4.5917-.989.1286-1.734.1286-2.672.1286-1.053 0-1.798-.0643-2.736-.2444v-2.1093zm11.856-3.8457c.129-.6818.129-.9904.18-2.0451.372-5.968 1.927-6.7655 2.98-6.7655.617 0 .989.1801 1.67.4373.552.1287 1.054.1801 1.619.1801 1.426 0 2.415-1.299 3.095-2.418h-.616c-.501 1.0547-.989.9904-1.67.9904-.617 0-1.118-.2444-1.67-.373-.437-.1287-.873-.1801-1.297-.1801-2.48 0-5.524 2.8554-5.524 9.505 0 6.714 3.044 7.833 4.907 7.833 2.543 0 5.703-2.4181 5.703-6.1481 0-2.6753-1.734-4.8489-4.47-4.8489-2.415 0-4.098 1.9293-4.778 3.8457l-.129-.0128zm.552 1.1832c0-1.8006 1.246-3.8457 3.469-3.8457 1.618 0 3.661 1.492 3.661 4.656 0 3.4214-2.043 4.3474-3.224 4.3474-2.171 0-3.906-2.611-3.906-5.1577zm20.913 3.4728c-1.298 1.4277-1.734 1.3634-1.863 1.3634-.552 0-.552-.9261-.552-1.4277.244-5.7751.308-5.7108.308-6.2767 0-1.865-1.669-2.3666-2.916-2.3666-1.734 0-6.14 1.4277-4.843 4.0387l2.043-1.2476c-.617-.9904.244-2.0451 1.426-2.0451 1.49 0 2.415.4373 2.415 4.0387v.746c-4.586.373-6.577 1.865-6.577 3.7943 0 .5016.437 1.865 2.672 1.865 1.426 0 2.787-.8103 3.725-1.7364.18.9904.617 1.7364 1.362 1.7364.552 0 1.181-.373 2.736-1.6721v-.8103h.064zm-4.034-2.4824c.129 3.6014-1.991 4.1673-2.98 4.1673-1.246 0-1.618-1.0547-1.618-1.9293 0-1.8007 2.363-2.0579 4.598-2.238zm8.119-2.418c0-2.4181.18-2.9197 1.425-2.9197h.373v-.6303c-1.117 0-1.426.0643-2.042.1287h-1.054c-.308 0-.681-.0644-.989-.0644h-1.181v.5531h.5c1.298 0 1.491.5531 1.491 4.3474 0 3.1641.308 5.3377-1.927 5.0933v.6174c1.117 0 1.297-.0643 1.991-.1286h1.425c.681.0643.681.0643 1.863.1286v-.6817c-2.171.1286-1.734-2.1736-1.798-4.656.308 0 2.363.1286 2.852.1286.372 0 2.415-.0643 2.851-.1286v.9903c0 1.9294.244 3.9101-1.798 3.73v.6174c1.053 0 1.425-.0643 1.991-.1286.501-.0643.989-.0643 1.49 0 .552.0643.925.1286 1.927.1286v-.6174c-2.3.1801-1.927-1.9292-1.927-4.7203v-.373-.6174c0-3.164.128-3.73 1.361-3.73h.553v-.6174c-1.246 0-1.67.0643-2.3.1287h-1.053c-.68-.0644-.873-.1287-2.042-.1287v.6174h.372c1.555 0 1.426.9261 1.49 3.9101-.809.1286-1.798.2444-2.851.2444-1.182 0-2.107-.1287-2.852-.2444v-.9904h-.141v.0129zm10.546-2.9197c1.927-.4373 1.927.8746 1.927 2.8554v2.791c0 2.1737-.065 4.2188-1.927 3.73v.6174c1.927-.0643 2.235-.1286 3.417-.1286.244 0 .552.0643.809.0643.373.0643.552.0643.989.0643v-.6174c-1.297.2444-1.49-1.119-1.49-1.6206-.128-1.6721-.18-2.6753-.18-4.9648 0-1.9936 0-2.9839 1.67-2.8553v-.6174c-.989 0-1.246.0643-1.798.0643h-1.182c-.553 0-.989-.0643-2.171-.0643v.6817h-.064zm12.357 9.0677c-.308.4373-.809.373-1.118.373-.552 0-1.053-.6174-2.042-2.0451-1.49-2.1736-2.299-2.8553-3.468-3.2283.873-.746 1.426-1.2476 2.299-2.1094 1.426-1.3634 2.415-2.1737 3.661-1.9936v-.6174h-.617c-.552 0-1.053.0643-1.618.0643-.244.0644-.437.0644-.745 0-.308 0-.617-.0643-1.297-.0643v.6174c.436-.0643.809.1801.809.4373 0 .6174-1.67 2.1094-3.79 4.103 1.298 1.0547 1.992 2.0451 2.788 3.0483.745.9904 1.798 2.6753 3.096 2.6753.616 0 1.425-.2444 1.991-.6174v-.6174h.051v-.0257z" fill="#403092"/>
  <path fill-rule="evenodd" clip-rule="evenodd" d="M30.1449 28.798c-5.2024 1.5434-8.889.8231-12.4343-2.2509 3.9306-6.9326 8.3751-10.2639 15.6713-10.5468-1.0019 4.0901-2.158 8.6947-3.237 12.7977zm2.4663.0129c-.2698 1.0675-.578 2.2894-.8606 3.3441.244 1.1961 1.4258 1.9807 4.8683 2.1351 14.9264-1.6207 13.4749-18.277-.7193-18.2898-1.0148 3.9615-2.0938 8.1288-3.1214 12.0774 2.6975-.836 3.8279-2.8167 4.8041-6.4953.424.2958.8736.5659 1.3231.836-1.6442 3.7171-3.4425 5.4535-6.2942 6.3925zM35.373 8.2702c-.5652 2.238-1.2332 4.7718-1.7984 7.0098-6.1401.0515-13.1537 2.2509-17.7395 8.6947-3.4297-8.6432 5.6135-19.43451 15.5686-18.89431 3.2242.47594 3.9949 1.33767 3.9693 3.18981zm-5.4208 21.2866c-.3725 1.3763-.3982 1.4406-.7835 2.8168-.6295.939-1.3874 1.402-2.2866 2.0966 1.4516 0 2.9674-.1673 4.3547 0 22.7363 3.7042 27.1808-19.486 4.9197-19.1645.668-2.6496 1.5029-5.90364 2.1966-8.54036 6.1272 1.50486 11.6636 2.49521 16.0567-.27013C53.4336 5.67205 52.4702 4.82316 51.4939 4c-3.4683 3.47272-10.6616 2.19941-20.0516.27012C22.4505 2.89387 12.7137 9.7879 11.8017 19.1129c-.3083 3.0225.5524 5.4278 2.3893 7.2284-11.9591 19.1645 12.6269 30.007 25.4723 15.473-.3211-.6173-.6551-1.2475-.9634-1.8907C30.0421 55.1911 8.52613 45.9688 16.85 28.2063c3.7122 2.0708 8.1439 2.7525 13.1022 1.3505z" fill="#3B2A98"/>
</svg>
