<svg width="200" height="50" fill="none" xmlns="http://www.w3.org/2000/svg">
  <defs/>
  <path d="M116.134 34.3356c.47.5273 1.045.9481 1.686 1.2349.642.2868 1.336.4331 2.037.4294h4.873c.054-.0007.106-.0174.15-.0479.044-.0306.079-.0736.099-.1238.021-.0502.026-.1054.016-.1587-.01-.0533-.036-.1024-.073-.1411l-9.856-10.4577 8.432-8.5714c.035-.0419.058-.0926.067-.1466.009-.0541.003-.1096-.016-.1607-.02-.0511-.053-.0959-.095-.1296-.043-.0338-.094-.0554-.147-.0624h-5.667l-5.476 5.9639-3.723-4.2718c-.463-.5302-1.032-.9551-1.669-1.2467-.637-.2916-1.328-.4434-2.027-.4454h-4.7907c-.2464 0-.3285.3606-.1916.4993l8.8153 9.3204-9.4997 9.7087c-.0375.0387-.063.0878-.0732.1411-.0103.0533-.0049.1085.0155.1587.0204.0502.0549.0932.0992.1238.0444.0305.0965.0472.1501.0479h5.6671l6.461-6.9625 4.736 5.2982zM106.033 43.8528c0 1.1846 0 2.7033-1.033 2.4907v.6074c1.616.3645 1.748-1.3668 1.748-3.0373v-1.2454h1.537v4.2827H109V42h-2.967v1.8528zM112.043 43.9855h-1.184V42H110v4.9791h2.339c.211.0371.427.0247.632-.0362.206-.0608.395-.1687.554-.3154.16-.1468.285-.3287.367-.5322.081-.2036.118-.4235.106-.6435 0-1.3746-1.214-1.4663-1.955-1.4663zm0 2.4132h-1.155v-1.8022h1.007c.415 0 1.274 0 1.274.8553-.03.2749-.06.9469-1.155.9469h.029zM49.3588 1.00002c-3.0858-.004206-6.1343.66089-8.927 1.94762s-5.2604 3.16321-7.2262 5.49492c-.5115.60702 0 1.08208.7807.71259 2.8526-1.31883 5.9729-1.98657 9.1266-1.95301 4.2412 0 8.3087 1.65167 11.3078 4.59166 2.999 2.94 4.6838 6.9274 4.6838 11.0852 0 1.5215-.3057 3.0281-.8997 4.4338-.5939 1.4057-1.4645 2.6829-2.5619 3.7588-1.0975 1.0759-2.4004 1.9293-3.8343 2.5115-1.4339.5823-2.9708.882-4.5228.882-2.2135 0-4.3363-.862-5.9014-2.3963-1.5651-1.5344-2.4444-3.6154-2.4444-5.7852 0-1.442.5843-2.8248 1.6243-3.8444 1.0401-1.0196 2.4507-1.5924 3.9216-1.5924.4583-.0035.9128.082 1.3373.2516.4245.1695.8105.4197 1.1358.7362.3254.3165.5836.693.7598 1.1078.1762.4148.267.8597.2669 1.309.0001.2691-.0544.5355-.1603.7838-.1058.2483-.261.4735-.4563.6626-.1954.189-.4271.3381-.6817.4387-.2546.1006-.5271.1506-.8016.1471-.7538 0-1.023.3958-.4038 1.0293.3245.3288.7137.5896 1.1441.7665.4304.1769.893.2663 1.3596.2627 1.4734-.0069 2.8839-.5856 3.9232-1.6094s1.6228-2.4094 1.6228-3.8537c0-2.1699-.8793-4.2509-2.4445-5.7852-1.5651-1.5344-3.6879-2.3963-5.9013-2.3963-3.1324.0069-6.1344 1.2299-8.3493 3.4012-2.2149 2.1713-3.4624 5.1142-3.4695 8.1849.0351 4.1495 1.7303 8.1198 4.721 11.0565 2.9907 2.9368 7.0378 4.6054 11.2707 4.6467 2.8048.0988 5.6011-.3575 8.2221-1.3416 2.6209-.9841 5.0127-2.4758 7.0326-4.3861 2.0199-1.9103 3.6264-4.2 4.7237-6.7324C70.4345 26.9943 71 24.2712 71 21.5198c0-2.7514-.5655-5.4745-1.6628-8.0069-1.0973-2.5324-2.7038-4.8221-4.7237-6.73238-2.0199-1.91028-4.4117-3.402-7.0326-4.38609-2.621-.98409-5.4173-1.440378-8.2221-1.34162v-.05279zM96 42.6135h1.6056V47h.7888v-4.3865H100V42h-4v.6135z" fill="#006636"/>
  <path d="M99.8842 19.1068L96.8716 16h-20.573c-.0792 0-.1552.0321-.2112.0894-.0559.0572-.0874.1348-.0874.2157v2.9959c-.0002.0388.0076.0773.0229.1129.0153.0356.0378.0675.0659.0937.0282.0262.0614.046.0975.0582.0362.0122.0744.0164.1123.0126h8.1423v11.4285c0 .658.1273 1.3096.3745 1.9172.2472.6076.6095 1.1592 1.066 1.6232.4565.4641.9983.8313 1.5942 1.0805.5958.2493 1.234.3758 1.8779.3721h1.1128c.0719 0 .141-.0292.1919-.0812.0509-.052.0795-.1226.0795-.1962V19.5784h9.1194c.0408-.0225.0753-.0552.1003-.0951.0249-.0399.0394-.0857.0421-.133.0025-.0473-.0064-.0945-.0266-.1371s-.0507-.0793-.0887-.1064zM129.807 35.9861h12.88c.808.0562 1.619-.0587 2.383-.3377.763-.2789 1.462-.7159 2.054-1.2839.592-.5679 1.064-1.2546 1.387-2.0176.323-.7629.489-1.5858.489-2.4176 0-.8317-.166-1.6546-.489-2.4176-.323-.7629-.795-1.4497-1.387-2.0176-.592-.5679-1.291-1.0049-2.054-1.2839-.764-.2789-1.575-.3939-2.383-.3377h-11.476v-4.2966h11.125l2.997-3.0769c.035-.0419.057-.0925.066-.1466.009-.054.003-.1095-.016-.1605-.019-.0511-.052-.0958-.094-.1296s-.092-.0553-.145-.0623H125.27c-.074.0069-.143.0421-.193.0985-.05.0565-.077.1301-.077.2064v14.6916c0 1.3138.505 2.5746 1.404 3.5088.9.9341 2.123 1.4662 3.403 1.4808zm1.404-8.5654h8.695c.603.0652 1.162.3576 1.569.8209.406.4632.631 1.0644.631 1.6877s-.225 1.2245-.631 1.6878c-.407.4632-.966.7556-1.569.8209h-7.318c-.183 0-.365-.0375-.533-.1102-.169-.0728-.322-.1794-.451-.3136-.128-.1343-.229-.2934-.296-.4681-.068-.1748-.101-.3616-.097-.5496v-3.5758zM102.715 42.0101c-.5-.0452-1.002.062-1.44.3078-.438.2457-.791.6185-1.015 1.0695-.223.451-.3054.9592-.236 1.4579.069.4988.287.965.625 1.3374.338.3725.779.6339 1.268.75.488.1161 1 .0814 1.468-.0993.469-.1808.872-.4993 1.157-.9139.284-.4145.438-.9058.44-1.4094.041-.3189.012-.6428-.084-.9494-.097-.3067-.258-.5886-.474-.8264-.215-.2377-.48-.4256-.775-.5507-.295-.125-.614-.1842-.934-.1735zm0 4.4101c-.336 0-1.4 0-1.4-1.9382s1.064-1.9101 1.4-1.9101c.336 0 1.427 0 1.427 1.9101s-1.063 1.9382-1.427 1.9382zM123 42.6135h1.606V47h.788v-4.3865H127V42h-4v.6135zM156.59 45.697v-2.1448c0-1.3547-1-1.5522-1.667-1.5522-1.487 0-1.795.9313-1.795 1.5522h.693c0-.9596.846-.9878 1.102-.9878.923 0 .949.7338.949.9313 0 .1976-.205.5927-.821.6491-1.692.1693-2.051.6491-2.051 1.4675s.59 1.3829 1.462 1.3829c.284.0237.569-.0403.823-.1849.254-.1445.466-.3639.612-.6335 0 .5926.359.6773.77.6773H157v-.5645c-.41-.0282-.436-.2257-.41-.5926zm-.718-.8749c0 1.2982-.718 1.6086-1.308 1.6086-.104.008-.208-.0081-.306-.0475-.098-.0393-.188-.1009-.263-.1808-.075-.0798-.134-.1761-.173-.2827-.038-.1065-.057-.2208-.053-.3356 0-.762.539-.7902 1.205-.9031.667-.1129.693 0 .923-.2257l-.025.3668zM150.078 42.7035c-.335-.0264-.668.0583-.951.241-.282.1826-.498.4534-.614.7712 0-1.0863.514-1.506 1.1-1.6541.587-.1481 1.98 0 2.029-1.0616h-.587c0 .3703-.415.1728-1.491.4197-1.075.2469-1.564.7159-1.564 2.8391 0 .79 0 2.7404 2.004 2.7404.273.008.544-.0424.796-.1479.252-.1055.48-.2638.667-.4644.187-.2006.33-.439.419-.6994.089-.2605.123-.537.098-.8115.035-.2728.012-.55-.068-.8129-.08-.2629-.215-.5055-.396-.7114-.18-.2058-.403-.3702-.651-.482-.249-.1118-.519-.1685-.791-.1662zm0 3.8019c-1.051 0-1.271-.9628-1.271-1.58 0-.6172.146-1.7282 1.271-1.7282 1.124 0 1.246 1.111 1.246 1.7529 0 .6418-.513 1.6294-1.32 1.6294l.074-.0741zM164.618 44.3313L166.882 42h-1l-2.058 2.1779V42H163v5h.824v-2.4847L166 47h1l-2.382-2.6687zM161.159 44.0552h-2.347V42H158v5h.812v-2.3313h2.347V47H162v-5h-.841v2.0552zM144.5 46.0798L143.026 42H142v5h.737v-4.0184L144.211 47h.578l1.448-4.0184h.026l-.026.2761V47H147v-5h-1.026l-1.474 4.0798zM119 42.6135h1.606V47h.788v-4.3865H123V42h-4v.6135zM137.575 45.9877V42H137v5h.658l1.746-3.9877V47H140v-5h-.658l-1.767 3.9877zM128.596 45.9877V42H128v5h.658l1.746-3.9877V47H131v-5h-.658l-1.746 3.9877zM115.129 43.5681c-.012.364.076.7205.245.9947.169.2742.406.4449.662.4761L115 47h.669l.928-1.9611h.799V47H118v-4.9946h-1.748c-.149-.0181-.299.0096-.439.0813-.141.0717-.269.1856-.375.334-.107.1485-.19.3278-.243.5259-.053.198-.075.41-.066.6215zm2.331-.9499v1.8079h-.863c-.691 0-.842-.4903-.842-.8886 0-.9193.583-.9193.821-.9193h.884zM135.872 42h-.795L134 43.8405 132.923 42h-.82l1.487 2.3926L132 47h.795L134 44.9448 135.179 47H136l-1.59-2.6074L135.872 42z" fill="#006636"/>
</svg>
