<svg width="200" height="50" fill="none" xmlns="http://www.w3.org/2000/svg">
  <defs/>
  <path fill-rule="evenodd" clip-rule="evenodd" d="M52.0647 37.7211L195 37.7059l-2.454-2.4843H54.5795l-2.5148 2.4995z" fill="#00345E"/>
  <path d="M43.2133 32.6078L28.7381 18.1782l-.2477-.2438-.2477.2476-14.3114 14.4258h.983L28.498 18.9212l13.7209 13.6866h.9944z" fill="#A58A57"/>
  <path d="M11.2793 32.6077l17.2683-17.253 17.3025 17.253h1.2155L28.5361 14.1469l-18.457 18.4608h1.2002zM5 37.7136l47.1409-.0153-2.4843-2.5262H7.54908L5 37.7136z" fill="#A58A57"/>
  <path d="M36.9567 23.7907h-1.0821v-5.3344c.9335-.0838 2.6672-.1257 3.0978-.1257.6325 0 2.6672.1257 3.8979.2934 0-.2324-.0609-.5716-.0609-.7202.0051-.255.0255-.5094.0609-.762-1.3755.0838-3.8103.1905-4.98.1905-.4877 0-2.7358-.1257-4.0923-.1905.1486 1.1659.1677 4.7895.1677 7.1862 0 1.5775 0 3.3416-.0534 5.0029-1.6346 1.6194-3.2006 2.2138-4.5304 2.2138-4.2409 0-6.0965-4.4809-6.0965-8.6265 0-4.3018 1.7604-8.9313 6.0965-8.9313 1.326 0 2.7625.7201 4.3742 2.4652h.3467l.5373-2.1757C33.0055 13.2629 31.0927 13 29.5038 13c-3.2463 0-5.8373 1.5508-7.2853 4.2409-.9601.0457-2.1185.0838-3.3111.0838-1.9051 0-4.5114-.1029-5.5668-.1677 0 .2515.0648.5906.0648.7621 0 .1714-.0458.461-.0648.6935 1.3791-.1482 2.7665-.2055 4.1532-.1715h.381c.061 1.1431.0838 4.3171.0838 5.9593 0 2.6672-.0457 5.8526-.1676 8.1692.3353-.0228.9259-.0647 1.1774-.0647.1714 0 .7163.0419 1.0554.0647-.1257-2.3166-.1676-5.502-.1676-8.1692 0-1.6422 0-4.801.0838-5.9593h1.7146c-.5206 1.4451-.7787 2.9716-.762 4.5076 0 5.9707 3.2844 9.6209 8.093 9.6209 1.7329.0512 3.44-.4288 4.8924-1.3755 0 .4801-.0381.945-.0609 1.3755.3999-.0432.8018-.0648 1.204-.0647.9107 0 2.351.0647 2.7358.0647 3.4293.0191 6.0393-1.3983 6.0393-4.519.0076-3.8331-4.6333-4.2599-6.8395-4.2599zm.7316 7.5901c-.5944 0-1.2498-.0228-1.8022-.0419v-6.4241c4.0274 0 5.7649.762 5.7649 3.1168-.0114 2.1833-1.4707 3.3492-3.9627 3.3492z" fill="#00345E"/>
  <path d="M144.407 16.2654l.381-.6058c.782.4902 1.691.7417 2.614.724.94.0166 1.865-.2345 2.667-.724l.351.5906c-.908.5517-1.949.8442-3.01.8459-1.058-.0032-2.095-.29-3.003-.8307zm43.407 5.8031c1.524-1.5584 3.429-3.3569 4.774-4.5723-.198 0-.522.0419-.731.0419-.21 0-.503-.0267-.74-.0419-1.025 1.1659-3.429 3.776-4.618 4.6714 0-1.5013 0-3.8979.107-4.6714-.221 0-.56.0419-.682.0419-.187 0-.549-.0267-.8-.0419.095.762.11 3.1739.11 4.759 0 1.7642-.026 3.8979-.11 5.4411.225 0 .613-.0419.785-.0419.11 0 .476.0267.697.0419-.08-1.5241-.107-3.6769-.107-5.1477 1.541 1.6395 2.997 3.3563 4.363 5.1439.244-.0267.701-.0419.945-.0419.305 0 .617 0 .911.0419-1.281-1.4174-3.692-4.1799-4.904-5.624zm-5.163 5.624c-.084-1.5241-.114-3.6769-.114-5.4411 0-1.5889 0-3.9856.114-4.759-.225 0-.564.0419-.69.0419-.125 0-.545-.0267-.796-.0419.095.762.11 3.1739.11 4.2637-1.177.0838-2.156.1143-2.762.1143-.606 0-1.81-.0267-3.285-.0991 0-1.1088 0-3.5055.115-4.2789-.225 0-.56.0419-.69.0419-.129 0-.549-.0267-.8-.0419.099.762.114 3.1739.114 4.759 0 1.7642-.026 3.8979-.114 5.4411.229 0 .617-.0419.785-.0419.168 0 .48.0267.705.0419-.084-1.5241-.115-3.8103-.115-4.9534 1.475-.0838 2.386-.1143 3.216-.1143.762 0 1.654.0305 2.831.1143 0 1.105-.026 3.4293-.11 4.9534.225 0 .613-.0419.785-.0419.11 0 .476.0267.701.0419zm-14.914-10.1506c.507 1.2612 3.43 8.1654 4.474 10.143-.225 0-.606-.0267-.781-.0267-.176 0-.591 0-.816.0267-.381-.9412-1.192-3.0483-1.558-3.8103-.646-.0917-1.299-.1338-1.951-.1257-.582-.0059-1.163.0362-1.738.1257-.464.9411-1.234 3.0863-1.489 3.8103-.157 0-.362-.0267-.534-.0267-.171 0-.446 0-.587.0267 1.052-1.829 4.165-9.1104 4.63-10.143h.35zm.869 5.3344c-.293-.7811-.575-1.4289-1.387-3.2654l-1.417 3.2654c.47.0599.943.0942 1.417.1029.464-.0089.927-.0432 1.387-.1029zm-12.498-1.0059h.713c1.463 0 4.534.2781 4.534 2.8196 0 2.0614-1.726 3.0025-3.997 2.9873-.255 0-1.208-.042-1.814-.042-.272-.0004-.544.0136-.815.042.088-1.5242.118-3.677.118-5.4411 0-1.5851-.019-3.9856-.118-4.7591.899.0419 2.385.1258 2.713.1258.762 0 2.381-.0686 3.296-.1258-.026.1678-.042.337-.046.5068 0 .0991.031.32.046.4763-.815-.1143-2.161-.1944-2.583-.1944-.294 0-1.429.0267-2.047.0801v3.5397-.0152zm0 4.9953c.362 0 .797.0266 1.193.0266 1.654 0 2.622-.762 2.622-2.2175 0-1.5546-1.144-2.0614-3.811-2.0614l-.004 4.2523zm-3.985.8116c-.084-1.5242-.114-3.677-.114-5.4411 0-1.5889 0-3.9856.114-4.7591-.125.0278-.253.0419-.381.0419-.101.0016-.201-.0125-.297-.0419-1.711 2.2862-5.43 6.1346-7.194 7.8987v-3.1244c0-1.5889 0-3.9856.11-4.759-.225 0-.556.0419-.686.0419-.129 0-.548-.0267-.8-.0419.099.762.111 3.1739.111 4.759 0 1.7642-.027 3.8979-.111 5.4411.091-.0292.187-.0434.282-.0419.103-.0011.206.0131.305.0419 1.715-2.0042 5.068-5.7154 7.27-7.7577v2.3166c0 1.7642-.027 3.8979-.11 5.4411.221 0 .613-.0419.785-.0419.125 0 .491.0267.716.0419v-.0152zm-16.948-10.3526c3.147 0 5.517 1.9051 5.517 5.121 0 3.0864-2.328 5.4145-5.613 5.4145-3.101 0-5.429-1.9357-5.429-5.1897 0-3.1854 2.358-5.3344 5.528-5.3344l-.003-.0114zm3.997 5.1706c0-2.7206-1.376-4.5038-3.971-4.5038-2.495 0-4.039 1.7565-4.039 4.6867 0 2.4119 1.304 4.5304 3.971 4.5304 2.415-.0076 4.039-1.8023 4.039-4.7133zM124.693 17.5c2.594 0 3.608.7887 3.608 2.5529 0 2.2861-1.924 3.0177-4.21 3.0177-.126 0-.66-.0267-.923-.0571v2.4271c-.006.7546.03 1.5089.107 2.2595-.236-.0272-.474-.0412-.712-.0419-.255.0002-.509.0142-.762.0419.083-1.5241.114-3.6769.114-5.4411 0-1.5851 0-3.9855-.114-4.759.464 0 1.093.0419 1.417.0419.492 0 1.124-.0419 1.486-.0419h-.011zm2.175 2.5529c0-1.387-1.097-1.7642-2.454-1.7642-.24 0-1.051 0-1.246.0381v3.936c.193.031.388.0501.583.0572 1.955 0 3.117-.7887 3.117-2.2748v.0077zm-6.858-1.6537c0-.1524-.046-.381-.046-.4649 0-.0838.03-.3353.046-.5029-.701.0419-2.416.1105-3.708.1105-1.291 0-3.002-.0686-3.703-.1105 0 .1676.045.381.045.5029 0 .122-.03.3125-.045.4649.913-.0986 1.832-.1355 2.751-.1105h.266c.042.7621.054 2.873.054 3.9703 0 1.7642-.023 3.898-.111 5.4411.225 0 .618-.0419.785-.0419.168 0 .477.0267.705.0419-.087-1.5241-.11-3.6769-.11-5.4411 0-1.0973 0-3.2006.053-3.9703h.267c.918-.0275 1.837.0068 2.751.1029v.0076zm-9.229.8002l.351-1.1812c-1.035-.4843-2.169-.7193-3.311-.6859-3.312 0-5.529 2.0766-5.529 5.3573 0 3.2159 2.118 5.1782 5.22 5.1782 1.15.0275 2.285-.2583 3.284-.8269l.138-.8839-.111-.1563c-.833.7784-1.931 1.2102-3.071 1.2079-2.736 0-3.944-2.2862-3.944-4.5304 0-2.3167 1.143-4.6867 3.929-4.6867 1.062.0162 2.075.4501 2.819 1.2079h.225zm-9.975 0l.35-1.1812c-1.033-.4839-2.166-.7188-3.3069-.6859-3.315 0-5.5287 2.0766-5.5287 5.3573 0 3.2159 2.1185 5.1782 5.2163 5.1782 1.1495.0275 2.2849-.2583 3.2843-.8269l.137-.8839-.11-.1563c-.833.7784-1.9313 1.2102-3.0713 1.2079-2.7358 0-3.9436-2.2862-3.9436-4.5304 0-2.3167 1.143-4.6867 3.9284-4.6867 1.0621.0162 2.0751.4501 2.8195 1.2079h.225zm-10.5356 8.4931c-.08-1.5241-.1105-3.6769-.1105-5.4411 0-1.5889 0-3.9856.1105-4.759-.2248 0-.5601.0419-.6858.0419-.1258 0-.5487-.0267-.8002-.0419.0991.762.1143 3.1739.1143 4.2637-1.1812.0838-2.1604.1143-2.7662.1143-.6059 0-1.8099-.0267-3.2807-.0991 0-1.1088 0-3.5055.1105-4.2789-.2248 0-.5601.0419-.6897.0419-.1295 0-.5448-.0267-.8001-.0419.1028.762.1143 3.1739.1143 4.759 0 1.7642-.0305 3.8979-.1143 5.4411.2286 0 .621-.0419.7887-.0419.1105 0 .4763.0267.7011.0419-.0838-1.5241-.1105-3.8103-.1105-4.9534 1.4708-.0838 2.3852-.1143 3.2121-.1143.8268 0 1.6536.0305 2.8348.1143 0 1.105-.0305 3.4293-.1143 4.9534.2248 0 .6211-.0419.7849-.0419.1639 0 .4611.0267.7011.0419zM75.3417 17.5419c.5068 1.2612 3.4293 8.1654 4.4771 10.143-.2248 0-.602-.0267-.7849-.0267-.1829 0-.5906 0-.8154.0267-.381-.9412-1.1926-3.0483-1.5584-3.8103-.6462-.0916-1.2983-.1337-1.9509-.1257-.5829-.0058-1.1653.0363-1.7413.1257-.4572.9411-1.2307 3.0863-1.486 3.8103-.1524 0-.362-.0267-.5296-.0267-.1677 0-.4497 0-.5906.0267 1.0668-1.8213 4.1684-9.1028 4.6295-10.143h.3505zm.8726 5.3344c-.2972-.7811-.5792-1.4289-1.3908-3.2654l-1.4174 3.2654c.4703.0598.9434.0941 1.4174.1029.4651-.009.9294-.0434 1.3908-.1029zm-9.1219-5.3839c2.5948 0 3.6084.7887 3.6084 2.5528 0 2.2862-1.9052 3.0178-4.1913 3.0178-.1296 0-.6592-.0267-.9259-.0572v2.4272c-.005.7546.0318 1.509.1105 2.2595-.2366-.0273-.4745-.0412-.7126-.0419-.2545.0002-.5089.0142-.762.0419.0838-1.5241.1105-3.6769.1105-5.4411 0-1.5851 0-3.9856-.1105-4.759.461 0 1.0935.0419 1.4136.0419.4953 0 1.1431-.0419 1.4898-.0419h-.0305zm2.1757 2.5528c0-1.3869-1.0973-1.7641-2.4538-1.7641-.2401 0-1.0517 0-1.2498.0381v3.9436c.1955.031.3928.0501.5906.0572 1.9623 0 3.113-.7887 3.113-2.2748zm-7.0643-1.6536c0-.1524-.0419-.381-.0419-.4649 0-.0838.0267-.3353.0419-.5029-.7011.0419-2.4119.1105-3.7074.1105-1.2955 0-2.9987-.0686-3.6998-.1105 0 .1676.0419.381.0419.5029 0 .122-.0304.3125-.0419.4649.9122-.0988 1.8301-.1357 2.7473-.1105h.2667c.0419.762.0571 2.8729.0571 3.9703 0 1.7642-.0305 3.8979-.1143 5.4411.2286 0 .6173-.0419.7887-.0419.1105 0 .4763.0267.6973.0419-.08-1.5241-.1105-3.6769-.1105-5.4411 0-1.0974 0-3.2006.0572-3.9703h.2667c.9185-.0249 1.8375.012 2.751.1105z" fill="#A58A57"/>
  <path d="M54.7471 32.5278l-.1143.2286h.3391l.0648-.221c.0305-.0952.061-.1905.0915-.2743l.0495-.1372.1676-.019c.0711-.0046.1424-.0046.2134 0h.2172l.1715.019.0419.1372.1029.282.0647.2133h.583l-.1181-.2362c-.1867-.381-.381-.8497-.5678-1.3603l-.1524-.4077-.0762-.2172h-.2553l-.0762.2172-.16.4153c-.2096.5144-.381.9602-.583 1.3603h-.0038zm.5335-.6592l.0495-.1257.1562-.381.0762-.1829.0724.1829.1601.381.0495.1257h-.1029c-.0533.0042-.1068.0042-.16 0-.0647.0042-.1296.0042-.1944 0h-.1066zm4.7057-1.3221h-.2591v2.2214h.5182v-.1944V31.7581l.1371.2134.1982.3048c.0914.141.1562.2439.1943.3125l.0991.1676h.6287l-.1334-.1752-.2248-.3277-.3467-.4992-.1829-.2934.1143-.1333.3048-.3391.2439-.263.1867-.1905H61.0417l-.1219.1829c-.0648.0915-.16.2134-.282.3811l-.2057.2552-.1905.2134v-1.0288h-.2591l.0038.0077zm6.3327 2.2099c.1829 0 .1829.1944.1638.4916h.1829l.0533-.6135.0267-.141-.2819.0343h-.061v-.8192-1.1736h-.5182V32.4859l-.1753.0343h-.5868l-.1905-.0267v-1.9394h-.5182v2.2214H66.3342l-.0152-.0191zm5.3953-2.2214h-.24c-.3893.5351-.8132 1.0443-1.2688 1.5241V31.64c0-.4153 0-.7849.0266-1.1202h-.522c.0267.3201.0343.7011.0343 1.124l-.0305 1.0974h.2744c.381-.5144.8192-1.0364 1.2498-1.5241v.4343c0 .3811-.0001.7354-.0267 1.1012.0913-.0057.183-.0057.2743 0 .0812-.0056.1627-.0056.2439 0-.0305-.3543-.0267-.8459-.0267-1.2383 0-.4535 0-.7964.0267-.9869l-.0153.0076zm3.4293.2782c-.1165.1118-.2079.2471-.2684.3968-.0604.1497-.0884.3106-.0821.4719-.0072.1542.0195.3081.078.451.0586.1428.1477.2711.2611.3759.237.202.5424.3056.8535.2895.3235.0099.6385-.1047.8802-.32.1159-.1114.2071-.246.2675-.3951.0604-.149.0887-.3091.083-.4699.0015-.1795-.0348-.3574-.1067-.522-.0585-.1233-.143-.2325-.2477-.32-.2334-.1883-.5271-.2857-.8268-.2744-.3267-.0126-.6459.1006-.8916.3163zm.1715.8763c-.0102-.2273.0398-.4534.1448-.6553.0531-.101.1332-.1851.2315-.243.0983-.0579.2107-.0872.3248-.0847.1175-.0054.2341.0237.3353.0838.0846.0512.1533.1252.1981.2134.1022.1893.1522.4023.1448.6173.0012.2253-.0524.4476-.1562.6477-.0514.0996-.1297.1828-.226.24-.0964.0573-.2069.0864-.3189.0839-.1104.0053-.2196-.024-.3124-.0838-.0902-.0502-.1662-.1223-.221-.2096-.1078-.1843-.1582-.3966-.1448-.6097zm5.2543-1.143h-.2591v2.2214h.5182v-.1982-.8611H81.823v1.0402h.4458V31.259v-.7202h-.5182v.8802h-.9944v-.8802h-.2591l.0723.0077zm4.9534 2.0689l-.019.1639.2743-.0229h.9678v-.2934h-.7392v-.762h.7164v-.2896h-.7164v-.6287h.7392v-.2896h-1.2383l.019.1677v1.928l-.0038.0266zm4.5724-2.0689h-.2591v2.2099h.522V31.7962h.1448c.5677 0 .8497-.2286.8497-.6744.0016-.0926-.0153-.1845-.0496-.2705-.0211-.0576-.055-.1097-.099-.1524-.1512-.1224-.3434-.1824-.5373-.1677h-.2743l-.2972.0153zm.24 1.0402v-.8307h.1105c.2248 0 .3391.1258.3468.3811 0 .3124-.1448.4724-.4192.4762h-.0571l.019-.0266zm4.3095-1.0402h-.2591v2.2214h.5182v-.1982-.8611h.9983v1.0402h.522V31.259v-.7202h-.522V31.419h-.9983v-.8802h-.2591v.0077zm6.8773 2.0499v.16h.522v-.1371V31.0837v-.5487h-.522v.1372c.007.1345.007.2693 0 .4039V32.5964zm-1.6534.1562h.4684c.431 0 .762-.1791.762-.7125 0-.4572-.499-.6135-.857-.6135h-.179v-.8916h-.5221v2.2214h.2934l.0343-.0038zm.2024-1.105h.106c.057-.0038.114.0044.168.0242.053.0198.102.0507.142.0907.041.0399.073.088.094.1411.02.0531.03.11.027.167 0 .2781-.137.4877-.412.4877h-.114V31.64l-.011.0076zm7.209-1.1126h-.244c-.387.536-.81 1.0452-1.265 1.5241V31.64c0-.4153 0-.7849.026-1.1202h-.525c.03.3277.038.7011.038 1.124l-.035 1.0974h.237c.381-.5144.819-1.0364 1.249-1.5241v.4343c0 .3811 0 .7354-.022 1.1012.09-.0057.18-.0057.27 0 .082-.0057.165-.0057.248 0-.035-.3543-.027-.8459-.027-1.2383 0-.4535 0-.7964.027-.9869l.023.0076zm-.362-.7163h-.054c-.026.0766-.074.144-.137.1943-.116.0653-.248.097-.381.0915-.119.0055-.236-.0265-.335-.0915-.06-.0522-.104-.1192-.13-.1943h-.057v.1905c-.006.0526-.021.1039-.042.1524l.133.0496c.143.0538.295.0771.446.0685.171-.006.341-.0303.507-.0724l.111-.0457-.039-.1486-.019-.1943h-.003zm6.687.7278h-.256v2.2099h.519v-.1943-.804l.141.2134.194.3048c.091.141.156.2439.194.3125l.099.1676h.625l-.129-.1752-.229-.3277-.343-.4992-.183-.2934.114-.1333.309-.3391.24-.263.187-.1905h-.423l-.122.1829c-.065.0915-.156.2134-.282.3811l-.206.2552-.19.2134v-1.0288h-.263l.004.0077zm4.69.2667c-.116.1118-.208.2471-.268.3968-.061.1497-.089.3106-.082.4719-.008.1542.019.3081.078.451.058.1428.147.2711.261.3759.239.2015.545.305.857.2895.313.0033.616-.1109.85-.32.116-.1111.208-.2456.269-.3946.061-.1491.09-.3094.085-.4704.002-.1795-.035-.3574-.107-.522-.058-.1243-.144-.2337-.251-.32-.232-.1893-.524-.2869-.823-.2744-.327-.0119-.646.1012-.892.3163h.023zm.175.8763c-.012-.2275.038-.454.145-.6553.086-.1492.228-.2585.394-.3041.166-.0456.344-.024.494.0602.085.0522.154.1258.202.2134.096.1913.143.4033.137.6173.004.2252-.048.448-.152.6477-.052.0996-.13.1828-.226.24-.097.0573-.207.0864-.319.0839-.112.0044-.222-.0248-.316-.0838-.089-.0523-.165-.124-.221-.2096-.103-.1859-.151-.3975-.138-.6097zm4.95 1.0631h.156v-.1943l.042-.5487.053-.4496.031-.2591.126.2477.381.762.137.2896.061.1486h.129l.107-.24.263-.5602.202-.381.129-.2705.023.2629.065.461.046.5602v.1943h.541l-.053-.282-.134-.8954-.095-.8192-.023-.2248h-.255l-.099.2324c-.061.1372-.149.3315-.271.5754l-.267.5144-.114.2133-.118-.2248-.251-.5029-.221-.4839-.149-.3315h-.255l-.035.2972-.095.7392-.057.381-.095.5906-.042.2019.137-.0038zm5.571 0h.152v-.1943l.046-.5487.049-.4496.031-.2591.125.2477.382.762.133.2896.061.1486h.133l.099-.24.267-.5602.198-.381.133-.2705.027.2629.05.442.042.5601v.1943h.541l-.057-.2819-.126-.8955-.099-.8192-.027-.2248h-.255l-.096.2325c-.06.1371-.152.3315-.274.5753l-.248.5144-.114.2134-.118-.2248-.248-.503-.221-.4648-.148-.3315h-.256l-.034.2972-.095.7392-.057.381-.095.5906-.042.2019.141-.0038zm5.563-.1372v.1639l.274-.0229h.972v-.2934H135.053v-.762h.716v-.2896h-.724v-.6287h.762v-.2896h-1.242v2.0957l-.011.0266zm4.572-2.0689h-.255v2.2099h.522V31.7962h.144c.568 0 .85-.2286.854-.6744 0-.0928-.018-.1848-.053-.2705-.023-.0579-.058-.11-.103-.1524-.151-.1224-.344-.1824-.537-.1677h-.271l-.301.0153zm.244 1.0402v-.8307h.11c.225 0 .339.1258.343.3811 0 .3124-.141.4724-.419.4762h-.053l.019-.0266zm5.643-1.0441h-.229l.019.2249v.4572c0 .4801-.274.4801-.442.4801-.282 0-.434-.2591-.438-.7354V30.5426h-.518l.027.6402c0 .2021.08.3959.223.5388.143.1429.337.2232.539.2232.198-.0012.394-.0481.571-.1371v.9754h.518l-.019-.1943v-1.1622-.8535h-.137l-.114-.0305zm3.46 2.0728v.1639l.27-.0229h.968v-.2934h-.762v-.762h.724v-.2896h-.724v-.6287H149.692v-.2896h-1.238v2.0957l.019.0266zm6.096-.2438l-.042-.0191-.095.0762c-.14.1104-.314.1684-.492.1639-.143-.0007-.283-.0416-.404-.1181-.122-.0789-.213-.1973-.259-.3353-.063-.16-.094-.3309-.091-.503-.009-.2235.05-.4444.171-.6325.06-.0934.144-.1698.242-.2218.098-.0521.208-.078.319-.0754.079-.0044.159.0079.234.0362.075.0282.143.0716.2.1276l.11.1258h.027l.042-.202.042-.1638-.122-.0419c-.169-.0612-.347-.0922-.526-.0915-.329-.0129-.652.0955-.907.3048-.121.1109-.217.2473-.28.3995-.062.1522-.09.3164-.082.4807-.003.1615.025.3221.084.4725.046.117.118.2224.21.3086.1.0994.219.1772.35.2287.18.0709.371.1071.564.1066.19.0037.378-.0326.553-.1066l.076-.0343.034-.1296.042-.1562zm3.326-1.8251h-.259v2.2099h.519v-.1943-.804l.141.2134.194.3048c.091.141.156.2439.194.3125l.099.1676h.625l-.126-.1752-.228-.3277-.347-.4992-.183-.2934.114-.1333.309-.3391.24-.263.187-.1905H158.955l-.126.1829c-.061.0915-.16.2134-.282.3811l-.202.2552-.19.2134v-1.0288h-.26v.0077zm6.478 0h-.24c-.387.5369-.811 1.0461-1.269 1.5241V31.64c0-.4153 0-.7849.031-1.1202h-.526c.03.3201.034.7011.034 1.124l-.03 1.0974h.274c.4-.5144.819-1.0364 1.25-1.5241v.4343c0 .3811 0 .7354-.027 1.1012.09-.0056.18-.0056.271 0 .082-.0057.165-.0057.247 0-.03-.3543-.026-.8459-.026-1.2383 0-.4535 0-.7964.026-.9869l-.015.0191zm5.209 0h-.244c-.388.535-.811 1.0442-1.265 1.5241V31.64c0-.4153 0-.7849.026-1.1202h-.522c.023.3277.031.7011.031 1.124l-.031 1.0974h.279c.381-.5144.815-1.0364 1.246-1.5241v.4343c0 .3811 0 .7354-.02 1.1012.091-.0057.181-.0057.271 0 .082-.0056.165-.0056.248 0-.035-.3543-.027-.8459-.027-1.2383 0-.4535 0-.7964.027-.9869l-.019.0191zm-.362-.7164h-.077c-.023.0778-.071.1459-.137.1943-.116.0654-.248.097-.381.0915-.118.0046-.235-.0274-.335-.0915-.059-.0516-.103-.119-.126-.1943h-.061v.1905c-.006.0522-.019.1034-.038.1525l.13.0495c.142.0541.294.0775.445.0686.171-.0061.341-.0303.507-.0724l.111-.0457-.038-.1487-.019-.1943h.019zm6.919 1.6689v-.7315h.892V30.5122l-.221.0228h-1.162l.019.1639v1.9051l-.019.1562h.762c.087.0075.175.0075.263 0 .144-.0302.272-.1127.359-.2315.087-.1189.127-.2657.113-.4124 0-.4953-.495-.6325-.857-.6325l-.149.0152zm0 .2096h.107c.056-.0081.114-.0035.168.0135.054.017.104.0459.146.0846.041.0387.074.0863.095.1392.02.0529.029.1098.025.1666 0 .3048-.141.4534-.408.4534h-.121v-.8687l-.012.0114zm4.054.8192l-.114.2286h.343l.061-.221c.03-.0952.061-.1905.091-.2743l.054-.1372.163-.019c.07-.0045.14-.0045.21 0h.221l.168.019.049.1372.095.282.069.2133h.575l-.114-.2362c-.187-.381-.381-.8497-.568-1.3603l-.16-.4077-.083-.2172h-.256l-.072.2172-.16.4153c-.206.5144-.4.9602-.583 1.3603h.011zm.53-.6592l.053-.1257.156-.381.077-.1829.072.1829.16.381.053.1257h-.102c-.055.0041-.11.0041-.164 0-.065.004-.13.004-.195 0h-.11zm4.717-1.3221h-.263v2.2214h.518v-.1982-.8611H186.69v1.0402h.518V31.259v-.7202h-.518v.8802H185.695v-.8802h-.255v.0077zm5.201 0h-.255v2.2099h.514v-.1943c-.006-.0939-.006-.1881 0-.282v-.522l.137.2134.198.3048c.096.141.157.2439.195.3125l.103.1676h.621l-.13-.1752-.225-.3277-.343-.4992-.186-.2934.114-.1333.305-.3391.244-.263.186-.1905h-.422l-.119.1829c-.064.0915-.163.2134-.285.3811l-.206.2552-.194.2134v-1.0288l-.252.0077z" fill="#00345E"/>
</svg>
