<svg width="200" height="50" fill="none" xmlns="http://www.w3.org/2000/svg">
  <defs/>
  <path d="M159.704 31.1969V13.8072L165 8.51331V31.1969h-5.296z" fill="#E30613"/>
  <path d="M142.306 31.1969l17.398-17.3897v17.3897h-17.398z" fill="#C6C6C6"/>
  <path d="M142.306 31.1969V13.8072h17.398l-17.398 17.3897z" fill="#008ECF"/>
  <path fill-rule="evenodd" clip-rule="evenodd" d="M107.19 31.7424c-6.612 0-10.9776-4.7485-10.9776-11.9033C96.2124 13.2297 100.417 8 107.383 8c5.457 0 9.437 3.433 9.822 8.1173h-4.879c-.514-2.4705-2.343-3.9463-5.04-3.9463-4.365 0-6.066 3.9142-6.066 7.7002 0 4.6843 2.311 7.6682 6.002 7.6682 2.985 0 4.783-1.7968 5.2-5.1014h4.943c-.513 5.5505-3.948 9.3044-10.175 9.3044zm-17.2368-.5454h5.2321L86.5187 8.48129h-5.1358L72.7483 31.197h5.1037l1.8617-5.0694h8.442l1.7975 5.0694zm-9.0197-8.6949l3.0172-8.4381 3.0174 8.4381h-6.0346zm-34.0247-9.7537h6.837V8.51331H35.0964v4.23509h6.805v18.4485h5.0074V12.7484zM157.071 41.881c1.574 0 2.633-1.123 2.633-2.7913 0-1.6685-1.059-2.8235-2.633-2.8235-1.605 0-2.664 1.123-2.664 2.8235 0 1.6683 1.059 2.7913 2.664 2.7913zm.033-.9625c-.931-.0321-1.477-.7059-1.477-1.861 0-1.0908.546-1.8287 1.477-1.8287.898 0 1.444.7058 1.444 1.8287 0 1.1551-.546 1.861-1.444 1.861zm-72.1583-1.7967c0 1.6684-1.0593 2.7914-2.6322 2.7914-1.6049 0-2.6641-1.123-2.6641-2.7914 0-1.7005 1.0592-2.8234 2.6641-2.8234 1.5729.0321 2.6322 1.155 2.6322 2.8234zm-4.0766 0c0 1.1551.5457 1.8288 1.4766 1.8609.8987 0 1.4444-.7058 1.4444-1.8609 0-1.1229-.5457-1.8288-1.4444-1.8288-.9309 0-1.4766.7059-1.4766 1.8288zm-37.106 2.695h1.2197l-2.0222-5.3901h-1.2198l-2.0543 5.3901h1.2198l.4494-1.1871h1.9901l.4173 1.1871zm-2.1186-2.0855l.7062-1.9892.7062 1.9892h-1.4124zm-2.1828.3537c0-1.1551-.8024-1.7005-1.8938-1.7005h-1.4123v-.9625h2.8246v-.9625H35v5.3581h2.5037c1.1556 0 1.958-.5455 1.958-1.7326zm-3.3061-.77h1.2518c.5457 0 .9309.1925.8988.77 0 .5775-.321.77-.8988.77h-1.2518v-1.54zm13.8345 2.5019h-1.1877v-2.3101h-2.1827v2.3101H45.432v-5.3581h1.1877v2.0213h2.1827v-2.0213h1.1877v5.3581zm6.0025 0l-2.311-3.2405 2.1185-2.1176h-1.4766l-2.1185 2.2138v-2.2138h-1.1556v5.3581h1.1556v-1.7326l.674-.6738 1.6371 2.4064h1.4765zm7.3827 0h-1.1876v-2.3101h-2.1828v2.3101h-1.1876v-5.3581h1.1876v2.0213h2.1828v-2.0213h1.1876v5.3581zm2.2149-4.3955h2.8247v-.9626h-4.0124v5.3581h4.1087v-.9946h-2.921v-1.3155h2.6321v-.9304h-2.6321v-1.155zm8.2493 4.3955h-1.1876v-4.3635h-2.1828v4.3635h-1.1876v-5.3581h4.558v5.3581zm5.3283-3.6256c0-1.187-.8025-1.7325-1.958-1.7325h-2.3111v5.3581h1.1555v-1.9251h1.2198c1.0593 0 1.8938-.5454 1.8938-1.7005zm-2.0543.7701h-1.0272v-1.54h1.0593c.5136 0 .8987.1925.8987.7699 0 .6096-.4172.7701-.9308.7701zm11.9088 2.8234v-.5775c1.3802-.0321 2.3111-.8021 2.3431-2.1497 0-1.2833-.9308-2.0533-2.3431-2.0855v-.5133h-1.1556v.5133c-1.3802.0322-2.3112.8022-2.3112 2.0855 0 1.3476.931 2.0855 2.3112 2.1497v.5775h1.1556zm-2.3433-2.6951c0-.77.4173-1.2192 1.1877-1.2513v2.5347c-.7383-.0321-1.1877-.5775-1.1877-1.2834zm2.3433 1.2513v-2.5026c.7703.0321 1.1876.4813 1.1876 1.2192 0 .738-.4494 1.2513-1.1876 1.2834zm7.6715 1.4759h-1.1877v-3.7218h-.0321l-2.0222 3.7218h-1.3161v-5.3581h1.1877v3.7218h.0321l2.0222-3.7218h1.3161v5.3581zm4.2692-.0001h1.188v-5.3901h-3.724l-.0962 3.2726c-.0321 1.0909-.2889 1.2512-.6099 1.2512-.1394 0-.2787-.0483-.3761-.0821h-.0001l-.0175-.0061-.0236-.008v.9625c.1605.0642.4494.0963.6741.0963.8987 0 1.4123-.6738 1.4765-2.1818l.0642-2.2779h1.4446v4.3634zm2.183.0001v-5.3581h1.155v1.9251h1.252c1.091 0 1.894.5454 1.894 1.7004.032 1.1871-.77 1.7326-1.926 1.7326h-2.375zm2.279-2.5026h-1.092v1.54h1.124c.578 0 .899-.1925.899-.77s-.386-.77-.931-.77zm6.13 2.5026h1.188v-5.3581h-1.188v2.0213h-2.183v-2.0213h-1.187v5.3581h1.187v-2.3101h2.183v2.3101zm4.302 0h-2.087v-5.3581h1.156v1.9251h.963c1.091 0 1.894.5454 1.894 1.7004.032 1.1871-.771 1.7326-1.926 1.7326zm-.097-2.5026h-.834v1.54h.834c.579 0 .899-.1925.899-.77.033-.5775-.353-.77-.899-.77zm3.821-2.8555v5.3581h-1.188v-5.3581h1.188zm5.584 5.3259l-1.894-2.7913 1.734-2.5667h-1.284l-1.091 1.7325-1.06-1.7325h-1.38l1.733 2.5667-1.893 2.7913h1.348l1.187-1.8608 1.188 1.8608h1.412zm8.122-.032h-1.221l-.417-1.1871h-1.99l-.449 1.1871h-1.22l2.055-5.3581h1.219l2.023 5.3581zm-2.665-4.0426l-.706 1.9892h1.412l-.706-1.9892zm8.089 4.0426l-2.311-3.2406 2.118-2.1175h-1.476l-2.118 2.2138v-2.2138h-1.156v5.3581h1.156v-1.7326l.674-.6737 1.637 2.4063h1.476zm4.462-4.3635h-1.605v4.3635h-1.188v-4.3635h-1.605v-.9946h4.398v.9946zm3.948 4.3635h1.187v-5.3581h-1.315l-2.023 3.7218h-.032v-3.7218h-1.187v5.3581h1.315l2.023-3.7219h.032v3.7219zm4.783-5.3581c.931 0 1.701.385 1.701 1.3475 0 .5134-.289.8984-.738 1.0909.545.1604.963.5775.963 1.3154 0 1.0588-.802 1.6043-1.83 1.6043h-2.696v-5.3581h2.6zm-1.412 2.1817h1.059c.417 0 .898-.0962.898-.6096 0-.5454-.449-.6417-.898-.6417h-1.059v1.2513zm0 2.2459h1.187c.514 0 .995-.0962.995-.7379s-.514-.7379-1.059-.7379h-1.123v1.4758zm12.55-4.4276c.931 0 1.701.385 1.701 1.3475 0 .5134-.289.8984-.738 1.0909.546.1604.963.5775.963 1.3154 0 1.0588-.803 1.6043-1.829 1.6043h-2.633v-5.3581h2.536zm-1.381 2.1817h1.06c.418 0 .899-.0962.899-.6096 0-.5454-.45-.6417-.899-.6417h-1.06v1.2513zm0 2.2459h1.188c.514 0 .996-.0962.996-.7379s-.514-.7379-1.06-.7379h-1.124v1.4758zM66.1679 8.51331c4.911 0 8.3135 2.27799 8.3135 7.28309 0 4.941-3.4987 7.2511-8.0568 7.2511h-5.1037v8.1494h-4.9432V8.51331h9.7902zm-4.847 10.61989h4.4296c2.247 0 3.884-.7379 3.884-3.2405 0-2.4063-1.6692-3.2726-3.8518-3.2726h-4.4618v6.5131zm68.8201-6.3848h6.805V8.51331h-18.65v4.23509h6.838v18.4485h5.007V12.7484z" fill="#00446B"/>
  <path d="M142.306 13.8072V8.51331H165l-5.296 5.29389h-17.398z" fill="#AE0F0A"/>
</svg>
