<svg width="200" height="50" fill="none" xmlns="http://www.w3.org/2000/svg">
  <defs/>
  <path d="M165.866 29.4181h-5.079l2.54-6.7325 2.539 6.7325zm-9.386 0h-1.435v3.6421h16.784v-3.6421h-1.436l-4.085-9.8228-.111-.3311-.22-.3311-.332-.2207-.331-.3311-.331-.2208-.442-.2207-.552-.1104h-1.104l-.552.1104-.442.1104-.442.2207-.331.3311-.221.3311-.221.3311-.11.3311-4.086 9.8228zm-10.269 0v-7.7258h1.877l.332.1104.331.1103.221.1104.221.2207.22.2208.111.2207.11.2208.111.3311.11.3311V27.2107l-.11.3311-.111.3311-.11.3311-.111.2207-.11.2208-.221.2207-.221.1104-.22.1104-.332.1103-.331.1104h-1.767v.1104zm-4.306 0H140.138l-.331-.1104-.331-.1104-.221-.1103-.221-.1104-.221-.2207-.11-.2208-.111-.2207-.11-.3311-.111-.3311-.11-.3311v-3.4214l.11-.4415.111-.3311.11-.3311.111-.2207.11-.1104.221-.2208.221-.2207.331-.1104.331-.1103.332-.1104H142.126v7.7258h-.221zm0-15.7826v4.4147H138.151l-.332.1103-.331.1104-.331.1104-.331.1103-.332.2208-.331.2207-.331.2207-.332.2208-.331.3311-.331.3311-.221.3311-.221.3311-.11.3311-.111.3311-.11.3311-.11.3311-.111.3311-.11.3311-.111.3311V27.9833l.111.3311.11.3311.111.3311.11.3311.11.3311.111.3311.11.3311.221.3311.221.3311.331.3311.331.3311.332.3311.331.2208.331.2207.332.2207.331.1104.331.1104.331.1103.332.1104H141.905v4.4147h4.306v-4.4147H150.076l.331-.1104.332-.1103.331-.1104.331-.1104.331-.2207.332-.2207.331-.2208.331-.3311.331-.3311.332-.3311.22-.3311.221-.3311.111-.3311.11-.3311.111-.3311.11-.3311.11-.3311.111-.3311.11-.3311V23.0167l-.11-.3311-.111-.3311-.11-.3311-.11-.3311-.111-.3311-.11-.3311-.111-.3311-.221-.3311-.22-.3311-.332-.3311-.331-.3311-.331-.2208-.552-.2207-.332-.2207-.331-.2208-.331-.1103-.331-.1104h-.332l-.331-.1104H146.101v-4.4147h-4.196v-.1103zm-19.213 5.408l-.221-.3311-.331-.2208-.332-.2207-.331-.2207-.331-.1104-.332-.1104h-.772l-.332.1104-.331.1104-.331.1103-.332.2208-.552.3311-.22.3311-.221.3311-5.963 13.6856h4.527l3.975-10.1538 3.976 10.1538h4.527l-5.853-13.6856-.22-.3311zm-20.98 9.3812V27.1003l.11-.1103h5.079v2.5384h-4.969V28.9766l-.22-.5519zm-3.5338-10.3745v3.6421H106.128l.111.1104.11.1103.111.1104.11.1104v1.1037H100.607l-.441.1103-.4419.1104-.3313.2207-.4417.2208-.4417.3311-.4417.4414-.3312.4415-.1104.4415-.2209.5518-.1104.5519-.1104.5518v2.5385l.1104.3311.1104.3311.1104.3311.1105.3311.1104.3311.1104.3311.2208.2207.2209.2208.2208.2207.3313.3311.4417.2207.4417.1104.4419.1104.331.1103H109.22l.332-.1103.331-.1104.331-.2207.331-.2208.221-.3311.221-.3311.11-.3311.111-.3311v-8.719l-.111-.5519-.11-.5518-.11-.4415-.221-.4415-.221-.6622-.221-.3311-.221-.3311-.331-.3311-.331-.2207-.332-.2208-.441-.2207-.442-.1104-.442-.1103H98.1782zM91.0008 28.204l-.1104.1104-.1104.1103-.1105.1104-.1104.2208-.2208.1103-.2209.1104-.2208.1104-.3313.1103-.3312.1104h-3.2022v-7.7258H89.3445l.3312.1104.3313.1104.2209.1103.2208.2208.2208.2207.1105.2208.1104.2207v4.4147l-.1104.3311-.1105.3311.3313.3311zm-4.9689 4.8562H90.78l.3312-.1104.3313-.1103.3312-.1104.3313-.1104.3313-.1103.3312-.2208.3313-.2207.3313-.2207.3312-.3312.3313-.3311.3312-.3311.2209-.3311.2208-.3311.1105-.3311.1104-.3311.1104-.3311.1104-.3311.1104-.3311.1105-.3311V23.2375l-.1105-.3311v-.6623l-.1104-.3311-.1104-.3311-.2208-.4414-.2209-.3311-.2208-.3311-.1105-.4415-.3312-.3311-.3313-.3311-.3312-.2208-.2209-.2207-.3312-.2207-.3313-.1104-.3313-.1104-.3312-.1103-.2209-.1104-.3312-.1104-.3313-.1103H83.9339l-.2209.1103-.3312.1104-.3313.1104-.2209.2207-.2208.1104-.2208.2207-.2209.2207-.1104.2208-.1104.3311-.2209.3311v17.3277h4.3065v-4.3043zm-4.969-15.01h-4.5273l-4.1959 9.3812-3.8648-9.3812h-4.6377l6.4045 14.3478-2.4293 5.1873h4.5273l8.7232-19.5351zM60.8559 9H174.7c1.435 0 2.76.66221 3.754 1.5452.994.9933 1.546 2.3177 1.546 3.7525v22.4046c0 1.4348-.662 2.7592-1.546 3.7525C177.46 41.4482 176.135 42 174.7 42H60.8559c-1.4355 0-2.7606-.6622-3.7543-1.5452-.9938-.9933-1.5459-2.3177-1.5459-3.7525V14.408c0-1.4348.6625-2.7592 1.5459-3.7525C57.9849 9.66221 59.31 9 60.8559 9z" fill="#0073AE"/>
  <path d="M33.2339 22.1322c-1.5312 1.1035-2.7343 2.7589-2.7343 4.8556 0 1.7657.875 3.421 2.1874 4.6349.875.7725 1.4219.7725 1.4219-.1104v-8.9387c0-.4414-.4375-.6621-.875-.4414zm5.7967-5.4074c-.3281-.1103-.4375-.331-.4375-.5517v-3.09c0-.331-.3281-.5518-.7656-.331-1.3125.8828-2.1874 1.5449-3.4999 2.4278-.2187.1103-.3281.331-.3281.6621v.5518c0 .2207-.2187.4414-.4375.5517-.5468.2207-1.2031.4415-1.7499.6622-3.6093 1.7656-6.1248 5.297-6.1248 9.4905 0 3.752 2.078 7.5041 5.4686 9.6008.6562.4414 1.3124.5518 1.9686-.1103 1.75-1.6554 3.4999-3.3107 5.2498-4.966.2188-.2207.4375-.5518.4375-.9932v-7.8352c0-.6621.4375-.5517.7656-.331 1.6406 1.1035 2.7343 2.8692 2.7343 4.7452 0 1.545-.5468 2.8692-1.5312 3.9728-.3281.4414-.3281.4414-.4375.9932v4.1934c0 .6622.6563.6622.9844.4415 3.3905-1.8761 5.6873-5.6281 5.6873-9.7112 0-5.0764-3.6093-9.1595-7.9841-10.3734zM24.703 9h23.1866c2.6249 0 4.703 2.2071 4.703 4.7452v23.5056c0 2.6485-2.0781 4.7452-4.703 4.7452H24.703C22.0781 42.1064 20 39.8993 20 37.3611V13.7452C20 11.2071 22.0781 9 24.703 9z" fill="#AB0873"/>
</svg>
