<svg width="200" height="50" viewBox="0 0 200 50" fill="none" xmlns="http://www.w3.org/2000/svg">
<path fill-rule="evenodd" clip-rule="evenodd" d="M133.049 24.8508C133.299 24.3503 133.55 23.9331 133.8 23.5994C134.134 23.2656 134.384 23.0153 134.718 22.765C134.972 22.5747 135.225 22.4809 135.516 22.3735C135.607 22.3396 135.702 22.3044 135.802 22.2644C136.22 22.0976 136.637 22.0976 137.137 22.0976C138.722 22.0976 139.974 22.6816 140.975 23.9331C141.559 24.684 141.893 25.4349 142.06 26.2692C142.227 27.1035 142.31 27.9378 142.31 28.7722C142.31 29.3562 142.31 29.8568 142.227 30.3574C142.199 30.4964 142.18 30.6355 142.162 30.7745C142.125 31.0526 142.088 31.3307 141.976 31.6089C141.893 32.026 141.726 32.3597 141.559 32.61C141.392 32.9438 141.225 33.2775 140.975 33.5278C140.808 33.7781 140.641 33.9449 140.391 34.1952L140.391 34.1952C140.193 34.3933 139.995 34.5391 139.756 34.7154C139.692 34.7619 139.626 34.8105 139.557 34.8627C139.223 35.0296 138.889 35.1964 138.472 35.3633C138.055 35.4467 137.554 35.5302 137.054 35.5302C136.637 35.5302 136.136 35.4467 135.719 35.3633C135.218 35.2799 134.801 35.113 134.384 34.7793C133.967 34.529 133.55 34.1952 133.216 33.7781C132.882 33.3609 132.549 32.9438 132.298 32.2763C131.965 31.5254 131.714 30.6911 131.631 29.8568C131.547 29.0225 131.464 28.1047 131.464 27.1869C131.464 25.9355 131.547 24.8508 131.631 23.8497C131.714 22.8485 131.965 22.0142 132.215 21.1798C132.632 20.0118 133.216 19.094 133.967 18.4266C134.718 17.7591 135.552 17.2585 136.386 16.8414L140.892 14.839C140.926 14.839 140.961 14.8247 141.001 14.8079C141.059 14.7842 141.128 14.7556 141.225 14.7556C141.392 14.7556 141.476 14.839 141.643 15.0059L142.06 16.007C142.06 16.0488 142.081 16.0905 142.101 16.1322C142.122 16.1739 142.143 16.2156 142.143 16.2573C142.143 16.3408 141.976 16.5076 141.726 16.5911L136.637 18.9272C135.969 19.2609 135.469 19.5946 135.052 20.0118C134.634 20.4289 134.301 20.8461 134.05 21.2633C133.8 21.6804 133.633 22.0976 133.466 22.5982L133.216 23.8497L133.133 24.684H133.049V24.8508ZM136.72 23.8497C136.303 23.8497 135.969 23.9331 135.552 24.1C135.135 24.2668 134.801 24.5171 134.551 24.9343C134.283 25.2697 134.122 25.659 133.939 26.1023L133.939 26.1024C133.895 26.2104 133.849 26.3216 133.8 26.4361C133.633 27.1035 133.55 27.8544 133.55 28.8556V28.8557C133.55 29.4397 133.55 30.0237 133.633 30.6077C133.717 31.1917 133.883 31.7757 134.134 32.2763C134.384 32.7769 134.718 33.1941 135.052 33.5278C135.469 33.8615 135.969 34.0284 136.72 34.0284C137.137 34.0284 137.554 33.945 137.972 33.7781C138.389 33.6112 138.722 33.3609 139.056 32.9438C139.39 32.5266 139.64 32.026 139.807 31.3586C139.974 30.6911 140.057 29.8568 140.057 28.8556C140.057 27.6875 139.974 26.8532 139.724 26.1858C139.473 25.5183 139.223 25.0177 138.889 24.684C138.556 24.3503 138.138 24.1 137.805 24.0165C137.304 23.8497 136.97 23.8497 136.72 23.8497ZM70.2255 16.8414C72.3113 16.8414 73.7297 17.2585 74.6474 18.0929C75.5651 18.9272 75.9823 20.0952 75.9823 21.597C75.9823 22.181 75.8989 22.6816 75.732 23.1822C75.5651 23.5994 75.3148 24.0165 75.0646 24.3503C74.8143 24.684 74.4805 24.9343 74.1468 25.1846C73.8131 25.4349 73.4794 25.6017 73.1457 25.7686L73.1456 25.7686C73.477 25.8349 73.8084 26.0065 74.1816 26.1997L74.1817 26.1997C74.2783 26.2497 74.3776 26.3012 74.4805 26.3526C74.8977 26.6029 75.3148 26.9367 75.6486 27.3538C75.8989 27.6876 76.1492 28.1047 76.316 28.6053C76.4829 29.1059 76.5663 29.7734 76.5663 30.5242C76.5663 31.6089 76.3994 32.4432 75.9823 33.1106C75.6486 33.6947 75.2314 34.1953 74.8143 34.529C74.0634 35.0296 73.3125 35.3633 72.4782 35.5302C71.6439 35.697 70.893 35.697 70.1421 35.697H63.4676C63.2173 35.697 63.0505 35.697 63.0505 35.6136C62.967 35.5302 62.967 35.3633 62.967 35.1964V33.6947C62.967 33.3609 63.0505 33.1941 63.1339 33.1106H63.4676H64.886V19.5112H63.4676H63.1339C62.967 19.5112 62.967 19.3443 62.967 18.9272V17.4254C62.967 17.0917 63.0505 16.9248 63.1339 16.8414H63.4676H70.2255ZM69.725 24.6006C69.9753 24.6006 70.3924 24.5171 70.8096 24.4337C71.2267 24.3503 71.5604 24.1 71.8942 23.6828C72.1445 23.4325 72.3113 23.1822 72.3113 22.8485C72.3948 22.5982 72.3948 22.2645 72.3948 21.9307V21.9307V21.9307C72.3948 21.597 72.3948 21.2633 72.3113 21.013C72.2279 20.7627 72.061 20.429 71.8107 20.2621C71.477 19.9284 71.1433 19.7615 70.8096 19.7615C70.4758 19.6781 70.1421 19.6781 69.8084 19.6781H68.6404V24.5171H69.725V24.6006ZM69.8918 32.6935H70.4758C70.5593 32.6935 70.6636 32.6726 70.7678 32.6518C70.8721 32.6309 70.9764 32.61 71.0599 32.61C71.185 32.5683 71.2893 32.5266 71.3936 32.4849L71.3936 32.4849C71.4979 32.4432 71.6022 32.4015 71.7273 32.3598C71.9776 32.2763 72.1445 32.1095 72.3113 31.8592C72.4782 31.6923 72.6451 31.442 72.7285 31.1083C72.8119 30.7745 72.8953 30.4408 72.8953 30.0236C72.8953 29.4396 72.8119 28.939 72.5616 28.6053C72.3113 28.2716 72.1445 28.1047 71.8942 27.9378C71.6439 27.771 71.3102 27.6041 70.893 27.5207C70.4758 27.4373 70.1421 27.4373 69.8084 27.4373H68.4735V32.6935H69.8918ZM80.9047 29.7735C80.9047 30.7746 81.155 31.609 81.5721 32.2764C81.9893 32.9439 82.8236 33.1942 83.9082 33.1942C84.5757 33.1942 85.0762 33.1107 85.5768 32.9439C85.7343 32.8809 85.8917 32.8298 86.0402 32.7816L86.0402 32.7816L86.0403 32.7816L86.0403 32.7816C86.2852 32.7021 86.5056 32.6306 86.6614 32.5267C86.7032 32.5267 86.724 32.5059 86.7449 32.485C86.7657 32.4641 86.7866 32.4433 86.8283 32.4433C86.9117 32.4433 86.9117 32.4433 86.9952 32.3599C87.1203 32.3181 87.2037 32.2764 87.2663 32.2451C87.3289 32.2138 87.3706 32.193 87.4123 32.193C87.5792 32.193 87.6626 32.2764 87.746 32.4433L88.4135 34.0285C88.4135 34.0285 88.4135 34.1119 88.4969 34.1954V34.3622C88.4969 34.5291 88.3301 34.696 88.0798 34.9462C87.5792 35.28 86.9117 35.5303 86.0774 35.6971L85.85 35.7429C85.1054 35.8932 84.4234 36.0309 83.7414 36.0309C82.8236 36.0309 82.0727 35.9474 81.3218 35.6971C80.571 35.4468 79.9035 35.0297 79.4029 34.4457C78.9023 33.9451 78.4852 33.2776 78.1515 32.4433C77.8177 31.609 77.6509 30.5243 77.6509 29.1894C77.6509 28.0214 77.8177 26.9368 78.068 26.019C78.3183 25.1013 78.8189 24.2669 79.4029 23.516C79.8201 23.0155 80.4041 22.5983 80.9881 22.1811L80.9881 22.1811C81.6556 21.8474 82.4899 21.5971 83.4911 21.5971C83.9916 21.5971 84.5757 21.6805 85.2431 21.8474C85.9106 22.0143 86.4946 22.348 86.9952 22.8486C87.4958 23.3492 87.9963 24.1001 88.3301 25.0178C88.6638 26.019 88.9141 27.2705 88.9141 28.8557V28.8557C88.9141 29.1894 88.9141 29.4397 88.8306 29.5232C88.7472 29.6066 88.5804 29.69 88.3301 29.69H80.9047V29.7735ZM85.1597 27.1036V26.9368V26.3527C85.1597 26.2777 85.1428 26.2027 85.1243 26.1202C85.1015 26.019 85.0762 25.9065 85.0762 25.7687C85.0345 25.6853 85.0137 25.581 84.9928 25.4767C84.972 25.3724 84.9511 25.2681 84.9094 25.1847C84.826 24.9344 84.6591 24.7675 84.4922 24.6007C84.1585 24.2669 83.7413 24.1001 83.1573 24.1001C82.907 24.1001 82.5733 24.1835 82.323 24.2669C82.0727 24.3504 81.8224 24.6007 81.5721 24.851C81.3219 25.1847 81.155 25.5184 81.0716 25.8521C80.9881 26.2693 80.9047 26.6865 80.9047 27.1036H85.1597ZM89.8318 24.6007H90.9999V33.0273H89.665C89.4981 33.0273 89.3312 33.1108 89.3312 33.1942C89.2478 33.2776 89.2478 33.3611 89.2478 33.4445V35.1966C89.2478 35.3634 89.3312 35.5303 89.4147 35.5303H89.665H95.5051C95.672 35.5303 95.8389 35.5303 95.8389 35.4469V35.1966V33.4445V33.1942C95.8389 33.1108 95.7554 33.0273 95.5051 33.0273H94.4205V30.0238H98.3418V35.1966C98.3418 35.3634 98.4252 35.5303 98.5087 35.5303H98.7589H103.181C103.348 35.5303 103.515 35.5303 103.515 35.4469V35.1966V33.4445V33.1942C103.515 33.1108 103.431 33.0273 103.181 33.0273H101.762V24.6007H103.181C103.348 24.6007 103.515 24.6007 103.515 24.5173V24.267V22.5983V22.348C103.515 22.2646 103.431 22.2646 103.181 22.2646H97.3406C97.1738 22.2646 97.0069 22.2646 97.0069 22.348V22.5983V24.3504C97.0069 24.5173 97.0903 24.6841 97.1738 24.6841H97.4241H98.5087V27.3539H94.5874V22.5149V22.2646C94.5874 22.1812 94.504 22.1812 94.2537 22.1812H89.8318C89.665 22.1812 89.4981 22.1812 89.4981 22.2646C89.4147 22.348 89.4147 22.4314 89.4147 22.5149V24.267C89.4147 24.4338 89.4981 24.6007 89.5815 24.6007H89.8318ZM107.436 29.7735C107.436 30.7746 107.686 31.609 108.103 32.2764C108.52 32.9439 109.271 33.1942 110.439 33.1942C111.107 33.1942 111.607 33.1107 112.108 32.9439C112.265 32.8809 112.423 32.8298 112.571 32.7816L112.571 32.7816C112.816 32.7021 113.037 32.6306 113.193 32.5267C113.234 32.5267 113.255 32.5059 113.276 32.485C113.297 32.4641 113.318 32.4433 113.359 32.4433C113.359 32.4433 113.443 32.4433 113.526 32.3599C113.651 32.3181 113.735 32.2764 113.797 32.2451C113.86 32.2138 113.902 32.193 113.943 32.193C114.11 32.193 114.194 32.2764 114.277 32.4433L114.945 34.0285C114.945 34.0285 114.945 34.1119 115.028 34.1954V34.3622C115.028 34.5291 114.861 34.696 114.611 34.9462C114.11 35.28 113.443 35.5303 112.609 35.6971L112.381 35.7429C111.637 35.8932 110.955 36.0309 110.272 36.0309C109.438 36.0309 108.604 35.9474 107.853 35.6971C107.102 35.4468 106.435 35.0297 105.934 34.4457C105.433 33.9451 105.016 33.2776 104.683 32.4433C104.349 31.609 104.182 30.5243 104.182 29.1894C104.182 28.0214 104.349 26.9368 104.599 26.019C104.849 25.1013 105.35 24.2669 105.934 23.516C106.351 23.0155 106.935 22.5983 107.519 22.1811C108.187 21.8474 109.021 21.5971 110.022 21.5971C110.523 21.5971 111.107 21.6805 111.774 21.8474C112.442 22.0143 113.026 22.348 113.526 22.8486C114.027 23.3492 114.527 24.1001 114.861 25.0178C115.195 26.019 115.445 27.2705 115.445 28.8557C115.445 29.1894 115.445 29.4397 115.362 29.5232C115.278 29.6066 115.111 29.69 114.861 29.69H107.436V29.7735ZM111.691 27.1036V26.9368V26.3527C111.691 26.2777 111.674 26.2027 111.655 26.1202C111.633 26.019 111.607 25.9065 111.607 25.7687C111.607 25.6018 111.524 25.3516 111.441 25.1847C111.357 24.9344 111.19 24.7675 111.023 24.6007C110.69 24.2669 110.189 24.1001 109.688 24.1001C109.438 24.1001 109.104 24.1835 108.854 24.2669C108.604 24.3504 108.354 24.6007 108.103 24.851C107.853 25.1847 107.686 25.5184 107.603 25.8521C107.519 26.2693 107.436 26.6865 107.436 27.1036H111.691ZM116.363 24.6007H117.448V33.0273H116.113C115.946 33.0273 115.779 33.1108 115.779 33.1942V33.4445V35.3634C115.779 35.5303 115.862 35.6972 115.946 35.6972H116.196H126.458V39.3682C126.458 39.4659 126.487 39.535 126.51 39.5923C126.527 39.6328 126.542 39.6673 126.542 39.7019C126.542 39.7853 126.708 39.7853 126.875 39.7853H129.295C129.393 39.7853 129.462 39.7567 129.519 39.733C129.559 39.7162 129.594 39.7019 129.628 39.7019C129.712 39.6185 129.712 39.535 129.712 39.3682V33.5279C129.712 33.3611 129.712 33.1942 129.628 33.1942C129.545 33.1108 129.462 33.1108 129.295 33.1108H127.876V22.5149V22.2646C127.876 22.1812 127.793 22.1812 127.543 22.1812H123.455C123.288 22.1812 123.121 22.1812 123.121 22.2646C123.037 22.348 123.037 22.4314 123.037 22.5149V24.267C123.037 24.4338 123.121 24.6007 123.204 24.6007H123.455H124.539V32.8605H121.035V22.5149V22.2646C121.035 22.1812 120.952 22.1812 120.701 22.1812H116.28C116.113 22.1812 115.946 22.1812 115.946 22.2646V22.5149V24.267C115.946 24.4338 116.029 24.6007 116.113 24.6007H116.363ZM145.399 22.0995C145.111 22.1764 144.848 22.2469 144.646 22.3479L144.146 22.5982C144.094 22.5982 144.042 22.6301 143.971 22.6741C143.927 22.7014 143.876 22.7332 143.812 22.7651C143.645 22.7651 143.561 22.8485 143.561 23.0154V23.2657L143.979 24.3503C144.062 24.4337 144.146 24.5172 144.229 24.5172C144.271 24.5172 144.292 24.4963 144.312 24.4755C144.333 24.4546 144.354 24.4337 144.396 24.4337C144.438 24.4337 144.479 24.4129 144.521 24.392C144.563 24.3712 144.604 24.3503 144.646 24.3503C144.813 24.2947 144.98 24.2298 145.147 24.1649C145.48 24.0351 145.814 23.9053 146.148 23.8497C146.648 23.7663 147.149 23.6829 147.65 23.6829C148.15 23.6829 148.567 23.7663 148.901 23.9332C149.151 24.1 149.402 24.2669 149.569 24.5172C149.703 24.7193 149.784 24.9757 149.853 25.1988L149.854 25.1998C149.87 25.2527 149.886 25.3036 149.902 25.3515C149.986 25.6018 149.986 25.8521 149.986 26.1858V27.187H149.402C149.151 27.2287 148.88 27.2496 148.609 27.2704C148.338 27.2913 148.067 27.3122 147.816 27.3539C147.316 27.4373 146.815 27.5207 146.315 27.6876C145.814 27.8545 145.397 28.0213 144.98 28.2716C144.563 28.4385 144.229 28.7722 143.895 29.1059C143.561 29.4397 143.311 29.8568 143.144 30.3574C142.977 30.7746 142.894 31.3586 142.894 31.9426C142.894 33.1941 143.228 34.1119 143.895 34.7793C144.563 35.4468 145.397 35.7805 146.398 35.7805C146.982 35.7805 147.566 35.6136 148.234 35.3634C148.818 35.1131 149.485 34.6959 150.153 34.0284L150.236 33.945L150.319 34.1953C150.403 34.529 150.486 34.7793 150.653 35.0296C150.737 35.2799 150.987 35.3634 151.237 35.3634H153.573C153.615 35.3634 153.657 35.3425 153.698 35.3216C153.74 35.3008 153.782 35.2799 153.824 35.2799C153.907 35.2799 153.907 35.1965 153.907 35.0296V34.0284C153.907 33.9867 153.886 33.945 153.865 33.9033C153.844 33.8616 153.824 33.8199 153.824 33.7781C153.824 33.6947 153.74 33.6947 153.573 33.6947H152.322C152.155 33.2775 152.071 32.8604 152.071 32.4432V30.9415V25.6852C152.071 25.5064 152.048 25.3516 152.025 25.2079V25.2078V25.2077C152.006 25.0832 151.988 24.9671 151.988 24.8509C151.988 24.6006 151.905 24.2669 151.821 24.0166C151.738 23.6829 151.571 23.4326 151.404 23.1823C151.237 22.932 150.987 22.6817 150.737 22.4314C150.236 22.0976 149.735 21.9308 149.151 21.8473C148.567 21.7639 148.067 21.7639 147.733 21.7639C147.149 21.7639 146.565 21.7639 145.981 21.9308C145.784 21.9966 145.586 22.0494 145.399 22.0995ZM149.902 28.6888H149.986H150.069V32.2764L149.902 32.4432C149.847 32.5545 149.717 32.6657 149.587 32.777C149.522 32.8326 149.457 32.8882 149.402 32.9438C149.235 33.1107 148.985 33.2775 148.734 33.4444L148.734 33.4444C148.484 33.6113 148.234 33.7781 147.9 33.8616C147.566 33.945 147.232 34.0284 146.982 34.0284C146.815 34.0284 146.565 33.945 146.315 33.8616C146.064 33.7781 145.814 33.6113 145.647 33.4444C145.397 33.1941 145.23 33.0273 145.147 32.6935C145.063 32.4432 144.98 32.0261 144.98 31.6089C144.98 31.1083 145.063 30.6912 145.23 30.3574C145.397 30.0237 145.731 29.69 146.148 29.4397C146.398 29.2728 146.732 29.1059 147.066 29.0225C147.399 28.8556 147.733 28.7722 148.067 28.7722C148.234 28.7722 148.4 28.7514 148.567 28.7305C148.734 28.7096 148.901 28.6888 149.068 28.6888H149.902ZM158.746 33.5279H160.164C160.331 33.5279 160.415 33.5279 160.415 33.6114C160.415 33.6531 160.435 33.6948 160.456 33.7365C160.477 33.7782 160.498 33.8199 160.498 33.8617V34.8628C160.498 35.0297 160.498 35.1131 160.415 35.1131C160.373 35.1131 160.331 35.134 160.289 35.1549C160.248 35.1757 160.206 35.1966 160.164 35.1966H155.158C155.075 35.1966 154.992 35.1966 154.908 35.1131C154.825 35.1131 154.825 34.9463 154.825 34.8628V33.8617C154.825 33.6948 154.825 33.6114 154.908 33.6114C154.95 33.6114 154.992 33.5905 155.033 33.5696C155.075 33.5488 155.117 33.5279 155.158 33.5279H156.66V23.8498H155.158C155.075 23.8498 154.992 23.8498 154.908 23.7664C154.825 23.7664 154.825 23.5995 154.825 23.5161V22.5149C154.825 22.348 154.825 22.2646 154.908 22.2646C154.95 22.2646 154.992 22.2437 155.033 22.2229C155.075 22.202 155.117 22.1812 155.158 22.1812H158.412C158.496 22.1812 158.579 22.1812 158.663 22.2646C158.746 22.2646 158.746 22.4314 158.746 22.5149V27.6877H163.919V23.8498H162.417C162.333 23.8498 162.25 23.8498 162.167 23.7664C162.083 23.7664 162.083 23.5995 162.083 23.5161V22.5149C162.083 22.348 162.083 22.2646 162.167 22.2646C162.208 22.2646 162.25 22.2437 162.292 22.2229C162.333 22.202 162.375 22.1812 162.417 22.1812H167.506C167.673 22.1812 167.757 22.1812 167.757 22.2646C167.757 22.3063 167.777 22.348 167.798 22.3897C167.819 22.4314 167.84 22.4732 167.84 22.5149V23.5161C167.84 23.6829 167.84 23.7664 167.757 23.7664C167.715 23.7664 167.673 23.7872 167.631 23.8081C167.59 23.8289 167.548 23.8498 167.506 23.8498H166.004V33.6114H167.506C167.673 33.6114 167.757 33.6114 167.757 33.6948C167.757 33.7365 167.777 33.7782 167.798 33.8199C167.819 33.8617 167.84 33.9034 167.84 33.9451V34.9463C167.84 35.1131 167.84 35.1966 167.757 35.1966C167.715 35.1966 167.673 35.2174 167.631 35.2383C167.59 35.2591 167.548 35.28 167.506 35.28H164.252C164.169 35.28 164.086 35.28 164.002 35.1966C163.919 35.1966 163.919 35.0297 163.919 34.9463V29.3563H158.746V33.5279ZM172.345 35.1965C172.429 35.1131 172.429 35.0296 172.429 34.9462H172.178V29.3562H173.513C173.93 29.3562 174.264 29.4397 174.514 29.6065C174.765 29.7734 175.015 30.1071 175.182 30.7746L175.766 32.6935C175.933 33.2775 176.1 33.6946 176.266 34.1117L176.266 34.1119C176.433 34.529 176.6 34.7793 176.85 35.0296C177.101 35.2799 177.434 35.4468 177.768 35.5302C178.185 35.6137 178.603 35.6971 179.187 35.6971H179.437C179.52 35.6971 179.604 35.6137 179.604 35.5302L179.937 34.2787C180.021 34.1119 180.021 33.945 179.937 33.945C179.937 33.8616 179.854 33.8616 179.687 33.8616L179.353 33.7781C179.071 33.7781 178.849 33.6589 178.686 33.5716C178.656 33.5557 178.628 33.5408 178.603 33.5279C178.436 33.4444 178.269 33.1941 178.185 32.777L177.351 30.1906C177.351 30.1071 177.268 29.9403 177.184 29.7735L177.184 29.7734C177.101 29.6065 177.017 29.4397 176.85 29.2728C176.767 29.1894 176.684 29.1268 176.6 29.0642C176.517 29.0017 176.433 28.9391 176.35 28.8557C176.183 28.6888 175.933 28.6054 175.599 28.5219C175.849 28.4385 176.1 28.2716 176.35 28.1048C176.433 28.0213 176.517 27.917 176.6 27.8127C176.684 27.7085 176.767 27.6042 176.85 27.5207C177.017 27.3539 177.101 27.187 177.184 26.9367C177.184 26.7698 177.268 26.5196 177.351 26.3527L177.601 25.2681C177.685 24.8509 177.768 24.6006 177.852 24.4337C177.949 24.336 178.018 24.2383 178.076 24.1573C178.116 24.1 178.151 24.0511 178.185 24.0166C178.269 23.9332 178.436 23.8497 178.519 23.8497C178.554 23.8497 178.588 23.8354 178.629 23.8186C178.686 23.7949 178.755 23.7663 178.853 23.7663L179.187 23.6829C179.228 23.6829 179.27 23.662 179.312 23.6411C179.353 23.6203 179.395 23.5994 179.437 23.5994C179.52 23.5994 179.52 23.516 179.52 23.3491L179.187 22.0976C179.155 22.0658 179.135 22.0339 179.118 22.0067C179.091 21.9627 179.071 21.9308 179.02 21.9308C179.02 21.8474 178.936 21.8474 178.853 21.8474C178.269 21.8474 177.768 21.9308 177.434 22.0976C177.017 22.3479 176.767 22.5982 176.517 22.8485C176.494 22.8829 176.469 22.9189 176.444 22.9563C176.284 23.1906 176.088 23.4784 176.016 23.7663C175.849 24.1 175.766 24.4337 175.682 24.7675L175.349 26.1858C175.182 26.6864 175.015 27.0201 174.765 27.2704C174.514 27.5207 174.181 27.6042 173.68 27.6042H172.429V22.5148C172.429 22.4731 172.408 22.4314 172.387 22.3897C172.366 22.3479 172.345 22.3062 172.345 22.2645C172.345 22.1811 172.262 22.1811 172.095 22.1811H168.841C168.799 22.1811 168.758 22.2019 168.716 22.2228C168.674 22.2437 168.632 22.2645 168.591 22.2645C168.507 22.2645 168.507 22.3479 168.507 22.5148V23.516C168.507 23.5994 168.507 23.7663 168.591 23.7663C168.674 23.8497 168.758 23.8497 168.841 23.8497H170.343V34.9462C170.343 35.0296 170.343 35.1965 170.426 35.1965C170.51 35.2799 170.593 35.2799 170.677 35.2799H172.095C172.262 35.2799 172.345 35.2799 172.345 35.1965Z" fill="#55565A"/>
<path fill-rule="evenodd" clip-rule="evenodd" d="M43.027 33.8616C43.027 33.8616 44.0282 36.5314 44.9459 36.6983H33.349C31.0129 36.6983 28.9271 35.3634 28.2597 32.8604L21.5018 12.8367C21.5018 12.8367 20.9177 10.4172 20 10H31.8472C34.1833 10.0834 35.7685 10.9178 36.6862 14.0047L43.027 33.8616Z" fill="url(#paint0_linear)"/>
<path fill-rule="evenodd" clip-rule="evenodd" d="M35.6017 33.8616C35.6017 33.8616 34.6005 36.5314 33.6827 36.6983H45.2797C47.6157 36.6983 49.7015 35.3634 50.369 32.8604L57.0435 12.8367C57.0435 12.8367 57.6275 10.4172 58.5452 10H46.7814C44.4454 10 42.9436 10.8343 42.0259 13.9213L35.6017 33.8616Z" fill="#EF5145"/>
<defs>
<linearGradient id="paint0_linear" x1="32.4629" y1="7.72998" x2="32.4629" y2="39.0518" gradientUnits="userSpaceOnUse">
<stop stop-color="#F2746A"/>
<stop offset="0.33" stop-color="#F2746A"/>
<stop offset="0.76" stop-color="#C74A40"/>
<stop offset="1" stop-color="#C2453B"/>
</linearGradient>
</defs>
</svg>
