<svg width="200" height="50" viewBox="0 0 200 50" fill="none" xmlns="http://www.w3.org/2000/svg">
<path fill-rule="evenodd" clip-rule="evenodd" d="M5.68039 20.5892V20.6288C5.70018 20.6882 5.71008 20.7377 5.71997 20.7872C5.72987 20.8366 5.73976 20.8861 5.75955 20.9455L5.79914 21.0246C5.83872 21.1434 5.8783 21.2621 5.91788 21.3413L5.95746 21.3809C6.07621 21.658 6.23454 21.935 6.43244 22.2121L6.47203 22.2913C6.51161 22.3308 6.55119 22.3704 6.59077 22.4496V22.4892C6.63035 22.5485 6.67983 22.598 6.72931 22.6475C6.77878 22.697 6.82826 22.7465 6.86784 22.8058L10.2719 19.4018L10.3115 12L7.1845 15.0874L6.94701 15.3645C6.07621 16.2353 5.60123 18.056 5.56165 19.3226V19.3622V19.5205V19.5997V19.6789V19.8372C5.56165 19.9559 5.56165 20.0351 5.60123 20.1538V20.233V20.2726C5.60123 20.332 5.61112 20.3814 5.62102 20.4309C5.63091 20.4804 5.64081 20.5299 5.64081 20.5892C5.68039 20.5497 5.68039 20.5892 5.68039 20.5892ZM27.8066 20.0747V20.1935C27.8066 20.2331 27.8066 20.2331 27.7274 20.3122C27.7274 20.332 27.7175 20.3617 27.7076 20.3914L27.7076 20.3914C27.6977 20.4211 27.6878 20.4508 27.6878 20.4706V20.5101C27.6878 20.5497 27.6779 20.5794 27.668 20.6091C27.6581 20.6388 27.6482 20.6685 27.6482 20.7081C27.6482 20.7278 27.6383 20.7575 27.6284 20.7872L27.6284 20.7872C27.6185 20.8169 27.6086 20.8466 27.6086 20.8664C27.5889 20.906 27.579 20.9455 27.5691 20.9851C27.5592 21.0247 27.5493 21.0643 27.5295 21.1039C27.5295 21.1237 27.5196 21.1435 27.5097 21.1632C27.4998 21.183 27.4899 21.2028 27.4899 21.2226C27.4701 21.2622 27.4503 21.3117 27.4305 21.3611L27.4305 21.3612L27.4305 21.3612L27.4305 21.3613L27.4305 21.3613L27.4305 21.3613L27.4304 21.3614C27.4107 21.4108 27.3909 21.4602 27.3712 21.4997L27.3316 21.5789C27.1733 21.8955 26.9753 22.2517 26.7379 22.5288L26.6983 22.5684C26.6191 22.6871 26.5004 22.8059 26.4212 22.885L26.4212 22.8851C25.4712 22.0934 24.2442 21.658 22.9776 21.658C21.5526 21.658 20.1673 22.2122 19.1382 23.2413L14.1904 28.189L14.23 20.7872L19.2569 15.7208C20.2069 14.7708 21.4339 14.2562 22.7797 14.1771H23.0172C24.3234 14.1771 25.5108 14.6916 26.4212 15.602C27.4899 16.6707 27.9253 18.6102 27.8066 19.956V19.9956V20.0747ZM6.47198 23.3204C5.7595 22.6079 5.24494 21.6976 5.04703 20.708L5.00745 26.8432C4.92829 28.3473 5.48243 29.8118 6.55114 30.8409L13.6363 37.9261V35.7095L13.6759 35.6699L16.2883 33.0575C15.9007 32.6894 13.5497 30.3482 11.2457 28.054C8.84333 25.6617 6.49218 23.3204 6.47198 23.3204ZM28.3211 20.8267C28.0836 21.7371 27.6086 22.6079 26.9357 23.2808L26.8961 23.3204L14.2696 35.947L14.23 43.3487L26.7774 30.8409C27.8857 29.7326 28.4398 28.1889 28.3211 26.6452V20.8267ZM45.4205 22.6475C45.4205 20.9455 44.1934 19.7581 41.6998 19.7581H36.475V31.1972H42.3331C44.4705 31.1972 45.935 29.8514 45.935 27.8327C45.935 26.3682 45.1038 25.3787 43.7976 25.062C44.7476 24.6662 45.4205 23.7558 45.4205 22.6475ZM41.1456 24.5475H38.4145V21.3809H41.2248C42.3727 21.3809 43.4018 21.5392 43.4018 22.9642C43.4018 24.1121 42.6497 24.5475 41.1456 24.5475ZM41.4227 29.5743H38.4541V26.012H41.4227C42.7289 26.012 43.9164 26.2099 43.9164 27.7932C43.9164 29.2577 42.7685 29.5743 41.4227 29.5743ZM54.6826 31.1575V21.4996H51.1598L50.9223 26.9223C50.8035 30.1284 49.4973 31.395 47.8349 31.395C47.3995 31.395 46.9245 31.2763 46.6475 31.1971V29.6534C46.885 29.7326 47.2808 29.7722 47.4391 29.7722C48.2703 29.7722 48.9036 29.2972 48.9828 26.3681L49.2203 19.7184H56.7012V31.1575H54.6826ZM66.8737 31.1972H69.0112L64.6176 19.7581H62.4802L58.047 31.1972H60.1052L61.2135 28.1494H65.7654L66.8737 31.1972ZM61.7281 26.6453L63.5093 21.8163L65.2113 26.6453H61.7281ZM79.3421 34.0074V31.1971H71.9007V34.047H69.9216V29.4555H71.0299C71.9007 27.9118 72.534 24.6661 72.534 21.4996V19.7184H79.9754V29.4159H81.242V34.0074H79.3421ZM77.9567 21.4996H74.4735V22.1725C74.4735 25.0223 73.8798 28.0306 73.1673 29.4555H77.9567V21.4996ZM82.9836 31.1972H88.4063C90.9 31.1972 92.3249 29.9306 92.3249 27.6744C92.3249 25.4183 90.9 24.1516 88.4063 24.1516H85.0023V21.4997H91.4146V19.7581H82.9836V31.1972ZM84.9627 25.7745H88.2876C89.5542 25.7745 90.3063 26.487 90.2667 27.714C90.2667 28.941 89.5938 29.5743 88.2876 29.5743H84.9627V25.7745ZM94.2644 19.7581H96.2435V28.5452L101.191 19.7581H103.487V31.1972H101.508V22.41L96.5602 31.1972H94.2644V19.7581ZM105.506 27.3973C105.506 30.168 107.603 31.4347 110.335 31.4347C113.541 31.4347 114.689 29.2972 114.728 27.8723C114.728 26.4078 113.818 25.2995 112.551 25.062V25.0224C113.422 24.7849 114.372 23.7558 114.372 22.5683C114.372 20.4309 112.512 19.481 110.255 19.481C107.92 19.481 106.06 20.5101 105.981 23.0829H107.881C107.999 21.658 108.949 21.0642 110.374 21.0642C111.641 21.0642 112.393 21.658 112.393 22.6871C112.393 23.7558 111.601 24.4683 110.572 24.4683H109.187V26.012H110.572C111.878 26.012 112.71 26.6057 112.71 27.8327C112.71 29.1389 111.918 29.8514 110.453 29.8514C108.83 29.8514 107.485 29.1785 107.485 27.3973H105.506ZM126.167 31.1972H124.149V26.0516H118.924V31.1972H116.905V19.7581H118.924V24.31H124.149V19.7581H126.167V31.1972ZM130.838 21.4601H137.092V19.7581H128.859V31.1972H137.171V29.4952H130.838V26.0911H136.617V24.4683H130.838V21.4601ZM144.137 31.4743C140.892 31.4743 138.794 29.0994 138.794 25.4974C138.794 22.2517 140.773 19.5206 144.256 19.5206C146.552 19.5206 148.65 20.7872 149.046 23.4392H147.067C146.789 22.0538 145.721 21.2226 144.256 21.2226C141.842 21.2226 140.852 23.3996 140.852 25.4974C140.852 27.6348 141.802 29.7722 144.217 29.7722C146.077 29.7722 146.948 28.5452 147.146 26.8432H149.164C148.887 29.6139 146.987 31.4743 144.137 31.4743ZM160.366 20.3518V19.7581H152.489V31.1972H157.358C158.664 31.1972 161.078 30.5639 161.078 27.9911C161.078 25.9724 159.733 24.8245 157.437 24.8245H153.202V20.3518H160.366ZM153.241 30.6035V25.4578H157.595C159.693 25.4578 160.445 26.8432 160.445 28.0306C160.445 29.2973 159.653 30.6035 157.199 30.6035H153.241ZM171.686 31.1972H170.934L169.509 27.5161H164.007L162.543 31.1972H161.751L166.382 19.7581H167.134L171.686 31.1972ZM166.956 21.0252L166.956 21.0247C166.887 20.8169 166.818 20.6091 166.739 20.4309C166.659 20.6289 166.59 20.8169 166.521 21.0049C166.452 21.1929 166.382 21.3809 166.303 21.5788L164.166 26.9224H169.272L167.174 21.6184C167.095 21.4404 167.026 21.2328 166.956 21.0252ZM181.503 31.1972H182.215V19.7581H181.503V24.9037H174.18V19.7581H173.507V31.1972H174.18V25.537H181.503V31.1972ZM188.746 24.5079L194.327 31.1972H193.456L188.232 24.9829L185.857 27.1598V31.1972H185.184V19.7581H185.857V26.3286L193.1 19.7581H194.01L188.746 24.5079ZM195 33.0971H82.9836V32.8201H194.683L195 33.0971Z" fill="#9D235A"/>
</svg>
