<svg width="200" height="50" fill="none" xmlns="http://www.w3.org/2000/svg">
  <defs/>
  <path d="M24.9624 6.23924c0 1.10401.0901 1.35185.5633 1.73487.4506.33796.5632.63086.5632 1.41943 0 .78856-.0676.96886-.3379.87866-.2704-.1126-.338.0902-.338 1.104 0 1.2167.0225 1.2392 1.2167 2.2756.6759.5633 1.3293 1.0365 1.4645 1.0365.3154 0 .3379-2.3883.0225-2.5911-.2929-.1802-.2929-1.9151-.0225-1.9151.1352 0 .2929.1127.3605.2253.2929.4957.5632-.0676.5632-1.1941l-.0225-1.1716-1.6673-1.41944c-2.2981-1.93764-2.3657-1.96017-2.3657-.38302zM32.195 6.59969L30.37 8.17684v3.46976c0 1.9151.0901 3.5148.1802 3.5824.1127.0675 1.0139-.5633 2.0278-1.397l1.8475-1.5095v-1.1941c0-.8787-.0901-1.17163-.3154-1.17163-.1803 0-.383.09013-.4732.22533-.0675.1126-.428.4281-.7885.6759l-.676.4731v-.9688c.0226-.87868.1127-1.03639 1.1266-1.8475 1.1265-.8787 1.1265-.90123 1.1265-2.20801 0-.72098-.0901-1.30678-.2028-1.30678-.0901 0-1.0138.72098-2.0277 1.59968zM20.1634 10.7903c-.2929.2704-.1577 6.2411.1352 6.7367.1577.2704 1.87 1.825 3.8302 3.4472 1.9376 1.6448 3.5373 3.0642 3.5373 3.1318 0 .1802-1.487 1.3969-1.6898 1.3969-.0676 0-1.2842-.9688-2.7037-2.1629-1.6447-1.3744-2.7262-2.1179-2.929-2.0278-.2703.0901-.3379.6309-.3379 2.7713v2.6361l1.104 1.0364 1.0815 1.0589-1.0365.9013-1.0364.9012-.0676 3.5148c-.0676 2.2756 0 3.6499.1578 3.9654.383.6984 7.9758 7.0296 8.3589 6.9394.4731-.0676.6083-5.9706.1802-6.7817-.1577-.2929-1.8926-1.8701-3.8302-3.5148-1.9602-1.6447-3.5599-3.0642-3.5599-3.1543 0-.0901.4506-.5407 1.0139-1.0139l1.0139-.8336 2.3882 2.0052c1.3068 1.0815 2.546 1.9827 2.7488 1.9827.338 0 .383-.3154.383-2.7713v-2.7938l-.8787-.7885-.8787-.8111.721-.5858c.383-.3155.8111-.9463.9238-1.3744.3379-1.1491.2703-6.3086-.0676-6.9845-.2929-.5858-7.7731-6.9846-8.1787-6.9846-.1352 0-.3154.0676-.383.1577zM34.6959 13.9222c-2.1404 1.8024-3.9879 3.5373-4.1231 3.8527-.1127.2929-.2028 1.8701-.2028 3.4923 0 2.7262.0225 2.929.4506 3.0416.383.1127.4506.3155.4506 1.5096 0 .9463-.1352 1.6673-.4506 2.2756-.3605.6984-.4506 1.3293-.4506 2.9515 0 2.2756.1126 2.7938.5858 2.7938.5182 0 .4506 3.5373-.0676 4.1231-.338.338-.4281.9463-.4731 3.2445-.0902 3.1543.0225 3.9654.5407 3.8527.5633-.1126 7.8857-6.3086 8.1786-6.8944.1578-.338.2479-2.7037.2479-6.8043 0-5.7228-.0451-6.3086-.383-6.3086-.338 0-.338-.0225 0-.4055.3379-.3605.383-1.2167.383-7.2098 0-6.3312-.0225-6.8043-.383-6.8043-.2253 0-2.163 1.487-4.3034 3.2895zm3.2444 6.0157c.2704 1.1716-.2028 2.0052-2.1855 3.7175-1.0364.9013-2.1629 1.8475-2.5009 2.0954l-.6308.4506v-2.929l2.208-1.9151c1.1941-1.0589 2.3657-1.9151 2.5685-1.9151.2253-.0225.4506.2028.5407.4957zm.0901 10.0712c0 1.5546-.383 2.1404-2.7262 4.1006-1.2392 1.0139-2.3432 1.8926-2.4558 1.9376-.1352.0451-.2253-.6759-.2253-1.6898v-1.7799l2.3882-1.9602c2.6136-2.1629 3.0191-2.2305 3.0191-.6083z" fill="#E2251D"/>
  <path d="M50.1291 14.846c-.0676.1126-.2253.6308-.383 1.1941-.1352.5633-.2929 1.1941-.3605 1.3969-.1127.383.2028.4055 4.6188.4055 2.6135 0 4.754.0451 4.754.1127s-2.2306 3.7852-4.9568 8.2462l-4.9568 8.1111v2.9065h13.6537l.4055-1.3068c.2253-.6985.4732-1.4195.5182-1.5772.0901-.2027-.9688-.2703-4.8891-.2703-3.9204 0-4.9793-.0676-4.8892-.2929.0451-.1352 2.2531-3.8077 4.8666-8.1336l4.754-7.8858v-3.0642h-6.5114c-3.6049 0-6.5789.0676-6.624.1578zM65.833 15.0938c-1.8926 1.5096-.9463 4.3034 1.4419 4.3259 1.4195 0 2.2982-.9012 2.2982-2.3657s-.8787-2.3657-2.2982-2.3657c-.5858 0-1.1716.1577-1.4419.4055zM122.791 25.8635l.067 11.2428 4.551-.045c5.047-.0226 6.309-.2479 7.886-1.3969 2.096-1.5096 2.794-5.0019 1.532-7.5929-.631-1.2842-1.577-2.0953-2.996-2.591l-.744-.2479.969-.6308c1.757-1.104 2.433-2.3432 2.433-4.3259-.022-2.163-1.261-3.9429-3.492-4.9568-1.036-.4506-1.532-.5182-5.7-.5858l-4.551-.0901.045 11.2203zm8.764-8.3364c1.217.721 1.78 1.7349 1.78 3.2219 0 1.5096-.541 2.5235-1.622 3.0867-.563.2929-1.375.3831-3.447.4056l-2.704.0225-.068-3.3796c-.022-1.8475 0-3.5148.068-3.6725.203-.5407 4.979-.2704 5.993.3154zm1.037 9.6206c1.216.6534 1.734 1.6448 1.825 3.4247.09 2.0053-.361 2.9515-1.758 3.65-.901.4731-1.329.5182-4.1.5182h-3.11v-8.1561l3.222.0901c2.479.0676 3.357.1577 3.921.4731zM168.145 14.8459c-.248.0451-.676.1352-.946.2028l-.518.0901v22.1026l1.306-.0676 1.285-.0676.112-4.4385.113-4.416 3.605 4.416 3.605 4.4385 1.554.0676c.857.0451 1.623-.0225 1.735-.1126.09-.0901-1.509-2.1179-3.537-4.4611-2.05-2.3657-3.763-4.416-3.83-4.5512-.068-.1577 1.216-1.7799 2.884-3.6049 4.145-4.6188 3.92-4.1231 1.937-4.1231h-1.667l-3.132 3.6049-3.154 3.6274-.068-6.4438c-.067-7.007.045-6.5564-1.284-6.2635zM112.044 15.9725c-.248.045-.992.2028-1.623.3154l-1.194.2253v3.8077H107.402l.068 1.2843.068 1.3067.833.0676.834.0676.067 5.9031c.068 5.4749.091 5.9706.541 6.6916.991 1.7123 3.019 2.3432 5.52 1.7123.789-.2027 1.442-.4055 1.487-.4506.045-.045-.022-.5858-.158-1.2166-.247-1.1266-.247-1.1266-.923-.9013-.879.2929-2.163.0451-2.456-.4956-.135-.2479-.225-2.6136-.225-5.8355v-5.4299h2.726l.563-1.2392c.293-.6984.541-1.3068.541-1.3518 0-.0676-.856-.1127-1.915-.1127h-1.915v-2.2531c0-2.3432 0-2.3206-1.014-2.0953zM67.3201 20.5688c-.5632.1126-1.2392.2703-1.5095.3379l-.5182.0901V37.219h3.8302v-8.4491c0-9.5079.2027-8.6067-1.8025-8.2011zM73.2909 20.6363l-1.3518.2478-.0676 8.1787-.0451 8.1786 1.8475-.0676 1.8701-.0676.1126-5.6777.1127-5.6777.6534-.676c.766-.7885 1.9602-1.104 2.8839-.7435.6985.2479.6985.2929 1.059-1.8475.2703-1.5321.1577-1.7123-1.059-1.7123-1.0364 0-2.0953.4956-3.1768 1.4645l-.9238.8336v-1.3744c0-.9688-.0901-1.3743-.2703-1.3518-.1578.0225-.9013.1352-1.6448.2929zM83.9477 20.7264c-.8336.2254-1.5771.4732-1.6447.5408-.1352.1126-.7886 3.4021-.721 3.4922.0225.0226.7886-.3379 1.7123-.7885 1.3293-.6534 1.9151-.8111 2.9966-.8337 1.7574 0 2.208.4732 2.208 2.3658v1.2842l-1.8475.1803c-2.7488.2253-4.5512.8561-5.6777 1.9827-2.6361 2.6586-1.6673 7.3675 1.7574 8.3814 1.8475.5633 3.312.4281 5.3848-.4506.2929-.1127.383-.0451.383.3154 0 .4731.0901.4957 1.8701.4281l1.8475-.0676v-6.9845c0-6.6466-.0225-7.0296-.4732-7.8858-.2929-.5407-.8787-1.149-1.5095-1.5546-1.3744-.8562-4.0105-1.0139-6.2861-.4056zm4.5512 10.7021c0 1.7574-.045 1.9151-.6083 2.4559-1.9151 1.825-4.3484 1.0815-4.3484-1.3293 0-.7886.4731-2.2982.7435-2.3207.0225 0 .4506-.1577.9463-.338.4956-.1802 1.4419-.3154 2.0953-.3379h1.1716v1.87zM98.2324 20.6814c-1.8024.4732-1.9827.6309-2.1404 1.7124-.0676.5407-.2027 1.3969-.2929 1.8925l-.1352.9463 1.7349-.8787c1.4194-.7209 1.9827-.8787 3.0412-.8787 1.15 0 1.375.0676 1.78.5858.338.4056.474.9238.474 1.6448v1.0589l-2.366.2704c-2.794.3154-4.3036.9012-5.385 2.0728-.9914 1.104-1.3293 2.1855-1.2167 4.0555.1577 2.7263 1.7349 4.2133 4.799 4.4386 1.3068.1126 2.0727-.0225 3.7857-.721.292-.1126.383-.0451.383.3154 0 .4507.112.4732 1.802.4732h1.802v-6.962c0-4.371-.09-7.2098-.247-7.6154-.857-2.3206-4.281-3.3796-7.8186-2.4108zm4.4616 10.6571c0 2.0728-.338 2.6811-1.825 3.2669-1.8254.7435-3.1773-.1577-3.1773-2.0728 0-.6083.1127-1.3293.2704-1.5997.383-.766 1.9376-1.3744 3.4469-1.3744h1.285v1.78zM143.542 20.5687c-.541.0901-1.397.383-1.938.6083-.924.4056-.991.4957-1.217 1.7574-.135.721-.225 1.3518-.18 1.3969.023.0225.609-.2478 1.307-.6083.698-.3605 1.802-.7886 2.478-.9238 2.591-.5858 3.988.3605 3.988 2.7037v1.3068l-1.96.1577c-3.898.3154-6.196 1.4645-7.187 3.5599-1.307 2.8163-.158 5.7453 2.591 6.669 1.802.6084 4.664.0902 5.925-1.0364.383-.3379.406-.3154.406.4506v.8337h2.704v-7.1197c0-4.7991-.09-7.2549-.248-7.5929-1.037-1.9827-3.515-2.7938-6.669-2.1629zm4.213 10.5218c0 2.208 0 2.208-.721 2.929-2.05 1.9602-4.979 1.7799-5.565-.3379-.316-1.1491-.316-1.4871.113-2.546.63-1.5546 1.982-2.208 4.663-2.2306l1.51-.0225v2.208zM153.545 20.5913l-1.059.2253.046 8.1561.067 8.1336h2.478l.068-6.1058.045-6.1284 1.194-.8111c2.005-1.3743 3.966-1.5996 4.844-.5632.338.383.406 1.2392.496 7.0296l.113 6.5789H164.54V23.5879l-.563-.9688c-1.419-2.4784-4.438-2.8614-7.412-.9463l-1.375.9012v-1.1265c0-1.2392.068-1.1942-1.645-.8562z" fill="#1D1D1B"/>
</svg>
