<svg xmlns="http://www.w3.org/2000/svg" viewBox="0 0 200 50">
	<path fill="#9A9DA5" d="M45.1938 19.8242h-1.7051v-5.6985h5.5982v5.6985h-1.7051v-4.5543h-2.188v4.5543zm11.0552-1.6494c-.4495 1.616-1.9057 1.8574-2.9718 1.8574-.743 0-3.061-.1671-3.061-3.0721 0-1.9726 1.3336-3.0498 3.1984-3.0498 2.7712 0 2.9161 2.4666 2.9384 3.1612v.3158h-4.3537c0 .5498.2563 1.4859 1.367 1.4859.2447.0247.4907-.0322.6997-.1619.2089-.1296.3691-.3248.4556-.555l1.7274.0185zm-1.6494-1.7385c-.0186-1.2222-.7949-1.3782-1.1961-1.3782-.2229 0-1.2334-.0223-1.4005 1.3782h2.5966zm4.4986-2.3106v.6835h.0335c.2157-.2868.4967-.518.8198-.6744.3231-.1563.6788-.2333 1.0376-.2245 1.6048 0 2.6003 1.1887 2.6003 3.0721 0 1.8054-.9993 3.0498-2.6263 3.0498-.3284.0008-.653-.0699-.9513-.2071-.2983-.1373-.5631-.3379-.7761-.5878v2.6598h-1.7051v-7.7714h1.5676zm1.3559 4.7661c.977 0 1.3225-.9436 1.3225-1.928 0-1.5936-.8172-1.9057-1.3225-1.9057-.5052 0-1.3336.3158-1.3336 1.9057 0 .9882.3344 1.928 1.3336 1.928zm7.6117-4.7661c.5275 0 1.8574 0 1.8574 1.3782.007.326-.1074.6429-.3208.8893-.2135.2464-.5109.4048-.8345.4443v.0334c.9435.2006 1.3559.5944 1.3559 1.486 0 1.1664-.8544 1.4599-2.0878 1.4599h-3.3879v-5.6911h3.4177zm-1.694 2.2289h.8878c.2787 0 .9325 0 .9325-.5275s-.4161-.5609-.899-.5609h-.9213v1.0884zm0 2.3217h1.0662c.8432 0 .9547-.338.9547-.5832 0-.3715-.1672-.6724-.977-.6724h-1.0439v1.2556zm6.5603-4.5506v2.0209h1.0773c.5275 0 2.4555-.0558 2.4555 1.9279 0 1.5825-1.2556 1.7497-2.0766 1.7497H71.227v-5.6985h1.7051zm0 4.5544h.7727c.4049 0 .9882-.0669.9882-.6613 0-.7058-.743-.7429-1.0328-.7429h-.7429l.0148 1.4042zm5.8546-4.5544v5.6985h-1.7051v-5.6985h1.7051zm5.4496 0h1.8054v5.6985h-1.7051v-3.7148l-2.3218 3.7148h-1.8351v-5.6985h1.7051v3.7148l2.3515-3.7148zm-2.0877-2.1546c0 .717.8098.743.9769.743.4495 0 .9993-.1895.9659-.743h1.2556c-.0892.6947-.5609 1.5491-2.2289 1.5491-1.6679 0-2.1769-.873-2.2289-1.5491h1.2594zM23.5662 25.337h1.8946l-2.3404 2.6709 2.4518 3.0239h-1.9949l-1.8573-2.489h-.0149v2.489H20V25.337h1.7051v2.2883h.0334l1.8277-2.2883zm2.0394 4.5432c.0924.0127.1854.0202.2786.0223.717 0 .977-.3455 1.0216-2.1323l.0557-2.4332h4.859v5.6948h-1.7051v-4.5507h-1.5268l-.0223 1.2779c-.0557 3.0164-.9435 3.3656-2.2994 3.3656-.2221 0-.4437-.0224-.6613-.0668v-1.1776zm11.6608-4.5432h1.8054v5.6948h-1.7014V27.317l-2.3218 3.7148h-1.8165V25.337h1.7051v3.7148l2.3292-3.7148zm8.9712 4.0491c-.4495 1.6159-1.9057 1.8574-2.9718 1.8574-.743 0-3.061-.1672-3.061-3.0721.0111-1.9689 1.341-3.0462 3.1984-3.0462 2.7713 0 2.9161 2.4667 2.9384 3.1613v.3158h-4.3537c0 .5498.2563 1.4859 1.367 1.4859.2441.0275.4904-.0265.7007-.1534.2103-.127.3727-.3199.4621-.5487h1.7199zm-1.6494-1.7385c-.0222-1.2222-.7838-1.3782-1.1998-1.3782-.2229 0-1.2334-.0223-1.4005 1.3782h2.6003zm4.599 3.3842h-1.6977V25.337h1.7051v2.1434h2.0543V25.337h1.7051v5.6948h-1.7163v-2.4072h-2.0505v2.4072zm4.6175-4.5507V25.337h5.4756v1.1441h-1.8834v4.5507h-1.6977v-4.5507h-1.8945zm11.9096 2.3998c-.0669.8841-.639 2.3663-2.8158 2.3663-1.8574 0-3.0387-1.0773-3.0387-3.0498 0-1.3559.6055-3.0722 3.139-3.0722 1.9502 0 2.5558 1.1999 2.6598 2.2289h-1.6383c-.1225-.9213-.5832-1.1144-1.0884-1.1144-.3715 0-1.3002.1003-1.3002 1.8054 0 1.8945.9324 2.0282 1.2779 2.0282.9101 0 1.1145-.8284 1.1145-1.2221l1.6902.0297zm4.6509-3.5439h1.8946l-2.3441 2.6709 2.4629 3.0239h-1.9948l-1.8574-2.489h-.0334v2.489h-1.6866V25.337h1.7051v2.2883h.0335l1.8202-2.2883zm6.6161 0h1.8054v5.6948h-1.7051V27.317l-2.3218 3.7148h-1.8165V25.337h1.7051v3.7148l2.3329-3.7148zm7.255 0h1.8054v5.6948h-1.7051V27.317l-2.3218 3.7148h-1.8351V25.337h1.7051v3.7148l2.3515-3.7148zm-2.0877-2.1546c0 .7169.8061.7429.9769.7429.4495 0 .9993-.1894.9659-.7429h1.2556c-.0892.6947-.5609 1.5491-2.2289 1.5491-1.6679 0-2.1769-.873-2.2289-1.5491h1.2594z"/>
	<path fill="#201600" d="M136.953 23.8993h2.819c.97 0 4.458.0854 4.458 3.8225 0 2.3849-1.735 3.5217-4.458 3.5217H134.2V19.5604h9.079v2.2698h-6.315l-.011 2.0691zm0 5.0744h2.229c1.084 0 2.054-.2154 2.054-1.3187 0-1.4005-1.334-1.486-2.002-1.486h-2.285l.004 2.8047zm14.967-9.4133l4.391 11.6831h-2.92l-.743-2.1843h-4.25l-.743 2.1843h-2.905l4.373-11.6831h2.797zm.119 7.5076l-1.486-4.4577-1.534 4.4577h3.02zm8.105 4.1755h-2.752V19.5604h2.752v4.3909h4.239v-4.3909h2.753v11.6831h-2.753v-5.041h-4.239v5.041zm16.353-11.6831h3.239l-4.692 5.3419L180 31.2435h-3.369l-4.142-5.706h-.034v5.706h-2.749V19.5604h2.753v4.9073h.033l4.005-4.9073z"/>
	<path fill="url(#gr1)" d="M107.562 18.6986h-7.913v-4.7921h15.283V8H94.4111v24.2948h13.1509V18.6986z"/>
	    <linearGradient id="gr1" x1="92.4051" y1="10.5632" x2="112.357" y2="26.1542" gradientUnits="userSpaceOnUse">
      <stop stop-color="#5997D4"/>
      <stop offset="1" stop-color="#363C6E"/>
    </linearGradient>
    <path fill="url(#gr2)" d="M113.579 18.6985v13.5962h7.909v4.7921h-15.282v5.9065h20.52V18.6985h-13.147z"/>
	<linearGradient id="gr2" x1="5010.41" y1="1120.22" x2="6246.62" y2="1935.92" gradientUnits="userSpaceOnUse">
      <stop stop-color="#5997D4"/>
      <stop offset="1" stop-color="#363C6E"/>
    </linearGradient>
</svg>
