<svg xmlns="http://www.w3.org/2000/svg" viewBox="0 0 200 50">
	<path fill="#309a5f" d="m0 6 30.1 40.2 4.3-24.4L0 6z"/>
	<path fill="#94ffd1" d="M64.7 7 0 6l34.4 15.8L64.7 7z"/>
	<path fill="#61ea83" d="m34.4 21.8-4.3 24.4L64.7 7 34.4 21.8z"/>
	<path fill="#102028" d="m145.9 24.3 2.6-1.5c-.9-1.5-2.6-2.5-4.5-2.5-3 0-5.3 2.3-5.3 5.3s2.2 5.3 5.3 5.3c2 0 3.6-1 4.5-2.6l-2.6-1.5c-.3.7-1.1 1.1-1.9 1.1-.7 0-1.3-.3-1.7-.8-.2-.2-.3-.4-.4-.7-.1-.3-.1-.5-.1-.8 0-1.4 1-2.3 2.2-2.3.9-.1 1.6.3 1.9 1zM83.2 30.5h3v-7.1h4v-2.9h-7zM185.2 24.1h-3.3v-3.6h-3v10h3v-3.6h3.3v3.6h3v-10h-3zM196.3 25.5l3.6-5h-3.5l-3 4.3v-4.3h-3v10h3V26l3.2 4.5h3.4zM73.3 16.5l-4.7 13.9H72l.7-2.2h5.2l.7 2.2h3.5l-4.7-13.9h-4.1zm.4 8.8 1.6-5.1 1.6 5.1h-3.2zM97.5 20.2c-.8 0-1.5.2-2.1.5-.3.2-.6.4-.9.7v-.9h-3v13.9h3v-4.9c.7.8 1.6 1.2 3 1.2 2.6 0 4.8-2.3 4.8-5.3 0-2.9-2.2-5.2-4.8-5.2zm-.6 7.7c-.6 0-1.1-.2-1.5-.4-.6-.4-.9-1.1-.9-2 0-1.5 1-2.4 2.4-2.4s2.4.9 2.4 2.4-1 2.4-2.4 2.4zM108.5 20.2c-2.9 0-5.3 2.3-5.3 5.3s2.4 5.3 5.3 5.3 5.3-2.3 5.3-5.3-2.3-5.3-5.3-5.3zm0 7.6c-1.3 0-2.3-.9-2.3-2.3s1-2.4 2.3-2.4c1.3 0 2.3.9 2.3 2.4 0 1.4-1 2.3-2.3 2.3zM121.2 20.2c-1.3 0-2.3.4-3 1.2v-.9h-3v13.9h3v-4.9c.7.8 1.6 1.2 3 1.2 2.6 0 4.8-2.3 4.8-5.3-.1-2.9-2.2-5.2-4.8-5.2zm-.6 7.7c-1.4 0-2.4-.9-2.4-2.4s1-2.4 2.4-2.4 2.4.9 2.4 2.4-1 2.4-2.4 2.4zM132.4 20.2c-2.9 0-5.3 2.3-5.3 5.3s2.3 5.3 5.3 5.3c2.9 0 5.3-2.3 5.3-5.3-.1-3-2.4-5.3-5.3-5.3zm0 7.6c-1.3 0-2.3-.9-2.3-2.3s1-2.4 2.3-2.4 2.3.9 2.3 2.4c-.1 1.4-1.1 2.3-2.3 2.3zM160.3 21.7h-2.2v-2.1h5.8v-3.1h-9v13.9h5.4c2.9 0 4.8-1.7 4.8-4.4 0-2.6-2-4.3-4.8-4.3zm0 5.8h-2.2v-2.8h2.2c.9 0 1.6.4 1.6 1.4-.1 1-.8 1.4-1.6 1.4zM173.8 21.4c-.7-.8-1.6-1.2-3-1.2-2.6 0-4.8 2.3-4.8 5.3s2.2 5.3 4.8 5.3c1.3 0 2.3-.5 3-1.2v.9h3v-10h-3v.9zm-2.4 6.5c-1.4 0-2.4-.9-2.4-2.4s1-2.4 2.4-2.4 2.4.9 2.4 2.4-1 2.4-2.4 2.4z"/>
</svg>