<svg version="1.1" id="Layer_1" xmlns="http://www.w3.org/2000/svg" x="0" y="0" viewBox="0 0 200 50" style="enable-background:new 0 0 200 50" xml:space="preserve">
  <style>
    .st0{fill:#113f72}.st1{fill:#bb9434}
  </style>
  <path class="st0" d="m178.9 22.6-2.8 3.9 4.4 7.8h5zM151.6 16h4.4v18.3h-4.4zM162.3 23.4h-4.2l-1.3 1.8h5.5v9.1h4.4V16h-4.4zM110.6 34.3h4.5V17.9l-4.5 6zM104.6 28.2V16h-4.4v18.3h2L115.3 16h-2zM62.6 34.3h1.9l11.2-15.5v7.3h-4l-1.3 1.8h5.3v6.4h4.4V16h-4.4zM89.5 26.5l4.4 7.8h5l-6.6-11.7z"/>
  <path class="st0" d="M93.8 16.1 87 25.5V16h-4.4v18.3H87v-6l8.8-12.2zM131.8 26c-1-1.7-2.8-2.8-4.7-2.7h-3.4l-1.3 1.8h3.8c1.4.7 2.2 2.1 2.2 3.7s-.9 3-2.2 3.7H122V17.9h7.7L131 16h-13.4v18.3h9.5c1.9.1 3.7-1 4.7-2.7 1-1.7 1-3.8 0-5.6zM131.6 34.3h2l11.1-15.5v7.3h-4l-1.3 1.8h5.3v6.4h4.4V16h-4.4zM180.4 16.1l-6.8 9.4V16h-4.4l-.1 18.3h4.5v-6.1l8.8-12.1z"/>
  <g>
    <path class="st1" d="m32.9 15.8-17.4 9 17.4 9 17.4-9-17.4-9zm0 16.1-13.7-7.1 13.7-7.1 13.7 7.1-13.7 7.1z"/>
    <path class="st1" d="M34.1 20.9v1.9l1.9 1-1.9 1v1.9l5.6-2.9z"/>
    <path class="st1" d="m36.6 14.5-1.8 1 18 9.3-18 9.3 1.8 1 19.9-10.3zM32.9 29.3v-1.9l-5-2.6 3.2-1.7v2l1.8-.9v-3.9l-8.7 4.5z"/>
  </g>
</svg>
