<svg xmlns="http://www.w3.org/2000/svg" viewBox="0 0 200 50">
	<path fill="#EF3124" d="M18 40.64h21.79v4.52H18v-4.52zm157.58-14.51l6.87-7.58h-5.12l-5.63 6.3v-6.3h-4.08v15.93h4.1v-6.71l6.02 6.71H183l-7.42-8.35zM42.19 27.18c-.11 3-.49 3.57-2.15 3.57v3.74h.62c4.17 0 5.16-2.15 5.31-6.94l.18-5.3H50v12.23h4.08V18.55H42.47l-.28 8.63zm-17.71 2.74h8.6l1.43 4.56h4.77l-6.43-19.16c-.62-1.85-1.34-3.32-3.8-3.32s-3.21 1.47-3.87 3.32l-6.74 19.16h4.48l1.56-4.56zM28.84 17h.11l2.88 9.08h-6.06L28.84 17zm95.31 3.81h-4.55v-4.5h10.56v-4h-14.84v22.17h8.83c4.89 0 7.7-2.44 7.7-6.9 0-4.23-2.85-6.77-7.7-6.77zm-.21 9.66h-4.34v-5.76h4.34c2.26 0 3.53 1 3.53 2.88s-1.27 2.88-3.53 2.88zM83.59 18.18v-5.9h-4.07v5.9c-2.1371.0705-4.1589.9863-5.6214 2.5462-1.4624 1.56-2.246 3.6366-2.1786 5.7738-.0728 2.1416.708 4.2244 2.1708 5.7903 1.4627 1.566 3.4876 2.4867 5.6292 2.5597v6h4.08v-6c1.0608-.0349 2.1044-.2786 3.0708-.7174.9665-.4387 1.8369-1.0638 2.5615-1.8394.7245-.7757 1.2889-1.6866 1.6609-2.6807.372-.9941.5442-2.0518.5068-3.1125.0428-1.0614-.1263-2.1207-.4972-3.116-.371-.9954-.9365-1.9069-1.6635-2.6814-.727-.7744-1.601-1.3964-2.5709-1.8295-.97-.4331-2.0164-.6687-3.0784-.6931zM79.53 31c-1.0798-.1186-2.0697-.6569-2.7562-1.4987-.6866-.8418-1.0148-1.9197-.9138-3.0013-.088-1.0789.2449-2.15.9291-2.9888.6841-.8389 1.6664-1.3804 2.7409-1.5112v9zm4.08 0v-9c1.0745.1308 2.0568.6723 2.7409 1.5112.6842.8388 1.0171 1.9099.9291 2.9888.0957 1.0805-.2344 2.1556-.92 2.9963-.6855.8406-1.6723 1.3802-2.75 1.5037zm23.08-1.41v-5.37c0-3.92-2.49-6.37-6.67-6.37s-6.62 2.6-6.82 5.31h4.13c.14-.58.76-1.61 2.68-1.61.359-.0462.723-.0084 1.064.1106.342.119.651.3157.903.5748.252.259.441.5732.551.9176.11.3445.138.7098.082 1.067h-4c-3.62 0-5.77 1.91-5.77 5.07-.0282.7541.1022 1.5057.3828 2.2062.2807.7005.7053 1.3342 1.2464 1.8602.541.526 1.1865.9325 1.8947 1.1933.7081.2607 1.4631.3698 2.2161.3203.8501.0447 1.698-.1208 2.469-.4818.771-.3611 1.441-.9065 1.951-1.5882.332.5615.816 1.0173 1.397 1.3146.58.2974 1.233.4241 1.883.3654h1.41V30.8c-.69 0-1-.33-1-1.21zm-4.08-1c.017.3939-.05.7869-.197 1.153-.146.3661-.368.6971-.651.9711-.284.274-.622.4848-.993.6186-.371.1337-.766.1873-1.159.1573-1.47 0-2.63-.53-2.63-2.12s1.29-1.82 2.38-1.82h3.25v1.04zm-38.37-5.2h-2.93v-4.84h-4.08v15.93h7.08c4.43 0 6-2.88 6-5.6.02-3.51-2.18-5.49-6.07-5.49zm-.3 7.61h-2.63v-4h2.63c1.41 0 2.26.64 2.26 2 0 1.36-.81 2-2.26 2zm83.48-1.41v-5.37c0-3.92-2.49-6.37-6.67-6.37s-6.62 2.6-6.82 5.31h4.13c.14-.58.76-1.61 2.68-1.61.359-.0462.723-.0084 1.064.1106.342.119.651.3157.903.5748.252.259.441.5732.551.9176.11.3445.138.7098.082 1.067h-4c-3.62 0-5.77 1.91-5.77 5.07-.028.7541.102 1.5057.383 2.2062.28.7005.705 1.3342 1.246 1.8602s1.187.9325 1.895 1.1933c.708.2607 1.463.3698 2.216.3203.858.0531 1.716-.1083 2.497-.4696.78-.3614 1.458-.9114 1.973-1.6004.327.5517.802 1.0012 1.371 1.298.569.2968 1.209.4291 1.849.382h1.41V30.8c-.71 0-.99-.33-.99-1.21zm-4.06-1c.015.3935-.053.7857-.2 1.1511-.147.3654-.369.6957-.652.9694-.283.2736-.621.4845-.991.6189-.37.1343-.764.189-1.157.1606-1.47 0-2.63-.53-2.63-2.12s1.29-1.82 2.38-1.82h3.25v1.04zm17.09-4.11h-5.63v-5.93h-4.08v15.94h4.08v-6.28h5.63v6.27h4.08V18.55h-4.08v5.93z"/>
</svg>
