<svg xmlns="http://www.w3.org/2000/svg" viewBox="0 0 200 50">
	<g fill="#002537">
		<path d="M58.4 8.3H47.9v10.5h10.6l-.1-10.5z"/>
		<path d="M73.8 17.6l1.9-.1c1.5 0 2.6-.4 3.5-1.2.8-.8 1.2-1.9 1.2-3.3 0-1.3-.4-2.5-1.2-3.4-.8-.8-2-1.3-3.4-1.3h-4.9v14.4h2.9v-5.1zm0-7h2.1c.5 0 .9.3 1.2.7.3.4.5.9.5 1.7s-.2 1.2-.5 1.6c-.4.4-.8.6-1.3.6h-2v-4.6zM84.5 8.3L80 22.6h3l.8-2.9h3.9l.8 2.9h3.1L87.1 8.3h-2.6zm0 8.9l1.3-5.1 1.4 5.1h-2.7zM97.7 22.7c1.5 0 2.7-.4 3.6-1.2.8-.8 1.3-2.2 1.4-3.8h-3c0 .9-.2 1.6-.5 2-.3.4-.8.6-1.6.6s-1.3-.2-1.6-.8c-.3-.5-.5-1.5-.5-2.9v-2.7c0-1.2.2-2.1.5-2.6.4-.6.9-.8 1.7-.8s1.3.2 1.6.6c.3.4.5 1 .5 2.1h2.9c-.2-1.6-.6-2.9-1.4-3.8-.8-.8-2-1.3-3.6-1.3s-2.8.6-3.8 1.6c-.8 1-1.3 2.5-1.3 4.5v2.4c0 2.1.5 3.6 1.3 4.6 1 1 2.2 1.5 3.8 1.5zM111.7 22.6h2.9V8.3l-2.9-.1v6.5c-.8.2-1.4.3-2.2.3-.8 0-1.2-.2-1.5-.6-.3-.4-.5-.9-.5-1.8V8.2h-2.9v4.6c.1 1.5.5 2.6 1.3 3.4.8.8 2 1.2 3.6 1.2.7 0 1.4-.1 2.2-.3v5.5zM125.4 20.1h-5.3v-3.7h4.4v-2.3H120v-3.4h5.3V8.3h-8.2v14.3h8.3zM133.2 22.6v-12h3.6V8.2h-10v2.4h3.5v12zM141.5 16.5h4.3v6.1h2.9V8.3h-2.9v5.8h-4.3V8.3h-2.9v14.3h2.9zM161.3 8.3h2.9v14.3h-2.9zM155.8 13.4h-1.7V8.3h-2.9v14.2h4.8c1.4 0 2.5-.5 3.4-1.3.8-.8 1.2-1.9 1.2-3.3s-.5-2.4-1.3-3.3c-.8-.9-2.1-1.2-3.5-1.2zm1.4 6.2c-.3.5-.8.7-1.3.7h-1.8V16h1.8c.6 0 1 .2 1.3.6.3.4.5.8.5 1.5 0 .5-.2 1-.5 1.5zM169.6 20.1v-3.7h4.6l-.1-2.3h-4.5v-3.4h5.3V8.3h-8.2v14.3h8.3v-2.5zM75.8 27.3h-4.9v14.3h2.9v-5.1h1.9c1.5 0 2.6-.4 3.5-1.2.8-.8 1.2-1.9 1.2-3.3 0-1.3-.4-2.5-1.2-3.4-.8-.9-2-1.3-3.4-1.3zm1.3 6.2c-.4.4-.8.6-1.3.6h-2v-4.5h2.1c.5 0 .9.2 1.2.7.3.4.5.9.5 1.7 0 .7-.2 1.2-.5 1.5zM85.6 35.3H90v-2.2h-4.5v-3.4h5.3v-2.4h-8.1v14.2h8.2v-2.4h-5.3zM104.4 39.2h-2.9V27.3h-3v11.9h-2.9V27.3h-2.9v14.2h14.6V27.3h-2.9zM112.6 35.3h4.5l-.1-2.2h-4.5v-3.4h5.4v-2.4h-8.2v14.2h8.3v-2.4h-5.4zM127 33.1h-4.3v-5.8h-2.9v14.2h2.9v-6.1h4.3v6.1h2.9V27.3H127zM135.2 36.7v-9.4h-2.9v14.2h2.9l4.2-9.5v9.5h2.9V27.3h-2.9zM145.4 28.4c-.8.8-1.2 1.9-1.2 3.3 0 1.6.6 2.8 1.8 3.7l-2.5 6.2h3.1l2.2-5.2h1.5v5.2h2.9V27.3h-4.3c-1.6 0-2.7.3-3.5 1.1zm4.8 5.7h-1.3c-.6 0-1-.2-1.3-.6-.4-.3-.5-.9-.5-1.7 0-1.5.6-2.3 1.7-2.3h1.4v4.6z"/>
	</g>
	<path fill="#d2e0f1" d="M35.5 8.3H25v10.4h10.5V8.3z"/>
	<path fill="#5d993b" d="M58.4 19.6H47.9v10.5h10.6l-.1-10.5z"/>
	<path fill="#a4c1e2" d="M47 8.3H36.5v10.5H47V8.3z"/>
	<path fill="#f5d500" d="M47 19.6H36.5v10.5H47V19.6z"/>
	<path fill="#b0c86e" d="M58.4 31H47.9v10.5h10.6L58.4 31z"/>

</svg>
