<svg xmlns="http://www.w3.org/2000/svg" viewBox="0 0 200 50">
	<path fill="#003E22" d="M5.29877 26.0696v5.779h1.97545c.27285.03.48021-.1447.48021-.5457v-4.6631c0-.3683-.12005-.5702-.48021-.5702H5.29877zM0 33.8704V17.0327l11.8554-.0245v2.06l-6.55663-.03v5.0341h2.66849c1.28513 0 5.06414-.0655 5.06414 2.281v5.206c.0245 1.94-3.05323 2.2565-5.0314 2.2838l-8 .0273zM22.865 19.4229l-1.438 7.8254h3.1133l-1.4079-7.8254h-.2674zm-7.6453 14.4475l3.8363-16.8622h7.8744l3.8363 16.8622H25.618l-.8103-4.2374h-3.6535l-.7804 4.2374h-5.1541zM33.4215 17.0082h5.2115v6.7831l2.3656-.0328v-6.7503h5.1842v16.8622h-5.1842v-7.7135H38.633v7.6889l-5.2115.0246V17.0082zM50.1446 17.0082h5.0887v6.8349l3.3533-6.8349h5.0014l-3.8608 7.9154 4.4311 8.9468h-4.8841l-4.0409-7.6589v7.6589h-5.0887V17.0082zM83.2142 19.3902l-1.4407 7.8281h3.1487l-1.4379-7.8281h-.2701zm-7.6316 14.4802l3.8281-16.8622h7.8772l3.8335 16.8622H85.97l-.7749-4.2729h-3.6862l-.7749 4.2729h-5.1514zM115.735 19.4366l-1.435 7.7926h3.116l-1.405-7.7926h-.276zm-7.634 14.4338l3.834-16.8622h7.874l3.836 16.8622h-5.148l-.814-4.2619h-3.648l-.78 4.2619h-5.154zM160.387 19.4366l-1.408 7.8062 3.119-.0245-1.443-7.7817h-.268zm-7.601 14.4338l3.825-16.8622h7.88l3.866 16.8622h-5.187l-.804-4.251h-3.659l-.808 4.251h-5.113zM131.648 17.0082v6.7858h2.371v-6.7613l5.209-.0245v16.8376l-5.209.0246v-7.6971h-2.371v7.6971h-5.211V17.0327l5.211-.0245zM98.7694 26.1869v5.6617h1.7986c.354 0 .57-.2047.57-.4884v-4.543c0-.3766-.156-.6303-.595-.6303h-1.7736zm-5.0532 7.6589v.0273-16.8649h7.5118c5.034 0 4.881 1.6835 4.881 2.4584v3.4843c0 .5184-.125 2.06-2.859 1.9727v.1692c2.218-.0246 2.952.6903 2.952 1.7517v4.6384c0 .794-.306 2.3356-5.007 2.3629h-7.4788zm5.0532-14.8076v4.8322l1.7736.03c.442 0 .595-.1719.595-.4011V19.4911c0-.2537-.12-.4556-.57-.4556h-1.7986v.0027zM143.607 17.0082h10.311v2.03h-5.249v14.8322h-5.062V17.0082zM175.675 19.0355v6.8594h2.183c.87.0573.87-.311.925-.7121l-.025-5.5143c.025-.6276-.616-.644-.881-.633h-2.202zm-5.091 14.8103V17.0082h7.904c1.681 0 4.617 0 4.617 2.4256v5.809c0 2.483-2.753 2.5703-4.617 2.6003h-2.81v6.0246l-5.094-.0219zM194.415 19.0437h-2.983v11.0477c0 .8486-.177 1.5607-1.077 1.8445v-.0273l4.043-.0164.017-12.8485zm-10.822 16.8594v-3.9345l.358-.03c2.18 0 2.456-1.1405 2.456-1.7353V17.0082L198.739 17v14.9113H200v3.9891h-5.029v-2.0546h-6.352v2.0546h-5.026v.0027z"/>
</svg>
