<svg viewBox="0 0 200 50" xmlns="http://www.w3.org/2000/svg">
	<path fill="#231F20" d="M131.311 23.0797c1.276 0 2.658.1064 3.934.4253.957.319 1.808.9569 2.339 1.9138.638.9569.957 2.1264.957 3.2959.106 1.5948-.531 3.0833-1.595 4.1465-1.276 1.1695-2.977 1.7011-4.678 1.5948h-7.761V15.3184h12.865l-1.276 2.4453c-.107.2127-.319.319-.638.319h-7.443v4.997h3.296Zm-3.296 8.3994h3.828c2.126 0 3.19-.9569 3.296-2.8707 0-.7442-.213-1.4885-.744-2.0201-.851-.6379-1.808-.8505-2.871-.7442h-3.509v5.635Zm10.739 2.9769 6.379-19.1376h4.253l6.379 19.1376h-3.721l-1.489-4.5718h-7.336l-1.488 4.5718h-2.977Zm8.08-15.8417-2.764 8.5056h5.529l-2.765-8.5056Zm21.265-3.2959v7.8677h-7.336v-7.8677h-3.403V34.456h3.403v-8.293h7.336v8.293h3.402V15.3184h-3.402Zm21.157 0-4.572 6.2729L190 34.5623h-3.827l-4.041-9.7814-3.721 4.8907v4.7844h-3.402V15.3184h3.402v9.9941c.114-.1709.22-.3342.319-.4858.27-.4141.482-.7407.638-.8964l6.379-8.6119h3.509Z"/>
	<path fill="#4C5C65" d="M55.079 15.2129c1.9137 0 3.6149.8506 4.7844 2.339 1.5948 2.1264 2.339 4.6781 2.1264 7.1235.2126 2.5517-.6379 5.1034-2.1264 7.2298-2.1264 2.658-5.8476 3.0833-8.5056 1.0632-.4253-.319-.7443-.6379-1.0632-1.0632-1.4885-2.1264-2.3391-4.6781-2.1264-7.3361 0-1.3822.1063-2.7643.5316-4.0402.4252-1.7011 1.4884-3.1896 2.8706-4.2528 1.0632-.7442 2.2327-1.0632 3.5086-1.0632Zm2.2327 15.8417c.8506-.7442 1.4885-1.8074 1.7011-2.9769.319-1.0632.4253-2.2328.4253-3.296 0-1.9137-.4253-3.7212-1.2758-5.316-.638-1.1695-1.8075-1.8074-3.0833-1.8074-1.2759 0-2.4454.6379-3.0833 1.8074-.9569 1.5948-1.3822 3.4023-1.2759 5.2097-.1063 1.9138.4253 3.7212 1.2759 5.4223.9569 1.5948 3.0833 2.2328 4.7844 1.2759.2126-.1063.4253-.2127.5316-.319ZM10 34.0317l5.4223-18.4998h2.4454L23.29 34.0317h-2.5516l-1.1696-4.3592h-5.8476l-1.1695 4.3592H10Zm6.5919-15.0975-2.2328 8.293h4.4655l-2.2327-8.293Zm17.3297 4.2524c-.4253.4252-.9569.7442-1.5948.9568 2.2327.4253 3.7212 2.4454 3.4022 4.5718 0 1.4885-.4253 2.7643-1.3822 3.8275-.8505.8506-2.02 1.3822-3.1896 1.3822-.5316.1063-1.4884.1063-2.8706.1063h-3.2959V15.6378h3.6148c1.2759-.1063 2.5517.1063 3.8276.4253.8505.319 1.4885.9569 1.9137 1.7011.319.7443.5316 1.5948.5316 2.4454.1064 1.0632-.2126 2.1264-.9568 2.977Zm-5.1034-5.2097h-1.2759l.1064 5.2097h1.3821c.8506.1063 1.7012-.1064 2.5517-.4253.7443-.4253 1.1695-1.3822 1.0632-2.2328.1063-.9568-.3189-1.8074-1.1695-2.2327-.8506-.2126-1.8074-.4253-2.658-.3189Zm4.2528 12.0142c.1063-.4253.2126-.9569.2126-1.3822.2127-1.1695-.4252-2.2327-1.4884-2.7643-.8506-.2127-1.8075-.319-2.7644-.319h-1.4885v6.1666h1.4885c1.0632 0 2.1264-.1063 3.0833-.4253.4253-.319.8506-.7442.9569-1.2758Zm3.5089-11.9075h4.1465v15.9481h2.4454V17.9773h4.2528v-2.4454H36.5799v2.5517Zm26.2618 0h4.1465v15.9481h2.4454V17.9773h4.2528v-2.4454H62.8417v2.5517Zm18.499-2.8707c1.9138 0 3.6149.8506 4.7845 2.339 1.5948 2.1264 2.339 4.6781 2.1264 7.1235.2126 2.5517-.638 5.1034-2.1264 7.2298-2.1264 2.658-5.8477 3.0833-8.5057 1.0632-.4252-.319-.7442-.6379-1.0632-1.0632-1.4885-2.1264-2.339-4.6781-2.1264-7.3361 0-1.3822.1063-2.7643.5316-4.0402.4253-1.7011 1.4885-3.1896 2.8707-4.2528 1.0632-.7442 2.2327-1.0632 3.5085-1.0632Zm2.2328 15.8417c.8505-.7442 1.4885-1.8074 1.7011-2.9769.319-1.0632.4253-2.2328.4253-3.4023.1063-1.9138-.4253-3.7212-1.2759-5.316-.6379-1.1695-1.8074-1.8075-3.0833-1.8075-1.2758 0-2.4453.638-3.0832 1.8075-.9569 1.5948-1.3822 3.4022-1.2759 5.2097-.1063 1.9137.319 3.7212 1.2759 5.4223.9568 1.7011 3.0832 2.3391 4.7844 1.3822.1063-.0532.186-.1063.2658-.1595.0797-.0532.1594-.1063.2658-.1595Zm14.7794-14.9912c-1.4885-.4253-2.977-.6379-4.4655-.5316h-3.1896v18.3934h2.4454v-7.1235h1.0632c.9569 0 1.8074 0 2.4453-.1063 1.2759 0 2.4454-.6379 3.296-1.4885.9573-1.0632 1.3823-2.5517 1.2763-3.9338 0-1.0632-.213-2.1264-.638-3.0833-.319-.9569-1.1699-1.7011-2.2331-2.1264Zm0 6.8045c-.2127.5316-.7443.9569-1.2759 1.1695-.9568.2126-1.9137.319-2.8706.319h-1.0632v-6.3793h1.0632c.7442 0 1.4885.0001 2.2327.1064.6379.1063 1.2759.4253 1.7011.9569.4253.6379.638 1.3821.638 2.1264 0 .6379-.1064 1.2758-.4253 1.7011Zm4.8901 11.1638V15.5319h9.357v2.4454h-6.805v16.0544h-2.552Z"/>
	<path fill="#A6CE39" d="M116.64 15h2.764c.319 0 .638.319.638.6379v18.7124c0 .319-.319.2126-.638.2126h-2.764c-.319 0-.638.1064-.638-.2126V15.6379c0-.3189.213-.6379.638-.6379Z"/>
</svg>