<svg xmlns="http://www.w3.org/2000/svg" viewBox="0 0 200 50">
	<g fill="#00447C">
		<path d="M101.432 13.4954h-5.2693v-2.7108h8.1643-.007c.982 0 1.584-.703 1.584-1.45667V7.99155H94.2183c-.9817 0-1.5834.74736-1.5834 1.50105v12.8825h9.0761c3.477 0 5.466-1.6341 5.466-4.4779 0-2.7107-2.198-4.4018-5.745-4.4018zm-.373 6.0802h-4.89v-3.2807h4.89c1.773 0 2.533.4876 2.533 1.6403-.006 1.1654-.735 1.6404-2.533 1.6404zM133.917 7.99155h-7.492c-.982 0-1.584.65235-1.584 1.45672v-.12034V22.3751h2.002c.886 0 1.526-.6524 1.526-1.4441v-4.0598h5.263c3.547 0 5.745-1.6847 5.745-4.4018.006-2.84379-1.983-4.47785-5.46-4.47785zm-.652 6.08025h-4.89V10.791h4.89c1.799 0 2.533.475 2.533 1.6404 0 1.1464-.76 1.6404-2.533 1.6404zM117.45 13.4954h-5.263v-2.7108h8.17-.006c.956 0 1.57-.6396 1.57-1.45667V7.99155h-11.685c-.982 0-1.59.71569-1.59 1.51372V22.3751h9.07c3.477 0 5.466-1.6341 5.466-4.4779.012-2.7107-2.192-4.4018-5.732-4.4018zm-.374 6.0802h-4.889v-3.2807h4.889c1.774 0 2.534.4876 2.534 1.6403-.007 1.1654-.735 1.6404-2.534 1.6404zM101.394 32.1984h-5.2376v-2.6917h8.2016c.963-.0127 1.546-.779 1.546-1.5201v-1.2667H94.212h.0063c-.9817 0-1.5771.7474-1.5771 1.5011v12.8191h9.0318c3.458 0 5.447-1.6214 5.447-4.4588 0-2.7045-2.198-4.3829-5.726-4.3829zm-.373 6.0549h-4.8646v-3.2681h4.8646c1.767 0 2.52.4877 2.52 1.6341 0 1.159-.728 1.634-2.52 1.634zM137.762 41.0401c.969 0 1.577-.7094 1.577-1.5201V26.7136h-2.014c-.931.0316-1.508.7093-1.508 1.5137v3.9901h-7.467v-5.5038h-2.014c-.95 0-1.495.7853-1.501 1.5137v12.8065h1.938c.975 0 1.577-.7664 1.577-1.5138v-4.5221h7.467v6.0359h1.945v.0063zM116.994 26.7136h-2.356c-.38 0-1.033.1393-1.444 1.0007l-6.29 13.3195h2.109c.906 0 1.882-.4751 2.281-1.3238l1.032-2.185h6.004l1.071 2.2737c.437.798 1.418 1.2351 2.235 1.2351h2.116l-6.758-14.3202zm-3.522 8.4046l1.862-3.9458 1.869 3.9458h-3.731zM156.465 26.7136h-3.503c-1.02 0-1.824.475-2.413.9563l-5.719 4.6362v-5.5925h-2.021c-.924.0316-1.501.7473-1.501 1.5137v12.8065h1.938c.976 0 1.577-.6967 1.577-1.5138v-3.4011l1.793-1.4504 4.098 5.0415c.861 1.0387 2.058 1.3238 2.748 1.3238h2.775l-7.069-8.4237 7.297-5.8965zM63.6778 15.7502c.057-.0697.0507-.171-.0126-.228-.1964-.171-.3864-.3421-.5891-.5067-2.2737-1.8241-5.0921-2.8248-8.0246-2.8248-1.2477 0-2.4827.1773-3.6671.532-2.3244.6904-4.3765 2.0204-5.9536 3.8128-1.216 1.6531-1.7164 3.0085-1.9191 3.7685-.2723 1.2477-.4433 2.5271-.494 3.8001-.247 6.1246 2.0964 12.1225 6.4286 16.4547 3.6861 3.6861 8.4806 5.9155 13.6298 6.3589.4687.038.9374.0633 1.4124.076.1647.0063.3357.0063.5004.0063 7.2392 0 14.0162-3.5658 18.133-9.532.0443-.0697.038-.152-.019-.209-.0317-.0317-.076-.0507-.1204-.0507-.0316 0-.0633.0127-.095.0253-1.7797 1.1591-3.7684 1.9064-5.8458 2.2104-.6904.1014-1.3871.1521-2.0965.1521-4.8895 0-9.2216-2.4195-11.8691-6.1309-1.349-1.8811-2.2547-4.0979-2.5841-6.4983-.0823-.6333-.133-1.273-.133-1.9317 0-3.0528.9627-6.0359 2.7171-8.4997.19-.266.3927-.532.6017-.7853z"/>
		<path d="M84.5659 32.4645c1.2161-1.6531 1.7164-3.0085 1.9191-3.7685.2723-1.2477.437-2.5208.494-3.8065.247-6.1245-2.0901-12.1161-6.4286-16.44826-4.0281-4.02182-9.3673-6.30824-15.0422-6.43491C65.3435 2 65.1725 2 65.0079 2c-.6461 0-1.2921.03167-1.9318.08867-6.5045.57002-12.4581 4.00915-16.2012 9.44333-.0444.0697-.038.1584.019.2154.0316.0316.076.0506.1203.0506.0317 0 .0633-.0126.0887-.0253 1.7797-1.159 3.7684-1.91274 5.8459-2.21042.6903-.10134 1.387-.15201 2.0964-.15201 2.9577 0 5.7192.89303 8.0246 2.41943 3.4328 2.2737 5.8522 5.9535 6.4222 10.2097.0887.627.133 1.2731.133 1.9317 0 3.3885-1.178 6.6883-3.3251 9.2914-.057.0697-.0507.1647.019.228 2.3624 2.1471 5.4215 3.3315 8.6137 3.3315 1.2477 0 2.4827-.1774 3.6671-.5321 2.3371-.703 4.3892-2.0267 5.9662-3.8254z"/>
	</g>
</svg>
