<svg xmlns="http://www.w3.org/2000/svg" viewBox="0 0 200 50">
	<path fill="#1d1d1b" d="M151 24.8v.2c0 5-4.1 9-9.1 9s-9.1-4-9.1-9 4.1-9 9.1-9h.2v-5h-.2c-7.8 0-14.1 6.3-14.1 14s6.3 14 14.1 14S156 32.7 156 25v-.2h-5zM90.7 11.5l-9.1 27h5.2l1-3c.2-.4.4-.7 1-.7h8.3c.6 0 .8.3 1 .7l1 3h5.2l-9.1-27h-4.5zm4.7 18.6h-5c-.5 0-.8-.3-.6-.9l2.6-7.8c.2-.7.8-.7 1.1 0l2.6 7.8c.2.6-.1.9-.7.9zM120.8 27.5c0 .9-.7 1.1-1.1.3l-8.4-16.3H105v27h5v-16c0-.9.7-1.1 1.1-.3l8.7 16.2h6.1v-27h-5v16.1zM70.3 33.7c-.1 0-.2-.1-.3-.2-.1-.1-.2-.2-.2-.3 0-.1-.1-.2-.1-.4V11.5h-5v27h16.1v-4.7H70.7c-.1 0-.2 0-.4-.1zM59.2 24.3c1.7-1.3 2.7-3.1 2.7-5.4 0-4.4-2.9-7.4-7.6-7.4H44v27h10.9c4.4 0 7.6-3.3 7.6-7.8 0-2.7-1.2-5-3.3-6.4zM49 16.6c0-.4.3-.7.7-.7h3.7c1.9 0 3.2 1.4 3.2 3.3s-1.3 3.3-3.2 3.3h-3.7c-.4 0-.7-.3-.7-.7v-5.2zM53.5 34h-3.7c-.4 0-.8-.3-.8-.8v-5.5c0-.5.3-.8.8-.8h3.7c2.2 0 3.6 1.5 3.6 3.5 0 2.1-1.4 3.6-3.6 3.6z"/>
</svg>