<svg xmlns="http://www.w3.org/2000/svg" viewBox="0 0 200 50">
	<path d="M59.4 0h81.2v50H59.4V0z" fill="#a61731"/>
	<path fill="#fff" d="M105 13.5L116 28c.5.6 1.4.6 1.9 0l11-14.5v18.1h5.7V4.8h-5.7l-12 15.7-12-15.7h-5.7v26.7h5.7l.1-18zM94.2 26.8v-6.9c0-2.7-2.9-4.8-5.6-4.8H70.9V9.6h21.6V4.8H65v26.7h23.6c2.6.1 5.6-2.1 5.6-4.7zm-6.1-2.4c0 1.3-1.1 2.4-2.4 2.4H70.9v-7.5h14.8c1.3 0 2.4 1.1 2.4 2.4v2.7zm-16.3 19h-5.1v-1.6h6.2v-1.4h-8v7.7h6.8c.8 0 1.6-.6 1.6-1.4v-2c.1-.7-.7-1.3-1.5-1.3zm-.1 2.7c0 .4-.3.7-.7.7h-4.3v-2.2H71c.4 0 .7.3.7.7v.8zm18.1-5.7H88l-4.3 7.7h1.7l1.1-1.9h4.7l1.1 1.9h1.8l-4.3-7.7zm-2.7 4.7l1.7-3.1 1.7 3.1h-3.4zm25.3-1.4h-5.8v-3.3h-1.7v7.7h1.7v-3.3h5.8v3.3h1.7v-7.7h-1.7v3.3zm21.7-3.3h-2.9l-3.9 3.1v-3.1h-1.7v7.7h1.7v-3.4l4.4 3.4h2.9l-5.1-4 4.6-3.7zM59.4 36h81.2v2.1H59.4V36z"/>
</svg>