<svg xmlns="http://www.w3.org/2000/svg" viewBox="0 0 200 50">
	<path fill="#3AAA35" d="M61.3226 16.8345c.6907.5756 1.036 1.3813 1.036 2.3022 0 1.3813-.8057 2.6475-2.0719 2.9928-.8563.2854-2.9705.2563-4.3283.2376-.2851-.0039-.5368-.0074-.7365-.0074V12h6.2159v1.9568h-3.9137v1.9569c1.346 0 2.6986.0042 3.7985.9208Zm-2.9928 3.4533c.781 0 1.7267-.2539 1.7267-1.1511 0-.9433-.9574-1.1511-1.7267-1.1511h-.8057v2.3022h.8057ZM92.632 12l-4.4892 4.8345 4.6043 5.5252h-2.9928l-3.5683-4.3741v4.3741h-2.3022V12h2.3022v3.9137L89.6392 12h2.9928ZM62.4737 22.3597 66.8478 12h2.072l4.259 10.3597h-2.5324l-.9209-2.0719H65.927l-.9209 2.0719h-2.5324Zm5.1799-7.1367-1.1511 2.9928h2.3022l-1.1511-2.9928Zm8.4029.5756h3.9136V12h2.3022v10.3597h-2.3022v-4.3741h-3.9136v4.3741h-2.3022V12h2.3022v3.7986Zm13.1223 11.5109h2.8777v10.4748h2.7625V27.3095h2.8777v-2.4173h-8.5179v2.4173Zm-3.9137 2.4172h-5.0648v-4.8345h-2.7625v12.8921h2.7625v-5.5252h5.0648v5.5252h2.7626V24.8922h-2.7626v4.8345Zm-19.6835-4.8345h-2.8777V35.367h-4.7194V24.8922h-2.7626v12.8921h9.2087v2.8777h2.6474v-5.295h-1.4964V24.8922Zm86.4464 12.8921h7.367V35.367h-4.605v-3.1079h4.374v-2.4173h-4.374v-2.4172h4.605v-2.4173h-7.367v12.777Zm-3.914-6.9065c.806-.5755 1.151-1.4964 1.151-2.4173 0-2.5657-2.242-3.5683-4.489-3.5683h-3.338v12.8921h4.489c2.215 0 4.489-1.2268 4.489-3.6835 0-1.4672-.824-2.8122-2.302-3.1079v-.1151Zm-3.799-3.6834h.576c.904 0 1.711.3786 1.727 1.3813.01.6528-.346 1.3812-1.036 1.3812h-1.267v-2.7625Zm.921 8.1726h-.921v-3.1079h.691c1.012 0 2.417.1688 2.417 1.4964 0 1.1832-.774 1.6115-2.187 1.6115Zm-76.8918 2.4173h7.2518V35.367h-4.4892v-3.1079h4.3741v-2.4173h-4.3741v-2.4172h4.6043v-2.4173h-7.3669v12.777ZM171.481 24.8922v2.4173h2.878v10.4748h2.762V27.3095h2.878v-2.4173h-8.518Zm-68.835 0h-3.7982v12.8921h2.8782V33.18h1.381c2.432 0 4.41-1.49 4.374-4.0288-.041-2.8763-2.229-4.259-4.835-4.259Zm-.115 5.7554h-.805v-3.3381h.69c1.023 0 2.302.3668 2.302 1.6115 0 1.4219-1.023 1.5973-2.187 1.7266Zm59.972-4.259c-1.382 1.2662-2.072 2.9277-2.072 5.0647 0 5.1503 5.889 8.2903 10.244 5.8706v-3.4533c-2.19 3.1022-7.635 1.3019-7.252-2.5324 0-4.0287 4.835-5.7554 7.252-2.5323v-3.4533c-2.525-1.403-5.996-.7778-8.172 1.036Zm-44.777 6.5612v-8.0576h-2.763v12.8921h2.187l6.561-8.1727v8.1727h2.763V24.8922h-2.187l-6.561 8.0576Zm18.762-3.2231h-5.065v-4.8345h-2.762v12.8921h2.762v-5.5252h5.065v5.5252h2.763V24.8922h-2.763v4.8345Zm-23.022 1.6114h-5.295v2.4172h5.295v-2.4172ZM34.1572 12v7.482L40.3731 12h-6.2159Zm10.59 1.0362-10.59 12.777v2.4173c1.082-2.5247 2.6174-4.3741 5.6403-4.3741 2.8473 0 4.3543 2.6834 4.9497 5.0647V13.0362Zm-5.1798 12.086c-5.5251.2302-5.5251 10.2446 0 10.3597 5.5252-.2302 5.5252-10.2446 0-10.3597Zm0 8.6331c-3.3381 0-3.3381-7.0216 0-7.0216 3.3382 0 3.3382 7.0216 0 7.0216Zm-5.4102-2.1871v6.2158h10.59v-6.2158c-.4288 2.5724-2.3701 4.9496-5.1799 4.9496-3.2634 0-4.2956-2.4172-5.4101-4.9496Zm-3.5682-7.5973-10.59 12.777V20.863c.1801.7201.3584 1.4074.6907 2.0719.8475 1.4833 2.4116 2.9928 4.259 2.9928 1.7955 0 3.3048-.6462 4.3741-2.0719.4604-.6907.9208-1.4964 1.2662-2.3022v2.4173Zm-5.295.6907c5.5252-.2303 5.5252-10.2446 0-10.3598-5.5252.2303-5.5252 10.2446 0 10.3598Zm0-8.7482c3.3381 0 3.3381 7.0215 0 7.0215s-3.3381-7.0215 0-7.0215Zm5.0647 1.7269c-.2302-.8058-.6906-1.6115-1.151-2.3022-.9556-1.2741-2.4133-2.0719-4.0288-2.0719-1.9207 0-3.6377 1.1745-4.4892 2.8777-.3454.5755-.5756 1.3813-.6907 2.0719V12h10.4748v6.2158c0-.2129-.1151-.3322-.1151-.5755Zm.2303 12.6615-6.2159 7.4821h8.7482v-1.8414H30.589v-5.6407Zm-10.0145 7.4824L41.7543 12h2.4173l-21.295 25.7842h-2.3021Zm25.3238-.1151v-1.7266c2.4173 0 4.4892 2.187 4.3741 4.6043 0 1.7266-1.036 3.4532-2.5324 4.259-1.9568.8057-4.1439.8057-6.2158.2302L30.589 42.3885c-5.9857-1.4964-8.7483-.4604-8.7483.9209H19.999c0-3.7986 5.4101-5.4101 11.3957-4.0288l10.8201 2.6475c1.1511.3453 2.3022.5755 3.4533.5755 1.2662-.1151 2.3021-1.1511 2.3021-2.4172.1152-1.2662-.9208-2.4173-2.0719-2.4173Z"/>
</svg>