<svg xmlns="http://www.w3.org/2000/svg" viewBox="0 0 200 50">
	<path fill="#0057B6" d="M9.99902 25.0063c0 8.8337 7.19948 16.0339 16.00638 16.0339 8.8336 0 16.0338-7.2002 16.0338-16.0339C42.0392 16.172 34.839 9 26.0054 9 17.1985 9 9.99902 16.172 9.99902 25.0063Zm4.98418-4.3755c4.0991-2.6865 8.6404-4.2649 16.311-2.9354.4154-.249.6369-.4704.7476-.969-1.9106-.6926-3.9876-.9416-6.674-.8866-2.4085.0557-6.7566.969-9.0826 2.326l.7201-.8858c1.6059-.9416 5.8425-2.2153 9.0001-2.271 2.2427-.055 3.4057.0832 6.0639.8033-.2214-.4704-.7751-.6926-1.5776-1.0523-2.5757-1.163-7.3942-1.2462-11.3269.4704.4987-.3322.9973-.6368 1.6342-.9133 1.3012-.5819 3.4058-1.163 6.0647-1.1355 2.132.055 4.652.7751 6.2029 2.326.2497.3047.3879.6094.4704.8583 1.2187.6369 1.9113 1.2188 2.3268 1.8831.1657.3604.2214.7476.1382 1.163.5261.3047.7751.5544 1.0248.9141.1657.2772.3046.5819.3321.8865.055.3872.1108.8026-.3046 1.3013.4154.2214.7476.7751.8033 1.0522.1939.9141-.3879 1.7999-1.1913 2.52-.8858.7758-2.8796 1.7166-4.4855 2.1321-3.2126.8033-6.0372 1.1355-8.3082 1.5509 1.0247.2497 2.3817.5818 4.652.5818 4.7635 0 9.0008-2.271 9.0008-2.271s-.0832.3047-.194.5537c-3.0186 1.8281-7.8653 2.6307-9.9416 2.5199-2.077-.0832-3.8494-.4154-5.566-.9415-.5544.1389-1.0523.3047-1.5785.5261 2.6307 1.1913 4.6246 1.4677 6.8673 1.6342 2.2985.1657 6.0922-.3879 9.3048-1.551-.1665.1665-.2215.388-.3879.5269-1.6334.8576-5.0949 1.7159-6.8398 1.7999-1.7441.055-3.8494 0-5.6775-.3604-1.6052-.3047-2.8797-.8034-4.2366-1.3845-.249.1665-.3597.4154-.4155.6644 5.2614 2.7689 10.2189 2.8246 15.8407 1.0805l-.5262.4979c-6.1762 2.4925-11.0221 1.5234-14.7601-.2772-.1107-.055-.2772-.11-.3879-.1932.3597.6086 3.2126 2.6864 6.3969 2.9629 2.2153.1939 4.9017-.194 6.5076-.8309l-.9415.4704c-.7751.3887-2.8247 1.2463-5.6768 1.0523-3.822-.2489-5.9815-1.9381-6.9231-2.8246-.4429-.4147-.6651-.8858-.8033-1.4677-.8583-.4422-1.4119-.9133-1.8556-1.6334-.2489-.3879-.1932-.8583-.1382-1.2463.0275-.1107.0557-.2489.1107-.3596-.4154-.2772-.8583-.6094-1.0248-.9416-.3871-.6651-.1382-1.2462.1115-1.7174-.2222-.2489-.4436-.4979-.5269-.775-.1107-.3047-.1107-.6094-.0825-.9416.055-.5536.3597-1.0798.7751-1.5509.8308-.9416 2.1321-1.6892 4.3756-2.4367 2.1878-.7201 3.0736-.8309 4.7352-1.2188 1.9389-.4429 4.2649-.6094 6.1755-1.2737-5.3721-.9416-10.9939-.0832-15.5635 3.0736l.3047-.8858Zm18.3881-3.3233c-.055.2497-.3604.5536-.5544.7758.6094.1382 1.1913.3597 1.7449.5811-.055-.5261-.6644-1.0247-1.1905-1.3569ZM16.7556 28.0799c-.3597-.1939-.5811-.3321-.8858-.5261-.1665.3322.1382.7201.4429.8865.1382-.1107.3047-.2221.4429-.3604Zm18.1941-7.0612c.3879.1939.7201.3322 1.0798.5811.2214-.4704.0832-.7751-.4154-1.1905-.194.2215-.4429.4154-.6644.6094Zm-1.163.7201c-.7758.3597-1.9106.7476-3.5447 1.1347-1.3295.333-4.5421.8034-8.0311 1.551-1.1072.2497-4.0701.9697-5.5385 2.1877.4154.3322.6651.4155 1.108.6644.6093-.3872 1.4394-.7476 2.6582-1.0798 2.1327-.5536 3.7112-.8026 5.65-1.108 1.9098-.3039 5.4821-1.0515 7.4484-1.7716.6651-.2215 1.2462-.5261 1.7174-.8591-.139-.1657-1.4127-.7751-1.4677-.7193Zm-15.009 8.3075c.2764-.194.6368-.3597 1.0522-.5262-.5544-.2214-1.1355-.4711-1.7174-.7483-.2489.1664-.4979.3329-.6643.5269.4429.2489.8583.4979 1.3295.7476Zm-1.8282.1657c-.0275.3604.194.6926.6651 1.0798.055-.1933.1383-.3315.304-.5254-.3322-.1665-.6644-.3605-.9691-.5544Zm2.6865-6.5901c3.9044-1.1355 8.0028-1.4959 12.1569-2.6032-1.6342-.4437-2.52-.6094-4.2366-.4154-2.4925.2764-5.2346.8308-7.5607 1.5227-.9133.2771-5.76 1.6616-4.3755 3.5722 0 .0282.8308-1.1348 4.0159-2.0763Zm14.6493-3.9884c-.6376-.2765-1.4401-.5811-2.271-.8026-.3879.3047-.8308.5811-1.4677.8026 1.0798.1939 1.8556.4986 2.7415.7483.1664.0825.8865-.6093.9972-.7483Zm1.9106 3.7662c-.1107.0832-.2489.1939-.3879.3047-.8858.6651-2.271 1.2187-4.2091 1.7448-4.0159 1.0798-6.9505 1.2463-10.2738 2.0496-.6369.1382-1.302.3597-1.9388.6369.6368.3046 1.3019.5811 1.9663.8583 1.357-.3879 1.9938-.5536 3.9602-.8866.7476-.1382 3.0461-.5261 4.6795-.8858 2.9911-.6369 7.3666-2.0213 6.2036-3.8219Zm-25.6432 1.6066c0-8.5296 6.9505-15.45267 15.4527-15.45267 8.5289 0 15.4794 6.92307 15.4794 15.45267 0 8.529-6.9505 15.4795-15.4794 15.4795-8.5022 0-15.4527-6.9505-15.4527-15.4795ZM144.251 16.0613h1.911v9.8034h2.603V13.1816h-7.089v.4704c-.003.1553-.006.3785-.01.6533-.027 2.0789-.093 7.1127-.655 8.0421-.222.4712-.692.7759-1.689.7759l.36 2.7414c2.797-.0275 3.711-1.3295 4.125-3.9044.247-1.5527.34-3.6096.416-5.2927l.001-.0112.001-.0251c.009-.1956.017-.3861.026-.57Zm-89.9168 1.6896 1.6616-4.5421h3.1011l-2.2427 6.009 2.5482 6.6466h-3.3516l-1.6334-5.0957h-.6926v5.0957h-2.8521V13.2088h2.8521v4.5421h.6094Zm102.3788 5.566V20.464h.415c.332 0 1.275 0 1.275 1.302 0 1.3295-.943 1.5509-1.275 1.5509h-.415Zm-2.88 2.5475h3.489c.776 0 3.933-.3047 3.933-4.1541 0-3.2401-2.438-3.7937-4.044-3.7937h-.498v-1.6617h3.849v-3.0461h-6.729v12.6556Zm17.944-12.6556h2.852v4.5421h2.05v-4.5421h2.852v12.6556h-2.852V20.797h-2.05v5.0674h-2.852V13.2088Zm13.155 4.5421 1.661-4.5421h3.101l-2.243 6.009 2.548 6.6466h-3.351l-1.661-5.0957h-.666v5.0957h-2.852V13.2088h2.852v4.5421h.611Zm-18.749-.693.554 3.8495h-1.107l.553-3.8495Zm-4.347 8.8337h2.964l.358-2.1878h2.022l.388 2.1878h2.963l-2.52-12.6556h-3.683l-2.492 12.6556ZM63.3069 16.006h.6918c.6651 0 1.0798.3879 1.0798 1.4402 0 1.3569-.6919 1.4669-1.0798 1.4669h-.6918V16.006Zm-2.9354 9.8584h2.9354v-4.1816h.969c2.9079 0 3.7937-2.6032 3.7937-4.2649 0-1.6334-1.0248-4.2091-3.7937-4.2091h-3.9044v12.6556Zm11.5751-4.7628h2.5474v-3.1575h-2.5474v-1.5784h3.6554v-3.1569h-6.6183v12.6556h6.6183v-3.1569h-3.6554v-1.6059Zm62.4464-4.0708.554 3.8486h-1.108l.554-3.8486Zm-4.348 8.8336h2.963l.361-2.1878h2.049l.332 2.1878h2.991l-2.521-12.6556h-3.683l-2.492 12.6556Zm-3.517-9.8584h-.692v2.9071h.692c.388 0 1.081-.11 1.081-1.4669 0-1.0523-.416-1.4402-1.081-1.4402Zm-.692 9.8584H122.9V13.2088h3.905c2.769 0 3.794 2.5757 3.794 4.2091 0 1.6617-.887 4.2649-3.794 4.2649h-.969v4.1816Zm-17.834-12.6556v3.1569h-2.852v9.4987h-2.963v-9.4987h-2.8807l.0283-3.1569h8.6674Zm-16.4771 0h-2.9078v12.6556h2.9078l3.5165-6.8956v6.8956h2.9354V13.2088h-2.9354l-.0011.0023-.0001.0001v.0002l-.0002.0004-.0005.0009c-1.1624 2.2972-2.3247 4.5944-3.5146 6.9191v-6.923Zm24.7291 9.1383-3.156-9.1383h2.879l1.744 5.7326 1.69-5.7326h2.687l-3.157 10.1356c-.389 1.163-1.246 2.4925-2.631 2.4925-.554.0825-1.357-.2772-1.772-.5544l-.249-.1382.359-2.6307c.221.1107.942.4429 1.302.4986.249.0275.443-.2214.304-.6651Zm-34.3933-5.9257-.0042.1192v.0001c-.0544 1.5426-.1114 3.1598-.2729 4.6717-.0833.6918-.2215 1.3569-.4987 1.9938h2.0496v-6.7848h-1.2738Zm-3.8494 6.7848c.0825-.1107.139-.2222.194-.3329.3596-.6919.4704-1.5227.5261-2.2985.1877-1.9537.2566-4.0083.3237-6.0096v-.0001c.0119-.3524.0236-.7033.036-1.0516l.0282-.3047h6.8398v9.9974h1.0791v5.4553h-2.575v-2.6589h-4.901v2.6589H76.959v-5.4553h1.0523Zm68.3167 9.6079.803 2.0213h-1.634l.831-2.0213Zm-16.062 0 .803 2.0213h-1.634l.831-2.0213Zm-4.707 3.0736h-.997v-1.6609h.997c.526 0 .969.249.969.8301 0 .5819-.443.8308-.969.8308Zm-10.025-1.9098c0 1.1072-.803 1.9938-1.939 1.9938-1.135 0-1.938-.8866-1.938-1.9938 0-1.1363.803-1.9946 1.938-1.9946 1.136 0 1.939.8865 1.939 1.9946Zm-7.089-.3047h-1.053v-1.6067h1.053c.526 0 .886.249.886.8033 0 .5537-.36.8034-.886.8034Zm-15.4248-.8591.8308 2.0213h-1.6341l.8033-2.0213Zm-15.2863 0 .8034 2.0213h-1.6334l.83-2.0213Zm-20.9905.8591h-1.0523v-1.6067h1.0523c.5262 0 .8866.249.8866.8033 0 .5537-.3604.8034-.8866.8034Zm88.3936 2.0488h2.354l.415.969c.028.0558.083.0833.167.0833h.664c.041 0 .066-.0148.099-.0338.012-.0069.025-.0144.04-.022.028-.055.028-.11 0-.1657l-2.299-5.3728c-.027-.055-.083-.1108-.138-.1108h-.249c-.056 0-.111.0558-.139.1108l-2.298 5.3728c-.027.0543-.001.1079.025.1615l.002.0042c.027.0283.083.0558.138.0558h.638c.082 0 .138-.0275.166-.0833l.415-.969Zm-8.058-2.3818h-2.659v-2.0213c0-.0832-.055-.1389-.138-.1389h-.637c-.083 0-.166.0557-.166.1389v5.2896c0 .11.083.1658.166.1658h.637c.083 0 .138-.0558.138-.1658v-2.3817h2.659v2.3817c0 .11.055.1658.167.1658h.608c.083 0 .166-.0558.166-.1658v-5.2896c0-.0832-.083-.1389-.166-.1389h-.608c-.112 0-.167.0557-.167.1389v2.0213Zm-8.004 2.3818h2.355l.414.969c.029.0558.084.0833.167.0833h.664c.042 0 .068-.0153.102-.0348.011-.0067.023-.0138.037-.021.028-.055.028-.11 0-.1657l-2.298-5.3728c-.029-.055-.084-.1108-.139-.1108h-.249c-.055 0-.11.0558-.138.1108l-2.299 5.3728c-.027.0557 0 .1107.028.1657.028.0283.083.0558.139.0558h.636c.084 0 .139-.0275.166-.0833l.415-.969Zm-4.513-2.3818v-1.2737h2.354c.083 0 .166-.0832.166-.1657v-.5819c0-.0832-.083-.1389-.166-.1389h-3.129c-.111 0-.167.0557-.167.1389v5.2896c0 .11.056.1658.167.1658h1.772c1.08 0 1.938-.6087 1.938-1.7174 0-1.1073-.886-1.7167-1.938-1.7167h-.997Zm-4.431 1.8839 1.412-1.8839v3.2683c0 .11.056.1658.139.1658h.638c.082 0 .165-.0558.165-.1658v-5.3728c0-.0832-.083-.1665-.165-.1665h-.223c-.054 0-.082.0272-.135.0801l-.003.0032-2.078 2.8521-2.076-2.8521c-.028-.055-.084-.0833-.138-.0833h-.222c-.083 0-.166.0833-.166.1665v5.3728c0 .11.083.1658.166.1658h.637c.083 0 .166-.0558.166-.1658v-3.2958l1.412 1.9114.001.0011c.028.0271.055.0539.11.0539h.222c.055 0 .111-.0275.138-.055Zm-9.443-1.2462c0 1.6334 1.274 2.9071 2.907 2.9071 1.607 0 2.908-1.2737 2.908-2.9071 0-1.6342-1.301-2.9087-2.908-2.9087-1.633 0-2.907 1.2745-2.907 2.9087Zm-3.296 2.6306V34.559h1.081c1.024 0 1.855-.6094 1.855-1.6892 0-1.0797-.831-1.6898-1.855-1.6898h-1.856c-.11 0-.166.0557-.166.1389v5.2896c0 .11.056.1658.166.1658h.61c.083 0 .165-.0558.165-.1658Zm-5.593-4.542h2.547v4.542c0 .11.084.1658.167.1658h.637c.082 0 .165-.0558.165-.1658v-5.2896c0-.0832-.083-.1389-.165-.1389h-4.127c-.11 0-.166.0557-.166.1389v5.2896c0 .11.056.1658.166.1658h.609c.084 0 .167-.0558.167-.1658v-4.542Zm-1.745 3.0186c0-.5811-.2765-1.0805-.7477-1.3569.3047-.2765.4712-.6369.4712-1.0523 0-1.0248-.8033-1.6067-1.7724-1.6067-.8033 0-1.4677.3605-1.8831 1.053-.0282.0825-.0282.1658.055.2215l.4429.3322c.0283.0275.0833.0275.1115.0275.055 0 .0825-.0275.1107-.0825.2772-.4162.6361-.6376 1.163-.6376.4712 0 .8033.2214.8033.7201 0 .4436-.3054.6643-.7483.6643h-.6643c-.0833 0-.1665.084-.1665.1665v.5811c0 .0833.0832.139.1665.139h.6368c.5262 0 1.0523.194 1.0523.8026 0 .6093-.5536.9148-1.0798.9148-.6093 0-1.0805-.3604-1.4119-.8591l-.0022-.0021c-.0275-.0268-.055-.0536-.1093-.0536-.0275-.0268-.0832 0-.1107.0282l-.4704.3322c-.0558.055-.0833.139-.0283.2215.4437.775 1.2188 1.2462 2.1328 1.2462 1.0523 0 2.0489-.6644 2.0489-1.7999Zm-8.2243.6369h2.3817l.4147.969c.0282.0558.0832.0833.139.0833h.6651c.055 0 .1099-.0275.1374-.0558.0283-.055.0565-.11.0283-.1657L93.2974 31.18c-.0283-.055-.0833-.1108-.1382-.1108h-.2497c-.055 0-.1108.0558-.1383.1108l-2.2985 5.3728c-.0275.0557-.0275.1107.0275.1657.0275.0283.055.0558.1115.0558h.6644c.0824 0 .1382-.0275.1657-.0833l.3879-.969Zm-3.1851.8865v-4.542h2.3268c.1107 0 .1657-.0832.1657-.1657v-.5819c0-.0832-.055-.1389-.1657-.1389H87.842c-.0832 0-.1664.0557-.1664.1389v5.2896c0 .11.0832.1658.1664.1658h.6369c.0832 0 .1657-.0558.1657-.1658Zm-12.1012-.8865h2.381l.3887.969c.0275.0558.0825.0833.1657.0833h.6651c.055 0 .11-.0275.1382-.0558.0268-.055.0268-.11 0-.1657l-2.271-5.3728c-.0275-.055-.0832-.1108-.1664-.1108h-.2207c-.084 0-.139.0558-.1672.1108l-2.2703 5.3728c-.0283.0557-.0283.1107 0 .1657.0275.0283.0832.0558.1382.0558h.6651c.055 0 .11-.0275.1382-.0833l.4154-.969Zm-5.5385-3.6555h2.5482v4.542c0 .11.0825.1658.165.1658h.6376c.0832 0 .1664-.0558.1664-.1658v-5.2896c0-.0832-.0832-.1389-.1664-.1389h-4.1541c-.0825 0-.1658.0557-.1658.1389v5.2896c0 .11.0833.1658.1658.1658h.6368c.0832 0 .1665-.0558.1665-.1658v-4.542Zm-5.5936 0h2.5475v4.542c0 .11.0832.1658.1657.1658h.6376c.0825 0 .1657-.0558.1657-.1658v-5.2896c0-.0832-.0832-.1389-.1657-.1389H64.608c-.0832 0-.1665.0557-.1665.1389v5.2896c0 .11.0833.1658.1665.1658h.6369c.0832 0 .1664-.0558.1664-.1658v-4.542Zm-6.6191-.6643 2.0496 4.1258c-.1382.2772-.3047.4437-.6094.4437-.1382 0-.2764-.0283-.3871-.0558-.0558 0-.1115 0-.139.0275-.0275.0283-.055.0833-.055.1383v.5268c0 .0825.0275.1383.1107.1658.1382.055.3322.0832.4704.0832.9416 0 1.302-.6651 1.6617-1.412l1.9106-4.0433c.0282-.055 0-.1115-.0275-.1665-.0275-.0275-.0833-.0557-.1383-.0557h-.6368c-.0558 0-.1107.0282-.139.0832l-1.4952 3.1851-1.5784-3.1851c-.0275-.055-.0832-.0832-.1664-.0832h-.6919c-.0557 0-.1107.0282-.139.0557-.0275.055-.0275.1115 0 .1665Zm-3.1011 5.2063V34.559h1.0798c1.0248 0 1.8556-.6094 1.8556-1.6892 0-1.0797-.8308-1.6898-1.8556-1.6898h-1.8556c-.11 0-.1657.0557-.1657.1389v5.2896c0 .11.0557.1658.1657.1658h.6094c.0832 0 .1664-.0558.1664-.1658Zm-4.0426 0v-4.542h2.326c.1107 0 .1657-.0832.1657-.1657v-.5819c0-.0832-.055-.1389-.1657-.1389h-3.1301c-.0825 0-.1657.0557-.1657.1389v5.2896c0 .11.0832.1658.1657.1658h.6369c.0832 0 .1672-.0558.1672-.1658Zm90.6365-5.4003-2.187 2.2435v-2.1328c0-.0832-.056-.1389-.167-.1389h-.609c-.083 0-.166.0557-.166.1389v5.2896c0 .11.083.1658.166.1658h.609c.111 0 .167-.0558.167-.1658v-2.4932l2.408 2.6032c.028.0558.056.0558.112.0558h.802c.056 0 .111-.0275.138-.0833.029-.055.029-.1382-.027-.1664l-2.465-2.7414 2.243-2.3261c.056-.0549.056-.1382.029-.1939-.029-.055-.084-.0832-.139-.0832h-.803c-.056 0-.083 0-.111.0282Z"/>
</svg>