<svg xmlns="http://www.w3.org/2000/svg" viewBox="0 0 200 50">
	<path fill="#006f8b" d="M96.5 21c.1 0 .4.3.7.6.6.7 1.1.7 1.5.2.4-.5.3-.9-.1-1.5-.5-.5-1.3-.6-2.2-.2-.7.3-1.2 1-2.2 2.7-.7 1.2-1.7 2.1-1.9 2-.1-1.1-.1-3.2-.1-3.8.4-.1 1.4-.2 1.5-.6.1-.2-.6-.2-2.5-.2s-2.6.1-2.5.2c.1.4 1 .5 1.4.6v8.4c-.3.1-1.5.5-1.5.8 0 .2 4.1.3 4.7.2.8-.2-.7-.7-1-.8v-1.4c-.1-3.1-.1-2.9.4-2.8.6.1 1.6 1.4 2.6 3.4l.8 1.7h1.5c1.6 0 1.9-.2 1-.6-.7-.3-1.3-1.1-2.3-2.8-.7-1.3-1.8-2.6-2.1-2.6-.2 0 .9-1.8 1.7-2.7.1-.4.5-.8.6-.8zM136.7 29.9c-.2 0-.5-.2-.7-.4-.1-.2-.7-1.7-1.3-3.3-2-5.4-2.4-6.3-2.8-6.3-.3 0-.5.3-1.4 2.9-.6 1.6-1.3 3.7-1.6 4.7-.6 1.9-.9 2.4-1.4 2.4-.4 0-.8.2-.8.4 0 .1.8.2 1.8.2s1.8-.1 1.8-.2c0-.2-.4-.4-.8-.4-.2 0-.3-.1-.3-.4 0-.5 2-6.5 2.1-6.5.4 0 2.3 5.9 2.4 6.7-.1.1-.2.2-.4.2-.4 0-.8.2-.8.4 0 .1 1.1.2 2.4.2 1.8 0 2.4-.1 2.3-.2-.1-.2-.3-.4-.5-.4zM172.2 28.7c-1 1.1-1.8 1.4-2.9 1.2-1.5-.3-2.4-1.7-2.6-4-.2-2.4.5-4.4 1.7-5 1.2-.7 3.1-.2 3.9 1 .2.3.5.6.7.6.7.1.1-2.2-.4-2.4-1.2-.6-3.9-.4-5 0-1 .4-2.3 1.7-2.8 2.9-.6 1.4-.5 3.5.1 4.7.6 1.1 1.6 2.1 2.6 2.5.9.4 3.8.4 4.8 0 .7-.2 1-.7 1.1-1.9.2-.8-.1-.8-1.2.4zM184.5 29.9c-.8-.4-1.1-.7-2.3-2.8-.6-1.1-1.2-2-2.3-2.7.4-.6.9-1.2 1.2-1.8.5-.8 1.1-1.6 1.4-1.6.1 0 .4.3.7.6.6.7 1.1.7 1.5.2.4-.5.3-.9-.1-1.5-.6-.7-1.6-.6-2.5 0-.7.6-1 .9-2 2.6-.7 1.2-1.5 2-1.8 1.8-.1 0-.1-.9-.1-2l.1-1.9c.3-.1 1.3-.2 1.4-.6.1-.2-.5-.2-2.5-.2s-2.6.1-2.5.2c.2.6 1.2.4 1.5 1 .1.3.2 2.1.2 4.1 0 4 0 4-1.1 4.4-1.1.4-.6.6 1.7.6h2.4c.8-.2-.9-.7-1.1-.8v-2.2c0-2.2 0-2.2.4-2.1.6.2 1.6 1.6 2.6 3.4l.9 1.7c.8 0 2-.2 2.7.1.2.1.3 0 .3-.2-.2 0-.4-.2-.7-.3zM86.7 29.8l-.6-.2v-8.7c.3-.1 1.2-.2 1.3-.6.1-.2-.5-.2-2.4-.2-2.4 0-3.1.2-2 .5.9.2.9.4.9 2.4v1.9h-5.2V23c-.1-2.1 0-2.2.9-2.2.4 0 .5-.1.5-.3 0-.2-.4-.3-2.5-.3-1.9 0-2.5.1-2.4.2.1.4 1 .4 1.4.4 0 1.3.5 8.9-.3 9.1-.8.1-1.1.3-1.1.4 0 .1 1 .2 2.5.2s2.5-.1 2.5-.2c0-.2-.3-.3-1.1-.4-.3-.1-.3-.2-.4-2.1v-2.1H84v2c0 2.2 0 2.2-1.1 2.2-.2 0-.4.1-.4.3 0 .2.4.3 2.5.3 1.9 0 2.5-.1 2.4-.2 0-.2-.3-.4-.7-.5zM144.8 20.2c0 .1.3.3.7.4 1.2.5 1.1.7-1.8 4-1.4 1.6-2.6 2.9-2.7 2.8-.1-.1-.1-6.5 0-6.6.3-.3 1.2-.1 1.4-.6.1-.2-.5-.2-2.4-.2-2.1 0-2.5 0-2.5.3 0 .5 1.2.2 1.3.9.1.6.2 6.6 0 7.7-.1 1-1.4.8-1.4 1.3 0 .1 1.1.2 2.5.2 1.9 0 2.5-.1 2.4-.2-.2-.7-1.3-.1-1.4-1-.1-.5.2-.8 2.6-3.5l2.6-2.9v3.3c.1 3.6 0 3.8-1 3.8-.3 0-.5.1-.5.3 0 .2.4.3 2.4.3 1.9 0 2.4 0 2.4-.3 0-.4-1-.5-1.3-.5l.1-8.7c.3-.1 1.4-.4 1.4-.7 0-.1-1.1-.2-2.5-.2-1.2 0-2.3 0-2.3.1zM160.6 20.1c-1.4 0-2.5.1-2.5.2 0 .3 1.2.5 1.5.6v4h-5.3l.1-4.1c.3 0 1.4 0 1.4-.4 0-.2-.4-.3-2.5-.3-1.9 0-2.5.1-2.4.2 0 .1.3.3.5.3.9.1.9.1.9 4.8s.1 4.3-1 4.5c-.2 0-.3.2-.4.3-.1.2.5.2 2.4.2s2.5-.1 2.4-.2c-.1-.4-1-.4-1.4-.4l-.1-4.1h5.3v4c-.3.1-1.3.2-1.4.6-.1.2.5.2 2.3.2 2 0 2.4 0 2.4-.3 0-.4-1-.5-1.3-.5v-8.8c.3-.1 1.3-.2 1.4-.6.2-.2-.4-.2-2.3-.2zM123.4 20.5c-1.3-.7-3.3-.9-4.6-.4-2.7 1-4 3.9-3.1 6.9.4 1.3 1.3 2.4 2.4 3.1.8.4 3.1.6 4.3.3 1.2-.3 2.3-1.2 3-2.5 1.3-2.5.5-5.9-2-7.4zM121 30c-2.1.3-3.3-1.5-3.3-5 0-1.4.2-3.5 1.7-4.2.5-.2 1.8-.1 2.4.2.8.4 1.4 1.2 1.6 2.5.5 2.2.5 6-2.4 6.5zM113.9 30c-.5-.2-.7-.5-1.3-2.1-.4-1-1.3-3.2-2-4.8-1.2-2.7-1.4-3.1-1.8-3.1-.4-.1-.5.1-1.2 1.8-.4 1-1.3 3.1-1.9 4.6-1.3 3.1-1.5 3.5-2.1 3.5-.4 0-.5.1-.7 1.8-.1.7-.1.9.2.9.1 0 .4-.3.6-.8.6-1.4.6-1.4 5.1-1.3 4.3.2 4.4.2 5 1.4.2.4.4.8.5.8.1 0 .2-.6.2-1.2 0-1.2 0-1.2-.6-1.5zm-5.6-.3c-2.4 0-2.7 0-2.7-.3s2.5-6.8 2.6-6.8c0 0 .7 1.5 1.5 3.3.8 1.8 1.4 3.4 1.4 3.5-.1.2-.5.3-2.8.3zM74.5 29.9c-.6 0-.8-.4-1.9-3.5-2.4-6.4-2.4-6.5-2.8-6.5-.2 0-.5.2-.6.4s-.4 1-.6 1.8c-.5 1.4-1.3 3.8-2.2 6.2-.5 1.3-.5 1.4-1.1 1.6-.4.1-.6.3-.6.4s.8.2 1.8.2c1.8 0 2.3-.2 1.2-.5-.5-.2-.6-.2-.6-.7 0-.8.4-1.6.7-2.4h2.9c.3.8.9 1.9.9 2.8 0 .1-.3.3-.7.3-1.3.2-.6.5 1.7.5h2.5c.1-.1-.3-.6-.6-.6zM68 26c0-.3 1-3 1.1-3 .2 0 1.2 2.7 1.2 3 0 .1-2.3.1-2.3 0zM59.5 24.5h-1.4l.1-3.5 3.5-.1.5 1c.7 1.3 1 1.3 1-.3 0-1.1 0-1.2-.4-1.3-.2-.1-2.1-.1-4.2-.1-3.3 0-3.8 0-3.8.3 0 .2.2.3.5.3s.6.1.7.2c.3.3.3 8.8 0 8.9-.3.1-1.1.2-1.1.5 0 .2.7.2 3.2.2 3.1 0 3.2 0 4.1-.5 1.1-.6 1.6-1.4 1.6-2.7-.1-2.3-2.5-2.9-4.3-2.9zm2.1 3.9c-.3 1.1-1 1.5-2.3 1.5-1 0-1 0-1.1-.6-.1-.3-.1-1.4-.1-2.3 0-1.6 0-1.7.4-1.8.6-.1 1.8.1 2.3.4.7.5 1.1 1.7.8 2.8zM32.8 7C23 7 15 15 15 24.8s8 17.8 17.8 17.8 17.8-8 17.8-17.8S42.6 7 32.8 7zm8.4 31.1c-1.1.6-2.1.8-3.3.8-2.1 0-3.4-.5-4.8-1.8-2-1.8-2.8-4.6-2.1-7.2 1.3-4.5 5.9-6.3 11.6-4.6.6.2 1.2.3 1.2.3 0-.3-2.3-2-3.9-2.7-3.4-1.7-7.8-2.1-11.5-1.1-1.2.4-4 1.6-4 1.8 0 0 .4-.1 1-.2 1.5-.4 3-.4 4.5-.5l-1.3.9c-1.3.8-4 3.4-4 3.7 0 .1.1.2.3.2.1 0 0 .1-.2.2s-.6.3-1 .6c-.8.4-2.1 1.2-2.7 1.8-.7.6-1.2 1-1.2.9.6-1.3 2.2-3 3.1-4-.9.5-1.2.4-.2-.5 1.3-1.2 1.3-1.2 2-1.6.3-.2.6-.4.5-.4-.3 0-2.3.8-3.3 1.3-.7.3-1.2.6-1.3.5-.2-.2 2.2-2.8 3.7-3.9 3-2.2 6.3-3 10-3.1-4.1-2.2-8.7-2.8-13.3-1.5-.9.3-1.8.7-2.7 1 2.4-5.7 8-9.7 14.6-9.7 8.7 0 15.8 7.1 15.8 15.8-.1 5.3-3.1 10.2-7.5 13z"/>
</svg>