<svg xmlns="http://www.w3.org/2000/svg" viewBox="0 0 200 50">
	<path fill="#3CAE61" d="M178.862 33.4464h-4.422V18.394h4.422v5.6141h1.845l3.884-5.6141h4.964l-5.25 7.4326L190 33.4464h-4.964l-4.391-5.9575h-1.783v5.9575Zm-19.768 0h-3.846V18.394h4.419v8.468l6.807-8.468h3.815v15.0524h-4.388v-8.468l-6.807 8.468Zm-40.578-22.3202v8.8652h3.592l5.627-8.8654h5.31l-7.218 10.8735 7.632 11.4467h-5.279l-6.072-9.1205h-3.592v9.1205h-4.768v-22.32h4.768Zm33.097 7.2678v15.2538h-4.567V21.8891h-4.042c-.445 6.6297-1.593 11.716-5.576 12.0592l-2.934-3.9119v-.0084c.328.1275.657.1899.952.1899 2.498 0 3.056-4.9899 3.351-11.8211h12.813l.003-.0028Z"/>
	<path fill="#435861" d="M77.9545 11h16.0792l-13.9446 4.6723-.0596-1.8155-2.075-2.854V11Zm21.5279 10.3829v3.1148l3.3106-.0313c1.032 0 1.874-.3972 1.874-1.5262 0-1.2228-.907-1.5886-1.905-1.5886l-3.2796.0313Zm0 5.7105v3.1148h3.9146c1.123 0 2.053-.3888 2.053-1.5263 0-1.2284-.961-1.5857-2.053-1.5857h-3.9146v-.0028Zm4.9746 6.2296h-9.3857V18.2709h8.1557c3.64 0 5.194 1.9801 5.194 4.0168 0 1.0978-.471 2.7688-1.812 3.3787 1.814.5362 2.988 1.7618 2.988 3.5801 0 2.1333-1.276 4.0765-5.14 4.0765Zm-24.7279.1249h-3.847V18.3955h4.4195v8.468l6.8065-8.468h3.8159v15.0524h-4.3885v-8.468l-6.8064 8.468Zm-15.2234-6.8736c-1.5903 0-3.1494.5644-3.1494 2.1928 0 1.1972 1.0291 1.9602 2.3387 1.9602 1.2162 0 2.3701-.366 3.3678-1.2964v-2.4908c-.6547-.1672-1.6526-.3658-2.5571-.3658Zm-.5952-8.8256c4.5613 0 7.4755 1.8696 7.4755 6.8737v4.8453c0 .7917.5074 1.0128 1.0773 1.0128.2522 0 .5386-.0312.8249-.1277v2.8822c-.6974.2526-1.5847.4425-2.438.4425-1.5535 0-2.7242-.57-3.3563-1.7106-1.4885 1.1718-3.2319 1.8696-5.4799 1.8696-2.852 0-5.321-1.6482-5.321-4.6552 0-3.8638 3.6428-5.0694 6.6845-5.0694 1.2048 0 2.5345.1587 3.6118.4114v-.5391c0-1.5206-1.205-2.5645-3.5806-2.5645-1.1623 0-2.2565.1759-3.2459.4311l-1.9703-3.1489c1.2701-.4085 3.4812-.9588 5.7236-.9588l-.0056.0056Zm-13.9674 8.0454c0-2.4142-1.5535-4.4114-4.1671-4.4114-2.0156 0-3.504 1.2227-4.1333 2.5759-.1728.5306-.2581 1.1432-.2581 1.8355 0 .6922.0881 1.3049.2581 1.8355.6293 1.3531 2.1177 2.5758 4.1333 2.5758 2.6108 0 4.1671-1.9971 4.1671-4.4113Zm-2.8745-8.0454c4.8987 0 7.5436 3.9347 7.5436 8.1248 0 4.1899-2.6421 8.1247-7.5436 8.1247-2.4493 0-4.0936-.9929-5.0942-2.0794v9.7644l-4.4819 1.3871V18.1969h3.9659v2.2384c.9667-1.3758 2.7413-2.6866 5.6102-2.6866ZM18.7512 14.143 16.3219 11h15.1976v18.34h2.8632v9.1716H30.136v-4.9078H14.2467v4.9078H10v-9.1714h2.8036l5.9448-15.1998.0028.0028v-.0002Zm-1.2191 15.5463h9.0687v-14.014h-3.586l-5.4827 14.014Z"/>
</svg>