<svg xmlns="http://www.w3.org/2000/svg" viewBox="0 0 200 50">
	<g fill="#d1001b">
		<path d="M49 29.3c.6.7 1.6.9 2.9.9H56c3.1 0 3.8-1.7 3.8-4.6v-3.4c0-2.8-.7-4.7-3.8-4.7h-4.2c-2.4 0-3.8 1.3-3.8 3.7v.3h1.7v-.3c0-.7.1-1.1.4-1.3s.8-.5 1.7-.5H56c2 0 2.2 1 2.2 2.8v.6H50v1.9h8.2v1c0 1.8-.2 2.7-2.2 2.7h-4.2c-1.4 0-2.1-.4-2.1-1.8v-.3H48v.3c0 1.1.4 2 1 2.7zM61 30.2h1.6v-3.9h5.8v3.9h1.8v-9.1h-1.8v3.4h-5.8v-3.4H61v9.1zM89.8 22.2c-.6-.8-1.5-1.1-2.5-1.1h-2.7c-.6 0-1.1.1-1.5.4H83v-.4h-1.7v12.5H83v-3.8c.5.3 1.1.5 1.7.5h2.6c1.1 0 1.8-.3 2.4-1.1.5-.6.7-1.5.7-2.6v-1.8c.1-1.1-.2-1.9-.6-2.6zm-1 4.4c0 1.3-.5 1.9-1.8 1.9h-2.2c-1.2 0-1.7-.8-1.7-1.9l-.1-.9.1-.9c0-1.1.5-1.9 1.7-1.9H87c1.3 0 1.8.6 1.8 1.9v1.8zM92.9 30.2v-7.4h5.4v-1.7h-7.1v9.1zM107.5 22.2c-.6-.8-1.5-1.1-2.6-1.1h-2.7c-1.1 0-2 .3-2.6 1.1-.5.7-.8 1.5-.7 2.5v1.8c0 2.2.9 3.7 3.3 3.7h2.7c1.1 0 2-.3 2.6-1.1.5-.7.7-1.5.7-2.5v-1.8c.1-1.1-.2-2-.7-2.6zm-1 4.3c0 1.2-.5 2-1.7 2h-2.6c-1.1 0-1.7-.6-1.7-2v-1.8c0-1.2.4-1.9 1.7-1.9h2.6c1.3 0 1.7.8 1.7 1.9v1.8zM121.9 19.4v10.8h1.7V17.7h-2.7l-4.5 9.6-4.6-9.6h-2.7v12.5h1.7V19.3l5.1 10.9h.9l5.1-10.8zM130.6 21.1h-3c-.8 0-1.5.2-2 .7-.5.5-.9 1.1-.7 1.7h1.7c.1-.2.1-.3.1-.3.2-.2.5-.4 1.2-.4h2.6c.5 0 .8.1 1 .4.1.2.3.5.3 1v.3c-.2-.1-.5-.1-.9-.1h-4c-.7 0-1.4.2-1.8.7-.4.4-.6 1-.6 1.7v1c0 1.7 1 2.5 2.6 2.5h3.8c.3 0 .6-.1.9-.2v.2h1.7v-5.7c0-2.1-.7-3.5-2.9-3.5zm.2 7.3h-3.4c-.5 0-.8-.1-.9-.3-.1-.1-.2-.3-.2-.7v-.6c0-.4.1-.6.2-.7.1-.1.3-.2.9-.2h3.4c.8 0 1.1.4 1.1 1.2 0 1-.3 1.3-1.1 1.3zM134.5 21.1v9.1h14.2v-9.1H147v7.3h-4.5v-7.3h-1.8v7.3h-4.5v-7.3zM156.6 22.6h-5.1v-3h7.9v-1.9h-9.6v12.6h7.2c2.6 0 3.3-1.3 3.3-3.8 0-2.7-1-3.9-3.7-3.9zm.4 5.7h-5.5v-3.8h5.3c1.5 0 1.7.6 1.7 2 .1 1.3-.1 1.8-1.5 1.8zM167 21.1h-3c-.8 0-1.5.2-2 .7-.5.5-.9 1.1-.7 1.7h1.7c.1-.2.1-.3.1-.3.2-.2.5-.4 1.2-.4h2.6c.5 0 .8.1 1 .4.1.2.3.5.3 1v.3c-.2-.1-.5-.1-.9-.1h-4c-.7 0-1.4.2-1.8.7-.4.4-.6 1-.6 1.7v1c0 1.7 1 2.5 2.6 2.5h3.8c.3 0 .6-.1.9-.2v.2h1.7v-5.7c0-2.1-.8-3.5-2.9-3.5zm.1 7.3h-3.4c-.5 0-.8-.1-.9-.3-.1-.1-.2-.3-.2-.7v-.6c0-.4.1-.6.2-.7.1-.1.4-.2.9-.2h3.4c.8 0 1.1.4 1.1 1.2 0 1-.3 1.3-1.1 1.3zM171 30.2h1.7v-3.9h5.8v3.9h1.7v-9.1h-1.7v3.4h-5.8v-3.4H171v9.1zM181.3 21.1v9.1h1.7V26h.5l4.1 4.2h2.4l-5-5 4.7-4.1h-2.6l-3.5 3.2h-.6v-3.2h-1.7zM78.7 27v.3c0 .8-.4 1.2-1.2 1.2h-3.2c-.5 0-.9-.1-1.1-.4-.3-.3-.5-.8-.5-1.6V26h7.5v-1.7c0-.9-.3-1.7-.8-2.3-.6-.7-1.5-1-2.4-1h-2.8c-1 0-1.8.4-2.4 1.1-.5.7-.8 1.5-.8 2.4v2.2c0 2.2 1.1 3.5 3.2 3.5h3.3c.9 0 1.7-.4 2.2-1.1.4-.5.6-1.1.6-1.8V27h-1.6zm-4.5-4.2h3.1c.5 0 .8.1 1.1.5.2.3.3.7.3 1.1h-5.9c.1-.9.5-1.6 1.4-1.6zM10 37.3c1.6.5 3.3.8 5.1.8 7.7 0 13.9-5.3 14.4-12.2h-9.2c-.6 0-1.1-.4-1.1-.9s1.1-.9 1.1-.9h9.2C29 17.3 22.7 11.9 15 11.9c-1.8 0-3.5.3-5.1.9v9.1h9.5c.6 0 1.1.4 1.1.9s-1.1.9-1.1.9H10v13.6z"/>
		<path d="M24.2 9.9h13.9c1.7 0 3 1.3 3 3v24.3c0 1.7-1.3 3-3 3H24.3c5.9-3 9.8-8.7 9.8-15.1.1-6.6-4-12.3-9.9-15.2z"/>
	</g>
</svg>