<svg xmlns="http://www.w3.org/2000/svg" viewBox="0 0 200 50">
	<path fill="#fda329" d="M17.9 23.3c1.3-3.1-.3-6.7-3.4-7.9-.3-.1-.7-.2-1-.3-.4-.1-.8-.1-1.3-.1-.8 0-1.5.1-2.3.5v11.3c3.2 1.2 6.8-.3 8-3.5zM26.7 27.2c3.4 0 6.1-2.7 6.1-6.1 0-3.4-2.7-6.1-6.1-6.1-3.4 0-6.1 2.7-6.1 6.1.1 3.4 2.8 6.1 6.1 6.1zM10 29.5h33.5v4.6H10zM43.5 26.7V15.5c-.4-.2-.8-.3-1.2-.4-.3-.1-.7-.1-1-.1-.8 0-1.5.2-2.3.5-3.1 1.3-4.6 4.8-3.4 7.9 1.2 3.1 4.7 4.6 7.9 3.3z"/>
  	<path fill="#004259" d="M138.7 22.3c-1.7 0-3 .5-3.9 1.5.5-1.2 1.3-2 3.5-2.9 1.6-.6 2.8-1.2 3.6-1.8.8-.6 1.3-1.4 1.5-2.5l-2.8-1.6c-.5 1-.7 1.5-1.7 2.1-.2.1-.3.2-.4.2-.2.1-.3.2-.4.2l-1.1.5c-.5.2-1 .5-1.3.6-2 1-3.4 2.1-4 3.4-.6 1.2-1 2.9-1 5.2 0 2 .6 3.7 1.9 5.1 1.3 1.4 2.9 2 5 2 2 0 3.6-.5 4.8-1.7 1.3-1.2 1.9-2.6 1.9-4.4 0-1.8-.6-3.2-1.7-4.2-1.2-1.2-2.5-1.7-3.9-1.7zm1.3 8c-.6.6-1.4.9-2.4.9s-1.7-.3-2.4-.9c-.6-.6-1-1.4-1-2.3s.3-1.6 1-2.2c.7-.5 1.5-.8 2.4-.8 1.9 0 3.3 1.3 3.3 3.1 0 .9-.3 1.6-.9 2.2zM61.7 15.1c-3.3 0-6.3 1.7-7.9 4.4l3.1 1.8c.9-1.7 2.7-2.6 4.8-2.6 3 0 5.1 1.7 5.8 4.4h-8.2v3.4h8.2c-.6 2.7-2.8 4.4-5.8 4.4-2.1 0-3.9-1-4.8-2.6L53.8 30c1.6 2.7 4.5 4.4 7.9 4.4 2.8 0 5-.9 6.8-2.8 1.8-1.8 2.7-4.1 2.7-6.8s-.9-5-2.7-6.8c-1.7-1.9-4-2.8-6.8-2.9zM85.7 20.8h-4.1l-4.5 5.8v-5.8h-3.4V34h3.4v-6l4.8 6h3.9l-5.4-6.7zM92.8 31c-1 0-1.9-.4-2.5-1-.6-.7-1-1.5-1-2.6 0-2.1 1.5-3.6 3.5-3.6 1.3 0 2.4.7 3 1.8l2.9-1.7c-1.1-2.1-3.4-3.4-5.9-3.4-2 0-3.6.6-5 2-1.3 1.4-1.9 3-1.9 4.9 0 1.9.6 3.6 1.9 4.9 1.4 1.4 3 2 5 2 2.5 0 4.8-1.3 5.9-3.4l-2.9-1.7c-.5 1.1-1.6 1.8-3 1.8zM100.7 34h3.4V24h5.2v10h3.4V20.8h-12zM122 20.4c-2 0-3.6.7-4.9 2-1.4 1.3-2 2.9-2 4.9 0 1.9.6 3.6 2 4.9 1.4 1.4 3 2 4.9 2 1.9 0 3.6-.6 4.9-2 1.4-1.4 2-3 2-4.9 0-1.9-.7-3.5-2-4.9-1.3-1.3-2.9-2-4.9-2zm2.6 9.6c-.7.7-1.5 1-2.5 1s-1.9-.4-2.5-1c-.6-.7-1-1.5-1-2.6 0-1 .4-1.9 1-2.6.7-.7 1.5-1 2.5-1s1.9.4 2.5 1 1 1.5 1 2.6c0 1-.3 1.9-1 2.6zM156.3 22.3c-1-1.3-2.4-1.9-4.3-1.9-1.8 0-3.3.7-4.5 2-1.2 1.3-1.9 2.9-1.9 4.9 0 1.9.6 3.6 1.9 4.9 1.3 1.4 2.8 2 4.5 2 1.9 0 3.3-.6 4.3-1.9V34h3.4V20.8h-3.4v1.5zm-1.1 7.8c-.7.7-1.5 1-2.6 1-1 0-1.9-.4-2.6-1s-1-1.6-1-2.7.4-2 1-2.7 1.5-1 2.6-1c1 0 1.9.3 2.6 1 .7.7 1 1.6 1 2.7.1 1.1-.2 1.9-1 2.7zM171.4 25.8h-5.2v-5h-3.4V34h3.4v-5h5.2v5h3.4V20.8h-3.4zM184.6 27.3l5.2-6.5h-4l-4.5 5.8v-5.8h-3.5V34h3.5v-6l4.8 6h3.9z"/>
</svg>