<svg xmlns="http://www.w3.org/2000/svg" viewBox="0 0 200 50">
	<path fill="#4FB84E" d="M48.2146 46.4519S29.999 41.0481 29.999 14.2581V4h36.4312v10.2581c0 25.7825-18.2156 32.1938-18.2156 32.1938Z"/>
	<path fill="#055532" d="M58.7534 14.3495H44.0811v8.5179h14.6723v2.5645c0 4.3047-1.2264 7.7851-7.6768 7.7851h-6.9955v11.2198c2.4075 1.5112 4.1337 2.0149 4.1337 2.0149s18.2156-6.4113 18.2156-32.1938V6.51855c0 4.30475-1.8625 7.73935-7.677 7.83095Z"/>
	<path fill="#000" d="M141.291 17.2353c0 1.2365.363 2.2898 1.09 3.114.726.8243 1.681 1.2365 2.771 1.2365 1.135 0 2.044-.4122 2.77-1.2365.727-.8242 1.09-1.8775 1.09-3.114 0-1.1907-.363-2.1981-1.09-2.9767-.726-.7785-1.635-1.1907-2.77-1.1907-1.136 0-2.045.4122-2.771 1.1907-.727.7786-1.09 1.786-1.09 2.9767Zm-3.635 0c0-2.1065.682-3.8468 2.09-5.2664 1.408-1.4197 3.226-2.1066 5.406-2.1066 2.18 0 3.997.6869 5.405 2.1066 1.408 1.4196 2.09 3.1599 2.09 5.2664 0 2.1524-.682 3.9841-2.09 5.4038-1.408 1.4654-3.225 2.1523-5.405 2.1523s-3.998-.7327-5.406-2.1523c-1.408-1.4655-2.09-3.2514-2.09-5.4038Zm-61.0964-7.1445v14.4253h3.4977v-5.3579h2.3622c1.0902 0 1.9986-.9159 1.9986-2.015v-1.0075h-4.3608v-3.0225h3.3615c1.0902 0 1.9533-.8701 1.9533-1.9692v-1.0532h-8.8125Zm0 19.1425h3.7703c2.0441 0 3.4978.9159 3.4978 2.7018 0 .8702-.4089 1.7403-1.1811 2.1982v.0458c1.181.3664 1.5899 1.4196 1.5899 2.3356 0 2.2439-1.8625 3.0682-3.9066 3.0682h-3.7703V29.2333Zm3.8158 3.9841c.6358 0 .9084-.4579.9084-.9616 0-.4581-.2726-.8702-.9539-.8702h-1.2265v1.8318h1.272Zm.1816 4.1674c.7268 0 1.0902-.5038 1.0902-1.0991 0-.5954-.3634-1.0533-1.0902-1.0533h-1.499v2.1524h1.499Zm7.5406-8.1515h2.6346L94.23 39.5371h-2.5892l-.636-2.1523H87.825l-.6359 2.1523h-2.5893l3.4978-10.3038Zm2.3167 6.1364-.5906-2.0149c-.1817-.6411-.4088-1.786-.4088-1.786h-.0454s-.2272 1.1449-.4088 1.786l-.5905 2.0149h2.0441Zm7.3589-6.1364h-2.5439v10.3038h2.4984v-4.8085c0-.6411-.1363-1.7401-.1363-1.7401h.0455s.4542 1.0532.8631 1.7401l2.862 4.8085h2.498V29.2333h-2.498v4.8084c0 .6411.136 1.7402.136 1.7402h-.045s-.455-1.0533-.863-1.7402l-2.8168-4.8084Zm10.7658 0v3.9841h1.045l2.135-3.9841h2.68l-2.771 4.9458v.0458l2.907 5.358h-2.816l-2.181-4.1674h-1.044v4.1674h-2.499V29.2333h2.544ZM90.9138 16.6394h1.499c.5905 0 1.0447-.1374 1.3628-.4579.3179-.3206.4996-.7327.4996-1.328 0-.7786-.2726-1.3281-.8631-1.5571-.3179-.1374-.7722-.1832-1.3173-.1832h-1.181v3.5262Zm-3.5887-6.5486h4.9968c1.2719 0 2.1804.1373 2.7709.3663.8177.3206 1.4991.8243 1.9534 1.557.4542.7328.6814 1.6028.6814 2.6562 0 .8243-.1818 1.6028-.5451 2.3355-.3635.7327-.9086 1.2823-1.59 1.6486v.0458c.1363.1832.318.458.5451.8701l2.771 5.0832h-3.8612l-2.5438-4.9h-1.6353v4.9h-3.5432V10.0908Zm13.2189 0v14.4711h9.312v-3.0224h-5.769v-2.7477h4.361v-3.0225h-4.361v-2.6561h5.497v-3.0224h-9.04Zm11.538 14.4711V10.0908h8.995v3.0224h-5.452v2.6561h4.361v3.0225h-4.361v2.7477h5.769v3.0224h-9.312Zm16.489-3.0224h-1.453v-8.4263h1.453c1.227 0 2.181.3206 2.862 1.0533.682.7328 1.045 1.786 1.045 3.114 0 1.3739-.363 2.4272-1.045 3.1599-.681.7327-1.635 1.0991-2.862 1.0991Zm-4.951-11.4487v14.4711h5.088c2.27 0 4.088-.6411 5.406-1.9233 1.316-1.2823 1.998-3.0225 1.998-5.3123 0-2.2897-.682-4.0299-1.998-5.3122-1.318-1.2822-3.136-1.9233-5.406-1.9233h-5.088Zm31.888 0-1.181 14.4711h3.498l.455-6.5029c.045-.7327.045-1.557 0-2.427h.045l.817 2.427 1.5 4.2133h2.997l1.5-4.2133c.226-.5953.499-1.4196.817-2.427h.045v1.328c0 .4121 0 .7785.046 1.099l.455 6.5029h3.497l-1.18-14.4711h-3.817l-2.089 6.1365c-.227.5953-.454 1.4196-.727 2.3814h-.045l-.727-2.3814-2.089-6.1365h-3.817Z"/>
</svg>