<svg xmlns="http://www.w3.org/2000/svg" viewBox="0 0 200 50">
	<path fill="#015289" d="M36.2432 25.1216c0 2.5952-.7696 5.1321-2.2114 7.29-1.4418 2.1578-3.4911 3.8396-5.8888 4.8328-2.3976.9931-5.036 1.253-7.5813.7467-2.5453-.5063-4.8834-1.7561-6.7185-3.5911-1.8351-1.8351-3.0848-4.1732-3.5911-6.7185-.50626-2.5453-.2464-5.1837.7467-7.5813.9932-2.3977 2.675-4.447 4.8328-5.8888C17.9895 12.7696 20.5264 12 23.1216 12c3.4801 0 6.8176 1.3824 9.2784 3.8432 2.4607 2.4608 3.8432 5.7983 3.8432 9.2784ZM51.6574 24.3984c-.8536-.7293-2.1062-1.1022-3.7186-1.1022h-2.3876v-3.82h5.9656v-1.8479h-8.0031v14.456h4.4872c1.6582 0 2.9108-.3794 3.7219-1.1251.8111-.7457 1.2298-1.8675 1.2298-3.3229 0-1.4554-.4383-2.502-1.2952-3.2379Zm-3.5976 5.8871h-2.4922v-5.1806h2.5118c.7128-.034 1.4154.1798 1.9885.605.4906.3958.7392 1.0564.7392 1.9624 0 .9059-.2551 1.5927-.7195 1.9885-.5849.4452-1.3106.6647-2.0442.6181l.0164.0066Zm10.6458-8.8928c-.7478-.0197-1.491.1231-2.1782.4187-.602.2911-1.1224.7271-1.5143 1.269l-.1047.1439.1439.1013 1.1415.8046.1341.0949.1014-.1276c.2528-.3179.5692-.5797.9288-.7686.3705-.1927.7827-.2916 1.2003-.2878.26-.0182.521.0165.7672.102.2462.0854.4725.2198.6653.3951.3271.3271.4841.8831.4906 1.6517-.6573.0103-1.313.0671-1.9623.1701-.6949.1039-1.3719.3043-2.0114.5952-.5898.2676-1.1126.6631-1.5307 1.1578-.4258.5346-.6463 1.204-.6214 1.8871-.0064.503.1056 1.0005.3271 1.4522.1944.4015.4733.7563.8176 1.04.3427.28.7356.492 1.1578.6247.4311.1392.8814.2098 1.3344.2093.5411.0063 1.078-.0948 1.5797-.2976.3662-.1509.7071-.3571 1.0106-.6116l.0523.5233v.157h1.8119v-6.7636c0-1.3966-.327-2.4137-.9811-3.0253-.6541-.6116-1.5961-.9158-2.7604-.9158Zm1.7727 5.4292v2.8716c-.3107.2577-.6511.4773-1.0139.6541-.4017.1939-.8427.2924-1.2886.2878-.2211.0003-.4411-.0294-.6542-.0883-.2087-.0576-.4043-.1553-.5756-.2878-.176-.14-.3227-.3134-.4317-.5102-.1183-.2279-.1758-.4825-.1668-.7392-.0208-.4063.119-.8045.3892-1.1087.2875-.2972.6418-.5215 1.0335-.6541.4539-.1655.9261-.2753 1.4064-.3271.4644-.049.8961-.0785 1.3017-.0948v-.0033Zm11.3424-5.1741h-.1733v4.1668h-4.6672v-4.1668h-1.995v10.4365h1.995v-4.5887h4.6672v4.5887h1.995V21.6478h-1.8217Zm9.3832 4.9288c.1579-.1882.2909-.396.3958-.6181.1537-.3075.3695-.7523.6541-1.3573.1454-.4026.3907-.7616.713-1.0433.2586-.164.5607-.2461.8667-.2355h.7849v-1.6746h-1.1643c-.2886-.0025-.5768.0238-.8602.0785-.2664.0533-.5178.165-.7359.3271-.244.1926-.4541.4247-.6214.6868-.2275.3509-.4266.7195-.5952 1.1022-.1995.4285-.3631.7653-.4939 1.0302-.1004.2082-.2186.4074-.3532.5953-.0746.1064-.1732.1938-.2878.2551-.1136.0485-.2363.072-.3598.0687h-.9484v-4.1439h-1.9624v10.4365h1.9624v-4.6115h1.3442l3.1005 4.5363.0523.0752h2.3712l-.1897-.2715-3.6729-5.2362Zm16.4086-7.1659v-2.0572h-2.0376v2.0572c-1.789.0949-3.1986.6018-4.1962 1.5078-.9975.9059-1.56 2.26-1.56 3.9247 0 1.6647.5102 2.9893 1.5241 3.9443 1.0138.955 2.4006 1.4358 4.2321 1.5306v1.9951h2.0376v-1.9983c1.8446-.0949 3.2705-.6182 4.2515-1.5536.981-.9353 1.515-2.2894 1.515-3.9247 0-1.6352-.511-2.986-1.515-3.9247-1.004-.9386-2.4102-1.39-4.2515-1.5012Zm-5.7334 5.4358c0-1.2134.3467-2.1325 1.0303-2.7375.7521-.6152 1.6938-.9514 2.6655-.9518v7.4014c-.959-.0001-1.8888-.3304-2.6328-.9354-.7065-.6051-1.063-1.5405-1.063-2.7767Zm9.4489 0c0 1.2526-.353 2.1912-1.05 2.7865-.7561.6051-1.6972.9318-2.6655.9256v-7.4014c.4761.0101.9479.0917 1.3998.2421.4512.1506.8672.3909 1.2227.7064.348.3184.622.7091.802 1.1447.203.5072.302 1.0499.291 1.5961Zm10.94-3.1987h-.173v1.3769l-4.71 5.2624v-6.6393h-1.933v10.4365h1.933v-1.377l4.71-5.2591v6.6361h1.933V21.6478h-1.76Zm11.316 0h-.17v4.1668h-4.67v-4.1668h-1.995v10.4365h1.995v-4.5887h4.67v4.5887h1.995V21.6478h-1.825Zm11.562 7.2411-.161-.0981-.088.1668c-.237.5226-.617.968-1.095 1.2853-.394.2427-.846.3739-1.309.3794-.395-.0007-.785-.0866-1.144-.2518-.365-.1674-.688-.4157-.942-.7261-.288-.3517-.51-.7529-.654-1.1839-.327-1.0446-.327-2.1639 0-3.2085.142-.4284.358-.8289.637-1.1839.24-.3029.542-.5506.887-.7261.309-.1597.652-.2448 1-.2486.466.002.92.1395 1.309.3958.482.3459.86.8192 1.089 1.3671l.085.1766.163-.1047 1.207-.762.111-.0654-.049-.1308c-.113-.2816-.258-.5494-.431-.7981-.218-.3145-.477-.5974-.772-.8405-.346-.2775-.733-.4983-1.148-.6541-.498-.1848-1.026-.2746-1.557-.2649-.582.0021-1.16.105-1.707.3041-.58.2101-1.107.545-1.544.9812-.483.49-.857 1.0762-1.099 1.7203-.293.7986-.434 1.645-.415 2.4955-.017.8141.124 1.6238.415 2.3842.25.6239.621 1.192 1.092 1.6713.445.4477.982.7936 1.574 1.0139.577.2155 1.189.3262 1.805.327.791-.0014 1.568-.21 2.253-.605.744-.4389 1.333-1.0969 1.688-1.8839l.069-.1406-.131-.0818-1.138-.7097Zm10.58-6.0015c-.39-.4833-.891-.8639-1.462-1.1087-.645-.2666-1.339-.3969-2.037-.3827-.66-.0082-1.314.1221-1.92.3827-.571.251-1.076.6291-1.479 1.1054-.421.5029-.744 1.0811-.951 1.704-.23.7186-.34 1.4698-.327 2.224 0 1.7857.451 3.1659 1.337 4.098.887.9322 2.136 1.4064 3.703 1.4064.879.0373 1.75-.1906 2.498-.6541.626-.422 1.147-.9813 1.524-1.6353l.082-.1407-.134-.0915-1.079-.7196-.151-.0981-.094.1505c-.265.4249-.616.7894-1.031 1.0694-.442.2865-.961.4313-1.488.4154-.442.0281-.885-.0491-1.291-.2254-.407-.1762-.766-.4465-1.047-.7885-.562-.7705-.853-1.7055-.828-2.659h7.248v-.1668c.035-.7335-.042-1.468-.229-2.1782-.163-.6203-.45-1.2011-.844-1.7072Zm-3.499.1864c.291.0009.579.0518.853.1505.287.1004.551.2576.775.4621.225.2045.406.4522.533.7284.129.2827.205.5863.226.8961h-4.886c.105-.6446.421-1.236.899-1.6811.45-.3685 1.015-.5665 1.596-.5593l.004.0033Zm14.577-.0392c-.346-.5-.806-.9104-1.341-1.1971-.615-.3112-1.297-.4641-1.986-.4448-.537-.0021-1.072.0785-1.586.2388-.433.1412-.841.3486-1.21.6149l-.078-.4579-.023-.1439h-1.802v14.4363h1.962v-4.0261c.587.1852 1.2.2735 1.815.2617.711.0046 1.415-.1298 2.074-.3957.628-.2529 1.193-.639 1.658-1.1317.473-.5096.841-1.1076 1.082-1.7595.27-.7327.403-1.5087.393-2.2895.002-.6726-.074-1.3431-.226-1.9983-.136-.6095-.385-1.1884-.732-1.7072Zm-1.001 3.7775c.007.5563-.083 1.1096-.265 1.6353-.156.4524-.407.8662-.736 1.2134-.319.3236-.702.5766-1.125.7424-.455.1781-.941.2669-1.429.2616-.319.0039-.637-.0402-.942-.1308-.194-.0557-.38-.1336-.556-.2322v-6.2697c.318-.2836.676-.5193 1.063-.6999.387-.1837.81-.2798 1.239-.2813.459-.0176.912.0958 1.308.3271.346.2125.636.5053.844.8536.222.3754.379.7856.465 1.2134.091.4499.136.908.134 1.3671Zm11.81.3826c-.205-.1982-.449-.3519-.716-.4513-.082-.0327-.167-.0589-.252-.085.282-.164.525-.3872.713-.6542.337-.4964.508-1.0876.487-1.6876.021-.375-.046-.7497-.195-1.0944-.149-.3446-.377-.6497-.665-.8908-.566-.4514-1.406-.6836-2.499-.6836h-4.517v10.4365h4.955c.452.0046.901-.0628 1.332-.1995.387-.1253.746-.3254 1.056-.5887.306-.2624.55-.5898.713-.9583.177-.413.266-.8588.258-1.3083.011-.3722-.051-.743-.18-1.0923-.111-.2785-.277-.5312-.49-.7425Zm-3.245-1.2526h-2.43v-2.6165h2.578c.935 0 1.37.3827 1.37 1.2036.019.1995-.009.4006-.08.5878-.071.1873-.184.3556-.331.4922-.147.1365-.323.2375-.515.2952-.191.0577-.394.0706-.592.0377Zm-2.43 1.6778h2.64c.47-.0324.936.1097 1.308.399.142.1221.255.2738.332.4445.077.1706.115.3561.113.5432.007.2316-.038.4617-.131.6738-.074.1647-.186.3093-.327.4219-.149.1076-.318.1843-.497.2257-.203.0464-.41.0695-.618.0686h-2.81l-.01-2.7767Zm15.192-5.9721h-.173v1.3769l-4.713 5.2624v-6.6393h-1.93v10.4365h1.93v-1.377l4.713-5.2591v6.6361h1.93V21.6478h-1.757Zm12.749 7.9607-1.141-.7196-.161-.0981-.085.1668c-.238.5232-.619.9687-1.099 1.2853-.393.2429-.846.374-1.308.3794-.394-.0005-.784-.0865-1.141-.2518-.369-.1673-.695-.4168-.952-.7293-.288-.352-.509-.7531-.654-1.184-.327-1.0446-.327-2.1638 0-3.2084.147-.4299.368-.8307.654-1.184.24-.3025.542-.55.886-.7261.31-.1595.653-.2446 1.001-.2485.465.0023.92.1398 1.308.3957.471.3519.836.8258 1.057 1.3704l.081.1766.164-.1047 1.207-.762.121-.0752-.049-.1309c-.113-.2815-.258-.5492-.432-.798-.472-.685-1.142-1.2098-1.92-1.5044-.497-.1844-1.024-.2742-1.553-.265-.583.0026-1.16.1054-1.708.3042-.58.2105-1.106.5454-1.543.9812-.483.49-.858 1.0762-1.099 1.7203-.293.7986-.434 1.645-.416 2.4955-.017.8141.124 1.6238.416 2.3842.25.631.624 1.2057 1.099 1.6909.445.4474.982.7932 1.573 1.0139.578.2158 1.191.3266 1.808.3271.79.0008 1.565-.2044 2.251-.5953.744-.4386 1.335-1.0966 1.691-1.8838l.065-.1407-.121-.0817Z"/>
	<path fill="#fff" d="M22.4544 17.8642s1.0434.677.3533 1.5273c-.6901.8504-1.184 1.0532-1.2396 1.6026 0 0-.4742-.4971.1439-1.197.6182-.6999 1.2069-1.076.7424-1.9329Zm.7391 1.4652s-.0523.5462-.9092 1.0629c-.8569.5168-.4546.713-.4644.6705-.0098-.0425 1.197-.121 1.3736-1.7334ZM21.398 17.56s.4285-.0752.4546.1341c.0622.5167-.5167.9419-1.1676 1.4979-.7817.6705-.6835.8896-.6933.9289-.0099.0392-.5266-.5462.1046-1.1447.0033 0 1.0957-.7948 1.3017-1.4162Zm-.1341 0-1.4554 1.4129s-.1145-1.1251 1.4554-1.4129Zm11.2344 14.5639h-2.031c-.0594-.0047-.1151-.0308-.1566-.0735-.0415-.0428-.0661-.0992-.0691-.1587v-5.8282c0-1.7105-.2681-2.2894-1.2755-2.2894-.6705 0-1.6549.5724-2.4824 1.2854v6.8322c-.003.0595-.0275.1159-.069.1587-.0416.0427-.0972.0688-.1566.0735H24.214c-.0595-.0047-.1151-.0308-.1566-.0735-.0416-.0428-.0661-.0992-.0691-.1587V22.08c.003-.0596.0275-.1159.0691-.1587.0415-.0427.0971-.0689.1566-.0736h1.8773c.0594.0047.115.0309.1566.0736.0415.0428.066.0991.069.1587v.9811c1.0205-.8896 2.211-1.5208 3.3655-1.5208 2.0375 0 3.0416 1.1872 3.0416 3.7383v6.6131c-.0036.0593-.0284.1153-.0698.1579-.0414.0426-.0967.069-.1559.0743ZM19.0464 17.7268c-.4227-.0896-.8532-.1367-1.2853-.1406-2.9043 0-3.5192 1.6353-3.5192 3.6565v10.649c.0037.0593.0285.1153.0699.1579.0414.0426.0967.069.1558.0743h2.0278c.0597-.0046.1158-.0306.1578-.0733.0421-.0426.0674-.0991.0711-.1589v-8.1535h1.4685c.0598-.0047.1158-.0307.1579-.0734.0421-.0426.0673-.0991.0711-.1589v-1.4325c-.0031-.06-.0281-.1168-.0703-.1596-.0422-.0428-.0987-.0687-.1587-.0726h-1.4652v-.5952c0-1.2461.3663-1.6353 1.3246-1.6353.16.0012.3197.0155.4775.0425.0595.0016.1181-.0147.1682-.0468.0502-.0321.0895-.0784.1131-.1331.0228-.0948.278-1.0368.399-1.4816.0119-.0567.0016-.1158-.0288-.1651-.0304-.0494-.0787-.0851-.1348-.0998Zm4.1243 14.1649v-9.8118c-.0042-.0621-.0285-.1212-.0692-.1684-.0407-.0472-.0956-.0799-.1565-.0932-1.1952-.1379-2.4024-.1379-3.5976 0-.0606.0127-.1155.0447-.1562.0914-.0407.0466-.0651.1052-.0695.167v1.4325c.0017.0584.0264.1138.0686.1542.0422.0404.0986.0625.1571.0617.448-.0328.8994-.0524 1.3507-.0589v8.2255c.0038.0598.029.1162.0711.1589.0421.0427.0981.0687.1579.0733h2.031c.0568-.0082.109-.0358.1477-.0781.0388-.0424.0617-.0968.0649-.1541Z"/>
</svg>