<svg xmlns="http://www.w3.org/2000/svg" viewBox="0 0 200 50">
	<path fill="#476BF0" d="M33.0122 7C23.0762 7 15 15.0732 15 25.0098 15 34.9258 23.0762 43 33.0122 43 42.9258 43 51 34.9258 51 25.0098 51 15.0732 42.9258 7 33.0122 7Zm0 35.0996c-9.436 0-17.1123-7.6699-17.1123-17.0898 0-9.4395 7.6733-17.10941 17.1123-17.10941 9.4199 0 17.0879 7.67381 17.0879 17.10941 0 9.4179-7.6709 17.0898-17.0879 17.0898Zm52.8789-20.2715c0 1.1446-1.063 1.5205-1.645 1.5205H82.707v3.3291h1.4571c1.228 0 1.788.583 1.788 1.458 0 .6221-.456 1.4786-1.622 1.4786-.687 0-1.3731-.0401-2.3931-.4805l-.063 3.2305c.3335.1816.6499.3261.9673.4394.7329.2608 1.4732.3565 2.4458.3701 2.6231 0 4.6621-1.623 4.6621-4.5595 0-2.375-1.416-3.3916-2.4761-3.7286v-.1445c1.1011-.46 2.2271-1.6435 2.2271-3.6016 0-2.0185-1.311-4.08-4.269-4.08-.6128-.0069-1.2242.0351-1.8287.124-.4414.0654-.8794.1553-1.3115.2705l.041 3.375c.771-.375 1.5611-.4385 1.9761-.4385.356 0 1.583.085 1.583 1.4375Zm33.7539 11.2217c4.266 0 5.7-4 5.7-7.9756 0-3.9746-1.434-7.9736-5.7-7.9736s-5.7 3.999-5.7 7.9736c0 3.9756 1.434 7.9746 5.7 7.9756Zm0-3.7705c-1.272 0-1.914-1.4766-1.914-4.2051s.642-4.206 1.914-4.206c1.271 0 1.913 1.4775 1.913 4.206 0 2.7285-.642 4.2051-1.913 4.2051Zm10.489-11.9492h-3.059v15.5312h3.599v-9.4736l2.162 2.7061L135 23.3877v9.4736h3.603V17.3291h-3.038l-2.729 3.665-2.702-3.664Zm10.903 15.5312h4.286c.936 0 4.829-.3965 4.849-5.1035 0-3.9502-3.016-4.6396-4.973-4.6396h-.645v-2.0606h4.765v-3.7275h-8.282v15.5312Zm3.517-3.123v-3.5186h.52c.221 0 .619.0059.958.2188.33.208.604.6133.604 1.4043 0 1.6269-1.126 1.8955-1.562 1.8955h-.52Zm18.563-12.4082h3.517v5.6006h2.518v-5.6006h3.515v15.5322h-3.515v-6.2256h-2.518v6.2256h-3.517V17.3301Zm11.922 0h3.539l-.021 5.5801h.769l2.019-5.5801h3.829l-2.748 7.372 3.144 8.1602h-4.143l-2.037-6.2471h-.833l.021 6.2461h-3.539V17.3301Zm-20.516 15.5517h-3.663l3.1-15.5302h4.537l3.08 15.5302h-3.662l-.438-2.6855h-2.516l-.438 2.6855Zm2.371-6.1006-.666-4.7265-.687 4.7265h1.353Zm-49.778 6.0801h-3.6V17.3291h4.809c3.39 0 4.66 3.1641 4.66 5.1621 0 2.043-1.104 5.25-4.66 5.25h-1.209v5.1201Zm.854-12.1172h-.854l.001 3.5801h.853c.458 0 1.333-.124 1.333-1.79 0-1.2901-.521-1.7901-1.333-1.7901Zm-16.3362-3.414h9.8222v15.5303h-3.601V21.0771h-2.6201v11.7842h-3.6011V17.3301ZM70.0981 32.8613h3.6402l.459-2.6875h2.518l.4361 2.6875h3.6396l-3.0801-15.5322h-4.5346l-3.0782 15.5322Zm5.3462-10.8476.688 4.747h-1.375l.687-4.747Zm-4.9336-4.6836H63.127v15.5303h3.6601V21.2002h3.7236v-3.8701Zm-32.3911-3.6367c-2.8486-1.2705-8.1567-1.3965-12.5049.54.5601-.4004 1.1597-.7402 1.7901-1.0166 1.3691-.6377 3.5771-1.2559 6.3291-1.2559.1299 0 .2598.001.3901.0039 2.3531.042 5.1426.8545 6.8477 2.5411.1709.208.2993.416.3887.6074.0625.1338.1059.2588.1313.3711 1.353.6875 2.1431 1.332 2.5791 2.082.189.3945.251.8096.166 1.2891.4439.249.8286.5908 1.1279 1.0029.0957.1621.1807.334.2466.5068.0616.1602.106.3203.1265.4727.061.4131.102.8916-.335 1.4551.458.2295.8311.872.876 1.1455.229 1.0166-.439 2.0166-1.291 2.789-1 .8731-3.2061 1.9141-4.9961 2.3731-3.5337.8945-6.6787 1.2705-9.1738 1.7295 1.123.2695 2.6411.625 5.1191.625 5.3037 0 9.9868-2.501 9.9868-2.501s-.103.3145-.209.6064c-3.3701 2.0391-8.7168 2.8916-11.0078 2.7872-2.31-.1055-4.2651-.4581-6.1801-1.042-.585.165-1.1612.3593-1.7261.5839 2.915 1.3321 5.1191 1.625 7.5962 1.8106 2.5366.1894 6.7426-.417 10.2768-1.7041-.166.168-.249.416-.414.5615-1.2061.6377-3.3057 1.2754-5.1455 1.6543-.9234.1904-1.7813.3164-2.4283.3438-1.916.0839-4.2461 0-6.2861-.376-1.748-.3516-3.186-.8965-4.6831-1.5596-.2681.2051-.3931.458-.458.75 5.8511 3.0596 11.2998 3.1201 17.5249 1.1856l-.564.542c-6.8467 2.79-12.1948 1.706-16.3379-.293l-.1748-.0752c-.0923-.04-.1836-.083-.2583-.1328.396.667 3.5562 2.9775 7.0943 3.2695 2.437.208 5.4116-.209 7.1797-.915l-1.0401.54c-.854.417-3.1216 1.377-6.2866 1.167-4.2231-.293-6.5962-2.167-7.6582-3.1436-.499-.4609-.7261-.9794-.8731-1.625-.6923-.3613-1.1997-.7343-1.6152-1.2119-.1592-.1836-.3052-.3818-.4429-.6006-.292-.4365-.2319-.956-.1699-1.3964l.1299-.3702c-.4609-.3369-.939-.6904-1.126-1.0419-.4189-.75-.165-1.3965.125-1.8965-.251-.291-.4809-.5821-.5805-.8731-.1265-.333-.146-.6699-.1084-1.0429.0849-.6231.4179-1.2041.8549-1.7061.9141-1.0625 2.3741-1.8945 4.8472-2.7061 2.437-.8144 3.416-.9394 5.2471-1.3574.8139-.1885 1.6885-.3291 2.5771-.4726 1.4507-.2334 2.9395-.4737 4.2676-.9385-5.9727-1.04-12.1728-.084-17.23 3.3896l.3321-.9775c4.5361-2.9551 9.5522-4.7031 18.0419-3.2246.4581-.2715.7281-.543.855-1.083-2.124-.7695-4.4326-1.0401-7.4077-1-2.665.0849-7.4741 1.0801-10.0503 2.6055l.7871-.9805c1.7891-1.0654 6.4712-2.458 9.9912-2.5205 2.4742-.0615 3.7437.083 6.6997.875-.2543-.4629-.7944-.7129-1.5903-1.083l-.1797-.083Zm4.5362 4.332c-.0811-.583-.7471-1.1455-1.3311-1.5205-.083.292-.3921.6455-.602.875.645.168 1.311.414 1.9331.6455Zm-2.8482.1855c-.4189.334-.895.6241-1.605.8975.6299.1104 1.1748.2578 1.6988.4141.4477.1328.8803.2714 1.3393.3964.0103.0049.022.0069.0332.0059.2168 0 .9297-.6592 1.0528-.8398-.712-.3125-1.586-.626-2.5191-.8741Zm4.4522 3.0606c.269-.5205.103-.8535-.4571-1.333-.2299.2734-.4799.5-.75.708.4361.208.834.3555 1.2071.625Zm-9.3628-1.1016c-2.7471.333-5.7871.9131-8.3872 1.6846l-.1387.042c-1.2905.3926-6.1704 1.873-4.6885 3.914.0152 0 .9404-1.2763 4.4302-2.291 2.2808-.6699 4.6191-1.0957 6.9941-1.5283 2.1333-.3887 4.2964-.7832 6.4727-1.3642-1.7905-.4766-2.793-.6885-4.6826-.4571Zm2.9751 2.5186c-1.4771.374-5.0581.8945-8.9063 1.7265-1.208.2705-4.518 1.0401-6.1411 2.4151.2109.1738.3867.2851.5635.3828.2065.1142.415.21.6836.3672.666-.4385 1.583-.8545 2.938-1.21 2.3471-.623 4.1201-.8916 6.2422-1.2431 2.102-.3184 6.0756-1.1504 8.2597-1.9415.5137-.1738.9946-.3906 1.4004-.6425.1719-.1065.3306-.2188.4727-.3369-.146-.1641-1.5611-.8506-1.6031-.7872-.8711.4151-2.1201.8301-3.9096 1.2696ZM32.75 26.875c-1.5918.2637-3.1255.5176-4.7441.915-.7281.1846-1.4771.4151-2.1612.7051.6841.3545 1.4341.668 2.1822.96 1.498-.4375 2.2089-.625 4.3691-.9785.833-.1485 3.3721-.6055 5.2026-.9766 3.312-.7109 8.1602-2.252 6.8702-4.25-.0645.0547-.129.1045-.1934.1543-.0816.0645-.1626.1289-.2437.2002-.979.7451-2.54 1.3516-4.6821 1.915-2.4853.6729-4.5889 1.0215-6.5996 1.3555Zm-9.999 1.7217c.0625-.0479.1235-.0957.1787-.1426-.2681-.1387-.4693-.2598-.6738-.3887l-.3052-.1953c-.0733.167-.0493.3399.0283.4971.0991.2002.2861.376.4717.4824.0898-.0898.1968-.1728.3003-.2529Zm3.5688 1.4609c-.603-.2705-1.247-.539-1.872-.831-.2911.1875-.5601.373-.7691.5605.499.292.979.5606 1.479.835.3677-.2266.7569-.416 1.1621-.5645Zm-2.4321 1.9375c.0601-.2099.166-.375.312-.583-.3559-.1904-.709-.376-1.062-.6064-.023.3974.229.7509.75 1.1894Z"/>
</svg>