<svg xmlns="http://www.w3.org/2000/svg" viewBox="0 0 200 50">
	<path fill="#E1192F" d="M39.5789 15c2.07 0 3.86.4 5.39 1.19 1.52.79 2.7 1.91 3.53 3.34.83 1.43 1.24 3.13 1.24 5.09 0 1.94-.41 3.64-1.24 5.08-.83 1.45-2.01 2.57-3.53 3.36-1.53.79-3.32 1.19-5.39 1.19s-3.87-.4-5.4-1.19c-1.53-.8-2.71-1.92-3.53-3.36-.82-1.44-1.23-3.14-1.23-5.08 0-1.96.41-3.66 1.23-5.09.82-1.43 2-2.55 3.53-3.34 1.53-.79 3.33-1.19 5.4-1.19Zm2.92 14.77c.79-.45 1.39-1.11 1.78-1.97.39-.87.59-1.92.6-3.17 0-1.25-.2-2.3-.59-3.16-.39-.86-.99-1.52-1.78-1.97-.8-.45-1.77-.68-2.93-.68-1.16 0-2.12.22-2.9.67-.78.45-1.37 1.11-1.77 1.97-.4.87-.6 1.92-.6 3.17s.2 2.31.6 3.17c.4.87.98 1.52 1.76 1.97.77.45 1.74.67 2.9.67s2.14-.22 2.93-.67ZM28.799 15.2598h-5.24l-3.93 6.03-4.14-6.03h-5.46l6.53 9.07-6.55998 9.65H15.269l3.99-6.21 4.22 6.21h5.45l-6.63-9.38 6.5-9.34Zm88.28 6.94c1.23 0 2.31.24 3.25.72.93.48 1.66 1.16 2.19 2.03.53.87.79 1.91.79 3.1 0 1.2-.26 2.24-.79 3.12-.53.88-1.25 1.57-2.18 2.06-.93.49-2.02.75-3.29.75h-10.72v-18.72h15.59v3.81h-10.96v3.13h6.12Zm-.61 8.07c.69 0 1.23-.19 1.6-.56.37-.37.56-.91.56-1.63 0-.48-.08-.88-.25-1.2-.17-.32-.42-.57-.75-.75-.33-.18-.71-.27-1.16-.27h-5.51v4.41h5.51Zm7.78 3.71 8.11-18.72h4.84l8.12 18.72h-5l-1.52-3.76h-8.23l-1.53 3.76h-4.79Zm10.46-13.85-2.62 6.4h5.22l-2.6-6.4Zm27.04 2.29h-8.93v-7.16h-4.76v18.72h4.76v-7.71h8.93v7.71h4.74v-18.72h-4.74v7.16Zm19.06 1.59 9.19 9.97h-6.07l-7.78-8.44v8.44h-4.63v-18.72h4.63v8.02l7.78-8.02h5.73l-8.85 8.75Zm-120.98.18-4.56-8.93h-5.34l7.35 13.67-2.57 5.05h5.11l9.47-18.72h-5.06l-4.4 8.93Zm22.94 2.16 5.97-11.09h5.11v18.72h-4.31v-12.19l-4.76 8.88h-4.12l-4.86-8.82v12.13h-4.31v-18.72h5.19l6.09 11.09Z"/>
</svg>