<svg xmlns="http://www.w3.org/2000/svg" viewBox="0 0 200 50">
	<g fill="#0b60ae">
		<path d="M162.6 27.7c-2.5 1.7-6 0-6-3 0-2.9 3.2-4.6 5.6-3.2 1.1.6 1.5.5 2 0 .4-.5.4-1-.1-1.5-3.9-3-10.1-.3-10.1 4.8 0 5.2 6.5 7.9 10.4 4.6.5-.5.5-1.1 0-1.6-.5-.4-1-.5-1.9 0ZM93.5 19.7l-3.3 4.1-3.2-4.1c-.8-1-2.9-1.5-3 .3v10.3h2.5v-8.1l2.6 3.3c.6.7 1.5.7 2.1 0l2.6-3.3v8.1h2.5v-10c0-2-1.9-1.8-2.9-.7ZM136.5 19.7l-3.3 4.1-3.2-4.1c-.8-1-2.8-1.5-2.9.3v10.3h2.5v-8.1l2.6 3.3c.6.7 1.5.7 2.1 0l2.6-3.3v8.1h2.5v-10c0-2-2-1.8-2.9-.7ZM65.6 18.9c-.9 0-1.2.4-1.3 1.2v3.6H59v-3.6c0-.9-.4-1.3-1.3-1.3s-1.3.6-1.3 1.4v10.2h2.5v-4.7h5.3v4.7h2.5V20.1c0-.9-.4-1.3-1.3-1.3ZM74.5 23.4l3.1-3.3c.8-.9.2-1.2-.3-1.2-1 0-1.1 0-1.8.6l-4.1 4.3v-3.7c0-.9-.4-1.3-1.2-1.3s-1.3.5-1.3 1.5v10.1h2.5v-3.8l1.4-1.5 3.8 5.3h3l-5.1-7ZM171.8 23.4l3.1-3.3c.8-.8.2-1.2-.3-1.2-1 0-1.1 0-1.8.6l-4.1 4.3v-3.7c0-.9-.4-1.3-1.2-1.3s-1.3.5-1.3 1.5v10.1h2.5v-3.8l1.4-1.5 3.8 5.3h3l-5.1-7ZM10.3 20.2c.5-3.6 2.5-6.6 4.4-7.7.2 0 .8.5 1.3 1h.2c.7-.3 1.5-.6 2.3-.9-.9-1-1.5-1.5-2.2-2.1-.9-.6-2.1-.7-3 0-2.7 1.8-4.3 4.7-5 7.7l2 2.1Z"/>
		<path d="M8.4 24.6C6.2 21.7 5.5 18.1 6 16c.2 0 .9-.2 1.6-.2v-.2c.3-.7.5-1.5 1-2.2-1.4-.1-2.1 0-3 0-1.1.2-2 1-2.1 2.1-.6 3.2.3 6.4 2 9h2.9ZM14.6 15.6v2.9c3-2.2 6.5-2.9 8.6-2.4 0 .2.2 1 .2 1.6h.2c.7.3 1.5.5 2.2 1 .1-1.4 0-2.1 0-3-.2-1.1-1-2-2.1-2.2-3.2-.6-6.3.3-9 1.9Z"/>
		<path d="m21.1 18.2-2 2c3.6.5 6.6 2.5 7.7 4.4 0 .2-.5.8-1 1.3v.2c.3.7.6 1.5.9 2.3 1-.9 1.5-1.5 2.1-2.2.6-.9.7-2.1 0-3-1.8-2.7-4.7-4.3-7.7-5Z"/>
		<path d="M23.7 24.6h-2.9c2.2 3 2.9 6.5 2.4 8.6-.2 0-.9.2-1.6.2v.2c-.3.7-.5 1.5-1 2.2 1.4.1 2.1 0 3 0 1.1-.2 2-1 2.2-2.1.6-3.2-.3-6.3-1.9-9Z"/>
		<path d="M19.1 29c-.5 3.6-2.5 6.6-4.4 7.7-.2 0-.8-.5-1.3-1h-.2c-.7.3-1.5.6-2.3.9.9 1 1.5 1.5 2.2 2.1.9.6 2.1.7 3 0 2.7-1.8 4.3-4.7 5-7.7l-2-2.1Z"/>
		<path d="M14.7 33.7v-2.9c-3 2.2-6.5 2.9-8.6 2.4 0-.2-.2-.9-.2-1.6h-.2c-.7-.3-1.5-.5-2.2-1-.1 1.4 0 2.1 0 3 .2 1.1 1 2 2.1 2.2 3.2.6 6.3-.3 9-1.9Z"/>
		<path d="M10.2 29c-3.6-.5-6.6-2.5-7.7-4.4 0-.2.5-.8 1-1.3v-.2c-.3-.7-.6-1.5-.9-2.3-1 .9-1.5 1.5-2.1 2.2-.6.9-.7 2.1 0 3 1.8 2.7 4.7 4.3 7.7 5l2-2ZM150.1 19.5c-3.9-2.3-9.5.4-9.5 5.1 0 4.7 5.5 7.4 9.5 5.1 4.1-2.2 4.1-8.1 0-10.3Zm.1 7c-1.3 2.4-5.1 2.4-6.5 0-1.5-2.4.5-5.6 3.2-5.5 2.8 0 4.7 3 3.2 5.5ZM55 29.3c-1.1-2.9-3.5-8.7-4-9.8-.4-.7-1.6-1-2.3-.5-.5.3-.7.7-.9 1.3l-4 10.2h2.6l1-2.7h4.4l1 2.7h2.6s-.2-.4-.4-1.1Zm-6.9-3.5 1.5-4.2 1.5 4.2h-3ZM115.6 19.5c-.4-.7-1.5-.9-2.2-.5-.5.3-.7.8-1 1.3l-4 10.2h2.6l1-2.7h4.4l1 2.7h2.6s-.2-.5-.4-1.1c-1.1-2.9-3.9-9.7-4-9.9Zm-3 6.3 1.5-4.2 1.5 4.2h-3ZM196 20.2c-.3-.8-.9-1.4-1.8-1.4s-1.5.6-1.8 1.5l-4 10.2h2.6l1-2.7h4.4l1 2.7h2.6l-4-10.2Zm-3.3 5.6 1.5-4.2 1.5 4.2h-3ZM185.9 24.3c1.9-1 1.9-3.9 0-4.9-.8-.5-1.5-.5-2.5-.5h-3.7c-.5 0-.9.1-1.1.4-.2.2-.4.6-.4 1.1v10h5c1 0 1.9 0 2.8-.4 2.4-1 2.6-4.8-.1-5.7Zm-5.1-3.5h.5c1 0 2.5 0 3.1.3.6.2.7 1.2.4 1.8-.4.6-.9.6-1.7.7h-2.3v-2.7Zm2.4 7.7h-2.4v-3.1h.9c1.1 0 2.5 0 3.1.4.4.2.6.6.6 1.2 0 1-.7 1.5-2.2 1.5ZM42.9 25.2c-.8-1.3-2.3-1.8-3.8-1.7h-2.7v-2.6h5.1c.6 0 1-.3 1-1s-.3-1-1-1h-6.1c-1 0-1.5.5-1.5 1.5v10.1h5.4c.8 0 1.6 0 2.2-.4 1.9-.8 2.6-3.2 1.5-4.9Zm-4.3 3.3h-2.4v-3.1h.9c1.1 0 2.5 0 3.1.4.4.2.6.6.6 1.2 0 1-.7 1.5-2.2 1.5ZM107.5 25.2c-.8-1.3-2.3-1.8-3.8-1.7H101v-2.6h5.1c.7 0 1-.3 1-1s-.3-1-1-1H100c-1 0-1.5.5-1.5 1.5v10.1h5.4c.8 0 1.6 0 2.2-.4 1.9-.8 2.6-3.2 1.5-4.9Zm-4.3 3.3h-2.4v-3.1h.9c1.1 0 2.5 0 3.1.4.4.2.6.6.6 1.2 0 1-.7 1.5-2.2 1.5ZM120.6 24.7c-.3.4-.4.8-.4 1.4h3.5c1.2 0 1.6-.8 1.6-1.9h-3.5c-.5 0-1 .2-1.2.5Z"/>
	</g>
</svg>