<svg xmlns="http://www.w3.org/2000/svg" viewBox="0 0 200 50">
	<g fill="#cf0106">
		<path d="M88.4 34.1H190v.8H88.4zM62.5 23.8h3.9v1.8h-3.9v5.3h5.8v-1.7h-4v-1.9h4v-5.2h-4v-1.8h4v-1.7h-5.8zM70 20.3h3.9v1.8H70v5.2h3.9v1.9H70v1.7h5.8v-5.3h-4v-1.8h4v-5.2H70z"/>
		<path d="M69.1 13c-6.5 0-11.8 5.3-11.8 11.8 0 6.5 5.3 11.8 11.8 11.8 6.5 0 11.8-5.3 11.8-11.8C81 18.3 75.7 13 69.1 13zm0 21.3c-5.2 0-9.5-4.2-9.5-9.5 0-5.2 4.2-9.5 9.5-9.5 5.2 0 9.5 4.2 9.5 9.5s-4.2 9.5-9.5 9.5z"/>
	</g>
	<g fill="#040003">
		<path d="M170.7 26.9c.3-.4.8-.7 1.4-1.1.1 0 .1 0 .2-.1.3-.1.3-.4.1-.7-.3-.4-.7-.8-1.1-1.2h.7v-7.3h-7v10.9c0 .3-.1.7-.5 1-.1.1-.2.2-.2.3.5 1.2.8 2 1 2.1.1 0 .2-.1.5-.3.3-.3 1.4-.9 3-1.7-.1-.1-.1-1.2-.1-1.4.5.9 1.3 1.8 2.7 2.8.1.1.2.1.3.2.5-.8 1-1.4 1.6-1.8-1.1-.4-2-.9-2.6-1.7zm-3.8-8.5h3v1.1h-3v-1.1zm0 9.1v-3.8h.6c0 .9.3 1.9 1 3-.3.3-.8.5-1.6.8zm0-5.4V21h3v1.1h-3zM169 24v-.3h1.9c-.3.6-.8 1.1-1.3 1.6-.1-.2-.3-.7-.6-1.3zM175.2 19.8zM182.2 16.8h6.7v1.6h-6.7zM107.2 30.7h1.9v-.9h9.1v.7h2.1V16.2h-13.2v14.5zm1.9-12.6h9.1v10.2h-9.1V18.1zM181.3 20.8c.1-.1.1-.1.1-.2-.1-.1-.6-.5-1.9-1.2-1.2 2-2.7 3.7-4.3 5.1l1.4 1.2c.5-.5.8-.9 1.1-1.2v5.9h2v-7.9c.5-.7 1-1.4 1.5-1.7v1.6h4.3V28c0 .4-.5.5-1.6.5.4.5.6 1.2.7 2 2.2 0 3.1-.5 3.1-1.4v-6.6h2.4v-1.8h-8.8zM148.9 16.2c-.8 0-1.6.1-2.6.1-.1.1-.1.1 0 .3.1.2.2.5.3.8h-6V19h3.3c0 .2.2.8.4 1.1.2.3.4.5.4.6h-3.1v10l2 .1v-6.6c.3.3.5.6.7 1l.4-.3v4h1.7v-.6h1.9v.4h1.7c.3.6.5 1.6.6 2.2 2 .1 3.1-.4 3.1-1.4v-8.9h-2.9c.3-.5.7-1.3.9-1.6 0-.1.1-.1.1-.2h3v-1.6h-5.7c0-.3 0-.7-.2-1zm-5.1 7.6v-1.6h2.1c-.6.7-1.3 1.2-2.1 1.6zm4.6 3.2h-1.9v-1.3h1.9V27zm-2.2-2.7c.3-.3.7-.6 1.1-.8l.3-.3-1.1-1.1h2.7c-.5.5-.8.9-.8 1.1-.1.1 0 .1.2.2s.6.4 1.4.8h-3.8zm4.1 4.4v-3.9c.3.3.5.5.6.5.3-.4.5-.7.7-.8v4.2c.1.4-.4.1-1.3 0zm1.3-6.6v1.3c-.9-.6-1.6-1-2.2-1.3h2.2zm-3-1.5h-1.8c-.2-.5-.5-1.2-.7-1.6h3.2c-.1.5-.4 1.1-.7 1.6zM131.8 19h4.8v-2h-12v2h4.9v9h-5.6v1.9h13.2V28h-5.3zM176.7 21.1c1-.8 2.3-2 3.6-3.5.2-.2.4-.3.6-.5l.3-.3c0-.1-.4-.3-1.3-.7l-.8-.4c-1.1 1.6-2.3 2.9-3.8 4.1.6.6 1.1.9 1.4 1.3z"/>
		<path d="M116.6 23.5h.4v-1.6h-2.5v-1.1h2.5v-1.6h-6.7v1.6h2.3v1.1h-2.3v1.6h2.3v2.1h-2.7v1.7h7.5v-1.7h-.9l1-.7c-.1 0-.4-.5-.9-1.4zm-.5 2.1h-1.6v-2.2h1.6l-1.1.7c.4.6.8 1.1 1.1 1.5zM164.1 25.7c-.1 0-1.4 1-1.7 1.2v-1.8h2v-1.6h-2v-1.3h1.9v-1.6h-3.6c.1-.1.2-.6.5-1.3h3.3v-1.6H162c.1-.3.5-1.4.4-1.5-1-.3-1.7-.4-2.1-.5 0 .1-.3 1.5-.9 2.8-.4 1-1.2 2-1.7 2.9 0 .1.1.1.1.1.7.5 1.1.8 1.4 1 .1-.1 0 0 .4-.5.1-.1.2-.3.3-.5v.5h.7v1.3h-2.2V25h2.2v2.1c0 .3-.2.5-.5.9l-.3.3c.5 1 .8 1.6 1 1.8.1 0 .2-.1.5-.5.5-.5 1.5-1.3 3.1-2.5 0-.4-.1-.9-.3-1.4zM98.1 17.4c0-.5.1-.8.2-1.2.1-.1.1-.1.1-.2s-.1-.1-.4-.1c-.2-.1-.9-.1-2.1-.1v3.1h-5V27H93v-1.2h3v4.9h2.2v-4.9h3.1v1h2.3V19h-5.3v-1.6zM96 24.3h-3.2v-3.4H96v3.4zm5.3-3.4v3.4h-3.2v-3.4h3.2zM14.8 25c0 3.5 2.8 6.3 6.3 6.3h3.6v-2.7h-4c-2 0-3.6-1.6-3.6-3.6v-.1c0-2 1.6-3.6 3.6-3.6h3.9v-2.7H21c-3.3 0-6.2 2.9-6.2 6.4zM39.8 25c0 3.5 2.8 6.3 6.3 6.3h3.6v-2.7h-4c-2 0-3.6-1.6-3.6-3.6v-.1c0-2 1.6-3.6 3.6-3.6h3.9v-2.7H46c-3.4 0-6.2 2.9-6.2 6.4zM37.7 21.9c0-1.8-1.4-3.2-3.2-3.2h-7.1c-.1 0-.1 0-.1.1v12.6H34.5c1.8 0 3.2-1.4 3.2-3.2 0-1.5-1-2.7-2.3-3.1 1.3-.5 2.3-1.8 2.3-3.2zm-2.2 5.5c0 .4-.2.8-.4 1-.3.3-.7.4-1 .4h-4.6s-.1 0-.1-.1V26v-.1H34c.4 0 .8.2 1 .4.3.3.5.7.5 1.1zm-.4-4.1c-.3.3-.7.4-1 .4h-4.6s-.1 0-.1-.1v-2.8-.1H34c.4 0 .8.2 1 .4.3.3.4.7.4 1s-.1 1-.3 1.2zM10 18.6h2.4v12.7H10z"/>
	</g>
</svg>
