<svg xmlns="http://www.w3.org/2000/svg" viewBox="0 0 200 50">
	<path fill="#F56E28" d="M21.3875 26.775c6.3029 0 11.3875-5.1111 11.3875-11.3875C32.775 9.08465 27.6639 4 21.3875 4 15.0847 4 10 9.08465 10 15.3875c0 6.2764 5.0847 11.3875 11.3875 11.3875Zm.0775 9.057c6.303 0 11.3876-1.3771 11.3876-3.0719 0-1.695-5.1112-3.072-11.3876-3.072-6.3027 0-11.3874 1.377-11.3874 3.072 0 1.6948 5.1111 3.0719 11.3874 3.0719Zm11.3876 4.423c0 1.0063-5.0846 1.8008-11.3876 1.8008-6.2763 0-11.3874-.7945-11.3874-1.8008s5.0847-1.8008 11.3874-1.8008c6.2764-.0266 11.3876.7945 11.3876 1.8008ZM21.465 45.763c6.303 0 11.3876-.2118 11.3876-.5031 0-.2914-5.1112-.5296-11.3876-.5032-6.3027 0-11.3874.2118-11.3874.5032 0 .2648 5.1111.5031 11.3874.5031Z"/>
	<path fill="#0047BB" d="M94.4248 7.41504c4.608.02648 7.9712 3.23086 7.9712 7.86536 0 4.6344-3.3632 7.8388-7.9977 7.8653h-.0794c-4.608-.053-7.9713-3.2309-7.9713-7.8653 0-4.6345 3.3368-7.8124 7.9977-7.86536h.0795Zm-4.608 7.86536c0 2.966 1.8803 4.7933 4.555 4.7933 2.6748 0 4.5285-1.8273 4.555-4.7933-.0265-2.9661-1.8802-4.7934-4.555-4.7934-2.7012 0-4.555 1.8273-4.555 4.7934Zm-35.2217 7.6265h3.2837V7.67941h-3.0984l-7.2033 9.98389V7.67941h-3.2838V22.9069h3.125l7.1768-9.9839v9.9839Zm9.0038-15.22749h-3.3104V22.9069h3.3104v-6.1175h6.7v6.1175h3.3369V7.67941h-3.3369v6.01149h-6.7V7.67941ZM79.3561 22.9069h-3.3102V7.67941h10.3016v3.01899h-6.9914v12.2085Zm57.9179-12.129h-4.873V7.67941h13.082v3.09849h-4.873v12.129h-3.336v-12.129Zm17.028-3.09849h-6.806V22.8804h3.337v-4.555h3.151c3.39 0 6.118-1.8273 6.118-5.3495 0-3.1514-2.198-5.29649-5.8-5.29649Zm2.436 5.32299c0 1.3506-.979 2.357-2.648 2.357h-3.257v-4.661h3.204c1.669 0 2.701.7945 2.701 2.304ZM190 22.9069l-5.402-7.8124 5.19-7.41509h-3.84l-3.257 4.66089-3.204-4.66089h-3.946l5.191 7.49459-5.403 7.7329h3.839l3.47-4.9788 3.416 4.9788H190Zm-15.042-.0002h-3.39l-1.403-3.4957h-6.436l-1.429 3.4957h-3.39l6.488-15.33335h3.072l6.488 15.33335Zm-8.025-11.255-2.012 4.7668h4.026l-2.014-4.7668Zm-55.082 8.422c-2.675 0-4.556-1.8273-4.556-4.7933 0-2.9661 1.854-4.7934 4.556-4.7934 1.403 0 2.568.3973 3.548 1.2447l2.066-2.06565c-1.404-1.3506-3.284-2.22453-5.561-2.25101h-.08c-4.661.05296-7.998 3.23086-7.998 7.86536 0 4.6344 3.363 7.8123 7.972 7.8653h.079c2.278-.0265 4.157-.9004 5.561-2.251l-2.066-2.0656c-.98.8473-2.118 1.2446-3.521 1.2446Zm9.348-4.7933c0 2.966 1.88 4.7933 4.555 4.7933 1.403 0 2.568-.3973 3.548-1.2446l2.066 2.0656c-1.404 1.3506-3.283 2.2245-5.561 2.251h-.08c-4.608-.053-7.971-3.2309-7.971-7.8653 0-4.6345 3.337-7.8124 7.971-7.86536h.08c2.278.02648 4.157.90041 5.561 2.25101l-2.066 2.06565c-.98-.8474-2.145-1.2447-3.548-1.2447-2.701 0-4.555 1.8273-4.555 4.7934ZM55.045 32.3085h-8.8186v4.3432h4.4755c3.6016 0 5.4554 1.5625 5.4554 4.3166 0 3.178-2.2775 4.608-6.038 4.608h-5.8527v-15.095H55.045v1.8272Zm-8.7922 6.1705v5.2436h4.0518c2.4894 0 3.8665-.8475 3.8665-2.7543 0-1.6684-1.1917-2.4893-3.734-2.4893h-4.1843Zm18.8294-8.0507h-1.5624l-6.5942 15.1215h2.0127l1.6684-3.8135h7.3886l1.6684 3.8135h2.0392l-6.6207-15.1215Zm.106 4.8198 2.0656 4.7669h-5.9321l2.0656-4.7669.9005-2.304.9004 2.304Zm19.0936 3.5488h-8.9776v6.753H73.318V30.4548h1.9862v6.5148h8.9776v-6.5148h1.9597v15.0951h-1.9597v-6.753Zm7.5211-8.3421h-1.9861v15.0951h1.9861v-5.7997l1.2712-1.1653 6.8061 6.965h2.6218l-7.5741-7.9183 7.0441-7.1768h-2.5421l-7.627 7.6271v-7.6271Z"/>
</svg>