<svg viewBox="0 0 200 50" xmlns="http://www.w3.org/2000/svg">
	<path fill="#8C1E1E" d="M10 9v29.3956L42.9162 9l-22.9605 9.9654L10 9zm.3408 32.7797l22.9508-9.795 9.7932 9.795V12.384l-32.744 29.3957zm53.1217-18.1001v4.3993l-.0084.1058-.011.1051-.0215.0955-.0219.0962-.0421.0853-.0415.0839-.053.0859-.0545.0737-.0725.0648-.064.0532-.0745.0532-.0635.041-.0757.0212-.0732.034-.0751.0096h-.1476l-.0745-.0096-.0648-.034-.0744-.0302-.0635-.0327-.0634-.0531-.0641-.0648-.0525-.0628-.0647-.0738-.0408-.0762-.0434-.084-.0323-.0853-.0325-.0961-.0096-.0955-.0091-.1052-.0136-.1057v-4.3994l.0136-.0859.0091-.0737.0096-.0731.0325-.0763.0323-.0622.0434-.0545.0408-.0525.053-.0532.0642-.0429.0641-.0411.0634-.0314.0635-.0327.0653-.0205.0739-.0116.0615-.0089h.1606l.0751.0089.0732.0116.0757.0205.0732.0327.0758.0314.0621.0314.0628.0532.0654.0442.0421.0507.0414.066.0421.0622.022.0635.0214.0763.011.0827.0091.0859zm-6.8653 3.6032h1.1784l.0097.1904.0311.2455.0324.2967.0531.3404.0427.1905.0414.2012.055.2007.0629.2141.0738.2256.0732.2211.0964.2449.1056.2449.1068.2442.1386.2334.1483.2333.158.2224.1806.2128.1923.2026.2111.2026.2337.1891.1178.0974.125.0738.1275.0814.127.0769.1379.0622.1482.064.1379.0533.1503.0551.1606.043.1586.0397.1574.0334.1696.021.1715.02.169.0115.1814.0115h.7006l.4758-.032.2337-.0205.2216-.0225.2149-.0314.2001-.0301.2013-.043.2021-.0429.1806-.0423.1813-.0538.1702-.0526.1704-.0641.1599-.0642.1489-.073.1373-.075.1385-.0737.138-.0738.1281-.0865.1153-.0949.1185-.0865.1049-.0955.1055-.0942.0965-.1052.0952-.0961.0829-.1192.0757-.1045.0744-.1193.0726-.116.0537-.1257.0642-.1186.097-.264.0835-.2783.0746-.2858.0634-.3071.0434-.3193.0323-.332.0208-.35.011-.3602v-4.25l-.011-.3302-.0311-.3173-.0213-.15-.0318-.1596-.0323-.1494-.0324-.1468-.0538-.1493-.0421-.1372-.0524-.1392-.0654-.15-.0615-.1365-.0641-.1288-.0745-.1352-.0854-.1289-.169-.2551-.1807-.2327-.2014-.2244-.2123-.2006-.2221-.2019-.2338-.1705-.2545-.1597-.2647-.1493-.2779-.1276-.2855-.116-.2868-.0949-.2978-.0744-.3089-.0635-.316-.046-.3179-.0302h-.3198l-.382.009-.371.0212-.18.0217-.1704.034-.1806.0314-.1586.032-.1697.0417-.1592.0539-.1606.0519-.1573.0539-.1503.0621-.1599.0634-.1353.075-.1503.0745-.2752.1589-.2564.1821-.1165.0955-.1172.0955-.1159.107-.1068.1039-.1049.1071-.1062.1166-.0965.1179-.0828.116-.0965.1193-.0758.1257-.0835.1288-.0738.1372-.1288.2756-.1153.2769-.1075.2975-.0738.2994-.0634.307-.0435.3071-.031.3186-.0104.33h-1.1784v-4.6531h-3.9173V32.552h3.9173v-5.2692zm12.1533 5.1307v-9.159l.0097-.2757.0207-.2653.0434-.2545.0634-.2449.0745-.2455.0958-.234.1172-.223.125-.2225.1405-.2115.1683-.193.1703-.191.1917-.1705.2007-.157.2233-.161.2345-.1365.2538-.1295.2648-.1173.2661-.0955.2875-.0847.2953-.0731.2971-.0519.3193-.0339.3179-.0333h3.3539v3.6672H74.078l-.2014.02-.1806.023-.1599.0327-.1374.0417-.1171.0545-.1062.0615-.0752.0737-.0641.0872-.0517.1057-.0421.1174-.0428.1269-.0317.1481-.0097.1692-.0233.1827v8.0526h-4.0843zm8.6284-5.9397h5.1035v2.4737h-5.1035v-2.4737zm16.9491-4.9732v10.9129h-4.0234v-5.2814l-2.5258 3.6673v1.6468h-4.1796V19.4494h4.087v5.1756l2.4177-3.7513v-1.4243h4.2241v2.0512zm1.0091-2.0512v12.9641h4.0859v-5.1308h1.889v5.1308h4.088V19.4494h-4.088v4.5384h-1.889v-4.5384h-4.0859zm11.1769 12.9642v-8.734l.01-.3295.021-.309.042-.307.064-.2859.084-.2879.095-.2757.117-.255.142-.2545.145-.2353.162-.2333.189-.2032.19-.202.212-.1794.235-.1706.243-.1589.257-.1391.273-.127.29-.1153.307-.0853.318-.0878.328-.05.351-.0423.361-.0315h.562l.339.0097.33.0218.319.0513.307.0641.148.0442.149.0417.138.0519.139.0519.138.0654.137.0641.136.0731.13.0743.243.1596.234.1693.223.1711.2.193.182.2025.167.2096.161.2244.141.2327.126.2353.105.2326.086.2334.074.2449.065.2455.042.2346.019.2436.011.2416-.011.1604-.009.1505-.01.1584-.033.15-.032.1359-.031.15-.043.1372-.051.1282-.064.1275-.066.1276-.073.116-.086.109-.084.1038-.097.1052-.093.0974-.121.0846.142.0744.126.0859.127.0846.117.0962.118.1057.116.116.105.1174.105.1275.097.1391.096.1379.085.1486.084.136.074.15.064.1615.063.159.054.159.043.1576.041.159.031.1629.034.1576.019.1603.024.1577.009.1487v.1609l-.009.241-.01.2372-.033.2314-.054.2237-.052.234-.064.2148-.085.2224-.094.2109-.107.2013-.117.1929-.129.1911-.146.1692-.149.1718-.171.1474-.178.1494-.194.1384-.191.1283-.212.1051-.211.0852-.234.0738-.223.0628-.243.032-.246.0328-.263.0102h-2.272v-3.3148l.17-.0115.158-.009.159-.0211.138-.0328.129-.0307.116-.0462.105-.0622.097-.0525.083-.0731.076-.0647.063-.0737.054-.0757.042-.0724.031-.0885.01-.0814.011-.0872-.011-.0961-.01-.0937-.031-.096-.042-.0969-.054-.0942-.063-.0846-.076-.0866-.083-.0827-.097-.0878-.105-.0737-.108-.0545-.117-.05-.114-.0346-.128-.0294-.128-.0103-.138-.0128h-.137v-2.7193h.096l.084-.0109.073-.0205.075-.0314.075-.034.064-.0417.064-.0538.064-.0526.05-.0634.044-.0635.043-.0737.03-.0647.025-.075.018-.0738.01-.0743V23.52l-.01-.0635-.018-.0763-.014-.0622-.032-.075-.03-.0622-.031-.0641-.044-.064-.052-.0635-.053-.0417-.055-.0442-.064-.0416-.053-.0212-.073-.0218-.075-.0115h-.189l-.106.0224-.098.0205-.071.0436-.08.0538-.061.0622-.045.077-.03.0813-.03.1071-.022.116-.022.1513-.011.1577-.021.3833-.011.4686v7.8616h-4.084zm17.627-.0001h2.284v-3.466h-2.189l-.188-.0192-.181-.043-.171-.0525-.159-.0642-.16-.0853-.148-.0961-.148-.1141-.125-.1173-.12-.1166-.106-.1289-.095-.1275-.074-.1392-.063-.1243-.066-.1398-.031-.1378h4.024v-3.0289h-4.024l.011-.0859.02-.0827.034-.0961.032-.0763.042-.084.052-.075.043-.0852.063-.0738.064-.0641.064-.0731.076-.0647.083-.0634.171-.1276.2-.1179.215-.1064.21-.084.224-.0738.222-.0627.214-.0545.232-.0321.223-.0224h1.529v-3.3577h-1.997l-.38.0115-.372.0218-.35.0429-.35.0622-.341.0743-.329.0962-.32.118-.295.1365-.297.1385-.276.1608-.278.1687-.254.1903-.244.1936-.233.2129-.222.2211-.215.234-.2.2442-.179.2436-.168.2571-.161.264-.148.277-.14.2769-.116.2956-.115.2884-.098.3083-.086.2969-.061.2993-.065.3057-.044.3097-.03.3064-.021.3109-.01.3064.01.2006v.2039l.021.2006.009.2026.032.2013.033.1916.031.202.044.1936.041.1904.054.1891.052.191.065.1833.063.1891.075.1789.085.1833.074.1789.097.1717.095.1821.094.1571.106.1698.109.1615.114.1481.13.159.125.1481.127.1378.139.1372.148.1404.148.125.15.1288.157.1167.17.1179.172.116.178.1064.183.1071.178.084.193.0968.191.0737.201.0757.201.0647.201.0609.214.0526.222.0429.214.0327.224.0295.232.0359.233.0096.232.0103.244.0102zm11.804 0h-2.165l-.245-.0102-.244-.0103-.232-.0096-.233-.0359-.225-.0295-.222-.0327-.224-.0539-.21-.0512-.214-.0513-.2-.0763-.202-.0724-.201-.0763-.191-.0956-.192-.0948-.191-.1064-.18-.1077-.17-.118-.172-.116-.168-.1276-.158-.1281-.163-.1353-.147-.1397-.139-.1379-.136-.1493-.128-.1475-.127-.1608-.128-.1597-.117-.157-.106-.1725-.107-.1698-.094-.1808-.096-.1814-.084-.1897-.086-.1808-.072-.1911-.077-.1807-.064-.191-.063-.1924-.051-.1916-.045-.1905-.041-.2-.043-.191-.033-.2031-.018-.1917-.022-.2007-.011-.2038-.012-.2026v-.5071l.023-.3102.03-.2981.052-.3057.055-.2975.074-.2993.084-.2968.097-.2981.105-.2865.128-.2859.138-.2667.149-.2769.157-.2526.183-.2564.189-.2545.203-.2353.212-.2326.224-.2244.243-.2006.255-.2026.265-.1808.287-.1571.288-.1602.306-.1391.32-.1276.326-.1172.342-.0854.338-.0839.362-.0526.371-.0429.374-.0218.38-.0115h1.889v3.8051h-1.805l-.203.0205-.19.034-.18.041-.168.0513-.17.0775-.17.0731-.151.0956-.148.0974-.139.116-.125.1173-.128.1148-.107.1384-.106.1385-.082.15-.087.1481-.073.1589-.065.159-.054.1699-.041.1609-.032.1692-.022.1609-.011.1699-.01.1692.01.1802.011.1807.032.1705.031.1679.045.1719.062.1686.065.1705.072.159.086.1595.094.1495.106.148.116.1391.128.1275.138.118.152.1154.161.0949.158.0974.168.0827.182.0647.189.0642.192.0436.19.0307.213.0205h1.666v3.6026zm3.108-9.2969v9.2969h4.046v-9.2969h2.176v-3.6672h-8.398v3.6672h2.176zm15.88 1.4354l.137.084.138.0846.119.0968.125.1051.119.118.116.1153.103.1283.099.1384.106.1487.084.1481.085.15.084.1577.074.1699.065.1718.053.1686.063.182.043.1699.041.1782.033.1839.033.179.021.18.02.1821v.1814l.011.177-.011.2775-.02.2782-.032.2654-.043.2551-.053.2533-.074.255-.085.2455-.096.2436-.104.2443-.12.2218-.126.2148-.151.2012-.147.191-.17.1821-.179.1698-.192.1481-.19.1494-.212.116-.213.1065-.222.0845-.233.0745-.234.0422-.256.0333-.256.0097h-6.939v-8.734l.011-.3302.021-.307.042-.3083.061-.2866.087-.2878.097-.2756.116-.2552.127-.2538.16-.2353.157-.234.181-.2019.203-.2019.211-.1814.234-.1693.243-.1589.255-.1391.276-.1263.287-.1154.307-.0853.319-.0877.329-.0514.35-.0416.362-.0315h5.138v3.2091h-4.766l-.117.0083-.107.0212-.084.0429-.085.0526-.074.0647-.053.0738-.054.096-.031.1174-.033.1256-.021.1494-.021.159-.01.191-.032.4269v4.8013h.753l.16-.0122.15-.0179.136-.0224.127-.0321.117-.041.106-.0443.105-.0621.087-.0545.074-.0622.063-.0641.054-.0635.042-.0731.02-.0762.021-.0769.014-.0731-.014-.1039-.041-.109-.052-.1064-.075-.1038-.095-.1058-.118-.1064-.129-.0859-.138-.0737-.158-.0641-.146-.0539-.173-.0205-.168-.0121h-.139v-2.7193l.489-.1814.712-.1071 1.069.1071 1.647.3205zm2.972-.4269v8.2884h4.085v-8.6686l.012-.0974.02-.0955.034-.084.031-.0769.043-.0731.052-.075.065-.0507.064-.0557.072-.05.065-.0455.075-.0314.082-.0206.087-.0211.075-.009h.18l.095.009.072.0211.087.0206.075.0314.072.0455.065.05.064.0557.065.0507.041.075.043.0731.041.0769.023.084.022.0955.01.0974v1.4007h-1.149v3.4942h1.149v3.7737h4.095v-8.1391l-.01-.3288-.02-.3199-.033-.3077-.042-.2859-.052-.2878-.076-.2757-.084-.2545-.096-.2564-.104-.2326-.118-.2245-.117-.2217-.137-.2013-.14-.193-.159-.1814-.159-.1698-.169-.1578-.181-.15-.182-.1474-.189-.1288-.192-.1148-.201-.1083-.21-.0955-.214-.0955-.213-.0743-.222-.0642-.225-.0615-.233-.0532-.222-.043-.234-.0345-.243-.0206-.233-.0096h-.436l-.182.0096-.178.0103-.181.023-.181.0218-.17.0321-.17.0308-.168.0436-.159.0512-.172.0411-.159.0672-.149.0635-.16.0622-.147.075-.148.0859-.139.0846-.276.1808-.255.1994-.126.0981-.117.116-.117.1076-.109.1154-.103.1167-.106.1173-.097.1147-.086.1289-.094.1384-.085.1276-.074.1384-.075.1385-.136.2865-.119.2975-.105.2865-.085.309-.065.2987-.04.3064-.033.3084v.318zm10.953 8.2884V19.4494h4.098v4.5384h1.889v-4.5384h4.087v12.9641h-4.087v-5.1308h-1.889v5.1308h-4.098zm11.145-12.9641v12.9641h4.085v-5.2814l.224.0326.19.0315.182.0416.169.0314.139.045.128.0512.106.0558.082.0525.078.0622.061.0743.052.0976.044.1044.044.118.02.1269.011.1397.009.159v4.0577h4.087v-4.4833l-.01-.3084-.033-.2866-.019-.139-.033-.1289-.031-.1269-.032-.1282-.044-.1135-.052-.1083-.052-.1045-.055-.0962-.061-.0974-.076-.0846-.063-.0846-.086-.0853-.16-.1378-.181-.1275-.179-.1161-.191-.1057-.191-.0865-.212-.0745-.211-.0519-.225-.0423.117-.0346.108-.05.105-.0654.106-.0853.106-.1057.095-.1167.107-.1384.095-.1475.084-.1705.096-.1929.085-.2103.095-.2244.085-.2429.077-.2679.081-.275.079-.2975.962-3.2211h-4.086l-.952 3.2211-.057.2558-.073.266-.095.2757-.108.2769-.062.1365-.054.118-.062.0936-.064.075-.065.0634-.064.0533-.062.0217-.065.0097-.043-.0417v-4.825h-4.085z"/>
</svg>
