<svg xmlns="http://www.w3.org/2000/svg" viewBox="0 0 200 50">
	<path fill="#335497" d="M45.5677 15.0862H25v20.5677h20.5677V15.0862z"/>
	<path fill="#fff" d="M44.4262 16.3151H26.2753v18.3978h18.1509V16.3151z"/>
	<path fill="#335497" d="M26.625 16.7626h17.4465v17.4825H26.625V16.7626z"/>
	<path fill="#fff" d="M27.1649 20.4492H28.62v-2.8178h14.6339v15.8885H28.5943v-.8432h-1.4551l.0257-12.2275z"/>	
	<g fill="#335497">
		<path d="M27.8641 21.1024h5.687c-1.846 1.8202-3.6662 3.6353-5.4813 5.4504 1.8151 1.8665 3.6353 3.733 5.4813 5.5944h-5.687V21.1024z"/>
		<path d="M34.7388 21.0663h1.1672c-1.9128 1.8151-3.8359 3.6507-5.7384 5.4812 1.9025 1.882 3.8256 3.7639 5.7384 5.6561h-1.1672c-1.9265-1.8819-3.8411-3.7673-5.7436-5.6561 1.918-1.8305 3.8153-3.6661 5.7436-5.4812zM36.5024 23.3546h5.9544v8.8184h-5.9544v-.0977c.1302.0081.2607.0081.3908 0 2.7612.0154 5.0237-1.63 5.0237-3.6868 0-2.0567-2.2625-3.7279-5.0237-3.7279h-.3908v-1.306z"/>
		<path d="M64.6133 33.7309l.2365 1.9333.1851.1954h.1337c.2905-.0205.5616-.1533.7559-.3702.2543-.3006.4434-.6508.5553-1.0284l-3.3782-7.3221-.6787-.1645v-.941h3.8512v.941l-.5501.0668-.1337.2417 2.0259 4.4529 1.3934-4.3243-.1079-.288-.6273-.1491v-.941h2.7457v.941l-.5913.1491-2.3447 6.885c-.2319.892-.6625 1.72-1.2598 2.4219-.2277.2382-.5026.4262-.8072.5519-.3046.1258-.6322.1864-.9616.1782-.5765-.0148-1.1423-.1589-1.6557-.4216v-3.008h1.2135zM79.7204 26.0334v3.2651H78.476l-.2108-1.9693-.2108-.1903h-2.463v3.4914c.4399-.0589.8829-.0915 1.3266-.0977.8719-.0546 1.7345.2044 2.4322.7301.3532.3096.63.6968.8084 1.1313s.2537.9044.2199 1.3729c.0448.8377-.2415 1.6594-.797 2.2881-.3366.3062-.7312.5417-1.1604.6927-.4292.151-.8844.2145-1.3385.1866h-4.674v-.941l.617-.0668.2108-.3086v-8.335l-.2108-.2417-.617-.0668v-.941h7.3118zm-4.1136 9.7697c.2014.0239.4041.0342.6068.0308.2439.0276.4909-.0048.7194-.0944.2285-.0897.4316-.2337.5918-.4198.3095-.44.4518-.9761.401-1.5117.0483-.6133-.1351-1.2225-.5141-1.7071-.1387-.1487-.3094-.2639-.4991-.3369-.1898-.073-.3936-.102-.5962-.0848-.2467-.0016-.4925.0312-.7301.0977l.0205 4.0262zM87.0218 26.0334l3.0852 9.8262.5913.1337v.941h-3.8565v-.941l.6839-.0823.1029-.2108-.6993-2.4218h-2.8178l-.6633 2.4064.1337.1902.6221.1183v.941h-2.7457v-.941l.6375-.0668 3.0338-9.8931h1.8922zm-2.6121 6.1703h2.1236l-1.0746-3.5993-1.049 3.5993zM96.2516 26.0334v.941l-.5707.0668-.216.2417v3.332h3.3063v-3.332l-.2109-.2417-.5759-.0668v-.941h3.9596v.941l-.607.0668-.206.2417v8.335l.206.3086.607.0668v.941h-3.9596v-.941l.5759-.0668.2109-.3086v-3.7998h-3.3063v3.7998l.216.3086.5707.0668v.941h-3.9541v-.941l.5862-.0668.2262-.3086v-8.335l-.2262-.2417-.5862-.0668v-.941h3.9541zM107.816 26.0334v.941l-.674.0668-.226.2417v3.0852c.467-.0612.937-.0938 1.409-.0977.458-.0438.92.0155 1.352.1734.432.158.824.4106 1.146.7395.322.3288.566.7255.715 1.1609.148.4355.198.8988.144 1.3558.053.859-.233 1.7044-.797 2.355-.336.3066-.73.5425-1.16.6936-.429.151-.884.2142-1.339.1857h-4.627v-.941l.612-.0668.216-.3086v-8.335l-.216-.2417-.612-.0668v-.941h4.057zm-.9 9.7697c.164 0 .375.0308.612.0308.243.0245.489-.0093.717-.0987.228-.0894.432-.2318.594-.4155.298-.4568.437-.9988.396-1.5426.042-.6355-.121-1.2677-.463-1.8048-.14-.1573-.314-.28-.51-.3585-.195-.0785-.406-.1107-.616-.094-.247-.0039-.493.0291-.73.0977v4.1856zM127.119 35.9933l.627-.0668.257-.3086v-8.335l-.175-.2417-.709-.0668v-.941h4.062c1.496 0 2.195.3702 2.499.5862.889.5965 1.203 1.5426 1.203 2.7098.034.4913-.031.9844-.19 1.4506-.159.4661-.409.8959-.736 1.2643-.381.3463-.827.6125-1.313.783-.486.1705-1.001.2417-1.515.2094-.261-.0007-.522-.0179-.781-.0514v2.6326l.195.3086.761.0668v.941h-4.185v-.941zm3.239-4.1135h.108c.249.0196.499-.0107.735-.0893.237-.0786.455-.2039.643-.3684.415-.5553.616-1.2418.566-1.9333.014-.5535-.095-1.1033-.319-1.6094-.105-.2268-.274-.4181-.486-.5505-.212-.1324-.457-.2002-.707-.1951h-.54v4.746zM136.322 35.9933l.674-.0668.211-.3086v-8.335l-.211-.2417-.674-.0668v-.941h6.844v2.7098h-.92l-.211-1.4294-.185-.1749h-2.345v3.5839h1.394l.195-.2211.134-1.1723h.941v3.9953h-.941l-.134-1.1673-.195-.2262h-1.394v3.8976h2.751l.19-.2623.211-1.7842h.921v3.152h-7.256v-.941zM154.067 26.0334v.941l-.602.0668-.215.2417v8.3505l.164.1954h.756v2.8434h-1.106l-.344-1.4551-.185-.2622h-5.847l-.185.2622-.344 1.4551h-1.095v-2.8434h.442c.788-1.3361 1.403-2.7667 1.83-4.2575.393-1.3776.664-2.7867.813-4.2113l-.211-.2416-.9-.1286v-.9564h7.029zm-3.172 9.7697v-8.6642h-1.481c-.162 1.7212-.491 3.4226-.982 5.0802-.39 1.2495-.907 2.4556-1.543 3.5994l4.006-.0154zM159.816 26.0334v.941l-.576.0668-.211.2417v5.9955l3.522-5.5379v-.4576l-.215-.2417-.576-.0668v-.941h3.959v.941l-.607.0668-.211.2417v8.335l.211.3086.607.0668v.941h-3.959v-.941l.576-.0668.215-.3086v-6.124l-3.522 5.543v.581l.211.3086.576.0668v.941h-3.959v-.941l.591-.0668.221-.3086v-8.335l-.221-.2417-.591-.0668v-.941h3.959zM175 26.0334v2.7715h-.89l-.282-1.4757-.237-.1903h-1.26v8.479l.257.3086.669.0668v.941h-4.201v-.941l.668-.0668.258-.3086v-8.479h-1.286l-.231.1903-.263 1.4757h-.894v-2.7715H175zM60.6901 35.9265l-.2108-.4217-2.2008-5.6509 2.1648-2.8127.5502-.0668v-.941h-2.9566v.941l.2673.1491.108.2931-2.936 3.7176v-3.8513l.2108-.2417.5502-.0668v-.941h-3.985v.941l.653.0668.216.2417v8.335l-.216.3086-.653.0668v.941h3.985v-.941l-.5502-.0668-.2108-.3086v-2.1287l1.0489-1.3575 1.9077 4.8026h2.8075v-.941l-.5502-.0668zM125.149 35.9265l-.216-.4217-2.195-5.6509 2.164-2.8127.766-.0668v-.941h-3.172v.941l.267.1491.108.2931-2.941 3.7176v-3.8513l.216-.2417.55-.0668v-.941h-3.985v.941l.653.0668.216.2417v8.335l-.216.3086-.653.0668v.941h3.985v-.941l-.55-.0668-.216-.3086v-2.1287l1.049-1.3575 1.913 4.8026h3.023v-.941l-.766-.0668zM52.2522 20.2694l.653-.036.1543-.1851v-5.0648l-.1543-.1491-.653-.036v-.5759h3.296v.5759l-.5708.036-.1594.1491v2.0928h.4422c.2058.0119.4094-.0481.5759-.1697.1739-.1635.3061-.3663.3857-.5913l.3959-.9513c.1212-.3953.3468-.7505.653-1.0283.2268-.1951.5186-.2979.8176-.288.1489-.0102.2982.0121.4376.0653.1394.0533.2655.1363.3697.2432.1507.1594.2321.372.2262.5913.0105.2261-.0656.4477-.2127.6196-.1471.172-.3542.2814-.5792.306l-.8072-.689c-.0845.1322-.1535.2737-.2057.4216l-.3137.8021c-.0512.1938-.1427.3745-.2685.5304-.1258.156-.2831.2836-.4616.3746.3204.0595.6178.2073.8587.4268.2826.2594.5085.5745.6633.9255l.6067 1.3369.1851.1543.6993.0566v.5759h-2.5709v-.3857l-.7919-1.7842c-.075-.2147-.1921-.4123-.3445-.5811-.0684-.0645-.1493-.1143-.2378-.1461-.0885-.0319-.1825-.0451-.2764-.039h-.2674v2.2213l.1594.1851.5708.036v.5759h-3.2754v-.6016zM65.4102 14.7829c.4004.32.726.7235.9541 1.1825.2281.4589.3531.9621.3664 1.4745.0132.5123-.0857 1.0213-.2898 1.4914-.2041.4701-.5085.8899-.8919 1.2301-.7147.5603-1.6012.8564-2.5092.8381-.8468.0195-1.6752-.2488-2.3499-.761-.4-.3339-.7182-.755-.9303-1.2309-.2121-.476-.3125-.9942-.2934-1.5149-.0186-.5117.0824-1.0207.2948-1.4866s.5305-.8759.9289-1.1975c.7141-.5093 1.576-.7695 2.4527-.7404.8116-.0179 1.6071.2275 2.2676.6993v.0154zm-3.4039.6222c-.4054.6449-.6028 1.3988-.5657 2.1596-.0446.7548.1615 1.5032.5862 2.1288.1238.1755.2879.319.4784.4182.1905.0993.402.1516.6169.1525.2034.0016.4045-.044.5874-.1332.1829-.0892.3427-.2196.4667-.381.4242-.6681.6308-1.4514.5913-2.2418.0504-.7228-.1296-1.4429-.5142-2.0568-.1277-.1893-.3001-.3441-.5019-.4508-.2018-.1068-.4268-.1621-.6551-.1611-.2138-.0006-.4246.0506-.6144.1491-.1898.0985-.353.2414-.4756.4165zM67.3489 20.2746l.6941-.0411.1183-.1851v-5.0648l-.1183-.1491-.6941-.036v-.5759h3.188v.2879l1.3677 4.1341 1.3472-4.1444v-.2776h3.1983v.5759l-.7353.036-.1234.1491v5.0648l.1234.1851.7353.0411v.5708h-3.1983v-.5708l.617-.0411.0874-.1851v-5.0957h-.0205l-1.9334 5.8927h-.9975l-1.9385-5.8927h-.0154v5.0957l.1182.1851.6479.0411v.5708h-2.4681v-.5708zM76.9539 20.2746l.6941-.0411.1131-.1851v-5.0648l-.1131-.1491-.6941-.036v-.5759h3.1879v.2879l1.3627 4.1341 1.3523-4.1444v-.2776h3.1982v.5759l-.7404.036-.1183.1491v5.0648l.1183.1851.7404.0411v.5708h-3.1982v-.5708l.6119-.0411.0874-.1851v-5.0957h-.0154l-1.9385 5.8927h-.9924l-1.9385-5.8927h-.0206v5.0957l.1234.1851.6479.0411v.5708h-2.4681v-.5708zM86.6052 20.2746l.6582-.0411.1594-.1851v-5.0648l-.1594-.1491-.6582-.036v-.5759h5.4299v1.6454h-.8484l-.1594-.8639-.1389-.1079h-1.7431v2.1801h1.0336l.1491-.1388.0977-.7147h.7044v2.4321h-.7044l-.0977-.7147-.1491-.1337h-1.0336v2.3704h2.0517l.1388-.1594.1542-1.0849h.8485v1.9128h-5.7333v-.5708zM92.9554 20.2694l.6274-.036.1902-.1851v-5.0648l-.1285-.1491-.6891-.036v-.5759h3.1932c.6424-.0461 1.2858.0762 1.8665.3548.2938.157.5354.3963.6952.6886.1598.2923.2309.6248.2046.9569.0162.3096-.0378.6189-.158.9047-.1202.2859-.3035.5408-.5361.7458-.6147.4367-1.3608.6491-2.1134.6016-.1941.0001-.388-.0102-.581-.0308v1.6042l.1491.1851.7302.036v.5759h-3.4503v-.5759zm2.571-2.4938h.0823c.3646.0298.7283-.0684 1.0284-.2777.1504-.1537.2663-.3379.3399-.5401.0736-.2021.1032-.4177.0868-.6322.0105-.341-.0713-.6785-.2365-.977-.0947-.1476-.227-.2674-.3834-.3469-.1563-.0795-.331-.116-.5061-.1056h-.4063l-.0051 2.8795zM102.278 14.2226v.5759l-.514.036-.16.1491v1.3214c-.034.3081.038.6186.206.8793.101.1082.225.1917.363.2443.138.0526.287.0728.434.0591.386-.0093.767-.0858 1.126-.2263v-2.2778l-.164-.1491-.515-.036v-.5759h3.235v.5759l-.612.036-.16.1491v5.0648l.16.1851.612.036v.5759h-3.409v-.5759l.735-.036.144-.1851v-2.0568c-.543.1398-1.1.2157-1.661.2262-.321.0302-.645-.0064-.951-.1072-.306-.1009-.588-.2639-.828-.4789-.294-.3856-.4253-.8712-.3652-1.3524v-1.2957l-.1696-.1491-.5399-.036v-.5759h3.0337zM106.803 20.2746l.658-.0411.154-.1851v-5.0648l-.154-.1491-.658-.036v-.5759h5.425v1.6454h-.854l-.154-.8639-.139-.1079h-1.748v2.1801h1.038l.149-.1388.098-.7147h.699v2.4321h-.699l-.098-.7147-.149-.1337h-1.038v2.3704h2.056l.134-.1594.16-1.0849h.853v1.9128h-5.733v-.5708zM119.169 20.6087c-.682.2425-1.4.3694-2.124.3754-.493.0335-.989-.0321-1.457-.1928-.468-.1607-.899-.4133-1.268-.7431-.382-.3617-.675-.8066-.858-1.3001-.182-.4935-.248-1.0223-.193-1.5455.056-.5231.231-1.0265.512-1.4711.281-.4446.661-.8185 1.11-1.0926.667-.3921 1.433-.5815 2.206-.545.704.0058 1.401.14 2.056.3959v1.7894h-.91l-.236-1.2186-.17-.1543c-.168-.0444-.341-.0652-.514-.0617-.262-.0072-.522.0382-.766.1336s-.466.2388-.653.4217c-.258.2864-.456.6212-.583.9849-.127.3637-.181.749-.158 1.1336-.03.6949.166 1.3809.561 1.9539.191.2405.434.4342.711.5661.277.1319.581.1986.888.1949.18 0 .406-.0308.514-.0411l.154-.144.252-1.2854h.91l.016 1.8459zM119.868 20.2694l.648-.036.16-.1851v-5.0648l-.16-.1491-.648-.036v-.5759h3.296v.5759l-.576.036-.159.1491v2.0928h.447c.205.0115.406-.0485.571-.1697.176-.1622.308-.3653.386-.5913l.396-.9513c.123-.3943.348-.7491.653-1.0283.227-.1943.518-.2969.817-.288.149-.0102.298.0121.438.0653.139.0533.265.1363.37.2432.076.0778.136.1703.176.272.04.1016.058.2103.055.3193.009.2258-.067.4467-.214.6184-.147.1717-.353.2814-.578.3072l-.807-.689c-.091.1287-.16.2711-.206.4216l-.319.8021c-.221.5451-.432.7816-.73.905.321.0584.619.2064.859.4268.283.2579.507.5735.658.9255l.617 1.3369.185.1543.694.0566v.5759h-2.571v-.3857l-.807-1.7842c-.077-.2138-.194-.4109-.344-.5811-.069-.0638-.15-.113-.239-.1448-.088-.0318-.182-.0455-.276-.0403h-.267v2.2213l.159.1851.576.036v.5759h-3.26v-.6016zM130.425 14.2226v.5759l-.592.036-.159.1491v3.6404l2.628-3.3679v-.2725l-.16-.1491-.591-.036v-.5759h3.275v.5759l-.612.036-.154.1491v5.0648l.154.1851.612.0411v.5708h-3.275v-.5708l.591-.0411.16-.1851v-3.7228l-2.628 3.368v.3548l.159.1851.592.0411v.5708h-3.276v-.5708l.602-.0411.165-.1851v-5.0648l-.165-.1491-.602-.036v-.5759h3.276zM138.657 14.2225v.5759l-.591.036-.16.1491v3.6353l2.628-3.3679v-.2725l-.16-.1492-.591-.0359v-.5708h3.275v.5759l-.611.036-.16.1491v5.0648l.16.1851.611.036v.5759h-3.275v-.5759l.591-.036.16-.1851v-3.7228l-2.628 3.368v.3548l.16.1851.591.036v.5759h-3.275v-.5759l.601-.036.165-.1851v-5.0648l-.165-.1491-.601-.036v-.5759h3.275zm-.247-1.1364c.535.1029 1.085.1029 1.62 0v-.8484c.191-.1642.437-.2489.689-.2365.591 0 .828.3445.828.6736-.004.1728-.057.3409-.155.4835-.098.1425-.235.2533-.395.3186-1.154.3839-2.4.3839-3.554 0-.159-.0647-.297-.1745-.396-.316-.098-.1415-.153-.3086-.159-.481 0-.3291.242-.6736.833-.6736.252-.0113.498.0732.689.2366v.8432zM151.527 14.2226v1.9847h-.93l-.155-1.198-.159-.1131h-1.836v2.1184c.283-.0257.689-.0565.987-.0565.636-.0372 1.268.1168 1.816.4422.25.1676.452.3987.583.6698.132.271.19.5722.167.8727.012.2622-.036.5236-.139.7648-.103.2412-.26.4561-.457.6287-.543.3798-1.201.5613-1.862.5142h-3.635v-.581l.622-.036.16-.1851v-5.0648l-.16-.1491-.622-.036v-.5759h5.62zm-3.085 5.944c.151.0093.302.0093.453 0 .176.0168.355-.0038.523-.0605.168-.0567.323-.1482.454-.2686.11-.1243.193-.2705.244-.429.05-.1586.067-.326.049-.4914.018-.1876-.006-.377-.069-.5546-.063-.1777-.164-.3394-.296-.4737-.227-.1899-.519-.2823-.813-.2571-.183-.0015-.366.0175-.545.0565v2.4784zM156.51 14.1711l2.293 6.0211.597.0772v.5759h-3.199v-.5759l.674-.0463.082-.1286-.514-1.4705h-2.124l-.514 1.4603.098.1182.632.0669v.5759h-2.38v-.5759l.642-.036 2.258-6.0623h1.455zm-1.944 3.7947h1.579l-.797-2.1853-.782 2.1853zM162.814 14.2226v.5759l-.592.036-.159.1491v2.0207h2.468v-2.0207l-.154-.1491-.597-.036v-.5759h3.276v.5759l-.607.036-.159.1491v5.0648l.159.1851.607.0411v.5708h-3.276v-.5708l.597-.0411.154-.1851v-2.3088h-2.468v2.3088l.159.1851.592.0411v.5708h-3.276v-.5708l.602-.0411.164-.1851v-5.0648l-.164-.1491-.602-.036v-.5759h3.276zM167.611 20.2694l.648-.036.165-.1851v-5.0648l-.165-.1491-.648-.036v-.5759h3.296v.5759l-.571.036-.159.1491v2.0928h.442c.206.0119.41-.0481.576-.1697.174-.1625.305-.3657.381-.5913l.395-.9513c.124-.3943.349-.7491.653-1.0283.228-.1934.519-.2959.818-.288.15-.011.3.0109.44.0642.141.0533.268.1367.372.2443.151.1594.233.3721.227.5913.01.2261-.066.4477-.213.6196-.147.172-.354.2814-.579.306l-.807-.689c-.087.1311-.156.2728-.206.4216l-.319.8022c-.216.545-.432.7815-.73.9049.321.0576.619.2057.859.4268.284.258.51.5735.663.9256l.612 1.3369.19.1542.689.0566v.5759h-2.571v-.3857l-.781-1.7842c-.073-.2156-.191-.4136-.345-.5811-.068-.0645-.149-.1143-.238-.1461-.088-.0319-.182-.0451-.276-.039h-.267v2.2213l.159.1851.571.036v.5759h-3.296l.015-.6016z"/>
	</g>
	<path fill="#B4966A" d="M36.8676 25.8741c.797 0 1.4294 1.1981 1.4294 2.6893 0 1.4911-.6324 2.6789-1.4294 2.6789s-1.4397-1.2186-1.4397-2.6944c0-1.4757.6273-2.6789 1.4397-2.6738z"/>
	<linearGradient id="gr1" x1="34.1887" y1="25.1284" x2="38.9552" y2="31.9363" gradientUnits="userSpaceOnUse">
		<stop stop-color="#B4966A"/>
		<stop offset=".5" stop-color="#FEF0C7"/>
		<stop offset="1" stop-color="#B4966A"/>
	</linearGradient>
	<path fill="url(#gr1)" d="M36.5694 25.8483c.7918 0 1.4294 1.198 1.4294 2.6892 0 1.4911-.6376 2.6789-1.4294 2.6789-.7919 0-1.4398-1.2186-1.4398-2.6943 0-1.4758.6428-2.7047 1.4398-2.6738z"/>
</svg>
