<svg viewBox="0 0 200 50" xmlns="http://www.w3.org/2000/svg">
	<path fill="#ea5a06" d="m180 8-5.4 2.7c-1.7.8-2.5 2.2-2.5 4.1l.1 19.1 5.4-2.7c1.7-.9 2.6-2.2 2.6-4.1L180 8zM161.7 28.1c-1 .5-1.6 1.6-1.6 2.8v8.8l5.4-2.7c1.6-.8 2.5-2.1 2.5-3.9l-.1-8.2-6.2 3.2zM125.9 10c-2 1-2.6 2-2.4 4.4 1.5-.8 2.9-1.5 4.3-2.2 1.8-.9 2.4-2.1 2-4.2l-3.9 2zM106.6 17.1c-.6-.6-1.3-1.1-2.1-1.2-1.6-.4-3.2-.1-4.6 1.2.2-1.6.8-2.4 2.3-2.8 1-.3 2-.5 2.9-.7 1.7-.3 2.1-.9 1.5-2.7-.5.1-1.1.2-1.6.3-1.2.2-2.5.5-3.7.8-1.8.5-3.1 1.7-3.6 3.5-.3 1.2-.4 2.5-.4 3.8.2 5.2 4.6 6 7.7 4.7 1.8-.8 2.7-2.4 2.5-4.6 0-.9-.3-1.7-.9-2.3zm-4.1 5.4c-1.3 0-2.3-1-2.3-2.4s.9-2.4 2.3-2.4 2.4.9 2.4 2.3c0 1.5-1 2.5-2.4 2.5zM23.1 19.4H25l3.1 4.9h3.2l-4.1-6.2 3.9-5.8h-2.9l-3.2 5h-1.9v-5h-2.8v12h2.8zM79.5 18.8 76.3 15h-2.1v9.3h2.6v-5.5l2.7 3.2 2.7-3.2v5.5h2.7V15h-2.3zM121.9 20.6V15h-2.6v9.3h2.3l4.8-5.2v5.2h2.6V15h-2.3zM39.7 19.4c.3-.3.5-.6.7-1 .2-.4.3-.8.3-1.2 0-1.8-2-2.2-2.9-2.2h-5.2v9.3h5.2c1.1 0 3.4-.2 3.4-2.7-.1-1.5-1.5-2.2-1.5-2.2zm-4.8-2.5s2-.1 2.6 0c.3 0 .8.2.8 1s-.5.9-.8.9c-.6.1-2.6 0-2.6 0v-1.9zm2.8 5.6c-.7.1-2.8 0-2.8 0v-2.1s2.1-.1 2.8 0c.3 0 1 .2 1 1s-.6 1-1 1.1zM59.7 18.6h-4.1V15H53v9.3h2.6v-3.4h4.1v3.4h2.7V15h-2.7zM91.1 14.9c-3 0-5.1 2-5.1 4.8s2.2 4.7 5.1 4.7c3 0 5.1-2 5.1-4.9 0-2.7-2.1-4.6-5.1-4.6zm0 7.4c-1.4 0-2.4-1.1-2.4-2.7 0-1.5 1-2.6 2.5-2.6 1.4 0 2.4 1.1 2.3 2.7 0 1.6-1 2.6-2.4 2.6zM132.3 15s0 3.6-.1 5.4c0 1.6-.2 2.1-1.7 2-.1 1.5.5 2.3 1.9 2.1.9-.2 1.4-.8 1.7-1.5.3-.8.3-1.9.3-2.7v-3h3v7.1h2.6v-9.3h-7.7zM27.4 31.1c-.9-.5-2-.6-3-.5-1 .2-1.9.7-2.6 1.4l-.3.3c-.1-.8.2-1.6.6-2.3s1.1-1.2 1.9-1.5c.7-.3 1.5-.4 2.2-.6.2-.1.4-.1.7-.2h.4c.8-.2 1-.5.8-1.5-.4.1-.9.2-1.3.3-1 .2-1.9.5-2.9.8-1.9.6-3.1 2-3.6 4-.4 1.7-.4 3.4.1 5.1.7 2.5 2.4 3.7 5 3.6 2.1-.1 3.7-1.4 4.2-3.5.5-2.3-.4-4.4-2.2-5.4zM25 38.8c-1.9 0-3.4-1.5-3.4-3.5s1.4-3.4 3.3-3.4c2 0 3.3 1.4 3.3 3.4.1 2-1.3 3.4-3.2 3.5zM63.7 17.3h3.2v7h2.6v-7h3.1V15h-8.9zM36.7 30.5c-1.9-.5-3.7-.2-5.3.9.3.7.8.7 1.5.5.8-.3 1.7-.4 2.6-.4 1.3 0 2 .8 2.1 2.1.1.6-.1.8-.7.8h-.6c-1 0-2.2 0-3.1.1-1.5.2-2 1.2-2 2.5s.8 2.3 2.2 2.7c1.6.4 3.1.1 4.3-1.1v1.1H39s.1-4.6 0-6.9c-.3-1.1-1.1-1.9-2.3-2.3zm-.3 7.8c-1 .6-2.6.7-3.4.1-.6-.4-.7-.9-.6-1.6.1-.7.6-1.2 1.7-1.2h3.4c.1 1.6-.1 2.1-1.1 2.7zM59.9 30.4h-1.5l-3.1 4h-2.2v-4h-1.3v9.3h1.3v-3.9h2.2l3.2 3.9h1.7L56.3 35zM49.2 15.4c-2.2-.9-4.4-.6-6.5.5.5 1.4.9 1.6 2.2 1.3.6-.1 1.2-.2 1.8-.2 1.1.1 1.6.7 1.7 1.8H46.7c-.8.1-1.7.1-2.4.3-1.2.3-1.8 1.2-1.9 2.3-.1 1.3.4 2.1 1.6 2.7 1 .5 3.3.6 4.6-.7.3.4.5.7.8.9h1.7v-5.9c0-1.3-.6-2.4-1.9-3zm-1.4 6.9c-.6.3-1.6.4-2.2.1-.2-.1-.3-.2-.4-.4-.2-.1-.2-.3-.2-.5 0-.7.5-1 1.2-1h2.3c0 .9-.2 1.6-.7 1.8zM115.4 15.4c-2.2-.9-4.4-.6-6.5.5.5 1.4.9 1.6 2.2 1.3.6-.1 1.2-.2 1.8-.2 1.1.1 1.6.7 1.7 1.8h-2.1c-.7 0-1.3.1-2 .2-1.2.3-1.8 1.2-1.9 2.3-.1 1.3.4 2.1 1.6 2.7 1 .5 3.3.6 4.6-.7.3.4.5.7.8.9h1.7v-5.9c0-1.2-.6-2.3-1.9-2.9zm-1.5 6.9c-.6.3-1.6.4-2.2.1-.2-.1-.3-.2-.4-.4 0 0 0-.1-.1-.1v-.1c0-.1-.1-.2-.1-.4 0-.7.5-1 1.2-1h2.3c.1 1-.2 1.7-.7 1.9zM48.3 34.4h-5.8v-4h-1.3v9.3h1.3v-3.9h5.8v3.9h1.2v-9.3h-1.2z"/>
</svg>