<svg viewBox="0 0 200 50" xmlns="http://www.w3.org/2000/svg">
	<path fill="#0039A6" d="M72.3679 17.522c.0299-.569.1697-.9717.4159-1.218.243-.2429.609-.366 1.0982-.366h7.7537c1.0084 0 1.5141.5291 1.5141 1.584v14.5657c0 .1731-.0299.2862-.0931.3328-.0632.0465-.1831.0699-.3561.0699h-2.01c-.1564 0-.2695-.0234-.3427-.0699-.0699-.0466-.1066-.1597-.1066-.3328V18.4671h-5.2246l-.1431 2.0599c-.1264 1.7638-.2529 3.3411-.386 4.7288-.1331 1.3877-.3627 2.5923-.6922 3.6173-.3261 1.0283-.8053 1.8702-1.4308 2.5291-.6257.6623-1.4942 1.1614-2.5958 1.4942-.1564.03-.2862.0266-.3893-.0134-.0999-.0399-.183-.1463-.2462-.3194l-.4992-1.3977c-.03-.1431-.0366-.2595-.01-.3527.0233-.0965.1197-.183.2962-.2596.6589-.2862 1.178-.6489 1.5474-1.0915.3693-.4392.6589-1.0317.8619-1.7703.2063-.7421.3594-1.6707.4625-2.7788.1032-1.1115.2164-2.4858.3428-4.1264l.233-3.2646ZM96.9533 26.2247c0 2.0964-.4858 3.7071-1.4543 4.8353-.9716 1.1247-2.4159 1.6905-4.3393 1.6905-1.9069 0-3.3277-.5491-4.2695-1.644-.9385-1.0948-1.4044-2.6988-1.4044-4.812 0-1.0382.1398-1.9633.426-2.7653.2829-.8021.6789-1.4809 1.1814-2.0333.5058-.5524 1.1048-.9717 1.8103-1.2645.6988-.2896 1.4775-.436 2.3294-.436 1.8735 0 3.2978.5724 4.2695 1.7138.9684 1.1415 1.4509 2.7154 1.4509 4.7155Zm-2.8119.0698c0-.569-.04-1.1114-.1298-1.6172-.0865-.5092-.2363-.9551-.4493-1.3444-.213-.3895-.5024-.6922-.8752-.9152-.3693-.223-.8385-.3328-1.4076-.3328-.5025 0-.9451.1066-1.3245.3194-.3761.213-.6922.5026-.9451.8686-.2528.3661-.4358.7986-.5557 1.3079-.1165.5057-.1763 1.0515-.1763 1.6373 0 1.3177.2129 2.3527.6355 3.1015.426.7553 1.1814 1.1314 2.2696 1.1314.5523 0 1.0183-.1132 1.3943-.3461.3794-.2263.6822-.5325.9118-.9152.2263-.3794.3927-.8186.4959-1.3178.1032-.4959.1564-1.0216.1564-1.5774ZM122.85 26.2247c0 2.0964-.482 3.7071-1.454 4.8353-.968 1.1247-2.416 1.6905-4.339 1.6905-1.907 0-3.331-.5491-4.27-1.644-.935-1.0948-1.404-2.6988-1.404-4.812 0-1.0382.143-1.9633.426-2.7653.283-.8021.679-1.4809 1.181-2.0333.503-.5524 1.108-.9717 1.81-1.2645.703-.2896 1.481-.436 2.33-.436 1.877 0 3.298.5724 4.269 1.7138.969 1.1415 1.451 2.7154 1.451 4.7155Zm-2.808.0698c0-.569-.047-1.1114-.13-1.6172-.09-.5092-.24-.9551-.449-1.3444-.213-.3895-.509-.6922-.875-.9152-.37-.223-.839-.3328-1.405-.3328-.502 0-.948.1066-1.324.3194-.376.213-.693.5026-.945.8686-.253.3661-.443.7986-.56 1.3079-.116.5057-.176 1.0515-.176 1.6373 0 1.3177.213 2.3527.636 3.1015.429.7553 1.181 1.1314 2.269 1.1314.553 0 1.019-.1132 1.398-.3461.376-.2263.679-.5325.912-.9152.226-.3794.393-.8186.492-1.3178.103-.4959.157-1.0216.157-1.5774ZM126.937 32.4904c-.506 0-.852-.1031-1.041-.3095-.19-.203-.287-.5424-.287-1.015V17.5453c0-1.0715.503-1.6073 1.515-1.6073h8.914c.174 0 .283.0366.331.1065.049.0699.069.193.069.366v1.6073c0 .1565-.02.2662-.069.3295-.048.0632-.157.0932-.331.0932h-7.52v3.6639h3.881c.897 0 1.66.0898 2.288.2728.633.1798 1.163.4227 1.598.7222.432.2995.778.6356 1.041 1.005.261.3693.46.7521.593 1.1481.133.3926.219.772.259 1.1347.037.3627.06.6856.06.9685 0 .7386-.146 1.4275-.439 2.0565-.289.629-.689 1.1746-1.191 1.6306-.503.4559-1.095.8087-1.773 1.0649-.676.2529-1.402.376-2.174.376h-5.724v.0067Zm8.299-5.3112c0-.7521-.239-1.3809-.722-1.8935-.482-.5091-1.177-.7653-2.092-.7653h-3.904v5.3677h3.856c.567 0 1.032-.0899 1.395-.2729.363-.1797.652-.4027.876-.6722.222-.2662.372-.5591.462-.8819.086-.3161.129-.6123.129-.8819ZM150.724 31.1399c0 .3793-.151.6422-.45.7786-.349.1598-.722.2929-1.125.4027-.403.1131-.819.1963-1.241.2595-.422.0633-.848.1098-1.267.1298-.416.0267-.816.04-1.192.04-1.041 0-1.904-.1099-2.589-.3195-.689-.2129-1.232-.4992-1.635-.8519-.402-.3561-.681-.7721-.838-1.2546-.159-.4825-.239-.9884-.239-1.5275 0-.5491.093-1.0815.273-1.594.179-.5124.479-.9617.885-1.3477.409-.386.945-.6989 1.597-.9351.655-.2363 1.454-.3528 2.4-.3528h2.649v-.4026c0-.2995-.031-.5757-.093-.8287-.064-.2495-.187-.4724-.37-.6622-.18-.1897-.429-.3328-.742-.4359-.313-.1032-.725-.1531-1.228-.1531-.54 0-1.121.0466-1.751.1398-.632.0965-1.145.2063-1.537.3328-.173.0465-.3.0565-.379.0233-.08-.03-.134-.1166-.163-.2596l-.33-1.3444c-.063-.253.007-.416.21-.4959.662-.2495 1.387-.4293 2.176-.5324.789-.0999 1.531-.1531 2.223-.1531 1.64 0 2.842.3628 3.603 1.0882.77.7254 1.149 1.7803 1.149 3.168v7.0883h.004Zm-2.793-4.466h-2.269c-.267 0-.559.0167-.865.0466-.306.0333-.599.1198-.875.2595-.277.1398-.506.3462-.686.6157-.18.2696-.272.639-.272 1.1115 0 .6789.229 1.1515.681 1.4177.46.2695 1.065.4026 1.82.4026.113 0 .264-.0033.46-.0133.197-.01.406-.0267.629-.0599.219-.0333.452-.0699.696-.1199.242-.0465.468-.1097.674-.1863v-3.4742h.007ZM156.421 32.407c-.08.0532-.213.0832-.399.0832h-1.711c-.173 0-.299-.0333-.386-.0965-.084-.0632-.13-.1897-.13-.376V20.5269c0-.1731.043-.2929.13-.3561.087-.0632.216-.0966.386-.0966h1.711c.186 0 .319.03.399.0832.08.0533.117.1764.117.366v4.2064h5.227v-4.2029c0-.1731.044-.2929.131-.3561.082-.0632.212-.0966.389-.0966h1.723c.206 0 .34.03.403.0832.063.0533.096.1764.096.366v11.491c0 .2063-.033.3361-.096.3893-.063.0532-.197.0832-.403.0832h-1.723c-.177 0-.307-.0333-.389-.0965-.09-.0633-.131-.1897-.131-.376v-5.035h-5.227v5.035c0 .2096-.037.3394-.117.3926ZM178.946 32.0542l-4.006-6.1463 3.61-5.3611c.067-.0799.08-.1897.04-.2829-.04-.0931-.136-.1563-.235-.1563h-2.454c-.076 0-.146.0332-.195.0931l-3.173 4.579h-2.236v-4.326c0-.1731-.029-.2829-.093-.3196-.063-.0399-.172-.0599-.333-.0599h-1.892c-.144 0-.247.02-.321.0599-.069.0367-.106.1431-.106.3196v11.6571c0 .1731.037.2762.106.3195.07.0366.177.0599.321.0599h1.892c.161 0 .27-.02.333-.0599.064-.0399.093-.1464.093-.3195v-5.178h2.084l3.641 5.4609c.052.0599.123.0999.203.0999h2.521c.103 0 .197-.0599.241-.1531.039-.0966.026-.2064-.041-.2863ZM110.687 32.0542l-4.01-6.1463 3.608-5.3611c.07-.0799.086-.1897.04-.2829-.04-.0931-.134-.1563-.237-.1563h-2.449c-.077 0-.15.0332-.196.0931l-3.175 4.579h-2.233v-4.326c0-.1731-.033-.2829-.096-.3196-.064-.0399-.174-.0599-.33-.0599h-1.8901c-.1431 0-.2495.02-.3194.0599-.0699.0367-.1065.1431-.1065.3196v11.6571c0 .1731.0366.2762.1065.3195.0699.0366.1763.0599.3194.0599h1.8901c.16 0 .27-.02.33-.0599.063-.0399.096-.1464.096-.3195v-5.178h2.083l3.644 5.4609c.05.0599.123.0999.203.0999h2.523c.099 0 .193-.0599.236-.1531.036-.0966.027-.2064-.037-.2863ZM49.6123 43H28.3877C24.3145 43 21 39.6855 21 35.6123V14.3877C21 10.3145 24.3145 7 28.3877 7h21.2246c4.0732 0 7.3843 3.3145 7.3843 7.3877v21.2246C57 39.6855 53.6855 43 49.6123 43ZM28.3877 7.52246c-3.787 0-6.8652 3.07824-6.8652 6.86524v21.2246c0 3.7836 3.0782 6.8619 6.8652 6.8619h21.2246c3.7836 0 6.8619-3.0815 6.8619-6.8619V14.3877c0-3.787-3.0783-6.86524-6.8619-6.86524H28.3877Z"/>
	<path fill="#00A1DE" d="M37.1437 12.2409c.549-.3195 1.1481-.4792 1.7437-.4992-1.248.0366-2.4459.6988-3.1148 1.8602L25.0039 32.2475c-1.0283 1.7837-.416 4.0599 1.3644 5.0882 1.7803 1.0283 4.0599.4193 5.0848-1.3611l7.5474-13.0716-3.2179-5.574c-1.0283-1.7837-.4193-4.0599 1.3611-5.0881Z"/>
	<path fill="#0039A6" d="M52.9966 32.2485 42.2312 13.6063c-.6722-1.1614-1.8702-1.8236-3.1182-1.8602.5924.0166 1.1914.1797 1.7405.4992 1.7804 1.0282 2.3927 3.3045 1.361 5.0848l-3.2179 5.574 7.5474 13.0716c1.0282 1.7803 3.3045 2.3893 5.0848 1.361 1.7871-1.0282 2.396-3.3044 1.3678-5.0882Z"/>
	<path fill="#002C77" d="M40.857 12.2409c-.549-.3195-1.148-.4792-1.7404-.4992h-.2262c-.5957.0166-1.1915.1797-1.7438.4992-1.7804 1.0282-2.3894 3.3044-1.3611 5.0848l3.218 5.5741 3.2179-5.5741c1.025-1.7804.416-4.0566-1.3644-5.0848Z"/>
	<path fill="#EEAF30" d="M42.8333 34.1349c0 2.1198-1.7137 3.8303-3.8303 3.8303-2.1164 0-3.8336-1.7139-3.8336-3.8303 0-2.1132 1.7139-3.8302 3.8303-3.8302 2.1165 0 3.8336 1.717 3.8336 3.8302Z"/>
</svg>