<svg xmlns="http://www.w3.org/2000/svg" viewBox="0 0 200 50">
	<path fill="#000" d="M154.925 3.33655c-1.356-.7341-2.835-1.17579-4.369-1.29917-7.163-.57404-13.472 5.5428-12.615 12.84322.822 6.987 8.016 12.0086 14.878 9.8614.693-.2173 1.407-.5034 2.14-.8587.038-.0182.05-.0465.035-.0852-.148-.3751-.48-.9635-.745-1.1708-.209-.1645-.468-.1805-.775-.0481-1.343.5773-2.71.8549-4.101.8328-4.904-.075-9.273-4.0467-9.649-8.9977-.397-5.18747 3.421-9.93074 8.632-10.55221 1.787-.21349 3.442.09494 5.129.77977.772.31337 1.248-.54049 1.49-1.16844.019-.05014-.003-.11134-.05-.13687ZM60.1412 13.8036c-.3438.5642-.6871 1.1424-1.0301 1.7347-.0666.1142-.134.1152-.2024.0024-2.2848-3.7777-4.5574-7.54473-6.8176-11.30101-.3159-.52567-.6334-1.03314-.9525-1.52254-.0604-.09179-.1518-.12019-.2541-.06169-.0421.02398-.0895.04976-.1403.07747-.4528.24723-1.185.64675-.9997 1.21675.0757.23269.1764.45362.3023.66254 2.7529 4.55087 5.4609 9.03098 8.1242 13.44048.3445.5705 1.1045.9334 1.5483.1973 2.5308-4.1741 4.9794-8.2241 7.3457-12.14982.0963-.15964.1625-.14808.1986.03446.2451 1.2453.4948 2.47495.7489 3.68893.9952 4.76133 1.9909 9.52243 2.9869 14.28293.0654.3122.2072.7193.586.7317.4483.0156.9093.0173 1.3831.005.0839-.0024.1172-.0453.0999-.1283l-1.7819-8.5324c-.8847-4.237-1.7691-8.47496-2.6534-12.7139-.0543-.25663-.1147-.49398-.1814-.71193-.2072-.67603-.9623-.87471-1.425-.28495-.1241.15711-.2352.31748-.333.48109-1.7709 2.96182-3.955 6.57871-6.5525 10.85079Zm45.0318 3.5124c-.065-.0005-.119.0547-.119.1185l-.002 6.5253c0 .3861-.133.7945-.581.8451-.389.0444-.784.0572-1.183.0383-.057-.0026-.085-.0326-.085-.0901l.001-14.684c0-.08629.068-.1591.154-.16541.239-.01771.46-.01674.662.00289.145.01412.289.03856.43.07735.574.15797.602.83527.602 1.32387l.006 4.0688c.001.2212.112.3331.334.3356.994.0139 1.962-.0321 2.905-.1381 1.764-.1987 3.499-1.5003 4.271-3.0857 1.635-3.35206-.181-7.09521-3.721-8.09582-.319-.09048-.751-.13687-1.296-.1394-1.13-.0041-2.261-.0106-3.392-.01976-.896-.00614-1.059-.82037-.936-1.53097.018-.10047.107-.17624.209-.17771 1.115-.01567 2.199-.02265 3.25-.02097 2.528.00459 4.986.89552 6.574 2.94869 1.156 1.49399 1.715 3.23978 1.535 5.12494-.303 3.1964-2.793 6.0564-5.993 6.5992-1.205.2048-2.433.1518-3.625.1394Zm20.682-3.2125c.124.1703.262.3429.284.5601.006.0635-.01.1275-.047.1801-2.102 2.97-4.183 5.9162-6.243 8.8385-.087.1233-.165.2561-.235.3984-.019.0396-.013.075.018.1062.325.3232.693.5618 1.103.7155.534.1998.882-.3124 1.145-.6896 2.152-3.0677 4.43-6.0719 6.48-9.2085.08-.1225.158-.2455.234-.369.049-.0782.046-.1543-.008-.2282-2.696-3.7013-5.388-7.4057-8.059-11.12455-.272-.38012-.498-.69518-.991-.74904-.586-.06422-1.198-.06373-1.838.00121-.077.00818-.104.04902-.083.12217.035.11727.099.22463.17.32325 2.673 3.67978 5.363 7.38766 8.07 11.12346Zm8.608-11.17539c.194-.26771.44-.37012.753-.40217.612-.06253 1.24-.05385 1.881.0259.05.00663.063.03121.037.07398-.106.18012-.219.35494-.34.52434-1.499 2.09989-3.007 4.22605-4.526 6.37847-.036.05167-.115.05569-.156.00747-.332-.38988-.638-.80362-.92-1.24121-.166-.2582-.148-.52675.053-.80567 1.094-1.50457 2.128-3.05325 3.218-4.56111Zm-55.7108-.40952c-.4729 0-.7591.20639-.8587.61928-.088.3635-.123.73531-.1048 1.11531.0025.06078.0546.11108.1159.11108l4.0401.00133c2.0177.00048 4.0128.00036 5.9853-.00012.3257 0 .7785-.03699.8661-.43181.0945-.4253.1279-.86037.0999-1.30531-.0038-.06225-.0577-.11108-.1196-.11108-3.0934-.0041-6.4348-.00362-10.0242.00132Zm.9981 9.98721c1.5504.0049 3.2328.002 5.0472-.0087 2.5089-.0139 4.887.8254 6.2366 3.0819.7032 1.1762.9717 2.4864.8056 3.9306-.2913 2.5321-2.2854 4.7465-4.8103 5.2361-.4171.0806-.978.1184-1.6829.1135-2.5094-.0181-5.0049-.021-7.4863-.0087-.0385 0-.0728-.0346-.0728-.074V10.0691c0-.09751.053-.16367.158-.17276.4503-.03819 1.3706.00494 1.5359.57866.1839.6416.1703 1.2559.1542 1.9135-.0016.0781.0366.1173.1148.1173Zm-.1197 1.8061.0148 8.7522c0 .0384.032.0703.0703.0703l5.922-.0099c2.3935-.0039 4.5083-1.9319 4.5044-4.3699v-.1677c-.0041-2.4106-2.1274-4.3595-4.5192-4.3551l-5.922.0099c-.0373 0-.0703.0329-.0703.0702Zm-30.7724-1.6702c-.5877-.1247-1.3084-.2776-1.5368.4735-.0543.1792-.1011.368-.1406.5662l-1.4042 7.0272c-.2595 1.3003-.5177 2.5955-.7746 3.8853-.011.0569.0251.1092.079.1234.5958.1382 1.6494.3529 1.8173-.4453.7106-3.3829 1.4348-6.9518 2.1726-10.7065.0419-.2106.074-.4207.0962-.6305.0099-.0934-.0355-.1864-.1146-.2366-.0575-.0364-.1289-.0431-.1943-.0567ZM74.085 34.3984c.0032-.1645.1246-.2541.2504-.2541 17.332 0 31.8986.0123 52.3376.0123.156 0 .217.0867.22.2307l.004.2468c.001.1365-.066.2048-.203.2048l-52.382-.0013c-.158 0-.2353-.0786-.232-.2356l.005-.2036ZM59.5984 45.581c-.0321.0469-.0736.0831-.1247.1085-.0559.028-.0838.0108-.0838-.0518l.0172-3.3052c.0017-.2203-.1077-.3335-.3281-.3392l-.2048-.005c-.2196-.0049-.3299.1021-.3307.3209l-.0111 4.8325c0 .0869.072.1604.1592.1604l.565-.0025c.0797.0005.1446-.069.1419-.148-.0041-.1184.0243-.222.0851-.311.677-.982 1.3933-2.0106 2.1492-3.0855.0217-.0307.0709-.0195.0778.0172.032.1653.0476.3262.0468.4824-.0049.9541-.0078 1.9123-.0086 2.8746 0 .1169.0584.1748.1751.174l.5072-.0024c.12-.0009.1801-.0617.1801-.1827-.0009-1.5503.0016-3.1097.0074-4.6783.0012-.2406-.0407-.4231-.3294-.4577-.4346-.0524-.4793.134-.5338.3607-.0262.1093-.0546.228-.13.3339-.7098.9977-1.3855 1.9658-2.027 2.9042Zm6.2291-.4477c-.0076.3789-.0114.7524-.0115 1.1206 0 .3071.0026.6105.0078.9101.0017.0897-.0419.1345-.1308.1345l-.5811.0024c-.1036.0008-.1554-.0505-.1554-.1542V42.271c.0008-.1859.0937-.2788.2788-.2788l.3504-.0013c.1546-.0008.2319.0765.2319.232l.0013 1.8111c0 .1266.0633.1895.19.1888l2.0159-.0148c.0711-.0008.1301-.0599.1308-.1309l.0284-1.9172c.0014-.1115.0656-.1813.1838-.1813h.3577c.1169.0008.1752.0592.1752.1751l.0026 4.993c0 .1037-.0515.1555-.1543.1555l-.4294-.0013c-.0934 0-.1554-.0521-.1554-.1542v-2.0061c0-.1348-.0675-.2014-.2023-.1999-.6219.0107-1.2436.0091-1.8654-.0012-.1268-.0019-.2664.0467-.269.1938Zm12.0857.106c.001-.0781-.0018-.2825.1197-.2825l2.0616-.0135c.0875 0 .1604.0722.1604.1603v2.0579c.0006.0761.0636.1394.1394.1394l.5737-.0012c.0978 0 .1472-.0489.148-.1468.0041-1.4632.0045-2.9553.0013-4.476 0-.19-.0128-.394-.0383-.5602-.0115-.074-.0547-.1147-.1295-.1221l-.5021-.0222c-.1243-.0124-.1867.044-.1876.1691l-.0099 1.9184c-.0006.0794-.0666.1463-.1468.1467l-2.0652.0125c-.068.0005-.1247-.0556-.1247-.1234l-.011-1.9469c-.0009-.097-.0494-.1723-.1456-.1764h-.4355c-.0813-.0043-.1506.0858-.1506.1665l.0038 5.0263c-.0003.0757.0643.1375.1394.137l.4453-.0025c.0971-.0009.1456-.0501.1456-.1481-.0017-.3278-.0017-.6546-.0002-.9802.0015-.3116.0044-.6223.0088-.9321Zm7.8269 1.4362c.4824-.1333.7328-.6343.8217-1.1203.0123-.0675.0526-.1053.1209-.1135.1637-.0206.3285-.0107.4947.0297.0737.0185.1256.0873.1222.1641-.0358.7808-.5861 1.679-1.4349 1.7802-1.3037.1563-2.1582-.3849-2.5637-1.6236-.1192-.3652-.1538-.8916-.1036-1.5792.0559-.7757.3775-1.3983.9647-1.8679.3973-.3182.9459-.44 1.6459-.3652.8179.0889 1.325.7661 1.4287 1.5644.0046.0358-.0106.0694-.0383.0912-.1728.1259-.6601.1716-.7366-.0998-.1036-.3714-.2023-.6835-.6378-.7785-1.7889-.3936-1.932 1.6359-1.6828 2.8339.1591.7661.8217 1.2978 1.5989 1.0845Zm5.0719-4.6574c-1.6433.38-2.0406 2.2799-1.6606 3.6963.158.5889.5203 1.0761 1.087 1.4619.1891.1292.3956.2093.6193.2406 1.9506.2701 2.7624-1.1536 2.75-2.8451-.0111-1.5693-1.0597-2.9547-2.7957-2.5537Zm1.7101 1.4916c.3219.8118.3096 1.8579-.1444 2.645-.2369.4114-.6214.5956-1.1535.5528-.6108-.0494-1.029-.4984-1.198-1.0746-.2254-.7666-.2036-1.4636.0654-2.0912.47-1.103 1.9629-1.2152 2.4305-.032Zm5.7911.9363c-.0708.037-.0691.0711.0049.1025.686.2849.9919.7118.9586 1.4459-.0394.8747-.7341 1.3237-1.594 1.3164-.6415-.005-1.2835-.0091-1.9258-.0123-.0256 0-.0501-.0104-.0681-.0286-.0057-.0058-.0106-.0123-.0147-.0191-.0087-.015-.0135-.0322-.0135-.0498l.0185-5.0091c.0009-.1077.0547-.1665.1616-.1763.6597-.0643 1.3757-.0338 2.148.0913.7674.1234 1.1178.8895 1.0055 1.589-.0642.3985-.3541.575-.681.7501Zm-1.7791-1.5225v1.1129c0 .1058.0887.1937.1937.1937h.6366c.4027 0 .8056-.2982.8056-.7267v-.0469c0-.4279-.4032-.7266-.8056-.7266h-.6366c-.1058 0-.1937.089-.1937.1936Zm-.0049 2.1875.0148 1.4188c.0005.0864.0734.1588.1604.1579l.8673-.0098c.447-.0048.8522-.3603.8476-.8205l-.0013-.1135c-.0046-.4601-.4167-.8074-.8636-.8032l-.8673.0099c-.0866 0-.1587.0737-.1579.1604Zm7.0868-.9303c-.469-.1061-.823-.0678-1.257-.0937-.092-.0049-.138-.0526-.139-.1431l-.017-1.7223c-.001-.1268-.065-.1958-.191-.2074l-.463-.0419c-.131-.0123-.197.0473-.197.1789l-.003 5.0497c0 .0466.041.0882.088.0901.593.0205 1.208.0278 1.846.0222.667-.0058 1.129-.2509 1.388-.7353.518-.9746.055-2.1468-1.055-2.3972Zm-1.402 2.3466-.01-1.5669c0-.0738.061-.1369.135-.1369l.649-.0037c.458-.0029 1.008.2884 1.011.8044l.003.2146c.004.5119-.542.8164-1.002.8193l-.649.0036c-.074.0014-.136-.0609-.137-.1344Zm16.361-1.8493c.072-.1094.135-.2254.187-.348.129-.2991.258-.5981.387-.8966.181-.4186.363-.8365.546-1.2537.053-.1197.175-.1975.306-.1938l.404.0124c.209.0057.266.102.17.2887-.38.7304-.729 1.4509-1.046 2.1615-.164.3653-.34.7213-.516 1.0759-.275.5542-.549 1.1049-.766 1.6827-.026.0665-.094.1127-.164.111l-.731-.0222c-.034-.001-.057-.0363-.045-.0678.1-.2791.287-.517.435-.7713.098-.1683.188-.3376.268-.5081.094-.1961.044-.3948-.045-.5799-.477-1.0042-.952-2.0491-1.426-3.1349-.025-.0591-.042-.1343.017-.1816.067-.0548.182-.0533.265-.0618.104-.0107.208-.0155.312-.0145.124.0015.24.0772.29.1912.306.6992.603 1.4106.888 2.1345.047.1209.108.2459.185.3751.025.0427.051.0431.079.0012Zm6.133 2.0072c-.543.1099-1.109-.0999-1.389-.5637-.37-.612-.466-1.3115-.289-2.0987.181-.8069.568-1.3965 1.522-1.3127.533.0468.721.4502.915.867l.002.004c.023.0494.06.084.111.1037.131.0518.269.0667.413.0444.093-.0148.145-.0687.155-.1616.048-.4294-.243-.8982-.528-1.1918-.188-.1941-.422-.3142-.704-.3602-.672-.1098-1.476-.0531-1.985.4454-.973.9524-1.067 2.5341-.536 3.7295.461 1.0376 1.626 1.5064 2.706 1.1462.711-.2369 1.013-.9192 1.171-1.6237.037-.1644-.028-.2529-.196-.2651l-.268-.0186c-.17-.0123-.276.0637-.318.2282-.102.4059-.329.9365-.782 1.0277Zm11.069-1.9973 1.047-2.4083c.077-.1759.257-.2908.448-.2886l.28.0024c.072.0008.125.0131.16.0367.08.0546.045.1656.011.2385-.188.3938-.372.7896-.557 1.1864-.329.7109-.662 1.4205-1.01 2.1224-.246.4952-.474.9977-.684 1.5077-.054.1336-.189.2222-.333.2207l-.438-.0061c-.156-.0016-.198-.0716-.126-.2098l.615-1.1843c.06-.1176.064-.2621.008-.3838l-1.5-3.273c-.069-.1515-.013-.2486.157-.2542l.433-.0123c.167-.0049.279.0707.338.227.078.2051.166.4058.256.6063l.001.001c.28.625.481 1.2788.824 1.875.026.0459.049.0449.07-.0037Zm11.918-.9882c.115-.158.173-.1391.173.0567l-.005 3.3903c0 .1044.052.1567.156.1567l.44-.0012c.088-.0008.133-.0457.133-.1346l.017-5.0471c-.002-.0562-.037-.1058-.095-.1184-.138-.0297-.303-.0326-.496-.0087-.077.009-.122.0526-.133.1307-.028.1958-.091.3652-.189.5083-.273.3986-.569.8254-.887 1.2808-.387.5536-.806 1.149-1.258 1.7863-.027.037-.053.037-.078 0-.061-.0872-.091-.1821-.09-.285.005-.6671.009-1.3232.011-1.968.001-.4334.001-.8667.001-1.3001 0-.0972-.056-.1605-.16-.1629l-.367-.0073c-.14-.0026-.211.0665-.211.2072l-.006 4.983c0 .0812.069.1479.15.1469l.455-.0049c.047-.0009.08-.0239.096-.0692.054-.1455.095-.2739.185-.4046.362-.5279.722-1.0461 1.081-1.5546.366-.5205.701-1.0666 1.077-1.5803Zm-94.1049-1.3152.037-.3147c.0055-.0422.0423-.075.0851-.0752l.4577-.0037c.1109-.0012.1977.1045.1765.2134-.0165.0831-.0083.1596.0246.2294.0157.0338.042.0503.079.0494.4458-.0074.8912.1444 1.3361.4552.3003.2098.5153.501.6453.8735.5243 1.5003-.2875 3.0067-1.9296 3.114-.1275.0082-.1813.0748-.1616.1999.014.0912-.0566.1768-.1493.1789-.1645.0041-.313-.0025-.4454-.0197-.1066-.0145-.1545-.0911-.1418-.1962.0079-.0746-.0468-.1432-.1209-.1518-1.3013-.1481-2.009-.8147-2.1233-1.9999-.1345-1.3916.7439-2.402 2.1307-2.46.0502-.0022.0946-.0432.0999-.0925Zm0 3.8331.0148-3.0325c0-.0284-.0261-.0295-.0469-.0295-.7857-.0047-1.3949.6815-1.399 1.4459v.185c-.0041.7642.5987 1.4562 1.3817 1.4608.0214 0 .0494-.0008.0494-.0297Zm.7637-2.9092-.0124 2.7242c.0035.0859.0651.1592.153.1666.4441.0353.7797-.1506 1.0067-.5577.3171-.5675.3936-1.6853-.2146-2.1664-.2179-.1712-.4758-.2809-.7489-.3233-.0959-.0153-.1806.0605-.1838.1566Zm18.0384 2.7599c.4894-.0163.9685-.016 1.4374.0013.1033.0046.195.0778.2209.1777l.2281.8956c.0229.0903.1067.1557.1999.1555l.5898.0013c.1078.0007.1443-.0503.1097-.153l-1.7235-5.0461c-.0255-.0732-.0769-.1097-.1542-.1097l-.5021.0012c-.1053.0008-.1752.051-.2097.1506l-1.7088 4.9879c-.037.1094.0025.165.1184.1665l.5491.005c.1036.0017.1698-.0477.1986-.1481l.2739-.9561c.0397-.1299.2742-.1259.3725-.1296Zm-.053-.8216c.1226-.417.257-.8422.4035-1.2757.0674-.2007.1286-.4158.1838-.6452.0255-.1111.072-.1205.1394-.0284.0723.1003.1254.2082.1591.3244.1621.5642.3274 1.1166.496 1.657.0264.084-.038.1715-.1259.1715l-1.1029.0012c-.1063.0005-.1819-.1048-.153-.2048Zm33.1868 2.053c-.046 0-.086-.0397-.087-.0852l-.008-4.9214c-.001-.1312.079-.3028.23-.3035h.39c.151-.0019.233.1702.233.3011l.009 4.9214c.001.0471-.039.0876-.086.0876h-.681Zm4.168-4.5476 1.99-.0235c.082-.0013.15-.0679.153-.1493l.016-.4059c.005-.1103-.048-.1657-.159-.1665l-2.843-.0198c-.052 0-.097.0434-.097.0963v5.1262c0 .0518.044.0937.095.0937l2.976-.0074c.091 0 .138-.0455.14-.1369l.003-.2962c.001-.0911-.074-.1687-.165-.1702l-2.085-.0234c-.106-.0014-.197-.0837-.209-.19-.044-.44-.044-.8772 0-1.3115.013-.1233.081-.1863.205-.1888l1.882-.0308c.079-.0008.118-.0407.119-.1196l.004-.4874c0-.0678-.057-.1246-.125-.1246l-1.982-.0037c-.058.0002-.106-.0448-.111-.1012-.036-.3948-.036-.7888.001-1.1819.009-.0987.094-.1762.192-.1776Zm21.15-.0123c-.395-.0411-.789-.0362-1.18.0148-.029.0037-.052.0279-.056.0567-.106.927-.198 1.9202-.277 2.9795-.019.26-.066.5355-.142.8266-.155.5965-.645.6638-1.152.734l-.091.0124c-.048.0066-.072-.0144-.071-.0629l.005-.4601c.001-.0427.018-.0774.052-.1037.118-.0909.268-.1389.383-.2351.079-.067.137-.1622.158-.3423.094-.7447.151-1.4941.216-2.2417.052-.6017.084-1.2068.169-1.805.01-.0668.07-.1184.137-.1184h2.708c.067 0 .126.0564.125.1246l-.011 5.0472c0 .0905-.046.1357-.136.1357l-.564.0013c-.094 0-.141-.0469-.143-.1407-.023-1.32-.023-2.6073-.001-3.8616.002-.1522-.008-.3084-.032-.4688-.009-.0558-.041-.0868-.097-.0925Zm9.617 4.4513-.002-4.3527c0-.0584.049-.1073.107-.1073l2.006.0024c.059 0 .108-.0487.108-.1072l.003-.5158c0-.0584-.048-.1074-.107-.1074l-2.871-.0122c-.058 0-.107.0488-.107.1073v5.0965c0 .0583.048.1074.107.1074l.649-.0037c.059 0 .107-.0491.107-.1073Z"/>
</svg>