<svg xmlns="http://www.w3.org/2000/svg" viewBox="0 0 200 50">
	<path fill="#d8232a" d="M83.8 32.1 82 35.3l1.8 3.3 1.9-3.3-1.9-3.2zM87.5 38.6h-3.7l1.9 3.2h3.7l-1.9-3.2zM78.2 41.8H82l1.8-3.2h-3.7l-1.9 3.2z"/>
	<g fill="#000">
		<path d="M169.9 40.7v-3.6h-.2c-.4.2-.7.4-1.2.6h-.2v.2h.3c.5 0 .5.2.5.6v1.4c0 .8 0 1.6-.1 1.7 0 0-.3.2-.7.2h2.4v-.2c-.7 0-.7-.2-.7-.9ZM168.1 41.8h.1l-.1-.2v.2z"/>
		<path d="M170.4 39.6c0 .7.2 1.3.7 1.8 2.4 2.3 5.3-1.4 3.2-3.5-1.5-1.5-4.1-.4-4 1.8Zm2.6 2.2c-1.8 0-2.2-4.3-.4-4.4 1.8 0 2.2 4.3.4 4.4ZM175.1 41.8Z"/>
		<path d="M179.5 41.5c-.2-.2-.2-1.9-.2-2.6v-.3c0-1.9-1.7-1.9-2.7-.7v-.7c-.2 0-.5.2-.8.3l-.6.2v.2c.2 0 .5 0 .5.2v3.1c0 .5 0 .7-.6.7h2.2v-.2c-.5 0-.6-.2-.6-.6v-2.9c.3-.3.6-.6 1-.6s.7.5.7 1v1c0 .8 0 1.7-.2 1.9 0 0-.3.2-.6.2v.2h2.2v-.2c-.2 0-.4 0-.5-.2ZM29 39.3l-.6-.4c-1-.4-.9-1.6 0-1.6s.7.3.9.6v.1c0 .1.2.3.2.6v-1.4H29c-.9-.4-2 .2-2 1.2s.6 1.1 1.2 1.5c0 0 .2.1.3.2.3.2.7.4.7.6v.4c0 .5-.4.7-.8.7-.9 0-1.2-.6-1.4-1.5v1.6h.2c.6.2 1.8.4 2.3-.2.8-.7.5-1.8-.6-2.3ZM34.4 40.9v-3.6h-1.7v.2c.6 0 .7 0 .7.6v2.8c-.4.6-1.4.8-1.8.2-.2-.2-.1-2.5 0-3.4v-.3h-1.4v.2h.5c.2 0 .2.3.2.6v2.7c0 1.2 1.3 1.7 2.1 1l.2-.2c.2-.1.3-.3.5-.5v.8c.4-.2.6-.2.9-.3.1 0 .3 0 .5-.1v-.2c-.6 0-.6 0-.6-.6ZM42.2 39.3l-.6-.4c-1-.4-.9-1.6 0-1.6s.7.3.9.6v.1c0 .1.2.3.2.6v-1.4c-.1.1-.2 0-.2 0h-.3c-.9-.4-2 .2-2 1.2s.6 1.1 1.2 1.5c0 0 .2.1.3.2.3.2.7.4.7.6v.4c0 .5-.4.7-.8.7-.8 0-1.2-.6-1.4-1.5V42h.7c.2 0 .5.1.7.1 1.8 0 2.3-1.9.6-2.8Z"/>
		<path d="M45 40.7v-3.6h-.2c-.3.2-.6.3-1 .4-.2 0-.4.1-.5.2v.2h.3c.5 0 .5.3.5.6v2.4c0 .8 0 .8-.8.9s2.5 0 2.5 0v-.2c-.7 0-.7-.2-.7-.9ZM52.5 40.7v-3.6h-.2c-.3.2-.6.3-1 .4-.2 0-.4.1-.5.2v.2h.3c.5 0 .5.2.5.6v2.4c0 .8 0 .8-.8.9s2.5 0 2.5 0v-.2c-.7 0-.7-.2-.7-.9ZM59.2 38.1v-.9c-.2 0-.5.2-.8.3-.3 0-.6.2-.8.3v.2h.3c.5 0 .5.5.5.9v2.3c0 .6-.2.6-.7.6v.2h2.5v-.2c-.6 0-.9 0-.9-.7v-2.3c0-.4.5-.9.7-.9s.2 0 .4.2c.1 0 .3.2.4.2s.3-.2.3-.2v-.4c-.2-.9-1.3-.5-1.9.5Z"/>
		<path d="M64.5 37.6h.4c.1 0 0 .2 0 .4v.2l-.9 2.6-1.2-2.6c-.2-.3-.3-.6 0-.6h.4v-.2h-2.1l.2.4v.2c.4 0 .5.2.6.6l1.6 3.4v.2c0 .2-.6 1.6-.9 1.6h-.3c-.2 0-.4-.1-.5-.1-.9 0-.6 1 .3 1 1 0 1.2-.8 1.6-1.7 0-.1.1-.3.2-.5l1.6-4.3.2-.4c0-.2.2-.2.3-.2v-.2h-1.4v.2ZM72 37.8c-1.5-1.5-4.1-.4-4 1.8 0 .7.2 1.3.6 1.8 2.4 2.3 5.3-1.4 3.3-3.5Zm-1.5 4c-1.8 0-2.2-4.3-.4-4.4 1.8 0 2.2 4.3.4 4.4Z"/>
		<path d="M75.2 34.9c-1.3 0-1.8 1.2-1.8 2.4h-.8v.4h.8v3.2c0 .7-.2.9-.9.9v.4h2.7V42c-.8 0-.9-.1-.9-.9v-3.2h1.3v-.4h-1.3v-1.8c0-.3.3-.4.6-.4h.3s.3.2.3.3l.3.3h.6c.5-.6-.5-.9-1-.9ZM101.8 40.7v-3.6h-.2c-.4.2-.7.4-1.2.6h-.2v.2h.3c.5 0 .5.2.5.6v2.4c0 .6 0 .7-.3.8h1.9c-.7 0-.7-.2-.7-.9Z"/>
		<path d="M100.1 41.7v-.2.2c-.3 0-.6 0-.6-.2-.2 0-.2-.4-.2-.7v-4.6c0-.7.2-.9.9-.9v-.2h-2l-2.3 5.2-2.4-5.2h-2v.2c.8 0 1 .1 1 .9v4.3c0 1 0 1.2-1 1.3v.3h2.4v-.2c-1-.2-1-.4-1-1.4v-4.2l2.6 5.7h.2l2.7-5.9v4.7c0 .8 0 .9-.9 1v.2h3.4-.5ZM104.6 41.5c-.6 0-.6-.5-.6-.9v-2.9h1v-.4h-1V36c-.2.3-.4.5-.5.7-.3.4-.4.5-.9.9h.6v3.1c0 .6.2 1.3.9 1.3s.4 0 .6-.2c.2 0 .4-.2.6-.5V41c-.2.2-.4.4-.6.4ZM107.7 39.4c-.7-.3-1.9-.8-1.2-1.7.7-.6 1.8 0 1.8 1v-1.4h-.2c-2.2-.9-3.5 1.6-1.2 2.6 0 0 .2.1.3.2.3.2.7.4.7.6v.4c0 .5-.4.7-.8.7-.9 0-1.2-.6-1.4-1.5V42h.2c.6.2 1.8.4 2.3-.2.8-.7.5-1.8-.7-2.3ZM113 40.9v-3.6h-1.7v.2c.6 0 .7 0 .7.6v2.8c-.4.6-1.4.8-1.8.2-.2-.2-.1-2.5 0-3.4v-.4h-1.4v.2h.5c.2 0 .2.3.2.6v2.7c0 1.8 2 1.7 2.8.5v.8c.4-.2.6-.2.9-.3.1 0 .3 0 .5-.1v-.2c-.6 0-.6 0-.6-.6ZM118 41.8h.1l-.1-.2v.2z"/>
		<path d="M119.8 40.7v-3.6h-.2c-.2.1-.7.3-1.1.4-.1 0-.2 0-.3.1v.2h.5c.4 0 .4.3.4.6v2.4c0 .8 0 .8-.8.9s2.4 0 2.4 0v-.2c-.7 0-.7-.2-.7-.9ZM123 39.4c-.7-.3-1.9-.8-1.2-1.7.7-.6 1.8 0 1.8 1v-1.4h-.2c-2.2-.9-3.5 1.5-1.2 2.6 0 0 .2.1.3.2.3.2.7.4.7.6v.4c0 .5-.4.7-.8.7-.8 0-1.2-.6-1.4-1.5V42h.2c.6.2 1.8.4 2.3-.2.8-.7.5-1.8-.6-2.3Z"/>
		<path d="M128.4 40.8v-2c.2-1.9-1.8-2.1-2.8-.8v-3.2c-.4.2-1 .4-1.5.5v.2c.5 0 .7 0 .7.6V41c0 .7 0 .8-.7.9h2.2v-.2c-.7 0-.7-.2-.7-.9v-2.5c.2-.5 1.4-1 1.8-.4.2.4.2 1.7.2 2.5v.4c0 .7 0 .8-.7.9v.2h2.2v-.2c-.6 0-.6-.3-.6-.9Z"/>
		<path d="M131 40.7v-3.6h-.2c-.3.2-.6.3-1 .4-.2 0-.4.1-.5.2v.2h.4c.4 0 .4.3.4.6v2.4c0 .8 0 .8-.8.9s2.5 0 2.5 0v-.2c-.7 0-.7-.2-.7-.9ZM135.8 36.3c1.2-1.6 3.7-.9 4.1 1V35h-.2c-.2.5-.4.4-.8.3h-.3c-3.7-1.2-6.3 3.2-3.9 5.9 1.4 1.5 4.3 1.4 5.5-.3l-.2-.2c-3.4 3.2-6.4-1.2-4.3-4.4ZM140.4 39.6c0 3.3 4.6 3.3 4.6 0s-4.6-3.2-4.6 0Zm2.6 2.2c-1.8 0-2.2-4.3-.4-4.4 1.8 0 2.2 4.3.4 4.4Z"/>
		<path d="M146.4 38.1v-.9c-.6.2-1.1.4-1.6.6v.2h.3c.5 0 .5.5.5.9v2.3c0 .6-.2.6-.7.6h2.5v-.2c-.6 0-.9 0-.9-.7v-2.3c0-.4.5-.9.7-.9s.2 0 .4.2c.1 0 .3.2.4.2.3 0 .5-.2.5-.5-.2-.9-1.3-.5-1.9.5ZM148.5 44.3v-.1h-.1l.1.1zM157.6 37.8c-1.5-1.5-4.1-.4-4 1.8 0 .7.2 1.3.6 1.8 2.4 2.3 5.3-1.4 3.3-3.5Zm-1.5 4c-1.8 0-2.2-4.3-.4-4.4 1.8 0 2.2 4.3.4 4.4ZM158 41.8h.2-.2Z"/>
		<path d="M161.5 37.6c-.2-.9-1.3-.5-1.9.5v-.9c-.3 0-.5.2-.8.3-.3 0-.5.2-.8.3v.2h.3c.5 0 .5.5.5.9v1c0 .8 0 1.8-.2 1.8 0 .1-.3.2-.5.2h2.5v-.2c-.6 0-.9 0-.9-.7v-2.3c0-.5.6-1.3 1-.7 0 .2.3.2.4.2s.3-.2.3-.2v-.4ZM168 41.2v.1s-.1.2-.2.2h-.3c-.6 0-.6-.5-.6-.9v-2.9h1v-.4h-1V36c-.1.2-.3.3-.4.5-.2.2-.3.4-.4.4l-.2.2-.4.4h.6v3.1c0 1 .6 1.7 1.5 1.2.2 0 .5-.4.7-.7ZM167.9 37.3zM23.3 10.3l6.3 9.2 6.4-9.2v14.2h3.3V6.1h-4.2l-5.5 8.2-5.5-8.2H20v18.4h3.3V10.3zM55.6 21.1c-.2 0-.3.1-.4.2-.5.2-1.1.5-4.2.5s-5.2-1.4-5.2-6.4S47.1 9 51 9s3.8.4 4.6.6V6.4c-.3-.1-.4-.2-.5-.3-.3-.2-.4-.4-4.5-.4s-8.2 2.3-8.2 9.5v.2c0 7.3 2.7 9.5 8.2 9.5s3.8-.4 5-.6v-3.2ZM101.4 13.6c.7-.5 1.4-.7 3.4-.7s2.7.6 2.7 2.2v9.5h3.2V14.2c0-2.6-1.1-4.2-4.7-4.2s-4 .7-4.8 1.4v-1.2h-3.1v14.5h3.2v-11ZM117.5 17.2l5.7 7.3h3.9l-6.1-7.4 5.8-6.9h-4l-5.3 6.8V5h-3.3v19.5h3.3v-7.3zM158 24.8c2.2 0 3.8-.7 4.7-1.4l.3 1.1h2.7V10.1h-3.2V21c-.1 0-.2 0-.3.1-.7.3-1.3.6-3.1.6s-2.7-.6-2.7-2.2V10h-3.2v10.4c0 2.7 1.3 4.3 4.8 4.3ZM172.2 18.1l2.6.7h.2c1.3.3 1.8.5 1.8 1.6s-1.1 1.5-2.8 1.5-3.5-.4-5.1-.9v3.1c.3 0 .5.2.6.3.6.3 1 .5 4.5.5s6-1.6 6-4.3-1.3-3.5-3.8-4.3l-2.5-.7c-1.3-.4-1.8-.6-1.8-1.6s.5-1.3 2.7-1.3 3.2.3 4.6.7v-3c-.2 0-.4-.1-.5-.2-.5-.2-.9-.4-4.1-.4s-5.9 1.4-5.9 4 1.3 3.5 3.6 4.2ZM169 35c-.2.2-.2.6 0 .7 0 .2.2.2.4.2s.3 0 .4-.2c.4-.4 0-.9-.4-.9s-.3 0-.4.2ZM77 14.8h.3c1.5-.4 2.3-.6 2.3-4s-2-4.6-6.2-4.6h-7.3v18.5h7.6c4.3 0 6.4-1.1 6.4-5.1 0-3.1-1.2-4.2-3.2-4.6ZM69.3 9h3.3c2.8 0 3.5.3 3.5 2.2s-.7 2.5-2.9 2.5h-4V9Zm3.9 12.7h-3.9v-5.3h4.2c2.4 0 3.2.6 3.2 2.7s-.9 2.6-3.5 2.6ZM82.4 20.1ZM92.2 24.4h2.5v-9.9c0-3.7-2.5-4.6-6.3-4.6s-3.3.2-4.6.6v2.8c.2 0 .3 0 .4-.1 1.2-.3 1.8-.4 3.8-.4s3.4.6 3.4 2.1v1.7c-.2 0-.4-.1-.5-.2-.4-.2-.8-.4-3.3-.4s-5.2.8-5.2 4.2c0 3.2 1.4 4.6 4.9 4.6s3.3-.5 4.5-1.4l.4 1.1Zm-1-2.6c-.6.2-1 .4-2.7.4s-2.7-.6-2.7-1.9.6-1.8 2.7-1.8 1.9 0 3 .3v3c-.1 0-.2 0-.3.1ZM139.7 17.9h3.3l4.3 6.6h3.8l-4.8-7.1h.2c2.2-.5 3.6-.8 3.6-5.4s-2.5-5.8-6.9-5.8h-6.9v18.4h3.3V18Zm0-8.7h3.3c2.7 0 3.8.5 3.8 2.9S145.7 15 143 15h-3.3V9.2ZM23.7 41.5q-.2 0-.3-.2v-1.5c0-.8 0-1.6-.2-1.9-.6-1.2-3.6-.6-3 .8 0 0 .2.2.4.2.5 0 .5-.5.4-.8 0-.6 1.3-.6 1.5-.2v2.8c0 .5-.6.6-.9.6-1 0-.9-1.4 0-1.9.1 0 .3-.2.5-.2s.3-.1.5-.2c-.3.1-.5.2-.8.3-1 .4-1.7.7-1.8 1.7 0 1 1.2 1.3 1.9.8 0 0 .1 0 .2-.1.2-.1.3-.2.4-.3 0 1 1.1.9 1.6.3v-.3s-.2 0-.3.2h-.2ZM27 40.3v-.1.1zM31.6 37.3ZM36.4 38v-3.2c-.2 0-.5.1-.8.2-.3 0-.6.2-.8.2v.2h.2c.4 0 .5 0 .5.5v5.4c0 .5 1.2.6 1.7.6 1.5 0 2.5-1.2 2.5-2.6.2-1.9-2.1-3.2-3.2-1.4Zm1 3.6h-.6c-.2 0-.4-.2-.4-.4v-2.6c0-.2 0-.4.4-.6 2.2-1.3 3 3.7.6 3.6ZM44.5 35.9s.3 0 .4-.2c.2 0 .2-.3.2-.4 0-.3-.3-.6-.6-.6s-.3 0-.4.2c-.2.2-.2.6 0 .7 0 .2.2.2.4.2ZM47.9 37.2ZM49.8 40.7v-5.9c-.3.1-.5.2-.8.3-.2 0-.5.1-.7.2v.2c.5 0 .7 0 .7.6v1.7c-.3-.3-.6-.5-1.1-.5-3.1 0-2.7 6.1.6 4.6.2 0 .4-.3.5-.5v.6l.8-.3.7-.3v-.2c-.5 0-.6 0-.6-.6Zm-.8.2c0 .4-.5.7-.9.6-1.6 0-1.9-2.5-1.1-3.5.6-1 2.1-.6 2 .6v2.2ZM51.4 35c-.2 0-.2.2-.2.4s0 .3.2.4c0 .2.2.2.4.2s.3 0 .4-.2c.2 0 .2-.3.2-.4 0-.3-.3-.6-.6-.6s-.3 0-.4.2ZM57 41.5q-.2 0-.3-.2v-1.5c0-.8 0-1.6-.2-1.9-.6-1.2-3.6-.6-3 .8 0 0 .2.2.4.2.5 0 .5-.5.4-.8 0-.6 1.3-.6 1.5-.2V39c-.3.1-.5.2-.8.3-1 .4-1.7.7-1.8 1.7 0 1.6 1.8 1.2 2.6.3 0 1 1.1.9 1.6.3v-.3s-.2 0-.3.2h-.2Zm-1.1-.8c0 .5-.6.6-.9.6-1 0-.9-1.4 0-1.9.1 0 .3-.2.5-.2s.3-.1.5-.2v1.7ZM101.3 34.8s-.3 0-.4.2c-.2.2-.2.6 0 .7 0 .2.2.2.4.2s.3 0 .4-.2c.2-.2.2-.6 0-.7 0-.2-.3-.2-.4-.2ZM115.1 38v-3.2c-.3 0-1.1.4-1.6.5v.2h.2c.4 0 .5 0 .5.5v5.4c0 .5 1.2.6 1.7.6 1.5 0 2.5-1.2 2.5-2.6 0-1.9-2.1-3.2-3.2-1.4Zm.9 3.7h-.6c-.2 0-.4-.2-.4-.4v-2.7c0-.5.6-.8 1-.7 1.8 0 1.9 3.9 0 3.9ZM119 35c-.4.4 0 .9.4.9s.3 0 .4-.2c.2 0 .2-.3.2-.4 0-.3-.3-.6-.6-.6s-.3 0-.4.2ZM130.5 35.9s.3 0 .4-.2c.2 0 .2-.2.2-.4s0-.3-.2-.4c0-.2-.2-.2-.4-.2s-.3 0-.4.2c-.4.4 0 .9.4.9ZM150.5 37.5s-.2.2-.3.2c0 0-.2.1-.3.2v-.6c-.6.2-1 .4-1 .4l-.5.2v.2c.5 0 .6 0 .6.6v5.4s-.3.2-.6.2h2.4v-.2c-.7 0-.9 0-.9-.7v-1.7c1.5 1.4 3.3-.6 3.2-2.2 0-1.6-1.3-2.9-2.7-1.9Zm-.2 4c-.2 0-.3-.3-.4-.6v-2.6c.2-.8 1.5-.9 1.9-.2.9 1 .3 4.3-1.6 3.3ZM165.1 41.5h-.2l-.1-.2v-2.4c.2-1.8-1.7-2-2.8-1.3-.6.4-.6 1.2 0 1.2s.6-.3.4-.6V38c0-.6 1.3-.6 1.5-.2v1.1c-.3.1-.5.2-.8.3-1 .4-1.7.7-1.8 1.7 0 1.7 1.8 1.3 2.6.4 0 1 1.1.9 1.6.3v-.3s-.2 0-.3.2h-.2Zm-1.1-.8c0 .5-.6.6-.9.6-1 0-.9-1.4 0-1.9.1 0 .3-.2.5-.2s.3-.1.5-.2v1.7Z"/>
	</g>
</svg>