<svg xmlns="http://www.w3.org/2000/svg" viewBox="0 0 200 50">
	<path fill="#292929" d="M42.3792 15.3065h2.5895c.6166 0 1.1771.0616 1.6816.1849.5156.1121.9921.3027 1.4293.5717.4371.2579.779.639 1.0256 1.1435.2466.5044.37 1.1042.37 1.7992 0 2.4662-1.5022 3.6993-4.5065 3.6993h-5.1118V10.9346h8.6598v2.27h-6.1375v2.1019Zm0 5.179h2.6064c.5941 0 1.0593-.1009 1.3956-.3027.3475-.2129.5213-.6053.5213-1.177 0-.5717-.1738-.9584-.5213-1.1603-.3363-.2129-.8015-.3194-1.3956-.3194h-2.6064v2.9594Zm15.7693.1345c0 .3587.1905.5381.5717.5381.1568 0 .3026-.0224.4371-.0672v1.5301c-.4259.1569-.8575.2354-1.2947.2354-.852 0-1.4461-.3026-1.7824-.908-.8407.6615-1.8104.9921-2.909.9921-.7959 0-1.4685-.2186-2.0178-.6558-.538-.4484-.8072-1.0537-.8072-1.816 0-.639.1906-1.1714.5718-1.5974.3812-.426.8239-.7119 1.3284-.8576.5044-.1569 1.0537-.2354 1.6479-.2354.6614 0 1.3003.0728 1.9169.2186v-.2859c0-.4147-.1626-.7454-.4877-.9921-.325-.2466-.7959-.3699-1.4124-.3699-.8968 0-1.8497.2018-2.8586.6054v-2.0179c1.0762-.3587 2.1187-.538 3.1277-.538 2.6454 0 3.9683 1.2163 3.9683 3.6489V20.62Zm-3.7161-1.446c-.4821 0-.8857.0896-1.2107.269-.3251.1793-.4877.4596-.4877.8407 0 .2914.1177.5325.3532.723.2466.1794.5493.2691.908.2691.7062 0 1.3115-.2186 1.816-.6558v-1.2611c-.5158-.1233-.9753-.1849-1.3788-.1849Zm8.3145 3.5311h-2.3373v-8.0712h2.3373v3.0603h3.2622v-3.0603h2.3373v8.0712h-2.3373v-3.0604h-3.2622v3.0604Zm9.9183 0h-2.3373v-8.0712h2.3373v3.0099h.9752l2.0515-3.0099h2.6231l-2.7745 3.9852 3.01 4.086h-2.6231l-2.3206-3.1949h-.9416v3.1949ZM47.4405 39.104h-2.3541l-2.1691-3.0434v-.4372l2.1691-3.0436h2.3541l-2.2868 3.2621 2.2868 3.2621Zm-3.8338 0h-2.3541l-2.1691-3.0434v-.4372l2.1691-3.0436h2.3541l-2.2868 3.2621 2.2868 3.2621Zm16.0348-10.997h2.3372v11.7706h-2.5223v-7.2473l-3.1107 4.725h-1.463l-3.1107-4.7418v7.2641h-2.5223V28.107h2.3373l4.0356 6.1207 4.0189-6.1207Zm6.6289 11.7706h-2.0346v-8.0712h2.3373v4.54l3.5984-4.54h2.0178v8.0712h-2.3205v-4.5401l-3.5984 4.5401Zm9.9682-6.8942c.6614-.9416 1.6367-1.4125 2.9259-1.4125 1.2219 0 2.1803.4204 2.8753 1.2611.7063.8296 1.0594 1.8329 1.0594 3.0099 0 1.1771-.3531 2.186-1.0594 3.0267-.695.8296-1.6534 1.2443-2.8753 1.2443-1.1098 0-1.9955-.3642-2.6568-1.0929v4.5569h-2.3373V31.8064h2.0682v1.177Zm3.9012 4.5064c.3811-.4484.5717-.9977.5717-1.6479 0-.6501-.1906-1.1938-.5717-1.631-.3812-.4484-.8969-.6726-1.547-.6726-.482 0-.9136.1289-1.2948.3867-.3699.2578-.639.5774-.8072.9585v1.9169c.1682.3811.4373.7006.8072.9584.3812.2578.8128.3868 1.2948.3868.6501 0 1.1658-.2186 1.547-.6558Zm11.0096 2.3878h-2.5223V28.107h10.2405v11.7706h-2.506v-9.5005h-5.2122v9.5005Zm12.0366-6.8942c.66-.9416 1.636-1.4125 2.925-1.4125 1.223 0 2.181.4204 2.876 1.2611.706.8296 1.059 1.8329 1.059 3.0099 0 1.1771-.353 2.186-1.059 3.0267-.695.8296-1.653 1.2443-2.876 1.2443-1.109 0-1.996-.3642-2.656-1.0929v4.5569h-2.338V31.8064h2.069v1.177Zm3.9 4.5064c.382-.4484.572-.9977.572-1.6479 0-.6501-.19-1.1938-.572-1.631-.381-.4484-.896-.6726-1.546-.6726-.482 0-.914.1289-1.295.3867-.37.2578-.639.5774-.807.9585v1.9169c.168.3811.437.7006.807.9584.381.2578.813.3868 1.295.3868.65 0 1.165-.2186 1.546-.6558Zm6.526 2.3878h-2.034v-8.0712h2.336v4.54l3.599-4.54h2.018v8.0712h-2.321v-4.5401l-3.598 4.5401Zm12.844 0h-4.944v-8.0712h4.809c.897 0 1.563.2073 2.001.6221.437.4035.656.908.656 1.5133 0 .9192-.415 1.5358-1.245 1.8497.953.3138 1.43.9473 1.43 1.9001 0 .639-.213 1.1658-.64 1.5806-.426.4035-1.115.6054-2.067.6054Zm-2.607-3.3463v1.7488h1.918c.716 0 1.076-.2858 1.076-.8575 0-.5942-.36-.8913-1.076-.8913h-1.918Zm-.016-3.1275v1.715h1.781c.673 0 1.01-.2802 1.01-.8406 0-.5829-.342-.8744-1.026-.8744h-1.765Zm8.942 6.4738h-2.034v-8.0712h2.336v4.54l3.599-4.54h2.018v8.0712h-2.321v-4.5401l-3.598 4.5401Zm11.482-6.2216c-.068.9865-.163 1.8385-.287 2.5558-.112.7063-.279 1.3677-.503 1.9842-.225.6054-.528 1.065-.908 1.3789-.381.3139-.842.4708-1.38.4708-.414 0-.84-.0785-1.277-.2355v-1.8495c.168.0672.331.1008.487.1008.583 0 .992-.5212 1.228-1.5638.236-1.0425.398-2.6063.487-4.6913h6.558v8.0712h-2.337V33.656h-2.068Zm5.931 2.1859c0-.7287.129-1.3732.387-1.9337.258-.5717.594-1.0201 1.01-1.3452.426-.3251.868-.5717 1.328-.7399.47-.1681.947-.2522 1.429-.2522.807 0 1.502.1513 2.085.454.595.3027 1.031.6951 1.311 1.177.281.4709.472 1.009.573 1.6144.112.594.083 1.1882-.085 1.7824h-5.683c.122.5605.448.9808.975 1.2611.527.269 1.149.4036 1.866.4036.887 0 1.698-.1626 2.439-.4877v1.8328c-.797.3363-1.783.5044-2.959.5044-1.346 0-2.462-.3755-3.347-1.1266-.886-.751-1.329-1.7992-1.329-3.1444Zm5.936-.7566c.056-.37-.05-.7511-.319-1.1435-.269-.3923-.729-.5885-1.379-.5885-.516 0-.958.1569-1.329.4709-.37.3027-.56.723-.571 1.2611h3.598Zm6.018 4.7923h-2.336v-8.0712h6.153v1.9673h-3.817v6.1039Zm7.104 0h-2.034v-8.0712h2.336v4.54l3.599-4.54h2.018v8.0712h-2.321v-4.5401l-3.598 4.5401Zm14.458-9.7191c-.729.4483-1.587.6726-2.573.6726s-1.844-.2243-2.573-.6726v-1.7488c.774.426 1.632.639 2.573.639.942 0 1.799-.213 2.573-.639v1.7488Zm-4.523 9.7191h-2.036v-8.0712h2.338v4.54l3.598-4.54h2.019v8.0712h-2.321v-4.5401l-3.598 4.5401Zm13.651-.7736h-2.355l2.287-3.2621-2.287-3.2621h2.355L195 35.6234v.4372l-2.168 3.0434Zm-3.834 0h-2.355l2.287-3.2621-2.287-3.2621h2.355l2.168 3.0436v.4372l-2.168 3.0434ZM19.6865 38.2745c8.0986-.013 14.6537-6.3531 14.6412-14.1609C34.3152 16.3058 27.7399 9.98693 19.6413 10c-8.0986.0131-14.65376 6.3532-14.64128 14.1609.01248 7.8078 6.58778 14.1267 14.68648 14.1136Z"/>
	<path fill="url(#a)" d="M11.2181 12.794c-.2232.1496-.6032.4002-.6353.3881.0161-.0182.0262-.0283.0885-.0768l.0281-.0223.4483-.3274c.9932-.6469.9932-.6469 1.0434-.6549-.0704.0828-.9649.6872-.973.6933Zm.3378.1819c.2914-.2062.6453-.5175.5488-.572-.2614-.0385-1.3811.76-1.2484.8894.0562.0565.3699-.0849.6996-.3174Zm.8463.2547c.2734-.2163.5167-.5438.2654-.5943-.4624-.0242-1.4173.6974-1.2022.9096.1105.1092.5447-.004.9368-.3153Zm7.4023.6125c.0362-.2992-.2814-.7015-.967-.6833-.8484.0829-1.1801.7297-.7459 1.0754.5267.4204 1.6466.1637 1.7129-.3921Zm2.1411-.0546c-.0583-.2972-.5087-.6873-1.2002-.6448-.7801.1031-.947.7034-.4764 1.047.6312.4609 1.7912.184 1.6766-.4022Zm2.1109-.1334c-.1548-.2931-.7177-.663-1.3651-.5963-.6714.1213-.6754.6812-.1909 1.0066.6573.4427 1.7228.2547 1.6042-.283-.008-.0404-.028-.091-.0482-.1273Zm1.7369-.1941c-.2412-.287-.8503-.6367-1.363-.5518-.5247.1435-.3176.6953.2191 1.0046.6615.378 1.4174.2567 1.2827-.2082-.0201-.0788-.0683-.1617-.1388-.2446Zm1.2626-.2405c-.3075-.2769-.9288-.6084-1.2906-.5094-.378.1718.1426.8409.8544 1.0996.5227.19.8604.0445.6815-.2971-.0483-.089-.1367-.1961-.2453-.2931Zm.7499-.2668c-.3538-.2669-.9489-.5761-1.148-.471-.2231.2365.9429 1.142 1.4677 1.138.221-.002.199-.1819-.0543-.4386-.0502-.0506-.1368-.1334-.2654-.2284Zm-14.107.6043c.2554-.2486.39-.6165-.0181-.6549-.6433-.002-1.5158.7075-1.2304.9986.1931.194.8323.0626 1.2485-.3437Zm1.7009.1557c.1789-.2385.1749-.5822-.2956-.6024-.6494.0223-1.2967.5963-1.0213.9036.2292.2567.9891.1374 1.3169-.3012Zm2.0465.099c.1146-.2567-.0261-.6145-.587-.6185-.7017.0445-1.2385.6226-.8806.948.3318.3052 1.2484.1617 1.4676-.3295Zm10.5607-1.142c-.4222-.287-.9088-.5357-.9288-.4346.0723.2708 1.5218 1.231 1.6162 1.0713.0403-.0687-.2612-.3477-.6874-.6367ZM9.75253 13.8673l-.03217.0283c.14471-.1253.33984-.2931.48454-.4204-.21115.1758-.35586.3052-.45237.3921Zm-1.11975 1.9728c.31757-.3739.57287-.8813.4261-.9763-.20904-.0424-.6956.5417-.71563.566-.4363.5256-.54288.8166-.50258.9056.06434.1455.45827-.1011.79211-.4953Zm1.01718.2648c.19302-.2445.23526-.5558-.01603-.6084-.43023-.0303-.93693.6751-.75193.8934.13475.1577.53682.0081.76796-.285Zm10.23694.7944c.0543-.3679-.39-.8651-1.361-.8409-1.0877.093-1.5078.8146-.9851 1.2533.6855.574 2.2416.3011 2.3461-.4124Zm2.893-.0586c-.0201-.3618-.5669-.8328-1.544-.7782-1.0353.1192-1.341.7762-.8222 1.1986.7479.6085 2.4064.3134 2.3662-.4204Zm2.8548-.2183c-.0945-.3618-.6795-.853-1.6345-.758-.977.1637-1.1318.8611-.5388 1.2815.8123.5781 2.2637.285 2.1873-.4427-.002-.0242-.008-.0565-.014-.0808Zm2.3461-.2628c-.1649-.3557-.7579-.8287-1.5098-.7095-.8263.2042-.7438.9662-.0644 1.3462.8424.473 1.8336.1294 1.6084-.5578-.0101-.0243-.0242-.0546-.0342-.0789Zm1.7068-.3234c-.2251-.3598-.784-.8025-1.3229-.663-.5991.2365-.3075 1.0915.4866 1.4271.6714.285 1.16-.0384.9168-.6085-.0202-.0485-.0523-.1111-.0805-.1556Zm.9891-.3557c-.3779-.4993-.8966-.7621-1.0493-.5296-.2292.3497.609 1.4755 1.1881 1.3219.3236-.1637-.0905-.7277-.1388-.7923Zm-19.3983.9459c.1709-.2547.1608-.6326-.3035-.6812-.6554-.008-1.15608.6853-.8605.9865.2574.2587.8986.0909 1.164-.3053Zm2.6818.0688c.167-.3235.0202-.7924-.6895-.8268-.8947.0243-1.4475.7661-1.0655 1.1704.4021.4245 1.4676.2142 1.755-.3436Zm2.7202.1394c.1085-.3193-.1569-.7681-.9369-.7741-.9268.0525-1.3751.7337-.9569 1.1218.4925.4548 1.6947.2345 1.8938-.3477Zm14.2919-1.5422c-.0683-.0809-.6755-.7924-.7418-.5963-.0162.4325 1.0554 1.5564 1.2404 1.4513.1025-.0586-.187-.4851-.4986-.855ZM6.60219 19.2299c.20309-.4306.26136-.952.1186-1.0531-.14871-.0384-.3518.3679-.45827.6145-.20916.4771-.29754.8449-.23332.9642.08655.1516.37997-.1172.57299-.5256Zm1.2505.5457c.1407-.3011.07441-.6851-.24328-.7559-.48243-.0383-.77001.7965-.55891 1.0693.18295.2365.62531.0647.80219-.3134Zm12.10061.7379c.0684-.3902-.4684-.9157-1.6506-.8894-1.3288.099-1.7571.8509-1.0937 1.32.8203.5821 2.6176.2991 2.7443-.4306Zm3.4257-.0283c.0242-.4528-.6474-.9076-1.7712-.8511-1.2465.1315-1.6425.847-1.0413 1.3058.8523.6489 2.7703.3376 2.8125-.4547Zm3.3815-.279c-.0322-.4224-.6071-.9682-1.7813-.857-1.1901.1859-1.4856.9742-.8443 1.4473.9268.6832 2.692.287 2.6256-.5903Zm2.913-.3416c-.0944-.4771-.6895-1.0753-1.7168-.9156-1.1661.2748-1.2565 1.2431-.4705 1.7383 1.0013.6286 2.3723.1153 2.1873-.8227Zm2.0325-.3921c-.1386-.4609-.6594-1.1158-1.4655-.9116-.951.3517-.7519 1.5281.1025 1.9505.8645.4245 1.6284-.1576 1.363-1.0389Zm1.0575-.4124c-.1548-.4022-.5247-.9338-.9107-.7479-.5709.4023.0061 1.6818.6253 1.7667.388.0505.5167-.4144.2854-1.0188Zm-22.6833 1.0936c.1589-.376-.0543-.8207-.62326-.8813-.77597-.0122-1.18009.7964-.77803 1.2168.36795.382 1.18021.188 1.40129-.3355Zm2.3843.3456c.1287-.3658-.1849-.7802-.8544-.8125-.8463.0201-1.2343.6771-.8463 1.0915.4363.4649 1.4997.291 1.7007-.279Zm3.6067-.0748c.0904-.3435-.2574-.8267-1.1419-.8368-.9891.0525-1.3812.7115-.9409 1.146.5509.5459 1.9139.3437 2.0828-.3092Zm17.012-1.8172c-.4181-.9358-.4845-.7782-.5046-.7256-.1146.5377.593 1.8657.7901 1.7384.0824-.0526-.0221-.4225-.2855-1.0128Zm-20.0819-6.7209c.008-.004.9027-.4568.9389-.5518l-.004-.0061c-.2071-.0404-1.6988.7054-1.7551.8793l.006.0081c.1005.0222.6031-.2244.8142-.3295Zm.4343.2042c.3177-.1799.7016-.4549.5991-.5054l-.0202-.006c-.3859-.0263-1.6063.6407-1.4655.8004.0583.0707.4141-.0222.8866-.289Zm7.0706.4952c-.0221-.2102-.3016-.5033-.752-.4831-.5187.0647-.7538.5296-.398.7923.382.281 1.1962.1335 1.15-.3092Zm1.8315-.0748c-.1268-.2406-.5951-.564-1.1078-.5215-.5267.0889-.5529.5639-.189.8409.5227.3961 1.4335.2526 1.3369-.2123-.006-.0323-.0241-.0768-.0401-.1071Zm1.5459-.1334c-.2231-.2345-.7921-.5397-1.2324-.4791-.4222.1031-.2754.5316.1348.7964.5427.3517 1.3128.3133 1.2464-.0626-.0121-.0748-.0663-.1678-.1488-.2547Zm1.1862-.1739c-.3097-.2304-.9369-.5093-1.2566-.4386-.3095.1213.1548.6226.6916.8591.5066.2223.9408.1799.8584-.0849-.0301-.097-.1367-.2183-.2934-.3356Zm.7961-.2021c-.3679-.2203-1.0053-.477-1.2103-.3982-.2031.1658.9147.8934 1.4616.95.2271.0243.2915-.0687.1607-.2284-.0381-.0465-.1507-.1677-.412-.3234Zm-11.5217.2911c.3177-.2163.5268-.4771.3337-.5175l-.0341-.004c-.5267-.0081-1.5218.5922-1.347.8126.0986.1253.5891.0242 1.0474-.2911Zm1.2545.1556c.2212-.2001.384-.5093.0262-.5316-.6112.0162-1.4315.6064-1.1701.8429.1729.1597.758.0364 1.1439-.3113Zm1.4677.097c.1447-.2021.1447-.4871-.2373-.4952-.5489.0324-1.1318.5316-.9047.7762.2031.2163.8725.095 1.142-.281Zm1.6806.0506c.0664-.2102-.0703-.4993-.5005-.4932-.5488.0485-.959.5356-.6676.7903.2916.2507 1.0375.1152 1.1681-.2971Zm7.4928-.8146c-.4382-.2264-1.0233-.4386-1.0896-.3598-.0061.1961 1.5741 1.0005 1.743.8853.0845-.0566-.2071-.2931-.6534-.5255Zm-.0784-.2244c-.4282-.2041-.8403-.3618-.8987-.3416l.0081.0162c.1649.1374 1.6646.8732 1.7591.8348-.0564-.1193-.8605-.5053-.8685-.5094Zm-16.43909 2.646c.36399-.3235.76399-.7641.73379-.8429-.1306-.0567-1.47358 1.1784-1.42332 1.3078.07842.0303.40607-.2103.68953-.4649Zm.67959.1819c.2412-.2284.398-.5195.2372-.5721-.3377-.0343-1.02131.6873-.9208.8571.0664.1152.4121-.0283.6836-.285Zm10.7194.952c.002-.3012-.4423-.7034-1.2866-.6711-.9529.091-1.2626.6913-.7639 1.0451.6653.4689 2.0445.2183 2.0505-.374Zm2.5895-.196c-.0845-.3396-.6434-.7762-1.4697-.7095-.8725.1293-1.0374.7559-.5287 1.1461.7157.5478 2.0687.3032 2.0104-.3639-.0021-.0202-.0061-.0505-.012-.0727Zm2.3139-.2002c-.1649-.3213-.7519-.7519-1.4898-.6589-.7719.1617-.7518.7903-.1728 1.1582.762.4851 1.8536.2587 1.7169-.3557-.0101-.0445-.0322-.1011-.0543-.1436Zm1.7792-.2607c-.2332-.3133-.8363-.7257-1.3892-.6125-.583.19-.3096.8672.3216 1.2027.6655.3517 1.333.1799 1.2083-.3133-.0241-.0889-.0703-.1819-.1407-.2769Zm1.1902-.3032c-.2835-.3052-.8685-.6974-1.2224-.57-.398.2324.2734 1.1157.9972 1.3159.3961.1091.6634-.0566.4282-.4751-.0483-.0869-.1166-.1778-.203-.2708Zm-17.3136.5073c.2654-.291.396-.7276-.0462-.7903-.7097-.0222-1.5039.8348-1.2364 1.1602.209.2547.8926.0587 1.2826-.3699Zm1.8074.2204c.0322-.0445.1105-.1638.1226-.2972.0442-.4891-.6876-.572-1.2625-.1435-.4525.3376-.5328.8207.0502.9137.5609.0384.957-.2931 1.0897-.473Zm2.5029.1051c.1689-.3376.002-.8126-.7479-.8328-.977.0445-1.5741.8206-1.1559 1.2269.4502.4387 1.6063.1981 1.9038-.3941Zm2.5129.0667c.0885-.3416-.225-.8086-1.0434-.8005-.995.0748-1.4434.8065-.9749 1.2088.5528.477 1.8555.2143 2.0183-.4083Zm11.0493-1.229c-.3217-.3012-.8405-.667-.9831-.5336-.0784.1556.2211.5356.5307.8227.3297.3052.7217.5174.8746.477.1728-.0465-.0122-.382-.4222-.7661Zm.2895.0263c-.2514-.2183-.577-.5175-.8344-.7277l-.0161-.0142c-.1468-.1152-.2051-.1556-.2332-.1596l.0101.0323c.209.2911 1.2605 1.2371 1.4313 1.2573l.0061-.0061c-.0221-.0687-.3297-.3517-.3638-.382ZM7.21341 17.2753c.3075-.477.51266-.9783.49457-1.0713l-.00607-.0061c-.10658.0202-.84442 1.2714-.85038 1.2836l-.02209.0384c-.05839.1071-.19508.3598-.10464.3315.06846-.0223.27545-.2486.48861-.5761Zm.78799.4528c.20516-.3194.25942-.7358.02816-.8126-.4-.0485-.93681.9723-.75387 1.2027.12662.1617.50064-.0384.72571-.3901Zm13.52.8206c.0301-.3699-.5106-.8611-1.6063-.8227-1.2425.1132-1.6043.8349-.957 1.2715.8264.5579 2.503.2648 2.5633-.4488Zm3.2509-.0283c-.0322-.3638-.6012-.8651-1.723-.7863-1.1298.1456-1.4194.8389-.8203 1.2695.8504.6125 2.6095.2769 2.5433-.4832Zm2.905-.3194c-.1005-.4022-.6735-.9156-1.6406-.7964-1.0192.2022-1.162.9601-.5307 1.4008.9187.6408 2.3783.2325 2.1713-.6044Zm2.3501-.3375c-.175-.4467-.7861-1.0006-1.6003-.8389-.9529.2871-.786 1.2755.0423 1.704.9086.471 1.8153.0324 1.5922-.7681-.0101-.0303-.0242-.0687-.0342-.097Zm1.4414-.382c-.205-.4003-.7297-.9642-1.2705-.7803-.6393.3275-.1951 1.512.6694 1.7828.6453.2042.955-.3112.6011-1.0025Zm-21.82892.6852c.2071-.3578.11872-.7863-.34367-.855-.68164-.0283-1.19418.8166-.88267 1.1987.26537.3234.95101.1293 1.22634-.3437Zm2.48482.2163c.185-.38.0181-.9399-.7759-.9965-1.0314.0081-1.59627.952-1.0735 1.423.4784.4325 1.5519.1859 1.8494-.4265Zm2.6699.1879c.1247-.3395-.1407-.8226-.9589-.8469-.9731.0384-1.4254.7479-.9891 1.1805.5025.4972 1.7228.287 1.948-.3336Zm3.2488.091c.0804-.3012-.2996-.7135-1.2163-.7074-1.0414.0626-1.4454.6407-.9771 1.0106.6072.477 2.0406.279 2.1934-.3032Zm14.0628-1.5827c-.187-.3133-.6012-.8591-.8163-.6771-.3196.4447.6453 1.7262 1.0072 1.621.185-.0525.1066-.4507-.1909-.9439Zm.4523.473c-.2795-.4952-.7017-1.1259-1.0273-1.5908l.016.0404c.3901.7823.8887 1.4857 1.0214 1.5929l.008-.0041-.0181-.0384ZM5.64729 20.9259c.17092-.5843.22118-1.1482.21305-1.2391-.01408.008-.01408.008-.04018.0848-.15078.5074-.3438 1.1846-.4624 1.7l-.00595.0324c-.00607.0505-.00607.0586-.00413.0788l.01615.004c.07235-.0687.19095-.3457.28346-.6609Zm.83023.4547c.14276-.4426.02415-.9479-.24317-1.0409-.45644-.0607-.68758 1.1865-.47647 1.4997.17687.2648.56692.0163.71964-.4588Zm15.30318 1.033c.0664-.5276-.605-1.0653-1.8013-1.0188-1.355.1333-1.7852.948-1.1721 1.4958.8565.7641 2.8588.4447 2.9734-.477Zm3.667-.1093c.0261-.4992-.6714-.9863-1.8435-.9014-1.3349.1717-1.7009.956-1.0535 1.4534.9007.6892 2.8508.3193 2.897-.552Zm3.2608-.3314c-.02-.4791-.577-1.0855-1.755-.9399-1.3349.2567-1.5862 1.2188-.7921 1.7241.9911.6286 2.5854.1396 2.5471-.7842Zm2.5553-.4387c-.0664-.5255-.5991-1.1784-1.5762-.9864-1.166.3376-1.2363 1.4917-.4021 1.991.9349.5599 2.1009-.0323 1.9783-1.0046Zm1.8254-.2849c-.1005-.4609-.5206-1.1138-1.2203-.9016-.955.4144-.6775 1.7444.203 2.0416.6775.2244 1.1902-.3498 1.0173-1.14Zm-24.86261.5518c.10258-.3174-.07842-.7155-.50052-.7802-.59508-.0264-.7881.7074-.51071 1.047.28151.3417.86652.186 1.01123-.2668Zm2.61961.4063c.1025-.3498-.187-.752-.782-.7965-.82031.0041-1.02741.7197-.63943 1.0855.42027.3942 1.27063.2224 1.42143-.289Zm3.3071.1819c.1065-.4245-.3438-.8955-1.1841-.9198-1.0495.0404-1.4173.8066-.8645 1.2775.6172.5256 1.8818.3053 2.0486-.3577Zm3.9223.1455c.0885-.4083-.4443-.9682-1.6707-.9602-1.361.0829-1.8113.8652-1.1439 1.3665.8323.6246 2.6477.3638 2.8146-.4063Zm15.6429-1.8293c-.0281-.1071-.2775-1.0329-.5851-.7884-.4161.4832.0603 1.88.4846 1.8658.2573-.0061.2332-.564.1005-1.0774Zm-.2312-1.0955-.0563-.1517.01.0303c.1086.3498.181.7115.2835 1.0632.0723.2527.1669.4994.2433.75-.1327-.5114-.3096-1.1946-.4805-1.6918Zm-18.6485-8.6312c1.0575-.3537 1.0575-.3537 1.0877-.3719v-.0041c-.2473-.0121-1.6667.4488-1.8757.6064l.004.0102c.0703-.0041.2673-.0668.784-.2406Zm.1488.1617c.1468-.0546.8845-.3315.9408-.4002l-.012-.0121c-.2996-.0203-1.9219.5114-1.8637.6711.0905.0404.5569-.1193.9349-.2588Zm.4965.1536c.2252-.101.8384-.3961.7118-.4386l-.0221-.004c-.4946-.0101-1.9261.5841-1.739.7236.0643.0465.396.0101 1.0493-.281Zm4.2279.281c.0121-.1577-.1246-.4629-.4925-.4487-.4202.0525-.7881.5093-.4965.7519.2894.2426.9589.093.989-.3032Zm1.2143-.0303c-.0925-.1941-.4262-.4488-.7619-.4245-.3921.0647-.4665.5013-.1246.7277.3859.2567.975.1172.9166-.2163-.0059-.0283-.0181-.0627-.0301-.0869Zm1.1982-.0768c-.197-.184-.6815-.4285-.9972-.3922-.3015.0708-.1467.4528.187.659.4323.2668 1.0152.2284.9489-.0627-.006-.0283-.0321-.1051-.1387-.2041Zm.9871-.1092c-.3197-.196-.8925-.3982-1.1217-.3557-.2052.0768.1829.4487.601.6428.5026.2324.9088.1879.8142-.0182-.016-.0384-.0784-.1375-.2935-.2689Zm.7157-.1354c-.39-.1799-1.0213-.3659-1.1761-.3174-.1327.1031.9188.6893 1.4495.7459.1991.0223.2694-.0343.177-.1435-.0704-.0829-.2353-.186-.4504-.285Zm.4262-.1536c-.4724-.1799-1.0896-.3275-1.16-.279-.006.0809.8082.4184 1.0656.5134.404.1496.7055.2143.7539.1618.0482-.0506-.185-.2143-.6595-.3962Zm-7.9672.3517c.2614-.1516.593-.4002.4685-.4488l-.0563-.008c-.4967.0101-1.6867.5477-1.522.7499.0925.1112.5871.0101 1.1098-.2931Zm1.0032.0909c.2091-.1758.386-.4426.1548-.4628l-.0382-.0021c-.5226.0283-1.4495.5559-1.2182.7742.1507.1415.7116.0162 1.1016-.3093Zm1.1499.0526c.1046-.1617.1568-.4629-.187-.4609-.5025.0425-1.1519.5579-.8604.7843.2212.1698.8223.0263 1.0474-.3234Zm5.9227-.6529c-.4423-.1476-.8846-.2466-.9852-.2365l-.0059.0101c.0884.0768 1.6585.6448 1.759.5801-.0019-.0606-.4-.2304-.7679-.3537Zm-.2152-.1617c-.4603-.1415-.8182-.2183-.9006-.2203l.012.0141c.0141.0061 1.7552.564 1.8557.57-.0221-.0404-.5629-.2405-.9671-.3638Zm-2.2335-.5235c-.3941-.0566-.7257-.0748-.7478-.0627.02.0041.0261.0041.0723.0101.5388.0384 1.0695.1132 1.5862.2203l-.0181-.006c-.0059 0-.4362-.097-.8926-.1617Zm-5.1044.1859c.4343-.0788.7177-.1192.9449-.1516.1709-.0242.177-.0262.1951-.0323v-.002c-.2473-.0263-1.6004.1859-1.9341.3214.0141.004.0141.004.7941-.1355Zm-.008.095c.3618-.0768.7318-.1132 1.0876-.2203v-.006c-.3257-.0122-1.7329.2263-1.9883.382v.0121c.0744.0081.2332-.0263.9007-.1678Zm.1929.093c.9469-.2466.9469-.2466.9631-.2567l-.0121-.0061c-.382 0-1.8716.3033-1.9219.4488.0482.0505.5266-.0687.9709-.186Zm3.0318.2042c-.0423-.1132-.2232-.3214-.384-.3093-.1991.0404-.4041.4002-.1408.568.2272.1455.5971.0303.5368-.2264l-.012-.0323Zm.7318-.0324c-.163-.1354-.5308-.3052-.6675-.289-.1307.0404-.0281.3618.2533.5195.2634.1475.581.1172.5488-.0506-.006-.0384-.0362-.099-.1346-.1799Zm.6554-.0566c-.2896-.1374-.7821-.2809-.8927-.2607-.0864.0465.4041.4184.8162.5377.2594.0768.4443.0485.39-.0587-.02-.0343-.0864-.1111-.3135-.2183Zm.5025-.0727c-.3919-.1294-.975-.2507-1.0454-.2284.0141.0525.7721.3618.967.4244.5529.1799.5911.093.5951.0809.0101-.0465-.1468-.1536-.5167-.2769Zm.3378-.0869c-.5047-.1294-1.0998-.2123-1.1278-.1901.1145.0728 1.7611.5741 1.8173.4589-.0322-.0728-.3699-.186-.6895-.2688Zm-4.8612.1293c.1648-.0566.7077-.2446.7599-.2809l-.004-.0081-.016-.0021c-.5208.0162-1.8597.4185-1.7049.5135.0262.0182.1749.0505.965-.2224Zm.5389.0647c.0059-.002.5085-.2486.5226-.3012l-.0341-.0081c-.4544.0304-1.5662.4387-1.3912.5579.0643.0405.3638.0122.9027-.2486Zm.6432.0425c.0845-.0688.3478-.3113.2292-.3194h-.0201c-.376.0384-1.2083.4487-1.0012.5841.1026.0667.4624-.002.7921-.2647Zm.7117.0181c.0321-.0727.0905-.3274-.0884-.3193-.2574.0384-.7861.4063-.589.576.1367.1193.5528.0223.6774-.2567Zm3.1262-.3476c-.5066-.1031-1.1037-.1739-1.1379-.1516.0141.006 1.8235.4507 1.9621.4103-.016-.0687-.5146-.194-.8242-.2587Zm-.0362-.093c-.4604-.0788-.9629-.1253-.9932-.1092.0162.0041 1.7874.3457 1.8536.3194-.0462-.0364-.4222-.1354-.8604-.2102Zm-.2312-.093c-.4142-.0627-.8021-.0889-.8625-.0788.0141.004 1.7411.2708 1.7712.2648l-.008-.0041c-.1086-.0364-.4925-.1213-.9007-.1819Zm-2.521-.1799c-.0121.0222-.0141.0465-.0221.0687l.004-.002c.0703-.0323.1306-.0525.2473-.0849.0421-.0121.0482-.0121.0543-.0162v-.002c-.004-.002-.2473-.0323-.2835.0364Zm-.181.002c.0885.0303.1327.0526.1569.0667v-.002c-.0021-.0263.008-.0505.004-.0748l-.0181-.0202c-.0463-.0182-.2272-.0141-.2393-.004.0021.004.0021.004.0965.0343Zm-.1729.0101c.1809.0223.2856.0465.3298.0566-.1569-.0626-.2694-.1071-.577-.0929-.0242.002-.0242.002-.0322.004.0061.002.0141.004.0904.0121.0423.0041.1127.0101.189.0202Zm-.1528.0162c.2554.0142.4142.0323.4826.0404-.1489-.0262-.5469-.099-.9509-.0626l-.0122.004c.1589.0162.3198.0081.4805.0182Zm-.1146.0182c.3097.004.5127.0162.5972.0222-.8022-.0788-1.2003-.0303-1.2445-.0242l-.004.002c.2171.0202.4343-.002.6513 0Zm-.0743.0222c.3457-.0081.5729-.002.6715 0-1.0033-.0505-1.4415.0223-1.4455.0223l-.0021.002c.0202.002.0644.002.2273-.0061.1527-.006.3417-.0141.5488-.0182Zm1.1921-.0424c-.1588.0081-.3196.0222-.5186.0424h.012c.4-.0262.7057-.0303 1.1299-.0262.1547.002.1669 0 .1869-.0021-.0643-.0161-.4281-.0343-.8102-.0141Zm-.1447-.0142c-.1427.0162-.2694.0384-.3759.0587l.01-.0021c.3237-.0384.587-.0525.9087-.0606.0904-.002.1005-.004.1186-.004-.0322-.0122-.3377-.0283-.6614.008Zm-.1669-.0101c-.0784.0182-.1487.0445-.209.0667l.006-.002c.183-.0384.3518-.0626.6011-.0829.0643-.006.0704-.006.0824-.008-.0101-.0041-.2673-.0223-.4805.0262Zm-.9067.089c.3619-.0202.5891-.0223.6997-.0223-1.1118-.0141-1.5461.0728-1.5501.0748.0101.0061.0946 0 .3377-.0182.1146-.0081.3097-.0222.5127-.0343Zm.0201.0242c.3539-.0323.573-.0424.6796-.0465-1.0816.0223-1.5199.1132-1.5501.1274.0221.004.0805 0 .364-.0303.1789-.0182.3337-.0344.5065-.0506Zm.0664.0243c.2251-.0324.4242-.0546.6112-.0708h-.0121c-1.1922.0688-1.4917.186-1.4917.186.0201.0081.0201.0081.8926-.1152Zm.6272.0424c-.002-.0384-.016-.0748-.016-.1132l-.0021.0021c-.0824.0586-.1748.1273-.207.1859-.0523.095.012.1173.0421.1213.0684.0101.1951-.0384.183-.1961Zm.181-.006c-.0563-.0364-.1146-.0667-.197-.1072v.0021c.0241.0545.0301.1152.0563.1677.008.0162.0281.0506.0683.0849.0724.0586.1849.0708.203.0202.0101-.0202.0121-.0727-.1306-.1677Zm.1769-.0101c-.1488-.0465-.3056-.0809-.3739-.0971l.004.0021c.1789.0727.3397.1839.5206.2506.1005.0364.2092.0485.1971.0101-.0041-.0242-.0865-.0849-.3478-.1657Zm.1467-.0162c-.201-.0384-.392-.0647-.5206-.0809l.008.0021c.1427.0283.2432.0525.5046.1253.2171.0606.5428.1536.5709.1172-.0221-.0384-.2532-.1051-.5629-.1637Zm.1066-.0202c-.1869-.0223-.392-.0425-.6252-.0607l.01.0021c.2895.0343.4845.0687.8303.1313.2854.0526.4885.089.5207.0728-.0603-.0424-.4162-.1071-.7358-.1455Zm.0623-.0223c-.2091-.0161-.4342-.0283-.6895-.0384h.012c.3619.0243.6192.0546 1.0615.1112.2775.0364.4262.0546.4705.0485-.0282-.0283-.4001-.0869-.8545-.1213Zm-1.1801.0506c.2453-.0526.3981-.0768.4926-.089l-.0121.0021c-1.0615.1091-1.2605.2284-1.2625.2304.018.0202.018.0202.782-.1435Zm.1488.0141c.1407-.0485.2412-.0788.3438-.1031l-.0081.0021c-.768.1293-.9549.2385-.961.2668.0383.0343.2594-.0405.6253-.1658Zm.1689.0081c.0683-.0485.1125-.0808.1729-.1112l-.0061.0021c-.6795.198-.5991.291-.597.291.004.0021.0944.0566.4302-.1819Zm.8785-.097c-.2191-.0101-.4423-.0142-.7056-.0142h.014c.4222.0122.7217.0344 1.2304.0809.2513.0222.3297.0283.38.0263-.0362-.0283-.4906-.0748-.9188-.093Zm-.0321-.0243c-.2071-.002-.4223 0-.6735.0101h.014c.3941-.002.7077.0081 1.2405.0384.2573.0142.3156.0182.3497.0142-.0261-.0182-.4382-.0566-.9307-.0627Zm.7921.0081c-.4805-.0283-.9691-.0283-1.4656.002h.012c.4705-.0202.8202-.0121 1.2284-.002.1829.0041.1949.0041.2212.002l.004-.002ZM10.4863 34.4325c-.3759-.4509-1.14591-.9157-1.29061-.8288-.17493.103.74174 1.0308 1.28861 1.2168.0242.0061.0563.0141.0804.0141.1548.0082.1227-.1616-.0784-.4021Zm9.4891.6447c.0784-.3435-.4745-.7014-1.4173-.6832-.967.0667-1.2345.4952-.8686.8409.5892.5538 2.1492.4467 2.2859-.1577Zm2.7101-.0687c.1748-.3497-.2816-.6893-1.2405-.6407-1.0856.1091-1.4716.6326-1.0152.9722.6151.4527 2.0043.1699 2.2557-.3315Zm2.6758-.1697c.2613-.3538-.0343-.6853-.969-.6004-1.13.1556-1.6446.7358-1.2063 1.0551.4926.3579 1.7732.0889 2.1753-.4547Zm2.2014-.2466c.3276-.3659.1829-.6328-.3297-.6065-.0624.004-.1449.0141-.2071.0243-1.0515.2102-1.6808.9035-1.2485 1.1662.38.2326 1.3309-.0787 1.7853-.584Zm1.5982-.3033c.3458-.3538.386-.6084.0965-.6084-.0703 0-.1548.0202-.211.0323-.8766.2608-1.6145 1.0795-1.2686 1.2553.2412.1233.9267-.2143 1.3831-.6792Zm.951-.3396c.3095-.3133.5547-.6246.406-.6185-.0321.002-.0845.0243-.1186.0384-.6434.3214-1.5038 1.2613-1.2907 1.3199.1186.0304.569-.3012 1.0033-.7398Zm-18.0032.7358c-.2593-.4124-1.1157-.754-1.3268-.5963-.2252.1678.4321.8025 1.0614.9197.4021.0486.3498-.19.2654-.3234Zm2.0948.192c-.0824-.2244-.5086-.4851-1.0132-.5135-.4985.0042-.4121.273-.2413.4428.4081.4022 1.2747.5033 1.2686.1455 0-.0242-.0061-.0545-.0141-.0748Zm2.7885.1576c-.0242-.301-.569-.6305-1.341-.6427-.7357.0283-.8564.3658-.5468.663.5729.5498 1.932.5336 1.8878-.0203Zm-3.7514 1.6171c-.5227-.3153-1.1821-.6245-1.2404-.5801.016.1051 1.0996.6954 1.5258.8308.0342.0101.0423.0101.0603.0101l.0061-.0121c-.0282-.0425-.1468-.1254-.3518-.2487Zm6.6765.4509c.0603-.2244-.3418-.4569-1.0393-.4468-.6776.0424-.8344.2971-.5911.5094.4141.3617 1.5258.3194 1.6304-.0626Zm1.9079-.0486c.1889-.2304-.0925-.4528-.8102-.4164-.7679.0708-1.0736.38-.8243.5983.3558.3134 1.361.1516 1.6345-.1819Zm1.8816-.1172c.2393-.1861.2052-.3416-.0883-.3921-.1548-.0264-.3318-.0102-.4263-.0021-.8846.1152-1.2946.5033-1.0835.6873.2593.2264 1.2022.0121 1.5981-.2931Zm1.5481-.1739c.3116-.1941.394-.3537.205-.3961-.0984-.0222-.2432-.0021-.3216.008-.8463.1577-1.4897.657-1.2685.7883.197.1153.9468-.1273 1.3851-.4002Zm1.1258-.2142c.3861-.2204.5709-.3962.4383-.4184-.0482-.0082-.1166.0081-.1849.0222-.7218.1981-1.5943.7843-1.4476.855.1006.0526.7158-.186 1.1942-.4588Zm.1367.0485.7318-.4023.0443-.0263c.2673-.1616.396-.2466.4322-.289l-.0081-.0081c-.0241.0061-.0342.0081-.0824.0283-.4644.2041-1.5037.8227-1.5882.9076.0563.008.4645-.2082.4704-.2102Zm-11.98.2648c-.3135-.2345-.9207-.5216-1.3569-.5761-.0624-.002-.2494-.0121-.1308.1314.2675.3214 1.6547.8772 1.6848.6751.008-.0465-.0644-.1313-.1971-.2304Zm1.5762.1415c-.1749-.1981-.7338-.4912-1.3308-.5276-.4946 0-.2715.2365-.2212.283.388.3679 1.6686.7318 1.6265.378-.0061-.0385-.0322-.0829-.0745-.1334Zm1.8053.0828c-.0743-.2243-.5829-.4729-1.2243-.4851-.595.0202-.5347.2466-.406.376.406.4144 1.6022.5438 1.6404.1798.0021-.0222-.0019-.0504-.0101-.0707Zm1.922 1.0531c.0361-.0707-.175-.1738-.577-.1698-.3216.0142-.3578.0911-.3035.1395.1346.1153.8081.1658.8805.0303Zm.9409-.0222c.1125-.0465.1287-.095.0463-.1273-.1026-.0404-.2916-.0324-.3539-.0303-.4222.0323-.5951.1475-.5227.2102.0985.0889.6293.0282.8303-.0526Zm.9308-.0607c.2111-.0545.3176-.1131.2634-.1415-.0483-.0282-.2132-.014-.2675-.01-.5065.0546-.8905.2203-.8846.2688.0503.0284.5711-.0344.8887-.1173Zm.7639-.0848c.1005-.0222.4363-.1011.4966-.1576l-.006-.0122c-.0322-.006-.0644-.0041-.1569.008-.4443.0708-1.2644.3134-1.2705.3154.1991-.0263.4644-.0646.6634-.097l.0463-.008c.0603-.0142.1407-.0284.2271-.0486Zm-5.2934.0486c-.3819-.0871-.7578-.2083-1.1459-.2608l-.0362-.0021c.0544.0688.8223.2143 1.0736.2608.1569.0263.3678.0586.5247.0829h-.004c-.1106-.0162-.2452-.0425-.4122-.0808Zm.7781.0707c-.4544-.1335-.7881-.2062-1.0173-.2224-.0684-.002-.0884.002-.0985.0162.0482.1152 1.2102.2931 1.337.2789-.0122-.0101-.0141-.0121-.2212-.0727Zm.8926.0404c-.1226-.0749-.4603-.184-.8262-.1921-.2193.0041-.1971.0486-.1649.0768.1346.1112 1.0594.2568 1.0414.1637l-.0503-.0484Zm1.7491-.3881c.1226-.1557-.1348-.3194-.6956-.3012-.581.0425-.6996.2365-.5629.3618.2713.2466 1.0795.1699 1.2585-.0606Zm1.4715-.0647c.185-.1153.179-.2183-.02-.2668-.1388-.0323-.3036-.0222-.4001-.0162-.6675.0687-.9671.3194-.8363.4488.1789.1759.9509.0222 1.2564-.1658Zm1.3128-.1132c.2715-.1233.368-.2304.2494-.2729-.0825-.0302-.2353-.0122-.3197-.004-.7237.1071-1.2444.4326-1.1399.5275.1085.095.8021-.0666 1.2102-.2506Zm1.0093-.1476c.3497-.1394.5508-.2648.4784-.2951-.0362-.0161-.1427.0021-.1949.0121-.5831.1233-1.3551.4872-1.4114.5822l.008.0121c.1106.0243.7238-.1536 1.1199-.3113Zm-1.9562.568c.4262-.0828.5549-.1091 1.0474-.2303l.0141-.0042c.0986-.0262.205-.0586.2433-.0768-.008-.004-.0101-.004-.0865.0121-.41.0911-.8101.2104-1.2183.2992Zm2.6316-.7417c.2996-.1173.6454-.2669.6937-.3174-.0141-.0061-.0182-.0081-.1006.0161-.4162.1315-1.5923.6307-1.6264.6489.0522.004.3237-.091.9168-.3012l.028-.0102c.0263-.0121.0624-.0262.0885-.0362Zm-9.7504.2606c-.1507-.0626-.9208-.3839-1.2705-.4467-.0382-.004-.0443-.004-.0584.0021.0603.1475 1.5601.6347 1.7129.6307-.0101-.0182-.0201-.0324-.384-.1861Zm1.0796.1275c-.2654-.1436-.8243-.364-1.2324-.4003-.0603-.002-.199-.006-.1247.0768.1871.2042 1.5883.6327 1.5602.477-.0041-.0302-.0784-.0849-.2031-.1535Zm1.2907.0848c-.1488-.1395-.6192-.3416-1.1158-.3618-.3317.004-.2714.1091-.2312.1537.193.2101 1.3912.5457 1.4093.3132.004-.0384-.0422-.0869-.0623-.1051Zm1.4253.0385c-.024-.1537-.4121-.3255-.9328-.3276-.4362.0182-.4885.1537-.3518.2709.3438.2972 1.3289.3397 1.2846.0567Zm-10.45401-4.922c-.32766-.4973-.93281-1.0006-1.04741-.9602-.1407.0505.6735 1.1886 1.09766 1.4088l.03217.0122c.14872.0424.11059-.1677-.08242-.4608Zm12.85451.8792c.1247-.3982-.4483-.8005-1.5018-.762-1.1338.097-1.5058.6529-1.0594 1.0471.6513.574 2.3521.386 2.5612-.2851Zm3.098-.1354c.2051-.4022-.2393-.7903-1.3128-.7135-1.2002.1455-1.6767.762-1.2103 1.144.5951.4851 2.1974.2123 2.5231-.4305Zm2.7683-.2406c.2272-.3537.0865-.7984-.9449-.6771-1.164.2001-1.7329.8894-1.2926 1.2391.5106.4062 1.8273.0748 2.2375-.562Zm2.125-.3112c.3317-.4568.1508-.7601-.4041-.6772-.0302.0041-.0704.0121-.1005.0182-1.0173.2567-1.6304 1.0613-1.2162 1.3583.3718.2689 1.2906-.105 1.7208-.6993Zm1.4254-.3618c.3358-.4448.3598-.7338.0563-.6874-.0403.0061-.0905.0224-.1307.0345-.8263.3254-1.5058 1.328-1.1219 1.4654.2433.087.8022-.2931 1.1963-.8125Zm-20.6851.5761c-.1386-.2709-.57283-.6206-.97501-.6853-.39199-.0262-.18695.3315-.02404.5235.39199.4629.99905.6772 1.04745.3699.012-.0788-.0303-.1718-.0484-.2081Zm2.0125.1656c-.0804-.2466-.4926-.5376-.9791-.576-.4845-.004-.4061.3093-.2011.5235.4484.4649 1.1963.4912 1.1942.1354 0-.0262-.0059-.0586-.014-.0829Zm2.8327.2144c-.0363-.3032-.5489-.6429-1.2585-.6671-.7641.0202-.7459.4326-.4424.7115.6212.566 1.7571.4406 1.7009-.0444Zm3.2327.1132c.0382-.378-.573-.7803-1.542-.7783-1.0775.0607-1.174.5761-.8304.9096.6434.6227 2.3061.5296 2.3724-.1313Zm13.0675-1.1865.3941-.5357.0302-.0445c.1809-.2648.2351-.3659.2211-.4003-.0201-.004-.0302 0-.0884.0405-.585.4609-1.2747 1.5281-1.1038 1.516.1166-.006.5428-.5701.5468-.576Zm-20.1461 2.9652c-.4363-.3496-.9831-.7034-1.1078-.7377l-.0101.008c.0101.0182.0362.0647.376.3295l.5368.4002c.3538.2507.4664.3052.5087.3275.0361.0141.0361.0141.0502.0061-.0201-.0627-.2554-.2547-.3538-.3336Zm9.869.6732c.1267-.2891-.3035-.5782-1.1459-.5519-.9067.0727-1.1821.465-.8142.752.5488.4285 1.7712.2324 1.9601-.2001Zm2.3784-.1051c.2391-.2952-.0664-.5742-.9048-.5156-.9469.1093-1.3832.5519-1.0615.8248.4283.3659 1.6225.1172 1.9663-.3092Zm2.1249-.182c.3036-.2789.201-.4993-.2352-.5113-.1066-.0021-.2171.01-.2956.018-.977.1578-1.568.6914-1.2324.9319.3499.2506 1.3329-.0424 1.7632-.4386Zm1.6304-.2406c.3378-.2707.4021-.4811.1569-.5114-.0925-.0101-.1871.0061-.2795.0243-.8585.2022-1.5963.8348-1.3309 1.0208.2232.1577.9992-.1678 1.4535-.5337Zm1.0937-.2789c.3699-.283.5488-.4992.4342-.5235-.0422-.0101-.1085.0101-.1709.0303-.7237.2628-1.5721 1.0046-1.4173 1.0955.1066.0628.6655-.2284 1.154-.6023Zm-15.8219.4103c-.4382-.4204-1.2826-.7883-1.4234-.6711-.1548.1315.7902.849 1.4034.9945.0261.0041.0622.0101.0904.0101.1669.0041.1388-.1334-.0704-.3335Zm1.735.2102c-.3237-.4346-1.3509-.766-1.6164-.5922-.2774.1819.5168.8147 1.3108.9278.585.0465.3177-.3214.3056-.3356Zm1.9783.1214c-.0865-.2365-.581-.5034-1.1801-.5256-.5207.0101-.5388.2304-.3358.4306.4483.4406 1.5199.5618 1.5299.1718 0-.0223-.006-.0546-.014-.0768Zm2.4787.0829c.0101-.2851-.5206-.5924-1.3248-.5924-.776.0404-.9207.3639-.6091.6408.5608.5013 1.9159.467 1.9339-.0484Zm9.3444-.5216c.4443-.3254 1.0293-.7721 1.4536-1.1259l.0141-.0141.0059-.0081c-.0141.004-.0141.004-.0583.0323-.4825.3274-1.4233 1.0734-1.4797 1.1522.0122-.0021.0202-.004.0644-.0364ZM6.93591 29.5125c-.12868-.4508-.53475-.9965-.82016-1.1016-.35787-.0607.09239 1.0288.36783 1.4027.24935.3376.44431.3094.48656.085.01408-.0708.02003-.1941-.03423-.3861Zm14.84079 1.0228c.1005-.4225-.4503-.9823-1.743-.9339-1.3611.1253-1.7731.8632-1.1419 1.3564.8323.6508 2.6939.3799 2.8849-.4225Zm3.5766-.1577c.1587-.4891-.4142-.9621-1.6164-.8752-1.3611.1739-1.8395.9277-1.2646 1.3987.758.6246 2.6175.2871 2.881-.5235Zm3.1964-.2749c.1609-.4264-.1306-.9642-1.2806-.8267-1.3108.2365-1.8153 1.0754-1.2202 1.5059.7076.5134 2.2054.1071 2.5008-.6792Zm2.4548-.3598c.1729-.4305.024-.9642-.8484-.7964-1.1359.3012-1.5923 1.2755-.9911 1.6373.5548.3336 1.5519-.1213 1.8395-.8409Zm1.747-.4325c.193-.4852.2271-1.1279-.4664-.9056-.9992.4245-1.4858 1.7303-.9269 2.0072.4102.2042 1.0877-.3315 1.3933-1.1016Zm-23.95994.7054c-.05632-.2991-.41214-.6772-.83229-.7418-.47453-.0263-.36989.4992-.05232.8408.39405.4266.8766.3659.89263.004.00206-.0302-.00195-.0727-.00802-.103Zm2.58734.1091c-.0543-.6366-1.2706-1.1541-1.75711-.7478-.41007.3415.08049 1.1279.96501 1.2613.6655.0505.8102-.3134.7921-.5135Zm3.088.3194c.01-.4042-.5689-.857-1.4475-.8833-.9912.0324-1.0675.6347-.6836 1.0188.7118.7115 2.1131.5053 2.1311-.1355Zm3.6147.1132c.0543-.3981-.5027-.948-1.6887-.9419-1.1601.0728-1.4917.7054-.9931 1.1825.7458.7115 2.5753.5478 2.6818-.2406Zm15.3394-1.6898c.1005-.2709.3115-.8935.1205-.8187-.022.0081-.0462.0284-.0662.0425-.585.5235-.9148 1.8071-.6494 1.7909.1387-.0081.3678-.3962.5951-1.0147ZM7.11084 31.0043c-.23515-.467-.65736-1.0471-.73384-1.0653 0 .0161.00206.0303.03629.1011.15478.3193.38799.7337.55479 1.047l.13875.2305c.08243.1334.11059.1637.13669.192.0221.0182.02611.0201.04019.0182.03617-.0546-.06434-.3093-.17287-.5235Zm1.31083.4911c-.13669-.3456-.55296-.7297-.87053-.8045-.35582-.0383-.08243.4973.13463.7783.39806.5133.74586.5174.77803.2708.01213-.093-.0261-.2021-.04213-.2446Zm11.49343.7054c.0824-.4163-.5328-.8469-1.5802-.8267-1.1238.0829-1.4575.661-.9871 1.0835.6996.6266 2.4266.4547 2.5673-.2568Zm3.4036-.0768c.1528-.4486-.4423-.8873-1.5742-.8267-1.2987.1375-1.735.8187-1.168 1.2593.7298.5619 2.4969.285 2.7422-.4326Zm3.2649-.2062c.1789-.39-.1226-.8873-1.347-.7741-1.3188.192-1.8355.952-1.2404 1.3583.6916.475 2.2637.1193 2.5874-.5842Zm2.6838-.3011c.2092-.3962.0624-.8873-.9126-.7439-1.1922.2507-1.727 1.0795-1.1902 1.4494.5589.384 1.7369-.0122 2.1028-.7055Zm1.9501-.3699c.2091-.374.2654-.9015-.4704-.7257-.987.3134-1.5219 1.2776-1.0454 1.5606.3839.2263 1.164-.2022 1.5158-.8349Zm1.1601-.4144c.2251-.4083.3457-.8187.0764-.76-.0322.0081-.0724.0263-.1026.0384-.7278.3982-1.2846 1.5746-.9047 1.6474.2372.0465.6595-.4345.9309-.9258Zm-22.0903.8409c-.0704-.2648-.46241-.5943-.91073-.6468-.47648-.0142-.38798.382-.1146.661.43424.4467 1.03543.4304 1.03733.0768 0-.0284-.0059-.0647-.012-.091Zm2.6838.2931c-.0341-.285-.4704-.6125-1.0674-.6448-.6655.008-.6414.4265-.3318.7095.5589.5114 1.4515.3861 1.3992-.0647Zm3.47.2001c.0161-.4083-.6192-.855-1.5902-.8692-1.1018.0486-1.1741.6569-.7399 1.039.7339.6448 2.3019.5296 2.3301-.1698Zm16.1194-1.3927c.1729-.3437.4122-.7984.5689-1.1501l-.0019.004-.0242.0404c-.384.6347-.8504 1.4412-.8846 1.6778.0201-.0102.3377-.5681.3418-.5721ZM5.79405 27.384c-.0925-.5599-.37596-1.1401-.48048-1.1987-.09445-.0525-.03824.2851.03617.659l.01603.0809.0403.1899c.13269.5923.20905.7722.28541.8591l.02014.0162c.09251.0445.14872-.2082.08243-.6064Zm1.32079.378c-.02816-.3092-.30349-.7115-.62919-.7863-.41615-.0364-.23927.7136.02404 1.0147.27144.3093.57699.194.60515-.1213.00206-.0324.00206-.0747 0-.1071Zm12.90476.9501c.0805-.4549-.5086-1.0674-1.8274-1.0391-1.3832.1112-1.7873.9016-1.1339 1.4454.8684.7235 2.8065.4568 2.9613-.4063Zm3.6489-.0931c.1045-.4568-.4584-1.0511-1.7852-.9783-1.4133.1597-1.8637.9622-1.2264 1.4837.8424.6913 2.8125.3618 3.0116-.5054Zm3.6006-.2284c.1186-.4547-.3076-1.041-1.6244-.9156-1.4294.2204-1.8897 1.1138-1.1761 1.5948.8544.5801 2.5814.1617 2.8005-.6792Zm2.9593-.3314c.1207-.4589-.1769-1.033-1.2223-.8733-1.2545.279-1.6666 1.2614-.9892 1.6899.7359.4649 1.9964 0 2.2115-.8166Zm2.328-.4225c.1308-.5134-.012-1.2391-.9488-1.0107-1.2203.4144-1.5963 1.7687-.8424 2.1588.6433.3315 1.5641-.2588 1.7912-1.1481Zm1.1037-.4427c.0865-.3801.1268-1.045-.3437-.8308-.7499.4507-.9529 1.8011-.4444 1.892.2936.0525.6394-.4143.7881-1.0612ZM9.32631 28.2087c-.00606-.3174-.36394-.7095-.86652-.7641-.59302-.0121-.58901.5518-.27132.8976.45827.4992 1.14792.3395 1.13784-.1335Zm3.01559.2729c.0181-.3881-.4664-.8287-1.2183-.8672-.8866.0182-.9589.6368-.573 1.0289.6152.6246 1.7612.4245 1.7913-.1617Zm3.6549.1738c.0462-.3921-.4644-.942-1.5399-.954-1.1942.0606-1.335.7822-.8445 1.2209.7158.6387 2.3.4628 2.3844-.2669Zm18.0614-2.0881.1045-.6791.0021-.0142v-.0343c-.0141.004-.0141.004-.0382.0465-.3216.6832-.5046 1.8697-.3739 1.9082.0803-.0486.3036-1.2149.3055-1.2271ZM5.52868 23.2848c.07029-.4528-.02415-.9562-.14883-1.0491-.03411-.0101-.12661-.0384-.20504.6225-.02816.2345-.08036.7944.02015.948.08838.1355.25129-.0889.32159-.4467.00412-.0202.01007-.0505.01213-.0747Zm1.38513.4446c.07636-.4042-.13463-.9237-.56085-1.0188-.57299-.0464-.66343.9845-.35181 1.3927.28346.37.81215.1537.91266-.3739Zm13.08579.7924c.0884-.5134-.581-1.0511-1.8155-1.0228-1.3811.1092-1.8274.8955-1.2102 1.4391.8384.7419 2.8748.4609 3.0257-.4163Zm3.695-.0708c.0704-.5053-.6212-1.0106-1.8616-.946-1.3992.1497-1.8254.9339-1.1821 1.4473.9006.7156 2.9191.3821 3.0437-.5013Zm3.6469-.3011c.0402-.471-.4885-1.0794-1.7872-.9541-1.4033.2223-1.7611 1.1623-.9931 1.6757.9629.6448 2.7039.192 2.7803-.7216Zm3.1463-.3457c.014-.5255-.4825-1.1845-1.6245-1.0086-1.3871.3194-1.6284 1.4452-.7457 1.9688.9488.5639 2.3461-.0021 2.3702-.9602Zm2.1632-.4185c-.0141-.4972-.364-1.2066-1.2404-.9883-1.14.4043-1.162 1.7323-.2856 2.1406.754.3517 1.5521-.2507 1.526-1.1523Zm1.2082-.4588c-.0342-.4164-.2292-1.142-.7277-.9096-.752.4892-.5188 1.9991.1327 2.1124.4321.0747.6453-.566.595-1.2028ZM9.0227 24.0084c.07041-.3437-.20504-.75-.72777-.8046-.68953-.0121-.81614.6954-.46434 1.0634.37791.3981 1.0916.2424 1.19211-.2588Zm3.0458.3497c.0784-.3861-.3196-.8248-1.0354-.8611-.9348.0202-1.09968.7539-.6613 1.1522.5307.485 1.5781.3031 1.6967-.2911Zm3.9042.1111c.0905-.4608-.4905-.9602-1.5017-.9722-1.2003.0606-1.5823.8227-.9791 1.328.7337.6165 2.336.3861 2.4808-.3558Zm18.2544-1.4109c-.0362-.3598-.0905-.8388-.1508-1.1946l-.004-.0202c-.0242-.1354-.0623-.3376-.1186-.2465l-.012.0262c-.2252.6589.0925 2.0597.2532 1.9446.0765-.0546.0322-.5055.0322-.5095ZM5.215 25.1545c-.01603-.4467-.1146-.8854-.12261-1.3341l-.00401.4386c.02209.475.05026 1.1097.10052 1.5828v.0019c.02209-.0302.03823-.3436.0261-.6892Zm1.02932.4528c.00812-.5034-.26332-1.0795-.56086-1.1846-.45037-.0606-.28746 1.2755-.03217 1.6454.23126.3336.51666.1132.57906-.2951.00801-.0505.01397-.1152.01397-.1657Zm15.63098 1.0854c.0824-.4811-.5148-1.1198-1.8536-1.0672-1.4898.1474-1.7974 1.045-1.2083 1.5503.8705.7519 2.903.4306 3.0619-.4831Zm3.7855-.1677c.0824-.467-.4343-1.1077-1.8074-1.0027-1.379.188-1.8536 1.0592-1.2142 1.597.8523.7174 2.8567.3234 3.0216-.5943Zm3.3835-.2932c.0764-.4811-.3499-1.0935-1.5359-.9479-1.3571.2587-1.7471 1.2108-1.0374 1.708.8665.6084 2.4305.1455 2.5733-.7601Zm2.7563-.39c.0724-.5519-.2876-1.2372-1.3108-1.037-1.3008.3679-1.5923 1.6434-.7539 2.1123.8062.4467 1.944-.1455 2.0647-1.0753Zm1.7189-.4509c.0542-.5518-.1307-1.2835-.8584-1.0429-1.0254.4689-1.1561 1.9667-.4102 2.2962.5649.2486 1.1821-.3599 1.2686-1.2533Zm-25.72909.7339c.02003-.3113-.23927-.6994-.64534-.7601-.52273-.0222-.53887.6266-.2332.9702.32364.3659.84832.2406.87854-.2101Zm2.62749.1415c.0342-.3316-.3055-.7157-.86846-.7561-.71769.0061-.77997.6307-.40813.9763.43835.4063 1.22639.2709 1.27659-.2202Zm3.7253.3274c.0543-.4023-.4021-.9723-1.4012-1.0006-1.154.0465-1.3007.849-.7801 1.3098.6956.6145 2.0828.4184 2.1813-.3092Zm3.7997.1193c.0704-.4488-.4765-1.0653-1.6888-1.0573-1.3289.091-1.5962.9218-1.0675 1.415.7921.7358 2.6215.4993 2.7563-.3577Zm16.2601-1.7869c.0161-.2648.0402-1.1077-.2714-.8672-.5127.5256-.4986 1.9991-.1045 1.989.2151-.006.3438-.568.3759-1.1218Z"/>
  	<linearGradient id="a" x1="1.98635" x2="36.2944" y1="33.6844" y2="33.6844" gradientUnits="userSpaceOnUse">
  		<stop stop-color="#47B547"/>
  		<stop offset="1" stop-color="#FFDA5A"/>
  	</linearGradient>
</svg>