<svg xmlns="http://www.w3.org/2000/svg" viewBox="0 0 200 50">
	<path fill="#C8102E" d="M18.0163 16.8076h5.3075v5.8721h-6.098l.7905-5.8721Zm5.3074 17.7295c-.7904-.3388-1.6938-.9034-2.7102-1.581-1.5809-1.1292-2.5972-2.5972-3.1619-4.0653h5.8721v5.6463Z"/>
	<path fill="#1E1A34" d="M30.777 24.4865h8.0177v-7.6789h3.049V34.424h-3.049v-7.3402H30.777v7.3402h-2.9361V16.8076h2.9361v7.6789ZM17 26.2927v-1.6939h6.4367V27.1961H17v-.9034ZM127.328 21.8884c.565-.2258 1.355-.3387 2.259-.3387 4.065 0 6.775 2.7102 6.888 6.6626 0 3.8394-2.823 6.6625-7.001 6.6625-4.404 0-7.115-3.1619-7.115-8.1306 0-1.9197.226-3.5007.678-5.0816.79-2.8231 2.484-4.6299 6.211-5.4204L135.459 15v2.5973l-7.002 1.3551c-1.581.3388-2.597 1.6939-3.049 3.8394l1.92-.9034Zm-2.371 5.3075c0 2.8232 1.355 5.3075 4.517 5.3075 2.371 0 4.178-1.468 4.065-4.4041 0-2.7102-1.807-4.2911-4.291-4.2911-.452 0-.904.1129-1.242.2258l-3.049 1.581v1.5809Zm-73.289-6.5496c-4.517 0-7.3401 3.1619-7.3401 7.1143 0 3.9523 2.7102 7.1142 7.3401 7.1142 4.517 0 7.3402-3.1619 7.3402-7.1142 0-3.8395-2.7102-7.1143-7.3402-7.1143Zm0 11.8571c-2.7102 0-4.517-1.9197-4.517-4.7428 0-2.8232 1.9197-4.7429 4.517-4.7429 2.7102 0 4.517 1.8068 4.517 4.7429 0 2.936-1.8068 4.7428-4.517 4.7428Zm93.954-11.8571c2.146 0 3.839 1.0163 4.743 2.3714V21.098h2.484v13.3251h-2.484v-1.9197c-.904 1.3551-2.597 2.3714-4.743 2.3714-4.517 0-6.889-3.2748-6.889-7.1142 0-3.8395 2.372-7.1143 6.889-7.1143Zm.226 11.8571c2.597 0 4.291-1.6939 4.291-4.517v-.4517c0-2.8231-1.694-4.517-4.291-4.517-2.71 0-4.517 1.9197-4.517 4.7429 0 2.8231 1.807 4.7428 4.517 4.7428Zm-78.0316-11.405h-6.2109v13.3252h2.5973v-3.2748h3.6136c3.6136 0 5.8721-1.9198 5.8721-5.0817-.1129-3.049-2.2585-4.9687-5.8721-4.9687Zm-.1129 7.6789h-3.5007v-5.3075h3.5007c1.9197 0 3.1619.9034 3.1619 2.5973 0 1.8068-1.2422 2.7102-3.1619 2.7102Zm97.4545-2.3714h-6.437v-5.3075h-2.71v13.3252h2.71v-5.6463h6.437v5.6463h2.597V21.0984h-2.597v5.3075Zm-53.301 1.2422 5.082-6.5497h-3.049l-4.065 5.1946-1.807.6775v-5.8721h-2.71v13.3252h2.71v-4.8558l1.581-.5646 4.404 5.4204h3.275l-5.421-6.7755Zm70.804-6.5497-5.081 6.5497 5.42 6.7755h-3.275l-4.404-5.4204-1.694.5646v4.8558h-2.597V21.0984h2.597v5.8721l1.92-.6775 4.065-5.1946h3.049Zm-89.5494 9.034h-.1129v-9.034h-2.5973v13.3252h2.2585l6.7756-8.9211v8.9211h2.7105V21.0984h-2.3718l-6.6626 9.034Zm-5.6462-5.4204c0 1.2422-.9034 2.3714-2.0326 2.8231 1.5809.4517 2.3714 1.6939 2.4843 3.049 0 2.3715-1.5809 3.8395-4.7428 3.8395H76.06V21.0984h7.0014c3.0489 0 4.404 1.6939 4.404 3.6136Zm-4.517-1.2422h-4.2911v3.1619h4.1782c1.1293 0 1.8068-.6775 1.8068-1.5809s-.5646-1.581-1.6939-1.581Zm-4.4041 8.6953h4.5171c1.0163 0 2.0326-.5646 1.9197-1.6939 0-1.0163-.7905-1.6939-2.1456-1.6939h-4.2912v3.3878Z"/>
</svg>