<svg xmlns="http://www.w3.org/2000/svg" viewBox="0 0 200 50">
	<path fill="#0DB14B" d="M40.1663 15.905v8.6618h-8.5831V15.905h-8.5697v25.9992h8.5697v-8.6755h8.5831v8.6755h8.5697V15.905h-8.5697Zm-8.5831-6.50682c0-.85842-.2521-1.69768-.7242-2.41119-.4722-.71368-1.1433-1.26975-1.9282-1.59752-.785-.32794-1.6486-.41302-2.4814-.24456-.8329.16846-1.5975.58284-2.1972 1.19093-.5996.6081-1.0073 1.38228-1.1714 2.2246-.164.84231-.0771 1.71496.2498 2.50726.3269.7923.879 1.4689 1.5865 1.944.7076.4748 1.5386.727 2.388.7243.5629 0 1.1203-.1123 1.6402-.3305.52-.2181.9922-.5379 1.3896-.9408.3975-.403.7123-.8812.9265-1.4075.2142-.5262.3235-1.08991.3218-1.65902Zm17.1528 0c-.0002-.85672-.2512-1.69429-.7215-2.40696-.4704-.71283-1.1391-1.26872-1.9218-1.59785-.7825-.32913-1.644-.41658-2.4757-.25151-.8318.16524-1.5966.57572-2.1977 1.17958-.6013.60403-1.0121 1.37431-1.1808 2.21391-.1687.83961-.0875 1.71095.2333 2.50405.3206.7932.8665 1.4725 1.5687 1.9523.7021.4799 1.5292.7389 2.3768.7443.5659.0036 1.1268-.1059 1.6506-.3223.5238-.2165 1-.5354 1.4014-.9384.4015-.4032.72-.8827.9374-1.4108.2173-.5279.3293-1.09433.3293-1.66632Z"/>
	<path fill="#303E50" d="M65.7093 8.41217H63.27V5.89798h4.0883V5h-4.9042v8.5483h3.2552c.6515 0 1.2763-.2705 1.737-.7521.4606-.4816.7194-1.1348.7194-1.8159s-.2588-1.33434-.7194-1.81596c-.4607-.48162-1.0855-.75217-1.737-.75217Zm0 4.32803H63.27V9.31004h2.4393c.4351 0 .8523.18073 1.16.50237.3076.32159.4805.75789.4805 1.21269 0 .4549-.1729.8912-.4805 1.2127-.3077.3216-.7249.5024-1.16.5024Zm14.3137-2.5861h-3.1177V7.73866h-.8159v5.85454h.8159v-2.5861h3.1177v2.5861h.8161V7.73866h-.8161v2.41544Zm-7.9815-2.54998c-.7367.02309-1.4588.21956-2.1128.57466l.395.74525c.5328-.28583 1.1193-.44525 1.7178-.4669.1811-.00848.3617.02366.5299.09428.1682.0705.3199.17783.4452.31472.1253.13688.2211.30021.2811.47905.0599.17873.0826.36894.0665.5576v.29632c-.5959-.1483-1.2096-.20272-1.8209-.1617-.4991.0173-.9738.23-1.3301.5959-.3564.3658-.5682.8581-.5938 1.3796-.0035.2262.0364.4509.1176.6608.0811.2097.2018.4004.3548.5604.1893.1892.4131.3368.658.4339.2449.0972.5061.142.7677.1318.6704-.0283 1.3144-.28 1.8382-.7184v.5299h.8159V9.90278c.0167-.30033-.0264-.60111-.1266-.88314-.1002-.28204-.2553-.53919-.4555-.75529-.2003-.2161-.4413-.38634-.7078-.50003-.2664-.11368-.5525-.16823-.8402-.1602Zm-.5582 5.34268c-.1561.0104-.3125-.0122-.46-.0662-.1476-.054-.2832-.1383-.399-.2481-.0762-.0801-.1359-.1755-.1757-.2805-.0399-.1049-.059-.2173-.0562-.3301 0-.7274.6356-1.0596 1.2197-1.1315.5779-.0322 1.1573.0284 1.7177.1797v.7274c-.2014.3281-.4731.6027-.7936.8022-.3206.1995-.681.3183-1.0529.3471Zm15.147.6464h1.0135l-2.4479-3.43 2.2589-2.42454h-1.1423l-2.7743 2.98124V7.73866h-.8159v5.85454h.8159V11.95l1.0823-1.1673 2.0098 2.8105ZM66.443 35.6247c.5883.001 1.1531.2408 1.5791.6696l1.0765-1.2002c-.7149-.7224-1.6669-1.1244-2.6556-1.1219-.523-.0255-1.0449.0615-1.5352.2556-.4903.1941-.9387.4914-1.3166.8739-.379.3825-.6803.8422-.8866 1.3515-.2053.5092-.3115 1.0572-.3115 1.611 0 .5539.1062 1.102.3115 1.6112.2063.5091.5076.9689.8866 1.3514.3779.3825.8263.6798 1.3166.8739.4903.1941 1.0122.2811 1.5352.2556.9887.0026 1.9407-.3994 2.6556-1.122l-1.0765-1.2002c-.4239.432-.9898.6724-1.5791.6698-.3136.0197-.6292-.0286-.9254-.1422-.2952-.1136-.5669-.2901-.7957-.5186-.2298-.2284-.4127-.5041-.5373-.81-.1246-.3059-.1889-.6356-.1889-.9689 0-.3331.0643-.6629.1889-.9687.1246-.3059.3075-.5817.5373-.8101.2288-.2285.5005-.405.7957-.5186.2962-.1136.6118-.162.9254-.1421Zm26.8969 1.6002h-3.577v-3.0701H88.193v7.8014h1.5699v-3.0788h3.577v3.0788h1.5617v-7.8014h-1.5617v3.0701Zm-22.4224-1.4176h2.3921v6.1489h1.5699v-6.1489h2.4014v-1.6525h-6.3634v1.6525Zm61.3385-1.6525h-6.363v1.6525h2.401v6.1489h1.562v-6.1489h2.4v-1.6525Zm-27.759 0h-5.319l-.0654.748s-.2635 2.7831-.5097 4.3486c-.1399.8697-.6087 1.0958-.9703 1.0958h-.5424v2.9657h1.5617v-1.348h5.0801v1.3133h1.562v-2.9658h-.821l.024-6.1576Zm-4.349 5.3401c.173-1.0958.354-2.7396.445-3.6876h2.342v4.5051h-3.0165c.1065-.2621.1835-.5364.2295-.8175Zm20.392-5.5141c-.845.0113-1.663.317-2.327.8698v-.661h-1.561v10.8106h1.561v-3.6963c.662.557 1.481.8632 2.327.8697.523.0256 1.045-.0614 1.535-.2556.491-.1941.939-.4913 1.317-.8738.379-.3826.68-.8423.887-1.3515.205-.5092.311-1.0573.311-1.6111 0-.5539-.106-1.102-.311-1.6111-.207-.5092-.508-.969-.887-1.3514-.378-.3825-.826-.6798-1.317-.874-.49-.1942-1.012-.281-1.535-.2555v-.0088Zm0 6.5317c-.455-.0017-.9-.1461-1.277-.4147-.378-.2685-.671-.6496-.844-1.0947-.173-.445-.217-.9344-.128-1.4062.09-.4719.311-.905.632-1.2446.323-.3398.733-.5708 1.179-.6641.446-.0932.909-.0445 1.329.1401.42.1846.779.4966 1.031.8969.253.4003.388.8708.388 1.352-.002.6467-.247 1.2661-.68 1.7226-.433.4564-1.019.7127-1.63.7127Zm-9.793-6.5577c-.98.033-1.94.2975-2.812.774l.757 1.4524c.635-.3428 1.334-.5356 2.047-.5652.194-.0113.387.0221.568.098.18.0758.343.1922.477.3411.134.1488.235.3267.297.5212s.084.401.063.6051v.0522c-.645-.1506-1.304-.2293-1.965-.2348-.342-.0273-.686.0178-1.012.1323-.327.1146-.628.2965-.887.535-.259.2387-.471.5293-.624.8552-.152.3258-.242.6804-.263 1.0432 0 .35.066.6966.195 1.019.129.3223.319.6139.556.8573.238.2435.52.4339.828.5598.309.1259.638.1846.969.173.79-.0196 1.559-.2727 2.22-.7305v.4783h1.57v-4.74c.022-.4238-.04-.8479-.181-1.2453-.141-.3973-.36-.7592-.639-1.0626-.281-.3034-.618-.5418-.991-.6999-.372-.1582-.772-.2328-1.173-.2188Zm-.822 6.6185c-.131.0139-.264-.0023-.388-.0473-.125-.0449-.239-.1177-.335-.2133-.096-.0956-.171-.2119-.221-.341-.05-.129-.072-.268-.067-.4072.049-.6001.674-.9393 1.332-.9393.64.0151 1.277.1085 1.898.2783v.6349c-.277.3358-.622.6027-1.009.7815-.386.179-.805.2654-1.226.2534h.016Zm-27.5537-6.6011c-.9806.0286-1.9428.2932-2.812.774l.764 1.4438c.6364-.3429 1.335-.5358 2.048-.5654.193-.0112.3871.0223.5679.0981.1797.0758.3432.1921.4759.341.1339.149.236.3268.2983.5212.0623.1945.0837.401.0633.6052v.0522c-.6455-.1474-1.3043-.2232-1.9652-.2261-.3473-.0308-.6966.0129-1.0275.1286-.332.1157-.6374.3009-.8989.5445-.2614.2436-.4749.5407-.6251.8734-.1501.3327-.2359.6942-.2512 1.0626.0071.3442.0786.6834.2104.9981.1328.3147.3217.5987.5577.8356.2359.2369.5148.422.8181.5446.3044.1227.6282.1805.954.17.7875-.0171 1.5546-.2704 2.2114-.7305v.487h1.5699v-4.74c.0215-.4213-.0388-.8427-.1787-1.2377-.14-.395-.3565-.7551-.6343-1.0575-.2779-.3024-.6129-.5404-.9816-.6993-.3698-.1588-.7661-.2349-1.1644-.2234Zm-.8223 6.6185c-.1328.0103-.2655-.0097-.3902-.0583-.1246-.0487-.2379-.1251-.3319-.224-.094-.0989-.1675-.2181-.2145-.3494-.047-.1313-.0674-.2717-.0582-.4119.049-.5915.6741-.9393 1.3319-.9393.6414.0127 1.2788.1091 1.8988.287v.6697c-.2788.3342-.6231.5994-1.0102.7768-.3861.1774-.8049.2625-1.2257.2494ZM163.029 23.1191h-1.868v-2.378h-1.579v7.8685h3.464c.659-.0394 1.279-.3445 1.733-.8526.454-.508.708-1.1805.708-1.8795 0-.6991-.254-1.3716-.708-1.8796-.454-.508-1.074-.8131-1.733-.8525l-.017-.0263Zm0 3.8032h-1.868V24.789h1.885c.267 0 .523.1123.712.3124.189.2.296.4714.296.7542 0 .2829-.107.5542-.296.7543-.189.2-.445.3124-.712.3124h-.017Zm-8.048-3.0951h-3.604v-3.0861h-1.57v7.8423h1.57v-3.0862h3.604v3.0862h1.57v-7.8423h-1.57v3.0861ZM77.4331 20.575c-.9851.0332-1.9509.299-2.8265.7781l.7686 1.46c.6376-.3487 1.3406-.5428 2.0579-.5683.1949-.0112.3897.0224.5712.0986.1813.0762.3448.1932.4792.3428.1344.1497.2365.3285.2991.5241.0628.1954.0844.403.0638.6083v.0524c-.6491-.1487-1.3111-.2248-1.9752-.2273-.346-.031-.6944.0116-1.0246.1251-.3303.1136-.6357.296-.8982.5363-.2627.2404-.4772.5338-.6309.8631-.1538.3294-.2438.688-.2646 1.0547-.0003.3526.0668.7017.197 1.0264.1303.3247.3211.6182.5611.863.24.2449.5241.4361.8354.5621.3115.126.6437.1843.9769.1713.7912-.0213 1.561-.2757 2.2231-.7343v.4807h1.5704v-4.7735c.0218-.4247-.0398-.8495-.1809-1.2476-.1411-.3982-.3587-.7612-.6391-1.0658-.2803-.3049-.6172-.5448-.9896-.7049-.3725-.1601-.7721-.2368-1.1741-.2253Zm-.8264 6.6533c-.1355.0147-.2724-.0025-.4008-.0502-.1286-.0477-.2456-.1249-.3426-.2259-.0971-.101-.172-.2234-.2191-.3586-.0473-.1352-.0658-.2797-.054-.4232.0496-.6033.6777-.9443 1.3389-.9443.6451.0129 1.2863.1097 1.9091.2885v.6558c-.2766.3422-.6221.6147-1.0109.7978-.389.183-.8116.2719-1.2371.2601h.0165Zm-6.9323-5.3856h-5.3473v-4.6425h-1.5703v11.3832h1.5703v-5.0795h5.3473v5.0795h1.5786V17.2002h-1.5786v4.6425Zm20.2946-1.1016h-1.5703v6.1724h-3.4215v-6.1724h-1.5786v7.8335h5.7936v1.3115h1.5786v-2.9726h-.8018v-6.1724Zm5.0148 5.0621v-5.0621h-1.5702v7.8423h1.5702l3.5787-5.0622v5.0622h1.5705v-7.8423h-1.5705l-3.5787 5.0621Zm11.6602-5.2107c-.77 0-1.523.2415-2.163.694-.64.4524-1.139 1.0956-1.434 1.848-.294.7525-.371 1.5804-.221 2.3792s.521 1.5326 1.065 2.1084c.545.5759 1.238.9682 1.993 1.127.755.1589 1.538.0773 2.249-.2343.712-.3117 1.32-.8395 1.747-1.5166.428-.6772.656-1.4735.656-2.2878-.002-1.0915-.413-2.1376-1.142-2.9093-.73-.7717-1.718-1.2063-2.75-1.2086Zm0 6.5659c-.458-.0018-.904-.1468-1.284-.4168-.379-.2701-.674-.653-.848-1.1005-.174-.4474-.219-.9394-.129-1.4137.091-.4742.312-.9096.636-1.2511.324-.3415.736-.5738 1.185-.6675.448-.0938.913-.0448 1.336.1407.422.1856.783.4993 1.037.9018.254.4023.389.8753.389 1.3591 0 .3222-.06.6412-.177.9388-.117.2976-.288.5678-.503.7953-.216.2273-.472.4076-.754.5301-.282.1224-.584.1849-.888.1838Zm30.199-6.4173h-3.992l-.066.7519s-.264 2.7976-.512 4.3714c-.149.8742-.612 1.0928-.975 1.0928h-.554v1.6699h.554c.627-.0266 1.224-.2928 1.68-.7494.455-.4566.74-1.0725.799-1.7336.182-1.1015.364-2.754.455-3.7069h2.611v6.1812h1.571v-7.8686h-1.571v-.0087Zm8.016 2.378h-1.885v-2.378h-1.57v7.8685h3.455c.351.0211.702-.034 1.033-.1617.33-.1279.633-.3257.889-.5815.256-.2557.46-.5641.6-.9061.138-.3419.21-.7104.21-1.0828 0-.3724-.072-.7409-.21-1.0828-.14-.342-.344-.6504-.6-.9061-.256-.2558-.559-.4536-.889-.5815-.331-.1277-.682-.1828-1.033-.1617v-.0263Zm0 3.8032h-1.885V24.789h1.885c.267 0 .523.1123.712.3124.189.2.296.4714.296.7542 0 .2829-.107.5542-.296.7543-.189.2-.445.3124-.712.3124Zm23.046-6.1812h-1.57v7.8423h1.57v-7.8423Zm8.122 0-3.578 5.0621v-5.0621h-1.57v7.8423h1.57l3.578-5.0622v5.0622h1.57v-7.8423h-1.57Zm-1.802-1.2415c.566-.0023 1.107-.2407 1.506-.6632s.625-.995.627-1.5924h-1.099c.013.1511-.005.3034-.05.4472-.046.1437-.12.2758-.217.3878-.096.112-.214.2015-.346.2626-.131.0612-.273.0928-.416.0928-.143 0-.285-.0316-.416-.0928-.132-.0611-.25-.1506-.347-.2626-.096-.112-.17-.2441-.216-.3878-.045-.1438-.063-.2961-.05-.4472h-1.099c0 .5967.224 1.1691.621 1.5919.398.4228.939.6614 1.502.6637Zm-56.065 4.3276h-3.595v-3.0861h-1.57v7.8423h1.57v-3.0862h3.595v3.0862h1.579v-7.8423h-1.579v3.0861Zm7.511-3.2522c-.985.0332-1.951.299-2.827.7781l.769 1.46c.638-.347 1.341-.541 2.058-.5683.194-.0098.389.0249.569.1017.181.0767.344.1936.478.343.134.1494.236.3275.3.5223.063.1949.085.4018.066.6068v.0524c-.652-.1481-1.316-.2243-1.983-.2273-.346-.031-.695.0116-1.025.1252-.33.1135-.636.2959-.898.5362-.263.2404-.477.5338-.631.8631-.154.3294-.244.688-.265 1.0547 0 .3526.067.7017.197 1.0264.131.3247.321.6182.561.863.24.2449.525.4361.836.5621.311.126.644.1843.977.1714.794-.0212 1.566-.2755 2.231-.7344v.4807h1.571v-4.7735c.023-.425-.038-.8504-.179-1.2491-.14-.3988-.358-.7623-.639-1.0673-.28-.305-.618-.545-.991-.7046-.373-.1597-.773-.2354-1.175-.2226Zm-.827 6.6533c-.132.0118-.265-.0069-.39-.0549s-.238-.1241-.333-.223c-.094-.099-.167-.2184-.213-.35-.047-.1317-.065-.2725-.055-.4125.049-.6033.677-.9443 1.33-.9443.648.0136 1.292.1104 1.918.2885v.6383c-.281.3443-.63.6179-1.024.8009-.393.1831-.82.2708-1.249.257h.016Z"/>
</svg>