<svg xmlns="http://www.w3.org/2000/svg" viewBox="0 0 200 50">
	<path fill="#008D5C" d="M86.5515 13.4054h19.4095v4.3554H92.0824v4.8619h6.6646c2.909 0 5.119.5965 6.63 1.7894 1.535 1.193 2.302 2.9149 2.302 5.1658 0 2.3634-.848 4.1979-2.542 5.5033-1.695 1.3056-4.088 1.9584-7.1803 1.9584H86.5515V13.4054zM97.6476 32.988c1.4199 0 2.5074-.2701 3.2634-.8103.756-.5628 1.134-1.3731 1.134-2.431 0-2.0708-1.466-3.1062-4.3974-3.1062h-5.5652v6.3475h5.5652zM117.307 18.6048c2.863 0 5.062.6752 6.596 2.0258 1.535 1.328 2.302 3.3425 2.302 6.0435v10.3653h-5.016v-2.2622c-1.007 1.6882-2.885 2.5324-5.634 2.5324-1.419 0-2.656-.2365-3.71-.7092-1.03-.4726-1.821-1.1254-2.37-1.9582-.55-.8328-.825-1.7782-.825-2.8361 0-1.6881.642-3.0161 1.924-3.984 1.306-.9679 3.31-1.4519 6.012-1.4519h4.26c0-1.1479-.355-2.0258-1.065-2.6334-.71-.6303-1.775-.9454-3.195-.9454-.985 0-1.958.1576-2.92.4727-.939.2926-1.741.6977-2.405 1.2155l-1.923-3.6802c1.007-.6978 2.21-1.238 3.607-1.6207 1.42-.3826 2.874-.5739 4.362-.5739zm-.412 15.1595c.916 0 1.729-.2025 2.439-.6076.71-.4277 1.214-1.0467 1.512-1.857v-1.857h-3.676c-2.199 0-3.298.7091-3.298 2.1271 0 .6752.264 1.2154.79 1.6206.55.3827 1.294.5739 2.233.5739zM128.799 18.8745h5.325v7.0902h8.038v-7.0902h5.36V37.039h-5.36v-6.7864h-8.038v6.7864h-5.325V18.8745zM158.732 30.1514h-2.782v6.8876h-5.359V18.8745h5.359v7.0564h2.886l5.015-7.0564h5.702l-6.457 8.7109L170 37.039h-6.321l-4.947-6.8876z"/>
	<path fill="#FFD503" d="M52.0548 13.4054v23.6342h-5.5652v-9.69H35.5652v9.69H30V13.4054h5.5652v9.3186h10.9244v-9.3186h5.5652zM67.3894 37.4444c-2.4506 0-4.6721-.5176-6.6646-1.5531-1.9695-1.0579-3.5268-2.5096-4.672-4.3554-1.1222-1.8682-1.6833-3.9728-1.6833-6.3137s.5611-4.4342 1.6833-6.2799c1.1452-1.8682 2.7025-3.32 4.672-4.3554C62.7173 13.529 64.9503 13 67.4237 13c2.0841 0 3.9621.3601 5.6339 1.0804 1.6948.7203 3.1148 1.7557 4.2599 3.1062l-3.5728 3.2413c-1.626-1.8457-3.6414-2.7686-6.0462-2.7686-1.4885 0-2.8169.3264-3.9849.9791-1.168.6303-2.0841 1.5194-2.7483 2.6673-.6412 1.148-.9619 2.4535-.9619 3.9165 0 1.4631.3207 2.7686.9619 3.9166.6642 1.1479 1.5803 2.0482 2.7483 2.701 1.168.6302 2.4964.9453 3.9849.9453 2.4048 0 4.4202-.9341 6.0462-2.8023l3.5728 3.2413c-1.1451 1.373-2.5651 2.4197-4.2599 3.1399-1.6946.7203-3.5841 1.0804-5.6682 1.0804z"/>
</svg>
