<svg xmlns="http://www.w3.org/2000/svg" viewBox="0 0 200 50">
	<path fill="#3f4c54" d="M89.5 18.1h-4.7v-3.7h-1.5v9h1.5v-3.8h4.7v3.8h1.4v-9h-1.4zM94.7 19.4l4.1 4h2.1L96 18.7l4.7-4.3h-2.1L94.7 18v-3.6h-1.4v9h1.4zM61.9 33.8c0 2-.3 3.3-.9 3.8-.3.3-.8.4-1.4.3h-.2v1.4h.7c.9 0 1.6-.2 2.1-.7.9-.8 1.3-2.4 1.3-4.8v-5.5h5.1v11h1.6V26.8H62v7zM154.5 30.3h-1.8l-3.2 3.6v-3.6h-1.4v3.6l-3.2-3.6h-1.8l3.9 4.3-4.1 4.7h1.9l3.3-3.9v3.9h1.4v-3.9l3.3 3.9h1.9l-4.1-4.7zM162.1 34.1h-4.7v-3.8h-1.5v9h1.5v-3.8h4.7v3.8h1.5v-9h-1.5zM173.5 30.3h1.5v9h-1.5zM183.8 30.3l-4.9 6.4v-6.4h-1.5v9h1.2l4.9-6.3v6.3h1.5v-9zM66.5 15.8h-3.1v-3.4h5.9v-1.5h-7.4v12.5h4.7c2.1 0 3.8-1.7 3.8-3.8 0-2.1-1.7-3.8-3.9-3.8zm0 6.1h-3.1v-4.7h3.1c1.2 0 2.3 1 2.3 2.3 0 1.3-1 2.4-2.3 2.4zM76.2 23.6c1.3 0 2.5-.6 3.3-1.5v1.3H81v-9h-1.5v1.3c-.8-1-2-1.5-3.3-1.5-1.2 0-2.4.5-3.3 1.4-1.8 1.9-1.8 4.8 0 6.7.9.8 2.1 1.3 3.3 1.3zm0-8c1.8 0 3.3 1.4 3.3 3.2 0 1.8-1.4 3.2-3.2 3.3h-.1c-1.8 0-3.3-1.4-3.3-3.2.1-1.8 1.5-3.3 3.3-3.3zM76.8 30.1c-2.7 0-4.7 2-4.7 4.7 0 1.3.5 2.5 1.3 3.4.9.9 2.1 1.3 3.5 1.3 1.7 0 3.1-.8 4-2.1l.1-.1-1.3-.8-.1.2c-.5.9-1.5 1.4-2.6 1.4-1.7 0-3-1-3.2-2.5h7.6v-.8c0-1.2-.4-2.4-1.2-3.3-.9-.9-2.1-1.4-3.4-1.4zm-3.1 4c.3-1.5 1.5-2.6 3.1-2.6 1.2 0 2.6.7 2.9 2.6h-6zM89.1 34.7c.5-.4.8-1.1.8-1.9 0-1.5-1.1-2.5-2.8-2.5h-4v9h4.4c1.8 0 2.9-1 2.9-2.6-.1-.9-.5-1.6-1.3-2zm-4.6-2.9h2.6c1.1 0 1.3.6 1.3 1.1 0 .8-.4 1.2-1.3 1.2h-2.6v-2.3zm2.9 6.1h-2.9v-2.4h2.9c.9 0 1.4.4 1.4 1.1 0 1.1-.7 1.3-1.4 1.3zM96.2 30.1c-2.7 0-4.7 2.1-4.7 4.7s2.1 4.7 4.7 4.7c2.7 0 4.7-2.1 4.7-4.7s-2.1-4.7-4.7-4.7zm.1 8c-1.9 0-3.3-1.4-3.4-3.2 0-1.8 1.4-3.3 3.2-3.3 1.8 0 3.3 1.4 3.3 3.2.1 1.8-1.4 3.3-3.1 3.3zM107 31.1c-.8 0-1.9.3-2.8 1 .4-.7 1-1.2 2.2-1.7.2-.1.4-.2.7-.3 1.5-.6 2.9-1.2 3.2-2.8v-.1l-1.2-.7v.3c-.2 1.1-1 1.4-2.3 2h-.1c-.3.1-.7.3-1.1.5-2.9 1.4-3.4 2.9-3.4 5.7 0 2.7 1.9 4.6 4.5 4.6 1.2 0 2.3-.4 3.2-1.2.8-.8 1.3-1.9 1.3-3 0-2.5-1.8-4.3-4.2-4.3zm-.2 6.9c-1.7 0-3-1.2-3-2.8 0-1.3 1.1-2.7 3.1-2.7 1.7 0 2.8 1.1 2.8 2.8 0 1.6-1.2 2.7-2.9 2.7zM117 30.1c-2.7 0-4.7 2-4.7 4.7 0 1.3.5 2.5 1.3 3.4.9.9 2.1 1.3 3.5 1.3 1.7 0 3.1-.8 4-2.1l.1-.1-1.3-.8-.1.2c-.5.9-1.5 1.4-2.6 1.4-1.7 0-3-1-3.2-2.5h7.6v-.8c0-1.2-.4-2.4-1.2-3.3-.9-.9-2.1-1.4-3.4-1.4zm-3.1 4c.3-1.5 1.5-2.6 3.1-2.6 1.2 0 2.6.7 2.9 2.6h-6zM127.7 30.1c-1.3 0-2.5.6-3.3 1.5v-1.3h-1.5v12.5h1.5V38c.8 1 2 1.5 3.3 1.5 1.2 0 2.4-.5 3.3-1.4 1.8-1.9 1.8-4.8 0-6.7-.9-.8-2.1-1.3-3.3-1.3zm-.1 8c-1.8 0-3.3-1.4-3.3-3.2 0-1.8 1.4-3.2 3.2-3.3h.1c1.8 0 3.3 1.4 3.3 3.2 0 1.8-1.5 3.3-3.3 3.3zM138.3 30.1c-2.7 0-4.7 2-4.7 4.7 0 1.3.5 2.5 1.3 3.4.9.9 2.1 1.3 3.5 1.3 1.7 0 3.1-.8 4-2.1l.1-.1-1.3-.8-.1.2c-.5.9-1.5 1.4-2.6 1.4-1.7 0-3-1-3.2-2.5h7.6v-.8c0-1.2-.4-2.4-1.2-3.3-.9-.9-2.1-1.4-3.4-1.4zm-3.1 4c.3-1.5 1.5-2.6 3.1-2.6 1.2 0 2.6.7 2.9 2.6h-6zM169.6 33.6h-2.2v-3.3h-1.5v9h3.7c1.7 0 3.1-1.2 3.1-2.9 0-1.6-1.3-2.8-3.1-2.8zm0 4.3h-2.2v-2.8h2.2c1.1 0 1.6.7 1.6 1.4 0 .6-.5 1.4-1.6 1.4zM178.8 27.9h4.8v1.3h-4.8z"/>
	<path fill="#ffca8c" d="M40.8 26.4H22.6L42.3 6.6c.2-.2.4-.6.4-.9V2.9c0-.8-1-1.2-1.5-.6l-25.8 26c-.7.7-.2 2 .8 2h22.5c.3 0 .7-.1.9-.4l1.9-1.9c.4-.4.3-.9 0-1.3-.2-.2-.4-.3-.7-.3z"/>
	<path fill="#1eaaa2" d="m49.8 2.4-22 22.1h5.4L47.9 9.8v25.5H22.5l3.3-3.3h-5.4l-4.9 5c-.8.8-.2 2.2.9 2.2h33.7c.9 0 1.7-.7 1.7-1.7V3.3c-.1-1.1-1.3-1.6-2-.9z"/>
</svg>