<svg xmlns="http://www.w3.org/2000/svg" viewBox="0 0 200 50">
	<path fill="#FFD100" d="M43.142 25.9053c0 9.2109-7.4031 16.6141-16.614 16.6141S10 35.1162 10 25.9053c0-9.1248 7.4032-16.61406 16.528-16.61406 9.1248 0 16.614 7.48926 16.614 16.61406z"/>
	<g fill="#5E686B">
		<path d="M49.5983 38.3013V19.363h16.3558v18.9383h-5.0789V24.0115h-6.2841v14.2898h-4.9928zM68.5366 38.3013V19.363h13.7733v4.4763h-8.7805v2.8408h8.7805v4.132h-8.7805v3.0129h8.7805v4.4763H68.5366zM91.6929 28.4017h2.4103c.947 0 1.6356-.2582 2.1521-.6887.5165-.4304.7748-1.033.7748-1.8077 0-.7747-.2583-1.3773-.7748-1.8077-.5165-.4305-1.2051-.6026-2.1521-.6026h-2.4103v4.9067zm-5.0789 9.297V19.1908h7.9197c2.3242 0 4.218.6026 5.5953 1.7217 1.377 1.1191 2.066 2.7546 2.066 4.8206 0 1.4634-.344 2.6686-1.033 3.6155-.689 1.033-1.6355 1.8078-2.8407 2.2382-1.2051.5165-2.4964.7747-4.0459.7747H91.779v5.3372h-5.165zM104.261 37.6987V19.1908h13.86v4.3903h-8.867v2.8407h8.867v4.0459h-8.867v2.9268h8.867v4.3903l-13.86-.0861zM135.337 37.6126h-4.648c-1.722 0-3.358-.4304-4.735-1.2052-1.463-.7747-2.582-1.8938-3.443-3.2711-.861-1.3773-1.292-2.9268-1.292-4.7346 0-1.2912.259-2.4964.775-3.6155.517-1.1191 1.119-2.1521 1.98-2.9268.861-.8608 1.894-1.4634 3.099-1.9799 1.205-.5165 2.497-.6887 3.874-.6887h4.476v4.3903h-4.562c-1.291 0-2.324.4304-3.185 1.3773-.861.9469-1.205 2.1521-1.205 3.5294s.43 2.4964 1.205 3.4433c.861.9469 1.894 1.3774 3.185 1.3774h4.562v4.3041h-.086zM143.515 33.6528h3.96c.775 0 1.377-.1722 1.808-.4304.43-.3444.602-.7748.602-1.2913 0-.5165-.172-.9469-.602-1.2051-.431-.3444-1.033-.4305-1.894-.4305h-3.874v3.3573zm0-7.1449h3.185c1.636 0 2.41-.6026 2.41-1.7217 0-.5165-.172-.9469-.602-1.2051-.431-.2583-.947-.4305-1.722-.4305h-3.271v3.3573zm-4.993 11.1908V19.1908h9.469c2.239 0 3.874.5165 4.993 1.6356.775.7747 1.205 1.8077 1.205 3.0129 0 1.9799-.947 3.3572-2.84 4.132 1.205.4304 2.066.9469 2.754 1.7217.603.6886.947 1.7216.947 2.9268 0 1.5495-.602 2.8407-1.808 3.7016-1.205.8608-2.926 1.3773-5.165 1.3773h-9.555zM157.374 37.6987V19.1908h14.462v4.3903h-9.469v2.8407h9.469v4.0459h-9.469v2.9268h9.469v4.3903l-14.462-.0861zM173.816 23.6671v-4.4763H190v4.4763h-5.509v14.0316h-5.079V23.6671h-5.596zM50.9757 12.3902h1.6356l-.8609-1.9799-.7747 1.9799zm-1.7217 1.8939l2.1521-4.90677h.7748l2.152 4.90677h-.8608l-.5165-1.2052h-2.3242l-.5165 1.2052h-.8609zM54.8495 14.2841V9.37733h.8608v2.49637l2.3243-2.49637h1.033l-1.9799 2.06597 2.152 2.7547h-1.033l-1.7216-2.066-.7748.7747v1.3774h-.8608zM59.4979 14.2841V9.37733h.8609v4.13197h2.2381V9.37733h.8609v4.13197h.6886l-.0861 1.8078h-.7747v-1.033h-3.7877zM64.4907 14.2841V9.37733h.8609v3.52937l2.4964-3.52937h.7747v4.90677h-.8608v-3.5294l-2.4103 3.5294h-.8609zM70.1722 11.8738c0 .3443.0861.6025.1722.8608.1722.2582.3443.5165.6026.6026.2582.1721.5165.2582.8608.2582.3443 0 .6026-.0861.8608-.2582.2583-.1722.4305-.3444.6026-.6026.1722-.2583.1722-.5165.1722-.8608 0-.3444-.0861-.6026-.1722-.8609-.1721-.2582-.3443-.5165-.6026-.6026-.2582-.1721-.5165-.2582-.8608-.2582-.3443 0-.6026.0861-.8608.2582-.2583.1722-.4304.3444-.6026.6026-.0861.2583-.1722.5165-.1722.8609zm-.8608 0c0-.3444.0861-.6887.1722-.947.086-.3443.2582-.6025.5165-.7747.2582-.25826.5165-.43043.7747-.51651.3443-.17217.6887-.17217 1.033-.17217.3443 0 .6887.08609 1.033.17217.3443.17217.6026.34433.7748.51651.2582.2582.4304.5165.5165.7747.086.3444.1721.6026.1721.947 0 .3443-.0861.6886-.1721.9469-.0861.3443-.2583.6026-.5165.7747-.1722.2583-.4305.4304-.7748.6026-.3443.1722-.6887.1722-1.033.1722-.5165 0-.9469-.0861-1.2912-.3444-.4304-.2582-.6887-.5165-.8609-.9469-.2582-.3443-.3443-.7747-.3443-1.2051zM75.079 14.2841V9.37733h.8608v2.06597h2.3243V9.37733h.8608v4.90677h-.8608v-2.066h-2.3243v2.066h-.8608zM79.9857 14.2841V9.37733h3.6155v.77477h-2.7547v1.2912h2.4104v.7748h-2.4104v1.2912h2.7547v.7748h-3.6155zM85.1506 11.9598h1.033c.3444 0 .6026-.0861.7748-.2582.1721-.1722.2582-.3444.2582-.6026 0-.2583-.0861-.5165-.2582-.6887-.1722-.1721-.4304-.2582-.7748-.2582h-1.033v1.8077zm-.8608 2.3243V9.37733h1.8938c.6026 0 1.033.17217 1.3774.43042.3443.25825.5165.68865.5165 1.20515 0 .3443-.0861.6887-.2583.9469-.1722.2583-.4304.4304-.6887.6026-.2582.0861-.6025.1722-.9469.1722h-.9469v1.5495h-.9469zM88.594 14.2841V9.37733h.8608v2.06597h2.3243V9.37733h.8608v4.90677h-.8608v-2.066h-2.3243v2.066h-.8608zM97.8911 14.2841h.8608V9.37733h-.8608v4.90677zm-3.5294-.7748h1.1191c.3443 0 .6025-.0861.7747-.2582.1722-.1722.2583-.3444.2583-.6026 0-.2583-.0861-.4304-.2583-.6026-.1722-.1722-.4304-.1722-.7747-.1722h-1.1191v1.6356zm-.8608.7748V9.37733h.8608V11.099h1.1191c.5165 0 1.033.1722 1.2912.4304.3444.2583.5165.6026.5165 1.1191s-.1721.8608-.5165 1.2052c-.3443.2582-.7747.4304-1.3773.4304h-1.8938zM100.56 8.08608L101.076 8c.086.34433.258.5165.603.5165.258 0 .516-.17217.602-.5165l.517.08608c-.086.25825-.172.5165-.345.68867-.172.17217-.43.25825-.688.25825-.258 0-.517-.08608-.775-.25825s-.344-.43042-.43-.68867zm-.9473 6.19802V9.37733h.8613v3.52937l2.496-3.52937h.775v4.90677h-.861v-3.5294l-2.497 3.5294h-.7743zM106.327 14.2841V9.37733h.861v2.49637l2.324-2.49637h1.033l-1.98 2.06597 2.153 2.7547h-1.033l-1.636-2.2382-.775.7748v1.3773h-.947v.1722z"/>
		<path d="M111.492 11.8738c0 .3443.086.6025.172.8608.173.2582.345.5165.603.6026.258.1721.516.2582.861.2582.344 0 .602-.0861.861-.2582.258-.1722.43-.3444.602-.6026.172-.2583.172-.5165.172-.8608 0-.3444-.086-.6026-.172-.8609-.172-.2582-.344-.5165-.602-.6026-.259-.1721-.517-.2582-.861-.2582-.345 0-.603.0861-.861.2582-.258.1722-.43.3444-.603.6026-.086.2583-.172.5165-.172.8609zm-.861 0c0-.3444.086-.6887.173-.947.086-.3443.258-.6025.516-.7747.258-.25826.517-.43043.775-.51651.344-.17217.688-.17217 1.033-.17217.344 0 .688.08609 1.033.17217.344.17217.602.34433.775.51651.258.2582.43.5165.516.7747.086.3444.172.6026.172.947 0 .3443-.086.6886-.172.9469-.086.3443-.258.6026-.516.7747-.259.2583-.517.4304-.775.5165-.345.1722-.689.1722-1.033.1722-.517 0-.947-.0861-1.291-.3443-.431-.2583-.689-.5165-.861-.947-.259-.2582-.345-.6886-.345-1.119zM116.399 14.2841V9.37733h.947l1.463 2.32427 1.464-2.32427h.947v4.90677h-.861v-3.5294l-1.55 2.3242-1.549-2.3242v3.5294h-.861zM122.08 14.2841V9.37733h.947l1.464 2.32427 1.463-2.32427h.947v4.90677h-.861v-3.5294l-1.549 2.3242-1.55-2.3242v3.5294h-.861zM127.762 14.2841V9.37733h3.615v.77477h-2.754v1.2912h2.41v.7748h-2.41v1.2912h2.754v.7748h-3.615zM132.927 11.9598h1.033c.344 0 .602-.0861.775-.2582.172-.1722.258-.3444.258-.6026 0-.2583-.086-.5165-.258-.6887-.173-.1721-.431-.2582-.775-.2582h-1.033v1.8077zm-.861 2.3243V9.37733h1.894c.602 0 1.033.17217 1.377.43042.345.25825.517.68865.517 1.20515 0 .3443-.086.6887-.259.9469-.172.2583-.43.4304-.688.6026-.258.0861-.603.1722-.947.1722h-.947v1.5495h-.947zM136.198 11.1851V9.37733h.861v1.54947c0 .3444.086.5165.258.6887.172.1722.344.2582.689.2582.172 0 .43 0 .688-.086.259-.0861.431-.1722.603-.2583V9.37733h.861v4.90677h-.861v-1.8939c-.517.2583-.947.4305-1.377.4305-.517 0-.861-.1722-1.206-.4305-.344-.2582-.516-.6886-.516-1.2051zM140.933 14.2841V9.37733h3.615v.77477h-2.755v1.2912h2.411v.7748h-2.411v1.2912h2.755v.7748h-3.615zM144.979 11.8738c0-.3444.086-.6887.172-.947.086-.3443.258-.6025.516-.7747.258-.25826.517-.43043.775-.51651.344-.17217.689-.17217 1.033-.17217.43 0 .775.08609 1.033.17217.258.17217.603.34433.861.60261l-.517.5165c-.172-.1722-.43-.3444-.602-.4304-.259-.0861-.431-.1722-.689-.1722-.344 0-.603.0861-.861.2582-.258.1722-.43.3444-.602.6026-.173.2583-.173.5165-.173.8609 0 .5165.173.8608.431 1.2051.344.3444.689.5165 1.119.5165.258 0 .516-.0861.775-.1721.172-.0861.43-.2583.688-.5165l.517.5165c-.172.1721-.344.3443-.517.4304-.172.0861-.344.1721-.602.2582-.258.0861-.517.0861-.775.0861-.43 0-.861-.0861-1.291-.3443-.345-.2583-.689-.5165-.861-.9469-.258-.1722-.43-.6026-.43-1.033zM149.971 14.2841V9.37733h.861v2.49637l2.324-2.49637h1.033l-1.98 2.06597 2.153 2.7547h-1.033l-1.636-2.2382-.775.7748v1.3773h-.947v.1722zM154.706 14.2841V9.37733h.861v3.52937l2.496-3.52937h.775v4.90677h-.861v-3.5294l-2.496 3.5294h-.775zM160.646 8.08608L161.162 8c.086.34433.259.5165.603.5165.258 0 .516-.17217.602-.5165l.517.08608c-.086.25825-.172.5165-.344.68867-.173.17217-.431.25825-.689.25825-.258 0-.517-.08608-.775-.25825s-.344-.43042-.43-.68867zm-.947 6.19802V9.37733h.861v3.52937l2.496-3.52937h.775v4.90677h-.861v-3.5294l-2.41 3.5294h-.861zM167.274 13.5093h1.119c.344 0 .689-.0861.861-.1721.172-.0861.258-.3444.258-.6026 0-.2583-.086-.4304-.258-.5165-.172-.0861-.43-.1722-.775-.1722h-1.291l.086 1.4634zm-.861.7748V9.37733h3.616v.77477h-2.755v1.1191h1.377c.517 0 .947.1721 1.292.4304.344.2582.516.6026.516 1.1191s-.172.8608-.516 1.119c-.345.2583-.775.4305-1.292.4305h-2.238v-.0861zM172.267 12.3902h1.635l-.86-1.9799-.775 1.9799zm-1.636 1.8939l2.152-4.90677h.775l2.152 4.90677h-.861l-.516-1.2052h-2.324l-.517 1.2052h-.861zM176.141 14.2841V9.37733h.86v2.06597h2.325V9.37733h.861v4.90677h-.861v-2.066h-2.325v2.066h-.86zM181.047 14.2841V9.37733h.861v2.49637l2.324-2.49637h1.033l-1.979 2.06597 2.152 2.7547h-1.033l-1.636-2.2382-.775.7748v1.3773h-.947v.1722z"/>
		<path d="M19.5553 26.8522v6.5423c0 2.4104-1.6356 4.4764-4.0459 4.9068.2582.2582.6026.5165.9469.7747l8.3501-1.8077c3.3572-.6887 5.7676-3.7016 5.7676-7.1449v-5.7676l-11.0187 2.4964zM26.1836 9.29123c0 4.90677-6.5424 4.90677-6.5424 9.89957v6.6284l14.0316-3.0129v-3.6155c0-4.9067-6.5423-4.9928-6.5423-9.89957h-.9469z"/>
	</g>
</svg>
