<svg xmlns="http://www.w3.org/2000/svg" viewBox="0 0 200 50">
	<path fill="#5052FE" d="M132.409 24.5637c.011 3.2865-2.534 5.767-5.822 5.6906-3.091.0187-5.759-2.3313-5.711-5.5062-.047-3.274 2.52-5.7443 5.756-5.7479 3.155-.0219 5.831 2.3122 5.777 5.5635Zm-3.003.0492c.006-1.7405-.352-4.9487-2.757-4.8507-2.421-.0174-2.754 3.1654-2.754 4.9367-.009 1.8008.381 4.8525 2.77 4.8525 2.43 0 2.758-3.1519 2.741-4.9385Zm-9.051 5.346h-6.498v-.5736c.292-.0002 1.475.0325 1.475-.4506-.035-.2874-.217-.5641-.368-.803-.496-.8499-1.069-1.6568-1.615-2.4745-1.048 1.2291-1.716 2.0238-1.999 2.4212-.194.2327-.334.5056-.41.7989-.024.4759.872.4892 1.172.508v.5736h-4.134v-.5736c.638-.03 1.177-.2721 1.639-.721.667-.6132 1.3-1.3691 1.885-2.0689.438-.5244.901-1.0365 1.389-1.5978-.459-.6965-.922-1.3724-1.381-2.0279-.555-.7941-1.057-1.7006-1.77-2.3681-.473-.473-1.11-.6675-1.762-.7128v-.5859h6.51v.5859c-.377.0061-.754.0513-1.122.1352-.312.0951-.437.2845-.295.5818.235.4858.551.9329.844 1.3847l.86 1.3151c.942-1.1267 1.536-1.864 1.782-2.2041.175-.2014.298-.4416.361-.7006.012-.4984-.875-.4971-1.188-.5121v-.5859h4.15v.5859c-.29.0248-.574.1007-.84.2172-.288.1252-.551.2999-.778.5161-.62.6078-1.18 1.271-1.754 1.9215l-1.229 1.4257c.606.9095 1.123 1.6756 1.553 2.2902.573.8085 1.092 1.7329 1.811 2.4253.461.4719 1.116.6888 1.765.7087v.5654h-.053Zm15.354-10.0701c.529.0928 1.424.1012 1.574.7415.227.9306.077 2.0028-.078 2.9293-.278 1.6244-.777 3.2696-1.627 4.6909-.389-.4651-.913-.9672-1.557-.975-.817-.0125-1.524.6459-1.47 1.4748.012.9312.676 1.4835 1.606 1.4544 1.295-.0774 2.235-1.3107 2.736-2.3966.478-1.0009.833-2.056 1.057-3.1423.323-1.5245.504-3.0757.541-4.6336h2.544v8.4518c.038.8859-.929.8509-1.561.9013v.5736h5.785v-.5736c-.638-.0601-1.585-.1614-1.561-.9955v-7.5464c-.01-.8504.901-.9178 1.561-.9546v-.5859h-9.55v.5859Zm25.23 10.0701h-5.768v-.5736c.654 0 1.701-.1304 1.663-.9914v-7.9725l-3.675 9.3736h-.934c-.203-.7344-.522-1.4346-.746-2.1631l-2.696-7.3211v6.4731c-.013.4756.028.9513.123 1.4174.178.8249 1.028 1.061 1.762 1.1718v.5858h-4.621v-.5736c.692 0 1.615-.322 1.716-1.0815.086-.4703.123-.948.111-1.4257v-5.2768c.041-1.1333-.692-1.6406-1.737-1.7165v-.5819h4.916l2.626 7.022 2.217-5.6986c.143-.4264.274-.8753.327-1.3234h4.72v.5859c-.666.0473-1.518.1267-1.507.9669v7.5341c-.02.8204.869.9199 1.503.9833v.5858Zm6.691.2962v.0122c2.069.0414 3.796-1.1009 4.683-2.9415l-.648-.4097c-.677 1.2555-1.873 2.3216-3.367 2.2983-2.525.041-3.293-2.6178-3.249-4.7072 0-1.8147.473-4.8094 2.88-4.74 1.848-.0396 2.859 1.8853 3.269 3.4412h.664l-.07-3.8919h-.651l-.467.4096c-.877-.4513-1.852-.7189-2.843-.7046-2.305-.0238-4.482 1.2459-5.363 3.4168-1.489 3.8491 1.041 7.8481 5.162 7.8168Zm17.369-.2958h-4.097c-.34-1.0008-.651-2.0164-1.082-2.9825-.218-.5146-.471-1.0445-.917-1.4011-.459-.3727-1.056-.4813-1.635-.4711v3.2774c-.02.8273.9.9268 1.532.9833v.594h-5.755v-.5735c.645 0 1.581-.0723 1.561-.9136v-7.5505c.035-.8022-.948-.9589-1.561-1.0324v-.5818h5.76v.5818c-.648 0-1.547.1454-1.532.9545v3.5438c.595 0 1.259.0318 1.707-.4343.637-.5981 1.005-1.3765 1.283-2.1918.275-.7453.512-1.481 1.122-2.028.384-.3736.936-.5712 1.467-.5694 1.066-.0575 1.917.8737 1.542 1.9088-.287.7802-1.234 1.0656-1.931.623-.317-.2256-.593-.5025-.82-.8193-.388.4318-.513 1.032-.72 1.5608-.25.6778-.613 1.3392-1.209 1.7699v.1352c1.411.338 2.368 1.4021 2.971 2.6722.226.4765.443.9602.676 1.4329.098.2485.254.4703.454.6473.319.2483.794.252 1.184.2991v.5653ZM65.1252 22.0032c0-2.256-2.3443-2.7029-4.1647-2.7029H54.999v.5939c.1168.0153.2919.0482.5254.099.5606.1073 1.0582.298 1.0582.9441v7.6212c0 .8963-.9083.8819-1.5836.9517v.5939h5.8549v-.5939c-.6765-.0654-1.5684-.1698-1.5684-1.0202v-3.0379h.8832c.7309 0 1.3882-.0634 1.9719-.1903 1.6615-.3582 2.9846-1.4933 2.9846-3.2586Zm-3.4643-1.4161c.3299.3908.4949.9923.4949 1.8044 0 .7969-.2183 1.3882-.6548 1.774-.6109.539-1.4426.5709-2.2155.5709v-4.7432c.7997 0 1.814-.0904 2.3754.5939Zm11.6184 9.517h5.8396v-.5939c-.6691-.046-1.5836-.1527-1.5836-.9974v-7.6516c0-.854.9125-.9248 1.5836-.967v-.5939h-5.8396v.5939c.6382.074 1.5532.2503 1.5532 1.0431v3.152h-4.6139v-3.2281c0-.8405.8853-.9237 1.5532-.967v-.5939h-5.8396v.5939c.6484.0621 1.5837.2393 1.5837 1.0431v7.6441c0 .8739-.9091.9017-1.5837.9288v.5939h5.8396v-.5939c-.6565-.0451-1.5532-.1696-1.5532-.9974v-3.6393h4.6139v3.7231c0 .8845-.8881.8606-1.5532.9136v.5939Zm14.8694 0h4.1417v-.5939c-.4189-.0379-.8716-.0565-1.2257-.3045-.1472-.1066-.2995-.3249-.4568-.6548-.2569-.5395-.4912-1.089-.7462-1.6293-.5778-1.2367-1.57-2.1532-2.9007-2.5049v-.1371c.6188-.438.9544-1.1079 1.2257-1.7967.2046-.5164.3186-1.1732.7157-1.5837.3198.4061.5939.6802.8223.8222.5198.3165 1.2214.2847 1.6673-.1522.5365-.5363.4949-1.5298-.0684-2.0252-.7276-.6397-2.0476-.4722-2.7105.1903-.895.8699-1.0713 2.1054-1.6065 3.1901-.42.8402-1.0796 1.5304-2.0556 1.5304h-.4949v-3.5936c0-.8405.8852-.9237 1.5532-.967v-.5939h-5.8397v.5939c.6484.0621 1.5837.2393 1.5837 1.0431v7.6441c0 .8739-.9091.9017-1.5837.9288v.5939h5.8397v-.5939c-.6567-.0451-1.5532-.1696-1.5532-.9974v-3.3424c.3705 0 .6903.0407.9593.1219.8691.2415 1.3024 1.0127 1.6369 1.7892.4343.9799.7518 2.0087 1.0964 3.0226Zm10.3621-11.1006c-3.3101 0-5.8548 2.5634-5.8548 5.8167 0 3.2342 2.6336 5.5808 5.8015 5.5808 3.3415 0 5.9005-2.3793 5.9005-5.7711 0-3.2811-2.63-5.6264-5.8472-5.6264Zm0 10.6514c-2.426 0-2.8094-3.076-2.8094-4.9109 0-1.8361.3505-4.9945 2.8094-4.9945 2.4422 0 2.8022 3.0948 2.8022 4.9337 0 1.839-.345 4.9717-2.8022 4.9717ZM36.4012 11.4393c2.9803 1.4084 5.414 3.7585 6.9251 6.6874l.0164.0164c1.1757 2.2855 1.7424 4.8353 1.6457 7.4035-.5101-.0082-1.0286-.0329-1.5428-.0699-1.5882-1.0324-11.5778-7.2596-11.5778-7.2596-.1729-.1138-.3733-.1792-.5801-.1891-.2291.0155-.4522.08-.6542.1891-3.9868 1.8262-7.9613 3.9198-10.364 5.1907-.0843.0067-.1685.013-.2526.0192-.1747.013-.3487.0259-.5209.0425.65-.5963 9.5411-8.4112 10.438-8.4688.79.0658 8.8253 6.7866 9.0187 6.9594 0 0-6.5829-6.9923-8.2945-7.8519-.2272-.1325-.4746-.227-.7324-.2797-.2565.0503-.5027.1434-.7282.2756-2.0078.8637-12.2032 9.6904-12.2032 9.6904s-1.333.2591-1.9954.4113c.1755-3.2908 1.4298-6.4324 3.5694-8.9395 2.1395-2.5071 5.0451-4.2404 8.2682-4.9321 3.2231-.69165 6.5843-.3033 9.5646 1.1051ZM22.5197 23.0018h-.0001c-.1977.1003-.3742.1898-.5252.2662 5.398-.4401 9.5246.1933 14.6017 1.2051 1.5799.3126 3.2915.6293 5.0401.8226-2.6537-1.9373-9.6728-6.4205-10.364-6.4205l-.0042.0124c-.6356 0-6.3062 2.8757-8.7483 4.1142Zm21.961 3.5818c-2.7109.1375-5.4287.0357-8.1217-.3044-5.8012-.658-10.9153-1.0694-15.3671-.0576-1.9811.4238-3.8714 1.1953-5.5831 2.2787.2594 1.055.6304 2.0795 1.1067 3.056 1.3168-.8161 2.7382-1.4498 4.2254-1.8838 3.1681-.9377 6.5583-1.0241 10.0472-.7362.6712.0551 1.3403.1145 2.0094.1739h.0001c3.2235.2862 6.4445.5721 9.8687.3814.5677-.0275 1.1273-.0727 1.6786-.1357.2801-.9177.473-1.8596.576-2.8134l-.4114.0329-.0288.0082Zm-6.2532 7.9131c1.277-.0293 2.5461-.2088 3.7812-.5347.7546-1.0144 1.378-2.1199 1.8555-3.2905-.6007.1111-1.2343.2056-1.8432.2838-2.197.2738-4.4762.0643-6.7552-.1452-2.4456-.2247-4.8909-.4495-7.2336-.0769-2.2899.3123-4.4804 1.1346-6.4101 2.4062-.9006.62-1.7082 1.3651-2.3987 2.2128.8739.8313 1.7986 1.6075 2.769 2.3239 1.8803-2.0196 4.6574-3.4139 9.0515-3.6113 1.3681-.0621 2.5713.0707 3.7655.2026 1.1008.1215 2.194.2422 3.4017.2087l.0164.0206Zm-2.5411 1.206c.8764.0084 1.7784.017 2.7973-.0869.8653-.0886 1.7215-.251 2.5591-.4854-1.8146 1.98-4.1275 3.437-6.6972 4.219-2.5698.7821-5.3024.8605-7.9128.2273.2468-.4448.545-.8589.8887-1.2339.9577-.9629 2.1417-1.67 3.4437-2.0566 1.8982-.6123 3.3697-.5983 4.9212-.5835Z"/>
</svg>