<svg xmlns="http://www.w3.org/2000/svg" viewBox="0 0 200 50">
	<path fill="#2c2a29" d="M96.7 29.3c1 0 1.7.5 2.2 1.4l2.2-1.2c-.8-1.8-2.6-2.5-4.5-2.5-3 0-5.6 2-5.6 5.1s2.6 5.1 5.6 5.1 3.7-.8 4.5-2.5l-2.2-1.2c-.5.9-1.3 1.4-2.2 1.4-1.6 0-2.6-1.2-2.6-2.7s1-2.7 2.6-2.7ZM101.8 29.4h2.8V37h2.9v-7.6h2.9v-2.3h-8.6v2.3zM131.9 33v-5.9H129V37h2.6l4.6-5.7V37h2.8v-9.9h-2.6l-4.5 5.9zM148.2 31h-4v-3.9h-2.9V37h2.9v-3.7h4V37h2.9v-9.9h-2.9V31zM170.5 31h-4v-3.9h-2.9V37h2.9v-3.7h4V37h2.9v-9.9h-2.9V31zM180.5 34.8c-1.6 0-2.6-1.2-2.6-2.7s1-2.7 2.6-2.7 1.7.5 2.2 1.4l2.2-1.2c-.8-1.8-2.6-2.5-4.5-2.5-3 0-5.6 2-5.6 5.1s2.6 5.1 5.6 5.1 3.7-.8 4.5-2.5l-2.2-1.2c-.5.9-1.3 1.4-2.2 1.4ZM83 17.6h3.1v2.5h1.1v-6h-1.1v2.6H83v-2.6h-1.1v6H83v-2.5zM94.3 20.1 91.9 17l2.3-2.9H93l-1.9 2.6h-1.3v-2.6h-1.1v6h1.1v-2.5H91l2.1 2.5h1.2zM74.3 17.7c0-1.5-1-2.3-2.9-2.3h-2.5v-2.3h4.9v-1h-6V20h3.4c1.5 0 3.1-.7 3.1-2.4ZM69 19.2v-2.9h2.2c1.3 0 2 .5 2 1.4s-.7 1.5-2 1.5H69ZM79.3 20.1h1v-3.6c0-1.6-1-2.4-2.6-2.4s-1.8.2-2.5.8l.4.8c.5-.4 1.2-.6 1.9-.6 1 0 1.6.7 1.6 1.7h-1.7c-1.1 0-2.4.4-2.4 1.8s1.1 1.8 2.2 1.8 1.5-.2 2-.9v.8Zm0-1.8c-.3.7-1 1.1-1.7 1.1s-1.3-.3-1.3-1 .5-.9 1.4-.9h1.7v.8ZM73 24.1h-5.1V37h3v-3.6H73c2.9 0 5.6-1.5 5.6-4.7S75.8 24 73 24Zm-.2 6.9h-2v-4.5h2c1.4 0 2.8.7 2.8 2.3S74.3 31 72.8 31ZM84.8 26.9c-2.9 0-5.5 2.1-5.5 5.1s2.6 5.1 5.5 5.1 5.5-2.1 5.5-5.1-2.5-5.1-5.5-5.1Zm0 7.9c-1.6 0-2.6-1.3-2.6-2.8s1-2.8 2.6-2.8 2.5 1.3 2.5 2.8-1 2.8-2.5 2.8ZM120.6 24.8v-1.3h-2.8v1.3c-3.4.2-6.8 1.8-6.8 5.7s3.4 5.5 6.8 5.7v1.4h2.8v-1.4c3.5-.2 6.8-1.8 6.8-5.7s-3.4-5.5-6.8-5.7Zm-2.7 9c-2.6-.3-3.9-1.4-3.9-3.3s1.9-3.1 3.9-3.3v6.6Zm2.7.1v-6.6c2.6.2 3.9 1.3 3.9 3.3s-1.8 3.2-3.9 3.4ZM157.1 26.9c-1.3 0-2.7.3-3.9 1l1 2c.8-.5 1.7-.7 2.6-.7s2.2.7 2.2 1.9h-1.9c-1.9 0-4.3.6-4.3 3s1.9 3 3.7 3 2.1-.3 2.7-.9v.8h2.7v-5.7c0-3-2-4.4-4.8-4.4Zm.1 8.3c-.8 0-1.6-.3-1.6-1.2s.6-1.2 1.8-1.2h1.6v1.5c-.4.6-1.1.8-1.8.8ZM20 11c-2.8 0-5 2.2-5 5v17.8c0 2.8 2.2 5 5 5s5-2.2 5-5V16c0-2.8-2.2-5-5-5ZM32 11c-3.2 0-5.8 2.6-5.8 5.8s2.6 5.8 5.8 5.8 5.8-2.6 5.8-5.8S35.2 11 32 11Z"/>
	<g fill="#00c09f">
		<path d="M54.7 16c0-1.3-.5-2.6-1.5-3.5-.9-.9-2.2-1.5-3.5-1.5s-2.6.5-3.5 1.5L28.5 30.3c-1.9 1.9-1.9 5.1 0 7.1s5.1 1.9 7 0l17.7-17.8c.9-.9 1.5-2.2 1.5-3.5Z"/>
		<circle cx="49.6" cy="33" r="5.8"/>
	</g>
</svg>