<svg viewBox="0 0 200 50" xmlns="http://www.w3.org/2000/svg">
	<path fill="#60CD18" d="M45 0h109.804v50H45V0z"/>
	<path fill="#fff" d="M79.7771 15.629l-4.7559 3.5053c-2.2465-1.9069-5.1475-2.2807-6.7377-2.2807-1.5902 0-3.3091.4554-3.561 1.6003-.2537 1.1104.7924 1.974 2.5885 2.4548 2.048.5443 3.9139 1.0269 6.7873 1.8361 4.2724 1.2029 7.1936 3.0281 7.1936 7.2573 0 5.8313-5.2449 8.854-12.2712 8.854s-11.8135-3.6124-13.2364-5.2979l5.028-3.7103c3.5315 3.039 5.9876 3.4672 8.0411 3.4672 2.355 0 4.5574-.4989 4.8405-1.8143.2298-1.056-.6582-1.896-2.6638-2.3587-2.2705-.5171-4.1861-.9325-6.3241-1.4877-5.7946-1.5005-7.4289-4.8262-7.4289-7.8126 0-4.113 3.879-8.3368 10.9733-8.3368 7.2745 0 11.5341 4.1131 11.5341 4.1131l-.0074.0109zm30.3219-3.7122H88.89v26.1646h21.592v-6.0309H96.3373v-4.2129h9.7437V22.068h-9.7437v-4.1729h13.7567l.005-5.9783zM83.4024 44.1176h1.6546V5.88235h-1.6546V44.1176zm29.8646 0h1.655V5.88235h-1.655V44.1176zm5.478-6.0362h17.031c4.554 0 8.244-2.7088 8.244-7.0469 0-3.3838-2.245-5.6245-5.391-6.6169-.1-.0214-.202-.0342-.305-.0381.103-.0093.205-.0269.305-.0526 1.802-.704 3.799-2.5782 3.799-5.7696 0-4.0478-3.629-6.6296-8.108-6.6296h-15.575v26.1537zm7.483-20.7143h5.949c1.369 0 2.478 1.0668 2.478 2.2933s-1.103 2.297-2.478 2.297h-5.949v-4.5903zm7.276 14.9011h-7.276v-4.7699h7.276c.624.0241 1.215.2858 1.648.7302.433.4445.675 1.0372.675 1.6539 0 .6166-.242 1.2093-.675 1.6538-.433.4445-1.024.7062-1.648.7302v.0018z"/>
</svg>
