<svg viewBox="0 0 200 50" xmlns="http://www.w3.org/2000/svg">
	<path fill="#185491" d="M22.7199 25.5496h2.1731c-.127 1.1853-.5644 2.0744-1.3123 2.667-.7479.5927-1.7075.8891-2.907.8891-1.5099 0-2.6388-.4093-3.4008-1.2136-.762-.8044-1.143-1.9897-1.143-3.5278 0-1.7216.4092-3.0058 1.2418-3.8383.8325-.8326 1.905-1.2418 3.2315-1.2418 1.3405 0 2.3566.3245 3.0621.9595.7056.6351 1.0866 1.4676 1.1289 2.4695h-2.1449c-.0847-.5503-.2822-.9595-.6068-1.2277-.3245-.2681-.7761-.3951-1.3264-.3951-.6774 0-1.2136.2681-1.6087.7903-.4093.5221-.5927 1.3264-.6068 2.413-.0141.9172.1834 1.6369.5785 2.1872.3952.5504.9596.8185 1.6934.8185.5786 0 1.0301-.1552 1.3547-.4798.3245-.3245.5221-.762.5927-1.27Zm8.1422 1.3265h2.0461c-.1975.7055-.5785 1.2559-1.143 1.6369-.5644.381-1.3547.5644-2.3566.5644-1.1007 0-1.9897-.2963-2.6529-.9031-.6632-.6068-.9737-1.5099-.9737-2.7376 0-1.143.3387-2.032 1.0301-2.667.6915-.635 1.6087-.9455 2.7517-.9455 1.0302 0 1.8486.2964 2.4695.9031.6209.6068.9596 1.5523 1.016 2.8364l.0142.3669h-5.1789c.0141.508.1411.9314.4233 1.27.2682.3387.6774.508 1.1995.508.3528 0 .6491-.0705.889-.2258.2117-.1411.381-.3527.4657-.6067Zm-2.9916-2.0603h3.0763c-.0142-.5221-.1412-.9313-.381-1.2136-.2399-.2822-.5786-.4233-1.0302-.4233-.508 0-.889.1411-1.1712.4375-.2822.2963-.4375.6914-.4939 1.1994Zm6.4912-2.7376h4.0217c.8044 0 1.3829.1552 1.7075.4375.3387.2963.508.6914.508 1.1994 0 .4375-.127.8044-.3951 1.0725s-.5927.4374-.9737.508v.0423c.5644.127.9737.3246 1.2277.5927s.381.6632.381 1.1712c0 .5927-.1835 1.0302-.5645 1.3124s-1.016.4233-1.905.4233h-4.0076v-6.7593Zm2.0179 1.3547v1.2841h1.0442c.4093 0 .6915-.0564.8608-.1693.1694-.1129.2399-.2681.2399-.4516 0-.2257-.0846-.3951-.254-.508-.1693-.1129-.4374-.1552-.8043-.1552h-1.0866Zm0 2.5542v1.4816h1.2559c.3669.0141.635-.0423.8326-.1552.1975-.1129.2963-.2963.2963-.5362 0-.2822-.0988-.4798-.2822-.6068-.1835-.127-.4798-.1834-.8749-.1834h-1.2277Zm10.527.889h2.0462c-.1976.7055-.5786 1.2559-1.143 1.6369-.5645.381-1.3547.5644-2.3566.5644-1.1007 0-1.9897-.2963-2.6529-.9031-.6633-.6068-.9878-1.5099-.9737-2.7376 0-1.143.3386-2.032 1.0301-2.667.6915-.635 1.6087-.9455 2.7517-.9455 1.0301 0 1.8486.2964 2.4695.9031.6209.6068.9596 1.5523 1.016 2.8364l.0141.3669h-5.1788c.0141.508.1411.9314.4233 1.27.2681.3387.6773.508 1.1995.508.3527 0 .6491-.0705.889-.2258.2116-.1411.3951-.3527.4656-.6067Zm-2.9774-2.0603h3.0762c-.0141-.5221-.1411-.9313-.381-1.2136-.2399-.2822-.5785-.4233-1.0301-.4233-.508 0-.889.1411-1.1712.4375-.2823.2963-.4516.6914-.4939 1.1994Zm6.4912-2.7376h1.905l-.0141.8044h.0423c.2681-.3387.5927-.6068.9596-.7903.3669-.1834.7761-.2822 1.2277-.2822.9454-.0141 1.6933.3246 2.2437.9878.5503.6491.8184 1.5381.8184 2.6529 0 1.0866-.2822 1.9615-.8467 2.6247-.5644.6633-1.3123.9878-2.2578.9878-.381 0-.762-.0705-1.1289-.2258-.381-.1552-.6773-.3951-.9031-.7055v3.1468h-2.0179v-9.2006h-.0282Zm1.9191 3.3585c0 .7338.1411 1.2983.4233 1.6934.2823.3951.6633.5926 1.1572.5926.4797 0 .8749-.1975 1.143-.5926.2822-.3951.4233-.9596.4233-1.6934 0-.762-.1552-1.3265-.4515-1.6933-.2964-.3669-.6774-.5645-1.1289-.5645-.4657 0-.8326.1834-1.129.5645-.2963.3668-.4374.9313-.4374 1.6933Zm8.5938.5362v2.8505h-2.0179v-6.7452h2.0179v2.5401h2.4271v-2.5401h2.0179v6.7452h-2.0179v-2.8505h-2.4271Zm6.1243-3.8947h2.0179v2.3848h1.27c1.0302 0 1.7639.1976 2.2155.5927s.6773.9596.6915 1.6934c0 .6773-.1976 1.1994-.5927 1.5522s-1.016.5221-1.8627.5221h-3.7395v-6.7452Zm2.0179 3.7536v1.651h.9172c.4093 0 .7056-.0705.8891-.1975.1834-.127.2822-.3246.2822-.5927 0-.2963-.1129-.508-.3246-.6491-.2116-.1411-.508-.2117-.9031-.2117h-.8608Zm4.9107-3.7536h2.018v6.7452h-2.018v-6.7452Zm5.701 4.3886 2.7658-4.3886h2.1308v6.7452h-2.0179v-4.3745l-2.7517 4.3745h-2.1449v-6.7452h2.0179v4.3886Zm-1.1712-6.9286h1.4675c0 .2963.1129.5221.3387.6773.2258.1411.4939.2258.8185.2258.3386 0 .6209-.0847.8325-.2399.2117-.1552.3105-.381.3105-.6491h1.4817c-.0706.5644-.3246 1.016-.762 1.3406-.4375.3245-1.0584.4939-1.8627.4939-.8185 0-1.4535-.1694-1.905-.4939-.4798-.3387-.6915-.8044-.7197-1.3547Zm15.2966 5.2917v3.9935h-2.1872v-9.2852h2.1872v3.4855h3.3726v-3.4855h2.1873v9.2993h-2.1873v-4.0076h-3.3726Zm9.4974-.5644h-1.92c.029-.8326.325-1.4394.904-1.8345.564-.3951 1.326-.5927 2.271-.5927 1.087 0 1.863.2117 2.357.635.494.4234.734 1.0584.734 1.891l-.043 3.0621c-.014.508.015.8326.085 1.0019.057.1552.169.254.325.2822v.1129h-2.131l-.169-.6632h-.043c-.226.2822-.536.508-.931.6632s-.833.254-1.327.254c-.776.0141-1.354-.1693-1.749-.5221-.395-.3387-.579-.8184-.593-1.4393 0-.5645.169-1.0161.536-1.3688.367-.3387 1.016-.5927 1.962-.7338 1.227-.1835 1.862-.3246 1.947-.3951.071-.0847.113-.1976.127-.3669v-.1835c-.014-.2681-.113-.4939-.296-.6491-.184-.1552-.438-.2399-.791-.2399-.395 0-.705.0847-.917.2681-.24.1835-.338.4516-.338.8185Zm2.328 1.778v-.4233c-.226.0987-.367.1552-.452.1975-.084.0282-.367.0847-.86.1694-.41.0705-.72.1834-.904.3386-.183.1552-.282.3669-.268.635 0 .2681.099.4657.297.5927.197.127.437.1976.733.1976.381 0 .734-.1411 1.016-.4375.283-.2963.438-.7197.438-1.27Zm3.669-3.9653h1.905l-.014.8044h.042c.268-.3387.593-.6068.96-.7903.367-.1834.776-.2822 1.227-.2822.946-.0141 1.694.3246 2.244.9878.55.6491.819 1.5381.819 2.6529 0 1.0866-.283 1.9615-.847 2.6247-.565.6633-1.313.9878-2.258.9878-.381 0-.762-.0705-1.129-.2258-.381-.1552-.677-.3951-.903-.7055v3.1468h-2.046v-9.2006Zm1.919 3.3585c0 .7338.141 1.2983.423 1.6934.283.3951.664.5926 1.157.5926.48 0 .875-.1975 1.143-.5926.283-.3951.424-.9596.424-1.6934 0-.762-.155-1.3265-.452-1.6933-.296-.3669-.677-.5645-1.129-.5645-.465 0-.832.1834-1.129.5645-.296.381-.437.9313-.437 1.6933Zm9.963 3.6407c-1.101-.0141-2.004-.3245-2.682-.9313-.677-.6068-1.016-1.5099-1.016-2.7094 0-1.1148.325-1.9897.96-2.6388.635-.635 1.552-.9737 2.723-.9737 1.101 0 1.99.3105 2.667.9172.678.6209 1.017 1.51 1.017 2.6953 0 1.1995-.353 2.0885-1.031 2.7094-.677.6209-1.552.9454-2.638.9313Zm0-1.3547c.522.0142.917-.1693 1.185-.5503s.423-.9596.409-1.7357c0-.762-.141-1.3265-.409-1.6933-.268-.3669-.663-.5786-1.185-.5645-.508.0141-.904.1976-1.186.5645-.268.3668-.409.9313-.409 1.6933 0 .7761.141 1.3547.409 1.7357s.663.5645 1.186.5503Zm4.191-.254h.889c.352-.5362.621-1.1289.79-1.7921.169-.6632.254-1.4535.254-2.3425v-1.2418h5.771v5.4047h1.115l-.113 3.1044h-1.721v-1.778H127.2v1.7498h-1.722l-.098-3.1045Zm5.701-4.0358h-1.905v.7056c0 .6491-.071 1.2559-.212 1.8062-.141.5504-.339 1.0584-.593 1.524h2.71v-4.0358Zm6.082 2.54v2.8505h-2.018v-6.7452h2.018v2.5401h2.427v-2.5401h2.018v6.7452h-2.018v-2.8505h-2.427Zm6.124-3.8947h2.018v2.3848h1.27c1.03 0 1.764.1976 2.215.5927.452.3951.678.9596.692 1.6934 0 .6773-.198 1.1994-.593 1.5522-.395.3528-1.016.5221-1.863.5221h-3.739v-6.7452Zm2.018 3.7536v1.651h.917c.409 0 .706-.0705.889-.1975.183-.127.282-.3246.282-.5927 0-.2963-.113-.508-.324-.6491-.212-.1411-.508-.2117-.903-.2117h-.861Zm4.911-3.7536h2.017v6.7452h-2.017v-6.7452Zm5.715 4.3886 2.765-4.3886h2.131v6.7452h-2.018v-4.3745l-2.751 4.3745h-2.145v-6.7452h2.018v4.3886Zm-1.186-6.9286h1.468c0 .2963.113.5221.339.6773.225.1411.493.2258.818.2258.339 0 .621-.0847.833-.2399.211-.1552.31-.381.31-.6491h1.482c-.071.5644-.325 1.016-.762 1.3406-.438.3245-1.059.4939-1.863.4939-.819 0-1.454-.1553-1.905-.4939-.466-.3387-.692-.8044-.72-1.3547Zm15.311 1.8062v1.6369h2.244c1.199 0 2.088.2682 2.667.8185.578.5503.861 1.2841.861 2.2155 0 .9313-.311 1.6228-.946 2.1026-.635.4656-1.496.7055-2.582.7055h-4.431v-9.2852h7.225v1.8062h-5.038Zm0 3.4432v2.2296h1.778c.565 0 .974-.0847 1.242-.2399.268-.1694.395-.4375.395-.8044 0-.3951-.127-.6914-.395-.889-.268-.1975-.663-.2963-1.2-.2963h-1.82Zm9.215-.5221h-1.919c.028-.8326.324-1.4394.903-1.8345.564-.3951 1.326-.5927 2.272-.5927 1.086 0 1.862.2117 2.356.635.494.4234.734 1.0584.734 1.891l-.042 3.0762c-.014.508.014.8326.084 1.0019.057.1552.17.254.325.2822v.1129h-2.131l-.169-.6632h-.043c-.225.2822-.536.508-.931.6632-.395.1553-.833.254-1.326.254-.777.0141-1.355-.1693-1.75-.5221-.395-.3387-.579-.8184-.593-1.4393-.014-.5645.169-1.016.536-1.3688.367-.3387 1.016-.5927 1.962-.7338 1.228-.1835 1.863-.3246 1.947-.3951.071-.0847.113-.1976.127-.3669v-.1835c-.014-.2681-.113-.4939-.296-.6491-.184-.1552-.438-.2399-.79-.2399-.396 0-.706.0847-.918.2681-.24.1694-.352.4375-.338.8044Zm2.328 1.778v-.4233c-.226.0987-.367.1552-.451.1975-.085.0282-.367.0847-.861.1694-.41.0705-.72.1834-.903.3386-.184.1552-.283.3669-.269.635 0 .2681.099.4657.297.5927.197.127.437.1976.734.1976.381 0 .733-.1411 1.016-.4375.282-.2963.437-.7197.437-1.27Zm5.673-.0706v2.8505h-2.018v-6.7452h2.018v2.5401h2.427v-2.5401h2.018v6.7452h-2.018v-2.8505h-2.427Zm8.184-1.1712 2.159-2.7235h2.244l-2.766 3.161L200 28.8234h-2.356l-2.188-2.9492-.042-.0142v2.9493h-2.018v-6.7311h2.018v2.7094l.042.0141Z"/>
	<path fill="#F2CD13" d="M.691898 18H11.233c.4798 0 .8608.3951.8608.8608v10.5411c0 .381-.3104.6915-.6914.6915H.691898c-.381006 0-.69145444-.3105-.69145444-.6915V18.6915C-.0136677 18.3104.310892 18 .691898 18Z"/>
	<path fill="#185491" d="m3.99389 18 2.70937 4.4733v1.2136L3.24599 18h.7479Zm1.22769 0 1.48168 2.4554v.8749L4.68535 18h.53623Zm1.04423 0 .43745.7338v.6773L5.84247 18h.42334Zm1.22769 9.4969h-.84668l-1.34058-2.3142v2.3142h-.79023v-3.4855h.98779l1.18535 1.9615v-1.9615h.80435v3.4855Zm.66323-3.4855h1.7498c.36687 0 .64917.0847.81847.2399s.254.3669.254.6491c0 .1694-.0423.3246-.1411.4516s-.2399.2117-.4375.2822c.2399.0565.4234.1552.5504.3105.127.1552.1975.3527.1975.5785 0 .3105-.0988.5504-.3104.7197-.2117.1693-.5504.254-1.03015.254H8.15673v-3.4855Zm.81845.6774v.6914h.76202c.127 0 .22578-.0282.2963-.0988.0706-.0705.1129-.1552.1129-.254 0-.0987-.0423-.1834-.1129-.2399-.07052-.0564-.18342-.0987-.32453-.0987 0 .0141-.73379.0141-.73379 0Zm0 1.3405v.7903h.84668c.11289 0 .22574-.0283.31044-.0988.0988-.0706.1411-.1693.1411-.2963 0-.1412-.0423-.2399-.1411-.2964-.0847-.0705-.22577-.0988-.42333-.0988h-.73379Zm-8.015219.3387h.818459c0 .1693.05644.2963.16933.3951.11289.0988.29634.1552.53623.1552.21167 0 .3669-.0282.46568-.0846.09877-.0565.15522-.1552.15522-.2822 0-.1129-.04233-.2117-.14111-.2964-.09878-.0705-.33867-.1693-.73379-.254-.46567-.1129-.77612-.2399-.93135-.3951-.15522-.1411-.22578-.3669-.22578-.6632 0-.3387.127-.5927.38101-.7762.254-.1693.60678-.254 1.04423-.254.39512 0 .71968.0988.95957.2823.23989.1975.35279.4515.3669.762h-.77613c-.01411-.1129-.07055-.2117-.16933-.2823-.09878-.0705-.23989-.0987-.42334-.0987-.16934 0-.31045.0282-.39512.0846-.09878.0565-.14111.1412-.14111.2399 0 .0988.04233.1835.127.254.08467.0706.26812.127.56445.1835.53623.1129.88902.2399 1.07246.4092.18345.1693.26812.3951.26812.6774 0 .3527-.127.635-.3669.8466-.23989.2117-.60678.3105-1.10068.3105-.46567 0-.83256-.0988-1.10068-.3105-.28223-.1975-.423339-.508-.423339-.9031Z"/>
</svg>