<svg viewBox="0 0 200 50" xmlns="http://www.w3.org/2000/svg">
	<path fill="#1D1D1B" d="M142.893 30.833c3.075 0 5.508-2.3783 5.508-5.5225 0-3.1286-2.433-5.534-5.508-5.534-3.087 0-5.534 2.4054-5.534 5.534 0 3.1442 2.447 5.5225 5.534 5.5225Zm-1.14-18.5117c2.837-.3472 3.922-.598 5.355-1.3213l.583 1.7399c-1.696.8757-3.253 1.14-5.604 1.4447-2.67.3472-4.797 2.1006-4.797 6.566v.2353c1.152-2.0716 3.253-3.2251 5.63-3.2251 4.313 0 7.636 3.3505 7.636 7.5652 0 4.2011-3.323 7.5227-7.69 7.5227-4.34 0-7.65-3.337-7.65-7.5227v-4.6043c0-5.4511 2.88-7.9548 6.537-8.4004Zm-96.9844 5.4646c-4.2655 0-7.479 3.3756-7.479 7.5324 0 4.1162 3.1742 7.5073 7.4928 7.5073 2.1066 0 3.9248-.7928 5.2107-1.983l-1.7382-2.4882c-.9146.7657-1.9407 1.2711-3.3086 1.2711-2.2693 0-4.1963-1.844-4.1963-4.3072 0-2.4999 1.913-4.3478 4.1963-4.3478 1.3404 0 2.3654.4938 3.2958 1.2982l1.751-2.5018c-1.2996-1.1882-3.0783-1.981-5.2245-1.981Zm16.423 5.4954v9.1488h3.4732V18.0868h-3.4732l-6.6446 8.6415v-8.6415h-3.4735v14.3433h3.2403l6.8778-9.1488Zm5.2866-5.1945h3.4725v5.3855h6.6456v-5.3855h3.485v14.3414h-3.485v-5.8099h-6.6456v5.8099h-3.4725V18.0868Zm26.5437 7.2045c0 2.4342-1.831 4.1722-4.1154 4.1722-2.2833 0-4.0473-1.738-4.0473-4.1722 0-2.4189 1.7768-4.2108 4.0473-4.2108 2.2962 0 4.1154 1.7919 4.1154 4.2108Zm-4.4167-7.5054c-3.9374 0-7.2055 3.3216-7.2055 7.4938 0 4.1683 3.2541 7.4918 7.2055 7.4918 1.9011 0 3.3649-.8217 4.4036-2.0234l.246 1.682h3.0498V18.1003h-3.0378l-.2184 1.7379c-1.038-1.219-2.5016-2.0523-4.4432-2.0523Zm16.8968 11.6776c2.284 0 4.048-1.738 4.048-4.1722 0-2.4189-1.777-4.2108-4.048-4.2108-2.296 0-4.115 1.7919-4.115 4.2108 0 2.4342 1.832 4.1722 4.115 4.1722Zm-3.897 1.5161v6.3036h-3.4872v-4.8531l-.0138-8.3406.0138-.0135v-5.9757h2.9942l.247 1.7379c1.025-1.219 2.503-2.0523 4.444-2.0523 3.939 0 7.206 3.3216 7.206 7.4938 0 4.1703-3.254 7.4918-7.206 7.4918-1.777 0-3.173-.7117-4.198-1.7919Zm24.084-5.6883c0 2.4342-1.831 4.1722-4.115 4.1722-2.285 0-4.048-1.738-4.048-4.1722 0-2.4189 1.778-4.2108 4.048-4.2108 2.297 0 4.115 1.7919 4.115 4.2108Zm-4.416-7.5054c-3.938 0-7.205 3.3216-7.205 7.4938 0 4.1683 3.253 7.4918 7.205 7.4918 1.899 0 3.364-.8217 4.403-2.0234l.247 1.682h3.048V18.1003h-3.035l-.22 1.7379c-1.038-1.219-2.501-2.0523-4.443-2.0523Zm42.151 7.5111c0 3.1152-1.975 5.4241-4.882 5.4241-2.878 0-4.755-2.3089-4.755-5.4241 0-3.1016 1.89-5.453 4.77-5.453 2.892 0 4.867 2.3514 4.867 5.453Zm-5.021-7.5381c-3.921 0-6.772 3.3254-6.772 7.5246 0 4.2147 2.837 7.5228 6.772 7.5228 2.197 0 3.854-1.0706 4.923-2.6542v2.3205h2.114l.013-6.7994v-7.6076h-2.167v2.2799c-1.059-1.5431-2.699-2.5866-4.883-2.5866Zm9.177.3067h2.156v6.078h8.594v-6.078h2.168v14.4089h-2.168v-6.3693h-8.594v6.3693h-2.156V18.0656Zm17.073 0h-2.156v14.4089h2.156v-6.3152h3.033l4.797 6.3152H195l-5.646-7.4533 4.923-6.9556h-2.545l-4.089 6.0355h-2.99v-6.0355Z"/>
	<path fill="#E40134" d="M28.2728 12.4887c-8.6603 1.8395-15.1202 6.4603-14.4289 10.3196.2163 1.2047 1.1052 2.1924 2.4858 2.9258l-.0049.0211-.0217-.0232-.005.0232c-3.7173-.6277-6.48455-2.3516-7.33389-4.9893-.92735-2.8842-.17183-6.0862 2.32089-8.8274H5v26.7c1.12092-.1232 2.26554-.288 3.44276-.5389C17.102 36.2594 23.5629 31.6393 22.8706 27.78c-.2163-1.204-1.1041-2.1924-2.4878-2.9266l.0069-.0211.0218.0247.0049-.0239c3.7173.6284 6.4846 2.3523 7.3339 4.9892.9294 2.8857.1709 6.0877-2.3238 8.8311h6.289V11.949c-1.1209.124-2.2655.2896-3.4427.5397Z"/>
</svg>