<svg xmlns="http://www.w3.org/2000/svg" viewBox="0 0 200 50">
	<path fill="#FDB913" d="M52.0101 19.1411l4.6842-.0047c.9053 0 1.708-.2508 2.324-.6708.6557-.4224 1.1468-1.05 1.4385-1.7629l2.4103-6.5835-4.5196.0024c-.9007 0-1.701.1668-2.3544.5903-.6988.42-1.288 1.2133-1.4665 1.8025l-2.5165 6.6267z"/>
	<path fill="#004282" d="M63.9963 15.3763l-.9683 2.4325c-.4142.9229-1.1667 1.9297-1.6532 2.2657-.9473.7117-2.303 1.3417-3.7812 1.3452l-8.9565.0081 2.422-7.5378.9684-2.4325c.4141-.9228 1.1655-1.92966 1.6485-2.26683.9531-.7105 2.303-1.34283 3.7823-1.34283l8.4362-.00934-1.8982 7.5378zM78.0021 4.13901H49.651c-1.5634 0-3.6552.44916-5.3912 1.66716C42.665 6.981 42.3593 8.06834 41.7445 9.3295c-.1039.24967-.2999.58567-.3885.8808l-3.8489 11.2245-1.2926 3.6925h29.19c1.5598-.0023 3.654-.448 5.3911-1.6671 1.5878-1.1749 1.9028-2.2657 2.5095-3.5222.1062-.2532.3045-.5892.3932-.8808l4.3038-14.84819h-.0257l.0257-.07zM93.0139 25.112c-3.3099 0-5.5242-.4515-7.2532-2.5924-1.2787-1.5691-1.946-3.6528-1.946-7.6918 0-3.5303.3337-6.18331 1.8527-8.08497C87.6099 4.27067 90.7062 4 93.1037 4h8.9883v4.011h-5.6796c-2.2447 0-3.913-.02917-4.8569 1.65783-.6101 1.05697-.6976 4.01097-.6976 5.03647 0 2.3532.3336 4.3773.5133 4.7378.9135 1.6579 2.8863 1.6579 5.1613 1.6579h5.8945v4.011h-9.4131zM118.176 4v8.3055h-6.768V4h-6.862v21.112h6.862v-8.799h6.768v8.799h6.858V4h-6.858zM128.897 25.112V7.85816c0-.9345.029-1.95883.849-2.83266C130.293 4.4515 131.235 4 132.27 4h11.256v4.011h-6.341c-.425 0-.973-.02917-1.246.29866-.182.24267-.182.69533-.182 1.057V25.112h-6.86zM151.716 20.1256c0 1.4759.483 1.3872 1.457 1.3872h2.148c.392 0 1.152 0 1.579-.392.395-.3605.395-1.7605.395-2.1222 0-.4841 0-2.5234-.46-2.8548-.453-.364-1.122-.364-1.514-.364h-3.605v4.3458zm11.375-12.11461H153.02c-1.276 0-1.304.48184-1.304 1.26584v2.74637h7.911c1.64 0 2.856.6638 3.492 1.3883 1.124 1.2938 1.214 3.5548 1.214 4.9735 0 1.8095-.152 3.7718-1.181 5.096-.276.364-1.368 1.6286-3.465 1.6286h-11.858c-1.762 0-2.975-1.2378-2.975-2.9528V7.3775c0-3.19667 2.552-3.3775 3.307-3.3775h14.928v4.01099h.002zM36 35.6074v8.3475c.1867.0151.4142.0291.6837.0466.2706.0175.5693.0257.896.028.3768.0012.7431-.028 1.1025-.091.3558-.0618.6883-.161.994-.3021.308-.14.5763-.3279.8015-.5612.1983-.2077.3546-.4597.4713-.7513.1167-.2917.1762-.6312.1773-1.0197-.0011-.364-.056-.6813-.1645-.9578-.1073-.2765-.2578-.5122-.448-.7094-.1925-.1983-.4165-.3605-.672-.4876-.2975-.1482-.6241-.2555-.9811-.3209-.3559-.07-.721-.1015-1.0979-.1003-.0653 0-.1505.0023-.2531.0035-.1039.0058-.2135.0093-.3279.014-.1155.007-.224.0128-.3278.021-.1003.007-.1878.014-.2532.0245v-2.6763h3.8652v-.5075H36zm.5997 3.6913c.1166-.0128.2403-.0245.3745-.0338.1353-.0082.2683-.0164.3955-.021.1283-.0059.2426-.0082.3418-.0082.35-.0023.6848.028 1.0045.0933.3173.0642.6078.1692.8668.3162.1902.1073.3524.2392.4924.3967.1376.1575.2461.343.3208.5576.0782.2159.1167.462.1167.7444-.0012.2963-.0479.56-.1377.7898-.091.231-.2158.4293-.3757.5973-.1738.182-.3838.3325-.6265.4504-.2438.1201-.5051.2088-.784.2683-.2788.0572-.56.0863-.84.0863-.2485 0-.4643-.0058-.6486-.0186-.1832-.0129-.3489-.0315-.5017-.056v-4.1627h.0012zm10.8861 1.7208l1.1632 2.9354h.6241l-3.3028-8.3475h-.588l-3.3273 8.3475h.6242l1.1375-2.9354h3.6691zm-3.4615-.5075l1.1737-2.9726c.0653-.1669.1248-.3185.1785-.462.0525-.1435.1003-.2823.1458-.4153.0455-.1342.0887-.273.1295-.4119h.0245c.0409.133.0817.2684.1225.4014.042.133.0899.2741.1424.4223.0525.1505.1143.3173.1878.5016l1.162 2.9365h-3.2667zm6.5683-4.9046v8.3475h.5997v-4.186h5.1613v4.186h.5997v-8.3475h-.5997v3.654h-5.1613v-3.654h-.5997zm8.5132 0v8.3475h.5985v-4.025h.3908c.4457 0 .8284.0455 1.1504.1353.322.0887.5973.2217.8271.392.2275.1738.427.385.5904.6323.1656.2485.3126.5309.441.8482.0945.224.1901.4538.2893.6872.0992.2356.2042.4655.3103.6918.1062.2263.217.4398.3302.6393h.6358c-.1201-.224-.2321-.4515-.3371-.679-.1015-.2228-.2042-.462-.3092-.707-.1062-.2461-.2205-.5098-.3442-.7933-.1388-.3173-.287-.6078-.4491-.8715-.1622-.2625-.35-.4935-.567-.6918-.2159-.1984-.4737-.3594-.777-.4807-.301-.1213-.6627-.2007-1.0827-.2357l3.6575-3.8884h-.7093l-3.5467 3.8394h-.5017v-3.8394h-.5973v-.0012zm9.6997 0v8.3475h.5996v-4.186h5.1613v4.186h.5997v-8.3475h-.5997v3.654h-5.1613v-3.654h-.5996zm13.2334 5.4121l1.162 2.9354h.6242l-3.3028-8.3475h-.5869l-3.3273 8.3475h.6242l1.1386-2.9354h3.668zm-3.4615-.5075l1.1749-2.9726c.0653-.1669.1236-.3185.1773-.462.0537-.1435.1015-.2823.1458-.4153.0455-.1342.0887-.273.1284-.4119h.0245c.0408.133.0805.2684.1225.4014.042.133.0886.2741.1423.4223.0525.1505.1132.3173.1867.5016l1.162 2.9365h-3.2644zm6.5684-4.9046v8.3475h8.6485v-8.3475h-.5997v7.8411h-3.4253v-7.8411h-.5997v7.8411h-3.4253v-7.8411h-.5985zm15.0702 3.6913h-3.6707v-3.1838h3.8777v-.5075h-4.4774v8.3475h4.6854v-.5075h-4.0857v-3.6412h3.6707v-.5075zm1.981-3.6913v8.3475h.599v-7.8412h3.792v-.5075h-4.391v.0012zm8.72 8.4968c.431 0 .851-.0618 1.257-.1832.406-.1236.785-.3056 1.139-.5483.35-.2392.66-.5378.925-.896.267-.3582.473-.7688.623-1.239.149-.4678.226-.9917.228-1.5703-.002-.6044-.102-1.1609-.301-1.6719-.198-.511-.476-.9555-.84-1.3358-.365-.378-.795-.6743-1.296-.8843-.499-.2112-1.053-.3173-1.661-.3197-.47.0024-.917.07-1.337.2089-.421.1376-.804.336-1.15.5973-.347.2578-.647.5693-.899.9333-.256.3652-.449.7747-.588 1.2262-.139.455-.207.9438-.211 1.47.005.6136.106 1.1748.312 1.687.203.511.487.9578.857 1.3346.368.3769.802.6674 1.297.875.499.2077 1.042.3139 1.631.3162h.014zm0-.4958c-.428-.0024-.827-.0689-1.187-.2007-.364-.1295-.686-.3138-.969-.5483-.283-.2357-.523-.511-.722-.8237-.198-.315-.349-.6557-.452-1.022-.103-.3675-.156-.7513-.156-1.1468 0-.413.047-.812.143-1.1959.093-.385.237-.7419.426-1.0698.186-.3278.423-.6148.707-.8633.283-.245.613-.4375.988-.5752.378-.1365.802-.2065 1.271-.21.466.0035.887.0747 1.262.2182.372.1423.7.3383.978.5892.279.2473.513.5319.7.8516.187.3208.326.6627.419 1.022.091.3593.139.7198.139 1.0873-.002.5565-.084 1.071-.246 1.5412-.162.4725-.399.8832-.705 1.2343-.308.3524-.679.6242-1.112.8179-.437.1936-.926.2928-1.472.2951h-.012v-.0011zm8.648-8.001v8.3475h.599v-7.8412h3.793v-.5075h-4.392v.0012zm8.722 8.4968c.43 0 .85-.0618 1.256-.1832.405-.1236.785-.3056 1.138-.5483.351-.2392.66-.5378.925-.896.267-.3582.475-.7688.624-1.239.148-.4678.225-.9917.228-1.5703-.003-.6044-.101-1.1609-.3-1.6719-.199-.511-.477-.9555-.84-1.3358-.365-.378-.796-.6743-1.296-.8843-.5-.2112-1.054-.3173-1.662-.3197-.471.0024-.917.07-1.337.2089-.419.1376-.802.336-1.149.5973-.348.2578-.646.5693-.899.9333-.256.3652-.45.7747-.588 1.2262-.138.455-.208.9438-.21 1.47.004.6136.106 1.1748.31 1.687.205.511.49.9578.857 1.3346.37.3769.803.6674 1.3.875.497.2077 1.041.3139 1.63.3162h.013zm0-.4958c-.43-.0024-.827-.0689-1.189-.2007-.363-.1295-.685-.3138-.968-.5483-.284-.2357-.523-.511-.721-.8237-.199-.315-.349-.6557-.453-1.022-.103-.3675-.155-.7513-.155-1.1468 0-.413.046-.812.142-1.1959.093-.385.237-.7419.426-1.0698.187-.3278.425-.6148.707-.8633.283-.245.612-.4375.989-.5752.377-.1365.802-.2065 1.27-.21.466.0035.886.0747 1.262.2182.372.1423.7.3383.979.5892.279.2473.512.5319.699.8516.187.3208.325.6627.42 1.022.091.3593.138.7198.138 1.0873-.002.5565-.084 1.071-.247 1.5412-.161.4725-.397.8832-.703 1.2343-.308.3524-.679.6242-1.113.8179-.437.1936-.926.2928-1.472.2951h-.011v-.0011zm5.712.3465h.599V40.4c.171.0537.357.0887.556.1039.197.0163.406.0233.619.021.365 0 .707-.035 1.033-.1039.321-.0688.615-.1691.879-.301.266-.1341.493-.3021.682-.5005.209-.21.366-.4585.475-.7455.106-.2846.161-.6113.161-.9765-.003-.3406-.06-.6474-.173-.9193-.117-.2695-.278-.5063-.488-.7046-.244-.2369-.564-.4189-.961-.5495-.398-.1272-.873-.1914-1.423-.1937-.382.0023-.737.0163-1.067.0478-.33.0304-.625.0689-.891.1132v8.2635h-.001zm.599-7.8027c.124-.0268.303-.0525.53-.0735.23-.0245.503-.035.816-.0373.337-.0023.653.0303.946.0992.296.0688.557.1773.783.3278.226.1505.406.3488.534.5961.128.2485.194.5507.196.9089 0 .4316-.1.8003-.298 1.1025-.198.3033-.487.5366-.866.6976-.381.1622-.845.2415-1.392.2439-.235 0-.458-.0105-.671-.0327-.212-.0233-.404-.0607-.576-.1167v-3.7158h-.002zm9.602 7.952c.429 0 .851-.0618 1.255-.1832.406-.1236.786-.3056 1.138-.5483.352-.2392.66-.5378.926-.896.267-.3582.474-.7688.623-1.239.15-.4678.225-.9917.229-1.5703-.004-.6044-.103-1.1609-.301-1.6719-.197-.511-.476-.9555-.84-1.3358-.365-.378-.795-.6743-1.295-.8843-.501-.2112-1.054-.3173-1.663-.3197-.47.0024-.917.07-1.337.2089-.42.1376-.802.336-1.15.5973-.346.2578-.646.5693-.899.9333-.256.3652-.45.7747-.587 1.2262-.139.455-.209.9438-.21 1.47.003.6136.106 1.1748.31 1.687.204.511.489.9578.858 1.3346.368.3769.801.6674 1.298.875.497.2077 1.042.3139 1.63.3162h.015zm0-.4958c-.43-.0024-.827-.0689-1.189-.2007-.364-.1295-.685-.3138-.968-.5483-.284-.2357-.524-.511-.721-.8237-.198-.315-.349-.6557-.454-1.022-.103-.3675-.155-.7513-.155-1.1468 0-.413.047-.812.142-1.1959.094-.385.237-.7419.427-1.0698.187-.3278.423-.6148.706-.8633.284-.245.613-.4375.989-.5752.377-.1365.802-.2065 1.271-.21.465.0035.887.0747 1.261.2182.373.1423.699.3383.979.5892.279.2473.513.5319.7.8516.187.3208.325.6627.42 1.022.091.3593.138.7198.138 1.0873-.003.5565-.083 1.071-.247 1.5412-.162.4725-.397.8832-.704 1.2343-.308.3524-.678.6242-1.113.8179-.435.1936-.925.2928-1.471.2951h-.011v-.0011zm6.703-8.001v2.1548c0 .5973-.017 1.141-.047 1.6287-.033.4888-.085.9333-.158 1.3346-.073.4002-.168.7677-.284 1.099-.075.2065-.162.4037-.262.5915-.099.1902-.198.3687-.302.5414-.104.1703-.203.3336-.294.4911h-.599L149.032 46h.489l.062-2.0451h6.005L155.65 46h.489l.073-2.5526h-.722v-7.8412h-4.587v.0012zm.563.5063h3.425v7.3337h-4.695c.078-.1214.163-.259.252-.4154.092-.154.182-.322.268-.4993.087-.1773.166-.3593.237-.5472.121-.3231.219-.6813.295-1.0698.076-.3862.133-.8132.168-1.2775.034-.462.051-.9753.051-1.5307v-1.9938h-.001zm11.081 4.9058l1.162 2.9354h.624l-3.303-8.3475h-.587l-3.327 8.3475h.623l1.139-2.9354h3.669zm-3.462-.5075l1.175-2.9726c.066-.1669.124-.3185.178-.462.052-.1435.101-.2823.146-.4153.045-.1342.087-.273.128-.4119h.024c.04.133.081.2684.122.4014.042.133.089.2741.142.4223.054.1505.114.3173.188.5016l1.162 2.9365h-3.265z"/>
</svg>
