<svg viewBox="0 0 200 50" xmlns="http://www.w3.org/2000/svg">
	<path fill="#7F003F" d="m0 25.1113 3.33301 1c.04687.6084.17285 1.1573.36035 1.6641.13769.3711.30859.7197.50684 1.0517.17382.2911.36718.5694.57714.8399.77832 1 1.88965 1.7773 3 2.4443 1.44532.666 2.99996 1.1114 4.55566 1.333.6035.1348 1.207.1875 1.8106.209.3964.0137.7929.0137 1.1894.0137.334 0 .7783 0 1.2227-.1113.4443-.1114.8886-.1114 1.1113-.1114.3896 0 .751.0284 1.085.0703.333.0411.6376.0967.915.1524v-.4443C17.333 32 14.8887 30.7773 12.333 29.667c-2.88866-1.334-5.88866-2.4443-8.99999-3.5557v-1.2226c1.05859.3398 2.11719.706 3.16699 1.0937 2.03516.751 4.0381 1.5821 5.9443 2.4619 2.5557 1.1114 5 2.333 7.333 3.5557v-1.2227c-2.333-1.2216-4.7773-2.4443-7.333-3.5546-1.5156-.6416-3.06246-1.2832-4.63961-1.8926-1.42871-.5518-2.88184-1.0772-4.36035-1.5528 0 .2227-.11133.5557-.11133.8897v.2217L0 23.8887v1.2226Zm0-3.667v1.2227l3.33301 1h.11133c.11132-.334.22265-.7783.333-1.1113-.03808 0-.08984 0-.14648-.0049-.10547-.0088-.22559-.0342-.29785-.1065L0 21.4443ZM0 19v1.2227l3.33301 1c.33398.2216.66699.333 1 .4443-.11035.166-.19336.332-.27637.499-.08398.167-.16797.334-.2793.501 3 1 5.88965 2.1103 8.55566 3.333 2.5557 1.1113 5 2.333 7.334 3.5557V28.333c-2.334-1.2217-4.7783-2.4443-7.334-3.5557-2.55566-1.1103-5.22167-2.2216-7.99999-3.1103l.66699-1c2.55566.8887 5 1.8887 7.333 2.8887 2.0508.8916 3.959 1.8545 5.8965 2.832.4766.2412.9551.4824 1.4375.7236v-1.2226l-1.0752-.5694c-.792-.4209-1.5625-.831-2.377-1.2431-.9111-.461-1.8779-.9248-2.9921-1.4092.4443-.2227 1.666-.4443 2.5546-.4443.8858.1103 1.5498.2216 2.2139.333H18c.4443.1113 1.1113.333 1.667.7773V17c-.7783.333-1.667.333-2.2227.333-.5556 0-1.2216-.2217-3.333-.333-.5556 0-1.2226 0-1.7783.1113-1.666.1114-3.333.666-4.44433 1.333C6.77734 19 5.77734 19.7773 5 20.667c-.55566-.2227-1.11133-.4443-1.66699-.5557C2.22266 19.667 1.11133 19.333 0 19Zm2.33301 13.8896h-.22168v-.4453h.22168c.05273 0 .10547 0 .14648.0235.04492.0263.07617.082.07617.1992.07325.0732.04981.1465-.03711.1885-.04589.0215-.10937.0341-.18554.0341Zm.33398 0c.10645-.0537.16211-.1074.19043-.1611.03125-.0576.03125-.1152.03125-.1728 0-.1084-.02344-.1817-.0625-.2315-.08203-.1015-.23144-.1015-.38183-.1015h-.55567v1.333h.22266V33h.22168c.22265 0 .22265.1113.22265.2227v.333h.22168v-.333c.04981-.0498.05469-.0997.03614-.1485-.02344-.0615-.08496-.123-.14649-.1846ZM2.33301 34c-.55567 0-1.11035-.4443-1.11035-1.1104 0-.6669.44433-1.1113 1.11035-1.1113.55566 0 1.11133.4444 1.11133 1.1113 0 .6661-.55567 1.1104-1.11133 1.1104Zm0-2.333C1.55566 31.667 1 32.2227 1 32.8896c0 .6661.55566 1.3331 1.33301 1.3331.77832 0 1.33398-.5557 1.33398-1.3331 0-.6669-.55566-1.2226-1.33398-1.2226Zm95.88869-3.1113v-6.1114c0-.333.2226-.8886.5556-1.1113h-6c.4444.2227.5557.7783.5557 1.1113v.1114c-1.8662.6582-3.7324 1.4248-5.5996 2.1923l-.0674.0293V22.333c0-.2217.2227-.7773.5557-1h-6c.334.2227.5556.7783.5556 1.1113v6.1114c0 .333-.2216.8886-.5556 1.1103h6c-.333-.2217-.5557-.7773-.5557-1.1103v-.667c1.8897-.7774 3.7783-1.4444 5.667-2.2227v2.8897c0 .333-.2217.8886-.5557 1.1103h6c-.333-.2217-.5556-.7773-.5556-1.1103Zm-20.4033-2.8692c.8564 1.1582 1.7011 2.2832 2.0703 2.7578.1816.2715.3623.4698.5439.5938.041.0283.082.0527.1231.0732.2216.1104.333.333.666.4444h-6.7774v-.1114c.1114 0 .2217-.1113.2217-.333v-.2226c-.0547-.0557-.082-.1114-.1094-.166-.0283-.0557-.0566-.1114-.1123-.167 0-.1114-.1113-.2227-.1113-.2227L72 25h-.1113l-2.333 3.333c-.2227.4443-.334.667-.334.7783 0 .2217 0 .333.1113.4444h-5.4443c.4443-.2227.7773-.4444.8886-.667.4444-.6114 1.6114-2.1944 2.7774-3.7774 1.167-1.584 2.334-3.167 2.7783-3.7783h5.333c-.1494.0498-.2314.167-.2773.29-.0557.1524-.0557.3155-.0557.377 0 .0449.0186.1084.0479.1826.042.1094.1084.2412.1748.3731.3496.5254 1.3134 1.8486 2.2627 3.1308Zm40.6256 5.0908V27.333h-2c-.221-.3877-.858-1.3291-1.496-2.2725-.64-.9462-1.281-1.8935-1.504-2.2832-.111-.1113-.222-.333-.222-.4443 0-.1113-.111-.7773.222-.8887H106c-.667 1-3 4.8887-3.556 5.8887h-2v3.4443c.159-.04.388-.164.653-.3076.477-.2597 1.069-.581 1.569-.581h13.667c.598 0 1.261.3935 1.738.6767.144.085.271.1602.373.2119Zm-8.165-5.2177c.361.582.721 1.164 1.054 1.7734h-5.556c.286-.6289.602-1.2285.916-1.8291.297-.5664.593-1.1328.863-1.7266h1.666c.334.6123.696 1.1973 1.057 1.7823Zm-46.7233 1.6621c.4443-.5557.666-1.2217.666-1.7774 0-.5556-.2217-1.2226-.666-1.7783-.4444-.5547-1-1-1.7784-1.4443-.7773-.4444-1.666-.7774-2.666-1-1.1113-.2217-2.2226-.333-3.334-.333-1.1113 0-2.2216.1113-3.2216.333-1 .2226-1.8897.5556-2.667 1-.7774.4443-1.333.8896-1.7774 1.4443-.4453.5557-.667 1.1113-.667 1.7783 0 .5147.1465 1.0293.4707 1.5118.1651.246.377.4843.6407.7099.7773.667 1.7773 1.2227 3 1.667 1.333.4443 2.666.667 4.2216.667 1.2227 0 2.334-.1113 3.334-.334.4825-.1064.9385-.2392 1.3692-.3984.4619-.1699.8945-.3711 1.2968-.6016.7784-.4443 1.334-.8887 1.7784-1.4443ZM59 24.333c.2217.333.4443.667.4443 1.1113 0 .4444-.2226.7774-.4443 1.1114-.334.333-.7783.5556-1.334.7773-.5547.2227-1.1103.333-1.7773.333s-1.2227-.1103-1.7774-.333c-.5556-.2217-1-.4443-1.334-.7773-.163-.1641-.2734-.3272-.3427-.5039-.0723-.1836-.1016-.3809-.1016-.6075 0-.4443.1113-.7783.4443-1.1113.334-.333.7784-.5557 1.334-.7773.2168-.044.4346-.0879.6582-.125.3487-.0567.7129-.0977 1.1192-.0977.4238 0 .8027 0 1.165.0566.208.0333.4102.085.6123.1661.5557.2216 1 .4443 1.334.7773Zm-16.7783-3.4443h1C43.666 21 44 21 44.1113 21c.666 0 1.1104-.1113 1.5547-.1113v3.5556c-.4443-.2226-1-.4443-1.5547-.5556-.667-.2227-1.2226-.2227-1.8896-.2227-.666 0-1.333.1113-1.7774.334-.1152.0459-.2255.0869-.331.126-.4043.1513-.7383.2763-1.002.54-.334.2227-.5556.5557-.5556.8897 0 .2031.041.3652.1484.5361.0693.1094.166.2227.2959.3525.333.333.7773.4444 1.333.667.1797.0362.3711.0723.5742.1045.4248.0664.9004.1172 1.4258.1172.667 0 1.333-.1113 1.8887-.2217.667-.1113 1.1113-.334 1.5556-.5556v3.5556c-.1835-.0459-.3867-.0732-.6005-.0888C44.874 30 44.5479 30 44.2217 30H42.333c-1.7773 0-3.333-.2227-4.7773-.667-1.4444-.4443-2.5557-1-3.4444-1.667-.7783-.666-1.2226-1.4443-1.2226-2.2217 0-.667.2226-1.2226.667-1.7783.2724-.3398.6279-.6387 1.0673-.9209.2774-.1787.5879-.3515.9327-.5234.8886-.4444 1.8886-.7774 3-1 1.1103-.2217 2.333-.333 3.666-.333Zm87.8893 8.7773h11.445c.888 0 5-.1103 5-2.4443 0-1.5557-1.89-2.666-4.779-2.666h-5.888V23c.777-.2227 5.222-.2227 6-.2227.777 0 1.777 0 2.888.5557-.062-.1875-.133-.3652-.209-.5371-.191-.4414-.409-.8408-.568-1.2402h-13.889c.778.2216.889.7773.889 1.2216v5.667c0 .4444-.111.8887-.889 1.2217Zm9.333-4.4443c1.222 0 2.333.334 2.333 1.7783 0 .8887-.555 1.7773-2.444 1.8887-.333 0-3.222-.1114-3.444-.1114V25.333c.214-.0713 1.48-.0967 2.448-.1064.541-.0049.988-.0049 1.107-.0049Zm24.445 4.4443c-.333-.1103-.556-.333-.667-.4443-.099-.0488-.176-.1211-.251-.2246-.093-.1289-.182-.3067-.305-.5528-.432-.4931-1.548-1.9443-2.569-3.3095-.82-1.0948-1.578-2.1338-1.875-2.5791-.111-.2227-.222-.4444-.222-.5557 0-.1113 0-.5557.333-.667H153c-.889 1.333-4.667 6.4443-5.556 7.667-.111.2217-.444.4443-.888.666h5.555c-.055-.0556-.084-.1113-.097-.1816-.014-.0694-.014-.1524-.014-.2627 0-.0537.026-.1612.079-.2949.056-.1407.141-.3116.254-.4825.111-.2226.223-.333.333-.5556h4c.056.1113.111.1943.167.2773.056.084.111.167.167.2783 0 0 0 .1114.111.2217.111.1113.222.2227.222.334v.2217c0 .1113 0 .334-.222.334v.1103h6.778Zm-8.39-3.2305c.128.1817.259.3682.39.5645h-2.556c.333-.667.778-1.2227 1.223-1.8887h.11c.236.4707.526.8858.833 1.3242Zm25.057-3.9912v6.1114c0 .1748.061.4111.168.6445.095.2109.229.4189.387.5771h-6c.445-.2216.555-.7773.555-1.1113v-2.1103H170v2.1103c0 .334.222.8897.556 1.1113h-6c.204-.1357.367-.3974.463-.6572.059-.1631.092-.3252.092-.4541v-6.1103c0-.334-.222-.8897-.555-1.1114h6c-.334.2217-.556.7774-.556 1.1114v2.1103h5.666v-2.1103c0-.334-.222-.8897-.555-1.1114h6c-.334.1114-.555.667-.555 1Zm18.011 6.5586c.143.0899.276.167.433.2188.222.1113.556.2226 1 .334h-7.556c.222-.1114.222-.2227.112-.334l-.112-.1104c-.055-.0556-.111-.083-.166-.1103-.055-.0283-.111-.0567-.167-.1123-.111-.1114-.222-.2227-.334-.2227-.615-.3916-1.202-.7549-1.79-1.1191-.579-.3584-1.159-.7168-1.765-1.1026v2.2217c0 .334.222.8897.555 1.1113h-6c.445-.2216.556-.7773.556-1.1113v-6.1103c0-.1621-.117-.5-.31-.7578-.072-.0967-.155-.1817-.246-.2422h6c-.333.1103-.555.666-.555 1v2.2216c1.778-1.2216 3.555-2.333 5.334-3.4443h4c-2 .5557-2.556.8887-3.556 1.5557-.546.3271-1.63 1.0849-2.723 1.8496l-.055.039c1 .5557 5.444 3.1114 6.778 3.8887.235.1182.408.2363.567.3369Z"/>
</svg>