<svg xmlns="http://www.w3.org/2000/svg" viewBox="0 0 200 50">
	<path fill="#f36f21" d="M54 15c0 6.1 4.9 11 11 11s11-4.9 11-11c0-6-4.9-11-11-11S54 8.9 54 15zm0 16.8c0 1.6 4.9 2.9 11 2.9s11-1.3 11-2.9c0-1.6-4.9-2.9-11-2.9-6.1-.1-11 1.2-11 2.9zm11 5.8c7.9 0 11 .8 11 1.8 0 1.1-3.1 1.8-11 1.8s-11-.8-11-1.8 3.1-1.8 11-1.8zm0 6.6c9.7 0 11 .2 11 .7 0 .5-1.2.7-11 .7-9.7 0-11-.2-11-.7 0-.5 1.2-.7 11-.7z"/>
	<path fill="#eb690a" d="M65 45.8c-10.7 0-11.1-.3-11.1-.9 0-.7.9-.9 11.1-.9s11.1.2 11.1.9c0 .6-.5.9-11.1.9zm0-1.5c-8.1 0-10.8.1-10.8.6s2.7.6 10.8.6 10.8-.1 10.8-.6-2.8-.6-10.8-.6zm0-2.9c-7.4 0-11.1-.7-11.1-2s3.7-2 11.1-2 11.1.7 11.1 2-3.8 2-11.1 2zm0-3.7c-9.8 0-10.8 1.2-10.8 1.7s1.1 1.7 10.8 1.7 10.8-1.2 10.8-1.7-1.1-1.7-10.8-1.7zm0-2.9c-6.2 0-11.1-1.3-11.1-3.1s4.9-3.1 11.1-3.1 11.1 1.3 11.1 3.1-4.9 3.1-11.1 3.1zm0-5.8c-6.5 0-10.8 1.4-10.8 2.8s4.3 2.8 10.8 2.8 10.8-1.4 10.8-2.8S71.4 29 65 29zm0-2.9c-6.1 0-11.1-5-11.1-11.1S58.8 3.9 65 3.9s11.1 5 11.1 11.1-5 11.1-11.1 11.1zm0-21.9C59 4.2 54.1 9 54.1 15S59 25.8 65 25.8 75.8 20.9 75.8 15 70.9 4.2 65 4.2z"/>
	<path fill="#254194" d="M89 31.2c.9 0 2 .3 2.8.7l.4 2.4h1.3v-3.5c-.9-.3-2.4-.8-4.3-.8-2.8 0-4.6.9-5.7 1.9-1.3 1.2-2.5 3.1-2.5 6 0 3.1 1.4 4.9 2.1 5.7 1.8 1.9 4 2.4 5.8 2.4 1.5 0 3.1-.3 4.5-.8v-3.6h-1.3l-.6 2.9c-.7.2-1.6.3-2.3.3-2.4 0-3.7-1.1-4.5-2-.8-1-1.4-2.6-1.4-4.8 0-1.8.5-3.7 1.6-5 .9-.9 2.2-1.8 4.1-1.8zm19.1.5c1.5 1.4 2.5 3.6 2.5 6.2 0 2.4-.8 4.5-2.1 5.8-1 1.1-2.7 2.3-5.3 2.3-2.4 0-4.1-1-5.3-2.2-.9-.9-2.1-2.8-2.1-5.9 0-3.2 1.3-5.1 2.6-6.2.9-.8 2.5-1.8 4.9-1.8 2.1 0 3.6.8 4.8 1.8zm-8.1.8c-1.1 1.2-1.8 3.2-1.8 5.4 0 .9.1 3.1 1.3 4.9 1.1 1.6 2.6 2 3.7 2 .8 0 2.4-.2 3.6-1.9 1.3-1.7 1.4-4 1.4-4.9 0-2.4-.6-4.3-1.7-5.5-1.2-1.3-2.7-1.4-3.3-1.4-1.6 0-2.6.7-3.2 1.4zm31.1-.8c-.9-.8-2.4-1.8-4.7-1.8-2 0-3.6.7-4.8 1.8-1.9 1.7-2.3 4.2-2.4 5.6H116v-6l1.8-.1v-.9h-5.6v.9l1.7.1v13.2l-1.7.1v.9h5.6v-.9l-1.8-.1v-6.2h3.2c.1 2.3 1 4.3 2 5.4.9 1 2.6 2.2 5.1 2.2 2.6 0 4.3-1.2 5.2-2.3 1.2-1.4 2-3.4 2-5.8 0-2.6-.9-4.7-2.4-6.1zm-1.3 11.2c-.9 1.2-2.2 1.9-3.5 1.9-1.1 0-2.6-.4-3.6-2-.9-1.3-1.2-3.2-1.2-4.9 0-1.8.5-4.1 1.7-5.4.8-.8 1.8-1.4 3.3-1.4 1.2 0 2.2.4 3.1 1.4 1.2 1.4 1.6 3.6 1.6 5.5-.1 1.7-.5 3.6-1.4 4.9zm8.9-5.8v1.4l2-.2c.8 0 2.2.1 3 1 .4.4.8 1.2.8 2.2 0 1-.3 1.9-1.3 2.6-.9.6-2 .7-2.9.7-1 0-1.9-.3-2.6-.7l-.4-2.9H136v4c2.1.7 3.9.7 4.4.7 1.4 0 3.4-.3 4.7-1.2 1.3-.9 1.8-2.1 1.8-3.6 0-.9-.3-1.9-1.1-2.6-.8-.7-1.9-1-2.9-1.1.8-.2 1.7-.6 2.3-1.2.8-.8 1-1.6 1-2.3 0-1.6-.8-2.6-1.7-3.1-1.1-.6-2.4-.7-3.7-.7-.8 0-2.2 0-4.2.6v3.5h1.3l.3-2.5c.9-.4 1.9-.6 2.6-.6.9 0 1.6.2 2.3.8.5.5.9 1.2.9 2.2 0 .9-.3 1.7-1.1 2.3-.6.5-1.3.7-2 .8-.3 0-2.2-.1-2.2-.1zM91.3 16.5c-1.2-.8-2.6-.9-4-.9-.3 0-1.3 0-2.6.1v-5.5h5.9l.4 2.3h1.3V9.1H81v.9l1.7.1v13.2l-1.7.2v.9h6c1.2 0 3.2-.1 4.5-1.2 1.3-1 1.5-2.3 1.5-3.2 0-1.6-.5-2.7-1.7-3.5zm-1.5 6c-.9.9-2.4.9-3.4.9-.6 0-1.1 0-1.7-.1v-6.5c.7-.1 1.5-.2 2.3-.2 1 0 2.1.1 2.9.9.7.8.8 1.8.8 2.4.1.8-.1 1.9-.9 2.6zm19.1.7l-5.5-14.3h-1.5l-5.4 14.3-1.9.3v.9h5v-.9l-1.8-.1 1.7-4.7h5.4l1.8 4.7-1.7.1v.9h5.2v-.9l-1.3-.3zm-8.9-5.5l2.3-6.3 2.3 6.3H100zm28.5-7.6v-1h-5.6v.9l1.8.1v6h-7.9v-6l1.8-.1v-.9H113v.9l1.7.1v13.2l-1.7.1v.9h5.6v-.9l-1.8-.1v-6.2h7.9v6.2l-1.8.1v.9h5.6v-.9l-1.7-.1V10.2l1.7-.1zM145 23.4l-5.2-7.5 4.8-5.7 1.5-.2v-.9h-4.8v.9l1.6.1-5 6.1h-1.7v-6.1l1.8-.1v-.9h-5.6v.9l1.7.1v13.2l-1.7.1v.9h5.6v-.9l-1.8-.1v-6.2h1.9l5.1 7.2h3.3v-.9H145z"/>
</svg>