<svg xmlns="http://www.w3.org/2000/svg" viewBox="0 0 200 50">
	<path fill="#A38959" d="M46.6438 33.7714 26.1309 13.3662 5.49695 33.7781H4.14424L26.1175 12l21.8992 21.7714h-1.3729ZM26.0511 15.0956l.3231.3095 18.6957 18.3728H43.798L26.0646 16.3608 8.40523 33.7779h-1.2585l18.58807-18.366.3163-.3163Zm26.2664 23.037-2.3352-2.3689H2.39488l-2.39585656 2.3891L52.3175 38.1326Zm-33.2458-4.4219v-.0134c-.2556-.5451-.3297-.8412-.3297-1.5681v-4.0245l.6461.0337c.3297.0223.8079.7036 1.1995 1.2616l.0001.0001c.08.1139.1564.2228.2271.3198l.1212-.0404-.3231-1.8104H15.7l-.3162 1.8104.1144.0404c.0511-.0713.1058-.1489.1631-.2302.4028-.5718.9354-1.3278 1.2771-1.3513l.6461-.0337v4.0245c0 .7269-.0808 1.023-.3366 1.5681v.0134h1.8238Zm11.2456-3.3583-.2826 2.3689c-.3702.2827-1.8912.996-3.6208.996-3.0621 0-4.9397-2.2343-4.9397-5.0811s2.0862-5.0542 5.2291-5.0542c1.346 0 2.5978.3702 3.2708.6528l.2961 2.1671-.1615.0403c-1.0633-1.743-1.9719-2.4497-3.5265-2.4497-2.6583 0-3.8428 1.9854-3.8428 4.6437 0 2.6583 1.1576 4.6706 3.688 4.6706 1.9315 0 2.941-1.1576 3.7419-2.9948l.148.0404Zm2.4228 3.3651c1.6923 0 2.4867-.7907 2.4901-1.8172v.0068-.0135.0067c-.0029-.865-.5565-1.5613-2.3554-1.5613h-.673v-2.2478l1.1844.0606c.2625.0146.6479.461.9989.8676.135.1563.2649.3068.3807.4246l.1212-.0404-.3096-1.5345h-3.8562v.0135c.2557.5451.3365.848.3365 1.5748v2.6718c0 .7336-.0808 1.0297-.3365 1.5748v.0135h2.0189Zm-.5383-3.1295h.4307c.8614 0 1.4066.3769 1.4066 1.3191 0 .7807-.3769 1.5479-1.4133 1.5479-.1145 0-.2558 0-.424-.0135V30.588Z"/>
	<path fill="#17375B" d="M168.371 17.9513c-.446.0759-.869.1306-1.272.1828-.407.0526-.795.1028-1.168.1699-1.096.1906-1.792.5242-2.221 1.3631-.334.6672-.544 1.5823-.667 2.8882h.076c.686-.9913 1.906-1.6586 3.432-1.6586 2.439 0 4.098 1.8874 4.098 4.6231s-1.458 4.9948-4.604 4.9948c-2.83 0-4.642-2.0494-4.642-5.5572 0-4.6612 2.297-7.5685 7.836-8.6743.543-.1143.8-.3145.991-.6005h.172c-.096 1.3822-.582 2.0876-2.012 2.2591l-.019.0096Zm-5.424 7.3874c0 2.7739 1.049 4.6803 3.098 4.6803 1.811 0 3.06-1.6205 3.06-4.2132 0-2.5928-1.401-3.8987-3.26-3.8987-1.344 0-2.364.6387-2.831 1.3441-.038.5624-.057 1.1724-.057 2.0875h-.01Zm-97.714 4.8995V30.2c-.61-.9532-.7435-1.4775-.7435-2.7643V17.0838l2.4212.0762c.5927.033 1.4983 1.431 2.25 2.5914.1187.1832.2335.3606.3427.5256l.2193-.0762-.7435-3.6127H58.4461l-.7435 3.6127.2193.0762c.0861-.1302.1762-.268.2692-.4103.772-1.1809 1.7471-2.6726 2.3426-2.7067l2.4021-.0762v10.3519c0 1.2773-.1239 1.8111-.7435 2.7643v.0382h3.0407Zm5.6805 4.1939v.0382h2.3641v-.0382c-.429-.8769-.4671-1.6967-.4671-3.0788v-1.4012c.5719.3241 1.3344.5623 2.3639.5623 3.2502 0 4.814-2.2591 4.814-5.052 0-2.7929-1.6013-4.6803-3.937-4.6803-1.3631 0-2.526.6291-3.1933 1.6204l-.1334-.019v-1.6967l-2.202 1.0104v.0381c.448.3718.858.9437.858 1.916v7.721c0 1.4012-.0764 2.1829-.4672 3.0598Zm7.5212-8.6647c0 2.6309-1.2871 4.2133-3.0791 4.2133-1.0486 0-2.0494-.5243-2.5547-1.7349v-5.2237c.4289-.61 1.3441-1.2486 2.5547-1.2486 1.7538 0 3.0791 1.3631 3.0791 3.9939Zm5.072 4.7566c-1.3248 0-2.2403-.7244-2.2403-1.9255 0-2.2019 2.984-3.2028 5.1665-3.4888v-1.487c0-1.1534-.4101-1.9064-1.9544-1.9064-.9913 0-1.9537.3146-2.6879.8578l-.1711-.1906c.8007-.9341 2.0489-1.6014 3.5839-1.6014 2.1067 0 2.6496 1.1725 2.6496 2.4975v5.3665c0 .5243.2195.877.7819.877.3906 0 .6866-.1906.9725-.5052l.1523.1335c-.2382.5623-.7624 1.3059-1.8114 1.3059-.9718 0-1.4389-.6387-1.4772-1.3632-.6389.7436-1.6966 1.4204-2.9644 1.4204v.0095Zm-.8577-2.3163c0 .8197.5429 1.3821 1.5631 1.3821.953 0 1.7732-.467 2.2208-.9722v-3.0408c-1.8685.3146-3.7839 1.0962-3.7839 2.6309Zm10.3602-2.9263v-1.0962c0-1.4012.0195-2.1828.4484-3.0789v-.0381H91.122v.0381c.3718.8961.4671 1.6586.4671 3.0599v2.9835c0 1.4012-.0953 2.1828-.4671 3.0598v.0381h2.3356v-.0381c-.4289-.877-.4484-1.6776-.4484-3.0788v-1.325h4.4236v1.344c0 1.3441-.0766 2.1828-.4671 3.0598v.0381h2.3348v-.0381c-.4289-.877-.4476-1.6586-.4476-3.0788v-2.9455c0-1.4203.0187-2.1828.4476-3.0789v-.0381h-2.3348v.0381c.3905.8961.4671 1.7158.4671 3.0599v1.1152h-4.4236Zm15.7958 2.6884.21.1335c-.544 1.344-1.85 2.4211-3.747 2.4211-2.497 0-4.194-1.8301-4.194-4.6422 0-3.0979 2.316-5.0902 4.89-5.0902 1.268 0 2.106.3527 2.573.5815l.22 2.0876-.191.0572c-.705-1.1916-1.658-2.202-2.945-2.202-1.831 0-3.079 1.4871-3.079 3.9559s1.268 4.0321 3.412 4.0321c1.077 0 2.183-.4099 2.851-1.3249v-.0096Zm9.436.1335-.209-.1335v.0096c-.668.915-1.773 1.3249-2.85 1.3249-2.145 0-3.413-1.5633-3.413-4.0321s1.249-3.9559 3.079-3.9559c1.287 0 2.241 1.0104 2.946 2.202l.19-.0572-.219-2.0876c-.467-.2288-1.306-.5815-2.574-.5815-2.574 0-4.89 1.9923-4.89 5.0902 0 2.8121 1.697 4.6422 4.194 4.6422 1.898 0 3.204-1.0771 3.746-2.4211Zm3.356-6.4727c-.562.0381-.972.5434-2.011 2.0685l-.172-.0572.467-2.5737h7.569l.467 2.5737-.172.0572c-1.048-1.5251-1.459-2.0304-2.011-2.0685l-1.363-.0762v5.5763c0 1.4012.019 2.2019.448 3.0789v.0381h-2.326v-.0381c.391-.877.467-1.6587.467-3.0599v-5.5953l-1.363.0762Zm7.893 12.8015v.0382H131.854v-.0382c-.429-.8769-.468-1.6967-.468-3.0788v-1.4012c.572.3241 1.335.5623 2.365.5623 3.25 0 4.813-2.2591 4.813-5.052 0-2.7929-1.601-4.6803-3.937-4.6803-1.363 0-2.526.6291-3.193 1.6204l-.133-.019v-1.6967l-2.203 1.0104v.0381c.449.3718.859.9437.859 1.916v7.721c0 1.4012-.077 2.1829-.467 3.0598Zm7.521-8.6647c0 2.6309-1.287 4.2133-3.08 4.2133-1.048 0-2.049-.5243-2.554-1.7349v-5.2237c.429-.61 1.344-1.2486 2.554-1.2486 1.755 0 3.08 1.3631 3.08 3.9939Zm7.882 4.7566c-2.669 0-4.871-2.2019-4.852-4.8709 0-2.65 2.221-4.871 4.852-4.871 2.631 0 4.87 2.221 4.87 4.871 0 2.6499-2.201 4.8709-4.87 4.8709Zm0-.5434c2.164 0 3.26-1.9731 3.26-4.3275 0-2.3545-1.116-4.3276-3.26-4.3276-2.145 0-3.241 1.9922-3.241 4.3276 0 2.3353 1.077 4.3275 3.241 4.3275Zm8.456-1.1725V24.185c0-1.4013.019-2.1829.448-3.0789v-.0381h-2.326v.0381c.372.896.467 1.6586.467 3.0598v2.9836c0 1.4012-.095 2.1828-.467 3.0598v.0381h1.601l4.776-7.7401v4.6422c0 1.344-.076 2.1828-.467 3.0598v.0381h2.345v-.0381c-.448-.877-.467-1.6586-.467-3.0789V24.185c0-1.4203.019-2.1829.467-3.0789v-.0381h-1.621l-4.756 7.7401Zm3.642-11.8294c-.02 1.0866-.211 1.9064-1.326 1.9064-1.105 0-1.305-.8293-1.325-1.9064h-1.248c.057 1.3059.801 2.383 2.573 2.383 1.773 0 2.517-1.0771 2.593-2.383h-1.267Zm14.937 11.6198c0 1.2011.914 1.9255 2.239 1.9255v-.0095c1.268 0 2.326-.6768 2.964-1.4204.039.7245.506 1.3632 1.478 1.3632 1.049 0 1.573-.7436 1.811-1.3059l-.152-.1335c-.286.3146-.581.5052-.973.5052-.562 0-.781-.3527-.781-.877v-5.3665c0-1.325-.544-2.4975-2.65-2.4975-1.534 0-2.784.6673-3.584 1.6014l.172.1906c.733-.5432 1.696-.8578 2.688-.8578 1.544 0 1.954.753 1.954 1.9064v1.487c-2.183.286-5.166 1.2869-5.166 3.4888Zm2.944.9913c-1.019 0-1.563-.5624-1.563-1.3821 0-1.5347 1.916-2.3163 3.785-2.6309v3.0408c-.448.5052-1.268.9722-2.222.9722Zm8.798-5.4046v1.0962h4.423v-1.1152c0-1.3441-.076-2.1638-.467-3.0599v-.0381h2.336v.0381c-.429.8961-.449 1.6586-.449 3.0789v2.9455c0 1.4202.02 2.2018.449 3.0788v.0381h-2.336v-.0381c.391-.877.467-1.7157.467-3.0598v-1.344h-4.423v1.325c0 1.4012.019 2.2018.449 3.0788v.0381h-2.336v-.0381c.372-.877.467-1.6586.467-3.0598v-2.9835c0-1.4013-.095-2.1638-.467-3.0599v-.0381h2.336v.0381c-.43.8961-.449 1.6777-.449 3.0789Zm10.324 2.9455v-2.9455c0-1.4012.019-2.1828.448-3.0789v-.0381h-2.326v.0381c.372.8961.467 1.6586.467 3.0599v2.9835c0 1.4012-.095 2.1828-.467 3.0598v.0381h2.326v-.0381c-.429-.877-.448-1.6776-.448-3.0788Zm3.823 3.1169h2.182v-.0381c-.696-.3717-1.125-.8388-1.773-1.7348l-2.688-3.6699 1.563-1.792c.839-.9342 1.363-1.4585 2.279-1.9065v-.0381h-2.479v.0381c.429.4289.286 1.0962-.257 1.7158l-2.335 2.6308 3.508 4.7947Z"/>
</svg>