<svg viewBox="0 0 200 50" xmlns="http://www.w3.org/2000/svg">
	<path fill="#656163" d="M70.5022 15.7777c2.0991 0 3.5273.4195 4.4506 1.2593.9233.8398 1.3437 2.0156 1.3437 3.5272 0 .5874-.0835 1.0913-.2514 1.5952-.168.4194-.4194.8398-.6719 1.1758-.2514.3359-.5874.5873-.9233.8398-.3359.2514-.6718.4194-1.0078.5874.4194.0834.8398.3359 1.3437.5873.4195.2515.8399.5874 1.1758 1.0078.2514.336.5039.7554.6719 1.2593.1679.5039.2514 1.1757.2514 1.9311 0 1.0912-.168 1.9311-.5874 2.6029-.3359.5874-.7553 1.0913-1.1757 1.4272-.7554.5039-1.5117.8398-2.3515 1.0078-.8399.168-1.5952.168-2.3515.168h-6.7186c-.2515 0-.4195 0-.4195-.0835-.0834-.0835-.0834-.2515-.0834-.4194v-1.5117c0-.3359.0834-.5039.1679-.5874h1.7632V18.4652h-1.7632c-.1679 0-.1679-.168-.1679-.5874v-1.5117c0-.3359.0834-.5039.1679-.5874H70.5022v-.001Zm-.5039 7.7264c.2515 0 .6719 0 1.0913-.0834.4194-.0835.7553-.336 1.0913-.7554.2514-.2514.4194-.5039.4194-.8398.0835-.2515.0835-.5874.0835-.9233s0-.6719-.0835-.9233c-.0835-.2515-.2515-.5874-.5039-.7554-.3359-.3359-.6719-.5039-1.0078-.5039-.3359-.0834-.6719-.0834-1.0078-.0834h-1.1757v4.871h1.0932v-.0031Zm.168 8.2303h.5874c.1679 0 .4194-.0835.5874-.0835.2514-.0834.4194-.1679.6718-.2514.2515-.0835.4194-.2514.5874-.5039.168-.168.3359-.4194.4194-.7553.0835-.336.168-.6719.168-1.0913 0-.5874-.0835-1.0913-.336-1.4272-.2514-.3359-.4194-.5039-.6718-.6719-.2515-.1679-.5874-.3359-1.0078-.4194-.4194-.0835-.7554-.0835-1.0913-.0835h-1.3437v5.2904c.002-.003 1.4292-.003 1.4292-.003Zm11.0857-2.9389c0 1.0078.2514 1.8477.6719 2.5195.4204.6719 1.2592.9233 2.3515.9233.6718 0 1.1757-.0835 1.6796-.2514.4194-.168.8398-.2515 1.0913-.4194.0835 0 .0835-.0835.168-.0835.0844 0 .0834 0 .1679-.0835.2515-.0835.3359-.168.4194-.168.168 0 .2515.0835.336.2515l.6718 1.5951s0 .0835.0835.168v.168c0 .1679-.168.3359-.4194.5874-.5039.3359-1.1758.5873-2.0156.7553-.8398.168-1.5952.3359-2.3515.3359-.9233 0-1.6797-.0835-2.435-.3359-.7553-.2515-1.4272-.6719-1.9311-1.2592-.5039-.5039-.9233-1.1758-1.2592-2.0156-.336-.8398-.5039-1.9311-.5039-3.2748 0-1.1758.1679-2.2671.4194-3.1914.2514-.9233.7553-1.7631 1.3437-2.5195.4194-.5038 1.0078-.9233 1.5952-1.3437.6718-.3359 1.5117-.5873 2.5194-.5873.5039 0 1.0913.0834 1.7632.2514.6718.168 1.2592.5039 1.7631 1.0078.5039.5039 1.0078 1.2592 1.3437 2.1835.336 1.0078.5874 2.2671.5874 3.8632 0 .336 0 .5874-.0835.6719-.0835.0835-.2514.168-.5039.168H81.252v.0834Zm4.2826-2.6039v-.8388c0-.168-.0845-.336-.0845-.5874-.0835-.168-.0835-.4194-.168-.5874-.0834-.2514-.2514-.4194-.4194-.5874-.3359-.3359-.7553-.5039-1.3437-.5039-.2514 0-.5874.0835-.8398.168-.2515.0835-.5039.3359-.7553.5874-.2515.3359-.4195.6718-.5039 1.0078-.0835.4194-.168.8398-.168 1.2592h4.2826v.0825Zm6.0467-2.603H89.9852c-.0835 0-.168-.1679-.168-.3359v-1.7631c0-.0835 0-.168.0835-.2515 0-.0835.1679-.0835.3359-.0835h4.4506c.2514 0 .3359 0 .3359.0835v5.1224h3.9467v-2.6874h-1.3427c-.0835 0-.168-.168-.168-.3359v-2.0156c0-.0835.168-.0835.3359-.0835h5.879c.251 0 .336 0 .336.0835v2.1825c0 .0835-.168.0835-.336.0835h-1.427v8.4817h1.427c.251 0 .336.0835.336.168V34.5033c0 .0835-.168.0835-.336.0835h-4.7022c-.0835 0-.168-.168-.168-.3359V29.044h-3.9466v3.0233h1.0912c.2515 0 .336.0835.336.168v2.266c0 .0835-.168.0835-.336.0835H89.8172c-.0835 0-.168-.168-.168-.3359v-1.7632c0-.0834 0-.1679.0835-.2514 0-.0835.168-.168.3359-.168h1.3438v-8.4817h.1689v.004Zm16.3757 5.2069c0 1.0078.252 1.8477.672 2.5195.42.6719 1.176.9233 2.352.9233.672 0 1.176-.0835 1.679-.2514.42-.168.84-.2515 1.092-.4194.083 0 .083-.0835.168-.0835 0 0 .083 0 .168-.0835.252-.0835.336-.168.419-.168.168 0 .251.0835.336.2515l.672 1.5951s0 .0835.083.168v.168c0 .1679-.168.3359-.419.5874-.504.3359-1.176.5873-2.016.7553-.839.168-1.595.3359-2.351.3359-.84 0-1.68-.0835-2.435-.3359-.756-.2525-1.427-.6719-1.931-1.2592-.504-.5039-.924-1.1758-1.259-2.0156-.336-.8398-.504-1.9311-.504-3.2748 0-1.1758.168-2.2671.419-3.1914.252-.9233.755-1.7631 1.344-2.5195.419-.5038 1.008-.9233 1.595-1.3437.672-.3359 1.512-.5873 2.519-.5873.504 0 1.092.0834 1.764.2514.671.168 1.259.5039 1.763 1.0078s1.007 1.2592 1.343 2.1835c.336 1.0078.588 2.2671.588 3.8632 0 .336 0 .5874-.084.6719-.083.0835-.251.168-.504.168h-7.474v.0834h.001Zm4.284-2.6039v-.8388c0-.168-.084-.336-.084-.5874 0-.168-.084-.4194-.168-.5874-.084-.2514-.252-.4194-.42-.5874-.336-.3359-.84-.5039-1.344-.5039-.251 0-.587.0835-.839.168-.252.0835-.504.3359-.756.5874-.251.3359-.419.6718-.504 1.0078-.083.4194-.168.8398-.168 1.2592h4.283v.0825Zm6.047-2.603H116.693c-.084 0-.168-.1679-.168-.3359V21.2381c0-.0835.168-.0835.336-.0835h4.45c.252 0 .336 0 .336.0835v10.6643h3.527v-8.3138h-1.342c-.084 0-.168-.1679-.168-.3359v-1.7631c0-.0835 0-.168.084-.2515 0-.0835.168-.0835.336-.0835h4.115c.251 0 .336 0 .336.0835v10.9167h1.427c.168 0 .251 0 .336.0835.084 0 .084.168.084.3359v5.8788c0 .168 0 .2515-.084.336-.085 0-.168.0834-.336.0834h-2.435c-.168 0-.336 0-.336-.0834 0-.0835-.085-.168-.085-.336v-3.6952h-10.581c-.084 0-.168-.168-.168-.3359v-2.1826c0-.0835.168-.1679.336-.1679h1.343v-8.4818h.252v-.001Zm15.452.2515c.251-.5039.503-.9233.755-1.2593.336-.3359.587-.5873.923-.8398.336-.2514.672-.3359 1.091-.5039.42-.168.84-.168 1.344-.168 1.595 0 2.856.5874 3.863 1.8477.588.7553.924 1.5116 1.092 2.3515.168.8398.251 1.6796.251 2.5194 0 .5874 0 1.0913-.084 1.5952-.085.4194-.085.8398-.252 1.2592-.084.4195-.252.7554-.419 1.0078-.168.336-.336.6719-.588.9233-.168.2515-.336.4194-.587.6719-.252.2514-.504.4194-.84.6719-.336.1679-.672.3359-1.091.5039-.42.0834-.923.1679-1.427.1679-.42 0-.924-.0835-1.344-.1679-.504-.0835-.923-.2515-1.344-.5874-.419-.2515-.84-.5874-1.175-1.0078-.336-.4194-.672-.8398-.924-1.5117-.336-.7553-.587-1.5952-.672-2.435-.084-.8398-.168-1.7631-.168-2.6874 0-1.2593.085-2.3515.168-3.3593.085-1.0078.336-1.8476.588-2.6875.419-1.1757 1.008-2.099 1.763-2.7709.755-.6718 1.595-1.1757 2.435-1.5952l4.535-2.0155c.084 0 .168-.0835.336-.0835s.251.0835.419.2514l.42 1.0078c0 .0835.084.168.084.2515 0 .0834-.168.2514-.419.3359l-5.123 2.3515c-.672.3359-1.175.6719-1.595 1.0913-.419.4194-.755.8398-1.008 1.2592-.252.4194-.419.8398-.587 1.3437-.085.4194-.168.8399-.251 1.2593l-.085.8398h-.083v.169h-.001Zm3.695-1.0078c-.42 0-.756.0835-1.176.2514-.419.168-.755.4194-1.008.8398-.336.4195-.504.9233-.755 1.5117-.168.6719-.252 1.4272-.252 2.435 0 .5874 0 1.1758.085 1.7631.084.5874.251 1.1758.504 1.6797.251.5039.587.9233.923 1.2592.42.336.923.5039 1.68.5039.419 0 .84-.0835 1.259-.2514.419-.168.755-.4194 1.091-.8398.336-.4195.588-.9233.756-1.5952.168-.6719.251-1.5117.251-2.5195 0-1.1757-.084-2.0156-.336-2.6874-.252-.6719-.504-1.1758-.84-1.5117-.336-.3359-.755-.5874-1.091-.6719-.503-.1669-.839-.1669-1.091-.1669Zm7.979-1.5117c.336-.168.839-.2515 1.343-.4194.588-.168 1.176-.168 1.763-.168.336 0 .84 0 1.428.0835.587.0835 1.091.2514 1.595.5874.252.2514.504.5039.672.7553.168.2515.336.5039.419.8398.085.2515.168.5874.168.8399 0 .2514.084.5039.084.8398v6.8021c0 .4204.084.8398.252 1.2592h1.259c.168 0 .253 0 .253.0835s.083.1679.083.2514v1.0078c0 .168 0 .2515-.083.2515-.085 0-.168.0834-.253.0834h-2.351c-.253 0-.504-.0834-.588-.3359-.168-.2514-.252-.5039-.336-.8398l-.084-.2515-.084.0835c-.671.6719-1.343 1.0913-1.931 1.3437-.672.2515-1.259.4194-1.847.4194-1.008 0-1.848-.3359-2.52-1.0077-.672-.6719-1.008-1.5952-1.008-2.8554 0-.5874.085-1.1758.252-1.5952.168-.5039.419-.9233.755-1.2592.336-.336.672-.6719 1.092-.8399.419-.2514.839-.4194 1.343-.5873.504-.168 1.008-.2515 1.512-.336.504-.0835 1.091-.0835 1.595-.1679h.587v-1.0048c0-.3359 0-.5874-.083-.8398-.084-.2515-.168-.5874-.336-.8399-.168-.2514-.419-.4194-.672-.5873-.336-.168-.755-.2515-1.259-.2515-.504 0-1.008.0835-1.512.168-.504.0835-1.008.3359-1.511.5039-.085 0-.168.0835-.252.0835-.083 0-.084.0834-.168.0834s-.168-.0834-.252-.1679l-.42-1.0913v-.2514c0-.168.085-.2515.252-.2515.168-.0835.251-.168.336-.168l.507-.2534Zm5.374 6.3827H149.865c-.336 0-.672.0834-1.008.0834-.336 0-.671.0835-1.007.2515-.336.0835-.672.2514-.924.4194-.419.2514-.755.5874-.923.9233-.168.3359-.252.7553-.252 1.2592 0 .4194.084.8399.168 1.0913.084.3359.251.5039.503.7553.168.168.42.336.672.4195.252.0834.504.1679.672.1679.252 0 .587-.0835.923-.1679.336-.0835.588-.2515.84-.4195.253-.1679.504-.3359.672-.5039.168-.1679.42-.3359.504-.5038l.168-.168v-3.6108h-.085v.0031Zm8.734 4.8709h1.511c.168 0 .253 0 .253.0835s.083.168.083.2515v1.0078c0 .1679 0 .2514-.083.2514-.085 0-.168.0835-.253.0835h-5.039c-.083 0-.168 0-.251-.0835-.085 0-.085-.168-.085-.2514v-1.0078c0-.168 0-.2515.085-.2515.083 0 .168-.0835.251-.0835h1.512v-9.7419h-1.512c-.083 0-.168 0-.251-.0835-.085 0-.085-.168-.085-.2515v-1.0077c0-.168 0-.2515.085-.2515.083 0 .168-.0835.251-.0835h3.275c.084 0 .168 0 .252.0835.084 0 .084.168.084.2515v5.2069h5.207v-3.8632H163.3c-.083 0-.168 0-.252-.0835-.084 0-.084-.168-.084-.2514v-1.0078c0-.168 0-.2515.084-.2515s.168-.0835.252-.0835h5.123c.168 0 .252 0 .252.0835s.084.168.084.2515v1.0078c0 .1679 0 .2514-.084.2514s-.168.0835-.252.0835h-1.512v9.8254h1.512c.168 0 .252 0 .252.0835s.084.168.084.2515v1.0077c0 .168 0 .2515-.084.2515s-.168.0835-.252.0835h-3.275c-.084 0-.168 0-.252-.0835-.084 0-.084-.168-.084-.2515v-5.6263h-5.207v4.1991h-.083Zm13.857 1.4272c0 .0835 0 .168-.084.2515 0 .0835-.084.0835-.252.0835h-1.427c-.083 0-.168 0-.251-.0835-.085 0-.085-.168-.085-.2515V22.8323h-1.511c-.084 0-.168 0-.252-.0835-.084 0-.084-.168-.084-.2515v-1.0077c0-.168 0-.2515.084-.2515s.168-.0835.252-.0835h3.274c.168 0 .252 0 .252.0835s.084.168.084.2515v5.1224h1.26c.503 0 .839-.0835 1.091-.3359.252-.2515.419-.5874.587-1.0913l.336-1.4272c.085-.3359.168-.6719.336-1.0078.084-.3359.336-.6719.504-.9233.251-.2514.504-.5039.923-.7553.336-.168.84-.2515 1.427-.2515.084 0 .168 0 .168.0835.085 0 .085.0835.168.168l.336 1.2592c0 .168 0 .2514-.084.2514s-.168.0835-.253.0835l-.336.0835c-.168 0-.251.0835-.336.0835-.084 0-.252.0835-.335.1679-.085.0835-.168.2515-.336.4194-.084.168-.168.4195-.252.8399l-.252 1.0912c-.084.168-.168.4195-.168.5874-.084.2515-.168.4194-.336.5874-.168.168-.336.4194-.504.5874-.253.1679-.504.3359-.755.4194.336.0835.587.1679.755.3359.168.168.336.2515.504.4194.168.168.251.3359.336.5039.084.168.168.3359.168.4194l.84 2.603c.083.4194.251.6718.419.7553.168.0835.419.2515.755.2515l.336.0834c.168 0 .252 0 .252.0835.084 0 .084.168 0 .336l-.336 1.2592c0 .0835-.084.1679-.168.1679h-.253c-.587 0-1.007-.0834-1.427-.1679-.336-.0835-.672-.2515-.923-.5039-.253-.2515-.42-.5039-.588-.9233-.168-.4194-.335-.8398-.503-1.4272l-.588-1.9311c-.168-.6719-.419-1.0078-.672-1.1758-.252-.1679-.587-.2514-1.007-.2514h-1.344v5.6263h.255v.005Z"/>
	<path fill="#E32D29" d="M43.0386 32.9078s1.0019 2.6748 1.9202 2.8422h-11.603c-2.3375 0-4.4238-1.3374-5.0922-3.8453l-6.7613-20.0625S20.9182 9.41789 20 9h11.8535c2.3374.0837 3.9234.91948 4.8417 4.0127l6.3434 19.8951Z"/>
	<path opacity=".2" fill="url(#a)" d="M43.0386 32.9078s1.0019 2.6748 1.9202 2.8422h-11.603c-2.3375 0-4.4238-1.3374-5.0922-3.8453l-6.7613-20.0625S20.9182 9.41789 20 9h11.8535c2.3374.0837 3.9234.91948 4.8417 4.0127l6.3434 19.8951Z"/>
    <linearGradient id="a" x1="32.4" y1="6.7" x2="32.5" y2="38" gradientUnits="userSpaceOnUse">
		<stop stop-color="#fff" stop-opacity="0"/>
		<stop offset=".33" stop-color="#fff" stop-opacity="0"/>
		<stop offset=".76" stop-color="#0E1513"/>
		<stop offset="1" stop-color="#0E1513"/>
	</linearGradient>
	<path fill="#E32E2A" d="M35.6096 32.9082s-1.0019 2.6748-1.9201 2.8422h11.6029c2.3375 0 4.4239-1.3374 5.0922-3.8454l6.6782-20.0619s.5841-2.42423 1.5023-2.84212H46.7947c-2.3374 0-3.8397.83578-4.758 3.92902l-6.4271 19.9782Z"/>  
</svg>