<svg viewBox="0 0 200 50" xmlns="http://www.w3.org/2000/svg">
	<path fill="#050505" d="M105.3 23.3h-3.1v-3.1h6.5V18H100v13.8h5.4c2.7 0 4.4-1.7 4.4-4.3 0-2.5-1.8-4.2-4.5-4.2zm-.6 6.4h-2.5v-4.4h2.5c1.7 0 2.7.8 2.7 2.2 0 1.4-1 2.2-2.7 2.2zM115.9 18 111 31.8h2.5l1.1-3.1h5.3l1 3.1h2.6L118.7 18h-2.8zm-.7 8.6 2.1-5.9 2 5.9h-4.1zM133.4 23.7h-5.6V18h-2.3v13.8h2.3v-6h5.6v6h2.3V18h-2.3zM144.4 24.1l2.6-3.3 2.3-2.8h-2.8l-5.4 6.6V18h-2.3v13.8h2.3v-3.6l1.8-2.2 3.8 5.8h3z"/>
	<path fill="#ff333a" d="M88 4H55c-2.5 0-4.5 2-4.5 4.5v32.9c0 2.5 2 4.5 4.5 4.5h33c2.5 0 4.5-2 4.5-4.5V8.5C92.5 6 90.5 4 88 4zM65.2 32h-2.5V20.5h-2.5l1.4-2.5h3.5v14zm11.6-4.7c0 2.6-2.1 4.7-4.7 4.7s-4.7-2.1-4.7-4.7h2.5c0 1.3 1 2.3 2.3 2.3 1.3 0 2.3-1 2.3-2.3 0-1.3-1-2.3-2.3-2.3h-1.6l2.5-4.5h-5.6l1.4-2.5h8l-1.4 2.5L74 23c1.6.7 2.8 2.4 2.8 4.3zm5.9 4.7h-2.5V20.5h-2.5l1.4-2.5h3.5v14z"/>
</svg>