<svg xmlns="http://www.w3.org/2000/svg" viewBox="0 0 200 50">
	<path fill="#FF5A00" d="M21.22 17.07c.0157-1.8407.7558-3.601 2.06-4.9L29.41 6v5.12c-.0452 1.8996-.777 3.7184-2.06 5.12l-6.12 6.17-.01-5.34zm8.18 24.46l-6.16-6.13c-1.3858-1.2826-3.1923-2.0151-5.08-2.06H13l6.17 6.13c1.3102 1.2874 3.0635 2.0244 4.9 2.06h5.33zM17.68 29.76l3.54 3.59v-8.19c-.094-1.7352-.803-3.3802-2-4.64L15.76 17v8.22c.066 1.6996.7485 3.317 1.92 4.55"/>
	<path fill="#7D7D7D" d="M171 21.62h2.93v11.72H171v-5h-5.73v5h-2.93V21.62h2.93v4.33H171v-4.33zm-14.7 0h-7.39V24h6.78c.313 0 .613.1243.834.3456.222.2213.346.5214.346.8344v1.05h-5.29c-.462.0026-.919.0963-1.346.2756-.426.1793-.812.4408-1.137.7695-.325.3287-.582.7183-.757 1.1463-.174.4281-.263.8863-.26 1.3486v.13c.003.9274.372 1.8162 1.028 2.472.656.6558 1.545 1.0254 2.472 1.028h8.22v-8.28c-.003-.9274-.372-1.8162-1.028-2.472-.656-.6558-1.545-1.0254-2.472-1.028zm.61 9.36h-4.68c-.159.0067-.318-.0188-.467-.0751-.149-.0562-.285-.1421-.4-.2523-.115-.1103-.206-.2427-.269-.3892-.062-.1465-.094-.3041-.094-.4634v-.13c0-.313.124-.6131.346-.8344.221-.2213.521-.3456.834-.3456h4.68l.05 2.49zm23.58-2.67h-1v5h-2.93V21.62h2.93v4.33h1.09l3.85-4.33h3.28l-4.94 5.51 5.23 6.21h-3.67l-3.84-5.03zm-38.81-5.69h-5.42V19.3h9v-2.36h-11.95v16.4h8.36c.632.0013 1.258-.1222 1.842-.3635.584-.2412 1.115-.5955 1.562-1.0424.447-.4469.801-.9777 1.043-1.5618.241-.5842.364-1.2103.363-1.8423v-1.09c-.005-1.2741-.514-2.4945-1.415-3.3954s-2.121-1.4093-3.395-1.4146l.01-.01zm1.52 5.92c-.008.6552-.274 1.2808-.74 1.7413-.466.4605-1.095.7187-1.75.7187h-4.46v-6h4.46c.66 0 1.294.2623 1.761.7293.467.467.729 1.1003.729 1.7607v1.05zm-79.8-3.42v4.68c-.0026.1566.0259.3122.084.4577.0581.1455.1446.2779.2545.3896.1098.1117.2408.2005.3853.261.1444.0606.2995.0917.4562.0917h5.77v2.36H64c-.9274-.0026-1.8161-.3722-2.472-1.028-.6558-.6558-1.0254-1.5446-1.028-2.472v-4.74c.0026-.9274.3722-1.8162 1.028-2.472.6559-.6558 1.5446-1.0254 2.472-1.028h6.39V24h-5.81c-.3069-.0027-.6026.1153-.8233.3285s-.3488.5047-.3567.8115v-.02zm16.67-3.48h-4.68c-.9274.0026-1.8162.3722-2.472 1.028-.6558.6558-1.0254 1.5446-1.028 2.472v4.66c.0026.9274.3722 1.8162 1.028 2.472.6558.6558 1.5446 1.0254 2.472 1.028h4.68c.9274-.0026 1.8162-.3722 2.472-1.028.6558-.6558 1.0254-1.5446 1.028-2.472v-4.68c.0054-.4611-.0815-.9186-.2555-1.3457-.174-.4271-.4316-.815-.7577-1.1411-.3261-.3261-.714-.5837-1.1411-.7577-.427-.174-.8846-.2609-1.3457-.2555v.02zm.61 8.2c-.0052.3095-.1319.6045-.3526.8215-.2207.217-.5179.3385-.8274.3385H76c-.313 0-.6131-.1243-.8344-.3456-.2213-.2213-.3456-.5214-.3456-.8344v-4.7c0-.313.1243-.6131.3456-.8344.2213-.2213.5214-.3456.8344-.3456h3.5c.313 0 .6131.1243.8344.3456.2213.2213.3456.5214.3456.8344v4.72zM55 21.62h-3.19c-.737.0105-1.4541.2403-2.06.66v-1.84c0-.313.1243-.6131.3456-.8344.2213-.2213.5214-.3456.8344-.3456h6.21v-2.32h-6.82c-.9274.0026-1.8161.3722-2.472 1.028-.6558.6558-1.0254 1.5446-1.028 2.472v9.36c.0026.9274.3722 1.8162 1.028 2.472.6559.6558 1.5446 1.0254 2.472 1.028H55c.9275-.0026 1.8162-.3722 2.472-1.028.6558-.6558 1.0254-1.5446 1.028-2.472v-4.68c.0067-.4615-.0792-.9196-.2527-1.3473-.1735-.4277-.4311-.8162-.7574-1.1426-.3264-.3263-.7149-.5839-1.1426-.7574-.4277-.1735-.8858-.2594-1.3473-.2527zm.57 8.22c-.005.3027-.126.5919-.3382.8078-.2122.2159-.4993.342-.8018.3522h-3.5c-.313 0-.6131-.1243-.8344-.3456-.2213-.2213-.3456-.5214-.3456-.8344v-4.66c.0052-.3095.1319-.6045.3526-.8215.2207-.217.5179-.3385.8274-.3385h3.5c.313 0 .6131.1243.8344.3456.2213.2213.3456.5214.3456.8344l-.04 4.66zm62.48-8.22h10.33V24h-3.72v9.36h-2.93V24H118v-2.38h.05zm-82-4.68l-6.64 16.4H33l1.27-3.5h7.13l1.27 3.5h3.5l-6.66-16.4h-3.46zm-1 10.54L37.81 20l2.76 7.48h-5.52zm54.69-5.86h7.48v11.72h-2.89V24h-3.94c-.313 0-.6131.1243-.8344.3456-.2213.2213-.3456.5214-.3456.8344v4.68c-.0026.9274-.3722 1.8162-1.028 2.472-.6558.6558-1.5446 1.0254-2.472 1.028h-1V31h.35c.313 0 .6131-.1243.8344-.3456.2213-.2213.3456-.5214.3456-.8344v-4.7c.0026-.9274.3722-1.8162 1.028-2.472.6559-.6558 1.5446-1.0254 2.472-1.028zm23.71 0H109c-.927.0026-1.816.3722-2.472 1.028-.656.6558-1.025 1.5446-1.028 2.472V26h-2.45v-4.38h-2.93v11.72h2.93v-5h2.45v1.53c.003.9274.372 1.8162 1.028 2.472.656.6558 1.545 1.0254 2.472 1.028h4.46c.927-.0026 1.816-.3722 2.472-1.028.656-.6558 1.025-1.5446 1.028-2.472v-4.75c.003-.4604-.086-.9167-.261-1.3425-.175-.4259-.433-.8128-.758-1.1383-.326-.3255-.713-.5832-1.138-.7582-.426-.1749-.883-.2637-1.343-.261h-.01zm.62 8.18c.005.3113-.112.6121-.328.8368-.215.2248-.511.3553-.822.3632h-3.41c-.313 0-.613-.1243-.834-.3456-.222-.2213-.346-.5214-.346-.8344v-4.7c0-.313.124-.6131.346-.8344.221-.2213.521-.3456.834-.3456h3.41c.313 0 .613.1243.834.3456.222.2213.346.5214.346.8344l-.03 4.68z"/>
</svg>
