<svg xmlns="http://www.w3.org/2000/svg" viewBox="0 0 200 50">
	<g fill="#006D46">
		<path d="M40.8 30.12l7.44-4.32v-5.68l-7.44 4.32v5.68z"/>
		<path d="M57.61 14.72l-2.88 1.68c1.197 2.3438 1.8206 4.9383 1.8196 7.57-.001 2.6318-.6266 5.2258-1.8254 7.5687-1.1988 2.3429-2.9365 4.3678-5.0703 5.9083-2.1338 1.5405-4.6028 2.5526-7.2039 2.953v-3.59l5.8-3.36v-5.73L40.76 32v11.89c5.1331-.2235 9.9834-2.4138 13.5451-6.117C57.8667 34.0698 59.8666 29.1379 59.89 24c.019-3.2215-.7646-6.3971-2.28-9.24"/>
		<path d="M82 39.89c.1874-.2656.3231-.5642.4-.88.0561-.2987.1947-.5758.4-.8.1066-.0829.2289-.1434.3595-.1778.1307-.0343.2669-.0419.4005-.0222h.24v-.8h-.28c-.4062-.0269-.8108.0708-1.16.28-.3216.2578-.5585.6062-.68 1-.0466.1041-.0867.211-.12.32-.0428.1373-.0963.2711-.16.4-.0922.2789-.2581.5276-.48.72-.2483.17-.5393.267-.84.28v-3h-.84v6.68h.88v-3h.56l2.36 3h1.12l-2.72-3.52c.2209-.1151.4125-.2793.56-.48zM89.45 38c-.2531-.2914-.5672-.5236-.92-.68-.3855-.1947-.8085-.3038-1.24-.32-.4125-.0056-.8214.0762-1.2.24-.3608.1424-.678.3769-.92.68-.2467.332-.4484.6952-.6 1.08-.2739.9813-.2739 2.0188 0 3 .1014.4066.3084.7791.6 1.08.242.3032.5592.5376.92.68.3802.1584.7881.24 1.2.24.4119 0 .8198-.0816 1.2-.24.3815-.1462.7238-.379 1-.68.2547-.3267.4571-.6911.6-1.08.2739-.9812.2739-2.0187 0-3-.1516-.3848-.3534-.748-.6-1.08l-.04.08zm-.68 4.6c-.1701.2282-.3947.41-.6533.5288-.2585.1188-.5428.1708-.8267.1512-.2821.0064-.562-.0516-.8184-.1694-.2564-.1178-.4827-.2924-.6616-.5106-.4024-.5865-.5994-1.2898-.56-2-.0144-.393.0398-.7855.16-1.16.0675-.3068.2044-.5942.4-.84.1734-.2174.3917-.3948.64-.52.5398-.2128 1.1402-.2128 1.68 0 .2549.1148.4754.2941.64.52.1806.255.3159.5391.4.84.1008.3786.1545.7682.16 1.16.0335.7096-.1629 1.411-.56 2zm5.32-1.64l-1.68-3.72h-1.2v6.68h.84v-5.79L93.77 42h.52l1.76-3.92v5.76h.88v-6.63h-1.24l-1.6 3.75zm7 0l-1.64-3.72h-1.2v6.68h.8v-5.79l1.77 3.87h.56l1.72-3.92v5.76h.9v-6.63h-1.2l-1.71 3.75zm4.2 3h4.16v-.8h-3.28v-2.55h3.08v-.76h-3.08V38h3.28v-.8h-4.16v6.76zm8.56-6.24c-.216-.1533-.461-.2621-.72-.32-.328-.0713-.665-.0982-1-.08h-1.63V44h.88v-2.55h.76c.393.0206.787-.0337 1.16-.16.307-.1008.583-.28.8-.52.182-.1867.331-.4032.44-.64.118-.2638.173-.5514.16-.84.005-.3437-.063-.6846-.2-1-.134-.2774-.341-.5126-.6-.68l-.05.11zm-.2 2.16c-.053.1689-.149.3207-.28.44-.157.1524-.349.2625-.56.32-.29.0521-.585.0789-.88.08h-.6V38h.72c.226-.0238.454-.0238.68 0 .172.0347.335.1026.48.2.15.1024.274.2396.36.4.086.1881.127.3934.12.6.047.2002.051.4084.01.61l-.05.07zm5.44.48c-.273.0946-.554.1616-.84.2-.278.0428-.559.0695-.84.08-.233.0103-.465-.0307-.68-.12-.159-.0701-.297-.1804-.4-.32-.089-.146-.143-.31-.16-.48-.024-.226-.024-.4539 0-.68v-1.83h-.88v2.28c-.014.3017.041.6025.16.88.1.2203.235.4229.4.6.182.1607.402.271.64.32.259.0818.529.1223.8.12.295-.005.589-.0317.88-.08.341-.0648.675-.1584 1-.28v2.8h.83v-6.64h-.88v3.08l-.03.07zm2.24 3.6h4.16v-.8h-3.28v-2.55h3v-.76h-3V38h3.28v-.8h-4.16v6.76zm8.92-6.6l-.56-.12c-.509-.1127-1.039-.0909-1.537.0634-.498.1544-.947.4358-1.303.8166-.274.3207-.49.686-.64 1.08-.134.4683-.201.953-.2 1.44.022.4662.12.9256.29 1.36.134.3931.337.7589.6 1.08.278.2896.621.509 1 .64.379.1639.788.2457 1.2.24.213.024.427.024.64 0 .19-.04.377-.0934.56-.16.172-.0347.335-.1026.48-.2.12-.08.28-.12.4-.2v-1h-.08c-.085.0897-.178.1702-.28.24-.141.1023-.288.1958-.44.28-.16.08-.36.16-.56.24-.234.0682-.477.0953-.72.08-.275.009-.549-.0458-.8-.16-.245-.1135-.463-.277-.64-.48-.208-.2432-.359-.5304-.44-.84-.12-.3744-.174-.767-.16-1.16-.011-.3929.043-.7849.16-1.16.08-.3101.231-.5976.44-.84.179-.2279.413-.4067.68-.52.251-.1142.525-.1689.8-.16.229.002.457.0289.68.08.202.0379.393.1199.56.24.152.0842.299.1777.44.28.094.0959.202.1769.32.24h.08v-1.11l-.44-.24-.44-.12-.09.07zm4.48 2.6c.187-.2656.323-.5641.4-.88.056-.2987.195-.5758.4-.8.107-.0829.229-.1434.36-.1778.13-.0343.266-.0419.4-.0222h.24v-.8h-.28c-.406-.0269-.811.0708-1.16.28-.322.2578-.558.6062-.68 1-.047.1041-.087.211-.12.32-.043.1373-.096.2711-.16.4-.092.2789-.258.5276-.48.72-.248.17-.539.267-.84.28v-3H132v6.68h.88v-3h.56l2.36 3h1.12l-2.72-3.52c.221-.1151.412-.2793.56-.48h-.03zm3.64 2.52v-5.2h-.88v6.68h.88l3-5.28v5.28h.92v-6.75h-1l-2.92 5.27zm7.72-6.24c-.118.0071-.235-.0106-.346-.0519-.11-.0414-.21-.1055-.294-.1881-.157-.207-.241-.4601-.24-.72h-.8c-.004.2004.033.3995.109.5852.076.1856.188.354.331.4948.225.2469.519.421.844.4999.325.079.666.0592.98-.0568.313-.116.585-.3229.78-.5942.196-.2713.306-.5947.316-.9289H147c.018.2622-.069.5209-.24.72-.086.0702-.185.1216-.292.1509-.107.0293-.219.0358-.328.0191l-.05.07zm-1.6 6.24v-5.2h-.88v6.68h.92l3-5.28v5.28h.88v-6.75h-.92l-3 5.27zm12-2.12c-.228-.1917-.505-.3164-.8-.36-.371-.0541-.745-.0808-1.12-.08h-1.08V38h3.16v-.8h-4v6.68h1.92c.377.0087.753-.0316 1.12-.12.294-.0907.566-.2404.8-.44.213-.1776.39-.395.52-.64.127-.2762.195-.5759.2-.88.014-.3016-.041-.6025-.16-.88-.115-.2548-.294-.4754-.52-.64l-.04.08zm-.36 2.16c-.086.1604-.21.2976-.36.4-.167.1202-.358.2021-.56.24-.306.0249-.614.0249-.92 0h-.76v-2.55h.8c.306-.0238.614-.0238.92 0 .199.0239.391.0922.56.2.15.1024.274.2396.36.4.086.1881.127.3934.12.6-.001.2171-.035.4329-.1.64l-.06.07zm3.44-5.24l-2.24 6.68h.88l.6-1.88h2.56l.6 1.88h.92l-2.24-6.68h-1.08zm-.52 4l1-3.16 1 3.16h-2zm8.44-1.4h-3.08v-2.67h-.88v6.68h.88v-3.28h3.08v3.28h.88v-6.68h-.88v2.67zm5 0c.187-.2656.323-.5642.4-.88.056-.2987.195-.5758.4-.8.107-.0829.229-.1434.36-.1778.13-.0343.266-.0419.4-.0222h.24v-.8h-.28c-.406-.0269-.811.0708-1.16.28-.322.2578-.558.6062-.68 1-.047.1041-.087.211-.12.32-.043.1373-.096.2711-.16.4-.092.2789-.258.5276-.48.72-.248.17-.539.267-.84.28v-3h-.88v6.68h.88v-3h.56l2.36 3h1.12l-2.72-3.52c.233-.1141.438-.278.6-.48zM82.37 30.6h3.44l-4.48-13.28h-3.64L73.21 30.6h3.36l.84-2.72h4.16l.8 2.72zm-4.28-5.12l1.36-4.4 1.36 4.4h-2.72zm18-8.16h-9V30.6h3.36V19.84h5.6l.04-2.52zm10.48 7.36c.38-.3991.667-.8772.84-1.4.193-.5663.288-1.1616.28-1.76.023-.6886-.114-1.3731-.4-2-.264-.5343-.664-.9896-1.16-1.32-.463-.314-.977-.5442-1.52-.68-.654-.158-1.327-.2253-2-.2h-5.16V30.6h3.32v-4.36h1.76c.43.0055.859-.0347 1.28-.12.367-.0827.727-.1896 1.08-.32.31-.1272.605-.2882.88-.48.285-.1931.556-.407.81-.64h-.01zm-2.4-2.12c-.093.257-.244.4895-.44.68-.131.1161-.279.2106-.44.28-.176.0848-.366.1389-.56.16-.2 0-.44 0-.72.08h-1.2v-4h.48c.386-.0238.774-.0238 1.16 0 .314.0472.623.1276.92.24.266.1169.489.3123.64.56.183.3015.28.6474.28 1 .014.3376-.026.6754-.12 1zm17.4 1.4c.112-1.8529-.505-3.6761-1.72-5.08-1.281-1.195-2.968-1.8596-4.72-1.8596-1.752 0-3.439.6646-4.72 1.8596-1.221 1.4155-1.835 3.2549-1.71 5.12-.095 1.8264.522 3.6185 1.72 5 1.281 1.195 2.968 1.8596 4.72 1.8596 1.752 0 3.439-.6646 4.72-1.8596 1.174-1.3956 1.787-3.1777 1.72-5l-.01-.04zm-3.68 2c-.138.4927-.368.9543-.68 1.36-.261.3465-.605.6216-1 .8-.366.1598-.761.2416-1.16.24-.386.0017-.768-.0802-1.12-.24-.395-.1784-.739-.4535-1-.8-.298-.4142-.527-.8733-.68-1.36-.174-.6519-.255-1.3253-.24-2-.01-.6744.071-1.3471.24-2 .128-.4965.359-.9601.68-1.36.28-.3276.619-.5991 1-.8.353-.1505.736-.2189 1.12-.2.386-.0016.768.0802 1.12.24.404.1642.751.4421 1 .8.299.4077.517.8696.64 1.36.169.6529.25 1.3256.24 2 .079.6707.024 1.3504-.16 2v-.04zm15.92 3.76V26.6h-.32c-.16.16-.36.32-.6.52-.253.2053-.52.3924-.8.56-.313.1993-.649.3604-1 .48-.396.1472-.818.2151-1.24.2-.438-.0019-.871-.0833-1.28-.24-.43-.162-.824-.4066-1.16-.72-.379-.3921-.677-.854-.88-1.36-.226-.6697-.334-1.3734-.32-2.08-.006-.6799.102-1.3559.32-2 .166-.5054.439-.9693.8-1.36.33-.3413.724-.6133 1.16-.8.421-.1639.869-.2454 1.32-.24.395.0047.786.0722 1.16.2.35.1217.686.2828 1 .48.293.1808.574.3813.84.6.24.2.44.36.6.52h.36v-3.2c-.24-.12-.52-.24-.88-.4-.322-.1489-.657-.2693-1-.36-.391-.1183-.793-.1986-1.2-.24-.44 0-.88-.08-1.44-.08-.875-.0249-1.746.133-2.557.4636-.811.3306-1.544.8266-2.153 1.4564-1.211 1.3764-1.842 3.1685-1.76 5-.056.921.071 1.8439.373 2.7157.302.8718.773 1.6753 1.387 2.3643.626.6131 1.372 1.0896 2.191 1.3994.819.3099 1.694.4463 2.569.4006.494.0014.989-.0253 1.48-.08.36-.08.76-.16 1.16-.28l1-.36c.276-.1785.571-.3261.88-.44h-.01zm7.6 1.16c.877.0444 1.754-.1005 2.57-.4249.816-.3244 1.553-.8207 2.16-1.4551 1.195-1.3836 1.811-3.1742 1.72-5 .112-1.8529-.506-3.6761-1.72-5.08-1.281-1.195-2.968-1.8596-4.72-1.8596-1.752 0-3.439.6646-4.72 1.8596-1.207 1.407-1.817 3.2298-1.7 5.08-.095 1.8264.522 3.6185 1.72 5 .608.6251 1.341 1.1162 2.15 1.4417.81.3254 1.678.4782 2.55.4483l-.01-.01zm-2.72-9c.128-.4965.359-.9601.68-1.36.28-.3276.619-.5991 1-.8.353-.1505.736-.2189 1.12-.2.386-.0016.768.0802 1.12.24.404.1642.751.4421 1 .8.299.4077.517.8696.64 1.36.169.6529.25 1.3256.24 2 .015.6747-.066 1.3481-.24 2-.138.4927-.368.9543-.68 1.36-.261.3465-.605.6216-1 .8-.366.1598-.761.2415-1.16.24-.386.0017-.768-.0802-1.12-.24-.395-.1784-.739-.4535-1-.8-.313-.4049-.544-.8668-.68-1.36-.174-.6519-.255-1.3253-.24-2 .026-.7034.133-1.4013.32-2.08v.04zM162.15 17c-1.49-.0866-2.957.3994-4.1 1.3586-1.143.9593-1.876 2.3192-2.05 3.8014h-2.8v-4.84h-3.32V30.6h3.32v-5.92h2.68c.04 1.6811.694 3.2893 1.84 4.52.579.564 1.27 1.0011 2.027 1.2835.758.2823 1.566.4038 2.373.3565.916.0141 1.826-.1488 2.68-.48.771-.3152 1.457-.8087 2-1.44.547-.6429.956-1.3918 1.2-2.2.278-.9068.413-1.8515.4-2.8.105-1.8452-.495-3.6613-1.68-5.08-.592-.6141-1.309-1.0929-2.103-1.4036-.794-.3107-1.646-.4459-2.497-.3964l.03-.04zm2.68 8.84c-.132.5122-.348.9989-.64 1.44-.246.3291-.56.6018-.92.8-.352.1584-.734.2403-1.12.2403-.386 0-.768-.0819-1.12-.2403-.366-.1722-.682-.4335-.92-.76-.299-.4077-.517-.8695-.64-1.36-.174-.6519-.255-1.3253-.24-2-.01-.6744.071-1.3471.24-2 .132-.4873.349-.9476.64-1.36.262-.3356.607-.5975 1-.76.339-.1554.707-.2372 1.08-.24.386-.0016.768.0802 1.12.24.393.1625.738.4244 1 .76.299.4077.517.8696.64 1.36.169.6529.25 1.3256.24 2-.08.72-.16 1.36-.28 1.92l-.08-.04zm14.92-.64c-.162-.3833-.408-.7252-.72-1-.28-.2273-.589-.4156-.92-.56-.318-.1413-.655-.2356-1-.28v-.12c.694-.1726 1.321-.5487 1.8-1.08.484-.5515.742-1.2662.72-2 .01-.4707-.103-.9358-.327-1.3496-.225-.4139-.553-.7621-.953-1.0104-1.173-.641-2.506-.9325-3.84-.84-.929.0031-1.855.1105-2.76.32-.642.1315-1.271.3189-1.88.56v2.76h.32c.208-.0918.408-.1987.6-.32.282-.1572.576-.291.88-.4.328-.1235.661-.2303 1-.32.368-.0815.743-.1218 1.12-.12.59-.0177 1.176.0914 1.72.32.2.0765.369.2148.484.3948.116.1799.17.392.156.6052.013.2195-.031.4386-.13.6352-.098.1966-.246.3639-.43.4848-.571.2786-1.206.4027-1.84.36H172v2.36h1.92c.717-.0722 1.44.0668 2.08.4.194.1489.346.3444.444.5681.098.2238.138.4687.116.7119.015.2963-.052.591-.193.852-.141.261-.351.4782-.607.628-.663.354-1.41.52-2.16.48-.728-.0151-1.446-.1642-2.12-.44-.623-.2317-1.214-.5408-1.76-.92h-.32v3c.695.2898 1.419.5043 2.16.64.817.1629 1.647.2433 2.48.24 1.548.1039 3.09-.2884 4.4-1.12.482-.3383.875-.7875 1.146-1.3096.272-.5221.414-1.1019.414-1.6904.052-.4799-.031-.9648-.24-1.4l-.01-.04z"/>
	</g>
	<g fill="#F78429">
		<path d="M40 4c-5.0519.25321-9.8203 2.41124-13.3447 6.0395-3.5245 3.6283-5.5432 8.4572-5.6497 13.5144-.1065 5.0571 1.7072 9.9668 5.0758 13.7402C29.45 41.0675 34.1232 43.4243 39.16 43.89V32l-7.48-4.32v5.68l5.8 3.36v3.64c-2.7543-.4085-5.3621-1.5016-7.5844-3.1792-2.2223-1.6776-3.9881-3.8861-5.1356-6.423-1.1476-2.537-1.6401-5.3214-1.4326-8.0981.2076-2.7766 1.1086-5.4568 2.6205-7.795 1.5119-2.3382 3.5864-4.2596 6.0334-5.58824 2.447-1.3286 5.1883-2.0219 7.9727-2.01639 2.7845.0055 5.523.70964 7.9647 2.04791C50.3605 10.6462 52.4273 12.5758 53.93 14.92l2.88-1.68c-1.8032-2.8254-4.2877-5.15225-7.225-6.7668C46.6477 4.85865 43.3518 4.0082 40 4z"/>
		<path d="M39.12 30.12l-7.48-4.32v-5.68l7.48 4.32v5.68zM40 13.48l-8.36 4.72L40 23l8.32-4.8L40 13.48z"/>
	</g>
</svg>
