<svg xmlns="http://www.w3.org/2000/svg" viewBox="0 0 200 50">
	<circle fill="#e0bd70" cx="55.6" cy="24.6" r="23.6"/>
	<path fill="#073f37" d="M102 21.4c-.6 0-1.1-.1-1.5-.2-.4-.1-.7-.3-1-.4l-.5 1.3c.1.1.3.2.4.2.2.1.4.2.6.2.3.1.6.1.9.2.4.1.7.1 1.1.1 1.2 0 2-.2 2.6-.7.6-.5.9-1.1.9-2 0-.4-.1-.8-.2-1.1-.1-.3-.3-.6-.6-.8-.2-.2-.5-.4-.9-.6-.3-.2-.7-.3-1.2-.5-.3-.1-.5-.2-.7-.3l-.6-.3c-.2-.1-.3-.2-.4-.4-.1-.2-.1-.3-.1-.5 0-.3.1-.6.4-.8.3-.2.6-.3 1.1-.3.4 0 .8 0 1.1.1.4.1.7.2 1 .4l.5-1.4c-.3-.2-.6-.3-1.1-.4-.5-.1-1-.2-1.6-.2-1 0-1.8.2-2.4.7-.6.5-.9 1.1-.9 2 0 .4.1.8.2 1 .1.3.3.5.6.7.2.2.5.4.8.5.3.1.6.3.9.4l.9.3c.2.1.4.2.6.4.2.1.3.3.4.4.1.2.1.4.1.6 0 .4-.1.7-.4.9 0 .4-.4.5-1 .5zM107 13.3h1.7v9.4H107zM123.3 13.3h1.7v9.4h-1.7zM133.3 19.5c-.3-.5-.7-1-1.1-1.6-.4-.6-.8-1.1-1.2-1.7-.4-.6-.8-1.1-1.2-1.6-.4-.5-.8-1-1.2-1.3h-1.4v9.4h1.7V16l1.2 1.5c.4.6.8 1.1 1.2 1.7l1.2 1.8c.4.5.7 1.1 1 1.6h1.4v-9.4h-1.7v6.3zM142.8 15.2c-.2.7-.5 1.3-.7 1.9-.4 1.2-.8 2.3-1.3 3.5-.2-.5-.4-1-.7-1.6-.2-.6-.5-1.2-.7-1.8-.2-.6-.5-1.3-.7-1.9l-.7-1.9h-1.9c.5 1.6 1.1 3.2 1.7 4.8.6 1.5 1.3 3.1 2 4.6h1.6c.7-1.5 1.3-3 1.9-4.6l1.8-4.8h-1.8c-.1.5-.3 1.1-.5 1.8zM148.2 18.4h3.8V17h-3.8v-2.3h4.3v-1.4h-6v9.3h6.3v-1.4h-4.6zM159.4 18.2c-.2-.2-.5-.4-.9-.6-.3-.2-.7-.3-1.2-.5-.3-.1-.5-.2-.7-.3l-.6-.3c-.2-.1-.3-.2-.4-.4-.1-.2-.1-.3-.1-.5 0-.3.1-.6.4-.8.3-.2.6-.3 1.1-.3.4 0 .8 0 1.1.1.4.1.7.2 1 .4l.5-1.4c-.3-.2-.6-.3-1.1-.4-.5-.1-1-.2-1.6-.2-1 0-1.8.2-2.4.7-.6.5-.9 1.1-.9 2 0 .4.1.8.2 1 .1.3.3.5.6.7.2.2.5.4.8.5.3.1.6.3.9.4l.9.3c.2.1.4.2.6.4.2.1.3.3.4.4.1.2.2.4.1.6 0 .4-.1.7-.4.9-.3.2-.7.3-1.3.3-.6 0-1.1-.1-1.5-.2-.4-.1-.7-.3-1-.4l-.5 1.4c.1.1.3.2.4.2.5.2 1 .3 1.5.4.4.1.7.1 1.1.1 1.2 0 2-.2 2.6-.7.6-.5.9-1.1.9-2 0-.4-.1-.8-.2-1.1.1-.2 0-.4-.3-.7zM160.7 13.3v1.4h2.9v7.9h1.7v-7.9h2.9v-1.4zM114.5 32.8c-.3-.5-.7-1-1.1-1.6-.4-.6-.8-1.1-1.2-1.7-.4-.6-.8-1.1-1.2-1.6-.4-.5-.8-1-1.2-1.4h-1.4V36h1.7v-6.7l1.2 1.5c.4.6.8 1.1 1.2 1.7l1.2 1.8c.4.5.7 1.1 1 1.6h1.4v-9.4h-1.7v6.3zM123.9 33.2c-.4-.4-.8-.9-1.2-1.2-.4-.4-.8-.7-1.1-1 .3-.3.7-.7 1-1.1l1.1-1.1c.3-.4.7-.8 1-1.1.3-.4.6-.7.9-1.1h-2c-.2.3-.5.6-.8.9-.6.7-1.2 1.4-1.9 2l-.9.9v-3.9h-1.7V36h1.7v-4.2c.4.3.7.6 1.1.9.4.3.7.7 1 1.1.7.7 1.3 1.5 1.8 2.3h2c-.3-.5-.6-.9-1-1.4-.2-.6-.6-1-1-1.5zM50.7 12.6V49h9.9l.4-36.4c-.8-.7-3-2.1-4.9-2.1-2.1 0-4.5 1.4-5.4 2.1zM42.6 20.8c-2.3 0-3.5 2.6-3.9 3.9v16.2c2.5 6.8 8.1 7.5 10.6 6.7V13.7c-4.2.6-6.2 4.9-6.7 7.1zM69.1 20.8c-.5-2.1-2.5-6.5-6.7-7.1v33.9c2.5.8 8 .1 10.6-6.7V24.6c-.4-1.2-1.7-3.8-3.9-3.8zM91.4 21.5c.1-.4.3-.7.4-1.1h3.9c.1.4.3.7.4 1.1.1.4.3.7.4 1.1h1.8c-.4-1-.7-1.9-1-2.8l-.9-2.4-1.8-4.2H93c-.3.7-.6 1.3-.9 2-.3.7-.6 1.4-.9 2.2-.7 1.7-1.3 3.4-1.9 5.2H91l.4-1.1zm1.6-4.7c.2-.6.5-1.2.7-1.7.2.6.5 1.1.7 1.7.3.7.6 1.5.8 2.2h-3.1c.4-.8.7-1.5.9-2.2zM118 19.9l-.9-2.4-1.8-4.2h-1.6c-.3.7-.6 1.3-.9 2-.3.7-.6 1.4-.9 2.2l-.9 2.4c-.3.8-.6 1.8-1 2.8h1.8l.4-1.1c.1-.4.3-.7.4-1.1h3.9c.1.4.3.7.4 1.1.1.4.3.7.4 1.1h1.8c-.5-1.1-.8-2-1.1-2.8zm-5.1-.8c.3-.8.6-1.5.8-2.2.2-.6.5-1.2.7-1.7.2.6.5 1.1.7 1.7.3.7.6 1.5.8 2.2h-3zM95.7 31c.4-.2.7-.4.9-.8.2-.3.3-.7.3-1.1 0-.5-.1-.9-.3-1.2-.2-.3-.5-.6-.8-.8-.4-.2-.8-.3-1.3-.4-.5-.1-1-.1-1.6-.1-.5 0-.9 0-1.3.1-.2 0-.5 0-.7.1-.2 0-.4.1-.6.1V36c.4.1.9.2 1.3.2.5 0 1 .1 1.5.1 1.4 0 2.5-.2 3.2-.7.7-.5 1.1-1.2 1.1-2.2 0-.6-.1-1-.4-1.4-.3-.6-.7-.8-1.3-1zM92 28h1.2c.6 0 1.1.1 1.5.3.4.2.6.5.6 1s-.2.8-.6 1c-.4.2-.9.3-1.5.3H92V28zm3.5 5.9c-.1.2-.3.3-.5.5-.2.1-.5.2-.8.2-.3 0-.6.1-1 .1s-.8 0-1.2-.1v-2.8h1.5c.7 0 1.2.1 1.6.3.4.2.6.6.6 1.1 0 .3-.1.5-.2.7zM105.3 30.8l-1.8-4.2h-1.6c-.3.7-.6 1.3-.9 2-.3.7-.6 1.4-.9 2.2-.7 1.7-1.3 3.4-1.9 5.2h1.8l.4-1.1c.1-.4.3-.7.4-1.1h3.9c.1.4.3.7.4 1.1.1.4.3.7.4 1.1h1.8c-.3-1-.7-1.9-1-2.8-.4-.8-.7-1.6-1-2.4zm-4.2 1.6c.3-.8.6-1.5.8-2.2.2-.6.5-1.2.7-1.7.2.6.5 1.1.7 1.7.3.7.6 1.5.8 2.2h-3z"/>
</svg>