<svg xmlns="http://www.w3.org/2000/svg" viewBox="0 0 200 50">
	<path fill="#170030" d="M43.8305 31.8491c-.412 0-.6507.2472-.6507.6944v3.5325h-5.4216v-3.5325c0-.4449-.2387-.6944-.6507-.6944-.4075 0-.6507.2472-.6507.6944v8.5168c0 .4449.2432.6921.6507.6921.412 0 .6507-.2472.6507-.6921v-3.7708h5.4216v3.7708c0 .4449.2387.6921.6507.6921.4075 0 .6462-.2472.6462-.6921v-8.5168c.0022-.4472-.2387-.6944-.6462-.6944zm6.6937 4.8359l3.7713-3.764c.1779-.1775.2544-.3213.2544-.5236 0-.2966-.2049-.5483-.5561-.5483-.1824 0-.3287.063-.4931.2248l-3.6857 3.6786c-.2071.2067-.4165.3213-.7092.3213h-.7588v-3.5325c0-.445-.2386-.6944-.6507-.6944-.4075 0-.6506.2472-.6506.6944v8.5167c0 .4449.2431.6921.6506.6921.4121 0 .6507-.2472.6507-.6921v-3.7707h.671c.2904 0 .4998.1168.7069.3213l3.9132 3.9056c.1733.1708.3242.2359.5178.2359.3693 0 .5831-.2629.5831-.573 0-.2135-.081-.364-.2679-.5505l-3.9469-3.9416zm8.1437-16.5616c-.5854.3079-1.3869.5281-2.1547.5281-1.2653 0-2.0578-.546-2.0578-1.4988 0-.8584.6777-1.5236 2.0488-1.5236.7228 0 1.3622.1056 2.1637.3438v2.1505zm-1.9813-7.9077c-1.101 0-2.0939.2809-2.7288.5393-.5359.218-.7633.5281-.761.9416.0045.4876.3737.8449.833.8449.2207 0 .4661-.0854.7273-.1888.4142-.1663 1.0964-.346 1.7786-.346 1.5153 0 2.1322.5708 2.1322 1.737v.7865c-.8713-.2337-1.5828-.337-2.3978-.337-2.4812 0-3.6925 1.4112-3.6925 2.9595 0 1.791 1.3577 3.1393 3.7623 3.1393 1.8687 0 3.2917-.6203 3.8613-1.0113.2724-.1887.3692-.3685.3692-.7348v-4.7595c-.0022-2.4494-1.4139-3.5707-3.8838-3.5707zm23.7354 6.346c-.4458.009-.6958.2741-.8646.5685-.3423.7348-1.065 1.2539-2.0534 1.2539-1.3959 0-2.2177-.8404-2.3326-2.0831-.0607-.6652-.0607-1.4337 0-2.0988.1149-1.245.9479-2.0854 2.3326-2.0854.9884 0 1.7044.5101 2.0534 1.2629.1756.2854.4188.5573.8646.5618.5718.0045.9568-.3506.9568-.9101 0-.2899-.1103-.5798-.2859-.8966-.5741-1.0674-1.8215-1.9214-3.6159-1.9214-2.4226 0-4.0527 1.5259-4.2554 3.7079-.0698.7258-.0698 1.928 0 2.6561.2117 2.182 1.8328 3.7123 4.2554 3.7123 1.7944 0 3.0418-.8494 3.6226-1.9236.1757-.3191.2815-.6067.2815-.8966-.0023-.5505-.3895-.9213-.9591-.9078zm-44.2218 1.955l-3.3953-3.3887 3.2219-3.2157c.2499-.2494.3782-.4966.3782-.782 0-.4742-.3444-.827-.8353-.827-.2859 0-.4998.1034-.7767.3798l-3.2737 3.2674c-.1779.1797-.3693.2809-.6237.2809h-.6687v-2.8899c0-.6562-.3827-1.0382-.9861-1.0382-.5989 0-.9794.382-.9794 1.0382v7.8201c0 .6562.3827 1.0427.9794 1.0427.6034 0 .9861-.3865.9861-1.0427v-3.1213h.5584c.2544 0 .4458.1012.6237.2809l3.4943 3.4854c.2882.2876.5133.4.8128.4.5178 0 .8803-.3686.8803-.8697 0-.2989-.1328-.5595-.3962-.8202zm33.1489-2.2135c-.1149 1.2472-.8916 2.0899-2.3146 2.0899-.7362 0-1.6616-.2247-2.1187-.5461v-5.1864c.4571-.3258 1.3802-.5506 2.1187-.5506 1.423 0 2.202.8472 2.3146 2.0944.0562.627.0607 1.4202 0 2.0988zm-2.2538-6.0875c-1.7202 0-3.0958.6067-3.6497.9326-.4525.2674-.4998.4786-.4998 1.2314V24.402c0 .6517.3805 1.0382.9794 1.0382.6034 0 .9884-.3865.9884-1.0382v-2.6157c.5899.2854 1.4927.5057 2.3528.5057 2.274 0 3.8366-1.5124 4.0415-3.6944.0698-.7348.0698-1.946 0-2.6876-.2004-2.1865-1.7652-3.6943-4.2126-3.6943zM32.7959 39.9502c-.7205.3865-1.6999.6696-2.6073.6696-1.6233 0-2.5397-.6876-2.5397-1.8764 0-1.0674.8061-1.8651 2.5397-1.8651.8601 0 1.5874.1258 2.6073.4269v2.645zm-2.3281-8.1865c-1.1347 0-2.2402.3079-2.8391.5798-.403.1753-.5854.3618-.5764.6831.0113.3326.2679.5955.5854.5955.1553 0 .3422-.0606.5246-.146.4593-.1955 1.3261-.4539 2.1749-.4539 1.6797 0 2.4587.6831 2.4587 2.2044v.9056c-1.0537-.3056-1.8125-.4112-2.7221-.4112-2.4609 0-3.7105 1.4135-3.7105 3.0112 0 1.8764 1.414 3.1101 3.6542 3.1101 1.8508 0 3.267-.6495 3.7893-1.0292.2117-.1506.2724-.2719.2724-.5596v-5.0606c0-2.3415-1.3576-3.4292-3.6114-3.4292zM20.98 40.3883h-3.679v-5.2066h3.679c1.925 0 2.7176.9415 2.7176 2.5685 0 1.6629-.7926 2.6381-2.7176 2.6381zm.1666-6.456H17.301v-4.018h6.4078c.4278 0 .7227-.2382.7227-.6472 0-.391-.2949-.6337-.7227-.6337h-6.5721c-.7363 0-1.1573.409-1.1573 1.1528v10.7235c0 .7438.4188 1.155 1.1573 1.155h4.0077c2.4631 0 3.8906-1.4292 3.8906-3.9258 0-2.4291-1.4252-3.8066-3.8884-3.8066zM43.754 15.9437h3.2241c1.5243 0 2.2042.7753 2.2042 2.1124 0 1.3595-.6799 2.1707-2.2042 2.1707H43.754v-4.2831zm-.4864 6.173h3.9222c2.5509 0 4.0617-1.4787 4.0617-4.1033 0-2.4764-1.5108-3.8607-4.0617-3.8607H43.754v-3.164h5.7728c.6304 0 1.0402-.3707 1.0402-.964 0-.56403-.4098-.93706-1.0402-.93706h-6.2592c-.9906 0-1.5332.53707-1.5332 1.53036v9.9706c-.0023.9933.5403 1.5281 1.5332 1.5281zM18.805 16.2359l1.8012-5.1281c.0698-.1797.1284-.2427.2635-.2427.1328 0 .1913.063.2566.2427l1.8103 5.1281H18.805zm7.9479 5.0224c0-.1821-.0316-.3596-.1351-.6337l-3.634-9.901C22.5448 9.5146 21.9054 9 20.8877 9c-1.0132 0-1.6571.5146-2.0939 1.7236l-3.6587 9.9055c-.1126.3078-.1351.4921-.1351.6359 0 .5146.4098.9416.9794.9416.4661 0 .815-.2337 1.0087-.8045l1.1843-3.3663h5.4036l1.1933 3.3753c.1891.5618.5381.7955.9974.7955.5786 0 .9862-.4292.9862-.9483z"/>
	<path fill="#009C32" d="M185.447 24.4826c-1.343-3.4005-4.659-5.2524-8.248-4.6043l-7.376 1.3282c-1.224.2204-2.037 1.3922-1.819 2.6167.22 1.2246 1.39 2.0384 2.613 1.8199l7.375-1.3282c1.755-.3165 2.839.7348 3.268 1.8218.43 1.0889.355 2.5979-1.14 3.5681l-10.825 7.0251c-1.007.6519-2.231.6971-3.279.1263-1.049-.5709-1.678-1.6277-1.678-2.824V11.2688c0-1.2452-1.006-2.25502-2.249-2.25502-1.244 0-2.25 1.00982-2.25 2.25502v22.7671c0 2.8749 1.505 5.4106 4.027 6.784 1.172.6368 2.434.9552 3.691.9552 1.45 0 2.895-.4202 4.185-1.2585l10.825-7.0251c3.066-1.9894 4.223-5.6084 2.88-9.0089zm-38.077-4.6024l-7.376 1.3282c-1.222.2204-2.035 1.3922-1.817 2.6167.22 1.2246 1.39 2.0384 2.613 1.8199l7.375-1.3282c1.757-.3165 2.839.7347 3.27 1.8218.429 1.0889.355 2.5979-1.142 3.5681l-10.825 7.0251c-1.005.6518-2.229.6971-3.279.1262-1.049-.5708-1.676-1.6277-1.676-2.8239V16.7397c0-2.8767-1.505-5.4125-4.027-6.78585-2.522-1.37149-5.466-1.25845-7.876.30335L95.381 27.9264c-3.0642 1.9875-4.221 5.6065-2.8779 9.007 1.3411 3.3986 4.6554 5.2486 8.2479 4.6024l23.774-4.2803c1.223-.2204 2.037-1.3922 1.817-2.6167-.22-1.2246-1.39-2.0403-2.613-1.8199l-23.7734 4.2803c-1.7569.3165-2.8385-.7347-3.2673-1.8218-.4308-1.0889-.3574-2.5979 1.1399-3.57l27.2238-17.6655c1.002-.6499 2.229-.697 3.278-.1262 1.05.5727 1.676 1.6296 1.676 2.8259v17.2943c0 2.8749 1.505 5.4106 4.028 6.784 1.171.6368 2.435.9552 3.692.9552 1.45 0 2.893-.4202 4.183-1.2585l10.827-7.0251c3.063-1.9875 4.219-5.6065 2.878-9.007-1.337-3.4024-4.655-5.2505-8.244-4.6043z"/>
</svg>
