<svg xmlns="http://www.w3.org/2000/svg" viewBox="0 0 200 50">
	<path fill="#0061AB" d="M120.54 10.9438c-2.943 0-5.451.4677-7.572 1.1774l.427 4.3951c1.928-.7016 3.968-1.0564 5.936-1.0564 6.903 0 8.709 4.2016 9.145 6.871h-11.549v4.5161h11.549c-.081 4.2339-2.903 7.6935-8.557 7.6935-1.427 0-3.863-.1693-6.677-1.3467l2.129 5.3871c1.476.3145 2.911.4758 4.347.4758 9.346 0 14.645-5.7339 14.645-14.492 0-8.5161-5.581-13.6209-13.823-13.6209zm21.266 15.2338h3.452c3.113 0 4.911 1.3387 4.911 4.121 0 2.7903-1.798 4.121-4.911 4.121h-3.452v-8.242zm-5.572-14.9193v27.4838h10.048c7.855 0 9.782-5.1048 9.782-8.008 0-3.5403-1.693-8.8791-9.782-8.8791h-4.476v-5.7338h12.017v-4.8629h-17.589zM95.2096 28.0244l3.8065-11.2339h.0806l4.0403 11.2339h-7.9274zm.9033-16.7661L85.1613 38.7421h5.9677l2.3145-6.1612H104.79l2.315 6.1612h6.282l-10.911-27.4838h-6.3631zM63.8629 26.4839l-1.371 1.3709.9113 2.2017 2.6613-2.6613-2.2016-.9113zm-1.879 1.5806h-1.9436l-.9113 2.2016h3.7581l-.9032-2.2016zm2.0967-4.0322v1.9354l2.1936.9113v-3.758l-2.1936.9113zm-4.5564 3.8225l-1.371-1.3709-2.1935.9113 2.6613 2.6613.9032-2.2017zm3.879-7.9113l-.9113 2.2017 1.371 1.3709 2.2016-.9113-2.6613-2.6613zm-3.3629 1.9839h1.9436l.9032-2.1935H59.129l.9113 2.1935zm-2.0968 4.0403v-1.9354L55.75 23.121v3.758l2.1935-.9113zm.2097-2.4516l1.371-1.3709-.9032-2.2017-2.6613 2.6613 2.1935.9113zm1.4516-5.2258h13.2904c.4596 0 .9193.1774 1.2742.5323.3548.3548.5322.8145.5322 1.2742s-.1774.9274-.5322 1.2822l3.0483 3.0484c1.1936-1.1935 1.7904-2.7661 1.7904-4.3306 0-1.5645-.5968-3.1291-1.7904-4.3226-1.1935-1.1936-2.758-1.7903-4.3225-1.7903h-8.9839l-4.3065 4.3064zm5.1533.9678l9.3951 9.4032c.3307.3226.5323.7742.5323 1.2742s-.2016.9516-.5323 1.2822c-.3226.3226-.7742.5242-1.2742.5242v4.3146c1.6855 0 3.2178-.6855 4.3226-1.7904 1.1129-1.1129 1.7903-2.6371 1.7903-4.3306 0-1.6855-.6854-3.2178-1.7903-4.3307l-6.3468-6.3467h-6.0967zm2.9596 4.3306V36.879c0 .4597-.1774.9275-.5322 1.2823-.3549.3468-.8145.5242-1.2742.5242s-.9274-.1774-1.2742-.5242l-3.0565 3.0484C62.7823 42.4032 64.3468 43 65.9113 43c1.5645 0 3.129-.5968 4.3306-1.7903 1.1936-1.1936 1.7904-2.7662 1.7904-4.3307l-.0081-8.9758-4.3065-4.3145zm-.9677 5.1532l-9.3952 9.4033c-.3306.3225-.7822.5242-1.2822.5242s-.9436-.2017-1.2742-.5242c-.3307-.3307-.5323-.7823-.5323-1.2823h-4.3145c0 1.6936.6855 3.2177 1.7984 4.3306 1.1048 1.1049 2.6371 1.7904 4.3226 1.7904 1.6935 0 3.2177-.6855 4.3306-1.7904l6.3468-6.3548v-6.0968zm-4.3306 2.9597H49.129c-.4596 0-.9274-.1774-1.2742-.5242-.3548-.3548-.5322-.8145-.5322-1.2822 0-.4597.1774-.9194.5322-1.2742l-3.0483-3.0484c-1.2017 1.1935-1.7984 2.758-1.7984 4.3226 0 1.5645.5967 3.1371 1.7984 4.3306 1.1935 1.1936 2.758 1.7903 4.3225 1.7903h8.9839l4.3065-4.3145zm-5.1775-1.0242l-9.3951-9.3951c-.3307-.3307-.5323-.7823-.5323-1.2823s.2016-.9516.5323-1.2742c.3226-.3306.7742-.5323 1.2742-.5323v-4.3064c-1.6855 0-3.2178.6855-4.3226 1.7903C43.6855 16.7823 43 18.3145 43 20c0 1.6935.6855 3.2177 1.7984 4.3306l6.3468 6.3468h6.0967zm-2.9354-4.2742V13.1129c0-.4597.1774-.9194.5322-1.2742.3468-.3548.8145-.5242 1.2742-.5322.4597 0 .9194.1774 1.2742.5322l3.0564-3.04838C59.2419 7.59677 57.6774 7 56.1129 7c-1.5645 0-3.129.59677-4.3306 1.79032-1.1936 1.19355-1.7904 2.75808-1.7904 4.33068v8.9758l4.3146 4.3064zm.9677-5.1532l9.3952-9.3952c.3306-.3306.7822-.5242 1.2822-.5242s.9436.2017 1.2742.5242c.3307.3307.5323.7742.5323 1.2823h4.3145c0-1.6936-.6936-3.22581-1.7984-4.33065-1.1048-1.10484-2.6371-1.79032-4.3226-1.79032-1.6935 0-3.2258.68548-4.3306 1.79032l-6.3468 6.34675V21.25zm6.8145 6.3468l1.5161-1.5242v-2.1532l-1.5161-1.5162h-2.1532l-1.5242 1.5162v2.1532l1.5242 1.5242h2.1532zm-3.4516 3.1371l-3.3629-3.3549v-4.758l3.3629-3.3629h4.75L66.75 22.621v4.758l-3.3629 3.3549h-4.75z"/>
</svg>
