<?xml version="1.0" encoding="utf-8"?>
<!-- Generator: Adobe Illustrator 25.4.1, SVG Export Plug-In . SVG Version: 6.00 Build 0)  -->
<svg version="1.1" id="Layer_1" xmlns="http://www.w3.org/2000/svg" xmlns:xlink="http://www.w3.org/1999/xlink" x="0px" y="0px"
	 viewBox="0 0 200 50" style="enable-background:new 0 0 200 50;" xml:space="preserve">
<style type="text/css">
	.st0{fill:url(#SVGID_1_);}
	.st1{fill:#433A31;}
	.st2{fill:url(#SVGID_00000023968877363445481340000006956569251783594656_);}
</style>
<linearGradient id="SVGID_1_" gradientUnits="userSpaceOnUse" x1="48.6019" y1="14.8932" x2="12.8019" y2="35.5932" gradientTransform="matrix(1 0 0 -1 0 49.8898)">
	<stop  offset="0" style="stop-color:#A1742B"/>
	<stop  offset="0.5216" style="stop-color:#EADC66"/>
	<stop  offset="1" style="stop-color:#A1742B"/>
</linearGradient>
<path class="st0" d="M30.8,45.4c11.4,0,20.7-9.3,20.7-20.7S42.2,4,30.8,4S10,13.3,10,24.7C10,36.1,19.4,45.4,30.8,45.4z"/>
<g>
	<path class="st1" d="M44.4,11.1C36.9,3.5,24.5,3.5,17,11c-7.5,7.5-7.5,19.8,0.1,27.3c7.5,7.6,19.9,7.6,27.3,0.1
		C52,30.9,51.9,18.6,44.4,11.1z M40,33.8c-1.4,1.4-3.6,1.4-5.1-0.1c-1.5-1.4-1.5-3.7-0.1-5.1c1.4-1.5,3.8-1.5,5.2,0
		C41.5,30.1,41.5,32.4,40,33.8z M44,24.7c-3.5-3.5-9.1-3.6-12.7-0.4c0,0-0.1,0.1-0.2,0.2c-0.2,0.2-0.6,0.6-0.7,0.7
		c-3.6,3.2-9.2,3-12.7-0.5c-3.6-3.6-3.6-9.4-0.1-12.9c7.2-7.2,18.8-7.2,26.1,0.1c6.6,6.5,7.2,16.7,1.9,23.9
		C47.5,32.2,46.9,27.7,44,24.7z"/>
	<path class="st1" d="M21.4,15.2c-1.5,1.4-1.5,3.7,0,5.1c1.4,1.4,3.8,1.4,5.2,0c1.5-1.5,1.5-3.7,0-5.1
		C25.1,13.8,22.8,13.8,21.4,15.2z"/>
</g>
<linearGradient id="SVGID_00000028325738265531640370000015243109103774056627_" gradientUnits="userSpaceOnUse" x1="135.4347" y1="4.2048" x2="116.8347" y2="47.5048" gradientTransform="matrix(1 0 0 -1 0 49.8898)">
	<stop  offset="0" style="stop-color:#A1742B"/>
	<stop  offset="0.4118" style="stop-color:#D3BC6F"/>
	<stop  offset="0.6784" style="stop-color:#EADC66"/>
	<stop  offset="1" style="stop-color:#A1742B"/>
</linearGradient>
<path style="fill:url(#SVGID_00000028325738265531640370000015243109103774056627_);" d="M65.5,17.9h7.3l2.9,8.9
	c0.1,0.2,0.2,0.5,0.2,0.6c0.1,0.1,0.2,0.2,0.3,0.3c0.1,0.1,0.3,0.1,0.5,0.1H77v2.2h-6.5v-2.2h0.5c0.4,0,0.5-0.1,0.5-0.3
	c0-0.1-0.1-0.2-0.1-0.5h-4.3l-0.1,0.2c0,0.1,0.1,0.2,0.1,0.4c0.1,0.1,0.2,0.2,0.4,0.2h0.2V30h-5v-2.2h0.3c0.4,0,0.6-0.1,0.8-0.2
	c0.1-0.2,0.3-0.4,0.4-0.9l2.1-5.8c0,0,0-0.1,0.1-0.1v-0.1c0-0.1,0.1-0.1,0.1-0.1v-0.1c0.1-0.1,0.1-0.2,0.1-0.2
	c0-0.2-0.2-0.2-0.5-0.2h-0.7V17.9z M69.4,21l-1.3,3.4h2.5L69.5,21H69.4z M77.9,30.1v-2.2h0.5c0.3,0,0.5-0.1,0.6-0.2s0.2-0.3,0.2-0.5
	v-6.3c0-0.2-0.1-0.4-0.2-0.5c-0.1-0.1-0.3-0.1-0.6-0.1h-0.5v-2.2h6.9v2.2h-0.7c-0.4,0-0.6,0.1-0.6,0.4v6.9h2.4
	c0.4,0,0.6-0.1,0.8-0.3c0.2-0.2,0.3-0.6,0.4-1.3h2.2V30L77.9,30.1L77.9,30.1z M93.1,30.1v-2.2h0.8c0.3,0,0.5-0.1,0.6-0.1
	c0.1-0.1,0.2-0.3,0.2-0.5v-6.6H94c-0.3,0-0.5,0-0.7,0.1c-0.1,0.1-0.2,0.1-0.3,0.2c-0.1,0.1-0.1,0.2-0.1,0.4l-0.2,1h-2.2l0.1-4.3
	h12.6l0.1,4.3H101l-0.2-1c-0.1-0.2-0.1-0.4-0.2-0.5c-0.1-0.1-0.4-0.1-0.9-0.1h-0.7v6.6c0,0.2,0.1,0.4,0.1,0.5
	c0.1,0.1,0.3,0.2,0.6,0.2h0.8v2.2L93.1,30.1L93.1,30.1z M111.5,17.9h5.3v2.2h-0.4c-0.2,0-0.4,0.1-0.5,0.1c-0.1,0.1-0.2,0.2-0.3,0.4
	c-0.1,0.2-0.2,0.5-0.5,1l-2.4,5.3v0.4c0,0.2,0.1,0.3,0.1,0.4c0.1,0.1,0.2,0.1,0.4,0.1h0.9v2.2h-7v-2.2h0.7c0.5,0,0.7-0.1,0.7-0.4
	v-0.5l-2.9-5.6c-0.2-0.5-0.5-0.8-0.7-1c-0.2-0.2-0.5-0.3-0.8-0.3h-0.2v-2.2h6.9V20h-0.4c-0.4,0-0.5,0.1-0.5,0.2
	c0,0.1,0.1,0.2,0.1,0.3L111,23h0.1l1.1-2.5c0.1-0.1,0.1-0.2,0.1-0.3c0-0.1-0.1-0.2-0.4-0.2h-0.4C111.5,20,111.5,17.9,111.5,17.9z
	 M117.6,17.9h5.1l4.7,6.7v-3.8c0-0.2-0.1-0.4-0.1-0.4c-0.1-0.1-0.3-0.2-0.5-0.2h-0.5v-2.2h5.2v2.2h-0.5c-0.3,0-0.5,0.1-0.6,0.2
	c-0.1,0.1-0.1,0.3-0.1,0.5v9.3h-3.9l-4.7-6.6v3.7c0,0.2,0.1,0.4,0.1,0.5c0.1,0.1,0.2,0.1,0.5,0.1h0.5v2.2h-5.2v-2.2h0.5
	c0.3,0,0.5-0.1,0.6-0.2c0.1-0.1,0.1-0.3,0.1-0.5v-6.4c0-0.2-0.1-0.4-0.1-0.5c-0.1-0.1-0.3-0.2-0.6-0.2h-0.5
	C117.6,20,117.6,17.9,117.6,17.9z M132.5,17.9h5.6c1.2,0,2.1,0,2.8,0.1c0.7,0.1,1.4,0.2,2,0.4c0.6,0.2,1.1,0.5,1.4,0.9
	c0.4,0.4,0.5,1,0.5,1.7c0,0.5-0.1,0.9-0.4,1.3c-0.2,0.4-0.6,0.7-1,1c-0.4,0.2-1,0.4-1.5,0.4h-0.2v0.2h0.4c0.5,0,1,0.1,1.5,0.4
	c0.5,0.2,0.9,0.5,1.2,1c0.3,0.5,0.5,1,0.5,1.6c0,0.8-0.2,1.4-0.5,1.9c-0.4,0.4-0.9,0.8-1.5,1c-0.7,0.2-1.4,0.4-2.2,0.4
	c-0.8,0.1-1.9,0.1-3.2,0.1h-5.2v-2.2h0.5c0.3,0,0.5-0.1,0.6-0.2c0.1-0.1,0.1-0.3,0.1-0.5v-6.3c0-0.2-0.1-0.4-0.1-0.5
	c-0.1-0.1-0.3-0.2-0.6-0.2h-0.5v-2.2L132.5,17.9L132.5,17.9z M138.1,22.7h0.9c0.9,0,1.3-0.4,1.3-1.1c0-0.4-0.1-0.7-0.4-0.9
	c-0.3-0.1-0.7-0.2-1.3-0.2h-0.5L138.1,22.7L138.1,22.7z M138.1,27.4h0.9c1,0,1.5-0.4,1.5-1.1c0-0.5-0.2-0.8-0.5-1
	c-0.3-0.2-0.7-0.2-1.3-0.2h-0.6V27.4z M148.3,17.9h7.3l2.9,8.9c0.1,0.2,0.2,0.5,0.2,0.6c0.1,0.1,0.2,0.2,0.3,0.3
	c0.1,0.1,0.3,0.1,0.5,0.1h0.3v2.2h-6.5v-2.2h0.5c0.4,0,0.5-0.1,0.5-0.3c0-0.1-0.1-0.2-0.1-0.5h-4.3l-0.1,0.2c0,0.1,0.1,0.2,0.1,0.4
	c0.1,0.1,0.2,0.2,0.4,0.2h0.2V30h-5v-2.2h0.3c0.4,0,0.6-0.1,0.8-0.2c0.1-0.2,0.3-0.4,0.4-0.9l2.1-5.8c0,0,0-0.1,0.1-0.1
	c0-0.1,0-0.1,0.1-0.1v-0.1c0.1-0.1,0.1-0.2,0.1-0.2c0-0.2-0.2-0.2-0.5-0.2h-0.7v-2.2H148.3L148.3,17.9z M152.2,21l-1.3,3.4h2.4
	L152.2,21L152.2,21z M160.5,17.9h5.1l4.7,6.7v-3.8c0-0.2-0.1-0.4-0.1-0.4c-0.1-0.1-0.3-0.2-0.6-0.2H169v-2.2h5.2v2.2h-0.6
	c-0.3,0-0.5,0.1-0.5,0.2c-0.1,0.1-0.1,0.3-0.1,0.5v9.3H169l-4.7-6.6v3.7c0,0.2,0.1,0.4,0.1,0.5s0.2,0.1,0.5,0.1h0.5v2.2h-5.2v-2.2
	h0.5c0.3,0,0.5-0.1,0.6-0.2c0.1-0.1,0.1-0.3,0.1-0.5v-6.4c0-0.2-0.1-0.4-0.1-0.5c-0.1-0.1-0.3-0.2-0.6-0.2h-0.5L160.5,17.9
	L160.5,17.9L160.5,17.9z M175.4,30.1v-2.2h0.5c0.4,0,0.6-0.1,0.7-0.1c0.1-0.1,0.1-0.2,0.1-0.4v-6.5c0-0.2-0.1-0.4-0.1-0.5
	c-0.1-0.1-0.3-0.2-0.6-0.2h-0.6v-2.2h6.6V20h-0.3c-0.2,0-0.4,0.1-0.5,0.1c-0.1,0.1-0.2,0.2-0.2,0.4v2l2.3-2.1
	c0.2-0.2,0.3-0.3,0.3-0.4c0-0.1-0.2-0.1-0.4-0.1H183v-2.2h6.3V20h-0.4c-0.6,0-1.2,0.2-1.8,0.5c-0.6,0.4-1.1,0.8-1.6,1.3l2.6,4.2
	c0.7,1.1,1.3,1.6,1.9,1.6v2.2h-7v-2.2h0.3c0.3,0,0.4-0.1,0.4-0.4c0-0.1-0.1-0.3-0.4-0.7l-1.1-1.8l-1.3,1.3v1c0,0.5,0.2,0.7,0.7,0.7
	h0.2v2.2H175.4L175.4,30.1z"/>
</svg>
