<svg viewBox="0 0 200 50" xmlns="http://www.w3.org/2000/svg">
	<path fill="#02ACE2" d="M31.7018 26.6104c-.1279-.1934-.2236-.3389-.2973-.4708l-2.1006-3.6386-.0579-.0996-2.0095-3.4815c-.9072-1.5732-1.8127-3.1465-2.7163-4.7231-2.0308-3.5386-2.0151-7.09426-.0239-10.647L26.5456 0l.103.171387.0591.096191.0606.09961.052.09082C29.1257 4.45508 31.4218 8.4165 33.705 12.4004c2.0532 3.5517 2.073 7.0976.0462 10.6601l-2.0494 3.5499ZM159.152 29.957v2.0235h-9.987v-1.9976h1.219l.111-.6475c.063-.375.124-.7441.183-1.1108l.189-1.1865.003-.0249.007-.0396c.182-1.0893.363-2.205.519-3.2944.155-1.0117.934-1.686 1.971-1.7119.494-.0117.987-.0132 1.479-.0108.424.002.847.0064 1.266.0093l.498.0015c.934 0 1.504.5703 1.504 1.5044V29.957h1.038Zm-3.217-5.9926h-1.686c-.356 0-.572.0473-.707.2021-.047.0542-.084.1221-.114.2061-.04.1108-.067.2495-.087.4223l-.073.5215-.088.6045-.065.4341-.001.0058v.0059l-.001.0059-.001.0058c-.064.4273-.128.8511-.186 1.27l-.001.0074c-.103.7495-.207 1.4995-.336 2.2754h3.372c-.026-1.9717-.026-3.9434-.026-5.9668Zm12.504 7.9897V21.9409l-.264.002c-.334.0044-.635.0078-.903-.0537-.178-.0113-.327.0058-.457.0576-.058.0229-.112.0527-.163.0893-.105.0752-.198.1802-.288.3199-1.167 1.8159-2.361 3.6059-3.554 5.396-.052.0859-.115.1723-.175.2583-.03.0434-.058.0869-.084.1303-.013 0-.033-.0068-.053-.0132l-.032-.0102-.019-.0025v-6.1479h-2.179V31.98c.183 0 .364-.0029.542-.0059.352-.0058.696-.0112 1.04.0059.26 0 .415-.0777.571-.3111 1.167-1.79 2.361-3.58 3.554-5.3701.052-.1035.13-.2075.207-.311.026 0 .052.0259.078.0259v5.9404h2.179Zm-42.492-6.0181c.519 0 .934.0259 1.375 0 .726-.0781 1.167-.5449 1.401-1.1933.259-.7783.519-1.5825.752-2.3609.032-.1181.074-.2094.133-.2744.083-.0913.203-.1299.386-.1147.131.0063.261.0097.391.0112l.198.001c.176-.0005.353-.0034.535-.0064.198-.0029.401-.0058.614-.0058-.13.4414-.259.8564-.389 1.2456l-.545 1.7895c-.233.7266-.571 1.375-1.323 1.7642.882.3892 1.219 1.1157 1.453 1.9199.337 1.0635.648 2.1528.986 3.2686-.727 0-1.375.0258-2.05-.0259-.104 0-.259-.1817-.285-.2857-.173-.4985-.317-.997-.464-1.5063l-.159-.543c-.441-1.4267-.856-1.7641-2.36-1.7641h-.623v4.0727h-2.205V21.915h2.179v4.021Zm22.439-1.9975v-1.9712c-.181 0-.311-.0264-.389 0h-4.358c-1.401.0259-2.283.8818-2.283 2.2827v5.4736c0 1.4527.882 2.3086 2.309 2.3086h4.358c.13 0 .26-.0259.39-.0259v-1.9716h-4.826v-2.127h4.099v-1.9199h-4.125v-2.0493h4.825Zm-13.359 4.332v3.6836h-2.206c0-.0645-.006-.1357-.012-.207-.007-.0713-.013-.1431-.013-.208v-7.4449c0-1.3491.83-2.1792 2.179-2.1533.908 0 1.816-.0259 2.723.0777 1.739.2075 2.802 1.4526 2.776 3.1909-.026 1.5566-1.245 2.8794-2.879 3.061-.548.0518-1.096.0352-1.666.0176-.294-.0088-.594-.0176-.902-.0176Zm.025-1.9717c.247 0 .487.003.723.0059h.011c.457.0058.899.0117 1.342-.0059.622-.0259 1.037-.5185 1.063-1.1152.026-.6226-.285-1.1157-.856-1.1675-.344-.0356-.694-.0439-1.047-.0425-.198.0005-.396.0044-.595.0083-.222.0044-.444.0083-.666.0083.025.7525.025 1.5308.025 2.3086Zm34.321-2.334h2.698v8.0157h2.205v-8.0157H177v-1.9716h-7.627v1.9716Z"/>
	<path fill="#FE720A" d="M59.8743 17.7388h-.493c-4.6435 0-9.2871.0258-13.9565 0-3.9949-.0264-7.03-1.7901-9.0793-5.2403l-.003-.0058-.0029-.0059c-.6208-1.06-1.2415-2.1196-1.8362-3.17918-.0346-.05811-.0642-.11621-.0954-.17823l-.0074-.01416-.0036-.00732c-.0359-.07178-.075-.1499-.127-.24121.1113 0 .2075-.00732.2969-.01416l.1208-.0083.0425-.00195.0586-.00147c1.0235 0 2.0469-.00146 3.0703-.00293l1.5213-.00293c3.061-.00586 6.1223-.01172 9.1833.00586 4.0989.02588 7.2117 1.81588 9.2871 5.36958.5967 1.0376 1.1934 2.0494 1.7901 3.087.0385.0644.0708.1289.1062.2002.0359.0717.0749.1499.1272.2412Zm-.8819 14.2417h-2.2829V29.957c-.5188 0-1.5205-.0112-2.4434-.0234-1.0613-.0142-2.0185-.0288-2.0185-.0288l-1.1155 2.1274s-2.0235-.0259-2.5164-.0259c.1038-.2075.1817-.3374.2595-.4672.7505-1.333 1.5079-2.6661 2.2652-3.9991l.3684-.6489c.4758-.8379.9512-1.6758 1.4245-2.5137l.4815-.854c.5967-1.0898 1.4788-1.6342 2.7239-1.5825.3613.0171.7226.0117 1.0915.0059.1875-.003.3767-.0059.5689-.0059.7263 0 1.2971.4668 1.2971 1.1934.0173 1.935.0115 3.8701.0059 5.813-.003.9741-.0059 1.9502-.0059 2.9292l-.1038.104Zm-5.759-3.9693h3.4502v-3.7358c-.908-.2075-1.5046.0522-1.8938.9082-.301.4888-.5203.9233-.7564 1.3628-.0893.1665-.1813.3335-.2812.5049l-.094.1645-.0762.1387-.0722.1348-.0967.1831-.1797.3388Zm31.4685-.726-.0015-.3374v-1.1934c-.0261-2.2568-1.3491-3.6836-3.6059-3.8916-2.3347-.2075-4.0989 1.3232-4.1765 3.6582-.0262.9595-.0262 1.8936 0 2.8535.0517 2.1011 1.3488 3.4502 3.4243 3.6836 2.1789.2334 3.9429-.9858 4.2803-3.0869.0866-.5415.083-1.1182.0793-1.686Zm-5.5847.1538c.0027-.1641.0056-.3277.0056-.4912v-1.479c.052-.9078.6746-1.5044 1.5825-1.5044.96-.0259 1.6863.5708 1.7122 1.4785.052 1.0117.052 2.0234 0 3.0351-.0518.96-.7263 1.5308-1.6863 1.5308-.9338 0-1.5823-.6226-1.6084-1.5825-.01-.19-.0122-.3799-.0112-.5699.0007-.1391.0031-.2783.0056-.4174Zm-8.5291 4.541h-2.205c0-.0386-.0015-.0757-.0039-.1118l-.0054-.0669c-.0073-.0855-.0166-.1695-.0166-.2622v-7.8863c0-1.1152.5967-1.7119 1.7121-1.686l.5313-.002c.8796-.0034 1.7478-.0068 2.6335.0796 1.7642.1817 2.8018 1.4527 2.8018 3.1651 0 1.5566-1.2451 2.8794-2.8535 3.061-.4324.0518-.8648.0576-1.2971.063l-.3213.0049c-.1092.0024-.2183.0054-.3274.0097h-.6226v1.8423c-.0117.2583-.0181.522-.0215.7906-.0044.3252-.0044.6582-.0044.999Zm.0259-8.0156v2.3344c.7263 0 1.4009.0259 2.1013 0 .6226-.0517 1.0638-.5708 1.0638-1.167 0-.6748-.3633-1.0898-1.0379-1.1416-.31-.0229-.6201-.0302-.9324-.0317-.2155-.001-.4323.001-.6508.0029-.1553.0015-.3113.003-.4685.003h-.0755Zm-10.1431 8.0161h2.2051v-8.0679h4.8511v-1.9717H62.261c-1.2193 0-1.8159.5708-1.8159 1.7901v7.7563c0 .0747.0061.1494.0122.2275.0066.084.0136.1714.0136.2657Z"/>
	<path fill="#0062A4" d="M28.0295 37.4121c.032-.06.0623-.1147.0926-.1655 2.3086-3.9946 4.5915-7.9639 6.9004-11.9331 2.0493-3.5279 5.1362-5.292 9.2092-5.3438h4.0986c-.0476.0835-.0896.1612-.1286.2334-.0464.0855-.0887.1631-.1307.2334l-2.0373 3.5288c-.8882 1.5386-1.7744 3.0747-2.6624 4.6094-.7321 1.2656-1.4653 2.5303-2.2009 3.7949-2.0493 3.5542-5.1103 5.3443-9.2092 5.3701h-4.0987c.0633-.1264.117-.2338.167-.3276Zm89.5905-9.5044c.311-.6743.571-1.2973.83-1.8935.545-1.2456 1.09-2.4649 1.608-3.71.13-.2852.26-.3892.571-.3633.352.0176.703.0117 1.062.0059h.03c.187-.003.376-.0059.568-.0059v10.0137h-2.205v-4.6177c-.013 0-.032-.0068-.052-.0132l-.025-.0078c-.01-.0029-.019-.0049-.026-.0049-.364.7784-.727 1.5567-1.09 2.3609-.233.5703-.622.9336-1.271.9336-.342 0-.61-.0933-.825-.2593-.21-.1621-.37-.3931-.498-.6743-.337-.8042-.726-1.5825-1.167-2.335v4.5918h-2.205V21.915c.157 0 .312-.0014.464-.0029.449-.0049.88-.0098 1.326.0288.129 0 .259.2075.337.3374.378.8316.756 1.6631 1.131 2.4976.237.5273.473 1.0561.707 1.5869.158.3584.315.7178.471 1.0781.077.1294.155.2593.259.4668Zm-26.0971 4.0728h2.1531c0-.1558 0-.2857.0259-.4414v-8.1455c0-.96-.4929-1.4527-1.4526-1.4527h-4.6436c-1.1155.0259-1.6084.4927-1.6084 1.6084v8.4312h2.231v-7.9903h3.2946v7.9903Zm20.0011-4.981c0 .5967.026 1.1934-.052 1.7901-.285 2.2309-2.05 3.5542-4.332 3.2685-1.998-.2334-3.217-1.4268-3.373-3.4243-.078-1.167-.078-2.3345.026-3.502.182-2.0493 1.92-3.3984 4.047-3.2426 2.257.1557 3.658 1.6601 3.684 3.917v1.1933Zm-2.283-.0259v-1.3227c-.026-1.064-.649-1.6865-1.66-1.6865-.986 0-1.635.5708-1.661 1.6342-.026.9082-.026 1.8418 0 2.75.026 1.0376.675 1.6602 1.635 1.6602 1.011 0 1.634-.6226 1.66-1.686.039-.3291.034-.6587.029-.9991l-.001-.1103-.002-.2398Zm-11.7256 4.9805v-3.6318h.6225c.6487-.0259 1.2972 0 1.9451-.0777 1.635-.1816 2.828-1.5044 2.854-3.061.026-1.7124-1.011-2.9834-2.776-3.165-.9081-.0865-1.8346-.0826-2.7486-.0787l-.5455.001c-1.0896-.0259-1.5825.4668-1.5825 1.5567v8.0156c0 .0815.0071.1631.0139.2407l.0093.1196.0027.0806h2.2051Zm.0259-5.6553v-2.3344l.153-.0005.3721-.0025c.5254-.0049 1.0508-.0097 1.5762.0288.7004.0518 1.0634.4668 1.0634 1.1416 0 .1817-.04.356-.115.5122-.071.149-.173.2818-.299.3882-.094.0791-.201.1441-.3186.1905-.1028.04-.2136.0664-.3308.0761-.0965.0039-.1934.0064-.2908.0083-.1824.0034-.3664.0039-.5525.0034-.1728-.0009-.3469-.0034-.5229-.0058h-.0088l-.3176-.0039-.4087-.002Zm-48.355 10.896h-.3113v1.7637h-1.1155v-4.2803h1.1155v1.8159l.2595-.1298 1.0117-1.712h1.1932l-1.0376 1.6343-.441.3374.4668.3369 1.1675 1.9976h-1.2712l-1.0376-1.7637Zm2.6921-1.6303c-.0354.0737-.0674.1508-.0954.2314-.0181.0513-.0347.104-.0496.1582l-.023.0894c-.0102.0424-.0195.0859-.028.1298-.0198.104-.0345.2129-.044.3267l-.0075.1099-.0032.0664-.0022.0854-.0007.0698c0 .0894.0036.1773.01.2632.0053.0723.0127.1436.0212.2134.0195.1592.0461.3115.0725.4575.0735.2022.1599.3784.2595.5376.0257.041.0523.0806.0796.1192l.0501.0693c.0649.0864.1386.1641.2217.2329.1159.0957.2495.1738.4008.2344.0537.0239.1119.0449.1734.0635.0437.0131.0891.0249.136.0351.1735.0381.3684.0571.5727.0571.2539 0 .4907-.0302.7048-.0942.1175-.0351.2283-.0806.3313-.1367.1695-.0918.3182-.2129.4424-.3657.1389-.1709.2515-.3638.3357-.5826.1204-.3125.1831-.6767.1831-1.104 0-.2133-.0207-.4165-.0556-.6093-.0203-.1118-.0454-.2198-.074-.3243-.0779-.2856-.2075-.519-.363-.7265-.1558-.2075-.3633-.3633-.6228-.4668-.2334-.104-.5447-.1558-.8819-.1558-.6225 0-1.1155.2075-1.4787.5967-.1033.127-.1919.2661-.2652.419Zm.9485 1.6782-.0151-.1128-.0086-.0777-.0061-.0781c-.0029-.0469-.0049-.0947-.0049-.1426 0-.4668.0518-.8042.1814-1.0117.1558-.2075.3633-.311.6487-.311.3113 0 .5447.1294.6743.3633.1299.2592.2076.5703.2076.9594 0 .0918-.003.1788-.0088.2603-.0044.0625-.0105.1221-.0183.1782-.0054.0401-.0115.0786-.0184.1157-.0356.1914-.091.3438-.1621.4576-.1296.2075-.363.3115-.6484.3115-.1558 0-.2854-.0259-.3892-.104-.1037-.0777-.1816-.1553-.2592-.2852-.0779-.104-.1299-.2593-.1558-.415l-.0171-.1079Zm7.2808-.23.0778-.8818h-.0517l-.3374.7265-.8042 1.3228h-.4151l-.8818-1.3228-.3374-.7265h-.0517l.1037.8818v1.9717h-.9858v-4.2803h1.1675l.9855 1.6084.2337.5449h.0259l.2592-.5449.908-1.5825h1.1675v4.2803h-1.0637v-1.9976Zm5.759-.8818-.0779.8818h.0259v1.9976h1.0637V34.73h-1.1675l-.9079 1.5825-.2593.5449h-.0259l-.2336-.5449-.9856-1.6084h-1.1675v4.2803h.9858v-1.9717l-.1037-.8818h.0259l.3371.7265.8821 1.3228h.415l.8042-1.3228.3372-.7265h.052Zm5.396 2.4648c-.1816.1299-.415.2593-.7004.3374-.2854.1035-.5967.1294-.9341.1294-.7002 0-1.1931-.2075-1.5044-.5967-.1892-.2519-.3208-.5517-.395-.9057-.0481-.2286-.0721-.4795-.0721-.7544 0-.7525.1817-1.3228.5447-1.6861.3633-.3891.8562-.5708 1.5047-.5708.2075 0 .4411.0259.6225.0777.2075.0522.3892.1557.5449.2856.1556.1294.2854.311.3892.5186.1038.2075.1555.4931.1555.83 0 .1299 0 .2598-.0259.3892-.0129.0645-.0193.1357-.0256.2065-.0066.0718-.0132.1436-.0264.2085h-2.5681c.0259.3633.1038.6231.2854.8042.1555.1817.4409.2857.8042.2857.2334 0 .4409-.0259.6226-.104.1816-.0777.3371-.1553.415-.2075l.3633.7524Zm-1.5825-3.1392c-.2854 0-.4929.0782-.6485.2598-.1298.1816-.2336.415-.2595.7002h1.5825c.0259-.311-.0261-.5444-.1298-.7002-.1297-.1558-.3113-.2598-.5447-.2598Zm3.3205-.7519h-.8042v6.0181h1.1155V38.959c.1038.0517.2334.1035.3372.1294.1299.0259.2595.0259.4411.0259.3113 0 .5967-.0518.8301-.1553.2595-.104.4671-.2598.6226-.4673.1816-.2075.3112-.4668.3891-.752.043-.1572.0779-.33.1006-.5141.0186-.1504.0291-.3086.0291-.4717 0-.7524-.1556-1.2974-.4151-1.6343-.2854-.3374-.6745-.519-1.2192-.519-.3113 0-.5447.0517-.7522.1557-.1572.0586-.2847.1773-.4048.3213l-.052.0645-.0623.081h-.0258l-.1297-.5185Zm.8743.8242c.0674-.0137.1396-.0205.2153-.0205.1136 0 .2146.0166.302.0493.1321.0498.2322.1372.2947.2622.1297.2075.1814.4927.1814.8819 0 .519-.0776.8823-.2334 1.1157-.1555.2334-.415.3374-.7263.3374-.1558 0-.2595-.0264-.3633-.0523-.1037-.0517-.1814-.1035-.2593-.1552v-1.7901c.0779-.2334.1556-.3891.2854-.4931.0823-.066.1858-.1109.3035-.1353Zm3.8472-.8247v.96c0 .1816 0 .3374.0258.4668.0259.1298.0518.2334.0779.3115.0518.0776.1038.1553.1814.1816.0779.0518.1817.0518.3113.0518.1558 0 .3113-.0259.4412-.0518.0747-.0151.1408-.0386.1982-.0708l.032-.0195.032-.023.0227-.018.0263-.0244v-1.7901h1.1155v4.2803H79.071v-1.686c-.0778.0517-.2075.1294-.3891.2075-.1817.0776-.4151.1035-.7005.1035-.2075 0-.3891-.0259-.5708-.0776-.0766-.0254-.1533-.0572-.2236-.0953-.0725-.0395-.1387-.0854-.1914-.1381-.1038-.104-.2075-.2593-.2593-.441-.052-.1816-.0779-.415-.0779-.7006v-1.4527h1.0638v.0259Zm6.122 4.229c.2854-.0781.5188-.2075.7005-.3374l-.3633-.7524c-.0344.0229-.0837.0507-.1438.0815l-.085.0425-.0778.0356-.1084.0479c-.1817.0781-.3892.104-.6226.104-.3633 0-.6487-.104-.8042-.2857-.0867-.0864-.1497-.1909-.1948-.3159-.0493-.1367-.0772-.2983-.0906-.4883h2.5681c.0132-.0649.0198-.1367.0264-.2085.0063-.0708.0127-.142.0256-.2065l.0078-.0454.0066-.0469.0056-.06c.0059-.0787.0059-.1578.0059-.2369 0-.3369-.0518-.6225-.1555-.83-.0608-.1216-.1306-.2344-.2095-.333l-.0342-.0411-.0381-.0424c-.021-.0225-.0427-.044-.0649-.0645l-.0425-.0376c-.1557-.1299-.3374-.2334-.5449-.2856-.1814-.0518-.415-.0777-.6226-.0777-.6484 0-1.1413.1817-1.5046.5708-.363.3633-.5447.9336-.5447 1.6861 0 .438.0611.8149.1826 1.1377.0354.0937.076.1831.1216.268.0486.0899.1028.1743.1629.2544.3112.3892.8042.5967 1.5044.5967.3374 0 .6486-.0259.934-.1294Zm-1.2324-3.4238c.1016-.0362.2175-.0528.3504-.0528.1079 0 .2024.0181.2832.0503.1137.0454.2009.1187.2614.2095.0633.0947.1072.2183.1263.3701.0122.0982.0139.208.0036.3301h-1.5825c.0117-.1299.0398-.249.0791-.3579.0469-.1294.1099-.2437.1804-.3423.0833-.0972.1814-.165.2981-.207Zm5.8501 3.1899c-.1816.1294-.3891.2334-.6225.2852-.2337.0517-.493.104-.7525.104-.3371 0-.6225-.0523-.8559-.1558-.2337-.104-.4412-.2593-.5708-.4673-.1556-.2075-.2593-.4409-.3113-.726-.0779-.2857-.1038-.5967-.1038-.9341 0-.3701.0405-.6934.1248-.9761.0476-.1597.1091-.3062.185-.4409.0537-.0952.1148-.1846.1831-.2691.3372-.3891.8042-.5966 1.4268-.5966.1743 0 .3325.0083.4697.0244.1077.0127.2027.0302.2825.0532.1816.0522.3633.1299.519.2075l-.2595.9082-.3891-.1557c-.1297-.0259-.2854-.0518-.441-.0518-.3112 0-.5449.1035-.7004.311-.073.0972-.1287.2173-.1675.3628-.0439.1651-.0659.3628-.0659.5972 0 .1816.0259.3633.0518.4932l.0183.0537.0354.0967c.0363.0927.0764.1787.1279.2646.0779.1035.1816.2075.3113.2593.1296.0776.2854.1035.4409.1035.0881 0 .1702-.0064.2461-.0186.0806-.0127.1543-.0322.2209-.059.0828-.0332.1656-.0665.2417-.106.043-.0225.084-.0474.1216-.0757l.2334.9082Zm1.7898-1.5044h.3113l1.0376 1.7637h1.2712l-1.1675-1.9976-.4668-.3369.441-.3374 1.0376-1.6343h-1.1932l-1.0117 1.712-.2595.1298v-1.8159h-1.1155v4.2803h1.1155v-1.7637Zm5.6553-.1821.052-.5967h-.0259l-.3633.6231-1.5305 1.9453h-.7004v-4.2803h1.1154v2.0493l-.052.5708h.0262l.363-.5967 1.5305-2.0234h.7005v4.2803H95.907v-1.9717Zm4.721-.5962-.052.5967v1.9717h1.116v-4.2803h-.701l-1.5301 2.0234-.363.5967h-.0261l.052-.5708v-2.0493h-1.1155v4.2803h.7004l1.5303-1.9458.364-.6226h.025Zm-1.0372-3.0093c-.0158-.0117-.0305-.0254-.0439-.041-.0242-.0273-.0449-.0605-.0637-.0991-.0401-.083-.0701-.1919-.0999-.3267l-.908.2334c.0259.1817.0777.3633.1814.4932.1038.1294.2076.2593.3374.3369.1297.0781.2854.1299.441.1816l.0607.0088c.1563.0225.2969.043.4581.043.3631 0 .6741-.0776.9341-.2593.192-.1347.328-.3266.417-.5654.03-.0825.056-.1709.076-.2647l-.856-.2075c-.026.2334-.078.3633-.182.4668-.069.0523-.15.0928-.243.1138-.046.0102-.095.0161-.1461.0161-.1556 0-.2593-.0259-.3631-.1299Zm5.9662 2.1011c.156-.2593.363-.4409.597-.5444.233-.104.493-.1558.83-.1558.519 0 .934.1558 1.245.4668.312.3115.467.8042.467 1.479 0 .4766-.068.8755-.198 1.2085-.083.2105-.19.3945-.321.5552-.337.3891-.83.5967-1.478.5967-.22 0-.421-.022-.604-.0674-.376-.0933-.674-.2842-.901-.5811-.337-.4409-.519-1.1152-.519-2.0493 0-.3018.01-.5747.03-.8242.012-.1577.028-.3062.048-.4468.052-.3374.13-.6489.234-.8823.034-.0786.072-.1543.113-.2251.026-.0454.054-.0889.083-.1299.059-.0845.123-.1577.193-.2158.155-.1294.311-.2593.493-.3369.181-.0782.363-.1299.57-.1817.208-.0517.415-.0517.649-.0776.285-.0264.545-.0523.752-.104.208-.0518.363-.1035.467-.2075l.052.9858c-.038.0381-.088.0728-.145.103-.058.0308-.124.0562-.196.0752-.049.0127-.099.023-.152.0293-.106.0264-.232.0459-.379.0625-.141.0157-.299.0283-.477.041-.208 0-.415.0264-.571.0782-.155.0517-.311.1035-.441.2075-.129.1035-.207.2334-.285.4409-.104.1558-.156.3892-.156.7002Zm.208 1.375c0 .3633.078.6748.207.9082.06.1084.143.1943.243.2554.052.0317.108.0571.169.0752.074.0215.153.0327.237.0327l.06-.0015c.045-.0019.088-.0063.128-.0137.055-.0092.107-.0234.155-.0424.056-.0225.108-.0518.156-.0884.066-.0498.123-.1133.175-.1914.13-.2075.208-.5191.208-.9341 0-.3633-.052-.6484-.182-.856-.05-.08-.112-.145-.185-.1943-.059-.04-.126-.0698-.201-.0893-.072-.0186-.151-.0279-.236-.0279-.105 0-.201.0117-.289.0357-.052.0141-.1.0322-.146.0547-.105.0517-.194.1254-.266.2211-.08.1075-.14.2359-.179.3853-.036.1392-.054.2959-.054.4707Zm4.436-2.1792c-.312.0522-.571.1299-.804.2339l.233.8559c.076-.0327.151-.0605.233-.0859.113-.0351.238-.0654.39-.0957.088-.0195.176-.0352.264-.0474.145-.0205.291-.0307.436-.0307.286 0 .493.0781.571.208.104.1553.13.3887.078.7002-.363-.0259-.701-.0259-1.012.0259-.119.0214-.238.0478-.352.0786-.158.0429-.305.0942-.426.1548-.208.104-.364.2597-.493.4409-.13.1816-.182.415-.182.6748 0 .2075.052.3633.104.5185.035.106.094.1997.161.2818.032.0385.065.0742.098.1074.13.104.26.2075.416.2598.155.0517.337.0776.544.0776.311 0 .597-.0518.779-.1816.059-.0425.118-.0879.175-.1358.031-.0259.061-.0527.089-.0801.023-.0219.045-.0444.066-.0673.053-.0581.099-.1192.136-.1836h.052l.182.5966h.908c-.049-.1303-.077-.2607-.098-.3974-.013-.0811-.022-.1646-.032-.2515-.01-.0903-.016-.1841-.02-.2788-.006-.1509-.006-.3042-.006-.4473 0-.163 0-.3159.007-.4711.003-.0923.01-.1851.019-.2813.026-.2593.026-.4927.026-.7524 0-.2334-.026-.441-.078-.6226-.023-.082-.052-.1582-.088-.2295-.044-.0869-.1-.166-.171-.2373-.104-.1299-.26-.2334-.467-.311-.208-.0782-.467-.104-.752-.104-.338 0-.675.0258-.986.0776Zm.863 3.4009c-.07.0156-.149.0234-.241.0234-.181 0-.311-.0517-.441-.1035-.046-.0469-.083-.1118-.106-.1899-.015-.0523-.023-.1109-.023-.1734 0-.1299.026-.2075.103-.2851.078-.0782.182-.1299.312-.1817.129-.0522.259-.0522.441-.0781.076-.0107.147-.0171.217-.019.055-.0015.108 0 .163.0039.045.0034.091.0083.139.0151v.5449c-.024.0484-.06.0962-.103.1446-.034.0361-.071.0722-.113.1084l-.07.0585c-.047.0372-.097.0679-.153.0918-.038.0166-.08.0298-.125.0401Zm5.103-.8067h-1.401v1.6861h-1.115v-4.2803h1.115v1.6084h1.401v-1.6084h1.116v4.2803h-1.116v-1.6861Zm3.191-.1035h.311l1.064 1.7637h1.271l-1.167-1.9976-.467-.3369.441-.3374 1.037-1.6343h-1.193l-1.011 1.712-.26.1298v-1.8159h-1.115v4.2803h1.089v-1.7637Z"/>
</svg>