<svg xmlns="http://www.w3.org/2000/svg" viewBox="0 0 200 50">
	<path fill="#02ace2" d="M27.2.5c0-.2-.1-.3-.2-.5-.9 1.5-1.7 2.9-2.5 4.4-.4.8-.6 1.7-.9 2.5-.1.4-.2.7-.2 1.1v1.7c0 .1.1.2.1.3.2 1.5.6 2.8 1.4 4.1 2.3 4 4.6 8 7 12.1.1.1.2.2.3.4.7-1.2 1.4-2.3 2-3.5 2-3.5 2-7.1 0-10.6-2.4-4.1-4.7-8.1-7-12zm130.6 28.8v-5.9c0-.9-.6-1.5-1.5-1.5h-3.2c-1 0-1.8.7-2 1.7-.2 1.1-.3 2.2-.5 3.3-.2 1-.3 2-.5 3h-1.2v2h9.9v-2h-1v-.6zm-5.5.5c.1-.8.2-1.5.3-2.3.1-.9.3-1.9.4-2.8.1-.7.3-.8.9-.8h1.7v5.9h-3.3zm14.6-8c-.4 0-.7.1-.9.5-1.2 1.8-2.3 3.6-3.5 5.4-.1.1-.2.3-.3.4h-.1V22h-2.2v10h1.6c.3 0 .4-.1.6-.3 1.2-1.8 2.3-3.6 3.5-5.3.1-.1.1-.2.2-.3h.1V32h2.2V22c-.5-.2-.9-.1-1.2-.2zm-37.6 4.9c.7-.4 1.1-1 1.3-1.8.2-.6.4-1.2.5-1.8.1-.4.3-.8.4-1.2h-1.7c-.3 0-.4.1-.5.4-.2.8-.5 1.6-.7 2.3-.2.6-.7 1.1-1.4 1.2h-1.4v-4h-2.2v10h2.2v-4h.6c1.5 0 1.9.3 2.3 1.8.2.7.4 1.4.6 2 0 .1.2.3.3.3.7.1 1.3 0 2 0-.3-1.1-.6-2.2-1-3.3-.1-.8-.4-1.5-1.3-1.9zm14 1.1h4.1v-1.9h-4.1v-2h4.8v-2h-4.7c-1.4 0-2.3.9-2.3 2.3v5.4c0 1.4.9 2.3 2.3 2.3h4.7v-2h-4.8v-2.1zm-5.8-5.9c-.9-.1-1.8-.1-2.7-.1-1.3 0-2.2.8-2.2 2.1v7.8h2.2V28c.9 0 1.7.1 2.6 0 1.6-.2 2.8-1.5 2.9-3 0-1.6-1.1-2.9-2.8-3.1zm-.6 4.3h-2.1v-2.3c.8 0 1.5-.1 2.3 0 .6.1.9.5.9 1.2 0 .6-.5 1.1-1.1 1.1zm32.1-4.3v2h2.7v8h2.2v-8h2.7v-2H169z"/>
	<path fill="#fe720a" d="M58.1 14.2c-2.1-3.5-5.2-5.3-9.2-5.3H34.7c.1.2.2.3.2.4.6 1.1 1.2 2.1 1.8 3.2 2 3.4 5.1 5.2 9 5.2h14.4c-.1-.2-.2-.3-.2-.4-.6-1.1-1.2-2.1-1.8-3.1zm-.1 7.6h-1.7c-1.2-.1-2.1.5-2.7 1.6-1.5 2.7-3 5.3-4.5 8-.1.1-.2.3-.3.5h2.5l1.1-2.1s3.3.1 4.4.1v2h2.3l.1-.1v-8.7c.1-.8-.4-1.3-1.2-1.3zm-1.1 6.1h-3.4c.2-.3.3-.6.5-1 .4-.6.6-1.2 1-1.9.4-.9 1-1.1 1.9-.9v3.8zm27.9-2.3c0-2.2-1.3-3.7-3.6-3.9-2.3-.2-4.1 1.3-4.2 3.6v2.8c.1 2.1 1.3 3.4 3.4 3.7 2.2.2 3.9-1 4.3-3.1.1-.6 0-1.3 0-2h.1v-1.1zm-2.3 2.7c-.1 1-.7 1.5-1.7 1.5-.9 0-1.6-.6-1.6-1.6v-3c.1-.9.7-1.5 1.6-1.5 1 0 1.7.6 1.7 1.5.1 1.1.1 2.1 0 3.1zM73.4 22c-1.1-.1-2.1-.1-3.1-.1-1.1 0-1.7.6-1.7 1.7v8.2h2.2v-3.6h.6c.6 0 1.3 0 1.9-.1 1.6-.2 2.8-1.5 2.8-3 .1-1.7-1-3-2.7-3.1zm-.5 4.2h-2.1v-2.3h2.1c.7.1 1 .5 1 1.1 0 .6-.4 1.1-1 1.2zm-10.4-4.4c-1.2 0-1.8.6-1.8 1.8v8.2h2.2v-8h4.8v-2h-5.2z"/>
	<path fill="#0062a4" d="M48.6 19.9h-4.1c-4 .1-7.1 1.8-9.2 5.3-2.3 3.9-4.6 7.9-6.9 11.9-.1.1-.2.3-.3.5h4.1c4.1 0 7.1-1.8 9.2-5.3 2.3-3.9 4.6-7.9 6.9-11.9.2-.2.2-.3.3-.5zm71.9 1.9c-.3 0-.4.1-.6.4-.5 1.2-1.1 2.5-1.6 3.7-.3.6-.5 1.2-.8 1.9-.1-.2-.2-.3-.3-.5-.7-1.7-1.5-3.4-2.3-5.1-.1-.1-.2-.3-.3-.3-.6-.1-1.2 0-1.8 0v10h2.2v-4.6c.4.7.8 1.5 1.2 2.3.3.6.6.9 1.3.9.6 0 1-.4 1.3-.9.4-.8.7-1.6 1.1-2.3h.1v4.6h2.2v-10c-.6-.1-1.1 0-1.7-.1zm-32.2 2.1h3.3v7.9h2.1v-8.5c0-1-.5-1.4-1.4-1.4h-4.6c-1.1 0-1.6.5-1.6 1.6v8.4h2.2v-8zm18.8 8c2.3.3 4-1 4.3-3.3.1-.6 0-1.2 0-1.8h.1v-1.2c0-2.2-1.4-3.7-3.7-3.9-2.1-.2-3.8 1.2-4 3.2-.1 1.2-.1 2.3 0 3.5.1 2.1 1.3 3.3 3.3 3.5zm-1.2-6.4c0-1.1.7-1.6 1.7-1.6s1.6.6 1.7 1.7v2.6c0 1.1-.6 1.7-1.7 1.7-1 0-1.6-.6-1.6-1.7-.1-.9-.1-1.8-.1-2.7zm-5.7-3.6c-1.1-.1-2.2-.1-3.3-.1-1.1 0-1.6.5-1.6 1.5v8.4h2.2v-3.6h.6c.6 0 1.3 0 1.9-.1 1.6-.2 2.8-1.5 2.8-3 .2-1.6-.9-2.9-2.6-3.1zm-.5 4.3h-2.1v-2.3h2.1c.7.1 1.1.5 1.1 1.1-.1.6-.5 1.1-1.1 1.2zM50.2 36.4l.4-.3 1-1.6h-1.2l-1 1.7-.2.1v-1.8h-1.1v4.3h1.1V37h.3l1 1.8h1.3l-1.2-2zm5.2-1.4c-.2-.2-.4-.4-.6-.5-.2-.1-.5-.2-.9-.2-.6 0-1.1.2-1.5.6-.3.4-.5 1-.5 1.7 0 .3.1.6.1.9.1.3.2.5.4.7.2.2.4.4.6.5.2.1.5.2.9.2.6 0 1.1-.2 1.5-.6.3-.4.5-1 .5-1.7 0-.3-.1-.6-.1-.9-.1-.3-.3-.5-.4-.7zm-.8 2.7c-.1.2-.4.3-.6.3-.2 0-.3 0-.4-.1l-.3-.3c-.1-.1-.1-.3-.2-.4 0-.2-.1-.3-.1-.5 0-.5.1-.8.2-1 .2-.2.4-.3.6-.3.3 0 .5.1.7.4.1.3.2.6.2 1 .1.3 0 .7-.1.9zm4.7-1.6l-.2.6-.3-.6-1-1.6h-1.1v4.3h1v-2l-.1-.8.3.7.9 1.3h.4l.8-1.3.4-.7-.1.8v2h1.1v-4.2h-1.2zm5.7 0l-.2.6h-.1l-.2-.6-1-1.6h-1.1v4.3h.9v-2l-.1-.8h.1l.3.7.9 1.3h.4l.8-1.3.3-.7h.1l-.1.8v2h1.1v-4.2h-1.2zm6-1.4c-.2-.1-.3-.2-.5-.3-.2-.1-.4-.1-.6-.1-.6 0-1.1.2-1.5.6-.4.4-.5.9-.5 1.7 0 .7.2 1.2.5 1.7.3.4.8.6 1.5.6.3 0 .6 0 .9-.1.3-.1.5-.2.7-.3l-.4-.7c-.1.1-.2.1-.4.2-.2-.1-.4 0-.7 0-.4 0-.6-.1-.8-.3-.2-.2-.3-.4-.3-.8h2.6c0-.1 0-.3.1-.4v-.4c0-.3-.1-.6-.2-.8-.1-.2-.2-.4-.4-.6zm-2 1.5c0-.3.1-.5.3-.7.2-.2.4-.3.6-.3.2 0 .4.1.5.3.1.2.2.4.1.7H69zm5.6-1.8c-.3 0-.5.1-.7.2-.2.1-.4.3-.5.5l-.1-.5h-.8v6h1.1v-1.8c.1.1.2.1.3.1h.4c.3 0 .6-.1.8-.2.3-.1.5-.3.6-.5.2-.2.3-.5.4-.7.1-.3.1-.6.1-1 0-.7-.2-1.3-.4-1.6-.3-.3-.7-.5-1.2-.5zm.2 3.2c-.2.2-.4.3-.7.3-.2 0-.3 0-.4-.1-.1-.1-.2-.1-.3-.2V36c.1-.2.2-.4.3-.5.1-.1.3-.2.5-.2.3 0 .5.1.6.3.1.2.2.5.2.9 0 .5-.1.9-.2 1.1zm4.4-1.3c-.1.1-.2.1-.3.2-.1 0-.3.1-.4.1-.1 0-.2 0-.3-.1-.1 0-.1-.1-.2-.2 0-.1-.1-.2-.1-.3v-1.5h-1.1V36c0 .3 0 .5.1.7.1.2.2.3.3.4.1.1.3.2.4.2.2.1.4.1.6.1.3 0 .5 0 .7-.1.2-.1.3-.2.4-.2v1.7h1.1v-4.3h-1.1v1.8zm5.1-1.6c-.2-.1-.3-.2-.5-.3-.2-.1-.4-.1-.6-.1-.6 0-1.1.2-1.5.6-.4.4-.5.9-.5 1.7 0 .7.2 1.2.5 1.7.3.4.8.6 1.5.6.3 0 .6 0 .9-.1.3-.1.5-.2.7-.3l-.4-.7c-.1.1-.2.1-.4.2s-.4.1-.6.1c-.4 0-.6-.1-.8-.3-.2-.2-.3-.4-.3-.8h2.6c0-.1 0-.3.1-.4v-.4c0-.3-.1-.6-.2-.8-.3-.3-.4-.5-.5-.7zm-2.1 1.5c0-.3.1-.5.3-.7.2-.2.4-.3.6-.3.3 0 .4.1.5.3.1.2.2.4.1.7h-1.5zm5.7 1.6c-.1.1-.3.1-.5.1s-.3 0-.4-.1l-.3-.3c-.1-.1-.1-.3-.2-.4 0-.1-.1-.3-.1-.5 0-.4.1-.7.2-1 .2-.2.4-.3.7-.3.2 0 .3 0 .4.1.1.1.3.1.4.2l.3-.9c-.2-.1-.3-.2-.5-.2-.2-.1-.4-.1-.7-.1-.6 0-1.1.2-1.4.6-.3.4-.5 1-.5 1.7 0 .3 0 .6.1.9.1.3.2.5.3.7.1.2.3.4.6.5.2.1.5.2.9.2.3 0 .5-.1.7-.1l.6-.3-.2-.9c-.1 0-.2 0-.4.1zm3.4-1.4l.4-.3 1.1-1.6h-1.2l-1 1.7-.3.1v-1.8h-1.1v4.3h1.1V37h.3l1.1 1.8h1.2l-1.1-2zm3.5.2l-.3.5h-.1l.1-.5v-2.1h-1.1v4.3h.7l1.5-1.9.4-.7-.1.6v2H97v-4.3h-.6zm4.2-2.8c.1.1.3.1.4.2.2 0 .3.1.5.1.4 0 .7-.1.9-.3.3-.2.4-.5.5-.8l-.9-.2c0 .2-.1.4-.2.5-.1.1-.2.1-.4.1s-.3 0-.4-.1c-.1-.1-.2-.2-.2-.5l-.7.2c0 .2.1.4.2.5.1.1.2.3.3.3zm.5 2.8l-.4.5v-2.6H98v4.3h.7l1.5-1.9.4-.7v2.6h1.1v-4.3h-.7zm7.5-2c-.3 0-.6.1-.8.2-.2.1-.4.3-.6.5 0-.3.1-.5.2-.7.1-.2.2-.3.3-.4.1-.1.3-.2.4-.2.2-.1.4-.1.6-.1.4 0 .6-.1.9-.1.2 0 .4-.1.5-.2l-.1-1c-.1.1-.3.2-.5.2-.2.1-.5.1-.7.1-.2 0-.4 0-.6.1s-.4.1-.6.2c-.2.1-.3.2-.5.3-.2.1-.3.3-.4.6-.1.2-.2.5-.2.9-.1.4-.1.8-.1 1.3 0 .9.2 1.6.5 2 .3.4.8.6 1.5.6.6 0 1.1-.2 1.5-.6.3-.4.5-1 .5-1.8 0-.7-.2-1.2-.5-1.5-.4-.2-.8-.4-1.3-.4zm.3 3c-.2.2-.4.3-.7.3-.3 0-.5-.1-.6-.4-.1-.2-.2-.5-.2-.9s.1-.6.2-.9c.2-.2.4-.3.7-.3.3 0 .5.1.6.3.1.2.2.5.2.9 0 .5-.1.8-.2 1zm5.3-.1v-1.4c0-.2 0-.4-.1-.6-.1-.2-.1-.3-.3-.5-.1-.1-.3-.2-.5-.3-.2-.1-.5-.1-.7-.1-.3 0-.7 0-1 .1-.3.1-.6.1-.8.2l.2.9c.2-.1.4-.1.6-.2.2-.1.5-.1.7-.1.3 0 .5.1.6.2.1.2.1.4.1.7h-1c-.3.1-.6.1-.8.2-.2.1-.4.3-.5.4-.1.2-.2.4-.2.7 0 .2.1.4.1.5.1.2.2.3.3.4.1.1.3.2.4.3s.3.1.5.1c.3 0 .6-.1.8-.2.2-.1.4-.3.5-.5h.1l.2.6h.9c-.1-.2-.1-.4-.1-.6v-.8zm-1 0l-.3.3c-.1.1-.3.2-.5.2s-.3-.1-.4-.1c-.1-.1-.1-.2-.1-.4 0-.1 0-.2.1-.3.1-.1.2-.1.3-.2.1-.1.3-.1.4-.1h.5v.6zm4.5-1.4h-1.4v-1.6h-1.1v4.3h1.1v-1.7h1.4v1.7h1.1v-4.3h-1.1zm4.2.3l.4-.3 1-1.6h-1.2l-1 1.7-.2.1v-1.8h-1.1v4.3h1.1V37h.3l1 1.8h1.3l-1.2-2z"/>
</svg>
