<svg xmlns="http://www.w3.org/2000/svg" viewBox="0 0 200 50">
	<path fill="#08131D" d="M96.6682 32.3863c-.1994.1611-.4186.3102-.6576.4472-1.4566.856-3.5988 1.2637-6.4479 1.2637-1.4358 0-2.6995-.1502-3.7922-.4505-1.0922-.2992-1.992-.7069-2.7423-1.2418-.7283-.514-1.285-1.1354-1.6708-1.8424-.3212-.6214-.5141-1.2637-.5568-1.9706 0-.0713.0285-.1425.0751-.1973.0246-.0296.0542-.0537.0871-.0723.0356-.0198.0751-.0307.1162-.0307h4.863c.1288 0 .257.1074.2784.2356.0214.1929.0855.3639.1502.536.1068.2356.2783.4493.514.6422.257.1929.5787.3212 1.0281.4286.1627.0416.3479.0756.5524.103.1002.0132.2055.0241.3151.034.1775.0153.3666.0263.5661.0307l.2592.0033c.5995 0 1.0708-.0428 1.4352-.1064.3639-.0646.6642-.172.8566-.2794.2142-.1064.343-.2346.4285-.3847l.0247-.0526.0126-.0307.0274-.0757c.0268-.0844.0427-.1698.0427-.2488 0-.092-.0082-.1677-.029-.2411l-.0176-.0537c-.0109-.0296-.0241-.0603-.0394-.091-.0641-.1063-.1496-.2137-.2998-.3211-.0669-.0449-.1507-.0899-.2466-.1348-.0882-.0406-.1858-.0811-.2888-.1217-.2356-.0646-.514-.1501-.8357-.2148l-4.5841-.8779c-.9212-.171-1.6928-.4285-2.3137-.7289-.6215-.2992-1.1355-.6641-1.4999-1.0927-.3853-.4066-.6423-.8779-.8138-1.3919-.1716-.5141-.2357-1.05-.2357-1.6495 0-.1754.0121-.3519.0345-.5272.0126-.102.0291-.2039.0488-.3058.0247-.1294.0543-.2587.0882-.388.0554-.2115.1288-.4176.2225-.6182.0861-.1841.1897-.3639.313-.5392.257-.3639.5781-.7069.9853-1.0062.4071-.3003.9212-.5787 1.5213-.7924.5995-.2356 1.3064-.4077 2.1208-.5359.8138-.1283 1.7563-.1929 2.8063-.1929.2746 0 .5426.0054.8034.0164.5217.0208 1.016.0625 1.4807.1238.2379.0318.468.068.6905.1097.2773.0526.5426.1117.7957.1786 1.0495.2784 1.9279.685 2.6135 1.1782.6856.5141 1.1996 1.0928 1.5421 1.7778.3003.5787.4713 1.2209.536 1.8643.0213.171-.1074.2992-.2784.2992h-4.4992c-.0318 0-.0619-.0044-.0899-.0142-.0339-.011-.0652-.0296-.0909-.0526-.039-.034-.0664-.0779-.0762-.1261-.0641-.1918-.1282-.3639-.2143-.514-.1282-.2137-.2997-.4066-.5568-.5568-.257-.1501-.5781-.2784-1.0067-.3639-.2449-.0515-.5359-.0866-.8642-.1074-.2175-.0142-.4521-.0208-.6998-.0208-.4926 0-.8998.0427-1.221.1063-.1244.0252-.2356.0537-.337.0844-.1315.0406-.2455.0866-.3469.1381l-.0657.0351c-.091.057-.1705.114-.234.1775-.0559.0559-.1003.1162-.1305.1864l-.0361.0789c-.0143.0328-.0269.0657-.0373.0986-.0214.0691-.034.1392-.034.2083 0 .1501.0219.2783.0861.3858.0641.1282.1501.2356.2997.343.1502.1063.3431.1918.5787.2784.2357.0855.5568.1491.9212.2137l3.6843.6861c.3924.08.7607.1622 1.1064.2499.5793.1458 1.0944.3036 1.5504.4779.7069.2784 1.2851.6214 1.735 1.0072.4285.3858.7497.8352.9426 1.3492.1715.5568.2783 1.1355.2783 1.7778 0 .5502-.0734 1.0555-.2197 1.5147-.1469.4614-.3672.8779-.6615 1.2484-.1194.1501-.2504.2926-.3945.4274-.08.0756-.1639.1491-.2516.2192Zm-37.4193.9623 6.8551-15.4462c.0197-.0493.0543-.0899.0959-.1195.0471-.0329.1041-.0515.1611-.0515h6.8984c.1069 0 .2143.0647.257.171l6.8551 15.4462c.086.1929-.0428.3858-.257.3858h-5.227c-.1074 0-.2142-.0646-.257-.1721l-.9426-2.3992c-.0427-.1074-.1501-.1709-.257-.1709H66.19c-.1074 0-.2142.0635-.2575.1709l-.942 2.3992c-.0433.1075-.1502.1721-.2576.1721H59.506c-.2143 0-.3425-.1929-.2571-.3858Zm12.4892-6.1487c.1929 0 .3217-.1929.257-.3858l-1.9279-4.9266c-.0427-.1074-.1496-.1721-.257-.1721-.1069 0-.2143.0647-.257.1721l-1.9279 4.9266c-.0263.0713-.0197.1502.0104.217.0427.0954.1337.1688.2466.1688h3.8558Zm28.4929-9.1693v15.4243c0 .171.128.2784.278.3003h5.12c.15 0 .279-.1293.279-.2783V18.0306c0-.0668-.026-.1293-.067-.1775-.052-.0614-.128-.1009-.212-.1009h-5.12c-.15 0-.278.1283-.278.2784Zm7.304 15.318 6.855-15.4462c.044-.1063.151-.171.257-.171h6.899c.107 0 .214.0647.257.171l6.855 15.4462c.086.1929-.043.3858-.257.3858h-5.227c-.046 0-.091-.012-.131-.0329-.055-.0296-.101-.0767-.126-.1392l-.943-2.3992c-.005-.0142-.012-.0274-.019-.0394l-.021-.0274-.017-.0208c-.053-.0537-.126-.0833-.2-.0833h-7.241c-.019 0-.038.0022-.057.0054l-.031.0088c-.041.0132-.079.0362-.111.068-.024.0252-.044.0548-.058.0887l-.942 2.3992c-.043.1075-.15.1721-.257.1721h-5.228c-.065 0-.126-.0219-.175-.0592-.092-.0723-.138-.1994-.082-.3266Zm12.489-6.1487c.193 0 .322-.1929.258-.3858l-1.928-4.9266c-.043-.1074-.15-.1721-.257-.1721-.057 0-.114.0176-.161.0505-.02.0142-.038.0306-.054.0504l-.027.0372-.015.034-1.928 4.9266c-.065.1721.064.3858.257.3858h3.855Zm27.785-.9217c.322-.685.493-1.4994.493-2.3992h.022v-.9853c0-.4483-.054-.8758-.165-1.2791-.084-.3102-.201-.605-.35-.8845-.342-.6434-.813-1.1782-1.434-1.6287-.622-.4285-1.372-.7705-2.229-1.0061-.856-.2357-1.82-.3431-2.87-.3431h-10.711c-.151 0-.278.1283-.278.2784v15.4243c0 .1502.127.2784.278.2784h5.099c.082 0 .159-.0394.211-.0997.041-.0493.067-.1118.067-.1787v-3.7484c0-.1501.128-.2794.278-.2794h5.292c1.007 0 1.928-.1283 2.763-.3639.434-.1228.834-.274 1.201-.4571.34-.1699.654-.366.942-.5929.599-.4713 1.071-1.0489 1.391-1.735Zm-5.419-3.7484c.107.2137.15.4713.15.7705v.4713c0 .1348-.013.2608-.037.3792-.029.1447-.075.2751-.134.3924-.039.0778-.084.1523-.134.2225-.088.1227-.194.2312-.317.3134-.192.1283-.406.2357-.663.2992-.074.0187-.148.034-.223.0461-.074.012-.148.0208-.224.0263-.113.0098-.228.0131-.347.0131h-4.241c-.021 0-.042-.0022-.062-.0076-.049-.0121-.094-.0373-.13-.0724-.019-.0186-.036-.0394-.049-.0624-.023-.0395-.037-.0866-.037-.136v-3.1916c0-.1501.128-.2784.278-.2784h4.349c.3 0 .578.022.814.0647.236.0427.45.1282.622.2565.149.1282.299.2784.385.4932Zm4.499 10.8188 6.855-15.4462c.043-.1063.15-.171.257-.171h6.899c.058 0 .116.0186.164.0537.04.0296.073.0691.093.1173l6.855 15.4462c.037.0833.034.1666.001.2346-.044.0887-.137.1512-.258.1512h-5.227c-.107 0-.215-.0646-.257-.1721l-.943-2.3992c-.043-.1074-.15-.1709-.257-.1709h-7.24c-.108 0-.215.0635-.257.1709l-.943 2.3992c-.043.1075-.151.1721-.257.1721h-5.228c-.193 0-.342-.1929-.257-.3858Zm8.634-6.1487h3.855c.193 0 .322-.1929.257-.3858l-1.928-4.9266c-.042-.1074-.149-.1721-.257-.1721-.065 0-.13.0242-.181.068-.032.0274-.059.0625-.076.1041l-1.928 4.9266c-.028.0735-.02.1546.013.2225.044.0932.134.1633.245.1633Zm21.614 6.277v-5.1623c0-.0428.009-.0855.022-.1217.007-.0186.014-.0361.022-.0504l7.24-9.9617c.045-.0669.058-.1414.047-.2105-.021-.1293-.129-.2389-.283-.2389h-5.74c-.087 0-.194.0427-.236.1282l-3.642 5.8276c-.108.171-.365.171-.471 0l-3.664-5.8276c-.043-.0855-.15-.1282-.235-.1282h-5.743c-.235 0-.363.2576-.235.4494l7.198 9.9617.014.0384c.016.0449.029.0822.029.1337v5.1623c0 .1501.13.2783.279.2783h5.12c.15 0 .278-.1282.278-.2783Z"/>
	<path fill="#6059F4" d="m25.0577 13.1292-8.9332 15.4672C12.9325 34.102 16.9171 41 23.2797 41h17.8665c6.3624 0 10.347-6.898 7.155-12.4036l-8.9331-15.4672c-3.1706-5.5056-11.1184-5.5056-14.3104 0Z"/>
	<path fill="#fff" d="M20.9238 29.9035c-1.1996 2.0781-.4926 4.7348 1.5849 5.935 2.078 1.199 4.7134.4921 5.9344-1.586l8.0119-13.8603c1.1996-2.078.4927-4.7348-1.5854-5.9338-2.0775-1.2002-4.7342-.4932-5.9338 1.5848l-8.012 13.8603Zm23.2001 1.9915c0 2.6743-2.1674 4.8422-4.8411 4.8422-2.6743 0-4.8417-2.1679-4.8417-4.8422 0-2.6732 2.1674-4.8411 4.8417-4.8411 2.6737 0 4.8411 2.1679 4.8411 4.8411Z"/>
</svg>