<svg xmlns="http://www.w3.org/2000/svg" viewBox="0 0 200 50">
	<g fill="#102D69">
		<path d="M39.1495 40.9899h2.1935c.7457 0 3.4436.0658 3.4436 2.983 0 1.8644-1.3599 2.7637-3.4436 2.7637H37V37.612h7.0628v1.7767h-4.9133v1.6012zm0 3.97h1.7329c.8334 0 1.6011-.1754 1.6011-1.0309 0-1.0967-1.0309-1.1625-1.5573-1.1625h-1.7767v2.1934zM50.7747 37.612l3.4217 9.1246h-2.2811l-.5923-1.7108h-3.2901l-.5703 1.7108h-2.2373l3.3998-9.1246h2.1496zm.0877 5.8564l-1.1625-3.4875-1.1844 3.4875h2.3469zM54.8102 44.9599c1.5574.1975 1.5793-.7238 1.5793-1.9082V37.612h6.7118v9.1246h-2.1495v-7.3699h-2.5663l-.0658 3.1805c-.0439 1.7547.2632 4.7158-3.5533 4.1675v-1.7548h.0438zM64.3298 39.3887V37.612h7.6331v1.7767h-2.7417v7.3479h-2.1496v-7.3479h-2.7418zM78.8721 37.612h2.1496v9.1246h-2.1496v-5.9661l-3.6191 5.9661h-2.1276V37.612h2.1276v5.9003l3.6191-5.9003zM85.1674 46.7366h-2.1496V37.612h2.1496v3.4217h3.2901V37.612h2.1495v9.1246h-2.1495v-3.9262h-3.2901v3.9262zM97.1435 37.612c2.3689 0 2.8076 1.338 2.8076 2.325 0 1.0529-.6142 1.6232-1.4916 1.9083v.0219c.7019.1316 1.9305.6581 1.9305 2.3251 0 2.2153-1.8647 2.5662-3.4878 2.5662h-4.321v-9.1246h4.5623v-.0219zm-2.4128 3.5972h1.9741c.8554 0 1.0528-.5922 1.0528-.9432 0-.3728-.1974-.8773-1.1625-.8773h-1.8863v1.8205h.0219zm0 3.7507h2.2154c.3729 0 1.1844-.1974 1.1844-1.0309 0-.8554-.6799-1.0528-1.4476-1.0528h-1.9522v2.0837zM108.616 41.2311v1.689h-4.453v2.0398h5.176v1.7767h-7.304V37.612h7.173v1.7767h-5.045v1.8424h4.453zM118.771 43.5124c-.132 1.3819-.899 3.4876-4.124 3.4876-2.325 0-4.452-1.0748-4.452-4.6501 0-4.8255 3.509-5.001 4.364-5.001 3.225 0 4.036 2.018 4.102 3.356h-2.106c-.197-1.5354-1.403-1.6012-1.886-1.6012-.482 0-2.171.0877-2.171 3.1366 0 1.7328.767 2.9611 2.237 2.9611 1.404 0 1.82-1.0309 1.908-1.7109h2.128v.0219zM119.297 39.3887V37.612h7.633v1.7767h-2.742v7.3479h-2.128v-7.3479h-2.763zM130.22 40.9899h2.194c.746 0 3.443.0658 3.443 2.983 0 1.8644-1.359 2.7637-3.443 2.7637h-4.343V37.612h7.063v1.7767h-4.914v1.6012zm0 3.97h1.733c.856 0 1.601-.1754 1.601-1.0309 0-1.0967-1.031-1.1625-1.557-1.1625h-1.777v2.1934zM141.867 37.612l3.422 9.1246h-2.281l-.592-1.7108h-3.29l-.571 1.7108h-2.259l3.4-9.1246h2.171zm.088 5.8564l-1.162-3.4875-1.185 3.4875h2.347zM148.272 46.7366h-2.149V37.612h2.149v3.4217h3.29V37.612h2.15v9.1246h-2.15v-3.9262h-3.29v3.9262zM160.971 37.612h2.523l-3.641 4.1675 3.86 4.9571h-2.632l-3.224-4.4526h-.022v4.4526h-2.128V37.612h2.128v3.8385h.022l3.114-3.8385z"/>
		<path d="M126.71 30.5714l6.471-3.7288c-21.846-13.7308-49.8563-11.9322-69.7068 3.7288 9.695-4.7816 20.6182-7.4137 32.1775-7.326 11.1423.0658 21.6933 2.7199 31.0583 7.326zM104.294 8.08873L109.383 3l17.24 17.2403c-4.738-2.1057-9.651-3.5753-14.63-4.4527l-7.699-7.69887zM72.3141 21.7098c5.001-2.5443 10.309-4.3868 15.7268-5.5054l8.0937-8.09374L91.0239 3 72.3141 21.7098z"/>
	</g>
</svg>
