<svg xmlns="http://www.w3.org/2000/svg" viewBox="0 0 200 50">
	<path fill="#004380" d="M46.1 22.6c-2.6-3.5-6.2-2.9-9.5-1-1.2-5-1.3-6-5.9-7.2.1-.5 0-.9-.1-1.3-1.4.4-3 .9-4.4 1.9 1 .8 2.2 1.5 3.2 2.3.5-.3.9-.6 1.2-1.2 3.9.6 3.3 3.5 3.9 7-1.8 1.4-3.4 3.1-4.4 4.2-.7-.6-2.2-1-2.1 1-2.6 1.8-4.4 1.1-5.8-.7 1.2-.4 1.9-1.3 1.7-3.4.8-.9 1.9-1.7 1.2-3.3.9-.6 1.4-1.6 1-3.4.6-.6.8-1.3.1-2.2-.1-1-.2-2-.3-2.9-.5 0-.9-.2-1.4-.8.2-2-1-2.1-2.3-1.8-.9-.3-1.7-.5-2.6-.8-.4-.3-.8-.6-1.3-1-.2.5-.1 1.1.2 1.9-.4 0-.8.1-1.2.1-.5 1.3-2.2 1.8-2.8 2.9-.4.2-.8.5-1.3.5-.3.1-.5.2-.6.7 0 .3.1.9.1 1.3.5.3.7.4 1 .8.2-.1.5-.2.7-.3 0 .3 0 .5-.1.8.1.3.4.4.9.3.2-.3.4-.5.6-.8.2-.4 1.5-.5 2.3-.8.5.6 1.3.6 2.3.5-.9.6-1.3 1.4-1.7 2.4-.8 1.4-3.8 2.7-4.2 4.6-.6 2.2-3.9 3.1-3.8 6.4-.6-.9-1.2-1.7-1.9-2.5-.6-.1-1.1-.1-1.7.2-.1 0-.3.2-.5.5-.2.6-.2 1.2-.2 1.7H5.3c-1.1 2.7-3.4 2.1-5.2 4.3-.1.3-.1.5 0 .8.3.2.5.3.8.5.9.3 1.9.3 2.8.1.6-.1 1.3-.1.9-1.2.4.2.9.3 1.4.2 1.1-1.3 1.4-3.3 2.3-4.2.3.1.6.4.8.9 2.5 11.2 17 11.3 23.7 3.4 1-1.1 3.4-.6 5.2-2.2-.7-.5-1.5-.4-2-1 .4-.8.9-1.5 1.4-2.1l.2.2c2.4 2.4 11.7 2 8.5-6.3zM12.2 33.7c-1.6-1.9-2.1-4.3-3.7-5.5-.2-.2-.8-.3-.9.3 0 .4-.5 0-.5-.3 0-.4.1-.6.4-.6.4 0 .9-.3 1.5.3 1.5 1.5 1.2 2.3 4 4.7.9.7.1 2.2-.8 1.1zm1.6-8l-1.3 1.5c.3-.6.8-1 1.3-1.5l.6-.7c-.2.3-.4.5-.6.7zm8.9 3.6c.6.2 2 .8 2.1 1.3.1 1-.9 1-.9.6 0-.7-.7-1.1-1.4-1.4-.2-.1 0-.6.2-.5zm3.7.9c-.1-.5.9-.5.9 0 0 4.2-2.7 5.3-5.3 6.5-.1.1-.3-.3-.1-.4 2.6-1.1 4.8-2.6 4.5-6.1zM22.8 26c-.1.2-.6 0-.6-.1.2-.6 0-.8.1-1.2 0-.2.7-.7.7.3-.1.3.1.7-.2 1zm1.8-4.4c-.3.2-.2.7-.6 1-.2.2-.7-.2-.6-.3.4-.5.3-.8.4-1.2.2-.2 1-.5.8.5zm1.3-5.8c-.1.3.1.5 0 .9-.1.2-.5.2-.5 0 .1-.5-.1-.6-.2-1 0-.1.5-.6.7.1zm-.3 2.7c-.2.3.1.6-.2 1-.1.2-.7.1-.6-.1.2-.5 0-.7 0-1.1 0-.2.6-.7.8.2zm-1.9-6c.1-.1.4-.6.4-.2.1.7.9.7.8.9-.2.7-1.5-.4-1.2-.7zm-1.2 9.2c.1-.1.1-.2.2-.4.9-3.4 1.8-6.7 1.8-6.7-.1 2.5-.6 4.4-1.8 6.7-1 3.6-2 7.3-2 7.3-1.3-1.5.5-4.8 1.8-6.9zm-3.3-7.2c-.1.2-.2.7-.4.3-.2-.7-1-.4-1-.7.1-.8 1.6 0 1.4.4zm-1.4-2.4c-.7 1.6-2.7 2.2-3.9 2.6-.4 0-.9-.5-.3-.8.3-.1 1.5 0 1.8-.6.2-.3-.1-.8.2-.9 1-.3 2.3-2.1 3.2-2.3-.1-.6-.1-1-.1-1.2.8 1.2 3.7.9 3.2 3.2-.1.3-.3.3-.3 0-.1-2-3-1.6-3.8 0zm2.1 5.3c.6-.3.6-.6.8-.9.2-.1 1-.1.4.8-.4.1-.4.6-.9.7-.2.1-.5-.5-.3-.6zm-1.2 2.5l1-.9c-.3.3-.6.6-1 .9l-2.1 1.9c.3-.8 1.2-1.3 2.1-1.9zM33 31.5c-.5 1-1.3 1-.6-.3.1-.9-.5-.8-.7 0-1.2 2.7-2.2-.1-2-2.4.1-.5-.5-.3-.5 0 .5 8.6-7.8 10.2-11.3 9.7-.5-.1 0-.4.2-.4 5.1.5 10.3-2.7 10.5-10 .1-.9 1.4-.4 1.7.2.3.7 0 1 .2 2.5.1.7.6.7.7.3.1-.9.7-1.2.9-1.3.4-.2 1.1 1.1.9 1.7zm.2-1.5c.2.1.6 0 .9.2.2.1.1.5-.1.5-.5-.2-.7 0-1 0-.1-.1-.5-.6.2-.7zm1.8 1.8c-.7 0-.9.3-1.3.4-1.1.1.1-1.2 1.2-1 .4 0 .4.6.1.6zm.6-2.2c-.4.6-.6-.2-.4-.6 1.6-2 3-3.5 4.4-4.6.1-.1.2.2.1.3-1.4 1.5-2.8 3.1-4.1 4.9zm3.4-3.2c1.3-1.6 3.2-3.1 4.2-1.1.2 1.8-2.3 2.1-4.2 1.1zM51.7 17.2h10.5v4.1h-.3c-.1-.8-.3-1.4-.6-1.8-.3-.5-.6-.8-1-1-.4-.2-.9-.3-1.7-.3h-2.2V24H58c1.7 0 3 .4 3.8 1.1.8.8 1.2 1.8 1.2 3 0 .9-.2 1.6-.6 2.2-.4.6-.9 1.1-1.5 1.4-.6.3-1.5.4-2.6.4h-6.5v-.4c.8 0 1.2-.1 1.5-.4.2-.2.3-.7.3-1.5V19.7c0-.8-.1-1.4-.3-1.6-.2-.3-.7-.4-1.4-.4-.2-.1-.2-.5-.2-.5zm4.7 7.8v4.5c0 .7.1 1.2.2 1.5s.5.4.9.4c.7 0 1.2-.3 1.6-.9.4-.6.5-1.3.5-2.2 0-.8-.2-1.5-.5-2.1-.3-.6-.7-.9-1.1-1.1-.3 0-.9-.1-1.6-.1zm12.4 5.7c-1 1.1-1.9 1.7-2.8 1.7-.5 0-.9-.2-1.2-.6-.3-.4-.5-.9-.5-1.5 0-.8.3-1.5.8-2.1s1.8-1.5 3.6-2.5v-1c0-.8 0-1.3-.1-1.5-.1-.2-.2-.4-.4-.5-.2-.2-.4-.2-.6-.2-.4 0-.7.1-1 .3-.2.1-.2.3-.2.5s.1.3.3.6c.2.3.3.6.3.9 0 .4-.1.7-.3.9-.2.3-.5.4-.9.4s-.7-.1-.9-.4c-.3-.3-.4-.6-.4-1 0-.5.2-1 .5-1.5s.8-.9 1.4-1.1c.6-.3 1.2-.4 1.9-.4.8 0 1.4.2 1.9.6.5.4.8.9.9 1.4.1.3.1 1 .1 2.1v4.9c0 .1.1.2.1.3.1.1.1.1.2.1.2 0 .3-.1.5-.4l.3.3c-.3.5-.6.9-.9 1.2-.3.2-.7.4-1.1.4-.5 0-.9-.1-1.1-.4-.2-.5-.3-1-.4-1.5zm0-.8v-3.5c-.7.5-1.3 1.1-1.6 1.7-.2.4-.4.8-.4 1.2 0 .3.1.6.3.9.1.2.4.3.6.3.4 0 .7-.2 1.1-.6zm9.3 2.3v-.4c.3 0 .5-.1.7-.3.2-.2.3-.6.3-1.2v-7.8h-2.4V27c0 1.6-.1 2.7-.2 3.4-.1.6-.4 1.1-.8 1.4-.4.3-.8.5-1.2.5-.5 0-.9-.2-1.2-.5-.3-.4-.4-.8-.4-1.2 0-.4.1-.8.3-1.1.2-.3.5-.4.8-.4.6 0 1 .5 1 1.4 0 .4.1.7.2.7.3 0 .5-.3.6-.8.1-.5.2-1.6.2-3.3v-3c0-.7-.1-1.1-.2-1.4-.1-.3-.4-.4-.8-.4v-.4h7.4v.4c-.6 0-.9.5-.9 1.4v6.6c0 .5.1.9.2 1.1.1.2.4.4.7.4v.4h-4.3zm7.5 0v-.4c.4 0 .6-.1.7-.3.1-.2.2-.7.2-1.4v-7.5h-.8c-.6 0-1 .1-1.2.4-.2.3-.4.8-.5 1.6h-.3v-2.7h8.4v2.7h-.3c-.1-.7-.3-1.3-.5-1.6-.2-.3-.6-.4-1.3-.4h-1v7.5c0 .7.1 1.2.2 1.4.1.2.4.3.7.3v.4h-4.3zm12.4 0v-.4c.5 0 .8-.5.8-1.5v-5.1l-2.4 5.1c0 1 .3 1.5.8 1.5v.4h-4.3v-.4c.3 0 .6-.1.7-.4.1-.2.2-.6.2-1.2v-6.4c0-1-.3-1.5-.9-1.5v-.4h4.3v.4c-.3 0-.5.1-.6.3-.1.2-.2.6-.2 1.2v5l2.4-5.1c0-.5-.1-.9-.2-1.1-.1-.2-.3-.3-.6-.3v-.4h4.3v.4c-.3 0-.6.1-.7.3-.2.2-.2.6-.2 1.1v6.6c0 .6.1 1 .2 1.2.1.2.4.3.7.3v.4H98zm10.2-11.9c-1 0-1.7-.2-2.3-.6-.6-.4-.9-.9-.9-1.5 0-.3.1-.6.2-.8.2-.2.3-.3.6-.3.5 0 .8.5 1.1 1.4.1.4.2.7.4.9.2.2.4.2.8.2.5 0 .8-.1.9-.2.1-.2.3-.4.4-.8.2-1 .6-1.4 1.1-1.4.2 0 .4.1.6.3.2.2.2.5.2.8 0 .6-.3 1.1-.8 1.5-.6.3-1.3.5-2.3.5zm.4 11.9v-.4c.5 0 .8-.5.8-1.5v-5.1l-2.4 5.1c0 1 .3 1.5.8 1.5v.4h-4.3v-.4c.3 0 .6-.1.7-.4.1-.2.2-.6.2-1.2v-6.4c0-1-.3-1.5-.9-1.5v-.4h4.3v.4c-.3 0-.5.1-.6.3-.1.2-.2.6-.2 1.2v5l2.4-5.1c0-.5-.1-.9-.2-1.1s-.3-.3-.6-.3v-.4h4.3v.4c-.3 0-.6.1-.7.3-.2.2-.2.6-.2 1.1v6.6c0 .6.1 1 .2 1.2.1.2.4.3.7.3v.4h-4.3zm12.3-2.7l.3.3c-.4.9-.9 1.6-1.5 2-.6.4-1.2.7-1.9.7-1.1 0-2-.5-2.7-1.6-.7-1-1-2.3-1-3.7 0-1.4.3-2.6.9-3.7.7-1.3 1.8-1.9 3.1-1.9.9 0 1.6.3 2.1.8s.8 1.1.8 1.8c0 .4-.1.8-.3 1-.2.3-.5.4-.8.4-.4 0-.6-.1-.9-.4-.2-.3-.4-.8-.4-1.5 0-.5-.1-.8-.3-1-.1-.2-.3-.3-.5-.3-.3 0-.5.2-.7.6-.3.6-.5 1.4-.5 2.6 0 1 .1 1.9.4 2.8.3.9.6 1.5 1 2 .3.3.7.5 1.2.5.3 0 .6-.1.8-.3.3-.3.6-.6.9-1.1zm4.8-12.3V27l2-2.4c.4-.5.7-.8.8-1 .1-.2.1-.4.1-.6s-.1-.4-.2-.5c-.1-.1-.4-.2-.8-.3v-.4h3.8v.4c-.4 0-.7.1-.9.3-.3.2-.8.8-1.6 1.7l-.9 1.1 2 3.6c.8 1.4 1.3 2.3 1.4 2.4.2.3.5.4.8.4v.4h-4.3v-.4c.2 0 .3 0 .4-.1.1-.1.1-.2.1-.3 0-.2-.1-.5-.4-.9l-1.7-3-.5.7V30c0 .8.1 1.3.2 1.5.1.2.4.3.7.4v.4h-4.3v-.4c.4 0 .6-.2.8-.4.1-.2.2-.6.2-1.4V19.5c0-.8-.1-1.3-.2-1.5-.1-.2-.4-.3-.7-.4v-.4h3.2zm11.8 15v-.4c.5 0 .8-.5.8-1.5v-5.1l-2.4 5.1c0 1 .3 1.5.8 1.5v.4h-4.3v-.4c.3 0 .6-.1.7-.4.1-.2.2-.6.2-1.2v-6.4c0-1-.3-1.5-.9-1.5v-.4h4.3v.4c-.3 0-.5.1-.6.3-.1.2-.2.6-.2 1.2v5l2.4-5.1c0-.5-.1-.9-.2-1.1s-.3-.3-.6-.3v-.4h4.3v.4c-.3 0-.6.1-.7.3-.2.2-.2.6-.2 1.1v6.6c0 .6.1 1 .2 1.2.1.2.4.3.7.3v.4h-4.3zm10.3-11.9c-1 0-1.7-.2-2.3-.6-.6-.4-.9-.9-.9-1.5 0-.3.1-.6.2-.8.2-.2.3-.3.6-.3.5 0 .8.5 1.1 1.4.1.4.2.7.4.9.2.2.4.2.8.2.5 0 .8-.1.9-.2.1-.2.3-.4.4-.8.2-1 .6-1.4 1.1-1.4.2 0 .4.1.6.3.2.2.2.5.2.8 0 .6-.3 1.1-.8 1.5-.6.3-1.3.5-2.3.5zm.3 11.9v-.4c.5 0 .8-.5.8-1.5v-5.1l-2.4 5.1c0 1 .3 1.5.8 1.5v.4H143v-.4c.3 0 .6-.1.7-.4.1-.2.2-.6.2-1.2v-6.4c0-1-.3-1.5-.9-1.5v-.4h4.3v.4c-.3 0-.5.1-.6.3-.1.2-.2.6-.2 1.2v5l2.4-5.1c0-.5-.1-.9-.2-1.1s-.3-.3-.6-.3v-.4h4.3v.4c-.3 0-.6.1-.7.3-.2.2-.2.6-.2 1.1v6.6c0 .6.1 1 .2 1.2.1.2.4.3.7.3v.4h-4.3zm9.9-15h10.5v4.1h-.3c-.1-.8-.3-1.4-.6-1.8-.3-.5-.6-.8-1-1-.4-.2-.9-.3-1.7-.3h-2.2V24h1.6c1.7 0 3 .4 3.8 1.1.8.8 1.2 1.8 1.2 3 0 .9-.2 1.6-.6 2.2-.4.6-.9 1.1-1.5 1.4-.6.3-1.5.4-2.6.4H158v-.4c.8 0 1.2-.1 1.5-.4.2-.2.3-.7.3-1.5V19.7c0-.8-.1-1.4-.3-1.6-.2-.3-.7-.4-1.4-.4l-.1-.5zm4.7 7.8v4.5c0 .7.1 1.2.2 1.5.2.3.5.4.9.4.7 0 1.2-.3 1.6-.9.4-.6.5-1.3.5-2.2 0-.8-.2-1.5-.5-2.1-.3-.6-.7-.9-1.1-1.1-.4 0-.9-.1-1.6-.1zm12.4 5.7c-1 1.1-1.9 1.7-2.8 1.7-.5 0-.9-.2-1.2-.6-.3-.4-.5-.9-.5-1.5 0-.8.3-1.5.8-2.1s1.8-1.5 3.6-2.5v-1c0-.8 0-1.3-.1-1.5-.1-.2-.2-.4-.4-.5-.2-.2-.4-.2-.6-.2-.4 0-.7.1-1 .3-.2.1-.2.3-.2.5s.1.3.3.6c.2.3.3.6.3.9 0 .4-.1.7-.3.9-.2.3-.5.4-.9.4s-.7-.1-.9-.4-.4-.6-.4-1c0-.5.2-1 .5-1.5s.8-.9 1.4-1.1c.6-.3 1.2-.4 1.9-.4.8 0 1.4.2 1.9.6.5.4.8.9.9 1.4.1.3.1 1 .1 2.1v4.9c0 .1.1.2.1.3.1.1.1.1.2.1.2 0 .3-.1.5-.4l.3.3c-.3.5-.6.9-.9 1.2-.3.2-.7.4-1.1.4-.5 0-.9-.1-1.1-.4-.2-.5-.4-1-.4-1.5zm0-.8v-3.5c-.7.5-1.3 1.1-1.6 1.7-.2.4-.4.8-.4 1.2 0 .3.1.6.3.9.1.2.4.3.6.3.3 0 .7-.2 1.1-.6zm4.5 2.3v-.4c.3 0 .6-.1.7-.3.1-.2.2-.6.2-1.2V24c0-.6-.1-1.1-.2-1.3-.1-.2-.4-.3-.7-.3V22h4.3v.4c-.3 0-.5.1-.6.3-.1.2-.2.6-.2 1.2v2.7h2.4v-2.7c0-.5 0-.9-.1-1.1-.1-.2-.3-.4-.7-.4V22h4.3v.4c-.3 0-.6.1-.7.3-.1.2-.2.6-.2 1.1v6.6c0 .6.1 1.1.2 1.3.1.2.4.3.7.3v.4h-4.3V32c.3 0 .5-.1.6-.3.1-.2.2-.6.2-1.2v-3.1h-2.4v3c0 .7.1 1.1.2 1.3.1.2.3.3.6.3v.4l-4.3-.2zm14-15V27l2-2.4c.4-.5.7-.8.8-1 .1-.2.1-.4.1-.6s-.1-.4-.2-.5c-.1-.1-.4-.2-.8-.3v-.4h3.8v.4c-.4 0-.7.1-.9.3-.3.2-.8.8-1.6 1.7l-.9 1.1 2 3.6c.8 1.4 1.3 2.3 1.4 2.4.2.3.5.4.8.4v.4h-4.3v-.4c.2 0 .3 0 .4-.1.1-.1.1-.2.1-.3 0-.2-.1-.5-.4-.9l-1.7-3-.5.7V30c0 .8.1 1.3.2 1.5.1.2.4.3.7.4v.4h-4.3v-.4c.4 0 .6-.2.8-.4.1-.2.2-.6.2-1.4V19.5c0-.8-.1-1.3-.2-1.5-.1-.2-.4-.3-.7-.4v-.4h3.2z"/>
</svg>