<?xml version="1.0" encoding="utf-8"?>
<!-- Generator: Adobe Illustrator 25.4.1, SVG Export Plug-In . SVG Version: 6.00 Build 0)  -->
<svg version="1.1" id="Layer_1" xmlns="http://www.w3.org/2000/svg" xmlns:xlink="http://www.w3.org/1999/xlink" x="0px" y="0px"
	 viewBox="0 0 200 50" style="enable-background:new 0 0 200 50;" xml:space="preserve">
<style type="text/css">
	.st0{fill:url(#SVGID_1_);}
	.st1{fill:url(#SVGID_00000103226924105407054350000016460748639096989572_);}
	.st2{fill:url(#SVGID_00000179638649929664423780000004550945814572431535_);}
	.st3{fill:url(#SVGID_00000098217070697298202540000011826406411124715949_);}
</style>
<g>
	<path d="M124.1,17.5v4.4c0,0.2,0.2,0.4,0.4,0.4h1.7c0.2,0,0.4-0.2,0.4-0.4V10.6c0-0.2-0.2-0.4-0.4-0.4h-1.7c-0.2,0-0.4,0.2-0.4,0.4
		v3.8c0,0.2-0.2,0.4-0.4,0.4h-4.5c-0.2,0-0.4-0.2-0.4-0.4v-3.8c0-0.2-0.2-0.4-0.4-0.4h-1.7c-0.2,0-0.4,0.2-0.4,0.4v11.3
		c0,0.2,0.2,0.4,0.4,0.4h1.8c0.2,0,0.4-0.2,0.4-0.4v-4.4c0-0.2,0.2-0.4,0.4-0.4h4.4C123.9,17.1,124.1,17.3,124.1,17.5z"/>
	<path d="M129.8,22.2h1.7c0.3,0,0.4-0.1,0.4-0.4v-4.7c0-0.4,0.5-0.5,0.8-0.3l4.1,5c0.1,0.1,0.3,0.2,0.5,0.2h2c0.4,0,0.6-0.4,0.4-0.6
		l-4.5-5.4c-0.1-0.1-0.1-0.4,0-0.5l3.8-4.7c0.1-0.3,0-0.6-0.4-0.6h-1.9c-0.1,0-0.3,0-0.4,0.1l-3.7,4.6c-0.3,0.3-0.8,0.1-0.8-0.3v-4
		c0-0.3-0.1-0.4-0.4-0.4h-1.7c-0.3,0-0.4,0.1-0.4,0.4v11.3C129.4,22.1,129.6,22.2,129.8,22.2z"/>
	<path d="M97.2,31.1c0.6-0.4,1.3-0.5,2-0.5c1.3,0,2.4,0.5,3.2,1.7c0.3,0.3,0.5,0.3,0.6,0.1l1.2-0.9c0.3-0.1,0.3-0.4,0.1-0.5
		c-0.5-0.9-1.3-1.4-2-1.9c-0.9-0.5-1.9-0.8-3.1-0.8c-1.2,0-2.2,0.3-3.2,0.8c-0.9,0.6-1.8,1.4-2.3,2.3c-0.6,1-0.9,2-0.9,3.2
		s0.4,2.3,0.9,3.2c0.5,1,1.3,1.8,2.3,2.3c0.9,0.6,2,0.9,3.1,0.8c1.2,0,2.3-0.3,3.2-0.8c0.9-0.5,1.5-1.2,2-1.9c0.1-0.1,0-0.4-0.1-0.5
		l-1.2-0.9c-0.3-0.1-0.5,0-0.6,0.1c-0.8,1.2-1.9,1.7-3.2,1.7c-0.8,0-1.4-0.1-2-0.5c-0.6-0.4-1-0.8-1.4-1.4c-0.4-0.6-0.5-1.3-0.5-2
		s0.1-1.4,0.5-2C96.2,31.8,96.5,31.4,97.2,31.1z"/>
	<path d="M93.2,22.1h4.6c0.8,0,1.4-0.3,2-0.5c0.6-0.3,1-0.8,1.4-1.3c0.4-0.5,0.5-1.2,0.5-1.9c0-0.8-0.1-1.4-0.5-1.9
		c-0.3-0.5-0.8-1-1.4-1.3c-0.5-0.3-1.3-0.4-2-0.4h-2.2c-0.3,0-0.4-0.1-0.4-0.4v-1.7c0-0.3,0.1-0.4,0.4-0.4h4.7
		c0.3,0,0.4-0.1,0.4-0.4v-1.4c0-0.3-0.1-0.4-0.4-0.4h-7.2c-0.3,0-0.4,0.3-0.4,0.3v11.3C92.8,22,93,22.1,93.2,22.1z M95.3,17.5
		c0-0.3,0.1-0.4,0.4-0.4h2c0.5,0,1,0.1,1.3,0.4c0.4,0.3,0.5,0.6,0.5,1.2c0,0.5-0.3,0.9-0.5,1.2c-0.3,0.3-0.8,0.4-1.3,0.4h-2
		c-0.3,0-0.4-0.1-0.4-0.4V17.5z"/>
	<path d="M106.3,19.5h4.5c0.1,0,0.4,0.1,0.4,0.3L112,22c0,0.1,0.3,0.3,0.4,0.3h1.8c0.3,0,0.5-0.3,0.4-0.5l-4.4-11
		c-0.1-0.2-0.3-0.3-0.5-0.3h-2.1c-0.1,0-0.3,0-0.5,0.3c-0.2,0.3-4.4,11.1-4.4,11.1c-0.1,0.3,0.1,0.5,0.4,0.5h1.5
		c0.1,0,0.4-0.1,0.4-0.3l0.9-2.2C105.9,19.7,106.1,19.5,106.3,19.5z M107.2,17.1l0.8-2.3c0.3-0.6,0.8-2,0.9-2.7
		c0.1,0.6,0.5,1.9,0.8,2.7l0.8,2.3c0.1,0.3-0.1,0.5-0.4,0.5h-2.4C107.3,17.6,107,17.4,107.2,17.1z"/>
	<path d="M112.9,28.9c0-0.1-0.3-0.3-0.4-0.3h-2.2c-0.2,0-0.4,0.1-0.5,0.3L105.5,40c-0.1,0.3,0.1,0.5,0.4,0.5h1.5
		c0.1,0,0.4-0.1,0.4-0.3l0.9-2.2c0-0.1,0.3-0.3,0.4-0.3h4.5c0.1,0,0.4,0.1,0.4,0.3l0.9,2.2c0,0.1,0.3,0.3,0.4,0.3h1.8
		c0.3,0,0.5-0.3,0.4-0.5L112.9,28.9z M112.7,36.1h-2.4c-0.3,0-0.5-0.3-0.4-0.5l0.8-2.3c0.3-0.6,0.8-2,0.9-2.7
		c0.1,0.6,0.5,1.9,0.8,2.7l0.8,2.3h0C113.2,35.8,112.9,36.1,112.7,36.1z"/>
	<path d="M126.2,29.1c-0.8-0.4-1.4-0.5-2.3-0.5h-4.1h0c-0.3,0-0.4,0.1-0.4,0.4v11.4c0,0.3,0.1,0.4,0.4,0.4h1.7
		c0.3,0,0.4-0.1,0.4-0.4v-3.5c0-0.3,0.1-0.4,0.4-0.4h1.7c0.9,0,1.7-0.1,2.3-0.5c0.6-0.4,1.2-0.8,1.5-1.4c0.4-0.6,0.5-1.3,0.5-2
		s-0.1-1.4-0.5-2C127.4,29.9,126.9,29.5,126.2,29.1z M125.3,33.7c-0.3,0.4-0.8,0.4-1.3,0.4h-1.7c-0.3,0-0.4-0.1-0.4-0.4v-2.7
		c0-0.3,0.1-0.4,0.4-0.4h1.7c0.5,0,0.9,0.3,1.3,0.5c0.4,0.4,0.5,0.8,0.5,1.3C125.9,33,125.7,33.4,125.3,33.7z"/>
	<path d="M136,28.9c0-0.1-0.3-0.3-0.4-0.3h0h-2.2c-0.3,0-0.4,0.1-0.5,0.3L128.5,40c-0.1,0.3,0.1,0.5,0.4,0.5h1.5
		c0.1,0,0.4-0.1,0.4-0.3l0.9-2.2c0-0.1,0.3-0.3,0.4-0.3h4.5c0.1,0,0.4,0.1,0.4,0.3l0.9,2.2c0,0.1,0.3,0.3,0.4,0.3h1.8
		c0.3,0,0.5-0.3,0.4-0.5L136,28.9z M135.7,36.1h-2.4c-0.3,0-0.5-0.3-0.4-0.5l0.8-2.3c0.3-0.6,0.8-2,0.9-2.7c0.1,0.6,0.5,1.9,0.8,2.7
		l0.8,2.3C136.2,35.8,136,36.1,135.7,36.1z"/>
	<path d="M150,28.6h-9.3c-0.3,0-0.4,0.1-0.4,0.4v1.4c0,0.3,0.1,0.4,0.4,0.4h3.1c0.3,0,0.4,0.3,0.4,0.4v9c0,0.3,0.1,0.4,0.4,0.4h1.7
		c0.3,0,0.4-0.1,0.4-0.4v-9c0-0.3,0.1-0.4,0.4-0.4h3.1c0.3,0,0.4-0.1,0.4-0.4V29C150.4,28.8,150.3,28.6,150,28.6z"/>
	<path d="M160.4,29.1c-0.9-0.5-2-0.8-3.2-0.8s-2.2,0.3-3.2,0.8c-0.9,0.6-1.8,1.4-2.3,2.3c-0.6,1-0.9,2-0.9,3.2s0.4,2.3,0.9,3.2
		c0.5,1,1.3,1.8,2.3,2.3c0.9,0.5,2,0.8,3.2,0.8s2.3-0.3,3.2-0.8c0.9-0.6,1.7-1.4,2.3-2.3c0.6-1,0.9-2,0.9-3.2s-0.3-2.3-0.9-3.2
		C162.2,30.4,161.4,29.7,160.4,29.1z M160.7,36.7c-0.4,0.6-0.8,1-1.4,1.4c-0.6,0.4-1.3,0.5-1.9,0.5c-0.8,0-1.4-0.1-2-0.5
		c-0.6-0.4-1-0.8-1.4-1.4c-0.4-0.6-0.5-1.3-0.5-2s0.1-1.4,0.5-2c0.4-0.6,0.8-1,1.4-1.4c0.6-0.4,1.3-0.5,2-0.5c0.6,0,1.3,0.1,1.9,0.5
		c0.6,0.4,1,0.8,1.4,1.4c0.4,0.6,0.5,1.3,0.5,2S161,36.1,160.7,36.7z"/>
	<path d="M174.5,35.3c-0.2-0.3-0.5-0.6-1-0.9l-0.2-0.1c-0.3-0.1-0.3-0.4-0.1-0.6c0.4-0.5,0.5-1.2,0.5-1.8c0-0.8-0.1-1.3-0.5-1.8
		c-0.4-0.5-0.8-0.9-1.4-1.2c-0.5-0.3-1.2-0.4-1.9-0.4H166c-0.3,0-0.4,0.1-0.4,0.4v11.3c0,0.3,0.1,0.4,0.4,0.4h5c0.8,0,1.4-0.1,2-0.4
		c0.6-0.3,1-0.8,1.4-1.3c0.4-0.5,0.5-1.2,0.5-1.8C175,36.4,174.9,35.8,174.5,35.3z M168.1,31L168.1,31c0-0.2,0.1-0.3,0.3-0.3h1.3
		c0.5,0,0.9,0.1,1.2,0.4c0.3,0.3,0.4,0.6,0.4,1c0,0.4-0.1,0.8-0.4,1c-0.3,0.3-0.6,0.4-1.2,0.4h-1.3c-0.2,0-0.4-0.2-0.4-0.4V31z
		 M172.2,38.1c-0.3,0.3-0.7,0.3-1.3,0.3h-2.4c-0.3,0-0.4-0.1-0.4-0.4v-2.3c0-0.3,0.1-0.4,0.4-0.4h2.4c0.5,0,1,0.1,1.3,0.4
		c0.4,0.4,0.5,0.6,0.5,1.2C172.7,37.5,172.5,37.9,172.2,38.1z"/>
</g>
<g>
	<linearGradient id="SVGID_1_" gradientUnits="userSpaceOnUse" x1="25.0001" y1="25.5063" x2="49.5315" y2="25.436">
		<stop  offset="0" style="stop-color:#CC2445"/>
		<stop  offset="0.144" style="stop-color:#CD213F"/>
		<stop  offset="0.613" style="stop-color:#CE1930"/>
		<stop  offset="1" style="stop-color:#CF162B"/>
	</linearGradient>
	<path class="st0" d="M43.4,25.6c0-9.5,7.2-17.3,16.4-18.3c0,0,0.1,0,0.1-0.1c0,0,0-0.1-0.1-0.1H43.4C33.2,7,25,15.3,25,25.4
		c0,10.2,8.3,18.4,18.4,18.4h16.4C50.6,42.8,43.4,35,43.4,25.6z"/>
	
		<linearGradient id="SVGID_00000116921805267954270140000008043329341778021519_" gradientUnits="userSpaceOnUse" x1="53.8031" y1="13.5028" x2="68.5241" y2="13.4606">
		<stop  offset="0" style="stop-color:#CC2445"/>
		<stop  offset="0.144" style="stop-color:#CD213F"/>
		<stop  offset="0.613" style="stop-color:#CE1930"/>
		<stop  offset="1" style="stop-color:#CF162B"/>
	</linearGradient>
	<path style="fill:url(#SVGID_00000116921805267954270140000008043329341778021519_);" d="M59.3,16.5c0.3,0.4,0.8,0.8,1.4,0.8h13.2
		c0.8,0,1.2-0.9,0.8-1.5c-2.9-3.7-7.4-6-12.4-6h-1.2c-2.7,0-5.1,0.6-7.3,1.8C56,12.8,57.9,14.4,59.3,16.5z"/>
	
		<linearGradient id="SVGID_00000061457464388105851260000000895197219091766971_" gradientUnits="userSpaceOnUse" x1="53.6636" y1="37.6747" x2="68.3702" y2="37.6326">
		<stop  offset="0" style="stop-color:#CC2445"/>
		<stop  offset="0.144" style="stop-color:#CD213F"/>
		<stop  offset="0.613" style="stop-color:#CE1930"/>
		<stop  offset="1" style="stop-color:#CF162B"/>
	</linearGradient>
	<path style="fill:url(#SVGID_00000061457464388105851260000000895197219091766971_);" d="M73.6,33.9H60.7c-0.5,0-1,0.2-1.4,0.8
		c-1.4,2-3.3,3.7-5.6,5c2.2,1.2,4.7,1.8,7.3,1.8h1.2c5,0,9.4-2.3,12.3-5.9C74.9,34.9,74.5,33.9,73.6,33.9z"/>
	
		<linearGradient id="SVGID_00000108307755286950254630000006954114814580833950_" gradientUnits="userSpaceOnUse" x1="62.4999" y1="25.5724" x2="69.4984" y2="25.5523">
		<stop  offset="0" style="stop-color:#CC2445"/>
		<stop  offset="0.144" style="stop-color:#CD213F"/>
		<stop  offset="0.613" style="stop-color:#CE1930"/>
		<stop  offset="1" style="stop-color:#CF162B"/>
	</linearGradient>
	<circle style="fill:url(#SVGID_00000108307755286950254630000006954114814580833950_);" cx="67.5" cy="25.6" r="5"/>
</g>
</svg>
