<svg xmlns="http://www.w3.org/2000/svg" viewBox="0 0 200 50">
	<g fill="#0d47a1">
		<path d="M115.5 29.5c-.4-1.1-.5-1.5-.6-1.8-.3-.8-.5-1.3-.7-1.6-.4-.6-.9-1.2-2.1-1.3v-.1c.3-.1.6-.2.9-.4.3-.2.5-.4.7-.7.5-.7.5-1.5.9-2.8.3-.8.7-.9 1.3-.9h.3v-1.8c-.3-.1-.5-.1-.8-.1-.7 0-1.2.1-1.7.4-.5.3-.9.8-1.1 1.4-.3.8-.3 1.1-.6 2.3-.2.6-.4 1-.9 1.4-.5.3-.8.3-1.4.3h-.8v-5.7H106v14.1h2.6v-6.3h.9c1.4 0 1.9.4 2.3 1.1.3.5.4 1.2.8 2.4.3.9.5 1.6.8 2 .7.9 1.6.9 2.2.9.4 0 .8 0 1.1-.1v-1.9h-.1c-.8 0-1-.4-1.1-.8zM79.5 24.7c-1.1-.8-2.5-.9-3.6-.9h-2.5v-3.6h6.2v-2.1h-8.8v14.1h5.6c1.2 0 2.4-.1 3.5-1.1.7-.7 1.2-1.7 1.2-3.1-.2-1.9-1-2.9-1.6-3.3zm-2 4.9c-.6.5-1.4.6-1.8.6h-2.3v-4.3h2.1c.5 0 1.3 0 1.9.6.4.4.6 1 .6 1.7.1.5-.2 1.1-.5 1.4zM45.2 27c-2.7 0-5.3-.4-7.9-1-2.5-.6-5-.8-7.5-.9-7.9 0-14.8 2.9-14.8 6.4 0 3.5 7 6.6 14.7 6.5 2.6 0 5.2-.3 7.7-1 2.6.7 4.9 1 7.5 1 3.7 0 7.2-.5 10.6-1.9 1.4-.7 2.6-1.4 3.6-2.7.4-.7.7-1.2.7-2v-2.3c-.4 3.9-7.9 6.2-14.6 6.3-1.2 0-2.4 0-3.6-.2.7-.4 1.4-.9 1.9-1.6h1.4c3.7 0 7.2-.5 10.6-1.9 1.4-.7 2.6-1.4 3.6-2.7.4-.7.7-1.2.7-2v-2.3c-.4 3.9-7.9 6.2-14.6 6.3h-.7c-.1-.6-.3-1.1-.9-1.8h1.3c3.7 0 7.2-.5 10.6-1.9 1.4-.7 2.6-1.4 3.6-2.7.4-.7.7-1.2.7-2v-2.3c-.4 4.3-7.9 6.7-14.6 6.7zm-15.5 8.7c-5 0-9-1.9-9-4 0-2 4.1-4 9-4 5 0 9 1.9 9 4 .1 2-4 4-9 4zM101.4 23.8h-4.9v-5.7h-2.7v14.1h2.7v-6.4h4.9v6.4h2.7V18.1h-2.7zM85.6 18.1L81 32.2h2.3l1.1-3.7h4.7l1.2 3.7h2.8l-4.6-14.1h-2.9zm3 8.5H85l1.6-5.2.2-.8h.1l.2.8 1.5 5.2z"/>
		<path d="M29.6 23.1c2.7 0 5.3.4 7.9 1 2.5.6 5 .8 7.5.9 7.9 0 14.8-2.9 14.8-6.4 0-3.5-7-6.6-14.7-6.5-2.6 0-5.2.3-7.7 1-2.6-.7-4.9-1-7.5-1-3.7 0-7.2.5-10.6 1.9-1.4.7-2.6 1.4-3.6 2.7-.4.7-.7 1.2-.7 2V21c.4-3.9 7.9-6.2 14.6-6.3 1.2 0 2.4 0 3.6.2-.7.4-1.4.9-1.9 1.6h-1.4c-3.7 0-7.2.5-10.6 1.9-1.4.7-2.6 1.4-3.6 2.7-.4.7-.7 1.2-.7 2v2.3c.4-3.9 7.9-6.2 14.6-6.3h.7c.1.6.3 1.1.9 1.8h-1.3c-3.7 0-7.2.5-10.6 1.9-1.4.7-2.6 1.4-3.6 2.7-.4.7-.7 1.2-.7 2v2.3c.4-4.3 7.9-6.7 14.6-6.7zm15.5-8.6c5 0 9 1.9 9 4 0 2-4.1 4-9 4-5 0-9-1.9-9-4-.1-2.1 4-4 9-4zM164.7 24.8l-.2 1h-.1l-.2-.9-1.7-6.8H157v14.1h3.4v-9.3l-.1-.9h.1l.1.6 2.5 9.6h2.5l2.5-9.5.2-.7h.1v10.2h4V18.1h-5.7zM184.2 25c-1.1-1.5-2.9-1.6-4-1.6h-2.3v-5.3h-4.2v14.1h6.3c1.1 0 2.6-.1 3.7-1.2.8-.8 1.2-2 1.2-3.3.1-1.6-.5-2.4-.7-2.7zm-3.9 3.7c-.3.3-.7.4-1 .4H178v-2.5h1.3c.4 0 .7.1 1 .4.2.3.3.6.3.9s-.1.5-.3.8zM119.8 32.2h4.4V21.4h2.8v10.8h4.4V18.1h-11.6zM154 18.8c-1.3-.7-2.9-.7-4.2-.7h-5.2v14.1h4.4v-5.1h1.5c1.5 0 3.7-.1 5-2.1.6-1 .4-2 .4-2.4-.1-2.2-1-3.3-1.9-3.8zm-2.7 4.8c-.4.4-1 .4-1.3.4h-1.1v-2.7h1.1c.3 0 .9 0 1.4.4.2.2.4.6.4 1-.1.3-.3.6-.5.9zM137.6 26.5h4v-3h-4v-2.1h5.2v-3.3h-9.6v14.1h9.9v-3.4h-5.5z"/>
	</g>
</svg>
