<svg xmlns="http://www.w3.org/2000/svg" viewBox="0 0 200 50">
	<path fill="#000" d="M66.3419 30.797h1.1731l1.7254 5.134h.0171l1.7254-5.134h1.1731V36.9h-.7651v-5.134h-.017l-1.717 5.134h-.816l-1.717-5.134h-.017V36.9h-.765v-6.103zm7.0126 1.6575h.7649v3.4085h.017l2.1846-3.4085h.8755V36.9h-.7651v-3.4085h-.0169L74.2299 36.9h-.8754v-4.4455zm4.9214 0h.7651v.612h.017c.051-.102.1104-.1955.1869-.289.0765-.0935.17-.17.272-.238.1105-.068.2295-.119.3655-.1615.1445-.0425.2975-.0595.4845-.0595.238 0 .4676.0425.6886.136.221.0935.4165.2295.578.408.17.1785.306.408.3995.6885.102.272.153.595.153.9605 0 .459-.0511.8415-.1446 1.1645-.0935.3145-.2209.578-.3909.782-.17.204-.3741.3485-.6121.442-.238.0935-.5099.136-.8074.136-.1445 0-.2806-.017-.4081-.0595-.1275-.0425-.2379-.085-.3484-.153-.102-.0595-.1871-.136-.2551-.204-.068-.0765-.1274-.153-.1614-.221h-.017v2.2525h-.7651v-6.1965zm.7481 2.244c0 .238.0254.4675.0679.6715.051.204.119.374.2125.527.102.153.221.2635.3655.3485.153.085.3231.1275.5271.1275.2125 0 .391-.0425.544-.1275.153-.085.2805-.204.3825-.3485.102-.153.17-.323.2209-.527.051-.204.0681-.425.0681-.6715 0-.255-.0255-.4845-.0681-.697-.0509-.2125-.1189-.391-.2209-.544-.102-.153-.2295-.272-.3825-.357-.153-.085-.3315-.1275-.544-.1275-.204 0-.3741.0425-.5271.1275-.1445.085-.272.204-.3655.357-.0935.153-.17.3315-.2125.544-.0425.2125-.0679.4505-.0679.697zm6.392-2.244h.765v3.4085h.017l2.1845-3.4085h.8755V36.9h-.765v-3.4085h-.017L86.2915 36.9h-.8755v-4.4455zm4.964 0h.765v1.7935h2.074v-1.7935h.765V36.9h-.765v-1.989h-2.074V36.9h-.765v-4.4455zm4.7345 0H97.01c.544 0 .9435.102 1.2155.306.272.204.408.493.408.884 0 .204-.051.374-.153.5185-.102.1445-.2295.2635-.391.374.238.085.425.2125.561.3825.136.17.204.3825.204.646 0 .204-.034.391-.102.561-.068.17-.1785.306-.3145.425-.1445.119-.323.204-.5355.272-.2125.0595-.476.0935-.765.0935H95.123v-4.4625h-.0085zm.7565 3.8335h1.1645c.204 0 .3655-.017.5015-.0425.136-.034.2465-.0765.323-.1445.0765-.068.136-.136.17-.221.034-.085.051-.1785.051-.289 0-.1105-.017-.204-.051-.289-.034-.085-.0935-.1615-.17-.221-.0765-.0595-.187-.1105-.323-.136-.136-.034-.2975-.051-.5015-.051H95.871v1.394zm0-1.955h1.156c.255 0 .459-.051.612-.153.153-.102.221-.2635.221-.476 0-.119-.017-.221-.0595-.306-.0425-.085-.0935-.153-.17-.1955-.068-.051-.1445-.085-.238-.102-.085-.0255-.1785-.034-.2635-.034h-1.258v1.2665zm7.684 1.1475c-.034.1955-.094.3825-.196.5695-.102.187-.238.3485-.399.5015-.17.1445-.366.2635-.587.357-.221.0935-.476.136-.748.136-.297 0-.578-.051-.833-.1445-.255-.102-.467-.2465-.654-.442-.1785-.1955-.323-.4505-.4335-.748-.102-.2975-.1615-.6545-.1615-1.054 0-.272.0255-.5185.085-.731.0595-.221.1445-.4165.238-.5865.102-.1785.221-.323.357-.4505.136-.1275.272-.2295.416-.3145.153-.085.298-.1445.459-.1785.153-.0425.306-.0595.451-.0595.306 0 .586.0425.833.136.255.0935.467.2295.646.4165.178.187.323.4165.425.7055.102.2805.153.612.153.986v.3825h-3.247c0 .2125.034.4165.093.5865.06.17.145.323.247.4505.11.1275.238.221.391.289.153.068.331.102.527.102.195 0 .365-.0255.501-.085.136-.0595.247-.1275.34-.2125.094-.085.162-.1785.221-.289.06-.102.111-.2125.145-.3145h.731v-.0085zm-.723-1.1475c-.008-.2125-.042-.408-.102-.578-.059-.17-.144-.306-.246-.425-.102-.119-.23-.204-.383-.2635-.153-.0595-.314-.0935-.501-.0935-.179 0-.332.034-.485.102-.144.068-.272.1615-.382.2805-.111.119-.196.2635-.264.425-.068.1615-.11.34-.119.5355h2.482v.017zm5.16 1.003c-.009.1105-.034.2295-.068.357-.034.1275-.077.255-.136.3825-.06.1275-.136.2465-.238.357-.094.119-.213.221-.349.3145-.136.085-.297.1615-.484.2125-.187.0595-.4.085-.638.085-.127 0-.263-.017-.408-.051-.144-.034-.28-.085-.425-.1615-.136-.0765-.263-.17-.391-.289-.119-.119-.229-.2635-.323-.442-.093-.1785-.161-.374-.221-.6035-.059-.2295-.085-.5015-.085-.799 0-.3655.051-.697.162-.9945.102-.2975.246-.544.416-.748.179-.204.383-.3655.612-.476.238-.1105.485-.17.74-.17.229 0 .433.0255.612.0765.178.051.331.119.467.1955.136.085.247.1785.34.289.094.1105.162.221.221.3485.06.119.102.238.128.3655.034.1275.051.2465.059.357h-.714c-.042-.2975-.144-.5355-.314-.7055-.17-.17-.408-.255-.714-.255-.213 0-.391.0425-.553.1275-.153.085-.28.204-.391.357-.102.153-.178.34-.229.5525-.051.2125-.077.4505-.077.714 0 .2975.026.544.085.7565.06.2125.136.3825.238.527.102.136.23.238.374.306.153.0595.323.0935.51.0935.136 0 .255-.0255.374-.068.119-.051.23-.119.323-.2125.094-.0935.179-.2125.238-.3485.068-.136.111-.289.145-.459h.714v.0085zm1.938-2.2185h-1.53v-.663h3.825v.663h-1.53V36.9h-.765v-3.7825zm3.068-.663h.765v3.4085h.017l2.185-3.4085h.875V36.9h-.765v-3.4085h-.025L113.874 36.9h-.876v-4.4455zm4.964 0h.765v3.7825h2.074v-3.7825h.765v3.7825h.544v1.751h-.714V36.9h-3.442v-4.4455h.008zm4.854 0h.765v3.4085h.017l2.184-3.4085h.876V36.9h-.765v-3.4085h-.017L123.691 36.9h-.875v-4.4455zm6.162-1.7255c.034.1785.111.3145.221.425.111.102.281.153.502.153.221 0 .391-.051.51-.153.11-.102.187-.2465.221-.425h.714c0 .17-.043.3145-.111.4505s-.17.2465-.297.34c-.128.0935-.272.17-.451.221-.178.051-.365.0765-.578.0765-.212 0-.408-.0255-.578-.0765-.17-.051-.323-.119-.45-.2125-.128-.0935-.221-.204-.298-.34-.068-.136-.102-.289-.11-.459h.705zm-1.198 1.7255h.765v3.4085h.017l2.184-3.4085h.876V36.9h-.765v-3.4085h-.017L128.655 36.9h-.875v-4.4455zM66.257 11.094h8.8825v2.0995H68.807v2.7115h3.026c.1785 0 .4165.0085.7055.017.289.0085.595.051.9095.1275.323.068.6545.1785.9775.323.3315.153.629.3655.8925.6375.2635.272.4845.6205.646 1.0455.17.4165.2465.9435.2465 1.564 0 .612-.085 1.1305-.2465 1.5555-.1615.425-.3825.7735-.6375 1.0455-.255.272-.5355.4845-.8585.629-.3145.1445-.6205.255-.918.323-.289.068-.561.102-.816.119-.2465.0085-.425.017-.5355.017h-5.95V11.094h.0085zm2.55 10.098h2.754c.2295 0 .4675-.017.714-.051.2465-.034.476-.102.68-.2125.2125-.1105.3825-.272.5185-.493.136-.221.1955-.5185.1955-.884 0-.3825-.068-.68-.1955-.8925-.1275-.221-.2975-.391-.51-.5015-.2125-.1105-.4505-.1785-.714-.204-.2635-.0255-.527-.0425-.7905-.0425h-2.6605v3.281h.0085zm9.741-10.098h2.55v4.964l4.6665-4.964h3.298l-4.981 4.998 5.27 7.208h-3.23l-3.774-5.406-1.241 1.2665V23.3h-2.55V11.094h-.0085zm19.8815 4.012c-.034-.119-.0765-.2465-.1275-.3995-.051-.153-.119-.306-.204-.4675-.085-.153-.187-.306-.323-.459-.1275-.153-.289-.2805-.4845-.3995s-.425-.2125-.697-.2805c-.272-.068-.5865-.1105-.952-.1105-.153 0-.34.017-.544.0595-.2125.0425-.425.1105-.646.221-.221.102-.442.255-.6545.4505-.2125.1955-.408.4505-.578.765-.17.306-.2975.6885-.408 1.1305-.102.442-.1615.969-.1615 1.581 0 .6545.068 1.2495.204 1.768.136.5185.34.9605.595 1.3175.255.357.5695.6375.935.833.374.187.7905.2805 1.2495.2805.5355 0 .9775-.085 1.309-.2465.34-.17.6035-.3655.8075-.6035.204-.238.357-.4845.459-.748.102-.2635.1785-.4845.2295-.68h2.533c-.136.765-.365 1.428-.688 1.989-.3235.561-.7145 1.02-1.1735 1.394-.459.374-.9775.646-1.5555.833-.5695.1785-1.1815.272-1.8275.272-.9095 0-1.7085-.153-2.414-.4505-.697-.306-1.2835-.7395-1.768-1.292-.476-.561-.8415-1.2325-1.088-2.0145-.2465-.7905-.374-1.6745-.374-2.652 0-.7565.068-1.4365.2125-2.04.1445-.612.34-1.1475.595-1.615.2635-.476.561-.884.9095-1.2325.3485-.3485.731-.6375 1.139-.8585.4165-.2295.85-.391 1.3005-.5015.4505-.1105.9095-.17 1.377-.17.663 0 1.2495.068 1.768.204.5185.136.969.323 1.3515.5525.391.2295.714.5015.986.799.2805.2975.5015.612.6715.9265.179.3145.306.6375.391.952.085.3145.145.6035.17.8755h-2.5245v.017zm9.1295-4.012h9.894V23.3h-2.55V13.202h-4.786V23.3h-2.558V11.094zm12.146 3.162h2.244v1.292h.034c.162-.272.332-.5015.51-.697.179-.1955.374-.3655.587-.493.212-.1275.45-.221.714-.2805.263-.0595.561-.0935.901-.0935.28 0 .561.034.858.102.298.068.578.1785.859.323.28.1445.544.3315.799.5695.246.2295.467.5185.654.867.187.34.34.748.451 1.207.11.4505.161.9775.161 1.564 0 .731-.076 1.4025-.238 2.006-.153.612-.391 1.1305-.714 1.5725-.314.4335-.714.7735-1.207 1.02-.484.2465-1.045.3655-1.7.3655-.229 0-.459-.0255-.688-.068-.23-.0425-.459-.119-.68-.221-.221-.102-.434-.2465-.629-.425-.196-.1785-.366-.408-.519-.68h-.034v4.624h-2.346V14.256h-.017zm4.284 1.836c-.374 0-.697.0765-.952.238-.255.1615-.459.3655-.62.6205-.153.255-.272.544-.34.867-.068.323-.111.6375-.111.952 0 .17.009.357.026.561.025.1955.059.408.119.612.059.204.127.408.221.595.102.1955.221.3655.374.5185.153.153.331.272.535.3655.213.085.459.136.748.136s.536-.0425.748-.136c.213-.0935.391-.2125.536-.3655.153-.153.272-.323.365-.5185.102-.1955.179-.391.23-.595.059-.2125.093-.4165.11-.612.026-.204.034-.391.034-.561 0-.3145-.034-.6375-.11-.952-.068-.323-.187-.612-.349-.867-.153-.255-.365-.459-.62-.6205-.255-.1615-.57-.238-.944-.238zm7.863 3.417c0 .085.008.1955.025.3315s.051.289.102.4505c.051.1615.119.323.213.493.093.1615.221.306.374.442.161.136.357.238.578.323.229.085.51.1275.833.1275.17 0 .331-.0255.493-.068.161-.051.314-.119.459-.204.136-.0935.255-.204.357-.3315.102-.136.178-.2805.221-.4505h2.431c0 .17-.034.357-.111.5695-.076.2125-.178.425-.331.646-.145.2125-.323.425-.544.6375-.221.2125-.485.3995-.791.561-.306.1615-.646.289-1.037.391-.382.102-.807.153-1.275.153-.603 0-1.173-.0935-1.7-.272-.527-.1785-.986-.459-1.385-.85-.391-.391-.706-.901-.927-1.5215-.229-.6205-.34-1.3685-.34-2.261 0-.612.077-1.207.238-1.768.17-.5695.425-1.071.765-1.5045.349-.4335.791-.7735 1.326-1.0285.544-.2635 1.19-.391 1.947-.391.799 0 1.479.136 2.023.3995s.986.629 1.317 1.1135c.34.4845.578 1.0625.723 1.7425.144.68.212 1.4365.212 2.2695h-6.196zm3.757-1.564c0-.3995-.06-.731-.187-.9945-.119-.2635-.264-.476-.451-.629-.178-.1615-.374-.272-.586-.3315-.213-.068-.425-.102-.621-.102-.195 0-.399.034-.612.102-.212.0595-.416.17-.595.3315-.178.153-.323.3655-.45.629-.119.2635-.179.595-.179.9945h3.681zm4.02-3.689h3.536l1.53 6.562h.043l1.496-6.562h3.425V23.3h-2.21v-7.276h-.034l-1.7 7.276h-2.142l-1.691-7.276h-.043V23.3h-2.21v-9.044zm12.266 0h2.346v3.145h2.397c.561 0 1.054.0595 1.495.1785.443.119.817.2975 1.123.5355.306.2465.535.5525.696.9265.162.374.238.8075.238 1.3175 0 .459-.067.85-.195 1.1815-.136.323-.306.6035-.51.8245-.204.2125-.434.391-.688.5185-.255.119-.502.2125-.748.2805-.247.0595-.468.102-.68.119-.204.017-.366.0255-.476.0255h-4.998V14.256zm2.354 7.276h1.981c.178 0 .365-.017.544-.0425.178-.034.348-.0935.493-.1785.153-.085.272-.204.357-.357.093-.153.136-.357.136-.595s-.051-.4335-.145-.5865c-.094-.153-.212-.2805-.374-.3655-.153-.085-.34-.153-.544-.1785-.204-.0425-.425-.0595-.654-.0595h-1.785v2.363h-.009zm9.18-2.023c0 .085.009.1955.026.3315s.051.289.102.4505c.051.1615.119.323.212.493.094.1615.221.306.374.442.162.136.357.238.578.323.23.085.51.1275.833.1275.17 0 .332-.0255.493-.068.17-.051.323-.119.459-.204.136-.0935.255-.204.357-.3315.102-.136.178-.2805.221-.4505h2.431c0 .17-.034.357-.11.5695-.077.2125-.187.425-.332.646-.144.2125-.323.425-.552.6375-.222.2125-.485.3995-.791.561-.306.1615-.646.289-1.037.391-.382.102-.807.153-1.275.153-.603 0-1.173-.0935-1.7-.272-.527-.1785-.986-.459-1.385-.85-.391-.391-.706-.901-.927-1.5215-.229-.6205-.34-1.3685-.34-2.261 0-.612.077-1.207.238-1.768.17-.5695.417-1.071.765-1.5045.349-.4335.791-.7735 1.326-1.0285.544-.2635 1.19-.391 1.947-.391.799 0 1.479.136 2.023.3995s.986.629 1.317 1.1135c.34.4845.578 1.0625.723 1.7425.144.68.212 1.4365.212 2.2695h-6.188zm3.757-1.564c0-.3995-.059-.731-.179-.9945-.118-.2635-.263-.476-.45-.629-.178-.1615-.374-.272-.586-.3315-.213-.068-.425-.102-.621-.102-.195 0-.399.034-.612.102-.212.0595-.416.17-.595.3315-.178.153-.323.3655-.45.629-.119.2635-.179.595-.179.9945h3.672zm3.953-3.689h2.243v1.292h.035c.161-.272.331-.5015.509-.697.179-.1955.375-.3655.587-.493.213-.1275.451-.221.714-.2805.264-.0595.561-.0935.892-.0935.273 0 .561.034.859.102.297.068.578.1785.859.323.28.1445.544.3315.799.5695.246.2295.467.5185.654.867.187.34.34.748.451 1.207.11.4505.17.9775.17 1.564 0 .731-.077 1.4025-.238 2.006-.153.612-.391 1.1305-.715 1.5725-.314.4335-.714.7735-1.206 1.02-.485.2465-1.046.3655-1.701.3655-.229 0-.458-.0255-.688-.068-.229-.0425-.459-.119-.68-.221-.221-.102-.433-.2465-.629-.425-.195-.1785-.365-.408-.518-.68h-.034v4.624h-2.346V14.256h-.017zm4.284 1.836c-.374 0-.697.0765-.952.238-.256.1615-.459.3655-.621.6205-.153.255-.272.544-.34.867-.068.323-.11.6375-.11.952 0 .17.008.357.025.561.026.1955.06.408.119.612.06.204.128.408.221.595.102.1955.221.3655.374.5185.153.153.332.272.536.3655.212.085.459.136.748.136s.535-.0425.748-.136c.212-.0935.391-.2125.535-.3655.153-.153.272-.323.365-.5185.103-.1955.179-.391.23-.595.06-.2125.094-.4165.111-.612.025-.204.034-.391.034-.561 0-.3145-.034-.6375-.111-.952-.068-.323-.187-.612-.348-.867-.153-.255-.366-.459-.621-.6205-.255-.1615-.569-.238-.943-.238z"/>
	<path fill="#0075BE" d="M52.215 27.176L46.962 25 54 22.0845l-2.176-5.253c-.408-.986-1.5385-1.4535-2.5245-1.0455l-5.253 2.176 2.9155-7.038-5.253-2.176c-.986-.408-2.1165.0595-2.5245 1.0455L37 15.038 34.0845 8l-5.253 2.176c-.9945.408-1.462 1.5385-1.054 2.5245l2.176 5.253-7.038-2.9155-2.176 5.253c-.408.986.0595 2.1165 1.0455 2.5245L27.038 25 20 27.9155l2.176 5.253c.408.986 1.5385 1.4535 2.5245 1.0455l5.253-2.176-2.9155 7.038 5.253 2.176c.986.408 2.1165-.0595 2.5245-1.0455L37 34.962 39.9155 42l5.253-2.176c.986-.408 1.4535-1.5385 1.0455-2.5245l-2.176-5.253 7.038 2.9155 2.176-5.253c.4165-.9945-.051-2.125-1.037-2.533zM38.547 28.74L37 34.9535 35.453 28.74l-5.491 3.298 3.298-5.491L27.038 25l6.2135-1.547-3.298-5.491 5.491 3.298L37 15.0465l1.547 6.2135 5.491-3.298-3.298 5.491L46.9535 25 40.74 26.547l3.298 5.491-5.491-3.298z"/>
</svg>
