<svg xmlns="http://www.w3.org/2000/svg" viewBox="0 0 200 50">
	<g fill="url(#gr1)">
		<path d="M45 0L20 19v4.1l25-19 12.5 8.8V8.7z"/>
		<path d="M20 25.2v4.1l25-18.9 12.5 8.7v-4.2L45 6.2z"/>
		<path d="M20 31.4v4.2l25-19 12.5 8.7v-4.2L45 12.4z"/>
	</g>
	<linearGradient id="gr1" gradientUnits="userSpaceOnUse" x1="57.4855" y1="11.5628" x2="19.886" y2="11.5628">
		<stop offset="0" stop-color="#13a538"/>
		<stop offset="1" stop-color="#0b4697"/>
	</linearGradient>
	<path fill="#ec6608" d="M49 27.4h-8.1v8.1H49v-8.1z"/>
	<path fill="#1b3f92" d="M115.7 20.5h-.2v-2.2h-3.3v2.2h-.3c-1.2 0-2.4.3-3.5.9-1 .6-1.8 1.4-2.4 2.4-.6 1.1-.9 2.3-.9 3.5 0 1.2.3 2.4.9 3.5.6 1 1.4 1.8 2.4 2.4 1.1.6 2.3.9 3.5.8h.2v2.1h3.3V34c.9 0 1.9-.1 2.8-.4.9-.3 1.7-.8 2.4-1.5.6-.6 1.1-1.4 1.4-2.2s.5-1.7.4-2.6c0-1.3-.3-2.5-.9-3.6-.6-1-1.4-1.9-2.4-2.4-1-.6-2.2-.9-3.4-.8zm-5.2 3c.5-.2.9-.3 1.4-.2h.2v8h-.1c-.5 0-1 0-1.5-.2s-.9-.5-1.2-.8c-.7-.8-1-1.8-1-2.8-.1-1.1.3-2.2 1-3 .4-.5.8-.8 1.2-1zm5 7.7v-7.9h.2c.5 0 1 0 1.5.2s.9.5 1.2.8c.7.8 1 1.9.9 3 .1 1-.3 2.1-1 2.9-.3.4-.7.6-1.2.8-.5.2-.9.3-1.4.2h-.2zm-34.9-9.5h-7.3v3.2H76c1.6-.1 3.3.4 4.6 1.4.6.5 1 1 1.3 1.7.3.7.4 1.4.4 2.1 0 .7-.1 1.5-.4 2.1-.3.7-.7 1.3-1.3 1.7-1.3 1-2.9 1.5-4.5 1.5H70V19h10.8v2.7zm-7.3 6v5.1H76c.8 0 1.5-.2 2.1-.7.3-.2.5-.5.6-.9.1-.3.2-.7.2-1 0-.3 0-.7-.2-1-.1-.3-.3-.6-.6-.8-.6-.5-1.3-.7-2-.7h-2.8zM98 28.8h-2v6.7h-3.4v-6.7h-2L87 35.5h-4.2l5.1-8.8-4.8-7.7h4.2l3.7 6.6h1.7V19H96v6.6h1.7l3.6-6.6h4.2l-4.8 7.6 5.1 8.8h-4.3L98 28.8zm41.7-7.1h-7.3v3.2h2.6c1.7-.1 3.3.4 4.6 1.4.6.5 1 1 1.3 1.7.3.7.4 1.4.4 2.1 0 .7-.1 1.5-.4 2.1-.3.7-.7 1.3-1.3 1.7-1.3 1-2.9 1.5-4.5 1.5h-6.2V19h10.8v2.7zm-7.4 6v5.1h2.7c.8 0 1.5-.2 2.1-.7.3-.2.5-.5.6-.9.1-.3.2-.7.2-1 0-.3 0-.7-.2-1-.1-.3-.3-.6-.6-.8-.6-.5-1.3-.7-2-.7h-2.8zm17.5 6.7c.1.4.2.7.3 1.1h3.3v-.2c-.4-.8-.5-1.7-.5-2.6v-5.3c0-.6-.1-1.2-.3-1.8-.2-.6-.6-1-1-1.4-1-.8-2.3-1.2-3.6-1.1-.9 0-1.9.2-2.7.5-.7.3-1.4.8-1.9 1.5-.4.6-.7 1.3-.7 2h3.3c0-.2 0-.4.1-.6.1-.2.2-.4.4-.5.4-.3.8-.4 1.3-.4.3 0 .5 0 .7.1.2.1.5.2.6.4.3.4.5.9.4 1.4v.5H148c-1.5-.1-2.9.3-4.1 1-.5.3-.9.8-1.1 1.3-.3.5-.4 1.1-.3 1.7 0 .5.1 1 .3 1.4.2.5.5.9.9 1.2.8.7 1.9 1.1 3 1 .6 0 1.2-.1 1.7-.3.5-.1 1-.5 1.4-.9zm-1-1.5c-.4.2-.9.3-1.3.3s-.8-.1-1.2-.4c-.1-.1-.3-.3-.3-.5-.1-.2-.1-.4-.1-.5v-.2c.1-1.1 1-1.7 2.6-1.7h1.2V32c-.2.4-.6.7-.9.9zm17 2.6h-3.3v-4.7h-4.1v4.7h-3.3V23.2h3.3v4.9h4.1v-4.9h3.3v12.3zm5.8-4.5h1.3l2.7 4.5h4.3l-4.4-6.4 4-5.8h-4.1l-2.7 4.6h-1.2v-4.6h-3.3v12.2h3.3l.1-4.5z"/>
</svg>