<svg xmlns="http://www.w3.org/2000/svg" viewBox="0 0 200 50">
	<g fill="#30445A">
		<path opacity=".4" d="M55.7492 10.4238c.1.1 1.36.58 1.07.29-.29-.39-.68-.68-1.07-.87996-20.91-11.86-37.25 16.53996-21.4 29.28996.58.49.97.78 1.17.88.19 0 3.79 2.63 1.07-1.56-9.73-15.47 1.94-36.28996 19.16-28.02zm7.39 12.45c-.19-2.24-.78-4.47-1.85-6.52-6.8-8.16996-32.77.2-23.83 21.21.29.58.58.97.78.88.19-.1.97-.19.88-.78-2.34-16.44 18.19-20.43 24.02-14.79zm-21.01 16.93c.1.49.1.58.29.68.1 0 1.95.58 1.95.1.58-5.06 14.4-10.31 15.37-5.93 1.17-1.85 2.43-3.7 3.02-5.93 0-.29.1-.39.1-.39-1.17-4-24.23-.01-20.73 11.47z"/>
		<path d="M61.1992 16.4538c-1.46 4.18-14.98-3.11-17.02-7.09995-.19-.39-.39-.49-.49-.49-.1.1-.29.19-.39.68-1.26 5.92995 12.16 16.72995 19.84 14.00995v-.49c-.19-2.43-.87-4.66-1.94-6.61zm-21.89-5.45c.1-.58.19-.88 0-1.06995-.19-.1-.49.18995-.97.77995-8.36 11.38 10.02 28.7 21.89 24.22 1.26-1.95 2.14-4.09 2.63-6.32-6.52 4.86-25.59-6.71-23.55-17.61zm-2.23-1.83995c.49-.49 1.07-.88.88-.97-.1 0-.68.19-1.36.58-13.03 7.29995-10.02 30.05995 7 34.13995.49 0 .97.1 1.46.1 2.04 0 3.99-.3899 5.84-.97 1.65-.58 2.53-1.07 4.18-2.04.19-.1.39-.19.49-.39-14.8 4.56-31.92-17.91-18.49-30.44995z"/>
		<path d="M88.5293 19.1838c2.82 0 4.57 1.46 4.57 4.09s-1.75 4.09-4.57 4.09h-6.13v-13.05h9.53v2.43h-6.81v2.53c-.09-.09 3.41-.09 3.41-.09zm-.48 5.73c1.75 0 2.24-.58 2.24-1.75s-.58-1.75-2.24-1.75h-2.92v3.4h2.92v.1zm7.39 2.34v-12.94h2.72v5.16h2.9197l2.53-5.16h2.82l-2.92 6.32 3.21 6.71h-2.82l-2.63-5.45h-3.1097v5.45l-2.72-.09zm21.2097-4.09h2.82c-.49 2.63-2.43 4.47-5.45 4.47-3.99 0-6.23-2.72-6.23-6.71 0-3.99 2.24-6.71 6.23-6.71 2.82 0 4.86 1.56 5.35 3.99h-2.82c-.39-1.07-1.17-1.56-2.53-1.56-2.24 0-3.4 1.95-3.4 4.28s1.17 4.28 3.4 4.28c1.46-.09 2.33-.87 2.63-2.04zm16.43-3.98c2.82 0 4.57 1.46 4.57 4.09s-1.75 4.09-4.57 4.09h-6.13v-13.05h9.53v2.43h-6.81v2.53c.01-.09 3.41-.09 3.41-.09zm-.58 5.73c1.75 0 2.24-.58 2.24-1.75s-.58-1.75-2.24-1.75h-2.92v3.4h2.92v.1zm13.03 2.34v-.78h-.39c-.58.68-1.36 1.07-2.63 1.07-2.14 0-3.4-1.36-3.4-3.11 0-1.46 1.07-3.11 3.79-3.11h2.53v-.19c0-.88-.58-1.46-1.75-1.46-1.07 0-1.46.39-1.56 1.07h-2.53c.1-1.85 1.75-2.92 3.99-2.92 2.53 0 4.18 1.07 4.18 3.5v6.03h-2.24v-.1h.01zm-2.23-1.85c1.26 0 2.04-.78 2.04-1.95v-.58h-1.95c-1.17 0-1.75.49-1.75 1.26 0 .88.59 1.27 1.66 1.27zm16.14 1.85h-2.53v-3.79h-3.89v3.79h-2.43v-9.34h2.53v3.5h3.89v-3.5h2.53v9.34h-.1zm9.15 0l-1.95-3.79h-1.94v3.79h-2.43v-9.34h2.53v3.5h2.04l1.85-3.5h2.63l-2.43 4.57 2.53 4.86-2.83-.09z"/>
		<path d="M87.5692 39.0239v-1.17h-4.47v-5.84h1.17v4.77h2.43v-4.77h1.17v4.77h.78v2.24h-1.08zM94.8593 37.8539v-5.84h1.17v3.79l2.82-3.79h1.07v5.84h-1.17v-3.79l-2.82 3.79h-1.07zM109.149 38.0539v-.68c-1.95-.1-2.82-1.26-2.82-2.53 0-.68.19-1.26.78-1.75.58-.49 1.17-.78 2.04-.78v-.49h1.17v.49c.88 0 1.56.29 2.04.78.49.49.78 1.07.78 1.75 0 1.26-.88 2.53-2.82 2.53v.68h-1.17zm0-4.67c-.97 0-1.56.58-1.56 1.46s.58 1.46 1.56 1.46v-2.92zm1.27 3.01c.97 0 1.56-.58 1.56-1.46s-.58-1.46-1.56-1.46v2.92zM119.659 37.8539v-5.84h2.53c.58 0 1.17.19 1.46.49.39.29.58.78.58 1.26 0 .49-.19.97-.58 1.26-.39.29-.88.49-1.46.49h-1.36v2.33h-1.17v.01zm1.17-3.31h1.26c.58 0 .88-.29.88-.68 0-.49-.39-.68-.88-.68h-1.26v1.36zM131.139 32.7938c.58-.58 1.26-.88 2.14-.88.88 0 1.56.29 2.14.88.58.58.88 1.26.88 2.14 0 .88-.29 1.56-.88 2.14-.58.58-1.26.88-2.14.88-.88 0-1.56-.29-2.14-.88-.58-.58-.88-1.26-.88-2.14 0-.87.29-1.55.88-2.14zm2.14 4.09c.49 0 .97-.19 1.26-.58.39-.39.49-.78.49-1.36 0-.58-.19-.97-.49-1.36-.29-.39-.78-.58-1.26-.58-.49 0-.97.19-1.26.58-.29.39-.49.78-.49 1.36 0 .58.19.97.49 1.36.29.38.77.58 1.26.58zM142.709 37.8539v-5.84h2.72c1.07 0 1.75.49 1.75 1.46 0 .58-.29.97-.78 1.17.29.1.58.19.88.49.19.29.39.58.39 1.07 0 .49-.19.88-.58 1.17-.39.29-.88.49-1.46.49h-2.92v-.01zm1.27-3.5h1.36c.49 0 .78-.19.78-.68 0-.39-.29-.68-.78-.68h-1.36v1.36zm0 2.43h1.56c.58 0 .97-.29.97-.78 0-.49-.39-.78-.97-.78h-1.56v1.56zM154.579 32.7938c.58-.58 1.26-.88 2.14-.88.88 0 1.56.29 2.14.88.58.58.88 1.26.88 2.14 0 .88-.29 1.56-.88 2.14-.58.58-1.26.88-2.14.88-.87 0-1.56-.29-2.14-.88-.58-.58-.88-1.26-.88-2.14.01-.87.3-1.55.88-2.14zm2.14 4.09c.49 0 .97-.19 1.26-.58.39-.39.49-.78.49-1.36 0-.58-.19-.97-.49-1.36-.29-.39-.78-.58-1.26-.58-.49 0-.97.19-1.26.58-.29.39-.49.78-.49 1.36 0 .58.19.97.49 1.36.39.38.77.58 1.26.58zM166.159 37.8539v-5.84h1.17v3.79l2.82-3.79h1.07v5.84h-1.17v-3.79l-2.82 3.79h-1.07zm1.94-7.59c0 .39.19.58.68.58.49 0 .68-.19.68-.58h.88c0 .88-.68 1.46-1.56 1.46s-1.56-.58-1.56-1.46h.88z"/>
	</g>
</svg>
