<svg xmlns="http://www.w3.org/2000/svg" viewBox="0 0 200 50">
	<path fill="#1a171b" d="M65.3 24.5c1.7-.4 2.8-1.6 2.8-2.9 0-2.1-2.5-3-4.8-3h-6.6l-.1.1c.1 1.4.2 4.8.2 6s0 5-.2 6.7v.1h6c3 0 6.1-.9 6.1-3.5 0-1.6-1.2-2.9-3.4-3.5zm-3.7 5.6h-1.5c-.1-2.1-.1-4.6-.1-5.4 0-.9.1-2.9.1-4.6.3-.1.7-.1 1.2-.1 2.5 0 3.4.5 3.4 1.9 0 .4-.1.7-.3 1-.5.6-1.4.9-2.6.8h-.1l-.7 1.8h.7c1.4 0 2.6.4 3.2 1.2.3.3.4.8.4 1.2 0 1.4-1.3 2.2-3.7 2.2zM82.6 18.5h-2.9l.1 3.3c.1 1.6.1 3.3.2 4.9-.2-.5-.4-.8-1.3-2.1 0 0-3-4.7-4.1-6.1h-3.4v.1c.1 1.4.2 4.8.2 6s0 5-.2 6.7v.1h3v-.1c-.2-3.1-.2-6.3-.2-9.4.1.4.2.7.7 1.4 0 .1 5.3 7.7 5.5 8.1v.1h2.4v-.1c-.2-1.7-.2-5.5-.2-6.7 0-1.2.1-4.7.2-6v-.2zM91.8 18.6h-5.7v.1c.1 1.4.2 4.8.2 6s0 5-.2 6.7v.1h3.6v-.1c-.1-1.2-.2-3.5-.2-5.2h1.2c4.7 0 7-1.3 7-3.9 0-3-3.2-3.7-5.9-3.7zm-1.4 6h-.7-.3V23v-2.7c.3-.2.7-.2 1.1-.2 1.7 0 2.9.3 3.4 1 .3.3.4.7.4 1.2 0 1.9-2.1 2.3-3.9 2.3zM110.1 18.6h-5.7v.1h.1c.1 1.4.2 4.8.2 6s0 5-.2 6.7v.1h3.6v-.1c-.1-1.2-.2-3.5-.2-5.2h1.1c4.7 0 7.1-1.3 7.1-3.9 0-3-3.3-3.7-6-3.7zm-1.1 6h-.7-.3V23v-2.7c.2-.2.6-.2 1-.2 1.7 0 2.9.3 3.4 1 .3.3.4.7.4 1.2 0 1.9-2.1 2.3-3.8 2.3zM129.1 31.5l-5.7-12.9H121v-.1c-.7 1.9-5.1 11.3-5.7 12.8l-.1.2h3.1v-.1c.3-.9.6-1.9 1-3H124.4c.5 1.4 1 2.4 1.1 3v.1h3.6zm-5.7-4.8h-1.6-1.9c.7-1.6 1.4-3.1 1.9-4.4.3.6 1 2.3 1.9 4.4h-.3zM130.6 18.7c.1 1.4.2 4.8.2 6s0 5-.2 6.7v.1h3.6v-.1c-.2-1.7-.2-5.5-.2-6.7 0-.9 0-2.9.1-4.5.3 0 .7-.1 1-.1 1.7 0 2.9.3 3.4 1 .3.3.4.7.4 1.2 0 1.5-1.4 2.3-2.7 2.3h-1.1l.1.2c1.3 1.9 3.2 5.1 4 6.7v.1h3.9l-.1-.2c-.2-.2-2.7-3.9-3.7-5.5l-.1-.1c2-.6 2.9-1.7 2.9-3.4 0-3-3.2-3.7-6-3.7h-5.6.1zM148.3 18.5h-3.4v.1c.1 1.4.2 4.8.2 6 0 1.1 0 5-.2 6.7v.1h3.6v-.1c-.1-1.7-.2-5.5-.2-6.7s.1-4.7.2-6l-.2-.1zM160.4 24.5c1.7-.4 2.8-1.6 2.8-2.9 0-2.1-2.5-3-4.8-3h-6.6l-.1.1c.1 1.4.2 4.8.2 6s0 5-.2 6.7v.1h6c2.9 0 6.1-.9 6.1-3.5 0-1.6-1.2-2.9-3.4-3.5zm-3.9 5.6H155c-.1-1.9-.1-4.5-.1-5.3 0-.9 0-2.9.1-4.6.4-.2.9-.2 1.3-.2 2.5 0 3.4.5 3.4 1.9 0 .4-.1.7-.3 1-.5.6-1.4.9-2.6.8h-.1l-.7 1.8h.7c1.4 0 2.6.4 3.2 1.2.3.3.4.8.4 1.2 0 1.4-1.3 2.2-3.8 2.2zM178.4 31.5l-5.8-13h-2.4v.1c-.7 2-5.3 11.9-5.7 12.7l-.1.2h3.1v-.1c.3-.9.6-1.9 1-3h5.1c.6 1.4 1 2.4 1.2 3v.1h3.6zm-5.7-4.8h-1.6-1.9c.7-1.6 1.3-3.1 1.9-4.4.3.6 1 2.3 1.9 4.4h-.3zM179.4 21.9c0 2.3 2.3 3.2 4.3 4 1.6.6 3.2 1.3 3.2 2.4 0 .3-.1.6-.2.8-.4.4-1.1.6-2.4.6-1.2 0-2.6-.4-4.1-1.1l-.6-.3V31l.4.1h.2c.8.2 2.2.5 3.7.5 3.8 0 6.1-1.5 6.1-4 0-2.4-2.3-3.3-4.4-4.1-1.5-.6-3.1-1.2-3.1-2.2 0-.3 0-1.1 2-1.1 1.5 0 2.9.6 3.7.9l.7.3v-2.8l-.7-.1c-.7-.1-2-.4-3.2-.4-3.4 0-5.6 1.5-5.6 3.8"/>
	<linearGradient id="gr1" gradientUnits="userSpaceOnUse" x1="28.65" y1="4.7681" x2="28.65" y2="45.0784">
		<stop offset="0" stop-color="#007448"/>
		<stop offset=".6" stop-color="#8cc8aa"/>
		<stop offset="1" stop-color="#00915a"/>
	</linearGradient>
	<path fill="url(#gr1)" d="M10 6.4h37.3v37.3H10z"/>
	<linearGradient id="gr2" gradientUnits="userSpaceOnUse" x1="28.5567" y1="-3.129" x2="28.5567" y2="42.6364">
		<stop offset="0" stop-color="#00915a"/>
		<stop offset=".3" stop-color="#8cc8aa"/>
		<stop offset=".55" stop-color="#00915a"/>
		<stop offset=".8352" stop-color="#007448"/>
		<stop offset=".8909" stop-color="#007d50"/>
		<stop offset=".9815" stop-color="#009567"/>
		<stop offset="1" stop-color="#009b6c"/>
	</linearGradient>
	<path fill="url(#gr2)" d="M46.5 8.5c0-.8-.6-1.5-1.3-1.5H12.9c-.7 0-1.2.7-1.3 1.5 0 0-.9 4.9-.9 15.3s.9 17.3.9 17.3c.1.8.6 1.5 1.3 1.5h32.3c.7 0 1.3-.6 1.3-1.5 0 0-.4-7.9-.4-15.8 0-7.7.4-16.8.4-16.8z"/>
	<linearGradient id="gr3" gradientUnits="userSpaceOnUse" x1="35.6904" y1="7.9153" x2="35.6904" y2="39.3131">
		<stop offset="0" stop-color="#00a578"/>
		<stop offset="1" stop-color="#00915a"/>
	</linearGradient>
	<path fill="url(#gr3)" d="M31.1 10.8c1 .5 5.1 2.6 5.6 3.4-2.1.3-6.1 1.3-8.3 2.4l-.1.3c2.4-.6 5.8-.8 8-.9-.8 1.3-1.4 1.9-2.7 3.3l-.2.3c2.5-1.5 3.2-1.6 5.5-3 .8 1.3 1.1 4.3 1.1 6.6.7-1.5 1.7-7.1 1.3-8.1 1.5-1 1.8-1.9 1.8-1.9-1.4.1-2.1.2-2.9.4-1.8-1.1-5.9-2.5-9-2.9l-.1.1z"/>
	<linearGradient id="gr4" gradientUnits="userSpaceOnUse" x1="17.9263" y1="10.3048" x2="17.9263" y2="40.6519">
		<stop offset="0" stop-color="#00a578"/>
		<stop offset="1" stop-color="#00915a"/>
	</linearGradient>
	<path fill="url(#gr4)" d="M15.8 28.3c-.2 1.9-.3 3.2 0 4.8-.7.1-1.5.2-2.1.4l-.1.3c.9.6 1.8 1 2.9 1.6.6 1.3 1.2 2.1 2.1 3.1l.1-.3c-.2-.7-.4-1.3-.3-2.1 1.2.4 2.2.6 3.6.6l.1-.3c-1.2-.5-2.4-.8-3.5-1.8.3-.8.7-1.6 1.2-2.4l.1-.3c-1 .2-2.1.6-2.9.7-.7-1.3-1-3-1.4-4.7l.2.4z"/>
	<linearGradient id="gr5" gradientUnits="userSpaceOnUse" x1="23.4746" y1="9.3723" x2="23.4746" y2="39.8505">
		<stop offset="0" stop-color="#00a578"/>
		<stop offset="1" stop-color="#00915a"/>
	</linearGradient>
	<path fill="url(#gr5)" d="M22 19.7s-.7-.1-2.1 0c-1.1.1-2.7.2-3.5.4l-.1.3c1.3.1 3 .4 3.6 1 0 0-2 1.8-3.8 5.5 0 0 3.5-3.3 4.9-4 0 0 .7 2.6 1.3 3.9l.1-.3c.2-.8.6-3.2 1.2-4.6 0 0 .2-.1 1.3-.3 1.1-.1 2.7-.2 5.7.4l.1-.3c-.7-.4-3.4-1.6-6.2-2h.1c.4-1.1.9-2.1.9-2.1-.6.4-2.4 1.2-3.5 2.1"/>
	<linearGradient id="gr6" gradientUnits="userSpaceOnUse" x1="28.277" y1="10.3048" x2="28.277" y2="40.6519">
		<stop offset="0" stop-color="#00a578"/>
		<stop offset="1" stop-color="#00915a"/>
	</linearGradient>
	<path fill="url(#gr6)" d="M29.3 35.8c0-.5-.1-.9-.1-1.5-.6.8-1.1 1.5-1.8 2.2-.7.2-1.5.2-2.2.2h-.8l-.1.3c.7.4 1.3.6 2.1.7-.6.6-1.4.9-1.9 1.3l-.1.3c1.1-.3 2.7-.7 3.8-1.4.6 0 1.1 0 1.6-.1l.1-.3c-.1-.3-.3-.5-.4-.8 1-.8 1.9-1.6 2.7-2.5l.1-.3c-.9.6-2 1.4-3 1.9"/>
	<path fill="#fff" d="M39.1 16.2c-2.3 1.4-3 1.5-5.5 3 1.5-1.6 2-2.2 2.9-3.5-2.3.1-5.7.4-8 .9 2.1-1.1 6.2-2.3 8.4-2.6-.5-.7-4.6-2.9-5.6-3.4 3.3.3 7.2 1.5 9.1 2.6.7-.3 1.4-.3 2.8-.4-.4.7-.4.9-1.8 1.9.4 1-.6 6.6-1.3 8.1.1-2.3-.2-5.3-1-6.6M22.2 36.3c-1.3-.5-2.2-1-3.4-2.1.3-.8.7-1.6 1.2-2.4-1.1.2-1.9.3-2.8.5-.7-1.3-1.1-2.6-1.5-4.4-.2 1.9-.3 3.3 0 4.8-.7.3-1.4.5-2.1.7 1 .6 1.8 1 2.9 1.6.6 1.3 1.1 2.1 2.1 3.1-.2-.8-.3-1.5-.2-2.3 1.4.3 2.4.5 3.8.5M25.7 17.7c-.4.6-.9 1.5-1 2 3.5.5 6.2 2.2 6.2 2.2-3-.6-4.6-.5-5.7-.4-1.1.1-1.3.3-1.3.3-.8 1.8-1.3 4.8-1.3 4.8-.6-1.3-1.3-3.9-1.3-3.9-1.5.8-4.9 4.1-4.9 4.1 1.9-3.8 3.8-5.5 3.8-5.5-.7-.7-2.4-1-3.6-1 .7-.3 2.3-.6 3.6-.7h2.1c1-1.1 2.8-1.8 3.4-1.9M29.3 34c-.6.8-1.1 1.5-1.8 2.2-1.1.3-2.1.5-3.2.5.7.4 1.3.6 2.1.7-.7.7-1.3 1.1-2.1 1.6 1.2-.3 2.7-.7 3.8-1.5.6 0 1.1 0 1.6-.1-.1-.4-.2-.6-.3-1 1.1-.8 1.9-1.6 2.7-2.5-.9.7-1.8 1.1-2.9 1.7.1-.6.1-1 .1-1.6"/>
</svg>