<svg xmlns="http://www.w3.org/2000/svg" viewBox="0 0 200 50">
	<path fill="#F10D30" d="M66.25 17.125c0 5.592-4.533 10.125-10.125 10.125S46 22.717 46 17.125 50.533 7 56.125 7 66.25 11.533 66.25 17.125ZM56.125 40.75c-5.597 0-10.125.368-10.125.7361v.7778C46 42.632 50.528 43 56.125 43s10.125-.368 10.125-.7361v-.7778c.0313-.3681-4.528-.7361-10.125-.7361ZM46 33.4375v1.125c0 1.8644 4.533 3.375 10.125 3.375s10.125-1.5106 10.125-3.375v-1.125c0-1.8644-4.533-3.375-10.125-3.375S46 31.5731 46 33.4375Z"/>
	<path fill="#10385C" d="M106.18 31.6562c-1.999 0-3.649-.635-4.95-1.8742-1.3324-1.2711-1.9668-2.8598-1.9668-4.7977 0-1.938.6344-3.5267 1.9038-4.7659 1.332-1.2711 2.95-1.9072 4.854-1.9072 0 0 2.538-.0319 4.188.9217l1.968-3.0498s-2.19-1.7798-6.219-1.7798c-3.236 0-5.902 1.08-7.9006 2.9553-2.0621 1.9699-3.1091 4.5121-3.1091 7.6257 0 3.0816 1.047 5.6239 3.141 7.6256 1.9987 1.9061 4.6647 2.9553 7.8687 2.9553 4.029 0 6.219-1.7798 6.219-1.7798l-1.968-3.0498c-1.428.8262-3.49.9206-4.029.9206Zm13.769 3.5278h-4.188V14.8164h17.037V35.184h-4.156V18.566h-8.693v16.618ZM89.9611 23.6813c-1.3645-1.2393-3.2361-1.8743-5.6157-1.8743h-4.3786v-3.241h10.6287v-3.7496H75.7788V35.184h8.5666c2.3796 0 4.2512-.6043 5.6475-1.8435 1.364-1.2712 2.0622-2.8598 2.0622-4.8296 0-1.938-.6982-3.5585-2.094-4.8296Zm-3.1092 7.0224c-.6663.5087-1.5864.7943-2.824.7943h-4.0611v-6.1644h4.0611c1.2057 0 2.1258.2857 2.7922.8262.6663.5405 1.0151 1.303 1.0151 2.2873 0 .9855-.3488 1.748-.9833 2.2566Zm65.0511-7.0224c-1.364-1.2393-3.236-1.8743-5.616-1.8743h-4.378v-3.241h10.629v-3.7496h-14.817V35.184h8.566c2.38 0 4.252-.6043 5.647-1.8435 1.365-1.2712 2.063-2.8598 2.063-4.8296 0-1.938-.698-3.5585-2.094-4.8296Zm-3.109 7.0224c-.666.5087-1.586.7943-2.824.7943h-4.061v-6.1644h4.061c1.206 0 2.126.2857 2.792.8262.356.2889.621.6416.791 1.0569.148.3625.224.7723.224 1.2304 0 .4109-.06.7823-.177 1.113-.163.4636-.436.847-.806 1.1436Z"/>
</svg>