<svg viewBox="0 0 200 50" xmlns="http://www.w3.org/2000/svg">
	<path fill="#231F20" d="m61.7216 17.0781-.3725 2.2111H54.428v4.3339h2.3207c1.2646 0 3.399 0 4.9016 1.4152 1.1871 1.1265 1.3564 2.6736 1.3564 3.5853 0 .9091-.139 2.2147-1.1871 3.2583-1.3831 1.3822-3.5737 1.5025-5.1983 1.5025h-4.9917V17.0781h10.092Zm-4.9159 14.0846c1.2566 0 1.9794-.3699 2.368-.7264.6327-.5926.7307-1.4125.7307-1.9686 0-1.0053-.3582-1.5979-.7307-1.9206-.6506-.6113-1.6274-.704-2.368-.704H54.428v5.3205h2.3777v-.0009Zm11.8717-9.977v4.6734h1.6782c.9883 0 2.6548.0223 3.7947 1.1595.8743.8671.9946 1.9588.9946 2.6611 0 1.3422-.4848 2.1576-.9474 2.6184-.8716.8751-2.1451 1.0863-3.6325 1.0863h-4.5353V21.6669l2.6477-.4812Zm0 10.3575h1.3814c.581 0 1.2851-.0347 1.7886-.5213.4421-.4002.4911-.9679.4911-1.3422 0-.7994-.2861-1.2726-.5588-1.5026-.467-.4322-1.1933-.4652-1.7209-.4652h-1.3814v3.8313ZM79.657 21.1857v12.1987h-2.6424V21.6669l2.6424-.4812Zm8.241 12.5c-3.3483 0-5.2171-2.2878-5.2171-6.1288 0-4.3339 2.6727-6.4104 5.4051-6.4104 1.3323 0 2.3189.3065 3.3973 1.3056l-1.3324 1.7155c-.7326-.6372-1.3626-.9233-2.0649-.9233-.8431 0-1.5471.4287-1.9357 1.2058-.3663.729-.5196 1.8377-.5196 3.3313 0 1.622.2808 2.6549.8369 3.2422.3868.426.966.68 1.6193.68.8475 0 1.6763-.3921 2.4766-1.1657l1.2566 1.565c-1.1086 1.0828-2.269 1.5828-3.9221 1.5828Zm10.4627-.3022h-2.6398v-9.993h-3.2867v-1.9321h9.4428l-.333 1.9321h-3.1825v9.993h-.0008Zm7.5453-12.237c.115.4928.19.9767.19 1.4205.954-1.0881 2.258-1.4205 3.277-1.4205 1.431 0 2.394.5882 2.976 1.1532.824.8056 1.658 2.2618 1.658 4.9755 0 2.6211-.78 4.3179-1.775 5.2599-.585.5383-1.582 1.1514-3.149 1.1514-.606 0-1.726-.1051-2.884-.991.049.5463.063 1.1835.063 1.6318v3.498l-2.57.6212V24.5446c0-1.5792-.12-2.4606-.234-2.9721l2.448-.426Zm.355 9.2889c.636.5847 1.455 1.0722 2.45 1.0722.538 0 .976-.148 1.365-.5071 1.058-.9465 1.058-2.6594 1.058-3.5871 0-1.5329-.139-2.8198-.841-3.5238-.414-.4207-.872-.5561-1.383-.5561-1.214 0-2.111.7004-2.649 1.228v5.8739Zm15.079 3.2503c-3.317 0-5.411-2.4161-5.411-6.2732 0-3.8126 2.11-6.2669 5.36-6.2669 3.498 0 5.479 2.5256 5.479 6.2954 0 3.8696-2.098 6.2447-5.428 6.2447Zm-.051-10.6071c-1.67 0-2.399 1.2503-2.399 4.1512 0 3.514.903 4.5228 2.475 4.5228 1.578 0 2.447-1.2485 2.447-4.2893 0-3.3696-.969-4.3847-2.523-4.3847Z"/>
	<path fill="#F68E1E" d="M47.1086 38.3574H20V12h27.1086v26.3574Zm92.4124-19.0683.367-2.211h-10.086v16.3067h4.994c1.619 0 3.801-.1211 5.187-1.503 1.045-1.0439 1.192-2.3496 1.192-3.2578 0-.9121-.176-2.459-1.361-3.5859-1.502-1.4151-3.635-1.4151-4.903-1.4151h-2.326v-4.3339h6.936Zm-2.181 11.1474c-.383.3565-1.116.7266-2.372.7266h-2.383v-5.3203h2.383c.753 0 1.719.0927 2.372.7041.366.3232.728.915.728 1.9209 0 .5556-.092 1.376-.728 1.9687Zm13.568 1.8281c.299.7647.932 1.3311 1.674 1.6153l1.388-1.6475c-.943-.6386-1.095-1.166-1.072-2.7597l.051-3.417c.021-1.7696.021-2.3955-.198-2.9229-.529-1.3037-1.822-1.9853-3.726-1.9853-1.85 0-3.378.4931-5.22 1.6259l1.193 1.8702s1.885-1.376 3.664-1.376c1.454 0 1.694.7265 1.694 2.1113v.6309h-.827c-3.921 0-6.056 1.3925-6.056 4.1396 0 2.083 1.259 3.5401 4.069 3.5401 1.312 0 2.386-.3311 3.366-1.4249Zm-4.562-2.2587c0-1.4981.801-2.2588 3.474-2.2588l.485.0312-.047 2.8262c-.532.7549-1.355 1.1934-2.204 1.1934-1.067 0-1.708-.6553-1.708-1.792Zm10.332 3.3789h2.64v-5.378h4.149v5.378h2.646V21.1855l-2.646.4834v4.4053h-4.149v-4.8887l-2.64.4834v11.7159Zm15.703-12.1983-2.639.4815v11.7148h2.639v-5.2822h1.095c.393 0 .826 0 1.187.3047.317.2685.468.7295.565 1.1836l.382 1.6787c.096.4355.268 1.1074.745 1.5762.639.5927 1.482.6347 2.341.7041l.819.0712.485-1.7607-.485-.1045-.798-.3564c-.066-.0557-.169-.168-.28-.3702-.062-.1123-.127-.2519-.189-.4238l-.603-1.7724c-.147-.4424-.387-.9463-.731-1.2754-.193-.1563-.483-.376-.894-.4649v-.0556c.558-.1065.894-.4112.974-.4903.264-.2597.483-.666.595-1.0761l.395-1.2891.009-.0264c.094-.2685.196-.5605.43-.7627l.672-.2861.613-.1113-.489-1.7705-.895.0957c-.894.0996-1.475.1777-1.969.6845-.431.4483-.556.92-.649 1.3741l-.314 1.3398c-.121.5381-.294.8848-.508 1.1103-.373.3204-.921.3594-1.355.3594h-1.148v-5Z"/>
	<path fill="#FEFEFE" d="m38.6993 25.1981-5.5709-8.1483h-4.7109l5.5424 8.1483-5.5424 8.1081h4.7109l5.5709-8.1081Z"/>
</svg>