<svg xmlns="http://www.w3.org/2000/svg" viewBox="0 0 200 50">
	<path fill="#FFF" d="M47.1897 11H20v27.0968h27.1897V11z"/>
	<g fill="#F78F1E">
		<path d="M139.713 24.2154c-1.971-1.6697-4.686-1.1948-7.06-1.2516-.018-1.4477-.013-2.8955-.013-4.3432 2.315-.0878 4.63-.0207 6.947-.0439.101-.7768.225-1.551.325-2.3277-1.77-.2581-3.559-.0955-5.337-.111-1.592.0181-3.205-.1807-4.782.1032.047 5.5949-.015 11.1923.031 16.7871 1.84.0052 3.683-.0052 5.523.0052 1.151.0206 3.899-.3665 4.916-1.6904 1.487-1.9354 1.365-5.3316-.55-7.1277zm-2.652 5.9948c-.444.2478-.94.4491-1.443.4878-1.017.08-1.995.0464-2.981-.0826.034-1.7652-.023-3.5329.013-5.2981 1.432.0104 3.131-.1677 4.111.3097 1.691.8723 1.721 3.7936.3 4.5832zM153.05 30.6489c-.126-2.3355-.005-4.6735-.018-7.0116.044-1.2929-.821-2.6993-2.142-2.9729-2.359-.6942-5.04-.0852-6.978 1.3858.16.6865.619 1.2413.965 1.8426.658-.1781 1.26-.5032 1.866-.8078.87-.4593 1.902-.4361 2.852-.307.97.4748.57 1.7187.655 2.578-1.277-.0568-2.547.08-3.791.3639-1.357.4413-2.679 1.3651-2.939 2.7897-.142.7819-.163 1.6077-.005 2.3871.25 1.2412 1.44 2.1548 2.647 2.3845.767.1445 1.567.098 2.346.0077.911-.1058 1.701-.6555 2.333-1.2981.354.4852.645 1.1071 1.2 1.3394.227.0955.493.0258.743.0413.395-.4826.777-.9755 1.151-1.4761-.358-.3691-.653-.7923-.885-1.2465zm-2.882-.4284c-.338.48-.816.8903-1.36 1.0607-.496.1548-1.087.1651-1.554-.0542-.274-.1265-.501-.3665-.643-.6297-.34-.6323-.317-1.4684-.082-2.1445.482-1.3936 2.374-1.2 3.69-1.1149-.01.96.083 1.9278-.051 2.8826zM156.645 20.9304c.87-.1935 1.75-.3406 2.625-.529.252 1.6465.051 3.3316.141 4.9961 1.337.0052 2.674.0103 4.011.0026.059-1.4968.108-2.991.124-4.4903.869-.209 1.749-.3871 2.637-.511.005 4.209.023 8.4181-.008 12.6271-.859.0026-1.721.0052-2.578.0103-.227-1.8116-.118-3.6438-.155-5.4658-1.344-.0309-2.689-.0645-4.033.0026-.057 1.8245-.103 3.6516-.152 5.4761-.865-.0051-1.729-.0129-2.594-.018-.033-4.0336-.002-8.0671-.018-12.1007zM169.768 20.8864c.872-.1729 1.749-.3148 2.627-.4671 0 1.5742.077 3.5587.077 5.1716.924 0 1.724.1187 2.338-.3664.904-.7149.79-2.6168 1.316-3.6542.684-1.0633 2.096-.9807 3.195-1.1613.145.6709.276 1.3445.356 2.0258-.221.0051-.681-.0774-.885.0129-1.352.6039-.64 3.0451-1.902 3.7935-.121.0723-.407.1291-.549.1523 1.305.9445 1.54 2.5755 2.1 3.969.217.6813.984.8181 1.559 1.0684 0 0-.304 1.5148-.457 1.8865-1.117-.1987-2.518-.0362-3.313-1.0168-.885-1.1871-.679-2.7923-1.329-4.08-.46-.929-1.59-.6039-2.48-.6039-.005 1.8039.02 3.6103-.026 5.4168-.87.0026-1.737.0103-2.601.0077-.07-4.0516-.018-8.1032-.026-12.1548z"/>
		<path d="M47.2 11H20v27.0968h27.1897C47.2 29.0645 47.1793 20.0323 47.2 11zM33.1406 32.9922h-4.8722l5.6929-8.4103-5.6929-8.4077h4.8722l5.6929 8.4077-5.6929 8.4103z"/>
	</g>
	<path fill="#010101" d="M51.6079 16.1767c3.391-.0283 6.7845-.0283 10.1755 0-.1574.7897-.2736 1.5846-.3974 2.3794-2.3123-.0206-4.6245 0-6.9368-.0129.0052 1.4658 0 2.929.0103 4.3948 1.902.0723 3.902-.2554 5.7161.4775 1.3084.4929 2.3665 1.649 2.6607 3.0245.431 1.6929.2813 3.7135-.96 5.0451-1.0994 1.0839-2.6942 1.4658-4.191 1.5149-2.0258.0103-4.0516-.0207-6.0748.0103.0052-5.6103.0052-11.2232-.0026-16.8336zm2.8413 9.0942c.0103 1.7987-.0103 3.6.0129 5.4013 1.2877-.0567 2.6194.1729 3.8684-.24 1.8193-.6193 2.0516-3.4064.6632-4.5703-1.329-.9161-3.0348-.5239-4.5445-.591zm11.5535-4.3742c.9033-.1496 1.7987-.3354 2.6994-.5058.0232 1.6258-.0052 3.2542.0181 4.88 1.4606.0284 3.0193-.2296 4.3948.4052 2.5677 1.0813 2.8284 5.2103.5393 6.7071-.6916.4206-1.5122.5832-2.3122.6142-1.7729.0258-3.5484-.0361-5.3213.0284-.0516-4.0413-.0129-8.0852-.0181-12.1291zm2.7149 6.2917c-.0155 1.2929 0 2.5883-.0155 3.8812.8748-.0387 1.791.1084 2.6322-.1883 1.1562-.5213 1.2439-2.1704.5497-3.0942-.8284-.8465-2.1109-.5265-3.1664-.5987zm37.4374-5.4762c1.6-1.698 4.575-1.8167 6.245-.16 1.44 1.4942 1.706 3.7007 1.652 5.6826-.103 1.951-.602 4.1626-2.294 5.3548-1.634 1.1355-3.869.8852-5.497-.1316.106 1.7058.049 3.4142.059 5.12-.661.1807-1.324.3639-1.99.5187h-.655c.005-4.7303-.003-9.4606.005-14.1909.008-1.04-.088-2.0774-.227-3.1071.839-.142 1.677-.2942 2.516-.4387.065.449.129.9006.186 1.3522zm.183 2.1342c-.036 2.0568-.015 4.111-.008 6.1678.984.8077 2.576 1.4967 3.686.5393 1.259-1.169 1.089-3.04 1.078-4.6039-.072-1.0967-.196-2.5058-1.311-3.058-1.218-.5703-2.511.1832-3.445.9548zm-29.383-2.9187c.9084-.1832 1.8142-.3613 2.7251-.5342-.0051 4.2039-.0077 8.4078 0 12.6116-.9032.0026-1.809-.0077-2.7122-.0026-.0052-4.0258.0258-8.0516-.0129-12.0748zm5.8606 4.2348c.3433-2.0129 1.6929-3.9716 3.7265-4.547 1.7032-.5807 3.6387-.1549 4.9909 1.0141-.3432.6968-.8412 1.3007-1.3445 1.8865-.8542-.6374-2.0413-1.3161-3.0735-.6632-1.422.8361-1.36 2.7122-1.44 4.1496.0155 1.422.0464 3.3007 1.5174 4.031 1.2181.6323 2.4981-.2245 3.4065-1.009.4464.5651.8877 1.1355 1.3341 1.7006-1.0529.9316-2.3638 1.6749-3.8141 1.6078-1.7162.1342-3.5149-.6142-4.4388-2.1033-1.0916-1.8012-1.2051-4.0335-.8645-6.0671zm9.5665-4.4799c3.1793-.0155 6.3587-.0026 9.5409-.0104-.096.6916-.214 1.3781-.318 2.0671-1.071.0052-2.1442.0078-3.2152.0052.0052 3.4168-.0077 6.8309.0052 10.2451-.9058.0129-1.8091.0026-2.7123.0155-.0103-3.4167-.0077-6.8361-.0051-10.2555-1.0994-.0077-2.1988-.0154-3.3007-.0103.0129-.6864.0103-1.3703.0052-2.0567zm27.0529.0051c1.763-.6168 3.899-.3793 5.347.8542 1.497 1.2594 2.01 3.3006 2.054 5.1819-.007 1.7342-.335 3.6026-1.52 4.9446-2.054 2.3741-6.382 2.2477-8.173-.3768-1.282-1.8452-1.419-4.2349-1.034-6.3871.369-1.809 1.496-3.6181 3.326-4.2168zm1.092 1.8632c-1.175.4387-1.428 1.8271-1.533 2.9239-.047 1.5871-.153 3.2774.547 4.7536.578 1.2438 2.513 1.4296 3.368.3819.531-.5549.642-1.3548.797-2.0774.183-1.6336.196-3.3652-.444-4.9058-.439-1.0323-1.719-1.4607-2.735-1.0762z"/>
</svg>
