<svg xmlns="http://www.w3.org/2000/svg" viewBox="0 0 200 50">
	<path fill="#de9031" d="M10 39.6h11.2l16-31h9.4V3.5H10v36.1z"/>
	<path fill="#1e6b01" d="M51.1 11.2H39.7l-16 31h-9.1v5.2h36.5V11.2z"/>
	<path fill="#000" d="M68.2 19c.5-.5.9-1.5.9-2.6 0-1-.5-1.8-1.1-2.6-.7-.8-1.6-1-2.7-1H63V11h5.2V8.9h-7.3V20h4.6c1.1 0 2-.3 2.7-1zm-5.3-.8v-3.6H65c1.1 0 1.8.5 1.8 1.8s-.7 1.8-1.8 1.8h-2.1zm11.9-9.3l-4.3 11.4h2.3l.9-2.6H78l.9 2.6h2.3L76.8 8.9h-2zm-.5 7l1.6-3.9 1.4 3.9h-3zm15.5-2.6h-4.5V8.9h-2.1v11.4h2.1v-4.9h4.5v4.9h2.1V8.9h-2.1zm13.3-4.4h-2.5l-3.7 4.4V8.9h-2v11.4h2v-5.2l4.4 5.2h2.5l-5.1-6.2zm-34 19.6H67v9.3h-4.1v-9.3h-2v11.4h7.7v2.3h1.9v-4.4h-1.4zm5.7 6.5h4.3v-2.1h-4.3v-2.3H80v-2.1h-7.3v11.4h7.6v-2.1h-5.5zm14.6-2.1h-4.6v-4.4h-2v11.4h2V35h4.6v4.9h2V28.5h-2zm4.3-2.3h3.2v9.3H99v-9.3h3.2v-2.1h-8.5zm15.1-2.1h-4.3v11.7h2.1v-4.4h2.3c1.1 0 1.8-.5 2.5-1 .7-.8.9-1.5.9-2.6 0-1-.2-2.1-.9-2.6-.6-.8-1.5-1.1-2.6-1.1zm0 4.9h-2.3v-2.6h2.3c.9 0 1.6.3 1.6 1.3 0 .8-.7 1.3-1.6 1.3zm10.5-5.1c-1.4 0-2.7.8-3.7 1.8-.9 1-1.4 2.6-1.4 4.1 0 1.5.5 3.1 1.4 4.1.9 1.3 2.1 1.8 3.7 1.8 1.4 0 2.5-.8 3.7-1.8 1.1-1 1.6-2.6 1.6-4.1 0-1.5-.7-3.1-1.6-4.1-1-1.3-2.1-1.8-3.7-1.8zm2.5 8.5c-.7.8-1.4 1-2.3 1-.9 0-1.6-.3-2.3-1-.7-.5-.9-1.5-.9-2.6 0-1 .2-1.8.9-2.6s1.4-1 2.3-1c.9 0 1.6.3 2.3 1 .7.5.9 1.5.9 2.6 0 1-.2 1.8-.9 2.6zm13.7-8.3H133l-3.7 4.4v-4.4h-2v11.4h1.8v-5.2l4.3 5.2h2.8l-5.1-6.2zm7 0h-4.3v11.7h2.1v-4.4h2.3c1.1 0 1.8-.5 2.5-1 .7-.8.9-1.5.9-2.6 0-1-.2-2.1-.9-2.6-.5-.8-1.4-1.1-2.6-1.1zm0 4.9h-2.3v-2.6h2.3c.9 0 1.6.3 1.6 1.3 0 .8-.6 1.3-1.6 1.3zm7.8 1.6h4.3v-2.1h-4.3v-2.3h5.3v-2.1h-7.3v11.4h7.7v-2.1h-5.7zm16.2-6.5h-7.1v1.8c0 2.1 0 3.6-.2 4.6-.2 1-.5 2.1-.9 2.8h-.9v4.4h1.6v-2.3h6.8v2.3h2.1v-4.4h-1.4v-9.2zm-1.8 9.3h-4.1c.9-2.1 1.1-4.4 1.1-7.2h3v7.2zm7.7-1.8v-7.5h-2v11.4h1.6l5-7.5v7.5h2V28.5h-1.8zm9.2-7.5v2.1h3.2v9.3h2v-9.3h3.2v-2.1z"/>
</svg>
