<svg xmlns="http://www.w3.org/2000/svg" viewBox="0 0 200 50">
	<g fill="#50B848">
		<path d="M34.2192 13v7.5769L40.3851 13h-6.1659zM20.9426 16.6049c.4301-.6913.8921-1.2367 1.5318-1.7492l.4857-.3298c.4591-.2497.8746-.4158 1.388-.5435.3109-.0556.5975-.086.9178-.0965.4282.0143.7948.068 1.2109.1707.2919.0932.5561.1978.8332.3292.6295.3473 1.1082.7381 1.5901 1.2671l.3621.4572c.5311.7775.8746 1.5479 1.1281 2.4477l.137.6118c.018.0976.0331.1946.0452.2879V13H20v6.4749c.1312-.7141.3414-1.6519.6636-2.3467l.279-.5233zM44.7925 14.0473L34.2192 27.0415v2.9482c.0124-.0951.0285-.1908.0447-.2873l.1365-.6107c.2543-.9004.5983-1.6715 1.1286-2.4494l.3621-.4591c.4125-.4483.8136-.7955 1.3318-1.121.2666-.1489.5257-.2704.8047-.3836.6228-.1959 1.1552-.2717 1.8124-.2521l.6085.0887c.5091.1274.9249.2935 1.3818.5467.2537.1564.4825.3223.7147.5077.6875.6171 1.1662 1.2735 1.5853 2.0911l.2394.551c.1933.5201.3317 1.2848.4231 1.7995-.0003 0-.0003-15.9639-.0003-15.9639z"/>
		<path d="M39.5266 35.554c-1.4917 0-2.7071-1.9043-2.7071-4.2419 0-2.3363 1.2154-4.2406 2.7071-4.2406 1.4937 0 2.7104 1.9043 2.7104 4.2406 0 2.3376-1.2167 4.2419-2.7104 4.2419zm0-9.5888c-2.1131 0-3.8352 2.401-3.8352 5.3469 0 2.9458 1.7224 5.3487 3.8352 5.3487 2.1121 0 3.8369-2.4029 3.8369-5.3487.0016-2.9445-1.7248-5.3469-3.8369-5.3469z"/>
		<path d="M34.4004 33.536l-.1365-.6134c-.0162-.097-.0323-.1922-.0447-.2857v6.4588h10.5733v-6.4268c-.1333.716-.3421 1.6016-.6625 2.2981l-.2825.5241c-.4301.6889-.8907 1.2321-1.5296 1.7471l-.4879.3279c-.4572.2529-.8727.4171-1.3818.5448-.3155.0556-.6028.0865-.9216.097-.4268-.0142-.7956-.0661-1.2114-.1707-.2916-.0938-.5564-.1986-.8332-.3279-.6295-.3494-1.1088-.7391-1.5912-1.2673l-.3621-.4604c-.53-.7749-.8722-1.5474-1.1283-2.4456zM30.573 22.1049c-.0118.0951-.0271.1903-.0451.2878l-.1371.6112c-.2535.9005-.597 1.6721-1.1281 2.4478l-.3623.4594c-.4102.4478-.8149.7948-1.3337 1.1224-.2639.1457-.522.268-.8042.3817-.6249.1978-1.152.2736-1.8086.2497l-.6061-.0842c-.5131-.1279-.9289-.2937-1.388-.5472-.2524-.1583-.4806-.3241-.7128-.5091-.6894-.619-1.1662-1.271-1.5839-2.0911-.3338-.7671-.5142-1.4904-.6631-2.3182v15.9314l10.573-12.9904v-2.9512z"/>
		<path d="M25.2659 25.0215c-1.4922 0-2.7109-1.9035-2.7109-4.2394 0-2.3363 1.2187-4.2441 2.7109-4.2441 1.4902 0 2.7045 1.9081 2.7045 4.2441 0 2.3359-1.2143 4.2394-2.7045 4.2394zm0-9.5865c-2.1131 0-3.8371 2.4004-3.8371 5.3468 0 2.9442 1.724 5.345 3.8371 5.345 2.1108 0 3.8331-2.401 3.8331-5.345 0-2.9461-1.7223-5.3468-3.8331-5.3468zM30.573 31.5209l-6.1661 7.575h6.1661v-7.575zM44.4865 13h-2.9714L20.3182 39.0959h2.9276L44.4865 13zM33.3082 37.2996h-1.8138v1.7963h1.8138v-1.7963z"/>
		<path d="M45.7069 37.2996v1.7963c1.2394 0 2.2465.9934 2.2465 2.2185 0 1.2259-1.0071 2.2193-2.2465 2.2193-.9125 0-1.7462-.2045-3.4785-.63-3.3566-.8222-7.4891-1.8371-10.7988-2.6488-5.9481-1.4579-11.4049.1959-11.4278 4.0602h1.8132c0-1.4367 2.7827-2.39 8.7418-.9303 5.1542 1.2646 7.0926 1.7401 10.9744 2.6921 2.5628.6282 4.6636.4768 6.1733-.2427l.0057.0057c1.5097-.733 2.5477-2.268 2.5477-4.0401.0003-2.4865-2.0387-4.5002-4.551-4.5002zM113.51 32.6193h-5.316v2.4857h5.316v-2.4857zM136.542 30.9691h-5.023v-4.9096h-2.818v13.0364h2.818v-5.6514h5.023v5.6514h2.817V26.0595h-2.817v4.9096zm-18.773 3.2958v-8.2056h-2.817v13.0364h2.164l6.552-8.2433v8.2433h2.817V26.0593h-2.194l-6.522 8.2056zm49.602-8.4911c-1.837-.0008-3.469.4879-4.779 1.7218-1.117 1.0356-2.091 2.7405-2.091 5.0921-.003 1.8984.59 3.5406 2.09 4.9759 1.085 1.0319 2.496 1.821 4.761 1.8178 1.399 0 2.44-.3513 3.22-.7615l.091-.0486v-3.4638l-.301.3564c-.713.8397-1.71 1.328-2.838 1.3291-1.026 0-2.061-.3674-2.835-1.0686-.774-.7026-1.294-1.735-1.295-3.0986 0-1.1299.4-2.198 1.104-2.9799.702-.7819 1.703-1.2816 2.93-1.2826.436.0008 1.821.0892 2.935 1.3686l.301.3459v-3.4536l-.089-.0486c-1.19-.6445-2.291-.8018-3.204-.8018zm-63.366 5.7828c-.478.3591-1.035.3648-1.512.3642h-.838v-3.3869h.685c.583-.0008 1.19.0428 1.649.3669.326.2419.633.6623.633 1.3074.002.5055-.209 1.0256-.617 1.3484zm2.159-4.484c-.484-.4255-.994-.6833-1.559-.8287-.566-.1467-1.184-.1844-1.904-.1844h-3.8635v13.0364h2.8175v-4.7004h1.427c1.496.0008 2.596-.4309 3.337-1.1732 1.024-1.0297 1.096-2.4457 1.097-2.9566 0-.9442-.275-2.2349-1.351-3.1923l-.001-.0008zm65.31-1.0131v2.4747h2.855v10.562h2.818v-10.562H180v-2.4747h-8.526zM68.2371 39.0959h7.3847v-2.4746h-4.5679V33.501h4.3776v-2.4747h-4.3776v-2.4924h4.5679v-2.4746h-7.3847v13.0366zm79.2049-3.2858c-.107.2317-.277.4437-.55.6074-.498.2943-1.154.3191-1.606.3177h-.894v-3.1579h.742c.532-.0013 1.137.0046 1.621.2315l.007.0032-.005-.0024c.365.1661.564.394.683.6292.117.2346.148.48.148.6609 0 .2277-.039.479-.146.7104zm-3.05-7.3901h.551c.481 0 .922.1059 1.229.3316.306.2264.5.5588.503 1.0959 0 .3771-.088.6461-.219.8466-.195.3002-.499.4604-.803.5465-.301.0846-.591.0905-.729.0905h-.532V28.42zm3.786 3.6508c.168-.1247.359-.2911.54-.5187.335-.4199.623-1.0389.622-1.8957-.001-1.112-.454-2.1508-1.247-2.762-1.089-.8429-2.5-.8324-3.207-.8351h-3.312v13.0364h4.435c1.121.0008 2.333-.1936 3.329-1.0701.926-.8259 1.143-1.9274 1.143-2.698-.001-.6897-.155-1.7301-.968-2.5034-.28-.2653-.7-.5763-1.335-.7534zm3.831 7.0251h7.385v-2.4746h-4.568V33.501h4.377v-2.4747h-4.377v-2.4924h4.568v-2.4746h-7.385v13.0366zM65.5361 26.0595h-2.8176v10.562h-4.6806v-10.562h-2.8171v13.0364h9.2109v2.8545h2.6262v-5.3291h-1.5218V26.0595zm19.7613 4.9096h-5.0235v-4.9096h-2.8171v13.0364h2.8171v-5.6514h5.0235v5.6514h2.8171V26.0595h-2.8171v4.9096zm3.9153-2.4352h2.8553v10.562h2.8168v-10.562h2.8544v-2.4746h-8.526v2.4746h-.0005zM79.9485 16.9205h-3.9134v-3.8963h-2.3077v10.418h2.3077v-4.4857h3.9134v4.4851h2.3086V13.0242h-2.3086v3.8963zM66.5501 19.382l1.1939-2.9838 1.1681 2.9838h-2.362zm.2664-6.3578l-4.4212 10.418h2.505l.8908-2.1145h3.8336l.8907 2.1145h2.4865l-4.2983-10.418h-1.8871zm21.4487 4.8292l4.4222-4.8292H89.74l-3.4485 3.9697v-3.9697h-2.3077v10.418h2.3077v-4.3906l.0387-.0381 3.5111 4.4289h3.0477l-4.6238-5.589zM59.6989 21.011c-.2271.2156-.6462.3946-1.4068.3946l-.7639.0006v-2.3435h.7943c.7206.0005 1.1307.1774 1.3621.4004.2309.2239.3067.5137.3078.8015-.0013.2583-.0664.5312-.2935.7464zm1.6533-3.1253c-.8357-.7373-1.8654-.8591-2.6371-.8591h-1.1863v-1.9658h3.8656v-2.0363h-6.1739v10.4179h3.5092c.4469-.0005.9969-.0341 1.5428-.2128.5453-.1774 1.0885-.5053 1.4973-1.084l.0027-.0038-.0019.0027c.3667-.5265.5895-1.1799.5895-1.896.0011-.9966-.3975-1.8177-1.0079-2.3628z"/>
	</g>
</svg>
