<svg viewBox="0 0 200 50" xmlns="http://www.w3.org/2000/svg">
	<path fill="#F27007" d="M62.9671.923763c-1.6342.314237-2.954 1.960417-2.6456 3.890077-4.3961-1.54466-10.0285-1.25106-13.9673-.49874-.8833.17313-1.6832.36226-2.3691.5653-.1979.05813-.1979.25105-.0245.28728 6.0502 1.39007 8.381 4.50466 13.0785 5.27172-3.3418 4.6559-3.2009 10.5123-2.7836 11.9129.0815.3374 1.6346 2.4082 2.5612 3.2359.1031.088.2419.1188.3658.0952.1763-.0333.3338-.1757.3284-.3661-.111-5.4166.5446-8.9486 2.2444-9.5641 1.0867-.3909 1.5993-.5374 1.9135-.6406 4.5566-1.4369 4.1962-6.97818 4.1363-8.9803-.0865-3.26076 1.5152-4.14408 2.8567-4.39935L75.2973.462513c.5912-.11289.9216-.04465 1.0979-.077507l.0461-.040017C76.4164.191661 76.2056.00758218 75.7496 0h-.0574c-.1263.00210616-.2702.0168493-.4327.0484417L68.402 1.35974c-.9137.17481-1.6674.22157-1.8865.16091-.4477-.12763-2.0847-.873637-3.5484-.596887z"/>
	<path fill="#686867" d="M170 45.681h-.742v-1.8692h-.937l-1.041 1.8692h-.841l1.09-1.8955c-.408-.0809-.991-.4908-.991-1.2463 0-.8376.599-1.2925 1.591-1.2925H170v4.4343zm-.742-3.8151h-1.154c-.539 0-.825.2375-.825.6792.001.4604.286.6793.825.6793h1.154v-1.3585zm-6.556-.6192h-.736v4.4343h.772l2.159-3.3192h.011v3.3192h.745v-4.4343h-.776l-2.152 3.3188h-.023v-3.3188zm-4.61 0h-.739v4.4343h.739v-2.0272h2.053v2.0272h.739v-4.4343h-.739v1.7867h-2.053v-1.7867zm-5.429 1.3488c0-1.0642.724-1.4758 1.811-1.4758.351 0 1.627.1029 1.627 1.2421v2.5286c0 .1871.096.2795.247.2795.063 0 .153-.0166.235-.0318v.5442c-.121.0321-.232.0808-.397.0808-.654 0-.748-.343-.781-.6771-.29.3108-.728.7203-1.591.7203-.802 0-1.369-.5102-1.369-1.2835 0-.5251.131-1.3073 1.681-1.4229 1.154-.0944 1.238-.1842 1.238-.6458 0-.4853-.328-.7132-1.026-.7132-.842 0-.951.5197-.995.8546h-.68zm2.701.8224c-.117.0928-.298.1571-1.216.2761-.366.0508-.948.1538-.948.7119 0 .4845.258.7809.809.7809.689 0 1.355-.4447 1.355-1.0413v-.7276zm-7.215-2.1712h2.003c.972 0 1.436.5201 1.436 1.1354 0 .523-.357.8423-.738.9507.463.111.998.412.998 1.1726 0 .7072-.568 1.1756-1.614 1.1756h-2.085v-4.4343zm.746 1.835h1.071c.641 0 .884-.1859.884-.6691 0-.3519-.219-.5467-.868-.5467h-1.087v1.2158zm0 1.9806h1.32c.572 0 .89-.1965.89-.6899 0-.4785-.364-.7046-.964-.7046h-1.246v1.3945zm-3.619-3.9426c1.405 0 2.037 1.2001 2.037 2.3385.001 1.1408-.632 2.3481-2.037 2.3481-1.408 0-2.037-1.2073-2.037-2.3481 0-1.1384.629-2.3385 2.037-2.3385zm0 4.0421c1.057 0 1.279-1.1053 1.279-1.7036 0-.5942-.222-1.691-1.279-1.691-1.054 0-1.282 1.0968-1.282 1.691 0 .5983.228 1.7036 1.282 1.7036zm-6.478-3.9151h.69v.6276c.244-.3574.564-.7546 1.334-.7546 1.162 0 1.818.9592 1.818 2.214 0 1.0586-.413 2.4726-1.912 2.4726-.588 0-.985-.2833-1.191-.6445v2.2677h-.739v-6.1828zm.739 2.2059c0 .9647.379 1.7092 1.181 1.7092.469 0 1.167-.3193 1.167-1.5004 0-.7284-.079-1.8684-1.14-1.8684-1.145-.0004-1.208 1.0808-1.208 1.6596zm-4.76-2.2059h-.742v4.4343h.769l2.158-3.3192h.017v3.3192h.739v-4.4343h-.775l-2.153 3.3188h-.013v-3.3188zm-1.474 1.4928c-.063-.7711-.493-1.6198-1.649-1.6198-1.447 0-2.101 1.0989-2.101 2.4668 0 1.2793.732 2.2198 1.959 2.2198 1.292 0 1.714-.9909 1.791-1.6918h-.715c-.124.6789-.55 1.0473-1.049 1.0473-1.013 0-1.197-.9384-1.197-1.7036 0-.786.29-1.6656 1.208-1.6652.619 0 .942.3524 1.038.9465h.715zm-7.385-1.4928h-.739v4.4343h.739v-2.0272h2.052v2.0272h.739v-4.4343h-.739v1.7867h-2.052v-1.7867zm-5.432 1.3488c0-1.0642.729-1.4758 1.817-1.4758.35 0 1.627.1029 1.627 1.2421v2.5286c0 .1871.093.2795.24.2795.068 0 .16-.0166.244-.0318v.5442c-.128.0321-.235.0808-.405.0808-.655 0-.745-.343-.778-.6771-.293.3108-.731.7203-1.589.7203-.805 0-1.372-.5102-1.372-1.2835 0-.5251.134-1.3073 1.682-1.4229 1.156-.0944 1.235-.1842 1.235-.6458 0-.4853-.323-.7132-1.021-.7132-.839 0-.952.5197-1.001.8546h-.679zm2.701.8224c-.115.0928-.296.1571-1.208.2761-.367.0508-.951.1538-.951.7119 0 .4845.258.7809.806.7809.69 0 1.353-.4447 1.353-1.0413v-.7276zm-6.552-2.1712h-.739v4.4343h.739v-2.0272h2.057v2.0272h.737v-4.4343h-.737v1.7867h-2.057v-1.7867zm-4.761 0h-.744v4.4343h.777l2.153-3.3192h.017v3.3192h.74v-4.4343h-.776l-2.151 3.3188h-.016v-3.3188zm-4.369-1.021c1.89 0 2.805 1.1743 2.805 2.4156 0 1.2382-.907 2.4125-2.805 2.4125v.6272h-.805v-.6272c-1.896 0-2.799-1.1743-2.799-2.4125 0-1.2413.912-2.4156 2.799-2.4156v-.6288h.805v.6288zm-.805 4.1802v-3.536c-1.128 0-1.964.52-1.964 1.7714 0 1.248.836 1.7646 1.964 1.7646zm.805-3.536v3.536c1.135 0 1.964-.5166 1.964-1.7646 0-1.2514-.829-1.7714-1.964-1.7714zm57.77-8.9054c1.402 0 2.037 1.1997 2.037 2.3423.001 1.137-.635 2.3448-2.037 2.3448-1.403 0-2.035-1.2078-2.035-2.3448 0-1.1426.632-2.3423 2.035-2.3423zm0 4.0421c1.055 0 1.285-1.1065 1.285-1.6998 0-.5984-.23-1.6977-1.285-1.6977-1.057 0-1.28 1.0993-1.28 1.6977.001.5933.223 1.6998 1.28 1.6998zm-5.281-3.9121v4.4309h.742v-3.8109h2.12v-.62h-2.862zm-2.877-.13c1.406 0 2.041 1.1997 2.041 2.3423 0 1.137-.635 2.3448-2.041 2.3448-1.405 0-2.035-1.2078-2.035-2.3448 0-1.1426.63-2.3423 2.035-2.3423zm0 4.0421c1.058 0 1.28-1.1065 1.28-1.6998 0-.5984-.222-1.6977-1.28-1.6977-1.055 0-1.278 1.0993-1.278 1.6977 0 .5933.223 1.6998 1.278 1.6998zm-5.672-3.9121h-.74v4.4309h.74v-2.0302h2.051v2.0302h.748v-4.4309h-.748v1.7808h-2.051v-1.7808zm-5.274 0h1.997c.976 0 1.441.5158 1.441 1.129 0 .529-.356.8444-.742.9567.469.1058 1 .409 1 1.17 0 .7068-.567 1.1752-1.613 1.1752h-2.083v-4.4309zm.743 1.829h1.074c.638 0 .879-.1821.879-.6665 0-.3507-.216-.5425-.865-.5425h-1.088v1.209zm0 1.9853h1.323c.572 0 .888-.1965.888-.6911 0-.4781-.368-.7047-.965-.7047h-1.246v1.3958zm-4.766-3.8143h-.74v4.4309h.775l2.154-3.3214h.016v3.3214h.739v-4.4309h-.772l-2.153 3.3159h-.019v-3.3159zm-5.021 0v.62h1.446v3.8109h.743v-3.8109h1.446v-.62h-3.635zm-4.202 1.3492c0-1.0663.723-1.4783 1.816-1.4783.348 0 1.63.1016 1.63 1.2399v2.5316c0 .1859.087.2795.24.2795.067 0 .157-.0195.242-.0365v.5455c-.126.0292-.233.083-.4.083-.657 0-.751-.3435-.78-.6763-.291.3091-.735.7195-1.59.7195-.805 0-1.373-.5103-1.373-1.2844.001-.5251.136-1.3077 1.68-1.4233 1.156-.0945 1.241-.1834 1.241-.6463 0-.484-.328-.7093-1.024-.7093-.842 0-.959.5141-1 .8554h-.682zm2.706.8165c-.118.0927-.298.1639-1.219.2774-.364.0516-.945.1516-.945.7127 0 .4866.26.7817.808.7817.691 0 1.356-.4446 1.356-1.0383v-.7335zm-7.36-2.1657h.691v.6238c.24-.3612.563-.7538 1.328-.7538 1.167 0 1.822.9562 1.822 2.2152 0 1.0583-.414 2.4719-1.912 2.4719-.592 0-.979-.2867-1.189-.645v2.2699h-.74v-6.182zm.74 2.2004c0 .9643.375 1.7117 1.183 1.7117.463 0 1.162-.321 1.162-1.5021 0-.7296-.075-1.8692-1.146-1.8692-1.144 0-1.199 1.0795-1.199 1.6596zm-3.619-2.3304c1.409 0 2.038 1.1997 2.038 2.3423 0 1.137-.629 2.3448-2.038 2.3448-1.402 0-2.038-1.2078-2.038-2.3448 0-1.1426.636-2.3423 2.038-2.3423zm0 4.0421c1.06 0 1.282-1.1065 1.282-1.6998 0-.5984-.222-1.6977-1.282-1.6977-1.054 0-1.279 1.0993-1.279 1.6977 0 .5933.225 1.6998 1.279 1.6998zm-6.412-3.9121v4.4309h.742v-3.8109h2.055v3.8109h.739v-4.4309h-3.536zm-4.677 0h.691v.6238c.239-.3612.561-.7538 1.329-.7538 1.164 0 1.819.9562 1.819 2.2152 0 1.0583-.417 2.4719-1.909 2.4719-.592 0-.987-.2867-1.195-.645v2.2699h-.735v-6.182zm.735 2.2004c0 .9643.378 1.7117 1.183 1.7117.467 0 1.165-.321 1.165-1.5021 0-.7296-.075-1.8692-1.14-1.8692-1.145 0-1.208 1.0795-1.208 1.6596zm-3.616-2.3304c1.406 0 2.038 1.1997 2.038 2.3423 0 1.137-.632 2.3448-2.038 2.3448-1.405 0-2.035-1.2078-2.035-2.3448 0-1.1426.63-2.3423 2.035-2.3423zm0 4.0421c1.06 0 1.282-1.1065 1.282-1.6998 0-.5984-.222-1.6977-1.282-1.6977-1.054 0-1.282 1.0993-1.282 1.6977 0 .5933.228 1.6998 1.282 1.6998zm-6.396-5.5641h-.81v6.0829h.81v-2.139l.948-.9113 2.115 3.0503h1.057l-2.58-3.6305 2.511-2.4524h-1.125l-2.926 2.9483v-2.9483zm14.513-7.5061h-.74v4.43h.74v-1.6732l.624-.5873 1.424 2.2605h.88l-1.778-2.7827 1.676-1.6473h-.937l-1.889 1.926v-1.926zm-4.545.0008h-.745v4.4292h.745v-2.0259h2.049v2.0259h.743v-4.4292h-.743v1.7837h-2.049v-1.7837zm-5.366 1.3471c0-1.065.723-1.475 1.811-1.475.35 0 1.629.1013 1.629 1.2413v2.5285c0 .1872.091.2783.244.2783.066 0 .159-.0161.242-.0356v.5446c-.123.0373-.234.0851-.401.0851-.657 0-.748-.343-.783-.6801-.291.3134-.732.725-1.586.725-.808 0-1.37-.5158-1.37-1.2861 0-.5281.132-1.306 1.674-1.4203 1.162-.0945 1.241-.1847 1.241-.6488 0-.4853-.323-.7119-1.024-.7119-.836 0-.954.5209-.995.855h-.682zm2.701.8216c-.118.0931-.296.1579-1.214.2744-.364.0499-.947.1529-.947.7118 0 .487.26.7809.81.7809.688 0 1.351-.4429 1.351-1.0379v-.7292zm-3.867-3.8194v.7254h-3.436v1.7871h1.967c1.312 0 1.811 1.0121 1.811 1.8595 0 .9812-.696 1.7079-1.789 1.7079h-2.799v-6.0799h4.246zm-3.436 5.3532h1.751c.67 0 1.186-.227 1.186-.9905 0-.8203-.516-1.1239-1.244-1.1239h-1.693v2.1144zM73.5641 21.151H68.157L57.3807 32.2847v-6.2269c-.1672.1275-.3613.2101-.5503.2457-.0546.011-.1261.0186-.2109.0186h-.0084c-.2685 0-.5642-.0898-.8049-.3049-.9482-.8529-2.2055-2.4867-2.663-3.2506 0-.0064 0-.0098-.008-.0106v22.9415h4.2455v-8.2409l3.4872-3.514 8.0096 11.7549h5.2974L63.8128 30.9414l9.7513-9.7904zm14.0518 6.0998V39.217c3.7284-.4476 6.2318-1.898 6.2318-5.8965.0004-4.0002-2.5395-5.6911-6.2318-6.0697zm-4.2757 0c-3.6922.3786-6.2263 2.0695-6.2263 6.0697 0 3.9985 2.4979 5.4489 6.2263 5.8965V27.2508zm4.2757 15.6924v2.7543h-4.2757v-2.7543c-5.1991-.1097-10.502-3.2117-10.502-9.6227 0-6.2408 4.9248-9.6214 10.502-9.7963V21.151h4.2757v2.3732c5.6756.2079 10.5025 3.5555 10.5025 9.7963 0 6.411-5.2676 9.513-10.5025 9.6227zm-46.2922-8.9015h-7.0479v8.1384h7.1164c2.805 0 4.2073-1.3416 4.2073-3.9955 0-2.5887-1.6048-4.1429-4.2758-4.1429zm.2407 11.6558H30V21.151h17.923v3.7211H34.2758v5.6543h7.2886c5.3365 0 8.3113 2.7255 8.3113 7.5506 0 4.8662-3.0079 7.6209-8.3113 7.6205z"/>
</svg>
