<svg viewBox="0 0 200 50" xmlns="http://www.w3.org/2000/svg">
	<path fill="#C5AF62" d="M0 14h22.4719v22.4719H0V14Zm26.4043 20.7861H200v1.6854H26.4043v-1.6854Z"/>
	<path fill="#fff" d="M13.3843 15.8457v9.0315c0 .6635.5382 1.2017 1.2017 1.2017s1.2017-.5382 1.2017-1.2017v-5.1023c1.5287 1.2955 2.4994 3.2298 2.4994 5.3911 0 3.9022-3.1634 7.0657-7.0657 7.0657-3.90223 0-7.06571-3.1641-7.06571-7.0663 0-2.1152.93034-4.0118 2.40337-5.3056v5.0174c0 .6635.5382 1.2017 1.20168 1.2017.66349 0 1.20169-.5382 1.20169-1.2017v-9.0079c-4.1927 1.0152-7.30618 4.7916-7.30618 9.2961 0 5.2826 4.28258 9.5652 9.56515 9.5652 5.2826 0 9.5652-4.2826 9.5652-9.5652 0-4.5388-3.1612-8.3393-7.4023-9.3197Zm-2.4033-.1494c-.5309 0-.9613.4303-.9613.9612v8.2197c0 .6635.5382 1.2017 1.2017 1.2017s1.2017-.5382 1.2017-1.2017v-9.1809H10.981Zm.2404 1.3938c-.2123 0-.3843-.1719-.3843-.3843 0-.2123.172-.3842.3843-.3842.2124 0 .3843.1719.3843.3842 0 .2124-.1719.3843-.3843.3843Z"/>
	<path fill="#000" d="M28.3891 17.848v4.2135c0 2.2197.7809 2.4455 2.6534 2.4455.736 0 1.5388-.0618 2.1185-.123v-6.536h1.9843v14.3866H33.161v-6.268c-.8472.123-1.4943.1646-2.4084.1646-2.4972 0-4.3483-.3084-4.3483-3.7613V17.848h1.9848Zm17.4129 6.145v1.6241h-6.2213v4.9944h7.0466v1.6236h-9.0314V17.848h8.8303v1.6236h-6.8455v4.5214h6.2213Zm2.7944 6.4949c1.0478.4107 2.7871.0203 2.7871-6.4533V17.848h7.8494v14.3866h-1.9842v-12.763h-3.8804v4.9736c0 4.5219-.8921 8.5703-4.7719 7.7686v-1.7259Zm17.8012-3.9674-2.8989 5.7141h-2.3191l3.2331-5.9191c-1.7393-.2467-3.2556-1.5618-3.2556-4.1725 0-3.7607 2.6983-4.2955 4.5045-4.2955h5.0393V32.234h-1.9842v-5.7135h-2.3191Zm-.6023-7.0489c-1.8506 0-2.6315 1.254-2.6315 2.6922 0 2.096 1.2933 2.7337 2.8545 2.7337h2.6984v-5.4259h-2.9214Zm9.1961 4.3163h3.2112c1.3601 0 4.3933.2264 4.3933 4.2747 0 1.8911-.8028 4.1725-4.3708 4.1725h-5.218V17.848h8.8079v1.6236h-6.8236v4.3163Zm0 6.8236h2.8988c.959 0 2.6984-.1854 2.6984-2.5281 0-2.4455-1.695-2.6719-2.6984-2.6719h-2.8988v5.2ZM92.1835 17.848h1.9624v14.3866H92.161V21.2598l-5.9758 10.9748h-1.9399V17.848h1.9843v10.8927l5.9539-10.8927ZM98.67 32.2351h-1.9842V17.848H98.67v6.0012h5.575V17.848h1.985v14.3866h-1.985v-6.7613H98.67v6.7618Zm15.156-14.4286c2.698 0 3.969 1.5 3.969 3.6584 0 1.4185-.825 2.7129-2.319 3.0624v.1028c1.115.1848 2.81.9865 2.81 3.5556 0 2.5483-1.427 4.0078-4.638 4.0078h-4.996v-14.387h5.174Zm-3.189 6.1039h2.765c1.65 0 2.364-.8017 2.364-2.2405 0-.9865-.335-2.2404-2.297-2.2404h-2.832v4.4809Zm0 6.659h2.877c1.182 0 2.764-.2264 2.764-2.5489 0-1.7674-.869-2.4865-2.764-2.4865h-2.877v5.0354Zm17.94-6.5764v1.6241h-6.221v4.9944h7.046v1.6236h-9.031V17.848h8.83v1.6236h-6.845v4.5214h6.221Zm13.622 3.473c-.223 2.0348-1.204 5.2-5.218 5.2-4.304 0-5.82-3.6786-5.82-7.3781 0-1.7882.178-7.8719 5.775-7.8719 2.119 0 4.817.8225 5.107 4.8708h-1.984c-.134-1.3152-.714-3.2472-3.122-3.2472-3.612 0-3.701 4.9118-3.701 6.1657 0 4.0899 1.851 5.8366 3.813 5.8366 1.895 0 3.055-1.7057 3.166-3.5759h1.984Zm1.101-7.9944V17.848h9.655v1.6236h-3.835v12.763h-1.985v-12.763H143.3Zm13.599 4.3163h3.211c1.361 0 4.393.2264 4.393 4.2747 0 1.8911-.803 4.1725-4.37 4.1725h-5.219V17.848h8.809v1.6236h-6.824v4.3163Zm0 6.8236h2.899c.959 0 2.698-.1854 2.698-2.5281 0-2.4455-1.695-2.6719-2.698-2.6719h-2.899v5.2Zm10.827 1.6236h-2.074l4.482-14.3865h2.096l4.482 14.3865h-2.074l-1.115-3.7196h-4.682l-1.115 3.7196Zm5.352-5.3438-1.896-6.4534-1.895 6.4534h3.791Zm6.989 5.3438h-1.985V17.848h1.985v6.0012h5.575V17.848h1.985v14.3866h-1.985v-6.7613h-5.575v6.7618Zm17.324-14.3871h2.23l-5.641 6.659 6.02 7.7281h-2.386l-5.218-7.0286v7.0286h-1.984V17.848h1.984v6.1248l4.995-6.1248Z"/>
</svg>