<svg xmlns="http://www.w3.org/2000/svg" viewBox="0 0 200 50">
	<path fill="#fff" d="M89.8836 25.716c0 6.4072-5.2172 11.716-11.716 11.716-6.4987 0-11.7159-5.2173-11.7159-11.716 0-6.4987 5.2172-11.716 11.7159-11.716 6.4988 0 11.716 5.2173 11.716 11.716z"/>
	<g fill="#005BAA">
		<path d="M2.37981 25.899c-.09153-.183 0-.4576 0-.5491.09153-.1831.18306-.3662.36612-.4577 0 0 1.09838-.4577 2.01369-1.9221 1.09837-1.7391 2.56287-3.4782 5.94948-3.4782v.8237s0 .7323-.6407.8238c-.82375.0916-2.56285.7323-3.56969 2.6544-.82378 1.4645-1.92215 1.7391-1.92215 1.7391l6.22414 6.4987c-1.46452 0-2.37983-.0915-2.65443-.183-.36612-.0916-.82378-.4577-1.4645-1.1899l-4.1189-4.5766c-.09153.0915-.18306 0-.18306-.1831zm19.03849 1.19c0 3.4781-1.4645 5.2172-4.302 5.2172-1.7391 0-2.8374-.4576-3.3866-1.3729v5.1257c-1.0069 0-1.6476-.0915-1.8307-.1831-.183-.0915-.2745-.6407-.2745-1.4645V22.0547c.8237 0 1.2814.0916 1.3729.1831.0916.0915.1831.5492.1831 1.2814.6407-1.0068 1.9221-1.556 3.8443-1.556 2.929-.0915 4.3935 1.6476 4.3935 5.1258zm-2.1052 0c0-1.0984-.1831-2.0137-.5492-2.4714-.4577-.6407-1.1899-.9153-2.2883-.9153-1.373 0-2.1967.1831-2.4713.4577-.2746.2745-.3662 1.2814-.3662 3.0205 0 1.0984.1831 1.9221.4577 2.4713.4577.6407 1.1899 1.0069 2.2883 1.0069 1.3729 0 2.1967-.1831 2.4713-.4577.3661-.3661.4577-1.373.4577-3.112zm12.5397-.8238c0 .8238-.0915 1.3729-.2746 1.4645-.183.0915-.8237.183-1.9221.183h-5.3088c0 .7323.2746 1.373.7322 1.8307.4577.4576 1.1899.7322 2.1053.7322h2.1967c.8238 0 1.2814.0915 1.4645.1831.1831.0915.1831.6407.1831 1.4645h-3.7528c-3.2951 0-5.0342-1.7391-5.0342-5.1258 0-3.3866 1.6475-5.1257 5.0342-5.1257 1.4645 0 2.5629.4576 3.3866 1.2814.8238.8238 1.1899 1.8306 1.1899 3.1121zm-2.1967 0c0-1.8307-.8238-2.746-2.5629-2.746-1.3729 0-2.1052.0916-2.3798.3662-.2746.2746-.3661 1.0068-.3661 2.3798h5.3088zm13.0889 5.858v.5492c0 .8237-.0915 1.3729-.2745 1.4645-.1831.183-.8238.183-1.8307.183v-2.2883h-6.4987v2.2883c-1.0068 0-1.6475-.0915-1.8306-.183-.1831-.0916-.2746-.6408-.2746-1.4645v-.5492c0-.9153.0915-1.373.1831-1.4645.0915-.0916.3661-.1831.8237-.1831 1.2815-1.2814 1.6476-4.7596 1.7391-6.7733v-.1831c0-.7322.0916-1.0983.1831-1.2814.0915-.1831.6407-.1831 1.4645-.1831h3.4782c.8238 0 1.2814.0916 1.4645.1831.183.0915.183.4577.183 1.2814v6.9564c.4577 0 .8238.0915.9154.1831.183.183.2745.6407.2745 1.4645zm-3.2035-2.2883v-6.1326h-2.929c0 .6407-.0916 1.7391-.1831 2.929-.1831 1.1899-.4577 2.6544-1.0984 3.8443h3.4782c.5492 0 .6407-.2746.6407-.4577l.0916-.183zM2.19675 32.2147c-1.09838 0-1.739094-.0915-1.922157-.1831C.0915312 31.8486 0 31.3909 0 30.4756V19.5834c1.09837 0 1.73909.0915 1.92215.1831.18307.183.2746.6407.2746 1.4645v10.9837zm41.55515-.0915v-10.16c1.0984 0 1.7391.0915 1.9221.1831.1831.0915.2746.5492.2746 1.2814v5.9495l3.7528-6.1326c.4577-.6407.7323-1.0068 1.0069-1.0983.183-.0916.7322-.1831 1.556-.1831h1.0984v8.4209c0 .9153-.0916 1.3729-.2746 1.556-.1831.1831-.8238.1831-1.9222.1831v-7.5056l-3.7528 6.1326c-.4576.7322-.8237 1.0984-1.0068 1.1899-.1831.0915-.7323.1831-1.4645.1831h-1.1899zm19.9538-10.16c0 .9153-.0916 1.4645-.1831 1.556-.0915.1831-.6407.1831-1.4645.1831H60.136v8.3293c-1.0069 0-1.6476-.0915-1.8307-.183-.183-.1831-.2746-.6407-.2746-1.5561v-6.5902h-3.6612c0-.9153.0915-1.4645.1831-1.556.0915-.1831.5491-.1831 1.3729-.1831h7.7802z"/>
		<path d="M111.485 29.1026c0-.8237-.549-1.3729-2.014-1.3729h-4.119v2.7459h4.119c1.099 0 1.739-.0915 1.831-.1831 0 0 .183-.3661.183-1.1899zm-2.197-5.5834h-4.027v2.5629h4.119c1.007 0 1.464-.0915 1.556-.1831.091-.0915.183-.3661.183-1.0983.091-.8238-.458-1.2815-1.831-1.2815zm-4.21 8.604c-.824 0-1.282-.0916-1.465-.1831-.091-.0915-.183-.5492-.183-1.2814v-7.3225c0-.7323.092-1.1899.183-1.2815.183-.0915.641-.183 1.465-.183h4.21c2.563 0 3.844.9153 3.844 2.6544 0 1.0984-.366 1.8306-1.189 2.1052l-.183.0915.183.0916c.457.183.823.4576 1.098.9153.275.4576.458.9153.458 1.4645 0 2.0137-1.373 3.0205-4.028 3.0205-.183-.0915-4.393-.0915-4.393-.0915zm19.221-5.1258c0 3.4782-1.373 5.2173-4.302 5.2173-1.739 0-2.837-.4577-3.386-1.373v5.1258c-1.007 0-1.648-.0916-1.831-.1831-.183-.0915-.275-.6407-.275-1.4645V21.9632c.824 0 1.282.0915 1.373.1831.092.0915.183.5492.183 1.2814.641-1.0068 1.923-1.556 3.845-1.556 3.02-.0916 4.393 1.6475 4.393 5.1257zm-2.105 0c0-1.0984-.183-2.0137-.549-2.4713-.458-.6407-1.19-.9153-2.197-.9153-1.373 0-2.197.183-2.471.4576-.275.2746-.366 1.2815-.366 3.0206 0 1.0983.183 1.9221.457 2.4713.458.6407 1.19 1.0068 2.289 1.0068 1.373 0 2.196-.183 2.471-.4576.275-.3661.366-1.373.366-3.1121zm13.272 0c0 3.4782-1.647 5.1258-5.034 5.1258-3.295 0-4.943-1.7391-4.943-5.1258 0-3.3866 1.648-5.1257 5.034-5.1257 3.296 0 4.943 1.6475 4.943 5.1257zm-2.105 0c0-1.0984-.183-1.9221-.549-2.3798-.458-.6407-1.19-1.0068-2.289-1.0068-1.464 0-2.288.183-2.471.4576-.275.2746-.366 1.2815-.366 3.0206 0 2.2882.915 3.4781 2.837 3.4781 1.465 0 2.289-.183 2.472-.4576.183-.3661.366-1.373.366-3.1121zm12.357 4.7596c-.183.1831-.824.1831-1.923.1831v-7.9632h-5.034v7.9632c-1.098 0-1.739-.0915-1.922-.1831-.183-.183-.275-.6407-.275-1.556v-6.4072c0-1.0068.092-1.556.184-1.7391.183-.183.64-.2746 1.556-.2746h5.858c.915 0 1.373.0916 1.556.2746.183.1831.183.7323.183 1.7391v6.4072c.091.9153 0 1.4645-.183 1.556zm10.8.2746c-.824 0-1.281-.0915-1.373-.183-.091-.0916-.183-.5492-.183-1.373-.274.4577-.732.8238-1.373 1.0984-.732.3661-1.556.5492-2.563.5492-1.19 0-2.105-.2746-2.746-.7323-.732-.5492-1.189-1.2814-1.189-2.2883 0-1.0068.366-1.8306 1.006-2.3798.733-.6407 1.831-.9153 3.204-.9153h3.204c0-.7322-.183-1.2814-.641-1.556-.458-.2746-1.099-.4577-2.105-.4577h-2.197c-.732 0-1.19-.0915-1.373-.183-.092-.1831-.183-.6407-.183-1.4645h3.57c1.922 0 3.203.3661 3.935 1.1899.641.6407.916 1.6475.916 3.112l.091 5.5834zm-2.105-4.3019v-.2746h-2.837c-1.19 0-1.831.0915-2.014.183-.183.0916-.275.6408-.275 1.4645 0 1.0069.733 1.4645 2.289 1.4645 1.464 0 2.288-.0915 2.562-.3661.184-.2746.275-1.0984.275-2.4713zm-52.356 4.3935h-6.6815c-1.0984 0-1.7391-.0916-1.9222-.1831-.1831-.1831-.2746-.6407-.2746-1.556V21.231c0-.9154.0915-1.4645.2746-1.5561.1831-.183.8238-.183 1.9222-.183h4.8515c.915 0 1.373.0915 1.556.183.183.1831.183.6407.183 1.5561h-6.6821v3.4781h4.302c.9151 0 1.3731.0916 1.5561.1831.183.1831.183.6407.183 1.556h-6.0411v3.7528h4.7601c1.006 0 1.556.0915 1.647.1831.275.3661.366.8238.366 1.7391z"/>	
	</g>
	<g fill="#ED1C24">
		<path d="M72.8589 25.716l5.4004 5.4004 5.4003-5.4004-5.4003-5.4003-5.4004 5.4003zm-5.4918 0c0-6.041 4.8511-10.8922 10.8922-10.8922 6.041 0 10.8922 4.8512 10.8922 10.8922 0 6.0411-4.8512 10.8922-10.8922 10.8922-6.0411-.0915-10.8922-4.9427-10.8922-10.8922z"/>
		<path d="M192.948 32.1232c-1.099 0-1.739-.0915-1.923-.1831-.183-.183-.274-.6407-.274-1.556v-8.6039c1.098 0 1.739.0915 1.922.183.183.0916.275.6407.275 1.373v8.787zm7.048-.0915c-1.19 0-2.106 0-2.38-.0916-.275-.0915-.641-.3661-1.19-.9153l-3.204-3.6612c-.091-.1831-.183-.3662-.183-.5492 0 0 0-.5492.366-.7323 0 0 1.007-.4576 1.831-1.6475.915-1.373 2.014-2.5629 4.76-2.5629v.8238s.091.8238-.55.9153c-.64.0915-1.556.2746-2.837 2.0137-.732 1.0068-1.19 1.1899-1.19 1.1899l4.577 5.2173zm-21.51 0c-.824 0-1.282-.0916-1.373-.1831-.092-.0915-.183-.5492-.183-1.373-.275.4577-.733.8238-1.373 1.0984-.733.3661-1.556.5492-2.563.5492-1.19 0-2.105-.2746-2.746-.7323-.732-.5491-1.19-1.2814-1.19-2.2882 0-1.0069.366-1.8307 1.007-2.3798.732-.6408 1.83-.9154 3.203-.9154h3.204c0-.7322-.183-1.2814-.641-1.556-.457-.2746-1.098-.4576-2.105-.4576h-2.105c-.732 0-1.19-.0916-1.373-.1831-.092-.1831-.183-.6407-.183-1.4645h3.57c1.922 0 3.203.3661 3.935 1.1899.641.6407.916 1.6476.916 3.1121v5.5834zm-2.014-4.302v-.2746h-2.837c-1.19 0-1.831.0915-2.014.1831-.183.0915-.275.6407-.275 1.4645 0 1.0068.733 1.4645 2.289 1.4645 1.464 0 2.288-.0916 2.562-.3662.092-.2746.275-1.0983.275-2.4713zm-8.878-1.4645c.091.0915.091.1831.183.2746l.091.1831c0-.1831-.091-.2746-.274-.4577zm.732 2.1052c0 2.4714-1.648 3.6613-5.034 3.6613h-2.929c-1.007 0-1.648-.0916-1.831-.1831-.183-.1831-.275-.6407-.275-1.556v-9.1531c0-.9154.092-1.373.275-1.5561.183-.183.824-.183 1.831-.183h7.231s-.092 1.0068-.184 1.2814c-.091.2746-.183.4577-.823.4577h-6.133v3.5697h3.295c2.288 0 3.387 1.0068 3.845 1.556.183.1831.274.3661.274.4577.275.5491.458 1.0068.458 1.6475zm-2.289 0c0-1.2814-.915-1.8306-2.654-1.8306h-2.929v3.8443h2.929c1.373 0 2.197-.0915 2.38-.2746.183-.2746.274-.8238.274-1.7391zm23.249 3.6613c-1.098 0-1.739-.0916-1.922-.1831-.183-.1831-.274-.6407-.274-1.556v-2.746h-5.035v4.5766c-1.098 0-1.739-.0915-1.922-.1831-.183-.183-.274-.6407-.274-1.556v-8.5124c1.098 0 1.739.0915 1.922.1831.183.183.274.6407.274 1.556v2.1052h5.035v-3.8443c1.098 0 1.739.0915 1.922.1831.183.183.274.6407.274 1.556v8.4209z"/>
	</g>
</svg>
