<svg viewBox="0 0 200 50" xmlns="http://www.w3.org/2000/svg">
	<path fill="#fff" d="M78.3898 36.14c6.39 0 11.57-5.1801 11.57-11.57S84.7798 13 78.3898 13c-6.3899 0-11.57 5.1801-11.57 11.57s5.1801 11.57 11.57 11.57Z"/>
	<path fill="#005BAA" d="M3.32 24.7697c-.04586-.1703-.04586-.3497 0-.52.03372-.0914.08854-.1736.16-.24.06711-.0822.15279-.1473.25-.19.8396-.4032 1.53701-1.0518 2-1.86.54588-1.0684 1.38776-1.9572 2.42511-2.5601 1.03734-.6029 2.22629-.8944 3.42489-.8399v.85c.0151.2014-.0455.4011-.17.56-.123.1545-.2965.2607-.49.3-.7495.1413-1.45759.4492-2.07205.901-.61447.4518-1.11956 1.0358-1.47795 1.709-.18611.399-.45277.7551-.7832 1.0459-.33043.2909-.71748.5102-1.1368.6441l6.22 6.44c-.8921.0444-1.78642.0009-2.67-.13-.55855-.2641-1.04553-.6585-1.42-1.15l-4.04-4.53c-.11358-.1149-.1902-.2611-.22-.42v-.01Zm18.85 1.24c0 3.4334-1.4067 5.1467-4.22 5.14-1.69 0-2.82-.45-3.39-1.36v5c-.6089.068-1.2254-.0073-1.8-.22-.18-.14-.24-.62-.24-1.49v-12.07c.4622-.0587.9316.0069 1.36.19.13.13.2.54.19 1.25.61-1 1.88-1.56 3.83-1.57 2.84-.0333 4.2633 1.6767 4.27 5.13Zm-2.11 0c.0604-.8598-.1123-1.7201-.5-2.49-.2625-.3323-.6042-.5934-.9938-.7594-.3896-.166-.8147-.2315-1.2362-.1906-1.4 0-2.21.15-2.46.44-.25.29-.35 1.29-.35 3-.0551.8316.1105 1.663.48 2.41.26.3483.6057.6235 1.0034.7987.3978.1752.8341.2446 1.2666.2013 1.4 0 2.21-.14 2.44-.41.3308-.9632.4502-1.9864.35-3Zm12.43-.85c0 .82-.09 1.31-.27 1.46-.601.2036-1.2395.2718-1.87.2h-5.22c-.02.341.0346.6823.16 1 .1183.3176.3063.6046.55.84.5749.4881 1.3177.7321 2.07.68h2.19c.4879-.0612.9831.015 1.43.22.199.4558.2749.9558.22 1.45H28c-3.3333 0-5-1.6933-5-5.08 0-3.3866 1.6667-5.0866 5-5.1.6161-.036 1.233.0565 1.8114.2717.5785.2152 1.1058.5484 1.5486.9783.3711.4112.6597.8899.85 1.41.1927.525.2876 1.0809.28 1.64v.03Zm-2.14 0c0-1.81-.81-2.69-2.52-2.69-.8049-.1029-1.6225.0218-2.36.36-.2467.24-.3667 1.02-.36 2.34l5.24-.01Zm12.89 5.81v.57c0 .86-.08 1.36-.24 1.49-.5801.2044-1.1978.2795-1.81.22v-2.24h-6.47v2.24c-.6089.0623-1.224-.0129-1.8-.22-.18-.15-.25-.63-.25-1.49v-.53c0-.86.08-1.34.22-1.46.2468-.1575.5379-.2311.83-.21 1.3-1.24 1.67-4.75 1.68-6.75v-.2c-.0554-.4293.0213-.8653.22-1.25.4496-.196.9423-.2718 1.43-.22h3.47c.81 0 1.28.07 1.42.22.14.15.21.55.22 1.29v6.88c.308-.0222.6153.0511.88.21.15.13.22.6.2 1.42v.03Zm-3.14-2.31v-6.09h-2.88c-.0136.9736-.087 1.9455-.22 2.91-.1393 1.3213-.501 2.6095-1.07 3.81h3.52c.51 0 .62-.28.65-.47v-.16Zm-36.95 2.35c-.63524.0697-1.278-.0056-1.88-.22-.18-.14-.27-.6566-.27-1.55v-10.7c.63306-.0608 1.2719.0038 1.88.19.18.13.27.6.27 1.39v10.89Zm41.1-.07v-10c.6297-.0554 1.2643.0091 1.87.19.18.13.27.55.27 1.3v5.88l3.75-6.1c.2505-.4342.5915-.8094 1-1.1.4904-.1401 1.0007-.1976 1.51-.17h1.12v8.32c0 .86-.09 1.37-.27 1.51-.6018.2155-1.2448.2907-1.88.22v-7.5l-3.75 6c-.2603.4615-.5986.8743-1 1.22-.4605.1516-.9468.2094-1.43.17l-1.19.06Zm19.8-10c.0646.5303-.0113 1.0683-.22 1.56-.4675.2071-.9826.2832-1.49.22h-1.88v8.29c-.6188.0631-1.2438-.012-1.83-.22-.18-.15-.26-.65-.26-1.52v-6.56h-3.59c-.0604-.5285.0082-1.0638.2-1.56.4233-.2008.895-.2771 1.36-.22l7.71.01ZM111.29 28.0096c0-.86-.58-1.34-2-1.34h-4.08v2.73h4c.611.0526 1.227-.0015 1.82-.16.18-.11.26-.44.26-1.23Zm-2.08-5.55h-4v2.55h4.08c.531.0499 1.067-.001 1.58-.15.11-.07.17-.35.17-1.11 0-.76-.53-1.31-1.83-1.31v.02Zm-4.21 8.55c-.487.0536-.981-.008-1.44-.18-.15-.12-.2-.53-.2-1.24v-7.31c0-.71.07-1.15.2-1.26.459-.1731.953-.2348 1.44-.18h4.19c2.507 0 3.763.88 3.77 2.64 0 1.11-.39 1.79-1.17 2.05l-.15.05.15.05c.443.1756.815.4918 1.06.9.283.4412.429.9561.42 1.48 0 2-1.333 3-4 3H105Zm19.1-5.09c0 3.4333-1.403 5.1467-4.21 5.14-1.7 0-2.82-.45-3.39-1.36v5c-.612.067-1.232-.0083-1.81-.22-.18-.14-.24-.62-.24-1.48v-12.14c.78 0 1.23.06 1.36.19.13.13.2.53.2 1.24.6-1 1.88-1.56 3.83-1.56 2.8 0 4.22 1.77 4.22 5.15l.04.04Zm-2.09 0c.056-.8618-.124-1.7225-.52-2.49-.259-.3314-.597-.5922-.983-.7583-.386-.166-.808-.232-1.227-.1917-1.4 0-2.23.15-2.47.44-.24.29-.35 1.3-.35 3-.063.8428.107 1.6868.49 2.44.257.349.601.6248.997.8002.397.1753.832.2442 1.263.1998 1.4 0 2.21-.13 2.44-.41.35-.9831.47-2.0334.35-3.07l.01.04Zm13.14 0c0 3.42-1.667 5.1267-5 5.12-3.333-.0067-4.977-1.7133-4.93-5.12 0-3.3933 1.667-5.09 5-5.09s4.963 1.6733 4.89 5.02l.04.07Zm-2.13 0c.053-.8288-.135-1.6551-.54-2.38-.262-.3514-.611-.6285-1.012-.8038-.402-.1754-.842-.243-1.278-.1962-1.43 0-2.25.14-2.49.43-.332.9457-.448 1.9536-.34 2.95 0 2.28.933 3.42 2.8 3.42 1.433 0 2.263-.14 2.49-.42.348-.9836.468-2.0334.35-3.07l.02.07Zm12.23 4.78c-.602.2144-1.245.2896-1.88.22v-7.99h-5v7.92c-.635.0696-1.278-.0056-1.88-.22-.17-.14-.26-.65-.26-1.51v-6.39c-.063-.5728.012-1.1525.22-1.69.13-.17.64-.27 1.5-.27h5.83c.86 0 1.36.09 1.51.27.202.5389.278 1.1172.22 1.69v6.39c-.02.89-.11 1.36-.3 1.51l.04.07Zm10.7.22c-.79 0-1.24-.06-1.37-.2-.13-.14-.19-.56-.19-1.31-.354.4687-.837.8233-1.39 1.02-.796.3549-1.659.5324-2.53.52-.971.0482-1.933-.1994-2.76-.71-.369-.2559-.668-.5996-.87-1-.198-.4001-.291-.8441-.27-1.29-.024-.4443.051-.8884.22-1.3.174-.4046.429-.7689.75-1.07.905-.693 2.033-1.0309 3.17-.95h3.15c.031-.2946-.013-.5923-.129-.8652-.115-.2728-.298-.5119-.531-.6948-.627-.3601-1.349-.5205-2.07-.46h-2c-.457.0579-.92-.0113-1.34-.2-.14-.13-.2-.64-.2-1.49h3.51c1.87 0 3.17.39 3.91 1.15.356.4319.623.9298.786 1.4652.163.5355.219 1.0978.164 1.6548l-.01 5.73Zm-2-4.29v-.32H151c-.675-.0673-1.356.0077-2 .22-.2.15-.3.61-.3 1.42 0 .81.75 1.43 2.25 1.43.86.1093 1.734-.015 2.53-.36.355-.768.487-1.6206.38-2.46l.09.07Zm-51.95 4.38h-6.59c-.6319.0698-1.2715-.0054-1.87-.22-.18-.15-.27-.67-.27-1.57v-9c0-.9.09-1.43.27-1.57.5985-.2146 1.2381-.2898 1.87-.22h4.83c.88 0 1.4.07 1.54.22.14.15.22.67.22 1.57h-6.59v3.48h4.24c.517-.0671 1.043.0089 1.52.22.15.15.22.65.22 1.52h-6v3.75h4.68c.566-.0671 1.14.0086 1.67.22.232.4994.322 1.0529.26 1.6Z"/>
	<path fill="#ED1C24" d="M192 30.9196c-.635.064-1.277-.0111-1.88-.22-.18-.1533-.27-.6733-.27-1.56v-8.39c.634-.0599 1.273.0081 1.88.2.18.13.27.59.27 1.39v8.58Zm7 0c-.782.0283-1.565-.0085-2.34-.11-.449-.2055-.838-.5221-1.13-.92l-3.15-3.61c-.124-.1494-.194-.3359-.2-.53 0 0 0-.54.36-.71.721-.3934 1.333-.9605 1.78-1.65.456-.8287 1.138-1.511 1.966-1.9677.829-.4566 1.77-.669 2.714-.6123v.78s.06.83-.5.91c-.56.08-1.58.27-2.84 2-.314.4822-.73.8887-1.22 1.19l4.56 5.23Zm-21.32 0c-.78 0-1.24-.06-1.36-.19-.187-.4131-.256-.8699-.2-1.32-.327.4902-.794.8702-1.34 1.09-.799.3564-1.666.5339-2.54.52-.971.0437-1.932-.2148-2.75-.74-.372-.2525-.671-.5971-.87-1-.202-.4026-.298-.8499-.28-1.3-.019-.4417.059-.8822.23-1.29.168-.4074.424-.7727.75-1.07.904-.6946 2.032-1.0327 3.17-.95h3.14c.048-.3075.016-.6225-.095-.9136-.11-.2911-.295-.5484-.535-.7464-.627-.3617-1.349-.5255-2.07-.47h-2c-.77 0-1.21-.06-1.34-.19-.192-.4716-.261-.9844-.2-1.49h3.51c1.87 0 3.18.39 3.91 1.15.356.4319.623.9299.786 1.4653.163.5354.219 1.0978.164 1.6547l-.08 5.79Zm-2.05-4.29v-.32h-2.84c-.675-.0629-1.355.0119-2 .22-.2.15-.29.61-.29 1.42 0 .81.75 1.43 2.24 1.43.863.1087 1.74-.0156 2.54-.36.336-.7736.456-1.6234.35-2.46v.07Zm-8.78-1.49c.071.0864.138.1766.2.27l.1.16c-.076-.1799-.177-.3482-.3-.5v.07Zm.71 2.1c0 2.44-1.667 3.66-5 3.66h-2.93c-.602.0624-1.211-.0128-1.78-.22-.17-.15-.24-.66-.24-1.54v-9c0-.88.08-1.4.24-1.54.568-.2124 1.177-.2878 1.78-.22h7.18c-.032.4297-.088.8571-.17 1.28-.09.3-.21.47-.83.47h-6v3.48h3.26c.707-.0543 1.417.0525 2.077.3123.66.2598 1.253.6659 1.733 1.1877.114.1347.211.2824.29.44.277.4936.412 1.0544.39 1.62v.07Zm-2.17 0c0-1.24-.88-1.85-2.65-1.85h-2.93v3.72h2.87c.799.0791 1.605-.006 2.37-.25.22-.16.35-.71.34-1.67v.05Zm23 3.65c-.642.0696-1.291-.0056-1.9-.22-.18-.14-.26-.66-.26-1.56v-2.79h-5v4.53c-.632.0713-1.272-.004-1.87-.22-.18-.14-.28-.66-.28-1.56v-8.29c.649-.0704 1.306.0083 1.92.23.17.14.26.65.26 1.51v2.09h5v-3.83c.642-.0695 1.291.0057 1.9.22.17.14.26.65.26 1.51v8.33l-.03.05ZM78.3901 13.8203c-2.129-.002-4.2107.6277-5.9817 1.8092-1.771 1.1816-3.1517 2.862-3.9673 4.8285-.8157 1.9666-1.0296 4.1309-.6147 6.219.4148 2.0882 1.4398 4.0064 2.9453 5.5118 1.5054 1.5054 3.4235 2.5304 5.5117 2.9453 2.0882.4148 4.2525.2009 6.219-.6148 1.9666-.8156 3.6469-2.1963 4.8285-3.9673s1.8112-3.8527 1.8092-5.9817c0-1.4117-.278-2.8096-.8183-4.1138-.5402-1.3043-1.3321-2.4894-2.3303-3.4876-.9982-.9982-2.1833-1.7901-3.4875-2.3303-1.3043-.5402-2.7022-.8183-4.1139-.8183Zm0 16.06-5.3-5.31 5.3-5.3 5.3 5.3-5.3 5.31Z"/>
</svg>