<svg xmlns="http://www.w3.org/2000/svg" viewBox="0 0 200 50">
	<path fill="#006f4e" d="M171.2 31.2c-.5-.1-1-.2-1.4-.3-1.1-.3-2.1-.8-2.9-1.7-2.1-2.2-1.8-5.4.6-7.3 2.5-2 6.7-2 9.3 0 2.7 2.1 2.6 5.9-.2 8-.9.7-2 1.1-3.1 1.3-.1 0-.3.1-.4.1-.7-.1-1.3-.1-1.9-.1zm.9-1.6c.4-.1.9-.1 1.3-.2 1.7-.4 2.8-1.7 2.9-3.4.1-1.5-.8-3-2.4-3.6-1.4-.6-2.9-.5-4.3.2-2.4 1.3-2.5 4.5-.3 6.1.9.7 1.9.9 2.8.9zM127.5 31.2c-.5-.1-1-.2-1.4-.3-1.8-.5-3.2-1.5-3.8-3.3-.8-2.1-.2-4.2 1.6-5.7 2.4-2 6.8-2 9.3 0-.3.4-.7.9-.9 1.2-1.1-.4-2-.8-3-1-1-.2-2 0-2.9.5-1.3.7-2.1 1.8-2 3.3 0 1.6.8 2.7 2.3 3.3 1.5.6 3 .5 4.5-.1.3-.1.5-.4.5-.7v-1.5h-3.1v-1.6h5.4v4.2c0 .1-.2.3-.3.4-1.1.7-2.3 1.1-3.5 1.3-.1 0-.3.1-.4.1-1-.1-1.6-.1-2.3-.1zM159.3 31.2c-.7-.2-1.4-.3-2-.5-2.4-.8-3.7-2.7-3.7-5 0-1.8.9-3.1 2.4-4.1 2.5-1.6 6.3-1.5 8.8.3-.3.4-.7.9-1 1.3-.4-.2-.8-.5-1.2-.7-1.4-.7-2.9-.7-4.3-.1-1.6.7-2.4 2.1-2.2 3.7.1 1.5 1.3 2.8 3 3.2 1.5.3 2.9.2 4.2-.6.3-.2.5-.3.8-.5.4.5.7.9 1 1.4-1.1.8-2.3 1.2-3.6 1.5-.1 0-.2.1-.4.1h-1.8zM39.3 25.4c.1-.2.1-.4.2-.6.4-1.7 1.5-2.8 3-3.5 2.8-1.2 5.5-1 8.1.7-.4.5-.7.9-.9 1.2-1.1-.4-2.1-.8-3.1-1-1-.2-2 0-2.9.5-1.3.7-2.1 1.8-2 3.3 0 1.5.8 2.6 2.1 3.2 1.6.8 3.3.6 4.9-.2.3-.2.7-.4 1-.6.3.4.7.9 1.1 1.4-1.1.8-2.3 1.2-3.6 1.4-.1 0-.3.1-.4.1H45c-.3-.1-.6-.2-1-.2-1.9-.5-3.5-1.4-4.3-3.4-.2-.4-.3-.9-.4-1.4v-.9zM72.4 17.6c-.3.3-.6.6-.9 1-.7 1-1.6 1-2.8.8l1.2-1.8h2.5zM136.3 20.6h4.3c1.1 0 2.2 0 3.2.2 1.2.2 2.3.8 2.7 2.1.5 1.5 0 2.9-1.4 3.6-.4.2-.9.4-1.4.6 1.1 1.3 2.2 2.5 3.3 3.9h-2.5c-.1 0-.3-.2-.4-.3-.9-1-1.7-2-2.6-3-.2-.2-.5-.3-.7-.3h-2.3V31h-2.2V20.6zm2.2 5.2c1.4-.1 2.8-.1 4.2-.2.3 0 .6-.2.9-.4.9-.7.9-2-.1-2.5-.3-.2-.6-.3-1-.3-1.1-.1-2.1-.1-3.2-.1h-.9c.1 1.2.1 2.3.1 3.5zM63.4 31h-2.5c-.1 0-.3-.2-.4-.3-.8-1-1.7-1.9-2.5-2.9-.2-.3-.5-.4-.8-.4h-2.3V31h-2.2V20.7l.1-.1c2.2 0 4.4 0 6.6.1 1 0 2 .4 2.7 1.1 1.4 1.3 1.2 3.6-.5 4.6-.5.3-1 .5-1.6.7 1.1 1.3 2.2 2.6 3.4 3.9zm-8.5-5.2h3.4c.4 0 .8-.1 1.1-.2.9-.3 1.4-.9 1.3-1.6 0-.7-.5-1.4-1.4-1.5-1.4-.2-2.9-.2-4.4-.2v3.5zM77.2 20.6c2.4.1 4.8-.3 7.2.3 1.7.4 3.2 1.4 3.9 3.1 1 2.4-.1 5.2-2.6 6.3-.9.4-1.9.6-2.9.7-1.8.1-3.7 0-5.5 0-.1-3.4-.1-6.9-.1-10.4zm2.3 8.7c1.1 0 2.2.1 3.3 0 2-.1 3.4-1.5 3.4-3.2.1-1.8-1-3.3-3-3.6-1.2-.2-2.5-.1-3.8-.2.1 2.4.1 4.7.1 7zM65.2 20.6h9.4v1.6h-7.1v2.5H74v1.7h-6.5v1.9c.1.7.5 1 1.2 1h6.1V31h-6.6c-1.8 0-2.9-.9-3-2.7-.1-2.5 0-5.1 0-7.7zM190.4 20.6h9.4v1.7h-7.1v2.5h6.5v1.7h-6.5c0 .7-.1 1.4 0 2 .1.6.5.9 1.2.9H200v1.7h-6.6c-1.9 0-3-1.1-3-3v-7.5zM121.6 31h-2.4c-.1 0-.3-.2-.3-.3l-.9-1.8c-.1-.2-.4-.4-.6-.4h-4.9c-.3 0-.5.1-.6.4-.3.6-.5 1.2-.9 1.7-.1.2-.4.3-.5.3h-1.9c.1-.2.1-.3.2-.5 1.6-3.2 3.3-6.3 4.9-9.5.2-.4.4-.4.8-.5 1.4-.2 2 .3 2.6 1.6 1.3 2.8 2.8 5.5 4.3 8.3 0 .3.1.5.2.7zm-6.7-8.2c-.7 1.4-1.3 2.7-2 4h4c-.6-1.3-1.3-2.6-2-4zM105 20.7v1.7h-4v8.7h-2.2v-8.7h-4v-1.7H105zM182.7 20.6v8.7h6.6V31h-8.8V20.6h2.2zM149.2 20.6h2.2V31h-2.2V20.6zM90.7 31V20.6h2.2V31h-2.2zM20.8 24.4l-2-5-2.6 5.6c-.9 1.8-3.7 2.3-5.7 2.5l.4-.7 5.7-11h4.5l3.2 6.7 1.4 3.2 2.9 6.3H25c-.7 0-1.3 0-1.6-.7l-.4-1.6-.9-2.3-1.3-3zM29.4 33.7H0v2.6h29.4v-2.6z"/>
	<g fill="#009b9d">
		<path d="M22.1 27.5c-3 1.6-6.1 3.1-9.7 3.9-3.3.8-6.9.9-9.4-.6-2.3-1.3-3-3.9-3-5.8 0-1.2.6-3 1.8-4.4 2.2-2.7 6.4-5 9.7-5.1 1.2 0 1.9.4 2.4 3.3-1.2 0-2.3.2-3.6.6-.8.3-2.4 1-4.2 2.2-2.3 1.6-3.7 3.3-3.8 4.9-.1 1.4 1.2 2.2 3.3 2.4 5 .4 10.8-2 15.2-4.4l3.5-2 7.3-3.9v3.7l-5.8 3.4-3.7 1.8z"/>
		<path d="M10.5 16.7c1.1.1 3-.7 3.4 2.1-.5-.2-1.5 0-2.1.1"/>
	</g>
	<path fill="#ed1c24" d="M30.4 14.6l-4.2 2.2s-1.4.8-2.4 1l.7 1.5c.2.6.9.8 1.5.6l5.6-3.1V14l-1.2.6z"/>
</svg>