<svg viewBox="0 0 200 50" xmlns="http://www.w3.org/2000/svg">
	<path fill="#0057B6" d="M10.5283 25.1389c0-8.0644 6.6294-14.6214 14.7778-14.6214 8.1534 0 14.7777 6.557 14.7777 14.6214 0 8.0593-6.6243 14.6163-14.7777 14.6163-8.1484 0-14.7778-6.557-14.7778-14.6163Zm-.5283 0c0 8.3457 6.8682 15.1338 15.3061 15.1338s15.306-6.7931 15.306-15.1338C40.6121 16.7881 33.744 10 25.3061 10 16.8682 10 10 16.7881 10 25.1389Zm24.7344-1.2967v.0001l-.0659.0505c-.8484.6431-2.1793 1.1607-4.0335 1.6481-2.1533.5747-3.976.8745-5.7215 1.1617-1.3678.225-2.6881.4422-4.0829.7777-.6147.1457-1.2649.3567-1.8644.5979.5995.2964 1.2345.5678 1.8898.814 1.2852-.3618 1.905-.5275 3.7693-.8391.7113-.1206 2.9058-.4975 4.4857-.8291 2.86-.6079 7.0459-1.9143 5.9335-3.6276-.0937.0799-.198.1599-.3101.2458Zm-1.5289-3.8032c-.6045-.2663-1.3665-.5326-2.1742-.7486-.3658.2813-.7874.5325-1.3869.7687.741.1296 1.3469.3136 1.9538.498.2169.0659.434.1319.6573.1954.1575.0804.8433-.5628.95-.7135Zm-14.0056 3.7834c1.9698-.5725 3.9904-.9353 6.0427-1.3037 1.8378-.33 3.7008-.6645 5.5753-1.1582-1.5443-.4121-2.3978-.5879-4.0386-.402-2.3775.2764-4.9988.7889-7.2391 1.447l-.0941.0278c-1.071.3156-5.3704 1.5822-4.0765 3.3437.0005.0026.0094-.0068.0281-.0265.1638-.1726 1.0816-1.1392 3.8022-1.9281Zm-2.5705 6.2305c-.0101.3316.1981.633.6553 1.0049.0559-.1809.1372-.3166.2744-.4874-.3201-.1558-.635-.3316-.9297-.5175Zm1.7476-.1658c.2794-.1659.6197-.3267 1.0057-.4824-.5333-.216-1.0768-.4522-1.6306-.7034-.2489.1507-.4724.3215-.6502.4874.1706.0924.3397.1865.5088.2805.2536.1411.5072.2822.7663.4179Zm14.356-7.8484c-.7518.3468-1.8339.7035-3.3782 1.0903-.5824.1453-1.5484.3147-2.7442.5245-1.4116.2477-3.1432.5514-4.9419.9377-1.0515.2262-3.8963.8894-5.2984 2.0701.2775.221.4783.3231.7274.4499.1022.052.2124.1081.3394.1782.5842-.3668 1.3665-.7185 2.535-1.025 2.0333-.5367 3.5504-.7729 5.3848-1.0587l.0101-.0015c1.8237-.2763 5.2426-.9898 7.1374-1.6631.6198-.2161 1.1938-.4975 1.6206-.8291-.1321-.1507-1.3513-.7285-1.392-.6733Zm1.1024-.6733c.0768.037.1516.072.2249.1063.2857.1338.5476.2564.8064.4364.2336-.4421.0914-.7285-.3963-1.1355-.1879.2211-.4064.417-.635.5928ZM16.4465 28.033c-.3352-.1808-.5588-.3065-.8382-.4974-.1524.3166.1321.6783.4318.8491.0749-.077.1569-.1435.2386-.2099.0569-.0462.1136-.0923.1678-.1418Zm15.8903-10.1897c-.061.2512-.3352.5427-.5233.7386.5639.1457 1.1278.3517 1.6714.5527-.0661-.4924-.6503-.9748-1.1481-1.2913ZM14.765 20.9886c3.9117-2.5374 8.2398-4.0146 15.5753-2.7634.4065-.2312.6249-.4472.7316-.9246-1.8339-.6532-3.8151-.8843-6.3856-.8391-2.3063.0603-6.4618.9095-8.6766 2.2058l.6756-.8391c1.5544-.8944 5.5931-2.0902 8.6258-2.1505 2.1388-.0402 3.2462.0804 5.7862.7587-.2049-.4053-.687-.6206-1.3749-.9277l-.139-.0621c-2.4587-1.0954-7.051-1.1959-10.8153.4421.4724-.3065.9398-.5929 1.5494-.8742 1.2344-.5628 3.2664-1.1004 5.8065-1.0602 2.0269.0301 4.4348.7336 5.908 2.1756.2489.2864.3861.5929.4521.8391 1.1684.5829 1.844 1.1255 2.2301 1.7787.1525.3266.2185.6934.1474 1.1003.4876.2865.7162.5226.955.8442.1779.2663.3048.5627.3353.8391.0508.3668.0914.7737-.2896 1.2511.4013.1909.7113.7336.7621.9797.1778.8744-.3861 1.7185-1.1329 2.3817-.8585.7436-2.7534 1.6279-4.2977 2.0148-2.1811.5429-4.1774.8649-5.9232 1.1465-.7101.1145-1.3788.2224-2.0016.3358l.0094.0022c.9594.2259 2.2735.5354 4.4102.5354 4.572 0 8.6157-2.1405 8.6157-2.1405s-.0915.2814-.1778.5276c-2.9007 1.7335-7.5235 2.4721-9.4997 2.3817-2.0065-.0955-3.688-.387-5.3441-.8894-.508.1307-1.0008.2864-1.4833.4974 2.5146 1.1305 4.4043 1.3868 6.5583 1.5375 2.1894.1608 5.8114-.3617 8.8747-1.4571-.0659.0676-.1177.1536-.1689.2387-.0554.0922-.1103.1834-.1816.2487-1.5697.8089-4.8819 1.6279-6.5431 1.6983-1.6561.0653-3.683.005-5.4356-.3216-1.5138-.2914-2.7432-.7687-4.0335-1.3214-.2388.1658-.3556.3969-.3962.6381 5.0393 2.6026 9.7586 2.6579 15.1283 1.0099l-.4878.4672c-5.9131 2.3666-10.5308 1.4472-14.1071-.2612-.0187-.008-.0379-.0161-.0575-.0245h-.0001c-.1037-.0437-.2186-.0923-.3082-.1513.3302.5728 3.0632 2.5424 6.1164 2.7936 2.1082.1708 4.6787-.1859 6.1975-.7839l-.8889.4572c-.7417.3618-2.6976 1.1708-5.4357.995-3.6423-.2462-5.6946-1.8391-6.6141-2.6731-.4217-.3919-.63-.8441-.757-1.3968-.8229-.4271-1.3411-.8693-1.7729-1.5275-.254-.3868-.2032-.824-.1371-1.1908.0203-.1156.0507-.2261.0965-.3266-.3963-.2864-.7976-.5879-.9652-.8943-.3607-.6432-.1372-1.1959.1117-1.623-.2133-.2411-.4165-.4874-.5029-.7336-.0965-.3065-.1168-.5778-.0863-.8893.066-.5427.3606-1.035.7315-1.4621.7975-.9094 2.0472-1.6129 4.1961-2.3163 1.5698-.515 2.4371-.701 3.4382-.9156.337-.0723.689-.1477 1.0881-.2401.7043-.1603 1.4593-.2793 2.2264-.4002 1.2522-.1974 2.5369-.3999 3.6866-.7956-5.1561-.8994-10.5156-.0855-14.8844 2.8891l.2794-.8341Zm96.647 1.1758c-.157.839-.376.9848-.884.9848-.223 0-.432-.0553-.742-.2713l-.167 2.7936c.376.2362 1.082.2713 1.484.2713 1.173 0 2.062-1.1707 2.479-2.467l3.413-10.8078h-2.555l-1.122 4.3061c-.198.7335-.402 1.5123-.575 2.5223h-.066c-.051-1.0602-.233-1.7687-.401-2.3967l-1.25-4.4367h-2.829l3.215 9.5014Zm-53.66 3.5071h-3.1597l-2.7889-5.6626h-.0255v5.6626h-2.5552V12.6681h2.5552v5.3511h.0255l2.7685-5.3511h2.9566l-3.3883 6.155 3.6118 6.8484Zm3.7085 0h-2.5603V12.6681h4.1199c1.8745 0 3.2359 1.2059 3.2359 4.1251 0 2.2711-.8991 4.4216-3.1954 4.4216h-1.6001v4.4567Zm1.1328-10.4459h-1.1887v3.3814h1.2141c.7214 0 1.1888-.6933 1.1888-1.7183 0-.8793-.4217-1.6631-1.2142-1.6631Zm5.0191 10.4459h6.5989v-2.668h-4.0996v-2.5926h3.7186v-2.6681h-3.7186v-2.4067h3.9523v-2.668h-6.4516v13.0034Zm9.906 3.1001h-2.0269v-5.7681h.9499c.8332-1.3164.95-1.6279 1.2752-10.3354h6.7817v10.3354h1.1177v5.7681h-2.0321v-3.1001h-6.0655v3.1001Zm4.4196-13.4355h-2.0066c-.1981 5.6576-.3657 6.572-1.0718 7.6724h3.0784v-7.6724Zm4.9327 10.3354h2.6823l3.0686-7.4865v7.4865h2.5552V12.6681h-2.6877l-3.0631 7.4865v-7.4865h-2.5553v13.0034Zm11.8922-10.2651h-2.3973v-2.7383h7.3554v2.7383h-2.403v10.2651h-2.5551V15.4064Zm21.9351 10.2651h-2.56V12.6681h4.12c1.885 0 3.236 1.2059 3.236 4.1251 0 2.2711-.899 4.4216-3.195 4.4216h-1.601v4.4567Zm1.134-10.4459H120.643v3.3814h1.209c.721 0 1.189-.6933 1.189-1.7183 0-.8793-.412-1.6631-1.209-1.6631Zm7.431 5.2205.732-3.0499c.142-.5678.31-1.3516.401-2.0651h.051c.056.4924.198 1.2812.381 2.0651l.706 3.0499h-2.271Zm2.845-7.778h-3.22l-3.404 13.0034h2.555l.615-2.668h3.454l.564 2.668h2.687l-3.251-13.0034Zm6.848 11.8176c-.716 1.0552-1.605 1.1858-2.814 1.1858l-.387-2.8489c.508 0 1.017-.0603 1.423-.7134.589-.9698.747-3.7081.889-9.4411h7.223v13.0034h-2.555V15.3361h-2.305c-.275 6.3007-.575 7.8131-1.474 9.1496Zm19.05-9.1546v-2.663h-6.609v13.0034h4.186c1.88 0 3.236-1.1707 3.236-4.0899 0-2.2661-.899-4.2759-3.196-4.2759h-1.67v-1.9746h4.053Zm-4.104 4.5874h1.279c.717 0 1.189.5476 1.189 1.5676 0 .8793-.421 1.628-1.214 1.628h-1.254v-3.1956Zm10.261-2.5223-.732 3.0499h2.271l-.701-3.0499c-.188-.7839-.33-1.5727-.381-2.0651h-.051c-.096.7135-.264 1.4973-.406 2.0651Zm-1.107-4.7281h3.22l3.251 13.0034h-2.686l-.565-2.668h-3.454l-.615 2.668h-2.555l3.404-13.0034Zm7.6 13.0034h2.555v-5.4817h3.068v5.4817h2.555V12.6681h-2.555v4.8587h-3.068v-4.8587h-2.555v13.0034Zm18.684 0h-3.15l-2.794-5.6626h-.026v5.6626h-2.555V12.6681h2.555v5.3511h.026l2.763-5.3511h2.962l-3.388 6.155 3.607 6.8484ZM190 29.47H49.0704v6.6575H190V29.47ZM50.574 34.8511h.9094v-3.5723h1.8338v-.6784H50.574v4.2507Zm7.5083.0002h-.9042v-4.2508h1.7069c1.0363 0 1.4528.588 1.4528 1.3014 0 .9898-.7366 1.3516-1.4427 1.3516h-.8128v1.5978Zm0-3.5976v1.3466h.6045c.5335 0 .7874-.2562.7824-.7386 0-.3317-.1575-.608-.5893-.608h-.7976Zm7.3051 2.5475c-.0966.3064-.2338.3768-.4065.3768-.1066 0-.259-.0101-.4368-.0904l-.0763.7637c.2083.0653.4522.0904.6198.0904.6046 0 .9297-.5125 1.1176-.9245l1.4986-3.4116H66.693l-.691 1.8591c-.0142.0385-.0305.081-.0476.1255l-.0002.0004c-.0496.1297-.1061.277-.1401.3966h-.0203c-.0356-.1608-.0864-.3718-.1474-.5225l-.8128-1.8591H63.782l1.6054 3.1956Zm7.0053 1.0501h-.9042v-4.2508h3.4746v4.2508h-.9041v-3.5724h-1.6663v3.5724Zm6.7716 0h.9094v-3.5724h1.6611v3.5724h.9043v-4.2508h-3.4748v4.2508Zm9.2457-2.9846-.4978 1.3365h1.3309l-.4776-1.3365c-.066-.1809-.1269-.3969-.1726-.5828h-.0254c-.0306.1809-.0915.4019-.1575.5828Zm-1.0821 2.9846h-.9144l1.6155-4.2508h1.1532l1.5646 4.2508h-.95l-.3404-.9898h-1.7728l-.3557.9898Zm12.299 0h.9041v-3.5724h1.834v-.6784h-2.7381v4.2508Zm7.6201-2.9846-.493 1.3365h1.326l-.477-1.3365c-.067-.1809-.128-.3969-.168-.5828h-.031c-.026.1809-.086.4019-.157.5828Zm-1.077 2.9846h-.91l1.616-4.2508h1.153l1.565 4.2508h-.951l-.345-.9898h-1.773l-.355.9898Zm8.671-.5829c-.723 0-.807-.4633-.857-.7451l-.001-.0035-.849.1859c.087.4522.325 1.2461 1.687 1.2461 1.016 0 1.707-.5326 1.707-1.2762 0-.6432-.478-.9748-.894-1.0251v-.01c.559-.1106.828-.5527.828-.9848 0-.5829-.513-1.1557-1.555-1.1557-1.011 0-1.549.4673-1.737 1.2109l.838.1709c.041-.402.28-.6984.879-.6984.416 0 .711.2161.711.5627 0 .402-.284.6181-.62.6181h-.553v.6783h.558c.499 0 .666.2612.666.5728-.005.432-.422.6531-.808.6531Zm6.62.5829h-.91v-4.2508h3.48v4.2508h-.909v-3.5724h-1.661v3.5724Zm6.771 0h.899v-1.5978h.808c.706 0 1.448-.3618 1.448-1.3516 0-.7134-.422-1.3014-1.453-1.3014h-1.707v4.2508h.005Zm.904-2.251v-1.3466h.793c.437 0 .594.2763.594.608 0 .4824-.254.7386-.782.7386h-.605Zm6.909.1206c0 1.0803.416 1.5475 1.062 1.5475.645 0 1.062-.4623 1.062-1.5475 0-1.0803-.417-1.5476-1.062-1.5476-.646 0-1.062.4673-1.062 1.5476Zm3.079.005c0 1.4571-.828 2.2259-2.017 2.2259-1.184 0-2.017-.7688-2.017-2.2259s.833-2.2259 2.017-2.2259c1.194 0 2.017.7688 2.017 2.2259Zm6.03 2.1254h.711l.96-2.7786c.096-.2864.198-.6883.218-.819h.052c-.011.1607-.011.3114-.011.462v3.1356h.833v-4.2508h-1.407l-.797 2.3616c-.076.2361-.173.6029-.189.7386h-.035c-.025-.1357-.107-.4975-.188-.7386l-.798-2.3616h-1.407v4.2508h.833V31.716c0-.1508 0-.2965-.01-.4623h.056c.015.1307.122.5326.218.819l.961 2.7786Zm8.677 0h-1.718v-4.2508h2.799v.6784h-1.89v.9144h.809c.7 0 1.447.3668 1.447 1.3567 0 .7184-.412 1.3013-1.447 1.3013Zm.584-1.3315c0-.4773-.193-.6682-.66-.6682h-.727v1.3415h.736c.458 0 .651-.3417.651-.6733Zm5.918-.3166.497-1.3365c.066-.1809.128-.4019.158-.5828h.025c.041.1859.107.4019.173.5828l.478 1.3365h-1.331Zm-1.499 1.6481h.915l.355-.9898h1.778l.341.9898h.945l-1.561-4.2508h-1.152l-1.621 4.2508Zm9.012 0h-.904v-4.2508h.904v1.6732h1.667v-1.6732h.904v4.2508h-.904V32.952h-1.667v1.8993Zm6.772 0h.909v-1.9495h.01l1.514 1.9495h1.148l-1.818-2.2359 1.706-2.0149h-1.081l-1.469 1.8088h-.01v-1.8088h-.909v4.2508Zm8.905-2.9846-.493 1.3365h1.326l-.478-1.3365c-.065-.1809-.126-.3969-.167-.5828h-.031c-.03.1809-.086.4019-.157.5828Zm-1.077 2.9846h-.909l1.615-4.2508h1.153l1.56 4.2508h-.945l-.345-.9898h-1.773l-.356.9898Z"/>
</svg>