<svg xmlns="http://www.w3.org/2000/svg" viewBox="0 0 200 50">
	<g fill="#003662">
		<path d="M90.381 24.381H78.7619v2.6666h.381c.0952-.3809.7619-1.1428 1.619-1.1428h2.5714v13.619h2.5715v-13.619h2.6666c.8572 0 1.4286.4762 1.5238.9524v.0952h.381l-.0952-2.5714zM14.6667 23.5238C12.9524 25.2381 12 27.7143 12 30.0953c0 2.7619 1.1429 5.2381 3.0476 6.9523 1.9048 1.7143 4.4762 2.6667 7.1429 2.6667 1.4285 0 4.1905-.2857 6.9524-1.9047l.0952-.0953.2857-3.8095-.4762-.0952-.0952.1904c-2 4.0953-5.0476 4.0953-6.2857 4.0953-5.2381 0-7.6191-4.381-7.6191-8.381 0-3.9047 2.381-7.9047 7.6191-7.9047 1.619 0 4.5714.5714 6.0952 4.0952l.0952.1905.4762-.1905L29.1429 22l-.0953-.0952c-2.4762-1.0476-4.4762-1.5238-6.4762-1.5238-3.2381.0952-6 1.1428-7.9047 3.1428zM32.0952 24.381L32 24.7619c.1905.0953.4762.6667.4762 1.3334v13.3333h2.4762v-6.8571H36c.9524.0952 1.3333.6666 1.9048 1.5238l.0952.0952.2857.5714c.5714.8572 1.2381 2.0953 2 3.2381.5714.8572 1.2381 1.2381 2.0953 1.4286.5714.0952 1.8095.0952 2.2857-.0952l.5714-.0953.1905-.0952-.7619-.1905c-.2857-.0952-.7619-.2857-1.4286-1.0476-.381-.4762-1.0476-1.5238-2-3.0476l-.9524-1.5238c-.2857-.381-.6667-.9524-1.4286-1.4286 1.4286-.4762 2.7619-1.7143 2.7619-3.6191 0-.5714-.0952-1.619-1.0476-2.4761-.9524-.8572-2.3809-1.3334-4.3809-1.3334l-4.0953-.0952zm4.2858 1.4286c2.5714.0952 2.6666 2.2857 2.6666 2.5714 0 2.1905-1.619 2.9524-2.9524 2.9524h-1.0476v-5.4286c.2857-.0952.7619-.1905 1.3334-.0952zM57.7143 24.381v.381c.1905.0952.3809.6666.3809 1.1428v13.5238h4.2858c2.8571 0 5.1428-.8571 6.7619-2.5714 1.3333-1.4286 2.0952-3.2381 2.0952-5.2381 0-1.1429-.3809-2.9524-1.5238-4.381-1.5238-1.9047-3.8095-2.9523-6.9524-2.9523l-5.0476.0952zm2.9524 1.5238H62c.381 0 1.2381 0 1.9048.0953 4.1905.6666 4.6666 4.1904 4.6666 5.7142 0 1.2381-.1904 2.9524-1.2381 4.381-1.0476 1.3333-2.6666 2-4.8571 2h-1.8095V25.9048zM76.4762 24.381h-2.9524v.3809c.2857.0953.4762.6667.4762 1.2381v13.4286h2.4762V24.381zM126.952 24.381H124v.3809c.286.0953.476.6667.476 1.2381v13.4286h2.476V24.381zM54.4762 24.381h-8.381l.0953.3809c.1905.0953.4762.6667.4762 1.3334v13.3333h8.3809l.5715-2.6667-.381-.0952-.0952.1905c-.6667 1.0476-1.4286 1.2381-3.8096 1.2381-.8571 0-1.7142-.0953-2.2857-.0953v-6.0952h4.2857v-1.4286h-4.2857v-4.6666h3.4286c.7619 0 1.619.7619 1.7143 1.238v.0953h.3809l-.0952-2.7619zM161.905 24.381h-8.381v.3809c.19.0953.476.5715.476 1.3334v13.3333h8.381l.571-2.6667-.381-.0952-.095.1905c-.666 1.0476-1.428 1.2381-3.809 1.2381-.857 0-1.715-.0953-2.286-.0953v-6.0952h4.286v-1.4286h-4.286v-4.6666h3.429c.952 0 1.619.7619 1.619 1.238v.0953h.381l.095-2.7619zM97.7143 21.6191c-.8571.6667-1.9048 1.8095-2 3.8095v.0953c0 2.3809 1.5238 3.7142 4 4.9523.0952.0953.2857.1905.9527.4762 2.095 1.0477 3.523 1.8096 3.523 3.9048 0 .7619-.285 1.8095-1.047 2.5714-.667.6667-1.524.9524-2.572.9524-3.1424 0-4.2853-2.7619-4.571-4l-.0952-.1905-.5715.0953.1905 3.9047.2857-.0952c1.0477.5714 2.6667 1.5238 5.1425 1.619 1.715 0 3.429-.6666 4.667-1.9047 1.048-1.0476 1.619-2.381 1.619-3.8095 0-3.1429-2.286-4.381-4.667-5.6191l-.476-.2857c-2.4759-1.2381-3.6188-2-3.6188-3.5238 0-1.0476.8571-2.7619 2.9528-2.7619 2.476 0 3.809 1.9047 4.095 3.0476l.095.1905.571-.0953-.19-3.4285-.095-.0953c-1.429-.9524-3.238-1.1428-4-1.1428-1.715.0952-3.1431.5714-4.1907 1.3333zM131.048 28.1905c0 2.0953 1.238 3.1429 3.238 4.1905l.762.381c1.619.7619 2.666 1.3333 2.666 2.8571 0 .2857-.095 1.1429-.762 1.9048-.476.4761-1.142.7619-2 .6666-2.381 0-3.238-1.9047-3.619-2.9524l-.095-.1904-.476.0952.095 3.1429.095.0952c.762.4762 2.096 1.2381 4.096 1.2381 1.333 0 2.762-.5714 3.714-1.5238.857-.8572 1.238-1.9048 1.238-3.0476 0-2.6667-1.81-3.6191-3.714-4.5715l-.381-.1904c-2.095-1.0477-2.762-1.5238-2.762-2.6667 0-.8571.571-2 2.286-2 2 0 2.857 1.5238 3.047 2.2857l.095.1905.477-.0952-.191-2.762-.095-.0952c-1.143-.7619-2.572-.8571-3.143-.8571-2.19 0-4.571 1.3333-4.571 3.9047zM142.286 28.1905c0 2.0953 1.238 3.1429 3.238 4.1905l.762.381c1.619.7619 2.666 1.3333 2.666 2.8571 0 .2857-.095 1.1429-.762 1.9048-.476.4761-1.142.7619-2 .6666-2.38 0-3.238-1.9047-3.619-2.9524l-.095-.1904-.476.0952.095 3.1429.095.0952c.762.4762 2.096 1.2381 4.096 1.2381 1.333 0 2.762-.5714 3.714-1.5238.857-.8572 1.238-1.9048 1.238-3.0476 0-2.6667-1.809-3.6191-3.714-4.5715l-.381-.1904c-2.095-1.0477-2.762-1.5238-2.762-2.6667 0-.4762.19-1.0476.571-1.4286.381-.3809.953-.5714 1.619-.5714 2 0 2.858 1.5238 3.048 2.2857l.095.1905.476-.0952-.19-2.762-.095-.0952c-1.143-.7619-2.572-.8571-3.143-.8571-2 0-4.476 1.3333-4.476 3.9047zM120.762 24.381h-2v.3809c.095.0953.381.2857.381 1.2381v8.5715c0 1.619-.572 3.619-3.524 3.619-2.762 0-3.333-1.619-3.333-4.0952V24.381h-3.143v.3809c.19.0953.571.4762.571 1.3334v8c0 4.9523 3.238 5.5238 5.715 5.5238 1.238 0 5.142-.381 5.142-5.0476l.191-10.1905zM183.524 20.0953c1.809.5714 3.619 1.3333 5.619 2.4762-4.857-8-13.429-16.66669-21.905-22.285733 2.191 2.190473 5.714 6.952383 6.667 12.000033 3.428 2.4762 6.666 5.1428 9.619 7.8095z"/>
		<path d="M183.524 20.0953c-4.191-1.3333-7.714-1.4286-10.286-1.1429.953-2.1904 1.048-4.4762.667-6.6666-6.381-4.57146-13.524-8.57146-20.286-11.523837C158.571 4.0953 164.095 13.9048 166.381 24.381c4.952-1.4286 12.476-2.4762 22.286.8572-1.619-1.7143-3.334-3.4286-5.143-5.1429z"/>
	</g>
</svg>
