<svg xmlns="http://www.w3.org/2000/svg" viewBox="0 0 200 50">
	<path fill="#1D478C" d="M45.9591 29.8236H43.461V18.3264H31.1954c0 2.9143-.032 5.2522-.5125 7.526-.2882 1.3451-.7044 2.6581-1.345 3.9712H27.032L27 38.054h4.1313l.1601-4.0672h10.2481l.2882 4.0672h4.1314v-8.2304Zm-11.8174 0c.3842-.8327.7046-1.6974.9287-2.5941.3843-1.5372.5765-3.1385.7046-4.8678h2.7862v7.4619h-4.4195Zm20.1439 4.4514c1.8895 0 3.2986-.6404 4.3234-1.9535l.064.032v1.6333h4.7719V18.3264h-5.0281v1.6334l-.064.032c-1.0888-1.281-2.6581-1.9535-4.3233-1.9535-4.0353 0-7.1417 3.3306-7.1417 8.1344 0 4.8358 3.1064 8.1023 7.3978 8.1023Zm1.0568-4.4194c-1.9855 0-3.3627-1.4732-3.3627-3.6829 0-2.2418 1.4412-3.7149 3.3627-3.7149 1.8575 0 3.2986 1.5691 3.2986 3.7149 0 2.2417-1.5051 3.6829-3.2986 3.6829Zm14.5074 4.1312h5.0279V22.3937h4.2274v-4.0673H65.5905v4.0673h4.2593v11.5931Zm17.71.2882c1.8895 0 3.2985-.6404 4.3233-1.9535l.064.032v1.6333h4.7719V18.3264h-5.028v1.6334l-.0641.032c-1.0888-1.281-2.6581-1.9535-4.3233-1.9535-4.0353 0-7.1417 3.3306-7.1417 8.1344 0 4.8358 3.1064 8.1023 7.3979 8.1023Zm1.0568-4.4194c-1.9855 0-3.3627-1.4732-3.3627-3.6829 0-2.2418 1.4412-3.7149 3.3627-3.7149 1.8575 0 3.2985 1.5691 3.2985 3.7149 0 2.2417-1.5051 3.6829-3.2985 3.6829Zm19.5674 4.4194c4.547 0 8.07-3.3626 8.07-8.1663 0-4.4836-3.17-7.558-6.821-7.558-2.69 0-4.419 1.345-5.348 2.9463l-.064-.032c.192-3.5548.96-5.2202 4.579-5.8607l6.501-1.1849L113.884 10l-6.18 1.0888c-6.598 1.1529-8.0708 5.4764-8.1028 12.5859-.0321 5.7325 2.2098 10.6003 8.5828 10.6003Zm-.224-4.4194c-1.858 0-3.299-1.5372-3.299-3.7149 0-1.5052 1.089-3.2987 3.203-3.2987 1.857 0 3.33 1.3772 3.33 3.4268 0 2.1776-1.505 3.5868-3.234 3.5868Zm17.486 4.4194c1.889 0 3.298-.6404 4.323-1.9535l.064.032v1.6333h4.772V18.3264h-5.028v1.6334l-.064.032c-1.089-1.281-2.658-1.9535-4.324-1.9535-4.035 0-7.141 3.3306-7.141 8.1344 0 4.8358 3.106 8.1023 7.398 8.1023Zm1.056-4.4194c-1.985 0-3.362-1.4732-3.362-3.6829 0-2.2418 1.441-3.7149 3.362-3.7149 1.858 0 3.299 1.5691 3.299 3.7149 0 2.2417-1.505 3.6829-3.299 3.6829Zm11.465 4.1312h4.996v-5.6044h4.964v5.6044h5.028V18.3264h-5.028v6.0209h-4.964v-6.0209h-4.996v15.6604Zm18.415 0h4.932v-4.3875l1.505-1.7934 3.939 6.1809h5.669l-5.829-8.9991 5.508-6.6613h-5.828l-4.9 6.213h-.064v-6.213h-4.932v15.6604Z"/>
</svg>