<svg xmlns="http://www.w3.org/2000/svg" viewBox="0 0 200 50">
	<path fill="#F65E64" d="M26.24 33.23h2.56v6.68h-3.04v-3.95H12.04v3.95H9v-6.68c1.89-.52 2.97-1.78 3.6-3.08.28-.67.51-1.62.63-2.92.32-2.57.32-5.06.32-10.23h12.68l.01 16.23zm-3.01 0V19.72h-6.52c-.12 8.06-.74 11.54-3.04 13.51h9.56zM65.67 35.92l.01-16.19h-7.27c0 6.2-.14 10.24-1 12.8-.46 1.37-1.58 3.17-3.03 4.13l-2.25-2.26c1.27-.96 1.89-1.9 2.43-3.18.43-1.02.48-2.37.6-4.94 0-2.57.08-5.11.08-9.33h13.59v18.97h-3.16zM48.97 32.57c-1.71 2.42-4.67 3.78-8.07 3.78-5.61 0-9.84-4.07-9.84-9.88 0-5.81 4.03-9.88 9.6-9.88 5.22 0 9.73 3.75 9.73 9.32 0 .75-.04 1.42-.16 2.05H34.1c.59 3.44 3.2 5.53 6.84 5.53 2.49 0 4.86-1.23 5.93-3.08l2.1 2.16zm-14.9-7.48h13.21c-.2-1.74-1.11-3.12-2.18-4.15-3.44-3.12-10.83-1.14-11.03 4.15zM94.76 16.96H81.84c-5.26 0-9.52 4.26-9.52 9.52S76.58 36 81.84 36h12.91c5.26 0 9.52-4.26 9.52-9.52s-4.26-9.52-9.51-9.52zm-.11 16.23c-3.71 0-6.72-3.01-6.72-6.72s3.01-6.72 6.72-6.72 6.72 3.01 6.72 6.72-3.01 6.72-6.72 6.72zM164.68 35.51v-8.25h-9.98v8.25h-3.17V16.48h3.17v7.85h9.98v-7.85h3.17v19.03h-3.17zM186.32 35.51l-7.41-8.09h-3.45c0 4.56 0 7.25.04 8.09h-3.17c.04-1.9.04-5.07.04-9.51 0-4.44 0-7.61-.04-9.51h3.17c-.04 1.63-.04 4.28-.04 8.01h3.52l7.17-8.01h3.96l-8.28 9.24 8.91 9.79-4.42-.01zM147.36 32.29c-.38.63-.94.96-1.58.8-.61-.15-1.02-.73-1.02-1.36V22.4c0-3.65-3.13-6.3-7.37-6.3-2.62 0-4.81.86-6.14 2.24l2.12 2.12c.69-.89 2.07-1.47 3.79-1.47 2.57 0 4.44 1.63 4.44 3.8v1.43c-2.93.32-4.99.59-6.22.87-3.8.79-6.06 2.81-6.06 5.87 0 2.97 2.38 4.95 6.02 4.95 2.58 0 4.67-.54 6.34-2.48.36 1.7 2.02 2.48 4.12 2.48 1.42 0 2.66-.62 3.54-1.65l-1.98-1.97zm-5.77-2.38c-1.39 1.9-3.56 3.05-5.9 3.05-1.86 0-3.09-.82-3.09-2.37 0-1.27.99-2.21 2.69-2.69 1.31-.36 3.41-.51 6.3-.86v2.87zM117.85 16.83c-2.6-.1-4.97.84-6.75 2.44.34-2.72 2.21-4.98 4.73-5.8 3.12-1.03 7.16.48 11.18-3.2L124.74 8h-.04c-2.93 2.75-6.49 1.56-9.29 2.32-4.27 1.15-7.43 5.06-7.47 9.73v6.32c0 5.27 4.27 9.54 9.54 9.54 5.39 0 9.74-4.47 9.53-9.91-.2-4.95-4.22-8.98-9.16-9.17zm.15 15.95c-3.96.31-7.25-2.98-6.93-6.94.25-3.12 2.77-5.64 5.89-5.89 3.96-.32 7.25 2.98 6.93 6.94-.26 3.11-2.78 5.64-5.89 5.89z"/>
</svg>
