<svg xmlns="http://www.w3.org/2000/svg" viewBox="0 0 200 50">
	<path fill="#cd163a" d="M179.5 23.6c-.3-.3-.7-.4-1.1-.4H176c-.2-2.3-1.1-4.5-2.6-6.3l1.8-1.8c.3-.3.5-.6.5-1s-.1-.8-.3-1.1c-.3-.2-.7-.4-1.1-.3-.4 0-.7.2-1 .5l-1.8 1.8c-1.8-1.5-4.1-2.5-6.5-2.7V9.6c0-.4-.1-.8-.4-1.1s-.6-.5-1-.5-.8.2-1 .5c-.3.3-.4.7-.4 1.1v2.6c-2.4.3-4.6 1.2-6.4 2.7L154 13c-.3-.3-.6-.5-1-.5s-.8.1-1.1.3c-.2.3-.4.7-.3 1.1 0 .4.2.7.5 1l1.9 1.9c-1.4 1.8-2.3 4-2.6 6.3h-2.9c-.4 0-.8.1-1.1.4s-.5.6-.5 1 .2.8.5 1c.3.3.7.4 1.1.4h2.9c.3 2.3 1.2 4.6 2.7 6.4l-1.9 1.9c-.3.3-.5.6-.5 1s.1.8.3 1.1c.3.2.7.4 1.1.3.4 0 .7-.2 1-.5l1.8-1.9c1.8 1.4 4 2.3 6.3 2.6v2.6c0 .2 0 .4.1.6.1.2.2.4.3.5.1.2.3.3.5.4.2.1.4.1.6.2.4 0 .8-.2 1-.5.3-.3.4-.7.4-1.1v-2.6c2.3-.2 4.5-1.1 6.3-2.6l1.8 1.8c.3.3.6.5 1 .5s.8-.1 1.1-.3c.2-.3.4-.7.3-1.1 0-.4-.2-.8-.5-1l-1.8-1.8c1.5-1.8 2.5-4.1 2.8-6.4h2.4c.4 0 .8-.1 1.1-.4.3-.3.5-.6.5-1-.1-.4-.3-.8-.6-1zm-17-7v4.1c-.3.1-.7.3-1 .4l-2.9-2.9c1.2-.8 2.5-1.4 3.9-1.6zm-5.2 3.1 2.9 2.9c-.2.4-.4.8-.5 1.2h-4.1c.2-1.6.8-3 1.7-4.1zm-1.6 5.9h4.1c.1.4.3.8.5 1.2l-2.9 2.9c-.9-1.2-1.5-2.6-1.7-4.1zm3.1 5.4 2.9-2.9c.3.2.5.3.8.4v4.1c-1.3-.3-2.6-.8-3.7-1.6zm10-12.7-2.9 2.9c-.4-.3-.9-.5-1.4-.6l-.1-4c1.6.1 3.1.7 4.4 1.7zm-4.3 14.3v-4c.4-.1.9-.2 1.3-.5l2.9 2.9c-1.3.9-2.7 1.4-4.2 1.6zm5.5-3-2.9-2.9c.2-.3.4-.7.5-1.1h4.1c-.2 1.5-.8 2.8-1.7 4zm-2.4-5.9c-.1-.4-.2-.7-.4-1.1l2.9-2.9c.9 1.2 1.4 2.5 1.6 4h-4.1z"/>
	<g fill="#1c4c8c">
		<path d="m70.9 21.4-1.2 4.3h-.1v-7.2h-5.2v14.6h5.2l2.1-7.5h.1v7.5H77V18.5h-5.3l-.8 2.9zM143.3 33l-.1-.1c0-.1-.1-.1-.1-.2-1.3-2.3-2.5-4.5-3.8-6.8-.1-.1-.1-.3-.1-.4 0-.2 0-.3.1-.4 1.2-2.1 2.3-4.2 3.5-6.2.1-.1.1-.2.2-.4h-6.1c-.1 0-.1.1-.2.1l-.1.1s0 .1-.1.1c-.5 1.1-.9 2.2-1.4 3.4l-.7 1.7c0 .1-.1.2-.1.3l-.1.1h-.1v-5.7h-5.3v14.6h5.4v-5.9c.1.1.2.2.2.4l.5 1.3 1.5 3.9c0 .1.1.2.2.3.1.1.2.1.3.1h2.6l3.8-.3zM58 19.6v3.8c0 .1 0 .2-.1.2h-2v-5.2h-5.2V33H56v-6h2v6h5.2V18.5H58v1.1zM122.8 18.5v5.2h-2.1v-5.2h-5.2v14.6H120.3c.4 0 .4-.1.4-.5V27h2.1v6.1h5.3V18.5h-5.3zM84 25.7c-.1 0-.1 0 0 0 .8-.3 1.4-.8 1.7-1.7.3-.9.3-1.8.2-2.7-.4-1.8-2.1-3.2-4.3-3.4-1.1-.1-2.2.2-3.2.7-.1 0-.2.1-.2.2-.2.2-.2.3-.2.4v3.7c.5-.1 1-.3 1.5-.4.4 0 .9 0 1.3.1.1 0 .3.1.3.2.1.1.1.3.1.4 0 .3-.1.6-.4.7-.3.1-.5.2-.8.2h-.8v3h.7c.2 0 .5.1.7.1.7.2.8.8.3 1.3-.1.1-.3.3-.5.3-.1 0-.2.1-.4.1-.3.1-.7 0-1-.1-.2-.1-.5-.3-.7-.4-.2-.1-.3-.2-.5-.3V32c0 .5.2.7.6.9 1.3.6 2.7.8 4.1.4 2.3-.6 3.8-2.6 3.6-4.7.1-1.4-.7-2.6-2.1-2.9zM95.7 20.3c-.3 0-.5 0-.8-.1h-.7c-.4 0-.7 0-1.1-.1-.1 0-.1 0-.2-.1v-2h4.9c.3 0 .4-.1.4-.4v-5.2H87.5v20.7h8.1c1 0 2-.3 2.9-.7 1.3-.6 2.1-1.6 2.4-3 .3-1.5.4-3 0-4.5-.9-3-2.3-4.4-5.2-4.6zm-.2 6.8c-.1.5-.8 1-1.5 1-.4 0-.7 0-1.1-.1v-3.3c.3 0 .7.1 1 .1h.4c.1 0 .3 0 .4.1.2 0 .4.1.6.3.1.1.2.2.2.3v1.6zM35.6 27.4c-.1-.1-.1-.1-.1-.3V12.4H22.1v2.4c0 1.7-.1 3.4-.1 5.2 0 1 0 2.1-.1 3.1v1.2c0 .9-.2 1.7-.7 2.5-.2.3-.4.6-.7.7-.2.1-.3.1-.6 0V37h5.6l-.3-3.9h5.5l-.1 3.9h5.6v-9.5c-.3 0-.5 0-.6-.1zm-5.8.1H26c.6-.8.9-1.8 1.1-2.7 0-.2.1-.5.1-.7 0-.3.1-.6.1-.8V18.6c0-.3.1-.4.4-.4H29.8v9.3zM109.3 20.3s0-.1 0 0c-.1-.1-.2-.2-.3-.2V20c-.6-.7-1.2-1.5-2.1-1.8-1.7-.6-3.4.2-4.3 1.9-1.3 2.5-1.6 5.2-1.2 7.9.2 1.5.8 2.9 1.7 4.1.3.4.6.7 1.1 1 .4.2.9.4 1.4.4.5 0 1 0 1.4-.2.2-.1.3-.1.5-.2s.3-.2.5-.4l.2-.2c.2-.2.4-.5.6-.7l.1-.1.1-.1c.1-.1.1-.2.2-.3l.1-.1.1-.2v2.2h5V18.5h-5.2v1.8zm-.1 6.4c-.1.3-.2.6-.5.8-.5.5-1.2.5-1.7 0-.7-.8-.8-2.5-.1-3.3.1-.1.3-.2.4-.3.1 0 .1 0 .2-.1h.4c.2 0 .4 0 .5.1.1 0 .1.1.2.1 0 0 .1 0 .1.1.1 0 .1.1.2.2.1.2.2.3.3.5V25.1c0 .1.1.2.1.2 0 .2.1.3.1.5v.2c-.1.1-.1.4-.2.7z"/>
		<path d="M42.2 27H49.6c.1-1.1 0-2.2-.2-3.2-.4-2.2-1.6-3.8-3.6-5-.7-.4-1.5-.7-2.4-.7-3-.2-5.4 1.9-6.2 3.8-1.1 2.8-1.1 5.6.3 8.3.6 1.2 1.5 2.1 2.7 2.7 2.6 1.2 4.9.8 7.1-.9 1-.8 1.5-2 1.9-3.2-1.6-.2-3.2-.3-4.7-.4h-.1c-.1 0-.1.1-.1.1-.2.2-.3.5-.5.7-.5.5-1 .5-1.4-.1-.2-.4-.3-.8-.4-1.2 0-.1-.1-.2-.1-.4v-.3c0-.2.1-.2.3-.2zm1.2-4.9c.2 0 .3.1.4.2.1.1.2.2.3.4 0 .1.1.2.1.3 0 .1.1.3.1.4 0 .1.1.2.1.4H42c-.2-.9.6-1.9 1.4-1.7z"/>
	</g>
</svg>