<svg xmlns="http://www.w3.org/2000/svg" viewBox="0 0 200 50">
	<path fill="#00563F" d="M49.3506 29.7109v2.0192h-1.273v-3.1604l.7463-.0439c.2633-.2634.4389-.5707.6145-.9218.1317-.3512.3073-.7024.3951-1.1413.0877-.439.1755-.8779.2194-1.3608.0439-.4828.0878-1.0535.1317-1.5802l.1317-1.5803h5.048v6.6283l.7901.0438v3.1605h-1.273v-2.0192h-5.5308v-.0439zm2.2387-5.882c-.0439.6146-.0878 1.1413-.1317 1.6242-.0439.4828-.0878.9218-.1756 1.2729-.0878.3951-.1756.7024-.3073 1.0096-.1317.3073-.2633.5268-.4828.7902h3.1166v-5.4431h-1.9753l-.0439.7462zm10.5349 5.882l-.5267-1.7997h-2.8533l-.5706 1.7997h-1.668l2.6337-7.7695h2.107l2.5898 7.7695h-1.7119zm-1.4486-4.9602l-.4389-1.7119h-.0878l-.4829 1.7558-.5706 2.0192h2.1509l-.5707-2.0631zm8.6914 5.0041v-6.6282h-1.8437l-.0438.7023c-.0439.9657-.0878 1.7998-.1756 2.546-.0439.7023-.1756 1.3168-.3951 1.8436-.2195.5267-.4828.9218-.8779 1.2291-.3951.3072-.9218.5267-1.5802.6584l-.3512-1.1413c.439-.1756.7462-.3512.9657-.5706.2195-.2195.3951-.4829.5267-.834.1317-.3512.2195-.7902.2195-1.3169.0439-.5268.0878-1.2291.1317-2.0192l.1317-2.2387h4.9163v7.8134H69.367v-.0439zm3.2921-7.8134h1.6681v3.0288h1.6241c.395 0 .7901.0439 1.0974.1756.3511.1317.6145.2634.8779.439.2195.2194.4389.4389.5706.7462.1317.3072.2195.6145.2195 1.0096 0 .395-.0439.7023-.1756 1.0096-.1317.3072-.3072.5267-.5267.7462-.2195.2195-.4829.3512-.7901.439-.3073.1316-.6585.1755-1.0535.1755h-3.5556v-7.7695h.0439zm1.7119 4.1701v2.4582h1.4486c.3073 0 .6145-.0878.834-.3073.2195-.2195.3512-.5268.3512-.9657 0-.2195-.0439-.3951-.1317-.5268-.0878-.1755-.1756-.3072-.3073-.395-.1317-.0878-.2633-.1756-.395-.2195-.1317-.0439-.3073-.0878-.4829-.0878H74.371v.0439zm10.3155 3.5994v-3.4677h-3.0288v3.4677h-1.7119v-7.7695h1.7119v3.0727h3.0288v-3.1166h1.7119v7.7695h-1.7119v.0439zm3.38 0v-7.7695h5.3552v1.1852h-3.6872v1.9753h3.1166v1.1413h-3.1166v2.3265h3.8628v1.1851h-5.5308v-.0439zm11.6762-4.0384c.2633.0878.4833.2195.6143.3512.176.1317.307.3073.395.4829.088.1755.132.3511.176.5267.044.1756.044.3073.044.439 0 .3511-.044.6584-.176.9218-.132.2633-.307.5267-.483.7023-.219.2195-.4826.3512-.7898.439-.3073.1316-.6146.1755-1.0096.1755H94.958v-7.7695h3.38c.7901 0 1.4047.1756 1.8.5707.395.395.614.8779.614 1.5363 0 .1317-.044.2634-.044.3951-.044.1317-.087.3072-.175.4389-.088.1317-.176.3073-.307.3951-.132.1317-.3078.2634-.4833.3512v.0438zm-3.1605.6146v2.2826h1.4046c.439 0 .7463-.1317.9218-.3512.2195-.2195.3073-.4829.3073-.834 0-.3073-.0878-.5707-.3073-.7901-.2194-.2195-.5267-.3073-.9218-.3073h-1.4046zm0-3.1605v2.0192h1.2729c.3951 0 .6585-.0878.878-.2634.2194-.1756.3072-.395.3072-.7023s-.0878-.5706-.2633-.7462c-.1756-.1756-.4829-.2634-.878-.2634h-1.3168v-.0439zm12.8618 2.7215c0 .5707-.088 1.0974-.22 1.5803-.132.4828-.395.9218-.658 1.2729-.308.3512-.703.6146-1.142.8341-.439.2194-.965.3072-1.58.3072-.614 0-1.185-.0878-1.624-.3072-.439-.1756-.834-.439-1.141-.8341-.308-.3511-.527-.7901-.659-1.2729-.131-.4829-.219-1.0535-.219-1.6242 0-.5706.088-1.0974.219-1.5802.132-.4829.351-.9218.659-1.273.307-.395.658-.6584 1.141-.8779.439-.2195 1.01-.3073 1.668-.3073.658 0 1.185.1317 1.668.3073.439.2195.834.5268 1.141.8779.308.3951.483.7901.615 1.273.088.5267.132 1.0535.132 1.6241zm-1.756 0c0-.3511-.044-.7023-.088-1.0535-.044-.3511-.132-.6584-.263-.9218-.132-.2633-.308-.4828-.571-.6584-.22-.1756-.527-.2634-.922-.2634s-.702.0878-.966.2195c-.263.1756-.439.3951-.57.6584-.132.2634-.264.5707-.307.9218-.044.3512-.088.7024-.088 1.0535 0 .8779.131 1.5803.439 2.0631.307.4829.79.7024 1.492.7024.307 0 .615-.0878.834-.2195.22-.1317.439-.3512.571-.5707.131-.2633.263-.5267.307-.8779.088-.3072.132-.6584.132-1.0535zm6.716-4.0823c.395 0 .79.0439 1.141.0878s.658.1317.966.2195l-.22 1.2291c-.307-.0878-.614-.1317-.878-.1756-.263-.0439-.526-.0439-.746-.0439-.702 0-1.273.2195-1.668.6584-.395.439-.571 1.1413-.571 2.0631 0 .439.044.834.132 1.1852.088.3512.22.6146.395.834.176.2195.439.3951.703.5268.307.1317.658.1756 1.053.1756.088 0 .219 0 .351-.0439.132 0 .307-.0439.483-.0439s.351-.0439.527-.0878c.175-.0439.351-.0439.483-.0878l.263 1.1413c-.176.0439-.351.1317-.571.1756-.219.0438-.395.0877-.614.1316-.22.0439-.439.0878-.659.0878-.219.0439-.439.0439-.614.0439-.702 0-1.317-.0878-1.8-.3072-.483-.2195-.834-.4829-1.141-.8341-.307-.3511-.483-.7901-.615-1.2729-.131-.4829-.175-1.0096-.175-1.5803 0-.4389.044-.9218.175-1.4046.132-.4829.308-.9218.615-1.3169s.658-.7023 1.141-.9657c.483-.2634 1.098-.3951 1.844-.3951zm5.355 7.9451v-6.5843h-2.458v-1.2291h6.628v1.2291h-2.458v6.5843h-1.712zm12.159-3.8628c0 .5707-.088 1.0974-.219 1.5803-.132.4828-.395.9218-.659 1.2729-.307.3512-.702.6146-1.141.8341-.439.2194-.966.3072-1.58.3072-.615 0-1.186-.0878-1.668-.3072-.439-.1756-.834-.439-1.142-.8341-.307-.3511-.526-.7901-.658-1.2729-.132-.4829-.22-1.0535-.22-1.6242 0-.5706.088-1.0974.22-1.5802.132-.4829.351-.9218.658-1.273.308-.395.659-.6584 1.142-.8779.439-.2195 1.009-.3073 1.668-.3073.658 0 1.185.1317 1.668.3073.439.2195.834.5268 1.141.8779.307.3951.483.7901.614 1.273.132.5267.176 1.0535.176 1.6241zm-1.756 0c0-.3511-.044-.7023-.088-1.0535-.043-.3511-.131-.6584-.263-.9218-.132-.2633-.307-.4828-.571-.6584-.219-.1756-.526-.2634-.921-.2634s-.703.0878-.966.2195c-.22.1756-.439.3951-.571.6584-.131.2634-.263.5707-.307.9218-.044.3512-.088.7024-.088 1.0535 0 .8779.132 1.5803.439 2.0631.264.4829.79.7024 1.493.7024.307 0 .614-.0878.834-.2195.219-.1317.439-.3512.57-.5707.132-.2633.264-.5267.308-.8779.087-.3072.131-.6584.131-1.0535zm9.174 3.8628h-1.668v-3.1604c-.307.0877-.614.1316-.965.2194-.351.0439-.659.0878-.922.0878-.351 0-.702-.0439-1.054-.0878-.307-.0878-.614-.1755-.878-.3511-.263-.1756-.438-.3512-.57-.6146-.132-.2633-.22-.5706-.22-.9657v-2.8532h1.712v2.546c0 .4389.132.7023.351.8779.22.1756.527.2195.966.2195.264 0 .527-.0439.834-.0878.307-.0439.527-.1317.79-.2195v-3.38h1.668v7.7695h-.044zm6.321 0v-3.4677h-3.028v3.4677h-1.712v-7.7695h1.712v3.0727h3.028v-3.1166h1.668v7.7695h-1.668v.0439zm3.38-7.7695h1.668v3.0288h1.624c.396 0 .791.0439 1.098.1756.351.1317.614.2634.878.439.263.2194.439.4389.57.7462.132.3072.22.6145.22 1.0096 0 .395-.044.7023-.176 1.0096-.131.3072-.307.5267-.526.7462-.22.2195-.483.3512-.791.439-.307.1316-.658.1755-1.053.1755h-3.556v-7.7695h.044zm1.668 4.1701v2.4582h1.449c.307 0 .614-.0878.834-.3073.219-.2195.351-.5268.351-.9657 0-.2195-.044-.3951-.132-.5268-.087-.1755-.175-.3072-.307-.395-.132-.0878-.263-.1756-.395-.2195-.132-.0439-.307-.0878-.483-.0878h-1.317v.0439zm5.268 3.5994v-7.7695h1.668v7.8134h-1.668v-.0439zm8.252-7.7695h1.58v7.7695h-1.624v-5.2674c-.351.6145-.746 1.1852-1.097 1.7997s-.702 1.1852-1.098 1.7997l-1.053 1.7119h-1.668v-7.8134h1.668v5.3992h.044l.922-1.4925c.175-.3072.351-.6145.57-.9657.22-.3511.439-.7023.703-1.0974.219-.3511.439-.7023.614-1.0535.176-.3072.351-.6145.439-.7901zm-1.8-.7023c-.219 0-.439-.0439-.658-.1317-.219-.0878-.395-.1756-.571-.3511-.175-.1317-.351-.3073-.482-.4829-.132-.1756-.308-.3512-.439-.5706l.702-.5268c.219.3073.483.5707.746.7023.263.1317.483.2195.702.2195h.264c.088 0 .219-.0439.351-.0878.132-.0439.307-.1317.483-.2633.175-.1317.395-.3073.614-.5268l.483.439c-.175.2633-.351.5267-.57.7023-.176.2195-.395.3512-.571.4389-.22.1317-.395.2195-.571.2634-.131.1756-.307.1756-.483.1756zm8.297.7023h5.267v1.1413h-3.599v1.8875h1.668c.395 0 .79.0439 1.097.1317.351.0878.615.2634.878.439.22.2194.439.4389.527.7023.131.3073.219.6145.219 1.0096 0 .395-.044.7023-.175 1.0096-.132.3073-.308.5706-.527.7901-.22.2195-.483.3512-.79.4829-.307.1316-.659.1755-1.054.1755h-3.511v-7.7695zm1.668 4.1701v2.4582h1.448c.308 0 .615-.1317.834-.3073.22-.2195.351-.5268.351-.9657 0-.2195-.043-.3951-.087-.5268-.088-.1317-.176-.2633-.308-.395-.131-.0878-.263-.1756-.395-.2195-.175-.0439-.307-.0439-.483-.0439h-1.36zm10.535 3.5994l-.527-1.7997h-2.853l-.571 1.7997h-1.624l2.634-7.7695h2.107l2.589 7.7695h-1.755zm-1.449-4.9602l-.439-1.7119h-.044l-.483 1.7558-.57 2.0192h2.151l-.615-2.0631zm8.823 4.9602v-3.4677h-3.029v3.4677h-1.668v-7.7695h1.668v3.0727h3.029v-3.1166h1.712v7.7695h-1.712v.0439zm7.77-4.0822c.175.0438.351.1316.482.2194.132.0878.264.2195.352.3073.087.1317.175.2634.219.3951.044.1316.132.3072.176.4389l.702 2.7215h-1.668l-.658-2.3703c-.088-.3512-.264-.6146-.439-.7901-.22-.1756-.483-.3073-.878-.3073h-1.054v3.4677h-1.624v-7.7695h1.624v3.0727h.966c.132 0 .263 0 .395-.0439s.263-.0878.351-.1756c.132-.0878.22-.1755.307-.3072.088-.1317.176-.3073.22-.5707l.527-1.9753h1.624l-.571 2.2387c-.088.3073-.219.6145-.395.834-.176.2634-.395.439-.615.5268l-.043.0878zm-163.4234 3.336c.3073.2195.6584.3512 1.0974.3512.6584.0439 1.1413-.1756 1.4046-.5707.2634-.395.3951-.8779.3951-1.4046 0-.7901-.2195-1.3608-.6145-1.5803-.439-.2633-.9218-.395-1.4486-.395-.3072 0-.5706.0439-.7901.0439v3.5555h-.0439zm0-3.9945c.6145-.1317 1.1413-.1756 1.5363-.1756.6585 0 1.4047.1756 2.2826.4829.8779.3073 1.3169 1.0096 1.3169 2.0631 0 .7462-.3073 1.3168-.9218 1.7997-.6146.439-1.4486.6584-2.5021.6584-.4389-.0439-.7462-.0439-.9657-.0439h-3.775v-.4389h.5707c.3072 0 .4389-.0878.4389-.2634 0-.0439.0439-.0878.0439-.1756v-6.0137c0-.0878 0-.1317-.0439-.1755-.0439-.1756-.1756-.2634-.4389-.2634h-.5707v-.439h7.4623l.0438 1.9314h-.5267v-.4389c0-.1756-.2195-.3512-.6145-.5268-.3951-.1756-.9218-.3072-1.4486-.395-.5706-.0878-1.0096-.1317-1.273-.1317-.1755.0439-.3072.0439-.395.0878-.0878.0439-.1317.1317-.1317.2633v2.1948h-.0878zm-9.3058 3.9945c.3511.2634.7901.3951 1.2729.3951.5268-.0439.9218-.1756 1.1852-.5268.3073-.3072.439-.7901.439-1.3607 0-1.1852-.6146-1.7559-1.7998-1.7559h-1.1412v3.2483h.0439zm0-3.775H26.92c.3512-.0439.6145-.1756.834-.3951.2195-.2194.3073-.5267.3073-.9218 0-.2633-.0439-.5267-.1756-.7462-.1317-.2195-.3073-.3951-.5267-.4828-.2195-.1317-.5268-.1756-.878-.1756-.4389 0-.834.1317-1.1412.3511v2.3704zm2.6776.2634c.6584.0439 1.273.2194 1.7558.6145.5268.3512.7462.8779.7462 1.5364 0 .6584-.3072 1.1851-.8779 1.5802-.5706.395-1.4046.6145-2.4581.6145-.2195 0-.3951-.0439-.5268-.0439H22.311v-.4389h.5706c.3073 0 .439-.0878.439-.2634.0439-.0439.0439-.0878.0439-.1756v-6.0137c0-.0878 0-.1317-.0439-.1755-.0439-.1756-.1756-.2634-.439-.2634h-.5706v-.439h2.8971c.395 0 .9218 0 1.5802-.0439 1.3608 0 2.2826.1756 2.7654.5707.4829.395.7463.834.7463 1.3168 0 .3073-.0878.6146-.3073.8779-.2195.2634-.4829.439-.834.5707-.439.0878-.7902.1756-1.1413.1756zm-13.432 3.775h3.1165c.2195 0 .3951-.0439.439-.2195 0-.0439.0439-.0878.0439-.1756v-5.7942c0-.2634-.0439-.4389-.0878-.4828-.0439-.0439-.1317-.0878-.3073-.0878h-.9657c-.2194 0-.395.0439-.4828.1317-.0878.0878-.1756.2633-.2195.5706-.0439.0878-.0878.2634-.1317.5268-.1756.6145-.3512 1.2729-.5267 1.9314-.2195.6584-.3951 1.229-.6146 1.7997-.1317.3072-.2633.6145-.395.9657-.1317.3072-.2195.4828-.2195.5267-.0878.2195.0878.3073.3512.3073zm-.3951-6.8038v-.439h7.0672v.439h-.6146c-.3072 0-.4389.0878-.4389.2634v6.0136c0 .3512.1317.5268.4389.5268h.7902v2.3264h-.5707v-.5267c0-.2634-.2195-.4828-.7023-.6584-.4829-.2195-1.0096-.3512-1.668-.4829-.6146-.1317-1.1852-.1756-1.6242-.1756-.4389 0-.9657.0439-1.5802.2195-.6146.1317-1.1413.3073-1.5803.4829-.4389.2194-.6584.395-.7023.6145l-.0439.5267h-.6584l.1756-2.3264c.4828.0439.9657-.3512 1.4485-1.1413.439-.7901.834-1.7119 1.1413-2.7654s.439-1.7997.4829-2.2826c0-.2195-.0439-.3511-.1317-.4389-.0878-.0878-.3073-.1317-.6146-.1317h-.6145v-.0439zm24.9765-2.3704H28.4563c1.712-8.5157-10.7544-17.55818-16.5047-1.5363C13.9269-.445283 39.8692 6.40242 39.1668 20.0539zM.187629 29.8426H10.942C7.25481 10.6164 16.8679 4.6466 25.7348 5.91957 12.8295 2.84688-1.83156 6.66579.187629 29.8426z"/>
</svg>
