<svg xmlns="http://www.w3.org/2000/svg" viewBox="0 0 200 50">
	<path fill="#F34236" d="M98.2 8h-51C41.5667 8 37 12.5667 37 18.2v13.6C37 37.4333 41.5667 42 47.2 42h51c5.633 0 10.2-4.5667 10.2-10.2V18.2c0-5.6333-4.567-10.2-10.2-10.2Z"/>
	<path fill="#fff" d="M56.2394 28.7397v2.21h-9.214v-11.9h8.993v2.21h-6.256v2.584h5.525v2.142h-5.525v2.754h6.477Zm7.8531 2.414c-1.2127 0-2.312-.2607-3.298-.782-.9747-.5327-1.7453-1.2637-2.312-2.193-.5553-.9407-.833-2.0003-.833-3.179 0-1.1787.2777-2.2327.833-3.162.5667-.9407 1.3373-1.6717 2.312-2.193.986-.5327 2.091-.799 3.315-.799 1.0313 0 1.9607.1813 2.788.544.8387.3627 1.5413.884 2.108 1.564l-1.768 1.632c-.8047-.9293-1.802-1.394-2.992-1.394-.7367 0-1.394.1643-1.972.493-.578.3173-1.0313.765-1.36 1.343-.3173.578-.476 1.2353-.476 1.972 0 .7367.1587 1.394.476 1.972.3287.578.782 1.0313 1.36 1.36.578.3173 1.2353.476 1.972.476 1.19 0 2.1873-.4703 2.992-1.411l1.768 1.632c-.5667.6913-1.2693 1.2183-2.108 1.581s-1.7737.544-2.805.544Zm12.2868 0c-1.2354 0-2.3517-.2663-3.3491-.799-.9859-.5327-1.7623-1.2637-2.329-2.193-.5553-.9407-.833-1.9947-.833-3.162s.2777-2.2157.833-3.145c.5667-.9407 1.3431-1.6773 2.329-2.21.9974-.5327 2.1137-.799 3.3491-.799 1.2353 0 2.346.2663 3.332.799.986.5327 1.7623 1.2693 2.329 2.21.5666.9293.85 1.9777.85 3.145s-.2834 2.2213-.85 3.162c-.5667.9293-1.343 1.6603-2.329 2.193-.986.5327-2.0967.799-3.332.799Zm0-2.346c.7026 0 1.3373-.1587 1.904-.476.5666-.3287 1.0086-.782 1.326-1.36.3286-.578.493-1.2353.493-1.972 0-.7367-.1644-1.394-.493-1.972-.3174-.578-.7594-1.0257-1.326-1.343-.5667-.3287-1.2014-.493-1.904-.493-.7027 0-1.3374.1643-1.9041.493-.5666.3173-1.0143.765-1.343 1.343-.3173.578-.476 1.2353-.476 1.972 0 .7367.1587 1.394.476 1.972.3287.578.7764 1.0313 1.343 1.36.5667.3173 1.2014.476 1.9041.476Zm19.4097 2.142-.017-7.14-3.502 5.882h-1.241l-3.485-5.729v6.987H84.96v-11.9h2.278l4.454 7.395 4.386-7.395h2.261l.034 11.9h-2.584Z"/>
	<path fill="#333" d="M127.049 25.6125c.68.2154 1.213.578 1.598 1.088.386.4987.578 1.1164.578 1.853 0 1.0427-.408 1.8474-1.224 2.414-.804.5554-1.983.833-3.536.833h-6.154v-11.9h5.814c1.451 0 2.562.2777 3.332.833.782.5554 1.173 1.309 1.173 2.261 0 .578-.141 1.0937-.425 1.547-.272.4534-.657.8104-1.156 1.071Zm-6.001-3.638v2.805h2.737c.68 0 1.196-.119 1.547-.357.352-.238.527-.5893.527-1.054 0-.4646-.175-.8103-.527-1.037-.351-.238-.867-.357-1.547-.357h-2.737Zm3.213 7.752c.726 0 1.27-.119 1.632-.357.374-.238.561-.6063.561-1.105 0-.986-.731-1.479-2.193-1.479h-3.213v2.941h3.213Zm10.551-7.208c1.417 0 2.505.34 3.264 1.02.76.6687 1.139 1.683 1.139 3.043v5.219h-2.482v-1.139c-.498.85-1.428 1.275-2.788 1.275-.702 0-1.314-.119-1.836-.357-.51-.238-.901-.5666-1.173-.986-.272-.4193-.408-.8953-.408-1.428 0-.85.318-1.5186.952-2.006.646-.4873 1.638-.731 2.975-.731h2.108c0-.578-.175-1.02-.527-1.326-.351-.3173-.878-.476-1.581-.476-.487 0-.969.0794-1.445.238-.464.1474-.861.3514-1.19.612l-.952-1.853c.499-.3513 1.094-.6233 1.785-.816.703-.1926 1.423-.289 2.159-.289Zm-.204 7.633c.454 0 .856-.102 1.207-.306.352-.2153.601-.527.748-.935v-.935h-1.819c-1.088 0-1.632.357-1.632 1.071 0 .34.131.612.391.816.272.1927.641.289 1.105.289Zm12.566-7.633c1.134 0 2.046.34 2.737 1.02.703.68 1.054 1.6887 1.054 3.026v5.236h-2.652v-4.828c0-.7253-.158-1.2636-.476-1.615-.317-.3626-.776-.544-1.377-.544-.668 0-1.201.2097-1.598.629-.396.408-.595 1.02-.595 1.836v4.522h-2.652v-9.146h2.533v1.071c.352-.3853.788-.68 1.309-.884.522-.2153 1.094-.323 1.717-.323Zm10.122 5.695-1.275 1.258v2.329h-2.652v-12.614h2.652v7.14l3.876-3.672h3.162l-3.808 3.876 4.148 5.27h-3.213l-2.89-3.587Z"/>
</svg>