<?xml version="1.0" encoding="utf-8"?>
<!-- Generator: Adobe Illustrator 25.4.1, SVG Export Plug-In . SVG Version: 6.00 Build 0)  -->
<svg version="1.1" id="Layer_1" xmlns="http://www.w3.org/2000/svg" xmlns:xlink="http://www.w3.org/1999/xlink" x="0px" y="0px"
	 viewBox="0 0 200 50" style="enable-background:new 0 0 200 50;" xml:space="preserve">
<style type="text/css">
	.st0{fill:#009033;}
	.st1{fill:#575656;}
</style>
<path class="st0" d="M40.6,39.9h-7.3l-0.8,2H20V29.4l2-0.8v-7.5l-2-0.8V8h12.5l0.8,2h7.3l0.8-2h12.5v12.5l-2,0.7v7.5l2,0.8v12.5
	H41.3C41.3,41.9,40.6,39.9,40.6,39.9z M45.2,36.3h3v-3l-2-0.8V17.3l2-0.8v-3h-3l-0.8,2h-15l-0.8-2h-3v3l2,0.8v15.2l-2,0.8v3h3l0.8-2
	h15L45.2,36.3z"/>
<g>
	<polygon class="st1" points="77.2,34.2 74.8,34.2 74.8,31.7 73.6,31.7 73.6,37.9 74.8,37.9 74.8,35.4 77.2,35.4 77.2,37.9 
		78.5,37.9 78.5,31.7 77.2,31.7 	"/>
	<path class="st1" d="M83.3,34.8c0.2-0.1,0.4-0.3,0.7-0.7l1.5-2.3h-1.4l-1.2,1.9c-0.3,0.4-0.4,0.6-0.8,0.6h-0.5v-2.5h-1.2v6.2h1.2
		v-2.6h0.6c0.4,0,0.6,0.1,0.8,0.6c0,0,1.3,2,1.3,2h1.4l-1.5-2.4C83.7,35,83.5,34.8,83.3,34.8z"/>
	<path class="st1" d="M61.1,25.1c0,0.1,0,0.2,0.1,0.2c0.1,0,0.1,0.1,0.2,0.1h6.9c0.1,0,0.2,0,0.2-0.1c0.1-0.1,0.1-0.1,0.1-0.2v-1.7
		c0-0.2-0.1-0.3-0.3-0.3h-4.6v-1.2h3.4c0.1,0,0.2,0,0.2-0.1c0-0.1,0.1-0.1,0.1-0.2v-1.5c0-0.1,0-0.2-0.1-0.2c-0.1,0-0.1-0.1-0.2-0.1
		h-3.4v-2.2h4.4c0.1,0,0.2,0,0.2-0.1c0.1-0.1,0.1-0.1,0.1-0.2v-1.7c0-0.1,0-0.2-0.1-0.2c-0.1-0.1-0.1-0.1-0.2-0.1h-6.8
		c-0.1,0-0.2,0-0.2,0.1c-0.1,0.1-0.1,0.1-0.1,0.2h0V25.1z"/>
	<path class="st1" d="M75.8,20.2c0.1-0.1,0.2-0.2,0.3-0.3c0.1-0.2,0.2-0.3,0.4-0.5c0.1-0.2,0.3-0.4,0.4-0.6c0.2-0.2,0.3-0.4,0.5-0.6
		c0.2-0.2,0.3-0.3,0.5-0.4c0.2-0.1,0.4-0.2,0.5-0.2c0.1,0,0.1,0,0.2-0.1c0-0.1,0.1-0.1,0.1-0.2v-1.8c0-0.2-0.1-0.3-0.2-0.3
		c-0.5,0-1,0.1-1.4,0.2c-0.4,0.1-0.8,0.3-1.1,0.5c-0.3,0.2-0.6,0.5-0.8,0.9c-0.2,0.3-0.5,0.7-0.7,1.1c0,0,0,0.1-0.1,0.1
		c0,0.1-0.1,0.2-0.2,0.2c-0.1,0.1-0.1,0.2-0.2,0.3s-0.1,0.2-0.2,0.3c-0.1,0.1-0.1,0.1-0.2,0.2c-0.1,0.1-0.1,0.1-0.2,0.1v-3.6
		c0-0.1,0-0.2-0.1-0.2c-0.1-0.1-0.1-0.1-0.2-0.1h-2c-0.1,0-0.2,0-0.2,0.1c-0.1,0.1-0.1,0.1-0.1,0.2v9.5h0c0,0.2,0.1,0.3,0.3,0.3h2
		c0.2,0,0.3-0.1,0.3-0.3v-2.9c0.1,0,0.2,0,0.3,0c0.1,0,0.3-0.1,0.4-0.2l2.6,3.2c0.1,0.1,0.1,0.1,0.2,0.2c0.1,0,0.1,0.1,0.2,0.1h2.7
		c0.1,0,0.1,0,0.1-0.1c0-0.1,0-0.1-0.1-0.2L75.8,20.2z"/>
	<path class="st1" d="M98.6,15.3h-7.3c-0.1,0-0.2,0-0.2,0.1C91,15.4,91,15.5,91,15.6v1.7c0,0,0,0,0,0c0,0.1,0,0.2,0.1,0.3
		c0.1,0.1,0.1,0.1,0.2,0.1h2.3v7.4c0,0.1,0,0.2,0.1,0.2c0.1,0.1,0.1,0.1,0.2,0.1h2c0.1,0,0.2,0,0.2-0.1c0.1-0.1,0.1-0.1,0.1-0.2
		v-7.4h2.3c0.1,0,0.2,0,0.2-0.1c0.1-0.1,0.1-0.2,0.1-0.2v-1.7c0-0.1,0-0.2-0.1-0.2C98.8,15.3,98.7,15.3,98.6,15.3z"/>
	<path class="st1" d="M108.1,23h-4.6v-1.2h3.4c0.1,0,0.2,0,0.2-0.1s0.1-0.1,0.1-0.2v-1.5c0-0.1,0-0.2-0.1-0.2s-0.1-0.1-0.2-0.1h-3.4
		v-2.2h4.4c0.1,0,0.2,0,0.2-0.1s0.1-0.1,0.1-0.2v-1.7c0-0.1,0-0.2-0.1-0.2c-0.1-0.1-0.1-0.1-0.2-0.1h-6.8c-0.1,0-0.2,0-0.2,0.1
		c-0.1,0.1-0.1,0.1-0.1,0.2v9.5c0,0.1,0,0.2,0.1,0.2c0.1,0,0.1,0.1,0.2,0.1h6.9c0.1,0,0.2,0,0.2-0.1c0.1-0.1,0.1-0.1,0.1-0.2v-1.7
		C108.4,23.1,108.3,23,108.1,23z"/>
	<path class="st1" d="M129.7,14.9C129.7,14.9,129.7,14.9,129.7,14.9c-0.1-0.1-0.1-0.1-0.2-0.1c0,0-0.1,0-0.1,0c0,0-0.1,0-0.1,0.1
		l-5.9,5.4v-4.7c0-0.2-0.1-0.3-0.3-0.3h-1.9c-0.2,0-0.3,0.1-0.3,0.3c0,0,0,10,0,10.1c0,0,0,0.1,0,0.1c0,0,0,0.1,0.1,0.1
		c0,0,0.1,0,0.1,0c0,0,0.1,0,0.1,0c0,0,0.1,0,0.1-0.1l6-5.1V25c0,0.2,0.1,0.3,0.3,0.3h1.9c0.2,0,0.3-0.1,0.3-0.3c0,0,0-10,0-10
		C129.7,15,129.7,15,129.7,14.9z"/>
	<path class="st1" d="M140.9,15.3h-2c-0.1,0-0.2,0-0.2,0.1c-0.1,0.1-0.1,0.1-0.1,0.2v4.5h-3.4v-4.5c0-0.1,0-0.2-0.1-0.2
		c-0.1-0.1-0.1-0.1-0.2-0.1h-2c-0.1,0-0.2,0-0.2,0.1c-0.1,0.1-0.1,0.1-0.1,0.2v9.5c0,0.2,0.1,0.3,0.3,0.3h2c0.1,0,0.2,0,0.2-0.1
		c0.1-0.1,0.1-0.1,0.1-0.2v-2.6h3.4v2.6c0,0.1,0,0.2,0.1,0.2c0.1,0,0.1,0.1,0.2,0.1h2c0.1,0,0.2,0,0.2-0.1s0.1-0.1,0.1-0.2v-9.5
		c0-0.1,0-0.2-0.1-0.2C141.1,15.3,141,15.3,140.9,15.3z"/>
	<path class="st1" d="M160.6,15.3h-1.8c-0.1,0-0.2,0-0.3,0.1c-0.1,0-0.1,0.1-0.2,0.2l-1.2,3.9c-0.1-0.3-0.2-0.6-0.3-0.9
		c-0.1-0.3-0.5-1.7-0.6-2c-0.1-0.3-0.2-0.6-0.3-0.9c0-0.1-0.1-0.2-0.1-0.2c-0.1-0.1-0.2-0.1-0.3-0.1h-1.9c-0.2,0-0.3,0.1-0.3,0.2
		c0,0,0,0.1,0,0.1c0,0,0,0.1,0,0.1l2.6,6.4l-0.2,0.5c-0.1,0.2-0.2,0.3-0.2,0.4c-0.1,0.1-0.2,0.2-0.3,0.2c-0.1,0-0.2,0.1-0.3,0.1
		c-0.1,0-0.2,0-0.3,0c-0.1,0-0.1,0-0.2,0.1c0,0.1-0.1,0.1-0.1,0.2v2.1c0,0.2,0.1,0.3,0.3,0.3c0.4,0,0.7-0.1,1-0.2
		c0.3-0.1,0.6-0.2,0.8-0.4c0.2-0.2,0.5-0.4,0.7-0.7c0.2-0.3,0.3-0.5,0.5-0.9l0.2-0.5c0-0.1,0.2-0.5,0.3-0.6c0-0.1,0.1-0.1,0.1-0.2
		c0-0.1,0-0.1,0-0.1c0.2-0.5,0.4-1,0.5-1.5c0.2-0.5,1.8-4.6,2.1-5.3c0,0,0-0.1,0-0.1c0-0.1,0-0.1-0.1-0.2
		C160.8,15.3,160.7,15.3,160.6,15.3z"/>
	<path class="st1" d="M179.9,15.4c-0.1-0.1-0.1-0.1-0.2-0.1h-6.1c-0.2,0-0.3,0.1-0.3,0.3v9.5c0,0.1,0,0.2,0.1,0.2
		c0.1,0.1,0.1,0.1,0.2,0.1h2c0.1,0,0.1,0,0.2-0.1c0.1-0.1,0.1-0.1,0.1-0.2v-7.4h3.7c0.1,0,0.2,0,0.2-0.1c0.1-0.1,0.1-0.1,0.1-0.2
		v-1.8C180,15.5,180,15.4,179.9,15.4z"/>
	<path class="st1" d="M90.8,25.1l-4.3-9.7c0,0,0,0-0.1-0.1c0-0.1-0.1-0.1-0.1-0.2c0-0.1-0.1-0.2-0.2-0.2c-0.1-0.1-0.2-0.1-0.3-0.1h0
		c-0.2,0-0.3,0-0.3,0.1c-0.1,0.1-0.1,0.2-0.1,0.3c0,0.1-0.1,0.2-0.1,0.3L81,25.1c0,0,0,0,0,0.1c0,0,0,0,0,0.1c0,0.1,0.1,0.2,0.3,0.2
		h2.2c0.2,0,0.3-0.1,0.4-0.3l0.3-0.9h3.5l0.3,0.9c0.1,0.2,0.2,0.3,0.4,0.3h2.2c0.2,0,0.3-0.1,0.3-0.2C90.8,25.2,90.8,25.2,90.8,25.1
		C90.8,25.1,90.8,25.1,90.8,25.1z M84.8,22.2l1.1-3.1l1.1,3.1H84.8z"/>
	<path class="st1" d="M118.1,17.3c-0.2-0.3-0.4-0.6-0.7-0.8c-0.3-0.2-0.5-0.5-0.8-0.6c-0.3-0.2-0.6-0.3-1-0.4
		c-0.3-0.1-0.7-0.1-1.1-0.1h-2.3c0,0,0,0,0,0h-1.5c-0.1,0-0.2,0-0.2,0.1c0,0.1-0.1,0.1-0.1,0.2v9.5c0,0.1,0,0.2,0.1,0.2
		c0.1,0,0.1,0.1,0.2,0.1h2c0.2,0,0.3-0.1,0.3-0.3v-1.6h1.5c0.6,0,1.1-0.1,1.6-0.3c0.5-0.2,0.9-0.5,1.3-0.9c0.4-0.4,0.7-0.8,0.9-1.3
		c0.2-0.5,0.3-1,0.3-1.6c0-0.4,0-0.8-0.1-1.1C118.4,17.9,118.3,17.6,118.1,17.3z M116,20.1c-0.1,0.2-0.2,0.4-0.4,0.6
		c-0.2,0.2-0.4,0.3-0.6,0.4c-0.2,0.1-0.5,0.1-0.7,0.1h-1.2v-3.9h1.2c0.3,0,0.5,0.1,0.8,0.2c0.2,0.1,0.4,0.3,0.6,0.5
		c0.2,0.2,0.3,0.4,0.4,0.6c0.1,0.2,0.1,0.5,0.1,0.7C116.1,19.6,116.1,19.9,116,20.1z"/>
	<path class="st1" d="M151,19.9c-0.3-0.3-0.6-0.6-1-0.7c-0.4-0.2-0.8-0.3-1.3-0.3h-2.1v-1.3h4c0.1,0,0.2,0,0.2-0.1
		c0.1-0.1,0.1-0.1,0.1-0.2v-1.7c0-0.1,0-0.1-0.1-0.2c-0.1-0.1-0.1-0.1-0.2-0.1h-6.3c-0.1,0-0.2,0-0.2,0.1c-0.1,0-0.1,0.1-0.1,0.2
		v9.5c0,0.1,0,0.2,0.1,0.2c0,0.1,0.1,0.1,0.2,0.1h4.4c0.5,0,0.9-0.1,1.3-0.3c0.4-0.2,0.7-0.4,1-0.7c0.3-0.3,0.5-0.6,0.6-1
		c0.2-0.4,0.2-0.8,0.2-1.2c0-0.4-0.1-0.8-0.2-1.2C151.5,20.6,151.3,20.2,151,19.9z M149.1,22.6c0,0.1-0.1,0.2-0.2,0.3
		c-0.1,0.1-0.2,0.2-0.3,0.2c-0.1,0.1-0.3,0.1-0.4,0.1h-1.4V21h1.4c0.2,0,0.3,0,0.4,0.1c0.1,0.1,0.2,0.1,0.3,0.3
		c0.1,0.1,0.2,0.2,0.2,0.4c0,0.1,0.1,0.3,0.1,0.4C149.2,22.3,149.2,22.4,149.1,22.6z"/>
	<path class="st1" d="M170.7,17.3c-0.2-0.3-0.4-0.6-0.7-0.8c-0.3-0.2-0.5-0.5-0.8-0.6c-0.3-0.2-0.6-0.3-1-0.4
		c-0.3-0.1-0.7-0.1-1.1-0.1h-2.3v0h-1.5c-0.1,0-0.2,0-0.2,0.1c0,0.1-0.1,0.1-0.1,0.2v9.5c0,0.1,0,0.2,0.1,0.2c0.1,0,0.1,0.1,0.2,0.1
		h2c0.2,0,0.3-0.1,0.3-0.3v-1.6h1.5c0.6,0,1.1-0.1,1.6-0.3s0.9-0.5,1.3-0.9c0.4-0.4,0.7-0.8,0.9-1.3c0.2-0.5,0.3-1,0.3-1.6
		c0-0.4,0-0.8-0.1-1.1C171,17.9,170.9,17.6,170.7,17.3z M168.6,20.1c-0.1,0.2-0.2,0.4-0.4,0.6c-0.2,0.2-0.4,0.3-0.6,0.4
		c-0.2,0.1-0.5,0.1-0.7,0.1h-1.2v-3.9h1.2c0.3,0,0.5,0.1,0.8,0.2c0.2,0.1,0.4,0.3,0.6,0.5c0.2,0.2,0.3,0.4,0.4,0.6
		c0.1,0.2,0.1,0.5,0.1,0.7C168.7,19.6,168.7,19.9,168.6,20.1z"/>
	<path class="st1" d="M63.8,34h-1.5v-1.1h2.9v-1.2h-4.2v6.2h2.7c1.5,0,2.1-0.8,2.1-2C65.9,34.8,65.2,34,63.8,34z M63.8,36.8
		L63.8,36.8l-1.5,0v-1.6h1.5c0.7,0,1,0.3,1,0.8C64.7,36.5,64.5,36.8,63.8,36.8z"/>
	<path class="st1" d="M69.2,31.7l-2.6,6.2H68l0.4-1.1h2.2l0.4,1.1h1.4l-2.5-6.2H69.2z M68.8,35.6l0.7-1.7l0.7,1.7H68.8z"/>
</g>
</svg>
