<svg xmlns="http://www.w3.org/2000/svg" viewBox="0 0 200 50">
	<path fill="#1c27db" d="M31.2 9C22.3 9 15 16.2 15 25.1c0 8.9 7.3 16 16.2 16 8.9 0 16.2-7.1 16.2-16.1 0-4.2-1.7-8.3-4.8-11.3-3-3-7.1-4.7-11.4-4.7zm9 20.3c-1.7 3.6-5.4 5.8-9.4 5.6-3.8-.2-7.1-2.5-8.7-6-1.5-3.4-.9-7.4 1.6-10.3.3-.3.7-.3.9-.1l1.7 1.7c.3.3.3.6.1.9-1.8 2.1-1.9 5.1-.4 7.3s4.3 3.3 7 2.5c2.6-.8 4.4-3.1 4.4-5.9 0-1.4-.5-2.9-1.5-3.9-.2-.3-.2-.7 0-.9l1.8-1.7c.3-.3.7-.3.9 0 2.7 2.9 3.3 7.2 1.6 10.8zM61 18.9c-2.2-.1-4.1 1-5.3 2.8-.1.1-.1.3.1.3l1.4 1 .1.1c.1.1.3.1.4-.1.8-1.1 2-1.8 3.4-1.7 1.6-.1 3.1.9 3.5 2.4H59c-.1 0-.2 0-.3.1-.1.1-.1.2-.1.3v1.8c0 .1 0 .2.1.3.1.1.2.1.3.1h5.8c-.5 1.7-2 2.8-3.8 2.7-1.4.1-2.7-.5-3.5-1.7-.1-.1-.3-.1-.4 0l-1.4 1c-.1.1-.1.2-.1.3 1.6 2.3 4.5 3.3 7.1 2.5 2.7-.9 4.5-3.3 4.6-6 0-1.7-.7-3.3-1.8-4.5-1.2-1.1-2.8-1.8-4.5-1.7zM79.6 19.1h-2c-.1 0-.2 0-.3.1-.1 0-.1.1-.1.2v4.3h-5.6v-4.3c0-.1 0-.1-.1-.2 0-.1-.1-.1-.2-.1 0 0-2 0-2 .1-.1 0-.2 0-.3.1-.1 0-.1.1-.1.2V31c0 .1 0 .2.1.3.1.1.2.1.3.1h2c.1 0 .1 0 .2-.1.1 0 .1-.1.1-.2v-4.8h5.6V31c0 .1 0 .2.1.1.1.1.2.1.3.1h2c.1 0 .1 0 .2-.1.1 0 .1-.1.1-.2V19.4c0-.1 0-.1-.1-.2 0-.1-.1-.1-.2-.1zM88.2 18.9c-1.7-.1-3.3.6-4.6 1.8-1.2 1.2-1.9 2.8-1.8 4.5 0 3.6 2.7 6.2 6.5 6.2 2 0 3.9-.7 5.4-1.9.1-.1.1-.3 0-.3l-1-1.5-.1-.1c-.1-.1-.3-.1-.3.1-1.1.9-2.5 1.4-3.9 1.3-1.8.1-3.3-1-3.8-2.6h9.6c.2 0 .3-.1.3-.3v-.9c.1-1.6-.5-3.3-1.7-4.5-1.3-1.2-2.9-1.9-4.6-1.8zM84.5 24c.5-1.6 2-2.7 3.7-2.6 1.8 0 3.3 1 3.5 2.6h-7.2zM102.3 19c-1.3-.1-2.6.4-3.7 1.3h-.1l-.2-.9c0-.1-.2-.3-.3-.3h-1.5c-.1 0-.1 0-.2.1-.1 0-.1.1-.1.2v15.1c0 .1 0 .1.1.2 0 .1.1.1.2.1 0 0 2-.1 2 0 .1 0 .2 0 .3-.1.1-.1.1-.2.1-.3v-4.1c1 .8 2.2 1.2 3.5 1.1 1.7.1 3.3-.6 4.5-1.8 1.2-1.2 1.8-2.8 1.8-4.5.1-1.6-.6-3.3-1.8-4.5-1.3-1-2.9-1.7-4.6-1.6zm2.7 8.9c-.7.7-1.7 1.1-2.7 1-1.3.1-2.6-.5-3.5-1.4v-4.7c.9-1 2.2-1.5 3.5-1.4 1 0 2 .4 2.7 1.1.7.7 1 1.7 1 2.7 0 1-.3 2-1 2.7zM119.5 19.2h-8.8c-.1 0-.1 0-.2.1 0 .1-.1.1-.1.2V31c0 .1 0 .2.1.3.1.1.2.1.3.1l1.8.1c.1 0 .2 0 .3-.1.1-.1.1-.2.1-.3v-9.4h6.6c.1 0 .2 0 .3-.1.1-.1.1-.2.1-.3v-1.8c-.1-.2-.3-.3-.5-.3zM141.3 23h-3.4v-1.6h6.7c.1 0 .2 0 .3-.1.1-.1.1-.2.1-.3v-1.8c0-.1 0-.1-.1-.2s-.2-.1-.3-.1v.1h-9c-.1 0-.2 0-.3.1-.1 0-.1.1-.1.2v11.5c0 .1 0 .1.1.2s.2.1.3.1h5.7c2.6 0 4.7-1.6 4.7-4.1s-2.1-4-4.7-4zm0 5.8h-3.4v-3.4h3.4c1.4 0 2.1.7 2.1 1.7 0 1.1-.8 1.7-2.1 1.7zM127 18.9c-1.7 0-3.3.7-4.5 1.8-1.2 1.2-1.9 2.8-1.9 4.5 0 3.4 2.8 6.2 6.2 6.2s6.3-2.8 6.4-6.2c0-3.4-2.8-6.2-6.2-6.3zm0 10c-2.1 0-3.8-1.6-3.8-3.7s1.7-3.8 3.8-3.7c2.1 0 3.8 1.6 3.8 3.7 0 2-1.7 3.7-3.8 3.7zM158.2 29.5c-.2-.8-.3-1.6-.3-2.5v-3.9c0-3-2.4-4.2-5-4.2-1.9-.1-3.8.5-5.3 1.7l-.1.1c-.1.1-.1.3 0 .5l.9 1.2c.1.1.3.2.5.1 1.2-.8 2.6-1.2 3.9-1.1 1.3 0 2.4.5 2.4 1.5v.3l-3.9.5c-2.8.3-4.4 1.7-4.4 4s1.8 3.8 4.4 3.8c1.6.1 3.1-.5 4.3-1.6h.1l.6 1.4c0 .1.1.1.1.2.1.1.2.1.3 0l1.6-.5c0-.1.1-.1.1-.1.2-.1.2-.3.1-.4l-.3-1zm-2.8-2.2c-.9 1.1-2.2 1.8-3.7 1.7-1.4 0-2-.6-2-1.5 0-.8.5-1.4 1.8-1.6l3.9-.7v2.1zM184.9 30.8l-5.7-6.5 5.4-5c.1-.1.1-.3-.1-.3h-2.8c-.2 0-.4.1-.6.2l-5 4.9v-4.8c0-.1 0-.1-.1-.2s-.2-.1-.3-.1v.1h-2c-.1 0-.2 0-.3.1-.1 0-.1.1-.1.2v11.3c0 .1 0 .2.1.3.1.1.2.1.3.1h2c.1 0 .2 0 .3-.1.1 0 .1-.1.1-.2v-3.9l1.3-1 4.1 5.1c.2.1.4.2.6.2h2.7c.2 0 .3-.2.1-.4zM170.9 19.1h-2c-.1 0-.2 0-.3.1-.1 0-.1.1-.1.2v4.3H163v-4.3c0-.1 0-.1-.1-.2s-.2-.1-.3-.1v.1h-2c-.1 0-.2 0-.3.1-.1 0-.1.1-.1.2V31c0 .1 0 .2.1.3.1.1.2.1.3.1h2c.1 0 .2 0 .3-.1.1 0 .1-.1.1-.2v-4.8h5.6V31c0 .1 0 .1.1.2s.2.1.3.1h2c.1 0 .2 0 .3-.1.1-.1.1-.2.1-.3V19.4c0-.1 0-.1-.1-.2-.2-.1-.3-.1-.4-.1z"/>
</svg>
