<svg xmlns="http://www.w3.org/2000/svg" viewBox="0 0 200 50">
	<path fill="#b4241c" d="M43.1 10.5l4.3 3.4c.6-.8 1.1-1.6 1.7-2.5L44.8 8c-.5.9-1.1 1.7-1.7 2.5zM57.3 17.7c-.5.9-1.1 1.8-1.7 2.5l4.3 3.4c.6-.8 1.1-1.6 1.7-2.5l-4.3-3.4z"/>
	<path fill="#c23f31" d="M40.7 13.3l4.3 3.4c.7-.7 1.4-1.4 2.1-2.3L42.7 11c-.6.9-1.3 1.6-2 2.3zM55.2 20.8c-.7.8-1.4 1.6-2.1 2.3l4.3 3.4c.7-.7 1.4-1.4 2.1-2.3l-4.3-3.4z"/>
	<path fill="#da8c97" d="M39.2 14.5c-.5.4-1 .7-1.6 1.1L42 19l.1-.1c.8-.5 1.6-1.1 2.4-1.8l-4.3-3.4c-.3.3-.7.6-1 .8zM52.7 23.5c-.3.3-.7.5-1 .8-.5.4-1 .7-1.6 1.1l4.3 3.4.1-.1c.8-.5 1.6-1.1 2.4-1.8l-4.2-3.4z"/>
	<path fill="#edcdcd" d="M34.2 17.5l4.4 3.4c.9-.5 1.9-1 2.8-1.6L37.1 16c-.9.5-1.8 1-2.9 1.5zM49.5 25.7c-.8.5-1.8 1-2.9 1.5l4.4 3.4c.9-.5 1.9-1 2.8-1.6l-4.3-3.3z"/>
	<path fill="#da8d8d" d="M30.4 19.2l4.2 3.3c.1 0 .2-.1.3-.1 1-.3 2-.7 3-1.2l-4.4-3.4c-.9.5-1.9 1-3.1 1.4zM46 27.6c-1 .5-2 .9-3.1 1.4l4.2 3.3c.1 0 .2-.1.3-.1 1-.3 2-.7 3-1.2L46 27.6z"/>
	<path fill="#c52e1a" d="M28.3 20.1c-.6.2-1.2.5-1.7.8l4.3 3.4c.9-.6 1.9-1.1 3-1.5l-4.2-3.3c-.4.2-.9.4-1.4.6zM42.2 29.3c-.5.2-.9.4-1.4.6-.6.2-1.2.5-1.7.8l4.3 3.4c.9-.6 1.9-1.1 3-1.5l-4.2-3.3z"/>
	<path fill="#a6201c" d="M23.7 23.4l4.3 3.4c.7-.8 1.5-1.5 2.3-2.1L26 21.3c-.8.6-1.6 1.3-2.3 2.1zM38.5 31.1c-.8.6-1.6 1.3-2.3 2.1l4.3 3.4c.7-.8 1.5-1.5 2.3-2.1l-4.3-3.4z"/>
	<path fill="#a01f1c" d="M21.6 26.4l4.3 3.3c.5-.9 1.1-1.8 1.7-2.5l-4.3-3.4c-.6.9-1.2 1.7-1.7 2.6zM35.8 33.6c-.6.8-1.2 1.6-1.7 2.5l4.3 3.3c.5-.9 1.1-1.8 1.7-2.5l-4.3-3.3z"/>
	<path fill="#791d19" d="M20 29.8l4.3 3.4c.1-.5.3-1.2.6-1.9.2-.4.4-.7.6-1.1L21.3 27c-.5.9-.9 1.8-1.3 2.8zM33.7 36.7c-.5.9-.9 1.8-1.3 2.9l4.3 3.4c.1-.5.3-1.2.6-1.9.2-.4.4-.7.6-1.1l-4.2-3.3z"/>
	<path fill="#dfaf1f" d="M49.3 15.3c.6-.8 1.1-1.6 1.7-2.5l4.3 3.4c-.5.9-1.1 1.8-1.7 2.5l-4.3-3.4z"/>
	<path fill="#f0d24f" d="M46.9 18.1c.7-.7 1.4-1.4 2.1-2.3l4.3 3.4c-.7.8-1.4 1.6-2.1 2.3l-4.3-3.4z"/>
	<path fill="#f6da82" d="M43.9 20.4c.6-.4 1.1-.7 1.6-1.1.3-.2.7-.5 1-.8l4.3 3.4c-.8.7-1.6 1.3-2.4 1.8l-.1.1-4.4-3.4z"/>
	<path fill="#fff8be" d="M40.4 22.3c1.1-.5 2-1 2.9-1.5l4.3 3.4c-.9.6-1.9 1.1-2.8 1.6l-4.4-3.5z"/>
	<path fill="#f6de73" d="M36.6 24.1c1.1-.5 2.2-.9 3.1-1.4l4.4 3.4c-1 .5-2 .9-3 1.2-.1 0-.2.1-.3.1l-4.2-3.3z"/>
	<path fill="#e4a922" d="M32.8 25.7c.5-.3 1.1-.6 1.7-.8.5-.2 1-.4 1.4-.6l4.2 3.3c-1.1.4-2.1.9-3 1.5l-4.3-3.4z"/>
	<path fill="#c6972c" d="M29.9 28.2c.7-.8 1.5-1.5 2.3-2.1l4.3 3.4c-.8.6-1.6 1.3-2.3 2.1l-4.3-3.4z"/>
	<path fill="#c48422" d="M27.8 31.2c.5-.9 1.1-1.8 1.7-2.5l4.3 3.4c-.6.7-1.2 1.6-1.7 2.5l-4.3-3.4z"/>
	<path fill="#b86821" d="M30.5 38.1l-4.3-3.4c.4-1 .8-2 1.3-2.9l4.2 3.3c-.2.3-.4.7-.6 1.1-.2.7-.5 1.4-.6 1.9z"/>
	<path fill="#d9a41f" d="M51.4 12.4c.5-.8 1.1-1.8 1.5-2.8l4.3 3.4c-.4.9-1 1.9-1.4 2.7l-4.4-3.3z"/>
	<path fill="#d5931f" d="M53.2 9c.5-.9.8-2 1.1-3l4.3 3.4c-.3 1-.7 2.1-1.2 2.9L53.2 9z"/>
	<path fill="#060909" d="M87.1 15.5h-3.8v-1.6h-4.8v1.6h-3.6c-4 0-7.3 3.3-7.3 7.3v3.3c0 4 3.3 7.3 7.3 7.3h3.7v1.8h4.8v-1.8h3.8c4 0 7.3-3.3 7.3-7.3v-3.3c-.1-4.1-3.4-7.3-7.4-7.3zm-8.6 14.2h-1.7c-2.4 0-4.3-2-4.3-4.3v-2c0-2.4 2-4.3 4.3-4.3h1.7v10.6zm11-4.3c0 2.4-2 4.3-4.3 4.3h-1.8V19.1h1.8c2.4 0 4.3 2 4.3 4.3v2zM101.6 26.2l.1-10.7h-4.8v17.8h4.7l7.5-10.6v10.6h4.7V15.5H109zM129.3 22.6h-7.4v-7.1H117v17.8h4.9v-7.2h7.4v7.2h4.9V15.5h-4.9zM175.3 15.5c-1.7.1-2.9 1.2-3.3 2.5-1.1 3.4-2.2 6.9-3.3 10.2l-3.4-10.3c-.5-1.4-1.4-2.3-3.5-2.4h-4.4v17.8h4.8V20.9l4.1 12.4h4.6l4.2-12.5v12.5h4.8V15.5h-4.6zM148.4 15.5H138V19l8.3-.1c2.1.1 3.5.8 3.5 2.7v.9h-7.5c-7.5 0-7.7 10.9.2 10.7h11.6v-11c.1-4.5-2.2-6.7-5.7-6.7zm1.4 14.3H143c-2.6 0-2.6-3.6 0-3.6h6.8v3.6z"/>
</svg>
