<svg xmlns="http://www.w3.org/2000/svg" viewBox="0 0 200 50">
	<path fill="#101820" d="M58.2 12h3.6v7.5h1.9v-9.1h-7.4v9.1h1.9zM72.6 17.9h-5.1v-2.3H72V14h-4.5v-2h4.8v-1.6h-6.7v9.1h7zM76 16.3h2.1c.5 0 .9-.1 1.3-.2s.7-.3.9-.6c.3-.3.5-.6.6-.9.1-.4.2-.8.2-1.2 0-.5-.1-.9-.2-1.2-.1-.4-.3-.7-.5-.9-.2-.3-.5-.4-.9-.6-.4-.1-.8-.2-1.3-.2H74v9.2h2v-3.4zm0-4.3h1.8c.2 0 .4 0 .6.1.2.1.3.1.4.2.1.1.2.3.3.4.1.2.1.4.1.6 0 .5-.1.8-.4 1-.2.2-.6.3-1 .3H76V12zM88.2 19.4c.4-.1.8-.3 1.1-.5.3-.2.5-.5.7-.9.2-.3.2-.7.2-1.2v-.6c0-.2-.1-.4-.2-.6-.1-.2-.2-.4-.4-.6-.2-.2-.4-.3-.7-.4.2-.1.4-.2.5-.3.1-.1.3-.3.3-.4.1-.2.2-.3.2-.5s.1-.4.1-.6c0-.2 0-.3-.1-.5 0-.2-.1-.4-.2-.5-.1-.2-.2-.3-.3-.5-.1-.2-.3-.3-.5-.4-.2-.1-.5-.2-.7-.3-.3-.1-.6-.1-1-.1h-4.5v9.2h4.2c.5-.2.9-.2 1.3-.3zM84.5 12h2.9c.1 0 .3.1.4.2l.3.3c.1.1.1.3.1.5s0 .3-.1.5l-.3.3c-.1.1-.3.1-.4.2h-3v-2zm0 3.5h2.9c.2 0 .3.1.5.2.1.1.3.2.3.4.1.2.1.4.1.6 0 .2 0 .4-.1.6-.1.2-.2.3-.3.4-.1.1-.3.2-.5.2s-.4.1-.6.1h-2.4v-2.5zM100.1 10.4h1.9v9.2h-1.9zM96.3 19.5c.2 0 .4 0 .6-.1.2-.1.5-.1.7-.2.2-.1.4-.3.6-.5.2-.2.4-.5.5-.8.1-.3.2-.7.2-1.2s-.1-.9-.2-1.2c-.1-.3-.3-.6-.5-.8-.2-.2-.4-.4-.7-.5-.2-.1-.5-.2-.7-.2-.2-.1-.5-.1-.7-.1h-2.3v-3.6h-1.9v9.2h4.4zM93.8 18v-2.5h2.1c.2 0 .4.1.5.2.2.1.3.2.4.4.1.2.1.4.1.7 0 .3 0 .5-.1.7-.1.2-.2.3-.4.4-.2.1-.3.1-.5.2h-2.1zM107.6 9.9c.8 0 1.4-.2 1.8-.5.4-.3.6-.8.6-1.4h-1.4v.4c0 .1-.1.2-.2.3-.1.1-.2.1-.3.2-.1 0-.3.1-.4.1-.2 0-.3 0-.4-.1-.1 0-.2-.1-.3-.2-.1-.1-.1-.2-.2-.3 0-.1-.1-.2-.1-.4h-1.4c0 .7.2 1.1.6 1.4.3.4.9.5 1.7.5zM111.1 19.5v-9.1h-1.9l-3.6 6.2v-6.2h-1.9v9.1h2l3.6-6.1v6.1zM61.8 24.5h.1v6.2h1.8v-9.2h-1.9l-3.7 6.2v-6.2h-1.8v9.2h1.9zM67.4 26.6H71v4.1h1.9v-9.2H71V25h-3.6v-3.5h-1.9v9.2h1.9zM82.2 26.7c-.1-.2-.2-.4-.4-.6-.2-.2-.4-.3-.7-.4.2-.1.4-.2.5-.3.1-.1.3-.3.3-.4.1-.2.2-.3.2-.5s.1-.4.1-.6c0-.2 0-.3-.1-.5 0-.2-.1-.4-.2-.5-.1-.2-.2-.3-.3-.5-.1-.2-.3-.3-.5-.4-.2-.1-.5-.2-.7-.3-.3-.1-.6-.1-1-.1h-4.5v9.2H79c.5 0 1-.1 1.4-.2.4-.1.8-.3 1.1-.5.3-.2.5-.5.7-.9.2-.3.2-.7.2-1.2v-.6c0-.3-.1-.5-.2-.7zm-5.5-3.6h2.9c.1 0 .3.1.4.2l.3.3c.1.1.1.3.1.5s0 .3-.1.5l-.3.3c-.1.1-.3.1-.4.2-.2 0-.3.1-.5.1h-2.4v-2.1zm3.7 5.3c-.1.2-.2.3-.3.4-.1.1-.3.2-.5.2s-.4.1-.6.1h-2.4v-2.5h3c.2 0 .3.1.5.2.1.1.3.2.3.4.1.2.1.4.1.6 0 .2 0 .4-.1.6zM90.8 23.1v-1.6H84v9.2h7V29h-5.1v-2.3h4.5v-1.6h-4.5v-2zM94.4 24c.1-.2.3-.4.4-.6.2-.1.3-.3.5-.3.2-.1.3-.1.5-.2h.4c.3 0 .5 0 .7.1.2.1.4.1.5.2.1.1.3.2.4.3.1.1.2.2.2.3.1.1.1.2.2.3 0 .1.1.2.1.3h1.9c0-.2-.1-.4-.1-.7-.1-.2-.2-.5-.3-.7-.1-.2-.3-.5-.5-.7-.2-.2-.5-.4-.7-.6-.3-.2-.6-.3-1-.4-.4-.1-.8-.2-1.3-.2-.3 0-.7 0-1 .1-.3.1-.7.2-1 .4l-.9.6c-.3.3-.5.6-.7.9-.2.4-.3.8-.5 1.2-.1.5-.2 1-.2 1.5 0 .7.1 1.4.3 2 .2.6.5 1.1.8 1.5.4.4.8.7 1.3 1 .5.2 1.1.3 1.8.3.5 0 .9-.1 1.4-.2.4-.1.8-.3 1.2-.6.3-.3.6-.6.9-1 .2-.4.4-.9.5-1.5h-1.9c0 .1-.1.3-.2.5l-.3.6c-.2.2-.4.3-.6.5-.3.1-.6.2-1 .2-.3 0-.7-.1-.9-.2-.3-.1-.5-.3-.7-.6-.2-.3-.3-.6-.4-1-.2-.3-.2-.7-.2-1.2s0-.9.1-1.2l.3-.9zM100.9 23.1h2.8v7.6h1.9v-7.6h2.8v-1.6h-7.5zM111.3 27.7h-.1v-6.2h-1.8v9.2h1.9l3.7-6.2v6.2h1.8v-9.2h-1.9zM126 21.5h-1.9v7.6h-3.6v-7.6h-1.9v9.2h6.7v1.9h1.7v-3.5h-1zM129.9 27.7h-.1v-6.2H128v9.2h1.9l3.7-6.2v6.2h1.8v-9.2h-1.9zM144.5 22.7c-.4-.4-.8-.8-1.4-1-.5-.2-1.2-.4-1.8-.4-.7 0-1.4.1-1.9.4-.6.2-1 .6-1.4 1-.4.4-.6.9-.8 1.5-.2.6-.3 1.2-.3 1.9s.1 1.3.3 1.9c.2.6.5 1.1.8 1.5.4.4.8.8 1.4 1 .6.2 1.2.4 1.9.4s1.3-.1 1.8-.4c.5-.2 1-.6 1.4-1 .4-.4.7-.9.9-1.5.2-.6.3-1.2.3-1.9s-.1-1.3-.3-1.9c-.2-.6-.5-1.1-.9-1.5zm-.9 4.6c-.1.4-.3.7-.5 1-.2.3-.5.5-.8.7-.3.2-.7.2-1 .2s-.7-.1-1-.2c-.3-.2-.6-.4-.8-.7-.2-.3-.4-.6-.5-1-.1-.4-.2-.8-.2-1.3s.1-.9.2-1.3.3-.7.5-1c.2-.3.5-.5.8-.7.3-.2.7-.2 1-.2s.7.1 1 .2c.3.2.6.4.8.7.2.3.4.6.5 1 .1.4.2.8.2 1.3s-.1 1-.2 1.3zM152.6 25H149v-3.5h-1.9v9.2h1.9v-4.1h3.6v4.1h2v-9.2h-2zM161.8 25h-3.5v-3.5h-2v9.2h2v-4.1h3.5v4.1h2v-9.2h-2zM172.1 25.9c-.2-.2-.4-.4-.7-.5-.2-.1-.5-.2-.7-.2-.2-.1-.5-.1-.7-.1h-2.3v-3.6h-1.9v9.2h4.4c.2 0 .4 0 .6-.1.2-.1.5-.1.7-.2.2-.1.4-.3.6-.5.2-.2.4-.5.5-.8s.2-.7.2-1.2-.1-.9-.2-1.2c-.2-.3-.4-.6-.5-.8zm-1.4 2.6c-.1.2-.2.3-.4.4-.2.1-.3.1-.5.2h-2.1v-2.5h2.1c.2 0 .4.1.5.2.2.1.3.2.4.4.1.2.1.4.1.7 0 .2 0 .4-.1.6zM174 21.5h1.9v9.2H174zM183.1 21.5l-3.7 6.2v-6.2h-1.8v9.2h1.9l3.6-6.2h.1v6.2h1.8v-9.2zM181.4 21c.8 0 1.4-.2 1.8-.5.4-.3.6-.8.6-1.4h-1.4v.4c0 .1-.1.2-.2.3-.1.1-.2.1-.3.2-.1 0-.3.1-.4.1-.2 0-.3 0-.4-.1-.1 0-.2-.1-.3-.2-.1-.1-.1-.2-.2-.3 0-.1-.1-.2-.1-.4H179c0 .7.2 1.1.6 1.4.4.4 1 .5 1.8.5zM63.2 37c-.2-.2-.4-.4-.7-.5-.2-.1-.5-.2-.7-.2-.2-.1-.5-.1-.7-.1h-2.8v-2H63v-1.6h-6.7v9.2h4.9c.2 0 .4 0 .6-.1.2-.1.5-.1.7-.2.2-.1.5-.3.6-.5.2-.2.4-.5.5-.8.1-.3.2-.7.2-1.2s-.1-.9-.2-1.2c0-.3-.2-.6-.4-.8zm-1.4 2.6c-.1.2-.2.3-.4.4-.2.1-.3.1-.5.2h-2.6v-2.5h2.6c.2 0 .4.1.5.2.2.1.3.2.4.4.1.2.1.4.1.7.1.2 0 .4-.1.6zM68.1 32.6l-3.3 9.2h2l.6-1.9h3.4l.6 1.9h2.1l-3.2-9.2h-2.2zm-.2 5.7l1.2-3.6 1.1 3.6h-2.3zM80.1 36.1h-3.6v-3.5h-1.9v9.2h1.9v-4.1h3.6v4.1H82v-9.2h-1.9zM91.9 32.6h-2.4L86 36.3v-3.7h-2v9.2h2v-3.1l.9-1 2.8 4.1h2.4l-3.9-5.4z"/>
	<g fill="#ea002a">
		<path d="M23.1 32.7H15v9.5h9.4V34c0-.8-.6-1.3-1.3-1.3zM27.4 10.1H15v9.5h12.5c5.5 0 9.9 4.4 9.9 9.9v12.7h9.5V29.5c0-10.7-8.7-19.4-19.5-19.4z"/>
		<path d="M27.4 21.4H15v9.5h8.5c1.5 0 2.7 1.2 2.7 2.7v8.6h9.4V29.6c0-4.5-3.7-8.2-8.2-8.2z"/>
	</g>
</svg>
