<svg xmlns="http://www.w3.org/2000/svg" viewBox="0 0 200 50">
	<g fill="#E92314">
		<path d="M47.6447 36.4028c-3.1312-.9582-8.2155-1.5817-13.9461-1.5817-5.584 0-10.549.5914-13.6986 1.5083v2.3152h27.6218v-2.2464l.0229.0046zM33.8544 23.3552c5.6252.0229 10.847 2.9525 13.7903 6.0241v-2.3152c-3.1817-4.5753-8.2017-7.5278-13.8499-7.5278-5.6252.0229-10.6223 2.9708-13.7948 7.5232v2.3152c2.9433-3.067 7.9908-5.804 13.7948-6.0149v.0046c-.0045.0046 0 .0137.0092.0183h.0046l.0092.0046c.0137.0092.0321.0092.0366-.0137.0046-.0046.0046-.0092 0-.0184l-.0091.0046.0091-.0046z"/>
		<path d="M33.7948 31.007l.0321-.0092h.0046l.0229.0092v-.0092c5.6161.0092 10.2831 1.2837 13.7811 2.9891l.0092.0229v-2.3197c-3.4247-2.6866-8.1559-4.3462-13.8178-4.5112-5.6664.165-10.4023 1.8246-13.8269 4.5158v2.3151l.0092-.0183c3.5025-1.7054 8.1604-2.9845 13.7856-2.9891v.0046z"/>
	</g>
	<g fill="#000">
		<path d="M162.877 33.5102l.064-16.298-2.352-.0092-.023 6.0745-6.547-.0275.023-6.0745-4.621-.0183-.004 1.4808 2.274.0092-.06 14.8171 2.347.0138.032-8.706 6.552.0275-.032 8.706 2.347.0046zM68.1376 16.6254H63.521v1.2974l2.2876.0046v.8527c-.2659.0092-.5593.0229-.7381.0321-4.0756.2292-6.2303 3.1312-6.2487 6.4642-.0229 3.443 2.4252 6.1845 6.2625 6.4825.2063.0138.4905.0183.7243.0183v1.9439h2.329v-1.9255c.2384 0 .5318 0 .7427-.0184 3.8326-.298 6.2808-3.0395 6.2624-6.4825-.0183-3.3329-2.1776-6.2349-6.2487-6.4687-.1879-.0092-.4859-.023-.7564-.0321v-2.1685zm-2.329 3.3283V30.599c-.2154-.0137-.4722-.0412-.6876-.0733-2.1869-.298-3.8327-2.6132-3.819-5.3273.0138-2.6911 1.3525-4.7037 3.2826-5.1071.2842-.0596.8206-.1146 1.224-.1376zm2.329 10.6682V19.9675c.4034.0229.9536.0779 1.2378.1375 1.9301.4035 3.2688 2.4207 3.2825 5.1118.0138 2.714-1.6321 5.0292-3.8189 5.3318-.2155.0275-.4814.055-.7014.0733zm64.9584-9.6321v-3.8097h-7.345v-.0046l-2.319.0046v14.7943h-2.361v1.5174h6.789c4.204 0 6.35-3.1908 6.217-5.5426-.147-2.6316-2.352-4.1674-4.617-4.6167-.279-.055-.504-.0871-.72-.11-.692-.0642-.926.0046-2.993-.0229v-4.58l5.937-.0091V20.9898h1.412zM127.09 31.979h-1.339v-7.3078l1.642.0046c2.787.0092 4.084 1.6459 4.149 3.4292.073 1.9897-1.513 4.0023-4.452 3.874zm-26.146-14.7485l-7.3577-.0321-.0046 1.4808 2.2877.0092-.055 14.8172 2.361.0092.0275-7.2207 2.6771.0092c2.815.0092 4.897-1.9805 4.91-4.5524.005-2.4711-2.067-4.5112-4.846-4.5204zm-1.0127 7.5508l-1.7238-.0092.0229-6.0745 1.7284.0046c2.1132.0091 3.4432 1.3066 3.4382 3.0349-.014 1.8017-1.357 3.0533-3.4657 3.0442zM180 33.5102l-7.285-9.9163 6.712-6.3817-2.146-.0092-6.711 6.3817.027-6.4092-4.649-.0183-.009 1.4808 2.293.0092-.06 14.8171 2.361.0092.032-8.9627 6.547 8.9902 2.888.0092zm-30.909.0367l-6.382-16.3209-1.091-.0046-6.464 16.2704 1.655.0046 1.632-4.1398 6.478.0275 1.637 4.1536 2.535.0092zm-4.768-5.6848l-5.277-.023 2.664-6.7392 2.613 6.7622zm-24.458 5.6481l-6.382-16.3209-1.086-.0046-6.469 16.2705 1.65.0091 1.637-4.1444 6.478.0275 1.637 4.1536 2.535.0092zm-4.764-5.6894l-5.276-.0183 2.668-6.7393 2.608 6.7576zm-23.2202-2.6682c.0184-4.855-3.1358-8.4951-6.973-8.5089-3.9061-.0183-7.0923 3.5989-7.106 8.4493-.0184 4.7817 3.1679 8.3897 7.0418 8.408 3.8006.0092 7.0189-3.6126 7.0372-8.3484zm-2.604-.0504c-.0137 4.1123-2.1364 6.918-4.4286 6.9043-2.3977-.0092-4.4608-2.7966-4.4424-6.941.0137-4.149 2.1043-6.9547 4.4974-6.9456 2.3243.0092 4.3874 2.8333 4.3736 6.9823z"/>
		<path d="M47.6447 25.0653c-3.1358-5.7444-8.2155-9.4808-13.9461-9.4808-5.5886 0-10.5536 3.5393-13.6986 9.027V11h27.6218v14.0653h.0229z"/>
	</g>
</svg>
