<svg xmlns="http://www.w3.org/2000/svg" viewBox="0 0 200 50">
	<g fill="#8a2533">
		<path d="M98.9 18.9c-1.3-.2-2.6-.1-3.9-.2h-.6V17h-5.1v1.7c-1.3 0-2.6-.1-3.9 0-2.1.1-3.5 1.2-3.7 3.1-.1 1.7-.2 3.5 0 5.2.2 2.1 1.5 3.2 3.6 3.3 1.2.1 2.3.1 3.5.1h.5v1.8h5.1v-1.8h.6c1.1 0 2.3 0 3.4-.1 2.1-.1 3.4-1.3 3.6-3.5.1-1.6.1-3.2 0-4.8-.1-1.7-1.2-2.9-3.1-3.1zm-9.5 9c-.7-.1-1.4-.1-2-.3-.5-.2-.8-.7-.8-1.2 0-1.3-.1-2.5 0-3.8 0-.9.5-1.3 1.4-1.4.5-.1.9-.1 1.4-.1v6.8zm7.7-1.6c0 .9-.5 1.4-1.5 1.5h-1.4v-6.7c.6.1 1.1.1 1.6.1.7.1 1.1.6 1.2 1.4.1 1.4.1 2.5.1 3.7zM142.6 29.9h-2v-7.5h-4.2v7.5h-2v-7.5H130v9.9h16.9v-9.9h-4.4c.1 2.5.1 5 .1 7.5zM125.2 22.3c-1.4-.2-2.8-.2-4 .9 0-.3 0-.6-.1-.8h-4.3v14.4h4.4v-5.4c1 1 2.3 1.1 3.5 1.1 1.9-.1 2.9-.9 3.3-2.8.4-1.6.4-3.2 0-4.7-.2-1.6-1.2-2.5-2.8-2.7zm-2.4 7.9c-.7.1-1.3-.3-1.5-1-.1-.2-.1-.5-.1-.7v-2.4c0-.7.5-1.2 1.1-1.3.8-.1 1.4.3 1.4 1.2v3.1c.1.6-.3 1.1-.9 1.1zM182.8 22.4h-8.6c-.3 0-.4.2-.4.4-.1 1.2-.1 2.4-.2 3.6-.1 1.2-.1 2.4-.2 3.6h-1.1v5.5h2.8c0-1.1.1-2.1.2-3.2h5.5c.1 1.1.1 2.1.2 3.2h2.8V30h-1v-7.6zm-4.5 7.6H176c.1-1.8.2-3.5.3-5.3h2V30zM112.7 22.6c-2.3-.6-4.5-.6-6.8 0-1.3.4-2.2 1.3-2.3 2.7-.1 1.2-.1 2.5 0 3.7.2 1.9 1.1 2.9 3 3.2.8.1 1.6.2 2.5.2 1.2 0 2.5 0 3.7-.4 1.3-.4 2-1.2 2.2-2.5.1-.7.1-1.5.2-2 0-.7-.1-1.3-.1-1.9-.1-1.6-.9-2.6-2.4-3zm-2.1 4.7v1.8c0 .7-.4 1.1-1.2 1.2-.8.1-1.3-.3-1.3-1 0-1.3-.1-2.6 0-3.9 0-.8.6-1.1 1.5-1 .7.1 1 .5 1 1.2v1.7zM168.3 22.4c-1.9-.4-3.8-.2-5.8 0-1.9.3-2.4 2.2-2.1 3.5h3.6c.2-1.4.5-1.6 1.7-1.5.8.1 1.1.5 1 1.8-1.4.3-2.7.5-4.1.8-2 .4-2.7 1.3-2.5 3.4.1 1.1.8 1.9 1.9 2 .9.1 1.7.1 2.6.1.9-.1 1.5-.5 2-1.3V31c.1.1.1.1.2.1v1.3h4.1v-.3-6.6c0-.3 0-.6-.1-.8-.2-1.5-1.2-2-2.5-2.3zm-1.6 6.7c-.2.8-1.1 1.3-1.9 1.1-.3-.1-.6-.3-.6-.7 0-.5.1-1 .6-1.2.6-.2 1.3-.4 2-.6 0 .5 0 1-.1 1.4zM148.3 25.1h3.2v7.2h4.4v-7.2h3.2v-2.7h-10.8v2.7zM194.4 22.4h-10.1c-.1 0-.2.1-.2.2v2.5h3.3v7.2h4.4v-7.2h3.2v-2.7h-.6zM69.2 23.4c.1-.1.2-.2.3-.4h-2.9c.1.2.2.3.3.4.1.1.3.2.3.3v2.6h-3.7v-2.5c0-.2.2-.3.3-.4l.3-.3-.1-.1h-2.7c.1.2.2.3.2.4.3.1.4.4.4.6v5.5c0 .2-.2.4-.3.6-.2.2-.2.3-.2.5h2.8c-.1-.2-.2-.4-.3-.4-.3-.1-.3-.3-.3-.6v-2.1-.4h3.7v2.7c0 .2-.2.3-.3.4-.2.1-.3.3-.2.5h2.6l.1-.1c-.1-.1-.2-.2-.3-.4-.1-.2-.3-.4-.3-.6v-5.5c0-.3.2-.5.3-.7zM76.3 28.9c-.1-.3-.1-.5-.2-.8-.2-.9-.8-1.5-1.7-1.7-.2-.1-.4-.1-.5-.1l1.2-1.2c.2-.2.3-.4.5-.6.3-.2.5-.2.8 0 .1.1.3.1.5.2v-1.8c-1.1-.3-1.8 0-2.3 1-.2.4-.3.8-.6 1.2-.3.5-.8.8-1.4.8v-2c0-.2.2-.3.3-.5.1-.1.2-.2.3-.4l-.1-.1h-2.7l-.1.1.3.3c.1.2.3.4.3.6v5.5c0 .2-.2.4-.3.6-.1.1-.2.2-.3.4h2.9c-.1-.2-.1-.3-.2-.4-.3-.2-.4-.4-.4-.7V28v-1.6c.7-.1 1.4.3 1.6 1 .2.5.3.9.4 1.4.3 1.3 1.2 1.9 2.5 1.7.3-.1.5-.2.4-.5-.8 0-1.1-.5-1.2-1.1zM50.4 26.2c-.4-.1-.8-.1-1.2-.1h-.9v-2.5h1.3c.8-.1 1.3.3 1.5 1 .1.3.2.3.5.2v-1.9c-.5.1-1 .1-1.5.1H46c.1.2.1.4.2.4.3.1.4.4.4.7v5.4c0 .2-.2.4-.3.6-.1.1-.2.2-.3.4l.1.1h2.5c.5 0 1.1 0 1.6-.1 1.2-.2 1.9-1 1.9-2.1.1-1.2-.5-2-1.7-2.2zm-.2 3.1c-.1.4-.4.7-.8.7h-1.2v-3.3h1.1c.4.1.7.3.9.7.2.6.2 1.2 0 1.9zM59.5 28.5c-.9-1.8-1.7-3.5-2.5-5.3-.2-.4-.4-.4-.7-.2-.3.2-.6.3-.9.4-.3.1-.3.2-.3.4.5.1.6.2.4.6 0 .2-.1.3-.2.4-.7 1.5-1.4 3-2.1 4.4-.2.3-.4.5-.6.8-.1.1-.2.3-.3.5h2.2l.1-.1c-.1-.1-.2-.3-.3-.3-.5-.2-.6-.4-.4-.9.1-.1.1-.2.2-.4.1-.3.2-.3.5-.3h2.3c.8 0 .8 0 1.1.8.1.4 0 .6-.3.8-.1.1-.2.2-.3.4h3.2c0-.2 0-.3-.1-.4-.5-.4-.7-1-1-1.6zm-4.9-.6c.5-1 .9-1.9 1.4-3 .5 1 .9 2 1.4 3h-2.8zM27 37.6l1.5-1v-1.2l11.2-7.5L27 19.5v18.1zm1.5-15.8l9.2 6.1-9.2 6.1V21.8zM22.7 38.6v-2.3L8.4 26.7l.9-.5 13.4 9v-1.4l-12.4-8.3 12.4-8.3v-2.3L5 26.8z"/>
		<path d="M24.2 39.5l1.4-1-.1-21.3 15.2 10.1 1.7-1.1L24.2 14z"/>
	</g>
</svg>
