<svg xmlns="http://www.w3.org/2000/svg" viewBox="0 0 200 50">
	<g fill="#000">
		<path d="M55.2901 17.0067v2.04h4.1933v2.21h-4.1933v3.74h-2.72v-10.2h7.2533v2.21h-4.5333zM67.4166 22.2767H65.32v2.72H62.6v-10.2h5.27c.85 0 1.53.1133 2.04.2833.51.17.85.4533 1.1333.9067.2267.4533.3967 1.0766.3967 1.9266 0 .68-.0567 1.2467-.1134 1.5867-.0566.34-.2266.68-.51.9633-.2833.2834-.7366.4534-1.36.6234V21.2c.5667 0 1.02.17 1.36.51.34.2833.51.7367.51 1.3033v2.04h-2.72v-1.4166c-.1133-.9067-.4533-1.36-1.19-1.36zm-2.1533-2.3234H67.36c.34 0 .6233-.0566.7933-.17.17-.1133.2833-.2266.2833-.4533.0567-.2267.0567-.5667.0567-1.02 0-.4533-.0567-.7933-.2267-.9067-.17-.17-.4533-.2266-.9066-.2266h-2.0967v2.7766zM76.9933 17.0067v1.87h4.3633v1.9266h-4.3633v1.9834h4.76v2.21h-7.48v-10.2H81.64v2.21h-4.6467zM87.5332 17.0067v1.87h4.3634v1.9266h-4.3634v1.9834h4.76v2.21h-7.48v-10.2h7.3667v2.21h-4.6467zM95.24 24.9967v-10.2h5.213c.964 0 1.757.1133 2.38.3966.624.2834 1.02.68 1.36 1.2467.284.5667.454 1.36.454 2.3233v2.1534c0 .9633-.114 1.7566-.34 2.3233-.227.6233-.624 1.0767-1.19 1.36-.567.2833-1.304.4533-2.21.4533H95.24v-.0566zm2.72-7.82v5.4966h2.38c.907 0 1.36-.5666 1.36-1.7566v-2.1534c0-.4533-.057-.7366-.17-1.02-.113-.2266-.227-.3966-.453-.4533-.17-.1133-.454-.1133-.794-.1133H97.96zM111.9 25.11c-.737 0-1.417-.0567-1.983-.17-.567-.1133-1.02-.2833-1.474-.5667-.396-.2833-.736-.68-.963-1.1333-.227-.51-.34-1.1333-.34-1.87v-2.89c0-.7367.113-1.4167.34-1.87.227-.51.567-.9067.963-1.1333.397-.2267.907-.4534 1.474-.5667.566-.1133 1.246-.17 1.983-.17.737 0 1.417.0567 1.983.17.567.1133 1.02.2833 1.474.5667.396.2833.736.6233.963 1.1333.227.51.34 1.1333.34 1.87v2.89c0 .7367-.113 1.4167-.34 1.87-.227.51-.567.9067-.963 1.1333-.397.2834-.907.4534-1.474.5667-.566.1133-1.19.17-1.983.17zm0-2.38c.51 0 .907-.0567 1.19-.1133.283-.0567.453-.2267.567-.4534.113-.2266.17-.6233.17-1.1333v-2.3233c0-.3967-.057-.68-.114-.9067-.056-.2267-.17-.3967-.34-.51-.17-.1133-.34-.17-.566-.2267-.227-.0566-.567-.0566-.964-.0566-.51 0-.906.0566-1.133.1133-.283.0567-.453.2267-.567.4533-.113.2267-.17.6234-.226 1.0767v2.3233c0 .51.056.85.17 1.1334.113.2266.283.3966.566.4533.284.0567.737.17 1.247.17zM121.93 17.1767l.283 7.82h-2.72v-10.2h4.307l1.983 6.4033h.114l1.813-6.4033h4.477v10.2h-2.72l.226-7.82h-.056l-2.607 7.82h-2.38l-2.607-7.82h-.113zM55.97 30.6067v.85H54.1v6.29h-1.0767v-6.2334h-1.0766v-.85h1.0766v-1.0766c0-.7934.17-1.36.5667-1.6434.34-.34.9633-.4533 1.7567-.4533l.68.0567v.9066c-.17 0-.3967-.0566-.5667-.0566h-.2267c-.3966 0-.68.1133-.85.2833-.17.17-.2266.4533-.2266.9067V30.72H55.97v-.1133zM58.9166 28.7367H57.84v-1.19h1.0766v1.19zm0 9.0666H57.84v-7.1966h1.0766v7.1966zM62.4867 33.3833v4.3634H61.41v-7.14h1.02v.9066c.2267-.3966.6234-.68 1.0767-.85.34-.1133.7933-.17 1.4167-.17.9633 0 1.6433.17 2.04.5667.3966.34.5666 1.02.5666 1.9833v4.76h-1.0766v-4.6466c0-.7367-.1134-1.19-.34-1.4167-.2267-.2267-.68-.34-1.4167-.34s-1.2467.17-1.6433.4533c-.3967.34-.5667.85-.5667 1.53zM74.7833 34.29v-1.02c0-.85-.1133-1.4167-.3966-1.6433-.2267-.2267-.7933-.34-1.7-.34-.68 0-1.0767.0566-1.36.2266-.2267.1134-.34.4534-.34.9067v.2267H69.91c0-.9067.2834-1.4734.7934-1.7567.3966-.2267 1.0766-.34 2.04-.34 1.1333 0 1.8699.17 2.3233.3967.5666.34.7933 1.0766.7933 2.0966v4.76h-1.02l.0567-.9066c-.2267.4533-.51.7366-.7933.85-.2834.1133-.8501.17-1.5867.17-.9634 0-1.6433-.1134-2.0967-.3967-.51-.34-.7367-.9633-.7367-1.87 0-.85.2267-1.4733.7367-1.7567.3967-.2833 1.0767-.3966 1.9834-.3966.7933 0 1.36.0566 1.7.17.2833.1133.5099.2833.6799.6233zm0 1.4167c0-.6234-.17-1.02-.4533-1.19-.2833-.17-.9633-.2267-1.9266-.2267-.5667 0-1.0201.0567-1.2467.2267-.2834.17-.3967.51-.3967 1.02 0 .6233.1133 1.02.34 1.2466.2267.2267.68.34 1.3034.34.85 0 1.4166-.0566 1.7-.17.4533-.2266.6799-.6233.6799-1.2466zM79.3733 33.3833v4.3634h-1.0767v-7.14h1.02v.9066c.2267-.3966.6234-.68 1.0767-.85.34-.1133.7933-.17 1.4167-.17.9633 0 1.6433.17 2.04.5667.3966.34.5666 1.02.5666 1.9833v4.76H83.34v-4.6466c0-.7367-.1134-1.19-.34-1.4167-.2267-.2267-.68-.34-1.4167-.34s-1.2467.17-1.6433.4533c-.34.34-.5667.85-.5667 1.53zM91.7833 35.1966H92.86c0 1.0767-.2266 1.8134-.7366 2.21-.4534.34-1.2467.51-2.3801.51-1.19 0-1.9833-.2833-2.4366-.7933-.4534-.51-.6234-1.4733-.6234-2.9467 0-1.4166.2267-2.38.6234-2.9466.3966-.51 1.2466-.7934 2.4366-.7934 1.02 0 1.7.17 2.1534.4534.5666.34.7933.9633.7933 1.8133v.2267h-1.02c0-.6234-.1133-1.02-.34-1.19-.2833-.2267-.7933-.34-1.6433-.34-.7933 0-1.3034.17-1.5867.51-.2267.34-.3966 1.1333-.3966 2.2666 0 1.1334.1133 1.9267.3966 2.2667.2833.34.7934.5667 1.5867.5667.85 0 1.4166-.1134 1.6433-.34.2833-.2267.4533-.7367.4533-1.4734zM101.077 34.4033h-5.1569c0 1.0767.1133 1.8134.3966 2.1534.2834.34.7934.51 1.6434.51s1.36-.0567 1.6433-.2267c.2267-.17.3966-.51.3966-.9633V35.65h1.077c0 .9633-.284 1.5867-.794 1.9267-.3963.2833-1.1896.3966-2.3229.3966-1.19 0-2.04-.2833-2.4367-.7933-.4533-.51-.68-1.4733-.68-2.9467 0-1.36.2267-2.3233.7367-2.89.51-.5666 1.2466-.7933 2.38-.7933 1.1333 0 1.9266.2267 2.3799.7367.51.51.737 1.36.737 2.6066v.51zM100 33.61c0-.85-.1699-1.4167-.4533-1.7-.2833-.34-.7933-.51-1.5866-.51-.7934 0-1.3034.17-1.5867.51-.2833.34-.4533.9067-.4533 1.7H100z"/>
		<path d="M152.813 20.1233h6.8v1.02h-5.666v3.57h3.456c1.134 0 1.927.2267 2.38.6234.454.3966.68 1.1333.68 2.21 0 1.0766-.226 1.8133-.68 2.2666-.453.4534-1.246.68-2.323.68h-4.59v-10.37h-.057zm1.134 5.5534v3.74h3.4c.793 0 1.303-.17 1.586-.4534.227-.2833.397-.7366.397-1.4733s-.113-1.2467-.397-1.4733c-.283-.2267-.85-.34-1.7-.34h-3.286zM163.637 25.1667h-1.077c0-.9067.283-1.4734.793-1.7567.397-.2267 1.077-.2833 2.04-.2833 1.134 0 1.927.1133 2.324.3966.566.34.85 1.0767.85 2.0967v4.8167h-1.02l.056-.9067c-.226.4533-.51.7367-.85.85-.283.1133-.85.17-1.586.17-.964 0-1.7-.1133-2.097-.3967-.51-.34-.737-.9633-.737-1.87 0-.85.227-1.4733.737-1.7566.397-.2834 1.077-.3967 1.983-.3967.85 0 1.36.0567 1.7.17.34.1133.567.34.68.68v-1.02c0-.85-.113-1.36-.34-1.5867-.226-.17-.793-.2833-1.756-.2833-.68 0-1.134.0567-1.36.17-.227.1133-.34.3967-.34.7933v.1134zm3.796 3.1166c0-.6233-.17-1.02-.453-1.19-.283-.17-.963-.2266-1.927-.2266-.566 0-1.02.0566-1.246.2266-.284.17-.454.51-.454 1.02 0 .6234.114 1.02.397 1.19.227.2267.68.2834 1.303.2834.85 0 1.417-.0567 1.7-.17.454-.17.68-.5667.68-1.1334zM171.853 23.24v2.89h3.797v-2.89h1.077v7.1967h-1.077v-3.4h-3.797v3.4h-1.076V23.24h1.076zM180.127 23.24v2.89h.396l2.607-2.89h1.303l-3.06 3.2867 3.627 3.91h-1.417l-3.06-3.4h-.396v3.4h-1.134V23.24h1.134z"/>
	</g>
	<path fill="#A8A8A7" d="M143.237 11h-.907v30.8267h.907V11z"/>
	<path fill="#2E7E33" d="M25.2001 19.9533v3.8534h13.94v7.7066h-13.94v9.01c1.0766.51 2.21.9067 3.3433 1.1334 6.8567-1.36 13.2033-7.4234 13.43-18.19l.0567-3.5134h-16.83z"/>
	<path fill="#76B949" d="M42.03 19.9533l.1133-8.33c-4.4766-.34-9.01-.51-13.5433-.51-4.59 0-9.1233.17-13.6.51l.0567 6.5167.17 5.3267s.0566 4.93 1.7 8.5c2.72 6.46 8.2733 8.6133 8.2733 8.6133v-9.01h13.94v-7.7633H25.2v-3.8534h16.83z"/>
</svg>
