<svg xmlns="http://www.w3.org/2000/svg" viewBox="0 0 200 50">
	<g fill="#0D356C">
		<path d="M169.996 17.0544h3.363l-.017 5.4287h.728l1.915-5.4287h3.639l-2.61 7.1769L180 32.1778h-3.94l-1.94-6.0812h-.795l.017 6.0812h-3.363V17.0544h.017zm-11.334 0h3.346v5.4538h2.392v-5.4538h3.337v15.1234H164.4v-6.0644h-2.392v6.0644h-3.346V17.0544zM147.01 32.2029h3.479l.419-2.6182h2.392l.418 2.6182h3.48l-2.928-15.1234h-4.316l-2.944 15.1234zm5.102-10.5396l.636 4.6006h-1.288l.652-4.6006zm-14.437 10.5145h4.073c.887 0 4.593-.3848 4.609-4.9687 0-3.8477-2.869-4.5169-4.726-4.5169h-.61v-2.0075h4.533v-3.6303h-7.871l-.008 15.1234zm3.337-3.0364v-3.4212h.494c.418 0 1.48.0167 1.48 1.5809 0 1.581-1.07 1.8403-1.48 1.8403h-.494zM124.4 17.0544h2.911l2.568 3.5717 2.593-3.5717h2.886v15.1234h-3.421v-9.2179l-2.058 2.6348-2.058-2.6348v9.2179H124.4V17.0544zm-7.068 15.3074c4.057 0 5.42-3.898 5.42-7.7625s-1.363-7.7624-5.42-7.7624-5.421 3.8896-5.421 7.7624c0 3.8729 1.372 7.7625 5.421 7.7625zm0-3.6721c-1.205 0-1.824-1.4387-1.824-4.0904 0-2.6516.611-4.0987 1.824-4.0987s1.815 1.4388 1.815 4.0987c0 2.66-.602 4.0987-1.815 4.0904zm-15.324 3.4881h3.421v-4.9854h1.146c3.379 0 4.433-3.12 4.433-5.1108 0-1.9406-1.204-5.0272-4.433-5.0272h-4.567v15.1234zm3.421-11.7943h.811c.77 0 1.263.4852 1.263 1.7399 0 1.6227-.836 1.7398-1.263 1.7398h-.811v-3.4797zm-14.7221-3.3291h9.3351v15.1234h-3.4212v-11.468h-2.4927v11.468h-3.4212V17.0544zm-7.018 5.8636c.5521 0 1.5642-.368 1.5642-1.4805 0-1.3133-1.1627-1.3969-1.5056-1.3969-.3932 0-1.146.0669-1.8821.4266l-.0418-3.2873c1.1627-.3012 1.9992-.3848 2.9862-.3848 2.8105 0 4.0569 2.0075 4.0569 3.9732 0 1.9072-1.0707 3.0615-2.1163 3.5048v.1422c1.0121.3262 2.3505 1.3216 2.3505 3.6303 0 2.8607-1.9406 4.4417-4.4333 4.4417-1.3216-.0168-2.1999-.2008-3.2455-.7863l.0585-3.1452c.9704.4266 1.6228.4685 2.2752.4685 1.1042 0 1.5391-.8365 1.5391-1.4388 0-.8532-.5353-1.422-1.698-1.422h-1.3885V22.918h1.4805zm-13.4504 9.2598h3.463l.4349-2.6182h2.3923l.4183 2.6182h3.463l-2.9277-15.1234h-4.3078c-.0084 0-2.936 15.1234-2.936 15.1234zm5.0774-10.5563l.6524 4.6173h-1.3049l.6525-4.6173zm-11.7023-4.5671h7.018v3.7725h-3.5382v11.3509h-3.4798V17.0544zM20.8699 24.7917c0 9.3016 7.4028 16.88 16.5036 16.88 9.084 0 16.4784-7.5784 16.4784-16.88 0-9.3183-7.3944-16.89668-16.4784-16.89668-9.1092-.00836-16.5036 7.57008-16.5036 16.89668zm-.8699 0C20 14.9799 27.7875 7 37.3735 7c9.5608 0 17.3484 7.9716 17.3484 17.7917 0 9.7951-7.7876 17.7666-17.3484 17.7666C27.7875 42.5583 20 34.5868 20 24.7917z"/>
		<path d="M32.1873 13.5579c-.6023.2677-1.1711.6023-1.698.9871 4.1321-1.8821 9.176-1.765 11.8862-.527.8532.4015 1.422.6524 1.6813 1.1376-2.8105-.7696-4.015-.9118-6.3655-.8532-3.3459.0585-7.7959 1.4136-9.494 2.4508l-.7528.962c2.4509-1.4806 7.018-2.4509 9.5525-2.5345 2.8273-.0418 5.0272.2258 7.0431.9703-.1171.527-.3764.7863-.8114 1.0539-8.0719-1.4387-12.8398.2593-17.1476 3.1368l-.3179.9536c4.8097-3.3794 10.6985-4.3162 16.3781-3.3041-2.0326.7277-4.4668.895-6.5077 1.3718-1.7399.4099-2.6684.527-4.9854 1.3216-2.3505.7863-3.739 1.5977-4.609 2.6349-.4182.4852-.736 1.054-.8113 1.6646-.0335.3597-.0168.6943.1003 1.0121.0921.2844.3179.5688.5521.8532-.276.4852-.5186 1.1125-.1171 1.8486.1757.343.6357.6859 1.0707 1.0122l-.1255.3596c-.0585.4266-.1171.9369.159 1.3551.4684.7696 1.0455 1.2798 1.9573 1.765.1422.6273.3513 1.1376.8281 1.5809 1.0121.9536 3.2622 2.7771 7.2773 3.0615 3.0113.2007 5.161-.7277 5.9724-1.1376l.987-.527c-1.6813.6859-4.5086 1.0958-6.8256.8867-3.3626-.2844-6.3655-2.5345-6.7419-3.187.1171.0837.276.1422.4098.2008 3.9398 1.9489 9.0172 3.0029 15.5333.2844l.5353-.527c-5.9222 1.882-11.0999 1.8235-16.6625-1.1543.0586-.2844.1841-.5354.435-.7278 1.422.6441 2.7938 1.1795 4.45 1.514 1.9406.3681 4.1573.4517 5.9724.3681 1.8403-.0837 5.4789-1.0121 7.202-1.949.159-.1422.2342-.3848.3932-.5437-3.3626 1.2547-7.361 1.8402-9.77 1.6562-2.3588-.184-4.45-.4684-7.2187-1.7649.5353-.2175 1.0874-.4015 1.6395-.5688 1.8235.5688 3.6804.9117 5.872 1.0121 2.1748.1004 7.2605-.7277 10.4642-2.7102.1004-.2844.2008-.5939.2008-.5939s-4.4501 2.4342-9.494 2.4342c-2.3588 0-3.7975-.343-4.8682-.6107 2.3755-.4433 5.3617-.8113 8.7244-1.6813 1.698-.4433 3.7975-1.4638 4.7511-2.3086.8114-.7528 1.4471-1.7231 1.2296-2.7185-.0418-.2677-.3931-.8951-.8365-1.1125.4183-.5438.3765-1.0122.3179-1.4137-.0418-.3095-.184-.6524-.3513-.9536-.276-.368-.5354-.6524-1.0707-.9786.0837-.4266.0251-.8616-.1589-1.2547-.4183-.7278-1.1627-1.3551-2.4509-2.0243-.0585-.2677-.2175-.6106-.4935-.9536-1.6227-1.6394-4.2744-2.4341-6.5077-2.4759h-.3681c-2.6098.0251-4.7093.6273-6.0142 1.2463zm12.6642 4.0569c.2007-.2258.4935-.5688.5688-.8532.5604.3681 1.1877.9118 1.263 1.4806-.5855-.2259-1.2212-.4685-1.8318-.6274zm.4935 2.4676c-.9452-.2677-1.7817-.5855-2.8858-.7863.6775-.2677 1.1292-.5437 1.5223-.8699.8867.2426 1.7148.5437 2.3923.8532-.1171.1756-.7946.8197-1.0037.8197-.0084-.0083-.0168-.0083-.0251-.0167zm1.7231.711c.2593-.2008.4935-.4266.711-.6859.5353.4684.6943.7863.435 1.2965-.3597-.2677-.7361-.4099-1.146-.6106zm-20.3179 5.0272c-1.4638-2.0661 3.6136-3.5467 4.5839-3.8478 2.4676-.7528 5.3618-1.3132 7.9716-1.6395 1.7984-.2258 2.7519-.0167 4.45.4434-4.3748 1.1961-8.6909 1.5809-12.798 2.8189-3.3124.9786-4.1907 2.225-4.2075 2.225zm1.0875.9954c1.5474-1.3384 4.6926-2.0912 5.8385-2.3505 3.6554-.8114 7.0598-1.3216 8.4651-1.6813 1.698-.4266 2.8858-.8281 3.7139-1.238.0418-.0585 1.3886.6106 1.5224.7696-.4517.3847-1.0874.711-1.7817.9535-2.0744.7696-5.8553 1.581-7.8544 1.8905-2.0159.3429-3.7056.6022-5.9306 1.2128-1.2882.3514-2.1581.7529-2.7938 1.1795-.4684-.2928-.7445-.3764-1.1794-.7361zm2.869 1.6227c.6525-.2844 1.3635-.5102 2.0494-.6859 3.4797-.8783 6.5496-1.0372 10.7821-2.2083 2.0326-.552 3.5215-1.1376 4.45-1.8653.1339-.1255.2761-.2258.4183-.3429 1.2296 1.9489-3.3794 3.4462-6.5329 4.1405-1.6478.3346-3.2957.6524-4.9435.9536-2.0577.3429-2.7269.5269-4.1573.9535-.7026-.3011-1.4136-.6022-2.0661-.9452zm-3.7055-.6106c.3178.2091.5521.368.9285.5688-.1422.1255-.3179.2426-.4517.3848-.3095-.184-.6274-.5856-.4768-.9536zm1.6478 1.8653c.2008-.184.4517-.3597.7278-.5437.5939.2844 1.2045.5437 1.7816.8114-.3847.1422-.7528.3262-1.1041.5521-.4768-.2761-.9452-.5437-1.4053-.8198zm-.5186.9871c.3346.2258.6692.4098 1.0121.5855-.1422.2007-.2425.3597-.2927.5688-.5019-.4182-.7361-.7612-.7194-1.1543z"/>
	</g>
</svg>
