<svg viewBox="0 0 200 50" xmlns="http://www.w3.org/2000/svg">
	<path fill="#0059A5" d="M48.548 28.5c2.269-1.274 5.337-3.224 7.081-5.031-8.577-2.559-32.127.222-50.62905 6.557-.003-.209-.003-.418-.001-.626C10.475 27.084 16.995 24.499 22.755 22.916c6.258-1.72 12.602-3.188 19.046-3.997 3.576-.449 11.92-1.258 14.778.9.706.618.561.263.77 4.349-.013.31.08.667-.154.923-1.131 1.238-5.253 2.52-7.922 3.532l-.725-.123Z"/>
	<path fill="#929295" d="M47.5809 28.3548c-8.223-.227-20.111 3.089-26.797 6.295 0 .234-.001.468.001.703 7.771-2.897 22.127-6.048 30.232-3.544-3.006 2.944-6.959 4.23-8.076 5.044 9.44-3.887 9.193-3.41 9.212-4.661-.139-2.604-.035-2.395-.51-2.808-.976-.741-2.796-.994-4.062-1.029ZM34.5511 13.9998c-9.19.185-20.127 3.815-28.56305 7.384-.001.132-.001.265 0 .397 9.24705-3.188 26.76205-6.511 33.74605-4.438-.551.544-1.164 1.019-1.781 1.484.94-.148 1.879-.3 2.823-.419.035-.098.104-.19.097-.301-.06-.881-.049-1.768-.147-2.647-.19-1.699-6.814-1.484-6.175-1.46Z"/>
	<path fill="#0059A5" d="M114.129 19.9559c-.684-.639-1.641-.879-2.554-.925-1.659-.001-3.32 0-4.979 0-.003 4.316-.001 8.632-.001 12.949h1.651c-.001-1.751.001-3.502-.001-5.253 1.084-.004 2.169-.001 3.253-.001 1.078-.01 2.184-.407 2.913-1.225.746-.786 1.057-1.909.96-2.976-.069-.974-.541-1.899-1.242-2.569Zm-1.036 4.661c-.476.519-1.196.743-1.885.747-.987.002-1.974 0-2.961.001-.001-1.646 0-3.293-.001-4.94 1.059.003 2.118-.003 3.177.003.67.009 1.359.286 1.758.843.744.95.751 2.452-.088 3.346Zm-17.346-5.587c3.017-.001 6.035 0 9.052-.001v1.433c-1.229-.001-2.458.001-3.687-.001-.004 3.84-.001 7.678-.001 11.518-.558-.001-1.116.002-1.673-.001.003-3.839 0-7.677.001-11.516-1.231.001-2.461.001-3.692 0-.002-.477-.002-.955 0-1.432Zm-27.853.001c2.219-.001 4.439-.002 6.658 0 .002.476.002.953 0 1.43-1.669.003-3.338.001-5.007.001 0 3.839-.001 7.678 0 11.517h-1.651c0-4.317-.001-8.632 0-12.948Zm27.032 8.326c.205.976.088 2.047-.444 2.904-.423.678-1.03 1.258-1.775 1.565-.96.403-2.028.465-3.055.401-1.1-.08-2.218-.451-3.012-1.243-.736-.691-1.143-1.659-1.333-2.637.5-.121 1-.234 1.499-.36.204.818.532 1.665 1.212 2.205.761.604 1.777.75 2.721.702.719-.045 1.48-.268 1.956-.842.671-.762.77-1.906.407-2.83-.195-.5-.623-.881-1.122-1.065-.849-.324-1.773-.212-2.66-.235-.001-.465-.004-.93.001-1.394.881-.02 1.84.115 2.629-.371 1.174-.664 1.334-2.517.336-3.403-.526-.489-1.271-.661-1.973-.658-.751-.007-1.539.176-2.115.68-.529.46-.807 1.14-.933 1.816-.538-.044-1.075-.114-1.611-.175.245-1.043.714-2.091 1.582-2.761 1.04-.825 2.442-.987 3.725-.875 1.132.087 2.286.538 3.013 1.44.616.727.797 1.751.615 2.671-.111.597-.446 1.147-.925 1.52-.411.328-.899.549-1.402.695.467.13.947.24 1.366.494.659.362 1.141 1.02 1.298 1.756Zm-16.132-8.329c-1.416 4.314-2.808 8.635-4.221 12.95.465.003.929 0 1.394.001.395-1.262.793-2.523 1.183-3.786 1.589.002 3.178-.005 4.767.004.423 1.263.869 2.517 1.292 3.78.563.006 1.125.001 1.688.002-1.406-4.316-2.805-8.635-4.217-12.949-.63-.001-1.258.002-1.886-.002Zm-1.21 7.927c.667-2.041 1.322-4.086 1.996-6.123.665 2.038 1.32 4.081 1.973 6.123h-3.969Zm102.302-7.925c.553-.001 1.108 0 1.662-.001v12.949h-1.663c.001-2.048 0-4.097.001-6.144-1.98-.001-3.959 0-5.939-.001.001 2.048-.001 4.096.001 6.144-.55.001-1.099 0-1.648.001v-12.949c.548.001 1.097-.001 1.646.001.002 1.783.001 3.567.001 5.35 1.98-.002 3.96.004 5.94-.003-.005-1.781-.003-3.564-.001-5.347ZM195 31.9789h-1.807c-1.277-2.38-2.567-4.754-3.845-7.134-.94 1.173-1.87 2.355-2.813 3.526-.058.077-.14.151-.121.257-.001 1.117 0 2.234 0 3.351h-1.651c.001-4.316-.001-8.632.001-12.949.549-.001 1.099-.001 1.649.001.003 2.477-.004 4.954.003 7.432 1.936-2.473 3.87-4.947 5.794-7.43.593-.006 1.187-.002 1.781-.002-1.172 1.509-2.343 3.016-3.516 4.524 1.51 2.807 3.018 5.615 4.525 8.424Zm-60.39-12.948c.548-.003 1.097-.001 1.646-.001v12.949c-.55-.001-1.099.001-1.648-.001.002-2.048 0-4.096.001-6.144-1.98.001-3.959 0-5.939.001.001 2.048 0 4.096.001 6.144h-1.663v-12.95c.554.001 1.108-.001 1.662.001.003 1.784-.003 3.568.002 5.352 1.979-.003 3.958 0 5.937-.001 0-1.783-.001-3.567.001-5.35Zm6.054 4.359c-.211.977-.247 1.985-.19 2.981.085 1.054.335 2.125.928 3.015.384.59.935 1.096 1.616 1.313.967.314 2.124.127 2.868-.592.711-.655 1.06-1.593 1.309-2.504.505.113 1.011.224 1.518.335-.284 1.183-.785 2.369-1.697 3.205-.633.586-1.459.945-2.311 1.052-1.143.158-2.369-.007-3.348-.647-.783-.501-1.362-1.261-1.79-2.075-.836-1.603-1.023-3.468-.853-5.246.144-1.471.671-2.953 1.714-4.029.66-.701 1.549-1.179 2.497-1.35.947-.166 1.949-.143 2.859.189.776.284 1.446.826 1.915 1.504.505.711.808 1.542 1.018 2.381-.523.108-1.045.215-1.568.313-.257-.942-.668-1.902-1.449-2.528-1.126-.872-2.885-.69-3.866.322-.637.633-.98 1.498-1.17 2.361Zm-19.515-4.36c-.633-.001-1.265-.001-1.897 0-1.401 4.317-2.814 8.629-4.21 12.949h1.388c.398-1.261.788-2.525 1.188-3.786 1.588.005 3.176-.01 4.764.008.422 1.263.864 2.518 1.293 3.778.561-.001 1.122.001 1.683-.001-1.4-4.316-2.811-8.63-4.209-12.948Zm-3.101 7.925c.553-1.703 1.108-3.406 1.661-5.11.118-.338.204-.687.347-1.015.639 2.046 1.31 4.083 1.965 6.125-1.324.001-2.648-.001-3.973 0Zm48.381-7.924c-.63-.004-1.26 0-1.89-.001-1.407 4.315-2.816 8.63-4.212 12.949.463 0 .926.002 1.39-.001.395-1.261.787-2.524 1.185-3.784 1.585-.001 3.17.002 4.755-.002.438 1.262.866 2.527 1.306 3.789.558-.001 1.117 0 1.675 0-1.393-4.321-2.805-8.634-4.209-12.95Zm-3.096 7.924c.671-2.042 1.314-4.096 2.006-6.131.639 2.048 1.312 4.086 1.965 6.13-1.323.002-2.647 0-3.971.001Zm-4.241-.72c-.342-.684-.909-1.293-1.648-1.542-.639-.213-1.316-.266-1.984-.303-1.053-.052-2.107-.022-3.16-.029.001-1.3-.004-2.601.003-3.901 1.947.004 3.894.002 5.841.001.001-.477.001-.953 0-1.43-2.481-.002-4.961-.002-7.442 0-.004 4.316.001 8.632-.002 12.947 1.521.003 3.043.001 4.564.001.861-.001 1.75-.117 2.519-.53.925-.502 1.547-1.48 1.678-2.517.113-.908.029-1.864-.369-2.697Zm-1.881 3.688c-.484.449-1.166.585-1.805.61-1.035.004-2.07 0-3.106.002-.001-1.574 0-3.147-.001-4.721.963.002 1.926-.002 2.889.002.678.028 1.41.103 1.961.541.524.422.711 1.129.692 1.777.019.642-.145 1.337-.63 1.789Z"/>
</svg>