<svg viewBox="0 0 200 50" xmlns="http://www.w3.org/2000/svg">
	<path fill="#0059A5" d="M57.357 24.2354c0 .3293 0 0 0 0-.3293-.3292-.6586-.6585-1.3171-.9878.9878.6586 1.3171.9878 1.3171.9878s0-3.9514-.3293-4.2807c-2.305-3.2929-16.7937-2.305-35.5632 2.9636C16.8544 24.5647 10.5979 26.8698 5 29.1748v.6586c2.30503-.9879 4.93934-1.6465 7.5737-2.3051 14.818-4.2807 32.9289-5.9272 40.8318-4.61.9879 0 1.6465.3293 1.9758.3293h.3293-.3293c-1.9758 1.9757-5.5979 4.61-9.8787 6.5858 5.2686-1.9758 11.8544-3.9515 11.8544-5.598 0 .3293 0 .3293 0 0zM148.57 27.8576l-1.317-.3293c-.329 2.3051-1.646 3.2929-3.951 2.9636-.988 0-1.976-.3293-2.635-1.3171-.658-.9879-.988-2.305-.988-3.9515 0-1.6464.33-2.9636.988-3.9515.659-.9878 1.647-1.3171 2.635-1.3171 1.646 0 2.634.9878 3.293 2.9636l1.646-.3293c-.659-2.9636-2.305-4.2808-4.61-4.2808-1.647 0-2.964.6586-3.952 1.9758-.987 1.3171-1.317 2.9636-1.317 4.9393 0 1.9757.33 3.6222 1.317 4.9393.988 1.3172 2.305 1.9758 3.952 1.9758 2.634 0 4.281-1.3172 4.939-4.2808zm-63.2233.6585l1.3171-.3293c.3293.9879.6586 1.6465 1.3172 2.3051.6586.3293 1.3172.6585 2.305.6585.9879 0 1.6465-.3292 2.305-.6585.6586-.3293.6586-.9879.6586-1.9757v-.0001c0-1.6464-.9878-2.305-2.6343-2.305h-1.3171v-1.6464h.9878c.6586 0 1.3172-.3293 1.9758-.6586.3292-.3293.6585-.9879.6585-1.6465 0-.6585-.3293-1.3171-.6585-1.6464-.3293-.3293-.9879-.6586-1.9758-.6586-1.6464 0-2.6343.9879-2.9636 2.6343l-1.6464-.3293c.6585-2.305 1.9757-3.6221 4.61-3.6221 1.3172 0 2.305.3292 3.2929.9878.6586.6586 1.3172 1.3172 1.3172 2.6343 0 1.6465-.9879 2.3051-2.6343 2.9636 1.9757.3293 2.9636 1.3172 2.9636 3.2929 0 .9879-.3293 1.9758-1.3172 2.6343-.6586.6586-1.9757 1.3172-3.6222 1.3172-1.3171 0-2.6343-.3293-3.2929-.9879-.9878-.9878-1.3171-1.9757-1.6464-2.9636zm-17.4524-9.5493v13.1716h1.6464V20.6132h4.9394v-1.6464h-6.5858zm11.5251 1.6465l1.9757 6.2565h-3.9514l1.9757-6.2565zm3.6222 11.5251h1.6464l-3.9515-12.8423h-2.305l-4.2807 12.8423h1.3171l1.3172-3.6222h4.9393l1.3172 3.6222zm16.4645 0h1.6469V20.6132h3.622v-1.6464h-8.8911v1.6464h3.6222v11.5252zm8.5619-6.5858h2.963c.659 0 1.317-.3293 1.976-.6586.329-.6586.659-1.3172.659-1.9757 0-.6586-.33-1.3172-.659-1.6465-.329-.6586-.988-.6586-1.976-.6586h-2.963v4.9394zm0 6.5858h-1.647V18.9668h4.61c1.317 0 2.635.3293 3.293 1.3172.659.6585.988 1.6464.988 2.6343 0 .9878-.329 1.9757-.988 2.6343-.658.6586-1.646.9879-2.964.9879h-3.292v5.5979zm12.183-11.5251l1.976 6.2565h-3.951l1.975-6.2565zm3.622 11.5251h1.647l-4.281-12.8423h-1.976l-4.28 12.8423h1.317l1.317-3.6222h4.939l1.317 3.6222zm12.513 0h-1.646v-6.2565h-5.927v6.2565h-1.647V18.9668h1.647v5.5979h5.927v-5.5979h1.646v13.1716zm16.136-1.6465h2.963c1.647 0 2.635-.6586 2.635-2.305 0-.6586-.33-1.3172-.659-1.6464-.329-.3293-1.317-.6586-2.305-.6586h-2.634v4.61zm-1.647 1.6465V18.9668h7.574v1.6464h-5.927v3.9515h2.305c1.317 0 1.975 0 2.634.3293.659.3293 1.317.6586 1.646 1.3172.33.3293.659 1.3171.659 1.9757 0 .9879-.329 1.9757-.988 2.6343-.658.6586-1.646.9879-3.293.9879l-4.61.3293zm14.489-11.5251l1.976 6.2565h-3.952l1.976-6.2565zm3.622 11.5251h1.647l-4.281-12.8423h-1.647l-4.28 12.8423h1.317l1.317-3.6222h4.61l1.317 3.6222zm12.842 0h-1.646v-6.2565h-6.257v6.2565h-1.646V18.9668h1.646v5.5979h6.257v-5.5979h1.646v13.1716zm11.526 0H195l-4.281-8.5616 3.293-4.61h-1.646l-5.928 7.5737v-7.5737h-1.646v13.1716h1.646v-3.6222l2.964-3.6222 3.952 7.2444z"/>
	<path fill="#929295" d="M39.9047 17.6496c.3293 0 .6586.3293.9879.6586-.9879.3293-1.6465.3293-2.6343.3293.6586-.3293 1.3171-.9879 1.6464-1.3172-.1364 0-.2728-.0565-.4326-.1227-.226-.0936-.4987-.2066-.8845-.2066-5.2687-.6585-17.4524.3293-27.0018 2.9637-1.9757.6585-3.95144 1.3171-5.59788 1.9757v-.3293c3.62218-1.6464 7.90298-3.2929 11.19588-4.2808 12.513-3.6221 22.0623-4.2807 23.3795-1.9757.2991.2991.3265 2.4993.329 2.9008-.0037-.3071-.0626-.5958-.9876-.5958zm.9876.5958c.0003.0209.0003.0418.0003.0628 0 0 0-.0222-.0003-.0628zm11.1961 14.2222c0-.133-.0537-.2123-.1395-.2813.1395.1643.1395.2813.1395.2813zm-.1395-.2813c-.0945-.1113-.253-.2443-.5191-.3773.1258.1258.2516.2035.359.2699.0602.0372.1147.0709.1601.1074zm.1395-2.353v2.6343c0 .7656-2.5709 1.7289-5.2606 2.7367-.781.2927-1.572.5891-2.3131.8855 2.9637-1.3172 5.2687-2.9636 6.5858-4.2808-.1364 0-.2728-.0565-.4326-.1227-.2259-.0936-.4987-.2066-.8845-.2066-.0723-.009-.1444-.018-.2165-.027-5.1806-.6487-9.87-1.2359-24.8095 2.6614-.2991.0997-.6586.1994-1.051.3082-.9037.2506-1.9821.5497-2.9005 1.0089v-.6586c1.9757-.9878 4.2808-1.9757 8.2322-2.9636 12.1838-3.9514 21.4039-3.9514 23.0503-1.9757z"/>
</svg>
