<svg xmlns="http://www.w3.org/2000/svg" viewBox="0 0 200 50">
	<g fill="#F65E64">
		<path d="M173.911 31.2044V26.119h-6.158v5.0854h-1.959V19.4677h1.959v4.8412h6.158v-4.8412h1.958v11.7367h-1.958zM187.26 31.204l-4.569-4.9951h-2.124v4.9844h-1.953v-5.8656-5.8657h1.953v4.9367h2.176l4.427-4.9367h2.442l-5.112 5.6852 5.5 6.0356-2.74.0212zM159.658 27.7488c-.416.5791-.962 1.0517-1.595 1.3792-.633.3275-1.334.5006-2.047.5052-1.146 0-1.905-.5307-1.905-1.4598 0-.7803.61-1.3641 1.661-1.6561 1.285-.2447 2.582-.4218 3.886-.5309v1.7624zm3.561 1.4704c-.069.1494-.179.2773-.315.3706s-.294.1486-.459.1602c-.114.0019-.228-.0202-.333-.0648-.105-.0447-.2-.1109-.279-.1945-.078-.0836-.137-.1825-.175-.2906-.037-.108-.051-.2226-.041-.3366v-5.7541c0-2.2508-1.932-3.8858-4.55-3.8858-.692-.0319-1.383.0741-2.034.312-.651.2378-1.248.6028-1.756 1.0735l1.306 1.3059c.298-.3143.662-.5587 1.066-.7157.404-.1569.837-.2225 1.27-.1921 1.592 0 2.739 1.0033 2.739 2.3463v.8812c-1.81.1964-3.079.3663-3.838.5309-2.347.4883-3.716 1.7358-3.716 3.6202s1.465 3.0576 3.716 3.0576c1.592 0 2.882-.3291 3.912-1.5288.218 1.0617 1.247 1.5288 2.542 1.5288.411.0019.817-.0855 1.19-.256.372-.1704.704-.42.971-.7313l-1.216-1.2369zM144.741 29.3039c-.785 0-1.553-.2328-2.206-.6691-.652-.4364-1.161-1.0565-1.462-1.782-.301-.7256-.379-1.5239-.226-2.2941.153-.7703.532-1.4778 1.087-2.0331.555-.5553 1.263-.9335 2.032-1.0867.771-.1532 1.569-.0745 2.295.226.725.3005 1.346.8094 1.782 1.4624.436.653.669 1.4206.669 2.206 0 1.0531-.419 2.063-1.163 2.8076-.745.7447-1.755 1.163-2.808 1.163zm0-9.8522c-1.453-.0044-2.855.5331-3.933 1.5075.125-1.0409.625-2.0004 1.407-2.699.782-.6987 1.791-1.0884 2.84-1.0964v.0212c1.196-.0239 2.384-.2023 3.535-.5308.754-.2667 1.443-.6901 2.023-1.2422L149.216 14c-.414.3824-.896.6831-1.422.8865-.584.2442-1.348.2919-2.729.3556-1.641.0084-3.211.6627-4.373 1.8212-1.161 1.1585-1.82 2.7279-1.832 4.3683v3.8964c.001 1.1628.346 2.2992.993 3.2656.647.9664 1.566 1.7195 2.64 2.164 1.075.4445 2.256.5605 3.397.3334 1.141-.2271 2.188-.7872 3.011-1.6094.821-.8223 1.381-1.8698 1.608-3.0102.228-1.1404.112-2.3226-.333-3.3971-.444-1.0745-1.197-1.9932-2.164-2.6398-.966-.6467-2.102-.9924-3.265-.9935"/>
		<path d="M125.186 30.2804l1.449 1.3112 5.706-6.3382-1.317-1.4598-5.838 6.4868z"/>
	</g>
	<path fill="#30A6E0" d="M64.9358 31.2255v-5.0801h-6.1576v5.0801h-1.9589V19.494h1.9589v4.8412h6.1576V19.494h1.9588v11.7315h-1.9588zM26.0364 27.8017c-.4153.5791-.9617 1.0517-1.5946 1.3792-.6329.3276-1.3343.5007-2.0469.5053-1.1466 0-1.9057-.5308-1.9057-1.4598 0-.7803.6105-1.3642 1.6615-1.6561 1.2851-.2447 2.5821-.4219 3.8857-.5309v1.7623zm3.5619 1.4705c-.0703.1493-.1792.2773-.3155.3706-.1362.0932-.2948.1486-.4595.1602-.1119.0023-.2231-.0184-.3266-.0608-.1036-.0424-.1973-.1056-.2755-.1857-.0781-.0802-.1389-.1755-.1787-.2801-.0398-.1046-.0578-.2163-.0526-.3281v-5.7701c0-2.2507-1.9323-3.8857-4.5493-3.8857-.692-.0316-1.3834.0745-2.0341.3124-.6506.2378-1.2475.6026-1.756 1.0731l1.3111 1.2846c.2983-.3143.6623-.5587 1.0662-.7156.4038-.1569.8373-.2225 1.2695-.1922 1.5925 0 2.7391 1.0033 2.7391 2.3463v.8812c-1.8101.1964-3.0788.3663-3.8379.5309-2.3463.4883-3.7158 1.7358-3.7158 3.6203 0 1.8844 1.4438 3.0841 3.6945 3.0841 1.5926 0 2.8825-.3291 3.9123-1.5288.2176 1.0617 1.2474 1.5288 2.5427 1.5288.4162.0011.8276-.0898 1.2047-.2659.3771-.1762.7107-.4334.977-.7533l-1.2156-1.2262zM71.0882 24.468h8.164c-.1335-.9855-.6088-1.8929-1.3429-2.5639-2.1233-1.9322-6.6938-.706-6.8158 2.5639h-.0053zm9.2149 4.6235c-.7968 1.0008-1.8837 1.731-3.1116 2.0907-1.2278.3597-2.5369.3315-3.748-.081-1.2112-.4124-2.2655-1.1889-3.0187-2.2232-.7532-1.0343-1.1685-2.276-1.1893-3.5554 0-3.5883 2.4896-6.1045 5.9348-6.1045 3.2221 0 6.0141 2.3197 6.0141 5.7648.0076.4249-.0242.8497-.0955 1.2687h-9.9795c.3662 2.1233 1.98 3.4186 4.2466 3.4186.7222.0201 1.4377-.1443 2.0786-.4778.6409-.3335 1.1862-.8249 1.5842-1.4279l1.2843 1.327zM48.4109 19.3082c-.8525-.0139-1.6984.1513-2.483.4851-.7846.3338-1.4903.8286-2.0715 1.4524l1.2528 1.2475c.4125-.4649.9206-.8352 1.4896-1.0853.569-.2501 1.1854-.3743 1.8069-.3638.9903-.0557 1.965.2644 2.7297.8961.7646.6318 1.2627 1.5288 1.3948 2.5118h-6.1895v1.7676h6.2001c-.1266.9938-.6208 1.9041-1.3852 2.5516-.7645.6474-1.7436.9852-2.7447.9467-.7202.0224-1.4344-.1388-2.0751-.4685-.6408-.3296-1.1871-.8169-1.5876-1.416l-1.3058 1.3324c.5801.7602 1.334 1.3705 2.1985 1.7797.8644.409 1.8142.6052 2.77.5719.8116.0296 1.6205-.1082 2.3765-.4049.7559-.2966 1.4426-.7459 2.0173-1.3196.5747-.5737 1.0251-1.2596 1.3231-2.015.298-.7555.4372-1.5642.409-2.3757 0-3.6628-2.548-6.1046-6.1259-6.1046M105.847 19.4571H97.932V31.1938h1.9537v-9.9584h5.9613v-1.7783zM17.9147 19.4571H10V31.1938h1.9535v-9.9584h5.9612v-1.7783zM112.116 29.5959c-.84 0-1.661-.249-2.359-.7156-.698-.4667-1.243-1.1299-1.564-1.9059-.321-.776-.406-1.6298-.242-2.4536.164-.8238.569-1.5805 1.163-2.1744.594-.5939 1.35-.9983 2.174-1.1622.823-.1638 1.678-.0797 2.454.2416.775.3215 1.438.8658 1.905 1.5642.467.6983.716 1.5194.716 2.3593 0 1.1262-.448 2.2064-1.244 3.0028-.797.7964-1.877 1.2438-3.003 1.2438zm0-10.3247c-1.201 0-2.375.3562-3.374 1.0235-.999.6672-1.777 1.6157-2.236 2.7253-.46 1.1097-.58 2.3307-.346 3.5087.235 1.178.813 2.26 1.662 3.1093.849.8493 1.931 1.4277 3.11 1.662 1.177.2343 2.398.114 3.508-.3456 1.11-.4596 2.058-1.238 2.726-2.2366.666-.9987 1.023-2.1728 1.023-3.3738 0-1.6106-.64-3.1552-1.779-4.2941-1.138-1.1389-2.683-1.7787-4.294-1.7787zM89.5558 29.5959c-.8398 0-1.6609-.249-2.3594-.7156-.6978-.4667-1.2427-1.1299-1.5639-1.9059-.3212-.776-.4057-1.6298-.2416-2.4536.1641-.8238.5684-1.5805 1.1624-2.1744.594-.5939 1.3507-.9983 2.1738-1.1622.8239-.1638 1.6782-.0797 2.4542.2416.7754.3215 1.4387.8658 1.9053 1.5642.4666.6983.7158 1.5194.7158 2.3593 0 1.1262-.4472 2.2064-1.2434 3.0028-.7968.7964-1.8768 1.2438-3.0032 1.2438zm0-10.3247c-1.4393-.0016-2.8322.5103-3.9282 1.4439V19.457H83.674v16.4081h1.9536v-5.8923c.7457.633 1.6325 1.0766 2.5865 1.2932.9533.2164 1.9454.1995 2.8911-.0495.9457-.249 1.8173-.7227 2.5401-1.3808.7234-.6582 1.2773-1.4812 1.6144-2.3992.3365-.918.4472-1.9037.3212-2.8735s-.4839-1.8948-1.0439-2.6965c-.5601-.8017-1.305-1.4563-2.1725-1.9081-.8675-.4519-1.8305-.6876-2.8087-.6872zM36.7114 21.0655c-.6323-.0198-1.2612.1008-1.8414.3533-.5801.2524-1.097.6303-1.5135 1.1065l-1.2581-1.2952c.5861-.6455 1.3083-1.1526 2.1143-1.485.806-.3323 1.6758-.4814 2.5465-.4366 2.8824 0 4.4483 1.3907 4.4483 3.1425.0163.5534-.1098 1.1018-.3663 1.5925-.2103.3663-.5121.6717-.8758.8865v.2176c.9555.4035 1.6615 1.0617 1.6615 2.7019 0 1.9111-1.9853 3.6469-4.8199 3.6469-2.4154 0-4.0875-.9449-5.0801-2.3516l1.2634-1.3112c.8228 1.3112 2.0808 1.8739 3.8113 1.8739 1.2687 0 2.8612-.5998 2.8612-1.8686 0-1.1306-.6476-1.7995-2.5586-1.7995h-2.049v-1.6827h1.9588c1.6615 0 2.256-.7591 2.256-1.6562 0-1.1731-1.2422-1.6297-2.5586-1.6297M131.024 23.7938l-4.352-4.8359-1.455 1.3112 4.491 4.9845 1.316-1.4598z"/>
</svg>
