<svg xmlns="http://www.w3.org/2000/svg" viewBox="0 0 200 50">
	<path fill="#001b52" d="M20 37.7h6.5V19.4h11.4V13H20zM41.9 37.7H59v-6H48.4v-3.4h5.3v-6l-5.3.1V19H59v-6H41.9zM75.5 22.1h-5.4V13h-6.5v24.7h6.5v-9.2l5.4-.1.1 9.3H82V13h-6.5zM87.9 37.7h6.5V28h4.9v4.2H96v5.5h9.7V22.5H94.4v-4h11.3V13H87.9zM120.8 13v6.4l1.4.1.6 6.5-4.2-.1.6-12.9h-4.9L111 37.7h6.4l.6-5.3h5.5l.6 5.3h6.3L127.2 13zM147.5 22.1H142V13h-6.4v24.7h6.4v-9.3l5.5.1v9.2h6.5V13h-6.5zM173.9 24.9l5.8-11.9h-7l-3.9 9.1h-2.2V13h-6.5v24.7h6.5v-9.2l2.2-.1 4.2 9.3h7z"/>
</svg>
