<svg viewBox="0 0 200 50" xmlns="http://www.w3.org/2000/svg">
	<path fill="#0066B7" d="M66.5783 22.1406h9.821v3.0007h-.3007c-.1313-.7411-.3007-1.2649-.5061-1.5706-.2069-.3056-.4574-.5018-.7539-.5901-.2958-.0861-.8824-.1299-1.7612-.1299h-2.2708v8.6464c0 .6212.0917 1.0172.2724 1.1908.1822.1694.5139.2555.9975.2555h.2844v.3h-5.7833v-.3h.312c.4807 0 .8069-.0903.9812-.2731.1751-.1836.2626-.5739.2626-1.1732v-7.6638c0-.5054-.072-.864-.2167-1.075-.1454-.2104-.4744-.3177-.9868-.3177h-.3523v-.3h.0007Zm13.6511 9.9572c-.9275.8358-1.7605 1.2565-2.4981 1.2565-.4327 0-.7934-.1454-1.0814-.4327-.2866-.2838-.4299-.6438-.4299-1.0744 0-.583.2499-1.1096.7475-1.5748.4991-.4666 1.5854-1.0878 3.2619-1.8614v-.7701c0-.5782-.0304-.9431-.0932-1.092-.06-.1504-.1779-.2817-.3473-.3939-.1715-.1108-.3635-.1673-.5781-.1673-.3473 0-.6353.079-.864.2372-.1412.0981-.2132.2117-.2132.3416 0 .1151.077.2562.2302.4257.2068.2343.3098.4595.3098.6776 0 .2682-.0995.4948-.2986.6826-.199.187-.4609.2809-.7814.2809-.3416 0-.6303-.1044-.8618-.3106-.2323-.2068-.348-.4489-.348-.7291 0-.3925.1545-.7673.4644-1.1252.3099-.3572.7419-.6318 1.296-.8224.5534-.1906 1.1308-.2866 1.728-.2866.7228 0 1.2946.1546 1.7153.4645.4221.3078.6939.6452.8196 1.0038.0755.2301.1143.7588.1143 1.5847v2.9767c0 .3501.0127.5696.0416.6607.0269.0889.0678.156.1229.2005.0557.0437.1186.067.1906.067.1425 0 .288-.103.4369-.3035l.2435.1941c-.2724.4003-.5562.6911-.8491.8725-.293.18-.6262.2725-.9982.2725-.4369 0-.7807-.1059-1.0277-.3135-.2464-.2054-.3981-.5202-.4525-.9416Zm0-.6007v-2.5433c-.6529.3904-1.1393.8061-1.4576 1.2515-.2104.2958-.3156.5944-.3156.8951 0 .252.089.475.2676.6663.1341.1483.3233.2217.5668.2217.2689-.0007.583-.1631.9388-.4913Zm7.1132.9593v2.8602c0 .3883.0303.6544.0903.7948.0607.1391.1553.2429.2824.3092.127.0643.3748.0967.7454.0967v.3h-4.3376v-.3c.343-.0113.5971-.1066.7623-.2859.1101-.1256.1666-.4475.1666-.9698v-8.0732c0-.5358-.0642-.8788-.1906-1.0264-.1271-.1489-.3727-.2343-.7376-.2562v-.3h3.2195v1.0059c.2661-.3932.5379-.6748.8146-.8506.3967-.2675.828-.4017 1.296-.4017.5597 0 1.0694.1786 1.5296.533.4581.3529.8075.8428 1.0454 1.4668.24.624.3593 1.296.3593 2.016 0 .773-.1228 1.4795-.3706 2.1205-.247.6416-.6056 1.1287-1.0764 1.464-.4687.3339-.9925.5026-1.5692.5026-.4179 0-.8097-.0918-1.1739-.2781-.2711-.1419-.5569-.384-.8555-.7278Zm0-.833c.4666.6615.9656.9925 1.4979.9925.2929 0 .5343-.156.7249-.4645.2809-.4552.4214-1.3242.4214-2.6054 0-1.3136-.1546-2.2129-.4638-2.6978-.2061-.3191-.4821-.4786-.8301-.4786-.5477 0-.9981.3967-1.351 1.1894v4.0644h.0007Zm10.5628.4744c-.9282.8358-1.7598 1.2565-2.4981 1.2565-.4334 0-.7941-.1454-1.0814-.4327-.2866-.2838-.4299-.6438-.4299-1.0744 0-.583.2485-1.1096.7475-1.5748.4984-.4666 1.5854-1.0878 3.2619-1.8614v-.7701c0-.5782-.0318-.9431-.0932-1.092-.0614-.1504-.1786-.2817-.348-.3939-.1715-.1108-.3642-.1673-.5774-.1673-.348 0-.636.079-.8654.2372-.1412.0981-.2118.2117-.2118.3416 0 .1151.077.2562.2287.4257.2069.2343.3106.4595.3106.6776 0 .2682-.0995.4948-.2986.6826-.1997.187-.4595.2809-.7807.2809-.3444 0-.6317-.1044-.864-.3106-.2308-.2068-.3473-.4489-.3473-.7291 0-.3925.156-.7673.4652-1.1252.3106-.3572.7426-.6318 1.2967-.8224.5534-.1906 1.1287-.2866 1.728-.2866.7228 0 1.2946.1546 1.7146.4645.4207.3078.6946.6452.8192 1.0038.077.2301.115.7588.115 1.5847v2.9767c0 .3501.012.5696.041.6607.026.0889.068.156.122.2005.056.0437.12.067.191.067.143 0 .289-.103.437-.3035l.246.1941c-.274.4003-.558.6911-.851.8725-.293.18-.6247.2725-.9974.2725-.4383 0-.7821-.1059-1.027-.3135-.2478-.2054-.3996-.5202-.4532-.9416Zm0-.6007v-2.5433c-.6529.3904-1.1393.8061-1.4576 1.2515-.2104.2958-.3156.5944-.3156.8951 0 .252.0883.475.2676.6663.1341.1483.3232.2217.5647.2217.271-.0007.5844-.1631.9409-.4913Zm4.1666 1.7463v-.3c.312 0 .53-.0818.657-.2421.125-.1644.19-.4736.19-.9296v-4.6666c0-.4849-.063-.8061-.187-.9621-.123-.1574-.343-.2365-.66-.2365v-.3h3.902v.3c-.282.0057-.48.0819-.593.216-.114.132-.172.4327-.172.9035v1.9906h2.21V27.026c0-.3875-.043-.6698-.127-.8491-.085-.18-.299-.2704-.637-.2704v-.3h3.901v.3c-.312 0-.531.0777-.657.2329-.127.1546-.191.413-.191.7758v4.8572c0 .4835.062.7976.187.9416.124.1433.343.2196.661.2309v.3h-3.901v-.3c.283-.0057.482-.0699.595-.1942.112-.1242.169-.432.169-.924v-2.2905h-2.21v2.2369c0 .4892.058.8061.172.9551.113.1447.311.2174.593.2174v.3h-3.902v-.0022Zm11.198 0v-.3c.322 0 .544-.0847.665-.2512.12-.1702.18-.504.18-1.0031v-5.5645h-.763c-.537 0-.91.0939-1.116.2852-.208.1885-.373.5852-.493 1.1873h-.3v-1.9913h7.637v1.9913h-.3c-.099-.5421-.244-.9226-.436-1.1428-.19-.2203-.576-.3297-1.157-.3297h-.78v5.5645c0 .5153.06.852.181 1.0087.12.1588.342.2393.665.2456v.3h-3.983Zm11.249-3.0007h-4.747v-1.6913h4.747v1.6913Zm8.928-6.2689c-.005-.6014-.078-1.0059-.217-1.2162-.142-.2111-.491-.3163-1.05-.3163h-.37v-.3007h5.974v.3h-.388c-.517 0-.858.0996-1.025.3-.168.1977-.251.6353-.251 1.3101v7.2826c0 .6854.085 1.1238.255 1.3186.17.1927.51.2908 1.022.2908h.387v.3h-5.973v-.3h.37c.522 0 .863-.1023 1.023-.3063.163-.2054.243-.6417.243-1.3031v-6.0649l-3.982 6.1828c0 .5301.065.9113.195 1.1428.131.233.484.348 1.059.348h.382v.3h-5.946v-.3h.369c.518 0 .858-.1023 1.022-.3063.164-.2054.245-.6417.245-1.3031v-7.2819c0-.6748-.066-1.1124-.198-1.3101-.129-.2004-.486-.3-1.07-.3h-.368v-.3h5.945v.3h-.382c-.501 0-.834.1101-1.001.3276-.169.2202-.254.6458-.254 1.2825v6.1059l3.984-6.1828Zm5.08 9.2696v-.3c.311 0 .53-.0818.656-.2421.125-.1644.189-.4736.189-.9296v-4.6666c0-.4849-.062-.8061-.185-.9621-.124-.1574-.345-.2365-.66-.2365v-.3h3.901v.3c-.281.0057-.478.0819-.592.216-.115.132-.172.4327-.172.9035v1.9906h2.21V27.026c0-.3875-.045-.6698-.129-.8491-.084-.18-.296-.2704-.635-.2704v-.3h3.9v.3c-.311 0-.529.0777-.656.2329-.125.1546-.19.413-.19.7758v4.8572c0 .4835.063.7976.185.9416.123.1433.343.2196.66.2309v.3h-3.9v-.3c.283-.0057.481-.0699.595-.1942.112-.1242.17-.432.17-.924v-2.2905h-2.21v2.2369c0 .4892.058.8061.172.9551.114.1447.312.2174.592.2174v.3h-3.901v-.0022Zm9.643-7.6376h4.251c.89 0 1.616.1595 2.184.4786.564.319.847.792.847 1.4188 0 .8457-.584 1.4153-1.752 1.7097 1.568.1842 2.352.8449 2.352 1.975 0 .6854-.32 1.2-.961 1.541-.641.3423-1.52.5145-2.639.5145h-4.281v-.3c.381-.0381.617-.1256.708-.2611.091-.137.137-.4038.137-.8019v-4.5558c0-.6141-.051-.9974-.155-1.1484-.1-.1532-.333-.2422-.691-.2704v-.3Zm3.245 3.4094c1.327-.0367 1.991-.5202 1.991-1.4449 0-.9494-.665-1.4301-1.991-1.4457v2.8906Zm0 .5188v2.4932c0 .2534.041.4327.125.5379.083.1073.263.1602.54.1602.466 0 .863-.1602 1.19-.48.327-.3176.491-.7249.491-1.2183 0-.5196-.183-.8979-.545-1.1372-.364-.2372-.963-.3558-1.801-.3558Zm12.285-.4383h-4.256c.049 1.0242.324 1.8339.823 2.4275.381.4567.84.6833 1.377.6833.332 0 .634-.0911.904-.2718.272-.1814.563-.5096.874-.9818l.278.2181c-.418.8343-.879 1.4237-1.383 1.7703-.505.3466-1.09.5217-1.755.5217-1.139 0-2.004-.4377-2.592-1.3087-.473-.7024-.706-1.5727-.706-2.6153 0-1.2763.346-2.2892 1.04-3.0452.694-.7546 1.508-1.1329 2.439-1.1329.781 0 1.457.3148 2.03.943.573.6261.883 1.5593.927 2.7918Zm-2.02-.516c0-.8605-.048-1.4513-.144-1.7725-.098-.3205-.249-.5633-.454-.7306-.117-.0953-.272-.1433-.467-.1433-.288 0-.524.1363-.708.408-.326.4765-.49 1.1294-.49 1.9581v.2803h2.263Zm9.396 2.6753.255.1955c-.361.6791-.81 1.1852-1.348 1.5134-.54.3311-1.112.4984-1.719.4984-1.023 0-1.84-.3847-2.451-1.1534-.612-.7666-.919-1.6906-.919-2.7706 0-1.0426.279-1.9553.838-2.7466.674-.9537 1.603-1.4315 2.786-1.4315.794 0 1.426.199 1.893.5971.469.3967.703.84.703 1.3292 0 .3106-.095.5577-.287.7419-.19.1842-.439.2795-.75.2795-.325 0-.594-.1073-.808-.319-.212-.2125-.343-.5902-.393-1.1344-.034-.3416-.113-.5823-.241-.7186-.126-.1355-.277-.2026-.448-.2026-.266 0-.492.1391-.68.4158-.287.4193-.43 1.0616-.43 1.9256 0 .7193.115 1.4069.347 2.0619.23.6558.548 1.145.95 1.4654.302.233.66.3502 1.074.3502.27 0 .527-.0615.769-.1871.243-.1271.531-.3621.859-.7101Zm2.746 1.9884v-.3c.324 0 .544-.0847.665-.2512.121-.1702.182-.504.182-1.0031v-5.5645h-.765c-.536 0-.908.0939-1.116.2852-.207.1885-.372.5852-.493 1.1873h-.299v-1.9913h7.637v1.9913h-.3c-.099-.5421-.244-.9226-.435-1.1428-.191-.2203-.578-.3297-1.157-.3297h-.78v5.5645c0 .5153.06.852.183 1.0087.118.1588.34.2393.662.2456v.3h-3.984ZM67.8451 14.5465h1.884l-.0318.1115c-.2908 0-.487.043-.588.132-.1009.0875-.2103.3268-.3261.72l-.3.9812c.1059.0021.1814.0028.228.0028.3459 0 .5845-.0261.7172-.0791.1299-.0529.2626-.1532.3946-.3.1327-.1475.2929-.4157.4821-.8075.1835-.3791.3508-.6078.4983-.6875.1483-.0791.2937-.1193.4356-.1193.1609 0 .2858.0388.3762.1157.0896.077.1348.1617.1348.2549 0 .0889-.0282.1701-.0875.2442-.0586.0755-.1405.1129-.2485.1129-.0685 0-.1228-.012-.1588-.036-.0374-.024-.0897-.0783-.156-.1637-.0565-.0685-.1172-.1024-.1821-.1024-.0671 0-.1236.0254-.1701.0755-.0459.0502-.1186.1765-.216.3756-.2132.432-.401.7369-.5612.9141-.1617.1786-.3579.2986-.588.3621.1009.0353.2061.168.3141.3981l.5492 1.1492c.0995.2061.1948.3438.2873.4129.0903.0706.2463.113.4666.1306l-.012.1144h-1.0603l-.696-1.4591c-.1334-.2746-.2407-.4574-.3233-.547-.0819-.089-.2019-.1341-.3571-.1341-.0325 0-.0784.0035-.1405.0098l-.4073 1.3327c-.0593.1956-.0875.3353-.0875.4158 0 .156.1715.2457.5167.2689l-.0269.113h-1.8296l.0438-.1122c.1743 0 .2985-.0149.3698-.0445.072-.0304.1363-.0713.1949-.1243.0571-.0515.1313-.2244.2181-.5167l.8308-2.7063c.0579-.197.0868-.329.0868-.3925 0-.1186-.0388-.1983-.1179-.24-.0783-.0416-.2117-.0628-.4002-.0628l.0438-.1129Zm9.8717 2.4225c0 .3184-.0889.6353-.2668.9487-.1793.3128-.4277.5605-.7475.744-.3191.1836-.6282.2746-.9304.2746-.307 0-.559-.0938-.7531-.2795-.1949-.1856-.2916-.4278-.2916-.7235 0-.3127.0946-.6268.2845-.9417.1892-.3155.4426-.5647.7616-.7482.3177-.1821.6255-.2753.9219-.2753.2965 0 .5414.0932.7327.2788.1942.1857.2887.4257.2887.7221Zm-.5484-.2273c0-.199-.0516-.3522-.1546-.4567-.1038-.1058-.2365-.1588-.4003-.1588-.3324 0-.6388.2252-.919.6748-.2795.4511-.4193.8986-.4193 1.344 0 .2026.0543.36.1631.4695.108.1115.2456.1658.4101.1658.3197 0 .6197-.2244.8986-.6713.2823-.4503.4214-.9042.4214-1.3673Zm4.6807-.5604 1.0242-.2019h.1391l.1976 2.3287 1.589-2.2616h.5527l-.648 2.1169c-.0678.2181-.1017.3395-.1017.3649 0 .0678.0268.1024.0805.1024.0896 0 .2195-.1511.3932-.4567l.1002.0635c-.1158.1962-.2605.3614-.4313.4955-.1715.1349-.3085.2026-.4129.2026-.1709 0-.2549-.1002-.2549-.3007 0-.0889.0367-.2541.1109-.4955l.5343-1.7414-1.7823 2.5376h-.1518l-.2513-2.6576c-.3762 1.327-.6515 2.1007-.8245 2.323-.1715.2238-.3607.3346-.564.3346-.2033 0-.3049-.0797-.3049-.2386 0-.0698.0261-.1298.0791-.1793.0536-.0501.115-.0748.1884-.0748.0628 0 .1391.0297.2323.0883.0423.0303.0804.0451.1115.0451.0543 0 .1278-.0691.2209-.204.0932-.1362.2273-.4807.3989-1.0341.1743-.5527.2597-.8682.2597-.9452 0-.0945-.0748-.1418-.2223-.1418-.0784 0-.1822.0134-.3106.0409l.048-.1108Zm7.8452 0 1.0235-.2019h.1405l.1962 2.3287 1.5889-2.2616h.5527l-.6487 2.1169c-.0677.2181-.1002.3395-.1002.3649 0 .0678.0261.1024.0798.1024.0882 0 .2195-.1511.3924-.4567l.1003.0635c-.1165.1962-.2605.3614-.4313.4955-.1723.1349-.3092.2026-.4137.2026-.1708 0-.2548-.1002-.2548-.3007 0-.0889.036-.2541.1087-.4955l.5365-1.7414-1.7824 2.5376h-.1524l-.2506-2.6576c-.377 1.327-.6516 2.1007-.8238 2.323-.1722.2238-.36.3346-.564.3346-.204 0-.3056-.0797-.3056-.2386 0-.0698.0261-.1298.079-.1793.053-.0501.1151-.0748.1864-.0748.0635 0 .1411.0297.2343.0883.0417.0303.0791.0451.1108.0451.0558 0 .1285-.0691.2224-.204.0939-.1362.2266-.4807.3988-1.0341.173-.5527.2598-.8682.2598-.9452 0-.0945-.0748-.1418-.2224-.1418-.079 0-.1835.0134-.3127.0409l.0516-.1108Zm7.9214 1.4668c-.0142.1073-.0219.1962-.0219.2661 0 .1906.072.353.2174.4857.1447.1327.3219.1997.528.1997.1659 0 .3268-.031.4793-.0946.1546-.0628.3812-.2011.6819-.4171l.072.0924c-.5351.5033-1.0454.756-1.5311.756-.3296 0-.5781-.0981-.7454-.2936-.1673-.1962-.2513-.4122-.2513-.6487 0-.317.1038-.6424.3113-.9741.2089-.3325.4687-.5909.7828-.7744.3141-.1842.6367-.2774.9692-.2774.2379 0 .4158.0459.5322.1369.1144.0918.1723.2005.1723.3247 0 .1765-.0763.3445-.228.5062-.1991.2096-.4934.379-.8824.5082-.2569.0875-.619.156-1.0863.204Zm.0254-.1454c.3416-.036.6197-.0981.835-.1857.2852-.1178.4977-.259.6403-.4228.1426-.1645.2139-.3197.2139-.4666 0-.0903-.0318-.1623-.0925-.2195-.0614-.0544-.149-.0826-.2612-.0826-.2365 0-.4863.1165-.7525.3487-.264.233-.4581.5753-.583 1.0285Zm7.2239-1.5226-.225.7362c.243-.2731.459-.4637.651-.5724.19-.1087.386-.1638.584-.1638.199 0 .369.0748.508.2245.142.1503.211.3444.211.5844 0 .4666-.199.9417-.599 1.4245-.401.4828-.867.7242-1.399.7242-.111 0-.211-.0127-.298-.036-.084-.024-.183-.0649-.289-.1263l-.251.8181c-.049.1631-.074.2682-.074.3184 0 .0458.012.0861.039.1193.025.0331.067.0585.125.0769.058.0176.174.0275.346.0275l-.03.1116h-1.577l.033-.1116c.209-.0084.35-.0423.422-.1023.072-.0586.149-.2245.231-.4941l.849-2.7749c.053-.1778.078-.2887.078-.3317 0-.0579-.016-.1024-.051-.1356-.034-.0324-.087-.048-.155-.048-.063 0-.151.0078-.263.0226v-.1115l1.134-.18Zm-.78 2.5419c.141.1581.33.2357.568.2357.117 0 .238-.0303.36-.0917s.242-.1525.358-.2732c.117-.1207.223-.2591.315-.4172.093-.1567.176-.343.25-.5569.074-.2125.11-.4242.11-.6346 0-.1687-.042-.2986-.125-.3889-.083-.0897-.181-.1349-.293-.1349-.245 0-.488.1313-.73.3932-.24.2619-.413.569-.522.9212l-.291.9473Zm6.393-2.3739.97-.18h.126l-.321 1.0878c-.048.1538-.07.2527-.07.2978 0 .1737.129.2605.387.2605.209 0 .45-.084.72-.2541l.4-1.3136h.516l-.688 2.2552c-.036.125-.053.2005-.053.2266 0 .0509.021.077.064.077.071 0 .201-.1384.389-.4172l.113.0635c-.344.4574-.624.6854-.842.6854-.163 0-.245-.0917-.245-.2745 0-.1123.038-.2902.112-.5323l.173-.5661c-.29.1906-.576.2866-.866.2866-.187 0-.349-.048-.487-.1426-.139-.0953-.209-.2146-.209-.3593 0-.0847.026-.2103.079-.3748l.091-.293c.035-.1171.053-.2011.053-.2541 0-.115-.076-.1715-.231-.1715-.069 0-.14.0056-.218.0162l.037-.1235Zm7.179 1.5c-.016.1073-.023.1962-.023.2661 0 .1906.072.353.217.4857.146.1327.322.1997.53.1997.164 0 .324-.031.478-.0946.154-.0628.381-.2011.682-.4171l.071.0924c-.533.5033-1.044.756-1.53.756-.329 0-.579-.0981-.745-.2936-.167-.1962-.251-.4122-.251-.6487 0-.317.104-.6424.312-.9741.208-.3325.467-.5909.781-.7744.315-.1842.636-.2774.969-.2774.238 0 .416.0459.532.1369.114.0918.172.2005.172.3247 0 .1765-.075.3445-.227.5062-.2.2096-.494.379-.882.5082-.259.0875-.621.156-1.086.204Zm.023-.1454c.343-.036.621-.0981.836-.1857.285-.1178.498-.259.64-.4228.142-.1645.214-.3197.214-.4666 0-.0903-.031-.1623-.093-.2195-.061-.0544-.149-.0826-.261-.0826-.237 0-.486.1165-.751.3487-.265.233-.46.5753-.585 1.0285Zm8.28.6593c-.232.264-.467.4602-.704.5859-.234.1249-.486.1884-.749.1884-.317 0-.565-.0854-.742-.2555-.177-.1701-.266-.3988-.266-.6868 0-.3254.095-.6466.286-.9621.192-.3149.447-.5704.771-.768.323-.1963.638-.2958.949-.2958.244 0 .425.0487.546.1447.12.0946.18.2132.18.3529 0 .1299-.042.2429-.127.3353-.062.0727-.14.108-.233.108-.07 0-.128-.0204-.174-.0635-.047-.0409-.07-.0946-.07-.1574 0-.0395.008-.0769.026-.1101.017-.0339.053-.0748.107-.1214.053-.048.086-.0819.098-.1031.01-.0219.016-.043.016-.067 0-.0438-.021-.0812-.063-.1109-.066-.0409-.159-.0635-.278-.0635-.22 0-.439.0734-.654.2209-.216.1462-.402.3544-.553.624-.185.3276-.277.6551-.277.9819 0 .2174.065.389.196.5146.131.1271.307.1899.532.1899.173 0 .344-.0409.515-.1221.17-.0812.36-.2294.572-.4433l.096.084Zm4.175-1.9913 1.033-.1906h.13l-.423 1.3779c.084.0042.133.0063.143.0063.367 0 .655-.2167.863-.6508.115-.2407.195-.3988.241-.4722.047-.0748.107-.1377.186-.1871.077-.0494.166-.0748.264-.0748.122 0 .223.036.306.108.081.072.123.1567.123.2541 0 .0833-.029.1525-.088.2111-.057.0586-.126.0868-.202.0868-.095 0-.18-.0522-.252-.156-.053-.0748-.099-.1122-.139-.1122-.062 0-.137.0974-.227.2894-.184.4179-.391.6706-.618.7581.097.0452.181.1186.254.2174.073.1002.216.3381.427.7144.095.1736.186.2781.272.3134.087.0346.192.0593.314.0698l-.044.1236h-.807c-.198-.3981-.366-.7094-.504-.929-.139-.2202-.238-.3466-.3-.3783-.059-.0318-.145-.048-.257-.048l-.416 1.3553h-.499l.657-2.1523c.043-.1341.064-.2273.064-.2795 0-.1136-.079-.1701-.239-.1701-.048 0-.136.0092-.262.0261v-.1108Zm9.654-.1235-.617 1.9327c-.092.2873-.139.468-.139.5442 0 .0346.007.0607.019.0776.012.017.025.0248.044.0248.028 0 .062-.0149.097-.0459.035-.029.124-.1589.267-.3876l.101.0742c-.154.2576-.311.4433-.474.559-.107.0734-.21.1115-.311.1115-.076 0-.136-.024-.181-.0705-.045-.0459-.068-.1073-.068-.1815 0-.0727.016-.1687.045-.2865.036-.1462.143-.4807.319-1.0066-.396.5894-.727.9946-.992 1.2141-.265.2209-.511.331-.737.331-.106 0-.196-.0345-.269-.1023-.075-.0692-.113-.1539-.113-.2591 0-.1595.06-.4051.179-.7348l.352-.9861c.086-.2372.13-.3833.13-.4419 0-.0254-.012-.0473-.035-.0649-.024-.0177-.048-.0269-.074-.0269-.058 0-.114.0156-.171.0473-.056.0318-.184.1497-.384.3544l-.103-.0699c.183-.247.378-.4292.582-.5463.158-.0918.302-.1377.434-.1377.091 0 .166.0325.222.0967.059.065.087.1468.087.2485 0 .1129-.053.3141-.158.6035l-.367 1.0115c-.103.2746-.155.449-.155.5224 0 .0395.016.0727.044.0974.029.024.069.036.117.036.077 0 .177-.0346.3-.1052.122-.0706.286-.2258.491-.4666.205-.2414.375-.468.508-.679.133-.2118.275-.5478.425-1.0087l.086-.2774h.499v-.0014Zm6.855 0-.598 1.9313c-.09.2894-.134.4672-.134.535 0 .0572.02.0868.061.0868.028 0 .062-.0176.101-.0536.041-.0353.128-.1645.262-.3875l.102.0727c-.284.4701-.555.7051-.815.7051-.064 0-.118-.0225-.163-.067-.046-.0452-.067-.108-.067-.1885 0-.1426.116-.5781.353-1.3066-.662 1.0412-1.222 1.5621-1.683 1.5621-.124 0-.218-.0367-.288-.1087-.067-.072-.101-.163-.101-.2717 0-.1476.058-.3861.176-.7158l.345-.9868c.084-.2393.127-.3805.127-.425 0-.0734-.04-.1087-.119-.1087-.101 0-.279.1334-.533.4017l-.106-.0699c.336-.456.672-.684 1.006-.684.09 0 .162.0325.218.096.058.0628.086.1454.086.2485 0 .1115-.051.312-.154.6021l-.362 1.0122c-.1.276-.15.4504-.15.5238 0 .0882.05.1334.152.1334.077 0 .183-.0416.317-.1242.133-.084.319-.2767.557-.5789.24-.3014.408-.5513.504-.7496.099-.1984.203-.4772.317-.8379l.075-.2463h.514Zm-.205-1.5904h.158c-.26.5534-.629.8287-1.107.8287-.219 0-.401-.0515-.546-.1546-.145-.1023-.218-.2273-.218-.3762 0-.0826.026-.1539.076-.2111.051-.0579.12-.0875.204-.0875.08 0 .144.0219.195.0642.051.0431.105.1207.163.233.085.168.211.252.374.252.151 0 .291-.06.422-.1793.133-.1207.226-.2428.279-.3692Zm12.447-.1228h.122c-.033.1581-.103.2972-.213.4172-.108.1207-.224.1997-.344.2378-.12.0389-.317.0671-.591.0833-.266.0191-.469.0487-.608.0897-.138.0395-.273.1165-.408.2308-.134.1129-.269.2915-.404.5344-.138.2428-.273.5505-.406.9204.473-.5866 1.005-.8802 1.601-.8802.288 0 .528.0918.718.2718.191.1807.285.432.285.7538 0 .5069-.194.9572-.583 1.3511-.389.3939-.842.5915-1.358.5915-.331 0-.584-.1023-.761-.3049-.177-.2047-.266-.4539-.266-.7511 0-.415.112-.895.333-1.4407.224-.5442.455-.9487.696-1.2127.24-.264.473-.4362.701-.5167.227-.0805.541-.1313.943-.1532.198-.0127.328-.031.39-.055.061-.0226.112-.0784.153-.1673Zm-1.285 1.7689c-.372 0-.698.2217-.981.6614-.281.4412-.422.8951-.422 1.3645 0 .2308.062.3988.183.5047.124.1052.263.1574.417.1574.354 0 .657-.2386.911-.7193.254-.48.38-.9571.38-1.4308 0-.1871-.046-.3233-.142-.4094-.094-.0854-.21-.1285-.346-.1285Zm8.144-.067-.726 2.4444c-.013.0254-.019.0459-.019.0636 0 .0296.008.0564.025.0797.012.0177.027.0261.047.0261.021 0 .046-.0155.08-.0465.064-.0565.145-.1815.251-.3742l.113.077c-.131.2139-.265.3727-.404.4757-.138.1031-.266.1553-.382.1553-.082 0-.145-.0233-.19-.0684-.044-.0459-.067-.1116-.067-.1998 0-.1045.024-.2414.075-.4108l.072-.2315c-.323.36-.621.612-.893.7545-.195.1031-.385.1553-.572.1553-.18 0-.336-.0628-.467-.1884-.131-.1264-.195-.2993-.195-.521 0-.3303.116-.679.35-1.0468.232-.3678.527-.6621.886-.8816.282-.1751.545-.2626.796-.2626.147 0 .272.0317.37.0924.099.0614.175.1631.225.305l.101-.3191.524-.0783Zm-1.242.1574c-.158 0-.325.0621-.501.1877-.25.1758-.473.4391-.668.7864-.195.3473-.291.6607-.291.9423 0 .1412.043.2528.129.3353.087.0826.187.1229.299.1229.278 0 .579-.1666.906-.5019.397-.4447.589-.9014.578-1.3694 0-.1765-.042-.305-.122-.3833-.081-.0812-.192-.12-.33-.12Zm5.096-.012 1.027-.2019h.121l-.408 1.3327h1.175l.388-1.2649h.5l-.683 2.2334c-.036.1221-.054.1969-.054.223 0 .041.02.0607.06.0607.08 0 .216-.1404.404-.4228l.124.0558c-.323.4927-.61.739-.861.739-.158 0-.237-.0995-.237-.2971 0-.0975.043-.2859.127-.5655l.186-.6049h-1.177l-.426 1.3892h-.501l.649-2.1092c.049-.1609.074-.2633.074-.3071 0-.1136-.075-.1708-.223-.1708-.034 0-.124.0078-.265.0219v-.1115Zm6.829-.0106 1.031-.1906h.131l-.423 1.3779c.083.0042.131.0063.143.0063.366 0 .654-.2167.862-.6508.115-.2407.194-.3988.242-.4722.046-.0748.108-.1377.185-.1871.076-.0494.167-.0748.265-.0748.122 0 .223.036.306.108.081.072.122.1567.122.2541 0 .0833-.028.1525-.088.2111-.058.0586-.123.0868-.202.0868-.095 0-.178-.0522-.252-.156-.052-.0748-.099-.1122-.139-.1122-.063 0-.138.0974-.227.2894-.185.4179-.391.6706-.618.7581.097.0452.181.1186.255.2174.072.1002.214.3381.426.7144.096.1736.185.2781.274.3134.086.0346.19.0593.314.0698l-.045.1236h-.807c-.197-.3981-.365-.7094-.505-.929-.139-.2202-.238-.3466-.298-.3783-.06-.0318-.146-.048-.258-.048l-.415 1.3553h-.501l.658-2.1523c.042-.1341.064-.2273.064-.2795 0-.1136-.079-.1701-.238-.1701-.05 0-.138.0092-.263.0261v-.1108h.001Z"/>
	<path fill="#0066B7" d="M179.413 34.3867H66.5239v.3798H179.413v-.3798ZM31.7752 7h-1.1393c-.2993 0-.5379.24635-.5379.55412V35.4104c0 .5731.1617 1.0263.4793 1.3531.3149.3233.7264.4956 1.1902.4956.4927 0 .9148-.1836 1.219-.5323.2972-.3402.4475-.7807.4475-1.3164v-5.0457c0-2.7127 1.1019-5.5461 3.276-8.4212 1.8615-2.4677 4.2078-4.5395 6.941-6.2188v22.7442H27.2067c-1.531 0-2.7797-1.2338-2.7797-2.7508V13.168c0-1.5169 1.2487-2.7529 2.7797-2.7529h1.1711c.2958 0 .5393-.2478.5393-.55134V7.55412C28.9164 7.24635 28.6729 7 28.3771 7h-1.1132c-3.4052 0-6.175 2.77412-6.175 6.1814v22.5219c0 3.408 2.7698 6.18 6.175 6.18H46.454c.2951 0 .5351-.2457.5351-.552V13.4744c0-.4815-.1447-.905-.4278-1.2615-.3077-.3861-.7503-.5858-1.2755-.5858-1.4174 0-3.4525 1.1033-6.223 3.3783-2.3182 1.8974-4.1916 3.9417-5.6288 6.0819V10.4158h16.445c1.5353 0 2.7868 1.236 2.7868 2.7529v22.5487c0 1.517-1.2515 2.7508-2.7868 2.7508h-1.1661c-.2986 0-.54.2478-.54.5513v2.3118c0 .3063.2421.552.54.552h1.1075c3.4094 0 6.18-2.772 6.18-6.18V13.1814C55.9997 9.77412 53.2298 7 49.8197 7H31.7752Z"/>
	<path fill="#0066B7" d="M30.6913 8.11328h-1.1435c-.2972 0-.5386.24777-.5386.55059V36.525c0 .5697.1609 1.0271.4835 1.3546.3141.3226.7249.4941 1.1838.4941.4927 0 .9162-.1863 1.2261-.535.2915-.336.444-.7786.444-1.3137v-5.0484c0-2.7113 1.0998-5.5447 3.2746-8.4212 1.8621-2.4649 4.2063-4.5381 6.9452-6.2167v22.7456H26.1165c-1.5346 0-2.7805-1.236-2.7805-2.7536v-22.548c0-1.5169 1.2459-2.7537 2.7805-2.7537h1.1717c.2979 0 .5379-.247.5379-.5498V8.66387c0-.30282-.24-.55059-.5379-.55059h-1.1117C22.7699 8.11328 20 10.8874 20 14.294v22.5233c0 3.4087 2.7699 6.1821 6.1765 6.1821h19.183c.2986 0 .5414-.2464.5414-.5527V14.589c0-.4821-.1425-.9049-.4298-1.2628-.3092-.3847-.7476-.5859-1.2735-.5859-1.4174 0-3.4531 1.1055-6.2258 3.3798-2.316 1.8981-4.1887 3.9417-5.6259 6.0847V11.529H48.788c1.5395 0 2.7875 1.2368 2.7875 2.7537v22.548c0 1.5176-1.248 2.7536-2.7875 2.7536h-1.1682c-.2965 0-.5393.245-.5393.5499v2.3125c0 .3056.2428.5527.5393.5527h1.1117c3.408 0 6.1786-2.7734 6.1786-6.1814V14.294c0-3.4066-2.7706-6.18072-6.1786-6.18072H30.6913Z"/>
	<path fill="#fff" d="M26.1762 8.66602h1.1125v2.31528h-1.1718c-1.8275 0-3.3197 1.4845-3.3197 3.3035v22.548c0 1.817 1.4929 3.3036 3.3197 3.3036h16.9857V15.8512c-3.1722 1.7965-5.8087 4.0885-7.9066 6.8682-2.2574 2.9901-3.3903 5.9118-3.3903 8.7593v5.0485c0 .3967-.1031.7122-.305.9445-.2082.235-.4821.3522-.8238.3522-.319 0-.5865-.1108-.804-.3332-.2167-.2237-.324-.5449-.324-.9635V8.66602h19.1845c3.1045 0 5.6358 2.53408 5.6358 5.63008v22.5233c0 3.096-2.5313 5.6294-5.6358 5.6294h-1.1117v-2.3124h1.1682c1.8282 0 3.3261-1.4859 3.3261-3.3036V14.2841c0-1.819-1.4979-3.3035-3.3261-3.3035H31.8064v13.1047c1.4844-2.6873 3.6536-5.2002 6.5047-7.5332 2.6435-2.1741 4.6115-3.2597 5.8877-3.2597.365 0 .6501.1277.857.3833.2026.2576.3042.5597.3042.9141v27.8576H26.1762c-3.103 0-5.6371-2.5327-5.6371-5.6294V14.2954c0-3.0953 2.5341-5.62938 5.6371-5.62938Z" clip-rule="evenodd"/>
</svg>