<svg xmlns="http://www.w3.org/2000/svg" viewBox="0 0 200 50">
	<path fill="#7399c6" d="M54.7 13.6L57 15v7.3c-.7.2-1.2.2-1.6.2-3.4 0-4.2-2.9-4.2-9.4 0-6.2 1.4-9.8 4.2-9.8 1.5 0 2.5.9 3.3 3.2l.9 2.5h1.5V2.5C59 2.1 57.2 2 56.3 2c-6.8 0-10.2 4-10.2 11.2 0 6.7 2.7 10.7 9.2 10.7 1.4 0 3.8-.2 6.1-.6V12.8h-6.6l-.1.8zM57.1 34.9l-3.2-1.7c-1.7-1-2.5-2.1-2.5-3.4 0-1.5 1.2-2.5 2.9-2.5s2.6.9 3.4 3.2l.9 2.4h1.5v-6.6c-2.1-.3-3.4-.4-4.5-.4-5 0-7.9 2.2-7.9 5.9 0 2.5 1.3 4.4 3.7 5.7l3.1 1.7c1.8 1 2.6 2.3 2.6 3.9 0 2.1-1.3 3.5-3.2 3.5-1.8 0-2.8-1.3-4.2-5.5l-.6-1.8h-1.5v8c1.9.4 4 .6 5.4.6 5.1 0 8-2.4 8-6.6 0-2.7-1.2-4.7-3.9-6.4zM74.9 36c0-3.1-2-4.8-5.6-4.8-1.6 0-3.5.4-5.3.9v5h1.4l1-2.4c.7-1.6 1.3-2.3 2.4-2.3 1.2 0 1.7.7 1.7 2.4V37l-2 .8c-4.3 1.8-5.7 3.4-5.7 6 0 2.7 1.7 4.1 4 4.1 1.8 0 3.3-.9 3.8-2.3l.2 2h4.8v-.5l-.6-.9-.1-10.2zm-4.2 7.4c0 1.5-.6 2.6-1.7 2.6s-1.6-.9-1.6-2.9c0-2.3.8-3.7 2.6-4.5l.7-.3v5.1zM70.5 7.1c-3.6 0-6.5 2.9-6.5 8.4s2.9 8.4 6.5 8.4 6.5-3 6.5-8.4c0-5.3-2.8-8.4-6.5-8.4zm-.1 15.6c-1.5 0-2-1.4-2-7.2s.6-7.2 2-7.2c1.5 0 2 1.5 2 7.2 0 5.8-.5 7.2-2 7.2zM84.7 46.4c-1.9 0-2.6-1.7-2.6-6.5 0-5.8 1-7.4 2.3-7.4.8 0 1.4.5 2.1 2.8l.6 2h1.5V32c-1.3-.5-3-.7-4.1-.7-4.4 0-6.9 2.9-6.9 8.5 0 5.1 2.1 8.2 6.1 8.2 2.7 0 4.1-1.3 5-3.9l-1-.5c-.9 2-1.7 2.7-3 2.8zM84.6 23l-.6-.9V3l-4.9.4v.5l.6.9v17.3l-.6.9v.5h5.6zM103.5 46.2V36c0-3.2-1.6-4.8-4.2-4.8-1.4 0-3 .6-3.7 2V27l-5 .4v.5l.6.9v17.4l-.6.9v.5h5.6v-.5l-.6-.9V35.7c0-1.6.8-2.7 2-2.7.9 0 1.4.8 1.4 1.9v11.3l-.6.9v.5h5.6v-.5l-.5-.9zM95.7 21.2l.4 2.3h4.4V23l-.6-.9V3l-5 .4v.5l.6.9v4.4c-.3-1.2-1.3-2-2.9-2-3.5 0-5.7 2.8-5.7 8.2 0 5.6 2 8.5 5.6 8.5 1.8 0 2.8-.8 3.2-2.7zM93.5 8.4c1.6 0 2 2.2 2 6.9 0 5-.3 7.3-2 7.3-1.5 0-2-1.8-2-7.2 0-5.2.6-7 2-7zM123.2 11.9c0-3.2-1.4-4.7-3.9-4.7-2 0-3.4 1-4.1 2.5-.6-1.6-1.7-2.5-3.6-2.5-1.8 0-3.3.9-3.9 2.3l-.2-1.9h-.4l-4.4.5v.4l.6.8v12.9l-.6.9v.5h5.6v-.5l-.6-.9V11.7c0-1.6.8-2.8 2-2.8.9 0 1.4.8 1.4 1.9v11.4l-.6.9v.5h5.6v-.5l-.6-.9V11.7c0-1.6.7-2.8 1.9-2.8.9 0 1.4.8 1.4 1.9v11.4l-.6.9v.5h5.6v-.5l-.6-.9V11.9zM114.6 38.3l-2.8-1.6c-1.5-.8-2.1-1.4-2.1-2.4s.7-1.7 2.1-1.7c1.3 0 1.9.6 2.6 2.2l.7 1.6h1.3v-4.5c-1.5-.3-2.9-.5-4-.5-3.8 0-6 1.7-6 4.6 0 1.9.8 3.2 2.6 4.2l2.8 1.5c1.5.8 2.2 1.6 2.2 2.9 0 1.5-.8 2.3-2.4 2.3-1.7 0-2.4-.9-3.5-3.9l-.5-1.2h-1.4v5.7c2.2.3 3.7.5 4.8.5 4.4 0 6.1-2.3 6.1-5.2 0-2.2-1-3.6-2.5-4.5zM137.6 12c0-3.1-2-4.8-5.6-4.8-1.6 0-3.5.4-5.3.9v5h1.4l1-2.4c.7-1.6 1.3-2.3 2.4-2.3 1.2 0 1.7.7 1.7 2.4V13l-2 .8c-4.3 1.8-5.7 3.3-5.7 6s1.7 4.1 4 4.1c1.8 0 3.3-.9 3.8-2.3l.2 2h4.8v-.5l-.6-.9-.1-10.2zm-4.3 7.3c0 1.5-.5 2.6-1.7 2.6-1.1 0-1.6-.9-1.6-2.9 0-2.3.8-3.7 2.6-4.5l.7-.3v5.1zM153.6 22.2V12c0-3.2-1.6-4.8-4.2-4.8-1.6 0-3.3.6-3.9 2.3l-.2-2h-.4l-4.4.5v.5l.6.8v12.8l-.6.9v.5h5.6V23l-.6-.9V11.6c0-1.6.8-2.7 2-2.7.9 0 1.4.8 1.4 1.9v11.4l-.6.9v.5h5.6v-.5l-.3-.9z"/>
</svg>