<svg xmlns="http://www.w3.org/2000/svg" viewBox="0 0 200 50">
	<path fill="#18181d" d="M120.4 1.5c0-.3-.2-.5-.5-.5h-11.5c-.3 0-.5.2-.5.5v3.8h12.4V1.5zM141.6 36.4c-3.8 0-4-.8-4-10.8 0-10.3.1-10.8 4-10.8 3.7 0 3.7.4 3.7 3.9h4.6c0-7.4-1.8-8.5-8.3-8.5-8.2 0-8.6 3.7-8.6 15.4 0 13.2 0 15.4 8.5 15.4 5.9 0 8.4-1.4 8.4-9h-4.7c.1 4-.2 4.4-3.6 4.4zM61 25.5c0-.1.1-.3.1-.4l6-14.3h-4.7l-3.6 8.5c-.1.1-.2.2-.3.2h-.1c-.1 0-.1-.1-.1-.2l-3.6-8.5H50l6 14.3V26.1l-6 14.2h4.7l3.7-8.8c0-.1.1-.2.2-.2s.2.1.2.2l3.8 8.8h4.6l-6.1-14.4c0-.1-.1-.2-.1-.4zM77.5 10.8c-.2 0-.4.2-.4.4v3.6h4.3c.1 0 .1.1.2.1l-5.9 25.3h4.6l1.4-6.6c.1-.3.3-.5.6-.5h7c.1 0 .1 0 .2.1l.1.1c.1.1.1.2.1.3l1.5 6.6H96l-6.5-29.5h-12zm10.8 18.8h-5.2c-.4 0-.4-.1-.4-.4l2.8-12.3c0-.1.1-.2.2-.2s.2.1.2.2l2.8 12.3c0 .2 0 .4-.4.4zM110.7 28.2c-.1.1-.2.2-.3.2-.1 0-.2-.1-.2-.2V10.8h-4.6v29.4h4.6l7.4-17.5c0-.1.1-.1.1-.1l.1-.1c.1 0 .2.1.2.2v17.5h4.6V10.8H118l-7.3 17.4z"/>
</svg>