<svg xmlns="http://www.w3.org/2000/svg" viewBox="0 0 200 50">
	<path fill="#4D4D4D" d="M116.694 19.0198h-2.028l-2.401 4.0187c-.147.2523-.268.5655-.355.8786-.087-.3131-.208-.6263-.355-.8786l-2.34-4.0187h-2.167l3.675 5.9673-4.256 6.7239h2.046l2.86-4.7146c.147-.2523.268-.5481.355-.8612.087.3131.225.6089.373.8612l2.712 4.7146h2.15l-4.108-6.7239 3.839-5.9673zm-25.1159 6.9154h-3.8566v-3.81h-1.7507v9.5945h1.7507v-4.3145h3.8566v4.3145h1.7507v-9.5945h-1.7507v3.81zm-9.8886 3.5142c-.4593.548-1.1093 1.0177-2.0627 1.0177-1.0833 0-1.8373-.5654-1.8373-1.5918 0-1.1134.7886-1.7398 2.2533-1.7398.624 0 1.1527.061 1.6467.2001v2.1138zm1.794-3.6012c0-3.0793-1.7507-3.9405-3.588-3.9405-1.2134 0-2.444.4437-3.38.9395l.754 1.5484c.936-.6873 1.7073-1.0265 2.548-1.0265 1.0227 0 1.8806.6959 1.8806 2.2877v.2436c-.5546-.1392-1.2046-.2001-1.9846-.2001-2.314 0-3.7527 1.1743-3.7527 3.2272 0 1.9311 1.352 3.0358 3.2153 3.0358 1.2654 0 2.132-.5567 2.678-1.2265.078.3218.1734.6523.3034.9742h1.612c-.1907-.6262-.2687-1.2352-.2687-1.8615v-4.0013h-.0173zm35.9405-.7481c0 3.7056-1.066 4.8016-2.401 5.2191l.694 1.5745c1.941-.4176 3.362-2.2877 3.362-6.7849V23.604h2.739v8.1244h1.751v-9.6032h-6.136v2.9749h-.009zm-16.302-2.9749h-2.063l-3.4055 4.3232v-4.3232h-1.7507v9.5945h1.7507v-4.7494l3.8655 4.7494h2.21l-4.3249-5.1495 3.7179-4.445zm50.847 8.3158c-1.646 0-2.591-1.8267-2.591-3.6882 0-1.531.624-3.3141 2.253-3.3141 1.647 0 2.592 1.8267 2.592 3.6882 0 1.5309-.624 3.3141-2.254 3.3141zm-.164-8.5245c-2.34 0-4.195 2.2442-4.195 5.2365 0 2.7053 1.603 4.819 4.195 4.819 2.34 0 4.194-2.2443 4.194-5.2365 0-2.7053-1.612-4.819-4.194-4.819zm-22.317 8.3592h-1.603v-3.3141h1.603c1.04 0 1.733.548 1.733 1.6527 0 1.2004-.788 1.6614-1.733 1.6614zm.026-4.7406h-1.629v-3.4186h-1.751v9.5945h3.38c1.941 0 3.38-1.2352 3.38-3.349 0-2.2354-1.543-2.8269-3.38-2.8269zm32.249 4.758h-2.106v-2.9575h2.088c.919 0 1.526.5045 1.526 1.4701-.009.9394-.572 1.4874-1.508 1.4874zm-2.115-6.7674h1.915c.902 0 1.292.5045 1.292 1.2177 0 .7307-.442 1.2614-1.292 1.2614h-1.915v-2.4791zm3.735 2.8531c.694-.3567 1.214-1.0874 1.214-2.0702 0-1.3832-1.066-2.1747-2.834-2.1747h-3.857v9.5945h3.839c1.855 0 3.363-1.1917 3.363-3.0619-.009-1.3309-.78-2.0441-1.725-2.2877zm-29.362 5.3409h1.75v-9.5945h-1.75v9.5945zm9.932-5.7845h-3.866v-3.81h-1.75v9.5945h1.75v-4.3145h3.866v4.3145h1.75v-9.5945h-1.75v3.81zm-75.7902 4.2536h-2.106v-4.8017h1.898c1.6727 0 2.6693.8003 2.6693 2.3922.0087 1.5483-.9533 2.4095-2.4613 2.4095zm-.0346-6.3239h-2.0627v-3.288h5.3213v-1.5484h-7.1847v12.6912h3.9261c2.522 0 4.3853-1.5309 4.3853-4.2274-.0087-2.4966-1.638-3.6274-4.3853-3.6274z"/>
	<path fill="#009CA3" d="M53.488 23.7517c.4767 0 .7887.1306 1.1267.3567.2946-.5654.754-1.6353.754-2.3225-.9187.2958-2.4614.9655-3.2587 1.4874-1.3173.8612-2.2967 2.366-2.2967 3.3924 0 .4176.208.6699.65.6699 1.144 0 3.276-1.8441 3.5447-2.2182-.0867-.3392-.3727-.461-.7107-.461-.858 0-1.5253.5045-1.8373.5045-.234 0-.3553-.1217-.3553-.3393 0-.4958 1.5946-1.0699 2.3833-1.0699zm-5.3387-3.0531c1.274-.7568 2.4614-1.2961 3.796-1.2961.2687 0 .546.0174.832.0609-1.7333.8785-3.1286 1.8441-4.0906 3.1836-.0434-.7306-.208-1.383-.5374-1.9484zm-4.6973-1.6963c-2.21 0-3.926.8786-4.6973 1.4701 1.0833-.5654 2.1493-.7306 3.0506-.7306 1.17 0 2.0454.2696 2.3834.4.3726-.3131.7713-.6262 1.2133-.9046-.702-.174-1.352-.2349-1.95-.2349zm2.3313 11.3343c.8754-.983 1.586-2.0094 2.1494-3.1402.0173.0609.65 1.1134 2.028 1.1134 1.2913 0 2.9813-1.1134 4.03-2.2442-.3554 2.3485-3.7527 4.6276-6.5087 4.6276-.6067 0-1.196-.1044-1.6987-.3566zm-10.972.1653c.416 0 .65.2957 1.3607.2957 1.1873 0 2.0453-.9829 2.0453-2.0963 0-1.0873-.8146-1.7398-1.8373-1.7398-2.028 0-3.38 1.8876-3.38 3.7056 0 2.3051 1.8547 2.914 3.9433 2.914 4.4027 0 9.0827-3.3315 10.5647-7.272-.0173-.1479-.0173-.2957-.0173-.4175 0-1.1482.3726-1.905.546-2.1746.0173-.1653.0173-.3132.0173-.4611 0-.7568-.104-1.4004-.4767-2.1398 0 0-1.274.9829-1.794 1.7136-.546.7307-.5633.983-.728 1.5484-.2513.6958-.6066 1.383-1.0833 2.1746-1.5427 2.6009-4.7407 6.115-7.722 6.115-.9013 0-2.0713-.3566-2.0713-1.4874-.0174-.4088.234-.6784.6326-.6784zm21.9354-9.1509c.962-.4002 1.6293-1.0091 2.21-1.8268v14.8311c0 2.2617-1.3607 3.6447-3.588 3.6447H36.64c-2.236 0-3.588-1.383-3.588-3.6447v-1.3222c.8927.9656 2.34 1.2526 3.8567 1.2526 2.0626 0 4.5066-.7567 6.3873-1.8006.858.3393 1.7507.4784 2.652.4784 4.2553 0 9.204-3.6881 9.204-7.5416 0-.1653 0-.3131-.0173-.4784.6066-.8525 1.612-2.8184 1.612-3.5925zM55.3687 12c2.236 0 3.588 1.3831 3.588 3.6447v1.1482c-.6674.7742-1.7767 1.4701-3.0247 1.4701-.9187-.609-2.2533-.8786-3.7353-.8786-2.002 0-4.2554.5045-6.0147 1.4005-.8147-.3567-1.69-.5045-2.6087-.5045-2.3833 0-4.8013.922-6.656 2.6791-.52.5045-1.7766 1.7571-1.7766 2.5139 0 .2087.1213.374.3726.374.1647 0 .312-.0869.4767-.2522 1.4213-1.5049 3.3193-3.1837 5.694-3.1837.5807 0 1.1873.087 1.82.3131-1.9413 1.9312-3.1287 4.5668-3.1287 6.9937 0 .5828.0867 1.1917.234 1.7397-.858 1.0004-2.7993 2.4878-4.316 2.4878-.9013 0-1.2913-.374-1.2913-.6089 0-.0435.0173-.0608.0607-.0608.0866 0 .5026.2522 1.17.2522 1.5253 0 2.73-1.3222 2.73-2.8531 0-1.4701-1.1527-2.4704-2.5654-2.4704-1.3953 0-2.5046.6958-3.3366 1.8615V15.6534c0-2.2616 1.3606-3.6447 3.588-3.6447h18.72V12z"/>
</svg>
