<svg xmlns="http://www.w3.org/2000/svg" viewBox="0 0 200 50">
	<path fill="#000" d="M56.1498 18.7646h-9.577V30.805h5.3984c2.9746 0 5.0037-1.1843 5.0037-3.8688 0-2.339-1.36-3.7996-4.5399-3.7996h-2.862v-1.6205h6.5689v-2.7515h.0079Zm-3.8529 6.9459c.9987 0 1.5652.3612 1.5652 1.1705 0 .8586-.6711 1.1685-1.579 1.1685H49.573v-2.339h2.7239Zm15.3643 5.0905h3.1799l-5.132-12.0404h-2.8976L57.6183 30.801h3.095l.8093-1.9955h5.3293l.8093 1.9955Zm-3.4562-8.5112 1.5988 3.9477h-3.2153l1.6165-3.9477Zm15.9348 8.5112h3.0081V18.7606h-3.0081v4.5615l-4.9859-.0177v-4.5398h-3.0101V30.805h3.0101v-4.6642l4.9859.0177v4.6425Zm8.6987-12.0404h-3.0081V30.801h3.0081v-3.5529l1.2731-1.4093 3.4898 4.9523h3.8509l-4.9346-6.8433 4.7629-5.1832h-3.8174l-4.6247 5.278V18.7606Zm25.6265 0h-3.553l-2.527 3.8174-2.558-3.8134h-3.553l4.145 5.9313-4.342 6.1051h3.553l2.7-4.0246 2.683 4.0246h3.552l-4.277-6.1051 4.177-5.9215v-.0138Zm9.62 12.0404h3.008V18.7606h-9.369v1.358c0 6.9795-.413 7.8756-1.876 7.8756-.148.0026-.297-.0033-.446-.0178v2.8246c.442.0892.89.1348 1.341.1362 1.754 0 3.716-.7047 3.868-7.1058l.052-2.1436h3.422v9.1132Zm16.778 0h3.01V18.7606h-3.002V30.801h-.008Zm-6.113-5.5603c1.391 0 1.84.4816 1.84 1.3817 0 .9869-.466 1.5139-1.84 1.5139h-1.881v-2.8956h1.881Zm-1.881-6.4761h-3.002V30.805h4.883c3.18 0 4.935-1.3936 4.935-4.23 0-2.6133-1.67-3.9891-4.884-3.9891h-1.932v-3.8213Zm21.724 12.0404h3.008V18.7646h-3.002v4.5575l-4.986-.0177v-4.5398h-3.01V30.805h3.01v-4.6642l4.986.0177v4.6425l-.006.004Zm5.033-6.0183c0 3.7503 2.665 6.2926 6.449 6.2926s6.446-2.5778 6.446-6.2926c0-3.7503-2.664-6.2926-6.446-6.2926-3.835 0-6.449 2.647-6.449 6.2926Zm3.095 0c0-2.0626 1.358-3.541 3.356-3.541 1.924 0 3.355 1.4784 3.355 3.541 0 2.0627-1.289 3.5411-3.355 3.5411-1.96 0-3.356-1.4784-3.356-3.5411Zm11.825 6.0183h5.76c2.716 0 4.694-1.0501 4.694-3.5766 0-1.4962-.756-2.493-2.045-2.9411 1.099-.4816 1.65-1.2533 1.65-2.4396 0-1.8061-1.018-3.0792-4.161-3.0792h-5.892v12.0404l-.006-.0039Zm5.622-4.9346c1.222 0 1.703.3612 1.703 1.204 0 .8764-.592 1.2376-1.685 1.2376h-2.626v-2.4456l2.608.004Zm-.198-4.6089c1.153 0 1.53.3947 1.53 1.1014 0 .7066-.45 1.1843-1.478 1.1843h-2.462v-2.2897l2.41.004Z"/>
	<linearGradient id="gr" x1="16" x2="38" y1="18" y2="32" gradientUnits="userSpaceOnUse">
		<stop stop-color="#00D5D9"/>
		<stop offset="1" stop-color="#F000EC"/>
	</linearGradient>
	<path fill="url(#gr)" d="M32.0198 37.0837h6.9894c.0844.0073.1692-.0084.2454-.0454.0763-.037.1411-.0939.1876-.1647.0465-.0708.073-.1528.0767-.2375.0037-.0846-.0155-.1687-.0557-.2433l-3.9852-8.2901c-.2112-.4382-.5073-.6592-1.1251-.6592h-4.2477l8.977-13.6787c.0532-.0769.0831-.1674.0863-.2608.0031-.0934-.0206-.1857-.0685-.266-.0478-.0803-.1177-.1451-.2014-.1868-.0836-.0417-.1775-.0585-.2704-.0483h-7.2143c-.2151-.0067-.428.0448-.6163.149-.1883.1042-.345.2573-.4535.4431l-3.9596 6.038-2.8818-5.9847c-.0758-.2012-.2145-.3727-.3955-.489-.1809-.1162-.3945-.1711-.6091-.1564h-6.9894c-.0842-.0066-.1686.0095-.2445.0466-.0758.0372-.1403.094-.1867.1646s-.073.1523-.077.2367c-.004.0844.0147.1683.0542.2429l3.9852 8.2901c.2112.4363.5073.6573 1.1251.6573h4.2477l-8.977 13.6807c-.0524.0772-.0817.1677-.0844.261-.0027.0933.0214.1853.0693.2654.0479.0801.1177.1448.2011.1865.0835.0417.1771.0587.2699.049h7.2124c.2151.0066.428-.0449.6163-.1491.1883-.1042.345-.2573.4535-.4431l3.9615-6.0399 2.8838 5.9866c.0757.2006.2138.3716.3939.4878.1802.1162.3929.1715.6068.1577Z"/>
</svg>