<svg xmlns="http://www.w3.org/2000/svg" viewBox="0 0 200 50">
	<g fill="#C8102E">
		<path d="M11.7 18.55v13H8.5V26.7H3.2v4.9H0v-13h3.2v5.2h5.3v-5.2h3.2v-.05zm37.1 13h-3.2v-6.5l-2.9 4.45h-1.8L38 25v6.55h-3.2v-13h2.4l4.55 6.95 4.6-6.95h2.4v13h.05zM23.25 18c-1.1885-.0266-2.3707.1813-3.4788.6118-1.1082.4304-2.1207 1.0749-2.9797 1.8968-.859.8219-1.5477 1.8049-2.0267 2.893-.4789 1.0881-.7388 2.2598-.7648 3.4484-.0118 1.6711.4757 3.3077 1.4 4.7h4.45c-.7789-.5736-1.3975-1.3375-1.7965-2.2186-.3991-.8811-.5653-1.8499-.4826-2.8137.0826-.9637.4113-1.8901.9545-2.6904.5433-.8004 1.2829-1.4478 2.1481-1.8804.8651-.4326 1.8268-.6358 2.7931-.5902.9662.0456 1.9045.3385 2.7251.8506.8205.5122 1.4959 1.2264 1.9613 2.0743.4655.8479.7055 1.8012.697 2.7684.0067.8744-.1936 1.738-.5847 2.5201-.3911.7822-.9617 1.4606-1.6653 1.9799h4.5c.9026-1.4024 1.3881-3.0323 1.4-4.7-.0194-1.1906-.2748-2.3654-.7515-3.4566-.4767-1.0911-1.1652-2.0768-2.0255-2.8999-.8604-.8232-1.8755-1.4674-2.9866-1.8954-1.1111-.4281-2.2962-.6313-3.4864-.5981z"/>
		<path d="M20.25 28.35c.2038.6406.6023 1.2016 1.14 1.6049.5378.4034 1.188.6288 1.86.6451.6701-.0235 1.3169-.2517 1.8533-.654.5363-.4023.9366-.9593 1.1467-1.596h-6zM54.7 21.4v2.35h5.75v2.75H54.7v2.25h6.55v2.75H51.4v-13h9.85v2.8H54.7v.1zM157.3 28c0 2.15-1.75 3.6-4.65 3.6h-6.55v-13h6.2c2.85 0 4.45 1.35 4.45 3.45.02.6007-.141 1.1935-.462 1.7017-.321.5082-.787.9082-1.338 1.1483.685.1742 1.29.5757 1.717 1.1389.427.5632.65 1.2546.633 1.9611zm-8-6.75v2.7h2.4c1.25 0 1.9-.6 1.9-1.4 0-.8-.7-1.25-1.9-1.25h-2.4v-.05zm4.85 6.35c0-.8-.7-1.25-1.85-1.25h-2.95v2.6h2.9c1.3 0 1.9-.55 1.9-1.35zm13.1 1.8h-5.5l-.85 2.25h-3.45l5.5-13h3.1l5.5 13h-3.45c-.05-.1-.85-2.3-.85-2.3v.05zm-1.05-2.7l-1.7-4.4-1.75 4.4h3.45zm18.4-8.1v13h-2.5l-6.25-7.1v7.1h-3.2v-13h2.5l6.25 7.3v-7.3h3.2zm7.85 8.2l-1.9 2.2v2.65h-3.2v-13h3.2v5.95l5.2-5.95h3.85l-4.95 5.7L200 31.6h-4l-3.55-4.85v.05zm-100.8 4.8l-2.5-3.75h-2.4v3.75H83.5v-13h5.7c3.2 0 5.4 1.75 5.4 4.6.0158.7816-.1746 1.5536-.552 2.2383-.3775.6846-.9286 1.2578-1.598 1.6617l3.05 4.5h-3.85zM86.7 25h2.4c1.25 0 2.25-.7 2.25-1.75s-1-1.75-2.25-1.75h-2.4V25zm13.55-3.55v2.35H106v2.7h-5.75v2.25h6.55v2.75H97v-13h9.85v2.8h-6.55v.1l-.05.05zm21 3.65c0 3.85-2.9 6.55-7 6.55h-5.2v-13h5.2c4-.1 7 2.55 7 6.4v.05zm-3.3 0c-.002-.4783-.101-.9512-.289-1.3907-.189-.4395-.464-.8366-.809-1.1677-.345-.3312-.754-.5896-1.201-.7599-.446-.1703-.923-.2491-1.401-.2317h-2v7.2h2c.492.0135.981-.0726 1.439-.2531.458-.1805.875-.4517 1.225-.7973.35-.3456.627-.7585.814-1.2139.186-.4553.279-.9437.272-1.4357l-.05.05zm8.25-6.5v13H123v-13h3.2zm12.35 2.9h-3.7v10.1h-3.2V21.45H128v-2.9h10.6v2.9l-.05.05zM78.2 26.9c-.2301.5863-.6388 1.0852-1.1682 1.4263-.5295.341-1.1529.5067-1.7818.4737-.4845.0116-.9662-.0769-1.4148-.26-.4487-.1831-.8548-.457-1.1927-.8043-.338-.3473-.6006-.7607-.7714-1.2143-.1707-.4535-.246-.9374-.2211-1.4214-.0249-.484.0504-.9679.2211-1.4214.1708-.4536.4334-.867.7714-1.2143.3379-.3474.744-.6212 1.1927-.8043.4486-.1832.9303-.2717 1.4148-.26.6289-.033 1.2523.1327 1.7818.4737.5294.341.9381.84 1.1682 1.4263h3.4c-.3108-1.4383-1.1168-2.7218-2.2774-3.6265-1.1605-.9047-2.6019-1.3731-4.0726-1.3235-.8996-.0315-1.7961.1209-2.6348.4476-.8387.3268-1.6019.8212-2.2431 1.453-.6411.6318-1.1467 1.3877-1.4857 2.2215-.3391.8338-.5046 1.728-.4864 2.6279-.0182.8999.1473 1.7941.4864 2.6279.339.8338.8446 1.5897 1.4857 2.2215.6412.6318 1.4044 1.1261 2.2431 1.4529s1.7352.4791 2.6348.4477c1.4744.0657 2.9238-.3967 4.0878-1.304 1.164-.9074 1.9661-2.2002 2.2622-3.646h-3.4z"/>
	</g>
</svg>
