<svg viewBox="0 0 200 50" xmlns="http://www.w3.org/2000/svg">
	<path fill="#EE151F" d="M42.6322 5l-.0829.45596s-.0414.33161-.1658.87047l-.0266.10136c-.2086.79352-.5313 2.02144-.9682 3.17325-.4145 1.07776-.9534 2.15546-1.5337 2.77716-.7876-.8704-1.4922-2.52846-1.9482-3.97923-.2487-.78757-.4559-1.53368-.5803-2.07254-.1243-.53886-.2072-.87047-.2072-.87047L37.0778 5H33.969l.0829.62176c.4145 3.52332 2.1969 7.70984 5.2642 9.82384h1.0778c3.0673-2.0725 4.8912-6.34197 5.3057-9.82384L45.741 5h-3.1088zm16.9533 22.8394l.4559.0829v3.0673l-.6217-.0829c-3.4819-.373-7.7513-2.1969-9.8239-5.2642v-1.0778c2.0726-3.0673 6.3005-4.8912 9.8239-5.2642l.6217-.0829v3.1088l-.4559.0829s-.3316.0829-.8705.2073c-.5389.1243-1.285.3316-2.0725.5803-1.4923.4559-3.1503 1.1606-3.9793 1.9482.6217.5803 1.6995 1.1191 2.7772 1.5336 1.2435.456 2.487.7876 3.2746.9949.5389.1243.8705.1658.8705.1658zm-39.088-5.3886l-.456-.0829v-3.1088l.6218.0829c3.4818.3731 7.7513 2.1969 9.8238 5.2642v1.0778c-2.114 3.0673-6.3005 4.8912-9.8238 5.2642l-.6218.0829v-3.1088l.456-.1243s.3316-.0415.8704-.1244c.5389-.0829 1.285-.2902 2.0726-.5389 1.4507-.4559 3.1088-1.1606 3.9792-1.9481-.6217-.5804-1.6994-1.1192-2.7772-1.5337-1.067-.4269-2.1341-.7011-2.9131-.9013-.1288-.0331-.2497-.0641-.3615-.0935-.5388-.1658-.8704-.2073-.8704-.2073zM37.1607 44.544l-.0829.456h-3.1503l.0829-.6218c.4145-3.4818 2.2383-7.7513 5.3057-9.8238h1.0777c3.0674 2.114 4.8912 6.3005 5.2643 9.8238L45.741 45h-3.0259l-.0829-.456s-.0829-.3316-.2073-.8704c-.1243-.5389-.3316-1.285-.5803-2.0726-.456-1.4508-1.1606-3.1088-1.9482-3.9793-.5803.6218-1.1192 1.6995-1.5337 2.7772-.4177 1.0094-.6892 2.0773-.8882 2.86l-.0001.0001c-.0379.1494-.0733.2884-.1065.4146-.1658.5388-.2072.8704-.2072.8704zm18.86-31.917l-.3731.2487s-.2901.2072-.7461.4974l-.0671.0395h-.0001c-.7073.4162-1.7928 1.055-2.9173 1.5771-1.0777.4974-2.1969.829-3.0259.8704.0415-1.1606.7047-2.8186 1.4508-4.1865.3278-.6556.6556-1.2152.9272-1.67876l.1091-.18654c.2901-.45595.4559-.74611.4559-.74611l.2487-.33161-2.1968-2.19689-.4146.49741c-2.1968 2.7772-3.8963 7.0466-3.2331 10.6943l.7461.7461c3.6477.7047 7.9586-1.0362 10.6943-3.2331l.4974-.4145-2.1554-2.1969zM24.1451 36.7513L23.772 37l-2.1554-2.1555.4974-.4145c2.7357-2.1969 7.0466-3.9378 10.6943-3.2332l.7461.7462c.6632 3.6891-1.0363 7.9171-3.2332 10.6943l-.4145.4974-2.1969-2.1969.2487-.3731s.1659-.2901.456-.7461l.1091-.1865.0001-.0001c.2715-.4636.5993-1.0231.9271-1.6787.7046-1.3678 1.4093-3.0259 1.4508-4.1865-.8291.0414-1.9482.3731-3.026.8705-1.1244.522-2.2099 1.1608-2.9172 1.577l-.0672.0395c-.456.2902-.7461.4975-.7461.4975zm28.1865 4.228l-.2487-.4145s-.2072-.2902-.4559-.7461c-.456-.7047-1.0778-1.8239-1.6166-2.9845-.4974-1.0777-.8705-2.1969-.8705-3.0259 1.1606.0415 2.8187.7461 4.1865 1.4508.6556.3278 1.2152.6556 1.6788.9271l.1865.1091c.456.2902.7461.4975.7461.4975l.3731.2487 2.1969-2.1969-.4974-.4145c-2.7772-2.1969-7.0467-3.8964-10.6943-3.2332l-.7461.7461c-.7047 3.6477 1.0362 7.9586 3.2331 10.6943l.4145.4974 2.114-2.1554zM28.2073 9.14502l-.2487-.41451 2.114-2.15544.4145.49741c2.1969 2.73576 3.9379 7.04662 3.2332 10.69432l-.7461.7461c-3.6477.6632-7.9171-1.0363-10.6943-3.2332l-.4974-.4145 2.1969-2.1969.4145.2487s.2901.2073.7461.4975l.1865.1091c.4636.2715 1.0232.5993 1.6788.9271 1.3678.7461 3.0259 1.4094 4.1865 1.4508-.0414-.829-.3731-1.9482-.8705-3.0259-.522-1.1244-1.1608-2.21-1.5771-2.91737l-.0394-.06709c-.2902-.45596-.4975-.74612-.4975-.74612zM121.306 20.5855c-3.026 0-4.974.9948-4.974.9948l.58 2.0311s1.534-.7047 3.482-.7047c1.824 0 2.653.7461 2.653 2.2384-5.016 0-7.42 1.6994-7.42 4.145 0 2.2798 1.824 3.9793 5.596 3.9793 2.28 0 4.394-.7461 5.223-1.2021v-6.9222c-.042-2.6943-1.866-4.5596-5.14-4.5596zm-10.031-3.9379v4.1451h3.399l-.208 2.3213h-3.191v6.3834c0 .8705.58 1.3679 1.326 1.3679.705 0 1.409-.2487 2.114-.5803l.249 1.9067c-1.037.7047-2.487 1.0363-3.441 1.0363-2.279 0-3.689-1.3265-3.689-3.7721V16.8963l3.441-.2487zM96.6011 30.3264c1.3678.4145 2.6528.5803 3.8959.5803 1.493 0 2.156-.3316 2.156-.9948 0-.7191-1.053-1.1481-2.309-1.6599-1.8564-.7568-4.1575-1.6945-4.1575-4.0189 0-2.2383 1.6995-3.6476 5.1815-3.6476 1.699 0 3.482.6217 4.311.9948l-.373 2.0311c-1.327-.4974-2.487-.7047-3.524-.7047-1.409 0-2.0721.4145-2.0721 1.0363 0 .7873 1.1021 1.2495 2.3971 1.7922 1.84.7717 4.069 1.7062 4.069 3.9694 0 2.4456-1.658 3.5648-5.057 3.5648-1.5749 0-3.7718-.4145-4.8496-.8705l.3317-2.0725zm-2.3627 1.9482c-1.3679.5803-3.1089.9948-4.7254.9948-4.0622 0-6.1348-2.487-6.1762-6.1762 0-3.8549 2.1969-6.5077 5.9275-6.5077 3.7305 0 5.5544 2.487 5.5544 5.3886 0 .1658-.0415 1.2435-.1658 1.8238h-7.7928c0 1.9067 1.285 3.0674 3.4404 3.0674 1.0363 0 2.3213-.2073 3.399-.6632l.5389 2.0725zm-7.3783-6.6736h4.5182c0-1.7824-.8291-2.7772-2.2798-2.7772-1.4094.0415-2.2384 1.1192-2.2384 2.7772zm36.1449 5.1814c-.009.003-.021.0071-.035.0121-.182.0642-.789.278-1.789.278-1.409 0-2.114-.7875-2.114-1.6995 0-1.3678 1.285-2.1139 3.938-2.2798v3.6892zM79.2746 16.7306h3.5648c.393 11.121-5.3238 16.1322-5.8837 16.623-.0307.0269-.0459.0402-.0438.0402H74.798s-6.3835-4.9326-5.969-16.6632h3.5648s.0415 9.9067 3.4404 13.1813c3.399-3.316 3.4404-13.1813 3.4404-13.1813z"/>
	<path fill="#CF151C" d="M39.855 12.3368c-.7875-.829-1.6166-2.90156-1.9482-4.02074C37.3265 6.53368 37.0778 5 37.0778 5s-1.0777 5.5959 2.7772 10.4456C43.6685 10.5959 42.6322 5 42.6322 5s-.2487 1.53368-.829 3.31606c-.7591 2.58114-1.6573 3.66764-1.8988 3.95974-.0223.0269-.0389.047-.0494.061zM23.3575 27.0932c1.1192-.3316 3.1917-1.1606 4.0207-1.9481-.1658-.1658-1.202-1.1192-4.0207-1.9482-1.7824-.5803-3.316-.829-3.316-.829s5.5958-1.0778 10.4456 2.7772C25.5959 29 20 27.9223 20 27.9223s1.5751-.2487 3.3575-.8291zm33.3679-3.8963c-1.1192.3316-3.1918 1.1606-4.0208 1.9482.0129.0096.0311.0244.0552.044l.0004.0002.0002.0002c.2883.234 1.4042 1.1393 3.965 1.9037 1.7823.5804 3.316.8291 3.316.8291S54.4456 29 49.5958 25.1451c4.8498-3.855 10.4456-2.7772 10.4456-2.7772s-1.5337.2487-3.316.829zm-14.9222 18.487c-.3316-1.1192-1.1606-3.1917-1.9482-4.0207-.1658.1658-1.1192 1.2021-1.9482 4.0207-.5803 1.7824-.829 3.3161-.829 3.3161s-1.0777-5.5959 2.7772-10.4456C43.7099 39.4041 42.6322 45 42.6322 45s-.2487-1.5337-.829-3.3161zm7.0465-25.7823c.0415-1.1606.9119-3.1917 1.4508-4.228.8705-1.658 1.7824-2.94301 1.7824-2.94301s-4.7254 3.19171-5.4301 9.36791c6.1348-.7461 9.3265-5.4715 9.3265-5.4715s-1.285.9119-2.943 1.7409c-2.2774 1.2694-3.6805 1.4627-4.0882 1.5188-.0449.0062-.0778.0108-.0984.0149zM29.4923 37.9949c.5389-1.0363 1.4093-3.0674 1.4508-4.228-.2073 0-1.6581.0829-4.228 1.4922-1.658.829-2.943 1.741-2.943 1.741s3.2332-4.7254 9.3679-5.4301c-.7047 6.1347-5.4301 9.3679-5.4301 9.3679s.9119-1.285 1.7824-2.943zm19.6062-4.1866c1.1606.0415 3.1917.912 4.228 1.4508 1.658.8705 2.943 1.7824 2.943 1.7824s-3.1917-4.7254-9.3679-5.43c.7047 6.1347 5.4301 9.3264 5.4301 9.3264s-.912-1.285-1.741-2.943c-1.4093-2.5285-1.4922-3.9793-1.4922-4.1866zM27.0053 14.4508c1.0362.5389 3.0673 1.4093 4.2279 1.4508-.0044-.0221-.0088-.0583-.0149-.1084-.0513-.4206-.2225-1.8234-1.5187-4.1196-.8291-1.658-1.741-2.94301-1.741-2.94301s4.7254 3.23321 5.4715 9.36791c-6.1347-.7047-9.3678-5.4301-9.3678-5.4301s1.2849.9119 2.943 1.7824z"/>
	<path fill="#007AC3" d="M176.352 33.0622l-4.518-5.5544h-1.906v5.5129h-2.446V16.7306l2.446-.2487v9.1606h1.906l3.772-4.7254h2.695l-4.85 5.513 5.679 6.6321h-2.778zm-13.347 0v-8.0829c0-2.9016-3.44-2.7358-5.347-2.0726v10.114h-2.445V21.4974c1.243-.4974 3.108-.829 4.891-.829 2.735.0415 5.347.9948 5.347 4.0622v8.3316h-2.446zm-12.311-6.0933c-1.699.0829-4.932.0829-4.932 2.4871 0 1.6166 1.492 2.0725 2.86 2.0725.663 0 1.492-.0414 2.072-.3316v-4.228zm2.363 5.4715c-1.285.6218-2.943.8705-4.352.8705-2.487 0-5.223-.829-5.223-3.8135 0-3.6891 4.477-4.0207 7.254-4.1865v-.7461c0-1.5752-1.161-2.0726-2.57-2.0726-1.119 0-2.321.2487-3.358.7462l-.621-1.6995c1.285-.5803 2.818-.8705 4.228-.8705 2.777 0 4.642 1.3264 4.642 4.1036v7.6684zm-13.43-3.9378c0-2.2798-1.99-2.8601-3.813-2.8601h-2.736v5.3471c2.197.7047 6.549.7462 6.549-2.487zm-.373-7.4197c0-2.943-4.187-3.0673-6.135-2.2798v4.9741h2.653c1.824 0 3.482-.6632 3.482-2.6943zm2.902 7.5855c0 3.5233-3.275 4.601-6.301 4.601-1.741 0-3.606-.1658-5.223-.8704V17.3523c1.575-.7046 3.441-.8704 5.182-.8704 2.777 0 5.844 1.1606 5.844 4.3523 0 1.658-1.036 3.1917-2.653 3.6477v.0414c1.824.5389 3.151 2.1969 3.151 4.1451z"/>
</svg>
