<svg viewBox="0 0 200 50" xmlns="http://www.w3.org/2000/svg">
	<path fill="#173A79" d="M51.4477 27.0488c-1.5683-.5081-2.7817-1.6763-3.5586-3.1255-.9159 1.5958-2.5701 2.8422-4.3808 3.2004-.4221.0838-.8431.1223-1.2563.1223-.4938 0-.9754-.0584-1.4404-.1664-.9511 1.4592-2.2273 2.6924-3.724 3.6005 1.5441.8122 3.3008 1.2751 5.1633 1.2751 1.8129 0 3.5486-.4276 5.1522-1.2696 1.6343-.8585 3.0196-2.1204 4.0446-3.6368Zm5.3263-16.638-.4331-.0981s1.922-2.25266 2.1523-2.53149c-.2384-.25071-2.9292-3.05064-3.5343-3.68024l-.0043-.00453L54.8619 4c-.1189.11994-1.2367 1.25825-2.6153 2.66212l-.0111.01135-.0031.0032c-1.6209 1.65058-3.5977 3.66373-4.7357 4.82073-.4243.4992-1.2795 1.4404-2.9932 3.271-1.3798 1.7578-1.9628 4.0192-1.9628 6.295 0 1.9793.529 3.8396 1.4382 5.4498 1.5661-.4805 2.893-1.6091 3.6104-3.1068l.0606-.1333c-.2524-.691-.4-1.436-.4-2.2097 0-3.5266 2.8698-6.3909 6.3975-6.3909 3.5266 0 6.3931 2.8643 6.3931 6.3909s-2.8665 6.3953-6.3931 6.3953c-.5995 0-1.177-.0881-1.7247-.2424-.9489 1.436-2.2075 2.6494-3.6821 3.5387 1.5991.896 3.4473 1.4118 5.4079 1.4118 6.122 0 11.1056-4.9814 11.1056-11.1034 0-4.8943-3.282-9.2806-7.9801-10.6526ZM40.3035 26.9683c-1.3842-.4496-2.5491-1.3467-3.3492-2.5392-.1091-.1631-.2127-.3306-.3042-.4948-.8155 1.425-2.149 2.4786-3.7085 2.9591-.1575.0485-.3218.0892-.4794.1267-.0137.0022-.0272.0045-.0406.0067l-.0001.0001c-.021.0035-.0416.0071-.0617.0097-.4199.0882-.842.1279-1.252.1279-3.5266 0-6.3964-2.8643-6.3964-6.3887 0-3.5234 2.8698-6.3932 6.3964-6.3932.4541 0 .9092.0562 1.3611.1543.5631-.8287 1.2508-1.5594 1.9881-2.2317.0551-.0507.1135-.1025.173-.1499.012-.0091.0235-.0192.0357-.0298l.0001-.0001c.0069-.006.014-.0122.0215-.0185.4883-.4177 1.0095-.8057 1.5661-1.1473-1.5837-.8299-3.3459-1.28392-5.1456-1.28392C24.9858 9.67568 20 14.6559 20 20.7769c0 6.1209 4.9858 11.1 11.1078 11.1 1.7622 0 3.4627-.3758 5.0166-1.2089.0217-.0116.0438-.021.0658-.0302.0239-.0101.0474-.02.0698-.0326.0837-.04.1626-.0863.2422-.1331.0347-.0204.0695-.0409.1049-.0609 1.4878-.8398 2.7398-2.0355 3.6964-3.4429Zm-4.945-14.8096c-2.5921 1.998-4.211 5.1786-4.211 8.6942 0 2.0532.5598 3.9708 1.533 5.6239 1.6046-.4452 2.9678-1.5639 3.7173-3.0583-.345-.7891-.5412-1.6498-.5412-2.5656 0-3.5222 2.8709-6.3909 6.3954-6.3909.4331 0 1.3853.1322 1.7192.1818 1.1417-1.2167 2.8301-3.045 3.3459-3.6533-1.5605-.8035-3.3007-1.23878-5.0651-1.23878-1.7997 0-3.5013.43528-5.0079 1.20018l.0397.0187-.3791.1995c-.5455.2898-1.0613.6149-1.5462.9886Zm120.6735 9.8549h-5.778v-5.938h-4.333v14.9607h4.333v-6.294h5.778v6.294h4.334V16.0756h-4.334v5.938Zm-82.3222 1.76c-.06.1581-.1237.3239-.1889.4937-.3246.8446-.6881 1.7903-.8239 2.4015V10.9069h-4.6243v20.1283h7.0632l6.1088-16.3724v16.3724h4.546V10.9069H78.538l-4.8282 12.8667Zm64.3882 1.0172c0 1.8295-1.38 3.8033-3.613 3.8033-1.059 0-2.2-.5566-2.2-1.7799 0-2.5799 2.247-2.6912 5.353-2.7375l.46-.0133v.7274Zm4.271 1.5716v-4.7169c0-.788-.143-2.7772-1.458-4.2595-1.067-1.2035-2.556-1.6939-5.14-1.6939-1.701 0-4.281.292-5.827.8365v3.6115c1.524-.799 3.028-1.1726 4.701-1.1726 1.707 0 3.452.2865 3.452 2.4212v.367h-.207c-3.53.0154-5.487.1631-7.049.8166-1.888.7902-2.728 2.0378-2.728 4.0469 0 4.1294 3.623 4.5758 5.185 4.5758 1.564 0 3.58-.7274 4.411-2.1149l.35-.5874.038.6833c.028.5433.054 1.2905.061 1.857h4.361l-.045-1.036c-.054-1.199-.105-2.3915-.105-3.6346Zm34.477-1.1131c-.499-1.3225-1.837-2.3056-3.179-2.3353l-.548-.0121.419-.356c.427-.3615.955-.9643 1.374-1.5661l3.402-4.9053h-4.973l-3.566 6.0008h-1.705V9.27032h-4.302V31.0352h4.302v-6.4196h1.685c1.829 0 2.479.2502 2.99 1.8107l1.495 4.61h4.814l-2.208-5.787ZM116.898 27.6h-2.614v-5.8101h2.873c1.768 0 2.743 1.0657 2.743 3.0009 0 1.7854-1.093 2.8092-3.002 2.8092Zm.831-9.1163h-3.446V14.406h8.314v-3.4991h-12.909v20.1283h7.887c5.955 0 7.203-3.5531 7.203-6.5331 0-2.7442-1.223-6.0184-7.049-6.0184Zm-11.424-7.5746h-5.82l-6.6392 7.3872v-7.3872h-4.5229v20.0941h4.5229v-7.8148l7.3852 7.8148h5.965l-9.9217-10.3518 9.0307-9.7423ZM88.8034 35.4867c.1962.2149.4882.3251.864.3251.7142 0 1.241-.4563 1.414-1.2178l.0353-.151h-.8321l-.0264.0915c-.075.2656-.2293.5863-.5599.5863-.0915 0-.1664-.0331-.2237-.0959-.0893-.0959-.129-.259-.1113-.4453l.0099-.1366h-.8078l-.0121.1135c-.0375.3879.0495.7086.2501.9302Zm67.4296-.0011c.196.2149.485.3262.864.3262.718 0 1.245-.4563 1.416-1.2178l.032-.151h-.83l-.025.0915c-.075.2656-.234.5863-.564.5863-.092 0-.166-.0331-.224-.0959-.089-.0959-.126-.259-.109-.4453l.012-.1366h-.81l-.012.1135c-.04.3857.048.7064.25.9291Zm-130.8473.8519c-.108.4849-.9147 4.6739-.9147 4.6739h.9841l1.2289-6.4802h-.1488l-.9026.0473-2.4995 3.2269c-.3979.529-.7494 1.004-1.0723 1.4856.1322-.5731.9334-4.7598.9334-4.7598h-.9819l-1.231 6.4813h.1476l.9511-.0485 2.3761-3.0715c.3846-.5059.7803-1.0338 1.1296-1.555Zm4.3697 2.6185-.3912 2.0554h1.0106l.8982-4.7246h-1.0183l-.3406 1.8107h-1.7688l.3361-1.8107h-1.0139l-.8949 4.7246h1.0184l.3879-2.0554h1.7765Zm20.1294-.6745-.5069 2.7299h.9962l.5202-2.7497c.0452-.2557.0749-.572.0749-.7792 0-.8993-.6083-1.3048-1.2177-1.3004-.6216.0055-1.1594.2843-1.5606.8034-.141-.5092-.5422-.8034-1.1164-.8034-.5565 0-1.0668.2545-1.4206.691l.0805-.5863h-.9268l-.0144.1058c-.0452.367-.108.8023-.1994 1.3004l-.6205 3.3184h1.0018l.4243-2.3497c.1686-.9114.8309-1.5914 1.3103-1.5914.388 0 .5456.1885.5456.647 0 .1664-.0155.3262-.054.519l-.5279 2.7762h.9929l.4442-2.3971c.1752-.9532.8045-1.544 1.2861-1.544.3846 0 .551.1951.551.6536 0 .1554-.022.3659-.0628.5565Zm24.2754.6745-.388 2.0554h1.0106l.8982-4.7246h-1.0216l-.3427 1.8107h-1.7645l.334-1.8107h-1.0106l-.8982 4.7246h1.0183l.3912-2.0554h1.7733Zm4.8932 0-.388 2.0554h1.0073l.9004-4.7246h-1.0183l-.3449 1.8107h-1.7644l.3339-1.8107h-1.0106l-.8982 4.7246h1.0183l.3912-2.0554h1.7733Zm6.4769-2.6692-.9092 4.7246h1.059l.8982-4.7246h-1.048Zm11.0471 4.6364.0254.0882h1.0613l-.054-.1632c-.1019-.3004-.1616-.6527-.2235-1.0182l-.0112-.0662-.0783-.4353c-.1444-.766-.4133-1.5694-1.2685-1.8328l2.8643-2.9667h-.2898l-1.036.0385-2.483 2.7717h-.0429l.5367-2.8091h-1.0095l-1.2311 6.4813h1.0096l.5455-2.8599h.0749c.8155 0 1.1385.3207 1.328 1.3125l.0573.3351c.0661.411.1378.8475.2248 1.1241Zm14.5146-2.6494-.52 2.7364h1.011l.519-2.7166c.046-.2512.084-.5378.084-.7483 0-1.0051-.652-1.3632-1.261-1.3632-.593 0-1.144.2755-1.5.7218l.075-.6171h-.933l-.012.1058c-.045.367-.12.8023-.212 1.3004l-.62 3.3184h1.009l.428-2.2758c.195-1.0878.941-1.6653 1.403-1.6653.396 0 .581.2072.581.6536 0 .1873-.027.3824-.052.5499Zm21.377.0077-.511 2.7287h1.003l.517-2.7463c.049-.2579.075-.5742.075-.7814 0-.8993-.608-1.3059-1.217-1.3004-.613.0055-1.159.2909-1.565.8056-.137-.5114-.538-.8056-1.116-.8056-.554 0-1.065.2545-1.414.691l.074-.5863h-.925l-.013.1069c-.046.3658-.11.8012-.204 1.2993l-.617 3.3184h1.002l.424-2.3497c.165-.9114.829-1.5914 1.31-1.5914.386 0 .546.1885.546.647 0 .1664-.019.3262-.054.519l-.53 2.7762h.996l.444-2.3971c.177-.9532.805-1.544 1.286-1.544.386 0 .55.1951.55.6536 0 .1642-.023.3758-.061.5565Zm14.015.6745-.388 2.0554h1.009l.9-4.7246h-1.023l-.341 1.8107h-1.764l.332-1.8107h-1.01l-.898 4.7246h1.018l.388-2.0554h1.777Zm6.478-2.6692-.907 4.7246h1.056l.895-4.7246h-1.044Zm20.596 2.6692-.386 2.0554h1.01l.901-4.7246h-1.019l-.344 1.8107h-1.767l.331-1.8107h-1.006l-.899 4.7246h1.019l.387-2.0554h1.773Zm4.263 1.4406c.066.215.126.4081.304.6148h.942l-.083-.1775c-.077-.1609-.146-.3879-.222-.6447-.031-.1067-.068-.2188-.105-.3335-.018-.0559-.036-.1123-.054-.169-.222-.6932-.482-1.0889-.87-1.2696L180 36.2879h-.316l-1.01.0363-1.855 1.9408h-.017l.37-1.9782h-1.001l-.899 4.7246h1l.418-2.0091c.442 0 .685.1212.948.8342.062.1653.113.3324.161.4884l.017.0528.005.0189Zm-15.398-.1876c-.212 0-.361-.0066-.479-.0231l.382-2.4323c.165-.0286.428-.0562.596-.0562.558 0 1.22.1929 1.22 1.1065 0 .9125-.886 1.4051-1.719 1.4051Zm-1.518.7825c.256.0386.715.075 1.252.075.937 0 1.737-.2414 2.261-.6756.5-.4166.766-.9996.766-1.684 0-1.1505-.784-1.8647-2.049-1.8647-.123 0-.359.0077-.557.0342l.273-1.4448h2.376l.171-.9004h-3.399l-1.22 6.4416.126.0187Zm-78.9102-1.5627c.1003-.4034.5665-.8508 1.0304-.8508.5202 0 .5963.378.5963.6072 0 .6613-.6084 1.0712-1.1737 1.0712-.2381 0-.5246-.0694-.5246-.3868 0-.1444.0275-.2612.0716-.4408Zm-1.0646.5444c0 .5025.2414 1.1021 1.393 1.1021 1.3104 0 2.3034-.8596 2.3045-2.0003 0-.8001-.5202-1.317-1.3258-1.317-.3791 0-.7902.1499-1.0679.3714l.4507-1.8415h-1.0172l-.626 2.8444c-.0507.2546-.1113.5775-.1113.8409Zm68.4958-.5444c.101-.4023.561-.8508 1.027-.8508.518 0 .597.378.598.6072.001.6613-.606 1.0712-1.172 1.0712-.238 0-.524-.0694-.524-.3868 0-.1444.026-.2612.071-.4408Zm-1.068.5444c0 .5025.241 1.1021 1.394 1.1021 1.315 0 2.306-.8596 2.305-2.0014 0-.8001-.524-1.317-1.327-1.317-.379 0-.792.1521-1.067.3736l.444-1.8426h-1.015l-.622 2.8466c-.004.0206-.009.0438-.013.0691-.037.1944-.099.5161-.099.7696ZM32.8754 38.2507c.259-.8553.6205-1.2553 1.1373-1.2553.1543 0 .5158.0419.5158.4122 0 .1895-.1377.367-.4044.5212-.3174.1841-.8387.2679-1.2487.3219Zm-.238.8034c.216-.0573.5389-.1334.9003-.1334.3075 0 .8244.0783.8244.5951 0 .5323-.5334.7748-1.0271.7748-.4717 0-.6888-.2138-.6888-.6712 0-.0727.0046-.1482.0089-.2201.009-.1486.0171-.2821-.0177-.3452Zm-1.0162.6315c0 .9301.5588 1.4205 1.6212 1.4205 1.0304 0 2.1413-.5047 2.1402-1.6134 0-.5852-.3791-.9434-.7406-1.0183.4563-.2116.8696-.5907.8696-1.1296 0-.7153-.5279-1.1605-1.3798-1.1605-.4993 0-.9125.1355-1.2972.4232-.8287.6182-1.2134 2.2019-1.2134 3.0781Zm8.5092-.4343c0 1.1264.7262 1.8548 1.8459 1.8548.7296 0 1.22-.227 1.4162-.4166l-.0937-.7703-.1554.0738c-.2325.1102-.5543.237-.9819.237-.637 0-.9864-.3813-.9864-1.0701 0-.9996.6778-2.0796 1.7711-2.0796.2545 0 .4904.0518.7053.1531l.1234.0585.3075-.8409-.097-.0518c-.162-.0827-.5598-.2061-.9908-.2061-1.5781 0-2.8642 1.3732-2.8642 3.0582ZM140.31 38.2507c.252-.8553.617-1.2553 1.134-1.2553.151 0 .515.0419.515.4122 0 .1917-.137.3681-.403.5212-.318.1841-.837.2679-1.246.3219Zm-.244.8034c.213-.0573.535-.1334.905-.1334.307 0 .82.0783.82.5951 0 .5323-.53.7748-1.024.7748-.469 0-.689-.2138-.689-.6712 0-.071.005-.145.009-.2158.01-.1509.018-.2873-.021-.3495Zm-1.016.6326c0 .929.562 1.4194 1.624 1.4194 1.031 0 2.142-.5047 2.143-1.6145 0-.5863-.379-.9434-.74-1.0183.455-.2116.868-.5918.868-1.1296 0-.7153-.531-1.1605-1.383-1.1605-.497 0-.91.1366-1.295.4232-.828.6171-1.217 2.2019-1.217 3.0803ZM37.0853 38.2055c.2072-.5907.6778-1.1726 1.3005-1.1726.1686 0 .5631.0418.5631.4419.0011.4981-.5907.7296-1.8636.7307Zm-1.1538.9797c0 1.1903.7009 1.9275 1.825 1.9275.5477 0 1.1252-.1366 1.5418-.3647l.0782-.0452-.1576-.8255-.1498.0783c-.3681.1961-.7439.292-1.1451.292-.2987 0-.6976-.0904-.885-.5279-.076-.1774-.1091-.4783-.0969-.68l.0969.0011c.8839 0 1.544-.1036 2.0201-.3174.5797-.26.8762-.6821.8762-1.2607 0-.7649-.5775-1.2795-1.4382-1.2795-1.5121 0-2.5656 1.5825-2.5656 3.002Zm15.7453.5081c0 1.2817.9158 1.4194 1.3092 1.4194.5268 0 1.058-.2667 1.4195-.6998l-.0782.5996h.9334l.0132-.1092c.0474-.3669.1136-.7979.2017-1.2971l.6315-3.3183h-1.0194l-.453 2.3948c-.1752.9169-.8331 1.5341-1.3346 1.5341-.4055 0-.5896-.2017-.5896-.6525 0-.1873.0287-.3923.0717-.6337l.5025-2.6438h-1.0106l-.5103 2.6262c-.0573.3053-.087.5599-.087.7803Zm9.8437 0c0 1.2817.9158 1.4194 1.3093 1.4194.5267 0 1.0591-.2667 1.4194-.6998l-.0782.5996h.9334l.0144-.1092c.0451-.3669.1091-.7979.2027-1.2971l.626-3.3183h-1.0183l-.454 2.3948c-.172.9169-.8255 1.5341-1.3314 1.5341-.4055 0-.5896-.2017-.5896-.6525 0-.1873.0287-.3923.0717-.6337l.4992-2.6438h-1.0095l-.508 2.6262c-.0607.3053-.0871.5599-.0871.7803Zm5.7517-.5731c0-.9809.6051-2.0774 1.4779-2.0774.896 0 .9213 1.0095.9213 1.1241 0 .9654-.6392 2.0895-1.469 2.0895-.5566 0-.9302-.4562-.9302-1.1362Zm-1.0425.0275c0 1.1572.7703 1.965 1.8724 1.965 1.6112 0 2.6141-1.5296 2.6141-2.9469 0-.9875-.5819-1.9837-1.8823-1.9837-1.436 0-2.6042 1.3302-2.6042 2.9656Zm20.7674.5456c0 1.2817.9158 1.4194 1.3093 1.4194.5279 0 1.0591-.2667 1.4173-.6987l-.0805.5985h.9357l.0132-.1092c.0474-.3669.1135-.7979.2017-1.2971l.6293-3.3183h-1.0184l-.454 2.3948c-.1719.9169-.8266 1.5341-1.328 1.5341-.4078 0-.5918-.2017-.5918-.6525 0-.1873.0286-.3923.0716-.6337l.4992-2.6438h-1.0106l-.5069 2.6262c-.0573.3053-.0871.5599-.0871.7803Zm12.1978-.5731c0-.9809.6083-2.0774 1.4811-2.0774.892 0 .921 1.0095.921 1.1241 0 .9665-.643 2.0895-1.469 2.0895-.5573 0-.9331-.4562-.9331-1.1362Zm-1.0382.0275c0 1.1572.7682 1.965 1.8703 1.965 1.613 0 2.613-1.5296 2.613-2.9469 0-.9875-.583-1.9837-1.883-1.9837-1.4321 0-2.6003 1.3302-2.6003 2.9656Zm5.8583-.0275c0-.9809.606-2.0774 1.476-2.0774.895 0 .921 1.0095.921 1.1241 0 .9841-.626 2.0895-1.467 2.0895-.554 0-.93-.4562-.93-1.1362Zm-1.041.0275c0 1.1572.77 1.965 1.872 1.965 1.613 0 2.611-1.5296 2.611-2.9469 0-.9875-.582-1.9837-1.882-1.9837-1.436 0-2.601 1.3302-2.601 2.9656Zm10.9-.9422c.21-.5907.684-1.1726 1.306-1.1726.351 0 .56.1653.56.4419 0 .4981-.595.7296-1.866.7307Zm-1.15.9797c0 1.1903.701 1.9275 1.828 1.9275.545 0 1.12-.1366 1.538-.3636l.078-.0441-.159-.8255-.149.0761c-.367.195-.743.292-1.146.292-.297 0-.694-.0915-.882-.5279-.075-.1741-.108-.4783-.099-.68l.099.0011c.882 0 1.547-.1047 2.02-.3163.582-.2611.876-.6832.876-1.2618 0-.7649-.578-1.2795-1.438-1.2795-1.512 0-2.566 1.5825-2.566 3.002Zm10.099.1852c0-1.2167.948-2.3276 1.987-2.3276.178 0 .301.0143.384.0297l-.229 1.2388c-.212 1.1538-.947 1.9264-1.498 1.9264-.532 0-.644-.4717-.644-.8673Zm-1.042.1366c0 .9621.566 1.6057 1.409 1.6057.655 0 1.206-.324 1.58-.9323-.028.2821-.049.529-.049.7053v.1245h.973l-.005-.1289c-.019-.5488.052-1.35.184-2.0421l.476-2.451-.106-.032c-.347-.1036-.834-.173-1.243-.173-2.015 0-3.219 1.6894-3.219 3.3238Zm12.48.1863c0 1.2817.912 1.4194 1.306 1.4194.53 0 1.062-.2667 1.423-.6965l-.08.5963h.936l.014-.1092c.045-.3669.108-.7979.199-1.296l.632-3.3194h-1.022l-.454 2.3948c-.172.9169-.825 1.5341-1.331 1.5341-.409 0-.59-.2017-.59-.6525 0-.1851.027-.3923.072-.6337l.499-2.6438h-1.009l-.508 2.6262c-.058.3053-.087.5632-.087.7803Zm20.168 0c0 1.2817.912 1.4194 1.306 1.4194.53 0 1.06-.2667 1.419-.6965l-.079.5963h.931l.014-.1092c.049-.3658.112-.7979.204-1.2971l.629-3.3183h-1.017l-.455 2.3948c-.176.9169-.83 1.5341-1.332 1.5341-.407 0-.588-.2017-.588-.6525 0-.1873.027-.3923.072-.6337l.499-2.6438h-1.01l-.509 2.6262c-.059.3053-.084.5632-.084.7803Zm12.216-.3229c0-1.2167.948-2.3276 1.989-2.3276.176 0 .299.0143.383.0297l-.231 1.2388c-.211 1.1538-.946 1.9264-1.494 1.9264-.536 0-.647-.4717-.647-.8673Zm-1.045.1366c0 .9621.569 1.6057 1.412 1.6057.656 0 1.207-.324 1.58-.9323-.027.2821-.048.529-.048.7053v.1245h.973l-.003-.1289c-.017-.4166.021-1.2013.181-2.0421l.474-2.451-.106-.032c-.344-.1036-.831-.173-1.236-.173-2.018 0-3.227 1.6894-3.227 3.3238ZM59.885 40.9695l-.3526 1.3423h.8254l.6205-1.9782-.1631-.0033c-.3395-.0033-.4905-.1411-.4905-.4409 0-.1543.0331-.3339.0717-.5411l.5731-3.0593H59.96l-.4541 2.3948c-.1719.9169-.8321 1.5341-1.3401 1.5341-.4067 0-.5874-.2017-.5874-.6525 0-.1873.0242-.3923.0716-.6337l.4982-2.6438h-1.0095l-.5114 2.6262c-.0573.3053-.0827.5599-.0827.7803 0 1.2817.9324 1.4194 1.3346 1.4194.5698 0 1.1594-.3152 1.5176-.7923.0176.1102.0485.2303.1091.3405.0959.1367.2292.2469.3791.3075Zm58.323-2.0576c.202-1.1539.899-1.8416 1.459-1.8416.682 0 .738.6988.738.9114.004 1.1727-.822 2.2835-1.691 2.2835-.257 0-.476-.0477-.63-.0815-.042-.0092-.079-.0173-.111-.0232l.235-1.2486Zm-.838-.9346-.924 4.8657v.0011h1.02l.353-1.8812c.177.0716.464.1509.883.1509 1.487 0 2.745-1.4591 2.745-3.1861 0-.8045-.391-1.7445-1.493-1.7445-.56 0-1.092.259-1.45.691l.083-.5985h-.956l-.014.1091c-.054.4508-.146 1.0514-.247 1.5925Z"/>
</svg>