<svg xmlns="http://www.w3.org/2000/svg" viewBox="0 0 200 50">
	<path fill="#b91c6b" d="M20.8 9.7l4 4c2.6-2.6 6.1-4.1 9.8-4.1 3.7 0 7.2 1.5 9.8 4.1l4-4C44.7 6.1 39.7 4 34.6 4c-5.2 0-10.1 2.1-13.8 5.7"/>
	<g fill="#106e53">
		<path d="M67.4 27.4c.1-.9.1-2.1.1-3.2v-7.9h-5.1v19.5h4.8l7.6-11.2c-.1.9-.1 2.2-.1 3.2v7.9h5V16.2h-4.8l-7.5 11.2zM96 23.7h-7.2v-7.5h-5.1v19.5h5.1v-7.4H96v7.4h5.1V16.2H96zm18.8-.6h-4.6v-2.3h10.3v-4.6h-15.4v19.5h9.7c3.9 0 7.4-1.4 7.4-6.3s-3.5-6.3-7.4-6.3zm-.1 8.2h-4.5v-3.7h4.5c1.2 0 2.2.3 2.2 1.8s-1 1.9-2.2 1.9zm15.4-15l-7.6 19.5h5.2l1.1-3.1h8l1.1 3.1h5.2l-7.6-19.5h-5.4zm.3 12.2l2-5.6c.2-.6.4-1.3.5-2 .1.7.3 1.3.5 2l2 5.6h-5zm26.9-4.8h-7.1v-7.5h-5.1v19.5h5.1v-7.4h7.1v7.4h5.1V16.2h-5.1zm20.6 2.1l6.8-9.6h-5.6l-5.2 7.5h-2.4v-7.5h-5.1v19.5h5.1v-7.4h2.4l5.4 7.4h5.7zm-148 4.9c1.4.9 3 1.4 4.6 1.4 2.2 0 4.3-.9 5.9-2.5 1.6-1.6 2.4-3.7 2.4-5.9 0-1.7-.5-3.3-1.4-4.7-.9-1.4-2.2-2.5-3.7-3.1-1.5-.6-3.2-.8-4.8-.5-1.6.3-3.1 1.1-4.3 2.3-1.2 1.2-2 2.7-2.3 4.3-.3 1.6-.2 3.3.5 4.8.7 1.6 1.7 2.9 3.1 3.9z"/>
		<path d="M47.4 29.1c-.7 1.7-1.7 3.3-3 4.6-1.3 1.3-2.8 2.3-4.5 3-1.7.7-3.5 1.1-5.3 1.1-1.8 0-3.6-.4-5.3-1.1-1.7-.7-3.2-1.7-4.5-3-1.3-1.3-2.3-2.9-3-4.6-.7-1.7-1.1-3.5-1.1-5.4H15c0 5.2 2.1 10.2 5.7 13.9 3.7 3.7 8.6 5.8 13.8 5.8 5.2 0 10.1-2.1 13.8-5.8S54 28.9 54 23.7h-5.6c.1 1.8-.3 3.7-1 5.4z"/>
	</g>
</svg>
