<svg xmlns="http://www.w3.org/2000/svg" viewBox="0 0 200 50">
	<path fill="#fff" d="M124.178 15.3533l.255-1.9068.377-1.7738.632-.8894.375-1.89918.761-1.52037 1.009-.38521 1.64-.12541s2.653.38009 3.034.38009c.376 0 3.38.13181 3.38.13181l2.4-.38521 1.263.76018.628 2.2831 1.515 3.1751s.378 1.5165.635 1.8992c.25.3801 1.515 5.3021 1.893 5.5529.379.2534 4.396 2.4124 4.396 2.4124l3.41-.6361.503-2.0284 1.645-.6361 2.52 1.6445s2.523 6.4731 2.782 6.8545c.24.3826.352 4.1566.352 4.1566v2.1577l1.767 1.9018s-.875-1.2504.382 0c1.895 1.903 15.002-9.7378-.136-22.0146l-2.122-.1241-2.201.0256-2.043-1.1992-.412-.677-.024-2.1807 2.15-.47734.957-.30202.8.21756 1.858 2.1551 1.257 1.5281 1.305 1.2055 4.897 6.02 1.429 4.1004-1.022 7.1462-3.667 5.0218-5.896 1.537-7.015.8268h-20.173l-13.71-.462-.57-2.0963 1.067-1.6215 2.976-1.473 1.724.6591.414-.6872 2.065-5.7116-1.284-4.5688.056-1.075.73-1.6496-.964-5.2471z"/>
	<path fill="#006" d="M107.96 30.4174v6.7137c-3.732 1.8761-7.271 2.8065-10.7915 2.8065-9.7607 0-15.6285-5.8012-15.6285-13.0779 0-7.868 6.683-14.3936 15.26-14.3936 2.1423 0 3.702.3737 5.375.933 1.217.3775 1.959.8408 2.709.8408.65 0 .836-1.1224.931-1.7738h.934l.837 9.0531h-1.12c-.465-1.7802-1.303-3.2506-2.42-4.2821-1.774-1.7776-4.1976-2.7144-6.9658-2.7144-5.8715 0-9.3218 4.6545-9.3218 11.6792 0 6.9017 4.1964 11.6778 9.7864 11.6778 1.6765 0 3.1442-.3775 5.0082-1.2157v-6.898c0-2.2524-.378-3.097-3.5147-3.097v-1.0328h11.8057v1.0328c-2.978.0025-2.884.9393-2.884 3.7484zM75.4791 19.3692l.0012 20.1026h-1.56L53.9048 18.7165c.0921.5605.0921 1.0251.0921 1.5882v12.6134c0 3.9314 0 5.3366 3.545 5.3366v1.0315h-9.3884v-1.0315c3.5193 0 3.5181-1.6816 3.5181-5.3366V18.5233c0-2.127 0-4.4677-3.7037-4.4677v-1.0277h8.8227l16.4757 17.0145c-.0895-.4722-.0895-.7499-.0895-1.4051v-9.2694c0-3.7203.0895-5.3136-3.449-5.3136v-1.0264h9.3845v1.0277c-3.4477 0-3.6332 1.5024-3.6332 5.3136zM30 39.2849v-1.0315c2.2396 0 3.8239-.1855 3.8239-3.4669V17.5199c0-3.3734-1.2145-3.4643-3.8239-3.4643v-1.0277h13.2136v1.0277c-2.7067 0-3.806.0909-3.806 3.4643v17.2666c0 3.2814 1.3821 3.4669 3.806 3.4669v1.0315H30z"/>
	<path fill="#FF6200" d="M160.029 13.028c-.192-.375-.549-.5606-.819-.5606-.279-.3737-.652-.8408-1.022-.8408.277 0 .652-.2841 1.117-.2841.175.4646.531.7512.627 1.1249l.097.5606zM170 27.1412c0-4.1221-1.675-8.2429-4.665-11.2133-1.305-1.3066-2.795-1.9644-3.915-3.2749-.555-.5593-1.022-1.1224-1.391-1.8736-.469-.4671-.723-.7474-1.281-1.03147l.277.84337h-.092c-.466 0-.933-.279-1.307-.5593l.372-.38005c-.087-.18173-.372-.18173-.559-.18173-1.486-.28282-2.888.56178-4.378.84208v.1856c.934.2828 1.116 1.4052 1.675 1.9708h.56c.19 0 .468.1856.659.1856 0-.1856-.19-.5593-.19-.5593.19-.1919.373-.1919.561 0 .467.279 1.116-.1919 1.587.5593-.561 0-1.12 0-1.587.2828 0 .0922.28.279.187.4646-.466-.1856-1.026 0-1.216-.3724l-.089.0921c.602.6854 1.372 1.2027 2.234 1.5012 1.21.1894 2.212-.3801 3.426-.096 4.284 2.0617 7.275 6.9005 7.275 11.7738 0 6.9031-3.913 9.7109-6.436 9.7109-.468 0-1.205-.2803-1.502-.5631.295-1.0315.48-2.1538.48-3.8393 0-3.998-1.564-8.3018-3.707-10.5542-1.022-1.0264-2.142-1.871-3.354-1.871-.56 0-1.122 0-1.495.4696-.464.375-.744 1.1198-.652 1.5882-.743.5631-1.957.8434-2.89.8434-1.026 0-2.302-.3737-3.514-1.3118v-1.4013c-.282-.0922-1.21-.6527-.745-1.0993.278.0959.463.2508.558.3493-.094-.6271-.094-1.3796-.558-1.9375-.187 0-.465 0-.745-.1907-.28-.2828-.56-.6604-.56-1.1275.28.4671.741.2854 1.023.5618-.464-1.1172-.282-1.5894-1.118-3.2749-.191-.8459-1.025-1.3105-1.588-1.8736-.282-.1881-.373-.4671-.745-.4671-.37-.096-.37-.56565-.37-.84208.091 0 .37.18173.555.27643-.555-1.31048-.93-2.71054-2.142-3.43617l-.273.15869h-1.492c.178-.15869.553-.24827.836-.44024-.284-.28027-.463-.37625-1.03-.37625-.279.09598-.652.37625-1.022.37625h-.093c0-.28027-.086-.65396.463-.83952-.55-.09343-.999-.09343-1.649 0-.092.46327-.375.74738-.375 1.12107-.281.15869-.369.44024-.653.72563 0-.56694.284-1.09932.372-1.66114-.372.09598-.834.37369-1.025.37369C131.956 5.37497 131.022 5 130.648 5c.558.37497.277 1.02893.373 1.46917l-.373-.15997c-.095-.37241-.557-.65652-.652-1.11979-.559 0-.932.18556-1.403.46327v.09598c.283 0 .655.28027.844.56054-.653 0-1.118-.28027-1.77-.28027l-.098-.09214c-.274.09214-.558.37241-.739.53238-.654.56694-1.119 1.03405-1.404 1.87102.188 0 .468 0 .563.09598-.375.09471-.563.56182-.934.66036v1.40007c-.278.2828-.653.5618-.839 1.13-.463 1.4922-.559 3.1828-.559 5.0551-.093.3699-.26.4633-.439.558v1.4768s.535-.54.815-.7243v1.1889c-.375 0-.634.4697-.634.7474 0 .3737.08.7512.08 1.1236 0 .1869 0 .1869.086.3737 0-.1868.188-.3737.468-.4633 0 0 .185-.1919.556-.1919-.282.2815-.371.6552-.556 1.0327l-.28.2803-.095.2803c.375 1.967.931 3.6563 1.678 5.526-.747 1.2171-1.582 3.5322-2.117 5.7769-.467-.4633-1.122-.5606-1.679-.5606-.56.0973-1.114.2841-1.492.8434-.557-.2828-1.304-.1894-1.676.1894-.839.7448-.839 1.1224-.839 1.6842-.186.1868-.56.6552-.56 1.3092 0 .8395.092 1.4077.56 2.1538h14.142c-.09-.279-.279-.6565-.465-.8408-.283-.5618-.089-1.3117-.089-1.8723.276-.5618.555-1.1275.93-1.5895.091-.2853 0-.2853.091-.3775l.653-.1894c.376 0 .654-.2777 1.121-.2777.28.4671.28-.2828.746-.4722.998-.1805 2.021 0 2.586.7499 0 .1894.087.1894.087.2828h-.462c-.563-.2828-1.214-.5605-1.843-.2828 0 .2828-.09.2828-.09.5669v.462c.369 0 .625.3776.996.5644.186-.2802.745-.5644 1.115-.5644.47 0 1.123.2854 1.123 1.0328v1.0277c.372.3775.836.4671 1.309.6603-.19.375-.473.375-.745.375h-.753c-.092-.0947-.276-.0947-.276-.375-.283.375-.463.7449-.659 1.1211h10.882c-.185-.3762-.373-.6565-.453-.8408-.173-.5618-.173-1.3118-.173-1.8723l1.001-1.4077c.559 0 1.031-.1831 2.052-.2829.183-.2777 0-.4671.836-.4671.649 0 1.12.1894 1.304.2828.095.1856.095.1856 0 .3763-.184.1868-.558-.1907-.837-.0909-.187.183.095.2777.095.4633.186.1868-.837-.1868-.837-.1868s-.187.5618-.285.7499l.56.5618c.188.2777-.276.5606-.276.8421-.187-.0947-.561-.3801-.561-.2828-.188.7499 0 1.4077-.095 2.1538h1.029l.091-1.5882c.09-.9393 1.21-2.6235 1.865-2.6235.372 0 .651.1869.929.3724.187.3763.657.5631.657.7487 0 .1894-.283.2828-.75.2828-.185 0-.185-.2828-.462-.4671l-.56.5605s.653.5606.653.933c0 .4671-.092.6603-.37.9393l-.564-1.1249c-.28 0-.744.5618-.744.8447 0 .3749-.19.5618-.19 1.121h5.782c.655.0013 1.214-.1868 1.854-.5592h1.102c2.326 0 4.197-.6578 5.871-2.342 2.239-2.246 3.545-5.8037 3.544-9.2425zm-20.199 8.5886l-.935.0921c.375.1868.375.6552.375.7499 0 .2777-.188.5606-.375.7474-.184-.1868-.184-.4697-.37-.7474-.188 0-.28.462-.28.6553 0 .8421.37 1.4999.65 2.0578h.838c-.091-.7461-.279-1.4039-.279-2.2511 0-.462.279-1.0251.376-1.304zm-12.28 1.1197c0-.3724-.275-.4645-.648-.4645-.192 0-.655.2815-.655.4645 0 .3776-.189 2.4354-.189 2.4354h.652c.281-.8408.84-1.9657.84-2.4354zm-2.043-.0934c-.08 0 .086.1869-.819-.7474-.187 0-.466.5619-.466.7474 0 .7474.186 1.7827.466 2.5288h.737c0-.8408.082-1.7814.082-2.5288zm-1.565 2.5288c-.467-.8408-.562-2.1538-.562-2.4354 0-.4645 0-1.1197.286-1.5894l-1.025.1855c-.281.3776-.378.5644-.378.75l.467-.1856c.091 0 .188.1856.275.375-.085.4645-.645.4645-.835.6501-.282.9368.56 1.505.652 2.2511h1.12v-.0013zm23.342-28.2252h-1.025c-.185-.2803-.465 0-.648 0-.191 0-.286 0-.656-.2803.56 0 .838-.2828 1.304-.4671.375.279.747.3724 1.025.7474zm-2.237 10.7424c-.654-.1869-1.021-.4684-1.586-.4684-.183 0-1.02.2815-1.116.4684-.28-.3763.185-1.1224.561-1.3105.372-.1894.555-.0935.745 0 0 .5605.651.279 1.021.4709.192.2765.283.4633.375.8396zm-.092 1.4077c-.561 0-.653-.0947-1.025-.0947-.469 0-1.024.1894-1.307.654-.183-.3737-.095-.5593 0-.8409.283-.2777.75-.659 1.12-.659.651-.0013 1.212.4671 1.212.9406zm2.143 2.0553c-.745-.4658-1.862-.741-2.517-.741-.374 0-1.49.4595-1.865.8357l-.186-.8357c.561-.0998.561-.5644.932-.5644.283 0 .653-.0998.933-.0998.279 0 .47-.183.561-.183.464 0 .281.4684.56.4684.278 0 .468-.1868.651-.1868.467 0 .839.7473.931 1.3066zm.283 2.063c-.655 0-1.307-.1869-1.397-.4658-.19-.1907 0-.5631-.468-.5631-.189 0-.468.2777-.468.2777-.184.0947-.745-.2777-.745 0 0 .4696-.372.659-.841.659-.183 0-.369 0-.555-.0934v-.9368c1.207 0 1.12-.3775 1.675-.3775.374 0 .655.192.934.192.468 0 .186-.192.651-.192.467 0 .655.3775.933.4722-.002.2752.281.6502.281 1.0277zm-.841 2.0553c-.283-.0896-.93-.1817-.93-.4646 0-.3724-.191-.4671-.657-.4671-.373 0-.652.0947-1.21.2777 0 0-.283-.3673-.37-.7461.183-.0934.929-.2815 1.299-.2815.654 0 1.31 0 1.31.2815.002.3776.558.4671.558 1.4001zm-16.286-14.6713l-.187.9368-.746.1843.467-2.0553c.187.3712.466.7474.466.9342zm18.056 17.9232c0 .5656 0 .7525-.283 1.2196l-.559-.8421c.187-.2828.187-.6552.471-1.1223l.371.7448zm-2.236-1.2145c-.655 0-.281-1.2849-1.68-1.2849-.28 0-.463.4454-.837.5375l.095-.6297c0-.1919.092-.5656.462-.7499.75 0 .559.2803 1.122.4748.28.0819.465.2751.838.2751v1.3771zm-5.874-5.3098c-.833-.4696-1.306-1.3117-2.051-2.1525.745 0 .932.7473 1.492.8395.188.1856.372.2828.559.5605v.7525zm-7.992-6.9299c-.558 0-.839-.2828-1.121-.8152 0-.2828-.091-.6578 0-1.1262.191.3737.191.5592.376.7525.374-.1933.374.2777.469.3737.094.2534.276.5324.276.8152zm15.448 15.983c-.187.2815-.187.2815-.275.5644 0-.4697-.56-.7474-.934-1.5921l.375-.6526c.278.1804.649.462.649.9304 0 0-.089.2828 0 .4671-.002.1011.185.1011.185.2828zm-1.863-2.7144c0 .3763-.092.4671-.183.9368-.657-.0947-.657-.8421-.747-.9368-.47-.5605-1.12-.0921-1.585-.0921-.187-.5618.095-.5618.095-.9368.278 0 .557-.1869.833 0 .465-.1869.747.2802 1.212.2802.098.1895.283.6566.375.7487zm-4.753-3.8111c0 .3749-.187.6552-.09 1.0327-.187-.5643-.56-1.1249-.748-1.688 0-.0934-.094-.0934.093-.1868l.467.0921c.09.1869.278.4723.278.75zm-8.174-7.3996c-.1.3762-.467 0-.561 0h-.84c-.096-.1869-.186-.2765-.186-.4684.372-.0896.654-.279.93-.0896.19.2815.372.558.657.558zm2.048 2.1551c-.281.2828-1.023.3737-1.581-.0896l.745-.3775c.278.2828.65.3775.836.4671zm4.819 5.3341c0 .5643-.091 1.2196-.091 1.8518-.275 0-.275-.1626-.275-.5375-.097-.5657-.286-1.0302-.472-1.5921-.186-.7499-.65-1.4051-1.025-2.2472-.092-.3776-.535-.5618-.907-.8434.46 0 .907 0 1.282.3737 0 .1868.091.2854.37.5644.655 0 .466.8421 1.027 1.217-.275.2803-.372.4659-.56.6502.285.1958.56.2853.651.5631zm-3.605-2.8066c0 .2828-.187.3776-.375.5606 0 0-.377-.462-.377-.6553 0-.3724 0-.5605.099-.8421.278.2803.653.6566.653.9368zm8.736 8.4926l-.191.2828c-.464-.2828-.742-.3712-1.299-.3712 0-.3788-.283-.8408-.467-.8408-.561 0-.465.3699-.934.3699l.837-.8421c.097-.1868.097-.1868.283-.1868.282.1868.369.2777.652.2777 0 .1881 0 .2841-.092.5605.279.1894.462-.0896.652.1894.276.0934.559.1881.559.5606zm-7.529-6.4322c0 .1843-.275.3789-.372.3789 0 0-.462-.4723-.555-.942-.096-.3724.276-1.0276.276-1.0276l.279.1856c.097.0947 0 .3749.097.659.275.183.448.5606.275.7461zm-7.268-9.0837c-1.12-.6284-2.329-1.0994-3.729-1.1902 0 .2841 0 .5618-.091.6578 1.115.5324 2.147 1.0033 3.074 1.8428v.8434c-.928-.9355-1.959-1.871-3.173-2.1538-.092.1881-.462.3788-.556.7525-.626-.4697-1.371-.933-2.118-1.0315-.278 0-.47-1.0059-.47-1.0059.47-.1869.747-.4684.937-.9317h.372c.281 0 .281-.1907.281-.4709 0-.5606-1.215-.5606-1.774-.5606-.653 0-1.119 0-1.49.2777-.184 0-.096.2829-.096.471l.28.2841c.187 0 .373-.1907.562-.1907-.092.5605.091.8408.653 1.1224l-.09.9073c-1.125 0-1.872.4748-2.708.8485-.279-.1881-.464-.471-.654-.7499-1.117.3762-3.072 1.8723-3.072 1.8723v-.6604c.835-.7461 1.955-1.116 2.796-1.5626v-.6565c-.378-.1869-.745 0-1.117 0-.813.1006-1.586.4135-2.24.9073 0-.2508-.095-.6258-.095-.6258 1.029-.5631 2.335-1.0315 3.547-.8433v-.3699c-.095-.1907-.095-.4709-.282-.4709-.559-.5606-1.117-1.4014-1.117-1.9696l.372-.1856c-.187-.5592-.372-1.9619 0-2.429-.56-.2841-1.119-.755-1.306-1.13-.187-.4658-.373-.74995-.467-1.3092.281-.56182.467-.75123.744-1.31304.187 0 .468-.08959.558-.27899.471-.09215.752-.55926 1.307-.27771.372 0 .747.18556 1.026.27771 0 .1894 0 .27899.189.47223.557 0 .557.55798.833 1.02893.281.09087.56.09087.748.09087.561.18812 1.025.18812 1.215.46455.746-.46455 1.489-.55542 2.326-.46455.093-.28155.263-.65652.349-1.1198.093.27259.093 0 .277 0 .376-.28283.837-.74994 1.491-.56438.376.28155 1.033.09215 1.405.56438.27.36857.46.93039.743 1.40262-.283.56058 0 1.30918-.562 1.58948l-.553.5669c-.193 0-.193.1805-.472.1805.279.6603.092 1.5933-.185 2.2485.185-.0921.462-.0921.462-.3711v.654c0 .4722-.279.9316-.651 1.3104-.187.5606-.648 1.3067-1.303 1.4014v.1881c1.395 0 2.52.3737 3.82 1.0302v.6297h.004zm3.824 5.901l-.467.1855c-1.025 0-1.491-.2777-1.959-.6552.373 0 .84-.4697.84-.4697.461.4697 1.118.8459 1.586.9394zm-2.612-2.15c-.562 0-1.211.2777-1.49-.2867.187-.0947.373-.3711.557-.5605l.933.8472zm7.616 8.7715c0 .4697-.559 1.0302-.745 1.4064.187-.4684.187-1.4064 0-1.4064-.188-.0922-.56 0-.56-.1869 0-.2802.096-.6526.096-.8152 0-.375-.261-.5669-.261-.7474 0-.5643.633-.6578.821-1.0327.091.3749.091.7448.091 1.2119 0 .192.279.7295 0 1.1979-.001.279.558.0896.558.3724zm-2.117-1.0034c0 .535-.368 1.0021-.464 1.5665 0-.5631-.092-1.0315-.469-1.4039 0-.1626.284-.1626.098-.4454 0 0-.566-.2854-.566-.6591 0-.3711.377-.6501.566-.9316 0-.0947.371.183.371.7473 0 .0896 0 .3776-.092.558-.094.2867.556.2867.556.5682zm-7.739-6.6496c-.464.0908-.836-.3737-1.301-.5593-.188-.5605-.188-1.1262-.376-1.4064.376.2802 1.21.2802 1.032 1.1236 0 .2841.373.4684.645.8421zm2.612 2.6235c-.372 0-1.027 0-1.397-.2816-.559-.2841-.742-.4683-1.028-.7512.375-.2777.841-.2777 1.028-.3749.37.3749.742 1.0353 1.397 1.4077zm-15.727-14.4895l-.65.1919.09-.4671c.185-.2841.28-.5669.56-.8472v1.1224zm11.998 13.0818c-.372.0972-1.02.2815-1.213-.1856-.559-.8395-.279-1.5895 0-2.2473.193.5631.282 1.1249.371 1.5946.097.3788.658.5605.842.8383zm-2.677-5.1511c-.092.5644-.278 1.4065-.837 1.7814 0-.3749-.186-.5618-.375-.8433l-.09.2815c0 .1869-.189.5618-.189.9394-.183.0908-.555.2764-.932.0908v-.2802c-.09-.1882-.09-.5631-.09-.75l-.09-.0896c-.28.0896-.28.2765-.28.4633-.098.1881-.283.3763-.283.6565-.375 0-.562-.0908-.842-.2802v-.8396c0-.1919 0-.1919-.087-.1919l-.47.4684c-.372-.2765-.466-1.0303-.466-1.4987 1.491-.842 3.358-.5592 4.477-.0895.182.0895.367.0896.554.1817zm4.822 7.5864h-.279c-1.022.3776-1.867-.2777-2.709-.842.47-.1856 1.122-.2777 1.687-.2777l.272.5618c.283.0896.751.3724 1.029.5579zm-13.956-14.2041l-.467.5618c.096.9343-.28 1.5882-.28 2.4329l-.465-1.4986c.095-.3737.186-.7487.465-1.2158l.747-.2803zm9.577 12.1437c-.443-.2777-1.28-.3749-1.093-.9342.183-.4646.463-.5644.65-.7474.092.6527.18 1.1224.443 1.6816zm8.668 9.6239h-.098c-.181-.2854-.275-.567-.464-.567.284-1.0276-.278-1.8697-.461-2.7144v-.2802c.282.4697 1.024.9368.927 1.4052.096.8382.096 1.5882.096 2.1564zm-2.148-3.5616c-.462 0-.839 0-1.121-.4671-.091 0-.279-.2803-.371-.0947-.462.3749-.928-.2777-1.49-.1856-.272.2922-.632.4888-1.025.5605v-.0947c0-.2802.192-.5579.565-.7205.555.1626 1.022-1.0353 1.578-.375.279.0922.559.0922.742.0922.66.2815.846.8165 1.122 1.2849zm-8.545-7.5622c0 .6655-.093 1.4999-.746 1.7828l-.187-.9343c.275-.183.559-.3775.933-.8485zm3.139 4.1234c-.183.1843-.744.3763-1.114.3763-.535-.4697-.91-1.0302-1.466-1.7827l1.466.2854c.276.1855.837.8395 1.114 1.121zm5.597 5.3098c-.373-.2803-.934-.2803-1.12-.7474-.375-.0947-.655-.0947-1.117-.0947-.373.0947-.84.0947-1.213.0947-.095 0 0-.0947-.182-.1868-.564.1868-1.125.1868-1.687.7461l.47-1.1198c.372 0 .653-.1882.844-.1882.373-.0947.645-.0947.928-.0947v.0947c1.024 0 2.239-.0947 2.983.75l.094.7461zm-10.696-7.9333c-.556-.5605-1.026-1.0302-1.026-1.5907.277 0 .558 0 .837.1907.002.4658.189.8408.189 1.4zm-1.772-2.7105l-.279 1.2106c-.277-.5554-.559-1.1223-.652-1.7763l.931.5657zm13.401 12.6121c-.152.3654-.277.7413-.374 1.1249-.192-.5618-.377-1.4026-1.026-1.4026-.095-.3776-.187-.567-.563-.8447l-.745-.0947c.092.3724.655.3724.28.9394.375.2777.657.2777.842.7474.187.2802 0 .6552.091.842l-.559.2777c0-.4645.089-1.4051-.562-1.5894-.555.1855-.649-.5618-1.021-.8447-.185 0-.185-.4671-.469-.2777-.459.2777-1.025 0-1.488.2777l.463-.7499c.373-.2777.746-.1805 1.12-.2777l.746-.0947c.741 0 1.396.3724 2.141.6552.373.1894.558.4671.558.9342.192.0999.566.0999.566.3776zm-7.46-4.4024h-.186c-.093 0-.72-.2777-.909-.4403-.089-.2828-.089-.5669-.089-.5669h.737l.447 1.0072zm-7.151-6.7137c-.561-.1855-1.212-.7499-1.494-1.217-.169-.3514-.263-.734-.277-1.1237.376 0 .65.2803.748.4659v.0947c.463.5631.925 1.0302 1.023 1.7801zm4.476 3.2749c-.094.5631-.376.7474-.837 1.4091-.282.1868-.844.279-1.405.5567.095-.2777.376-.3699.561-.6553.187-.2777.562-.7461.654-1.0276.471-.2829.651-.2829 1.027-.2829zm6.87 9.1529l-.279.2777c-.278-.2777-.093-1.0276-.562-1.1197-.459 0-.832-.4697-1.025-.5644l.373-.183s.192-.0999.373 0c.187.183.374.2777.374.462.189.2854.467 0 .654.2854.092.2789.187.6539.092.842zm-8.551-9.9002c-.281.5618-.561 1.1249-1.115 1.3104-.28 0-.747.1843-1.307 0 .282-.1868.56-.2815.933-.5631l.74-.7473h.749zm1.864 4.2808c-.375.2803-.65.2803-1.117.1855l-.56-.7205h1.4l.277.535zm-6.803-7.0938c-.466.4697-.933.6655-1.122 1.2222 0-.2828-.091-.558-.182-.7525.09-.3698.37-.5605.466-.6527.28.0922.466.0922.838.183zm1.121 1.4065c0 .3763-.189.8446-.658 1.3105l-.372.2854c0-.5618.282-1.0354.282-1.5025.277-.0934.559-.2777.748-.0934zm1.303 1.1262l-.378 1.4052c-.462.3698-1.114.1868-1.673.1868.748-.1868 1.306-1.0315 1.673-1.5907.098-.0934.191-.0013.378-.0013zm.466 4.7466c0 .2829-.091 1.4078-.091 1.4078-.189-.6552-.655-1.313-1.215-1.313-.277-.279-.56-.5593-.652-.814-.282-.2828-.559 0-.932-.2828-.371 0-.836 0-1.213.2828v-.2828l.655-.7525c.65.0934 1.49 0 1.68.4671.462.2854.926.5669 1.023.7295v.2777c.184.0947.557.1907.745.2802zm-.466 2.9038l-.651.6553c-.189-.2828 0-.75-.279-1.0328 0-.1804.185-.2777.089-.3724-.089-.1881-1.21-.5618-1.21-.5618-.373-.2803-.839-.5618-1.209-.9343-.377-.0947-.657.0948-1.124.1869v-.1869c.189-.3749.189-.842.747-.842.28 0 .655 0 .842.279.371 0 .558.3749.834.4683.468.4672.842.6578 1.12.8447 0 .2803.095.4671.28.5593.561-.0013.374.5592.561.9367zm-1.401 1.4027l-.274.9393-.658-1.6867c-.745-.75-1.584-.8421-2.053-1.212-.371-.0972-.371.1805-.555 0 0-.1919 0-.4722.274-.755h.563l.556.2828c.287.2803.936.2803.936.8421 0 .0921-.095.1868.187.5605l.932.2829.092.7461zm-2.606.9393c0 .7474-1.212 1.7802-1.212 1.7802 0-.4671.28-1.0328.28-1.5921 0 0-.375-.3775-.724-.3775-.271.1894-.271.3775-.369.6552-.276.5644-.843 1.1224-.931 1.6893l-.091-.0947c0-.9393.091-2.5301.649-3.184.471-.5618.832-.5618 1.37-.6553l.469.0922-.373.5618c.373.1856.932.5631.932 1.1249zm-3.236-.5618c0 .3724-.093.7499-.282 1.0276-.091-.3724-.369-.8395-.838-.8395-.373.7474-.47 1.0251-.092 2.1551-.281.2803-.469.375-.839.5619-.187-.3776-.187-1.0302-.187-1.4078 0-.6539.093-1.3092.281-1.8748.276-.2803.464-.7474.745-1.0302h1.023c-.46 0-.46.4671-.46.7499.276.096.649.1907.649.6578zm-2.427 1.0276c-.093 0-.37-.2777-.651-.2777-.281.5606 0 .933 0 1.5921 0 .2802-.092.5618-.092.5618-.187 0-.561-.3775-.654-.7551v-1.4947l.838-1.0328c.559.3788.748.9406.559 1.4064zm19.241-26.0701c.194-.4671.194-1.30918-.179-1.78141-.193-.37241-.656-.56182-1.12-.93039l-.655.36857c-.372.18941-.562.56182-.562 1.03405.652.27643 1.306 1.02638 1.585 1.58948h.28c.279-.2803.473 0 .651-.2803zm-3.147.5631c0-.2828-.088-.2828-.181-.2828-.47 0-.47-.7474-.837-.5618-.187 0-.375-.1856-.656 0 0 .0947 0 .0947.19.0947.464 0 .278.6565.653.7512h.831v-.0013zm1.477 1.1249s.178 0 0-.0947l-2.029-.279c-.185.279-.653.279-.653.5593h-.187c.189.7474.189 1.5882.189 2.4367.373.0908.745.2764.745.8382.37.1907.721.2829 1.091.5631.189-.0921.281-.3724.372-.6578-.372-.4671-1.185-.183-1.185-1.0225l-.557-.1894c0-.5657 0-1.1249-.093-1.5025l.093-.0908c0 .0908.089.1868.279.3724.37 0 .721.096 1.091-.1856.189-.096.189-.5618.372-.5618.189 0 .372 0 .472-.1856zm-4.639-1.9708c-.185-.1856-.747.0947-1.028.1868-.369.0947-.653.375-.653.6578h1.031c.09-.2815.465-.6565.65-.8446zm-2.051-1.02638c-.091-.93934-1.118-1.03405-1.589-1.40262h-.367c-.747.27259-.932 1.02893-1.029 1.67905.282.84465.842.28415 1.213.84465.374-.279 1.303-.93935 1.772-1.12108zm5.476 8.61288v-.4697h-.91l-.09.0947 1 .375zm-4.172-5.4301c0-.1856-.185-.3711-.465-.5593h-2.237c0 .3737.28.5593.561.5593 0 .375.277.4658.367.5618.283.1856.378.1856.658 0 .277.1856.367-.1868.464 0 0 .5618 0 .8408-.097 1.3092-.09.6553-.647.5644-1.115.8408 0 .2841-.277.7525 0 1.0328.279-.1868.468-.2803.93-.471 0-.2777.284-.5618.653-.7473 0-.8408.281-1.6829.281-2.5263zm-.748 4.9604c-.186-.3737-.647 0-1.114-.1869 0 .1869 0 .3724.279.5657.279-.2841.744-.3788.835-.3788"/>
</svg>
