<svg xmlns="http://www.w3.org/2000/svg" viewBox="0 0 200 50">
	<g fill="#215E36">
		<path d="M162.232 25.656l1.44-4.32 1.728 4.32h-3.168zm-.72 2.3041h4.608l1.152 2.88c0 .144.144.432.144.576 0 .288-.288.5759-.864.5759v1.0081h5.904v-1c-.144 0-.72-.1441-1.152-1.2961l-4.904-12.68h-4l-4.608 12.6641c-.288.576-.568 1.152-1.296 1.296v1.0079h4.752v-.9919c-.288 0-.864-.1441-.864-.7201-.022-.203.029-.4073.144-.576l1.008-2.736-.024-.0079zM118.184 25.6881l1.6-4.296 1.6 4.296h-3.2zm-.72 2.288h4.584l1.152 2.864c0 .144.144.432.144.576 0 .288-.288.568-.864.568v1h5.872v-.984c-.144 0-.712-.144-1.144-1.288l-4.872-12.6h-4l-4.584 12.6c-.288.576-.568 1.144-1.288 1.288v1h4.728v-1c-.288 0-.856-.144-.856-.72-.021-.203.03-.4068.144-.576l1-2.72-.016-.008z"/>
		<path d="M96.8 18.048v1.008h.288c.576.144.72.576.72 1.152v10.488c0 .72-.144 1.152-.72 1.296H96.8V33h5.752v-1h-.288c-.576-.144-.72-.576-.72-1.296v-3.6l1.6-1.6 3.448 5.6c.144 0 .144.144.144.288 0 .288-.144.576-.72.576v1.008h6.464V32c-.313-.0654-.605-.2039-.854-.4041-.249-.2002-.447-.4565-.578-.7479l-5.032-7.76 2.872-2.728c.638-.626 1.43-1.0729 2.296-1.296v-1.016h-6.032v1.008c.432 0 .864.144.864.432 0 .144 0 .288-.288.576l-4.168 3.88v-3.736c0-.576.144-1.008.72-1.152h.288v-1.008H96.8zM63.56 18v1.032h.296c.584.144.736.592.736 1.176v10.584c0 .584-.144 1.032-.736 1.176h-.296V33h5.736v-1H69c-.592-.144-.592-.584-.592-1.176V29.76l5.88-5.88v6.912c0 .584-.144 1.032-.736 1.176h-.296V33h5.736v-1h-.296c-.592-.144-.736-.584-.736-1.176V20.2c0-.592.144-1.032.736-1.176h.296V18h-5.728v1.032h.296c.584.144.736.592.736 1.176v.44l-5.88 5.88v-6.32c0-.592 0-1.032.592-1.176h.296V18H63.56zM80.232 18v1.032h.296c.592.144.592.592.592 1.176v10.584c0 .584 0 1.032-.592 1.176h-.296V33h5.6v-1h-.144c-.584-.144-.736-.584-.736-1.176v-4.888h5.88v4.856c0 .584-.144 1.032-.736 1.176H89.8V33h5.736v-1H95.2c-.584-.144-.584-.584-.584-1.176V20.2c0-.592 0-1.032.584-1.176h.296V18h-5.712v1.032h.296c.592.144.736.592.736 1.176v3.528h-5.88V20.2c0-.592.152-1.032.736-1.176h.144V18h-5.584zM138.056 24.616l3.088-4.408c.177-.3553.45-.6539.788-.8618.338-.2079.727-.3168 1.124-.3142V18H137.6v1.032c.44 0 1.032.144 1.032.592-.004.1141-.033.2259-.084.328-.051.1022-.123.1922-.212.264l-1.768 2.496-1.76-2.792c-.44-.736.296-.88.736-.88V18H128.8v1.032c.736 0 1.176.592 1.912 1.6l3.088 4.704-3.824 5.6c-.411.5043-.971.8656-1.6 1.032V33h5.296v-1c-.88 0-1.032-.44-1.032-.584 0-.296.144-.44.296-.736l2.352-3.384 2.352 3.68c.156.1627.26.3692.296.592 0 .144-.144.44-.88.44v1.032h6.616V32c-.736-.144-1.032-.736-1.32-1.032l-4.264-6.32-.032-.032zM144.344 18v1.032h.296c.584.144.736.592.736 1.176v10.584c0 .584-.144 1.032-.736 1.176h-.296V33h5.736v-1h-.296c-.592-.144-.736-.584-.736-1.176v-2.24c4.56-1.032 8.088-2.792 8.088-6.464.028-.5215-.059-1.0428-.255-1.5268-.197-.484-.497-.9187-.881-1.2732-1.32-1.32-3.088-1.32-4.264-1.32h-7.392zm4.704 2.056h1.176c2.648 0 3.088 1.328 3.088 2.208 0 2.056-2.208 3.528-4.264 4.264v-6.472zM173.248 18v1.032h.296c.592.144.592.592.592 1.176v10.584c0 .584 0 1.032-.592 1.176h-.296V33h5.6v-1h-.144c-.592-.144-.736-.584-.736-1.176v-4.888h5.88v4.856c0 .584-.152 1.032-.736 1.176h-.296V33h5.736v-1h-.296c-.584-.144-.584-.584-.584-1.176V20.2c0-.592 0-1.032.584-1.176h.296V18H182.8v1.032h.296c.584.144.736.592.736 1.176v3.528h-5.88V20.2c0-.592.144-1.032.736-1.176h.144V18h-5.584zM14.272 25.8c-.01-.0469-.0097-.0955.0007-.1423.0103-.0469.0306-.091.0595-.1293.0288-.0384.0656-.0701.1077-.0931.0421-.0229.0887-.0366.1366-.0401.0478-.0034.0959.0034.1409.0201.045.0166.0859.0428.12.0766.034.0338.0605.0745.0775.1193.017.0449.0242.0929.0211.1408v.232c.297 4.8442 2.2031 9.4505 5.416 13.088 3.2 3.584 7.712 6.36 13.48 8.24 2.9036-.918 5.678-2.2031 8.256-3.824 2.0964-1.3106 3.9841-2.9287 5.6-4.8h-4.904c-.0645-.0006-.1275-.0198-.1814-.0553-.0539-.0354-.0965-.0857-.1226-.1447l-4.88-8.832-7.448 8.888c-.0317.037-.071.0668-.1151.0875-.0441.0207-.0922.0318-.1409.0325h-2.88c-.0606.0001-.1202-.0162-.1723-.0472-.0521-.031-.0948-.0755-.1237-.1288L20.2 26.08c-.0248-.0752-.0223-.1567.0071-.2302.0294-.0735.0838-.1342.1536-.1715.0698-.0373.1506-.0488.228-.0323.0775.0164.1466.0596.1953.122L27.2 38h2.52l7.64-9.136c.0272-.0319.0597-.059.096-.08.0767-.0407.1663-.0501.2498-.0262.0835.0238.1546.0791.1982.1542L42.968 38h5.408c.0753.0006.1484.0259.208.072.0344.0266.0632.0598.0847.0976.0215.0378.0352.0795.0404.1227.0052.0432.0018.087-.0101.1288-.0118.0418-.0319.0809-.059.1149-1.7409 2.1703-3.8308 4.0358-6.184 5.52-2.6563 1.6745-5.5172 3.0001-8.512 3.944-.0652.0198-.1348.0198-.2 0-5.936-1.92-10.592-4.8-13.88-8.464-3.3194-3.742-5.2908-8.4874-5.6-13.48v-.24l.008-.016zm4.552-3.72c.0277.0393.0466.0841.0555.1313.0089.0473.0076.0958-.0039.1425-.0115.0467-.0329.0904-.0627.1281-.0298.0377-.0673.0685-.1101.0905-.0428.022-.0897.0345-.1377.0367-.0481.0023-.096-.0058-.1406-.0236-.0446-.0179-.0849-.0451-.1181-.0799-.0332-.0347-.0586-.0762-.0744-.1216l-1.688-3.248h-1.68v3.096c.0075.0479.0045.0969-.0088.1435-.0133.0467-.0364.0899-.068.1268-.0315.0368-.0707.0664-.1147.0866-.0441.0203-.092.0308-.1405.0308-.0485 0-.0964-.0105-.1405-.0308-.044-.0202-.0832-.0498-.1147-.0866-.0316-.0369-.0548-.0801-.068-.1268-.0133-.0466-.0163-.0956-.0088-.1435V18.8c0-.0891.0354-.1746.0984-.2376s.1485-.0984.2376-.0984h2.208c.0606-.0001.1201.0162.1723.0472.0521.031.0948.0755.1237.1288l1.784 3.44zm10.104 4.264c-.0424-.0764-.0528-.1665-.0288-.2505.024-.084.0804-.1551.1568-.1975.0764-.0424.1665-.0528.2505-.0288.084.024.1551.0804.1975.1568l1.6 2.832 3.6-4.056-3.128-5.928h-2.544c-.0891 0-.1746-.0354-.2376-.0984s-.0984-.1485-.0984-.2376v-3.688c0-.0891.0354-.1746.0984-.2376s.1485-.0984.2376-.0984h8.064c.0585.0005.1158.0163.1663.0458.0505.0294.0925.0716.1217.1222l2.768 4.592c2.136-2.176 3.736-3.552 5.6-4.216 1.864-.664 4-.632 7.088 0v-1.744c-1.0169-.4366-1.9322-1.0795-2.688-1.888-.7505-.794-1.3304-1.73328-1.704-2.75998H19.24c-.3649 1.03673-.9395 1.98718-1.688 2.79198-.7558.8085-1.6711 1.4514-2.688 1.888v1.16h8.048c.0586-.0003.1163.0151.1669.0447.0507.0295.0925.0721.1211.1233l4.152 7.464c.021.0378.0344.0794.0393.1224.0049.043.0014.0865-.0105.1281s-.0319.0805-.0588.1144c-.0269.0338-.0602.0621-.098.0831-.0378.021-.0794.0344-.1224.0393-.043.005-.0865.0014-.1281-.0105s-.0805-.0319-.1143-.0588c-.0339-.0269-.0622-.0602-.0832-.098L22.712 15.2h-8.176c-.0891 0-.1746-.0354-.2376-.0984s-.0984-.1485-.0984-.2376V13.12c-.0025-.0672.0152-.1337.0508-.1907.0357-.0571.0877-.1021.1492-.1293 1.01-.3959 1.9198-1.0106 2.664-1.8.7273-.7868 1.2735-1.72344 1.6-2.74398.0183-.07467.0616-.14082.1227-.18741.0612-.04658.1365-.0708.2133-.06859h29.68c.071-.00011.1402.02229.1977.06397.0575.04168.1003.1005.1223.16803.3233 1.02907.8697 1.97418 1.6 2.76798.7486.7916 1.6641 1.4065 2.68 1.8.0605.0249.1124.067.1494.121.0369.054.0573.1176.0586.183 0 .72.08 1.776 0 2.448-.0192.0853-.0709.1597-.1441.2075-.0732.0478-.1621.0652-.2479.0485-3.2-.712-5.312-.8-7.128-.144-1.816.656-3.416 2.072-5.6 4.352l-.08.064c-.0756.0446-.1656.0578-.2508.0369-.0852-.0209-.1589-.0744-.2052-.1489l-2.92-4.768h-7.544v3.008h2.4c.0606-.0001.1201.0162.1723.0472.0521.031.0948.0755.1237.1288l3.32 6.296c.0429.0579.066.128.066.2 0 .072-.0231.1421-.066.2l-4.088 4.584-.088.072c-.0775.0432-.169.054-.2544.03s-.1579-.0808-.2016-.158l-1.8-3.24-.024-.024zm24.528-1.24c.0075.0479.0045.0969-.0088.1435-.0133.0467-.0364.0899-.068.1268-.0315.0368-.0707.0664-.1147.0866-.0441.0203-.092.0308-.1405.0308-.0485 0-.0964-.0105-.1405-.0308-.044-.0202-.0832-.0498-.1147-.0866-.0316-.0369-.0547-.0801-.068-.1268-.0133-.0466-.0163-.0956-.0088-.1435.072-2.256 0-4.544 0-6.808l-1.76 2.904c-.0391.063-.098.1113-.1675.1374-.0694.026-.1456.0284-.2165.0066L50.2 21.2c-1.3522-.3665-2.7892-.2592-4.072.304-1.4175.5643-2.6617 1.4913-3.608 2.688.936 1.512 1.696 2.776 2.4 3.88 2.44 4.064 3.688 6.12 5.232 7.048.3823-.7026.7242-1.4264 1.024-2.168.329-.8539.6042-1.7277.824-2.616.0331-.0717.0903-.1294.1617-.1631.0714-.0337.1524-.0412.2287-.0211.0764.02.1432.0663.1889.1307.0456.0644.0671.1428.0607.2215-.2418.9166-.5411 1.817-.896 2.696-.3531.8682-.762 1.7126-1.224 2.528-.0421.0725-.1097.1266-.1896.1517-.08.0252-.1664.0196-.2424-.0157-1.864-.928-3.136-3.04-5.792-7.448-.728-1.208-1.56-2.584-2.472-4.064-.0368-.0543-.0565-.1184-.0565-.184 0-.0656.0197-.1297.0565-.184 1.0192-1.386 2.4043-2.4608 4-3.104 1.4417-.6354 3.0599-.7486 4.576-.32l.208.064 2.256-3.696c.0351-.0654.0909-.1174.1587-.1478.0678-.0303.1437-.0374.2159-.02.0723.0174.1367.0582.1832.116.0466.0579.0727.1296.0742.2038v8.008l-.04.016z"/>
		<path d="M12.024 23.936H33.12l-.552-.92H12l.024.92zM33.304 24.28H14.416v.688l18.504.536.672-.744-.288-.48zM44.368 25.224l1.808 2.992c2.208.16 4.672.96 7.52 1.6.1851-1.2628.1309-2.5492-.16-3.792-3.0342-.4751-6.0973-.7424-9.168-.8zM45.76 24.48c.632.16.6-1.288-.504-1.312-.3208-.0182-.6396.0605-.915.226-.2754.1656-.4946.4102-.629.702l.304.456c.1919-.1666.429-.2723.6812-.3036.2522-.0314.508.0131.7348.1276l.328.104zM20.04 22.648h5.912L22.248 16h-7.2v1.696h1.6c.8 0 .872.048 1.264.8l2.192 4.16-.064-.008z"/>
		<path d="M27.648 25.688l-6.048-.136L27.696 37.2h1.672l8.44-10.12 5.64 10.12h6.072v-.8c-.584-.08-2.512-1.864-3.152-2.912C44.592 30.64 43 27.76 41.152 24.8l-.352-.656.416-.608c1.84-2.672 5.768-4.648 9.056-3.848l1.968-3.2-.752-.184c-5.064-.888-6.744.384-10.552 4.296l-1.04 1.064L36.448 16h-6.28v1.424h1.224c.928 0 1.128.112 1.6.944l3.52 6.656-5.672 6.4-3.16-5.672-.032-.064z"/>
	</g>
</svg>
