<svg xmlns="http://www.w3.org/2000/svg" viewBox="0 0 200 50">
	<path fill="#32AE50" d="M8.50112 10.2212c2.12968-.44419 4.39788-.2177 6.38898.6641 3.0841 1.3424 5.4677 4.2121 6.1648 7.5094.188.8081.2375 1.6393.2573 2.4661.0011 4.6694-.0011 9.3378-.0022 14.0073-1.6635.0044-3.327.0143-4.9894-.0033-.0605-4.8476.0022-9.6985-.0319-14.546-.0352-1.5998-.8994-3.0984-2.122-4.0967-1.8394-1.4469-4.5837-1.6019-6.54736-.3133-1.38533.8587-2.34737 2.3605-2.55957 3.9746-.06267.4694-.03958.9433-.04068 1.4161.0011 4.5221 0 9.0453-.0022 13.5675-1.6723.0088-3.34459.0121-5.01689-.0033.00549736-4.6992-.00439789-9.3994.00659683-14.0997C.0153926 18.4529.739945 16.1375 2.15057 14.298c1.52386-2.0747 3.82946-3.5589 6.35055-4.0768zm1.26549 21.1736c-.68937.1968-1.32377.5937-1.80094 1.1303-.70256.8411-1.0357 2.0054-.77842 3.0829.22319 1.0786 1.00052 2.0153 1.99444 2.476.64099.3255 1.38531.365 2.08791.2749 1.0379-.1715 1.979-.8389 2.4914-1.7559.475-.8202.5706-1.8328.3122-2.7399-.2946-1.084-1.1533-1.9911-2.2088-2.3693-.6674-.2507-1.4084-.2573-2.09779-.099z"/>
	<path fill="#201B18" d="M88.6757 20.4661c.0726-.0902.1484-.1793.2254-.2683.2419 1.061.4684 2.1253.7037 3.1874.0692.3265.1737.6541.1308.9928-.3112-.4629-.5234-.9917-.8983-1.4106-.6992-.7741-1.6668-1.3425-2.7201-1.4261-1.0357-.1132-2.178.0275-2.9861.7422-1.0687.8994-1.5778 2.3045-1.7537 3.6557-.1737 1.2776.0495 2.5706.3881 3.8009.5124 1.3216 1.2479 2.6563 2.4881 3.4216 1.2655.8652 2.995 1.1489 4.4023.4606 1.1698-.5926 1.8834-1.7569 2.3881-2.9213l.2342-.0165c-.4761 1.4744-.9995 2.9323-1.4788 4.4056-1.4403-.1451-2.9004.1496-4.3386-.0791-1.7789-.21-3.4996-1.0874-4.5892-2.5277-.8861-.9851-1.3611-2.2627-1.6448-3.5381-.1649-1.2138-.1506-2.4562.0319-3.6679.2089-1.3501.8763-2.6464 1.9417-3.5172 1.4623-1.2369 3.5095-1.6063 5.3665-1.3149.6982.0571 1.4216.2451 2.1088.0209zm-12.8693.133c.2199-.0165.4068-.1462.5893-.2595.2188 1.3139.4695 2.6212.7092 3.9317.0285.1836.0747.3837-.0143.5597-.2925-.5619-.5652-1.1523-1.0214-1.6042-.4519-.4738-.9731-.8883-1.5624-1.1775-.8807-.3661-1.8515-.4189-2.7938-.3738-.2616.0011-.4903.1352-.7146.2507-.1286.1781-.2815.3584-.287.5904-.0714.7212-.0154 1.448-.0374 2.1703.8082-.0055 1.6229.0484 2.4277-.0516.409-.0847.9147-.3101.9532-.7873.0638-.1979-.0527-.5134.2496-.5541.243 1.4623.4167 2.9367.6421 4.4023.0077.1869.1033.4046-.0484.5585-.3089-.8411-.5717-1.857-1.4557-2.2748-.8774-.3386-1.8449-.2441-2.7663-.2551.0044 2.1572-.0022 4.3144.0033 6.4715.0374.519.0143 1.2138.5927 1.4469.8345.3585 1.7877.2243 2.653.0605 1.5678-.3298 2.8476-1.4711 3.6205-2.841.2309-.4024.4134-.8312.6322-1.2413.0429.0373.1309.111.1738.1484-.5201 1.7943-1.0434 3.5887-1.5624 5.3841-.2507-.2111-.5761-.2771-.895-.2793-2.852-.0121-5.704.0121-8.556-.011-.0011-.2924.2946-.31.4925-.4178.287-.1429.5245-.4079.5959-.7267.1638-.6806.1649-1.3853.1606-2.0813-.0011-2.1605 0-4.3198 0-6.4803-.0022-.9038.0208-1.8119-.0726-2.7124-.0649-.4618-.1056-.9818-.4728-1.3161-.1935-.2111-.4838-.2671-.7355-.3727.1066-.0572.221-.1099.3485-.0967 2.0175.0011 4.0351.0011 6.0526.0011.6993-.0088 1.4029.0351 2.0989-.0616zm15.2618 4.1186c.0472-.0143.1418-.044.1902-.0594.1517-.3133.2429-.6552.431-.951.6453-1.1072 1.8702-1.8185 3.1378-1.9252.0099.0363.0297.1089.0396.1441.1221-.2738.4684-.1342.7059-.1705.0176 3.6239.0022 7.2478.0077 10.8716-.0143.5552-.0099 1.1622-.3387 1.6371-.2067.2837-.5684.3321-.885.4013.0198.0473.0571.1441.0769.1924 1.4612.0363 2.9257.0011 4.388.0165.0154-.0527.0451-.1583.0594-.2111-.4541-.0527-.8917-.3199-1.028-.7762-.1616-.6619-.1913-1.3479-.1847-2.0263.0066-3.3677-.011-6.7343.0088-10.102 1.3138-.0956 2.6379.4244 3.5319 1.3887.384.4475.606 1.0005.786 1.5557.054-.0165.164-.0517.217-.0681-.299-1.4338-.597-2.8675-.896-4.3012-.574.5047-1.4158.2683-2.114.3266-2.0889-.0011-4.1768.0033-6.2658-.0022-.3464-.0385-.7664-.0286-1.005-.3266-.2814 1.4634-.6168 2.9169-.863 4.3858zm21.9828-4.1703c.08-.0473.132-.1968.244-.1792.289 1.3326.553 2.6706.833 4.0054.058.1506-.027.2869-.09.4167-.246-.5322-.412-1.1149-.8-1.569-.877-1.0181-2.242-1.5557-3.579-1.4612-.012 3.2919 0 6.5837-.006 9.8744-.006.7806-.026 1.581.208 2.3342.139.3804.509.6014.892.675.18.0198.092.3167-.096.2254-1.437.0066-2.874.0055-4.309 0 .003-.387.517-.2177.722-.4496.478-.4519.458-1.1798.49-1.7878.004-3.6238.011-7.2477-.003-10.8716-1.227-.0659-2.499.3398-3.355 1.2446-.513.4871-.776 1.1545-1.028 1.7988-.072-.132-.145-.2749-.082-.4299.27-1.3359.533-2.6728.81-4.0076.314.2716.749.2716 1.14.2947 2.014.0022 4.027-.0011 6.041 0 .656-.0055 1.322.0439 1.968-.1133zm6.67-.1374c-2.23.3386-3.991 2.1022-4.899 4.0911-1.074 2.4727-.769 5.4358.634 7.7172.366.6036.892 1.083 1.412 1.5525.963.8312 2.221 1.2303 3.465 1.3996 2.276.1242 4.58-1.0434 5.819-2.9609.744-1.0324 1.089-2.2902 1.214-3.5425.099-1.2237-.025-2.4727-.41-3.6414-.564-1.6987-1.733-3.2303-3.331-4.0692-1.225-.5134-2.582-.7531-3.904-.5464zm.34 1.1072c.912-.132 1.796.2891 2.505.8246 1.628 1.3622 2.412 3.4908 2.607 5.5556.127 1.1258-.092 2.2572-.445 3.3237-.301.8785-.885 1.6481-1.616 2.2165-.726.5476-1.697.6553-2.575.5157-1.075-.1968-1.983-.9258-2.588-1.8131-.94-1.3655-1.386-3.0268-1.471-4.6694-.047-1.3293.072-2.7223.719-3.9108.587-1.0544 1.593-2.0077 2.864-2.0428zm27.744-.8598c.34-.0451.791-.0066.971-.3662.217 1.3326.438 2.6652.699 3.99.011.1199.143.586-.111.464-.24-.7773-.743-1.4579-1.359-1.9812-.914-.6663-2.02-1.1116-3.166-1.0995-.522.0055-1.118-.0726-1.547.2902-.335.3508-.252.884-.314 1.3271-.025 2.0901-.005 4.1813-.011 6.2714.02 1.3699-.079 2.752.153 4.1087.086.2573.152.5575.391.7235.22.1858.506.2507.778.3287-.045.221-.281.1451-.441.1616-1.398-.0154-2.798.0154-4.195-.0165.08-.3892.629-.2297.845-.5211.393-.5937.425-1.3392.464-2.0307.001-2.9697.001-5.9394 0-8.9091-.027-.7366-.072-1.5128-.456-2.1615-.212-.3002-.641-.2826-.873-.553 2.723-.0561 5.449-.0022 8.172-.0264zm10.764-.0704c.151-.0198.235-.1616.339-.2584.27 1.4491.659 2.8751.962 4.3187-.057.0132-.172.0385-.229.0506-.347-.9851-.954-1.9592-1.935-2.4089-1.119-.5805-2.42-.5443-3.644-.4882-.298 0-.698.1177-.681.4871-.053 1.0797-.009 2.1637-.02 3.2456 1.142.0297 2.325.0407 3.4.4794 1.069.398 2.129.9367 2.889 1.813.578.6201.983 1.4095 1.069 2.2594.126 1.1776-.042 2.4914-.858 3.4062-.706.8081-1.775 1.1632-2.807 1.3073-.914.1297-1.839.0538-2.757.0736-1.411-.0033-2.821.0066-4.231-.0055-.086-.2693.211-.2319.354-.3144.385-.1231.636-.4937.733-.8719.13-.5596.115-1.139.115-1.7097-.002-2.9323.001-5.8657-.002-8.799-.027-.5696-.052-1.1523-.227-1.6987-.158-.4508-.662-.5696-1.052-.7389.325-.1099.673-.0692 1.012-.0736 1.976.0011 3.952-.0011 5.93 0 .546-.0022 1.098.0231 1.64-.0737zm-5.208 5.9646c-.006 2.0615 0 4.1242-.004 6.1857-.009.3166.049.6289.117.9389.609.232 1.274.21 1.913.1583 1.022-.1055 2.085-.5244 2.705-1.3798.505-.7465.516-1.6998.419-2.564-.13-1.0819-.893-1.9845-1.796-2.542-1.002-.6168-2.2-.785-3.354-.7971zM28.3532 20.6695c1.2984-.022 2.5991.0011 3.8987-.0121.2287-.0044.4596.0044.6795.0747-.2936.1518-.6476.232-.8631.5014-.3705.4431-.398 1.05-.42 1.5997-.0055 1.6591-.0066 3.3182.0011 4.9762 1.2072-1.2721 2.4892-2.4727 3.6909-3.7514.6047-.5838 1.1721-1.2083 1.7988-1.769-.0286-.3793-.0693-.7718-.2485-1.1116-.2485-.3067-.7543-.1825-.9742-.5046 1.5129-.0209 3.028-.0165 4.542-.0022-.1309.2308-.4277.2462-.6223.4024-.3706.2825-.5828.7531-.6048 1.2127.0099 3.4094-.0044 6.8189.0077 10.2295.0407.6597.0704 1.4249.5828 1.9142.1781.1891.6432.0923.6102.4408-1.4986.0022-2.9972.0066-4.4947-.0022-.0088-.3639.4552-.2363.6531-.4332.5168-.4441.5091-1.1896.5487-1.8141.0098-2.9411.0043-5.8822.0021-8.8232-.9972.9026-1.8932 1.9097-2.8498 2.8542-.8917.8862-1.7371 1.8174-2.6409 2.6915-.0033 1.1643-.022 2.3298.0099 3.4941.0561.5948.1099 1.3579.6992 1.6778.1716.1221.5531.0341.497.3529-1.5096.0022-3.0191.0165-4.5287-.0066.0462-.3672.5387-.2319.73-.4881.475-.53.4596-1.2875.4959-1.9549.0044-2.9719.0055-5.9437 0-8.9156-.0473-.7421-.0055-1.5415-.3639-2.2154-.1639-.3541-.6399-.3156-.8367-.6179zm13.319.0494c.1858-.0461.3771-.0824.5717-.0692 1.3578.0439 2.7201-.033 4.0768.0406-.2045.1738-.4738.2265-.7025.3552-.3442.3606-.5794.8444-.5761 1.3512-.022.7114.0417 1.4227.0186 2.1341 1.8219-.0044 3.6437-.0044 5.4666.0011-.0495-.9785.1495-2.0043-.1957-2.9455-.1484-.4497-.597-.6344-.9928-.8092-.0066-.022-.0198-.0649-.0264-.0869 1.1632-.0692 2.3331-.0098 3.4996-.0296.3683.0198.7587-.066 1.1083.0868-.3661.1452-.8367.2199-1.0313.6069-.2375.7642-.2562 1.5745-.2419 2.3683.0011 3.1544 0 6.3099 0 9.4642.0495.5003.2672 1.0478.7158 1.3161.1737.1232.5266.055.4991.3628-1.5019.0165-3.0026.0022-4.5045.0066-.0077-.0516-.0242-.1561-.033-.2078.2738-.0802.6124-.0912.796-.3408.3376-.409.3958-.9675.4101-1.4766.0022-2.4056-.0077-4.8102.0055-7.2147-1.8262-.0088-3.6524-.0022-5.4787-.0022.0044 2.5178.0033 5.0356 0 7.5533.022.4618.2155.9379.5652 1.2501.1946.2024.6245.0836.6663.4277-1.5063.0242-3.0126.0066-4.5189.0088-.0066-.0516-.0187-.155-.0253-.2067.4376-.0593.862-.3155 1.0061-.7509.1396-.486.2023-.9939.1935-1.4997-.0066-3.1522.0055-6.3044-.0055-9.4554-.0572-.5773-.0429-1.2205-.4079-1.7053-.2067-.2892-.5608-.3782-.8587-.5333zm13.3168.0418c.1033-.0561.2111-.1176.3375-.1 2.4628.0011 4.9256-.0011 7.3885.0011.63.0044 1.316.1429 1.769.6157.5421.4991.575 1.3556.3112 2.0054-.4123.9642-1.3172 1.581-2.1902 2.0912-.1187.1132-.4453.0693-.4189.2815 1.3931.4507 2.6651 1.3677 3.4183 2.6376.6432.9807.7443 2.2297.5178 3.3578-.2111 1.0588-.8927 2.0318-1.868 2.5167-.9708.5398-2.0989.6992-3.195.7058-2.0044-.0044-4.0087.0033-6.013-.0044l.0263-.2034c.2683-.0901.585-.0978.7983-.3078.2484-.2518.3551-.6047.4079-.9456.1121-.7685.0703-1.5458.078-2.3187-.0044-2.5299.0077-5.0609-.0066-7.5908-.0835-.7213-.0648-1.4843-.3782-2.155-.1814-.3826-.6201-.4716-.9829-.5871zm3.5865 1.2391c-.1716.3672-.199.7817-.2122 1.1809v3.095c1.1533-.4156 2.3176-.873 3.2896-1.6371.4618-.3222.8675-.7785.962-1.3513.0825-.4508.0869-1.0533-.3441-1.3304-.8774-.3452-1.8394-.3067-2.7641-.2803-.3243.0341-.6861.0923-.9312.3232zm-.2133 5.3061c.0033 1.3721 0 2.7454.0011 4.1186 0 .641-.0341 1.2952.1297 1.9219.1803.4475.7256.4705 1.1368.509 1.0094.0407 2.0869-.0385 2.973-.5695 1.3183-.9906 1.7658-2.8685 1.2028-4.3935-.3881-1.2743-1.4447-2.2385-2.62-2.797-.9356.4145-1.8845.8026-2.8234 1.2105zm70.3728-6.5738c.336-.1066.694-.0681 1.043-.0714 2.052 0 4.102.0011 6.154-.0011.744-.0077 1.548.1231 2.132.6223.51.4771.587 1.2281.56 1.8889.003.9598-.539 1.824-1.221 2.4595-1.44 1.4029-3.404 2.0373-5.265 2.6684-.001 1.4062-.005 2.8124.003 4.2187.029.5717.118 1.1555.365 1.6767.146.3386.558.3617.865.4584.018.0517.054.1573.073.2089-1.533.0242-3.066.0066-4.598.0088-.005-.0527-.016-.1572-.022-.21.356-.0593.772-.1473.952-.5035.423-.9225.348-1.9659.354-2.9554.001-2.1616.001-4.3231 0-6.4847-.011-1.1137.077-2.2726-.342-3.3303-.171-.4222-.697-.464-1.053-.6542zm3.954 1.0885c-.44.2606-.529.8136-.546 1.2809-.017 1.3875.003 2.7762-.006 4.1648 1.005-.4068 2.011-.8444 2.903-1.4667.636-.4541 1.241-1.0555 1.423-1.8405.131-.5662.112-1.2336-.278-1.6965-.496-.4123-1.153-.5948-1.791-.597-.571-.0022-1.159-.0352-1.705.155zm32.676-1.0907c.436-.1275.902-.0494 1.351-.0692 1 .0165 2-.0352 3 .0296-.193.1694-.449.3013-.523.563-.212.6201.077 1.2468.249 1.8372.976 3.2522 1.984 6.4957 2.962 9.7479.182.6839.373 1.5173 1.098 1.8218.025.0506.078.1529.106.2034-1.433.0187-2.864.0055-4.297.0066-.008-.0538-.02-.1605-.025-.2144.35-.1319.699-.3595.791-.7498.27-.9774.028-2.0516-.554-2.8718-.935-1.4546-2.586-2.454-4.325-2.5123-.339 1.0181-.64 2.0483-.971 3.0675-.201.6597-.438 1.3304-.4 2.0296.012.3882.242.7873.62.9203.163.0715.405.0748.373.3276-1.27-.0011-2.541.0297-3.809-.0143.008-.0439.021-.1341.029-.1792.458-.1605.844-.4958 1.056-.9356.544-1.0423.808-2.199 1.192-3.3028.853-2.6388 1.703-5.2764 2.552-7.9151.111-.4112.275-.8433.179-1.2721-.063-.3167-.426-.3716-.654-.5179zm1.781 1.58c-.6 1.702-1.141 3.4237-1.766 5.1158.551.0506 1.123.0605 1.642.2727.808.3276 1.571.7883 2.175 1.4216-.68-2.2704-1.34-4.5485-2.051-6.8101zm7.143-1.5635c.242-.1187.518-.0835.781-.0879 1.028.0044 2.054.0033 3.081.0011.298.0066.608-.0407.89.0846-.382.1792-.923.2584-1.056.7312-.338.9807-.181 2.0373-.22 3.0532 1.832.0011 3.663-.0055 5.494.0044-.05-1.0335.158-2.144-.29-3.1137-.183-.4519-.763-.4211-1.044-.7487 1.494-.0154 2.991-.0165 4.485-.0011.054.0219.16.0659.215.0879-.376.1221-.844.1946-1.015.6047-.505 1.1984-.295 2.5266-.339 3.7888-.001 1.7218-.001 3.4447 0 5.1664.005.807-.037 1.6162.069 2.4189-.034.6223.166 1.2962.65 1.7107.173.176.585.0957.574.42-1.538.0099-3.08.0077-4.617.0011.013-.0516.041-.1561.054-.2078.297-.0934.666-.1077.874-.3782.338-.4782.384-1.0863.387-1.6547-.003-2.3331.005-4.6672-.003-7.0014-1.833.0066-3.666-.0011-5.497.0055.012 2.5134-.002 5.0279.004 7.5413.06.4749.176 1.0346.604 1.3182.199.1452.606.0352.611.3716-1.546.0176-3.09.0132-4.633.0022-.054-.2627.223-.2232.37-.2902.372-.0803.682-.3837.792-.7455.254-1.0049.142-2.0472.166-3.0719v-6.4913c-.028-.9125.109-1.8801-.268-2.741-.192-.4639-.679-.642-1.119-.7784zm13.29.0231c.15-.1616.382-.0978.58-.1121 1.331.0198 2.661-.0253 3.99.0242-.203.2693-.62.21-.833.4738-.392.4662-.375 1.1171-.404 1.6899-.016 1.0181-.005 2.0362-.004 3.0543.882-.7916 1.75-1.5997 2.572-2.454.436-.4815.937-.918 1.272-1.4832.18-.3012.237-.6915.07-1.0115-.164-.0725-.367-.1033-.445-.2814 1.371-.022 2.743.0011 4.117-.0121.188.0066.416-.0341.568.1176-.828.1517-1.634.4596-2.293.9961-.951.7916-1.833 1.6624-2.7 2.5453 1.298 1.4469 2.343 3.1159 3.138 4.8883.734 1.7217 1.103 3.6161 2.164 5.1873.151.2539.648.1143.628.476-1.391.0077-2.786.0077-4.178 0 .002-.0593.004-.1781.006-.2374.173-.0517.347-.1188.516-.199.305-.5641.089-1.2106-.054-1.79-.711-2.5332-2.052-4.841-3.616-6.9377-.552.5773-1.242 1.0335-1.751 1.6416-.048 1.5414-.005 3.0873-.02 4.6309.02.6861-.115 1.4249.261 2.0461.164.3948.567.5927.972.6509-.032.0473-.095.1419-.125.1891-1.453.0264-2.907 0-4.362.0121-.006-.0571-.02-.1737-.024-.232.343-.0835.669-.2594.868-.5651.323-.4903.31-1.1061.321-1.6712-.001-3.0818.004-6.1625-.001-9.2443-.025-.5883-.07-1.193-.277-1.7493-.171-.3815-.589-.5211-.956-.6432z"/>
</svg>
