<svg xmlns="http://www.w3.org/2000/svg" viewBox="0 0 200 50">
	<path fill="#503629" d="M36.6935 13.629h-8.8064v.7339h2.8226v14.5645c0 4.3468-1.242 5.5887-3.9516 5.5887-1.0162.1129-1.9194-.6209-2.0323-1.6371v-.3387c0-1.5806-.1129-2.5403-1.5242-2.5403s-1.6371 1.4677-1.6371 1.9194c0 2.0322.9032 3.5564 4.9113 3.5564 4.7984 0 7.3387-1.5806 7.3387-6.9435V14.3629H36.75l-.0565-.7339zM37.8226 32.0322c-.4516 0-.9033.1694-1.242.5081s-.508.7903-.508 1.2419.1693.9033.508 1.1855c.3387.3387.7904.5081 1.242.5081s.9032-.1694 1.2419-.5081.5081-.7339.5081-1.1855c0-.9596-.7339-1.6935-1.6936-1.6935h-.0564M57.4113 32.0323c-.9032 0-1.6936.7339-1.75 1.6371v.0564c0 .4516.2258.9033.5645 1.1855.3387.3387.7903.5081 1.2419.5081s.9033-.1694 1.242-.5081c.3387-.2822.508-.7339.508-1.1855s-.1693-.9032-.508-1.2419-.7339-.5081-1.1855-.5081M51.3145 13.629H42.621v.7339h2.5403v16.5968c.0564.6774 0 1.3548-.2258 2.0322-.2258.4516-.621.8468-1.0726.9597-.5081.1694-1.0726.2823-1.6371.2823v.6774h9.2016v-.6774c-.621 0-1.1855-.0565-1.75-.2258-.5081-.1694-.9032-.5081-1.0726-.9597-.1693-.4516-.2822-.9032-.2258-1.3549v-5.758h2.3145c6.6613 0 8.5242-2.6532 8.5242-6.2097 0-3.5564-1.1854-6.0968-7.9032-6.0968zm-1.2419 11.4597h-1.75V14.4758h1.5806c5.1371 0 6.3791 2.0887 6.3791 5.4758 0 3.3871-2.0323 5.25-6.0968 5.25M86.7097 32.9354c-.1694-.4516-.2258-.9597-.1694-1.4677V14.3628h2.3145v-.6774H83.379L76.7177 29.887c0 .0565-.0564.1129-.1129.1129-.0564 0-.1129-.0564-.1693-.1129 0 0-6.8871-16.0322-6.9436-16.2016h-6.0968v.6774h2.6533v18.0081c0 .3952-.1694.7339-.3387 1.0726-.2258.3387-.5646.5645-.9597.6774-.3952.1129-.8468.1129-1.242.1129v.6774h6.0404v-.6774c-.3952 0-.7339-.0564-1.0726-.1693-.4516-.1129-.7903-.3388-1.0726-.6775-.2258-.3387-.3387-.6774-.3952-1.0725l-.0564-1.5242V16.5645h.3387s7.8468 18.1209 7.8468 18.3467h.7338l7.3952-18.1774h.1694v14.621c0 .508-.0565 1.0161-.1694 1.5242-.1693.4516-.5081.7903-.9032.9597-.5081.1693-1.0161.2822-1.5242.2822v.6774H89.25v-.6774c-.5081 0-1.0726-.1129-1.5807-.2822-.4516-.2259-.7903-.621-.9596-1.0726M98.0564 19.3306c-4.5161 0-7.3387 2.9355-7.3387 8.129 0 7.621 5.9275 8.0726 7.2258 8.0726 2.5405 0 7.3385-1.5807 7.3385-8.242-.056-5.1935-3.105-7.9596-7.2256-7.9596zM98 34.5725c-3.3871 0-3.8952-1.6935-3.8952-7.0564 0-4.1775.2823-7.3388 3.8952-7.3388 3.895 0 3.952 3.2742 3.952 7 0 5.4758-.96 7.3952-3.952 7.3952zM117.024 19.5564c-2.709 0-3.5 1.5806-4.29 3.2177h-.226s-.395-2.3145-.508-3.0483h-5.25v.7903h2.823v10.5564c.056.7339-.057 1.4678-.339 2.1452-.282.5081-.96.7903-1.976.7903h-.452v.9597h8.694v-.9597h-.395c-1.129 0-1.637-.2258-1.92-.7339-.282-.6774-.451-1.4677-.338-2.2016v-5.4758c0-1.8064 1.411-3.9516 3.048-3.9516 1.694 0 1.694 2.6532 3.67 1.5807 1.016-.621.79-3.6694-2.541-3.6694zM151.742 33.3307c-.96 0-1.242-.5081-1.298-1.3548V23.621c.112-1.129-.283-2.3145-1.073-3.1613-.79-.7903-2.371-1.2419-4.629-1.2419-1.694-.1129-3.331.2823-4.798 1.1855-.847.508-1.355 1.4677-1.355 2.4274-.057.3952.113.7903.395 1.0726.282.2258.621.3387.96.3387.846 0 1.354-.4516 1.524-1.5807 0-.6774.282-1.2983.677-1.8064.565-.5081 1.355-.7903 2.089-.6774.847-.1129 1.75.2258 2.314.9032.452.6774.621 1.4113.621 2.2016v2.6532c-2.766.2258-9.371.7904-9.088 5.7581.225 2.0887 2.032 3.6693 4.121 3.6129 1.975-.0565 3.838-.9597 5.08-2.5403.283 1.4113 1.524 2.3709 2.936 2.3145 2.032 0 3.274-1.0161 3.387-3.4436h-.508c-.113 1.1291-.791 1.6936-1.355 1.6936zm-4.573-1.6371v.1694c-.903 1.0161-2.145 1.637-3.5 1.8064-1.298.0565-2.427-.9597-2.483-2.3145v-.3387c0-2.8226 3.895-4.2339 6.04-4.2339l-.057 4.9113zM169.581 33.2177c-.395-.6774-.565-1.4678-.565-2.2581v-6.8871c.057-.9032-.113-1.75-.508-2.5403-.339-.621-.903-1.1855-1.524-1.5242-.734-.3387-1.524-.5081-2.315-.5081-2.088-.0564-4.008 1.0726-4.967 2.9355h-.339l-.565-2.7661h-4.685v.7903h2.371v10.5c0 .621-.057 1.1855-.169 1.8065-.113.4516-.452.8467-.904.9597-.395.1693-.846.2258-1.298.2258v.9596h7.508v-.9596c-.565.0564-1.129-.2258-1.524-.621-.339-.6774-.508-1.4113-.395-2.1452v-4.008c-.17-1.4678.056-2.9355.564-4.3468.621-1.0726 1.807-1.75 3.049-1.6936.846-.1129 1.693.3388 2.088 1.0726.395 1.1291.565 2.371.508 3.5565v4.9677c.057.621.057 1.242 0 1.8629-.056.4516-.282.8468-.677 1.0726-.395.2258-.79.3387-1.186.3387v.9597h7.283v-.9597c-.904-.1129-1.468-.3387-1.75-.7903zM135.54 18.7097c-.508.2258-.846.6774-.903 1.1855-.113.6209-.339.9596-.677 1.0725-.339.1129-.734.0565-1.073-.0564-1.355-1.1855-3.161-1.75-4.911-1.6371-3.105-.2258-5.871 2.0887-6.097 5.1935v.6775c0 3.2742 1.242 4.7419 3.952 5.3629.169 0 .169.2258 0 .2258-2.315.3951-4.347 1.0726-4.347 3.3306 0 1.0726.677 2.0323 1.693 2.371 1.468.508 2.992.7339 4.517.6774 1.185 0 2.427.0565 3.612.1694.678.0564 1.355.2822 1.976.6774.508.4516.791 1.0726.734 1.75 0 1.0726-.677 2.0322-1.637 2.4274-1.298.621-2.71.9032-4.121.8468-1.298.1129-2.653-.1694-3.782-.8468-.678-.5081-1.016-1.3548-.791-2.1452.226-.6209-.112-1.3548-.79-1.5806h-.169c-.508-.0565-1.016.1693-1.299.5645-.225.3952-.395.9032-.338 1.4113.056 1.4677 1.072 2.6532 2.54 2.9355 1.355.4516 2.766.6209 4.177.6209 1.638.0565 3.275-.2258 4.799-.9032 1.806-.7903 3.048-2.5403 3.048-4.5161.057-.9597-.226-1.8629-.734-2.6532-1.524-2.0887-3.669-1.8065-8.524-2.0323-2.314 0-2.766-.3952-2.766-1.0726 0-1.0726.847-1.4677 4.177-1.9758 3.331-.508 6.436-1.75 6.436-5.758 0-.9597-.169-1.9758-.621-2.8791.621.1694 1.298.1694 1.919 0 .565-.1693 1.073-.5645 1.355-1.0726.282-.3951.395-.9596.282-1.4112-.282-.8468-.846-1.1855-1.637-.9597zm-7.508 11.1209c-1.976 0-3.161-.7338-3.161-4.7419 0-2.8226.96-4.9113 3.161-4.9113 2.484 0 3.162 1.9194 3.162 4.8549-.057 4.1774-1.355 4.7983-3.162 4.7983z"/>
</svg>
