<svg xmlns="http://www.w3.org/2000/svg" viewBox="0 0 200 50">
	<path fill="#768086" d="M58.9 19.8h4.9v17.9h8.7V19.8h4.9v-7.7H58.9zM26.1 30H20v7.7h8.7c.4 0 .8 0 1.2-.1 1.3-.2 2.5-.8 3.4-1.8.9-1 1.4-2.3 1.4-3.6V12.1h-8.6V30zM57.8 28.5c0-.7 0-1.3-.1-2H55c0 .6.1 1.2.1 1.8 0 .6-.1 1.1-.1 1.7l-10-8.4c-1.3-1.1-1.8-1.8-1.8-3.6 0-3.4 2.2-3.4 4.9-3.4 3.8 0 4.3.7 4.3 3.9v1.4h2.9v-1.4c0-5.4-2.6-6.4-7.2-6.4-5 0-7.8 1-7.8 6 0 2.9.6 3.6 2.3 5-3.2.9-5.2.8-5.2 7 0 8 4 7.9 9.7 7.9 4.1 0 8.1 0 9.5-3.3l3.8 3.1 1.6-2-4.5-3.8c.3-1.1.4-2.3.3-3.5zm-10.5 6.8c-6 0-6.8-.4-6.8-5.4 0-4.1.4-4.5 4.1-5.4l10 8.3c-.7 2.8-4.6 2.5-7.3 2.5zM101.1 24.3c2.4-1 3-2.8 3-5.4 0-2.2-.3-3.9-1.2-5.1-.9-1.2-2.4-1.7-4.8-1.7H85v25.6h13.6c2.2 0 3.7-.6 4.7-1.9s1.4-3 1.4-5.3c0-3-.5-5.5-3.6-6.2zm-12.9-9.4h8.5c3 0 4.1.3 4.2 3.6 0 3.9-1.1 4.5-4.5 4.6h-8.2v-8.2zm8.9 20h-8.9V26h9.5c3.5 0 3.9 1.5 3.9 4.8 0 3.8-1.4 4-4.5 4.1zM115.2 12.1l-9.3 25.6h3.3l2-5.4h12.6l2 5.4h3.2l-9.5-25.6h-4.3zM112 29.7l5.4-14.7 5.5 14.7H112zM150.1 35l-14-22.9h-5v25.6h3.2V15l14 22.7h4.9V12.1h-3.1zM166.9 24.5l11.7-12.4h-4.1l-10.3 11.1h-2.3V12.1h-3.2v25.6h3.2V26h2.3l11.5 11.7h4.3z"/>
</svg>
