<svg viewBox="0 0 200 50" xmlns="http://www.w3.org/2000/svg">
	<path fill="#00008B" d="M20.8731 12H5.73356v1.3116H19.1868c.5621 0 1.1617.2623 1.1804 1.0868h.5059V12Zm-1.4427 2.136H3.09162v1.3116H17.7441c.5621 0 1.1617.2623 1.1804 1.0868h.5059V14.136ZM8.7315 21.7995l5.059 9.1999c.2249.431.6746.6184 1.0493.6184v.5621H9.36856v-.5621h.28106l-3.91606-7.1389v6.202c0 .2998 0 .787.74948.787v.712H0v-.5809c.580851.0188.918119-.5434.918119-.8057v-13.116c0-.356 0-.7307-.693274-.8056v-.6184H6.40809v.6746c-.67453.0187-.67453.5246-.67453.712v5.1527l6.18324-5.1153c.2998-.2623.3935-.8244-.6558-.8619v-.5621h4.0098v.5434c-.644.0716-.9123.3139-1.2613.6291-.0166.015-.0333.0301-.0503.0454l-5.2277 4.3283Zm-6.46431-4.778h-.82443v14.1466h.82443V17.0215Zm8.13191 14.5588-4.17838-7.7197.61833-.5059 4.34705 8.2256h-.787Zm6.839-10.98h-6.2207l-1.59263 1.3491h5.48993c.9369 0 1.8175.8619 2.0611 1.8925-.5808-.5809-1.1991-.9931-1.9112-.9931H9.8932l.7495 1.2929 1.8175.0187c1.9861.0187 2.3234 1.4427 2.3234 2.3983 0 .9744-.5247 1.8175-1.1242 2.6045l.1686.3185c.9181-.6932 1.5926-2.0798 1.5364-3.279-.0374-1.0305-.6745-2.3421-1.78-2.5295v-.1499h.9743c1.3304 0 1.8925 1.7988 1.855 2.8481-.0749 2.0985-1.4802 3.0729-2.3796 3.4663l.2998.4872c1.0305-.3185 1.9487-.6933 3.204-1.8175 1.7426-.6183 3.0542-1.7426 2.998-3.8786-.0375-1.7051-.9181-4.0285-3.2978-4.0285Zm-.6745.5621h-1.5177v.1312c1.424.1124 2.6419 1.7613 2.6794 3.4851.356 1.0306.1874 2.7169-.1311 3.1666 1.9299-1.068 1.4802-6.7829-1.0306-6.7829Zm22.6717-2.6796H33.127l.0187.8057h.8244c.2998 0 .5247.0562.6746.1499.1499.0937.2248.2998.2248.5808v8.769c0 .281-.0749.4872-.2248.5808-.1499.0937-.3748.1499-.6746.1499h-.8244v.8245h6.1083v-.8245h-.8244c-.2998 0-.5247-.0562-.6746-.1499-.1499-.1124-.2248-.2998-.2248-.5808v-4.3845c.637 0 1.1242.075 1.4989.2436.3748.1686.6371.3935.8245.6745.1873.2811.2998.5809.3747.8619.0534.2137.1163.5509.2023 1.0119.0347.186.0732.3921.1162.6183.1499.8244.3935 1.5177.7121 2.061.3372.5434.8619.8245 1.5926.8245.5996 0 1.1617-.2436 1.6676-.7308.5247-.4871.8245-1.4053.9181-2.7731h-.8431c-.0188.4872-.0937.8994-.2624 1.2179-.1686.3186-.356.4872-.5808.4872s-.3935-.1124-.5059-.356c-.1124-.2436-.2248-.5996-.3185-1.068-.1125-.5621-.2811-1.068-.4685-1.499-.2061-.4309-.5433-.8244-1.0118-1.1804-.4684-.356-1.1242-.5621-1.9486-.6183v-.075c.8619-.2623 1.3865-.8994 1.6301-1.9299.0041-.0248.0101-.0623.018-.1125.0282-.1777.0817-.515.1694-1.0117.0937-.6371.2248-1.1055.3747-1.3866.1499-.281.3748-.4497.712-.4684h.075c.1124 0 .1686.0562.1686.1874 0 .0562-.0187.1124-.0375.1499-.0187.0562-.0562.1124-.0936.1685l-.0001.0001-.1124.1686c-.0937.1499-.1499.3186-.1499.4872 0 .2998.0937.5808.2811.8057.1874.2436.4871.356.8994.356.3372 0 .6558-.1499.9181-.4122s.3935-.6371.3935-1.1243c0-.5433-.2061-.993-.5809-1.3303-.3747-.3373-.8432-.5059-1.4053-.5059-.4871 0-.8806.1124-1.1991.3373-.3186.2248-.5434.5059-.7121.8619-.1499.356-.281.7495-.356 1.1804-.0936.4309-.1498.7681-.1873.993v.0001c-.1125.6745-.2811 1.1617-.5247 1.4802-.2436.2998-.5059.5059-.8057.5809-.2998.0749-.6932.1124-1.1804.1124h-.2811V20.038c0-.2811.075-.4872.2249-.5809.1499-.0937.3747-.1499.6745-.1499h.8245v-.8244Zm11.3359 3.8973h-4.2721v.8057h.1125c.3747 0 .6932.2436.9368.7307l3.1479 6.3894-.6933 1.6489c-.1312.2998-.2436.5246-.356.6932-.0937.1687-.2623.2624-.4684.2624-.2436 0-.3561-.075-.3561-.2436 0-.0562.0375-.1687.1312-.3748.075-.1686.1124-.2998.1124-.3934 0-.3935-.1124-.6746-.3372-.8245-.2249-.1686-.4685-.2436-.7495-.2436-.2623 0-.5059.1125-.712.3186-.2061.2061-.3186.5808-.3186 1.1242 0 .4122.1499.7495.4685 1.0493.3185.2998.7494.4497 1.2928.4497.6558 0 1.1243-.1499 1.424-.4685.2998-.3185.5622-.7494.8057-1.3303l3.2228-7.7946c.1312-.3186.2811-.5434.431-.7121.1499-.1686.3935-.2623.7495-.2623v-.8057h-3.1104v.8057h.5059c.356 0 .5434.1687.5434.4872 0 .2061-.0375.3747-.0937.5059l-1.4053 3.5038h-.0937l-1.6863-3.7661c-.0562-.1312-.0937-.2623-.0937-.3748 0-.2435.1499-.3747.4497-.3747h.4122v-.8057Zm5.7898-.1874-.0937 2.8106.712.0375c.1124-.5809.3373-1.0868.6933-1.499.356-.4122.8431-.6183 1.4427-.6183.4497 0 .787.1124 1.0306.356.2436.2248.3747.5434.3747.9556 0 .637-.1686 1.0493-.4871 1.2366-.3186.1874-.6371.2811-.9182.2811h-.8619v.7307h.6558c.431 0 .8245.1124 1.143.3373.3185.2248.4872.6558.4872 1.2741 0 .712-.1687 1.1992-.4685 1.4615-.3185.2623-.712.3935-1.1991.3935-.4685 0-.8245-.1124-1.0868-.2998s-.3935-.356-.3935-.5246c0-.075.075-.1874.2061-.3373.1312-.1499.2061-.2623.2436-.3185.0562-.1312.0937-.2249.0937-.3186 0-.2623-.0937-.5246-.2436-.7495-.1686-.2248-.4122-.3372-.7682-.3372-.3935 0-.6933.1311-.8807.3747-.1873.2436-.281.5247-.281.8619 0 .3186.1312.6746.3747 1.0306.2436.356.6558.6558 1.1992.9181.5434.2436 1.2554.3747 2.0986.3747.8806 0 1.5926-.1311 2.136-.3935.5434-.2623.9181-.5808 1.143-.9555.2248-.3748.3372-.7308.3372-1.1055 0-.4497-.2061-.8994-.5996-1.2929-.3934-.3935-1.0867-.6558-2.0798-.7682v-.1124c.5996-.0375 1.143-.2436 1.6114-.5809.4684-.3373.712-.7682.712-1.2929 0-.3185-.0937-.6183-.2998-.9368s-.5246-.5809-.9743-.787c-.4497-.2061-1.0305-.3185-1.7238-.3185-.9931 0-1.7988.2248-2.4171.712l-.3747-.5996h-.5434Zm12.1791.1874h-4.5344v.8057h.6183c.2062 0 .356.0375.4497.1124.0937.0937.1312.2249.1312.4122v5.2839c0 .2061-.0375.3373-.1312.4122-.0749.075-.2435.1124-.4497.1124h-.6183v.8057h4.5344v-.8057h-.3747c-.2061 0-.356-.0374-.4497-.1124-.075-.0937-.1312-.2248-.1312-.4122V26.521h2.492v2.492c0 .2061-.0374.3373-.1311.4123-.075.0749-.2436.1124-.4497.1124h-.3748v.8057h4.5532v-.8057h-.6184c-.2061 0-.356-.0375-.4496-.1124-.0937-.075-.1312-.2249-.1312-.4123v-5.3026c0-.2061.0375-.3372.1312-.4122.0749-.0749.2435-.1124.4496-.1124h.6184v-.8057h-4.5532v.8057h.3748c.2061 0 .356.0375.4497.1124.0937.0937.1311.2249.1311.4122v2.0236h-2.492v-2.0236c0-.2061.0375-.3372.1312-.4122.0937-.0749.2436-.1124.4497-.1124h.3747v-.8057Zm13.7531 5.771-.6558-.3935c-.3561.5996-.7308 1.0493-1.0493 1.3491-.356.3186-.8057.4872-1.3491.4872s-.9931-.2249-1.3678-.6558c-.3748-.431-.5621-1.1992-.5621-2.3047h5.0215v-.4309c0-.8057-.1499-1.5177-.4684-2.1361-.3185-.6183-.7495-1.1055-1.2929-1.4615-.5433-.356-1.1617-.5246-1.8362-.5246-.787 0-1.4802.2061-2.0798.6183-.5996.4122-1.068.9556-1.4053 1.6302-.3373.6745-.5059 1.3865-.5059 2.1547 0 .5247.0937 1.0493.2623 1.5365.1686.4871.431.9368.7682 1.3303.3373.3935.7495.712 1.2554.9369.4872.2248 1.0493.3372 1.6676.3372.5247 0 .9931-.0749 1.3866-.2248.3934-.1499.7682-.3935 1.1242-.7682.356-.356.712-.8432 1.0868-1.4803Zm-2.7919-2.3234h-2.2297v-.7307c0-.8245.1312-1.4053.431-1.7238.281-.3186.6183-.4872.993-.4872.4497 0 .7495.2623.8807.7682.1311.5059.1873.9744.1873 1.424 0 .2998-.0187.5059-.0374.5996-.0188.0937-.0937.1499-.2249.1499Zm8.2818-3.4476h-4.4032v.8057h.6183c.2061 0 .356.0375.4497.1124.0937.0937.1312.2249.1312.4122v5.2839c0 .2061-.0375.3373-.1312.4122-.0749.075-.2436.1124-.4497.1124h-.6183v.8057h6.1645c.7308 0 1.2929.0562 1.7051.1874.4122.1312.712.3747.9181.7495.2061.3747.3373.9368.3935 1.7051h.8244v-3.4289h-.8806c-.2061 0-.356-.0375-.4497-.1124-.0937-.075-.1312-.2249-.1312-.4123v-5.3026c0-.2061.0375-.3372.1312-.4122.0749-.0749.2436-.1124.4497-.1124h.6183v-.8057H88.72v.8057h.2436c.2061 0 .356.0375.4497.1124.0936.0937.1311.2249.1311.4122v5.3026c0 .2061-.0375.3373-.1311.4123-.075.0749-.2436.1124-.4497.1124h-1.4241c-.2061 0-.356-.0375-.4496-.1124-.0937-.0937-.1312-.2249-.1312-.4123v-5.3026c0-.2061.0375-.3372.1312-.4122.0936-.0749.2435-.1124.4496-.1124h.2436v-.8057Zm10.7926 0h-4.3095v.8057h.3934c.2062 0 .356.0375.4497.1124.0937.0937.1312.2249.1312.4122v5.3214c0 .2061-.0375.3372-.1312.4122-.0749.0749-.2435.1124-.4497.1124h-.3934v.8057h4.3095v-.8057h-.3747c-.2061 0-.356-.0375-.4497-.1124-.0937-.075-.1312-.2249-.1312-.4122v-2.4921h.9743c.4497 0 .7495.0937.9182.2624.1686.1686.2997.5059.3747 1.0118.0937.5995.1877 1.0867.2807 1.4427.094.356.281.6746.544.9743.262.2811.637.431 1.124.431.337 0 .656-.1124.937-.3373.281-.2248.506-.5246.656-.9181.168-.4122.243-.8244.243-1.2928h-.618c-.113.8431-.319 1.2553-.6 1.2553-.206 0-.356-.1124-.431-.356-.075-.2435-.131-.5621-.187-.9556-.15-1.1617-.899-1.7987-2.211-1.8924v-.1312c.2061-.0749.3747-.2061.468-.3747.094-.1686.188-.431.263-.8057v-.0011c.094-.3741.15-.5986.168-.6922.244-.8244.562-1.2366.956-1.2366.169 0 .244.0749.244.2248 0 .0188-.038.0937-.132.2249-.131.1686-.187.3747-.187.6183 0 .2248.094.4309.281.5996.187.1686.412.2436.656.2436.356 0 .618-.1312.787-.3748.168-.2623.243-.5246.243-.8057 0-.4684-.131-.8431-.412-1.1242-.281-.2811-.656-.431-1.105-.431-1.05 0-1.724.5809-2.0614 1.7426-.0111.0222-.0354.1235-.0767.296-.0284.1184-.0649.2704-.1107.4535-.1124.4497-.1873.7495-.2435.8619-.0375.1311-.1312.2061-.2436.2623-.1124.0562-.2998.075-.5434.075h-.9556v-2.0799c0-.2061.0375-.3372.1312-.4122.0749-.0749.2436-.1124.4497-.1124h.3747v-.8057Zm14.0903-4.1409h-.431c-.244.3373-.468.5621-.674.6183-.244.1312-.525.1874-.825.1874-.094 0-.281 0-.543-.0187-.263-.0188-.469-.0188-.637-.0188-.787 0-1.556.2249-2.324.6371-.468.2623-.899.637-1.274 1.1617-.375.5246-.693 1.1992-.918 2.0236-.244.8244-.356 1.78-.356 2.8855 0 .9181.131 1.7051.375 2.3421.243.6371.562 1.143.974 1.5177.394.3748.825.6371 1.293.787.468.1686.937.2436 1.405.2436.656 0 1.256-.1124 1.762-.356.505-.2436.936-.5809 1.292-.9931.338-.4309.6-.8994.787-1.424.188-.5246.281-1.068.281-1.6301.019-.787-.168-1.499-.524-2.1361-.356-.637-.843-1.1242-1.48-1.4802-.638-.356-1.331-.5246-2.099-.5246-.712 0-1.293.1499-1.743.4497-.449.2998-.88.7307-1.292 1.3116h-.113c.094-1.0681.394-1.7988.9-2.1923.487-.3935 1.068-.637 1.705-.7307.207-.0296.554-.0475 1.032-.0722.127-.0066.264-.0136.41-.0215.694-.0188 1.237-.0937 1.612-.2061.374-.1125.674-.356.937-.712.262-.3748.412-.9182.468-1.6489Zm-2.867 11.0549c-.206.2998-.562.4684-1.03.5059-.469 0-.806-.1312-1.05-.431-.224-.281-.374-.637-.431-1.0867-.056-.4497-.093-1.0306-.093-1.7426v-.8244c0-.8619.112-1.5552.337-2.0611.225-.5059.656-.7682 1.274-.7682.262 0 .525.1124.787.3185s.45.5621.562 1.0306c.075.3747.131 1.0492.131 2.0423 0 .8057-.018 1.4428-.075 1.8925-.056.4497-.187.8244-.412 1.1242Zm8.507-6.914h-4.347v.8057h.618c.206 0 .356.0375.45.1124.094.0937.131.2249.131.4122v5.3026c0 .2061-.056.3373-.131.4123-.075.0749-.244.1124-.45.1124h-.618v.8057h4.347v-.8057h-.169c-.206 0-.356-.0375-.449-.1124-.094-.075-.132-.2249-.132-.4123v-.0562l2.492-3.8223h.038v3.8598c0 .2061-.038.3373-.131.4122-.094.075-.263.1124-.469.1124h-.168v.8057h4.347v-.8057h-.619c-.206 0-.356-.0187-.449-.1124-.094-.0937-.131-.2248-.131-.4122v-5.3026c0-.2061.037-.3373.131-.4122.093-.075.243-.1124.449-.1124h.619v-.8057h-4.347v.8057h.168c.394 0 .6.1311.6.3747v.0562l-2.473 4.0847h-.057v-3.9723c0-.2061.038-.3372.132-.4122.075-.0749.243-.1124.449-.1124h.169v-.8057Zm7.607-.1874h-.543l-.094 2.8106.712.0375c.113-.5809.337-1.0868.693-1.499.356-.4122.844-.6183 1.443-.6183.45 0 .787.1124 1.031.356.243.2248.374.5434.374.9556 0 .637-.168 1.0493-.487 1.2366-.318.1874-.637.2811-.918.2811h-.862v.7307h.656c.431 0 .824.1124 1.143.3373.319.2248.487.6558.487 1.2741 0 .712-.168 1.1992-.468 1.4615-.319.2623-.712.3935-1.199.3935-.469 0-.825-.1124-1.087-.2998-.263-.1874-.394-.356-.394-.5246 0-.075.075-.1874.206-.3373.132-.1499.207-.2623.244-.3185.056-.1312.094-.2249.094-.3186 0-.2623-.094-.5246-.244-.7495-.169-.2248-.412-.3372-.768-.3372-.394 0-.693.1311-.881.3747-.187.2436-.281.5247-.281.8619 0 .3186.131.6746.375 1.0306s.656.6558 1.199.9181c.543.2436 1.255.3747 2.099.3747.88 0 1.592-.1311 2.136-.3935.543-.2623.918-.5808 1.143-.9555.225-.3748.337-.7308.337-1.1055 0-.4497-.206-.8994-.6-1.2929-.393-.3935-1.086-.6558-2.079-.7682v-.1124c.599-.0375 1.142-.2436 1.611-.5809.468-.3373.712-.7682.712-1.2929 0-.3185-.094-.6183-.3-.9368s-.525-.5809-.974-.787c-.45-.2061-1.031-.3185-1.724-.3185-.993 0-1.799.2248-2.417.712l-.375-.5996Zm11.636.1874h-4.534v.8057h.618c.206 0 .356.0187.45.1124.093.0937.131.2249.131.4122v5.2839c0 .2061-.057.3373-.131.4122-.075.075-.244.1124-.45.1124h-.618v.8057h4.534v-.8057h-.375c-.206 0-.356-.0374-.45-.1124-.074-.0937-.131-.2248-.131-.4122V26.521h2.455v2.492c0 .2061-.038.3373-.131.4123-.075.0749-.244.1124-.45.1124h-.375v.8057h4.553v-.8057h-.618c-.206 0-.356-.0375-.45-.1124-.093-.075-.131-.2249-.131-.4123v-5.3026c0-.2061.038-.3372.131-.4122.075-.0749.244-.1124.45-.1124h.656v-.8057h-4.553v.8057h.375c.206 0 .356.0375.449.1124.094.0937.131.2249.131.4122v2.0236h-2.492v-2.0236c0-.2061.038-.3372.131-.4122.094-.0749.244-.1124.45-.1124h.375v-.8057Zm13.753 5.771-.656-.3935c-.375.5996-.731 1.0493-1.049 1.3491-.356.3186-.806.4872-1.349.4872-.544 0-.993-.2249-1.368-.6558-.375-.431-.562-1.1992-.562-2.3047h5.021v-.4309c0-.8057-.149-1.5177-.468-2.1361-.319-.6183-.749-1.1055-1.293-1.4615-.543-.356-1.162-.5246-1.836-.5246-.787 0-1.48.2061-2.08.6183-.6.4122-1.068.9556-1.405 1.6302-.337.6745-.506 1.3865-.506 2.1547 0 .5247.094 1.0493.262 1.5365.169.4871.431.9368.768 1.3303.338.3935.75.712 1.256.9369.487.2248 1.049.3372 1.667.3372.525 0 .993-.0749 1.387-.2248.393-.1499.768-.3935 1.124-.7682.356-.356.712-.8432 1.087-1.4803Zm-2.792-2.3234h-2.23v-.7307c0-.8245.132-1.4053.431-1.7238.281-.3186.619-.4872.993-.4872.45 0 .75.2623.881.7682s.187.9744.187 1.424c0 .2998-.018.5059-.037.5996s-.094.1499-.225.1499Zm11.448 2.0049-.655-.2436c-.487 1.4053-1.237 2.1173-2.23 2.1173-1.368 0-2.042-1.1242-2.042-3.3914 0-2.3796.637-3.5788 1.892-3.5788.337 0 .581.0562.768.1686.188.1125.281.2249.281.3373 0 .075-.018.1312-.056.1686-.037.0375-.112.0937-.225.1687-.374.2436-.562.5996-.562 1.068 0 .281.113.5059.319.712.206.2061.487.2998.843.2998.412 0 .731-.1312.937-.3747.206-.2624.318-.5622.318-.8994 0-.431-.131-.8245-.393-1.1805-.263-.356-.619-.6183-1.068-.8244-.45-.2061-.937-.2998-1.48-.2998-.806 0-1.518.1874-2.155.5621-.619.3748-1.124.8807-1.462 1.5177-.356.6371-.524 1.3491-.524 2.1361 0 .8619.187 1.6301.543 2.2859.356.6558.862 1.1617 1.48 1.5177.619.356 1.331.5246 2.118.5246.73 0 1.367-.1873 1.948-.5996.581-.4122 1.049-1.1429 1.405-2.1922Zm9.013-9.5934h-.431c-.243.3373-.487.5621-.674.6183-.244.1312-.525.1874-.825.1874-.094 0-.281 0-.543-.0187-.263-.0188-.469-.0188-.637-.0188-.787 0-1.555.2249-2.324.6371-.468.2623-.899.637-1.274 1.1617-.375.5246-.693 1.1992-.918 2.0236-.244.8244-.356 1.78-.356 2.8855 0 .9181.131 1.7051.375 2.3421.243.6371.562 1.143.974 1.5177.394.3748.825.6371 1.293.787.468.1686.937.2436 1.405.2436.656 0 1.256-.1124 1.762-.356.505-.2436.936-.5809 1.292-.9931.338-.4309.6-.8994.787-1.424.188-.5246.281-1.068.281-1.6301.019-.787-.168-1.499-.524-2.1361-.356-.637-.843-1.1242-1.48-1.4802-.638-.356-1.331-.5246-2.099-.5246-.712 0-1.293.1499-1.743.4497-.449.2998-.88.7307-1.292 1.3116h-.113c.094-1.0681.412-1.7988.9-2.1923.487-.3935 1.068-.637 1.705-.7307.207-.0296.554-.0475 1.032-.0722.127-.0066.264-.0136.41-.0215.694-.0188 1.237-.0937 1.612-.2061.375-.1125.674-.356.937-.712.262-.3748.412-.9182.468-1.6489Zm-2.867 11.0549c-.206.2998-.562.4684-1.03.5059-.469 0-.825-.1312-1.05-.431-.224-.281-.374-.637-.431-1.0867-.056-.4497-.093-1.0306-.093-1.7426v-.8244c0-.8619.112-1.5552.337-2.0611.225-.5059.656-.7682 1.274-.7682.263 0 .525.1124.787.3185s.45.5621.562 1.0306c.075.3747.131 1.0492.131 2.0423 0 .8057-.018 1.4428-.075 1.8925-.056.4497-.187.8244-.412 1.1242Zm13.079-.3185-.412-.2998c-.225.4122-.506.5996-.825.5996-.15 0-.243-.075-.281-.2249-.037-.1499-.056-.3747-.056-.6371v-3.4101c0-1.9487-1.087-2.923-3.242-2.923-.73 0-1.349.0937-1.873.2998-.525.2061-.9.4684-1.162.787-.244.3372-.375.6558-.375 1.0118 0 .2623.094.5059.262.7307.188.2249.45.3373.806.3373.319 0 .581-.0937.787-.2998.206-.2061.3-.4497.3-.7495 0-.1686-.038-.356-.15-.5809-.075-.1499-.112-.2435-.112-.3185 0-.1499.112-.2623.356-.356.224-.0937.449-.1499.674-.1499.544 0 .9.1499 1.087.4497.187.2998.281.5996.281.9181v1.3116c-1.18.0937-2.117.3186-2.867.6558-.731.3373-1.274.7495-1.592 1.2179-.319.4685-.488.9369-.488 1.4241 0 .281.094.5808.263.8619.168.281.431.5246.787.712.356.1873.787.281 1.293.281.356 0 .674-.0374.974-.1124.281-.0749.562-.1686.843-.3185.281-.1312.618-.3186 1.012-.5809.318.6746.824 1.0118 1.499 1.0118.824 0 1.574-.5433 2.211-1.6488Zm-3.916-2.7357V28.02c0 .2623-.075.5059-.225.7682-.131.2436-.319.4309-.562.5808-.225.1499-.469.2249-.731.2249-.581 0-.881-.431-.881-1.2929 0-.3935.113-.712.319-.9743.206-.2623.487-.4684.806-.6183.337-.1499.749-.2998 1.274-.4685Zm9.312-3.8598h-4.534v.8057h.618c.206 0 .356.0187.45.1124.093.0937.131.2249.131.4122v5.2839c0 .2061-.056.3373-.131.4122-.075.075-.244.1124-.45.1124h-.618v.8057h4.534v-.8057h-.375c-.206 0-.356-.0374-.449-.1124-.075-.0937-.132-.2248-.132-.4122V26.521h2.493v2.492c0 .2061-.057.3373-.132.4123-.075.0749-.243.1124-.449.1124h-.375v.8057h4.553v-.8057h-.618c-.206 0-.356-.0375-.45-.1124-.094-.075-.131-.2249-.131-.4123v-5.3026c0-.2061.037-.3372.131-.4122.075-.0749.244-.1124.45-.1124h.618v-.8057h-4.553v.8057h.375c.206 0 .356.0375.449.1124.094.0937.132.2249.132.4122v2.0236h-2.493v-2.0236c0-.2061.038-.3372.132-.4122.093-.0749.243-.1124.449-.1124h.375v-.8057Zm10.343 0h-4.31l-.018.8057h.393c.206 0 .356.0187.45.1124.094.0937.131.2249.131.4122v5.3214c0 .2061-.037.3372-.131.4122-.075.0749-.244.1124-.45.1124h-.393v.8057h4.309v-.8057h-.375c-.206 0-.356-.0375-.449-.1124-.094-.075-.131-.2249-.131-.4122v-2.4921h.974c.45 0 .749.0937.918.2624.169.1686.3.5059.375 1.0118.093.5995.187 1.0867.281 1.4427.094.356.281.6746.543.9743.263.2811.637.431 1.124.431.356 0 .656-.1124.937-.3373.281-.2248.506-.5246.656-.9181.169-.4122.244-.8244.244-1.2928h-.619c-.112.8431-.318 1.2553-.599 1.2553-.206 0-.356-.1124-.431-.356-.075-.2435-.131-.5621-.188-.9556-.149-1.1617-.899-1.7987-2.211-1.8924v-.1312c.207-.0749.375-.2061.469-.3747.094-.1686.187-.431.262-.8057l.001-.0022c.093-.3734.149-.5976.168-.6911.243-.8244.562-1.2366.955-1.2366.169 0 .244.0749.244.2248 0 .0188-.037.0937-.131.2249-.131.1686-.187.3747-.187.6183 0 .2248.093.4309.281.5996.187.1686.412.2436.655.2436.356 0 .619-.1312.787-.3748.188-.2623.263-.5246.263-.8057 0-.4684-.132-.8431-.413-1.1242-.281-.2811-.655-.431-1.105-.431-1.049 0-1.724.5809-2.061 1.7426-.011.0222-.036.1235-.077.2961-.028.1184-.065.2704-.111.4534-.112.4497-.187.7495-.243.8619-.038.1311-.131.2061-.244.2623-.112.0562-.299.075-.543.075h-.956v-2.0799c0-.2061.038-.3372.132-.4122.074-.0749.243-.1124.449-.1124h.375v-.8057Z"/>
</svg>