<svg viewBox="0 0 200 50" xmlns="http://www.w3.org/2000/svg">
	<path fill="#008D36" d="m113.832 36.0924 15.014-15.0144-3.176-3.1762-18.191 18.1906h6.353Zm35.418-11.7421c2.022-2.0211 3.128-4.6679 3.128-7.5072 0-2.8393-1.106-5.5341-3.128-7.5072-4.138-4.1386-10.875-4.1386-15.014 0l-4.042 4.0423L116.815 0v6.30414l13.379 13.42636 7.218-7.2185c2.406-2.4061 6.256-2.4061 8.662 0 2.406 2.3581 2.406 6.256 0 8.6622l-8.518 8.5659-7.362-7.3628-13.715 13.7151h6.352l7.315-7.3629 7.362 7.3629 11.742-11.7421ZM47.4216 48.0752v-6.7373c0-.0563-.0166-.0962-.0302-.1292-.0097-.0234-.018-.0433-.018-.0633-.024-.024-.0361-.0481-.0481-.0721-.012-.0241-.024-.0482-.0481-.0722-.0481-.0482-.0963-.0963-.1444-.0963-.0481-.0481-.0962-.0481-.1443-.0481h-.6257c-.0563 0-.1127.0165-.1594.0302-.033.0097-.0612.0179-.0812.0179-.0481 0-.1443.0481-.1925.0963-.0481.0481-.0962.0962-.1443.1925l-.1444.2887-2.1655 5.1973h-.0482l-2.0693-5.1973c0-.0705-.0258-.1151-.0585-.1718-.0119-.0207-.0248-.043-.0377-.0688 0-.0735-.0562-.119-.1042-.1578-.0148-.012-.0288-.0233-.0402-.0347-.0258-.0129-.0481-.0258-.0688-.0378-.0567-.0327-.1013-.0585-.1718-.0585-.0481-.0481-.1925-.0481-.2887-.0481h-.5775c-.0963 0-.1925.0481-.2888.0963-.0962.0481-.1443.1925-.1443.3368v6.7373s0 .0481.0481.0481c.0481.0481.0962.0481.1444.0481h.4812c.0481-.0481.0962-.0481.1444-.0481.0481 0 .0962-.0481.0962-.0481V41.7229l2.4543 6.256.0481.0482c.0241 0 .0361.012.0481.024.0121.0121.0241.0241.0482.0241.0481.0481.0962.0481.1443.0481h.385c.0481-.0481.0963-.0481.1444-.0481.0481 0 .0962-.0481.0962-.0481s.0482 0 .0482-.0482l2.5505-6.256V48.0752c.0241 0 .0361.012.0481.024.012.0121.0241.0241.0481.0241.0482.0481.0963.0481.1444.0481h.4812c.0482-.0481.0963-.0481.1444-.0481.0481 0 .0963-.0481.0963-.0481Zm38.6429-18.3831c.0481-.1925.0962-.385.0962-.5775v-.1443c-.024 0-.0361-.0121-.0481-.0241-.012-.012-.0241-.0241-.0481-.0241-.0481-.0481-.0963-.0481-.1444-.0481H85.487c-.0241 0-.0361.0121-.0481.0241-.0121.012-.0241.024-.0481.024 0 0-.0482 0-.0482.0482v.0962c0 .1444 0 .2406-.0481.3369 0 .1443-.0481.1925-.1444.2887-.0962.0963-.1925.1444-.2887.1925-.1444.0481-.2406.0481-.385.0481s-.2887 0-.385-.0481c-.0859-.0286-.1377-.0743-.1858-.1167-.0328-.0289-.0639-.0563-.1029-.0758-.0963-.0481-.1444-.1444-.1925-.2406-.0481-.0962-.0481-.2406-.0481-.3369v-.0962s0-.0481-.0481-.0481c0-.0482-.0482-.0482-.0963-.0482h-.385c-.024 0-.0481.0121-.0722.0241-.024.012-.0481.0241-.0721.0241-.0482 0-.0963 0-.0963.0481v.0963c0 .2406 0 .4331.0963.6255.0962.1925.1924.3369.3368.4813.0199.0132.0406.0273.0621.042.1352.0921.3012.2052.4673.2467.1925.0481.4331.0963.7218.0963.2888 0 .5775 0 .77-.0963.2406-.0962.385-.1925.5293-.3369.1444-.1443.2407-.2887.2888-.4812Zm.5775 6.8335v-.0481l.0481-4.9567v-.0962s0-.0482-.0481-.0482c-.0482-.0481-.0963-.0481-.1444-.0481h-.385c-.0481.0481-.0962.0481-.1444.0481-.0481 0-.0962.0482-.0962.0482 0 .024-.012.036-.0241.0481-.012.012-.024.024-.024.0481l-2.1656 2.9355c-.0962.0963-.1925.2406-.2887.385-.0481.1444-.1444.2887-.2406.4331.0481-.1444.0481-.2887.0481-.4331v-3.3205c0-.0705-.0258-.0893-.0585-.1133-.012-.0087-.0249-.0182-.0378-.0311-.0962-.0481-.1924-.0481-.3849-.0481h-.2407c-.024 0-.0481.012-.0721.0241-.0241.012-.0482.024-.0722.024-.0482 0-.0963.0482-.0963.0482v5.1491s0 .0482.0482.0482c.0481.0481.0962.0481.1443.0481h.385c0-.0481.0481-.0481.0963-.0481.0481 0 .0962-.0482.0962-.0482 0-.0204 0-.0322.0037-.0426.005-.0142.0168-.0259.0444-.0536 0 0 2.3099-3.1761 2.4062-3.3205l.2887-.4331c-.0481.1443-.0481.2887-.0481.4331v3.3686c.0241 0 .0361.012.0481.0241.012.012.0241.024.0481.024.0482.0482.0963.0482.1444.0482h.4812c.0482-.0482.0963-.0482.1444-.0482.0481 0 .0963-.0481.0963-.0481Zm-6.1117 0v-.0481s0-5.0048.0481-4.9567v-.0962s0-.0482-.0481-.0482c-.0481-.0481-.0962-.0481-.1444-.0481h-.3849c-.0482.0481-.0963.0481-.1444.0481-.0481 0-.0963.0482-.0963.0482 0 .024-.012.036-.024.0481-.012.012-.0241.024-.0241.0481l-2.1655 2.9355c-.0963.0963-.1925.2406-.2888.385-.0481.1444-.1443.2887-.2406.4331.0481-.1444.0481-.2887.0481-.4331v-3.3205c0-.0705-.0257-.0893-.0584-.1133-.012-.0087-.0249-.0182-.0378-.0311-.0962-.0481-.1925-.0481-.385-.0481h-.2406c-.0241 0-.0481.012-.0722.0241-.024.012-.0481.024-.0722.024-.0481 0-.0962.0482-.0962.0482v5.1491s.0481 0 .0481.0482c.0481.0481.0963.0481.1444.0481h.385c0-.0481.0481-.0481.0962-.0481s.0963-.0482.0963-.0482c0-.0204 0-.0322.0036-.0426.005-.0142.0168-.0259.0445-.0536 0 0 2.3099-3.1761 2.4061-3.3205l.2888-.4331c-.0481.1443-.0482.2887-.0482.4331v3.3686c.0241 0 .0361.012.0482.0241.012.012.024.024.0481.024.0481.0482.0962.0482.1444.0482h.4812c.0481-.0482.0962-.0482.1444-.0482.0481 0 .0962-.0481.0962-.0481Zm-5.6304.0481v-.3368s-.0481 0-.0481-.0482l-.5294-1.2512c-.0481-.0721-.0842-.1443-.1203-.2165-.0361-.0722-.0722-.1444-.1203-.2166-.0481-.1443-.1444-.2406-.2406-.3368-.0963-.0963-.1925-.1925-.2887-.2406l-.0001-.0001c-.0962-.0481-.1925-.0962-.3368-.1443.0962 0 .1925-.0481.2887-.0963.0963-.0481.1925-.0962.2888-.1924v-.0001c.0481-.0481.1444-.1443.2406-.2887.0621-.0932.1042-.1864.1521-.2926.0263-.0583.0544-.1204.0885-.1886l.4812-1.1069c0-.024.0121-.0481.0241-.0721.012-.0241.0241-.0482.0241-.0722v-.1444s0-.0481-.0482-.0481c-.0481-.0481-.0962-.0481-.1443-.0481h-.4813c-.024 0-.0481.012-.0722.024-.024.0121-.0481.0241-.0721.0241-.0482 0-.0963.0481-.0963.0481-.0481.0481-.0481.0481-.0481.0963l-.4812 1.1549c-.0482.1925-.0963.3369-.1925.4331-.0357.1071-.0979.1612-.1669.2213-.024.0209-.0489.0426-.0738.0675-.0481.024-.1082.0481-.1684.0721-.0601.0241-.1203.0482-.1684.0722-.0963.0482-.2406.0482-.385.0482h-.385v-2.0693l-.0481-.0482c-.0241 0-.0361-.012-.0481-.024-.0121-.0121-.0241-.0241-.0482-.0241-.0481-.0481-.0962-.0481-.1443-.0481h-.1925c-.0146 0-.0336-.0044-.0543-.0092-.0477-.0111-.1047-.0244-.1382.0092-.0481.0481-.0963.0481-.1444.0481-.0481 0-.0962.0481-.0962.0481-.0481 0-.0481.0482-.0481.0482v5.1491l.0481.0482c.024 0 .0361.012.0481.024.012.0121.0241.0241.0481.0241.0481.0481.0963.0481.1444.0481h.1925c.0146 0 .0335.0044.0543.0092.0477.0111.1046.0244.1382-.0092.0481-.0481.0962-.0481.1443-.0481.0482 0 .0963-.0481.0963-.0481.0481 0 .0481-.0482.0481-.0482v-2.2618h.385c.1444 0 .2887 0 .4331.0482.1444 0 .2406.0481.3369.1443.0792.0396.1258.1118.1934.2166.0146.0225.0301.0466.0472.0722.0241.0722.0601.1443.0962.2165.0361.0722.0722.1444.0963.2166l.5293 1.2993.0482.0481c.024 0 .0361.0121.0481.0241.012.012.024.0241.0481.0241.0481.0481.0963.0481.1444.0481h.4812c.0481-.0481.0963-.0481.1444-.0481l.0481-.0482Zm-5.2936-.7218v-.2888c-.0481-.0481-.0481-.0962-.0481-.1443 0-.0481-.0481-.0963-.0481-.0963h-.0481c-.0298 0-.0595.0184-.1006.0438-.0254.0157-.0551.0341-.0919.0525-.0963.0481-.1925.0962-.2888.1925-.1444.0962-.2887.1925-.4331.2406-.1925.0481-.3849.0962-.5774.0962s-.385 0-.5775-.0962c-.1925-.0963-.3369-.2406-.4331-.385-.1444-.1925-.2406-.385-.2888-.6256-.0481-.2406-.0962-.5294-.0962-.8662 0-.6737.0962-1.155.3369-1.4918.2406-.3369.5774-.5294 1.0105-.5294.2407 0 .4331.0481.5775.0963.1444.0481.2888.0962.385.1924.0859.0287.1377.0743.1859.1168.0328.0289.0638.0562.1028.0757.0368.0184.0665.0368.0919.0525.0411.0254.0709.0438.1006.0438.0482 0 .0963-.0481.1444-.0963.0481-.0481.0481-.1443.0481-.2887V31.9058c0-.0241-.012-.0361-.024-.0481-.0121-.0121-.0241-.0241-.0241-.0482l-.0962-.0962c0-.0481-.0963-.0963-.1925-.1444-.0963-.0481-.1925-.0962-.3369-.1443-.0722-.0241-.1444-.0361-.2166-.0482-.0721-.012-.1443-.024-.2165-.0481-.1444-.0481-.3369-.0481-.4812-.0481-.3369 0-.6256.0481-.9144.1444-.2887.0962-.5293.2406-.7218.4812s-.385.5293-.4813.8662c-.1443.3369-.1925.77-.1925 1.2512 0 .4331.0482.8181.1444 1.155.0963.2887.2406.5774.4331.8181.1444.2406.385.4331.6738.5293.2887.1444.6256.1925.9624.1925.1925 0 .385 0 .5294-.0481l.4331-.1444c.1006-.0335.2013-.0905.2856-.1382.0367-.0207.0702-.0397.0994-.0543.0563-.0564.1127-.0962.1594-.1293.0331-.0233.0612-.0432.0812-.0632.0184-.0184.0367-.0297.0524-.0394.0254-.0157.0438-.0271.0438-.0568.0481-.0481.0481-.0481.0481-.0963v-.0962Zm-4.7641 0v-.2888c-.0482-.0481-.0482-.0962-.0482-.1443 0-.0481-.0481-.0963-.0481-.0963h-.0481c-.0298 0-.0595.0184-.1006.0438-.0254.0157-.0551.0341-.0919.0525-.0963.0481-.1925.0962-.2887.1925h-.0001c-.1443.0962-.2887.1925-.4331.2406-.1924.0481-.3849.0962-.5774.0962s-.385 0-.5775-.0962c-.1925-.0963-.3369-.2406-.4331-.385-.1444-.1925-.2406-.385-.2888-.6256-.0481-.2406-.0962-.5294-.0962-.8662 0-.6737.0962-1.155.3369-1.4918.2406-.3369.5774-.5294 1.0105-.5294.2407 0 .4332.0481.5775.0963.1444.0481.2888.0962.385.1924.1444.0482.2406.1444.2887.1925.0368.0184.0665.0368.0919.0525.0412.0254.0709.0438.1006.0438.0482 0 .0963-.0481.1444-.0963.0481-.0481.0481-.1443.0481-.2887V31.9058c0-.0241-.012-.0361-.024-.0481-.0121-.0121-.0241-.0241-.0241-.0482l-.0962-.0962c0-.0481-.0963-.0963-.1925-.1444-.0963-.0481-.1925-.0962-.3369-.1443-.0722-.0241-.1444-.0361-.2166-.0482-.0721-.012-.1443-.024-.2165-.0481-.1444-.0481-.3369-.0481-.4812-.0481-.3369 0-.6256.0481-.9144.1444-.2887.0962-.5293.2406-.7218.4812s-.385.5293-.4813.8662c-.1443.3369-.1924.77-.1924 1.2512 0 .4331.0481.8181.1443 1.155.0963.2887.2406.5774.4331.8181.1444.2406.385.4331.6738.5293.2887.1444.6256.1925.9624.1925.1925 0 .385 0 .5294-.0481l.4331-.1444c.1006-.0335.2013-.0905.2856-.1382.0367-.0207.0702-.0397.0994-.0543.0563-.0564.1127-.0962.1594-.1293.0331-.0233.0613-.0432.0812-.0632.0184-.0184.0367-.0297.0524-.0394.0255-.0157.0438-.0271.0438-.0568.0482-.0481.0482-.0481.0482-.0963v-.0962Zm-6.9298-1.6362h.77l-.0963 1.0106c-.1612.2419-.3562.3824-.5285.5066-.0333.024-.0658.0474-.0971.0709-.1925.1443-.4331.1925-.6737.1925-.2887 0-.5293-.0963-.6737-.2407-.1444-.1443-.2406-.3849-.2406-.6256 0-.1443.0481-.2887.0962-.3849.0321-.0321.0588-.0642.0856-.0963.0534-.0642.1069-.1283.2032-.1925.1443-.0962.2887-.1444.4812-.1925.1925-.0481.4331-.0481.6737-.0481Zm1.6362 2.358c.0481 0 .0481-.0481.0481-.0962l-.0962-3.2724c0-.3369-.0481-.5775-.0963-.8181-.0481-.2406-.1925-.4331-.3368-.5775-.1925-.1443-.385-.2406-.6256-.3368-.2406-.0963-.5775-.1444-.9144-.1444-.1925 0-.385 0-.5774.0481-.1925.0482-.385.0963-.5294.1444-.1108.0277-.1897.0713-.2643.1126-.0549.0304-.1075.0595-.1688.0799-.0963.0481-.1925.0962-.2406.1444-.0482.0481-.0963.0962-.0963.1443v.385c0 .0241.0121.0361.0241.0481.012.0121.024.0241.024.0482l.0482.0481h.0962c.0298 0 .0595-.0184.1006-.0438.0254-.0157.0551-.0341.0919-.0525.0358-.0179.0717-.0425.11-.0687.0646-.0444.1362-.0935.2269-.1238.1443-.0962.2887-.1443.4812-.1924.1925-.0482.385-.0963.6256-.0963.1925 0 .385.0481.5294.0963.1443.0481.2406.1443.3368.2406.0963.0962.1444.2406.1925.385.0481.1443.0481.3368.0481.5293v.385h-.6737c-.385 0-.77.0481-1.0587.0962-.2887.0482-.5775.1444-.77.2888-.1925.1443-.385.3368-.4812.5293-.1444.1925-.1925.4331-.1925.7219 0 .2406.0481.4331.1444.6256.0481.1925.1925.3368.3368.4812.1444.1444.3369.2406.5294.2888h.0001c.2405.0481.4811.0962.7217.0962.3369 0 .5775-.0481.8663-.1925.2406-.0962.4812-.2887.7218-.5293v.4812c0 .0481 0 .0962.0481.0962.0241 0 .0482.0121.0722.0241.0241.012.0481.0241.0722.0241h.4812c.0564 0 .0798-.0166.0991-.0302.0137-.0097.0254-.018.0453-.018Zm-4.7642 0v-.0481c0-.0481 0-.0962-.0481-.2406v-.0481s-.0481 0-.0481-.0482l-.5294-1.2512c-.0481-.0721-.0842-.1443-.1203-.2165-.0361-.0722-.0722-.1444-.1203-.2166-.0481-.1443-.1444-.2406-.2406-.3368-.0963-.0963-.1925-.1925-.2888-.2406v-.0001c-.0962-.0481-.1925-.0962-.3368-.1443.0962 0 .1925-.0481.2887-.0963.0963-.0481.1925-.0962.2888-.1924v-.0001c.0481-.0481.1443-.1444.2406-.2887.0621-.0932.1042-.1864.1521-.2926.0263-.0583.0544-.1204.0885-.1886l.4812-1.1069c0-.024.012-.0481.0241-.0721.012-.0241.024-.0482.024-.0722v-.1444s0-.0481-.0481-.0481c-.0481-.0481-.0962-.0481-.1444-.0481h-.4812c-.024 0-.0481.012-.0722.024-.024.0121-.0481.0241-.0722.0241-.0481 0-.0962.0481-.0962.0481-.0481.0481-.0481.0481-.0481.0963l-.4813 1.1549c-.0481.1925-.0962.3369-.1925.4331-.0356.1071-.0978.1612-.1668.2213-.024.0209-.0489.0426-.0738.0675-.0481.024-.1082.0481-.1684.0721-.0601.0241-.1203.0482-.1684.0722-.0963.0482-.2406.0482-.385.0482h-.3369v-2.0693l-.0481-.0482c-.0241 0-.0361-.012-.0481-.024-.0121-.0121-.0241-.0241-.0481-.0241-.0482-.0481-.0963-.0481-.1444-.0481h-.1925c-.0146 0-.0336-.0044-.0543-.0092-.0477-.0111-.1046-.0244-.1382.0092-.0481.0481-.0962.0481-.1444.0481-.0481 0-.0962.0481-.0962.0481-.0481 0-.0481.0482-.0481.0482v5.1491l.0481.0482c.024 0 .0361.012.0481.024.012.0121.0241.0241.0481.0241.0482.0481.0963.0481.1444.0481h.1925c.0146 0 .0335.0044.0543.0092.0477.0111.1046.0244.1382-.0092.0481-.0481.0962-.0481.1444-.0481.0481 0 .0962-.0481.0962-.0481.0481 0 .0481-.0482.0481-.0482v-2.2618h.385c.1444 0 .2887 0 .4331.0482.1444 0 .2406.0481.3369.1443.0792.0396.1258.1118.1934.2166.0146.0225.0301.0466.0472.0722.0241.0722.0601.1443.0962.2165.0361.0722.0722.1444.0963.2166l.5293 1.2993.0482.0481c.024 0 .0361.0121.0481.0241.012.012.0241.0241.0481.0241.0481.0481.0963.0481.1444.0481h.2406c.0341 0 .0682.006.1001.0117.0583.0103.1094.0194.1405-.0117.0481-.0481.0963-.0481.1444-.0481l.0481-.0482Zm-7.411-2.358h.6738v1.0106c-.1613.2419-.3563.3824-.5285.5066-.0334.024-.0659.0474-.0971.0709-.1925.1443-.4331.1925-.6738.1925-.2887 0-.5293-.0963-.6737-.2407-.1444-.1443-.2406-.3849-.2406-.6256 0-.1443.0481-.2887.0962-.3849.0321-.0321.0589-.0642.0856-.0963.0535-.0642.1069-.1283.2032-.1925.1443-.0962.2887-.1444.4812-.1925.1925-.0481.4331-.0481.6737-.0481Zm1.6362 2.358c.0481 0 .0481-.0481.0481-.0962l-.0962-3.2724c0-.3369-.0481-.5775-.0962-.8181-.0482-.2406-.1925-.4331-.3369-.5775-.1925-.1443-.385-.2406-.6256-.3368-.2406-.0963-.5775-.1444-.9143-.1444h-.0001c-.1925 0-.3849 0-.5774.0481-.1925.0482-.385.0963-.5294.1444-.1108.0277-.1897.0713-.2642.1126-.055.0304-.1076.0595-.1689.0799-.0963.0481-.1925.0962-.2406.1444-.0481.0481-.0963.0962-.0963.1443v.385c0 .0241.0121.0361.0241.0481.012.0121.0241.0241.0241.0482l.0481.0481h.0962c.0298 0 .0595-.0184.1006-.0438.0254-.0157.0552-.0341.0919-.0525.0359-.0179.0717-.0425.11-.0687.0646-.0444.1363-.0935.2269-.1238.1444-.0962.2887-.1443.4812-.1924.1925-.0482.385-.0963.6256-.0963.1925 0 .385.0481.5294.0963.1444.0481.2406.1443.3368.2406.0963.0962.1444.2406.1925.385.0482.1443.0482.3368.0482.5293v.385h-.6738c-.3849 0-.7699.0481-1.0587.0962-.2887.0482-.5775.1444-.7699.2888-.1925.1443-.385.3368-.4813.5293-.1443.1925-.1925.4331-.1925.7219 0 .2406.0482.4331.1444.6256.0481.1925.1925.3368.3369.4812.1443.1444.3368.2406.5293.2888h.0001c.2406.0481.4812.0962.7218.0962.3368 0 .5774-.0481.8662-.1925.2406-.0962.4812-.2887.7218-.5293v.4812c0 .0481 0 .0962.0482.0962.024 0 .0481.0121.0721.0241.0241.012.0482.0241.0722.0241h.4813c.0563 0 .0797-.0166.099-.0302.0137-.0097.0254-.018.0453-.018Zm-4.7598-.1968c-.0157-.0254-.0341-.0551-.0525-.0919l-1.9249-3.2724 1.8768-3.1761c.0184-.0368.0367-.0665.0524-.0919.0254-.0411.0438-.0709.0438-.1006 0-.0205 0-.0322-.0037-.0427-.005-.0141-.0167-.0259-.0444-.0536 0 0-.0962-.0481-.1444-.0481h-.5293c-.0481.0482-.0963.0481-.1444.0481-.0481 0-.0962 0-.0962.0482 0 .024-.0121.0361-.0241.0481-.012.012-.0241.0241-.0241.0481l-1.5399 2.6949-1.5399-2.6949c0-.0481-.0482-.0962-.0482-.0962-.024 0-.0361-.0121-.0481-.0241-.012-.012-.0241-.0241-.0481-.0241 0-.0481-.0963-.0481-.1444-.0481h-.5775c-.0481 0-.0962 0-.1443.0481-.0482 0-.0482.0482-.0482.0963.0298.0297.0411.0595.0568.1006.0098.0254.0211.0551.0395.0919l1.8768 3.1761-1.9731 3.3205c-.0183.0368-.0367.0665-.0524.0919-.0254.0411-.0438.0709-.0438.1006 0 .0205 0 .0322.0037.0427.005.0141.0168.0259.0444.0536.0241 0 .0481.012.0722.024.0241.0121.0481.0241.0722.0241h.5293c.0482-.0481.0963-.0481.1444-.0481.0481 0 .0963-.0482.0963-.0482 0-.024.012-.0361.024-.0481.0121-.012.0241-.0241.0241-.0481l1.6362-2.8874 1.588 2.8393c0 .0481.0482.0962.0482.0962.024 0 .0361.012.0481.0241.012.012.024.024.0481.024.0481.0482.0963.0482.1444.0482h.5775c.0481 0 .0962 0 .1443-.0482.0482 0 .0482-.0481.0482-.0962 0-.0298-.0184-.0595-.0438-.1006Zm99.1772 9.0515 1.252-3.5611 1.251 3.5611h-2.503Zm4.38 2.5505c0-.0481 0-.0962-.049-.1925l-2.454-6.641c0-.0481 0-.0481-.048-.0962 0 0-.048-.0481-.096-.0481-.048-.0482-.096-.0482-.193-.0482h-.577c-.057 0-.096.0166-.129.0302-.024.0097-.044.018-.064.018-.048 0-.048 0-.096.0481 0 0-.048.0481-.048.0962l-2.406 6.641c-.048.0963-.048.1444-.048.1925 0 .0482 0 .0482.048.0963.024 0 .048.012.072.024.024.0121.048.0241.072.0241h.481c.024 0 .048-.012.073-.0241.024-.012.048-.024.072-.024.048 0 .096 0 .096-.0481 0-.0241.012-.0361.024-.0482.012-.012.024-.024.024-.0481l.578-1.7324h2.983l.626 1.7324c0 .0481.048.0963.048.0963.024 0 .036.012.048.024.012.012.024.0241.048.0241.048.0481.096.0481.145.0481h.577c.048 0 .096 0 .144-.0481.049 0 .049-.0481.049-.0963Zm-7.748-2.4543c.048.1444.096.3369.096.5294s-.048.3369-.144.6256l-.001.0001c-.096.1444-.192.2887-.288.3849-.145.0962-.289.1925-.481.2406-.193.0481-.433.0963-.722.0963h-1.203v-2.5987h1.203c.337 0 .577.0481.77.0962.192.0482.337.1444.481.2407.144.0962.241.2406.289.3849Zm.914 1.2513c.096-.2888.144-.5294.144-.8181 0-.2888-.048-.5775-.24-.77-.096-.2406-.241-.4331-.433-.6256-.193-.1444-.433-.2888-.722-.385-.289-.0962-.674-.1444-1.107-.1444h-1.299V41.771h3.128c.024 0 .036-.012.048-.024.012-.0121.024-.0241.048-.0241 0 0 .048 0 .048-.0481.048-.0481.048-.0963.048-.1444v-.385c0-.024-.012-.0481-.024-.0721-.012-.0241-.024-.0482-.024-.0722 0 0 0-.0482-.048-.0482h-3.802c-.07 0-.115.0258-.172.0585-.02.012-.043.0249-.068.0378-.049.0481-.097.1444-.097.2887v6.4004c0 .1444 0 .2406.097.2888.048.0481.144.0962.24.0962h1.733c.529 0 .962-.0962 1.299-.1925.337-.1444.577-.2887.77-.4812.192-.1925.337-.4331.433-.6737Zm-10.058-7.1704c.048-.1444.097-.3369.097-.5294 0-.0481-.049-.0962-.049-.0481-.024 0-.036-.012-.048-.024-.012-.0121-.024-.0241-.048-.0241-.048-.0481-.096-.0481-.144-.0481h-.433c-.024 0-.036.012-.048.024-.012.0121-.024.0241-.049.0241 0 0-.048 0-.048.0481v.0963c0 .0962 0 .1925-.048.2887 0 .0963-.048.1925-.144.2406l-.289.1444c-.144.0481-.241.0481-.385.0481-.144 0-.289 0-.385-.0481-.096 0-.15-.0428-.203-.0856-.027-.0213-.054-.0427-.086-.0588v-.0001c-.096-.0961-.144-.1443-.192-.2405-.048-.0962-.048-.1925-.048-.2887v-.0963c0-.0481 0-.0962-.048-.0962 0 0-.048-.0482-.097-.0482h-.385c-.024 0-.048.0121-.072.0241-.024.012-.048.0241-.072.0241 0 0-.048 0-.048.0481v.0962c0 .1925.048.385.096.5775.096.1444.193.2888.337.4331.144.1444.337.2406.529.2888.193.0481.433.0962.722.0962s.578 0 .77-.0962c.241-.0963.385-.1925.53-.3369.144-.0962.24-.2406.288-.4331Zm1.011 8.4697v-7.0741s0-.0482-.048-.0482c-.048-.0481-.096-.0481-.145-.0481h-.385c-.048.0481-.096.0481-.144.0481-.048 0-.096.0482-.096.0482s-.048 0-.048.0481l-3.08 4.6679c-.048.0722-.084.1324-.121.1925-.036.0602-.072.1203-.12.1925-.03.0906-.079.1623-.124.2269-.026.0383-.05.0742-.068.11v-5.4379c-.024 0-.036-.0121-.048-.0241-.012-.012-.025-.0241-.049-.0241-.048-.0481-.096-.0481-.144-.0481h-.481c-.024 0-.048.0121-.072.0241-.024.012-.048.024-.073.024-.048 0-.096.0482-.096.0482-.048 0-.048 0-.048.0481V48.0752s0 .0481.048.0481c.048.0481.096.0481.145.0481h.385c.048-.0481.096-.0481.144-.0481.048 0 .096-.0481.096-.0481 0-.0241.012-.0361.024-.0481.012-.0121.024-.0241.024-.0482 0 0 3.321-5.0048 3.369-5.0529.024-.0241.036-.0602.048-.0962.012-.0361.024-.0722.048-.0963.024-.0241.036-.0481.048-.0722.012-.024.024-.0481.048-.0722v5.4861c.024 0 .037.012.049.024.012.0121.024.0241.048.0241.048.0481.096.0481.144.0481h.481c.024 0 .048-.012.072-.024.025-.0121.049-.0241.073-.0241.048 0 .096-.0481.096-.0481Zm-10.443-2.6949c.048.1444.096.3368.096.5775 0 .1443-.048.2887-.096.4331-.048.1443-.144.2887-.24.4331-.097.1443-.289.2406-.482.3368-.192.0963-.529.1444-.962.1444h-.963v-2.743h.915c.385 0 .722.0481.914.0962.023.0091.045.0177.066.0261.202.0801.333.1319.463.2627.145.0962.241.2406.289.4331Zm.914 1.2993c.097-.2406.145-.5293.145-.8181 0-.3368-.048-.6256-.096-.9143-.145-.2888-.289-.4813-.53-.6738-.192-.1443-.481-.2887-.77-.3849-.337-.0963-.722-.1444-1.251-.1444h-1.011v-2.743c-.024 0-.036-.0121-.048-.0241-.012-.012-.024-.0241-.048-.0241-.048-.0481-.096-.0481-.144-.0481h-.481c-.024 0-.048.0121-.073.0241-.024.012-.048.024-.072.024-.048 0-.096.0482-.096.0482-.048 0-.048 0-.048.0481v6.641c0 .0962 0 .1444.048.1925.048.0962.048.0962.096.1444 0 0 .048.0481.097.0481h1.636c.577 0 1.058-.0481 1.395-.1925.337-.0963.626-.2888.818-.4812.193-.2407.337-.4813.433-.7219Zm2.214 1.3956v-.0963h.048v-6.9778c-.024 0-.036-.0121-.048-.0241-.012-.012-.024-.0241-.048-.0241-.048-.0481-.096-.0481-.144-.0481h-.482c-.024 0-.048.0121-.072.0241-.024.012-.048.024-.072.024-.048 0-.096.0482-.096.0482-.048 0-.048 0-.048.0481V48.0752c.024 0 .036.012.048.024.012.0121.024.0241.048.0241.048.0481.096.0481.144.0481h.482c.024 0 .048-.012.072-.024.024-.0121.048-.0241.072-.0241.048 0 .096-.0481.096-.0481Zm-8.614 0V40.9529c-.024 0-.036-.012-.048-.024-.012-.012-.024-.0241-.048-.0241-.048-.0481-.096-.0481-.145-.0481h-.481c-.048.0481-.096.0481-.144.0481-.048 0-.096.0481-.096.0481v2.9837h-3.273v-2.9837c-.024 0-.036-.012-.048-.024-.012-.012-.024-.0241-.048-.0241-.048-.0481-.096-.0481-.144-.0481h-.482c-.048.0481-.096.0481-.144.0481-.048 0-.096.0481-.096.0481v7.0742c.024 0 .036.012.048.024.012.012.024.0241.048.0241.021.0204.032.0322.046.039.02.0091.043.0091.098.0091h.482c.048-.0481.096-.0481.144-.0481.048 0 .096-.0481.096-.0481V44.7547h3.273v3.3205c.024 0 .036.012.048.024.012.0121.024.0241.048.0241.048.0481.096.0481.144.0481h.481c.049-.0481.097-.0481.145-.0481.048 0 .096-.0481.096-.0481Zm-7.507-2.6949c.048.1444.096.3368.096.5775 0 .1443-.048.2887-.096.4331-.048.1443-.144.2887-.241.4331-.096.1443-.288.2406-.481.3368-.192.0963-.529.1444-.962.1444h-1.059v-2.743h1.01c.385 0 .722.0481.915.0962.022.0091.044.0177.065.0261.203.0801.333.1319.464.2627.145.0962.241.2406.289.4331Zm.914 1.2993c.096-.2406.145-.5293.145-.8181 0-.3368-.049-.6737-.145-.9143-.144-.2888-.288-.4813-.529-.6738-.241-.1443-.529-.2887-.818-.3849-.289-.0963-.722-.1444-1.251-.1444h-1.059v-2.743c-.024 0-.036-.0121-.048-.0241-.012-.012-.024-.0241-.048-.0241-.048-.0481-.097-.0481-.145-.0481h-.481c-.024 0-.048.0121-.072.0241-.024.012-.048.024-.072.024-.048 0-.097.0482-.097.0482-.048 0-.048 0-.048.0481v6.6891c0 .0963 0 .1444.048.1925.049.0963.049.0963.097.1444 0 0 .048.0481.096.0481h1.732c.626 0 1.107-.0481 1.444-.1925.337-.1444.626-.3369.818-.5293.193-.2407.337-.4813.433-.7219Zm-6.545 1.3956v-6.641c0-.1444-.048-.2406-.096-.2888-.048-.0481-.144-.0962-.24-.0962h-3.1765c-.0963 0-.1925.0481-.2406.0962-.0482.0482-.0963.1925-.0963.3369-.0962.8181-.1925 1.5881-.2887 2.2137-.0963.6256-.1925 1.1549-.2888 1.588-.0962.4331-.1924.77-.2887 1.0587-.0962.2407-.2406.4813-.3369.6256-.0962.1444-.2406.2407-.3368.2888-.0963.0481-.2406.0962-.385.0962h-.0963c0 .0241-.012.0361-.024.0482-.012.012-.0241.024-.0241.0481-.0481.0481-.0481.0962-.0481.1443V48.0271c0 .024.012.0481.0241.0721.012.0241.024.0482.024.0722.0241 0 .0361.0121.0481.0241.0121.012.0241.024.0482.024h.0962c.2406 0 .5294 0 .7219-.0962s.3849-.2406.5774-.4331c.1444-.1925.2888-.4331.4332-.77.1443-.3368.2887-.7218.3849-1.2031.1444-.4812.2407-1.0105.3369-1.6843.0962-.6737.1925-1.3955.2887-2.2618h2.0212V48.0752c.024 0 .036.012.048.024.012.0121.024.0241.048.0241.048.0481.097.0481.145.0481h.481c.024 0 .048-.012.072-.024.024-.0121.048-.0241.072-.0241.048 0 .096-.0481.096-.0481Zm-10.5385-2.6468 1.2512-3.5611 1.2512 3.5611h-2.5024Zm4.3792 2.5505c0-.0481 0-.0962-.0481-.1925l-2.4543-6.641c0-.0481 0-.0481-.0481-.0962 0 0-.0481-.0481-.0963-.0481-.0481-.0482-.0962-.0482-.1925-.0482h-.5774c-.0564 0-.0963.0166-.1293.0302-.0234.0097-.0433.018-.0632.018-.0482 0-.0963.0481-.0963.0481s-.0481.0481-.0481.0962l-2.4062 6.641c-.0481.0963-.0481.1444-.0481.1925 0 .0482 0 .0482.0481.0963.0241 0 .0482.012.0722.024.0241.0121.0481.0241.0722.0241h.4812c.0241 0 .0482-.012.0722-.0241.0241-.012.0482-.024.0722-.024.0481 0 .0963 0 .0963-.0481 0-.0241.012-.0361.024-.0482.0121-.012.0241-.024.0241-.0481l.5775-1.7324h2.9836l.6256 1.7324c0 .0481.0481.0963.0481.0963.0241 0 .0361.012.0481.024.0121.0121.0241.0241.0482.0241.0481.0481.0962.0481.1443.0481h.5775c.0481 0 .0963 0 .1444-.0481.0481 0 .0481-.0481.0481-.0963Zm-7.3147.0963v-.0963l-.0963-6.641c0-.1443-.0481-.2406-.0962-.2887-.0481-.0481-.1444-.0963-.2406-.0963h-4.4755c-.0962 0-.1925.0482-.2406.0963-.0481.0481-.0962.1444-.0962.2887v6.7373c.024 0 .036.012.0481.024.012.0121.024.0241.0481.0241.0481.0481.0962.0481.1444.0481h.4812c.0241 0 .0481-.012.0722-.024.024-.0121.0481-.0241.0722-.0241.0481 0 .0962-.0481.0962-.0481.0481-.0481.0481-.0481.0481-.0963V41.771h3.2243v6.2079c0 .0482.0481.0963.0481.0963.0241 0 .0361.012.0481.024.0121.0121.0241.0241.0482.0241.0481.0481.0962.0481.1443.0481h.4813c.024 0 .0481-.012.0721-.024.0241-.0121.0482-.0241.0722-.0241.0482 0 .0963-.0481.0963-.0481Zm-7.0741 0v-7.0741s0-.0482-.0481-.0482c-.0482-.0481-.0963-.0481-.1444-.0481h-.385c-.0481.0481-.0963.0481-.1444.0481-.0481 0-.0962.0482-.0962.0482s-.0481 0-.0481.0481l-3.0799 4.6679c-.0481.0722-.0842.1324-.1203.1925-.0361.0602-.0722.1203-.1203.1925-.0303.0906-.0794.1623-.1237.2269-.0263.0383-.0509.0742-.0688.11v-5.4379c-.0241 0-.0361-.0121-.0482-.0241-.012-.012-.024-.0241-.0481-.0241-.0481-.0481-.0962-.0481-.1444-.0481h-.4812c-.024 0-.0481.0121-.0722.0241-.024.012-.0481.024-.0722.024-.0481 0-.0962.0482-.0962.0482-.0481 0-.0481 0-.0481.0481V48.0752s0 .0481.0481.0481c.0481.0481.0962.0481.1444.0481h.385c.0481-.0481.0962-.0481.1443-.0481.0481 0 .0963-.0481.0963-.0481 0-.0241.012-.0361.024-.0481.0121-.0121.0241-.0241.0241-.0482 0 0 3.3205-5.0048 3.3686-5.0529.0241-.0241.0361-.0602.0481-.0962.0121-.0361.0241-.0722.0482-.0963.024-.0241.0361-.0481.0481-.0722.012-.024.024-.0481.0481-.0722v5.4861c.0241 0 .0361.012.0481.024.0121.0121.0241.0241.0482.0241.0481.0481.0962.0481.1443.0481h.4813c.024 0 .0481-.012.0721-.024.0241-.0121.0482-.0241.0722-.0241.0481 0 .0963-.0481.0963-.0481Zm-6.5929 1.8287v-.0482l.0481-2.358c0-.0962 0-.1444-.0481-.1925 0-.0481-.0481-.0481-.1444-.0481h-.7218v-6.256c-.0241 0-.0361-.0121-.0481-.0241-.0121-.012-.0241-.0241-.0482-.0241-.0481-.0481-.0962-.0481-.1443-.0481h-.4813c-.024 0-.0481.0121-.0722.0241-.024.012-.0481.024-.0721.024-.0482 0-.0963.0482-.0963.0482v6.256h-3.2242v-6.256c-.0241 0-.0361-.0121-.0482-.0241-.012-.012-.024-.0241-.0481-.0241-.0481-.0481-.0962-.0481-.1444-.0481h-.4812c-.0241 0-.0481.0121-.0722.0241-.024.012-.0481.024-.0722.024-.0481 0-.0962.0482-.0962.0482v6.7372c0 .1444.0481.2406.0962.2888.0482.0481.1444.0962.2407.0962h4.9085v1.7806s0 .0481.0481.0481c.0482.0481.0963.0481.1444.0481h.385c.0657-.0328.0866-.0433.1085-.0466.0102-.0015.0206-.0015.0359-.0015l.0481-.0481Zm-7.9403-1.8287v-7.0741s0-.0482-.0482-.0482c-.0481-.0481-.0962-.0481-.1443-.0481h-.385c-.0481.0481-.0963.0481-.1444.0481-.0481 0-.0962.0482-.0962.0482s-.0481 0-.0481.0481l-3.0799 4.6679c-.0482.0722-.0842.1324-.1203.1925-.0361.0602-.0722.1203-.1203.1925-.0303.0907-.0794.1623-.1238.2269-.0262.0383-.0508.0742-.0687.11v-5.4379c-.0241 0-.0361-.0121-.0482-.0241-.012-.012-.024-.0241-.0481-.0241-.0481-.0481-.0962-.0481-.1444-.0481h-.4812c-.0241 0-.0481.0121-.0722.0241-.024.012-.0481.024-.0722.024-.0481 0-.0962.0482-.0962.0482-.0481 0-.0481 0-.0481.0481V48.0752s0 .0481.0481.0481c.0481.0481.0962.0481.1444.0481h.3849c.0482-.0481.0963-.0481.1444-.0481.0481 0 .0963-.0481.0963-.0481 0-.0241.012-.0361.024-.0481.0121-.0121.0241-.0241.0241-.0482 0 0 3.3205-5.0048 3.3686-5.0529.0241-.0241.0361-.0602.0481-.0963.0121-.036.0241-.0721.0482-.0962.024-.0241.0361-.0481.0481-.0722.012-.024.024-.0481.0481-.0722v5.4861c.0241 0 .0361.012.0481.024.0121.0121.0241.0241.0482.0241.0481.0481.0962.0481.1443.0481h.4813c.024 0 .0481-.012.0721-.024.0241-.0121.0482-.0241.0722-.0241.0481 0 .0963-.0481.0963-.0481Zm-7.2666 0V40.9529c-.0241 0-.0361-.012-.0482-.024-.012-.012-.024-.0241-.0481-.0241-.0481-.0481-.0962-.0481-.1443-.0481h-.4813c-.0481.0481-.0962.0481-.1444.0481-.0481 0-.0962.0481-.0962.0481v2.9837h-3.2724v-2.9837c-.024 0-.0361-.012-.0481-.024-.012-.012-.0241-.0241-.0481-.0241-.0481-.0481-.0963-.0481-.1444-.0481h-.4812c-.0481.0481-.0963.0481-.1444.0481-.0481 0-.0962.0481-.0962.0481v7.0742c.024 0 .0361.012.0481.024.012.0121.024.0241.0481.0241.0205.0204.0322.0322.0464.039.0191.0091.0426.0091.098.0091h.4812c.0481-.0481.0963-.0481.1444-.0481.0481 0 .0962-.0481.0962-.0481V44.7547h3.2724v3.3205c.0241 0 .0361.012.0481.024.0121.0121.0241.0241.0481.0241.0482.0481.0963.0481.1444.0481h.4813c.0481-.0481.0962-.0481.1443-.0481.0481 0 .0963-.0481.0963-.0481Zm-8.3919-1.714c.0364-.0825.0745-.1687.1147-.2591l2.0212-4.7642c.0481-.0481.0481-.0962.0481-.1443 0-.0482 0-.0963-.0481-.0963-.0241 0-.0482-.012-.0722-.024-.0241-.0121-.0482-.0241-.0722-.0241h-.5294c-.024 0-.0481.012-.0722.0241-.024.012-.0481.024-.0721.024-.0482 0-.0963.0481-.0963.0481 0 .0241-.012.0361-.0241.0482-.012.012-.024.024-.024.0481l-1.0106 2.5505c-.0562.1967-.1288.3769-.1986.5504-.0498.1236-.0982.2438-.1383.364-.0962.2406-.1925.5293-.2887.818-.1444-.2887-2.0693-4.2829-2.0693-4.2829 0-.0481 0-.0481-.0481-.0963-.0241 0-.0361-.012-.0481-.024-.0121-.0121-.0241-.0241-.0482-.0241-.0481-.0481-.0962-.0481-.1443-.0481h-.5294c-.0481 0-.0962 0-.1444.0481-.0481 0-.0481.0481-.0481.0963 0 .0481 0 .0962.0481.1925l2.5506 5.101c-.0341.0682-.0622.1364-.0885.2003-.0479.1165-.09.2188-.1521.2809-.0963.1444-.1925.2406-.2406.2888h-.0001c-.0962.0962-.1443.1444-.2406.1444-.0481.0481-.1443.0481-.2406.0481-.0481 0-.0962-.0121-.1444-.0241-.0481-.012-.0962-.024-.1443-.024-.0241-.0241-.0602-.0361-.0963-.0482-.0361-.012-.0722-.024-.0962-.0481-.0482-.0481-.0963-.0962-.1444-.0962-.0481-.0482-.0481-.0482-.0962-.0482-.0705 0-.0894.0258-.1133.0585-.0088.012-.0182.0249-.0311.0378-.0481.0481-.0481.1444-.0481.2887v.3369c0 .0481.0481.0962.0481.0962s0 .0482.0481.0482.0963 0 .1444.0481c.0199 0 .0398.0082.0632.0179.033.0137.0729.0302.1293.0302.0481 0 .0842.012.1203.0241.0361.012.0722.024.1203.024h.2406c.2406 0 .4331-.0481.6256-.0962.1444-.0481.3369-.1444.4812-.2888.1444-.1443.2888-.3368.4331-.6256.1143-.2284.2285-.487.3666-.7996Zm108.5848 1.714c.048 0 .096-.0481.096-.0481v-.0963s0-.0481-.048.0481c0-.0481 0-.0962-.048-.1925l-.674-1.7324c-.096-.2405-.193-.433-.289-.6254v-.0002c-.048-.0722-.108-.1444-.168-.2165-.06-.0722-.121-.1444-.169-.2166-.072-.0481-.132-.0963-.192-.1444-.06-.0481-.121-.0962-.193-.1443-.144-.0963-.289-.1925-.481-.2407.192-.0481.289-.0962.433-.1925.048-.0481.108-.0962.169-.1443.06-.0481.12-.0963.168-.1444l.289-.4331c.065-.0981.108-.2184.159-.3609.025-.0673.05-.1395.081-.2166l.578-1.4918c0-.0564.016-.0962.03-.1293.01-.0233.018-.0433.018-.0632V41.0492s0-.0481-.048-.0481c-.048-.0482-.096-.0482-.145-.0482h-.481c-.024 0-.048.0121-.072.0241-.024.012-.048.0241-.072.0241-.048 0-.096 0-.096.0481 0 .0241-.012.0361-.024.0481-.012.012-.025.0241-.025.0481l-.529 1.54c-.048.2406-.144.4331-.24.5775-.097.1443-.193.2887-.337.3849-.097.0963-.289.1925-.433.2407-.145.0481-.337.0962-.578.0962h-.385v-2.9836c-.024 0-.036-.0121-.048-.0241-.012-.012-.024-.0241-.048-.0241-.048-.0481-.096-.0481-.145-.0481h-.481c-.048.0481-.096.0481-.144.0481-.048 0-.096.0482-.096.0482v7.026c.024 0 .036.012.048.024.012.012.024.0241.048.0241.048.0481.096.0481.144.0481h.481c.049-.0481.097-.0481.145-.0481.048 0 .096-.0481.096-.0481v-3.2243h.385c.193 0 .385.0481.578.0962.192.0482.336.1444.481.2407.144.1443.289.2887.385.4331v.0002c.096.1924.192.3848.288.6254l.674 1.7324c0 .0241.012.0361.024.0481.012.0121.024.0241.024.0482.024 0 .036.012.048.024.012.012.025.0241.049.0241.048.0481.096.0481.144.0481h.481c.024 0 .048-.012.072-.0241.024-.012.048-.024.073-.024Zm-6.69.0481c.049 0 .097-.0481.097-.0481V40.9529c-.024 0-.036-.012-.048-.024-.012-.012-.025-.0241-.049-.0241-.048-.0481-.096-.0481-.144-.0481h-.481c-.048.0481-.096.0481-.145.0481-.048 0-.096.0481-.096.0481v2.9837h-3.272v-2.9837c-.024 0-.036-.012-.048-.024-.012-.012-.024-.0241-.048-.0241-.049-.0481-.097-.0481-.145-.0481h-.481c-.048.0481-.096.0481-.144.0481-.048 0-.097.0481-.097.0481v7.0742c.024 0 .036.012.049.024.012.0121.024.0241.048.0241.02.0204.032.0322.046.039.019.0091.043.0091.098.0091h.481c.048-.0481.096-.0481.145-.0481.048 0 .096-.0481.096-.0481V44.7547h3.272v3.3205c.024 0 .036.012.048.024.012.0121.024.0241.048.0241.049.0481.097.0481.145.0481h.481c.048-.0481.096-.0481.144-.0481Z"/>
</svg>