<svg xmlns="http://www.w3.org/2000/svg" viewBox="0 0 200 50">
	<path fill="#231916" d="M65.7 26.9h4.9v-2.5h-4.9v-3.5h5.8l.4-2.5h-9.3v15.2h9.5V31h-6.4zM83.6 25.2c1-.7 1.5-1.7 1.5-3 0-2.2-1.8-3.8-4.5-3.8h-6.2v15.3h6.1c3.2 0 5.3-1.7 5.3-4.7 0-1.9-1-3.1-2.2-3.8zm-6.1-4.4H80c1.3 0 1.9.8 1.9 1.8 0 .8-.4 1.4-1 1.9h-3.5v-3.7zm2.7 10.3h-2.7v-4.2h2.7c1.2 0 2.2.7 2.2 2.1s-1 2.1-2.2 2.1zM60.6 18.9l-3.2-1c-1.6 4.3-5.4 7.5-5.4 7.5v-7h-3.2v15.3H52v-8l5.1 8h4.1l-5.8-8.2c0-.1 3.7-2.4 5.2-6.6zM146.1 25.7c-.1-.1-.3-.1-.5-.2.3-.2.5-.3.8-.4 2-1.4 2.3-4.3.4-5.8-.6-.5-1.5-.8-2.3-1-1.1-.2-2.2-.1-3.3-.1h-3v15.6c2.4-.1 4.7-.1 7-.3.6-.1 1.2-.4 1.7-.8 1.4-1 1.9-2.5 1.7-4.2-.2-1.5-1.2-2.3-2.5-2.8zm-4.9-5.5c.7 0 1.4-.1 2.1 0 .9.1 1.5.8 1.6 1.7.1 1.2-.4 2.2-1.3 2.5-.7.2-1.5.2-2.3.4-.1-1.6-.1-3.1-.1-4.6zm4.2 9.8c-.2 1-1 1.6-2 1.8-.7.1-1.4 0-2.2 0v-5.2c1.2-.1 2.4-.2 3.4.6s1 1.8.8 2.8zM128.5 25.7c-.1-.1-.3-.1-.5-.2.3-.2.5-.3.7-.4 2-1.4 2.3-4.3.4-5.8-.6-.5-1.5-.8-2.3-1-1.1-.2-2.2-.1-3.3-.1h-3v15.6c2.4-.1 4.7-.1 7-.3.6-.1 1.2-.4 1.7-.8 1.4-1 1.9-2.5 1.7-4.2-.1-1.5-1.1-2.3-2.4-2.8zm-4.9-5.5c.7 0 1.4-.1 2.1 0 .9.1 1.5.8 1.6 1.7.1 1.2-.4 2.2-1.3 2.5-.7.2-1.5.2-2.3.4-.1-1.6-.1-3.1-.1-4.6zm4.2 9.8c-.2 1-1 1.6-2 1.8-.7.1-1.4 0-2.2 0v-5.2c1.2-.1 2.4-.2 3.4.6s1 1.8.8 2.8zM100.7 24.3h-6.4v-6h-3v15.6h3v-7.5h6.4v7.4h3V18.3h-3v6zM115.3 30.3l-6.4-12h-3v15.6h3V22.5l6.4 11.3h3V18.3h-3v12zM179.8 27c1.5-1.7 3-3.3 4.6-5.1h-2.7c-.2 0-.5.1-.7.3l-3 3.3-.4.4s-.1 0-.1-.1v-8.3h-2.8v16.2h2.8v-5.3c.3.3.4.5.6.7 1.1 1.4 2.2 2.9 3.3 4.3.1.2.4.4.6.4.9.1 1.9 0 3 0-1.8-2.3-3.5-4.6-5.2-6.8zM159.8 29.6v-3.7c0-1.8-.9-3.1-2.5-3.8-2.1-.8-4.2-.6-6.1.6-.1.1-.3.3-.2.4.1.6.3 1.3.4 1.9.2-.2.4-.4.6-.5.6-.3 1.3-.7 1.9-.9 1.6-.4 2.8.4 3 1.9 0 .3-.1.4-.4.5-.7.1-1.3.1-2 .2-1.5.2-2.8.6-3.7 2-1.2 1.8-.8 5.4 2.7 5.7 1.4.1 2.6-.1 3.6-1.1.3.3.5.8.8.8.8.1 1.6 0 2.6 0-.8-1.2-.7-2.6-.7-4zm-3.3 1.3c-.4.9-1.4 1.3-2.3 1.1-1-.2-1.6-1.6-.9-2.6.3-.4.8-.8 1.2-1 .7-.3 1.5-.3 2.4-.5 0 1.1 0 2.1-.4 3zM171.5 23.1c-1.5-1.6-4.3-1.9-6.2-.6-.2.1-.3.2-.4.3 0-.3 0-.6-.1-.9H162v11.8h2.8c0-.3 0-.4.1-.6V27c0-.6.1-1.3.3-1.8.4-1 1.3-1.6 2.3-1.5 1 0 1.7.7 2 1.7.1.4.2 1 .2 1.4V33.7h2.9v-7.3-.7c-.1-.9-.4-1.9-1.1-2.6z"/>
	<path fill="#008375" d="M36.2 27.7c.2 1.2.1 2.4-.1 3.5-.1.8-.4 1.6-.6 2.4-.7 2.1-1.7 4.1-3.2 5.7-.3.3-.6.5-1 .4-.1 0-.2-.1-.2-.2-.1-.2 0-.4 0-.7.1-.3.1-.5.2-.8.7-2.6 1.3-5.3 1.2-8 0-.6-.1-1.2-.4-1.8-.3-.5-.8-1-1.4-1.1-.4-.1-.7 0-1 .2-.1.1-.3.1-.4.3-.2.2-.3.4-.4.7-.3.8-.2 1.6-.1 2.4.1.6 0 1.3-.6 1.7-.4.3-1 .3-1.6.1-.5-.2-.9-.6-1.2-1-.9-1.4-.9-3.4-.4-5 .1-.3.2-.6.4-.9.4-.9 1.1-1.6 1.9-2.1 1.8-1.1 4-1.1 5.9 0 1.2.7 2 1.7 2.5 3 .3.3.4.7.5 1.2zm11.4-12.6c0 .3-.3.6-.5.8-1.2 1-2.7 1.7-4.1 2.3-4.4 1.8-9.4 2.4-14.1 3-2.8.4-5.5.6-8.3.8-1 .1-2.1-.5-2.9-1-.9-.5-1.7-1.2-2.2-2.2-.4-.8-.4-1.9.3-2.6.5-.5 1.4-.4 2.1-.4.8.1 1.6.2 2.3.4 1.3.2 2.5.4 3.8.6 7.3 1 15.1.6 22-2.1.4-.1.7-.3 1.1-.4.1.1.5.4.5.8z"/>
	<path fill="#d70035" d="M27.6 12.8c0 1.5 1.2 2.7 2.8 2.7 1.5 0 2.8-1.2 2.8-2.7 0-.2-.1-.4-.1-.7-.2-.5-.5-.7-.5-1.3 0-.8-1-.8-1.6-.8-.6 0-1.3.1-1.8.4-.4.2-.8.5-1.1 1-.3.3-.5.8-.5 1.4z"/>
</svg>
