<svg xmlns="http://www.w3.org/2000/svg" viewBox="0 0 200 50">
	<path fill="#196D1F" d="M55.1394 31.9659h5.9621v.96l-4.8438.0002v2.2583h2.4606c.9415 0 1.6556.1954 2.1457.5878.4901.3924.7343.9566.7343 1.6926 0 .0364-.0006.0723-.0018.1078-.005.1539-.0211.3004-.0481.4395-.0996.5136-.3488.9258-.7468 1.2366-.5305.4143-1.2884.6214-2.2753.6214h-3.387l.0001-7.9042Zm3.3431 7.0097c.6467 0 1.1402-.1246 1.4788-.3722.238-.1741.3927-.4065.4636-.6965.0237-.0967.038-.1998.043-.3093.0013-.0291.0019-.0587.0019-.0887 0-.9566-.6618-1.4333-1.9873-1.4333h-2.2248v2.9017h2.2248v-.0017Zm6.203.8926 1.162.0003.8691-1.9756h4.2004l.8707 1.9756h1.1857l-3.5907-7.9026h-1.1183l-3.5789 7.9023Zm4.133-6.7501 1.7043 3.8718h-3.4086l1.7043-3.8718Zm14.7385-1.1522v7.9023l-1.1284.0003v-3.5217h-4.539l.0001 3.5214-1.1285.0003v-7.9024l1.1285-.0002v3.397h4.5389v-3.3968l1.1284-.0002Zm11.4845 7.9023-2.9572-4.0757 2.8226-3.8264-1.2075-.0002-2.4843 3.4324h-1.6707v-3.4324h-1.1065v7.9026h1.1065v-3.4779h1.6488l2.5617 3.4779 1.2866-.0003ZM60.7427 20.4358l-2.0783 2.1659v3.9124h-3.5587V11.0413h3.5587v7.2286l6.8531-7.2286h3.9797l-6.4101 6.8951 6.7874 8.576H65.696l-4.9533-6.0766Zm14.7891 5.3036c-1.2901-.6922-2.299-1.6472-3.0282-2.8615-.7293-1.216-1.0931-2.5836-1.0931-4.1011 0-1.5157.3638-2.8833 1.0931-4.0993.7292-1.216 1.7381-2.1693 3.0282-2.8632 1.2901-.6905 2.7385-1.0375 4.3436-1.0375 1.6067 0 3.0517.347 4.3334 1.0375 1.2834.6939 2.2922 1.6472 3.0282 2.8632.736 1.216 1.1049 2.5819 1.1049 4.0993 0 1.5175-.3689 2.8851-1.1049 4.1011-.736 1.2143-1.7465 2.1693-3.0282 2.8615-1.2817.6922-2.7267 1.0374-4.3334 1.0374-1.6051 0-3.0535-.3452-4.3436-1.0374Zm6.821-2.6392c.736-.421 1.3154-1.0071 1.7348-1.7566.4193-.7512.6299-1.6068.6299-2.5651 0-.9566-.2106-1.8105-.6299-2.5633-.4194-.7512-.9988-1.339-1.7348-1.7567-.736-.421-1.5629-.6299-2.4758-.6299-.9145 0-1.7381.2089-2.4757.6299-.736.4194-1.3154 1.0055-1.7348 1.7567-.4193.7511-.6299 1.6067-.6299 2.5633 0 .9583.2106 1.8122.6299 2.5651.4194.7495.9988 1.3356 1.7348 1.7566.736.4194 1.5612.6299 2.4757.6299.9129-.0017 1.7381-.2122 2.4758-.6299Zm30.0282-12.0589v15.4711H91.9545V11.0413h3.5588v12.5541h4.8857V11.0413h3.559v12.5541h4.864V11.0413h3.559Zm16.879 12.5995v2.8716h-11.982V11.0413h11.695v2.8749h-8.134v3.36h7.185v2.784h-7.185v3.5806h8.421Zm17.778-12.5995v15.4711H143.5V13.9583h-5.305l-.112 3.227c-.074 2.1962-.251 3.9747-.53 5.3372-.28 1.3626-.748 2.4084-1.403 3.1377-.655.7293-1.573 1.0931-2.752 1.0931-.487 0-1.076-.0809-1.769-.2426l.221-3.0265c.192.0573.404.0876.642.0876.854 0 1.45-.5053 1.79-1.5141.339-1.0089.553-2.5903.642-4.7411l.22-6.277h11.894v.0017Zm16.458 12.5995v2.8716h-11.979V11.0413h11.695v2.8749h-8.135v3.36h7.183v2.784h-7.183v3.5806h8.419Zm17.277-3.8231c.502.6332.753 1.413.753 2.341 0 1.371-.519 2.4388-1.558 3.2051-1.039.7663-2.525 1.1486-4.455 1.1486h-7.628V11.0413h7.207c1.799 0 3.199.3469 4.201 1.0391 1.002.6922 1.502 1.6792 1.502 2.9625 0 .7664-.19 1.4384-.573 2.0211-.385.5827-.923 1.0425-1.615 1.3811.943.2812 1.668.7393 2.166 1.3726Zm-9.327-2.3663h3.336c.782 0 1.371-.1583 1.77-.475.396-.3166.597-.7848.597-1.4046 0-.603-.204-1.0661-.607-1.3929-.406-.3233-.993-.485-1.76-.485h-3.336v3.7575Zm6.455 4.421c0-1.2817-.84-1.925-2.521-1.925h-3.934v3.9124h3.934c1.681 0 2.521-.6619 2.521-1.9874ZM30.9137 24.6716 44.6888 9H23.3263c-.1489 0-.2962.00758-.4413.02237-2.1768.22189-3.8821 2.06683-3.8821 4.30103V36.392c-.0061.1704-.0011.2918.0012.3451.0002.0052.0004.0098.0005.0136l.0068.0994c.0033.1044.0084.2089.0202.3116l.0118.1852.0168-.0016C19.3819 39.4118 21.1705 41 23.328 41h23.8989L30.9137 24.6716ZM21.2733 36.872l-.0102-.2189v-.1887c.0118-.2829.0826-.9128.4464-1.3962.0471-.0589.3958-.453.7915-.896l6.912-7.7996 12.3571 12.3672H23.3263c-.0669-.0001-.1332-.0034-.1985-.0098-.9799-.0953-1.7614-.8775-1.8545-1.858Zm-.0085-23.5486c0-1.1369.9247-2.0632 2.0615-2.0632h16.3638L28.549 23.9389l-7.2842 8.219V13.3234Z"/>
</svg>