<svg viewBox="0 0 200 50" xmlns="http://www.w3.org/2000/svg">
	<path fill="#1A1A18" d="M130.71 14.0187h-.448v4.0748h.523l2.131-3.1402v3.0654h.486v-4h-.524l-2.168 3.1776v-3.1776zm1.907-.9346h-.374c-.057.1127-.149.2043-.262.2617h-.635c-.032-.0844-.032-.1773 0-.2617h-.337c.01.1956.09.3812.225.5234.161.1213.358.1869.56.1869.203 0 .399-.0656.561-.1869.146-.1385.238-.3237.262-.5234zm-42.4424 2.1516c-.09.27-.124.5554-.1.839-.0048.3493.072.6949.2243 1.0093.1522.3134.3923.5757.691.755.2987.1792.6431.2676.9913.2544.337.0018.6698-.075.9719-.2243.2998-.1807.5452-.4391.7103-.7477.1572-.3393.234-.7103.2243-1.0841.0058-.3735-.0708-.7436-.2243-1.0841-.1501-.3071-.3832-.5661-.6729-.7477-.3112-.1653-.657-.2549-1.0093-.2617-.2567-.0065-.512.0399-.75.1364s-.4535.2409-.6332.4244c-.1894.2124-.3335.4612-.4234.7311zm.8346 1.9979c-.2852-.3166-.4331-.7334-.4112-1.1589-.0197-.2286.0065-.4588.0771-.6771.0707-.2183.1842-.4202.3341-.5939.126-.1305.277-.2342.444-.3049.167-.0707.3466-.1068.528-.1064.255-.0054.5046.0735.7103.2243.225.1213.3979.3208.4859.5608.1225.2701.1863.5632.1869.8598.0199.4365-.1271.8642-.4112 1.1963-.1256.1311-.2765.2355-.4435.3068-.167.0714-.3468.1081-.5284.1081-.1817 0-.3614-.0367-.5284-.1081-.1671-.0713-.318-.1757-.4436-.3068zm-3.9624-3.2149h.7102v1.757h.486c.1304-.2559.2068-.5358.2243-.8224.0573-.1995.1456-.3887.2617-.5608.0814-.1062.183-.1951.2991-.2617.1476-.0336.3009-.0336.4486 0h.3364v.4486h-.2243c-.0579-.0295-.1219-.0449-.1869-.0449-.065 0-.129.0154-.1869.0449-.1402.148-.2428.3275-.2991.5234-.0937.2211-.2063.4337-.3364.6355l-.3365.2243c.2617 0 .5234.2991.7477.7103l.8598 1.3084h-.6729l-.6729-1.0841c-.1274-.2151-.2778-.4157-.4486-.5981-.1579-.0515-.3281-.0515-.486 0v1.8691h-.5233v-4.1495zm97.9062 7.2523c.108.4548.108.9285 0 1.3832l-4.299 6.8411v-6.8037c-.044-.4808.06-.9637.299-1.3832.145-.1459.322-.2558.516-.3208.195-.0649.403-.0831.606-.053h.411v-.3365h-6.617v.3365h.411c.636 0 1.197.1121 1.197.3364.195.4465.272.9357.224 1.4206v8.1495c.053.5052-.052 1.0144-.299 1.458-.152.1325-.331.2311-.525.2891-.193.058-.397.0742-.597.0473h-.411v.3365h6.617v-.3365h-.411c-.636 0-1.197-.1495-1.197-.3738-.177-.4123-.253-.8607-.224-1.3084l4.299-6.8411v6.7289c.143.4756.143.9824 0 1.458-.178.1634-.395.2798-.63.3385-.235.0588-.481.058-.716-.0021h-.411v.3365H190v-.3365h-.449c-.2.0269-.403.0107-.597-.0473-.193-.058-.372-.1566-.524-.2891-.23-.4493-.321-.9568-.262-1.458v-8.1495c-.061-.4892.03-.9853.262-1.4206.152-.1325.331-.2311.524-.2891.194-.058.397-.0742.597-.0473H190v-.3365h-6.654v.3365h.411c.636 0 1.009.1121 1.196.3364zm-4.934-2.3551c.859.3721 1.794.5385 2.729.486h.074c.911.0549 1.822-.1118 2.655-.486.246-.09.461-.2523.614-.4656.153-.2134.239-.468.245-.7307.006-.1241-.015-.2481-.06-.3639-.045-.1158-.113-.2211-.201-.309-.18-.1453-.404-.2245-.636-.2243-.486 0-.86.2991-1.159.8972-.13.308-.335.578-.598.7851-.319.0791-.653.0791-.972 0-.307.0717-.627.0717-.934 0-.252-.1849-.436-.4477-.524-.7477-.261-.6355-.635-.9346-1.159-.9346-.232-.0068-.459.0731-.635.2243-.087.0808-.155.1794-.2.2891-.046.1097-.067.2279-.062.3464.01.2615.093.515.238.7327s.347.391.585.501zm-33.57 1.383v4.299h-.337c-.203-1-.729-1.9059-1.495-2.5794-.697-.5961-1.588-.9154-2.505-.8972-.762.0018-1.506.2366-2.131.6729-.618.4423-1.098 1.0518-1.383 1.757-.413.9683-.617 2.0129-.598 3.0654-.002 1.0234.137 2.0422.411 3.0281.239.8017.707 1.5162 1.346 2.0561.672.4876 1.488.7375 2.318.7102.741-.0042 1.471-.1836 2.131-.5233.778-.4677 1.472-1.0614 2.056-1.757v1.0467c-.601.674-1.341 1.2097-2.169 1.5701-.838.3596-1.742.538-2.654.5233-1.22.0067-2.424-.2751-3.514-.8224-.997-.5047-1.818-1.2998-2.355-2.2804-.556-.9536-.852-2.0363-.86-3.1401.008-1.1845.331-2.3455.935-3.3645.586-1.0416 1.454-1.8968 2.504-2.4673 1.022-.5924 2.184-.9021 3.365-.8972.937.0143 1.862.2045 2.729.5607.345.16.709.2732 1.084.3365.157.0571.329.0571.486 0 .178-.1957.283-.4464.299-.7103l.337-.1869zm-106.0191.2991h6.4299v.3365h-.2243c-.2177-.0313-.4395-.0176-.6517.0402-.2122.0579-.4102.1587-.5819.2962-.2015.3513-.2927.7551-.2617 1.1589v3.7383c.4974.0452.9979.0452 1.4953 0 .2875-.0715.5396-.244.7103-.486.3132-.49.529-1.0358.6355-1.6075.1745-.7128.3994-1.4124.6729-2.0934.2179-.4326.5389-.8049.9346-1.0841.4473-.2808.9673-.4238 1.4953-.4112.2513-.0143.5028.0213.7402.1047.2374.0834.4559.213.643.3812.1729.1543.3094.3449.3999.5582.0905.2133.1327.444.1235.6755.0088.1646-.0166.3293-.0745.4837-.0579.1544-.1471.2952-.262.4135-.2437.2249-.5657.3456-.8972.3364-.6729 0-1.0467-.4112-1.1215-1.1962-.0093-.0985-.0164-.1817-.0223-.2519-.0202-.2397-.0277-.3276-.0723-.355-.0258-.0158-.0642-.0113-.1247-.0042-.0482.0056-.1106.0129-.1919.0129-.1469.0078-.2893.0531-.4136.1317-.1244.0785-.2265.1877-.2967.3169-.2841.5307-.4977 1.0963-.6355 1.6823-.2243.785-.4112 1.3458-.5607 1.757-.1448.3724-.3754.7053-.6729.972.3259.0687.6324.2092.8972.4112.2324.1512.4248.3564.5607.5981.1994.2741.5732.9097 1.1215 1.9065l1.2337 2.2804c.1871.2817.4286.5231.7102.7103.2887.1866.6286.2782.972.2617v.3364h-4l-2.5047-4.785c-.151-.3599-.3664-.6893-.6355-.972-.2678-.0834-.5546-.0834-.8224 0v4c0 .5981 0 .972.3738 1.1215.4112.2232.881.3146 1.3458.2617v.3364h-6.4673v-.3364c.4869.0631.9797-.0568 1.3832-.3365.2243-.1869.3365-.5981.3365-1.271v-8.2617c.0488-.5008-.0418-1.0053-.2617-1.4579-.1869-.2617-.5608-.3738-1.1963-.3738h-.2617v-.3365zm18.2055 6.7665v3.4393c-.063.4213-.063.8497 0 1.271.122.1644.2743.304.4486.4112.384.0603.775.0603 1.1589 0v.3365h-6.1308v-.1869c.3839.0602.7749.0602 1.1588 0 .172-.0971.3142-.2393.4113-.4112.0899-.4189.0899-.8522 0-1.2711v-8.1869c.0899-.4189.0899-.8521 0-1.271-.0971-.172-.2393-.3142-.4113-.4112-.3821-.0796-.7766-.0796-1.1588 0v-.486h5.3831c1.3154-.1122 2.6306.2166 3.7384.9346.3571.258.6552.589.8745.9712.2192.3822.3546.8066.397 1.2452.0425.4385-.009.8811-.1509 1.2982s-.371.7992-.672 1.1209c-.5423.5982-1.2636 1.0047-2.0561 1.1589-.9925.1217-1.9954.1342-2.9907.0373zm0-6.056v5.3458h.4486c.3047.0458.6157.0262.9122-.0576.2966-.0838.5718-.2299.8074-.4284.2743-.2947.4855-.6424.6205-1.0217.135-.3793.191-.7822.1646-1.1839.0745-.7255-.1405-1.451-.5981-2.0187-.241-.2213-.5241-.3916-.8324-.5008-.3083-.1092-.6356-.155-.962-.1347h-.5608zm11.4767 5.0467v-5.0468l1.1962.2243c.6329-.0813 1.2737-.0813 1.9066 0 .5243.146.9929.4454 1.3458.8598.4104.5739.6677 1.243.7476 1.944h.3739v-3.7384H65.327v.3365h.3365c.3322-.0221.6621.0703.9346.2617.1617.1213.2798.2918.3364.486.0297.3482.0297.6984 0 1.0467v8.1121c.0663.3835.0663.7755 0 1.1589-.0227.0937-.0642.1818-.1221.2589-.0578.0771-.1308.1417-.2143.1897-.2686.1272-.5627.1912-.8599.1869h-.4112v.1869h10.6542l.5608-3.9252h-.2243c-.2358.9539-.7734 1.8062-1.5327 2.4299-.8038.5766-1.7781.8662-2.7664.8224h-.7476c-.2463.0549-.5015.0549-.7477 0-.1501-.0843-.2683-.2157-.3365-.3738-.0374-.4228-.0374-.8482 0-1.271V27.028c.4597-.0247.9191.0519 1.3458.2243.3543.2307.6387.5539.8225.9346.2508.5419.4027 1.1243.4486 1.7197h.3364v-6.4673h-.3364c-.0755.7714-.3317 1.5142-.7477 2.1682-.2026.2569-.4657.4597-.7658.5901-.3.1305-.6277.1846-.9538.1576h-.2243zm16.2618 2.3925l3.3644-8.1496h5.0468v.3365h-.4112c-.2976-.0085-.5927.0557-.8599.1869-.0892.0459-.1683.1092-.2325.1863-.0642.0771-.1123.1663-.1413.2623-.0673.3708-.0673.7507 0 1.1215v8.1495c-.0642.3962-.0642.8001 0 1.1963.0852.1807.2306.3261.4112.4112.2538.1311.5369.1955.8225.1869h.4112v.3365h-6.4673v-.3365h.4112c.2975.0085.5926-.0556.8598-.1869.0892-.0459.1683-.1092.2325-.1863.0643-.0771.1123-.1663.1413-.2623.0663-.3834.0663-.7754 0-1.1589v-9.1588L85.215 32.8972h-.2243L80.2804 21.757v8.7103c-.0312.3732-.0312.7483 0 1.1215.0791.304.2648.5693.5234.7477.3712.2227.8016.327 1.2336.299v.3365h-4.1869v-.3365c.2582.0606.5269.0606.785 0 .2073-.0708.3892-.2008.5234-.3738.1571-.1941.2603-.4262.2991-.6729v-8.8972c.0602-.3839.0602-.7749 0-1.1589-.0852-.1806-.2306-.326-.4112-.4112-.2554-.1268-.5374-.1908-.8225-.1869h-.4112v-.3365h5.0841l3.4767 8.1496zm20.8601-7.514c.376-.2433.825-.3489 1.271-.2991l.149-.3365H98.5981v.486c.4217-.0579.8494-.0579 1.2711 0 .1043.0456.1978.1123.2748.1959.078.0837.137.1825.174.2901.081.4449.081.9009 0 1.3458v2.5047c.016 1.2499-.059 2.4993-.225 3.7383-.086.7756-.3831 1.5127-.8593 2.1308-.4486.5234-.972.7851-1.2337.7851-.0552 0-.1038.0116-.1467.0219-.1606.0386-.2429.0583-.3019-.6201-.0747-.8598-.4486-1.3084-1.1589-1.3084-.1632-.0152-.3276.0111-.4779.0764-.1504.0654-.2817.1677-.3819.2975-.2047.2676-.3103.5978-.299.9345-.0491.2497-.0337.5078.0448.7498.0785.2421.2175.4601.4038.6334.1846.1719.4028.3038.6408.3874.238.0837.4907.1172.7423.0986.6425.0082 1.2709-.1882 1.7944-.5607.5983-.4066 1.0658-.978 1.3462-1.6449.341-.718.556-1.4894.635-2.2804v-7.4766h2.953v9.8318c.08.3317.08.6775 0 1.0093-.085.1807-.23.3261-.411.4112-.347.0523-.7.0523-1.047 0v.3365h6.206v-.3365c-.457.0525-.919-.053-1.308-.299-.259-.3841-.365-.8503-.299-1.3085v-8.5981c-.052-.422.055-.8482.299-1.1962zm6.915.0747v5.0468h.225c.326.027.654-.0271.954-.1576.3-.1304.563-.3332.765-.5901.39-.6606.621-1.403.673-2.1682h.337v6.4673h-.337c-.046-.5954-.197-1.1778-.448-1.7197-.171-.389-.459-.7155-.823-.9346-.426-.1724-.886-.249-1.346-.2243v3.4767c-.037.4228-.037.8482 0 1.271.081.1501.196.2784.337.3738.246.0549.501.0549.748 0h.747c.988.0438 1.963-.2458 2.767-.8224.76-.6161 1.288-1.4733 1.495-2.4299h.374l-.561 3.9252h-10.654v-.1869h.448c.298.0043.592-.0597.86-.1869.084-.048.157-.1126.215-.1897.057-.0771.099-.1652.122-.2589.066-.3834.066-.7754 0-1.1589V22.729c.029-.3483.029-.6985 0-1.0467-.057-.1942-.175-.3647-.337-.486-.272-.1914-.602-.2838-.934-.2617h-.449v-.3365h10.393v3.7384h-.374c-.08-.701-.338-1.3701-.748-1.944-.353-.4144-.821-.7138-1.346-.8598-.633-.0813-1.273-.0813-1.906 0l-1.197-.2243zm18.169 6.0932c-.763-.4935-1.613-.8361-2.505-1.0093.846-.1434 1.635-.5187 2.28-1.0841.429-.4256.671-1.0037.673-1.6075-.012-.5758-.194-1.1351-.523-1.6075-.353-.49-.831-.8771-1.383-1.1215-.978-.309-2.005-.4357-3.028-.3738h-5.944v.486c.381-.0866.777-.0866 1.159 0 .189.0855.347.2296.448.4112.063.4213.063.8497 0 1.271v8.1869c.063.4214.063.8497 0 1.2711-.097.1719-.239.3141-.411.4112-.396.0642-.8.0642-1.196 0v.3364h6.318c1.422.0968 2.835-.2992 4-1.1215.355-.2628.643-.607.838-1.0038.195-.3967.292-.8345.283-1.2765.01-.4148-.075-.8263-.251-1.2024-.175-.3761-.434-.7067-.758-.9659zm-5.795 3.8879v-4.4112c.72-.0373 1.442.0513 2.131.2617.466.1838.851.5286 1.084.9719.271.4653.413.9943.412 1.5327.008.4823-.108.9588-.337 1.3832-.211.3983-.536.724-.935.9346-.412.2246-.875.3404-1.345.3364-.137.0185-.277.0052-.407-.039-.131-.0442-.25-.118-.348-.2157-.098-.0976-.171-.2166-.216-.3475-.044-.1309-.057-.2702-.039-.4071zm1.907-5.4206c-.609.2272-1.257.3289-1.907.2991v-4.8972c.65-.0341 1.299.0678 1.907.2991.395.1415.727.42.934.785.223.4137.339.8761.339 1.3458 0 .4697-.116.9321-.339 1.3458-.227.3568-.551.642-.934.8224zm25.869-5.271h-6.43v.3365h.262c.635 0 1.196.1121 1.196.3738.22.4526.311.9571.262 1.4579v8.2617c0 .6729-.112 1.0841-.337 1.2711-.403.2796-.896.3995-1.383.3364v.3365h6.542v-.3365c-.465.0529-.934-.0385-1.346-.2617-.373-.1495-.373-.5233-.373-1.1215v-4c.267-.0834.554-.0834.822 0 .269.2827.484.6121.635.972l2.58 4.7477h4.112v-.3365c-.343.0165-.683-.075-.972-.2617-.282-.1871-.523-.4286-.71-.7103l-1.234-2.2803c-.548-.9969-.922-1.6324-1.121-1.9066-.136-.2416-.329-.4469-.561-.5981-.26-.2092-.569-.3505-.897-.4112.297-.2666.528-.5996.673-.972.149-.4112.336-.9719.56-1.757.138-.586.352-1.1515.636-1.6822.07-.1293.172-.2384.297-.317.124-.0785.266-.1239.413-.1316.082 0 .144-.0073.192-.013.061-.0071.099-.0116.125.0043.044.0273.052.1153.072.3551v.0019c.004.0493.009.1051.015.168l.007.0818c.075.785.449 1.1963 1.122 1.1963.165.011.33-.0134.485-.0715.154-.0581.295-.1486.412-.2654.117-.1168.207-.2573.265-.412.058-.1546.083-.3199.072-.4848.009-.2315-.033-.4622-.124-.6755-.09-.2132-.227-.4039-.4-.5581-.187-.1683-.405-.2979-.643-.3813-.237-.0834-.489-.119-.74-.1047-.528-.0126-1.048.1304-1.495.4112-.395.2697-.706.6455-.897 1.0841-.306.6727-.544 1.374-.711 2.0935-.106.5717-.322 1.1175-.635 1.6074-.146.2421-.37.4269-.636.5234-.547.0547-1.098.0547-1.645 0v-3.6262c-.044-.4451.062-.8921.299-1.271.172-.1375.37-.2383.582-.2962.213-.0578.434-.0715.652-.0402v-.3365zm16.187 2.0563c.036-.4723-.041-.9464-.224-1.3832 0-.2243-.561-.3364-1.197-.3364h-.411v-.3365h6.654v.3365h-.448c-.2-.0268-.404-.0107-.597.0473-.194.058-.372.1566-.525.2891-.231.4353-.323.9314-.261 1.4206v8.1495c-.06.5012.031 1.0088.261 1.458.153.1325.331.2311.525.2891.193.058.397.0742.597.0473h.448v.3365h-6.654v-.3365h.411c.206.0299.416.0154.616-.0427.2-.058.385-.1582.543-.2937.23-.4492.321-.9568.262-1.458v-6.7289l-4.224 6.8411c-.03.4477.047.8961.224 1.3084 0 .2243.561.3738 1.196.3738h.449v.3365h-6.804v-.3365h.411c.561 0 .972 0 1.122-.3364.247-.4436.352-.9528.299-1.458v-8.1495c.048-.4849-.029-.9741-.224-1.4206 0-.2243-.561-.3364-1.197-.3364h-.411v-.3365h6.654v.3365h-.448c-.203-.0301-.411-.0119-.606.053-.194.065-.371.1749-.516.3208-.239.4195-.343.9024-.299 1.3832v6.8037l4.374-6.8411zm-75.9252-4.6355v-4h.6729l.9346 2.8411.1869.5981c.0587-.2171.1337-.4296.2243-.6355l.972-2.8037h.7102v4h-.5233v-3.3271l-1.1589 3.3271h-.486l-.8598-3.4019v3.4019h-.6729zm4.6728-4v4h.6729v-3.4019l1.1585 3.4019h.486l1.159-3.3271v3.3271h.374v-4h-.71l-.972 2.8037c-.091.2059-.166.4184-.224.6355l-.187-.5981-.935-2.8411h-.8224zm4.7104 4v-4h2.916v.486h-2.393v1.2336h2.206v.4486h-2.206v1.3832h2.467v.4486h-2.99zm3.738-4v4l.374-.0374v-1.6075h1.009c.215.028.433.009.639-.0555.207-.0646.397-.1732.558-.3183.11-.1139.196-.2486.254-.3962.058-.1476.086-.3052.082-.4636.054-.1702.054-.3532 0-.5234-.068-.1575-.17-.298-.299-.4112l-.486-.1869h-2.131zm1.57 1.9065h-1.047l.113-1.1962h1.532c.128.0481.243.1249.337.2243.014.0866.014.175 0 .2616.042.127.043.264.003.3915-.041.1275-.12.2391-.227.3188-.231.0744-.48.0744-.711 0zm5.01 2.0935h-.337v-1.6075c-.392.1617-.81.2504-1.233.2617-.244.0773-.505.0773-.748 0-.204-.1019-.363-.2747-.449-.486-.042-.26-.042-.525 0-.785v-1.3832h.561v1.1215c0 .4486 0 .7476.224.8598.152.1432.352.2233.561.2243.375-.0127.744-.1018 1.084-.2617v-1.9439h.524l-.187 4zm.897-4v4h2.99v-.4486h-2.467v-1.3832h2.243v-.4486h-2.243v-1.2336h2.393v-.486h-2.916zm6.579 2.6167h.561c-.088.3909-.298.7441-.598 1.0093-.315.2265-.696.3446-1.084.3365-.367.0198-.732-.0714-1.047-.2617-.286-.1749-.509-.437-.635-.7477-.12-.3491-.183-.7151-.187-1.0841.011-.3233.088-.6411.224-.9346.13-.3108.37-.5634.673-.7102.292-.1782.63-.269.972-.2617.359-.0083.712.0963 1.009.299.293.2254.503.5406.598.8972h-.523c-.047-.2104-.151-.4042-.299-.5607-.191-.1508-.429-.2301-.673-.2243-.278-.0059-.552.0722-.785.2243-.189.1579-.332.3648-.411.5981-.054.259-.054.5261 0 .7851-.042.2976-.042.5996 0 .8972.088.2399.261.4394.486.5607.22.0587.452.0587.673 0 .135.0091.272-.0095.4-.0544.129-.045.247-.1155.347-.2073.152-.1541.256-.3489.299-.5607zm1.72-2.6167h-.523l.037 4.1495h.523v-1.8691c.156-.0644.331-.0644.486 0 .197.1687.361.3713.486.5981l.673 1.0841h.972l-.822-1.3084c-.225-.4112-.486-.7103-.748-.7103l.337-.2243c.13-.2018.242-.4144.336-.6355.056-.1959.159-.3754.299-.5234.058-.0295.122-.0449.187-.0449s.129.0154.187.0449v-.4486h-.299c-.147-.0436-.302-.0436-.449 0-.107.026-.207.0768-.291.1481-.085.0714-.151.1615-.195.2631-.116.1775-.216.3652-.299.5608-.07.2507-.198.4813-.374.6729h-.523v-1.757zm2.766 0h.486v3.1775l2.169-3.1775h.523v4h-.523v-3.0654l-2.131 3.1401h-.524v-4.0747zm9.608 0h2.617v.486h-2.094v1.2336h.935c.284-.0467.575-.0467.86 0 .101.0265.197.0733.281.1375.083.0642.153.1446.205.2363.134.1835.2.4084.186.6356.043.1844.043.3763 0 .5607-.096.1825-.237.337-.411.4486-.196.0494-.397.066-.597.0497.088-.005.176-.0215.261-.0497.075-.0638.135-.1443.174-.2352.039-.0908.056-.1895.05-.2882.044-.1463.044-.3022 0-.4486-.093-.0921-.209-.1567-.336-.1869h-1.608l.038 1.1589h-.486l-.075-3.7383zm1.982 3.788c-.126.0071-.253-.0094-.375-.0497h.075c.099.0249.199.0415.3.0497zm2.653-3.788l-1.532 4h.71l.448-1.1963h1.533l.449 1.1963h.635l-1.645-4h-.598zm1.01 2.3551h-1.384l.449-1.1589.224-.785c.069.292.156.5792.262.8598l.449 1.0841zm1.644 1.6449v-4h.711v1.6448h2.056v-1.6448h.561v4h-.561v-1.8692h-2.056v1.8692h-.711zm4.449-4h-.374v4.1495h.524v-1.8691c.158-.0515.328-.0515.486 0 .17.1824.321.383.448.5981l.673 1.0841H150l-.86-1.3084c-.224-.4112-.486-.7103-.747-.7103l.336-.2243c.13-.2018.243-.4144.336-.6355.072-.1892.173-.3659.3-.5234.057-.0295.121-.0449.186-.0449s.129.0154.187.0449h.225v-.4486h-.337c-.147-.0336-.301-.0336-.448 0-.116.0666-.218.1555-.299.2617-.101.1803-.189.3677-.262.5608-.118.3152-.311.5973-.561.8224h-.486v-1.757z"/>
	<path fill="#E52E0E" d="M37.1776 12.2617h-8.6355L20.4673 24l8 11.7383h8.785L29.0654 24l8.1121-11.5139v.0006l.15-.225h-.1499zM10 23.7009h8.785l8.2991-11.8878L18.8598 0h-8.785l8.2243 11.7009-1.0841 1.6075L10 23.7009z"/>
</svg>
