<svg xmlns="http://www.w3.org/2000/svg" viewBox="0 0 200 50">
	<path fill="#273981" d="M15 16.4961 32.2922 34.38H185l-17.292-17.8839H15Z"/>
	<path fill="#273981" d="m97.428 8 7.554 4.3884 7.554 4.3881V34.329l-7.554 4.3882-7.554 4.3881-7.5543-4.3881-7.5539-4.3882V16.7765l7.5539-4.3881L97.428 8Z"/>
	<path fill="#fff" d="m97.4182 8.6875 7.2608 4.2178 7.261 4.2178v16.8714l-7.261 4.2179-7.2608 4.2177-7.2611-4.2177-7.2611-4.2179V17.1231l7.2611-4.2178 7.2611-4.2178Z"/>
	<path fill="#273981" d="m109.646 18.3692-11.7656-6.7989-.5084.8892 11.281 6.5187v13.4769h1.003V18.392h-.023l.013-.0228ZM84.9608 32.7207l11.7651 6.7994.5084-.8892-11.281-6.5193V18.6353h-1.0026v14.0631h.0228l-.0127.0223Zm21.0902-2.5748c0-1.0345-.834-1.8744-1.864-1.8744-.095 0-.189.0072-.281.0213l-2.603-4.5369-2.6293-4.5826c.3037-.3336.4892-.7787.4892-1.2664 0-1.035-.8358-1.8754-1.8643-1.8754-1.029 0-1.863.8404-1.863 1.8754 0 .4815.1816.9219.4791 1.254l-2.637 4.595-2.5331 4.4144c-.0531-.0119-.1074-.0218-.1624-.029-.0804-.0109-.1623-.0166-.2456-.0166-1.029 0-1.862.8394-1.862 1.8739 0 1.0365.833 1.8754 1.862 1.8754.7639 0 1.4218-.4633 1.7092-1.1258h10.3772c.25.7398.946 1.2732 1.764 1.2732 1.03 0 1.864-.8395 1.864-1.8755Zm-13.8688-.4119c-.0589-.4192-.256-.7938-.5429-1.076l2.5164-4.3865 2.6202-4.5649c.1658.0493.3411.0753.5227.0753.1764 0 .3476-.0239.509-.0701l2.6174 4.5597 2.552 4.4493c-.3.2583-.518.6116-.608 1.0132H92.1822Z"/>
	<path fill="#333" d="M51.8032 11.3805c.6542.1323 1.118.6869 1.118 1.4407 0 .7289-.5963 1.8381-2.2523 1.8381-1.3995 0-2.4843-.6625-2.4843-2.0866h1.0184c0 .911.6874 1.2669 1.5237 1.2669.7453 0 1.1593-.3642 1.1593-1.035 0-.6293-.4304-.9442-1.1012-.9442h-.7206v-.8031h.7206c.53 0 .944-.3642.944-.9194 0-.52135-.3811-.82796-1.0433-.82796-.7287 0-1.2174.29831-1.2835 1.03496h-.9855c.0496-1.31667 1.0018-1.85467 2.2026-1.85467 1.1675 0 2.1281.48871 2.1281 1.59847 0 .3377-.1442.6479-.3492.8798-.1719.1951-.3867.3341-.5948.3871v.0249Zm-8.84-2.74967h-1.3084l-2.6086 2.67497V8.63083h-1.0267V14.527h1.0267v-1.9792l.8446-.8446 1.938 2.8238h1.2835l-2.5092-3.5445 2.3601-2.35167Zm2.1081 4.23967-.0083.0166c-.193.36-.3463.6277-.5287.7766-.0202.0166-.0407.0316-.0617.0451l-.0405.0239c-.0147.0083-.0298.0156-.0451.0218-.0667.0285-.1388.0436-.2181.0436-.3645 0-.5549-.083-.6626-.1489v.8695c.1655.0742.4307.1489.6955.1489.6542 0 1.1842-.331 1.6812-1.3416l2.2936-4.69517h-1.1178l-1.4575 3.16307-1.4244-3.16307h-1.1427l2.0371 4.23967Zm13.6582-.1738c0-1.1596-.7204-1.8132-2.0122-1.8132h-1.7639V9.52524h3.3042v-.89441h-4.3392V14.527h2.7989c1.2835 0 2.0122-.6625 2.0122-1.8303Zm-1.035.0249c0 .6376-.3396.9603-1.0187.9603h-1.7224v-1.9538h1.7058c.6459 0 1.0353.3725 1.0353.9935Zm3.6362-4.09907h1.1014l2.277 5.90447h-1.1094l-.5632-1.5652h-2.3351l-.5797 1.5652h-1.0682l2.2772-5.90447Zm-.3644 3.56047h1.7971l-.8778-2.48396-.9193 2.48396Zm9.349.0997h-1.0355c-.1074.8695-.5461 1.5071-1.5069 1.5071-1.2586 0-1.739-1.1175-1.739-2.2106 0-1.0848.5053-2.20286 1.7473-2.20286.7619 0 1.317.42231 1.4571 1.13466h1.0269c-.1987-1.36656-1.2913-2.01246-2.4674-2.01246-1.7888 0-2.8072 1.4075-2.8072 3.08066 0 1.863 1.0931 3.0884 2.7574 3.0884 1.4739 0 2.4594-.952 2.5673-2.3849Zm4.9413 0h1.0347c-.1079 1.4329-1.0933 2.3849-2.567 2.3849-1.6643 0-2.7577-1.2254-2.7577-3.0884 0-1.67316 1.0189-3.08066 2.8072-3.08066 1.1762 0 2.269.6459 2.4677 2.01246h-1.0264c-.1409-.71235-.696-1.13466-1.4579-1.13466-1.242 0-1.7473 1.11806-1.7473 2.20286 0 1.0931.4804 2.2106 1.7393 2.2106.9606 0 1.3995-.6376 1.5074-1.5071Z"/>
	<path fill="#fff" d="M131.83 19.248h2.737l4.607 12.1213h-2.788l-.952-2.7035h-4.505l-.986 2.7035h-2.72l4.607-12.1213Zm-.255 7.4801h3.213l-1.598-4.5053-1.615 4.5053Zm-80.0081-7.4629h-2.9242l-2.4308 3.893-2.414-3.893h-3.0941l3.9442 5.7799-4.2671 6.3242h3.0259l2.686-4.1992 2.6521 4.1992h3.179l-4.25-6.3242 3.893-5.7799Zm11.6958 0h-2.9919l-4.5561 8.3812h-.0508v-8.3812h-2.6521v12.1041h2.9919l4.5561-8.3984h.0511v8.3984h2.6518V19.2652Zm4.8825 12.1041h-2.5328V19.2652h3.7908l2.8221 8.3132 2.754-8.3132h3.7058v12.1041h-2.4988v-8.6022l-2.9751 8.6022h-2.057l-3.009-8.5172v8.5172Zm51.1028-7.7519v-2.1593h6.341v-2.1929h-8.976v12.1041h5.661c2.618 0 4.437-1.2239 4.437-3.8931 0-2.635-1.87-3.8588-4.301-3.8588h-3.162Zm4.879 3.8246c0 1.2923-.782 1.7514-2.057 1.7514h-2.822v-3.4853h2.805c1.19 0 2.074.4592 2.074 1.7339Zm26.31-8.1768h-2.652v4.5561h-4.947v-4.5561h-2.652v12.1041h2.652v-5.2192h4.947v5.2192h2.652V19.2652Zm9.762 0h3.349l-4.743 4.7771 5.185 7.327h-3.332l-3.672-5.4402-1.547 1.53v3.9102h-2.618V19.2652h2.618v5.0318l4.76-5.0318Z"/>
</svg>