<svg xmlns="http://www.w3.org/2000/svg" viewBox="0 0 200 50">
	<path fill="#00858B" d="M3.59766 36.3178H31.5863V12C2.52445 37.263 6.7319 33.6226 3.59766 36.3178z"/>
	<g fill="#000">
		<path d="M24.336 26.3237v1.7257c.7745.9878 3.1221 5.8294-.7256 5.2075l.0061 1.8171c5.9209.4146 4.3172-3.8599 3.2196-7.0246l2.3537.0061v7.0185l1.9086-.0244.0183-8.7137H24.336v-.0122z"/>
		<path d="M24.1777 28.0918v-1.75h-5.9636v8.8722h5.299c.8902 0 1.0671-1.3171.9573-1.9391-.0244-.2012-1.1159-3.683-1.4452-3.683h-1.7866c.0488.1524.2927.439.2927.5854.3841.7683 1.3415 2.7683.6768 3.2013h-2.1708v-5.2807h4.1404v-.0061z"/>
	</g>
	<g fill="#fff">
		<path d="M23.3789 26.7446v1.7378c.6951.8964 2.9025 5.2563.0732 5.2563l.0183 1.7744c4.2074.0061 3.2318-4.2196 1.9634-7.0368l2.5794.0061v7.0429h1.8171l-.0061-8.8173-6.4453.0366z"/>
		<path d="M22.8239 28.4395v-1.75h-6.0063v8.8722h5.1404c.8903 0 1.1891-1.3171 1.0793-1.9391-.0488-.8598-1.1463-3.5306-1.4086-3.683h-1.7866c.2622.8049 1.8476 3.2866.9696 3.8537l-2.1708-.0183v-5.3294h4.183v-.0061z"/>
	</g>
	<g fill="#D7B369">
		<path d="M31.4095 22.0977l2.244-4.0367-11.4028 2.5306c3.4026-.0732 5.9087.189 9.1588 1.5061zM13.7748 22.7809c3.3477-1.6464 6.8844-2.0793 8.4881-2.1769-.2683.0488-8.1039 2.0306-8.4881 2.1769z"/>
		<path d="M13.9394 22.689c-2.7745 1.3842-5.28065 3.4391-5.01845 5.927.47563 1.8903 2.72565 3.0854 6.73805 3.872.1219 0-.0488.2866-.0488.2622-3.1282-.2134-14.17118-.7866-15.5858579-3.3476C-.493966 27.0915 7.36603 24.6037 13.9394 22.689z"/>
	</g>
	<path fill="#58585A" d="M80.0512 21.2378l-.061 4.8173c-.0122.9085-.1097 1.689-.2987 2.3415-.1891.6524-.6647.9878-1.4208 1.0061-.0488 0-.1037 0-.1586-.0061-.0548-.0061-.1158-.0122-.1829-.0183h-.1219v1.9696c.1463.0122.2926.0244.4329.0366.1341.0061.2683.0183.3963.0305l.1281-.0122c1.0854 0 1.8659-.2866 2.3293-.8598.4635-.5732.7744-1.2013.9269-1.8781.0732-.3537.122-.7012.1402-1.0366.0122-.3354.0305-.6403.0366-.9025l.061-3.5245h2.5123v8.1344h2.3415V21.2378H80.0512zM91.4482 27.11h4.5855v-1.8537h-4.5855v-2.0611h5.2075v-1.9574h-7.5429v10.104h7.6649v-1.9574h-5.3295V27.11zM195.774 20.7562h.128c.72 0 1.263-.1158 1.628-.3537.366-.2317.622-.5.775-.7866.085-.1585.146-.3109.183-.4573.036-.1524.061-.2805.073-.3902H196.939c0 .2622-.067.4634-.201.5975-.134.1403-.281.2317-.439.2866-.086.0244-.171.0488-.25.061-.08.0122-.147.0183-.208.0183-.055 0-.128-.0122-.207-.0244-.079-.0122-.152-.0366-.232-.061-.164-.0427-.317-.1402-.451-.2744-.134-.1341-.201-.3353-.201-.6097v.0061H193.122c.024.5183.25.9817.664 1.3841.415.4025 1.08.6037 1.988.6037zM60.4594 21.2378v3.7989h-3.2806v-3.7989h-2.3415v10.0979h2.3415v-4.3355h3.2806v4.3355h2.3415V21.2378h-2.3415zM72.984 21.2378h-2.7318l-3.1098 4.1221v-4.1221H64.8008v10.0979H67.1424v-4.805l3.2196 4.805h2.8415l-3.9818-5.4819 3.7623-4.616zM49.2636 21.2378h-1.1768l-3.5123 10.0979h2.4635l.5914-1.8903h3.2684l.6098 1.8903h2.4635l-3.5245-10.0979h-1.183zm0 6.4941h-1.1585l1.1585-3.6281.0061-.0183 1.1525 3.6464h-1.1586zM174.432 21.2378v3.7989h-3.286v-3.7989h-2.342v10.0979h2.342v-4.3355h3.286v4.3355h2.342V21.2378h-2.342zM167.828 21.2442H165.097l-2.775 3.9879v-3.9879h-2.341v3.9879l-2.781-3.9879h-2.732l3.653 4.6953-3.763 5.4026h2.793l2.823-4.427v-.0122h.007l-.007.0122v4.427h2.342V26.909l2.817 4.4331h2.805l-3.762-5.4026 3.652-4.6953zM197.786 21.2378h-.128l-3.609 6.3051v-6.3051h-2.342v10.0979h2.342l3.616-6.366v6.366H200V21.2378h-2.214zM187.378 21.2378v10.0979h2.335V21.2378h-2.335zM126.546 27.0185c-.164-.4939-.481-.9512-.963-1.3598-.476-.4024-1.256-.6098-2.335-.6098l-2.269-.0061v-1.8476l5.074.0061v-1.9574l-7.287-.0061h-.128v10.0918h4.603c1.074 0 1.854-.2012 2.348-.6098.494-.4085.811-.8598.964-1.3476.067-.189.109-.3841.134-.5671.018-.1829.03-.3597.03-.5244 0-.1768-.006-.378-.03-.5975-.019-.2135-.067-.4391-.141-.6647zm-2.75 2.2379c-.329.1524-.713.2317-1.152.2317l-1.665-.0061v-2.5855l1.726.0061c.079 0 .183 0 .317.0122.134.0061.268.0366.415.0793.219.0671.42.1951.597.3781.171.1829.262.4756.262.8658 0 .5245-.17.8659-.5 1.0184zM148.852 27.11h4.586v-1.8537h-4.586v-2.0611h5.202v-1.9574h-7.543v10.104h7.671v-1.9574h-5.33V27.11zM130.589 27.11h4.586v-1.8537h-4.586v-2.0611h5.202v-1.9574h-7.543v10.104h7.671v-1.9574h-5.33V27.11zM44.1415 27.6831c-.0243-.2134-.0731-.439-.1463-.6646-.1646-.494-.4817-.9513-.9634-1.3598-.4757-.4025-1.2562-.6098-2.3355-.6098h-2.2744v-1.8537h5.0794v-1.9574h-7.421v10.0979l4.0123-.0061h.6098c1.0732 0 1.8537-.2013 2.3476-.6098.494-.4086.811-.8598.9635-1.3476.0671-.189.1098-.3842.1341-.5671.0183-.1829.0305-.3598.0305-.5244 0-.1768-.0122-.3781-.0366-.5976zm-2.8903 1.5671c-.3293.1525-.7195.2317-1.1525.2317h-.0061l-1.6707.0061v-2.5854h1.6585l.0122-.0061h.0671c.0793 0 .1829 0 .3171.0122.1341.0061.2744.0366.4146.0793.2196.067.4208.1951.5976.378.1708.183.2622.4757.2622.8659 0 .5244-.1707.8659-.5 1.0183zM105.808 26.9148c-.311-.3842-.646-.6525-1.006-.8049-.091-.0366-.183-.0732-.274-.0976-.086-.0244-.171-.0488-.257-.067v-.0244c.074-.0305.159-.061.244-.0976.086-.0366.177-.0793.269-.1342.25-.1463.488-.3719.701-.6707.213-.2988.323-.7012.323-1.2013 0-.1341-.012-.2866-.036-.4573-.025-.1646-.061-.3354-.11-.5061-.134-.3964-.403-.7683-.805-1.1037-.403-.3354-1.055-.5061-1.945-.5061l-4.7078-.0061h-.128v10.0979l4.4818.0122h.128c.171 0 .36 0 .543-.0122.183-.0122.372-.0305.567-.0549.622-.0915 1.195-.3293 1.707-.7135.512-.3902.769-1.0732.769-2.0488 0-.689-.159-1.2195-.464-1.6037zm-5.39-3.8233l1.805.0061c.396 0 .695.0976.89.2988.201.1951.299.4573.299.7866 0 .2866-.067.5122-.208.6647-.14.1524-.298.2561-.463.3109-.073.0244-.146.0427-.22.0549-.067.0061-.134.0122-.195.0122h-1.908v-2.1342zm0 3.9879h1.872c.451 0 .817.0854 1.091.2561.275.1647.409.4696.409.9025 0 .3232-.067.5793-.208.7561-.134.1708-.286.2988-.445.372-.109.0427-.213.0793-.317.0975-.097.0122-.177.0244-.238.0244h-2.164v-2.4086zM116.009 22.592c-.719-1.0915-2.055-1.6525-3.78-1.6525-1.72 0-2.939.5427-3.659 1.6342-.719 1.0854-1.079 2.3232-1.079 3.7013 0 1.372.36 2.6037 1.079 3.6891.72 1.0915 1.945 1.6403 3.659 1.6525h.116c1.725 0 2.951-.5427 3.664-1.6281.714-1.0793 1.074-2.311 1.074-3.6891 0-1.3842-.36-2.616-1.074-3.7074zm-1.469 4.3659c-.018.2988-.073.622-.165.9574-.128.4329-.347.8293-.664 1.189-.318.3537-.787.5366-1.421.5549 0 0-.006.0061 0 .0061v-.0061c-.701-.0122-1.214-.2378-1.531-.6646-.323-.4269-.53-.8964-.634-1.4025-.055-.2378-.085-.4695-.104-.6951-.012-.2257-.024-.433-.024-.6098 0-1.0061.14-1.744.415-2.2135.274-.4634.585-.7805.92-.9451.177-.0915.348-.1525.513-.1769.164-.0305.707-.0122.872.0122.164.0244.335.0793.5.1647.335.1646.646.4756.926.9451.281.4634.421 1.2074.421 2.2257 0 .1341-.006.3536-.024.6585zM144.193 21.9819c-.646-.4451-1.353-.689-2.128-.7378-.055-.0061-.122-.0122-.177-.0122h-.177l-4.366.0061h-.128v10.0979h2.342v-3.4696h2.104c.177 0 .408-.0183.701-.0366.286-.0183.591-.0854.902-.1951.47-.1647.909-.4757 1.299-.9391.39-.4634.592-1.1952.592-2.1952 0-1.2317-.317-2.0732-.964-2.5184zm-1.872 3.6343c-.274.1951-.664.2927-1.158.2927H139.559v-2.6952l1.591-.0061h.007c.524 0 .92.0976 1.183.2805.268.189.402.5305.402 1.0305 0 .5366-.14.9025-.421 1.0976zM186.768 27.6587c-.018-.1829-.049-.3719-.092-.561-.14-.5549-.451-1.061-.927-1.5183-.475-.4573-1.243-.6891-2.304-.6891l-2.348.0061v-3.6586h-2.342v10.104h3.946v-.0183h.719c1.165 0 2.019-.2744 2.561-.8171.543-.5427.817-1.311.817-2.3111 0-.1707-.012-.3536-.03-.5366zm-2.872 1.4452c-.275.1829-.622.2744-1.043.2744h-.152v.0061h-1.604V26.866l1.701-.0122c.458 0 .829.0915 1.104.2744.274.1769.408.5122.408.9939 0 .4757-.14.7989-.414.9818z"/>
</svg>
