<svg viewBox="0 0 200 50" xmlns="http://www.w3.org/2000/svg">
	<path fill="#0039A6" d="M69.8326 17.7421c.0311-.5828.1735-.9951.4263-1.2468.2488-.2488.6239-.3752 1.1245-.3752h7.9373c1.0322 0 1.5498.5417 1.5498 1.622v14.9108c0 .1775-.0311.2929-.0953.341-.0652.0472-.1876.0712-.3651.0712h-2.0573c-.1605 0-.2759-.024-.3511-.0712-.0712-.0481-.1094-.1635-.1094-.341V18.7101h-5.3474l-.1474 2.1074c-.1294 1.8056-.2588 3.4205-.3952 4.8409-.1365 1.4204-.3712 2.6541-.7082 3.7034-.334 1.0522-.8246 1.9148-1.4645 2.5889-.641.6781-1.5297 1.1887-2.6572 1.5297-.1605.0311-.2929.0271-.3982-.014-.1023-.0412-.1876-.1495-.2518-.327l-.5105-1.4304c-.0311-.1465-.0371-.2658-.0101-.3611.0241-.0993.1224-.1876.303-.2658.674-.2929 1.2057-.6641 1.5838-1.1175.3782-.4494.6741-1.0562.8827-1.8125.2117-.7594.3682-1.7103.4735-2.8448.1053-1.1375.2217-2.5448.3511-4.2239l.2367-3.3413Zm25.1683 8.9083c0 2.1466-.4976 3.7947-1.4886 4.9502-.9951 1.1516-2.4736 1.7304-4.4416 1.7304-1.952 0-3.4065-.5618-4.3705-1.6832-.9609-1.1205-1.4374-2.7625-1.4374-4.9261 0-1.0633.1435-2.0102.4364-2.8307.2899-.8205.6951-1.5157 1.2097-2.0814.5176-.5658 1.1315-.9951 1.8527-1.294.7152-.2969 1.5126-.4464 2.3843-.4464 1.9179 0 3.3764.5858 4.3704 1.7544.99 1.1676 1.4846 2.7796 1.4846 4.8268Zm-2.8789.0713c0-.5828-.0411-1.1375-.1324-1.6561-.0883-.5216-.2417-.978-.4594-1.3762-.2177-.3983-.5146-.7082-.8957-.9369-.3782-.2287-.8587-.3411-1.4415-.3411-.5145 0-.9679.1094-1.3561.327-.3852.2177-.7082.5146-.968.8888-.2588.3751-.4464.8175-.5688 1.3391-.1193.5176-.1805 1.0763-.1805 1.6761 0 1.3492.2177 2.4084.651 3.1748.4363.7733 1.2097 1.1585 2.3231 1.1585.5658 0 1.0422-.1153 1.4274-.3541.3882-.2317.6981-.5446.9339-.9368.2317-.3882.4022-.8386.5075-1.3492.1054-.5065.1595-1.0452.1595-1.6139Zm29.388-.0713c0 2.1466-.493 3.7947-1.488 4.9502-.991 1.1516-2.474 1.7304-4.443 1.7304-1.952 0-3.41-.5618-4.37-1.6832-.957-1.1205-1.438-2.7625-1.438-4.9261 0-1.0633.147-2.0102.437-2.8307.289-.8205.695-1.5157 1.209-2.0814.515-.5658 1.135-.9951 1.853-1.294.719-.2969 1.516-.4464 2.384-.4464 1.921 0 3.377.5858 4.371 1.7544.992 1.1676 1.485 2.7796 1.485 4.8268Zm-2.875.0713c0-.5828-.048-1.1375-.132-1.6561-.092-.5216-.246-.978-.459-1.3762-.218-.3983-.522-.7082-.896-.9369-.378-.2287-.859-.3411-1.438-.3411-.514 0-.971.1094-1.356.327-.385.2177-.708.5146-.968.8888-.258.3751-.453.8175-.572 1.3391-.12.5176-.181 1.0763-.181 1.6761 0 1.3492.218 2.4084.651 3.1748.439.7733 1.21 1.1585 2.323 1.1585.566 0 1.042-.1153 1.431-.3541.385-.2317.695-.5446.933-.9368.232-.3882.403-.8386.505-1.3492.105-.5065.159-1.0452.159-1.6139Zm7.059 6.3434c-.517 0-.872-.1053-1.066-.3169-.194-.2077-.293-.5557-.293-1.0392V17.7662c0-1.0974.515-1.6451 1.55-1.6451h9.126c.177 0 .29.0371.338.1094.05.0712.071.1976.071.3751v1.6451c0 .1605-.02.2728-.071.337-.048.0652-.161.0953-.338.0953h-7.699v3.7495h3.972c.919 0 1.699.0923 2.343.2799.647.1835 1.19.4323 1.635.7392.443.307.797.651 1.067 1.0292.266.3781.47.7703.607 1.1756.135.4022.224.7904.264 1.1616.039.3711.063.7021.063.991 0 .7563-.15 1.4615-.45 2.1055-.297.6439-.705 1.2027-1.22 1.6691-.514.4664-1.121.8275-1.815 1.0903-.692.2588-1.434.3852-2.225.3852h-5.859v.006Zm8.495-5.4377c0-.7703-.245-1.4133-.739-1.9379-.494-.5216-1.206-.7834-2.143-.7834h-3.996v5.4949h3.948c.58 0 1.056-.0923 1.428-.2799.372-.1836.667-.4123.896-.6881.228-.2729.381-.5728.473-.9028.09-.323.133-.6269.133-.9028Zm15.856 4.0545c0 .3882-.154.657-.461.7974-.357.1635-.739.3-1.151.4123-.412.1154-.838.2006-1.271.2658-.432.0652-.869.1124-1.297.1324-.425.0271-.835.0412-1.22.0412-1.066 0-1.949-.1124-2.65-.3271-.705-.2176-1.262-.5115-1.674-.8716-.412-.3641-.697-.7905-.859-1.284-.162-.4935-.244-1.0121-.244-1.5638 0-.5617.095-1.1074.279-1.632.184-.5246.49-.984.906-1.3792.42-.3952.968-.7152 1.635-.957.671-.2417 1.489-.3611 2.457-.3611h2.711v-.4122c0-.307-.031-.5898-.095-.8486-.065-.2558-.191-.4835-.378-.6781-.185-.1946-.44-.3411-.76-.4464s-.742-.1565-1.257-.1565c-.552 0-1.147.0482-1.792.1435-.647.0983-1.172.2116-1.574.341-.176.0472-.307.0582-.387.0241-.082-.0311-.137-.1194-.168-.2658l-.337-1.3762c-.065-.2588.007-.4264.215-.5076.677-.2558 1.419-.4393 2.228-.5447.807-.1023 1.567-.1565 2.276-.1565 1.679 0 2.909.3712 3.688 1.1145.788.7422 1.176 1.8226 1.176 3.2429v7.2563h.004v-.003Zm-2.859-4.572h-2.323c-.273 0-.572.017-.885.0481-.313.0341-.613.1224-.897.2658-.282.1435-.517.3541-.702.63-.184.2758-.279.654-.279 1.1374 0 .6952.235 1.1787.698 1.4515.47.2758 1.09.4123 1.863.4123.116 0 .27-.003.471-.0141.2-.01.415-.0271.644-.0612.224-.0341.462-.0712.712-.1223.248-.0472.479-.1124.691-.1906v-3.5569h.007Zm8.691 5.87c-.082.0541-.218.0852-.41.0852h-1.751c-.177 0-.307-.0341-.395-.0983-.085-.0652-.133-.1946-.133-.3851V20.8175c0-.1775.045-.2999.133-.3641.088-.0652.222-.0993.395-.0993h1.751c.191 0 .328.0311.41.0853.082.0541.119.1805.119.3751v4.3062h5.352v-4.3032c0-.1775.045-.2999.133-.3641.084-.0652.218-.0993.399-.0993h1.764c.211 0 .348.0311.412.0853.065.0541.099.1805.099.3751v11.7631c0 .2117-.034.3441-.099.3983-.064.0541-.201.0852-.412.0852h-1.764c-.18 0-.315-.0341-.399-.0983-.092-.0652-.133-.1946-.133-.3852v-5.1538h-5.352v5.1538c-.001.2147-.038.3471-.119.4023Zm23.058-.3611-4.101-6.2924 3.695-5.4878c.069-.0822.083-.1946.041-.2899-.041-.0953-.139-.1605-.241-.1605h-2.512c-.077 0-.149.0341-.2.0953l-3.247 4.6874h-2.289v-4.4276c0-.1775-.03-.2899-.095-.327-.064-.0411-.176-.0612-.34-.0612h-1.938c-.147 0-.253.0201-.328.0612-.071.0371-.109.1465-.109.327v11.9336c0 .1776.038.2829.109.327.072.0372.181.0612.328.0612h1.938c.164 0 .276-.02.34-.0612.065-.0411.095-.1494.095-.327v-5.3002h2.134l3.727 5.5901c.055.0612.126.1023.208.1023h2.581c.105 0 .201-.0611.246-.1564.04-.1003.027-.2127-.042-.2939Zm-69.875 0-4.106-6.2924 3.693-5.4878c.071-.0822.088-.1946.041-.2899-.041-.0953-.137-.1605-.242-.1605h-2.507c-.078 0-.153.0341-.2.0953l-3.25 4.6874h-2.286v-4.4276c0-.1775-.034-.2899-.099-.327-.066-.0411-.178-.0612-.3375-.0612h-1.9349c-.1465 0-.2558.0201-.327.0612-.0713.0371-.1094.1465-.1094.327v11.9336c0 .1776.0371.2829.1094.327.0712.0372.1805.0612.327.0612h1.9349c.1635 0 .2755-.02.3375-.0612.065-.0411.099-.1494.099-.327v-5.3002h2.132l3.731 5.5901c.051.0612.126.1023.207.1023h2.582c.103 0 .198-.0611.242-.1564.037-.1003.027-.2127-.037-.2939ZM50.9887 32.8238l-10.9125-18.898c-.325-.5577-.7864-1.0231-1.3411-1.3531-.5547-.33-1.1837-.5136-1.8286-.5327.1394 3.1698-.8637 4.1728-1.3652 9.1882l8.9073 15.4876c.4995.8616 1.3191 1.4926 2.28 1.7554.961.2628 1.9871.1364 2.8558-.3511.8546-.5467 1.4715-1.3973 1.7243-2.3793.2527-.983.1243-2.0252-.3601-2.917"/>
	<path fill="#00A1DE" d="M36.6657 12c-1.2759.0522-2.4866.7824-3.1296 1.8858L22.5022 32.8239c-.5005.8727-.6329 1.9079-.3701 2.8789.2638.9709.9018 1.7965 1.7744 2.297.8727.5006 1.9079.633 2.8789.3702.9709-.2639 1.7965-.9018 2.297-1.7745l7.6635-13.2808c.301-4.5941-.0802-7.6545-.0802-11.3147Z"/>
	<path fill="#002C77" d="M38.6719 12.5216c-.5407-.3059-1.1445-.4845-1.7654-.5216h-.2809c-.6239.0181-1.2318.1976-1.7654.5216-.4323.2478-.8115.5778-1.1154.972-.305.3942-.5287.8446-.6591 1.3251-.1304.4804-.1645.982-.1013 1.4765.0632.4935.2237.971.4715 1.4023l3.2901 5.6975 3.2901-5.6975c.2558-.4283.4243-.9028.4945-1.3963.0702-.4935.0411-.9961-.0863-1.4785-.1274-.4825-.349-.9339-.654-1.3291-.3049-.3952-.6851-.7262-1.1184-.972Z"/>
	<path fill="#EEAF30" d="M40.6772 34.7494c0 .7693-.2287 1.5226-.656 2.1626-.4273.64-1.0352 1.1385-1.7464 1.4334-.7112.2949-1.4936.3722-2.2489.2217-.7553-.1505-1.4484-.5206-1.9931-1.0653-.5447-.5447-.9148-1.2378-1.0653-1.9931-.1504-.7553-.0732-1.5377.2217-2.2489.2949-.7112.7934-1.3191 1.4334-1.7464s1.3923-.656 2.1626-.656c1.0322 0 2.0222.4103 2.7525 1.1395.7302.7303 1.1395 1.7203 1.1395 2.7525Z"/>
</svg>