<svg xmlns="http://www.w3.org/2000/svg" viewBox="0 0 200 50">
	<g fill="#0039A6">
		<path d="M70.5006 17.84c-.0036-.4456.1367-.8805.4-1.24.1546-.1441.3377-.2542.5375-.3231.1999-.0689.4119-.0951.6225-.0769h7.84c.2214-.0336.4476-.014.6599.0572.2123.0712.4046.1919.561.3522.1563.1603.2723.3555.3382.5695.0659.214.08.4406.0409.6611V32.6c0 .16 0 .32-.12.32-.1103.0593-.2349.087-.36.08h-2c-.1125.0088-.2248-.0193-.32-.08-.08 0-.12-.16-.12-.32V18.84h-5.36l-.12 2.08c-.12 1.8-.28 3.36-.4 4.8-.089 1.2515-.3308 2.4873-.72 3.68-.3025.9503-.8075 1.8237-1.48 2.56-.7362.7232-1.6449 1.2464-2.64 1.52-.1302.0408-.2698.0408-.4 0-.12 0-.2-.12-.24-.32l-.52-1.4c-.0404-.1166-.0404-.2434 0-.36 0-.12.12-.2.32-.28.6049-.259 1.1496-.6403 1.6-1.12.4185-.5303.7186-1.144.88-1.8.2322-.933.3927-1.8824.48-2.84.12-1.12.24-2.52.32-4.16l.2-3.36zm24.88 8.84c.1066 1.7514-.4185 3.4829-1.48 4.88-1.185 1.0918-2.7334 1.7045-4.3446 1.7193-1.6112.0148-3.1705-.5694-4.3754-1.6393-1.0396-1.4047-1.5367-3.1377-1.4-4.88-.0295-.9526.1197-1.9023.44-2.8.2604-.7323.6536-1.4103 1.16-2 .5275-.5843 1.1774-1.0449 1.9034-1.3492.726-.3042 1.5102-.4445 2.2966-.4108.8029-.0546 1.6078.0715 2.3554.3692.7477.2977 1.419.7593 1.9646 1.3508 1.0801 1.3429 1.6219 3.0397 1.52 4.76h-.04zm-2.88.08c.0013-.5489-.0388-1.0971-.12-1.64-.092-.4692-.2397-.9258-.44-1.36-.1992-.4057-.5029-.7509-.88-1-.4256-.2407-.9121-.3519-1.4-.32-.4722-.0018-.9382.1078-1.36.32-.3975.2112-.74.5126-1 .88-.2812.3937-.4723.8443-.56 1.32-.1146.539-.1682 1.0891-.16 1.64-.0692 1.0785.1518 2.1559.64 3.12.2346.3863.5722.6994.975.9043.4028.2049.8547.2935 1.305.2557.4861.0124.9675-.0976 1.4-.32.4072-.2245.7301-.5755.92-1 .2512-.4196.4272-.8798.52-1.36.1113-.4718.165-.9553.16-1.44zm29.0804-.08c.106 1.7514-.419 3.4829-1.48 4.88-.555.602-1.24 1.0697-2.002 1.3678-.762.298-1.583.4185-2.398.3522-.796.0571-1.595-.0601-2.341-.3433-.746-.2833-1.422-.7258-1.979-1.2967-1.04-1.4047-1.537-3.1377-1.4-4.88-.03-.9526.119-1.9023.44-2.8.274-.7345.68-1.4124 1.2-2 .527-.5843 1.177-1.0449 1.903-1.3492.726-.3042 1.51-.4445 2.297-.4108.802-.0546 1.607.0715 2.355.3692.748.2977 1.419.7593 1.965 1.3508 1.066 1.3482 1.594 3.0447 1.48 4.76h-.04zm-2.8.08c.001-.5489-.039-1.0971-.12-1.64-.087-.4759-.249-.935-.48-1.36-.2-.4057-.503-.7509-.88-1-.426-.2407-.913-.3519-1.4-.32-.473-.0018-.939.1078-1.36.32-.398.2112-.74.5126-1 .88-.282.3937-.473.8443-.56 1.32-.115.539-.169 1.0891-.16 1.64-.07 1.0785.151 2.1559.64 3.12.234.3863.572.6994.975.9043.402.2049.854.2935 1.305.2557.486.0124.967-.0976 1.4-.32.388-.248.705-.5926.92-1 .251-.4196.427-.8798.52-1.36.118-.4976.172-1.0085.16-1.52l.04.08zm7 6.24c-.18.0168-.361-.003-.533-.058-.172-.0549-.331-.1441-.467-.262-.233-.2792-.347-.6378-.32-1v-13.8c0-1.08.52-1.6 1.52-1.6h9c.16 0 .28 0 .32.12.054.1122.081.2354.08.36v1.6c.008.1125-.02.2249-.08.32 0 .08-.16.12-.32.12h-7.6v3.72h4c.782-.0032 1.561.0909 2.32.28.577.1466 1.121.4048 1.6.76.379.2843.715.621 1 1 .269.3465.473.7398.6 1.16.13.3766.224.7652.28 1.16 0 .36.08.72.08 1 .02.7185-.13 1.4315-.44 2.08-.307.609-.713 1.1631-1.2 1.64-.53.466-1.14.8319-1.8 1.08-.703.2649-1.45.3873-2.2.36h-5.84V33zm8.4-5.36c.011-.355-.05-.7087-.181-1.039-.131-.3303-.328-.6302-.579-.881-.278-.2718-.611-.4804-.977-.6116-.366-.1311-.756-.1818-1.143-.1484h-4v5.44h3.92c.481.0045.957-.0909 1.4-.28.347-.1464.65-.3807.88-.68.213-.2609.376-.5593.48-.88.111-.2937.165-.6059.16-.92h.04zm15.64 4.08c.011.1562-.025.3123-.103.4478-.079.1356-.196.2444-.337.3122-.369.1805-.759.3148-1.16.4-.4.12-.84.2-1.24.28-.422.0796-.851.1198-1.28.12h-1.2c-.891.0123-1.779-.0953-2.64-.32-.609-.1603-1.171-.4618-1.64-.88-.408-.3278-.702-.7757-.84-1.28-.164-.5036-.245-1.0304-.24-1.56.008-.5447.102-1.0848.28-1.6.177-.5287.495-.9989.92-1.36.456-.4429 1.001-.7837 1.6-1 .787-.2575 1.612-.3792 2.44-.36h2.68v-.4c.002-.2844-.039-.5676-.12-.84-.071-.2495-.194-.4812-.36-.68-.212-.2092-.474-.3607-.76-.44-.402-.1227-.821-.1768-1.24-.16-.602.004-1.203.0441-1.8.12-.64.12-1.16.2-1.56.32-.16 0-.32.08-.36 0-.04-.08-.12-.12-.16-.28l-.32-1.36c-.08-.28 0-.44.2-.52.703-.2806 1.445-.4558 2.2-.52.741-.1088 1.49-.1622 2.24-.16.655-.0492 1.315.0315 1.939.2374.625.2059 1.203.533 1.701.9626.401.4261.711.9297.911 1.4801.199.5503.284 1.1356.249 1.7199v7.32zm-2.76-4.6h-3.2c-.31.0321-.609.1274-.88.28-.292.1291-.541.3369-.72.6-.192.3418-.288.7284-.28 1.12-.026.2832.028.568.155.8224.127.2543.323.4682.565.6176.566.2947 1.202.4328 1.84.4h.48c.215-.0094.429-.0361.64-.08l.72-.12c.233-.0426.461-.1097.68-.2v-3.44zm8.56 5.84c-.055.0461-.119.0805-.188.1011-.069.0206-.141.0271-.212.0189h-1.72c-.144.0092-.286-.0334-.4-.12-.12-.08-.12-.2-.12-.36V20.92c0-.16 0-.32.12-.36.114-.0866.256-.1292.4-.12h1.72c.071-.0081.143-.0017.212.019.069.0206.133.055.188.101.046.0469.081.1037.101.1661.021.0624.027.1287.019.1939v4.28h5.28v-4.28c0-.16 0-.32.12-.36.114-.0866.256-.1292.4-.12h1.76c.071-.0081.143-.0017.212.019.069.0206.133.055.188.101.046.0469.081.1037.101.1661.021.0624.027.1287.019.1939v11.64c.014.0714.011.1454-.01.2153-.021.0698-.059.1334-.11.185-.052.0515-.115.0895-.185.1104-.07.0209-.144.0241-.215.0093h-1.8c-.144.0092-.286-.0334-.4-.12-.12-.08-.12-.2-.12-.36v-5.2h-5.28v5.08c.02.1694-.022.3404-.12.48h.04zm22.8-.4l-4-6.24 3.64-5.44c.028-.0413.042-.0901.042-.14 0-.0499-.014-.0986-.042-.14-.014-.0511-.046-.0954-.091-.1248-.044-.0294-.097-.0419-.149-.0352h-2.48c-.08 0-.12 0-.2.12l-3.16 4.64h-2.28v-4.4c0-.16 0-.28-.12-.32-.098-.055-.208-.0827-.32-.08h-1.92c-.112.0026-.221.0299-.32.08-.08 0-.12.12-.12.32v11.8c0 .16 0 .28.12.32.097.0551.208.0827.32.08h1.92c.112.0088.224-.0193.32-.08.08 0 .12-.12.12-.32v-5.2h2.12l3.68 5.52c.08.08.12.12.2.12h2.56c.051-.0012.1-.0169.143-.0452.042-.0284.076-.0681.097-.1148.022-.1055.022-.2145 0-.32h-.08zm-69.08 0l-4.08-6.24 3.64-5.44c.036-.0374.057-.0876.057-.14 0-.0523-.021-.1026-.057-.14-.014-.0511-.046-.0954-.091-.1248-.044-.0294-.097-.0419-.149-.0352h-2.48c-.08 0-.12 0-.2.12l-3.2 4.64h-2.28v-4.4c0-.16 0-.28-.12-.32-.098-.055-.208-.0827-.32-.08h-1.8404c-.1119-.0027-.2225.025-.32.08-.08 0-.12.12-.12.32v11.8c0 .16 0 .28.12.32.0975.0551.2081.0827.32.08h1.9204c.112.0088.224-.0193.32-.08.08 0 .12-.12.12-.32v-5.2h2.12l3.68 5.52c.018.0368.047.0675.082.0887.036.0212.076.0321.118.0313h2.56c.051-.0012.1-.0169.143-.0452.042-.0284.076-.0681.097-.1148.018-.0554.02-.1149.006-.1715-.014-.0566-.044-.1081-.086-.1485h.04z"/>
		<path d="M50.9006 32.76l-10.88-18.84c-.3239-.5558-.7839-1.02-1.3367-1.3489-.5529-.3289-1.1803-.5117-1.8233-.5311.14 3.16-.86 4.16-1.36 9.16l8.88 15.44c.4983.8593 1.3148 1.4879 2.2729 1.7499.9582.2619 1.9809.1363 2.8471-.3499.8524-.5449 1.4666-1.3927 1.719-2.3724.2523-.9797.1241-2.0187-.359-2.9076"/>
	</g>
	<path fill="#00A1DE" d="M36.6206 12c-1.2722.0522-2.4794.7796-3.12 1.88l-11 18.88c-.4986.8699-.6312 1.9023-.3687 2.87.2626.9676.8988 1.7914 1.7687 2.29.8699.4986 1.9023.6312 2.8699.3687.9677-.2626 1.7915-.8988 2.2901-1.7687l7.64-13.24c.3-4.58-.08-7.6314-.08-11.28z"/>
	<path fill="#002C77" d="M38.6206 12.52c-.5393-.3054-1.1413-.4833-1.76-.52h-.28c-.6218.0179-1.2283.1971-1.76.52-.4308.2468-.8087.5761-1.1123.969-.3035.393-.5266.8418-.6566 1.321-.13.4792-.1644.9792-.1011 1.4717.0633.4924.223.9676.47 1.3983l3.28 5.68 3.28-5.68c.2553-.4266.4228-.8999.4926-1.3921.0698-.4923.0405-.9935-.0863-1.4742-.1267-.4808-.3482-.9313-.6515-1.3252-.3034-.3939-.6824-.7232-1.1148-.9685z"/>
	<path fill="#EEAF30" d="M40.6206 34.68c0 .7674-.2276 1.5176-.6539 2.1556-.4263.6381-1.0323 1.1354-1.7413 1.4291-.709.2936-1.4891.3705-2.2417.2208-.7527-.1497-1.444-.5193-1.9867-1.0619-.5426-.5426-.9121-1.234-1.0618-1.9866-.1498-.7527-.0729-1.5328.2207-2.2418.2937-.709.791-1.3149 1.4291-1.7413.6381-.4263 1.3882-.6539 2.1556-.6539 1.029 0 2.0159.4088 2.7436 1.1364.7276.7277 1.1364 1.7146 1.1364 2.7436z"/>
</svg>
