<svg viewBox="0 0 200 50" xmlns="http://www.w3.org/2000/svg">
	<path fill="#003869" d="M48.8174 32.2651l1.6404-11.2323h3.3106l1.8909 6.5616 1.8969-6.5616h3.3047l1.6344 11.2323H59.31l-.7695-6.1262-1.7896 6.1262h-2.1891l-1.7896-6.1262-.7933 6.1262h-3.1615zm74.3546-14.0359c2.141-.4473 3.865.5071 4.933 2.8692.505-1.2464 1.306-2.351 2.334-3.2179 1.028-.8669 2.252-1.47 3.566-1.7569-2.947-.5965-4.874.2505-6.103 1.5807-1.843-.6919-3.43-.8351-4.73.5249zm51.335 14.0359V21.0328h3.335v4.4977l3.227-4.4977h3.847l-4.265 5.4402L185 32.2651h-4.092l-3.066-4.5872v4.5872h-3.335zm-12.222 0V21.0328h3.305v4.0443h3.656v-4.0443h3.305v11.2323h-3.305v-4.4917h-3.656v4.4917h-3.305zm-12.92 0l4.02-11.2323h3.979l3.979 11.2323h-3.532l-.596-1.9387h-3.657l-.596 1.9387h-3.597zm5.965-8.3511l-1.193 3.9667h2.386l-1.193-3.9667zm-15.826 8.3511V21.0328h8.513v2.6962h-5.154v1.6882h1.652c.227 0 .519 0 .883.0298.386.0258.769.0958 1.139.2088.617.182 1.182.5093 1.647.9544.268.2916.472.6356.601 1.0104.128.3748.177.7721.144 1.1668.035.4049-.013.8128-.141 1.1985-.128.3857-.334.7411-.604 1.0444-.456.4537-1.015.7895-1.629.9783-.374.1252-.763.2014-1.157.2266-.376 0-.668.0299-.883.0299h-5.011zm3.305-2.2429h1.193c.395.0179.788-.0685 1.139-.2505.153-.1.275-.2407.352-.4062.077-.1655.106-.3492.084-.5304.02-.178-.009-.3583-.083-.5212-.075-.1629-.193-.3024-.341-.4033-.355-.1833-.752-.2697-1.151-.2506h-1.193v2.3622zm-19.589-8.9894h3.036v6.502l4.176-6.502h3.268v11.2323h-3.191V25.787l-4.122 6.4781h-3.304V21.0328h.137zm-7.874 11.5544c-1.969 0-3.466-.5965-4.492-1.7895-1.016-1.1513-1.564-2.6405-1.539-4.1756-.029-1.5314.511-3.0193 1.515-4.1756 1.008-1.193 2.518-1.7895 4.516-1.7895h.161c1.988 0 3.493.5965 4.515 1.7895 1.003 1.1578 1.542 2.6446 1.516 4.1756.022 1.5194-.518 2.9936-1.516 4.1398-1.014 1.193-2.517 1.7895-4.515 1.7895l-.161.0358zm.065-2.6962c.112.0084.223.0084.334 0 .121-.0179.238-.0478.352-.0895.554-.162 1.045-.4886 1.408-.9365.465-.6313.689-1.4075.632-2.1892.06-.7839-.169-1.5625-.644-2.1892-.361-.4459-.847-.774-1.396-.9425-.113-.0298-.232-.0596-.346-.0775-.107-.0218-.217-.0318-.328-.0298-.124-.0013-.247.0087-.369.0298-.125.0189-.247.0509-.364.0954-.538.1774-1.011.5094-1.36.9544-.447.6271-.659 1.3918-.597 2.1594-.061.7675.151 1.5318.597 2.1593.351.4433.823.7749 1.36.9545.116.0416.236.0735.358.0954.121.0106.242.0126.363.006zm-16.994 2.386V21.0328h3.305v4.4977l3.227-4.4977h3.853l-4.271 5.4402 4.379 5.7921h-4.093l-3.095-4.5872v4.5872h-3.305v.0119zm-1.8313-.513c-.2128.1437-.4385.2675-.6741.3698-.2187.0954-.444.1751-.674.2386-.2798.0862-.5676.1442-.859.173-.2803 0-.5607.0358-.8232.0358h-.161c-1.5067.0194-2.9623-.545-4.0622-1.5748-.5756-.5644-1.0236-1.2457-1.3138-1.9979-.2901-.7521-.4158-1.5577-.3684-2.3625 0-1.9566.5965-3.4359 1.7895-4.4381 1.0822-.9646 2.4813-1.4975 3.931-1.4972h.1551c.1992-.0018.3984.0082.5965.0298.2028 0 .4116.0537.5965.0955.3268.0663.6465.1642.9544.2923.3176.128.6214.2879.9067.4772v3.2569h-.161c-.0657-.0716-.1372-.1551-.2267-.2386-.0895-.0835-.179-.179-.2863-.2744-.2678-.2227-.5624-.4111-.8769-.5607-.3727-.1781-.78-.2717-1.193-.2744-.3957-.007-.7874.079-1.1438.2509-.3564.172-.6675.4252-.9082.7393-.4954.639-.7564 1.4286-.7397 2.2369-.0313.3858.0177.7739.1437 1.1398.1261.3659.3265.7018.5888.9865.2622.2846.5806.5119.935.6675.3544.1556.7371.2361 1.1242.2365.5243-.0082 1.0386-.1455 1.4972-.3997.3999-.2179.7657-.4932 1.0857-.8172h.161l.006 3.2092zm-19.3805.513V21.0328h4.8913c.9589-.0723 1.9117.203 2.6843.7755.5469.4457.9598 1.0341 1.193 1.7.0698.2165.1237.4378.1611.6622.0285.1976.0445.3968.0477.5965-.0028.1996-.0187.3989-.0477.5965-.0374.2263-.0912.4496-.1611.6681-.2285.6699-.6421 1.2614-1.193 1.706-.7759.5754-1.7328.8528-2.6962.7814h-1.5867v3.7043h-3.3047l.012.0537zm3.3046-8.7567v2.5828h.7337c.353.0264.7059-.0524 1.0141-.2266.1866-.1165.3357-.2842.4295-.4832.0438-.1067.0719-.2192.0835-.334.0046-.0855.0046-.1711 0-.2565v-.1909-.1969c-.0688-.2351-.2084-.4434-.3997-.5965-.3255-.2207-.7182-.3199-1.1095-.2803l-.7516-.0179zm-11.0533 9.0669c-1.9883 0-3.4856-.5965-4.4917-1.7895-1.0157-1.1513-1.5646-2.6405-1.539-4.1756-.0293-1.5314.5106-3.0193 1.5152-4.1756 1.0081-1.193 2.5172-1.7895 4.5155-1.7895h.1611c1.9983 0 3.5075.5965 4.5156 1.7895 1.0021 1.1578 1.5416 2.6446 1.5151 4.1756.0222 1.5194-.5174 2.9936-1.5151 4.1398-1.0081 1.193-2.5173 1.7895-4.5156 1.7895l-.1611.0358zm-32.2114-3.7938c-.2908.8932-.6915 1.7468-1.193 2.5411-4.444-.4246-8.9217.3241-12.9859 2.1713l.4414-3.1615c4.3724-1.644 9.0845-2.1769 13.7137-1.5509h.0238zm.4951-3.4598v.0478c-.0002.7858-.0822 1.5694-.2445 2.3383-4.6942-.6378-9.4736-.0437-13.8688 1.7239l.3877-2.7738c4.3955-1.5682 9.1102-2.0272 13.7256-1.3362zm-.4593-3.1614c.1907.6686.3186 1.3536.3818 2.046-4.5649-.6691-9.2251-.1557-13.5347 1.4912l.328-2.386c4.1006-1.4201 8.4795-1.8473 12.7772-1.2467l.0477.0955zm-1.5926-3.3226c.4729.6671.8728 1.383 1.193 2.1355-4.1371-.4866-8.3307-.0088-12.2523 1.3958l.3162-2.2667c3.4652-1.1043 7.1098-1.5356 10.7371-1.2706l.006.006zm-2.9289-2.8811c.835.568 1.5911 1.2439 2.2488 2.0102-3.3836-.1535-6.7666.3176-9.9795 1.3899l.3102-2.219c2.4133-.6997 4.9035-1.1004 7.4145-1.193l.006.0119zM26.3708 14c1.8962-.002 3.7626.4718 5.4282 1.3779-2.1703.1797-4.3134.6039-6.3886 1.2646l.2804-2.0162c-2.4676.1673-4.8024 1.179-6.6119 2.8651-1.8094 1.6861-2.9833 3.9437-3.3241 6.3934-.3409 2.4497.172 4.942 1.4525 7.058 1.2804 2.116 3.2503 3.7267 5.5785 4.5613l.173-1.2228c3.941-1.668 8.2237-2.3695 12.4909-2.0461-1.1681 1.5452-2.7114 2.7665-4.4837 3.5482-1.7722.7816-3.7147 1.0978-5.6434.9186-1.9287-.1793-3.7796-.8481-5.3774-1.943-1.5979-1.0949-2.8896-2.5797-3.7529-4.3137-.8633-1.734-1.2695-3.6596-1.1802-5.5946.0893-1.9349.6713-3.815 1.6907-5.462 1.0194-1.647 2.4425-3.0065 4.1344-3.9495 1.6919-.943 3.5966-1.4384 5.5336-1.4392zm43.1514 15.891c.1111.0084.2228.0084.334 0 .12-.0179.238-.0478.3519-.0895.5535-.162 1.0445-.4886 1.4078-.9365.4768-.6348.7059-1.4216.6442-2.2131.0596-.7839-.1695-1.5625-.6442-2.1892-.3678-.439-.8578-.7588-1.4078-.9186-.1133-.0298-.2326-.0596-.34-.0775-.11-.0215-.2219-.0315-.334-.0298-.122-.0015-.2438.0085-.3639.0298-.1263.0185-.2503.0505-.3698.0954-.5374.1774-1.0105.5094-1.3601.9544-.4469.6271-.6582 1.3918-.5965 2.1594-.0606.7675.1505 1.5318.5965 2.1593.3513.4433.8238.7749 1.3601.9545.1167.0408.2363.0727.3579.0954.121.0106.2426.0126.3639.006z"/>
</svg>
