<svg xmlns="http://www.w3.org/2000/svg" viewBox="0 0 200 50">
	<path fill="#004785" d="M38.6134 31.4412l-.8411-6.753-1.3818 6.753h-1.9166l-1.532-6.753-.9192 6.753h-3.3705l1.9526-13.4279h3.4846l1.2677 5.9269 1.3398-5.9299h3.3735l1.9135 13.4309h-3.3705zm11.6105-13.4279v3.3735h-3.4095v1.7303h2.4122v3.3765h-2.4122v1.6101h3.4095v3.3375h-6.786V18.0133H50.2239zm1.8384 0h7.4349v3.6469h-2.0307v9.778H54.054v-9.775h-1.9917v-3.6529.003zm8.6966 13.4279l3.3344-13.4279h3.9473l3.3344 13.4279h-3.3344l-.5377-1.9226H64.631l-.4986 1.9226h-3.3735zm6.1311-4.5961l-.802-3.4126-.8802 3.4186h1.6852l-.003-.006zm12.7219-8.8318l2.6826 13.4279H78.885l-1.457-10.0123h-.2703l-1.493 10.0123h-3.3705l2.6045-13.4279h4.7132zm10.9196 0l2.7216 13.4279h-3.4096l-1.4569-10.0123h-.2703l-1.493 10.0123h-3.3705l2.6435-13.4279h4.6352zm14.1005 0v13.4279h-3.409V25.277l-3.1425 6.1642H94.71V18.0133h3.3705v6.4766l3.3705-6.4796h3.181v.003zm5.825 0v5.1038h2.568v-5.1068h3.371v13.4309h-3.371v-4.9446h-2.568v4.9476h-3.371V18.0163h3.371v-.003zm13.449 0c.414-.0115.826.0705 1.204.2401.378.1696.713.4222.98.7392.534.6669.805 1.5321.805 2.5534 0 .8231-.114 1.451-.346 1.9226-.231.4326-.534.748-.919.8651.592.157 1.108.519 1.457 1.0214.421.5888.61 1.3368.61 2.1989 0 1.2196-.267 2.1989-.841 2.8688-.613.706-1.418 1.0214-2.491 1.0214h-5.632V18.0073h5.173v.006zm-1.764 2.9019v1.9256h.577c.496 0 .766-.3125.766-.9403 0-.6699-.27-.9853-.766-.9853h-.577zm0 5.1068v1.9646h.881c.54 0 .844-.3154.844-.9823 0-.3124-.075-.5497-.229-.706-.161-.1692-.382-.2684-.615-.2763h-.881zm14.101-8.0117v3.3795h-3.409v1.7303h3.37v3.3765h-3.367v1.6102h3.409v3.3374h-6.783V18.0163h6.783l-.003-.006zm7.742 4.3228c-.273-.0101-.543.0449-.79.1604-.246.1154-.462.288-.628.5035-.31.4325-.46 1.0213-.46 1.7303 0 .6668.15 1.2556.496 1.7273.155.2185.363.3943.605.5108.242.1166.509.1703.777.156.381 0 .651 0 .841-.0781.228-.039.42-.1201.573-.1952v4.5961c-.075.039-.267.0781-.459.1171-.189.0391-.535.0391-.955.0391-1.764 0-3.185-.6669-4.254-2.1208-.958-1.2977-1.418-2.8688-1.418-4.7523 0-1.8475.46-3.4186 1.418-4.7163 1.033-1.4119 2.451-2.1178 4.254-2.1178.306 0 .57 0 .802.039.231.0781.42.1202.612.1562v4.5571c-.15-.0781-.345-.1562-.459-.1983-.312-.0789-.633-.1173-.955-.1141zm3.217-4.3228h7.471v3.6529h-2.031v9.778h-3.409v-9.778h-2.031v-3.6529zm12.95 4.9867h2.07c.958 0 1.763.3544 2.373 1.0634.691.745 1 1.7273 1 3.022 0 1.2977-.309 2.3581-.961 3.1842-.284.3685-.65.6662-1.068.87-.419.2037-.879.308-1.344.3046h-5.48V18.0133h7.856v2.8238h-4.446V23v-.003zm0 3.2623v1.9226h.844c.574 0 .841-.3125.841-.9793 0-.3155-.075-.5528-.228-.709-.08-.0803-.176-.1428-.281-.1832-.106-.0404-.219-.0578-.332-.0511h-.844zm6.516 5.1819l3.334-13.4279h3.905l3.335 13.4279h-3.335l-.495-1.9226h-2.914l-.499 1.9226h-3.334.003zm6.092-4.6712l-.805-3.2594-.883 3.2594h1.688zm9.616-8.7597v5.1068h2.529v-5.1068h3.373v13.4309h-3.373v-4.9446h-2.529v4.9476h-3.41V18.0163h3.41v-.006zm11.685 0v4.8695l2.34-4.8665h3.485l-2.989 6.2423L200 31.4412h-3.485l-2.451-5.7737v5.7737h-3.373V18.0133h3.373l-.003-.003zM11.226 14c5.7076.2103 10.2677 4.9085 10.3037 10.6672.0129 2.8508-1.1043 5.5906-3.1069 7.6197-2.0026 2.029-4.7275 3.1821-7.5783 3.2067-2.8529.0176-5.59643-1.0966-7.62922-3.0984C1.1825 30.3933.0262984 27.6672.00011295 24.8144-.0125815 22.0398 1.04516 19.3673 2.9532 17.3529 4.86124 15.3386 7.47258 14.1376 10.2437 14l.012 3.0551c-1.96642.1299-3.80927 1.005-5.15282 2.4468-1.34355 1.4418-2.08663 3.3417-2.07775 5.3125.00863 1.1493.27424 2.282.77739 3.3154.50315 1.0333 1.23108 1.941 2.13048 2.6565l2.91988-7.6902-2.02769.015s-.39954-.0811-.62784.1082l-.48064.4626s-.03905-1.2677.01803-1.3999c.05707-.1622.21929-1.4329.78404-2.0818.57076-.6248 1.48097-.7119 1.48097-.7119l6.48865-.0451-.9373.9763 2.253 10.1776c.8469-.7284 1.5252-1.6323 1.9879-2.649.4627-1.0167.6987-2.1219.6917-3.2389-.018-1.962-.7807-3.8439-2.1337-5.2649-1.3529-1.4211-3.1952-2.2751-5.154-2.3892L11.226 14zm-2.47826 6.3414c.19526 0 .36048.1502.36048.3365 0 .1832-.15921.3364-.35447.3364-.19826.003-.36048-.1472-.36048-.3304 0-.1893.15621-.3395.35447-.3425z"/>
</svg>
