<svg xmlns="http://www.w3.org/2000/svg" viewBox="0 0 200 50">
	<g fill="#2E56A6">
		<path d="M18.8583 18.049c.1305.839.352 1.6613.6608 2.4523 1.1087-.3281 2.2531-.5209 3.4081-.5741.3486-3.7343 1.394-6.7976 5.0014-9.7534.6976.5691 1.343 1.1994 1.9284 1.8833.8209-.3656 1.6708-.6622 2.541-.8864C31.1405 9.55064 29.6316 8.14258 27.9286 7c-3.6976 2.69162-6.4994 5.8363-7.3 10.6285-.5985.1019-1.1899.2423-1.7703.4205zM21.049 33.9988c.839-.1301 1.6614-.3515 2.4524-.6601-.3282-1.109-.5209-2.2536-.574-3.4089-3.7387-.3458-6.8031-1.3999-9.7535-5.0014.5693-.6973 1.1996-1.3424 1.8833-1.9278-.3657-.8207-.6622-1.6705-.8865-2.5406-1.62 1.2571-3.028 2.7657-4.1707 4.4683 2.6866 3.6896 5.8266 6.4986 10.6288 7.3007.1017.5984.242 1.1896.4202 1.7698zM35.2299 17.6283c-.102-.5985-.2424-1.1898-.4202-1.7702-.8395.1303-1.6622.3518-2.4536.6606.3297 1.1083.5225 2.253.574 3.4082 3.7458.3501 6.8031 1.4 9.7541 5.0013-.5692.6976-1.1994 1.3431-1.8833 1.9287.3655.8209.662 1.6708.8865 2.5409 1.6201-1.2576 3.0284-2.7666 4.1713-4.4696-2.6922-3.6971-5.8365-6.499-10.6288-7.2999zM36.999 31.8094c-.1299-.8395-.3513-1.6622-.6602-2.4535-1.1088.3289-2.2535.5216-3.4088.574-.3446 3.7413-1.4016 6.8042-5.0013 9.7539-.6973-.5692-1.3425-1.1995-1.9279-1.8832-.8207.3656-1.6704.6621-2.5404.8864 1.257 1.6203 2.7655 3.0287 4.4683 4.1715 3.7053-2.6976 6.5015-5.8474 7.3011-10.6294.5982-.1016 1.1891-.2418 1.7692-.4197z"/>
		<path d="M26.3802 13.6502c-.5012.6857-.9261 1.4241-1.2672 2.2019 1.0164.5512 1.9618 1.2241 2.8156 2.0037 2.8955-2.402 5.8008-3.8193 10.4341-3.36.09.8957.1004 1.7976.031 2.6951.8392.3212 1.65.7124 2.4238 1.1693.2568-2.0348.1856-4.0976-.2108-6.1098-4.5373-.7075-8.7231-.4678-12.6781 2.3544-.495-.3513-1.0122-.6702-1.5484-.9546zM16.6503 26.4769c.6856.5016 1.4239.9268 2.2019 1.2679.5509-1.0168 1.2237-1.9626 2.0035-2.8166-2.3939-2.8855-3.8211-5.7906-3.3598-10.4329.8956-.091 1.7977-.1018 2.6953-.0321.3214-.839.7124-1.6495 1.1691-2.4232-2.0348-.2556-4.0973-.1847-6.1097.21-.714 4.5575-.4557 8.7415 2.3543 12.6782-.3513.4951-.6702 1.0124-.9546 1.5487zM39.2084 23.3798c-.6858-.501-1.4241-.9258-2.2019-1.267-.5511 1.0167-1.2244 1.9622-2.0047 2.8156 2.3946 2.885 3.8214 5.7916 3.361 10.4339-.8957.0903-1.7977.1007-2.6953.0312-.322.839-.7132 1.6498-1.1697 2.4239 2.0345.2566 4.097.1855 6.1091-.2107.7093-4.5087.4747-8.715-2.3532-12.6783.3511-.4952.67-1.0125.9547-1.5486zM29.4771 36.2074c.5017-.6852.927-1.4233 1.2682-2.2011-1.0163-.5522-1.962-1.2253-2.8167-2.0046-2.8938 2.4023-5.8029 3.8203-10.4329 3.3607-.0911-.8955-.1019-1.7974-.0323-2.6949-.8386-.3223-1.6492-.7135-2.4232-1.1697-.2563 2.0345-.1853 4.0969.2102 6.109 4.5087.709 8.715.4747 12.6782-2.3533.495.351 1.0123.6697 1.5485.9539zM54.4512 23.741h2.4699c2.1098 0 3.2849 1.1482 3.2849 2.8975 0 1.9091-1.3221 2.964-3.4849 2.964h-4.326v-9.3464h7.1698v1.8561h-5.1137v1.6288zm0 1.709v2.2964h2.2699c.9612 0 1.4284-.3735 1.4284-1.1881 0-.7209-.4671-1.1083-1.4418-1.1083h-2.2565zM64.3683 20.1893h1.896l4.0054 9.4132h-2.1493l-.8546-2.0964h-3.9524l-.8545 2.0964h-2.096l4.0054-9.4132zm2.1632 5.5011l-1.2419-3.0308-1.2418 3.0308h2.4837zM71.2402 20.2561h2.0561v3.6987h3.792v-3.6987h2.0561v9.3464h-2.0561v-3.7521h-3.792v3.7521h-2.0561v-9.3464zM80.9165 20.2561h2.0561v4.0856l3.792-4.0856h2.4833l-3.8054 3.9655 3.9789 5.3809h-2.4699l-2.8975-3.979-1.0814 1.1217v2.8573h-2.0561v-9.3464zM94.1957 20.2561h2.2161l2.4569 3.9521 2.4573-3.9521h2.216v9.3464h-2.043v-6.1018l-2.6303 3.9924h-.0534l-2.6034-3.9525v6.0619h-2.0162v-9.3464zM107.37 23.741h2.47c2.109 0 3.284 1.1482 3.284 2.8975 0 1.9091-1.322 2.964-3.484 2.964h-4.326v-9.3464h7.169v1.8561h-5.113v1.6288zm0 1.709v2.2964h2.27c.961 0 1.428-.3735 1.428-1.1881 0-.7209-.467-1.1083-1.442-1.1083h-2.256zM117.287 20.1893h1.896l4.005 9.4132h-2.149l-.855-2.0964h-3.952l-.855 2.0964h-2.096l4.006-9.4132zm2.163 5.5011l-1.242-3.0308-1.242 3.0308h2.484zM123.705 24.5153h5.714v1.896h-5.714v-1.896zM131.072 20.2561h2.216l2.457 3.9521 2.457-3.9521h2.216v9.3464h-2.043v-6.1018l-2.63 3.9924h-.053l-2.604-3.9525v6.0619h-2.016v-9.3464zM141.776 24.9293c-.027-.9888.241-1.9631.771-2.7982.53-.8352 1.297-1.4931 2.204-1.8897.906-.3966 1.91-.5137 2.883-.3363.973.1773 1.871.6411 2.579 1.3318.708.6908 1.193 1.5771 1.395 2.5455.201.9684.109 1.9749-.265 2.8905-.375.9157-1.014 1.6988-1.835 2.2492-.822.5504-1.79.843-2.779.8403-.644.0161-1.286-.0971-1.886-.3327-.601-.2357-1.148-.5892-1.609-1.0396-.462-.4504-.829-.9886-1.079-1.583-.251-.5944-.38-1.2328-.379-1.8778zm7.784 0c.013-.3803-.05-.7594-.187-1.1147-.136-.3553-.342-.6796-.606-.9536-.264-.274-.581-.4921-.931-.6414-.35-.1494-.726-.2268-1.107-.2278-.379-.0006-.755.0759-1.105.225-.349.1491-.664.3676-.927.6424-.262.2747-.466.5999-.598.9557-.133.3559-.192.735-.174 1.1144-.013.3803.051.7593.187 1.1146.136.3552.343.6795.607.9534.264.274.58.4921.93.6414.35.1493.727.2267 1.107.2277.38.0007.756-.0758 1.105-.2249.349-.1491.665-.3676.927-.6423s.466-.5998.599-.9557c.132-.3558.191-.7349.173-1.1142zM152.653 24.9294c-.012-.6413.107-1.2783.348-1.8725.242-.5942.601-1.1334 1.056-1.5851.456-.4517.998-.8064 1.594-1.0429.596-.2364 1.234-.3497 1.876-.3329.677-.0219 1.351.1028 1.975.3655.624.2627 1.185.6572 1.643 1.1566l-1.229 1.4154c-.306-.3316-.677-.5956-1.091-.775-.414-.1793-.861-.2701-1.312-.2665-.373.0082-.74.0916-1.08.245-.34.1534-.646.3738-.899.648s-.448.5965-.574.9478c-.126.3512-.179.7242-.157 1.0966-.022.3725.031.7454.157 1.0967.126.3513.321.6736.574.9478.253.2741.558.4945.899.6478.34.1534.707.2366 1.08.2448.463-.0043.92-.1037 1.342-.292.423-.1884.802-.4617 1.115-.8029l1.308 1.402c-.672.7246-1.545 1.2326-2.507 1.4594-.962.2268-1.97.1621-2.895-.1858-.925-.348-1.725-.9634-2.299-1.768-.575-.8045-.896-1.7618-.924-2.7498zM162.45 20.2561h2.056v4.0856l3.792-4.0856h2.483l-3.805 3.9655 3.978 5.3809h-2.469l-2.898-3.979-1.081 1.1217v2.8573h-2.056v-9.3464zM171.859 20.2564h4.339c.892-.0587 1.771.2391 2.443.828.247.2574.431.5686.537.9091.106.3405.132.701.075 1.0531-.057.3521-.195.6861-.403.9758-.208.2897-.481.5271-.796.6935 1.081.4138 1.749 1.0415 1.749 2.3232 0 1.7091-1.389 2.5636-3.498 2.5636h-4.446v-9.3463zm3.899 3.7785c.907 0 1.481-.2937 1.481-1.0146 0-.6142-.48-.9612-1.348-.9612h-2.03v1.9758H175.758zm.547 3.7655c.908 0 1.455-.3205 1.455-1.0415 0-.6276-.467-1.015-1.522-1.015h-2.377v2.0565h2.444zM184.099 20.1893h1.896L190 29.6025h-2.149l-.855-2.0964h-3.952l-.855 2.0964h-2.096l4.006-9.4132zm2.163 5.5011l-1.242-3.0308-1.242 3.0308h2.484z"/>
	</g>
</svg>
