<svg xmlns="http://www.w3.org/2000/svg" viewBox="0 0 200 50">
	<path fill="#133371" d="M30.7583 40.3747 15 24.7588v15.6159h15.7583Z"/>
	<path fill="#0066A9" d="m30.7583 40.3747 15.7526-15.6159v15.6159H30.7583Z"/>
	<path fill="#00A6E2" d="M30.7925 9.22754V36.7174L16.9038 22.9443 30.7925 9.22754Z"/>
	<path fill="#133371" d="M96.2637 10.0171v-.86783h-5.0238v.89573l1.0803.0904.267.2144v9.4276l-.267.2818-1.0803.0849v.8679h5.0353v-.84l-1.0624-.0843-.2843-.2818v-4.3846h.6591c1.1481 0 1.6307.7948 1.9665 1.5896l1.3807 3.381v.6201h4.0232v-.84l-1.171-.0843-.477-.3041-1.171-2.5417c-.585-1.2909-1.0849-2.2096-2.4657-2.3899v-.0334c.5513-.2311.9202-.6201 1.3637-1.6286l.7276-1.6911c.1174-.3029.2784-.5873.4774-.845l1.073.9751c.168-.0031.333-.0391.486-.106.153-.0662.291-.1623.406-.2824.116-.1202.206-.2621.266-.4169.058-.1549.087-.3197.081-.4857.01-.1883-.023-.376-.095-.55069-.073-.17407-.183-.33017-.324-.45716-.141-.12637-.308-.22053-.49-.27504-.182-.05513-.374-.06876-.562-.0415-1.1877 0-1.8982.91866-2.5006 2.22629l-.7784 1.6906c-.5513 1.2228-.9267 1.4712-1.6536 1.4712h-1.2219v-4.024l.2843-.2423 1.0509-.1183Zm-20.4298 9.935L71.7538 9.00803h-1.864L65.8835 19.9861l-1.0627.1574v.8678h3.8301v-.8678l-1.1364-.1239-.1762-.2255 1.0797-2.992h3.8701l1.0624 3.0093-.1249.2311-1.1367.101v.8678h4.7906v-.8846l-1.0456-.1746Zm-4.0801-4.1535H68.742l1.54-4.3505 1.4718 4.3505Zm-8.2175-6.64933v2.81793h-1.2389l-.267-1.5555-.2329-.2763h-3.6542v4.125c.2456-.0278.5541-.0539.8651-.0737.1951-.0124.3912-.0223.5733-.0278.1189-.0038.232-.0056.3348-.0056 1.4945 0 4.5462.4398 4.5462 3.3816 0 3.0936-3.3131 3.4492-4.4666 3.4492h-5.5408v-.84l1.0683-.0843.2785-.2818v-9.4282l-.2785-.2144-1.0683-.0904v-.89573h9.081Zm-5.393 10.85423c.1081 0 .2305.0062.363.0136l.0555.0037c.1802.0105.3766.0217.5761.0217.7768.0657 1.5502-.1617 2.1653-.6368.2375-.223.4215-.4962.5377-.7997.1161-.3036.1613-.6294.1328-.9528 0-1.1274-.6364-2.5075-2.7277-2.5075-.202.0006-.4039.0105-.605.0303-.0817.0081-.1635.018-.2449.0297-.0846.0118-.1689.0254-.2528.0409v4.7569Zm23.8793 14.5332c0 3.6628-2.4608 6.1989-6.0977 6.1989-3.813 0-5.9214-2.8458-5.9214-6.2553-.0331-.853.1115-1.7042.4256-2.4995.3137-.7948.7898-1.5171 1.3987-2.1217 1.1182-1.0221 2.5934-1.5741 4.1142-1.5381 3.512-.0229 6.0806 2.4345 6.0806 6.2157Zm-8.547-3.5502c-.5693 1.0717-.8493 2.2716-.8124 3.4826-.0319 1.2049.2292 2.3992.7613 3.4826.2335.4981.6037.9206 1.0679 1.2191.4643.2992 1.0042.4628 1.5577.4715.9205 0 3.3125-.744 3.3125-5.0716.0406-1.2439-.2391-2.4772-.8124-3.5842-.2409-.4671-.607-.8598-1.058-1.1342-.4513-.2738-.9698-.42-1.4991-.4212-.2004.0018-.3993.0241-.5931.0669-.3126.0687-.6124.1901-.8865.3592-.4441.2745-.8034.6653-1.0379 1.1293Zm-19.0884 8.5882 1.1364-.1239.2444-.3159v-9.3718l-.21-.2305-1.1708-.0848v-.8679h4.6429v.4962l2.7674 8.1094 2.7504-8.0983v-.5129h4.6996v.8679l-1.2046.0842-.1988.2485v9.4282l.1988.2874 1.2046.0842v.8679H64.332v-.8679l1.1024-.0842.1762-.2874v-9.4902h-.0341l-3.6539 10.7074h-1.2788l-3.5629-10.6176h-.0285v9.3322l.267.3159 1.0968.1239v.8679h-4.029v-.8679Zm35.3756 1.0655c1.2216-.0037 2.4332-.2193 3.5802-.6368l.0055-3.0267h-1.2788l-.4433 2.1415-.2614.2651c-.0799.0186-.1604.0353-.241.0502l-.1003.0173-.1301.0199c-.2202.0309-.4423.0489-.6653.0532-3.0341 0-4.1708-2.406-4.1708-5.0715 0-2.0907.7105-3.2745 1.3526-3.9113.7071-.6801 1.6573-1.0549 2.6426-1.0425.4856-.005.9679.091 1.4145.2818l.2506.3042.3292 1.8714h1.313v-2.9536c-1.0918-.4064-2.2443-.6275-3.4095-.6535-1.627-.07-3.2256.4398-4.5069 1.4371-.6737.5897-1.207 1.3201-1.5629 2.1384-.3559.8183-.5247 1.7047-.4943 2.5955-.0081.5588.0607 1.1144.2031 1.6527l.0465.1661.018.0594.0412.1295c.0452.1369.095.2719.1499.4057.314.7657.7802 1.4607 1.3715 2.0443.5999.5748 1.3135 1.0196 2.0962 1.3058.783.2862 1.6171.4076 2.45.3568Zm9.8249-12.0603v.8679l-1.0682.0848-.2843.2478v4.0519h1.2274c.7274 0 1.0964-.2478 1.6484-1.4706l.779-1.6911c.601-1.3071 1.312-2.2542 2.5-2.2542.188-.0273.38-.0137.561.0409.182.0551.35.1492.491.2756.141.127.252.2831.324.4572.072.1747.105.3624.096.5507.005.166-.023.3308-.083.4856l-.027.0651-.01.021-.028.0577-.016.0266-.041.0681c-.02.0298-.041.0589-.063.0868l-.039.0477-.041.0439c-.115.1202-.253.2162-.406.2825-.153.0669-.318.1028-.485.1059l-1.046-.9694c-.202.2564-.365.5408-.483.8449l-.727 1.6912c-.444 1.0084-.813 1.3975-1.364 1.6285v.0335c1.387.1747 1.881 1.1274 2.466 2.3899l1.171 2.5416.477.3042 1.171.0842v.8679h-4.041v-.6195l-1.386-3.3816c-.335-.7948-.813-1.5945-1.9667-1.5945h-.6591v4.3839l.2843.2874 1.0682.0849v.8679h-5.029v-.902l1.0852-.0842.2615-.2874v-9.4227l-.2615-.2478-1.0852-.0848v-.8679h5.029Zm16.8893 2.7386c0-2.4567-2.75-2.7386-3.813-2.7386h-5.495v.8679l1.062.0842.285.2484v9.4227l-.285.2868-1.062.0848v.879h5.529c1.136 0 4.473-.3208 4.473-3.381 0-1.5722-1.046-2.9022-3.12-2.9022h-.108v-.034c1.33-.3382 2.534-1.0314 2.534-2.818Zm-5.391 2.538c-.076-.0006-.153-.0031-.229-.0075l.017-4.3052c.189-.0242.378-.0378.568-.0397.677-.0477 1.352.1134 1.933.4622.227.2031.405.4559.518.7384.061.153.103.3122.124.4745.019.1375.022.2769.011.4156.024.3122-.022.6257-.135.9181-.113.2924-.29.5562-.518.7724-.595.4027-1.305.6009-2.024.5637-.088.0056-.176.0081-.265.0075Zm.106 5.5943c-.125-.0086-.24-.0167-.335-.0167v-4.5592c.229-.0118.406-.0192.545-.0242.27-.0099.395-.0099.467-.0099.43-.0186.858.0316 1.269.1468.233.0657.46.1518.679.259.164.1108.309.2446.432.3964.057.0694.109.1425.155.2193.038.0626.073.127.104.1933.154.3264.215.687.179 1.045.024.3178-.021.6362-.131.9354-.109.2992-.282.5724-.505.8003-.676.5978-1.74.6368-2.381.6368-.15 0-.299-.0117-.437-.0223h-.041Zm13.31-10.9948 4.074 10.944 1.046.1747v.8679h-4.786v-.8679l1.137-.1016.125-.231-1.062-3.0094h-3.865l-1.062 2.9927.175.2254 1.137.1239v.8679h-3.813v-.8679l1.068-.1579 3.978-10.9608h1.848Zm-3.018 6.7906h3.018l-1.473-4.3672-1.545 4.3672Zm12.814 1.8038v-1.7357h-4.506v1.7357h4.506Zm11.655 2.953c-1.148.4175-2.362.6331-3.585.6368-.833.0514-1.668-.07-2.451-.3562-.526-.1926-1.022-.4571-1.472-.7848-.219-.1592-.427-.3333-.623-.5216-.591-.5836-1.058-1.2786-1.372-2.0443-.314-.7662-.47-1.5864-.458-2.4134-.031-.8908.138-1.7772.494-2.5955.355-.8183.889-1.5487 1.563-2.1384 1.279-1.0004 2.879-1.5102 4.506-1.4371 1.166.0266 2.318.2477 3.41.6541v2.953h-1.313l-.335-1.8881-.25-.3042c-.449-.1908-.933-.2862-1.42-.2819-.982-.0012-1.925.3792-2.626 1.0593-.637.6368-1.347 1.8206-1.347 3.9113 0 2.6655 1.136 5.0715 4.171 5.0715.383-.0068.764-.0539 1.137-.1406l.267-.2651.443-2.1415h1.278l-.017 3.0267Zm6.223-10.5556v-.8679h-5.012v.8679l1.029.0842.284.2875v9.3836l-.284.2868-1.029.0848v.8679h5.001v-.8679l-1.063-.0848-.284-.2868v-.6709l5.472-6.7007v7.3716l-.267.2868-1.079.0848v.8679h5.001v-.8679l-1.029-.0848-.284-.2868v-9.3836l.284-.2875 1.029-.0842v-.8679h-5.001v.8679l1.079.0842.267.2875v.4906l-5.461 6.7063v-7.1969l.285-.2875 1.062-.0842Zm19.032-.8679v3.1277h-1.222l-.301-1.8881-.267-.2311h-2.12v9.6147l.301.2868 1.137.0848v.8679h-5.302v-.8679l1.136-.0848.302-.2868v-9.6147h-2.121l-.283.2311-.284 1.8881h-1.223v-3.1277h10.247Zm6.03.8679v-.8679h-5.001v.8679l1.028.0842.284.2875v9.3836l-.284.2868-1.028.0848v.8679h5.001v-.8679l-1.069-.0848-.279-.2868v-.6709l5.462-6.7007v7.3716l-.267.2868-1.086.0848v.8679H185v-.8679l-1.028-.0848-.285-.2868v-9.3836l.285-.2875 1.028-.0842v-.8679h-5.001v.8679l1.086.0842.267.2875v.4906l-5.462 6.7063v-7.1969l.279-.2875 1.069-.0842ZM82.6244 9.14927v.86783l-1.0568.1183-.284.2819v3.8431h5.1146v-3.8716l-.267-.2812-1.0856-.0905v-.86783h5.0012v.86783l-1.0004.1183-.2785.2819v9.3607l.2785.2818 1.0283.0843v.8679h-5.0003v-.8679l1.0853-.0843.267-.2818v-4.4577h-5.1146v4.4577l.284.2818 1.0627.0843v.8679h-5.0009v-.8679l1.0286-.0843.2843-.2818v-9.3892l-.3242-.2534-1.0284-.0904v-.89573h5.0062Z"/>
</svg>