<svg xmlns="http://www.w3.org/2000/svg" viewBox="0 0 200 50">
	<path fill="#3E8FA4" d="M68.0591 22.7483c.308 5.2349-2.8667 9.4771-10.7491 13.8806.6951-5.6088-.0121-11.5626-2.3462-14.8062 1.6102-3.8015 2.6224-7.9025 2.6831-11.1172.4432.2112 10.0024 5.0235 10.4122 12.0428zM54.2393 20.957c-.1684-.1702-.3399-.3283-.522-.4757-2.4297-1.9517-6.128-2.5612-11.3941-1.4744 1.0396-8.1441 6.4118-12.1052 14.3746-8.7308-.003 3.0354-.9333 7.0269-2.4585 10.6809z"/>
	<path fill="#41A6E4" d="M37.0587 22.0515c1.3537-.6156 2.6103-1.1187 3.7879-1.523-.0152.1429-.7026 4.5524.4887 10.5639-1.6451-.1611-3.5041-.6095-5.6348-1.3664-1.9471-.6901-4.0596-1.6948-5.8883-3.0263 2.0549-2.0885 5.0157-3.6252 7.2465-4.6482zm-8.6795 3.4934c-2.0609-1.9-3.4798-4.3122-3.3736-7.2868.1973-5.1284 4.9033-8.89951 9.4227-11.14605 2.1641-1.07159 19.7362-9.09257 22.0611.68399.0228.09728.167 1.01231.1746 1.08831-.1958-.41951-4.8199-1.9851-8.3103-.57911-5.0157 2.03066-6.7685 6.96766-7.3588 11.00626-.9075.2219-1.8469.4924-2.8379.8056-3.1915 1.0229-7.2617 2.6903-9.7778 5.4278zm13.8407-5.4409c3.929-1.1126 6.817-.9181 8.8612.3465.8619.5305 1.6116 1.3908 2.2505 2.4898-1.3127 2.6372-2.9319 4.9415-4.7136 6.3292-.7664.6065-1.6223 1.0792-2.5829 1.3969-.8635.304-1.8211.4772-2.8789.5061-.6434-2.435-.9424-5.3746-1.0046-8.6244-.0197-.8481 0-1.6613.0683-2.4441z"/>
	<path fill="#5FAF61" d="M43.7425 35.9628c2.8425 3.2041 7.5257 3.4944 12.1119 2.3119-.3976 4.0477-1.6254 7.5209-3.7591 8.8205-4.1445 2.2769-13.8404-2.0824-19.7802-7.451-2.2491-2.017-3.9548-4.1769-4.615-6.1803-.261-.7721-.3672-1.523-.2929-2.2283.1639-1.4561.8468-2.7572 1.8272-3.9018 1.5995 1.4045 3.4009 2.5566 5.1461 3.4443 2.9578 1.4911 5.4694 2.2557 7.6441 2.3925.4477 1.0624 1.0153 2.0018 1.7179 2.7922zm4.4969-4.5173c2.1322-1.526 4.099-4.2468 5.6819-7.3704 1.6041 3.4884 2.3097 8.594 2.0184 13.1601-1.0214.4073-2.0442.7052-3.0413.8587-2.633.5168-5.1051.1961-6.8989-1.488-.9151-.8619-1.6436-2.0414-2.2051-3.4641 1.677-.1733 3.1354-.7569 4.445-1.6963z"/>
	<path fill="#5E656A" d="M79.4248 23.1642c-.1016 0-.188-.0356-.2592-.1068-.0712-.0711-.1068-.1575-.1068-.2592v-9.9279c0-.1118.0331-.2033.0992-.2745.066-.0712.155-.1068.2668-.1068h1.2353c.1932 0 .3457.0966.4575.2898l2.9433 5.4596 2.9433-5.4596c.1118-.1932.2643-.2898.4575-.2898h1.22c.1119 0 .2033.0356.2745.1068.0712.0712.1068.1627.1068.2745v9.9279c0 .1118-.0356.2008-.1068.2669-.0712.066-.1626.0991-.2745.0991h-1.3115c-.1017 0-.1881-.0356-.2593-.1068-.0711-.0711-.1067-.1575-.1067-.2592v-6.5576l-2.1198 4.0261c-.1118.2236-.2796.3355-.5032.3355h-.6405c-.2136 0-.3864-.1119-.5186-.3355l-2.1197-4.0261v6.5576c0 .1017-.0331.1881-.0992.2592-.066.0712-.155.1068-.2668.1068h-1.3116zm16.2437.1525c-1.3929 0-2.4756-.3508-3.2483-1.0523-.7727-.7015-1.1794-1.7436-1.22-3.1263-.0102-.2948-.0153-.7269-.0153-1.2962 0-.5795.0051-1.0167.0153-1.3115.0406-1.3522.4575-2.3892 1.2505-3.1111.793-.7218 1.8656-1.0828 3.2178-1.0828 1.342 0 2.4121.361 3.2102 1.0828.7981.7219 1.2173 1.7589 1.2583 3.1111.02.5896.03 1.0268.03 1.3115 0 .2745-.01.7066-.03 1.2962-.041 1.3827-.4501 2.4248-1.2278 3.1263-.7778.7015-1.858 1.0523-3.2407 1.0523zm0-1.769c.6812 0 1.22-.2034 1.6165-.61.3965-.4067.61-1.032.6405-1.8758.0204-.61.0305-1.0218.0305-1.2353 0-.2338-.0101-.6456-.0305-1.2352-.0305-.8337-.2491-1.4564-.6557-1.8682-.4067-.4118-.9405-.6176-1.6013-.6176-.671 0-1.2099.2058-1.6165.6176-.4067.4118-.6202 1.0345-.6405 1.8682-.0102.2948-.0153.7065-.0153 1.2352 0 .5185.0051.9303.0153 1.2353.0203.8337.2312 1.4564.6328 1.8681.4016.4118.943.6177 1.6242.6177zm6.9565 1.6165c-.102 0-.188-.0356-.259-.1068-.072-.0711-.107-.1575-.107-.2592v-9.9279c0-.1118.033-.2033.099-.2745.066-.0712.155-.1068.267-.1068h6.984c.112 0 .204.0356.275.1068.071.0712.107.1627.107.2745v1.0828c0 .1118-.036.2008-.107.2668-.071.0661-.163.0992-.275.0992h-5.2v2.4248h2.547c1.149 0 2.051.2846 2.707.854.655.5693.983 1.342.983 2.318 0 .5795-.142 1.1158-.427 1.6089-.284.4931-.704.8896-1.258 1.1895-.554.2999-1.222.4499-2.005.4499h-4.331zm4.117-1.6318c.519 0 .931-.1576 1.236-.4727.305-.3152.457-.7066.457-1.1743 0-.4575-.145-.8311-.435-1.1209-.289-.2897-.709-.4346-1.258-.4346h-2.333v3.2025h2.333zm5.889 1.6318c-.112 0-.201-.0356-.267-.1068-.066-.0711-.099-.1626-.099-.2745v-9.9126c0-.1118.033-.2033.099-.2745.066-.0712.155-.1068.267-.1068h1.418c.102 0 .188.0356.26.1068.071.0712.106.1627.106.2745v6.9693l4.987-7.0913c.092-.1728.239-.2593.442-.2593h1.281c.112 0 .201.0356.267.1068.066.0712.099.1627.099.2745v9.9279c0 .1017-.033.1881-.099.2592-.066.0712-.155.1068-.267.1068h-1.403c-.111 0-.203-.0356-.274-.1068-.071-.0711-.107-.1575-.107-.2592v-6.8169l-4.971 6.9236c-.102.1729-.249.2593-.443.2593h-1.296zm18.409 0c-.101 0-.188-.0356-.259-.1068-.071-.0711-.107-.1575-.107-.2592v-8.3724h-3.294v1.891c0 1.6776-.114 3.0018-.343 3.9727-.229.971-.618 1.6826-1.167 2.1351-.549.4524-1.316.6938-2.302.7243-.102.0102-.191-.0228-.267-.0991-.076-.0762-.115-.1652-.115-.2669v-1.1742c0-.1017.033-.183.1-.244.066-.061.149-.1017.251-.122.6-.0915 1.045-.5617 1.335-1.4107.289-.8489.434-2.1121.434-3.7897v-3.1872c0-.1119.036-.2008.107-.2669.071-.0661.158-.0992.259-.0992h6.771c.112 0 .204.0356.275.1068.071.0712.107.1627.107.2745v9.9279c0 .1017-.036.1881-.107.2592-.071.0712-.163.1068-.275.1068h-1.403zm4.623 0c-.101 0-.188-.0356-.259-.1068-.071-.0711-.107-.1575-.107-.2592v-9.9431c0-.1119.036-.2008.107-.2669.071-.0661.158-.0992.259-.0992h1.403c.112 0 .204.0356.275.1068.071.0712.107.1576.107.2593v3.477h1.952c1.22 0 2.16.2872 2.821.8616.661.5745.991 1.4107.991 2.5087 0 .6608-.145 1.253-.435 1.7766-.289.5236-.721.9354-1.296 1.2353-.574.2999-1.268.4499-2.081.4499h-3.737zm3.645-1.7233c.529 0 .943-.1601 1.243-.4804.3-.3202.45-.7447.45-1.2734 0-.5388-.145-.948-.435-1.2276-.29-.2796-.709-.4194-1.258-.4194h-1.86v3.4008h1.86zm6.102 1.7233c-.101 0-.188-.0356-.259-.1068-.071-.0711-.107-.1575-.107-.2592v-9.9279c0-.1118.033-.2033.099-.2745.066-.0712.155-.1068.267-.1068h1.403c.112 0 .204.0356.275.1068.071.0712.107.1627.107.2745v3.9193h4.453v-3.9193c0-.1118.035-.2033.106-.2745.072-.0712.158-.1068.26-.1068h1.418c.112 0 .201.0356.267.1068.066.0712.099.1627.099.2745v9.9279c0 .1017-.033.1881-.099.2592-.066.0712-.155.1068-.267.1068h-1.418c-.102 0-.188-.0356-.26-.1068-.071-.0711-.106-.1575-.106-.2592v-4.0718h-4.453v4.0718c0 .1017-.036.1881-.107.2592-.071.0712-.163.1068-.275.1068h-1.403zm10.22 0c-.091 0-.168-.0305-.229-.0915s-.091-.1373-.091-.2288l.03-.1372 3.66-9.8364c.102-.2542.285-.3813.549-.3813h1.678c.264 0 .447.1271.549.3813l3.66 9.8364.03.1372c0 .0915-.033.1678-.099.2288s-.139.0915-.221.0915h-1.357c-.214 0-.361-.0966-.442-.2898l-.702-1.8452h-4.514l-.701 1.8452c-.082.1932-.229.2898-.443.2898h-1.357zm3.035-3.9041h3.446l-1.723-4.697-1.723 4.697zm15.969-6.7711c.112 0 .201.0331.267.0992.066.0661.099.155.099.2669v9.9431c0 .1017-.033.1881-.099.2592-.066.0712-.155.1068-.267.1068h-1.403c-.112 0-.203-.0331-.274-.0991-.072-.0661-.107-.1551-.107-.2669v-3.4771h-1.678l-2.028 3.4313c-.061.1322-.137.2339-.229.305-.091.0712-.218.1068-.381.1068h-1.403c-.081 0-.155-.0305-.221-.0915s-.099-.1373-.099-.2288c0-.0508.015-.1067.045-.1677l2.212-3.6143c-.641-.244-1.139-.6329-1.495-1.1667-.356-.5337-.534-1.1869-.534-1.9596 0-.6405.145-1.2226.435-1.7462.29-.5235.722-.9378 1.296-1.2428.575-.3051 1.269-.4576 2.082-.4576h3.782zm-1.784 1.7081h-1.922c-.528 0-.94.1601-1.235.4804-.295.3202-.442.7447-.442 1.2733 0 1.0777.559 1.6166 1.677 1.6166h1.922v-3.3703zM87.6142 37.8959c.0305.0406.0458.0966.0458.1677 0 .0915-.0331.1729-.0992.244-.0661.0712-.1499.1068-.2516.1068h-1.6013c-.2033 0-.3558-.0864-.4575-.2593l-2.6078-4.1785h-1.4335v4.0718c0 .1017-.0356.1881-.1067.2592-.0712.0712-.1627.1068-.2745.1068h-1.4031c-.1016 0-.188-.0356-.2592-.1068-.0712-.0711-.1068-.1575-.1068-.2592v-9.9279c0-.1118.0331-.2033.0992-.2745.066-.0712.155-.1067.2668-.1067h1.4031c.1118 0 .2033.0355.2745.1067.0711.0712.1067.1627.1067.2745v3.9193l1.3115.0153 2.4553-4.0413c.1119-.1831.2949-.2745.549-.2745h1.5555c.1017 0 .1805.0305.2364.0915.0559.061.0839.1372.0839.2287 0 .0508-.0254.1118-.0763.183l-2.867 4.6513 3.1568 5.0021zm1.1459.5185c-.0915 0-.1677-.0305-.2287-.0915s-.0915-.1373-.0915-.2288l.0305-.1372 3.66-9.8364c.1017-.2542.2847-.3812.549-.3812h1.6776c.2643 0 .4473.127.549.3812l3.66 9.8364.0305.1372c0 .0915-.033.1678-.0991.2288-.0661.061-.1398.0915-.2211.0915H96.919c-.2135 0-.3609-.0966-.4423-.2898l-.7015-1.8452h-4.514l-.7015 1.8452c-.0814.1932-.2288.2898-.4423.2898h-1.3573zm3.0348-3.9041h3.4466l-1.7233-4.697-1.7233 4.697zm8.6791 3.9041c-.101 0-.188-.0356-.259-.1068-.071-.0711-.107-.1575-.107-.2592v-9.9279c0-.1118.034-.2033.1-.2745.066-.0712.155-.1067.266-.1067h4.088c1.23 0 2.196.2897 2.897.8692.702.5795 1.052 1.4234 1.052 2.5315 0 1.0981-.35 1.9292-1.052 2.4935-.701.5642-1.667.8463-2.897.8463h-2.242v3.5686c0 .1118-.036.2008-.107.2669-.071.066-.163.0991-.275.0991h-1.464zm4.011-5.6426c.59 0 1.04-.1398 1.35-.4194.31-.2796.465-.6888.465-1.2276 0-.5287-.15-.9404-.45-1.2353-.3-.2948-.755-.4422-1.365-.4422h-2.196v3.3245h2.196zm8.512 5.6426c-.102 0-.188-.0356-.259-.1068-.071-.0711-.107-.1575-.107-.2592v-8.4029h-2.821c-.102 0-.188-.0356-.259-.1067-.072-.0712-.107-.1627-.107-.2745v-1.1438c0-.1118.033-.2033.099-.2745.066-.0712.155-.1067.267-.1067h7.793c.111 0 .203.0355.274.1067.071.0712.107.1627.107.2745v1.1438c0 .1118-.036.2033-.107.2745-.071.0711-.163.1067-.274.1067h-2.806v8.4029c0 .1017-.033.1881-.1.2592-.066.0712-.155.1068-.266.1068h-1.434zm4.891 0c-.091 0-.168-.0305-.229-.0915s-.091-.1373-.091-.2288l.03-.1372 3.66-9.8364c.102-.2542.285-.3812.549-.3812h1.678c.264 0 .447.127.549.3812l3.66 9.8364.03.1372c0 .0915-.033.1678-.099.2288s-.14.0915-.221.0915h-1.357c-.214 0-.361-.0966-.442-.2898l-.702-1.8452h-4.514l-.701 1.8452c-.082.1932-.229.2898-.443.2898h-1.357zm3.035-3.9041h3.446l-1.723-4.697-1.723 4.697z"/>
</svg>
