<svg xmlns="http://www.w3.org/2000/svg" viewBox="0 0 200 50">
	<linearGradient id="a" x1="34.7" x2="62.9" y1="13" y2="36.6" gradientUnits="userSpaceOnUse">
		<stop stop-color="#fff"/>
		<stop offset=".1" stop-color="#CDD0D0"/>
		<stop offset=".2" stop-color="#A5ACAF"/>
		<stop offset=".3" stop-color="#98A0A4"/>
		<stop offset=".4" stop-color="#828A8F"/>
		<stop offset=".5" stop-color="#667075"/>
		<stop offset=".6" stop-color="#535C63"/>
		<stop offset=".7" stop-color="#475158"/>
		<stop offset=".8" stop-color="#434D54"/>
		<stop offset="1" stop-color="#475157"/>
	</linearGradient>
	<path fill="url(#a)" d="M67.1687 24.7899c0 10.1583-8.2205 18.3788-18.3788 18.3788-10.1582 0-18.3788-8.2205-18.3788-18.3788 0-10.1582 8.2206-18.37877 18.3788-18.37877 10.1583 0 18.3788 8.22057 18.3788 18.37877ZM48.7899 7.52678c-9.571 0-17.2631 7.69212-17.2631 17.26312 0 9.5711 7.7508 17.2632 17.2631 17.2632 9.5711 0 17.2632-7.7508 17.2632-17.2632 0-9.571-7.6921-17.26312-17.2632-17.26312Z"/>
	<linearGradient id="b" x1="35.5784" x2="62.0016" y1="13.6918" y2="35.8873" gradientUnits="userSpaceOnUse">
		<stop stop-color="#0B1F2A"/>
		<stop offset=".2" stop-color="#333F47"/>
		<stop offset=".5" stop-color="#81898D"/>
		<stop offset=".7" stop-color="#B3B8B8"/>
		<stop offset=".8" stop-color="#DEE0DD"/>
		<stop offset="1" stop-color="#FBFBFB"/>
	</linearGradient>
	<path fill="url(#b)" d="M48.79 7.52637c-9.5711 0-17.2631 7.69213-17.2631 17.26313 0 9.5711 7.7508 17.2632 17.2631 17.2632 9.5711 0 17.2632-7.7508 17.2632-17.2632 0-9.571-7.6921-17.26313-17.2632-17.26313Zm0 33.41063c-8.9252 0-16.1475-7.2223-16.1475-16.1475 0-8.9251 7.2223-16.14749 16.1475-16.14749S64.9375 15.8644 64.9375 24.7895c0 8.9252-7.2223 16.1475-16.1475 16.1475Z"/>
	<linearGradient id="c" x1="55.2327" x2="42.3735" y1="42.4682" y2="7.11982" gradientUnits="userSpaceOnUse">
		<stop stop-color="#E1E3E1"/>
		<stop offset=".1" stop-color="#C1C5C4"/>
		<stop offset=".3" stop-color="#9BA1A2"/>
		<stop offset=".5" stop-color="#7D8487"/>
		<stop offset=".7" stop-color="#687074" stop-opacity="0"/>
		<stop offset=".8" stop-color="#5B6469" stop-opacity="0"/>
		<stop offset="1" stop-color="#576065" stop-opacity="0"/>
	</linearGradient>
	<path fill="url(#c)" d="M48.7898 43.1686c10.1583 0 18.3788-8.2205 18.3788-18.3788 0-10.1582-8.2205-18.37877-18.3788-18.37877-10.1582 0-18.3788 8.22057-18.3788 18.37877 0 10.1583 8.2206 18.3788 18.3788 18.3788Zm0-37.1686c10.3344 0 18.7899 8.4554 18.7899 18.7898s-8.4555 18.7899-18.7899 18.7899C38.4554 43.5797 30 35.1242 30 24.7898 30 14.4554 38.4554 6 48.7898 6Z" opacity=".4"/>
	<path fill="#fff" d="M31.2915 24.8487c0-9.6297 7.8095-17.55671 17.498-17.55671 9.6885 0 17.4981 7.86821 17.4981 17.55671 0 9.6298-7.8096 17.4393-17.4981 17.4393-9.6885 0-17.498-7.8095-17.498-17.4393Zm5.4608-12.0959c-3.1121 3.1121-5.0498 7.3985-5.0498 12.0959 0 4.6975 1.9377 8.9839 4.9911 12.0373 3.112 3.0533 7.3985 4.991 12.0959 4.991 4.6975 0 8.9839-1.879 12.0373-4.991 3.112-3.0534 4.991-7.3398 4.991-12.0373 0-4.6974-1.9377-8.9838-4.991-12.0959-3.0534-3.11208-7.3398-5.04978-12.0373-5.04978-4.6974 0-8.9839 1.9377-12.0372 5.04978Z"/>
	<linearGradient id="d" x1="40.6866" x2="56.8928" y1="10.7566" y2="38.8239" gradientUnits="userSpaceOnUse">
		<stop stop-color="#E1E3E1"/>
		<stop offset=".1" stop-color="#C1C5C4"/>
		<stop offset=".3" stop-color="#9BA1A2"/>
		<stop offset=".5" stop-color="#7D8487"/>
		<stop offset=".7" stop-color="#687074" stop-opacity="0"/>
		<stop offset=".8" stop-color="#5B6469" stop-opacity="0"/>
		<stop offset="1" stop-color="#576065" stop-opacity="0"/>
	</linearGradient>
	<path fill="url(#d)" d="M48.7897 40.9964c-4.3451 0-8.3967-1.7028-11.45-4.7561-3.0534-3.0534-4.7562-7.1049-4.7562-11.4501 0-4.3451 1.7028-8.3967 4.7562-11.45 3.0533-3.0534 7.1049-4.75622 11.45-4.75622 4.3452 0 8.3967 1.70282 11.4501 4.75622 3.0533 3.0533 4.7562 7.1049 4.7562 11.45 0 4.3452-1.7029 8.3967-4.7562 11.4501-3.0534 3.0533-7.1049 4.7561-11.4501 4.7561Zm0-.4697c4.169 0 8.1619-1.6441 11.0978-4.58 2.9946-2.9947 4.58-6.9288 4.58-11.0978s-1.6441-8.1618-4.58-11.0977c-2.9947-2.9946-6.9288-4.58003-11.0978-4.58003S40.6279 10.8153 37.692 13.7512c-2.9946 2.8772-4.6388 6.87-4.6388 11.039s1.6442 8.1618 4.5801 11.0978c2.9946 2.9946 6.9874 4.6387 11.1564 4.6387Z" opacity=".4"/>
	<path fill="#fff" d="M63.0585 32.4226c-.2935-.2348-11.6262-9.2187-11.6262-9.2187L48.79 8.11328c-.1761.05872-.411.23487-.5284.46975l-1.879 14.67957-11.685 8.9839s-.2348.2936-.3523.4697c-.0587.1175-.0587.2936-.0587.4698l14.4447-5.9306L63.176 33.186c.1174-.2936 0-.5872-.1175-.7634Z"/>
	<path fill="#565F64" d="m48.9075 25.2588-.1175 2.7011 13.2704 5.3433c.4697.2349.822.1175 1.1743-.1174l-14.1511-7.9857c-.0587-.0587-.1761 0-.1761.0587Z"/>
	<linearGradient id="e" x1="56.1296" x2="55.1314" y1="29.1342" y2="30.7783" gradientUnits="userSpaceOnUse">
		<stop stop-color="#27343C"/>
		<stop offset="1" stop-color="#00111E" stop-opacity="0"/>
	</linearGradient>
	<path fill="url(#e)" d="M48.9072 25.2588s.7634 1.3505 1.6441 2.29c1.2331 1.3506 2.8772 2.29 2.8772 2.29l8.6316 3.4644c.4698.2349.8221.1175 1.1744-.1174l-14.1511-7.9857c-.0587-.0587-.1762 0-.1762.0587Z"/>
	<path fill="#A4AAAE" fill-opacity=".6" d="M63.1759 32.658c0-.0588-.0588-.1175-.1175-.2349l-12.0959-8.8665-1.6441 1.057s.1174.0587.1761 0c.1762-.0587.5285-.1175.8808 0 .2936.1174 12.8006 8.1031 12.8006 8.1031v-.0587Z"/>
	<path fill="#333E46" d="m62.7648 32.1293-11.2739-8.9252-.5285.3523 12.096 8.9252c-.0588-.1175-.1762-.2349-.2936-.3523Z"/>
	<path fill="#565F64" d="m49.0833 24.3791-.0588.0587s0 .1174.1175.0587c.0587-.0587 1.7615-.9395 2.3487-1.2918L49.4356 9.11234c-.0587-.52846-.2936-.76333-.7046-.93949l.2348 16.32365.1175-.1174Z"/>
	<path fill="#A4AAAE" fill-opacity=".6" d="M48.0853 9.1127v.76333L46.7935 22.8528c0 .1761.0587.3523.2348.4697l.7634.5872.5284-14.32726.0587-1.11564c-.1761.11743-.2348.35231-.2935.6459ZM47.3807 24.1438l-.7047-.5872-11.9198 8.6316s-.3523.2349-.411.4698l.411-.2349 12.507-7.8682c.2349-.1175.2936-.2349.1175-.4111Z"/>
	<path fill="#565F64" d="M48.6139 25.2588c0-.0587-.0588-.1174-.1175-.0587l-14.2098 8.0444c.3523.2349.7046.2936 1.1744.1174l13.2703-5.3433-.1174-2.7598Z"/>
	<linearGradient id="f" x1="53.2526" x2="51.6085" y1="23.0874" y2="20.4451" gradientUnits="userSpaceOnUse">
		<stop offset=".1" stop-color="#02131F"/>
		<stop offset=".9" stop-color="#02131F" stop-opacity="0"/>
	</linearGradient>
	<path fill="url(#f)" d="m49.0249 24.4379.0587-.0587-.0587.0587s0 .0587.0587.0587h.0587c.0588-.0587 1.7616-.9395 2.3488-1.2918l-.2349-1.7028-1.8203-12.38955c0-.23487-.0587-.41103-.1761-.52847 0 0 .8807 11.86112.8807 13.15292 0 1.7028-1.1156 2.701-1.1156 2.701Z"/>
	<linearGradient id="g" x1="48.79" x2="46.3239" y1="27.3727" y2="28.0773" gradientUnits="userSpaceOnUse">
		<stop offset=".2" stop-color="#02131F"/>
		<stop offset=".9" stop-color="#02131F" stop-opacity="0"/>
	</linearGradient>
	<path fill="url(#g)" fill-opacity=".8" d="M48.6139 25.2588c0-.0587-.0588-.1174-.1175-.0587l-14.2098 8.0444c.3523.2349.7046.2936 1.1744.1174l13.2703-5.3433-.1174-2.7598Z"/>
	<linearGradient id="h" x1="42.2134" x2="41.8611" y1="30.6029" y2="29.7221" gradientUnits="userSpaceOnUse">
		<stop stop-color="#02131F"/>
		<stop offset=".1" stop-color="#02131F"/>
		<stop offset="1" stop-color="#02131F" stop-opacity="0"/>
	</linearGradient>
	<path fill="url(#h)" d="m35.4608 33.3039 13.2704-5.3433-.1175-2.5836c-.2348.7046-.6459 1.4679-1.7615 2.0551-.8221.4697-8.6903 4.3451-11.5088 5.6957-.1761.1174-.411.1761-.5285.2348.2349.1175.4111.0587.6459-.0587Z" opacity=".8"/>
	<linearGradient id="i" x1="50.9035" x2="48.9071" y1="16.0998" y2="16.3347" gradientUnits="userSpaceOnUse">
		<stop offset=".3" stop-color="#02131F"/>
		<stop offset=".8" stop-color="#02131F" stop-opacity="0"/>
	</linearGradient>
	<path fill="url(#i)" d="m49.0833 24.3791-.0588.0587s0 .1174.1175.0587c.0587-.0587 1.7615-.9395 2.3487-1.2918L49.4356 9.11234c-.0587-.52846-.2936-.76333-.7046-.93949l.2348 16.32365.1175-.1174Z"/>
	<linearGradient id="j" x1="50.9622" x2="49.6117" y1="16.0411" y2="16.2172" gradientUnits="userSpaceOnUse">
		<stop offset=".4" stop-color="#27343C"/>
		<stop offset="1" stop-color="#3B474E" stop-opacity="0"/>
	</linearGradient>
	<path fill="url(#j)" d="m49.0833 24.3791-.0588.0587s0 .1174.1175.0587c.0587-.0587 1.7615-.9395 2.3487-1.2918L49.4356 9.11234c-.0587-.52846-.2936-.76333-.7046-.93949l.2348 16.32365.1175-.1174Z"/>
	<linearGradient id="k" x1="29.7652" x2="46.1476" y1="25.3178" y2="34.7714" gradientUnits="userSpaceOnUse">
		<stop stop-color="#25323B" stop-opacity="0"/>
		<stop offset=".1" stop-color="#27343C"/>
	</linearGradient>
	<path fill="url(#k)" d="M32.9947 32.0704c-.411-.9395-2.7597-5.5195-.1761-14.3272h-.9982c-.5285 1.7615-.9395 2.8184-1.1744 4.4038 0 0-.1174.5872-.1761 1.2331-.0588.6459-.0588.9982-.0588 1.4093 0 3.523.8808 5.5782.8808 5.5782.9395 2.9359 2.5836 5.5782 4.8149 7.5746 1.9377 1.7029 4.9323 2.9947 7.3985 3.4644-.411-.0587-7.4572-3.0533-10.5106-9.3362Z"/>
	<linearGradient id="l" x1="48.7902" x2="48.7902" y1="27.961" y2="25.1425" gradientUnits="userSpaceOnUse">
		<stop offset=".3" stop-color="#A5ABAF"/>
		<stop offset="1" stop-color="#A5ABAF" stop-opacity="0"/>
	</linearGradient>
	<path fill="url(#l)" d="M49.025 25.1425h-.5284c.0587 0 .1174 0 .1174.0587l.1175 2.701h.0587l.1174-2.701c0-.0587.0587-.1174.1174-.0587Z"/>
	<linearGradient id="m" x1="58.0088" x2="58.0088" y1="7.35059" y2="43.1687" gradientUnits="userSpaceOnUse">
		<stop stop-color="#6B7378"/>
		<stop offset=".2" stop-color="#333F47"/>
		<stop offset=".5" stop-color="#27343C"/>
		<stop offset=".8" stop-color="#333F47"/>
		<stop offset="1" stop-color="#434D54"/>
	</linearGradient>
	<path fill="url(#m)" d="M54.6619 7.35059c6.1654 2.34872 11.9785 8.80771 11.9785 16.96961 0 9.8646-7.8683 17.909-17.8504 17.909v.9395c9.9821 0 18.3788-8.2205 18.3788-18.3788 0-8.1031-5.1672-14.91443-12.5069-17.43931Z"/>
	<linearGradient id="n" x1="63.6454" x2="55.7185" y1="10.7562" y2="22.3824" gradientUnits="userSpaceOnUse">
		<stop offset=".7" stop-color="#49545B"/>
		<stop offset=".8" stop-color="#fff" stop-opacity="0"/>
	</linearGradient>
	<path fill="url(#n)" d="M64.5262 17.8611C60.4159 8.40749 51.1385 7.87903 50.61 7.82031h-.0587c7.1049 1.2918 11.6262 5.93059 13.2116 10.80419v.0587c.7046 1.879 1.0569 3.8754 1.1156 6.048.0587 2.0551-.411 4.3451-1.2918 6.459-.0587.2936-.1174.6459-.1761.6459h.9395c2.8184-5.2847 1.5853-10.628.1761-13.975Z"/>
	<path fill="#FBFBFB" d="M31.2915 24.8487c0-9.6297 7.8095-17.55671 17.498-17.55671 9.6885 0 17.4981 7.86821 17.4981 17.55671 0 9.6298-7.8096 17.4393-17.4981 17.4393-9.6885 0-17.498-7.8095-17.498-17.4393Zm5.4608-12.0959c-3.1121 3.1121-5.0498 7.3985-5.0498 12.0959 0 4.6975 1.9377 8.9839 4.9911 12.0373 3.112 3.0533 7.3985 4.991 12.0959 4.991 4.6975 0 8.9839-1.879 12.0373-4.991 3.112-3.0534 4.991-7.3398 4.991-12.0373 0-4.6974-1.9377-8.9838-4.991-12.0959-3.0534-3.11208-7.3398-5.04978-12.0373-5.04978-4.6974 0-8.9839 1.9377-12.0372 5.04978Z"/>
	<path fill="#333F47" d="m34.6387 32.3061 11.9785-8.6315c.6459.3523 1.7028.822 1.8203.822.1174.0587.1174-.0587.1174-.0587l-1.468-1.2331c-.1761-.1174-.2348-.2936-.2348-.4697l1.4092-14.15112c-.0587.05872-.0587.17616-.1174.23488-.0588.11743-.0588.17615-.0588.29359L46.03 23.2635 34.7561 32.13c-.0587.0587-.1174.1174-.1174.1761Z"/>
	<path fill="#1E1E1F" d="M120.858 21.7145c-.253-.252-.262-.435-.262-5.2857 0-3.8807.05-4.8402-.274-4.9892-.147-.0673-.369.0304-.706.0993-.288.0588-.744.1431-1.014.1877-.617.1018-.63.2919-.029.4046.254.0475.519.1931.589.3236.07.1304.127.9504.127 1.8221v1.5846l-.343-.4062c-.46-.5461-.968-.7889-1.644-.7855-1.679.0085-2.824 1.4248-2.951 3.6527-.113 1.9919.539 3.458 1.823 4.0968 1.082.5381 1.977.4309 2.737-.3272l.496-.4952.104.5274c.058.2901.15.526.205.5244.055-.0015.437-.0706.85-.1533.412-.0828.884-.1768 1.049-.2086.381-.0736.246-.3113-.177-.3113-.175 0-.436-.1174-.58-.261Zm12.808 12.4102-.035-3.5736c-.025-2.5855.018-3.355-.274-3.5145-.162-.0888-.428.0115-.868.0928-.359.0665-.845.1504-1.078.1862-.586.0903-.532.2551.131.3945l.555.1169.035 4.8284c.029 4.0201.051 4.9086-.305 5.1023-.117.0634-.274.0524-.485.0524-.138 0-.241.0224-.293.0604-.034.0241-.046.0546-.035.0895.075.2227 3.633.2356 3.633.0132 0-.0896-.136-.1631-.302-.1631-.652 0-.807-.2778-.847-1.5229l-.037-1.1526.619-.6398c.34-.3519.637-.5868.66-.522.023.0648.556 1.0256 1.184 2.1353l1.142 2.0175 1.144.0079c.841.0058 1.144-.036 1.144-.1577 0-.0556-.057-.1049-.143-.135-.055-.0194-.122-.0307-.194-.0307-.5 0-.911-.4945-2.258-2.7155l-1.211-1.9976.923-1.0222c.906-1.0038 1.541-1.4428 2.085-1.4428.151 0 .275-.074.275-.1645 0-.1236-.407-.1641-1.635-.1631-1.651.0013-2.077.1407-1.218.3984.229.0687.438.1925.464.2748.027.0823-.587.8241-1.364 1.6485l-1.412 1.4986ZM80.5881 19.5611c-.0478.0295-.7576-1.7644-1.5774-3.9865l-1.4905-4.04h-1.4731c-1.1614 0-1.4732.0378-1.4732.179 0 .1071.2037.2116.5059.2599.2238.0357.3895.0538.5094.1374.3527.246.3087 1.0585.1782 4.5529-.0862 2.3114-.1899 4.4264-.2306 4.7006-.0758.5126-.2305.637-.9956.8004-.1979.0422-.3596.149-.3596.2374 0 .1195.4208.1572 1.6371.1471.9003-.0076 1.6783-.0548 1.7286-.1051.1251-.1249-.2307-.3337-.5728-.3361-.1539-.0012-.4057-.1048-.5596-.2305l-.2799-.2283.1401-3.8502c.1164-3.1966.135-4.5447.3299-4.5705.1541-.0206.4183.7848.9281 2.1561.5338 1.4356 1.3071 3.5637 1.7186 4.7287.4114 1.1652.8136 2.1197.8937 2.1209.0801.0012.39-.6878.6886-1.5313.2986-.8434 1.0914-2.9915 1.7619-4.7738l1.2189-3.2402.0797 4.4035c.0494 2.7397.0317 4.4925-.0467 4.6388-.0694.1295-.3605.2984-.6469.3754-.2865.077-.5208.211-.5208.2981 0 .117.5276.158 2.0298.158 1.7337 0 2.0245-.0285 1.9928-.1957-.0214-.1135-.2097-.2126-.4471-.2357-.191-.0186-.3382-.0316-.4529-.0993-.3882-.2291-.4051-1.0849-.4923-4.903-.0562-2.4668-.0769-4.5842-.0457-4.7053.0576-.2244.6591-.4977 1.0958-.4977.1331 0 .2419-.0881.2419-.1958 0-.1625-.252-.1957-1.4838-.1957h-1.4837l-1.48 3.9865c-.8139 2.1925-1.519 4.0105-1.5668 4.04Zm64.5409-3.1077c1.723-.8895 1.751-3.5082.049-4.5074-.583-.3423-.622-.3465-3.499-.3877-2.484-.0356-2.909-.0138-2.909.1491 0 .2176.272.3492.722.3492.688 0 .716.2008.716 5.0288 0 3.3557-.04 4.5023-.163 4.6666-.09.1198-.395.265-.677.3224-.183.0374-.355.1005-.461.1642-.057.0344-.095.0689-.106.0997-.04.1222.612.1586 2.802.1565 2.588-.0027 2.909-.0277 3.443-.2688 2.475-1.1183 2.599-4.5512.194-5.3822l-.519-.1796.408-.2108Zm-31.961 12.1424c-.297-.5686-1.044-1.1878-1.627-1.3493-.272-.0753-1.685-.1372-3.141-.1376-2.252-.0006-2.648.0283-2.648.1926 0 .1792.187.2581.847.3575.556.0837.595.4346.559 5.1527-.023 3.1006-.078 4.5086-.181 4.6108-.081.081-.39.1797-.686.2194-.348.0465-.539.1386-.539.2595 0 .1585.457.1809 2.974.146 2.601-.0363 3.032-.072 3.432-.2847 1.389-.7383 2.078-2.2004 1.701-3.6082-.185-.6908-1.032-1.5779-1.687-1.7673l-.429-.1239.593-.4161c.325-.2289.694-.6107.818-.8483.294-.5603.301-1.8556.014-2.4031Zm29.426-12.102-.948.0002v-4.4374l1.014.0005c1.681.0009 2.255.5559 2.255 2.1791 0 1.6649-.609 2.2573-2.321 2.2576Zm-33.083 15.5735-1.013.0003v-4.4374l1.013.0002c1.769.0003 2.385.5742 2.386 2.2206 0 1.6271-.634 2.2161-2.386 2.2163Zm-3.618-14.9207c.155 0 .191-.2553.191-1.3704 0-1.0775-.039-1.3704-.181-1.3704-.099 0-.253.1763-.342.3916-.09.2154-.188.3915-.218.3915s-.234-.1322-.453-.2936c-.603-.445-1.928-.4169-2.738.0576-1.776 1.0404-2.3488 4.1328-1.153 6.2226 1.25 2.1843 4.338 2.0064 5.021-.2891.253-.8526.251-.8685-.131-.8685-.276 0-.347.0885-.475.5971-.086.341-.332.7886-.573 1.0441-.37.391-.503.4469-1.065.4469-.774 0-1.128-.2231-1.514-.9547-.239-.4539-.296-.8141-.338-2.1318-.061-1.9289.156-2.8625.823-3.5278.369-.3683.527-.4333 1.051-.4333.539 0 .679.0621 1.112.4941.294.2938.555.7172.643 1.0441.089.3278.226.55.34.55Zm28.366-.1305c.161 0 .196-.232.196-1.3051 0-.7831-.052-1.3052-.13-1.3052-.072 0-.131.0476-.131.1057 0 .058-.078.2118-.173.3414-.165.225-.194.2255-.608.0119-.326-.1684-.669-.2126-1.375-.177-.793.0399-1.018.1063-1.433.422-.629.4791-.902 1.1223-.824 1.9394.083.8636.423 1.1865 2.059 1.9581 1.694.7989 1.962 1.0272 1.962 1.676 0 1.0086-1.15 1.7485-2.199 1.4143-.678-.216-1.159-.7124-1.404-1.4482-.12-.3599-.29-.6315-.396-.6315-.148 0-.185.2738-.185 1.3703 0 1.1312.034 1.3704.196 1.3704.108 0 .196-.0474.196-.1055s.078-.2115.172-.3411c.166-.2255.195-.2238.714.0404.394.2006.784.2757 1.432.2757 1.046 0 1.6-.2456 2.187-.9692.345-.425.394-.5878.396-1.3211.002-.7692-.032-.87-.419-1.2569-.232-.2313-1.085-.7464-1.896-1.1449-1.674-.822-1.931-1.1122-1.673-1.8916.269-.8139 1.395-1.2187 2.214-.796.418.2161.917 1.0477.923 1.5393.002.1257.091.2284.199.2284Zm-40.5229.8157c-.2398-1.7059-.9462-2.7649-2.0662-3.0969-.7209-.2138-1.152-.2335-1.6688-.0766-.9872.2998-1.6544.8988-2.1168 1.901-.2567.5558-.3013.8653-.3013 2.0882 0 1.5814.2383 2.3577.955 3.1116 1.5402 1.6203 4.3579 1.1029 5.051-.9275.2662-.78.2615-.8137-.1122-.8137-.2506 0-.35.1022-.4758.4894-.3474 1.0692-.9952 1.5987-1.9553 1.5987-1.307 0-1.9598-.8654-2.1414-2.8386l-.0751-.8157h4.9939l-.087-.6199Zm2.9802-2.4907c-.0206-.1254-.0347-.2626-.0373-.3806-.0036-.1661-.0024-.2736-.0554-.3335-.0991-.1122-.3877-.0573-1.2511.0938-.8689.1522-1.2545.4665-.5766.4702.2094.0011.3611-.0006.4717.0658.2948.1768.2991.836.3302 3.314.0378 3.0095.0289 3.141-.2288 3.3982-.1474.1471-.4152.2676-.5949.2676-.1798 0-.3269.0735-.3269.1631 0 .1227.4533.1631 1.8304.1631 1.3772 0 1.8305-.0404 1.8305-.1631 0-.0598-.0597-.1124-.148-.1408-.0441-.0142-.0953-.0223-.1497-.0223-.1638 0-.4286-.0916-.5884-.2032-.2817-.1969-.2906-.2736-.2906-2.5213 0-2.5518.1523-3.4.7031-3.9166.2118-.1988.4383-.2821.6888-.2534.3208.0366.3792.1066.4165.4989.0552.5814.227.7835.6655.7835.4812 0 .6637-.2244.6637-.815 0-1.2034-1.5567-1.6848-2.6038-.8054-.214.1797-.4304.4564-.4809.6147-.0891.2803-.0944.2809-.1939.0269-.0277-.0709-.054-.1821-.0741-.3046Zm16.7457 2.5559c-.251-1.8018-1.007-2.913-2.181-3.2082-1.173-.2947-2.001-.0776-2.845.7458-.928.9047-1.22 1.7952-1.139 3.4739.069 1.4412.257 2.0145.898 2.7437 1.051 1.1937 2.916 1.4188 4.134.4983.539-.4067.789-.7861 1.018-1.5473l.182-.6019-.337.0409c-.256.0311-.376.1574-.503.5292-.395 1.1532-1.063 1.6103-2.193 1.502-1.103-.1058-1.721-.9899-1.879-2.688l-.087-.9337h5.009l-.077-.5547Zm15.067-.2078c-.14-1.3345-.731-2.3489-1.646-2.821-.502-.2592-1.486-.3596-2.072-.2113-1.72.4362-2.777 2.576-2.399 4.8585.285 1.7212 1.147 2.789 2.515 3.1166 1.637.392 3.355-.6233 3.6-2.1268.074-.4593.059-.4873-.265-.4873-.222 0-.344.0709-.344.2009 0 .3157-.464 1.1378-.839 1.4875-.474.4419-1.663.5258-2.248.1587-.582-.3653-.971-1.257-1.06-2.4305l-.075-.9828h4.913l-.08-.7625Zm25.522-.4384c-.243-1.146-.796-1.9913-1.565-2.3926-.435-.2269-1.509-.3366-2.014-.2059-1.662.4301-2.489 1.7834-2.48 4.0604.005 1.1077.048 1.3319.41 2.1025.459.9796 1.008 1.4726 1.966 1.7661 1.406.4311 2.862-.1539 3.484-1.3994.441-.8844.447-1.164.024-1.164-.263 0-.347.0922-.458.5049-.27 1.0031-1.001 1.5836-1.992 1.5827-1.227-.001-1.936-.9198-2.039-2.6423l-.06-1.0115h2.435c1.645 0 2.241.0376 2.396-.2054.106-.1664.006-.4642-.107-.9955Zm3.303-1.5258-.089-.5942c-.096-.6351-.159-.6676-.91-.465-.215.0584-.613.1438-.882.1899-.648.1109-.676.4637-.038.4637.315 0 .495.0775.589.2525.082.1527.135 1.4169.135 3.1975 0 2.7711-.015 2.9605-.261 3.2061-.144.1437-.409.2611-.589.2611-.108 0-.204.0265-.263.0671-.04.027-.064.0602-.064.096 0 .1225.441.1631 1.766.1631 1.324 0 1.765-.0406 1.765-.1631 0-.0896-.122-.1631-.271-.1631-.148 0-.383-.0608-.523-.1351-.237-.1267-.252-.2983-.252-2.7537 0-2.1204.039-2.7016.207-3.0548.389-.8181 1.351-1.1544 2.144-.7496.736.3757.782.5894.785 3.5843.002 2.9285-.04 3.1089-.727 3.1089-.175 0-.317.0735-.317.1631 0 .1231.433.1599 1.765.1499 1.683-.0128 2.253-.1508 1.367-.3317-.226-.0461-.479-.1516-.562-.2346-.101-.1007-.173-1.093-.217-2.9832-.058-2.527-.094-2.8801-.327-3.2754-.41-.6951-.875-.9682-1.758-1.0321-1.028-.0742-1.35.0198-1.962.5719l-.511.4605Zm-32.742 15.5791-.09-.5971c-.04-.2664-.059-.4266-.149-.5044-.139-.1202-.448-.0446-1.265.1393-.969.2183-1.228.5511-.429.5511.314 0 .494.0775.588.2525.082.1526.136 1.4169.136 3.1975 0 2.7711-.016 2.9605-.262 3.2061-.144.1436-.408.261-.588.261s-.327.0735-.327.1631c0 .1225.44.1632 1.765.1632s1.765-.0407 1.765-.1632c0-.0896-.143-.1631-.318-.1631-.681 0-.728-.1918-.728-2.9805 0-3.028.082-3.3111 1.078-3.7261.682-.2841 1.092-.2247 1.629.2357l.366.3138.04 2.9118c.036 2.6482.019 2.9271-.189 3.0787-.125.0915-.364.1666-.53.1666-.102 0-.192.0274-.247.0691-.034.0266-.055.0591-.055.094 0 .2224 3.558.2095 3.633-.0132.03-.0899-.102-.1499-.329-.1499-.207 0-.492-.0832-.631-.1851-.235-.171-.259-.4073-.32-3.1231-.06-2.7202-.085-2.9653-.338-3.3061-.517-.695-1.056-.9554-1.978-.9554-.926 0-1.214.1072-1.818.6781l-.409.3856Zm-4.217 3.2432c-.075-3.2346-.151-3.4956-1.174-4.0132-1.644-.8317-4.055.078-4.055 1.5297 0 .4887.15.6563.589.6563.33 0 .587-.4041.587-.9227 0-.6219.319-.9848.973-1.1072 1.219-.2283 1.748.3871 1.767 2.0567.006.4588-.019.4876-.484.5639-2.437.3995-3.846 1.4508-3.846 2.8679 0 1.1953.739 1.9163 2.051 1.9995 1.024.0651 1.507-.1096 2.019-.7307l.378-.457.194.4645c.247.5892.59.7709 1.364.721.463-.0298.626-.0962.659-.268.034-.1765-.046-.2284-.351-.2284-.216 0-.441-.0733-.499-.1631-.059-.0896-.136-1.4259-.172-2.9692Zm47.536-16.1605c1.09-1.7839 2.012-3.3213 2.049-3.4165.054-.14-.444-.1729-2.619-.1729-1.853 0-2.455-.05-2.698.2211-.156.1733-.165.4777-.26 1.0102-.075.4258-.138.793-.138.8157 0 .0227.074.041.164.0408.09-.0001.31-.2749.49-.6106.522-.9749.786-1.1028 2.187-1.0583l1.195.0379-2.145 3.5238c-1.18 1.9382-2.147 3.5679-2.149 3.6217-.002.0538 1.256.0979 2.794.0979h2.798l.152-.881c.083-.4846.184-1.013.224-1.1746.135-.554-.304-.318-.536.2875-.122.3198-.426.7603-.676.9789-.441.3864-.49.3976-1.761.3976-1.225 0-1.299-.0151-1.18-.2377.07-.131 1.019-1.6975 2.109-3.4815Zm-78.9751-.8248c0-.6536.4052-1.7535.7859-2.1336.2878-.2873.4919-.37.9123-.37.1423 0 .2982.0138.4374.0363.1521.0247.2841.0598.3566.0985.3881.2073.7979 1.1339.8745 1.9767l.069.7598H88.9559v-.3677Zm19.7421-.0842c0-.6546.486-1.8487.876-2.1553.483-.3794 1.34-.3566 1.776.0473.364.3361.748 1.429.748 2.1269v.433h-3.4v-.4519Zm15.094-.0336c.197-1.0946.378-1.5414.791-1.9537.344-.3439.538-.4321.951-.4321.935 0 1.553.8408 1.632 2.2187l.033.5873-1.748.0366-1.747.0366.088-.4934Zm25.774-.811c.216-.7624.474-1.1655.907-1.4165.413-.2387 1.168-.1876 1.54.1043.396.3108.724 1.1389.775 1.9561l.037.5873-1.732.0365c-1.087.0228-1.558.0521-1.699-.1489-.117-.1675-.005-.4948.172-1.1188Zm-33.784 2.4108c-.064-1.8933.108-2.7842.655-3.4065.338-.3844.478-.4486.974-.4486.77 0 1.138.2664 1.488 1.0779.546 1.2676.501 3.9065-.088 5.1455-.362.7626-1.232 1.0284-2.024.6193-.669-.3453-.944-1.1635-1.005-2.9876Zm26.099 2.815c-.271-.2168-.235-.8173-.235-2.4579V16.985l1.215.053c1.981.0864 2.598.6713 2.592 2.4573-.005 1.7345-.743 2.4802-2.454 2.4802-.596 0-.931.0336-1.118-.1165Zm-33.267 15.2985c-.124-.4471-.14-4.3696-.018-4.4938.185-.1893 2.426-.0058 2.886.2363.917.4826 1.263 2.4282.641 3.6033-.443.8347-.955 1.0601-2.312 1.0163-1.055-.034-1.11-.0507-1.197-.3621Zm30.043-18.7058-.042-.3589-.041-.3589-1.471-.037-1.471-.0368v.7916h3.025Zm-22.542 17.3171c.088-.7746.703-1.4165 1.683-1.754.386-.133.843-.2439 1.015-.2462l.313-.0044-.072 1.2157c-.087 1.4431-.321 2.0841-.864 2.3649-1.179.6084-2.231-.1908-2.075-1.576Z"/>
</svg>