<svg xmlns="http://www.w3.org/2000/svg" viewBox="0 0 200 50">
	<path fill="#253C77" d="M56.51 33.56h-2.18c-.2267 0-.34-.12-.34-.36V16.8c0-.24.1133-.36.34-.36h2.61c.0834-.006.1664.0165.2354.0637.069.0472.12.1164.1446.1963l2.92 5.43c.6067 1.1333 1.2733 2.5367 2 4.21h.1c.7467-1.6733 1.4133-3.0767 2-4.21l2.96-5.43c.0363-.078.0943-.1439.1669-.19.0727-.0461.1571-.0704.2431-.07h2.58c.0488-.0066.0985-.0018.1452.0139.0467.0158.0891.0421.124.0769.0348.0349.0611.0773.0769.124.0157.0467.0205.0964.0139.1452v16.4c.0066.0488.0018.0985-.0139.1452-.0158.0467-.0421.0891-.0769.124-.0349.0348-.0773.0611-.124.0769-.0467.0158-.0964.0205-.1452.0139h-2.18c-.2267 0-.34-.12-.34-.36v-4.82c0-1.88.0633-4.3833.19-7.51h-.07c-.48 1.04-1.1967 2.5167-2.15 4.43l-2.11 4.09c-.033.0805-.0902.1487-.1636.1953-.0735.0465-.1595.0692-.2464.0647h-1.81c-.0871.006-.1739-.016-.2476-.0628-.0738-.0467-.1307-.1158-.1624-.1972l-2.1-4.12c-.96-1.9133-1.6767-3.39-2.15-4.43h-.07c.1267 3.1267.19 5.63.19 7.51v4.85c.0066.0488.0018.0985-.0139.1452-.0158.0467-.0421.0891-.0769.124-.0349.0348-.0773.0611-.124.0769-.0467.0158-.0964.0205-.1452.0139zM84 29c.0308.6614-.0861 1.3213-.342 1.9319-.256.6105-.6448 1.1565-1.138 1.5981-1.1506.8464-2.5416 1.3029-3.97 1.3029-1.4284 0-2.8194-.4565-3.97-1.3029-.4987-.4388-.893-.9835-1.1543-1.5942-.2612-.6107-.3828-1.2721-.3557-1.9358v-3.21c-.03-.6701.087-1.3387.3426-1.9588.2557-.6202.6439-1.1769 1.1374-1.6312 1.1416-.8678 2.536-1.3377 3.97-1.3377 1.434 0 2.8284.4699 3.97 1.3377.499.4515.8928 1.007 1.1537 1.6273.2609.6203.3825 1.2903.3563 1.9627V29zm-8.11 0c0 1.56.8867 2.34 2.66 2.34.7181.0553 1.431-.1586 2-.6.2251-.2269.3981-.5.5069-.8005.1087-.3005.1508-.6211.1231-.9395v-3.21c.0193-.3303-.0323-.6609-.1513-.9696-.119-.3088-.3027-.5885-.5387-.8204-.5754-.4091-1.264-.6289-1.97-.6289s-1.3945.2198-1.97.6289c-.2371.237-.4205.5221-.5378.8361-.1173.314-.1658.6495-.1422.9839V29h.02zm11.68 7.77h-1.94c-.0445.0047-.0895-.0006-.1317-.0155-.0421-.0149-.0805-.039-.1121-.0707-.0316-.0316-.0558-.0699-.0707-.1121-.0149-.0422-.0202-.0872-.0155-.1317v-5c-.0047-.0445.0006-.0895.0155-.1317.0149-.0421.0391-.0805.0707-.1121.0316-.0316.07-.0558.1121-.0707.0422-.0149.0872-.0202.1317-.0155h.53c.6863-.6652 1.1179-1.5497 1.22-2.5.419-2.3549.6995-4.7323.84-7.12.0013-.0455.0117-.0903.0306-.1318.0189-.0414.046-.0786.0795-.1094.0336-.0308.073-.0545.116-.0698.0429-.0152.0884-.0217.1339-.019h7.94c.24 0 .36.11.36.33v9.61h1.22c.0488-.0066.0985-.0018.1452.0139.0467.0158.0891.0421.124.077.0348.0348.0611.0772.0769.1239.0157.0467.0205.0964.0139.1452v5c0 .22-.12.33-.36.33h-1.94c-.24 0-.36-.11-.36-.33v-2.9h-7.87v2.88c0 .22-.12.33-.36.33zm3.23-13.18c-.32 3.9533-.87 6.4567-1.65 7.51h5v-7.51H90.8zm17.11 6.6v-8.7c0-.22.12-.33.36-.33h2.06c.24 0 .36.11.36.33v11.26c0 3.7133-1.78 5.57-5.34 5.57-1.693.0726-3.357-.463-4.69-1.51-.04-.0235-.075-.0557-.101-.0943-.026-.0387-.043-.0827-.05-.1288-.006-.0461-.003-.0932.011-.1377.014-.0444.038-.0852.07-.1192l1-1.46c.127-.2067.277-.2467.45-.12.945.6918 2.079 1.0758 3.25 1.1.364.0259.73-.0239 1.074-.146.344-.1222.66-.3142.926-.564.509-.6896.724-1.5522.6-2.4-.827.2707-1.69.4157-2.56.43-1.312.022-2.588-.4328-3.59-1.28-.514-.4429-.919-.9978-1.184-1.622-.265-.6241-.384-1.3008-.346-1.978v-6.8c0-.22.12-.33.36-.33h2.08c.045-.0064.091-.0023.135.0119.043.0142.083.0381.116.0699s.058.0708.073.1138c.016.043.021.089.016.1344v6.7c-.03.3534.025.7089.158 1.0373.134.3285.344.6207.612.8527.577.426 1.284.6381 2 .6.747.0268 1.488-.1421 2.15-.49zm9.3-.71c-.149 1.1744-.631 2.2815-1.39 3.19-.838.6996-1.91 1.0568-3 1-.22 0-.33-.12-.33-.36v-1.75c-.003-.0933.029-.1843.09-.2547.062-.0705.147-.1152.24-.1253.213-.0065.422-.0611.61-.1599.189-.0987.353-.2389.48-.4101.348-.5777.573-1.2212.66-1.89.344-2.3959.544-4.8102.6-7.23.001-.0455.012-.0903.031-.1318.019-.0414.046-.0786.079-.1094.034-.0308.073-.0545.116-.0698.043-.0152.089-.0217.134-.019h8.13c.24 0 .36.11.36.33V33.2c.007.0488.002.0985-.014.1452-.016.0467-.042.0891-.077.124-.035.0348-.077.0611-.124.0769-.046.0158-.096.0205-.145.0139h-2.06c-.049.0066-.099.0019-.145-.0139-.047-.0158-.089-.0421-.124-.0769-.035-.0349-.061-.0773-.077-.124-.016-.0467-.021-.0964-.014-.1452v-9.61h-3.49c-.037 1.9738-.218 3.9423-.54 5.89zm14.58 4.08h-5c-.049.0066-.099.0019-.145-.0139-.047-.0158-.089-.0421-.124-.0769-.035-.0349-.061-.0773-.077-.124-.016-.0467-.021-.0964-.014-.1452V21.49c0-.22.12-.33.36-.33h2.06c.24 0 .36.11.36.33v3.7h2.54c1.279-.0619 2.538.3354 3.55 1.12.449.38.804.8582 1.038 1.3975.234.5393.341 1.1253.312 1.7125.048.5875-.046 1.1778-.272 1.7221-.226.5443-.578 1.027-1.028 1.4079-1.044.7184-2.295 1.0733-3.56 1.01zm-2.54-6.1v3.8h2.06c1.72 0 2.58-.63 2.58-1.89.03-.2746-.012-.5522-.12-.8061-.109-.2539-.281-.4757-.5-.6439-.601-.3616-1.301-.526-2-.47l-2.02.01zm11.2-4.16H145c1.549-.1274 3.092.3133 4.34 1.24.5.5073.884 1.1168 1.125 1.7866.242.6697.336 1.3839.275 2.0934.045.7078-.066 1.4168-.325 2.0769-.259.6601-.66 1.2552-1.175 1.7431-1.163.943-2.636 1.4174-4.13 1.33h-5.77c-.14 0-.22-.06-.22-.19V16.63c0-.1267.073-.19.22-.19h10.06c.026-.0032.052-.0006.076.0078.025.0084.047.0223.066.0407.018.0183.032.0406.04.0651.009.0246.011.0507.008.0764v.84c.003.0257.001.0519-.008.0764-.008.0245-.022.0468-.04.0652-.019.0183-.041.0322-.066.0406-.024.0084-.05.0111-.076.0078h-8.95v5.64zm0 9h4.62c1.15.0708 2.286-.2853 3.19-1 .388-.3794.689-.8391.881-1.347.191-.5079.27-1.0516.229-1.593.053-.5463-.013-1.0976-.194-1.6157-.182-.5181-.474-.9905-.856-1.3843-.957-.7122-2.141-1.0501-3.33-.95h-4.55v7.82l.01.07zm12.61-10.1c1.299-.8473 2.831-1.2669 4.38-1.2.615-.0413 1.231.0409 1.813.2419.583.2009 1.119.5165 1.577.9281.406.4455.719.968.92 1.5365.201.5685.286 1.1716.25 1.7735v7.27c.001.0528-.015.1045-.046.1477-.031.0431-.074.0754-.124.0923-1.42.5443-2.929.819-4.45.81-1.275.0521-2.534-.2977-3.6-1-.461-.3185-.833-.7491-1.081-1.2512-.249-.5021-.365-1.0592-.339-1.6188-.027-.5413.081-1.0808.315-1.5697.234-.4889.587-.9118 1.025-1.2303 1.089-.7161 2.378-1.0664 3.68-1 1.126.0297 2.246.1569 3.35.38v-1c0-2.2467-1.117-3.37-3.35-3.37-1.29-.0212-2.56.3257-3.66 1-.093.08-.18.08-.26 0l-.41-.62c-.05-.19-.05-.27.01-.32zm.6 7.73c-.015.3906.068.7788.243 1.1284.175.3497.435.6495.757.8716.802.5195 1.746.7748 2.7.73 1.141-.0026 2.273-.1953 3.35-.57v-4.46c-1.101-.2397-2.224-.3604-3.35-.36-2.467.0067-3.7.8933-3.7 2.66zm11.85 3.63h-.86c-.14 0-.22-.06-.22-.19V21.44c-.005-.0301-.003-.0609.006-.09.009-.0292.025-.0556.047-.0772.021-.0216.048-.0376.077-.0468.029-.0092.06-.0113.09-.006h.86c.127 0 .19.0733.19.22v5.14h6.87v-5.14c0-.14.06-.22.19-.22h.86c.03-.0053.061-.0032.09.006.029.0092.056.0252.077.0468.022.0216.038.048.047.0772.009.0291.011.0599.006.09v11.93c0 .13-.07.19-.22.19h-.86c-.026.0033-.052.0006-.076-.0078-.025-.0084-.047-.0223-.066-.0406-.018-.0184-.032-.0407-.04-.0652-.009-.0245-.011-.0507-.008-.0764v-5.64h-6.87v5.64c.003.0257.001.0519-.008.0764-.008.0245-.022.0468-.04.0652-.019.0183-.041.0322-.066.0406-.024.0084-.05.0111-.076.0078zm20.31.01h-1.08c-.047.0037-.094-.0055-.137-.0266-.042-.0212-.078-.0535-.103-.0934l-5.19-5.86-1.8 1.68v4.1c.003.0257.001.0519-.008.0764-.008.0245-.022.0468-.04.0652-.019.0183-.041.0322-.066.0406-.024.0084-.05.0111-.076.0078h-.84c-.147 0-.22-.0633-.22-.19v-12c-.005-.0301-.003-.0609.006-.09.009-.0292.025-.0556.047-.0772.021-.0216.048-.0376.077-.0468.029-.0092.06-.0113.09-.006h.84c.127 0 .19.0733.19.22v6.29l6.65-6.41c.033-.0358.073-.0635.118-.0808.045-.0174.094-.024.142-.0192h1.08c.031-.0051.062-.0012.09.0113.029.0124.053.0328.07.0587 0 0 0 .1-.06.17l-5.43 5.26 5.76 6.63c.13.2.07.29-.11.29zM36.84 16.44v-5.71H25.42v5.71h5.71v5.71h5.71v5.7h5.71V16.44h-5.71zm0 17.12h5.71v5.71h-5.71v-5.71zm-5.71-5.71h5.71v5.71h-5.71v-5.71zm0 0v-5.7h-5.71v-5.71h-5.71v-5.71h-5.7v11.42h5.7v5.7h-5.7v11.42h5.7v-5.71h5.71v-5.71h5.71zM25.42 33.56h5.71v5.71h-5.71v-5.71z"/>
</svg>
