<svg xmlns="http://www.w3.org/2000/svg" viewBox="0 0 200 50">
	<path d="M18.3999 12.5004c0-3.90001 3.2-7.10001 7.1-7.10001h25c3.9 0 7.1 3.2 7.1 7.10001v25c0 3.9-3.2 7.1-7.1 7.1h-25c-3.9 0-7.1-3.2-7.1-7.1v-25zM79 30.9v-7.2l-3.5 5.9h-1.2l-3.5-5.8v7H68V19h2.3l4.5 7.4 4.4-7.4h2.3v12H79v-.1zm6.9-.3998c.8.4 1.6.6 2.6.6s1.8-.2 2.6-.6c.7-.4 1.4-1 1.8-1.7.4-.7.6-1.5.6-2.4 0-.9-.2-1.7-.6-2.4-.4-.7-1-1.3-1.8-1.7-.8-.4-1.6-.6-2.6-.6-.9 0-1.8.2-2.6.6-.7.4-1.4 1-1.8 1.7-.4.7-.6 1.5-.6 2.4 0 .9.2 1.7.6 2.4.4.7 1 1.3 1.8 1.7zm4.3-2.3c-.4.5-1 .7-1.7.7s-1.3-.2-1.7-.7c-.5-.5-.7-1.1-.7-1.9 0-.7.3-1.4.7-1.8.4-.5 1-.7 1.7-.7s1.3.2 1.7.7c.5.4.7 1 .7 1.8s-.3 1.4-.7 1.9zm15.3.5996v4.2H103v-2h-6.5v2H94v-4.2h.4c.6 0 1-.3 1.2-1 .2-.6.3-1.6.4-2.8l.1-3.2h8v7h1.4zm-7.1-3.7c0 1-.1 1.7-.2 2.3-.1.6-.3 1.1-.6 1.4h3.9v-4.8h-3l-.1 1.1zm13.6 6.3998l4.2-9.8-2.6.1-2.6 6.2-2.6-6.4h-2.8l4 9.3v.1c-.2.4-.4.7-.6.9-.2.2-.5.3-.9.3-.237 0-.412-.0626-.623-.1383-.056-.0199-.114-.0408-.177-.0617-.3-.1-.5-.2-.7-.4l-1 1.9c.4.3.7.5 1.2.6.4.1.9.2 1.4.2.8 0 1.6-.2 2.2-.6.6-.4 1.2-1.1 1.6-2.2zm13.5-.5994h-2.7v-7h-2.9l-.1 1.6c0 .9167-.117 1.7167-.216 2.4v.0002l-.001.0034c-.031.2098-.06.4086-.083.5964-.2.8-.5 1.4-.9 1.9-.4.4-1 .7-1.7.7-.293 0-.586-.0536-.957-.1215-.136-.0249-.282-.0517-.443-.0785l.1-2.2h.4c.4 0 .7-.1.9-.4.2-.3.3-.7.4-1.1.055-.2212.08-.5341.108-.888.023-.2862.047-.5991.092-.912l.1-3.7h7.9v9.2zm10.2-5.4c-.7-.5-1.6-.8-2.8-.8h-2.4v-3h-2.6v9.2h4.7c1.3 0 2.3-.3 3-.8.7-.6 1.1-1.4 1.1-2.4 0-.9-.4-1.7-1-2.2zm-2.1 3.3c-.3.2-.7.3-1.2.3l-1.7-.1v-2.5h1.7c.6 0 .9.1 1.2.3.3.2.4.6.4 1s-.1.8-.4 1zm9.9-6.4002c.9 0 1.7.2 2.3.5.7.3 1.2.8 1.5 1.5.4.6.5 1.4.5 2.3 0 .9-.2 1.7-.6 2.3-.4.7-1 1.2-1.8 1.6-.8.4-1.6.5-2.6.5-1.6 0-2.9-.5-3.8-1.5-.9-1.1-1.4-2.5-1.4-4.6 0-1.8.4-3.3 1.2-4.4.8-1.1 2.1-1.8 3.7-2.2l4.4-.9.4 2.3-3.9.8c-1.1.2-1.8.5-2.3 1-.5.5-.8 1.2-.9 2 .4-.4.9-.8 1.4-1 .6-.1 1.3-.2 1.9-.2zm-.6 6.7c.7 0 1.2-.2 1.7-.7.4-.4.6-1 .6-1.7s-.2-1.3-.6-1.7c-.4-.4-1-.6-1.7-.6s-1.3.2-1.7.6c-.4.4-.6 1-.6 1.7s.2 1.3.6 1.7c.4.5 1 .7 1.7.7zm13.4-6.5004c-.8-.7-1.9-1-3.3-1-.7 0-1.5.1-2.2.4-.7.2-1.3.5-1.8.8l1 1.9c.3-.3.7-.5 1.2-.6.5-.1 1-.2 1.5-.2.7 0 1.3.2 1.6.5.3.3.5.7.5 1.3h-2.1c-1.3 0-2.4.2-3 .7-.7.5-1 1.2-1 2 0 .5.1 1 .4 1.4.3.4.7.8 1.2 1 .6.3 1.2.4 1.9.4 1.4 0 2.3-.5 2.8-1.3v1.1h2.5v-5.3c0-1.4-.4-2.4-1.2-3.1zm-2.3 6.4c-.4.2-.8.3-1.2.3-.5 0-.8-.1-1.2-.4-.3-.2-.4-.5-.4-.8 0-.7.6-1.1 1.7-1.1h1.8v1c-.1.5-.4.8-.7 1zm5.6-7.2994h2.6v3.6h4v-3.6h2.7v9.2h-2.7v-3.4h-4v3.4h-2.6v-9.2zm14.4 5.7996h1.4l2.5 3.5h3.2l-3.5-4.8 3.2-4.4h-2.9l-2.5 3.6H174v-3.6h-2.7v9.2h2.7v-3.5z" fill="#072DA0"/>
	<path d="M25.5 45h25c4.1 0 7.5-3.4 7.5-7.5v-25C58 8.4 54.6 5 50.5 5h-25C21.4 5 18 8.4 18 12.5v25c0 4.1 3.4 7.5 7.5 7.5zm-6.7-32.5c0-3.7 3-6.7 6.7-6.7h25c3.7 0 6.7 3 6.7 6.7v25c0 3.7-3 6.7-6.7 6.7h-25c-3.7 0-6.7-3-6.7-6.7v-25zM48 19h-4v-4h-8v4h-4v-4h-4v8h4v4h-4v8.1h4V31h4v4h4v-4h4v4h4v-4h-4v-4h4v-8zm-8 8h4v-4h-4v-4h-4v4h4v4zm0 0h-4v4h4v-4z" fill="#fff"/>
</svg>
