<svg xmlns="http://www.w3.org/2000/svg" viewBox="0 0 200 50">
	<path fill="#008BB0" d="M62.8307 18.8219c-3.7679 0-6.8222 3.0546-6.8222 6.822 0 3.7679 3.054 6.8222 6.8222 6.8222 3.7679 0 6.8219-3.0543 6.8219-6.8222.0003-3.7677-3.054-6.822-6.8219-6.822zm0 10.8532c-2.2265 0-4.0312-1.8047-4.0312-4.0312 0-2.2266 1.8044-4.031 4.0312-4.031 2.2266 0 4.031 1.8044 4.031 4.031.0002 2.2265-1.8044 4.0312-4.031 4.0312zM6.59448 24.6242l-3.46703-5.576H0v13.189h2.84479v-8.5546l3.67426 5.5763h.07543l3.71122-5.6326v8.6109h2.883v-13.189h-3.128l-3.46622 5.576zm28.87372 5.1633c-2.261 0-3.8248-1.8844-3.8248-4.1454v-.0378c0-2.2598 1.6011-4.1067 3.8248-4.1067 1.3194 0 2.3552.5654 3.3725 1.4885l1.846-2.1289c-1.2237-1.2058-2.7133-2.0355-5.2006-2.0355-4.05 0-6.876 3.071-6.876 6.8204v.0379c0 3.7867 2.8818 6.7821 6.7639 6.7821 2.5439 0 4.0514-.9041 5.4072-2.3535l-1.846-1.8659c-1.0361.9411-1.9595 1.5448-3.467 1.5448zm43.1503-5.1633l-3.4659-5.576h-3.1283v13.189H74.87v-8.5546l3.6737 5.5763h.0748l3.7113-5.6326v8.6109h2.8832v-13.189h-3.1271l-3.4674 5.576zm16.3534 0l-3.4667-5.576H88.378v13.189h2.8443v-8.5546l3.6742 5.5763h.0754l3.7122-5.6326v8.6109h2.8839v-13.189h-3.1299l-3.4662 5.576zm12.6421 2.2616h6.217v-2.5809h-6.217v-2.6763h7.066v-2.5804h-9.948v13.189h10.042v-2.5818h-7.16v-2.7696zm15.318-7.8376h-5.388v13.189h2.901V28.28h2.204c2.959 0 5.332-1.5829 5.332-4.6344v-.0378c0-2.6943-1.902-4.5596-5.049-4.5596zm2.109 4.6529c0 1.1312-.847 1.9968-2.297 1.9968h-2.298v-4.0315h2.241c1.451 0 2.355.6974 2.355 1.9974v.0373h-.001zm37.896-4.7468l-5.653 13.2832h2.959l1.205-2.9578h5.578l1.205 2.9578h3.032l-5.651-13.2832h-2.675zm-.453 7.7627l1.753-4.2774 1.751 4.2774h-3.504zm18.691-2.4503h-5.353v-5.2185h-2.9v13.189h2.9v-5.2953h5.353v5.2953h2.9v-13.189h-2.9v5.2185zm-30.134-.4859h-2.097v-2.1144h5.548l1.081-2.6182h-9.531v13.189h5.389c3.147 0 5.049-1.826 5.049-4.2666v-.0376c0-3.1616-2.203-4.1522-5.439-4.1522zm.144 5.8379h-2.241v-3.2578h2.299c1.602 0 2.297.5687 2.297 1.6168 0 1.1853-1.021 1.641-2.355 1.641zm-9.866-10.5705h-2.9v10.513h-5.1v-10.513h-2.902v13.189h12.999v-2.676h-2.097v-10.513zm-98.2202 13.189h2.9006v-13.189h-2.9006v13.189zm12.3447-13.189h-3.5043l-5.1186 6.4846 5.3819 6.7044h3.656l-5.6947-6.7044 5.2797-6.4846zm138.8635 6.4846l5.278-6.4846h-3.503l-5.12 6.4846 5.384 6.7044H200l-5.693-6.7044zm-7.068 6.7044h2.903v-13.189h-2.903v13.189z"/>
	<path fill="#FDB924" d="M21.5878 12c-3.7679 0-6.8222 3.0543-6.8222 6.8219 0 3.7679 3.054 6.8225 6.8222 6.8225 3.7679 0 6.8219-3.0543 6.8219-6.8225C28.41 15.0543 25.3557 12 21.5878 12zm0 10.8531c-2.2265 0-4.0312-1.8047-4.0312-4.0312 0-2.2262 1.8044-4.0309 4.0312-4.0309s4.0309 1.8044 4.0309 4.0309c0 2.2265-1.8041 4.0312-4.0309 4.0312z"/>
</svg>
