<svg xmlns="http://www.w3.org/2000/svg" viewBox="0 0 200 50">
	<g fill="#BB0032">
		<path d="M98.8727 13h-5.9273v24h5.2728V21.1818h.3273l5.6005 9.1272h2.799l5.601-9.1272h.327V37h5.309V13h-5.818l-6.691 10.8727L98.8727 13zM129.2 13h-5.346v24h5.346V26.7454h2.654L139.236 37h6.946l-9.855-12.8 8.982-11.2h-6.655l-6.836 8.8364-2.618.2909V13zM169.236 13h-19.2v24h10.909c1.382 0 2.618-.1818 3.782-.509 1.163-.3638 2.146-.8728 2.982-1.491.837-.6909 1.491-1.4909 2-2.4364.436-1.0182.691-2.0726.691-3.3454 0-1.2728-.255-2.4-.691-3.4182-.509-.9455-1.163-1.7455-1.964-2.3636-.872-.6546-1.855-1.1273-3.018-1.4182-1.164-.3273-2.4-.4727-3.782-.4727h-5.563v-3.7091h9.091L169.236 13zm-13.818 19.2v-5.9636h5.709c1.236 0 2.182.2545 2.836.8.691.509 1.019 1.2 1.019 2.1818 0 .909-.328 1.6-1.019 2.1818-.654.5091-1.673.8-2.982.8h-5.563zM59.8546 13.0364L47.8546 25l-5.9637-6 6-6h-12L30 19l18 18 15.3455-15.4909h9.1999l8.4728-8.4727H59.8546z"/>
		<path d="M50.4727 36.7455l1.7092-1.7091 11.8544-11.8545h17.0183l-8.5092 8.4728h-5.0182l-5.0181 5.0908H50.4727z"/>
	</g>
</svg>
