<svg xmlns="http://www.w3.org/2000/svg" viewBox="0 0 200 50">
	<path fill="#fff" d="M26.17 36.09c-2.1598 0-4.271-.6404-6.0668-1.8403-1.7958-1.2-3.1955-2.9054-4.022-4.9008-.8265-1.9954-1.0427-4.191-.6214-6.3093.4214-2.1183 1.4614-4.064 2.9886-5.5912 1.5272-1.5272 3.4729-2.5672 5.5912-2.9886 2.1183-.4213 4.3139-.2051 6.3093.6214s3.7008 2.2262 4.9008 4.022c1.1999 1.7958 1.8403 3.907 1.8403 6.0668.0013 1.4344-.2802 2.855-.8286 4.1805-.5483 1.3254-1.3526 2.5298-2.3669 3.544-1.0142 1.0143-2.2186 1.8186-3.544 2.3669-1.3255.5484-2.7461.8299-4.1805.8286z"/>
	<g fill="#FF0500">
		<path d="M162.7 21.43v-5.86c0-.25.08-.34.34-.34h4.38c.25 0 .34.08.34.34v19.88h-5v-13h-3.87v13h-5V15.32h5v6.16h3.82l-.01-.05zm-12.19 14h-5v-13.1h-3.87v13h-5v-18.4c-.005-.2051.048-.4075.152-.5842.105-.1767.256-.3207.438-.4158.604-.3614 1.296-.5516 2-.55 2.34-.08 4.72-.13 7.05-.13.986.043 1.966.1701 2.93.38.283.0757.551.2009.79.37.164.0916.298.2274.388.3918.091.1645.133.3509.122.5382v18.14c.042.1094.042.2306 0 .34v.02zm-8.84-14h3.82v-5.31h-3.82v5.31zM171 15.27h5v5.82c0 .25 0 .3.34.34.59.08.89-.13 1.15-.72.72-1.74 1.53-3.48 2.29-5.22.03-.0977.094-.1815.18-.2365.086-.055.189-.0775.29-.0635H185c-1.1 2.08-2.21 4.12-3.27 6.16.59.13 1.19.21 1.78.34.248.0577.489.1415.72.25.248.105.457.2825.602.5093.145.2267.217.4919.208.7607v12.11h-5.05v-13h-3.87v13.05h-5C171 28.7 171 22 171 15.27zm-51.59 20.14v-19.8c0-.3.08-.42.38-.42h12.49V16h-7.82v2h4.8c.979-.0095 1.954.1322 2.89.42.221.0822.435.1826.64.3.177.0978.322.2436.419.4205.098.177.143.3779.131.5795v13.91c.028.2229-.02.4487-.136.641-.116.1923-.294.3399-.504.419-.604.2343-1.231.4052-1.87.51-.929.1067-1.865.1501-2.8.13h-8.2c-.128.0698-.275.0978-.42.08zm5.05-.85h3.87V19h-3.87v15.56zM57.61 14.93v20.48h-3.15V19.05c-.42.34-.76.64-1.1.93-.34.29-.76.68-1.19 1-.0845.0634-.1516.147-.1953.2431-.0437.0961-.0625.2016-.0547.3069v13.92h-3.19V21.56c.0128-.1058-.0037-.2131-.0478-.3101-.0441-.0971-.1141-.1801-.2022-.2399-.68-.55-1.36-1.15-2-1.74 0 0-.13-.08-.21-.17v16.31h-3.19V14.93c.38.34.76.64 1.1.93 2 1.66 4 3.36 5.95 5 .17.17.25.08.42 0 2.25-1.91 4.5-3.82 6.8-5.73.0907-.0611.1776-.1279.26-.2zm35.55 10.45v8.33c.0251.2795-.0452.5592-.1996.7935-.1544.2344-.3837.4094-.6504.4965-.5892.2119-1.2052.3398-1.83.38h-3.4c-.6344-.0416-1.2602-.1695-1.86-.38-.2702-.0914-.5014-.2717-.6558-.5114-.1544-.2398-.2229-.5249-.1942-.8086V17.06c-.0212-.2929.0544-.5846.2152-.8303.1608-.2458.3979-.4319.6748-.5297.7063-.2608 1.4579-.3764 2.21-.34h3.27c.5663.0608 1.1235.1884 1.66.38.2551.0864.4714.2603.6105.491.1391.2306.192.503.1495.769v8.38zM90 16.25h-2.36v18.31H90V16.25zm-29.34 9.09v-8.28c-.0341-.3201.0482-.6418.2318-.9062.1836-.2645.4563-.4539.7682-.5338.6998-.2276 1.4346-.3292 2.17-.3h3.1c.5163.0384 1.0283.122 1.53.25.314.076.5892.2646.7735.53.1843.2654.2649.5892.2265.91V33.5c.0283.1839.02.3717-.0246.5524-.0446.1807-.1245.3508-.2351.5005-.1106.1496-.2498.2759-.4095.3715-.1597.0957-.3367.1587-.5208.1856-.498.145-1.0118.229-1.53.25h-3.4c-.6244-.0293-1.2411-.1506-1.83-.36-.2702-.0914-.5014-.2717-.6558-.5114-.1544-.2398-.2229-.5249-.1942-.8086.05-2.73 0-5.53 0-8.34zm3.23-9.09v18.31h2.38V16.25h-2.38zm32.37 19.16v-20h8.07v.85h-4.92v2h.34c1 0 2 0 3 .08.511.061 1.012.1888 1.49.38.241.0972.445.269.582.4903.137.2213.199.4804.178.7397v13.8c.019.2759-.055.5502-.208.78-.154.2298-.38.4021-.642.49-.566.2311-1.169.3598-1.78.38h-6c.02.01-.02.01-.11.01zm3.19-16.31v15.46h2.38V19.1h-2.38zm-18.14 1.06h-3.14v-3.91h-2.43v18.31h2.42V23.69h3.19v9.69c.0479.237.0439.4815-.0119.7168-.0558.2352-.162.4555-.3113.6457-.1493.1902-.3381.3457-.5534.4557-.2153.1101-.4519.1721-.6934.1818-.4346.0875-.8768.1311-1.32.13-1.32 0-2.59 0-3.91-.08-.4569-.0723-.8992-.2175-1.31-.43-.2213-.1052-.4051-.2756-.5267-.4884-.1215-.2127-.175-.4576-.1533-.7016V17c-.0094-.2796.0723-.5546.2328-.7837.1605-.229.3912-.3997.6572-.4863.7202-.2605 1.4849-.3761 2.25-.34h3.14c.6134-.0003 1.2201.1292 1.78.38.2179.102.4018.2648.5296.4688.1277.204.1938.4405.1904.6812v3.14c-.0073.0262-.0073.0538 0 .08l-.03.02zm35.3 15.25h-3.14V18.25H111v17.16h-3.19v-9.34c-.058-2.4972.48-4.9723 1.57-7.22.755-1.4346 1.715-2.7518 2.85-3.91.34.42.72.81 1 1.23 1.501 1.7604 2.511 3.885 2.93 6.16.211 1.324.338 2.66.38 4v9.09l.07-.01z"/>
		<path d="M26.17 14.51c2.465.001 4.8534.8563 6.7588 2.4202 1.9053 1.5639 3.2097 3.7398 3.6913 6.1573.4815 2.4175.1104 4.9272-1.0502 7.1018-1.1607 2.1746-3.0391 3.8798-5.3155 4.8253-2.2764.9455-4.8102 1.0729-7.17.3604-2.3597-.7124-4.3997-2.2206-5.7725-4.2679-1.3729-2.0473-1.9939-4.5071-1.7572-6.9607.2367-2.4536 1.3164-4.7493 3.0553-6.4964.9881-.9998 2.1656-1.7924 3.4637-2.3316 1.2981-.5391 2.6907-.814 4.0963-.8084zm0-.51c-2.2092 0-4.3688.6551-6.2057 1.8825s-3.2686 2.9719-4.114 5.0129c-.8455 2.0411-1.0667 4.287-.6357 6.4538.431 2.1667 1.4949 4.157 3.057 5.7192 1.5622 1.5621 3.5525 2.626 5.7192 3.057 2.1668.431 4.4127.2098 6.4538-.6357 2.041-.8454 3.7855-2.2771 5.0129-4.114 1.2274-1.8369 1.8825-3.9965 1.8825-6.2057-.0053-2.9608-1.1838-5.7989-3.2775-7.8925C31.9689 15.1838 29.1308 14.0053 26.17 14z"/>
		<path d="M20.1801 21.31v7l4.72-4.76v-2.24l-2.38-2.31-2.34 2.31zm8.88-2.31h-5.18l2.38 2.34v2.25l2.59 2.59 2.59-2.59v-2.28l-2.38-2.31z"/>
		<path d="M28.3 26.7L25.58 24v.81l1.91 1.91-3.57 3.57H20.1l-1.36.55h5.39l4.17-4.14z"/>
		<path d="M32.08 23.94l-.55 1.36v5h-5l-1.36.55h6.88l.03-6.91z"/>
	</g>
	<linearGradient id="gr1" x1="26.53" y1="25.74" x2="21.07" y2="31.21" gradientUnits="userSpaceOnUse">
		<stop stop-color="#F9F6F1"/>
		<stop offset="1" stop-color="#C8B67F"/>
	</linearGradient>
	<path d="M25.58 24.79l-5.48 5.48h3.82l3.57-3.57-1.91-1.91z" fill="url(#gr1)"/>
	<linearGradient id="gr2" x1="25.77" y1="24.19" x2="18.95" y2="31.01" gradientUnits="userSpaceOnUse">
		<stop stop-color="#F7F4EC"/>
		<stop offset="1" stop-color="#CAB880"/>
	</linearGradient>
	<path d="M25.58 24.79V24l-6.84 6.84 1.36-.55 5.48-5.5z" fill="url(#gr2)"/>
	<linearGradient id="gr3" x1="247.276" y1="2780.96" x2="199.942" y2="2733.63" gradientUnits="userSpaceOnUse">
		<stop stop-color="#F7F4EC"/>
		<stop offset="1" stop-color="#CAB880"/>
	</linearGradient>
	<path d="M31.5199 25.3l.55-1.36-6.88 6.88 1.36-.55 4.97-4.97z" fill="url(#gr3)"/>
	<linearGradient id="gr4" x1="190.07" y1="2016.62" x2="165.62" y2="1992.22" gradientUnits="userSpaceOnUse">
		<stop stop-color="#F9F6F1"/>
		<stop offset="1" stop-color="#C8B67F"/>
	</linearGradient>
	<path d="M31.52 30.27v-5l-5 5h5z" fill="url(#gr4)"/>
</svg>
