<svg xmlns="http://www.w3.org/2000/svg" viewBox="0 0 200 50">
	<path fill="#d3d5d6" d="M123.8 40.8h13.6l-8.6-21.7-5 21.7z"/>
	<path fill="#adafb2" d="M124.9 9.1l3.9 10 8.6 21.7 5-21.7-3.9-10h-13.6z"/>
	<path fill="#75bee9" d="M139.4 40.8l5.1-21.7 8.5 21.7h-13.6z"/>
	<path fill="#0072bc" d="M158 19.1l-5 21.7-8.5-21.7-4-10h13.6l3.9 10z"/>
	<path fill="#f37164" d="M155.1 40.8l5-21.7 8.6 21.7h-13.6z"/>
	<path fill="#ed1b35" d="M173.7 19.1l-5 21.7-8.6-21.7-3.9-10h13.5l4 10z"/>
	<path fill="#4d4d4f" d="M33.8 23.3l-3.4-7.2h-4.1v12h3v-8.3l3.8 8.3h1.3l3.9-8.3v8.3h3v-12h-4.2zM49.5 18c1.4 0 2.6.8 3.2 1.8l2.5-1.1c-.9-1.6-2.6-3.1-5.6-3.1-4.1 0-7.2 2.7-7.2 6.5 0 3.9 3.2 6.5 7.2 6.5 2.9 0 4.6-1.5 5.6-3.1l-2.5-1.1c-.6 1-1.8 1.8-3.2 1.8-2.4 0-4.2-1.7-4.2-4.1 0-2.4 1.8-4.1 4.2-4.1zM56.8 28.4h2.9V18.3H66v10.1h2.9V15.9H56.8zM82.7 20.4h-3.5v-2.2h7v-2.3h-9.9v12.5h6.4c2.9 0 4.5-1.8 4.5-4s-1.6-4-4.5-4zm-.4 5.7h-3.1v-3.2h3.1c1.1 0 1.9.6 1.9 1.6s-.8 1.6-1.9 1.6zM93 19.3c-1.6 0-3.1.4-4.3 1.4l1 1.6c.8-.7 1.8-1.1 2.8-1.1 1.2 0 2.1.6 2.1 1.5v1.2c-.7-.7-1.8-1.1-3.1-1.1-1.6 0-3.4.8-3.4 2.9 0 2 1.8 3 3.4 3 1.3 0 2.4-.5 3.1-1.2v1.1h2.7v-5.9c0-2.6-2.1-3.4-4.3-3.4zm1.6 7c-.5.5-1.3.7-2.1.8-1 0-1.8-.5-1.8-1.3 0-.9.8-1.4 1.8-1.4.9 0 1.7.3 2.1.8v1.1zM106.1 22.8H102v-3.5h-2.5v9.1h2.5v-3.6h4.1v3.6h2.5v-9.1h-2.5zM116.5 23.5l3.9-4.2h-3.1l-3.7 4v-4H111v9.1h2.6V26l1.1-1 2.6 3.4h3.2z"/>
</svg>