<svg xmlns="http://www.w3.org/2000/svg" viewBox="0 0 200 50">
	<path fill="#E30600" d="M25 27.53c0 4.72 2.65 9.47 8.57 9.47s8.57-4.75 8.57-9.47c0-3.22-1.09-6.93-2.9-9.92-1.76-2.89-3.88-4.61-5.67-4.61s-3.91 1.72-5.66 4.61c-1.82 3-2.91 6.7-2.91 9.92zm60.86-7.46h-6v-5.78h18.43v5.79h-6v15.64h-6.43V20.07zm26.14 0h9.43v-5.78H112c-8.66 0-13.29 4.31-13.29 10.71 0 6.41 4.63 10.71 13.29 10.71h9.43v-5.79H112c-4.01 0-6.65-1.43-6.65-4.93 0-3.49 2.64-4.92 6.65-4.92zm-48.65 7.01l3.43-12.79h11.36v21.43h-6.43V18.27l-4.67 17.44h-7.37L55 18.28v17.43h-6.43V14.29h11.36l3.42 12.79zm74.09-6.58h-2.27v2.1h2.27c.57 0 .92-.3.92-.84v-.39c-.01-.56-.3-.87-.92-.87zm.57 4.5h-5.87V14.29h8.63v2.56h-5.61v1.4H138c2.38 0 3.53 1.18 3.53 3.26.01 2.19-1.14 3.49-3.52 3.49zm10.51-4.38h-2.39l1.2-3.96 1.19 3.96zm4.6 4.38l-3.31-10.71h-4.5L142 25h2.83l.61-2.05h3.79l.62 2.05h3.27zm7.65 0v-4.15h-3.46V25h-3.1V14.29h3.1v3.93h3.46v-3.93h3.11V25h-3.11zm8.62-6.79h-.54v-3.92h-3.1V25h3.1v-4.15h.45l2.87 4.15h3.59l-3.88-5.61 3.57-5.11h-3.28l-2.78 3.93z"/>
</svg>
