<svg xmlns="http://www.w3.org/2000/svg" viewBox="0 0 200 50">
	<path fill="#004017" d="M103.995 8.18081v4.75659h.593v-2.2391h2.291v2.2391h.585V8.18081h-.585v1.96009h-2.291V8.18081h-.593Zm5.659 0-1.698 4.75659h.621l.485-1.4418h1.864l.513 1.4418h.665l-1.807-4.75659h-.643Zm1.084 2.80349h-1.51l.491-1.39654c.101-.29925.181-.60477.239-.91518.079.26088.18.59222.318.99261l.462 1.31911Zm2.429-2.80349h-.585v4.75659h3.36v1.3211h.521v-1.8792h-.405V8.18081h-.585v4.19849h-2.306V8.18081Zm4.524 0h-.535v4.75659h.593l2.349-3.75701v3.75701h.535V8.18081h-.585l-2.357 3.76609V8.18081Zm4.315.58943c-.39.44573-.592 1.06376-.592 1.85196-.001.4095.084.8148.252 1.1879.161.3614.422.669.752.8845.333.2163.723.3272 1.12.3188.378.0021.751-.0983 1.077-.2902.338-.2016.606-.5036.766-.8628.188-.4053.282-.8469.275-1.2933.007-.4387-.081-.87401-.26-1.2744-.159-.36063-.42-.66616-.752-.87682-.33-.21066-.714-.32017-1.106-.31389-.621 0-1.142.22251-1.532.66825Zm.448 3.21496c-.289-.3292-.434-.7798-.434-1.3518 0-.71361.152-1.22351.449-1.52904.078-.08301.166-.15695.261-.21973.071-.04673.147-.08719.226-.12067.184-.07883.382-.11928.582-.11789.284-.00349.56.07952.796.23856.117.08231.222.18067.312.29158.091.1137.166.24065.223.37737.127.32157.189.66612.18 1.01212 0 .6111-.145 1.0833-.426 1.4146-.134.1598-.301.2874-.49.3739-.189.0865-.394.1284-.602.1242-.205.0049-.408-.0377-.595-.1228-.085-.039-.165-.0865-.24-.1416-.09-.0662-.171-.143-.242-.2288Zm3.982-3.80439v4.75659h.586v-2.2391h2.291v2.2391h.586V8.18081h-.586v1.96009h-2.291V8.18081h-.586Zm5.652 0-1.698 4.75659h.621l.485-1.4418h1.865l.513 1.4418h.665l-1.8-4.75659h-.651Zm1.092 2.80349h-1.511l.484-1.39654c.1-.29994.183-.60547.246-.91518.038.13742.084.29436.141.47084.05.15835.109.33273.177.52177l.463 1.31911Zm5.059-2.80349h-2.768v3.35239c0 .3948-.036.6515-.101.7583-.014.0237-.031.0453-.05.0648-.022.0223-.048.0419-.076.0572-.052.0279-.111.0419-.17.0391-.088-.0056-.173-.0328-.246-.0802l-.109.558c.152.0523.31.0809.47.0858.194.007.383-.0621.527-.1918.148-.1465.245-.3362.275-.542.053-.362.074-.7276.065-1.0931V8.73954h1.591v4.19786h.592V8.18081Zm1.576 0h-.586v4.75659h1.677c.636 0 1.077-.1388 1.308-.4165.229-.2699.352-.6145.347-.9688.001-.1333-.016-.2658-.049-.3942-.023-.0899-.056-.1778-.096-.2629-.055-.1207-.131-.2295-.226-.3209-.074-.0726-.158-.1339-.251-.1821-.216-.1234-.578-.1848-1.069-.1848h-1.055V8.18081Zm1.069 4.21809h-1.069v-1.6476h.787c.269-.0084.538.0111.803.0593.155.0348.292.1269.383.2574.098.1423.148.3118.144.4841.004.1416-.024.2811-.081.4087-.03.067-.068.1312-.114.1904-.137.1647-.419.2477-.853.2477Zm2.407-4.21809v4.75659h.585v-2.2391h2.292v2.2391h.585V8.18081h-.585v1.96009h-2.292V8.18081h-.585Zm5.06 0h-.586v4.75659h1.684c.636-.0007 1.07-.1388 1.301-.4144.22-.2664.343-.6012.346-.9479.005-.346-.11-.6836-.324-.955-.217-.2755-.673-.4129-1.366-.4129h-1.055V8.18081Zm1.069 4.21809h-1.069v-1.6476h.787c.264-.0084.528.0104.788.0551.157.0356.296.1262.39.2567.105.1451.158.3201.152.4994 0 .2916-.079.5043-.246.6376-.166.1325-.433.1988-.802.1988Zm2.797-4.21809h-.586v4.75659h.586V8.18081Zm1.539 0h-.535v4.75659h.593l2.35-3.75701v3.75701h.534V8.18081h-.585l-2.357 3.76609V8.18081Zm2.046-1.14258h-.368c-.018.12765-.076.24553-.167.33621-.061.04465-.13.07604-.203.09347-.056.01326-.114.01814-.173.01396-.073.00348-.145-.00907-.211-.03697-.044-.01814-.084-.04325-.121-.07394-.057-.05302-.102-.11649-.133-.18764-.02-.04674-.034-.09627-.041-.14719h-.368c.012.11649.036.22113.07.3146.048.12765.117.23368.204.31738.172.15067.395.2288.622.21833.226.01186.446-.06696.614-.21833.164-.1695.262-.39342.275-.62988ZM148.43 24.1177c.044.0069.094.0104.144.0132.051.0028.137.0063.232.0063.674 0 1.216-.1897 1.626-.5706.419-.3795.795-1.047 1.127-2.0026.608-1.7481 1.145-2.8774 1.613-3.388.214-.247.48-.4437.778-.5762.191-.0851.393-.143.599-.1716.116-.0161.232-.023.35-.0209.415-.0119.821.129 1.142.3955.318.2643.476.5789.476.9438.002.0404.001.0809-.002.1213-.002.0258-.005.051-.009.0761l-.01.0544-.013.0565-.015.0502c-.011.0349-.024.0698-.039.1039-.024.053-.052.104-.084.1528-.028.0432-.06.0844-.095.1235-.05.0537-.107.1011-.168.1416-.045.03-.093.0558-.144.0774-.054.023-.11.0404-.166.0523-.069.0147-.138.0209-.208.0195-.122 0-.248-.0279-.379-.0851-.147-.0641-.302-.1646-.467-.3013-.311-.2574-.556-.385-.744-.385-.253 0-.47.1311-.665.3989-.195.2679-.47.9334-.846 1.9992-.332.9438-.614 1.61-.853 2.0097-.226.378-.52.7101-.867.9793.976.5218 2.166 1.8771 3.57 4.0653.427.6571.752 1.1552.976 1.4942.224.3236.441.551.658.6836.217.1318.52.2406.91.3229v.4158h-3.172c-.504-.8755-.956-1.6476-1.359-2.3159-.153-.2553-.299-.496-.438-.7213-.185-.2999-.357-.5726-.517-.8196-.405-.6285-.725-1.0826-.961-1.363-.272-.3209-.533-.5671-.782-.7394-.287-.1974-.559-.2964-.822-.2964h-.188c-.032 0-.063.002-.093.0055l-.095.0112v3.983c0 .4053.04.7338.122.9863.036.1123.081.21.134.2923.036.0558.076.1046.12.1465.253.2406.766.3794 1.553.4122l.008.4158h-5.963v-.4039c.774-.0195 1.287-.1451 1.547-.3851.26-.2406.384-.7261.384-1.4523V19.938c0-.6962-.131-1.1684-.384-1.4195-.253-.2512-.773-.3851-1.547-.4186v-.4157h5.963l-.008.4157c-.357.0126-.659.0475-.906.1061-.283.0676-.494.166-.633.2964-.26.2449-.39.7192-.39 1.4356v4.1797Zm-29.698 1.9601h4.561l-2.197-5.7408-2.364 5.7408Zm-3.932 5.3048v-.4157c.398-.0133.723-.1353.961-.3627.239-.2281.514-.6962.803-1.3923l4.907-11.7607h.42l4.756 11.9741c.076.1995.154.3781.232.5357.156.316.314.5476.468.6983.087.0837.183.1513.29.203.179.0872.386.1297.621.1297h.101v.3962h-4.994v-.4213c.299-.0077.541-.0342.729-.0802.134-.0328.241-.0754.319-.1277.188-.1255.282-.346.282-.6633-.001-.1089-.013-.217-.036-.323-.008-.0579-.021-.1151-.036-.1709-.014-.0481-.031-.0963-.051-.143l-1.005-2.5893h-5.117l-.845 2.1743c-.047.1102-.088.2225-.125.3369-.029.0934-.055.1876-.078.2832-.044.1534-.068.3118-.072.4715 0 .2839.102.4918.311.6264.07.0454.154.083.25.113.193.0607.437.0921.725.0921h.116v.4157H114.8Zm-11.513 0 .007-.4157c.06-.0014.118-.0035.175-.007.061-.0035.12-.0077.177-.0132.076-.007.148-.0154.217-.0252.107-.0153.207-.0348.297-.0578.078-.0196.15-.0426.216-.0677.154-.06.276-.1346.364-.2246.238-.2442.354-.7199.354-1.4188v-9.2195c0-.7129-.116-1.1872-.354-1.4251-.239-.2372-.723-.369-1.453-.4095v-.415h9.83l.368 3.6021h-.368c-.297-.9919-.694-1.7013-1.193-2.1275-.506-.429-1.193-.6431-2.053-.6431h-1.575c-.514 0-.846.0725-1.005.2176-.159.1451-.246.5287-.246 1.1419v3.9202h1.084c2.19 0 3.759.2867 4.72.8643.961.5782 1.438 1.5081 1.438 2.7916 0 1.326-.448 2.3116-1.337 2.9589-.889.6467-2.255.9668-4.091.9668l-5.572.0063Zm3.758-1.778c0 .3885.08.6529.232.7854.151.1319.563.2009 1.207.2009h.39c.086 0 .17-.0021.252-.0049l.103-.0049c.076-.0041.149-.0104.222-.0174l.123-.0146.04-.0049.141-.021c.649-.1081 1.172-.3452 1.569-.7108.564-.5182.853-1.2674.853-2.244 0-1.0163-.318-1.7717-.94-2.2593-.621-.4883-1.604-.7366-2.927-.7366h-.404c-.405 0-.651.0362-.738.113-.087.076-.123.2734-.123.6034v4.3157Zm21.856 1.3623-.007.4157 5.645-.0035v-.4157c-.745-.0328-1.229-.1716-1.467-.4122-.239-.2414-.355-.7164-.355-1.4251V25.374c0-.0684.004-.1305.011-.1863.005-.0453.013-.0865.023-.1242.006-.0237.014-.046.022-.0669.018-.0461.041-.0837.067-.1137.04-.044.093-.0774.161-.0998.038-.0125.081-.0223.13-.0279.042-.0049.087-.0076.136-.0076h5.319c.18 0 .311.039.376.122.072.0795.108.2477.108.5044v3.7751c0 .406-.043.7359-.126.9891-.023.0712-.049.136-.078.1953-.048.0949-.102.1744-.164.2379-.239.2434-.73.376-1.468.3955l-.007.4157h5.667v-.4157c-.73-.0195-1.215-.1549-1.467-.4025-.253-.2476-.376-.7254-.376-1.4349v-9.188c0-.7339.123-1.2152.369-1.4523.124-.1179.312-.2086.563-.2721.244-.0621.547-.0976.911-.1074v-.4255h-5.667v.4255c.389.0195.707.0663.957.1395.241.0705.419.166.533.286.098.1032.176.2476.234.4332.079.2504.119.5755.119.9758v3.358c0 .2707-.028.452-.093.5413-.065.0893-.196.1354-.391.1354h-5.304c-.039 0-.076-.0014-.111-.0042-.056-.0042-.106-.0119-.151-.0223-.05-.0119-.093-.0279-.127-.0482-.024-.0139-.044-.03-.06-.0474-.072-.0788-.116-.2476-.116-.5043v-3.4083c0-.7156.123-1.1914.362-1.4285.154-.1535.413-.2658.774-.3369l.12-.0217c.169-.0272.357-.0467.566-.0579v-.415h-5.645v.415c.738.0398 1.236.1814 1.475.429.246.2477.368.7199.368 1.416v9.1853c0 .7157-.122 1.1915-.354 1.4349-.232.2441-.73.376-1.482.4025Zm-20.511 10.353-.116-.1353c-.122.1499-.244.2825-.365.3969-.168.1569-.335.2804-.503.369-.308.159-.65.2385-.997.2323-.18.0034-.358-.0238-.528-.0789-.077-.0251-.153-.0558-.226-.092-.234-.1172-.436-.2888-.59-.5009-.222-.2874-.373-.6271-.454-1.0219-.044-.2211-.067-.4597-.067-.7164 0-.715.174-1.2918.528-1.7355.162-.212.371-.3829.611-.498.24-.1158.504-.173.77-.1667.379-.0119.75.1172 1.04.3627.289.2448.499.6013.643 1.0714h.153l-.145-1.6769h-.137c.003.0691-.021.1367-.066.1898-.016.0167-.035.0306-.056.0425l-.023.0112c-.03.0125-.062.0188-.094.0188-.179-.037-.356-.0872-.528-.15-.053-.0174-.107-.0335-.162-.0481l-.061-.0154-.071-.016-.095-.0195c-.174-.0328-.351-.0496-.529-.0502-.183 0-.359.0146-.528.0439-.28.0481-.538.1374-.774.2672-.048.0258-.094.0537-.14.083-.049.0314-.096.0648-.143.1004-.108.0816-.211.1737-.308.2755-.491.5169-.737 1.1684-.737 1.9692s.231 1.4467.708 1.935c.47.4897 1.099.7345 1.886.7345.411.007.817-.0927 1.178-.2901.375-.2184.693-.5239.926-.8915Zm.224 1.0617.007-.1563c.289-.0084.484-.0579.585-.1507.064-.0579.104-.1492.126-.2748.013-.0746.019-.1618.019-.2609v-3.4842c0-.0998-.007-.187-.021-.2616-.023-.1284-.065-.2204-.124-.2769-.05-.0482-.13-.0844-.239-.1103-.096-.023-.215-.0376-.353-.0446v-.1576h3.982l.152 1.3616h-.152c-.123-.3753-.282-.6432-.484-.8043-.203-.1611-.485-.2386-.831-.2386h-.637c-.209 0-.339.0272-.411.0837-.019.014-.034.0342-.046.06-.005.0112-.01.0231-.014.0363-.026.076-.035.1876-.035.3355v1.4823h.434c.889 0 1.525.1081 1.915.3265.391.219.579.5699.579 1.0547 0 .2204-.035.4157-.105.5866-.089.2176-.235.3948-.437.5322-.362.2435-.911.3634-1.656.3634l-2.254-.002Zm1.524-.6718c0 .1451.029.2463.095.2965.064.0509.224.0767.484.0767h.159c.433 0 .766-.0984.997-.2951.224-.1953.34-.4785.34-.8475 0-.1555-.021-.295-.063-.4178-.062-.1807-.169-.3265-.32-.436-.099-.0718-.218-.1304-.36-.1744-.05-.016-.103-.03-.158-.0418-.077-.0168-.159-.03-.245-.0398-.127-.0146-.266-.0223-.415-.0223h-.167c-.166 0-.26.014-.296.0419-.036.0286-.051.1039-.051.2288v1.6308Zm3.325.5155v.1563l4.011.0034.362-1.2702-.13-.0725c-.159.4157-.332.6905-.52.821-.188.1311-.499.1967-.925.1967h-1.07c-.13.0007-.217-.0272-.26-.0823-.008-.0098-.015-.0216-.021-.0356l-.011-.0272c-.008-.0251-.015-.0558-.02-.0914-.009-.0593-.014-.1325-.014-.2197v-1.5472c0-.1123.022-.182.044-.2085.022-.0258.079-.0398.166-.0398H116c.15 0 .278.0091.384.0272.144.0251.248.067.31.1263.108.1018.166.3027.188.6019h.137v-1.7766h-.137c-.022.2846-.072.4736-.181.5748-.108.1011-.339.1513-.701.1513h-.918c-.041 0-.075-.0028-.103-.0076-.039-.0077-.065-.021-.077-.0391l-.011-.0244-.01-.03c-.015-.0474-.02-.0977-.016-.1472v-1.3958l.001-.0502c.001-.0377.004-.0712.007-.1011.005-.0405.013-.074.022-.1005.005-.0132.01-.0244.016-.0342l.009-.0118.011-.0112c.021-.0195.053-.0335.097-.0425.015-.0035.031-.0063.048-.0084.036-.0042.076-.0063.122-.0063h1.156c.333 0 .557.0579.687.1758.122.1172.21.3404.261.6689h.137l-.058-1.1446h-3.918v.1576c.275.0147.456.0691.542.1597.087.0907.13.2693.13.5344v3.4842c0 .1179-.007.2183-.022.3014-.019.1067-.052.1848-.1.2343-.087.0879-.268.1374-.55.1507Zm6.44-2.7225c-.009.0683.01.1374.051.1925.051.0398.115.0586.18.053.463 0 .809-.0969 1.041-.2909.07-.0586.129-.1262.178-.203.03-.0467.056-.0969.078-.1499.014-.0335.027-.0684.037-.104.016-.0523.028-.1074.036-.1653.012-.0781.018-.1604.018-.2483 0-.1514-.017-.2874-.052-.4081-.049-.1702-.133-.3104-.251-.4206-.195-.1848-.499-.279-.897-.279-.158 0-.274.0265-.332.0788-.058.0523-.087.1716-.087.3627v1.5821Zm-1.496 2.8788v-.1563c.297-.0056.485-.0579.571-.1597.087-.1026.13-.33.13-.685v-3.3615c0-.09-.005-.1695-.014-.2379-.005-.0369-.012-.0704-.019-.1011-.015-.0565-.034-.1033-.058-.1388-.012-.0175-.025-.0328-.039-.0454-.055-.0488-.156-.0844-.297-.1067-.079-.0125-.17-.0216-.274-.0272v-.1576h2.175c.579 0 1.012.1137 1.316.3397.108.0809.195.175.263.2825.026.0425.05.0872.07.1339.017.0398.032.0802.045.1228l.013.0439c.007.0286.014.0572.02.0865.007.0363.013.0739.017.1116.008.0691.013.1409.013.2163.01.302-.076.5991-.246.8489-.094.1297-.209.2399-.34.3271-.113.0754-.237.1333-.368.1716-.166.0481-.335.0809-.506.097-.257.0244-.516.0349-.773.0314-.015 0-.03-.0014-.044-.0035l-.029-.0042c-.058 0-.094.0091-.108.0265-.019.0377-.027.0809-.022.1235v1.2339c0 .3453.043.5678.13.6669.087.099.289.1527.607.1632v.1563l-2.233.0014Zm4.265-.1563v.1563l4.343.0034.39-1.2702-.137-.0725c-.089.2141-.182.3899-.279.5287-.091.1311-.186.2288-.285.2923-.203.1311-.535.1967-.997.1967h-1.164c-.091 0-.159-.0112-.21-.0328-.029-.0126-.053-.0293-.071-.0495-.051-.0544-.073-.1793-.073-.3739v-1.5472c0-.1123.015-.1806.043-.2085.058-.0328.123-.0468.188-.0398h.998c.39 0 .65.0509.759.1535.108.1018.18.3027.195.6019h.152v-1.7766h-.152c-.009.1632-.033.2958-.075.3976-.01.0237-.021.046-.032.067l-.022.0348-.013.0175c-.016.0216-.034.0411-.053.0579-.116.1004-.369.1513-.759.1513h-.991c-.068 0-.119-.0062-.155-.0188-.012-.0042-.023-.0091-.032-.0146-.006-.0042-.011-.0084-.015-.0133-.03-.0628-.042-.1325-.036-.2016v-1.3958c0-.1681.029-.2699.073-.309.043-.0391.144-.0572.288-.0572h1.258c.354 0 .6.0586.737.1758.012.0105.024.0216.036.0342l.033.0376c.033.0419.063.0921.09.1493.056.1172.098.2665.131.4478h.151l-.065-1.1446h-4.249v.1576c.148.0077.275.0251.376.0516.099.0265.173.0628.216.1081.087.0907.138.2693.138.5344v3.4842c0 .2693-.044.4478-.138.5357-.094.0879-.289.1374-.592.1507Zm8.492-2.567h.028c.283 0 .5-.0655.644-.1974.03-.0272.059-.0593.086-.0962.048-.0642.093-.1437.135-.2379.05-.1123.097-.2455.14-.3997l.066-.2965c.093-.4192.201-.7191.317-.897.082-.1332.194-.2462.325-.3299.128-.074.272-.1123.42-.1116.169-.0084.337.039.477.1346.016.0118.031.0244.046.0383l.015.0147.02.023c.02.0244.038.0516.052.0809.032.0621.048.1312.047.2009l.001.023-.002.0314c-.004.0349-.011.0691-.023.1019-.008.0188-.017.0376-.027.0551-.016.0286-.035.0551-.057.0788-.029.037-.067.067-.109.0872-.043.0202-.09.03-.137.03-.086 0-.188-.0523-.303-.157-.08-.0899-.191-.1457-.311-.1569-.084 0-.162.0642-.235.1911-.078.1367-.15.3474-.213.6306l-.047.2009c-.02.0858-.037.159-.055.219-.042.187-.113.3669-.209.533-.071.1276-.173.2343-.296.3104.289.2162.614.6661.976 1.349.137.2581.245.452.325.5853.075.1471.184.2741.317.3697.021.0132.042.0251.063.0362l.054.0265.055.0231.066.023c.071.0216.144.0362.218.0432v.1646h-1.265c-.017-.0376-.036-.0739-.058-.1095-.73-1.5325-1.214-2.2991-1.46-2.2991h-.086v1.5569l.001.0775.003.0488c.005.0746.015.1402.03.1974.024.0949.061.166.11.2142.094.092.296.145.593.1569v.1569h-2.262v-.1569c.086-.0021.163-.0077.232-.0174.128-.0175.227-.0468.298-.0886.02-.0119.039-.0251.055-.0391.094-.0914.145-.2734.145-.5483v-1.5604h-.109c-.119 0-.299.1932-.542.5804-.127.203-.27.4583-.431.7666-.13.2476-.27.5294-.422.8461l-.1.2176h-1.258v-.1569c.159-.014.313-.0663.447-.1521.135-.0976.246-.2239.326-.3704.072-.1318.181-.3264.318-.5852.362-.6829.686-1.1321.976-1.3484-.126-.0788-.229-.1862-.304-.3146-.096-.1674-.166-.348-.21-.5364-.029-.1018-.057-.2434-.1-.4199-.054-.24-.114-.4276-.179-.5629-.082-.1723-.173-.2588-.27-.2588-.12.0112-.231.067-.311.1569-.055.0503-.107.0879-.155.1144-.054.0286-.103.0426-.148.0426-.047.0014-.093-.0084-.136-.0279-.043-.0195-.08-.0488-.11-.0851-.068-.0788-.104-.18-.101-.2839 0-.0307.003-.0607.008-.09.008-.0398.02-.0774.039-.1137.031-.0628.077-.1179.134-.1597.136-.0977.302-.1458.469-.1368.125-.002.249.0252.362.0796.115.0572.216.1395.296.2406.152.1842.282.5176.398.9961.028.1458.058.2567.079.3293.094.3529.217.5943.355.7261.023.023.049.0433.077.0614l.039.0237.047.0237c.025.0112.051.0216.079.0307.115.0377.252.0565.407.0565h.03v-1.6071c0-.0593-.003-.1144-.008-.1654l-.008-.0648c-.004-.0258-.009-.0502-.014-.0733-.025-.1025-.063-.1799-.115-.2323-.051-.0509-.134-.0892-.245-.1157-.093-.0224-.208-.0363-.34-.0419v-.1576h2.262v.1576c-.297.0098-.492.0593-.586.1514-.019.0188-.036.0404-.051.0655-.018.0293-.034.0635-.048.1019-.033.0955-.052.2204-.052.3746v1.6029Zm8.283 2.567v.1563h2.182v-.1563c-.131-.0049-.241-.0181-.331-.0405-.109-.0265-.188-.0655-.24-.1157-.087-.0914-.13-.2707-.13-.5386v-1.4181c-.007-.0648.009-.1304.043-.1855.023-.0195.049-.0342.079-.0433.028-.0083.058-.0111.087-.0076h2.06c.072 0 .123.0146.145.0453.036.0572.051.1242.043.1911v1.4272c0 .2658-.051.4444-.144.5371-.058.0572-.152.0984-.282.1228-.08.0153-.174.0244-.282.0279l-.007.1569h2.19v-.1569c-.282-.0077-.47-.0593-.564-.1528-.094-.0934-.144-.2741-.144-.542v-3.4717c0-.2783.05-.4603.144-.5503.094-.0893.282-.1381.564-.1451v-.1611h-2.19v.1611c.062.0035.121.0084.174.0153.023.0028.045.0056.066.0098l.048.0084c.138.0272.235.0697.29.1276.086.0921.137.2693.137.5323v1.2688c.006.0704-.007.1409-.036.2051-.02.0188-.044.0335-.07.0425-.026.0084-.054.0119-.082.0084h-2.053c-.061.0084-.123-.0084-.173-.046-.022-.0349-.036-.074-.042-.1144l-.003-.037c0-.0133 0-.0265.002-.0398v-1.2876c0-.2707.043-.4507.137-.5399.094-.0893.282-.1423.564-.157v-.1576h-2.182v.1576c.183.0112.33.037.436.0795.056.0223.101.0495.134.0823.094.0935.138.2721.138.5351v3.4716c0 .2707-.036.45-.131.542-.093.0921-.282.1423-.577.1528Zm5.875.1563.007-.1563c.297-.0105.492-.0607.586-.1528.057-.0558.098-.143.121-.2622.006-.03.011-.0621.015-.097.006-.0551.009-.1158.009-.1814v-3.473c0-.263-.051-.4416-.145-.5351-.094-.0934-.296-.1451-.593-.1618v-.1576h2.248v.1576c-.289.0147-.484.0677-.578.157-.094.0892-.145.2706-.145.5399v3.0601l2.53-3.0811-.002-.06-.003-.0565-.005-.0648c-.005-.0398-.011-.0761-.019-.1096-.012-.0481-.026-.0906-.044-.1276-.011-.0216-.023-.0419-.036-.06-.011-.0146-.023-.0286-.036-.0404-.02-.0196-.045-.037-.075-.0524-.027-.0139-.057-.0265-.091-.0376-.107-.0349-.25-.0558-.426-.0635v-.1611h2.254v.1611c-.288.007-.484.0558-.585.1451-.045.0425-.08.1074-.105.1939-.026.0928-.04.2114-.04.3551v3.473c0 .2665.051.4472.153.5406.1.0935.289.1451.577.1528v.1563h-2.254v-.1563c.296-.0084.491-.0579.592-.1507.102-.0927.145-.2713.145-.5357v-3.0601l-2.53 3.0699c0 .2602.051.4352.145.5231.053.0489.135.0865.249.113.089.021.199.0342.329.0398v.1563h-2.248Zm5.883-.157v.157h2.248v-.157c-.296-.0126-.498-.0642-.585-.1521-.087-.0879-.138-.2629-.138-.5238l2.523-3.0699v3.0608c0 .2644-.051.443-.145.5357-.048.0468-.121.083-.22.1082-.097.0244-.219.0383-.365.0418v.157h2.255v-.157c-.289-.007-.484-.0586-.586-.1521-.101-.0934-.144-.2748-.144-.5413v-3.4723c0-.277.043-.4604.144-.549.03-.0286.07-.0523.12-.0726l.053-.0181c.103-.0321.241-.0502.413-.0544v-.1611h-2.255v.1611c.296.0118.484.0628.585.1528.058.0516.098.1311.12.2378.008.0356.013.0747.018.1165.005.0502.007.1053.007.1646l-2.523 3.0811v-3.0594c0-.2693.037-.4514.138-.5406.039-.0349.093-.0642.161-.0879.106-.037.247-.06.424-.0684v-.1576h-2.248v.1576c.297.0167.485.0677.586.1618.101.0935.144.2721.144.5351v3.4723c0 .1075-.007.2002-.021.2791-.004.0265-.01.0509-.016.0739-.023.0823-.056.1451-.1.1883-.093.0921-.289.1423-.593.1521Zm2.169-6.1014c-.102-.2072-.239-.3104-.412-.3104-.036-.0021-.072.0027-.105.0153-.034.0126-.065.0321-.09.0572-.026.0258-.045.0565-.057.09-.013.0342-.018.0697-.016.106 0 .1681.123.3097.362.4213.196.0928.447.1472.743.1639.063.0035.129.0049.196.0049.383 0 .694-.0558.932-.1688.239-.1123.355-.2532.355-.4213v-.0342l-.006-.0349-.01-.0369c-.012-.0335-.031-.0642-.057-.09-.009-.0091-.019-.0174-.03-.0251-.017-.0133-.036-.023-.056-.0307-.018-.007-.036-.0119-.055-.0147l-.02-.0014c-.008-.0006-.018-.0013-.027-.0006-.173 0-.317.1053-.419.3138l-.018.0405-.01.0188c-.019.0412-.044.0789-.075.1109-.03.0321-.066.0593-.106.0796-.128.0411-.264.0586-.398.0502-.139.0091-.278-.0077-.412-.0502-.08-.0412-.144-.1082-.181-.1905-.007-.0125-.014-.0334-.028-.0627Zm-18.842 6.2584.007-.1563c.275-.0133.455-.0628.542-.1507.028-.0286.052-.0669.071-.1151.014-.0348.025-.0746.034-.1192.017-.0831.025-.1835.025-.3014v-3.4842c0-.2651-.044-.4437-.13-.5344-.087-.0906-.267-.145-.549-.1597v-.1576h3.924l.058 1.1446h-.137c-.051-.3285-.138-.5524-.268-.6689-.13-.1172-.354-.1758-.679-.1758h-1.156c-.138 0-.224.0181-.268.0572-.023.0209-.041.06-.051.1179-.009.0495-.014.113-.014.1911v1.3958c-.007.0684.002.1381.029.2016.029.0314.086.0467.188.0467h.911c.361 0 .599-.0502.701-.1513.035-.0349.065-.0802.091-.1361.015-.0327.028-.069.039-.1088.015-.0502.027-.1067.035-.1688.007-.0495.013-.1032.015-.1611h.144v1.7766h-.144c-.014-.2992-.079-.5001-.18-.6019-.102-.1026-.34-.1535-.701-.1535h-.918c-.061-.0063-.122.0077-.174.0398-.031.0648-.043.1374-.036.2085v1.5472c0 .1932.021.3181.065.3739.022.0279.055.0488.099.0628.025.0076.054.0132.085.016.024.0021.049.0035.076.0035h1.07c.426 0 .73-.0656.918-.1967.104-.0726.204-.1898.301-.3516.078-.1283.153-.2853.227-.4694l.123.0725-.355 1.2702-4.018-.0034ZM61.7491 19.1009c7.6402-.1646 32.0847-.6919 32.2867-7.034-.202-6.34354-24.6677-6.87019-32.2968-7.03481-.5556-.01186-1.0219-.02163-1.3833-.03209v14.1337c.3635-.0105.8333-.0209 1.3934-.0328ZM44 27.2315v-4.7956c22.1234 1.0184 46.2488-.8657 49.9493-5.6027l-.0795 4.8703c-7.001 6.347-37.3537 5.7673-48.9654 5.5455L44 27.2315Zm0 3.8833v4.7956l.9075.0175c11.6138.2218 41.9617.8014 48.9623-5.5455l.0795-4.8689C90.2488 30.2498 66.1234 32.1332 44 31.1148Zm0 13.7465v-4.7984c22.1234 1.0212 46.2488-.8622 49.9493-5.5985l-.0795 4.8689c-7.0006 6.347-37.3485 5.7673-48.9623 5.5455L44 44.8613Z"/>
</svg>