<svg xmlns="http://www.w3.org/2000/svg" viewBox="0 0 200 50">
	<radialGradient id="gr1" cx="-188.2975" cy="428.3964" r="1" gradientTransform="matrix(22.6372 0 0 -22.6372 4432.8271 9715.668)" gradientUnits="userSpaceOnUse">
		<stop offset="0" stop-color="#f28e76"/>
		<stop offset=".2095" stop-color="#e5302f"/>
		<stop offset=".8715" stop-color="#b42b28"/>
		<stop offset="1" stop-color="#cf2c2a"/>
	</radialGradient>
	<path fill="url(#gr1)" d="M165.4 39.2c8 0 14.5-6.5 14.5-14.5s-6.5-14.5-14.5-14.5-14.5 6.5-14.5 14.5 6.5 14.5 14.5 14.5z"/>
	<radialGradient id="gr2" cx="-187.1658" cy="426.1215" r="1" gradientTransform="matrix(20.0321 0 0 -20.0321 3920.1868 8552.8076)" gradientUnits="userSpaceOnUse">
		<stop offset="0" stop-color="#fff"/>
		<stop offset=".17" stop-color="#fff"/>
		<stop offset=".75" stop-color="#dfdfe1"/>
		<stop offset=".96" stop-color="#bdc0c5"/>
		<stop offset="1" stop-color="#c4c5ca"/>
	</radialGradient>
	<path fill="url(#gr2)" d="M172.5 18.5c-.7 0-1.4.4-1.7 1l-3 5.2-3-5.2c-.4-.6-1-1-1.7-1s-1.4.4-1.7 1l-4.7 8.1c-.5.9-.2 2.2.7 2.7.3.2.6.3 1 .3.7 0 1.4-.4 1.7-1l3-5.2 3 5.2c.4.6 1 1 1.7 1s1.4-.4 1.7-1l4.7-8.1c.5-.9.2-2.2-.7-2.7-.3-.2-.7-.3-1-.3z"/>
	<path fill="#1e488c" d="M42.5 21.7c-.8-.6-1.8-1-3-1-1.9 0-3.5.4-5 1l.6 1.2c.3.7.9 1.1 1.3 1 .2-.1.4-.1.7-.2.8-.2 1.5-.2 2.1-.2.9 0 1.4.3 1.4.9 0 .5-.4.9-1.1.9-1.6 0-2.8.1-3.6.4-1.2.5-1.9 1.7-1.9 3.1 0 1.3.5 2.4 1.4 3 .8.5 1.8.8 3.1.8 2.3 0 5.4-.2 5.4-.2v-8.1c.1-1.1-.4-1.9-1.4-2.6zm-3.6 8.2c-1 0-1.4-.3-1.4-1 0-.5.4-1 1.2-1h1.1c.2 0 .5 0 .7-.1v2.1h-1.6zM139.2 21.7c-.9-.6-1.8-1-3-1-1.9 0-3.5.4-5 1l.6 1.2c.3.7.9 1.1 1.3 1 .2-.1.4-.1.7-.2.8-.2 1.5-.2 2.1-.2.9 0 1.4.3 1.4.9 0 .5-.4.9-1.1.9-1.6 0-2.8.1-3.6.4-1.2.5-1.9 1.7-1.9 3.1 0 1.3.5 2.4 1.4 3 .8.5 1.8.8 3.1.8 2.3 0 5.4-.2 5.4-.2v-8.1c0-1.1-.5-1.9-1.4-2.6zm-3.6 8.2c-1 0-1.4-.3-1.4-1 0-.5.4-1 1.2-1h1.1c.2 0 .5 0 .7-.1v2.1h-1.6zM110.3 32.7c-1.4 0-2.7-.4-3.6-1.2-1-.8-1.5-1.9-1.5-3.3V21h3.4v7.2c0 .8.6 1.2 1.7 1.2.3 0 .9-.1 1.9-.3V21h3.4v10.4s-3.3 1.3-5.3 1.3zM66.5 32.5l-2.4-4.7c-.4.1-.8.2-1.1.2h-.2v4.5h-3.4V20.9h.6c2 0 2.8.9 2.8 2.4v1.2h.9c.4 0 .6-.2.9-.7.4-.7.5-.7 1.1-1.7.6-.9 1.3-1.4 2.5-1.4h2.2l-3.6 5.4 4 6.1c0 .3-4.3.3-4.3.3zM96.9 28h3.6c.7 0 1.3-.2 1.8-.5.5-.4.8-.9.8-1.7 0-1.4-.6-2.8-1.7-3.8-1.1-.9-2.3-1.3-3.7-1.3-1.6 0-2.9.5-4 1.6-1.1 1-1.6 2.5-1.6 4.5s.7 3.6 2.1 4.6c1.2.9 2.8 1.3 4.7 1.3 1.3 0 2.5-.2 3.6-.7l-.5-1.3c-.3-.7-1.1-1.1-1.8-1-.4.1-.9.1-1.4.1-.6 0-1.3-.1-1.9-.3-.7-.2-1.4-1-1.5-1.7v-.1c.7.2 1.2.3 1.5.3zm-.6-3.9c.4-.3.9-.5 1.4-.5.5 0 1 .2 1.4.5.4.3.7 1 .7 1.4-.5-.1-.9-.2-1.2-.2h-2c-.3 0-.7.1-1.2.2.3-.4.5-1.1.9-1.4zM86.7 32.5v-5.6c-.2-.2-.5-.3-.9-.3h-3.5c-.4 0-.6.1-.9.3v5.6H78V19.8c0-1.6 1.6-2.4 2.5-2.4h1v6c.3-.1.6-.1.9-.1h3.5c.3 0 .6 0 .9.1V20c0-1.1.6-2.7 2.5-2.7h.9v15.1l-3.5.1zM53.5 32.5v-4.2c-.2-.2-.5-.3-.9-.3h-1.8c-.4 0-.6.1-.9.3v4.2h-3.4v-8.9c0-1.7 1-2.6 2.3-2.6h1.1v3.9c.3-.1.6-.1.9-.1h1.8c.3 0 .6 0 .9.1v-1.4c0-1.6 1-2.4 2.3-2.4h1.1v11.5h-3.4zM112.5 19.4c-2 .4-4.2.2-6.1-.6 0 0 .2-.5.5-1.2.3-.6 1.2-.9 2.1-.7 1.6.3 3.2.1 4.7-.5 0 0 .2.5.5 1.2.2.6-.5 1.6-1.7 1.8zM127.3 26.4c.8-.5 1.2-1.8 1.2-2.5 0-.8-.3-1.5-.8-2.1-.5-.6-1.2-.9-2.1-.9h-7.4v11.5h7c1 0 1.9-.3 2.6-.9.8-.7 1.1-1.5 1.1-2.5 0-.8-.7-2.3-1.6-2.6zm-5.7-2.2h2.8c.4 0 .6.1.6.4.1.4 0 .6-.1.8-.2-.1-.5-.1-.8-.1h-1.8c-.3 0-.5 0-.7.1v-1.2zm3.5 4.8c-.2.1-.6.2-1 .2h-2.5V28c.2-.1.5-.2.8-.2h2c.4 0 .8 0 .9.2.1.1.1.3.1.5s-.1.4-.3.5zM30.9 24.3c.9 1 1.4 2.1 1.4 3.3 0 1.4-.5 2.6-1.6 3.5-1 .9-2.3 1.3-3.7 1.3h-7v-15h11.4s-.2 3.2-2.8 3.2h-5.1v8.6H27c.6 0 1-.1 1.4-.4.4-.3.5-.6.5-1.1 0-.4.1-.8-.5-1.4-.5-.5-1.1-.5-1.9-.7-1.9-.5-1.5-2.8-1.5-2.8s4-.5 5.9 1.5z"/>
</svg>