<svg xmlns="http://www.w3.org/2000/svg" viewBox="0 0 200 50">
	<path fill="#DD1F2A" d="M32.7226 12.0973c.0341-4.80295 2.9489-8.00003 6.5499-8.09735 3.601-.09733 6.6861 3.13382 6.8127 7.07545.0261 1.9182-.4792 3.8062-1.4599 5.455-1.3674 2.4574-5.8978 7.0413-5.8978 7.0413l-1.7226-3.3722s.725-1.0317 1.6788-2.1801c1.2364-1.4408 2.2336-3.0706 2.9538-4.8272.2796-.6467.4221-1.3442.4185-2.0487-.0536-1.68857-1.2312-3.0365-2.6716-3.02677-1.4404.00974-2.6472 1.3966-2.6715 3.05107-.062 1.2035.2582 2.3958.9148 3.4064.3212.4866.8078 1.3965.8078 1.3965l-2.5401 3.0511c-.5655-.7341-1.0871-1.5011-1.5621-2.2968-1.0121-1.6983-1.6204-3.5377-1.6204-4.6375M31.7396 16.6131c-1.0946-1.0803-2.4408-1.8713-3.9172-2.3017-3.747-1.0317-7.6351 1.0462-8.5889 4.5936-.4538 1.809-.1827 3.7238.7555 5.3357.9382 1.6119 2.4693 2.7933 4.2664 3.2921 1.8102.4981 3.7223.4897 5.528-.0244.6599-.1654 1.3098-.3685 1.9465-.6082l-1.9124-3.6351s-.8224.2579-1.3869.4234c-1.1374.3331-2.3572.2396-3.4306-.2628-1.5329-.6423-2.3407-2.2725-1.8054-3.635.5353-1.3626 2.2579-2.0244 3.7518-1.4599.7643.3522 1.4635.8309 2.0682 1.4161 3.4063 2.9197 4.7348 8.0486 4.7348 8.0486s-4.3796 1.4599-5.9611 2.545c-3.0706 2.146-4.3796 5.9076-3.1825 9.0657.4233 1.2216 1.209 2.285 2.2523 3.0484 1.0434.7634 2.2948 1.1905 3.5871 1.2241 1.4678-.0075 2.9006-.4491 4.118-1.2691 1.2175-.82 2.1652-1.9818 2.7239-3.3391.8856-2.0682 1.0949-4.2531 1.1387-6.4769.0135-2.9759-.5714-5.9241-1.72-8.6694-1.1486-2.7452-2.8375-5.2316-4.9662-7.3111zm1.5913 21.2554c-.6278 1.1047-1.5523 1.7859-2.8759 1.7032-.4742-.0116-.9328-.172-1.3109-.4584s-.6566-.6844-.7962-1.1377c-.4526-1.2555 0-2.2823.7591-3.309 1.3188-1.7762 5.0025-2.7056 5.0025-2.7056s.1362 1.5085.1362 2.0195c.046 1.3564-.2715 2.7005-.9197 3.8929M41.0876 37.5377c.3773 1.5086 1.1154 2.903 2.1508 4.0632 2.657 2.8906 7.0317 3.2215 9.6691.7154 2.73-2.5937 2.8127-7.0901.1606-10.039-1.2746-1.4007-2.9063-2.4285-4.7202-2.9732-.6383-.2133-1.2881-.3904-1.9464-.5304l-.2385 4.1216s.8321.2239 1.3966.3893c1.1459.3331 2.1338 1.0672 2.7835 2.0682.9732 1.3722.8224 3.1922-.3309 4.0632-1.1533.8711-2.9635.4866-3.9319-.7932-.4692-.7099-.8177-1.4926-1.0316-2.3163-1.4064-4.326.1119-9.3966.1119-9.3966s4.4915 1.129 6.3795 1.0414c3.6886-.1508 6.7543-2.6375 7.3626-5.9708.2706-1.2842.1496-2.6201-.3475-3.8347-.4972-1.2146-1.3475-2.252-2.4408-2.9779-1.2313-.7839-2.6693-1.1807-4.1283-1.139-1.4591.0416-2.8721.5197-4.0567 1.3725-1.815 1.2798-3.1192 3.0317-4.2968 4.8954-1.5498 2.5555-2.5721 5.3954-3.0067 8.3523-.4346 2.9569-.2726 5.9709.4763 8.8643l-.0146.0243zm9.5718-18.9392c.498-.3221 1.0824-.4848 1.6753-.4666.5928.0183 1.1661.2167 1.6434.5688.3984.2652.7055.6465.8796 1.0922.1741.4458.2068.9343.0936 1.3993-.2579 1.309-1.1678 1.9465-2.3503 2.4087-2.0341.7981-5.6448-.3941-5.6448-.3941s.6569-1.3577.9246-1.7908c.6525-1.1745 1.6132-2.1487 2.7786-2.8175"/>
	<path fill="#242122" d="M68.3528 41.2847h-4.1411c-.1095.0065-.2192-.0087-.3227-.0449-.1035-.0362-.1987-.0927-.2802-.166-.0815-.0734-.1477-.1622-.1945-.2613-.0469-.0992-.0736-.2066-.0785-.3162v-3.6642c.0137-.2178.113-.4213.2762-.5662.1631-.1449.3769-.2195.5948-.2075h4.146c.2179-.012.4317.0626.5948.2075.1632.1449.2624.3484.2762.5662v3.6642c-.0138.2178-.113.4213-.2762.5662-.1631.145-.3769.2195-.5948.2076M78.5717 41.2846H74.382c-.1099.0073-.2201-.0075-.3241-.0434-.1041-.0359-.2-.0922-.282-.1656-.082-.0734-.1486-.1625-.1958-.2619-.0471-.0995-.074-.2074-.0789-.3174v-3.7031c.0138-.2178.1131-.4213.2762-.5662.1632-.145.377-.2195.5948-.2076h4.1898c.2179-.0119.4317.0626.5948.2076.1632.1449.2625.3484.2763.5662v3.7031c-.0138.2178-.1131.4213-.2763.5662-.1631.1449-.3769.2195-.5948.2075M88.815 41.2846h-4.1897c-.1091.0059-.2183-.0098-.3212-.0463-.1029-.0365-.1976-.0931-.2786-.1663-.081-.0733-.1467-.1619-.1932-.2607-.0466-.0988-.0731-.2059-.0781-.315v-3.7031c.0138-.2178.1131-.4213.2762-.5662.1632-.145.377-.2195.5949-.2076h4.1897c.2179-.0119.4317.0626.5949.2076.1631.1449.2624.3484.2762.5662v3.7031c-.0138.2178-.1131.4213-.2762.5662-.1632.1449-.377.2195-.5949.2075M99.0632 41.2846h-4.1897c-.1091.0059-.2183-.0098-.3212-.0463-.1029-.0365-.1976-.0931-.2786-.1663-.081-.0733-.1467-.1619-.1932-.2607-.0466-.0988-.0731-.2059-.0781-.315v-3.7031c.0138-.2178.1131-.4213.2762-.5662.1632-.145.377-.2195.5949-.2076h4.1897c.2179-.0119.4317.0626.5949.2076.1631.1449.2624.3484.2762.5662v3.7031c-.0138.2178-.1131.4213-.2762.5662-.1632.1449-.377.2195-.5949.2075M109.311 41.2846h-4.18c-.109.0073-.22-.0075-.324-.0434-.104-.0359-.2-.0922-.282-.1656-.082-.0734-.148-.1625-.195-.262-.048-.0994-.074-.2073-.079-.3173v-3.7032c.006-.1087.035-.215.083-.3128.048-.0977.114-.1851.196-.257.082-.0719.177-.1269.28-.1619.104-.035.213-.0492.321-.042h4.19c.218-.012.432.0626.595.2075.163.145.262.3485.276.5662v3.7032c-.014.2178-.113.4213-.276.5662-.163.1449-.377.2195-.595.2075M119.56 41.2846h-4.21c-.217.0067-.428-.0723-.587-.2198-.159-.1474-.254-.3516-.264-.5685v-3.7031c.014-.2143.11-.4148.269-.5592.159-.1444.368-.2213.582-.2146h4.19c.218-.0119.432.0626.595.2076.163.1449.262.3484.276.5662v3.7031c-.014.2178-.113.4213-.276.5662-.163.1449-.377.2195-.595.2075M129.808 41.2846h-4.19c-.109.0059-.218-.0098-.321-.0463-.103-.0365-.198-.0931-.279-.1663-.081-.0733-.146-.1619-.193-.2607-.047-.0988-.073-.2059-.078-.315v-3.7031c.014-.2178.113-.4213.276-.5662.163-.145.377-.2195.595-.2076h4.19c.218-.0119.431.0626.595.2076.163.1449.262.3484.276.5662v3.7031c-.014.2178-.113.4213-.276.5662-.164.1449-.377.2195-.595.2075M140.056 41.2846h-4.19c-.109.0059-.218-.0098-.321-.0463-.103-.0365-.198-.0931-.279-.1663-.081-.0733-.146-.1619-.193-.2607-.046-.0988-.073-.2059-.078-.315v-3.7031c.014-.2178.113-.4213.276-.5662.163-.145.377-.2195.595-.2076h4.19c.218-.0119.432.0626.595.2076.163.1449.262.3484.276.5662v3.7031c-.014.2178-.113.4213-.276.5662-.163.1449-.377.2195-.595.2075M150.304 41.2846h-4.19c-.109.0059-.218-.0098-.321-.0463-.103-.0365-.197-.0931-.278-.1663-.081-.0733-.147-.1619-.194-.2607-.046-.0988-.073-.2059-.078-.315v-3.7031c.014-.2178.113-.4213.277-.5662.163-.145.376-.2195.594-.2076h4.19c.218-.0119.432.0626.595.2076.163.1449.262.3484.276.5662v3.7031c-.014.2178-.113.4213-.276.5662-.163.1449-.377.2195-.595.2075M160.552 41.2846h-4.189c-.11.0059-.219-.0098-.322-.0463-.103-.0365-.197-.0931-.278-.1663-.081-.0733-.147-.1619-.193-.2607-.047-.0988-.074-.2059-.079-.315v-3.7031c.014-.2178.114-.4213.277-.5662.163-.145.377-.2195.595-.2076h4.189c.218-.0119.432.0626.595.2076.163.1449.263.3484.276.5662v3.7031c-.013.2178-.113.4213-.276.5662-.163.1449-.377.2195-.595.2075M170.8 41.2846h-4.189c-.109.0059-.219-.0098-.321-.0463-.103-.0365-.198-.0931-.279-.1663-.081-.0733-.147-.1619-.193-.2607-.047-.0988-.073-.2059-.078-.315v-3.7031c.013-.2178.113-.4213.276-.5662.163-.145.377-.2195.595-.2076h4.189c.218-.0119.432.0626.595.2076.163.1449.263.3484.276.5662v3.7031c-.013.2178-.113.4213-.276.5662-.163.1449-.377.2195-.595.2075M181.044 41.3041h-4.185c-.218.0119-.432-.0626-.595-.2076-.163-.1449-.262-.3484-.276-.5662v-3.7177c.014-.2178.113-.4213.276-.5662.163-.145.377-.2195.595-.2076h4.185c.218-.0119.431.0626.595.2076.163.1449.262.3484.276.5662v3.7129c-.013.2186-.111.4234-.275.5693-.163.146-.378.2212-.596.2093M63.4769 7.63989h6.691v1.14355H64.781v2.88566h2.7299c.5036-.0094 1.0057.0579 1.4891.1995.3871.1147.7454.3104 1.0511.5742.2782.2465.492.5572.6228.9051.1408.3832.2101.7889.2044 1.1971.0063.4035-.063.8045-.2044 1.1825-.1299.3503-.3379.6665-.6082.9246-.2798.2609-.6114.4599-.9733.5839-.423.143-.8674.2121-1.3138.2044h-4.3017V7.63989zm1.3041 8.63751h2.8273c.2492.0014.4976-.028.7396-.0876.2164-.0515.419-.1495.5937-.2871.1729-.1418.3083-.324.3941-.5304.1026-.2617.1506-.5416.1412-.8224.0078-.2801-.0436-.5587-.1509-.8175-.0928-.2132-.2406-.3979-.4282-.5353-.2031-.1416-.4335-.2394-.6764-.2871-.2978-.0611-.6012-.0905-.9051-.0876H64.781v3.455zM71.4379 17.4209l3.6691-9.93189h1.5913l3.5474 9.93189h-1.4598l-1.0317-2.9927h-3.8443l-1.09 2.9927h-1.382zm5.9562-4.0292l-1.489-4.35037-1.6497 4.35037h3.1387zM81.4525 7.63989h1.2944V11.674h5.202V7.63989h1.309v9.78101h-1.309v-4.6034h-5.202v4.6034h-1.3041l.0097-9.78101zM91.292 7.63989h1.3041v4.76401l4.7494-4.76401h1.8248l-4.073 3.94651 4.1849 5.8394h-1.6788l-3.4453-4.9295-1.5815 1.5232v3.4063h-1.3041l.0195-9.78591zM142.815 19.9708h6.681c.491-.0067.982.0456 1.46.1557.385.0903.755.2345 1.1.4282.554.3129 1 .7862 1.28 1.3577.12.249.208.5122.263.7834.05.25.076.5042.077.7592.003.3122-.028.6239-.092.9294-.058.2635-.156.5164-.292.7494-.138.2319-.314.4391-.521.6131-.234.1924-.49.3558-.764.4867.407.1405.784.3568 1.11.6374.261.2329.477.5116.637.8224.146.286.246.5931.297.91.048.2993.072.602.073.9051.013.6035-.11 1.2022-.36 1.7518-.234.4991-.582.9359-1.017 1.275-.476.3618-1.019.6279-1.596.7834-.68.1857-1.383.2757-2.088.2677h-6.248V19.9708zm2.735 5.3528h3.513c.241.0011.481-.0267.716-.0827.218-.0506.425-.1432.608-.2725.177-.127.322-.2936.423-.4867.11-.2219.164-.4677.156-.7153.01-.2478-.038-.4945-.141-.7202-.09-.1809-.226-.3352-.394-.4477-.177-.116-.376-.1954-.584-.2336-.233-.0437-.469-.0648-.706-.0632h-3.586l-.005 3.0219zm0 5.9027h3.547c.294.0025.587-.0352.871-.112.25-.0656.485-.1797.691-.3357.195-.1525.35-.3494.453-.5742.112-.2593.167-.5399.16-.8224.019-.3357-.048-.6706-.194-.9733-.12-.2261-.298-.416-.516-.5498-.222-.1317-.469-.2177-.725-.2531-.272-.0398-.547-.0593-.822-.0584h-3.475l.01 3.6789zM156.518 19.9707h9.995v2.3455h-7.265v3.0219h6.681v2.3552h-6.681v3.4356h7.587v2.4622h-10.317V19.9707zM169.268 19.9707h2.846v5.5426l5.207-5.5426H181l-5.562 5.5766 5.883 8.0438h-3.606l-4.214-6.034-1.392 1.416v4.6132h-2.841V19.9707zM63.5255 19.9707h2.8565v5.1776h5.3528v-5.1776h2.8467V33.596h-2.8467v-6.0925H66.382v6.0876h-2.8565V19.9707zM76.7372 26.7785c-.0084-.9609.1294-1.9175.4088-2.837.2494-.8293.665-1.5991 1.2214-2.2628.5597-.6504 1.2603-1.1646 2.0486-1.5036.9083-.3807 1.8865-.5664 2.8711-.545.9368-.0151 1.866.1708 2.725.545.7964.3444 1.5087.8574 2.0876 1.5036.5716.6663 1.0064 1.4384 1.2798 2.2725.6047 1.8397.6047 3.8246 0 5.6643-.2737.8325-.7086 1.603-1.2798 2.2676-.5719.6435-1.2756 1.1563-2.0632 1.5037-.859.3742-1.7882.56-2.7251.545-.9846.0214-1.9627-.1643-2.871-.545-.7971-.3358-1.5063-.8503-2.073-1.5037-.5576-.6665-.9732-1.4398-1.2214-2.2725-.2787-.9179-.4166-1.8728-.4088-2.8321zm6.5499 4.6861c.5397.0101 1.0738-.1101 1.5572-.3503.4558-.2329.8534-.5656 1.163-.9733.3305-.4379.5779-.9327.7299-1.4598.3331-1.2285.3331-2.5234 0-3.7519-.152-.5271-.3994-1.0219-.7299-1.4598-.3096-.4077-.7072-.7403-1.163-.9732-.4863-.2321-1.0184-.3526-1.5572-.3526-.5389 0-1.0709.1205-1.5572.3526-.4559.2329-.8534.5655-1.163.9732-.3293.4386-.5766.9332-.7299 1.4598-.3401 1.2275-.3401 2.5244 0 3.7519.1533.5266.4006 1.0212.7299 1.4598.3096.4077.7071.7404 1.163.9733.4844.2427 1.0203.3645 1.562.3552l-.0048-.0049zM92.2214 19.9707h6.6813c.4911-.0068.9812.0455 1.4603.1557.384.0903.755.2345 1.099.4282.554.3129 1 .7862 1.28 1.3577.121.2489.209.5122.263.7834.051.2499.077.5042.078.7592.003.3122-.028.6239-.093.9294-.058.2635-.156.5163-.292.7494-.128.2293-.292.4364-.486.6131-.234.1925-.491.3559-.764.4867.396.1437.762.3599 1.08.6374.269.234.492.5163.657.8321.146.286.246.593.297.91.048.2993.072.602.073.9051.006.5978-.12 1.1895-.37 1.7324-.234.499-.583.9359-1.017 1.2749-.478.3624-1.022.6285-1.601.7835-.6802.1857-1.3828.2758-2.0877.2676h-6.2579V19.9707zm2.7348 5.3528h3.5134c.2409.001.481-.0268.7153-.0827.2186-.0504.4252-.143.6083-.2726.1773-.1268.3218-.2935.4238-.4866.11-.2219.163-.4677.155-.7153.009-.2482-.041-.495-.146-.7202-.09-.1811-.226-.3354-.3939-.4477-.1771-.116-.3756-.1955-.5839-.2336-.2327-.0437-.4689-.0649-.7056-.0632h-3.5864v3.0219zm0 5.9027h3.5474c.2941.0025.5872-.0352.8711-.112.2501-.0656.4848-.1797.6913-.3357.194-.1524.35-.3493.452-.5742.114-.259.169-.5398.161-.8224.018-.3357-.049-.6706-.195-.9733-.12-.2261-.298-.416-.5156-.5498-.2222-.1324-.4688-.2185-.7251-.2531-.2707-.0396-.5439-.0592-.8175-.0584h-3.4745l.0049 3.6789zM105.925 19.9707h2.846v5.3528h3.499c.344.0166.686.0622 1.022.1363.377.0809.744.2033 1.095.3649.365.1746.695.4155.973.7105.317.3371.564.7342.725 1.1679.2.5601.294 1.1525.278 1.7469.016.5897-.078 1.1773-.278 1.7324-.161.4292-.402.8239-.71 1.163-.276.2958-.607.5354-.974.7056-.325.1551-.666.2758-1.017.3601-.298.0732-.603.1188-.91.1362H105.925V19.9707zm2.846 11.2798h2.433c.269.0002.537-.0177.803-.0535.266-.0349.523-.1174.759-.2433.237-.1274.434-.3177.57-.5499.161-.2981.239-.6345.224-.9732.018-.3494-.057-.6974-.219-1.0073-.138-.2464-.344-.4475-.594-.5791-.247-.1278-.516-.207-.793-.2336-.294-.0317-.59-.048-.886-.0487h-2.297v3.6886zm9.45-11.2798h2.847V33.596h-2.847V19.9707zM123.623 19.9707h2.735v9.2749h.039l5.391-9.2749h2.881V33.596h-2.774v-9.2263l-5.401 9.2214h-2.871V19.9707z"/>
	<path fill="#242122" d="M129.156 21.3721h-1.674l1.43-2.7299h2.01l-1.766 2.7299z"/>
</svg>
