<svg viewBox="0 0 200 50" xmlns="http://www.w3.org/2000/svg">
	<path fill="#123A92" d="m32.4117 30.8498 2.8206 6.1525H22.8318l2.8214-6.1525h6.7585Zm9.5194-5.3491c0-3.7179-1.661-7.332-4.4069-9.7301l-3.5528 7.7487h-9.8779l-3.5519-7.7487c-2.7476 2.3997-4.4094 6.013-4.4094 9.7301 0 3.718 1.6618 7.3313 4.4094 9.731l3.5519-7.7479h9.8779l3.5528 7.7479c2.745-2.3981 4.4069-6.0122 4.4069-9.731Zm-8.686-3.1144L37.09 14c3.7271 2.5749 5.9733 6.9561 5.9733 11.5007 0 4.5455-2.2462 8.9267-5.9733 11.5016l-3.8449-8.3863h-8.4253l-3.8441 8.3863C17.2487 34.4274 15 30.0462 15 25.5007c0-4.5446 2.2487-8.9258 5.9757-11.5007l3.8441 8.3863h8.4253Zm-.8334-2.2329L35.2323 14H22.8318l2.8214 6.1534h6.7585Zm26.9477 3.4896h-6.3036v-5.7674h-2.9061v14.9099h2.9061v-6.639h6.3036v6.639h2.9061V17.8756h-2.9061v5.7674Zm14.3719 9.4778c4.6941 0 7.958-3.2414 7.958-7.7794 0-4.5381-3.2639-7.8011-7.958-7.8011-4.694 0-7.9579 3.263-7.9579 7.8011 0 4.538 3.2639 7.7794 7.9579 7.7794Zm0-12.9425c2.9062 0 4.9631 2.1457 4.9631 5.1631 0 3.0181-2.0569 5.1415-4.9631 5.1415-2.9061 0-4.963-2.1234-4.963-5.1415 0-3.0174 2.0569-5.1631 4.963-5.1631Zm19.3176-2.3027-5.4768 6.3036-.0009-6.3036h-2.9061v14.9099h2.9061v-6.3484l.3354-.3354 5.2984 6.6838h3.8449l-6.639-8.0252 6.3045-6.8847h-3.6665Zm13.4551 15.2452c1.609 0 2.794-.4025 3.688-.8715l.001-3.3975c-.872 1.0284-2.101 1.6319-3.488 1.6319-2.503 0-5.051-1.7888-5.051-5.0967 0-2.75 1.944-5.2079 4.939-5.2079.537 0 2.236.1112 3.6 1.6759v-3.3983c-1.364-.738-2.616-.9164-3.667-.9164-2.123 0-3.978.5586-5.477 1.9673-1.2739 1.1845-2.3912 3.1294-2.3912 5.8346 0 2.1906.664 4.0524 2.3912 5.7001 1.248 1.1895 2.839 2.0785 5.455 2.0785Zm14.016 0c1.609 0 2.794-.4025 3.688-.8715v-3.3975c-.871 1.0284-2.101 1.6319-3.487 1.6319-2.503 0-5.052-1.7888-5.052-5.0967 0-2.75 1.945-5.2079 4.941-5.2079.536 0 2.235.1112 3.598 1.6759v-3.3983c-1.363-.738-2.615-.9164-3.666-.9164-2.123 0-3.979.5586-5.477 1.9673-1.273 1.1845-2.391 3.1294-2.391 5.8346 0 2.1906.664 4.0524 2.391 5.7001 1.248 1.1895 2.84 2.0785 5.455 2.0785Zm15.707-15.2452h-8.629l.001 14.9099h4.94c1.297 0 3.159-.1967 4.292-1.8104.517-.7363.827-1.6543.827-2.6604 0-1.4086-.558-2.5483-1.408-3.3087-1.163-1.0276-2.616-1.2069-3.733-1.2069h-2.012v-3.4199h5.722v-2.5036Zm-4.336 12.4064h-1.386v-3.9786h1.431c2.212 0 2.726 1.0949 2.726 2.0337 0 .8492-.447 1.9449-2.771 1.9449Zm11.777-.6259h6.013L151 32.7855h3.129l-6.281-15.2228h-2.191l-6.46 15.2228h3.152l1.319-3.1294Zm3.062-7.7347 2.102 5.3648h-4.248l2.146-5.3648Zm18.904 1.7216h-6.304v-5.7674h-2.906v14.9099h2.906v-6.639h6.304v6.639h2.906V17.8756h-2.906v5.7674Zm15.364-5.7674-5.477 6.3036v-6.3036h-2.906v14.9099h2.906v-6.3484l.336-.3354 5.298 6.6838H185l-6.639-8.0252 6.304-6.8847h-3.667Z"/>
</svg>