<svg xmlns="http://www.w3.org/2000/svg" viewBox="0 0 200 50">
	<g fill="#293895">
		<path d="M141.8 19.9h-2.5l-4.5 10.2h2.5l1-2.3h4.7l1 2.3h2.6l-4.8-10.2zm-2.8 6.2l1.6-3.8 1.6 3.8H139zM130.3 19.9h-3.8v10.2h2.4v-3.9h1.5c.8 0 1.6 0 2.4-.1.4-.1.8-.3 1.2-.5.4-.3.8-.7 1-1.1.2-.5.4-1 .3-1.5 0-.8-.2-1.5-.7-2-.4-.5-1-.9-1.7-1-.2 0-1.1-.1-2.6-.1zm2.5 4c-.2.2-.4.4-.7.5-.3.1-.9.2-1.9.2h-1.3v-2.9h1.1c.6 0 1.1 0 1.7.1.4 0 .7.2.9.5.1.1.2.3.3.4.1.2.1.3.1.5.1.2 0 .5-.2.7zM113.8 25c0-1.1-.4-2.1-1.2-2.8-.8-.7-2.1-1.1-3.9-1.2v-1h-2.3v1c-1.8.1-3.1.4-3.9 1.2-.8.7-1.2 1.7-1.2 2.8 0 .5.1 1 .3 1.5.2.5.5.9.9 1.3.8.7 2.1 1.1 3.9 1.2v1.2h2.3V29c1.9-.1 3.2-.5 3.9-1.2.8-.8 1.2-1.8 1.2-2.8zm-7.4 2.2c-1.9 0-2.8-.7-2.8-2.2 0-.8.2-1.4.7-1.8.4-.4 1.2-.6 2.1-.6v4.6zm4.9-1c-.2.3-.6.6-.9.7-.5.2-1 .3-1.6.3v-4.6c1.9 0 2.8.7 2.8 2.2-.1.7-.2 1.1-.3 1.4zM114.4 1.2l1.8 2.8c5.2.1 10.4.5 15.5 1.4C127 2 121 0 114.4 0s-12.5 2-17.3 5.4c5.1-.8 10.3-1.3 15.5-1.4l1.8-2.8z"/>
		<path d="M111.8 5.3c-6.4.2-12.3 1.1-17.6 2.5l-1 1C99 7.7 104.8 7 110.7 6.9l1.1-1.6zM118.4 7.3c5.9.2 11.8.8 17.5 1.9-.3-.3-.6-.7-1-1-5.3-1.4-11.2-2.3-17.6-2.5l1.1 1.6zM110 8.1c-7 .3-13.5 1.5-18.9 3.3-.3.3-.5.7-.7 1.1 5.4-1.2 11.6-2 18.3-2.3l1.3-2.1zM107.8 11.6c-7.2.5-13.8 1.8-18.9 3.6-.4.8-.7 1.7-1 2.5h16l3.9-6.1zM103.8 32.3h-16c.3.9.6 1.7 1 2.5 5.1 1.8 11.6 3.1 18.9 3.6l-3.9-6.1zM108.7 39.9c-6.7-.3-12.9-1.1-18.3-2.3.2.4.5.7.7 1.1 5.4 1.8 11.9 2.9 18.9 3.3l-1.3-2.1zM110.8 43.1c-5.9-.2-11.8-.8-17.5-1.9.3.3.6.7 1 1 5.2 1.4 11.2 2.3 17.6 2.5l-1.1-1.6z"/>
		<path d="M114.4 48.8l-1.8-2.8c-5.2-.1-10.4-.5-15.5-1.4 4.8 3.4 10.8 5.4 17.3 5.4s12.5-2 17.3-5.4c-5.1.8-10.3 1.3-15.5 1.4l-1.8 2.8z"/>
		<path d="M117.1 44.7c6.4-.2 12.3-1.1 17.6-2.5.3-.3.7-.6 1-1-5.8 1.1-11.6 1.8-17.5 1.9l-1.1 1.6zM118.8 41.9c7-.3 13.5-1.5 18.9-3.3.3-.3.5-.7.7-1.1-5.4 1.2-11.6 2-18.3 2.3l-1.3 2.1zM121.1 38.4c7.2-.5 13.8-1.8 18.9-3.6.4-.8.7-1.7 1-2.5h-16l-3.9 6.1zM125 17.7h16c-.3-.9-.6-1.7-1-2.5-5.1-1.8-11.6-3.1-18.9-3.6l3.9 6.1zM120.1 10.1c6.7.3 12.9 1.1 18.3 2.3-.2-.4-.5-.7-.7-1.1-5.4-1.8-11.9-2.9-18.9-3.3l1.3 2.1zM53.8 38c.1 0 .2 0 .2.1.1.1.1.2.2.3v.2l.3.7h.7l-.2-.9c-.1-.2-.2-.3-.3-.4-.1-.1-.2-.2-.3-.2.1 0 .2-.1.2-.2s.1-.2.1-.2c0-.1.1-.2.1-.3 0-.1.1-.1.1-.1h.4v-.4h-.1c-.2 0-.4 0-.6.1-.2.1-.3.3-.4.5-.1.1-.1.3-.2.4-.1.1-.2.1-.3.1v-1.1h-.6v2.7h.6V38zM55.6 37.8c0 .2 0 .4.1.5.1.2.2.3.3.5.1.1.3.2.5.3.2.1.4.1.5.1.2 0 .4 0 .5-.1.2-.1.3-.2.5-.3.2-.3.4-.6.4-1s-.1-.7-.4-1c-.1-.1-.3-.2-.5-.3-.2-.1-.4-.1-.5-.1-.2 0-.4 0-.6.1-.1.1-.3.1-.4.2-.1.1-.2.2-.3.4-.1.3-.1.5-.1.7zm.6 0c0-.3.1-.5.2-.7.1-.1.2-.1.3-.2.1 0 .2-.1.3-.1.1 0 .2 0 .3.1.1 0 .2.1.3.2.2.2.2.4.2.7 0 .3-.1.5-.2.7-.1.1-.2.1-.3.2-.1 0-.2.1-.3.1-.1 0-.2 0-.3-.1-.1 0-.2-.1-.3-.2-.2-.2-.3-.4-.2-.7zM60.2 38.3l-.5-1.8h-.9v2.7h.5v-2.1l.6 2.1h.6l.5-2.1v2.1h.5v-2.7h-.8zM63.5 38.3l-.5-1.8h-.9v2.7h.6v-2.1l.5 2.1h.6l.5-2.1v2.1h.6v-2.7H64zM66 38h1.5v-.5H66v-.6h1.6v-.4h-2.1v2.7h2.1v-.5H66zM69.7 36.5h-1.6v2.7h.6v-1h1c.1 0 .2-.1.3-.1.1-.1.2-.2.2-.3.1-.1.1-.3.1-.4 0-.2-.1-.4-.2-.5 0-.2-.2-.3-.4-.4zm0 1c0 .1-.1.1-.2.1s-.3.1-.5 0h-.3v-.8h.7c.1 0 .2.1.2.1l.1.1v.5zM70.8 36.5zM72.4 37.6c-.1.1-.2.1-.2.1h-.3c-.1 0-.2 0-.4-.1 0 0-.1 0-.1-.1 0 0 0-.1-.1-.1v-1h-.6v.9c0 .1 0 .3.1.4.1.1.1.2.2.3.2.1.5.2.7.2h.3c.1 0 .2-.1.3-.1v1.1h.7v-2.7h-.6v1.1zM73.6 39.2zM74.2 38h1.4v-.5h-1.4v-.6h1.5v-.4h-2.1v2.7h2.2v-.5h-1.6zM78.1 38.2c0 .2-.1.3-.2.4-.1.1-.3.1-.4.1-.1 0-.2 0-.3-.1-.1 0-.2-.1-.2-.2-.1-.1-.2-.4-.2-.7 0-.2 0-.5.2-.7h.2c.1 0 .2-.1.3-.1.1 0 .3 0 .4.1.1.1.2.2.2.3l.6-.1c0-.2-.2-.4-.3-.5-.2-.2-.5-.3-.9-.3-.2 0-.4 0-.5.1s-.3.2-.4.3c-.1.1-.2.3-.3.5-.1.2-.1.4-.1.6 0 .2 0 .4.1.5.1.2.2.3.3.5.2.2.5.3.8.4.3 0 .6 0 .9-.2.2-.2.4-.4.4-.7l-.6-.2zM79.2 36.5zM80.6 38c-.1-.1-.2-.2-.3-.2.1 0 .2-.1.2-.2s.1-.2.1-.2c0-.1.1-.2.1-.3 0-.1.1-.1.1-.1h.4v-.4h-.1c-.2 0-.4 0-.6.1-.2.1-.3.3-.4.5-.1.1-.1.3-.2.4-.1.1-.2.1-.3.1v-1.1H79v2.7h.6V38c.1 0 .2 0 .2.1.1.1.1.2.2.2v.2l.3.7h.7l-.4-.7c.2-.2.1-.4 0-.5zM82.2 38.3v-1.8h-.6v2.7h.6l1.2-1.8v1.8h.5v-2.7h-.6zM84.5 36.5zM85 38.3v-1.8h-.5v2.7h.6l1.1-1.8v1.8h.6v-2.7h-.6zM85.9 35.9c-.1 0-.2.1-.2.1s-.2 0-.2-.1l-.1-.1v-.1H85c0 .1 0 .1.1.2 0 .1.1.1.1.2.1.1.3.1.4.1.2 0 .3 0 .4-.1.1 0 .1-.1.1-.2s.1-.1.1-.2H86s0 .1-.1.2zM55.1 42.9c-.2-.1-.4-.1-.5-.1h-.8v-.6h1.6v-.5h-2.1v2.7h1.3c.2 0 .4 0 .5-.1.1-.1.3-.1.3-.3.1-.1.2-.3.2-.5s0-.3-.1-.5c-.1 0-.2-.1-.4-.1zm-.1.9c-.1.1-.1.1-.2.1h-1v-.7h.6c.2 0 .3 0 .5.1l.1.1v.2c.1.1 0 .1 0 .2zM58.6 44.4zM56.8 41.7l-1.1 2.7h.6l.2-.6h1.1l.2.6h.6l-1.1-2.7h-.5zm.7 1.6h-.8l.4-1 .4 1zM60.6 42.8h-1.2v-1.1h-.5v2.7h.5v-1.2h1.2v1.2h.6v-2.7h-.6zM63.2 43.2c-.1-.1-.2-.2-.3-.2.1 0 .2-.1.2-.2s.1-.2.1-.2c0-.1.1-.2.1-.3 0-.1.1-.1.1-.1h.4v-.4h-.1c-.2 0-.4 0-.6.1-.2.1-.3.3-.4.5-.1.1-.1.3-.2.4-.1.1-.2.1-.3.1v-1.1h-.6v2.7h.6v-1.2c.1 0 .2 0 .2.1.1.1.1.2.2.2v.2l.3.7h.7l-.4-.7c.2-.3.1-.5 0-.6zM124.3 21.7v-1.8h-8.6v10.3h8.9v-1.8h-6.5v-2.8h5.8v-1.7h-5.8v-2.2zM97.5 26.4zM95 21.5c.6 0 1.1.1 1.6.5.4.3.7.7.9 1.3l2.3-.5c-.3-.8-.7-1.4-1.2-1.9-.9-.7-2-1.1-3.5-1.1-1.6 0-2.9.5-3.9 1.4-1 .9-1.5 2.3-1.5 4 0 1.6.5 2.9 1.5 3.8 1 .9 2.3 1.4 3.8 1.4 1.3 0 2.3-.3 3.1-.8.8-.5 1.4-1.4 1.7-2.5l-2.3-.6c-.2.7-.5 1.3-1 1.6-.5.4-1 .5-1.6.5-.4 0-.8-.1-1.1-.2-.4-.1-.7-.4-.9-.6-.5-.5-.8-1.5-.8-2.8 0-1.2.3-2.1.8-2.6.5-.6 1.2-.9 2.1-.9zM76.9 25.1zM82.6 30.3c1.7 0 3.1-.5 4.1-1.4 1-.9 1.5-2.2 1.5-3.9 0-1.7-.5-3-1.5-3.9-1-.9-2.4-1.4-4.1-1.4-.9 0-1.7.1-2.5.4-.6.2-1.1.5-1.5.9-.4.4-.8.9-1.1 1.4-.4.7-.5 1.6-.5 2.6 0 1.6.5 2.9 1.5 3.8 1 1.1 2.4 1.5 4.1 1.5zm-2.4-7.9c.6-.6 1.4-.9 2.3-.9 1 0 1.7.3 2.3.9.6.6.9 1.4.9 2.6 0 1.2-.3 2.1-.9 2.7-.3.3-.7.5-1.1.7-.4.2-.8.2-1.2.2-.4 0-.9-.1-1.3-.2-.4-.2-.8-.4-1.1-.7-.6-.6-.9-1.5-.9-2.6.1-1.2.4-2.1 1-2.7zM69.9 30.3c1.7 0 3.1-.5 4.1-1.4 1-.9 1.5-2.2 1.5-3.9 0-1.7-.5-3-1.5-3.9s-2.4-1.4-4.1-1.4c-.9 0-1.7.1-2.5.4-.6.2-1.1.5-1.5.9-.4.4-.8.9-1.1 1.4-.4.7-.5 1.6-.5 2.6 0 1.6.5 2.9 1.5 3.8 1 1.1 2.4 1.5 4.1 1.5zM66.7 25c0-1.2.3-2.1.9-2.6.6-.6 1.4-.9 2.3-.9 1 0 1.7.3 2.3.9.6.6.9 1.4.9 2.6 0 1.2-.3 2.1-.9 2.7-.3.3-.7.5-1.1.7s-.8.2-1.2.2c-.4 0-.9-.1-1.3-.2-.4-.2-.8-.4-1.1-.7-.5-.6-.8-1.5-.8-2.7zM55.4 25.7H60v4.5h2.3V19.9H60V24h-4.6v-4.1H53v10.3h2.4z"/>
	</g>
</svg>