<svg xmlns="http://www.w3.org/2000/svg" viewBox="0 0 200 50">
	<path fill="#fff" d="M22.1 22.9h-7s-.1.6-.1 1.4v1.4c0 .9.1 1.4.1 1.4h7v-4.2z"/>
	<path fill="#002569" d="M37.6 23.6h-9.9v-8.8h-2.8v19.9h2.8v-8.5h9.9v8.5h2.9V14.8h-2.9zM49.7 20.4c-4.4 0-7.4 3-7.4 7.3 0 4.4 3 7.4 7.4 7.4s7.4-3 7.4-7.4c0-4.2-3-7.3-7.4-7.3zm0 12.2c-2.8 0-4.7-1.9-4.7-4.8 0-2.8 1.9-4.7 4.7-4.7 2.8 0 4.7 1.9 4.7 4.7 0 2.9-1.9 4.8-4.7 4.8zM66.1 20.8c-2.6-.2-7.2.6-7.2.6v13.4h2.7v-3.3h4s.5 0 1.4-.1c.8-.1 1.7-.5 1.7-.5.8-.5 1.1-.6 1.9-1.4.9-1 1.1-2.5 1.1-3.4.1-4.1-3.5-5.3-5.6-5.3zm2 7.5c-.7.7-1.8.8-3 .8h-3.4v-5.7c1.5-.2 2.9-.3 4.5-.2 1.4.1 2.9.9 2.9 2.9 0 .8-.2 1.5-1 2.2zM165.7 26.5h-7.3V21h-2.7v13.7h2.7v-5.6h7.3v5.6h2.7V21h-2.7zM89.7 30.5V21H87v13.7h2.7l7.3-9.4v9.4h2.7V21H97zM178 27.2l6.1-6.2h-3.5l-5.4 5.5H174V21h-2.7v13.7h2.7v-5.6h2.1l5.4 5.6h3.5zM115.4 21h-3.5l-5.4 5.5h-1.3V21h-2.7v13.7h2.7v-5.6h2.2l5.4 5.6h3.5l-7-7.5zM129.7 22.1h-4.1v-4.6h9.8v-2.7H122.8v19.9h.3c2.3.1 4.4.2 6.4.2 4.7 0 7.9-2.3 7.9-6.4.2-4-3-6.4-7.7-6.4zm.2 10.2c-1.5 0-2.8 0-4.2-.1v-7.3h4.2c2.9 0 4.8 1.2 4.8 3.7.2 2.5-1.7 3.7-4.8 3.7zM145.9 20.6c-4.2 0-6.9 2.8-6.9 7.2s2.7 7.3 6.8 7.3c1.6 0 2.9-.3 4.4-1.2v.8h2.7V21.3l-.3-.1c-2.7-.5-4.3-.6-6.7-.6zm4.4 10.7c-1.6 1-2.8 1.5-4.3 1.5-2.6 0-4.3-1.9-4.3-4.8 0-3 1.7-4.8 4.5-4.8 1.4 0 2.6.1 4.1.3v7.8zM83.2 27.2c1.1-.9 1.4-1.8 1.2-2.7 0-.6-.1-1.1-.3-1.7-.3-.8-1.1-1.4-1.9-1.7-.8-.3-2-.6-3-.6-1.7 0-5.6.7-5.6.7v13.4s4.1.2 5.6.2c1.6 0 3.5-.1 4.5-.9.5-.3 1.7-1.2 1.7-3.3-.1-1.8-1.2-2.8-2.2-3.4zm-7.1-3.8s1.8-.3 2.8-.3c1 0 1.8 0 2.3.3.6.5.7.9.7 1.2 0 1-.6 1.5-1 1.7-.5.2-1 .2-1.8.2h-2.9v-3.1zm5.5 9c-.6.2-1.6.3-2.6.3s-2-.1-2.9-.1v-3.5H80c1 0 1.4-.1 1.9.3.7.5.7 1.1.7 1.5 0 .9-.6 1.4-1 1.5zM15 25.3v.3h7.1v-1.4H15v1.1z"/>
	<path fill="#c60c2e" d="M22.1 22.9v-8.1h-5.9l-1.1 8.1zM15.1 27c.5 2.4 1.8 4.4 3.9 6 1 .8 2.1 1.4 3 1.8V27h-6.9z"/>
</svg>
