<svg viewBox="0 0 200 50" xmlns="http://www.w3.org/2000/svg">
	<path fill="#E3000F" d="M29.4466 24.5744c.2444-.6043.355-1.2544.3241-1.9056.0409-.658-.0648-1.3169-.3097-1.929-.2448-.6122-.6227-1.1622-1.1061-1.6105-1.1538-.8958-2.5954-1.3385-4.053-1.2447h-2.3882v-4.4263h6.519V11.778H20v15.7062h4.3019c1.469.0931 2.9183-.377 4.053-1.3147.4748-.4466.8473-.9908 1.0917-1.5951zm-5.2303-5.0172c2.4012 0 3.6018 1.0372 3.6018 3.1116v-.0118-.0271.0271c-.0052 2.0823-1.2058 3.1235-3.6018 3.1235h-2.3337v-6.2233h2.3337zm18.5768 7.927h1.9759l-7.4447-16.2741-7.4447 16.2741h1.9837l1.9214-4.3642h7.0947l1.9137 4.3642zm-5.4688-12.3534l2.7772 6.3634h-5.5933l2.8161-6.3634zM56.29 27.4842H58.1725V11.778H56.29v6.3011h-8.4638V11.778h-1.9137v15.7062h1.9137v-7.7326H56.29v7.7326zm13.6291 0h2.3882l-7.5613-8.2538 7.3902-7.4524h-2.3338l-6.9546 7.1957V11.778h-1.8903v15.7062h1.8903v-8.0671l7.0713 8.0671zm84.9879 2.0147c-4.691 5.2821-10.136 7.927-17.247 7.8803-7.11.07-12.555-2.5982-17.246-7.8803l-3.166 3.8896c2.637 2.7561 5.806 4.9495 9.314 6.448 3.508 1.4985 7.284 2.2711 11.098 2.2711 3.815 0 7.591-.7726 11.099-2.2711 3.508-1.4985 6.676-3.6919 9.314-6.448l-3.166-3.8896z"/>
	<path fill="#44413E" d="M174.129 20.0783c1.826-.0052 2.739.7909 2.739 2.3882.03.3295-.007.6619-.11.9764s-.27.6044-.489.8518c-.617.4533-1.378.6638-2.14.5912h-1.493v-4.8076h1.493zm5.517 4.2914c.243-.6042.356-1.2525.333-1.9032l.016-.0077c.032-.6783-.087-1.3553-.348-1.9821-.261-.6269-.657-1.1881-1.161-1.643-1.217-.9634-2.745-1.4452-4.295-1.3536h-1.555v-3.0028h5.795v-2.6994h-8.884v15.7062h4.668c1.594.0889 3.159-.4533 4.356-1.5091.467-.4543.833-1.0011 1.075-1.6053zm-15.583 3.1378h3.112l.023-.0078V11l-9.848 9.5217v-8.7438h-3.112v15.5117l9.825-9.5606v9.7785zm-14.656 0h3.835l.047-.0156-6.885-8.4793 6.496-7.2347h-3.61l-5.64 6.5657v-6.5657h-3.072v15.7062h3.072v-7.8414l5.757 7.8648zm-15.177-11.84c.965 1.0848 1.472 2.5011 1.416 3.9519l-.016.0311c.064 1.4562-.437 2.8808-1.4 3.9751-.481.4834-1.053.867-1.682 1.1287-.629.2617-1.304.3965-1.986.3965-.682 0-1.357-.1348-1.986-.3965-.63-.2617-1.201-.6453-1.682-1.1287-.963-1.0943-1.465-2.5189-1.4-3.9751-.069-1.4593.433-2.888 1.4-3.983.978-.963 2.295-1.5027 3.668-1.5027 1.372 0 2.69.5397 3.668 1.5027zm4.136 7.1737c.407-1.0239.598-2.1207.562-3.2218h-.031c.04-1.0978-.147-2.192-.548-3.2145-.402-1.0224-1.01-1.9513-1.785-2.7289-1.606-1.5227-3.735-2.3715-5.948-2.3715-2.213 0-4.341.8488-5.947 2.3715-.788.7716-1.409 1.6978-1.823 2.7205-.413 1.0228-.611 2.12-.581 3.2229-.03 1.104.167 2.2024.581 3.2264.414 1.0241 1.034 1.9516 1.823 2.7246 1.603 1.5281 3.733 2.3805 5.947 2.3805 2.215 0 4.345-.8524 5.948-2.3805.781-.7763 1.395-1.7054 1.802-2.7292zM115.77 20.335c1.556 0 2.333.778 2.333 2.3338l.008-.0078c0 1.4392-.863 2.1549-2.606 2.1549h-1.991V20.335h2.256zm-.755-5.9355c1.369 0 2.054.5368 2.054 1.6025v.0156c0 1.2058-.537 1.8048-1.618 1.8048h-1.945v-3.4229h1.509zm6.022 10.071c.216-.575.314-1.1879.287-1.8017l.023.0545c.014-.8305-.228-1.645-.692-2.3338-.478-.7398-1.199-1.2899-2.038-1.5558.521-.2853.95-.7138 1.235-1.2349.285-.5211.415-1.113.375-1.7057 0-2.7434-1.701-4.1152-5.103-4.1152h-4.667v15.7062h5.266c.785.0589 1.574-.041 2.32-.2936.746-.2526 1.433-.6528 2.021-1.1766.425-.4434.756-.9685.973-1.5434zm-16.936-8.803c.959 1.0872 1.461 2.5032 1.4 3.9519h-.031c.065 1.4562-.437 2.8808-1.4 3.9751-.481.4834-1.052.8669-1.682 1.1287-.629.2617-1.304.3964-1.986.3964-.6818 0-1.3568-.1347-1.9863-.3964-.6294-.2618-1.201-.6453-1.6817-1.1287-.9629-1.0943-1.4647-2.5189-1.4003-3.9751-.0523-1.4529.4608-2.8695 1.4314-3.9519.978-.963 2.2954-1.5027 3.6679-1.5027 1.373 0 2.69.5397 3.668 1.5027zm4.102 7.1783c.414-1.024.612-2.1224.581-3.2264.031-1.1029-.167-2.2001-.581-3.2229-.414-1.0227-1.034-1.9489-1.823-2.7205-1.605-1.5227-3.734-2.3715-5.947-2.3715-2.2129 0-4.3415.8488-5.9472 2.3715-.7886.7716-1.4092 1.6978-1.8229 2.7205-.4136 1.0228-.6114 2.12-.5809 3.2229-.0306 1.104.1671 2.2024.5807 3.2264.4136 1.0241 1.0343 1.9516 1.8231 2.7246 1.603 1.5281 3.7326 2.3805 5.9472 2.3805 2.215 0 4.344-.8524 5.947-2.3805.789-.773 1.41-1.7005 1.823-2.7246zm-20.9052 4.6383h3.1117l.0233-15.7062h-3.1116v5.99h-6.6979v-5.99h-3.1117v15.7062h3.1117v-7.0868h6.6745v7.0868zm-64.6603 9.1573c-.0001-.0055-.0002-.0111-.0004-.0167v.0233c.0002-.0022.0003-.0044.0004-.0066zm-.0892.4654c.0608-.1476.0912-.3059.0892-.4654.008-.1695-.0217-.3388-.0868-.4956-.0659-.1589-.1667-.3009-.2947-.4157-.307-.2415-.6913-.3631-1.0813-.3423h-.3968v-.7779h1.6337v-.6768H20v3.9596h1.1747c.4011.0192.7941-.1173 1.0968-.3812.1195-.1141.2138-.2519.2768-.4047zm-1.3736-1.0811c.4589 0 .6845.2022.6845.599h-.0155c.009.0826.0005.1661-.025.2452-.0255.0791-.0673.1519-.1228.2137-.1546.1138-.3458.1665-.5368.1478h-.3812v-1.2057h.3968zm4.7686 1.867h.7779l-1.9137-4.1619-1.9759 4.1619h.7779l.389-.8791h1.5558l.389.8791zm-1.2058-2.645l.5057 1.1358h-1.0035l.4978-1.1358zm4.8076 2.645h.7779v-3.9596h-.7779v1.5091h-1.6959v-1.5091h-.7779v3.9596h.7779v-1.7892h1.6959v1.7892zm3.7496 0h.9646l-1.7348-2.1393 1.6414-1.8203h-.9101l-1.4159 1.6492v-1.6492h-.7779v3.944h.7779v-1.9837l1.4548 1.9993zm5.8888.7001H39.9692v-1.4469h-.4123v-3.2906h-2.7694v2.5127c.0252.2188-.0212.4398-.1322.6301-.0583.056-.1284.0983-.2051.1239-.0767.0255-.1581.0337-.2383.0239v1.4469h.7779v-.7779h2.1937v.7779zm-.4201-4.0763v2.6294h-1.3691c.0996-.2226.15-.4641.1478-.7079v-1.9215h1.2213zm5.4934 2.1288c.1044-.2584.1543-.5356.1465-.8141.0009-.3488-.0845-.6924-.2485-1.0002-.1641-.3079-.4017-.5703-.6917-.7642-.29-.1938-.6234-.3129-.9706-.3467-.3471-.0338-.6973.0187-1.0192.1529-.322.1342-.6057.346-.8261.6163-.2204.2704-.3705.5911-.4369.9335-.0665.3424-.0473.6959.0558 1.0291.1032.3332.2871.6357.5355.8807.4036.3847.9398.5993 1.4975.5993.5576 0 1.0938-.2146 1.4975-.5993.1991-.195.3558-.429.4602-.6873zm-1.0437-1.8176c.2475.2744.3786.6342.3657 1.0035h-.0078c.0176.3686-.111.7292-.3579 1.0035-.1167.1278-.2602.2283-.4202.2942-.16.0659-.3326.0956-.5055.087-.1727.0075-.345-.0227-.5049-.0885-.1598-.0659-.3035-.1657-.4208-.2927-.2369-.2807-.3669-.6362-.3669-1.0035 0-.3673.13-.7228.3669-1.0035.118-.1262.2617-.2255.4214-.2912.1597-.0658.3317-.0965.5043-.09.1724-.005.3439.0264.5034.0921.1595.0656.3034.1641.4223.2891zm4.3613 2.2344c.0549-.1445.0797-.2986.0729-.453v.0053c-.0018-.202-.0641-.3989-.1789-.5654-.1215-.1831-.3031-.3179-.5135-.3812.1393-.0728.2532-.1861.3268-.325.0736-.1389.1034-.2968.0855-.4529 0-.6923-.4278-1.0346-1.2758-1.0346H44.909v3.9674h1.3225c.1986.0157.3983-.0093.587-.0735.1886-.0642.3621-.1663.5098-.2999.1075-.111.1913-.2428.2461-.3872zm.0729-.4296v-.0181.0181zm-1.5948-2.1082c.3501 0 .5212.14.5212.4045 0 .3034-.1322.459-.4045.459h-.4901v-.8635h.3734zm.7618 1.8479c.0262.076.0344.1571.0239.2369 0 .3656-.2178.5446-.6612.5446h-.4979v-1.128h.5679c.0796-.0115.1609-.0044.2373.0207.0764.0252.146.0676.2032.1242.0573.0565.1007.1255.1268.2016zm5.2061.2731c.1044-.2584.1543-.5356.1466-.8141.0076-.2774-.0424-.5533-.1468-.8104-.1045-.2571-.2611-.4897-.46-.6832-.2963-.2923-.6722-.4906-1.0806-.5703-.4085-.0797-.8314-.0372-1.2158.1222-.3844.1594-.7133.4286-.9455.774-.2321.3454-.3573.7515-.3599 1.1677-.0065.4201.1131.8326.3434 1.1841.2303.3514.5608.6257.9486.7874.3879.1617.8153.2033 1.2271.1195.4118-.0838.7889-.2892 1.0827-.5896.1991-.195.3558-.429.4602-.6873zm-1.0281-1.8176c.2391.2779.3617.6374.3423 1.0035h.0078c.0164.367-.1089.7263-.3501 1.0035-.2462.2442-.5789.3812-.9257.3812s-.6795-.137-.9257-.3812c-.2272-.2851-.3509-.6389-.3509-1.0035 0-.3646.1237-.7184.3509-1.0035.2462-.2442.5789-.3812.9257-.3812s.6795.137.9257.3812zm3.8274 2.9872h.739v-3.9596h-2.6682v2.6371c.0165.2106-.0099.4223-.0778.6224-.0171.0366-.0447.0673-.0794.0881-.0346.0208-.0747.0308-.1151.0285-.1204-.0067-.2376-.0413-.3423-.1011v.6846c.131.0526.2711.079.4123.0778.1462.019.2948-.0004.4313-.0563.1364-.0559.2559-.1465.3466-.2627.1678-.3289.2431-.6973.2178-1.0657v-1.9993h1.1358v3.3062zm4.0991-.781c.0576-.1555.0817-.3215.0705-.487h-.0077c.0142-.1658-.0084-.3327-.0662-.4887-.0578-.156-.1495-.2973-.2683-.4137-.3395-.2534-.7606-.3725-1.1825-.3345h-.35v-1.4547h-.778v3.9751h1.1358c.4289.0328.8535-.1041 1.1824-.3811.1164-.1183.2063-.2599.264-.4154zm-.7379-.7253c.0269.0764.0372.1576.0305.2383.0076.0843-.0022.1693-.029.2496-.0268.0803-.0699.1542-.1266.2171-.1694.1135-.3725.1656-.5756.1478h-.3267v-1.198h.3267c.202-.017.4041.0321.5756.1401.0557.0588.0983.1287.1251.2051zm3.8735 1.5063h.739v-3.9596h-.7779v1.5091h-1.6881v-1.5091h-.778v3.9596h.778v-1.7892h1.727v1.7892zm4.4963 0h.778v-3.9596h-.778v3.9596zm-.4349-.7772c.063-.1556.092-.323.0849-.4908h-.0312c.0143-.1658-.0083-.3327-.0661-.4887-.0579-.156-.1495-.2973-.2684-.4137-.3388-.2547-.7604-.374-1.1824-.3345h-.3189v-1.4547h-.778v3.9751h1.0969c.4288.032.8531-.1048 1.1824-.3811.122-.1156.2177-.2559.2808-.4116zm-.7249-.7309c.0282.0767.0391.1587.0318.2401.0077.0843-.0022.1693-.029.2496-.0268.0803-.0699.1542-.1265.2171-.1695.1135-.3726.1656-.5757.1478h-.2956v-1.198h.2956c.1996-.0182.3996.0311.5679.1401.0583.0572.1032.1266.1315.2033zm4.8861 1.5081h.9257l-.0622-.0078-1.2525-2.0537 1.1591-1.9059h-.8635l-.7312 1.268-.7313-1.2602h-.8557l1.1669 1.8981-1.2602 2.0615h.8557l.8246-1.4158.8246 1.4158zm5.4376.0778h.9491l-1.7192-2.1393 1.6414-1.8203h-.9102l-1.4158 1.6492v-1.6492h-.7779v3.944h.7779v-1.9837l1.4547 1.9993zm3.6796 0h.739v-3.9596h-2.6683v2.6371c.0166.2106-.0098.4223-.0777.6224-.0174.0358-.0453.0656-.0801.085-.0348.0195-.0748.0278-.1144.0239-.1188-.002-.2346-.037-.3345-.1012v.6846c.1293.0588.2702.088.4123.0856.14.0169.2821-.0045.4109-.0621.1288-.0575.2395-.149.3203-.2647.1715-.3248.247-.6917.2178-1.0579v-1.9993h1.1747v3.3062zm4.014 0h.778v-4.1619l-2.4894 2.6527v-2.4582h-.7779v4.1619l2.4893-2.6527v2.4582zm1.4625 0h2.2871v-.6846h-1.5091v-1.1046h1.3458v-.6457h-1.3458v-.8479h1.5091v-.6768h-2.2871v3.9596zm5.6011 0h.7156v-3.9596h-.7779v1.5091h-1.6958v-1.5091h-.778v3.9596h.778v-1.7892h1.7581v1.7892zm2.9561-3.2828h.9724v-.6768h-2.7305v.6768h.9801v3.2828h.778v-3.2828zm5.212 2.0971c.1043-.2583.1546-.5351.1478-.8136.0078-.2785-.0421-.5557-.1465-.814-.1045-.2584-.2611-.4924-.4602-.6874-.2956-.2891-.6699-.4846-1.0761-.5619-.4061-.0773-.8261-.0331-1.2072.1273-.3811.1603-.7064.4295-.9352.7739-.2287.3444-.3508.7487-.3508 1.1621 0 .4135.1221.8177.3508 1.1621.2288.3444.5541.6137.9352.774s.8011.2046 1.2072.1272c.4062-.0773.7805-.2728 1.0761-.5619.1983-.1955.3545-.4296.4589-.6878zm-1.0346-1.8171c.2433.2759.3689.6361.3501 1.0035.0164.3671-.109.7264-.3501 1.0035-.2462.2442-.579.3812-.9257.3812-.3468 0-.6795-.137-.9258-.3812-.2411-.2771-.3665-.6364-.35-1.0035-.0189-.3674.1067-.7276.35-1.0035.2463-.2442.579-.3812.9258-.3812.3467 0 .6795.137.9257.3812zm4.3927 2.2344c.055-.1445.079-.2986.073-.453v.0209c-.002-.202-.064-.399-.179-.5654-.119-.1855-.302-.3211-.514-.3812.139-.0728.253-.1861.327-.325.074-.1389.103-.2968.086-.4529 0-.6923-.428-1.0346-1.276-1.0346h-1.1827v3.9518h1.3227c.198.0148.398-.0106.586-.0747.189-.0642.362-.1658.511-.2987.107-.111.191-.2427.246-.3872zm-1.522-2.5378c.35 0 .521.1323.521.4045 0 .3034-.132.459-.412.459h-.483v-.8635h.374zm.757 1.8483c.026.0762.033.1572.021.2365 0 .3734-.218.5524-.654.5446h-.498v-1.128h.568c.08-.0118.161-.0049.237.0203.076.0251.145.0678.202.1245.057.0567.099.1259.124.2021z"/>
</svg>
