<svg xmlns="http://www.w3.org/2000/svg" viewBox="0 0 200 50">
	<path fill="#0DB14B" d="M10.2378 19.3987v5.1108H5.11893v-5.1108H.00805664v15.3406H5.11893v-5.1189h5.11887v5.1189h5.1109V19.3987h-5.1109zM5.11892 15.5594c0-.5065-.15032-1.0017-.43191-1.4227-.2816-.4211-.68181-.7492-1.14995-.9426-.46815-.1935-.98319-.2437-1.47989-.1443-.49671.0994-.95274.3439-1.310368.7027-.357625.3588-.600752.8156-.698599 1.3126-.0978465.497-.04601089 1.0119.148943 1.4794.194954.4675.524259.8667.946214 1.147.42196.2802.9176.429 1.42415.4274.33573 0 .66817-.0663.97824-.195.31008-.1287.5917-.3174.82873-.5551.23703-.2378.42479-.52.55254-.8305.12775-.3105.19296-.6431.1919-.9789zM15.3487 15.5594c-.0001-.5055-.1498-.9997-.4303-1.4202-.2805-.4206-.6793-.7486-1.1461-.9428-.4667-.1942-.9805-.2458-1.4765-.1484-.4961.0975-.9522.3397-1.3107.696-.3586.3564-.6036.8109-.7042 1.3063-.1006.4954-.0522 1.0095.1391 1.4775.1912.468.5168.8688.9356 1.1519.4187.2832.912.436 1.4175.4392.3375.0021.672-.0625.9844-.1902s.5964-.3159.8358-.5537c.2394-.2379.4294-.5208.559-.8324.1296-.3115.1964-.6457.1964-.9832z"/>
	<path fill="#303E50" d="M28.6532 16.2999h-2.2858v-2.2938h3.8311v-.8049h-4.5957v7.6623h3.0504c.6105 0 1.196-.2425 1.6277-.6742.4317-.4317.6742-1.0172.6742-1.6277 0-.6105-.2425-1.196-.6742-1.6277-.4317-.4317-1.0172-.6742-1.6277-.6742v.0402zm0 3.8392h-2.2858v-3.0746h2.2858c.4077 0 .7987.162 1.087.4503s.4503.6793.4503 1.087c0 .4077-.162.7988-.4503 1.087-.2883.2883-.6793.4503-1.087.4503zM41.6114 17.8211h-2.9216V15.656h-.7646v5.2477h.7646v-2.318h2.9216v2.318h.7647V15.656h-.7647v2.1651zM34.3595 15.5354c-.6903.0207-1.367.1968-1.9799.5151l.3702.668c.4993-.2562 1.0489-.3991 1.6097-.4185.1697-.0076.339.0212.4966.0845.1576.0632.2998.1594.4172.2821.1174.1227.2072.2691.2634.4294.0561.1602.0774.3307.0623.4998v.2656c-.5584-.1329-1.1335-.1817-1.7063-.1449-.4677.0155-.9126.2061-1.2465.5341-.3339.3279-.5324.7692-.5564 1.2366-.0033.2028.0341.4042.1102.5923.076.188.1891.3589.3325.5023.1774.1696.3871.3019.6166.389.2295.0871.4742.1272.7194.1181.6282-.0254 1.2317-.251 1.7225-.6439v.4749h.7646v-3.3241c.0157-.2692-.0247-.5388-.1186-.7916s-.2393-.4833-.4269-.677c-.1877-.1937-.4135-.3463-.6632-.4482-.2497-.1019-.5178-.1508-.7874-.1436zm-.5231 4.7889c-.1462.0093-.2928-.0109-.431-.0593-.1383-.0484-.2654-.124-.3739-.2224-.0714-.0718-.1274-.1573-.1647-.2514-.0374-.0941-.0553-.1948-.0526-.2959 0-.652.5956-.9498 1.1429-1.0142.5416-.0289 1.0845.0254 1.6097.161v.652c-.1888.2941-.4434.5403-.7437.7191-.3004.1788-.6382.2853-.9867.3111zM47.5755 20.9037h.9497l-2.2939-3.0745 2.1168-2.1732h-1.0704l-2.5998 2.6722V15.656h-.7646v5.2477h.7646v-1.4729l1.0142-1.0463 1.8834 2.5192zM116.81 29.7089h-1.819v-2.1892h-1.538v7.2437h3.373c.642-.0363 1.246-.3172 1.688-.7849.442-.4677.689-1.0868.689-1.7303s-.247-1.2626-.689-1.7303c-.442-.4677-1.046-.7485-1.688-.7848l-.016-.0242zm0 3.5012h-1.819v-1.9639h1.835c.26 0 .51.1034.694.2876.184.1841.288.4339.288.6943s-.104.5102-.288.6944c-.184.1841-.434.2876-.694.2876h-.016zM109.622 30.3608h-3.509v-2.8411h-1.529v7.2196h1.529v-2.8412h3.509v2.8412h1.529v-7.2196h-1.529v2.8411zM39.2451 27.3668c-.9594.0306-1.8999.2753-2.7526.7163l.7485 1.3441c.6209-.321 1.3055-.4997 2.0041-.5232.1898-.0103.3795.0206.5562.0908.1766.0701.3358.1778.4667.3156.1309.1378.2303.3024.2913.4824.0611.1799.0822.371.0621.56v.0483c-.6321-.1369-1.2768-.207-1.9236-.2093-.3369-.0285-.6762.0107-.9978.1152-.3216.1046-.619.2725-.8747.4937-.2558.2213-.4647.4914-.6144.7946-.1498.3032-.2374.6333-.2577.9709-.0002.3246.0651.646.1919.9449.1269.2989.3127.5691.5464.7945.2337.2254.5104.4014.8136.5174.3033.116.6268.1697.9513.1577.7705-.0196 1.5202-.2538 2.165-.676v.4426h1.5293v-4.3945c.0213-.3909-.0387-.782-.1761-1.1485-.1375-.3666-.3494-.7007-.6224-.9812-.273-.2806-.6011-.5015-.9638-.6489-.3627-.1474-.7519-.218-1.1433-.2074zm-.8048 6.125c-.132.0135-.2653-.0023-.3904-.0462-.1252-.044-.2391-.115-.3336-.208-.0946-.093-.1675-.2057-.2134-.3301-.046-.1245-.064-.2575-.0526-.3896.0483-.5554.66-.8693 1.3039-.8693.6283.0118 1.2527.101 1.8592.2656v.6037c-.2694.315-.6058.5659-.9845.7344-.3788.1685-.7903.2503-1.2047.2395h.0161zM32.3395 28.5338H27.132V24.26h-1.5292v10.4793h1.5292v-4.6762h5.2075v4.6762h1.5373V24.26h-1.5373v4.2738zM50.8029 27.5197h-1.5292v5.6823h-3.3321v-5.6823h-1.5373v7.2115h5.6421v1.2073h1.5373V33.202h-.7808v-5.6823zM55.0364 32.1798v-4.6601h-1.5292v7.2196h1.5292l3.4851-4.6602v4.6602h1.5292v-7.2196h-1.5292l-3.4851 4.6601zM65.7412 27.3829c-.7498 0-1.4827.2223-2.1061.6389-.6234.4165-1.1093 1.0086-1.3962 1.7013-.2869.6927-.362 1.4549-.2157 2.1902.1462.7354.5073 1.4109 1.0375 1.941.5301.5302 1.2056.8913 1.9409 1.0375.7354.1463 1.4976.0712 2.1903-.2157.6927-.2869 1.2848-.7728 1.7013-1.3962.4166-.6234.6389-1.3564.6389-2.1061-.0021-1.0048-.4022-1.9678-1.1127-2.6783-.7104-.7104-1.6734-1.1105-2.6782-1.1126zm0 6.0445c-.4454-.0016-.8803-.1351-1.2498-.3837-.3696-.2486-.6572-.6011-.8265-1.0131-.1693-.4119-.2128-.8648-.125-1.3014.0879-.4366.3032-.8374.6187-1.1518.3155-.3144.717-.5282 1.154-.6145.4369-.0863.8896-.0412 1.3009.1296.4114.1708.7629.4596 1.0101.8301.2473.3704.3793.8058.3793 1.2512 0 .2966-.0586.5903-.1723.8643-.1138.2739-.2805.5227-.4906.7321-.2102.2093-.4595.3752-.7339.488-.2743.1127-.5683.1702-.8649.1692zM93.2593 27.5197h-3.8874l-.0644.6922s-.2576 2.5755-.499 4.0243c-.1449.8048-.5956 1.006-.9498 1.006h-.5392v1.5373h.5392c.6109-.0245 1.1922-.2696 1.6361-.6899.444-.4203.7206-.9873.7785-1.5959.1771-1.0141.3541-2.5353.4427-3.4126h2.5433v5.6904h1.5293v-7.2438h-1.5293v-.008zM100.415 29.7089h-1.8355v-2.1892h-1.5292v7.2437h3.3647c.342.0194.684-.0313 1.006-.1489.322-.1177.617-.2998.866-.5353.249-.2354.448-.5193.584-.8341.135-.3148.205-.654.205-.9969 0-.3428-.07-.682-.205-.9968-.136-.3148-.335-.5987-.584-.8341-.249-.2355-.544-.4176-.866-.5353-.322-.1176-.664-.1683-1.006-.1489v-.0242zm0 3.5012h-1.8355v-1.9639h1.8355c.26 0 .51.1034.694.2876.184.1841.288.4339.288.6943s-.104.5102-.288.6944c-.184.1841-.434.2876-.694.2876zM121.558 27.5197h-1.529v7.2196h1.529v-7.2196zM128.818 27.5197l-3.485 4.6601v-4.6601h-1.529v7.2196h1.529l3.485-4.6602v4.6602h1.529v-7.2196h-1.529zM127.063 26.3768c.551-.0021 1.078-.2216 1.466-.6105.389-.389.609-.916.611-1.466h-1.07c.012.1391-.005.2793-.049.4117-.045.1323-.117.2539-.211.357-.094.1031-.209.1855-.337.2418-.128.0563-.266.0854-.405.0854-.14 0-.278-.0291-.406-.0854s-.243-.1387-.337-.2418c-.094-.1031-.166-.2247-.211-.357-.044-.1324-.061-.2726-.049-.4117h-1.07c0 .5493.218 1.0763.605 1.4655.388.3892.914.6089 1.463.611zM76.3653 30.3608h-3.5011v-2.8411H71.335v7.2196h1.5292v-2.8412h3.5011v2.8412h1.5373v-7.2196h-1.5373v2.8411zM83.0294 27.3668c-.9594.0306-1.8999.2753-2.7526.7163l.7485 1.3441c.6215-.3195 1.3058-.4981 2.0041-.5232.1894-.009.3786.0229.5545.0936.176.0706.3347.1783.4653.3158.1306.1375.23.3015.2916.4808.0615.1794.0836.3699.0649.5586v.0483c-.6349-.1364-1.2822-.2065-1.9316-.2093-.337-.0285-.6762.0107-.9978.1153-.3216.1045-.619.2724-.8748.4936-.2557.2213-.4646.4914-.6144.7946-.1498.3032-.2373.6333-.2576.9709-.0002.3246.065.646.1919.9449.1268.2989.3126.5691.5463.7945.2337.2254.5104.4014.8137.5174.3032.116.6268.1697.9512.1578.7731-.0195 1.5255-.2536 2.1731-.6761v.4426h1.5293v-4.3945c.0225-.3912-.0366-.7828-.1736-1.1499-.137-.3671-.3489-.7017-.6221-.9825-.2733-.2808-.6019-.5017-.9652-.6487-.3632-.147-.753-.2167-1.1447-.2049zm-.8048 6.125c-.1289.0108-.2586-.0064-.3802-.0506-.1216-.0442-.2321-.1142-.3239-.2053-.0919-.0911-.1628-.201-.208-.3222-.0452-.1212-.0636-.2508-.0538-.3797.0483-.5554.66-.8693 1.2959-.8693.6309.0125 1.2579.1016 1.8672.2656v.5876c-.2731.3169-.6136.5688-.9965.7373-.3829.1685-.7987.2493-1.2168.2366h.0161zM140.142 28.8719c.576.0009 1.129.2228 1.546.6197l1.054-1.1107c-.7-.6686-1.632-1.0406-2.6-1.0383-.512-.0236-1.023.0569-1.503.2366-.48.1796-.919.4547-1.289.8087-.371.354-.666.7794-.868 1.2507-.201.4712-.305.9784-.305 1.4909 0 .5126.104 1.0198.305 1.491.202.4712.497.8967.868 1.2506.37.354.809.6291 1.289.8088.48.1796.991.2601 1.503.2365.968.0024 1.9-.3696 2.6-1.0383l-1.054-1.1107c-.415.3998-.969.6222-1.546.6198-.307.0183-.616-.0264-.906-.1316-.289-.1051-.555-.2684-.779-.4799-.225-.2114-.404-.4665-.526-.7496s-.185-.5882-.185-.8966c0-.3083.063-.6135.185-.8965.122-.2831.301-.5383.526-.7497.224-.2114.49-.3748.779-.4799.29-.1051.599-.1499.906-.1315zM164.514 30.3528h-3.502v-2.8412h-1.537v7.2196h1.537V31.882h3.502v2.8492h1.529v-7.2196h-1.529v2.8412zM143.869 29.0409h2.342v5.6903h1.537v-5.6903h2.351v-1.5293h-6.23v1.5293zM200 27.5116h-6.23v1.5293h2.351v5.6903h1.529v-5.6903H200v-1.5293zM174.784 27.5116h-5.208l-.064.6922s-.258 2.5756-.499 4.0243c-.137.8049-.596 1.0141-.95 1.0141h-.531v2.7446h1.529v-1.2475h4.974v1.2153h1.529V33.21h-.804l.024-5.6984zm-4.258 4.9419c.169-1.0141.346-2.5353.435-3.4126h2.293V33.21h-2.953c.104-.2425.18-.4964.225-.7565zM189.183 27.3506c-.827.0104-1.628.2933-2.278.8049v-.6117h-1.529v10.0044h1.529v-3.4206c.648.5154 1.45.7988 2.278.8048.512.0237 1.023-.0568 1.503-.2365.48-.1796.919-.4547 1.289-.8087.371-.354.666-.7794.868-1.2507.201-.4712.305-.9784.305-1.4909 0-.5126-.104-1.0198-.305-1.491-.202-.4712-.497-.8967-.868-1.2506-.37-.354-.809-.6291-1.289-.8088-.48-.1797-.991-.2601-1.503-.2365v-.0081zm0 6.0446c-.446-.0016-.881-.1352-1.25-.3838-.37-.2485-.657-.6011-.827-1.013-.169-.4119-.212-.8648-.125-1.3014.088-.4367.304-.8375.619-1.1518.316-.3144.717-.5282 1.154-.6145.437-.0863.89-.0412 1.301.1296.411.1708.763.4596 1.01.83.247.3705.379.8059.379 1.2512-.002.5985-.241 1.1717-.665 1.5941-.424.4224-.998.6596-1.596.6596zM180.249 27.3265c-.96.0306-1.9.2753-2.753.7163l.741 1.3441c.622-.3172 1.306-.4957 2.004-.5231.19-.0104.379.0205.556.0907.176.0702.336.1779.467.3157.131.1377.23.3023.291.4823.061.18.082.3711.062.56v.0483c-.632-.1394-1.277-.2122-1.924-.2173-.335-.0252-.672.0165-.991.1225-.32.106-.615.2743-.868.4951-.254.2209-.462.4898-.611.7914-.149.3015-.237.6296-.258.9654 0 .3239.065.6446.191.943.126.2983.312.5681.544.7934.233.2253.509.4015.811.518.303.1165.625.1709.949.1601.773-.0181 1.526-.2523 2.173-.676v.4426h1.537v-4.3865c.022-.3922-.039-.7847-.177-1.1524-.138-.3677-.352-.7026-.626-.9834-.275-.2808-.605-.5014-.97-.6477-.364-.1464-.756-.2154-1.148-.2025zm-.805 6.125c-.128.0128-.258-.0022-.38-.0438s-.234-.1089-.328-.1974-.167-.1961-.216-.3156c-.049-.1194-.071-.248-.066-.3768.048-.5554.66-.8693 1.304-.8693.627.014 1.251.1004 1.859.2576v.5875c-.272.3108-.609.5578-.988.7233-.378.1656-.788.2456-1.201.2345h.016zM154.429 27.3426c-.96.0265-1.902.2714-2.753.7163l.748 1.3361c.623-.3173 1.307-.4958 2.005-.5232.189-.0104.379.0206.556.0908.176.0701.336.1778.466.3156.131.1378.231.3024.292.4823.061.18.082.3711.062.5601v.0483c-.632-.1364-1.277-.2066-1.924-.2093-.34-.0285-.682.012-1.006.119-.325.1071-.624.2785-.88.5039-.256.2255-.465.5004-.612.8083-.147.3079-.231.6424-.246.9834.007.3185.077.6324.206.9236.13.2913.315.5541.546.7733.231.2192.504.3905.801.504.298.1135.615.167.934.1573.771-.0158 1.522-.2502 2.165-.676v.4507h1.537v-4.3865c.021-.3899-.038-.7799-.175-1.1454-.137-.3656-.349-.6988-.621-.9787-.272-.2798-.6-.5001-.961-.6471-.362-.147-.75-.2174-1.14-.2068zm-.805 6.125c-.13.0095-.26-.009-.382-.054-.122-.0451-.233-.1158-.325-.2073-.092-.0915-.164-.2018-.21-.3233-.046-.1215-.066-.2515-.057-.3812.048-.5474.66-.8693 1.304-.8693.628.0118 1.252.101 1.859.2656v.6198c-.273.3093-.61.5547-.989.7189-.378.1641-.788.2429-1.2.2308z"/>
</svg>
