<svg xmlns="http://www.w3.org/2000/svg" viewBox="0 0 200 50">
	<g fill="#000">
		<path d="M81.6 38.3h2.2v.4H82v2.5h-.4v-2.9zm2.4 0h1.7c.6 0 .9.3.9.8s-.3.8-.8.8h-1.4v1.3H84v-2.9zm1.7 1.3c.4 0 .6-.2.6-.5s-.2-.5-.6-.5h-1.3v.9l1.3.1zm2.3.7l-1.3-2h.5l1.1 1.6 1-1.6h.4l-1.8 2.9h-.5l.6-.9zm2.2-2h2.4v2.9h-.4v-2.5h-1.7v2.5h-.4l.1-2.9zm3.2 0h2.5v2.9h-.4v-2.5h-1.8v2.5h-.4v-2.9h.1zm4.3 0h.3l1.4 2.9H99l-.4-.8H97l-.4.8h-.4l1.5-2.9zm.7 1.8l-.6-1.2-.7 1.3 1.3-.1zm3.1-1.8h.4l1.1 1.8 1.1-1.8h.3v2.9h-.3V39l-1.1 1.8-1.1-1.8v2.3h-.4v-3zm3.4 1.5c0-.8.7-1.5 1.5-1.5s1.5.7 1.5 1.5c0 .9-.7 1.5-1.5 1.5s-1.5-.6-1.5-1.5zm2.8 0c0-.7-.5-1.2-1.1-1.2s-1.1.5-1.1 1.2.5 1.2 1.1 1.2c.5 0 1.1-.5 1.1-1.2zm3.5.8c-.3.5-.8.8-1.3.8-.8 0-1.5-.7-1.5-1.5s.7-1.5 1.5-1.5c.6 0 1 .3 1.3.7l-.3.2c-.2-.4-.6-.6-.9-.6-.7 0-1.1.5-1.1 1.2s.5 1.2 1.1 1.2c.5 0 .8-.2 1-.7l.2.2zm.6-2.3h.4v1.5l1.6-1.5h.5l-1.1 1 1.3 1.9h-.4l-1.2-1.6-.7.6v1h-.4v-2.9zm2.7 1.5c0-.8.7-1.5 1.5-1.5s1.5.7 1.5 1.5c0 .9-.7 1.5-1.5 1.5-.9 0-1.5-.6-1.5-1.5zm2.7 0c0-.7-.5-1.2-1.1-1.2-.7 0-1.1.5-1.1 1.2s.5 1.2 1.1 1.2 1.1-.5 1.1-1.2zm.9-1.5h1.7c.6 0 .8.3.8.8 0 .2-.1.5-.3.6.3.2.5.5.5.8 0 .6-.4.8-1 .8H118l.1-3zm1.8 1.2c.3 0 .5-.2.5-.4 0-.3-.2-.4-.5-.4h-1.4v.8h1.4zm.1 1.5c.4 0 .6-.2.6-.6 0-.3-.2-.6-.6-.6h-1.5V41h1.5zm4.2-.4c-.3.5-.8.8-1.3.8-.8 0-1.5-.7-1.5-1.5s.7-1.5 1.5-1.5c.6 0 1 .3 1.3.7l-.3.2c-.2-.4-.6-.6-.9-.6-.7 0-1.1.5-1.1 1.2s.5 1.2 1.1 1.2c.5 0 .8-.2 1-.7l.2.2zm.6-2.3h.4v1.5l1.6-1.5h.6l-1.2 1 1.3 1.9h-.4l-1.2-1.6-.7.6v1h-.4v-2.9z"/>
		<path d="M128.9 38.3h.3l1.4 2.9h-.4l-.4-.8h-1.6l-.4.8h-.4l1.5-2.9zm.8 1.8l-.7-1.3-.7 1.3h1.4zm3.4 1.1V40h-1l-.8 1.2h-.4l.8-1.3c-.2 0-.4-.1-.6-.3-.1-.1-.2-.4-.2-.6 0-.3.1-.5.2-.6.1-.1.4-.2.8-.2h1.6v2.9l-.4.1zm0-2.5h-1.3c-.1 0-.3 0-.4.1s-.2.2-.2.4.1.3.2.4c.1.1.2.1.4.1h1.2l.1-1zm2.8-.4h2.4v.4h-2.1v.8h1.2c.4 0 .7.1.8.3.1.1.2.3.2.6 0 .4-.1.6-.3.7-.2.2-.6.3-.8.3h-1.7l.3-3.1zm1.7 2.7c.2 0 .3-.1.4-.1.1-.1.2-.2.2-.4s-.1-.4-.2-.4c-.2-.1-.4-.2-.5-.2h-1.3V41h1.4zm3.8.2V39l-1.9 2.3h-.3v-2.9h.4v2.3l1.9-2.3h.3v2.9l-.4-.1zm1.1-2.9h1.7c.6 0 .9.3.9.8s-.3.8-.8.8h-1.4v1.3h-.4v-2.9zm1.7 1.3c.4 0 .6-.2.6-.5s-.2-.5-.6-.5h-1.3v.9l1.3.1z"/>
		<path d="M146.9 40.2l-.4-.5-1.1 1.5h-.5l1.3-1.7-1.1-1.2h.5l1.3 1.5v-1.5h.4v1.5l1.4-1.5h.4l-1 1.2 1.2 1.7h-.5l-1-1.5-.5.5v1h-.4v-1z"/>
		<path d="M150.7 38.3h.3l1.4 2.9h-.4l-.4-.8H150l-.4.8h-.4l1.5-2.9zm.8 1.8l-.7-1.3-.7 1.3h1.4zM85.7 12.3h-2.9v2.9h-1.2V8.9h1.2v2.3h2.9V8.9H87v6.4h-1.3v-3zm7.2 1.4H90l-.8 1.6h-1.4L91 8.9h1l3.2 6.4h-1.4l-.9-1.6zm-2.4-1.3h1.7l-.8-1.7-.9 1.7zM101 8.9V14h1.1v2.6H101v-1.4h-5.3V8.9H97V14h2.6V8.9h1.4zm3.1 6.4h-.8V8.9h1.3V13l3.2-4.1h.9v6.4h-1.3v-4.1l-3.3 4.1zm9.2.1c-.5 0-.9-.1-1.3-.3s-.8-.4-1-.7c-.3-.3-.6-.7-.7-1-.2-.5-.3-.9-.3-1.4s.1-.9.3-1.3.4-.8.7-1c.3-.3.7-.6 1-.7.4-.2.8-.3 1.3-.3s.9.1 1.3.3.8.4 1 .7c.3.3.6.7.7 1 .3.4.4.8.4 1.3s-.1.9-.3 1.3c-.2.5-.4.8-.7 1-.3.3-.7.6-1 .7-.4.4-.8.4-1.4.4zm0-5.5c-.3 0-.6.1-.8.2-.3.1-.5.3-.7.5s-.3.4-.5.7c-.1.3-.2.6-.2.8 0 .3.1.6.2.8.1.3.3.5.5.7s.4.4.7.5c.3.1.5.2.8.2s.6-.1.8-.2c.3-.1.5-.3.7-.5s.3-.4.5-.7c.1-.3.2-.6.2-.8 0-.3-.1-.6-.2-.8-.1-.3-.3-.5-.5-.7s-.4-.4-.7-.5c-.2-.1-.4-.2-.8-.2zm8.9 2.4h-2.9v2.9H118V8.9h1.3v2.3h2.9V8.9h1.2v6.4h-1.2v-3zm7 1.4h-2.9l-.8 1.6h-1.4l3.2-6.4h.9l3.2 6.4H130l-.8-1.6zm-2.3-1.3h1.7l-.8-1.7-.9 1.7zm8.4-1.8l-2 4.6H132l2.9-6.4h.9l2.9 6.4h-1.4l-2-4.6zm7.1.5c.5 0 .9 0 1.3.1s.7.3.9.6c.2.2.3.4.4.7.1.2.1.5.1.7 0 .4-.1.8-.2.9-.1.3-.3.5-.5.6-.1.1-.3.2-.5.3s-.3.1-.5.2c-.2 0-.3.1-.4.1h-3.8V8.9h1.3v2.4l1.9-.2zm.5 2.9h.4c.1 0 .3-.1.4-.2.1-.1.2-.2.2-.3.1-.1.1-.3.1-.4s0-.3-.1-.4c-.1-.1-.1-.2-.2-.3-.1-.1-.2-.2-.4-.2h-2.5V14h2.1zm7.6-1.7h-3v2.9h-1.2V8.9h1.2v2.3h3V8.9h1.2v6.4h-1.2v-3zm5.6-1.2c.5 0 .9 0 1.3.1s.7.3.9.6c.2.2.3.4.4.7.1.2.1.5.1.7 0 .4-.1.7-.2.9-.1.3-.3.5-.4.6-.3.3-.5.4-.8.5s-.6.1-.8.1h-3.4V8.9h1.3v2.4l1.6-.2zm.5 2.9h.4c.1 0 .2-.1.3-.2.1-.1.2-.2.2-.4v-.6c0-.1-.1-.2-.2-.3-.1-.1-.2-.2-.4-.2h-2.6V14h2.3zm3.3-5.1h1.3v6.4h-1.3V8.9zm3.8 6.4h-.8V8.9h1.3V13l3.3-4.1h.8v6.4H167v-4.1l-3.3 4.1zm3.7-8.5v.3c0 .1-.1.3-.1.4s-.1.3-.2.4l-.2.2c-.2.1-.4.2-.7.3-.3 0-.5.1-.7.1s-.4 0-.7-.1c-.3 0-.5-.1-.7-.3 0-.1-.1-.2-.1-.3-.1-.1-.1-.3-.2-.4 0-.1-.1-.3-.1-.4v-.3h.9c0 .3.1.5.3.6.1.1.2.1.3.1h.7c.1 0 .3-.1.4-.1.1-.1.2-.3.3-.6h.8v.1zM85.2 18.4c.5 0 .8.1 1 .2.3.1.5.3.6.4s.3.3.4.5.2.5.2.8c0 .4-.1.7-.2.9-.1.2-.3.4-.4.6-.1.1-.3.2-.4.3-.1.1-.3.1-.4.2-.1 0-.3.1-.4.1h-2.8v2.4h-1.3v-6.4h3.7zm-.1 2.7h.4c.1 0 .3-.1.4-.2 0 0 .1-.1.1-.2.1-.1.1-.3.1-.5s0-.3-.1-.4l-.1-.2c-.1-.1-.2-.1-.3-.2h-2.8V21l2.3.1zm6.9 2.2h-2.9l-.8 1.6H87l3.1-6.4h.9l3.2 6.4h-1.4l-.8-1.6zM89.7 22h1.7l-.8-1.7-.9 1.7zm11 1.2c-.2.3-.3.6-.6.8-.2.2-.4.4-.7.6-.3.2-.6.3-.8.4h-.9c-.5 0-.8-.1-1.3-.2-.4-.1-.8-.4-1.1-.8-.3-.3-.5-.6-.7-1s-.3-.8-.3-1.4c0-.5.1-.8.2-1.3.2-.5.4-.8.7-1.1.1-.1.2-.2.4-.3.2-.1.3-.2.6-.3.2-.1.4-.2.7-.2.3-.1.6-.1.8-.1.4 0 .7 0 .9.1.3.1.6.2.8.3.2.1.4.3.6.5s.4.4.6.7l-1 .8c-.1-.2-.2-.3-.3-.5l-.4-.4c-.1-.1-.3-.1-.5-.2-.2 0-.4-.1-.6-.1-.3 0-.6 0-.8.1-.2.1-.5.2-.7.5-.2.2-.3.4-.4.7-.1.3-.2.6-.2.9 0 .4.1.7.2.9s.3.5.5.7.4.3.6.4.5.1.8.1.5 0 .7-.1l.6-.3c.1-.1.3-.2.4-.4.1-.2.3-.3.4-.6l.8.8zm4.9 1.7v-2.6h-2.2c-.2 0-.4-.1-.6-.1s-.4-.1-.5-.2c-.2-.1-.3-.2-.4-.3-.2-.2-.4-.5-.4-.8s-.1-.6-.1-.8v-1.7h1.3v1.8c0 .2.1.4.3.5.1.1.2.1.3.2.1 0 .2.1.4.1h1.9v-2.6h1.3v6.4l-1.3.1zm3.1-6.5h5.2v1.2H110v1.2h2.4V22H110v1.6h4.1v1.2h-5.5l.1-6.4zm10.1 6.5h-1.2v-5.3h-2.4v-1.2h6.2v1.2h-2.5l-.1 5.3zm7.8-3h-2.9v2.9h-1.3v-6.5h1.3v2.4h2.9v-2.4h1.2v6.5h-1.2v-2.9zm5.8-1.2c.5 0 .9 0 1.3.1s.7.3.9.6c.2.2.3.4.4.7.1.2.1.5.1.7 0 .4-.1.7-.2.9-.1.3-.3.5-.4.6-.3.2-.5.4-.8.5s-.6.1-.8.1h-3.4v-6.4h1.3v2.4h1.6v-.2zm.5 2.9h.4c.1 0 .2-.1.4-.2.1-.1.2-.2.2-.4v-.6c0-.1-.1-.2-.2-.3-.1-.1-.2-.2-.4-.2h-2.6v1.7h2.2zm3.2-5.2h1.3v6.4h-1.3v-6.4zm3.6 6.5h-.8v-6.4h1.3v4.1l3.3-4.1h.8v6.4H143v-4.1l-3.3 4.1zm3.8-8.5v.3c0 .1-.1.3-.1.4s-.1.3-.2.4l-.3.3c-.2.1-.4.2-.7.3h-1.4c-.3 0-.5-.1-.7-.3l-.3-.3c-.1-.1-.1-.3-.2-.4-.1-.1-.1-.3-.1-.4v-.3h.9c0 .3.1.5.3.6.1.1.2.1.3.1h.7c.1 0 .2-.1.4-.1.1-.1.2-.3.3-.6h1.1zm-55.8 18h-5.1v1.4h-1v-2.6h.9l2.3-5.2h.8l2.3 5.2h.9v2.6h-1v-1.4h-.1zM85.2 30l-1.3 3.2h2.5L85.2 30zm4.8-2h5.1v1.2h-3.9v1.2h2.4v1.1h-2.4v1.6h4.1v1.2H90V28zm10.9 1.2H98v5.2h-1.3V28h5.6v6.4H101l-.1-5.2zm5.7 5.4c-.5 0-.9-.1-1.3-.3s-.8-.4-1-.7c-.3-.3-.6-.7-.7-1-.2-.4-.3-.8-.3-1.3s.1-.9.3-1.3c.2-.4.4-.8.7-1 .3-.3.7-.6 1-.7.4-.2.8-.3 1.3-.3s.9.1 1.3.3c.4.2.8.4 1 .7.3.3.6.7.7 1 .2.4.3.8.3 1.3s-.1.9-.3 1.3c-.2.4-.4.8-.7 1-.3.3-.7.6-1 .7-.3.2-.8.3-1.3.3zm0-5.5c-.3 0-.6.1-.8.2-.3.1-.5.3-.7.5s-.3.4-.4.7c-.1.3-.2.6-.2.8 0 .3.1.6.2.8.1.3.3.5.4.7.2.2.4.4.7.5.3.1.5.2.8.2s.6-.1.8-.2c.3-.1.5-.3.7-.5s.3-.4.5-.7c.1-.3.2-.6.2-.8 0-.3-.1-.6-.2-.8-.1-.3-.3-.5-.5-.7s-.4-.4-.7-.5c-.2-.2-.5-.2-.8-.2zm4.8 3.3c.1.1.3.3.5.4.2.1.5.3.7.4.3.1.5.2.8.2s.5.1.7.1.4 0 .6-.1c.2 0 .4-.1.6-.2.2-.1.3-.2.4-.4.1-.1.1-.3.1-.4 0-.1 0-.3-.1-.3-.1-.1-.2-.2-.3-.2-.2-.1-.3-.1-.6-.2H113v-1.2h1.6c.1 0 .3 0 .4-.1l.2-.2c.1-.1.1-.2.1-.3 0-.1 0-.2-.1-.2l-.1-.2-.2-.1-.1-.1c-.1-.1-.3-.1-.4-.1h-.6c-.5 0-.8.1-1.3.2-.4.1-.8.3-1 .6l-.8-1c.2-.2.4-.3.7-.4.2-.1.5-.2.8-.3.6-.2 1.1-.3 1.8-.3h.5c.2 0 .3 0 .5.1.2 0 .4.1.5.1.2.1.4.1.5.3.2.1.3.3.5.4.1.1.2.3.3.4.1.1.1.3.1.4v.3c0 .2-.1.5-.2.7s-.3.4-.6.5c.1.1.3.2.4.2l.3.3c.1.2.2.3.2.5s.1.3.1.5c0 .4-.1.7-.2.9-.1.3-.3.5-.6.8-.3.3-.7.5-1 .6-.4.1-.8.1-1.1.1-.4 0-.8 0-1-.1-.3-.1-.7-.1-1-.3-.5-.2-.9-.5-1.3-.8l.5-1.5zm7.9 2h-.8V28h1.2v4.1L123 28h.8v6.4h-1.2v-4.1l-3.3 4.1zm9.5 0h-1.2v-5.2h-2.4V28h6.2v1.2h-2.5v5.2h-.1zm7.1-1.6H133l-.8 1.6h-1.4l3.1-6.4h.9l3.2 6.4h-1.4l-.7-1.6zm-2.3-1.2h1.7l-.8-1.7-.9 1.7zm8.9-3.6c.5 0 .8.1 1 .2.3.1.5.3.6.4s.3.3.4.5c.1.2.2.5.2.8 0 .4-.1.7-.2.9-.1.2-.2.4-.4.6-.1.1-.3.2-.4.3-.1.1-.3.1-.4.2-.1 0-.3.1-.4.1h-2.7v2.4H139V28h3.5zm-.1 2.7h.4c.1 0 .3-.1.4-.2 0 0 .1-.1.1-.2.1-.1.1-.3.1-.5s0-.3-.1-.4l-.1-.2c-.1-.1-.2-.1-.3-.2h-2.8v1.5l2.3.2zm4.2 3.7h-.8V28h1.2v4.1l3.3-4.1h.8v6.4h-1.2v-4.1l-3.3 4.1zm7 0h-.8V28h1.3v4.1l3.3-4.1h.8v6.4h-1.3v-4.1l-3.3 4.1zm3.9-8.4v.3c0 .1-.1.3-.1.4s-.1.3-.2.4l-.3.3c-.2.1-.4.2-.7.3-.3 0-.5.1-.7.1s-.4 0-.7-.1c-.3 0-.5-.1-.7-.3l-.3-.3c-.1-.1-.1-.3-.2-.4-.1-.1-.1-.3-.1-.4V26h.9c0 .3.1.5.3.6.1.1.2.1.3.1h.7c.1 0 .2-.1.4-.1.1-.1.2-.3.3-.6h1.1z"/>
	</g>
	<path fill="#da002a" d="M32 5h40v40H32V5z"/>
	<path fill="#fff" d="M41.9 17.8V32l3.4 2.2 6.7-6.7 6.8 6.7 3.4-2.2V17.8L58.7 16 52 22.7 45.3 16l-3.4 1.8zm12.5 7.3l4.3-4.3v8.7l-4.3-4.4zm-9.1 4.3v-8.7l4.3 4.3-4.3 4.4z"/>
	<linearGradient id="SVGID_1_" gradientUnits="userSpaceOnUse" x1="48.7618" y1="21.8468" x2="55.2666" y2="28.3516">
		<stop offset="0" stop-color="#fff"/>
		<stop offset=".5" stop-color="#da002a"/>
		<stop offset="1" stop-color="#fff"/>
	</linearGradient>
	<path fill="url(#SVGID_1_)" d="M56.4 27.2L54 29.5 47.6 23l2.4-2.3z"/>
	<path fill="#fff" d="M53.6 21.1l2.3 2.5-5.3 5.3-2.4-2.5 5.4-5.3z"/>
</svg>