<svg xmlns="http://www.w3.org/2000/svg" viewBox="0 0 200 50">
	<path fill="#00BEF0" d="M42.57 8.5c-2.7373 0-5.4131.81171-7.6891 2.3325-2.276 1.5207-4.0499 3.6822-5.0974 6.2112-1.0475 2.5289-1.3216 5.3117-.7876 7.9964.534 2.6847 1.8522 5.1507 3.7877 7.0863 1.9356 1.9355 4.4016 3.2537 7.0863 3.7877 2.6847.534 5.4675.2599 7.9964-.7876 2.529-1.0475 4.6905-2.8214 6.2112-5.0974 1.5208-2.276 2.3325-4.9518 2.3325-7.6891.0013-1.8179-.3558-3.6181-1.0508-5.2979-.6951-1.6797-1.7145-3.206-2.9999-4.4914-1.2854-1.2854-2.8117-2.3048-4.4914-2.99987-1.6798-.69506-3.48-1.05214-5.2979-1.05083zm-2 19.71l-1 3c-1.871-.6521-3.4919-1.8717-4.6368-3.4888-1.1449-1.6172-1.7566-3.5512-1.75-5.5326.0066-1.9813.6312-3.9113 1.7869-5.5207 1.1556-1.6095 2.7846-2.8183 4.6599-3.4579l1 3c-1.2377.4178-2.3115 1.2164-3.0677 2.2815-.7562 1.0652-1.1561 2.3423-1.1423 3.6485-.0784 1.3313.289 2.6508 1.0442 3.75.7551 1.0992 1.855 1.9156 3.1258 2.32h-.02zm4.72 3.13l-1-3.06c1.2578-.4071 2.3551-1.2007 3.1355-2.2679.7803-1.0671 1.204-2.3534 1.2107-3.6754.0066-1.322-.4041-2.6124-1.1737-3.6874-.7696-1.0749-1.8589-1.8796-3.1125-2.2993l1-3.06c1.9013.6332 3.5533 1.8519 4.7194 3.4816 1.1661 1.6297 1.7864 3.5867 1.7719 5.5906-.0144 2.0039-.6628 3.9518-1.8522 5.5645-1.1895 1.6128-2.8589 2.8076-4.7691 3.4133h.07z"/>
	<path fill="#000" d="M66.2401 45.44h-2.17v-6.38h3.76v.64h-3v2h1.4c1.28 0 2.11.51 2.11 1.79v.06c0 1.25-.83 1.89-2.1 1.89zm0-.57c1 0 1.34-.45 1.34-1.21v-.06c0-.77-.45-1.21-1.4-1.21h-1.35v2.49l1.41-.01zm2.81-.7c0-1.08 1.15-1.47 2.36-1.47h.7v-.32c0-.77-.26-1.08-1-1.08s-1 .26-1.08.83h-.77c.0222-.2191.0881-.4315.1937-.6247.1057-.1932.2489-.3634.4213-.5004.1724-.137.3705-.2381.5826-.2973s.4339-.0754.6524-.0476c.228-.0315.4602-.0108.6791.0606.2188.0714.4186.1915.5843.3514.1656.1599.2928.3553.3719.5715s.108.4475.0847.6765v3.06h-.83v-.58c-.1636.2338-.385.4212-.6427.5439-.2576.1227-.5427.1765-.8273.1561-.78 0-1.53-.38-1.53-1.34l.05.01zm3.06-.32v-.57h-.64c-1 0-1.59.26-1.59.89s.26.77.89.77 1.34-.4 1.34-1.1v.01zm5-.45h-2.3v2.1h-.81v-4.66h.77v2h2.3v-2h.77v4.66h-.77l.04-2.1zm2.81-.32v2.36h-.77v-4.66h.77v2.17l1.91-2.17h.89l-2 2.17 2.17 2.49h-.89l-2.08-2.36zM169.26 24.83l1.53 1.85c-.671.6876-1.476 1.2298-2.365 1.5928-.89.363-1.845.5391-2.805.5172-1.228.0411-2.449-.1983-3.57-.7-.991-.5336-1.806-1.3425-2.347-2.329-.541-.9866-.785-2.1088-.703-3.231 0-3.76 2.55-6.57 6.32-6.57 4.21 0 6.25 3.13 5.93 7.21h-9.57c.032.5013.182.9879.438 1.4205.255.4326.609.799 1.032 1.0695.792.4658 1.703.6884 2.62.64.651.0062 1.297-.121 1.897-.3738.6-.2528 1.142-.6259 1.593-1.0962zm-7.46-3.89h6.76c-.109-.7898-.511-1.5097-1.126-2.0172-.615-.5074-1.398-.7654-2.194-.7228-.806-.0288-1.596.2315-2.227.734-.63.5025-1.061 1.214-1.213 2.006zm-64.2999 7.53h3.4399l-5.4199-6.32 5.3599-5.93h-3.3799l-4.08 4.72h-1.22v-4.72h-2.61V28.4h2.61v-4.84h1.21l4.09 4.91zm11.2899-10c-.504-.005-1.003.0936-1.466.2898-.464.1962-.883.4858-1.23.8507s-.615.7973-.788 1.2703c-.173.473-.246.9765-.216 1.4792-.03.5027.043 1.0062.216 1.4792.173.473.441.9054.788 1.2703.347.3649.766.6544 1.23.8506.463.1963.962.2949 1.466.2899.502.0087 1-.0879 1.463-.2837.462-.1957.878-.4863 1.221-.8529.343-.3666.605-.801.77-1.2753.165-.4743.228-.9778.186-1.4781.045-.5019-.016-1.0076-.179-1.4843-.164-.4767-.426-.9136-.769-1.2825-.343-.3688-.76-.6612-1.224-.8581-.464-.197-.964-.2941-1.468-.2851v.02zm.45-2.49c3.44 0 6 2.68 6 6.38 0 3.7-2.49 6.44-6 6.44-.741.0339-1.481-.0903-2.171-.3644-.69-.2742-1.313-.692-1.829-1.2256v6.38h-2.64V16.22h2.62v1.47c.49-.5752 1.108-1.0276 1.804-1.3211.697-.2935 1.452-.4198 2.206-.3689l.01-.02zm34.7.26H133v2.42h4.15v9.74h2.68v-9.7H144v-2.48l-.06.02zm-56.1999 0h-10.91v2.42h4.17v9.74h2.68v-9.7h4.12v-2.48l-.06.02zm-14.17 6.1c0-1.0158-.4036-1.99-1.1218-2.7082-.7183-.7183-1.6925-1.1218-2.7082-1.1218-1.0158 0-1.99.4035-2.7083 1.1218-.7182.7182-1.1217 1.6924-1.1217 2.7082 0 1.0158.4035 1.9899 1.1217 2.7082.7183.7183 1.6925 1.1218 2.7083 1.1218 1.0157 0 1.9899-.4035 2.7082-1.1218.7182-.7183 1.1218-1.6924 1.1218-2.7082zm-10.33 0c-.0259-1.3047.3374-2.5875 1.0434-3.6848.7061-1.0974 1.7229-1.9597 2.9209-2.477 1.198-.5173 2.5229-.6661 3.8058-.4274 1.2829.2386 2.4657.8539 3.3976 1.7673.9319.9135 1.5707 2.0837 1.8349 3.3616.2642 1.2779.1419 2.6055-.3513 3.8136-.4932 1.2081-1.335 2.2419-2.4181 2.9698-1.0831.7278-2.3583 1.1166-3.6632 1.1169-.861.0342-1.7199-.1079-2.5239-.4177-.8039-.3099-1.5361-.7808-2.1514-1.384-.6153-.6031-1.1008-1.3257-1.4267-2.1234-.3258-.7976-.4851-1.6535-.468-2.5149zm93.6499-6.12V28.4h-2.62v-7.84l-6.38 7.85h-2.11V16.22h2.62v7.91l6.38-7.85h2.11v-.06zm-25.65 12.25h-2.62V16.22h2.62v12.25zm-6.83-4.21c.012-.2411-.025-.4822-.11-.7083-.084-.2261-.215-.4323-.383-.6058-.168-.1736-.369-.3107-.593-.4029-.223-.0922-.463-.1374-.704-.133H120v3.76h2.68c.242-.0048.48-.0588.7-.1587.22-.0998.418-.2435.581-.4222.162-.1788.287-.3888.366-.6173.079-.2285.111-.4707.093-.7118h-.01zm2.68 0c.012.5647-.093 1.1257-.309 1.6475-.216.5217-.539.9928-.947 1.3831-.408.3904-.893.6915-1.424.8842-.531.1927-1.096.2728-1.66.2352h-5.42V16.22H120v4h3c.542-.0328 1.085.0487 1.593.2393.508.1906.971.486 1.357.867.387.381.689.8391.887 1.3445.198.5055.288 1.0469.263 1.5892h-.01z"/>
</svg>
