<svg xmlns="http://www.w3.org/2000/svg" viewBox="0 0 200 50">
	<g fill="#016438">
		<path d="M15 24.79c.0026-4.4522 1.7724-8.7212 4.9206-11.8694C23.0688 9.77244 27.3378 8.00265 31.79 8v6.08c-2.1239.004-4.1988.6382-5.962 1.8223-1.7632 1.1841-3.1353 2.8648-3.9425 4.8293-.8073 1.9645-1.0134 4.1244-.5923 6.2061.4212 2.0817 1.4507 3.9916 2.9581 5.4878 1.5074 1.4962 3.425 2.5114 5.5098 2.917 2.0848.4056 4.243.1834 6.2014-.6385 1.9584-.822 3.6289-2.2066 4.7998-3.9786 1.1709-1.7719 1.7896-3.8515 1.7777-5.9754h6.08c0 4.4583-1.771 8.734-4.9235 11.8865C40.544 39.7889 36.2683 41.56 31.81 41.56c-4.4583 0-8.734-1.7711-11.8865-4.9235C16.771 33.484 15 29.2083 15 24.75"/>
		<path d="M37 15.35c.004-.8428.2573-1.6656.728-2.3647s1.1378-1.2433 1.9172-1.564c.7794-.3207 1.6363-.4036 2.4627-.2382.8264.1654 1.5854.5716 2.1814 1.1676.596.596 1.0022 1.355 1.1676 2.1814s.0826 1.6833-.2381 2.4627c-.3208.7795-.8649 1.4465-1.5641 1.9173-.6991.4707-1.5219.7239-2.3647.7279-.5637.0013-1.1222-.1087-1.6433-.3239-.521-.2151-.9945-.531-1.3931-.9297-.3986-.3986-.7146-.872-.9297-1.3931-.2151-.5211-.3252-1.0796-.3239-1.6433z"/>
	</g>
	<g fill="#4FAE2E">
		<path d="M24.39 24.79c0-1.4715.4364-2.9099 1.2539-4.1334.8175-1.2236 1.9795-2.1772 3.339-2.7403 1.3594-.5631 2.8554-.7104 4.2986-.4233 1.4432.287 2.7689.9956 3.8094 2.0361 1.0405 1.0405 1.7491 2.3662 2.0362 3.8094.287 1.4432.1397 2.9392-.4234 4.2987-.5631 1.3594-1.5167 2.5214-2.7402 3.3389-1.2235.8175-2.662 1.2539-4.1335 1.2539-1.9724-.0027-3.8632-.7874-5.2579-2.1821-1.3947-1.3947-2.1794-3.2855-2.1821-5.2579z"/>
		<path d="M168.21 19.6l-.51 2.55C166.47 27.68 166 29.5 165 35l-.26.21-3.36.08-.17-.21 1.36-5.7.38-1.87h-7.19c-.51 2.21-.89 4.21-1.53 7.48l-.26.21-3.36.08-.17-.21 1.36-5.7.55-2.46c.677-2.7455 1.201-5.5265 1.57-8.33l.21-.21c1.173-.138 2.337-.3349 3.49-.59l.17.21-.34 1.66-.45 2.54-.55 2.42h7.23c.47-2.12.64-3.27 1.06-6l.21-.21c1.173-.1344 2.338-.3314 3.49-.59l.17.21-.34 1.57-.06.01zm-40.5 7.4c.228-.9337.355-1.8891.38-2.85 0-3.36-2.17-3.91-3.4-3.91-5.23 0-5.87 8.07-5.87 9.31 0 2.64 1.57 3.83 3.4 3.83 3.53 0 4.85-3.65 5.48-6.37l.01-.01zm3.43 1.07c-.72 2.85-2.76 7.78-9 7.78-4.42 0-6.84-2.3-6.84-6.8.004-.6387.047-1.2766.13-1.91.006-.1726.033-.3439.08-.51 1.19-7.5 4.42-14.63 11.56-14.63 1.397-.0127 2.79-.1567 4.16-.43l-.47 3c-1.521.3328-3.073.5037-4.63.51-.603-.0133-1.202.0929-1.763.3126-.561.2197-1.074.5485-1.507.9674-.321.3212-.606.6766-.85 1.06-.189.2785-.347.5769-.47.89 1.02-.3175 2.082-.476 3.15-.47 4.34 0 6.93 2.42 6.93 6.71-.012 1.1914-.17 2.3769-.47 3.53l-.01-.01zM173.91 25c.81-.68 1.23-1.1 2.34-2.17 1.11-1.07 4-4 4.51-4.59l.38-.21h3.78l.09.3c-.34.3-.51.42-1.83 1.53-.51.43-.85.76-1.49 1.32l-4.29 4 5.14 9.73-.21.25-3.66.09-.26-.21c-.85-2-1.11-2.51-2.29-4.93l-2.29-4.68c-.72 3.23-1.19 5.27-2 9.52l-.21.21-3.36.09-.17-.21 1.36-5.69.51-2.46c.677-2.7455 1.201-5.5265 1.57-8.33l.21-.21c1.173-.1344 2.338-.3314 3.49-.59l.17.21-.34 1.66-.51 2.55-.64 2.82zm-29.2 6c-.341.3197-.713.6044-1.11.85-.876.5118-1.875.7746-2.89.76-3 0-3.87-2.55-3.87-4.12.046-1.3245.387-2.622.998-3.7983.61-1.1763 1.475-2.2017 2.532-3.0017 1.565-.9778 3.386-1.4654 5.23-1.4h1.49L144.71 31zM151 18.07l-.17-.26h-4.55c-3.06 0-7.31.21-10.41 3.83-1.627 2.0174-2.554 4.5095-2.64 7.1 0 4.12 2.76 6.5 6.12 6.5 1.77.0612 3.497-.5456 4.84-1.7l-.19 1.28.17.25 3.1-.09.26-.21c.68-4 .89-5.19 2-10.29l1.47-6.41z"/>
	</g>
	<path fill="#016438" d="M63.66 35.75c-3.61 0-8.75-1.15-6.88-9.44.72-3.1 2.85-9.73 11.73-9.73 8.63 0 7.35 7.06 6.8 9.56-1.62 7.02-5.91 9.61-11.65 9.61zm1.15-3.7c2.51 0 3.7-2.64 4.46-6 .55-2.38 1.11-5.86-1.91-5.86-2.59 0-3.74 2.51-4.5 5.86-.68 3.16-.86 6.01 1.95 6.01v-.01zm19.89 3.28h-5.53l-.17-.17c.34-1.1 1.11-4.08 1.91-7.74.68-2.93 1.23-5.53 1.49-6.71-1.4 0-3.53 0-4.59.09l-.17-.26c.26-.89.68-2.47.89-3.4l.3-.17c.93 0 4.46.09 7.27.09 3.44 0 6.76-.09 7.48-.13l.26.17c-.26.81-.72 2.51-.93 3.4l-.34.21h-4.38c-.17.76-.72 3-1.62 6.93-.68 3-1.23 5.69-1.53 7.44l-.3.3-.04-.05zm19.3-14.2h-2.93c-.17.76-.85 3.61-1.49 6.38-.72 3.27-1.4 6.29-1.66 7.56l-.34.21h-5.61l-.21-.21c.34-1.4 1.27-5.31 2.13-9.14.86-3.83 1.62-7.69 1.87-8.76L96 17c1.87 0 3.74.09 8.37.09 3.66 0 7.14-.13 9-.13l.17.21c-.26.94-1.28 5.4-2.29 9.82-.81 3.57-1.53 7.14-1.74 8.12l-.26.21h-5.65l-.17-.25c.3-1.19 1-4 1.74-7.48.59-2.64 1.19-5.44 1.44-6.46h-2.68.07z"/>
</svg>
