<svg viewBox="0 0 200 50" xmlns="http://www.w3.org/2000/svg">
	<path fill="#005bff" d="M62.2 15.3c0-.1 0-.3-.1-.4l-.3-.3c-.1-.1-.3-.1-.4-.1h-17c-.4 0-.7.1-1 .2-.3.1-.6.3-.9.6-.3.2-.5.5-.6.9-.1.3-.2.7-.2 1 0 .4.1.7.2 1 .1.3.3.6.6.9l.9.6c.3.1.7.2 1 .2H52L40.3 35.2c-.1.1-.1.3-.2.4 0 .1 0 .3.1.4l.3.3c.1.1.3.1.4.1h18.6c.7 0 1.3-.3 1.8-.8s.7-1.2.7-1.8c0-.7-.3-1.3-.7-1.8-.5-.5-1.1-.8-1.8-.8h-9.2L62 15.7c.1-.1.1-.2.2-.4zM121.2 16.2c-.1-.3-.3-.6-.6-.9l-.9-.6c-.3-.1-.7-.2-1-.2-.4 0-.7.1-1 .2-.3.1-.6.3-.9.6-.3.2-.5.5-.6.9-.1.3-.2.7-.2 1v9l-14.7-11.5c-.2-.1-.4-.2-.6-.2-.2 0-.4.1-.5.3-.1.1-.2.3-.2.5v18.4c0 .7.3 1.3.8 1.8s1.2.7 1.9.7 1.4-.3 1.9-.7c.5-.5.8-1.1.8-1.8v-9l14.7 11.5c.1.1.3.1.4.2.1 0 .3 0 .4-.1l.3-.3c.1-.1.1-.3.1-.4V17.2c.1-.4.1-.7-.1-1zM118.7 14.5zM80 14c-9 0-16.2 5.1-16.2 11.4 0 6.3 7.3 11.4 16.2 11.4 9 0 16.3-5.1 16.3-11.4S88.9 14 80 14zm0 17.6c-6.2 0-10.8-3.2-10.8-6.1 0-2.9 4.6-6.1 10.8-6.1 6.2 0 10.8 3.2 10.8 6.1 0 2.8-4.6 6.1-10.8 6.1zM34.8 17.4c-1.1-1.1-2.4-1.9-3.8-2.5-1.4-.6-2.9-.9-4.4-.9-2.3 0-4.5.7-6.5 1.9s-3.4 3-4.3 5.1c-.9 2.1-1.1 4.4-.7 6.6.4 2.2 1.6 4.3 3.2 5.9 1.6 1.6 3.7 2.7 5.9 3.1 2.3.4 4.6.2 6.7-.6 2.1-.9 3.9-2.3 5.2-4.2 1.3-1.9 2-4.1 2-6.4 0-1.5-.3-3-.9-4.4-.4-1.3-1.3-2.6-2.4-3.6zM31 29.8c-1.2 1.1-2.7 1.8-4.4 1.8-1.2 0-2.4-.4-3.4-1-1-.7-1.8-1.6-2.3-2.7-.5-1.1-.6-2.3-.4-3.5.2-1.2.8-2.3 1.7-3.1.9-.9 2-1.4 3.2-1.7 1.2-.2 2.4-.1 3.6.3 1.1.5 2.1 1.2 2.8 2.2.7 1 1 2.2 1 3.4 0 1.6-.6 3.1-1.8 4.3z"/>
	<path fill="#001a34" d="M169.3 29.4h-5.8v-4.3h-2.4v11.4h2.4v-4.8h5.8v4.8h2.5V25.1h-2.5zM179.7 30.3l4.8-5.2h-3.2l-4.1 4.9v-4.9h-2.5v11.4h2.5v-5.6l4.6 5.6h3.2zM139.2 26.1h-4.1v-4.5h8.7v-2.4h-11.3v17.4h6.7c3 0 5.5-1.8 5.5-5.2-.1-3.5-2.5-5.3-5.5-5.3zm-.3 8h-3.8v-5.6h3.8c1.9 0 2.9 1.1 2.9 2.8.1 1.7-1 2.8-2.9 2.8zM155.6 26.8c-.8-1.2-2-2.1-3.9-2.1-3 0-5.6 2.3-5.6 6.1s2.6 6.1 5.6 6.1c1.9 0 3.2-.8 3.9-2.1v1.7h2.4V25.1h-2.4v1.7zm-3.4 7.7c-2.1 0-3.5-1.5-3.5-3.7s1.4-3.7 3.5-3.7 3.5 1.5 3.5 3.7c.1 2.2-1.3 3.7-3.5 3.7z"/>
</svg>