<svg xmlns="http://www.w3.org/2000/svg" viewBox="0 0 200 50">
	<path fill="#005BFF" d="M32.464 18.2168c-.581 0-1.1386.0518-1.6748.1533h-.0097c-1.5186.1094-3.0655 1.2783-3.7735 1.8848l-.5664.6269s-.1592-3.2256 3.2735-4.3867c.1953-.0771.4043-.1513.625-.2187 0 0 1.2519-.5157 4.1806-.5362 1.1162-.0078 2.3262-.0097 3.3965-.0088l1.0996.002.6914.002V12h-4.5605c-3.9483.0703-6.0996.7236-6.3115.79-.9532.3116-1.8614.6661-2.5538 1.0743-.747.456-1.3857 1.0439-1.9257 1.7334-.5782.7363-1.044 1.5898-1.4102 2.5224-.2158.6787-.3818 1.3281-.5156 1.9561l-.0059.0205-.0058.0234-.0196.0977c-.0097.0439-.0156.0869-.0224.1299-.21 1.0498-.3174 2.0263-.3487 2.9277l-.0087.206-.003.1026c-.0088.2685-.0136.5293-.0146.7812-.002.5049.0127.9756.0371 1.4053l-.0127.0147c.0351.9345.1523 1.7656.3037 2.496l.0146.0743c.1309.6064.2881 1.1386.4483 1.5927.1758.4971.3545.9004.5049 1.2051.1543.3115.2793.5186.3418.6162 1.7265 2.6729 4.5302 3.7403 7.6113 3.7403 5.7158 0 9.1816-3.6436 9.1816-8.8604 0-5.1094-3.2509-8.4326-7.9668-8.4326Zm-1.25 13.1484c-2.5371 0-4.6084-1.7509-4.6084-4.6455 0-2.8935 2.0713-4.6435 4.6084-4.6435 2.5723 0 4.6455 1.75 4.6455 4.6435-.0019 2.8946-2.0732 4.6455-4.6455 4.6455Zm24.4278-11.3838v-1.5146h4.3564v16.5049h-4.3584v-2.3213h-.0703c-1.0371 1.7139-2.8232 2.8574-5.5029 2.8574-4.3223 0-7.9317-3.1435-7.9317-8.7881 0-5.6455 3.6094-8.789 7.9317-8.789l.1777.0019.1338.0039.2031.0098.2188.0146c.0908.0079.1797.0166.2685.0274 0 0 2.4834-.0371 4.5733 1.9931Zm-8.9317 6.7383c0 2.7871 1.8213 4.6455 4.4659 4.6455 2.6445 0 4.4658-1.8603 4.4658-4.6455 0-2.7861-1.8213-4.6445-4.4658-4.6445-2.6426 0-4.4659 1.8564-4.4659 4.6445Zm32.8946-8.2529v16.5078h-4.3936v-6.5752h-7.2529v6.5752h-4.3584V18.4668h4.3584v5.9307h7.2529v-5.9307h4.3936Zm14.0556 16.5078-6.1806-7.8975v7.8975h-4.3584V18.4668h4.3584v6.8252l5.4316-6.8252h5.5733l-6.753 7.5039 7.6465 9.0039h-5.7178Zm23.4867-.0068c5.252 0 9.146-3.6084 9.146-8.7881s-3.894-8.7891-9.146-8.7891c-5.252 0-9.147 3.6094-9.147 8.7891 0 5.1797 3.895 8.7881 9.147 8.7881Zm-.002-4.1426c-2.68 0-4.644-1.8232-4.644-4.6455 0-2.8233 1.966-4.6445 4.644-4.6455 2.679 0 4.608 1.8222 4.608 4.6455 0 2.8223-1.929 4.6455-4.608 4.6455Zm24.48-.251v3.8604h-14.361v-3.5371l8.395-9.1114-8.366-.0019v-3.8574h13.726v3.5009l-8.468 9.1465h9.074Zm10.124 4.3936c5.252 0 9.147-3.6084 9.147-8.7881s-3.895-8.7891-9.147-8.7891c-5.252 0-9.146 3.6094-9.146 8.7891 0 5.1797 3.894 8.7881 9.146 8.7881Zm.002-4.1426c-2.681 0-4.645-1.8232-4.645-4.6455 0-2.8233 1.964-4.6445 4.645-4.6455 2.68 0 4.609 1.8222 4.609 4.6455 0 2.8223-1.929 4.6455-4.609 4.6455Zm27.043-6.5742v10.1816h-4.395v-9.1474c0-2.6797-1.25-3.8223-3.394-3.8223-2.252 0-3.859 1.3223-3.859 4.8945v8.0752h-4.359V17.9268h4.324v2.5019h.07c1.107-1.8935 2.965-3.0361 5.394-3.0361 3.575-.002 6.219 1.999 6.219 6.8584Z"/>
</svg>