<svg xmlns="http://www.w3.org/2000/svg" viewBox="0 0 200 50">
	<g fill="#009CDE">
		<path d="M139.267 13.0504h-8.159c-.557 0-1.032.4059-1.119.9571l-3.299 20.9202c-.065.4129.253.7862.671.7862h4.187c.39 0 .723-.2838.783-.67l.936-5.9307c.087-.5511.562-.957 1.12-.957h2.582c5.373 0 8.475-2.6009 9.286-7.7553.364-2.2544.014-4.0258-1.041-5.2659-1.161-1.3637-3.217-2.0846-5.947-2.0846zm.942 7.6405c-.446 2.9287-2.682 2.9287-4.846 2.9287h-1.231l.864-5.4679c.052-.3308.337-.5742.671-.5742h.565c1.472 0 2.864 0 3.58.8389.43.5024.559 1.2464.397 2.2745z"/>
		<path d="M163.653 20.5974h-3.906c-.335 0-.62.2435-.672.5742l-.172 1.0924-.273-.3957c-.847-1.228-2.732-1.6383-4.615-1.6383-4.316 0-8.003 3.2708-8.72 7.858-.374 2.2884.156 4.4757 1.454 6.0022 1.192 1.4025 2.893 1.9863 4.92 1.9863 3.479 0 5.409-2.2353 5.409-2.2353l-.175 1.0861c-.065.4129.254.7865.672.7865h3.518c.558 0 1.033-.4055 1.12-.9563l2.112-13.3739c.065-.4133-.254-.7862-.672-.7862zm-5.444 7.6042c-.378 2.232-2.149 3.7306-4.41 3.7306-1.133 0-2.04-.3644-2.623-1.0545-.578-.6839-.796-1.6585-.612-2.7439.352-2.2122 2.152-3.7592 4.378-3.7592 1.109 0 2.01.3678 2.605 1.0644.598.7015.833 1.6824.662 2.7626z"/>
		<path d="M168.258 13.625l-3.349 21.3031c-.065.4125.254.7858.672.7858h3.368c.558 0 1.032-.4056 1.12-.9567l3.301-20.9203c.066-.4128-.253-.7861-.671-.7861h-3.769c-.335-.0004-.62.2435-.672.5742zM52.4939 14.1465c.4393-2.8007-.0029-4.70599-1.5177-6.43233C49.3085 5.81403 46.2959 5 42.4413 5H31.2524c-.7876 0-1.4586.57312-1.5811 1.35159L25.0119 35.8958c-.0917.583.359 1.1099.9486 1.1099h6.9075l-.4767 3.0233c-.0803.5101.3135.971.8298.971h5.8226c.689 0 1.2756-.5013 1.3831-1.1822l.0572-.2963 1.0967-6.9552.0708-.3842c.1074-.6806.6941-1.1826 1.3831-1.1826h.8709c5.6406 0 10.0573-2.2914 11.3477-8.9188.5393-2.7691.2603-5.0807-1.1657-6.7058-.4309-.4906-.9677-.8969-1.5936-1.2284z"/>
	</g>
	<path fill="#012169" d="M52.4939 14.1465c.4393-2.8007-.003-4.70599-1.5177-6.43233C49.3085 5.81403 46.2959 5 42.4413 5H31.2524c-.7876 0-1.4586.57312-1.5811 1.35159L25.0119 35.8958c-.0917.583.359 1.1099.9486 1.1099h6.9075l1.7352-11.003-.054.3451c.1229-.7781.7877-1.3516 1.5757-1.3516h3.2832c6.4478 0 11.4966-2.6196 12.9714-10.1952.044-.2237.081-.4411.1144-.6545z"/>
	<g fill="#003087">
		<path d="M81.0767 13.0504h-8.1586c-.5578 0-1.0326.4059-1.1199.9571l-3.2994 20.9202c-.0649.4129.2541.7862.6722.7862h3.8956c.5577 0 1.0325-.4056 1.1198-.9567l.8903-5.644c.0869-.5511.5618-.957 1.1195-.957h2.5818c5.3741 0 8.4755-2.6009 9.2862-7.7553.3648-2.2544.0147-4.0258-1.0407-5.2659-1.1609-1.3637-3.2176-2.0846-5.9468-2.0846zm.9417 7.6405c-.4459 2.9287-2.6827 2.9287-4.8457 2.9287h-1.231l.8632-5.4679c.0524-.3308.337-.5742.6717-.5742h.5644c1.4726 0 2.8637 0 3.5806.8389.429.5024.5588 1.2464.3968 2.2745zM105.462 20.5974h-3.906c-.335 0-.62.2435-.672.5742l-.172 1.0924-.273-.3957c-.8464-1.228-2.7319-1.6383-4.6148-1.6383-4.3158 0-8.0032 3.2708-8.7207 7.858-.3737 2.2884.1565 4.4757 1.4542 6.0022 1.1921 1.4025 2.8935 1.9863 4.9205 1.9863 3.4787 0 5.4085-2.2353 5.4085-2.2353l-.1745 1.0861c-.0656.4129.2534.7865.6718.7865h3.518c.558 0 1.032-.4055 1.12-.9563l2.112-13.3739c.065-.4133-.254-.7862-.672-.7862zm-5.444 7.6042c-.3777 2.232-2.1499 3.7306-4.4101 3.7306-1.1331 0-2.0402-.3644-2.6233-1.0545-.5778-.6839-.7953-1.6585-.6119-2.7439.3516-2.2122 2.1524-3.7592 4.3781-3.7592 1.1092 0 2.0102.3678 2.6046 1.0644.5984.7015.8336 1.6824.6626 2.7626z"/>
		<path d="M126.27 20.5974h-3.927c-.376 0-.727.1867-.938.4972l-5.417 7.9775-2.295-7.6662c-.144-.4796-.586-.8089-1.086-.8089h-3.86c-.466 0-.794.4584-.644.8999l4.324 12.6915-4.067 5.7379c-.319.4506.003 1.0736.555 1.0736h3.923c.372 0 .72-.1822.932-.488l13.059-18.8471c.312-.4506-.011-1.0674-.559-1.0674z"/>
		<path d="M36.4674 14.1835c.0737-.4679.3743-.8514.7788-1.045.1837-.088.3894-.1372.6046-.1372h8.7707c1.0392 0 2.0079.0682 2.8935.2109.253.0407.4994.0876.7388.1408.2391.0532.4716.1122.6964.1782.1125.0326.2229.0675.3318.1034.4349.1445.8401.3146 1.2126.5123.4393-2.8008-.0029-4.70603-1.5177-6.43236C49.3085 5.81403 46.2959 5 42.4413 5H31.2524c-.7876 0-1.4586.57312-1.5811 1.35159L25.0119 35.8958c-.0917.583.359 1.1099.9486 1.1099h6.9075l1.7352-11.003 1.8642-11.8192z"/>
	</g>
</svg>
