<svg xmlns="http://www.w3.org/2000/svg" viewBox="0 0 200 50">
	<path fill="#333" d="M141.5 8.1c.5 0 1-.1 1.4-.4.3-.3.5-.8.5-1.2h-.5c0 .3-.2.6-.4.9-.1.1-.2.2-.4.2-.1.1-.3.1-.5.1s-.4 0-.6-.1c-.2-.1-.3-.2-.5-.4-.3-.4-.4-.8-.4-1.2 0-.4.1-.8.4-1.2.1-.2.3-.3.5-.4.2-.1.4-.1.6-.1.3 0 .5.1.8.2.2.2.4.4.4.6h.6c0-.2-.1-.4-.2-.6-.1-.2-.2-.3-.4-.5-.4-.2-.8-.4-1.2-.3-.3 0-.5 0-.8.1-.3.1-.5.3-.7.5-.4.4-.5 1-.5 1.5 0 .6.2 1.1.5 1.6.4.5.9.7 1.4.7zM129 10.8v-.4h-2.9v4.1h2.9V14h-2.3v-1.4h2.2v-.5h-2.2v-1.3zM109.6 6.3h1.2c1 0 1.4-.4 1.4-1.2 0-.2 0-.3-.1-.5s-.2-.3-.3-.4c-.3-.2-.7-.3-1-.3h-1.7V8h.6V6.3zm0-1.9l1 .1h.4c.1 0 .2.1.3.1.1.1.2.1.2.2.1.1.1.3.1.4 0 .1 0 .2-.1.3 0 .1-.1.2-.2.2-.2.1-.5.2-.7.2h-1V4.4zM101.8 4.4h2.2V8h.5V3.9h-3.3V8h.6zM144.5 10.1c.2 0 .4-.1.6-.2.2-.2.3-.4.3-.6h-.3c0 .1-.1.2-.2.3-.1.1-.2.1-.4.1-.1 0-.3 0-.4-.1-.1-.1-.2-.2-.2-.3h-.3c0 .2.1.4.3.6.2.2.4.2.6.2zM108.4 7.6H106V6.1h2.2v-.4H106V4.4h2.4v-.5h-2.9V8h2.9zM105.6 13.1l.7-.7 1.5 2.1h.7l-1.8-2.5 1.7-1.6h-.7l-2.1 2v-2h-.6v4.1h.6zM116.2 6.8c0-.2-.1-.5-.2-.7-.1-.2-.4-.3-.6-.4.2-.1.3-.2.5-.3.1-.2.2-.4.2-.6 0-.2 0-.3-.1-.4-.1-.1-.2-.3-.3-.3-.3-.2-.6-.3-1-.2h-1.8V8h1.7c1 0 1.6-.4 1.6-1.2zm-2.8-2.3h1.7c.1 0 .2 0 .2.1.1 0 .1.1.1.2v.3c0 .1 0 .2-.1.3 0 .1-.1.1-.2.2-.1 0-.2.1-.2.1h-1.6V4.5zm0 1.6h1.6c.1 0 .2 0 .3.1l.2.1c.1.1.1.1.1.2v.3c0 .1 0 .2-.1.4 0 .1-.1.2-.2.2-.1.1-.2.1-.3.1h-1.7V6.1zM141.4 10.4h.5v4.2h-.5zM122.4 10.4h-.5v4.1h.5v-1.9h2.2v1.9h.6v-4.1h-.6v1.7h-2.2zM125.5 6.3h1.2c1 0 1.4-.4 1.4-1.2 0-.2 0-.3-.1-.5s-.2-.3-.3-.4c-.3-.2-.7-.3-1-.3H125V8h.5V6.3zm0-1.9l1 .1h.4c.1 0 .2.1.3.1.1 0 .2.1.2.2.1.1.1.3.1.4 0 .1 0 .2-.1.3 0 .1-.1.2-.2.2-.2.1-.4.2-.7.2h-1V4.4zM128.4 8l.5-1.3h1.8l.5 1.3h.6c.1 0 .2.1.3.1.1 0 .3 0 .4-.1l.3-.3c.2-.3.3-.7.3-1l.1-2.3h1.6V8h.5V3.9l-2.7.1-.1 2.5c0 .3 0 .5-.1.8 0 .1-.1.2-.2.3-.1.1-.2.1-.3.1-.1 0-.2 0-.3-.1v.3l-1.6-4h-.6L127.8 8h.6zm1.3-3.6l.7 1.9H129l.7-1.9zM122.3 7.1c-.2.4-.4.6-.6.6-.2 0-.3 0-.5-.1V8c.2.1.3.1.5.1s.4-.1.6-.2c.2-.2.4-.5.5-.7l1.6-3.3h-.6l-1.2 2.5-1.2-2.5h-.6l1.5 3.1v.1zM117.1 7.5c.2.2.4.4.6.5.3.1.6.2.9.2.3 0 .6 0 .8-.1.3-.1.5-.3.7-.5.4-.4.5-1 .5-1.6 0-.6-.2-1.1-.5-1.5-.2-.2-.4-.4-.7-.5-.3-.1-.5-.1-.8-.1-.3 0-.5 0-.8.1-.3.1-.5.2-.7.4-.4.4-.6 1-.5 1.5 0 .3 0 .6.1.9.1.2.3.5.4.7zm.5-2.7c.1-.2.3-.3.5-.4.2-.1.4-.1.6-.1.2 0 .4 0 .6.1.2.1.3.2.5.4.3.3.4.8.4 1.2 0 .4-.1.9-.4 1.2-.1.2-.3.3-.5.4-.2.1-.4.1-.6.1-.2 0-.4 0-.6-.1-.2-.1-.3-.2-.5-.4-.3-.4-.4-.8-.4-1.3 0-.4.1-.8.4-1.1zM138.4 8c.2-.1.3-.1.4-.3.1-.1.2-.3.3-.4.1-.2.1-.3.1-.5s0-.3-.1-.5-.2-.3-.3-.4c-.1-.1-.3-.2-.4-.3-.2-.1-.3-.1-.5-.1h-1.3V3.9h-.6V8h2.4zm-1.7-.4V6h1c.6 0 .9.3.9.8s-.3.8-1 .8h-.9zM116.5 14.5v-4.1h-.7l-2.1 3.5v-3.5h-.5v4.1h.6l2.1-3.5v3.5zM138.3 10.4h-.6v4.2h1.8c.2 0 .3 0 .5-.1s.3-.1.4-.3c.1-.1.2-.3.3-.4.1-.2.1-.3.1-.5v-.1c0-.2 0-.3-.1-.5 0-.2-.1-.3-.2-.4-.1-.1-.3-.2-.4-.3-.2-.1-.3-.1-.5-.1h-1.3v-1.5zm1.1 2.2c.6 0 .9.3.9.7 0 .5-.3.7-.9.8h-1v-1.5h1zM153.3 3.4c.2.2.4.2.6.2h.3c.1 0 .2-.1.3-.2.2-.2.3-.4.3-.6h-.3c0 .1-.1.2-.2.3-.1.1-.2.1-.4.1-.1 0-.3 0-.4-.1-.1-.1-.2-.2-.2-.3h-.3c0 .1 0 .2.1.3.1.1.1.2.2.3zM137.2 20.3c-.1.1-.2.2-.4.2-.1.1-.3.1-.5.1s-.4 0-.6-.1c-.2-.1-.3-.2-.5-.4-.3-.4-.4-.8-.4-1.2 0-.4.1-.8.4-1.2.1-.2.3-.3.5-.4.2-.1.4-.1.6-.1.3 0 .5.1.8.2.2.2.4.4.4.6h.6c0-.2-.1-.4-.2-.6-.1-.2-.2-.3-.4-.4-.3-.2-.7-.4-1.2-.4-.3 0-.5 0-.8.1-.3.1-.5.3-.7.5-.4.4-.5 1-.5 1.5 0 .6.2 1.1.5 1.6.4.3.8.6 1.3.6s1-.1 1.4-.4c.3-.3.5-.8.5-1.2h-.5c.1.4 0 .7-.3 1zM142.2 16.8h-.7l-2.1 2.1v-2.1h-.6V21h.6v-1.5l.7-.6 1.5 2.1h.7l-1.9-2.5zM136.2 14.6h.6v-4.2h-.6v1.7h-2.1v-1.7h-.6v4.1h.6v-1.9h2.1zM101.8 13.2h1.8l.5 1.3h.6l-1.6-4.2h-.6l-1.6 4.2h.6l.3-1.3zm.9-2.3l.7 1.9H102l.7-1.9zM131.6 19h2.2v-.4h-2.2v-1.3h2.3v-.5H131V21h2.9v-.5h-2.3zM132.9 11.6c0-.2 0-.3-.1-.5s-.2-.3-.3-.4c-.3-.2-.7-.3-1-.3h-1.7v4.2h.6v-1.7h1.2c.8-.1 1.3-.5 1.3-1.3zm-2.6.7v-1.5h1.4c.1 0 .2.1.3.1.1 0 .2.1.2.2.1.1.1.3.1.4v.3c0 .1-.1.2-.2.3-.2.1-.5.2-.7.2h-1.1zM149 16.5c.1 0 .2-.1.3-.2.2-.2.3-.4.3-.6h-.3c0 .1-.1.2-.2.3-.1.1-.2.1-.4.1-.1 0-.3 0-.4-.1-.1-.1-.2-.2-.2-.3h-.3c0 .2.1.4.3.6.2.2.4.2.6.2 0 .1.2.1.3 0zM129.5 16.8v1.8c-.4.1-.8.1-1.1.1-.1 0-.3 0-.4-.1-.1 0-.2-.1-.3-.1-.1-.1-.1-.1-.1-.2s-.1-.1-.1-.2v-1.3h-.5v1.5c0 .1.1.2.1.3.1.1.1.2.2.3.1.1.3.2.4.2.2.1.4.1.6.1.4 0 .8-.1 1.2-.1V21h.6v-4.1h-.6zM148.6 7.4V3.9h-.6V8h.7l2.1-3.5V8h.6V3.9h-.7zM154.9 3.9l-2.1 3.5V3.9h-.5V8h.7l2.1-3.5V8h.5V3.9zM147.5 20.3v-3.5h-.5V21h.6l2.1-3.5V21h.6v-4.2h-.7zM143.4 13.9v-3.5h-.5v4.1h.7l2.1-3.5v3.5h.5v-4.1h-.7zM145.7 5.5l1.8-1.6h-.7L144.7 6V3.9h-.6v4.2h.6V6.6l.7-.7 1.5 2.1h.7zM143.3 20.3v-3.5h-.6V21h.7l2.1-3.5V21h.6v-4.2h-.7zM107.6 16.9c-.3-.1-.5-.1-.8-.1-.3 0-.5 0-.8.1-.2.1-.5.3-.7.4-.4.4-.6 1-.5 1.5 0 .3 0 .6.1.9.1.3.2.5.4.7.2.2.4.4.6.5.3.1.6.2.9.2.3 0 .6 0 .8-.1.3-.1.5-.3.7-.5.4-.4.5-1 .5-1.6 0-.6-.2-1.1-.5-1.5-.2-.3-.4-.4-.7-.5zm.3 3.2c-.1.2-.3.3-.5.4-.2.1-.4.1-.6.1-.2 0-.4 0-.6-.1-.2-.1-.3-.2-.5-.4-.3-.4-.4-.8-.4-1.2 0-.4.1-.9.4-1.2.1-.2.3-.3.5-.4.2-.1.4-.1.6-.1.2 0 .4 0 .6.1.2.1.3.2.5.3.3.4.4.8.4 1.3s-.2.9-.4 1.2zM111.8 25h-2.2v-1.7h-.6v4.1h.6v-1.9h2.2v2h.6v-4.2h-.6zM106.4 23.3l-1.6 4.2h.6l.5-1.3h1.7l.5 1.3h.6l-1.6-4.2h-.7zm-.4 2.5l.7-1.9.7 1.9H106zM112.1 15.6h.5V14h-.5v-3.6h-.4V14h-2.2v-3.6h-.5v4.1h3.1zM126.1 17.1c-.3-.2-.7-.3-1-.3h-1.7v4.1h.6v-1.7h1.2c.9 0 1.4-.4 1.4-1.2 0-.2 0-.3-.1-.5-.2-.1-.3-.3-.4-.4zm-.3 1.3c0 .1-.1.2-.2.3-.2.1-.5.2-.7.2h-1v-1.5h1.3c.1 0 .2 0 .3.1.1 0 .2.1.2.2.1.1.1.3.1.4.1.1.1.2 0 .3zM104.6 16.8h-.7l-2.1 2.1v-2.1h-.6V21h.6v-1.5l.7-.6L104 21h.7l-1.8-2.5zM104.1 25.3c-.3-.2-.6-.3-.9-.3h-1.4v-1.2h2.3v-.5h-2.9v4.2h1.9c.2 0 .3 0 .5-.1s.3-.1.4-.3c.1-.1.2-.3.3-.4s.1-.3.1-.5 0-.3-.1-.5c0-.1-.1-.3-.2-.4zM103 27h-1.2v-1.5h1.2c.6 0 .9.2.9.8h.1c-.1.4-.4.7-1 .7zM119.7 21h2.9v-.5h-2.3v-1.4h2.2v-.5h-2.2v-1.3h2.3v-.5h-2.9zM113.7 21v-4.2h-.8l-1.3 3.5-1.3-3.5h-.8V21h.5v-3.5l1.4 3.5h.5l1.3-3.5V21zM120.7 14c.4-.4.5-1 .5-1.6 0-.6-.2-1.1-.5-1.6-.2-.2-.4-.4-.7-.5-.3-.1-.5-.1-.8-.1-.3 0-.5 0-.8.2-.3.1-.5.3-.7.5-.4.4-.6 1-.5 1.5 0 .3 0 .6.1.9.1.3.2.5.4.7.2.2.4.4.6.5.3.1.6.2.9.2.3 0 .6 0 .8-.1.3-.2.5-.4.7-.6zm-1.5.1c-.2 0-.4 0-.6-.1-.2-.1-.3-.2-.5-.3-.3-.4-.4-.8-.4-1.2 0-.4.1-.9.4-1.2.1-.2.3-.3.5-.4.2-.1.4-.1.6-.1.2 0 .4 0 .6.1.2.1.3.2.5.4.3.3.4.8.4 1.2 0 .4-.1.9-.4 1.2-.1.1-.3.3-.5.3-.2.1-.4.1-.6.1zM116.7 20.3l-1.3-3.5h-.8V21h.5v-3.5l1.4 3.5h.5l1.3-3.5V21h.5v-4.2h-.8zM116.7 23.3h-.8l-2.1 2.1v-2.1h-.5v4.2h.5V26l.7-.6 1.5 2h.7l-1.8-2.4z"/>
	<path fill="#19b5ff" d="M96.6 24.2c-.3-1.3-1-2.5-1.9-3.5-1.1 1.4-2.6 2.5-4.4 2.9v.1c.6.8.9 1.8.8 2.8.1.8-.1 1.5-.4 2.2-.3.7-.8 1.3-1.5 1.7-1.8 1.2-4.6 1.3-5.9 1.3H77V21.4h6.2c5.6 0 11.9-2.6 11.9-9.9C95.4 1.9 84.3 2 83 2H72.2c-.3 0-.5.1-.7.3-.2.2-.3.4-.3.7v33.1c0 .1 0 .2.1.3.1.1.1.2.2.3.1.1.2.1.3.2.1 0 .2.1.4 0h11.9c1.8 0 3.7-.2 5.5-.7 1.4-.4 2.8-1.1 4-2 1.1-.9 1.9-2 2.5-3.2.6-1.4.9-2.9.9-4.4-.1-.8-.2-1.6-.4-2.4zM77.1 7.1h5.5c1.8-.1 3.5.3 5.1 1.1.6.4 1 .9 1.3 1.5.3.6.4 1.3.4 2s-.1 1.4-.4 2c-.3.6-.7 1.1-1.3 1.5-1.6 1-3.2 1.1-5.1 1.1h-5.5V7.1zM45.6 36.9c.1 0 .2.1.4.1h4c.1 0 .3 0 .4-.1.1 0 .2-.1.3-.2.2-.2.3-.4.3-.7V24.2h5c1.9 0 3.7-.2 5.5-.7 1.5-.4 2.9-1.2 4.2-2.1 1.2-.9 2.1-2.1 2.7-3.5.7-1.5 1-3.1.9-4.8 0-1.6-.3-3.2-.9-4.7-.6-1.4-1.5-2.6-2.7-3.5-1.2-1-2.7-1.7-4.2-2.1-1.8-.6-3.6-.8-5.5-.8H45.9c-.1 0-.3 0-.4.1-.1.1-.2.1-.3.2-.1.2-.2.4-.2.7v33c0 .2.1.5.3.7.1 0 .2.1.3.2zm5.3-29.8h4.6c2.6 0 4.6.5 5.9 1.4 1.3.9 1.9 2.5 1.9 4.6 0 2.1-.7 3.6-1.9 4.6-1.3 1-3.3 1.4-5.9 1.4h-4.6v-12zM93.8 40l-.1-.1H45.3c-.2 0-.3.1-.3.3 0 .2.1.3.3.3L93.5 48h.1s.1 0 .1-.1l.1-.1v-7.5-.1-.2z"/>
</svg>
