<svg version="1.1" id="Layer_1" xmlns="http://www.w3.org/2000/svg" x="0" y="0" viewBox="0 0 200 50" style="enable-background:new 0 0 200 50" xml:space="preserve">
  <style>
    .st1{fill:#19b5ff}
  </style>
  <path d="m115.9 23.4-1.8 1.7 1.8 2.5h-.7l-1.5-2.1-.7.7v1.4h-.6v-4.2h.6v2.1l2.1-2.1h.8zm-4.3 0v4.2h-.6v-2h-2.2v1.9h-.6v-4.2h.6V25h2.2v-1.7h.6v.1zm-5 2.4-.7-1.9-.7 1.9c0 .1 1.4 0 1.4 0zm-.4-2.4 1.6 4.2h-.6l-.5-1.3H105l-.5 1.3h-.5l1.6-4.2h.6zm-3.1 2.9c0-.5-.3-.8-.9-.8H101V27h1.2c.6.1.9-.2.9-.7zm-2.1-1.2h1.4c.3 0 .7.1.9.3.1.1.2.3.3.4.1.2.1.3.1.5s0 .3-.1.5-.2.3-.3.4c-.1.1-.3.2-.4.3s-.3.1-.5.1h-1.9v-4.2h2.9v.5H101v1.2zm45.3-4.1v-4.2h.6v3.5l2.1-3.5h.7V21h-.6v-3.5L147 21h-.7zm2.6-5.2c0 .2-.1.4-.3.6-.1.1-.2.1-.3.2-.1 0-.2.1-.3 0-.2 0-.4-.1-.6-.2-.2-.2-.3-.4-.3-.6h.3c0 .1.1.3.2.3.1.1.2.1.4.1.1 0 .3 0 .4-.1.1-.1.2-.2.2-.3h.3zm-6.8 5.2v-4.2h.6v3.5l2.1-3.5h.7V21h-.6v-3.5l-2.1 3.5h-.7zm-.5-4.1-1.8 1.7 1.8 2.5h-.7l-1.5-2.1-.7.7v1.4h-.5v-4.2h.6V19l2.1-2.1h.7zm-4.1 2.6c0 .5-.2.9-.5 1.2-.4.3-.9.5-1.4.4s-1-.2-1.3-.6c-.4-.4-.6-1-.5-1.6 0-.6.2-1.1.5-1.6.2-.2.4-.4.7-.5s.5-.2.8-.1c.4 0 .8.1 1.2.4.2.1.3.3.4.4.1.2.2.4.2.6h-.6c-.1-.3-.2-.5-.4-.6-.2-.2-.5-.2-.8-.2-.2 0-.4 0-.6.1-.2.1-.3.2-.5.4-.2.4-.4.8-.4 1.2 0 .4.1.9.4 1.3.1.2.3.3.5.4s.4.1.6.1c.2 0 .3 0 .5-.1.1-.1.3-.1.4-.2.2-.2.4-.6.4-.9l.4-.1zm-4.2-2.6v.5h-2.4v1.3h2.2v.5h-2.2v1.4h2.4v.4h-2.9v-4.2l2.9.1zm-3.9 4.1h-.6v-1.8c-.4.1-.8.1-1.2.1-.2 0-.4 0-.6-.1-.2 0-.3-.1-.4-.2s-.2-.2-.2-.3c-.1-.1-.1-.2-.1-.3v-1.5h.6v1.4c0 .1 0 .1.1.2 0 .1.1.1.1.2.1.1.2.1.3.1.1 0 .3.1.4.1.4 0 .8 0 1.1-.1V17h.6c-.1-.1-.1 4-.1 4zm-6.2-3.6v1.5h1.1c.2 0 .5 0 .7-.2.1-.1.2-.2.2-.3 0-.1.1-.2 0-.3 0-.2 0-.3-.1-.4 0-.1-.1-.2-.2-.2-.1-.1-.2-.1-.3-.1h-1.4zm-.6-.5h1.7c.4 0 .7.1 1.1.3.1.1.2.2.3.4.1.2.1.3.1.5 0 .8-.5 1.3-1.4 1.3h-1.2V21h-.6v-4.1zm-.7 0v.5h-2.4v1.3h2.2v.5h-2.2v1.4h2.4v.4H119v-4.2c0 .1 2.9.1 2.9.1zm-8 0h.8l1.4 3.5 1.3-3.5h.8v4.2h-.5v-3.5l-1.3 3.5h-.5l-1.3-3.5V21h-.5c-.2 0-.2-4.1-.2-4.1zm-5.2 0h.8l1.3 3.5 1.3-3.5h.8v4.2h-.5v-3.5l-1.3 3.5h-.5l-1.4-3.5V21h-.5v-4.1zm-2.7.4c-.2 0-.4 0-.6.1s-.3.2-.5.4c-.3.3-.4.8-.4 1.2 0 .4.1.9.4 1.2.1.2.3.3.5.4s.4.1.6.1.4 0 .6-.1.3-.2.5-.4c.3-.4.4-.8.4-1.2 0-.5-.1-.9-.4-1.3-.1-.1-.3-.3-.5-.3-.2-.1-.4-.1-.6-.1zm0-.5c.3 0 .6 0 .8.1.3.1.5.3.7.5.4.4.6 1 .5 1.6 0 .6-.2 1.1-.5 1.6-.2.2-.4.4-.7.5-.3.1-.5.2-.8.1-.3 0-.6-.1-.9-.2-.2-.1-.5-.3-.6-.5-.2-.2-.3-.5-.4-.7-.1-.3-.1-.6-.1-.9 0-.6.2-1.1.5-1.6.2-.2.4-.3.7-.4.3-.1.5-.1.8-.1zm-2.2.1-1.8 1.7 1.8 2.5h-.7l-1.5-2.1-.7.7v1.4h-.6v-4.2h.6V19l2.1-2.1h.8zm38.4-2.3v-4.2h.6v3.5l2.1-3.5h.7v4.2h-.6V11l-2.1 3.5h-.7v.1zm2.6-5.3c0 .2-.1.4-.3.6-.2.1-.4.2-.6.2-.2 0-.4-.1-.6-.2-.2-.1-.3-.4-.3-.6h.3c0 .1.1.2.2.3.1.1.2.1.4.1.1 0 .3 0 .4-.1.1-.1.2-.2.2-.3h.3zm-5.1 4.1c0-.5-.3-.8-.9-.8h-1.1v1.5h1.1c.5 0 .9-.3.9-.7zm.5 0c0 .2 0 .3-.1.5s-.1.3-.3.4c-.1.1-.3.2-.4.3-.2.1-.3.1-.5.1h-1.8v-4.2h.6v1.7h1.3c.2 0 .3 0 .5.1s.3.1.4.3c.1.1.2.3.2.4.1 0 .1.1.1.4zm.5-3h.5v4.2h-.5v-4.2zm-4.6 0v4.2h-.6v-2h-2.2v2h-.6v-4.2h.6v1.7h2.2v-1.7h.6zm-6.5.5v1.5h1.1c.3 0 .5 0 .7-.2.1-.1.2-.2.2-.3s.1-.2.1-.3 0-.3-.1-.4c0-.1-.1-.2-.2-.2-.1-.1-.2-.1-.3-.1h-1.5zm-.6-.5h1.7c.4 0 .7.1 1.1.3.1.1.2.2.3.4s.1.3.1.5c0 .8-.5 1.3-1.4 1.3h-1.2v1.7h-.6v-4.2zm-.7 0v.5H126v1.3h2.3v.5H126v1.4h2.4v.5h-2.9v-4.2h2.8zm-3.8 0v4.2h-.5v-2h-2.2v2h-.5v-4.2h.5v1.7h2.2v-1.7h.5zm-6.1.4c-.2 0-.4 0-.6.1s-.3.2-.5.4c-.3.3-.4.8-.4 1.2s.1.9.4 1.2c.1.1.3.3.5.3.2.1.4.1.6.1s.4 0 .6-.1.3-.2.5-.3c.3-.4.4-.8.4-1.2s-.1-.9-.4-1.2c-.1-.2-.3-.3-.5-.4-.2-.1-.4-.1-.6-.1zm0-.5c.3 0 .6 0 .8.1.3.1.5.3.7.5.4.4.6 1 .5 1.6 0 .6-.2 1.1-.5 1.6-.2.2-.4.4-.7.5-.3.1-.5.2-.8.1-.3 0-.6-.1-.9-.2-.2-.1-.5-.3-.6-.5-.2-.2-.3-.5-.4-.7-.1-.3-.1-.6-.1-.9 0-.6.2-1.1.5-1.6.2-.2.4-.4.7-.5h.8zm-6 4.3v-4.2h.6v3.5l2.1-3.5h.7v4.2h-.6V11l-2.1 3.5c0 .1-.7.1-.7.1zm-1 1v-1h-3.2v-4.2h.5v3.7h2.2v-3.7h.4v3.7h.5v1.5h-.4zm-3.8-5.2-1.8 1.7 1.8 2.5h-.6l-1.5-2.1-.7.7v1.4h-.5v-4.2h.5v2.1l2.1-2.1h.7zm-5 2.4-.7-1.9-.7 1.9h1.4zm-.4-2.4 1.6 4.2h-.6l-.5-1.3H101l-.5 1.3h-.6l1.7-4.2h.6zm49.4-2.3V3.9h.6v3.5l2.1-3.5h.7v4.2h-.6V4.5L152.3 8l-.7.1zm2.6-5.3c0 .2-.1.4-.3.6-.1.1-.2.1-.3.2s-.2.1-.3 0c-.2 0-.4-.1-.6-.2-.1-.1-.2-.2-.2-.3-.1-.1-.1-.2-.1-.3h.3c0 .1.1.3.2.3.1.1.2.1.4.1.1 0 .3 0 .4-.1.1-.1.2-.2.2-.3h.3zm-6.8 5.3V3.9h.6v3.5l2.1-3.5h.7v4.2h-.6V4.5L148.1 8l-.7.1zm-.5-4.2-1.8 1.7 1.8 2.5h-.7L144.7 6l-.7.6v1.5h-.5V3.9h.5V6l2.1-2.1h.8zm-4.1 2.6c0 .5-.2.9-.5 1.2-.4.3-.9.5-1.4.4-.5 0-1-.2-1.3-.6-.4-.4-.6-1-.5-1.6 0-.6.2-1.1.5-1.6.2-.2.4-.4.7-.5s.5-.2.8-.1c.4 0 .9.1 1.2.3.2.1.3.3.4.5.1.2.2.4.2.6h-.6c0-.3-.2-.5-.4-.6-.2-.2-.5-.2-.8-.2-.2 0-.4 0-.6.1-.2.1-.3.2-.5.4-.2.4-.4.8-.4 1.2 0 .4.1.9.4 1.3.1.2.3.3.5.4s.4.1.6.1c.2 0 .3 0 .5-.1.1-.1.3-.1.4-.2.2-.2.4-.6.4-.9l.4-.1zm-4.8.3c0-.5-.3-.8-.9-.8H136v1.5h1.1c.6.1.9-.2.9-.7zm.5 0c0 .2 0 .3-.1.5s-.1.3-.3.4c-.1.1-.3.2-.4.3-.2.1-.3.1-.5.1h-1.8V3.9h.6v1.7h1.3c.2 0 .3 0 .5.1s.3.1.4.3c.1.1.2.3.3.4 0 .1.1.2 0 .4.1 0 0 0 0 0zm-4-2.9v4.2h-.5V4.4h-1.6l-.1 2.3c0 .4-.1.7-.3 1 0 .2-.1.3-.3.3-.1.1-.3.1-.4.1-.1 0-.3 0-.4-.1v-.4c.1 0 .2.1.3.1s.2 0 .3-.1.1-.2.2-.3c.1-.3.1-.5.1-.8l.1-2.5 2.6-.1zm-4.8 2.4-.7-1.9-.7 1.9h1.4zm-.4-2.4 1.6 4.2h-.6l-.5-1.3H128l-.5 1.3h-.6l1.7-4.2h.7zm-4.5.5v1.5h1.1c.2 0 .5 0 .7-.2.1-.1.2-.1.2-.2s.1-.2.1-.3c0-.1 0-.3-.1-.4 0-.1-.1-.2-.2-.2-.1-.1-.2-.1-.3-.1h-.4c-.1-.1-1.1-.1-1.1-.1zm-.6-.5h1.7c.4 0 .7.1 1.1.3.1.1.2.2.3.4.1.2.1.3.1.5 0 .8-.5 1.3-1.4 1.3h-1.2v1.7h-.5l-.1-4.2zM121.7 7l-1.5-3.1h.6l1.2 2.5 1.2-2.5h.6l-1.6 3.3c-.1.3-.3.5-.5.7-.2.1-.4.2-.6.2s-.4 0-.5-.1v-.4c.1.1.3.1.5.1s.4-.2.6-.7c-.1.1 0 0 0 0zm-3.8-2.7c-.2 0-.4 0-.6.1s-.3.2-.5.4c-.3.3-.4.8-.4 1.2 0 .5.1.9.4 1.3.1.2.3.3.5.4s.4.1.6.1.4 0 .6-.1.3-.2.5-.4c.3-.4.4-.8.4-1.2 0-.4-.1-.9-.4-1.2-.1-.2-.3-.3-.5-.4-.2-.2-.4-.2-.6-.2zm0-.5c.3 0 .6 0 .8.1.3.1.5.3.7.5.4.4.6 1 .5 1.6 0 .6-.2 1.1-.5 1.6-.2.2-.4.4-.7.5-.3.1-.5.2-.8.1-.3 0-.6-.1-.9-.2-.2-.1-.5-.3-.6-.5-.2-.2-.3-.5-.4-.7-.1-.3-.1-.6-.1-.9 0-.6.2-1.1.5-1.6.2-.2.4-.3.7-.4.3-.1.5-.1.8-.1zm-5.3 2.3v1.5h1.7c.1 0 .2-.1.3-.1l.2-.2c0-.1.1-.2.1-.4v-.3c0-.1-.1-.2-.1-.2l-.2-.1c-.1 0-.2-.1-.3-.1l-1.7-.1zm0-1.7v1.3h1.6c.1 0 .2-.1.2-.1l.2-.2c0-.1.1-.2.1-.3v-.3c0-.1-.1-.1-.1-.2-.1-.1-.1-.1-.2-.1h-.3l-1.5-.1c0 .1 0 0 0 0zm-.5-.5h1.8c.3 0 .7.1 1 .2l.3.3c.1.1.1.3.1.4 0 .2-.1.4-.2.6s-.3.3-.5.3c.2 0 .5.2.6.4.1.2.2.4.2.7 0 .8-.5 1.2-1.6 1.2h-1.7V3.9zm-3.2.5v1.5h1.1c.2 0 .5 0 .7-.2l.2-.2c0-.1.1-.2.1-.3 0-.1 0-.3-.1-.4s-.1-.2-.2-.2c-.1-.1-.2-.1-.3-.1h-.4l-1.1-.1zm-.6-.5h1.7c.4 0 .7.1 1.1.3.1.1.2.2.3.4.1.2.1.3.1.5 0 .8-.5 1.3-1.4 1.3h-1.2v1.7h-.6V3.9zm-.7 0v.5h-2.3v1.3h2.2v.5h-2.2v1.4h2.4v.5h-2.9V3.9h2.8zm-3.9 0v4.2h-.6V4.4H101v3.7h-.6V3.9h3.3z" style="fill:#333"/>
  <path class="st1" d="M95.8 24.3c-.3-1.3-1-2.5-1.9-3.5-1.1 1.4-2.6 2.5-4.4 2.9v.1c.6.8.9 1.8.8 2.8.1.8-.1 1.5-.4 2.2-.3.7-.8 1.3-1.5 1.8-1.8 1.2-4.7 1.3-5.9 1.3h-6.3V21.5h6.2c5.6 0 11.9-2.6 12-10C94.6 1.9 83.5 2 82.2 2H71.3c-.3 0-.5.1-.7.3-.2.2-.3.4-.3.7v33.3c0 .1 0 .2.1.3.1.1.1.2.2.3.1.1.2.1.3.2.1 0 .2.1.4 0h12c1.9 0 3.7-.2 5.5-.7 1.4-.4 2.8-1.1 4-2 1.1-.9 1.9-2 2.5-3.2.6-1.4.9-2.9.9-4.4-.1-.9-.2-1.7-.4-2.5zM76.2 7.1h5.5c1.8-.1 3.5.3 5.1 1.1.6.4 1 .9 1.3 1.5.3.6.4 1.3.4 2s-.1 1.4-.4 2c-.3.6-.7 1.1-1.3 1.5-1.6 1-3.2 1.1-5.1 1.1h-5.5V7.1zM44.6 37c.1.1.2.1.4.1h4c.1 0 .3 0 .4-.1.1-.1.2-.1.3-.2.2-.2.3-.4.3-.7V24.3h5.2c1.9 0 3.7-.2 5.5-.7 1.5-.4 3-1.2 4.2-2.1 1.2-.9 2.1-2.1 2.7-3.5.7-1.5 1-3.1 1-4.8 0-1.6-.3-3.2-1-4.7-.6-1.4-1.5-2.6-2.7-3.5-1.2-1-2.7-1.7-4.2-2.2-1.9-.6-3.8-.8-5.6-.8H45c-.1 0-.3 0-.4.1-.1.1-.2.1-.3.2-.2.2-.3.4-.3.7v33.1c0 .2.1.5.3.7.1.1.2.1.3.2zm5.3-29.9h4.7c2.6 0 4.6.5 5.9 1.4s2 2.5 2 4.6c0 2.1-.7 3.7-2 4.6-1.3 1-3.3 1.4-5.9 1.4h-4.7v-12zM92.8 40.1H44.3c-.2 0-.3.1-.3.3 0 .2.1.3.3.3l48.4 7.5h.1s.1 0 .1-.1l.1-.1v-7.8l-.1-.1h-.1z"/>
</svg>
