<svg xmlns="http://www.w3.org/2000/svg" viewBox="0 0 200 50">
	<g fill="#E96B29">
		<path d="M70.234 22.0792c0-.7367.823-1.5353 1.5353-1.5353h4.4148c.7462 0 1.2279.5005 1.526.9617l.105 1.151v6.2389c-.0019.7798.0544.9673-.3393 1.2485-.2119.1518-.5249.2324-1.1004.1912-1.8353.0131-3.6725.0356-5.5021.0169-.7874-.0075-.5737-.3618-.6412-1.0742v-7.1987h.0019zm-6.2932 4.9229c.7536-.0094 1.5072-.0188 2.2608-.0281.7499-.0094.6636.2793.6805.553.0825 1.3497.1087 3.3369.568 4.2611.3319.6673.8661 1.136 1.3648 1.4266.5961.3487 1.0554.4799 1.8971.4799h6.5276c2.482 0 4.128-2.3808 4.128-4.9922v-7.3918c0-.7142-.4368-1.7153-.6712-2.1127-.3618-.6111-.8473-1.2973-1.8634-1.7922-.3674-.1799-.9954-.1762-1.5916-.2231h-6.1432c-1.4266 0-2.1258.1425-3.05 1.2692-.5324.6486-1.1717 1.5709-1.1136 2.9657.0281.6805.06 2.0265-.2062 2.034l-2.3489.0656c-.4537 0-.7686.1106-.7686-.2887v-5.2771c0-.3769-.4743-.48-.8643-.48h-1.7284c-.3899 0-.8642.1031-.8642.48V32.926c0 .3768.4743.4799.8642.4799h1.7284c.6655 0 .8643-.1987.8643-.8642.0224-1.7135.0224-3.4269.0693-5.1384.0094-.3525.1012-.3993.2606-.4012zM86.1686 22.2726c.0318-.8811.2962-1.1154 1.361-1.3273.4499-.0899 2.0115-.0168 2.5757-.0168 1.0517 0 4.7035.3768 4.7035-.5756v-2.3995c0-.3768-.4743-.4799-.8642-.4799h-5.8545c-3.4044 0-5.3746 1.5841-5.3746 4.9922v6.1432c0 2.3283 1.0479 5.0278 4.2235 4.8966h7.2943c.2306 0 .5755-.3449.5755-.5755v-2.3996c0-.2718-.2193-.3711-.3843-.4799h-5.0878c-1.9309 0-3.1681.165-3.1681-1.824v-5.9539zM49.7085 23.2981c.2174-.7818.4236-2.6677 1.4247-2.6583.7405 0 1.4116 2.3452 1.5897 2.8982.2137.6637 1.3329 4.4973 1.5972 5.3372.2756.8773.5099 1.7509.808 2.647.2831.8492.403 1.9796 1.4753 1.9796h1.9197c.3318 0 .3712-.0712.6711-.0956.0506-.2156.0956-.2212.0956-.4799 0-.1125-2.4877-7.8286-2.7014-8.4341-.4011-1.0348-1.1098-3.065-1.4266-4.1411-.358-1.1641-1.0423-3.1494-2.3339-3.1456l-2.1315.0075c-1.9815-.0675-1.9065.268-2.497 1.4266-.4087.8023-.6337 1.3703-.9636 2.1352-.7011 1.6216-1.2954 3.4887-1.8447 5.1628-.5998 1.8278-1.9383 5.4946-2.1296 7.2774.1725.1162.1688.1912.3843.1912h2.5908c.838 0 1.6666-3.5093 1.8953-4.456l1.5766-5.6521z"/>
		<path d="M31.455 21.0238c.0056-.2306.328-.1912.6711-.1912h6.0476c.5024 0 .6505.1631.658.583l.015 11.7035c.2681.1799.405.2887.8643.2887h1.9196c.3243 0 .6711-.1688.6711-.4799V17.9513c0-.2231-.2568-.48-.4799-.48H28.4799c-.2231 0-.4799.2569-.4799.48v14.8791c0 .2587.045.2643.0956.4799.2156.0506.2212.0956.4799.0956h2.1128c.4536 0 .3843-.1856.7686-.2887V21.0238h-.0019z"/>
	</g>
	<g fill="#344A94">
		<path d="M157.199 17.8556c0-.1912-.399-.3843-.671-.3843h-2.4c-.656 0-.68 1.0236-.959 1.4398-.272 1.121-.383 3.0313-1.406 3.6818-.906.5755-1.575.8305-3.009.8305h-1.44c-.795 0-.928-.6168-.93-1.4079l-.018-4.1674c-.002-.2624-.027-.3561-.244-.3674l-2.647-.0094c-.407 0-.469.0525-.48.2887v15.3591c.127.2905.105.3843.768.3843h2.111c.267 0 .604-.2325.576-.4799v-5.7552c0-.3168.281-.39.575-.39h2.4c1.098 0 2.647.8718 3.125 1.8653.231.4818.508 1.1342.641 1.6628.24.9561.476 2.9976 1.609 2.9976h2.399c.221 0 .289-.0675.289-.2887 0-1.1417-.909-3.8018-1.286-4.7616-.615-1.5635-.863-3.0426-2.84-3.2075v-.1912c.185-.0488 1.169-.6412 1.323-.7893.191-.1837.814-.9317.947-1.166.465-.8174 1.567-4.0361 1.567-5.1441zM99.7035 27.3601c0-.3337-.0637-.5174.2887-.5755h4.2238c2.184.0244 2.133-.343 2.111 1.2485v.8642c.011.4781.09 1.123-.769 1.0555l-4.895.0956c-.9482.0712-.9276-.27-.9595-.9598v-1.7285zm8.4475-6.5294c.356.0188.288-.4049.288-.8642v-2.0152c0-.2231-.256-.48-.48-.48H96.7284c-.3768 0-.4799.4743-.4799.8643V32.926c0 .2231.2569.4799.4799.4799h9.3116c1.372 0 2.311-.6918 2.765-1.1717.529-.5605.979-1.7528.979-2.8607v-1.824c-.12-4.9529-5.026-4.1374-9.9886-4.143-.0131-.7405-.0956-1.6759-.0675-2.5777h8.4231v.0019zM115.734 26.4959c-.01-1.0423 1.698-5.489 2.156-5.8526.238-.1894.461-.1069.541.0524.115.2231 1.459 4.113 1.718 5.609 0 .2568.075.5755-.289.5755h-3.744c-.223-.0019-.382-.1593-.382-.3843zm-2.977 7.0075c1.58 0 .823-3.1682 2.208-3.1682h6.239c.266 0 .529.285.576.4799.256 1.0461.508 2.5927 1.535 2.5927h2.208c.295 0 .385-.2812.385-.5756v-.1912c0-.8098-2.393-7.4986-2.796-8.7227-.819-2.4821-1.505-6.8275-4.69-6.8275-1.532 0-2.696.3112-3.686 1.5934-.528.6862-.916 2.3884-1.244 3.3632-.401 1.1885-.763 2.2908-1.153 3.455-.66 1.974-2.01 5.4327-2.364 7.4273v.1894c0 .2249.159.3843.384.3843h2.398z"/>
		<path d="M130.227 33.0236v-3.455c0-1.1154-.31-2.6883.768-2.6883h5.855c.36 0 .768.2494.768.6355v5.6034c.03.3149.405.2887.865.2887h1.824c.495 0 .768-.0394.768-.5756V17.7601c.004-.1705-.073-.2887-.48-.2887h-2.208c-.426 0-.772-.0056-.769.48v4.6528c0 .4856-.221.8174-.768.8174h-5.855c-1.042 0-.768-1.3423-.768-2.3996v-3.1681c-.008-.2381-.208-.3843-.48-.3843h-2.689c-.258.0318-.288.0731-.288.4799V32.733c0 .2156-.058.7611.671.7686h2.208c.707.0019.576-.2531.578-.478z"/>
		<path d="M100.978 42.682c0 .2624-.045.5005-.133.7179-.09.2175-.225.405-.403.5643-.178.1594-.408.2831-.684.3731-.2775.09-.6355.1331-1.0742.1331h-1.5204c-.1068 0-.1949-.0281-.2605-.0863-.0656-.0581-.1013-.1574-.1013-.2962v-5.0184c0-.1312.0338-.225.1013-.2831.0675-.0581.1499-.0862.2474-.0862h3.2657c.03 0 .056.0075.079.0225.022.015.041.0412.058.0787.017.0375.028.0844.035.1425.008.0581.012.1312.012.2212 0 .0825-.004.1537-.012.2118-.007.0582-.018.105-.035.1425-.017.0375-.036.0638-.058.0806-.023.0169-.047.0244-.073.0244h-2.445v1.436h.9599c.3711 0 .6786.0356.9185.1068.2416.0713.4446.1763.6116.3169.166.1406.294.3111.384.5136.082.2006.127.4293.127.6843zm-1.1919.0768c0-.1275-.0206-.2437-.0619-.3449-.0412-.1031-.1031-.1894-.1837-.2625s-.1837-.1293-.3093-.1668c-.1256-.0394-.2943-.0581-.5062-.0581h-.7536v1.6647h.7667c.1913 0 .3469-.0188.4706-.0544.1237-.0356.2268-.09.3093-.1612.0825-.0713.1481-.1594.1968-.2625.0488-.1031.0713-.2231.0713-.3543zM104.634 42.8789c-.131.3337-.259.6074-.386.8248-.126.2175-.263.3881-.407.5156-.144.1256-.302.2137-.472.2624-.171.0487-.368.0731-.587.0731-.081 0-.16-.0056-.236-.015-.077-.0112-.15-.0243-.22-.0431-.069-.0169-.127-.0394-.178-.0619-.05-.0243-.088-.0468-.112-.0674-.025-.0207-.043-.0432-.057-.0694-.013-.0263-.024-.0581-.033-.1012-.01-.0413-.015-.0938-.021-.1575-.004-.0637-.007-.1444-.007-.2381 0-.1725.013-.2943.037-.3674s.064-.1088.118-.1088c.026 0 .056.0113.09.0319.034.0206.071.0431.118.0675.047.0244.1.045.162.0656.061.0206.133.0281.215.0281.062 0 .12-.0075.174-.0206.055-.0131.104-.0394.152-.0787.049-.0394.096-.0938.143-.1631.047-.0694.097-.1612.152-.2737l-1.901-3.8674c-.042-.0919-.066-.1669-.073-.225-.008-.0581.007-.1031.043-.1368.035-.0319.095-.0544.18-.0656.084-.0113.198-.015.341-.015.14 0 .251.0037.334.0093.082.0057.15.0188.2.0375.051.0188.09.0469.116.0844.027.0375.055.0862.081.1443l.812 1.7491c.09.1875.174.3749.255.5605.08.1856.157.3749.232.5643h.013c.06-.1987.122-.3937.19-.583.067-.1894.14-.3881.221-.5962l.663-1.7753c.015-.0412.034-.075.059-.1012.024-.0244.06-.045.106-.06.047-.015.113-.0244.197-.0281.083-.0038.191-.0075.326-.0075.137 0 .246.0037.327.0131.08.0094.138.0263.174.0506.036.0263.052.06.049.105-.004.045-.017.1031-.045.1743l-1.545 3.8656zM111.658 45.8312c0 .03-.007.0544-.022.075s-.042.0375-.081.0506-.09.0244-.155.0319c-.066.0075-.15.0112-.255.0112-.102 0-.184-.0037-.248-.0112s-.116-.0169-.155-.0319c-.04-.0131-.07-.03-.085-.0506-.017-.0206-.024-.0469-.024-.075v-1.361h-3.841v1.361c0 .03-.008.0544-.025.075s-.045.0375-.084.0506c-.039.0131-.094.0244-.158.0319-.065.0075-.148.0112-.249.0112s-.184-.0037-.249-.0112c-.066-.0075-.118-.0169-.158-.0319-.039-.015-.067-.03-.082-.0506s-.023-.0469-.023-.075v-2.0733c-.005-.0863.01-.1481.047-.1856.038-.0375.094-.0563.167-.0563h.268c.071-.1012.139-.2043.203-.313.063-.1069.125-.2344.185-.3806.06-.1481.118-.3224.176-.5268.058-.2043.115-.4536.173-.748.056-.2943.114-.643.172-1.046.058-.4031.118-.8774.18-1.421.017-.1331.053-.2306.103-.2925.051-.0599.128-.0918.233-.0918h2.949c.105 0 .185.03.245.0918.06.0619.09.1538.09.2794v4.4466h.491c.081 0 .137.0225.169.0638.032.0431.049.1031.049.18v2.0733h-.006zm-1.878-6.1863h-1.348c-.054.4518-.107.8492-.158 1.1922-.05.3431-.104.6449-.155.9036-.053.2587-.105.4818-.158.6693-.054.1874-.108.3487-.163.4855-.054.1369-.112.255-.172.3524-.06.0975-.12.1875-.184.2681h2.338v-3.8711zM116.855 42.5583c0 .2737-.041.5249-.122.7536-.082.2287-.214.4293-.397.5999-.184.1706-.422.3075-.716.4087-.295.1012-.698.1518-1.21.1518h-1.441c-.051 0-.098-.0075-.141-.0206-.043-.0131-.08-.0356-.114-.0675-.032-.0318-.058-.0693-.079-.1162-.019-.0469-.03-.1012-.03-.1668v-5.2509c0-.03.009-.0563.03-.0788.019-.0225.053-.0412.098-.0562.046-.015.106-.0263.183-.0338.075-.0075.169-.0112.28-.0112.116 0 .211.0037.285.0112.075.0075.133.0188.178.0338.045.015.075.0337.093.0562.019.0225.027.0488.027.0788v1.9665h.808c.436 0 .785.0375 1.044.1143.258.075.478.1875.658.3375.18.1481.318.3318.416.5492.099.2175.15.4631.15.7405zm-1.205.0975c0-.1462-.021-.2756-.062-.3881-.042-.1124-.105-.2099-.192-.2905-.086-.0806-.196-.1425-.331-.1856s-.338-.0656-.604-.0656h-.679v1.8334h.702c.279 0 .489-.0281.626-.0825.136-.0544.245-.1256.322-.2137.077-.0881.133-.1856.167-.2925.034-.1049.051-.2099.051-.3149zM123.906 42.7401c0 .2043-.029.3918-.085.5567-.056.1669-.135.3131-.234.4425-.1.1274-.219.238-.356.3299-.139.0919-.291.1687-.458.2268-.167.06-.345.1031-.532.1313-.19.0281-.399.0431-.632.0431h-1.533c-.098 0-.18-.0281-.248-.0863-.067-.0581-.101-.1518-.101-.283v-5.0316c0-.1312.034-.225.101-.2831.068-.0581.15-.0862.248-.0862h1.449c.354 0 .654.03.898.09.243.06.451.15.62.2699.169.12.296.2737.386.4574.09.1838.133.4012.133.6505 0 .1406-.016.2719-.054.3956-.037.1237-.088.2362-.155.3374-.07.1013-.152.1913-.252.2681-.099.0769-.213.1406-.341.1875.163.03.315.0825.454.1556.139.075.258.1706.362.2868.103.1162.183.2549.243.4124.057.1556.087.3337.087.5287zm-1.517-2.4296c0-.1162-.017-.2193-.054-.313-.036-.0919-.09-.1688-.162-.2306-.071-.0619-.161-.1069-.27-.1406-.108-.0319-.253-.0488-.435-.0488h-.592v1.4979h.656c.169 0 .306-.0206.407-.06.101-.0394.186-.0956.251-.165.068-.0693.116-.1518.15-.2456.034-.0937.049-.1912.049-.2943zm.3 2.4708c0-.1331-.023-.2531-.068-.3599-.045-.105-.11-.195-.196-.2662-.087-.0713-.197-.1256-.33-.165-.133-.0394-.308-.0581-.522-.0581h-.695v1.6422h.847c.163 0 .302-.0169.413-.0506.11-.0338.208-.0844.29-.1519.083-.0675.147-.1499.192-.2493.046-.0994.069-.2137.069-.3412zM131.408 44.3202c0 .03-.009.0562-.026.0787-.019.0225-.049.0413-.094.0563s-.105.0262-.18.0337-.17.0113-.283.0113c-.112 0-.208-.0038-.283-.0113-.075-.0075-.137-.0187-.18-.0337-.045-.015-.077-.0338-.096-.0563-.018-.0225-.03-.0487-.03-.0787v-4.6435h-2.15v4.6435c0 .03-.009.0562-.028.0787-.019.0225-.051.0413-.096.0563-.045.015-.105.0262-.178.0337-.075.0075-.168.0113-.285.0113-.112 0-.208-.0038-.283-.0113-.075-.0075-.137-.0187-.18-.0337-.045-.015-.075-.0338-.093-.0563-.019-.0225-.027-.0487-.027-.0787v-5.2509c0-.1256.032-.2175.094-.2793.062-.06.146-.0919.249-.0919h3.813c.107 0 .192.03.25.0919.06.0618.09.1537.09.2793v5.2509h-.004zM137.274 44.3204c0 .03-.01.0562-.027.0787-.018.0225-.048.0412-.093.0562s-.105.0263-.18.0338c-.075.0075-.171.0112-.283.0112-.117 0-.212-.0037-.285-.0112-.075-.0075-.134-.0188-.178-.0338-.045-.015-.075-.0337-.094-.0562-.019-.0225-.026-.0487-.026-.0787v-4.6567h-1.24c-.082.6805-.168 1.2748-.255 1.7847-.086.508-.178.9448-.275 1.3066-.098.3637-.206.6599-.324.8924-.119.2324-.252.4161-.402.5511-.15.135-.32.2287-.508.2793-.189.0506-.403.0769-.645.0769-.045 0-.082-.0056-.116-.0188-.032-.0112-.058-.0337-.079-.0674-.018-.0319-.033-.0788-.043-.1388-.009-.06-.013-.1349-.013-.2268 0-.1275.004-.2306.01-.3093.005-.0788.016-.1406.031-.1837.015-.0432.034-.0713.059-.0863.024-.015.052-.0225.084-.0225.092 0 .18-.0187.266-.0562.086-.0375.167-.1106.246-.2212.078-.1106.155-.2643.227-.4631.073-.1987.144-.4611.213-.7873.07-.3262.141-.7217.21-1.1904.07-.4687.141-1.0254.212-1.6703.017-.1519.054-.2587.107-.3187.054-.06.133-.0919.236-.0919h2.833c.107 0 .189.03.247.0919.058.0618.086.1537.086.2793v5.2472h-.001zM146.019 41.5365c0 .4818-.057.911-.169 1.2897-.113.3768-.283.6955-.51.9542-.227.2587-.51.4556-.847.5905-.338.135-.731.2025-1.179.2025-.411 0-.773-.0544-1.084-.165-.313-.1106-.576-.2737-.791-.493-.216-.2193-.383-.4912-.499-.8155-.118-.3262-.187-.703-.212-1.1304h-.886v2.3508c0 .03-.01.0563-.03.0788-.019.0225-.051.0412-.096.0562-.045.015-.105.0262-.178.0337-.075.0075-.169.0113-.285.0113-.112 0-.208-.0038-.283-.0113-.075-.0075-.137-.0187-.18-.0337-.045-.015-.077-.0337-.096-.0562-.018-.0225-.03-.0488-.03-.0788V38.852c0-.03.01-.0563.03-.0788.019-.0225.053-.0412.098-.0562.047-.015.107-.0263.18-.0338.075-.0075.169-.0112.281-.0112.116 0 .212.0037.285.0112.075.0075.133.0188.178.0338.045.015.077.0337.096.0562.018.0225.03.0488.03.0788v2.1633h.909c.041-.3712.127-.7067.257-1.0067.129-.298.303-.553.521-.7611.217-.2081.482-.3693.791-.4818.309-.1124.664-.1687 1.067-.1687.42 0 .793.06 1.119.1781.328.1181.603.3.827.5418.225.2418.395.5474.513.9167.115.3693.173.8023.173 1.3029zm-1.23.0618c0-.2999-.024-.5755-.073-.8248-.049-.2493-.13-.4649-.242-.6449-.111-.18-.259-.3206-.444-.4199-.184-.0994-.415-.15-.688-.15-.285 0-.521.0544-.705.1631-.184.1087-.33.2531-.439.4349-.109.1819-.184.3918-.227.6318-.043.2399-.063.493-.063.7611 0 .1968.009.3824.026.5605.019.1762.049.3412.094.493.045.1519.103.2906.174.4143.071.1256.161.2306.268.3169.107.0862.234.1537.379.2005.146.0469.313.0713.504.0713.277 0 .506-.0525.69-.1556.182-.1031.33-.2475.438-.4274.111-.1819.19-.3937.237-.6374.047-.2456.071-.508.071-.7874zM151.122 43.5966c0 .0749-.002.1368-.008.1893-.003.0525-.011.0975-.02.1331-.01.0375-.021.0694-.036.0956-.015.0263-.039.0581-.071.0919-.032.0337-.096.0787-.189.1312-.094.0544-.209.105-.344.1537-.134.0488-.29.09-.463.1219-.174.0318-.361.0487-.564.0487-.395 0-.752-.0619-1.07-.1837-.319-.1219-.589-.3037-.812-.5474-.223-.2418-.394-.5455-.514-.9073-.118-.3637-.178-.7855-.178-1.2673 0-.4912.066-.9261.197-1.3066.131-.3806.313-.7012.549-.9599.235-.2587.518-.4555.846-.5886.328-.1331.69-.2006 1.085-.2006.161 0 .315.0131.463.0394.148.0262.287.0618.413.105.125.0431.24.0937.341.1499.101.0563.172.105.212.1444.039.0394.067.0731.082.1012s.026.0619.036.1031c.009.0413.015.09.02.1481.006.0581.008.1256.008.21 0 .09-.004.1649-.009.2268-.006.0619-.017.1125-.032.1519-.015.0393-.032.0674-.055.0843-.02.0188-.045.0263-.071.0263-.045 0-.101-.0263-.169-.0788-.067-.0525-.157-.1106-.266-.1743-.109-.0638-.238-.1219-.388-.1744-.15-.0524-.33-.0787-.538-.0787-.229 0-.433.0469-.613.1406s-.334.2268-.459.4012c-.126.1743-.223.3843-.289.6317-.065.2475-.097.5249-.097.8343 0 .3393.035.6336.105.881.069.2475.168.4537.298.6131.129.1612.285.2812.468.358.184.0788.388.1181.617.1181.208 0 .388-.0244.54-.0731.152-.0487.281-.1031.39-.1631.109-.06.197-.1125.268-.1612.071-.0487.124-.0712.163-.0712.03 0 .054.0056.071.0187.019.0113.032.0356.045.0712.012.0357.021.0863.027.15.007.0694.011.1556.011.2625zM155.509 44.0111c0 .0862-.004.1575-.012.2156-.007.0581-.018.1049-.033.1406-.015.0356-.034.0618-.057.0787-.022.0169-.047.0244-.073.0244h-2.9c-.097 0-.18-.0281-.247-.0863-.068-.0581-.102-.1518-.102-.283v-5.0316c0-.1312.034-.225.102-.2831.067-.0581.15-.0862.247-.0862h2.881c.027 0 .051.0075.072.0225.02.015.039.0412.054.0787.015.0375.026.0844.034.1425.007.0581.011.1312.011.2212 0 .0825-.004.1537-.011.2118-.008.0582-.019.105-.034.1406-.015.0357-.032.0619-.054.0788-.021.0169-.045.0243-.072.0243h-2.06v1.4098h1.744c.026 0 .05.0075.073.0244.022.0168.041.0412.056.0749.015.0338.026.0807.034.1388.007.0581.011.1293.011.2118 0 .0862-.004.1575-.011.2137-.008.0563-.019.1012-.034.1369-.015.0337-.034.0581-.056.0731-.023.015-.047.0225-.073.0225h-1.744v1.629h2.079c.026 0 .051.0075.073.0244.023.0169.042.0431.057.0787.015.0357.026.0825.033.1406.008.0544.012.1257.012.2119zM158.322 43.8872c0 .1219-.009.225-.03.3075-.019.0825-.054.1499-.103.2006-.049.0506-.114.0862-.195.1087-.081.0225-.182.0337-.304.0337s-.223-.0112-.305-.0337c-.083-.0225-.146-.0581-.195-.1087-.049-.0507-.081-.1181-.101-.2006-.019-.0825-.029-.1856-.029-.3075 0-.1256.01-.2306.029-.3149.018-.0844.052-.1537.101-.2062.047-.0525.112-.09.195-.1106.082-.0225.183-.0338.305-.0338s.223.0113.304.0338c.081.0225.144.06.195.1106.049.0525.082.1199.103.2062.021.0843.03.1893.03.3149zm-.139-1.3066c-.003.03-.011.0562-.026.0806-.015.0244-.041.0431-.079.06-.037.0169-.088.0281-.151.0375-.064.0094-.143.0131-.235.0131-.095 0-.174-.0037-.236-.0131s-.113-.0206-.15-.0375c-.037-.0169-.064-.0356-.079-.06-.015-.0244-.024-.0506-.026-.0806l-.116-4.0493c0-.0393.009-.0731.026-.1031s.051-.0543.096-.0731c.047-.0187.108-.0337.187-.0431.079-.0094.178-.0131.296-.0131s.218.0056.295.015c.076.0112.138.0244.185.045.047.0187.079.0431.098.0712.018.0281.028.0619.028.1012l-.113 4.0493z"/>
	</g>
	<g fill="#EF7F1A">
		<path d="M172.483 10.1997c-.313.1781-1.007.0394-2.746.0994-.713.0244-1.965-.0131-2.908-.0394-.604-.0169-.613-1.57469.03-1.62343 1.504-.11248 3.106.04124 4.235.00749-.255-1.92151-1.682-3.83928-3.431-4.51791-1.874-.72736-3.695-.33556-4.907.36181-.863.49491-1.53 1.29351-2.37 1.32538-.336.01312-.746-.11435-.742-.7761C159.647 4.28707 162.411 2 165.2 2c4.04 0 7.322 2.8326 7.457 6.63627.017.47616.139 1.38533-.174 1.56343z"/>
		<path d="M158.255 8.65131c.313-.17809 1.006-.03937 2.746-.09935.712-.02437 1.964.01312 2.907.03936.604.01688.613 1.57468-.03 1.62348-1.503.1125-3.106-.0413-4.234-.0075.255 1.9215 1.681 3.8393 3.43 4.5179 1.875.7273 3.695.3355 4.908-.3618.862-.4949 1.53-1.2935 2.37-1.3254.335-.0131.746.1144.742.7761-.006.748-2.769 3.0351-5.558 3.0351-4.04 0-7.323-2.8326-7.458-6.6363-.015-.47429-.137-1.3835.177-1.56159zM165.369 4.93771c.459 0 .836.37681.836.8361v1.82403c0 .45929-.377.8361-.836.8361-.459 0-.836-.37681-.836-.8361V5.77381c-.002-.45929.375-.8361.836-.8361z"/>
		<path d="M165.369 10.6386c.459 0 .836.3768.836.8361v1.824c0 .4593-.377.8361-.836.8361-.459 0-.836-.3768-.836-.8361v-1.824c-.002-.4612.375-.8361.836-.8361z"/>
	</g>
</svg>
