<svg xmlns="http://www.w3.org/2000/svg" viewBox="0 0 200 50">
	<path fill="#15008F" d="M50 0h49v49H50V0z"/>
	<path fill="#DD002E" d="M102.14 0h49v49h-49V0z"/>
	<g fill="#fff">
		<path d="M64.92 15.83c.5927 1.1299 1.4854 2.0745 2.58 2.73.2341.1471.4068.3742.4859.6391s.0592.5495-.0559.8009c-.28.71-.83 1.74-.56 2.17.3633.2612.7911.4179 1.2371.4531.446.0353.8931-.0523 1.2929-.2531.1667.3635.3537.7174.56 1.06-.0929.1046-.2175.176-.3547.203-.1373.0271-.2796.0085-.4053-.053.1276.1116.2066.2686.2202.4376.0135.1689-.0395.3365-.1478.4669-.1083.1305-.2632.2135-.4318.2313-.1686.0178-.3374-.0309-.4706-.1358-.0935-.0721-.1628-.1711-.1985-.2837-.0358-.1126-.0363-.2334-.0015-.3463-.1821.2835-.4476.5036-.76.63-.1669-.1254-.2904-.2998-.3531-.4988-.0628-.1991-.0617-.4128.0031-.6112-.1385.2444-.3315.4535-.5638.6113-.2324.1578-.498.26-.7762.2987-.1705-.2533-.2486-.5575-.2213-.8616.0273-.3041.1584-.5895.3713-.8084-.2079.1553-.452.2551-.7091.2901-.2572.035-.519.004-.7609-.0901 0 0-.15-.48.71-1.19-.2828-.0101-.5586-.0914-.8016-.2365s-.4454-.3493-.5884-.5935c.2024-.1687.4374-.2939.6903-.3679.2529-.074.5183-.0951.7797-.0621-.3013-.0944-.5712-.269-.7808-.505-.2096-.2361-.3511-.5247-.4092-.835.2856-.1288.6027-.1709.912-.1212.3093.0498.5972.1893.828.4012-.1826-.2596-.394-.4978-.63-.71-.3421-.3867-.5832-.8521-.7018-1.3546-.1187-.5025-.1112-1.0265.0218-1.5254l-.01.02zm3.93 11.46c-.1541-.1605-.2733-.3512-.35-.56.15 1.39.2 2.3 1 3.21.2952-.6253.3487-1.3377.15-2-.1383-.0769-.282-.1438-.43-.2.1022.388.1294.7919.08 1.19-.2259-.5146-.3709-1.0611-.43-1.62l-.02-.02zm-1.24-.13c-.1541-.1605-.2733-.3512-.35-.56-.08.83-.28 2.93.43 3.57 0 0 .48-.35.63-3.44-.15.15-.2.35-.35.48.0717.5646.003 1.1383-.2 1.67 0 0-.35-.18-.15-1.72h-.01zm-1.68 1.62c.63-.71.76-2.86.76-2.86l.28-.2.08-.08v.2c-.0011 1.1203-.1904 2.2324-.56 3.29-.285.417-.6656.7599-1.11 1-.71-1.19.15-2.81.83-4l.28-.15c-.28 1-.76 2-.56 2.81v-.01zm-1.67-3.71c-.0105.1002.0182.2005.08.28v.08c-.6699.6966-1.2788 1.4493-1.82 2.25-.2562.3413-.5824.624-.9566.8292-.3742.2052-.7879.3282-1.2134.3608.0902-.9403.4792-1.8269 1.11-2.53.6877-.7524 1.4594-1.4235 2.3-2 .2218.1028.4709.1308.71.08h.08c-.0933.0929-.1471.2183-.15.35-1.0665.4894-1.9792 1.2604-2.64 2.23-.13.1.83-.18 2.45-1.92l.05-.01zm-1.11-1.1l.08-.08.08-.08c-.56.2-2.53 1-3.16 1.26-.4905.2725-.9206.6416-1.2643 1.0851-.3438.4434-.5941.952-.7357 1.4949.4272.0366.8575-.0117 1.2659-.1422.4085-.1304.7871-.3404 1.1141-.6178 1.11-.91 2.38-2.17 2.86-2.58l-.15-.15c-.9212.7499-1.9283 1.3877-3 1.9.2343-.4351.5793-.8007 1-1.06.6034-.4472 1.2802-.7856 2-1l-.09-.03zM62 23l.08-.15c-.63.15-2.25.35-3 .56-.5988.1598-1.1578.4423-1.6415.8296-.4838.3874-.8817.8711-1.1685 1.4204 0 0 1.11.35 3.29-.63 1.0282-.5409 2.1024-.9893 3.21-1.34-.2506 0-.4963-.0692-.71-.2-.9886.4816-2.0624.7636-3.16.83.3401-.2453.7096-.4469 1.1-.6.629-.334 1.3025-.5764 2-.72zm0-1c.2.0853.413.136.63.15-.1608.0934-.3059.2115-.43.35-1.3763.3456-2.7829.5566-4.2.63-1.0725.1513-2.1646.0833-3.21-.2.8524-.4867 1.7725-.844 2.73-1.06.76-.15 2.86-.15 3.84-.28.0872.0749.1809.1418.28.2-1.1198.0068-2.231.1959-3.29.56 1.2278.14 2.4712.0208 3.65-.35zm-.13-1.26c.1383-.0769.282-.1438.43-.2-1.5353-.5308-3.1311-.8667-4.75-1-1.1471-.1393-2.3094-.0886-3.44.15.9685.6363 2.0365 1.1061 3.16 1.39 1.3457.2139 2.7122.2643 4.07.15.0775-.1285.1716-.2462.28-.35-1.2998-.0075-2.5922-.196-3.84-.56 1.3795-.1073 2.7672.0281 4.1.4l-.01.02zm.01-1.26c.1407.426.4372.7832.83 1-1.54-.63-4.48-1.06-6.09-1.67-2.17-.91-2.53-2-2.53-2 1.5472.012 3.0829.2685 4.55.76 1.39.43 3.44 1.19 4.2 1.54-.2997.0007-.5911.099-.83.28-.76-.35-1.62-.56-2.38-.83-.5605-.1912-1.1478-.2925-1.74-.3.5262.3155 1.0864.5705 1.67.76.78.2 1.54.35 2.33.51l-.01-.05zm-.07-1.57c.08.15.2.35.28.48-2.2448-.4767-4.2757-1.6657-5.79-3.39-.5009-.8457-.6984-1.8369-.56-2.81 1.1049.5011 2.1005 1.2146 2.93 2.1.84.8915 1.7532 1.711 2.73 2.45l.28.83c-.76-.63-1.74-1.34-2.3-1.82-.5573-.432-1.1693-.7884-1.82-1.06.3371.4262.7083.8242 1.11 1.19.5179.4281 1.0774.8033 1.67 1.12.4444.374.9479.6714 1.49.88"/>
		<path d="M68.56 24.5l.2-.2c.28.35.48.71.71 1.06.1418.4126.2587.8334.35 1.26.0749.4182.2203.8206.43 1.19-.1877.0035-.3739-.033-.5464-.1071-.1724-.0742-.3271-.1842-.4536-.3229-.3334-.4274-.5504-.9338-.63-1.47-.1367-.4607-.1641-.9469-.08-1.42l.02.01zm-1.02.07l.2.2.08.08h.08l.2-.08c.0915.173.1428.3644.15.56.0755.3493.0755.7107 0 1.06-.0945.3097-.2587.5936-.48.83-.2031-.2234-.3655-.4806-.48-.76-.152-.3821-.152-.8079 0-1.19.1-.3.18-.51.25-.71v.01zm-1.26.04c.3256-.0475.6365-.167.91-.35.0499.0833.0827.1758.0964.2719.0138.0962.0082.1941-.0164.2881-.0951.2889-.2599.55-.48.76-.2009.1736-.4343.3054-.6867.3878-.2524.0824-.5187.1138-.7833.0922-.1.05-.23-.38 1-1.44l-.04-.01zm-.44-.75c.0291.233.1266.4522.28.63-.1727.2809-.4208.5076-.716.6544-.2953.1467-.6258.2076-.954.1756-.078-.1981-.0768-.4186.0032-.6159.0801-.1973.2329-.3563.4268-.4441.33-.13.61-.28 1-.4"/>
		<path d="M66 23.16c-.3493.0755-.7107.0755-1.06 0h-.15V23c-.56.43-1.11.48-1.34.91.1115.1562.2636.2789.4399.3547.1763.0758.37.1019.5601.0753.2999-.0251.5915-.1117.8565-.2545.2649-.1429.4976-.3387.6835-.5755-.0298-.0535-.0454-.1138-.0454-.175 0-.0612.0156-.1215.0454-.175H66zm-1.2-.63c.0703-.2119.1903-.4039.35-.56-.4602-.0757-.9298-.0757-1.39 0-.3622-.0028-.7157.1115-1.0076.326-.2919.2144-.5068.5175-.6124.864.3338.1983.728.2694 1.11.2.3004-.0233.5926-.1092.8578-.2521.2652-.143.4976-.3398.6822-.5779h.01zm-.29-1c-.1556-.1769-.2992-.364-.43-.56l-.08-.11c-.5195-.2527-1.1137-.3061-1.67-.15-.3435.1033-.6382.3269-.83.63.3922.2969.8532.4896 1.34.56.5778.0759 1.1645-.04 1.67-.33v-.04zm.15-1.1c.08-.08.2-.08.35-.08-.2907-.2878-.4861-.6577-.56-1.06-.3695.0866-.7567.0587-1.11-.08-.196-.0716-.4062-.0953-.6132-.0692-.207.0261-.4047.1012-.5768.2192.0728.2362.211.4471.3986.6081.1875.161.4169.2657.6614.3019.2116.1357.4521.2199.7022.246.25.026.5027-.0068.7378-.096l.01.01zM64.34 19l.15-.08c.173-.0915.3644-.1428.56-.15-.4591-.3943-.9509-.749-1.47-1.06-.5932-.344-1.2332-.6-1.9-.76.1881.5732.4986 1.0987.91 1.54.2078.2467.4836.4266.7931.5173.3095.0907.6389.0882.9469-.0073h.01zm.9-.48c-.2313-.3349-.3944-.7121-.48-1.11-.15-.48-.28-1.06-.48-1.54-.3487-.6375-.9285-1.117-1.62-1.34-.1543.6706-.084 1.3733.2 2 .6178.8513 1.435 1.538 2.38 2v-.01zm5.46 5.01c.1246.1194.2704.2144.43.28.0932.2139.1346.4467.1207.6796-.0139.2329-.0827.4592-.2007.6604-.3397.6039-.6178 1.2404-.83 1.9 0 0-.2 0-.43-1.19-.0701-.4417-.2643-.8544-.56-1.19.1299.0824.277.1337.43.15h.15l.08-.15c.124-.2148.1765-.4634.15-.71v-.2c.1205.025.2456.0168.3618-.0237.1162-.0405.2193-.1118.2982-.2063z"/>
		<path d="M62.39 15v.63c-.56-.71-1.26-1.62-2-2.45-.3448-.4596-.7639-.8584-1.24-1.18.2829.8809.7894 1.6733 1.47 2.3.544.5526 1.1254 1.0672 1.74 1.54l.08.2c.08.2.15.43.2.56.1511.2777.3395.5334.56.76-.2-.08-.43-.2-.63-.28h-.18c-1.754-.9945-3.2055-2.446-4.2-4.2-.4934-1.2187-.5604-2.5684-.19-3.83.9081.8236 1.7291 1.7384 2.45 2.73.7376 1.0159 1.3866 2.0931 1.94 3.22zm24.7 5.74c-.1383-.0769-.282-.1438-.43-.2 1.5353-.5308 3.1311-.8667 4.75-1 1.1471-.1393 2.3094-.0886 3.44.15-.9685.6363-2.0365 1.1061-3.16 1.39-1.3457.2139-2.7122.2643-4.07.15-.0775-.1285-.1716-.2462-.28-.35 1.2998-.0075 2.5922-.196 3.84-.56-1.3795-.1073-2.7672.0281-4.1.4l.01.02zm-.01-1.26c-.1407.426-.4372.7832-.83 1 1.54-.63 4.48-1.06 6.09-1.67 2.17-.91 2.53-2 2.53-2-1.5472.012-3.0829.2685-4.55.76-1.39.43-3.44 1.19-4.2 1.54.2997.0007.5911.099.83.28.76-.35 1.62-.56 2.38-.83.5645-.1724 1.1499-.2666 1.74-.28-.5262.3155-1.0864.5705-1.67.76-.78.18-1.54.33-2.33.48l.01-.04zm.14-1.58c-.08.15-.2.35-.28.48 2.2616-.4639 4.3111-1.6501 5.84-3.38.5009-.8457.6984-1.8369.56-2.81-1.1049.5011-2.1005 1.2146-2.93 2.1-.8339.8977-1.7477 1.7177-2.73 2.45l-.28.83c.76-.63 1.74-1.34 2.3-1.82.5573-.432 1.1693-.7884 1.82-1.06-.3371.4262-.7083.8241-1.11 1.19-.5211.4286-1.0839.8038-1.68 1.12-.4678.3396-.9667.6342-1.49.88l-.02.02zm-.61-2.9v.63c.56-.71 1.26-1.62 2-2.45.3448-.4596.7639-.8584 1.24-1.18-.2829.8809-.7894 1.6733-1.47 2.3-.544.5526-1.1254 1.0672-1.74 1.54l-.08.2c-.08.2-.15.43-.2.56-.1511.2777-.3395.5334-.56.76.2-.08.43-.2.63-.28l.2-.08c1.754-.9945 3.2055-2.446 4.2-4.2.4799-1.212.5398-2.55.17-3.8-.9081.8236-1.7291 1.7384-2.45 2.73-.7546 1.0231-1.4236 2.1068-2 3.24l.06.03zM64.55 25.61c-.71.71-2.25 2.38-2.1 4.12.8107-.2558 1.5139-.7726 2-1.47.3505-.6931.7481-1.3613 1.19-2h-.63c-.4065.8273-1.0027 1.5469-1.74 2.1 0 0-.15-.83 1.74-2.65 0-.08.08-.15.15-.2-.2039.0622-.417.0893-.63.08l.02.02zm19.5-9.8c-.5927 1.1299-1.4854 2.0745-2.58 2.73-.2202.164-.3739.402-.4327.6702-.0587.2683-.0187.5487.1127.7898.28.71.83 1.74.56 2.17-.27.43-1.62.63-2.65.2-.1667.3635-.3537.7174-.56 1.06.0929.1046.2175.176.3547.203.1373.0271.2796.0085.4053-.053-.0621.1723-.0871.3559-.0733.5386.0138.1826.066.3603.1533.5214.2075-.0406.404-.1249.5764-.2473.1725-.1225.3168-.2802.4236-.4627.1821.2835.4476.5036.76.63.1669-.1254.2904-.2998.3531-.4988.0628-.1991.0617-.4128-.0031-.6112.1385.2443.3315.4535.5638.6113.2324.1578.498.26.7762.2987.1705-.2533.2486-.5575.2213-.8616-.0273-.3041-.1584-.5895-.3713-.8084.2079.1553.452.2551.7091.2901.2572.035.519.004.7609-.0901 0 0 .15-.48-.71-1.19.2828-.0101.5586-.0914.8016-.2365s.4454-.3493.5884-.5935c-.2024-.1687-.4374-.2939-.6903-.3679-.2529-.074-.5183-.0951-.7797-.0621.2985-.0854.5643-.2591.7624-.4982.1981-.2391.3192-.5326.3476-.8418-.2856-.1288-.6027-.1709-.912-.1212-.3093.0498-.5972.1893-.828.4012.1826-.2596.394-.4978.63-.71.3743-.3688.6493-.8261.7997-1.3296.1503-.5035.1711-1.0368.0603-1.5504l-.13.02zm-3.87 11.46c.1433-.1686.2613-.3573.35-.56-.15 1.39-.2 2.3-1 3.21-.2952-.6253-.3487-1.3377-.15-2 .1383-.0769.282-.1438.43-.2-.1022.388-.1294.7919-.08 1.19.2259-.5147.3709-1.0611.43-1.62l.02-.02zm1.24-.13c.1541-.1605.2733-.3512.35-.56.08.83.28 2.93-.43 3.57 0 0-.48-.35-.63-3.44.15.15.2.35.35.48-.0717.5646-.003 1.1383.2 1.67 0 0 .35-.18.15-1.72h.01zm1.66 1.62c-.63-.71-.76-2.86-.76-2.86-.0775-.0864-.1731-.1547-.28-.2l-.04-.06v.2c.0011 1.1203.1904 2.2324.56 3.29.2655.4336.6511.781 1.11 1 .71-1.19-.15-2.81-.83-4-.1069-.0189-.205-.0715-.28-.15.28 1 .78 2 .56 2.81l-.04-.03zm1.73-3.69c.0105.1002-.0182.2005-.08.28v.08c.6699.6966 1.2788 1.4493 1.82 2.25.2562.3413.5824.624.9566.8292.3742.2052.7879.3282 1.2134.3608-.0902-.9403-.4792-1.8269-1.11-2.53-.6877-.7524-1.4594-1.4235-2.3-2-.2218.1028-.4709.1308-.71.08h-.08c.0933.0929.1471.2183.15.35 1.0408.4999 1.9284 1.27 2.57 2.23.13.1-.86-.18-2.45-1.92l.02-.01zm.98-1.1v-.15l-.08-.08c.56.2 2.53 1 3.16 1.26.4905.2725.9206.6416 1.2643 1.0851.3438.4434.5941.952.7357 1.4949-.4272.0366-.8575-.0117-1.266-.1422-.4084-.1304-.787-.3404-1.114-.6178-1.06-.91-2.38-2.17-2.86-2.58l.15-.15c.9212.7499 1.9283 1.3877 3 1.9-.2343-.4351-.5793-.8008-1-1.06-.6166-.4253-1.2898-.7619-2-1l.01.04zM87 23c0-.08-.08-.08-.08-.15.63.15 2.25.35 3 .56.5988.1598 1.1578.4423 1.6415.8296.4838.3874.8817.8711 1.1685 1.4204 0 0-1.11.35-3.29-.63-1.0282-.5409-2.1024-.9893-3.21-1.34.2506 0 .4963-.0692.71-.2.9886.4816 2.0624.7636 3.16.83-.3401-.2453-.7096-.4469-1.1-.6-.6372-.3152-1.3082-.5567-2-.72zm0-1c-.2.0853-.413.136-.63.15.1608.0934.3059.2115.43.35 1.3763.3456 2.7829.5566 4.2.63 1.0725.1513 2.1646.0833 3.21-.2-.8524-.4867-1.7725-.844-2.73-1.06-.76-.15-2.86-.15-3.84-.28-.0872.0749-.1809.1418-.28.2 1.1198.0068 2.231.1959 3.29.56-1.2278.1377-2.4708.0185-3.65-.35z"/>
		<path d="M80.44 24.5l-.2-.2c-.2556.3241-.4675.6805-.63 1.06-.1418.4126-.2587.8334-.35 1.26-.1094.4081-.2533.8062-.43 1.19.1963.0017.391-.0354.5729-.1092.1819-.0738.3475-.1828.4871-.3208.3334-.4274.5504-.9338.63-1.47.0938-.4725.0662-.961-.08-1.42v.01zm1 .07l-.2.2-.08.08h-.08l-.28-.08c-.0915.173-.1428.3644-.15.56-.0755.3493-.0755.7107 0 1.06.0945.3097.2587.5936.48.83.2031-.2234.3655-.4806.48-.76.152-.3821.152-.8079 0-1.19.0013-.2481-.0606-.4925-.18-.71l.01.01zm1.25.04c-.3256-.0475-.6365-.167-.91-.35-.0499.0833-.0827.1758-.0965.2719-.0137.0962-.0081.1941.0165.2881.0951.2889.26.55.48.76.2009.1736.4343.3054.6867.3878.2524.0824.5187.1138.7833.0922.08.05.23-.38-1-1.44l.04-.01zm.44-.75c-.0291.233-.1266.4522-.28.63.1727.2809.4208.5076.716.6544.2953.1467.6258.2076.954.1756.0779-.1981.0768-.4186-.0032-.6159-.0801-.1973-.2329-.3563-.4268-.4441-.33-.13-.61-.28-1-.4h.04zm-.13-.7c.3493.0755.7107.0755 1.06 0h.15V23c.56.43 1.11.48 1.39.91-.1001.1457-.2371.2623-.397.3378-.1598.0756-.3368.1074-.513.0922-.3-.0251-.5915-.1117-.8565-.2545-.2649-.1429-.4976-.3387-.6835-.5755-.0942-.0923-.1481-.2181-.15-.35zm1.19-.63c-.0703-.2119-.1904-.4039-.35-.56.4602-.0757.9298-.0757 1.39 0 .3622-.0028.7157.1115 1.0076.326.292.2144.5068.5175.6124.864-.3338.1983-.728.2694-1.11.2-.3028-.0126-.5988-.0939-.8656-.2377-.2668-.1438-.4974-.3463-.6744-.5923h-.01zm.29-1c.1708-.1638.3158-.3527.43-.56l.08-.15c.5195-.2527 1.1137-.3061 1.67-.15.3435.1033.6382.3269.83.63-.3922.2969-.8532.4896-1.34.56-.5732.0032-1.1411-.109-1.67-.33zm-.23-1.14c-.08-.08-.2-.08-.35-.08.2873-.3013.5026-.6637.63-1.06.3695.0866.7567.0587 1.11-.08.196-.0716.4062-.0953.6132-.0692.207.0261.4047.1012.5768.2192-.0728.2362-.211.4471-.3986.6081-.1875.161-.4169.2657-.6614.3019-.2255.1383-.4795.2236-.7428.2496-.2632.026-.529-.0081-.7772-.0996v.01zm.39-1.39h-.15c-.173-.0915-.3644-.1428-.56-.15.4591-.3943.9509-.749 1.47-1.06.5772-.3757 1.2229-.634 1.9-.76-.2176.5594-.525 1.0796-.91 1.54-.2061.2488-.4819.4304-.792.5212-.31.0909-.6402.087-.948-.0112l-.01-.08zm-.9-.4c.2313-.3349.3944-.7121.48-1.11.15-.48.28-1.06.48-1.54.3487-.6375.9285-1.117 1.62-1.34.1543.6706.084 1.3733-.2 2-.6116.8571-1.4304 1.5452-2.38 2v-.01zm-5.46 5.01c-.1246.1194-.2704.2144-.43.28-.0932.2139-.1346.4467-.1207.6796.0139.2329.0827.4592.2007.6604.3397.6039.6178 1.2404.83 1.9 0 0 .2 0 .43-1.19.0701-.4417.2643-.8544.56-1.19-.1299.0824-.277.1337-.43.15h-.15l-.08-.15c-.124-.2148-.1765-.4634-.15-.71v-.2c-.1205.0209-.2443.0107-.3598-.0295-.1155-.0403-.2188-.1093-.3002-.2005z"/>
		<path d="M84.36 25.61c.71.71 2.25 2.38 2.1 4.12-.8107-.2558-1.5139-.7726-2-1.47-.3505-.6931-.7481-1.3613-1.19-2h.63c.4065.8273 1.0027 1.5469 1.74 2.1 0 0 .15-.83-1.74-2.65 0-.08-.08-.15-.15-.2.2039.0622.417.0893.63.08l-.02.02zM69.59 12.82c.4509-.1517.9391-.1517 1.39 0-.4547.1267-.9353.1267-1.39 0zM74.7 12c0 .15-.08.2-.2.2-.0266.0014-.0533-.0027-.0782-.0123-.0249-.0095-.0476-.0242-.0664-.0431-.0189-.0188-.0336-.0415-.0431-.0664-.0096-.0249-.0137-.0516-.0123-.0782 0-.15.08-.2.2-.2.0266-.0014.0533.0027.0782.0123.0249.0095.0476.0242.0664.0431.0189.0188.0336.0415.0431.0664.0096.0249.0137.0516.0123.0782zm-1.39-.76c-.2766-.5537-.488-1.1376-.63-1.74.08-.15.15-.28.35-.28.2 0 .28-.08.35 0 .2466.57755.392 1.1932.43 1.82-.1757.051-.3465.1179-.51.2h.01zm.67-.15h.28c-.0723-.5224-.1894-1.0377-.35-1.54-.0182-.11957-.0662-.23264-.1396-.32877-.0734-.09612-.1698-.17221-.2804-.22123.08.28.2.56.28.83.0998.4255.1766.8562.23 1.29l-.02-.03zm-.54 1.5c-.3652.1962-.7756.2928-1.19.28.16-.2767.3743-.5182.63-.71.3512-.2309.7727-.3301 1.19-.28-.1558.2797-.3708.522-.63.71zm-.63.08c.3144-.1235.5978-.3146.83-.56-.3399.0694-.6384.2708-.83.56z"/>
		<path d="M69.47 12.95c.4489.144.9187.2116 1.39.2.825.0067 1.6478-.0873 2.45-.28-.0319.1009-.0877.1926-.1625.2675-.0749.0748-.1666.1306-.2675.1625.1317.0029.2571.0567.35.15-.0436.0849-.1043.1598-.1783.2201-.074.0602-.1597.1045-.2517.1299.2965.2939.6928.4653 1.11.48-.1114.0987-.2454.1685-.3901.2034-.1447.0348-.2957.0337-.4399-.0034-.3601-.0729-.6826-.2714-.91-.56.0633.134.0908.2822.08.43-.0946-.0125-.1857-.0438-.2681-.0918-.0824-.0481-.1544-.1121-.2119-.1882.0901.1446.1417.3098.15.48-.1557-.0029-.3063-.0554-.43-.15.0618.1058.0897.2279.08.35-.3778-.1361-.7346-.3246-1.06-.56v.35c.08.08-1-.08-1-1.62l-.04.03zm1.86.6H70.1c.0125.0946.0438.1857.0918.2681.0481.0824.1121.1544.1882.2119 0-.48.91-.48.91-.48h.04zm-2.04-.48c.0058.3136.0738.6229.2.91-.2131-.1337-.3805-.329-.48-.56-.08-.35-.08-.51.28-.35zm.23 1l.56.43c-.2062.078-.4165.1448-.63.2-.2065-.1716-.4665-.2655-.735-.2655-.2685 0-.5285.0939-.735.2655-.1025-.054-.1923-.1293-.2632-.221-.0709-.0916-.1214-.1974-.1479-.3102-.0266-.1128-.0286-.23-.006-.3436.0227-.1137.0694-.2212.1371-.3152.1235-.1357.2872-.2282.4672-.2642.1799-.036.3666-.0135.5328.0642.0772.1779.191.3375.334.4685.143.1309.312.2302.496.2915h-.01zm-.99.15c.0297 0 .0587-.0088.0833-.0253.0247-.0165.0439-.0399.0553-.0673.0113-.0274.0143-.0576.0085-.0867s-.0201-.0558-.041-.0768c-.021-.0209-.0477-.0352-.0768-.041-.0291-.0058-.0593-.0028-.0867.0085-.0274.0114-.0508.0306-.0673.0553-.0165.0246-.0253.0536-.0253.0833 0 .08 0 .15.15.15zm1.59.4c.1481.1965.3085.3835.48.56-.2973-.0105-.5906.0714-.8395.2343-.2489.163-.4412.399-.5505.6757-.1002-.1449-.1604-.3136-.1745-.4892-.014-.1756.0186-.3518.0945-.5108.124-.1453.277-.2631.4492-.3457.1723-.0827.3599-.1284.5508-.1343l-.01.01zm1.22.22l.48.15v-.28c.15 0 .2.08.35.08.1217.4358.3216.8458.59 1.21-.0163.153-.0676.3001-.15.43-.1692-.2881-.3562-.5653-.56-.83-.1804-.2921-.4455-.5223-.76-.66l.05-.1zm-.96-.05c.3583.0763.6981.2224 1 .43.17.1061.3104.2533.4083.4281.0979.1749.1501.3715.1517.5719-.1532-.2174-.3426-.4068-.56-.56-.408-.1863-.7548-.4845-1-.86v-.01zm0-3.56c.15 0 .28.08.28.2-.085.2667-.2026.522-.35.76-.1616-.2301-.2801-.4876-.35-.76.0459-.0701.1105-.1259.1865-.1612.076-.0354.1603-.0488.2435-.0388h-.01zm-.22 1.34c-.0588-.3421-.1526-.6772-.28-1-.1299-.0824-.277-.1337-.43-.15-.0515.0045-.0998.027-.1364.0636-.0366.0366-.0591.0849-.0636.1364v.08c.1681.3144.3551.6183.56.91.111-.0443.231-.0615.35-.05v.01zm.35-.01c.0588-.3421.1526-.6772.28-1 .1299-.0824.277-.1337.43-.15.0515.0045.0998.027.1364.0636.0366.0366.0591.0849.0636.1364v.08c-.1507.3241-.3386.6295-.56.91-.1105-.0463-.231-.0636-.35-.05v.01zm.35-2.18h-.43V10h-.2v.35h-.43v.28h.43V11h.2v-.4h.43v-.22zm-4.27 2.5v-.68c-.1705.0563-.3268.1489-.458.2715-.1313.1226-.2343.2722-.302.4385 0 0 .56-.35.76 0v-.03zm.48.94c.08-.28.15-.63.2-.91.0707-.2079.0939-.429.068-.647-.026-.2181-.1005-.4275-.218-.613-.1482-.3117-.2169-.6553-.2-1l-.48.2c.0217.3494.1171.6902.28 1 .1005.2645.1281.5512.08.83-.0386.199-.0336.4039.0147.6008.0484.1968.1389.3808.2653.5392h-.01zm.01-3v-.2c.261-.2936.6133-.4909 1-.56.2-.08.35 0 .56.15-.1317.0029-.2571.0567-.35.15-.2139.1913-.4528.3528-.71.48-.1598-.0119-.3202-.0119-.48 0"/>
		<path d="M68.61 10.14c.1708.1468.2928.3422.35.56-.0625.2965-.1813.5783-.35.83-.1701.1987-.2686.4487-.28.71 0 .15.15.28.2.43-.1494-.0421-.2889-.1132-.4108-.2093-.1218-.0961-.2235-.2153-.2992-.3507-.038-.133-.0394-.2737-.0043-.4074.0352-.1338.1058-.2555.2043-.3526.1239-.2744.2855-.5302.48-.76.0793-.1396.1142-.3001.1-.46l.01.01zm3.71 4.41c.1187.4252.308.8275.56 1.19.1744.3051.2706.6487.28 1 .1454-.3331.1972-.6996.15-1.06-.1774-.4853-.5358-.8831-1-1.11l.01-.02zm.7.15c.217.014.43.0647.63.15.3222.2479.5455.6024.63 1-.2224-.0625-.4346-.1568-.63-.28-.2839-.2244-.5017-.5216-.63-.86v-.01zm-2.25.87c-.15 0-.28.08-.43.08.1963.0726.3841.1665.56.28.1036.0883.1881.1968.2482.3189.0602.1221.0949.2552.1018.3911.0972.3863.2416.7591.43 1.11.0053-.3785.0729-.7535.2-1.11-.1608-.0933-.3059-.2115-.43-.35-.1356-.3096-.3766-.5611-.68-.71v-.01zm2 1.01c.1581.3235.2369.68.23 1.04-.1625.3795-.3744.7359-.63 1.06-.087-.4148-.1372-.8364-.15-1.26-.007-.1839.037-.3662.1269-.5268.09-.1605.2226-.2931.3831-.3832l.04.07zm.72-.07c.2158.3755.3869.7748.51 1.19.0346.1297.0391.2657.0131.3974-.026.1317-.0818.2558-.1631.3626-.2.28-.43.56-.63.83-.1333-.1639-.2289-.3551-.28-.56-.0173-.2781.0029-.5573.06-.83.2187-.444.3896-.9099.51-1.39h-.02zm.3 2.73c-.2701.2757-.5082.581-.71.91-.0744.1128-.1141.2449-.1141.38s.0397.2672.1141.38c.2202.3088.503.5678.83.76-.1972-.2951-.2953-.6454-.28-1 .0755-.2433.1691-.4807.28-.71.0123-.25-.0322-.4996-.13-.73l.01.01zm-1.01-.36c.1361.1813.2067.4034.2.63-.0135.282-.0639.5611-.15.83-.1508.4126-.3382.8108-.56 1.19-.1448-.1931-.2626-.405-.35-.63.2-.28.35-.56.56-.83.1295-.3886.2298-.7864.3-1.19zm-.15-.2c-.1433.7456-.4248 1.4579-.83 2.1-.1137.2106-.272.3939-.4636.5372-.1917.1433-.4123.2432-.6464.2928-.2065-.0098-.4048-.0833-.5678-.2105-.1629-.1271-.2825-.3016-.3422-.4995-.0707-.1826-.0941-.3802-.0678-.5743.0262-.1941.1011-.3784.2178-.5357.0439.1766.1322.3391.2564.4721.1243.133.2804.2321.4536.2879.53-.05 1.24-.68 2-1.87"/>
		<path d="M72 18.2c.0695.2621.0695.5379 0 .8-.0268.145-.0832.283-.1658.4052-.0826.1221-.1896.2259-.3142.3048-.1624.0944-.3537.1261-.5379.0893-.1841-.0369-.3485-.1397-.4621-.2893l-.08-.08c.3501-.0354.6828-.17.9591-.3878.2763-.2179.4848-.51.6009-.8422zm1.72 4.8c.2671.3346.4797.7092.63 1.11-.0137.519-.1619 1.0255-.43 1.47-.3196-.2659-.5643-.6106-.71-1-.0372-.2847-.0108-.5741.0774-.8473s.236-.5235.4326-.7327zm-.68.48c.1217-.3388.3123-.6487.56-.91.0736-.2992.0434-.6144-.0856-.8942-.129-.2798-.3491-.5075-.6244-.6458-.2555.3311-.4456.7078-.56 1.11-.08.58.48.86.71 1.34zm-1.26-2.38c-.1532.2174-.3426.4068-.56.56v.71c.1094.4081.2533.8062.43 1.19.2179-.2691.381-.5782.48-.91.0577-.2728.0845-.5512.08-.83-.1244-.2476-.2682-.485-.43-.71v-.01zm-1.19 2.01c-.2981-.4245-.4994-.9092-.59-1.42.151.0847.3186.1357.4912.1495.1727.0138.3462-.0099.5088-.0695.0758.2986.0758.6114 0 .91-.1312.1704-.275.3309-.43.48l.02-.05zm.06.2L71 23c.08-.08.35.63.43.83-.15 0-.28 0-.35-.08-.1299-.1471-.2739-.281-.43-.4v-.04zm1.6-.31c-.2126.3498-.4499.684-.71 1 .0755.2433.1691.4807.28.71.169.3055.3812.5851.63.83.1708-.2615.3148-.5396.43-.83.1164-.2172.1585-.4666.12-.71-.15-.35-.56-.71-.71-1.06l-.04.06zm.75 1.9c.232.3058.4205.6424.56 1 .049.2128.0206.4362-.08.63-.08.15-.28.48-.43.76-.2821-.2137-.5001-.5008-.63-.83-.0429-.1367-.0579-.2805-.0442-.4231.0138-.1426.056-.2809.1242-.4069.15-.2.43-.4.51-.71L73 24.9zm-1.41-.03c.1969.2536.3584.5328.48.83.0738.1258.1128.2691.1128.415 0 .1459-.039.2892-.1128.415-.15.28-.28.48-.35.63-.2031-.2234-.3655-.4806-.48-.76-.075-.2716-.075-.5584 0-.83.166-.209.2853-.4511.35-.71v.01zm2 1.99c-.286.3795-.4872.816-.59 1.28.1093.4309.2531.8522.43 1.26.2025-.205.3653-.4457.48-.71.1734-.2696.2443-.5925.2-.91.0086-.1723-.023-.3443-.0924-.5023-.0695-.1579-.1748-.2975-.3076-.4077l-.12-.01zm-1.22-.07c.2149.313.3363.6806.35 1.06-.1498.3527-.3375.688-.56 1-.1481-.2623-.2655-.5408-.35-.83-.0063-.2312.041-.4607.1382-.6706.0971-.2099.2415-.3945.4218-.5394v-.02zm7.08-13.98c-.4509-.1517-.9391-.1517-1.39 0 .4547.1267.9353.1267 1.39 0zm-4.95-2.24c.1775-.435.3213-.88295.43-1.34 0-.11404-.0453-.22341-.1259-.30405C74.7234 8.84531 74.614 8.8 74.5 8.8c-.114 0-.2234.04531-.3041.12595-.0806.08064-.1259.19001-.1259.30405.0975.4601.2416.9091.43 1.34zm1.19.71c.2766-.5537.488-1.1376.63-1.74-.08-.15-.15-.28-.28-.28-.13 0-.28-.08-.35 0-.2466.57755-.392 1.1932-.43 1.82.08.05.28.13.43.2zm-.69-.16h-.3c.0723-.5224.1894-1.0377.35-1.54-.0004-.13154.0425-.25956.122-.36436.0795-.10479.1912-.18056.318-.21564-.08.28-.2.56-.28.83-.08.43-.15.86-.23 1.26l.02.03zm.06.75c.4144-.0128.8248.0838 1.19.28.2724.1729.4908.4189.63.71-.4144.0128-.8248-.0838-1.19-.28-.1556-.0569-.2946-.1516-.4046-.2755-.11-.1239-.1874-.2732-.2254-.4345zm.28.2c.232.2456.5154.4368.83.56-.0894-.148-.2099-.2748-.3532-.3715-.1434-.0968-.3061-.1611-.4768-.1885zm3.08 2.53v-.35c-.3058.232-.6424.4205-1 .56-.0097-.1221.0182-.2442.08-.35-.1299.0824-.277.1337-.43.15.08-.15.08-.35.2-.48-.0558.0778-.1274.143-.2101.1913-.0827.0482-.1747.0785-.2699.0887-.0108-.1478.0167-.296.08-.43-.1961.2847-.4926.4847-.83.56-.1442.0371-.2952.0382-.4399.0034-.1447-.0349-.2787-.1047-.3901-.2034.4183-.0097.8164-.1818 1.11-.48-.1608-.0934-.3059-.2115-.43-.35.0929-.0933.2183-.1471.35-.15-.1009-.0319-.1926-.0877-.2675-.1625-.0748-.0749-.1306-.1666-.1625-.2675.8015.1969 1.6248.291 2.45.28.4706.001.9388-.0664 1.39-.2-.2 1.47-1.24 1.62-1.24 1.62l.01-.03zm.19-.6c.0778-.0558.143-.1274.1913-.2101.0482-.0827.0785-.1747.0887-.2699-.4215.0109-.8432-.0159-1.26-.08v.08c.08.05 1 .05 1 .48h-.02zm1.13-.91c-.0058.3136-.0738.6229-.2.91.2131-.1337.3805-.329.48-.56.08-.3.08-.51-.28-.35zm.71.33c.1662-.0777.3529-.1002.5328-.0642.18.036.3437.1286.4672.2642.0915.2014.1137.4274.063.6428-.0507.2153-.1713.4078-.343.5472-.2065-.1716-.4665-.2655-.735-.2655-.2685 0-.5285.0939-.735.2655-.1975-.1011-.4104-.1687-.63-.2.157-.1783.3472-.3244.56-.43.3586-.146.653-.4156.83-.76h-.01zm.29.78c0-.0297-.0088-.0587-.0253-.0833-.0165-.0247-.0399-.0439-.0673-.0553-.0274-.0113-.0576-.0143-.0867-.0085s-.0558.0201-.0768.041c-.0209.021-.0352.0477-.041.0768-.0058.0291-.0028.0593.0085.0867.0114.0274.0306.0508.0553.0673.0246.0165.0536.0253.0833.0253.08 0 .15-.08.15-.15zm-1.82.48c-.1481.1965-.3085.3835-.48.56.2973-.0105.5906.0714.8395.2343.2489.163.4412.399.5505.6757.1002-.1449.1604-.3136.1745-.4892.014-.1756-.0186-.3518-.0945-.5108-.12-.1499-.2722-.2709-.4453-.3539-.1731-.0831-.3627-.1262-.5547-.1261"/>
		<path d="M77.71 14.92l-.48.15v-.28c-.15 0-.2.08-.35.08-.1456.4112-.3622.7937-.64 1.13.0163.153.0676.3001.15.43.1692-.2881.3562-.5653.56-.83.1952-.2792.4562-.5059.76-.66v-.02zm.91-.13c-.3583.0763-.6981.2224-1 .43-.17.1061-.3104.2533-.4083.4281-.0979.1749-.1501.3716-.1517.5719.1532-.2174.3426-.4068.56-.56.393-.2089.7346-.5027 1-.86v-.01zm0-3.56c-.15 0-.28.08-.28.2.085.2667.2026.522.35.76.1616-.2301.2801-.4876.35-.76-.1142-.1169-.2671-.188-.43-.2h.01zm.19 1.34c.0217-.3494.1171-.6902.28-1 .1299-.0824.277-.1337.43-.15.08 0 .2.08.15.2v.08c-.1681.3144-.3551.6183-.56.91 0-.05-.15-.05-.3-.05v.01zm-.33-.01c-.0588-.3421-.1526-.6771-.28-1-.1299-.0824-.277-.1337-.43-.15-.0515.0045-.0998.027-.1364.0636-.0366.0366-.0591.0849-.0636.1364v.08c.1681.3144.3551.6183.56.91.1105-.0463.231-.0636.35-.05v.01zm-.35-2.18h.4V10h.28v.35h.35v.28h-.35V11h-.28v-.4h-.4v-.22zM74 8.12h.35v-.43h.28v.43H75v.2h-.35v.51h-.28v-.51H74v-.2zm8.42 4.75v-.68c.1705.0563.3268.1489.458.2715.1313.1226.2343.2722.302.4385 0 0-.56-.35-.76 0v-.03zm-.51.94c-.08-.28-.15-.63-.2-.91-.1273-.4158-.0988-.8637.08-1.26.1847-.2985.2557-.6535.2-1l.48.2c-.0217.3494-.1171.6902-.28 1-.1005.2645-.1281.5512-.08.83.0771.1896.0992.3971.0638.5987-.0354.2017-.1268.3892-.2638.5413zm0-3v-.2c-.261-.2936-.6133-.4909-1-.56-.2-.08-.35 0-.56.15.1317.0029.2571.0567.35.15.2139.1913.4528.3528.71.48.1599-.0091.3201-.0091.48 0"/>
		<path d="M80.37 10.14c-.1708.1468-.2929.3422-.35.56.0625.2965.1813.5783.35.83.1701.1987.2687.4487.28.71 0 .15-.15.28-.2.43.1493-.0421.2889-.1132.4108-.2093.1218-.0961.2235-.2153.2992-.3507.038-.133.0395-.2737.0043-.4074-.0352-.1338-.1058-.2555-.2043-.3526-.1239-.2744-.2855-.5302-.48-.76-.0793-.1396-.1142-.3001-.1-.46l-.01.01zm-3.68 4.41c-.1187.4252-.308.8275-.56 1.19-.1949.3184-.2923.6869-.28 1.06-.1454-.3331-.1973-.6996-.15-1.06.0544-.2659.1744-.5141.349-.7219.1746-.2078.3984-.3687.651-.4681h-.01zm-.7.13c-.217.014-.43.0647-.63.15-.3222.2479-.5455.6024-.63 1 .2224-.0625.4346-.1568.63-.28.2779-.2301.4944-.5256.63-.86v-.01zm2.25.87c.15 0 .28.08.43.08-.1964.0726-.3841.1665-.56.28-.1036.0883-.1881.1968-.2482.3189-.0602.1221-.0948.2552-.1018.3911-.0972.3863-.2416.7591-.43 1.11-.0053-.3785-.0729-.7535-.2-1.11.1608-.0933.3059-.2115.43-.35.0595-.1582.1504-.3026.2673-.4247.1168-.122.2572-.2191.4127-.2853v-.01zm-2 1.01c-.1647.3287-.247.6925-.24 1.06.1625.3795.3744.7359.63 1.06.087-.4148.1372-.8364.15-1.26-.0031-.182-.0513-.3605-.1403-.5193-.089-.1588-.216-.2931-.3697-.3907l-.03.05zm-1.74 1.21c0-.28.63-.91.63-1.26-.0492-.1466-.1317-.2797-.241-.389-.1093-.1093-.2424-.1918-.389-.241-.2682.1424-.4876.3618-.63.63 0 .35.63 1.06.63 1.26zm1-1.26c-.2123.3759-.3801.7753-.5 1.19-.0346.1297-.0391.2657-.0131.3974.026.1317.0818.2558.1631.3626.2.28.43.56.63.83.1333-.1639.2289-.3551.28-.56.0173-.2781-.0029-.5573-.06-.83-.2298-.4391-.4013-.9064-.51-1.39h.01zm-1.01 3.29c.193-.1427.342-.3367.43-.56.0434-.0908.059-.1925.0448-.2921-.0143-.0997-.0577-.1929-.1248-.2679-.1704-.1753-.2912-.3927-.35-.63-.0874.225-.2052.4369-.35.63-.0683.0744-.1125.1676-.1268.2676-.0143.1.002.2019.0468.2924.0946.2195.2424.4119.43.56zm.71-.56c.2701.2757.5083.581.71.91.0744.1128.1141.2449.1141.38s-.0397.2672-.1141.38c-.2202.3088-.503.5678-.83.76.1972-.2951.2953-.6454.28-1-.0755-.2433-.1691-.4807-.28-.71-.0123-.25.0322-.4996.13-.73l-.01.01zm1.01-.36c-.1362.1813-.2067.4034-.2.63.0135.282.0639.5611.15.83.1508.4126.3382.8108.56 1.19.1448-.1931.2626-.405.35-.63-.2-.28-.35-.56-.56-.83-.21-.27-.23-.83-.3-1.19zm.23-.2c.1433.7456.4248 1.4579.83 2.1.1137.2106.272.3939.4636.5372.1917.1433.4123.2432.6464.2928.2065-.0098.4048-.0833.5678-.2105.1629-.1271.2825-.3016.3422-.4995.0707-.1826.0941-.3802.0678-.5743-.0262-.1941-.1011-.3784-.2178-.5357-.0439.1766-.1322.3391-.2564.4721-.1243.133-.2804.2321-.4536.2879-.53-.05-1.24-.68-2-1.87"/>
		<path d="M77 18.2c-.0695.2621-.0695.5379 0 .8.0268.145.0832.283.1658.4052.0826.1221.1896.2259.3142.3048.1624.0944.3537.1261.5379.0893.1841-.0369.3485-.1397.4621-.2893l.08-.08c-.3512-.0318-.6857-.165-.9626-.3834-.277-.2184-.4845-.5125-.5974-.8466zm-2.5 3.49c.1818-.0592.3351-.184.43-.35.1366-.255.2055-.5408.2-.83-.0763-.23-.195-.4437-.35-.63-.0775.0864-.1731.1547-.28.2-.0872-.0749-.1809-.1418-.28-.2-.1448.1931-.2626.405-.35.63-.03.1445-.0276.2939.007.4374.0345.1435.1005.2776.193.3926.08.23.23.28.43.35zm0 2.1c.08-.35.71-.91.71-1.26s-.43-.43-.71-.63c-.28.2-.56.15-.71.63 0 .28.63.91.71 1.26zm.76-.76c-.2671.3346-.4797.7092-.63 1.11.0137.5189.1619 1.0255.43 1.47.3196-.2659.5643-.6106.71-1 .0481-.2896.0269-.5864-.0617-.8662-.0887-.2798-.2423-.5347-.4483-.7438v.03zm.71.45c-.1217-.3388-.3123-.6487-.56-.91-.0736-.2992-.0434-.6144.0856-.8942.129-.2798.3491-.5075.6244-.6458.2264.3486.4142.7207.56 1.11.05.58-.51.86-.71 1.34zm1.26-2.38c.1532.2174.3426.4068.56.56v.71c-.1094.4081-.2533.8062-.43 1.19-.2179-.2691-.381-.5782-.48-.91-.0577-.2728-.0845-.5512-.08-.83.08-.08.28-.51.43-.71v-.01zm1.19 2.01c.2945-.4254.4925-.9101.58-1.42-.151.0847-.3186.1357-.4912.1495-.1727.0138-.3462-.0099-.5088-.0695-.0758.2986-.0758.6114 0 .91.124.1764.2683.3375.43.48l-.01-.05zm-.07.2c-.15-.15-.28-.2-.35-.35-.15.28-.28.56-.43.83.15 0 .28 0 .35-.08.1299-.1471.2739-.2811.43-.4zM76.72 23c.2126.3498.4499.684.71 1-.0755.2433-.1691.4807-.28.71-.169.3055-.3812.5851-.63.83-.1708-.2616-.3149-.5396-.43-.83-.1061-.2207-.1377-.4698-.09-.71.15-.35.58-.71.71-1.06l.01.06zm-2.22 4.43c.1806-.268.3475-.5451.5-.83.0678-.1943.0678-.4058 0-.6-.08-.2-.43-.71-.48-.83-.1938.2633-.3676.5408-.52.83-.075.2033-.075.4267 0 .63.13.43.48.63.48.83l.02-.03zm1.37-2.5c-.232.3058-.4205.6424-.56 1-.049.2128-.0206.4361.08.63.08.15.28.48.43.76.2821-.2137.5001-.5008.63-.83.0429-.1367.0579-.2805.0442-.4231-.0138-.1426-.056-.281-.1242-.4069-.08-.2-.35-.4-.51-.71l.01-.02zm1.46-.03c-.1969.2536-.3584.5328-.48.83-.0738.1258-.1128.2691-.1128.415 0 .1459.039.2892.1128.415.15.28.28.48.35.63.2031-.2234.3655-.4806.48-.76.075-.2716.075-.5584 0-.83-.1466-.2207-.2643-.4593-.35-.71v.01zm-2.83 6.6c.2792-.6023.4679-1.2425.56-1.9-.0741-.4858-.2664-.9459-.56-1.34-.3271.3741-.5237.8444-.56 1.34.0697.6621.2595 1.3059.56 1.9zm.83-4.63c.3133.3694.542.8029.67 1.27-.1093.4308-.2531.8522-.43 1.26-.2025-.205-.3653-.4457-.48-.71-.0967-.1284-.1646-.2762-.1991-.4332-.0345-.157-.0348-.3197-.0009-.4768-.0185-.1734.0088-.3486.0789-.5082.0702-.1597.1809-.2982.3211-.4018h.04zm1.3-.08c-.2149.313-.3363.6806-.35 1.06.1498.3527.3375.688.56 1 .1481-.2623.2655-.5408.35-.83.0063-.2312-.041-.4607-.1382-.6706-.0971-.2099-.2415-.3945-.4218-.5394"/>
		<path d="M75 32.89c.0906-.4845.2524-.9529.48-1.39.0435-.2068.0409-.4205-.0075-.6262-.0483-.2056-.1414-.3981-.2725-.5638-.1907.6236-.428 1.232-.71 1.82-.2714-.5926-.5084-1.2002-.71-1.82-.1311.1657-.2242.3582-.2725.5638-.0484.2057-.051.4194-.0075.6262.2081.4473.3755.9126.5 1.39-.0098.2065-.0833.4048-.2105.5678-.1271.1629-.3016.2825-.4995.3422.1744.0687.3665.0785.547.028.1806-.0506.3396-.1587.453-.308.0864-.0775.1547-.1731.2-.28.0749.0872.1418.1809.2.28.1123.1506.2713.2598.4523.3105.1809.0506.3735.0399.5477-.0305-.1654-.0997-.3091-.2316-.4225-.3879-.1134-.1564-.1941-.3339-.2375-.5221H75zm-2.27-4.4c.08.2.28.71.35.83.0272.183-.0048.3699-.0911.5336-.0863.1636-.2225.2955-.3889.3764-.188-.1135-.3378-.2807-.43-.48-.0462-.0902-.0633-.1924-.049-.2927.0144-.1003.0594-.1937.129-.2673.1085-.2677.272-.5096.48-.71v.01zm1 .99c-.033.4312-.1273.8554-.28 1.26-.1063.2242-.261.4222-.4529.5795-.1919.1574-.4164.2702-.6571.3305-.2302-.039-.4468-.1352-.63-.28.0177-.1296.0723-.2514.1575-.3507.0851-.0994.1971-.172.3225-.2093.6364-.2816 1.1731-.7486 1.54-1.34v.01zm-1.34.99c-.0872-.0749-.1809-.1418-.28-.2-.2485.0909-.4866.2082-.71.35-.2899.2139-.5461.4701-.76.76.2476.0763.5124.0763.76 0 .0545-.2586.2091-.4851.43-.63.167-.1284.3571-.2235.56-.28zm-.39-.38c-.1361-.1813-.2067-.4034-.2-.63l-.83.56c-.2674.2038-.5062.4426-.71.71.272-.0848.5492-.1516.83-.2.35-.15.63-.28.91-.43v-.01zm-1.11.72c-.4808.1525-.9721.2695-1.47.35-.3421.1476-.6514.3617-.91.63l.76.2c.2596-.1878.5377-.3487.83-.48.3043-.1829.5694-.4242.78-.71l.01.01zm-.72 2.29c.15-.08.15-.2.08-.35-.1169-.1665-.2857-.2896-.48-.35-.43-.15-.91-.28-1.34-.43-.0749.0872-.1418.1809-.2.28 0 .08 0 .15.15.15h.91c.0493.0419.0837.0986.0981.1617.0145.0631.0081.1291-.0181.1883.1299-.0824.277-.1337.43-.15.096.053.1796.126.2451.2139.0655.088.1115.1889.1349.2961l-.01-.01zm-.7-1.1c.2476.0627.4862.1568.71.28.08-.08.15-.08.2-.15.1315-.2347.3253-.4285.56-.56-.1221.0097-.2442-.0182-.35-.08-.15.08-.28.08-.43.15-.2434.0808-.4728.1989-.68.35l-.01.01zm2.01-.49c-.08.08-.2.08-.35.08-.3731.2225-.6455.5809-.76 1-.0457.1207-.042.2546.0105.3726.0524.1179.1493.2104.2695.2574.1484.0652.3157.0726.4692.0208.1536-.0518.2823-.1591.3608-.3008 0-.08.08-.08.08-.15-.0512.0414-.1101.0722-.1732.0909-.0632.0186-.1294.0246-.1948.0176-.0655-.007-.1289-.0268-.1868-.0582-.0578-.0315-.1088-.0741-.1502-.1253-.0835-.1034-.1226-.2358-.1085-.368.0141-.1323.0801-.2535.1835-.337.08 0 .08-.08.15-.08.2258-.1453.4919-.2154.76-.2-.15-.08-.28-.2-.35-.2"/>
		<path d="M66.94 37c.086-.3433.2032-.678.35-1 .35-.71 1.06-2.45 2.65-2.73.15 0-.15-.43-.35-.35-.2029.0565-.393.1516-.56.28v-.43c0-.08-.08-.08-.15-.08-.1961.0035-.3884.055-.56.15-.5442.7417-.988 1.5521-1.32 2.41-.35.83-.56 1.11-1 1-.44-.11-.56-.56-1.26-.43-.2726.0732-.5188.2223-.71.43.0353.0798.0983.144.1774.1808s.1689.0436.2526.0192c.4203.0113.8305.1319 1.19.35.4257.099.8563.1758 1.29.23V37zm6.37-5.48c.0481.2796.1688.5417.35.76 0 0-.48 2.25-2.25 2.45.0753-.3374.2753-.6339.56-.83.56-.35 1.34-.91 1.26-1.74-.1608.0934-.3059.2115-.43.35-.28.35-.76 1.26-1.67 1.26.0831-.2804.2507-.5284.48-.71.4135-.2252.7748-.5353 1.06-.91.1278-.2787.3513-.5022.63-.63h.01zm-.84 8.24l1.06 1.54.83-1.47-.28-.48-.56 1.06-.71-1.06-.35.4"/>
		<path d="M72.2 38.48L69.75 35l.43-.28-1.26-.48v1.39l.43-.35 2.58 3.64.28-.43-.01-.01zm-8.81-8.23c.35-.35.83-.08 1.39.48.56.56.91 1 .56 1.34-.35.34-.83.08-1.39-.43-.56-.51-.83-1-.56-1.39z"/>
		<path d="M64.29 36.38c-.159-.1364-.2849-.3073-.3681-.4996-.0831-.1923-.1214-.4011-.1119-.6104-.0167-.2026.0087-.4064.0747-.5986.066-.1923.1712-.3687.3089-.5182.1376-.1496.3048-.2689.491-.3506.1861-.0816.3872-.1237.5904-.1237.2033 0 .4043.0421.5904.1237.1862.0817.3534.201.491.3506.1377.1495.2429.3259.3089.5182.066.1922.0914.396.0747.5986v.28c.0969-.262.214-.516.35-.76-.1337-.4787-.4487-.8865-.8781-1.1367-.4295-.2502-.9395-.3231-1.4219-.2033-.5126.1642-.94.5234-1.19 1 .0826-.6196.3471-1.2008.76-1.67.2488-.1918.5299-.3374.83-.43-.2561.0007-.5091-.0554-.7408-.1644-.2317-.1089-.4364-.268-.5992-.4656-.3976-.2836-.6699-.71-.76-1.19.0621.3767.0098.7633-.15 1.11-.4099.7762-.5771 1.6576-.48 2.53.1903.8344.6297 1.5912 1.26 2.17.0693.0751.1227.1634.157.2596.0344.0962.049.1984.043.3004h1.34s.28 0 .28-.2-.15-.2-.28-.2c-.3367.0355-.677.0015-1-.1l.03-.02zm5.76.32c-.6563.2005-1.3242.3608-2 .48-.3935.0621-.7917.0889-1.19.08v.2c.0269.0257.0479.0568.0617.0913s.02.0716.0183.1087c.4215.0109.8432-.0159 1.26-.08.7502-.0906 1.484-.2858 2.18-.58l-.3-.33-.03.03zm1.17-.03c1.0762-.5537 1.9715-1.4038 2.58-2.45l.15-.2c-.0744.0378-.1566.0574-.24.0574s-.1656-.0196-.24-.0574l-.08.15c-.6196.9209-1.4359 1.6928-2.39 2.26l.2.25.02-.01zm-6.02.41h-.76c-.0499-.015-.1024-.0196-.1541-.0134-.0518.0061-.1017.0228-.1468.0491-.045.0262-.0841.0615-.1149.1035-.0308.042-.0527.09-.0642.1408-.08.15 0 .28.15.43.15.15.28.08.35 0 .2872-.141.5645-.3014.83-.48.05-.15.13-.3-.1-.23h.01zm.62.35c-.1083-.055-.2285-.0825-.35-.08-.2777.1511-.5334.3395-.76.56-.08.15 0 .2.15.28.0795.0618.1798.0905.28.08.1317-.0029.2571-.0567.35-.15.08-.08.35-.43.43-.48-.0178-.0734-.052-.1417-.1-.2v-.01zm.08.36c-.08.08-.35.43-.35.43s0 .08.08.15h.08c.2506 0 .4963-.0692.71-.2.23-.13.43-.48.2-.56-.0577-.0373-.1225-.0623-.1904-.0734-.0678-.0112-.1372-.0082-.2038.0087-.0666.0169-.1291.0473-.1834.0894-.0543.0421-.0994.095-.1324.1553h-.01zm.16-.91c-.0654-.0377-.1395-.0576-.215-.0576-.0755 0-.1496.0199-.215.0576-.08.15 0 .28.2.35.1131.0683.2397.1108.3711.1247.1313.0138.2641-.0015.3889-.0447.1-.08-.05-.3-.53-.43zm10.34-8.39c-.08.2-.28.71-.35.83-.0271.183.0048.3699.0911.5336.0863.1636.2225.2955.3889.3764.188-.1135.3378-.2807.43-.48.0462-.0902.0633-.1924.049-.2927-.0144-.1003-.0594-.1937-.129-.2673-.2-.3-.35-.51-.48-.71v.01zm-1.06.99c.0226.4406.1421.8708.35 1.26.1063.2242.261.4222.4529.5795.1919.1574.4164.2702.6571.3305.2302-.039.4468-.1352.63-.28-.0118-.1255-.0582-.2453-.1342-.346-.0759-.1006-.1783-.1782-.2958-.224-.6594-.2786-1.2227-.7445-1.62-1.34"/>
		<path d="M76.6 30.44c.0872-.0749.1809-.1418.28-.2.2485.0909.4866.2082.71.35.2899.2139.5461.4701.76.76-.2476.0763-.5124.0763-.76 0-.0545-.2586-.2091-.4851-.43-.63-.08-.13-.28-.2-.56-.28zm.43-.35c.1457-.2069.2162-.4574.2-.71l.83.56c.2674.2038.5062.4426.71.71-.272-.0848-.5492-.1516-.83-.2-.3095-.0868-.5962-.2404-.84-.45l-.07.09zm1.07.69c.4808.1525.9721.2695 1.47.35.3421.1476.6514.3618.91.63l-.76.2c-.2596-.1878-.5377-.3486-.83-.48-.3094-.1759-.5759-.4184-.78-.71l-.01.01zm.69 2.29c-.15-.08-.15-.2-.08-.35.1169-.1665.2857-.2896.48-.35.43-.15.91-.28 1.34-.43.0749.0872.1418.1809.2.28 0 .08 0 .15-.15.15h-.91c-.0493.0419-.0837.0986-.0981.1617-.0145.0631-.0081.1291.0181.1883-.1299-.0824-.277-.1337-.43-.15-.1872.1152-.3232.2977-.38.51l.01-.01zm.74-1.07c-.2476.0627-.4862.1568-.71.28-.039-.0024-.0758-.0189-.1034-.0466-.0277-.0276-.0442-.0644-.0466-.1034-.1315-.2347-.3253-.4285-.56-.56.1221.0097.2442-.0182.35-.08.15.08.28.08.43.15.2229.0919.4343.2093.63.35l.01.01zm-2.01-.49c.08.08.2.08.35.08.3731.2225.6455.5809.76 1 .0457.1207.042.2546-.0105.3726-.0524.1179-.1493.2105-.2695.2574-.1484.0652-.3157.0726-.4692.0208-.1536-.0518-.2823-.1591-.3608-.3008 0-.08-.08-.08-.08-.15.1034.0835.2358.1226.368.1085.1322-.014.2535-.0801.337-.1835.0835-.1034.1226-.2358.1085-.368-.0141-.1322-.0801-.2535-.1835-.337-.08 0-.08-.08-.15-.08-.2258-.1453-.4919-.2154-.76-.2.15-.08.28-.2.35-.2l.01-.02zM82.14 37c-.0892-.3436-.2098-.6783-.36-1-.35-.71-1.06-2.45-2.65-2.73-.15 0 .15-.43.35-.35.2029.0565.393.1516.56.28v-.43c0-.08.08-.08.15-.08.0986-.0164.1997-.0116.2963.0143.0966.0259.1865.0722.2637.1357.5543.753 1.0049 1.5771 1.34 2.45.35.83.56 1.11 1 1 .44-.11.63-.56 1.26-.43.2726.0732.5188.2223.71.43-.0353.0798-.0983.144-.1774.1808s-.1689.0436-.2526.0192c-.4203.0113-.8305.1319-1.19.35-.4533.1-.8833.1767-1.29.23l-.01-.07zm-6.45-5.5c-.0481.2796-.1688.5417-.35.76 0 0 .48 2.25 2.25 2.45-.0753-.3374-.2753-.6339-.56-.83-.56-.35-1.34-.91-1.26-1.74.1608.0934.3059.2115.43.35.28.35.76 1.26 1.67 1.26-.0831-.2804-.2507-.5284-.48-.71-.4135-.2252-.7748-.5353-1.06-.91-.1352-.2734-.3566-.4948-.63-.63h-.01zm-1.19 2.15c.2829.5584.6394 1.0764 1.06 1.54.28.28 1 1 1.39 1.34-.6143-.1412-1.1865-.4256-1.67-.83-.2343.1385-.4918.2334-.76.28-.2709-.036-.5305-.1317-.76-.28-.4741.4186-1.0501.7048-1.67.83.35-.35 1.11-1.06 1.39-1.34.4565-.422.8002-.9514 1-1.54"/>
		<path d="M74.5 36.18c.217-.014.43-.0647.63-.15-.1299.3292-.3479.6163-.63.83-.2655-.2298-.4801-.5125-.63-.83.2.0853.413.136.63.15z"/>
		<path d="M75.41 41.29l4.27-5.94.43.35v-1.39l-1.26.48.43.28-3.77 5.31-2-3.49-.2.35-1.67 2.58-.43-.28v1.39l1.34-.48-.43-.28 1.47-2.25 1.82 3.36"/>
		<path d="M76.17 38.91l-.71-1.11c-.08.2-.35.56-.56 1.06l-.28-.56.83-1.47.2.35.76 1.34-.25.38.01.01zm.9.34l.28.48.43-.28v1.39l-1.34-.48.43-.28-.2-.28.4-.56v.01zm8.55-9.01c-.35-.35-.83-.08-1.39.48-.56.56-.91 1-.56 1.34.35.34.83.08 1.39-.43.56-.51.83-1 .56-1.39z"/>
		<path d="M84.79 36.38c.159-.1364.2849-.3073.3681-.4996.0831-.1923.1214-.4011.1119-.6104-.0304-.3676-.1979-.7104-.4693-.9603s-.6268-.3886-.9957-.3886-.7243.1387-.9957.3886-.4389.5927-.4693.9603v.28c-.08-.15-.35-.71-.35-.76.1337-.4787.4487-.8864.8781-1.1366.4295-.2502.9395-.3232 1.4219-.2034.5126.1642.94.5234 1.19 1-.0826-.6196-.3471-1.2007-.76-1.67-.2488-.1917-.5299-.3374-.83-.43.2561.0007.5091-.0554.7408-.1644.2317-.1089.4364-.268.5992-.4656.4035-.2841.6798-.7148.77-1.2-.0621.3767-.0098.7633.15 1.11.4099.7762.5771 1.6576.48 2.53-.1903.8344-.6297 1.5912-1.26 2.17-.0693.0751-.1227.1634-.157.2596-.0344.0962-.049.1984-.043.3004H83.8s-.28 0-.28-.2.15-.2.28-.2c.3366.0275.6755-.0064 1-.1l-.01-.01zm-6.92.31c-1.0602-.5759-1.9501-1.4209-2.58-2.45l-.15-.2c.0744.0378.1566.0575.24.0575s.1656-.0197.24-.0575l.08.15c.6179.9162 1.4306 1.6845 2.38 2.25l-.2.25h-.01zm1.01 0c.6563.2005 1.3242.3608 2 .48.3935.0622.7917.0889 1.19.08v.2c-.0269.0257-.0479.0568-.0617.0913s-.02.0716-.0183.1087c-.4215.0109-.8432-.0159-1.26-.08-.7327-.0919-1.4493-.2837-2.13-.57l.3-.33-.02.02zm4.85.38h.76c.205-.0048.4044.0665.56.2.0015.0895-.0155.1783-.0499.2609-.0344.0826-.0855.1572-.1501.2191-.15.08-.28.08-.35 0-.2872-.141-.5645-.3014-.83-.48-.05-.05-.13-.28.08-.2h-.02zm-.61.35c.134-.0633.2822-.0908.43-.08.2777.1511.5334.3395.76.56.08.15 0 .2-.15.28-.0795.0618-.1798.0905-.28.08-.1317-.0029-.2571-.0567-.35-.15-.08-.08-.35-.43-.43-.48.0137-.066.0137-.134 0-.2l.02-.01zm-.12.38c.08.08.35.43.35.43s0 .08-.08.15h-.08c-.2506 0-.4963-.0692-.71-.2-.2-.15-.43-.48-.2-.56.0567-.0405.1216-.0681.1901-.081.0685-.0128.139-.0106.2066.0065s.1306.0488.1847.0927c.0541.044.098.0992.1286.1618H83zm-.16-.91c.0654-.0377.1395-.0576.215-.0576.0755 0 .1496.0199.215.0576.08.15 0 .28-.2.35-.1122.0703-.239.1141-.3707.1279-.1317.0139-.2649-.0025-.3893-.0479-.1-.08.05-.3.53-.43z"/>
		<path d="M145.67 14.69c-.2-1.9-1.11-2.86-3.21-2.86h-2.65l-.35 10.72h2s.2-5 .2-5.18h2.45c0 .2.43 5.18.43 5.18h2c-.08-.08-.78-7.43-.86-7.86h-.01zm-3.99.86c0-.2.08-1.74.08-2h.35c1.39 0 1.67.28 1.82 2h-2.25zm-19.6 13.86c-.2-1.9-1.11-2.86-3.21-2.86h-2.65l-.35 10.72h2s.2-5 .2-5.18h2.45c0 .2.43 5.18.43 5.18h2c-.08-.1-.78-7.46-.86-7.86h-.01zm-3.99.83c0-.2.08-1.74.08-2h.35c1.39 0 1.67.28 1.82 2h-2.25zm-10.57-18.41v10.7h2v-9h2.38v9h2v-10.7h-6.38zm20.81 3.72h-1.06c-.355.0153-.705-.0828-1-.28-.069-.0751-.123-.1634-.157-.2596-.034-.0963-.049-.1984-.043-.3004v-2.88h-2v3.08c-.011.3354.058.6685.202.9714.145.3029.36.5665.628.7686.558.4724 1.269.7249 2 .71h1.39v5.18h2V11.83h-2v3.72h.04zm4.11-3.72v1.74h1.62v9h2v-9h1.62v-1.74h-5.24zm-2.88 14.61v3.44h-2.73v-3.43h-1.95v10.72h1.95v-5.46h2.73v5.46h2V26.45l-2-.01zM110.4 30h-.91v-1.71H113v-1.74h-5.46v10.72h3c.472.0065.939-.0846 1.374-.2676.435-.1831.827-.454 1.152-.7958.325-.3419.576-.7473.736-1.1907.161-.4434.228-.9152.198-1.3859-.08-1.21-.48-3.59-3.57-3.59l-.03-.04zm-.25 5.55c-.2 0-.71-.08-.71-.08v-3.76h.35c1 0 2.17-.08 2.17 1.9 0 1.82-1.26 1.95-1.82 1.95l.01-.01zm12.51-18.75c.014-1.1844-.228-2.3579-.71-3.44-.22-.5419-.598-1.0052-1.085-1.3297s-1.06-.4953-1.645-.4903h-.08c-.583.0055-1.151.1805-1.636.5037-.485.3232-.865.7806-1.094 1.3163-.477 1.0836-.719 2.256-.71 3.44v.35c-.025.8733.093 1.7449.35 2.58.56 2.17 1.74 2.93 3.08 3h.08c1.34 0 2.53-.76 3.08-3 .216-.8437.333-1.7094.35-2.58v-.35h.02zm-5.02.35c0-2.86.71-3.84 1.47-3.84s1.47 1 1.47 3.84-.71 3.77-1.47 3.77-1.39-1-1.47-3.77zm23.59 20l-2.38-6.3c.565-.4286.97-1.0342 1.15-1.72.15-.71.35-2.65.35-2.65h-2c0 .2-.08.83-.15 1.54-.08 1.06-.43 2-1.39 2h-.71V26.5h-2v10.67h2v-5.46h1.19l2 5.46 1.94-.02z"/>
	</g>
</svg>
