<svg xmlns="http://www.w3.org/2000/svg" viewBox="0 0 200 50">
	<path fill="#B49F64" d="M41.3396 33.7463c0 1.4685-1.1873 2.687-2.6558 2.687H22.6557C21.1873 36.4021 20 35.2148 20 33.7463V17.687C20 16.2185 21.1873 15 22.6557 15h15.9969c1.4685 0 2.6557 1.2185 2.6557 2.687v16.0593h.0313z"/>
	<path fill="#fff" d="M30.6542 24.3732c.7499 0 1.3435.5936 1.3435 1.3434 0 .7499-.5936 1.3435-1.3435 1.3435-.7498 0-1.3435-.5936-1.3435-1.3435.0313-.7498.6249-1.3434 1.3435-1.3434zm1.9996-2.687c-.7498 0-1.3435.5936-1.3435 1.3435 0 .7498.5937 1.3435 1.3435 1.3435.7499 0 1.3435-.5937 1.3435-1.3435 0-.7499-.5936-1.3435-1.3435-1.3435zm-3.9992 0c-.7498 0-1.3435.5936-1.3435 1.3435 0 .7498.5937 1.3435 1.3435 1.3435.7499 0 1.3435-.5937 1.3435-1.3435 0-.7499-.5936-1.3435-1.3435-1.3435zm5.9988-2.687c.7499 0 1.3435.5936 1.3435 1.3435 0 .7499-.5936 1.3435-1.3435 1.3435-.7498 0-1.3434-.5936-1.3434-1.3435.0312-.7499.6248-1.3435 1.3434-1.3435zm-3.9992 0c.7499 0 1.3435.5936 1.3435 1.3435 0 .7499-.5936 1.3435-1.3435 1.3435-.7498 0-1.3435-.5936-1.3435-1.3435.0313-.7499.6249-1.3435 1.3435-1.3435zm-2.6557 1.3435c0 .7499-.5936 1.3435-1.3435 1.3435-.7498 0-1.3435-.5936-1.3435-1.3435 0-.7499.5937-1.3435 1.3435-1.3435.7499 0 1.3435.5936 1.3435 1.3435zm4.6553 6.6862c-.7498 0-1.3435.5936-1.3435 1.3435 0 .7498.5937 1.3435 1.3435 1.3435.7499 0 1.3435-.5937 1.3435-1.3435 0-.7186-.5936-1.3435-1.3435-1.3435zm-3.9992 0c-.7498 0-1.3435.5936-1.3435 1.3435 0 .7498.5937 1.3435 1.3435 1.3435.7499 0 1.3435-.5937 1.3435-1.3435 0-.7186-.5936-1.3435-1.3435-1.3435zm5.9988 2.687c.7499 0 1.3435.5936 1.3435 1.3435 0 .7186-.5936 1.3434-1.3435 1.3434-.7498 0-1.3434-.6248-1.3434-1.3434.0312-.7499.6248-1.3435 1.3434-1.3435zm-3.9992 0c.7499 0 1.3435.5936 1.3435 1.3435 0 .7186-.5936 1.3434-1.3435 1.3434-.7498 0-1.3435-.6248-1.3435-1.3434.0313-.7499.6249-1.3435 1.3435-1.3435zm-3.9992 0c.7499 0 1.3435.5936 1.3435 1.3435 0 .7186-.5936 1.3434-1.3435 1.3434-.7498 0-1.3435-.6248-1.3435-1.3434.0313-.7499.6249-1.3435 1.3435-1.3435z"/>
	<path fill="#508B36" d="M56.6492 35.0586V19.1242h-4.2804v15.9344h-3.0307V16.3435h10.3105v18.7151h-2.9994zm23.5579 0v-7.561h-.25l-4.1866 7.561H72.896V21.6862h2.9994v7.9985h.25l4.1867-7.9985h2.8744v13.3724h-2.9994zm14.5596 0v-6.9049h-.3436l-2.0309 3.6868h-1.7184l-2.0309-3.6868h-.3436v6.9049h-2.9995V21.6862h2.7183l3.4056 6.655h.2811l3.3744-6.655h2.7182v13.3724h-3.0307zm70.2053 0v-5.4989h-3.437v5.4989h-2.999V21.6862h2.999v5.0928h3.437v-5.0928h2.999v13.3724h-2.999zm11.997 0l-.687-3.843c-.156-.9061-1.062-1.6559-1.968-1.6559h-1.406v5.4989h-3V21.6862h3v5.2802h.875c.937 0 1.843-.7186 2.03-1.6559l.75-3.6243h3l-.969 4.218c-.187.7811-.843 1.4997-1.656 1.7809l-.156.0624v.3125l.156.0312c.969.1562 1.812.9686 2.031 1.9059L180 35.0586h-3.031zm-60.644-10.8729c-1.094 0-1.718.6562-1.718 1.8434v4.7491c0 1.156.624 1.8434 1.718 1.8434 1.094 0 1.718-.6561 1.718-1.8434v-4.7803c0-1.156-.624-1.8122-1.718-1.8122zm0 11.0916c-2.874 0-4.749-1.6872-4.749-4.3116v-5.1553c0-2.6245 1.875-4.3116 4.749-4.3116 2.874 0 4.718 1.6871 4.718 4.3116v5.1865c0 2.5932-1.844 4.2804-4.718 4.2804zm36.493-5.9363c-2.093 0-2.281.6249-2.281 1.6247 0 1.4997.75 1.7184 1.406 1.7184.219 0 .469-.0313.781-.125.969-.2812 1.406-.7811 1.437-.8123l.032-.1563v-2.2183h-1.375v-.0312zm-2.062 5.9363c-2.156 0-3.218-1.3747-3.218-4.1554 0-2.7495 1.437-4.1555 4.28-4.1555h2.156v-1.1872c0-1.6872-.844-1.8434-1.719-1.8434-.906 0-1.562.5624-1.968 1.6872l-2.656-.7186c.813-2.2184 2.5-3.4681 4.624-3.4681 2.156 0 4.718.7186 4.718 4.2179v9.4044h-2.624l-.25-1.4372-.313.3124c.032.0313-1.218 1.3435-3.03 1.3435zm-19.496 2.4683v-2.687h-8.592V21.6862h2.999v10.5605h3.437V21.6862h2.999v10.5605h1.719l-.219 5.4989h-2.343zM66.3348 24.0608c-.0937 0-.1875 0-.3124.0312-1.0311.1562-1.4372 1.0623-1.4685 1.0935v6.4988l.0625.0625c.2812.3436 1.031.7498 1.6559.7498 1.0936 0 1.7184-.6249 1.7184-1.7184v-5.2177c0-.8749-.6873-1.4997-1.6559-1.4997zm-4.5616 15.122V21.6862h2.6245l.2812 1.4997.2812-.3749s1.0623-1.3435 2.8432-1.3435c2.1558 0 3.2181 1.3435 3.2181 4.1555v5.9988c0 2.0933-1.2498 3.4368-3.2181 3.4368-1.406 0-2.6558-.8748-2.687-.8748l-.3437-.25v5.2178h-2.9994v.0312zm48.6468-9.0295c0 2.7807-1.531 5.124-5.343 5.124-3.249 0-5.3425-1.9059-5.3425-4.874v-9.3107c0-2.9682 2.0935-4.874 5.3425-4.874 3.843 0 5.187 2.5932 5.187 5.3427l-3.062.3436c-.094-1.156-.344-2.9681-2.218-2.9681-1.406 0-2.219.8748-2.219 2.3745v8.8108c0 1.5934.844 2.4682 2.343 2.4682 1.969 0 2.25-1.4997 2.344-2.7494l2.968.3124zm30.838-7.1236h-2.812v-3.8742h6.842v-2.812h-9.842v18.7151h5.812c3.811 0 5.124-2.4058 5.124-6.0301 0-3.5618-1.313-5.9988-5.124-5.9988zm-.594 9.2482h-2.218v-6.4362h2.218c2.343 0 2.531.9685 2.531 3.2181 0 2.2495-.188 3.2181-2.531 3.2181z"/>
</svg>
