<svg xmlns="http://www.w3.org/2000/svg" viewBox="0 0 200 50">
	<path fill="#e00025" d="M16.8 26.5v.1h5.4v-.1c-1 0-1-1.3-1-1.8v-8.4c0-.5 0-1.8 1-1.8v-.1H10v.1c1 0 1 1.3 1 1.8v8.4c0 .5 0 1.8-1 1.8v.1h5.4v-.1c-1 0-1-1.3-1-1.8V15h3.5v9.6c-.1.6-.1 1.9-1.1 1.9zM24.3 28.6c0 .5-.3.9-.6 1H28c-.1 0-.4-.1-.5-.3-.1-.3-.3-.5-.3-.8v-2.8l.4.5c.4.4 1 .6 1.5.5 1.5 0 3.1-1.5 3.1-4.8.1-2.2-.8-4.4-2.7-4.4-.8 0-1.4.4-1.9 1l-.4.4v-1.4l-3.6.5c.4.1.8.5.6 1v9.6zm2.8-8.3c0-.4 0-1.4.9-1.4s1.2 1 1.2 3.6c.1 1.2 0 2.2-.6 3.2-.1.1-.4.3-.5.3-.9 0-.9-1-.9-1.4v-4.3zM38 27c.6 0 4.2-.3 4.2-4.6 0-2.8-1.7-4.6-4.2-4.6s-4.2 1.8-4.2 4.6c0 4.3 3.6 4.6 4.2 4.6zm-1.3-5c0-1.3 0-3 .6-3.5.3-.3.8-.4 1.2 0 .6.6.6 2.3.6 3.5v.8c0 1.3 0 3-.6 3.6-.3.3-.8.4-1.2 0-.6-.6-.6-2.3-.6-3.5V22zM46.6 27c.6 0 1.2-.1 1.5-.5l.4-.4v2.6c0 .4 0 1.2-.6 1.3h4.2c-.3 0-.4-.1-.5-.4-.1-.3-.3-.6-.1-.9v-2.6l.4.4c.4.4 1 .6 1.5.5 2.1 0 3-2.3 3-4.6 0-1.8-.6-4.6-3-4.6-.6 0-1.2.1-1.5.6l-.4.4V14h-3.6c.6.1.6.9.6 1.3v3.5l-.4-.4c-.4-.4-1-.6-1.5-.6-2.3 0-3 3-3 4.6.1 2.3 1 4.6 3 4.6zm4.6-6.8c0-.4 0-1.4.9-1.4s1.2 1 1.2 3.5-.4 3.6-1.2 3.6c-.9 0-.9-.9-.9-1.4v-4.3zm-3.3-1.4c.8 0 .9.9.9 1.4v4.4c0 .5 0 1.4-.9 1.4s-1.2-1-1.2-3.6.4-3.6 1.2-3.6zM61.6 27c1.4 0 2.7-.9 3.5-2.2l-.3-.1c-.4.5-1 .9-1.8.9-1 0-2.2-.5-2.2-3.3v-.4h4.6c0-1.2-.4-2.3-1-3.2-.8-.6-1.7-.9-2.6-.9-2.4 0-4.1 1.9-4.1 4.9.1 2.5 1.6 4.3 3.9 4.3zm-.7-5.9c0-1 0-2.8 1-2.8.6 0 .9.9 1 2.8v.3h-2.1v-.3zM70.6 27c1.4 0 2.7-.8 3.5-1.9l-.3-.4c-.4.4-1 .6-1.7.6-2.3 0-2.4-3.1-2.4-3.7 0-1 .1-3.3 1.3-3.3.3 0 .6.1.6.9l.1.6c0 .4.1 1.5 1.3 1.5.8 0 1.2-.5 1.2-1.3 0-2.2-2.6-2.3-3.1-2.3-2.4 0-4.5 2.1-4.4 4.5v.3c.1 2.5 1.8 4.5 3.9 4.5zM79.4 27c1.4 0 2.7-.8 3.5-1.9l-.3-.4c-.4.4-1 .6-1.7.6-2.3 0-2.4-3.1-2.4-3.7 0-1 .1-3.3 1.3-3.3.3 0 .6.1.6.9l.1.6c0 .4.1 1.5 1.3 1.5.8 0 1.2-.5 1.2-1.3 0-2.2-2.6-2.3-3-2.3-2.4 0-4.5 2.1-4.5 4.5v.3c0 2.5 1.7 4.5 3.9 4.5zM84.1 26.6h4.2c-.4-.1-.8-.5-.6-1l1.8-4.4h.5v4.1c0 .4 0 1.2-.6 1.3h4.4c-.6-.1-.6-.9-.6-1.3v-5.9c0-.4 0-1.2.6-1.3h-4.4c.4.1.6.5.6 1l-1.8 4.2h-.5v-4c0-.4 0-1.2.6-1.3h-4.2c.6.1.6.8.6 1.3v6.2c.1.6-.2 1-.6 1.1zM99.2 27c.6 0 4.2-.3 4.2-4.6 0-2.8-1.7-4.6-4.2-4.6-2.6 0-4.2 1.8-4.2 4.6-.1 4.3 3.5 4.6 4.2 4.6zm-1.3-5c0-1.3 0-3 .5-3.5.3-.3.8-.4 1.2 0 .6.6.6 2.3.5 3.5l.3.8c0 1.3 0 3-.6 3.6-.3.3-.8.4-1.2 0-.6-.6-.6-2.3-.6-3.6V22zM104.6 26.6h4.2c-.3-.1-.5-.4-.5-1v-3.2h2.2v3.3c0 .6-.4.9-.5 1h4.2c-.6-.1-.6-.9-.6-1.3v-6c0-.4 0-1.2.6-1.3H110c.3.1.5.4.5 1l-.1 2.7h-2.2v-2.7c0-.6.4-.9.5-1h-4.1c.6.3.6.9.6 1.3v5.9c0 .4 0 1.2-.6 1.3zM119.5 21.6c-2.8 1-4.4 2.2-4.4 3.7 0 .9.6 1.7 1.5 1.7h.1c.9 0 1.7-.5 2.2-1.2l.1-.1h.4v.1c.3 1 1 1.2 1.7 1.2.9 0 1.7-.4 2.2-1l-.1-.1c0 .1 0 .1-.1.1s-.3-.1-.4-.1c-.1-.1-.3-.4-.3-.5v-4.8c0-1.3-.4-2.8-3.2-2.8-2.8 0-3.7 1.2-3.7 2.2-.1.8.4 1.4 1.2 1.4h.3c1.2 0 1.2-.9 1.2-1 0-.1 0-.4-.1-.5v-.1c-.1-.3-.3-.4-.3-.6 0-.4.4-.8.8-.8h.1c.4 0 1 .1 1 1.2v2.2h-.2zm0 2.5c0 .5 0 1.3-.8 1.3s-.8-.5-.8-1.2c0-.9.5-1.7 1.2-2.1l.4-.3v2.3zM133.1 18.1h-6.9c.5 0 1 .4 1 1.9v.3c0 3.3-.1 5.1-.6 5.5-.1.1-.3.1-.4.1 0 0-.4 0-.4-.5v-.2c0-.1-.1-.3-.3-.4-.1-.1-.4-.3-.6-.3-.4 0-.9.3-.9 1.2 0 .8.6 1.3 1.3 1.3 2.1 0 2.2-2.4 2.2-5.8v-2.6h2.1v6.7c0 .5 0 1.2-.6 1.3h4.2c-.6-.1-.6-.9-.6-1.3v-5.9c-.2-.4-.2-1.2.5-1.3zM148.6 23.9c-.8 0-1.5 0-2.3.3l-.4.1V17h2.1c3.7 0 4.8 2.2 5 3.6h.3l-.1-4.5H140v.1c1.3 0 1.3 1.8 1.3 2.6V31c0 .8 0 2.6-1.3 2.6v.1h8.9c3.9 0 6.2-1.9 6.2-5.1-.2-2.3-1.8-4.7-6.5-4.7zm-1.4 9c-1.4 0-1.4-1.2-1.4-1.7V25h1.1c3 0 3.2 3.1 3.2 4.1-.1 1.7-1 3.8-2.9 3.8zM164.7 32V25.9c0-1.7-.4-3.5-4-3.5s-4.6 1.5-4.6 2.8c0 .9.6 1.7 1.5 1.7h.1c1.4 0 1.5-1 1.5-1.3s0-.4-.1-.6l-.1-.3c-.1-.3-.3-.5-.3-.8 0-.5.4-.9.9-1h.1c.5 0 1.3.3 1.3 1.4V27l-.3.1c-3.3 1.2-5.1 2.7-5.1 4.5 0 1.2.8 2.1 1.9 2.1h.1c1-.1 2.1-.6 2.7-1.4l.1-.1h.5v.3c.3 1.2 1.3 1.4 2.1 1.4 1 0 2.1-.4 2.7-1.3l-.1-.1c-.3 0-.8-.1-.9-.5zm-3.6-1.7c0 .6 0 1.5-.9 1.5-.6 0-1-.5-1-1.3 0-1 .5-2.1 1.4-2.6l.5-.4v2.8zM178.2 23.3h-5c.3.1.6.4.6 1.3v3.2h-2.4v-3.2c0-.8.4-1.2.6-1.3h-4.9c.8.3.8 1 .8 1.7v7.2c0 .5 0 1.4-.8 1.7h4.9c-.3-.1-.6-.4-.6-1.3v-4h2.6v4c0 .8-.4 1.2-.6 1.3h4.9c-.8-.3-.8-1-.8-1.7V25c-.1-.6-.1-1.5.7-1.7zM188.8 32.2l-3.2-5.8 1.2-1.5c.5-.9 1.4-1.4 2.4-1.7h-4.1c.4.1.6.5.6.9 0 .5-.3 1.2-.6 1.5l-1.5 2.2h-.5v-3.3c-.1-.5.1-1 .6-1.3h-5c.8.3.8 1 .8 1.7v7.2c0 .5 0 1.4-.8 1.7h5c-.5-.3-.6-.8-.6-1.3v-3.1h.5l1.4 2.7c.1.3.3.6.4 1 0 .3-.1.5-.4.6h5v-.1c-.6-.3-.9-.8-1.2-1.4zM113.3 31.1c-5.1-.1-11.2-.1-17.6-.1-6.4 0-13.4.1-20.2.4-6.8.3-13.5.5-19.9.9-6.4.4-12.5.6-17.6 1.2-5.1.5-9.4.9-12.5 1.2-3.1.3-4.8.5-4.8.5l4.6-.1h12.3l17.6-.5 20.2-.6 37.8-1.3 12.5-.5c3.1-.1 4.8-.3 4.8-.3s-1.8-.1-4.8-.3-7.3-.4-12.4-.5z"/>
</svg>
