<svg xmlns="http://www.w3.org/2000/svg" viewBox="0 0 200 50">
	<path fill="#004" d="M34.9525 11.9151h3.9057v13.9245c0 1.1038.6792 2.4623 1.3585 3.1415 2.9717 2.9717 8.3207.8491 8.3207-3.566 0-4.8396-6.1981-6.7076-8.8302-2.9717v-4.9245c5.6038-2.8868 12.7359 1.1037 12.7359 7.8113 0 2.3773-.934 4.5849-2.5472 6.1981s-3.8208 2.5472-6.1981 2.6321c-5.434 0-8.6604-4.4151-8.6604-8.9151l-.0849-13.3302zM14.9997 46.8113h3.9056V48h-3.9056v-1.1887zm0-2.8019h3.9056v1.7831h-3.9056v-1.7831zm0-4.0754h3.9056v2.9717h-3.9056V39.934zm3.9905-14.7736c0-1.1038.6793-2.4623 1.3585-3.1415 2.9717-2.9717 8.2359-.8491 8.2359 3.566 0 4.8396-6.1981 6.7076-8.8302 2.9717v4.9245c5.6038 2.8868 12.7358-1.1037 12.7358-7.8962 0-2.3774-.9339-4.5849-2.5471-6.1981s-3.8208-2.5472-6.1981-2.6321c-5.6038-.0849-8.8302 4.5849-8.7453 9.0849V39h3.9905V25.1604zM34.9525 4.18868h3.9057V3h-3.9057v1.18868zm0 2.80189h3.9057V5.20755h-3.9057v1.78302zm0 4.07543h3.9057V8.09434h-3.9057V11.066z"/>
	<path fill="#1C1C1C" d="M69.5094 23.2075v.1699c0 .0849-.0849.0849-.1698.0849s-.1698.0849-.2547.0849h-.8491c-.0849 0-.1698 0-.2547-.0849-.0849 0-.0849-.0849-.1698-.0849 0 0-.0849-.085-.0849-.1699v-7.8113l-2.717 7.8113c0 .0849-.0849.0849-.0849.1699-.0849.0849-.0849.0849-.1698.0849s-.1698.0849-.2547.0849h-.8491c-.0849 0-.1698 0-.2547-.0849-.0849 0-.1698-.0849-.1698-.0849s-.0849-.085-.0849-.1699l-2.6321-7.8113v7.9812c0 .0849-.0849.0849-.1698.0849s-.1698.0849-.2547.0849h-.8491c-.0849 0-.1698 0-.2547-.0849-.0849 0-.0849-.0849-.1698-.0849V14.717v-.3396c0-.085.0849-.1699.1698-.2548.0849-.0849.1698-.0849.2547-.1698.0849 0 .1698-.0849.2547-.0849h1.2736c.1698 0 .4245 0 .5943.0849.1699 0 .2548.0849.4246.1698.0849.0849.2547.1698.2547.3397.0849.1698.1698.3396.1698.5094l2.0377 5.6887 2.1227-5.6887c.0849-.1698.0849-.3396.1698-.5094.0849-.1699.1698-.2548.2547-.3397.0849-.0849.2547-.1698.3396-.1698.1698 0 .3397-.0849.5095-.0849h1.2736c.0849 0 .2547 0 .3396.0849.0849 0 .1698.0849.2547.1698.0849.0849.0849.1698.1698.2548 0 .0849.0849.2547.0849.3396l-.2547 8.4905zM76.1321 20.8302c-.1698.5094-.4245.9339-.5944 1.3585-.1698.3396-.4245.5943-.6792.849-.2547.1698-.5094.3396-.7642.4246-.3396.0849-.6792.0849-.9339.0849h-.4245c-.085 0-.2548 0-.3397-.0849-.0849 0-.1698-.085-.2547-.085-.0849 0-.1698-.0849-.1698-.0849l-.0849-.0849c0-.0849-.0849-.0849-.0849-.1698v-.2547-.4245c0-.1698 0-.4246.0849-.5944.0849-.0849.0849-.1698.1698-.1698s.0849 0 .1698.0849c.0849 0 .0849.0849.1698.0849s.1698.0849.2548.0849c.0849 0 .2547.0849.3396.0849h.2547c.0849 0 .1698-.0849.2547-.1698l.2547-.2547c.0849-.1698.1698-.2547.2547-.4245l-3.1415-6.4528c-.0849-.0849-.0849-.2548-.0849-.3397v-.0849s0-.0849.0849-.0849c.0849-.0849.1698-.0849.2547-.0849H72.2264c.0849 0 .2547 0 .3396.0849.085 0 .1699.0849.1699.1698.0849.0849.0849.1698.1698.2548l1.3585 2.8867c.1698.3397.2547.5944.4245.934s.2547.5943.3396.934c.0849-.3397.1698-.6793.3396-.934.0849-.3396.2547-.6792.3397-1.0189l1.1037-2.9717c0-.0849.0849-.0849.0849-.1698.0849-.0849.0849-.0849.1698-.0849.085 0 .2548-.0849.3397-.0849h1.0188c.0849 0 .1698 0 .2548.0849l.0849.0849v.0849c0 .0849 0 .1698-.0849.2548l-2.5472 6.283zM87.2547 23.2076c0 .0849 0 .0849-.0849.1698H87c-.0849 0-.1698.0849-.2547.0849H85.8113c-.0849 0-.1698 0-.2547-.0849-.0849 0-.0849-.0849-.1698-.0849 0 0-.0849-.0849-.0849-.1698v-3.8208h-3.566v3.8208c0 .0849 0 .0849-.0849.1698 0 .0849-.085.0849-.1699.0849-.0849 0-.1698.0849-.2547.0849h-1.0188c-.0849 0-.1699 0-.2548-.0849-.0849 0-.0849-.0849-.1698-.0849 0 0-.0849-.0849-.0849-.1698v-9c0-.0849 0-.0849.0849-.1698 0-.0849.0849-.0849.1698-.0849s.1699-.0849.2548-.0849h1.0188c.0849 0 .1698 0 .2547.0849.0849 0 .0849.0849.1699.0849 0 0 .0849.0849.0849.1698v3.4811h3.566v-3.4811c0-.0849 0-.0849.0849-.1698 0-.0849.0849-.0849.1698-.0849s.1698-.0849.2547-.0849H86.7453c.0849 0 .1698 0 .2547.0849.0849 0 .0849.0849.1698.0849 0 0 .0849.0849.0849.1698v9.0849zM97.0189 23.2075c0 .0849 0 .0849-.0849.1699h-.0849c-.0849 0-.1698.0849-.2547.0849H95.6604c-.0849 0-.1698 0-.2547-.0849-.0849 0-.0849-.085-.1698-.085 0 0-.0849-.0849-.0849-.1698v-5.0094-.5943-.5095c0 .0849-.0849.1698-.1699.2547-.0849.085-.0849.1699-.1698.2548l-.1698.3396c-.0849.0849-.1698.1698-.1698.3396l-3.3113 4.9245c0 .0849-.0849.0849-.0849.1698-.0849 0-.0849.085-.1698.085s-.1698 0-.2547.0849h-.7642c-.0849 0-.1698 0-.2547-.0849-.0849 0-.0849-.085-.1698-.085v-9.1698c0-.0849 0-.0849.0849-.0849.0849-.0849.0849-.0849.1698-.0849s.1698-.0849.2547-.0849H90.9057c.0849 0 .1698 0 .2547.0849.0849 0 .0849.0849.1698.0849l.0849.0849V20.2358c.0849-.1698.1698-.3396.3396-.5094.0849-.1698.2548-.4245.4246-.5943l3.3113-5.0095c0-.0849.0849-.0849.0849-.0849.0849 0 .0849-.0849.1698-.0849s.1698-.0849.2547-.0849h.7642c.0849 0 .1698 0 .2547.0849.0849 0 .0849.0849.1698.0849v.1698l-.1698 9zM107.632 25.6698v.0849l-.085.0849c-.085 0-.17.0849-.255.0849h-.849c-.085 0-.169 0-.254-.0849-.085 0-.085-.0849-.17-.0849 0 0-.085-.0849 0-.0849v-2.2924h-6.5379c-.0849 0-.1698-.085-.1698-.085-.0849-.0849-.0849-.1698-.0849-.2547V14.1226c0-.0849 0-.0849.0849-.0849.0849-.0849.0849-.0849.1698-.0849s.1698-.0849.2547-.0849h.9342c.085 0 .17 0 .254.0849.085 0 .085.0849.17.0849l.085.0849v7.7265h3.481v-7.7265c0-.0849 0-.0849.085-.0849.085-.0849.085-.0849.17-.0849s.17-.0849.255-.0849H106.104c.085 0 .17 0 .254.0849.085 0 .085.0849.17.0849l.085.0849v7.7265h1.019c.085 0 .085 0 .085.0849.085.0849.085.1698.085.3396l-.17 3.3962zM116.717 23.2075c0 .0849 0 .0849-.085.1699-.085.0849-.085.0849-.17.0849s-.17.0849-.254.0849H115.274c-.085 0-.17 0-.255-.0849-.085 0-.085-.0849-.17-.0849 0 0-.085-.085-.085-.1699v-5.0094-.5943-.5095c0 .0849-.085.1698-.17.2548-.085.0849-.085.1698-.17.2547l-.169.3396c-.085.0849-.17.1698-.17.3396l-3.311 4.9245c0 .0849-.085.0849-.085.1699-.085 0-.085.0849-.17.0849s-.17 0-.255.0849h-.764c-.085 0-.17 0-.255-.0849-.085 0-.085-.0849-.17-.0849v-9.2548c0-.0849 0-.0849.085-.0849.085-.0849.085-.0849.17-.0849s.17-.0849.34-.0849H110.604c.085 0 .17 0 .254.0849.085 0 .085.0849.17.0849l.085.0849V20.2358c.085-.1698.17-.3396.34-.5094.17-.1698.255-.4245.424-.5943l3.312-4.9246c0-.0849.085-.0849.085-.0849.084 0 .084-.0849.169-.0849s.17-.0849.255-.0849h.764c.085 0 .17 0 .255.0849.085 0 .085.0849.17.0849v.1698l-.17 8.9151zM126.226 23.2076c0 .0849 0 .0849-.085.1698 0 .0849-.084.0849-.169.0849s-.17.0849-.34.0849H124.698c-.085 0-.17 0-.255-.0849-.085 0-.085-.0849-.169-.0849 0 0-.085-.0849-.085-.1698v-7.7264h-3.566v7.7264c0 .0849 0 .0849-.085.1698s-.085.0849-.17.0849-.17.0849-.255.0849H119.179c-.085 0-.17 0-.254-.0849-.085 0-.085-.0849-.17-.0849 0 0-.085-.0849-.085-.1698v-8.6604-.2547c0-.0849.085-.1698.085-.2547.085-.0849.085-.0849.17-.0849H125.717c.085 0 .17.0849.17.0849.085.1698.17.2547.17.4245l.169 8.7453zM136.075 22.6982c.085.1698.085.2547.085.4245v.0849s0 .0849-.085.0849c-.084.0849-.169.0849-.254.0849h-1.189c-.085 0-.255 0-.34-.0849-.085 0-.084-.0849-.169-.0849 0-.0849-.085-.0849-.085-.1698l-.68-1.9528h-3.566l-.594 1.8679c0 .0849-.085.0849-.085.1698s-.085.0849-.17.0849-.169.0849-.339.0849H127.585c-.085 0-.17 0-.255-.0849l-.085-.0849v-.0849c0-.1698.085-.2547.085-.4245l2.887-8.4906c0-.0849.085-.1698.085-.1698.085-.0849.085-.0849.17-.0849s.254-.0849.339-.0849h1.274c.17 0 .255 0 .424.0849.085 0 .17.0849.17.0849.085.0849.085.1698.085.2547l3.311 8.4906zm-4.415-6.9623l-1.358 4.0755h2.717l-1.359-4.0755zM144.736 23.2075c0 .0849 0 .0849-.085.1698 0 .0849-.085.0849-.17.0849s-.17.085-.255.085H143.292c-.084 0-.169 0-.254-.085-.085 0-.085-.0849-.17-.0849 0 0-.085-.0849-.085-.1698v-7.7264h-2.038c-.17 1.1038-.254 2.1227-.424 2.9717-.17.8491-.255 1.5283-.425 2.2076-.085.5094-.339 1.0188-.509 1.4434-.17.3396-.425.6792-.679.9339-.255.2547-.51.3396-.85.4245-.339.085-.679.1699-1.018.085h-.17c-.085 0-.085-.085-.17-.085 0-.0849-.085-.1698-.085-.2547v-.3396-.5094c0-.0849 0-.1698.085-.3396 0-.085.085-.085.085-.1699h.17c.17 0 .339 0 .509-.0849.17-.0849.255-.1698.34-.3396.17-.2547.254-.5094.339-.7641.17-.4246.255-.8491.34-1.2736.085-.5095.255-1.1887.34-1.9529.085-.7641.254-1.6981.339-2.8018 0-.1699.085-.3397.17-.5095.085-.0849.085-.0849.17-.0849H144.396c.085 0 .17.0849.17.0849.085.1698.17.2547.17.4246v8.6603zM153.821 20.3208c0 .4245-.085.849-.17 1.2735-.17.3397-.34.6793-.679 1.0189-.34.3396-.764.5094-1.189.6792-.679.1699-1.358.2548-1.953.2548H147.198c-.085 0-.17-.0849-.17-.0849-.085-.0849-.085-.0849-.17-.1699 0-.0849-.084-.1698 0-.2547v-8.9151c0-.0849 0-.0849.085-.0849.085-.0849.085-.0849.17-.0849s.17-.0849.34-.0849H148.387c.085 0 .17 0 .254.0849.085 0 .085.0849.17.0849l.085.0849v3.3114h1.359c.594 0 1.188.0849 1.698.1698.424.0849.764.3396 1.104.5943.254.2547.509.5943.679.934 0 .3396.085.7641.085 1.1887zm-1.953.0849c0-.2548 0-.4246-.085-.6793-.085-.1698-.17-.3396-.34-.5094-.169-.1698-.339-.2547-.509-.3396-.34-.085-.679-.085-1.019-.085h-1.104v3.0567H150c.34 0 .679 0 1.019-.1699.17-.0849.339-.1698.509-.3396.17-.1698.255-.3396.255-.5094 0 0 .085-.1698.085-.4245zM162.566 23.2076c0 .0849 0 .0849-.085.1698 0 .0849-.085.0849-.17.0849s-.17.0849-.254.0849H161.123c-.085 0-.17 0-.255-.0849-.085 0-.085-.0849-.17-.0849 0 0-.085-.0849-.085-.1698v-3.8207h-3.566v3.8207c0 .0849 0 .0849-.085.1698s-.085.0849-.17.0849c-.084 0-.169.0849-.254.0849H155.519c-.085 0-.17 0-.255-.0849-.085 0-.085-.0849-.17-.0849 0 0-.085-.0849-.085-.1698v-9.0849c0-.0849 0-.0849.085-.1698s.085-.0849.17-.0849.17-.0849.255-.0849H156.538c.085 0 .17 0 .254.0849.085 0 .085.0849.17.0849 0 0 .085.0849.085.1698v3.4811h3.566v-3.4811c0-.0849 0-.0849.085-.1698 0-.0849.085-.0849.17-.0849s.17-.0849.255-.0849H162.057c.084 0 .169 0 .254.0849.085 0 .085.0849.17.0849 0 0 .085.0849.085.1698v9.0849zM171.481 20.3208c0 .4245-.085.849-.17 1.2735-.169.3397-.339.6793-.679 1.0189-.34.3396-.764.5094-1.189.6792-.679.1699-1.273.2548-1.952.2548h-2.463c-.085 0-.17-.0849-.17-.0849-.084-.0849-.084-.0849-.084-.1699 0-.0849-.085-.1698 0-.2547v-8.9151c0-.0849 0-.0849.084-.0849.085-.0849.085-.0849.17-.0849s.17-.0849.34-.0849H166.302c.085 0 .17 0 .255.0849.085 0 .085.0849.169.0849l.085.0849v3.3114H168c.594 0 1.104.0849 1.698.1698.425.0849.764.2547 1.104.5094.255.2547.509.5094.679.934-.085.4245 0 .849 0 1.2736zm-1.953.1698c0-.2548 0-.4246-.085-.5944-.085-.1698-.169-.3396-.339-.5094-.17-.1698-.34-.2547-.51-.3396-.339-.0849-.679-.0849-1.019-.0849h-1.018v3.0566h1.018c.34 0 .68 0 1.019-.1698.17-.085.34-.1699.51-.3397.17-.1698.254-.3396.339-.5094 0-.1698.085-.3396.085-.5094zm5.01 2.7169c0 .0849 0 .0849-.085.1699-.085.0849-.085.0849-.17.0849s-.17.0849-.255.0849h-.849c-.085 0-.17 0-.254-.0849-.085 0-.085-.0849-.17-.0849 0 0-.085-.085-.085-.1699v-9.0849c0-.0849 0-.0849.085-.0849.085-.0849.085-.0849.17-.0849.084 0 .169-.0849.339-.0849h.849c.085 0 .17 0 .255.0849.085 0 .085.0849.17.0849l.085.0849v9.0849h-.085zM184.387 23.2076c0 .0849 0 .0849-.085.1698s-.085.0849-.17.0849-.17.0849-.255.0849H182.943c-.085 0-.169 0-.254-.0849-.085 0-.085-.0849-.17-.0849 0 0-.085-.0849-.085-.1698v-5.0095-.5943-.5094c0 .0849-.085.1698-.17.2547-.085.0849-.085.1698-.17.2547-.085.0849-.085.1698-.17.3396-.084.0849-.169.1698-.169.3396l-3.312 4.9246c0 .0849-.085.0849-.085.1698-.084 0-.084.0849-.169.0849s-.17 0-.255.0849h-.764c-.085 0-.17 0-.255-.0849-.085 0-.085-.0849-.17-.0849v-9.2547c0-.085 0-.085.085-.085.085-.0849.085-.0849.17-.0849s.17-.0849.34-.0849H178.274c.084 0 .169 0 .254.0849.085 0 .085.0849.17.0849l.085.085v6.1132c.085-.1698.17-.3397.34-.5095.085-.1698.254-.4245.424-.5943l3.311-4.9245c0-.0849.085-.0849.085-.0849.085 0 .085-.085.17-.085s.17-.0849.255-.0849h.764c.085 0 .17 0 .255.0849.085 0 .085.085.17.085 0 0 .084.0849 0 .1698l-.17 8.9151zm-1.189-11.8868c0 .2547-.085.5094-.17.7641-.085.2547-.254.5095-.424.6793-.255.1698-.51.3396-.849.4245-.425.0849-.849.1698-1.274.1698-.424 0-.849-.0849-1.189-.1698-.339-.0849-.594-.2547-.849-.4245-.169-.1698-.339-.4246-.424-.6793-.085-.2547-.17-.5094-.17-.849v-.1698c0-.085.085-.085.17-.085s.17-.0849.255-.0849h.849c.085 0 .169 0 .254.0849.085 0 .085.085.085.085v.1698c0 .0849 0 .2547.085.3396.085.0849.085.1698.17.2547.085.0849.255.1698.34.1698.169.0849.254.0849.424.0849.17 0 .255 0 .425-.0849.085 0 .254-.0849.339-.1698.085-.0849.17-.1698.17-.2547.085-.0849.085-.2547.085-.3396v-.1698c0-.085.085-.085.085-.085.085 0 .17-.0849.255-.0849h.764c.085 0 .17 0 .254.0849.085 0 .085.085.17.085.17.1698.17.1698.17.2547zM64.7547 36.1981v.0849s-.0849.0849-.1698.0849-.1698 0-.2547.0849h-.8491c-.0849 0-.1698 0-.2547-.0849-.0849 0-.0849-.0849-.1698-.0849 0-.0849-.0849-.0849-.0849-.1698l-.6793-1.868c-.0849-.2547-.1698-.4245-.2547-.6792-.0849-.1698-.1698-.3396-.3396-.4245-.0849-.0849-.2547-.1698-.4245-.2547-.1698-.085-.3397-.085-.5095-.085h-.3396v3.3963s-.0849.0849-.1698.0849-.1698.0849-.2547.0849h-.8491c-.0849 0-.1698 0-.2547-.0849-.0849 0-.0849-.0849-.1698-.0849 0 0-.0849-.0849 0-.0849v-7.8963-.0849s.0849-.0849.1698-.0849.1698 0 .2547-.0849H60c.0849 0 .1698 0 .2547.0849.0849 0 .0849 0 .1698.0849v3.2265h.3396c.1698 0 .3397-.0001.5095-.085.1698-.0849.2547-.1698.4245-.2547.1698-.1698.2547-.2547.3396-.4245.0849-.2547.1698-.4245.2547-.6792l.5095-1.6982c0-.0849.0849-.0849.0849-.1698s.0849-.0849.1698-.0849.1698-.0849.2547-.0849h.8491c.0849 0 .1698 0 .2547.0849.0849 0 .0849 0 .0849.0849 0 0 .0849.0849 0 .1698v.1699c0 .0849-.0849.2547-.0849.3396l-.5944 1.4434c-.0849.2547-.1698.5094-.3396.6792-.0849.1698-.1698.3396-.3396.5095-.0849.1698-.2547.2547-.3396.3396-.1698.0849-.2547.1698-.4246.2547.1699.0849.3397.1698.4246.2547.1698.0849.2547.2547.4245.3396.1698.1698.2547.3397.3396.5095.1698.2547.2547.5094.3396.7641l.6793 1.6981c.0849.0849.0849.2547.0849.3396.0849.2548.0849.2548.0849.3397zM72.8207 35.7735c.0849.0849.0849.2548.0849.3397v.0849s0 .0849-.0849.0849c-.0849.0849-.1698.0849-.2547.0849H71.2924c-.0849 0-.0849 0-.1698-.0849 0 0-.0849-.0849-.0849-.1698l-.5943-1.6982h-3.1416l-.5094 1.6133c0 .0849 0 .0849-.0849.1698 0 .0849-.0849.0849-.1698.0849s-.1698.0849-.2547.0849h-.8491c-.0849 0-.1698 0-.2547-.0849 0 0 0-.0849-.0849-.0849v-.0849c0-.0849.0849-.2548.0849-.3397l2.5472-7.3868c0-.0849.0849-.0849.0849-.1698.0849-.0849.0849-.0849.1698-.0849s.1698-.0849.3396-.0849H69.4245c.0849 0 .2547 0 .3396.0849.0849 0 .1698.0849.1698.0849 0 .0849.0849.0849.0849.1698l2.8019 7.3868zM69 29.6603l-1.1887 3.5661h2.3773L69 29.6603zM83.6886 36.1981v.0849l-.0849.0849c-.0849 0-.1698.0849-.2547.0849H82.5c-.0849 0-.1699 0-.2548-.0849-.0849 0-.0849-.0849-.0849-.0849V29.4056l-2.3773 6.7925c0 .0849-.0849.0849-.0849.1698-.0849 0-.0849.0849-.1698.0849h-.934c-.0849 0-.1698 0-.2547-.0849-.0849 0-.0849-.0849-.1698-.0849l-.0849-.0849-2.2925-6.7925V36.283s-.0849.0849-.1698.0849-.1698.0849-.2547.0849h-.7642c-.0849 0-.1698 0-.2547-.0849-.0849 0-.0849-.0849-.1698-.0849v-7.5566-.2547c0-.0849.0849-.1698.1698-.2548.0849-.0849.1698-.0849.2547-.1698.0849 0 .1698-.0849.2547 0h1.1038c.1698 0 .3396 0 .5095.0849.1698 0 .2547.0849.3396.1699.0849.0849.1698.1698.2547.3396.0849.1698.1698.2547.1698.4245l1.783 5.0094 1.868-5.0094c.0849-.1698.0849-.3396.1698-.4245.0849-.0849.1698-.2547.2547-.3396.0849-.085.1698-.1699.3396-.1699s.2547-.0849.4245-.0849h.8491c.0849 0 .1698 0 .3396.0849.0849 0 .1698.0849.1698.1699.0849.0849.0849.1698.0849.2547 0 .0849.0849.1698 0 .2547l.1698 7.3868zM91.1604 36.1981v.0849s-.0849.0849-.1698.0849-.1698.0849-.2547.0849h-.8491c-.0849 0-.1698 0-.2547-.0849-.0849 0-.0849 0-.1698-.0849l-.0849-.0849v-2.8868c-.2547 0-.4246 0-.6793.0849h-.6792c-.4245 0-.8491 0-1.2736-.0849-.3396-.0849-.6792-.2547-.934-.4246-.2547-.2547-.5094-.5094-.5943-.849-.1698-.4245-.2547-.8491-.2547-1.3585V28.2169s.0849-.0849.1698-.0849.1698-.0849.2547-.0849h.8491c.0849 0 .1698 0 .2547.0849.0849 0 .0849 0 .1698.0849l.0849.0849v2.2076c0 .2547 0 .4245.0849.6792.0849.1698.1698.3397.2547.5095.1698.1698.3396.2547.5095.2547.2547.0849.5094.0849.7641.0849h.5943c.1699 0 .3397 0 .5944-.0849v-3.651s0-.0849.0849-.0849c0 0 .0849-.0849.1698-.0849s.1698 0 .2547-.0849h.8491c.0849 0 .1698 0 .2547.0849.0849 0 .0849 0 .1698.0849v.0849l-.1698 7.8963zM99.7358 35.7735c0 .0849.0849.2548.0849.3397v.0849s0 .0849-.0849.0849c-.0849.0849-.1698.0849-.2547.0849H98.2075c-.0849 0-.0849 0-.1698-.0849 0 0-.0849-.0849-.0849-.1698l-.5943-1.6982H94.217l-.5095 1.6133c0 .0849 0 .0849-.0849.1698 0 .0849-.0849.0849-.1698.0849s-.1698.0849-.2547.0849h-.8491c-.0849 0-.1698 0-.2547-.0849 0 0 0-.0849-.0849-.0849v-.0849c0-.0849.0849-.2548.0849-.3397l2.5472-7.3868c0-.0849.0849-.0849.0849-.1698.0849-.0849.0849-.0849.1698-.0849s.1698-.0849.3396-.0849H96.3396c.0849 0 .2547 0 .3396.0849.0849 0 .1698.0849.1698.0849 0 .0849.0849.0849.0849.1698l2.8019 7.3868zm-3.8207-6.1132l-1.1887 3.5661h2.3773l-1.1886-3.5661zM105.509 28.8113v.3396c0 .085 0 .1699-.085.2548 0 .0849-.084.0849-.084.0849H103.217v6.7075c0 .0849 0 .0849-.085.0849 0 0-.085.0849-.17.0849s-.17.0849-.254.0849h-.85c-.084 0-.169 0-.254-.0849-.085 0-.085-.0849-.17-.0849v-6.7924h-2.1227l-.0849-.0849c0-.0849 0-.1698-.0849-.2548v-.3396-.3396c0-.0849 0-.1698.0849-.2547 0-.0849 0-.0849.0849-.0849h6.0287l.084.0849c0 .0849 0 .1698.085.2547v.3396zM112.981 36.1981v.0849s-.085.0849-.17.0849-.169 0-.254.0849h-.849c-.085 0-.17 0-.255-.0849-.085 0-.085 0-.17-.0849 0 0-.085-.0849 0-.0849v-6.7076h-3.057v6.7925s-.084.0849-.169.0849-.17 0-.255.0849h-.849c-.085 0-.17 0-.255-.0849-.085 0-.085 0-.17-.0849v-7.7264-.2548c0-.0849.085-.1698.085-.1698.085-.0849.085-.0849.17-.0849h5.859c.084 0 .084.0849.169.0849.085.0849.17.2547.17.4246v7.6415zM120.453 30.5943c0 .4245-.085.849-.255 1.2736-.17.3396-.339.6792-.679.9339-.34.2548-.679.4246-1.019.5944-.425.1698-.934.1698-1.443.1698h-.68v2.6321c0 .0849 0 .0849-.085.0849 0 0-.084.0849-.169.0849s-.17.0849-.255.0849h-.849c-.085 0-.17 0-.255-.0849-.085 0-.085 0-.17-.0849V28.6415v-.2548c0-.0849.085-.1698.085-.1698.085-.0849.255-.1698.425-.1698h2.547c.255 0 .424.0849.679.0849.255.0849.51.1698.764.2547.255.1699.51.3397.68.5095.169.1698.339.4245.424.6792.255.4245.255.7642.255 1.0189zm-1.698.1698c0-.2547 0-.5094-.17-.7642-.085-.1698-.255-.3396-.34-.4245-.17-.0849-.339-.1698-.509-.1698h-1.189v2.8019h.764c.255 0 .425 0 .68-.0849.169-.0849.339-.1698.424-.3396.085-.1698.17-.3397.255-.5095 0-.1698.085-.3396.085-.5094zM129.283 32.1226c0 .5943-.085 1.2736-.255 1.8679-.17.5095-.424 1.0189-.764 1.3585-.339.4245-.764.6793-1.273.8491-.595.1698-1.104.3396-1.699.3396-.594 0-1.188-.0849-1.698-.2547-.424-.1698-.849-.4245-1.188-.7642-.34-.3396-.595-.849-.765-1.3585-.169-.5943-.254-1.2735-.254-1.9528 0-.5943.085-1.1887.254-1.783.17-.5094.425-1.0189.765-1.3585.339-.4245.764-.6792 1.273-.8491.595-.1698 1.104-.3396 1.698-.3396.595 0 1.104.0849 1.698.2547.425.1698.85.4246 1.189.7642.34.3396.594.849.764 1.3585.17.5943.255 1.2736.255 1.8679zm-1.783.0849c0-.4245 0-.7641-.085-1.1887-.085-.3396-.17-.6792-.34-.9339-.169-.2548-.424-.4246-.679-.5944-.339-.1698-.679-.2547-1.019-.1698-.339 0-.679.0849-1.019.2547-.254.1698-.509.3397-.679.5944-.17.2547-.339.5943-.339.9339-.085.3397-.085.7642-.085 1.1038 0 .4245 0 .8491.085 1.1887.085.3396.169.6792.339.934.17.2547.425.4245.679.5943.34.1698.68.2547 1.019.1698.34 0 .68-.0849 1.019-.2547.255-.1698.51-.3396.679-.5944.17-.2547.34-.5943.34-.9339 0-.3396.085-.6793.085-1.1038zM138.792 32.0377c0 .4245-.084.8491-.254 1.2736-.17.3396-.34.6792-.68 1.0189-.339.2547-.679.5094-1.103.6792-.51.1698-1.019.2547-1.529.3396v1.1038s-.084.0849-.169.0849h-1.359c-.085 0-.085 0-.17-.0849V35.2641c-.509 0-1.019-.0849-1.528-.2547-.425-.0849-.764-.3396-1.104-.5943-.254-.2548-.509-.5944-.679-.934-.17-.4245-.255-.934-.255-1.3585s.085-.8491.255-1.1887c.17-.3396.34-.6792.679-.9339.34-.2548.679-.5095 1.104-.6793.509-.1698 1.019-.2547 1.528-.3396V27.9622s.085-.0849.17-.0849h1.359c.085 0 .085 0 .169.0849V29.066c.51 0 1.019.0849 1.529.2547.424.0849.764.3396 1.103.5944.255.2547.51.5943.68.9339.17.2547.254.6793.254 1.1887zm-5.094-1.8679c-.255 0-.594.0849-.849.2547-.17.0849-.424.2547-.509.4245-.17.1698-.255.3396-.34.5944-.085.2547-.085.4245-.085.6792 0 .2547 0 .5094.085.7642.085.2547.17.4245.34.5943.169.1698.339.3396.509.4245.255.0849.51.1698.849.2547v-3.9905zm3.396 1.9528c0-.2547 0-.5094-.085-.7641-.084-.1699-.169-.4246-.254-.5944-.17-.1698-.34-.3396-.51-.4245-.254-.0849-.509-.1698-.849-.2547v3.8207c.255 0 .595-.0849.849-.2547.17-.0849.425-.2547.51-.4245.17-.1698.254-.3396.339-.5944v-.5094zM146.943 36.1981v.0849s-.085.0849-.169.0849c-.085 0-.17 0-.255.0849h-.849c-.085 0-.17 0-.255-.0849-.085 0-.085 0-.17-.0849v-4.5-.5095-.4245c0 .0849-.085.1698-.085.1698-.085.0849-.085.1698-.169.2547l-.17.2548c-.085.0849-.085.1698-.17.2547l-2.887 4.3302c0 .0849-.085.0849-.085.0849s-.085.0849-.17.0849H140.575c-.084 0-.169 0-.254-.0849-.085 0-.085-.0849-.085-.0849v-8.0661s.085-.0849.17-.0849.169 0 .254-.0849h.849c.085 0 .17 0 .255.0849.085 0 .085 0 .17.0849v5.5189c.085-.0849.17-.2547.255-.4245.085-.1698.254-.3397.339-.5095l2.887-4.3302.085-.0849s.085-.0849.17-.0849.17 0 .255-.0849h.764c.085 0 .169 0 .254.0849.085 0 .085.0849.085.0849v.0849l-.085 7.8963zM154.245 28.8113v.3396c0 .085 0 .1699-.085.2548 0 .0849-.085.0849-.085.0849h-2.122v6.7924s-.085.0849-.17.0849-.17.0849-.255.0849h-.849c-.085 0-.17 0-.255-.0849-.084 0-.084-.0849-.169-.0849 0 0-.085-.0849 0-.0849v-6.7075H148.132l-.085-.0849c0-.0849-.085-.1698-.085-.2548v-.3396-.3396c0-.0849 0-.1698.085-.2547 0-.0849 0-.0849.085-.0849h6.028l.085.0849c0 .0849 0 .1698.085.2547-.085.0849-.085.1698-.085.3396zM161.292 33.8208c0 .3396-.084.6792-.169 1.0188-.17.3396-.34.5944-.595.8491-.254.2547-.594.4245-1.019.5094-.509.1698-1.018.1698-1.528.1698h-2.207c-.17 0-.255 0-.34-.0849-.085-.0849-.085-.0849-.085-.1698V28.5566v-.1698c0-.0849.085-.1698.085-.1698.085-.0849.085-.0849.17-.0849H160.528l.085.0849c0 .0849 0 .1698.085.1698v.6792c0 .0849 0 .1699-.085.1699 0 .0849-.085.0849-.085.0849h-3.566v2.0377h1.359c.424 0 .849 0 1.358.1698.34.0849.595.2547.849.4245.255.1698.425.4246.595.7642.085.4245.169.7641.169 1.1038zm-1.698.1698c0-.1698 0-.3397-.085-.5095-.085-.1698-.169-.2547-.254-.3396-.17-.0849-.255-.1698-.425-.2547-.255-.0849-.509-.0849-.764-.0849h-1.104v2.3774h1.104c.255 0 .425-.0001.679-.085.17 0 .34-.0849.425-.2547.085-.0849.254-.2547.254-.3396.085-.1698.17-.3396.17-.5094zM169.189 35.7735c0 .0849.085.2548.085.3397v.0849s0 .0849-.085.0849c-.085.0849-.17.0849-.255.0849h-1.274c-.085 0-.085 0-.169-.0849 0 0-.085-.0849-.085-.1698l-.51-1.6982h-3.141l-.51 1.6133c0 .0849 0 .0849-.085.1698 0 .0849-.085.0849-.169.0849-.085 0-.17.0849-.255.0849h-.849c-.085 0-.17 0-.255-.0849 0 0 0-.0849-.085-.0849v-.0849c0-.0849.085-.2548.085-.3397l2.547-7.3868c0-.0849.085-.0849.085-.1698s.085-.0849.17-.0849.17-.0849.34-.0849h1.103c.085 0 .255 0 .34.0849.085 0 .17.0849.17.0849 0 .0849.085.0849.085.1698l2.717 7.3868zm-3.821-6.1132l-1.189 3.5661h2.378l-1.189-3.5661zM176.83 36.1981v.0849s-.085.0849-.17.0849-.169.0849-.254.0849h-.849c-.085 0-.17 0-.255-.0849-.085 0-.085-.0849-.17-.0849V32.8018h-3.057V36.283s-.084.0849-.169.0849-.17.0849-.255.0849h-.849c-.085 0-.17 0-.255-.0849-.085 0-.085-.0849-.17-.0849 0 0-.085-.0849 0-.0849v-7.8963-.0849s.085-.0849.17-.0849.17-.0849.255-.0849h.849c.085 0 .17 0 .255.0849.085 0 .085 0 .169.0849v3.1415h3.057v-3.0566c0-.0849 0-.0849.085-.0849 0 0 .085-.0849.17-.0849s.17-.0849.254-.0849h.85c.084 0 .169 0 .254.0849.085 0 .085.0849.17.0849v.0849l-.085 7.8963zM184.811 36.1981v.0849s-.085.0849-.17.0849c-.084 0-.169 0-.254.0849h-.849c-.085 0-.17 0-.255-.0849-.085 0-.085-.0849-.17-.0849 0-.0849-.085-.0849-.085-.1698l-.679-1.868c-.085-.2547-.17-.4245-.255-.6792-.085-.1698-.17-.3396-.339-.4245-.085-.0849-.255-.1698-.425-.2547-.17-.085-.339-.085-.509-.085h-.425v3.3963s-.085.0849-.17.0849-.169.0849-.254.0849h-.849c-.085 0-.17 0-.255-.0849-.085 0-.085-.0849-.17-.0849l-.085-.0849v-7.8963c0-.0849 0-.0849.085-.0849 0 0 .085-.0849.17-.0849s.17 0 .255-.0849h.849c.085 0 .169 0 .254.0849.085 0 .085 0 .17.0849v3.2265h.34c.17 0 .339-.0001.509-.085.17-.0849.255-.1698.425-.2547.17-.1698.254-.2547.339-.4245.085-.2547.17-.4245.255-.6792l.594-1.6982c0-.0849.085-.0849.085-.1698s.085-.0849.17-.0849.17-.0849.255-.0849h.849c.085 0 .17 0 .255.0849.085 0 .085 0 .085.0849V28.3018c0 .085-.085.2548-.085.3397l-.595 1.4434c-.085.2547-.169.5094-.339.6792-.085.1698-.17.3396-.34.5094-.085.1699-.255.2548-.34.3397-.169.0849-.254.1698-.424.2547.17.0849.34.1698.424.2547.17.0849.255.2547.425.3396.17.1698.255.3396.34.5095.169.2547.254.5094.339.7641l.679 1.6981c.085.0849.085.2547.085.3396.085.3397.085.3397.085.4246z"/>
</svg>
