<svg xmlns="http://www.w3.org/2000/svg" viewBox="0 0 200 50">
	<path fill="#EA5616" d="M64.43 6.67999L52.21 18.89h12.22v24.43l12.21-12.18V6.67999H64.43z"/>
	<path fill="#2C2D84" d="M52.21 43.32l12.22-12.21H52.21V6.67999L40 18.86v24.46h12.21zm36.65-6.11h6.41V18.28H105v18.93h6.41V12.79H88.86v24.42zm62.29-15.28h-5.48v-3.65h12.2v-5.5h-18.62v24.43h12.2c4.89 0 8.55-2.45 8.55-7.64 0-5.19-3.66-7.64-8.86-7.64h.01zM150.53 32h-4.87v-4.86h4.87c1.51 0 3 .6 3 2.43S152 32 150.53 32zm-23.39 0c-4.28 0-6.69-3.14-6.69-7 0-3.11 1.75-7 6.56-7 1.078.0093 2.141.255 3.114.7198.972.4648 1.831 1.1373 2.516 1.9702l3.9-3.9c-1.202-1.4382-2.706-2.5948-4.405-3.3879-1.698-.7932-3.55-1.2035-5.425-1.2021-1.689-.0446-3.369.2567-4.937.8854-1.568.6286-2.991 1.5713-4.182 2.7702-1.19 1.1988-2.123 2.6285-2.74 4.201-.618 1.5726-.907 3.2549-.851 4.9434-.021 2.6931.813 5.3234 2.383 7.5119 1.569 2.1886 3.793 3.8226 6.35 4.6666 2.558.844 5.317.8544 7.881.0298s4.8-2.4417 6.386-4.6183l-3.92-3.92c-.622 1.0319-1.503 1.8836-2.556 2.4711-1.052.5875-2.239.8904-3.444.8789"/>
</svg>
