<svg xmlns="http://www.w3.org/2000/svg" viewBox="0 0 200 50">
	<path fill="#2D3540" d="M98.9575 31.6401h2.5915c1.323 0 2.256.6777 2.256 1.8754 0 .6776-.327 1.2602-.883 1.5574v.0208c.8.2348 1.18.9748 1.18 1.7119 0 1.4563-1.168 2.1102-2.511 2.1102h-2.6335v-7.2757zm2.6005 2.9721c.574 0 .901-.4101.901-.9332s-.318-.9006-.922-.9006h-1.26v1.8338h1.281zm.134 3.1682c.677 0 1.055-.4398 1.055-1.0551 0-.6033-.389-1.0461-1.055-1.0461h-1.415v2.1012h1.415zm6.036-4.2114c.707 0 1.507.2348 2.009.7787l-.585.8916c-.327-.3269-.841-.5647-1.353-.5647-.963 0-1.59.7282-1.59 1.6198 0 .8827.624 1.6406 1.629 1.6406.553 0 1.147-.2883 1.537-.6658l.502.9214c-.493.523-1.311.85-2.152.85-1.733 0-2.838-1.2186-2.838-2.7373.003-1.486 1.111-2.7343 2.841-2.7343zm5.29 0c1.495 0 2.316 1.0967 2.316 2.4787 0 .1635-.021.3388-.042.5023h-3.596c.083.9124.778 1.385 1.569 1.385.532 0 1.076-.2348 1.495-.5736l.511.9332c-.532.4725-1.352.7489-2.101.7489-1.733 0-2.818-1.2512-2.818-2.7372.003-1.6109 1.1-2.7373 2.666-2.7373zm-1.495-1.9289h1.005v1.1889h-1.005v-1.1889zm2.512 4.0183c-.009-.6985-.461-1.1056-1.046-1.1056-.666 0-1.139.4398-1.261 1.1056h2.307zm-.627-4.0183h.995v1.1889h-.995v-1.1889zm5.578 2.0508h4.767v5.2278h-1.301v-4.1193h-2.164v4.1193h-1.302v-5.2278zm6.152 0h1.189v.3893c0 .1962-.021.3685-.021.3685h.021c.339-.5647.975-.8827 1.682-.8827 1.415 0 2.316 1.1175 2.316 2.7373 0 1.6614-1.014 2.7373-2.39 2.7373-.594 0-1.138-.2675-1.507-.7371h-.021s.03.1843.03.4518v2.2141h-1.302v-7.2785h.003zm2.562 4.253c.717 0 1.311-.5855 1.311-1.6198 0-.9927-.532-1.6406-1.293-1.6406-.686 0-1.322.4934-1.322 1.6495.003.8114.454 1.6109 1.304 1.6109zm6.254-4.3749c1.599 0 2.879 1.1383 2.879 2.7373 0 1.6079-1.28 2.7372-2.871 2.7372-1.59 0-2.871-1.1264-2.871-2.7372.003-1.602 1.284-2.7373 2.863-2.7373zm.008 4.366c.85 0 1.558-.6569 1.558-1.6287 0-.963-.708-1.6287-1.558-1.6287-.85 0-1.548.6657-1.548 1.6287.003.9718.698 1.6287 1.548 1.6287zm3.918-4.2441h1.239v4.1192h1.629v-4.1192h1.239v4.1192h1.629v-4.1192h1.239v4.1192h.737v2.3361h-1.168v-1.2304h-6.55v-5.2249h.006zm10.943-.1219c1.495 0 2.315 1.0967 2.315 2.4787 0 .1635-.021.3388-.042.5023H147.5c.083.9124.779 1.385 1.569 1.385.532 0 1.076-.2348 1.495-.5736l.512.9332c-.532.4725-1.353.7489-2.102.7489-1.732 0-2.817-1.2512-2.817-2.7372 0-1.6109 1.097-2.7373 2.666-2.7373zm1.013 2.0894c-.009-.6985-.46-1.1056-1.046-1.1056-.666 0-1.138.4398-1.26 1.1056h2.306z"/>
	<path fill="#FF8C00" d="M121.331 10.7733v15.0179c0 .2258-.181.4071-.407.4071h-3.067c-.226 0-.407-.1813-.407-.4071V10.7733c0-.2258.181-.4071.407-.4071h3.067c.226 0 .407.1813.407.4071zm23.904-.4071h-3.432c-.179 0-.339.1159-.39.2853l-2.716 8.8746-2.984-8.8835c-.057-.1665-.211-.2764-.386-.2764h-2.396c-.175 0-.333.1129-.386.2764l-2.984 8.8835-2.717-8.8746c-.053-.1694-.211-.2853-.389-.2853h-3.433c-.131 0-.255.0624-.33.1694-.077.104-.098.2407-.056.3655l5.04 15.0238c.057.1664.211.2764.387.2764h2.725c.176 0 .333-.1129.387-.2764l2.957-8.7765 2.957 8.7765c.056.1664.211.2764.386.2764h2.726c.175 0 .333-.1129.386-.2764l5.041-15.0238c.041-.1218.021-.2585-.057-.3655-.08-.107-.205-.1694-.336-.1694zm5.163 0h-3.067c-.226 0-.407.1813-.407.4071v15.0179c0 .2258.181.4071.407.4071h3.067c.226 0 .407-.1813.407-.4071V10.7733c0-.2258-.181-.4071-.407-.4071zm-34.726 15.318c.179.1991.033.5171-.237.5171h-3.76c-.152 0-.297-.0683-.395-.1872l-.636-.7668c-1.299.8411-2.845 1.3315-4.503 1.3315-4.577 0-8.2981-3.724-8.2981-8.298s3.7241-8.29804 8.2981-8.29804c4.577 0 8.298 3.72404 8.298 8.29804 0 1.6495-.485 3.186-1.32 4.4789l2.553 2.9245zm-7.451-3.3466l-1.646-1.9794c-.173-.208-.024-.523.244-.523h3.444c.164-.4875.256-1.0105.256-1.5515 0-2.4816-1.846-4.6185-4.381-4.6185s-4.381 2.1398-4.381 4.6185 1.846 4.5889 4.381 4.5889c.773 0 1.474-.1962 2.083-.535zM85.5118 34.9481c.1337.8976-.1486 1.2691-.4339 1.2691-.3091 0-.7014-.3626-1.1591-1.0819-.4548-.7073-.6182-1.5187-.3953-1.9318.1486-.2705.4607-.3893.853-.2407.7578.2883 1.055 1.4503 1.1353 1.9853zm-4.1995 1.9556c.9094.7698 1.1858 1.6852.7043 2.3301-.2674.3537-.7014.5498-1.2215.5498-.5112 0-1.0313-.1902-1.3909-.5052-.8262-.7222-1.0699-1.8962-.529-2.5619.211-.2616.5528-.4042.9659-.4042.4993 0 1.0224.211 1.4712.5914zm-1.5217 7.4272c3.9201 0 8.1731 1.3434 12.8809 5.5162.4725.419 1.0997-.1011.6895-.6212-4.6275-5.8431-8.9073-6.9546-13.1751-7.8938-5.219-1.1502-7.9057-4.0866-9.7781-7.3143-.3715-.6419-.538-.529-.5736.2972-.0416 1.0076.0297 2.345.2556 3.6557-.2111.0089-.4221.0059-.6361.0059-7.4688 0-13.5228-6.0541-13.5228-13.5229s6.054-13.5228 13.5228-13.5228 13.5229 6.054 13.5229 13.5228c0 .532-.0267 1.0581-.0862 1.5723-.9867-.1784-2.9304-.1992-4.2946-.0803-.5142.0446-.4399.2824-.0535.3537 4.47.8084 7.5401 3.5784 8.2445 8.6041.0149.1159.1664.1516.2259.0505 1.8397-3.0701 2.8948-6.6604 2.8948-10.5003C89.9134 13.1599 80.7535 4 69.4567 4 58.1599 4 49 13.1599 49 24.4567c0 11.2968 9.1599 20.4567 20.4567 20.4567 2.9958 0 5.9709-.5825 10.3339-.5825z"/>
</svg>
