<svg viewBox="0 0 200 50" xmlns="http://www.w3.org/2000/svg">
	<path fill="#FFE600" d="M68 37.44C68 42.3 65.3 45 60.44 45H35.56C30.7 45 28 42.3 28 37.44V12.56C28 7.7 30.7 5 35.56 5h24.89C65.3 5 68 7.7 68 12.56v24.88Z"/>
	<path fill="#2B2D34" d="M53.7198 23.0496v-3.8199l1.3795-1.3805v3.31L56.3 22.3589l4.8293-4.8294 1.1904 1.1893c-.0103-.8994-.1902-3.5094-2.4003-5.6794-2.3797-2.2996-4.9599-1.2603-5.8398-.3804l-4.8201 4.8201 1.2304 1.2305-2.4897 2.5092-2.4907-2.4897 1.2304-1.2294-4.8201-4.8201c-.8799-.88-3.4601-1.9203-5.8398.3793-2.2101 2.17-2.39 4.78-2.4003 5.6805l1.1904-1.1904 4.8293 4.8304 1.2007-1.1996v-3.3101l1.3795 1.3796v3.8199l1.9398 1.9305-9.5601 9.56 3.7809 3.7695 9.56-9.5497 9.559 9.56L61.34 34.569l-9.56-9.5693 1.9398-1.9501Zm20.9508 3.6205h7.2102v2.2698h-4.5097v2.3303h1.4998c1.0094 0 2.3098.1203 3.2895 1.0804.4204.4194.9405 1.1894.9405 2.4291 0 .3742-.0462.7329-.1356 1.0681-.1501.5592-.4225 1.0505-.8049 1.4319-.2601.2601-.5551.4595-.8789.6106-.147.0679-.3002.1264-.4595.1768-.0782.0247-.1573.0473-.2385.0679-.588.149-1.2439.1953-1.9429.1953h-3.97V26.6701Zm3.7603 9.4902c.3701 0 1.03-.0299 1.4494-.3701.0813-.0699.22-.2077.3218-.4266.074-.1573.1285-.3567.1285-.6034 0-.0884-.0072-.1717-.0195-.2498-.0134-.0833-.034-.1604-.0586-.2323-.0391-.1131-.0905-.2118-.1481-.2971-.0544-.0802-.1151-.1481-.1757-.2046-.0268-.0247-.0535-.0473-.0802-.0678l-.0381-.0288c-.4194-.3002-1.0999-.3094-1.3795-.3094h-1.0701v2.8001h1.0701v-.0102Zm14.449-5.6302h-2.5195v.8799c-.4862-.6609-1.1328-.9488-1.7044-1.0659-.2744-.0566-.5314-.0741-.7463-.0741-1.0793 0-2.0292.3896-2.7097 1.0701-.7195.7196-1.2099 1.8401-1.2099 3.1497 0 1.03.3197 2.0498 1.14 2.9205.8604.9097 1.8 1.1893 2.9205 1.1893.3299 0 .7463-.0411 1.1647-.22.4039-.1727.811-.4739 1.1451-.9899v.9406h2.5195v-7.8002Zm-6.2993 3.8898c0-.3855.0966-.698.2272-.9447.1069-.2004.2354-.3577.3526-.4749.3299-.33.8295-.5602 1.3702-.55.4595 0 1.0198.1697 1.3991.5397.0699.0658.1346.1378.1932.2149.0669.0894.1255.186.1758.2878.1378.2765.2118.5952.2118.9272 0 .6702-.2807 1.1606-.6106 1.47-.1645.1645-.3639.2991-.586.3927-.223.0946-.4687.147-.7236.147-.6004 0-1.1401-.2395-1.4906-.6096-.22-.2498-.5191-.7-.5191-1.4001Zm7.8197-3.8898h2.5195v2.7097h2.8207v-2.7097h2.5195v7.8002h-2.5195V35.27h-2.8207v3.0603h-2.5195v-7.8002Zm11.8897 0h-2.52v7.8002h2.52v-3.4601l2.66 3.4601h3.25l-3.57-4.1797 3.34-3.6205h-3.13l-2.55 3.1003v-3.1003Zm-27.5106-18.86c1.0105 0 2.131.1398 3.0602.9601 1.0002.8697 1.14 2.0303 1.14 2.83 0 1.47-.5602 2.2903-1.0002 2.7498-.9292.9406-2.1494 1.03-2.9697 1.03h-1.6396v4.0903h-2.6902V11.6701h4.0995Zm-1.4196 5.3701h.9601c.1429 0 .3248-.0031.5201-.0309.3136-.0442.66-.1511.9304-.4091.2395-.2405.4399-.6497.4399-1.1503 0-.2241-.036-.4307-.1007-.6116-.0761-.2138-.1933-.3937-.3392-.5284-.401-.3793-.9807-.4399-1.5009-.4399h-.9097v3.1702Zm14.7101-1.5101h-2.5195v.8799c-.3454-.4697-.772-.7514-1.1945-.9169-.4585-.1799-.9129-.2231-1.2562-.2231-1.0794 0-2.0292.3896-2.7097 1.0701-.7196.7196-1.2099 1.8401-1.2099 3.1497 0 .6661.1336 1.3281.4502 1.948.1727.3392.3999.6651.6898.9725.8604.9097 1.8 1.1893 2.9204 1.1893.329 0 .7422-.0401 1.1586-.2169.406-.1727.8151-.4739 1.1513-.993v.9406h2.5195v-7.8002Zm-6.2993 3.8898c0-.7.3197-1.1595.5797-1.4196.33-.33.8399-.5602 1.3703-.55.1357 0 .2796.0155.4256.0453.0853.0174.1706.0401.2559.0688.2622.0884.515.2283.7176.4256.1932.183.3433.4122.442.6703.0421.1099.075.2251.0987.3433.0102.0514.0185.1038.0246.1573.0052.0421.0083.0853.0103.1285.0031.0431.0051.0863.0051.1305 0 .6702-.2806 1.1606-.6106 1.47-.1727.1727-.3834.3125-.6188.4071-.0915.037-.1871.0668-.2858.0884l-.1089.0216-.1018.0123c-.0637.0072-.1285.0103-.1943.0103-.2621 0-.5129-.0463-.7422-.1285-.294-.1059-.551-.2724-.7483-.4811-.22-.2498-.5191-.7-.5191-1.4001Zm10.3392-3.8898v4.4603l3.3203-4.4603h2.3409v7.8002h-2.5208v-4.5302l-3.3203 4.5302h-2.3396v-7.8002h2.5195Zm4.7412-3.1497c-.211.6292-.63 1.1699-1.1207 1.4896-.66.4399-1.47.4903-2.0498.4903-.5798 0-1.3805-.0504-2.0497-.4903-.0576-.0371-.1142-.0761-.1697-.1193-.0627-.0483-.1243-.1007-.184-.1573-.0637-.0606-.1254-.1243-.185-.1922-.2498-.2878-.4544-.6394-.5818-1.0208l1.7496-.6805c.0699.3495.2405.6302.4502.7998.2303.1902.5202.3104.9601.3104.108 0 .2066-.0072.2981-.0205l.0525-.0083.0514-.0102.0688-.0175.0689-.0206c.1645-.0545.3002-.1346.4204-.2333.2097-.1696.3804-.4503.4503-.7998l1.7704.6805Zm6.489 11.0701v3.7696h2.54v-3.7696h.1c1.77 0 2.75-.7308 3.2-1.1708.231-.2272.462-.5171.653-.8779.033-.0617.065-.1254.094-.1912l.054-.1213c.067-.1614.125-.3341.174-.5201.059-.2272.102-.4729.126-.7391.006-.0751.011-.1511.014-.2293.004-.0699.005-.1398.005-.2107 0-.5058-.077-.9509-.201-1.3394-.11-.3454-.259-.6456-.429-.9036-.04-.0617-.082-.1213-.125-.1789l-.037-.0483-.064-.0791c-.159-.1943-.328-.3578-.494-.4904-.77-.6106-1.93-.9406-2.96-.9406h-.12v-3.7397h-2.519v3.7397h-.121c-1.04 0-2.19.33-2.96.9406-.65.5202-1.35 1.4998-1.35 3.0397 0 1.4196.56 2.3499 1.12 2.8896.45.44 1.43 1.1708 3.2 1.1708h.1Zm-.511-5.957c.206-.0452.421-.0637.632-.0534v3.9802c-.641.0196-1.241-.22-1.571-.59-.3-.3105-.51-.8203-.51-1.4299 0-.6199.21-1.1205.51-1.4207.231-.2374.57-.405.939-.4862Zm4.481 3.3471c-.33.3597-.92.6095-1.569.59v-3.9803c.405-.0277.82.0627 1.16.2426.154.0823.294.182.409.2971.137.1367.255.3166.344.5294.104.256.166.5582.166.8902 0 .6106-.21 1.1205-.51 1.431Zm8.151 6.3795v-3.7696h-.101c-.569 0-1.057-.076-1.472-.1932-.227-.0637-.432-.1408-.616-.2241-.526-.2385-.886-.5325-1.111-.7535-.077-.074-.154-.1552-.229-.2447-.066-.0771-.131-.1603-.192-.2487-.145-.2077-.28-.4472-.391-.7206-.124-.3053-.219-.6528-.269-1.0455-.016-.1182-.027-.2415-.033-.368-.004-.0853-.006-.1727-.006-.2621 0-1.5399.7-2.5195 1.349-3.0397.77-.6106 1.921-.9406 2.961-.9406h.12v-3.7397h2.52v3.7397h.12c.32 0 .652.0319.981.0936.166.0308.332.0699.495.1172.144.0411.285.0884.423.1408.392.1511.756.3485 1.061.589.65.5202 1.349 1.4998 1.349 3.0397 0 .5654-.088 1.0506-.23 1.4659-.128.3721-.298.6877-.486.9519-.13.1809-.267.3371-.403.4718-.288.2817-.794.6826-1.585.9344-.211.0668-.442.1234-.694.1645-.28.0462-.586.0719-.921.0719h-.1v3.7696h-2.54Zm.12-9.78c-.59-.0298-1.211.1696-1.571.5396-.3.3002-.509.8008-.509 1.4207 0 .6096.209 1.1194.509 1.4299.33.37.931.6096 1.571.59v-3.9802Zm2.279 3.9905c.651.0195 1.241-.2303 1.571-.59.159-.1645.293-.3855.383-.6477.081-.2323.127-.4965.127-.7833 0-.6095-.21-1.1194-.51-1.4196-.37-.37-.981-.5797-1.571-.5397v3.9803Zm14.18-5.9005h-2.52v.8799c-.72-.9796-1.79-1.14-2.45-1.14-1.08 0-2.03.3896-2.71 1.0701-.72.7196-1.21 1.8401-1.21 3.1497 0 .6559.13 1.3076.435 1.9192.175.3495.407.6846.705 1.0013.86.9097 1.8 1.1893 2.921 1.1893.649 0 1.629-.1593 2.309-1.2099v.9406h2.52v-7.8002Zm-6.299 3.8898c0-.3248.068-.5972.168-.8224.115-.2611.272-.4574.411-.5972.33-.33.84-.5602 1.371-.55.459 0 1.019.1697 1.399.5397.37.3495.58.8697.58 1.4299 0 .6702-.28 1.1606-.61 1.47-.33.33-.8.5397-1.31.5397-.6 0-1.14-.2395-1.49-.6096-.106-.1203-.231-.2878-.331-.5068-.108-.2354-.188-.5314-.188-.8933Zm10.339-3.8898v4.4603l3.32-4.4603h2.341v7.8002h-2.521v-4.5302l-3.32 4.5302h-2.34v-7.8002h2.52Zm4.741-3.1497c-.098.292-.241.5644-.415.8049-.121.1686-.258.3208-.406.4534-.095.0863-.196.1634-.3.2313-.167.111-.344.1973-.525.2652-.208.0771-.419.1285-.627.1624-.323.0524-.634.0627-.898.0627-.579 0-1.38-.0504-2.049-.4903-.491-.3105-.911-.8604-1.121-1.4896l1.75-.6805c.07.3495.24.6302.45.7998.115.0946.245.1717.401.2251.156.0545.339.0853.559.0853.44 0 .73-.1202.96-.3104.107-.0864.204-.2015.283-.3403.075-.1336.134-.2878.168-.4595l1.77.6805Zm3.479 3.1692c-.42.1604-.96.44-1.29.6507l.98 1.69c.251-.2107.511-.3701.841-.5099.33-.1408.629-.2107 1.03-.2107.419 0 .669.0905.789.1408.181.0812.281.1933.332.3002.036.0771.049.1511.049.2097 0 .1501-.07.3793-.37.5191-.082.0381-.19.0658-.306.0864-.226.0411-.483.0545-.635.0545H149v1.7095h.94c.281 0 .7.0503.911.1398.098.0431.181.0976.242.1665.082.0904.128.2056.128.3536 0 .1141-.023.2632-.127.3999-.052.0678-.124.1336-.224.1902-.25.1398-.63.1901-.909.1901-.266 0-.556-.0421-.817-.1089-.143-.037-.276-.0812-.393-.1306-.311-.1408-.681-.3906-.961-.6301l-1.07 1.6601c.099.0792.261.2067.477.3465.101.0647.212.1326.333.1994.177.0966.376.1912.59.2734.701.2601 1.43.3505 2.13.3505 1.301 0 2.211-.1901 2.87-.8398.26-.2601.431-.5376.537-.8183.102-.2713.143-.5468.143-.812 0-.0689-.002-.1368-.008-.2025-.004-.0422-.008-.0843-.015-.1255l-.014-.0863c-.064-.3248-.213-.6127-.482-.8758-.11-.11-.471-.4205-1.051-.5603.06-.0216.118-.0483.176-.0781.048-.0247.095-.0524.141-.0822l.059-.0401c.042-.0288.082-.0596.121-.0915.057-.0463.112-.0966.163-.148.381-.3999.47-.8399.47-1.3302 0-.1491-.011-.2961-.038-.439-.014-.0781-.034-.1552-.059-.2312-.086-.2704-.238-.5253-.483-.7597-.789-.77-2.219-.7998-2.64-.7998-.6 0-1.25.0699-1.84.2796Zm14.62 4.3206h-5.82c0 .1449.019.3073.057.4718.072.3104.211.6291.414.8573.099.111.21.1984.326.2652.082.0473.166.0853.25.1152.25.0894.504.11.713.11.139 0 .28-.0103.416-.0309.223-.0349.432-.0997.594-.1994.03-.0195.33-.2097.54-.6497l2.38.2406c-.35 1.0999-1.05 1.6796-1.5 1.9593-.75.4502-1.59.5797-2.469.5797-1.171 0-2.201-.2097-3.111-1.1194-.68-.6805-1.17-1.7106-1.17-3.0099 0-1.1205.4-2.2697 1.19-3.0798.468-.4687.997-.7483 1.516-.9107.523-.1645 1.037-.2097 1.474-.2097.87 0 2.13.1603 3.1 1.1698.93.9807 1.1 2.1998 1.1 3.1702v.2704Zm-2.32-1.5009c-.02-.0699-.14-.5592-.51-.9097-.103-.0956-.222-.1799-.357-.2488-.087-.0452-.181-.0832-.281-.113-.167-.0504-.351-.0782-.552-.0782-.217 0-.403.0288-.565.0761-.323.0956-.549.2673-.715.4338-.19.2107-.37.4903-.44.8398h3.42Zm5.98-2.8392h-2.52v7.8002h2.52V20.27h2.82v3.0603h2.52v-7.8002h-2.52v2.7097h-2.82v-2.7097Z"/>
</svg>