<svg xmlns="http://www.w3.org/2000/svg" viewBox="0 0 200 50">
	<path fill="#FFED00" d="M24.12 9.12h31.39v31.39H24.12V9.12z"/>
	<g fill="#000">
		<path d="M93.53 28.19l-.81 5h4.88l.81-5H102l-2.2 13.45h-3.56l.93-5.77h-4.88l-.93 5.77h-3.6L90 28.19h3.57-.04zm14.22 0H104l-2.25 13.45h3.68l1-5.81 3.8 5.85H115l-5-7.09 6.7-6.36h-4.5l-5.39 5.54.94-5.58zm-25.5 8.41l-.78-4.3-2.25 4.3h3.03zm.54 2.67h-5.08l-1.35 2.33h-3.92l7.67-13.45h4l3.1 13.45H83.3l-.51-2.33zm-9.65-1.71c-.1057.9037-.4821 1.7542-1.08 2.44-1.43 1.47-3.6 1.55-5 1.59h-5.39L64 28.19h9.18l-.43 2.63h-5.57l-.43 2.67h1.59c1.3554-.0946 2.7008.2913 3.8 1.09.413.37.7225.8413.8979 1.3674.1753.5261.2105 1.0888.1021 1.6326v-.02zM67.33 36h-1l-.5 2.87h.93c2.09 0 2.52-.58 2.64-1.36.12-.78 0-1.51-2.09-1.51h.02zm92.98-20.27h3.72c-.085-.4152-.315-.7869-.648-1.0487-.333-.2619-.748-.397-1.172-.3813-.439-.0448-.878.0776-1.23.3427s-.592.6534-.67 1.0873zm6.69 1.53v.35h-6.74c-.032.2704-.003.5446.087.8018.089.2573.235.4911.428.6836.192.1925.426.3389.683.428.257.0892.532.1188.802.0866.308.0262.617-.0409.886-.1925s.487-.3807.624-.6575h3.1c-.5 2.17-2.52 3.14-4.57 3.14-3 0-5.23-1.7-5.23-4.88-.038-.6611.066-1.3227.306-1.9401.239-.6174.609-1.1762 1.082-1.6387.474-.4626 1.042-.8181 1.665-1.0425.623-.2245 1.287-.3127 1.947-.2587 3.14 0 4.92 2 4.92 5.12h.01zm-88.9-2.44c-.2752-.0139-.5503.0293-.808.1267-.2578.0975-.4926.2471-.6898.4396s-.3524.4236-.4561.679c-.1036.2553-.1534.5292-.1461.8047-.0069.2711.0415.5407.142.7926.1006.2518.2514.4805.4431.6723.1918.1917.4205.3425.6723.443.2519.1006.5215.149.7926.1421.2738.0176.5482-.0233.8049-.1201.2567-.0968.4898-.2472.6838-.4412.194-.194.3444-.4271.4412-.6838s.1377-.5311.1201-.8049c.0068-.2711-.0415-.5407-.1421-.7926-.1006-.2518-.2513-.4805-.4431-.6723-.1917-.1917-.4204-.3425-.6723-.443-.2518-.1006-.5214-.149-.7925-.1421h.05zm5.1-2.52v9.15H80v-1c-.3028.4317-.7103.7794-1.1844 1.0103-.4741.2309-.999.3375-1.5256.3097-.6203-.0152-1.2313-.1545-1.797-.4095-.5657-.2551-1.0746-.6208-1.4968-1.0755-.4221-.4548-.749-.9895-.9613-1.5725-.2123-.5831-.3058-1.2028-.2749-1.8225-.0336-.6176.0566-1.2357.2653-1.8179.2087-.5823.5317-1.1169.95-1.5725.4184-.4556.9236-.823 1.4859-1.0805.5624-.2575 1.1706-.4 1.7888-.4191.5171-.0121 1.0307.088 1.5055.2934.4747.2055.8993.5113 1.2445.8966v-.89h3.2zm46.85 2.52c-.271-.0069-.541.0415-.793.1421-.251.1005-.48.2513-.672.443-.192.1918-.342.4205-.443.6723-.101.2519-.149.5215-.142.7926-.007.2711.041.5407.142.7926.101.2518.251.4805.443.6723.192.1917.421.3425.672.443.252.1006.522.149.793.1421.274.0176.548-.0233.805-.1201s.49-.2472.684-.4412c.194-.194.344-.4271.441-.6838.097-.2567.138-.5311.12-.8049.007-.2711-.041-.5407-.142-.7926-.101-.2518-.251-.4805-.443-.6723-.192-.1917-.421-.3425-.672-.443-.252-.1006-.522-.149-.793-.1421zm5.12-2.52v9.15H132v-1c-.303.4317-.71.7794-1.184 1.0103s-.999.3375-1.526.3097c-.62-.0152-1.231-.1545-1.797-.4095-.566-.2551-1.075-.6208-1.497-1.0755-.422-.4548-.749-.9895-.961-1.5725-.212-.5831-.306-1.2028-.275-1.8225-.032-.6176.059-1.2354.269-1.8172.21-.5817.534-1.1156.954-1.5702.419-.4547.925-.8209 1.488-1.0772.562-.2564 1.171-.3976 1.789-.4154.525-.0167 1.046.0821 1.529.2895.482.2073.912.5182 1.261.9105v-.91h3.12zm-73 9.15V8h5.43c3.64 0 4.69 2.6 4.69 4.42.0254.6124-.0805 1.2231-.3104 1.7912-.2299.5681-.5786 1.0805-1.0227 1.5029-.4442.4223-.9734.7448-1.5524.9459-.579.2011-1.1942.2761-1.8045.22h-2v4.57h-3.43zm3.45-10.54V14h1.16c1.59 0 1.74-1 1.74-1.51s-.23-1.51-1.74-1.51h-1l-.12-.07h-.04zm19.61 1.4v9.15h3.1l3.18-5v5h3.22V12.3h-3.1l-3.18 4.92V12.3l-3.22.01zm5-1.16c.7544.0607 1.509-.1134 2.1607-.4982.6516-.3849 1.1683-.96185 1.4793-1.6518l-2.09-.78c-.0776.33563-.2722.63265-.5489.83788-.2767.20522-.6174.30523-.9611.28212-.3446.02732-.6873-.07108-.9649-.27698-.2776-.2059-.4713-.50538-.5451-.84302L86.67 9c.3151.67678.8276 1.2424 1.4701 1.6225.6425.3802 1.385.5571 2.1299.5075l-.04.02zm11.12 14.28V21.6c-1.9 0-5.08-.78-5.08-4.73s3.14-4.69 5.08-4.69v-4h3.22v4c1.94 0 5 .78 5 4.69s-3.14 4.73-5 4.73v3.88l-3.22-.05zm3-11v5.08c1.09 0 2.17-.78 2.17-2.56s-1.09-2.56-2.17-2.52zm-2.79 5v-5c-1.09 0-2.17.78-2.17 2.56s1.09 2.52 2.17 2.48v-.04zm14.22 6.04V21.6c-1.9 0-5.08-.78-5.08-4.73s3.14-4.69 5.08-4.69v-4H119v4c1.94 0 5.08.78 5.08 4.69s-3.14 4.73-5.08 4.73v3.88h-3.22v-.01zm3-11v5.08c1.09 0 2.17-.78 2.17-2.56s-1.09-2.56-2.17-2.52zm-2.83 5v-5c-1.09 0-2.21.78-2.21 2.56-.03.3126.007.6278.108.9252.1.2974.263.5702.476.8005.213.2303.473.413.762.5361.289.1231.6.1838.914.1782h-.05zm21.32-7.17v9.15h3.1l3.18-5v5h3.22V12.3h-3.1l-3.22 4.88V12.3h-3.18zm5-1.16c.742.0467 1.48-.1328 2.118-.515.637-.3821 1.144-.94876 1.452-1.625l-2.09-.78c-.078.33563-.272.63265-.549.83788-.277.20522-.617.30523-.961.28212-.345.03171-.69-.06499-.969-.27161-.278-.20662-.471-.50867-.541-.84839l-2.1.78c.315.67678.828 1.2424 1.47 1.6225.643.3802 1.385.5571 2.13.5075l.04.01zm6.9 3.79c.695-.4814 1.515-.7522 2.36-.78.39 0 1.28.08 1.28.81 0 .73-.78.78-1.08.78h-1.59v2h1.4c.47 0 1.32 0 1.32.78 0 .31-.19.89-1.32.89-.981-.0023-1.939-.2983-2.75-.85l-.79 2.19c1.25.7176 2.669 1.0903 4.11 1.08 3.68 0 4.15-2.13 4.15-2.83.004-.5339-.18-1.0521-.52-1.4636-.341-.4116-.815-.69-1.34-.7864.407-.183.75-.4836.986-.8632.235-.3795.351-.8206.334-1.2668 0-2.13-2.25-2.56-3.64-2.56-1.303.0241-2.585.3276-3.76.89l.85 1.98zm19.45 6.51h3.22V17.8h2.95v3.64H178V12.3h-3.22v3.22h-2.95V12.3h-3.22l.01 9.14z"/>
		<path d="M56.6 41.6H23V8h33.6v33.6zM55.51 9.12H24.12v31.39h31.39V9.12z"/>
		<path d="M39.82 28.65l-9.65 9.65-3.84-3.84L36 24.82l-2-2v-4l-1.4-1.4v3.45l-1.2 1.2-4.92-4.84-1.2 1.2c.0065-1.0751.2255-2.1383.6442-3.1285.4188-.9902 1.029-1.8879 1.7958-2.6415.7401-.8293 1.7762-1.3348 2.8852-1.4078 1.1091-.0729 2.2025.2926 3.0448 1.0178l4.88 4.92-1.24 1.24L39.82 21l2.56-2.56-1.24-1.24L46 12.26c.8412-.7277 1.9352-1.0948 3.045-1.0218 1.1099.073 2.1464.5802 2.885 1.4118.7668.7536 1.377 1.6513 1.7958 2.6415.4187.9902.6376 2.0534.6442 3.1285l-1.2-1.2-4.92 4.88-1.2-1.2v-3.48l-1.39 1.4v4l-2 2 9.65 9.65-3.84 3.83-9.65-9.65z"/>
	</g>
</svg>
