<svg xmlns="http://www.w3.org/2000/svg" viewBox="0 0 200 50">
	<path fill="#323E48" d="M56.6 11.25H64c1.6388-.011 3.2164.6222 4.3929 1.7632 1.1765 1.141 1.8578 2.6984 1.8971 4.3368-.0159 1.655-.6865 3.2365-1.8653 4.3983C67.246 22.9102 65.6551 23.558 64 23.55h-4.6v5h-2.8v-17.3zm7.13 9.67c.4827.0201.9645-.0571 1.4168-.2271.4522-.17.8656-.4292 1.2155-.7624.3499-.3331.6292-.7333.8212-1.1766.1921-.4433.2929-.9208.2965-1.4039.0035-.4852-.0925-.9659-.2821-1.4126-.1895-.4466-.4686-.8497-.8201-1.1842-.3514-.3346-.7677-.5935-1.2231-.7609s-.9403-.2396-1.4247-.2123h-4.32v7.13l4.32.01zm7.41 1.31c-.0405-.8659.0987-1.7308.4088-2.5402.3101-.8095.7845-1.546 1.3932-2.1631.6087-.6172 1.3385-1.1016 2.1436-1.4229.8051-.3212 1.668-.4724 2.5344-.4438 4 0 6 3.38 6 6.76v.66H74c.38 2.16 2.25 3.38 4.79 3.38 1.4108-.0094 2.7928-.3998 4-1.13v2.35c-1.3769.8575-2.9792 1.2825-4.6 1.22-3.95-.01-7.05-2.63-7.05-6.67zm9.67-1.31c-.0113-.4146-.106-.8228-.2784-1.2001-.1723-.3773-.4189-.716-.725-.9959-.3061-.28-.6654-.4954-1.0565-.6336-.3912-.1381-.8061-.1961-1.2201-.1704-.8564-.0553-1.7001.2283-2.3493.7895-.6491.5613-1.0517 1.3552-1.1207 2.2105h6.75zm5.25-4.98h2.82v4.88h6.38v-4.88h2.82v12.58h-2.82v-5.26h-6.38v5.26h-2.82V15.94zm14.36 6.29c-.041-.8659.099-1.7308.409-2.5402.31-.8095.784-1.546 1.393-2.1631.609-.6172 1.339-1.1016 2.144-1.4229.805-.3212 1.668-.4724 2.534-.4438 4 0 6 3.38 6 6.76v.66h-9.67c.38 2.16 2.25 3.38 4.79 3.38 1.411-.0094 2.793-.3998 4-1.13v2.35c-1.377.8575-2.979 1.2825-4.6 1.22-3.9-.01-7-2.63-7-6.67zm9.67-1.31c-.011-.4146-.106-.8228-.278-1.2001-.173-.3773-.419-.716-.725-.9959-.306-.28-.666-.4954-1.057-.6336-.391-.1381-.806-.1961-1.22-.1704-.856-.0553-1.7.2283-2.349.7895-.649.5613-1.052 1.3552-1.121 2.2105h6.75zm4.41 1.31c-.005-.8881.171-1.7679.517-2.5858.346-.8179.855-1.5567 1.496-2.1715.641-.6147 1.4-1.0925 2.232-1.4042.831-.3116 1.718-.4506 2.605-.4085 1.3-.0325 2.588.256 3.75.84v2.35c-1.041-.552-2.202-.8404-3.38-.84-.576-.0311-1.152.0547-1.693.2522-.542.1975-1.038.5026-1.458.8969-.421.3943-.757.8697-.989 1.3975-.232.5277-.354 1.097-.36 1.6734-.001.5785.116 1.1512.346 1.6823.229.5312.565 1.0095.987 1.4052.422.3958.921.7005 1.466.8954.545.1948 1.124.2755 1.701.2371 1.257.0483 2.5-.2789 3.57-.94v2.35c-1.224.6749-2.602 1.0196-4 1-.885.0269-1.767-.125-2.593-.4466-.825-.3217-1.577-.8064-2.211-1.4253-.634-.6189-1.136-1.3592-1.478-2.1768-.341-.8175-.514-1.6954-.508-2.5813zm12.2 0c-.005-.8881.171-1.7679.517-2.5858.346-.8179.855-1.5567 1.496-2.1715.641-.6147 1.4-1.0925 2.232-1.4042.831-.3116 1.718-.4506 2.605-.4085 1.3-.0325 2.588.256 3.75.84v2.35c-1.041-.552-2.202-.8404-3.38-.84-.576-.0311-1.152.0547-1.693.2522-.542.1975-1.038.5026-1.458.8969-.421.3943-.757.8697-.989 1.3975-.232.5277-.354 1.097-.36 1.6734-.001.5785.116 1.1512.346 1.6823.229.5312.565 1.0095.987 1.4052.422.3958.921.7005 1.466.8954.545.1948 1.124.2755 1.701.2371 1.257.0483 2.5-.2789 3.57-.94v2.35c-1.224.6749-2.602 1.0196-4 1-.883.0186-1.762-.139-2.583-.4636-.822-.3246-1.571-.8097-2.203-1.4269-.632-.6173-1.135-1.3543-1.479-2.1681-.344-.8137-.523-1.6879-.525-2.5714zm26.18 3.94v2.06c-.485.2795-1.041.4115-1.6.38-.575.0463-1.149-.1047-1.628-.4283-.478-.3236-.831-.8003-1.002-1.3517-.577.6455-1.287 1.1585-2.081 1.5038-.794.3452-1.653.5145-2.519.4962-2.63 0-4.69-1.5-4.69-4.22 0-2.72 2.06-3.66 4.79-3.66h4.32v-.19c0-2.16-1.78-2.72-3.66-2.72-1.388.0344-2.745.4234-3.94 1.13V16.7c1.428-.7048 3.008-1.0482 4.6-1 3.38 0 5.82 1.6 5.82 4.79v4.69c-.017.1461-.004.2941.038.4352.042.141.111.2723.204.3861.093.1137.209.2076.339.2761.13.0685.272.1102.419.1226.215-.0183.42-.0982.59-.23zm-4.6-3.1H145c-1.78 0-3 .38-3 1.6 0 1.41 1.22 1.88 2.72 1.88.665-.0001 1.323-.1328 1.936-.3904.613-.2575 1.169-.6348 1.634-1.1096l-.01-1.98zm6.57-7.13h2.82v4.88H164v-4.88h2.82v12.58H164v-5.26h-6.38v5.26h-2.82l.05-12.58zm14.36 6.29c-.005-.8881.171-1.7679.517-2.5858.346-.8179.855-1.5567 1.496-2.1715.641-.6147 1.4-1.0925 2.232-1.4042.831-.3116 1.718-.4506 2.605-.4085 1.3-.0325 2.588.256 3.75.84v2.35c-1.041-.552-2.202-.8404-3.38-.84-.576-.0311-1.152.0547-1.693.2522-.542.1975-1.038.5026-1.458.8969-.421.3943-.757.8697-.989 1.3975-.232.5277-.354 1.097-.36 1.6734-.001.5785.116 1.1512.346 1.6823.229.5312.565 1.0095.987 1.4052.422.3958.921.7005 1.466.8954.545.1948 1.124.2755 1.701.2371 1.257.0483 2.5-.2789 3.57-.94v2.35c-1.224.6749-2.602 1.0196-4 1-.885.0269-1.767-.125-2.593-.4466-.825-.3217-1.577-.8064-2.211-1.4253-.634-.6189-1.136-1.3592-1.478-2.1768-.341-.8175-.514-1.6954-.508-2.5813zM56.6 35.28h1.31v2.44l2.25-2.44h1.6l-2.63 2.82 3.1 3.38h-1.6L58 38.65v2.82h-1.4v-6.19zm7.32 0h2.72c.2719-.0445.5502-.0294.8156.0443.2655.0737.5117.2043.7217.3827.21.1783.3786.4002.4943.6503.1157.25.1756.5222.1756.7977 0 .2755-.0599.5477-.1756.7977-.1157.2501-.2843.472-.4943.6504-.21.1783-.4562.3089-.7217.3826-.2654.0737-.5437.0888-.8156.0443h-1.41v2.44h-1.31v-6.19zm2.63 2.63c.56 0 .94-.28.94-.75s-.38-.75-.94-.75h-1.32v1.5h1.32zm4.12-2.63h4.5v1.12h-3.28v1.22h2.63v1.13h-2.63v1.6h3.47v1.13h-4.69v-6.2zm6.39 5.06h.56c.6717-1.2201.9641-2.6128.84-4v-.94h4.32v5.07h.84v2.44H82.4v-1.25h-4.22v1.22H77v-2.54h.06zm4.5 0V36.4h-1.78c.0563 1.3449-.1685 2.6868-.66 3.94h2.44zm4.04-5.06h1.31v4l3-4H91v6.19h-1.18v-4l-3.19 4h-1l-.03-6.19zm12.4 0v1.12h-2v5.07h-1.3V36.4h-2v-1.12H98z"/>
    <radialGradient id="gr1" cx="0" cy="0" r="1" gradientUnits="userSpaceOnUse" gradientTransform="translate(20.81 34.14) scale(23.35)">
		<stop stop-color="#D6005E"/>
		<stop offset="1" stop-color="#E3448A"/>
    </radialGradient>
	<path fill="url(#gr1)" d="M24 35.28h-4V17.91c.0158-2.8568 1.1576-5.5922 3.1777-7.6123C25.1978 8.27761 27.9332 7.13575 30.79 7.12h13.33v10.7c0 2.8617-1.1368 5.6062-3.1603 7.6297-2.0235 2.0235-4.768 3.1603-7.6297 3.1603h-6.76l1.5-4h5.16c.8922.0053 1.7766-.1668 2.6017-.5064.8251-.3396 1.5744-.8398 2.2044-1.4717.63-.6318 1.128-1.3826 1.4652-2.2087.3371-.8261.5067-1.711.4987-2.6032v-6.66h-9.3c-.8888-.004-1.7697.1682-2.5916.5065-.822.3383-1.5688.8361-2.1973 1.4646-.6285.6285-1.1263 1.3753-1.4646 2.1973-.3383.8219-.5105 1.7027-.5065 2.5916v17.36H24z"/>
</svg>
