<svg xmlns="http://www.w3.org/2000/svg" viewBox="0 0 200 50">
	<g fill="#00863E">
		<path d="M83.3316 40.0628h-.7126v1.869h-1.3362v-4.9842h1.3362v1.9581h.7126l1.158-1.9581h1.5144l-1.5144 2.4031 1.5144 2.5811h-1.6034l-1.069-1.869zM91.2592 39.3506c.1783-.089.1781-.2671.1781-.5341s-.089-.445-.1781-.534c-.0891-.178-.3563-.178-.6235-.178h-.8017v1.424h.8017c.2672 0 .5344-.0889.6235-.1779zm.6236-2.1361c.3563.178.6236.356.8017.623.1782.267.2672.6231.2672.979 0 .3561-.089.712-.2672.9791-.1781.267-.4454.4451-.8017.623-.3563.178-.7127.2671-1.158.2671h-.8908v1.3351h-1.4253v-4.9844h2.3161c.4453-.0889.8908 0 1.158.1781zM99.2768 40.8637v1.0681h-4.0085v-4.9842h3.9195v1.0681h-2.5834v.89h2.2271v1.068h-2.2271v.89h2.6724zM103.913 39.9738c-.089.356-.178.623-.267.89h1.871v-2.7591h-1.426v.534c-.089.5341-.178.9791-.178 1.3351zm3.653.89V43h-1.337v-.979h-3.206V43h-1.337v-2.1362h.179c.267 0 .534-.1779.623-.6229.089-.3561.178-.9791.267-1.6912l.089-1.5131h4.009v3.9163h.713v-.0891zM110.147 36.9476h1.425v2.9371l2.049-2.9371h1.336v4.9842h-1.425v-2.9371l-2.049 2.9371h-1.336v-4.9842zM121.992 38.1046h-1.514v3.8272h-1.425v-3.8272h-1.515v-1.157h4.454v1.157zM131.345 40.9528c.267 0 .446-.0891.535-.178.089-.089.178-.267.178-.4451 0-.356-.267-.5339-.713-.5339h-.98v1.0679h.98v.0891zm-2.405-4.0052h4.187v1.0681h-2.762v.8009h1.336c.624 0 1.069.0891 1.426.3561.356.267.445.6231.445 1.0681 0 .534-.178.89-.534 1.157-.357.267-.891.4451-1.515.4451h-2.494v-4.8953h-.089zM139.097 39.9737l-.624-1.6021-.623 1.6021h1.247zm.445.9791h-2.138l-.356.979h-1.425l2.227-4.9842h1.425l2.227 4.9842h-1.604l-.356-.979zM148.717 36.9476v4.9842h-1.424v-1.9581h-1.96v1.9581h-1.426v-4.9842h1.426v1.869h1.96v-1.869h1.424zM153.705 40.0628h-.624v1.869h-1.425v-4.9842h1.425v1.9581h.713l1.158-1.9581h1.514l-1.603 2.4031 1.603 2.5811h-1.603l-1.158-1.869zM93.9347 17.0995c0 1.3351-.4454 2.3142-1.3361 3.0262-.8908.7121-2.138 1.0681-3.8305 1.0681h-3.1177v-8.2775h3.1177c1.6925 0 3.0287.356 3.8305 1.068.8907.8011 1.3361 1.8692 1.3361 3.1152zm3.2069-4.1832c-.8017-1.1571-1.8707-2.0471-3.296-2.6701-1.4252-.62305-3.0286-.97911-4.9885-.97911h-7.6608V31.1623h4.3649V24.932h3.2959c1.8707 0 3.5633-.356 4.9885-.9791 1.4253-.623 2.4943-1.5131 3.296-2.7591.7126-1.1571 1.158-2.5812 1.158-4.1832 0-1.5131-.3563-2.8482-1.158-4.0943zM115.492 27.5131v3.7382h-15.144V9.26709h14.699v3.73821h-10.423v5.2513h9.086v3.6492h-9.086v5.6073h10.868zM134.733 29.4712c-.623.445-1.247.8011-1.96 1.0681-1.514.623-3.117.9791-4.899.9791-2.227 0-4.187-.5341-5.968-1.4242-1.782-.979-3.207-2.3141-4.187-4.0052-.98-1.691-1.514-3.6492-1.514-5.7853 0-2.1361.534-4.0942 1.514-5.7854.98-1.691 2.405-3.0261 4.187-4.0052 1.781-.97902 3.83-1.42405 5.968-1.42405 1.782 0 3.474.35606 4.899.97905.624.2671 1.248.623 1.871.9791l-2.583 3.0261c-1.158-.712-2.494-1.157-4.009-1.157-1.425 0-2.761.356-3.919.9791-1.158.6229-2.049 1.513-2.673 2.6701-.623 1.1571-.979 2.4031-.979 3.8272 0 1.4241.356 2.6702.979 3.8272.624 1.1571 1.515 2.0471 2.673 2.6702 1.158.623 2.494.979 3.919.979 1.604 0 3.029-.445 4.276-1.3351l2.405 2.9372z"/>
		<path d="M153.706 20.2146c0 1.424-.355 2.6702-.98 3.8272-.623 1.1571-1.513 2.0471-2.672 2.6702-1.158.623-2.405.9791-3.83.9791-1.426 0-2.673-.3561-3.831-.9791-1.158-.6231-2.049-1.5131-2.672-2.6702-.624-1.157-.98-2.4032-.98-3.8272s.356-2.6701.98-3.8272c.623-1.157 1.514-2.0471 2.672-2.6701 1.158-.6231 2.405-.9791 3.831-.9791 1.425 0 2.672.356 3.83.9791 1.159.623 2.049 1.5131 2.672 2.6701.625 1.1571.98 2.4921.98 3.8272zm2.851-5.7853c-.98-1.6911-2.406-3.0261-4.276-4.0053C150.5 9.44503 148.451 9 146.224 9c-2.227 0-4.276.44503-6.058 1.424-1.781.9792-3.207 2.3142-4.187 4.0053-.979 1.6911-1.514 3.6491-1.514 5.7853 0 2.1362.535 4.0942 1.514 5.7853.98 1.6912 2.406 3.1152 4.187 4.0053 1.782.979 3.831 1.424 6.058 1.424s4.276-.534 6.057-1.424c1.781-.979 3.207-2.3141 4.276-4.0053.979-1.6911 1.515-3.6491 1.515-5.7853 0-2.1362-.536-4.0052-1.515-5.7853zM61.7758 35.2566c-1.5144 1.1571-3.296 2.0471-5.523 2.4922V25.8221h-3.5632v6.3194c-1.6035-.8011-2.9397-1.8691-3.9195-3.2042-1.1581-1.5131-2.0489-3.2932-2.4943-5.5183h11.9367v-3.5602h-6.3246c.8017-1.6021 1.8706-2.9372 3.2069-3.9163 1.5143-1.1571 3.2959-2.0471 5.5228-2.4921v12.1047h3.5632v-6.4974c1.6035.8011 2.9397 1.8691 3.9196 3.2042 1.1581 1.5131 2.0489 3.2932 2.4942 5.5183H58.747v3.5602h6.2355c-.8016 1.6021-1.8706 2.9372-3.2067 3.9162zm12.9165-3.9162l-.2672-2.0471c-.4455-3.8272-1.6925-6.9424-3.5633-9.3456-1.6925-2.2251-4.0085-3.8272-6.7701-4.8953V9.26721l-2.0487.267c-3.8305.44502-6.9482 1.69099-9.3534 3.56019-2.227 1.691-3.8305 4.0052-4.8994 6.7644H42l.2672 2.0471c.4454 3.8272 1.6926 6.9423 3.5632 9.3455 1.6925 2.2251 4.0086 3.8272 6.7701 4.8953v5.7853l2.0488-.267c3.8305-.445 6.9482-1.6911 9.3534-3.5602 2.227-1.6911 3.8305-4.0052 4.8994-6.7644h5.7902z"/>
	</g>
</svg>
