<svg xmlns="http://www.w3.org/2000/svg" viewBox="0 0 200 50">
	<path fill="#0039a6" d="M175 35.1l-3.8-4.7h-9.7c-3.4-.2-7-2.6-6.5-7.6s6.9-5.3 7-5.2l-2.7-3.6c0-.1-.1-.1-.2 0h-.9c-1.1 0-9 .8-8.4 10.2s9.7 10.8 9.7 10.8l15.5.1zM82.6 20.2l-5.9-5.9-3.2 3.2 17.9 17.8h6.3l-9.8-9.8v-1.8h7.7v9.4l2.1 2h3.2v-21h-5.3v4.4H88v-4.4h-5.4zM41 14.3H25v21.2h5.4v-5.6h11.8s5.8-.5 6-7.2c.1-8-6.6-8.4-7.2-8.4zm-1.3 10.2h-9.3v-4.7h9.5c.3 0 .7 0 1 .1.3.1.6.2.9.4.3.2.5.5.6.8.1.3.2.6.2.9.3 2.7-2.9 2.5-2.9 2.5zM143.4 14.1l-16.5 16.1-7.9-7.6 8.9-8.6h-7l-12.4 12V14H103v21.1h3.2l8.8-8.6 9 8.6h4.7l5.4-5.2h8.4v5.2h5.4v-21h-4.5zm-.9 11.3h-3.8l3.8-3.6v3.6zM50.2 23.2h5.2v5.3h-5.2zM55.5 14.2l17.3 17.3 3.1-3.2-14.1-14.1zM48.1 14.2l21 21 3.1-3.2-17.8-17.8zM90.2 35.3L72.9 18l-3.1 3.2 14.1 14.1z"/>
	<path fill="#d52b1e" d="M96.4 34.8zm0 0h-5L85 28.4h5c3.5 3.4 6.3 6.2 6.4 6.4zm-25.8-6.3l2.2 2.2 2.2-2.2h-4.4zm18.3 6.3c-.2-.3-3.1-3.1-6.4-6.4h-4.9l6.4 6.4h4.9zM68 28.5h-5.1l6.2 6.2 2.5-2.5-3.6-3.7z"/>
	<path fill="#fff" d="M49 14.7h5.2l6.7 6.5h-5.2C52 17.6 49 14.7 49 14.7zM75.1 21h-4.5l2.3-2.2 2.2 2.2zm-18.5-6.3h5l6.6 6.4h-5.1c-3.4-3.4-6.5-6.4-6.5-6.4zm26.3 6.4l-6.2-6.2-2.6 2.6 3.6 3.7h5.2z"/>
</svg>