<svg xmlns="http://www.w3.org/2000/svg" viewBox="0 0 200 50">
	<path fill="#F68C28" d="M151.25 38.1857H49v5.2612h102.25v-5.2612z"/>
	<path fill="#A9ACAE" d="M142.227 13.7353v7.2436h.635l5.414-7.2436h3.177l-6.252 7.574c2.312.2796 3.71 2.0842 4.829 5.0833.381 1.0929.889 2.7195 1.55 4.0666h-2.77c-.382-.7371-.89-2.0333-1.347-3.4312-.992-2.6941-2.313-3.9395-4.753-3.9395h-.509v7.3453h-2.592V13.7353h2.618zM117.09 30.4591l-.203-2.1095h-.102c-.813 1.3216-2.338 2.4908-4.397 2.4908-2.897 0-4.397-2.3891-4.397-4.8037 0-4.0412 3.076-6.2524 8.642-6.227v-.3558c0-1.3725-.331-3.8633-3.254-3.8633-1.347 0-2.719.483-3.736 1.2454l-.584-2.0078c1.194-.8896 2.897-1.4742 4.727-1.4742 4.397 0 5.465 3.482 5.465 6.837v6.2524c0 1.4487.05 2.872.228 4.0157h-2.389zm-.406-8.5398c-2.847-.0763-6.075.5083-6.075 3.7616 0 1.957 1.118 2.8974 2.465 2.8974 1.881 0 3.05-1.3724 3.482-2.7957.077-.305.153-.6609.153-.9659v-2.8974h-.025zM104.229 7.17789v2.5162h-8.6412v6.25241c.6354-.1017 1.8046-.1779 2.4654-.1779 1.9062 0 3.7618.4829 5.1598 1.5504 1.525 1.1437 2.541 2.9737 2.541 5.6932 0 2.1858-.635 3.8379-1.652 5.0324-1.626 1.8554-4.3205 2.5925-7.0655 2.5925-1.8045 0-3.177-.1271-4.0411-.2796V7.17789h11.2336zM95.5878 28.1463c.5846.1271 1.2708.1779 2.1604.1779 1.6012 0 3.2278-.5846 4.2188-1.8046.687-.8387 1.093-1.957 1.093-3.4311 0-1.8046-.661-2.9992-1.626-3.8125-1.043-.8387-2.3642-1.1691-3.7875-1.1691-.5845 0-1.3979.0762-2.0587.1271v9.9123zM125.96 13.7353v6.7353h6.812v-6.7353h2.592v16.7239h-2.592v-7.5741h-6.812v7.5741h-2.592V13.7353h2.592z"/>
	<path fill="#555D63" d="M49.0255 7.48291C50.4234 7.20333 52.3805 7 55.1508 7c2.7958 0 4.7783.60999 6.1253 1.85539 1.2709 1.16911 2.135 3.10081 2.135 5.38821 0 2.2875-.6608 4.2191-1.83 5.5154-1.5504 1.7028-3.8378 2.4399-6.5065 2.4399-.5846 0-1.1183-.0254-1.5504-.1017v8.3366h-4.4987V7.48291zm4.4733 10.57319c.3812.1016.8641.127 1.5249.127 2.4146 0 3.8887-1.4233 3.8887-3.787 0-2.1349-1.2708-3.4312-3.5328-3.4312-.915 0-1.5504.1017-1.8808.2034v6.8878zM70.8072 7.1779v8.9465h7.447V7.1779h4.524v23.2813h-4.524v-9.7344h-7.447v9.7344h-4.5495V7.1779h4.5495z"/>
</svg>
