<svg xmlns="http://www.w3.org/2000/svg" viewBox="0 0 200 50">
	<path fill="#00B2C3" d="M130.35 49.88H57l6.65-21.74H137l-6.65 21.74z"/>
	<path fill="#2C384A" d="M88.29 19.99V6.39h5.98v4.5h2.75v-4.5h5.97v13.6h-5.97v-4.51h-2.75v4.51h-5.98zm29.58-7.57l2.27-6.03h-5.83l-1.82 4.5h-1.06v-4.5h-5.98v13.6h5.98v-4.51h1.42l1.82 4.51h5.97l-2.77-7.57zm13.37-4.53c-.727-.02413-1.451.10697-2.124.38459-.672.27762-1.278.69537-1.776 1.22541.042-.61356.25-1.20413.602-1.70809.353-.50397.836-.90224 1.398-1.15191 2-.85 4.32-.26 6-1.69V0c-1.292.457126-2.636.752703-4 .88-2.019.21194-3.967.86025-5.71 1.9-2.43 1.53-4.16 4-4.16 9.13 0 6.64 3.84 8.51 7.8 8.51s7.38-2 7.38-6.33c0-4.18-2.49-6.19-5.43-6.19l.02-.01zm-2.17 7.95c-1.44 0-1.78-1.13-1.78-2 0-.87.34-2 1.78-2s1.75 1.1 1.75 2c0 .9-.34 2-1.75 2zm-42.85-2.65c0-3.34-1.5-6.5-4.94-7.14L81 6c-.2 0-.41-.05-.62-.06h-.81c-.9935.04579-1.9553.36407-2.78.92-.4649.31611-.8796.70041-1.23 1.14L75 6.39h-4.7v19h6v-6.23c.4623.4059.9988.7183 1.58.92.6804.2542 1.404.3731 2.13.35 4.34 0 6.23-3.51 6.23-7.25l-.02.01zM78 15.65c-.3558.005-.7065-.0851-1.0159-.2609s-.5662-.4309-.7441-.7391v-3c.1839-.3028.4421-.5535.7501-.7285.308-.175.6556-.2685 1.0099-.2715 1.44 0 2.07 1.25 2.07 2.46.0097.1498.0097.3002 0 .45-.0151.5257-.2307 1.0256-.6025 1.3975-.3719.3718-.8719.5874-1.3975.6025"/>
</svg>
