<svg xmlns="http://www.w3.org/2000/svg" viewBox="0 0 200 50">
	<path fill="#384A97" d="M36.2067 11.4265c2.953 1.3957 5.3644 3.7254 6.8617 6.6285l.0163.016c1.1649 2.2656 1.7264 4.7929 1.6307 7.3385-.5055-.0083-1.0192-.0327-1.5289-.0697-1.5735-1.0233-11.4719-7.1952-11.4719-7.1952-.1713-.1128-.3698-.1776-.5748-.1876-.1387.0095-.2751.0366-.4059.0814-.0833.0288-.1644.0642-.2423.1062-3.9503 1.8102-7.8885 3.8848-10.2693 5.1449-.1576.0127-.3153.0238-.4719.0354-.0986.0077-.1969.016-.2945.0254.6441-.591 9.454-8.3367 10.3427-8.3937.7827.0653 8.7446 6.7264 8.9362 6.8979 0 0-6.5229-6.9306-8.2187-7.7828-.2252-.1311-.4704-.2246-.7256-.2772-.2543.0498-.4982.1422-.7216.2734-1.9895.856-12.0917 9.6045-12.0917 9.6045s-1.3209.2568-1.9772.4079c.1739-3.2617 1.4168-6.3756 3.5367-8.8609 2.12-2.4847 4.9991-4.2024 8.1927-4.888 3.1936-.68565 6.5242-.301 9.4773 1.0951Zm-5.0873 7.3822c-.6808 0-7.1914 3.3308-9.1889 4.3419 5.3487-.4361 9.4377.1914 14.4684 1.1942.8556.1693 1.7503.3397 2.6687.4908.7617.1256 1.5398.238 2.3253.3249-2.6296-1.9203-9.5845-6.364-10.2693-6.364l-.0042.0122Zm13.0945 7.6284c-2.6861.1362-5.379.0354-8.0475-.3016-5.7481-.6524-10.8155-1.0603-15.2265-.0575-1.9631.42-3.8361 1.1848-5.5322 2.2589.2571 1.0453.6246 2.0608 1.0967 3.0287 1.3047-.8085 2.7131-1.4366 4.1868-1.8671 3.139-.9292 6.4982-1.015 9.9554-.7294.6672.0548 1.3325.114 1.9977.1732 3.1916.2833 6.3812.5661 9.7718.3769.2335-.0111.4658-.0255.6966-.0427l.2661-.0215c.235-.0205.4685-.0438.7006-.0703.2776-.9092.4686-1.8433.5707-2.7885l-.4076.0326-.0286.0083Zm-6.1967 7.8432c1.2654-.0294 2.5229-.207 3.7466-.5302.7478-1.0055 1.3655-2.1012 1.8386-3.2611-.5953.1096-1.2231.2037-1.8264.2811-2.177.2717-4.4357.0642-6.6939-.1433-2.4232-.223-4.8459-.446-7.1671-.0769-2.269.3099-4.4395 1.1245-6.3514 2.3851-.8924.6142-1.6927 1.353-2.3768 2.193.8659.824 1.7822 1.5932 2.7437 2.3032 1.8629-2.0016 4.6148-3.3834 8.9688-3.5793 1.3554-.0614 2.5474.0703 3.7307.2009 1.0908.1207 2.1741.2402 3.3709.207l.0163.0205Zm-2.5193 1.1953c.8686.0083 1.7624.0166 2.7722-.0864.8574-.0874 1.7057-.2484 2.5358-.4809-1.7981 1.9624-4.0898 3.4067-6.6361 4.182-2.5462.7747-5.254.8527-7.8405.2252.2445-.441.5401-.8517.8806-1.223.9489-.9546 2.1221-1.6557 3.4122-2.0386 1.8807-.6066 3.3387-.5927 4.8758-.5783ZM104.285 22.3164c-.309-.6867-.728-1.2727-1.258-1.7575-.515-.4698-1.126-.8356-1.834-1.0985-.702-.2628-1.4542-.394-2.2573-.394-.8081 0-1.5708.1361-2.288.409-.7122.2678-1.3284.6518-1.8486 1.1516-.2747.2667-.5191.5622-.7331.8854-.195.2949-.3648.6137-.5094.9557-.298.7122-.447 1.5079-.447 2.3867 0 .8434.154 1.6087.4621 2.2955.3081.6867.7248 1.27 1.2501 1.7498.5304.4903 1.144.8638 1.8411 1.1217.4433.1638.9038.2756 1.3817.3348.1495.0188.3008.0326.4536.0409.127.0072.2551.0105.3845.0105.9698 0 1.8053-.1466 2.5073-.4393.702-.2983 1.314-.7123 1.834-1.2424.495-.5102.874-1.1189 1.136-1.8262.263-.7072.394-1.4521.394-2.2351 0-.5169-.054-1-.162-1.4504-.076-.3154-.178-.6148-.307-.8982Zm-2.713 4.3718c-.101.5805-.265 1.1012-.492 1.5605-.212.4394-.498.7853-.856 1.0382-.3589.2523-.7882.3785-1.2883.3785-.5101 0-.9394-.1234-1.2879-.3713-.3485-.2524-.6364-.6032-.8637-1.0531-.2223-.4444-.3864-.9646-.4925-1.5606-.0255-.1505-.0479-.3038-.067-.4593-.0174-.1433-.0322-.2883-.0442-.4355-.0269-.3254-.0403-.6607-.0403-1.0066 0-1.581.2374-2.8034.7122-3.6673.4747-.8682 1.1692-1.3027 2.0834-1.3027.5354 0 .9824.1389 1.3413.4167.358.2778.646.6464.863 1.1063.213.4593.362.9844.447 1.5755.091.586.137 1.1897.137 1.8106 0 .7327-.051 1.389-.152 1.9701Zm-8.8261 3.4243h-4.1215l-.5302-1.5605c-.1768-.5202-.3637-1.0027-.5606-1.4471-.1415-.3282-.2829-.606-.4243-.8334-.0886-.1511-.1909-.2867-.3072-.4079-.0628-.0658-.1296-.1267-.2004-.1831-.1215-.1024-.259-.1876-.4127-.2557-.0894-.0393-.1841-.073-.2843-.1007-.1511-.0454-.3183-.078-.5018-.098-.0676-.0072-.1375-.0132-.2096-.0171-.0784-.0039-.1595-.0061-.2432-.0061v3.3264c0 .1715.0353.3254.106.4621.0335.0603.0768.1145.1297.1627.0673.0614.1503.1129.2491.1555.096.0404.2602.083.4925.1289.071.0138.1381.026.2011.0365l.1187.0188c.0498.0072.0967.0133.1406.0183.0382.0039.0742.0072.1078.0094v.591h-5.811v-.591c.1263-.005.3106-.0199.5531-.0454.2475-.0304.4268-.0658.5379-.1062.1818-.0653.3081-.1638.3788-.2955.0707-.1362.1061-.2955.1061-.477v-7.6069c0-.1765-.0328-.3254-.0985-.4466-.0606-.1211-.1894-.2274-.3864-.3182-.1465-.0658-.3384-.1239-.5758-.1743-.2374-.0559-.4091-.0885-.5152-.0985v-.591h5.811v.591c-.1566.01-.3434.0354-.5606.0758-.2172.0404-.3839.0781-.5001.1135-.0698.0232-.1312.0515-.1844.0852-.0973.0609-.1672.1384-.2095.233-.0606.1417-.0909.2927-.0909.4549v3.5759h.4924c.202 0 .4117-.0282.6288-.0835.055-.015.1088-.0338.1611-.0559.0399-.0166.0789-.0354.1171-.0565.0246-.0138.049-.0282.0729-.0437.0344-.0221.0682-.0459.1014-.0714l.023-.0182c.0422-.0338.0832-.0709.1231-.1107.3636-.3586.6364-.7194.8182-1.083.0766-.1555.1487-.3121.2163-.4704.0929-.2169.1774-.4366.2534-.6585.1516-.4244.2879-.783.409-1.0758.1214-.2982.3613-.6214.7199-.97.0693-.0692.1448-.1329.2266-.1904.1267-.0891.2684-.1649.425-.2263.2574-.1057.5404-.1589.8485-.1589.5051 0 .904.129 1.1969.3863.293.2579.4396.586.4396.985 0 .4394-.1239.7831-.3714 1.0304-.2475.2424-.563.3636-.947.3636-.2423 0-.4797-.0708-.7122-.2119-.0864-.0537-.1794-.1268-.2789-.2186-.1184-.1091-.2461-.2452-.3832-.4079l-.0689-.083-.0871-.109c-.1515.1566-.2854.399-.4015.7271-.1113.3232-.2147.6066-.3107.8489-.066.1672-.1315.3216-.1962.4621-.0375.0814-.0749.1583-.1119.2308-.0904.1765-.1796.327-.2677.451-.187.2573-.4015.472-.644.6441v.1362c.7072.187 1.2931.4952 1.7576.9241.2153.1987.4116.4178.589.6569.2054.2772.3854.581.54.9114.1263.2678.2551.5534.3864.8561.1364.2983.2551.5534.3561.7653.0408.0852.0812.1633.1213.2341.0207.0365.0414.0708.0618.1029.0226.0355.0451.0687.0675.0996.0691.0947.137.1666.204.2148.0661.0464.1268.0841.1823.1129.0718.0376.1348.0608.1888.0691.0703.0155.15.0305.2388.046l.1856.0298.1859.0211c.0907.0099.1702.0182.2382.0243v.591Zm-27.4107-6.4928c.2526-.4394.3788-.9624.3788-1.5683 0-.9092-.3434-1.5833-1.0303-2.0227-.687-.4443-1.7249-.6668-3.1139-.6668h-5.9321v.591c.1162.015.2904.0482.5228.0985.2374.0454.4268.0985.5682.1589.0786.0332.1465.0702.2036.1106.0898.0631.1532.1351.1903.2153.0103.0216.0199.0443.0286.0675.0109.0293.0203.0598.0284.0919.0058.0227.0109.0459.0152.0697.0126.0697.0188.145.0188.2252v7.5842c0 .2069-.0329.3685-.0985.4847-.0227.0438-.0551.0847-.0968.1234-.0277.0255-.0595.0498-.0955.0731-.0549.0354-.1197.0686-.1941.099-.096.0404-.2652.0759-.5076.1063l-.5834.0603v.591h5.826v-.591c-.1564-.0149-.3485-.0454-.5758-.0907-.2271-.0454-.3913-.0886-.4923-.129-.1089-.0459-.1983-.1001-.2682-.1621-.0534-.0471-.0953-.0991-.1258-.1561-.0656-.1361-.0985-.2955-.0985-.477v-3.0231h.8789c.7273 0 1.3814-.0631 1.9621-.1893.5859-.1262 1.1062-.3309 1.5607-.6137.1269-.0786.2457-.1644.3565-.2568.0793-.0658.1544-.135.2254-.2075.174-.1782.3235-.3774.4485-.5965Zm-3.0684-2.9773c.3283.3885.4926.9873.4926 1.7952 0 .793-.2173 1.3818-.6517 1.7653-.2832.2502-.6532.4178-1.1102.5031-.0527.0094-.1065.0182-.1616.026-.0741.0099-.1504.0182-.2287.0243-.1234.01-.252.015-.386.015h-.3181v-4.7199h.6289c.8334 0 1.4117.197 1.7348.591Zm11.5614 9.4701h5.8109v-.591c-.1465-.0099-.3359-.0354-.5682-.0758-.2273-.0404-.4016-.0858-.5228-.1361-.1919-.0858-.3207-.1921-.3864-.3182-.0655-.1262-.0985-.2806-.0985-.4621v-7.614c0-.1672.033-.321.0985-.4627.0657-.1411.1945-.2446.3864-.3104l.0772-.0227.0789-.021c.0927-.0238.1912-.0443.2954-.062l.094-.0155c.1457-.0255.281-.0448.4058-.057.0481-.0044.0948-.0083.1397-.0111v-.591h-5.8109v.591c.1313.015.3056.0504.5228.1057.144.0332.2691.0681.3749.1052.0574.0199.1092.0404.1554.0619.197.0908.3283.1971.394.3182.0655.1212.0985.2701.0985.4466v3.1366h-4.5913v-3.2118c0-.1622.0304-.3132.091-.4549.0656-.1467.1969-.2524.3939-.3182.1162-.0354.2829-.0731.5001-.1135.2171-.0404.404-.0658.5606-.0758v-.591h-5.811v.591c.1061.01.2778.0426.5152.0985.2374.0504.4293.1085.5758.1743.0876.0404.1617.0836.2225.1301.0756.0581.1303.1206.1639.1881.0361.0665.0623.1417.0786.2253l.0097.0597.0069.067c.0022.0304.0033.062.0033.0946v7.6069c0 .0647-.0045.1261-.0134.1853-.0061.0404-.0143.0792-.0246.1168-.0087.0316-.0188.062-.0303.0913-.0112.0288-.0238.0565-.0378.0836-.0707.1317-.197.2302-.3788.2955-.1111.0404-.2904.0758-.5379.1062-.2425.0255-.4268.0404-.5531.0454v.591h5.811v-.591c-.1465-.0099-.3359-.0376-.5682-.083-.2324-.0459-.3965-.0885-.4925-.1289-.0616-.0266-.1171-.0565-.1663-.0902-.0923-.0631-.1631-.1395-.2125-.228-.0707-.1367-.1061-.2906-.1061-.4621v-3.6219h4.5913v3.7049c0 .0902-.0078.1732-.0234.249-.0177.0852-.0452.1616-.0827.2286-.0707.1212-.1995.2197-.3864.2955-.0909.0404-.2576.0703-.5.0907l-.5531.0454v.591Zm57.4508-9.0871c-.101-.1096-.206-.2153-.316-.3165l-.008-.0122c-.527-.4748-1.14-.8428-1.806-1.0847-.715-.2612-1.47-.3923-2.23-.3873-.385.0005-.767.0348-1.144.1029-.378.0686-.749.1704-1.111.3049-.683.254-1.305.6486-1.827 1.1577-.521.5086-.931 1.1212-1.202 1.798-.305.7476-.456 1.5489-.444 2.3563-.012.7797.144 1.5522.456 2.2666.153.3514.344.684.57.9917.1.1367.206.2678.32.394.105.1179.217.2308.333.3387.528.4853 1.146.8616 1.819 1.109.7.2551 1.44.3835 2.185.379.481.0117.961-.0321 1.431-.1284.355-.0724.704-.1754 1.043-.3076.679-.2839 1.294-.6995 1.81-1.223.496-.5158.878-1.1295 1.122-1.8018.258-.7051.389-1.4505.387-2.2014.013-.7974-.144-1.5882-.461-2.3198-.139-.3149-.309-.6137-.506-.8937-.129-.1832-.27-.3575-.421-.5224Zm-1.942 6.5327c-.081.2535-.179.5014-.294.7415l.024.0288c-.189.4073-.48.7598-.844 1.0232-.379.2435-.821.3725-1.272.3725-.451 0-.892-.129-1.272-.3725-.363-.2711-.654-.6264-.848-1.0359-.236-.487-.399-1.0061-.485-1.5406-.104-.6209-.154-1.2501-.151-1.8793 0-1.5617.237-2.7681.702-3.6286.181-.3862.469-.7127.831-.9402.208-.1311.435-.2263.671-.2828.175-.042.355-.0625.536-.0608.475-.0194.943.1245 1.325.4073.037.0287.073.0586.108.0896.04.0349.08.0708.118.1079.077.0753.15.155.219.2385.162.1981.298.4173.403.6525.222.4952.373 1.0199.448 1.5572.084.5877.125 1.1804.123 1.7736.006.6524-.045 1.3049-.151 1.9485-.044.2711-.108.5384-.191.7996Zm-15.13 2.6784h6.519v-.5622c-.142-.0045-.283-.0189-.423-.0432l-.087-.0166c-.034-.0067-.068-.0138-.101-.0221-.139-.0333-.275-.0753-.408-.1262-.277-.114-.528-.2834-.738-.4975-.217-.2086-.411-.4394-.579-.689l-1.223-1.7243c-.224-.3199-.471-.6812-.743-1.0825-.247-.3657-.514-.7647-.802-1.1964l1.223-1.4189.302-.3442c.242-.2766.493-.5633.754-.85l.163-.177.127-.1345c.139-.1467.272-.2817.399-.4062.226-.2153.488-.389.774-.5135.133-.0576.269-.1057.408-.1428.14-.0365.284-.0609.428-.0736v-.5827h-4.13v.5827c.332.016.66.078.975.1837.063.0277.116.0731.153.1312.037.0581.056.1261.055.1948-.063.2578-.186.4969-.359.6972-.054.0747-.125.1688-.213.2817l-.187.2391-.266.3314-.211.2585-.158.1925-.24.29-.307.3697-.191.2302-.857-1.3082-.297-.4599c-.106-.1654-.194-.3027-.261-.4128-.103-.1633-.197-.332-.281-.5052-.04-.0836-.064-.1733-.07-.2651 0-.1389.123-.2407.363-.3138.367-.0835.741-.1289 1.117-.135v-.5827h-6.478v.5827c.193.0138.385.0393.575.0775.072.0171.143.037.213.0597.076.0244.15.052.223.083.278.1113.531.2778.742.4892.223.2081.422.4389.595.689l1.166 1.6673c.457.6525.918 1.3254 1.374 2.0182-.166.1915-.33.3774-.49.5601-.308.3492-.605.6867-.892 1.0298-.245.2933-.478.5506-.696.7919-.169.1882-.33.3669-.482.5451-.095.1112-.194.2202-.295.3265l-.121.1245c-.092.0924-.185.1826-.281.2706-.219.2125-.469.3901-.742.5263-.123.0509-.25.0935-.379.1262-.064.0132-.127.0249-.191.0343-.106.0155-.212.026-.319.031v.5705h4.114v-.5705c-.202-.0128-.402-.0399-.6-.0814-.124-.0183-.245-.0553-.358-.1101-.073-.0238-.136-.0731-.176-.1389-.024-.0548-.035-.1151-.032-.1754.038-.1472.092-.2889.161-.4228.068-.1323.151-.2574.246-.3719.282-.3957.946-1.1865 1.99-2.4094l.909 1.3618c.178.2706.336.5136.471.7283.084.135.16.259.226.3724.1.1572.19.3204.269.4892.051.0963.084.2014.098.3099 0 .0293-.005.0576-.016.0841-.011.0282-.029.0548-.052.0797-.021.0216-.045.0421-.075.0614-.035.0227-.077.0443-.126.0642-.391.1052-.794.1583-1.199.1589v.5705Zm22.28-10.0334-.534-.0941v-.5827h9.502v.5827c-.18.0105-.36.0321-.537.0653-.091.0144-.18.0315-.269.052-.089.0205-.178.0437-.266.0703-.082.0221-.158.0609-.224.114-.066.0537-.12.1201-.159.1959-.026.0559-.047.1134-.063.1726-.024.0913-.036.1854-.035.28v7.5095c-.004.1577.029.3143.098.4565.087.1461.223.2574.383.3138.168.0625.341.1074.518.1345.183.0393.368.068.554.0857v.5706h-5.756v-.5706l.563-.0448c.068-.0016.135-.0077.202-.0171.036-.005.072-.0111.107-.0188.03-.0061.06-.0133.09-.0216.036-.0094.071-.0205.106-.0321.157-.0515.291-.1533.384-.2894.033-.0665.059-.1362.076-.2081.021-.0863.029-.1754.026-.2651v-8.4103h-2.532c-.036 1.5505-.217 3.0939-.538 4.6108-.223 1.0813-.576 2.1311-1.052 3.1271-.323.6995-.79 1.3232-1.37 1.8301-.377.3298-.853.5246-1.353.5545-.034.0011-.067.0011-.101.0005-.049-.0005-.098-.0027-.147-.0072l-.064-.0072c-.033-.0038-.065-.0088-.097-.0143-.139-.0238-.275-.062-.407-.114-.187-.0759-.353-.1943-.485-.347-.116-.1361-.197-.2983-.236-.4726-.02-.0819-.035-.1649-.045-.2485-.01-.0786-.015-.1577-.016-.2368-.013-.2037.019-.4073.096-.5966.076-.1887.193-.3586.344-.4958.283-.2474.647-.3807 1.023-.3752.285.0033.562.0963.791.2651.281.2025.536.4394.758.705.071-.1179.139-.2374.204-.3581.056-.1034.11-.2075.162-.3132.083-.1665.161-.3359.233-.5069.229-.5152.42-1.047.571-1.5898.189-.6232.339-1.2579.449-1.8998.116-.6934.171-1.3962.163-2.0996.002-.0658.002-.1317-.001-.1975-.002-.0786-.008-.1566-.017-.2347-.014-.1289-.037-.2567-.068-.3829-.024-.1035-.071-.1998-.139-.2817-.067-.0819-.152-.1472-.248-.1914-.204-.0786-.416-.1351-.632-.1672l-.012-.0038Zm18.83 9.9266h5.74v-.5827c-.122-.0122-.302-.041-.53-.0814-.046-.0066-.092-.0144-.137-.0238-.05-.0099-.098-.0216-.147-.0348-.069-.0194-.138-.0421-.205-.0681-.158-.0609-.292-.171-.383-.3138-.066-.1433-.098-.2994-.094-.4565v-7.4973c-.001-.1599.031-.3182.094-.4648.039-.0747.093-.1411.159-.1937.066-.0526.142-.0908.224-.1118.065-.0199.131-.0382.197-.0548.101-.0254.202-.0465.304-.0636.172-.0365.347-.0609.522-.0736v-.5827h-4.696c-.017.1405-.041.28-.074.4172-.012.0515-.026.1024-.04.1533-.058.2524-.129.5014-.212.7465l-2.206 5.6706-2.613-6.9876h-4.892v.5788c.214.0155.426.0454.636.0897.224.0525.433.1555.611.3016.165.13.289.3038.359.5013.091.2623.132.5385.122.8157v5.2505c.012.4759-.025.9513-.11 1.4189-.037.28-.183.5335-.407.7056-.208.1416-.445.2335-.693.2689l-.202.0393c-.178.036-.312.0625-.406.0625v.5706h4.599v-.5827c-.23-.0349-.456-.0891-.677-.1633-.13-.031-.257-.0752-.378-.1317-.101-.047-.198-.1024-.29-.166-.207-.1865-.35-.4333-.408-.705-.095-.4637-.136-.9374-.123-1.4106V20.529l2.683 7.2853c.09.2933.232.6929.408 1.1782.175.4853.289.8112.334.9745h.929l3.657-9.3279v7.9334c.009.1737-.032.3464-.118.4975l-.029.0398-.009.0116c-.018.0216-.036.0415-.055.0609-.016.0155-.032.0304-.049.0448-.015.0122-.031.0244-.047.0354-.066.0476-.14.0847-.219.109-.162.062-.332.1002-.505.114-.245.0493-.453.0736-.624.0736v.5706Zm12.398.2938c-.744.0056-1.483-.1228-2.182-.379-.321-.1162-.629-.2646-.918-.4416-.305-.1871-.591-.4068-.851-.6552-.515-.487-.92-1.0791-1.186-1.7366-.568-1.4692-.568-3.0967 0-4.566.278-.685.694-1.3054 1.223-1.8222.52-.5141 1.142-.9126 1.826-1.1699.387-.1472.787-.2551 1.193-.3226.361-.0603.727-.0891 1.094-.0853.543-.0077 1.085.0648 1.607.2159.422.1217.832.2844 1.223.4853l.464-.4079h.649l.069 3.8732h-.661c-.252-.9568-.71-1.8472-1.341-2.6092-.242-.264-.538-.4732-.868-.6137-.33-.1406-.685-.2092-1.044-.2015-.436-.0127-.867.0974-1.243.3171-.377.2197-.685.5407-.889.9264-.489.8151-.734 1.9728-.734 3.473-.015.7289.07 1.4554.253 2.161.129.5163.35 1.005.652 1.4432.268.3525.62.6331 1.024.8152.169.0752.344.1345.522.1776.255.062.518.0919.782.0875.076.0011.151-.0006.226-.0045.168-.0094.335-.0321.499-.0675.114-.0249.226-.0559.337-.093.283-.0946.553-.2296.801-.4017.194-.1444.378-.3016.549-.4704.225-.2213.429-.4621.611-.7194.048-.0686.095-.1383.14-.2092.066-.1046.129-.2119.188-.3215l.644.4079c-.201.4178-.447.8129-.733 1.1781-.268.3359-.584.6303-.938.8721-.078.0543-.158.1063-.239.1561-.129.0786-.26.1511-.395.2175-.216.1062-.441.197-.671.2706-.545.1654-1.113.244-1.683.2324v-.0122Zm13.208-.2938H185v-.5623c-.102-.0121-.253-.0249-.408-.0492l-.067-.01-.038-.0066c-.113-.0172-.215-.0338-.302-.0526-.132-.0348-.256-.0957-.363-.1793-.106-.0935-.2-.1997-.279-.316-.069-.1023-.128-.2125-.174-.3281-.042-.0869-.083-.1821-.128-.285l-.073-.1671c-.043-.0969-.09-.1987-.145-.3061-.117-.2268-.221-.446-.32-.6563l-.009-.0182-.079-.1655c-.265-.5838-.643-1.109-1.113-1.545-.496-.4599-1.103-.7842-1.761-.9419v-.1345c.127-.0913.245-.1931.354-.3043l.072-.0759.05-.0553c.056-.0658.109-.1339.16-.2042.179-.2723.334-.5595.462-.8583l.05-.1212c.019-.047.037-.0941.055-.1417l.101-.2656.068-.1815c.046-.1239.093-.2551.14-.3929.083-.2645.222-.508.408-.7133.104.145.218.2822.342.4095.145.1489.304.2844.473.4056.21.1334.453.2053.702.2081.026.0011.052.0011.078.0006.038-.0011.076-.0039.115-.0083.058-.0067.116-.0177.174-.0327.045-.0122.09-.0266.134-.0437.035-.0133.069-.0282.103-.0448.023-.0111.045-.0227.067-.0354.094-.0532.181-.1185.258-.1943.128-.135.227-.2949.291-.4693.063-.1748.091-.3602.08-.5461.002-.1024-.008-.2037-.031-.3033-.011-.047-.024-.0935-.04-.1389-.011-.0304-.023-.0609-.037-.0908-.027-.0597-.059-.1173-.095-.1721-.064-.0974-.143-.1853-.233-.2612-.33-.2717-.751-.41-1.178-.3873-.071 0-.141.0033-.21.0099-.079.0072-.157.0194-.234.0354-.127.0266-.251.0648-.372.114-.24.0891-.46.228-.644.4073-.297.2668-.538.5894-.709.9502-.123.2977-.257.6602-.408 1.068-.13.3791-.283.7493-.46 1.109-.211.4001-.486.7626-.816 1.0719-.161.1677-.366.2872-.591.347-.203.0553-.413.0841-.624.0852h-.485v-3.5262c-.001-.0614.003-.1223.013-.1826.015-.0913.042-.1809.081-.2656.037-.0775.091-.1455.157-.1998.066-.0542.143-.0929.226-.1145.073-.021.166-.0471.28-.072.064-.0143.135-.0287.213-.042.217-.0365.4-.0736.555-.0736v-.5789h-5.732v.5789c.102.0127.273.0448.51.0941.193.042.383.1007.566.1754.099.0393.188.0979.264.171l.015.0149.023.0249c.03.0332.057.0686.082.1068.015.0305.028.062.04.0941.012.0332.022.067.03.1013.005.0204.009.0409.013.0614.01.0609.013.1223.01.1837v7.5133c.004.1611-.03.3204-.102.4649-.082.1428-.216.2479-.375.2933-.17.0564-.347.0907-.526.1023-.244.0321-.428.0487-.55.0487v.5706h5.728v-.591c-.189-.0166-.377-.0443-.563-.0814-.165-.0271-.328-.0691-.485-.1267-.081-.0304-.156-.0747-.22-.1306-.059-.052-.111-.114-.151-.1832-.073-.1405-.11-.2977-.106-.4565v-3.2611c.318-.0055.634.031.942.1096.25.073.483.1947.685.3591.201.161.373.3569.505.5788.153.2629.289.5352.408.8152.196.4405.379.9214.554 1.431.081.233.16.4671.239.7012l.283.8356Zm4.057 6.5637H55.6409v-1.0642H184.98v1.0642Z"/>
</svg>