<svg xmlns="http://www.w3.org/2000/svg" viewBox="0 0 200 50">
	<path fill="#E7002A" d="M20 10h29.24v14.92H20V10z"/>
	<g fill="#000">
		<path d="M68 24.56c.304.0174.6082-.0296.8927-.1381.2845-.1084.5429-.2757.7582-.491.2153-.2153.3826-.4737.491-.7582.1085-.2845.1555-.5887.1381-.8927.0297-.3353-.0118-.6731-.1217-.9913-.11-.3181-.2859-.6095-.5162-.8549-.2304-.2455-.51-.4395-.8205-.5694-.3106-.1299-.6451-.1928-.9816-.1844h-6.28v4.84l6.44.04zm-.12-7.24c.6779-.0549 1.3597.0355 1.9998.2651.6402.2297 1.2239.5933 1.7123 1.0665.4885.4733.8703 1.0453 1.1199 1.6779.2497.6326.3615 1.3112.328 1.9905 0 3-2 4.72-5.16 4.72H61.6v4.88h-2.72v-14.6h9zm15.16 2c-3.36 0-5.68 2.28-5.68 5.24 0 2.96 2.2 5.24 5.68 5.24 3.48 0 5.64-2.24 5.64-5.24s-2.16-5.24-5.64-5.24zm0 12.92c-4.64 0-8.48-3.08-8.48-7.68s3.84-7.72 8.48-7.72c4.64 0 8.48 3.16 8.48 7.76s-3.76 7.68-8.44 7.68l-.04-.04zm19.68.04c-4.88 0-8.56-3.08-8.56-7.72s3.72-7.68 8.56-7.68c2.445-.0648 4.841.6961 6.8 2.16l-1.44 2.16c-1.487-1.1854-3.338-1.8212-5.24-1.8-3.56 0-5.76 2.24-5.76 5.16s2.24 5.16 5.8 5.16c1.934.0327 3.822-.5873 5.36-1.76l1.44 2.04c-2.013 1.5129-4.484 2.2894-7 2.2l.04.08zM134 26h5.6l-2.76-6-2.84 6zm-1.12 2.36l-1.68 3.52h-2.92l7.08-14.56h2.84l7.12 14.56h-2.92l-1.68-3.52h-7.84zm26.72 3.56v-6.28h-9.52v6.24h-2.68V17.32h2.68v5.92h9.52v-5.92h2.72v14.56l-2.72.04zm6.72 0v-14.6H169v6.76l7.32-6.76h3.32l-7.52 7 7.88 7.56h-3.64L169 24.8v7.08l-2.68.04zm-44.48-2.48h-6.48V25h6.48c1.68 0 2.64.88 2.64 2.2 0 1.32-.76 2.2-2.64 2.2v.04zm-.16-6.84h-6.32v-3.04h10.4v-2.28h-13.12v14.56h9c3.16 0 5.36-1.72 5.36-4.6s-2.2-4.6-5.36-4.6"/>
		<path d="M20 24.64h29.24v14.64H20V24.64z"/>
	</g>
	<path fill="#fff" d="M25.08 23.72h19v1.8h-19v-1.8z"/>
</svg>
