<svg xmlns="http://www.w3.org/2000/svg" viewBox="0 0 200 50" style="enable-background:new 0 0 200 50" xml:space="preserve">
  <path d="M19 10h30v15.3H19V10z" style="fill:#e7002a"/>
  <path d="M73.3 21.7c-.3-2.6-2.6-4.6-5.3-4.3h-9.2v15.1h2.8v-5h6.5c3.2 0 5.3-1.8 5.3-4.9V22c0-.1-.1-.3-.1-.3zm-2.7 1.1c-.1 1.2-1.2 2.1-2.4 2h-6.7v-5h6.9c1.3.1 2.3 1.3 2.2 2.6v.4zm4.1 2c0 4.7 4 7.9 8.7 7.9 4.8 0 8.7-3.2 8.7-7.9s-4-7.9-8.7-7.9-8.7 3.2-8.7 7.9zm2.8-.4c.2-3 2.9-5.2 5.9-5 3.6 0 5.9 2.3 5.9 5.4 0 3.1-2.3 5.4-5.9 5.4-3.6 0-5.9-2.3-5.9-5.4v-.4zm17.1.4c0 4.7 3.7 7.9 8.7 7.9 2.5 0 5-.8 7.1-2.3l-1.4-2.2c-1.6 1.2-3.5 1.8-5.5 1.8-3.7 0-6-2.4-6-5.4s2.3-5.3 6-5.3c2 0 3.8.7 5.4 1.9l1.4-2.2c-2-1.6-4.4-2.4-6.9-2.3-4.9.2-8.8 3.4-8.8 8.1zm37.1 7.4 1.7-3.6h8.1l1.7 3.6h3l-7.3-15H136l-7.3 15h3zm5.8-12.1 2.9 6.1h-5.7l2.8-6.1zm23.3 5.8v6.5h2.8v-15h-2.8v6.1H151v-6.1h-2.8v15h2.8v-6.5h9.8zm7-8.5v15h2.8V25l7.5 7.3h3.7l-8-7.8 7.7-7.2h-3.4l-7.5 6.9v-6.9h-2.8zm-51.7 5.4h6.5c3.4 0 5.4 1.7 5.4 4.7s-2.3 4.8-5.5 4.8h-9.2v-15h13.5v2.4h-10.7v3.1zm0 6.9h6.7c1.9.1 2.8-.8 2.8-2.2 0-1.3-1.1-2.3-2.8-2.3h-6.7v4.5zM49 25H19v15h30V25z"/>
  <path d="M24.2 24.1h19.5v1.8H24.2v-1.8z" style="fill:#fff"/>
</svg>
