<svg xmlns="http://www.w3.org/2000/svg" viewBox="0 0 200 50">
	<path fill="#E4003A" d="M108.956 6.49707 90.5957 8.89558v5.43322l18.3603-1.6385V6.49707Z"/>
	<path fill="#00274F" d="M105.48 18.9483 90.5959 8.90137v5.42033l4.6411 3.1437.9131.5327c-1.6674.02-2.4659.3587-3.268.843-2.2918 1.3817-3.4814 3.8115-3.4814 7.3972 0 6.0418 3.3349 8.9024 9.6877 8.9024 6.3536 0 9.7046-2.8606 9.7046-8.9024 0-3.4969-1.134-5.8879-3.313-7.29Zm-6.3916 11.7745c-3.1494 0-4.1406-1.1465-4.1406-4.4382 0-3.2916.9838-4.4382 4.1406-4.4382 3.1576 0 4.1246 1.1242 4.1246 4.4382 0 3.3137-.951 4.4382-4.1246 4.4382Zm-46.2299-4.4382c0 3.2973.9838 4.4382 4.1406 4.4382 3.1569 0 4.1242-1.1465 4.1242-4.4382 0-3.2916-.9525-4.4382-4.1242-4.4382-3.172 0-4.1406 1.1242-4.1406 4.4382Zm-5.5471-.048c0-6.0418 3.3572-8.8064 9.6877-8.8064 6.3307 0 9.7026 2.7646 9.7026 8.8064 0 6.0415-3.3349 8.9024-9.7026 8.9024-6.3676 0-9.6877-2.8609-9.6877-8.9024Zm-15.5905-6.2137c.604-.7658 3.0405-2.615 6.038-2.615 4.9892 0 7.7404 2.6889 7.7404 8.7972 0 6.1078-2.7549 8.8228-7.7571 8.8228-3.0145 0-5.434-1.816-6.0545-2.5982v8.0738h-5.2858V17.8038h5.319v2.2191Zm.0038 6.169c0 3.2936.9912 4.4382 4.1407 4.4382v-.0072c3.1716 0 4.1222-1.1209 4.1222-4.431 0-3.3101-.9654-4.4382-4.1222-4.4382-3.1569 0-4.1407 1.1446-4.1407 4.4382ZM145.165 17.811v6.1638h-7.018V17.811h-5.319v16.6806h5.319v-6.2489h7.018v6.2489h5.321V17.811h-5.321Zm-26.784 17.2169c-5.006 0-7.758-2.7206-7.758-8.8228 0-6.0918 2.75-8.7972 7.739-8.7972 2.996 0 5.432 1.8492 6.04 2.6038v-2.2191h5.319v16.7006h-5.288v-2.0635c-.62.7822-3.04 2.5982-6.052 2.5982Zm1.877-13.2854c-3.174 0-4.125 1.1245-4.125 4.4382-.002 3.2973.97 4.4386 4.125 4.4386 3.155 0 4.138-1.1282 4.138-4.4386 0-3.3101-.965-4.4382-4.138-4.4382Zm-38.1216 6.5853c-.4151 1.744-1.5266 2.3947-3.9353 2.3947-3.1494 0-4.139-1.1465-4.139-4.4382s.9896-4.4382 4.139-4.4382c2.4087 0 3.5202.649 3.937 2.4042l5.5471-.4199c-.8283-4.3642-4.0761-6.3929-9.4841-6.3929-6.3306 0-9.6858 2.7646-9.6858 8.8064 0 6.0414 3.3346 8.9023 9.6858 8.9023 5.4043 0 8.6188-2.0711 9.4673-6.3929l-5.532-.4255Zm82.4446-2.5962 8.419 8.758h-6.838l-7.333-7.6799v7.6799h-5.225V17.811h5.225v7.2455l7.138-7.2455h6.581l-7.967 7.9206Z"/>
</svg>