<svg xmlns="http://www.w3.org/2000/svg" viewBox="0 0 200 50">
	<g fill="#4D4D4D">
		<path d="M6.61679 23.8184c0-1.1328-.89946-1.7264-2.01415-1.7264H2.30188v3.4528h2.30076c1.11469 0 2.01415-.7193 2.01415-1.7264zm2.30075 0c0 2.0493-1.4738 4.0272-4.02717 4.0272H2.30188v4.0271H0V19.7912h4.3149c3.14697 0 4.60264 1.6902 4.60264 4.0272zM20.2457 25.8325c0-2.2305-1.7978-4.0283-4.0272-4.0283-2.2294 0-4.0272 1.7978-4.0272 4.0283 0 2.2294 1.7978 4.0272 4.0272 4.0272 2.2294 0 4.0272-1.7978 4.0272-4.0272zm2.3019 0c0 3.488-2.8411 6.3279-6.3291 6.3279-3.4879 0-6.32903-2.8399-6.32903-6.3279 0-3.4879 2.84113-6.329 6.32903-6.329 3.488 0 6.3291 2.8411 6.3291 6.329zM33.0738 28.6193l.8813 2.0855c-1.0252.9345-2.5715 1.4556-3.9196 1.4556-3.5423 0-6.4366-2.8399-6.4366-6.3279 0-3.4879 2.8943-6.329 6.4366-6.329 1.3481 0 2.8944.5029 3.9196 1.4387l-.8813 2.0855c-.7726-.7556-1.8341-1.2235-3.002-1.2235-2.3019 0-4.1722 1.7989-4.1722 4.0283s1.8703 4.0272 4.1722 4.0272c1.1861 0 2.2464-.4679 3.002-1.2404zM45.0839 31.8727h-2.9125l-4.5675-5.2857v5.2857h-2.3007V19.7912h2.3007v4.998l4.2798-4.998h2.9125l-5.1781 5.7706 5.4658 6.3109z"/>
		<path d="M54.8839 25.8325c0-2.2305-1.7978-4.0283-4.0271-4.0283-2.2294 0-4.0283 1.7978-4.0283 4.0283 0 2.2294 1.7989 4.0272 4.0283 4.0272 2.2293 0 4.0271-1.7978 4.0271-4.0272zm2.3008 0c0 3.488-2.84 6.3279-6.3279 6.3279-3.488 0-6.3291-2.8399-6.3291-6.3279 0-3.4879 2.8411-6.329 6.3291-6.329 3.4879 0 6.3279 2.8411 6.3279 6.329zM67.7119 28.6193l.8802 2.0855c-1.0241.9345-2.5704 1.4556-3.9196 1.4556-3.5412 0-6.4367-2.8399-6.4367-6.3279 0-3.4879 2.8955-6.329 6.4367-6.329 1.3492 0 2.8955.5029 3.9196 1.4387l-.8802 2.0855c-.7738-.7556-1.8341-1.2235-3.0031-1.2235-2.3008 0-4.1711 1.7989-4.1711 4.0283s1.8703 4.0272 4.1711 4.0272c1.186 0 2.2475-.4679 3.0031-1.2404zM83.6846 31.8727H81.24l-1.0071-7.9104-3.1651 7.9104H75.918l-3.1651-7.9104-1.0059 7.9104h-2.4458l1.7264-12.0815h2.3008l3.1651 7.7666 3.1639-7.7666h2.3008l1.7264 12.0815zM94.6672 25.8325c0-2.2305-1.7989-4.0283-4.0283-4.0283-2.2283 0-4.0272 1.7978-4.0272 4.0283 0 2.2294 1.7989 4.0272 4.0272 4.0272 2.2294 0 4.0283-1.7978 4.0283-4.0272zm2.3007 0c0 3.488-2.8411 6.3279-6.329 6.3279-3.4868 0-6.3279-2.8399-6.3279-6.3279 0-3.4879 2.8411-6.329 6.3279-6.329 3.4879 0 6.329 2.8411 6.329 6.329zM107.406 28.6193l.881 2.0855c-1.025.9345-2.571 1.4556-3.919 1.4556-3.543 0-6.4371-2.8399-6.4371-6.3279 0-3.4879 2.8941-6.329 6.4371-6.329 1.348 0 2.894.5029 3.919 1.4387l-.881 2.0855c-.773-.7556-1.834-1.2235-3.002-1.2235-2.302 0-4.171 1.7989-4.171 4.0283s1.869 4.0272 4.171 4.0272c1.186 0 2.247-.4679 3.002-1.2404zM162.692 27.9894c0-1.007-.9-1.5825-2.013-1.5825h-2.59v3.1651h2.59c1.113 0 2.013-.4498 2.013-1.5826zm2.302 0c0 2.337-1.457 3.8833-4.604 3.8833h-4.603V19.7912h8.056v2.3008h-5.754v2.0141h2.59c2.858 0 4.315 1.5101 4.315 3.8833zM172.896 27.2701l-1.672-4.3149-1.672 4.3149h3.344zm.882 2.3019h-5.107l-.899 2.3007h-2.589l4.999-12.0815h2.085l4.998 12.0815h-2.589l-.898-2.3007zM188.088 19.7912v12.0815h-2.301v-4.8903h-5.177v4.8903h-2.302V19.7912h2.302v4.8904h5.177v-4.8904h2.301zM200 31.8727h-2.914l-4.566-5.2857v5.2857h-2.301V19.7912h2.301v4.998l4.279-4.998h2.913l-5.178 5.7706L200 31.8727z"/>
		<path d="M132.045 18.5259l.156-.0431c-7.783 2.4152-13.939 6.5522-14.066 9.5905-.135 3.2523 6.689 4.0158 15.239 1.7049 8.55-2.3099 15.594-6.8219 15.728-10.0742.071-1.6845-1.73-2.7018-4.67-2.9691 3.593.1609 5.844 1.2087 5.844 3.0779 0 3.5638-8.164 8.7668-18.231 11.6215-10.068 2.8525-18.233 2.2759-18.233-1.288 0-3.5638 8.165-8.7669 18.233-11.6204z"/>
	</g>
	<path fill="#F01941" d="M117.768 37.2638L143.043 13l-2.292 19.0744-4.179-4.785-18.804 9.9744z"/>
</svg>
