<svg xmlns="http://www.w3.org/2000/svg" viewBox="0 0 200 50">
	<path fill="#008fcb" d="M33.9 18.5l-6.3 13-9.4-6.9 15.4-6.1h.3z"/>
	<g fill="#004a99">
		<path class="st0" d="M33.6 18.5l-15.4 6.1-8.2-6.1h23.6z"/>
		<path class="st0" d="M181 30.8h2V25l4.6 5.8h2.5l-4.9-6 4.6-5.2h-2.4l-4.4 5.3v-5.3h-2v11.2zm-6 0h1.9V19.7H175v4.6h-5.1v-4.6h-2v11.2h2v-4.8h5.1v4.7zm-15.4-8.6l1.6 4H158l1.6-4zm-5.5 8.6h2l1.2-2.9h4.8l1.2 2.9h2.1l-4.7-11.2H159l-4.9 11.2zm-6-5.1c1.4 0 2 .7 2 1.7s-.6 1.7-2.1 1.7c-.4 0-.8 0-1.2-.1v-3.2c.4 0 .9-.1 1.3-.1m-3.3 5.1c.7 0 1.6.1 2.9.1 2.7 0 4.3-1.3 4.3-3.6 0-2.1-1.4-3.4-3.8-3.4-.4 0-1.1 0-1.5.1v-2.5h4.6v-1.8h-6.5v11.1zm-15.4 0h2v-8l3.6 4.9h.3l3.5-5v8.1h1.9V19.7h-1.9l-3.6 5.2-3.8-5.2h-2v11.1zm-11.8 0l5.9-7.9v7.9h2V19.7h-1.7l-5.9 7.9v-7.9h-2v11.2h1.7v-.1zm-5.4-2.5c-.8.6-1.7.9-2.7.9-2.3 0-3.9-1.6-3.9-3.9 0-2.4 1.6-3.9 3.6-3.9 1.1 0 1.9.3 2.5.8l.9-1.5c-.7-.7-2-1.1-3.4-1.1-3.7 0-5.7 2.6-5.7 5.8 0 3.5 2.3 5.8 5.8 5.8 1.5 0 2.9-.5 3.6-1.3l-.7-1.6zm-18.8 2.5h2V25l4.6 5.8h2.5l-4.9-6 4.6-5.2h-2.4L95.3 25v-5.3h-2v11.1h.1zm-10.3-4.7h5c-.3 2.1-2 3.1-3.9 3.1-1.2 0-2.2-.4-2.9-1l-.8 1.6c.8.7 2.2 1.2 3.8 1.2 3.6 0 5.8-2.3 5.8-5.8s-2.3-5.7-5.6-5.7c-1.7 0-3.1.6-3.8 1.2l.8 1.5c.8-.6 1.7-.9 2.6-.9 2.1 0 3.6 1 4 2.9h-5v1.9zm-5 2.2c-.8.6-1.7.9-2.6.9-2.3 0-3.9-1.6-3.9-3.9 0-2.4 1.6-3.9 3.6-3.9 1.1 0 1.9.3 2.5.8l.9-1.5c-.7-.7-1.9-1.1-3.4-1.1-3.7 0-5.7 2.6-5.7 5.8 0 3.5 2.3 5.8 5.8 5.8 1.5 0 2.9-.5 3.6-1.3l-.8-1.6zm-20.6-3.1c0-2.3 1.6-3.9 3.7-3.9s3.8 1.6 3.8 3.9c0 2.2-1.4 3.9-3.8 3.9-2 .1-3.7-1.6-3.7-3.9m-2.1 0c0 3.5 2.5 5.8 5.8 5.8s5.8-2.4 5.8-5.8c0-3.5-2.5-5.8-5.8-5.8-3.4.1-5.8 2.6-5.8 5.8M49 21.5c1.3 0 2.1.6 2.1 1.7 0 1.2-.9 1.8-2.1 1.8-.4 0-.9 0-1.4-.1v-3.4H49m-1.4 9.3v-4h1.5c2.7 0 4.1-1.7 4.1-3.6 0-1.8-1-3.6-4.3-3.6h-3.2v11.2h1.9z"/>
	</g>
</svg>