<svg xmlns="http://www.w3.org/2000/svg" viewBox="0 0 200 50">
	<path fill="#941114" d="M162.74 17l-6.35 15.85h2.25l1.75-4.35h6.75l1.8 4.35h2.2L164.74 17h-2zm32.76 9.2c-.284-.4237-.62-.8101-1-1.15-.285-.2595-.628-.4479-1-.55.997-.4374 1.785-1.2438 2.2-2.25l.9-2 1.6-3.25h-2l-1.4 2.9-.7 1.5c-.336.7336-.852 1.3701-1.5 1.85-.554.3449-1.198.5188-1.85.5h-1.05V17h-2.05l.05 15.85h2V25.7h1.3c.787-.0423 1.56.2272 2.15.75.236.2857.453.5863.65.9l3.7 5.5h2.5l-4.5-6.65zM183 23.75h-8.35V17h-2v15.85h2v-7.1H183v7.15h2V17h-2v6.75zM138.93 17h-3.65l-2 6h-.8l-2-6H127l2.8 8-2.8 7.9h3.55l2-6.35h.8l2 6.35h3.55l-2.8-8 2.83-7.9zm-23.41 0l-1.6 15.85h3.55l.4-4h3.55l.45 4h3.5L123.83 17h-8.31zM0 32.85h3.55V28.1h7.15V17H0v15.85zm89.32-12.3h3.55v12.3h3.55v-12.3H100V17H89.27v3.55h.05zM77 32.85h10.7V27.7h-3.53v1.6h-3.55v-9.15h3.55v1.6h3.55V17H77v15.85zm-50.81 0h10.7V27.7h-3.53v1.6h-3.55v-9.15h3.55v1.6h3.55V17h-10.7l-.02 15.85zm-13.1 0h10.7V17H13.1l-.01 15.85zm50.81 0h10.7V27.7h-3.53v1.6h-3.55v-9.15h3.55v1.6h3.55V17h-10.7l-.02 15.85zm37.71 0h3.55V28.1h7.15V17h-10.7v15.85zm-50.81 0h10.7V17H50.81v15.85h-.01zm-11.5 0h3.55v-12.3h5.55V17h-9.1v15.85zm111.93-9.1v2c.336-.0036.668.0624.977.1938.309.1314.587.3253.817.5696.231.2442.408.5335.521.8496.112.3161.158.6522.135.987.022.3496-.039.6995-.178 1.021-.139.3216-.352.6056-.622.829-.849.5786-1.88.8275-2.9.7h-5.55v2H150c1.074.0005 2.14-.1856 3.15-.55.679-.2865 1.28-.7324 1.75-1.3.623-.7058.977-1.6088 1-2.55.034-.6241-.063-1.2484-.283-1.8332-.221-.5849-.56-1.1175-.998-1.5641-.437-.4467-.962-.7975-1.542-1.0304-.58-.2329-1.202-.3426-1.827-.3223h-.02zm9.9 2.75l2.5-7.15 2.65 7.15h-5.15zm-144.49-6h3.55v8.8h-3.54l-.01-8.8zm37.71 0h3.55v8.8h-3.54l-.01-8.8zm100-3.55h-9.9v2h9.9v-2zm-150.8 3.6H7.1v4H3.55v-4zm101.63 0h3.55v4h-3.55v-4zm13.1 4.8l.4-4.75h2l.4 4.75h-2.8z"/>
	<path fill="#C29A5B" d="M150 23.75h-3.55v-3.6h-2v3.55h-3.55v2h3.55v3.55h2V25.7H150v-1.95z"/>
</svg>
