<svg xmlns="http://www.w3.org/2000/svg" viewBox="0 0 200 50">
	<g fill="#CD1F45">
		<path d="M121 24.23c.577.0304 1.143-.1631 1.58-.54.206-.2034.366-.4491.468-.7202.101-.271.143-.561.122-.8498.015-.2704-.025-.541-.118-.7954-.093-.2544-.236-.4873-.422-.6846-.214-.2121-.469-.3783-.749-.4883-.28-.1101-.58-.1617-.881-.1517h-2.25v4.18l2.25.05zm-4.45-6.17h4.55c1.177-.06 2.334.3256 3.24 1.08.4.3986.711.8773.913 1.4047.201.5274.289 1.0916.257 1.6553.02.5386-.068 1.0759-.261 1.5794-.192.5035-.484.9629-.859 1.3506-.862.7279-1.975 1.0872-3.1 1h-2.47v4.59h-2.2V18.06h-.07zm14 3.11c-.634.9581-.949 2.0921-.9 3.24-.083 1.1515.235 2.2963.9 3.24.294.3837.673.6945 1.106.9084.434.214.911.3252 1.394.3252.483 0 .96-.1112 1.394-.3252.433-.2139.812-.5247 1.106-.9084.634-.9581.949-2.0921.9-3.24.083-1.1515-.235-2.2963-.9-3.24-.285-.4003-.663-.7245-1.103-.9442-.439-.2197-.926-.3282-1.417-.3158-.492-.0215-.982.0829-1.423.3034-.441.2205-.819.5497-1.097.9566h.04zm6.58-1.53c1.093 1.3452 1.668 3.0375 1.62 4.77.071 1.7359-.507 3.4361-1.62 4.77-.517.5706-1.151 1.0232-1.858 1.3269-.708.3037-1.472.4514-2.242.4331-.771.0286-1.539-.1145-2.248-.4189-.709-.3044-1.342-.7624-1.852-1.3411-1.093-1.3453-1.667-3.0375-1.62-4.77-.051-1.7451.552-3.4464 1.69-4.77.518-.5688 1.152-1.0195 1.859-1.3215.708-.3019 1.472-.4481 2.241-.4285.768-.0157 1.531.1322 2.238.434.707.3017 1.342.7503 1.862 1.316h-.07zm31.62-1.48v8.73l5.9-8.73h2.16v12.55h-2.16v-8.78l-5.9 8.77h-2.2V18.15l2.2.01z"/>
		<path d="M184.69 20c-.85 0-2.93-.36-2.93 2 0 .94.36 2.21 3 2.21h3.06V20h-3.13zm-2.79 10.71h-2.61l3.38-4.82c-.904-.1106-1.73-.565-2.307-1.269-.578-.7039-.861-1.6032-.793-2.511 0-1.57.68-4 4.23-4h6.2v12.6h-2.16v-4.59H185l-3.1 4.59zM149.18 27c-.114.2503-.248.4911-.4.72-.282.404-.66.7321-1.1.9554-.439.2232-.927.3347-1.42.3246-.492.0215-.982-.0829-1.423-.3034-.441-.2205-.819-.5497-1.097-.9566-.634-.9581-.949-2.0921-.9-3.24-.083-1.1515.235-2.2963.9-3.24.285-.4003.664-.7245 1.103-.9442.439-.2197.926-.3282 1.417-.3158.493-.0215.982.0829 1.423.3034.441.2205.819.5497 1.097.9566.24.3511.434.7307.58 1.13h2.34c-.229-.9795-.692-1.8888-1.35-2.65-.518-.5688-1.152-1.0195-1.859-1.3215-.708-.3019-1.472-.4481-2.241-.4285-.77-.0298-1.538.1117-2.247.4143-.709.3027-1.342.7589-1.853 1.3357-1.087 1.3487-1.66 3.0385-1.62 4.77-.071 1.7359.507 3.4361 1.62 4.77.517.5706 1.151 1.0232 1.858 1.3269.708.3037 1.472.4514 2.242.4331.771.0286 1.539-.1145 2.248-.4189.709-.3044 1.342-.7624 1.852-1.3411.572-.6591.989-1.4383 1.22-2.28h-2.39zM162 27c-.114.2503-.248.4911-.4.72-.29.4156-.68.7509-1.135.9748-.455.2238-.959.3288-1.465.3052-.492.0215-.982-.0829-1.423-.3034-.441-.2205-.819-.5497-1.097-.9566-.634-.9581-.949-2.0921-.9-3.24-.083-1.1515.235-2.2963.9-3.24.285-.4003.664-.7245 1.103-.9442.439-.2197.926-.3282 1.417-.3158.493-.0215.982.0829 1.423.3034.441.2205.819.5497 1.097.9566.24.3511.434.7307.58 1.13h2.34c-.229-.9795-.692-1.8888-1.35-2.65-.518-.5688-1.152-1.0195-1.859-1.3215-.708-.3019-1.472-.4481-2.241-.4285-.77-.0298-1.538.1117-2.247.4143-.709.3027-1.342.7589-1.853 1.3357-1.087 1.3487-1.66 3.0385-1.62 4.77-.071 1.7359.507 3.4361 1.62 4.77.522.5647 1.159 1.0105 1.868 1.3073.709.2967 1.474.4375 2.242.4127.771.0286 1.539-.1145 2.248-.4189.709-.3044 1.342-.7624 1.852-1.3411.578-.6446 1.005-1.4098 1.25-2.24H162zM51.85 23.24v-.63c-.54-4-4.2299-8-7.4699-9.5-2.0187-1.016-4.1912-1.6918-6.43-2-1.6553-.1752-3.2685-.6317-4.7701-1.35-.13-.09-.2699-.14-.4099-.22-.126-.0631-.2464-.13669-.3601-.22-.7298-.55959-1.4-1.19294-2-1.89-.3745-.43146-.6874-.9127-.93-1.43l-.18-.31v17.73h1.8901V10.86c.326.3125.6887.5845 1.08.81 1.5301.6844 3.1553 1.1329 4.8199 1.33 1.9987.3014 3.9597.8143 5.85 1.53 4.14 1.89 6.71 6.3 7 8.78v3.15H32.7701v8.82c.5799 0 .9999 0 1.5799-.09h.13v-7h17.37v-4.91"/>
	</g>
	<g fill="#073D59">
		<path d="M64.86 28.82H68c.576.0263 1.1406-.1667 1.58-.54.172-.1529.3092-.341.4023-.5514.0932-.2105.1401-.4385.1377-.6686.0007-.2595-.0512-.5165-.1526-.7554-.1014-.2389-.2502-.4548-.4374-.6346-.5016-.3762-1.1259-.551-1.75-.49h-2.97l.05 3.64zm-2.21 1.93V18.11h8.69v2.07H64.9v3.06h2.84c1.2011-.1641 2.4202.1246 3.42.81.4224.3641.7583.8179.9832 1.3282.2249.5103.3331 1.0644.3168 1.6218.0152.5216-.0814 1.0404-.2832 1.5215-.2018.4812-.5041.9137-.8868 1.2685-.917.7266-2.0729 1.0834-3.24 1l-5.4-.04zm17.19-9.81c-.1076-.3828-.1812-.7743-.22-1.17-.0347.377-.0948.7511-.18 1.12l-1.75 5.89h3.87l-1.71-5.85-.01.01zm3 9.77l-.63-2H77.1l-.59 2h-2.2l4-12.6H81l4.14 12.6h-2.3zm4.5-12.6h2.2v5.13h5.63v-5.13h2.13v12.64h-2.16v-5.58h-5.63v5.58h-2.2l.03-12.64z"/>
		<path d="M107.06 18.15h2.7L104.19 24l6 6.75h-2.75l-5.44-5.8v5.81h-2.2V18.15h2.2v5.18l5-5.18h.06z"/>
		<path d="M29.35 27c-1.6766.0716-3.3468.2519-5 .54-.9542.179-1.8987.406-2.83.68-.4422.123-.8764.2733-1.3.45-.18-.45-.27-.86-.4-1.31v-.18c-.1528-.6585-.2597-1.3267-.32-2h9.85V27zm0 9.13h-.09c-.36-.09-.72-.14-1.08-.23-.8114-.2111-1.5963-.513-2.34-.9-.4908-.2397-.9565-.5278-1.39-.86-1.1039-.7678-2.0622-1.7261-2.83-2.83-.18-.27-.32-.49-.45-.72.09 0 .18 0 .27-.09.09-.09.13 0 .18 0 .9293-.3057 1.8739-.5628 2.83-.77 1.6335-.3146 3.288-.5084 4.95-.58l-.05 6.98zm-7.78-1.53c-.6327-.2318-1.2505-.5023-1.85-.81l-.27-.09-1.53-.81s-.13 0-.18-.09c.0533-.0706.097-.1479.13-.23l.13-.18c.2999-.2974.6358-.5561 1-.77h.13c.0294.0086.0606.0086.09 0 .09.09.13.23.22.32l.23.36c.5531.8001 1.1719 1.5527 1.85 2.25.09.09.18.23.27.32-.09-.14-.18-.18-.22-.18v-.09zM16.48 31l-.4.54c-.2915-.233-.5625-.4906-.81-.77-1.6591-1.4544-2.7589-3.4418-3.11-5.62h5.18c.092 1.05.2727 2.0904.54 3.11.1021.4517.253.8909.45 1.31 0 0-.13.09-.18.13l-.22.13c-.522.3395-1.0078.7316-1.45 1.17zm-4-9.27c.2887-.8361.6998-1.6246 1.22-2.34.4563-.6282.9683-1.2139 1.53-1.75.1082-.1192.2289-.2265.36-.32.0938-.1004.1977-.1909.31-.27.5549.6783 1.2336 1.245 2 1.67h.09c.1009.0697.208.1299.32.18-.13.36-.27.77-.4 1.17v.14c-.09.32-.18.63-.27 1-.132.6603-.2222 1.3283-.27 2h-5.21c.0566-.5066.1776-1.004.36-1.48h-.04zm5.22-6c.0998-.0439.1911-.1048.27-.18.54-.32 1.08-.58 1.67-.9h.13l1.44-.65c.141-.0413.2756-.1019.4-.18h.13l-.18.18c-.6932.6836-1.3132 1.4377-1.85 2.25l-.27.4c-.0631.126-.1367.2464-.22.36-.4455-.2555-.8556-.5681-1.22-.93-.1336-.1204-.2543-.2545-.36-.4 0 .09 0 .09 0 0l.06.05zm33.38 13.9h-15.2v1.8h10.39c-.4074.3701-.8456.7046-1.31 1-4.1239 2.5309-8.8819 3.8384-13.72 3.77v-11H48.7v-1.96H19.4c0-.54.13-1 .22-1.57.0518-.1757.082-.357.09-.54.116-.4769.2664-.9448.45-1.4l.27.09c.36.13.72.22 1.08.36.9269.2908 1.8771.5015 2.84.63h.27c.72.13 1.53.27 2.48.36l2.25.13v-2.02c-.6919-.0028-1.3831-.0462-2.07-.13-.7857-.0594-1.5672-.1662-2.34-.32-.1834-.0042-.3652-.0345-.54-.09-.9614-.1716-1.9077-.4191-2.83-.74-.13 0-.23 0-.36-.09-.13-.09-.09 0-.13 0 .1037-.203.2241-.397.36-.58 0-.09.09-.13.13-.23.7545-1.1178 1.7149-2.0816 2.83-2.84 1.4125-1.0291 3.0459-1.7139 4.77-2h.18V10.1h-.13c-.0582-.0206-.1218-.0206-.18 0-1.5435.0963-3.0777.3068-4.59.63-.9624.1984-1.9084.4691-2.83.81-.58.18-1.17.4-1.85.68-.5.22-1.08.5-1.75.85-.9486.5046-1.852 1.0901-2.7 1.75-1.2164.9178-2.2913 2.0094-3.19 3.24-.6449.9053-1.163 1.8944-1.54 2.94-.384 1.0235-.5838 2.1069-.59 3.2 0 3.38 1.84 6.66 5.18 9.27.18.13.4.27.59.41.19.14.4.27.59.41l1.13.67c.13.09.27.14.4.23.5.27 1 .49 1.53.72l.22.09c.54.23 1.13.45 1.85.72.9467.3133 1.89.5833 2.83.81 2.2329.4915 4.5136.733 6.8.72 5.2962.1079 10.5089-1.3308 15-4.14.7738-.4834 1.4974-1.0428 2.16-1.67.54-.49 2.16-2.12 2.7-2.79h.14l-.04-.02z"/>
	</g>
</svg>
