<svg xmlns="http://www.w3.org/2000/svg" viewBox="0 0 200 50">
	<g fill="#19502E">
		<path d="M55.5078 21.0258c1.1468 0 2.4234.0398 3.5304.7878.738.4887 1.6056 1.4561 1.6056 3.1814 0 1.8949-1.1967 4.1288-4.5177 4.1288h-2.7925v5.196h-2.4433v-13.294h4.6175zm.0997 6.1533c.5385 0 1.3164.0199 1.9347-.5585.4289-.3889.6583-1.0472.6583-1.6056 0-.5186-.2095-1.1469-.6383-1.5159-.4289-.369-1.107-.5486-1.865-.5486h-2.3636v4.2286h2.2739zM62.8978 25.4438c.6782-.6383 1.6855-1.1968 3.1914-1.1968 1.5159 0 2.5232.5585 3.2013 1.1968 1.0073.9474 1.5259 2.4234 1.5259 3.9294 0 1.5059-.5186 2.9819-1.5259 3.9293-.6781.6383-1.6854 1.2067-3.2013 1.2067-1.5059 0-2.5132-.5684-3.1914-1.2067-1.0072-.9474-1.5258-2.4234-1.5258-3.9293-.01-1.5159.5186-2.982 1.5258-3.9294zm1.6456 6.7218c.2094.2493.6981.718 1.5458.718.8577 0 1.3364-.4587 1.5458-.718.1596-.1695.738-.9474.738-2.7924 0-1.845-.5784-2.613-.738-2.7925-.2094-.2493-.6981-.718-1.5458-.718s-1.3364.4587-1.5458.718c-.1496.1795-.738.9475-.738 2.7925 0 1.835.5884 2.6129.738 2.7924zM78.5454 28.0567c-.0399-.4986-.2294-1.087-.4887-1.456-.2394-.3491-.6981-.738-1.476-.738-.758 0-1.2566.3889-1.5658.9075-.4887.7978-.5186 2.0345-.5186 2.603 0 .9075.1297 1.9946.5186 2.6129.2493.3889.758.8876 1.5658.8876.5784 0 1.0671-.2294 1.4361-.738.2892-.4089.4887-.9874.5186-1.496l2.0544.2494c-.1197.9075-.5186 1.9247-1.2366 2.573-.5984.5385-1.5359 1.0272-2.8523 1.0272-1.466 0-2.4234-.5784-2.9819-1.107-.758-.7181-1.476-1.9946-1.476-4.0091 0-1.875.6382-3.0019 1.1469-3.6003.718-.8577 1.9347-1.5458 3.3708-1.5458 1.2267 0 2.234.4288 2.8623 1.0871.6382.6382 1.0272 1.6056 1.1668 2.4733l-2.0444.2692zM88.1594 28.0567c-.0399-.4986-.2294-1.087-.4887-1.456-.2293-.3491-.6981-.738-1.476-.738-.7579 0-1.2566.3889-1.5657.9075-.4787.7978-.5186 2.0345-.5186 2.603 0 .9075.1396 1.9946.5186 2.6129.2493.3889.7579.8876 1.5657.8876.5785 0 1.0671-.2294 1.4361-.738.2893-.4089.4887-.9874.5186-1.496l2.0545.2494c-.1097.9075-.5186 1.9247-1.2367 2.573-.5984.5385-1.5258 1.0272-2.8423 1.0272-1.476 0-2.4234-.5784-2.9819-1.107-.7579-.7181-1.476-1.9946-1.476-4.0091 0-1.875.6383-3.0019 1.1469-3.6003.718-.8577 1.9348-1.5458 3.3709-1.5458 1.2167 0 2.2239.4288 2.8622 1.0871.6383.6382 1.0272 1.6056 1.1668 2.4733l-2.0544.2692zM100.576 31.4475c-.349 1.1569-1.0474 1.8351-1.6258 2.244-.7779.5185-1.7852.8177-2.8523.8177-1.3364 0-2.6927-.5684-3.5105-1.3962-.7579-.7679-1.3164-2.1143-1.3164-3.7 0-2.0145.8377-3.3509 1.7453-4.1088.5285-.4488 1.5159-1.0671 3.0018-1.0671 1.8849 0 3.0817.8676 3.72 1.7652.6779.9275.9969 2.224.9969 3.3509v.4488h-7.0106c0 .1097-.02 1.0073.3291 1.7253.5186 1.0871 1.476 1.3563 2.1342 1.3563.5186 0 1.1768-.1595 1.7253-.718.3291-.3491.4687-.6782.5186-.9873l2.1444.2692zm-2.284-3.1215c0-.5585-.1396-1.1968-.4289-1.6256-.369-.5386-1.0272-.9076-1.7452-.9076-.738 0-1.3763.369-1.7653.8278-.3091.389-.5784.9873-.5784 1.7054h4.5178zM110.299 24.4365v9.8833h-2.253V26.112h-2.554c-.059 1.3364-.099 1.8749-.139 2.7924-.06 1.0272-.13 3.1914-1.007 4.3782-.489.6382-1.088.8876-1.516 1.0072-.25.0798-.519.1097-.798.1097-.19 0-.389-.0199-.579-.0797v-1.7054h.19c.289-.02.678-.1696.927-.369.778-.6184.848-2.0146.928-3.1216.1-1.456.12-2.3237.129-3.6401l.02-1.0472h6.652zM114.917 27.957h2.483c.638 0 1.875.0798 2.693.8876.738.718.808 1.7253.808 2.2639 0 1.4161-.579 2.1342-1.028 2.5032-.159.1197-.887.6981-2.283.6981h-4.917v-9.8733h2.244v3.5205zm0 4.7272h1.765c.429 0 .888-.02 1.277-.3491.229-.2194.508-.5784.508-1.2067 0-.5385-.159-.9674-.598-1.2566-.389-.2493-.878-.2892-1.177-.2892h-1.765v3.1016h-.01zM124.172 24.4365l1.825 3.0717 1.895-3.0717h2.054l-2.892 4.4679 3.431 5.4054h-2.633l-2.244-3.7199-2.364 3.7199h-2.054l3.371-5.1261-3.022-4.7472h2.633zM132.22 25.4438c.678-.6383 1.686-1.1968 3.191-1.1968 1.516 0 2.524.5585 3.202 1.1968 1.007.9474 1.526 2.4234 1.526 3.9294 0 1.5059-.529 2.9819-1.526 3.9293-.678.6383-1.686 1.2067-3.202 1.2067-1.505 0-2.513-.5684-3.191-1.2067-1.007-.9474-1.526-2.4234-1.526-3.9293 0-1.5159.519-2.982 1.526-3.9294zm1.646 6.7218c.209.2493.698.718 1.545.718.858 0 1.337-.4587 1.556-.718.15-.1695.738-.9474.738-2.7924 0-1.845-.578-2.613-.738-2.7925-.209-.2493-.698-.718-1.556-.718-.847 0-1.336.4587-1.545.718-.16.1795-.738.9475-.738 2.7925 0 1.835.588 2.6129.738 2.7924zM141.345 27.1093c.29-1.1968 1.047-1.855 1.586-2.1841.329-.2094 1.237-.6782 2.792-.6782.968 0 1.955.1696 2.693.5785 1.087.5984 1.356 1.466 1.356 2.0943 0 .6782-.329 1.9747-2.014 2.1641v.0399c.578.0798 1.217.3291 1.606.738.349.369.618.9874.618 1.6456 0 .9873-.579 1.855-1.317 2.3436-.887.5785-2.114.6582-3.021.6582-.918 0-2.304-.0997-3.281-.8676-.539-.4288-1.048-1.1668-1.197-2.0943l2.034-.3491c.08.3092.25.7779.479 1.0472.509.5884 1.296.6382 1.805.6382.509 0 1.047-.0598 1.476-.349.389-.2693.579-.6383.579-1.127 0-.4088-.08-.738-.429-1.0272-.449-.369-1.047-.4288-1.606-.4288h-1.027v-1.5159h1.027c.389 0 .947-.0798 1.257-.2294.409-.2094.638-.5585.638-1.1269 0-.3092-.12-.6084-.409-.8378-.449-.369-1.087-.3889-1.416-.3889-.449 0-1.107.0598-1.646.5186-.229.1895-.538.5585-.638 1.1369l-1.945-.3989zM161.481 23.3495h-6.413v2.942h2.852c1.028 0 2.015.0798 3.022.7779.988.6782 1.606 1.6854 1.606 3.1415 0 1.3563-.509 2.3636-1.147 3.0018-.967.9674-2.074 1.1071-3.231 1.1071h-6.203v-13.294h9.514v2.3237zm-6.413 8.6366h2.503c.469 0 .898-.02 1.337-.4688.429-.4288.488-.9075.488-1.2765 0-.4189-.119-.8477-.488-1.2167-.439-.4388-1.008-.4887-1.416-.4887h-2.424v3.4507zM164.144 27.1791c.309-1.3364 1.176-2.0146 1.705-2.3237.768-.4488 1.795-.6183 3.082-.6183 1.625 0 3.271.2094 4.009 1.7452.389.7979.349 1.6456.349 2.3836v3.8196c0 .7979.109 1.5359.289 2.1343h-2.812c-.08-.389-.14-.9076-.15-1.5658-.369.6582-1.267 1.7652-3.311 1.7652-.908 0-1.845-.2294-2.483-.7579-.619-.5087-1.008-1.3165-1.008-2.2041 0-.9873.429-2.1741 2.115-2.8722 1.087-.4488 2.852-.5984 3.64-.6383l.927-.0398v-.2095c0-.2693-.02-.8477-.289-1.1668-.369-.4289-1.107-.4488-1.396-.4488-.399 0-.888.0399-1.297.2892-.249.1496-.578.4687-.698 1.0073l-2.672-.2992zm5.485 2.4633c-.968.0798-1.935.1795-2.484.8477-.149.1895-.309.4887-.309.8876 0 .4289.21.7181.429.8677.269.2094.678.3091 1.067.3091.579 0 1.257-.2493 1.646-.718.06-.0599.518-.6383.518-1.7652v-.5186l-.867.0897zM178.415 24.4365v3.7h3.121v-3.7h2.883v9.8733h-2.883V30.161h-3.121v4.1488h-2.882v-9.8733h2.882zM189.555 24.4365v3.7997h.778c.837 0 1.186-.4089 1.396-.8576.409-.8677.389-1.5459.758-2.224.289-.5386.678-.6782.927-.7181h2.384c-.309.3291-.579.7181-.758 1.0671-.309.6383-.598 1.6855-.778 2.1343-.229.6183-.618 1.2366-1.606 1.3164v.0399c.529.0798 1.068.349 1.476.9474.25.369.419.8477.699 1.6057.269.7779.388 1.0471.638 1.6455.199.4488.309.7181.638 1.127h-2.713c-.428-.1397-.718-.4289-1.067-1.4362-.269-.7679-.309-1.0471-.488-1.476l-.14-.349c-.289-.738-.678-.8876-1.277-.8876h-.867v4.1488h-2.882v-9.8833h2.882z"/>
		<path d="M24.3223 49C12.5641 49 3 39.4459 3 27.6877c0-6.7517 3.1016-12.9649 8.507-17.0338l.2194-.1796V1h12.2368v5.37544h.3591c11.7481 0 21.3122 9.56406 21.3122 21.32226C45.6345 39.4459 36.0704 49 24.3223 49z"/>
	</g>
	<path fill="#FFCB05" d="M18.1489 28.0268l4.438-4.3582v-2.962l-4.438 4.3383v2.9819zM18.1489 16.9867l4.438-4.3682V9.8261l-4.438 4.3382v2.8224zM18.1489 20.6368l4.438-4.3582v-2.7924l-4.438 4.3382v2.8124zM16.8824 9.85602l-.5884-.56846V2.37628h-.6781v6.25307l-.5785-.57844V2.37628h-.6781v5.02639l-.5884-.57844V2.37628h-.6682v6.59215l4.4479 4.35817V2.37628h-.6682v7.47974zM18.1489 24.2869l4.438-4.3582v-2.7924l-4.438 4.3382v2.8124zM13.1027 23.6686l4.4479 4.3582v-2.9819l-4.4479-4.3383v2.962zM21.9187 6.82423l-.5884.57844V2.37628h-.6682v5.68461l-.5884.56846V2.37628h-.6682v6.90131l-.5884.57843V2.37628h-.6682V13.3266l4.438-4.35817V2.37628h-.6682v4.44795zM13.1027 12.6185l4.4479 4.3682v-2.8224l-4.4479-4.3382v2.7924zM13.1027 16.2786l4.4479 4.3582v-2.8124l-4.4479-4.3382v2.7924zM13.1027 19.9287l4.4479 4.3582v-2.8124l-4.4479-4.3382v2.7924zM39.561 22.2325H28.7603c.2294-.359.359-.7779.359-1.2267 0-1.2865-1.0472-2.3237-2.3337-2.3237s-2.3237 1.0472-2.3237 2.3237c0 .5087.1596.9674.4388 1.3464-.1994.1296-.3391.359-.3391.6283 0 .2593.1397.4887.3391.6183-.2692.379-.4388.8477-.4388 1.3464 0 1.2865 1.0372 2.3237 2.3237 2.3237 1.2865 0 2.3337-1.0372 2.3337-2.3237 0-.4488-.1296-.8777-.359-1.2267h8.0382v.4887h-.7978v.6881h.7978v.7081h-.7978v1.3064h.7978v-.5884h1.1768v.5884h.7879v-1.3064h-.7879v-.7081h.7879v-.6881h-.7879v-.4887h1.5857c.3092 0 .5585-.2593.5585-.5685v-.349c0-.3092-.2593-.5685-.5585-.5685zm-11.5686 2.7127c0 .6582-.5386 1.1967-1.2068 1.1967-.6582 0-1.1967-.5385-1.1967-1.1967 0-.2394.0698-.4688.1994-.6583l.3291-.5684c-.2094-.1795-.3391-.4488-.3391-.748s.1297-.5684.3391-.748l-.3291-.5684c-.1296-.1895-.1994-.4089-.1994-.6582 0-.6583.5385-1.1968 1.1967-1.1968.6582 0 1.2068.5385 1.2068 1.1968 0 .4886-.5685 1.6555-.5685 1.6555v.6283c0 .01.5685 1.1768.5685 1.6655z"/>
	<g fill="#fff">
		<path d="M9.06348 20.8163v2.9022c0 2.7725 1.20672 4.5576 1.90482 5.2458.4089.3989 4.5377 4.4679 4.5976 4.5177 1.2865 1.2566 1.5059 1.6655 1.7951 2.3836v-3.2113c0-2.8623-1.4461-3.9693-2.1941-4.6973-1.7452-1.6954-2.9021-2.8124-3.8495-3.7499-1.77522-1.7851-2.25392-3.3908-2.25392-3.3908zM15.167 35.1276c-1.7353-1.7054-2.9022-2.8124-3.8396-3.7499-1.78518-1.7851-2.25391-2.9919-2.25391-2.9919v2.5032c0 2.7725 1.25661 4.5378 1.89491 5.2658.4088.3989 4.5476 4.4479 4.5975 4.4978 1.2865 1.2566 1.5059 1.855 1.7951 2.5631v-3.3909c0-2.8622-1.456-3.9692-2.194-4.6972z"/>
		<path d="M24.3222 7.74173c-.3191 0-.6383.00997-.9574.01995V9.118c.3191-.01994.6283-.01994.9574-.01994 10.2622 0 18.5797 8.31744 18.5797 18.58964 0 10.2622-8.3175 18.5797-18.5797 18.5797-10.2622 0-18.58965-8.3175-18.58965-18.5797 0-5.6946 2.56306-10.7908 6.60215-14.2015v-1.7353c-4.83693 3.6401-7.95848 9.4244-7.95848 15.9368 0 11.0102 8.92578 19.936 19.94598 19.936 11.0102 0 19.936-8.9258 19.936-19.936S35.3324 7.74173 24.3222 7.74173z"/>
		<path d="M38.4241 38.0995c.3091-.4189.5984-.8577.8776-1.3065v-2.6727h-.8776v3.9792zM40.9772 33.1429c.1296-.3889.2393-.7778.339-1.1668h-2.8921v.7081h.4388c.7679-.02 1.6356-.0299 2.1143.4587z"/>
		<path d="M21.7193 31.8764h-.7879v7.9484h.7879v-7.9484z"/>
		<path d="M19.1264 30.3505h2.5929c.6682 0 1.137.1396 1.4062.3989.2693.2593.399.7281.399 1.3963v7.4298c0 .6682-.1297 1.137-.399 1.3963-.4089.4088-1.1668.4088-1.7951.4088-.1396-.0099-.2792-.0099-.3989-.0099v3.5204c.2593.0499.5186.0998.7878.1397v-2.8922c1.1968 0 1.9747-.4089 2.3437-1.2267v4.3083h.2593c.1596 0 .3291 0 .4887-.0099v-12.935c0-.6881.1396-1.1668.3989-1.4361.2593-.2693.728-.4089 1.3862-.4089.6682 0 1.6556-.0997 2.1642.4089.2593.2693.3789.7579.3789 1.4361v3.8097h-1.7751v-4.069h-.768v13.0547c.2593-.03.5087-.0699.768-.1197v-8.0981h1.7751v7.6892c.369-.0997.7281-.2194 1.0871-.3491v-7.0409c0-.7978.1895-1.3962.9973-1.6655l-.8976-4.8967h1.7952l.2992 5.3455h.2194l.2992-5.3455h1.8948l-1.0172 4.8967c.8477.2992 1.0172.8178 1.0172 1.6655v4.5477c.5286-.3989 1.0272-.8178 1.5059-1.2766V30.54h5.2658c.0399-.2393.0698-.4687.0997-.718H29.3985l.1696.8875c-.389-.718-1.127-1.077-2.214-1.077h-.7679c-1.3065 0-2.0944.5186-2.4035 1.5558-.2793-1.0871-1.107-1.6256-2.4733-1.6256h-3.3709v14.5904c.2593.0898.5186.1795.7779.2593V30.3505h.01zm16.3457 5.6148l-.8477-.8078.8477-4.3881v5.1959z"/>
		<path d="M32.1311 43.3852c.2693-.1396.5385-.2792.8078-.4288v-6.0137h-.8078v6.4425z"/>
	</g>
</svg>
