<svg xmlns="http://www.w3.org/2000/svg" viewBox="0 0 200 50">
	<g fill="#414042">
		<path d="M51.36 13.94h-3.83c.27.31.31.59.31 1.26V23c.0609.4441-.05.8948-.31 1.26h2.88c-.27-.32-.31-.58-.31-1.26v-2h1.3c2.66 0 4.32-1.35 4.32-3.65s-1.62-3.41-4.36-3.41zm-.36 5.8h-1v-4.63h1c.3171-.0425.6397-.0138.9442.0842.3046.0979.5834.2626.8162.482.2329.2194.4138.488.5296.7862.1159.2983.1637.6186.14.9376.0223.3209-.026.6427-.1415.9429-.1156.3001-.2955.5713-.5272.7944-.2317.2231-.5094.3927-.8138.4968-.3043.1042-.6277.1403-.9475.1059zm9.18 4.32L57 16.87c-.2061-.5446-.5113-1.0464-.9-1.48h3.15c-.1003.2268-.1521.472-.1521.72s.0518.4932.1521.72l2 4.68 1.76-4.77c.0888-.214.1346-.4433.1346-.675 0-.2317-.0458-.4611-.1346-.675h2.21c-.3641.3583-.6264.8069-.76 1.3l-2.48 6.53c-.67 1.76-1.49 3.33-3.6 3.33-.897.0325-1.7706-.291-2.43-.9l.59-1.26c.1893.3159.4598.5754.7834.7513.3237.1758.6885.2617 1.0566.2487.85.07 1.44-.39 1.84-1.32l-.04-.01zm9.32.32c-2.34 0-4.23-1.48-4.23-4.59-.0206-.626.0897-1.2495.3238-1.8305.2342-.5809.587-1.1066 1.036-1.5434.449-.4368.9843-.775 1.5715-.993.5872-.218 1.2135-.311 1.8387-.2731 1.17 0 1.85.27 2.43.27.2649.0091.5274-.053.76-.18l-.85 2c-.2773-.3101-.6161-.5592-.9949-.7313-.3787-.1722-.7891-.2637-1.2051-.2687-1.66 0-2.66 1.44-2.66 3.6s.77 3.38 2.52 3.38c.5384.0098 1.0715-.1074 1.5562-.3419.4847-.2345.9074-.5799 1.2338-1.0081l.4 1c-.4708.5165-1.0507.9218-1.6976 1.1865-.6469.2646-1.3445.3819-2.0424.3435l.01-.02zm8.41 0c-2.34 0-4.23-1.48-4.23-4.59-.0206-.626.0897-1.2495.3238-1.8305.2342-.5809.587-1.1066 1.036-1.5434.449-.4368.9843-.775 1.5715-.993.5872-.218 1.2135-.311 1.8387-.2731 1.17 0 1.85.27 2.43.27.2649.0091.5274-.053.76-.18l-.81 2c-.2773-.3101-.6161-.5592-.9949-.7313-.3787-.1722-.7891-.2637-1.2051-.2687C77 16.23 76 17.68 76 19.83s.76 3.38 2.52 3.38c.5384.0098 1.0715-.1074 1.5562-.3419.4847-.2345.9074-.5799 1.2338-1.0081l.4 1c-.4755.5016-1.0521.8966-1.6917 1.1586-.6396.262-1.3275.3852-2.0183.3614h-.09zm7.29-4.68l3.06-3.2c.54-.54.59-.77.59-1.17h2.75c-.5785.3784-1.1149.8176-1.6 1.31l-2.65 2.65 2.88 3.51c.4315.575.9675 1.0636 1.58 1.44h-3.46c.0135-.1861-.0154-.3729-.0847-.5461-.0693-.1733-.1771-.3285-.3153-.4539l-2.75-3.36V23c-.0673.4445.0441.8975.31 1.26h-2.79c.2495-.3694.3496-.8197.28-1.26v-6.4c.0673-.4445-.0441-.8975-.31-1.26h2.79c-.26.3652-.3709.8158-.31 1.26v3.1h.03zm13.5-3.1c.0673-.4445-.0441-.8975-.31-1.26h2.79c-.26.3652-.371.8158-.31 1.26V23c-.067.4445.044.8975.31 1.26h-2.8c.2636-.3638.378-.8146.32-1.26v-4.34l-3.78 4V23c-.0673.4445.0441.8975.31 1.26h-2.79c.2636-.3638.378-.8146.32-1.26v-6.4c.0673-.4445-.0441-.8975-.31-1.26h2.79c-.26.3652-.3709.8158-.31 1.26v4.32l3.78-4-.01-.32zm10.3 0c.067-.4445-.044-.8975-.31-1.26h2.79c-.26.3652-.371.8158-.31 1.26V23c-.067.4445.044.8975.31 1.26h-2.79c.26-.3652.371-.8159.31-1.26v-4.34l-3.78 4V23c-.067.4445.044.8975.31 1.26h-2.79c.26-.3652.371-.8159.31-1.26v-6.4c.067-.4445-.044-.8975-.31-1.26h2.79c-.26.3652-.371.8158-.31 1.26v4.32l3.78-4v-.32zm-2.34-3.87c-.154.2111-.247.46-.27.72 0 .27.18.54.76.54.58 0 .76-.31.76-.54-.008-.2633-.103-.5165-.27-.72h.85c.182.2481.289.543.31.85 0 .72-.68 1.13-1.71 1.13-1.03 0-1.71-.4-1.71-1.12.006-.1614.044-.32.113-.4661.068-.1462.166-.2768.287-.3839h.86l.02-.01zm18.4 3.38c-.335-.3704-.744-.666-1.2-.8676-.457-.2016-.951-.3046-1.45-.3024-2.07 0-3.29 1.62-3.29 4.19 0 2.57.9 4.1 3.33 4.1.572-.0224 1.133-.1617 1.649-.4094.516-.2477.976-.5984 1.351-1.0306l.58 1c-.543.5528-1.197.9833-1.92 1.2627-.723.2794-1.497.4012-2.27.3573-3.15 0-5.13-1.89-5.13-5.22-.02-.7201.109-1.4366.379-2.1042.271-.6677.677-1.272 1.193-1.7747.516-.5028 1.13-.8931 1.805-1.1463.674-.2532 1.394-.3638 2.113-.3248 1.44 0 2 .27 2.93.27.401.0264.799-.0828 1.13-.31l-1.2 2.31z"/>
		<path d="M127.85 16.5c-.698-.0756-1.402.0826-2 .45l.72-1.57h8.05l-.69 1.62c-.164-.1638-.361-.2891-.579-.3669-.218-.0779-.451-.1062-.681-.0831h-1.44v6.44c-.064.4458.051.899.32 1.26h-2.79c.264-.3638.378-.8146.32-1.26V16.5h-1.23zm15.35 7.74c-.414-.3624-.725-.8283-.9-1.35l-3.2-7.52h-2.52c.274.2417.504.5294.68.85l-2.88 6.66c-.215.4898-.501.9448-.85 1.35h2.16c-.27-.54-.18-.77 0-1.44l.18-.54h3.92l.18.54c.18.68.32.9 0 1.44l3.23.01zm-6.84-3.06l1.57-3.73 1.44 3.73h-3.01zm13.82-1h-3.78v2.75c-.064.4458.051.899.32 1.26h-2.79c.264-.3638.378-.8145.32-1.26v-6.38c.064-.4458-.051-.899-.32-1.26h2.79c-.264.3638-.378.8146-.32 1.26V19h3.78v-2.45c.064-.4458-.051-.899-.32-1.26h2.79c-.264.3638-.378.8146-.32 1.26v6.39c-.064.4458.051.899.32 1.26h-2.79c.264-.3638.378-.8145.32-1.26v-2.76zm11.34 2v-5.53c-.058-.4454.056-.8962.32-1.26h-7c.27.32.32.58.32 1.26v3.51c0 1.62-.27 2.88-1.89 3.47v1.57c.638-.5845 1.474-.906 2.34-.9h4.63c.862.0152 1.69.3339 2.34.9v-1.58c-.325-.0633-.615-.2464-.811-.5132-.196-.2667-.285-.5976-.249-.9268zm-2.07.49c0 .1194-.047.2338-.132.3182-.084.0844-.199.1318-.318.1318h-3c.542-.8568.778-1.8719.67-2.88v-3.33c-.008-.061-.002-.1232.017-.1815.02-.0584.053-.1114.097-.1549.043-.0436.096-.0765.154-.0962.059-.0197.121-.0257.182-.0174h2.34l-.01 6.21zm13.5 1.57c-.414-.3624-.725-.8283-.9-1.35l-3.2-7.51h-2.52c.274.2417.504.5294.68.85l-2.88 6.66c-.215.4898-.501.9448-.85 1.35h2.16c-.27-.54-.18-.77 0-1.44l.18-.54h3.83l.27.54c.18.68.32.9 0 1.44h3.23zm-6.88-3.06l1.57-3.73 1.44 3.73h-3.01zm11-5.8h-3.6c.27.32.32.58.32 1.26v6.39c.058.4455-.056.8962-.32 1.26h2.79c-.27-.32-.32-.58-.32-1.26v-1.44H177c2.47 0 4-1.26 4-3.2 0-1.94-1.3-3.01-4-3.01h.07zm-.32 5.13H176v-4h.77c1.44 0 2.16.58 2.16 2s-.77 2-2.2 2h.02zM50.81 32.21H50v-2.43h2.16c.2272-.0283.4579-.0063.6757.0646.2178.0708.4172.1888.5843.3454l.67-1.48h-6.51c.27.32.31.58.31 1.26v6.39c.0609.4442-.05.8948-.31 1.26h3.29c2.07 0 3.64-.67 3.64-2.66 0-1.99-1.58-2.75-3.7-2.75zm-.23 4.27h-.67V33.2h.67c1.13 0 1.84.45 1.84 1.62 0 1.17-.75 1.66-1.83 1.66h-.01zm14.13 1.13c-.4142-.3624-.7247-.8283-.9-1.35l-3.19-7.52h-2.51c.2752.2447.5053.5358.68.86l-2.89 6.66c-.2299.493-.5334.9482-.9 1.35h2.16c-.27-.54-.18-.76 0-1.44l.18-.54h3.83l.27.54c.18.68.31.9 0 1.44h3.27zm-6.84-3.06l1.49-3.73 1.48 3.73h-2.97zm14-1h-3.73v2.75c-.0673.4445.0441.8975.31 1.26h-2.78c.2671-.3623.3852-.8133.33-1.26v-6.38c.0673-.4445-.0441-.8975-.31-1.26h2.79c-.26.3652-.3709.8158-.31 1.26v2.48h3.78v-2.48c.0673-.4445-.0441-.8975-.31-1.26h2.76c-.26.3652-.3709.8158-.31 1.26v6.39c-.0673.4445.0441.8975.31 1.26h-2.79c.26-.3652.3709-.8158.31-1.26l-.05-2.76zm6.75-.49l3.06-3.19c.54-.54.59-.77.59-1.17h2.75c-.5536.3792-1.0663.8149-1.53 1.3l-2.7 2.66 2.88 3.51c.4315.575.9675 1.0636 1.58 1.44h-3.47c.0135-.1861-.0154-.3729-.0847-.5461-.0693-.1733-.1771-.3285-.3153-.4539l-2.75-3.33v3.12c-.0673.4445.0441.8975.31 1.26h-2.79c.26-.3652.3709-.8158.31-1.26V30c.0673-.4445-.0441-.8975-.31-1.26h2.79c-.26.3652-.3709.8158-.31 1.26l.04 3.07-.05-.01zM183.25 16.5c-.698-.0756-1.402.0826-2 .45l.72-1.57h8l-.69 1.62c-.164-.1715-.364-.3051-.585-.3915-.221-.0863-.458-.1234-.695-.1085h-1.44v6.44c-.064.4458.051.899.32 1.26h-2.75c.264-.3638.378-.8145.32-1.26V16.5h-1.2zM26.52 8c-3.269-.00791-6.4669.95424-9.1889 2.7647-2.722 1.8104-4.8456 4.3877-6.1021 7.4056-1.25648 3.0179-1.58934 6.3408-.9564 9.548.6329 3.2072 2.2031 6.1545 4.5118 8.4689 2.3088 2.3144 5.2523 3.8917 8.458 4.5324 3.2056.6407 6.5293.3159 9.5503-.9333 3.0209-1.2492 5.6034-3.3666 7.4204-6.0841C42.0301 30.9846 43 27.7891 43 24.52c.0026-2.1668-.4216-4.3129-1.2483-6.3158-.8268-2.0029-2.04-3.8233-3.5703-5.3573-1.5303-1.534-3.3478-2.7516-5.3486-3.58326C30.8319 8.43201 28.6868 8.00263 26.52 8zm0 31.32c-2.9232-.004-5.7796-.8747-8.2079-2.502-2.4284-1.6273-4.3197-3.9382-5.4347-6.6404-1.115-2.7022-1.4036-5.6744-.8295-8.5406.5742-2.8663 1.9854-5.4979 4.0552-7.5622 2.0698-2.0642 4.7053-3.4683 7.5731-4.0347 2.8678-.56639 5.8392-.26968 8.5383.8526 2.6992 1.1224 5.005 3.0199 6.6257 5.4526 1.6208 2.4328 2.4838 5.2915 2.4798 8.2147-.0026 1.9409-.3875 3.8624-1.1327 5.6545-.7452 1.7922-1.8361 3.4201-3.2104 4.7907-1.3743 1.3706-3.0051 2.4571-4.7993 3.1974-1.7942.7403-3.7167 1.12-5.6576 1.1174z"/>
		<path d="M30.16 30.37c1.35 1.48 1.17 4.23.72 5.49-.0089.0553-.0295.108-.0606.1546-.031.0466-.0718.086-.1194.1154-.77.27-1.71.45-2.16.58.8756-.7718 1.4985-1.7894 1.7874-2.9202.289-1.1309.2306-2.3226-.1674-3.4198zm7.74-1.76c-1.7508-1.5176-3.8555-2.5699-6.12-3.06 2.2752 1.1306 4.1111 2.9841 5.22 5.27.3898-.6369.7243-1.306 1-2 0-.08 0-.12-.1-.21zm.94-4.05c.0214-.0581.0214-.1219 0-.18-.6717-.2897-1.3635-.5304-2.07-.72.3071-.1725.5468-.4439.68-.77-.7303.3514-1.5296.5359-2.34.54 1.3753.5443 2.6626 1.289 3.82 2.21-.0953-.3516-.1258-.7175-.09-1.08z"/>
		<path d="M32.14 28.93c.4809.1566.9991.1566 1.48 0-2-.54-3.15-3.37-7.74-3.78-.18 0-.67 0-.41-.41.6332-.6483 1.3301-1.2312 2.08-1.74-.32 0-1.89.13-2.34.18-.45.05-.58 0-.58-.41 0 0-.9.86-.45 1.31.1766.0495.3634.0495.54 0 .18 0 .58-.18.86-.27-.1833.2357-.3346.4946-.45.77 0 .27-.13.41.32.54 1.3605.4096 2.6566 1.0088 3.85 1.78 1.3099.8027 2.3856 1.9358 3.1193 3.2855.7336 1.3498 1.0994 2.8687 1.0607 4.4045.6168-.442 1.2046-.923 1.76-1.44v-.27c-.6994-1.5476-1.763-2.9029-3.1-3.95z"/>
		<path d="M37.27 19c-.27-.18-1.58-1-1.89-1.17-.2723-.1285-.5019-.3325-.6615-.5878-.1596-.2553-.2423-.5511-.2385-.8522 0-.85-.45-2-2.07-3.37-.0234.1323-.0234.2677 0 .4-.4802-.4364-1.0722-.7306-1.71-.85 0 0 .13-.54.18-.85.05-.31-.18-.59-.68-.31-2 .85-5.22.85-8.6 4.09.4498-1.0862 1.1608-2.0446 2.07-2.79-.8572.1847-1.6897.47-2.48.85-.242.1194-.4436.3072-.58.54-1.2326 1.8933-2.06 4.0213-2.43 6.25-.2112-1.5997-.2112-3.2203 0-4.82-.6628.5818-1.2658 1.2283-1.8 1.93-.2112.2315-.3226.5369-.31.85.009 2.3543.4991 4.6819 1.44 6.84-1.2671-1.2628-2.2223-2.8036-2.79-4.5-.3348 1.0232-.5594 2.0791-.67 3.15.006.4503.1452.8887.4 1.26 1.3494 2.3128 3.2934 4.2222 5.63 5.53-1.35-.13-4.23-1.71-5.62-2.88.2578 1.0466.6512 2.0552 1.17 3 .18.41.4.58 1 .9 2.2921 1.2802 4.8979 1.89 7.52 1.76-1.9944.7103-4.1531.8215-6.21.32.3596.3673.7512.702 1.17 1 .9231.6815 1.9967 1.1308 3.13 1.31 2.66.54 5.94-1.35 5.13-4.91-.1422.3092-.3472.5853-.602.8109-.2548.2255-.5539.3955-.878.4991 1.31-1.31 1.17-3.38-1.12-3.64-.9588-.0685-1.9212-.0685-2.88 0-.2719.0344-.548.0033-.8055-.0906-.2574-.0939-.4887-.248-.6745-.4494.4367-.0329.8708-.093 1.3-.18.7381-.2851 1.5121-.4668 2.3-.54 0-.13-.32-.54-1.35-.13-.1801.0342-.366.0229-.5406-.033-.1747-.0559-.3326-.1545-.4594-.287 1 .27 1.44-.9 2.43-.27.18.13.54.13.41-.13-.0782-.1702-.206-.3127-.3665-.4091-.1606-.0963-.3466-.142-.5335-.1309-.9674-.1529-1.9578-.0601-2.88.27-.4099.1989-.7875.4585-1.12.77-.072-.9072.2032-1.808.77-2.52.9718-.6031 2.0642-.9855 3.2-1.12-.0478-.1052-.0725-.2194-.0725-.335 0-.1156.0247-.2298.0725-.335.32-.41 1.31-1.12 7.11-1.12l-.45.45c1.2418.0964 2.4656.3552 3.64.77.13 0 .45.13.86-.54.13-.18 0-.18-.32-.4.0172-.106.0172-.214 0-.32 0-.18-.13-.13-.18 0-.05.13-.58.13-.68 0-.1081-.2112-.2671-.3921-.4627-.5266-.1955-.1344-.4214-.218-.6573-.2434.1883-.1792.4218-.3036.6756-.36.2537-.0564.518-.0426.7644.04 0 0 0 .27.27.18.27-.09.32-.27.45 0 .0224.1055.0224.2145 0 .32 0 .13 0 .18.18 0l.32-.32c.2497.0846.5203.0846.77 0 .2312-.0972.4346-.2506.5918-.4461.1571-.1955.263-.4271.3082-.6739.38-.18.65-.58.51-.65zm-11.12-.27c.2492-.1101.5066-.2004.77-.27.27 0 .45 0 .27.18-.58.85-.58 2.47.27 2.79-.5261-.0031-1.0515.0404-1.57.13-.041-.7712.0196-1.5445.18-2.3l-.9.4c.0565-1.0083.3665-1.986.9015-2.8425.5349-.8566 1.2773-1.5643 2.1585-2.0575-1.1471 1.0227-1.8858 2.4255-2.08 3.95v.02zm3.73-6.39c-.18.27-.68.85-.54 1.26-.2921.0875-.5792.191-.86.31-.18.14-.27 0-.18-.18.2884-.5964.7434-1.0966 1.31-1.44.39-.24.39-.06.28.03l-.01.02zm3.73 4.5c0 .27 0 .32-.32.27-.1219-.0609-.2542-.0983-.39-.11h-.13c.1472.2758.2098.5888.18.9-.2827-.5953-.6803-1.1289-1.17-1.57.441-.0404.8856.0037 1.31.13.18 0 .41 0 .54-.77.139.3645.1354.768-.01 1.13l-.01.02z"/>
	</g>
</svg>
