<svg xmlns="http://www.w3.org/2000/svg" viewBox="0 0 200 50">
	<path fill="#E9041E" d="M42.9302 10.9609H14v14.7564h28.9302V10.9609z"/>
	<g fill="#000">
		<path d="M71.6424 18.184l-5.8944-7.2232h2.9847l4.3305 5.305 3.925-5.305h2.9847l-8.8212 11.9183h-2.9846l3.4753-4.6951zm50.0376 4.552h2.177V10.7394h-2.269l-7.823 9.0391-.058-.017c.136-2.2658.153-4.1124.153-5.891v-3.1346h-2.177V22.736h2.252l7.793-9.0426.03.017c-.082 1.7785-.082 4.879-.082 5.8876v3.138h.004zm15.475-7.1687h-7.836v-4.8416h-2.218v11.983h2.218v-5.1925h7.836v5.1925h2.218v-11.983h-2.218v4.8416zm9.227 2.3203h4.637l-2.314-4.8859-2.323 4.8859zm-.93 1.9523l-1.384 2.9301h-2.405l5.853-12.0443h2.351l5.878 12.0443h-2.416l-1.37-2.9301h-6.507zm21.911-4.2726h-7.836v-4.8416h-2.218v11.983h2.218v-5.1925h7.836v5.1925h2.218v-11.983h-2.218v4.8416zm12.235 7.6695c-3.99 0-6.995-2.5315-6.995-6.3169 0-3.7138 3.056-6.2896 6.995-6.2896 2.348 0 4.034.6712 5.54 1.7786l-1.172 1.7444c-1.097-.8347-2.484-1.4548-4.31-1.4548-2.903 0-4.722 1.8364-4.722 4.2214 0 2.4668 1.826 4.2419 4.76 4.2419 1.819 0 3.27-.5894 4.367-1.4276l1.173 1.7445c-1.503 1.1176-3.285 1.7581-5.636 1.7581zm-92.8994-.0681c2.3475 0 4.1329-.6406 5.6388-1.7513l-1.172-1.7445c-1.0971.8382-2.5486 1.4276-4.368 1.4276-2.9302 0-4.7598-1.7751-4.7598-4.2419 0-2.385 1.816-4.2215 4.7223-4.2215 1.8263 0 3.2096.6201 4.3101 1.4549l1.172-1.7445c-1.5059-1.1073-3.1925-1.7785-5.54-1.7785-3.9387 0-6.9949 2.5758-6.9949 6.2896-.0034 3.7785 3.0017 6.3101 6.9915 6.3101zm13.7614.1192h2.136v-1.1141c3.592-.3373 6.372-2.5724 6.372-5.7854 0-3.172-2.78-5.4378-6.372-5.7819V10h-2.136v.6303c-3.482.4157-6.1873 2.6542-6.1873 5.7581 0 3.1482 2.7053 5.3527 6.1873 5.7615v1.138zm0-10.5758v7.3799c-2.2009-.3782-3.5467-1.8365-3.5467-3.7036.0034-1.8092 1.3969-3.2811 3.5467-3.6763zm2.14 7.414v-7.4515c2.313.3271 3.737 1.8365 3.737 3.7138 0 1.9182-1.424 3.414-3.737 3.7377zm-42.0581-9.1653c2.5996 0 4.2385 1.7002 4.2385 4.0477 0 2.4532-1.6389 3.8603-4.2385 3.8603h-5.1823v4.0034h-2.2079V10.9608h7.3902zm.1226 5.9353c1.1482 0 1.8569-.7905 1.8569-1.8569 0-1.1755-.7087-2.1125-1.9795-2.1125h-5.1823v3.966h5.3049v.0034z"/>
		<path d="M42.9302 25.4276H14v14.4668h28.9302V25.4276z"/>
		<path d="M74.1533 27.9556h-2.3509l-5.8535 12.0443h2.4055l1.3833-2.9301h6.5042l1.3697 2.9301h2.4157l-5.874-12.0443zm-3.4855 7.1619l2.3271-4.8859 2.3135 4.8859h-4.6406zM105.363 39.942h3.07l-6.385-6.1499 6.286-5.8331h-3.07l-5.9079 5.4788v-5.4822H97.138V39.942h2.2181v-5.5605h.2351l5.7718 5.5605zM91.6525 32.8006h-7.8364v-4.845h-2.2215V39.942h2.2215v-5.1925h7.8364v5.1925h2.2181V27.9556h-2.2181v4.845zM64.4464 34.0548c-.7257-1.1584-2.1295-1.6899-3.448-1.724-1.8535-.0409-3.7104-.0102-5.5639-.0136-.0068-.8246-.0034-1.6457-.0136-2.4702 2.8483-.0171 5.6967.0102 8.5451-.0171-.0034-.6167-.0034-1.2334.0034-1.85-3.6014-.0307-7.2061-.0069-10.8143-.0103.017 3.9728-.0239 7.9489.0238 11.9217 2.3442-.0102 4.6883.0034 7.0324-.0034.8382-.0307 1.6968-.0988 2.4906-.4055 1.0495-.4157 1.9251-1.3254 2.1772-2.4463.1431-.9983.1363-2.0988-.4327-2.9813zm-3.2913 3.7922c-1.9046.0647-3.8126-.0034-5.7172.0306-.0068-1.2027-.0239-2.4054.0102-3.6081 1.8297.0306 3.6627-.0273 5.4923.0272.9847.0477 2.0273.7803 1.9183 1.8671.0852.9506-.8143 1.6764-1.7036 1.6832z"/>
	</g>
	<path fill="#fff" d="M37.8773 24.5487H19.0562v1.7615h18.8211v-1.7615z"/>
</svg>
