<svg xmlns="http://www.w3.org/2000/svg" viewBox="0 0 200 50">
	<path fill="#231F20" d="M117.12 37.6c-.041.1459-.131.2733-.255.3607-.124.0874-.274.1295-.425.1193h-3.92V34h3.8v-1.2h-3.8v-3.52h3.84c.152-.0164.305.0234.431.1117.125.0884.213.2193.249.3683h.4v-1.64h-6.76v.4c.114.0322.213.1029.28.2.16.16.16.4.2.48v9c-.003.1379-.047.2718-.125.3855-.078.1137-.187.2021-.315.2545v.4h6.8V37.6h-.4zm17.48 0c-.041.1459-.131.2733-.255.3607-.124.0874-.274.1295-.425.1193H130V34h3.8v-1.2H130v-3.52h3.84c.151-.0102.301.0319.425.1193s.214.2148.255.3607h.4v-1.64h-6.72v.4c.114.0322.213.1029.28.2.16.16.16.4.2.48v9c-.003.1379-.047.2718-.125.3855-.078.1137-.187.2021-.315.2545v.4H135V37.6h-.44.04zm-25.88-9.12v-.4h-8.8v.4c.146.041.273.131.361.2548.087.1238.129.274.119.4252v9c.01.1512-.032.3014-.119.4252-.088.1238-.215.2138-.361.2548v.4h2.28v-.4c-.146-.041-.273-.131-.361-.2548-.087-.1238-.129-.274-.119-.4252v-8.88h5.12v8.92c.01.1512-.032.3014-.119.4252-.088.1238-.215.2138-.361.2548v.4h2.28v-.4c-.146-.041-.273-.131-.361-.2548-.087-.1238-.129-.274-.119-.4252v-9c.023-.1583.086-.308.184-.4343.099-.1262.228-.2247.376-.2857zM97.6 34h-4.72v-1.2h4.72V34zm-45.2 3.6c-.0334.1456-.1146.2759-.2305.3701-.116.0942-.2601.147-.4095.1499 0 0-.72.08-1.6.08-.3761.0285-.7535-.0328-1.1013-.1789-.3477-.146-.6557-.3726-.8987-.6611-.4903-.7592-.7154-1.6594-.64-2.56v-2.12c0-2.28.84-3.4 2.56-3.4.76 0 1.56.08 1.56.08.1467.0121.2863.0682.4005.161.1142.0928.1977.2179.2395.359h.48v-1.52c-.3694-.0869-.7433-.1536-1.12-.2-.4891-.0867-.9836-.1401-1.48-.16-.5411-.0247-1.0813.0659-1.5848.2659-.5034.2-.9586.5048-1.3352.8941-.7564.9943-1.1131 2.2358-1 3.48v2.08c-.0944 1.2427.2922 2.4742 1.08 3.44.3714.3963.8256.7058 1.3304.9063.5047.2005 1.0475.2872 1.5896.2537.72 0 1.2 0 1.64-.08l1-.16v-1.52l-.48.04zm111.2-9.44h-2.52v.4c.32.12.48.36.32.84-.16.48-2 5.24-2 5.24-.178-.0322-.336-.1327-.44-.28-.16-.32-2-4.84-2.08-5.12-.036-.064-.057-.1359-.06-.2095-.002-.0736.013-.1468.044-.2134.031-.0666.078-.1248.137-.1695.058-.0447.126-.0748.199-.0876v-.4h-2.56v.4c.175.0227.339.0951.474.2086.135.1134.234.2632.286.4314.12.28 2.12 5.24 2.28 5.64.105.2547.239.4964.4.72.221.2106.499.3499.8.4 0 0-.28.76-.52 1.36-.083.2649-.247.4968-.47.6621-.223.1653-.493.2557-.77.2579-.14.0009-.276-.0463-.385-.1337-.109-.0873-.185-.2096-.215-.3463h-.44v1.44c.348.1685.735.2377 1.12.2.529.0258 1.051-.1294 1.48-.44.44-.3482.784-.8024 1-1.32.28-.64 3-8.08 3.2-8.44.2-.36.32-.6.72-.68v-.4.04zm-99.76-6c0-.08-2.56-9-2.56-9-.1044-.3154-.3055-.5898-.5748-.7844-.2692-.1945-.593-.2992-.9252-.2992-.3322 0-.6559.1047-.9252.2992-.2693.1946-.4704.469-.5748.7844 0 0-2.36 8.36-2.56 9-.0412.1859-.1346.3562-.2692.4908s-.3049.228-.4908.2692v.4h2.6v-.4c-.142-.052-.2605-.1534-.334-.2856-.0734-.1322-.0968-.2864-.066-.4344.24-1 .68-2.52.68-2.52h3.92s.64 2.28.68 2.52c.0378.1484.0174.3056-.0569.4395-.0744.1338-.1971.2342-.3431.2805v.4h2.6v-.4c-.1807-.052-.3452-.1489-.4781-.2819-.1329-.1329-.2299-.2974-.2819-.4781h-.04zm-5.72-3.72s1.36-4.88 1.4-5c0-.0637.0253-.1247.0703-.1697.045-.045.1061-.0703.1697-.0703.0637 0 .1247.0253.1697.0703.045.045.0703.106.0703.1697 0 .12 1.4 5 1.4 5h-3.28zm4.64 19.76c0-.08-2.56-9-2.56-9-.1044-.3154-.3055-.5898-.5748-.7844-.2692-.1945-.593-.2992-.9252-.2992-.3322 0-.6559.1047-.9252.2992-.2693.1946-.4704.469-.5748.7844 0 0-2.36 8.36-2.56 9-.0412.1859-.1346.3562-.2692.4908s-.3049.228-.4908.2692v.4h2.6v-.4c-.142-.052-.2605-.1534-.3339-.2856-.0735-.1322-.0969-.2864-.0661-.4344.24-1 .68-2.52.68-2.52h3.84s.64 2.28.68 2.52c.0378.1484.0174.3056-.0569.4395-.0744.1338-.1971.2342-.3431.2805v.4h2.6v-.4c-.1755-.0535-.3342-.1517-.4604-.2849-.1262-.1332-.2156-.2969-.2596-.4751zM57 34.4s1.36-4.88 1.4-5c0-.0637.0253-.1247.0703-.1697.045-.045.1061-.0703.1697-.0703.0637 0 .1247.0253.1697.0703.045.045.0703.106.0703.1697 0 .12 1.4 5 1.4 5H57zm17.16-21.28c-.0102-.1512.0319-.3014.1193-.4252.0874-.1238.2148-.2138.3607-.2548V12h-2.28v.4c.1459.041.2733.131.3607.2548.0874.1238.1295.274.1193.4252v3.6h-5.12v-3.6c-.0102-.1512.0319-.3014.1193-.4252.0874-.1238.2148-.2138.3607-.2548V12h-2.28v.4c.1459.041.2733.131.3607.2548.0874.1238.1295.274.1193.4252v9c.0102.1512-.0319.3014-.1193.4252-.0874.1238-.2148.2138-.3607.2548v.4h2.28v-.4c-.1459-.041-.2733-.131-.3607-.2548-.0874-.1238-.1295-.274-.1193-.4252v-4.16h5.08v4.24c.0102.1512-.0319.3014-.1193.4252-.0874.1238-.2148.2138-.3607.2548v.4h2.28v-.4c-.1459-.041-.2733-.131-.3607-.2548-.0874-.1238-.1295-.274-.1193-.4252v-9l.04-.04zM73 29.16c-.0102-.1512.0319-.3014.1193-.4252.0874-.1238.2148-.2138.3607-.2548v-.4H71.2v.4c.1459.041.2733.131.3607.2548.0874.1238.1295.274.1193.4252v3.6h-5.12v-3.6c-.0102-.1512.0319-.3014.1193-.4252.0874-.1238.2148-.2138.3607-.2548v-.4h-2.28v.4c.1459.041.2733.131.3607.2548.0874.1238.1295.274.1193.4252v9c.0102.1512-.0319.3014-.1193.4252-.0874.1238-.2148.2138-.3607.2548v.4H67v-.4c-.1459-.041-.2733-.131-.3607-.2548-.0874-.1238-.1295-.274-.1193-.4252V34h5.12v4.2c.0102.1512-.0319.3014-.1193.4252-.0874.1238-.2148.2138-.3607.2548v.4h2.28v-.4c-.1385-.0483-.2569-.1414-.3366-.2646-.0796-.1231-.116-.2693-.1034-.4154v-9.04zm11.44-7l-4-5.44 3.2-3.6c.2461-.334.5989-.5739 1-.68v-.4H83l-4.48 5.2v-4.08c-.0102-.1512.0319-.3014.1193-.4252.0874-.1238.2148-.2138.3607-.2548v-.4h-2.32v.4c.1459.041.2733.131.3607.2548.0874.1238.1295.274.1193.4252v9c.0102.1512-.0319.3014-.1193.4252-.0874.1238-.2148.2138-.3607.2548v.4H79v-.4c-.1459-.041-.2733-.131-.3607-.2548-.0874-.1238-.1295-.274-.1193-.4252V19l1.08-1.24 4 5.48h2v-.4c-.4181-.0951-.7958-.319-1.08-.64l-.08-.04zm-1.12 16l-4-5.44 3.2-3.6c.2461-.334.5989-.5739 1-.68v-.4h-1.68l-4.44 5.2v-4.08c-.0102-.1512.0319-.3014.1193-.4252.0874-.1238.2148-.2138.3607-.2548v-.4H75.6v.4c.1459.041.2733.131.3607.2548.0874.1238.1295.274.1193.4252v9c.0102.1512-.0319.3014-.1193.4252-.0874.1238-.2148.2138-.3607.2548v.4h2.28v-.4c-.1459-.041-.2733-.131-.3607-.2548-.0874-.1238-.1295-.274-.1193-.4252V35l1.08-1.24 4 5.48h2v-.4c-.4396-.0676-.8385-.2956-1.12-.64l-.04-.04zm-33.6-21.44c-.5345-.0086-1.069.0181-1.6.08v-3.52H52c.1512-.0102.3014.0319.4252.1193.1238.0874.2138.2148.2548.3607h.4v-1.68h-6.76v.4c.1408.0363.2651.1194.3523.2358.0873.1163.1323.2589.1277.4042v9c.0102.1512-.0319.3014-.1193.4252-.0874.1238-.2148.2138-.3607.2548v.4h3.48c2.84 0 4.32-1.12 4.32-3.2v-.12c0-2.12-1.48-3.16-4.4-3.16zm3 3.32c.0275.2905-.0206.5832-.1398.8496-.1192.2663-.3053.4973-.5402.6704-.7071.3906-1.5159.5579-2.32.48h-1.6v-4.12c.68 0 1.2-.08 1.6-.08.8038-.0724 1.611.0946 2.32.48.2287.1787.4102.4107.5287.6756.1185.2649.1705.5548.1513.8444v.2zm96.72 12.68c-.535-.0086-1.069.0181-1.6.08v-3.52h3.88c.151-.0102.301.0319.425.1193s.214.2148.255.3607h.4v-1.64h-6.76v.4c.141.0363.265.1194.352.2358.088.1163.133.2589.128.4042v9c.01.1512-.032.3014-.119.4252-.088.1238-.215.2138-.361.2548v.4h3.48c2.84 0 4.32-1.12 4.32-3.2V36c0-2.16-1.48-3.24-4.4-3.24v-.04zm3 3.36c.023.2958-.027.5929-.145.8649-.119.272-.302.5107-.535.6951-.707.3906-1.516.5579-2.32.48h-1.6V34c.68 0 1.2-.08 1.6-.08.804-.0724 1.611.0946 2.32.48.229.1787.41.4107.529.6756.118.2649.17.5548.151.8444v.16zm-67.92-8v1.64H85c.041-.1459.131-.2733.2548-.3607.1238-.0874.274-.1295.4252-.1193h2.12v8.96c.0103.1512-.0319.3014-.1193.4252-.0874.1238-.2148.2138-.3607.2548v.4h2.28v-.4c-.1459-.041-.2733-.131-.3607-.2548-.0874-.1238-.1295-.274-.1193-.4252v-8.92h2.16c.1512-.0102.3014.0319.4252.1193.1238.0874.2138.2148.2548.3607h.4v-1.64h-7.8l-.04-.04zm34.4 0v1.64h.4c.041-.1459.131-.2733.255-.3607.124-.0874.274-.1295.425-.1193h2.16v8.96c.01.1512-.032.3014-.119.4252-.088.1238-.215.2138-.361.2548v.4H124v-.4c-.146-.041-.273-.131-.361-.2548-.087-.1238-.129-.274-.119-.4252v-8.92h2.16c.151-.0102.301.0319.425.1193s.214.2148.255.3607h.4v-1.64l-7.84-.04zm21.32-.08h-1.6l-1.72.08v.4c.146.041.273.131.361.2548.087.1238.129.274.119.4252v9c.01.1512-.032.3014-.119.4252-.088.1238-.215.2138-.361.2548v.4h2.28v-.44c-.146-.041-.273-.131-.361-.2548-.087-.1238-.129-.274-.119-.4252v-3.4c.64 0 1.12.08 1.48.08 2.8 0 4.2-1.12 4.2-3.36v-.2c0-2.16-1.36-3.24-4.16-3.24zm2.88 3.44c.026.3197-.021.6411-.139.9393-.118.2983-.303.5654-.541.7807-.65.3899-1.404.5714-2.16.52l-1.48-.08v-4.4c.52 0 1-.08 1.48-.08.752-.0609 1.505.1064 2.16.48.236.19.422.4355.541.7146.119.2792.166.5833.139.8854v.24zM168 28h-1.6l-1.72.08v.4c.146.041.273.131.361.2548.087.1238.129.274.119.4252v9c.01.1512-.032.3014-.119.4252-.088.1238-.215.2138-.361.2548v.4h2.28v-.44c-.146-.041-.273-.131-.361-.2548-.087-.1238-.129-.274-.119-.4252v-3.4c.64 0 1.12.08 1.48.08 2.8 0 4.2-1.12 4.2-3.36v-.2c0-2.16-1.36-3.24-4.16-3.24zm2.84 3.44c.026.3197-.021.6411-.139.9393-.118.2983-.303.5654-.541.7807-.65.3899-1.404.5714-2.16.52l-1.48-.08v-4.4c.52 0 1-.08 1.48-.08.752-.0609 1.505.1064 2.16.48.236.19.422.4355.541.7146.119.2792.166.5833.139.8854v.24zm2.8-3.32v.4c.146.041.273.131.361.2548.087.1238.129.274.119.4252v9c.01.1512-.032.3014-.119.4252-.088.1238-.215.2138-.361.2548v.4h2.28v-.44c-.146-.041-.273-.131-.361-.2548-.087-.1238-.129-.274-.119-.4252v-8.88h3.52c.151-.0102.301.0319.425.1193s.214.2148.255.3607h.4v-1.64h-6.4z"/>
	<path fill="#C4122F" d="M37.5693 32.1091v.8857c0 1.6909-3.9454 3.0597-8.7766 3.0597-4.8311 0-8.7766-1.3688-8.7766-3.0597v-.8857h17.5532zM20.0161 38.9532c0-.2415 3.9455-.4831 8.7766-.4831 4.8312 0 8.7766.2416 8.7766.4831v.5637c0 .2415-3.9454.4831-8.7766.4831-4.8311-.0805-8.7766-.3221-8.7766-.5636v-.4832z"/>
	<linearGradient id="gr1" x1="25.5566" y1="21.0778" x2="35.4144" y2="11.2199" gradientUnits="userSpaceOnUse">
		<stop stop-color="#E11837"/>
		<stop offset="1" stop-color="#F15A22"/>
	</linearGradient>
	<path fill="url(#gr1)" d="M37.1668 20.6753c1.6104-4.5896-.8052-9.5818-5.3948-11.19218C30.9185 9.16909 30.0247 9 29.1148 9h-.6441c-3.4624.16104-6.6831 2.4156-7.9714 5.8779-1.6104 4.5896.8052 9.5818 5.3948 11.1922.8052.2416 1.6104.4026 2.4155.4831h1.0468c3.4623-.161 6.5221-2.4155 7.8104-5.8779z"/>
	<linearGradient id="gr2" x1="24.5407" y1="32.8905" x2="38.9823" y2="30.5009" gradientUnits="userSpaceOnUse">
		<stop stop-color="#E11837"/>
		<stop offset=".9843" stop-color="#F15A22"/>
	</linearGradient>
	<path fill="url(#gr2)" d="M28.7766 35.2413c4.8472 0 8.7766-1.3663 8.7766-3.0517 0-1.6854-3.9294-3.0517-8.7766-3.0517-4.8472 0-8.7766 1.3663-8.7766 3.0517 0 1.6854 3.9294 3.0517 8.7766 3.0517z"/>
</svg>
