<svg xmlns="http://www.w3.org/2000/svg" viewBox="0 0 200 50">
	<path fill="#00529C" d="M122.45 30.8384h23.414c0-3.1791-5.685-5.4411-12.532-5.4411H122.45v5.4411zM122.45 31.8164h23.414c0 3.3624-5.685 5.7467-12.532 5.7467H122.45v-5.7467zM94.6331 30.8384h23.4149c0-3.1791-5.686-5.4411-12.533-5.4411H94.6331v5.4411zM94.6331 31.8164h23.4149c0 3.3624-5.686 5.7467-12.533 5.7467H94.6331v-5.7467zM89.2533 30.8384H56.4236C55.69 30.227 53 28.0873 53 25.3973h36.2533v5.4411zM89.2532 31.8164H57.0349c2.8734 2.3843 9.7205 5.7467 16.5066 5.7467h15.7117v-5.7467zM147.087 18.6116H56.4236C55.69 19.2229 53 21.4238 53 24.1138h94.087v-5.5022zM147.087 17.6942H57.0349c2.8734-2.3231 9.7205-5.6244 16.5066-5.6244h73.4845v5.6244h.061zM58.5022 10.4192c-.4891.1834-.9782.2446-1.4062.2446-1.3449 0-2.8122-.91708-2.8122-3.30136C54.2838 5.16157 55.6288 4 57.3406 4c.4279 0 .7947.06114 1.2227.24454l-.0611 1.10044c-.3057-.12227-.6725-.24454-1.1005-.24454-1.2227 0-1.9563.91703-1.9563 2.262 0 1.58952.8559 2.20087 1.834 2.20087.4891 0 .8559-.12227 1.1616-.30567l.0612 1.16156zM63.332 4.12225l2.1397 6.48035H64.249l-.4891-1.46725h-2.262L61.07 10.6026h-1.1616l2.2009-6.48035h1.2227zm.1222 3.9738l-.7947-2.62882-.7336 2.62882h1.5283zM68.7117 4.12225c1.9564 0 2.0787 1.65066 2.0787 2.01747 0 .8559-.4891 2.01747-1.8952 2.01747h-.7337v2.44541h-1.1004V4.12225h1.6506zm0 2.99564c.6725 0 .9171-.55022.9171-1.03931 0-.55021-.3057-.97816-.9171-.97816h-.489v2.01747h.489zM77.7597 7.36242c0 2.32314-1.3449 3.30128-2.6899 3.30128-1.345 0-2.69-.97814-2.69-3.30128 0-2.32314 1.345-3.30131 2.69-3.30131s2.6899.91703 2.6899 3.30131zm-4.1572 0c0 2.20087 1.1005 2.38428 1.5284 2.38428.428 0 1.4673-.18341 1.4673-2.38428s-1.1005-2.38428-1.4673-2.38428c-.4279 0-1.5284.18341-1.5284 2.38428zM81.428 4.12225c1.0393 0 1.834.48909 1.834 1.58952 0 .97817-.489 1.34498-.8559 1.46725.6725.12227 1.1616.73362 1.1616 1.52838s-.3668 1.8341-2.1397 1.8341h-1.7118V4.12225h1.7118zm-.6725 2.62882h.5502c.7336 0 .8559-.55022.8559-.79476 0-.1834-.0611-.79476-.917-.79476h-.4891v1.58952zm0 2.81223h.6113c.6725 0 .9782-.42795.9782-.91703s-.1834-.91703-.9782-.91703h-.6113V9.5633zM88.9476 4.12225v1.16157h-2.3843V6.6288h.9171c1.5895 0 1.9563 1.28384 1.9563 2.0786 0 .67249-.3668 1.8952-1.9563 1.8952h-2.0175V4.12225h3.4847zM86.5633 9.5633h.6725c.6114 0 .9782-.30568.9782-.97817 0-.67248-.3668-.97816-.9782-.97816h-.6725V9.5633zM92.4933 4.12225v3.30131l-.0612 1.58952h.0612l.3668-.91703 1.8952-3.9738h1.3449v6.48035h-1.1004V5.71177l-.3668.97817-1.9563 3.91266h-1.2839V4.12225h1.1005zM98.8514 6.68993h.6725c.5501 0 .8561-.30567.8561-.85589 0-.36681-.184-.73363-.8561-.73363-.428 0-.7948.12227-1.2227.36681l-.1223-1.10043c.5502-.18341.9782-.30568 1.5895-.30568 1.2836 0 1.8336.67249 1.8336 1.65066 0 .67248-.305 1.28384-.917 1.46724.551.12227 1.101.61136 1.101 1.52839 0 1.8341-1.651 1.9563-2.201 1.9563-.6113 0-1.0393-.1834-1.5895-.3668l.0611-1.10042c.7336.36681 1.2227.42795 1.4673.42795.8561 0 1.0391-.48909 1.0391-.8559 0-.97816-.8557-.97816-1.0391-.97816h-.6725V6.68993zM104.843 4.12225v2.62882h2.201V4.12225h1.1v6.48035h-1.1V7.79037h-2.201v2.81223h-1.101V4.12225h1.101zM113.463 4.12225v1.16157h-2.14v1.46725h1.956v1.0393h-1.956v1.65066h2.14v1.16157h-3.24V4.12225h3.24zM119.393 10.4192c-.489.1834-.978.2446-1.406.2446-1.345 0-2.812-.91708-2.812-3.30136C115.175 5.16157 116.52 4 118.232 4c.428 0 .794.06114 1.222.24454l-.061 1.10044c-.306-.12227-.672-.24454-1.1-.24454-1.223 0-1.957.91703-1.957 2.262 0 1.58952.856 2.20087 1.896 2.20087.489 0 .855-.12227 1.1-.30567l.061 1.16156zM124.712 4.12225v1.16157h-2.385V6.6288h.918c1.589 0 1.956 1.28384 1.956 2.0786 0 .67249-.367 1.8952-1.956 1.8952h-2.018V4.12225h3.485zm-2.385 5.44105H123c.611 0 .978-.30568.978-.97817 0-.67248-.367-.97816-.978-.97816h-.673V9.5633zM130.153 4.12225l2.14 6.48035h-1.223l-.428-1.46725h-2.262l-.489 1.46725h-1.162l2.14-6.48035h1.284zm.122 3.9738l-.795-2.62882-.733 2.62882h1.528zM135.044 4.12225v2.62882h2.2V4.12225h1.101v6.48035h-1.101V7.79037h-2.2v2.81223h-1.101V4.12225h1.101zM141.524 4.12225v2.75109l1.956-2.75109h1.345l-2.262 2.9345 2.385 3.54585h-1.407l-2.017-3.24017v3.24017h-1.1V4.12225h1.1zM53.3666 44.4717c.4279.2445.9781.3668 1.3449.3668.6114 0 .8559-.428.8559-.7948 0-.6725-.6113-.8559-1.1004-1.1615-.7948-.4891-1.2838-.8559-1.2838-1.8341 0-.6725.3056-1.834 1.7118-1.834.489 0 1.0393.0611 1.5283.2445l-.1222 1.0393c-.3057-.1834-.7948-.3057-1.1616-.3057-.6725 0-.7948.428-.7948.6725 0 .4891.3668.7336.7337.917.917.4891 1.6506.8559 1.6506 2.1398 0 1.0393-.6725 1.8952-2.0786 1.8952-.5502 0-.9782-.1223-1.4061-.3057l.1223-1.0393zM61.2533 39.3973l2.1397 6.4804h-1.2227l-.4279-1.4673h-2.262l-.4891 1.4673h-1.1616l2.1397-6.4804h1.2839zm.1223 3.9738l-.7948-2.6899-.7336 2.6288h1.5284v.0611zM66.8166 39.3973c1.4672 0 1.834.9171 1.834 1.7729 0 1.0394-.6725 1.4062-1.0393 1.5284.2446.0612.428.3057.5502.6725l.8559 2.5066h-1.2227l-.6725-2.0786c-.1222-.3668-.3056-.6114-.6725-.6114h-.4279v2.69h-1.1616v-6.4804h1.9564zm-.8559 2.8122h.6113c.6725 0 .917-.489.917-.917 0-.1834-.0611-.8559-.917-.8559h-.6113v1.7729zM75.7423 42.6375c0 2.3232-1.3449 3.3013-2.6899 3.3013-1.345 0-2.69-.9781-2.69-3.3013 0-2.3843 1.345-3.3013 2.69-3.3013 1.4061 0 2.6899.9782 2.6899 3.3013zm-4.1572 0c0 2.2009 1.1005 2.3843 1.5284 2.3843.428 0 1.5284-.1834 1.5284-2.3843s-1.1004-2.3843-1.5284-2.3843c-.4279 0-1.5284.1834-1.5284 2.3843zM78.0045 39.3973l1.1615 4.2184.2446.9781h.0611l.1834-.9781 1.2227-4.2184h1.1005l-1.8952 6.4804h-1.345l-1.8952-6.4804h1.1616zM85.0349 39.3973c1.0393 0 1.8341.4891 1.8341 1.5895 0 .9782-.4891 1.345-.8559 1.4673.6725.1223 1.1615.7336 1.1615 1.5284 0 .7947-.3668 1.834-2.1397 1.834h-1.7118v-6.4192h1.7118zm-.6725 2.6288h.5502c.7337 0 .8559-.489.8559-.7947 0-.1834-.0611-.7948-.917-.7948h-.4891v1.5895zm0 2.8123h.6114c.6725 0 .9781-.428.9781-.9171 0-.489-.1834-.917-.9781-.917h-.6114v1.8341zM93.2271 43.4323c0 .917-.2445 2.5676-2.262 2.5676-.6725 0-2.262-.1222-2.262-2.5676v-4.035h1.1005v4.035c0 .489.0611 1.5283 1.1615 1.5283 1.1005 0 1.1616-1.0393 1.1616-1.5283v-4.035h1.1004v4.035zM94.8776 44.4717c.428.2445.9782.3668 1.345.3668.6114 0 .8559-.428.8559-.7948 0-.6725-.6114-.8559-1.1004-1.1615-.7948-.4891-1.2839-.8559-1.2839-1.8341 0-.6725.3057-1.834 1.7118-1.834.4891 0 1.0393.0611 1.5284.2445l-.0612 1.1616c-.3056-.1834-.7947-.3057-1.1615-.3057-.6725 0-.7948.4279-.7948.6725 0 .4891.3668.7336.7336.917.9171.4891 1.6507.8559 1.6507 2.1397 0 1.0393-.6725 1.8952-2.0786 1.8952-.5502 0-.9782-.1222-1.4061-.3056l.0611-1.1616zM99.7684 39.3973h1.1006v6.4804h-1.1006v-6.4804zM103.987 39.3973l1.895 4.0961.306.8559v-4.952h1.1v6.4804h-1.467l-1.895-4.2184-.245-.7336h-.061l.061 1.1616v3.7904h-1.1v-6.4804h1.406zM112.179 39.3973v1.1616h-2.14v1.4672h1.957v1.0393h-1.957v1.6507h2.14v1.1616h-3.24v-6.4804h3.24zM113.707 44.4717c.428.2445.978.3668 1.345.3668.612 0 .856-.428.856-.7948 0-.6725-.611-.8559-1.1-1.1615-.795-.4891-1.284-.8559-1.284-1.8341 0-.6725.306-1.834 1.712-1.834.489 0 1.039.0611 1.528.2445l-.122 1.0393c-.306-.1834-.795-.3057-1.162-.3057-.672 0-.795.428-.795.6725 0 .4891.367.7336.734.917.917.4891 1.651.8559 1.651 2.1398 0 1.0393-.673 1.8952-2.079 1.8952-.55 0-.978-.1223-1.406-.3057l.122-1.0393zM118.537 44.4717c.428.2445.978.3668 1.345.3668.611 0 .856-.428.856-.7948 0-.6725-.611-.8559-1.101-1.1615-.794-.4891-1.283-.8559-1.283-1.8341 0-.6725.305-1.834 1.711-1.834.49 0 1.04.0611 1.529.2445l-.122 1.0393c-.306-.1834-.795-.3057-1.162-.3057-.673 0-.795.428-.795.6725 0 .4891.367.7336.734.917.917.4891 1.65.8559 1.65 2.1398 0 1.0393-.672 1.8952-2.078 1.8952-.55 0-.978-.1223-1.406-.3057l.122-1.0393zM125.201 39.3973c1.039 0 1.834.4891 1.834 1.5895 0 .9782-.489 1.345-.917 1.4673.673.1223 1.162.7336 1.162 1.5284 0 .7947-.367 1.834-2.14 1.834h-1.712v-6.4192h1.773zm-.672 2.6288h.55c.733 0 .856-.489.856-.7947 0-.1834-.061-.7948-.917-.7948h-.489v1.5895zm0 2.8123h.611c.672 0 .978-.428.978-.9171 0-.489-.183-.917-.978-.917h-.611v1.8341zM131.865 39.3973l2.139 6.4804h-1.222l-.489-1.4673h-2.262l-.489 1.4673h-1.101l2.201-6.4804h1.223zm.122 3.9738l-.795-2.6288-.733 2.6288h1.528zM136.694 39.3973l1.895 4.0961.306.8559v-4.952h1.101v6.4804h-1.468l-1.895-4.2184-.244-.7336v4.952h-1.101v-6.4804h1.406zM142.747 39.3973v2.7511h.061l1.956-2.7511h1.284l-2.262 2.9345 2.445 3.5459h-1.406l-2.017-3.2402h-.061v3.2402h-1.101v-6.4804h1.101z"/>
</svg>
