<svg xmlns="http://www.w3.org/2000/svg" viewBox="0 0 200 50">
	<path fill="#960F05" d="M32.0884 20.322c.1476.2828.2313.6113.2313.9405 0 .9548-.8446 1.9264-2.2572 1.9264h-.0079l-.0015.0014h-2.3373c1.0363-.8866 1.6854-2.1519 1.6861-3.6898-.0014-3.0566-2.5436-5.1163-6.5999-5.1163-.0408 0-.0736.0099-.1166.0115v2.1391c1.7755.1574 2.8406 1.4156 2.8406 2.9378 0 1.8335-1.4867 3.6934-3.8198 3.7177h-2.4727c1.1981-1.0254 1.9424-2.4931 1.9431-4.2732C21.1746 15.381 18.2338 13 13.539 13c-.048 0-.0853.0074-.1344.0088v2.421c2.0509.1831 3.4787 1.6225 3.4787 3.3815 0 2.5708-2.2486 4.3463-4.9482 4.379H9.99988v2.8748l1.85792.0016c2.7339-.0016 5.0255 1.782 5.0255 4.3791 0 1.7606-1.4278 3.2018-3.4787 3.3836v2.4212c.0491.0014.0864.0079.1344.0079 4.6948 0 7.6356-2.3796 7.6376-5.9207-.0007-1.7799-.7479-3.2483-1.9503-4.2741h2.4318c2.3613 0 3.8679 1.8774 3.8679 3.7236 0 1.5196-1.0651 2.7791-2.8406 2.938v2.1406c.043 0 .0758.0086.1166.0086 4.0563 0 6.5985-2.0597 6.5999-5.1163-.0007-1.5408-.6527-2.8077-1.6934-3.6958l2.3446.0013h.0094c1.4126 0 2.2572.9691 2.2572 1.9262 0 .3283-.0837.6589-.2313.9424 3.5278-.6793 6.0647-4.3048 6.0662-4.3048-.0015 0-2.5384-3.624-6.0662-4.3055z"/>
	<path fill="#000" d="M181.592 20.5505v5.4994l4.576-5.4994H190l-5.141 5.8256c1.826.2712 2.944 1.6896 3.843 3.8109.406 1.005.896 2.3532 1.217 3.6213h-3.553c-.126-.6506-.39-1.5507-.881-2.8327-.732-1.8227-1.738-2.6937-3.454-2.6937h-.439v5.5264h-3.344V20.5505h3.344zm-14.805 0v5.0642h5.115v-5.0642h3.35v13.2578h-3.35v-5.582h-5.115v5.582h-3.349V20.5505h3.349zm-28.376 10.8067c.489.083 1.091.1102 1.77.1102 1.227 0 2.423-.3831 3.21-1.143.575-.602.957-1.3904.957-2.3975 0-1.1687-.49-1.9575-1.226-2.502-.818-.6283-1.959-.8739-3.048-.8739-.52 0-1.117.0567-1.663.1089v6.6973zm8.001-15.8994v2.7504h-8.001v3.9499c.599-.0824 1.579-.1382 2.26-.1382 1.795 0 3.62.4358 4.952 1.3876 1.334.8995 2.235 2.3702 2.235 4.4384 0 1.77-.625 3.1297-1.662 4.0839-1.631 1.4956-4.327 2.0718-6.996 2.0718-1.879 0-3.238-.1383-4.107-.2484V15.4578h11.319zm-29.281 12.7976c0 .3257.026.6263.081.924.354 1.3619 1.522 2.3409 2.967 2.3409 2.125 0 3.376-1.7664 3.376-4.3827 0-2.341-1.143-4.2462-3.293-4.2462-1.389 0-2.67 1.0048-3.023 2.4779-.058.2725-.108.5715-.108.8428v2.0433zm-3.348-7.7049h3.398v2.0434c.983-1.4987 2.182-2.344 4.198-2.344 3.047 0 5.577 2.6144 5.577 6.7524 0 4.7928-3.021 7.1051-6.041 7.1051-1.66 0-3.051-.7085-3.734-1.7697V39.2h-3.398V20.5505zm-5.316 5.2272c.026-1.2267-.52-3.241-2.751-3.241-2.069 0-2.939 1.8806-3.075 3.241h5.826zm-5.826 2.3409c.083 2.3926 1.932 3.4317 4.083 3.4317 1.55 0 2.64-.2505 3.676-.601l.49 2.2887c-1.146.4909-2.725.8422-4.63.8422-4.301 0-6.8301-2.64-6.8301-6.6985 0-3.6714 2.2291-7.1318 6.4781-7.1318 4.301 0 5.717 3.5405 5.717 6.4532 0 .6248-.052 1.113-.111 1.4155h-8.873zm-11.3154-5.1978c-1.1151 0-1.9316.5963-2.3947 1.4114-.4336.7129-.6813 1.6086-.6813 2.6967 0 1.96.9004 4.6554 3.1597 4.6554 2.2608 0 3.0767-2.258 3.0767-4.4086 0-1.9345-.7327-4.3549-3.1604-4.3549zm5.067-6.0473c-.7373.2453-2.0439.4387-2.968.5461-2.0468.2725-3.5003.8631-4.4413 2.0682-1.2518 1.6033-1.3347 3.7867-1.3347 3.7867.8487-1.6882 2.5619-2.724 4.4658-2.724 3.4623 0 5.8048 2.5035 5.8048 6.5871 0 4.3026-2.588 6.9698-6.5099 6.9698-4.6568 0-6.6157-4.0307-6.6157-8.7933 0-3.2678.7873-5.9066 2.4762-7.7328 1.304-1.5788 3.1304-2.3924 5.6382-2.7461 1.168-.1674 2.7201-.3543 3.6462-.6277l-.1616 2.666zm-22.0154 3.677l3.2117 9.4391 2.779-9.4391h3.5613l-3.3172 9.0353c-1.8277 4.956-3.0488 7.1617-4.6019 8.5216-1.3354 1.145-2.698 1.5822-3.5138 1.6882l-.7624-2.8012c.5706-.138 1.2502-.4359 1.9323-.9253.6543-.4101 1.3899-1.2003 1.8531-2.0976.1373-.2426.1911-.4359.1911-.5976 0-.1359-.0266-.3278-.1634-.6543l-4.8737-12.1691h3.7039zM45.219 16.5664c1.2524-.7887 3.0216-1.442 5.3074-1.442 3.6506 0 5.9357 1.8515 5.9357 4.6003 0 2.2887-1.3583 3.9962-3.7301 4.4671 2.3862.2964 4.358 1.9323 4.383 4.4609 0 3.9755-3.7559 5.4477-7.1303 5.4477-1.7977 0-3.7028-.3802-5.2022-1.2553l.7635-2.5852c.9254.4925 2.6946 1.1166 4.3013 1.1166 2.3695 0 3.7573-1.1416 3.7573-2.9128 0-2.3396-2.3689-2.9113-4.3821-2.9113h-1.4443v-2.5063h1.4443c2.1233 0 3.7559-1.1436 3.7559-2.8034 0-1.4963-1.1444-2.3945-3.0229-2.3945-1.3871 0-2.9129.5697-3.9184 1.1165l-.8181-2.3983zm112.037 10.7887c-2.368-.0301-4.627.4624-4.627 2.4762 0 1.3054.845 1.9064 1.906 1.9064 1.36 0 2.316-.8714 2.642-1.8246.079-.2441.079-.4896.079-.7337v-1.8243zm3.267 6.4784h-3.048v-1.4694s-.936 1.7683-4.001 1.7683c-2.67 0-4.164-1.9315-4.164-3.9454 0-3.3242 2.964-5.0375 7.867-5.0124v-.2169c0-.8696-.356-2.3118-2.697-2.3118-1.307 0-2.666.4052-3.566.9799l-.653-2.1792c.98-.5967 2.695-1.1688 4.792-1.1688 4.247 0 5.47 2.6925 5.47 5.6067v7.949zm-93.942-6.4948c-2.3672-.0286-4.6274.4631-4.6274 2.479 0 1.3041.8452 1.9036 1.9065 1.9036 1.3614 0 2.3152-.8708 2.6408-1.8241.0801-.2455.0801-.491.0801-.7349v-1.8236zm3.2672 6.4782h-3.0489v-1.4701s-.9365 1.7707-4.0005 1.7707c-2.6694 0-4.1644-1.9337-4.1644-3.9485 0-3.3199 2.9642-5.0331 7.8665-5.0096v-.2169c0-.8708-.3542-2.313-2.6951-2.313-1.3077 0-2.6682.4067-3.5669.9805l-.6527-2.1784c.9796-.5968 2.6953-1.1687 4.7912-1.1687 4.2479 0 5.4708 2.6939 5.4708 5.6043v7.9497z"/>
</svg>
