<svg xmlns="http://www.w3.org/2000/svg" viewBox="0 0 200 50">
	<g fill="#21a038">
		<path d="M90.5 19.5l3.8-2.8H81.7v16.6h12.6v-2.8h-9v-4.2h7.6v-2.8h-7.6v-4zM74.8 19.5l3.8-2.8H64.2v16.6h7.5c4.2 0 6.6-1.9 6.6-5.2 0-3.2-2.2-4.9-6.2-4.9h-4.4v-3.7h7.1zm-3.2 6.4c2.3 0 3.3.8 3.3 2.3 0 1.5-1.1 2.3-3.3 2.3h-3.8v-4.6h3.8zM104.4 16.7h-6.8v16.6h3.6v-4.7h3.3c4.4 0 7.1-2.3 7.1-6s-2.8-5.9-7.2-5.9zm0 9.1h-3.2v-6.4h3.2c2.3 0 3.6 1.1 3.6 3.2-.1 2.1-1.3 3.2-3.6 3.2zM58.1 29.7c-1 .5-2 .8-3.1.8-3.2 0-5.6-2.3-5.6-5.5s2.3-5.5 5.6-5.5c1.2 0 2.3.4 3.3 1l2.6-1.9-.2-.2c-1.5-1.3-3.5-2-5.8-2-2.5 0-4.7.8-6.4 2.4-1.6 1.6-2.6 3.8-2.5 6.1 0 2.3.9 4.5 2.5 6.2 1.7 1.6 4 2.5 6.3 2.4 2.6 0 4.8-.9 6.4-2.5l-2.3-1.7-.8.4zM166 23.5h-7.7v-6.8h-3.6v16.6h3.6v-6.8h7.7v6.8h3.6V16.7H166zM141.7 16.7l-7.2 16.6h3.6l1.4-3.3h7.6l1.4 3.3h3.8l-7-16.6h-3.6zm-1 10.5l2.8-6.7 2.6 6.7h-5.4zM182.6 24.7l6.5-8H185l-5.4 7.1h-2v-7.1H174v16.6h3.6v-6.7h2.3l5.5 6.7h4.6zM127 23.2h-4.4v-3.7h9.4v-2.8h-13v16.6h7.5c4.2 0 6.6-1.9 6.6-5.2.1-3.2-2.1-4.9-6.1-4.9zm-.6 7.4h-3.8V26h3.8c2.3 0 3.3.8 3.3 2.3.1 1.5-1.1 2.3-3.3 2.3z"/>
		<path d="M34.7 16.6c.7.8 1.2 1.8 1.7 2.7l-12.6 9.3-5.3-3.3v-4l5.3 3.3 10.9-8zM37.4 22.6l-3 2.2v.3c0 3.1-1.3 5.9-3.5 7.8l2.1 2.4c2.8-2.5 4.6-6.2 4.6-10.2 0-.9-.1-1.7-.2-2.5z"/>
	</g>
	<linearGradient id="gr1" gradientUnits="userSpaceOnUse" x1="23.4605" y1="37.5748" x2="31.4762" y2="34.7155">
		<stop offset=".1226" stop-color="#a3cd39"/>
		<stop offset=".2846" stop-color="#86c339"/>
		<stop offset=".8693" stop-color="#21a038"/>
	</linearGradient>
	<path d="M31.3 32.5c-1.9 1.9-4.6 3.1-7.5 3.1h-.5l-.2 3.2h.7c3.8 0 7.3-1.6 9.8-4.1l-2.3-2.2z" fill="url(#gr1)"/>
	<linearGradient id="gr2" gradientUnits="userSpaceOnUse" x1="13.9017" y1="34.0019" x2="23.2299" y2="36.8144">
		<stop offset=".1324" stop-color="#f2e913"/>
		<stop offset=".2977" stop-color="#ebe716"/>
		<stop offset=".5306" stop-color="#d9e01f"/>
		<stop offset=".8023" stop-color="#bbd62d"/>
		<stop offset=".9829" stop-color="#a3cd39"/>
	</linearGradient>
	<path d="M23.8 35.7c-3.1 0-5.9-1.4-7.9-3.5l-2.4 2.1c2.5 2.8 6.2 4.6 10.3 4.6v-3.2z" fill="url(#gr2)"/>
	<linearGradient id="gr3" gradientUnits="userSpaceOnUse" x1="14.1378" y1="34.0872" x2="12.2159" y2="25.4153">
		<stop offset=".1444" stop-color="#f2e913"/>
		<stop offset=".3037" stop-color="#e7e518"/>
		<stop offset=".5823" stop-color="#cadb26"/>
		<stop offset=".891" stop-color="#a3cd39"/>
	</linearGradient>
	<path d="M16.3 32.5c-1.9-1.9-3.1-4.6-3.1-7.5v-.6l-3.2-.1v.7c0 3.8 1.5 7.3 4 9.8l2.3-2.3z" fill="url(#gr3)"/>
	<linearGradient id="gr4" gradientUnits="userSpaceOnUse" x1="11.7582" y1="25.8144" x2="14.5238" y2="15.8769">
		<stop offset=".0698" stop-color="#a3cd39"/>
		<stop offset=".2599" stop-color="#81c55f"/>
		<stop offset=".9216" stop-color="#0fa8e0"/>
	</linearGradient>
	<path d="M13.2 25c0-3.1 1.4-5.9 3.5-7.9l-2.2-2.3C11.7 17.3 10 21 10 25h3.2z" fill="url(#gr4)"/>
	<linearGradient id="gr5" gradientUnits="userSpaceOnUse" x1="14.312" y1="15.5178" x2="24.1558" y2="13.3616">
		<stop offset=".0592" stop-color="#0fa8e0"/>
		<stop offset=".5385" stop-color="#0099f9"/>
		<stop offset=".9234" stop-color="#0291eb"/>
	</linearGradient>
	<path d="M16.1 17.7c1.9-2 4.7-3.3 7.7-3.3h.5l.2-3.2h-.7c-3.9 0-7.4 1.6-10 4.3l2.3 2.2z" fill="url(#gr5)"/>
	<linearGradient id="gr6" gradientUnits="userSpaceOnUse" x1="23.027" y1="12.8237" x2="32.2145" y2="14.6987">
		<stop offset=".0566" stop-color="#0291eb"/>
		<stop offset=".79" stop-color="#0c8acb"/>
	</linearGradient>
	<path d="M23.8 14.4c2.2 0 4.3.7 6 1.9l2.7-2c-2.4-1.9-5.4-3.1-8.7-3.1v3.2z" fill="url(#gr6)"/>
</svg>