<svg xmlns="http://www.w3.org/2000/svg" viewBox="0 0 200 50">
	<g fill="#1A9F29">
		<path d="M59.31 28.84c.7214.7675 1.6067 1.3622 2.59 1.74 1.1933.4542 2.4636.6716 3.74.64.72 0 1.4-.08 2-.13.5536-.0646 1.0954-.2059 1.61-.42.4546-.1294.8964-.3002 1.32-.51.34-.21.72-.34 1-.51L71 28.58c-.3.13-.55.3-.85.42-.3.12-.55.21-.93.34-.3568.1142-.7262.1848-1.1.21-.4931.073-.9919.0998-1.49.08-.9196.0534-1.8344-.1658-2.63-.63-.6559-.4025-1.2075-.9541-1.61-1.61-.3785-.776-.6349-1.6057-.76-2.46-.1392-1.0275-.2094-2.0631-.21-3.1 0-.85.08-1.74.13-2.68.0397-.8301.258-1.6419.64-2.38.3048-.7046.7914-1.3154 1.41-1.77.7592-.4888 1.6472-.7395 2.55-.72.9061-.0016 1.7927.2626 2.55.76.3684.2929.6735.6575.897 1.0718.2234.4142.3605.8695.403 1.3382h1.1V14c-.34-.13-.72-.3-1.1-.42-.434-.1248-.8747-.2249-1.32-.3-.51-.08-.93-.08-1.4-.13-.47-.05-.85-.08-1.19-.08-1.3612-.0322-2.7168.1847-4 .64-1.0162.4071-1.9309 1.0317-2.68 1.83-.731.829-1.2553 1.8194-1.53 2.89-.3534 1.2591-.5252 2.5623-.51 3.87-.0365 1.2367.1359 2.4707.51 3.65.1615 1.0754.6343 2.0801 1.36 2.89h.07zM128 30.66c.822-.0711 1.62-.3165 2.34-.72.728-.3832 1.311-.9943 1.66-1.74.47-.9775.69-2.0565.64-3.14.027-.8399-.116-1.6766-.42-2.46-.288-.6696-.743-1.2547-1.32-1.7-.736-.4497-1.55-.7551-2.4-.9-1.176-.2238-2.373-.3243-3.57-.3h-1.49v-4.2c0-.42.08-.72.3-.85.352-.1285.728-.173 1.1-.13H127c.538-.0215 1.077.0052 1.61.08.359.016.706.1339 1 .34.294.2128.517.5089.64.85.197.487.367.9844.51 1.49h.93v-3.86h-12.96V14c.08 0 .13.08.34.08.152.0437.294.1149.42.21.095.126.166.2683.21.42 0 .21.08.42.08.72v13.45c.023.2429-.004.4881-.08.72.005.0823-.012.1644-.049.2381-.037.0737-.092.1364-.161.1819-.052.0623-.115.1132-.188.1494-.072.0362-.151.0568-.232.0606-.107.0499-.222.0772-.34.08v.55h6.54c.94-.07 1.87-.07 2.73-.2zm-4.29-1.27c-.068-.0664-.121-.1458-.157-.2334-.036-.0877-.054-.1818-.053-.2766 0-.21-.08-.51-.08-.85v-7.31h1.49c.531-.056 1.067.0104 1.568.1942.501.1837.953.4799 1.322.8658.639.9985.938 2.1775.85 3.36.032.8308-.069 1.6613-.3 2.46-.137.5208-.398 1.001-.76 1.4-.313.2741-.672.4908-1.06.64-.418.085-.843.1286-1.27.13-.42-.08-.76-.08-1-.13-.2-.0397-.388-.1253-.55-.25zm-14.19.85c-.08 0-.13-.08-.34-.08-.162-.0224-.312-.0971-.427-.2126-.116-.1155-.191-.2656-.213-.4274 0-.21-.08-.42-.08-.72V24h1.74c.867-.0032 1.733-.0734 2.59-.21.778-.1277 1.527-.3954 2.21-.79.644-.4183 1.16-1.0067 1.49-1.7.39-.9121.578-1.8982.55-2.89.021-.9193-.153-1.8327-.51-2.68-.327-.6221-.809-1.1491-1.4-1.53-.614-.3525-1.296-.5706-2-.64-.79-.088-1.585-.1314-2.38-.13h-6.88V14c.08 0 .13.08.34.08.152.0437.294.1149.42.21.095.126.166.2683.21.42 0 .21.08.42.08.72V28.8c.023.2429-.004.4881-.08.72.005.0823-.012.1644-.049.2381-.037.0737-.092.1364-.161.1819-.052.0623-.115.1132-.188.1494-.072.0362-.151.0568-.232.0606-.107.0499-.222.0772-.34.08v.55h5.69v-.55l-.04.01zm-1-14.83c-.014-.1447.014-.2904.08-.42.016-.1097.061-.2132.13-.3.058-.0489.125-.0856.197-.1079.072-.0224.148-.0299.223-.0221.21 0 .42-.08.76-.08s.85.08 1.27.13c.398.1293.76.3483 1.06.64.308.3516.551.7543.72 1.19.146.5989.216 1.2137.21 1.83.068 1.1557-.152 2.3101-.64 3.36-.226.3894-.556.7074-.954.9178-.398.2105-.847.3048-1.296.2722h-1.74v-7.39l-.02-.02zm-6.99 11.39h-1.1c-.103.5457-.243 1.0836-.42 1.61-.0856.3583-.2773.6824-.55.93-.1356.1205-.2939.2126-.4656.271-.1718.0584-.3535.0819-.5344.069-.5765.0782-1.1588.105-1.74.08-.538.0271-1.0774.0003-1.61-.08-.3286-.0287-.6466-.1312-.93-.3-.0991-.0548-.1824-.1342-.242-.2305-.0595-.0963-.0933-.2064-.098-.3195-.0769-.3274-.1038-.6645-.08-1v-5.49h3.06c.3 0 .55.08.85.08.2861.0225.5702.0659.85.13.2586.0477.504.15.72.3V20.6c-.2251.1326-.4674.2336-.72.3-.2754.0848-.5618.1286-.85.13-.2778.0686-.5643.0956-.85.08h-3.06v-5.78c.0041-.2585.0479-.5148.13-.76.13-.13.34-.13.72-.13h1.91c.538-.0215 1.0768.0052 1.61.08.3589.016.7057.1339 1 .34.2937.2128.5166.5089.64.85.1971.487.367.9844.51 1.49h.93v-3.74H89.13V14c.08 0 .13.08.34.08.1517.0437.294.1149.42.21.0951.126.1663.2683.21.42 0 .21.08.42.08.72V28.8c.0233.2429-.004.4881-.08.72.0049.0823-.0119.1644-.0488.2381-.0369.0737-.0924.1364-.1612.1819-.0515.0623-.1155.1132-.1878.1494-.0723.0362-.1514.0568-.2322.0606-.1066.0499-.2224.0772-.34.08v.55h12.53c-.13-.07-.13-3.98-.13-3.98zm-19.12 3.86c.8223-.0711 1.62-.3165 2.34-.72.7166-.4117 1.3051-1.014 1.7-1.74.47-.9775.6899-2.0565.64-3.14.0271-.8399-.1158-1.6766-.42-2.46-.2884-.6696-.7427-1.2547-1.32-1.7-.7204-.4438-1.5174-.749-2.35-.9-1.1763-.2238-2.3728-.3243-3.57-.3h-1.56v-4.2c0-.42.08-.72.3-.85.3515-.1285.7282-.173 1.1-.13h2.12c.538-.0215 1.0768.0052 1.61.08.3589.016.7057.1339 1 .34.2937.2128.5166.5089.64.85.1971.487.3674.9844.51 1.49h.93v-3.86h-13V14c.08 0 .13.08.34.08.1517.0437.294.1149.42.21.0951.126.1663.2683.21.42 0 .21.08.42.08.72V28.8c.0203.2429-.0069.4875-.08.72.0049.0823-.0119.1644-.0488.2381-.0369.0737-.0925.1364-.1612.1819-.0515.0623-.1155.1132-.1878.1494-.0723.0362-.1514.0568-.2322.0606-.1066.0499-.2224.0772-.34.08v.64h6.54c1.05-.08 1.9-.08 2.79-.21zm-4.29-1.27c-.0677-.0664-.1213-.1458-.1573-.2334-.0361-.0877-.0541-.1818-.0527-.2766 0-.21-.08-.51-.08-.85v-7.31h1.49c.5307-.056 1.0672.0104 1.5682.1942.501.1837.9532.4799 1.3218.8658.6394.9985.9376 2.1775.85 3.36.0321.8308-.0692 1.6613-.3 2.46-.1374.5208-.3981 1.001-.76 1.4-.3129.2741-.6717.4908-1.06.64-.418.085-.8434.1286-1.27.13-.42-.08-.72-.08-1-.13-.2029-.0309-.3933-.1174-.55-.25zm-20.81 6.33h127.44v1.7H57.31v-1.7zm117.28-11.47c.302.4629.636.904 1 1.32.3.42.64.85.93 1.27.282.443.593.8672.93 1.27.34.51.64.93.93 1.4.264.4267.504.8673.72 1.32l5.9.08c-.64-.64-1.19-1.27-1.83-1.91-.64-.64-1.06-1.19-1.4-1.53-.55-.64-1.06-1.19-1.49-1.7-.43-.51-.93-1.06-1.32-1.53s-.85-1.06-1.19-1.53c-.34-.47-.76-1.1-1.1-1.7l.3-.34c.42-.55.93-1.1 1.49-1.83.535-.7044 1.116-1.3726 1.74-2 .64-.72 1.19-1.32 1.83-1.91.509-.4723 1.047-.9131 1.61-1.32h-4.08c-.179.4399-.393.8646-.64 1.27-.296.5592-.63 1.0972-1 1.61-.34.55-.76 1.19-1.1 1.83-.34.64-.76 1.19-1.19 1.74-.43.55-.76 1.1-1.1 1.53-.34.43-.64.85-.85 1.19.208.5447.509 1.049.89 1.49l.02-.02z"/>
		<path d="M174.08 30.24c-.08 0-.13-.08-.34-.08-.162-.0224-.312-.0971-.427-.2126-.116-.1155-.191-.2656-.213-.4274 0-.21-.08-.42-.08-.72V15.46c-.023-.2429.004-.4881.08-.72-.005-.0823.012-.1644.049-.2381.037-.0737.092-.1365.161-.1819.126-.0951.268-.1663.42-.21.107-.0499.222-.0772.34-.08v-.64h-5.69v.55c.08 0 .13.08.34.08.152.0437.294.1149.42.21.095.126.166.2683.21.42 0 .21.08.42.08.72v13.34c.023.2429-.004.4881-.08.72.005.0823-.012.1644-.049.2381-.037.0737-.092.1365-.161.1819-.051.0623-.115.1132-.188.1494-.072.0362-.151.0568-.232.0606-.107.0499-.222.0772-.34.08v.55h5.69l.01-.45zm-37.81-1.57c.21-1 .64-2.38 1.19-4.16H143l.76 2.25c.316.8301.57 1.6824.76 2.55.176.494.29 1.0079.34 1.53h4.42c-.21-.34-.42-.85-.72-1.4-.403-.7899-.738-1.6129-1-2.46l-4-11.38c-.171-.4056-.286-.833-.34-1.27 0-.34-.08-.64-.13-.85h-5V14c.08 0 .13.08.34.08.152.0437.294.1149.42.21.095.126.166.2683.21.42v.34c.008.3773-.064.7521-.21 1.1l-2.8 6.88c-.51 1.27-1 2.38-1.32 3.23-.32.85-.72 1.61-.93 2.17-.21.56-.51 1.06-.72 1.4-.21.34-.34.64-.51.93h3.14c.219-.694.389-1.4024.51-2.12l.05.03zm4-12.36l2.34 7h-4.8l2.46-7zM156 30.24h-.13c-.08 0-.13-.08-.34-.08-.162-.0224-.312-.0971-.427-.2126-.116-.1155-.191-.2656-.213-.4274 0-.21-.08-.42-.08-.72v-6.67h6.75v6.63c.023.2429-.004.4881-.08.72.005.0823-.012.1644-.049.2381-.037.0737-.092.1364-.161.1819-.051.0623-.115.1132-.188.1494-.072.0362-.151.0568-.232.0606-.107.0499-.222.0772-.34.08v.55h5.69v-.54c-.08 0-.13-.08-.34-.08-.162-.0224-.312-.0971-.427-.2126-.116-.1155-.191-.2656-.213-.4274 0-.21-.08-.42-.08-.72V15.33c-.023-.2429.004-.4881.08-.72-.005-.0823.012-.1644.049-.2381.037-.0737.092-.1365.161-.1819.126-.0951.268-.1663.42-.21.107-.0499.222-.0772.34-.08v-.51h-5.56v.55c.08 0 .13.08.34.08.152.0437.294.1149.42.21.095.126.166.2683.21.42 0 .21.08.42.08.72v5.56H155v-5.52c-.023-.2429.004-.4881.08-.72-.005-.0823.012-.1644.049-.2381.037-.0737.092-.1365.161-.1819.126-.0951.268-.1663.42-.21.092-.0368.191-.0571.29-.06v-.55h-5.69V14c.08 0 .13.08.34.08.152.0437.294.1149.42.21.095.126.166.2683.21.42 0 .21.08.42.08.72v13.45c.02.2429-.007.4875-.08.72.005.0823-.012.1644-.049.2381-.037.0737-.092.1365-.161.1819-.051.0623-.115.1132-.188.1494-.072.0362-.151.0568-.232.0606-.107.0499-.222.0772-.34.08v.55H156v-.62zm-110.32-15c-.34-.51-.72-1-1.06-1.49L25.19 25l-9.43-5.44c-.2002.5946-.3409 1.2076-.42 1.83l9.9 5.69 20.44-11.84z"/>
		<path d="M25.19 29.18l-10.11-5.82c-.0685.3624-.0953.7315-.08 1.1-.0546 2.2321.3379 4.4525 1.1544 6.5307.8165 2.0781 2.0405 3.9719 3.5999 5.5698 1.5593 1.598 3.4227 2.8679 5.4802 3.7349 2.0575.8671 4.2677 1.3137 6.5005 1.3137s4.443-.4466 6.5005-1.3137c2.0575-.867 3.9208-2.1369 5.4802-3.7349 1.5594-1.5979 2.7834-3.4917 3.5999-5.5698.8165-2.0782 1.209-4.2986 1.1544-6.5307.0191-2.6447-.6091-5.2539-1.83-7.6L25.19 29.18z"/>
		<path d="M43.33 12.36c-.51-.51-1-.85-1.49-1.27l-16.65 9.63-8-4.55c-.3.51-.55 1.06-.85 1.61l8.79 5.05 18.2-10.47z"/>
		<path d="M40.15 10c-.6437-.37746-1.3118-.71153-2-1l-13 7.52-5.82-3.31c-.42.42-.76.93-1.19 1.4l7 4L40.15 10z"/>
	</g>
</svg>
