<svg xmlns="http://www.w3.org/2000/svg" viewBox="0 0 200 50">
	<path fill="#1b0a40" d="M132.2 18.6v12.9h4.5v-9.1h4.3v9.1h4.4V18.6zM123.8 17.9h4.1l2.1-3.8h-6.6c-4.8.1-8 4.2-8 9.3 0 6 3.4 8.4 7.5 8.4 4.2 0 7.3-2.7 7.2-6.4-.1-2.9-2.5-5.7-5.7-5.7-1.8 0-3.5.6-4.6 1.7.1-2.1 1.9-3.5 4-3.5zm-1.1 5.1c1.6 0 2.7 1.3 2.7 2.8 0 1.5-1.2 2.7-2.8 2.7-1.2 0-2.6-1.1-2.6-2.7 0-1.5 1.2-2.8 2.7-2.8zM108.3 22c1.9-.1 3.5 1 3.5 1l1.7-3c-1.5-1.1-3-1.7-5-1.7-4.4 0-7.5 3.6-7.5 6.7 0 3.7 3.3 6.8 7.4 6.8 1.8 0 3.6-.6 5-1.7l-1.6-3.1s-1.5 1-3.5 1c-1.3 0-3-1.1-3-3s1.7-3 3-3z"/>
	<path fill="#874691" d="M65.5 25L59 28.8l-6 10.5L77.7 25H65.5z"/>
	<path fill="#da1844" d="M84.2 14.2L77.7 18l-6.1 10.5 24.7-14.3H84.2z"/>
	<path fill="#f9b229" d="M77.7 10.5L71.6 0v50l6.1-10.5v-29z"/>
	<path fill="#f07f1a" d="M71.6 0l6.1 10.5 6.5 3.7h12.2L71.6 0z"/>
	<path fill="#72b22c" d="M71.6 21.5V50l6.1-10.5V32l-6.1-10.5z"/>
	<path fill="#00743e" d="M84.2 35.8l-6.5 3.7L71.6 50l24.7-14.2H84.2z"/>
	<path fill="#5f5a94" d="M53 10.8v28.5l6.1-10.5v-7.6L53 10.8z"/>
	<path fill="#0d90cd" d="M71.6 21.5L53 10.8l6.1 10.4 25.1 14.6h12.2L71.6 21.5z"/>
</svg>
