<svg xmlns="http://www.w3.org/2000/svg" viewBox="0 0 200 50">
	<path fill="#00ADEF" d="m33.0032 32.5881 9.7312-10.6702h10.6525L64.8747 9.09936 33 9l.0032 23.5881Z"/>
	<path fill="#231F20" d="m73.0072 16.9478.0131 7.9478h4.2371l.0133-2.771.0134-2.771 1.4076-.0264c1.4913-.0279 1.9728-.0842 2.8257-.3306 1.5727-.4544 2.7006-1.3536 3.2852-2.6187.5136-1.1115.5799-2.812.158-4.0521-.5347-1.5718-1.6419-2.51915-3.4881-2.98451-1.1596-.29231-1.2593-.29871-5.0033-.32078L72.9941 9l.0131 7.9478Zm14.7651-5.3706c-.0001 1.4139-.0241 2.8962-.0533 3.2941-.1926 2.6221-.5669 4.0841-1.604 6.2652l-.3502.7363h-1.4026v6.7173h4.1337V24.9214h8.9909V28.5901h4.1342v-6.7173h-1.9123V9.00656H87.7725l-.0002 2.57064Zm15.8117 5.3868v7.9574h4.237v-7.6546l.111.0165c.082.0123.767.9965 2.663 3.8273l2.554 3.8108h2.431c2.101 0 2.428-.0101 2.403-.0748-.016-.0411-1.356-1.9732-2.977-4.2935l-2.949-4.2188.269-.3698c.42-.5783 4.848-6.60208 4.991-6.79001l.127-.16793h-4.755l-2.338 3.43614c-1.683 2.4726-2.365 3.4362-2.434 3.4362-.092 0-.096-.1236-.096-3.4362V9.00656h-4.237V16.964Zm-24.3628-4.8845c1.0308.1972 1.6008.7499 1.7309 1.6784.103.7339-.0683 1.4002-.4727 1.8389-.4721.5121-1.0166.683-2.3307.7314l-.8655.0319v-4.3566h.7705c.4634 0 .9288.0303 1.1675.076Zm16.1987 4.8587v4.9346h-5.5814l.2521-.5038c.7813-1.5612 1.2871-3.622 1.4513-5.9131.0299-.4174.0543-1.365.0543-2.1057v-1.3467H95.4199v4.9347ZM55.2447 27.8584l-10.6568.0014-11.5361 12.8906 31.933.0273-.0129-23.5619-9.7272 10.6426Zm76.7713 5.0536c.682-.0674.98-.1458.98-.2573 0-.0222.3-.0404.667-.0404.366 0 .666.0076.666.0169 0 .1637-.209.6227-.359.7887-.341.3762-.665.485-1.72.5768-.838.0729-.926.0905-1.252.2508-.331.1631-.572.3872-.809.7522-.171.2635-.443.8962-.443 1.031 0 .0328.141-.0943.314-.2826.474-.5172 1.015-.7379 1.809-.7379.712 0 1.337.2536 1.825.7414.56.56.816 1.2417.819 2.1869.002.6819-.067 1.035-.299 1.528-.523 1.1146-1.761 1.6811-3.132 1.4336-1.136-.2051-1.885-.9233-2.173-2.0831-.13-.5241-.126-2.1823.006-2.921.288-1.6033.911-2.4767 2.001-2.8047.192-.0577.687-.1384 1.1-.1793Zm-18.338.7907c.485-.4866.959-.7638 1.585-.9277.545-.1426 1.482-.1437 2.034-.0025.891.2275 1.63.7854 2.013 1.5189.177.3381.232.4952.334.9451l.032.1464h-.72c-.664 0-.72-.0077-.72-.098 0-.1867-.328-.7527-.543-.9362-.464-.3967-1.136-.5741-1.774-.4684-1.189.1967-1.897 1.1622-1.984 2.7042-.084 1.5029.492 2.6643 1.522 3.0647.432.1683 1.188.1657 1.63-.0058.578-.2242 1-.7848 1.155-1.5318l.068-.3328h1.428l-.037.2795c-.045.3418-.261 1.0119-.408 1.2645-.474.8137-1.249 1.3792-2.154 1.5708-.472.0999-1.33.0999-1.808 0-1.098-.2297-2.05-1.0492-2.498-2.1514-.252-.6196-.326-1.0787-.32-1.975.005-.7333.022-.8784.149-1.3018.229-.7574.523-1.2674 1.016-1.7627Zm38.534 1.3257c.48-1.1988 1.288-1.9339 2.479-2.2553.328-.0886.517-.1029 1.139-.0862.835.0226 1.262.1327 1.822.4693.591.3553 1.107 1.0394 1.316 1.7439.068.2265.111.347.069.411-.052.0797-.238.0718-.677.0718-.51 0-.7-.0177-.714-.0666-.249-.8703-.84-1.3624-1.748-1.4553-.827-.0846-1.621.2962-2.067.9914-.612.9523-.667 2.6695-.121 3.7472.185.3651.618.8046.945.9591.835.3945 1.88.2553 2.437-.3245.292-.3038.451-.6498.599-1.309l.033-.1464h1.42l-.05.3328c-.117.7898-.415 1.3833-.968 1.9302-.436.4308-.867.6657-1.529.8329-.621.157-1.591.1222-2.21-.0794-1.572-.5123-2.483-1.9702-2.483-3.9749-.001-.733.086-1.2381.308-1.792Zm-79.2179 5.7883v-7.9895h5.4354v1.2246h-3.9958l-.0137 3.3676-.0137 3.3676-.7061.0149-.7061.0148Zm47.9589-.0031v-7.9864h6.502v7.9864h-1.439v-6.7618h-3.624v6.7618h-1.439Zm14.814 0v-7.9864l1 .0001.999.0001 1.036 2.8884c.57 1.5885 1.073 2.9793 1.119 3.0905l.084.2022 1.067-3.0773 1.067-3.0773.997-.0145.998-.0145V40.8168l-.68-.0149-.679-.0149-.027-2.9749-.026-2.9749-1.086 2.9882-1.086 2.9882h-.574c-.497 0-.578-.0124-.61-.0931-.02-.0513-.527-1.4094-1.126-3.0179-.599-1.6087-1.1-2.9364-1.115-2.9506-.014-.0142-.025 1.3439-.025 3.0179v3.0437H135.767Zm9.273-6.7618v-1.2246H151.541v1.2246h-2.558v6.7618h-1.386v-6.7618h-2.557Zm15.347 6.7618v-7.9864h5.914v1.2246h-4.476v1.8103h1.381c1.922 0 2.448.1157 3.04.6682.504.4714.727 1.1234.681 1.9937-.054 1.0465-.536 1.7299-1.463 2.0765-.484.1808-.917.211-3.039.2121l-2.038.001ZM79.2232 35.535c.2389-.2712.6111-.4894 1.0237-.6003.1581-.0425.4563-.0788.6626-.0807 1.3239-.0124 2.3127.851 2.5873 2.2593.0795.4075.0629 1.3585-.0308 1.7619-.3303 1.4234-1.4437 2.218-2.859 2.0404-.4845-.0607-.8772-.2409-1.2166-.5581l-.2681-.2506V42.9466l-.6528-.0149-.6528-.015v-7.8799l.5995-.0151.5995-.015v.7639l.2075-.2356Zm24.2928.3312c.289-.4697.787-.8107 1.366-.9366.179-.0389.577-.0722.884-.074 1.208-.0071 1.944.3269 2.273 1.032.122.262.124.3017.13 1.9977.003.9517.022 1.7903.043 1.8635.032.1172.07.135.314.1492l.278.0161v.8954l-.219.059c-.332.0891-.963.0771-1.155-.022-.175-.0905-.361-.2988-.413-.4632-.031-.0977-.039-.0967-.202.0249-.462.3458-1.046.516-1.786.5207-.814.0052-1.218-.1432-1.627-.5979-.315-.3498-.43-.7118-.395-1.2471.03-.4677.195-.8228.496-1.0695.399-.3266.898-.4755 2.13-.6356.88-.1144 1.19-.2074 1.254-.3776.08-.2093.061-.5616-.042-.7664-.152-.3036-.461-.426-1.079-.426-.423 0-.55.0204-.747.1198-.276.139-.454.3798-.505.6801l-.036.2117h-.608c-.601 0-.608-.0015-.608-.1234 0-.1695.151-.6639.254-.8308ZM85.0368 37.907c-.5942-1.4908-1.0919-2.7531-1.1061-2.8052-.0239-.0879.0254-.0938.6831-.0799l.7088.0149.7539 2.0627c.4147 1.1346.7641 2.0728.7766 2.085.0124.0122.3463-.922.742-2.076l.7194-2.0982h.6851c.6312-.0001.6822.0072.6476.0931-.0206.0512-.5846 1.5332-1.2533 3.2934-.6688 1.7601-1.2918 3.3504-1.3845 3.534-.2285.4523-.5943.8082-.9782.9517-.3127.1169-.9374.1531-1.3803.0799l-.1998-.033v-1.0436l.4755.0097c.4611.0093.4806.0048.6443-.1501.1976-.187.3236-.4179.4529-.8302l.0934-.2978-1.0804-2.7104Zm5.3292 2.9099v-5.8067h5.1157v5.8034h-1.2789v-4.7918h-2.5034l-.0139 2.3826-.0139 2.3826-.6528.015-.6528.0149Zm6.4607-2.8517c-.0076-1.5521-.0024-2.8518.0116-2.8885.0199-.0519.5866-.0665 2.5855-.0665h2.5602l-.014 2.8884-.014 2.8884-.653.015-.652.0149v-4.7951h-2.5049v4.7951l-.6528-.0149-.6528-.015-.0138-2.8218Zm-15.1433-1.6678c-.1212-.1175-.3317-.2516-.4677-.2979-.1361-.0463-.405-.084-.5975-.0837-.6438.001-1.1415.3546-1.3944.9908-.1079.2717-.1244.4049-.1244 1.0053 0 .7779.0872 1.1001.4002 1.4793.4735.5736 1.4575.6798 2.0824.2248.8464-.6161.9052-2.5393.1014-3.3186Zm51.3576.68c-.177-.3869-.416-.652-.713-.7913-.267-.1255-.762-.1825-1.016-.1171-.528.1362-.91.5319-1.093 1.1328-.094.3099-.109.4674-.089.9149.03.6821.196 1.0955.578 1.4384.287.2581.548.3534.966.3534.721 0 1.238-.4229 1.458-1.1939.136-.475.091-1.3405-.091-1.7372Zm32.361.7718c-.128-.2819-.486-.5832-.779-.657-.138-.0348-.757-.0588-1.516-.0588h-1.282v2.6089h1.277c.726 0 1.394-.0252 1.549-.0586.326-.0699.613-.3011.752-.6065.133-.2925.132-.9343-.001-1.228Zm-58.861 1.9221c.3-.2286.361-.4037.387-1.1072.013-.3441.003-.6239-.023-.6218-.025.002-.142.0391-.259.0824-.118.0432-.465.1139-.773.1569-.784.1097-1.106.2122-1.311.4172-.421.4201-.228 1.1833.342 1.3537.48.1439 1.253.011 1.637-.2812Z"/>
</svg>