<svg xmlns="http://www.w3.org/2000/svg" viewBox="0 0 200 50">
	<g fill="#164883">
		<path d="M72.9596 33.6129c-1.2096.0363-2.4072-.2177-3.508-.7258-1.0041-.3387-1.8871-.9798-2.5404-1.8145-.7742-.7863-1.3548-1.7419-1.6935-2.7823-.3508-1.0887-.5202-2.2379-.4839-3.3871-.0242-1.1854.1331-2.3709.4839-3.508.375-1.0282.9435-1.9718 1.6935-2.7823.6896-.7984 1.5605-1.4274 2.5404-1.8145 1.1008-.5081 2.2984-.7621 3.508-.7258.8589 0 1.7178.121 2.5404.3629.8225.2782 1.5967.6895 2.2983 1.2097.617.5201 1.1492 1.1371 1.5726 1.8145.4113.8468.6895 1.7419.8468 2.6613h-3.629c-.0484-.4234-.1694-.8347-.3629-1.2097-.2541-.3145-.5323-.5927-.8468-.8468-.3387-.2782-.7016-.5322-1.0887-.7258h-1.3307c-.7621-.0484-1.5121.121-2.1774.4839-.5443.2661-1.004.6895-1.3306 1.2097-.375.5564-.6654 1.1734-.8468 1.8145-.1452.7137-.2177 1.4516-.2419 2.1774.0121.6895.0967 1.379.2419 2.0565.1331.6653.4234 1.2822.8468 1.8145.3508.5322.7984.9798 1.3306 1.3306.6895.3024 1.4274.4597 2.1774.4839 1.0041.0363 1.9718-.3629 2.6613-1.0887.6532-.7863 1.0283-1.7661 1.0887-2.7823h3.6291c-.0968 1.0041-.3387 1.9718-.7258 2.9033-.4234.7983-.9557 1.5241-1.5726 2.1774-.6774.5806-1.4516 1.0403-2.2984 1.3306-.8952.3024-1.8387.4234-2.7823.3629zM80.4597 30.1048h1.4516c.4718-.6411.8831-1.3306 1.2097-2.0564l.7258-2.5403c.1452-1.0041.2299-2.0081.2419-3.0242.1089-1.125.1452-2.2621.121-3.3871v-2.6613h12.2178v13.6693h1.8145V37h-3.3871v-3.75H83.8468V37h-3.3871v-6.8952zm12.2178 0V19.4597h-4.9597v.3629c.0242 1.0524-.0121 2.1048-.121 3.1451-.0121.8952-.0847 1.7783-.2419 2.6613-.1331.8226-.3266 1.6331-.6049 2.4194-.2056.7137-.4959 1.4032-.8467 2.0564h6.7742zM99.6936 16.4355h5.2014l3.871 11.6129h.121l3.75-11.6129h5.081V33.25h-3.387V21.3951L110.218 33.25h-2.903l-4.113-11.7339V33.25h-3.5084V16.4355zM119.532 16.4355h11.613v1.4516h-9.919v5.6855h6.29c1.343-.1331 2.686.3629 3.629 1.3306.92.9315 1.403 2.2016 1.331 3.5081.048 1.3064-.436 2.5645-1.331 3.508-.98.9194-2.286 1.3912-3.629 1.3307h-7.984V16.4355zm7.621 15.4838c1.016.0363 2.008-.3145 2.783-.9677 1.27-1.4516 1.27-3.629 0-5.0806-.775-.6533-1.767-1.0041-2.783-.9678h-5.927v7.0161h5.927zM139.008 16.4355h1.815l6.532 16.8145h-1.694l-2.056-5.2016h-7.621l-2.057 5.2016h-1.693l6.774-16.8145zM143 26.5968l-3.145-8.5887-3.387 8.5887H143zM148.565 16.4355h1.572v7.258h9.92v-7.258h1.572V33.25h-1.572v-8.1048h-9.92V33.25h-1.572V16.4355zM163.444 16.4355h1.572v9.0726l9.678-9.0726h2.177l-7.5 7.0161 7.863 9.7984h-2.057l-7.016-8.7097-3.145 2.9032V33.25h-1.572V16.4355zM23 30.7097l4.9597 3.3871c3.0242-.6048 15.6048-3.1452 15.6048-7.621 0-4.4758-3.75-5.5645-7.0161-7.5-3.2661-1.9355-4.8387-2.9032-4.8387-4.5967 0-1.6936 1.5726-3.2662 4.5968-4.2339l1.9354-.48389C35.5806 10.0242 30.5 11.1129 30.5 14.5c0 3.3871 10.4032 6.5323 10.4032 11.492C40.9032 30.9516 23 30.7097 23 30.7097z"/>
		<path d="M33.4033 14.2581c0-2.2984 2.4193-3.6291 4.3548-4.35488-2.5403.60488-5.6855 1.93548-5.6855 4.47578 0 2.5404 2.1775 2.9033 4.7178 4.3549 2.5403 1.4516 7.0161 4.2338 7.0161 7.7419 0 3.5081-2.7823 4.2339-8.2258 6.0484l-7.2581 1.8145L32.4355 37s13.7904-3.9919 13.7904-9.5565c0-9.3145-12.8226-10.0403-12.8226-13.1854z"/>
		<path d="M46.1048 11.9597c0 1.3306-1.0887 2.4194-2.4194 2.4194h-.6048v1.2096h.6048c1.9355.0726 3.5565-1.4516 3.6291-3.3871v-.2419c0-1.9355-1.5726-3.50807-3.5081-3.50807h-3.629v8.58867h1.2096V9.66131h2.4194c1.2702 0 2.2984 1.02819 2.2984 2.29839z"/>
		<path d="M43.8065 7h-5.0807v10.0403h1.2097V8.20968h3.871c2.0685 0 3.75 1.68145 3.75 3.75002 0 2.1411-1.7299 3.8709-3.871 3.8709h-.6048v1.2097h.6048c2.7823-.3992 4.7057-2.9758 4.3065-5.7459C47.6774 9.10484 45.9839 7.3629 43.8065 7zM52.6371 24.7823v-6.2904c.0121-1.2459-.9315-2.2983-2.1775-2.4193-1.3064.0605-2.3588 1.1129-2.4193 2.4193v6.2904h1.0887V18.371c.0605-.6653.6532-1.1492 1.3185-1.0887h.0121c.5928.0604 1.0283.5927.9678 1.1975v6.3025h1.2097zM57.5967 24.7823v-6.2904c-.0605-1.2701-1.0403-2.2983-2.2984-2.4193-.6411.0121-1.2459.2661-1.6935.7258-.4355.4597-.6895 1.0645-.7258 1.6935v6.2904h1.2096V18.371c.0605-.6653.6533-1.1492 1.3186-1.0887h.0121c.5685.1209.9798.629.9677 1.2096v6.2904h1.2097z"/>
		<path d="M55.2984 14.7419c-.9193-.0363-1.8266.2662-2.5403.8468-1.6694-1.3306-4.1008-1.0645-5.4436.6049-.5443.6895-.8467 1.5362-.8467 2.4193v6.1694h1.2097v-6.2904c0-1.4274 1.1129-2.6008 2.5403-2.6613 1.0161.0121 1.9355.5686 2.4193 1.4517.4476-.871 1.3186-1.4275 2.2984-1.4517 1.4032-.0725 2.5887 1.0162 2.6613 2.4073V24.7823h1.2097v-6.1694c.0726-2.0323-1.4879-3.7379-3.5081-3.871z"/>
	</g>
</svg>
