<svg xmlns="http://www.w3.org/2000/svg" viewBox="0 0 200 50">
	<path fill="#3A913F" d="M155.275 14.0062c.939.252 1.412 1.0359 1.966 1.7264 2.196 2.7499 4.383 5.5028 6.576 8.2558.059.0746.13.1431.218.2364.799-1.0079 1.586-2.0002 2.373-2.9894 1.646-2.0748 3.285-4.1527 4.937-6.2244.572-.7186 1.474-.9643 2.314-.6657.846.3017 1.338 1.039 1.338 2.0344.003 4.8028.003 9.6026 0 14.4055 0 .7963.012 1.5926-.01 2.389-.028 1.0296-.812 1.8384-1.854 1.9504-.942.1026-1.888-.5506-2.134-1.4994-.065-.2488-.077-.5164-.077-.7745-.007-3.3845-.003-6.7657-.003-10.1502v-.4292c-.028-.0094-.056-.0187-.088-.0249-.429.5381-.861 1.0732-1.287 1.6144-1.282 1.6176-2.557 3.2413-3.848 4.8496-.94 1.1696-2.417 1.154-3.347-.0156-1.742-2.1868-3.491-4.3736-5.236-6.5573-.043-.0529-.09-.1026-.193-.2271V33.0653c0 1.067-.712 1.8819-1.785 2.053-.939.1493-1.916-.4883-2.196-1.4526-.065-.224-.081-.4666-.081-.6999-.009-5.6055-.009-11.2016-.009-16.8008 0-1.098.528-1.7886 1.589-2.0997.034-.0093.059-.0404.09-.0591h.747zM94.8035 14.0062c.6034.1244 1.2193.2022 1.8041.3826 3.7044 1.151 6.2554 3.4684 7.2574 7.3007.227.8648.345 1.7576.202 2.6566-.19 1.1789-1.269 2.3081-2.709 2.2987-4.4424-.0311-8.8844-.0124-13.3265-.0124h-.4852c.2395 1.1696.7279 2.1712 1.5429 2.9925 2.0374 2.053 4.5104 2.4978 7.2167 1.7886.9488-.2489 1.8446-.7155 2.7436-1.1261.7186-.3266 1.4185-.4728 2.1305-.0435 1.241.7465 1.182 2.5196-.115 3.3035-1.4493.8772-3.0265 1.4309-4.6969 1.6984-2.2645.3671-4.4949.2333-6.6164-.6905-3.5741-1.5522-5.6707-4.2803-6.3115-8.1189-.8337-5.0082 1.9566-9.9106 6.7004-11.7023.871-.3297 1.8228-.4479 2.7374-.6657.0684-.0155.1368-.0435.2053-.0653.5754.0031 1.1478.0031 1.7202.0031zm5.3565 8.8592c-.2239-2.8929-3.711-5.4966-6.915-5.1979-2.7778.2612-5.8823 3.1137-5.6365 5.1979H100.16zM57.1769 14.0062c.5195.0996 1.0483.1649 1.5585.308 3.571 1.0016 6.1311 3.1324 7.3443 6.7066.3732 1.1012.563 2.2459.3639 3.4124-.196 1.1292-1.2723 2.2241-2.7032 2.2117-4.442-.0342-8.8809-.0125-13.323-.0125h-.4728c.2427 1.1541.7217 2.1557 1.5211 2.9707 2.0406 2.0717 4.5198 2.5259 7.2417 1.8135.9363-.2457 1.8197-.7092 2.7094-1.1074.5101-.227 1.0172-.4137 1.5771-.2924.7932.168 1.3127.731 1.462 1.5523.1306.7123-.2364 1.5553-.9581 1.9535-.7683.423-1.5615.8274-2.3859 1.1167-2.7747.9705-5.5992 1.1603-8.3926.1338-3.9474-1.4496-6.2617-4.3114-6.8901-8.4642-.6937-4.582 1.5087-8.8934 5.5743-11.0646 1.207-.6439 2.4948-1.0328 3.8604-1.1665.0684-.0063.1337-.0436.2022-.0654.5661-.0062 1.1385-.0062 1.7108-.0062zm5.3535 8.8561c.0529-2.3299-3.2102-5.173-6.1-5.2228-3.5742-.0591-6.1716 2.7063-6.4609 5.2228h12.5609zM140.642 14.0062c.508.0996 1.021.168 1.515.308 3.746 1.0607 6.371 3.3222 7.466 7.1359.227.787.274 1.6393.299 2.4667.043 1.4185-1.22 2.7467-2.753 2.7343-4.43-.0404-8.856-.0156-13.286-.0156h-.482c.012.1214.012.2178.037.3049.709 2.5103 2.395 4.0096 4.89 4.5976 2.19.5163 4.228-.0312 6.181-1.0328.426-.2177.88-.4417 1.344-.5039.924-.1213 1.695.423 1.96 1.2598.27.8523-.091 1.7917-.903 2.2801-1.462.8803-3.048 1.4371-4.731 1.7078-2.386.3857-4.719.2053-6.921-.8306-3.356-1.5802-5.369-4.2274-5.963-7.8886-.594-3.6706.429-6.8715 3.073-9.4969 1.751-1.7358 3.892-2.7187 6.355-2.9676.069-.0062.137-.0435.205-.0653.57.0062 1.142.0062 1.714.0062zm5.348 8.8561c-.262-2.9023-3.699-5.4841-6.903-5.1948-2.778.2488-5.823 3.0391-5.652 5.1948h12.555zM124.442 14.0062c.759.2395 1.365.6564 1.58 1.4714.065.2488.093.5132.093.7714.006 5.537.006 11.074.003 16.611 0 1.2349-.612 2.0219-1.711 2.2334-1.138.2209-2.283-.6625-2.357-1.8197-.01-.1493-.01-.2986-.01-.4479v-14.222-.4697h-8.237v8.8654c0 4.0874-2.834 7.4127-6.871 8.038-.476.0746-.974.1151-1.447.0528-1.088-.1431-1.823-1.0669-1.751-2.1028.078-1.1323.908-1.9224 2.05-1.9473 1.866-.0435 3.372-1.2224 3.823-3.0204.081-.3204.118-.6626.118-.9954.009-3.5835.006-7.167.006-10.7505 0-1.1883.464-1.826 1.596-2.2148.019-.0062.031-.0342.047-.0529h13.068zM36.6463 14.0083c.6284.1244 1.263.2177 1.8789.3795 1.8539.4915 3.4591 1.4278 4.7966 2.8058.7684.7901.759 2.0219.0187 2.8432-.6812.7559-1.9193.8709-2.7498.2457-.2675-.2022-.4915-.4573-.7559-.6626-1.9784-1.5304-4.1714-1.9006-6.4889-.9954-2.3205.9052-3.7234 2.6628-4.0874 5.1326-.5444 3.6831 1.8975 6.9461 5.5837 7.4656 2.0903.2955 3.9318-.339 5.4623-1.8073 1.0949-1.0483 2.7872-.7776 3.4031.5537.3608.7808.2115 1.6953-.4075 2.3081-2.3797 2.3455-5.2446 3.4031-8.5699 3.0889-4.6163-.4355-8.2868-3.6177-9.3818-8.0784-.1431-.5879-.1898-1.2007-.2831-1.801-.0155-.0934-.0435-.1867-.0653-.28v-.9705c.0467-.3267.0964-.6564.14-.983.5475-4.2336 3.7079-7.8264 7.8264-8.8716.6222-.1587 1.2567-.2489 1.8882-.3733h1.7917zM27.9117 42.3755c-.056-.0249-.1089-.056-.168-.0716-.9954-.283-1.546-1.1042-1.4122-2.109.1213-.9301.899-1.6051 1.8913-1.6144 1.2691-.0094 2.5383-.0031 3.8043-.0031 3.4186 0 6.8404-.0031 10.259 0 .8181 0 1.4527.3452 1.798 1.098.3359.731.2519 1.462-.308 2.0406-.2831.2955-.7185.4449-1.0856.6595H27.9117zM72.8423 18.1776c-1.5025 0-2.9583.0031-4.4109-.0031-.1991 0-.3982-.0156-.5911-.0498-1.0545-.1897-1.7575-1.1167-1.6611-2.1805.0965-1.0639.9519-1.854 2.022-1.854 4.4544-.0031 8.9058-.0031 13.3603 0 1.1758 0 2.0748.8834 2.0779 2.0313.0031 1.1416-.8896 2.0406-2.0686 2.0499-1.406.0124-2.812.0031-4.218.0031h-.4604v14.9001c0 .8741-.4106 1.5025-1.1945 1.8571-.787.3577-1.5367.2208-2.1868-.336-.4791-.4106-.6781-.955-.675-1.5895.0062-4.778.0031-9.5529.0031-14.3309.0031-.1431.0031-.2924.0031-.4977z"/>
</svg>
