<svg xmlns="http://www.w3.org/2000/svg" viewBox="0 0 200 50">
	<path fill="#0F1735" d="M71.699 30.7533c-1.038.0218-2.065-.2295-2.9828-.7321-.8522-.4807-1.5624-1.1799-2.0431-2.0431-.9724-1.8683-.9724-4.0863 0-5.9546.4807-.8522 1.18-1.5624 2.0431-2.0431.9069-.5026 1.9339-.7539 2.9828-.732 1.6607-.0219 3.2559.6992 4.3485 1.9557.0437.0437.1092.0765.1748.0765.0655 0 .1311-.0219.1748-.0765l2.2507-2.1852c.0874-.0983.0874-.2403 0-.3387-.8085-.9068-1.8137-1.6389-2.9281-2.1196-1.333-.5791-2.7752-.8741-4.2392-.8631-1.7373-.0219-3.4526.3824-4.9932 1.1909-1.4422.7648-2.6549 1.912-3.4962 3.3105-.8522 1.4531-1.2893 3.103-1.2674 4.7855-.0219 1.6826.4152 3.3324 1.2674 4.7855.8413 1.4095 2.0431 2.5458 3.4962 3.3106 1.5406.8085 3.2559 1.2127 4.9932 1.169 1.4531.0219 2.8953-.2622 4.2392-.8194 1.027-.437 1.9666-1.0817 2.7314-1.8902.0874-.0983.0874-.2403 0-.3277l-2.0868-2.371c-.0437-.0546-.1093-.0764-.1857-.0764-.0765 0-.1311.0327-.1858.0764-1.0816 1.2237-2.655 1.923-4.2938 1.9121zM97.8336 31.6164c-1.8028 1.3657-3.9879 2.1087-6.2496 2.1415v3.5072c0 .1311-.1092.2403-.2404.2403h-2.9281c-.1311 0-.2403-.1092-.2403-.2403v-3.5072c-2.2508-.0328-4.4359-.7648-6.2387-2.1087-1.4641-1.2783-2.2507-3.1576-2.1524-5.0915-.0983-1.912.6993-3.7584 2.1524-5.004 1.8246-1.3111 4.0207-2.0322 6.2714-2.054v-3.8132c0-.1311.1093-.2403.2404-.2403h2.9281c.1311 0 .2404.1092.2404.2403v3.835c2.2289.0328 4.4031.7539 6.2059 2.065 1.4422 1.2346 2.2293 3.0592 2.1414 4.9494.0979 1.9448-.6883 3.8022-2.1305 5.0805zm-13.0892-2.2507c.9943.7648 2.2071 1.2018 3.4526 1.2455v-7.9868c-1.2455.0437-2.4474.4589-3.4526 1.191-.732.7101-1.1144 1.7153-1.0598 2.7314-.0437 1.0489.3387 2.065 1.0598 2.8189zm10.3577 0c.743-.7539 1.1363-1.7919 1.0598-2.8517.0656-1.027-.3277-2.0212-1.0598-2.7314-1.0161-.732-2.2288-1.1472-3.4744-1.1909v8.0305c1.2565-.0656 2.4693-.4917 3.4744-1.2565zM116.222 27.7159h-10.445c.164.8413.644 1.5842 1.333 2.0759.775.5244 1.682.7867 2.611.7539.666.0218 1.333-.0874 1.956-.3169.491-.2076.95-.4916 1.333-.8631.043-.0437.098-.0656.163-.0656.066 0 .121.0219.164.0656l1.814 2.0103c.087.0984.087.2404 0 .3387-1.453 1.475-3.474 2.2398-5.539 2.1087-1.432.0328-2.852-.295-4.13-.9287-1.158-.5681-2.12-1.4531-2.786-2.5566-.667-1.1363-1.006-2.4365-.973-3.7476-.011-1.3111.328-2.6003.973-3.7257.622-1.0926 1.54-1.9994 2.644-2.6003 2.327-1.2128 5.102-1.2128 7.429 0 1.093.5681 2 1.4312 2.612 2.4911.666 1.1909 1.005 2.5348.972 3.9005.033 0-.087.3824-.131 1.0598zm-9.364-4.5342c-.633.5463-1.038 1.3111-1.136 2.1524h6.84c-.11-.8304-.514-1.5843-1.137-2.1415-.622-.5354-1.431-.8194-2.25-.7976-.853-.0328-1.672.2513-2.317.7867zM130.054 20.3519c1.049.579 1.912 1.4422 2.48 2.4911.612 1.1472.929 2.4255.896 3.7257.044 1.3111-.251 2.6113-.874 3.7694-.59 1.0379-1.453 1.8902-2.513 2.4474-1.071.6009-2.273.9068-3.496.885-1.563.0765-3.081-.5245-4.163-1.6717v5.2226c0 .1311-.109.2403-.24.2403h-3.366c-.131 0-.24-.1092-.24-.2403V19.9148c0-.1311.109-.2403.24-.2403h3.224c.131 0 .24.1092.24.2403v1.3439c1.082-1.2455 2.688-1.912 4.337-1.7918 1.224-.0109 2.415.295 3.475.885zm-1.628 9.0138c.677-.7648 1.027-1.7591.972-2.7861.055-1.0161-.295-2.0213-.972-2.7861-1.399-1.3876-3.66-1.3876-5.059 0-.677.7648-1.027 1.7591-.972 2.7861-.055 1.0161.295 2.0213.972 2.7861 1.399 1.3767 3.65 1.3767 5.059 0zM150.136 19.9039v13.3077c0 .1311-.11.2403-.241.2403h-3.146c-.132 0-.241-.1092-.241-.2403v-1.3439c-1.081 1.2346-2.666 1.9011-4.305 1.7918-1.234.0219-2.447-.2731-3.529-.874-1.038-.5682-1.901-1.4095-2.469-2.4474-.623-1.1472-.929-2.4474-.896-3.7476-.033-1.3002.273-2.5894.896-3.7366.568-1.0489 1.431-1.912 2.469-2.4911 1.082-.59 2.306-.885 3.529-.8741 1.552-.0874 3.071.5245 4.13 1.6607v-1.2455c0-.1311.11-.2404.241-.2404h3.321c.131 0 .241.1093.241.2404zm-4.731 9.4618c.677-.7648 1.027-1.77.972-2.797.055-1.0161-.295-2.0213-.972-2.7861-.656-.6884-1.574-1.0598-2.524-1.038-.951-.0328-1.879.3496-2.535 1.038-.677.7648-1.027 1.759-.972 2.7861-.055 1.027.295 2.0212.972 2.797.677.6665 1.595 1.0161 2.535.9724.939.0437 1.857-.3059 2.524-.9724z"/>
	<linearGradient id="gr1" x1="57.6837" y1="35.0635" x2="83.2571" y2="15.4729" gradientUnits="userSpaceOnUse">
		<stop stop-color="#F7AC1E"/>
		<stop offset="1" stop-color="#DC3B55"/>
	</linearGradient>
	<path fill="url(#gr1)" d="M82.7996 14.9436l-1.9557 1.8683c-.0437.0437-.1093.0765-.1748.0765-.0656 0-.1311-.0219-.1748-.0765-3.8132-4.4031-10.1501-5.605-15.3181-2.9172-5.1679 2.6878-7.8119 8.5768-6.3916 14.2254 1.475 5.5941 6.5337 9.4837 12.3244 9.4618.0765 0 .1966 0 .1966.1421 0 .6883-.0655 2.8298-.0655 2.8298 0 .1092-.0874.2075-.2076.2075-6.8068.0765-12.8816-4.272-15.0012-10.7401-1.5842-4.8183-.7757-10.0954 2.1961-14.2036 2.9718-4.1081 7.7246-6.54453 12.7942-6.54453 4.5233-.01092 8.8171 1.93383 11.7889 5.34273.0765.0874.0765.2295-.0109.3278z"/>
	<linearGradient id="gr2" x1="65.4812" y1="2.61298" x2="65.4812" y2="47.6031" gradientUnits="userSpaceOnUse">
		<stop stop-color="#385CFA"/>
		<stop offset="1" stop-color="#94C2FC"/>
	</linearGradient>
	<path fill="url(#gr2)" d="M70.4971 46.9891c-9.5819-.2295-17.9074-6.632-20.6061-15.8206-2.6987-9.1887.8741-19.0766 8.8062-24.44115 3.6383-2.46924 7.954-3.78034 12.3572-3.72571.1092 0 .1966.09833.2076.20759v2.85165c0 .06555-.0547.10925-.1202.12018-3.7585-.05463-7.4405 1.03796-10.5653 3.12479-6.8724 4.57795-9.9535 13.10005-7.6153 21.01035 2.3381 7.9103 9.5601 13.3951 17.8091 13.5153h.2404c3.234.0109 6.4244-.8194 9.2432-2.4146.1202-.0546.2622-.0219.3278.0874l1.3439 2.3163c.0327.0546.0437.1311.0218.1966-.0218.0656-.0655.1202-.1202.153C78.5495 46.0276 74.8566 47 71.0871 47l-.59-.0109z"/>
</svg>
