<svg xmlns="http://www.w3.org/2000/svg" viewBox="0 0 200 50">
	<path fill="#d71920" d="M101.3 17h-.1V7.5h-3.3v14.8h3.7l6-9.4h.1v9.4h3.3V7.5h-3.8zM123.7 13.4h-6.2V7.5h-3.4v14.8h3.4v-5.9h6.2v5.9h3.4V7.5h-3.4zM143.1 7.5H139l-5.4 6.4V7.5h-3.4v14.8h3.4v-7.5l5.7 7.5h4.3l-6.4-8.2zM68.3 12.8C67.5 9.2 64 7 59.8 7H48.7c-4.8 0-8.7 3.6-8.7 8v10.1c0 4.4 3.9 8 8.7 8h11c4 0 7.5-2 8.5-5.5H46.3V12.8h22zM95.8 10.5C95.3 8.3 93.2 7 90.7 7h-3.2c-1.3-.1-2.6.4-3.6 1.3s-1.6 2.2-1.7 3.5v6.1c.1 1.3.7 2.6 1.7 3.5 1 .9 2.3 1.4 3.6 1.3h3.2c2.4 0 4.5-1.2 5.1-3.3H86v-8.9h9.8zM157 8.3c-1-.9-2.3-1.4-3.6-1.3h-4.1c-1.3-.1-2.6.4-3.6 1.3s-1.6 2.2-1.7 3.5v6.1c.1 1.3.7 2.6 1.7 3.5 1 .9 2.3 1.4 3.6 1.3h4.1c1.3.1 2.6-.4 3.6-1.3s1.6-2.2 1.7-3.5v-6.1c-.1-1.3-.7-2.6-1.7-3.5zm-9.3 10.9v-8.9h7.1v8.9h-7.1z"/>
	<path fill="#007a5f" d="M134.8 32.3h-7.7v-7.4h-4.3v18.4h4.3V36h7.7v7.3h4.3V24.9h-4.3zM152 33.2l7.4-8.3h-5.1l-6.7 8v-8h-4.3v18.4h4.3v-9.4l7 9.4h5.4zM69.6 17.3H58.5c-4 0-7.5 2-8.5 5.5h22v14.7H50c.9 3.6 4.4 5.8 8.6 5.8h11c4.8 0 8.7-3.6 8.7-8V25.2c.1-4.3-3.9-7.9-8.7-7.9zM50 37.5zM97.6 33.6c-.5-.5-1.1-.8-1.7-1s-1.3-.3-2-.3h-5.4v-3.7H98v-3.7H84.2v18.4h9.6c1.4.1 2.7-.4 3.7-1.3s1.6-2.2 1.7-3.6v-1.2c0-.7-.2-1.3-.5-1.9-.2-.7-.6-1.2-1.1-1.7zm-2.2 4.5v1.7h-6.8V36h6.8v2.1zM104.9 26.3c-1 .9-1.6 2.2-1.7 3.5v13.5h3.8V36h6.9v7.3h4.3V24.9h-9.8c-1.2 0-2.5.4-3.5 1.4zm9.1 5.2v.8h-6.9v-3.7h6.9v2.9z"/>
</svg>
