<svg xmlns="http://www.w3.org/2000/svg" viewBox="0 0 200 50">
	<g fill="#038C73">
		<path d="M33.6557 30.3142c-1.119 1.7376-3.0658 2.8202-5.4857 2.8202-3.7935 0-6.2862-2.7474-6.2862-6.4955 0-3.8936 2.4836-6.4954 6.2862-6.4954 2.0196 0 3.7663.8278 4.9399 2.1742l1.8831-1.9195c-1.6466-1.8013-4.0483-2.9021-6.823-2.9021-5.3582 0-9.17 3.6572-9.17 9.1428 0 5.2673 3.83 9.1428 9.1791 9.1428 3.1841 0 5.795-1.3373 7.4052-3.5116l-1.9286-1.9559z"/>
		<path d="M51.4137 35.4269l-6.8503-7.4689h-3.184c0 4.212 0 6.6956.0364 7.4689h-2.9293c.0363-1.7558.0363-4.6851.0363-8.788s0-7.0322-.0363-8.788h2.9293c-.0364 1.5011-.0364 3.9574-.0364 7.3961h3.2568l6.6228-7.3961h3.6571l-7.6508 8.5333 8.233 9.0427h-4.0846zM65.7873 18.1693c-2.4017-.0909-4.6032.7733-6.2407 2.2562.3093-2.5109 2.0469-4.5941 4.3667-5.3583 2.8838-.9461 6.6137.4457 10.3345-2.9566L72.1372 10c-2.711 2.5563-6.0133 1.4556-8.606 2.1561-3.9482 1.0643-6.8685 4.676-6.9049 8.979v5.8404c0 4.867 3.9483 8.8153 8.8153 8.8153 4.9762 0 8.9972-4.1302 8.8062-9.1519-.1729-4.5759-3.8937-8.2967-8.4605-8.4696zm.1365 14.7285c-3.6571.2911-6.7047-2.7473-6.4045-6.4044.2274-2.8748 2.5654-5.2128 5.4401-5.4402 3.6571-.2911 6.6956 2.7474 6.4045 6.4045-.2274 2.8747-2.5563 5.2127-5.4401 5.4401z"/>
		<path d="M93.4794 24.3282l-6.5227-7.2414-2.1834 1.9559 6.732 7.4688 1.9741-2.1833z"/>
	</g>
	<g fill="#F65E64">
		<path d="M177.702 35.4178l-6.85-7.4689h-3.184c0 4.2121 0 6.6956.036 7.4689h-2.929c.036-1.7558.036-4.6851.036-8.788s0-7.0322-.036-8.7879h2.929c-.036 1.501-.036 3.9573-.036 7.396h3.256l6.623-7.396h3.657l-7.632 8.5332 8.233 9.0427h-4.103z"/>
		<path d="M114.421 18.1693c-2.401-.0909-4.594.7733-6.241 2.2562.31-2.5109 2.047-4.5941 4.367-5.3583 2.884-.9461 6.614.4457 10.335-2.9566L120.771 10c-2.702 2.5563-6.013 1.4556-8.606 2.1561-3.948 1.0643-6.868 4.676-6.905 8.979v5.8404c0 4.867 3.948 8.8153 8.816 8.8153 4.976 0 8.997-4.1302 8.806-9.1519-.173-4.5759-3.894-8.2967-8.461-8.4696zm.137 14.7285c-3.657.2911-6.705-2.7473-6.414-6.4044.228-2.8748 2.566-5.2128 5.44-5.4402 3.657-.2911 6.705 2.7474 6.405 6.4045-.219 2.8747-2.547 5.2127-5.431 5.4401zM157.706 35.4178v-7.6144h-9.225v7.6144h-2.929V17.8509h2.929v7.2506h9.225v-7.2506h2.929v17.5669h-2.929zM141.695 32.4521c-.355.5822-.864.8824-1.465.7368-.564-.1455-.946-.6823-.946-1.2645v-8.6242c0-3.366-2.893-5.8222-6.814-5.8222-2.42 0-4.439.7914-5.676 2.0741l1.956 1.9559c.645-.8187 1.919-1.3554 3.502-1.3554 2.374 0 4.103 1.501 4.103 3.5115v1.3191c-2.711.2911-4.612.5458-5.75.8097-3.511.7277-5.604 2.6018-5.604 5.4128 0 2.7474 2.202 4.576 5.568 4.576 2.383 0 4.321-.5004 5.859-2.2925.327 1.5738 1.865 2.2925 3.811 2.2925 1.31 0 2.466-.5732 3.266-1.5193l-1.81-1.8103zm-5.331-2.2016c-1.283 1.7558-3.293 2.8202-5.458 2.8202-1.72 0-2.857-.7642-2.857-2.1925 0-1.1735.919-2.0378 2.493-2.4835 1.21-.3275 3.147-.464 5.822-.8006v2.6564z"/>
		<path d="M93.4794 24.3282l-8.7516 9.7159L86.902 36l8.5424-9.4885-1.965-2.1833z"/>
	</g>
</svg>
