<svg viewBox="0 0 200 50" xmlns="http://www.w3.org/2000/svg">
	<path fill="#0A90E8" d="M54.0185 21.5484l1.341-1.6843c-.9009-.3477-1.8872-.4081-2.8238-.1731l1.4828 1.8574zm-5.4257 6.706l2.4917-3.0698-2.3187-2.9123c-1.0249.9459-2.0187 1.9358-2.9969 2.9435l2.8239 3.0386zm5.3629.567l-1.6882 2.0621c1.0387.2384 2.1273.1219 3.092-.331l-1.4038-1.7311zm-4.6846-10.941c-2.0064 1.5584-3.889 3.2699-5.6311 5.1191l1.1685 1.2281c1.7214-1.8049 3.5659-3.488 5.5204-5.0374.9576-.6721 2.0953-1.0405 3.2651-1.0572.9259-.0069 1.8418.1921 2.6814.5826l1.1039-1.3694c-1.1896-.5976-2.5019-.9102-3.8332-.9131-1.5423.015-3.0396.5218-4.2739 1.4467l-.0011.0006zM56.7 29.9387c.447-.3591.8541-.7654 1.2141-1.2119l-6.7189-8.4382-1.3249 1.0889L56.7 29.9387zm-5.3974 2.1567l-1.1513 1.3355c1.1079.5186 2.328.7512 3.5489.6766 2.0423-.1506 3.97-1.0015 5.4575-2.4088 1.0367-.9349 1.8499-2.0909 2.3797-3.3824.5297-1.2916.7623-2.6857.6807-4.0793-.1593-1.4377-.6674-2.8147-1.4802-4.0113l-1.0883 1.4006c.8015 1.3377 1.0822 2.9237.7884 4.4553-.2543 1.4122-.8921 2.7273-1.8435 3.8015-.9514 1.0742-2.1799 1.8661-3.551 2.2891-1.221.384-2.5343.3565-3.7381-.0784l-.0028.0016zm-13.1873-8.3113c-.1893 1.0093-.1893 2.0449 0 3.0542.4735-.5197.9459-1.0388 1.4356-1.5424l-1.4356-1.5118zm1.3727-3.101c-.3824.4643-.6909.9847-.9148 1.543l8.0437 8.485 1.1357-1.37-8.2646-8.658zm4.4475-4.4703c-1.2356 1.0591-2.4087 2.189-3.5133 3.3842l2.2713 2.377c1.0572-1.1017 2.1451-2.1884 3.283-3.2111l-2.041-2.5501zm29.7166 12.5619l-1.3566 1.6843c.9007.3476 1.8868.4082 2.8233.1736l-1.4667-1.8579zm5.4096-6.7061L76.57 25.1384l2.3181 2.9124c1.0416-.946 2.0193-1.9364 2.9975-2.9441l-2.8239-3.0381zm-5.359-.5675l1.7032-2.0622c-1.043-.2473-2.1393-.1306-3.107.3306l1.4038 1.7316zm-31.6874-7.7138c-1.9876 1.6477-3.7909 3.5056-5.3785 5.5415-2.0348 2.9596-2.2402 6.9264-1.0249 10.1826l1.3243-1.4172c-.1049-.3781-.1891-.7617-.2521-1.149-.3911-2.302.0807-4.6674 1.3249-6.6432 1.4937-1.9104 3.1856-3.6572 5.0473-5.211l-1.041-1.3037zm-4.6846 2.5345c1.1598-1.252 2.3922-2.4348 3.6908-3.5422-.7729-.6299-1.7032-1.1173-2.6497-.8814-.3843.1123-.733.3221-1.0122.609-.2791.287-.4793.6414-.5809 1.0286-.1336.4751-.1533.975-.0574 1.4591.0959.4841.3047.9387.6094 1.3269zm-2.0349 2.4717c.3339-.4724.7101-.9287 1.0729-1.385-.5023-.575-.8522-1.2669-1.0175-2.0123-.1652-.7454-.1407-1.5204.0715-2.2538.1756-.6264.5106-1.1966.9722-1.6549.4617-.4584 1.0343-.7892 1.662-.9603 1.4038-.3622 3.2178.2048 5 2.2813l4.0375 5.0691 1.3253-1.0706-4.0379-5.069c-1.6087-1.92081-4.0536-3.5261-6.7195-2.86506-.9122.25421-1.7452.73552-2.421 1.39896-.6758.6634-1.1724 1.4873-1.4434 2.3948-.3139 1.062-.3406 2.1883-.0774 3.264.2632 1.0757.807 2.0624 1.5759 2.8594l-.0006.0034zM47.52 36.755c.6483.2877 1.3118.54 1.9876.7556 1.7379.5355 3.5665.7126 5.3748.5204 1.8084-.1921 3.5589-.7495 5.1455-1.6383-.6465-.7233-1.2464-1.4951-1.8456-2.2507-1.2637.7406-2.6739 1.1964-4.1321 1.3354-1.644.1555-3.2989-.1499-4.7791-.8819L47.52 36.755zm-2.7443-1.5113c.4885.315.9777.6121 1.4512.8658l6.8134-8.4377-1.0572-1.3543-7.2074 8.9262zm-4.6373-4.0619c1.015 1.2231 2.1809 2.3125 3.4699 3.2423l2.1295-2.6152-3.0915-3.2534-2.5079 2.6263zm-2.1767 2.2813c1.0769 1.253 2.2942 2.378 3.6279 3.3531 5.0001 3.762 9.8265 4.8798 14.1794 4.25 2.3533-.3745 4.6067-1.2205 6.6249-2.4873-.4574-.3778-.9148-.7556-1.3405-1.1646-1.6913 1.0041-3.5606 1.6722-5.5052 1.9676-3.9273.5825-8.3276-.4563-12.9337-3.9195-.7728-.5982-1.593-1.2592-2.4132-2.031-.3786-.3794-.7368-.7787-1.0728-1.1963l-1.1668 1.228zm2.7604 4.4865c-1.3635-1.0159-2.6166-2.1722-3.7386-3.4498-.2639.3084-.4229.6927-.454 1.0974-.0311.4047.0673.8088.2809 1.1539.1958.3853.4671.7274.7976 1.0059.3305.2786.7136.4879 1.1266.6155.3394.1097.7018.1282 1.0507.0535.3488-.0746.6719-.2396.9368-.4786v.0022zm2.618 1.7478c-.4891-.2833-.9782-.5826-1.4512-.9131-.4498.4799-1.0258.8232-1.6619.9905-.6361.1673-1.3065.1519-1.9342-.0446-1.181-.3761-2.1666-1.2015-2.7443-2.2981-.3197-.5671-.4702-1.2139-.4339-1.8639.0362-.65.2579-1.276.6386-1.804 2.0349-2.0154 3.9752-4.1399 5.931-6.2498l-1.1685-1.2119c-1.9714 2.1255-3.9273 4.2817-5.9933 6.3126-1.4356 1.4167-1.3093 3.9985-.4735 5.6038.3825.7442.9083 1.4054 1.5471 1.9458.6388.5404 1.3781.9492 2.1754 1.2031.9897.2953 2.0442.2946 3.0335-.002.9893-.2966 1.8702-.8762 2.5341-1.6673l.0011-.0011zm35.0477-7.2553c2.0059-1.5588 3.8883-3.2703 5.6305-5.1191l-1.1685-1.2437c-1.7156 1.8099-3.5549 3.4983-5.5047 5.053-.9597.668-2.0961 1.0359-3.2651 1.0572-.9312.0087-1.8525-.1904-2.697-.5826l-1.0884 1.3543c1.1877.6042 2.5002.9222 3.8327.9287 1.5363-.0226 3.0266-.5288 4.2589-1.4467l.0016-.0011zM60.2961 13.9292c-1.6733-.9345-3.5194-1.5183-5.4257-1.716-2.4834-.2617-4.9892.2089-7.2085 1.3538l1.9558 2.4399c1.4213-.7592 3.0314-1.0927 4.6373-.9604 1.4017.1069 2.7659.5036 4.0063 1.1652.6471-.803 1.3248-1.558 2.0348-2.2814v-.0011zm2.6342 1.8106c-.4475-.383-.9162-.7404-1.4039-1.0706-.9018.8898-1.7398 1.842-2.5078 2.8495l-4.1643 5.226 1.1045 1.3226c2.2869-2.8177 4.4636-5.7145 6.9715-8.3275zm.804 17.917c.7994-.7689 1.5477-1.5892 2.2402-2.4555-1.2593-1.6378-1.9366-3.6487-1.9247-5.7145.0255-2.2339.7357-4.4062 2.0349-6.2237-.6724-.9045-1.3937-1.7716-2.1606-2.5974-.7997.7641-1.548 1.5801-2.2402 2.4427 1.2577 1.645 1.9346 3.6605 1.9246 5.7312-.0295 2.2312-.7398 4.4001-2.0359 6.2164.6763.9016 1.3974 1.7687 2.1606 2.598l.0011.0028zm2.3977 1.9831c.9016-.8844 1.7396-1.8314 2.5078-2.8339l4.1643-5.2265-1.1045-1.3249c-2.2875 2.8022-4.4642 5.7145-6.9554 8.3275.4391.3837.9039.7369 1.3911 1.0572l-.0033.0006zm13.8645 1.1179l-1.9403-2.4556c-1.4233.77-3.0401 1.109-4.6528.9755-1.4-.1163-2.7624-.5126-4.0063-1.1652-.6466.8035-1.3249 1.558-2.0349 2.2813 1.4119.7898 2.9482 1.3329 4.5427 1.6059 1.9266.3556 3.9101.2478 5.7868-.3144.7949-.2374 1.566-.5485 2.3031-.9292l.0017.0017zm1.9558 2.4555l-1.0572-1.3355c-2.8226 1.5478-6.0888 2.0866-9.259 1.5274-3.6365-.6759-6.9473-2.5358-9.4164-5.2899-.5675-.6455-1.1039-1.3221-1.6403-2.0148-.4011.404-.8223.7874-1.262 1.149.5208.6927 1.0572 1.3693 1.6248 2.0148 2.7299 3.0199 6.3767 5.059 10.379 5.8035 3.6519.6459 7.4146-.0115 10.6311-1.8573v.0028zm9.3374-6.2971c.5055.5732.8574 1.2653 1.0228 2.0114.1654.7462.139 1.5221-.0769 2.2553-.1782.625-.514 1.1938-.9753 1.6518-.4612.4579-1.0324.7897-1.6588.9634-1.4039.3466-3.2017-.2042-5-2.2814l-4.038-5.0685-1.3249 1.0706 4.038 5.0685c1.6092 1.9208 4.0536 3.5261 6.7194 2.865.9122-.2541 1.745-.7353 2.4207-1.3987.6757-.6633 1.1722-1.4871 1.4432-2.3944.3142-1.0609.3426-2.186.0823-3.2614-.2603-1.0754-.8001-2.0629-1.5647-2.8627-.079.1113-.1574.2042-.2225.2994-.2838.3617-.5676.7233-.8675 1.0856l.0022-.0039zm-4.6528 4.6283c.7567.6299 1.7032 1.1179 2.6497.882.3849-.1143.7345-.3245 1.0159-.6109.2814-.2865.4854-.6398.5927-1.0267.1272-.4767.1421-.9765.0436-1.46-.0985-.4835-.3076-.9375-.6111-1.3266-1.16 1.2517-2.3924 2.4343-3.6908 3.5417v.0005zm.6148-6.819l-2.2713-2.377c-1.0723 1.1017-2.1606 2.1878-3.2963 3.2111l2.0349 2.5501c1.2384-1.0628 2.4178-2.1925 3.5327-3.3842zm1.8301-2.6452l-8.0443-8.4833-1.1356 1.3855 8.2807 8.658c.3717-.4744.6744-.9989.8992-1.558v-.0022zm.473-4.5961c-.4891.5008-.9621 1.0227-1.4356 1.5424l1.42 1.4957c.1865-1.0037.1918-2.0326.0156-3.0381zm2.4922-2.6764c-.4418.4722-.8834.9446-1.3248 1.4172.3206 1.1347.438 2.3171.3466 3.4927-.1055 1.5247-.5937 2.9983-1.4194 4.2845-1.4933 1.9153-3.1852 3.667-5.0474 5.2259l1.0411 1.3071c1.9838-1.6517 3.7867-3.5092 5.3784-5.5415 1.1238-1.6737 1.7419-3.6355 1.7806-5.6511.0379-1.5456-.2189-3.0842-.7567-4.5337l.0016-.0011zm-6.2776-9.2712c.4498-.4799 1.0258-.8233 1.662-.9906.6361-.1673 1.3065-.1518 1.9342.0446.586.184 1.13.4818 1.6009.8762.4709.3944.8595.8778 1.1434 1.4224.3199.5671.4705 1.2139.4342 1.864-.0362.65-.258 1.2761-.639 1.804-2.0348 2.0148-3.9751 4.1398-5.9309 6.232l1.1685 1.228c1.9714-2.125 3.9272-4.2817 5.9938-6.3121 1.435-1.4172 1.3248-3.9985.473-5.6043-.3827-.744-.9085-1.4052-1.5473-1.9454-.6388-.5403-1.378-.94908-2.1752-1.20289-.9867-.29593-2.0376-.30189-3.0275-.01717-.9899.28473-1.8771.84812-2.5557 1.62306.5041.3149.9932.6454 1.4667.9759l-.0011.0023zm4.9049 4.2844c.2644-.3112.4235-.6981.4547-1.1052.0311-.4072-.0672-.8138-.2811-1.1616-.4024-.7671-1.0865-1.3483-1.9085-1.6215-.3438-.1033-.7083-.1171-1.0589-.0399-.3506.0771-.6756.2425-.9443.4806 1.3667 1.0118 2.6198 2.1685 3.7375 3.4499l.0006-.0023zm-6.6215.0629l-2.1294 2.6286 3.1071 3.2428 2.4922-2.6152c-1.0145-1.2282-2.1804-2.323-3.4699-3.2584v.0022zm-2.6185-1.6693l-6.8163 8.4355 1.0573 1.3543 7.2085-8.9262c-.4891-.3149-.9621-.6121-1.4512-.8658l.0017.0022zm-13.7994-.2837c.6465.7233 1.2458 1.4956 1.8451 2.2513 1.2638-.7408 2.6742-1.1965 4.1326-1.3355 1.6492-.1558 3.3093.1494 4.7953.8814l1.7349-2.1567c-1.8417-.8465-3.8407-1.2969-5.8675-1.3221-2.3206-.0123-4.6061.5672-6.6404 1.6838v-.0022zm-2.366-2.1879c.4574.3622.9148.7556 1.341 1.1651 1.6911-1.0039 3.56-1.6721 5.5042-1.968 3.9278-.5821 8.3286.4568 12.9342 3.92.8437.6286 1.6496 1.3066 2.4132 2.0304.3945.3934.7412.7868 1.0723 1.1807l1.1684-1.2119c-1.0673-1.2563-2.2797-2.3818-3.6118-3.353-5.0156-3.77813-9.8426-4.87986-14.1799-4.25054-2.3606.36493-4.621 1.21154-6.6404 2.48724h-.0012zm-20.5043-1.7005c3.5693-2.10717 7.7693-2.88283 11.8558-2.1895 2.6501.48579 5.1728 1.5083 7.4133 3.0047 3.1637-2.10113 6.8972-3.1783 10.694-3.08538 2.9135.07956 5.7713.81685 8.3597 2.15672.8377-1.065 1.9742-1.85568 3.264-2.27074 1.2898-.41506 2.6741-.43562 3.9757-.05903 1.9632.62718 3.5971 2.00811 4.5427 3.83933 1.1512 2.204 1.1512 5.384-.7417 7.257-.3467.3305-.6622.661-.9933.9915.7503 1.7716 1.1209 3.6807 1.0879 5.6043-.0131 1.7073-.3895 3.3922-1.104 4.9428.9618.955 1.6812 2.1262 2.0983 3.4159.4368 1.4322.4312 2.9629-.0161 4.3919-.3396 1.1466-.9674 2.187-1.8235 3.022-.856.835-1.9117 1.4367-3.0664 1.7477-2.8072.6933-5.4731-.6121-7.4128-2.5345-3.5658 2.1065-7.7626 2.8819-11.8458 2.1884-2.6536-.49-5.1806-1.5121-7.4288-3.0047-.4257.2676-.8514.5353-1.2932.7868-2.1219 1.2087-4.4666 1.9755-6.8927 2.2541-2.4262.2787-4.8836.0635-7.2244-.6327-1.2521-.3805-2.4664-.876-3.6274-1.4801-.8385 1.0641-1.9751 1.8541-3.2648 2.2691-1.2896.4149-2.6737.4361-3.9754.0607-.9753-.308-1.8801-.8057-2.6624-1.4646-.7823-.6589-1.4266-1.466-1.8958-2.3748-1.1507-2.2029-1.1507-5.3834.7411-7.2564.3473-.3305.6789-.661 1.01-.9915-.7175-1.6663-1.0929-3.4597-1.104-5.2738-.032-1.8185.3453-3.6209 1.104-5.2739-.9635-.9569-1.6784-2.1349-2.0822-3.4314-.4501-1.4241-.4501-2.9523 0-4.3764.3395-1.1466.9672-2.1871 1.8231-3.02215.8559-.83508 1.9116-1.43691 3.0662-1.74806 1.4446-.35008 2.9644-.21155 4.3218.39395 1.159.50754 2.209 1.23441 3.0921 2.14056l.005.0022zm22.3166 8.184c.4035-.408.8308-.7917 1.2798-1.149-.5364-.6928-1.0728-1.37-1.6403-2.0149-2.7214-3.0234-6.3638-5.06497-10.363-5.80851-3.6569-.65479-7.4275.00301-10.6466 1.85731l1.0727 1.3355c2.8169-1.5476 6.078-2.0863 9.2429-1.5269 3.6324.6768 6.9413 2.5298 9.4164 5.2733.5675.6455 1.1039 1.3382 1.6403 2.031l-.0022.0022zm3.895 2.1567c-.4556.3552-.8686.7619-1.2308 1.2119l6.7194 8.4382 1.3249-1.0861-6.8135-8.564zm3.0442-2.4872c.7938-.0613 1.5914.0515 2.337.3305l1.1513-1.3354c-1.107-.5212-2.3278-.7539-3.5489-.6767-2.0449.1397-3.976.9919-5.4574 2.4083-1.0378.934-1.8518 2.0899-2.3816 3.3816-.5298 1.2918-.7618 2.6863-.6788 4.0801.1593 1.4391.6683 2.8174 1.4829 4.0146l1.0878-1.4017c-.5132-.8445-.8161-1.8-.8831-2.786-.0598-1.0657.1077-2.132.4914-3.1281.3837-.9961.9749-1.8992 1.7343-2.6493 1.2298-1.2922 2.8913-2.0878 4.669-2.2357l-.0039-.0022zm-3.2339 7.2892l-1.7188-2.1562c-.3356.6839-.5167 1.4333-.5303 2.1949-.0137.7617.1404 1.5171.4513 2.2126l1.7978-2.2513zm-13.9107-.0473l1.7193 2.1567c.3356-.684.5165-1.4335.5301-2.1953.0135-.7618-.1406-1.5172-.4516-2.2127l-1.7978 2.2513zM98.8471 42.958V33.26h6.7329v1.4006h-5.175v2.6452h2.886c1.041.0156 1.799.1569 2.337.6121.52.4568.71 1.1807.71 2.1567.038.3949-.007.7935-.131 1.1702-.125.3767-.327.7233-.593 1.0177-.648.5211-1.474.7696-2.302.6927h-4.4643l-.0006.0028zm4.3849-1.4172c1.435-.0629 1.483-.2832 1.546-1.464-.079-1.3387-.174-1.2758-1.67-1.3543h-2.696v2.8177h2.823l-.003.0006zm23.879 1.2748h-1.274l-.696-1.8574h-4.34l-.741 1.8574h-1.656l3.517-9.3981.063-.1569h1.848l3.656 9.5555h-.379l.002-.0005zm-5.869-3.2429h3.374l-1.686-4.5805-1.688 4.5805zm25.854 3.3848h-1.297v-4.235h-4.997v4.235h-1.547V33.26h1.547v4.062h4.997V33.26h1.564v9.6975h-.267zm18.69 0l-4.307-4.235h-.567v4.235h-1.564V33.26h1.564v4.062h.567l3.851-4.062h2.114l-4.579 4.6913 5.097 5.0078h-2.176v-.0016zM116.637 7.18863v2.51895c0 5.77742-6.294 5.96602-6.294 14.13602v7.7166h3.108v-8.1239c.103-2.8542.852-5.6478 2.192-8.17l.994-1.8574v18.1513h3.107V7.18863h-3.107zM163.371 7c-2.665 0-4.385 1.13344-4.385 3.1488v1.1329c0 2.204.946 2.5345 3.094 3.18.762.2441 1.43.7162 1.915 1.3525.484.6363.762 1.4061.795 2.2053 0 2.3453-2.615 3.589-4.652 3.589-.387-.003-.773-.0451-1.152-.1258v10.0775h3.094v-9.6184c1.074-.3326 2.02-.9865 2.71-1.8735v11.4919h3.094V10.3397c0-1.98313-1.375-3.33859-4.513-3.33859V7zm1.419 8.9585c-.646-1.2904-2.71-1.7316-2.71-3.4499V9.411c0-1.46396.868-1.54242 1.419-1.54242.645 0 1.291.11129 1.291 1.54242v6.5486-.0011zm-8.864 15.6017l-.017-24.37157h-3.088v4.97447l-2.699 4.1732V7.18863h-3.104V31.5602h3.104V18.1007l2.699-4.1086v17.5681h3.105zm-12.063-10.0747c-.386.073-.777.115-1.169.1257-2.415 0-4.652-1.5112-4.652-3.5889 0-1.7945 1.247-3.0047 2.76-3.5578 1.464-.5509 3.044-.5826 3.044-3.2112v-1.134c0-2.01479-1.719-3.11596-4.385-3.11596-3.138 0-4.512 1.35379-4.512 3.29016v21.2667h8.914V21.4849v.0006zm-5.759-12.23141c0-1.46396.773-1.51126 1.291-1.51126.478 0 1.424.0473 1.424 1.51126v3.10151c0 1.7316-1.897 2.125-2.715 3.4499V9.25353v.00056zm2.715 21.73961h-2.715V20.1156c.672.9152 1.626 1.5846 2.715 1.9052v8.9729zm-12.13-23.80507v3.43207c-.696 3.0854-2.715 4.8014-5.509 4.8014-.1.0034-.2-.0127-.295-.0473l-.016 16.1854h3.105V21.4538l2.715 4.1559v5.9505h3.088l.017-24.37157h-3.105zm0 16.82807l-2.715-4.1554V15.456c1.206-.5541 2.171-1.5275 2.715-2.7393v11.3028-.0028zm-21.469-8.5929v-5.1153c0-1.8106-1.23-3.25842-4.337-3.25842-3.4227 0-4.4793 1.44671-4.4793 3.69972v17.0166c0 2.2352 1.0572 3.6836 4.4473 3.6836 3.092 0 4.338-1.4467 4.338-3.259v-2.5813h-3.061v2.5813c0 1.6999-.078 2.6152-1.403 2.6152-1.057 0-1.28-.9459-1.28-1.9519l.016-19.18957c0-1.02327.222-1.96808 1.279-1.96808 1.373 0 1.42.94592 1.42 2.72315l-.016 5.0079h3.076v-.0039z"/>
</svg>
