<svg xmlns="http://www.w3.org/2000/svg" viewBox="0 0 200 50">
	<path fill="#005288" d="M55 5.54c-.82.29-1.48.5-2.1.7.08-.25.12-.5.21-.74-.275-.04262-.555-.04262-.83 0-.7.29-1.32.7-2 1-3.3 1.53-6.6 3.09-9.94 4.54-.523.1817-.9815.5123-1.319.9511-.3376.4389-.5395.9668-.581 1.5189v.12l-.62 4.7c-2.0876-1.8961-4.8098-2.9415-7.63-2.93-1.5854.0285-3.1495.3709-4.6018 1.0074-1.4523.6365-2.764 1.5546-3.8594 2.7011-1.0954 1.1465-1.9527 2.4988-2.5223 3.9786-.5697 1.4798-.8404 3.0578-.7965 4.6429-.0725 3.1811 1.1215 6.2608 3.3193 8.5618C23.9272 38.5927 26.9489 39.9266 30.13 40c1.7346.0108 3.4473-.3866 5-1.16.0861.0835.1837.1543.29.21 2.7649 1.9301 6.03 3.0173 9.4 3.13.701.0245 1.3892.1946 2.021.4993.6318.3047 1.1934.7374 1.649 1.2707.41.45.78.91 1.2 1.32h1.82c.58-.12 1.2-.25 1.69-.37.03-1.9-1.13-2.9-2.69-3.6-1.145-.4834-2.2603-1.0344-3.34-1.65-.7898-.4358-1.4849-1.0245-2.0446-1.7319-.5598-.7074-.9729-1.5192-1.2154-2.3881-.1686-.3582-.2069-.7639-.1083-1.1473.0986-.3833.3279-.7203.6483-.9527.17-.12.21-.45.29-.7.08-.25.08-.45.17-.66.12-.58.25-1.11.37-1.69.12-.74.25-1.53.37-2.27.1776-.8607.2946-1.7329.35-2.61 0-1-.25-2-.33-3 0-.5 0-1-.08-1.48-.12-1.53-.25-3.05-.37-4.62-.0637-.4044.0063-.8186.1994-1.1795.1931-.361.4988-.6491.8706-.8205.3718-.2093.7293-.4431 1.07-.7.1295-.1603.2279-.3435.29-.54.33-.5 1.28-.21 1.44-1.07.4919-.208.9726-.4417 1.44-.7.12-.08.08-.33.17-.62.33-.21.78-.54 1.36-.91l-.78-.33c.2488-.0505.4906-.13109.72-.24.62-.37 1.28-.7 1.86-1.11.12-.08.12-.33.21-.49l-.49-.12h-.54c.62-.66 1.65-.83 1.9-2.06l.06.03zM30.17 38.78c-2.9506-.0876-5.751-1.3213-7.807-3.4393-2.0561-2.1181-3.2062-4.9538-3.2062-7.9057s1.1501-5.7876 3.2062-7.9057c2.056-2.118 4.8564-3.3517 7.807-3.4393 2.8073 0 5.5083 1.0732 7.55 3-.25 2-.5 3.92-.74 5.9-.21 1.73-.29 3.47-.5 5.2-.0286.3959-.1574.778-.3743 1.1103-.217.3324-.5149.6042-.8657.7897-.7258.2367-1.5029.2686-2.2457.0921-.7427-.1764-1.4224-.5543-1.9643-1.0921-.3025-.4323-.7254-.7662-1.2161-.96-.4908-.1938-1.0277-.239-1.5439-.13-.4121.0565-.8316-.0169-1.2-.21-.343-.1922-.7365-.2751-1.1279-.2376-.3913.0375-.7619.1937-1.0621.4476.8278.2478 1.599.6555 2.27 1.2.82.95 1.86 1.61 2.76 2.47.9.86 3 3 4.37 4.25-1.3032.5444-2.6979.8362-4.11.86zM183 34.7h-4c-.294-.0517-.559-.2124-.74-.45-1.86-2.43-3.67-4.91-5.53-7.34-.12-.17-.25-.29-.45-.54v8.33h-3.51v-17h3.42v7.1h.16c.66-.74 1.28-1.48 1.94-2.27 1.28-1.48 2.56-3 3.84-4.54.057-.086.13-.1596.216-.2163.086-.0568.183-.0954.284-.1137h4l-7.1 7.71c1.53 1.9 3.05 3.8 4.58 5.65.95 1.15 1.94 2.35 2.93 3.51l-.04.17zm-91.2-17v17h-3.47v-14h-.12c-.08.17-.12.29-.21.45-1.44 4.33-2.93 8.66-4.37 13-.16.45-.37.62-.83.58-.7294-.0414-1.4606-.0414-2.19 0-.41 0-.58-.12-.74-.54-1.44-4.33-2.93-8.66-4.37-13-.0454-.1916-.1462-.3655-.29-.5v14h-3.46v-17h5.53c.16 0 .41.25.45.45l3.34 9.65c.21.62.45 1.24.7 2l1.9-5.45c.7-2.06 1.4-4.12 2.14-6.19.08-.21.29-.5.45-.5 1.82.01 3.64.01 5.54.01v.04zm27.2 17v-17h11v3h-7.34v3.51h3.26c.875-.0389 1.746.1367 2.537.5114.791.3747 1.479.9373 2.003 1.6386 1.9 2.8 1.2 7.43-3.46 8.13-1.412.1398-2.831.1966-4.25.17-1.2.08-2.39 0-3.67 0l-.08.04zm3.57-2.7c1 0 1.9.08 2.85 0 .56.0034 1.099-.2086 1.507-.5921.408-.3834.652-.909.683-1.4679.12-1.44-.33-2.43-1.53-2.68-1.174-.1937-2.36-.304-3.55-.33V32h.04zm28.25-14.3h3.38v6.76h6.85V17.7h3.46v17h-3.41v-7.3h-6.85v7.3h-3.46v-17h.03zm-41.46 17h-3.42V20.55h-6.68v14.11H95.8V17.75h13.57l-.01 16.95zm22.32 0c2.27-5.73 4.54-11.34 6.81-17h3.71c.16 0 .37.29.45.49 1.49 3.67 2.93 7.3 4.37 11 .66 1.65 1.32 3.34 2 5 .059.1842.129.3646.21.54h-3.63c-.16 0-.37-.25-.41-.41-.37-.95-.7-1.9-1.07-2.81-.029-.1683-.123-.3186-.261-.4193-.138-.1007-.31-.144-.479-.1207h-6c-.158-.0185-.317.0224-.447.1149-.129.0924-.219.2297-.253.3851-.33 1-.7 1.94-1.07 2.89-.08.17-.33.41-.5.41-1.11-.03-2.23-.07-3.42-.07h-.01zm11.14-6.7c-.83-2.27-1.61-4.45-2.39-6.68h-.12c-.74 2.19-1.49 4.41-2.27 6.68h4.78zM69.56 18c0 1-.08 1.94-.17 2.89-.83-.17-1.65-.41-2.43-.5-2.06-.21-4 .08-5.49 1.69-.8264.8878-1.3643 2.0052-1.5428 3.2048-.1785 1.1997.0107 2.4253.5428 3.5152.87 2.19 2.76 3.05 5 3.09 1.3169-.0666 2.6272-.2304 3.92-.49.08.78.12 1.73.21 2.72-3.75 1.07-7.34 1.2-10.56-1.36-1.1797-.9571-2.0066-2.2802-2.35-3.76-.5502-1.9713-.4909-4.063.17-6 .5518-1.6802 1.6964-3.102 3.22-4 1.4248-.814 3.0031-1.3232 4.635-1.4953 1.6319-.1721 3.2817-.0035 4.845.4953z"/>
	<path fill="#00AEEF" d="M20.56 19.85L18.7 18c.7032.2982 1.3907.6319 2.06 1v-4.14l1.11 4 2.39-2.39-1.86 2.93H25l-2.64.78 1.73 2L22.17 21v3.71l-1.07-3.59-2.6 2.44 2.06-2.93H18l2.56-.78zm14.23.41c.08.95.17 1.86.29 2.8l.62 4.58c.17 1.15.33 2.27.5 3.42.1258-.2585.2102-.5352.25-.82.25-1.73.29-3.46.5-5.2.45-3.75.95-7.55 1.44-11.3v-.12c.0415-.5521.2434-1.08.581-1.5189.3375-.4388.796-.7694 1.319-.9511C43 10 45.72 8.71 48.4 7.43c.1212-.18004.2187-.37498.29-.58-.2897-.01804-.5803-.01804-.87 0 .3571-.2655.7276-.51249 1.11-.74.2012-.09791.3638-.2605.4617-.46174.0979-.20124.1255-.4295.0783-.64826h-.78c-.87.41-1.73.83-2.6 1.28-3.42 1.72-6.85 3.46-10.27 5.15-.3702.1518-.6923.4013-.9318.7219-.2395.3205-.3875.7-.4282 1.0981-.0823 1.2486-.0823 2.5014 0 3.75 0 1.11.21 2.19.29 3.26h.04z"/>
</svg>
