<svg xmlns="http://www.w3.org/2000/svg" viewBox="0 0 200 50">
	<path fill="#0164A9" d="M71.5453 16.7848h-2.203v-1.3009h4.9066v-2.502h-8.6115v9.6074h5.6075c1.4018 0 2.5033-.3002 3.2042-1.0008.5007-.5003.8011-1.1008.8011-1.9014 0-.8007-.3004-1.5011-.8011-2.0016-.7009-.6004-1.7022-.9007-2.9038-.9007Zm-.5007 3.6028c-.2003.2001-.5007.3002-.801.3002h-1.1015v-2.0015h1.0013c.4005 0 .7009.1001.9012.3002.2003.2002.3004.4004.3004.7006.1002.3002 0 .6004-.3004.7005Zm7.8103-7.4057-3.4044 9.6074h3.7049l.6007-2.1016H82.66l.6008 2.1016h3.9052l-3.3044-9.6074h-5.0067Zm1.4019 5.4042 1.0013-3.0023 1.0014 3.0023h-2.0027Zm14.1187-2.0015h-2.4032v-3.4027h-3.7049v9.7075h3.7049v-3.6028h2.4032v3.6028h3.7049v-9.7075h-3.7049v3.4027Zm12.2165 1.1008 3.304-4.5035h-4.206l-2.303 3.8029h-.1v-3.8029h-3.7046v9.7075h3.7046v-4.1032h.1l2.303 4.1032h4.406l-3.504-5.204Zm-51.9692-7.1055-10.1134 5.9046V4.67552c-3.7049-.90069-6.9091-.90069-9.6127 0V16.2845L24.8834 10.48c-2.6034 2.8021-4.2056 5.5042-4.8063 8.3064l9.3098 5.4277 10.4496-6.11c3.4477 2.0077 6.2067 3.614 8.4079 4.8952l1.8892 1.0995 9.3958-5.4125c-1.0014-3.2024-2.7036-5.9045-4.9066-8.3064Zm-4.823 13.805-9.9502-5.7725-9.998 5.883c1.2109.2295 2.2519.5157 3.3417.8157.3292.0908.6621.1826 1.006.2745 2.2001.5998 4.2001.2999 5.6005-.9007 1.8995-1.0004 3.8994-1.4 5.5996-1.1997 2.1006.1993 3.4004.5002 4.4004.8997Zm-25 14.606C22.7002 36.8897 21.0996 34.1886 20 30.487l9.834-6.1809L40 30.2877l9.8965-6.0392 9.4033 6.1389c-1 3.2014-2.5 6.0022-4.7998 8.3028l-10.0996-5.8019v11.7044c-3.2002.7005-6.4004.8002-9.6006 0V32.9879l-10 5.803Zm48-12.5046c-.25 0-.4755-.0254-.7002-.0508-.1136-.0128-.2272-.0254-.344-.0347-.1143-.0091-.2316-.0151-.3552-.0151-2 0-3.5.5001-4.5 1.6011-.3213.3205-.5781.6673-.7764 1.0434-.3584.68-.5244 1.4565-.5244 2.3573 0 1.5006.5 2.7012 1.5 3.6019.6338.5705 1.4688.9809 2.4541 1.2045.5684.129 1.1875.1954 1.8467.1954.3994 0 .7998 0 1.1992-.0996.5 0 .9004-.1007 1.4004-.3v-2.5009c-.5.1993-.7998.3-1.0996.3h-.8008c-1 0-1.6992-.3-2.1992-.9007-.3008-.3996-.5-.8998-.5-1.6002 0-.7005.2998-1.3003.6992-1.8005.0781-.0781.1592-.1495.2432-.2139.4512-.3439.9834-.4865 1.6572-.4865.2998 0 .7002 0 1 .0996l.9004.2999v-2.5009h-.2002c-.1074-.0264-.208-.0528-.3008-.0782-.2529-.0674-.4531-.1211-.5996-.1211Zm8.5 3.4007h-2.5v-3.3011h-3.7002v9.6031h3.7002v-3.5012h2.5v3.5012H85v-9.6031h-3.7002v3.3011ZM90 32.1879h4.5v-2.1004H90v-1.4009h4.7002v-2.3007h-8.2998v9.6031h8.3994v-2.3006H90v-1.5005Zm22.3-5.7023h-4l-2.1 4.0014h-.1v-4.0014h-3.6v4.0014h-.1l-2.2-4.0014h-3.9002l3 4.402-3.5 5.1014H100.2l2.2-4.3013h.1v4.3013h3.6v-4.3013h.1l2.1 4.3013h4.4l-3.4-5.1014 3-4.402Zm5.2 5.4023h-.1v-5.502h-3.7v9.6031h4.3l2.5-5.4013v5.4013h3.7v-9.6031h-4.3l-2.4 5.502Zm14.3-2.2009h-2.4v-3.3011h-3.7v9.6031h3.7v-3.5012h2.4v3.5012h3.7v-9.6031h-3.7v3.3011Zm11.4 4.0014c-1 0-1.8-.2999-2.2-.8997-.3-.4006-.5-.9008-.5-1.6012 0-.7005.3-1.3003.7-1.8005.5-.5001 1.1-.7004 1.9-.7004.3 0 .7 0 1 .1006l.9.2999v-2.5009h-.2c-.242-.0484-.437-.0968-.585-.1336l-.013-.0032c-.151-.038-.252-.0635-.302-.0635-.25 0-.475-.0249-.7-.0498-.225-.0248-.45-.0498-.7-.0498-.703 0-1.344.0615-1.924.1896-1.069.2364-1.928.6974-2.576 1.4106-.9.9007-1.3 2.0007-1.3 3.4016 0 1.5006.5 2.7003 1.5 3.6009 1 .9007 2.5 1.401 4.3 1.401.4 0 .8 0 1.2-.1007.185 0 .356-.0137.523-.041.286-.0469.561-.1328.877-.2589v-2.5009c-.5.2003-.8.2999-1.1.2999-.209-.0694-.418-.042-.594-.0186-.076.0098-.145.0186-.206.0186Zm13.1-7.3025h-4.2l-2.3 3.8013v-3.8013h-3.7v9.6031h3.7v-4.0014l2.4 4.0014h4.4l-3.5-5.1014 3.2-4.5017Zm5.1 5.502h-.1v-5.502h-3.7v9.6031h4.3l2.5-5.4013v5.4013h3.7v-9.6031h-4.3l-2.4 5.502Zm11.2-6.7026c.6.4006 1.3.6008 2.2.6008.9 0 1.6-.2002 2.2-.6008.6-.3995.9-.8997 1-1.6001l-1.6-.3c0 .0811-.007.1544-.024.2208-.045.1798-.157.3068-.376.379l-.005.0018c-.298.0991-.598.1985-1.095.1985-.4 0-.7 0-1-.2003-.3-.2002-.5-.4005-.5-.7004l-1.7.4006c0 .7004.3 1.2006.9 1.6001Zm3.1 1.2006-2.5 5.502v-5.502h-3.7v9.6031h4.3l2.5-5.4013v5.4013h3.7v-9.6031h-4.3Z"/>
</svg>