<svg xmlns="http://www.w3.org/2000/svg" viewBox="0 0 200 50">
	<path fill="#DB0334" d="M162.719 15.6384h1.845c.813 0 1.247-.4898 1.247-1.1427 0-.7074-.543-1.0339-1.247-1.0339h-1.845v2.1766zM166.896 9v1.3603h-4.177v1.6324h2.061c1.519 0 2.713.925 2.713 2.503 0 1.5779-1.14 2.4485-2.767 2.4485h-3.688V9h5.858zM173.405 13.9515h2.115l-1.085-3.1559-1.03 3.1559zM175.411 9l2.767 7.9986h-1.791l-.488-1.6323h-2.929l-.542 1.6323h-1.735L173.459 9h1.952zM183.114 12.0471h3.091V9h1.682v7.9986h-1.682v-3.5912h-3.091v3.5912h-1.628V9h1.628v3.0471zM193.093 12.2647L196.131 9h2.115l-3.2 3.2647 3.417 4.7339h-2.17l-2.44-3.5368-.76.8162v2.7206h-1.681V9h1.681v3.2647z"/>
	<path fill="#DB0334" d="M43.3917 34.7919l.2712.1088-.4339 1.7956c-1.1933.5985-2.495.8706-4.068.8706-1.0848 0-2.1154-.1633-3.0374-.4897-.9221-.3265-1.7899-.8162-2.4408-1.4148-.7051-.5985-1.2475-1.3603-1.6272-2.2309-.3797-.8162-.5966-1.7956-.5966-2.8295 0-1.3058.2169-2.4485.6508-3.4823.434-.9794.9764-1.8501 1.7357-2.503s1.6272-1.1427 2.6036-1.4691c.9763-.3265 2.061-.4898 3.2001-.4898.7051 0 1.4102.1089 2.2238.2721.7593.1633 1.4103.4353 2.0069.7618-.0543.3265-.1628.6529-.2712 1.0882-.1085.4353-.1627.7618-.217 1.0339h-.2712c-.3797-.5986-.8678-1.0339-1.5187-1.3604-.6509-.3264-1.2475-.544-1.8984-.544-.8136 0-1.5187.1632-2.1696.544-.5966.3809-1.139.8707-1.5187 1.4692-.3797.5985-.7051 1.3059-.8678 2.0133-.217.7617-.2712 1.5235-.2712 2.2853 0 1.197.1627 2.2309.5424 3.1015.3796.925.9221 1.6324 1.6814 2.1221s1.6272.7618 2.6578.7618c.6508 0 1.3017-.1633 1.9526-.4353.6509-.1633 1.2475-.5442 1.6814-.9794zM60.1519 27.5552c-.2712-.8706-.6508-1.6324-1.2475-2.3398-.5966-.7073-1.356-1.3059-2.3323-1.7412s-2.1696-.6529-3.5798-.6529c-1.2476 0-2.3866.2176-3.4171.5985-1.0306.2721-1.8442.8162-2.5493 1.4692-.7051.7074-1.2475 1.4691-1.6272 2.3941-.3797.925-.5424 1.85-.5424 2.8839 0 1.5235.3254 2.8838.9763 3.9721.5967 1.0882 1.5187 1.9588 2.6578 2.5574 1.139.5985 2.495.8706 4.0138.8706 1.2475 0 2.3323-.2177 3.3628-.5986 1.0306-.3808 1.8441-.925 2.6035-1.6323.7051-.7074 1.2475-1.4692 1.6272-2.3942.3797-.8706.5424-1.85.5424-2.8839-.0542-.8162-.217-1.6867-.4882-2.5029zm-5.3697-3.0471c.5424.3265 1.0306.7617 1.356 1.3059.3796.5441.5966 1.197.7594 1.85.1627.6529.2712 1.3603.2712 2.0677 0 1.197-.1628 2.2853-.4882 3.2647-.3255 1.0338-.8678 1.8501-1.5187 2.4486-.7051.5985-1.573.925-2.5493.925-.9763 0-1.7899-.2721-2.4408-.8162-.6509-.5441-1.139-1.1971-1.4102-2.0676-.3255-.8706-.434-1.7412-.434-2.7207 0-1.5236.1628-2.775.5425-3.8089.3796-1.0338.8678-1.7412 1.5729-2.2853.7051-.4897 1.5187-.7618 2.4408-.7618.7051.1089 1.356.2721 1.8984.5986zM66.5526 23.093s.1625 0 .3796.0544c.2164.0544.3796.0544.4882.0544h.2164c.0546 0 .1632 0 .2171-.0544.1086 0 .1632 0 .2171-.0544h.2171c.4336 1.2515.8678 2.3942 1.2474 3.3192.3796.9794.8138 2.1221 1.3559 3.5368.5428 1.4147.9763 2.503 1.302 3.2647.325.8162.8677 2.1221 1.627 4.0266-.2711 0-.4882-.0545-.7053-.0545-.2165 0-.3796-.0544-.5967-.0544h-1.0303c-.2171 0-.4342.0544-.5967.0544-.2171 0-.4335.0545-.7053.0545-.2164-.7618-.4881-1.578-.7592-2.4486-.271-.8706-.5421-1.6324-.8138-2.2309-.2164-.653-.596-1.5236-.9763-2.6662-.4335-1.1427-.8132-2.0677-1.0842-2.8839-1.6818 4.0809-2.9293 7.4546-3.7971 10.2296-.3255-.0545-.6509-.0545-.9763-.0545-.3255 0-.6509 0-.9763.0545.5966-1.3604 1.139-2.6118 1.6271-3.7545.4882-1.1427.9221-2.2853 1.4103-3.3736.4339-1.0882.9221-2.2309 1.356-3.4279.4881-1.1427.9221-2.3398 1.3563-3.5913zM76.0986 37.3486V23.2013c.2171 0 .4336.0544.5967.0544.1625 0 .325.0545.4882.0545H78.0513c.1625 0 .3256-.0545.5421-.0545.1631-.0544.3796-.0544.5967-.0544v9.7399c.5967-.653 1.302-1.4148 2.0072-2.2854.7046-.8706 1.4099-1.6867 2.0612-2.5029.6507-.8162 1.3013-1.6868 2.0066-2.5575.6506-.925 1.2474-1.6867 1.7901-2.3941h1.573V37.403c-.1631 0-.4342 0-.7598-.0544-.325 0-.5967-.0544-.8132-.0544-.1631 0-.4342 0-.7599.0544-.325 0-.596.0544-.7592.0544v-9.7943c-.5967.7074-1.1934 1.4148-1.844 2.1221-.6507.7618-1.302 1.578-2.1152 2.5574-.8138.9794-1.5191 1.9045-2.1697 2.7207-.6507.8706-1.2474 1.6323-1.7355 2.3397-.1632 0-.3796-.0544-.6514-.0544-.3796.0544-.7046.0544-.9217.0544zM91.0685 36.8589c0 .4353-.054.8162-.1079 1.0883h.325c.271-.3265.6513-.4897 1.2473-.5985.5968-.1089 1.3566-.1633 2.2783-.1633h6.0748c.814 0 1.519.0544 2.115.1633.597.0544 1.031.272 1.248.5985h.325c-.108-.3809-.108-.7618-.108-1.0883 0-.0544.054-.4353.108-1.0882h-.976c-1.898-4.6795-3.526-8.9237-4.8815-12.6237-.1086 0-.2711 0-.4336.0544h-.8684c-.1625 0-.325-.0544-.4335-.0544-.3257.8706-.6507 1.85-1.0849 2.9383-.4342 1.0882-.8678 2.1765-1.3559 3.3191-.4882 1.1971-.8678 2.1765-1.2474 2.9927-.3257.8162-.8138 1.9589-1.4105 3.3736h-.8678c0 .4353.054.7617.054 1.0882zm3.9052-1.0882c-.6506-.0545-1.0842-.0545-1.4098-.0545.6506-1.9588 1.7901-4.8971 3.3085-8.7059.7053 1.9588 1.3559 3.5912 1.8441 4.8971.4882 1.3059.9224 2.6118 1.3015 3.8088-.3252 0-.8673 0-1.5186.0545h-1.8441c-.4881.0544-1.0303.0544-1.6816 0zM115.205 37.2944c.163 0 .488 0 .868-.0544.38 0 .651-.0544.868-.0544.217 0 .488 0 .868.0544.38 0 .705.0544.922.0544l-5.749-14.3105c-.272.0544-.489.0544-.76.0544s-.488 0-.759-.0544l-5.858 14.3105H107.558c.108-.3809.216-.7618.379-1.2515.163-.4353.325-.9794.543-1.578.217-.5985.379-1.0882.488-1.4691h4.827c.325.8706.814 2.2853 1.41 4.2986zm-3.742-10.3928l1.844 4.8427h-3.743l1.899-4.8427zM126.542 30.7646c.922-.272 1.626-.7073 2.169-1.3603.542-.6529.813-1.5779.813-2.7206s-.379-2.0677-1.138-2.6117c-.76-.5986-1.844-.8707-3.255-.8707h-5.044v14.1473c.162 0 .434 0 .759-.0544.326 0 .597-.0544.759-.0544.163 0 .435 0 .76.0544.325 0 .597.0544.759.0544V31.2c1.302-.0544 2.441-.2177 3.418-.4354zm-2.17-6.475c.543 0 1.031.272 1.356.7618.379.4896.542 1.1426.542 1.9588 0 .7073-.163 1.3059-.434 1.7956-.325.4897-.759.8162-1.41 1.0339-.271.0544-.759.1088-1.356.1632v-5.7133h1.302zM131.477 37.2942V23.147c.217 0 .434.0544.597.0544.163 0 .325.0544.488.0544h.868c.163 0 .325-.0544.488-.0544.163-.0544.38-.0544.596-.0544v5.6044c1.737.0545 2.767.1089 3.146.1089.326 0 1.356-.0544 3.147-.1089V23.147c.217 0 .433.0544.596.0544.163 0 .325.0544.488.0544h.868c.163 0 .326-.0544.488-.0544.163 0 .38-.0544.597-.0544v14.1472c-.163 0-.434 0-.759-.0544-.326 0-.597-.0544-.76-.0544-.163 0-.434 0-.759.0544-.326 0-.597.0544-.759.0544v-6.9103c-1.411-.0545-2.496-.0545-3.147-.0545-.705 0-1.79 0-3.146.0545v6.9103c-.162 0-.433 0-.759-.0544-.325 0-.596-.0544-.759-.0544-.162 0-.434 0-.759.0544-.326.0544-.597.0544-.76.0544zM161.797 27.5552c-.271-.8706-.705-1.6324-1.302-2.3398-.596-.7073-1.356-1.3059-2.332-1.7412-.976-.4353-2.17-.6529-3.579-.6529-1.248 0-2.387.2176-3.364.5985-1.03.3809-1.898.925-2.549 1.578-.705.7074-1.247 1.4691-1.573 2.3941-.38.925-.542 1.85-.542 2.8839 0 1.5236.326 2.8838.976 3.9721.651 1.0883 1.519 1.9589 2.658 2.5574 1.139.5986 2.495.8706 4.014.8706 1.247 0 2.332-.2176 3.362-.5986 1.031-.3808 1.899-.925 2.604-1.6323.705-.7074 1.248-1.4692 1.627-2.3942.38-.8706.542-1.85.542-2.8838-.162-.9251-.271-1.7956-.542-2.6118zm-5.369-3.0471c.542.3265 1.03.7617 1.356 1.3059.379.5441.596 1.197.759 1.85.162.6529.271 1.3603.271 2.0677 0 1.197-.163 2.2853-.488 3.2647-.325 1.0338-.868 1.8501-1.573 2.4486-.705.5985-1.519.925-2.549.925-.976 0-1.79-.2721-2.441-.8162-.651-.5441-1.139-1.1971-1.41-2.0676-.326-.8706-.435-1.7412-.435-2.7207 0-1.5236.164-2.775.543-3.8089.38-1.0338.868-1.7412 1.573-2.2853.705-.4897 1.519-.7618 2.441-.7618.705.1089 1.356.2721 1.953.5986zM175.628 34.6283l.272.1088-.434 1.7956c-1.139.5986-2.495.8706-4.068.8706-2.007 0-4.014-.5441-5.533-1.9044-.704-.5985-1.247-1.3603-1.627-2.2309-.379-.8706-.597-1.7957-.597-2.8295 0-1.3059.218-2.4485.651-3.4824.434-.9794 1.031-1.85 1.736-2.4486.76-.6529 1.627-1.1426 2.604-1.4691.976-.3265 2.061-.4897 3.2-.4897.705 0 1.41.1088 2.223.272.76.1633 1.411.4354 2.008.7618-.054.3265-.163.653-.218 1.0883-.108.4353-.162.7618-.217 1.0338h-.271c-.379-.5985-.921-1.0338-1.518-1.3603-.651-.3264-1.248-.4897-1.899-.4897-.814 0-1.573.1633-2.17.5441-.596.3809-1.084.8706-1.518 1.4691-.38.5986-.705 1.306-.868 2.0133-.163.7618-.271 1.5236-.271 2.2854 0 1.1426.163 2.2309.597 3.1015.38.925.922 1.6323 1.681 2.1221.759.4897 1.627.7618 2.658.7618.596 0 1.247-.1633 1.952-.4354.597-.272 1.139-.6529 1.627-1.0882zM184.741 24.6704V37.403c-.163 0-.434 0-.759-.0544h-1.52c-.379 0-.596.0544-.759.0544V24.6704c-1.139 0-2.441.1089-3.851.2721.055-.4897.108-.7617.108-.8705 0-.1089-.053-.381-.108-.8707h10.577c0 .1089-.054.2177-.054.3265 0 .1088-.055.1632-.055.272v.5442c0 .1088.055.2176.055.272 0 .1088.054.2177.054.3265-1.627-.2177-2.875-.2721-3.688-.2721zM192.768 23.1474c-.325 0-.596.0544-.813.0544-.218 0-.489 0-.814-.0544-.325 0-.542-.0544-.705-.0544v14.1473h4.122c1.573 0 2.82-.3265 3.851-.9795.976-.6529 1.465-1.85 1.465-3.5368 0-1.1426-.38-2.0132-1.139-2.6118-.76-.5985-1.845-.8706-3.309-.8706h-2.007V23.093c-.109.0544-.326.0544-.651.0544zm2.007 7.2913c.543 0 .976.2721 1.356.7618.379.5441.543 1.1426.543 2.0132 0 .7074-.164 1.306-.489 1.7956-.271.4898-.759.8706-1.41 1.0339-.326.1088-.814.1632-1.356.1632v-5.7677h1.356zM15.2414 19.5561c.2712 0 .5423-.1089.8678-.2177l9.6005-3.6456c-1.3018-2.0677-4.8816-6.31191-10.3598-6.63839C14.9159 9 14.482 9 14.1024 9c-5.31556 0-9.38354 2.3942-11.98705 6.6384C.379678 18.4134 0 21.2428 0 23.3649c0 1.4147.162719 2.503.271199 3.0471.162719 1.2515.813601 2.503 1.139041 2.7206.21695.1633.59663.2721.92207.2721.21696 0 .48816-.0544.70512-.1088l9.49197-3.5912c-.2712-.4898-.8678-1.5236-1.9526-3.8633-1.68147-3.7001-2.33233-5.931-2.49509-7.5634.05428-.2176.05428-.3265.05428-.4353 0-.4897.27118-.9794.75934-.9794.65085.0544 1.19327.5985 1.84417 1.2515 1.1933 1.1971 2.9289 4.1353 3.5256 4.9515.3254.3809.5966.4898.9763.4898z"/>
	<path fill="#DB0334" d="M13.2887 27.3912c-.2712 0-.5967.0544-.8679.2176l-9.54617 3.6457c1.30176 2.0677 4.8816 6.2574 10.35977 6.6382.4339.0545.8136.0545 1.2475.0545 5.2613 0 9.3835-2.3942 11.987-6.6383 1.6815-2.7751 2.1154-5.6045 2.1154-7.781 0-1.4148-.1627-2.4486-.2712-2.9927-.1627-1.2515-.8136-2.503-1.1933-2.7206-.2169-.1633-.5966-.2721-.9763-.2721-.2169 0-.4881.0544-.7051.1088l-9.492 3.5912c.2712.4898.8679 1.5236 1.9527 3.8633 1.6814 3.7001 2.3323 5.8766 2.495 7.5634v.3808c0 .4898-.2712.9795-.7051.9795-.6509-.0545-1.1933-.5985-1.8442-1.2515-1.1932-1.1971-2.9289-4.1353-3.5255-4.9516-.3255-.3264-.651-.4352-1.0306-.4352z"/>
</svg>
