<svg xmlns="http://www.w3.org/2000/svg" viewBox="0 0 200 50">
	<g fill="#ff4b5f">
		<path d="M93.3 17.7L87 24.1h-2.5v-6.4H82V33h2.5v-6.4H87l6.3 6.4h3.3l-7.5-7.6 7.6-7.7zM34 22.1c.5-.7 1.2-1.3 2-1.7.8-.4 1.7-.6 2.6-.6 1.3 0 2.7.5 3.7 1.4l2-2c-1-.9-2.2-1.6-3.5-1.9-1.3-.3-2.7-.4-4 0-1.3.3-2.5.9-3.6 1.8-1 .9-1.8 2-2.3 3.3-.5 1.3-.7 2.6-.5 4 .2 1.3.6 2.6 1.4 3.7.8 1.1 1.8 2 3 2.7s2.5 1 3.9 1c2 0 4-.7 5.5-2.1l-2-1.9c-.7.6-1.5 1-2.4 1.1-.9.2-1.8.2-2.6-.1-.9-.2-1.6-.7-2.3-1.3-.7-.6-1.1-1.4-1.4-2.2-.3-.8-.4-1.7-.3-2.6 0-1 .3-1.9.8-2.6zM3.6 16.6C1.3 18.9 0 22.1 0 25.3s1.3 6.4 3.6 8.7c2.3 2.3 5.5 3.6 8.7 3.6h.5V33h-.5c-2-.1-3.9-.9-5.2-2.3C5.7 29.3 5 27.4 5 25.4s.8-3.9 2.1-5.3c1.4-1.4 3.3-2.3 5.2-2.3h.5V13h-.5c-3.2 0-6.4 1.3-8.7 3.6zM60.2 19.4c-1.6-1.6-3.7-2.4-5.9-2.4-1.6 0-3.3.5-4.6 1.4-1.4.9-2.4 2.2-3.1 3.7-.6 1.5-.8 3.2-.5 4.8.3 1.6 1.1 3.1 2.3 4.3 1.2 1.2 2.6 2 4.3 2.3 1.6.3 3.3.2 4.8-.5 1.5-.6 2.8-1.7 3.7-3.1.9-1.4 1.4-3 1.4-4.6.1-2.2-.8-4.3-2.4-5.9zm-.7 8.1c-.3.7-.7 1.3-1.2 1.8s-1.1.9-1.8 1.2c-.7.3-1.4.4-2.1.4-1.1 0-2.2-.3-3.1-.9-.9-.6-1.6-1.5-2.1-2.5-.4-1-.5-2.1-.3-3.2s.7-2.1 1.5-2.9 1.8-1.3 2.9-1.5c1.1-.2 2.2-.1 3.2.3s1.9 1.1 2.5 2.1c.6.9.9 2 .9 3.1 0 .7-.2 1.4-.4 2.1z"/>
		<path d="M110.9 19.4c-1.6-1.6-3.7-2.4-5.9-2.4-1.6 0-3.3.5-4.6 1.4-1.4.9-2.4 2.2-3.1 3.7-.6 1.5-.8 3.2-.5 4.8.3 1.6 1.1 3.1 2.3 4.3 1.2 1.2 2.6 2 4.3 2.3 1.6.3 3.3.2 4.8-.5 1.5-.6 2.8-1.7 3.7-3.1.9-1.4 1.4-3 1.4-4.6.1-2.2-.8-4.3-2.4-5.9zm-.7 8.1c-.3.7-.7 1.3-1.2 1.8s-1.1.9-1.8 1.2c-.7.3-1.4.4-2.1.4-1.1 0-2.2-.3-3.1-.9-.9-.6-1.6-1.5-2.1-2.5-.4-1-.5-2.1-.3-3.2s.7-2.1 1.5-2.9c.8-.8 1.8-1.3 2.9-1.5 1.1-.2 2.2-.1 3.2.3s1.9 1.1 2.5 2.1c.6.9.9 2 .9 3.1 0 .7-.1 1.4-.4 2.1zM130.8 17.7l-6.2 7.4-6.2-7.4v.1-.1h-2.5V33h2.5V21.8l6.2 7.4 6.2-7.3V33h2.4V17.7zM77.5 25.3c.4-.4.8-.9 1-1.5.2-.6.4-1.1.4-1.7 0-.6-.1-1.2-.3-1.7s-.5-1-1-1.4c-.4-.4-.9-.7-1.4-1-.5-.2-1.1-.3-1.7-.3h-9V33h9c1.2 0 2.3-.5 3.1-1.3.8-.8 1.3-1.9 1.3-3.1 0-.6-.1-1.2-.4-1.8-.2-.6-.6-1.1-1-1.5zM75.9 30c-.4.4-.9.6-1.4.6H68v-4h6.5c.5 0 1 .2 1.4.6.4.4.6.9.6 1.4 0 .5-.2 1-.6 1.4zm.8-7c-.1.3-.3.5-.5.7-.2.2-.5.3-.8.4-.3.1-.6.1-.9 0H68v-3.9h6.5c.3-.1.6-.1.9 0 .3.1.6.2.8.4.2.2.4.4.5.7.1.3.2.6.2.9s-.1.5-.2.8z"/>
	</g>
	<path fill="#003791" d="M14.8 13.3v6.4h-2.5c-1.5 0-2.9.6-4 1.7s-1.7 2.5-1.7 4 .6 2.9 1.7 4 2.5 1.7 4 1.7h2.5v6.4c2.8-.6 5.3-2.1 7.1-4.3 1.8-2.2 2.8-5 2.8-7.8s-1-5.6-2.8-7.8c-1.8-2.3-4.3-3.8-7.1-4.3zM159.9 17.7h-2.8L150.4 33h2.6l1.5-3.3h7.9l1.5 3.3h2.7l-6.7-15.3zm-4.3 9.6l2.9-6.5 2.9 6.5h-5.8zM200 17.7h-3.3l-6.4 6.4h-2.5v-6.4h-2.5V33h2.5v-6.4h2.5l6.3 6.4h3.3l-7.4-7.6zM149.1 26.8c-.2-.5-.6-1-1-1.4-.4-.4-.9-.7-1.5-1-.5-.2-1.1-.3-1.7-.3h-6.5v-4h9.5v-2.5H136V33h8.9c1.2 0 2.3-.5 3.1-1.3.8-.8 1.3-2 1.3-3.1.2-.6.1-1.2-.2-1.8zm-2.7 3.2c-.4.4-.9.6-1.4.6h-6.4v-4h6.4c.5 0 1 .2 1.4.6s.6.9.6 1.4-.2 1-.6 1.4zM179.8 24.1h-8.9v-6.4h-2.5V33h2.5v-6.4h8.9V33h2.5V17.7h-2.5z"/>
</svg>