<svg xmlns="http://www.w3.org/2000/svg" viewBox="0 0 200 50">
	<g fill="#A54181">
		<path d="M42.4583 12.3467c.5834 1.1783-.5783 2.3433-1.7566 1.7566-.2067-.1041-.3734-.2708-.4775-.4775-.5834-1.1783.5783-2.3433 1.7566-1.7566.2067.1041.3734.2708.4775.4775zM47.5967 12.3467c.5833 1.1783-.5775 2.3433-1.7567 1.7566-.2058-.1033-.3733-.2708-.4767-.4775-.5875-1.1783.5775-2.3433 1.7559-1.7566.2066.1041.3733.2708.4775.4775z"/>
		<path d="M49.3333 15.8108c-.8908.6775-2.6516 1.3009-4.9375 1.3009-2.2858 0-4.0475-.6234-4.9375-1.3009h-1.9466c.4908 1.745 3.3808 3.0875 6.8833 3.0875 3.5025 0 6.3917-1.3425 6.8825-3.0875h-1.9442zM73.9009 34.1575c-1.0634 0-1.905-.0933-2.5259-.2808-.6066-.18-1.1725-.4767-1.6666-.8717-.5092-.4092-.9092-.9367-1.1667-1.5367-.2658-.6108-.3992-1.4183-.3992-2.4225v-7.8891h-2.16V18.5h2.1567v-5.025h3.4567V18.5h4.3733v2.6592h-4.3733v7.1741c0 .2975.025.5934.0741.8867.0509.3008.14.5942.2659.8717.1283.2858.3266.535.5766.7233.3959.3383.8859.5458 1.4042.5942.4258.0525.855.0825 1.2842.0908h.8566v2.6592l-2.1566-.0017zM86.8717 18.5c.635-.0058 1.2658.1042 1.8608.325.5242.1867.9992.49 1.3892.8867.3333.3333.6091.8108.8275 1.4333.2183.6225.3266 1.3758.325 2.26v8.125c-.0067.3375-.0409.6733-.1034 1.005-.1308.78-.7416 1.3908-1.5216 1.5217-.3792.0666-.7642.1008-1.1492.1008h-7.475c-.4692-.0025-.9383-.0325-1.4042-.0892-.5-.0583-.9775-.285-1.4325-.6791-.3091-.2692-.5633-.595-.75-.96-.1866-.36-.3266-.7425-.4166-1.1375-.0884-.3792-.1442-.7642-.1667-1.1525-.02-.3742-.03-.7092-.0292-1.005-.0008-.6859.0734-1.3692.2217-2.0384.1475-.6666.5167-1.2575 1.1075-1.7725.4925-.4333.99-.6941 1.4925-.7833.4533-.0833.9133-.1283 1.3742-.1325h6.795v-1.0933c-.0017-.2484-.0259-.4959-.0734-.7392-.0591-.2733-.1858-.5275-.37-.7383-.2008-.2717-.4866-.4692-.8125-.5617-.2841-.0758-.5775-.1158-.8716-.1183h-7.7109V18.5h8.8934zm-4.8167 8.5683c-.1933.0092-.3858.0342-.5758.0742-.2809.0592-.5292.2233-.6942.4583-.0958.1484-.175.3067-.2367.4725-.0983.2367-.1475.6409-.1475 1.2117.005.295.0292.59.0742.8817.0333.3225.1733.6241.3983.8575.1434.135.3084.245.4875.325.1992.0983.4175.15.6392.1508h4.8167c.0983 0 .2216-.005.3691-.015.1475-.0092.2875-.0667.3992-.1625.1033-.0758.1767-.1858.2067-.31.02-.1125.0291-.2258.0291-.34v-3.6067l-5.7658.0025zM93.6375 13.475h3.4567v20.6825h-3.4567V13.475zM99.4575 34.1575V13.475h3.4595v20.6825h-3.4595zm10.9615 0l-5.406-5.7317c-.26-.2941-.492-.61-.695-.9458-.255-.4275-.384-.9192-.37-1.4167 0-.5908.129-1.0691.385-1.4333.255-.3642.492-.6742.709-.93l4.727-5.2h4.019l-5.88 6.3233c-.133.1509-.252.3142-.355.4875-.105.195-.155.4142-.147.635.003.2659.08.525.222.75.148.2484.321.4809.516.6942l6.412 6.7667-4.137.0008zM118.781 13.475V18.5h4.583c.489.0008.978.0308 1.463.0892.505.0591 1 .1783 1.477.3541.495.1842.958.4434 1.374.7684.468.375.859.8366 1.153 1.3591.442.7584.729 1.5967.841 2.4675.131.9542.195 1.9167.193 2.88 0 1.2809-.088 2.33-.266 3.1467-.177.8167-.425 1.4892-.743 2.0183-.282.5142-.663.9675-1.123 1.3334-.417.3258-.88.59-1.374.7825-.475.1858-.971.31-1.477.3691-.475.0575-.954.0875-1.433.0892h-4.934c-.44.0008-.879-.0292-1.315-.0892-.442-.0675-.851-.2741-1.167-.5908-.29-.2525-.496-.5875-.591-.96-.075-.3242-.115-.6567-.117-.99V13.475h3.456zm0 16.7233c0 .1575.004.3334.015.5167.011.1933.09.3758.221.5175.116.1175.266.195.429.2217.171.03.343.0441.516.0441h2.512c.236 0 .502-.01.798-.03.303-.0208.601-.0858.886-.1916.311-.1167.604-.2759.872-.4725.31-.2375.558-.5475.723-.9017.139-.3408.254-.6908.34-1.0483.129-.4825.193-1.2459.193-2.29 0-1.2409-.074-2.1367-.222-2.6892-.147-.5525-.252-.8867-.314-1.0042-.295-.6233-.803-1.1208-1.432-1.4033-.282-.1267-.581-.2108-.887-.25-.279-.0375-.561-.0575-.843-.0592h-3.811l.004 9.04zM141.442 18.5c.635-.0058 1.266.1042 1.862.325.524.1867.998.49 1.388.8867.334.3333.61.8108.828 1.4333.218.6225.327 1.3758.325 2.26v8.125c-.006.3375-.041.6733-.103 1.005-.13.78-.742 1.3917-1.522 1.5217-.381.0675-.766.1025-1.153.1033h-7.475c-.469-.0025-.937-.0325-1.403-.0892-.5-.0583-.977-.285-1.433-.6791-.309-.2692-.564-.595-.75-.96-.187-.36-.327-.7417-.417-1.1375-.088-.3784-.144-.7642-.167-1.1525-.02-.3742-.03-.7092-.03-1.005 0-.6859.075-1.3692.222-2.0384.148-.6666.518-1.2575 1.108-1.7725.493-.4333.99-.6941 1.492-.7833.453-.0833.913-.1283 1.374-.1325h6.796v-1.0958c-.002-.2484-.026-.4959-.074-.7392-.058-.2733-.185-.5275-.369-.7383-.202-.2717-.488-.4692-.813-.5617-.284-.0758-.577-.1158-.871-.1183h-7.712V18.5h8.897zm-4.815 8.5683c-.194.0092-.386.0342-.576.0742-.282.0592-.53.2225-.695.4583-.095.1484-.174.3067-.236.4725-.099.2367-.149.6409-.148 1.2117.005.2967.03.5925.074.8858.033.3225.174.6242.399.8575.143.135.308.245.487.325.198.0967.415.1467.635.1475h4.816c.099 0 .222-.005.37-.015.147-.0091.287-.0666.399-.1625.103-.075.176-.185.206-.31.02-.1125.03-.2258.03-.34v-3.6075l-5.761.0025zM148.208 20.8908c.004-.2775.029-.5541.075-.8275.053-.3225.202-.6208.428-.8566.303-.3567.732-.5842 1.197-.635.397-.045.796-.07 1.196-.0742h5.525c.783-.0042 1.564.0658 2.334.2075.728.1375 1.408.4917 2.039 1.0633.413.3742.772.8767 1.078 1.5067.306.63.458 1.4867.458 2.5708v10.3117h-3.455V24.88c.001-.5-.039-.9992-.118-1.4925-.072-.465-.254-.9058-.532-1.285-.245-.3267-.578-.5775-.96-.7242-.384-.1475-.891-.2208-1.521-.2216h-3.517c-.098 0-.197.005-.295.015-.114.0183-.219.0758-.296.1625-.091.085-.149.2008-.162.325-.01.1183-.014.2266-.014.325v12.1733h-3.46V20.8908zM164.902 34.1575V13.475h3.457v20.6825h-3.457zm10.961 0l-5.406-5.7317c-.26-.2941-.492-.61-.695-.9458-.255-.4275-.384-.9192-.37-1.4167 0-.5908.129-1.0691.385-1.4333.255-.3642.492-.6742.709-.93l4.727-5.2h4.019l-5.88 6.3233c-.133.1509-.252.3142-.355.4875-.105.195-.155.4142-.147.635.003.2659.08.525.222.75.148.2484.321.4809.516.6942L180 34.1567l-4.137.0008z"/>
		<path d="M57.2092 24.2667V6.30583c0-1.82583-1.4792-3.305-3.305-3.30583H33.9167c-1.8259 0-3.3059 1.48-3.3059 3.30583V24.2667c0 1.8258 1.48 3.3058 3.3059 3.3058h14.5916c1.4242 3.2833 8.7009 2.95 8.7009 2.95s-1.9742-.9392-2.5217-3.0442c1.48-.3616 2.5217-1.6883 2.5217-3.2116zm-22.0117-2.4075V8.71333c-.0017-.6225.5025-1.12833 1.125-1.13H51.5c.6225 0 1.1267.50417 1.1267 1.12667v13.1492c.0008.6225-.5034 1.1266-1.1259 1.1275H36.325c-.6225 0-1.1275-.505-1.1275-1.1275z"/>
	</g>
	<g fill="#1D9A9E">
		<path d="M40.2975 29.6667v3.9483c-.0025.6225-.5083 1.125-1.1308 1.1233H25.7133c-.6225.0017-1.1283-.5025-1.13-1.125V21.8067c0-.6225.5042-1.1267 1.1267-1.1267h2.8442v-4.5833h-5.25C21.48 16.0975 20.0017 17.5758 20 19.4v16.6192c0 1.5233 1.0417 2.85 2.5217 3.2116C21.9742 41.3333 20 42.2742 20 42.2742s7.2767.3333 8.7017-2.95h12.8758c1.8258 0 3.305-1.4792 3.3058-3.305v-6.3525h-4.5858z"/>
		<path d="M27.4825 24.7375c-.0008.7033.57 1.2742 1.2734 1.275.7033.0008 1.2741-.57 1.275-1.2733.0008-.7034-.57-1.2742-1.2734-1.275h-.0008c-.7033-.0009-1.2733.5691-1.2742 1.2725v.0008zM34.6333 30.6083h-3.5416v2.2742h3.5416v-2.2742z"/>
	</g>
</svg>
