<svg xmlns="http://www.w3.org/2000/svg" viewBox="0 0 200 50">
	<path fill="#002456" d="M181.836 18.8233c.785 0 1.57-.0109 2.365 0v6.2892c.262 0 .534-.0109.807-.0109.697-2.0927 1.493-4.1528 2.158-6.2674.872-.0545 1.744-.0327 2.616-.0109-.861 2.4198-1.646 4.8723-2.507 7.2811.872 2.5942 1.809 5.1665 2.725 7.7498-.861.0218-1.711 0-2.572.0218-.807-2.1255-1.537-4.2836-2.344-6.4091-.283-.0654-.588-.0327-.872-.0327-.011 2.1473 0 4.2945 0 6.4418h-2.365c-.011-5.003-.011-10.0279-.011-15.0527zm-9.962 0c.806.0109 1.613-.0109 2.43.0109v6.2892c.905-.0109 1.81 0 2.714 0-.011-2.0927 0-4.1964 0-6.2892h2.366v15.0527h-2.366c-.011-2.1473-.011-4.2836 0-6.4309h-2.714c.011 2.1364 0 4.2836 0 6.4309h-2.43c0-5.0248-.011-10.0388 0-15.0636zm-6.846 10.1696c.698-.0109 1.396.0218 2.093-.0218-.37-2.4198-.741-4.8396-1.024-7.2702-.393 2.4197-.731 4.8613-1.069 7.292zm-.566-10.2023c1.079.0218 2.158-.0218 3.226.0327.828 5.0248 1.711 10.0497 2.561 15.0745-.817-.0109-1.635-.0109-2.441 0l-.393-2.6487h-2.746c-.109.8829-.251 1.7549-.349 2.6378-.818.0109-1.635 0-2.453 0 .872-5.0357 1.723-10.0714 2.595-15.0963zm-8.524 7.4882c0 1.744-.011 3.4989.011 5.2428.523-.0109 1.046.0327 1.559-.0436.457-.109.752-.5777.752-1.0354.021-.9265 0-1.8639.011-2.7904.01-.436-.088-.9265-.48-1.1772-.578-.2725-1.232-.1962-1.853-.1962zm-2.398-7.4446c2.071-.0109 4.153 0 6.224 0v2.289c-1.275 0-2.54.0109-3.804-.0109-.033.9483-.011 1.8966-.011 2.8448 1.264.0545 2.758-.109 3.76.8175.992.8938 1.025 2.3435.992 3.5861-.054 1.3952.24 2.9429-.567 4.1855-.545.8938-1.613 1.2535-2.605 1.308-1.329.0654-2.659.0109-3.978.0327-.022-5.0139-.011-10.0388-.011-15.0527zm-15.609-.0109c.807 0 1.614-.0109 2.42.0109.044 1.8966-.087 3.7932-.065 5.7006.011 1.2208 0 2.4307-.033 3.6515.883-3.1065 1.755-6.2238 2.594-9.3412 1.003-.0327 2.006-.0109 3.009-.0218v15.0636h-2.398c.032-3.1936.021-6.3873.076-9.581-.97 3.1828-1.886 6.3765-2.812 9.5701-.927.0218-1.864 0-2.801.0109.01-5.0139 0-10.0388.01-15.0636zm-10.322 0c.785 0 1.57-.0109 2.366 0 .032 3.0956-.066 6.1802-.055 9.2649.872-3.0847 1.711-6.1802 2.583-9.2649.992-.0109 1.995-.0109 2.987 0 .011 5.0139-.022 10.017.022 15.0309-.818.0545-1.646.0218-2.464.0218.087-1.0246.044-2.0601.055-3.0956-.033-2.1581.174-4.3163 0-6.4745-.85 3.2155-1.853 6.3765-2.769 9.5701h-2.79c-.022-5.0139 0-10.0279.065-15.0527zm-9.875.0109h2.398c.011 2.0928-.011 4.1965.011 6.3001h.796c.73-2.1036 1.449-4.2073 2.201-6.3001.861.0109 1.712 0 2.573.0109-.829 2.4198-1.668 4.8396-2.475 7.2702.785 2.616 1.832 5.1774 2.671 7.7825h-2.562c-.784-2.1473-1.558-4.2836-2.332-6.4309h-.872c-.011 2.1473 0 4.2945-.011 6.4309h-2.398c-.011-5.0248 0-10.0497 0-15.0636zM100 18.8233h6.365v2.3326h-4c0 1.2971.011 2.5833 0 3.8803 1.112.0218 2.235 0 3.346.0109-.01.7739-.01 1.5478 0 2.3217-1.122.0109-2.234-.0218-3.357.0109.033 1.3843.011 2.7686.011 4.1637h3.99c0 .7739.01 1.5587 0 2.3435h-6.3659C100 28.8621 100 23.8481 100 18.8233zm-9.7009.0109c.8066 0 1.6241-.0109 2.4307 0 .0218 2.2018-.0436 4.4145.0327 6.6162.109 1.1336 1.4714.9265 2.278.9265v-7.5536c.8066-.0109 1.6132 0 2.4307 0v15.0636c-.8066 0-1.6132-.0109-2.4198.0109-.0218-1.7331-.0109-3.4552-.0109-5.1883-1.1444-.0218-2.387.0872-3.4116-.5341-.9374-.5777-1.2862-1.7331-1.3298-2.7686 0-2.1908.0109-4.3817 0-6.5726zm-10.2894-.0109h2.3979c.0327 2.1364-.0436 4.2619-.0327 6.3982-.0109 1.0028.0436 1.9947-.0436 2.9975.8829-3.1174 1.7549-6.2456 2.6051-9.3739 1.0028-.0327 2.0056-.0109 3.0083-.0218.0109 5.0248.0109 10.0388 0 15.0636h-2.3979c.0327-3.1936.0218-6.3873.0872-9.581-.9701 3.1828-1.8966 6.3874-2.8231 9.581-.9265.0109-1.8639 0-2.7903 0-.0109-5.0248-.0218-10.0388-.0109-15.0636zm-6.9868 2.3435c0 1.7331-.0109 3.477.0109 5.2101.6758-.0436 1.4823.1635 2.0382-.327.4578-.7085.2071-1.6023.2725-2.387-.0654-.7303.1962-1.5805-.3052-2.2018-.5341-.5014-1.3516-.2398-2.0164-.2943zm-2.398-2.3326h3.7931c1.0573.0109 2.2454.3597 2.8122 1.3298.763 1.199.5123 2.6814.5559 4.022.0327 1.2971.0218 2.8122-1.0137 3.7605-1.0246.8829-2.4743.763-3.7386.763-.0218 1.7331 0 3.4661-.0109 5.1883-.7957-.0109-1.6023 0-2.398 0V18.8342zm-7.1503 8.273c-.0109 1.4715 0 2.943-.0109 4.4144.7194-.0872 1.5805.218 2.1909-.2834.4578-.4142.3161-1.1008.3597-1.6567-.0436-.7085.1635-1.5914-.4251-2.1364-.5668-.5559-1.417-.2616-2.1146-.3379zm0-6.093c-.0109 1.2971-.0109 2.5942 0 3.9021.7957-.0218 2.0383.1853 2.2999-.8284.0763-.8174.1635-1.6894-.0981-2.4742-.436-.8066-1.4497-.5559-2.2018-.5995zm-2.3762-2.18h3.9458c1.0573.0109 2.2017.4469 2.7467 1.3952.5886 1.0464.5014 2.2999.4578 3.4662-.0545.8719-.3488 1.8965-1.2644 2.2235.8175.2725 1.2971 1.1227 1.3843 1.9402.1199 1.09.109 2.2018-.0327 3.2917-.109.8611-.5232 1.7331-1.2753 2.2018-.8065.4905-1.7875.5341-2.7031.5014h-3.2482c-.0109-5.0139-.0109-10.017-.0109-15.02zm-6.0494 2.8667c-.2834 2.4197-.654 4.8395-1.0355 7.2593.6976.0436 1.3952.0109 2.0928.0327-.3488-2.4307-.6649-4.8723-1.0573-7.292zm-1.6023-2.8885c1.0791-.0436 2.1582-.0109 3.2373-.0218.872 5.0249 1.7331 10.0606 2.5833 15.0963h-2.4525c-.1199-.8829-.2507-1.7658-.3706-2.6378-.9156.0109-1.8203 0-2.7359.0109-.1417.8829-.2507 1.7658-.3815 2.6378-.8174 0-1.624-.0109-2.4415 0 .8502-5.0248 1.744-10.0497 2.5614-15.0854zm-10.4965.0109h7.292c.0218.7848.0218 1.5587 0 2.3435-.8066-.0109-1.6132-.0109-2.4198 0v12.7201h-2.3979c-.0109-4.24 0-8.4801 0-12.7201-.8175 0-1.635-.0109-2.4525 0-.0218-.7739-.0218-1.5587-.0218-2.3435zM108.556 20.6c.393-1.199 1.635-1.9838 2.878-1.9729 1.133-.0981 2.398.0763 3.204.9701.971 1.09.938 2.6596.916 4.033h-2.431c-.021-.6758.077-1.3734-.163-2.0165-.273-.8284-1.592-.9265-2.038-.1962-.284.4578-.273 1.0246-.284 1.5478.011 2.3107 0 4.6324 0 6.9432.022.5341.033 1.1553.447 1.5586.523.4251 1.45.3379 1.799-.2834.348-.6539.207-1.4387.228-2.1472.807 0 1.625 0 2.431.0109.011 1.1445.033 2.3543-.501 3.4007-.513 1.0028-1.635 1.5478-2.736 1.5914-1.079.0763-2.278-.0763-3.074-.8829-.872-.8393-.97-2.1146-1.035-3.259-.022-2.0819 0-4.1638-.011-6.2456.011-1.0137.032-2.071.37-3.052zm30.171-5.6897h6.366c.021.6758.021 1.3625 0 2.0382-2.126-.0109-4.24 0-6.366 0v-2.0382zM13.1065 19.0958h18.1591v14.8238l-3.9893 2.2999-.0109-13.1235h-3.0738v14.8892l-4.0111 2.2999V23.096h-3.0738v18.9549l-4.0002 2.2998V19.0958zM10 12h24.3611v4.0002L10 16.0111V12z"/>
</svg>
