<svg xmlns="http://www.w3.org/2000/svg" viewBox="0 0 200 50">
	<path fill="#262a82" d="M180.7 23.7l3.8-7.2h-4l-2.7 6h-1.4v-6H173v15.4h3.4v-6.1h1.6l3.1 6.1h3.9zM167.9 22.8h-5.7v-6.3h-3.4v15.4h3.4v-6.2h5.7v6.2h3.4V16.5h-3.4zM148.8 16.5l-5.5 15.4h3.9l1-3.4h4.7l1.1 3.4h3.9l-5.6-15.4h-3.5zm.3 9.2l1.5-4.9 1.5 4.9h-3zM140.1 22.9c-1-.5-2.1-.6-3.2-.6h-2.1v-3h6.8v-2.8h-10.2v15.3h5.5c1.6.1 3.2-.4 4.5-1.4 1.1-.9 1.7-2.2 1.7-3.6 0-.8-.2-1.6-.7-2.3-.7-.6-1.4-1.2-2.3-1.6zm-1.4 5.6c-.5.5-1.1.7-1.8.6h-2.1V25h2.1c.6-.1 1.3.2 1.8.6.4.3.6.7.6 1.3.1.6-.2 1.2-.6 1.6zM94.3 17.2c-1-.5-2-.6-3.1-.6h-6V32h3.4v-5.4h2.6c1.5.1 3.1-.3 4.3-1.3 1.1-.9 1.7-2.2 1.6-3.5 0-1-.2-1.9-.7-2.7-.6-.9-1.2-1.5-2.1-1.9zm-1.5 6c-.5.3-1 .6-1.6.5h-2.6v-4.3h2.7c.6-.1 1.1.2 1.5.6.4.5.6 1.1.6 1.7 0 .6-.2 1.1-.6 1.5zM73.2 31.9h10.3v-2.8h-6.9v-3.4h6.1v-2.9h-6.1v-3.4h6.9v-2.9H73.2zM69.8 16.5h-10l-.5 6.5c-.1 1.4-.3 2.7-.7 3.9-.3.9-.7 1.6-1.4 2.2h-1.1l.3 6.3h3.1V32h8.6v3.4H71l.4-6.3h-1.6V16.5zm-3.5 12.6h-5.1c.9-1.4 1.4-3.5 1.6-5.9l.3-3.8h3.2v9.7zM50.9 22.8h-5.7v-6.3h-3.4v15.4h3.4v-6.2h5.7v6.2h3.5V16.5h-3.5zM29.3 31.9h10.2v-2.8h-6.8v-3.4h6v-2.9h-6v-3.4h6.8v-2.9H29.3zM15 19.4h4.6v12.5H23V19.4h4.6v-2.9H15z"/>
	<path fill="#3f3fbc" d="M125.7 19.8h-6.3l-.1 10.9h-10.7l.1-9.6-2.2-1.3H100v15l2.2 1.2h25.7V21.1z"/>
	<path fill="#212471" d="M127.8 21.2v14.7h-25.5V21.2h6.2l-.1 10.8h13.2l.1-10.8h6.1z"/>
	<path fill="#b13b00" d="M125.8 13h-25.6v4.2l2.1 1.2h6.9l-.1 9.5 2.1 1.2-2.1-1.2 2.1 1.3h7.5l.1-10.8h9.1l.1-4.1z"/>
	<path fill="#d2561d" d="M127.8 14.4l-.1 3.8h-9.1l.1 10.8h-7.2l.2-10.7v-.1h-9.1v-3.9l25.2.1z"/>
</svg>
