<svg xmlns="http://www.w3.org/2000/svg" viewBox="0 0 200 50">
	<path fill="#2B2A29" d="m181.19 10.5127-13.865 13.946-5.108-5.1081-5.351 5.2703 10.459 10.3784 19.217-19.1352-5.352-5.3514ZM75.703 18.3779h7.1352c2.2703 0 4.1351 1.8649 4.1351 4.1352v.973c0 2.2702-1.8648 4.1351-4.1351 4.1351H78.703v5.0271h-3V18.3779Zm3 2.6757v4.0541h3.5676c.973 0 1.7838-.8108 1.7838-1.7838v-.4865c0-.973-.8108-1.7838-1.7838-1.7838H78.703Zm-15.3244-2.6757h10.0541v2.6757h-7.0541v3.3244h6.6487v2.6757h-6.6487v3h7.0541v2.6757H63.3786V18.3779Zm59.1084 0h3v5.5947h6.649v-5.5947h3v14.3515h-3v-6.0812h-6.649v6.0812h-3V18.3779Zm15.324 0h3v6.2433l5.271-6.2433h3.73l-6.001 6.8109 6.406 7.5406h-3.811l-4.378-5.5136-1.217 1.3784v4.1352h-3V18.3779Zm-26.27 9.3244h4.541l-2.271-6.4054-2.27 6.4054Zm5.514 2.6757h-6.406l-.811 2.3514h-3.486l5.513-14.3515h3.973l5.514 14.3515h-3.487l-.81-2.3514Zm-22.2978 2.3514h7.1348c2.271 0 4.136-1.8649 4.136-4.1352v-.6487c0-2.2702-1.865-4.1351-4.136-4.1351h-4.1348v-2.6757h7.3788V18.459H94.7572v14.2704Zm3-2.6757V26.405h3.5678c.973 0 1.784.8108 1.784 1.7838v.0811c0 .973-.811 1.7838-1.784 1.7838h-3.5678ZM17 20.9725v-2.5946h11.3514v2.5946h-4.2973v11.7569h-2.7568V20.9725H17Zm28.3785-2.5946v14.3515h3V22.5942l4.1352 10.0541h1.1351l4.1352-10.0541v10.0541h3V18.3779h-4.2162l-3.4054 8.5947-3.4055-8.5947h-4.3784Zm-2.6757 0v14.3515h-3v-9.5677l-6.973 9.5677h-3.0811V18.3779h3v9.5676l6.892-9.5676h3.1621Z"/>
	<linearGradient id="gr" x2="0%" y2="100%">
		<stop stop-color="#E12529"/>
		<stop offset=".451" stop-color="#E76727"/>
		<stop offset="1" stop-color="#F4C600"/>
	</linearGradient>
	<path fill="url(#gr)" d="m181.19 5-13.865 13.946-5.108-5.1081-5.351 5.1892 10.459 10.4595 19.217-19.2163L181.19 5Z"/>
</svg>