<svg xmlns="http://www.w3.org/2000/svg" viewBox="0 0 200 50">
	<path fill="#fff" d="M58.1184 22.3659l.6441-2.0228-2.095.0663c-.9812-.0362-1.9264-.3673-2.721-.9512h.2829c1.2763-.006 2.4442-.7345 3.01-1.8783l.9211-1.9685c-.7224.006-1.4448-.0362-2.1612-.1265-.6863-.1625-1.3003-.5357-1.7639-1.0655-.6261-.6682-1.4929-1.0475-2.408-1.0535-.3552 0-.7104.0602-1.0535.1685.0482-.1625.0903-.325.1204-.4936.1445-1.1739-.1866-2.3599-.9151-3.29298L48.3899 7.7913l-.9752 2.2876c-.1565.3251-.3913.6081-.6923.8127-.1686-.8187-.5659-1.56518-1.1559-2.15515-.9872-1.01137-2.3418-1.57725-3.7565-1.56521-.2468 0-.4936.01806-.7344.05418l-1.9024.37324c.1626-.63813.4214-1.24615.7706-1.80602l1.0475-1.63144-2.6368.24683-.8428-1.80602-1.6254.88495L34.3813 2l-1.5051 1.48696-1.6254-.84281-.8428 1.76388-2.6368-.30101 1.0475 1.63746c.3492.55987.608 1.16789.7706 1.80602l-1.806-.35518h-.0602c-.2529-.03612-.5057-.05418-.7586-.05418-1.4147-.01204-2.7692.55384-3.7565 1.56521-.596.59599-1.0053 1.35455-1.1679 2.18525-.2889-.1986-.5237-.4695-.6802-.7886l-.9813-2.30568-1.6013 1.96254c-.7164.93314-1.0355 2.11304-.897 3.28094.0301.1686.0722.3311.1204.4936-.3432-.1083-.6984-.1685-1.0535-.1685-.9151.006-1.782.3853-2.4081 1.0535-.4575.5237-1.0655.897-1.7458 1.0655-.7224.1084-1.4568.1505-2.1913.1265l.897 1.9986c.5659 1.1438 1.7338 1.8723 3.01 1.8783h.283c-.7826.5719-1.7157.903-2.685.9451L10 20.3431l.6441 2.0228c.4817 1.5833 1.8482 2.7451 3.4917 2.9558-.1686 1.0656-.8428 1.9867-1.806 2.4683l-1.6134.6561.8669 1.5111c.7164 1.1137 1.9505 1.7759 3.2689 1.7639.3431 0 .6863-.0362 1.0234-.1084.0843.3672.1926.7344.313 1.0896.301.7947.3191 1.6616.0602 2.4683l-.7826 1.6434 1.7519.4636c.3913.1023.8006.1505 1.204.1505.2889 0 .5719-.0301.8548-.0963.2047-.0482.4094-.1084.602-.1867.2228.4034.5057.7766.8248 1.1077 1.1197 1.1499 2.709 1.7338 4.7257 1.7338h1.4388l-2.9679 1.2341 2.2515 1.1137c.9091.4455 1.8362.8489 2.7813 1.204l-.2709.7827.7766.3551c1.2883.5057 2.6548.7887 4.0395.8368h1.8481c1.3786-.0481 2.7391-.3371 4.0214-.8428l.7525-.3491-.2649-.7827c.9572-.3672 1.8964-.7826 2.8114-1.2461l2.2094-1.0716-2.9619-1.204h1.4448c2.0167 0 3.6121-.602 4.7258-1.7338.325-.3311.602-.7043.8247-1.1077.1927.0783.3973.1385.602.1867.283.0662.5659.0963.8549.0963.4033 0 .8127-.0542 1.204-.1505l1.7578-.4636-.7645-1.6133c-.289-.8188-.2769-1.7158.0301-2.5285.1264-.3672.2288-.7404.313-1.1137.3372.0723.6863.1084 1.0295.1084 1.3304.012 2.5705-.6743 3.2749-1.806l.8548-1.493-1.5893-.6502c-.9632-.4816-1.6374-1.4027-1.806-2.4682 1.6435-.2167 3.0101-1.3726 3.4917-2.9619l-.0241.0482z"/>
	<path fill="#FCE527" d="M41.6175 28.7592H27.1693v5.418c0 2.2275 1.6074 3.6121 3.9853 3.6121 1.9866 0 2.5104.0782 3.2448.8127.4636-.4997 1.1197-.7826 1.806-.7706v-.0843l.4576-1.4087-.7766-.8488c-.3131.0963-.6382.1325-.9632.1144-.4877-.006-.9693-.0542-1.4449-.1505h-.1505c-.0662 0-.0662 0-.0842.0361l-.0903.1505-.1626.2709-.313-.0722-1.3907-.3251-.1926.313v.0362l.1686.1866-.0723.2408c-.1264.295-.307.5598-.5358.7886l-.3491.3733-.3191-.3974-.2348-.295c-.2528-.3311-.313-.7645-.1685-1.1558l-.3913.1625-.1746-.3852-.0963-.271c-.2469-.5719-.0603-1.2341.4394-1.5953l1.1197-.602 1.0656.2107c0-.1023.0662-.4695.0963-.5598h-.0602l-.602.2287-.602-.4093c-.1204-.1204-.1264-.3191 0-.4455l.5719-.8669-1.4508-1.806 2.1732.8548.1505-.1806.301-.3612.3432.3251c.0903.0903.1505.1987.1806.3251.602.2408 1.7157.9451 1.806 2.0889l-.3432.1385c.0422.0602.0964.1084.1626.1385l1.5893.1565.1445-.0422c.2709-.1023.5598-.1565.8488-.1625.289 0 .5719.0662.8308.1926.1143-.0421.2408-.0662.3612-.0722h.0782c.8489 0 1.2763.6381 1.6134 1.1438l.1746.2529c.295.4214.6863 1.0354.7043 1.0595l.1746.2709-.2167.2528c-.1987.2649-.5117.4154-.8428.4154-.0963.006-.1927.006-.289 0-.0843-.018-.1685-.0421-.2528-.0782 0 .0842 0 .1866-.0482.2709l-.2468 1.4207c1.6375-.3311 2.7933-1.8 2.7271-3.4736l-.006-5.4421zM27.1513 28.3197h11.2515c-.4576-.4816-.6141-1.1739-.4094-1.806-.1505-.0722-.295-.1686-.4214-.2769-.4395.3251-1.806 1.3003-2.1311 1.5471l-.0722.0482-4.4188-.7826h-.0903c-.1445.006-.2889.006-.4334 0-.0422.1986-.2167.3371-.4154.3371h-.0722c-.2348-.0421-.3974-.2649-.3612-.4997v-.0963c-.572-.4093-.8429-1.1197-.6924-1.806v-.0783l.0663-.0481s.0842-.0602.1986-.1264l-.319-.0482c-.1204-.0241-.1987-.1324-.1806-.2528.018-.1204.1264-.1987.2468-.1806h.006l.7646.1204.0722-2.691 1.1378-1.204.7104 1.4929-.7465 2.5887.6742.1083c.1204.0241.1987.1325.1806.2529-.018.1083-.1083.1806-.2167.1806h-.0361l-.5479-.0903v.0421c.0602.1084.1506.1927.2649.2468l3.3652.0542.8609-.8488c-.6562-.2288-1.1257-.8067-1.204-1.499-.4214-.1625-.7645-.4756-.9572-.8789-.1625-.3793-.1926-.8067-.0782-1.204-.5298-.2107-1.0114-.5298-1.4027-.9392h-4.9967c.2408.59.3793 1.2161.4034 1.8482v6.4896z"/>
	<g fill="#222220">
		<path d="M65.9865 23.6722h4.9605v8.4281h3.612v-8.4281h4.9606V20.614H65.9865v3.0582zM84.2875 27.2843v-6.6221h-3.4916v11.4381h3.0823l6.02-6.6943v6.6943h3.4917V20.614h-3.0823l-6.0201 6.6703zM105.015 24.8762h-5.6111v-4.214h-3.4917v11.4381h3.4917V27.814h5.6111v4.2863h3.491V20.6622h-3.491v4.214zM120.685 23.9853c-.825-.2529-1.692-.3552-2.553-.3131h-3.612v-3.01h-3.491v11.4381l7.079-.0481c.741.012 1.475-.0723 2.192-.2649 1.818-.4455 3.07-2.101 3.01-3.9733.072-1.7157-.994-3.2809-2.625-3.8287zm-1.782 5.1772c-.44.1505-.909.2107-1.373.1686h-3.01v-2.9137h3.01c.452-.0301.909.0241 1.349.1445.554.1625.927.6742.915 1.2521.006.59-.343 1.1258-.891 1.3485zM137.938 20.6622h-4.382l-4.214 4.3104h-.963v-4.3104h-3.492v11.4381h3.492v-4.3344h.963l4.166 4.3344h4.647l-5.803-6.02 5.586-5.4181z"/>
		<path d="M145.452 20.301c-4.72 0-7.538 2.6488-7.538 6.0682s2.842 6.0682 7.513 6.0682c4.672 0 7.489-2.6488 7.489-6.0682s-2.745-6.0682-7.464-6.0682zm-.025 9.3431c-2.335 0-3.828-1.3966-3.828-3.2749 0-1.8782 1.517-3.2508 3.828-3.2508 2.312 0 3.829 1.3726 3.829 3.2508 0 1.8783-1.493 3.2749-3.829 3.2749zM164.421 21.1197v-1.1558h-3.492v1.1558c-4.383.0963-7.007 1.9505-7.007 5.2254 0 3.275 2.624 4.9847 7.007 5.081v1.1558h3.492v-1.1558c4.406-.0963 7.031-1.806 7.031-5.081 0-3.2749-2.619-5.1291-7.031-5.2254zm-3.492 7.8502c-2.408-.0963-3.468-1.0836-3.468-2.6248 0-1.5411 1.06-2.6488 3.468-2.7451v5.3699zm3.492 0V23.6c2.432.0963 3.467 1.204 3.467 2.7451h.006c0 1.5412-1.035 2.5285-3.473 2.6248zM182.968 21.1197v-1.1558h-3.491v1.1558c-4.383.0963-7.008 1.9505-7.008 5.2254 0 3.275 2.625 4.9847 7.008 5.081v1.1558h3.491v-1.1558c4.407-.0963 7.032-1.806 7.032-5.081 0-3.2749-2.625-5.1291-7.032-5.2254zm-3.491 7.8502c-2.408-.0963-3.468-1.0836-3.468-2.6248 0-1.5411 1.06-2.6488 3.468-2.7451v5.3699zm6.953-2.6248c0 1.5412-1.029 2.5285-3.462 2.6248V23.6c2.433.0963 3.468 1.204 3.468 2.7451h-.006zM31.7686 31.1251c-.0723 0-.1385.0542-.1445.1264v.006c-.006.0783.0542.1505.1324.1565h.006c.0843 0 .1445-.0662.1445-.1444 0-.0843-.0602-.1445-.1384-.1445zM31.7626 31.119c.006 0 .006.0061.006.0061.006 0 .006-.0061.012-.0061h-.018zM41.5993 40.992l-.8308-.3191.2288-.8609.2528-.9391c-1.1378.5839-2.3297 1.0535-3.5578 1.4027-.602.1685-1.0355.2468-1.0355.2468v.608c-.7404.1204-1.4869.1866-2.2394.1927h-.0663c-.7525-.0061-1.499-.0723-2.2394-.1927v-.602s-.4395-.0843-1.0415-.2528c-1.2281-.3492-2.4201-.8188-3.5579-1.4027l.2469.9391.2347.8609-.8367.3191-.903.3431c1.2401.6441 2.5344 1.1799 3.8709 1.6013l-.3191.8669c1.4508.5539 3.004.8248 4.5572.7887h.0361c1.5532.0361 3.1064-.2348 4.5572-.7887l-.3131-.8669c1.3305-.4214 2.6248-.9572 3.8649-1.6013l-.909-.3431zm-14.3398.3973l1.3485-.4515-.4033-1.3244c.8849.4394 1.8.8067 2.7451 1.0956l-.6622 1.806c-1.0415-.2769-2.0589-.6561-3.0281-1.1257zm7.1579 2.7752l-.0301-.024c-1.3245-.0061-2.6429-.1867-3.9191-.5358l.8127-2.2034c1.0114.2529 2.0528.3913 3.1003.3973h.0663c1.0475-.012 2.0889-.1444 3.1003-.3973l.8127 2.2034c-1.2823.3612-2.6127.5478-3.9431.5598zm4.1056-1.6133v-.0181l-.6622-1.806c.9452-.289 1.8602-.6562 2.7452-1.0957l-.4034 1.3244 1.3666.4576c-.9753.4756-1.9987.8608-3.0462 1.1378zM34.3812 6.62943c1.3605-.03612 2.697.37324 3.8046 1.16187.1746-.89097.5057-1.74582.9813-2.52241l-1.3665.15652-.7104-1.52307-1.3786.71037-1.3304-1.3184-1.3305 1.3184-1.3786-.71037-.7103 1.52307-1.3666-.15652c.4756.77659.8067 1.63144.9813 2.52241 1.1077-.78863 2.4441-1.19799 3.8047-1.16187zm-3.4796-.67425l.3792.04214.1626-.34314.4756-1.02341.8849.45752.3432.17458.2769-.25284.9572-.96923.9572.96923.2769.2709.3431-.17458.879-.45752.4816 1.02341.1625.34314.3793-.04214.3612-.04214c-.1445.3311-.2709.67425-.3733 1.02341-2.1732-1.11371-4.7558-1.11371-6.9291 0-.1023-.34916-.2287-.69231-.3732-1.02341l.3552.02408zM52.2368 19.0548l-.1626-.1986c-1.1197-1.4268-2.1853-2.7813-4.0876-3.4014.0783-.0662.1565-.1264.2408-.1806.903-.5117 1.5411-1.3906 1.7458-2.408.1024-.9211-.1565-1.8421-.7224-2.5766l-.602-.75248-.3793.89698c0 .0542-.6682 1.493-2.0167 1.493h-.3973c.0722-.9452-.2709-1.8783-.9391-2.55252-.8127-.83077-1.9325-1.29431-3.0943-1.28829-.2168 0-.4335.01806-.6442.04816l-.9211.1806.5719.75251c.4455.602.8489 1.64344.3733 2.20334-.2288.1987-.4876.3552-.7706.4635-.602.283-1.4689.6863-1.4689 1.6977 0 .6562.5117 1.3425 1.4328 1.9264 2.715 1.7218 4.3946 3.4977 5.1231 5.4963 1.1257 3.0462-.3432 4.78-1.7699 5.695l-.6382.4094.5599.5117c.4997.4274 1.1137.6923 1.7699.7585h.5478c.5599 0 1.1138-.0782 1.6495-.2408-.1324.2348-.2949.4575-.4695.6622-.8127.9452-2.0168 1.4629-3.2629 1.3967h-.5358l-.0421.5358c-.006.7525.3251 1.4628.897 1.9505.1505.1324.319.2408.4996.325-.8909.8669-1.3966 2.0529-1.4147 3.299 0 .6803-.1565 1.3546-.4515 1.9686l-.602.903h1.0716c1.7699 0 3.1244-.4876 4.0635-1.4568.4876-.5117.8488-1.1318 1.0595-1.8061.3492.295.7586.4997 1.2041.602.2107.0482.4274.0723.6441.0723.3251 0 .6502-.0422.9632-.1144l.6863-.1806-.301-.6381c-.3793-1.0174-.3793-2.1432 0-3.1606.2227-.6622.3793-1.3485.4635-2.0468.5418.2769 1.1439.4154 1.7519.4094.9993.012 1.9324-.4816 2.4742-1.3184l.3311-.602-.602-.2529c-2.0167-.8367-2.4622-3.0882-2.5525-4.3043.1987.0421.3973.0662.602.0722l.1686.1144c2.1913 0 2.9257-2.2334 2.9558-2.3297l.2469-.7887h-.8248c-1.7338-.0602-3.3532-.8789-4.4247-2.2455zm2.0528 4.7559h-.0843c-.4394.006-.8729-.1144-1.2461-.3431 0 0-.3191 4.3525 2.9257 5.701v.018c-.4274.6502-1.1618 1.0355-1.9384 1.0234-.879.0542-1.7278-.319-2.2816-.9993.018 1.0234-.1505 2.0468-.4937 3.01-.4395 1.1619-.4395 2.4502 0 3.6121-.2709.0662-.5418.1023-.8187.1023-.1686 0-.3432-.0181-.5057-.0602-.8007-.1926-1.4388-.7826-1.6977-1.5592 0 0 .1265 4.1779-4.7438 4.1779h-.0361c.3672-.6983.5599-1.4749.5539-2.2635.2107-3.0883 2.3056-3.5278 2.3056-3.5278-.5779-.0722-1.1257-.2769-1.6073-.602-.4395-.3672-.6923-.909-.7044-1.4809 1.4087.0602 2.7693-.5238 3.6903-1.5953.5539-.6321.9211-1.4027 1.0776-2.2275-.7766.584-1.7338.879-2.703.8368h-.4936c-.5238-.0541-1.0234-.2588-1.4268-.602 1.8542-1.204 3.1545-3.2628 2.0047-6.3873-.9271-2.5043-3.1485-4.3765-5.3819-5.7852-.7405-.4576-1.186-.9753-1.186-1.4208 0-1.0475 1.487-1.0776 2.101-1.806.7044-.8187.2649-2.14314-.3492-2.93779.1746-.0301.3552-.04214.5298-.04214 1.0054-.01204 1.9746.39131 2.6729 1.11371.7104.67422.9813 1.69162.7104 2.63082l.3251.0662c.1986.0361.3973.0542.602.0602h.1324c1.7639 0 2.5585-1.8482 2.5585-1.8482s1.8783 2.3117-.8849 4.1177c-.4756.3071-.6863.602-.602.903l.0421.1987.1987.0361c2.0047.5418 3.01 1.9265 4.2562 3.4977 1.1799 1.499 2.9619 2.402 4.8702 2.4682h.0361s-.602 1.9144-2.408 1.9144z"/>
		<path d="M50.4246 15.7257c.6742.3853 1.2582.9091 1.7157 1.5352.3432.5297.8308.9511 1.4087 1.204.2167.0722.4515.1083.6803.1083.921 0 1.7639-.5237 2.1853-1.3424l.3491-.7826-.8488-.0482c-.9151-.1686-1.7398-.6381-2.3478-1.3425-.4515-.4876-1.0836-.7706-1.7519-.7766-.5177.006-1.0174.1626-1.4508.4395l-.7826.5478.8428.4575zm1.4087-.8608l-.0181.006c.5117 0 .9933.2227 1.3365.602.7043.8067 1.6675 1.3425 2.7271 1.5171-.3251.608-.9572.9872-1.6495.9933-.1686 0-.3371-.0301-.4997-.0843-.9752-.3311-1.3184-1.806-3.01-2.697.3311-.2167.7164-.3311 1.1137-.3371zM50.8219 23.4856l-.012-.012c-.4936-3.9733-3.3773-6.8448-6.5859-8.5846-.295-.1626-.572-.295-.8368-.4214 1.3244.2709 2.703-.0542 3.7685-.885 0 0-1.8602 1.3666-5.6649.1264 1.0536.6863 3.1004 1.6495 4.9726 3.2147 4.6716 4.1057 1.3305 8.1151 1.3305 8.1151 1.3966-1.3244 1.8842-3.3472 1.2581-5.1652.9873 1.6434 1.4629 3.5458 1.3606 5.4602-.1325 3.1545-1.8843 5.9117-3.6903 8.109-.5418.6923-.9151 1.505-1.0716 2.3719.307-.8609.7706-1.6555 1.3726-2.3418 1.9565-2.2936 3.612-4.6716 3.8468-8.097.2047.602 1.0355 2.3539 2.3599 3.01 0 0-1.6616-.9993-2.4081-4.9003zM25.8989 38.1686c-.289-.6141-.4455-1.2883-.4515-1.9686-.0181-1.2462-.5298-2.4321-1.4208-3.299.1806-.0843.3492-.1926.4997-.3251.5719-.4876.903-1.198.897-1.9505l-.0361-.5358h-.5419c-1.2401.0602-2.4441-.4515-3.2568-1.3966-.1746-.2047-.3311-.4275-.4696-.6622.5358.1625 1.0897.2408 1.6495.2408h.5479c.6561-.0663 1.2762-.3311 1.7759-.7586l.5598-.5117-.6381-.4093c-1.4328-.9151-2.8956-2.6489-1.7699-5.695.7284-1.9806 2.408-3.7686 5.1472-5.4903.921-.602 1.4267-1.2702 1.4267-1.9264 0-1.0114-.8488-1.4147-1.4689-1.6977-.2829-.1084-.5418-.2649-.7705-.4635-.4816-.5599-.0783-1.62545.3732-2.20338l.602-.75251-.9271-.1806c-.2107-.03612-.4274-.04816-.6441-.04816-1.1739-.03612-2.3057.41539-3.1365 1.24013-.6802.66822-1.0354 1.60732-.9692 2.55852h-.3612c-1.3545 0-1.9927-1.4328-2.0167-1.493l-.3793-.89695-.602.75255c-.5599.7344-.8187 1.6555-.7164 2.5765.2047 1.0174.8368 1.8964 1.7398 2.4081.0843.0541.1686.1143.2408.1806-1.9023.602-2.9679 1.9746-4.0876 3.4013l-.1626.2047c-1.0715 1.3665-2.6969 2.1853-4.4307 2.2455h-.8248l.2529.7886c0 .0963.7585 2.3298 2.9558 2.3298h.1084c.2047-.0061.4033-.0301.602-.0723-.0903 1.204-.5358 3.4676-2.5585 4.3044l-.602.2528.3311.602c.5418.8368 1.4749 1.3305 2.4742 1.3184.608.006 1.204-.1324 1.7458-.4093.0843.6983.2408 1.3846.4636 2.0468.3792 1.0174.3792 2.1431 0 3.1605l-.301.6381.6862.1806c.3131.0723.6382.1144.9633.1144.2167 0 .4334-.0241.6441-.0722.4455-.1024.8549-.307 1.204-.602.2107.6742.5719 1.2943 1.0596 1.806.9451.9692 2.2996 1.4508 4.0635 1.4568h1.0716l-.5418-.9872zm-.5178.3371c-4.8702 0-4.7498-4.1779-4.7498-4.1779-.2589.7765-.897 1.3665-1.6977 1.5592-.1625.0421-.3371.0602-.5056.0602-.277 0-.5479-.0362-.8127-.1024.4394-1.1619.4394-2.4502 0-3.612-.3432-.9632-.5057-1.9866-.4877-3.0101-.5538.6803-1.4026 1.0536-2.2816.9994h-.0301c-.7826.012-1.517-.3793-1.9445-1.0295 3.2449-1.3485 2.9258-5.701 2.9258-5.701-.3733.2288-.8067.3492-1.2462.3432h-.0662c-1.806 0-2.408-1.9144-2.408-1.9144h.0361c1.9084-.0602 3.6963-.9632 4.8763-2.4622 1.2401-1.5712 2.2515-2.9559 4.2562-3.4977l.1986-.0361.0422-.1986c.0541-.3071-.1566-.6021-.6021-.9031-2.7632-1.806-.8849-4.1177-.8849-4.1177s.7826 1.8482 2.5585 1.8482h.0843c.2047-.006.4033-.0241.602-.0602l.3251-.0662c-.2769-.9392 0-1.9566.7104-2.63081.6983-.72241 1.6675-1.12575 2.6729-1.11371.1746 0 .3552.01204.5297.04214-.602.80067-1.0475 2.12508-.3431 2.93778.602.7044 2.095.7345 2.095 1.806 0 .4455-.4154.9632-1.1559 1.4268-2.2394 1.4087-4.4608 3.2809-5.3819 5.7853-1.1498 3.1244.1505 5.2013 2.0047 6.3873-.4034.3371-.903.5478-1.4268.602h-.4997c-.9692.0421-1.9264-.2529-2.703-.8368.1566.8247.5238 1.5953 1.0716 2.2274.9211 1.0655 2.2876 1.6555 3.6963 1.5953-.012.5719-.2649 1.1137-.7043 1.481-.4816.325-1.0295.5297-1.6074.602 0 0 2.101.4274 2.3298 3.5277-.006.7886.1866 1.5652.5538 2.2636l-.0301-.0241z"/>
		<path d="M14.527 18.5672h.0061c.2287 0 .4635-.0361.6802-.1083.578-.2529 1.0656-.6743 1.4087-1.2041.4515-.626 1.0355-1.1498 1.7097-1.5351l.8428-.4515-.7826-.5478c-.4334-.2769-.9331-.4335-1.4448-.4395-.6682.006-1.3003.289-1.7518.7826-.602.6984-1.4328 1.174-2.3418 1.3425l-.8489.0422.3432.7826c.4214.8187 1.2582 1.3304 2.1792 1.3364zm1.0837-3.0943c.3371-.3793.8187-.602 1.3304-.602.3913.006.7766.1264 1.1077.3371-1.7037.909-2.0589 2.3659-3.01 2.697-.1566.0542-.3251.0843-.4937.0843-.6983 0-1.3364-.3853-1.6615-.9993 1.0595-.1746 2.0227-.7104 2.7271-1.5171zM18.3619 25.3579c-.1023-1.9144.3673-3.8168 1.3606-5.4602-.6261 1.818-.1385 3.8408 1.2582 5.1652 0 0-3.3472-4.0094 1.3304-8.1151 1.8722-1.5652 3.9131-2.5284 4.9666-3.2147-3.8047 1.2401-5.6649-.1264-5.6649-.1264 1.0655.8308 2.4381 1.1558 3.7625.8849-.2649.1265-.5418.2649-.8368.4214-3.2087 1.7459-6.1103 4.6174-6.5859 8.5907v-.0301c-.7465 3.901-2.408 4.9003-2.408 4.9003 1.3183-.6502 2.1551-2.408 2.3538-3.01.2227 3.4314 1.8963 5.8093 3.8528 8.097.596.6862 1.0656 1.4809 1.3726 2.3418-.1625-.8609-.5358-1.6736-1.0836-2.3599-1.806-2.1973-3.5518-4.9545-3.6783-8.0849zM33.2795 18.1097c.2107-.2047.5057-.301.8007-.2649v1.1378c-.006.2829-.0783.5538-.2167.8007h1.1378c-.1385-.2469-.2107-.5178-.2167-.8007v-1.1378c.2889-.0361.5839.0602.7946.2649v-.7886h-2.2997v.7886zM32.804 12.6495h-.012c.1746.1505.3793.2709.602.3431l.1445.0663v-.7465l-1.3365-.5599c.0662.3732.283.6983.602.897zM35.9767 12.6435l-.006.006c.319-.1987.5357-.5238.602-.897l-1.3365.5599v.7404l.1385-.0662c.2227-.0722.4274-.1926.602-.3431z"/>
		<path d="M38.3726 9.62743c0-1.12576-1.8963-2.13713-3.9853-2.13713S30.402 8.50167 30.402 9.62743l.0422.27692.8367 4.81605-.8367.4876-2.1853 1.2402s-.4877.2528-.7164.4033c-.8248.602-.9993 1.4087-.5238 1.7579.1204-.8188.8368-1.4208 1.6676-1.3967.6923.0181 1.3365.3672 1.7278.9391.1204.1445.2287.301.325.4576.1265.2046.2529.3852.3793.5598h-5.5746c.4696.8067.7405 1.7157.8007 2.6489v12.3832c0 3.0101 2.3057 4.4248 4.816 4.4248 1.9265 0 2.1853-.0903 3.2449.9692 1.0595-1.0595 1.3184-.9692 3.2448-.9692 2.4923 0 4.816-1.4268 4.816-4.4248V21.8301c.0602-.9331.3311-1.8421.8007-2.6488h-5.6348c.1264-.1746.2529-.3552.3793-.5599.1023-.1565.2107-.313.3251-.4575.3973-.5719 1.0414-.9211 1.7337-.9392.8308-.024 1.5472.578 1.6676 1.3967.4816-.3431.307-1.204-.5237-1.7579-.2228-.1565-.7104-.4033-.7104-.4033l-2.1672-1.2763-.8368-.4876.8368-4.81603.0361-.25284zm-7.1639.55387l2.9378.9933v4.6114l-2.1612-1.1439-.7766-4.4608zm-4.4609 9.8006h5.0629c.3913.4094.8729.7345 1.4027.9392-.1144.3973-.0843.8247.0782 1.204.1927.4033.5358.7164.9572.8789.0783.6923.5479 1.2702 1.204 1.499-.3612.3672-.7163.7104-.8608.8488l-3.3652-.0541c-.1144-.0542-.2047-.1385-.2649-.2469v-.0421l.5478.0903h.0361c.1084 0 .1987-.0722.2168-.1806.018-.1204-.0603-.2288-.1807-.2529l-.6742-.1083.7465-2.5886-.7104-1.493-1.1378 1.204-.0722 2.691-.7646-.1204c-.1204-.0241-.2287.0541-.2528.1745v.0061c-.0181.1204.0602.2287.1806.2528l.3191.0482c-.1144.0662-.1927.1143-.1987.1264l-.0662.0481v.0783c-.1505.6863.1264 1.3967.6923 1.806v.0964c-.0361.2347.1264.4575.3612.4996h.0722c.1987 0 .3733-.1384.4154-.3371.1445.006.283.006.4274 0h.0903l4.4127.8007.0723-.0482c.3492-.2468 1.6916-1.204 2.1311-1.5472.1264.1084.2709.2047.4214.277-.2047.6321-.0482 1.3244.4094 1.806H27.1512v-6.5077c-.0241-.6321-.1626-1.2582-.4034-1.8482zm10.499 5.9539c-.4575.3371-1.5832 1.1558-1.9926 1.4448l-4.0034-.6983v-.1084c.0663-.2709.1024-.5478.1084-.8247l3.3712.0541.0663-.0662c.0541-.0542 1.1197-1.0836 1.6615-1.6796.1445.1806.313.3311.5057.4515-.0963.4937.006 1.0054.2829 1.4268zm-6.6883-.7224v.018c.0903.1686.2228.3131.3853.4094-.006.2468-.0301.4876-.0722.7284 0 .0542 0 .1084-.0422.1626v.0842c-.2769 0-.5478-.0421-.8127-.1264-.4816-.2588-.7525-.7886-.6742-1.3304.2167-.1505.4635-.2468.7224-.283.2227-.006.4214.1265.4936.3372zm-.4153-.8007l.0662-2.5465.602-.602.3672.7646-.7164 2.4802-.319-.0963zm7.0735 13.4127h-.5779l.4515-1.4749c.0722-.2047-.301-.4696-.4575-.7044.3672.2228.7465.4214 1.1378.602 0 .0482-.5539 1.5773-.5539 1.5773zm1.5472-1.6495l-.0482-.0421-.313 1.6254c-.1987 0-.4094.0421-.602.0542l.3311-1.5653c.0963-.4635-1.1499-.602-1.7639-1.523-.4033.3371-.9211.4936-1.4388.4394-.4575-.006-.909-.0541-1.3545-.1444-.0783-.0061-.1565-.0061-.2348 0-.1866-.0121-.3672.0842-.4635.2468l-.0903.1505-1.7158-.4154-.4093.7104c-.0662.0963-.0542.2287.0301.313l.1144.1264c-.1144.2228-.2589.4275-.4335.602l-.2528-.313c-.1927-.3131-.1746-.7164.0421-1.0114l.6743-1.1378 1.4388.2168-.2228-.5118c-.301-.6742.1565-1.5351.2047-2.0287 0 .1505-.1565.1806-.313.1806h-.4154c-.0301-.006-.0663-.006-.0964 0l-.3913.2348-.307-.283c-.0481-.0903-.0301-.1986.0422-.2649l.7103-.8006-.8428-.9813 1.204.602.3612-.4334c.0964.0963.0542.3491.0542.3491.8729.2168 1.481 1.0114 1.4569 1.9144v.1746c.1204.1926.313.3251.5297.3793l1.6315.1625c.3251-.1023.6562-.1686.9933-.2107.2889 0 .5779.0903.8187.2468.1144-.0782.2529-.1264.3913-.1324h.0542c.7284 0 1.0354.6622 1.4268 1.204.2949.4154.6923 1.0415.6923 1.0415-.1144.1685-.301.2709-.5057.2709-.0723.006-.1385.006-.2107 0-.7826-.1445-.897-1.7579-1.3425-1.8843h-.0722c-.0843 0-.1626.0481-.2047.1264.2047.5478.0843.7706.307 1.204.1625.2589.3672.4937.602.6923 0 0-.0301.2408-.0662.4154zm-8.7712-1.5772h-.0121l.0723.1866c-.0482.1625-.6021.3973-.6021.3973l-.1204-.2649c-.1565-.3792-.0421-.8127.289-1.0595l.909-.5539.9693.2047c-.0061.1927.0541.3793.1685.5358l-1.0174-.1926-.602.4214c-.0963.0843-.1144.2167-.0541.3251zm11.6428-.3914c.0662 1.6736-1.0957 3.1425-2.7392 3.4676l.2769-1.4568c0-.0843.0301-.1867.0422-.271.0843.0362.1686.0602.2528.0783.0964.006.1927.006.289 0 .3311 0 .6441-.1505.8428-.4154l.2167-.2528-.1806-.2468s-.4033-.6382-.7043-1.0596l-.1686-.2528c-.3371-.5057-.7645-1.1438-1.6134-1.1438h-.0782c-.1204.006-.2468.0301-.3612.0722-.2589-.1264-.5418-.1926-.8308-.1926-.289.006-.5779.0602-.8488.1625l-.1445.0422-1.5893-.1566c-.0662-.0301-.1204-.0782-.1625-.1384l.3431-.1385c-.0963-1.1498-1.204-1.8542-1.806-2.089-.0301-.1264-.0903-.2347-.1806-.325l-.3432-.3251-.301.3612-.1505.1806-2.2274-.9151 1.4508 1.8061-.5719.8668c-.1204.1204-.1264.3191 0 .4455l.602.4094.602-.2288h.0602c0 .0903-.0662.4576-.0963.5599l-1.0475-.1806-1.1197.602c-.5177.3732-.6983 1.0595-.4274 1.6375l.1264.2709.1746.3852.3913-.1625c-.1445.3913-.0843.8248.1685 1.1559l.2348.301.3131.3973.3491-.3733c.2288-.2287.4094-.4936.5358-.7886l.0723-.2408-.1686-.1866v-.0361l.1926-.3131 1.3907.3251.313.0722.1686-.2769.0903-.1505c0-.0301 0-.0361.0843-.0361h.1505c.4756.0963.9572.1445 1.4388.1505.325.0181.6501-.0181.9632-.1144l.7705.879-.4575 1.4086v.0843c-.6863-.012-1.3425.2709-1.806.7706-.7405-.7345-1.2642-.8127-3.2448-.8127-2.3779 0-3.9853-1.3906-3.9853-3.6121v-5.418h14.4482v5.418zm.3913-14.2254c-.2469.584-.3793 1.2101-.4034 1.8482v4.0575c-.5237-.1144-.915-.5598-.9512-1.0956v-.1867h-.1806c-.313-.024-.602-.1685-.8187-.3913-.2649-.307-.4094-.6923-.4154-1.0956-.2588.4214-.2348.9632.0663 1.3605.2347.295.5779.4937.9511.5418.1084.6984.6682 1.2402 1.3666 1.3305v1.9866H39.113c-.6622-.3371-.9391-1.1258-.6441-1.806l.0963-.2168-.2227-.0842c-.7224-.2529-1.1198-1.0295-.891-1.7639l.0482-.1806-.1686-.0783c-.6321-.3672-.9813-1.0836-.8789-1.806-.3311.3371-.4154.8488-.2047 1.2702-.1204.1385-.2769.301-.4515.4816-.6321-.1324-1.0896-.6802-1.1137-1.3244v-.1505l-.1385-.0542c-.3672-.1083-.6682-.3612-.8428-.6983-.1144-.2769-.1385-.5899-.0602-.8789.1204.0241.2408.0421.3612.0542.1204.006.2468.006.3672 0 .9753 0 1.9024-.4214 2.5525-1.1438l5.1051.024zm-3.901-4.1056l.9872.602.2469.1444c-.5117.1385-.9753.4154-1.3425.8007l-.0421.0361c-.0843.0903-.1626.1806-.2408.277l-.0482.0602c-.0783.0963-.1505.1986-.2167.307l-.0361.0542c-.0843.1204-.1626.2528-.2409.3852-.5478 1.0897-1.6133 1.8181-2.8234 1.9385-1.21-.1204-2.2755-.8488-2.8234-1.9385-.0782-.1324-.1565-.2588-.2348-.3852l-.0481-.0663-.1927-.313-.0541-.0662c-.0783-.0963-.1566-.1867-.2348-.2709l-.0422-.0422c-.3672-.3853-.8307-.6622-1.3424-.8006l.2528-.1445.9933-.602 1.0174-.602 2.7151 1.4749 2.715-1.4268 1.0355.578zm-1.3365-1.2041L34.6281 15.81v-4.6294l2.9318-.9933-.7706 4.4849zm-2.408-3.9792l-3.2147-1.28832c.2709-.65016 1.5351-1.20401 3.2147-1.20401 1.6796 0 2.9438.55385 3.2147 1.20401L34.3813 10.693z"/>
	</g>
</svg>
