<svg xmlns="http://www.w3.org/2000/svg" viewBox="0 0 200 50">
	<g fill="#00AFAA">
		<path d="M45 16.65h10.34c4.6405 8.078 11.342 14.7795 19.42 19.42v10.34c-6.9059-2.3547-13.1797-6.2619-18.3389-11.4211C51.2619 29.8297 47.3547 23.5559 45 16.65z"/>
		<path d="M74.79 16.65H55.34C52.8775 12.3841 51.0388 7.7874 49.88 3h11.23c3.623-.00001 7.098 1.43715 9.6626 3.99617C73.3373 9.55518 74.7821 13.027 74.79 16.65z"/>
		<path d="M74.68 3c.7427 3.36425 2.4316 6.44608 4.8678 8.8822 2.4361 2.4362 5.5179 4.1251 8.8822 4.8678V3H74.68z"/>
	</g>
	<g fill="#00539B">
		<path d="M74.79 16.65v19.42c-8.078-4.6405-14.7795-11.342-19.42-19.42h19.42z"/>
		<path d="M111.11 19.85v13.88h-4.25V19.85h-4.49v-3.26h13.23v3.25l-4.49.01zm26.61-1.71c1.421-1.1429 3.177-1.7891 5-1.84 4.91 0 7.24 3.46 7.24 8.42 0 6.27-3.52 9.47-8.61 9.47s-7.77-3.2-7.77-10.58c0-6.14 1.39-10.37 3.52-12.33 2.44-2.26 3.2-2.2 6.06-2.94 1.76-.45 3.46-.73 4.12-1l1.55 3.52c-.84.5-2.41.87-5.54 1.5-3.62.71-5.25 2-5.62 5.75l.05.03zm3.88 12.6c2.81 0 3.86-2.28 3.86-5.54 0-2.94-.87-5.35-3.7-5.35-1.284-.0769-2.552.3139-3.57 1.1-.135 1.3287-.179 2.6653-.13 4-.06 3.51 1.08 5.79 3.54 5.79zm-13.7 3l-5.72-8v8h-4.3V16.59h4.3v7.51l5.09-7.51H132l-5.54 7.77 6.51 9.4h-5l-.07-.02z"/>
	</g>
	<path fill="#F39A00" d="M88.43 30.27V41.5c-4.7823-1.1839-9.3741-3.0354-13.64-5.5V16.65c1.7899-.0013 3.5626.3499 5.2167 1.0337 1.6542.6838 3.1575 1.6866 4.4241 2.9514 1.2666 1.2647 2.2717 2.7665 2.9579 4.4197.6861 1.6531 1.04 3.4253 1.0413 5.2152z"/>
</svg>
