<svg xmlns="http://www.w3.org/2000/svg" viewBox="0 0 200 50">
	<path fill="#333" d="M70.66 37.47c-3.3106.1075-6.5349-1.0676-9-3.28-1.3206-1.2028-2.356-2.6852-3.0308-4.3391-.6747-1.6539-.9716-3.4376-.8692-5.2209-.078-3.023.9496-5.9706 2.89-8.29 1.8136-2.0868 4.2814-3.4969 7-4 3.3366-.7782 6.8439-.2675 9.82 1.43 1.794.9887 3.2941 2.4347 4.348 4.1912 1.0539 1.7564 1.6239 3.7606 1.652 5.8088.2 3.87-.72 7.35-3.58 10.11-2.4609 2.3323-5.7401 3.6037-9.13 3.54l-.1.05zm.17-19.29c-1.3115-.0732-2.6081.3087-3.6704 1.0813S65.3344 21.1497 65 22.42c-.4886 1.5456-.4886 3.2044 0 4.75.2974 1.0509.891 1.9939 1.7099 2.7166.8188.7226 1.8284 1.1944 2.9081 1.3588 1.0796.1645 2.1838.0148 3.1808-.4312.9969-.4461 1.8443-1.1696 2.4412-2.0842.6976-1.093 1.0954-2.3504 1.1533-3.6458.058-1.2954-.226-2.5833-.8233-3.7342-.4186-.947-1.1084-1.7487-1.9823-2.304-.8738-.5552-1.8926-.8392-2.9277-.816l.17-.05zM125 27.13c-1.24.07-2.41.16-3.71.23v9.52h-7V12.76h6.86v8.91c1.493.1293 2.997.0076 4.45-.36.858-.2503 1.638-.7162 2.264-1.3535.627-.6372 1.08-1.4244 1.316-2.2865.46-1.59.65-3.25 1-5h6.37c.13 5-.85 9.36-5.59 12.06.2.36.33.65.52.94 2 3.25 3.9 6.5 5.85 9.78.226.4539.423.9215.59 1.4h-7.31c-1.89-3.19-3.77-6.47-5.66-9.75l.05.03zm30.95-4.71c.049-.6925.049-1.3875 0-2.08-.097-.5376-.348-1.0355-.723-1.4332-.374-.3976-.856-.6779-1.387-.8068-1.832-.6032-3.776-.7911-5.69-.55-1.796.1169-3.552.5822-5.17 1.37-.29-1.72-.59-3.35-.91-5 1.399-.6758 2.887-1.1473 4.42-1.4 3.188-.6555 6.481-.6111 9.65.13 3.38.85 5.75 2.8 6.4 6.37.135.8933.188 1.797.16 2.7v9c.13 1.85.29 2 2.18 2.34v3.84c-1.867.6135-3.89.5569-5.72-.16-.483-.249-.9-.6091-1.216-1.0507-.316-.4416-.523-.952-.604-1.4893-.055-.2567-.089-.5176-.1-.78-2.31 3.32-5.59 4.13-9.23 3.93-4.06-.23-7.18-3-7.77-6.18-.94-5.23 1.72-9.13 7-9.95 3.41-.49 4.36-.26 8.68 1.2h.03zM155.9 27c-1.095-.7396-2.356-1.1965-3.67-1.33-.666-.1352-1.353-.1331-2.018.0062-.666.1393-1.296.4128-1.852.8038-.53.3963-.92.9509-1.115 1.5837-.194.6328-.182 1.3109.035 1.9363.182.5561.528 1.0445.991 1.4013.464.3567 1.025.5654 1.609.5987 1.185.1205 2.382-.0583 3.48-.52.902-.3013 1.66-.9256 2.129-1.7528.469-.8272.616-1.7986.411-2.7272zm-53.84-14.27h6.76v24.18H102v-7.73c-1.27.29-2.41.62-3.61.78-3.12.42-6.08 0-8.58-2-1.8453-1.5867-3.0678-3.7766-3.45-6.18-.59-3-.23-6-.33-9h7.05v1.07c0 2 0 3.9.1 5.88.0192.5858.1548 1.1619.3987 1.6949.244.5329.5915 1.012 1.0224 1.4094.4308.3973.9364.705 1.4873.9052.5509.2001 1.1361.2887 1.7216.2605 1.5244.0472 3.022-.4097 4.26-1.3l-.01-9.97zM48.91 36.82h-6.79V18.91H35v-6.15h21v6.08h-7.09v17.98z"/>
</svg>
