<svg xmlns="http://www.w3.org/2000/svg" viewBox="0 0 200 50">
	<path fill="#231F20" d="M159.454 20.4956c-.193-1.2208-1.08-1.9063-2.214-2.3104-1.946-.6949-3.96-.7328-5.996-.5685-1.88.1513-3.699.5224-5.453 1.4205-.325-1.7514-.637-3.4308-.954-5.129 1.543-.7469 3.092-1.1629 4.684-1.443 3.404-.5968 6.816-.6902 10.19.1406 3.558.8769 6.057 2.8789 6.747 6.5614.17.91.163 2.2869.163 2.2869v8.2726c0 .3593.045 1.1275.068 1.4856.126 1.9121.302 2.0989 2.311 2.3884v3.9366c-1.983.4869-4.02.7434-6.036-.1808-1.134-.5188-1.656-1.4796-1.905-2.6142-.032-.1488-.048-.3012-.067-.4843v-.0038c-.009-.0949-.02-.198-.034-.3131-2.434 3.4024-5.917 4.2379-9.746 4.0288-4.289-.234-7.582-3.0349-8.189-6.3393-.986-5.3772 1.803-9.3942 7.371-10.2049 3.52-.5129 4.529-.2955 9.079 1.2102 0-.2277.01-.4547.018-.6806.019-.4951.038-.9841-.037-1.4597Zm-.12 6.8379c-1.168-.7811-2.496-1.1912-3.884-1.3626-1.443-.1784-2.867-.0851-4.091.8344-1.123.8438-1.548 2.184-1.137 3.5655.316 1.0625 1.429 1.8945 2.741 2.015 1.265.1182 2.492-.0685 3.66-.5519 2.096-.8686 2.917-2.2395 2.711-4.5004ZM70.9737 37.9994c-3.6403.0213-6.9131-1.0081-9.629-3.3398-3.0123-2.5858-4.2019-5.9516-4.1722-9.7665.0262-3.1649.9018-6.0437 3.0967-8.4759 1.9689-2.1805 4.4743-3.4781 7.3985-4.0678 3.6724-.741 7.2069-.325 10.4594 1.4572 4.102 2.2489 6.1279 5.7719 6.3778 10.2569.22 3.9449-.7626 7.4986-3.8069 10.3337-2.7017 2.5161-6.0149 3.5644-9.7243 3.6022Zm.0881-19.6216c-3.0836.0733-5.2476 1.6652-6.0744 4.2864-.508 1.6155-.4759 3.2181.0309 4.8336.7364 2.3459 2.3674 3.7865 4.8514 4.1624 2.5161.3793 4.6777-.4231 6.053-2.5433 1.5644-2.4144 1.5941-4.9932.3462-7.547-1.0683-2.1876-2.9718-3.1661-5.2071-3.1921Zm51.5412 8.9859h3.569l.583.13.823 1.4511.012.0228c1.716 3.029 3.431 6.0561 5.117 9.0324h7.741c-.081-.1972-.15-.3834-.216-.5596-.131-.3506-.247-.662-.412-.9437-1.324-2.2638-2.658-4.5213-3.991-6.7787l-.009-.0153-.006-.0104c-.729-1.234-1.457-2.468-2.185-3.7031-.126-.2122-.24-.4329-.362-.671l-.001-.0006c-.056-.109-.114-.2216-.176-.3388 5.027-2.9321 6.071-7.6369 5.926-12.9787h-6.895c0 2.0958-.348 3.3284-.757 4.777v.0011c-.053.1848-.106.3732-.159.5673-.539 1.9582-1.879 3.2665-3.793 3.9295-1.06.367-2.194.3011-3.355.2337-.481-.0279-.966-.0561-1.454-.0541v-9.4545h-7.137v25.9774l7.137.0225V27.3637Zm-18.957-15.3636h7.061V38h-7.13v-8.3377c-.421.0967-.831.201-1.234.3036-.852.2172-1.674.4267-2.509.539-3.237.435-6.3194.039-8.9593-2.1792-2.0414-1.716-3.237-4.017-3.5987-6.6276-.2456-1.7704-.2662-4.0951-.287-6.4304-.0098-1.1036-.0196-2.2095-.0532-3.2605l7.1165-.0071V19.091c0 2.7832 2.4686 4.979 5.156 5.018 1.6597.0236 2.6277-.3782 4.3527-1.4655l.085-10.6434ZM39.3276 38h7.1379V19.091h8.3276v-7.0909H31v7.0909h8.3276V38Z"/>
</svg>