<svg xmlns="http://www.w3.org/2000/svg" viewBox="0 0 200 50">
	<path fill="#231F20" d="M67.29 37.81c0 .14 0 .18-.18.18h-1C66 38 66 38 66 37.81v-6c0-.14 0-.18.18-.28.6352-.2558 1.3153-.3817 2-.37 1.76 0 2.36 1.11 2.36 2.54s-.69 2.54-2.17 2.54c-.3548-.0091-.7088-.0391-1.06-.09l-.02 1.66zm.71-5.55c-.2324.0075-.4635.0376-.69.09v2.55c.2571.0708.5236.1012.79.09.6 0 1.06-.37 1.06-1.39s-.43-1.34-1.16-1.34zm8 .92c0 .65-.28.83-.69.83H73c-.0009.1411.0282.2808.0852.4099.0569.1291.1406.2447.2455.3391.1048.0945.2284.1657.3628.2089.1343.0433.2762.0576.4165.0421.3651-.0053.7255-.0835 1.06-.23h.23l.32.65c.0099.0209.0153.0436.0161.0667.0008.0231-.0032.0461-.0116.0677-.0084.0215-.0211.0411-.0374.0575-.0162.0165-.0357.0294-.0571.0381-.5008.2983-1.0776.4442-1.66.42-1.62 0-2.4-.79-2.4-2.5-.0432-.3266-.0154-.6587.0814-.9736.0969-.3149.2605-.6051.4798-.851s.489-.4415.7908-.5736c.3019-.1321.6286-.1975.958-.1918.2903-.019.5812.0256.8524.1306.2713.105.5164.2679.7182.4774.2019.2094.3556.4604.4505.7353.0948.275.1286.5673.0989.8567v-.01zm-3.05 0h1.71c0-.55-.18-1-.83-1-.2434.0253-.467.1455-.6224.3346-.1554.189-.23.4317-.2076.6754l-.05-.01zm5.36 2.91h-1c-.09 0-.18 0-.18-.14v-4.57c0-.14 0-.14.18-.14h1c.14 0 .18 0 .18.14V33H79c.1822.0133.3629-.0403.5084-.1507.1454-.1105.2456-.2702.2816-.4493l.32-1c0-.09.09-.14.18-.14h1c.14 0 .14.09.09.18l-.32 1.2c-.0293.182-.1043.3537-.218.4988-.1137.1452-.2623.2591-.432.3312.2009.0407.3844.1422.5257.2906.1413.1485.2335.3368.2643.5394l.46 1.62s0 .18-.14.18h-1.09c-.0356.0046-.0717-.0015-.1037-.0175-.0321-.016-.0587-.0413-.0763-.0725l-.42-1.43c-.0538-.1623-.1615-.3014-.3051-.3942-.1437-.0927-.3148-.1336-.4849-.1158h-.51V36s0 .09-.18.09h-.04zm6.47.09c-1.62 0-2.31-.92-2.31-2.54-.0209-.3195.024-.6399.1318-.9413.1079-.3015.2765-.5776.4954-.8113.2188-.2336.4833-.4199.7771-.5472.2938-.1274.6105-.1931.9307-.1931.3202 0 .6369.0657.9307.1931.2938.1273.5583.3136.7771.5472.2189.2337.3875.5098.4954.8113.1079.3014.1527.6218.1318.9413.04 1.63-.75 2.55-2.32 2.55l-.04-.01zm0-3.93c-.65 0-1 .55-1 1.39 0 .84.28 1.43.92 1.43s1-.6 1-1.39c0-.79-.19-1.42-.83-1.42l-.09-.01zm4.62 3.84h-.92c-.14 0-.18 0-.18-.18v-4.48c0-.14 0-.18.18-.18h.92c.18 0 .23 0 .23.18V33h1.71v-1.57c0-.14 0-.18.18-.18h.92c.18 0 .18 0 .18.18v4.49c0 .18 0 .18-.18.18h-.92c-.14 0-.18 0-.18-.18v-1.85h-1.62v1.85c0 .14-.04.18-.23.18l-.09-.01zm8-1.34c.18 0 .18 0 .23.09l.28.69v.28c-.5276.2713-1.1174.3989-1.71.37-1.43 0-2.22-.83-2.22-2.54-.0432-.3266-.0154-.6587.0814-.9736.0969-.3149.2605-.6051.4798-.851s.489-.4415.7908-.5736c.3019-.1321.6286-.1975.958-.1918.512-.0149 1.0199.095 1.48.32.18.09.18.09.09.28l-.28.69c0 .14-.14.14-.28.09-.2976-.0994-.6069-.1599-.92-.18-.74 0-1 .65-1 1.39 0 .74.23 1.29 1.06 1.29.3435.0314.689-.0308 1-.18h-.04zm3.93-2.45v3.61c0 .18 0 .18-.23.18h-.92c-.18 0-.23 0-.23-.18v-3.6h-1.21c-.14 0-.18 0-.18-.18v-.69c0-.18 0-.23.18-.23h4c.14 0 .18 0 .18.23v.69c0 .14 0 .18-.18.18l-1.41-.01zm3.75 5.5c0 .14 0 .18-.18.18h-1c-.14 0-.18 0-.18-.18v-6c0-.14 0-.18.18-.28.635-.2558 1.315-.3817 2-.37 1.76 0 2.36 1.11 2.36 2.54s-.69 2.54-2.17 2.54c-.355-.0091-.709-.0391-1.06-.09l.05 1.66zm.69-5.55c-.232.0075-.463.0376-.69.09v2.56c.298.0887.61.1226.92.1.6 0 1.06-.37 1.06-1.39s-.5-1.35-1.2-1.35l-.09-.01zm6.34 4.62c-.085.3666-.3.6901-.605.9106-.306.2206-.68.3233-1.055.2894-.311-.0082-.62-.0552-.92-.14-.14 0-.18-.09-.14-.18l.18-.74c0-.14.09-.14.18-.09.153.0205.307.0205.46 0 .088.0172.179.0166.267-.0019.088-.0185.171-.0545.245-.1058.073-.0513.136-.1169.184-.1929.048-.0759.08-.1608.094-.2494l.18-.51H111c-.28 0-.37 0-.46-.42l-1.39-4.12c0-.14 0-.18.14-.18h1.06c.18 0 .23 0 .28.18l.51 1.85.42 1.62.46-1.66.55-1.8c0-.14.09-.18.28-.18H114c.09 0 .14 0 .09.14l-1.9 5.55-.08.03zm3.93-.79h-1c-.09 0-.18 0-.18-.14v-4.56c0-.14 0-.14.18-.14h1c.14 0 .18 0 .18.14V33h.42c.182.0133.363-.0403.508-.1507.146-.1105.246-.2702.282-.4493l.32-1c0-.09.09-.14.18-.14h1c.14 0 .14.09.09.18l-.32 1.2c-.029.182-.104.3537-.218.4988-.114.1452-.262.2591-.432.3312.201.0407.384.1422.526.2906.141.1485.233.3368.264.5394l.46 1.62s0 .18-.14.18h-1.06c-.023-.0091-.043-.0226-.06-.0398-.017-.0172-.031-.0376-.04-.0602l-.42-1.43c-.054-.1623-.161-.3014-.305-.3942-.144-.0927-.315-.1336-.485-.1158h-.51V36c-.022.0271-.049.0492-.08.0648-.031.0155-.065.0241-.1.0252l-.06-.01zm8.83-1.08h.42c.28 0 .32.18.32.37l-.09 2c.004.0192.002.0389-.003.0575-.006.0187-.016.0356-.03.0494-.014.0138-.031.024-.049.0298-.019.0057-.039.0069-.058.0033h-.83c-.019.0036-.039.0024-.058-.0033-.018-.0058-.035-.016-.049-.0298-.014-.0138-.024-.0307-.03-.0494-.005-.0186-.007-.0383-.003-.0575v-1.29H121c-.075.0099-.15.0024-.222-.0217-.071-.0242-.136-.0644-.189-.1176-.053-.0532-.093-.1179-.117-.1891-.024-.0712-.032-.147-.022-.2216v-4.1c0-.14 0-.18.18-.18h1c.18 0 .18 0 .18.18V35h1.76v-3.57c0-.14 0-.18.18-.18h1c.14 0 .18 0 .18.18V35h-.06zm1.76-3.61c0-.09 0-.14.18-.14h1c.14 0 .18 0 .18.14v2.82c.46-.79.55-.92.74-1.2.19-.28.51-.83.92-1.48.18-.23.28-.32.55-.32h.46c.32 0 .51.09.51.51v4.21c0 .14 0 .14-.18.14h-1c-.14 0-.18 0-.18-.14v-2.79c-.28.42-.51.88-.79 1.29-.28.41-.55.92-.88 1.34-.33.42-.28.32-.55.32h-.42c-.42 0-.51-.18-.51-.51l-.03-4.19zm6 0c0-.09 0-.14.18-.14h1c.14 0 .18 0 .18.14v2.82c.46-.79.55-.92.74-1.2.19-.28.51-.83.92-1.48.18-.23.28-.32.55-.32h.46c.32 0 .51.09.51.51v4.21c0 .14 0 .14-.18.14h-1c-.14 0-.18 0-.18-.14v-2.79c-.28.42-.51.88-.79 1.29-.28.41-.55.92-.88 1.34-.33.42-.28.32-.55.32h-.42c-.42 0-.51-.18-.51-.51l-.03-4.19zm8.83 0c0-.09 0-.14.18-.14h1c.14 0 .18 0 .18.14v2.82c.46-.79.55-.92.74-1.2.19-.28.51-.83.92-1.48.18-.23.28-.32.55-.32h.46c.32 0 .51.09.51.51v4.21c0 .14 0 .14-.18.14h-1c-.14 0-.18 0-.18-.14v-2.79c-.28.42-.51.88-.79 1.29-.28.41-.55.92-.88 1.34-.33.42-.28.32-.55.32H142c-.42 0-.51-.18-.51-.51l-.03-4.19zm10.13 6.43c0 .14 0 .18-.18.18h-1c-.14 0-.18 0-.18-.18v-6c0-.14 0-.18.18-.28.635-.2558 1.315-.3817 2-.37 1.76 0 2.36 1.11 2.36 2.54s-.69 2.54-2.17 2.54c-.355-.0091-.709-.0391-1.06-.09l.05 1.66zm.69-5.55c-.232.0075-.463.0376-.69.09v2.54c.257.0708.524.1012.79.09.6 0 1.06-.37 1.06-1.39s-.49-1.34-1.19-1.34l.03.01zm7.68 3.61c-.636.2495-1.318.3587-2 .32-1.66 0-2.17-.69-2.17-1.53 0-.84.65-1.66 1.94-1.66h1v-.14c0-.32-.14-.65-.79-.65-.435.0116-.868.072-1.29.18-.18 0-.18 0-.23-.14l-.14-.65c0-.14 0-.18.09-.23.582-.1863 1.189-.2807 1.8-.28 1.34 0 1.94.6 1.94 1.71v2.69c.015.0729.005.1485-.028.2153-.032.0668-.086.1212-.152.1547l.03.01zm-1.16-2h-.8c-.32 0-.83 0-.83.65 0 .42.32.6.79.6.268-.0125.534-.0595.79-.14v-1.11h.05zm3.05-1.43h-.23l-.23-.6c0-.14-.09-.18.09-.28.567-.251 1.18-.3772 1.8-.37 1.16 0 1.9.42 1.9 1.29-.016.2206-.088.4334-.209.6188-.12.1853-.286.3371-.481.4412.238.0738.446.2209.595.4203.149.1994.231.4408.235.6897 0 1.06-1 1.57-2.17 1.57-.632.0143-1.26-.0943-1.85-.32-.14 0-.14-.14-.09-.23l.23-.69c0-.09.09-.14.23-.09.434.1361.885.2135 1.34.23.74 0 1-.32 1-.6 0-.28-.32-.51-1.06-.51-.23 0-.37-.09-.37-.32v-.28c0-.23.14-.28.37-.28.6 0 .88-.18.88-.51s-.32-.42-.79-.42c-.396.022-.786.0994-1.16.23l-.03.01zm8.28 1c.236.0873.439.2459.58.4538.142.2079.215.4547.21.7062-.011.2211-.067.4376-.165.6362s-.235.375-.404.5184c-.169.1434-.365.2506-.577.3152-.211.0646-.434.0851-.654.0602H167c-.42 0-.55-.18-.55-.46v-3.93c0-.32.09-.51.51-.51h2.17c.88 0 1.57.32 1.57 1.25.003.1969-.053.3901-.16.5556-.106.1654-.26.2957-.44.3744l.03.03zM167.7 33h1.11c.056.0045.113-.0032.166-.0227.053-.0195.101-.0503.141-.0903.04-.0399.071-.0881.09-.1411.02-.053.028-.1096.023-.1659.005-.0497-.002-.0999-.019-.1469s-.044-.0896-.079-.125c-.035-.0353-.078-.0624-.125-.0794-.047-.0169-.097-.0233-.147-.0187h-1.16V33zm1.2.92h-1.2v1.11h1.16c.077.0086.154.0007.228-.0232.073-.0239.14-.0633.197-.1154.057-.0521.102-.1158.132-.1867.03-.071.045-.1476.043-.2247.047-.3667-.137-.55-.55-.55l-.01-.01zm3.1-2.54c0-.09 0-.14.18-.14h1c.14 0 .18 0 .18.14v2.82c.46-.79.55-.92.74-1.2.19-.28.51-.83.92-1.48.18-.23.28-.32.55-.32h.46c.32 0 .51.09.51.51v4.21c0 .14 0 .14-.18.14h-1c-.14 0-.18 0-.18-.14v-2.78c-.28.42-.51.88-.79 1.29-.28.41-.55.92-.88 1.34-.33.42-.28.32-.55.32h-.42c-.42 0-.51-.18-.51-.51v-4.2H172zm8.32.92v3.61c0 .18 0 .18-.23.18h-.92c-.18 0-.23 0-.23-.18v-3.6h-1.29c-.14 0-.18 0-.18-.18v-.69c0-.18 0-.23.18-.23h4c.14 0 .18 0 .18.23v.69c0 .14 0 .18-.18.18h-1.34l.01-.01zm2.4-.92c0-.09 0-.14.18-.14h1c.14 0 .18 0 .18.14v2.82c.46-.79.55-.92.74-1.2.19-.28.51-.83.92-1.48.18-.23.28-.32.55-.32h.46c.32 0 .51.09.51.51v4.21c0 .14 0 .14-.18.14h-1c-.14 0-.18 0-.18-.14v-2.78c-.28.42-.51.88-.79 1.29-.28.41-.55.92-.88 1.34-.33.42-.28.32-.55.32h-.42c-.42 0-.51-.18-.51-.51l-.03-4.2zm8.93 2.87H191c-.42 0-.69.09-.83.55-.14.46-.23.74-.32 1.11 0 .18-.18.18-.32.18h-.92c-.09 0-.14 0-.14-.09v-.09l.42-1.25c.031-.1768.113-.3407.236-.472.122-.1314.28-.2244.454-.268-.258-.0697-.483-.2284-.635-.4481-.152-.2197-.221-.486-.195-.7519.005-.2062.054-.4091.142-.5955.089-.1864.215-.3522.372-.4869.156-.1346.339-.2351.536-.295.197-.0598.405-.0778.61-.0526h2.08c.32 0 .51.14.51.37V36c0 .09 0 .14-.18.14h-1c-.18 0-.18 0-.18-.14l.09-1.76-.08.01zm-1-.88h1v-1.11h-1c-.079-.0082-.159-.0004-.235.023-.076.0235-.147.062-.207.1134-.061.0514-.111.1145-.146.1856-.036.0711-.057.1486-.062.228 0 .33.27.56.73.56h-.08zM75 13.3c.18 0 .23.09.18.28l-3.28 9.06c-.1578.6805-.5617 1.2787-1.134 1.6793-.5723.4006-1.2726.5754-1.966.4907-.519.0048-1.0354-.0728-1.53-.23-.28-.09-.32-.14-.28-.37l.23-1.34c0-.23.14-.23.37-.18.293.0208.587.0208.88 0 .69 0 1.06-.09 1.29-.79l.23-.69h-.39c-.51 0-.65-.09-.88-.69l-2.82-7c-.09-.23 0-.32.23-.32H68c.37 0 .46 0 .51.32l1.2 3.24.88 2.64h.09l.83-2.77 1-3.1c.09-.28.18-.32.51-.32l1.98.09zm3.05 14.24c0 .23 0 .28-.32.28h-1.65c-.23 0-.32 0-.32-.28V17.09c-.0128-.1088.0119-.2186.0701-.3114.0582-.0928.1464-.1629.2499-.1986 1.1158-.4458 2.3086-.6667 3.51-.65 3 0 4 1.94 4 4.35 0 2.41-1.2 4.35-3.75 4.35-.6048.0062-1.2084-.0541-1.8-.18l.01 3.09zM79.32 18c-.4073-.0079-.813.0529-1.2.18v4.32c.4374.1159.8876.1764 1.34.18 1.06 0 1.8-.65 1.8-2.4S80.47 18 79.32 18zm13 6.15c-1.0733.4305-2.224.6348-3.38.6-2.87 0-3.75-1.16-3.75-2.68 0-1.52 1.11-2.87 3.38-2.87h1.76v-.23c0-.6-.23-1.11-1.39-1.11-.767.012-1.5296.1195-2.27.32-.28 0-.37 0-.42-.23L86 16.82c0-.23 0-.32.18-.37 1.0014-.321 2.0485-.4764 3.1-.46 2.31 0 3.38 1 3.38 3v4.62c-.0005.1103-.0341.2179-.0965.3089-.0624.0909-.1507.161-.2535.2011l.01.03zm-2-3.38h-1.25c-.6 0-1.43.09-1.43 1.11 0 .74.55 1 1.39 1 .4564-.0008.9094-.0786 1.34-.23v-1.9l-.05.02zm11.05-4.58c.74 0 1 .32 1 1v7.12c0 .23-.09.32-.37.32h-1.62c-.28 0-.37-.09-.37-.32V18H98v.83c-.23 3.75-.51 5.23-3 6-.28.09-.42 0-.46-.18l-.42-1.11c-.09-.28-.09-.37.18-.51 1.11-.51 1.34-1 1.57-4.25l.05-1.78c0-.69.28-.92 1-.92h4.49l-.04.11zm4.16 8.37c-.83 0-1-.37-1-.92v-7.19c0-.23.09-.32.37-.32h1.57c.32 0 .37 0 .37.32v2.31h2c3.14 0 3.42 2 3.42 2.87-.017.395-.111.7827-.278 1.141-.167.3583-.404.6801-.695.9468-.292.2667-.634.4731-1.006.6073-.371.1343-.766.1937-1.161.1749h-3.56l-.03.06zm3.24-4h-1.9v2.17h1.85c.15.0177.302.0011.445-.0485.143-.0495.272-.1307.379-.2375.107-.1069.188-.2365.238-.3792.049-.1427.066-.2948.048-.4448.009-.1415-.013-.2832-.063-.4158s-.128-.253-.228-.3532c-.1-.1003-.221-.178-.353-.2282-.133-.0502-.275-.0716-.416-.0628zm11 1.71c.28-.09.32-.09.42.14l.46 1.2c.09.23.09.32-.09.46-.932.4584-1.962.6815-3 .65-2.5 0-3.84-1.48-3.84-4.35 0-2.87 1.53-4.44 4-4.44.877-.0094 1.745.1785 2.54.55.28.14.28.18.18.46L120 18.2c-.09.23-.23.23-.51.14-.506-.1746-1.035-.2691-1.57-.28-1.25 0-1.76 1.11-1.76 2.36 0 1.25.37 2.27 1.8 2.27.617-.0531 1.223-.1946 1.8-.42h.01zm4.62 2.27h-1.76c-.18 0-.28 0-.28-.23V16.4c0-.23.09-.23.28-.23h1.76c.23 0 .28 0 .28.23v2.77h.74c.315.0194.625-.0781.873-.2737.247-.1956.413-.4756.467-.7863l.55-1.76c.012-.0653.047-.1243.098-.1664.051-.0421.116-.0647.182-.0636h1.76c.035-.0064.071-.0022.104.012.033.0141.06.0377.08.0677.019.03.029.0651.028.1007 0 .0357-.012.0703-.032.0996l-.6 2.08c-.061.3226-.194.6271-.39.8905-.195.2633-.449.4786-.74.6295.353.0807.673.2646.921.5282.247.2636.411.5949.469.9518l.83 2.77c0 .09 0 .28-.23.28h-1.85c-.061.012-.124 0-.176-.0336-.052-.0335-.09-.086-.104-.1464l-.74-2.45c-.084-.2838-.263-.5301-.507-.6976-.244-.1675-.538-.246-.833-.2224h-.92v3.33c-.01.18-.06.23-.29.23h.03zm7.31-8.14c0-.18.09-.23.28-.23h1.71c.23 0 .32 0 .32.23v4.9h.09c.83-1.39 1-1.62 1.25-2 .42-.65.88-1.43 1.57-2.59.097-.1753.243-.3176.422-.4086.178-.0909.379-.1262.578-.1014h.79c.6 0 .88.18.88.88v7.26c0 .23-.09.23-.28.23h-1.71c-.23 0-.32 0-.32-.23V19.5h-.09l-1.39 2.22-1.54 2.28c-.28.46-.46.51-1 .51h-.74c-.74 0-.88-.32-.88-.88l.06-7.23zm10.13 0c0-.18.09-.23.28-.23h1.71c.23 0 .32 0 .32.23v4.9h.09c.83-1.39 1-1.62 1.25-2 .42-.65.88-1.43 1.57-2.59.097-.1753.243-.3176.422-.4086.178-.0909.379-.1262.578-.1014h.79c.6 0 .88.18.88.88v7.26c0 .23-.09.23-.28.23h-1.71c-.23 0-.32 0-.32-.23V19.5h-.09l-1.39 2.22-1.54 2.28c-.28.46-.46.51-1 .51h-.74c-.74 0-.88-.32-.88-.88V16.4h.06zm.92-2.87s-.14-.18 0-.37l.65-.6c.23-.18.23-.09.42 0 .242.3093.544.5668.888.7575.343.1906.721.3105 1.112.3525.51 0 1-.14 2-1.11.23-.18.23-.14.37 0l.6.51c.23.18.14.28 0 .37-.332.549-.79 1.0112-1.336 1.3485-.546.3373-1.164.54-1.804.5915-.61-.0512-1.2-.2454-1.721-.5668-.521-.3214-.959-.761-1.279-1.2832h.1zm12.81 10v-9.07c0-.74.23-1.11 1-1.11h6.24c.23 0 .28.09.28.37v1.43c0 .23 0 .32-.28.32H158v2h2.31c3.79 0 4.07 2.54 4.07 3.61-.011.486-.12.9648-.322 1.4074-.201.4426-.489.8399-.848 1.1679-.359.328-.781.5799-1.239.7405-.459.1607-.946.2267-1.431.1942h-4c-.82-.05-1-.33-1-1.02l.02-.04zm4.76-4.12H158v3h2.31c.204.0132.409-.0173.601-.0895.191-.0722.365-.1845.51-.3293.145-.1448.257-.3188.33-.5104.072-.1916.102-.3964.089-.6008.007-.1992-.029-.3976-.106-.5816-.076-.1841-.191-.3496-.337-.4852-.146-.1356-.32-.2383-.509-.3009-.189-.0627-.39-.0839-.588-.0623l.02-.04zm12.63 4.67c-1.073.4305-2.224.6348-3.38.6-2.87 0-3.75-1.16-3.75-2.68 0-1.52 1.11-2.87 3.38-2.87h1.76v-.23c0-.6-.23-1.11-1.39-1.11-.767.012-1.53.1195-2.27.32-.28 0-.37 0-.42-.23l-.23-1.11c0-.23 0-.32.18-.37 1.001-.321 2.049-.4764 3.1-.46 2.31 0 3.38 1 3.38 3v4.62c.008.1236-.027.2462-.098.3478-.07.1016-.173.1764-.292.2122l.03-.04zm-2-3.38h-1.25c-.6 0-1.43.09-1.43 1.11 0 .74.55 1 1.39 1 .456-.0008.909-.0786 1.34-.23v-1.9l-.05.02zm6.52 3.79h-1.57c-.23 0-.37-.09-.37-.32v-7.72c0-.23.09-.32.37-.32h1.57c.32 0 .37 0 .37.32v2.73h3v-2.73c0-.23.09-.32.37-.32h1.57c.32 0 .37 0 .37.32v7.77c0 .28 0 .32-.37.32h-1.58c-.23 0-.37-.09-.37-.32V21h-3v3.19c0 .3-.1.35-.37.35l.01-.05zm9.9 0h-1.77c-.18 0-.28 0-.28-.23V16.4c0-.23.09-.23.28-.23h1.76c.23 0 .28 0 .28.23v2.77h.74c.315.0194.625-.0781.873-.2737.247-.1956.413-.4756.467-.7863l.55-1.76c.012-.0653.046-.1243.098-.1664.051-.0421.116-.0647.182-.0636h1.76c.035-.0064.071-.0022.104.012.033.0141.06.0377.08.0677.019.03.029.0651.028.1007 0 .0357-.012.0703-.032.0996l-.6 2.08c-.058.3207-.189.624-.381.8873-.192.2632-.441.4795-.729.6327.353.0807.673.2646.921.5282.247.2636.411.5949.469.9518l.83 2.77c0 .09 0 .28-.23.28h-1.85c-.061.012-.124 0-.176-.0336-.052-.0335-.09-.086-.104-.1464l-.74-2.45c-.084-.2838-.263-.5301-.507-.6976-.244-.1675-.538-.246-.833-.2224h-.92v3.33c-.01.18-.1.23-.29.23l.02-.05z"/>
	<linearGradient id="gr1" x1="13.62" y1="16.53" x2="13.62" y2="30.25" gradientUnits="userSpaceOnUse">
		<stop stop-color="#571356"/>
		<stop offset=".25" stop-color="#A30046"/>
		<stop offset=".34" stop-color="#B40B3A"/>
		<stop offset=".51" stop-color="#D41E25"/>
		<stop offset=".74" stop-color="#A30046"/>
		<stop offset=".76" stop-color="#9D0247"/>
		<stop offset=".92" stop-color="#6B0E52"/>
		<stop offset="1" stop-color="#571356"/>
	</linearGradient>
	<path fill="url(#gr1)" d="M19.24 36.38c-1.846-.0591-3.598-.8283-4.8908-2.1473-1.2929-1.3189-2.027-3.0859-2.0492-4.9327V15c-.0027-.4564.1739-.8955.4919-1.2229.318-.3273.7519-.5166 1.2081-.5271-1.2394-.0041-2.4559.3347-3.5148.9788C9.42634 14.873 8.56623 15.7975 8 16.9v12.59c1.11076 2.0283 2.7323 3.731 4.7038 4.9396 1.9716 1.2085 4.2248 1.8809 6.5362 1.9504z"/>
	<linearGradient id="gr2" x1="8.22" y1="14.32" x2="18.76" y2="9.83" gradientUnits="userSpaceOnUse">
		<stop stop-color="#ED1C24"/>
		<stop offset=".1" stop-color="#D7142E"/>
		<stop offset=".26" stop-color="#BB093B"/>
		<stop offset=".4" stop-color="#AA0243"/>
		<stop offset=".5" stop-color="#A30046"/>
		<stop offset=".57" stop-color="#960349"/>
		<stop offset=".75" stop-color="#740C50"/>
		<stop offset=".9" stop-color="#5F1154"/>
		<stop offset="1" stop-color="#571356"/>
	</linearGradient>
	<path fill="url(#gr2)" d="M14 13.25h4.25c.5384-.037 1.0427-.2769 1.411-.6713.3683-.3945.5731-.914.5731-1.4537s-.2048-1.0592-.5731-1.45365C19.2927 9.2769 18.7884 9.03696 18.25 9H14c-1.5913 0-3.1174.63214-4.24264 1.7574C8.63214 11.8826 8 13.4087 8 15v1.94c.55891-1.1115 1.41624-2.0454 2.476-2.6971 1.0597-.6517 2.2799-.9955 3.524-.9929z"/>
	<linearGradient id="gr3" x1="8.54" y1="31.14" x2="46.16" y2="16.16" gradientUnits="userSpaceOnUse">
		<stop stop-color="#00AEEF"/>
		<stop offset=".14" stop-color="#02ABEC"/>
		<stop offset=".25" stop-color="#07A1E3"/>
		<stop offset=".34" stop-color="#1091D3"/>
		<stop offset=".42" stop-color="#1D7BBD"/>
		<stop offset=".51" stop-color="#2D5EA0"/>
		<stop offset=".58" stop-color="#413B7D"/>
		<stop offset=".65" stop-color="#571356"/>
		<stop offset=".69" stop-color="#641053"/>
		<stop offset=".77" stop-color="#86074C"/>
		<stop offset=".82" stop-color="#A30046"/>
		<stop offset=".84" stop-color="#AD0441"/>
		<stop offset=".95" stop-color="#DB162C"/>
		<stop offset="1" stop-color="#ED1C24"/>
	</linearGradient>
	<path fill="url(#gr3)" d="M46.76 16.58c-.3803-2.115-1.4881-4.0304-3.1317-5.4147C41.9847 9.78107 39.9088 9.01508 37.76 9H27v20.3c-.0394 1.9124-.835 3.7312-2.2126 5.0582-1.3776 1.3269-3.2249 2.054-5.1374 2.0218h-.37c-2.3247-.0616-4.5919-.7357-6.5725-1.9543C10.7268 33.2071 9.10296 31.4873 8 29.44c.08116 3.0151 1.34359 5.8776 3.5153 7.9707 2.1716 2.0931 5.0787 3.2492 8.0947 3.2193 3.0458.0267 5.978-1.155 8.1542-3.2862 2.1762-2.1312 3.4189-5.0381 3.4558-8.0838v-16h6.94c3.176.019 6.2351 1.2 8.6 3.32z"/>
	<linearGradient id="gr4" x1="43.96" y1="16.76" x2="43.96" y2="31.4" gradientUnits="userSpaceOnUse">
		<stop stop-color="#571356"/>
		<stop offset=".26" stop-color="#A30046"/>
		<stop offset=".41" stop-color="#C6152F"/>
		<stop offset=".5" stop-color="#D41E25"/>
		<stop offset=".64" stop-color="#B60B3A"/>
		<stop offset=".75" stop-color="#A30046"/>
		<stop offset=".91" stop-color="#710D51"/>
		<stop offset="1" stop-color="#571356"/>
	</linearGradient>
	<path fill="url(#gr4)" d="M50 29.63c-.0131-1.528-.3445-3.0366-.9729-4.4295-.6284-1.3928-1.5402-2.6395-2.6771-3.6605.3729-1.0218.5592-2.1023.55-3.19.0114-.5918-.049-1.1828-.18-1.76-2.3723-2.1416-5.4541-3.3281-8.65-3.33h-.23c1.2997.0622 2.524.6287 3.4128 1.5791.8888.9504 1.3721 2.2099 1.3472 3.5109-.0078.335-.0379.669-.09 1-.1289.6575-.3799 1.285-.74 1.85-.1629.202-.2799.4371-.3429.6888-.0629.2518-.0704.5142-.0219.7691.0485.255.1519.4963.3029.7073.1511.211.3462.3867.5719.5148.6508.3242 1.2345.7687 1.72 1.31 1.1429 1.2503 1.7715 2.8861 1.76 4.58.0297 1.6043-.535 3.1629-1.5855 4.3759-1.0504 1.2129-2.5124 1.9944-4.1045 2.1941 2.1222-.057 4.1841-.7188 5.9431-1.9074C47.7722 33.2439 49.1553 31.5778 50 29.63z"/>
	<linearGradient id="gr5" x1="49.77" y1="35.11" x2="30.12" y2="35.11" gradientUnits="userSpaceOnUse">
		<stop stop-color="#ED1C24"/>
		<stop offset=".14" stop-color="#DD162C"/>
		<stop offset=".42" stop-color="#B2063F"/>
		<stop offset=".5" stop-color="#A30046"/>
		<stop offset=".57" stop-color="#960349"/>
		<stop offset=".75" stop-color="#740C50"/>
		<stop offset=".9" stop-color="#5F1154"/>
		<stop offset="1" stop-color="#571356"/>
	</linearGradient>
	<path fill="url(#gr5)" d="M40.0999 36.33c-.2294.0227-.4605.0227-.6899 0h-6.94c-.2914-.02-.5837.0201-.8588.1179-.2752.0977-.5273.251-.7408.4502-.2134.1993-.3836.4404-.4999.7082-.1164.2678-.1764.5567-.1764.8487 0 .292.06.5809.1764.8487.1163.2678.2865.5089.4999.7082.2135.1992.4656.3525.7408.4502.2751.0978.5674.1379.8588.1179h6.89c2.8444-.0499 5.555-1.217 7.5459-3.2491 1.991-2.0321 3.1024-4.766 3.0941-7.6109v-.14c-.8315 1.9543-2.2062 3.6291-3.961 4.8256-1.7548 1.1964-3.816 1.8643-5.9391 1.9244z"/>
</svg>