<svg xmlns="http://www.w3.org/2000/svg" viewBox="0 0 200 50">
	<path fill="#CC163F" d="M69.5 29.5465c-.0169-1.4546-.3407-2.8892-.9502-4.2101-.6095-1.3208-1.491-2.4981-2.5868-3.4549.3548-.9671.5351-1.9894.5325-3.0195 0-.5655-.057-1.1235-.1605-1.6605C65.561 13.105 61.97 10 57.6665 10h-10.437v19.2315c0 3.702-3.165 6.717-7.056 6.717-.1225-.0009-.2451-.0039-.3675-.009-3.72-.18-6.69-3.1215-6.69-6.705v-13.557c0-.897.7395-1.626 1.647-1.626h4.086c.2682.0024.5341-.0481.7827-.1487.2487-.1005.475-.249.6661-.4371.1912-.1881.3434-.412.4479-.659.1045-.2469.1593-.512.1613-.7802 0-1.1175-.9225-2.025-2.058-2.025h-4.0845c-3.18 0-5.7645 2.5455-5.7645 5.676v1.818h.0015H29v11.739l.0015.1485C29.09 35.251 34.064 40 40.175 40c6.1605 0 11.1735-4.83 11.1735-10.7655V14.05h6.3195c.042 0 .0825.0015.12.0075 2.5425.0645 4.59 2.1945 4.59 4.8045.0058.9598-.2763 1.8992-.81 2.697-.618.954-.462 2.004.4875 2.535 1.0082.5408 1.8505 1.3453 2.437 2.3275.5865.9823.8952 2.1055.893 3.2495 0 3.2295-2.409 5.895-5.49 6.2415-.2247.0236-.4505.0356-.6765.036h-6.654c-1.134 0-2.055.909-2.055 2.0265 0 1.1205.921 2.025 2.055 2.025h6.6525c5.6655 0 10.2795-4.635 10.2795-10.3275.0045-.0435.003-.084.003-.126Z"/>
	<path fill="#000" fill-opacity=".85" d="M95.3811 14.563c.354 0 .474.207.354.504l-6.0705 16.845c-1.065 2.9925-2.724 3.999-5.7735 3.999-.7995 0-1.836-.09-2.8425-.414-.504-.1485-.6225-.2355-.5325-.651l.474-2.457c.087-.444.2354-.384.6809-.3255.651.0885 1.1251.12 1.6291.12 1.3335-.03 1.953-.15 2.427-1.482l.4754-1.332h-.771c-.9495 0-1.2434-.207-1.6589-1.272L78.5601 15.127c-.177-.384.06-.561.414-.561h3.4349c.6796 0 .8281.12.9766.591l2.1914 6.009 1.6591 4.887h.207l1.5675-5.1225 1.866-5.745c.1785-.5025.297-.6225.9165-.6225h3.588v-.0015.0015Zm2.898 19.038V16.6645c0-1.362.474-2.013 1.8949-2.013h11.548c.444 0 .533.147.533.651v2.634c0 .4155-.12.5625-.533.5625h-8.943v3.672h4.322c7.045 0 7.521 4.677 7.521 6.69 0 3.7605-3.11 6.513-7.107 6.513h-7.458c-1.4525.003-1.7779-.501-1.7779-1.773Zm8.8249-7.668h-4.323v5.505h4.293c2.25 0 2.872-1.686 2.872-2.8125 0-1.5375-1.006-2.6925-2.842-2.6925Zm15.366 8.823c0 .5325-.12.6225-.711.6225h-3.11c-.474 0-.681-.1485-.681-.6225V16.429c0-1.095.354-1.8075 1.776-1.8075h7.254c4.293 0 6.93 2.724 6.93 6.4845 0 2.013-.859 6.75-7.521 6.75h-3.937v6.9Zm3.847-16.1655h-3.85v5.625h3.879c2.014 0 2.931-1.242 2.931-2.814.003-1.1235-.56-2.811-2.96-2.811Zm10.422 1.7145c0-.354.149-.4725.533-.4725h3.168c.474 0 .562.09.562.474v9.06h.149c1.539-2.547 1.807-3.021 2.31-3.7905.739-1.155 1.659-2.6655 2.959-4.767.563-.7995.83-.9765 1.836-.9765h1.451c1.095 0 1.659.354 1.659 1.6575v13.413c0 .384-.15.474-.533.474h-3.198c-.445 0-.562-.0585-.562-.474v-8.8815h-.149c-.888 1.362-1.687 2.7525-2.547 4.086-.915 1.4205-1.806 2.8725-2.752 4.293-.533.828-.888.9765-1.836.9765h-1.392c-1.362 0-1.658-.561-1.658-1.6575V20.305Zm23.301 14.451c0 .5325-.12.6225-.711.6225h-3.108c-.474 0-.681-.1485-.681-.6225V16.429c0-1.095.356-1.8075 1.776-1.8075h7.256c4.291 0 6.928 2.724 6.928 6.4845 0 2.013-.859 6.75-7.519 6.75h-3.941v6.9h-.001.001Zm3.848-16.1655h-3.848v5.625h3.879c2.013 0 2.931-1.242 2.931-2.814 0-1.1235-.562-2.811-2.961-2.811h-.001Z"/>
</svg>