<svg xmlns="http://www.w3.org/2000/svg" viewBox="0 0 200 50">
	<path fill="#E60000" d="M109.848 29.2421c0 8.6636-4.85 9.7579-9.699 9.7579-8.2997 0-10.0716-4.195-10.0716-10.1226V12.0063H87v-1.6415h11.657v1.6415h-3.264v16.3239c0 5.7453 1.4921 8.6635 5.782 8.6635 4.29 0 6.435-2.0975 6.435-8.1163V12.0063h-3.078v-1.6415h8.3v1.6415h-2.798l-.186 17.2358zm8.113 7.7516V12.0063h-3.264v-1.6415h12.869c5.502 0 8.207 3.0094 8.207 6.566 0 3.8302-3.544 5.9277-6.621 6.5661 6.061.5471 7.74 4.3773 7.74 7.2044 0 5.7452-5.036 7.9339-9.885 7.9339h-12.496v-1.6415h3.45zm12.59-19.6981c0-2.6447-1.399-5.2893-4.477-5.2893h-3.357v10.8522h2.984c3.357 0 4.85-2.6447 4.85-5.5629zm1.119 13.4969c0-3.739-1.679-6.2925-5.502-6.2925h-3.264v12.5849h2.704c4.01-.0912 6.062-2.4623 6.062-6.2924zm18.185-19.151c-3.078 0-5.036 1.7327-5.036 4.8333 0 2.7359 3.077 4.1038 6.061 5.107 1.772.6383 4.01 1.4591 5.596 2.827 1.678 1.5503 2.611 3.6478 2.518 6.2925C158.9 35.6258 155.357 39 149.108 39c-2.331 0-5.968-.5472-8.113-1.7327l-.28-7.3868h1.866c.186 5.0157 2.517 7.5692 6.714 7.5692 3.357 0 5.222-2.1887 5.222-5.5629 0-2.9182-2.424-4.1038-6.155-5.3805-1.212-.3648-3.637-1.2767-5.315-2.9183-1.492-1.4591-2.238-3.3742-2.238-5.2893 0-5.7452 4.196-8.2987 9.419-8.2987 2.051 0 5.129.7296 6.994 1.7327l.186 6.4748h-1.865c-.28-4.5597-2.331-6.566-5.688-6.566z"/>
	<path fill="#000" d="M72.8158 16.1435l-.7464.6391.8397 2.6478-2.4258-1.2782-.8398.6391 2.7058 1.4609-2.8924 2.2826-.7464-1.0044 1.0263-.8217-.7464-.913-1.0263.8217-.8397-1.0957 1.0263-.8217-.7464-1.0043-5.2249 4.2913 5.0383 3.926.933-1.0956c.6531 0 1.1196.5478 1.3995 1.0956l-.933 1.0957.5598.4565c1.213-1.0956 2.8924-1.8261 4.5718-1.8261 3.5455 0 6.2512 2.8305 6.2512 6.3 0 1.0957-.2799 2.3739-.933 3.3783l.933.7304c0 .6392-.6531 1.3696-1.3062 1.5522l-.933-.7304c-1.213 1.1869-2.8924 1.8261-4.5718 1.8261-3.5455 0-6.2512-2.7392-6.2512-6.2087 0-1.0957.3732-2.2827.8397-3.287l-.6531-.4565-.933 1.1869c-.6531-.0913-1.2129-.5478-1.3995-1.1869l.933-1.0044-4.1986-3.4695v5.4782h1.3995c.1866.2739.2799.5479.2799.8218 0 .2739-.0933.6391-.2799.913h-1.3995v.6391c3.079.5479 5.6914 3.1044 5.6914 6.2087 0 3.1957-2.5191 5.7522-5.6914 6.3v1.0957c-.2799.1826-.6531.2739-1.0263.2739s-.8397-.0913-1.1196-.2739v-1.0957c-3.1723-.4565-5.5981-3.1043-5.5981-6.3 0-3.1043 2.4258-5.6608 5.5981-6.1174v-.7304h-1.4928c-.1866-.2739-.2799-.5478-.2799-.913 0-.3653.0933-.6392.2799-.9131h1.4928v-5.4782l-4.2919 3.4695.933 1.0044c-.1866.6391-.7464 1.0956-1.3995 1.1869l-.933-1.1869-.5598.5478c.5598 1.0043.933 2.1.933 3.287 0 3.4695-2.799 6.2087-6.2512 6.2087-1.6794 0-3.3588-.6392-4.5718-1.8261l-.933.7304c-.5598-.1826-1.2129-.913-1.3062-1.5522l.933-.7304C41.3732 34.313 41 33.1261 41 31.9391c0-3.4695 2.7057-6.3 6.2512-6.3 1.6794 0 3.3588.7305 4.5718 1.8261l.5598-.3652-.933-1.0957c.1866-.5478.7464-1.0043 1.3995-1.0956l.933 1.0956 5.0383-3.926-5.2249-4.2913-.7464 1.0043 1.0263.8217-.7464 1.0044-1.0263-.8217-.7464.913.8397.6391-.7464 1.0044-2.7991-2.2826 2.6125-1.4609-.7465-.6391-2.4258 1.2782.7464-2.4652-.7464-.6391-.933 2.8304-2.8923-2.2826.7464-.913 1.0263.8217.8397-.913-1.0263-.9131.7464-.913 1.0263.7304.7464-.913-2.2392-1.6435c.1866-.7305.6531-1.2783 1.3995-1.7348l11.8493 9.4957v-6.3h-1.2129v1.1869h-1.213v-1.1869h-1.2129v1.1869h-1.2129v-3.5609l2.7991 1.187v-1.0044l-2.6125-1.0956 2.6125-1.00435V8.2913l-2.7991 1.09566V5.73478h1.2129v1.27826h1.2129V5.73478h1.213v1.27826h1.2129V4.18261C59.7536 4.0913 60.1268 4 60.5 4s.7464.0913 1.0263.18261V19.7957L73.3756 10.3c.6531.4565 1.1196 1.0043 1.3995 1.7348l-2.2392 1.7348.7464.913 1.0263-.7304.7464.913-1.0263.9131.7464.913 1.0263-.8217.7464.913-2.8923 2.2826-.8397-2.9217zM48.6507 33.3087c0 1.0043.7464 1.6435 1.6794 1.7348l-1.4928 1.0956c-1.0263-.3652-1.9593-1.5521-1.9593-2.6478 0-.3652.0933-.5478.1866-.8217h-.2799c-1.3995 0-2.5191-1.2783-2.7991-2.5566l1.5862-1.1869v.4565c0 .8217.8397 1.5522 1.6794 1.5522.933 0 1.7727-.7305 1.7727-1.6435 0-1.0956-.8397-1.8261-1.9593-1.8261-2.0526 0-4.1053 2.0087-4.1053 4.5652 0 .7305.1866 1.4609.4665 2.1l.9331-.7304c.6531.2739 1.1196.913 1.3062 1.6435l-.933.7304c.933.7304 2.0526 1.0957 3.1722 1.0957 2.4258 0 4.2919-1.9174 4.2919-3.5609 0-1.0044-.6531-1.8261-1.6795-1.8261-1.1196.1826-1.866.9131-1.866 1.8261zm12.689 3.6522c0 .913.7464 1.6435 1.6794 1.6435.6532 0 .9331-.274 1.3996-.6392v1.9174c-.4665.2739-.9331.3652-1.4929.3652-1.0263 0-1.866-.2739-2.4258-1.1869-.5598.913-1.4928 1.1869-2.5191 1.1869-.4665 0-1.0264-.0913-1.4929-.3652v-1.9174c.4665.4565.7465.6392 1.3996.6392.933 0 1.6794-.7305 1.6794-1.6435 0-.9131-.5598-1.6435-1.5861-1.6435-1.7728 0-2.5192 1.6435-2.5192 3.1956 0 2.1913 1.6794 4.1087 3.8254 4.474v-1.0957c.3732-.1826.7464-.1826 1.0263-.1826.3732 0 .7464 0 1.1196.1826v1.0957c2.0526-.274 3.8254-2.374 3.8254-4.474 0-1.5521-.6531-3.1956-2.5192-3.1956-.7464-.0913-1.3995.7304-1.3995 1.6435zm10.6364-7.5783c0 .8217.933 1.6435 1.7727 1.6435.8397 0 1.6794-.7304 1.6794-1.5522v-.4565l1.4929 1.1869c-.28 1.4609-1.5862 2.6479-3.079 2.5566.0933.2739.0933.5478.0933.8217 0 1.0957-.933 2.2826-1.9593 2.6478l-1.3995-1.1869c.933-.0913 1.6794-.7305 1.6794-1.7348 0-1.0044-.8397-1.6435-1.7727-1.6435-1.0264 0-1.6795.8218-1.6795 1.8261 0 1.187 1.4929 3.5609 4.3852 3.5609 1.1196 0 2.2392-.3652 3.0789-1.0957l-.933-.7304c.1866-.7304.6531-1.3696 1.3063-1.6435l.933.7304c.3732-.6391.5598-1.3695.5598-2.1 0-2.0087-1.5862-4.5652-4.1053-4.5652-1.1196 0-2.0526.6392-2.0526 1.7348z"/>
</svg>
