<svg xmlns="http://www.w3.org/2000/svg" viewBox="0 0 200 50">
	<path fill="#006A40" d="m91.3452 17.3087-23.2016 6.2412c-.8291.1875-1.6211.6895-2.2032 1.4502-.5825.7598-.8623 1.6573-.8623 2.5469v5.668l-6.1606 1.6318c-.3574.0957-.6856.3057-.9287.6231-.2432.3144-.3575.6865-.3575 1.0556v6.0303l6.1607-1.6602c.0918-.0244.1816-.0566.2685-.0957.2515-.1142.4791-.291.6597-.5244.2432-.3135.3574-.6865.3574-1.0556l.0005-6.0049 7.4575-2v8.876l-6.1386 1.6347c-.3648.0996-.6997.3135-.9468.6348-.2471.3213-.3648.7012-.3648 1.082v6.2959l6.1387-1.6494c.0864-.0244.1714-.0537.2539-.0908.0445-.0196.0884-.041.1314-.0645.2129-.1142.4048-.2744.5615-.4795.2471-.3213.3647-.7021.3647-1.0781V40.091l7.4356-2.004v8.8174l11.3999-3.0634c1.9194-.5137 3.4893-2.543 3.4893-4.4659V19.8253c.0034-1.9218-1.566-3.0742-3.5152-2.5166ZM56.6846 49.0001l-3.6846 1v-3.6572c0-.1631.0317-.331.0957-.4883.043-.1064.1006-.208.1733-.3017.1807-.2403.4273-.3985.6924-.4688l3.6846-1.0039v3.6572c0 .2774-.0884.5577-.2686.794-.1806.2363-.4277.3945-.6928.4687Z"/>
	<path fill="#50AC25" d="m68.0991 8.48811 16.3706-4.38086c1.6245-.44238 2.9546.52442 2.9585 2.15137V22.8006c0 1.624-1.3301 3.3213-2.9551 3.7608l-4.4951 1.206v-7.4062l-7.4428 2v-7.4883l-7.439 1.9892v-4.3476c0-.8936.2798-1.7901.8623-2.54983.5601-.73437 1.3188-1.22558 2.1406-1.46875v-.00781ZM58.7847 24.867l4.9926-1.3584c.3609-.0996.6924-.3096.9395-.6308.1079-.1407.1904-.2911.249-.4473.0757-.2022.1118-.4131.1118-.6231v-4.9453l-4.9922 1.3467c-.1474.041-.29.0996-.4238.1777-.1938.1133-.3696.2657-.5156.4571-.2437.3213-.3613.6982-.3613 1.0742v4.9492Zm-5.7808 7.4033 3.6846-1c.2651-.0742.5122-.2324.6928-.4687.1026-.1338.1753-.2822.2188-.4365.0332-.1172.0498-.2373.0498-.3575v-3.6572l-3.6846 1.0039c-.2651.0703-.5117.2285-.6924.4688-.1806.2324-.269.5127-.269.79v3.6572Z"/>
	<path fill="#003F7C" d="M144.307 16.0684c.917.4687 1.71 1.1113 2.192 2.0263.321.6055.501 1.3291.505 2.167.003 1.5899-.627 2.9297-1.765 3.834-.382.3037-.816.5596-1.298.7656-.29.1241-.596.2295-.92.3164-.354.0957-.728.169-1.121.2207-.434.0567-.892.085-1.37.085-1.518 0-2.797-.2764-3.806-.7051-1.01-.4277-1.75-1.0039-2.2-1.6201-.214-.2978-.365-.6045-.432-.9141-.026-.1201-.039-.2412-.039-.3623 0-.2363.062-.4541.155-.6425.092-.1924.213-.3545.342-.4942.17-.1806.346-.3213.51-.4228.054-.0342.107-.0645.159-.0909.033-.0166.066-.0312.097-.0439.067-.0264.126-.0479.233-.0518.033 0 .074 0 .129.0186.055.0186.129.0625.18.1328l.004.0078c.877 1.2764 2.516 2.3545 4.642 2.3545.447 0 .849-.0371 1.203-.1084.294-.0586.556-.1406.783-.2422.501-.2256.837-.5351 1.032-.9306.133-.2657.203-.5723.203-.9297 0-.4063-.1-.6973-.273-.9483-.173-.2509-.435-.4619-.778-.6464-.685-.3692-1.691-.6055-2.774-.8565l-.286-.0684-.249-.0605-.292-.0752c-.132-.0352-.263-.0713-.394-.1103-.104-.0303-.208-.0625-.312-.0958-.442-.1425-.874-.3085-1.282-.5117-.87-.4355-1.643-1.0517-2.111-1.9707-.313-.6133-.487-1.3476-.487-2.2187-.003-1.4873.653-2.7862 1.762-3.68264 1.109-.90039 2.656-1.41016 4.462-1.41016 1.404 0 2.575.24707 3.5.63086.925.38379 1.599.90039 2.012 1.45801.273.37303.431.76753.431 1.15913 0 .4053-.17.7491-.372 1.0108-.207.2627-.453.4541-.66.583-.143.0889-.258.1445-.376.1777l-.027.0059c-.028.0059-.057.0127-.101.0127-.018 0-.038-.001-.063-.0059l-.055-.0127c-.027-.0078-.062-.0234-.1-.0498-.014-.0097-.028-.0215-.042-.0351-.014-.0147-.029-.0323-.043-.0518-.792-1.1406-2.31-2.0488-4.086-2.0488-.969 0-1.743.2363-2.255.6172-.512.3838-.781.8886-.785 1.5459 0 .3984.085.6787.229.9043.144.2246.361.4062.667.5683.565.3028 1.426.502 2.462.7412l.239.0557c.318.0742.637.1533.953.2422.368.1025.732.2168 1.084.3476.34.126.67.2676.984.4288Zm-12.075 4.3671c-.058-.0439-.116-.082-.171-.1162-.054-.0332-.105-.0615-.153-.0869-.052-.0263-.099-.0478-.151-.0625-.052-.0156-.1-.0332-.184-.0332-.033 0-.078.0029-.133.0215-.026.0098-.057.0244-.088.0469-.031.0215-.061.0498-.089.0859l-.004.0078c-.847 1.2364-2.427 2.1289-4.509 2.166l-.015-.0146h-.136c-1.552 0-2.874-.5977-3.821-1.6201-.947-1.0225-1.518-2.4766-1.518-4.2071 0-1.746.556-3.2187 1.485-4.2519.932-1.0332 2.236-1.6387 3.798-1.6387l.269.0039c2.111-.0039 3.817.8633 4.587 1.9854.063.0849.133.1181.181.1328.048.0146.085.0185.118.0185.059 0 .092-.0107.125-.0185.122-.0332.232-.0889.376-.1768.206-.1298.453-.3213.659-.583.203-.2627.372-.6054.372-1.0117-.003-.4209-.209-.8154-.534-1.18847-.489-.55664-1.275-1.07422-2.288-1.46094-1.013-.38769-2.259-.64257-3.666-.64257h-.224c-2.532-.00391-4.706.91894-6.231 2.49898-1.529 1.5791-2.413 3.8086-2.413 6.3848 0 2.5645.873 4.7754 2.391 6.3398 1.518 1.5655 3.67 2.4727 6.175 2.4698h.147c2.023 0 3.619-.4912 4.724-1.1778.257-.1601.488-.331.692-.5097.234-.2041.431-.419.59-.6377.299-.4102.468-.8457.472-1.2774 0-.0742-.006-.1464-.018-.2158-.011-.0742-.029-.1455-.051-.2148l-.022-.0645-.027-.0644-.026-.0596c-.016-.0342-.033-.0684-.051-.1006-.166-.3174-.413-.5537-.638-.7266ZM116.29 8.91602c-.085-.28418-.255-.53125-.498-.68653-.243-.15527-.534-.21777-.847-.21777h-.405c-.144 0-.283.01172-.415.04101l-.056.01368c-.042.01074-.083.02246-.123.03711-.073.02441-.144.05664-.211.09472-.093.05274-.178.11817-.254.19336-.074.07422-.138.1582-.19.25098-.046.08008-.083.16504-.112.25488-.064.19531-.091.41113-.091.64551v8.51853c0 1.5498-.324 2.6494-.918 3.3477-.055.0644-.112.1269-.173.1855-.068.0664-.139.128-.214.1865-.218.1709-.465.3096-.744.417-.193.0743-.403.1348-.63.1797-.116.0225-.236.041-.36.0557-.215.0254-.442.0381-.683.0381-.641 0-1.19-.0957-1.65-.2774-.689-.2724-1.187-.7265-1.537-1.4023-.35-.6709-.534-1.5752-.534-2.7051V9.54297l-.001-.07617-.003-.0752-.005-.06836-.007-.06347c-.014-.11817-.037-.23145-.072-.33692-.044-.14062-.11-.27344-.196-.38965l-.052-.0664c-.023-.02735-.048-.05274-.074-.07813-.059-.05664-.124-.10742-.194-.15137-.247-.15527-.545-.22168-.874-.22168h-.354c-.209 0-.405.0293-.589.09571-.272.0957-.505.28808-.652.54297-.147.2539-.214.55273-.214.89258V18.165c0 2.3282.59 4.1661 1.788 5.417.364.3809.783.7061 1.252.9717.057.0322.113.0635.171.0928l.124.0635c.127.0634.258.123.391.1777.09.0361.18.0713.272.1045.87.3105 1.868.4648 2.985.4648 1.116 0 2.118-.1582 2.992-.4756 1.311-.4726 2.339-1.3173 3.017-2.4804.682-1.166 1.017-2.6387 1.017-4.3877V9.54297c.001-.05664.001-.11231-.002-.16699l-.005-.07032-.008-.09277c-.013-.10351-.033-.20215-.062-.29687ZM105.888 29.1484h-.114c-.118 0-.221.0332-.295.1075-.074.0771-.103.1845-.103.3095v2.3731c0 .4316-.088.7422-.258.9375-.104.1191-.237.2041-.409.2519-.074.0215-.155.0352-.244.042l-.061.003-.074.0019c-.163 0-.302-.0215-.423-.0625-.147-.0498-.265-.1309-.359-.2402-.169-.1992-.261-.5049-.261-.9258v-2.3809c0-.041-.004-.08-.011-.1162-.014-.0732-.044-.1387-.092-.1904-.074-.0772-.181-.1104-.303-.1104h-.099c-.061 0-.119.0098-.171.0303-.046.0176-.086.044-.12.0801-.074.0781-.103.1846-.103.3066v2.4024c0 .2304.021.4433.063.6377.076.3506.221.6425.434.8681.332.3477.822.5205 1.441.5205.619 0 1.112-.1767 1.448-.5273.168-.1758.294-.3926.377-.6475.043-.1308.075-.2705.095-.4209.019-.1406.029-.289.029-.4453v-2.3877c0-.0586-.006-.1142-.02-.164-.015-.0557-.041-.1045-.08-.1455-.066-.0743-.169-.1075-.287-.1075Zm4.915 0h.085c.114 0 .217.0371.287.1221.07.0772.096.1846.096.3057v3.8759c0 .1397-.037.2618-.11.3536-.078.0888-.192.1406-.317.1406h-.056c-.118 0-.206-.0186-.28-.0664-.073-.044-.121-.1104-.176-.1885l-2.211-3.1328v2.9707c0 .0645-.008.124-.026.1777l-.012.0303-.018.0371c-.012.0225-.027.043-.044.0615-.03.0313-.066.0557-.106.0733-.057.0254-.123.0371-.192.0371h-.077c-.119 0-.222-.0332-.292-.1143-.066-.081-.092-.1845-.092-.3066v-3.875c0-.1367.033-.2588.107-.3506.074-.0918.192-.1436.324-.1436h.122l.067.003c.033.0039.063.0097.093.0176.051.0146.097.0361.138.0644.017.0117.033.0234.049.0371.02.0176.039.0371.057.0586l.053.0645.048.0644 2.093 2.9707v-2.8672c0-.122.025-.2285.095-.3066.041-.0469.094-.0781.155-.0957.043-.0127.091-.0186.14-.0186Zm2.019 0h-.099c-.118 0-.222.0332-.295.1104-.03.0312-.052.0664-.068.1055-.025.0595-.035.1279-.035.2011v3.9532c0 .121.029.2285.103.3056.044.0469.098.0772.16.0938.042.0117.087.0175.135.0175h.099c.042 0 .082-.0039.119-.0126l.03-.0079.04-.0156c.042-.0176.078-.042.11-.0752.03-.0312.053-.0683.069-.1094.023-.0586.034-.125.034-.1962v-3.9493c0-.122-.03-.2285-.103-.3066-.074-.0811-.181-.1143-.299-.1143Zm1.448.0293h3.22c.066 0 .127.0088.181.0264.046.0156.087.0391.121.0693.023.0215.041.0459.057.0713.008.0137.016.0283.022.044.022.0537.032.1133.032.1767v.0332c0 .0596-.009.1162-.028.167-.009.0225-.02.044-.033.0645-.014.0215-.03.041-.05.0595-.023.0225-.05.0411-.08.0557-.034.0176-.072.0293-.112.0371l-.046.0069-.03.0029-.037.001h-1.157v3.5214c0 .125-.033.2325-.107.3096-.041.043-.093.0723-.152.0899-.047.0136-.097.0205-.15.0205h-.1c-.117 0-.221-.0332-.295-.1104-.073-.0771-.103-.1846-.103-.3066v-3.5205h-1.156c-.031 0-.06-.002-.089-.0059-.037-.0049-.072-.0137-.104-.0254-.044-.0166-.084-.04-.117-.0722-.043-.0391-.074-.0899-.092-.1465-.007-.0205-.012-.042-.016-.0645l-.005-.0449-.001-.0352v-.0332c0-.1181.04-.2216.117-.292.082-.0703.188-.0996.31-.0996Zm7.388 3.9161h-2.255v-1.2071h1.691c.125 0 .232-.0293.313-.0996.077-.0703.114-.1777.114-.292v-.0215c0-.0703-.013-.1377-.042-.1943-.018-.0332-.04-.0625-.068-.0869-.078-.0664-.184-.0918-.313-.0918h-1.692V30.001h2.211c.096 0 .184-.0176.254-.0576.022-.0118.041-.0254.059-.042.018-.0157.033-.0342.047-.0537.014-.0196.025-.0411.035-.0635l.015-.044c.012-.041.017-.0859.017-.1308v-.0401l-.002-.0537c-.005-.0498-.018-.0976-.038-.1396-.018-.0352-.041-.0674-.07-.0948-.078-.0703-.188-.1035-.313-.1035h-2.638c-.137 0-.258.0479-.343.1407-.044.0459-.078.1035-.101.1679-.021.0586-.032.1231-.032.1895v3.75c0 .1396.045.2656.133.3545.085.0879.206.1367.343.1328h2.678l.068-.0029c.036-.004.07-.0108.103-.0215l.036-.0137.038-.0195c.014-.0078.028-.0176.04-.0274l.025-.0224c.077-.0733.107-.1807.107-.295v-.0371c0-.0293-.003-.0586-.008-.0869-.007-.039-.019-.0762-.036-.1094-.017-.0312-.039-.0595-.067-.0839-.077-.0743-.184-.0996-.309-.0996Zm1.562-3.9161h1.109c.789 0 1.43.2139 1.872.6241.442.4052.681 1 .681 1.7304 0 .1563-.011.3067-.033.4502l-.014.0811c-.012.0654-.026.1299-.043.1924-.11.4072-.315.7519-.606 1.0185-.45.4131-1.098.6348-1.894.6348h-1.061c-.132 0-.251-.0518-.337-.1358-.093-.0898-.149-.2148-.149-.3515v-3.75c0-.1436.047-.2686.136-.3574.088-.0889.206-.1368.339-.1368Zm.413 3.9307h.674c.542 0 .958-.1475 1.234-.4102.28-.2656.435-.6494.435-1.1582-.004-.498-.159-.8857-.438-1.1484-.102-.0957-.221-.1768-.356-.2402-.239-.1133-.531-.1729-.871-.1729h-.678v3.1299Zm9.303-.6377c-.11-.0742-.221-.0996-.298-.1035l-.041.0039-.008.0029-.02.0098c-.012.0078-.027.0205-.038.0459-.174.4541-.649.7383-1.235.7383-.865-.0039-1.492-.6612-1.496-1.6319 0-.4863.155-.8925.417-1.1767.262-.2842.626-.4463 1.065-.4463.228 0 .456.0517.658.1504.228.1113.425.2832.558.5097l.033.0372.062.0146c.071-.0039.174-.0293.284-.1035.107-.0742.206-.1992.206-.3838 0-.0342-.005-.0693-.015-.1055-.009-.039-.024-.0781-.044-.1181-.072-.1504-.212-.3067-.408-.4483-.303-.2138-.748-.3799-1.334-.3799-.704 0-1.304.2549-1.732.6934-.424.4395-.671 1.0557-.671 1.7754 0 .4599.101.8789.286 1.2344.101.1963.228.373.377.5263.192.1983.42.3584.679.4737.308.1386.659.2129 1.039.2129.324 0 .608-.0518.849-.1338.066-.0225.128-.0469.187-.0733.142-.0625.266-.1357.371-.2138.317-.2364.483-.5127.486-.7266-.001-.0908-.027-.168-.066-.2315-.041-.0664-.095-.1171-.151-.1523Zm3.324-3.0488 1.632 4.1845.007.0303c-.003.0586-.033.084-.059.1172-.012.0166-.028.0313-.046.0449-.018.0147-.038.0274-.061.0401-.088.0556-.198.0966-.324.0966-.092.004-.195-.0224-.287-.0849-.089-.0625-.166-.1621-.221-.3067l-.38-.9775h-1.702l-.38.9854c-.051.1367-.121.2363-.206.2988-.024.0176-.048.0322-.072.0439-.028.0137-.056.0244-.083.0313-.041.0097-.081.0137-.121.0137-.185 0-.343-.085-.428-.1739-.026-.0332-.051-.0625-.055-.122l.007-.0401 1.618-4.1816c.033-.085.092-.1699.188-.2178.099-.0479.221-.0703.394-.0703l.092.001c.031.0019.061.0048.088.0088.029.0039.056.0087.081.0146l.022.0059.046.0136c.024.0078.045.0166.065.0264.096.0479.155.1328.185.2178Zm-1.198 2.3916h1.216l-.604-1.5987-.612 1.5987Zm6.968-1.1817c0-.4687-.159-.8447-.468-1.0888-.112-.0899-.242-.1621-.389-.2188-.259-.0986-.572-.1465-.934-.1465h-1.293c-.136 0-.258.0479-.343.1407-.084.0878-.129.2138-.129.3574v3.8056c0 .0586.005.1133.018.1631.015.0625.041.1192.078.169.031.04.071.0703.116.0918.052.0244.112.0371.175.0371h.099c.122 0 .232-.041.303-.1182l.012-.0146.02-.0264.022-.0391c.033-.0644.049-.1396.049-.2187v-1.3916h.372l1.22 1.499c.081.1065.158.1836.243.2354.053.0332.111.0547.171.0664.04.0078.081.0117.124.0117.158 0 .287-.0635.372-.1328.019-.0166.036-.0332.051-.0498l.023-.0264c.01-.0117.018-.0234.025-.0352.022-.0361.041-.0732.041-.1181l-.026-.0694-1.231-1.4658c.07-.0107.138-.0234.204-.039.106-.0254.206-.0577.299-.0977.157-.0683.292-.1582.404-.2695.25-.2656.375-.6084.372-1.0108Zm-.903.0332c0 .2286-.07.3985-.21.5205-.14.1221-.365.1954-.686.1954h-.869v-1.4317h.847c.325 0 .553.0664.701.1846.14.1182.214.2842.217.5312Zm3.286-1.4873c.789 0 1.43.2178 1.872.6241.446.4052.682 1 .682 1.7304 0 .7305-.247 1.3291-.696 1.7422-.45.4131-1.099.6348-1.895.6348h-1.061c-.116 0-.221-.0391-.304-.1035-.021-.0166-.041-.0352-.06-.0557-.043-.0488-.076-.1045-.098-.166-.018-.0508-.028-.1055-.028-.1621v-3.75c0-.1436.048-.2686.136-.3574.089-.0889.21-.1368.339-.1368h1.113Zm-.692 3.9307h.67c.542 0 .955-.1475 1.238-.4102.28-.2656.435-.6494.435-1.1582-.004-.498-.159-.8857-.439-1.1484-.279-.2656-.692-.4131-1.227-.4131h-.677v3.1299Zm-38.445 5.791c-.302-.2217-.693-.3398-1.083-.4316l-.056-.0127c-.292-.0694-.536-.126-.699-.2129-.039-.0215-.073-.044-.102-.0674l-.024-.0205-.023-.0225c-.028-.0293-.05-.0615-.067-.0996l-.011-.0273c-.006-.0176-.012-.0361-.016-.0557-.007-.0361-.011-.0771-.012-.124 0-.1846.078-.3281.221-.4356.144-.1064.362-.1728.634-.1728.498 0 .921.2539 1.146.5752l.026.0371h.048l.058-.0107c.059-.0225.144-.0743.222-.1514.077-.0781.144-.1885.147-.3252-.003-.2139-.165-.4316-.442-.6055-.28-.1689-.685-.2949-1.205-.2949-.501 0-.932.1406-1.238.3916-.105.085-.196.1836-.269.293-.054.0791-.098.164-.133.2539-.056.1465-.086.3066-.085.4746-.003.4844.2.8125.491 1.0225.291.2109.659.3134 1.013.3955.302.0693.582.1357.774.2392.08.0449.144.0918.193.1475.068.0771.103.1719.105.3027 0 .2031-.077.3477-.221.4541-.147.1074-.379.1699-.682.1699-.596 0-1.053-.3027-1.307-.6679l-.074-.0332c-.052.0039-.078.0185-.118.041l-.037.0224-.039.0293c-.037.0293-.074.0655-.108.1065-.059.0703-.107.166-.107.2764.004.2363.18.4765.483.6679.305.1924.747.3291 1.311.3291.546 0 .991-.1328 1.308-.3838.317-.2509.49-.6201.49-1.0634-.001-.0918-.011-.1788-.027-.2608-.015-.0762-.037-.1474-.064-.2148-.026-.0645-.056-.125-.091-.1817-.086-.1406-.199-.2578-.33-.3535Zm26.647-.4316c.394.0918.781.2099 1.083.4316.299.2178.505.5498.505 1.0108 0 .4433-.173.8125-.49 1.0634-.317.251-.763.3838-1.308.3838-.564 0-1.006-.1367-1.312-.3291-.305-.1914-.482-.4316-.486-.6679 0-.1104.048-.2061.107-.2764.059-.0703.125-.125.184-.1582.041-.0225.066-.0371.118-.041l.077.0332c.032.0449.066.0888.103.1308l.057.0616c.026.0273.054.0537.084.08.078.0703.166.1338.263.1885.223.127.494.207.801.207.306 0 .535-.0625.682-.1699.148-.1064.221-.251.221-.4541 0-.2246-.103-.3428-.295-.4502-.191-.1035-.471-.1699-.774-.2392-.157-.0362-.318-.0772-.473-.1299-.194-.0655-.379-.1485-.54-.2656-.291-.21-.493-.5381-.489-1.0225-.004-.4131.18-.7744.486-1.0215.306-.251.737-.3916 1.238-.3916.519 0 .924.126 1.205.2949.276.1739.438.3916.442.6055-.004.1367-.07.2471-.148.3252l-.017.0176-.033.0283c-.035.0293-.071.0537-.103.0723l-.038.0205-.03.0127-.059.0107h-.044l-.026-.0371c-.225-.3213-.648-.5752-1.145-.5752-.273 0-.491.0664-.634.1728-.144.1075-.221.251-.221.4356.003.2217.084.3213.254.417.102.0547.235.0967.393.1377l.214.0527.055.0117.036.0088.057.0147Zm-22.207 1.9853h-2.255v-1.207h1.691c.126 0 .233-.0293.31-.0996.078-.0703.114-.1777.114-.2881v-.0225c0-.0781-.016-.1523-.054-.2129-.015-.0253-.034-.0478-.056-.0673-.078-.0664-.185-.0957-.314-.0957h-1.691v-1.0996h2.215c.125 0 .232-.0293.313-.0997.03-.0273.054-.0605.072-.0976.028-.0576.042-.125.042-.1943v-.0401c0-.1113-.033-.2148-.11-.2881l-.034-.0263c-.02-.0147-.042-.0264-.065-.0372-.062-.0273-.136-.04-.215-.04h-2.638c-.136 0-.258.0479-.342.1406-.085.0879-.133.2178-.13.3575v3.746c0 .1407.045.2657.133.3545.034.0362.075.0655.119.087l.038.0156c.057.0215.12.0322.186.0303h2.679c.028 0 .055-.002.082-.0049.049-.0069.095-.0186.136-.0381.035-.0166.065-.0381.091-.0645.077-.0732.107-.1806.107-.2988v-.0371c0-.1104-.033-.2139-.111-.2803-.084-.0664-.191-.0918-.313-.0918Zm4.171-3.5508c.31.2471.468.6202.468 1.0889 0 .4063-.125.749-.365 1-.129.1299-.291.2295-.481.3008-.129.0478-.271.083-.425.1055l1.23 1.4648.026.0742c0 .0479-.018.085-.04.1221-.022.0361-.055.0732-.1.1103-.084.0704-.213.1329-.372.1329-.107 0-.206-.0254-.295-.0772-.088-.0517-.165-.1299-.246-.2363l-1.22-1.4951h-.372v1.3916c0 .0654-.011.1279-.033.1845-.017.043-.04.0811-.07.1143-.028.0303-.062.0557-.101.0742-.058.0293-.128.044-.201.044h-.1c-.047 0-.092-.0069-.134-.0206-.063-.0214-.118-.0576-.16-.1083-.067-.085-.097-.1993-.097-.3321v-3.8056c-.001-.0664.008-.129.027-.1856.022-.0664.057-.125.103-.1719.084-.0927.206-.1406.342-.1406h1.293c.568 0 1.014.1182 1.323.3652Zm-.645 1.6426c.14-.122.211-.292.211-.5205-.004-.2432-.078-.4131-.218-.5312-.07-.0557-.158-.0996-.265-.1309-.12-.0352-.264-.0537-.435-.0537h-.847v1.4316h.869c.158 0 .293-.0175.405-.0507l.069-.0225c.045-.0166.085-.0361.121-.0576.034-.0196.063-.041.09-.0645Zm5.266-2.0342c-.188-.0039-.395.1143-.483.3916l-1.157 3.2403-1.157-3.2403c-.015-.0478-.034-.0918-.057-.1318-.019-.0322-.04-.0615-.063-.0879-.101-.1162-.24-.1728-.384-.168-.13 0-.251.044-.343.0958-.048.0263-.085.0556-.118.0849l-.006.0059-.006.0058c-.012.0147-.024.0284-.032.045-.01.0185-.017.04-.019.0693l.011.0439 1.632 4.1221c.045.1113.1.1963.188.2549.089.0586.195.0771.336.0771.064 0 .122-.0039.174-.0136.064-.0127.12-.0332.168-.0635.089-.0586.144-.1475.188-.251l1.629-4.1299.003-.0371c-.001-.0273-.007-.0478-.015-.0654-.011-.0234-.027-.041-.043-.0596-.089-.0957-.255-.1885-.446-.1885Zm1.407 0h.1c.121-.0029.228.0332.301.1114.074.0771.104.1845.104.3056v3.9532c0 .122-.03.2285-.104.3066-.051.0547-.122.0869-.2.1016l-.044.0058-.057.003h-.1c-.026 0-.051-.002-.076-.0059-.028-.0039-.056-.0098-.082-.0186-.052-.0175-.099-.0459-.137-.0859-.074-.0781-.103-.1846-.103-.3066v-3.9532c0-.1211.029-.2285.103-.3056.037-.0391.082-.0674.132-.086.05-.0175.104-.0254.163-.0254Zm5.239 3.3184c-.11-.0703-.221-.0996-.298-.1035l-.041.0039c-.009.0019-.023.0059-.039.0205-.009.0088-.019.0205-.027.0391-.092.2402-.271.4345-.507.5634-.205.1123-.454.1748-.727.1748-.866-.0039-1.493-.665-1.496-1.6318 0-.3066.061-.5801.171-.8115.065-.1377.148-.2598.245-.3652.262-.2842.627-.4473 1.065-.4473.239 0 .477.0556.686.1631.217.1123.402.2802.526.498.026.0371.048.0401.059.044l.037.0039c.07-.0039.173-.0293.284-.1035.046-.0323.091-.0733.127-.125.047-.0674.079-.1534.079-.2588-.002-.0957-.036-.1993-.102-.3037-.05-.0791-.118-.1602-.203-.2383-.049-.044-.103-.0879-.163-.1299-.302-.2139-.748-.3799-1.337-.3799-.704 0-1.305.2549-1.732.6934-.165.1709-.303.3691-.41.5898-.168.3457-.261.7461-.261 1.1856 0 .7128.243 1.3252.663 1.7607.421.4355 1.018.6865 1.718.6865.14 0 .273-.0097.398-.0263.096-.0137.188-.0323.275-.0547.301-.0772.546-.2022.734-.3438.313-.2363.483-.5127.486-.7265.002-.0723-.015-.1358-.043-.1905-.009-.0185-.019-.0361-.03-.0527-.038-.0567-.087-.1016-.137-.1338Zm1.725.624h2.255c.125 0 .232.0254.305.0918.078.0664.111.1699.111.2803v.0371c0 .1182-.029.2256-.107.2988-.073.0743-.184.1075-.309.1075h-2.679c-.133.0039-.258-.044-.343-.1329-.084-.0888-.129-.2138-.129-.3545v-3.746c0-.1397.045-.2696.129-.3575.06-.0644.137-.1074.225-.1269.038-.0088.077-.0137.118-.0137h2.638c.125 0 .236.0293.313.1035.059.0557.092.128.105.2071.004.0263.006.0537.006.081v.0401c0 .1142-.037.2216-.114.2919-.081.0704-.188.0997-.314.0997h-2.21V38.46h1.691c.129 0 .236.0293.313.0957.077.0664.111.1699.111.2802v.0225c.003.1104-.034.2178-.111.2881-.081.0703-.188.0996-.313.0996h-1.691v1.207Z"/>
</svg>