<svg xmlns="http://www.w3.org/2000/svg" viewBox="0 0 200 50">
	<path fill="#000" d="M62.4632 19.7245c-1.5028 0-2.7849 1.2651-2.7849 2.7679v2.3859h-3.8547v-5.1538h-.1274c-1.5028 0-2.7934 1.2651-2.7934 2.7679v9.4416h.1274c1.5028 0 2.7934-1.2651 2.7934-2.768v-2.3009h3.8547v5.0689h2.9208V19.7245h-.1359zM178.495 19.7245c-1.503 0-2.793 1.2651-2.793 2.7679v2.3859h-3.855v-5.1538h-.127c-1.503 0-2.794 1.2651-2.794 2.7679v9.4416h.128c1.503 0 2.785-1.2651 2.785-2.768v-2.3009h3.854v5.0689h2.921V19.7245h-.119zM45.9321 29.7774c-1.7831 0-2.9632-2.9208-2.9632-6.3425 0-3.4217 1.2481-5.816 2.9632-5.816 1.7236 0 3.0311 2.3943 3.0311 5.816 0 3.8717-1.1208 6.3425-3.0311 6.3425zm0-14.5189c-3.3878 0-5.5783 2.9207-5.884 7.166h-3.4472v-6.9198h-.0254c-1.6812 0-2.9802 1.333-2.9802 2.9632V31.934h.0254c1.6472-.017 2.9802-1.3585 2.9802-3.0312v-4.2962h3.4472c.2632 3.9906 2.4623 7.5821 5.884 7.5821 3.9311 0 6.0113-3.7953 6.0113-8.7368.0085-4.6189-2.2161-8.1934-6.0113-8.1934zM72.9915 19.7245c-.9594 0-1.817.3057-2.4962 1.3925l-3.8123 6.6226v-8.0151h-2.9207V31.934h1.2396c.9424 0 1.8-.3057 2.4962-1.3925l4.0245-6.8519v5.4764c0 1.5029 1.2821 2.768 2.7849 2.768h.1359V19.7245h-1.4519zM131.704 19.7245c-.96 0-1.817.3057-2.497 1.3925l-3.812 6.6226v-8.0151h-2.921V31.934h1.24c.943 0 1.8-.3057 2.496-1.3925l4.025-6.8519v5.4764c0 1.5029 1.282 2.768 2.793 2.768h.128V19.7245h-1.452zM84.8104 25.9821c-.6793-1.5283-1.6896-2.6151-3.15-3.184l5.2556-7.3019h-3.2773l-5.0774 7.234v-7.2h-.0679c-1.6811 0-2.9462 1.2226-2.9462 2.8783V31.934h.0679c1.6811 0 2.9377-1.2227 2.9377-2.8783v-5.018c1.5029 0 2.6406 1.0019 3.184 2.3095l2.1566 5.5783h3.3113l-2.3943-5.9434zM142.563 19.7245h-8.779v2.3349h2.955v9.8746h.127c1.52 0 2.742-1.2482 2.742-2.751v-7.1236h2.955v-2.3349zM112.32 29.7094c1.35-1.4349 1.995-4.0075 2.301-5.9943l.195-1.766h2.267l.696 7.7603h-5.459zm8.159-.0849l-1.002-9.8915h-6.996l-.433 2.9632c-.391 2.6406-1.01 5.9519-3.371 7.3698l.196 5.0519h.152c1.155 0 2.089-.9339 2.089-2.0887l.043-1.0952h7.964l.11 3.1839h.153c1.155 0 2.089-.9339 2.089-2.0887l.101-2.9717-1.095-.433zM188.107 28.0283c-.646-1.2821-1.418-2.2585-2.573-2.734l4.322-5.5613h-3.142l-4.186 5.5019v-5.5104h-2.92V31.934h.127c1.503 0 2.793-1.2651 2.793-2.768v-2.7764c1.214 0 2.089.9085 2.573 1.9698l1.757 3.5746H190l-1.893-3.9057zM152.183 29.9217h-1.766v-5.833c.374-.0849 1.027-.2123 1.588-.2123 2.114 0 3.345 1.2566 3.345 2.8189.008 1.6726-1.18 3.2264-3.167 3.2264zm.136-8.2698c-.722 0-1.486.1189-1.894.2292v-3.8292h3.872c1.384 0 2.505-1.1208 2.505-2.5047v-.0425h-9.297V31.934h4.729c3.541 0 6.181-1.9104 6.181-5.1793-.008-2.8019-2.199-5.1028-6.096-5.1028zM100.985 24.9802c0-2.1566.764-3.3113 2.394-3.3538h.111c.806 0 2.309.2632 2.394 2.683l-4.899.6708zm7.429.5264c0-3.6594-1.766-5.7736-4.95-5.7736-3.226 0-5.1876 2.4198-5.1876 6.1472 0 3.8377 2.1146 6.2321 5.6636 6.2321 1.961 0 3.336-.484 4.075-.8746v-2.4198c-.739.5264-1.766 1.1802-3.795 1.1802-1.826 0-2.836-1.0443-3.074-3.0311l7.26-1.0019v-.4585h.008zM165.471 30.4481c-.28.0679-1.002.1104-1.613.1104-1.571 0-2.488-.6793-2.488-2.1821 0-2.0292 1.545-2.5472 4.092-2.7849v4.8566h.009zm-6.691-1.9783c0 2.2925 1.681 3.6425 4.899 3.6425h.612c1.129 0 3.005-.1783 3.812-.3312v-7.7603c0-3.0482-2.046-4.2963-4.509-4.2963-1.876 0-3.311.5434-4.075.917v1.9359c1.282-.6793 2.437-1.1123 3.591-1.1123 1.393 0 2.352.416 2.352 1.9613v.8066c-3.634.3566-6.682 1.0953-6.682 4.2368zM91.7132 30.2358c-.416 0-.7387-.0424-1.0273-.1528v-8.3038c.3735-.1273.7386-.1952 1.2226-.1952 1.8934 0 2.7255 1.3754 2.7255 4.2962 0 1.9528-.501 4.3556-2.9208 4.3556zm.2547-10.5113c-1.6556 0-3.0311.2802-4.0924.8491l-.0679.0424v16.1491h.1528c1.5028 0 2.7255-1.2396 2.7255-2.7425v-2.1141c.416.1104.9849.1953 1.6132.1953 3.1585 0 5.2302-2.5302 5.2302-6.317 0-3.7698-2.0887-6.0623-5.5614-6.0623z"/>
	<path fill="#E2001A" d="M20.5792 18.2472c.0085-.0085.0085-.017.017-.0255.1613-.2292.0934-.3991-.017-.4925-.0679-.0594-1.6386-1.0103-1.6386-1.0103-.1104-.0764-.1868-.2038-.1868-.3566 0-.2293.1358-.4076.4585-.501 1.0103-.2802 4.5764-.4245 5.782-.4245.4161 0 1.1463 0 1.7915.017l-.0254-.0255C24.9858 13.917 22.6764 13 20.1632 13 14.5509 13 10 17.5509 10 23.1632c0 2.4708.883 4.7293 2.3434 6.4868 1.2736-1.834 4.4321-6.3594 5.1198-7.2849.7981-1.0698 2.6151-3.4387 2.9208-3.8377l.0169-.017.1783-.2632zM13.9651 31.2208c1.7151 1.3245 3.8632 2.1056 6.1981 2.1056 5.6123 0 10.1632-4.5509 10.1632-10.1632 0-1.6981-.416-3.3028-1.1547-4.7038.3481-.3396.7557-.8745.484-1.5368-.0849-.1952-.4755-.6537-.5774-.7641l.017.0424c.2462.7472-.2378 1.2142-.5944 1.5283-.1952.1783-2.7764 2.6067-5.799 5.2557-2.666 2.3349-5.6547 4.7038-7.3783 6.0028-2.4283 1.817-2.9038 2.0802-2.9038 2.0802-.0679.034-.1698.068-.2462.068-.1444 0-.2802-.068-.3566-.1699-.017.034-.017.0595-.0085.0765.2632.4245.6962.9084.9424.9084.0765 0 .1868-.0339.2548-.0679-.0085-.0085.1868-.1104.9594-.6622z"/>
	<path fill="#FEFEFE" d="M20.5962 18.2217c.1528-.2292.0934-.3991-.017-.4925-.0679-.0594-1.6386-1.0103-1.6386-1.0103-.1104-.0764-.1868-.2038-.1868-.3566 0-.2378.1443-.4076.4585-.501 1.0103-.2802 4.5764-.4245 5.782-.4245.5689 0 1.7066 0 2.4453.0424.8321.051 1.4689.2293 1.6302.6283.3057.7897-.2038 1.2821-.5689 1.6133-.1952.1783-2.7679 2.6066-5.799 5.2556-2.6661 2.3349-5.6547 4.7038-7.3783 6.0028-2.4283 1.817-2.9038 2.0802-2.9038 2.0802-.0679.034-.1698.068-.2547.068-.2547 0-.45-.1953-.45-.4416 0-.0933.0255-.1867.0764-.2547 0 0 4.7887-6.8943 5.6547-8.066.8745-1.1632 2.9632-3.8972 2.9632-3.8972s.034-.0254.1868-.2462z"/>
</svg>
