<svg xmlns="http://www.w3.org/2000/svg" viewBox="0 0 200 50">
	<g fill="#2a426c">
		<path d="M145.5 32.7h-5.6c-.3.1-.4.4-.7.7-3.3 4-8.3 7.2-15.3 9.8-6.1 2.3-13.1 3.7-21.1 4.2-8 .5-15.7 0-23.2-1.6-5.7-1.2-11.6-3.1-16.3-5.9-3.3-1.9-5.9-3.9-7.5-6-.5-.5 0-.7.4-.4 2.3 2.4 5.5 4.6 9.2 6.3C69 41.5 73.7 43 80 44.2c4.5.8 10.5 1.2 18 .8 8-.5 15.5-2.3 21.7-5.2 3.6-1.7 6.1-3.4 8.1-5.2.7-.8.1-1.7-.6-1.9h-2.8c-4.9 5.4-16 11-34 11.1-18 .2-37.4-7.3-37.3-18.7.2-11.4 18.3-18.9 36.2-18.9 17.9 0 29.5 4.7 35.4 11.2h2.9c.6-.3 1-1.2.4-1.8-2-1.9-4.5-3.5-8.1-5.2-6.3-2.9-13.7-4.7-21.7-5.2-7.5-.4-13.5 0-18 .8-6.6 1.2-11.2 2.7-14.9 4.4-3.8 1.7-6.8 4-9.1 6.4-.4.3-.9.1-.4-.4 1.6-2 4-4.1 7.3-6 4.7-2.8 10.6-4.8 16.4-6 7.5-1.6 15.2-2.2 23.2-1.7 8 .5 15.1 2 21.1 4.2 7 2.6 12.1 6 15.3 10 .2.3.5.5.7.6h5.7c1.4.1 2.5-1.3 1.7-2.9C139.5 6.1 122.9 0 100.3 0 75.4 0 52.1 10.6 52 24.9c-.1 14.4 23.2 25.4 49.8 25.1 23-.2 36.6-6.3 44.4-13.3 2.6-2.2 1.1-4-.7-4z"/>
		<path d="M84.1 29.7h.4v-9.3h-2v3.3c0 .3-.1.6-.4.6h-3.7c-.2 0-.4-.2-.4-.5v-1.5c0-1.7-1.1-1.8-1.6-1.8H76v9.3h2v-3.2c0-.4.2-.5.6-.5H82c.5 0 .6.2.6.6v1.4c0 1.5 1.1 1.6 1.5 1.6zM87.3 20.3H87v9.3h2l3.9-5.4c.2-.3.7-.4.6.2v3.5c0 1.7 1.1 1.8 1.6 1.8h.4v-9.3h-2l-3.9 5.5c-.3.4-.7.4-.7-.1v-3.6c0-1.7-1.1-1.9-1.6-1.9zM111 29.7v-7.2c0-.3.2-.5.6-.5h1.5c.7 0 1.3-.9 1.3-1.5h-7.1c-1 0-1.4.7-1.6 1.5h2.8c.4 0 .5.2.5.5v7.3l2-.1zM126.2 20.3h-.4v9.3h2l3.9-5.4c.2-.3.7-.4.6.2v3.5c0 1.7 1.1 1.8 1.6 1.8h.4v-9.3h-2l-3.9 5.5c-.3.4-.7.4-.7-.1v-3.6c.1-1.8-1.1-1.9-1.5-1.9zM69.1 29.8h1.4c1.6 0 2.9-1.3 2.9-2.9v-3.7c0-1.6-1.3-2.9-2.9-2.9h-1.4c-1.6 0-2.9 1.3-2.9 2.9v.6c0 .4-.2.6-.6.6h-1.3c-.2 0-.4-.2-.4-.5v-1.7c0-1.7-1.1-1.8-1.6-1.8H62v9.3h2v-3.3c0-.4.2-.5.6-.5h1.1c.4 0 .5.2.5.6v.5c0 1.5 1.3 2.8 2.9 2.8zM68 23.4c0-.9.7-1.6 1.6-1.6h.4c.9 0 1.6.7 1.6 1.6v3.3c0 .9-.7 1.6-1.6 1.6h-.3c-.9 0-1.6-.7-1.6-1.6v-3.3zM100.8 21.9h2.5c.6-.2 1-.8 1.1-1.5h-3.8c-1.6 0-2.9 1.3-2.9 2.9v3.4c0 1.6 1.3 2.9 2.9 2.9h4c-.1-.7-.6-1.3-1.2-1.5h-2.6c-.6 0-1-.5-1-1V23c0-.6.4-1.1 1-1.1zM121 20.4h-4.9v9.3h2.1v-3h2.7c1.3-.1 2.2-.6 2.7-1.5.4-.9.3-1.9.1-3-.4-1.1-1.4-1.7-2.7-1.8zm-.3 4.8h-2.4c-.1 0-.3-.1-.3-.3v-2.7c0-.1.1-.3.3-.3h2.6c.6 0 1 .4 1 1v1.3c.1.4-.5 1-1.2 1zM145.4 27.9c0 1.7 1.1 1.8 1.6 1.8h.4v-9.3h-2.3c-.4 0-.6.2-.7.5l-1.8 4.9c-.2.7-.6.7-.9-.1-.6-1.6-1.2-3.1-1.7-4.7-.1-.3-.3-.5-.7-.5H137v9.3h.4c.4 0 1.6-.1 1.6-1.8v-3.5c0-.6.5-.6.6-.2l1.7 4.2h1.8l1.7-4.2c.2-.4.7-.4.6.2v3.4z"/>
	</g>
</svg>
