<svg viewBox="0 0 200 50" xmlns="http://www.w3.org/2000/svg">
	<path fill="#181716" d="M81.7986 24.9087v.0843c-.0052 4.7264-.3529 12.67-3.8965 16.6035-2.1131 2.3453-5.2668 4.2897-10.0768 4.2994l-.098-2.2681c4.291-.7305 6.8225-3.4787 7.315-7.4298.5105-4.095.4528-5.8273.4528-11.2497 0-5.4166.0577-7.1508-.4528-11.2491-.4925-3.94911-2.5368-6.69927-6.829-7.42979L67.8253 4c4.81.00843 7.963 1.95735 10.0768 4.30332 3.5429 3.93158 3.8913 11.87448 3.8965 16.60538ZM46.757 36.198c-.5112-4.095-.4548-5.8273-.4548-11.2497 0-5.4166-.0188-7.1476.4548-11.2491.53-4.58751 3.3658-6.69927 7.6555-7.42979L54.6636 4c-4.8113.00454-8.6521 1.958-10.7658 4.30332C40.3542 12.2355 40.0019 20.1778 40 24.9087v.0843c.0019 4.7264.3529 12.67 3.8978 16.6035 2.1131 2.3453 5.2655 4.2949 10.0762 4.2994l.0979-2.2681c-4.2923-.7305-6.8218-3.4781-7.3149-7.4298Zm23.1645-6.1925c0 4.1612-1.0575 7.6244-4.7231 9.6194-1.1224.6111-2.8903 1.0419-4.2696 1.0419-1.4863 0-3.1057-.2427-4.3091-.9654-.885-.5313-1.9016-1.3579-2.5562-2.2246-1.5986-2.1183-2.3804-4.4085-2.3804-9.1594 0-9.3917.183-13.4543 2.4933-15.2151 4.3727-3.3321 8.5275-5.4484 9.0153-6.90944.3257-.97446 0-1.69914 0-1.69914l1.6927-.4496c1.3267 4.2605 2.1708 8.28878-1.2223 10.11828-3.1115 1.6777-3.6208 1.7484-6.2302 3.1115-2.1747 1.136-3.5105 2.2149-3.7285 4.0854-.0902.7772-.192 2.7709-.192 2.7709l.8174-.0506c.2887-.9239.7695-1.9133 1.7822-2.7684 1.2781-1.0789 3.0103-1.9112 4.8957-1.9722.1797-.0059.3574-.0091.5333-.0091 2.2272 0 4.1586.4859 5.6527 1.8289 2.3609 2.1221 2.7288 5.6158 2.7288 8.8467Zm-6.7583-6.3918c-.567-1.3559-1.3495-1.5946-2.3362-1.5972-.9849-.0026-1.7712.3529-2.3408 1.7056-.6183 1.4688-.7468 3.5423-.752 6.236-.0058 2.695.1142 4.8879.728 6.3541.569 1.3598 1.3514 1.8341 2.3362 1.8373.9836.0033 1.7718-.4716 2.344-1.8263.619-1.4655.7448-3.6584.75-6.3521.0052-2.6957-.1142-4.8872-.7292-6.3574ZM93.4648 12.6119l.0149.0603-.0072.0493-.1128.4827c-.002.0337-.0331.1233-.1382.1233h-1.0861v1.0121h.9206l.1226.0584.0228.1018v.4405l-.05.1317-.0954.0286h-.9225v1.2009h1.1509l.0947.0272.0487.1324v.4392l-.0487.133-.0642.0272h-1.8698l-.1219-.0571-.0215-.1031v-4.1749l.0487-.1323.0954-.0279h1.9255l.0935.0467Zm2.6697-.0487-.0987.0253-.0454.1356v1.6194H94.979v-1.6187l-.0474-.1356-.0986-.026h-.5437l-.0973.0253-.0473.1356v4.1742l.0467.1356.0973.0253h.5437l.0979-.0253.048-.1349v-1.7932h1.0121v1.7932l.0454.1349.098.026h.5482l.1194-.0558.0221-.1058v-4.1742l-.0221-.1057-.122-.0552h-.5449Zm3.6688.002c-.111 0-.1395.0785-.1681.1557l-.7155 1.7607c-.0747.1862-.2349.6144-.3348.8941.0123-.6008.0207-.4977.0207-.7857v-1.8646l-.0227-.1038-.1232-.0564h-.5444l-.0934.0279-.0499.1323v4.1736l.0227.1051.1213.0564h.5534c.0928 0 .1285-.0623.1518-.1291l.7824-1.9223c.0759-.1836.157-.3692.2751-.7286-.0091.1998-.0162.4224-.0162.5619v2.0579l.0234.1038.12.0571h.5481l.119-.0571.023-.1038v-4.1749l-.023-.1038-.121-.0571h-.5487v.0007Zm2.7537-.109c-.308 0-.678.0986-.969.4548-.291.3548-.502.9576-.502 1.958v.0065c0 .9173.164 2.2947 1.489 2.296h.058c.327-.0137.652-.1278.848-.3127l.079-.1324-.033-.1103-.176-.3627-.101-.0817-.16.0824c-.149.1032-.297.1557-.448.1557-.249 0-.39-.133-.471-.2582-.196-.301-.218-1.04-.218-1.3229 0-.8531.077-1.2287.237-1.4162.105-.122.251-.196.436-.196.171 0 .303.0896.451.2252l.139.0798.091-.0811.209-.3627.033-.0993c0-.0551-.037-.1096-.117-.1901-.236-.2348-.59-.3321-.875-.3321Zm1.572.109-.096.0285-.049.133v4.1749l.023.1031.121.0584h1.87l.065-.0305.048-.1317v-.4398l-.048-.133-.095-.0266h-1.15v-1.2009h.922l.096-.0292.049-.1324v-.4392l-.023-.1031-.122-.0571h-.922v-1.0128h1.088c.106 0 .135-.0889.137-.1226l.115-.4846.004-.0487-.016-.0603-.094-.0448-1.923-.0006Zm3.365.0013.122.0571.024.1031v1.8639c-.002.2887-.013.1836-.023.7851.1-.2777.262-.7066.336-.8934l.714-1.7601c.027-.0772.059-.1557.17-.1557h.547l.12.0571.024.1031v4.1755l-.024.1025-.118.0584h-.547l-.123-.0584-.023-.1025v-2.0585c0-.1389.007-.3621.017-.5619-.118.3588-.2.5456-.275.7299l-.782 1.9223c-.024.0668-.062.1298-.153.1298h-.552l-.122-.0584-.023-.1025v-4.1762l.049-.1323.096-.0279h.546Zm1.117-1.0945.369.0454.084.122c0 .1018-.025.2316-.121.3801-.116.1791-.325.3608-.684.3848l-.094.0039c-.41 0-.645-.1953-.771-.3893-.095-.1473-.117-.2777-.117-.3802.001-.0752.04-.1213.084-.1213l.42-.0526.051.0215.055.1368c.045.148.128.2355.282.2362.157.0006.238-.0876.283-.2368l.055-.1362.053-.0215.051.0072Zm2.981.9842c-.308-.0007-.679.1005-.97.4561-.292.3555-.502.9569-.501 1.958.002.9167.163 2.3025 1.487 2.3031l.057.0007c.329-.0117.653-.1285.85-.3134l.076-.1323-.03-.111-.176-.3627-.104-.0811-.157.0831c-.151.1012-.298.1557-.448.1557-.248 0-.392-.133-.472-.2576-.196-.3023-.218-1.0406-.218-1.3235.002-.8525.079-1.2287.238-1.4162.102-.1201.247-.196.428-.1973l.007.0013c.169 0 .306.0902.451.2245l.14.0792.091-.0811.207-.3614.034-.0993c0-.0545-.035-.1103-.117-.192-.234-.2342-.589-.3322-.873-.3328Zm3.827.0006h-.008c-.122 0-.328.0474-.501.1674-.266.1843-.32.4483-.359.7137l-.086.5495c-.068.3886-.189.4541-.451.4599h-.163v-1.6199l-.047-.1356-.097-.0253h-.544l-.098.0253-.048.1356v4.1755l.048.1343.098.0259h.544l.097-.0259.047-.1343v-1.7952h.216c.329.0033.36.2122.399.4081l.135.7772c.035.205.061.4743.247.6579.211.2063.546.2225.612.2225h.011c.101 0 .133-.0707.144-.1174l.149-.4937.007-.0539-.087-.1135-.147-.0376c-.156-.0461-.172-.1013-.227-.4094l-.091-.543c-.021-.1201-.092-.5236-.484-.6929.285-.1337.379-.3822.416-.6319l.067-.4587c.049-.3231.107-.3504.229-.3899l.142-.039.085-.1239-.006-.048-.12-.4606c-.018-.0785-.081-.1032-.129-.1032Zm3.014.111c-.109 0-.14.0791-.168.1557l-.715 1.7601c-.073.1875-.234.615-.334.8934.01-.6008.02-.4964.02-.7851V12.728l-.023-.1031-.12-.0565h-.547l-.094.0273-.05.1323v4.1762l.023.1018.121.0584h.546c.093-.0006.136-.0629.158-.1297l.783-1.9217c.075-.1843.157-.3711.273-.7286-.007.1985-.015.4224-.015.5625v2.0579l.023.1019.122.059h.546l.119-.0584.024-.1025v-4.1761l-.023-.1026-.122-.057h-.539l-.008-.0013Zm2.452.0577.022.1025v1.8652c0 .2874-.009.183-.02.7844.099-.277.26-.7059.335-.894l.717-1.7608c.027-.0752.057-.1544.168-.1544h.547l.121.0571.024.1025v4.1762l-.025.1025-.116.0577h-.549l-.122-.0577-.024-.1025V14.845c.002-.1395.008-.3634.019-.5625-.12.3587-.201.5456-.277.7285l-.783 1.9224c-.022.0668-.058.1278-.15.1284l-.008.002h-.544l-.123-.0578-.021-.1031v-4.1762l.049-.131.097-.0292h.543l.12.059Zm.556-.216c46.711 0-46.7122 0 0 0Zm-.34-.9226.055.1388c.046.148.127.2368.283.2368.156 0 .236-.0882.282-.2368l.055-.1369.052-.0214.42.0532c.043.002.085.0468.085.1207 0 .1019-.024.2329-.119.3795-.126.194-.361.3731-.773.3887-.416.0155-.651-.1953-.777-.3893-.095-.146-.119-.277-.119-.3795 0-.0753.041-.1194.083-.1201l.373-.0454.048-.0084.052.0201Zm-27.742 14.733h.0078c.4392.0007.687-.4262.8213-.9946.1343-.5663.1493-1.2488.1493-1.6965 0-.5274-.0273-1.2171-.1674-1.7634-.1415-.5495-.3847-.9387-.8019-.9387h-.0156c-.4133.0026-.6565.3931-.796.94-.1395.5469-.1648 1.2334-.1648 1.7621 0 .4477.013 1.1302.1466 1.6965.1343.5684.3802.9946.8207.9946Zm.0104-6.6785c2.3855.0176 2.429 3.1622 2.4316 3.9744l.0006.013c-.0026.7733-.0343 3.8875-2.355 3.9744l-.0831.0019c-2.4024-.0077-2.4387-3.1945-2.4387-3.9769 0-.7928.037-3.9783 2.4374-3.9874l.0072.0006Zm5.3329 6.493c.5651-.0098 1.1633-.0682 1.1639-1.0296.0007-.981-.6559-1.0095-1.0685-1.0186h-.3886v2.0482h.2932Zm1.8967-6.3061.138.0389.06.1343c0 .0136-.003.0435-.021.1207l-.192.7792c-.023.0992-.095.2128-.258.2128h-1.9163v1.6874h.6196c.4522.0013 1.0297.0428 1.4877.4061.365.2894.745.8409.748 1.91v.0215c0 .3535-.041.9199-.348 1.4058-.292.4594-.828.8396-1.7729.8752h-1.8983c-.0999 0-.1706-.0376-.205-.0966l-.0383-.1739v-7.0502c0-.1077.0305-.1817.0831-.2232l.1615-.048h3.3519Zm3.983 6.3074c.55-.0078 1.069-.1298 1.071-1.0063.002-1.0192-.754-1.001-1.144-1.0101h-.303v2.0164h.376Zm-2.923-6.3081h.01l.009.0013h2.293c.093 0 .163.0396.195.0973l.039.1746v2.7339h.619c.412 0 1.014.0097 1.518.4275.578.4795.717 1.2081.718 1.8646l.001.024c-.001.5281-.076 1.2561-.632 1.755-.263.2368-.723.4911-1.491.5144h-1.899c-.097 0-.168-.0376-.203-.0973l-.04-.1732V21.02h-1.403l-.014-.0013-.109-.0292-.06-.1525.019-.1453.191-.724c.01-.0876.051-.2401.239-.2401Zm9.567.0013h-3.249l-.162.0467c-.051.0435-.083.1181-.082.2258v7.0483l.038.1745c.034.0571.104.098.198.098h3.111l.162-.0467c.053-.0435.084-.1175.084-.2238v-.7676c-.005-.094-.036-.1602-.084-.2004l-.162-.0467h-1.94v-2.0262h1.557l.161-.0467c.053-.0434.084-.1174.083-.2244v-.7442l-.037-.1745c-.035-.0571-.105-.0967-.198-.0967h-1.566v-1.7108h1.838c.176 0 .226-.1499.233-.2063l.19-.8175.011-.083-.027-.0986-.159-.0792Zm4.016 1.2872h-.881v1.3144c0 .6066-.091 1.6758-.223 2.3817-.102.5423-.248.9829-.394 1.3254h1.498v-5.0215Zm-1.967-1.2859h3.142c.091 0 .16.0409.195.0973l.039.1752v6.0356h.388c.093 0 .162.0395.194.0973l.04.1732v2.1721l-.04.1732c-.032.0591-.104.098-.198.098h-.844c-.094 0-.164-.0402-.201-.096l-.037-.1746v-1.1593h-2.716v1.1574c.002.1064-.028.1804-.083.2232l-.16.0473h-.843c-.091 0-.16-.0389-.195-.0966l-.04-.1726v-2.1734l.04-.1745c.035-.0578.107-.0973.202-.0973h.202c.294-.6047.424-1.136.517-1.7906.133-.9349.148-1.9412.148-2.1352v-2.1104l.044-.1739c.035-.0564.104-.0967.196-.0967l.01.0013Zm8.469.0013c-.191 0-.241.1324-.289.2621 0 0-1.466 3.6585-1.62 4.0685-.055.1479-.107.4035-.153.5281.018-1.0153.034-.953.035-1.4409v-3.1472l-.039-.1746c-.033-.0577-.105-.0966-.198-.0966h-.926l-.161.0467c-.054.0428-.085.1168-.083.2238v7.0503l.039.1725c.035.0591.106.0986.205.0986h.934c.155 0 .215-.1057.255-.2192 0 0 1.508-3.689 1.626-4.0173.048-.133.102-.3977.158-.5735-.015.3367-.027.8279-.027 1.0634v3.4761l.04.1732c.034.0584.105.098.2.098 0 0 .652-.002.936-.002l.113-.0227.081-.0733.039-.1726v-7.0495l-.039-.1739c-.033-.0571-.104-.098-.197-.098h-.929Zm6.917.0007h-.923l-.165.0434c-.053.0429-.08.1181-.08.2271v2.7352h-1.706v-2.7352c0-.1103-.024-.1849-.08-.2271l-.162-.0434h-.921l-.165.0434c-.054.0429-.081.1181-.081.2271v7.0502c0 .111.027.1862.08.2284l.166.0428h.919l.163-.0428c.055-.0428.081-.1168.081-.2277v-3.0298h1.707v3.0304c-.002.111.025.1849.08.2284l.165.0435h.965l.065-.0175.099-.0766.035-.1778v-7.0515l-.035-.1765c-.038-.059-.108-.094-.207-.094Zm2.086 0-.159.0473c-.056.0435-.085.1175-.085.2226v7.0508l.04.1739c.034.0578.104.0973.198.0973h3.11l.162-.046c.053-.0441.082-.1181.082-.2245v-.7682c-.005-.0934-.033-.1596-.082-.1985l-.162-.0473h-1.94v-2.0255h1.555l.163-.048c.053-.0428.084-.1181.083-.2245v-.7422l-.038-.1739c-.036-.0564-.104-.0966-.201-.0966h-1.562v-1.7096h1.84c.177 0 .224-.1505.23-.2069l.19-.8168.011-.0837-.028-.0999-.157-.0792-3.25-.0006Zm5.685.0013h-.922l-.164.0428c-.054.0441-.079.1187-.079.2284v7.0515c0 .109.025.1842.079.2271l.164.0421h.922l.161-.0421c.055-.0429.08-.1181.08-.2271v-3.0304h1.706v3.0304c0 .1103.026.1842.082.2271l.163.0441h.952l.078-.0175.097-.0759.038-.1778v-7.0509l-.035-.1778c-.034-.0577-.102-.0921-.197-.0921h-.93l-.165.0409c-.056.0441-.084.1187-.081.229v2.7352h-1.707v-2.7352c.002-.1109-.024-.1849-.079-.229l-.163-.0428Zm9.244.0013h-.927l-.165.0428c-.052.0441-.08.1187-.08.2271v2.7358h-1.708v-2.7358c.001-.109-.024-.183-.078-.2271l-.164-.0428h-.92l-.163.0428c-.055.0441-.081.1187-.081.2271v7.0508c0 .1103.024.1849.08.2271l.162.0448h.92l.165-.0448c.053-.0422.078-.1168.078-.2271v-3.0297h1.709v3.0297c0 .1103.026.1849.08.2284l.164.0435h.95l.079-.0169.099-.0772.036-.1771v-7.0489l-.034-.1791c-.034-.0577-.106-.0934-.202-.0934Zm6.958.0013h.923l.162.048c.053.0421.082.1174.082.2232v7.0508l-.039.1739c-.036.0571-.108.096-.203.096h-.931c-.093 0-.164-.0395-.197-.0966l-.039-.1739v-7.0509l.039-.1739c.034-.0584.109-.0966.203-.0966Zm-3.337 6.3074c.551-.0091 1.071-.1324 1.073-1.0082.002-1.0186-.758-.9998-1.145-1.0076h-.302v2.0158h.374Zm-.619-6.3087c.099 0 .171.0382.206.0973l.04.1752v2.7345h.617c.412 0 1.014.0091 1.518.4276.577.4794.717 1.2099.718 1.8659v.022c0 .5288-.074 1.258-.63 1.7556-.266.2388-.733.495-1.52.5151h-1.875c-.094 0-.165-.0395-.2-.0966l-.037-.1746v-7.0495c0-.1058.03-.1811.082-.2232l.158-.0493h.923Zm10.159.0019h.929c.094 0 .164.0402.197.098l.037.1739v7.0495l-.038.1739c-.036.059-.106.098-.202.098h-.925c-.096 0-.168-.0396-.205-.098l-.037-.1739s.012-4.2027.026-4.5401c-.036.1135-.107.4048-.141.5002-.142.4113-.22.5943-.322.846l-1.323 3.2458c-.036.1116-.1.2141-.254.2167l-.015.0007h.006-.931c-.094 0-.166-.0389-.2-.096l-.036-.1739v-7.0502c0-.1058.027-.1804.081-.2232l.161-.0474h.927c.094 0 .163.0402.197.098l.04.1739v3.1478c0 .4872-.017.425-.035 1.4403.044-.122.138-.4678.192-.6131.153-.41.282-.7766.374-1.0101l1.208-2.9747c.047-.1297.097-.2621.289-.2621Zm-.385-1.847.619.0765c.077.0046.146.0811.146.2057 0 .1712-.04.3918-.201.6403-.214.3289-.611.6579-1.307.6572-.696-.0006-1.097-.3283-1.311-.6585-.16-.2465-.199-.4678-.199-.639 0-.1272.07-.205.142-.2057l.71-.0882.087.035c.063.0629.064.1486.092.2336.081.2478.214.399.478.399.262 0 .395-.1505.478-.4016.027-.0831.026-.1681.089-.2297l.089-.0363.088.0117ZM93.0917 36.767c.5638-.009 1.1626-.0694 1.1626-1.0302 0-.981-.6553-1.0095-1.0692-1.0179h-.3866v2.0481h.2932Zm2.0339-6.2697.0565.1343c0 .0149-.002.0461-.0176.1233l-.1959.7785c-.0201.0986-.0915.2121-.2556.2121h-1.9152v1.6875h.617c.4548 0 1.0335.0435 1.4909.4061.3652.2894.7435.8415.7474 1.9113v.0201c0 .3536-.0409.9206-.3471 1.4046-.292.4613-.8292.8382-1.7764.8739l.0065.0033h-1.908c-.0947 0-.1655-.0403-.2011-.098l-.0377-.1732v-7.0503c-.0006-.107.0305-.1816.0831-.2244l.1622-.0461h3.3541l.1369.037Zm3.988 4.4655-.3789-1.8159c-.0544-.2621-.1064-.5502-.1654-1.0368-.0279.2557-.0791.5846-.1823 1.0368l-.4087 1.8159h1.1353Zm-1.0192-4.5025h1.1159c.1317 0 .17.1129.1914.2135l1.9073 7.1955c0 .1635-.156.183-.207.183h-1.09c-.1082 0-.1847-.0701-.2236-.2693l-.4133-1.7309h-1.5642l-.3841 1.7296c-.0259.1577-.0681.2706-.2089.2706l-.0136-.0007h-1.0264l-.1641-.0545-.0487-.1232 1.9269-7.2125c.0182-.085.0597-.2011.2024-.2011Zm4.2996.0013-.164.0428c-.054.0435-.081.1175-.081.2284v7.0496c0 .1103.026.1849.081.2283l.164.0422h.919l.165-.0422c.054-.0434.082-.118.082-.2264v-3.0304h1.705v3.0304c0 .1103.024.1836.079.2284l.165.0415h.925c.098 0 .167-.0337.203-.0928l.036-.1764v-7.0516l-.034-.1784c-.037-.0577-.108-.0921-.205-.0921h-.924l-.165.0435c-.053.0434-.079.1181-.079.2277v2.7346h-1.706v-2.7346c0-.1109-.026-.1849-.081-.2277l-.165-.0441h-.92v-.0007Zm9.933-.1849-.014.0007c-.204 0-.553.0804-.844.2828-.448.3108-.54.7552-.605 1.2041l-.146.9291c-.113.6546-.316.7668-.761.7746h-.275v-2.7359c.002-.1089-.025-.1836-.078-.2277l-.165-.0434h-.921l-.164.0434c-.053.0448-.078.1175-.078.2277v7.0516c0 .1096.022.1823.077.2277l.163.0422h.922l.164-.0422c.053-.0454.08-.1181.08-.2277v-3.0311h.36c.561.0045.612.3568.676.689l.23 1.3118c.058.3471.102.8006.416 1.1101.355.349.922.375 1.037.3763h.017c.169 0 .225-.1201.244-.2005l.248-.8311.013-.0915c.004-.07-.037-.1673-.146-.1933l-.25-.0649c-.262-.0752-.29-.1693-.382-.6909l-.154-.918c-.037-.2012-.157-.883-.817-1.1678.478-.2252.639-.6469.702-1.0679l.115-.7766c.084-.545.179-.5884.383-.6566l.24-.0655c.093-.024.145-.1155.143-.2089l-.011-.0843-.2-.776c-.029-.1271-.136-.1693-.219-.1693Z"/>
</svg>