<svg xmlns="http://www.w3.org/2000/svg" viewBox="0 0 200 50">
	<g fill="#0e3263">
		<path d="M186.9 26.2h-4.1v-4h-2.1v10.2h2.1V28h4.1v4.4h2.1V22.1h-2.1zM175.4 22.2H173l-4.1 10.3h2.3l.8-2.3h4.4l.8 2.3h2.3l-4.1-10.3zm-2.8 6.1l1.5-4.1 1.5 4.1h-3zM200 32.4l-4.5-5.6 4.3-4.7h-2.6l-3.7 4.4v-4.4h-2.1v10.3h2.1v-5.2l3.9 5.2zM167.3 27c-.6-.6-1.4-.9-2.2-1h-2.2v-2h4.5v-1.8h-6.6v10.2h4.3c.4 0 .8-.1 1.2-.2s.7-.4 1-.7c.3-.3.5-.6.7-1 .2-.4.2-.8.2-1.2 0-.9-.4-1.7-.9-2.3zm-1.8 3.3c-.3.3-.6.4-1 .5h-1.7v-3h1.7c.2 0 .4 0 .6.1.2.1.4.2.5.3.1.1.3.3.3.5.1.2.1.4.1.6 0 .3-.2.7-.5 1zM42.3 34.1h-4.9l2.2-3.9-5.5-9.7h5l2.9 5.7 2.8-5.7h4.8l-7.3 13.6zM103.5 34.1h-6.1c-3.3 0-6-2.8-6-6.6 0-4.4 2.7-7 6-7h6.1v3.4h-3.9c-2.3 0-3.7.7-3.7 3.5s1.3 3.4 3.7 3.4h3.9v3.3zM119.4 34.1h-4.5v-9.6l-5.1 9.6h-5.4V20.5h4.5v9.3l5.1-9.3h5.4zM86.8 20.5h-4.9l-4.8 11.3-4.8-11.3h-5l-5.8 13.7h4.7l1-2.9h5l1.1 2.9h7.4l3.6-9.9 3.5 9.9h4.7l-5.7-13.7zm-18.3 7.7l1.5-3.9 1.4 3.9h-2.9zM59.2 20.5H50v13.7h4.4v-4h4.8c4.6 0 4.6-4.1 4.6-5 0-.9 0-4.7-4.6-4.7zm-1.5 6.3h-3.2v-2.9h3.2c.5 0 1.8 0 1.8 1.4s-1.3 1.5-1.8 1.5zM129.3 25.6h-4.5v-1.8h8.5v-3.4h-13v13.7h9c4.7 0 4.7-2.8 4.7-4.3s0-4.1-4.7-4.2zm-.8 5.4h-3.8v-2.2h3.8c1 0 1 .7 1 1s0 1.2-1 1.2zM14.3 13.6c.3 0 .7 0 1 .1l-.1-9.3h1.1c-.1 3.2.1 6.3.4 9.5 2.6.6 5 1.9 6.9 3.9s3.1 4.4 3.6 7.1.1 5.4-1 7.9-2.9 4.5-5.2 6c-.1-.1-.2-.3-.4-.5-4.1-5.2-5.1-12.9-5.4-19.6.6.1 1.1.2 1.7.3.9 5.7 3.4 11.1 7.4 15.3 1.4-1.7 2.2-4 2-6.2-.1-2.3-1.1-4.4-2.6-6-1.8-1.9-4-3.3-6.5-3.9-1.2-.3-2.4-.5-3.6-.5-1.2 0-2.5.2-3.7.5C4.7 19.5.8 23.6.8 28.5c0 2.1.7 4.1 2 5.8 4-4.2 6.5-9.6 7.4-15.3.6-.1 1.1-.1 1.8-.3-.3 6.8-1.3 14.4-5.4 19.5-.1.2-.3.4-.4.5-2.3-1.5-4-3.6-5.1-6.1C0 30.1-.3 27.4.2 24.7s1.8-5.1 3.6-7 4.3-3.3 6.9-3.8c.4-6.9.3-9.5.3-9.5h1.1l-.1 9.3c.3-.1.6-.2.9-.1V0h1.2c.1 0 .1 13.6.2 13.6z"/>
		<path d="M14.3 18.6c.1 6.5.6 14.5 2.7 20 .2.6.5 1.2.9 1.8-1.4.4-2.8.6-4.2.7-1.4 0-2.8-.2-4.2-.7.4-.7.7-1.3 1-2C12.4 33 12.9 25 13 18.6h1.3zM146.8 17h.9v20.6h-.9z"/>
	</g>
</svg>