<svg xmlns="http://www.w3.org/2000/svg" viewBox="0 0 200 50">
	<path fill="#fff" d="M7.9 20.3L5 18.8 28.1 11l23.1 7.8-2.9 1.5 2.9.9-2.9 1.5 2.9 1-2.7 1.4 2.7.9-11.6 5.9v.3c0 4-5.2 7.2-11.6 7.2-6.3 0-11.5-3.2-11.5-7.2v-.3L5 26l2.7-.9L5 23.8l2.9-1L5 21.2l2.9-.9z"/>
	<g fill="#016350">
		<path d="M66.8 25.3l-3-5.8h-2.1l4.1 8-1.5 3.4h1.8l5.2-11.4h-1.8zM102.8 30.9h1.8v-9.8h4.8v9.8h1.7V19.5h-8.3zM154.5 23.9h-1.6v-1.7h5.2v-2.8h-8.4v11.4h4.8c.8 0 4.5.1 4.5-3.5 0-3.4-3.5-3.4-4.5-3.4zm-.3 4.6h-1.4v-2.3h1.4c1 0 1.6.3 1.6 1.2 0 .9-.7 1.1-1.6 1.1zM163.4 19.5l-4.1 11.4h3.5l.6-1.9h3.9l.7 1.9h3.4l-4.1-11.4h-3.9zm.6 6.9l1.3-4.2 1.4 4.2H164zM179.3 23.6h-3.9v-4.2h-3.2v11.5h3.2v-4.6h3.9v4.6h3.1V19.5h-3.1zM190.6 25l4.4-5.5h-3.9l-3.3 4.8v-4.8h-3.2v11.4h3.2v-5l3.2 4.9h4zM118.8 20.1c-.8-.6-1.7-.7-2.5-.7h-2.6v11.4h1.8v-4.5h.8c.8 0 1.9-.2 2.8-.9.6-.5 1.1-1.3 1.1-2.5.1-.8-.2-2-1.4-2.8zm-2.5 4.5h-.8v-3.5h.8c.6 0 2.1.1 2.1 1.7 0 1.6-1.3 1.8-2.1 1.8zM127.3 19.3c-3.4 0-5.9 2.5-5.9 5.9 0 3.3 2.5 5.9 5.9 5.9 3.5 0 5.9-2.6 5.9-5.9 0-3.4-2.5-5.9-5.9-5.9zm0 10.2c-2.4 0-4.1-1.8-4.1-4.3s1.7-4.3 4.1-4.3c2.5 0 4.2 1.8 4.2 4.3-.1 2.5-1.8 4.3-4.2 4.3zM141.3 27.5l-3.9-8.9-2.4 12.3h1.7L138 24l3.2 7.4 3.4-7.4 1.1 6.9h1.8l-2.2-12.3zM77.7 20.1c-.9-.6-1.8-.7-2.5-.7h-2.5v11.4h1.8v-4.5h.8c.8 0 1.8-.2 2.8-.9.5-.5 1.1-1.3 1.1-2.5-.1-.8-.4-2-1.5-2.8zm-2.6 4.5h-.8v-3.5h.7c.7 0 2.2.1 2.2 1.7.1 1.6-1.3 1.8-2.1 1.8zM78.6 30.9h1.8l1.3-2.7h4.8l1.2 2.7h1.9l-5.4-12-5.6 12zm3.7-4.4l1.8-3.8 1.7 3.8h-3.5zM93.1 26.3c0 .9 0 2.2-.6 2.7-.1.2-.7.3-1.1.3-.1 0-.4 0-.5-.1v1.6c.2.1.5.1.8.1.9 0 1.5-.3 1.9-.8 1.1-.8 1.2-2.1 1.2-3.5V21h3.7v9.7h1.8V19.5h-7.2v6.8zM16.5 29.7v1.2h.1l-.1-1.2c0-.1 0-.1 0 0zM28.1 13.5L11 19.2l5.7 2.9c1-3.4 5.7-5.9 11.4-5.9s10.4 2.5 11.4 5.9l5.7-2.9-17.1-5.7z"/>
		<path d="M28.1 11L5 18.8l2.9 1.5-2.9.9 2.9 1.5-2.9 1 2.7 1.4c-.3.2-2.7.9-2.7.9l11.5 5.8v-1l-8.8-4.4 1.4-.5 7.3 3.7v-.5-.7L8 24l1.5-.5 7 3.5v-.3-.8-.1L8 21.4l1.5-.4 7 3.6v-1.2L7.9 19l20.2-6.8L48.3 19l-8.6 4.3V32l11.6-6-2.7-.9 2.7-1.4-2.9-1 2.9-1.5-2.9-.9 2.9-1.5L28.1 11zm11.6 16.1l7.1-3.6 1.4.5-8.6 4.3c.1-.4.1-.8.1-1.2zm9-.7l-8.9 4.5v-1.3l7.4-3.7 1.5.5zm-9-.6v-1.3l7.1-3.6 1.4.5-8.5 4.4z"/>
		<path d="M16.5 25.8l.1-1.2h-.1V25.8zM16.5 28.3l.1-1.2h-.1v1.2z"/>
	</g>
	<g fill="#d7b56d">
		<path d="M28.1 35.5c-6.3 0-11.5-3.2-11.5-7.2v1.3c0 4 5.2 7.2 11.5 7.2 6.4 0 11.6-3.3 11.6-7.2v-1.3c0 4.1-5.2 7.2-11.6 7.2z"/>
		<path d="M28.1 38.1c-6.3 0-11.5-3.3-11.5-7.2v1.4c0 4 5.2 7.2 11.5 7.2 6.4 0 11.6-3.2 11.6-7.2v-1.4c0 3.9-5.2 7.2-11.6 7.2z"/>
		<path d="M39.6 23.2v.2c0 .5 0 1.1-.2 1.6-1.2 3.2-5.8 5.6-11.3 5.6-6.3 0-11.5-3.2-11.5-7.2v1.3c0 4 5.2 7.2 11.5 7.2 6.4 0 11.6-3.2 11.6-7.2l-.1-1.5z"/>
		<path d="M28.1 33c-6.3 0-11.5-3.2-11.5-7.2v1.3c0 4 5.2 7.2 11.5 7.2 6.4 0 11.6-3.2 11.6-7.2v-1.2c0 3.9-5.2 7.1-11.6 7.1z"/>
		<path d="M38.5 23.3c0-1.5-1-2.9-2.6-4v1.5c.8.7 1.4 1.6 1.4 2.5 0 .9-.5 1.7-1.4 2.5v1.4c1.6-.9 2.6-2.4 2.6-3.9z"/>
	</g>
</svg>
