<svg viewBox="0 0 200 50" xmlns="http://www.w3.org/2000/svg">
	<path fill="#55565A" d="M133.049 24.8508c.25-.5005.501-.9177.751-1.2514.334-.3338.584-.5841.918-.8344.254-.1903.507-.2841.798-.3915.091-.0339.186-.0691.286-.1091.418-.1668.835-.1668 1.335-.1668 1.585 0 2.837.584 3.838 1.8355.584.7509.918 1.5018 1.085 2.3361.167.8343.25 1.6686.25 2.503 0 .584 0 1.0846-.083 1.5852-.028.139-.047.2781-.065.4171-.037.2781-.074.5562-.186.8344-.083.4171-.25.7508-.417 1.0011-.167.3338-.334.6675-.584.9178-.167.2503-.334.4171-.584.6674-.198.1981-.396.3439-.635.5202-.064.0465-.13.0951-.199.1473-.334.1669-.668.3337-1.085.5006-.417.0834-.918.1669-1.418.1669-.417 0-.918-.0835-1.335-.1669-.501-.0834-.918-.2503-1.335-.584-.417-.2503-.834-.5841-1.168-1.0012-.334-.4172-.667-.8343-.918-1.5018-.333-.7509-.584-1.5852-.667-2.4195-.084-.8343-.167-1.7521-.167-2.6699 0-1.2514.083-2.3361.167-3.3372.083-1.0012.334-1.8355.584-2.6699.417-1.168 1.001-2.0858 1.752-2.7532.751-.6675 1.585-1.1681 2.419-1.5852l4.506-2.0024c.034 0 .069-.0143.109-.0311.058-.0237.127-.0523.224-.0523.167 0 .251.0834.418.2503l.417 1.0011c0 .0418.021.0835.041.1252.021.0417.042.0834.042.1251 0 .0835-.167.2503-.417.3338l-5.089 2.3361c-.668.3337-1.168.6674-1.585 1.0846-.418.4171-.751.8343-1.002 1.2515-.25.4171-.417.8343-.584 1.3349l-.25 1.2515-.083.8343h-.084v.1668zm3.671-1.0011c-.417 0-.751.0834-1.168.2503-.417.1668-.751.4171-1.001.8343-.268.3354-.429.7247-.612 1.168v.0001c-.044.108-.09.2192-.139.3337-.167.6674-.25 1.4183-.25 2.4195v.0001c0 .584 0 1.168.083 1.752.084.584.25 1.168.501 1.6686.25.5006.584.9178.918 1.2515.417.3337.917.5006 1.668.5006.417 0 .834-.0834 1.252-.2503.417-.1669.75-.4172 1.084-.8343.334-.4172.584-.9178.751-1.5852.167-.6675.25-1.5018.25-2.503 0-1.1681-.083-2.0024-.333-2.6698-.251-.6675-.501-1.1681-.835-1.5018-.333-.3337-.751-.584-1.084-.6675-.501-.1668-.835-.1668-1.085-.1668zm-66.4945-7.0083c2.0858 0 3.5042.4171 4.4219 1.2515.9177.8343 1.3349 2.0023 1.3349 3.5041 0 .584-.0834 1.0846-.2503 1.5852-.1669.4172-.4172.8343-.6674 1.1681-.2503.3337-.5841.584-.9178.8343-.3337.2503-.6674.4171-1.0011.584h-.0001c.3314.0663.6628.2379 1.036.4311h.0001c.0966.05.1959.1015.2988.1529.4172.2503.8343.5841 1.1681 1.0012.2503.3338.5006.7509.6674 1.2515.1669.5006.2503 1.1681.2503 1.9189 0 1.0847-.1669 1.919-.584 2.5864-.3337.5841-.7509 1.0847-1.168 1.4184-.7509.5006-1.5018.8343-2.3361 1.0012-.8343.1668-1.5852.1668-2.3361.1668h-6.6745c-.2503 0-.4171 0-.4171-.0834-.0835-.0834-.0835-.2503-.0835-.4172v-1.5017c0-.3338.0835-.5006.1669-.5841h1.7521V19.5112h-1.7521c-.1669 0-.1669-.1669-.1669-.584v-1.5018c0-.3337.0835-.5006.1669-.584H70.2255zm-.5005 7.7592c.2503 0 .6674-.0835 1.0846-.1669.4171-.0834.7508-.3337 1.0846-.7509.2503-.2503.4171-.5006.4171-.8343.0835-.2503.0835-.584.0835-.9178 0-.3337 0-.6674-.0835-.9177-.0834-.2503-.2503-.584-.5006-.7509-.3337-.3337-.6674-.5006-1.0011-.5006-.3338-.0834-.6675-.0834-1.0012-.0834h-1.168v4.839h1.0846v.0835zm.1668 8.0929h.584c.0835 0 .1878-.0209.292-.0417.1043-.0209.2086-.0418.2921-.0418.1251-.0417.2294-.0834.3337-.1251.1043-.0417.2086-.0834.3337-.1251.2503-.0835.4172-.2503.584-.5006.1669-.1669.3338-.4172.4172-.7509.0834-.3338.1668-.6675.1668-1.0847 0-.584-.0834-1.0846-.3337-1.4183-.2503-.3337-.4171-.5006-.6674-.6675-.2503-.1668-.584-.3337-1.0012-.4171-.4172-.0834-.7509-.0834-1.0846-.0834h-1.3349v5.2562h1.4183zm11.0129-2.92c0 1.0011.2503 1.8355.6674 2.5029.4172.6675 1.2515.9178 2.3361.9178.6675 0 1.168-.0835 1.6686-.2503.1575-.063.3149-.1141.4634-.1623h.0001c.2449-.0795.4653-.151.6211-.2549.0418 0 .0626-.0208.0835-.0417.0208-.0209.0417-.0417.0834-.0417.0834 0 .0834 0 .1669-.0834.1251-.0418.2085-.0835.2711-.1148.0626-.0313.1043-.0521.146-.0521.1669 0 .2503.0834.3337.2503l.6675 1.5852s0 .0834.0834.1669v.1668c0 .1669-.1668.3338-.4171.584-.5006.3338-1.1681.5841-2.0024.7509l-.2274.0458c-.7446.1503-1.4266.288-2.1086.288-.9178 0-1.6687-.0835-2.4196-.3338-.7508-.2503-1.4183-.6674-1.9189-1.2514-.5006-.5006-.9177-1.1681-1.2514-2.0024-.3338-.8343-.5006-1.919-.5006-3.2539 0-1.168.1668-2.2526.4171-3.1704.2503-.9177.7509-1.7521 1.3349-2.503.4172-.5005 1.0012-.9177 1.5852-1.3349.6675-.3337 1.5018-.584 2.503-.584.5005 0 1.0846.0834 1.752.2503.6675.1669 1.2515.5006 1.7521 1.0012.5006.5006 1.0011 1.2515 1.3349 2.1692.3337 1.0012.584 2.2527.584 3.8379 0 .3337 0 .584-.0835.6675-.0834.0834-.2502.1668-.5005.1668h-7.4254v.0835zm4.255-2.6699V26.3527c0-.075-.0169-.15-.0354-.2325-.0228-.1012-.0481-.2137-.0481-.3515-.0417-.0834-.0625-.1877-.0834-.292-.0208-.1043-.0417-.2086-.0834-.292-.0834-.2503-.2503-.4172-.4172-.584-.3337-.3338-.7509-.5006-1.3349-.5006-.2503 0-.584.0834-.8343.1668-.2503.0835-.5006.3338-.7509.5841-.2502.3337-.4171.6674-.5005 1.0011-.0835.4172-.1669.8344-.1669 1.2515h4.255zm4.6721-2.5029h1.1681v8.4266H89.665c-.1669 0-.3338.0835-.3338.1669-.0834.0834-.0834.1669-.0834.2503v1.7521c0 .1668.0834.3337.1669.3337h6.0904c.1669 0 .3338 0 .3338-.0834V33.1942c0-.0834-.0835-.1669-.3338-.1669h-1.0846v-3.0035h3.9213v5.1728c0 .1668.0834.3337.1669.3337h4.6723c.167 0 .334 0 .334-.0834V33.1942c0-.0834-.084-.1669-.334-.1669h-1.419v-8.4266h1.419c.167 0 .334 0 .334-.0834V22.348c0-.0834-.084-.0834-.334-.0834h-5.8404c-.1668 0-.3337 0-.3337.0834v2.0024c0 .1669.0834.3337.1669.3337h1.3349v2.6698h-3.9213V22.2646c0-.0834-.0834-.0834-.3337-.0834h-4.4219c-.1668 0-.3337 0-.3337.0834-.0834.0834-.0834.1668-.0834.2503v1.7521c0 .1668.0834.3337.1668.3337h.2503zm17.6042 5.1728c0 1.0011.25 1.8355.667 2.5029.417.6675 1.168.9178 2.336.9178.668 0 1.168-.0835 1.669-.2503.157-.063.315-.1141.463-.1623.245-.0795.466-.151.622-.2549.041 0 .062-.0208.083-.0417.021-.0209.042-.0417.083-.0417 0 0 .084 0 .167-.0834.125-.0418.209-.0835.271-.1148.063-.0313.105-.0521.146-.0521.167 0 .251.0834.334.2503l.668 1.5852s0 .0834.083.1669v.1668c0 .1669-.167.3338-.417.584-.501.3338-1.168.5841-2.002.7509l-.228.0458c-.744.1503-1.426.288-2.109.288-.834 0-1.668-.0835-2.419-.3338-.751-.2503-1.418-.6674-1.919-1.2514-.501-.5006-.918-1.1681-1.251-2.0024-.334-.8343-.501-1.919-.501-3.2539 0-1.168.167-2.2526.417-3.1704.25-.9177.751-1.7521 1.335-2.503.417-.5005 1.001-.9177 1.585-1.3349.668-.3337 1.502-.584 2.503-.584.501 0 1.085.0834 1.752.2503.668.1669 1.252.5006 1.752 1.0012.501.5006 1.001 1.2515 1.335 2.1692.334 1.0012.584 2.2527.584 3.8379 0 .3337 0 .584-.083.6675-.084.0834-.251.1668-.501.1668h-7.425v.0835zm4.255-2.6699V26.3527c0-.075-.017-.15-.036-.2325-.022-.1012-.048-.2137-.048-.3515 0-.1669-.083-.4171-.166-.584-.084-.2503-.251-.4172-.418-.584-.333-.3338-.834-.5006-1.335-.5006-.25 0-.584.0834-.834.1668-.25.0835-.5.3338-.751.5841-.25.3337-.417.6674-.5 1.0011-.084.4172-.167.8344-.167 1.2515h4.255zm4.672-2.5029h1.085v8.4266h-1.335c-.167 0-.334.0835-.334.1669v2.1692c0 .1669.083.3338.167.3338h10.512v3.671c0 .0977.029.1668.052.2241.017.0405.032.075.032.1096 0 .0834.166.0834.333.0834h2.42c.098 0 .167-.0286.224-.0523.04-.0168.075-.0311.109-.0311.084-.0834.084-.1669.084-.3337v-5.8403c0-.1668 0-.3337-.084-.3337-.083-.0834-.166-.0834-.333-.0834h-1.419V22.2646c0-.0834-.083-.0834-.333-.0834h-4.088c-.167 0-.334 0-.334.0834-.084.0834-.084.1668-.084.2503v1.7521c0 .1668.084.3337.167.3337h1.335v8.2598h-3.504V22.2646c0-.0834-.083-.0834-.334-.0834h-4.421c-.167 0-.334 0-.334.0834v2.0024c0 .1668.083.3337.167.3337h.25zm29.036-2.5012c-.288.0769-.551.1474-.753.2484l-.5.2503c-.052 0-.104.0319-.175.0759-.044.0273-.095.0591-.159.091-.167 0-.251.0834-.251.2503v.2503l.418 1.0846c.083.0834.167.1669.25.1669.042 0 .063-.0209.083-.0417.021-.0209.042-.0418.084-.0418s.083-.0208.125-.0417c.042-.0208.083-.0417.125-.0417.167-.0556.334-.1205.501-.1854.333-.1298.667-.2596 1.001-.3152.5-.0834 1.001-.1668 1.502-.1668.5 0 .917.0834 1.251.2503.25.1668.501.3337.668.584.134.2021.215.4585.284.6816l.001.001c.016.0529.032.1038.048.1517.084.2503.084.5006.084.8343v1.0012h-.584c-.251.0417-.522.0626-.793.0834-.271.0209-.542.0418-.793.0835-.5.0834-1.001.1668-1.501.3337-.501.1669-.918.3337-1.335.584-.417.1669-.751.5006-1.085.8343-.334.3338-.584.7509-.751 1.2515-.167.4172-.25 1.0012-.25 1.5852 0 1.2515.334 2.1693 1.001 2.8367.668.6675 1.502 1.0012 2.503 1.0012.584 0 1.168-.1669 1.836-.4171.584-.2503 1.251-.6675 1.919-1.335l.083-.0834.083.2503c.084.3337.167.584.334.8343.084.2503.334.3338.584.3338h2.336c.042 0 .084-.0209.125-.0418.042-.0208.084-.0417.126-.0417.083 0 .083-.0834.083-.2503v-1.0012c0-.0417-.021-.0834-.042-.1251-.021-.0417-.041-.0834-.041-.1252 0-.0834-.084-.0834-.251-.0834h-1.251c-.167-.4172-.251-.8343-.251-1.2515V25.6852c0-.1788-.023-.3336-.046-.4773v-.0002c-.019-.1245-.037-.2406-.037-.3568 0-.2503-.083-.584-.167-.8343-.083-.3337-.25-.584-.417-.8343-.167-.2503-.417-.5006-.667-.7509-.501-.3338-1.002-.5006-1.586-.5841-.584-.0834-1.084-.0834-1.418-.0834-.584 0-1.168 0-1.752.1669-.197.0658-.395.1186-.582.1687zm4.503 6.5893h.167v3.5876l-.167.1668c-.055.1113-.185.2225-.315.3338-.065.0556-.13.1112-.185.1668-.167.1669-.417.3337-.668.5006-.25.1669-.5.3337-.834.4172-.334.0834-.668.1668-.918.1668-.167 0-.417-.0834-.667-.1668-.251-.0835-.501-.2503-.668-.4172-.25-.2503-.417-.4171-.5-.7509-.084-.2503-.167-.6674-.167-1.0846 0-.5006.083-.9177.25-1.2515.167-.3337.501-.6674.918-.9177.25-.1669.584-.3338.918-.4172.333-.1669.667-.2503 1.001-.2503.167 0 .333-.0208.5-.0417.167-.0209.334-.0417.501-.0417h.834zm8.844 4.8391h1.418c.167 0 .251 0 .251.0835 0 .0417.02.0834.041.1251.021.0417.042.0834.042.1252v1.0011c0 .1669 0 .2503-.083.2503-.042 0-.084.0209-.126.0418-.041.0208-.083.0417-.125.0417h-5.006c-.083 0-.166 0-.25-.0835-.083 0-.083-.1668-.083-.2503v-1.0011c0-.1669 0-.2503.083-.2503.042 0 .084-.0209.125-.0418.042-.0208.084-.0417.125-.0417h1.502v-9.6781h-1.502c-.083 0-.166 0-.25-.0834-.083 0-.083-.1669-.083-.2503v-1.0012c0-.1669 0-.2503.083-.2503.042 0 .084-.0209.125-.0417.042-.0209.084-.0417.125-.0417h3.254c.084 0 .167 0 .251.0834.083 0 .083.1668.083.2503v5.1728h5.173v-3.8379h-1.502c-.084 0-.167 0-.25-.0834-.084 0-.084-.1669-.084-.2503v-1.0012c0-.1669 0-.2503.084-.2503.041 0 .083-.0209.125-.0417.041-.0209.083-.0417.125-.0417h5.089c.167 0 .251 0 .251.0834 0 .0417.02.0834.041.1251.021.0417.042.0835.042.1252v1.0012c0 .1668 0 .2503-.083.2503-.042 0-.084.0208-.126.0417-.041.0208-.083.0417-.125.0417h-1.502v9.7616h1.502c.167 0 .251 0 .251.0834 0 .0417.02.0834.041.1251.021.0418.042.0835.042.1252v1.0012c0 .1668 0 .2503-.083.2503-.042 0-.084.0208-.126.0417-.041.0208-.083.0417-.125.0417h-3.254c-.083 0-.166 0-.25-.0834-.083 0-.083-.1669-.083-.2503v-5.59h-5.173v4.1716zm13.599 1.6686c.084-.0834.084-.1669.084-.2503h-.251v-5.59h1.335c.417 0 .751.0835 1.001.2503.251.1669.501.5006.668 1.1681l.584 1.9189c.167.584.334 1.0011.5 1.4182v.0002c.167.4171.334.6674.584.9177.251.2503.584.4172.918.5006.417.0835.835.1669 1.419.1669h.25c.083 0 .167-.0834.167-.1669l.333-1.2515c.084-.1668.084-.3337 0-.3337 0-.0834-.083-.0834-.25-.0834l-.334-.0835c-.282 0-.504-.1192-.667-.2065-.03-.0159-.058-.0308-.083-.0437-.167-.0835-.334-.3338-.418-.7509l-.834-2.5864c0-.0835-.083-.2503-.167-.4171v-.0001c-.083-.1669-.167-.3337-.334-.5006-.083-.0834-.166-.146-.25-.2086-.083-.0625-.167-.1251-.25-.2085-.167-.1669-.417-.2503-.751-.3338.25-.0834.501-.2503.751-.4171.083-.0835.167-.1878.25-.2921.084-.1042.167-.2085.25-.292.167-.1668.251-.3337.334-.584 0-.1669.084-.4171.167-.584l.25-1.0846c.084-.4172.167-.6675.251-.8344.097-.0977.166-.1954.224-.2764.04-.0573.075-.1062.109-.1407.084-.0834.251-.1669.334-.1669.035 0 .069-.0143.11-.0311.057-.0237.126-.0523.224-.0523l.334-.0834c.041 0 .083-.0209.125-.0418.041-.0208.083-.0417.125-.0417.083 0 .083-.0834.083-.2503l-.333-1.2515c-.032-.0318-.052-.0637-.069-.0909-.027-.044-.047-.0759-.098-.0759 0-.0834-.084-.0834-.167-.0834-.584 0-1.085.0834-1.419.2502-.417.2503-.667.5006-.917.7509-.023.0344-.048.0704-.073.1078-.16.2343-.356.5221-.428.81-.167.3337-.25.6674-.334 1.0012l-.333 1.4183c-.167.5006-.334.8343-.584 1.0846-.251.2503-.584.3338-1.085.3338h-1.251v-5.0894c0-.0417-.021-.0834-.042-.1251-.021-.0418-.042-.0835-.042-.1252 0-.0834-.083-.0834-.25-.0834h-3.254c-.042 0-.083.0208-.125.0417-.042.0209-.084.0417-.125.0417-.084 0-.084.0834-.084.2503v1.0012c0 .0834 0 .2503.084.2503.083.0834.167.0834.25.0834h1.502v11.0965c0 .0834 0 .2503.083.2503.084.0834.167.0834.251.0834h1.418c.167 0 .25 0 .25-.0834z"/>
	<path fill="url(#gr1)" d="M43.027 33.8616s1.0012 2.6698 1.9189 2.8367H33.349c-2.3361 0-4.4219-1.3349-5.0893-3.8379l-6.7579-20.0237S20.9177 10.4172 20 10h11.8472c2.3361.0834 3.9213.9178 4.839 4.0047l6.3408 19.8569z"/>
	<linearGradient id="gr1" x1="32.4629" y1="7.72998" x2="32.4629" y2="39.0518" gradientUnits="userSpaceOnUse">
		<stop stop-color="#F2746A"/>
		<stop offset=".33" stop-color="#F2746A"/>
		<stop offset=".76" stop-color="#C74A40"/>
		<stop offset="1" stop-color="#C2453B"/>
	</linearGradient>
	<path fill="#EF5145" d="M35.6017 33.8616s-1.0012 2.6698-1.919 2.8367h11.597c2.336 0 4.4218-1.3349 5.0893-3.8379l6.6745-20.0237s.584-2.4195 1.5017-2.8367H46.7814c-2.336 0-3.8378.8343-4.7555 3.9213l-6.4242 19.9403z"/>
</svg>
