<svg xmlns="http://www.w3.org/2000/svg" viewBox="0 0 200 50">
	<path fill="#bd0d31" d="M48.9 29.7c-.3.1-.4.4-.7.4-.4.1-.8.1-1.2.1h-4.9v-5h3.7c.4 0 .7.1 1.1.3.3.1.4.5.4.8h1.1v-3.9h-1.1c0 .3-.1.5-.4.7-.3.1-.5.1-.9.1h-3.8v-3.1h4.2c.4 0 .9.1 1.4.1.3 0 .5.1.7.4.3.3.4.5.4.8H50v-3.3H37.5v1.1c.3 0 .5.1.7.3.1.1.1.4.1.7v10.2c.1.3 0 .4-.1.7-.1.1-.4.3-.7.3v.9h12.7v-3.4h-1.1c.1.3 0 .5-.2.8zM30 19.3c.3 0 .5.1.7.3.1.1.1.4.1.7v3.3h-5.7v-3.3-.1c0-.4.4-.8.9-.8v-1.1h-5.4v1.1c.3 0 .5.1.7.3.1.1.3.4.3.7v10.2c0 .3 0 .4-.1.7-.1.1-.4.3-.7.3v1.1h5.4v-1.1c-.3 0-.4-.1-.7-.3-.1-.1-.1-.4-.1-.7v-4.9h5.4v4.9c0 .3 0 .5-.5.8-.1.1-.4.3-.7.3v1.1h5.6v-1.1c-.3 0-.5-.1-.7-.3-.1-.1-.1-.4-.1-.7V20.2v-.1c0-.4.4-.8.9-.8v-1.1h-5.4l.1 1.1zM68.2 19.3h.1c.3 0 .5.1.7.3.1.1.1.4.1.7v10H65v-9.9c0-.3 0-.5.1-.8.1-.1.3-.3.5-.3h.1v-1.1h-5.3v.9c.1.1.1.1.3.1.1 0 .4.1.5.3.1.3.1.5.1.8v10h-.7c-1.2.1-2.4-.3-3.4-1.1-.8-.8-1.2-1.9-1.1-3.1 0-1.1.3-2.2.5-3.1.1-.4.3-.9.5-1.5.3-.4.4-.9.7-1.4.1-.5.5-.8 1.1-.9v-1.1h-5.7v1.1c.5.1.8.3.8.4 0 .4-.1.8-.4 1.2l-.3.4c-.1.1-.1.4-.3.5-.1.3-.1.4-.3.7l.3.7c-.7 1.4-.8 3-.4 4.5.1.5.4 1.1.7 1.6.3.5.7.9 1.1 1.4 1.4 1.2 3.3 1.9 5.2 1.9h14v-1.1c-.3 0-.5-.1-.7-.3-.3-.3-.3-.5-.3-.8v-10c0-.3 0-.4.1-.7.3-.1.4-.3.7-.3h.1v-1.1h-5.3v1.1zM16.9 25.5c-.7-.4-1.5-.7-2.4-.9.8-.3 1.6-.7 2.2-1.2.4-.4.7-1.1.7-1.8s-.1-1.2-.4-1.8c-.3-.4-.7-.8-1.2-1.1-.5-.3-1.1-.4-1.6-.4-.8-.1-1.6-.1-2.4-.1H5v.9c.3.1.5.3.7.4.1.3.1.4.1.7v10.2c.1.3 0 .5-.1.7-.1.1-.4.3-.7.3v1.1h7.5c.7 0 1.4 0 2-.1.5 0 .9-.1 1.5-.3.4-.1.8-.4 1.1-.7.8-.8 1.4-1.9 1.2-3.1 0-1.2-.4-2.1-1.4-2.8zm-7.4-5.4h2.2c.5 0 1.2.1 1.6.5.4.3.5.8.5 1.4.1.5-.1 1.1-.5 1.4-.4.3-1.1.4-1.6.4H9.5v-3.7zm2.3 10.4H9.5v-4.9h2.3c.8 0 1.5.1 2 .7.5.4.8 1.1.8 1.8 0 1.6-.9 2.4-2.8 2.4zM171.7 18.2v1.1c.3 0 .5.1.7.3.1.1.1.4.1.7v3.3h-5.6v-3.3-.1c0-.4.4-.8 1-.8v-1.1h-5.4v1.1c.3 0 .5.1.7.3.1.1.1.4.1.7v10.2c0 .3 0 .5-.1.7-.1.1-.4.3-.7.3v1.1h5.4v-1.1c-.3 0-.4-.1-.7-.3-.1-.1-.1-.4-.1-.7v-4.9h5.6v5c.1.3 0 .5-.1.7-.1.1-.4.3-.7.3v1.1h5.4v-1.1c-.3 0-.5-.1-.7-.3-.1-.1-.1-.4-.1-.7V20.2v-.1c0-.4.4-.8 1-.8v-1.1H171.7zM160.8 30.4L156.1 18h-3.7l-4.6 12.2c-.1.5-.4.9-.9 1.1v1.1h4.3v-1.1c-.1 0-.4 0-.5-.1-.1-.1-.3-.3-.3-.4v-.4l.9-2.8h4.6l1.2 3v.2c-.1.1-.1.3-.3.4-.1 0-.4.1-.5.1v1.1h5.4v-1.1c-.3-.1-.7-.5-.9-.9zm-8.8-4.9l1.6-4.5 1.6 4.5H152zM194.2 31.1c-.3-.1-.4-.3-.5-.5l-5-7.6 3.1-2.8c.3-.1.7-.4.9-.5.3-.1.7-.3.9-.3v-1.1h-5.8v1.2c.5 0 .8.3.8.4s-.1.3-.4.5l-3.9 3.5v-3.7c-.1-.3 0-.5.1-.7.1-.1.4-.3.7-.3v-1.1h-5.4v1.1c.3 0 .5.1.7.3.1.1.1.4.1.7v10.2c.1.3 0 .4-.1.7-.1.1-.4.3-.7.3v1.1h5.4v-1.1c-.3 0-.4-.1-.7-.3-.1-.3-.1-.4-.1-.7v-3.7l1.6-1.4 3.4 5.2c.1.1.1.3.1.4 0 .3-.1.4-.7.5v1.1h6.2v-1.1c-.2-.1-.4-.2-.7-.3zM144 25.1c-.8-.5-1.6-.9-2.6-1.4-1.2-.4-2.4-.8-3.7-1.1h-.3v-2.4h3.9c.9 0 1.4.4 1.5 1.4h1.1v-3.4h-11.1v1.1c.3 0 .5.1.7.3.3.1.3.4.3.7v10.2c.1.3 0 .4-.1.7-.1.3-.4.3-.7.3v1.1h7.3c1.4.1 2.6-.1 3.8-.5.5-.3 1.1-.7 1.4-1.2.4-.5.5-1.2.5-1.9s-.3-1.4-.5-2c-.4-1-1-1.5-1.5-1.9zm-2.2 4.3c-.1.3-.5.5-.8.7-.8.3-1.6.4-2.4.4-.1 0-.5-.1-1.1-.1v-5.7c.8.1 1.6.4 2.4.8.7.3 1.2.8 1.6 1.4.3.4.5.9.5 1.5.1.3.1.8-.2 1zM94.4 20.6c-.4-.5-.9-1.1-1.6-1.4-.4-.3-.8-.4-1.2-.5-.4-.1-.9-.3-1.4-.3-.5-.1-1.2-.1-2.2-.1h-.3v-.4c0-.4.3-.7.8-.8V16H83v1.1c.7.1.9.4.9.8v.4h-.3c-.9 0-1.6.1-2.2.1-.4 0-.9.1-1.4.3-.4.1-.8.3-1.2.5-.5.4-1.2.8-1.6 1.4-.9 1.2-1.5 2.7-1.5 4.3 0 1.4.4 2.7 1.1 3.8.8 1.1 1.8 2 3 2.7 1.2.7 2.7.9 4.1.9h.1v.4c0 .1 0 .4-.1.5-.1.1-.3.3-.5.3h-.1v1.1h5.3v-1.1h-.1c-.1 0-.4-.1-.5-.3-.1-.1-.1-.4-.1-.5v-.4c1.4 0 2.8-.3 4.1-.9 1.2-.7 2.3-1.6 3-2.7 1.1-1.8 1.4-4.1.7-6.1-.4-.6-.8-1.4-1.3-2zm-10.3 9.8c-.8-.1-1.6-.4-2.2-.8-.7-.4-1.2-1.1-1.5-1.8-.4-.8-.5-1.8-.5-2.6-.1-1.2.3-2.4 1.1-3.4.8-.8 1.9-1.4 3.1-1.4v10zm7.8-5.3c0 .9-.1 1.8-.4 2.6-.4.7-.8 1.4-1.5 1.8-.7.5-1.5.8-2.3.9v-10c1.1 0 2.3.5 3.1 1.4.9.8 1.3 2.1 1.1 3.3zM113.9 31.5c-.1 0-.3 0-.4-.1-.1-.1-.3-.3-.3-.4-.1-.1-.1-.3-.1-.4V20.5v-.7c0-.1.1-.3.3-.3.1-.1.3-.3.5-.3v-1.1h-5.6v1.2c.1 0 .4 0 .5.1.1 0 .3.1.3.3V21.8l-6.1 7.6v-9-.7l.3-.3c.1-.1.3-.3.5-.3V18h-5.6v.9c.1.1.4.1.5.3.1 0 .3.1.3.3v10.8c0 .3 0 .5-.1.7-.1.1-.4.3-.7.3v1.1h5.6l5.4-6.9v4.7c.1.4 0 .7-.1.9-.1.1-.4.3-.7.3v1.1h5.7v-1.1h-.2zM125 19.3c.3 0 .5.1.7.3.1.1.1.4.1.7v3.3h-5.4v-3.3-.1c0-.4.4-.8.9-.8v-1.1h-5.4v1.1c.3 0 .5.1.7.3.1.1.1.4.1.7v10.2c0 .3 0 .5-.1.7-.1.1-.4.3-.7.3v1.1h5.4v-1.1c-.3 0-.4-.1-.7-.3-.1-.3-.1-.4-.1-.7v-4.9h5.4v5c.1.3 0 .5-.1.7-.1.1-.4.3-.7.3v1.1h5.4v-1.1c-.3 0-.5-.1-.7-.3-.1-.1-.1-.4-.1-.7V20.2v-.1c0-.5.4-.9.9-.8v-1.1h-5.4c.1 0 .1.9-.2 1.1z"/>
</svg>
