<svg xmlns="http://www.w3.org/2000/svg" viewBox="0 0 200 50">
	<path fill="#4480c1" d="M66.8 2.5H53c-12.6 0-15.6 3-15.6 15.6v13.8c0 12.6 3 15.6 15.6 15.6h13.8c12.6 0 15.6-3 15.6-15.6V18.1c0-12.6-3-15.6-15.6-15.6zM131.9 14.3c-5.4 0-8.6 3.3-9.1 7.2h5.3s.5-2.3 3.3-2.3c2.1 0 3.5 1.4 3.5 3.7-9.8 0-12.8 3-12.8 7.2 0 3.4 2.6 6 7.2 6 3.7 0 6-2.3 6-2.3l.9 2.1h3.9V22.7c0-4.9-3.5-8.4-8.2-8.4zm2.8 13.3c0 2.5-1.8 4.4-4.6 4.4-1.6 0-2.8-1.1-2.8-2.3 0-1.8 1.1-3 7.4-3v.9zM157 14.6l-4.9 13.9-5.3-13.9h-5.6l8.2 20.5-.5 1.2c-.7 1.6-1.9 2.8-4.2 2.8v4.4s1 .2 1.9.2c3.5 0 5.3-1.9 7.4-7 .5-1.2 8.6-22.1 8.6-22.1H157zM109.5 14.4c-3.7 0-6 2.3-6 2.3l-.9-2.1h-3.9v28.7h5.3V34s2.1 2.1 5.6 2.1c5.4 0 10-4.6 10-10.9 0-6.2-4.7-10.9-10.1-10.8zm-.6 16.6c-3 0-5.3-2.3-5.3-5.8s2.3-5.8 5.3-5.8 5.3 2.3 5.3 5.8-2.3 5.8-5.3 5.8z"/>
	<path fill="#fff" d="M74.3 18c.2-.7 0-1.2-1-1.2H70c-.8 0-1.2.4-1.4.9 0 0-1.7 4.1-4 6.7-.8.8-1.1 1-1.5 1-.2 0-.5-.2-.5-.9V18c0-.8-.2-1.2-.9-1.2h-5.2c-.5 0-.8.4-.8.8 0 .8 1.2 1 1.3 3.2v4.8c0 1.1-.2 1.3-.6 1.3-1.1 0-3.8-4.1-5.4-8.8-.3-.9-.6-1.3-1.5-1.3h-3.3c-.9 0-1.1.4-1.1.9 0 .9 1.1 5.2 5.2 10.9 2.7 3.9 6.5 6 10 6 2.1 0 2.3-.5 2.3-1.3v-2.9c0-.9.2-1.1.9-1.1.5 0 1.3.2 3.3 2.1 2.2 2.2 2.6 3.2 3.8 3.2h3.3c.9 0 1.4-.5 1.1-1.4s-1.4-2.3-2.8-3.8c-.8-.9-1.9-1.9-2.3-2.4-.5-.6-.3-.9 0-1.5-.1 0 3.9-5.6 4.4-7.5z"/>
</svg>