<svg xmlns="http://www.w3.org/2000/svg" viewBox="0 0 200 50">
	<path fill="#eb3723" d="M40.3 17c-.3-.5-.3-1-.2-1.5.1-.5.5-.9.9-1.2l9-5.2c.1 0 .3-.1.5-.1s.4.1.5.1l9 5.1c.4.3.8.7.9 1.2.1.5.1 1-.2 1.5-.3.4-.7.8-1.2.9-.5.2-1 .2-1.5-.1l-7.5-4.3-7.5 4.3c-.2.1-.5.2-.7.3h-.8c-.3-.1-.5-.2-.7-.3-.2-.3-.3-.5-.5-.7z"/>
	<path fill="#1b58a9" d="M58.9 19.9H42.2c-.3 0-.5.1-.7.3-.2.2-.3.4-.3.7v9.6c0 .6.2 1.2.7 1.6.4.4 1 .7 1.6.7.6 0 1.2-.2 1.6-.7.4-.4.7-1 .7-1.6v-6.7h2.7v6.7c0 .6.2 1.2.7 1.6.4.4 1 .7 1.6.7.6 0 1.2-.2 1.6-.7.4-.4.7-1 .7-1.6v-6.7h2.7v6.7c0 .6.2 1.2.7 1.6.4.4 1 .7 1.6.7.6 0 1.2-.2 1.6-.7.4-.4.7-1 .7-1.6v-9.6c-.1-.3-.2-.5-.4-.7-.6-.2-.8-.3-1.1-.3zM10.8 27.5c-.2-.5-.6-.9-1-1.2-.3-.2-.6-.4-1-.5.5-.2.9-.6 1.2-1.1.3-.5.4-1 .4-1.5s0-3.4-4-3.4h-6-.1s-.1 0-.1.1l-.1.1V32.4s0 .1.1.1l.1.1H6.7c4.1 0 4.3-3 4.3-3.7.1-.4 0-.9-.2-1.4zm-6.9-4.7h1.3c.3 0 .6.1 1 .2.2.1.3.2.4.3.1.2.1.3.1.5 0 .6-.4 1-1.4 1H3.9v-2zm1.5 7H3.9v-2.1h1.5c1.1 0 1.7.5 1.7 1 0 .8-.5 1.1-1.7 1.1zM131.5 18.8c.8 0 1.5-.1 2.2-.4.7-.3 1.3-.8 1.7-1.5l.1-.1v-.1s0-.1-.1-.1l-.1-.1-1.9-.9h-.3c-.1 0-.2.1-.2.2-.2.2-.4.4-.7.6-.3.1-.6.2-.8.2s-.6-.1-.8-.2c-.3-.1-.5-.3-.7-.6-.1-.2-.3-.3-.4-.1l-1.9.9c-.1.1-.1.1-.1.2v.3c.4.6 1 1.2 1.7 1.5.8.2 1.5.3 2.3.2 0 .1 0 0 0 0zM33.9 23c.5 0 1 .1 1.4.3.4.2.8.5 1.1.9l.1.1h.2s.1 0 .1-.1l1.8-2.3c.1-.1.1-.2.1-.3s0-.2-.1-.3c-1.4-1.1-3.1-1.8-4.8-1.8-.9 0-1.8.1-2.6.4s-1.6.8-2.2 1.4c-.6.6-1.1 1.4-1.4 2.2s-.4 1.7-.4 2.6c0 2.6 1.6 6.6 6.5 6.6 1.8 0 3.5-.6 4.8-1.8.1-.1.1-.2.1-.3s0-.2-.1-.3L37 28.5l-.1-.1h-.1-.1s-.1 0-.1.1c-.3.4-.7.6-1.2.8-.4.2-.9.3-1.4.3-1.3 0-2.6-1.1-2.6-3.4-.2-1.8.8-3.2 2.5-3.2zM25.4 23.8c-.3-.8-.8-1.6-1.4-2.2-.6-.6-1.4-1.1-2.2-1.4-.8-.3-1.7-.5-2.6-.4-.9 0-1.8.1-2.6.4s-1.6.8-2.2 1.4c-.6.6-1.1 1.4-1.4 2.2-.3.8-.4 1.7-.4 2.6 0 2.7 1.6 6.7 6.5 6.7s6.5-4 6.5-6.7c.2-.9.1-1.8-.2-2.6zm-6.2 6c-1.3 0-2.7-1.1-2.7-3.5 0-2 1-3.5 2.7-3.5 1.6 0 2.6 1.5 2.6 3.5 0 2.4-1.3 3.5-2.6 3.5zM102.8 19.9h-3.2-.1s-.1 0-.1.1l-.1.1v4.6h-3.8v-4.5-.1s0-.1-.1-.1l-.1-.1H92h-.1s-.1 0-.1.1l-.1.1V32.5s0 .1.1.1l.1.1H95.3s.1 0 .1-.1l.1-.1v-4.8h3.8v4.8s0 .1.1.1l.1.1H102.9s.1 0 .1-.1l.1-.1V20.2c.1-.2-.1-.3-.3-.3zM136.9 19.9h-3.6c-.1 0-.1.1-.1.2l-3.6 6.6v-6.5-.1s0-.1-.1-.1l-.1-.1H126.1h-.1s-.1 0-.1.1l-.1.1V32.4s0 .1.1.1l.1.1h3.5c.1 0 .1 0 .2-.1.1 0 .1-.1.1-.1l3.6-6.6v6.6s0 .1.1.1l.1.1H137s.1 0 .1-.1l.1-.1V20.2v-.1s0-.1-.1-.1l-.1-.1h-.1zM74.9 23.8c-.3-.8-.8-1.6-1.4-2.2-.6-.6-1.4-1.1-2.2-1.4-.8-.3-1.7-.5-2.6-.4-.9 0-1.8.1-2.6.4s-1.6.8-2.2 1.4c-.6.6-1.1 1.4-1.4 2.2-.3.8-.4 1.7-.4 2.6 0 2.7 1.6 6.7 6.5 6.7s6.5-4 6.5-6.7c.3-.9.1-1.8-.2-2.6zm-6.1 6c-1.3 0-2.7-1.1-2.7-3.5 0-2 1-3.5 2.7-3.5s2.7 1.5 2.7 3.5c-.1 2.4-1.5 3.5-2.7 3.5zM122.3 19.9h-3.2-.1s-.1 0-.1.1l-.1.1V32.5s0 .1.1.1l.1.1H122.4s.1 0 .1-.1l.1-.1V20.2v-.1s0-.1-.1-.1l-.1-.1h-.1zM112 24.6h-1.9v-4.3-.1s0-.1-.1-.1l-.1-.1H106.6h-.1s-.1 0-.1.1l-.1.1V32.6s0 .1.1.1l.1.1h5.6c3.3 0 5.1-1.5 5.1-4.2-.1-2.7-1.9-4-5.2-4zm.7 5c-.3.2-.7.3-1 .3h-1.5v-2.3h1.5c.3 0 .7.1 1 .2.2.1.3.2.4.4.1.2.1.4.1.6-.1.3-.2.6-.5.8zM88.1 19.8H85h-.1s-.1 0-.1.1l-.1.1V25.4c-3.1.5-3.6-.6-3.6-1.5v-3.7-.1s0-.1-.1-.1l-.1-.1H77.6c-.1 0-.2 0-.2.1s-.1.1-.1.2v2.5c0 1.4.1 2.9.1 3.4.3 1.7 1.8 2.4 3.4 2.6 1.3.1 2.7 0 3.9-.3v4.1s0 .1.1.1l.1.1H88.3s.1 0 .1-.1l.1-.1V20.2c0-.1-.1-.2-.1-.3-.1 0-.2 0-.3-.1 0 .1 0 0 0 0zM185.3 19.8h-3.2-.1s-.1 0-.1.1l-.1.1v4.6H178v-4.5-.1s0-.1-.1-.1l-.1-.1H174.5h-.1s-.1 0-.1.1l-.1.1V32.4s0 .1.1.1l.1.1H177.8s.1 0 .1-.1l.1-.1v-4.8h3.8v4.8s0 .1.1.1l.1.1H185.4s.1 0 .1-.1l.1-.1V20.2v-.1s0-.1-.1-.1l-.1-.1s-.1 0-.1-.1zM153.8 24.8H151v-1.9h6s.1 0 .1-.1l.1-.1V20.4v-.1s0-.1-.1-.1l-.1-.1h-9.6-.1s-.1 0-.1.1l-.1.1V32.7s0 .1.1.1l.1.1H153.7c4.1 0 4.4-3 4.4-4s-.2-4.1-4.3-4.1zm-1.3 5H151v-2.2h1.5c1.1 0 1.6.4 1.7 1.1 0 .7-.6 1.1-1.7 1.1zM196 26.3l3.9-5.9c0-.1.1-.1.1-.2v-.1s0-.1-.1-.1l-.1-.1h-3.7c-.1 0-.1.1-.1.2l-3.3 5.4v-5.3-.1s0-.1-.1-.1l-.1-.1H189.2h-.1s-.1 0-.1.1l-.1.1V32.4s0 .1.1.1l.1.1H192.5s.1 0 .1-.1l.1-.1V27l3.3 5.5c0 .1.1.1.1.1.1 0 .1.1.2.1h3.5s.1 0 .1-.1l.1-.1v-.1c0-.1 0-.2-.1-.2l-3.9-5.9zM172.3 32.3l-4.6-12.1c0-.1-.1-.1-.1-.2-.1 0-.1-.1-.2-.1H164c-.1 0-.2 0-.2.1-.1 0-.1.1-.1.2L159 32.3V32.6s0 .1.1.1l.1.1h3.4c.1 0 .2 0 .2-.1.1 0 .1-.1.1-.2l.5-1.9h4.1l.6 1.9c0 .1.1.1.1.2.1 0 .1.1.2.1h3.5s.1 0 .1-.1l.1-.1v-.1l.2-.2zm-7.8-4.6l1.1-3.9 1.2 3.9h-2.3z"/>
</svg>