<svg xmlns="http://www.w3.org/2000/svg" viewBox="0 0 200 50">
	<g fill="#003870">
		<path d="M25.0001 8.24c-.0002-.30084.1165-.58999.3255-.80642.2089-.21643.4938-.34321.7945-.35358h33.93c.1497.0026.2974.03468.4347.09438.1373.05971.2615.14589.3656.25361.104.10772.1857.23488.2406.3742.0548.13933.0817.2881.0791.43781v33.89c.0001.3008-.1166.59-.3255.8064-.209.2164-.4939.3432-.7945.3536h-33.93c-.1498-.0026-.2975-.0347-.4348-.0944-.1373-.0597-.2615-.1459-.3655-.2536-.104-.1077-.1858-.2349-.2407-.3742-.0548-.1393-.0817-.2881-.079-.4378V8.24z"/>
		<path d="M95.07 18.66h-1.5c-.0284.0023-.0551.0146-.0753.0348-.0201.0201-.0325.0468-.0347.0752v3.37H89v-3.37c-.0023-.0284-.0146-.0551-.0348-.0752-.0201-.0202-.0468-.0325-.0752-.0348h-1.5c-.07 0-.11.07-.11.15V27c0 .07.07.11.15.15H89c.07 0 .11-.07.15-.11v-3.47h4.42V27c0 .07.07.11.15.11h1.5c.07 0 .11-.07.15-.15v-8.15c-.15-.07-.19-.11-.26-.15h-.04zM75 22.82c-.1958-.23-.4448-.4086-.7255-.5201-.2806-.1116-.5843-.1527-.8845-.1199h-4.08V20.5c0-.11 0-.3.11-.37.1271-.0621.2694-.0863.41-.07H74c.039-.0024.0758-.0189.1034-.0466.0276-.0276.0442-.0644.0466-.1034v-1.1c-.0024-.039-.019-.0758-.0466-.1034-.0276-.0277-.0644-.0442-.1034-.0466h-5.21c-.1715-.0087-.3429.0169-.5043.0753-.1614.0583-.3096.1483-.4357.2647-.1173.1255-.208.2736-.2664.4351-.0584.1616-.0835.3334-.0736.5049v6c-.0177.2961.0749.5882.26.82.1248.1183.2728.2095.4345.2681.1617.0585.3338.0829.5055.0719h4.72c.2841.0258.5706-.008.8409-.0993.2704-.0913.5187-.238.7291-.4307.3846-.5585.5582-1.2354.49-1.91.0524-.6514-.1206-1.301-.49-1.84zm-1.61 2.74c-.1145.0907-.2463.157-.3873.1948s-.2883.0464-.4327.0252h-2.7c-.19 0-.45 0-.52-.11-.0188-.136-.0188-.274 0-.41v-1.65h3.3c.1444-.0212.2917-.0126.4327.0252.141.0378.2728.1041.3873.1948.0993.1183.1736.2555.2183.4033.0447.1478.0588.3032.0417.4567.0104.3153-.0925.624-.29.87h-.05zM85.85 27l-3.15-7.44c-.1124-.3181-.3281-.5894-.6126-.7707-.2846-.1812-.6216-.262-.9574-.2293-.3375-.044-.6797.032-.9667.2148-.287.1828-.5006.4608-.6033.7852l-3.16 7.39c.0023.039.0189.0758.0465.1034.0277.0277.0645.0442.1035.0466H78s.11 0 .11-.07l.86-2.14h4.33l.86 2.14s.07.07.11.07h1.43c.039-.0024.0758-.0189.1034-.0466.0276-.0276.0442-.0644.0466-.1034V27zm-6.34-3.41l1.35-3.34s.11-.3.22-.3.22.3.22.3l1.35 3.34h-3.14zM105 26.91l-4-3.41c-.19-.15-.52-.45-.52-.71 0-.26.22-.37.45-.6l3.64-3.3c.007-.0228.007-.0472 0-.07-.002-.033-.013-.0647-.033-.0914-.019-.0266-.046-.047-.077-.0586H102.55l-3.45 3.11c-.1351.1171-.2499.2556-.34.41v-3.38c-.0023-.0284-.0146-.0551-.0348-.0752-.0202-.0202-.0468-.0325-.0752-.0348h-1.5c-.07 0-.11.07-.11.15v8.21c0 .07.07.11.11.15h1.5c.0284-.0023.055-.0146.0752-.0348.0202-.0201.0325-.0468.0348-.0752v-3.64c.1143.2012.2672.3779.45.52l3.79 3.19h1.94c.039-.0024.076-.0189.103-.0466.028-.0276.045-.0644.047-.1034 0-.07 0-.11-.07-.15l-.02.04zm61.19-18.26c.014-.32411-.051-.64671-.19-.94-.119-.20947-.295-.38085-.507-.49416-.213-.11332-.453-.1639-.693-.14584-.321-.002-.636.09216-.903.27037-.267.17821-.475.43231-.597.72963l-3.52 5.47c0 .07-.11.15-.15.15-.04 0 0-.15 0-.26V7.19c-.002-.02841-.015-.05508-.035-.07524-.02-.02015-.047-.03248-.075-.03476h-1.5c-.07 0-.11.07-.11.15v6.86c0 .45 0 1.5 1.35 1.5.293.03.588-.0331.843-.1804.255-.1472.457-.371.577-.6396l3.64-5.55c.07-.11.15-.26.22-.26s.07 0 .07.22v6.3c0 .07.07.11.11.15h1.5c.028-.0023.055-.0146.075-.0348.02-.0201.033-.0468.035-.0752l-.14-6.87zM75 11.69c-.2041-.229-.4853-.3749-.79-.41.2527-.0623.4777-.2065.64-.41.1593-.1916.2779-.4137.3484-.6527.0705-.239.0915-.4899.0616-.7373.0543-.66226-.1459-1.32031-.56-1.84-.4639-.37684-1.0539-.56278-1.65-.52h-4.26c-.1838-.01805-.3694.00588-.5426.06997-.1732.06409-.3296.16668-.4574.30003-.1988.2575-.3046.57473-.3.9v6c-.0095.326.0968.6449.3.9.1411.1399.3138.2438.5035.3029.1897.0592.3908.0719.5865.0371h4.31c.3081.0315.6193-.009.9091-.1184.2898-.1093.5503-.2844.7609-.5116.2024-.2501.3527-.5383.442-.8474.0894-.3091.1158-.633.078-.9526.0523-.2641.0453-.5366-.0204-.7977-.0657-.2611-.1885-.5044-.3596-.7123zm-5.7-1.09V8.87c-.0053-.06114.0017-.12273.0206-.18112s.0493-.11241.0894-.15888c.0429-.03092.0915-.05302.143-.06504.0515-.01201.1048-.0137.157-.00496h2.79c.2775-.03219.5574.03514.79.19.1957.24168.289.55037.26.86.035.28717-.0322.5775-.19.82-.1132.1074-.2499.1869-.3992.232-.1493.0452-.3071.0547-.4608.028l-3.2.01zm4.09 3.34c-.2673.2063-.6048.2997-.94.26h-2.57c-.11 0-.37 0-.45-.11-.0551-.1433-.0789-.2967-.07-.45V12h3.3c.52 0 .75.19.82.34.1413.2492.2073.534.19.82.0109.2782-.0699.5522-.23.78h-.05zm11.4-6c-1.0093-.7215-2.2448-1.05521-3.48-.94-1.2443-.14515-2.4982.17545-3.52.9-.3947.47557-.6871 1.02734-.8592 1.6209-.172.5936-.22 1.2162-.1408 1.8291-.0774.6129-.0286 1.2351.1434 1.8284.172.5932.4635 1.1451.8566 1.6216 1.0254.7168 2.2763 1.0367 3.52.9 1 0 2.59 0 3.52-.9.93-.9 1-2.7 1-3.45.02-1.16-.1-2.63-.99-3.45l-.05.04zM79.1 9.06c.6472-.44067 1.412-.67634 2.195-.67634.7829 0 1.5478.23567 2.195.67634.4253.68317.6052 1.4909.51 2.29.074.7865-.1084 1.5758-.52 2.25-.2908.2777-.6407.4858-1.0235.6088-.3828.123-.7885.1576-1.1865.1012-1 0-1.72-.11-2.17-.71-.4399-.6633-.6377-1.4579-.56-2.25-.0889-.8055.1094-1.61645.56-2.29zm34.38-1.16c-1.015-.70739-2.25-1.02679-3.48-.9-1.244-.14515-2.498.17545-3.52.9-.395.47557-.687 1.02734-.859 1.6209-.172.5936-.22 1.2162-.141 1.8291-.077.6129-.029 1.2351.143 1.8284.172.5932.464 1.1451.857 1.6216 1.025.7168 2.276 1.0367 3.52.9 1 0 2.59 0 3.52-.9.93-.9 1-2.7 1-3.45-.03-1.16-.14-2.63-1.04-3.45zm-5.74 1.16c.647-.44067 1.412-.67634 2.195-.67634.783 0 1.548.23567 2.195.67634.429.68193.612 1.4897.52 2.29.074.7865-.108 1.5758-.52 2.25-.291.2777-.641.4858-1.024.6088-.382.123-.788.1576-1.186.1012-1 0-1.72-.11-2.17-.71-.44-.6633-.638-1.4579-.56-2.25-.092-.8043.103-1.61515.55-2.29zm38.47 5.14h-4.61c-.22 0-.45 0-.52-.07-.039-.0304-.07-.0702-.089-.1157-.019-.0455-.026-.0952-.021-.1443V12h4.24c.039-.0024.076-.0189.103-.0466.028-.0276.045-.0644.047-.1034v-1.1c-.002-.039-.019-.0758-.047-.1034-.027-.0277-.064-.0442-.103-.0466H141V8.95c-.008-.06591-.002-.13269.017-.19629.019-.0636.051-.1227.093-.17371.123-.07486.266-.11302.41-.11h4.65c.039-.00237.076-.01894.103-.04657.028-.02763.045-.06442.047-.10343v-1.1c-.002-.03901-.019-.0758-.047-.10343-.027-.02763-.064-.0442-.103-.04657h-5.55c-.195-.02247-.393-.00382-.581.05473-.188.05856-.361.15573-.509.28527-.199.2575-.305.57473-.3.9v5.92c-.02.1814 0 .3649.059.5377.059.1727.155.3305.281.4623.291.204.646.2963 1 .26h5.62c.039-.0024.076-.0189.103-.0466.028-.0276.045-.0644.047-.1034v-1.07c-.041-.0391-.094-.0636-.15-.07h.02zm28.61 0h-4.62c-.22 0-.45 0-.52-.07-.039-.0304-.07-.0702-.089-.1157-.019-.0455-.026-.0952-.021-.1443V12h4.27c.039-.0024.076-.0189.103-.0466.028-.0276.045-.0644.047-.1034v-1.1c-.002-.039-.019-.0758-.047-.1034-.027-.0277-.064-.0442-.103-.0466h-4.24V8.95c-.008-.06591-.002-.13269.017-.19629.019-.0636.051-.1227.093-.17371.123-.07486.266-.11302.41-.11h4.65c.039-.00237.076-.01894.103-.04657.028-.02763.045-.06442.047-.10343v-1.1c-.002-.03901-.019-.0758-.047-.10343-.027-.02763-.064-.0442-.103-.04657h-5.55c-.195-.02247-.393-.00382-.581.05473-.188.05856-.361.15573-.509.28527-.199.2575-.305.57473-.3.9v5.92c-.02.1814 0 .3649.059.5377.059.1727.155.3305.281.4623.291.204.646.2963 1 .26h5.62c.039-.0024.076-.0189.103-.0466.028-.0276.045-.0644.047-.1034v-1.07s-.11-.07-.19-.07h.07zm-18.94-7.09h-1.5c-.028.00228-.055.01461-.075.03476-.02.02016-.033.04683-.035.07524v3.38h-4.42V7.22c-.002-.02841-.015-.05508-.035-.07524-.02-.02015-.047-.03248-.075-.03476h-1.5c-.07 0-.11.07-.11.15v8.21c0 .07.07.11.15.15h1.5c.07 0 .11-.07.15-.11V12h4.42v3.45c0 .07.07.11.15.11h1.5c.07 0 .11-.07.15-.15V7.22c-.15-.07-.19-.11-.26-.11h-.01zm-52.52.49c-.498-.39387-1.128-.58018-1.76-.52h-4.17c-.1809-.01232-.3625.01139-.5341.06976-.1717.05836-.33.15022-.4659.27024-.1186.13556-.2067.29496-.2585.46747-.0517.1725-.0659.35409-.0415.53253v7c0 .07.07.11.11.15h1.5c.0284-.0023.0551-.0146.0752-.0348.0202-.0201.0325-.0468.0348-.0752v-2.84h4c.495.0139.982-.1297 1.39-.41.3-.3011.526-.6666.663-1.0686.137-.4021.181-.8301.127-1.2514.061-.82558-.193-1.64361-.71-2.29h.04zm-1.42 3.34c-.137.1164-.296.2032-.469.2548-.172.0516-.353.067-.531.0452h-3.13V8.91c0-.15 0-.26.11-.34.0901-.05433.1951-.07882.3-.07h2.7c.354-.041.711.05173 1 .26.229.31472.336.70227.3 1.09.033.1898.027.3843-.018.5717s-.127.3638-.242.5183h-.02zm25.31 4.42L123.79 12c-.231-.1916-.39-.4561-.45-.75.038-.2231.16-.4234.34-.56l3.11-3.3v-.07c0-.07 0-.15-.11-.15h-1.87l-2.74 3.07c-.112.1275-.212.2647-.3.41V7.22c-.002-.02841-.015-.05508-.035-.07524-.02-.02015-.047-.03248-.075-.03476h-1.5c-.07 0-.11.07-.11.15v3.41c-.088-.1453-.188-.2825-.3-.41L117 7.19h-1.87c-.07 0-.11.07-.11.15v.07l3.11 3.3c.19.19.34.34.34.56-.022.1485-.073.2912-.15.4199-.077.1287-.179.2409-.3.3301l-3.45 3.37c-.007.0228-.007.0472 0 .07.002.039.019.0758.047.1034.027.0277.064.0442.103.0466h1.94l3-3.15c.155-.1724.293-.36.41-.56v3.64c0 .07.07.11.11.15h1.5c.028-.0023.055-.0146.075-.0348.02-.0201.033-.0468.035-.0752v-3.74c.108.2059.246.3947.41.56l3 3.15h1.94c.039-.0024.076-.0189.103-.0466.028-.0276.045-.0644.047-.1034-.02 0-.02-.04-.05-.04h.01zm10.68-1.16h-.67l-2.6-6.2c-.109-.32016-.324-.59359-.61-.77533-.285-.18174-.624-.26098-.96-.22467-.334-.04684-.674.02853-.957.21227-.283.18373-.49.46347-.583.78773L129 14.2h-.67c-.039.0024-.076.0189-.103.0466-.028.0276-.045.0644-.047.1034v1.09c.002.039.019.0758.047.1034.027.0277.064.0442.103.0466H138c.039-.0024.076-.0189.103-.0466.028-.0276.045-.0644.047-.1034v-1.09c-.02-.0447-.052-.0827-.093-.1094-.04-.0267-.088-.0408-.137-.0406h.01zm-5.06-5.55s.11-.3.22-.3.22.3.22.3l2.25 5.55h-4.95l2.26-5.55zM94 11.69c-.2041-.229-.4853-.3749-.79-.41.2527-.0623.4777-.2065.64-.41.1593-.1916.2779-.4137.3484-.6527.0705-.239.0915-.4899.0616-.7373.0543-.66226-.146-1.32031-.56-1.84-.4752-.39283-1.0858-.58318-1.7-.53h-4.8c-.039.00237-.0758.01894-.1035.04657-.0276.02763-.0442.06442-.0465.10343v1.09c.0023.03901.0189.0758.0465.10343.0277.02764.0645.0442.1035.04657h4.12c.2775-.03219.5574.03514.79.19.1957.24168.289.55037.26.86.035.28717-.0322.5775-.19.82-.1132.1074-.2499.1869-.3992.232-.1493.0452-.3071.0547-.4608.028h-3.15c-.039.0024-.0758.0189-.1035.0466-.0276.0276-.0442.0644-.0465.1034v1.09c.0023.039.0189.0758.0465.1034.0277.0277.0645.0442.1035.0466h3.37c.52 0 .75.19.82.34.1413.2492.2073.534.19.82.0197.2902-.0577.5787-.22.82-.2673.2063-.6047.2997-.94.26h-4.23c-.039.0024-.0758.0189-.1035.0466-.0276.0276-.0442.0644-.0465.1034v1.09c.0023.039.0189.0758.0465.1034.0277.0277.0645.0442.1035.0466h5c.2994.0372.6034.0061.8892-.0909.2857-.0969.5458-.2573.7608-.4691.2024-.2501.3527-.5383.4421-.8474.0893-.3091.1158-.633.0779-.9526.0552-.2752.0545-.5587-.0022-.8336-.0567-.2749-.1682-.5355-.3278-.7664zm-24.54 31.6h-1.91v-4.2h3.19v.71h-2.25v.86h1c1 0 1.57.52 1.57 1.31s-.62 1.32-1.6 1.32zm0-1.91h-.94v1.16h.94c.41 0 .67-.22.67-.56-.0005-.0874-.0198-.1737-.0565-.2531-.0368-.0793-.0902-.1498-.1565-.2067-.0664-.0569-.1443-.0989-.2283-.1231-.084-.0242-.1723-.03-.2587-.0171h.03zm5.29 1.91l-.3-.75h-1.76l-.3.75h-1l1.76-4.2h.75l1.76 4.2h-1 .09zm-1.12-3L73 41.87h1.2l-.6-1.54.03-.04zm5.29 3v-1.76h-1.66v1.76h-.94v-4.2h.94v1.72h1.61v-1.72h.94v4.2h-.89zm2.06 0v-4.2h.94v2l1.54-2h1.12L82.92 41l1.76 2.21h-1.16l-1.69-2.17v2.17h-.9l.05.08zm4.2.94v-1.8h1v1.16l-1 .64zm3.56-.94v-4.2h.94v2l1.54-2h1.08L90.68 41l1.76 2.21h-1.08l-1.69-2.17v2.17h-1l.07.08zm7.57-1.95c.0439.271.0224.5486-.0629.8095-.0852.261-.2317.4977-.4271.6905-.375.2903-.8358.4478-1.31.4478-.4743 0-.935-.1575-1.31-.4478-.1792-.2037-.315-.4418-.3992-.6996-.0843-.2579-.1152-.5302-.0908-.8004V41c0-.82.11-1.16.49-1.5.375-.2903.8357-.4478 1.31-.4478.4742 0 .935.1575 1.31.4478.1813.1796.3196.398.4045.6388.0848.2407.1141.4975.0855.7512v.45zM95.11 40c-.166-.1456-.3793-.2258-.6-.2258-.2208 0-.434.0802-.6.2258-.22.19-.22.6-.22 1.12v.22c0 .45 0 .82.22 1 .166.1456.3792.2258.6.2258.2207 0 .434-.0802.6-.2258.19-.19.22-.41.22-1.24 0-.83-.04-.92-.22-1.1zm3.82-.19v3.45H98V39.8h-1.28v-.71h3.45v.71l-1.24.01zm5.29 1.54c.044.271.022.5486-.063.8095-.085.261-.232.4977-.427.6905-.375.2903-.836.4478-1.31.4478-.474 0-.935-.1575-1.31-.4478-.179-.2037-.315-.4418-.399-.6996-.084-.2579-.115-.5302-.091-.8004V41c0-.82.11-1.16.49-1.5.375-.2903.836-.4478 1.31-.4478.474 0 .935.1575 1.31.4478.181.1796.32.398.404.6388.085.2407.115.4975.086.7512v.46zM103.06 40c-.166-.1456-.379-.2258-.6-.2258-.221 0-.434.0802-.6.2258-.22.19-.22.6-.22 1.12v.22c0 .45 0 .82.22 1 .166.1456.379.2258.6.2258.221 0 .434-.0802.6-.2258.19-.19.22-.41.22-1.24 0-.83-.04-.92-.22-1.1zm4-.9c.94 0 1.57.52 1.57 1.31s-.64 1.31-1.57 1.31h-.94v1.57h-.94v-4.2l1.88.01zM107 41c.41 0 .71-.22.71-.56 0-.34-.26-.56-.71-.56h-.86V41h.86zm4.35 2.32h-1.87v-4.2h.94v1.57h.94c.94 0 1.57.52 1.57 1.31-.04.3817-.23.7318-.528.9736-.298.2418-.68.3556-1.062.3164l.01.03zm-.07-1.91h-.86v1.16h.86c.41 0 .71-.22.71-.56-.005-.0889-.028-.176-.067-.256-.039-.0801-.094-.1515-.161-.2102-.067-.0586-.145-.1033-.229-.1315-.085-.0281-.174-.0391-.263-.0323l.01.03zm2.14 1.91v-4.2h.94v4.2h-.94zm4.76 0v-2.7l-1.87 2.7h-.82v-4.2h.94v2.66l1.87-2.66h.82v4.2h-.94zm-.86-4.42c-.52 0-1-.19-1.09-.82h.67c.004.0545.018.1076.043.1561.025.0485.06.0915.102.1261.042.0347.091.0603.143.0754.053.0151.108.0193.162.0124.108.0085.216-.0253.3-.0943.083-.069.137-.1678.15-.2757h.67c-.066.2513-.221.47-.436.6153-.216.1454-.476.2075-.734.1747l.02.03zm7.68 2.44c.103.0858.184.195.236.3186.052.1235.074.2577.064.3914 0 .75-.56 1.2-1.46 1.2h-2v-4.16h1.95c.9 0 1.5.45 1.5 1.16.008.1942-.046.3858-.154.5475s-.264.2851-.446.3525c.115.0413.221.106.31.19zm-1.31-.56c.37 0 .64-.19.64-.49s-.22-.49-.64-.49h-.94v1l.94-.02zm0 1.76c.37 0 .64-.19.64-.52s-.22-.52-.64-.52h-1v1h1v.04zm4.16.75c-.477.0182-.945-.1422-1.31-.45-.49-.41-.49-.94-.49-1.69-.053-.3004-.036-.6089.049-.9018.085-.2929.236-.5625.441-.7882.365-.3078.833-.4682 1.31-.45.404-.0422.809.069 1.135.3117.327.2427.549.599.625.9983h-.94c-.047-.1375-.128-.2612-.234-.36-.107-.0988-.236-.1697-.377-.2064-.14-.0366-.288-.0379-.429-.0036-.141.0343-.272.103-.38.2-.19.19-.22.37-.22 1.2s0 1 .22 1.2c.107.1043.238.1798.382.2194.143.0396.295.042.44.007.145-.035.279-.1062.388-.2071.11-.1008.193-.2279.24-.3693h.94c-.084.3954-.311.7457-.638.9838-.327.2381-.73.3471-1.132.3062h-.02zm2.59 0v-4.2h3.19v.71h-2.21v1h1.91v.71h-1.91v1h2.21v.71h-3.19v.07zm5-3.49v3.45h-.94v-4.16h3v.71h-2.06zm5.7 4.39v-.94h-2.66v.94h-.9v-1.65h.45c.43-.7229.626-1.5614.56-2.4v-1.09h2.89v3.45h.56v1.65h-.9v.04zm-.6-4.39h-1v.6c.032.7355-.109 1.4683-.41 2.14h1.5V39.8h-.09zm5 3.49l-.3-.75h-1.72l-.3.75h-1l1.76-4.2h.75l1.76 4.2h-1 .05zm-1.12-3l-.6 1.54H145l-.58-1.54zm5.85 3c-.477.0182-.945-.1422-1.31-.45-.49-.41-.49-.94-.49-1.69-.053-.3004-.036-.6089.049-.9018.085-.2929.236-.5625.441-.7882.365-.3078.833-.4682 1.31-.45.404-.0422.809.069 1.135.3117.326.2427.549.599.625.9983h-.94c-.047-.1375-.128-.2612-.234-.36-.107-.0988-.236-.1697-.377-.2064-.14-.0366-.288-.0379-.429-.0036-.141.0343-.272.103-.38.2-.19.19-.22.37-.22 1.2s0 1 .22 1.2c.108.097.239.1657.38.2.141.0343.289.033.429-.0036.141-.0367.27-.1076.377-.2064.106-.0988.187-.2225.234-.36h.94c-.069.3988-.287.7563-.611.9997-.323.2434-.727.3544-1.129.3103h-.02zm6-3.49v3.45h-.94V39.8h-1.27v-.71h3.45v.71h-1.24zm5.29 1.54c.044.271.022.5486-.063.8095-.085.261-.232.4977-.427.6905-.375.2903-.836.4478-1.31.4478-.474 0-.935-.1575-1.31-.4478-.179-.2037-.315-.4418-.399-.6996-.084-.2579-.115-.5302-.091-.8004V41c0-.82.11-1.16.49-1.5.375-.2903.836-.4478 1.31-.4478.474 0 .935.1575 1.31.4478.181.1796.32.398.404.6388.085.2407.115.4975.086.7512v.45zM160.42 40c-.166-.1456-.379-.2258-.6-.2258-.221 0-.434.0802-.6.2258-.22.19-.22.6-.22 1.12v.22c0 .45 0 .82.22 1 .166.1456.379.2258.6.2258.221 0 .434-.0802.6-.2258.19-.19.22-.41.22-1.24 0-.83-.04-.92-.22-1.1zm4 3.3h-1.91v-4.2h3.19v.71h-2.25v.86h1c1 0 1.57.52 1.57 1.31s-.58 1.31-1.55 1.31l-.05.01zm0-1.91h-.94v1.16h.94c.41 0 .67-.22.67-.56 0-.0845-.017-.1681-.051-.2456-.033-.0775-.083-.1471-.145-.2044-.062-.0574-.135-.1012-.215-.1287-.08-.0276-.165-.0382-.249-.0313l-.01.01zm5.92 0c.044.271.022.5486-.063.8095-.085.261-.232.4977-.427.6905-.375.2903-.836.4478-1.31.4478-.474 0-.935-.1575-1.31-.4478-.179-.2037-.315-.4418-.399-.6996-.084-.2579-.115-.5302-.091-.8004V41c0-.82.11-1.16.49-1.5.375-.2903.836-.4478 1.31-.4478.474 0 .935.1575 1.31.4478.181.1796.32.398.404.6388.085.2407.115.4975.086.7512v.5zM169.19 40c-.166-.1456-.379-.2258-.6-.2258-.221 0-.434.0802-.6.2258-.22.19-.22.6-.22 1.12v.22c0 .45 0 .82.22 1 .166.1456.379.2258.6.2258.221 0 .434-.0802.6-.2258.19-.19.22-.41.22-1.24 0-.83-.03-.92-.22-1.1zm4.84 3.3v-2.7l-1.87 2.7h-.82v-4.2h.94v2.66l1.87-2.66h.85v4.2h-.97zm-.9-4.42c-.52 0-1-.19-1.09-.82h.67c.004.0545.018.1076.043.1561.025.0485.06.0915.102.1261.042.0347.091.0603.143.0754.053.0151.108.0193.162.0124.108.0085.216-.0253.3-.0943.083-.069.137-.1678.15-.2757h.67c-.07.58-.59.81-1.15.81v.01z"/>
	</g>
	<g fill="#fff">
		<path d="M40.4801 14.16c.11 0 .19-.07.11-.19l-.22-.56c-.0267-.057-.0692-.1051-.1223-.1388-.0532-.0337-.1148-.0514-.1777-.0512h-9.6c-.11 0-.19.07-.11.19l.26.56c.0267.057.0691.1051.1222.1388.0532.0337.1148.0514.1778.0512h9.56zm.75 1.09c-.0267-.057-.0692-.1051-.1223-.1388-.0532-.0337-.1148-.0514-.1777-.0512h-9.56c-.11 0-.19.07-.11.19l.26.56c.0267.057.0691.1051.1222.1388.0532.0337.1148.0514.1778.0512h9.56c.11 0 .19-.07.11-.19l-.26-.56zm.9 1.87c-.0267-.057-.0692-.1051-.1223-.1388-.0532-.0337-.1148-.0514-.1777-.0512h-9.6c-.11 0-.19.07-.11.19l.26.56c.0267.057.0691.1051.1222.1388.0532.0337.1148.0514.1778.0512h9.56c.11 0 .19-.07.11-.19l-.22-.56zm.87 1.88c-.0267-.057-.0692-.1051-.1223-.1388-.0532-.0337-.1148-.0514-.1777-.0512h-9.56c-.11 0-.19.07-.11.19l.26.56c.0267.057.0691.1051.1222.1388.0532.0337.1148.0514.1778.0512h9.56c.11 0 .19-.07.11-.19l-.26-.56zm.9 1.84c-.0267-.057-.0692-.1051-.1223-.1388-.0532-.0337-.1148-.0514-.1777-.0512h-9.6c-.11 0-.19.07-.11.19l.26.56c.0267.057.0691.1051.1222.1388.0532.0337.1148.0514.1778.0512h9.55c.11 0 .19-.07.11-.19l-.21-.56zm.9 1.87c-.0267-.057-.0692-.1051-.1223-.1388-.0532-.0337-.1148-.0514-.1777-.0512h-9.6c-.11 0-.19.07-.11.19l.26.56c.0267.057.0691.1051.1222.1388.0532.0337.1148.0514.1778.0512h9.56c.11 0 .19-.07.11-.19l-.22-.56zm.86 1.84c-.0267-.057-.0692-.1051-.1223-.1388-.0532-.0337-.1148-.0514-.1777-.0512h-9.56c-.11 0-.19.07-.11.19l.26.56c.0267.057.0691.1051.1222.1388.0532.0337.1148.0514.1778.0512h9.56c.11 0 .19-.07.11-.19l-.26-.56z"/>
		<path d="M42.92 12.29c.0568-.0046.1101-.0292.1505-.0695.0403-.0403.0649-.0937.0695-.1505v-.49c-.0046-.0568-.0292-.1102-.0695-.1505-.0404-.0403-.0937-.0649-.1505-.0695H28.07c-.0568.0046-.1102.0292-.1505.0695-.0403.0403-.065.0937-.0695.1505v.49c.0045.0568.0292.1102.0695.1505.0403.0403.0937.0649.1505.0695h14.85zm-6.34 13.94c-.11 0-.19.07-.11.19l6 12.52c.0093.0214.0247.0396.0442.0524.0196.0128.0424.0196.0658.0196.0233 0 .0462-.0068.0657-.0196.0196-.0128.0349-.031.0443-.0524l5.51-11.62c.0267-.057.0691-.1051.1222-.1388.0532-.0337.1149-.0514.1778-.0512h8.92c.0568-.0046.1101-.0292.1505-.0695.0403-.0403.0649-.0937.0695-.1505v-.49c-.0046-.0568-.0292-.1102-.0695-.1505-.0404-.0403-.0937-.0649-.1505-.0695l-20.84.03zM57.5 11.35h-7.64c-.0568.0046-.1102.0292-.1505.0695-.0403.0403-.065.0937-.0695.1505v.49c.0045.0568.0292.1102.0695.1505.0403.0403.0937.0649.1505.0695H51c.3 0 1.91 0 1.27 1.91l-5.1 10.87c0 .11 0 .19.11.19H49c.0629.0002.1246-.0175.1777-.0512.0532-.0337.0956-.0818.1223-.1388l5.51-11.51c.1951-.4146.5082-.7624.9-1 .4451-.201.9325-.2902 1.42-.26h.34c.0568-.0046.1101-.0292.1505-.0695.0403-.0403.0649-.0937.0695-.1505v-.49c.0042-.0278.0025-.0563-.005-.0834-.0075-.0272-.0206-.0524-.0385-.0741-.018-.0217-.0403-.0394-.0655-.0519-.0253-.0125-.0529-.0195-.081-.0206z"/>
	</g>
	<path fill="#ED1B34" d="M55.37 25.3c.4574-.0099.9017-.1548 1.277-.4165.3753-.2618.6648-.6286.8322-1.0545.1673-.4258.205-.8917.1083-1.3389-.0968-.4472-.3236-.8558-.6519-1.1745-.3284-.3186-.7436-.533-1.1935-.6163-.4499-.0833-.9144-.0317-1.335.1484-.4207.18-.7787.4804-1.0291.8633-.2503.383-.3819.8315-.378 1.289.0105.6189.2658 1.2084.71 1.6394.4442.4311 1.041.6686 1.66.6606z"/>
</svg>
