<svg xmlns="http://www.w3.org/2000/svg" viewBox="0 0 200 50">
	<path fill="#009FDF" d="M79 9.73H55.15L56.88 5H80.7L79 9.73zm-.85 2.35H54.3l-1.72 4.72H76.4l1.75-4.72zm-2.58 7.05H51.73L50 23.85h23.8l1.77-4.72z"/>
	<path fill="#0A2973" d="M135.73 35.65H140c.61.0768 1.23 0 1.803-.2236.572-.2235 1.08-.5866 1.477-1.0564.596-.7691.891-1.729.83-2.7.036-.6183-.08-1.2361-.338-1.7992-.258-.5631-.65-1.0543-1.142-1.4308-.799-.5205-1.749-.7598-2.7-.68h-4.25v7.88l.05.01zm-5.63 4.75V12.08h18.43l-1.63 4.75h-11.17v6.27h4.55c3.68 0 5.58.88 6.9 2 .943.839 1.684 1.8798 2.169 3.045.485 1.1653.701 2.4249.631 3.685.069 1.3514-.199 2.6987-.781 3.9207-.581 1.2219-1.457 2.2801-2.549 3.0793-1.78 1.23-3.63 1.58-7.4 1.58l-9.15-.01zm-16.33 0V16.83h-8.2v-4.75h22.75l-1.63 4.75h-7.25v23.6h-5.68l.01-.03zm-22.7-17h3.23c.6704.0559 1.3455.0053 2-.15.6704-.2166 1.2478-.6536 1.6382-1.2401.3904-.5865.5708-1.2878.5118-1.9899.0919-.6976-.0766-1.4045-.4733-1.9857-.3966-.5811-.9936-.9956-1.6767-1.1643-.7038-.1667-1.4275-.234-2.15-.2h-3v6.73h-.08zm0 4.9v7.43H95c1.0693.1168 2.1428-.1802 3-.83.4027-.3645.72-.8135.9291-1.3148.2092-.5013.3051-1.0426.2809-1.5852.021-.87-.2423-1.7232-.75-2.43-.83-1.08-1.88-1.28-3.63-1.28h-3.75l-.01.01zm9.08-3v.1c.965.3916 1.862.9315 2.66 1.6.81.6701 1.449 1.5223 1.866 2.4869.417.9646.6 2.0143.534 3.0631 0 3.88-2.05 6.68-5.43 7.5-1.3499.3336-2.7412.4683-4.13.4h-10.2V12.08h9.08c1.4446-.0542 2.8902.0802 4.3.4 3.28.88 5.43 3.15 5.43 6.73.028.8487-.118 1.6942-.427 2.4851-.31.7908-.777 1.5103-1.373 2.1149-.635.6448-1.393 1.155-2.23 1.5h-.08v-.01z"/>
</svg>
