<svg xmlns="http://www.w3.org/2000/svg" viewBox="0 0 200 50">
	<path fill="#067941" d="M73.0732 11.9918c2.3511-.6642 4.798-.9577 7.2387-.9886 2.0422-.0186 4.0999.0339 6.108.4418 1.2019.2348 2.4253.6673 3.2904 1.5725.9917.9269 1.2296 2.3635 1.208 3.6611-.0154 1.2575-.4047 2.6169-1.4181 3.4356-.6055.4789-1.3099.8404-2.0669.9979-.0062.0371-.0154.1143-.0216.1514 1.6313.3151 3.3058 1.0783 4.2079 2.5396.7045 1.2327.8188 2.7095.7137 4.0967-.1019 1.3687-.6581 2.7435-1.7085 3.6549-.9701.8589-2.2306 1.2915-3.4757 1.5726-1.5571.3306-3.1513.4449-4.7394.4943-3.2254.1514-6.4818-.1452-9.5961-1.0133.2039-1.4861.5469-2.9536.791-4.4335.3738.0185.7507.0463 1.1184.1359 1.9217.4387 3.8742.8373 5.8546.8064 1.0474.0093 2.1226-.0463 3.1205-.4078.5808-.2225 1.1987-.6117 1.3501-1.2605.1977-.8002.1328-1.7549-.4511-2.3883-.5685-.6364-1.4335-.8774-2.2492-.9979-1.9804-.3028-3.9947-.1297-5.9906-.1915.0062-1.2729.0217-2.5427-.0123-3.8125 1.6714-.0093 3.3429.034 5.0143-.0433.8094-.0803 1.7147-.2873 2.2152-.9917.7229-.9269.5005-2.6107-.6612-3.0803-.6797-.3367-1.4613-.3954-2.209-.3985-2.243-.0433-4.4427.4572-6.6332.8743-.3522-1.4737-.587-2.9721-.9979-4.4273zm34.9978-.7322c3.686.0247 7.375.0093 11.061.0062.006.9639-.006 1.9278.006 2.8918-2.743-.0155-5.49-.0093-8.233-.0031-.004 1.9248-.01 3.8526 0 5.7805 1.501.0031 3.003-.0062 4.504.0031 1.458.0402 3.019.4727 3.973 1.6498 1.091 1.3161 1.298 3.0957 1.307 4.7424.019 1.5263-.077 3.1297-.778 4.5139-.547 1.0257-1.508 1.829-2.624 2.1657-.775.241-1.594.309-2.4.3028-2.274 0-4.548-.0031-6.819 0 .013-7.35.006-14.7.003-22.0531zm2.821 11.3108c.009 2.6817.019 5.3603-.003 8.042 1.248.0248 2.493.0248 3.741.0093.881-.0371 1.876-.1854 2.469-.9114.738-.8558.806-2.0484.813-3.1235.006-1.103-.112-2.3264-.89-3.1792-.664-.6704-1.635-.8249-2.537-.8249-1.195-.0092-2.394.0093-3.593-.0123zm42.395-11.3077c.924.0185 1.85.0154 2.777-.0031.047 5.1966.01 10.3963.022 15.5929-.012 2.1565.025 4.3099-.019 6.4633-.923-.0031-1.85-.0093-2.774.0031-.04-3.5345-.016-7.072-.012-10.6064-3.05 0-6.102.0062-9.152-.0031.025 3.2965 0 6.5962.016 9.8927 0 .2441-.047.4851-.084.726-.917-.0247-1.835 0-2.752-.0154.006-7.3438-.019-14.6907.012-22.0346.933-.0031 1.869-.0031 2.802.0031.043 2.9598-.015 5.9196.031 8.8763 3.046-.0124 6.09 0 9.136-.0031-.031-2.9691-.025-5.9319-.003-8.8917zm6.93 0c.93.0123 1.863.0185 2.793 0 .098 3.2502-.044 6.5065.071 9.7567.516-.1884.766-.7013 1.103-1.0968 1.785-2.2553 3.602-4.486 5.385-6.7475.525-.621.976-1.31 1.563-1.8753 1.094-.068 2.193-.0031 3.29-.0155-.661 1.0381-1.529 1.9186-2.295 2.8795-1.113 1.2821-2.144 2.6353-3.263 3.9113-.89 1.1246-1.866 2.1812-2.74 3.3182.979 1.3346 1.915 2.7033 2.873 4.0534 1.526 2.0422 2.932 4.1709 4.449 6.2224.383.5437.729 1.1153 1.18 1.6096-1.103.0494-2.212.0494-3.312.0124-.587-.723-1.078-1.5201-1.631-2.2678-1.814-2.5766-3.664-5.1317-5.469-7.7176-.268-.3769-.528-.76-.821-1.1215-.084-.0031-.251-.0062-.331-.0093-.052 2.5118-.006 5.0267-.022 7.5416-.018 1.1987.05 2.4005-.049 3.5993-.921-.0186-1.841-.0031-2.762-.0093-.028-7.3438-.009-14.6938-.012-22.0438zm-134.8401.0278c3.8743.0062 7.7486.0031 11.6229 0 1.6714.0278 3.4324.1576 4.9092 1.0164 1.1926.6828 1.9681 1.9712 2.1256 3.3244.1854 1.4057.0989 2.9783-.8033 4.14-.4974.7229-1.2852 1.1802-2.0916 1.4768.7446.2595 1.5139.5128 2.1318 1.0195 1.2389.9392 1.7796 2.5489 1.7796 4.0597.0834 1.5138-.0927 3.108-.862 4.4396-.7353 1.2451-2.1225 1.9495-3.4943 2.2492-1.0782.2688-2.1997.312-3.3089.3059-3.9885.0092-7.9771-.0062-11.9657.0092-.0155-.2904-.034-.5777-.0402-.865-.0031-7.0596.0155-14.1192-.0031-21.1757zm6.9268 4.0473c0 1.5324-.0062 3.0648.003 4.5972 1.0474-.0154 2.0978.0278 3.1421-.0185 1.0628-.0371 1.9093-1.035 1.968-2.0608.034-.6796-.0587-1.4459-.5592-1.9525-.4387-.4357-1.0813-.5747-1.6807-.5716-.9546.0031-1.9124.0031-2.8732.0062zm.003 8.6352c-.0061 1.7796-.0092 3.5623.0031 5.3418 1.001-.0061 2.0021.0031 3.0031-.0031.5036-.0185 1.0226-.0092 1.4953-.2039 1.5942-.5252 2.0391-2.7836 1.0906-4.0565-.5005-.7631-1.449-1.0937-2.3295-1.0906-1.0875.0185-2.175 0-3.2626.0123zm14.5178-12.6763c2.7404-.0155 5.4777.0092 8.2212-.0124 1.6004 4.1462 3.0494 8.351 4.5818 12.525.0556-.0031.1699-.0124.2255-.0186 1.205-4.177 2.6076-8.2954 3.8125-12.4693 2.4531-.068 4.9093-.0124 7.3655-.0278-.1638.7971-.5376 1.5262-.8249 2.2801-1.8383 4.7795-3.7013 9.5466-5.5457 14.3199-.7724 2.0484-2.4006 3.7291-4.3779 4.6467-1.3934.689-2.9443 1.0134-4.4891 1.0999-2.7281.068-5.453-.2626-8.1255-.7879.4449-1.4489.8774-2.9041 1.2018-4.384 1.3347.2966 2.6725.6735 4.0535.6673 1.1617.0186 2.3975.0186 3.4479-.5437.5129-.2503.8435-.7322 1.1895-1.1648-1.5942-.1606-3.1853-.7785-4.3223-1.9371-.7723-.7631-1.0906-1.829-1.5169-2.796-1.4923-3.3985-2.9598-6.8032-4.4304-10.2079-.1792-.3892-.3491-.7785-.4665-1.1894zm82.0915-.0371c1.107.0371 2.216-.0185 3.325.034.046.0278.136.0865.182.1174 1.427 5.1626 2.92 10.3128 4.341 15.4785.655 2.1287 1.192 4.2883 1.832 6.4201-.998 0-1.996 0-2.997.0031-.426-1.7332-.939-3.4418-1.365-5.175-.075-.278-.127-.5685-.291-.8094-2.24-.0186-4.477.0123-6.716-.0124-.628 1.9711-1.097 3.9886-1.626 5.9875-.994.0124-1.989.0155-2.984 0 1.325-4.6837 2.648-9.3705 3.985-14.0512.776-2.6632 1.483-5.348 2.314-7.9926zm1.128 5.2429c-.763 2.7312-1.557 5.4562-2.286 8.1966 1.909.0432 3.815-.0093 5.725.0247-.998-3.417-1.845-6.8773-2.818-10.3036-.269.6735-.439 1.381-.621 2.0823zm-31.6614 3.1514c.7384-.2318 1.5695-.2009 2.2704.1328 1.017.4603 1.771 1.4953 1.823 2.6199.04 1.0103-.358 2.0824-1.186 2.6972-.806.6457-1.9434.8125-2.9197.5129-1.0999-.3708-1.9959-1.3749-2.1318-2.5396-.2317-1.4645.726-2.9938 2.1441-3.4232zM25 37.0634c5.2182-.068 10.4364-.0093 15.6547-.0278H164.721c3.426.0185 6.853-.0433 10.279.0309-.08.794-.043 1.5911-.043 2.3882-12.022.0247-24.046.0031-36.067.0093-37.965-.0093-75.9258.0092-113.89-.0093v-2.3913z"/>
</svg>
