<svg xmlns="http://www.w3.org/2000/svg" viewBox="0 0 200 50">
	<linearGradient id="gr" x1="20" x2="180" y2="0" gradientUnits="userSpaceOnUse">
		<stop stop-color="#CB11AB"/>
		<stop offset=".5" stop-color="#909"/>
		<stop offset="1" stop-color="#481173"/>
	</linearGradient>
	<path fill="url(#gr)" d="m38.0001 30.4116-4.0358-14.0849-2.9863-.0012-4.0219 14.0117-3.7526-14.0105H20l4.8839 18.2412 3.6836-.0033 3.9047-13.626 3.9015 13.6223 3.7131.0041 4.8862-18.2395-3.2037.0047-3.7692 14.0814Zm9.1825-14.0753h3.0497v18.2202h-3.0497V16.3363Zm9.5697 0h-2.9866v18.2202h10.4107v-2.8581h-7.4241V16.3363Zm16.8045 0H66.385v18.2202h7.1718c2.5029 0 4.5851-.8827 6.2256-2.6271 1.6615-1.765 2.503-3.9297 2.503-6.4725 0-2.5639-.8415-4.7284-2.503-6.4727-1.6405-1.7442-3.7227-2.6479-6.2256-2.6479Zm4.1854 13.6178c-1.0514 1.177-2.4606 1.7653-4.1854 1.7653h-4.1641v-12.483h4.1641c1.7038 0 3.113.5884 4.1854 1.7652 1.0938 1.1769 1.6405 2.648 1.6405 4.4763 0 1.7863-.5467 3.2995-1.6405 4.4762Zm18.0666-4.8499c1.2202-.9042 1.8509-2.1236 1.8509-3.7216 0-1.4298-.5048-2.6283-1.5562-3.5955-1.0308-.9462-2.2926-1.4508-3.7857-1.4508h-7.2351v18.2294h7.8028c1.5565 0 2.8183-.5043 3.8907-1.4927 1.0728-.9881 1.5986-2.2289 1.5986-3.7216-.0001-1.8924-.9675-3.4062-2.566-4.2472Zm-7.7185-5.9504h4.2485c1.3248 0 2.3346 1.0513 2.3346 2.397 0 1.3456-1.0098 2.3969-2.3346 2.3969h-4.2485v-4.7939Zm4.8162 12.6158h-4.8162v-5.1095h4.8162c1.3881 0 2.4819 1.1145 2.4819 2.5443 0 1.4297-1.0938 2.5652-2.4819 2.5652ZM104.2 26.7652h7.298v-2.8385H104.2v-4.7308h7.951v-2.8596h-10.937v18.2294h11.063v-2.8595H104.2v-4.941Zm23.935-4.5627c0-1.64-.589-3.0277-1.725-4.142-1.114-1.1565-2.503-1.7242-4.143-1.7242h-7.298v18.2294h2.986v-6.6441h3.534l3.87 6.6441h3.302l-4.144-7.0855c2.167-.8412 3.618-2.9648 3.618-5.2777Zm-5.889 3.0488h-4.291v-6.0975h4.291c1.577 0 2.86 1.3667 2.86 3.0487 0 1.7031-1.262 3.0488-2.86 3.0488Zm21.873-3.0553c0-1.6408-.589-3.0292-1.724-4.1442-1.115-1.157-2.503-1.725-4.144-1.725h-7.298v18.2389h2.987v-6.6475h3.533l3.849 6.6475h3.323l-4.143-7.0895c2.166-.8413 3.617-2.9661 3.617-5.2802Zm-5.889 3.0504h-4.29v-6.1007h4.29c1.578 0 2.861 1.3674 2.861 3.0503 0 1.7041-1.262 3.0504-2.861 3.0504Zm8.602-8.9176h2.987v18.2369h-2.987V16.3288Zm9.507 10.4364h7.298v-2.8385h-7.298v-4.7308h7.95v-2.8596h-10.937v18.2294h11.063v-2.8595h-8.076v-4.941Zm21.789-.9512c-.273-.2311-.736-.5043-1.325-.7355-.568-.2311-1.009-.4203-1.346-.5254-.316-.126-.82-.2941-1.514-.5253-2.798-.8616-3.681-1.4921-3.681-2.837 0-1.3871 1.115-2.2697 2.861-2.2697 1.787 0 3.07.8616 3.827 2.5428l2.524-1.45C178.296 17.5131 176.046 16 173.123 16c-1.62 0-3.008.4624-4.144 1.429-1.157.9457-1.724 2.2066-1.724 3.8248 0 1.6392.588 2.837 1.766 3.6776 1.22.7986 2.082 1.1349 3.828 1.6602 1.556.4624 2.65.9037 3.239 1.3031.589.3783.904.9247.904 1.681 0 1.429-1.114 2.3957-3.386 2.3957-2.292 0-3.786-1.0087-4.522-3.0681l-2.587 1.5131c.947 2.7951 3.513 4.4761 7.046 4.4971 1.935 0 3.491-.4623 4.669-1.429 1.199-.9667 1.788-2.2904 1.788-3.9298 0-1.7776-.904-2.9841-1.872-3.7407Z"/>
</svg>