<svg xmlns="http://www.w3.org/2000/svg" viewBox="0 0 200 50">
	<path fill="#0062AC" d="m70.1282 17.1433-4.0598.0146-3.5755 9.5874-1.1454-9.57-3.261.0117-4.742 9.5911.0222-9.5744-4.0608.0139-.008 16.7174 3.9643-.0131 5.0533-9.4338 1.4654 9.409 3.9658-.0116 6.3815-16.7422Zm7.4856 8.3875c-.9655 5.0744-2.7491 5.0824-3.3341 5.0824-.5869.0051-2.3647.0117-1.4032-5.0664.9645-5.0773 2.747-5.0824 3.3331-5.0846.5862-.0029 2.3687-.0058 1.4042 5.0686Zm4.4231-.016c1.3471-7.0863-2.0643-8.5615-5.1629-8.5499-3.0971.0087-7.0739 1.5145-8.4187 8.5986-1.3467 7.0849 2.0624 8.5593 5.1588 8.5506 3.0983-.0131 7.0732-1.5131 8.4228-8.5993Zm10.3036.016c-.9655 5.0744-2.7476 5.0824-3.3349 5.0846-.5858.0029-2.3665.0095-1.402-5.0686.9633-5.0766 2.7469-5.0824 3.3319-5.0846.5862-.0029 2.3683-.0058 1.405 5.0686Zm4.4216-.016c1.346-7.0863-2.0632-8.5615-5.1614-8.5499-3.0971.0087-7.071 1.516-8.421 8.5986-1.3456 7.0849 2.0654 8.5593 5.1604 8.5506 3.0982-.0116 7.0732-1.5131 8.422-8.5993Zm5.6149-.3182.921-4.7985c.175 0 .391-.0226.627-.0473 1.203-.1282 2.931-.3117 2.562 2.2121-.44 3.0203-4.11 2.6337-4.11 2.6337Zm5.822 4.0921c-.099-.6073-.292-1.4563-1.213-1.9216 2.028-1.1373 3.367-3.3516 3.367-6.2154 0-4.2378-5.067-3.8183-5.067-3.8183h-5.254l-3.5065 16.5317h3.9195l1.15-5.6504h1.53c.47.0837 1.118.3633 1.207 1.2903.151 1.4883.377 4.43.377 4.43h3.939s-.106-1.2284-.218-2.432c-.091-.9786-.187-1.9412-.231-2.2143Zm5.32-11.7726-3.166 16.4189 4.377-.0109 3.165-16.4233-4.376.0153Zm63.323 7.4343L185 17.2372h-5.118l-6.328 6.0691 1.205-6.0691h-4.471l-3.296 16.6046h4.469l1.364-6.8861 3.95 6.8861h5.436l-5.369-8.8914Zm-46.726-4.5195c1.883-.0088 1.99.3713 1.78 1.4613-.205 1.0711-.563 1.4272-1.749 1.5058h-3.075l.561-2.9671h2.483Zm-1.228 6.3086c2.82-.0124 2.569 1.2954 2.434 2.0031-.208 1.0966-.723 1.7738-2.618 1.8866v.0073h-.094l-.235.0066-.218.0014-.189.0044v-.0117h-2.238l.732-3.8977h2.426Zm5.174-1.9376c1.056-.8162 1.729-1.9478 1.995-3.3706.531-2.8062-1.067-4.4744-4.273-4.4664l-7.677.0182-3.23 17.131 7.673-.0175c3.887-.0116 6.186-1.7482 6.828-5.1516.359-1.8982-.11-3.3421-1.316-4.1431Zm11.444 2.622-3.147-.0072 2.539-4.9747.608 4.9819Zm2.278-10.459h-3.934l-9.602 16.8769h4.528l1.782-3.2177 5.217.0372.369 3.1805h4.202l-2.562-16.8769Zm20.298 0h-3.883l-1.744 9.6472-3.503-9.6472h-4.255l-3.259 16.8769 3.948-.1012 1.93-10.2159 3.521 10.3171h3.986l3.259-16.8769Z"/>
	<path fill="#1273B8" d="M17.2236 32.3078c1.7352 2.6665 4.367 4.6951 7.4678 5.6599 1.2957.4033 2.6738.6203 4.102.6203 5.208 0 9.7422-2.8863 12.0897-7.1467.0736-.1369.1445-.2752.213-.415-3.273-.8614-7.6022-1.3857-12.35-1.3857-4.7024 0-8.9937.5148-12.2554 1.3617.2199.4492.4649.8854.7329 1.3055Z"/>
	<path fill="#D9D9D9" d="M41.099 31.0326c-.0092.0182-.0185.0365-.0279.0546-3.2915-.8832-7.6065-1.4184-12.3318-1.4184-4.6801 0-8.9576.5257-12.2371 1.393-.217-.4246-.4126-.862-.5855-1.3107-.5779-1.5004-.901-3.1275-.9167-4.8276.0695-7.6913 6.2019-13.9068 13.7626-13.9235h.0306c.9524 0 1.8822.0968 2.78.2803 6.2453 1.302 10.9524 6.9094 11.0132 13.6432-.0159 1.7249-.3484 3.3745-.9423 4.8931h.0001c-.1624.4158-.3444.8214-.545 1.216h-.0002Z"/>
    <radialGradient id="gr" cx="0" cy="0" r="1" gradientTransform="matrix(0 -34.6712 35.0559 0 28.7932 38.5878)" gradientUnits="userSpaceOnUse">
		<stop offset=".42429" stop-color="#fff"/>
		<stop offset=".500886" stop-color="#09ABE0"/>
		<stop offset=".587553" stop-color="#007CC2"/>
    </radialGradient>
	<path fill="url(#gr)" d="M41.099 31.0326c-.0092.0182-.0185.0365-.0279.0546-3.2915-.8832-7.6065-1.4184-12.3318-1.4184-4.6801 0-8.9576.5257-12.2371 1.393-.217-.4246-.4126-.862-.5855-1.3107-.5779-1.5004-.901-3.1275-.9167-4.8276.0695-7.6913 6.2019-13.9068 13.7626-13.9235h.0306c.9524 0 1.8822.0968 2.78.2803 6.2453 1.302 10.9524 6.9094 11.0132 13.6432-.0159 1.7249-.3484 3.3745-.9423 4.8931h.0001c-.1624.4158-.3444.8214-.545 1.216h-.0002Z"/>
</svg>