<svg viewBox="0 0 200 50" xmlns="http://www.w3.org/2000/svg">
	<path fill="red" d="M134.392 34.1549c-.024-.0241-.044-2.8088-.044-6.1886 0-5.5448.01-6.1488.101-6.1835.199-.0763 2.411-.0429 2.491.0376.046.0452.077.2639.077.54 0 .5479.047.5715.413.2048.35-.351.775-.6138 1.285-.7935.516-.1824 1.462-.2089 2.097-.0593 1.498.3531 2.63 1.5342 3.074 3.2082.192.7208.207 2.2092.03 2.8906-.424 1.6293-1.453 2.7725-2.897 3.2178-.696.2146-1.754.2056-2.389-.0204-.475-.1692-1.038-.5085-1.293-.7804-.314-.3351-.317-.3197-.335 1.8868l-.017 2.0489-1.275.0172c-.701.0095-1.294-.0024-1.318-.0262Zm5.71-5.4834c1.727-.85 1.701-3.658-.042-4.5866-.237-.1257-.372-.1487-.883-.1487-.689 0-.942.0974-1.437.5532-1.131 1.0429-.94 3.3461.341 4.0968.667.3913 1.342.4196 2.021.0853Zm-62.574 2.4387c-1.7343-.3894-2.6256-1.8267-2.2248-3.5886.1858-.8171.8246-1.5231 1.6661-1.8421.9153-.3468 2.6065-.4108 3.6148-.1368.252.0683.4735.109.4923.09.0882-.0882.0217-.5893-.1122-.845-.4206-.8034-1.7373-1.035-3.3792-.594-1.0149.2724-.9032.3402-1.2622-.7626-.3086-.9471-.3089-.9498-.1794-1.0546.2107-.1707 1.2981-.5013 1.9985-.608.8248-.1255 2.4371-.0903 2.9962.0654 1.0308.2872 1.7518.8581 2.1629 1.7129.3942.8195.4185 1.0906.3997 4.455l-.0167 2.9859-1.22.0172c-1.3796.0196-1.3487.0307-1.3415-.4855.0021-.1477-.0109-.2832-.0289-.3012-.018-.018-.1286.0503-.2456.1519-.3039.2631-.7235.4921-1.1817.6451-.5439.1816-1.5533.2263-2.1383.095Zm2.488-1.9151c.4182-.1319.8778-.5181 1.039-.8733.0693-.1525.117-.4061.118-.6252.0014-.3598-.0037-.3706-.2152-.459-.8624-.3603-2.2084-.3079-2.7354.1066-.3934.3095-.5218.9583-.2761 1.3953.2919.5199 1.2192.7237 2.0697.4556Zm36.336 1.9225c-1.298-.2279-2.238-.6504-3.159-1.4204-.537-.4489-.554-.4839-.37-.7422.423-.5951 1.15-1.5041 1.227-1.5332.047-.0183.288.1202.534.3079.839.6392 1.835 1.0159 2.91 1.0998 1.277.0998 2.189-.3454 2.372-1.1581.115-.5061-.198-1.063-.74-1.3203-.38-.1803-1.144-.287-2.056-.287-.742 0-.884-.0156-.916-.1006-.021-.0553-.039-.5418-.039-1.0815 0-.9591.003-.9824.143-1.0353.079-.0299.543-.0585 1.033-.0635.986-.0104 1.431-.0972 1.822-.3558.656-.4341.652-1.4739-.007-1.9099-.376-.249-.785-.3451-1.466-.3451-1.057 0-1.931.2922-2.685.8981-.215.1723-.434.3047-.487.2944-.138-.0265-1.331-1.4543-1.335-1.5967-.002-.0649.132-.2438.298-.3974.662-.6125 1.664-1.1628 2.53-1.3891 1.016-.2655 2.668-.2833 3.583-.0384 1.145.3065 2.035.9688 2.462 1.8323.214.433.239.536.261 1.1006.031.7658-.123 1.3521-.477 1.8154-.27.3539-.369.4444-.862.7883-.201.14-.366.2673-.366.2829 0 .0157.15.1038.334.1962 1.144.5752 1.699 1.4434 1.699 2.6566 0 1.6044-1.075 2.8855-2.86 3.407-.398.1162-.671.1421-1.682.1601-.825.0149-1.363-.0058-1.701-.0651Zm9.775.0294c-1.163-.2107-2.03-.9246-2.333-1.9191-.111-.3677-.13-.5562-.105-1.0946.024-.5598.056-.7094.226-1.0733.352-.7518 1.027-1.273 1.999-1.5449.768-.2146 2.43-.1781 3.299.0726.163.0468.313.0685.334.0481.077-.0775.03-.5024-.084-.7467-.157-.3394-.483-.6387-.832-.7647-.652-.2354-1.8-.1808-2.881.1366-.473.1387-.576.1514-.646.0791-.148-.1543-.627-1.7799-.557-1.8919.081-.1307.657-.36 1.414-.5625.551-.1474.722-.1625 1.908-.1675 1.196-.005 1.341.0066 1.779.1432 1.029.3211 1.671.8174 2.061 1.5925.445.8833.446.8899.447 4.3893l.001 3.1447-1.234.0172c-.945.0133-1.247-.0016-1.286-.0635-.028-.0445-.051-.2118-.052-.3719 0-.1602-.019-.3097-.042-.3322-.022-.0225-.138.0445-.256.1487-.268.2346-.828.5215-1.291.6605-.417.1249-1.432.1797-1.869.1003Zm2.536-2.025c.632-.2835.939-.7383.947-1.4032l.006-.41-.294-.1101c-.48-.1798-1.25-.26-1.741-.1816-.879.1403-1.301.5315-1.301 1.2068 0 .5106.222.8158.731 1.0058.32.1202 1.284.0572 1.652-.1077Zm19.984 1.9628c-.26-.0638-.743-.2531-1.074-.4206-1.054-.5339-1.848-1.4641-2.202-2.5817-.841-2.6518.417-5.4241 2.833-6.2418.442-.1492.672-.1855 1.334-.2093 1.208-.0434 2.059.2022 2.898.8372.701.531 1.245 1.403 1.554 2.4904.117.4116.143.6665.145 1.4228l.003.9212-3.131.0164c-2.585.0135-3.137.0317-3.164.1037-.048.1234.125.5075.391.8693.167.2287.336.3627.649.5173.797.3925 1.935.3009 2.708-.2176.171-.1149.391-.2608.489-.324l.177-.1149.369.3375c.203.1855.519.4635.702.6173.184.1538.334.329.334.3891 0 .0601-.2.2981-.444.5284-.52.4897-1.353.9243-2.078 1.0839-.634.1393-1.875.1271-2.493-.0246Zm2.874-5.6742c-.017-.2494-.312-.8691-.515-1.0835-.311-.3274-.684-.5016-1.145-.5344-.961-.068-1.609.3801-1.982 1.3706-.07.1861-.111.3651-.09.3982.022.0357.781.0529 1.89.0428l1.854-.0169-.012-.1768Zm27.303 5.734c-.989-.207-1.664-.5739-2.39-1.2984-.674-.6728-1.018-1.2896-1.241-2.2256-.179-.7507-.147-1.9787.069-2.6682.523-1.6637 1.678-2.817 3.215-3.2101.596-.1525 1.629-.1663 2.28-.0299 1.561.3266 2.767 1.575 3.212 3.3263.155.6109.237 1.9572.13 2.1563l-.075.14h-6.221v.1464c0 .2395.306.7816.583 1.0321.457.4132.744.505 1.577.505.689 0 .754-.0114 1.158-.2025.235-.1114.56-.3036.722-.4272.221-.1694.321-.2105.403-.1665.193.1029 1.402 1.2189 1.402 1.2936 0 .1271-.79.8285-1.212 1.0768-.225.1318-.637.3148-.917.4061-.438.1434-.638.1689-1.461.1858-.524.0101-1.08-.0077-1.234-.04Zm2.637-5.7912c-.067-.4217-.41-1.0014-.724-1.2229-.374-.2653-.611-.3428-1.065-.3484-.77-.0095-1.338.3394-1.676 1.0302-.106.2168-.211.4874-.233.6009l-.04.2065H181.504l-.043-.2663ZM64.1233 30.9665c-.0484-.0781-.0524-11.88-.0039-11.9581.0587-.095 9.0693-.0786 9.1649.0167.1149.1149.1067 2.2336-.009 2.3294-.0596.0495-1.0517.0757-3.2877.0871l-3.2024.0164-.0177.9206c-.0156.8103-.0045.9302.0916 1.0006.0818.0598.5762.08 1.9739.08 2.1396 0 2.5226.0508 3.3726.4478.9259.4326 1.5623 1.2076 1.8336 2.2334.1385.5236.1382 1.5975-.0002 2.1293-.2634 1.0103-.9024 1.7873-1.8353 2.2317-1.0127.4826-.9524.4759-4.6977.5016-2.0583.0148-3.3596.0005-3.3827-.0365Zm5.9522-2.426c.7719-.1118 1.1732-.422 1.3161-1.0176.1533-.6384-.0802-1.3023-.5503-1.5649-.1345-.0752-.414-.1678-.6215-.2057-.5347-.0979-3.2911-.0924-3.3904.0072-.0545.0545-.0762.4539-.0762 1.3944 0 1.1886.0108 1.3246.1112 1.3831.1442.0837 2.6367.0863 3.2111.0035Zm15.8392 2.3797c-.0214-.0559-.0392-2.1092-.0392-4.5628 0-3.3848.0183-4.4793.0763-4.537.0804-.0805 2.2929-.1139 2.4914-.0376.0881.0339.1006.244.1014 1.6994.0005.9135.0241 1.697.0521 1.7412.0395.0622.423.0768 1.6984.0636l1.6472-.017.017-1.6782c.0111-1.1083.0407-1.7071.0871-1.763.054-.0651.3446-.0844 1.2536-.0836.6509.0005 1.2195.0238 1.2635.0519.063.0399.0804 1.0074.0823 4.5746.0013 2.4883-.0151 4.5516-.0363 4.5858-.063.1022-2.4774.0807-2.5631-.0225-.0464-.0559-.076-.6464-.0871-1.7312l-.017-1.6465h-3.367l-.0318 1.7153-.0317 1.7153-1.2791.0172c-1.1245.0149-1.2836.0045-1.318-.0849Zm10.9655.0243c-.1115-.1114-.1128-9.0127-.0014-9.1241.0805-.0805 2.2929-.1139 2.4914-.0376.0882.0339.1006.2525.1014 1.7947.0008 1.71.022 2.0419.1297 2.0419.0286 0 .7707-.8433 1.6477-1.8738.878-1.0308 1.65-1.9025 1.715-1.9377.07-.0368.684-.0638 1.46-.0638 1.124 0 1.346.0151 1.376.094.047.121.079.0805-1.804 2.2325-.988 1.129-1.596 1.8734-1.581 1.9356.013.0555.814 1.1602 1.78 2.4546.966 1.2944 1.756 2.3998 1.756 2.4559 0 .0911-.16.1025-1.457.1025-1.219 0-1.472-.0159-1.553-.0967-.053-.0532-.584-.8092-1.18-1.68-.597-.8709-1.115-1.6026-1.152-1.6256-.079-.0482-.311.1596-.779.6972l-.3274.3762-.0318 1.1485-.0317 1.1486-1.2407.0172c-.9114.013-1.2611-.0032-1.3182-.0601Zm64.1308.0339c-.024-.0241-.044-.6893-.045-1.4784 0-.7891-.026-1.4744-.057-1.5231-.046-.0731-.135-.0593-.523.0807-.656.2375-1.273.3547-1.865.3547-1.648 0-2.825-.7888-3.174-2.1269-.127-.4881-.145-4.3409-.021-4.465.085-.0853 2.377-.1104 2.505-.0276.05.0321.081.5657.1 1.6984.024 1.3796.046 1.6936.138 1.9051.232.5373.559.7319 1.229.7306.446-.0008.961-.1104 1.36-.2894.225-.1013.231-.113.274-.5498.024-.2453.037-1.1167.028-1.9363-.014-1.2388-.001-1.4998.075-1.5477.05-.0318.624-.0582 1.274-.0588.922-.0008 1.2.0183 1.256.0855.052.0628.067 1.3243.055 4.6218l-.016 4.5352-1.275.0172c-.701.0095-1.294-.0021-1.318-.0262Zm4.827-.0013c-.023-.0233-.042-2.0928-.042-4.599 0-4.0966.01-4.5606.1-4.5953.055-.0212.624-.0387 1.263-.0387.889 0 1.179.0199 1.233.0845.045.0545.076.5887.087 1.5088l.017 1.4244 1.397.0415c.971.0289 1.515.0731 1.779.1443.991.2666 1.723.8333 2.079 1.6084.173.3761.201.5156.226 1.1292.047 1.1213-.174 1.7542-.839 2.4141-.177.1752-.51.4106-.74.5228-.752.3671-1.05.3973-3.927.3973-1.425 0-2.61-.019-2.633-.0423Zm4.954-2.231c.507-.2631.678-1 .342-1.4725-.23-.3232-.514-.4069-1.478-.4355-.48-.0143-.944-.0079-1.032.0143l-.16.0403v.978c0 .7211.021.9877.079 1.0141.044.0199.509.0273 1.033.017.828-.0167.987-.0368 1.216-.1557Z" clip-rule="evenodd"/>
	<path fill="red" d="M16 7v36h36V7H16Zm10.5859 9.2266h5.1487v-1.1533h1.0835l1.2232-1.2232 1.2232 1.2232h1.0834v1.1533h5.1486v2.2243H26.5856v-2.2243h.0003Zm-1.4416 2.9658h17.794v.7414h-17.794v-.7414Zm2.9244 17.0526h-2.2243v-3.213c0-.6824-.4979-1.2357-1.112-1.2357-.6141 0-1.112.5533-1.112 1.2357v3.2127H21.396V29.572h6.6727v6.673Zm0-7.4144h-6.6729v-.7415h6.6727v.7415h.0002Zm11.2037 7.4144h-.7414v-7.4555c0-2.4795-2.0102-4.4896-4.4897-4.4896s-4.4897 2.0101-4.4897 4.4896v7.4555h-.7414v-7.4555c0-2.889 2.3421-5.2311 5.2311-5.2311s5.2311 2.3421 5.2311 5.2311v7.4555Zm7.4142 0h-2.2244v-3.213c0-.6824-.4979-1.2357-1.112-1.2357-.6141 0-1.112.5533-1.112 1.2357v3.2127h-2.2243V29.572h6.6727v6.673Zm0-7.4144h-6.6727v-.7415h6.6727v.7415Zm0-1.4827h-6.9234c-.3534-2.5194-2.7712-4.469-5.7015-4.469-2.9303 0-5.3479 1.9496-5.7013 4.469H21.396v-.7414h5.2311V20.675h14.8283v5.9312h5.2312v.7417Z"/>
</svg>