<svg viewBox="0 0 200 50" xmlns="http://www.w3.org/2000/svg">
	<path fill="#40406B" d="M20.377 31.1468l1.105-3.4642h-9.6464c-.4944.0227-.9611.235-1.303.5929-.3418.3579-.5326.8338-.5326 1.3287 0 .495.1908.9709.5326 1.3288.3419.3579.8086.5702 1.303.5929h8.3156c.0601-.1348.1359-.262.2258-.3791zm2.7302-8.5576h-9.4569c-.4944.0227-.961.235-1.3029.5929s-.5326.8338-.5326 1.3287c0 .495.1907.9709.5326 1.3288s.8085.5702 1.3029.5929h8.231l1.2259-3.8433zm1.6293-5.0894h-9.2754c-.4945.0227-.9611.2351-1.303.5929-.3419.3579-.5326.8338-.5326 1.3288 0 .4949.1907.9708.5326 1.3287s.8085.5702 1.303.5929h8.0655l1.2099-3.7828v-.0605zm4.4118 5.7629h9.2754c.4945-.0227.9611-.235 1.303-.5929.3418-.3579.5326-.8338.5326-1.3287 0-.495-.1908-.9709-.5326-1.3287-.3419-.3579-.8085-.5703-1.303-.5929h-8.0655l-1.2099 3.7827v.0605zm8.3156 5.0896H27.3578l.0282-.0605 1.2099-3.7788h4.5368c.6251-.0077 1.245.1136 1.8209.3565.576.2429 1.0956.602 1.5263 1.055.6295.6516.9822 1.5217.984 2.4278zm-2.1897 4.4885c-.6537.4077-1.4114.6178-2.1817.6049h-8.5576l.0282-.0605 1.2099-3.7828h11.3523c-.0438.6446-.2331 1.2709-.5537 1.8318-.3206.5608-.7642 1.0418-1.2974 1.4066zm10.2876-11.0821l-2.9358-.6735c.3471-1.1885 1.1365-2.1988 2.2059-2.8229 1.0151-.5682 2.1598-.8641 3.323-.859 1.3031-.0281 2.5822.3527 3.6578 1.0888.4845.3066.8823.7323 1.1555 1.2364.2732.504.4127 1.0697.4052 1.643.0028.8191-.2715 1.615-.7784 2.2584-.6194.7504-1.4705 1.2738-2.4196 1.4881.6697.2867 1.2504.7476 1.6816 1.3348.3794.5597.5753 1.2235.5606 1.8995-.0081.6297-.1624 1.2489-.4508 1.8088-.2883.5599-.7028 1.0451-1.2107 1.4174-1.1077.9007-2.6227 1.351-4.545 1.351-3.2262 0-5.1176-1.2394-5.6741-3.7182l2.9802-.9195c.1.5831.3993 1.1134.8469 1.5002.5164.4302 1.1757.6504 1.847.617.7699.0234 1.5288-.186 2.1777-.6009.2843-.1814.5164-.4337.6734-.7321.157-.2985.2335-.6327.2219-.9697.0081-.2815-.0558-.5603-.1857-.8102-.1298-.2498-.3213-.4623-.5563-.6174-.5485-.36-1.1954-.5404-1.8511-.5162-.2335.0003-.4667.0178-.6976.0524l.5525-2.6011c.3505.0712.7069.1091 1.0646.1129.6721.0292 1.3308-.1938 1.847-.6251.2217-.1771.4009-.4016.5244-.657s.1882-.5353.1894-.819c.0085-.2362-.0424-.4707-.1481-.6821-.1057-.2114-.2627-.3928-.4568-.5277-.4143-.297-.9139-.4513-1.4236-.4396-1.3577.0027-2.218.5968-2.581 1.7825zm19.7002 6.3879h-7.3558v.2662c-.0305.6423.1926 1.2708.6211 1.7502.1888.2128.4213.3823.6815.4971.2603.1149.5423.1723.8267.1683.9759 0 1.7368-.5041 2.2826-1.5123l2.6293.4396c-.4378.9749-1.1495 1.8016-2.0486 2.3793-.8657.5357-1.8654.8153-2.8834.8066-.6571.0257-1.3123-.0842-1.925-.3229-.6126-.2387-1.1695-.601-1.636-1.0644-.4651-.4872-.8267-1.0635-1.0631-1.6942-.2363-.6307-.3425-1.3028-.3121-1.9756-.0305-1.4236.3949-2.8196 1.2139-3.9844 1.1238-1.5674 2.7302-2.3525 4.8192-2.3552.586-.0284 1.1714.0668 1.7182.2794.5468.2126 1.0427.5379 1.4556.9547.7864.8065 1.1775 1.972 1.1775 3.4561.0087.6429-.059 1.2846-.2016 1.9115zm-2.4761-1.7905v-.2985c.0493-.6445-.1402-1.2847-.5324-1.7986-.1835-.2013-.409-.3599-.6606-.4644-.2516-.1045-.523-.1525-.7952-.1405-.6069.0078-1.1863.2541-1.6131.6856-.5313.5518-.8743 1.2577-.98 2.0164h4.5813zm6.4524-4.5531h3.5892l1.1251 7.5131 4.3635-7.5131h3.4884l-2.3229 10.8886h-2.4681l1.5285-7.1018-4.1336 7.0816h-2.456l-1.0243-7.2348-1.5567 7.2348h-2.4479l2.3148-10.8684zm21.1963 6.7751l2.8553.4598c-.3913 1.1489-1.1192 2.1536-2.089 2.8834-.9333.6656-2.0559 1.0134-3.2021.9921-.6052.0299-1.2102-.0646-1.7776-.2775-.5673-.2129-1.085-.5399-1.5212-.9606-.8065-.8254-1.2098-1.9626-1.2098-3.4117-.0049-1.1566.2472-2.2999.738-3.3472.4745-1.0314 1.2489-1.8957 2.2221-2.4802.978-.6022 2.1059-.9166 3.2544-.9074 1.1121-.0576 2.206.3003 3.069 1.0042.3801.3322.6901.7369.9117 1.1905.2216.4536.3504.9469.3787 1.451l-2.7947.2943c-.0218-.4979-.2189-.9721-.5565-1.3388-.1632-.1483-.3541-.2627-.5618-.3368-.2076-.0741-.4279-.1063-.648-.0947-.5888.01-1.1531.2369-1.5849.6371-.5484.5127-.9412 1.1697-1.1332 1.8954-.2532.7656-.3892 1.5651-.4033 2.3713-.0365.536.1306 1.0659.4678 1.4841.1461.1681.3272.3021.5306.3927.2035.0906.4243.1355.647.1315.4993-.0112.9799-.1918 1.3631-.5121.484-.3987.8459-.9256 1.0444-1.5204zm7.1381-6.7751h2.8873l-.9839 4.6256c.4169.0268.8319-.0745 1.1899-.2903.392-.3852.717-.8337.96-1.3268.774-1.3711 1.375-2.218 1.814-2.5326.44-.3145 1.162-.4759 2.178-.4759h.758l-.403 2.0164h-.359c-.229-.02-.459.0399-.649.1694-.218.2215-.405.4711-.557.742-.384.7077-.87 1.3546-1.443 1.9197-.323.2465-.692.4261-1.085.5282.712.1291 1.227.7501 1.544 1.8632l1.025 3.6295h-2.763l-.871-3.2262c-.076-.45-.277-.8694-.581-1.2099-.3284-.1924-.7092-.277-1.0885-.2419l-1.0244 4.6578h-2.8673l2.3189-10.8482zm11.2433 0h2.94l-1.343 6.4525c-.115.475-.198.9574-.246 1.4437-.001.1515.03.3014.09.4403.061.1389.15.2636.261.3663.118.1117.258.1988.41.2563.152.0574.314.0841.477.0784.264-.0005.525-.0497.77-.1452.279-.1155.54-.2674.779-.4516.265-.2004.504-.4319.714-.6896.243-.3132.444-.6578.596-1.0244.177-.5002.312-1.0141.404-1.5365l1.084-5.1781h2.936l-2.27 10.8886h-2.742l.306-1.472c-.507.5332-1.115.9606-1.789 1.2575-.673.297-1.399.4576-2.135.4726-.385.0221-.77-.0348-1.132-.1673-.362-.1324-.693-.3377-.973-.603-.261-.2726-.464-.5956-.597-.9492-.132-.3535-.191-.7304-.173-1.1075.055-.7555.171-1.5053.347-2.2423l1.286-6.0895zm13.417 0h2.936l-1.339 6.4525c-.117.4745-.2.9571-.246 1.4437-.001.1512.029.3011.088.44.06.1389.148.2637.259.3666.119.112.259.1993.412.2568.153.0574.316.0839.479.0779.262-.0005.522-.0497.766-.1452.279-.1147.541-.2666.779-.4516.265-.2014.506-.4328.718-.6896.24-.3184.438-.6668.588-1.0365.177-.5002.312-1.0141.404-1.5365l1.084-5.1781h2.948l-2.274 10.8886h-2.742l.306-1.472c-.507.5329-1.114.9601-1.787 1.2571-.673.2969-1.397.4577-2.133.473-.385.0212-.771-.0361-1.133-.1685-.363-.1324-.695-.3371-.976-.6018-.261-.2728-.463-.5959-.595-.9495-.131-.3536-.19-.7303-.171-1.1072.053-.7557.169-1.5057.347-2.2423l1.282-6.0774zm2.129-4.3634h1.42c.089.4457.309.8545.633 1.1735.282.2248.636.3407.996.3267.807 0 1.484-.492 2.017-1.4841h1.351c-.221.8506-.695 1.6142-1.359 2.1898-.585.5021-1.331.7782-2.102.7783-.362.0128-.723-.0462-1.062-.1736-.339-.1273-.649-.3205-.914-.5684-.576-.6114-.922-1.4039-.98-2.2422zM150.709 17h2.016c.009.6554-.12 1.3053-.379 1.9075-.201.4047-.547.7196-.968.8832-.777.2121-1.582.3073-2.387.2823-.768-.0153-1.534.0524-2.287.2016-.504.1472-.961.4255-1.323.8066-.482.5104-.866 1.1051-1.133 1.7542.854-.6364 1.884-.9929 2.948-1.0203.596-.0247 1.189.0784 1.742.3024.552.224 1.05.5637 1.46.9962.841.9585 1.275 2.207 1.21 3.4803-.011 1.5934-.582 3.1322-1.613 4.3473-1.076 1.3255-2.603 1.9882-4.581 1.9882-1.568 0-2.809-.4624-3.723-1.3873-.452-.4642-.806-1.015-1.04-1.6193-.234-.6042-.344-1.2495-.323-1.8973.023-1.5615.353-3.1032.972-4.5369.512-1.353 1.259-2.6049 2.206-3.698.622-.7524 1.43-1.3293 2.343-1.6736 1.082-.2748 2.195-.4103 3.311-.4033.426.0163.852-.0258 1.266-.125.166-.0645.254-.2621.283-.5888zm-7.392 11.0982c-.03.3526.017.7075.137 1.0403.121.3327.312.6355.56.8874.421.3976.978.6197 1.557.621.453-.0107.895-.1381 1.284-.3698.39-.2317.713-.5599.938-.9529.593-.8635.907-1.8883.899-2.9359.023-.6275-.185-1.2416-.585-1.726-.205-.2273-.459-.4058-.742-.5223-.283-.1166-.589-.1682-.895-.1512-.454 0-.9.1163-1.296.338-.396.2218-.729.5414-.966.9283-.582.834-.893 1.8265-.891 2.8431zm14.243-3.2141l-2.867-.246c.299-.9306.905-1.7323 1.718-2.2745.972-.5812 2.095-.8618 3.226-.8066 1.398 0 2.432.281 3.101.8429.314.2448.568.5581.742.916.174.3579.264.7508.263 1.1488-.002.35-.031.6993-.089 1.0445-.057.367-.258 1.3389-.609 2.9076-.221.8846-.36 1.7878-.415 2.6979.008.5239.091 1.044.246 1.5446h-2.86c-.113-.3947-.185-.8002-.213-1.2098-.414.4623-.918.8355-1.48 1.0969-.528.255-1.104.3925-1.69.4033-.413.0135-.824-.0583-1.208-.2109-.384-.1527-.732-.3829-1.022-.6764-.295-.2994-.526-.6561-.677-1.0479-.152-.3919-.222-.8106-.207-1.2306-.021-.4587.055-.9167.221-1.3446.167-.4279.421-.8161.747-1.1396.646-.621 1.798-.9974 3.456-1.1292.953-.0338 1.899-.169 2.823-.4032.106-.3168.167-.6465.182-.98.004-.1547-.028-.3082-.094-.4482-.066-.1401-.163-.2628-.285-.3584-.326-.2345-.725-.3472-1.125-.3185-.438-.0233-.872.0894-1.242.3226-.313.215-.54.5334-.642.8993zm2.779 2.7221c-.232.0591-.468.1035-.706.1331-1.476.1774-2.419.4355-2.887.7783-.149.1165-.268.2661-.349.437-.081.1708-.12.3582-.115.547-.004.1617.027.3222.091.471.063.1488.157.2824.276.392.13.1209.283.2145.45.2755.167.0609.344.0879.522.0794.439.0008.87-.1102 1.254-.3226.366-.1888.672-.4766.883-.8307.25-.4984.424-1.0312.516-1.5809l.065-.3791zm7.553-5.8032h2.908l-.859 4.0328h4.033l.859-4.0328h2.907l-2.314 10.8886h-2.908l.976-4.5652h-4.045l-.972 4.5652h-2.895l2.31-10.8886zm13.304 0h2.888l-.984 4.6256c.416.0281.83-.0734 1.186-.2903.393-.3847.719-.8333.963-1.3268.771-1.3711 1.376-2.218 1.811-2.5326.436-.3145 1.166-.4759 2.182-.4759H190l-.403 2.0164h-.359c-.23-.02-.459.0399-.649.1694-.218.2215-.405.4711-.557.742-.384.7077-.87 1.3546-1.444 1.9197-.323.2457-.692.4253-1.085.5282.713.1291 1.228.7501 1.545 1.8632l1.024 3.6295h-2.766l-.867-3.2262c-.076-.45-.277-.8694-.581-1.2099-.329-.1919-.709-.2765-1.089-.2419l-1.024 4.6578h-2.855l2.306-10.8482z"/>
	<path fill="#328455" d="M22.1151 19.7302l-4.436 13.901h4.436l3.9844-13.901h-3.9844zm5.6984-2.0164l-4.4361 13.901h4.4361l3.9844-13.901h-3.9844z"/>
</svg>
