<svg xmlns="http://www.w3.org/2000/svg" viewBox="0 0 200 50">
	<g fill="#008FB4">
		<path d="M35 43.6279l18.8012-.0255-.0128-18.6098C49.8699 32.4212 42.5307 37.246 35 39.0967c.0255 1.4041 0 4.5312 0 4.5312z"/>
		<path d="M41.0117 34.2592c7.0967-3.5866 10.5174-10.1345 10.5174-10.1345s-.0255-2.1571-.0255-2.1954c-3.9057-1.3785-7.4541-3.3951-10.4791-6.4074.0127 5.1055-.0128 18.7373-.0128 18.7373zM42.0201 6.08936s0 5.69264-.0128 7.10944c1.8763 1.7359 2.8081 2.54 4.7482 3.7781l.0127-7.63276c-2.2081-1.21257-3.0633-1.85076-4.7481-3.25478z"/>
	</g>
	<path fill="#191646" d="M69.9218 12.0884c-.1659-1.0211-.7403-1.6976-1.6976-2.0167-.4722-.15318-.9956-.24253-1.6338-.28082-.3829-.02553-.7785 0-1.1487.03829h-.1532V7.60826l1.8125.01276 2.0039.28081.0766-1.81247H62.991l.2425 2.2592.0256 5.05454-.2808 2.3996h.3574s.8424-.0128 1.2508 0c.217 0 .434.0127.651.0255.3063.0128.6126.0383.919.0383h.217c1.1615-.0255 2.0549-.3191 2.7187-.8807 1.0083-.8807.9573-2.0678.8296-2.8974zm-2.0167.4978c0 .217-.0127.3956-.0383.5616-.0765.4595-.3191.7786-.7147.9445-.5234.2298-1.0977.2808-1.8763.1915v-2.8847c.702-.0893 1.3912-.1148 2.0294.2042.4085.217.5999.5361.5999.9829zM76.0612 7.1998L75.7676 6l-2.0422.02553-.2297 1.0594-2.4635 6.38197-1.0721 2.2847 2.1315.0383.3702-1.7487.5106-1.3274h3.0633l.702 1.6976.3702 1.3657h2.757l-.9446-1.621-2.8591-6.9563zm-.5999 4.0334c-.3191 0-.6509.0128-.9828.0255-.3191.0128-.651.0128-.9573.0255.1915-.4595.3829-.9317.5744-1.39122.1531-.34462.2935-.68925.4339-1.03387l.9318 2.37409zM95.8327 15.7771l2.8081-.0255-4.4674-5.0673 4.1994-4.6205-2.4635.01277-.7403 1.03387s-1.889 2.08051-2.9101 3.21646V7.81246l.2935-1.72313h-2.5783l.1532 1.6976.0383 5.98627-.1915 1.9911h2.5783l-.2808-1.9784v-2.374l3.5611 4.3652zM88.1997 12.867c0-.651.0256-5.01621.0256-5.01621l.2297-1.73589h-2.5528l.2043 1.68483s-.0001 1.27639.0127 2.04222H82.507c-.0255-1.09769-.0127-2.22091.2681-3.31861l.1021-.39568h-2.6549l.0383.35739c.0128.12764.1659 1.46785.1915 2.09328.0382 1.30191.0255 2.64207.0127 3.91847v.2936c0 .5489-.1276 2.2337-.1914 2.54l-.0766.3702h2.5655l-.0383-.3574c-.0255-.2298-.051-.4468-.0766-.6765-.0638-.4978-.1276-.9828-.1531-1.4551-.0256-.485-.0256-.9828-.0128-1.4678v-.3447h3.676c0 .2426 0 .4851.0128.7276.0127 1.0977.0255 2.1443-.2553 3.1782l-.1021.3957h2.6804l-.0894-.3829c-.1786-.8935-.2042-1.787-.2042-2.4507zM120.365 20.5508l.076-.3829h-5.475l.038.3574c.191 1.6465.332 3.1782.434 4.7098.064 1.0977.051 2.2209.038 3.3186 0 .383-.013.7786-.013 1.1616h-10.236c-.051-2.9996-.089-6.1012.689-9.139l.102-.3957h-5.641l.051.3574c0 .0383.421 3.6888.485 5.4247.102 3.3441.076 6.7521.038 10.0451v.7786c-.013 1.4424-.332 5.8204-.485 6.599l-.077.3829h5.438l-.039-.3574c-.063-.5744-.14-1.136-.204-1.6976-.166-1.2509-.319-2.54-.395-3.7909-.077-1.2636-.051-2.5655-.039-3.8164 0-.4595.013-.919.013-1.3785h10.403c0 .7786 0 1.57.012 2.3358.039 2.8719.077 5.5778-.663 8.3093l-.115.4084h5.654l-.076-.3829c-.447-2.323-.524-4.6333-.537-6.3819-.012-1.7487 0-9.4708.077-11.6151.064-2.0423.204-3.625.447-4.8503zM86.9744 40.8964v-8.3731c2.6166.0766 7.6072.4723 7.6583.4723l.3446.0255.0128-3.8291-8.0157.4595v-6.599c2.3868-.0255 6.8669-.051 9.1899.6637l.3574.1149.0511-.3701c.1659-1.2126.0511-2.9102.0383-2.974l-.0255-.2936H82.1241l.0638.3702c.485 3.1016.4595 6.2415.4212 9.2793-.0127.702-.0127 1.404-.0127 2.1188.0382 4.4929-.4468 11.3981-.4595 11.462l-.0256.3446 14.3849.0638.0128-.3191c.0255-.7658.0893-2.8208.1276-3.1144l.0511-.4339-.434.0893c-2.8591.5744-5.565.8297-9.2793.8424zM74.6828 30.5577c.0638-.0383.1276-.0893.1914-.1276 1.302-.8807 2.7953-2.1826 2.8847-4.4036.1276-3.0633-1.5445-5.2331-4.595-5.9352-2.6294-.6126-5.3353-.5105-8.271.2936l-.0383.0128c-1.4168.3957-1.6593.5233-1.621.8552.0766.6254.2042 1.3146.3191 1.9911.0893.4978.1787.9956.2425 1.4806.0255.1787.1532.3191.3191.3829.1659.0511.3574 0 .4723-.1276l.1787-.1915c1.3784-1.455 3.1782-2.1315 5.4629-2.0932 1.4551.0255 2.6676.9445 2.9484 2.2336.383 1.7742-.268 3.3187-1.6337 3.9313-.6638.2936-1.4296.5106-2.3486.6765-.8935.1532-2.6549.2808-2.6804.2808l-.3191.0255.1276 3.0123.3191-.0128c.0128 0 1.5828-.051 2.8974-.051.5872 0 2.489.1276 3.4591.7148.8551.5105 1.4678 1.3529 1.6465 2.2464.2553 1.3402.485 4.5312-2.9995 5.297-3.0123.6637-5.4757 0-7.301-1.9656-.1531-.166-.3191-.3319-.4977-.5361l-.1915-.2042c-.1149-.1277-.2808-.166-.4467-.1149-.1532.0511-.2681.1915-.2936.3574l-.0894.7403c-.0893.7275-.1659 1.404-.2808 2.0677-.0893.5744.1021.9573.651 1.2509 2.0295 1.1105 4.2759 1.6721 6.6755 1.6721.4595 0 .919-.0256 1.3913-.0639 1.9273-.1659 3.7015-.8679 5.1183-2.0422 2.0677-1.6976 3.0122-3.7526 2.7825-6.1139-.1787-2.7187-1.7104-4.5822-4.4801-5.5395zM143.621 33.4934V32v-1.3913c-.013-3.3441-.026-6.8031.574-10.0452l.064-.3829h-5.642l.077.3829c.191 1.0084.357 2.0806.485 3.1783.038.3446 0 .5105-.179.702-1.787 1.9145-3.548 3.8674-5.233 5.7565-1.545 1.7231-3.14 3.4973-4.774 5.2587.038-1.4806.013-2.9485-.025-4.3908-.077-3.6122-.141-7.0329.753-10.4664l.102-.4084h-5.782l.127.4084c.536 1.7615.536 3.4846.549 5.3098v1.7614c.013 3.0761.026 6.2543-.013 9.3687 0 .4723.013.9445.026 1.404.026.868.051 1.7487-.038 2.6166-.051.5233-.179 1.0339-.307 1.57-.063.2425-.114.4978-.166.7531l-.076.3829h5.565l-.064-.3702c-.115-.7658-.204-1.5316-.281-2.272-.051-.4339-.089-.8551-.14-1.2891-.026-.1787.064-.4467.166-.5616 1.583-1.7231 3.153-3.459 4.659-5.1439 1.71-1.9145 3.484-3.8802 5.297-5.833v3.242c-.013 1.0466 0 2.106.012 3.1271.013 1.5827.039 3.2165-.038 4.812-.038.8807-.191 1.7487-.345 2.6677-.076.4084-.14.8296-.204 1.2381l-.051.3701h5.54l-.077-.3829c-.574-3.0889-.561-6.5351-.561-9.8792zM157.865 23.3206c0-.0511 0-.1149.013-.1915l7.122.919-.459-3.9057h-17.806l-.396 3.9057 7.62-.919v14.8955l-.74 5.7693h5.399l-.676-5.6672c0-.1149-.064-9.9303-.077-14.8061z"/>
</svg>
