<svg xmlns="http://www.w3.org/2000/svg" viewBox="0 0 40 40">
	<path fill="#FF5000" d="M10.6154 15.1534v2.1538h-.4616c-.84611-1.5384-2.46149-2.4615-4.30765-2.4615-3 0-5.84615 2.8462-5.84615 6.5385s2.76923 6.4615 5.84615 6.4615c1.84616 0 3.46154-.9231 4.30765-2.4615h.4616v2.1538h2.6923V15.1534h-2.6923ZM6.61539 25.3072c-2.15385 0-3.92308-1.6923-3.92308-4 0-2.2307 1.69231-4 3.92308-4 2.15384 0 4.00001 1.6924 4.00001 4 0 2.3077-1.76924 4-4.00001 4ZM24.5384 19.692h-4.6923v-2h7.9231v-2.4615H17.1538v12.3846h7.3846c2.5385 0 4.2308-1.6923 4.2308-4 0-2.2308-1.7692-3.9231-4.2308-3.9231Zm-.3077 5.4615h-4.3846v-3.0769h4.3846c1.2308 0 1.8462.6154 1.8462 1.5385s-.6154 1.5384-1.8462 1.5384Z"/>
	<path fill="#00F500" d="M35.3847 20.2308c2.5384 0 4.6154-2.077 4.6154-4.6154 0-2.5385-2.077-4.6154-4.6154-4.6154-2.5385 0-4.6154 2.0769-4.6154 4.6154 0 2.5384 2.0769 4.6154 4.6154 4.6154Z"/>
</svg>