<svg viewBox="0 0 40 40" xmlns="http://www.w3.org/2000/svg">
	<path fill="#009C32" d="M39.7647 19.5848c-.5712-1.4462-1.9816-2.2338-3.508-1.9582l-3.1367.5649c-.5208.0937-.8664.5921-.7736 1.1129.0936.5208.5912.8669 1.1112.774l3.1367-.5649c.7464-.1346 1.2072.3125 1.3896.7748.1832.4631.1512 1.1049-.4848 1.5176l-4.6039 2.9878c-.428.2772-.9488.2964-1.3944.0537-.4464-.2428-.7136-.6923-.7136-1.2011v-9.6814c0-.5296-.428-.959-.9568-.959-.5288 0-.9568.4294-.9568.959v9.683c0 1.2227.64 2.3012 1.7128 2.8853.4984.2708 1.0352.4062 1.5696.4062.6168 0 1.2312-.1787 1.78-.5352l4.6039-2.9879c1.304-.8461 1.796-2.3852 1.2248-3.8315zm-16.1943-1.9574l-3.1368.5649c-.52.0937-.8656.5921-.7728 1.1129.0936.5208.5912.8669 1.1112.774l3.1368-.5649c.7472-.1346 1.2072.3125 1.3904.7748.1824.4631.1512 1.1049-.4856 1.5176l-4.604 2.9878c-.4272.2772-.948.2964-1.3944.0537-.4464-.2428-.7128-.6923-.7128-1.2011v-7.3554c0-1.2235-.64-2.3019-1.7128-2.886-1.0728-.5833-2.3248-.5352-3.3496.129L1.45928 21.0495C.156089 21.8948-.335908 23.434.235289 24.8802c.570398 1.4454 1.979991 2.2323 3.507981 1.9574l10.11113-1.8204c.52-.0937.8664-.5921.7728-1.1129-.0936-.5208-.5912-.8677-1.1112-.774L3.40488 24.9507c-.7472.1346-1.2072-.3125-1.3896-.7748-.1832-.4631-.152-1.1049.4848-1.5183l11.57832-7.5132c.4264-.2765.948-.2965 1.3944-.0537.4464.2436.7128.6931.7128 1.2018v7.3554c0 1.2227.64 2.3012 1.7128 2.8853.4984.2708 1.036.4062 1.5704.4062.6168 0 1.2304-.1787 1.7792-.5352l4.6048-2.9879c1.3024-.8453 1.7944-2.3844 1.224-3.8307-.5688-1.447-1.98-2.233-3.5064-1.9582z"/>
</svg>
