<svg viewBox="0 0 40 40" xmlns="http://www.w3.org/2000/svg">
	<path fill="#7A66A8" d="M14.0729 23.619v-1.0582c-1.0507-.4638-2.4174-.7837-3.9129-.7837-2.61812 0-4.23288 1.0203-4.23288 2.9815 0 1.6072 1.36678 2.5443 3.34879 2.5443 2.86419.0019 4.79699-1.5201 4.79699-3.6839ZM0 24.9139c0-4.5831 3.58353-6.7033 8.70611-6.7033 2.18269 0 3.75199.3521 5.28349.8557v-.3484c0-2.4647-1.5731-3.8372-4.63797-3.8372-2.3398 0-3.99053.4354-5.96687 1.1302L1.8514 11.4657c2.38144-1.0223 4.71935-1.68482 8.3862-1.68482 3.3431 0 5.77.85942 7.3014 2.35492 1.6129 1.5694 2.3398 3.8751 2.3398 6.7033v12.1874h-5.9346v-2.2754c-1.4861 1.6091-3.5419 2.671-6.52726 2.671C3.34879 31.4259 0 29.1467 0 24.9139Zm26.1259 7.6914c5.4444-3.6933 7.7823-7.2977 7.7823-12.8273 0-5.5239-2.3398-9.1339-7.7823-12.81397L28.8273 3C36.2442 6.92239 40 12.2551 40 19.778c0 7.5268-3.7558 12.8557-11.1727 16.7762l-2.7014-3.9489Z"/>
</svg>