<svg viewBox="0 0 40 40" xmlns="http://www.w3.org/2000/svg">
	<path fill="#02ACE2" d="M9.22299 28.2043c-.13555-.2051-.23701-.3591-.31509-.4993-2.44323-4.2365-4.87683-8.435-7.29668-12.6577-2.152324-3.7506-2.135827-7.51911-.02529-11.28513C2.3008 2.52406 3.01568 1.28568 3.75805 0c.11163.191367.21336.34534.29117.485565C6.49272 4.72175 8.92632 8.92054 11.3462 13.143c2.1762 3.7643 2.1971 7.5227.0489 11.2989-.7149 1.2383-1.41599 2.4525-2.17211 3.7624Z"/>
	<path fill="#FE720A" d="M39.0828 18.8005h-.5224c-4.9216 0-9.8433.0275-14.7924 0-4.2343-.0275-7.4512-1.8972-9.6233-5.554-.6599-1.1273-1.3198-2.2546-1.9522-3.38194-.0825-.13748-.1375-.27496-.2474-.46742.2199 0 .3849-.0275.5499-.0275 4.8666 0 9.7333-.02749 14.5999 0 4.3443.0275 7.6437 1.92466 9.8433 5.69146.6324 1.0999 1.2648 2.1722 1.8972 3.272.0825.1375.1374.2749.2474.4674Z"/>
	<path fill="#0062A4" d="M5.15381 40.0002c.10998-.2199.19246-.3849.27495-.5224 2.44707-4.2342 4.86664-8.441 7.31374-12.6478 2.1721-3.7393 5.444-5.609 9.7608-5.664h4.3442c-.11.1925-.1924.3575-.2749.4949-2.4471 4.2343-4.8667 8.4411-7.3138 12.6478-2.1721 3.7669-5.4165 5.664-9.76075 5.6915H5.15381Z"/>
</svg>