<svg viewBox="0 0 40 40" xmlns="http://www.w3.org/2000/svg">
	<path fill="#FE5000" d="M33.4132 0H6.65492C2.98085 0 0 2.97578 0 6.6436v26.7128C0 37.0242 2.98085 40 6.65492 40H33.3439c3.6741 0 6.6549-2.9758 6.6549-6.6436V6.6436C40.0681 2.97578 37.0873 0 33.4132 0zm4.5753 32.6644c-.0693.0692-.208.1384-.2773.0692-5.1298-3.1142-11.2302-4.9135-17.6771-4.9135-6.447 0-12.54732 1.7993-17.67715 4.9135-.06932.0692-.20797 0-.27729-.0692-.06932-.1384 0-.2077.06932-.2769 4.7139-3.5986 8.73462-8.166 11.85412-13.564 3.1194-5.3979 5.0605-11.21104 5.823-17.02419 0-.06921.0693-.20761.208-.20761.1386 0 .2079.0692.2079.20761.7626 5.81315 2.7036 11.62629 5.8231 17.02419 3.1195 5.398 7.2095 9.9654 11.8541 13.4948.1386.1384.1386.2077.0693.3461z"/>
</svg>
