<svg xmlns="http://www.w3.org/2000/svg" viewBox="0 0 40 40">
	<path fill="#4F5964" d="M22.7592 4c3.0221.25943 5.8744.73509 8.3266 1.56413 2.2539.76197 4.4926 1.92618 6.1908 3.78919C39.0641 11.3141 40 13.7758 40 16.5621c0 2.7863-.9359 5.2479-2.7234 7.2089-1.6982 1.8629-3.9369 2.7008-6.1908 3.4628-4.4266 1.4968-12.0342 1.4924-15.533 1.4924h-3.8907l3.5105-7.8216c5.6 0 16.1084-.4745 19.0723-1.4765 1.4416-.4875 2.1933-1.0159 2.5616-1.4198.279-.3063.4863-.6859.4863-1.4462s-.2073-1.1399-.4863-1.4461c-.3683-.4039-1.12-.9324-2.5616-1.4198-2.3829-.8056-9.6019-1.3367-15.2374-1.3367L22.7592 4Z"/>
	<path fill="#F5671E" d="m11.6623 28.7266-3.18446 7.0953c-2.10438-.7623-4.16589-1.8937-5.7546-3.6364C.935804 30.2248 0 27.7632 0 24.9766c0-2.7862.935804-5.2478 2.72324-7.2086 1.69842-1.863 3.87138-3.1577 6.12517-3.9197 2.92529-.989 6.40819-1.4889 10.15929-1.4889l-3.8349 8.5452c-4.1125 0-7.81994.6662-9.41788 1.2063-1.44154.4873-2.19325 1.0157-2.56143 1.4199-.27916.3061-.48616.6857-.48616 1.4458 0 .7606.207 1.14.48616 1.4462.36818.4042 1.11989.9979 2.56143 1.4853 1.1218.3792 3.30606.8185 5.90738.8185Z"/>
</svg>