<svg xmlns="http://www.w3.org/2000/svg" viewBox="0 0 40 40">
	<path fill="#313131" d="M17.1239 27.7568H9.11664c-.74386 0-1.2689-.746-1.00642-1.4473l4.50688-12.1568c.3063-.7461 1.0064-1.2724 1.8377-1.2724h5.1632c.9189 0 1.7503-.5697 2.0566-1.4487L23.2935 7h-7.5697l-1.269 3.1592c-.2625.6593-.9188 1.0974-1.6189 1.0974H7.80391c-1.00634 0-1.92518.6145-2.27524 1.5803L.102931 27.4503c-.393802 1.0092.393803 2.1066 1.487719 2.1066l14.65815.0434.8751-1.8435ZM38.433 11.1685l-14.6582-.0435-.9188 1.8869h8.0073c.7438 0 1.2689.7461 1.0064 1.4487l-4.4631 12.0672c-.3063.7461-1.0065 1.2738-1.8378 1.2738h-5.1631c-.919 0-1.7503.5697-2.0566 1.4473l-1.619 4.433h7.5698l1.2689-3.1606c.2625-.6579.9189-1.0974 1.619-1.0974h5.0319c1.0064 0 1.9253-.6131 2.2754-1.5789l5.3819-14.6133c.4375-1.0093-.3501-2.0632-1.444-2.0632ZM14.6299 13.583h5.2069c.8314 0 1.6189-.5263 1.9253-1.2724l2.0565-5.26584h.9189l-2.1878 5.52904c-.4376 1.0974-1.5315 1.8434-2.7129 1.8434h-5.2069c-.2626 0-.5688.2198-.6564.4829L9.773 26.1345c0 .0881 0 .1315.04375.175.04375.0447.08749.0881.17498.0881h7.87617l-.4377.8343H9.99173c-.35005 0-.70002-.1764-.87509-.4395-.21873-.2632-.26248-.6579-.13124-.9659l4.2006-11.2343c.2187-.6131.7875-1.0092 1.4439-1.0092Zm3.6754 14.8331c.3063-.7461 1.0939-1.2738 1.9253-1.2738h5.2507c.6563 0 1.2251-.3947 1.4439-1.0092l4.2006-11.2343c.1313-.3066.0875-.7013-.1313-.9645-.175-.2645-.525-.4395-.8751-.4395H22.681l-.4376.8342h7.876c.0876 0 .1313.0435.1751.0869.0437.0447.0437.0881.0437.1763l-4.2006 11.2343c-.0875.2632-.3938.483-.6563.483h-5.2507c-1.1814 0-2.2752.746-2.7129 1.8421L15.33 33.6819h.9188l2.0565-5.2658Z"/>
</svg>