<svg viewBox="0 0 40 40" xmlns="http://www.w3.org/2000/svg">
	<g fill="#00447C">
		<path d="M18.7994 12.2223c.0518-.0619.0461-.152-.0115-.2027-.1785-.152-.3513-.304-.5355-.4503-2.0672-1.62144-4.6296-2.51095-7.2957-2.51095-1.13435 0-2.2572.15764-3.33398.47291C5.50945 10.1449 3.64379 11.3272 2.21 12.9204 1.10442 14.3898.649523 15.5946.46526 16.2702c-.247603 1.1091-.4030742 2.2463-.4491399 3.3779C-.20845 25.0921 1.92209 30.4236 5.8607 34.2744c3.35128 3.2766 7.7102 5.2583 12.3917 5.6524.4261.0338.8522.0563 1.2841.0675.1497.0057.3051.0057.4549.0057 6.5816 0 12.7429-3.1696 16.4857-8.4729.0403-.062.0346-.1352-.0173-.1858-.0288-.0282-.0691-.0451-.1094-.0451-.0288 0-.0576.0113-.0864.0225-1.618 1.0303-3.4261 1.6946-5.3148 1.9649-.6276.09-1.261.1351-1.9059.1351-4.4454 0-8.384-2.1506-10.7909-5.4497-1.2265-1.6721-2.05-3.6425-2.3494-5.7762-.0748-.563-.1209-1.1316-.1209-1.7171 0-2.7136.8752-5.3653 2.4703-7.5553.1727-.2364.357-.4729.547-.6981z" />
		<path d="M37.79 27.0795c1.1055-1.4693 1.5604-2.6741 1.7447-3.3497.2476-1.1091.3973-2.2407.4491-3.3835.2246-5.4441-1.9002-10.76994-5.8445-14.62075C30.477 2.1506 25.6229.118227 20.4635.00562984 20.3138 0 20.1583 0 20.0086 0c-.5873 0-1.1747.0281492-1.7562.0788178C12.3387.585504 6.92595 3.64251 3.52285 8.47291c-.04031.06193-.03455.14075.01728.19142.02879.02815.06909.04504.1094.04504.02879 0 .05758-.01126.08062-.02252C5.3482 7.65659 7.15628 6.98663 9.04497 6.72203c.62765-.09008 1.26103-.13511 1.90593-.13511 2.6891 0 5.1997.7938 7.2957 2.1506 3.1209 2.02108 5.3206 5.29208 5.8388 9.07528.0806.5574.1209 1.1316.1209 1.7171 0 3.012-1.071 5.9451-3.023 8.259-.0518.0619-.0461.1464.0173.2027 2.1478 1.9085 4.929 2.9613 7.8311 2.9613 1.1344 0 2.2572-.1577 3.334-.4729 2.1248-.6249 3.9905-1.8016 5.4243-3.4005z"/>
	</g>
</svg>
