<svg xmlns="http://www.w3.org/2000/svg" viewBox="0 0 40 40">
	<path fill="#a61731" d="M0 0h40v40H0z"/>
	<path fill="#fff" d="M24.3 12.7l3.9 6.8c.3.4.9.4 1.2 0l3.9-6.8v9.1H37V4.5h-3.7l-4.5 8.9-4.5-8.9h-3.7v17.3h3.7v-9.1zM17.9 18.8v-4.5c0-1.7-1.9-3.1-3.6-3.1H6.8V7.6h10V4.5H3v17.3h11.3c1.7.1 3.6-1.4 3.6-3zM14 17.2c0 .8-.7 1.6-1.6 1.6H6.8v-4.9h5.6c.8 0 1.6.7 1.6 1.6v1.7zM8.2 33.4H4.4v-1.2H9v-1.1H3V37h5.1c.6 0 1.2-.5 1.2-1.1v-1.5c.1-.5-.5-1-1.1-1zm-.1 2.1c0 .3-.2.5-.5.5H4.4v-1.7h3.2c.3 0 .5.2.5.5v.7zM15.7 31.2h-1.4L11.1 37h1.3l.8-1.4h3.5l.8 1.4H19l-3.3-5.8zm-2 3.5l1.3-2.3 1.3 2.3h-2.6zM26.8 33.7h-4.4v-2.5h-1.3V37h1.3v-2.5h4.4V37H28v-5.8h-1.2zM37.1 31.2h-2.2L32 33.5v-2.3h-1.3V37H32v-2.6l3.3 2.6h2.2l-3.9-3zM0 25.7h40v1.7H0z"/>
</svg>