<?xml version="1.0" encoding="UTF-8" standalone="no"?>
<svg
   width="502.88431"
   height="168.95093"
   viewBox="0 0 17.078353 5.7370911"
   version="1.1"
   id="svg1"
   sodipodi:docname="BNL logo.svg"
   inkscape:version="1.4 (86a8ad7, 2024-10-11)"
   xmlns:inkscape="http://www.inkscape.org/namespaces/inkscape"
   xmlns:sodipodi="http://sodipodi.sourceforge.net/DTD/sodipodi-0.dtd"
   xmlns="http://www.w3.org/2000/svg"
   xmlns:svg="http://www.w3.org/2000/svg">
  <defs
     id="defs1" />
  <sodipodi:namedview
     id="namedview1"
     pagecolor="#ffffff"
     bordercolor="#000000"
     borderopacity="0.25"
     inkscape:showpageshadow="2"
     inkscape:pageopacity="0.0"
     inkscape:pagecheckerboard="0"
     inkscape:deskcolor="#d1d1d1"
     inkscape:zoom="1.4184"
     inkscape:cx="420.54428"
     inkscape:cy="142.7665"
     inkscape:window-width="1920"
     inkscape:window-height="1001"
     inkscape:window-x="-9"
     inkscape:window-y="-9"
     inkscape:window-maximized="1"
     inkscape:current-layer="svg1" />
  <g
     fill="#3b4095"
     id="g1"
     transform="matrix(0.20115372,0,0,0.20115372,0,-3.1224819e-4)">
    <path
       d="m 41.793,17.9 c 0.878,-0.312 1.547,-0.739 1.998,-1.282 0.682,-0.82 1.028,-1.802 1.028,-2.933 0,-1.363 -0.485,-2.495 -1.444,-3.418 C 42.428,9.355 41.054,8.893 39.264,8.893 H 28.559 v 19.251 h 9.885 c 0.404,0 1.259,-0.093 2.552,-0.266 0.97,-0.127 1.697,-0.335 2.171,-0.624 0.786,-0.462 1.386,-1.097 1.836,-1.894 0.45,-0.797 0.669,-1.698 0.669,-2.691 0,-1.224 -0.312,-2.24 -0.935,-3.06 C 44.103,18.8 43.121,18.234 41.793,17.9 Z m -7.46,-5.116 h 2.529 c 0.866,0 1.478,0.162 1.825,0.485 0.347,0.312 0.52,0.75 0.52,1.305 0,0.601 -0.173,1.062 -0.52,1.386 -0.347,0.324 -0.97,0.485 -1.859,0.485 h -2.494 v -3.661 z m 4.988,10.682 c -0.393,0.358 -1.085,0.543 -2.067,0.543 h -2.921 v -3.903 h 2.91 c 1.004,0 1.686,0.173 2.09,0.52 0.404,0.347 0.601,0.809 0.601,1.374 0,0.611 -0.197,1.096 -0.613,1.466 z M 61.032,19.54 54.057,8.892 H 48.71 v 19.251 h 5.382 V 17.576 l 6.94,10.567 h 5.405 V 8.892 h -5.405 z m 14.932,3.856 V 8.892 H 70.236 V 28.143 H 84.902 V 23.396 Z M 12.911,6.709 V 6.64 A 84.273,84.273 0 0 0 14.458,0 l -3.349,6.64 h 0.773 c 0.323,0 0.648,0 1.029,0.069 z M 4.134,25.291 C 3.488,24.713 3.037,24.067 2.587,23.42 L 0,28.455 c 1.617,-0.254 3.106,-1.224 4.585,-2.714 a 1.415,1.415 0 0 1 -0.451,-0.45 z m 0,-15.417 c -2.194,2.125 -3.222,4.712 -3.222,7.737 0,2.137 0.578,4.134 1.675,5.809 L 11.109,6.64 C 8.396,6.836 6.074,7.875 4.134,9.874 Z m 9.967,-3.015 a 11.586,11.586 0 0 0 -1.12,-0.15 h -0.069 c -0.196,0.577 -0.323,1.224 -0.52,1.802 -0.127,0.462 -0.254,0.912 -0.381,1.362 -1.871,6.456 -4.007,11.294 -6.259,14.389 -0.127,0.196 -0.266,0.323 -0.393,0.52 l -0.508,0.705 0.058,0.069 c -0.127,0 -0.196,0.058 -0.254,0.058 l -0.069,0.127 c 2.067,1.813 4.457,2.783 7.298,2.783 0.763,0 1.513,-0.081 2.218,-0.219 2.056,-0.416 3.88,-1.432 5.462,-3.014 2.125,-2.125 3.222,-4.712 3.222,-7.68 0,-3.025 -1.097,-5.612 -3.222,-7.737 -1.595,-1.64 -3.408,-2.633 -5.463,-3.015 z m 3.914,17.404 H 7.229 c 3.418,-1.986 5.705,-4.227 6.871,-6.698 1.212,-2.575 1.224,-5.393 0,-8.464 -0.046,-0.127 -0.104,-0.254 -0.162,-0.393 0.058,0.012 0.116,0.023 0.162,0.046 1.616,0.393 2.979,1.224 4.227,2.414 1.744,1.801 2.656,3.926 2.656,6.444 0,2.643 -0.97,4.838 -2.968,6.651 z"
       id="path1" />
  </g>
</svg>
