<svg xmlns="http://www.w3.org/2000/svg" viewBox="0 0 40 40">
	<linearGradient id="gr1" gradientUnits="userSpaceOnUse" x1="20" y1="-1.75" x2="20" y2="41.4782">
		<stop offset="0" stop-color="#007448"/>
		<stop offset=".6" stop-color="#8cc8aa"/>
		<stop offset="1" stop-color="#00915a"/>
	</linearGradient>
	<path fill="url(#gr1)" d="M0 0h40v40H0z"/>
	<linearGradient id="gr2" gradientUnits="userSpaceOnUse" x1="19.9" y1="-10.2188" x2="19.9" y2="38.8594">
		<stop offset="0" stop-color="#00915a"/>
		<stop offset=".3" stop-color="#8cc8aa"/>
		<stop offset=".55" stop-color="#00915a"/>
		<stop offset=".8352" stop-color="#007448"/>
		<stop offset=".8909" stop-color="#007d50"/>
		<stop offset=".9815" stop-color="#009567"/>
		<stop offset="1" stop-color="#009b6c"/>
	</linearGradient>
	<path fill="url(#gr2)" d="M39.1 2.3c0-.9-.6-1.6-1.4-1.6H3.1c-.8 0-1.3.7-1.4 1.6 0 0-1 5.3-1 16.4 0 11.2 1 18.5 1 18.5.1.9.6 1.6 1.4 1.6h34.6c.8 0 1.4-.6 1.4-1.6 0 0-.4-8.5-.4-16.9 0-8.3.4-18 .4-18z"/>
	<linearGradient id="gr3" gradientUnits="userSpaceOnUse" x1="27.55" y1="1.625" x2="27.55" y2="35.2955">
		<stop offset="0" stop-color="#00a578"/>
		<stop offset="1" stop-color="#00915a"/>
	</linearGradient>
	<path fill="url(#gr3)" d="M22.6 4.7c1.1.5 5.5 2.8 6 3.6-2.2.3-6.5 1.4-8.9 2.6l-.1.3c2.6-.6 6.2-.9 8.6-1-.9 1.4-1.5 2-2.9 3.5l-.2.3c2.7-1.6 3.4-1.7 5.9-3.2.9 1.4 1.2 4.6 1.2 7.1.8-1.6 1.8-7.6 1.4-8.7 1.6-1.1 1.9-2 1.9-2-1.5.1-2.3.2-3.1.4-1.9-1.2-6.3-2.7-9.7-3.1l-.1.2z"/>
	<linearGradient id="gr4" gradientUnits="userSpaceOnUse" x1="8.5" y1="4.1875" x2="8.5" y2="36.7313">
		<stop offset="0" stop-color="#00a578"/>
		<stop offset="1" stop-color="#00915a"/>
	</linearGradient>
	<path fill="url(#gr4)" d="M6.2 23.5c-.2 2-.3 3.4 0 5.1-.8.1-1.6.2-2.2.4l-.1.3c1 .6 1.9 1.1 3.1 1.7.6 1.4 1.3 2.3 2.3 3.3l.1-.3c-.2-.8-.4-1.4-.3-2.2 1.3.4 2.4.6 3.9.6l.1-.3c-1.3-.5-2.6-.9-3.7-1.9.3-.9.7-1.7 1.3-2.6l.1-.3c-1.1.2-2.2.6-3.1.8-.8-1.4-1.1-3.2-1.5-5v.4z"/>
	<linearGradient id="gr5" gradientUnits="userSpaceOnUse" x1="14.45" y1="3.1875" x2="14.45" y2="35.8718">
		<stop offset="0" stop-color="#00a578"/>
		<stop offset="1" stop-color="#00915a"/>
	</linearGradient>
	<path fill="url(#gr5)" d="M12.9 14.3s-.8-.1-2.2 0c-1.2.1-2.9.2-3.8.4l-.1.3c1.4.1 3.2.4 3.9 1.1 0 0-2.1 1.9-4.1 5.9 0 0 3.7-3.5 5.3-4.3 0 0 .8 2.8 1.4 4.2l.1-.3c.2-.9.6-3.4 1.3-4.9 0 0 .2-.1 1.4-.3 1.2-.1 2.9-.2 6.1.4l.1-.3c-.7-.4-3.6-1.7-6.7-2.1h.1c.4-1.2 1-2.2 1-2.2-.7.2-2.6 1.1-3.8 2.1"/>
	<linearGradient id="gr6" gradientUnits="userSpaceOnUse" x1="19.6" y1="4.1875" x2="19.6" y2="36.7313">
		<stop offset="0" stop-color="#00a578"/>
		<stop offset="1" stop-color="#00915a"/>
	</linearGradient>
	<path fill="url(#gr6)" d="M20.7 31.5c0-.5-.1-1-.1-1.6-.6.9-1.2 1.6-1.9 2.4-.8.2-1.6.2-2.4.2h-.9l-.1.3c.7.4 1.4.6 2.2.8-.6.6-1.5 1-2 1.4l-.1.3c1.2-.3 2.9-.8 4.1-1.5.6 0 1.2 0 1.7-.1l.1-.3c-.1-.3-.3-.5-.4-.9 1.1-.9 2-1.7 2.9-2.7l.1-.3c-1 .6-2.1 1.5-3.2 2"/>
	<path fill="#fff" d="M31.2 10.5c-2.5 1.5-3.2 1.6-5.9 3.2 1.6-1.7 2.1-2.4 3.1-3.8-2.5.1-6.1.4-8.6 1 2.2-1.2 6.7-2.5 9-2.8-.5-.7-4.9-3.1-6-3.6 3.5.3 7.7 1.6 9.8 2.8.7-.3 1.5-.3 3-.4-.4.7-.4 1-1.9 2 .4 1.1-.6 7.1-1.4 8.7.1-2.5-.2-5.7-1.1-7.1M13.1 32.1c-1.4-.5-2.4-1.1-3.6-2.2.3-.9.7-1.7 1.3-2.6-1.2.2-2 .3-3 .5-.8-1.4-1.2-2.8-1.6-4.7-.2 2-.3 3.5 0 5.1-.8.3-1.5.5-2.2.8 1.1.6 1.9 1.1 3.1 1.7.6 1.4 1.2 2.3 2.3 3.3-.2-.9-.3-1.6-.2-2.5 1.3.4 2.4.6 3.9.6M16.8 12.1c-.4.6-1 1.6-1.1 2.1 3.7.5 6.6 2.4 6.6 2.4-3.2-.6-4.9-.5-6.1-.4s-1.4.3-1.4.3c-.9 1.9-1.4 5.1-1.4 5.1-.6-1.4-1.4-4.2-1.4-4.2-1.6.9-5.3 4.4-5.3 4.4 2-4.1 4.1-5.9 4.1-5.9-.7-.7-2.6-1.1-3.9-1.1.7-.3 2.5-.6 3.9-.7H13c1.3-1.1 3.2-1.9 3.8-2M20.7 29.6c-.6.9-1.2 1.6-1.9 2.4-1.2.3-2.2.5-3.4.5.7.4 1.4.6 2.2.8-.8.7-1.4 1.2-2.2 1.7 1.3-.3 2.9-.8 4.1-1.6.6 0 1.2 0 1.7-.1-.1-.4-.2-.6-.3-1.1 1.2-.9 2-1.7 2.9-2.7-1 .7-1.9 1.2-3.1 1.8v-1.7"/>
</svg>