<svg xmlns="http://www.w3.org/2000/svg" viewBox="0 0 41 40">
	<path fill="#3AAA35" d="M20.9344 0v8.94911L28.369 0h-7.4346Zm12.6664 1.23941L20.9344 16.5217v2.8913c1.2942-3.0197 3.1305-5.2318 6.7462-5.2318 3.4056 0 5.2082 3.2096 5.9202 6.0579V1.23941ZM27.4055 15.6952c-6.6086.2754-6.6086 12.2534 0 12.3911 6.6085-.2754 6.6085-12.2534 0-12.3911Zm0 10.3259c-3.9927 0-3.9927-8.3984 0-8.3984 3.9926 0 3.9926 8.3984 0 8.3984Zm-6.4711-2.6159v7.4346h12.6664v-7.4346c-.5128 3.0768-2.8348 5.9201-6.1955 5.9202-3.9034 0-5.1378-2.8913-6.4709-5.9202Zm-4.268-9.087L4 29.6005V10.6009c.21534.8613.42868 1.6834.82607 2.4782 1.01377 1.7741 2.88456 3.5796 5.09411 3.5796 2.14772 0 3.95292-.773 5.23182-2.4782.5507-.8261 1.1014-1.7898 1.5144-2.7536v2.8913Zm-6.3332.8261c6.6086-.2754 6.6086-12.25342 0-12.3911-6.60853.27536-6.60853 12.2534 0 12.3911Zm0-10.4636c3.9927 0 3.9927 8.3984 0 8.3984-3.99264 0-3.99264-8.3984 0-8.3984Zm6.0579 2.06555c-.2754-.96375-.8261-1.9275-1.3768-2.75357-1.1429-1.52392-2.8865-2.47822-4.8188-2.47822-2.29721 0-4.35087 1.40486-5.36943 3.44197C4.41304 5.64482 4.13768 6.60857 4 7.43465V0h12.5288v7.43465c0-.25472-.1377-.39735-.1377-.6884Zm.2753 15.14425-7.4346 8.9491h10.4636v-2.2024h-3.029v-6.7467ZM4.6883 30.84 30.0212 0h2.8912L7.44187 30.84H4.6883Zm30.2894-.1376v-2.0652c2.8912 0 5.3695 2.6159 5.2318 5.5071 0 2.0652-1.2391 4.1304-3.029 5.0941-2.3405.9638-4.9564.9638-7.4346.2754l-13.0795-3.1666c-7.15925-1.7898-10.46354-.5507-10.46354 1.1014H4c0-4.5434 6.4709-6.4709 13.6302-4.8187l12.9418 3.1666c1.3768.413 2.7535.6884 4.1303.6884 1.5145-.1377 2.7536-1.3768 2.7536-2.8913.1377-1.5144-1.1014-2.8912-2.4782-2.8912Z"/>
</svg>