<svg viewBox="0 0 40 40" xmlns="http://www.w3.org/2000/svg">
	<path fill="#005E9C" d="M20.0012 0C8.9532 0 0 8.96574 0 20.005 0 31.0496 8.9532 40 20.0012 40 31.04 40 40 31.0496 40 20.005 40 8.96574 31.04 0 20.0012 0zm2.1709 38.7891L25 32.0113h-3.3657c-1.7223 0-2.3154-1.2393-1.9093-2.342l4.7621-11.8162s.4372-.9009-.3522-1.3438c-.8567-.485-1.3162.4044-1.3162.4044l-8.6922 13.7016c-.2408.4044-1.0437 1.4106-2.3425.8307-1.304-.5888-.8912-1.9418-.7937-2.1577l4.5572-10.8426s.4637-1.0465-.0246-1.8265c-.4525-.7282-.9975-.8081-1.5326-.83h-2.451l-3.38226 7.9945.0675-11.8961L18.0277.605265 14.8763 8.13772h3.8802c.567 0 1.1018.29188 1.4033.78002.2859.46355.3589 1.09996.0492 1.83576L15.3358 22.567c-.154.3476-.2147 1.0024.4814 1.3154.6919.3403 1.1594-.225 1.2378-.3752l8.5117-13.806c.5778-.94708 1.4249-1.48629 2.4445-.99816 1.2201.58722.9189 1.80586.7825 2.20946l-4.3311 10.8718c-.8986 2.2141.8497 2.5851 1.6142 2.5851h2.0169l3.3124-8.1016.2432 12.0838-9.4772 10.4375z"/>
</svg>
