<svg xmlns="http://www.w3.org/2000/svg" viewBox="0 0 40 40">
	<path fill="#C8AF64" d="m24.4602.611825.0211 5.316445V19.6202c.021 1.3292 1.1778 2.4472 2.4817 2.4472 1.3251 0 2.4608-1.1392 2.4608-2.4894V8.67087c3.2389 2.72153 5.3001 6.79323 5.3001 11.37133 0 8.2067-6.6671 14.8944-14.8486 14.8944-8.1184-.0211-14.78555-6.6877-14.78555-14.8944 0-4.4937 1.99804-8.5232 5.15285-11.24475V19.578c0 1.3502 1.0937 2.4894 2.4607 2.4894 1.3461 0 2.5028-1.1392 2.5028-2.4894V.654015C6.47786 2.7848 0 10.654 0 20.0422 0 31.0759 8.93861 40 19.9383 40c10.9367 0 19.8964-8.9241 19.8964-19.9578 0-9.4515-6.5831-17.38398-15.3745-19.430375ZM19.8753 22.0674c-1.3672 0-2.4818-1.118-2.4818-2.4683V2.48945C17.3935 1.11815 18.5081 0 19.8753 0h2.4818v19.5991c0 1.3503-1.1358 2.4683-2.4818 2.4683Zm0-18.81845c-.4417 0-.7993-.37975-.7993-.82279 0-.46413.3576-.82279.7993-.82279.4627 0 .8202.35866.8202.82279 0 .44304-.3575.82279-.8202.82279Z"/>
</svg>