<svg xmlns="http://www.w3.org/2000/svg" viewBox="0 0 40 40">
	<radialGradient id="gr1" cx="23.4717" cy="38.8183" r="30.1264" gradientTransform="matrix(1 0 0 -1 0 41.6)" gradientUnits="userSpaceOnUse">
		<stop offset="0" stop-color="#ffdf4f"/>
		<stop offset=".1374" stop-color="#ffd137"/>
		<stop offset=".3217" stop-color="#ffc31a"/>
		<stop offset=".44" stop-color="#febe10"/>
		<stop offset=".6086" stop-color="#fcba12"/>
		<stop offset=".7543" stop-color="#f5af15"/>
		<stop offset=".8911" stop-color="#ed9f18"/>
		<stop offset=".9" stop-color="#ed9d19"/>
		<stop offset="1" stop-color="#e0861a"/>
	</radialGradient>
	<path fill="url(#gr1)" d="M10.7 2.8s-.2 0 0 0L2.8 16.4.3 20.6 0 21l7.4 13c-.1-.3-.3-.6-.3-.7-.3-.7-.4-1.8-.4-2.6.1-2.5 1.5-5 2.2-6.1 1.6-2.8 4.7-8 4.7-8s3.1-5.3 4.7-8c.7-1.2 2.2-3.5 4.2-5 .7-.6 1.8-.9 2.5-.9h4.5c-.2.1-18.8.1-18.8.1z"/>
	<radialGradient id="gr2" cx="2.1307" cy="16.7307" r="30.7343" gradientTransform="matrix(1 0 0 -1 0 41.6)" gradientUnits="userSpaceOnUse">
		<stop offset="0" stop-color="#ffdf4f"/>
		<stop offset=".1374" stop-color="#ffd137"/>
		<stop offset=".3217" stop-color="#ffc31a"/>
		<stop offset=".44" stop-color="#febe10"/>
		<stop offset=".6086" stop-color="#fcba12"/>
		<stop offset=".7543" stop-color="#f5af15"/>
		<stop offset=".8911" stop-color="#ed9f18"/>
		<stop offset=".9" stop-color="#ed9d19"/>
		<stop offset="1" stop-color="#e0861a"/>
	</radialGradient>
	<path fill="url(#gr2)" d="M37.5 25.1c-.4.6-1.2 1.3-2 1.8-2.2 1.1-5.1 1.1-6.4 1.1H10.7c-1.3 0-4.1-.1-6.4-1.2-.9-.4-1.6-1-2-1.8-.3-.4-1-1.6-1.9-3.2L2.3 25l7 12.3h21.2l9.2-16.1c-.9 1.9-1.7 3.5-2.2 3.9M0 21.3c.1.1.3.4.3.6l-.3-.6z"/>
	<radialGradient id="gr3" cx="32.9289" cy="8.3311" r="30.8295" gradientTransform="matrix(1 0 0 -1 0 41.6)" gradientUnits="userSpaceOnUse">
		<stop offset="0" stop-color="#ffdf4f"/>
		<stop offset=".1374" stop-color="#ffd137"/>
		<stop offset=".3217" stop-color="#ffc31a"/>
		<stop offset=".44" stop-color="#febe10"/>
		<stop offset=".6086" stop-color="#fcba12"/>
		<stop offset=".7543" stop-color="#f5af15"/>
		<stop offset=".8911" stop-color="#ed9f18"/>
		<stop offset=".9" stop-color="#ed9d19"/>
		<stop offset="1" stop-color="#e0861a"/>
	</radialGradient>
	<path fill="url(#gr3)" d="M24.7 2.8c-.7.1-1.8.4-2.5.9-.9.6-1.6 1.3-2.3 2 .9 1 1.6 2.2 1.9 2.8 1.6 2.8 4.7 8 4.7 8s3.1 5.3 4.7 8c.7 1.2 2 3.6 2.2 6.1 0 1-.1 1.9-.4 2.6-.1.4-1 2-2 3.8l9-15.8L29.3 2.8h-4.6"/>
</svg>
