<svg xmlns="http://www.w3.org/2000/svg" viewBox="0 0 40 40">
	<path fill="#cd163a" d="M39.4 18.8c-.4-.3-.8-.5-1.3-.4h-2.9c-.3-2.8-1.4-5.5-3.1-7.7l2.2-2.2c.4-.3.6-.8.6-1.2 0-.5-.1-.9-.4-1.3-.4-.3-.8-.4-1.3-.4s-.9.3-1.2.6l-2.2 2.2c-2.2-1.8-5-3-7.9-3.3V2c0-.5-.1-1-.4-1.3-.3-.4-.8-.7-1.2-.7-.5 0-.9.3-1.2.6-.4.4-.5.9-.5 1.4v3.2c-2.9.3-5.6 1.5-7.8 3.3L8.5 6.1c-.3-.4-.7-.6-1.2-.6-.5-.1-1 .1-1.3.4-.3.3-.5.8-.4 1.3 0 .5.3.9.6 1.2l2.4 2.4c-1.7 2.2-2.8 4.9-3.1 7.7H2c-.5 0-1 .1-1.3.4-.4.2-.7.7-.7 1.2s.3.9.6 1.2c.4.3.9.5 1.4.4h3.5c.3 2.8 1.4 5.5 3.3 7.8l-2.3 2.3c-.5.2-.7.7-.7 1.1 0 .5.1.9.4 1.3.4.3.8.4 1.3.4s.9-.3 1.2-.6l2.2-2.3c2.2 1.7 4.8 2.8 7.6 3.1V38c0 .2 0 .5.1.7l.3.6c.2.2.3.3.6.4.2.1.4.2.7.2.5 0 .9-.3 1.2-.6.3-.4.5-.8.4-1.3v-3.2c2.8-.3 5.5-1.4 7.7-3.1l2.2 2.2c.3.4.7.6 1.2.6s.9-.1 1.3-.4c.3-.4.4-.8.4-1.3s-.3-.9-.6-1.2l-2.1-2.1c1.8-2.2 3-4.9 3.3-7.8H38c.5 0 1-.1 1.3-.4.4-.3.7-.8.7-1.3 0-.4-.3-.9-.6-1.2zm-20.6-8.4v5c-.4.1-.8.3-1.2.5l-3.5-3.5c1.4-1 3-1.7 4.7-2zm-6.2 3.7 3.5 3.5c-.3.4-.4.9-.6 1.4h-4.9c.2-1.8.9-3.5 2-4.9zm-2 7.2h5c.1.5.3 1 .6 1.4l-3.5 3.5c-1.2-1.4-1.9-3.1-2.1-4.9zm3.8 6.5 3.5-3.5c.3.2.7.3 1 .4v4.9c-1.7-.2-3.2-.8-4.5-1.8zm12-15.3L22.9 16c-.5-.3-1.1-.6-1.7-.7l-.1-4.9c2 .1 3.8.9 5.3 2.1zm-5.2 17.2v-4.9c.5-.1 1.1-.3 1.5-.6l3.5 3.5c-1.4 1.2-3.1 1.9-5 2zm6.7-3.6-3.5-3.5c.3-.4.4-.9.6-1.3h4.9c-.2 1.7-.9 3.4-2 4.8zM25 19c-.1-.5-.3-.9-.5-1.3l3.5-3.5c1.1 1.4 1.7 3.1 1.9 4.8H25z"/>
</svg>