<svg viewBox="0 0 40 40" xmlns="http://www.w3.org/2000/svg">
	<path fill="#384249" d="M14.3498 35.2956H3.21675v-4.7045H14.3251v4.7045h.0247zm2.2413-7.069H1V40h2.21675v-2.3645H16.5419v-9.4089h.0492zM3.21675 7.06897l4.45813-4.70444V18.8424H3.21675V7.06897zM1 21.1823h8.86699V0H6.5665L1 5.8867v15.2956zM14.3498 2.36453h4.4581V18.8424h-4.4581V2.36453zM12.133 21.1823H21V0h-8.867v21.1823zm24.4089 0h2.2167V0h-3.3497v.0246305L32.0591 3.5468V0h-3.3497l-5.5173 5.8867v15.2956h2.2168V7.06897l4.4581-4.70444V21.1823h2.2167V7.06897l4.4582-4.70444V21.1823zM1 25.8867h37.7832v-2.3645H1v2.3645zm28.8916 4.7044h6.6503v4.7045h-6.6503v-4.7045zm-2.2167 4.7045H21v-4.7045h6.6749v4.7045zm2.2167 2.3399h8.8916v-9.4089H18.8079v9.4089h8.867V40h2.2167v-2.3645z"/>
</svg>
