<svg xmlns="http://www.w3.org/2000/svg" viewBox="0 0 40 40">
	<path fill="#FFDB00" d="M39.9979 39.7803c0 .1166-.0645.2197-.1374.2197H.137426C.0644074 40 0 39.8967 0 39.7803V.219718C0 .103115.0645446 0 .137426 0H39.8605c.0728 0 .1374.102935.1374.219718V39.7803Z"/>
	<path fill="#333" d="m16.3443 11.7331.0091 6.4963c0 .1197.1085.2257.2312.2257l6.7869.0177c.1082.0004.2076.082.2267.1858l.3174 1.7525c.0249.1359-.0852.2649-.2267.2655l-7.1179.0044c-.1227 0-.2312.1059-.2312.2257l.0226 7.3991c0 .1191.1082.2257.2313.2257l9.022-.0045c.1208 0 .2289.1024.2312.2213l.0227 1.894c.0025.1247-.1035.2301-.2312.2301l-12.0551.0045c-.1231 0-.2312-.1066-.2312-.2257l.0045-21.24582c0-.11975.1085-.22569.2312-.22569l11.6018.00442c.1226 0 .2312.10595.2312.22569l.0181 1.8807c0 .1198-.1085.2257-.2312.2257l-8.6322-.0088c-.1259 0-.2312.1027-.2312.2257Z"/>
</svg>