<svg xmlns="http://www.w3.org/2000/svg" viewBox="0 0 40 40">
	<path fill="#FF8200" d="M22.1528.143315C31.4172 1.076 38.9307 8.46467 39.879 17.5777c1.3861 12.482-9.3372 23.0281-22.03 21.6655C8.58454 38.3105 1.0709 30.9218.122575 21.8111-1.19043 10.0434 8.21985 0 19.9644 0c.7073 0 1.4145.0682451 2.1219.13649l.0665.006825ZM21.4233 36.5179c8.3161-.646 15.0273-7.2476 15.6837-15.4256.8754-10.4028-7.9513-19.08362-18.5285-18.22146-8.3161.64378-15.02732 7.24536-15.68389 15.42336-.80245 9.9729 7.14899 18.2943 17.06979 18.2943.5106 0 .9483 0 1.4589-.0706Zm12.8386-18.2237c-.0026-.025.0026-.0477 0-.0728v.0728ZM20.0371 5.66662c7.4152 0 13.4616 5.48458 14.2248 12.55478H16.4627v2.8709h17.7992c-.7295 7.102-6.8571 12.6253-14.2248 12.6253-8.2431 0-14.80837-6.8154-14.29781-14.9934.5107-6.8154 6.05471-12.41153 12.98461-12.98479.4378-.07279.8754-.07279 1.3132-.07279Zm.4713 4.92048c-.2348.2548-.4054.5664-.4713.8917-.2189 1.2193.7295 2.2953 1.9695 2.2953h.3647c.4128-.0819.8022-.3002 1.0888-.6187.2201-.2434.3798-.546.4432-.8872.2189-1.3649-.9483-2.58422-2.3343-2.29759-.3994.07739-.7768.30709-1.0606.61649Z"/>
</svg>