<svg xmlns="http://www.w3.org/2000/svg" viewBox="0 0 40 40">
	<g fill="#8c261e">
		<path d="M25.2.3c-.9-.1-2-.3-2.9-.3-3.5 0-6.8.9-10 2.4C9 4 6.1 6.4 3.8 9.2l4.5 4.7c.7-1.1 1.5-1.9 2.4-2.8L8.5 9c1.9-1.7 4-3.2 6.3-4.1 2.1-.9 4.5-1.5 7-1.5.8 0 1.7 0 2.5.1 7.9 1.1 12.8 8.6 11.5 16.5-.7 4.5-3.2 8.7-6.7 11.8-3.5 2.9-7.9 4.8-12.6 4.8-4.5 0-9-1.9-11.5-5.5l3.1-2.4c-.7-.8-1.2-1.7-1.5-2.8L.4 30.7c1.3 2.8 3.5 5.2 6.3 7C9.3 39.2 12.5 40 16 40c5.5 0 10.8-2.3 15.1-5.9 4.1-3.6 7.2-8.6 8.2-14.2.8-4.9-.4-10.2-3.7-14.2C33 2.9 29.5.9 25.2.3z"/>
		<path d="M12.4 18.6h18.5c0-2.8-.9-5.4-2.8-7.2-1.7-1.7-4.3-2.8-7.2-2.8-3.2 0-6.3 1.3-8.8 3.5-2.4 2.1-4.3 4.9-4.7 8.3-.1.4-.1 1.1-.1 1.6 0 2.5.8 4.7 2.3 6.4 1.5 1.7 3.5 2.9 6 3.3.5.1 1.2.1 1.7.1 2.9 0 5.8-1.1 8.2-2.8 2.4-1.9 4.1-4.3 5.1-7.2H11.9c.1 1.2.5 2.3 1.2 3.2h12l-.1.2c-.1.1-.1.3-.3.3-.9.9-2 1.7-3.2 2.3-1.2.5-2.4.8-3.6.8-2.1 0-4.1-.8-5.5-2.3-1.1-1.2-1.6-2.8-1.6-4.5 0-.4 0-.8.1-1.3.4-2.3 1.6-4.4 3.3-5.9s4-2.4 6.3-2.4c1.3 0 2.5.3 3.7.9 1.1.5 1.9 1.5 2.4 2.5H14.8c-1.1.7-1.9 1.8-2.4 3z"/>
	</g>
</svg>
