<svg xmlns="http://www.w3.org/2000/svg" viewBox="0 0 40 40">
	<path fill="#b4241c" d="M22.2 6.5l4.1 3.3c.6-.8 1.1-1.5 1.7-2.4l-4.1-3.3c-.5.9-1.1 1.7-1.7 2.4zm13.7 7c-.5.9-1.1 1.7-1.6 2.4l4.1 3.3c.6-.8 1.1-1.5 1.6-2.4l-4.1-3.3z"/>
	<path fill="#c23f31" d="M19.9 9.2l4.1 3.3c.7-.7 1.3-1.3 2-2.2L21.8 7c-.5.9-1.2 1.6-1.9 2.2zm13.9 7.2c-.7.8-1.3 1.5-2 2.2l4.1 3.3c.7-.7 1.3-1.3 2-2.2l-4.1-3.3z"/>
	<path fill="#da8c97" d="M18.5 10.4c-.5.4-1 .7-1.5 1.1l4.2 3.3.1-.1c.8-.5 1.5-1.1 2.3-1.7l-4.1-3.3c-.4.2-.7.5-1 .7zM31.4 19c-.3.3-.7.5-1 .8-.5.4-1 .7-1.5 1.1l4.1 3.3.1-.1c.8-.5 1.5-1.1 2.3-1.7l-4-3.4z"/>
	<path fill="#edcdcd" d="M13.7 13.3l4.2 3.3 2.7-1.5-4.1-3.2c-.9.4-1.8.9-2.8 1.4zm14.7 7.9c-.8.5-1.7 1-2.8 1.4l4.2 3.3 2.7-1.5-4.1-3.2z"/>
	<path fill="#da8d8d" d="M10 14.9l4 3.2c.1 0 .2-.1.3-.1 1-.3 1.9-.7 2.9-1.2L13 13.6c-.9.4-1.8.9-3 1.3zM25 23c-1 .5-1.9.9-3 1.3l4 3.2c.1 0 .2-.1.3-.1 1-.3 1.9-.7 2.9-1.2L25 23z"/>
	<path fill="#c52e1a" d="M8 15.8c-.6.2-1.2.5-1.6.8l4.1 3.3c.9-.6 1.8-1.1 2.9-1.4l-4-3.2c-.5.1-.9.3-1.4.5zm13.3 8.8c-.5.2-.9.4-1.3.6-.6.2-1.2.5-1.6.8l4.1 3.3c.9-.6 1.8-1.1 2.9-1.4 0-.1-4.1-3.3-4.1-3.3z"/>
	<path fill="#a6201c" d="M3.6 18.9l4.1 3.3c.7-.8 1.4-1.4 2.2-2l-4.1-3.3c-.8.6-1.6 1.3-2.2 2zm14.2 7.4c-.8.6-1.5 1.3-2.2 2l4.1 3.3c.7-.8 1.4-1.4 2.2-2l-4.1-3.3z"/>
	<path fill="#a01f1c" d="M1.5 21.8L5.7 25c.5-.9 1.1-1.7 1.6-2.4l-4.1-3.3c-.6.9-1.2 1.7-1.7 2.5zm13.7 6.9c-.6.8-1.2 1.5-1.6 2.4l4.1 3.2c.5-.9 1.1-1.7 1.6-2.4l-4.1-3.2z"/>
	<path fill="#791d19" d="M0 25.1l4.1 3.3c.1-.5.3-1.2.6-1.8.2-.4.4-.7.6-1.1l-4-3.1c-.5.9-.9 1.7-1.3 2.7zm13.2 6.6c-.5.9-.9 1.7-1.3 2.8l4.1 3.3c.1-.5.3-1.2.6-1.8.2-.4.4-.7.6-1.1l-4-3.2z"/>
	<path fill="#dfaf1f" d="M28.2 11.2c.6-.8 1.1-1.5 1.6-2.4l4.1 3.3c-.5.9-1.1 1.7-1.6 2.4 0-.1-4.1-3.3-4.1-3.3z"/>
	<path fill="#f0d24f" d="M25.9 13.8c.7-.7 1.3-1.3 2-2.2l4.1 3.3c-.7.8-1.3 1.5-2 2.2l-4.1-3.3z"/>
	<path fill="#f6da82" d="M23 16.1c.6-.4 1.1-.7 1.5-1.1.3-.2.7-.5 1-.8l4.1 3.3c-.8.7-1.5 1.2-2.3 1.7l-.1.1-4.2-3.2z"/>
	<path fill="#fff8be" d="M19.6 17.9c1.1-.5 1.9-1 2.8-1.4l4.1 3.3c-.9.6-1.8 1.1-2.7 1.5l-4.2-3.4z"/>
	<path fill="#f6de73" d="M16 19.6c1.1-.5 2.1-.9 3-1.3l4.2 3.3c-1 .5-1.9.9-2.9 1.2-.1 0-.2.1-.3.1 0-.1-4-3.3-4-3.3z"/>
	<path fill="#e4a922" d="M12.3 21.2c.5-.3 1.1-.6 1.6-.8.5-.2 1-.4 1.3-.6l4 3.2c-1.1.4-2 .9-2.9 1.4.1 0-4-3.2-4-3.2z"/>
	<path fill="#c6972c" d="M9.5 23.6c.7-.8 1.4-1.4 2.2-2l4.1 3.3c-.8.6-1.5 1.2-2.2 2 .1-.1-4.1-3.3-4.1-3.3z"/>
	<path fill="#c48422" d="M7.5 26.4c.5-.8 1.1-1.7 1.6-2.4l4.1 3.3c-.6.7-1.2 1.5-1.6 2.4l-4.1-3.3z"/>
	<path fill="#b86821" d="M10.1 33.1L6 29.8c.4-1 .8-1.9 1.2-2.8l4 3.2c-.2.3-.4.7-.6 1.1-.1.6-.4 1.3-.5 1.8z"/>
	<path fill="#d9a41f" d="M30.2 8.4c.5-.8 1.1-1.7 1.4-2.7L35.7 9c-.4.9-1 1.8-1.3 2.6 0-.1-4.2-3.2-4.2-3.2z"/>
	<path fill="#d5931f" d="M31.9 5.1c.5-.9.8-1.9 1.1-2.9l4.1 3.3c-.3 1-.7 2-1.2 2.8l-4-3.2z"/>
</svg>
