<svg viewBox="0 0 40 40" xmlns="http://www.w3.org/2000/svg">
	<path fill="#EB1C2D" d="M10.0685 28.1882H0V40h11.5826V29.7084c0-.8947-.6243-1.5202-1.5141-1.5202ZM15.5028 0H0v11.8118h15.5925c6.7714 0 12.2953 5.5489 12.2953 12.3489V40h11.7608V24.2505C39.5601 10.8274 28.7788 0 15.5028 0Zm-.1782 14.0486H0v11.8131h10.6019c.4461.0012.8872.0897 1.2984.2604.4112.1707.7851.4224 1.0991.7377.314.3153.5632.6904.7339 1.1016.1695.4124.2567.8535.2555 1.2984v10.739h11.5825V24.3402c0-5.6374-4.5433-10.2904-10.2467-10.2916Z"/>
</svg>