<svg xmlns="http://www.w3.org/2000/svg" viewBox="0 0 40 40">
	<path fill="#015289" d="M40 20c0 3.9556-1.173 7.8224-3.3706 11.1114-2.1976 3.289-5.3212 5.8524-8.9758 7.3662-3.6544 1.5137-7.6758 1.9098-11.5554 1.1381-3.8796-.7717-7.4433-2.6766-10.24037-5.4735-2.79706-2.7971-4.70186-6.3608-5.473564-10.2404-.771658-3.8796-.37556306-7.901 1.138124-11.5554 1.51384-3.65463 4.07725-6.77818 7.36617-8.97578C12.1776 1.17303 16.0444 0 20 0c5.3044 0 10.3914 2.10706 14.1422 5.85782C37.8928 9.60858 40 14.6956 40 20Z"/>
	<path fill="#fff" d="M18.9831 8.93878s1.5904 1.03189.5385 2.32792c-1.0519 1.2962-1.8047 1.6053-1.8894 2.4427 0 0-.7228-.7577.2193-1.8245.9423-1.0668 1.8396-1.64 1.1316-2.94612Zm1.1265 2.23322s-.0797.8326-1.3858 1.6201c-1.3061.7877-.6929 1.0868-.7078 1.022-.0149-.0648 1.8245-.1844 2.0936-2.6421Zm-2.7367-2.69688s.6532-.11462.6929.20439c.0948.78756-.7875 1.43569-1.7796 2.28309-1.1915 1.022-1.0418 1.3559-1.0568 1.4159-.015.0597-.8026-.8326.1595-1.7448.005 0 1.67-1.21144 1.984-2.15858Zm-.2044 0-2.2183 2.15358s-.1745-1.71492 2.2183-2.15358ZM34.292 30.6735h-3.0956c-.0905-.0072-.1754-.047-.2387-.1121-.0633-.0652-.1007-.1512-.1053-.2418v-8.8834c0-2.6072-.4087-3.4895-1.9441-3.4895-1.022 0-2.5224.8724-3.7837 1.9592v10.4137c-.0046.0906-.0419.1766-.1052.2418-.0634.0651-.1481.1049-.2387.1121h-3.1156c-.0907-.0072-.1754-.047-.2387-.1121-.0634-.0652-.1008-.1512-.1053-.2418V15.3645c.0045-.0908.0419-.1766.1053-.2419.0633-.0651.148-.105.2387-.1122h2.8614c.0905.0072.1753.0471.2387.1122.0632.0653.1006.1511.1051.2419v1.4954c1.5555-1.3559 3.3701-2.318 5.1297-2.318 3.1056 0 4.6361 1.8095 4.6361 5.6979v10.0798c-.0055.0903-.0433.1757-.1064.2406-.0631.065-.1474.1052-.2377.1133ZM13.7886 8.72936c-.6443-.13657-1.3004-.20836-1.959-.21431-4.42679 0-5.36402 2.49255-5.36402 5.57325v16.2313c.00564.0903.04344.1757.10654.2406.0631.065.14739.1052.23747.1133h3.09078c.09099-.007.17653-.0467.24053-.1118.0642-.0649.1027-.151.1084-.2421V17.892h2.2383c.0911-.0072.1765-.0468.2406-.1119.0642-.065.1026-.1511.1084-.2422v-2.1834c-.0047-.0915-.0428-.1781-.1072-.2433-.0643-.0652-.1504-.1047-.2418-.1107h-2.2333v-.9072c0-1.8993.5583-2.4925 2.019-2.4925.2438.0018.4872.0236.7278.0648.0906.0024.18-.0224.2563-.0714.0765-.0489.1364-.1194.1724-.2028.0348-.1445.4237-1.58032.6082-2.25828.0181-.08643.0024-.17651-.0439-.25165-.0464-.0753-.12-.12971-.2055-.15211Zm6.2863 21.59024V15.3644c-.0064-.0947-.0435-.1848-.1055-.2567-.062-.0719-.1457-.1218-.2385-.1421-1.8218-.2102-3.6618-.2102-5.4835 0-.0924.0194-.176.0682-.2381.1393-.062.0711-.0992.1604-.1059.2546v2.1834c.0026.089.0402.1735.1045.235.0644.0616.1503.0953.2395.0941.6828-.05 1.3709-.0799 2.0587-.0898v12.5374c.0058.0911.0442.1771.1084.2421.0642.0651.1495.1048.2407.1118h3.0956c.0866-.0125.1662-.0546.2252-.1191.0591-.0646.094-.1475.0989-.2348Z"/>
</svg>