<svg viewBox="0 0 40 40" xmlns="http://www.w3.org/2000/svg">
	<path fill="#D6B36A" d="M5.10614 18.4334h7.36576c-.0193-1.5052.0685-2.0762.5211-2.8941h7.3422c-.0162.0186-6.705 8.2912-8.3418 10.0777-1.6395 1.7892-2.18461 2.8658-3.35833 2.8237-1.1776-.0422-2.00625-1.3227-2.00625-3.3258H0c.174473 1.1733.992679 3.7281 3.91462 4.2272 2.91846.4982 5.51196.2166 5.7433.3563.23134.1396 1.66308.3284 2.67278.222 1.0101-.1068 3.0566-.1369 4.8837-1.8082.9629.7587 2.2109 1.9912 5.9696 1.9912 3.7537 0 7.56-2.0024 8.6854-4.7827 1.1254-2.7804-.643-5.2311-3.0751-5.8764-2.433-.6457-4.0056-.3482-4.0056-.3482l2.9618-3.5734h8.8239L40 10.292H17.9019c-2.0836.0019-4.6071 1.1942-5.8679 3.1513-3.53743.5238-5.79746 2.0643-6.92786 4.9901Zm20.85516-6.6381h10.7581l-1.0669 1.6395H24.6003l1.361-1.6395Zm-11.3864 1.6446c.5517-.6148 1.9695-1.6442 3.3691-1.6442h5.5008l-1.373 1.6442h-7.4969Zm-3.792 2.1134c-.2793.7837-.3613 1.128-.4201 2.0623H7.7627c.3238-.5969 1.09094-1.6155 3.0202-2.0623Zm7.0223 6.0914 5.079-6.1069h2.0005l-4.8559 5.8218c-1.5969.0078-2.2236.2851-2.2236.2851ZM6.50425 28.6295c-.8066-.0085-1.22131-.0635-2.11728-.4287-.89557-.3652-1.86233-1.3331-2.07781-2.0704h2.3579c.05571.3992.23366.8046.62091 1.3656.38879.5636.77836.7714 1.21628 1.1335Zm4.82725.1791c1.7482-1.1443 3.3602-3.1962 4.1974-3.9576-.0275.6971.14 1.1923.3025 1.5618-1.0913 1.0391-2.7865 2.6089-4.4999 2.3958Zm6.9336-1.8593 3.2721-3.9382s.7505.3401 1.1373.8356c.3881.4968.4747 1.2651.4747 1.2651h2.6956c-.1207-.5943-.5369-1.5068-1.1888-2.1165-.6541-.6117-1.2898-1.0368-2.094-1.2179l1.0371-1.248s2.1467-.1431 3.1665.371c1.0851.547 2.5242 1.7533 2.094 3.8245-.4298 2.0678-3.325 3.3935-4.8492 3.5757-1.5204.1819-2.5007.1969-3.6748-.2336-1.1764-.4306-2.0705-1.1177-2.0705-1.1177Zm.6944-4.2863-1.9977 2.3915c-.0576.0677-.4062-.8816.3505-1.8116.759-.9324 1.6472-.5799 1.6472-.5799Z" clip-rule="evenodd"/>
</svg>