<svg xmlns="http://www.w3.org/2000/svg" viewBox="0 0 40 40">
	<path d="M5.9 5.8L10 9.9c2.7-2.6 6.3-4.2 10.1-4.2s7.4 1.5 10.1 4.2l4.1-4.1C30.5 2.1 25.3 0 20.1 0 14.8 0 9.7 2.1 5.9 5.8" fill="#b91c6b"/>
	<g fill="#106e53">
		<path d="M15.3 27.1c1.4.9 3.1 1.4 4.7 1.4 2.3 0 4.4-.9 6.1-2.5 1.6-1.6 2.5-3.8 2.5-6 0-1.7-.5-3.4-1.4-4.8s-2.3-2.5-3.8-3.1-3.3-.8-4.9-.5c-1.6.3-3.2 1.1-4.4 2.3-1.2 1.2-2.1 2.7-2.4 4.4-.3 1.6-.2 3.4.5 4.9.6 1.6 1.6 2.9 3.1 3.9z"/>
		<path d="M33.2 25.5c-.7 1.7-1.7 3.4-3.1 4.7-1.3 1.3-2.9 2.3-4.6 3-1.7.7-3.6 1.1-5.4 1.1s-3.7-.4-5.4-1.1-3.3-1.7-4.6-3-2.4-3-3.1-4.7-1.2-3.6-1.2-5.5H0c0 5.3 2.2 10.4 5.8 14.1C9.6 37.9 14.7 40 20 40s10.4-2.1 14.2-5.9S40 25.3 40 20h-5.7c.1 1.8-.4 3.8-1.1 5.5z"/>
	</g>
</svg>
