<svg viewBox="0 0 40 40" xmlns="http://www.w3.org/2000/svg">
	<path fill="#fff" d="M5.4351 14.8098l.19211-1.4384.28478-1.338.4769-.6709.28285-1.43263.57342-1.14686.76168-.29058 1.23664-.0946s2.00122.28671 2.28892.28671c.2838 0 2.5495.09943 2.5495.09943l1.8101-.29057.9528.57343.474 1.72217 1.143 2.3951s.2848 1.144.4788 1.4326c.1882.2867 1.143 3.9995 1.4278 4.1888.2857.1911 3.316 1.8197 3.316 1.8197l2.5727-.4798.3794-1.5301 1.2405-.4798 1.9008 1.2405s1.9037 4.8828 2.0987 5.1705c.1815.2886.2655 3.1355.2655 3.1355v1.6276l1.3332 1.4346s-.6604-.9432.2876 0c1.4297 1.4355 11.317-7.3455-.1023-16.6063l-1.6006-.0936-1.6604.0193-1.5407-.9046-.3109-.5107-.0183-1.6449 1.6218-.3601.7221-.2279.6034.1642 1.4017 1.6256.948 1.1527.9846.9094 3.6935 4.541 1.0783 3.0931-.7713 5.3906-2.7658 3.7881-4.4474 1.1594-5.2922.6236h-15.217L.747276 32.5146l-.429588-1.5812.805112-1.2232 2.24448-1.1111 1.30035.4972.31278-.5184 1.55714-4.3085-.96827-3.4463.04248-.8109.55026-1.2444-.72692-3.958z"/>
	<path fill="#FF6200" d="M32.4788 13.0557c-.1448-.2828-.4141-.4228-.6178-.4228-.2105-.2819-.4923-.6342-.7713-.6342.2094 0 .4923-.2143.8427-.2143.1323.3504.4007.5666.4731.8485l.0733.4228zM40 23.7018c0-3.1094-1.2637-6.2179-3.5188-8.4585-.9846-.9857-2.1083-1.4819-2.953-2.4704-.419-.4219-.7714-.8466-1.0494-1.4133-.3543-.3524-.5454-.5638-.9663-.7781l.2085.6362h-.0695c-.3514 0-.7037-.2105-.9856-.4219l.2809-.2867c-.0657-.1371-.2809-.1371-.4219-.1371-1.1208-.2133-2.1788.4238-3.3025.6352v.14c.7047.2134.8418 1.06 1.2637 1.4867h.4218c.1439 0 .3534.14.4972.14 0-.14-.1429-.4219-.1429-.4219.1429-.1448.2809-.1448.4229 0 .3523.2104.8417-.1448 1.197.4219-.4228 0-.8447 0-1.197.2133 0 .0695.2114.2105.1409.3504-.3514-.1399-.7733 0-.9171-.2809l-.0666.0695c.4539.517 1.0344.9072 1.6846 1.1324.9132.1429 1.6691-.2867 2.5842-.0724 3.2321 1.5552 5.4882 5.2053 5.4882 8.8814 0 5.2072-2.9521 7.3252-4.8549 7.3252-.3533 0-.9094-.2114-1.1333-.4248.223-.7781.362-1.6247.362-2.8961 0-3.0158-1.1797-6.2623-2.7957-7.9614-.7713-.7742-1.616-1.4113-2.5302-1.4113-.4229 0-.8467 0-1.1276.3543-.3504.2828-.5618.8447-.4923 1.198-.5599.4247-1.4761.6362-2.1798.6362-.7742 0-1.7367-.2819-2.6509-.9895v-1.0571c-.2124-.0695-.9123-.4924-.5619-.8293.2095.0724.3495.1892.4209.2636-.0704-.4731-.0704-1.0407-.4209-1.4616-.1409 0-.3504 0-.5618-.1438-.2114-.2134-.4228-.4982-.4228-.8505.2114.3523.5589.2153.7722.4238-.3504-.8428-.2133-1.199-.8437-2.4704-.1438-.6381-.7732-.9885-1.198-1.4133-.2124-.1419-.2809-.3524-.5618-.3524-.279-.0724-.279-.4267-.279-.6352.0685 0 .279.1371.4189.2085-.4189-.98849-.7018-2.0446-1.616-2.59196l-.2056.1197h-1.1256c.1342-.1197.417-.18728.6304-.33208-.2144-.21142-.3495-.28382-.7772-.28382-.2104.0724-.4913.28382-.7703.28382h-.0705c0-.21142-.0647-.49331.3495-.63329-.4152-.07047-.754-.07047-1.2444 0-.0695.34947-.2829.56378-.2829.84567-.2114.1197-.278.33208-.4923.54736 0-.42766.2143-.82925.2809-1.25305-.2809.07241-.6294.28189-.7732.28189C11.3025 7.28285 10.5978 7 10.3159 7c.4209.28285.2085.77616.2809 1.10824l-.2809-.12067c-.0724-.28092-.42088-.49523-.49232-.8447-.42186 0-.70279.13998-1.05804.34947v.0724c.21334 0 .49426.21142.63617.42283-.49233 0-.84276-.21141-1.3351-.21141l-.07337-.06951c-.20659.06951-.42089.28092-.55798.40159-.4933.42766-.84373.78002-1.059 1.41137.1419 0 .35332 0 .42475.0724-.28285.07144-.42476.42379-.70471.49809v1.0562c-.20949.2133-.49234.4237-.63232.8524-.34946 1.1256-.42187 2.4008-.42187 3.8132-.07047.279-.19597.3494-.33112.4209v1.114s.40353-.4074.61494-.5464v.8968c-.28285 0-.47882.3543-.47882.5638 0 .2819.06082.5667.06082.8476 0 .1409 0 .1409.06468.2819 0-.141.14191-.2819.35332-.3495 0 0 .13902-.1448.41898-.1448-.21238.2124-.27997.4943-.41898.7791l-.21141.2114-.07144.2114c.28285 1.4838.70183 2.7581 1.2656 4.1685-.56377.918-1.19319 2.6644-1.59672 4.3576-.35236-.3494-.84663-.4228-1.26656-.4228-.42283.0734-.84084.2143-1.12562.6362-.41994-.2134-.98371-.1429-1.26463.1429-.632317.5618-.632316.8466-.632316 1.2704C.281891 30.3918 0 30.7451 0 31.2384c0 .6333.0695099 1.062.422834 1.6248H11.0901c-.0675-.2105-.2104-.4953-.3504-.6343-.2133-.4238-.0676-.9895-.0676-1.4123.2086-.4238.419-.8505.7019-1.199.0685-.2153 0-.2153.0685-.2848l.4923-.1429c.2839 0 .4933-.2094.8457-.2094.2114.3523.2114-.2134.5628-.3563.753-.1361 1.5243 0 1.951.5657 0 .1429.0657.1429.0657.2134h-.3485c-.4248-.2134-.9162-.4228-1.3902-.2134 0 .2134-.0685.2134-.0685.4277v.3485c.279 0 .4721.2848.752.4257.14-.2114.5619-.4257.8409-.4257.3542 0 .8466.2153.8466.779v.7752c.2809.2848.6313.3524.9876.4982-.1429.2828-.3563.2828-.5619.2828h-.5676c-.0695-.0714-.2085-.0714-.2085-.2828-.2134.2828-.3495.5618-.4972.8456h8.2085c-.139-.2838-.2809-.4952-.3417-.6342-.1304-.4238-.1304-.9895-.1304-1.4124l.755-1.0619c.4218 0 .778-.138 1.5484-.2133.1381-.2095 0-.3524.6304-.3524.4894 0 .8447.1429.9837.2134.0714.14.0714.14 0 .2838-.139.1409-.4209-.1438-.6313-.0685-.141.138.0714.2094.0714.3494.14.141-.6314-.1409-.6314-.1409s-.1409.4238-.2152.5657l.4228.4238c.1419.2095-.2085.4228-.2085.6352-.141-.0714-.4229-.2867-.4229-.2134-.1419.5658 0 1.062-.0714 1.6248h.7762l.0685-1.1981c.0676-.7085.9123-1.979 1.4065-1.979.281 0 .4914.141.7009.281.1409.2838.4952.4247.4952.5647 0 .1429-.2133.2133-.5657.2133-.139 0-.139-.2133-.3485-.3523l-.4218.4228s.4923.4228.4923.7038c0 .3523-.0695.4981-.279.7085l-.4257-.8485c-.2114 0-.5609.4238-.5609.6371 0 .2829-.1438.4238-.1438.8457h4.3615c.4943.001.9161-.1409 1.3988-.4219h.8312c1.755 0 3.1664-.4962 4.4291-1.7666 1.6884-1.6942 2.6741-4.3779 2.6731-6.9719zm-15.2364 6.4786l-.7057.0695c.2829.141.2829.4943.2829.5657 0 .2095-.1419.4228-.2829.5638-.139-.141-.139-.3543-.279-.5638-.1419 0-.2114.3485-.2114.4943 0 .6352.279 1.1314.4904 1.5523h.6323c-.0685-.5628-.2104-1.059-.2104-1.6981 0-.3485.2104-.7732.2838-.9837zm-9.2637.8447c0-.2809-.2075-.3504-.4884-.3504-.1448 0-.4943.2124-.4943.3504 0 .2848-.1429 1.8371-.1429 1.8371h.4924c.2114-.6343.6332-1.4828.6332-1.8371zm-1.5407-.0705c-.0608 0 .0647.141-.6178-.5637-.141 0-.3514.4237-.3514.5637 0 .5638.14 1.3448.3514 1.9076h.556c0-.6343.0618-1.3438.0618-1.9076zm-1.1806 1.9076c-.3524-.6343-.4238-1.6247-.4238-1.8371 0-.3504 0-.8447.2153-1.199l-.7733.14c-.2114.2848-.2848.4257-.2848.5657l.3524-.14c.0685 0 .1419.14.2075.2829-.0647.3504-.4865.3504-.6304.4904-.2123.7066.4229 1.1353.4924 1.6981h.8447v-.001zM30.3859 11.571h-.7732c-.1391-.2114-.3505 0-.4885 0-.1439 0-.2163 0-.4953-.2114.4229 0 .6324-.2133.9838-.3524.2828.2105.5637.281.7732.5638zm-1.6875 8.1033c-.4933-.1409-.7703-.3533-1.196-.3533-.1381 0-.7694.2124-.8418.3533-.2115-.2838.139-.8466.4228-.9885.2809-.1429.419-.0705.5618 0 0 .4228.4914.2104.7704.3552.1448.2085.2133.3495.2828.6333zm-.0695 1.0619c-.4228 0-.4923-.0714-.7732-.0714-.3533 0-.7723.1429-.9857.4933-.138-.2819-.0714-.4219 0-.6343.2134-.2095.5657-.4971.8447-.4971.4914-.001.9142.3523.9142.7095zm1.617 1.5504c-.5618-.3514-1.4046-.559-1.8989-.559-.2818 0-1.1236.3466-1.4065.6304l-.1409-.6304c.4238-.0753.4238-.4257.7037-.4257.2134 0 .4924-.0753.7038-.0753.2104 0 .3543-.138.4228-.138.3504 0 .2124.3533.4228.3533.2095 0 .3524-.1409.4904-.1409.3524 0 .6333.5637.7028.9856zm.2134 1.5562c-.4943 0-.9857-.141-1.0542-.3514-.1429-.1439 0-.4248-.3524-.4248-.1428 0-.3533.2095-.3533.2095-.139.0714-.5618-.2095-.5618 0 0 .3543-.281.4972-.6343.4972-.138 0-.279 0-.4189-.0705v-.7067c.9103 0 .8446-.2847 1.2636-.2847.2819 0 .4943.1448.7047.1448.3524 0 .14-.1448.4904-.1448.3524 0 .4943.2847.7038.3562-.001.2075.2124.4904.2124.7752zm-.6343 1.5503c-.2133-.0675-.7018-.137-.7018-.3504 0-.2809-.1438-.3523-.4952-.3523-.2819 0-.4924.0714-.9133.2094 0 0-.2133-.277-.279-.5628.1381-.0704.7009-.2123.9799-.2123.4933 0 .9885 0 .9885.2123.001.2848.4209.3524.4209 1.0561zM17.5398 14.3262l-.141.7066-.5628.139.3524-1.5503c.1409.2799.3514.5637.3514.7047zm13.6203 13.5199c0 .4267 0 .5677-.2133.92l-.4219-.6352c.141-.2133.141-.4942.3553-.8466l.2799.5618zm-1.6865-.9161c-.4942 0-.2123-.9692-1.2675-.9692-.2114 0-.3495.3359-.6313.4054l.0714-.4749c0-.1448.0695-.4267.3485-.5657.5657 0 .4219.2114.8466.3581.2114.0618.3504.2076.6323.2076V26.93zm-4.431-4.0053c-.6285-.3543-.9856-.9895-1.5475-1.6237.5619 0 .7028.5637 1.1256.6332.1419.14.281.2134.4219.4229v.5676zm-6.0287-5.2275c-.4209 0-.6333-.2133-.8457-.6149 0-.2133-.0685-.4962 0-.8495.1439.2819.1439.4218.2838.5676.2819-.1458.2819.2095.3534.2819.0714.1911.2085.4016.2085.6149zm11.6529 12.0565c-.1409.2124-.1409.2124-.2075.4257 0-.3543-.4229-.5637-.7047-1.2009l.2828-.4923c.2095.1361.4895.3485.4895.7018 0 0-.0667.2134 0 .3524-.001.0762.1399.0762.1399.2133zm-1.4055-2.0475c0 .2838-.0696.3523-.1381.7066-.4952-.0714-.4952-.6352-.5638-.7066-.3543-.4229-.8447-.0695-1.1951-.0695-.1409-.4238.0714-.4238.0714-.7067.2095 0 .42-.1409.6285 0 .3504-.1409.5638.2114.9142.2114.0743.1429.2134.4953.2829.5648zm-3.5854-2.8749c0 .2829-.141.4943-.0676.7791-.1409-.4258-.4228-.8486-.5647-1.2734 0-.0704-.0705-.0704.0704-.1409l.3524.0695c.0676.1409.2095.3562.2095.5657zm-6.1658-5.5818c-.0753.2839-.3524 0-.4229 0h-.6342c-.0724-.1409-.14-.2085-.14-.3533.2809-.0676.4933-.2104.7018-.0676.1429.2124.28.4209.4953.4209zm1.5446 1.6257c-.2115.2134-.7714.2819-1.1923-.0675l.5619-.2848c.2095.2133.4904.2848.6304.3523zm3.6355 4.0237c0 .4257-.0685.92-.0685 1.3969-.2076 0-.2076-.1226-.2076-.4055-.0733-.4267-.2162-.7771-.3562-1.2009-.14-.5657-.4904-1.06-.7732-1.6952-.0695-.2848-.4036-.4238-.6845-.6362.3476 0 .6845 0 .9673.2819 0 .141.0686.2153.279.4257.4943 0 .3514.6353.7752.9181-.2076.2114-.2809.3514-.4228.4904.2152.1477.4228.2153.4913.4248zm-2.7194-2.1171c0 .2134-.1409.2848-.2829.4229 0 0-.2847-.3485-.2847-.4943 0-.2809 0-.4228.0753-.6352.2094.2114.4923.4952.4923.7066zm6.5896 6.4062l-.1438.2134c-.3505-.2134-.56-.28-.9799-.28 0-.2858-.2133-.6343-.3523-.6343-.4229 0-.3505.279-.7048.279l.6314-.6352c.0734-.1409.0734-.1409.2133-.1409.2134.1409.279.2095.4924.2095 0 .1419 0 .2143-.0695.4228.2104.1429.3485-.0676.4913.1429.2086.0704.4219.1419.4219.4228zm-5.6793-4.8519c0 .139-.2075.2857-.2809.2857 0 0-.3485-.3562-.418-.7105-.0724-.2809.2076-.7752.2076-.7752l.2104.14c.0734.0714 0 .2828.0734.4972.2075.138.3379.4228.2075.5628zm-5.4823-6.8522c-.8447-.474-1.7569-.8293-2.8131-.8978 0 .2143 0 .4238-.0685.4962.8408.4016 1.6199.7568 2.3188 1.3901v.6362c-.6999-.7057-1.478-1.4114-2.3931-1.6247-.0695.1419-.3485.2857-.42.5676-.472-.3543-1.0339-.7037-1.5977-.7781-.2094 0-.3542-.7587-.3542-.7587.3542-.141.5637-.3534.7066-.7028h.2809c.2114 0 .2114-.1439.2114-.3553 0-.4228-.9161-.4228-1.338-.4228-.4923 0-.8437 0-1.1236.2095-.1391 0-.0724.2133-.0724.3552l.2114.2143c.1409 0 .2809-.1438.4238-.1438-.0695.4228.0685.6342.4923.8466l-.0676.6845c-.8485 0-1.4123.3581-2.04269.64-.21045-.1419-.35043-.3552-.4933-.5657-.84277.2838-2.31785 1.4123-2.31785 1.4123v-.4981c.63038-.5628 1.47508-.8418 2.10933-1.1787v-.4952c-.28479-.141-.56185 0-.84277 0-.61345.0759-1.19611.3119-1.68939.6844 0-.1892-.07144-.4721-.07144-.4721.77616-.4247 1.76083-.778 2.67504-.6361v-.279c-.07144-.1439-.07144-.3553-.21238-.3553-.42187-.4228-.84277-1.0571-.84277-1.4857l.28092-.14c-.14094-.4218-.28092-1.4799 0-1.8322-.42283-.2143-.8447-.5696-.98564-.8524-.14095-.3514-.28092-.5658-.35236-.9876.21238-.42381.35236-.56669.56184-.99048.14095 0 .35236-.06758.4209-.21045.35526-.06951.56668-.42187.98565-.20949.28092 0 .56377.13998.77422.20949 0 .14287 0 .21045.14191.35622.42088 0 .42088.4209.62848.77611.2124.0686.4228.0686.5647.0686.4228.1419.7733.1419.9161.3504.5629-.3504 1.1237-.419 1.7551-.3504.0695-.2124.1979-.49525.2626-.84471.0704.20562.0704 0 .2095 0 .2838-.21335.6313-.56571 1.1246-.42573.2838.21238.779.06951 1.06.42573.2037.27802.3465.70181.5599 1.05801-.2134.4229 0 .9876-.4238 1.199l-.417.4277c-.1458 0-.1458.1361-.3563.1361.2105.4981.0695 1.2019-.139 1.6961.139-.0695.3485-.0695.3485-.2799v.4933c0 .3562-.2104.7028-.4914.9885-.1409.4229-.4884.9857-.9827 1.0571v.1419c1.0523 0 1.9008.2819 2.8816.7771v.475h.0029zm2.8845 4.4513l-.3523.14c-.7733 0-1.1247-.2095-1.478-.4943.2819 0 .6342-.3543.6342-.3543.3476.3543.8428.6381 1.1961.7086zm-1.9703-1.6218c-.4238 0-.9132.2095-1.1237-.2163.141-.0714.281-.2799.42-.4228l.7037.6391zm5.7449 6.6166c0 .3543-.4218.7771-.5618 1.0609.1409-.3533.1409-1.0609 0-1.0609-.1419-.0695-.4229 0-.4229-.1409 0-.2114.0724-.4924.0724-.615 0-.2828-.1969-.4276-.1969-.5637 0-.4258.4779-.4962.6198-.7791.0685.2829.0685.5618.0685.9142 0 .1448.2105.5503 0 .9036-.0009.2104.4209.0676.4209.2809zm-1.5967-.7568c0 .4035-.278.7558-.3504 1.1816 0-.4248-.0695-.7781-.3533-1.059 0-.1226.2143-.1226.0733-.336 0 0-.4267-.2153-.4267-.4971 0-.28.2848-.4905.4267-.7028 0-.0715.28.138.28.5637 0 .0676 0 .2848-.0695.4209-.0705.2163.4199.2163.4199.4287zm-5.8376-5.0161c-.3504.0686-.6313-.2819-.9817-.4219-.142-.4228-.142-.8495-.2839-1.0609.2839.2114.9133.2114.7791.8476 0 .2143.2809.3533.4865.6352zm1.9703 1.979c-.2809 0-.7751 0-1.0541-.2124-.4219-.2143-.56-.3533-.7752-.5666.2828-.2095.6342-.2095.7752-.2829.279.2829.5599.781 1.0541 1.0619zM6.73054 12.2062l-.4904.1448.06758-.3523c.13997-.2143.21141-.4277.42282-.6391v.8466zm9.05036 9.868c-.281.0734-.7694.2124-.9152-.14-.4219-.6332-.2105-1.199 0-1.6952.1458.4248.2124.8486.28 1.2029.0733.2857.4961.4228.6352.6323zm-2.0196-3.8856c-.0695.4257-.2095 1.0609-.6313 1.3438 0-.2829-.14-.4238-.2829-.6362l-.0676.2124c0 .1409-.1428.4238-.1428.7086-.1381.0685-.419.2085-.7028.0685v-.2114c-.0686-.1419-.0686-.4248-.0686-.5657l-.0675-.0676c-.2115.0676-.2115.2085-.2115.3495-.0733.1419-.2133.2838-.2133.4952-.2829 0-.4238-.0685-.6352-.2114v-.6333c0-.1448 0-.1448-.0657-.1448l-.3542.3533c-.281-.2085-.35145-.7771-.35145-1.1304 1.12465-.6352 2.53315-.4219 3.37685-.0676.1371.0676.2771.0676.418.1371zm3.6375 5.7227h-.2104c-.7714.2848-1.4085-.2095-2.0437-.6352.3543-.14.8466-.2095 1.2723-.2095l.2057.4238c.2133.0676.5666.2809.7761.4209zM6.87149 13.1967l-.35236.4238c.0724.7047-.21141 1.198-.21141 1.8352l-.35044-1.1305c.07144-.2819.13999-.5647.35044-.9171l.56377-.2114zm7.22381 9.1604c-.334-.2095-.9653-.2829-.8244-.7048.1381-.3504.3495-.4257.4904-.5637.0695.4923.1361.8466.334 1.2685zm6.5385 7.2595h-.0734c-.1371-.2152-.2076-.4276-.3504-.4276.2143-.7752-.2095-1.4104-.3476-2.0476V26.93c.2124.3543.7723.7067.699 1.06.0724.6323.0724 1.198.0724 1.6266zM19.0139 26.93c-.3485 0-.6333 0-.8457-.3523-.0685 0-.2104-.2115-.2799-.0715-.3485.2829-.6999-.2095-1.1237-.14-.2056.2205-.4768.3687-.7733.4229v-.0715c0-.2114.1448-.4209.4257-.5435.419.1226.7714-.781 1.1903-.2828.2105.0695.4219.0695.56.0695.4981.2124.6381.6159.8466.9692zm-6.4458-5.7043c0 .5019-.0704 1.1314-.5628 1.3447l-.1409-.7047c.2075-.1381.4218-.2848.7037-.64zm2.3681 3.1104c-.1381.139-.5619.2838-.8409.2838-.4035-.3543-.6863-.7771-1.1053-1.3448l1.1053.2153c.2085.14.6314.6333.8409.8457zm4.2215 4.0053c-.2809-.2114-.7047-.2114-.8447-.5638-.2828-.0714-.4942-.0714-.8427-.0714-.281.0714-.6333.0714-.9152.0714-.0714 0 0-.0714-.1371-.1409-.4257.1409-.8486.1409-1.2723.5628l.3542-.8447c.281 0 .4924-.1419.6372-.1419.2809-.0715.4865-.0715.6999-.0715v.0715c.7723 0 1.6884-.0715 2.2502.5657l.0705.5628zm-8.0685-5.9843c-.419-.4229-.7733-.7772-.7733-1.2.2085 0 .4209 0 .6314.1439.0009.3513.1419.6342.1419 1.0561zm-1.33609-2.0447l-.21045.9133c-.20948-.419-.42187-.8467-.49234-1.34l.70279.4267zm10.10839 9.5137c-.1145.2756-.2087.5592-.2819.8486-.1448-.4238-.2848-1.0581-.7742-1.0581-.0715-.2848-.141-.4276-.4248-.6371l-.5618-.0715c.0695.281.4942.281.2114.7086.2828.2095.4952.2095.6352.5638.1409.2114 0 .4943.0685.6352l-.4218.2095c0-.3504.0675-1.06-.4238-1.199-.419.14-.4895-.4238-.7704-.6371-.139 0-.139-.3524-.3533-.2095-.3466.2095-.7733 0-1.1227.2095l.3494-.5657c.2809-.2095.5628-.1362.8447-.2095l.5628-.0715c.559 0 1.0532.281 1.6151.4943.2809.1429.4209.3524.4209.7047.1448.0753.4267.0753.4267.2848zm-5.6272-3.3209h-.1399c-.0705 0-.5435-.2094-.6864-.332-.0666-.2134-.0666-.4277-.0666-.4277h.556l.3369.7597zm-5.39443-5.0643c-.42283-.1399-.9142-.5657-1.12659-.918-.12751-.2651-.19882-.5537-.20948-.8476.28382 0 .49041.2114.56474.3514v.0714c.34947.4248.69796.7771.77133 1.3428zm3.37683 2.4704c-.0714.4248-.2838.5638-.6313 1.0629-.2134.1409-.6372.2104-1.06.4199.0714-.2095.2838-.279.4228-.4943.141-.2094.4238-.5628.4933-.7751.3553-.2134.4914-.2134.7752-.2134zm5.1821 6.9043l-.2104.2095c-.2095-.2095-.0705-.7752-.4238-.8447-.3466 0-.6275-.3543-.7733-.4257l.2809-.1381s.1448-.0753.2819 0c.141.1381.2819.2095.2819.3485.1429.2153.3524 0 .4933.2153.0695.2105.141.4933.0695.6352zm-6.4506-7.4681c-.2114.4238-.4228.8486-.8408.9886-.21142 0-.56378.139-.98564 0 .21238-.141.42186-.2124.70375-.4248l.55799-.5638h.5647zm1.4066 3.2292c-.2829.2114-.4904.2114-.8428.14l-.4228-.5435h1.0561l.2095.4035zm-5.13192-5.351c-.35139.3542-.70375.5019-.84662.9219 0-.2134-.06855-.4209-.13709-.5677.06757-.2789.27899-.4228.3514-.4923.21141.0695.35139.0695.63231.1381zm.84566 1.0609c0 .2838-.14287.6371-.4962.9885l-.28092.2153c0-.4238.21238-.781.21238-1.1333.20949-.0705.42187-.2095.56474-.0705zm.98275.8495l-.28479 1.06c-.34849.279-.84083.1409-1.2627.1409.56474-.1409.98564-.7781 1.2627-1.1999.07337-.0705.14384-.001.28479-.001zm.35139 3.5806c0 .2133-.06854 1.0619-.06854 1.0619-.14288-.4943-.49427-.9905-.91613-.9905-.20949-.2104-.42284-.4219-.49234-.614-.21238-.2133-.42187 0-.70279-.2133-.27995 0-.63038 0-.91516.2133v-.2133l.49426-.5677c.4904.0705 1.12369 0 1.26753.3524.3485.2153.69795.4277.77132.5503v.2094c.13902.0715.41994.1439.56185.2115zm-.35139 2.1904l-.49137.4943c-.14191-.2134 0-.5658-.21045-.7791 0-.1361.13997-.2095.06757-.2809-.06757-.1419-.91324-.4238-.91324-.4238-.28092-.2114-.63231-.4238-.9113-.7047-.28479-.0715-.4962.0714-.84856.1409v-.1409c.14288-.2829.14288-.6352.56378-.6352.21141 0 .49426 0 .6352.2104.27996 0 .4209.2829.62942.3533.35236.3524.63522.4962.8447.6372 0 .2114.07144.3523.21142.4218.42283-.0009.28188.4219.42283.7067zm-1.05708 1.058l-.20659.7086-.4962-1.2723c-.56184-.5658-1.19513-.6353-1.54845-.9143-.27996-.0733-.27996.1362-.41897 0 0-.1448.00001-.3562.20659-.5695h.42476l.41994.2133c.21624.2114.70568.2114.70568.6352 0 .0695-.07143.141.14095.4229l.70278.2133.06951.5628zm-1.96549.7086c0 .5638-.9142 1.3428-.9142 1.3428 0-.3523.21141-.779.21141-1.2009 0 0-.28285-.2848-.54639-.2848-.20466.1429-.20466.2848-.27803.4943-.20852.4257-.63618.8466-.70279 1.2743l-.06854-.0715c0-.7085.06854-1.9085.48944-2.4018.35526-.4238.62749-.4238 1.03391-.4943l.35332.0696-.28092.4237c.28092.14.70279.4248.70279.8486zm-2.44141-.4238c0 .2809-.06951.5657-.21238.7752-.06854-.2809-.27803-.6333-.63232-.6333-.28092.5638-.35429.7733-.06951 1.6257-.21142.2114-.35332.2828-.63231.4238-.14095-.2848-.14094-.7771-.14094-1.0619 0-.4933.0695-.9876.21141-1.4143.20852-.2114.35042-.5637.56184-.7771h.7723c-.34754 0-.34754.3524-.34754.5657.20852.0724.48945.1438.48945.4962zm-1.83034.7752c-.07047 0-.27899-.2095-.49137-.2095-.21141.4228 0 .7038 0 1.2009 0 .2114-.06951.4238-.06951.4238-.14094 0-.422826-.2848-.493298-.5695v-1.1276l.632318-.779c.42186.2857.56473.7095.42186 1.0609zM16.2713 11.3596c.1457-.3524.1457-.9876-.1352-1.3438-.1457-.28091-.4952-.42379-.8447-.70181l-.4942.27802c-.281.14288-.4238.42379-.4238.77999.4913.2085.9846.7743 1.1951 1.199h.2114c.2104-.2114.3572 0 .4914-.2114zm-2.3739.4248c0-.2134-.0666-.2134-.1371-.2134-.3542 0-.3542-.5638-.6313-.4238-.1409 0-.2829-.14-.4943 0 0 .0715 0 .0715.1429.0715.3504 0 .2095.4952.4923.5666h.6275v-.0009zm1.1141.8485s.1342 0 0-.0714l-1.5311-.2105c-.139.2105-.4923.2105-.4923.4219h-.141c.1429.5638.1429 1.198.1429 1.8381.2809.0685.5618.2085.5618.6323.279.1438.5435.2133.8225.4247.1429-.0695.2124-.2809.2809-.4962-.2809-.3523-.8939-.138-.8939-.7713l-.4199-.1429c0-.4267 0-.8485-.0705-1.1333l.0705-.0686c0 .0686.0666.141.2104.281.279 0 .5435.0724.8225-.14.1429-.0724.1429-.4238.2809-.4238.1429 0 .281 0 .3563-.14zm-3.4995-1.4866c-.14-.14-.5638.0714-.7752.1409-.279.0714-.4933.2828-.4933.4962h.7781c.0676-.2124.3504-.4952.4904-.6371zm-1.54748-.7743c-.06854-.70855-.84276-.77999-1.19802-1.05801h-.27706c-.56377.20562-.70279.77611-.77616 1.26651.21239.6372.63522.2144.91518.6372.28189-.2105.98274-.7086 1.33606-.8457zm4.13078 6.497v-.3543h-.6863l-.0676.0714.7539.2829zm-3.1471-4.0961c0-.14-.139-.28-.3504-.4219H8.91035c0 .2819.21141.4219.42282.4219 0 .2828.20949.3514.27707.4238.21334.14.28478.14.49616 0 .2095.14.2771-.1409.3505 0 0 .4238 0 .6342-.0734.9876-.0676.4942-.48848.4257-.84084.6342 0 .2143-.20948.5676 0 .7791.21045-.141.35236-.2115.70084-.3553 0-.2095.2143-.4238.4933-.5638 0-.6342.2114-1.2694.2114-1.9056zm-.5637 3.7418c-.141-.2819-.48852 0-.84088-.141 0 .141.00001.2809.21046.4267.21045-.2143.56182-.2857.63042-.2857"/>
</svg>
