<svg xmlns="http://www.w3.org/2000/svg" viewBox="0 0 40 40">
	<path fill="#503629" d="M0 0h40v40H0z"/>
	<path fill="#fff" d="M11.2 15.1H7v.3h1.3v6.9c0 2-.6 2.6-1.9 2.6-.5.1-.9-.3-1-.8V24c0-.7-.1-1.2-.7-1.2s-.8.7-.8.9c0 1 .4 1.7 2.3 1.7 2.3 0 3.5-.7 3.5-3.3v-6.7h1.4l.1-.3zM16.7 20.9h1.1c3.1 0 4-1.2 4-2.9s-.6-2.9-3.7-2.9H14v.3h1.2v7.8c0 .3 0 .6-.1 1-.1.2-.3.4-.5.5-.2.1-.5.1-.8.1v.3h4.3v-.3c-.3 0-.6 0-.8-.1-.2-.1-.4-.2-.5-.5-.1-.2-.1-.4-.1-.6v-2.7zm0-.4v-5h.7c2.4 0 3 1 3 2.6s-1 2.5-2.9 2.5l-.1-.1h-.7zM34.7 24.2c-.1-.2-.1-.5-.1-.7v-8.1h1.1v-.3h-2.6L30 22.7s0 .1-.1.1c0 0-.1 0-.1-.1 0 0-3.2-7.6-3.3-7.6h-2.9v.3H25v8.5c0 .2-.1.3-.2.5s-.3.3-.5.3c-.2.1-.4.1-.6.1v.3h2.8v-.3c-.2 0-.3 0-.5-.1s-.4-.2-.5-.3c-.1-.2-.2-.3-.2-.5v-7.4h.2s3.7 8.5 3.7 8.6h.3l3.5-8.6h.1v6.9c0 .2 0 .5-.1.7-.1.2-.2.4-.4.5-.2.1-.5.1-.7.1v.3h4v-.3c-.2 0-.5-.1-.7-.1-.2-.1-.4-.3-.5-.4"/>
</svg>
