<svg xmlns="http://www.w3.org/2000/svg" viewBox="0 0 40 40">
	<path fill="#28ABE2" d="M27.9587 7.85264c0 .46838-.3819.83032-.8275.83032-.4668 0-.8275-.38323-.8275-.83032 0-.46838.3819-.83031.8275-.83031.4456-.02129.8275.36193.8275.83031Z"/>
	<path fill="#A0216D" d="m34.7058 5.25466-9.0386-3.02319c-.0425-.76644-.2758-1.575458-1.0397-2.001259-.8487-.468381-2.249-.510962-6.0045 2.746409-2.4824 2.1503-5.1558 5.06706-7.2988 7.98378-7.31996 9.9211-8.3384 18.863-2.77945 24.4835C12.2578 39.2122 18.9413 40 23.8637 40c3.3524 0 5.8772-.3619 6.1318-.4045.5092-.0639.9336-.4045 1.1033-.8942l1.2943-3.3212c.2758-.7239-.0637-1.5542-.8063-1.8523-.7214-.298-1.5489.0639-1.8246.8091l-.976 2.5335c-3.0129.3193-13.7489 1.1283-18.247-3.449-2.77949-2.8316-3.45845-6.6425-1.99445-11.3476C11.1757 13.6003 19.5142 5.3824 22.7816 3.31726c1.1246-.83031 2.1854.0213.9548 1.25612l8.2535 2.7677c.0425 0 .1062.0213.1486.04258.1697.08516.297.27677.297.48968v.08516c0 .04254-.0212.10646-.0424.14902-.297.95808-.6153 1.61808-.785 1.87352-.3395.51096-1.2731 1.21356-2.1643 1.61806-1.4215.6174-3.0552 1.2987-3.8827 2.8315-1.7186 3.1723-.0637 9.7935 1.1033 13.5618.0212.0639.0849.2768.0849.2981 0 .2341-.191.4471-.4244.4471H22.9089l-.9547-5.2374c-.1486-.7664-.87-1.2774-1.6338-1.1496-.7638.149-1.273.8941-1.1246 1.6606l1.167 6.2593c.1274.6813.7002 1.1709 1.3792 1.1709h6.9593c.4668 0 .8911-.2342 1.1669-.6174.2546-.3832.2971-.7878.1697-1.32-.1697-.6813-.6789-2.2567-1.0608-3.6618-1.0821-3.8536-1.8672-8.2819-.9336-10.0277.3395-.6387 1.4428-1.1071 2.5037-1.5542 1.2518-.5322 2.5036-1.4264 3.3311-2.5335.5516-.7238 1.2943-2.83152 1.7823-4.74765.1485-.72386-.2547-1.4903-.9548-1.72449Z"/>
</svg>