<svg xmlns="http://www.w3.org/2000/svg" viewBox="0 0 40 40">
	<path fill="#366AF3" d="M-.00537109 5.95745C-.00537109 2.66724 2.66187 0 5.95208 0H39.9946v34.0426c0 3.2902-2.6672 5.9574-5.9574 5.9574H5.95208c-3.29021 0-5.95745109-2.6672-5.95745109-5.9574V5.95745Z"/>
	<path fill="#fff" d="M24.9236 30.1796h.0015c3.3707.2202 5.9393-.9221 7.7056-3.427 2.9393-4.1663 1.4382-9.5775-2.8472-11.9483-.5908-.3268-1.2628-.5284-1.9348-.7299-.2891-.0867-.8299-.1579-1.1124-.2545-.295-.1008-.3306-.1266-.5618-.3371-.4809-.442-.9446-1.0186-1.4225-1.429-3.3236-2.85173-8.1887-2.57533-11.2629.4022-.6619.639-1.1907 1.4619-1.7054 2.2627-.1441.2243-.2961.6826-.4407.8989-.1873.2788-.4315.2708-.7281.4272-2.56624 1.355-4.38197 3.1685-4.7213 6.0988-.20449 1.7798.23146 3.5596 1.27191 5.0045 1.15056 1.5955 2.76704 2.5776 4.84939 3.0315h12.9087ZM12.8369 17.6024c.0526-.0506.0907-.1143.1106-.1846.2315-.8202.4944-1.6315.9708-2.3393 2.3955-3.5663 7.4989-4.0562 10.3438-.7079.3131.3685.6165.7551.9102 1.1596.0658.0903.1514.1646.2503.2171.0989.0526.2084.082.3204.0862 1.4457.0495 2.6772.4225 3.6944 1.1191 3.1438 2.1528 3.5731 6.6203.9169 9.3843-1.6158 1.6809-3.591 1.8674-5.7888 1.8966-4.1543.0585-7.8734.0555-11.1573-.009-2.0674-.0419-3.60973-.8172-4.62696-2.3258-1.5955-2.3663-1.04719-5.4472 1.22476-7.1326.7685-.5685 1.7281-.8359 2.6427-1.0607.0707-.0169.1357-.0524.1882-.103Z"/>
</svg>