<svg xmlns="http://www.w3.org/2000/svg" viewBox="0 0 40 40">
	<path fill="#4E7BF9" d="M30 0H10C4.47715 0 0 4.47715 0 10v20c0 5.5229 4.47715 10 10 10h20c5.5229 0 10-4.4771 10-10V10c0-5.52285-4.4771-10-10-10Z"/>
	<path fill="#fff" d="M30.6944 8.88867H9.30556c-2.07107 0-3.75 1.67893-3.75 3.75003v14.7222c0 2.0711 1.67893 3.75 3.75 3.75H30.6944c2.0711 0 3.75-1.6789 3.75-3.75V12.6387c0-2.0711-1.6789-3.75003-3.75-3.75003Z"/>
	<path fill="#222" d="M10 12.7773c-.46024 0-.83333.3731-.83333.8334 0 .4602.37309.8333.83333.8333h20c.4602 0 .8333-.3731.8333-.8333 0-.4603-.3731-.8334-.8333-.8334H10Zm-.83333 4.7223c0-.4603.37309-.8334.83333-.8334h6.1668c.809 0 1.5055.5711 1.6642 1.3644.2034 1.0168 1.1179 1.7606 2.169 1.7606 1.0511 0 1.9656-.7439 2.169-1.7607.1587-.7932.8552-1.3643 1.6642-1.3643H30c.4602 0 .8333.3731.8333.8334 0 .4602-.3731.8333-.8333.8333h-5.9953l-.2014.0246c-.362 1.8096-1.9719 3.1004-3.8033 3.1004-1.822 0-3.4482-1.3252-3.8033-3.1004l-.2014-.0246H10c-.46024 0-.83333-.3731-.83333-.8333Z"/>
</svg>