<svg xmlns="http://www.w3.org/2000/svg" viewBox="0 0 40 40">
	<path fill="#E31A3C" d="M29.0667 40H10.9332C4.44469 40 0 35.5533 0 29.0668V10.9333C0 4.44787 4.44775 0 10.9332 0h18.1335c6.4855 0 10.9332 4.44481 10.9332 10.9333v18.1335C39.9999 35.5553 35.5552 40 29.0667 40Z"/>
	<path fill="#FECC00" d="M10.5566 28.9555h18.9406v-2.1304H10.5566v2.1304Zm9.4157-21.82073 2.5143 2.38443-2.5143 2.3337-2.4607-2.3337 2.4607-2.38443ZM33.2418 17.3842c-3.3709-2.7911-7.7585-4.5655-12.6263-4.7179v13.2464s3.6376-.051 4.6011 0c.8033 0 1.0702-.7119 1.0702-.7119l3.3707-7.7126c.3203.2035.6408.4069.91.6102l-3.4241 7.8142h2.4073c1.2303-2.842 2.4607-5.6839 3.6911-8.5261v-.0026.0003Zm-9.2021 6.5966c-.267.051-1.177 0-1.177 0V15c1.7132.2541 3.3171.7626 4.8703 1.4718l-3.1571 7.2065c-.2135.3562-.5362.3051-.5362.3051v-.0026ZM6.75879 17.3842c3.37091-2.7911 7.81171-4.5655 12.62631-4.7179v13.2464s-3.6376-.051-4.6011 0c-.8033 0-1.0702-.7119-1.0702-.7119l-3.3707-7.7126c-.3203.2035-.64322.4069-.90996.6102l3.47736 7.8142h-2.4606c-1.2305-2.842-2.46074-5.6839-3.69111-8.5261v-.0026.0003Zm9.20211 6.5966c.267.051 1.177 0 1.177 0V15c-1.7132.2541-3.3174.7626-4.8146 1.4718l3.1039 7.2065c.216.3562.5337.3051.5337.3051v-.0026Z"/>
</svg>