<svg viewBox="0 0 40 40" xmlns="http://www.w3.org/2000/svg">
	<path fill="#007D2F" d="M37.2832 35.2021V0c-.0947.271484-.1221.353516-.1357.43457l-.0967.304688-.0938.292972c-.8877 2.76367-1.7763 5.52929-2.6504 8.30566-.0732.2334-.1562.3877-.2793.46582-.0888.05567-.1982.07227-.3398.04981-.0635-.01075-.1328-.02832-.21-.05372-.3242-.10839-.6689-.17285-1.0371-.24218l-.0146-.00293-.2412-.0459-.1748-.03516c.0136.23047.0136.39356.041.54297l.1172.7529.4824 3.042.207 1.2979.3487 2.206 2.6904 17.003c.1767 1.1152.2178 1.1289 1.3867.8837Zm-10.8057-7.2216-3.6015-4.4678c-5.7354 5.5449-12.2588 9.6094-20.10159 11.7568H32.3496l-5.8721-7.289ZM2 39.999v-2.2011c.09863-.0049.19336-.0118.28613-.0186.16309-.0117.31934-.0225.47461-.0225l10.95406.002 6.8799.001c5.2823 0 10.5645-.0039 15.8467-.0166.7061 0 .9375.1904.8565.8701-.0293.3086-.0235.6318-.0176.9638l.0039.4083C25.5 39.999 13.7842 39.999 2 39.999Zm31.8506-4.7519c.2666.0927.584.0683.9873-.0459-1.8086-6.8096-3.5889-13.5645-5.3691-20.3057l-.7598 1.0664c-.9805 1.3789-1.9395 2.7266-2.9238 4.0576-.2852.3809-.3125.6387-.0811 1.0606 1.2695 2.2763 2.5391 4.5537 3.8018 6.834 1.2246 2.2119 2.4423 4.4267 3.6464 6.6484.2061.3711.4258.5898.6983.6846Z"/>
</svg>