<svg xmlns="http://www.w3.org/2000/svg" viewBox="0 0 40 40">
	<path fill="url(#a)" d="M0 0h40v40H0V0Z"/>
	<g fill="#fff">
		<path d="m6.04669 13.3659 3.6465-9.79551s.143-.3575.42901-.3575h2.145c.6435 0 1.3585.5005 1.3585 1.144v3.86099l3.3605-4.71899s.143-.286.6435-.286h2.7885c.3575 0 .572.2145.429.572-.572 1.6445-2.288 6.50651-2.574 7.29301-.3575.9295.429 2.002 2.574 1.001.858-.286.143.572 0 .6435-.715.6435-1.859 1.3585-3.432 1.3585-.715 0-3.432-.2145-.572-7.15002-.7865 1.2155-4.2185 6.72102-5.148 6.72102-.858 0-.3575-3.289-.429-6.43502-.3575 1.3585-1.57301 4.93352-2.21651 6.07752-.143.2145-.2145.3575-.429.3575H6.1182c-.2145-.0715-.07151-.286-.07151-.286Z"/>
		<path d="M24.2791 15.6555s2.3595-7.22151 3.146-8.72301c.715-1.43 1.6444-3.00299 2.7169-3.00299 1.0725 0 1.001.429 1.3585.3575.572-.0715.429-1.287-1.7874-1.287-2.2165 0-3.861 1.144-4.9335 3.57499-1.0725 2.431-4.5045 12.36951-5.005 13.72801-.5005 1.3585-2.002 3.2175-3.432 3.2175-1.43 0-1.859-1.5015-1.716-2.717.2145-1.9305 2.145-4.004 3.861-4.576 1.716-.5005 1.573-1.716-.2145-1.287-1.7875.3575-6.435 2.0735-6.435 5.9345 0 3.861 4.862 5.0765 6.578 2.9315-.858 2.717-1.0725 3.7179-2.002 5.9344-.858 2.145-2.0735 6.149-3.146 6.149-1.0725 0-1.573-.0715-2.002-.286-.429-.286-1.0725.5005-.286.7865.7865.286 3.146 1.2155 4.576 0 1.3585-1.2155 3.5035-5.7915 4.5045-9.009 1.001-3.2174 2.288-6.5779 3.146-8.5084.858-1.9305 1.7875-2.9315 2.9315-2.9315 1.144 0 2.145 1.43 1.716 3.432-.3575 1.9305-2.574 3.6465-4.147 3.718-1.573.143-1.144 1.5015.3575 1.2155 1.5015-.286 3.7895-1.0725 4.9335-2.0735 1.0725-1.001 1.7874-2.288 1.7159-4.433-.0715-2.002-1.9304-3.289-3.7179-3.289-1.7875 0-2.717 1.144-2.717 1.144Z"/>
		<path d="m26.6387 30.098 3.9324-3.9325c.0715-.0715.2145-.143.3575-.143h2.86c.0715 0 .0715.0715 0 .0715l-5.2194 4.9335 3.861 5.5055s-.0001.0715-.0716.0715h-2.8599c-.143 0-.286-.0715-.3575-.2145l-2.5025-3.861s-.7865.3575-1.5015 1.6445c-.5005.9295-.858 1.859-.9295 2.2165 0 .0715-.143.143-.2145.143h-2.717c-.0715 0-.143-.0715-.0715-.143.3575-.9295 2.5025-6.6495 2.86-7.579.429-1.0725-.5005-2.5025-1.7875-2.002-.9295.3575-1.0725-.143-.429-.5005.6435-.3575 1.43-.6435 3.0745-.6435.7865 0 2.5025.572 2.145 2.2165-.286 1.716-.429 2.2165-.429 2.2165Z"/>
  	</g>
	<linearGradient id="a" x1="0" x2="40" y1="20" y2="20" gradientUnits="userSpaceOnUse">
  		<stop stop-color="#C94B28"/>
  		<stop offset="1" stop-color="#7A1831"/>
  	</linearGradient>
</svg>