<svg xmlns="http://www.w3.org/2000/svg" viewBox="0 0 40 40">
	<g fill="#93130A">
		<path d="M0 .00488281h4.8V35.1276c3.13322.0056 6.2664.0028 9.3996.0028 3.1945-9.5764 6.3861-19.15 9.575-28.72363 3.2751-.00556 6.5503-.00278 9.8254-.00278.0028 9.06451 0 18.12891.0028 27.19621-4.0237 0-8.0473.0028-12.0682-.0028.5287-1.5998 1.063-3.1995 1.5972-4.7993 1.8672.0056 3.7315.0028 5.5986.0028v-17.528c-.4619 0-.9238.0028-1.3829.0028-3.1889 9.5764-6.3861 19.1472-9.5722 28.7236H0V.00488281Z"/>
		<path d="M6.33791 0c1.61948.00834666 3.23896.00556457 4.85839.00556457.0056 7.92098543 0 15.84473543.0028 23.76853543 2.6686-7.9099 5.2953-15.83364 7.9277-23.7546243C26.0833-.0139109 33.0426.0139112 39.9991.00556457V40H19.3967c.5398-1.622 1.0824-3.2441 1.6223-4.8661 4.7026-.0084 9.4052 0 14.1106-.0028V4.87445c-4.1294-.00278-8.2588.00557-12.3882-.00278C19.547 14.4509 16.3163 24.0189 13.133 33.6009c-2.2678-.0028-4.53561 0-6.80344 0C6.33513 22.3997 6.32122 11.2012 6.33791 0Z"/>
	</g>
</svg>