<svg xmlns="http://www.w3.org/2000/svg" viewBox="0 0 40 40">
	<path fill="#292929" d="M20.0308 39.5635C31.0766 39.5457 40.017 30.8985 40 20.2494 39.983 9.60045 31.0149.982181 19.9692 1.00003 8.9236 1.01786-.0169953 9.66506.00002426 20.3141.0170439 30.963 8.98512 39.5813 20.0308 39.5635Z"/>
	<path fill="url(#a)" d="M8.48097 4.81006c-.30447.20401-.82271.54587-.86659.52933.02202-.02481.03576-.0386.1207-.10477l.03841-.03033.61146-.44661c1.35454-.88221 1.35454-.88221 1.42309-.89323-.09603.11303-1.31614.93734-1.32707.94561Zm.46063.24812c.39754-.2812.88018-.70577.74855-.7802-.35648-.05239-1.88371 1.0366-1.70274 1.21304.07666.07718.50449-.1158.95419-.43284Zm1.1544.34737c.3728-.29499.7046-.7416.3619-.81053-.63066-.03308-1.93305.95113-1.63965 1.24061.15067.14886.74292-.00551 1.27775-.43008Zm10.0959.83535c.0493-.40804-.3838-.95666-1.319-.93185-1.157.11305-1.6095.99524-1.0172 1.46668.7184.57344 2.2458.2233 2.3362-.53483Zm2.9202-.07445c-.0795-.40526-.6938-.93734-1.6369-.87945-1.064.14061-1.2916.95941-.6499 1.42807.861.62859 2.4431.25088 2.2868-.54862Zm2.8791-.18195c-.2111-.39975-.9789-.90426-1.8619-.81329-.9158.16542-.9212.92908-.2604 1.37293.8966.60378 2.3498.34737 2.188-.38595-.0109-.05515-.0382-.12407-.0657-.17369Zm2.369-.26467c-.329-.39148-1.1599-.86842-1.8591-.75262-.7156.19574-.4331.94836.2989 1.37017.9022.51554 1.9332.35013 1.7494-.28396-.0275-.10752-.0932-.22056-.1892-.33359Zm1.7219-.32807c-.4194-.37769-1.2668-.82982-1.7602-.69473-.5156.23433.1946 1.14687 1.1653 1.49976.713.25913 1.1736.06064.9295-.40527-.0659-.12131-.1864-.26743-.3346-.39976Zm1.0229-.36391c-.4826-.3639-1.2943-.78571-1.5658-.64235-.3043.32256 1.286 1.55765 2.0018 1.55214.3015-.00277.2713-.24813-.074-.59825-.0686-.06892-.1866-.18195-.362-.31154Zm-19.2406.82431c.3484-.33909.532-.84084-.0246-.89323-.8774-.00276-2.06736.96492-1.6781 1.36191.2633.26467 1.1352.08546 1.7027-.46868Zm2.3199.2123c.244-.32533.2385-.79399-.4032-.82157-.8856.03033-1.7685.81329-1.393 1.23233.3126.35014 1.3491.18748 1.7962-.41076Zm2.7912.13507c.1563-.35011-.0356-.83809-.8006-.8436-.957.06064-1.6891.84912-1.201 1.29299.4525.41629 1.7027.22055 2.0016-.44939Zm14.4037-1.55765c-.5759-.39146-1.2395-.73057-1.2668-.59273.0987.36943 2.0756 1.67896 2.2044 1.46117.055-.09375-.3563-.47419-.9376-.86844ZM6.48203 6.27397l-.04388.0386c.19737-.17093.46344-.39974.6608-.57344-.28793.23985-.48529.41629-.61692.53484ZM4.9548 8.9647c.43314-.51002.78134-1.202.58116-1.33157-.28512-.0579-.94873.73884-.97605.77193-.59506.71679-.74043 1.11378-.68547 1.23509.08775.19849.62504-.13785 1.08036-.67545Zm1.38733.36116c.26326-.33358.32087-.75815-.02186-.82982-.58679-.04136-1.27788.92079-1.02555 1.21854.18378.21504.73216.01103 1.04741-.38872ZM20.3043 10.4093c.074-.50173-.532-1.17993-1.8562-1.14685-1.4836.12682-2.0566 1.11105-1.3437 1.70925.935.783 3.0573.4108 3.1999-.5624Zm3.9457-.0799c-.0275-.49351-.7732-1.13587-2.1059-1.06144-1.412.16266-1.8289 1.05864-1.1214 1.63484 1.0201.8298 3.2821.4273 3.2273-.5734Zm3.8936-.2978c-.1288-.49346-.9267-1.16339-2.2293-1.03381-1.3325.2233-1.5436 1.17441-.7348 1.74791 1.1079.7884 3.0875.3887 2.9833-.6038-.0028-.0331-.0109-.0772-.0192-.1103Zm3.1998-.35837c-.2248-.48521-1.0336-1.13033-2.0592-.96768-1.1269.27845-1.0144 1.31785-.0877 1.83615 1.1489.6451 2.5008.1764 2.1936-.76095-.0137-.03308-.0329-.07443-.0467-.10752Zm2.328-.4411c-.307-.49073-1.0693-1.0945-1.8043-.90427-.817.32256-.4194 1.48873.6637 1.94634.9157.3888 1.5822-.0523 1.2504-.82979-.0275-.06616-.0714-.15163-.1098-.21228Zm1.3491-.48521c-.5155-.68096-1.223-1.03935-1.4312-.72232-.3126.47695.8306 2.0125 1.6204 1.80301.4414-.2233-.1233-.99247-.1892-1.08069ZM8.56311 10.0371c.23312-.34733.21938-.86287-.41394-.92904-.89392-.01102-1.57673.93464-1.17357 1.34534.35101.3529 1.22557.1241 1.58751-.4163Zm3.65779.0938c.2277-.44113.0275-1.08072-.9404-1.1276-1.2203.03309-1.97431 1.0449-1.45326 1.5963.54836.5789 2.00156.2922 2.39366-.4687Zm3.71.1902c.148-.43559-.2139-1.04762-1.2777-1.0559-1.2642.07169-1.8756 1.0008-1.3052 1.5301.6717.6203 2.3113.3198 2.5829-.4742Zm19.4927-2.10351c-.0932-.11028-.9214-1.08071-1.0118-.81329-.022.58997 1.4395 2.12282 1.6918 1.97946.1398-.07996-.255-.66166-.68-1.16617ZM2.18529 13.588c.27699-.5873.35647-1.2985.16176-1.4364-.20283-.0523-.47983.5019-.62504.8382-.28527.6507-.40582 1.1523-.31822 1.315.11804.2068.51824-.1598.7815-.7168Zm1.70555.7443c.1919-.4106.10149-.9345-.33181-1.031-.65798-.0523-1.05022 1.0863-.76229 1.4584.24952.3226.85286.0882 1.0941-.4274Zm16.50406 1.0064c.0932-.5322-.639-1.2489-2.2513-1.2131-1.8124.1351-2.3965 1.1606-1.4917 1.8003 1.1188.794 3.5701.408 3.743-.5872Zm4.6722-.0386c.033-.6175-.883-1.2379-2.4157-1.1608-1.7001.1793-2.2402 1.1552-1.4202 1.781 1.1624.885 3.7783.4605 3.8359-.6202Zm4.612-.3805c-.0439-.5762-.828-1.3205-2.4294-1.1689-1.6233.2536-2.0263 1.3288-1.1516 1.974 1.264.9318 3.6716.3914 3.581-.8051Zm3.9731-.466c-.1288-.6506-.9405-1.4666-2.3415-1.2488-1.5905.3749-1.7139 1.6956-.6418 2.3709 1.3656.8574 3.2356.1572 2.9833-1.1221Zm2.7721-.5347c-.189-.6287-.8993-1.5218-1.9987-1.2434-1.2971.4797-1.0256 2.0842.1397 2.6604 1.179.5789 2.221-.2151 1.859-1.417Zm1.4423-.5625c-.2111-.5485-.7156-1.2736-1.2421-1.0201-.7787.5487.0083 2.2938.8529 2.4096.5291.0689.7046-.5652.3892-1.3895ZM6.92891 14.8479c.21673-.5128-.07401-1.1192-.85004-1.202-1.05834-.0165-1.60952 1.0863-1.06115 1.6597.50185.521 1.60968.2564 1.91119-.4577Zm3.25199.4714c.1755-.4989-.25216-1.0641-1.16529-1.1081-1.15437.0274-1.68354.9234-1.15437 1.4886.59506.6341 2.04548.3969 2.31966-.3805Zm4.9191-.102c.1234-.4685-.351-1.1275-1.5573-1.1414-1.3491.0717-1.8839.9705-1.2834 1.5632.7514.7445 2.6104.4687 2.8407-.4218Zm23.2026-2.4784c-.5702-1.2764-.6608-1.0614-.6881-.9897-.1563.7333.8088 2.5446 1.0775 2.3709.1124-.0716-.0301-.5761-.3894-1.3812ZM10.9131 3.57221c.0109-.00551 1.2311-.62306 1.2805-.75263l-.0055-.00827c-.2824-.05514-2.31698.96215-2.3938 1.19926l.00827.01102c.1371.03032.82253-.30603 1.11053-.44938Zm.5922.27845c.4333-.24536.957-.62031.8171-.68923l-.0275-.00826c-.5263-.03585-2.1908.87393-1.9988 1.09172.0795.0965.5648-.03032 1.2092-.39423Zm9.6436.67544c-.0302-.28672-.4113-.68646-1.0256-.65891-.7075.08823-1.0282.72232-.5429 1.08072.5211.3832 1.6315.18195 1.5685-.42181Zm2.4979-.10201c-.1728-.32807-.8116-.76917-1.5108-.71127-.7184.1213-.7542.76917-.2578 1.14687.713.54035 1.9551.3446 1.8234-.28948-.0082-.04411-.0329-.10477-.0548-.14612Zm2.1086-.18195c-.3043-.3198-1.0804-.73609-1.6809-.65338-.5758.14059-.3757.72505.1838 1.08621.7403.4797 1.7905.42732 1.6999-.08546-.0164-.10201-.0904-.22882-.2028-.34737Zm1.6178-.2371c-.4224-.31429-1.2779-.69473-1.7138-.59825-.4222.16542.2111.84914.9432 1.17168.691.30326 1.2832.24537 1.1708-.11578-.0411-.13233-.1864-.29775-.4002-.45765Zm1.0858-.27569c-.5018-.3005-1.3711-.65062-1.6507-.54311-.277.22608 1.2476 1.21856 1.9934 1.29575.3098.03309.3976-.09373.2193-.31153-.052-.06341-.2057-.22882-.562-.44111Zm-15.7144.397c.4333-.29499.7184-.65064.4552-.70577l-.0466-.00551c-.7184-.01103-2.0756.80777-1.8371 1.10827.1344.17093.8035.03309 1.4285-.39699Zm1.711.21229c.3017-.27294.5237-.69475.0358-.72507-.8337.02205-1.9524.82706-1.5959 1.14962.2357.2178 1.0338.04962 1.5601-.42455Zm2.0018.13231c.1974-.27568.1974-.6644-.3237-.67543-.7485.04412-1.5436.72507-1.2338 1.05865.277.29499 1.1899.12957 1.5575-.38322Zm2.2922.06894c.0905-.28672-.0959-.68096-.6827-.6727-.7485.06618-1.308.73058-.9105 1.07795.3977.34186 1.415.15715 1.5932-.40525ZM28.969 3.42885c-.5977-.30877-1.3958-.59824-1.4862-.49072-.0083.26741 2.147 1.36466 2.3773 1.20751.1152-.07719-.2825-.39974-.8911-.71679Zm-.107-.30601c-.584-.27845-1.1461-.49349-1.2257-.46593l.0111.02207c.2248.18746 2.2703 1.19098 2.3991 1.13859-.0768-.16265-1.1735-.68921-1.1845-.69473ZM6.44081 6.73162c.49638-.4411 1.04194-1.04211 1.00088-1.14963-.17816-.0772-2.00988 1.60727-1.94133 1.78372.10696.04134.55384-.28671.94045-.63409Zm.92687.24811c.32899-.31152.5429-.70851.32352-.7802-.46062-.04685-1.39295.93735-1.25585 1.16894.09056.15714.56211-.0386.93233-.38874ZM21.9878 8.27824c.0028-.41078-.6032-.95941-1.7547-.9153-1.2998.12407-1.7221.94287-1.042 1.42532.9075.63961 2.7886.29775 2.7967-.51002Zm3.5318-.26741c-.1152-.46317-.8775-1.05865-2.0044-.96768-1.1901.17644-1.415 1.03109-.7212 1.56316.9762.74713 2.8215.41353 2.742-.49624-.0028-.02757-.0083-.06892-.0164-.09924Zm3.156-.27294c-.2249-.43834-1.0256-1.02557-2.0319-.89875-1.0529.22056-1.0254 1.07795-.2358 1.5797 1.0393.66166 2.5281.35289 2.3417-.48521-.0137-.06066-.0439-.13784-.074-.19574Zm2.4266-.35565c-.3181-.42732-1.1406-.98971-1.8946-.83533-.7953.25915-.4224 1.1827.4386 1.64036.9076.47968 1.8179.24536 1.6479-.42733-.0328-.1213-.0959-.24812-.1919-.3777Zm1.6233-.41353c-.3866-.41629-1.1845-.95113-1.6672-.77745-.5429.31705.3729 1.52182 1.36 1.79475.5403.14887.9049-.07719.5842-.64788-.0659-.11854-.1591-.2426-.277-.36942Zm-23.61386.69198c.36194-.39699.5401-.99248-.06308-1.07795-.96794-.03032-2.0511 1.13861-1.68635 1.58246.28512.34738 1.21745.07995 1.74943-.50451Zm2.46506.30051c.0438-.06066.1506-.22331.1672-.40527.0603-.66716-.9378-.7802-1.7219-.19574-.61713.46041-.72674 1.1193.0685 1.24612.7649.05239 1.3052-.39974 1.4862-.64511Zm3.4137.14336c.2303-.4604.0027-1.10827-1.0201-1.13585-1.3325.06065-2.1469 1.1193-1.5765 1.67343.6141.59825 2.1908.27018 2.5966-.53758Zm3.4274.09097c.1207-.46592-.307-1.10276-1.4231-1.09172-1.3572.10199-1.9687 1.09999-1.3297 1.64862.754.65063 2.5307.29224 2.7528-.5569Zm15.07-1.6762c-.4388-.41076-1.1463-.90977-1.3408-.72781-.107.21227.3015.73058.7238 1.12206.4497.41629.9844.70576 1.1928.65061.2358-.06339-.0165-.52105-.5758-1.04486Zm.3948.03585c-.3428-.29775-.7869-.70576-1.1379-.99249l-.022-.0193c-.2002-.15714-.2797-.21228-.3181-.21779l.0137.04411c.2852.397 1.7193 1.68722 1.9523 1.7148l.0083-.00828c-.0302-.09373-.4497-.4797-.4963-.52105ZM3.01893 10.9221c.4194-.6506.69921-1.33434.67454-1.46116l-.00827-.00826c-.14537.02756-1.15172 1.73412-1.15983 1.75062l-.03014.0524c-.07963.1461-.26607.4907-.14272.4521.09338-.0303.37568-.3391.66642-.7857Zm1.07474.6176c.27981-.4356.35382-1.0036.03841-1.1083-.54557-.0662-1.27772 1.326-1.0282 1.6403.17269.2206.68281-.0523.98979-.532Zm18.43983 1.1192c.0411-.5045-.6964-1.1744-2.1908-1.122-1.6946.1544-2.188 1.1386-1.3052 1.7341 1.127.7609 3.4138.3612 3.496-.6121Zm4.4339-.0385c-.0439-.4962-.8199-1.18-2.35-1.0725-1.5409.1985-1.9358 1.1441-1.1187 1.7314 1.1598.8354 3.5591.3777 3.4687-.6589Zm3.9621-.4357c-.1371-.5486-.9186-1.2488-2.2375-1.0862-1.3902.2757-1.5849 1.3095-.7239 1.9105 1.253.8739 3.2437.3171 2.9614-.8243Zm3.2053-.4603c-.2386-.6093-1.0721-1.3647-2.1826-1.1441-1.2997.3914-1.072 1.7395.0577 2.3239 1.2393.6424 2.4759.0442 2.1716-1.0475-.0137-.0414-.0329-.0937-.0467-.1323Zm1.966-.5211c-.2796-.5458-.9952-1.31502-1.7329-1.0641-.8719.4466-.266 2.0621.913 2.4315.8802.2784 1.3026-.4245.8199-1.3674Zm-29.77241.9346c.28246-.488.16192-1.0724-.46874-1.1662-.92968-.0386-1.62873 1.1139-1.20387 1.6349.36194.4411 1.29708.1765 1.67261-.4687Zm3.38908.2949c.25233-.5182.02467-1.2819-1.05833-1.3591-1.4067.0111-2.17711 1.2986-1.46416 1.9409.65252.5899 2.11668.2536 2.52249-.5818Zm3.64143.2564c.17-.4631-.1919-1.122-1.3079-1.1551-1.3272.0524-1.9441 1.0201-1.349 1.6101.6854.6782 2.3498.3915 2.6569-.455Zm4.431.1242c.1096-.4108-.4086-.9732-1.6588-.965-1.4205.0854-1.9715.8739-1.3327 1.3784.8282.6507 2.7831.3806 2.9915-.4134Zm19.1802-2.1587c-.255-.4273-.8199-1.1717-1.1133-.92357-.436.60647.8801 2.35447 1.3737 2.21097.2523-.0717.1454-.6147-.2604-1.2874Zm.6169.6451c-.3812-.6754-.957-1.5356-1.4011-2.16968l.0219.05514c.532 1.06694 1.212 2.02634 1.3929 2.17244l.011-.0055-.0247-.0524ZM.882898 15.9011c.233122-.7968.301672-1.566.290582-1.6899-.01921.0109-.01921.0109-.05481.1157-.205638.692-.468895 1.6156-.63066 2.3185l-.008118.0442c-.008276.0689-.008278.08-.005623.1074l.022018.0055c.098682-.0937.260447-.4714.386611-.9014Zm1.132352.6202c.19471-.6037.03294-1.2929-.33165-1.4197-.62255-.0827-.937796 1.6183-.64987 2.0455.24124.3612.77322.0222.98152-.6258Zm20.87195 1.4089c.0906-.7195-.8252-1.4529-2.4568-1.3895-1.8481.1819-2.4348 1.293-1.5985 2.0401 1.1681 1.0421 3.899.6065 4.0553-.6506Zm5.0014-.149c.0356-.6809-.9158-1.3453-2.5143-1.2295-1.8207.2343-2.3199 1.304-1.4369 1.9823 1.2284.94 3.8881.4355 3.9512-.7528Zm4.4474-.452c-.0273-.6535-.7869-1.4806-2.3936-1.282-1.8207.3501-2.1634 1.6623-1.0804 2.3516 1.3518.8573 3.5262.1903 3.474-1.0696Zm3.4852-.5984c-.0906-.7167-.8171-1.6071-2.1498-1.3453-1.5903.4605-1.6862 2.0346-.5484 2.7155 1.2751.7637 2.8654-.044 2.6982-1.3702Zm2.4897-.3886c-.1371-.6286-.7102-1.5191-1.6644-1.2296-1.3025.5652-.924 2.3791.2769 2.7845.924.306 1.6232-.477 1.3875-1.5549Zm-33.9101.7526c.1399-.4328-.10696-.9759-.68266-1.0641-.81163-.0359-1.07489.9648-.69655 1.4281.38395.4659 1.18184.2536 1.37921-.364Zm3.57287.5542c.13974-.4771-.25499-1.0256-1.06662-1.0863-1.11876.0056-1.40123.9815-.87206 1.4805.5732.5376 1.73304.3033 1.93868-.3942Zm4.51053.2481c.1453-.579-.4689-1.2214-1.615-1.2545-1.43138.0551-1.93307 1.1-1.17905 1.7424.84175.7169 2.56655.4163 2.79405-.4879Zm5.3496.1984c.1207-.5568-.606-1.3205-2.2786-1.3095-1.8562.113-2.4705 1.1799-1.5602 1.8637 1.1352.8519 3.6111.4962 3.8388-.5542Zm21.3354-2.495c-.0384-.146-.3785-1.4087-.7981-1.0752-.5675.6589.0823 2.564.661 2.5447.3508-.0083.3181-.7692.1371-1.4695Zm-.3154-1.4941-.0768-.2069.0137.0414c.148.477.2469.9704.3866 1.4501.0987.3446.2277.6811.3318 1.0229-.181-.6975-.4222-1.6294-.6553-2.3075ZM13.4192 2.33437c1.4423-.48247 1.4423-.48247 1.4835-.50728v-.00551c-.3373-.01654-2.2732.61203-2.5583.82707l.0055.01379c.0959-.00553.3646-.09098 1.0693-.32807Zm.2029.22055c.2002-.07445 1.2064-.45214 1.2832-.54587l-.0164-.01654c-.4086-.02758-2.6213.69749-2.5418.91529.1233.05514.7595-.16267 1.275-.35288Zm.6772.20951c.3072-.13784 1.1435-.54034.9708-.59824l-.0302-.00551c-.6745-.01379-2.6269.79675-2.3718.98698.0878.06341.5401.01377 1.4312-.38323Zm5.7664.38323c.0166-.21504-.1699-.63134-.6717-.61204-.5731.07167-1.0749.69473-.6772 1.02557.3947.33082 1.3078.12681 1.3489-.41353Zm1.6562-.04137c-.1262-.26466-.5813-.61203-1.0391-.57894-.5348.08822-.6363.6837-.1701.99247.5264.35014 1.3299.15991 1.2503-.29498-.0081-.0386-.0247-.08546-.0411-.11855Zm1.6342-.10475c-.2687-.25088-.9295-.58446-1.36-.53484-.4113.09648-.2002.61755.255.89874.5896.36391 1.3847.31154 1.2943-.08545-.0083-.0386-.0439-.14337-.1893-.27845Zm1.3463-.14889c-.436-.26741-1.2173-.54309-1.5299-.48521-.2798.10477.2495.61203.8197.8767.6855.31705 1.2395.2564 1.1105-.02481-.0218-.05237-.1069-.18747-.4003-.36668Zm.9762-.1847c-.532-.24536-1.393-.499-1.6041-.43284-.181.14061 1.2531.94011 1.9769 1.0173.2716.03033.3674-.04687.2414-.19574-.096-.11303-.3208-.25364-.6142-.38872Zm.5813-.20953c-.6444-.24536-1.4862-.44661-1.5822-.38045-.0081.11028 1.1024.57068 1.4534.70025.551.20402.9623.29224 1.0282.22055.0657-.06892-.2523-.29222-.8994-.54035Zm-10.8665.47971c.3565-.20677.8089-.54588.639-.61204l-.0769-.01102c-.6773.01379-2.3004.74711-2.0757 1.0228.1261.15163.8007.01379 1.5136-.39974Zm1.3683.12405c.2851-.23985.5264-.60376.2111-.63133l-.0521-.00275c-.7128.0386-1.977.75814-1.6616 1.05589.2057.19299.9706.02206 1.5026-.42181Zm1.5683.07169c.1427-.22055.2139-.63133-.255-.62857-.6854.05788-1.5711.7609-1.1735 1.06967.3016.23158 1.1215.03584 1.4285-.4411Zm8.0779-.89049c-.6032-.20125-1.2065-.33634-1.3436-.32256l-.0081.01379c.1205.10476 2.262.87946 2.3991.79124-.0026-.08271-.5455-.3143-1.0474-.48247Zm-.2934-.22055c-.6278-.19297-1.1159-.29775-1.2283-.3005l.0163.0193c.0192.00826 2.3939.76918 2.531.77744-.0302-.05513-.7678-.32807-1.319-.49624Zm-3.0463-.71404c-.5375-.07718-.9898-.10199-1.02-.08546.0274.00552.0356.00552.0987.01379.7348.05239 1.4587.15438 2.1634.3005l-.0247-.00828c-.0081 0-.5949-.13233-1.2174-.22055Zm-6.9618.25364c.5922-.10752.9788-.16266 1.2886-.20677.2332-.03308.2414-.03583.2661-.04411v-.00276c-.3373-.03583-2.1827.25364-2.6379.43836.0192.00551.0192.00551 1.0832-.18472Zm-.011.12958c.4935-.10477.9981-.15439 1.4834-.30051v-.00826c-.4442-.01655-2.3635.30877-2.7119.52105v.01653c.1015.01104.3181-.03583 1.2285-.22881Zm.2632.12682c1.2914-.33635 1.2914-.33635 1.3134-.35013l-.0164-.00828c-.521 0-2.5528.41355-2.6213.61203.0657.06893.7183-.09373 1.3243-.25362Zm4.1349.27844c-.0576-.15438-.3043-.43834-.5237-.42181-.2715.05513-.5512.54588-.192.77469.3099.1985.8144.04136.7321-.30877l-.0164-.04411Zm.9981-.04411c-.2222-.18471-.7239-.4163-.9103-.39423-.1783.05513-.0384.49349.3454.70851.3593.20125.7924.15991.7485-.06892-.0081-.05237-.0493-.13508-.1836-.24536Zm.8939-.07719c-.3949-.18748-1.0666-.38322-1.2174-.35564-.1179.06341.551.57067 1.1131.73334.3538.10475.606.06616.532-.07996-.0273-.04686-.1179-.15163-.4277-.29774Zm.6855-.09926c-.5346-.17644-1.3299-.34184-1.4259-.31152.0192.07167 1.053.49348 1.3189.57895.754.24536.8062.12682.8117.11027.0137-.06341-.2002-.20951-.7047-.3777Zm.4606-.11854c-.6883-.17644-1.4999-.28947-1.5382-.25915.1562.09926 2.402.78296 2.4787.62582-.0439-.09924-.5045-.25364-.9405-.36667Zm-6.6301.17644c.2248-.0772.9652-.33358 1.0364-.3832l-.0054-.01103-.0219-.00276c-.7103.02206-2.5364.57069-2.3253.70025.0358.02481.2386.06892 1.3162-.30326Zm.7349.08822c.0081-.00275.6936-.33909.7128-.41078l-.0465-.01102c-.6197.04136-2.136.59824-1.8975.7609.0878.05515.4963.01655 1.2312-.3391Zm.8774.0579c.1152-.09373.4744-.42457.3126-.43559h-.0275c-.5128.05238-1.6479.61203-1.3655.79675.1399.09097.6307-.00276 1.0804-.36116Zm.9706.02481c.0439-.09924.1235-.44661-.1206-.43559-.351.05239-1.072.55414-.8033.78571.1864.16267.754.03034.9239-.35012Zm4.2638-.47419c-.691-.14059-1.5052-.23709-1.5519-.20676.0192.00827 2.487.61479 2.6761.55964-.0218-.09373-.7019-.26466-1.1242-.35288Zm-.0494-.12682c-.6278-.10752-1.3133-.17091-1.3545-.14887.022.00552 2.4377.47143 2.5281.4356-.0631-.04963-.5758-.18472-1.1736-.28673Zm-.3152-.1268c-.5649-.08548-1.0941-.12131-1.1764-.10752.0192.00551 2.3746.36942 2.4157.36114l-.0109-.00551c-.1481-.04962-.6718-.16542-1.2284-.24811Zm-3.4384-.24538c-.0166.03034-.0192.06341-.0302.09375l.0055-.00277c.0959-.04411.1781-.07168.3373-.11579.0574-.01654.0657-.01654.074-.02205v-.00276c-.0055-.00275-.3373-.04411-.3866.04962Zm-.2469.00276c.1207.04135.181.07169.2139.09099v-.00277c-.0028-.03583.0109-.06892.0055-.10201l-.0247-.02755c-.0631-.02482-.3098-.0193-.3263-.00553.0028.00553.0028.00553.1316.04687Zm-.2358.01379c.2467.03032.3894.06341.4497.0772-.2139-.08548-.3674-.14612-.787-.12682-.0329.00275-.0329.00275-.0438.00551.0082.00275.0192.00551.1233.01653.0576.00552.1537.01379.2578.02758Zm-.2084.02205c.3483.0193.5649.04411.6581.05515-.203-.03585-.7459-.1351-1.2969-.08548l-.0166.00552c.2168.02206.4361.01104.6554.02481Zm-.1563.02481c.4223.00553.6992.02206.8144.03034-1.0941-.10752-1.637-.04137-1.6973-.03309l-.0054.00275c.296.02757.5922-.00275.8883 0Zm-.1014.03034c.4716-.01104.7814-.00277.9158 0-1.3683-.06892-1.966.03032-1.9715.03032l-.0028.00275c.0275.00276.0878.00276.31-.00826.2083-.00828.4661-.0193.7485-.02481Zm1.626-.0579c-.2166.01102-.436.03032-.7074.0579h.0164c.5456-.03585.9625-.04137 1.541-.03585.2111.00276.2276 0 .255-.00275-.0878-.02206-.584-.04688-1.105-.0193Zm-.1974-.0193c-.1947.02205-.3674.05239-.5128.07995l.0138-.00275c.4414-.05239.8005-.07169 1.2393-.08271.1233-.00277.1371-.00551.1617-.00551-.0438-.01656-.4606-.0386-.902.01102Zm-.2277-.01379c-.1069.02481-.2028.06065-.2851.09099l.0083-.00277c.2495-.05238.4798-.08545.8197-.11303.0878-.00827.0961-.00827.1125-.01102-.0138-.00551-.3646-.03033-.6554.03583Zm-1.2366.12131c.4935-.02758.8035-.03032.9543-.03032-1.5164-.0193-2.1087.09924-2.1142.10199.0138.00828.129 0 .4607-.02481.1563-.01103.4223-.03032.6992-.04686Zm.0275.03309c.4826-.04411.7815-.0579.9268-.06341-1.4752.03032-2.0729.15438-2.1142.17367.0302.00552.1098 0 .4964-.04134.2441-.02481.4552-.04688.691-.06892Zm.0905.03307c.307-.04411.5785-.07444.8335-.09648h-.0164c-1.6261.09373-2.0345.25362-2.0345.25362.0273.01104.0273.01104 1.2174-.15714Zm.8554.0579c-.0027-.05239-.0219-.10201-.0219-.15438l-.0028.00275c-.1124.07994-.2384.17369-.2823.25363-.0714.12957.0164.15991.0575.16542.0932.01377.266-.05238.2495-.26742Zm.2468-.00828c-.0768-.04962-.1563-.09097-.2687-.1461v.00275c.033.07443.0411.15714.0768.22882.011.02205.0384.06892.0932.11578.0987.07996.2522.0965.2769.02758.0137-.02758.0165-.09925-.1782-.22883Zm.2413-.01377c-.2029-.06341-.4168-.11029-.51-.13233l.0055.00275c.244.09924.4634.25087.7101.34185.1371.04963.2853.06616.2687.01379-.0054-.03308-.1179-.11579-.4743-.22606Zm.2002-.02207c-.2742-.05238-.5347-.08822-.7102-.11026l.0109.00275c.1948.03859.3318.07168.6883.17092.2961.08271.7403.20953.7787.15991-.0301-.05239-.3454-.14337-.7677-.22332Zm.1453-.02757c-.255-.03032-.5346-.05788-.8527-.08269l.0136.00275c.3949.04687.6608.09373 1.1325.1792.3893.07167.6663.12129.7102.09924-.0823-.05789-.5676-.14611-1.0036-.1985Zm.085-.03032c-.2852-.02205-.5923-.0386-.9405-.05237h.0164c.4936.03307.8446.07443 1.4478.15163.3785.04962.5813.07443.6417.06616-.0384-.0386-.5457-.11855-1.1654-.16542Zm-1.6096.06892c.3347-.07167.5429-.10476.6719-.12129l-.0165.00275c-1.4478.14888-1.7192.31153-1.722.31428.0247.02757.0247.02757 1.0666-.19574Zm.203.0193c.1919-.06616.329-.10752.4689-.14059l-.0111.00275c-1.0474.17644-1.3024.32532-1.3106.3639.0521.04688.3538-.05513.8528-.22606Zm.2303.01104c.0933-.06618.1535-.11029.2358-.15163l-.0083.00275c-.9267.27017-.8171.39699-.8143.39699.0055.00276.1289.0772.5868-.24811Zm1.1983-.13233c-.2989-.01379-.6034-.0193-.9625-.0193h.0192c.5759.01653.9843.04686 1.6781.11026.3427.03033.4497.0386.5182.03584-.0493-.03858-.6691-.10199-1.253-.1268Zm-.0439-.03309c-.2825-.00276-.5759 0-.9186.01379h.0192c.5375-.00277.9651.01102 1.6918.05237.351.0193.4305.02481.477.0193-.0356-.02481-.5977-.0772-1.2694-.08546Zm1.0804.01102c-.6554-.0386-1.3218-.0386-1.999.00277h.0164c.6418-.02758 1.1188-.01655 1.6754-.00277.2495.00552.2659.00552.3017.00277l.0055-.00277ZM7.48275 34.3227c-.51262-.6149-1.56283-1.2488-1.7602-1.1303-.23859.1405 1.01165 1.4059 1.75755 1.6596.03295.0083.07682.0192.10961.0192.21111.0111.16739-.2204-.10696-.5485Zm12.94225.8794c.1069-.4686-.6472-.9567-1.9331-.9319-1.3189.0911-1.6837.6755-1.1846 1.1469.8035.7554 2.9313.6093 3.1177-.215Zm3.6962-.0937c.2384-.477-.384-.9401-1.6918-.8739-1.4807.1488-2.0072.8628-1.3847 1.3259.839.6176 2.7336.2318 3.0765-.452Zm3.6495-.2315c.3565-.4825-.0466-.9347-1.3216-.8189-1.5411.2122-2.243 1.0036-1.6452 1.4391.6718.4881 2.4185.1213 2.9668-.6202Zm3.0025-.3364c.4469-.499.2495-.863-.4497-.8271-.0851.0055-.1975.0192-.2824.0331-1.4341.2867-2.2924 1.2323-1.7028 1.5907.5183.3171 1.8152-.1075 2.4349-.7967Zm2.1798-.4136c.4717-.4825.5265-.8297.1316-.8297-.0959 0-.2111.0274-.2878.044-1.1956.3557-2.2019 1.4723-1.7302 1.7121.329.1682 1.264-.2923 1.8864-.9264Zm1.297-.4631c.4223-.4274.7567-.8519.5539-.8437-.0439.0028-.1152.0331-.1618.0525-.8775.4383-2.0511 1.7202-1.7603 1.8002.1617.0414.776-.4108 1.3682-1.009ZM9.69561 34.6673c-.35366-.5624-1.52177-1.0283-1.8097-.8133-.30713.2289.58944 1.0945 1.44776 1.2544.54838.0662.47702-.2592.36194-.4411Zm2.85709.2619c-.1124-.3061-.6937-.6616-1.3818-.7003-.6801.0056-.5622.3722-.3292.6038.5567.5487 1.7385.6865 1.7302.1984 0-.0329-.0083-.0743-.0192-.1019Zm3.8032.215c-.033-.4107-.776-.8601-1.8289-.8766-1.0035.0385-1.1681.4989-.7459.9042.7815.7498 2.6351.7278 2.5748-.0276Zm-5.1165 2.2055c-.7129-.43-1.61234-.8518-1.69181-.7912.02186.1434 1.49971.9484 2.08111 1.1331.0467.0138.0576.0138.0823.0138l.0082-.0166c-.0384-.0579-.2001-.1709-.4798-.3391Zm9.1061.6149c.0821-.3061-.4662-.6232-1.4176-.6093-.9241.0578-1.138.4052-.8062.6947.5648.4934 2.0811.4356 2.2238-.0854Zm2.6021-.0662c.2577-.3143-.1261-.6176-1.105-.5679-1.0474.0965-1.4643.5182-1.1242.816.4853.4274 1.8562.2067 2.2292-.2481Zm2.5664-.1599c.3263-.2537.2798-.4659-.1205-.5348-.2111-.0359-.4525-.0139-.5814-.0028-1.2065.1571-1.7658.6864-1.4779.9373.3537.3089 1.6397.0166 2.1798-.3997Zm2.1114-.2372c.425-.2647.5374-.4823.2796-.5402-.1343-.0303-.3318-.0029-.4386.0109-1.1543.2151-2.0319.8961-1.7302 1.0752.2687.1572 1.2915-.1737 1.8892-.5459Zm1.5355-.2921c.5265-.3006.7787-.5404.5977-.5707-.0657-.0111-.159.011-.2522.0303-.9845.2702-2.1744 1.0697-1.9742 1.1662.137.0717.9762-.2537 1.6287-.6258Zm.1864.0662.9981-.5487.0604-.0359c.3646-.2205.5401-.3364.5894-.3941l-.0109-.0111c-.0329.0083-.0467.0111-.1124.0385-.6335.2784-2.0509 1.1221-2.1662 1.2379.0768.011.6335-.284.6416-.2866Zm-16.3394.3611c-.4277-.3199-1.2559-.7114-1.8508-.7857-.0851-.0028-.3401-.0165-.1783.1791.3647.4385 2.2567 1.1965 2.2978.9208.0109-.0634-.0878-.1791-.2687-.3142Zm2.1498.193c-.2386-.2703-1.0009-.67-1.8152-.7196-.6745 0-.3702.3225-.3017.3859.5292.5019 2.2758.9981 2.2183.5156-.0082-.0524-.0438-.113-.1014-.1819Zm2.4622.1129c-.1014-.3059-.7951-.645-1.6698-.6616-.8117.0275-.7294.3364-.5539.5128.5539.5652 2.1853.7417 2.2374.2453.0028-.0303-.0026-.0689-.0137-.0965Zm2.6213 1.4364c.0493-.0965-.2386-.2371-.787-.2316-.4386.0194-.4879.1241-.4139.1902.1836.1572 1.1022.2261 1.2009.0414Zm1.2833-.0303c.1535-.0634.1755-.1296.0631-.1737-.1399-.0551-.3977-.0441-.4826-.0413-.5759.044-.8116.2012-.713.2866.1345.1214.8584.0386 1.1325-.0716Zm1.2695-.0828c.2879-.0743.4333-.1542.3593-.193-.0659-.0385-.2908-.0192-.3648-.0137-.6909.0745-1.2146.3006-1.2065.3666.0686.0387.7788-.0468 1.212-.1599Zm1.0419-.1157c.1371-.0303.5951-.1379.6774-.215l-.0083-.0165c-.0439-.0083-.0877-.0057-.2139.0109-.606.0965-1.7246.4274-1.7329.4302.2715-.036.6335-.0883.9049-.1324l.063-.011c.0823-.0193.1919-.0387.3098-.0662Zm-7.2196.0662c-.5209-.1186-1.0336-.284-1.563-.3557l-.0493-.0028c.0742.0939 1.1216.2923 1.4643.3557.2139.0359.5017.08.7156.1131h-.0054c-.1509-.0221-.3345-.058-.5622-.1103Zm1.0612.0965c-.6197-.182-1.0749-.2812-1.3875-.3034-.0932-.0026-.1205.0028-.1343.0222.0658.1571 1.6506.3997 1.8235.3804-.0166-.0138-.0192-.0166-.3017-.0992Zm1.2174.0551c-.1672-.1021-.6278-.2509-1.1268-.262-.2991.0057-.2688.0662-.2249.1048.1836.1516 1.445.3502 1.4203.2233l-.0686-.0661Zm2.3856-.5293c.1672-.2123-.1838-.4356-.9487-.4108-.7925.0579-.9542.3226-.7678.4934.3701.3363 1.4724.2317 1.7165-.0826Zm2.0071-.0882c.2523-.1572.244-.2978-.0274-.364-.1892-.044-.4141-.0303-.5457-.022-.9103.0937-1.3189.4356-1.1406.6121.244.2398 1.2969.0303 1.7137-.2261Zm1.7904-.1544c.3703-.1682.5019-.3143.3401-.3723-.1124-.0412-.3208-.0165-.4359-.0054-.9872.1461-1.6973.59-1.5547.7195.148.1296 1.0939-.0909 1.6505-.3418Zm1.3766-.2013c.477-.1902.7512-.3612.6525-.4025-.0493-.0221-.1947.0028-.2659.0165-.7952.1682-1.8481.6644-1.9249.794l.0109.0166c.1508.0331.9872-.2096 1.5274-.4246Zm-2.668.7746c.5813-.1129.7568-.1488 1.4285-.3141l.0193-.0057c.1344-.0357.2796-.0799.3318-.1047-.011-.0055-.0138-.0055-.1179.0165-.5593.1242-1.1051.2869-1.6617.408Zm3.5892-1.0116c.4087-.1599.8802-.364.9461-.4329-.0192-.0082-.0248-.011-.1372.0221-.5676.1792-2.1717.8602-2.2182.885.0712.0054.4414-.1242 1.2504-.4108l.0382-.0139c.0358-.0166.0851-.0358.1207-.0495Zm-13.2985.3555c-.2056-.0854-1.2559-.5237-1.7329-.6093-.0521-.0054-.0604-.0054-.0796.0029.0823.2012 2.1278.8656 2.3362.8601-.0137-.0248-.0275-.0441-.5237-.2537Zm1.4724.1738c-.3619-.1958-1.1242-.4964-1.6808-.5459-.0823-.0028-.2714-.0083-.1701.1048.2551.2784 2.1662.8628 2.1279.6505-.0056-.0412-.1069-.1157-.277-.2094Zm1.7604.1157c-.203-.1902-.8446-.4659-1.5218-.4934-.4525.0055-.3702.1488-.3154.2095.2633.2867 1.8975.7444 1.9221.4272.0055-.0523-.0574-.1185-.0849-.1433Zm1.944.0525c-.0328-.2096-.5621-.4439-1.2723-.4468-.5949.0249-.6663.2096-.4798.3695.4689.4053 1.8125.4633 1.7521.0773ZM4.99586 32.142c-.44688-.6783-1.27225-1.3647-1.42855-1.3096-.1919.0689.91859 1.6211 1.4971 1.9215l.04387.0166c.20283.0579.15084-.2288-.11242-.6285Zm17.53224 1.1992c.17-.5431-.6115-1.0918-2.0483-1.0393-1.5465.1323-2.0538.8905-1.445 1.4281.8883.7829 3.2082.5265 3.4933-.3888Zm4.2254-.1847c.2796-.5486-.3264-1.0779-1.7905-.9731-1.637.1984-2.2869 1.0393-1.6508 1.5603.8117.6616 2.997.2895 3.4413-.5872Zm3.7757-.3281c.3097-.4825.1178-1.0889-1.2888-.9236-1.5876.273-2.3636 1.2131-1.7631 1.6901.6964.554 2.4924.102 3.0519-.7665Zm2.8981-.4245c.4525-.6231.2058-1.0367-.551-.9236-.0412.0056-.096.0165-.1371.0248-1.3875.3501-2.2238 1.4474-1.6589 1.8526.5072.3667 1.7604-.1433 2.347-.9538Zm1.9442-.4935c.4579-.6066.4907-1.0008.0768-.9374-.055.0082-.1235.0304-.1783.047-1.1269.4437-2.0538 1.8112-1.5301 1.9986.3318.1187 1.0941-.3997 1.6316-1.1082Zm-28.21227.7858c-.18909-.3695-.78135-.8465-1.32988-.9347-.53463-.0358-.25498.4522-.03279.714.53464.6313 1.36267.9236 1.42856.5045.01639-.1074-.04122-.2343-.06589-.2838Zm2.74483.2259c-.10977-.3363-.67188-.7333-1.33549-.7857-.6608-.0055-.55384.4219-.27419.714.61146.6341 1.63154.67 1.62873.1847 0-.0357-.00812-.0799-.01905-.113Zm3.86344.2923c-.0495-.4135-.7487-.8767-1.7165-.9098-1.0421.0276-1.0172.59-.6033.9704.8472.772 2.3965.601 2.3198-.0606Zm4.409.1544c.0522-.5156-.7815-1.0642-2.1031-1.0614-1.4696.0827-1.6012.7857-1.1325 1.2405.8776.8493 3.1452.7223 3.2356-.1791Zm17.8228-1.6182.5375-.7306.0412-.0608c.2467-.3611.3207-.499.3015-.5459-.0273-.0054-.0411 0-.1205.0552-.7979.6286-1.7385 2.0842-1.5054 2.0678.1589-.0083.7403-.7776.7457-.7857ZM8.52204 35.7948c-.59506-.4768-1.3408-.9593-1.51084-1.0062l-.01374.011c.01374.0248.04934.0882.51277.4493l.73216.5459c.48248.342.63612.4163.69374.4467.04934.0192.04935.0192.06855.0083-.02748-.0855-.34836-.3474-.48264-.455Zm13.46036.9181c.1728-.3942-.414-.7885-1.5629-.7526-1.2366.0992-1.6123.6341-1.1105 1.0256.7486.5844 2.4157.3169 2.6734-.273Zm3.2438-.1433c.3262-.4025-.0905-.7831-1.234-.7031-1.2914.1489-1.8865.7526-1.4477 1.1248.5841.4991 2.2128.1599 2.6817-.4217Zm2.8982-.2481c.4141-.3805.2742-.6811-.3207-.6975-.1454-.0028-.2962.0137-.4032.0247-1.3325.2151-2.1387.9429-1.6809 1.271.4772.3418 1.818-.058 2.4048-.5982Zm2.2238-.3282c.4606-.3693.5484-.6561.2139-.6975-.1262-.0138-.2551.0083-.3811.0331-1.171.2757-2.1773 1.1386-1.8154 1.3923.3045.215 1.3629-.2289 1.9826-.7279Zm1.4916-.3804c.5045-.386.7486-.6809.5923-.714-.0576-.0138-.148.0137-.2331.0413-.9872.3584-2.1442 1.3702-1.9331 1.4942.1454.0855.9077-.3115 1.5739-.8215Zm-21.5794.5596c-.59773-.5733-1.74929-1.0752-1.94134-.9153-.21111.1793 1.07769 1.158 1.91404 1.3564.0356.0055.0849.0138.1233.0138.2277.0056.1893-.1819-.096-.4549Zm2.3663.2867c-.4414-.5927-1.8425-1.0447-2.2046-.8077-.3783.2481.7049 1.1111 1.7879 1.2654.7979.0634.4333-.4383.4167-.4577Zm2.6982.1655c-.1179-.3226-.7924-.6865-1.6095-.7168-.7102.0137-.7349.3143-.458.5872.6114.601 2.0729.7664 2.0867.2344 0-.0305-.0083-.0745-.0192-.1048Zm3.3808.1131c.0137-.3888-.7101-.8079-1.8069-.8079-1.0585.0551-1.2559.4962-.8308.8739.7649.6838 2.613.6369 2.6377-.066Zm12.7447-.7114c.606-.4438 1.4039-1.0531 1.9826-1.5355l.0192-.0194.0081-.0109c-.0192.0054-.0192.0054-.0795.044-.6581.4466-1.9413 1.464-2.0182 1.5714.0166-.0028.0275-.0054.0878-.0496ZM2.64044 27.6125c-.1755-.6149-.72934-1.3593-1.11861-1.5026-.4881-.0828.12601 1.4032.50169 1.9132.34008.4605.60599.4219.66361.1159.0192-.0965.02732-.2647-.04669-.5265Zm20.24126 1.3949c.1371-.5763-.6141-1.3398-2.3772-1.2738-1.8564.171-2.4184 1.1773-1.5574 1.85 1.1352.8877 3.6742.5182 3.9346-.5762Zm4.8781-.2151c.2166-.6671-.5649-1.3123-2.2046-1.1937-1.8564.2371-2.5089 1.2653-1.7247 1.9077 1.0338.8519 3.57.3916 3.9293-.714Zm4.3597-.3749c.2194-.5817-.1782-1.3151-1.7466-1.1275-1.7879.3226-2.476 1.4666-1.6644 2.0539.9652.7001 3.008.146 3.411-.9264Zm3.348-.4908c.2358-.5871.0328-1.315-1.1572-1.0861-1.5492.4108-2.1716 1.7396-1.3517 2.233.7567.455 2.1167-.1654 2.5089-1.1469Zm2.3827-.5899c.2633-.6617.3098-1.5383-.6361-1.2351-1.3628.579-2.0264 2.36-1.2641 2.7377.5594.2784 1.4835-.4522 1.9002-1.5026Zm-32.67883.9622c-.07682-.408-.56212-.9236-1.13516-1.0119-.64722-.0357-.5045.681-.07136 1.1469.53744.5818 1.19559.4991 1.21745.0055.00281-.0412-.00266-.0992-.01093-.1405Zm3.52883.1488c-.07401-.8684-1.73288-1.5741-2.39648-1.02-.55931.4658.10977 1.5384 1.31613 1.7203.90766.0688 1.10502-.4274 1.08035-.7003Zm4.2118.4356c.0136-.5513-.776-1.1689-1.9743-1.2048-1.35186.0442-1.456.8657-.9323 1.3895.9707.9704 2.8819.6892 2.9066-.1847Zm4.9301.1544c.074-.543-.6857-1.293-2.3033-1.2847-1.5822.0993-2.0345.9621-1.3545 1.6128 1.0172.9704 3.5124.7471 3.6578-.3281Zm20.9213-2.3048c.1371-.3694.4248-1.2185.1644-1.1166-.0302.0111-.0631.0387-.0904.0579-.7979.7141-1.2476 2.4648-.8857 2.4427.1891-.011.5017-.5404.8117-1.384ZM2.87903 29.647c-.32072-.6369-.89657-1.4281-1.00088-1.4529 0 .022.00281.0414.0495.1379.21111.4354.52917 1.0007.75667 1.428l.18924.3144c.11243.1819.15084.2232.18644.2618.03013.0248.0356.0275.05481.0248.04934-.0744-.08776-.4219-.23578-.714Zm1.78784.6698c-.18644-.4713-.75417-.9952-1.18732-1.0972-.48529-.0523-.11242.6783.18363 1.0615.54291.7001 1.01727.7058 1.06115.3694.01655-.1269-.0356-.2757-.05746-.3337Zm15.67583.9622c.1124-.5679-.7267-1.1551-2.1552-1.1275-1.5327.113-1.9879.9014-1.3463 1.4777.9542.8546 3.3096.6202 3.5015-.3502Zm4.6421-.1048c.2085-.6119-.6031-1.2102-2.1469-1.1275-1.7713.1875-2.3664 1.1166-1.5932 1.7176.9955.7663 3.4057.3886 3.7401-.5901Zm4.4531-.2812c.244-.532-.1673-1.2102-1.8372-1.0558-1.7988.2618-2.5034 1.2985-1.6918 1.8526.9432.6479 3.0874.1627 3.529-.7968Zm3.6604-.4106c.2853-.5404.0851-1.2103-1.2447-1.0147-1.6261.342-2.3554 1.4723-1.6233 1.9768.7623.5237 2.369-.0165 2.868-.9621Zm2.6598-.5045c.2851-.5102.3619-1.2297-.6416-.9898-1.3463.4273-2.0758 1.7424-1.4259 2.1284.5237.3087 1.5877-.2758 2.0675-1.1386Zm1.5822-.5653c.307-.5569.4715-1.1166.1041-1.0366-.0439.0111-.0987.0359-.1399.0525-.9926.543-1.7521 2.1475-1.2338 2.2469.3235.0633.8994-.5928 1.2696-1.2628ZM7.21138 30.5595c-.09603-.3612-.63067-.8105-1.24212-.8822-.64987-.0194-.52917.521-.1563.9016.59225.6092 1.41216.5871 1.41481.1047 0-.0387-.00812-.0882-.01639-.1241Zm3.66042.3997c-.0465-.3886-.6416-.8353-1.45584-.8794-.90766.011-.87471.5817-.4525.9676.76229.6975 1.97974.5267 1.90834-.0882Zm4.7327.273c.0221-.5568-.8445-1.1661-2.1688-1.1855-1.5027.0662-1.6014.896-1.0091 1.417 1.0008.8796 3.1395.7223 3.1779-.2315Zm21.9853-1.8995c.2358-.4688.5621-1.089.7759-1.5686l-.0027.0054-.0329.0551c-.5237.8657-1.1599 1.9657-1.2065 2.2883.0274-.0139.4606-.7748.4662-.7802ZM1.08307 24.7093c-.126162-.7636-.512771-1.5549-.655329-1.6348-.128818-.0717-.052154.3888.049339.8987l.02186.1104.054963.2591c.18097.8077.285117 1.0531.389265 1.1717l.027479.022c.126163.0607.202833-.2839.112423-.8271Zm1.80142.5156c-.03841-.4218-.41393-.9705-.85816-1.0724-.56758-.0497-.32634.9732.03279 1.3839.37022.4219.78696.2646.82537-.1654.00281-.0442.00281-.1019 0-.1461Zm17.60081 1.2958c.1097-.6204-.6938-1.4557-2.4924-1.4172-1.8865.1517-2.4377 1.2297-1.5466 1.9714 1.1845.9868 3.8279.623 4.039-.5542Zm4.9767-.1269c.1426-.6231-.6252-1.4336-2.4349-1.3343-1.9276.2178-2.5418 1.3122-1.6726 2.0236 1.1489.9428 3.836.4934 4.1075-.6893Zm4.9109-.3116c.1617-.6202-.4196-1.4198-2.2156-1.2488-1.9496.3006-2.5774 1.5191-1.604 2.1752 1.1653.7912 3.5207.2205 3.8196-.9264Zm4.0361-.452c.1646-.6258-.2412-1.4089-1.6671-1.191-1.7111.3805-2.273 1.7203-1.3491 2.3048 1.0037.6341 2.7228 0 3.0162-1.1138Zm3.1752-.5762c.1783-.7003-.0164-1.69-1.2941-1.3785-1.6644.5652-2.1771 2.4124-1.1489 2.9444.8773.4521 2.1332-.3529 2.443-1.5659Zm1.5053-.6038c.1179-.5184.1729-1.4252-.4689-1.1331-1.0227.6147-1.2995 2.4565-.6059 2.5804.4003.0717.872-.5651 1.0748-1.4473ZM5.90071 25.8341c-.00828-.4328-.49638-.9676-1.18185-1.0421-.80882-.0165-.80335.7526-.37005 1.2242.62504.6809 1.56564.4631 1.5519-.1821Zm4.11299.3723c.0246-.5293-.63615-1.1303-1.6617-1.1828-1.20917.0248-1.30785.8685-.78149 1.4033.83911.8519 2.4021.5789 2.44319-.2205Zm4.9848.237c.0631-.5348-.6333-1.2847-2.1002-1.3011-1.6288.0826-1.8208 1.0667-1.1517 1.6651.9762.8711 3.1369.6313 3.2519-.364Zm24.634-2.8479.1425-.9262.0028-.0194v-.0468c-.0192.0054-.0192.0054-.0521.0634-.4386.9318-.6881 2.5501-.51 2.6026.1096-.0663.4141-1.657.4168-1.6736ZM.721131 19.1184c.095872-.6175-.032945-1.3041-.202984-1.4309-.046531-.0137-.172695-.0523-.279653.8491-.038411.3198-.109614 1.0835.02748 1.2931.120543.1847.342736-.1214.438607-.6093.005622-.0277.01374-.0689.01655-.102Zm1.889179.6065c.10414-.5514-.18363-1.2599-.76495-1.3895-.78149-.0634-.904847 1.3426-.47983 1.8994.38662.5047 1.10768.2096 1.24478-.5099Zm17.84759 1.0806c.1206-.7001-.7924-1.4335-2.4761-1.3949-1.8837.1489-2.4923 1.2213-1.6506 1.9628 1.1435 1.0118 3.9209.6287 4.1267-.5679Zm5.0397-.0964c.096-.6893-.8472-1.3785-2.539-1.2903-1.9084.2041-2.4897 1.2737-1.6124 1.974 1.2284.9759 3.9814.5211 4.1514-.6837Zm4.9739-.4107c.0549-.6424-.6662-1.4723-2.4375-1.3013-1.914.3032-2.402 1.5852-1.3545 2.2855 1.3133.8794 3.6879.2618 3.792-.9842Zm4.2913-.4716c.0191-.7167-.6581-1.6154-2.2156-1.3756-1.8919.4357-2.221 1.9712-1.0172 2.6852 1.2942.7692 3.1999-.0028 3.2328-1.3096Zm2.9503-.5707c-.0192-.6781-.4963-1.6457-1.6918-1.3479-1.5547.5513-1.5848 2.3626-.3894 2.9195 1.0284.4797 2.1168-.3419 2.0812-1.5716Zm1.648-.6258c-.0467-.5679-.3126-1.5575-.9926-1.2405-1.0256.6672-.7075 2.7265.181 2.881.5894.1019.8801-.772.8116-1.6405ZM5.48662 20.1054c.09603-.4687-.27965-1.0229-.9926-1.0974-.94045-.0165-1.11315.9484-.63332 1.4503.51543.5431 1.48882.3307 1.62592-.3529Zm4.15418.4769c.10696-.5266-.43595-1.1249-1.41215-1.1744-1.27507.0275-1.49991 1.0282-.90204 1.5714.72388.6616 2.15243.4135 2.31419-.397Zm5.325.1516c.1233-.6285-.6691-1.3096-2.0483-1.326-1.637.0826-2.1581 1.1221-1.3354 1.8113 1.0008.8408 3.1861.5265 3.3837-.4853Zm24.897-1.9243c-.0494-.4908-.1234-1.1441-.2057-1.6294l-.0054-.0275c-.033-.1847-.085-.4604-.1618-.3363l-.0164.0358c-.3071.8987.1262 2.8093.3454 2.6522.1043-.0745.0439-.6894.0439-.6948ZM.293299 21.6686C.271439 21.0593.137 20.4609.12607 19.849l-.005465.5982c.030136.6478.068549 1.5135.137096 2.1587v.0026c.030135-.0412.052149-.4686.035598-.9399Zm1.403881.6175c.01109-.6866-.35913-1.4723-.764942-1.6156-.614267-.0828-.392074 1.7396-.043875 2.2441.315407.455.704667.1544.789767-.4026.01093-.0688.01905-.157.01905-.2259Zm21.31902 1.4804c.1124-.6561-.702-1.5272-2.5281-1.4556-2.0319.2011-2.4515 1.4253-1.648 2.1145 1.1873 1.0256 3.9594.5873 4.1761-.6589Zm5.163-.2288c.1124-.6369-.5922-1.5108-2.465-1.3675-1.8809.2564-2.5281 1.4447-1.6561 2.1781 1.1625.9785 3.8963.4411 4.1211-.8106Zm4.6148-.3998c.1042-.6562-.4772-1.4915-2.0948-1.2929-1.8509.3529-2.3829 1.6514-1.415 2.3295 1.1819.8299 3.3151.1984 3.5098-1.0366Zm3.7593-.532c.0987-.7526-.3922-1.6873-1.7878-1.4144-1.7741.5019-2.1717 2.2415-1.0282 2.881 1.0995.6093 2.6514-.1984 2.816-1.4666Zm2.3444-.6149c.074-.7526-.1782-1.7505-1.1708-1.4225-1.3984.6396-1.5767 2.6824-.5595 3.1318.7706.3391 1.6124-.4908 1.7303-1.7093ZM3.8059 22.9919c.02732-.4246-.32634-.9539-.88018-1.0367-.71295-.0303-.73497.8546-.31807 1.3233.44142.4991 1.15702.3281 1.19825-.2866Zm3.58364.193c.04668-.4522-.41675-.9761-1.18451-1.0312-.97886.0083-1.0638.8602-.55665 1.3316.59787.5541 1.67261.3694 1.74116-.3004Zm5.08086.4465c.074-.5487-.5483-1.3261-1.911-1.3647-1.57393.0634-1.7741 1.158-1.06396 1.7865.94876.8381 2.84066.5707 2.97496-.4218Zm5.1824.1627c.0961-.6121-.6498-1.4529-2.3032-1.442-1.8126.1242-2.1772 1.2573-1.4561 1.93 1.0804 1.0035 3.5755.6809 3.7593-.488ZM39.83 21.357c.0218-.3611.0548-1.5108-.3702-1.1827-.6992.7168-.68 2.7265-.1426 2.7128.2934-.0083.4689-.7748.5128-1.5301Z"/>
  	<linearGradient id="a" x1="-4.11025" x2="42.6824" y1="33.3025" y2="33.3025" gradientUnits="userSpaceOnUse">
  		<stop stop-color="#47B547"/>
  		<stop offset="1" stop-color="#FFDA5A"/>
  	</linearGradient>
</svg>