<svg xmlns="http://www.w3.org/2000/svg" viewBox="0 0 40 40">
	<path fill="#E2A250" d="M.194292 22.4568S4.25281 15.4113 21.6343 15.4113c6.7227 0 13.7737 2.4999 14.4841 2.884.7104.3851 1.4217.4338 2.3022-.4521 1.0249-1.0303 1.1072-1.7104 1.1072-2.8022 0-1.2564-2.9724-5.041-10.8425-5.041C20.8142 9.99908 4.35429 14.7928.536234 20.6591c-.956343 1.4696-.341942 1.7986-.341942 1.7986v-.0009Z"/>
	<path fill="#5B6DB0" d="M39.8056 17.0039s-4.0585 7.0463-21.4391 7.0463c-6.7228 0-13.77375-2.4998-14.48415-2.884-.7104-.385-1.40709-.4962-2.36343.4945-.874052.9062-1.141026 1.4328-1.025826 2.8022.151774 1.7857 2.951316 4.9996 10.822406 4.9996 7.8711 0 24.3301-4.7938 28.1481-10.6591.9573-1.4696.341-1.7995.341-1.7995h.001Z"/>
</svg>