<svg xmlns="http://www.w3.org/2000/svg" viewBox="0 0 40 40">
	<path fill="#004017" d="M14.1891 15.2727c6.1078-.1316 25.6495-.5532 25.8109-5.62326-.1614-5.07117-19.7201-5.49219-25.819-5.62379-.4441-.00948-.8169-.01729-1.1058-.02565v11.2989c.2906-.0084.6661-.0167 1.1139-.0262ZM0 21.7725v-3.8338c17.6861.8142 36.9726-.692 39.9309-4.4789l-.0636 3.8934c-5.5968 5.074-29.8616 4.6106-39.144321 4.4333L0 21.7725Zm0 3.1044v3.8338l.725488.0139c9.284412.1773 33.545312.6407 39.141812-4.4332l.0636-3.8924C36.9726 24.1854 17.6861 25.691 0 24.8769Zm0 10.9894v-3.836c17.6861.8164 36.9726-.6893 39.9309-4.4756l-.0636 3.8923c-5.5965 5.0739-29.8574 4.6105-39.141812 4.4332L0 35.8663Z"/>
</svg>