<svg xmlns="http://www.w3.org/2000/svg" viewBox="0 0 40 40">
	<path fill="#540608" d="M37.4302 30.2685H6.16689c-1.41849 0-2.56972-1.1512-2.56972-2.5697V8.56973C3.59717 7.15124 4.7484 6 6.16689 6H37.4302C38.8487 6 40 7.15124 40 8.56973V27.6988c0 1.4185-1.1513 2.5697-2.5698 2.5697Z"/>
	<path fill="#930B0F" d="M33.833 33.8662H2.56973C1.15124 33.8662 0 32.7149 0 31.2964v-19.129c0-1.4185 1.15124-2.56974 2.56973-2.56974H33.833c1.4185 0 2.5698 1.15124 2.5698 2.56974v19.129c0 1.4185-1.1513 2.5698-2.5698 2.5698Z"/>
</svg>