<svg viewBox="0 0 40 40" xmlns="http://www.w3.org/2000/svg">
	<path fill="#2F9A41" d="M15.7538 5.977c-3.3078 0-6.19555.94509-8.71577 2.83525.63006-.63005 1.31262-1.2076 2.04768-1.78515C12.2885 4.71689 15.8063 3.92932 19.6916 4.50688c3.8854.63005 6.9832 2.52022 9.2934 5.67052 2.3102 3.2028 3.1502 6.7206 2.5202 10.6584-.105.7876-.315 1.5752-.5251 2.2577 1.2076-1.7326 1.9952-3.7803 2.3627-6.038.2626-1.6277.2626-3.1503.0525-4.6729 1.1026 2.4677 1.4177 5.0929.9451 7.9282-.63 3.8853-2.5202 6.9831-5.723 9.2933-2.9927 2.1527-6.353 3.0453-10.0284 2.5727-.105-.5775-.1575-1.1551-.1575-1.7851-.105-2.3102.3151-4.4629 1.2076-6.4581l-1.5226-.315c-2.3627 2.8877-3.4653 6.1955-3.3603 9.9758 0 .4726.0525.8926.105 1.3127-1.8901-.6826-3.6228-1.7852-5.19794-3.3603C6.88052 28.764 5.5154 25.4037 5.5154 21.4659c0-3.9379 1.41762-7.2982 4.14786-10.0809C12.446 8.60224 15.8063 7.23712 19.7441 7.23712c.7876 0 1.5752.0525 2.3103.15751C20.1642 6.44955 18.064 5.977 15.7538 5.977zm3.0453 27.2499c.945.3675 1.9426.6301 2.9927.7876 4.0429.63 7.6657-.21 10.9735-2.6253 3.2553-2.4152 5.2505-5.618 5.8805-9.6083.6301-3.9904-.21-7.6657-2.5727-10.9735-1.4176-1.94264-3.1503-3.46527-5.198-4.46286-.0525-.05251-.105-.15752-.1575-.21002C28.3549 2.82673 25.1521.831552 21.1093.201496c-4.0429-.630055-7.6657.210019-10.9735 2.625234-2.94026 2.15269-4.83042 4.93543-5.6705 8.40077C2.1551 13.9052 1 17.0555 1 20.7308c0 4.0954 1.41762 7.5607 4.30538 10.4484 2.67773 2.6778 5.88052 4.0954 9.60832 4.3054.2625 1.6276.7351 3.1503 1.5227 4.5154h5.9855c-1.8377-1.9427-3.0453-4.2004-3.6228-6.7731z"/>
</svg>
