<svg xmlns="http://www.w3.org/2000/svg" viewBox="0 0 40 40">
	<path fill="#005BFF" d="M4.99595 17.3694c2.77881 0 4.81578-1.9123 4.81578-4.684 0-2.77169-2.0357-4.68399-4.81578-4.68399-2.7788 0-4.81577 1.9123-4.81577 4.68399 0 2.7717 2.03574 4.684 4.81577 4.684Zm18.76865 0c2.7788 0 4.8157-1.9123 4.8157-4.684 0-2.77169-2.0369-4.68399-4.8157-4.68399-2.7788 0-4.8158 1.9123-4.8158 4.68399 0 2.7717 2.037 4.684 4.8158 4.684Zm14.6138-.3044v-5.4054c0-2.60526-1.4041-3.65819-3.3015-3.6596-1.2658 0-2.2573.61022-2.8351 1.6079h-.0551V8.27731h-2.3124V17.065h2.3393v-4.3244c0-1.9133.8532-2.5781 2.037-2.5781 1.1274 0 1.7884.5835 1.7884 1.9964v4.9061h2.3394Zm-27.7135-6.7913V8.27731h7.4857v1.85709l-4.7056 4.9342h4.926v1.9964h-7.8162v-1.8852l4.7056-4.9061h-4.5955Zm-5.66895 4.9342c-1.43101 0-2.36627-.9987-2.36627-2.5225 0-1.5252.93526-2.5229 2.36627-2.5229 1.43102 0 2.36628.9977 2.36628 2.5229s-.93526 2.5225-2.36628 2.5225Zm18.76865 0c-1.4311 0-2.3663-.9987-2.3663-2.5225 0-1.5252.9352-2.5229 2.3663-2.5229 1.431 0 2.3662.9977 2.3662 2.5229s-.9352 2.5225-2.3662 2.5225Zm6.3126 16.0924v-8.7504h-2.3406v3.1736h-3.7452v-3.1736h-2.3407v8.7504h2.3407v-3.5336h3.7452v3.5336h2.3406Zm-12.3883-7.481v-1.2694h2.3407v8.7504h-2.3407v-1.1874h-.0547c-.468.8277-1.4869 1.4907-2.9186 1.4907-2.3407 0-4.1583-1.6832-4.1583-4.6928 0-2.981 1.8729-4.6372 4.1583-4.6372 1.4035 0 2.5059.6631 2.9186 1.5457h.0547Zm-15.32021.3596c.57811-1.0483 1.67916-1.7113 3.11088-1.7113 2.31239 0 4.21198 1.7113 4.21198 4.4432 0 2.7333-2.09191 4.6928-4.81824 4.6928C2.12006 31.6036 0 29.6441 0 25.973c0-4.1403 1.12921-6.7357 4.92847-7.039l3.8825-.3034v2.2357l-3.49671.3315c-2.25722.221-2.91865 1.0488-3.00069 2.9811h.05512Zm10.64061 2.7872c0 1.4636.9073 2.5123 2.3124 2.5123 1.4036 0 2.3672-1.0769 2.3672-2.5405 0-1.4907-.9636-2.539-2.3672-2.539-1.4035 0-2.3124 1.0768-2.3124 2.5672Zm-10.5598-.0268c0 1.5175 1.04721 2.5391 2.39566 2.5391 1.34972 0 2.39565-1.0216 2.39565-2.5391 0-1.5459-1.04593-2.457-2.39565-2.457-1.34968 0-2.39566.9111-2.39566 2.457Zm31.411.1658 3.1656 4.1952L40 31.2992l-3.9094-4.7751 3.5801-3.9742h-2.8916l-2.9186 3.6159v-3.6159h-2.3407v8.7504h2.3407v-4.1952Z"/>
</svg>