<svg xmlns="http://www.w3.org/2000/svg" viewBox="0 0 40 40">
	<path fill="#ED1A3B" d="M0 0h40v40H0V0Z"/>
	<path fill="#fff" d="M17.2393 29.7149v-6.2185c0-.2117.1059-.3135.3177-.3054 4.6221.1588 9.6922-.4683 10.1606-6.2063.3502-4.333-2.7-6.8701-6.8376-6.9475-2.5357-.04341-5.0864-.04884-7.6519-.0163-.1521.0028-.2281.0801-.2281.2322V29.719c0 .1531.1279.281.281.281l3.6773-.0041c.1874 0 .281-.0936.281-.281Zm0-9.9854-.0081-6.3936c0-.0778.0688-.1467.1466-.1467l3.0095-.004c1.6763-.0023 3.1335 1.3613 3.1357 3.0583v.562c.0022 1.6969-1.4514 3.0643-3.1276 3.0665l-3.0095.0041c-.0777 0-.1466-.0689-.1466-.1466Z"/>
</svg>