<svg xmlns="http://www.w3.org/2000/svg" viewBox="0 0 40 40">
	<path fill="#D9007E" d="M14.7122 0c-3.5336.93275-6.75596 2.78725-9.33753 5.37376C2.78604 7.95113.93087 11.1715 0 14.7036V3.36789c.00163033-.89165.356195-1.7464.986212-2.37747C1.61624.359347 2.47047.003271 3.36226 0H14.7122ZM40 14.7036c-.93-3.5311-2.7829-6.75119-5.3686-9.32984C32.0476 2.78701 28.8231.932582 25.2876 0h11.35c.8919.003271 1.746.359347 2.3762.99042.63.63107.9845 1.48582.9862 2.37747V14.7036Zm-5.3686 19.9225c-2.5822 2.589-5.8072 4.4437-9.3438 5.3739h11.35c.8908-.0034 1.7441-.3585 2.3739-.9883.6299-.6297.9852-1.4829.9885-2.3734V25.284c-.9266 3.5361-2.7798 6.7609-5.3686 9.3421ZM0 25.2839c.928847 3.5365 2.78415 6.7613 5.37467 9.3421 2.57991 2.5887 5.80293 4.4435 9.33753 5.3739H3.36226c-.89122-.0017-1.74547-.3564-2.375666-.9865C.3564 38.3833.00163678 37.5292 0 36.6382V25.2839Z"/>
	<path fill="#00B295" d="M10.8919 10.8973c1.8014-1.80057 4.0963-3.02662 6.5945-3.52319 2.4983-.49656 5.0877-.24132 7.4409.73343 2.3532.97477 4.3644 2.62526 5.7795 4.74286 1.415 2.1175 2.1702 4.6071 2.1702 7.1538 0 2.5466-.7552 5.0361-2.1702 7.1537-1.4151 2.1176-3.4263 3.7682-5.7795 4.7429-2.3532.9747-4.9426 1.2299-7.4409.7333-2.4982-.4964-4.7931-1.7225-6.5945-3.523-1.19708-1.1955-2.14676-2.615-2.79471-4.1777-.64796-1.5626-.98147-3.2377-.98147-4.9292 0-1.6917.33351-3.3667.98147-4.9293.64795-1.5627 1.59763-2.9823 2.79471-4.1776Z"/>
</svg>