<svg xmlns="http://www.w3.org/2000/svg" viewBox="0 0 40 40">
	<path fill="#4D4F53" d="M23.6799 4.69483 15.5788 0v4.78315C8.90302 6.62639 4 12.7386 4 20.0001c0 6.2631 3.64598 11.674 8.9312 14.2269l1.5778-4.3362c-3.5288-1.8885-5.93036-5.6081-5.93036-9.8907 0-4.7017 2.89526-8.7246 6.99966-10.39016l.0005 17.34086 8.1011-22.25597Z"/>
	<path fill="#55ED00" d="m15.8989 35.3051 8.1016 4.6948v-4.7826c6.6743-1.8437 11.5789-7.956 11.5789-15.2174 0-6.2631-3.6466-11.67401-8.9323-14.22646l-1.5777 4.33576c3.5287 1.8884 5.9303 5.608 5.9303 9.8907 0 4.7011-2.8953 8.7251-6.9997 10.3901l-.0005-17.3414-8.1006 22.2565Z"/>
</svg>