<svg xmlns="http://www.w3.org/2000/svg" viewBox="0 0 40 40">
	<path fill="#FF8C00" d="M27.3612 32.4626c3.7431.818 7.4984 1.785 11.5574 6.8659.3606.4509-.19.9028-.6037.5385-4.1307-3.6267-7.8627-4.7959-11.3022-4.7959-3.8288 0-6.4373.5068-9.0663.5068C8.03507 35.5779 0 27.6127 0 17.788 0 7.9652 8.03507 0 17.9464 0c9.9122 0 17.9464 7.96427 17.9464 17.788.0047 3.219-.874 6.3775-2.5405 9.1316-.0531.0866-.1863.0559-.1994-.0438-.6158-4.3711-3.3109-6.7802-7.232-7.4826-.34-.0615-.4034-.2693.0466-.3075 1.1962-.1024 2.901-.0847 3.7674.0699.0522-.4481.0745-.9055.0745-1.3676 0-6.4933-5.3111-11.75867-11.863-11.75867-6.552 0-11.86304 5.26447-11.86304 11.75867 0 6.4951 5.31104 11.7596 11.86304 11.7596.1863 0 .3726.0019.5571-.0065-.1819-1.0495-.2565-2.1149-.2227-3.1795.0289-.7174.1761-.8161.5031-.2581 1.6406 2.8041 3.9966 5.3595 8.5763 6.3591h.001Zm-.3047-4.3645c.4379 0 .8972.1826 1.2922.5142.7983.6689 1.0415 1.4645.6185 2.0262-.2347.3075-.6148.477-1.0713.477-.4472 0-.9037-.1649-1.2204-.4378-.7266-.6298-.94-1.649-.4658-2.2284.1854-.2264.4863-.3512.8468-.3512Zm3.9789-2.9104c.6661.2497.9279 1.2596.9968 1.7254.1174.7797-.1304 1.102-.3801 1.102-.272 0-.6148-.3158-1.0173-.939-.3978-.6149-.5431-1.3229-.3465-1.6788.1304-.2357.4033-.3391.7471-.2096Z"/>
</svg>