<svg viewBox="0 0 40 40" xmlns="http://www.w3.org/2000/svg">
	<path fill="#FFE600" d="M40 32.44C40 37.3 37.3 40 32.44 40H7.56C2.7 40 0 37.3 0 32.44V7.56C0 2.7 2.7 0 7.56 0h24.89C37.3 0 40 2.7 40 7.56v24.88Z"/>
	<path fill="#2B2D34" d="M25.7197 18.0494v-3.82l1.38-1.38v3.31l1.2 1.2 4.83-4.83 1.19 1.19c-.01-.9-.19-3.51-2.4-5.67998-2.38-2.3-4.96-1.26-5.84-.38l-4.82 4.81998 1.23 1.23-2.49 2.51-2.49-2.49 1.23-1.23-4.82-4.81998c-.88-.88-3.46-1.92-5.84001.38-2.21 2.16998-2.39 4.77998-2.4 5.67998l1.19-1.19 4.83001 4.83 1.2-1.2v-3.31l1.38 1.38v3.82l1.94 1.93-9.56001 9.56 3.78001 3.77 9.56-9.55 9.56 9.56 3.78-3.77-9.56-9.57 1.94-1.95Z"/>
</svg>