<svg xmlns="http://www.w3.org/2000/svg" viewBox="0 0 40 40">
	<path fill="#525455" d="M2.7 25.8v-2.1h4.9v-2.5H0v13.2h6.3l1.9-1.9v-4.7l-2-1.9c0-.1-3.5-.1-3.5-.1zm2.7 6H2.7v-3.5h2.7v3.5zM11.7 21.1L9 34.3h2.7l.6-3.1h3.5l.6 3.1h2.7l-2.7-13.2h-4.7zm1.1 7.6l1-5h.5l1 5h-2.5zM26.3 26.5H23v-5.4h-2.7v13.2H23v-5.2h3.3v5.2H29V21.1h-2.7zM37.6 27.6l2.3-6.5h-2.8l-1.8 5.2h-1.5v-5.2H31v13.2h2.8v-5.4h1.4l1.9 5.4H40z"/>
	<path fill="#990032" d="M9.7 18.9h2.7V8.2h3.5V5.7H9.7zM.1 5.7v13.2h2.7v-3.3h3.5l2-1.9v-6l-2-2H.1zM5.5 13H2.7V8.2h2.7V13zM19.4 8.2h3.9V5.7h-4.7l-1.9 1.9V17l1.9 1.9h4.7v-2.6h-3.9z"/>
</svg>