<svg viewBox="0 0 40 40" xmlns="http://www.w3.org/2000/svg">
	<path fill="#555D63" d="M2.02789.529986C3.56206.223152 5.7099 0 8.75035 0c3.06835 0 5.24405.669456 6.72245 2.03626 1.3947 1.28313 2.3431 3.40307 2.3431 5.91353 0 2.51051-.7252 4.63041-2.0084 6.05301-1.7015 1.8689-4.212 2.6778-7.14083 2.6778-.64156 0-1.22734-.0279-1.70154-.1116v9.1493H2.02789V.529986zM6.93724 12.1339c.41841.1116.94839.1395 1.67364.1395 2.64992 0 4.26782-1.5621 4.26782-4.15624 0-2.3431-1.3947-3.76569-3.8773-3.76569-1.00419 0-1.70154.11157-2.06416.22315v7.55928zM24.993.195312V10.014h8.173V.195312h4.9651V25.7462H33.166V15.0628h-8.173v10.6834H20V.195312h4.993z"/>
	<path fill="#F68C28" d="M38 34H2v6h36v-6z"/>
</svg>
