<svg xmlns="http://www.w3.org/2000/svg" viewBox="0 0 40 40">
	<path fill="#e41a19" d="M40 0H0v40h40V0z"/>
	<path fill="#fff" d="M27.4 5.8c-.2.3-.4.5-.7.7-.3-.2-.5-.4-.7-.7.2-.3.4-.5.7-.7.3.2.5.4.7.7zm-.2 1.7v1.2h-.8V7.5c-.4-.1-.9-.2-.9.1 0 .4.2.9.4 1.2-.1 0-.2.1-.3.1-.1.1-.3.1-.4.1-.4-.5-.6-1.1-.7-1.7 0-.9 1.5-.6 2-.5l.4.1.4-.1c.5-.1 1.9-.4 1.9.5-.1.7-.3 1.2-.7 1.7-.1 0-.2 0-.3-.1-.2 0-.3-.1-.5-.1.2-.4.4-.8.4-1.2 0-.2-.5-.2-.9-.1zm1.2 1.8c-.5-.1-1-.2-1.5-.2s-1 .1-1.5.2l.2.8c.4-.1.8-.1 1.3-.1.4 0 .9.1 1.3.2l.2-.9zm-6.3 24.2h-2.7v-.6l-.4.5v-.7c0-.1 0-.3.1-.4l.3-.3h.7c.4-.1.8-.2 1.1-.5.3-.3.5-.6.6-1-.6-1-1-2.1-1.1-3.3 0-1.6 1-2.9 3.4-2.9.9 0 1.7.3 2.5.6 0 0-3.1 3.2-3.1 4.2.2.5.4 1 .5 1.6-.5 1.1-1.2 2-1.9 2.8zm12.8-15.4l-.2-.3c.3-.2.6-.3.9-.3.3 0 .6 0 .9.2-.8-1.6-2.7-1.1-2.8.3-.3.2-.6.5-.7.8-.2.3-.3.7-.2 1.1 0 1 .7 2.6 1.2 3.9.4.9.7 1.6.7 1.9v.4c0 .1-.1.2-.2.3-.1.1-.2.2-.3.2-.1 0-.2.1-.4.1-.4 0-.8-.3-1.5-1.2-.8-1.1-1.8-2.1-2.9-2.8l-2-1.4 2.8-2.1.2 1c.5-.7.8-1.4.9-2.2.1-.8.1-1.6-.1-2.4 0-.1 0-.2-.1-.3 0-.1 0-.1-.1-.2l.7.3V15c-.5-2.5-2.3-4.5-4.9-4.5-.7 0-1.4.1-2.1.3l.1.6c-.3.1-1.9.8-1.9.8 0 .6.2 1.2.6 1.6.5.1 1 .1 1.4-.1.1.1.1.2.1.3 0 .1 0 .2-.1.3-.1.1-.1.2-.2.3-.1.1-.2.1-.3.1h-.7c0 .1 0 .3.1.4l.3.3h1.5c.2 0 .4 0 .5-.1.2-.1.3-.2.4-.4.1-.2.2-.3.2-.5s0-.4-.1-.5c0-.2-.1-.4-.2-.5.2.1.3.3.5.4.1.2.2.4.2.6.1.2.1.4.1.5 0 .2-.1.4-.2.5-.1.2-.2.3-.4.4.1.2-.1.2-.3.2-.5.1-.7.1-.9.1-.3 0-.5.1-1.1.2-.6.1-1.1.4-1.5.8-.4.4-.7.9-.9 1.5l-1.5.6-.7.3c-.7.2-1.4.5-2 .8-.4.3-.7.8-.8 1.3-.1.2-.1.3-.1.5s0 .4.1.5c.4.3.9.4 1.3.4l-.5-.5.7-.1c.3-.2.4-.5.5-.8l1 .1c.7.1 1.4 0 2.1-.3.3.6.8 1.2 1.4 1.6l.6.3c1.5.8 4.7 2 4.7 2 0 .1 0 .1-.1.2-.9.9-1.5 2.1-1.5 3.4 0 1.7 2.7 1.7 2.7 1.7h.7c-.1.7-.6 1.6-1.2 1.6h-.8c-.1.1-.2.1-.3.3-.1.1-.1.2-.1.4v.7l.5-.5v.5h2.7l.2-.4c.6-1 1-2 1.3-3.2 0-.5-2.1-1-2.3-1 .3-1 .6-2.1.8-3.2.9 1.3 1.8 1.8 2.4 1.8.4 0 .8-.2 1.1-.4.3-.3.5-.7.5-1.1 0-.6-.2-1.1-.6-2.1-.2-.5-.4-1-.7-1.7l-.1-.2c-.5-1.4-1-2.5 0-3.2v.1l.6.3c.2 0 .4 0 .7-.1.2-.1.4-.2.5-.4s.2-.4.2-.6c-.2-.4-.6-.3-1-.1zm-9.6-6.6c.4-.1.9 0 1.3.2-.9.6-1.4.5-1.3-.2zm-4.4 2.3l.4.5 1.6 2.1c-.7.4-1.6.5-2.4.3-1.2-.3-1.5-2.1-1.5-2.1l-.1-1c-.3 0-.6 0-.9-.2l-.2-.6-.3.6c-.1-.4-.1-.8 0-1.2.1-.1.3-.2.4-.2.2-.1.3-.1.5 0 .5 0 .9.1 1.3.3l1.2 1.5z"/>
</svg>
