<svg xmlns="http://www.w3.org/2000/svg" viewBox="0 0 40 40">
	<g fill="#414042">
		<path d="M20 0c-4 0-7.8 1.2-11.1 3.4s-5.9 5.3-7.4 9C0 16-.4 20 .4 23.9c.8 3.9 2.7 7.4 5.5 10.2 2.8 2.8 6.4 4.7 10.2 5.5s7.9.4 11.6-1.1c3.7-1.5 6.8-4.1 9-7.4C38.8 27.8 40 24 40 20c0-5.3-2.1-10.4-5.9-14.1C30.4 2.1 25.3 0 20 0zm0 37.9c-3.5 0-7-1.1-9.9-3-2.9-2-5.2-4.8-6.6-8s-1.7-6.9-1-10.3c.7-3.6 2.4-6.7 4.9-9.2 2.5-2.5 5.7-4.2 9.2-4.9 3.5-.7 7.1-.3 10.3 1s6.1 3.7 8 6.6c2 2.9 3 6.4 3 10 0 4.7-1.9 9.3-5.3 12.6-3.3 3.4-7.9 5.2-12.6 5.2z"/>
		<path d="M24.4 27.1c1.7 1.8 1.4 5.1.9 6.6 0 .1 0 .1-.1.2 0 .1-.1.1-.2.1-.9.3-2.1.6-2.6.7 2.6-2.3 3-5.6 2-7.6zm9.4-2.1c-2.1-1.8-4.7-3.1-7.4-3.7 2.8 1.4 5 3.6 6.4 6.4.5-.8.9-1.6 1.2-2.4v-.2c-.1 0-.1-.1-.2-.1zm1.1-4.9c0-.1 0-.2-.1-.2-.8-.3-1.7-.6-2.5-.9.2-.1.4-.2.5-.4.1-.2.2-.3.3-.6-.9.4-1.9.6-2.8.6 1.7.7 3.3 1.6 4.7 2.7-.1-.4-.1-.8-.1-1.2z"/>
		<path d="M26.8 25.4c.6.2 1.2.2 1.8 0-2.4-.6-3.8-4.1-9.4-4.6-.2 0-.8.1-.5-.5.8-.8 1.6-1.5 2.5-2.1-.4 0-2.3.2-2.8.2s-.7-.1-.7-.5c0 0-1.1 1-.6 1.6.1.1.3.1.6 0s.7-.2 1-.3h.1v.1l-.6.9c-.1.3-.2.5.4.6 1.6.5 3.2 1.2 4.7 2.1 1.6 1 2.9 2.3 3.8 4 .9 1.6 1.3 3.5 1.3 5.3.7-.5 1.5-1.1 2.1-1.7.1-.1.1-.3.1-.3-.8-1.9-2.1-3.6-3.8-4.8z"/>
		<path d="M33 13.3c-.3-.2-1.9-1.2-2.3-1.4-.3-.2-.6-.4-.8-.7-.2-.3-.3-.7-.3-1 .1-1-.6-2.4-2.5-4.1v.5c-.6-.5-1.3-.9-2.1-1 0 0 .2-.6.2-1s-.2-.8-.7-.5c-2.4 1-6.3 1-10.4 5 .5-1.3 1.4-2.5 2.5-3.4-1 .2-2 .6-3 1-.3.1-.5.4-.7.6-1.5 2.3-2.5 4.9-2.9 7.6C9.6 13 9.7 11 10 9c-.8.7-1.6 1.6-2.2 2.5-.2.3-.4.6-.4 1 0 2.9.6 5.7 1.7 8.3-1.6-1.3-2.8-4-3.4-5.5-.4 1.2-.7 2.5-.8 3.8 0 .5.2 1.1.5 1.5 1.6 2.8 4 5.1 6.8 6.7-1.7-.2-5.1-2.1-6.8-3.5.3 1.3.8 2.5 1.4 3.6.3.5.7.9 1.3 1.1 2.8 1.5 5.9 2.3 9.1 2.1-2.4.9-5 1-7.5.4.4.4.9.8 1.4 1.2 1.1.8 2.4 1.4 3.7 1.7 3.2.6 7.2-1.7 6.2-5.9-.2.4-.4.7-.7 1-.3.3-.7.5-1.1.6 1.6-1.6 1.4-4.1-1.3-4.4-1.2-.1-2.3-.1-3.5 0-.3 0-.7 0-1-.1-.3-.1-.6-.3-.8-.5l1.6-.2c.9-.4 1.8-.6 2.8-.6-.1-.2-.4-.6-1.7-.2-.2.1-.5.1-.7 0-.2-.1-.4-.2-.6-.4 1.3.3 1.7-1.1 2.9-.3.2.2.6.2.5-.2-.1-.2-.3-.4-.4-.5-.2-.1-.4-.2-.7-.1-1.2-.2-2.4-.1-3.5.3-.5.2-.9.6-1.3.9 0-.6.1-2.3.9-3.1 1.2-.7 2.5-1.2 3.9-1.3-.1-.1-.1-.3-.1-.4 0-.1 0-.3.1-.4.4-.5 1.6-1.3 8.6-1.3l-.6.6c1.5.1 3 .4 4.4.9.2.1.6.2 1-.6.2-.2 0-.2-.4-.5.1-.1.1-.3.1-.4 0-.2-.2-.2-.2-.1-.2.2-.7.2-.8-.1-.1-.3-.3-.5-.5-.6-.2-.2-.5-.3-.8-.3.2-.2.5-.4.8-.4.3-.1.6-.1.9 0 0 0 .1.3.3.2.2-.1.4-.3.6-.1.1.1.1.3.1.4-.1.2 0 .2.2.1l.4-.4c.3.1.6.1.9 0 .3-.1.5-.3.7-.5.2-.2.3-.5.4-.8.5-.3.8-.8.6-.9zM19.6 13l.9-.3c.3-.1.6-.1.3.2-.7 1-.7 3 .3 3.4-.6 0-1.3.1-1.9.2-.1-.9 0-1.9.2-2.8-.4.2-.9.4-1.1.5-.1-1.9 1.6-5.1 3.7-5.9-1.3 1.2-2.2 2.9-2.4 4.7zm4.5-7.8c-.2.4-.8 1-.6 1.5-.3.1-.7.2-1 .4-.2.2-.3 0-.2-.2.3-.7.9-1.3 1.6-1.8.3-.2.4 0 .2.1zm4.5 5.5c-.1.3-.1.4-.4.3-.1-.1-.3-.1-.5-.2s-.2-.1-.2.1c.2.3.3.7.2 1.1-.4-.7-.8-1.4-1.4-1.9.5-.1 1.1 0 1.6.2.2.1.5.1.6-.9.3.4.3.9.1 1.3z"/>
	</g>
</svg>