<svg xmlns="http://www.w3.org/2000/svg" viewBox="0 0 40 40">
	<path fill="#42AB44" d="m14.1955 22.6756 3.9289-3.8489v-2.6222l-3.9289 3.84v2.6311Zm0-9.76 3.9289-3.86668V6.58669l-3.9289 3.83111V12.9156Zm0 3.2267 3.9289-3.8489V9.82226l-3.9289 3.84004v2.48Zm-1.12-9.52894-.5333-.49778V0h-.5867v5.52891l-.5155-.50667V0h-.5956v4.44446L10.32 3.9289V0h-.58671v5.83113L13.68 9.68003V0h-.5956v6.61336h-.0089Zm1.12 12.75564 3.9289-3.8489v-2.4712l-3.9289 3.84v2.4801Zm-4.4711-.5423 3.9467 3.8489v-2.6311l-3.9467-3.84v2.6222Zm7.8134-14.8978-.5245.51556V0h-.5867v5.03113l-.5333.49778V0h-.5867v6.10669l-.5155.50667V0h-.5956v9.68892l3.9289-3.85779V0h-.5866v3.9289ZM9.7244 9.04892l3.9467 3.86668v-2.4889L9.7244 6.5778v2.47112Zm0 3.24448 3.9467 3.8489v-2.4889L9.7244 9.83114v2.46226Zm0 3.2267 3.9467 3.8489v-2.4801l-3.9467-3.8311v2.4623Zm23.4401 2.0355H23.6c.2088-.3232.3199-.6997.32-1.0844-.0048-1.1233-.9478-2.0582-2.0711-2.0534-1.1165.0048-2.0486.9369-2.0534 2.0534 0 .4444.1423.8533.3823 1.1911-.179.1191-.2916.3273-.2934.5422 0 .2311.1245.4356.2934.5511-.2477.3479-.3812.7641-.3823 1.1911 0 1.1184.935 2.0534 2.0534 2.0534 1.1233.0048 2.0663-.9301 2.0711-2.0534 0-.4-.1156-.7733-.32-1.0844h7.12v.4355h-.7111v.6045h.7111v.6222h-.7111v1.1556h.7111v-.5156h1.04v.5156h.7023v-1.1556H31.76v-.6222h.7023v-.6045H31.76v-.4444h1.4045c.2711 0 .4978-.2267.4978-.4978v-.3022c-.0047-.2692-.2286-.4931-.4978-.4978Zm-10.2489 2.4c0 .581-.4857 1.0667-1.0667 1.0667s-1.0667-.4857-1.0667-1.0667c0-.4081.2775-.7509.48-1.0844-.1924-.1643-.3054-.4137-.3022-.6667 0-.2667.1155-.4978.2933-.6578-.1914-.335-.4686-.6819-.4622-1.0844 0-.581.4857-1.0667 1.0667-1.0667s1.0666.4857 1.0666 1.0667c0 .4355-.4977 1.4666-.4977 1.4666v.5512c-.0089.0089.4889 1.04.4889 1.4755ZM6.15106 16.3023v2.5689c0 2.4444 1.06667 4.0267 1.68889 4.6311l4.07115 4c1.1378 1.1111 1.3333 1.4756 1.5911 2.1067v-2.8445c0-2.315-1.0764-3.3293-1.7692-3.9821-1.2101-1.1404-2.39737-2.3089-3.57305-3.4846-.88941-.8321-1.57658-1.8568-2.00889-2.9955Zm2.00889 9.3422c-.82707-.7495-1.50556-1.6482-2.00001-2.6489v2.2134c-.02656 1.7055.57089 3.3619 1.68001 4.6578l4.07115 3.9733c1.0979 1.0722 1.3185 1.6064 1.5642 2.2016l.0269.0651v-2.9956c0-2.3191-1.0802-3.3347-1.7675-3.9808l-.0004-.0004-.0011-.001c-1.2078-1.1359-2.40008-2.3113-3.57325-3.4845ZM19.663 4.74654c-.2817.00001-.5634.00017-.8452.01778v1.19112c6.7851-.52035 13.3536 3.3421 16.1973 9.52436.9318 2.0259 1.4419 4.2201 1.4992 6.4492.1151 4.4722-1.6451 8.883-4.8075 12.0474-3.1625 3.1643-7.5722 4.9271-12.0445 4.8147-4.3598.0047-8.5431-1.7221-11.6301-4.8008-3.08702-3.0786-4.82513-7.2572-4.83219-11.617 0-5.04 2.26667-9.5378 5.84891-12.56007v-1.5289C6.8592 9.92274 5.08186 12.0494 3.8582 14.4951 2.63453 16.9409 1.99827 19.6385 2 22.3733 2 32.1066 9.91114 40 19.6712 40c4.678.0024 9.1656-1.8531 12.476-5.1585 3.3104-3.3054 5.1727-7.7902 5.1774-12.4682 0-9.7331-7.9108-17.62635-17.6616-17.62676ZM32.9334 30.4266c-.24.4-.5066.7911-.7733 1.1556v-3.52h.7733v2.3644Zm1.5588-3.4635c-.0246.0811-.0495.1629-.0743.2457-.4267-.4355-1.1911-.4266-1.8756-.4088h-.3822v-.6223h2.56c-.0682.2591-.1468.5183-.2279.7854Zm-17.8255-.8832h.6934v7.0312h-.6934v-7.0312Zm-1.6001-1.3429H17.36c.5955 0 1.0133.1245 1.2444.3556.24.2222.3556.64.3556 1.2267v6.5778c0 .5866-.1067.9955-.3556 1.2266-.3555.3645-1.0311.3645-1.5822.3645l-.3556-.0089v3.1111l.6934.1245v-2.5601c1.0666 0 1.7511-.3555 2.08-1.0844v3.8133h.2311l.4444-.0088V26.4348c0-.6044.1156-1.0311.3556-1.2711.2222-.24.64-.3556 1.2178-.3556.0817 0 .1687-.0016.259-.0034.5678-.0109 1.2699-.0244 1.661.359.2311.24.3378.6756.3378 1.2711v3.3778h-1.5734v-3.6089h-.6844v11.5467c.2311-.0267.4444-.0622.6844-.1067v-7.1555h1.5734v6.7911c.32-.0889.64-.1867.96-.3022v-6.2223c0-.7111.1689-1.2444.8889-1.4844l-.8-4.3289h1.6l.2666 4.72h.1956l.2667-4.72h1.6711l-.8978 4.3289c.7467.2666.8978.72.8978 1.4755v4.0267c.4663-.3497.9115-.7266 1.3333-1.1289v-8.7378h4.6667l.0889-.64H24.16l.1511.7911c-.3378-.64-.9956-.96-1.9556-.96h-.6844c-1.1556 0-1.8667.4622-2.1333 1.3778-.24-.96-.9778-1.44-2.1867-1.44h-2.9867v12.9067c.2311.08.4622.16.6933.2222V24.7459l.0089-.0089Zm14.4801 4.96-.7556-.7111.7556-3.8844v4.5955Zm-2.8383 6.4971c-.0407.0209-.0813.0419-.1217.0628v-5.6978h.7111v5.3156c-.1848.1109-.3881.2156-.5894.3194Z"/>
</svg>