<svg xmlns="http://www.w3.org/2000/svg" viewBox="0 0 40 40">
	<path fill="#0999d5" d="M30.9 15.5v-4.6c0-2.5-2-4.6-4.6-4.6-2.5 0-4.5 2.1-4.5 4.6v4.6h-3.7c0-5-4.1-9-9-9-5.1-.1-9.1 4-9.1 9s4.1 9 9 9v4.6c0 2.5 2 4.6 4.6 4.6 2.6 0 4.6-2 4.6-4.6v-4.6h3.7c0 5 4.1 9 9 9 5 0 9-4.1 9-9s-4.1-9-9-9zm-23.7 0c0-1 .8-1.8 1.8-1.8s1.9.7 1.9 1.8-.8 1.8-1.8 1.8c-1.1 0-1.9-.8-1.9-1.8zm23.7 10.8c-1 0-1.8-.8-1.8-1.8s.8-1.8 1.8-1.8 1.8.8 1.8 1.8-.8 1.8-1.8 1.8zm5.4-12.6c2 0 3.7-1.6 3.7-3.7s-1.6-3.7-3.7-3.7c-2 0-3.7 1.6-3.7 3.7s1.7 3.7 3.7 3.7z"/>
</svg>
