<svg xmlns="http://www.w3.org/2000/svg" viewBox="0 0 40 40">
	<path fill="#960f05" d="M31.4 13.9c.2.4.3.9.3 1.3 0 1.4-1.2 2.7-3.2 2.7h-3.3c1.5-1.3 2.4-3.1 2.4-5.2 0-4.3-3.6-7.3-9.4-7.3H18v3c2.5.2 4 2 4 4.2 0 2.6-2.1 5.2-5.4 5.3h-3.5c1.7-1.5 2.8-3.5 2.8-6.1 0-5-4.2-8.4-10.9-8.4h-.2v3.4c2.9.3 4.9 2.3 4.9 4.8 0 3.7-3.2 6.2-7 6.2H0V22h2.6c3.9 0 7.1 2.5 7.1 6.2 0 2.5-2 4.5-4.9 4.8v3.4H5c6.7 0 10.8-3.4 10.9-8.4 0-2.5-1.1-4.6-2.8-6.1h3.5c3.4 0 5.5 2.7 5.5 5.3 0 2.2-1.5 3.9-4 4.2v3h.2c5.8 0 9.4-2.9 9.4-7.3 0-2.2-.9-4-2.4-5.3h3.3c2 0 3.2 1.4 3.2 2.7 0 .5-.1.9-.3 1.3 5-1 8.6-6.1 8.6-6.1-.1.3-3.7-4.9-8.7-5.8z"/>
</svg>
