<svg viewBox="0 0 40 40" xmlns="http://www.w3.org/2000/svg">
	<path fill="#174882" d="m0 29.2499 5.59253 3.77c3.27591-.6025 17.21677-3.4955 17.21677-8.4032 0-3.6877-4.0829-6.1292-7.6896-8.2935-2.8793-1.7278-5.37292-3.221-5.37292-5.071 0-1.9872 1.72782-3.61761 5.00372-4.72925.7672-.26076 1.5358-.45289 2.2206-.61621-2.9877.41172-8.58163 1.65923-8.58163 5.41416 0 5.2631 11.50623 7.2517 11.51443 12.6933C19.9108 28.2906 0 29.2499 0 29.2499Zm11.5556-18.2584c0-2.48132 2.7283-3.92096 4.894-4.75676-2.8381.67248-6.3748 2.15193-6.3748 5.01746 0 1.6593 2.4099 3.103 5.2082 4.7842 3.6836 2.2137 7.8543 4.7156 7.8543 8.5816 0 2.4676-3.0701 4.7005-9.1292 6.6479-3.1936 1.0266-6.42834 1.7142-8.01895 2.0147l4.50975 3.0426s15.2473-4.4548 15.2432-10.7061c-.0069-10.2532-14.1865-11.1301-14.1865-14.6256Zm14.1467-2.44015c0 1.46705-1.1926 2.67345-2.6734 2.67345h-.7947v1.2887h.7947c2.1793 0 3.9621-1.7814 3.9621-3.96215 0-2.18074-1.7677-3.94839-3.9484-3.94839h-3.9621v9.51344h1.2886V5.89164h2.6735c1.4671 0 2.6597 1.19262 2.6597 2.65971ZM23.0426 3h-5.5651v11.1164h1.2887V4.28868h4.2764c2.344 0 4.2626 1.90489 4.2626 4.26267 0 2.35775-1.9186 4.27635-4.2763 4.27635h-.7947v1.2887h.7947c3.07 0 5.565-2.495 5.565-5.56505C28.5939 5.49502 26.1126 3 23.0426 3Zm9.8565 19.6431-.0013-6.8812c0-1.4259-1.1103-2.6322-2.4813-2.6734-.6986-.0206-1.3683.2361-1.8775.726-.5187.4982-.8083 1.1789-.8083 1.8912v6.9498h1.3161v-6.9896c0-.7398.63-1.3354 1.3848-1.2613.6574.0645 1.1377.63 1.1377 1.2887v6.9498h1.3298Zm5.4842 0-.0014-6.8812c0-1.3984-1.1103-2.5924-2.4813-2.6459-.7123-.0275-1.3848.2333-1.8912.726-.5078.494-.7946 1.1514-.7946 1.8637v6.9498h1.3161v-6.9896c0-.7398.63-1.3354 1.3848-1.2613.6574.0645 1.1377.63 1.1377 1.2887v6.9498h1.3299Zm-2.5102-11.1027c-1.0416-.0164-2.0421.3431-2.8244 1.0142-.7809-.6711-1.7676-1.0306-2.8244-1.0142-2.3166.0357-4.1391 1.9873-4.1391 4.2902v6.8263h1.3298v-6.8812c0-1.5906 1.2613-2.9109 2.8107-2.9603 1.124-.0357 2.1794.6025 2.6872 1.6181l.1509.3156.151-.3156c.4803-.9594 1.4396-1.5783 2.495-1.6181.7809-.0288 1.5316.2649 2.097.8221.56.553.877 1.2886.877 2.0833v6.9498h1.3161v-6.8263c.0124-2.3166-1.8102-4.2682-4.1268-4.3039Z"/>
</svg>