<svg viewBox="0 0 40 40" xmlns="http://www.w3.org/2000/svg">
	<path fill="#E40134" d="M34.8453.82381C21.8787 3.57797 12.2066 10.4966 13.2416 16.2749c.3239 1.8037 1.6547 3.2826 3.7219 4.3807l-.0074.0316-.0325-.0348-.0074.0348c-5.5658-.9399-9.70908-3.5209-10.98075-7.4702C4.54696 8.89852 5.67816 4.10432 9.41037 0H0v39.9768c1.67831-.1845 3.3921-.4313 5.1547-.8069 12.9651-2.7552 22.6387-9.6727 21.6022-15.4511-.3239-1.8027-1.6532-3.2825-3.7249-4.3818l.0104-.0316.0325.0369.0074-.0358c5.5658.9409 9.7091 3.522 10.9808 7.4702 1.3914 4.3206.2558 9.1148-3.4794 13.2223H40V.0158219C38.3217.201474 36.6079.449347 34.8453.82381Z"/>
</svg>