<svg xmlns="http://www.w3.org/2000/svg" viewBox="0 0 40 40">
	<path fill="#3A52AA" d="M19.998 0c-5.1529 0-9.8764 1.96658-13.43442 5.1868H33.4325C29.8745 1.96658 25.151 0 19.998 0ZM4.72339 7.27374c1.22691-1.07403 2.8832-1.78881 4.66217-1.78881 1.77904 0 3.43534.71478 4.72354 1.78881H4.72339Zm-.7973.83329H14.8454c.9815 1.2518 1.595 2.74247 1.595 4.41087H2.39248c0-1.6684.55206-3.21833 1.53361-4.41087ZM39.9968 20.0306c0 5.4256-2.1472 10.3124-5.6438 13.8901H5.64372C2.14712 30.343 0 25.4562 0 20.0306h39.9968Zm-30.61112-.4759c2.08562 0 3.98732-.8945 5.27552-2.3851H4.10999c1.28826 1.4906 3.1899 2.3851 5.27569 2.3851ZM19.9983 40c-4.8462 0-9.3245-1.7888-12.75975-4.6498H32.758C29.3227 38.2705 24.8445 40 19.9983 40Z"/>
</svg>