<svg xmlns="http://www.w3.org/2000/svg" viewBox="0 0 40 40">
	<path fill="#9638E3" d="M15.7454 40c-1.0235 0-2.0069-.5736-2.4823-1.5536-.6448-1.3544-.0645-2.9637 1.3056-3.6091 5.7621-2.6848 9.4786-8.5168 9.4786-14.8347 0-6.318-3.7165-12.14994-9.4704-14.84279-1.3702-.63736-1.9505-2.25468-1.3058-3.6091.6448-1.354405 2.2809-1.928043 3.651-1.290664C20.6378 1.99688 23.789 4.7296 26.0215 8.16337c2.2892 3.52953 3.5056 7.62463 3.5056 11.83923 0 4.2145-1.2164 8.3096-3.5138 11.8312-2.2324 3.4338-5.3836 6.1665-9.0991 7.9033-.3709.1833-.7738.2629-1.1688.2629Z"/>
</svg>