<svg viewBox="0 0 40 40" xmlns="http://www.w3.org/2000/svg">
	<g fill="#A54181">
		<path d="M23.8679 9.51704c.5939 1.19986-.5889 2.38606-1.7887 1.78866-.2105-.106-.3802-.2757-.4862-.4862-.594-1.19979.5888-2.38603 1.7887-1.78867.2104.10607.3801.27577.4862.48621zM29.0999 9.51704c.594 1.19986-.588 2.38606-1.7887 1.78866-.2096-.1052-.3801-.2757-.4854-.4862-.5982-1.19979.5881-2.38603 1.7879-1.78867.2104.10607.3801.27577.4862.48621z"/>
		<path d="M38.8877 21.6545V3.36611c0-1.85912-1.5062-3.36526147-3.3653-3.36611h-20.352c-1.8591 0-3.3661 1.50699-3.3661 3.36611V21.6545c0 1.8591 1.507 3.3661 3.3661 3.3661h14.8578c1.4501 3.3432 8.8595 3.0038 8.8595 3.0038s-2.0102-.9563-2.5677-3.0997c1.507-.3683 2.5677-1.7191 2.5677-3.2702zm-22.4131-2.4514V5.81752c-.0017-.63386.5117-1.14891 1.1455-1.15061h15.4543c.6339 0 1.1472.51336 1.1472 1.14721V19.2031c.0009.6338-.5125 1.1472-1.1463 1.148H17.6227c-.6339 0-1.1481-.5142-1.1481-1.148z"/>
		<path d="M30.8682 13.0444c-.907.6899-2.7 1.3246-5.0275 1.3246-2.3275 0-4.1213-.6347-5.0275-1.3246H18.831c.4998 1.7769 3.4425 3.1438 7.0088 3.1438 3.5664 0 6.5083-1.3669 7.008-3.1438h-1.9796z"/>
	</g>
	<g fill="#1D9A9E">
		<path d="M21.6676 27.1529v4.0203c-.0025.6339-.5176 1.1455-1.1514 1.1438H6.81752c-.63386.0017-1.14891-.5116-1.15061-1.1455V19.1496c0-.6339.51336-1.1472 1.14721-1.1472H9.71015v-4.667H4.36442C2.50699 13.3363 1.0017 14.8416 1 16.699v16.9222c0 1.5511 1.06066 2.902 2.56765 3.2703C3.01017 39.0323 1 39.9903 1 39.9903s7.40936.3394 8.86034-3.0038H22.971c1.8591 0 3.3652-1.5061 3.3661-3.3653v-6.4683h-4.6695z"/>
		<path d="M8.61896 22.1338c-.00085.7162.58039 1.2974 1.29655 1.2983.71619.0008 1.29739-.5804 1.29829-1.2966.0008-.7161-.5804-1.2974-1.29659-1.2982h-.00085c-.71616-.0009-1.29655.5795-1.2974 1.2957v.0008zM15.9002 28.1118h-3.6063v2.3157h3.6063v-2.3157z"/>
	</g>
</svg>
