<svg xmlns="http://www.w3.org/2000/svg" viewBox="0 0 40 40">
	<path fill="#383838" d="M20 7C8.95423 7 0 12.7092 0 19.7526c0 7.0435 8.95423 12.7526 20 12.7526 11.0458 0 20-5.7091 20-12.7526C40 12.7092 31.0458 7 20 7ZM5.17799 14.7051c.55479 2.304 4.55386 4.2166 9.97231 4.9448v.3257c0 5.464 1.5718 10.0479 3.6893 11.2943-8.7887-.421-15.71893-5.2742-15.71893-11.1962 0-1.9432.74711-3.7743 2.06195-5.3668l-.00463-.0018ZM17.141 19.8618c.9247.0703 1.8807.1073 2.859.1073s1.9334-.037 2.859-.1073c-.1313 4.0529-1.3611 7.2294-2.859 7.2294s-2.7277-3.1812-2.859-7.2294Zm7.706-.2082c5.5414-.7402 9.6024-2.7278 10.0037-5.1012 1.3971 1.6313 2.1941 3.5161 2.1941 5.5259 0 5.9636-7.0272 10.8409-15.9038 11.2037 2.1267-1.2344 3.6986-5.8295 3.6986-11.3027v-.3257h.0074ZM21.7291 9.11156c5.5395.27759 9.7855 1.89594 9.7855 3.84464 0 1.5915-2.8322 2.961-6.8877 3.5606-.4373-3.4098-1.5109-6.1394-2.8978-7.40524Zm1.0032 7.62174c-.8775.0722-1.7938.1101-2.7369.1101-.9432 0-1.8595-.0379-2.737-.1101.3699-3.2136 1.4545-5.5416 2.737-5.5416 1.2825 0 2.368 2.329 2.7369 5.5416Zm-7.3675-.2165c-4.0555-.6014-6.88768-1.97-6.88768-3.5606 0-.6579.48358-1.2769 1.33703-1.8201 1.04495-.5223 2.13335-.9527 3.25285-1.28615 1.7052-.4155 3.4469-.66342 5.2002-.74024-1.3795 1.26769-2.4558 3.99729-2.8978 7.40709h-.0046Z"/>
</svg>