<svg xmlns="http://www.w3.org/2000/svg" viewBox="0 0 40 40">
	<path fill="#CC163F" d="M39.9998 24.3051c-.0167-1.4367-.3365-2.8536-.9385-4.1581-.602-1.3046-1.4726-2.4673-2.5548-3.4123.3503-.9551.5284-1.9648.5259-2.9822 0-.5585-.0563-1.1096-.1585-1.6399C36.1094 8.06665 32.5628 5 28.3124 5H18.0043v18.994c0 3.6562-3.1259 6.634-6.9688 6.634-.121-.0009-.242-.0039-.363-.0089-3.67402-.1778-6.60734-3.0829-6.60734-6.6222V10.6074c0-.88595.73037-1.60594 1.62666-1.60594h4.03553c.26484.00234.52755-.04755.77305-.14683.2456-.09928.4691-.24599.6579-.43175.1888-.18575.3391-.40691.4423-.65081.1033-.2439.1574-.50576.1593-.7706 0-1.1037-.9111-1.99999-2.03255-1.99999H5.6933C2.55258 5.00148 0 7.51554 0 10.6074v1.7955h.00148147H0v11.594l.00148147.1467C.0888884 29.9391 5.00145 34.6295 11.037 34.6295c6.0844 0 11.0355-4.7704 11.0355-10.6326V8.99998h6.2414c.0415 0 .0815.00148.1185.0074 2.5111.06371 4.5333 2.16742 4.5333 4.74512.0058.948-.2729 1.8758-.8 2.6637-.6103.9422-.4563 1.9793.4815 2.5037.9957.5341 1.8277 1.3287 2.4069 2.2988.5793.9701.8841 2.0794.882 3.2093 0 3.1896-2.3793 5.8222-5.4222 6.1644-.222.0233-.445.0352-.6682.0356h-6.5718c-1.12 0-2.0296.8978-2.0296 2.0015 0 1.1066.9096 2 2.0296 2h6.5704c5.5955 0 10.1525-4.5778 10.1525-10.2.0044-.0429.003-.0829.003-.1244Z"/>
</svg>