<svg viewBox="0 0 40 40" xmlns="http://www.w3.org/2000/svg">
	<path fill="#E32D29" d="M23.8958 30.7974s1.0392 2.7742 1.9916 2.9479H13.8527c-2.4244 0-4.58842-1.3872-5.28166-3.9885L1.55819 8.9479S.952409 6.43344 0 6h12.2945c2.4244.08682 4.0694.9537 5.0219 4.162l6.5794 20.6354Z"/>
	<path opacity=".2" fill="url(#a)" d="M23.8958 30.7974s1.0392 2.7742 1.9916 2.9479H13.8527c-2.4244 0-4.58842-1.3872-5.28166-3.9885L1.55819 8.9479S.952409 6.43344 0 6h12.2945c2.4244.08682 4.0694.9537 5.0219 4.162l6.5794 20.6354Z"/>
    <linearGradient id="a" x1="12.9" y1="3.6" x2="13" y2="36.2" gradientUnits="userSpaceOnUse">
		<stop stop-color="#fff" stop-opacity="0"/>
		<stop offset=".33" stop-color="#fff" stop-opacity="0"/>
		<stop offset=".76" stop-color="#0E1513"/>
		<stop offset="1" stop-color="#0E1513"/>
	</linearGradient>
	<path fill="#E32E2A" d="M16.1909 30.7977s-1.0393 2.7743-1.9917 2.9479h12.0347c2.4244 0 4.5884-1.3871 5.2817-3.9884l6.9266-20.80832s.6058-2.51446 1.5582-2.9479H27.7921c-2.4244 0-3.9826.86688-4.935 4.07522l-6.6662 20.7215Z"/>  
</svg>