<svg xmlns="http://www.w3.org/2000/svg" viewBox="0 0 40 40">
	<path fill="#fff" d="M27.4449 15.7377c1.2939-.8488 2.8103-1.3422 4.4883-1.3422C36.4215 14.3955 40 17.83 40 22.2318c0 4.4019-3.6593 7.876-8.087 7.876s-8.0466-3.4939-8.0466-7.8365V8h3.5785v7.7377Zm0 6.5139c0 2.4673 2.042 4.3623 4.4681 4.3623 2.4666 0 4.5085-1.9739 4.5085-4.3623 0-2.3884-1.9206-4.3426-4.4883-4.3426-2.5676 0-4.4883 1.8752-4.4883 4.3426ZM13 14.9481l3.2752 8.3298 3.2955-8.3298h3.8818l-5.7418 14.6463h-2.507l-3.4775-8.7246-3.45714 8.7246H5.76204L0 14.9481h3.90201l3.29547 8.3298 3.29552-8.3298H13Z"/>
	<path fill="url(#a)" d="M27.4449 15.7377c1.2939-.8488 2.8103-1.3422 4.4883-1.3422C36.4215 14.3955 40 17.83 40 22.2318c0 4.4019-3.6593 7.876-8.087 7.876s-8.0466-3.4939-8.0466-7.8365V8h3.5785v7.7377Zm0 6.5139c0 2.4673 2.042 4.3623 4.4681 4.3623 2.4666 0 4.5085-1.9739 4.5085-4.3623 0-2.3884-1.9206-4.3426-4.4883-4.3426-2.5676 0-4.4883 1.8752-4.4883 4.3426ZM13 14.9481l3.2752 8.3298 3.2955-8.3298h3.8818l-5.7418 14.6463h-2.507l-3.4775-8.7246-3.45714 8.7246H5.76204L0 14.9481h3.90201l3.29547 8.3298 3.29552-8.3298H13Z"/>
  	<radialGradient id="a" cx="0" cy="0" r="1" gradientTransform="rotate(17.989 -40.11061252 6.34894821) scale(42.0559 28.2846)" gradientUnits="userSpaceOnUse">
  		<stop offset=".747349" stop-color="#DC1FBA"/>
  		<stop offset="1" stop-color="#9C09C8"/>
  	</radialGradient>
</svg>