<svg xmlns="http://www.w3.org/2000/svg" viewBox="0 0 40 40">
	<path fill="#80F3AE" d="M29.4624 9.21609c-2.7483-2.00436-9.9853-.65689-11.0521 3.59041-1.2997 5.1681 4.8481 9.8169 9.6625 7.0433 3.4501-1.9875 4.1322-8.6266 1.3896-10.63371Z"/>
	<path fill="#65D988" d="M32.3767 12.3921c-.2836-1.6226-.9433-2.97563-1.9595-3.85149-2.0857-1.79381-5.7997-2.14471-9.2722-1.15938-3.4698.98534-6.3107 3.18897-6.8861 6.05517-.6906 3.4304.2414 6.4875 2.257 8.5676 2.0127 2.0774 5.1737 3.2452 9.0701 2.7455 3.2143-.539 5.5443-3.5539 6.4931-7.1303.4688-1.7686.5783-3.6073.2976-5.2271Zm1.1453 5.6088c-1.0246 3.8544-3.6578 7.5515-7.7058 8.2196l-.0112.0028-.0141.0028c-4.3091.5558-7.9613-.7243-10.3446-3.1834-2.3833-2.4619-3.4276-6.0299-2.65-9.9011.7383-3.66057 4.2333-6.14215 7.9416-7.19486 3.7112-1.05271 8.0287-.79444 10.6534 1.46537 1.3503 1.165 2.1307 2.87179 2.4535 4.72459.3229 1.8583.1937 3.916-.3228 5.8642Z"/>
	<path fill="#4FC694" d="M34.4595 20.9644C36.2 15.5577 35.661 9.69061 32.0256 6.4595c-2.6724-2.37491-7.6132-3.0318-12.4781-1.74609-4.8312 1.28009-9.334 4.41575-11.16147 9.29189-1.51029 4.0256-.23862 8.7585 2.81007 12.3462 3.043 3.5764 7.7619 5.9007 12.9721 5.1765 4.6712-.6457 8.5508-5.1569 10.2913-10.5636Zm1.4204.4548c-1.8247 5.6649-6.0214 10.8246-11.5068 11.5882-5.7969.8028-10.9986-1.7938-14.3112-5.6903-3.30406-3.8851-4.81996-9.1768-3.07387-13.8367C9.0373 8.02593 14.0173 4.6348 19.1658 3.2733c5.1175-1.35308 10.6562-.76637 13.848 2.07173 4.2726 3.79817 4.688 10.40917 2.8661 16.07417Z"/>
	<path fill="#48A992" d="M37.946 12.5102c-.5222-3.32092-1.7714-6.072-3.7028-7.75352C30.0857 1.13817 22.86.655327 16.1395 2.67372 9.4246 4.6893 3.58558 9.09383 2.06126 14.7897c-1.723633 6.4482.61198 12.8374 5.00528 17.3795 4.40176 4.5449 10.78816 7.1556 17.03986 6.1085 6.7906-1.1369 11.3889-7.6413 13.2332-15.0074.9152-3.655 1.1285-7.4504.6064-10.7601Zm.8393 11.1222c-1.9033 7.602-6.7766 14.8334-14.4319 16.1163-6.8159 1.1425-13.6796-1.7096-18.35642-6.5437C1.31173 28.3682-1.26249 21.454.621156 14.4051 2.33637 7.9934 8.75929 3.33342 15.71 1.24484 22.655-.840922 30.5068-.473176 35.223 3.63098c2.2878 1.99313 3.6409 5.12879 4.1968 8.64622.5558 3.5315.3256 7.529-.6345 11.3552Z"/>
</svg>