<svg xmlns="http://www.w3.org/2000/svg" viewBox="0 0 40 40">
	<path fill="#40406b" d="M13.7 27.4l1.5-4.6H2.4c-.7 0-1.3.3-1.7.8-.4.5-.7 1.1-.7 1.7 0 .7.3 1.3.7 1.8.5.5 1.1.8 1.7.8h11c.1-.2.2-.4.3-.5zm3.6-11.3H4.8c-.7 0-1.3.3-1.7.8-.5.5-.7 1.1-.7 1.8s.3 1.3.7 1.8c.5.5 1.1.8 1.7.8h10.9c0-.2 1.6-5.2 1.6-5.2zm2.2-6.8H7.2c-.7 0-1.3.3-1.7.8-.5.5-.7 1.1-.7 1.8s.3 1.3.7 1.8c.5.5 1.1.8 1.7.8h10.7l1.6-5.2c0 .1 0 0 0 0zm5.8 7.7h12.3c.7 0 1.3-.3 1.7-.8.5-.5.7-1.1.7-1.8s-.3-1.3-.7-1.8c-.5-.5-1.1-.8-1.7-.8H26.9L25.3 17c0-.1 0 0 0 0zm11 6.7H22.9v-.1l1.6-5h6c.8 0 1.6.2 2.4.5.8.3 1.4.8 2 1.4.9.8 1.4 2 1.4 3.2zm-2.9 5.9c-.9.5-1.9.8-2.9.8H19.2v-.1l1.6-5h15c-.1.9-.3 1.7-.7 2.4-.4.8-1 1.4-1.7 1.9z"/>
	<path fill="#328455" d="M16 12.3l-5.9 18.4H16l5.3-18.4H16zm7.5-2.7L17.7 28h5.9l5.3-18.4h-5.4z"/>
</svg>
