<svg viewBox="0 0 40 40" xmlns="http://www.w3.org/2000/svg">
	<g fill="#008FB4">
		<path d="M10 40l20.034-.0272-.0136-19.83C25.845 28.0585 18.0245 33.1996 10 35.1717 10.0272 36.6678 10 40 10 40z"/>
		<path d="M16.4059 30.017C23.968 26.1952 27.613 19.218 27.613 19.218s-.0272-2.2986-.0272-2.3394c-4.1618-1.4689-7.9429-3.6178-11.1663-6.8276.0136 5.4404-.0136 19.966-.0136 19.966zM17.4804 0s0 6.06596-.0136 7.57566c1.9994 1.84971 2.9922 2.70654 5.0595 4.02584l.0136-8.13329C20.187 2.17613 19.2757 1.49609 17.4804 0z"/>
	</g>
</svg>
