<svg xmlns="http://www.w3.org/2000/svg" viewBox="0 0 40 40">
	<path fill="#e2251d" d="M15.3 1.2c0 1.1.1 1.3.6 1.7.4.3.6.6.6 1.4 0 .8-.1 1-.3.9-.3-.1-.3.1-.3 1.1 0 1.2 0 1.2 1.2 2.3.7.6 1.3 1 1.5 1 .3 0 .3-2.4 0-2.6-.3-.2-.3-1.9 0-1.9.1 0 .3.1.4.2.3.5.6-.1.6-1.2V2.9l-1.7-1.4c-2.6-1.8-2.6-1.8-2.6-.3zm7.2.4l-1.8 1.6v3.5c0 1.9.1 3.5.2 3.6.1.1 1-.6 2-1.4l1.8-1.5V6.1c0-.9-.1-1.2-.3-1.2-.2 0-.4.1-.5.2-.1.1-.4.4-.8.7l-.7.5v-1c0-.9.1-1 1.1-1.8 1.1-.9 1.1-.9 1.1-2.2 0-.7-.1-1.3-.2-1.3 0 0-.9.7-1.9 1.6zm-12 4.2c-.3.3-.2 6.2.1 6.7.2.3 1.9 1.8 3.8 3.4 1.9 1.6 3.5 3.1 3.5 3.1 0 .2-1.5 1.4-1.7 1.4-.1 0-1.3-1-2.7-2.2-1.6-1.4-2.7-2.1-2.9-2-.3.1-.3.6-.3 2.8v2.6l1.1 1 1.1 1.1-1 .9-1 .9-.1 3.5c-.1 2.3 0 3.6.2 4 .4.7 8 7 8.3 6.9.5-.1.6-6 .2-6.8-.2-.3-1.9-1.9-3.8-3.5-2-1.6-3.6-3.1-3.6-3.1 0-.1.4-.5 1-1l1-.8 2.4 2c1.3 1.1 2.5 2 2.7 2 .3 0 .4-.3.4-2.8v-2.8l-.9-.8-.9-.8.7-.6c.4-.3.8-.9.9-1.4.3-1.1.3-6.3-.1-7-.3-.6-7.8-7-8.2-7 0 .1-.1.2-.2.3zM25 8.9c-2.1 1.8-4 3.5-4.1 3.8-.1.3-.2 1.9-.2 3.5 0 2.7 0 2.9.4 3 .4.1.4.3.4 1.5 0 .9-.1 1.7-.4 2.3-.4.7-.4 1.3-.4 2.9 0 2.3.1 2.8.6 2.8s.4 3.5-.1 4.1c-.3.3-.4.9-.5 3.2-.1 3.1 0 4 .5 3.8.6-.1 7.9-6.3 8.2-6.9.2-.3.2-2.7.2-6.8 0-5.7 0-6.3-.4-6.3-.3 0-.3 0 0-.4s.4-1.2.4-7.2c0-6.3 0-6.8-.4-6.8-.1.2-2.1 1.7-4.2 3.5zm3.2 6c.3 1.2-.2 2-2.2 3.7-1 .9-2.2 1.8-2.5 2.1l-.6.4v-2.9l2.2-1.9c1.2-1.1 2.4-1.9 2.6-1.9.2 0 .4.2.5.5zm.1 10.1c0 1.6-.4 2.1-2.7 4.1-1.2 1-2.3 1.9-2.5 1.9-.1 0-.2-.7-.2-1.7v-1.8l2.4-2c2.6-2.1 3-2.2 3-.5z"/>
</svg>
