<svg xmlns="http://www.w3.org/2000/svg" viewBox="0 0 200 50">
	<path fill="#4F5964" d="M122.807 19.2817c0-3.3666-2.313-5.2712-6.433-5.2712h-.764v-1.1287h-2.648v1.1287h-.765c-4.102 0-6.451 1.9046-6.451 5.2712 0 3.3851 2.349 5.2719 6.451 5.2719h.765v1.4984h2.648v-1.4984h.764c4.12 0 6.433-1.8868 6.433-5.2719Zm-9.845 3.163h-.597c-2.443 0-3.86-1.0914-3.86-3.163 0-2.0717 1.417-3.163 3.86-3.163h.597v6.326Zm7.085-3.163c0 2.0716-1.398 3.163-3.841 3.163h-.596v-6.326h.596c2.443 0 3.841 1.0913 3.841 3.163Zm17.977-6.1785h-4.251l-5.948 11.0613V13.1032h-2.685v12.9481h4.288l5.929-11.0248v11.0248h2.667V13.1032Zm12.89 0h2.76v12.9481h-2.76v-5.4755h-6.992v5.4755h-2.759V13.1032h2.759v5.2347h6.992v-5.2347Zm15.026 9.9886 1.12 2.9595h2.833l-5.146-12.9481h-4.12l-5.109 12.9481h2.722l1.119-2.9595h6.581Zm-3.281-8.675 2.498 6.6033h-4.997l2.499-6.6033Zm18.81-1.3136h2.759v12.9481h-2.759v-5.4755h-6.992v5.4755h-2.76V13.1032h2.76v5.2347h6.992v-5.2347Zm11.986-.2214c-4.4 0-6.843 2.6822-6.843 6.6958 0 4.033 2.499 6.6966 7.011 6.6966 3.804 0 5.948-1.7944 6.377-4.6614l-2.667-.167c-.298 1.4432-1.566 2.6084-3.71 2.6084-2.76 0-4.251-1.9055-4.251-4.4766 0-2.4227 1.305-4.4758 4.083-4.4758 1.902 0 3.376.9617 3.692 2.4042l2.648-.2035c-.448-2.6822-2.778-4.4207-6.34-4.4207ZM49.798 33.0676c1.8808 0 3.4369.7723 3.4369 2.7277 0 1.9807-1.5561 2.7396-3.4369 2.7396h-4.8888v-9.0053h7.5214v1.4664h-5.6022v2.0716h2.9696Zm-.1685 4.0009c1.1413 0 1.6859-.4756 1.6859-1.2732 0-.7977-.5446-1.274-1.6859-1.274h-2.8011v2.5472h2.8011Zm11.4235-.5919.7779 2.0583h1.9714l-3.5794-9.0053H57.357l-3.5533 9.0053h1.8935l.7779-2.0583h4.5779Zm-2.2826-6.0338 1.7381 4.5936h-3.4758l1.7377-4.5936Zm13.083-.9132h1.9188v9.0053h-1.9188V34.727h-4.8635v3.8079h-1.9192v-9.0053h1.9192v3.6409h4.8635v-3.6409Zm7.3514 5.1974 3.3326 3.8079h2.3605l-4.2275-4.6436 3.9029-4.3617h-2.2692l-3.1385 3.7438h-1.2967v-3.7438h-1.9192v9.0053h1.9192V34.727h1.3359Z"/>
	<path fill="#F5671E" d="M94.5405 12.8818c-4.5873 0-7.123 2.645-7.123 6.6958 0 4.0509 2.5357 6.6966 7.123 6.6966 4.5868 0 7.1415-2.6457 7.1415-6.6966 0-4.0508-2.5547-6.6958-7.1415-6.6958Zm0 11.1724c-2.8343 0-4.3632-1.8868-4.3632-4.4766 0-2.589 1.5289-4.4758 4.3632-4.4758 2.8342 0 4.3815 1.8868 4.3815 4.4758 0 2.5898-1.5473 4.4766-4.3815 4.4766Zm-39.2116-.9624 1.1189 2.9595h2.8339l-5.1459-12.9481h-4.121l-5.109 12.9481h2.7224l1.1186-2.9595h6.5821Zm-.7831-2.0717h-4.9969l2.4981-6.6033 2.4988 6.6033Zm18.8655 1.5536c0-2.0158-1.6221-2.9782-4.0456-3.1631 2.2181-.2221 3.5793-1.1651 3.5793-2.9781 0-2.2193-1.9766-3.3293-4.6986-3.3293h-7.1413v12.9481h7.2162c3.0579 0 5.09-1.2025 5.09-3.4776Zm-5.3703-7.3615c1.3802 0 2.1633.6098 2.1633 1.6273 0 .9989-.8014 1.6281-2.1633 1.6281h-4.1761v-3.2554h4.1761Zm2.6106 6.9917c0 .5278-.1815.9378-.5464 1.2263-.4283.3392-1.1089.5121-2.0448.5121h-4.1955v-3.4589h4.3442c1.5662 0 2.4425.5919 2.4425 1.7205Zm15.9139-9.1007v2.2379h-4.7177v10.7102h-2.7594V15.3411h-4.7169v-2.2379h12.194Z"/>
	<path fill="#4F5964" d="M21.8385 8c2.8998.24893 5.6367.70534 7.9897 1.50084 2.1627.73116 4.3108 1.84826 5.9403 3.63586 1.7151 1.8815 2.6132 4.2435 2.6132 6.9171 0 2.6736-.8981 5.0356-2.6132 6.9172-1.6295 1.7876-3.7776 2.5915-5.9403 3.3227-4.2475 1.4362-11.5472 1.432-14.9045 1.432h-3.7333l3.3685-7.5051c5.3734 0 15.4566-.4553 18.3005-1.4168 1.3833-.4677 2.1046-.9748 2.458-1.3624.2677-.2938.4666-.658.4666-1.3876 0-.7295-.1989-1.0938-.4666-1.3875-.3534-.3877-1.0747-.8948-2.458-1.3624-2.2864-.7731-9.2133-1.2827-14.6208-1.2827L21.8385 8Z"/>
	<path fill="#F5671E" d="m11.1905 31.7255-3.05569 6.8082c-2.01924-.7315-3.99733-1.8171-5.52176-3.4893C.897939 33.163 0 30.801 0 28.1272c0-2.6734.897939-5.0355 2.61305-6.9169 1.6297-1.7877 3.71474-3.0299 5.87733-3.7611 2.80692-.949 6.14892-1.4287 9.74822-1.4287L14.5589 24.22c-3.9462 0-7.50356.6392-9.03684 1.1575-1.38321.4676-2.1045.9746-2.45779 1.3624-.26786.2937-.46648.6579-.46648 1.3873 0 .7298.19862 1.0939.46648 1.3877.35329.3878 1.07458.9575 2.45779 1.4251 1.07641.3639 3.17229.7855 5.66844.7855Z"/>
</svg>