<svg xmlns="http://www.w3.org/2000/svg" viewBox="0 0 200 50">
	<path fill="#313131" d="M75.9683 17.0912h-2.1211v-6.9021h2.1211v2.6474c.1886 0 .33-.0946.4243-.1891.0942-.1418.2828-.4728.4714-1.0401.1414-.4254.3299-.7564.4714-.9455.1414-.1891.4242-.3309.8013-.4254.377-.0946.9427-.1419 1.7441-.1419v1.4656h-.0943c-.3771 0-.6129.0472-.8014.1891-.1885.1418-.3299.3782-.4242.6618-.0943.3309-.2357.52-.3771.7091-.1414.1419-.33.2837-.5185.3782.33.0946.5656.2837.8013.5201.2357.2363.4714.6145.707 1.1346l.9428 1.891h-2.404l-.8484-1.7965c-.1886-.4255-.33-.7091-.4714-.8037-.0943-.0945-.2828-.1418-.4714-.1418v2.7892h.0471Zm5.1851-.52c-.6127-.52-.8956-1.1819-.8956-1.9855 0-.7564.2357-1.4183.7542-1.891.5185-.4728 1.2256-.7564 2.0741-.7564.9898 0 1.744.2836 2.2625.8509.4243.4728.6128 1.0401.6128 1.7492 0 .7564-.2357 1.4182-.7542 1.891-.5185.4727-1.2256.7564-2.1211.7564-.7542 0-1.4142-.1891-1.9327-.6146Zm1.0371-1.9855c0 .4254.0942.7564.2828.9927.1885.2364.4242.331.6599.331.2828 0 .5185-.0946.6599-.331.1885-.1891.2828-.5673.2828-.9927 0-.4255-.0943-.7564-.2828-.9928-.1886-.1891-.3771-.3309-.6599-.3309-.2828 0-.5185.0945-.7071.3309-.1414.2364-.2356.5673-.2356.9928Zm6.1749-.6619 1.2727 3.1674h1.1313l1.1784-3.1674v3.1674h1.6027v-5.0111h-2.2626l-1.0841 2.8838-1.1785-2.8838h-2.2626v5.0111h1.6027v-3.1674Zm9.7571 1.0401-1.1784-2.8838h-2.2623v5.0111h1.6024v-3.1674l1.2727 3.1674h1.1313l1.1784-3.1674v3.1674h1.6024v-5.0111h-2.2623l-1.0842 2.8838Zm4.5255 1.04c-.236-.4255-.378-.8982-.378-1.4182 0-.8037.236-1.4183.755-1.891.519-.4728 1.179-.7092 2.074-.7092.707 0 1.273.0946 1.697.331.424.2363.707.52.943.9455.236.4254.33.9455.33 1.6073v.2364h-3.818c.047.3309.094.52.236.7091.188.2364.424.3309.707.3309.188 0 .377-.0472.518-.1418.094-.0473.236-.1418.33-.3309l1.885.1891c-.282.52-.659.8509-1.036 1.0873-.425.2364-.99.3309-1.745.3309-.659 0-1.178-.0945-1.555-.2836-.377-.2837-.708-.5673-.943-.9928Zm1.556-1.891h1.885c-.047-.3782-.141-.6146-.283-.8037-.141-.1418-.377-.2363-.66-.2363-.282 0-.565.1418-.707.3782-.141.1418-.188.3782-.235.6618Zm6.41 4.8694h-1.932v-6.9022h1.791v.7564c.235-.3309.471-.52.66-.6146.283-.1418.565-.2364.942-.2364.66 0 1.179.2364 1.556.7564.377.5201.566 1.1346.566 1.891 0 .851-.189 1.4656-.613 1.891-.377.4255-.896.6619-1.509.6619-.282 0-.565-.0473-.801-.1418-.236-.0946-.471-.2364-.66-.4255v2.3638Zm0-4.3966c0 .3782.094.7091.236.8982.188.1891.377.2836.613.2836.235 0 .424-.0945.565-.2836.142-.1891.236-.4728.236-.9455 0-.4255-.094-.7091-.236-.8982-.141-.1891-.33-.2837-.565-.2837-.236 0-.472.0946-.613.2837-.142.1891-.236.52-.236.9455Zm9.522 2.5055v-5.0111h-1.933v1.6546c-.236.2837-.518.4255-.848.4255-.189 0-.33-.0473-.425-.1891-.094-.1418-.141-.3309-.141-.52v-1.371h-1.933v1.6546c0 1.2764.613 1.9383 1.792 1.9383.565 0 1.084-.1418 1.555-.4255v1.8437h1.933Zm.989-1.0873c-.235-.4255-.377-.8982-.377-1.4182 0-.8037.236-1.4183.755-1.891.518-.4728 1.178-.7092 2.074-.7092.707 0 1.272.0946 1.696.331.425.2363.707.52.943.9455.236.4254.33.9455.33 1.6073v.2364h-3.818c.047.3309.094.52.236.7091.188.2364.424.3309.707.3309.188 0 .377-.0472.518-.1418.095-.0473.236-.1418.33-.3309l1.886.1891c-.283.52-.66.8509-1.037 1.0873-.425.2364-.99.3309-1.744.3309-.66 0-1.179-.0945-1.556-.2836-.377-.2837-.66-.5673-.943-.9928Zm1.603-1.891h1.885c-.047-.3782-.141-.6146-.282-.8037-.142-.1891-.377-.2363-.66-.2363-.283 0-.566.1418-.707.3782-.142.1418-.189.3782-.236.6618Zm5.044 2.4583c.235.2364.565.3782.896.4728.33.0945.801.1418 1.32.1418.565 0 .99-.0946 1.367-.2364.377-.1418.66-.3782.895-.6618.236-.2837.377-.6146.472-.9928l-1.839-.1891c-.094.2836-.235.4727-.377.6146-.188.1418-.377.1891-.613.1891-.282 0-.565-.0946-.754-.331-.188-.2363-.283-.52-.283-.9455 0-.4727.095-.8036.283-1.04.189-.2364.472-.3309.754-.3309.236 0 .472.0472.613.1418.142.0945.236.2836.33.4727l1.791-.2363c-.188-.5673-.471-.9928-.895-1.2765-.424-.2836-1.037-.4254-1.886-.4254-.565 0-1.084.0945-1.415.2364-.235.0945-.471.2363-.707.4254-.235.1891-.377.4255-.518.6619-.189.3309-.283.7564-.283 1.2764 0 .4727.094.8982.236 1.1819.188.3782.377.6145.613.8509Zm10.276-.9928c-.283-.4727-.519-.7564-.66-.8509-.141-.0946-.33-.1418-.613-.1891.142-.0473.236-.0946.33-.1418.094-.0946.142-.2364.283-.4255.094-.1891.189-.3309.283-.4255.094-.0473.188-.0945.33-.1418.141 0 .33-.0473.565-.0473h.095v-1.371c-.519 0-.896 0-1.179.0473-.283 0-.471.0473-.66.1419-.188.0472-.33.189-.424.3309-.094.1418-.236.3782-.377.6618-.141.2837-.236.4728-.33.5673-.094.0946-.188.1418-.33.1418v-1.7964h-1.932v5.0111h1.932v-1.891c.142 0 .283.0473.424.0946.095.0473.236.1891.33.4255l.707 1.3709h2.169l-.943-1.5128Zm5.043-.9455v2.4583h1.792v-5.0111h-1.792l-1.885 2.5056v-2.5056h-1.791v5.0111h1.838l1.838-2.4583Zm6.552 0v2.4583h1.791v-5.0111h-1.791l-1.885 2.5056v-2.5056h-1.791v5.0111h1.838l1.838-2.4583Zm-.942-3.1674c.424 0 .801-.1418 1.084-.3782.33-.2364.471-.6145.471-1.04h-.754c-.047.1891-.142.3309-.283.3782-.141.0472-.33.0945-.566.0945-.424 0-.707-.1891-.801-.52h-.801c.047.4255.188.8037.471 1.04.283.2837.66.4255 1.179.4255Zm7.212 4.9639c-.471-.52-.707-1.371-.707-2.5529 0-1.0873.189-1.9382.613-2.6474.424-.7091.99-.9927 1.791-1.04h.566c.518 0 .801-.0946.848-.1891h1.508c0 .8982-.518 1.371-1.555 1.4183-.707.0472-1.179.0945-1.414.189-.236.0946-.424.2837-.519.5674.236-.1892.566-.2364.943-.2364.943 0 1.65.2363 2.121.7564.471.4727.754 1.1346.754 1.8437 0 .7564-.235 1.371-.754 1.891-.471.52-1.225.7564-2.168.7564-.849 0-1.556-.2364-2.027-.7564Zm1.226-1.8437c0 .4254.094.7091.235.9455.142.2363.377.3309.707.3309.33 0 .566-.0946.707-.3309.142-.2364.236-.5673.236-.9928s-.094-.7564-.236-.9455c-.188-.2364-.377-.3309-.66-.3309-.33 0-.565.1418-.707.3782-.235.2363-.282.5673-.282.9455Zm7.211-.6146c.236-.0473.425-.1418.66-.2364 0-.2364-.047-.3782-.141-.4727-.094-.0946-.283-.1419-.519-.1419-.33 0-.565.0473-.707.1419-.141.0945-.235.2363-.283.4254l-1.838-.1891c.047-.3309.189-.5673.283-.7564.141-.1891.33-.3309.566-.4727.188-.0946.424-.1891.707-.2364.33-.0473.66-.0945.989-.0945.566 0 1.037.0472 1.367.0945.33.0473.66.1891.849.4255.141.1418.283.3309.377.6146.094.2363.141.52.141.7564v2.2219c0 .2364 0 .4255.047.5673.048.1418.095.2836.189.52h-1.791c-.094-.1418-.142-.2364-.142-.2836 0-.0473-.047-.1891-.047-.331-.235.2364-.518.4255-.754.5201-.33.1418-.754.1891-1.178.1891-.613 0-1.037-.1419-1.367-.4255-.33-.2837-.471-.6146-.471-1.0401 0-.3782.094-.7091.329-.9455.236-.2363.613-.4254 1.226-.5673.848-.1418 1.273-.2363 1.508-.2836Zm.66.7564c-.283.0945-.518.1891-.801.2364-.377.0945-.613.1891-.754.2836-.095.0946-.142.2364-.142.3309 0 .1419.047.2837.142.3782.094.0946.283.1419.471.1419.236 0 .424-.0473.613-.1419.188-.0945.33-.2363.377-.3782.094-.1418.094-.3309.094-.5673v-.2836Zm6.505 2.3637h1.932v-5.0111h-1.932v1.7019h-1.744v-1.7019h-1.933v5.0111h1.933v-1.891h1.744v1.891Zm4.855-1.891c.141 0 .283.0473.424.0946.094.0473.236.1891.33.4255l.707 1.3709H180l-.896-1.5128c-.283-.4727-.519-.7564-.66-.8509-.142-.0946-.33-.1418-.613-.1891.141-.0473.236-.0946.33-.1418.047-.0946.141-.2364.283-.4255.094-.1891.188-.3309.283-.4255.094-.0945.188-.0945.33-.1418.142 0 .33-.0473.566-.0473h.094v-1.371c-.518 0-.896 0-1.179.0473-.283 0-.471.0473-.66.1419-.188.0472-.33.189-.424.3309-.094.1418-.236.3782-.377.6618-.141.2837-.236.4728-.33.5673-.094.0946-.189.1418-.33.1418v-1.7964h-1.933v5.0111h1.933v-1.891h-.047Zm-76.268 8.935h-5.1376l-2.6395 4.5856-2.7339-4.5856h-5.2322l4.8079 7.1385-5.2793 7.8004h5.2793l3.0168-4.7748 3.0166 4.7748h5.3259l-5.2316-7.7059 4.8076-7.233Zm5.94 8.2259v-8.2259h-4.479v14.9389h4.479l5.751-8.1786v8.1786h4.43V24.1352h-4.43l-5.751 8.2259Zm21.352.8509-2.403-9.0768h-6.222v14.9389h3.865V27.6808l2.969 11.3933h3.489l2.97-11.3933v11.3933h3.865V24.1352h-6.222l-2.311 9.0768Zm15.556-.8509v-8.2259h-4.478v14.9389h4.478l5.751-8.1786v8.1786h4.43V24.1352h-4.43l-5.751 8.2259Zm23.05.0945c-.518-.52-1.084-.8982-1.791-1.1346.518-.1891.895-.4728 1.178-.8037.283-.3309.566-.851.802-1.5128.235-.6619.565-1.1346.942-1.4655.377-.2836.99-.4255 1.791-.4255h.236v-3.1674c-1.744 0-3.017.0946-3.818.2836-.801.1892-1.414.4728-1.744.851-.377.4255-.707 1.0873-1.084 1.9855-.471 1.2764-.848 2.0329-1.084 2.2692-.236.2837-.566.4255-.943.4255v-5.6257h-4.713v14.9389h4.713v-5.9567c.424 0 .754.0946.99.331.236.2363.566.8036 1.037 1.7018l1.838 3.8766h5.327l-2.074-4.0656c-.519-1.1347-1.084-1.9383-1.603-2.5056Zm4.808-4.6802h1.885c-.047.4255-.188.8509-.424 1.1819-.283.3309-.754.6618-1.461.9927l.848 1.6546c1.132-.4727 1.933-1.0873 2.404-1.7491.472-.6619.707-1.5601.707-2.6947v-3.0729h-3.959v3.6875Zm5.232-3.6875v3.6875h1.885c-.047.4255-.188.8509-.424 1.1819-.283.3309-.754.6618-1.461.9927l.848 1.6546c1.132-.4727 1.934-1.0873 2.405-1.7491.471-.6619.707-1.5601.707-2.6947v-3.0729h-3.96Zm-92.8125 1.8437-.8485-1.6546c-1.1313.4728-1.9326 1.0873-2.404 1.7492-.4713.6618-.7071 1.5601-.7071 2.6946v3.0729h3.9596v-3.6874H81.342c.0471-.4255.1885-.8509.4243-1.1819.2828-.3309.7541-.6619 1.4612-.9928Zm-5.2322 0-.8485-1.6546c-1.1313.4728-1.9326 1.0873-2.404 1.7492-.4714.6618-.7071 1.5601-.7071 2.6946v3.0729h3.9596v-3.6874h-1.8855c.0471-.4255.1885-.8509.4242-1.1819.2828-.3309.7542-.6619 1.4613-.9928Z"/>
	<path fill="#313131" d="M38.4472 33.5444h-8.6261c-.8013 0-1.3669-.8037-1.0842-1.5592l4.8552-13.0962c.33-.8037 1.0842-1.3707 1.9797-1.3707h5.5621c.99 0 1.8856-.6137 2.2155-1.5606l1.7441-4.7741h-8.1547l-1.367 3.4034c-.2828.7101-.9899 1.1821-1.744 1.1821h-5.4209c-1.0841 0-2.0739.662-2.451 1.7025l-5.845 15.7425c-.4242 1.0872.4242 2.2694 1.6027 2.2694l15.7908.0468.9428-1.9859Zm22.9557-17.8702-15.7909-.0468-.9899 2.0327h8.6261c.8013 0 1.367.8037 1.0842 1.5606l-4.808 12.9997c-.33.8037-1.0843 1.3722-1.9798 1.3722h-5.5621c-.9899 0-1.8855.6137-2.2155 1.5592l-1.7441 4.7755h8.1547l1.367-3.4048c.2828-.7087.9899-1.1822 1.7441-1.1822h5.4208c1.0841 0 2.074-.6605 2.4511-1.7009l5.7978-15.7426c.4714-1.0872-.3771-2.2226-1.5555-2.2226Zm-25.6425 2.6011h5.6093c.8956 0 1.744-.567 2.074-1.3707l2.2154-5.6728h.99l-2.3568 5.9563c-.4715 1.1822-1.6499 1.9859-2.9226 1.9859h-5.6093c-.2829 0-.6128.2367-.7071.5202l-4.5251 12.1025c0 .0949 0 .1417.0471.1885.0472.0482.0943.0949.1885.0949h8.4848l-.4715.8987h-8.0133c-.3771 0-.7541-.1899-.9427-.4734-.2356-.2835-.2827-.7087-.1414-1.0405l4.5252-12.1024c.2357-.6605.8484-1.0872 1.5555-1.0872Zm3.9595 15.9793c.3299-.8038 1.1784-1.3722 2.074-1.3722h5.6565c.707 0 1.3197-.4252 1.5555-1.0872l4.5251-12.1025c.1414-.3302.0943-.7555-.1414-1.039-.1885-.2849-.5657-.4734-.9428-.4734h-8.0132l-.4713.8987h8.4845c.0944 0 .1415.0467.1886.0935.0472.0482.0472.095.0472.19l-4.5252 12.1024c-.0943.2835-.4242.5203-.707.5203h-5.6565c-1.2727 0-2.4511.8037-2.9225 1.9844l-2.3568 5.9577h.9898l2.2155-5.6727Z"/>
</svg>