<?xml version="1.0" encoding="utf-8"?>
<!-- Generator: Adobe Illustrator 25.4.1, SVG Export Plug-In . SVG Version: 6.00 Build 0)  -->
<svg version="1.1" id="Layer_1" xmlns="http://www.w3.org/2000/svg" xmlns:xlink="http://www.w3.org/1999/xlink" x="0px" y="0px"
	 viewBox="0 0 200 50" style="enable-background:new 0 0 200 50;" xml:space="preserve">
<style type="text/css">
	.st0{fill:#044B98;}
</style>
<g>
	<polygon class="st0" points="71.2,30.7 69.9,30.7 67.3,33.5 67.3,30.7 66.3,30.7 66.3,36.3 66.3,36.4 67.3,36.4 67.3,34.8 
		68.2,33.9 70.1,36.3 71.3,36.3 68.8,33.1 	"/>
	<path class="st0" d="M81.3,31.5c0.5,0,1.1,0.2,1.6,0.7l0.6-0.7c-0.3-0.3-0.6-0.5-1-0.7c-0.3-0.2-0.7-0.2-1.2-0.2
		c-0.8,0-1.5,0.3-2.1,0.8c-0.5,0.5-0.8,1.3-0.8,2.1c0,0.8,0.2,1.5,0.8,2.1c0.5,0.5,1.2,0.8,2,0.8c0.5,0,0.9-0.1,1.3-0.2
		c0.3-0.1,0.7-0.4,1-0.7l-0.6-0.7c-0.1,0.1-0.3,0.3-0.4,0.4c-0.1,0.1-0.2,0.1-0.3,0.2c-0.2,0.1-0.5,0.2-0.8,0.2
		c-0.5,0-1-0.2-1.3-0.6s-0.5-0.8-0.5-1.4c0-0.5,0.2-1,0.5-1.4C80.3,31.7,80.7,31.5,81.3,31.5z"/>
	<polygon class="st0" points="87.2,33.4 85.5,30.7 84.5,30.7 84.5,36.3 85.4,36.3 85.4,32.3 87.2,34.9 87.2,34.9 89,32.3 89,36.3 
		89.9,36.3 89.9,30.7 88.9,30.7 	"/>
	<path class="st0" d="M99.3,32.3c0.1-0.1,0.1-0.2,0.2-0.3c0.4-0.4,0.8-0.5,1.3-0.5c0.5,0,1.1,0.2,1.6,0.7l0.6-0.7
		c-0.2-0.2-0.3-0.3-0.5-0.4c-0.2-0.1-0.3-0.2-0.5-0.3c-0.3-0.2-0.7-0.2-1.2-0.2c-0.8,0-1.5,0.3-2.1,0.8c-0.5,0.5-0.8,1.3-0.8,2.1
		c0,0.8,0.2,1.5,0.8,2.1c0.5,0.5,1.2,0.8,2,0.8c0.1,0,0.2,0,0.3,0l0.1,0l0.1,0c0.2,0,0.5-0.1,0.7-0.2c0.3-0.1,0.7-0.4,1-0.7
		l-0.6-0.7c-0.2,0.2-0.5,0.4-0.7,0.5c-0.1,0.1-0.2,0.1-0.4,0.1c-0.1,0-0.3,0-0.5,0c-0.2,0-0.5,0-0.7-0.1c-0.3-0.1-0.5-0.3-0.7-0.5
		C99.2,34.5,99,34,99,33.4c0-0.2,0-0.4,0.1-0.6C99.1,32.7,99.2,32.5,99.3,32.3z"/>
	<polygon class="st0" points="133.8,30.7 129.2,30.7 129.2,31.6 131,31.6 131,36.3 132,36.3 132,31.6 133.8,31.6 	"/>
	<polygon class="st0" points="141.3,33.9 144.1,33.9 144.1,33 141.3,33 141.3,31.6 144.5,31.6 144.5,30.7 140.4,30.7 140.4,36.3 
		144.5,36.3 144.5,35.4 141.3,35.4 	"/>
	<polygon class="st0" points="145.3,31.6 147,31.6 147,36.3 148.1,36.3 148.1,31.6 149.8,31.6 149.8,30.7 145.3,30.7 	"/>
	<path class="st0" d="M160.2,31.8c0,0.7,0,1.2-0.1,1.7c-0.1,0.5-0.1,0.8-0.2,1.1c0,0.1-0.1,0.2-0.1,0.3c0,0.1-0.1,0.2-0.2,0.3
		c-0.1,0.2-0.2,0.2-0.3,0.3c-0.1,0.1-0.2,0.1-0.3,0.1c-0.1,0-0.2,0-0.3-0.1l-0.1,0.8h0c0.2,0.1,0.4,0.1,0.7,0.1c0.2,0,0.3,0,0.4,0
		c0.1,0,0.1,0,0.2,0c0.1,0,0.1,0,0.2,0c0.1-0.1,0.2-0.1,0.3-0.2c0.1-0.1,0.2-0.2,0.3-0.4c0.2-0.3,0.3-0.8,0.4-1.3l0-0.3
		c0-0.2,0-0.3,0-0.5c0-0.4,0.1-0.9,0.1-1.4v-0.5h1.9v4.7h1v-5.6h-3.8V31.8z"/>
	<path class="st0" d="M189,35.1c-0.1,0.1-0.2,0.1-0.3,0.2c-0.1,0-0.2,0.1-0.3,0.1c-0.2,0-0.4,0.1-0.5,0.1c-0.5,0-1-0.2-1.3-0.6
		c-0.2-0.2-0.3-0.4-0.4-0.7c-0.1-0.2-0.1-0.4-0.1-0.7c0-0.5,0.2-1,0.5-1.4c0.4-0.4,0.8-0.5,1.3-0.5c0.3,0,0.6,0.1,0.9,0.2
		c0.2,0.1,0.4,0.3,0.6,0.5l0.6-0.7c-0.3-0.3-0.6-0.5-1-0.7c-0.3-0.2-0.7-0.2-1.2-0.2c-0.8,0-1.5,0.3-2.1,0.8
		c-0.5,0.5-0.8,1.3-0.8,2.1c0,0.8,0.2,1.5,0.8,2.1c0.5,0.5,1.2,0.8,2,0.8c0.3,0,0.6,0,0.8-0.1c0.2,0,0.3-0.1,0.4-0.2
		c0.2-0.1,0.3-0.2,0.5-0.3c0.2-0.1,0.3-0.3,0.5-0.4l-0.6-0.7C189.2,34.9,189.1,35,189,35.1z"/>
	<polygon class="st0" points="91.9,18.5 96.1,18.5 96.1,22.7 98.4,22.7 98.4,12.3 96.1,12.3 96.1,16.4 91.9,16.4 91.9,12.3 
		89.6,12.3 89.6,22.7 91.9,22.7 	"/>
	<polygon class="st0" points="111,22.7 106.5,16.7 110.8,12.3 108,12.3 103.8,16.8 103.8,12.3 101.5,12.3 101.5,22.7 103.8,22.7 
		103.8,19.6 105,18.3 108.2,22.7 	"/>
	<polygon class="st0" points="120.5,19.6 121.7,18.3 124.9,22.7 127.6,22.7 123.2,16.7 127.5,12.3 124.7,12.3 120.5,16.8 
		120.5,12.3 118.2,12.3 118.2,22.7 118.2,22.7 120.5,22.7 	"/>
	<path class="st0" d="M148.6,20.4c-0.4,0.2-0.9,0.3-1.5,0.3c-0.2,0-0.4,0-0.6-0.1c-0.2,0-0.3-0.1-0.5-0.1c0,0-0.1,0-0.1-0.1l-0.1,0
		c-0.3-0.2-0.6-0.4-0.9-0.7c-0.5-0.6-0.8-1.4-0.8-2.3c0-0.9,0.3-1.7,0.8-2.3c0.1-0.1,0.1-0.1,0.2-0.2c0.3-0.3,0.7-0.5,1.1-0.6
		c0.3-0.1,0.6-0.1,0.9-0.1c0.5,0,1,0.1,1.4,0.3c0.4,0.2,0.8,0.5,1.3,0.9l1.4-1.6c-0.5-0.5-1.2-1-1.8-1.3c-0.6-0.3-1.3-0.4-2.2-0.4
		c-1.6,0-2.8,0.5-3.9,1.6c-1,1-1.5,2.3-1.5,3.8s0.5,2.8,1.5,3.8c1,1,2.3,1.6,3.8,1.6c1,0,1.7-0.2,2.4-0.5c0.3-0.1,0.5-0.3,0.7-0.4
		c0.2-0.1,0.4-0.2,0.5-0.4c0.2-0.2,0.4-0.3,0.6-0.5l-1.5-1.6C149.5,19.9,149,20.2,148.6,20.4z"/>
	<polygon class="st0" points="159.2,16.7 156.4,12.3 153.9,12.3 153.9,22.7 156.2,22.7 156.2,15.9 159.1,20.3 159.2,20.3 
		162.1,15.9 162.1,22.7 164.4,22.7 164.4,12.3 161.9,12.3 	"/>
	<path class="st0" d="M185.7,22.8c0.6,0,1.1-0.1,1.6-0.2c0.3-0.1,0.6-0.2,0.8-0.3c0.7-0.3,1.3-0.7,1.8-1.3l-1.5-1.6
		c-0.4,0.4-0.8,0.7-1.3,0.9c-0.4,0.2-0.9,0.3-1.5,0.3c-0.9,0-1.6-0.4-2.2-1c-0.5-0.6-0.8-1.4-0.8-2.3c0-0.5,0.1-1,0.3-1.4
		c0.1-0.3,0.3-0.6,0.6-0.9c0.6-0.7,1.3-1,2.2-1c0.5,0,1,0.1,1.4,0.3c0.4,0.2,0.8,0.5,1.3,0.9l1.4-1.6c-0.5-0.5-1.2-1-1.8-1.3
		c-0.6-0.3-1.3-0.4-2.2-0.4c-1.6,0-2.8,0.5-3.9,1.6c-0.4,0.4-0.7,0.8-0.9,1.3c-0.4,0.8-0.6,1.6-0.6,2.6c0,1.5,0.5,2.8,1.5,3.8
		C182.9,22.3,184.2,22.8,185.7,22.8z"/>
	<path class="st0" d="M138,13.6c-0.4-0.4-0.8-0.7-1.3-1c-0.8-0.4-1.7-0.6-2.6-0.6c-1.6,0-2.9,0.5-3.9,1.6c-1,1-1.6,2.3-1.6,3.8
		s0.5,2.8,1.6,3.8c1,1,2.4,1.6,3.9,1.6c0.2,0,0.4,0,0.6,0l0.1,0l0.1,0l0.1,0c0.2,0,0.3-0.1,0.5-0.1c0.4-0.1,0.9-0.3,1.2-0.5
		c0.4-0.2,0.9-0.6,1.2-0.9c0.6-0.6,1-1.2,1.3-1.9c0.2-0.6,0.3-1.2,0.3-1.9c0-0.8-0.1-1.5-0.4-2.1C138.9,14.7,138.5,14.1,138,13.6z
		 M136.3,19.8c-0.6,0.7-1.3,1-2.2,1h0c-0.9,0-1.6-0.4-2.2-1c-0.6-0.7-0.9-1.4-0.8-2.4c0-0.9,0.2-1.7,0.8-2.3
		c0.5-0.6,1.3-0.9,2.2-0.9c0.4,0,0.8,0.1,1.1,0.2c0.4,0.2,0.8,0.4,1.2,0.8c0.3,0.3,0.5,0.6,0.6,0.9c0.2,0.4,0.3,0.9,0.3,1.4
		C137.2,18.4,136.9,19.2,136.3,19.8z"/>
	<path class="st0" d="M87.2,22.7l-4.4-10.5h-2.1l-4.4,10.5h2.3l1-2.3h4.4l1,2.3H87.2z M80.4,18.4l1.4-3.4l1.4,3.4H80.4z"/>
	<path class="st0" d="M73.8,21.8c0.7-0.5,1-1.4,1-2.4c0-0.6-0.1-1-0.3-1.4c-0.2-0.4-0.4-0.7-0.7-0.9c-0.6-0.5-1.5-0.8-2.7-0.8h-2.7
		v-1.8h5.6v-2.1h-7.9v10.4H71C72.2,22.7,73.2,22.4,73.8,21.8z M68.5,18H71c1.1,0,1.6,0.4,1.6,1.2c0,0.9-0.5,1.3-1.6,1.3h-2.5V18z"/>
	<path class="st0" d="M33.8,12.4C20.7,12.4,10,17.6,10,24c0,6.4,10.7,11.5,23.8,11.5c13.1,0,23.8-5.2,23.8-11.5
		C57.6,17.6,46.9,12.4,33.8,12.4z M37.5,32l-0.2,0.1l-0.2,0.1c-7,2.9-14.5,2.1-16.6-2.8c-2.1-4.9,2.4-11.3,8.8-13.9
		c4-1.6,8.5-2,11.9-1c-2.6,1.3-5.2,2.6-7.8,3.9l-3.9,2c-3.1,1.6-6.2,3.1-9.3,4.7c8.3-2.4,14.8-1.4,17.6,7
		C37.7,31.9,37.6,31.9,37.5,32z M38,31.8c0.3-1.7,0.6-3.3,1-5l0.7-3.7c0.6-2.9,1.1-5.8,1.7-8.8c2.2,0.6,3.9,1.8,4.7,3.6
		C48.1,22.5,44.5,28.7,38,31.8z"/>
	<path class="st0" d="M176.2,21.5l0.1-0.1l0.1-0.1l0.1-0.1c1.1-1,1.6-2.3,1.6-3.8s-0.5-2.8-1.6-3.8c-1-1-2.4-1.6-3.9-1.6
		s-2.9,0.5-3.9,1.6c-1,1-1.6,2.3-1.6,3.8s0.5,2.8,1.6,3.8c1,1,2.4,1.6,3.9,1.6c1,0,1.9-0.2,2.8-0.7C175.6,22,175.9,21.8,176.2,21.5z
		 M172.5,20.8c-0.4,0-0.8-0.1-1.1-0.2c-0.2-0.1-0.3-0.2-0.5-0.3c-0.1-0.1-0.2-0.1-0.3-0.2c-0.1-0.1-0.2-0.2-0.3-0.3
		c-0.5-0.7-0.8-1.4-0.8-2.4c0-0.3,0-0.7,0.1-1c0.1-0.5,0.4-1,0.7-1.3c0.6-0.6,1.3-0.9,2.2-0.9s1.6,0.4,2.2,1
		c0.6,0.6,0.9,1.4,0.9,2.3c0,0.9-0.2,1.7-0.8,2.3C174.2,20.5,173.5,20.8,172.5,20.8z"/>
	<path class="st0" d="M74.5,30.6c-0.8,0-1.6,0.3-2.1,0.8c-0.5,0.6-0.8,1.3-0.8,2.1c0,0.2,0,0.4,0.1,0.6c0.1,0.6,0.4,1,0.8,1.5
		c0.3,0.3,0.6,0.5,0.9,0.6c0.3,0.1,0.7,0.2,1.2,0.2c0.8,0,1.6-0.3,2.1-0.8c0.5-0.6,0.8-1.3,0.8-2.1c0-0.8-0.3-1.5-0.8-2.1
		C76.1,30.9,75.4,30.6,74.5,30.6z M76.2,34.4L76.2,34.4l-0.1,0.2c-0.1,0.1-0.2,0.2-0.3,0.4c-0.4,0.4-0.8,0.5-1.3,0.5
		c-0.5,0-1-0.2-1.3-0.6c-0.4-0.4-0.5-0.8-0.5-1.4c0-0.2,0-0.4,0.1-0.6c0.1-0.3,0.2-0.6,0.5-0.8c0.4-0.4,0.8-0.5,1.3-0.5
		c0.5,0,1,0.2,1.3,0.6s0.5,0.8,0.5,1.4C76.4,33.9,76.3,34.2,76.2,34.4z"/>
	<path class="st0" d="M96.2,31.4c-0.5-0.5-1.2-0.8-2.1-0.8c-0.8,0-1.6,0.3-2.1,0.8c-0.5,0.6-0.8,1.3-0.8,2.1c0,0.3,0,0.5,0.1,0.7
		c0.1,0.4,0.3,0.8,0.5,1.1c0,0,0.1,0.1,0.1,0.1c0,0,0.1,0.1,0.1,0.1c0.3,0.3,0.7,0.6,1.2,0.7c0.1,0,0.2,0,0.3,0.1c0.1,0,0.2,0,0.3,0
		l0.2,0l0.1,0c0.8,0,1.6-0.3,2.1-0.8h0c0.5-0.6,0.8-1.3,0.8-2.1C97,32.7,96.7,32,96.2,31.4z M95.9,33.9c0,0.1,0,0.2-0.1,0.3
		c-0.1,0.3-0.2,0.5-0.5,0.8c-0.2,0.2-0.5,0.4-0.8,0.5c-0.2,0.1-0.4,0.1-0.6,0.1c-0.3,0-0.6-0.1-0.8-0.2c-0.2-0.1-0.4-0.2-0.5-0.4
		c-0.4-0.4-0.5-0.8-0.5-1.4c0-0.5,0.2-1,0.5-1.4c0.4-0.4,0.8-0.5,1.3-0.5c0.5,0,1,0.2,1.3,0.6c0.4,0.4,0.5,0.8,0.5,1.4
		C95.9,33.7,95.9,33.8,95.9,33.9z"/>
	<path class="st0" d="M110.2,31.2c-0.1,0-0.1-0.1-0.2-0.1c0,0-0.1,0-0.1-0.1c-0.1,0-0.2-0.1-0.3-0.1c-0.1,0-0.2-0.1-0.3-0.1
		c-0.2,0-0.4-0.1-0.7-0.1h-2.2h0v5.6h1v-1.8h1.1c0.6,0,1.2-0.1,1.6-0.5c0.4-0.3,0.6-0.8,0.6-1.4C110.8,32,110.6,31.6,110.2,31.2z
		 M109.5,33.3c-0.2,0.2-0.5,0.3-0.8,0.3h-1.2h-0.1v-2h1.2c0.4,0,0.7,0.1,0.9,0.2c0.1,0.1,0.2,0.3,0.3,0.4c0,0.1,0,0.2,0,0.3
		C109.8,32.9,109.7,33.1,109.5,33.3z"/>
	<path class="st0" d="M113.3,30.7l-2.5,5.6h1.1l0.5-1.3h2.7l0.5,1.3h1l-2.5-5.6H113.3z M112.7,34l1-2.2l1,2.2H112.7z"/>
	<path class="st0" d="M121.5,33.3c-0.1-0.1-0.3-0.2-0.5-0.3c-0.2-0.1-0.3-0.1-0.5-0.1c-0.1,0-0.3,0-0.5,0h-1.6v-1.3h3.2v-0.9h-4.2
		v5.6h2.5c0.7,0,1.2-0.1,1.5-0.4c0.4-0.3,0.5-0.7,0.5-1.3c0-0.2,0-0.4-0.1-0.6C121.9,33.7,121.7,33.5,121.5,33.3z M120.8,35.2
		c-0.2,0.1-0.5,0.2-1,0.2h-1.3h-0.1v-1.7h1.5c0.8,0,1.2,0.3,1.2,0.8C121.1,34.8,121,35.1,120.8,35.2z"/>
	<path class="st0" d="M127,30.8c-0.1,0-0.2-0.1-0.3-0.1c-0.1,0-0.3-0.1-0.4-0.1c-0.1,0-0.3,0-0.4,0c-0.8,0-1.6,0.3-2.1,0.8
		c-0.5,0.6-0.8,1.3-0.8,2.1c0,0.1,0,0.3,0,0.4l0,0.1c0,0.3,0.1,0.6,0.3,0.8c0.1,0.3,0.3,0.5,0.5,0.7c0.5,0.5,1.2,0.8,2.1,0.8
		c0.8,0,1.6-0.3,2.1-0.8c0.3-0.3,0.5-0.6,0.6-0.9c0.1-0.3,0.2-0.7,0.2-1.1c0-0.8-0.3-1.5-0.8-2.1C127.7,31.2,127.3,30.9,127,30.8z
		 M127.2,35c-0.3,0.3-0.6,0.5-1,0.5l-0.1,0l-0.1,0c-0.1,0-0.1,0-0.2,0c-0.3,0-0.6-0.1-0.9-0.3c-0.1-0.1-0.2-0.1-0.3-0.2
		c0,0-0.1-0.1-0.1-0.1l-0.1-0.1c-0.1-0.1-0.2-0.3-0.3-0.5c-0.1-0.3-0.2-0.6-0.2-0.9c0-0.5,0.2-1,0.5-1.4l0,0l0,0l0.1-0.1l0.1,0
		c0,0,0.1,0,0.1-0.1c0,0,0.1,0,0.1-0.1c0.1,0,0.2-0.1,0.3-0.1c0.1,0,0.2-0.1,0.4-0.1c0.1,0,0.2,0,0.3,0c0.5,0,1,0.2,1.3,0.6
		c0.4,0.4,0.5,0.8,0.5,1.4C127.8,34.1,127.6,34.6,127.2,35z"/>
	<path class="st0" d="M136.1,30.7l-2.5,5.6h1.1l0.5-1.3h2.7l0.5,1.3h1l-2.5-5.6H136.1z M135.5,34l1-2.2l1,2.2H135.5z"/>
	<path class="st0" d="M157.8,30.7h-3.9v0.8c0,1.7-0.2,3-0.7,3.9h-0.5v2.1h0.8l0.1-1.2h3.9v1.2h0.8l0.1-2.1h-0.7V30.7z M156.8,35.4
		h-2.6c0.4-0.8,0.6-1.9,0.6-3.2v-0.7h2V35.4z"/>
	<path class="st0" d="M166,31c-0.1,0.1-0.2,0.1-0.3,0.2c-0.2,0.2-0.3,0.4-0.4,0.6c-0.1,0.2-0.1,0.4-0.1,0.7c0,0.4,0.1,0.8,0.4,1.1
		c0.2,0.3,0.5,0.5,1,0.6l-1.5,2.1h1.2l1.4-1.9h1.2v1.9h0.9v-5.6h-2.5C166.8,30.7,166.3,30.8,166,31z M168.8,31.6v1.9h-1.5h0
		c-0.4,0-0.7-0.1-0.8-0.2c0,0-0.1-0.1-0.1-0.1c0,0,0,0-0.1-0.1c0-0.1-0.1-0.1-0.1-0.2c0-0.1,0-0.1-0.1-0.2c0-0.1,0-0.2,0-0.2
		c0-0.3,0.1-0.5,0.3-0.7c0.2-0.2,0.5-0.2,0.8-0.2H168.8z"/>
	<path class="st0" d="M177.1,33.4c0.3-0.2,0.6-0.4,0.7-0.7c0-0.1,0.1-0.2,0.1-0.3c0-0.1,0-0.2,0-0.3c0-0.4-0.1-0.7-0.4-1
		c-0.3-0.3-0.8-0.5-1.5-0.5h-2.5v5.7h2.5c0.4,0,0.8-0.1,1.1-0.2c0.1,0,0.1-0.1,0.2-0.1c0.1,0,0.2-0.1,0.3-0.2
		c0.1-0.1,0.2-0.2,0.3-0.3c0-0.1,0.1-0.1,0.1-0.2c0.1-0.2,0.2-0.4,0.2-0.7C178.2,34.2,177.8,33.7,177.1,33.4z M174.6,31.6h1.4
		c0.3,0,0.5,0.1,0.7,0.2c0.2,0.1,0.2,0.3,0.2,0.5c0,0.3-0.1,0.5-0.3,0.6c-0.1,0.1-0.3,0.1-0.5,0.2c-0.1,0-0.1,0-0.2,0l-0.1,0h-1.3
		V31.6z M177.1,35.1c0,0-0.1,0.1-0.1,0.1c-0.2,0.1-0.4,0.2-0.8,0.2h-1.6v-1.5h1.6c0.8,0,1.2,0.2,1.2,0.7
		C177.3,34.9,177.2,35,177.1,35.1z"/>
	<path class="st0" d="M181.2,30.7l-2.5,5.6h1.1l0.5-1.3h2.7l0.5,1.3h1l-2.5-5.6H181.2z M180.6,34l1-2.2l1,2.2H180.6z"/>
</g>
</svg>
