<svg xmlns="http://www.w3.org/2000/svg" viewBox="0 0 200 50">
	<path fill="#006df0" d="M65.4 23.2c.7.3 1.3.6 1.9 1.2.5.5 1 1.1 1.2 1.8.3.7.4 1.4.4 2.2 0 .8-.2 1.5-.4 2.2-.4.7-.7 1.2-1.2 1.8-.5.5-1.2.9-1.9 1.2-.7.2-1.5.4-2.4.4h-8.7V16.1h13.3v3.5H58v3.2h5c.8 0 1.6.1 2.4.4zm-.6 3.5c-.4-.4-1.1-.5-1.9-.5h-5v4.5h5c.8 0 1.4-.2 1.9-.5s.7-.9.7-1.6c0-1-.3-1.5-.7-1.9zm11 7.2h-3.5V16.1h3.5v7.5l6.2-7.5h4.4l-7.1 8.6 8.6 9.3h-4.6l-7.5-8v7.9zm17.5-.5c-1.2-.4-2.1-1.2-2.9-2-.8-.8-1.5-1.8-2-2.9-.4-1.2-.7-2.3-.7-3.6 0-1.2.3-2.5.7-3.6.4-1.2 1.2-2.1 2-2.9.8-.8 1.8-1.5 2.9-2 1.1-.4 2.3-.6 3.7-.6 1 0 2 .2 2.9.4.9.4 1.8.7 2.6 1.3.7.5 1.4 1.2 2 2 .5.8 1 1.7 1.2 2.6h-3.9c-.2-.4-.4-.9-.7-1.2-.4-.4-.7-.6-1.2-.9-.4-.3-.9-.4-1.3-.5-.4-.1-1-.2-1.5-.2-.9 0-1.6.2-2.3.4s-1.3.7-1.8 1.2-.9 1.2-1.2 1.8c-.3.7-.4 1.4-.4 2.2 0 .8.1 1.5.4 2.2.3.7.6 1.2 1.2 1.8s1.1.9 1.8 1.2c.6.3 1.4.4 2.3.4.5 0 1-.1 1.5-.2.4-.1.9-.4 1.3-.5.4-.3.8-.5 1.2-.9.4-.4.5-.7.7-1.2h3.9c-.3 1-.6 1.8-1.2 2.6-.5.8-1.2 1.4-2 2-.8.5-1.6 1-2.6 1.3-.9.4-1.9.4-2.9.4-1.4.2-2.7 0-3.7-.6zm22.2-9.6V18h8.5v-1.8h-10.4v17.6h6.2c3.4 0 5.9-1.7 5.9-5 0-3.4-2.5-5.1-5.9-5.1l-4.3.1zm8.3 5c0 2.1-1.4 3.3-4 3.3h-4.3v-6.6h4.3c2.6 0 4 1.2 4 3.3zm2.8 5.1h2l2.4-5.4h8.4l2.5 5.4h2L136 16.3h-1.5l-7.9 17.6zm8.6-15l3.5 7.7h-6.9l3.4-7.7zm11.2 15h1.9v-8.1h10.3v8.1h1.9V16.2h-1.9v7.7h-10.3v-7.7h-1.9v17.7zm30.8 0h2.8l-10.8-9.3 8.7-8.4h-2.6l-8.1 7.7v-7.7h-1.9v17.6h1.9v-8.5l10 8.6z"/>
	<linearGradient id="gr1" gradientUnits="userSpaceOnUse" x1="33.5639" y1="13.8291" x2="33.5639" y2="39.094" gradientTransform="matrix(1 0 0 -1 0 52.7)">
		<stop offset="0" stop-color="#4581e9"/>
		<stop offset=".4792" stop-color="#80acf0"/>
		<stop offset="1" stop-color="#fff"/>
	</linearGradient>
	<circle cx="33.6" cy="25" r="13.6" fill="url(#gr1)"/>
	<linearGradient id="gr2" gradientUnits="userSpaceOnUse" x1="51.8111" y1="13.6089" x2="28.554" y2="31.5119" gradientTransform="matrix(1 0 0 -1 0 52.7)">
		<stop offset="0" stop-color="#4581e9"/>
		<stop offset="1" stop-color="#4581e9" stop-opacity="0"/>
	</linearGradient>
	<circle cx="33.6" cy="25" r="13.6" fill="url(#gr2)"/>
	<radialGradient id="gr3" cx="91.4891" cy="84.6622" r="33.2999" gradientTransform="matrix(-.809 -.5879 -.8327 1.1459 193.6151 -10.7168)" gradientUnits="userSpaceOnUse">
		<stop offset=".0969745" stop-color="#4581e9"/>
		<stop offset=".4599" stop-color="#80acf0"/>
		<stop offset=".7942" stop-color="#f0f6fd"/>
	</radialGradient>
	<path d="M33.6 11.5c-2.5 0-4.9.7-6.9 1.9-.2.1-.4.3-.5.4-4.6 4.1-4 11.5 1.1 16.5s12.9 5.8 17.5 1.7c.5-.4 1-1 1.3-1.5.7-1.7 1.1-3.5 1.1-5.4 0-7.6-6.1-13.6-13.6-13.6z" fill="url(#gr3)"/>
	<radialGradient id="gr4" cx="135.0508" cy="97.8662" r="29.5997" gradientTransform="matrix(-.9977 .06783 .08088 1.1896 188.8117 -110.0521)" gradientUnits="userSpaceOnUse">
		<stop offset="0" stop-color="#4581e9"/>
		<stop offset=".5368" stop-color="#87b1f0"/>
		<stop offset=".8057" stop-color="#cce0fd"/>
		<stop offset="1" stop-color="#f0f6fd"/>
	</radialGradient>
	<path d="M46 24.6c.6-.9.8-2 .7-3.1-1-3.6-3.4-6.6-6.5-8.4-.1-.1-.2-.1-.3-.2-1.9-1-4-1.5-6.3-1.5-1.9 0-3.7.4-5.3 1.1-.4.4-.9.8-1.2 1.3-2.1 3.2.4 8.3 5.6 11.2 5.1 3.1 11.1 2.8 13.3-.4z" fill="url(#gr4)"/>
</svg>