<svg xmlns="http://www.w3.org/2000/svg" viewBox="0 0 200 50">
	<path fill="#939598" d="M109.09 3.62415c1.116 6.1967-5.209 18.17795-15.9675 29.31355-12.7487 13.2035-26.8903 20.2174-31.5946 15.6765-2.1106-2.0395-1.9614-6.0688.0071-11.0858-1.3005 3.9937-1.1513 7.1489.7319 8.7976 4.747 4.1643 18.7323-2.7289 31.2394-15.3994C103.732 20.5727 109.801 9.57213 109.09 3.62415z"/>
	<path fill="#ED1C24" d="M76.046 22.1148c0 .5045-.071.9594-.2061 1.3715-.1421.4122-.334.7746-.5756 1.0873-.2487.3127-.5401.5827-.8812.8101-.3411.2274-.7177.4122-1.1228.5614-.4121.1492-.8456.2558-1.3075.3269-.4619.0711-.9807.1066-1.5492.1066H66.623c-.2416 0-.4477-.0711-.6111-.2132s-.2487-.3766-.2487-.6964V13.0898c0-.3198.0853-.5543.2487-.6964.1634-.1422.3695-.2132.6111-.2132h3.5674c.867 0 1.606.071 2.2101.2203.604.1492 1.1086.3695 1.5278.6609.4122.2984.732.668.9523 1.1228.2203.4548.3269.9877.3269 1.5989 0 .3411-.0427.668-.1351.9735-.0852.3056-.2131.5828-.3837.8315-.1705.2487-.3766.469-.6182.6609-.2488.1918-.5259.3411-.8386.4619.4051.071.7746.199 1.1157.3837.3411.1848.6396.4193.8883.7106.2558.2914.4548.6254.5969 1.0163.135.3766.2132.8101.2132 1.2933zm-3.7308-5.9764c0-.2843-.0426-.5401-.135-.7675-.0853-.2274-.2203-.4122-.398-.5685-.1776-.1492-.3979-.2629-.6609-.3482-.27-.0782-.6253-.1208-1.073-.1208h-1.4568v3.6882h1.6131c.4193 0 .7462-.0498.9949-.1493.2487-.0995.4548-.2345.6183-.405.1634-.1706.2842-.3696.3695-.6041.0853-.2274.1279-.469.1279-.7248zm.732 6.0759c0-.3269-.0569-.6254-.1635-.8812-.1066-.2629-.27-.4761-.4832-.6538-.2132-.1776-.4833-.3127-.8101-.405-.3269-.0924-.7604-.1422-1.2863-.1422h-1.7126v4.0364h2.0821c.4051 0 .7391-.0426 1.0162-.1279.2772-.0853.5117-.2061.7107-.3695.199-.1635.3553-.3695.469-.6112.1208-.2487.1777-.5329.1777-.8456zM84.9075 25.2416c0 .2132-.0071.3908-.0284.5329-.0213.1422-.0426.2559-.0853.3483-.0355.0852-.0853.1492-.135.1918-.0568.0427-.1137.0569-.1777.0569h-7.1276c-.2416 0-.4477-.0711-.6111-.2132-.1635-.1421-.2487-.3766-.2487-.6964V13.0898c0-.3198.0852-.5543.2487-.6964.1634-.1422.3695-.2132.6111-.2132h7.085c.064 0 .1208.0213.1777.0568.0497.0356.0923.0995.135.1919.0355.0924.0639.2061.0853.3482.0213.1421.0284.3269.0284.5401 0 .2061-.0071.3766-.0284.5187-.0214.1422-.0427.2559-.0853.3483-.0355.0852-.0782.1492-.135.1918-.0498.0427-.1066.0569-.1777.0569h-5.0668v3.4679h4.2922c.064 0 .1279.0213.1777.0568.0568.0426.0995.0995.135.1848.0355.0852.064.1989.0853.3411.0213.1421.0284.3198.0284.5187 0 .2132-.0071.3909-.0284.5259-.0213.1421-.0427.2487-.0853.334-.0355.0853-.0853.1421-.135.1777-.0569.0355-.1137.0568-.1777.0568h-4.2922v4.0009h5.1094c.064 0 .128.0213.1777.0568.0569.0426.0995.1066.135.1919.0356.0853.064.2061.0853.3482.0213.1563.0284.334.0284.5472zM94.6077 22.1148c0 .7462-.1421 1.4-.4192 1.9614-.2772.5614-.6538 1.0304-1.13 1.407-.4761.3766-1.0304.6609-1.6699.8528-.6396.1918-1.3147.2842-2.0395.2842-.4904 0-.9452-.0426-1.3645-.1208-.4192-.0782-.7888-.1776-1.1157-.2913-.3197-.1138-.5898-.2346-.803-.3554-.2132-.1208-.3695-.2345-.469-.3269-.0924-.0923-.1634-.2345-.2061-.4121-.0426-.1777-.0568-.4335-.0568-.7746 0-.2274.0071-.4193.0213-.5685.0142-.1564.0355-.2772.0711-.3695.0355-.0924.0781-.1635.135-.2061.0568-.0427.1208-.0569.1919-.0569.0994 0 .2487.0569.4334.1777.1848.1208.4264.2558.7178.3979.2913.1493.6395.2772 1.0446.398.4051.1208.8741.1776 1.4071.1776.3482 0 .668-.0426.9451-.1279.2771-.0852.5117-.206.7106-.3553.1919-.1563.3411-.3411.4477-.5685.0995-.2274.1564-.4761.1564-.7604 0-.3197-.0853-.5969-.263-.8314-.1776-.2274-.405-.4335-.6822-.6111-.2842-.1777-.604-.3483-.9593-.5046-.3553-.1563-.7249-.3269-1.1086-.4974-.3838-.1777-.7462-.3767-1.1086-.597-.3553-.2203-.6751-.4903-.9593-.803-.2843-.3127-.5117-.6751-.6823-1.1015-.1776-.4263-.2629-.9309-.2629-1.5278 0-.6822.1279-1.2791.3766-1.7908.2559-.5188.5899-.9451 1.0234-1.2862.4263-.3411.9309-.597 1.5136-.7604.5827-.1706 1.201-.2558 1.8476-.2558.334 0 .6751.0284 1.0091.0781.334.0498.6538.1208.9452.2061.2913.0853.5543.1848.7817.2985.2274.1066.3766.1989.4477.2771.071.0711.1208.135.1492.1848.0284.0497.0497.1208.064.2061.0213.0852.0284.1918.0355.3198.0071.1279.0142.2842.0142.4761 0 .2132-.0071.3908-.0142.5401-.0142.1492-.0284.27-.0569.3624-.0284.0924-.0639.1634-.1066.2061-.0497.0426-.1137.0639-.1918.0639-.0782 0-.2061-.0497-.3838-.1563-.1776-.0995-.3908-.2132-.6466-.334-.2559-.1208-.5543-.2274-.8883-.3269-.334-.0995-.7036-.1492-1.1086-.1492-.3127 0-.5898.0355-.8243.1137-.2346.0781-.4264.1847-.5899.3197-.1563.1351-.2771.2985-.3482.4904-.0781.1918-.1137.3908-.1137.604 0 .3127.0853.5898.2558.8172.1706.2274.4051.4335.6894.6112.2913.1776.6182.3482.9806.5045.3625.1564.7391.3269 1.1157.4975.3838.1776.7533.3766 1.1157.5969.3624.2203.6893.4903.9736.803.2842.3127.5187.6751.6893 1.0944.1776.4335.2629.9309.2629 1.4994zM105.118 13.3598c0 .2132-.007.3909-.028.5401-.022.1493-.043.2701-.086.3624-.035.0924-.085.1564-.135.2061-.057.0427-.113.064-.177.064h-3.554v11.4411c0 .0711-.021.1422-.071.199-.049.0569-.128.1066-.234.1421-.107.0356-.256.064-.448.0853-.185.0213-.4191.0356-.6962.0356-.2772 0-.5117-.0143-.6965-.0356-.1847-.0213-.3339-.0497-.4476-.0853-.1066-.0355-.1919-.0852-.2346-.1421-.0497-.0568-.071-.1208-.071-.199V14.5324h-3.5532c-.071 0-.135-.0213-.1847-.064-.0498-.0426-.0924-.1137-.1351-.2061-.0355-.0923-.0639-.2131-.0852-.3624-.0214-.1492-.0285-.334-.0285-.5401 0-.2202.0071-.405.0285-.5613.0213-.1564.0426-.2772.0852-.3696.0356-.0924.0782-.1563.1351-.199.0497-.0426.1137-.0568.1847-.0568h10.0061c.064 0 .128.0213.177.0568.057.0427.1.1066.135.199.036.0924.064.2132.086.3696.014.1563.028.3411.028.5613zM74.6675 41.6003c0 .2274-.0071.4193-.0284.5685-.0214.1492-.0498.2771-.0853.3695-.0427.0924-.0853.1635-.1492.2061-.0569.0426-.1209.064-.1919.064h-7.6251c-.2558 0-.4761-.0782-.6538-.2274-.1776-.1493-.2629-.398-.2629-.7462v-13.232c0-.3411.0853-.5898.2629-.7461.1777-.1564.3909-.2274.6538-.2274h7.5753c.0711 0 .1351.0213.1848.0568.0569.0427.0995.1066.1421.2061.0427.0995.0711.2203.0853.3766.0213.1493.0284.3483.0284.5828 0 .2203-.0071.405-.0284.5543-.0213.1492-.0497.2771-.0853.3695-.0426.0924-.0852.1634-.1421.2061-.0568.0426-.1208.0639-.1848.0639h-5.4221v3.7095h4.5836c.0711 0 .135.0213.1919.064.0568.0426.1066.1066.1492.1989.0426.0924.0711.2132.0853.3625.0213.1492.0284.3411.0284.5543 0 .2274-.0071.4121-.0284.5614-.0213.1492-.0498.27-.0853.3553-.0426.0924-.0853.1563-.1492.1918-.0569.0427-.1208.0569-.1919.0569h-4.5836v4.278h5.4719c.071 0 .135.0213.1919.064.0568.0426.1065.1137.1492.206.0426.0924.071.2203.0853.3696.0142.1634.0284.3553.0284.5827zM83.5076 28.8942c0 .2345-.0071.4335-.0284.5898-.0213.1635-.0497.2843-.0924.3838-.0426.0923-.0924.1634-.1492.2131-.0569.0498-.1208.0711-.1848.0711h-4.9602v4.079h4.6546c.0711 0 .1351.0214.1848.0569.0569.0426.1066.1066.1492.199.0427.0923.0711.2203.0924.3766s.0285.3553.0285.5898-.0072.4335-.0285.5898c-.0213.1564-.0497.2843-.0924.3838-.0426.0995-.0923.1776-.1492.2203-.0568.0426-.1208.0639-.1848.0639h-4.6546v5.6496c0 .0852-.0213.1634-.071.2202-.0498.064-.128.1138-.2488.1564-.1208.0426-.2771.0782-.4761.0995s-.4477.0355-.7533.0355c-.2984 0-.5471-.0142-.7461-.0355-.199-.0213-.3553-.0569-.4761-.0995-.1209-.0426-.199-.0924-.2488-.1564-.0497-.0639-.0781-.135-.0781-.2202V28.6028c0-.3411.0852-.5898.2629-.7461.1777-.1493.3908-.2274.6538-.2274h7.1418c.0711 0 .135.0213.1848.0639.0568.0427.1066.1137.1492.2132.0427.0995.0711.2274.0924.3909.0213.1634.0284.3624.0284.5969zM92.348 28.8942c0 .2345-.0072.4335-.0285.5898-.0213.1635-.0497.2843-.0924.3838-.0426.0923-.0923.1634-.1492.2131-.0568.0498-.1208.0711-.1848.0711h-4.9602v4.079h4.6547c.071 0 .135.0214.1847.0569.0569.0426.1066.1066.1493.199.0426.0923.071.2203.0924.3766.0213.1563.0284.3553.0284.5898s-.0071.4335-.0284.5898c-.0214.1564-.0498.2843-.0924.3838-.0427.0995-.0924.1776-.1493.2203-.0568.0426-.1208.0639-.1847.0639h-4.6547v5.6496c0 .0852-.0213.1634-.071.2202-.0498.064-.1279.1138-.2487.1564-.1208.0426-.2772.0782-.4762.0995-.1989.0213-.4477.0355-.7532.0355-.2985 0-.5472-.0142-.7462-.0355-.199-.0213-.3553-.0569-.4761-.0995-.1208-.0426-.199-.0924-.2487-.1564-.0498-.0639-.0782-.135-.0782-.2202V28.6028c0-.3411.0853-.5898.2629-.7461.1777-.1493.3909-.2274.6538-.2274h7.1418c.0711 0 .1351.0213.1848.0639.0569.0427.1066.1137.1492.2132.0427.0995.0711.2274.0924.3909.0213.1634.0285.3624.0285.5969zM106.831 35.0411c0 1.2579-.157 2.3878-.469 3.3755-.313.9949-.782 1.8335-1.393 2.5299-.618.6893-1.386 1.2223-2.296 1.5847-.909.3624-1.961.5472-3.1619.5472-1.1796 0-2.21-.1564-3.0912-.4619-.8812-.3056-1.6131-.7817-2.1959-1.4142-.5827-.6325-1.0233-1.4355-1.3217-2.4161-.2914-.9807-.4406-2.1319-.4406-3.4679 0-1.2294.1563-2.3309.469-3.3116.3127-.9806.7746-1.8192 1.3928-2.5014.6183-.6893 1.3786-1.2151 2.2954-1.5847.9096-.3695 1.9684-.5543 3.1694-.5543 1.1517 0 2.1607.1493 3.0417.4548.881.3056 1.613.7746 2.203 1.4071.59.6324 1.037 1.4355 1.336 2.3948.312.9665.462 2.1035.462 3.4181zm-3.241.1635c0-.7959-.064-1.5208-.185-2.1745-.128-.6538-.341-1.2152-.639-1.6771-.299-.4619-.704-.8244-1.201-1.0802-.498-.2558-1.123-.3837-1.8762-.3837-.7604 0-1.3928.1421-1.8974.4263-.5117.2843-.9167.668-1.2294 1.1442-.3127.4761-.533 1.0375-.6609 1.6699-.1279.6396-.1918 1.3147-.1918 2.0253 0 .8315.0639 1.5705.1847 2.2314.1279.6609.334 1.2223.6325 1.6913.2984.469.6964.8244 1.1938 1.0731.4975.2487 1.1299.3695 1.8903.3695.7604 0 1.3924-.1421 1.8974-.4193.512-.2842.917-.6609 1.229-1.1512.313-.4832.533-1.0517.661-1.6913s.192-1.3218.192-2.0537zM118.414 42.4104c0 .0853-.014.1563-.05.2203-.028.0568-.106.1066-.22.1492-.114.0427-.291.064-.519.0853-.227.0142-.533.0213-.924.0213-.327 0-.59-.0071-.789-.0213-.199-.0142-.348-.0426-.461-.0853-.114-.0426-.192-.0995-.242-.1634-.05-.064-.085-.1493-.121-.2416l-1.357-3.3897c-.164-.3838-.327-.7249-.483-1.0234-.157-.2984-.327-.5471-.519-.7461-.192-.199-.412-.3482-.661-.4548-.249-.0995-.54-.1492-.867-.1492h-.959v5.7845c0 .0782-.029.1492-.079.2132-.049.0639-.135.1137-.248.1492-.121.0426-.277.0711-.469.0924-.199.0213-.448.0355-.754.0355-.298 0-.547-.0142-.746-.0355-.199-.0213-.355-.0569-.476-.0924-.121-.0426-.199-.0924-.249-.1492-.049-.064-.071-.135-.071-.2132V28.6028c0-.3411.086-.5898.263-.7461.178-.1564.391-.2274.654-.2274h3.93c.398 0 .725.0071.988.0213.255.0142.49.0355.703.0568.611.0853 1.159.2346 1.649.4477.49.2132.902.4833 1.243.8244.342.3411.597.7461.782 1.208.178.462.27 1.002.27 1.599 0 .5116-.064.9735-.192 1.3928s-.319.7888-.568 1.1228c-.249.3269-.562.6111-.924.8528-.37.2416-.789.4405-1.258.5898.228.1066.441.2416.64.3979.199.1564.383.3482.561.5685.178.2203.341.4762.498.7604.156.2843.305.6112.454.9665l1.28 2.9917c.12.2985.199.5117.234.6538.036.1421.057.2487.057.3269zm-3.973-10.297c0-.4975-.113-.9239-.341-1.265-.227-.3411-.597-.5898-1.115-.7248-.157-.0427-.334-.0711-.533-.0924s-.476-.0355-.825-.0355h-1.385v4.3064h1.57c.441 0 .824-.0497 1.151-.1563.327-.1066.604-.2559.825-.4477.22-.1919.383-.4193.49-.6893.107-.2701.163-.5686.163-.8954zM129.429 28.8942c0 .2274-.007.4193-.029.5827-.021.1635-.05.2914-.085.3838-.043.0994-.085.1705-.149.2202-.057.0498-.121.0711-.192.0711h-3.802v12.23c0 .0781-.028.1492-.078.2132-.05.0639-.135.1137-.249.1492-.121.0426-.277.0711-.476.0924-.199.0213-.448.0355-.746.0355-.299 0-.547-.0142-.746-.0355-.199-.0213-.356-.0569-.477-.0924-.12-.0426-.199-.0924-.248-.1492-.05-.064-.078-.1351-.078-.2132v-12.23h-3.802c-.078 0-.142-.0213-.199-.0711-.057-.0497-.1-.1208-.142-.2202-.043-.0995-.071-.2274-.086-.3838-.021-.1634-.028-.3553-.028-.5827 0-.2345.007-.4335.028-.5969.022-.1635.05-.2985.086-.3909.042-.0995.085-.1705.142-.2132.057-.0426.121-.0639.199-.0639h10.695c.071 0 .135.0213.192.0639.056.0427.106.1137.149.2132.042.0995.071.2274.085.3909.029.1634.036.3624.036.5969zM139.235 38.2533c0 .7959-.149 1.4994-.447 2.0964-.299.604-.697 1.1014-1.208 1.5065-.512.4051-1.102.7035-1.784.9096-.682.2061-1.407.3056-2.182.3056-.526 0-1.009-.0427-1.457-.1279-.447-.0853-.845-.1919-1.193-.3127-.342-.1208-.633-.2487-.86-.3837-.228-.1351-.398-.2488-.498-.3554-.099-.0995-.177-.2487-.22-.4406-.043-.1918-.064-.469-.064-.8243 0-.2416.007-.4477.021-.6111.015-.1635.043-.2985.079-.398.035-.0995.085-.1705.142-.2203.056-.0426.128-.0639.206-.0639.106 0 .263.0639.462.1918s.454.2701.767.4264c.313.1564.689.2985 1.123.4264.433.1279.938.1919 1.506.1919.377 0 .711-.0427 1.01-.1351.298-.0923.547-.2203.753-.3837.206-.1634.362-.3695.476-.6111.107-.2417.163-.5117.163-.8102 0-.3411-.092-.6395-.284-.8883-.185-.2487-.433-.4619-.732-.6537-.298-.1919-.647-.3696-1.023-.5401-.384-.1706-.782-.3482-1.187-.533-.405-.1847-.803-.3979-1.187-.6396-.383-.2416-.724-.5258-1.023-.8527-.298-.334-.547-.7249-.732-1.1797-.185-.4548-.284-.9948-.284-1.6273 0-.7248.135-1.3644.405-1.9187s.632-1.0091 1.087-1.3715c.455-.3624.995-.6325 1.62-.8172.619-.1777 1.28-.2701 1.976-.2701.362 0 .718.0284 1.08.0853.363.0568.697.1279 1.009.2203.313.0924.59.199.832.3198.241.1208.405.2132.483.2913.078.0782.128.1422.156.199.029.0569.05.1279.071.2203.022.0924.036.2061.043.3411.007.135.014.3056.014.5117 0 .2274-.007.4192-.014.5756-.014.1563-.029.2842-.057.3837-.028.0995-.064.1777-.121.2203-.049.0497-.121.0711-.206.0711-.085 0-.22-.0569-.412-.1635-.185-.1066-.419-.2274-.689-.3553-.277-.1279-.59-.2487-.953-.3553-.362-.1066-.753-.1563-1.186-.1563-.334 0-.633.0426-.881.1208-.249.0852-.462.1989-.626.3411-.17.1421-.291.3197-.376.5187-.086.2061-.121.4193-.121.6467 0 .334.092.6254.277.8741.185.2487.426.4619.739.6538.306.1918.661.3695 1.052.54.391.1706.788.3482 1.194.533.405.1848.803.398 1.193.6396.391.2416.739.5258 1.045.8527.306.334.554.7249.739 1.1726.192.4761.284 1.0091.284 1.6131z"/>
	<path fill="#939598" d="M110.199 26.2294h-2.949V15.8897c1.258-.0639 2.16-.0923 2.714-.0923 1.024 0 1.813.2203 2.374.6609.561.4405.839 1.0659.839 1.8902 0 .4833-.178.9167-.533 1.3147-.356.398-.754.6396-1.187.7391.817.1989 1.414.5258 1.791.9806.376.4548.561 1.0802.561 1.8619 0 .9096-.334 1.6344-1.002 2.1745-.668.5401-1.535.8101-2.608.8101zm-1.542-9.2098v2.9705c.298.0284.661.0426 1.101.0426 1.336 0 2.004-.5401 2.004-1.6273 0-.9523-.611-1.4355-1.84-1.4355-.469 0-.896.0213-1.265.0497zm0 4.0649v3.944c.483.0497.86.071 1.116.071.881 0 1.527-.1634 1.94-.4974.405-.334.611-.8599.611-1.5847 0-.6751-.192-1.1726-.583-1.4923-.391-.3198-1.037-.4833-1.947-.4833l-1.137.0427zM120.574 26.2294l-.71-2.1817h-3.845l-.76 2.1817h-1.578l4.2-10.4818h.377l3.894 10.4818h-1.578zm-2.579-7.7672l-1.599 4.5551h3.07l-1.471-4.5551zM129.187 26.3715l-5.344-7.5612v7.419H122.5V15.8896h.561l5.202 7.149v-7.149h1.343v10.4819h-.419zM136.713 26.2293l-2.914-4.7541-1.378 1.9542v2.7999h-1.415V15.8896h1.415v5.6282l3.837-5.6282h1.57l-3.091 4.4841 3.532 5.8556h-1.556z"/>
	<path fill="#F58220" d="M110.391 8.39252c-2.274.65378-4.641-.66088-5.294-2.9278-.654-2.26691.661-4.640417 2.935-5.294198 2.274-.65378 4.64.660887 5.294 2.927798.646 2.26692-.661 4.64042-2.935 5.2942z"/>
</svg>
