<svg xmlns="http://www.w3.org/2000/svg" viewBox="0 0 200 50">
	<path fill="#1D1D1B" d="M156.059 24.9555v-.1935h-5.032V25c0 4.9802-4.082 9.0198-9.115 9.0198-5.032 0-9.115-4.0396-9.115-9.0198s4.083-9.0198 9.115-9.0198h.15V11h-.15c-7.803 0-14.146 6.2771-14.146 14s6.342 14 14.146 14c7.805 0 14.147-6.2771 14.147-14v-.0445Zm-65.3703-13.449-9.1 26.987h5.1978l1.0246-3.0266c.1502-.4327.4073-.7.9647-.7h8.316c.5575 0 .8273.2673.9635.7l1.0245 3.0266h5.1982l-9.1004-26.987h-4.4889Zm4.746 18.5628h-5.0183c-.5269 0-.8286-.3131-.6491-.8502l2.6371-7.8426c.2418-.7.8285-.7 1.0551 0l2.6065 7.8426c.196.5664-.1056.8502-.6325.8502h.0012Zm24.2573-2.3113c.436.8349 1.115.6567 1.115-.2673V11.5053h5.015v26.9729h-6.071l-8.663-16.2362c-.437-.8349-1.115-.6567-1.115.2673v15.9842h-5.016v-26.987h6.373l8.362 16.2528v-.0013Zm-49.9447 5.0693V11.5065h-5.0171v26.987h16.1203v-4.7117H70.7273c-.1286.0077-.2573-.0115-.378-.0564-.1207-.0449-.2306-.1145-.3229-.2044-.0922-.0898-.1647-.1979-.2128-.3174-.048-.1195-.0706-.2476-.0663-.3763Zm-7.7891-13.8804c0 2.2807-.9953 4.1453-2.7275 5.3964 2.0631 1.372 3.2989 3.6985 3.2989 6.3076 0 4.5322-3.2696 7.8426-7.6389 7.8426H44v-26.987h10.3498c4.7015 0 7.6084 3.0571 7.6084 7.4404Zm-12.2347-2.9973c-.4366 0-.7077.2686-.7077.7v5.1291c0 .4188.2711.7318.7077.7318h3.7074c1.8684 0 3.1946-1.4165 3.1946-3.281 0-1.8328-1.311-3.2799-3.1946-3.2799h-3.7074Zm.061 18.0409h3.7202c2.2146 0 3.5866-1.5361 3.6018-3.5483 0-1.9829-1.3872-3.4886-3.5865-3.4886h-3.7342c-.4531 0-.7687.3271-.7687.7891v5.488c0 .4455.3309.7598.7687.7598h-.0013Z"/>
</svg>