<svg xmlns="http://www.w3.org/2000/svg" viewBox="0 0 200 50" style="enable-background:new 0 0 200 50" xml:space="preserve">
  <path d="M54.1 7C44.1 7 36 15.1 36 25.1c0 10 8.1 18.1 18.1 18.1 10 0 18.1-8.1 18.1-18.1 0-10-8.1-18.1-18.1-18.1zM39.9 25.1c0-7.1 5.2-13 12.1-14v6.7h-3c-2.2 0-3.6 1.6-3.6 3.9v7c0 2.2 1.8 3.9 4.1 3.9H52v6.7c-6.9-1.2-12.1-7.1-12.1-14.2zm9.8 3.5s-.2 0-.3-.2c-.1-.2-.1-.3-.1-.3v-6s0-.2.1-.3c.1-.1.3-.1.3-.1h8.5s.1 0 .3.1c.1.1.2.4.2.4v6.2l-.1.2c-.1.1-.2.1-.2.1h-2.3l-6.4-.1zm6.5 10.6v-6.7h2.7c2.2 0 3.9-1.7 3.9-3.9v-7c0-2.2-1.8-3.8-4-3.8h-2.5V11c6.7 1 12 7 12 14.1 0 7.2-5.2 13.1-12.1 14.1z" style="fill:#b10a32"/>
  <path d="M110.1 41.4c-.1 0-.3-.1-.4-.2-.1-.1-.2-.1-.2-.2-.1-.1-.2-.2-.3-.4l-.1-.2-.1-.2c0-.1-.1-.1-.1-.2-.3-.4-.6-.8-.9-1.1-.3-.3-.5-.6-.6-.8-.1-.1-.2-.2-.2-.3-.1-.2 1.6-1.6 1.6-1.6.3-.3.7-.6.9-.7.2-.1.3-.2.6-.2.1 0 .1-.1.1-.1v-.1h-2.2c-.2.1 0 .2 0 .2h.2c.1 0 .2 0 .3.1.1.1.1.4-.1.6-.1.2-.5.5-1.1 1.1l-.2.2-.3.3-.6.6c-.1 0-.1.2-.3.2 0 0-.1-.1-.1-.2v-2.5c0-.1.1-.2.1-.3.1-.1.2-.1.3-.1h.2c.1 0 .1-.1.1-.1l-.1-.1h-2.5c-.3.1 0 .3 0 .3.4 0 .5.1.7.2.1.1.2.4.2.6v4.2c0 .4-.1.6-.2.7l-.2.2c-.1.1-.2.1-.2.1-.2 0-.1.2-.1.2h2.7s.1-.1-.1-.2c0 0-.4 0-.6-.2-.1-.1-.2-.3-.2-.7v-1.2c0-.4.6-.8.7-.8 0 0 .1.1.2.3l.5.7.6.8c.3.4.5.7.7.9l.1.1.1.1h1.7-.6zM100.5 35.1c-.1 0-.1.1-.1.2l.1.1c.1.1.6.1.9.4.2.2.1.5.1.8v3.2c-.1 0-.2-.2-.2-.2l-4-4.4H95.5v.1c0 .1.1.1.1.1.2 0 .4.1.6.2.1.1.1.2.2.3.1.2.1.5.1.7v3.6c0 .5-.1.6-.2.8-.1.1-.5.4-.6.4-.1 0 0 .2 0 .2H98v-.2H97.7c-.1 0-.3-.1-.3-.1-.3-.2-.5-.5-.5-1.1v-3.3c0-.2 0-.3.2-.2l.5.5 1.1 1.2 1.8 1.9 1.3 1.4h.2v-5.2c0-.5.1-.8.2-1 0-.1.1-.1.2-.1 0 0 .1 0 .2-.1.1 0 .1 0 .2-.1h.1v-.1s0-.1-.1-.1c-.1.1-2.3.2-2.3.1zM126.1 36c0-.3 0-.8-.1-.9h-4.8c-.2.1.1.3.1.3.2 0 .4.1.5.1.1 0 .2.1.3.2.1.2.2.3.2.7v4.1c0 .4-.1.6-.2.7-.1.1-.5.2-.5.2-.1.1-.1.1-.1.2h2.8s.1-.2-.1-.2c-.4 0-.7-.2-.8-.3-.1-.1-.1-.3-.2-.5v-1.7c0-.1 0-.4.3-.4h.8c.2 0 .4.1.5.3.1.1.2.3.3.6 0 0 .1.2.2 0v-2.1c0-.3-.2-.2-.3-.1 0 .1 0 .1-.1.2 0 .1-.1.2-.1.2 0 .1-.1.1-.1.1-.1.1-.2.3-.4.3h-1.1V35.7c0-.1 0-.1.1-.1h1.7c.1 0 .4 0 .5.2 0 0 .1.1.1.2.1.1.1.3.1.4v.2c0 .1.1.1.1.1.1 0 .2-.2.1-.3v-.1l.2-.3zM155.5 35.2h-.9c-.1 0-.1.1-.1.1 0 .1.1.1.1.1.3.1.5.2.7.3 0 0 .1 0 .1.1s.1.1.1.2v3.3c0 .4-.1.5-.5.1-1.1-1.2-3.7-4.1-3.9-4.2H149.4c-.2 0 0 .2 0 .2.1 0 .1.1.2.1h.1c.1 0 .1 0 .2.1s.3.3.4.6l.1 4.1c0 .5-.1.7-.2.8-.2.2-.6.4-.6.4-.1 0-.1.1-.1.1v.1h2.5s0-.2-.2-.2c-.4 0-.5-.1-.6-.2-.2-.2-.3-.5-.3-1V37c0-.1 0-.1.1-.2h.1c.2.2 1 1.1 1.9 2.1l2.7 2.9s.2.1.2-.1v-5c0-.5.1-.8.2-1 .1-.1.4-.3.5-.3.2 0 .2-.2 0-.2h-1.1zM147.9 41.3c-.1-.1-.2-.3-.2-.7v-4.3c0-.2 0-.4.1-.5 0-.1 0-.1.1-.2l.1-.1s.1 0 .1-.1h.1c.1 0 .2-.1.2-.1s.2-.1 0-.2h-2.7c-.2.1 0 .2 0 .2.2 0 .4 0 .5.1.1 0 .2.1.3.2.1.1.1.4.1.7V41c0 .1-.1.2-.2.3-.1 0-.1.1-.2.1s-.2.1-.2.1-.2.1 0 .2h2.6s.3-.1 0-.2c-.4-.1-.6-.1-.7-.2zM144.5 41.4c-.2 0-.3-.1-.4-.2l-.1-.1c-.1-.1-.2-.2-.2-.6v-4.3c0-.4 0-.6.2-.7.1-.1.2-.2.4-.2s.1-.2.1-.2h-2.7s0 .1.1.1c.2 0 .3 0 .5.1.1 0 .2.1.3.1 0 0 .1.1.1.2s0 .2.1.3v1.6c0 .1 0 .2-.1.3-.1.1-.2.1-.3.1h-2.7c-.1 0-.2-.1-.3-.2V36.1c0-.4.1-.6.2-.7.1-.1.3-.2.5-.2l.1-.1V35s0-.1-.1-.1H137.6c-.5.1 0 .2 0 .2H137.9c.2 0 .3.1.3.2.1.1.1.3.1.7v4.1c0 .4-.1.6-.2.7-.1.1-.5.4-.5.4-.1 0-.1.1-.1.1l.1.1h2.9l.1-.1s0-.1-.2-.1c-.4 0-.6-.1-.7-.2l-.2-.2c-.1-.1-.1-.3-.1-.5v-1.7c0-.3.1-.4.2-.4H142.5c.2 0 .3.2.3.3v1.9c0 .2-.1.3-.1.4-.1.2-.4.3-.4.3-.4.1 0 .3 0 .3H144.8c0 .2-.1 0-.3 0zM135.9 40l-.2.2c-.2.2-.5.5-.7.6-.4.2-.7.4-1.2.4-.7 0-1.2-.2-1.7-.7-.5-.5-.9-1.5-.9-2.4 0-.7.2-1.4.5-1.9.4-.5.9-.8 1.7-.8.7 0 1.3.4 1.7.8.1.1.3.4.4.6l.3.6c0 .1.1.1.1.1h.1l-.1-1.8v-.1s0-.1-.1-.1 0 0-.1.1v.1s0 .1-.1.1l-.1.1h-.1c-.1 0-.1 0-.2-.1-.1 0-.2-.1-.4-.2h-.1c-.3-.2-.9-.3-1.3-.3-1 0-1.8.3-2.5 1-.6.6-.9 1.4-.9 2.4 0 .9.3 1.9.8 2.4.9.8 1.5.9 2.6.9.4 0 1.3-.3 1.7-.6.5-.4 1-1 1-1.1.1-.3 0-.5-.2-.3zM163.8 16.2h-.1c-.2 0-.3-.1-.5 0h-.1c-.2 0-.5 0-.8.2h-.5c-.2 0-.4.1-.6.1-.3.1-2.5.7-3.2 1-.1.1-.3.1-.4.2l-.3.1c-.3.2-.7.4-1 .5l-.3.2c-.3.2-.6.3-.8.4-.6.3-.9.4-1.2.4-.1 0-.2 0-.3.1 0 0-.1 0-.1.1-.2.1-.6.5-.4.8.1.2.3.2.5.3h.1s.1-.1.2-.1l.1-.1.1-.1c.2-.1.5-.3.9-.4.3-.1.5-.3.7-.4.6-.3 1-.7 1.8-.9H157.9c.1 0 .1.1.1.1-.1.2-.1.5-.1.8v1.3c-.1.7-.1.9-.1 1.9v1.8c0 .1-.1.3-.2.5s-.3.5-.4.5c-.3.1-.5 0-.9-.1l-.2-.1-.4-.1c-.2-.1-.5-.1-.7-.2h-.1c-.2-.1-.5-.2-.8-.4-.2-.1-.3-.5-.6-.4-.2.1-.1.2-.1.3 0 0 0 .1.1.1l.4.4c.1.1.3.2.5.4.2.1.3.2.5.3.3.2.6.4.8.5.1.1.2.2.3.2.1.1.2.1.3.2l.3.3c.1.1.1.2.2.3l.1.2c.1.3.2.7.5.9.3.2.6.2.9.1.2-.1.9-.8 1.4-1.3.1-.1.2-.7.2-1.1-.1-.2-.1-.9-.2-1.3l-.1-.7c-.1-.8-.3-1.9-.4-2.4v-1.2c0-.5.1-1 .1-1.1 0-.2.2-.3.1-.4-.1-.1-.2-.2-.4-.3-.1-.1-.3-.2-.4-.4-.1-.1-.1-.2.1-.3.2-.1 1.2-.5 1.7-.6.7-.1 1.6-.3 2-.4h.2c.1 0 .2.1.3 0l.2-.2.3-.3c.2-.2.5-.5.6-.5.1-.1.2-.1.1-.2-.1.6-.2.5-.3.5zM155 14.6c-.1.2-.1.5 0 .6v.1c.1.3.2.7.4.8.2.1.4-.1.5-.2l.1-.1c.4-.4 1.3-.9 1.8-1.1.5-.2 1.6-.7 2-.6.1 0 .3.2.3.1h.1l.1-.1c.1 0 .1-.1.2-.1s.2-.1.3-.1h.5c.2 0 .3-.1.4-.2 0-.1.1-.1.1-.2v-.1c0-.1 0-.2.1-.2.2-.1.2-.4.4-.5.2-.1.2-.2 0-.2-.4 0-1.3.2-2.2.4l-.7.2c-.1 0-.2.1-.4.1-.3.1-.6.2-.9.4-.1.1-.3.1-.4.2l-.2.1c-.3.2-.6.3-.7.3-.3.1-.5.1-.8.1h-.1l-.1-.1c0-.1-.1-.1-.2-.1h-.2c-.1.1-.2.1-.2.2-.1.1-.1.2-.2.3zM149.6 26.1l.1.1c.1.1.2.1.3.2.1.1.2.1.4.2l.4.4c.3.1.4-.1.5-.3.1-.5.5-1.3.4-1.7 0-.3-.1-.7-.1-1.1-.1-.4-.2-.8-.3-1-.3-.4-1.1-1-1.4-1.1-.1 0-.2-.1-.2-.2s0-.2.1-.3c.1-.1.3-.2.4-.4.2-.1.3-.3.5-.5l.5-.5c.3-.3.4-.7.6-.8.2-.2.3-.3.4-.5.1-.1.2-.2.2-.3.2-.1.3-.4.1-.7-.2-.4-.7-.7-1.1-.9-.7-.3-1.2-.2-1.4-.4-.2-.2 0-.3.1-.4.2-.1.7-.7 1-.9l.6-.3c.2-.1.4-.2.5-.3.3-.2.6-.4.9-.5.1 0 .2-.1.4-.1.3-.1.6-.1.7-.3 0 0 0-.1.1-.1v-.1l.1-.2V13c0-.1.1-.2.2-.3.1-.1.3-.4.3-.5 0-.1 0-.1.1-.2 0-.1.1-.1.1-.1v-.1s0-.1.1-.1V10.8c0-.5-.1-.8-.2-1 0-.3-.1-.5-.1-.6 0-.1-.1-.2-.1-.3-.1-.1-.1-.3-.2-.4-.3-.6-.6-1.3-.8-1.3-.3-.1-.6-.1-1 .1-.6.3-.6.6-.7.8-.6.6-2.1 2.9-2.9 3.8l-.2.3c-.8.9-1.8 2-2.2 2.4-.1.1-.2.1-.2.2l-.3.3-.2.2c-.2.2-.2.5-.3.7-.1.3.1.4.3.6.1.1.2.1.2.2h.1s.1.1.2.1h.5c.1 0 .1.1.2.1.1.1.1.1.2.1h.2c.2-.1.5-.1.8.1.1.1.1.1.1.2s-.1.2-.2.3c0 0 0 .1-.1.1v.1c-.1.3-.2.5-.4.6-.4.3-1 .9-1.3 1.3-.7.7-.9 1.1-1.6 1.7-.1.1-.2.2-.2.3 0 .1 0 .2-.1.4-.2.5.3 1.2.5 1.4.3.3.2.2.6.3.1 0 .2.1.2.1.1 0 .1.1.2.1h.2c.1 0 .3-.1.5 0h.1c.1-.1.1-.2.1-.3 0-.2.1-.5.3-.7.1-.1.2-.2.4-.3.1 0 .2-.1.2-.1.1 0 .2-.1.3-.1.3-.1.9-.5 1-.4.3.1.1.8.1 1-.1.3-.1.5-.2.9v1.3c0 .1 0 .2.1.3.1.1.2.2.3.2v.2zM109.1 13.2c.1.1.2.3.3.4 0 .1.1.1.1.2v.1h.2s.1 0 .1.1l.1.1h1s.1 0 .1-.1v-.1c0-.1 0-.1.1-.2v-.1l.1-.1.1-.1.1-.1c.2-.2.2-.5.3-.6 0-.2 0-.5-.1-.6-.1-.2-.5-.3-1-.6l-.1-.1c-.2-.1-.3-.2-.5-.2h-.7c-.1 0-.1.1-.2.2v.1c-.1.1.1.3.1.4V12.2c0 .1 0 .2.1.3-.1.4-.3.7-.2.7z"/>
  <path d="M114.9 24.8c.1-.1.1-.4.2-.6 0-.2 0-.3.1-.5v-.4c.1-.4.1-2.4.2-3.2 0-.5.1-3.6 0-4.8-.1-1.8-.8-4.1-1.1-4.9-.1-.2-.2-.5-.4-.8-.4-.7-1-1.6-1.5-1.8 0 0-.1 0-.1-.1-.2-.1-.5-.3-.8-.2H110.8c-.2 0-.4.1-.5.2h-1.4c-.1 0-.3.1-.5.1-.3.2-.4.2-.5.2-.7.2-2.3.9-3.1 1.9-.2.3-.4.5-.6.8-.1.2-.3.3-.3.5 0 .1-.1.1-.1.1-.1.2-.1.3-.1.3.1.2.3.6.3.9 0 .1.3.2.4.2h.6c.1-.1.1-.2 0-.4v-.1c-.1-.2-.2-.6 0-1 0-.1.1-.2.1-.3.1-.1.1-.3.3-.4l.2-.2c.2-.2.5-.5.7-.6.3-.2 1.1-.5 1.8-.8.9-.3 1.8-.4 2.1-.4h.1c.3 0 .8 0 1.2.2.4.2 1.5 1.3 1.9 2.3.3.7.8 3.6.8 4.1 0 .2.1.5.1.8v.2c0 .2.1.4 0 .6v.2s.1.1.1.2V20.4c0 .1 0 .2-.1.3v.7c0 .1.1.2 0 .4v.4c-.1.2 0 .8-.1 1.1-.1.2 0 .3 0 .4v.4c0 .1 0 .1-.1.2 0 .1 0 .1-.1.2 0 .1-.1.2-.2.3l-.5.5c-.1 0-.1.1-.2.2l-.1.1-.1.1-.1.1h-.1c-.1 0-.1 0-.3.1h-.4c-.1 0-.3 0-.4-.1-.1 0-.1-.1-.2-.1H111.1c-.2 0-.4-.2-.8-.2-.2 0-.7-.1-1.3-.1-.4 0-.8-.1-1-.2-.1-.1 0-.2.1-.3.2-.1.4 0 .7-.2h.7c.1 0 .1 0 .2-.1h1c.1 0 .2 0 .3.1.3.1.4.1.6 0 .2 0 .2-.3.4-.4.1-.1.2-.3.3-.7 0-.1.2-.3.1-.5 0 0 0-.1-.1-.1 0-.1-.1-.1-.2-.1-.1-.1-.2-.1-.2 0-.2.1-.6 0-.8.1-.1 0-.2.1-.3.2-.1.1-.1.1-.2.1s-.4.1-.6.1c-.2 0-.3.1-.4.1-.3.1-.6.2-.7.2h-.4c-.2.1-.2.1-.2.2H107.6c-.1 0-.2.1-.2.1H106.8c-.1 0-.2.1-.3.1H105.9c-.1 0-.1 0-.2.1-.2 0-.3.1-.4 0-.1-.1 0-.2.1-.3l.1-.1.2-.2.1-.1.1-.1c.1-.1.5-.3.6-.4.1 0 .1-.1.2-.2s.1-.2.2-.2c.1-.1.6-.5.7-.6l.4-.4.1-.1c.1-.1.2-.1.2-.2 0 0 .1 0 .1-.1.1 0 .1-.1.2-.2s.2-.2.2-.3c.1-.1.3.1.3.1.1.1.6.8.8 1 .1.1.2.2.4.3.1.1.2.1.2.1.1 0 .2.1.3.1H111.1c.1 0 .1-.1.1-.1v-.1l.1-.1c.2-.3.5-.8.6-1.2 0-.1.1-.4.2-.7.1-.5.2-1 .2-1.1 0-.1-.1-.3-.1-.4 0-.1-.1-.1-.2 0v.4c0 .1-.3.9-.4 1.3-.1.3-.4.8-.7 1.1-.1.1-.2.1-.4.1s-.6-.2-.8-.4c-.1-.1-.4-.5-.5-.7 0-.1.1-.2.1-.3l.2-.2c.1-.2.3-.4.5-.6.2-.3.5-.6.6-.7l.4-.6.3-.5.2-.2c.1-.1.2-.2.2-.3l.1-.1V16.2s-.1 0-.1-.1v-.2c0-.1-.1-.1-.2-.1-.1.1-.4.5-.5.7-.1.2-.6 1-.8 1.3-.2.2-.4.5-.5.8l-.2.3c-.1.1-.2.2-.2.3v.1l-.1.1c-.1.1-.2 0-.2 0-.1-.1 0-.2 0-.3 0-.1.2-.3.3-.5l.1-.1c.1-.1.1-.2.1-.4v-.6c0-.1 0-.2-.1-.4l-.2-.2-.1-.1-.1-.1-.1-.1c-.1-.1-.1-.1-.1-.2s-.1-.2-.1-.2h-.1s0-.1-.1-.1c-.1-.1 0-.1-.2-.3l-.1-.1s-.1-.1-.1-.2-.1-.1-.1-.1l-.1-.1c-.1-.2-.1-.4 0-.6v-.1l.1-.1h.1v-.1c0-.1 0-.1.1-.2l.3-.3v-.1c0-.1.1-.2.1-.3 0 0 0-.1.1-.1 0 0 0-.1.1-.1.1-.2 0-.3.2-.4.1-.1.1-.1.1-.2s0-.1-.1-.1v-.1c0-.1-.1-.2-.2-.2h-.4c-.3.1-1 .4-1.2.5-.1.1-.2.1-.3.1-.1 0-.2-.2-.2-.3 0-.1-.1-.3-.2-.5-.1-.1-.3-.5-.4-.7 0-.1-.1-.1-.1-.2l-.1-.1c-.1 0-.1.1-.1.2v.1s.1.3.1.5c0 .1.1.2.1.3v.2c0 .3.2.6.2.8v.2s0 .1-.1.1l-.2.2-.2.2c-.1.2-.2.3-.3.5v.2c0 .1 0 .1.1.2s.2.1.3.1h.1c.3 0 .6-.4.7-.4h.1v.2l.1.1.1.1V15.2l.1.1h.2c0 .1 0 .2-.1.4 0 .1-.3.4-.4.5l-.2.2c0 .1-.1.1-.1.2v.1c0 .1-.1.1-.1.1h-.1v.1c0 .1 0 .2-.1.4V17.6c0 .1 0 .5.2.5.1 0 .1-.1.1-.1s0-.1.1-.1c0 0 .1 0 .1-.1.1 0 .2-.1.3-.2.1-.1.1-.1.1 0l.1.1v.2s-.2.3-.4.4c0 0-.1.1-.1.2l-.1.2-.1.1c-.1 0-.1.1-.2.2l-.1.1c-.1.1-.2.2-.2.3l-.2.2-.2.2c-.1.2-.3.4-.4.7-.1.2-.1.3-.2.4-.1.1-.1.2-.1.3V21.8c-.1.3-.1.3 0 .4.1.1.2.1.3 0 .1 0 .5-.2.8-.4h.1l.2-.1.4-.2c.1-.1.3-.2.4-.2.1-.1.4-.2.6-.4.2-.1.4-.3.6-.4.2-.1.5-.5.8-.7.1-.1.2 0 .2.1v.1c0 .1 0 .1-.1.2l-1 1c-.1.1-.4.4-.6.7l-.4.4c-.2.2-.5.4-.8.7-.3.3-.7.6-.8.7l-.1.1-.1.1c-.1.1-.2.1-.2.2-.1 0-.1.1-.2.1h-1c-.1-.1-.1-.1-.2.1 0 0 0 .1-.1.1v.1c0 .1 0 .1-.2.1s-.2-.2-.2-.4c-.1-.2 0-.8 0-1.2 0-.3-.1-.4-.1-.4V22h-.1s-.1.1-.1.2v.1c0 .1-.1.1-.1.2-.1 0-.1-.1-.1-.2v-.2c0-.2-.1-1.2 0-1.5v-2.1c.1-.2-.1-.3 0-.4.1-.1 0-.3.1-.5v-1.1c0-.1.1-.1.1-.2V15.7c0-.1.1-.2.1-.4V14.7c0-.1.1-.7.2-.9.1-.1.2-.8.2-1 0-.1 0-.4-.1-.5h-.2s0 .1-.1.1c0 .2-.2.3-.3.5 0 .1-.1.1-.1.2v.1c-.1.3-.2 1.2-.4 1.6-.1.1-.2 1.2-.2 1.6-.1.4-.2 1.5-.2 1.6 0 .2.1.3 0 .4-.1.2-.1.3-.1.5v.5c0 .2-.1.3-.1.4V20.1c-.1.2-.1.4-.1.5v.4c-.1.2 0 .2 0 .3 0 .1.1.1 0 .2-.1.2-.1.1 0 .7 0 .6.2 1.7.3 2.2 0 .1 0 .4.1.7v.7c0 .4.7 1 .9 1.1.2.1.4 0 .5 0h.2c.2 0 .2-.3.2-.5-.1-.2-.4-.3-.3-.5.1-.2 0-.1 0-.3v-.2c0-.2-.1-.2 0-.3 0-.1 0-.1.1-.1s.2 0 .3.1c0 .1 1.3.2 2.1.3 1.1.1 3 .2 3.6.6.1 0 .2.1.3.1.1.1.3.1.4.2h.1c.6.3 1.3.6 1.7.9.3.3.5.6.6.6.1 0 .4-.3.7-.6l.5-.5.3-.3c-.3-.5.5-1.2.8-1.6zm-7.4-11.9c.3-.1.1-.1.2.1v.1s-.1 0-.1.2c-.1.3-.1.2-.3.4-.2.1-.2 0-.3-.2V13.2c-.1-.3.2-.2.5-.3zm.4 5.5-.2.2c-.1.1-.2.1-.2.2h-.2c-.1.1-.3.1-.4.3-.3.3-.5.2-.7.4-.1 0-.1.1-.2.1H105.7s-.1 0-.1-.1c-.2-.1-.2-.2-.1-.4.2-.2.1-.1.3-.2v-.2h.2s.1 0 .2-.2c.1-.1.1-.1.1-.2v-.2c.1-.1.2-.3.4-.4.1 0 .1-.1.2-.1l.2-.2.1-.1.1-.1h.1l.1.1c0 .1.1.1.1.2 0 0 0 .1.1.2 0 .1.1.2.1.2v.2c.1.2.1.2.1.3zm.6-.5s-.1 0-.1.1l-.1.1s0-.1-.1-.1c-.1-.1-.1-.2-.1-.3 0-.1 0-.2-.1-.3-.2-.2-.2-.2-.1-.4.1 0 .1 0 .2-.1h.1c0 .1.1.1.2.2s.1.1.1.2v.1c0 .1 0 .1.1.2 0 .1.1.1.1.1v.1c-.1 0-.2 0-.2.1zM163.8 41.5c-.2 0-.4-.1-.5-.2-.1-.1-.2-.3-.4-.7l-2.4-5.6h-.2s-1.1 2.5-1.9 4.3c-.4 1-.8 1.8-.8 1.8-.1.1-.2.2-.4.2-.1 0-.1.1-.1.1-.1.1-.1.2-.1.2h2.3v-.2c-.1 0-.6-.2-.8-.3-.1-.1-.2-.4-.1-.6.1-.1.3-1.1.5-1.2.2-.1.7-.1 1.2-.1h.4c.3 0 .6 0 .7.1.1.1.4.6.5.8.1.3.2.6.1.7-.1.3-.4.4-.6.4-.2.1 0 .2 0 .2h2.7c0 .2 0 .1-.1.1zm-2.9-2.5h-1.4c-.2 0-.3 0-.3-.1-.1-.1.1-.7.4-1.2.2-.4.4-1 .5-1.1.1 0 .3.4.4.8 0 .1.1.2.1.3.2.5.5 1 .4 1.1 0 .1 0 .1-.1.2zM94.6 41.2c-.1-.1-.2-.3-.3-.7l-2.4-5.6h-.2s-.4.9-.9 2c-.3.7-.7 1.5-1 2.2-.5 1-.8 1.8-.9 1.9-.1.1-.2.2-.4.2-.1 0-.1.1-.1.1-.1.1-.1.2-.1.2h2.4v-.2c-.1 0-.6-.2-.8-.3-.1 0-.1-.1-.1-.3v-.3c.1-.1.3-1.1.5-1.2.2-.1.7-.1 1.2-.1s1 0 1.1.1c.1.1.4.6.5.8.1.3.2.6.1.7-.1.3-.4.5-.6.5-.2.1-.1.2-.1.2l2.7-.1v-.1s0-.1-.1-.1c-.2.3-.5.2-.5.1zm-2.3-2.3c-.1.1-.5 0-1 .1h-.5c-.2 0-.4 0-.4-.1-.1-.1.1-.7.4-1.2.2-.4.4-1 .5-1.1 0 0 .1 0 .1.1.1.1.1.3.2.5s.2.4.2.5l.2.3c.2.4.3.8.3.9zM86.3 38l.1-.1c.3-.2.9-.5.9-1.3 0-.6-.4-1.1-.8-1.2-.3-.2-.7-.2-1.2-.3H82v.3h.2c.1 0 .3 0 .5.2s.2.3.2.6v4.4c0 .4 0 .5-.2.6-.1.1-.2.1-.4.2-.1 0-.2.1-.3.1v.2h3.1c.3 0 .6 0 .8-.1.2 0 .4-.1.6-.1.6-.2 1.1-.8 1.1-1.9.1-1.2-.8-1.5-1.3-1.6zM84 35.9c0-.5.3-.5.8-.5h.2c.1 0 .1 0 .2.1.2.1.3.1.4.2.3.2.5.6.5 1.1 0 1.1-.4 1.2-1.2 1.2 0 0-1 .1-.9-.3v-1.8zm2.5 4.3c-.1.5-.5 1.1-1.4 1 0 0-.3 0-.6-.1-.2-.1-.5-.3-.5-.7v-1.6c0-.6.3-.6.8-.6h.2c.4 0 .9.2 1.1.4.4.5.6.9.4 1.6zM117.1 35.1c-.9 0-1.8.3-2.4.8-.7.6-1 1.4-1 2.4s.2 1.8.8 2.5c.2.2.4.3.6.5l.1.1c.1.1.2.1.3.1.3.1.5.2.8.2h.5c.9 0 1.7-.3 2.3-.9.7-.6 1-1.5 1-2.6 0-1-.3-1.8-1-2.5-.4-.5-1.1-.6-2-.6zm1.6 5.5c-.4.5-.9.8-1.4.8-.7 0-1.1-.1-1.7-.7-.3-.3-.8-1.3-.8-2.4 0-1 .2-1.8.6-2.3.4-.4 1-.6 1.6-.6.6 0 1.1.1 1.5.7.1.1.2.2.2.3.1.1.1.2.2.3.2.4.3 1 .3 1.6 0 1.2-.1 1.9-.5 2.3zM140 25.5c.8-.2 1.6-.4 1.7-.5 0-.1-.2-.1-.3-.2l-.3-.3c-.2-.1-.5-.2-.9-.3-.4-.1-.7-.2-.9-.3 0 0-.2 0-.4-.1-.2 0-.5-.1-.5-.1 0-.2-.1-.2-.2-.1H137.9c-.2-.1-.4-.1-.6-.2-.5-.2-1.1-.3-1.2-.4-.1-.1-.1-.3-.1-.4.2-.3.5-.8.6-1 .2-.4.7-1 1-1.2.1-.1.2-.1.4-.2.1-.1.3-.2.4-.2.2-.2.3-.6.2-.6-.3-.1-.8 0-1 .3-.4.4-1 .9-1.2 1l-.2.1c-.4.2-1 .5-1.2.5h-1.7c-.2 0-.4 0-.5.1h-.2c-.3.1-.4 0-.5-.1h-.1c-.2-.1-.7-.1-.9 0-.1 0-.1.1-.2.2l-.1.1h-.1s-.1-.1-.1-.2c0-.3.1-.7.1-.9 0-.1 0-.2.1-.3l.1-.3.1-.3c.1-.2.1-.4.1-.5V18.5l.1-.1.1-.1.1-.1c0-.3.2-.7.3-.7.1-.1.3 0 .4 0 .1 0 .1-.2.2-.3.1 0 .3-.2.4-.1.1 0 .1.1.1.2s0 .2-.1.2c-.3.3-.5.8-.7 1.1l-.2.4c-.2.3-.2.3-.3.4 0 .1-.1.1-.1.3-.1.1-.1.4 0 .7v.6c0 .1.1.2.2.1.4-.4 1.8-1 2.1-1.2.1 0 .2-.1.3-.1.2-.1.5-.2.5-.3.1-.1.1-.2.1-.4v-.2c-.2-.4-.4-.6-.5-.8l-.2-.2c-.1-.1-.1-.3 0-.4.1-.1.3-.6.5-1l.1-.3c.1-.3.4-.8.4-.9.1-.3-.1-.4.1-.7.1-.1.1-.5.2-.9.1-.3.2-.7.2-.9.1-.2.2-.6.3-.9l.2-.6c.1-.2.1-.3.2-.4.1-.2.2-.4.2-.5 0-.2.1-.3.1-.4 0-.1 0-.2-.1-.3-.1-.2-.2-.2-.4-.2-.1 0-.2.2-.4.3-.1.1-.3.3-.5.4-.1.1-.2.2-.4.3l-.9.6c-.2.2-.4.3-.7.6-.8.8-.4.6-.7.7 0 0-.1 0-.2-.1l-.1-.1-.1-.1c-.2-.1-.3 0-.3.1V12.5c-.2.3-1.1 2.1-1.3 3.2-.1.6-.3 1.5-.4 2.4l-.1.8c0 .3-.1.5-.1.7-.1.4-.1.8-.2 1.2 0 .3-.1.6-.1.8 0 .6-.1 1.1-.2 1.3-.4.5-1.3 1.5-2.1 2.1-.3.3-.8.6-1.2.8-.5.3-.9.5-1 .4-.1-.1-.1-.1 0-.3.1-.1.2-.2.4-.2h.4c.1-.1 0-.6.2-.7.1-.1.3-.2.5-.4.5-.5 1.3-1.1 1.5-1.4.1-.2.3-.3.4-.5l.3-.3c.2-.2.3-.3.2-.4-.2-.3-.5-.6-.7-.6h-.7c-.1 0-.2 0-.4.1-.2 0-.4.1-.4 0 0-.2.2-.4.5-.5l.1-.1.1-.1c.1-.1.1-.3.1-.4 0-.2-.1-.6-.2-.8 0-.1 0-.2-.1-.2 0-.2-.1-.3-.1-.3-.2 0 0 .4-.1.5-.2.1-.5.3-.6.4l-.1.1-.1.1c-.1 0-.2 0-.2-.1.1-.3-.1-.9.1-1 .1-.1.2-.2.2-.3l.1-.1.3-.3c.1-.1.2-.1.3-.2.2-.1.3-.1.3-.2v-.2c0-.2 0-.3-.1-.4-.2-.1-.2-.2-.3-.3-.1-.1-.1-.2-.2-.3 0-.1-.1-.2-.1-.2s-.1-.1-.3-.1c-.2 0-.6.3-.9.5l-.1.1-.1.1c-.3.2-.6.4-.7.7 0 .1.2.4.3.6l.1.1.1.1c.1.1.2.3 0 .4-.1.1-.3.3-.4.5-.3.3-.6.8-.7 1.1-.1.2-.1.3-.1.4 0 .3.3 1 .4 1.4.1.1.2.1.3.1.1-.1.3.1.1.2-.2.2-.5.4-.8.6-.1.1-.4.3-.6.6-.2.1-.3.3-.4.3 0 0-.1.1-.2.1-.1.1-.2.1-.4.2-.1.1-.2.1-.2.1-.1.1-.2.3-.2.4 0 0 .1.1.1.2s.1.1.1.2c.1.1.1.2.2.3h.3c.1 0 .1-.1.2-.1s.1-.1.2-.2l.4-.4.3-.3s.1.1.2 0v-.2c0-.1 0-.1.1-.2s.2-.2.3-.4c.2-.2.5-.4.6-.6.1-.1.2.1.2.2s-.1.2-.1.3c0 .1 0 .1.1.2v.1c0 .1-.1.2-.1.2-.2.2-.6.2-.9.3h-.2s.3.2.7.2c.1 0 .3.2.2.2-.3.3-.8.9-1.1 1.1-.1 0-.1.1-.1.1 0 .1-.1.1-.1.2v.4c.1.3.2.8.4.7.4-.1.9-.3 1.1-.4.1 0 .2-.1.3-.1l.2-.1c.1 0 .1-.1.2-.1.3-.1.9-.2 1.1-.4.1-.1.3-.2.5-.3.2-.1.3-.2.4-.3l.2-.2c.1-.1.1-.2.2-.2.2-.1.4-.3.5-.4l.2-.2c0-.1.1-.1.1-.1s0-.1.1-.1c.1-.1.2-.1.3 0 .1.1.1.3 0 .6v.8c0 .3 0 .5.1.7.1.2.3.5.6.6.2.1.3.2.5.2.4.1.8.2 1.1.1.2-.1.7-.4 1-.6.1-.1.3-.2.4-.4.1-.1.2-.1.2-.2.2-.2.5-.2.7-.4 0 0 0-.1.1-.1l.4-.4.3-.3c.1-.1.1-.2.2-.2l.1-.1.1-.1c.1-.1.1-.1.3-.1.2 0 1.2.8 1.7 1 .6.2 1.3.3 1.9.3.3-.4.7-.5 1.2-.6zm-5.9-7.4c0 .1 0 .2-.1.3-.1.1-.4.3-.7.4-.2.1-.4.1-.5.2h-.1c-.1 0-.2.1-.2-.1s.1-.3.2-.4c.1-.1.1-.1.1-.2s0-.2.1-.3c0-.1.1-.2.2-.2.1-.1.2 0 .2.1s.1.1.2.1l.2-.2c.1-.1.2-.1.2.2.2-.1.2 0 .2.1zm-1.6-3.8c0-.1.1-.1.1-.1.1-.2.2-.6.2-.8 0-.5.5-1.1.9-1.5.4-.5 1.9-1.4 1.9-1.4.1.2-.1 1.1-.4 1.8-.1.4-.2.7-.3 1-.1.2-.1.4-.2.7-.1.3-.3.2-.4.3v.1l-.3.4c-.3.3-1 .7-1.2.9-.1.1-.3.1-.3-.2V14.9c-.2-.3-.1-.5 0-.6zm-6.7 8.4v-.3c0-.1.2-.2.4-.3.1 0 .2-.1.3-.1l.1-.1c.1 0 .2-.1.2-.1.1 0 .1-.1.2-.1s.2-.1.3-.1c.1 0 .2.1.2.2-.1.2-.6.7-1.1 1.2-.2.2-.3.3-.4.5-.1.1-.2-.2-.2-.4v-.4zm-1.1-2.1c-.1-.1 0-.1 0-.2l.1-.1c.1-.1 0-.2.2-.2.1 0 .2.2.1.4-.1.1-.3.2-.4.1zm9.7 3.6c-.1.1-.2.2-.3.4-.2.2-.7.4-1.2.7-.5.3-.9.5-1 .6-.3.2-.8.1-.9-.1-.1-.1-.3-.3-.3-.6-.1-.4-.1-1.3-.1-1.6v-.1c0-.4.1-.9.2-1.3.1-.1.4.3.7.3l.9.3c.2.1.4.1.6.2.2.1.5.3.6.4.1.1.2.1.3.2.2.1.4.2.5.3.1.1.1.2 0 .3zm1.1-1.7c-.2-.1-.4-.2-.5-.2-.2-.1 0-.4.2-.4s.7-.2.9-.4c.1-.1.3.1.2.2-.1.2-.4.5-.5.7-.1.1-.2.1-.3.1zM128.6 11.8c-.3-.1-1 0-1.1.2-.1.2 0 .5 0 .7 0 .2.1.3.1.4.1.2-.2.7-.4.9-.1.1-.1.3 0 .3s.3 0 .4-.1c.1-.1.1-.1.3-.2.1-.1.2-.2.4-.2.2-.1.4-.2.5-.2h.2c.2 0 .4-.1.4-.2.1-.1-.1-.5-.1-.6-.2-.4-.5-.9-.7-1z"/>
  <path d="M121.4 21.9v-.2c0-.2 0-.4.1-.7.1-.2.4-.8.6-1.3l.1-.2.3-.6.1-.3c.1-.2.3-.6.4-1l.2-.5c.1-.3.3-.6.3-.7.3-.7 1.3-2.3 1.5-2.8.4-.7.9-1.5 1.3-1.9l.4-.4c.2-.1.3-.2.4-.3.2-.1.5-.2.7-.2.1 0 .2 0 .3-.1.2-.1.4-.3.5-.4.1-.2.1-.5 0-.6l-.1-.1s0-.1-.1-.1l-.1-.1c-.1-.1-.2-.3-.3-.4-.1-.1-.1-.3-.3-.3-.1 0-.1 0-.2-.1l-.1-.1c-.1 0-.1-.1-.2-.1-.1-.1-.1-.1-.2-.1-.2 0-1.2 1.6-1.4 2-.3.4-.7 1.4-.8 1.5-.2.2-.4.7-.6 1.3-.3.6-.6 1.4-.7 1.8-.1.2-.1.3-.1.3-.3.5-.7 1.4-.8 1.6-.1.2-.4.7-.6 1.3l-.5 1c-.2.4-.6 1-.7 1.1-.1 0-.3 0-.3.1 0 0-.1 0-.1.1-.1.1-.1.1-.1.3 0 .1-.1.3-.1.5v.4c0 .1.1.2.1.3l.3.3c.2.1.4.1.5 0 .3-.2.3-.2.3-.3zM96 11.3c0-.1-.5-.1-.8-.1H95c-.6 0-1.3 0-1.8.1s-.9.3-1.2.4c-.2.1-.3.1-.4.1-.2 0-.1-.4-.2-.7 0-.1-.1-.4-.2-.6 0-.1-.1-.2-.2-.3-.3-.4-.7-.9-.9-1.1-.1-.1-.2-.3-.4-.4-.1-.2-.3-.3-.4-.4-.2-.2-.5-.3-.6-.4-.3-.3-.6-.2-.7-.1-.2.2-.6.7-.6 1.1-.1.5 0 .5 0 .8 0 .4 0 .8-.1 1.3v.7c0 .2 0 .6-.1.7v.7c0 .1-.1.3-.1.4 0 0 .1.1.1.3-.1.2-.1.3-.1.4 0 .1-.7.5-.9.7-.3.2-.8.6-.9.7-.1.1-.4.2-.6.4l-.5.3c-.2.1-.4.3-.5.4h-.1c-.1 0-.3-.4-.5-.5-.1-.1-.6-.5-.9-.9-.1-.1-.2-.3-.4-.5-.2-.3-.3-.5-.5-.5-.2.1-.3.4-.3.7-.1.3-.1 1.6.3 2.2.2.5.8 2.9 2.2 3.8.5.3 1 .5 1.4.7.4.1.7.2.8.2.1 0 .1-.2.2-.3v-.4c0-.2.2-.3.3-.3.1 0 .2 0 .2.1.1.1.1.2.1.3 0 .5.2 2.8.3 3.7.1.5.1.9.2 1.2 0 .2.1.5.1.8 0 .1 0 .4.1.6.1.5.1 1.2.2 1.5.1.2.5.6.7.6.1 0 .3-.2.3-.3 0-.1-.3-.2-.4-.3-.1-.1-.1-.3-.2-.5 0-.1-.1-.1-.1-.2-.1-.1-.1-.1-.2-.3-.1-.3-.2-.7-.2-.9v-.5c0-.1-.1-.4-.1-.6 0-.2-.1-.4-.1-.5v-.9c0-.1 0-.2.1-.2h.1c.1 0 .2.1.2.2v.2c0 .2.1.4.1.6v1c0 .3.1.6 0 .7 0 .1 0 .3.1.4.1.1.1.2.1.3v.2c0 .1 0 .2.1.4.2.3.2.2.3.4 0 .1.2.1.2.2 0 .2.1.3.2.3s.2-.2.3-.4v-.1h.4c.1 0 .1-.2.2-.2h.1c.1 0 .3-.1.3-.2v-.1c.1-.1.1-.3.1-.7 0-.3-.1-.4-.1-.6v-.9c0-.1.1-.3.1-.4 0-.1.1-.3.1-.3 0-.1 0-.2.1-.2l.1-.1s0-.2.1-.4c0-.2.1-.4.1-.5 0 0 0-.1.1-.1.1-.1.1-.2.2-.3 0-.1.1-.3.1-.5 0-.3.1-.5.1-.6.2-.7.1-.4.4-1 .1-.2.1-.4.1-.6 0-.3 0-.6.2-.9.2-.3.1-.7.3-.9.1-.1.3-.1.4-.1.1 0 .2 0 .3-.1.4-.2.3-.5.4-.8.1-.3.4-.5.4-.7 0-.2-.2-.2-.4-.2-.1 0-.2 0-.3-.1-.1-.1.3-.6.7-1.1.2-.2.4-.4.5-.6.3-.4.4-.6.6-.8.1-.1.2-.3.3-.4.2-.3.4-.4.5-.7.1-.1.2-.3.3-.5.2-1.2.3-1.8.3-2zm-9.3 6v2c-.1.2-.6.6-.8.7-.2.1-.1-.2-.3-.4-.2-.1-.3-.3-.4-.5 0-.1-.1-.1-.1-.2-.1-.1-.1-.2-.1-.3 0-.1-.1-.2-.2-.3-.2-.2-.2-.4-.1-.6 0-.1.4-.3.6-.4.1 0 .1-.1.2-.2s.2-.2.3-.2c.3-.3.3-.2.6-.4.1-.1.3-.2.3.1.1.1.1.4 0 .7zm2.4 10.8c-.1 0-.3-.1-.4-.2-.1-.1-.2-.5-.2-.7 0-.2 0-.5.1-.6V26c0-.2.3-.5.3-.7v-.5c0-.3.1-.4.2-.4h.1s.1.1.1.2v1.8c-.1.2 0 .2 0 .4s-.1.4-.1.7c0 .1 0 .2.1.3 0 .1.1.2.1.3h-.3zM94.2 13c0 .1-.8 1.4-1.2 1.8-.4.5-1.3 1.6-1.4 1.6-.1.1-.2-.1-.2-.3V15.3c0-.1-.1-.6-.1-.9v-.7c0-.1.5-.5.8-.6.1-.1.2-.2.3-.2.1-.1.2-.2.3-.2.3-.1.5-.1.7-.1h.1c.3 0 .6-.1.7 0 .1.1.1.1.1.2-.1 0-.1.1-.1.2z"/>
</svg>
