<svg xmlns="http://www.w3.org/2000/svg" viewBox="0 0 200 50">
	<path fill="#C8AF64" d="m21.4075 16.2853.0099 2.4795v6.3855c.0097.6199.5493 1.1413 1.1573 1.1413.618 0 1.1477-.5313 1.1477-1.161v-5.0868c1.5105 1.2693 2.4718 3.1682 2.4718 5.3033 0 3.8273-3.1094 6.9463-6.9249 6.9463-3.7862-.0098-6.8956-3.119-6.8956-6.9463 0-2.0957.9318-3.975 2.4031-5.2442v5.0277c0 .6297.5101 1.161 1.1477 1.161.6277 0 1.1672-.5313 1.1672-1.161V16.305C13.0211 17.2988 10 20.9687 10 25.3471c0 5.1458 4.1687 9.3077 9.2987 9.3077 5.1005 0 9.279-4.1619 9.279-9.3077 0-4.4079-3.0702-8.1074-7.1702-9.0618Zm-2.1382 10.0063c-.6377 0-1.1575-.5214-1.1575-1.1512V17.161c0-.6395.5198-1.161 1.1575-1.161h1.1574v9.1404c0 .6298-.5297 1.1512-1.1574 1.1512Zm0-8.7764c-.206 0-.3728-.1771-.3728-.3837 0-.2165.1668-.3837.3728-.3837.2157 0 .3825.1672.3825.3837 0 .2066-.1668.3837-.3825.3837Z"/>
	<path fill="#222" d="m38.2489 24.4721.3531-.0294c.1079 0 .2158-.0099.3237-.0197.0686-.0099.1373-.0197.206-.0295h.049v-5.7756h1.7362V31.635h-1.7362v-5.5197c-.0686.0098-.1373.0098-.1962.0197-.1569 0-.304.0098-.4511.0197h-.0099c-.0785 0-.1471.0098-.2256.0098-.0686.0098-.1471.0196-.2158.0295h-.0196c-.1961.0098-.3923.0197-.5983.0197-.1668.0098-.3433.0098-.51.0098-.9319 0-2.0599-.1082-2.874-.6002-.9024-.551-1.0299-1.9186-1.0299-2.8631v-4.1423h1.7361v3.8668c0 .4919.049 1.3578.5199 1.6628.4904.3148 1.3634.3542 1.9225.3542.1668 0 .3237 0 .4806-.0099.1863 0 .3629-.0098.5395-.0197Zm6.6994-.4132h5.6596v1.7219h-5.6596v4.1323h6.4148v1.7219h-8.1412V18.6179h7.9647v1.7219h-6.2383v3.7191Zm8.6414 5.8542c.9024-.0196 1.3046-.7379 1.5106-1.5349.2844-1.1511.4315-2.3416.4708-3.5322 0-.0983.0098-.2066.0098-.3148.0098-.0984.0098-.1968.0098-.2952l.0981-5.6181h7.0328V31.635h-1.7263V20.3398h-3.59l-.0981 4.2603c-.0098.4132-.0294.8363-.049 1.2495-.0197.4821-.0589.9544-.1276 1.4267-.1275 1.0429-.4119 2.0465-.8827 2.9911-.4905.9838-1.3242 1.4168-2.4032 1.4168-.1177 0-.2255-.0099-.3334-.0197-.108-.0098-.2257-.0197-.3335-.0295l-.1276-.0197v-1.7808l.157.0294c.0686.0099.1471.0197.2157.0296.0589.0098.108.0196.1668.0196Zm12.565-3.9651c-.4708-.2558-.8436-.6789-1.1378-1.1216-.4218-.6396-.5297-1.5054-.5297-2.263v-.2755c.0392-.915.3335-1.7513.8632-2.5089.667-.9446 1.9127-1.1611 3.0014-1.1611h4.7376V31.635h-1.7263v-5.0671h-2.2364L66.498 31.635h-2.1089l2.9328-5.2639c-.1275-.0197-.2648-.0591-.3923-.0885-.2747-.0689-.5297-.187-.7749-.3346Zm10.6617-5.6082v3.5321h3.1686c.9905 0 2.1577.1772 2.8152.9938.5003.6297.824 1.348.9123 2.1449.0196.1378.029.2657.0391.4035 0 .1279.0095.2557.0095.3836 0 .2067-.0196.4133-.029.6101-.0196.2164-.0688.4329-.1275.6493-.1672.6887-.5394 1.2791-1.0397 1.7809-.6575.6592-1.6777.8068-2.5604.797h-4.9239V18.6179h7.9354v1.7219h-6.1996Zm10.3485 8.127 5.5124-9.8489h1.6777V31.635h-1.7363v-9.9178l-5.5124 9.9178h-1.6777V18.6179h1.7363v9.8489Zm11.1233-2.8238v5.992H96.562V18.6179h1.7262v5.3033h5.1398v-5.3033h1.736V31.635h-1.736v-5.992h-5.1398Zm15.6158-.9052c.559.1672 1.02.5411 1.392.9839.511.6002.647 1.4464.647 2.2138 0 .8855-.147 1.9186-.813 2.5581-.501.4822-1.089.8265-1.766.9839-.245.0689-.5.1082-.765.1279-.225.0197-.451.0296-.677.0296h-4.698V18.6179h4.875c.794 0 1.736.128 2.325.7183.441.4428.764.9544.902 1.5644.049.1869.088.3837.098.5707.02.1771.02.3542.02.5313 0 .6887-.138 1.3774-.579 1.9284-.265.3345-.588.6199-.971.8068h.01Zm5.737-.6789h5.65v1.7219h-5.65v4.1323h6.405v1.7219h-8.14V18.6179h7.964v1.7219h-6.229v3.7191Zm17.647 5.0967c-.304.7575-.795 1.397-1.404 1.9382-.784.6888-1.882.8855-2.893.8855-.127 0-.255-.0098-.373-.0295-.205-.0098-.411-.0393-.617-.059-.559-.0689-1.099-.2854-1.599-.5707-.785-.4329-1.383-1.1708-1.844-1.9382-.697-1.1316-.844-2.7353-.844-4.034.01-.1673.01-.3346.02-.5117.01-.2657.029-.5411.039-.8166.049-.7183.196-1.4267.422-2.1154.304-.9446.824-1.771 1.51-2.4991.844-.8855 2.06-1.1512 3.238-1.1512 1.049 0 2.236.1869 3.04.9249.598.5608 1.079 1.2298 1.324 2.0268.078.246.137.5018.177.7675.039.2361.068.4624.088.6985l.01.1575h-1.766v-.1279c-.019-.1476-.029-.2854-.059-.4232-.02-.1377-.059-.2853-.098-.423-.157-.5116-.47-.9347-.853-1.2988-.491-.4624-1.216-.5805-1.863-.5805-1.148 0-2.041.4428-2.59 1.4759-.628 1.161-.814 2.5286-.814 3.8273 0 1.23.274 2.4008.882 3.4732.579 1.0233 1.452 1.5153 2.619 1.5153.834 0 1.56-.246 2.089-.9052.491-.6101.776-1.3185.824-2.1056l.01-.1279h1.776l-.01.1574c-.02.2853-.069.5805-.128.8757-.078.3345-.186.669-.313.9938Zm4.805-8.8158h-3.501v-1.7219h8.739v1.7219h-3.501V31.635h-1.737V20.3398Zm8.878 0v3.5321h3.168c.981 0 2.158.1772 2.815.9938.5.6297.814 1.348.912 2.1449.02.1378.03.2657.039.4035v.3836c0 .2067-.009.4133-.029.6101-.019.2164-.059.4329-.118.6493-.166.6887-.539 1.2791-1.04 1.7809-.656.6592-1.677.8068-2.569.797h-4.915V18.6179h7.935v1.7219h-6.198Zm10.701 7.9991-1.02 3.2961h-1.844l4.169-13.0171h1.755l4.179 13.0171h-1.854l-1.03-3.2961h-4.355Zm10.24-2.6959v5.992h-1.726V18.6179h1.726v5.3033h5.14v-5.3033h1.736V31.635h-1.736v-5.992h-5.14Zm10.976-1.466 4.649-5.5591h2.149l-5.258 6.0314L190 31.635h-2.256l-4.856-6.3659v6.3659h-1.726V18.6179h1.726v5.5591Zm-111.5249.669v-4.5062h-2.8936c-.4904 0-1.0985.0688-1.4811.4231-.2746.2656-.5002.5805-.6081.9543-.0491.1476-.0785.3051-.0981.4526-.0196.1378-.0294.2755-.0294.4133 0 .5805.1569 1.1118.4904 1.5841.4022.5805 1.2751.6788 1.9225.6788h2.6974Zm5.4533.7478v4.3193h2.884c.5691 0 1.1281-.1279 1.6183-.4427.5395-.3542.6474-1.0528.6474-1.653 0-.4723-.0681-1.0822-.3925-1.4561-.2353-.2756-.5293-.5018-.8725-.6199h-.0101c-.1666-.0689-.3432-.1082-.5293-.1279-.1572-.0099-.3143-.0197-.4613-.0197h-2.884Zm32.1336.1476v4.1717h3.12c.519-.0196 1-.1673 1.451-.4427.54-.3345.627-1.0922.627-1.6727 0-.5608-.107-1.1905-.568-1.5644-.471-.4034-1.177-.4919-1.775-.4919h-2.855Zm0-5.4016v3.6798h2.766c.501 0 1.148-.0689 1.481-.4822.275-.3246.442-.6985.471-1.1216v-.0098h.01c0-.0394.01-.0689.01-.1083v-.1279c0-.1181-.01-.2459-.02-.364-.019-.1476-.059-.2952-.108-.4231v-.0098c-.098-.2854-.294-.5215-.53-.7084-.323-.2755-.863-.3247-1.265-.3247h-2.815Zm42.021 5.254v4.3193h2.873c.579 0 1.139-.1279 1.629-.4427.539-.3542.647-1.0528.647-1.653 0-.4723-.069-1.0822-.392-1.4561-.246-.2756-.53-.5018-.883-.6199-.166-.0689-.353-.1082-.53-.1279-.156-.0099-.313-.0197-.471-.0197h-2.873Zm11.182 1.0233h3.393l-1.696-5.6378-1.697 5.6378Z"/>
</svg>