<svg xmlns="http://www.w3.org/2000/svg" viewBox="0 0 200 50">
	<path fill="#0AE15F" d="M65.8955 18.4531V36.458h12.317c2.5895 0 4.688-2.0987 4.688-4.6882V18.4531h-17.005Z"/>
	<path fill="#000" d="M27.5849 39.0528h2.9767v-7.4353H27.837V14h-5.5212v17.6175H11.512c-.5449 0-.9908-.4413-.9908-.9907V14H5v18.5993c0 2.1301 1.72933 3.8595 3.86397 3.864H26.2744l1.3105 2.5895ZM148.029 24.5602c1.577 0 2.882.5405 3.927 1.6213 1.046 1.0808 1.568 2.4904 1.568 4.2243 0 1.8553-.585 3.3595-1.756 4.5214-1.171 1.1619-2.64 1.7429-4.405 1.7429-1.824 0-3.333-.6305-4.522-1.887s-1.796-3.0984-1.81-5.5257c0-1.6933.171-3.1435.518-4.3594.347-1.2114.811-2.1887 1.392-2.9227.581-.7341 1.355-1.3151 2.319-1.7429.964-.4278 1.963-.7115 2.999-.8601 1.036-.1487 2.284-.2207 3.742-.2207v2.3598c-1.175 0-2.17.045-2.98.1306-.811.0901-1.563.2477-2.262.4729-.698.2296-1.256.5539-1.675.9727-.418.4188-.756.9547-1.013 1.6123-.256.6529-.424 1.4545-.495 2.3958.427-.8107 1.04-1.4321 1.842-1.8779.801-.4369 1.67-.6576 2.611-.6576Zm-3.431 8.8583c.698.7296 1.585 1.0944 2.657 1.0944s1.972-.3648 2.693-1.0944c.721-.7295 1.081-1.6887 1.081-2.8777 0-1.1484-.347-2.0761-1.036-2.7787-.694-.7069-1.558-1.0582-2.603-1.0582-1.058 0-1.963.3558-2.715 1.0718-.753.7116-1.126 1.6348-1.126 2.7696.004 1.1845.351 2.1482 1.049 2.8732Zm20.121-9.1458h2.49v12.1368h-2.495v-2.0311c-.972 1.5311-2.382 2.2967-4.237 2.2967-1.635 0-2.977-.59-4.027-1.7743-1.053-1.1844-1.576-2.7021-1.576-4.5575 0-1.8374.532-3.3551 1.59-4.544 1.058-1.1934 2.391-1.7879 3.994-1.7879 1.856 0 3.275.7792 4.261 2.3373v-2.076Zm-3.711 10.0202c1.073 0 1.964-.3694 2.671-1.1034.707-.7341 1.058-1.6843 1.058-2.8462 0-1.1484-.351-2.0942-1.058-2.8372-.707-.7431-1.594-1.1123-2.671-1.1123-1.058 0-1.927.3692-2.603 1.1033-.675.7341-1.013 1.6843-1.013 2.8462 0 1.1619.338 2.1121 1.013 2.8462.676.734 1.54 1.1034 2.603 1.1034Zm20.103-10.0211h-2.494v4.7692h-6.445v-4.7692h-2.494v12.1368h2.494v-5.0078h6.445v5.0078h2.494V24.2718ZM195 36.4086h-3.22l-5.714-5.6067v5.6067h-2.496V24.2718h2.496v5.2511l5.251-5.2511h3.197l-5.936 5.76L195 36.4086Zm-161.4529.0502V14h5.5212v14.7848L51.9708 14h5.251v22.4588h-5.5212V21.7099l-12.934 14.7489h-5.2195Zm70.0699-7.3046c2.792 0 4.814-1.4816 4.814-4.8143v-5.5257c0-3.0984-1.715-4.8142-4.814-4.8142H86.3777v22.4633h5.5212v-7.3091h11.7181Zm-2.022-10.304c1.045 0 1.315.4729 1.315 1.4141v2.7922c0 .8106-.374 1.2474-1.315 1.2474h-9.6961v-5.4537h9.6961Zm26.827 17.6086-1.955-3.873h-12.222l-1.954 3.873h-5.895L118.086 14h4.883l11.483 22.4588h-6.03Zm-8.079-16.87-4.107 8.3539h8.182l-4.075-8.3539Zm-37.4375-.7386H67.5487c-.6935 0-1.2564.5585-1.2564 1.252v4.2017h9.9707v4.8458h-9.9662v7.3091h-5.5213v-18.122c0-2.3958 1.941-4.3368 4.3368-4.3368h17.7932v4.8502Z"/>
</svg>