<svg viewBox="0 0 200 50" xmlns="http://www.w3.org/2000/svg">
	<path fill="#006F4E" d="m20.8 24.3994-2-5L16.2 25c-.9 1.7998-3.7 2.2998-5.7 2.5l.3999-.7002 5.7002-11h4.5L24.3 22.5l1.4 3.2002L28.6001 32H25c-.7 0-1.3 0-1.6001-.7002L23 29.7002l-.8999-2.3008-1.3001-3Zm8.5999 9.3008H0v2.5996h29.3999v-2.5996Zm21.136-11.8184c-1.356-.9736-3.0078-1.4589-4.6008-1.4589-3.3492-.001-6.5052 1.9443-6.5061 5.3222 0 3.3789 3.156 5.3555 6.5048 5.3555 1.6673 0 3.4082-.5313 4.7942-1.5195l-1.0329-1.3428c-1.1792.7969-2.1531 1.2539-3.6272 1.2539-2.4348 0-4.3369-1.5186-4.3369-3.7305 0-2.2129 1.9021-3.7314 4.3369-3.7314.8183 0 1.476.1465 2.1023.4209.445.1953.8742.455 1.3337.7744l1.032-1.3438Zm10.1592 2.0664c0 1.1211-1.0042 1.7706-2.5672 1.7706l-3.2151-.001v-3.4649h3.2012c1.6218 0 2.5811.6045 2.5811 1.6953Zm-2.406-3.3476H52.7v10.3232h2.2119v-3.5996h2.758l3.0681 3.5996h2.5808l-3.3769-3.9082c1.7541-.3984 3.052-1.3271 3.052-3.0967 0-2.2724-2.1089-3.3183-4.7048-3.3183Zm12.323-1.1377 1.7109-1.8154h-2.301l-1.2981 1.8154h1.8882Zm-5.4131 1.1357v7.3448c0 1.873 1.091 2.9785 2.979 2.9785h6.5779v-1.6524H68.71c-.8702 0-1.2991-.4267-1.2991-1.3261v-1.5938H73.96v-1.6074h-6.5491V22.25h7.1382v-1.6514H65.199Zm21.083 5.1748c0 2.0948-1.6821 3.4961-4.189 3.4961h-2.5959V22.25h2.5959c2.5069 0 4.189 1.4141 4.189 3.5234Zm-4.3369-5.1757h-4.6612v10.3242h4.6612c3.9829 0 6.6369-2.0645 6.6369-5.1621 0-3.0977-2.655-5.1621-6.6369-5.1621ZM92.907 30.9248h-2.2132V20.6006h2.2132v10.3242Zm1.9189-10.3242v1.6504h3.969v8.6738h2.2111v-8.6719h3.967v-1.6523H94.8259Zm20.1151 2.1211 2.035 4.0996h-4.07l2.035-4.0996Zm-2.847 5.707h5.693l1.239 2.4932h2.537l-5.354-10.3233h-2.256L108.6 30.9219h2.256l1.238-2.4932Zm20.964-6.5478c-1.358-.9737-3.009-1.459-4.602-1.459-3.348.001-6.504 1.9453-6.504 5.3222 0 3.0538 2.582 5.3545 6.474 5.3545 2.227 0 3.981-.7382 5.221-1.622v-4.336h-5.323v1.5762h3.111v1.9756c-.737.4883-1.784.7969-2.92.7969-2.566 0-4.262-1.5772-4.262-3.7598 0-2.2119 1.902-3.7012 4.335-3.7012 1.402 0 2.331.4278 3.437 1.1953l1.033-1.3427Zm11.276 2.0664c0 1.1211-1.003 1.7705-2.566 1.7705h-3.216v-3.4649h3.201c1.621 0 2.581.6035 2.581 1.6944Zm-2.404-3.3467h-5.589l-.001 10.3223h2.212v-3.5987h2.758l3.067 3.5987h2.581l-3.376-3.9083c1.754-.3984 3.052-1.3271 3.052-3.0976 0-2.2705-2.108-3.3164-4.704-3.3164Zm9.476 10.3232h-2.212V20.6006h2.212v10.3232Zm13.299-9.0429c-1.356-.9737-3.007-1.459-4.601-1.459-3.348 0-6.504 1.9453-6.504 5.3213 0 3.3779 3.156 5.3545 6.504 5.3545 1.666 0 3.407-.5313 4.793-1.5196l-1.033-1.3418c-1.179.7969-2.152 1.2539-3.628 1.2539-2.432 0-4.335-1.5195-4.335-3.7304 0-2.2129 1.903-3.7315 4.335-3.7315 1.402 0 2.331.4278 3.437 1.1953l1.032-1.3427Zm7.31 7.6113c-2.507 0-4.233-1.6514-4.233-3.7305 0-2.0791 1.726-3.7305 4.233-3.7314 2.507 0 4.233 1.6523 4.233 3.7314 0 2.0791-1.727 3.7305-4.233 3.7305Zm-.001-9.0684c-3.819 0-6.532 2.418-6.532 5.3379s2.713 5.3389 6.532 5.3379c3.819 0 6.533-2.418 6.533-5.3379 0-2.9189-2.714-5.3379-6.533-5.3379Zm10.71.1768h-2.212v10.3232h8.775v-1.6523h-6.563v-8.6709Zm7.721 0v7.3437c-.001 1.8741 1.09 2.9795 2.978 2.9805H200v-1.6523h-6.045c-.871 0-1.298-.4268-1.298-1.3272v-1.5937h6.548v-1.6075h-6.548v-2.4912h7.137v-1.6523h-9.349Z"/>
	<path fill="#009B9D" d="M22.1 27.5c-3 1.6-6.1 3.1-9.7 3.9-3.3.8-6.9.9-9.4-.6-2.3-1.3-3-3.9-3-5.8 0-1.2.6-3 1.8-4.4 2.2-2.7 6.4-5 9.7-5.1 1.2 0 1.9.4 2.4 3.3-1.2 0-2.3.2-3.6.6-.8.3-2.4 1-4.2 2.2-2.3 1.6-3.7 3.3-3.8 4.9-.1 1.4 1.2 2.2 3.3 2.4 5 .4 10.8-2 15.2-4.4l3.5-2 7.3-3.9v3.7l-5.8 3.4-3.7 1.8Z"/>
	<path fill="#ED1C24" d="m30.4 14.6-4.1999 2.2s-1.4001.8-2.4001 1l.7 1.5c.2.6.9.8 1.5.6l5.6-3.1V14l-1.2.6Z"/>
</svg>