<svg xmlns="http://www.w3.org/2000/svg" viewBox="0 0 200 50">
	<g fill="#003f8a">
		<path class="st0" d="M14.3 27.8H9.9v13.3h4.4c5.1 0 7.1-2.4 7.1-6.7 0-4.3-2.5-6.6-7.1-6.6zM14 39h-1.4v-9.2H14c3.1 0 4.8 1.4 4.8 4.6 0 2.9-1.2 4.7-4.8 4.6zM27.5 31.6c-3.5 0-4.7 2.5-4.7 4.8 0 2.8 1.4 4.8 4.4 4.9 2.4 0 4.5-.7 4.6-3.3h-2.4c0 1-.8 1.7-1.8 1.7-1.7 0-2.2-1.2-2.2-2.7h6.7c.1-2.8-1.1-5.4-4.6-5.4zm1.8 3.9h-3.9c.1-1.2.7-2.3 2-2.3s2 1 1.9 2.3zM40.2 37.2c0 1.8-.9 2.4-2 2.4-1.2 0-1.7-.8-1.7-2.1v-5.6H34v6c0 2.5 1.6 3.5 3.3 3.5 1.4 0 2.6-.6 3-1.8v1.5h2.4v-9.2h-2.5v5.3zM48.4 29.1L46 30.4v1.5h-2.1v1.7h2v4.7c0 1.3.2 2.1 1.1 2.6 1.1.6 2.5.3 3.7.1v-1.6c-.4.1-.8.1-1.1.1-.9-.1-1.2-.6-1.2-1.5v-4.4h2.3v-1.8h-2.3v-2.7zM57.7 35.5c-1.8-.5-3.6-.6-3-1.9.5-.7 2.1-.7 2.6-.2.2.2.3.6.3.9H60c.1-2.2-1.8-2.8-3.5-2.8-.8 0-1.7.1-2.4.4-1.1.4-1.9 1.2-1.9 2.3 0 1.3.9 2 1.7 2.4 1.1.4 1.8.5 2.7.7.9.2 1.5.5 1.5 1.2 0 .9-.9 1.2-1.8 1.2-1 0-1.6-.4-1.6-1.5h-2.5c-.1 2.4 1.7 3 3.8 3.1 1.5.1 3.3-.3 4.2-1.6.5-.7.5-1.8.1-2.6-.4-.7-1.2-1.2-2.6-1.6zM65.4 33.4c.3-.2.6-.3.9-.3 1.3-.1 1.9.6 1.9 1.8h2.5c0-2.5-2.1-3.4-4.1-3.4-3 0-4.7 2-4.8 5 0 2.8 1.4 4.8 4.4 4.9 2.3 0 4.4-1 4.4-3.6h-2.4c0 .8-.3 1.7-1.3 1.9-.5.1-1.2 0-1.6-.4-.6-.4-.9-1.7-.9-3 0-1.2.2-2.5 1-2.9zM78.1 31.6c-1.3 0-2.3.5-3 1.7v-5.5h-2.5V41h2.5v-5.3c0-1.7 1-2.4 2.1-2.4 1.2 0 1.7.9 1.7 2.1V41h2.5v-6.3c0-1.8-1.6-3.1-3.3-3.1zM88.1 31.6c-3.5 0-4.7 2.5-4.7 4.8 0 2.8 1.4 4.8 4.4 4.9 2.4 0 4.5-.7 4.6-3.3H90c0 1-.8 1.7-1.8 1.7-1.7 0-2.2-1.2-2.2-2.7h6.7c.1-2.8-1.1-5.4-4.6-5.4zm1.8 3.9H86c.1-1.2.7-2.3 2-2.3s2 1 1.9 2.3zM107.7 34.3c1.4-.5 2.5-1.5 2.4-3.1-.1-2.6-2.5-3.3-4.8-3.3h-5.1v13.2h4.8c1.2 0 2.3-.1 3.2-.4 1-.4 1.7-1 2.1-1.8.5-.9.4-2.1-.1-3-.6-1-1.4-1.3-2.5-1.6zm-5-4.5h2.6c1.4 0 2.2.7 2.1 1.7 0 1.1-.7 1.7-2.1 1.7h-2.6v-3.4zm2.8 9.3h-2.8v-3.9h2.9c1.7 0 2.3 1 2.3 1.9 0 1.1-.6 2-2.4 2zM116.4 31.6c-2.2 0-3.8.8-3.9 2.9h2.4c-.1-1 .6-1.5 1.5-1.5 1.4 0 2 .6 1.8 2.2-1.3.1-3.1 0-4.5.6-1 .5-1.7 1.3-1.7 2.7 0 1.8 1.2 2.8 3 2.9 1.3.1 2.8-.4 3.3-1.6l.1 1.3h2.2c.2-2.3.2-4.5.2-6.7 0-1.9-2-2.8-4.4-2.8zm-.2 8.1c-.9-.1-1.5-.5-1.5-1.4 0-1.9 2.5-1.7 3.7-1.7.1 1.5 0 3.1-2.2 3.1zM129 31.7c-1.3 0-2.5.5-3.2 1.7v-1.5h-2.5v9.2h2.5v-5.3c0-1.7 1-2.4 2.1-2.4s1.7.9 1.7 2.1v5.6h2.5v-6.3c0-2.2-1.6-3.1-3.1-3.1zM134.6 27.8v13.3h2.5V27.8zM143.6 31.9h-3l-3.5 3.9 3.9 5.3V41h3.3l-4.3-5.3zM157.7 8.7v32.4H190V8.7h-32.3zm27.8 27.9h-23.3V13.2h23.3v23.4z"/>
		<path class="st0" d="M183 16.3h-5.7l-12.6 16.9h5.7z"/>
	</g>
</svg>