<svg viewBox="0 0 200 50" xmlns="http://www.w3.org/2000/svg">
	<path fill="#6A2538" d="M20 8h34.084v34.084H20V8Zm47.9746 24.4996h-6.3535v9.7881h3.8121c.7666.0612 1.5357-.0816 2.2292-.4139.42-.25.7619-.6121.9875-1.0456.2173-.4296.327-.9056.3195-1.3869.0147-.5645-.145-1.1198-.4575-1.5902-.2889-.4427-.7227-.7713-1.2271-.9294-.6703-.1897-1.3658-.2754-2.0622-.2542h-2.3308v-3.0134h5.0828v-1.1545Zm-2.4688 8.7134h-2.585v-3.4418h1.7282c.6109-.0133 1.2215.0353 1.8226.1452.3381.0848.6345.2884.835.5737.206.298.3104.6545.2977 1.0165.0178.239-.0201.4788-.1109.7006-.0907.2218-.2317.4194-.4119.5774-.4599.3206-1.0167.472-1.5757.4284Zm14.9653-8.6844-3.754 9.7881 1.3723-.0653 1.0384-2.9045h4.1534l1.14 2.9698h1.4522l-4.0009-9.7881h-1.4014ZM82.86 38.265h-3.3183l1.612-4.7053L82.86 38.265Zm11.6034-5.7654v9.7881h1.2997v-4.6181h5.0829v4.6181h1.3v-9.7881h-1.3v4.0154h-5.0829v-4.0154h-1.2997Zm18.6686 0h-1.293l-.065 9.7881h1.293v-4.5818c.428-.0146.847.1303 1.176.4066.44.4538.819.9642 1.125 1.5176l1.641 2.6576h1.576l-2.011-3.2603c-.384-.7866-1.039-1.408-1.845-1.75.299-.1237.574-.2981.814-.5155.37-.4681.653-.9995.835-1.5684.16-.4673.407-.9006.726-1.278.125-.1109.271-.1951.429-.2476.159-.0524.327-.0719.493-.0573h.53v-1.1183c-.261-.0145-.523-.0145-.784 0-.376-.0069-.747.0858-1.075.2687-.29.1642-.538.3927-.726.668-.262.4324-.485.8867-.668 1.3579-.219.5966-.53 1.1553-.922 1.6555-.361.2622-.805.3835-1.249.3413v-4.2841ZM85.8084 21.6145v-2.9044h6.339v-3.9792h-6.339v-2.5486h7.3846V8.03613H81.1758V25.7607h12.2496v-4.1462h-7.617ZM65.346 8h12.4239v13.6147h1.7717v7.4427h-3.8992v-3.2966h-9.897v3.2966h-3.9065v-7.4427h1.2925c.7999-1.3125 1.3788-2.7476 1.7136-4.2478.3552-1.6459.5233-3.3266.501-5.0102V8Zm2.8609 13.6147h4.9304v-9.4395H69.739v1.5757c.0148 1.6282-.1385 3.2536-.4574 4.8504-.2181 1.0491-.5797 2.0631-1.0747 3.0134ZM173.697 8.03613h-4.422l-6.281 17.69547h4.901l1.002-3.1223h5.156l1.024 3.1514H180l-6.303-17.72457Zm-3.63 10.83367 1.452-4.5745h.043l1.453 4.5745h-2.948ZM138.074 8.03613h4.414l6.339 17.72457h-4.923l-1.024-3.1514h-5.155l-1.009 3.1514h-8.975l-4.357-6.7021v6.6948h-4.632v-6.7021l-4.357 6.7021h-5.642l6.724-9.4395-6.601-8.27777h5.57l4.306 6.03407V8.03613h4.61v6.03407l4.285-6.02681h5.576l-6.608 8.27771 5.693 7.9873 5.766-16.27227Zm2.214 6.25917-1.496 4.5963 2.948-.0218-1.452-4.5745Zm-32.675-5.01036c-1.314-.88784-2.881-1.32601-4.465-1.24892h-6.9058V25.7533h4.6178v-5.809h2.179c1.387.0511 2.764-.2539 4.001-.8858 1.401-.7987 2.541-2.3309 2.541-5.1554 0-2.2292-.762-3.725-1.968-4.61816Zm-3.456 6.08486c-.51.3429-1.123.4993-1.736.4429h-1.532v-3.6305H102.523c.726 0 2.178 0 2.178 1.7572.022.2639-.015.5295-.109.777-.095.2476-.243.4709-.435.6534Zm58.808 3.9357c.094.4144.138.8386.131 1.2634l-.015.0363c0 2.2219-.907 3.5362-2.178 4.2623-1.353.6634-2.852.9708-4.357.8932h-7.058V8.03613h7.465c2.236 0 3.572.68255 4.356 1.61198.693.88419 1.051 1.98519 1.01 3.10779.036.9266-.26 1.8355-.835 2.5632-.296.3625-.655.6677-1.06.9004.943.4024 1.715 1.125 2.178 2.0404.161.3334.283.6843.363 1.0456Zm-6.942-7.1232h-1.895l-.014 2.4833h2.069c.212.0173.425-.0143.623-.0923.197-.0781.374-.2005.517-.3579.183-.2426.283-.5383.283-.8423.013-.2829-.086-.5595-.276-.7697-.176-.158-.383-.2772-.608-.3498-.225-.0725-.463-.0969-.699-.0713Zm.603 9.4322c.368-.0014.728-.1072 1.038-.3049.193-.124.35-.2967.455-.5008.104-.204.153-.4321.141-.661.025-.2289-.013-.4604-.11-.6692-.098-.2087-.25-.3867-.442-.5144-.488-.2341-1.028-.3391-1.568-.305h-2.012v2.9553h2.498Z"/>
	<path fill="#fff" d="M36.9836 40.3997c3.3403-.005 6.5558-1.2698 9.0043-3.542 2.4485-2.2721 3.9497-5.3843 4.2038-8.7149H23.7683c.2509 3.3331 1.7522 6.4483 4.2029 8.7213 2.4507 2.273 5.6699 3.5358 9.0124 3.5356Zm8.1035-8.6336c-.8137 1.4329-1.9927 2.6244-3.4168 3.4534-1.4241.829-3.0425 1.2657-4.6903 1.2657-1.6478 0-3.2661-.4367-4.6903-1.2657-1.4241-.829-2.603-2.0205-3.4168-3.4534h16.2142ZM36.2648 9.7793h-3.6306v4.1316c-2.5995.9038-4.8529 2.5949-6.447 4.8384-1.5941 2.2434-2.4497 4.9277-2.4479 7.6799v.167h12.5255V9.7793Zm-3.6306 13.1645h-4.3059c.8269-2.0506 2.3521-3.7429 4.3059-4.7778v4.7778Zm17.5575 3.4854c.0018-2.7522-.8539-5.4365-2.448-7.6799-1.5941-2.2435-3.8474-3.9346-6.4469-4.8384V9.7793h-3.6306v16.8241h12.5255v-.1742Zm-8.8949-3.4709V18.166c1.9599 1.0362 3.4884 2.7345 4.3131 4.7923h-4.3131Z"/>
</svg>