<svg xmlns="http://www.w3.org/2000/svg" viewBox="0 0 200 50">
	<path fill="#384249" d="M54.3522 42.5899H41.5493v-5.4101h12.7746v5.4101h.0283zm2.5776-8.1293H39V48h2.5493v-2.7192h15.3239V34.4606h.0566zM41.5493 10.1293l5.1268-5.41009V23.6687h-5.1268V10.1293zM39 26.3596h10.197V2h-3.7955L39 8.7697v17.5899zM54.3522 4.71921h5.1269V23.6687h-5.1269V4.71921zM51.803 26.3596H62V2H51.803v24.3596zm28.0702 0h2.5492V2h-3.8522v.02833L74.718 6.07882V2h-3.8522l-6.3449 6.7697v17.5899h2.5493V10.1293l5.1268-5.41009V26.3596h2.5493V10.1293l5.1269-5.41009V26.3596zM39 31.7697h43.4507v-2.7192H39v2.7192zm33.2254 5.4101h7.6478v5.4101h-7.6478v-5.4101zm-2.5493 5.4101H62v-5.4101h7.6761v5.4101zm2.5493 2.6909h10.2253V34.4606H59.4791v10.8202h10.197V48h2.5493v-2.7192zm48.2376-19.3744h2.238c.991 0 1.586.7081 1.586 1.6712 0 1.0197-.595 1.6712-1.586 1.6712h-2.238v-3.3424zm0-2.1244v-2.4359h5.325v-2.1244h-7.619v12.1798h4.617c2.294 0 3.739-1.5862 3.739-3.7956 0-2.2093-1.417-3.7956-3.739-3.7956.028-.0283-2.323-.0283-2.323-.0283zm14.361 3.4557h-2.861l1.473-4.4187 1.388 4.4187zm1.303 4.1638h2.351l-4.164-12.1798h-1.756l-4.164 12.1798h2.351l.708-2.1527h4.051l.623 2.1527zm10.82 0h2.238V19.2217h-2.238v4.9852h-3.881v-4.9852h-2.237v12.1798h2.237V26.303h3.881v5.0985zm10.48-6.4865l3.853-5.6933h-2.663L154.935 25v-5.7783h-2.238v12.1798h2.238v-6.3732l4.022 6.3732h2.747l-4.277-6.4865z"/>
	<path fill="#99C45A" d="M102.307 7.18349h-1.983V42.8165h1.983V7.18349z"/>
</svg>
