<svg xmlns="http://www.w3.org/2000/svg" viewBox="0 0 200 50">
	<path fill="#FFDB00" d="M96.8408 47.6899c0 .131-.1158.2468-.2468.2468H25.2459c-.1312 0-.2469-.116-.2469-.2468V3.24684c0-.131.116-.24684.2469-.24684H96.594c.1307 0 .2468.11564.2468.24684V47.6899Z"/>
	<path fill="#444" d="M174.999 47.6835c0 .1342-.119.2532-.253.2532h-74.494c-.134 0-.253-.119-.253-.2532V3.25316c0-.1343.119-.25316.253-.25316h74.494c.134 0 .253.11886.253.25316V47.6835Z"/>
	<path fill="#fff" d="M157.281 26.2661c0-.2258.078-.2563.234-.0918l6.554 6.8767c.276.2867.609.3943 1 .3227l1.405-.2563c.394-.0718.451-.2513.171-.538l-7.383-7.595c-.058-.0582-.056-.1554.003-.212l6.956-6.7532c.27-.2637.216-.4071-.162-.4303-.667-.0401-1.316-.0528-1.949-.038-.264.0063-.491.1023-.681.288l-6 5.8829c-.053.0503-.15.0174-.148-.0601v-6.0254c0-.0506-.027-.0759-.079-.0759l-1.981-.0032c-.055 0-.083.0274-.083.0823v15.3007c0 .0823.04.1234.121.1234h1.863c.106 0 .159-.0528.159-.1582v-6.6393Zm-37.143 3.1422c.317-2.1814-.458-3.6762-2.322-4.4842-.136-.059-.14-.1255-.013-.1994 1.361-.7953 1.934-2.0875 1.721-3.8765-.259-2.1931-2.12-3.2247-4.17-3.2659-1.604-.0337-3.161-.04-4.671-.019-.11.0022-.165.057-.165.1646v15.1678c0 .0902.08.1708.171.1708 1.384 0 2.848-.0022 4.392-.0063 2.367-.0063 4.678-1.0538 5.057-3.6519Zm-7.484-5.3893.006-4.6455c0-.0842.075-.1583.159-.1583l1.557.0032c1.454.0021 3.015.9357 3.015 2.5317-.001 1.5337-1.642 2.4324-3.022 2.4303l-1.557-.0031c-.084 0-.158-.0741-.158-.1583Zm.006 7.2343v-5.3229c0-.0736.065-.1392.14-.1392h1.759c1.62 0 3.475 1.0239 3.475 2.8323 0 1.7756-1.907 2.769-3.475 2.769H112.8c-.074 0-.14-.0652-.14-.1392Zm13.744-3.1518h5.738c.082.0001.161.055.189.1329l1.867 5.0695c.033.0907.134.1475.228.1298l1.861-.3481c.123-.0227.197-.1557.152-.2722l-5.968-15.1297c-.03-.0766-.108-.13-.19-.1297h-1.972c-.08.0004-.156.0521-.186.1266l-5.991 15.1043c-.049.1296.048.274.187.2753l1.93.0095c.083 0 .162-.0552.19-.1329l1.775-4.7056c.03-.0767.108-.1301.19-.1297Zm.582-1.8165 2.184-5.5538c.032-.086.158-.0861.19 0l2.202 5.5443c.027.0658-.024.14-.095.1392l-4.386.0095c-.07.0008-.122-.0727-.095-.1392Zm22.216 2.4782V17.6429c0-.0467.039-.0854.085-.0854h1.902c.042 0 .079.0371.079.0791v15.269c0 .0827-.074.155-.158.155l-1.345.0032c-.331 0-.595-.3908-.763-.6298-2.592-3.7173-5.129-7.3354-7.607-10.8544-.169-.2384-.253-.212-.253.0791v11.326c0 .0418-.038.0791-.08.0791h-1.901c-.046 0-.086-.0399-.086-.0854V17.7189c0-.1076.055-.1614.165-.1614h1.746c.112 0 .2.0453.263.136l7.82 11.1108c.088.1266.133.1129.133-.0411Z"/>
	<path fill="#333" d="M47.3407 19.4138c2.0981-1.0982 4.0759-.2849 5.9051.9208.3101.2068.4968.1266.5601-.2405l.1804-1.0411c.0611-.3544-.0687-.6129-.3892-.7753-1.8123-.9262-3.6762-1.2215-5.5919-.8861-4.5031.7911-6.2848 4.9209-5.8322 9.0949.4304 3.9779 2.7942 6.7847 6.9461 6.8797 1.6773.0401 3.2258-.3554 4.6457-1.1868.3648-.2129.5148-.5484.4493-1.0063-.0085-.0588-.0411-.2826-.0981-.6707-.0696-.4684-.2996-.5697-.6898-.3038-1.4938 1.0188-3.4241 1.8511-5.2058 1.3195-3.6835-1.0949-4.4778-5.3006-3.6044-8.6455.4093-1.5717 1.3175-2.7247 2.7247-3.4588ZM63.1603 33.338c6.7627.3038 8.9684-6.4336 7.0095-11.7943-1.2278-3.3608-4.6772-4.7564-8.0759-4.133-4.807.883-6.4367 5.9051-5.4905 10.2184.75 3.4209 3.1202 5.5538 6.5569 5.7089Zm.4573-1.5886c-3.2915.0062-5.1354-3.5295-5.1408-6.4341-.0055-2.9049 1.8275-6.4463 5.1183-6.452 3.2915-.0057 5.1357 3.5289 5.1412 6.4341.0054 2.9054-1.8277 6.4458-5.1187 6.452ZM33.2268 19.3827l.0063 4.6455c0 .0857.0758.1614.1614.1614l4.7374.0127c.0755.0003.1448.0586.1582.1329l.2215 1.2532c.0174.0972-.0594.1894-.1582.1898l-4.9684.0032c-.0856 0-.1614.0758-.1614.1614l.0158 5.2911c0 .0852.0756.1614.1614.1614l6.2975-.0031c.0843 0 .1598.0732.1614.1582l.0158 1.3544c.0017.0891-.0722.1646-.1614.1646l-8.4145.0031c-.0859 0-.1614-.0762-.1614-.1614l.0031-15.193c0-.0856.0758-.1614.1614-.1614l8.0981.0032c.0857 0 .1614.0757.1614.1614l.0127 1.3449c0 .0856-.0758.1614-.1614.1614l-6.0253-.0063c-.0879 0-.1614.0735-.1614.1614Zm43.5317 2.0253c.0655.0401.113.096.1424.1677 1.4073 3.4367 2.9304 7.1878 4.5697 11.2532.058.1388.2008.2341.3512.2341l1.2279-.0031c.1794 0 .3028-.0823.3702-.2469l4.4842-11.0474c.1813-.4473.2902-.4304.326.0506l.7943 10.9525c.0148.194.118.2912.3101.2912l1.5569.0063c.1519 0 .2216-.075.2089-.2247l-1.2247-15.1329c-.0063-.081-.0814-.1491-.1645-.1487l-1.9747-.0032c-.1668 0-.2807.077-.3418.231l-4.7975 12.0317c-.0822.2025-.1636.2025-.2436 0l-4.7374-11.9431c-.0752-.1886-.2681-.32-.4715-.3196h-1.8228c-.1604 0-.2468.0791-.2595.2374l-1.212 15.1708c-.0041.0529.0199.0801.0728.0823l1.8196.0158c.0504.0019.0981-.0421.1013-.0949l.8544-11.5285c0-.0308.035-.045.0601-.0316Z"/>
</svg>