<svg xmlns="http://www.w3.org/2000/svg" viewBox="0 0 200 50">
	<path fill="#FF8200" d="M36.9066 10.1094c7.0704.7118 12.8046 6.3507 13.5283 13.3055 1.0578 9.5261-7.126 17.5747-16.8129 16.5348-7.0704-.7119-12.8047-6.3507-13.5285-13.3039C19.0915 17.6649 26.2732 10 35.2365 10c.5398 0 1.0795.0521 1.6193.1042l.0508.0052Zm-.5568 27.7604c6.3467-.4931 11.4686-5.5313 11.9695-11.7726.6681-7.9392-6.0682-14.5642-14.1406-13.9062-6.3467.4913-11.4685 5.5295-11.9696 11.7708-.6124 7.6111 5.456 13.9618 13.0274 13.9618.3896 0 .7237 0 1.1133-.0538Zm9.7982-13.908c-.0019-.0191.002-.0365 0-.0555v.0555Zm-10.8561-9.6371c5.6592 0 10.2737 4.1857 10.8561 9.5816H32.564v2.1909h13.584c-.5567 5.4202-5.2332 9.6354-10.8561 9.6354-6.2909 0-11.3014-5.2013-10.9118-11.4427.3898-5.2014 4.6209-9.4722 9.9096-9.9097.3341-.0555.6681-.0555 1.0022-.0555Zm.3597 3.7552c-.1791.1944-.3094.4323-.3597.6805-.167.9306.5567 1.7518 1.5031 1.7518h.2784c.315-.0625.6122-.2292.8309-.4723.168-.1857.2898-.4166.3382-.6771.1671-1.0416-.7237-1.9722-1.7814-1.7534-.3048.059-.5929.2344-.8095.4705Z"/>
	<path fill="#252728" d="M59.2563 29.5252c1.2578 1.4166 3.0544 2.1267 5.3303 2.1267 2.216 0 4.0126-.651 5.3302-1.9496 1.3775-1.3004 2.0364-3.0139 2.0364-5.1424 0-2.1267-.6589-3.8993-2.0364-5.1997-1.3775-1.3593-3.1142-2.0086-5.3302-2.0086-1.0181 0-2.0363.177-2.9945.5312-.9583.3559-1.7368.8872-2.2759 1.5365l.0159.0156c.1778.1753.4155.4097.8227.7535l.9582.9444c.8983-1.0035 2.0961-1.5364 3.6533-1.5364 1.078 0 2.0363.2968 2.8747 1.0052.7787.7083 1.2577 1.5364 1.4374 2.5416h-5.9291v2.1858h5.989c-.1198 1.2413-.599 2.1858-1.4374 2.9549-.8384.7673-1.8566 1.1215-3.1742 1.1215-1.4373 0-2.6352-.5313-3.5336-1.5347l-1.7368 1.6545ZM72.7 31.2266c.551.1198 1.1632.1788 1.8366.1788 1.7753 0 3.0609-.7136 3.7344-2.0834.7958-1.368 1.2243-3.5104 1.2243-6.2482v-3.2743h5.326v11.4861h2.8161V17.5981H76.863v4.7604c0 2.5-.2449 4.2257-.7347 5.2379-.4898 1.0121-1.2856 1.4878-2.2651 1.4878-.3061 0-.6122 0-.9183-.1198L72.7 31.2266Zm25.6392.4253c-2.1593 0-3.9486-.651-5.3677-1.9496-1.4189-1.3004-2.0976-3.0139-2.0976-5.1424 0-2.1267.6787-3.8403 2.0976-5.1406 1.4191-1.4184 3.1466-2.0677 5.2444-2.0677 2.0981 0 3.7631.6493 4.9971 1.8906 1.234 1.2413 1.851 2.9548 1.851 5.1406v.8872H93.7736c.0616 1.1823.4936 2.1267 1.4191 2.9548.9254.7674 1.9743 1.1806 3.2083 1.1806 1.789 0 3.147-.7084 4.134-2.0677l1.974 1.5364c-1.542 1.8316-3.578 2.7778-6.1698 2.7778Zm-4.5656-8.3316h8.4524c-.061-1.1233-.37-2.0694-1.049-2.7778-.678-.7083-1.6654-1.0642-2.8994-1.0642-1.1723 0-2.2211.3559-3.0232 1.1233-.9256.7083-1.4192 1.6545-1.4808 2.7187Zm14.5274-5.7222v13.5608h2.722v-6.6632h.061l6.412 6.6632h3.75l-7.077-7.1337 6.473-6.4271h-3.691l-5.867 6.191h-.061v-6.191h-2.722Zm20.59 14.0538c-2.22 0-4.007-.651-5.487-1.9496-1.418-1.3004-2.158-3.0139-2.158-5.2014 0-2.1268.74-3.8403 2.158-5.1407 1.418-1.3003 3.206-2.0086 5.425-2.0086.264 0 .524.0121.781.0347.287.026.57.0677.85.125.468.0955.929.2378 1.39.4305.986.415 1.726.9462 2.281 1.6546l-2.035 1.5954c-.308-.4722-.739-.8263-1.356-1.1215-.616-.2969-1.233-.4149-1.911-.4149-1.418 0-2.528.4739-3.391 1.4184-.863.9462-1.233 2.1285-1.233 3.4861 0 1.3594.432 2.4826 1.295 3.4878.863.9445 1.973 1.4184 3.391 1.4184 1.479 0 2.589-.4739 3.39-1.4774l1.911 1.6545c-1.294 1.2986-3.083 2.0087-5.301 2.0087Zm8.04-14.0538v13.5608h2.732V25.204h6.922v5.9549h2.794V17.5981h-2.794v5.3646h-6.922v-5.3646h-2.732Zm23.149 14.0538c-2.159 0-3.948-.6528-5.367-1.9583-1.419-1.3056-2.098-3.0261-2.098-5.1615 0-2.1371.679-3.8576 2.098-5.1632 1.419-1.3646 3.147-2.0173 5.244-2.0173s3.763.6527 4.998 1.8993c1.234 1.2448 1.851 2.967 1.851 5.1614v.8907h-11.23c.062 1.1857.494 2.1354 1.42 2.967.925.7708 1.974 1.1857 3.208 1.1857 1.789 0 3.146-.7118 4.134-2.0764l1.974 1.5434c-1.604 1.7796-3.64 2.7292-6.232 2.7292Zm-4.565-8.3663h8.452c-.061-1.1285-.37-2.0764-1.049-2.7899-.678-.7118-1.665-1.0677-2.899-1.0677-1.173 0-2.222.3559-3.023 1.1284-.926.7118-1.358 1.6615-1.481 2.7292Zm17.325-3.4479v11.3212h2.62V19.8377H180v-2.2396h-11.701v2.2396h4.541Z"/>
</svg>