<svg xmlns="http://www.w3.org/2000/svg" viewBox="0 0 200 50">
	<path fill="#212121" d="M81.1524 13.5818c.494.2403 1.028.3604 1.6288.3604.6809 0 1.2816-.1468 1.829-.4539.5474-.2937.9612-.7075 1.2816-1.2416.3071-.5206.454-1.1214.454-1.7756 0-.65415-.1469-1.25492-.454-1.78894-.3204-.52067-.7342-.93453-1.2816-1.24159C84.0628 7.14686 83.4621 7 82.7812 7c-.6008 0-1.1348.12015-1.6288.34711-.494.22696-.8945.54737-1.2015.96124-.3204.41386-.5207.89448-.6008 1.4285h1.3217c.1202-.46727.3605-.84108.7343-1.12144.3738-.26701.8411-.41387 1.4151-.41387.3471 0 .6676.06675.9613.21361.2937.14686.5473.34711.7476.60077.2003.25366.3471.54737.4272.86778h-2.4164v1.1748h2.4164c-.0801.3205-.2269.6142-.4272.8678-.2003.2537-.4539.4539-.7476.6008-.2937.1469-.6142.2136-.9613.2136-.574 0-1.0413-.1469-1.4151-.4272-.3872-.2804-.6275-.6542-.7343-1.1215h-1.3217c.0801.5207.2804 1.0013.5874 1.4152.3071.4139.7209.7476 1.2149.9746Zm6.0612.2935c.1335.0133.2804.0267.4272.0267.3739 0 .6943-.0668.9479-.2136.2537-.1469.4539-.3472.6275-.6275.2403-.4139.4005-.9346.4673-1.5887.0667-.6542.1068-1.50863.1068-2.56332v-.46726h2.8303v5.36688h1.4018V7.13327h-5.5405v1.90912c-.0133.76097-.0534 1.40181-.0934 1.93581-.0401.534-.1068.9212-.2003 1.1481-.0667.1603-.1735.2804-.3071.3472-.1468.0801-.307.1201-.4939.1201-.0801 0-.1602 0-.2403-.0267-.083 0-.1554-.021-.236-.0444l-.031-.009v1.2817c.0801.0267.1869.0534.3337.0801Zm11.9486.0669c-.7075 0-1.3217-.1468-1.869-.4539-.5474-.2937-.988-.7075-1.2817-1.2282-.307-.5207-.4672-1.1081-.4672-1.7623 0-.65415.1602-1.25492.4806-1.78894.3204-.52067.761-.93453 1.3083-1.25494C97.8806 7.14685 98.4947 7 99.1489 7c.6542 0 1.2411.14686 1.7761.44057.52.30706.934.70757 1.241 1.22824.307.53402.454 1.10809.454 1.74889v.267c-.007.0401-.01.0801-.013.1202-.004.04-.007.0801-.014.1201h-5.6603c.0534.3338.1869.6409.3872.9212.2002.2804.4672.494.801.6542.3338.1736.6942.2537 1.1081.2537.3872 0 .7343-.0801 1.068-.2537.32-.1736.547-.4005.694-.6809h1.389c-.094.3872-.281.7476-.574 1.0681-.307.3204-.681.574-1.135.7609-.467.2003-.9614.2937-1.5088.2937Zm2.0558-4.15195c-.08-.32041-.213-.60077-.414-.84108-.2-.22696-.44-.41387-.721-.54737-.2799-.12015-.6003-.18691-.9475-.18691-.3471 0-.6675.06676-.9612.18691-.3071.1335-.5607.32041-.761.56072-.2136.24031-.3604.52067-.4405.82773h4.2452Zm4.606-2.65698h-1.402v6.67523h1.402v-2.6968h1.055l2.096 2.6968h1.749l-2.67-3.4177 2.59-3.25753h-1.669l-2.096 2.67009h-1.055V7.13327Zm8.197 1.30835h-2.656V7.13327h6.715v1.30835h-2.657v5.36688h-1.402V8.44162Zm6.489-1.30812h-1.295v9.3453h1.402v-3.5245c.28.3071.627.5474 1.014.7209.387.1869.801.267 1.255.267.628 0 1.188-.1468 1.709-.4539.507-.307.908-.7209 1.202-1.2549.28-.5207.427-1.1081.427-1.7623 0-.65415-.147-1.24157-.427-1.77559-.294-.52067-.695-.93453-1.202-1.24159C124.088 7.14685 123.514 7 122.886 7c-.494 0-.934.09345-1.335.28036-.414.20026-.761.46727-1.041.82773V7.1335Zm3.244 5.2334c-.32.2002-.681.2937-1.068.2937s-.748-.0935-1.068-.2937c-.321-.1869-.574-.4406-.748-.7877-.187-.3337-.28-.6942-.28-1.1081 0-.4138.093-.78765.28-1.12142.174-.33376.427-.58742.748-.78767.32-.18691.681-.28036 1.068-.28036s.748.09345 1.068.28036c.32.20025.574.45391.761.78767.187.33377.28.70762.28 1.12142 0 .4139-.093.7744-.28 1.1081-.187.3471-.441.6008-.761.7877Zm7.316 1.5753c-.681 0-1.282-.1468-1.829-.4539-.547-.307-.988-.7209-1.295-1.2549-.32-.5207-.481-1.1081-.481-1.7623 0-.65415.161-1.24157.481-1.77559.307-.52067.748-.93453 1.295-1.24159C129.788 7.14685 130.402 7 131.07 7c.681 0 1.282.14685 1.842.45392.548.30706.975.72092 1.295 1.24159.307.53402.468 1.12144.468 1.77559 0 .6408-.161 1.2283-.468 1.7489-.32.5341-.761.9479-1.308 1.255-.547.307-1.161.4672-1.829.4672Zm0-1.2816c.414 0 .788-.0935 1.121-.2804.334-.1869.588-.4405.775-.7876.187-.3338.28-.7076.28-1.1215 0-.4138-.093-.80101-.28-1.13477-.187-.33376-.441-.58742-.775-.77432-.333-.18691-.707-.28036-1.121-.28036-.414 0-.788.09345-1.121.28036-.334.1869-.601.44056-.775.77432-.187.33376-.28.70757-.28 1.13477 0 .4139.093.7877.28 1.1215.187.3471.441.6007.775.7876.333.1869.707.2804 1.121.2804Zm6.836-5.52733h-1.402v6.67523h1.402v-2.6834h3.471v2.6834h1.401V7.13327h-1.401v2.68344h-3.471V7.13327Zm7.009 0h1.402v2.68344h3.471V7.13327h1.402v6.67523h-1.402v-2.6834h-3.471v2.6834h-1.402V7.13327Zm9.946 0h-1.402v6.67523h2.937c.841 0 1.509-.1869 2.002-.5741.481-.3738.721-.8811.721-1.5353 0-.6541-.24-1.1748-.721-1.562-.493-.37379-1.161-.56069-2.002-.56069h-1.522l-.013-2.44314Zm2.509 5.23343c-.213.1735-.507.2536-.894.2536h-1.589l-.013-1.8691h1.602c.374 0 .668.0802.894.2537.214.1736.321.4005.321.6809 0 .2803-.107.5073-.321.6809Zm4.379-5.23343h-1.401v6.67523h1.401V7.13327Zm4.793 6.80893c-.707 0-1.321-.1468-1.869-.4539-.547-.2937-.988-.7075-1.281-1.2282-.308-.5207-.468-1.1081-.468-1.7623 0-.65415.16-1.25492.481-1.78894.32-.52067.761-.93453 1.308-1.25494C165.261 7.14685 165.875 7 166.529 7c.654 0 1.241.14686 1.775.44057.521.30706.935.70757 1.242 1.22824.307.53402.454 1.10809.454 1.74889v.267c-.007.0401-.01.0801-.013.1201-.004.0401-.007.0802-.014.1202h-5.66c.053.3338.187.6409.387.9212.2.2804.467.494.801.6542.334.1736.694.2537 1.108.2537.387 0 .734-.0801 1.068-.2537.32-.1736.547-.4005.694-.6809h1.389c-.094.3872-.281.7476-.574 1.0681-.307.3204-.681.574-1.135.7609-.467.2003-.961.2937-1.509.2937Zm2.056-4.15195c-.08-.32041-.213-.60077-.414-.84108-.2-.22696-.44-.41387-.721-.54737-.28-.12015-.6-.18691-.947-.18691-.348 0-.668.06676-.962.18691-.307.1335-.56.32041-.761.56072-.213.24031-.36.52067-.44.82773h4.245ZM81.1257 26.8388c.534.3071 1.1348.4539 1.8156.4539.5741 0 1.1081-.1201 1.5888-.3471.4806-.2269.8811-.5607 1.1881-.9746.3071-.4138.494-.8944.5741-1.4285h-1.3884c-.1068.4406-.3338.8011-.6809 1.0681-.3605.267-.7877.4005-1.2817.4005-.4138 0-.7743-.0935-1.0947-.2937-.3338-.1869-.5874-.4406-.7743-.7877-.1869-.3338-.2804-.6942-.2804-1.1081 0-.4138.0935-.7877.2804-1.1214.1869-.3338.4405-.5874.7743-.7877.3204-.1869.6809-.2804 1.0947-.2804.494 0 .9212.1335 1.2683.3872.3472.267.5741.6275.6943 1.068h1.3884c-.0667-.534-.2536-1.0146-.5607-1.4285-.3071-.4138-.6942-.7342-1.1748-.9612-.4807-.227-1.0147-.3471-1.6155-.3471-.6541 0-1.2549.1468-1.8023.4539-.5474.3071-.9746.7209-1.2816 1.2416-.3071.534-.4673 1.1214-.4673 1.7756 0 .6542.1602 1.255.4673 1.7756.2937.5207.7209.9346 1.2683 1.2416Zm6.9557-6.355h1.4018v4.8328l3.6047-4.8328h1.4552v6.6752h-1.4018v-4.8329l-3.6047 4.8329h-1.4552v-6.6752Zm9.7859 6.355c.534.3071 1.1347.4539 1.8156.4539.5741 0 1.1081-.1201 1.5891-.3471.48-.2269.881-.5607 1.188-.9746.307-.4138.494-.8944.574-1.4285h-1.389c-.106.4406-.333.8011-.68 1.0681-.361.267-.788.4005-1.2821.4005-.4138 0-.7743-.0935-1.0947-.2937-.3338-.1869-.5874-.4406-.7743-.7877-.187-.3338-.2804-.6942-.2804-1.1081 0-.4138.0934-.7877.2804-1.1214.1869-.3338.4405-.5874.7743-.7877.3204-.1869.6809-.2804 1.0947-.2804.4941 0 .9211.1335 1.2681.3872.347.267.574.6275.694 1.068h1.389c-.067-.534-.254-1.0146-.561-1.4285-.307-.4138-.694-.7342-1.175-.9612-.48-.227-1.014-.3471-1.6151-.3471-.6542 0-1.2549.1468-1.8023.4539-.5474.3071-.9746.7209-1.2816 1.2416-.3071.534-.4673 1.1214-.4673 1.7756 0 .6542.1602 1.255.4673 1.7756.2937.5207.7209.9346 1.2683 1.2416Zm8.5177-5.0467h-2.657v-1.3083h6.715v1.3083h-2.656v5.3669h-1.402v-5.3669Zm6.048 5.0467c.547.3071 1.161.4539 1.869.4539.547 0 1.041-.0934 1.508-.2937.454-.1869.828-.4405 1.135-.7609.294-.3205.481-.6809.574-1.0681h-1.388c-.147.2804-.374.5073-.694.6809-.334.1735-.681.2536-1.068.2536-.414 0-.775-.0801-1.109-.2536-.333-.1602-.6-.3738-.801-.6542-.2-.2803-.333-.5874-.387-.9212h5.661c.007-.04.01-.0801.013-.1201.004-.0401.007-.0801.014-.1202v-.267c0-.6408-.147-1.2149-.454-1.7489-.307-.5207-.721-.9212-1.242-1.2282-.534-.2938-1.121-.4406-1.776-.4406-.654 0-1.268.1468-1.815.4539-.548.3204-.988.7343-1.309 1.255-.32.534-.48 1.1347-.48 1.7889 0 .6542.16 1.2416.467 1.7623.294.5206.734.9345 1.282 1.2282Zm3.511-4.5391c.2.2403.334.5206.414.841h-4.246c.08-.307.227-.5874.441-.8277.2-.2403.454-.4272.761-.5607.294-.1202.614-.1869.961-.1869s.668.0667.948.1869c.28.1335.521.3204.721.5474Zm3.618-1.8159h2.243l2.029 5.0598 2.016-5.0598h2.203v6.6752h-1.375v-5.3669l-2.15 5.3669h-1.415l-2.176-5.3802v5.3802h-1.375v-6.6752Zm11.762 0h-1.402v6.6752h2.937c.841 0 1.509-.1869 2.003-.5741.48-.3738.721-.8811.721-1.5353 0-.6541-.241-1.1748-.721-1.562-.494-.3738-1.162-.5607-2.003-.5607h-1.522l-.013-2.4431Zm2.51 5.2333c-.214.1736-.508.2537-.895.2537h-1.589l-.013-1.8691h1.602c.374 0 .668.0801.895.2537.213.1736.32.4005.32.6809 0 .2803-.107.5073-.32.6808Zm4.379-5.2333h-1.402v6.6752h1.402v-6.6752Zm5.14 0h1.402v4.8328l3.604-4.8328h1.456v6.6752h-1.402v-4.8329l-3.605 4.8329h-1.455v-6.6752ZM81.3126 33.8345h-1.295v9.3453h1.4018v-3.5245c.2804.3071.6275.5474 1.0147.7209.3871.1869.801.267 1.2549.267.6275 0 1.1882-.1468 1.7089-.4539.5073-.307.9078-.7209 1.2015-1.2549.2804-.5207.4272-1.1081.4272-1.7623 0-.6542-.1468-1.2416-.4272-1.7756-.2937-.5207-.6942-.9345-1.2015-1.2416-.5073-.3071-1.0814-.4539-1.7089-.4539-.494 0-.9345.0934-1.335.2803-.4139.2003-.761.4673-1.0414.8278v-.9746Zm3.2442 5.2334c-.3204.2002-.6809.2937-1.068.2937-.3872 0-.7477-.0935-1.0681-.2937-.3204-.1869-.5741-.4406-.7476-.7877-.1869-.3338-.2804-.6942-.2804-1.1081 0-.4139.0935-.7877.2804-1.1214.1735-.3338.4272-.5875.7476-.7877.3204-.1869.6809-.2804 1.0681-.2804.3871 0 .7476.0935 1.068.2804.3204.2002.5741.4539.761.7877.1869.3337.2803.7075.2803 1.1214 0 .4139-.0934.7743-.2803 1.1081-.1869.3471-.4406.6008-.761.7877Zm7.3294 1.5753c-.7075 0-1.3217-.1468-1.869-.4539-.5474-.2937-.988-.7076-1.2817-1.2282-.307-.5207-.4673-1.1081-.4673-1.7623 0-.6542.1603-1.2549.4807-1.789.3204-.5206.7609-.9345 1.3083-1.2549.5474-.3071 1.1615-.4539 1.8157-.4539.6542 0 1.2416.1468 1.7756.4406.5207.307.9345.7075 1.2416 1.2282.3071.534.4539 1.1081.4539 1.7489v.267c-.0067.0401-.01.0801-.0133.1202-.0034.04-.0067.0801-.0134.1201h-5.6606c.0534.3338.1869.6408.3872.9212.2002.2804.4672.494.801.6542.3338.1735.6942.2536 1.1081.2536.3872 0 .7343-.0801 1.068-.2536.3204-.1736.5474-.4005.6943-.6809h1.3884c-.0934.3872-.2803.7476-.5741 1.068-.307.3205-.6808.5741-1.1348.761-.4672.2003-.9612.2937-1.5086.2937Zm2.056-4.152c-.0801-.3204-.2136-.6007-.4138-.841-.2003-.227-.4406-.4139-.721-.5474-.2803-.1202-.6007-.1869-.9479-.1869-.3471 0-.6675.0667-.9612.1869-.3071.1335-.5607.3204-.761.5607-.2136.2403-.3604.5207-.4405.8277h4.2454Zm4.606-2.6569h-1.4018v6.6752h9.5986v-6.6752h-1.401v5.4202h-2.697v-5.4202h-1.402v5.4202h-2.6968v-5.4202Zm13.0698 6.8089c-.707 0-1.321-.1468-1.869-.4539-.547-.2937-.988-.7076-1.281-1.2282-.307-.5207-.468-1.1081-.468-1.7623 0-.6542.161-1.2549.481-1.789.32-.5206.761-.9345 1.308-1.2549.548-.3071 1.162-.4539 1.816-.4539.654 0 1.242.1468 1.776.4406.52.307.934.7075 1.241 1.2282.307.534.454 1.1081.454 1.7489v.267c-.007.0401-.01.0801-.013.1202-.004.04-.007.0801-.014.1201h-5.66c.053.3338.187.6408.387.9212s.467.494.801.6542c.334.1735.694.2536 1.108.2536.387 0 .734-.0801 1.068-.2536.321-.1736.547-.4005.694-.6809h1.389c-.094.3872-.281.7476-.574 1.068-.307.3205-.681.5741-1.135.761-.467.2003-.961.2937-1.509.2937Zm2.056-4.152c-.08-.3204-.213-.6007-.414-.841-.2-.227-.44-.4139-.721-.5474-.28-.1202-.6-.1869-.947-.1869-.348 0-.668.0667-.962.1869-.307.1335-.56.3204-.761.5607-.213.2403-.36.5207-.44.8277h4.245Zm4.606-2.6569h-1.402v6.6752h1.402V37.826h3.471v2.6835h1.402v-6.6752h-1.402v2.6834h-3.471v-2.6834Zm7.143 0h1.402v4.8328l3.604-4.8328h1.455v6.6752h-1.401v-4.8329l-3.605 4.8329h-1.455v-6.6752Zm8.544 3.391c.227.3337.548.6007.961.7743l-1.829 2.5099h1.629l1.562-2.2295h1.669v2.2295h1.402v-6.6752h-2.924c-.868 0-1.562.2002-2.056.5874-.494.4005-.748.9479-.748 1.6287 0 .454.107.8411.334 1.1749Zm2.403-2.2429h1.589v2.1628h-1.589c-.414 0-.734-.0935-.974-.2937-.241-.2003-.361-.454-.361-.7877 0-.3338.12-.5874.361-.7877.24-.2003.56-.2937.974-.2937ZM40.8329 7.00977l8.781 17.56193 8.7809-17.56193H40.8329ZM58.392 42.2992l-8.781-17.5619-8.781 17.5619h17.562ZM38.8034 8.26888 49.6146 24.6433l10.813-16.3769 8.7809 15.2091-19.5699 1.1746 19.5731 1.1749-8.7809 15.2091-10.815-16.3801-.0162-.001-19.5772-1.175 8.781-15.20912ZM30 25.8295l19.5996-1.1765L38.781 41.0386 30 25.8295Z"/>
</svg>