<svg xmlns="http://www.w3.org/2000/svg" viewBox="0 0 200 50">
	<path fill="#036D7B" d="M26.6702 24.0619 20 18.4621 22.9065 15l6.6702 5.5998c2.9608 2.4857 2.9584 7.0425-.0051 9.525l-6.6438 5.5656-2.9028-3.4652 6.6438-5.5656c.8082-.677.8089-1.9198.0014-2.5977Z"/>
	<path fill="#036D7B" d="m44.7528 23.3703-3.7347-.7428c1.011-3.4664 3.941-5.2408 8.0883-5.2408 5.1995 0 8.4595 2.7855 8.4595 8.1501s-3.26 8.15-8.4595 8.15c-4.2917 0-7.2629-1.8982-8.1709-5.5709l3.7347-.6397c.5778 1.8984 2.1045 2.9094 4.4362 2.9094 2.4555 0 4.0028-1.1967 4.4774-3.322h-6.6439v-3.0537h6.6439c-.4746-2.1252-2.0219-3.3219-4.4774-3.3219-2.2284 0-3.7346.9285-4.3536 2.6823Zm15.014 9.9039V17.7994h3.7965v6.1073h2.7648l4.1885-6.1073h4.4155l-5.4058 7.3866 5.8389 8.0882h-4.6423l-4.3122-6.1487h-2.8474v6.1487h-3.7965Zm28.2562-5.5709 3.714.7427c-.9903 3.4458-3.9203 5.2408-8.088 5.2408-5.179 0-8.4596-2.7854-8.4596-8.15s3.26-8.1501 8.4596-8.1501c4.2914 0 7.2833 1.8982 8.1913 5.571l-3.7553.6396c-.5777-1.8983-2.1046-2.9093-4.436-2.9093-3.0126 0-4.622 1.7745-4.622 4.8488s1.6094 4.8488 4.622 4.8488c2.2283 0 3.7346-.9492 4.374-2.6823Zm20.882-9.9039v15.4748h-3.797v-9.5944l-7.2626 9.5944h-3.7965V17.7994h3.7965v9.6562l7.2626-9.6562h3.797Zm12.529 9.0579h-5.736v3.1156h5.736c.97 0 1.63-.4539 1.63-1.5475 0-1.0935-.66-1.5681-1.63-1.5681Zm-9.533-9.0579h14.072v3.3013h-10.275v2.806h6.251c2.827 0 4.973 1.5269 4.973 4.6013 0 3.0949-2.146 4.7662-4.973 4.7662h-10.048V17.7994Zm23.743 3.4663-2.064 6.1487h5.056l-2.064-6.1487h-.928Zm-4.003 12.0085h-4.045l5.613-15.4748h5.819l5.611 15.4748h-4.043l-.95-2.8268h-7.077l-.928 2.8268Zm25.995 0v-6.0868h-7.592v6.0868h-3.797V17.7994h3.797v6.0867h7.592v-6.0867h3.797v15.4748h-3.797Zm6.766 0V17.7994h3.796v6.1073h2.765l4.188-6.1073h4.416l-5.406 7.3866L180 33.2742h-4.643l-4.312-6.1487h-2.847v6.1487h-3.796Z"/>
</svg>