<svg xmlns="http://www.w3.org/2000/svg" viewBox="0 0 200 50">
	<g fill="#00508F">
		<path d="M134.839 32.9474h4.724l-2.352-5.9499-2.372 5.9499Zm-1.146-8.6659c.745-1.7686 1.697-2.428 3.518-2.428 1.801 0 2.79.6803 3.513 2.428l7.025 16.9339h-4.98l-1.806-4.4951h-7.535l-1.779 4.4951h-4.981l.089-.2093 6.936-16.7246Zm-81.8789-1.3419c-.8014.8112-.8014 1.7111-.8014 2.3705v15.903h4.6835V26.5765c0-.0942 0-.3192.0157-.45.078-.0157.2341-.0262.5204-.0262h10.2309V22.05H54.031c-.8483 0-1.6549.3244-2.2169.8896Zm21.8146 14.1723c-.0104-.0313-.0312-.0942-.0312-.1674v-3.4694h10.4183v-4.0504H73.5975v-2.8886c0-.1674.0052-.3087.052-.3505.0833-.0786.3538-.0786.4476-.0786h10.1737v-4.0502H72.3174c-.5777 0-1.7851 0-2.6229.9209-.484.5547-.7753 1.4182-.7753 2.313v12.5957c0 .9053.104 1.8472.8638 2.5851.7753.7483 1.6444.7483 2.4822.7483h12.1044v-4.0503H74.2948c-.4528-.0052-.614-.0367-.6661-.0576Zm18.8752-7.7713h7.7691v-7.2895h4.679v19.163h-4.679v-7.8232h-7.7691v7.8232h-4.6835v-19.163h4.6835v7.2895Zm28.2521 5.924V35.353c0 .4469 0 1.1778-.328 1.5025-.302.3035-.718.3035-1.249.3035h-5.397c-.364 0-.525-.021-.593-.0419-.01-.0889-.026-.2668-.026-.5861v-2.9879h6.016c.468 0 .952.0209 1.233.2929.318.3037.344.8479.344 1.4286Zm.083-5.7718h-7.676v-2.988c0-.2094.016-.314.026-.3559.057-.0157.193-.0419.469-.0419h10.975v-4.0502H111.55c-1.171 0-1.884.4761-2.279.8738-.708.7535-.791 1.7321-.791 2.4072v12.8259c0 .6227.072 1.4234.645 2.1037.541.6279 1.306.9524 2.274.9524h9.487c2.003 0 3.07-.8792 3.528-1.4077.755-.8791 1.124-2.3286 1.124-4.4427 0-1.9519-.343-3.3544-1.051-4.2858-.812-1.0571-2.04-1.5908-3.648-1.5908Zm41.33-.1522H154.4v-7.2895h-4.684v19.163h4.684v-7.8232h7.769v7.8232h4.678v-19.163h-4.678v7.2895Zm17.282 2.067c0 .1099.115.3977.9 1.1095l9.648 8.697h-6.26l-7.426-7.0173c-.385-.3663-.697-.7483-.932-1.1408v8.1581h-4.684v-19.163h4.684v7.6977c.177-.293.401-.5757.666-.8426l6.854-6.8551h6.089l-8.821 8.4826c-.692.6751-.718.8635-.718.8739Z"/>
		<path d="M19.7865 9h22.6968l-6.1298 6.1105h-16.567c-2.014 0-3.6577 1.641-3.6577 3.6457v16.5102l-6.12978 6.1073V18.7562C9.99902 13.389 14.4039 9 19.7865 9Z"/>
	</g>
	<path fill="#50B848" d="M42.4836 31.6178c0 5.364-4.4049 9.7561-9.7875 9.7561H13.8877c2.0433-2.0368 4.0865-4.0736 6.1298-6.1105h12.6754c2.014 0 3.6576-1.641 3.6576-3.6456v-3.3754h-9.2839l6.1297-6.1106h9.2873v9.486Zm-22.5116-9.486h9.336l-6.1331 6.1106H19.972v-6.1106Z"/>
</svg>