<svg xmlns="http://www.w3.org/2000/svg" viewBox="0 0 200 50">
	<path fill="#000" d="M54.8374 12.8585h6.5312v10.6979c-2.1809.4419-3.851.6657-5.6818.6657-7.1625 0-9.6878-4.1035-9.6878-10.8585C45.999 6.10352 49.4999 2 56.4788 2c.8838 0 2.5539.06313 4.6372.37879v6.84685h-1.5151l-.8551-2.61707c-.8207-2.49081-1.7964-3.72474-3.346-3.72474-2.6802 0-4.1035 3.62717-4.1035 10.41667 0 6.8181.5682 10.0378 4.0691 10.0378.4763 0 1.0388-.0631 1.5783-.2181V15.16l-2.1121-1.4521v-.8494h.0058Zm6.4049 28.7189c0 4.2929-2.9327 6.7551-8.1095 6.7551-1.4175 0-3.5009-.2181-5.4579-.5395v-8.3907H49.19l.6313 1.9857c1.4176 4.5742 2.4277 6.0893 4.2298 6.0893 1.8939 0 3.2484-1.6701 3.2484-3.8797 0-1.7963-.8494-3.059-2.6802-4.0404l-3.1566-1.7045c-2.4334-1.2913-3.7591-3.3115-3.7591-5.7736 0-3.7248 3.0589-5.963 8.0807-5.963 1.1364 0 2.4621.0975 4.5742.3787v6.8469h-1.5152l-.8494-2.6171c-.8551-2.7777-1.7676-3.7878-3.4377-3.7878-1.8653 0-2.9672 1.1995-2.9672 2.9327 0 1.5438.8551 2.6515 2.5252 3.5985l3.1853 1.7963c2.6802 1.5152 3.9428 3.5354 3.9428 6.3131Zm13.952 4.9587.6313.947v.4763h-4.8267l-.2238-1.8308c-.5051 1.3889-1.8308 2.2096-3.5353 2.2096-2.5253 0-4.1036-1.5783-4.1036-4.1667 0-2.5252 1.4176-4.1953 5.7737-5.8998l1.8595-.7232V35.184c0-2.0833-.3788-2.9327-1.5439-2.9327-.947 0-1.4807.505-2.399 2.8064l-1.0388 2.5769h-1.4175v-5.148c1.8595-.5682 3.7247-.947 5.3317-.947 3.564 0 5.4924 1.7045 5.4924 4.798v10.1985Zm1.825-30.7104c0 5.3661-2.8696 8.3964-6.5656 8.3964-3.6903 0-6.5599-3.0303-6.5599-8.3964 0-5.3661 2.8696-8.39643 6.5656-8.39643 3.6903 0 6.5599 3.03033 6.5599 8.39643Zm-6.2442 28.0589v-5.458l-.5969.2525c-1.8652.7576-2.5597 2.4622-2.5597 4.953 0 1.8652.442 2.9327 1.4807 2.9327 1.0388 0 1.6759-1.0101 1.6759-2.6802Zm1.607-28.0589c0-6.06058-.5051-7.66755-1.9227-7.66755-1.4175 0-1.9226 1.60697-1.9226 7.66755 0 6.0606.5051 7.6676 1.9226 7.6676 1.4176 0 1.9227-1.607 1.9227-7.6676ZM88.228 44.0395l.5681.287c-1.0101 2.904-2.3014 4.006-4.7979 4.006-4.0691 0-6.3418-3.059-6.3418-8.3965 0-5.3317 2.6515-8.3964 6.9731-8.3964 1.165 0 2.7146.1894 4.0404.7231v5.3662h-1.4807l-.5969-2.0202c-.792-2.6802-1.2282-3.3747-2.0202-3.3747-1.2626 0-2.2727 1.6414-2.2727 7.8914 0 5.0161.7576 6.8469 2.6802 6.8469 1.2913.0057 2.3932-.815 3.2484-2.9328Zm-3.5067-20.1962h-5.6818v-.4706l.6313-.9469V4.8122l-.6313-.94696v-.47636L84.09 3.0101V22.42l.6313.947v.4763Zm7.7651.3788c-3.4722 0-5.5555-3.1565-5.5555-8.5514 0-5.3661 2.1752-8.23569 5.5211-8.23569 1.7045 0 2.6515.66001 3.059 1.98576V4.8122l-.6313-.94696v-.47636l5.0505-.37878V22.42l.6308.947v.4706h-4.4818l-.3444-2.399c-.4993 2.0547-1.4463 2.7835-3.2484 2.7835Zm11.0766 22.314.631.947v.4763h-5.6814v-.4763l.6313-.947V35.1725c0-1.3544-.4075-2.1752-1.3889-2.1752-1.1708 0-2.0202.9814-2.0202 2.9041v10.6347l.6313.947v.4763h-5.6818v-.4763l.6313-.947V28.9225l-.6313-.9469v-.4707l5.0505-.3787v6.5312c.5682-1.3545 1.8595-2.1121 3.6903-2.1121 2.5879 0 4.1319 1.6414 4.1319 4.8267v10.1641h.006Zm-11.9891-30.808c0 5.6818.5051 7.4151 1.8939 7.4151 1.7333 0 2.0489-2.4908 2.0489-7.4782 0-4.8267-.3443-7.22563-2.0202-7.22563-1.4175 0-1.9226 1.70453-1.9226 7.28873ZM123.26 22.42l.631.947v.4706h-5.682v-.4706l.632-.947V10.7121c0-1.13637-.379-1.83082-1.263-1.83082-1.102 0-1.986.98141-1.986 2.86962V22.42l.632.947v.4706h-5.682v-.4706l.631-.947V10.7121c0-1.13637-.379-1.83082-1.262-1.83082-1.102 0-1.986.98141-1.986 2.86962V22.42l.631.947v.4706h-5.682v-.4706l.632-.947V9.57573l-.632-.75758v-.47061l4.546-.53948h.379l.126 1.76767c.534-1.38889 1.859-2.14646 3.661-2.14646 1.923 0 3.186.94697 3.754 2.65153.47-1.64143 1.957-2.65153 3.851-2.65153 2.491 0 4.069 1.64141 4.069 4.82663V22.42Zm-5.9 20.8964c0 2.7433-1.768 5.0161-6.026 5.0161-1.102 0-2.588-.1263-4.89-.5395v-5.8655h1.291l.408 1.2626c1.01 3.2197 1.986 4.4192 3.535 4.4192 1.452 0 2.399-1.0445 2.399-2.6515 0-1.3257-.665-2.2383-2.238-3.0934l-2.715-1.452c-1.733-.947-2.68-2.4277-2.68-4.2585 0-2.8696 2.244-4.6086 5.963-4.6086 1.073 0 2.462.155 3.977.4706v4.6086h-1.291l-.666-1.6758c-.757-2.0202-1.48-2.6802-2.68-2.6802-1.291 0-2.049.7575-2.049 2.0202 0 1.0732.632 1.7963 2.175 2.6802l2.681 1.5151c1.825 1.0445 2.806 2.5252 2.806 4.8324ZM137.78 22.42l.631.947v.4706h-4.826l-.218-1.8308c-.505 1.3889-1.831 2.2096-3.536 2.2096-2.525 0-4.103-1.5783-4.103-4.1667 0-2.5252 1.417-4.1953 5.773-5.8998l1.86-.7232v-2.3645c0-2.08335-.379-2.93275-1.544-2.93275-.947 0-1.481.50505-2.399 2.80645l-1.039 2.5884h-1.423V8.38198c1.865-.56818 3.725-.94697 5.332-.94697 3.564 0 5.492 1.70454 5.492 4.79799V22.42Zm-4.419-2.6515v-5.4579l-.597.2525c-1.859.7576-2.554 2.4621-2.554 4.9529 0 1.8652.442 2.9385 1.481 2.9385 1.039 0 1.67-1.0101 1.67-2.686Zm20.638 3.5985v.4706h-5.682v-.4706l.632-.947V11.0564c0-1.36015-.408-2.17512-1.389-2.17512-1.171 0-2.021.9814-2.021 2.90402V22.42l.632.947v.4706h-5.682v-.4706l.631-.947V9.57573l-.631-.75758v-.47061l4.545-.53948h.379l.126 1.76767c.534-1.38889 1.831-2.14646 3.691-2.14646 2.588 0 4.132 1.64141 4.132 4.82663V22.42l.637.947Z"/>
</svg>