<svg xmlns="http://www.w3.org/2000/svg" viewBox="0 0 200 50">
	<g fill="#f37021">
		<path d="M37.5 28.1v-1.5-1.5c0-.4-.1-.8-.2-1.1v-.3c-.1-.1-.1-.1-.1-.2s0-.2-.1-.2c-.1-.2-.2-.3-.4-.5l-.1-.1h-.1c-.1-.1-.2-.1-.4-.2.1 0 0 0 0 0h-.7v.1h-.6v.1c-.1 0-.2 0-.2.1-.1 0-.1 0-.1.1s-.1.1-.2.1v-.1h-.1v.1h-.1s-.1.1-.1.2l-.3.3s-.1 0-.1.1v.1s0 .1-.1.1 0 0 0 .1v1.7h.1v.5h-.1v.4c-.1.1 0 .2 0 .3v.2l.1-.3.1.1V27.6h-.1.1v1.3c0 .1.1.2.1.3v-.1s.1 0 .1-.1v-.2-.5-.1-.1.7-.2-1.5-1-.8-.1-.1-.5-.1-.1c.1-.1.1-.3.1-.4v-.1-.1s0-.1.1-.1c0-.1.1-.2.1-.3s.1-.1.1-.1c.1 0 .1-.1.1-.2s.1-.1.2-.2l.1-.1s.1-.1.2-.1h.1s.1-.1.2-.1.1-.1.2 0h.1v-.1h.2c.1 0 .2-.1.3-.1s.2 0 .3.1h.1l.1.1h.1l.1.1s.1.1.2.1c.1.1.2.3.3.4v.1c0 .1 0 .3.1.3s0 .1 0 .2v.2c-.1.1 0 .2.1.3v.5-.1c0 .1-.1.1-.1.2s0 .2.1.2V26.8c0 .1 0 .2.1.3v.1h-.1v.2s0 .1-.1.1v.1h.1v.1l.1.1V28.6h-.1l.1.1v.1h-.1l.1.1v.2h-.1l.1.1h-.1l.1.1v.2c-.1-.1-.2-.1-.4 0-.1 0-.2.1-.3.2s-.1.2 0 .4c0 .1.1.2.2.3h.6v-.9-.8c-.1-.5-.1-.6-.1-.6"/>
		<path d="M18 35.9h21.9V14H18v21.9zm20.7-1.2H19.1V15.1h19.6v19.6z"/>
	</g>
	<g fill="#007638">
		<path d="M31.5 28v-1.5V25c0-.4-.1-.8-.2-1.1v-.3l-.1-.1v-.1c0-.1 0-.2-.1-.2-.1-.2-.2-.3-.4-.5l-.1-.1h-.1c-.1-.1-.2-.1-.4-.2 0 0 0-.1-.1-.1H29.2v.1h-.6v.1c-.1 0-.2 0-.2.1-.1 0-.1 0-.1.1s-.1.1-.2.1h-.9v-.1h.1l-.3.3-.3.3s-.1 0-.1.1 0 .1-.1.1 0 .1-.1.1 0 0 0 .1V25.3h.1v1h-.1v.4c-.1.1 0 .2 0 .3v.2h-.1l.1.1v.1l.1-.1v.7h.5v.6l-.1.1v.7c0 .1.1.2.1.3 0 0 .1 0 .1-.1v-.2-.5-.1-.1-.4-1.5-1-.8-.1-.1-.2-.1V24.2v-.1-.1c.1-.1.1-.3.1-.5v-.1s0-.1.1-.2.1-.2.1-.3.1-.1.1-.1.1-.1.1-.2.1-.1.2-.2l.1-.1s.1-.1.2-.1h.1s.1-.1.2-.1c0 0 .1-.1.2 0h.1V22h.3c.2-.1.4-.1.6 0h.1v-.1l.1.1h.2s.1.1.2.1c.1.1.2.3.3.4v.1h.1c0 .1 0 .3.1.3s0 .1 0 .2l-.3.2v.1c-.1.1 0 .2.1.3v.6c0 .1-.1.1-.1.2s0 .2.1.2V25l.5 1V27s0 .1.1.1v.1H31v.2s0 .1-.1.1v.1h.1v.1l.1.1v.1H31v1.5l.1.1v.1H31l.1.1V30H31l.1.1-.1-.8.1.1V29.7h.2v.3h.4v-.1-.9-.8l-.2-.2"/>
		<path d="M101.8 32.4c-.4 0-.9-.1-1.3-.3-1.1-.6-2.1-1.3-2.9-2.2-.8-.8-4.8-5.1-5.6-6.1l4.4-4.4c.6-.7 1.4-1.2 2.2-1.5.4-.1.8-.2 1.2-.2.2 0 .3 0 .3-.2s-.2-.2-.3-.2c-.6 0-1.8.1-2.4.1s-1.7-.1-2.1-.1c-.2 0-.3 0-.3.2s.1.2.3.2c.2 0 .3.2.3.4s-.4.9-1 1.5-3.6 3.8-4.3 4.5h-.1v-5.3c0-.7.2-1.1.8-1.1.2 0 .4-.1.6-.1.2 0 .3 0 .3-.2s-.2-.2-.4-.2c-.7 0-2 .1-2.5.1s-1.8-.1-2.8-.1h-.1c-.8 0-2.1.1-2.6.1s-1.9-.1-3-.1c-.3 0-.4 0-.4.2s.1.2.3.2c.3 0 .5 0 .8.1.7.2.8.5.9 1.1s0 1.2 0 4.4v.5c0 .1-.1.2-.1.2h-7.1c-.1 0-.1 0-.1-.2v-4.8c0-.7.2-1.1.8-1.1.2 0 .4-.1.6-.1.3 0 .4 0 .4-.2s-.2-.2-.4-.2c-.8 0-2.1.1-2.6.1s-1.9-.1-3-.1c-.3 0-.4 0-.4.2s.1.2.3.2c.3 0 .5 0 .8.1.7.2.8.5.9 1.1s0 1.2 0 4.4v3.6c0 1.5 0 2.9-.1 4.4-.1.6-.2 1-.6 1.2H71c-.7 0-.9-.5-1.7-2.2-1.3-3.1-4.6-11.5-5.1-12.6-.2-.5-.3-.7-.5-.7s-.3.2-.6.8l-4.8 12.9c-.4 1-.8 1.7-1.7 1.9h-.4c-.2 0-.3 0-.3.2s.1.2.4.2c1.1 0 1.9-.1 2.1-.1.6 0 1.5.1 2.2.1.2 0 .3 0 .3-.2s-.1-.2-.3-.2h-.3c-.6 0-.8-.3-.8-.6l.3-1.2 1.1-2.9c0-.1.1-.2.2-.2h4.6c.1 0 .2 0 .2.2l1.7 4.4v.2l-.1.1-.1.1c-.2 0-.3.1-.3.2s.3.2.6.2h8.9c.1 0 .2-.1.2-.1v-.2h-.3c-.3 0-.7 0-1-.1-.6-.1-.7-.5-.8-1.1-.1-1.5-.2-2.9-.1-4.4v-2c0-.1.1-.1.1-.1H82v2c0 1.5 0 2.9-.1 4.4-.1.6-.2 1-.6 1.2-.2.1-.5.1-.7.1-.3 0-.3.1-.3.2s.2.2.4.2c.8 0 2.1-.1 2.6-.1s1.6 0 2.8.1h.2c.8 0 2.1-.1 2.6-.1s1.8.1 3 .1c.2 0 .4-.1.4-.2s-.1-.2-.3-.2c-.3 0-.7 0-1-.1-.5-.1-.7-.5-.7-1.1-.1-.9-.1-2.5-.1-4.4V25h.1l.2.3c.4.6 4.4 5.3 5.4 6.1.7.8 1.6 1.2 2.6 1.3h3.2c.4 0 .5-.1.5-.2-.1-.1-.2-.1-.4-.1zm-36.3-5.9h-3.8c-.1 0-.1-.1-.1-.2l1.9-5.1c0-.1.1-.2.1-.2s.1.1.1.2l1.9 5.1c-.1.1-.1.2-.1.2zm22.2.4c0 1.5 0 2.9-.1 4.4-.1.6-.2 1-.6 1.2-.2.1-.3.1-.5.1-.3 0-.6 0-.9-.1-.6-.1-.7-.5-.8-1.1-.1-1.5-.2-2.9-.1-4.4v-8c0-.7.2-1.1.8-1.1.2 0 .4-.1.5-.1.3 0 .5 0 .8.1.7.2.8.5.9 1.1s0 1.2 0 4.4v3.5c-.1 0 0 0 0 0z"/>
		<path d="M54.4 24.2c-.8-.2-1.7-.3-2.6-.3-.5 0-.8 0-1-.1h-.1v-.4c0-2.6 0-4.1.5-4.5s1.1-.4 2.7-.4c1.1 0 1.9 0 2.4.6.3.4.5.8.5 1.2 0 .2 0 .3.2.3s.2-.1.2-.3c0-.8-.1-1.6-.3-2.4-.1-.5-.2-.5-1.3-.5h-3.9v-.1c-.6 0-1.3.1-2.2.1-.4 0-1.7-.1-2.8-.1-.3 0-.5 0-.5.2s.1.2.3.2c.2 0 .6 0 .7.1.7.1.8.5.9 1.1v7.9c0 1.5 0 2.9-.1 4.4-.1.6-.2 1-.6 1.1-.2.1-.5.1-.7.1-.3 0-.3.1-.3.2s.2.2.4.2h2.5c.2 0 .9 0 1.5.1s1.2.1 1.4.1c3.8 0 5.4-2.3 5.4-4.5.2-2.4-1.6-3.6-3.2-4.3 0 .1 0 0 0 0zm-1.5 7.7c-.5 0-1-.1-1.5-.3-.7-.3-.7-.6-.7-2v-4.8c0-.1 0-.2.1-.2h.9c.6 0 1.2.1 1.7.5.6.5 1.2 1.1 1.5 1.8.3.7.5 1.5.5 2.3 0 .3 0 .7-.1 1-.1.3-.3.6-.5.9-.2.3-.5.5-.8.6-.4.2-.8.3-1.1.2zm122.8-5.4H172c-.1 0-.1-.1-.1-.2l1.9-5.1c0-.1.1-.2.1-.2s.1.1.1.2l1.9 5.1c0 .1 0 .2-.2.2zm7 6c-.3 0-.6 0-.9-.1-.4-.1-1-.4-1.8-2.3-1.3-3.1-4.6-11.5-5.1-12.6-.2-.5-.3-.6-.5-.6s-.3.2-.6.8l-5.1 12.9c-.4 1-.5 1.7-1.4 1.9h-.3c-.2 0-.3 0-.3.2s.1.2.4.2h4c.2 0 .3 0 .3-.2s-.1-.2-.3-.2h-.3c-.6 0-.8-.3-.8-.6 0-.4.1-.8.3-1.2l1.1-2.9c0-.1.1-.2.2-.2H176.3l.1.1 1.6 4.4v.2s0 .1-.1.1l-.1.1c-.2 0-.3.1-.3.2s.3.2.6.2h3.9c.8 0 .9 0 .9-.2s-.1-.3-.2-.2"/>
		<path d="M121.8 26.8c0 1.5 0 3-.1 4.5-.1.6-.2.9-.6 1-.3.1-.6.1-.9 0-.4-.1-.7-.5-.7-1.2v-8c0-1.5 0-3 .1-4.5.1-.6.2-.9.6-1 .3-.1.6-.1.9 0 .4.1.7.5.7 1.1V26.8zm45.1-2.1c-.5-.3-1.1-.5-1.7-.7.4-.1.7-.3 1-.5.8-.4 1.4-1.1 1.7-1.9.1-.4.2-.8.2-1.2 0-.6-.1-1.1-.4-1.6-.2-.3-.4-.5-.6-.7-1.1-.7-2.4-1-3.8-.9-.9 0-1.7.1-2.6.3h-.7c-.3-.1-.6-.1-.9-.1-.1 0-.2-.1-.3-.1-.1 0-.1.1-.1.2.1.5.1 1 .2 1.5 0 .2.1 1.1.1 1.4 0 .1.1.2.2.2s.2-.1.2-.3c0-.3 0-.5.1-.7l.3-.3c.3-.3.7-.6 1.2-.7h.2c.6-.2 1.2-.3 1.8-.3.5 0 .9 0 1.3.2.4.1.8.4 1.2.7.5.5.8 1.3.7 2 0 .4-.1.8-.2 1.1-.1.4-.4.7-.7 1-.3.3-.7.6-1.1.7-.5.1-1.1.2-1.6.2s-1 0-1.5.2c-.2.2-.2.4 0 .6.4.1.8.2 1.2.1h.4c.6-.1 1.1 0 1.7.1.7.2 1.4.7 1.8 1.3.4.6.7 1.4.6 2.2 0 .9-.3 1.9-.9 2.6-.4.3-.8.6-1.3.7-.5.2-1 .2-1.5.2-1.1.1-2.1-.2-3-.8-.4-.4-.7-.8-.9-1.3 0-.1-.1-.1-.1-.2 0-.2-.3-1-.4-1.4-.1-.6-.5-.3-.5.1 0 .2-.1 1.5-.1 1.6v.3c0 .3-.1.6-.3.8-.2.2-.4.4-.7.5-.5.2-1.1.2-1.6.2-2.1 0-3.7-.3-3.7-1.7v-4.8c0-.1 0-.2.1-.2.5 0 3.4 0 3.8.1.8.1 1.1.4 1.1.8.1.3.1.5.1.8 0 .1 0 .2.2.2s.2-.3.2-.4 0-1 .1-1.4c.1-1 .2-1.4.2-1.5s-.1-.2-.1-.2-.2.1-.3.3-.5.3-1 .3H152c-.1 0-.1-.1-.1-.3v-5.2c0-.2 0-.3.1-.3.4 0 3.5.1 3.8.1 1 .1 1.2.4 1.4.7.1.2.1.5.1.8 0 .2 0 .3.2.3s.2-.1.2-.2.1-1.1.1-1.4c.1-.9.2-1.2.2-1.3 0-.1 0-.2-.1-.2s-.2.1-.3.1c-.3.1-.6.1-.9.1H148c0-.1-.1-.2-.2-.2-.7.1-1.3.2-2 .2h-7c-.7 0-1.3 0-2-.1-.5 0-.7-.2-.9-.2s-.2 0-.3.3h-2.3c-.5 0-1.9-.1-3-.1-.3 0-.4 0-.4.2s.1.2.3.2c.3 0 .6 0 .8.1.7.2.9.5.9 1.2v4.8c0 .1-.1.2-.1.2h-7.2c-.1 0-.1 0-.1-.2v-4.8c0-.7.2-1.1.8-1.2.2 0 .4-.1.6-.1.3 0 .4 0 .4-.2s-.2-.2-.4-.2h-7.5c-.1 0-.2.1-.3.2-.6.8-.7.9-1.2 1.6-2.7 3.4-6.1 10.3-6.8 11v-6.9c-.1-1.5 0-2.9.1-4.4 0-.7.2-1.1.7-1.1.2 0 .4-.1.6-.1.2 0 .3 0 .3-.2s-.1-.2-.4-.2c-.8 0-2 .1-2.5.1s-1.9-.1-2.7-.1c-.3 0-.5 0-.5.2s.1.2.3.2c.3 0 .5 0 .7.1.4.1.7.4.7 1.1v8c0 1.5 0 3-.1 4.5-.1.6-.2 1-.6 1-.2.1-.5.1-.7.1-.3 0-.3.1-.3.2s.2.2.4.2h2.6c.3 0 .5 0 .7-.1.1 0 .1-.1.2-.1 1.2-1.2 7-11 7.3-11.4V26l-.1 4c0 1.6-.3 2.1-.7 2.3-.3.1-.7.1-1.1.1-.3 0-.3 0-.3.2s.2.2.4.2h.5c.8 0 2-.1 2.5-.1s2.9.1 2.9.1h2.1c.6 0 1.9.1 3.2.1.3 0 .4-.1.4-.2s-.1-.2-.3-.2c-.3 0-.7 0-1-.1-.6-.1-.7-.5-.8-1.1-.1-1.5-.2-2.9-.1-4.4v-1.8c0-.1.1-.1.1-.1h7.2v1.8c0 1.5 0 2.9-.1 4.4-.1.6-.2 1-.6 1.2-.2.1-.5.1-.7.1-.3 0-.3.1-.3.2s.2.2.4.2c.8 0 2.1-.1 2.6-.1h2.7c.3 0 .4 0 .4-.2s-.1-.2-.3-.2c-.2 0-.5 0-.7-.1-.4-.1-.5-.5-.6-1-.1-1.5-.2-3-.1-4.5v-8c0-.7.3-1 .7-1.1.1 0 .2 0 .3-.1v2c0 .3.1.3.2.3s.2-.1.3-.3c.1-.3.2-.5.3-.7.3-.5.8-.5 2-.6l2.1-.1v8.4c0 1.5 0 2.9-.1 4.4-.1.6-.3 1.1-.7 1.2-.4.1-.8.1-1.1.1-.3 0-.3.1-.3.2s.1.2.4.2c.8 0 2.6-.1 3.1-.1s1.9.1 3.2.1c.3 0 .4-.1.4-.2s-.1-.2-.3-.2c-.3 0-.7-.1-1-.1-.6-.1-.7-.5-.8-1.1-.1-1.5-.2-2.9-.1-4.4v-8.4l2 .1c1.8 0 2.4.6 2.5 1.1v.2c0 .3.1.5.3.5s.2-.1.2-.3v-2.3H148.4c.7.2.8.5.9 1.2.1 1.5.1 2.9.1 4.4v3.6c0 1.5 0 2.9-.1 4.4-.1.6-.2 1-.6 1.1-.3.1-.5.1-.8.1-.3 0-.3.1-.3.2s.2.2.4.2h2.6c.6 0 1.3 0 2.2.1.9.1 2.9.1 4.4.1.8 0 .9 0 1.1-.5.2-.5.3-.9.4-1.2l.6.6c1.2.9 2.6 1.3 4.1 1.3.9 0 1.7-.1 2.5-.3.9-.4 1.7-1 2.3-1.8.6-.8.9-1.7 1.1-2.7 0-.7-.1-1.4-.5-2-.8-.8-1.3-1.3-1.9-1.7"/>
	</g>
	<path fill="#e8b909" d="M37.5 20.2c-.1-.1-.3-.1-.5-.1-.8-.1-1.6-.1-2.5-.1h-1.4l-3.7-.1c-.9-.1-1.8-.1-2.7 0h-6.3c-.1 0-.3.2-.3.3v.2h3.7c.8-.1 1.6-.1 2.5-.1h3.4c1.2 0 2.5 0 3.7.1l.7.1c.6-.1 1.2-.1 1.9 0 .5 0 .9.1 1.3.1l.2-.2c.1-.1.1-.3 0-.4"/>
	<path fill="#0061af" d="M25.4 28v-1.5V25c0-.4-.1-.8-.2-1.1v-.3c-.1-.1-.1-.1-.1-.2s0-.2-.1-.2c-.1-.2-.2-.3-.4-.5l-.1-.1h-.1c-.1-.1-.2-.1-.4-.2 0 0 0-.1-.1-.1h-.7v.1h-.6v.1c-.1 0-.2 0-.2.1-.1 0-.1 0-.1.1s-.1.1-.2.1H22v-.1l-.3.3-.3.3c-.1.1-.1 0-.1.1s0 .1-.1.1 0 .1-.1.1 0 0 0 .1v1.4h.1v.2h.1v1.1h-.1v.4c-.1.1 0 .2 0 .3v.2h-.1l.1.1v.1h.1v.7h-.1.1v1.4c0 .1.1.2.1.3 0 0 .1 0 .1-.1v-.2-.6-.4-2.5-.8-.1-.1-.2-.1V24.5v-.1-.1c.1-.1.1-.3.1-.5v-.1s0-.1.1-.2.1-.2.1-.3c.1 0 .1-.1.1-.2s.1-.1.2-.2c0 0 0-.1.1-.1s.1-.1.2-.1h.1s.1-.1.2-.1c0 0 .1-.1.2 0h.1v-.1h.4c.2-.1.4-.1.6 0h.1v-.1l.1.1h.2s.1.1.2.1c.1.1.2.3.3.4v.1h.1c0 .1 0 .3.1.3s0 .1 0 .2H25v.1c-.1.1 0 .2.1.3V24.2h-.2v.4c0 .1-.1.1-.1.2s0 .2.1.2V26.4s0 .1.1.1l.1-.3v.1H25v.2s0 .1-.1.1v.1h.1v.1l.1.1v.1h-.2v2h-.1l.1.1v.1h-.1l.1.1V29.6h-.1l.1.1h-.1l.1.1V30.1h.2v.1H25 25.3V30c.1-.4.1-.8.1-1.2v-1"/>
</svg>