<svg xmlns="http://www.w3.org/2000/svg" viewBox="0 0 200 50">
	<path fill="#FDB516" d="m85.2509 34.2984-.5039.3992v2.0758c0 1.7032-.557 2.5282-1.6974 2.5282s-1.7239-.8516-1.7239-2.5282v-6.9725c0-1.6766.5569-2.5282 1.7239-2.5282.8487 0 1.3791.5056 1.5913 1.4637.0796.2927.1061 1.1177.1061 2.475l2.9174-3.0339c.61-.6121 1.1935-.9314 1.7504-.9314.3978 0 .7426.1331 1.0078.3726.2918.2395.4244.5588.4244.958 0 .5589-.2918 1.1177-.8752 1.6766l-2.3074 2.1556 3.1826 3.779c.4509.5323.6896 1.1177.6896 1.7032 0 .4258-.1592.7452-.504.9847-.3182.2395-.6895.3726-1.1139.3726-.6895 0-1.273-.346-1.7769-1.0379l-2.8909-3.9121ZM100.554 30.254h-2.5461c-.5304 0-.7956.2662-.7956.7984v5.4822c0 .8782-.2387 1.5435-.7161 2.0225-.4774.479-1.1404.7186-2.0157.7186-.7691 0-1.273-.0533-1.5647-.1597-.5305-.2129-.7957-.6121-.7957-1.2242s.1857-.9846.5835-1.1709c.2652-.1331.7161-.2129 1.3791-.2129v-5.4556c0-1.4104.3183-2.3951.9283-2.954.5835-.5322 1.5648-.825 2.9704-.825h4.2436c.689 0 1.167.2395 1.406.7186.185.3459.265.8782.265 1.6233v7.1056c0 1.6765-.557 2.5281-1.698 2.5281-.663 0-1.14-.2661-1.405-.7983-.186-.3992-.266-.9581-.266-1.7298V30.254h.027ZM111.269 34.2965h-1.618v2.4749c0 1.6766-.557 2.5017-1.698 2.5017-1.14 0-1.724-.8517-1.724-2.5283v-7.0257c0-1.6766.584-2.5016 1.724-2.5016 1.141 0 1.698.825 1.698 2.5016v2.3153h1.644c.186-1.4903.769-2.7145 1.724-3.6193.955-.9048 2.175-1.3839 3.66-1.3839 1.724 0 3.077.6121 4.084 1.8363.929 1.1177 1.406 2.5814 1.406 4.3645 0 1.7564-.477 3.1935-1.406 4.2846-.981 1.1443-2.334 1.7299-4.057 1.7299-1.486 0-2.732-.4525-3.687-1.3574-.981-.8781-1.565-2.0757-1.75-3.5926Zm3.447-1.0645c0 1.9427.637 2.9007 1.936 2.9007 1.3 0 1.963-.958 1.963-2.9007 0-.7718-.133-1.4371-.398-1.9694-.345-.6919-.848-1.0112-1.565-1.0112-.716 0-1.219.3459-1.564 1.0112-.239.5323-.372 1.171-.372 1.9694ZM127.871 34.2984l-.503.3992v2.0758c0 1.7032-.557 2.5282-1.698 2.5282-1.14 0-1.724-.8516-1.724-2.5282v-6.9725c0-1.6766.584-2.5282 1.724-2.5282.849 0 1.379.5056 1.592 1.4637.079.2927.106 1.1177.106 2.475l2.917-3.0339c.61-.6121 1.193-.9314 1.75-.9314.398 0 .743.1331 1.008.3726.292.2395.425.5588.425.958 0 .5589-.292 1.1177-.876 1.6766l-2.307 2.1556 3.183 3.779c.45.5323.689 1.1177.689 1.7032 0 .4258-.159.7452-.504.9847-.318.2395-.689.3726-1.114.3726-.689 0-1.273-.346-1.777-1.0379l-2.891-3.9121ZM137.154 39.249c-1.3 0-1.936-.7451-1.936-2.2354v-7.5047c0-1.4903.663-2.2355 1.936-2.2355h3.076c1.539 0 2.679.2129 3.395.6121.981.5323 1.485 1.5169 1.485 2.9274 0 1.0113-.477 1.7564-1.405 2.2621 1.167.6387 1.75 1.4903 1.75 2.5814 0 1.4371-.53 2.4217-1.591 2.9539-.769.3992-1.936.6121-3.501.6121h-3.209v.0266Zm1.459-9.7401v2.6346h1.379c.557 0 .954-.0798 1.193-.2129.345-.2129.504-.5588.504-1.0911 0-.8782-.61-1.3306-1.83-1.3306h-1.246Zm0 4.8701v2.6346h1.379c1.299 0 1.936-.4258 1.936-1.304 0-.5589-.212-.9314-.61-1.1443-.265-.1331-.716-.1863-1.326-.1863h-1.379ZM154.685 38.0791c-.716.8783-1.671 1.3041-2.865 1.3041-1.538 0-2.811-.6387-3.819-1.9161-.928-1.1976-1.379-2.5815-1.379-4.1782 0-1.6234.477-3.0073 1.432-4.2048 1.008-1.2774 2.308-1.9161 3.872-1.9161 1.141 0 2.069.4258 2.759 1.2508.397-.7186.928-1.0912 1.617-1.0912 1.141 0 1.698.825 1.698 2.5016v6.9725c0 1.6766-.557 2.5282-1.698 2.5282-.742-.0266-1.273-.4524-1.617-1.2508Zm-4.509-4.8435c0 .7452.186 1.4105.53 1.9161.398.5855.955.9049 1.671.9049.716 0 1.273-.2928 1.671-.9049.345-.5322.504-1.1709.504-1.9161 0-.7451-.159-1.3838-.504-1.9161-.398-.5855-.955-.8782-1.671-.8782-.689 0-1.246.2927-1.671.8782-.371.5323-.53 1.171-.53 1.9161Z"/>
	<path fill="#28ABE2" d="M71.6986 9.81629c0 .58551-.4774 1.03791-1.0344 1.03791-.5834 0-1.0343-.479-1.0343-1.03791 0-.58547.4774-1.03789 1.0343-1.03789.557-.02661 1.0344.45242 1.0344 1.03789Z"/>
	<path fill="#A0216D" d="M80.1322 6.56833 68.834 2.78934c-.0531-.95805-.3448-1.969325-1.2996-2.501576-1.0609-.585476-2.8113-.638702-7.5056 3.433016-3.1031 2.68787-6.4448 6.33382-9.1235 9.97972-9.15 12.4014-10.423 23.5787-3.4744 30.6044C52.0722 49.0153 60.4266 50 66.5796 50c4.1905 0 7.3465-.4524 7.6648-.5056.6365-.0799 1.167-.5057 1.3791-1.1178l1.6179-4.1515c.3447-.9048-.0796-1.9427-1.0079-2.3153-.9017-.3726-1.9361.0798-2.2808 1.0113l-1.22 3.1669c-3.7661.3991-17.1861 1.4104-22.8087-4.3113-3.4744-3.5394-4.3231-8.3031-2.4931-14.1845C50.7196 17.0004 61.1427 6.728 65.227 4.14658c1.4057-1.03789 2.7318.02662 1.1935 1.57014l10.3169 3.45963c.0531 0 .1327.02662.1857.05323.2122.10645.3713.34596.3713.61209v.10645c0 .05318-.0265.13308-.053.18628-.3713 1.1976-.7692 2.0226-.9813 2.3419-.4244.6387-1.5913 1.5169-2.7053 2.0226-1.7769.7717-3.8191 1.6233-4.8534 3.5394-2.1483 3.9653-.0796 12.2418 1.3791 16.9522.0265.0799.1061.346.1061.3726 0 .2927-.2387.5589-.5305.5589H65.3861l-1.1934-6.5467c-.1857-.9581-1.0874-1.5968-2.0422-1.4371-.9548.1863-1.5913 1.1177-1.4057 2.0758l1.4587 7.8241c.1592.8516.8753 1.4637 1.724 1.4637h8.6991c.5835 0 1.1139-.2928 1.4587-.7718.3182-.479.3713-.9847.2121-1.65-.2121-.8516-.8486-2.8209-1.326-4.5773-1.3526-4.8169-2.334-10.3523-1.167-12.5346.4244-.7983 1.8035-1.3838 3.1296-1.9427 1.5647-.6653 3.1295-1.783 4.1639-3.1669.6895-.9048 1.6178-3.5394 2.2278-5.93456.1857-.90483-.3183-1.86288-1.1935-2.15561Z"/>
</svg>