<svg xmlns="http://www.w3.org/2000/svg" viewBox="0 0 200 50">
	<path fill="#222" d="M30.3349 26.0135c0 1.6874.391 3.169 1.1729 4.4449.7614 1.2346 1.8006 2.1915 3.1176 2.8706 1.317.679 2.7368 1.0186 4.2596 1.0186 1.5228 0 2.9426-.3396 4.2596-1.0186 1.317-.6791 2.3459-1.6463 3.0867-2.9015.7614-1.2553 1.1421-2.7266 1.1421-4.414 0-1.7079-.3807-3.1895-1.1421-4.4448-.7408-1.2141-1.7594-2.1401-3.0558-2.778-1.2758-.6379-2.706-.9569-4.2905-.9569-1.5433 0-2.9632.319-4.2596.9569-1.3376.6379-2.3871 1.5845-3.1484 2.8397-.7614 1.2347-1.1421 2.6957-1.1421 4.3831ZM100.68 39.4406V32.156c.474.8026 1.142 1.3582 2.007 1.6668.885.3087 1.996.463 3.333.463.721 0 1.42-.0926 2.099-.2778.7-.1646 1.297-.4218 1.791-.7716 1.09-.6791 1.934-1.636 2.531-2.8706.617-1.2553.926-2.6957.926-4.3214 0-1.5639-.299-2.9941-.896-4.2905-.617-1.2347-1.481-2.1812-2.592-2.8397-1.112-.6791-2.398-1.0186-3.859-1.0186-1.378 0-2.52.216-3.426.6482-.905.4321-1.636 1.07-2.191 1.9137v-2.1298h-3.4884v21.1129h3.7654ZM86.3273 34.471c-.1646.4528-.3395.7923-.5247 1.0186-.4733.6585-1.3376.9878-2.5929.9878-.6173 0-1.1009-.0412-1.4507-.1235l1.2655 2.9632c.0412.0206.391.0309 1.0495.0309 1.1318 0 2.0475-.1852 2.7472-.5556.6585-.3498 1.2141-.8643 1.6668-1.5433.4527-.6791.926-1.6874 1.4198-3.025l5.7413-15.8964h-3.7658c-1.3787 3.8069-2.6134 7.5932-3.704 11.359-1.0495-3.4365-2.3253-7.2228-3.8275-11.359h-3.9509l5.9264 16.1433Zm-52.1958-8.4883c0-1.6463.4013-2.9015 1.2038-3.7658.8025-.8643 1.9549-1.2964 3.4571-1.2964s2.6648.4321 3.4879 1.2964c.8232.8643 1.2347 2.1195 1.2347 3.7658 0 1.6874-.4115 2.9838-1.2347 3.8892-.8231.9054-1.9857 1.3581-3.4879 1.3581-1.4816 0-2.634-.4424-3.4571-1.3272-.8025-.9055-1.2038-2.2122-1.2038-3.9201Zm66.4565.0308c.041-1.5639.452-2.7883 1.234-3.6731.803-.9054 1.904-1.3582 3.303-1.3582s2.49.4528 3.272 1.3582c.782.9054 1.183 2.1298 1.204 3.6731-.021 1.564-.422 2.8089-1.204 3.7349-.782.9054-1.873 1.3582-3.272 1.3582-1.399 0-2.5-.4528-3.303-1.3582-.782-.926-1.193-2.1709-1.234-3.7349ZM26.7235 12l-6.5438 8.6736H16.877V12h-4.9079l-1.97545 3.6732h2.96325v18.2422h3.9201v-9.8465h3.3027l6.8833 9.8465h4.4757l-7.9945-11.5441L31.1683 12h-4.4448Zm26.3911 21.9154v-6.5746h6.3894v6.5746h3.704V18.3277h-3.704v5.9264h-6.3894v-5.9264h-3.7349v15.5877h3.7349Zm16.9767-12.6245v12.6245h3.7967V21.2909h5.3091v-2.9632H64.844v2.9632h5.2473Z"/>
	<path fill="#366AF3" d="M131.636 33.9154c1.358 0 2.603-.2675 3.735-.8025 2.263-1.0906 3.395-2.9838 3.395-5.6795 0-1.3581-.288-2.5208-.864-3.4879-.597-.9672-1.43-1.708-2.501-2.2225-1.07-.535-2.325-.8025-3.765-.8025h-6.328v-6.5438h12.038V12h-14.878v21.9154h9.168Zm-6.328-10.6181h5.896c1.481 0 2.644.3704 3.488 1.1112.843.7202 1.265 1.7285 1.265 3.0249 0 1.2964-.422 2.3047-1.265 3.025-.844.7202-2.007 1.0803-3.488 1.0803h-5.896v-8.2414Zm29.465-.0309c0-1.6874-.556-3.0044-1.667-3.951-1.111-.9465-2.665-1.4198-4.661-1.4198-2.778 0-5.062 1.0803-6.852 3.241l1.697 1.5433c.844-.926 1.667-1.5845 2.47-1.9755.823-.4115 1.738-.6173 2.747-.6173 1.214 0 2.14.2881 2.778.8643.638.5556.957 1.389.957 2.5002v1.0495l-4.075.2778c-2.304.1234-4.012.5967-5.124 1.4198-1.09.8026-1.636 1.9858-1.636 3.5497v.1544c0 1.4198.484 2.5207 1.451 3.3027.988.782 2.346 1.1729 4.075 1.1729 1.214 0 2.284-.216 3.21-.6482.926-.4527 1.667-1.0906 2.222-1.9137v2.0989h2.408v-10.649Zm-2.531 4.8769c0 .782-.206 1.4919-.618 2.1299-.411.6379-.987 1.1317-1.728 1.4816-.741.3498-1.554.5247-2.439.5247-1.111 0-1.975-.2161-2.593-.6482-.596-.4321-.895-1.0495-.895-1.852v-.1543c0-.9878.33-1.708.988-2.1607.659-.4527 1.79-.7202 3.395-.8026l3.89-.1852v1.6668Zm19.732-9.8156h-2.655v6.5129h-7.809v-6.5129h-2.654v15.5877h2.654v-6.9141h7.809v6.9141h2.655V18.3277Zm18.02 15.5877-6.328-8.0871 5.834-7.5006h-2.841l-5.122 6.5438h-2.717v-6.5438h-2.655v15.5877h2.655v-6.8833h2.686l5.462 6.8833h3.026Z"/>
</svg>