<svg viewBox="0 0 200 50" xmlns="http://www.w3.org/2000/svg">
	<path fill="#E52E0E" d="M37.178 13.262h-8.635L20.467 25l8 11.738h8.785L29.065 25l8.112-11.514v.001l.15-.225h-.149ZM10 24.701h8.785l8.299-11.888L18.86 1h-8.785l8.224 11.701-1.084 1.608L10 24.701Z"/>
	<path fill="#1A1A18" d="M114.228 14.998h-.531v1.9541c-.413.1661-.807.2491-1.181.2491-.176 0-.332-.043-.468-.128-.038-.0234-.073-.0498-.108-.0791-.159-.1377-.239-.4257-.239-.8642V14.999h-.531v1.1797c0 .3252.036.5869.108.7881.043.1201.111.2275.204.3223.063.0634.138.122.224.1748.122.0742.254.1279.397.1601.108.0244.222.0362.342.0362.358 0 .775-.0889 1.252-.2666v1.6181h.531V14.998Zm-7.581 2.1739h-2.221v1.3662h2.464v.4736h-2.995V14.998h2.902v.4737h-2.371v1.2295h2.221v.4707Zm25.632-2.6035c-.14.123-.327.1836-.558.1836-.234 0-.42-.0606-.559-.1817-.14-.1211-.224-.2969-.251-.5273h.337c.025.124.076.2168.152.2783.076.0605.177.0918.305.0918.148 0 .26-.0303.336-.0889.075-.0605.126-.1533.151-.2812h.337c-.027.2275-.11.4033-.25.5254Zm-21.592 1.5908c0-.1983-.04-.3809-.122-.5469-.081-.166-.188-.2959-.321-.3887-.133-.0918-.299-.1543-.495-.1875-.14-.0254-.344-.0381-.611-.0381h-1.514v4.0137h.531v-1.6318h1.029c.568 0 .96-.1182 1.178-.3535.217-.2373.325-.5264.325-.8672Zm-.568-.1787c.014.0605.021.1259.021.1953 0 .2324-.072.4111-.216.54-.083.0733-.198.125-.347.1563-.11.0234-.238.0351-.384.0351h-1.037v-1.4355h1.026c.241 0 .406.0127.496.0361.139.0381.25.1182.335.2373.05.0703.085.1485.106.2354Zm-8.981 2.4541c.046-.1455.116-.3604.214-.6436l.961-2.792h.714v4.0137h-.512v-3.3584l-1.166 3.3584h-.479l-1.161-3.417v3.417h-.512V14.999h.8001l.9499 2.8418c.087.2637.151.4629.191.5938Zm-7.2808-1.4248c0-.4004-.0781-.7608-.2332-1.0772-.156-.3154-.384-.5625-.6809-.7383-.2981-.1787-.6321-.2666-1.0019-.2666-.3274 0-.6197.0635-.877.1885-.1885.0918-.3581.2178-.509.377-.3572.3759-.5362.8974-.5362 1.5634 0 .3526.0762.6866.229 1.002.1541.3154.3792.5654.677.7471.2972.1836.6351.2744 1.013.2744.3491 0 .6741-.083.9751-.2481.1648-.0908.3093-.205.4333-.3418.1023-.1132.1905-.2431.2647-.3886.164-.3204.2461-.6846.2461-1.0918Zm-.6043-.5362c.0381.1641.0572.3418.0572.5342 0 .5166-.1289.9151-.386 1.1963-.2581.2813-.5879.4209-.9871.4209-.3928 0-.719-.1387-.979-.417-.0708-.0752-.1321-.1582-.1836-.249-.1384-.2442-.2073-.541-.2073-.8936 0-.6045.136-1.0351.407-1.2939.271-.2588.594-.3877.97-.3877.2651 0 .5039.0683.717.2021.2119.1329.3741.3223.4839.5664.0452.0997.0813.2071.1079.3213Zm3.3003 1.6953.128-.3779.9609-2.792h.7141v4.0137h-.5122v-3.3584l-1.1658 3.3584h-.479l-1.1611-3.417v3.417h-.512V14.999h.8001l.9499 2.8418c.0869.2637.1509.4629.1909.5938l.0862-.2657Zm-8.021-1.4218c-.093.0879-.2041.1591-.3342.2119.26.0713.5151.3096.7661.7178l.8269 1.3359h-.6599l-.6699-1.0898c-.1851-.3008-.3391-.5079-.4632-.6202-.124-.1113-.2849-.1679-.4819-.1679v1.8779h-.531V14.999h.531v1.7578c.2429 0 .4141-.0468.513-.1406.0981-.0957.2241-.3203.3769-.6787.0549-.1299.105-.2412.1504-.333.0464-.0947.0879-.169.1248-.2236.0471-.0694.1064-.1329.1784-.1885.0396-.0303.083-.0586.1304-.085.1321-.0742.28-.1113.4402-.1113.2038 0 .312.0019.323.0049v.4599l-.1072-.0019-.106-.0029c-.0905 0-.1684.0117-.2341.0351-.0576.0205-.1055.0498-.1438.0889-.084.082-.1799.2568-.2871.5244-.135.3398-.2488.5547-.3428.6426Zm54.2398 2.2646-1.643-4.0137h-.571l-1.541 4.0137h.563l.441-1.2158h1.678l.469 1.2158h.604Zm-1.657-2.7588.419 1.1114h-1.36l.44-1.1778c.093-.2539.165-.5097.216-.7666.04.1416.095.3086.163.501l.122.332Zm2.629.3926h2.086V14.998h.531v4.0137h-.531v-1.8916h-2.086v1.8916h-.531V14.998h.531v1.6475Zm-4.848.8311c-.031-.1006-.076-.1954-.135-.2832-.126-.1875-.293-.3145-.502-.3829-.209-.0673-.491-.1015-.845-.1015h-.958v-1.2373h2.072v-.4737h-2.604v4.0137h1.571c.432 0 .737-.0556.915-.167.178-.1103.313-.2549.403-.4306.053-.1026.091-.21.113-.3223.015-.0801.023-.1621.023-.2461 0-.1318-.017-.2549-.053-.3691Zm-.642-.0332c.082.1103.123.25.123.416 0 .1279-.021.2383-.064.331-.035.0762-.086.1416-.151.1944-.097.0781-.226.1298-.388.1552-.078.0127-.164.0196-.257.0196h-1.062V17.166h.709c.352 0 .602.0176.748.0547.146.0371.26.1113.342.2227Zm10.211-.4844c.26.0713.515.3096.767.7168l.826 1.3369h-.66l-.67-1.0898c-.185-.3008-.339-.5079-.463-.6202-.073-.0654-.159-.1123-.257-.1396-.069-.0186-.144-.0283-.225-.0283v1.8779h-.531V14.999h.531v1.7578c.243 0 .414-.0468.513-.1406.098-.0957.224-.3203.377-.6787.111-.2627.202-.4482.275-.5566.073-.1075.175-.2002.309-.2735.132-.0742.28-.1113.44-.1113.204 0 .312.0019.323.0049v.4599l-.107-.0019-.106-.0029c-.17 0-.296.041-.378.124-.084.082-.18.2568-.287.5244-.135.3398-.249.5547-.343.6426-.055.0527-.117.0996-.186.1396-.046.0264-.095.0508-.148.0723Zm-17.787-1.961v3.1788l2.136-3.1788h.533v4.0137h-.481v-3.1699l-2.139 3.1699h-.531V14.998h.482Zm-6.233 1.7491c-.093.0879-.204.1591-.334.2119.26.0713.515.3096.766.7178l.827 1.3359h-.66l-.67-1.0898c-.185-.3008-.339-.5079-.463-.6202-.124-.1113-.285-.1679-.482-.1679v1.8779h-.531V14.999h.531v1.7578c.243 0 .414-.0468.513-.1406.098-.0957.224-.3203.377-.6787.111-.2627.202-.4482.275-.5566.073-.1075.175-.2002.309-.2735.086-.0488.179-.081.278-.0976.052-.0088.107-.0137.162-.0137.204 0 .312.0019.323.0049v.4599l-.107-.0019-.106-.0029c-.17 0-.296.041-.378.124-.084.082-.18.2568-.287.5244-.135.3398-.249.5547-.343.6426Zm-3.588 1.8388c.16-.041.303-.1132.429-.2177.206-.1709.346-.4248.419-.7657l.53.1348c-.112.4356-.312.7686-.601.9981-.29.2294-.643.3437-1.061.3437-.433 0-.785-.0879-1.056-.2637-.144-.0947-.27-.2109-.378-.3496-.094-.1211-.175-.2597-.241-.416-.142-.334-.212-.6924-.212-1.0762 0-.4179.08-.7812.239-1.0937.098-.1885.221-.3496.367-.4844.095-.0859.2-.1611.315-.2246.295-.1611.62-.2422.974-.2422.402 0 .74.1025 1.013.3076.274.2041.465.4903.572.8614l-.522.123c-.093-.292-.228-.5049-.405-.6377-.11-.082-.237-.1396-.382-.1709-.089-.0195-.184-.0293-.286-.0293-.308 0-.566.0742-.773.2217-.208.1475-.353.3467-.437.5957-.084.249-.126.5059-.126.7705 0 .3418.049.6406.148.8945.1.2549.255.4453.465.5703.21.126.437.1895.682.1895.116 0 .225-.0127.327-.0391Zm-2.992-1.414h-2.221v1.3662h2.464v.4736h-2.995V14.998h2.902v.4737h-2.371v1.2295h2.221v.4707Zm8.782-2.1739v3.1788l2.136-3.1788h.533v4.0137h-.481v-3.1699l-2.139 3.1699h-.531V14.998h.482Zm58.306 8.6553c.108-.4541.108-.9277 0-1.3828-.187-.2236-.56-.3369-1.196-.3359h-.411v-.3369H190v.3369h-.449c-.2-.0264-.403-.0108-.597.0468-.193.0586-.372.1563-.524.2891-.232.4365-.323.9326-.262 1.4209v8.1494c-.059.501.032 1.0088.262 1.458.152.1319.331.2305.524.2891.194.0576.397.0742.597.0469H190v.3369h-6.804v-.3369h.411c.235.0595.481.0605.716.0019s.452-.1758.63-.3388c.143-.4766 0-8.1875 0-8.1875l-4.299 6.8417c-.029.4463.047.8956.224 1.3077 0 .2246.561.374 1.197.374h.411v.3369h-6.617v-.3369h.411c.2.0273.404.0107.597-.0469.194-.0586.373-.1572.525-.289.247-.4444.352-.9532.299-1.4581v-8.1494c.048-.4843-.029-.9746-.224-1.4209 0-.2236-.561-.3359-1.197-.3359h-.411v-.3369h6.617v.3369h-.411c-.203-.0303-.411-.0117-.606.0527-.194.0655-.371.1758-.516.3213-.239.419-.343.9024-.299 1.3828v6.8047l4.299-6.8418Zm-2.205-3.2519c-.935.0527-1.87-.1133-2.729-.4854-.238-.1103-.44-.2842-.585-.5029-.145-.2188-.228-.4727-.238-.7334-.005-.1182.016-.2363.062-.3457.045-.1104.113-.208.2-.2891.176-.1513.403-.2314.635-.2246.332 0 .604.1211.825.3711.128.1445.238.332.334.5645.088.2998.272.5625.524.748.307.0723.627.0723.934 0 .319.0791.653.0791.972 0 .263-.207.468-.4775.598-.7851.299-.5977.673-.8975 1.159-.8975.232-.001.456.0791.636.2246.088.0879.156.1924.201.3086.045.1162.066.2402.06.3643-.006.2626-.092.5175-.245.7314-.153.2139-.368.376-.614.4658-.833.374-1.744.541-2.655.4854h-.074Zm-36.299 5.1963v-4.2989l-.337.1875c-.016.2647-.121.5147-.299.71-.157.0576-.329.0576-.486 0-.375-.0625-.739-.1758-1.084-.3359-.867-.3555-1.792-.5469-2.729-.5606-1.181-.0049-2.343.3047-3.365.8965-1.05.5703-1.918 1.4258-2.504 2.4678-.604 1.0195-.927 2.1806-.935 3.3642.008 1.1045.304 2.1865.86 3.1406.537.9795 1.358 1.7745 2.355 2.2803 1.09.5469 2.294.8281 3.514.8213.677.0117 1.35-.084 1.995-.2812.223-.0684.443-.1485.659-.2413.397-.1728.774-.3857 1.125-.6357.381-.2705.731-.584 1.044-.9346v-1.0468c-.584.6962-1.278 1.289-2.056 1.7568-.66.3389-1.39.5185-2.131.5234-.83.0274-1.646-.2226-2.318-.7099-.311-.2627-.581-.5664-.804-.9014-.236-.3545-.419-.7432-.542-1.1553-.274-.9853-.413-2.0049-.411-3.0273-.019-1.0527.185-2.0977.598-3.0654.215-.5323.541-1.0108.954-1.4024.134-.1279.277-.2461.429-.3545.625-.4365 1.369-.6709 2.131-.6728.917-.0186 1.808.3008 2.505.8965.766.6728 1.292 1.5791 1.495 2.5791h.337Zm-99.5891-4h-6.43v.3359h.261c.334 0 .5957.0312.7959.0986.1807.0606.3115.1514.4002.2754.2199.4531.311.957.2619 1.458v8.2617c0 .6739-.112 1.084-.3359 1.2715-.4031.2793-.896.3985-1.3831.336v.3359h6.4651v-.3359c-.4651.0527-.935-.0391-1.3462-.2618-.3738-.1503-.3738-.5244-.3738-1.122v-4c.2669-.083.554-.083.8218 0 .2691.2832.4842.6113.635.9717l2.5052 4.7851h4v-.3359c-.3431.0156-.6831-.0752-.972-.2617-.281-.1875-.5232-.4288-.7102-.71l-1.2339-2.2803c-.3486-.6338-.6269-1.1211-.8347-1.4638-.1186-.1954-.2141-.3428-.2863-.4424-.136-.2422-.3289-.4473-.5611-.5977-.2649-.2021-.5708-.3418-.897-.4111.2981-.2676.5281-.6006.6731-.9717.1499-.4111.337-.9727.5611-1.7578.1379-.5859.352-1.1504.636-1.6816.0378-.0694.0854-.1338.1406-.1905.0469-.0478.0994-.0908.1562-.1269.125-.0791.2671-.1241.4141-.1319.0811 0 .144-.0068.1921-.0127.0608-.0068.0989-.0117.125.0039.044.0274.052.1153.0718.3555l.0222.252c.075.7841.449 1.1953 1.1219 1.1953.1518.0049.3017-.0176.4428-.0655.167-.0566.3221-.1484.4541-.2705.0523-.0537.0992-.1113.1402-.1738.0493-.0742.0903-.1543.122-.2392.0579-.1543.084-.3184.075-.4834.009-.2325-.0342-.4629-.124-.6768-.0911-.2129-.2271-.4033-.4002-.5576-.1867-.168-.406-.2969-.6428-.3809-.2371-.084-.489-.1191-.74-.1054-.5281-.0127-1.0481.1308-1.4951.4111-.396.2793-.7171.6514-.9351 1.084-.2739.6816-.4978 1.3799-.6728 2.0937-.106.5713-.322 1.1172-.635 1.6074-.17.2422-.4231.4151-.71.4864-.4971.0449-.998.0449-1.4951 0v-3.7383c-.031-.4043.061-.8076.262-1.1592.1721-.1367.3701-.2373.582-.2959.2131-.0576.4341-.0713.6521-.04h.2239v-.3369Zm11.7751 10.205v-3.4394c.9959.0976 1.9978.0859 2.991-.0371.4641-.0908.9043-.2676 1.2981-.5196.2783-.1777.5334-.3925.7578-.6396.301-.3223.53-.7041.6721-1.1211.1418-.417.1939-.8604.1509-1.2979-.042-.4384-.178-.8632-.397-1.2451-.1514-.2627-.3398-.5009-.5591-.709-.0991-.0937-.2046-.1816-.3159-.2627-1.1069-.7177-2.4231-1.0468-3.738-.9345h-5.3831v.4863c.3821-.0801.7771-.0801 1.1592 0 .1042.0586.1975.1338.2764.2217.0512.0576.0964.1211.1345.1894.0901.419.0901 10.3096 0 10.7286-.0969.1718-.239.3144-.4109.4111-.384.0596-.7752.0596-1.1592 0v.1865h6.1311v-.3359c-.384.0605-.7749.0605-1.1589 0-.1751-.1065-.3272-.2471-.449-.4102-.063-.4219-.063-.8506 0-1.2715Zm0-4.1494v-5.3457l.562-.001c.3259-.0195.6538.0264.9619.1348.3081.1094.5911.2803.8321.501.458.5683.6718 1.293.5979 2.0195.0261.4014-.0301.8047-.1651 1.1836-.0962.2705-.2317.5254-.4006.7559-.0681.0927-.1416.1816-.2202.2666-.2351.1982-.51.3437-.8072.4277-.2958.084-.6069.1045-.9118.0576h-.449Zm11.4768-5.0879v4.7891l.2241.0019c.326.0274.6541-.0273.9541-.1572.1724-.0752.3326-.1738.4761-.293.1062-.0888.2034-.1884.2898-.2978.2066-.3242.3738-.6709.499-1.0322.127-.3662.2107-.7471.2491-1.1358h.3359v6.4678h-.3359c-.0462-.5967-.198-1.1787-.449-1.7207-.1831-.3809-.468-.7041-.822-.9346-.427-.1718-.886-.249-1.346-.2246v3.4776c-.0205.2334-.0295.4668-.0276.7002.0017.1904.011.3808.0276.5703.0689.1582.187.29.3369.374.2471.0557.502.0557.7481 0h.748c.5811.0254 1.1572-.0635 1.697-.2588.378-.1367.7378-.3252 1.0689-.5625.76-.624 1.2971-1.4766 1.5329-2.4307h.2242l-.5611 3.9258h-10.654v-.1875h.4111c.2969.0039.5908-.0596.8599-.1865.0503-.0293.0967-.0645.1384-.1055.0273-.0263.0527-.0547.0757-.0849.0578-.0772.0989-.1651.1218-.2588.0545-.3164.0396-6.8799.0159-9.376-.0051-.5332-.0105-.8809-.0159-.9424-.0559-.1943-.1738-.3652-.3359-.4863-.1802-.126-.3853-.209-.5994-.2442-.1103-.0185-.2229-.0244-.3357-.0175h-.3369v-.3369h10.356v3.7382h-.3741c-.0798-.7011-.3379-1.3701-.7478-1.9443-.353-.415-.822-.7139-1.3462-.8604-.6328-.08-3.103.0342-3.103.0342Zm19.6262-.9677-3.364 8.1503-3.478-8.1503h-5.084v.3369h.4109c.2861-.0039.5681.0605.823.1875.1799.0849.3259.2295.4111.4111.0276.1768.0425.3545.0447.5322.0025.209-.0124.419-.0447.626v8.8975c-.039.247-.1421.4785-.299.6728-.1341.1729-.316.3028-.523.374-.258.0606-.5271.0606-.7851 0v.337h4.1879v-.337c-.4318.0284-.8628-.0761-1.2338-.2988-.2581-.1787-.4441-.4443-.523-.748-.031-.3741-.031-.7491 0-1.1221v-8.71l4.71 11.1397h.2238l4.7481-11.2149v9.1592c.0659.3838.0659.7764 0 1.1592-.0291.0957-.0769.1846-.1409.2617-.0642.0772-.143.1397-.2322.1856-.2668.1318-.562.1963-.8598.1875h-.4112v.3369h6.4671v-.3369h-.4109c-.2861.0078-.5691-.0557-.823-.1875-.1802-.085-.3262-.2295-.4111-.4102-.0301-.1855-.0459-.373-.0479-.5605-.0019-.2129.0139-.4258.0479-.6358v-8.1494c-.0669-.3711-.0669-.751 0-1.1221.029-.0957.0771-.1845.1411-.2617.043-.0517.093-.0967.1479-.1357.0269-.0186.055-.0352.084-.0498.2671-.1309.562-.1953.8601-.1875h.4109v-.3369H89.738Zm18.767.3369c-.446-.0498-.895.0566-1.271.2988-.244.3486-.351.7744-.301 1.1963v8.5976c-.066.4581.04.9248.299 1.3086.245.1553.519.2539.802.293.167.0234.337.0254.506.0059v.3369h-6.206v-.3369c.202.0302.406.0429.609.0381.147-.004.293-.0167.438-.0381.181-.085.326-.2305.411-.4112.08-.332 0-10.8408 0-10.8408h-2.817l-.136 7.4766c-.046.4609-.138.915-.275 1.3564-.097.3154-.218.624-.36.9238-.2802.667-.7479 1.2383-1.3461 1.6456-.5229.373-1.1509.5683-1.7939.5605-.251.0176-.5042-.0146-.742-.0986-.238-.083-.456-.2159-.6411-.3877-.187-.1729-.3259-.3906-.404-.6328-.0789-.2422-.094-.5-.045-.75-.011-.336.094-.6661.2991-.9336.0999-.1299.2319-.2334.3818-.2979.1502-.0654.3152-.0918.4781-.0762.7099 0 1.084.4483 1.1591 1.3077.0589.6777.1409.6591.3021.6201l.081-.0166c.021-.003.043-.0049.0659-.0049.1162 0 .2837-.0518.4734-.1553.238-.1289.5108-.3388.7605-.6299.4771-.6181.7741-1.3554.8601-2.1308.094-.6983.158-1.4004.194-2.1035.028-.544.038-1.0889.031-1.6348V23.916c.081-.4453.081-.9014 0-1.3467-.037-.1064-.096-.206-.174-.29-.077-.084-.1711-.1494-.2751-.1953-.4219-.0586-.8489-.0586-1.271 0v-.4863h10.0561l-.149.3369Zm5.644 5.4199v-4.8301s2.47-.0732 3.103.0049c.525.1465.993.4463 1.346.8603.41.5743.668 1.2432.748 1.9444h.374v-3.7383h-10.393v.3369h.449c.332-.0215.662.0713.934.2617.162.1211.28.292.337.4864.029.3476.029.6992 0 1.0468v8.1123c.066.3838.066.7764 0 1.1592-.023.0938-.065.1817-.122.2588-.058.0772-.131.1416-.215.1895-.268.1279-.562.1914-.86.1875h-.448v.1865h10.654l.561-3.9248h-.374c-.207.957-.735 1.8144-1.495 2.4306-.804.5752-1.779.8653-2.767.8213h-.747c-.247.0557-.502.0557-.748 0-.141-.0957-.256-.2236-.337-.374-.037-.4228-.037-.8476 0-1.2705v-3.4775c.46-.0244.92.0527 1.346.2246.216.1308.406.2998.56.4961.105.1338.194.2812.263.4384.125.2706.225.5508.3.8379.075.2891.125.584.148.8819h.337v-6.4668h-.337c-.052.7656-.283 1.5068-.673 2.1679-.202.2569-.465.46-.765.5899-.3.1318-.628.1855-.954.1582h-.225Zm15.664.0381c.892.1728 1.742.5166 2.505 1.0088.324.2597.583.5898.758.9629.068.1455.122.2959.163.4492.064.2451.094.498.088.7529.009.4434-.088.8799-.283 1.2774-.195.3974-.483.7412-.838 1.0039-1.165.8232-2.578 1.2187-4 1.122h-6.318v-.3359c.396.0635.8.0635 1.196 0 .172-.0967.314-.2393.411-.4111.063-.4209.063-10.3077 0-10.7286-.101-.1816-.259-.3252-.448-.4111-.382-.0869-.778-.0869-1.159 0v-.4863h5.944c1.023-.0615 2.05.0654 3.028.374.552.2451 1.03.6318 1.383 1.1221.329.4726.511 1.0322.523 1.6084-.002.6035-.244 1.1816-.673 1.6074-.645.5654-1.434.9414-2.28 1.084Zm-3.29.4853v4.4112c-.018.1367-.005.2763.039.4072.045.1308.118.249.216.3476.098.0977.217.1719.348.2159.13.0439.27.0576.407.039.47.0039.933-.1113 1.345-.3359.399-.2109.724-.5371.935-.9356.229-.4238.345-.9003.337-1.3828.001-.539-.141-1.0674-.412-1.5332-.233-.4424-.618-.7871-1.084-.9717-.689-.2109-1.411-.2988-2.131-.2617Zm0-.7099c.65.0293 1.298-.0723 1.907-.2989.383-.1816.707-.4668.934-.8222.223-.4141.339-.876.339-1.3457 0-.4707-.116-.9326-.339-1.3467-.207-.3652-.539-.6426-.934-.7852-.608-.2304-1.257-.333-1.907-.2988v4.8975Zm21.346-5.5703h6.43v.3359c-.109-.0156-.218-.0205-.327-.0147-.109.0069-.218.0254-.325.0547-.212.0576-.41.1582-.582.2959-.114.1826-.198.3809-.249.5879-.056.2217-.073.4531-.05.6836v3.626c.547.0547 1.098.0547 1.645 0 .159-.0576.304-.1475.425-.2617.081-.0772.152-.1651.211-.2617.231-.3604.409-.752.529-1.1622.043-.1455.078-.2939.106-.4443.079-.3408.174-.6767.284-1.0078.123-.3691.266-.7314.427-1.0869.191-.4385.502-.8135.897-1.084.447-.2803.967-.4238 1.495-.4111.145-.0078.29.0009.433.0254.104.0185.207.0449.307.08.238.083.456.2129.643.3809.173.1543.31.3447.4.5586.066.1543.106.3174.12.4834.005.0635.006.1279.004.1924.011.165-.014.33-.072.4843-.058.1553-.148.295-.265.4122-.117.1162-.258.207-.412.2656-.155.0586-.32.083-.485.0713-.673 0-1.047-.4102-1.122-1.1953l-.007-.0821-.015-.1679c-.012-.1407-.019-.2286-.032-.2832-.009-.0401-.022-.0625-.04-.0743-.026-.0156-.064-.0107-.125-.0039l-.093.0098-.099.0029c-.147.0088-.289.0537-.413.1319-.074.0468-.139.1035-.195.1689-.039.0459-.073.0957-.102.1484-.155.2901-.29.5909-.402.8995-.093.2558-.171.5166-.234.7822-.224.7851-.411 1.3467-.56 1.7578-.145.3721-.376.7051-.673.9717.328.0595.637.2021.897.4111.232.1504.425.3555.561.5977.199.2754.573.9101 1.121 1.9072l1.234 2.2803c.187.2802.428.5224.71.7099.289.1865.629.2774.972.2617v.336h-4.112l-2.58-4.7481c-.151-.3603-.366-.6884-.635-.9716-.268-.0831-.555-.0831-.822 0v4c0 .5986 0 .9716.373 1.122.258.1397.538.2276.825.2608.172.0205.347.0205.521.0009v.336h-6.542v-.336c.322.042.648.0039.947-.1084.153-.0566.3-.1328.436-.2275.225-.1875.337-.5977.337-1.2715v-8.2617c.033-.3408.002-.6826-.091-1.0088-.044-.1533-.101-.3037-.171-.4492 0-.2617-.561-.374-1.196-.374h-.262v-.3369Zm22.625 1.7685c.002.0957-.001.1914-.008.2871l-4.374 6.8418v-6.8047c-.044-.4804.06-.9629.299-1.3828.145-.1455.322-.2558.516-.3213.072-.0234.145-.041.219-.0517.128-.0196.259-.0205.387-.001h.448v-.3369h-6.654v.3369h.411c.636 0 1.197.1123 1.197.3359.195.4473.272.9366.224 1.4209v8.1494c.053.5049-.052 1.0137-.299 1.4581-.15.3359-.561.3359-1.122.3359h-.411v.3369h6.804v-.3369h-.449c-.635 0-1.196-.1504-1.196-.374-.177-.4121-.254-.8604-.224-1.3077l4.224-6.8417v6.7294c.059.501-.032 1.0088-.262 1.4581-.158.1357-.343.2363-.543.2939-.2.0576-.41.0732-.616.043h-.411v.3369h6.654v-.3369h-.448c-.2.0273-.404.0107-.597-.0469-.194-.0586-.372-.1572-.525-.2891-.23-.4492-.321-.957-.261-1.458v-8.1494c-.062-.4893.03-.9853.261-1.4209.069-.0596.144-.1123.222-.1582.095-.0547.197-.0986.303-.1309.193-.0576.397-.0732.597-.0468h.448v-.3369h-6.654v.3369h.411c.636 0 1.197.1123 1.197.3359.146.3486.224.7207.232 1.0957Z"/>
</svg>