<svg xmlns="http://www.w3.org/2000/svg" viewBox="0 0 200 50">
	<path fill="#A58258" d="m108.603 32.9407-1.567-2.6458c.353-2.7683.572-5.2577.471-6.6931-.284-4.019-1.165-6.247-1.524-7.1553-.044-.1098-.08-.2002-.106-.2721-.917-2.4813-1.642-2.8528-1.642-2.8528.065-.1431.136-.2831.214-.4195.107-.1904.227-.3741.358-.5499.112-.1445.23-.2847.352-.4204.184-.205.38-.3997.586-.5834 0 0 .831.0159.753-.6626-.135-1.15017-.832-.4536-.832-.4536-.16-.1022-.273-.2639-.315-.44975-.007-.24152.042-.48168.145-.70046.153-.52304.246-1.06196.277-1.60597.01-.6144-.041-1.2284-.151-1.83299 0 0 .613-.94747.621-1.64009.012-.76083-.579-1.42522-.579-1.42522-.066-.07116-.123-.14977-.169-.23407-.022-.03901-.042-.0792-.059-.12037-.013-.03215-.026-.06489-.036-.09822-.006-.01803-.011-.03607-.016-.0543-.005-.01686-.009-.03392-.013-.05117-.001-.17879.056-.35327.161-.49775 0 0 .725-1.228592-.632-1.385229-1.44.200747-.544 1.501679-.544 1.501679.011.01725.022.0349.032.05293.007.01392.015.02804.022.04235.014.03038.027.06155.038.09351.02.06018.033.12292.038.18663-.012.05666-.037.11018-.071.15683-.035.04666-.079.08548-.13.1141-.034.02862-.068.05783-.102.08743-.024.02098-.048.04215-.071.06372l-.045.04136c-.083.07763-.163.15801-.241.24094-.106.11351-.206.23211-.302.35542-.049.06842-.098.13743-.147.20702l-.053.07803-.036.05312-.046.0694c-.165.25231-.319.51226-.46.77887 0 0-.476-.51598-1.725-.46579-.914.03235-1.8102.26172-2.6274.67262-.1916-.44443-.4502-.8567-.767-1.22252-.0317-.03587-.0648-.0743-.0989-.11488l-.043-.05175-.033-.04058-.0312-.03882c-.0287-.03627-.0576-.07332-.0863-.11115-.0249-.03274-.0497-.06607-.074-.09959-.0812-.11194-.158-.22682-.2218-.33661-.0495-.08508-.0911-.16702-.1211-.2423-.0316-.07921-.0503-.15096-.0515-.21095 0-.06038.0593-.2129.1307-.39659.0301-.07724.0622-.15997.093-.24368.0815-.22152.1533-.449325.1498-.598317 0-.112528-.1627-.7710315-.7087-.75887687-.546.01195857-.803.62419687-.803.86924887 0 .067242.0319.175265.0784.296615.032.08371.0708.17369.1107.26093.1129.24681.2345.47226.2345.47226-.1084.30249-.2598.58793-.4497.8471-.1131.14821-.2116.30621-.2944.47167-.1463.29191-.2439.60734-.2877.93355-.0904.773.5842 1.53579.5842 1.53579-.191.49109-.2915 1.01276-.2971 1.53972-.021.59302.2351 1.24368.4378 1.75829.1274.32328.2335.59303.2367.76104.008.43562-.4598.65442-.5521.65652-.0923.002-.3674-.1064-.4396-.1045h-.0119c-.0817.0002-.2796.0008-.2492.6303.0322.6626.3634.7308.3634.7308s.3092-.1044.3272-.1044c.6746-.0542 1.5719 1.7626 1.5719 1.7626s-3.212 3.495-3.0453 11.1555c.0341 1.6321.2208 3.6656.4838 5.8217l-1.881 3.0292c-.165.3037-.2757.634-.3272.9755-.0266.3227-.0006.6473.0762.9616 0 0 2.7362 9.15 2.7804 9.5637-.0177.0635-.0577.1823-.1116.3413l-.0011.0035c-.2534.7495-.8074 2.388-.7546 3.3829.0643 1.2086 1.0299 1.2447 1.0299 1.2447s.8812.1004 1.8508.1466c1.1443.0541 2.409.0561 2.409.0561.1427.0004.2837-.031.413-.0921.128-.0612.242-.1504.332-.2612.057-.0841.132-.1556.218-.2103.086-.0543.183-.0908.284-.1069.213.0363.404.1516.536.3233.245.3333.803.287.803.287s.927.0122 1.879-.0743c.049-.0045.107-.0094.173-.0149.826-.0694 2.853-.2396 3.039-.9104.329-1.1163-.713-3.1878-.713-3.1878-.129-.2741-.216-.5658-.259-.8654.02-.4342.104-.8629.249-1.2727 0 0 .602-2.0274 1.154-3.9126.093-.3189.185-.6336.272-.9335l.21-.7303.243-.8467c.121-.4213.195-.6812.195-.6812s.431-1.2045.413-2.0538c-.025-.5418-.194-1.067-.49-1.5216l.016.0061ZM96.1872 11.3404c-.6986-.229-.1787-.6765-.0522-.755.1264-.0782.803-.5118.1245-1.81864-.2006-.40169-.3201-.83887-.3513-1.28663-.0314-.44795.0258-.89747.1686-1.32308 0 0 1.068.3172 1.5939.21074 0 0 .9435-.17467 0-.37934-.542-.02411-1.1122-.05018-1.5016-.46383-.3561-.32072-.5723-.76829-.6022-1.24663-.0301-.60224.9073-1.89494.9073-1.89494.0368.10096.089.19585.1546.28093.1827.21486 1.2407 1.40523 1.4514 2.10392.1165.40149.4015.14056.4015.14056.7792-.3862 1.6263-.61655 2.4933-.6785.581-.05411 1.161.11469 1.622.47168 0 0 .335.5099.526-.14253.305-1.04588 1.706-2.17821 1.706-2.17821l.087-.19056.648 1.09392c.348.62753.192 1.01412-.058 1.63694l-.052.13174c-.384.96159-1.334 1.06863-1.785 1.11921-.078.00862-.14.01568-.183.02509-.419.06822-.249.24878.097.28093.423.20074 1.568-.17056 1.568-.17056s.066.01411.124.24642c.02.08371.04.19565.054.34563.01.099.018.21447.022.34934.029.83553-.184 1.45287-.34 1.90278-.083.24192-.15.43541-.154.58852-.01.4378.55.8753.661.9496.009.0063.019.0124.03.0185.113.0678.256.1533-.432.672-.529.3974-1.045 1.3191-1.477 2.0912-.088.1572-.173.3081-.253.4471-.123.2131-.237.3984-.339.5352-.496.6644-1.239 1.09-2.445 1.1182-1.1452.0267-1.8237-.623-2.2246-1.0066l-.0623-.0594c-.1432-.1359-.3736-.5654-.6426-1.0669-.4658-.8685-1.0471-1.9526-1.4913-2.0988h.006Zm-1.4213 37.2405c-.0582-1.0581.6484-3.0234.6484-3.0234.047-.1041.0845-.2119.1125-.3221.0187-.0737.0331-.1484.0431-.2239.0103-.077.016-.1547.0171-.2329-.0242-.3485-.1028-.6912-.2329-1.0157l-2.2865-7.8291c-.1373-.4064-.2499-.8206-.3373-1.2407.0077-.4264.1311-.8428.3573-1.2045l1.5579-2.5354c.7503 5.8712 2.003 12.3533 2.2602 13.6843.0513.265.063.3258.0234.1368.1598.7687-.1779 1.0965-.1779 1.0965l-1.0338 1.2164s-.4777.6866-.4375 1.2566c.0159.2418.1651.498.311.6944.0571.0771.1138.1449.1617.199.0756.0853.1295.1366.1295.1366l.016.03h-.1807s-.8993.1165-.9495-.803l-.002-.0199Zm9.0641.821c-.984.0662-1.885.0341-1.885.0341s-.49-.0804-.9-1.2608l-.038-16.993s-.003-.0193-.012-.0442c-.005-.0137-.012-.0292-.022-.0441-.004-.006-.008-.0121-.013-.0178l-.005-.0057c-.025-.0272-.062-.0478-.115-.0449-.058.0034-.102.0347-.134.0708-.017.02-.031.0414-.042.0602-.007.0129-.012.0245-.016.0337-.006.0121-.008.02-.008.02v17.0635c-.48 1.3911-1.0682 1.2746-1.0682 1.2746s-2.8827-.1204-2.8867-.1243c-1.6462-.9637-.524-2.1982-.524-2.1982l.8531-1.0419c.1243-.0989.2249-.2243.2944-.367.0694-.1428.106-.2992.1071-.458-.0162-.2858-.0592-.5695-.1284-.8473 0 0-2.7242-13.8072-2.7904-20.0646-.0742-7.6282 2.8104-10.6214 2.8104-10.6214s1.1001 2.2523 3.4667 2.2041c2.301-.0461 3.242-2.2964 3.242-2.2964s.922.6202 1.95 3.9647c.702 2.3045 1.154 4.322 1.15 5.932-.02 7.4759-2.919 21.2792-2.919 21.2792-.057.2921-.038.5936.055.8765.092.2825.255.5371.473.7395 0 0 .988.9757.986 1.624-.006.2299-.07.4546-.187.6524-.117.198-.283.3623-.482.4778 0 0-.207.0274-.465.0578-.251.0296-.549.0619-.753.0747l.006-.01Zm4.319-12.4745c-.219.7477-.504 1.7173-.808 2.7363l-.242.8077c-.603 2.0177-1.202 4.0185-1.232 4.486.024.2786.115.5472.265.7828.438.8706.731 1.8071.865 2.7724.051.566-.791.6423-.791.6423s-.236.0341-.602.0784l.123-.0682s.574-.6727.423-1.2045c-.225-.803-1.293-1.9012-1.293-1.9012-.146-.1763-.24-.3907-.269-.6184-.016-.3377.02-.6761.105-1.0037 0 0 1.405-7.2629 2.238-13.4661l1.431 2.3909c.066.1686.124.3398.175.5131.03.1019.057.2048.082.3082.021.0892.041.1789.059.2689-.024.3492-.065.697-.125 1.0418l.012-.0039s-.07.2431-.189.654l-.227.7832Zm-7.439-24.9607c.419 0 .907-.2007.881-.5259-.014-.1839-.069-.3131-.118-.4292-.038-.0894-.072-.1709-.083-.2635-.024-.2127.534-2.40891.623-2.56751.088-.1586.172-.45168 2.031-.2229.189.02294.282.06783.326.11273.063.06508.024.13036.024.13036s.106.73457-.018.89121c-.033.04136-.23.12743-.498.24446l-.003.00118c-.744.32523-2.039.89077-1.935 1.41857.039.2837.112.5616.219.8271-.017.1645-.079.3211-.179.4526-.046.0598-.098.1136-.156.1598-.07.0559-.149.1012-.233.1343-.524.1888-.632.2309-.626.4999.006.269.701.4658.939.4597.167-.0043.395-.2074.517-.1862.019.0033.036.012.049.0278.008.0102.016.0234.021.0398.01.0286.016.0675.016.1186 0 .4196-.352.5701-.625.6023-.082.0098-.189-.0308-.306-.0918l-.027-.0141-.033-.018-.047-.0267-.048-.0274-.058-.0345-.011-.0059c-.216-.1272-.444-.2615-.626-.2574-.353.008-.8833.4658-1.1723.4717-.2891.006-.8432-.3874-.8472-.5801.0042-.0816.0402-.1584.1001-.2139.06-.0555.1393-.0855.2211-.0831.0658 0 .1408.0549.2218.1141.0967.0709.2019.148.3101.1448.0177-.0006.0391-.0027.0633-.0062.0209-.0032.044-.0073.0688-.0124.0241-.0049.0498-.0108.0765-.0174.0303-.0077.062-.0163.0943-.0257.1162-.0341.2415-.0798.3445-.1302.126-.0619.217-.1313.216-.1956 0-.2649-.125-.3713-.6486-.6023-.0566-.0202-.1104-.0468-.1604-.0792-.0629-.0408-.1197-.0905-.1688-.148-.0881-.1031-.1476-.2276-.1727-.3609 0-.0767.0257-.2115.0539-.3599.0355-.1863.0749-.3939.0727-.5335-.004-.2509-.1626-.7508-1.4052-1.0037-1.1484-.24093-1.0861-1.60597-1.0861-1.60597s.0301-.23486.2308-.23878c.0236-.00059.0657-.00216.1217-.0049l.1028-.00471c.4858-.02293 1.5332-.07253 1.6826.00961.1827.10037.8753 1.89494.8934 2.76615 0 .1596-.0407.2941-.0792.4215-.0178.0584-.035.1155-.0477.1727-.013.0594-.0211.119-.0197.1808.006.2509.3035.4697.9175.4838v-.0081Zm-1.7626-2.70612c.1205-.3513-.9757-.76671-1.0278-.45971-.0763.42972.7748.6385 1.0278.45971Zm3.5776-.18271c.277.26505 1.327-.02999 1.082-.41345-.151-.23486-1.359.14645-1.082.41345ZM49.1563 45.682c0-4.8321.9234-9.5516 1.7264-11.8984.4015-1.1723.9476-1.6199 1.4795-1.6199.9997 0 1.0639.8932 1.0639 2.457v11.005c0 1.624-.014 3.212-.8572 3.4127v.2229h3.1277v-.2509c-.831-.251-.8431-1.7044-.8431-3.212V34.5425c0-1.5117.0121-3.1337.8431-3.4127v-.2509h-5.7092v.2509c.5319.1406.4658 1.5095.2329 2.2082C48.3513 39.0915 48 46.8482 48 49.2572h2.3105v-.2509c-.8812-.1947-1.1542-1.9191-1.1542-3.3243Zm11.0671-12.7072 1.4393 8.9373c-.6745-1.5076-1.6601-2.2625-2.6216-2.2343l1.1823-6.703Zm-2.1279 12.5407.7428-4.4427c2.0877.0845 3.5672 3.4369 3.5672 5.9783 0 .9777-.1686 1.7305-.6363 1.9554v.2509h2.947v-.2509c-.52-.279-.6023-1.034-.7911-2.0397L61.705 33.2257c-.0661-.3599-.105-.7242-.1165-1.09 0-.5581.1426-.8651.3754-1.0037v-.251h-2.8807v.251c.2208.0843.4015.4015.4015.8953-.0208.5448-.0879 1.0867-.2007 1.6201l-2.0718 11.8681c-.1486.8769-.3497 1.7446-.6022 2.5976-.2008.5862-.3634.7528-.6745.8934v.2509h2.6558v-.2509c-.3773-.0563-.7146-.6142-.7146-1.5076.0136-.6656.0807-1.3288.2007-1.9834h.0181Zm10.0152 3.7417v-.2388c-.8311-.1727-.8451-1.8208-.8451-3.4127V37.339h3.8684v8.4473l-.0006.0735c-.0137 1.5636-.0263 3.0002-.8426 3.1384v.251h3.1136v-.251c-.8151-.2248-.8289-1.7943-.8425-3.3333l-.0006-.0794V34.3318l.0006-.0716c.0136-1.5089.0262-2.9191.8425-3.1404v-.2509h-3.1136v.2509c.8164.14.8292 1.6897.8419 3.2586l.0013.1541v1.4515h-3.8684v-1.6462c0-1.5638.014-3.0112.8451-3.2119v-.2509h-3.1156v.2509c.8312.2568.8432 1.8769.8432 3.4127v11.2557c0 1.5078-.012 2.961-.8432 3.212v.2509h3.1156Zm11.0691-.2507v.2509h-3.1156v-.2509c.8312-.0563.8452-1.5358.8452-3.212V32.3323c-1.5838 0-2.5716 1.0883-3.0634 3.7983l-.1164-.0845.6344-5.5324c.1686.4757.5199.3632.7668.3632h4.9825c.2469 0 .6022.1125.7669-.3632l.6364 5.5305-.1185.0843c-.4918-2.7101-1.4795-3.7981-3.0613-3.7981v13.2955c0 1.7022.0119 3.3223.843 3.3786v.002Zm7.5422-7.0944-1.4304-8.9313-1.1794 6.697c.9496-.0282 1.9353.7267 2.6098 2.2343Zm-2.8105-.8393-.7488 4.4427c-.12.6546-.187 1.3178-.2007 1.9834 0 .8934.3373 1.4513.7146 1.5076v.2509h-2.6478v-.2509c.3111-.1406.4737-.3072.6745-.8934.2425-.8528.4328-1.7195.5702-2.5956l2.0897-11.8701c.0507-.2394.0921-.4805.1243-.7228.0196-.1474.0357-.2955.0484-.4437.0129-.1509.0222-.3021.028-.4536 0-.4938-.1826-.811-.4015-.8953v-.251h2.8808v.251c-.2329.1386-.3774.4456-.3774 1.0037.0114.3658.0504.7301.1164 1.09l2.2203 13.7411.0235.1267.0314.1719c.1554.8555.2707 1.4905.736 1.7411v.2509h-2.9489v-.2509c.4657-.2249.6363-.9777.6363-1.9554 0-2.5414-1.4795-5.8938-3.5693-5.9783Zm30.6665 4.8862v-7.5019c2.981 0 4.083 2.8306 4.083 5.4925 0 2.2905-1.032 4.1313-2.851 4.1313-1.24 0-1.239-.0243-1.233-1.712 0-.127.001-.2635.001-.4099Zm-1.576-11.6915v11.6052c0 1.5297-.014 3.0112-.932 3.2561v.255h4.284c2.78 0 3.969-2.0376 3.969-5.3499 0-3.4829-1.849-6.8495-5.745-6.8495v-2.7182c0-.2958-.006-.5524-.01-.7751-.03-1.3984-.031-1.4611 1.513-1.4611 1.749 0 2.839 1.1041 3.383 3.8503l.128-.0843-.702-5.6049c-.185.4819-.573.3674-.844.3674h-5.962v.2549c.918.255.918 1.8067.918 3.2541Zm14.227 7.6707-1.592-9.0558-1.303 6.7933c1.06-.0302 2.148.7347 2.895 2.2625Zm-3.11-.8473-.831 4.4987v.002c-.134.6613-.211 1.3331-.229 2.0075 0 .9055.372 1.4736.787 1.5297v.255h-2.923v-.255c.343-.1425.53-.3051.745-.9073.046-.1453.09-.2911.133-.4374.117-.402.223-.8077.315-1.216.035-.1514.068-.3031.099-.4552.035-.1739.068-.3484.099-.5233l2.307-12.0287c.123-.5393.194-1.0892.215-1.642 0-.504-.201-.821-.446-.9055v-.2549h3.182v.2549c-.259.1427-.416.4538-.416 1.0198.008.1954.023.3905.046.5846.021.1741.049.3474.083.5195l2.451 13.9258.038.1856.034.1675c.17.8402.296 1.4632.801 1.7126v.255h-3.252v-.255c.516-.2268.701-.9916.701-1.9814 0-2.5756-1.632-5.9722-3.939-6.0565Zm10.873 8.0381v.2548h-3.614v-.2548c.966-.2551.98-1.7266.98-3.2563V34.4664c0-1.5557-.014-3.198-.98-3.4528v-.2551h3.614v.2551c-.966.2007-.98 1.6702-.98 3.2541v1.6661h4.503v-1.4715l-.002-.1523c-.014-1.5915-.029-3.1621-.978-3.3006v-.2548h3.613v.2548c-.948.2235-.963 1.6537-.979 3.1826v11.48l.001.0794c.015 1.5591.031 3.1504.978 3.3735v.2589h-3.613v-.2548c.949-.1404.963-1.5976.979-3.1839l.001-.0724v-8.5758h-4.503v8.3792c0 1.606.014 3.2821.98 3.4529Zm7.313-18.3705v.2549c.945.283.961 1.8971.961 3.4528v11.4065c0 1.5297-.016 2.973-.961 3.2561v.255h3.543v-.255c-.946-.1706-.96-1.8469-.96-3.4529v-6.1708l1.406-2.15c.789 1.6458 1.455 3.3482 1.993 5.093.383 1.3027 1.078 4.0751 1.078 5.5766 0 .6224-.207 1.0198-.516 1.1041v.255h3.246v-.255c-.605-.1519-.846-1.3374-1.049-2.3353-.025-.1217-.049-.2407-.073-.3546l-.281-1.3009c-.767-3.6797-1.743-6.8515-3.264-9.5957l1.108-1.7546c.063-.0976.126-.1954.188-.2928.772-1.2026 1.508-2.3496 2.574-2.4815v-.2549h-3.559v.2549c.239.0562.401.1707.401.6787 0 .9682-1.325 3.0492-1.863 3.8949l-.116.1821-1.271 1.9534v-3.4548c0-1.5841.014-3.0836.96-3.2543v-.2549h-3.545Z"/>
</svg>