<svg xmlns="http://www.w3.org/2000/svg" viewBox="0 0 200 50">
	<path fill="#2E274D" d="M44.4345 43.3305l2.8376-5.6702h2.6471v.6869h-.9475v6.7932h.9475v.6768h-3.6046v-.6768h.9575v-5.8156l-2.8376 5.7654h-.9325l-2.8827-5.7654v5.8156h.9676v.6768H39v-.6768h.9425v-6.7932H39v-.6869h2.5869l2.8476 5.6702zM56.5368 38.4775v2.6521h2.5468v-.8723h.6568v2.4365h-.6568v-.8523h-2.5468V44.99h3.2688v-.9075h.6216v1.7347h-6.5826v-.6768h.9576v-6.7932h-.9576v-.6869h6.3771v1.6094h-.6668v-.7922h-3.0181zM68.093 45.8172h-1.8399v-.6768h.9526v-6.7932h-1.9753v.8623h-.737v-1.5492h7.1692v1.5492h-.757v-.8623h-1.9503v6.7932h.9376v.6768H68.093zM78.3503 41.5457l3.2738-3.1936h-.9977v-.6918h2.9529v.6918h-1.0227l-2.2862 2.2059 1.9202 3.3891c.2507.4412.4863.752.7169.9275.2356.1704.5565.2506.9726.2456v.7019c-.2807.0852-.6166.1404-.9977.1705-1.0077.0701-1.7547-.356-2.251-1.2735l-1.6193-2.9178-.6568.6568v2.6872h.9425v.6768h-3.6547v-.6768h.9676v-6.7982h-.9676v-.6919h3.6547v.6919h-.9425v3.1986h-.005zM96.3335 39.6957c-.386-.6517-.9275-1.1731-1.6243-1.5692-.6969-.391-1.489-.5915-2.3664-.5915-.8773 0-1.6644.2005-2.3663.5966-.7069.401-1.2483.9224-1.6243 1.5692-.3811.6417-.5716 1.3235-.5716 2.0354 0 .7219.1905 1.4038.5716 2.0505.376.6517.9174 1.1731 1.6243 1.5692.7069.396 1.494.5966 2.3663.5966.8774 0 1.6695-.1955 2.3664-.5916.6968-.3911 1.2383-.9124 1.6243-1.5692.3861-.6517.5816-1.3336.5816-2.0555 0-.7119-.1955-1.3937-.5816-2.0405zm-1.8148 4.1612c-.2657.5414-.5916.9275-.9827 1.1581-.391.2306-.7871.3409-1.1932.3409-.406 0-.8071-.1203-1.2032-.361-.391-.2406-.7169-.6367-.9726-1.1932-.2557-.5515-.381-1.2383-.381-2.0655 0-1.2383.2607-2.1508.7721-2.7373.5163-.5866 1.1079-.8774 1.7747-.8774.4211 0 .8272.1203 1.2233.361.391.2406.7169.6317.9726 1.1681.2507.5365.376 1.2333.376 2.0856.01.8723-.1203 1.5842-.386 2.1207zM106.004 43.3305l2.838-5.6702h2.652v.6869h-.952v6.7932h.952v.6768H107.884v-.6768h.958v-5.8156l-2.838 5.7654h-.932l-2.878-5.7654v5.8156h.963v.6768H100.57v-.6768h.942v-6.7932h-.942v-.6869H103.157l2.847 5.6702zM122.042 41.6009c-.516-.3058-1.018-.4913-1.504-.5515-.246-.0251-.607-.0351-1.078-.0351h-.807v-2.5368h2.507v.8272h.767v-1.6444h-5.971v.6919h.942v6.7882h-.942v.6768h3.559c.858 0 1.64-.1454 2.347-.4412.712-.2958 1.042-.9927.992-2.0856-.03-.8172-.301-1.3837-.812-1.6895zm-1.564 3.0281c-.291.3208-.662.4813-1.113.4813h-.712v-3.2838h.562c1.118 0 1.679.5364 1.689 1.5993.005.4813-.135.8823-.426 1.2032zM134.676 45.1404l-3.339-7.4801h-.998l-3.033 7.4801h-.907v.6768h2.456v-.6768h-.872l.622-1.5743h3.584l.667 1.5743h-.943v.6768h3.665l.025-.6768h-.927zm-5.821-2.241l1.414-3.4443.035-.2757h.055l.025.2757 1.529 3.4443h-3.058zM141.399 41.8415v3.2989h.957v.6768h-3.654v-.6768h.942v-6.7932h-.942v-.6869H142.356v.6869h-.957v2.7824h3.655v-2.7824h-.953v-.6869h3.65v.6869h-.953v6.7932h.953v.6768H144.101v-.6768h.953v-3.2989h-3.655zM154.785 41.5457l3.274-3.1936h-.998v-.6918h2.953v.6918h-1.023l-2.286 2.2059 1.92 3.3891c.246.4412.481.752.717.9275.236.1704.557.2506.973.2456v.7019c-.286.0852-.617.1404-.998.1705-1.003.0701-1.755-.356-2.251-1.2735l-1.619-2.9178-.657.6568v2.6872h.942v.6768h-3.649v-.6768h.962v-6.7982h-.962v-.6919h3.649v.6919h-.942v3.1986h-.005zM114.372 5.13338c-1.845-1.60429-3.86-2.32121-5.836-2.47662-1.98-.16043-3.985.13536-6.016 1.10796V2h-6.1814v1.67949c-4.4168-1.86499-9.5104-1.60429-13.4961 3.3239-4.7778 5.89071.5966 14.69431 5.7303 19.88821-1.2533.1604-2.5067.3158-3.755.4863.0401.9425.0802 1.89.1253 2.8326h8.979v-2.8326c-5.2841-6.5275-8.2821-13.2705-5.991-17.96808 1.9352-3.96561 5.4195-4.14609 8.3423-2.11566V30.2004h6.2466V7.4195c2.492-1.62435 4.668-1.73464 6.026-.96258 3.154 1.7948 3.48 4.98338 3.063 8.14678-.566 4.3065-3.328 8.8136-6.417 12.8243v2.7123h8.989v-2.7724c-1.233-.1655-2.466-.3259-3.7-.4863 4.698-5.0235 7.28-9.5807 7.506-13.5964.175-3.0281-.928-5.82058-3.615-8.15182zm1.925 10.08202c-1.138 4.3666-4.241 8.4927-8.548 12.5034 1.705.2056 3.404.4161 5.109.6267v.5866h-6.478v-1.088c2.226-2.9629 4.267-5.8606 5.244-8.628 1.113-3.1485 2.086-6.352.973-9.4403-.456-1.26338-1.198-2.55684-2.196-3.46427-1.133-1.03276-2.522-1.58925-4.301-1.50903-1.78.08021-3.194.77206-4.868 1.95021V29.0524h-3.7052V6.58727c-1.87-1.30349-3.6147-1.91512-5.5699-1.78477-1.9603.12032-4.3266 1.39373-5.6602 5.16381-.6567 1.85499-.401 3.95059-.0501 5.77549.8122 4.1761 3.3189 8.1468 6.352 12.0572v1.0879h-6.4723v-.5414c1.6995-.1855 3.4041-.361 5.1036-.5465-1.1581-1.2032-2.2811-2.2009-3.3088-3.4141-1.9954-2.3363-3.6598-4.7427-4.6274-7.1993-1.2082-3.0582-1.6544-6.4923.4913-9.4302 2.0054-2.75237 4.492-3.69489 6.9336-3.99068 2.4465-.29579 4.6023.39105 6.8132 2.02542V3.20823h3.7052v2.70724c1.8-1.4238 3.665-2.13571 5.524-2.24099 3.364-.20054 6.954 1.68451 8.674 4.40178 1.253 1.99534 1.569 4.43184.862 7.13914z"/>
</svg>
