<svg xmlns="http://www.w3.org/2000/svg" viewBox="0 0 200 50">
  	<path fill="#e2a250" d="M8.3 28.8s6.1-10.7 32.4-10.7 20.8 3.8 21.9 4.4c1.1.6 2.2.7 3.5-.7 1.6-1.6 1.7-2.6 1.7-4.2S63.3 10 51.4 10c-11.9 0-36.8 7.2-42.6 16.1-1.4 2.2-.5 2.7-.5 2.7Z"/>
  	<path fill="#5b6db0" d="M97.4 13.6c-1 0-1.9.2-2.5 1.8l-3.7 9.5c-.1.3-.3.5-.4.5s-.3-.2-.4-.5l-3.7-9.5c-.6-1.6-1.5-1.8-2.5-1.8s-2.3 0-2.3 1.9v12.6h2.7V17s0-.4.2-.4.3.3.3.5l3.6 9.5c.5 1.3.9 1.7 2 1.7s1.5-.4 2-1.7l3.6-9.5c0-.2.2-.5.3-.5s.2 0 .2.4v11.1h2.6V15.5c0-1.3-1-1.9-2.3-1.9ZM114.5 13.7h-13.8v2.2h5.5V28h2.7V15.9h5.6v-2.2zM126.8 13.6c-1 0-1.6.3-2.4 1.6l-5.7 9.4c0 .2-.2.3-.3.3-.2 0-.2-.3-.2-.6V13.6h-2.7v12c0 .8 0 2.4 2.1 2.4s1.9-.7 2.2-1.3 5.8-9.5 5.8-9.5V17c.2-.3.3-.5.4-.5s.2.2.2.5v10.8h2.7V15.9c0-.7 0-2.6-2.2-2.6ZM122 34.1c0 .2-.2.4-.3.5-.1.1-.3.2-.5.2s-.4 0-.5-.3c-.1-.2-.2-.4-.2-.8s0-.7.2-.9c.1-.2.3-.3.6-.3s.3 0 .4.1c.1 0 .2.2.2.4l1.3-.2c-.1-.5-.3-.8-.7-1.1-.3-.2-.8-.4-1.4-.4s-.8 0-1 .2c-.2 0-.3.2-.5.4s-.3.4-.4.6c-.1.3-.2.7-.2 1.1s0 .8.2 1c.1.3.3.5.4.7.2.2.4.3.7.4.3 0 .6.1 1 .1s.7 0 1-.2c.3-.1.5-.3.6-.5.2-.2.3-.5.4-.8l-1.3-.2ZM127 33h-1.2v-1.4h-1.4v4.2h1.4v-1.6h1.2v1.6h1.4v-4.2H127V33zM147.1 33h-1.3v-1.4h-1.4v4.2h1.4v-1.6h1.3v1.6h1.4v-4.2h-1.4V33zM161 30.8c-.3.3-.6.5-1.1.6v1.3c.3-.1.6-.2.8-.4.2-.1.4-.3.7-.5v3.9h1.4v-5.9h-1.2c-.1.4-.4.7-.6.9ZM182.6 35.8h1.4v-3.1h1.6v-1.1h-3v4.2zM186.5 34.2h1.5v1.6h-1.5zM148.1 19.7h-6.7v-3c0-.2 0-.5.2-.7.2-.1.5-.2.8-.2h8.3v-2.1h-10c-.7 0-1.2.3-1.4.5-.4.4-.5 1.1-.5 1.6v10.3c0 .4 0 .9.4 1.3.3.3.7.6 1.4.6h7.7c1.4 0 2.1-.6 2.4-.9.4-.5.8-1.4.8-3.2s-.2-2.4-.7-3.1c-.7-.9-1.8-1.1-2.5-1.1Zm.4 4.1c0 .4 0 1.2-.4 1.6-.4.4-.9.4-1.4.4h-4.3c-.3 0-.8 0-1-.3 0 0-.1-.2-.1-.8v-3h5.4c.5 0 1 0 1.4.4.4.4.4 1 .4 1.5ZM155.5 21.3c-.6 0-1.3 0-2 .6-.8.7-.9 1.7-.9 2.6s0 2.2.9 2.9c.6.5 1.4.5 1.9.5h5.1c.5 0 1.1 0 1.5-.4.4-.4.4-1 .4-1.4v-5.6c0-1.2-.3-2.1-.8-2.5-.5-.5-1.3-.8-2.2-.8h-6.1V19h5.3c.4 0 .8 0 1.2.5.3.3.3.7.3 1v.8h-4.7Zm4.7 4.3c0 .2 0 .3-.2.4-.2.1-.4.1-.5.1h-3.3c-.3 0-.6-.2-.8-.3-.3-.3-.3-.9-.3-1.2 0-.8.2-1.1.3-1.2.3-.3.7-.4.9-.4h3.9v2.5ZM167.5 23.3h5.1V28h2.4V17.2h-2.4v4.3h-5.1v-4.3h-2.4V28h2.4v-4.7zM177.7 17.2h2.4V28h-2.4zM185.1 28h2.9l-4.6-4.8c-.2-.2-.4-.5-.4-.8 0-.3.3-.7.5-.9l4.1-4.4h-2.8l-3.4 3.8c-.3.4-.7.9-.7 1.4s.4 1 .6 1.3l3.9 4.3ZM116.2 31.5c-.6 0-1.1.2-1.5.6-.4.4-.6.9-.6 1.6 0 .7.2 1.2.7 1.7.4.3.8.5 1.4.5s1.2-.2 1.5-.6c.4-.4.6-.9.6-1.6s-.1-1.1-.4-1.5c-.4-.5-.9-.7-1.7-.7Zm.5 3c-.1.2-.3.3-.5.3s-.4 0-.5-.3c-.1-.2-.2-.5-.2-.8 0-.4 0-.6.2-.8.1-.2.3-.3.5-.3s.3 0 .5.3c.1.2.2.5.2.8s0 .7-.2.9ZM131.6 31.5c-.6 0-1.1.2-1.5.6-.4.4-.6.9-.6 1.6s.2 1.2.7 1.7c.4.3.8.5 1.4.5s1.2-.2 1.5-.6c.4-.4.6-.9.6-1.6s-.1-1.1-.5-1.5c-.4-.5-.9-.7-1.6-.7Zm.5 3c-.1.2-.3.3-.5.3s-.4 0-.5-.3c-.1-.2-.2-.5-.2-.8 0-.4 0-.6.2-.8.1-.2.3-.3.5-.3s.4 0 .5.3c.1.2.2.5.2.8s0 .7-.2.9ZM137.4 33.5c.2 0 .4-.2.5-.4.1-.2.2-.4.2-.6s-.1-.6-.3-.8c-.2-.2-.5-.3-.9-.3h-2.2v4.2h2.1c.6 0 1-.1 1.2-.3.2-.2.3-.5.3-.9s0-.5-.2-.7c-.2-.2-.4-.3-.7-.3Zm-1.3-1h.3c.2 0 .4.1.4.3s-.1.4-.3.4h-.4v-.7Zm.7 2.2h-.8V34h.5c.3 0 .4.1.4.4s0 .2-.1.3ZM143.2 34.9V33c0-.2 0-.4-.1-.6 0-.2-.2-.4-.3-.5-.2-.2-.4-.3-.6-.3h-1.7c-.2 0-.4.1-.5.2-.2.1-.3.2-.4.4 0 .2-.2.4-.2.6l1.3.2c0-.2.1-.3.2-.4.1 0 .3-.1.5-.1s.3 0 .4.1c0 0 .1.2.1.4-.2 0-.3.2-.5.2s-.5.1-1 .3c-.4 0-.7.3-.9.5-.2.2-.2.5-.2.8s.1.6.3.9c.2.2.6.3 1 .3s.6 0 .9-.2c.2 0 .4-.2.5-.4v.5h1.3c0-.2-.1-.3-.1-.4V35Zm-1.4-1.1v.8c0 .1-.1.2-.3.3-.1 0-.3.1-.4.1s-.3 0-.3-.1c0 0-.1-.2-.1-.3s0-.2.1-.3c0 0 .3-.2.5-.3.2 0 .4-.1.6-.2ZM155.2 33.5c.2 0 .4-.2.5-.4.1-.2.2-.4.2-.6s-.1-.6-.3-.8c-.2-.2-.5-.3-.9-.3h-2.2v4.2h2.1c.6 0 1-.1 1.2-.3.2-.2.3-.5.3-.9s0-.5-.2-.7c-.2-.2-.4-.3-.7-.3Zm-1.4-.3v-.7h.3c.2 0 .4.1.4.3s-.1.4-.3.4h-.4Zm.8 1.5h-.8V34h.5c.3 0 .4.1.4.4s0 .2-.1.3ZM167.8 30.2c-.3-.2-.7-.3-1.2-.3s-.8 0-1 .2c-.3.2-.5.4-.6.7-.2.3-.2.7-.2 1.1 0 .6.2 1 .5 1.4.3.4.7.6 1.1.6s.4 0 .6-.1c.2 0 .3-.2.5-.4 0 .6-.1 1-.2 1.2-.1.3-.3.4-.5.4s-.2 0-.3-.1c0 0-.2-.3-.2-.5l-1.4.2c0 .3.2.6.4.8.2.2.3.4.6.5.2.1.5.2.9.2.7 0 1.2-.2 1.6-.7.4-.5.6-1.3.6-2.3s0-1.3-.3-1.7c-.2-.4-.4-.7-.7-.9Zm-.7 2.4c-.1.2-.3.2-.5.2s-.3 0-.5-.3c-.1-.2-.2-.4-.2-.7s0-.6.2-.7c.1-.2.3-.2.5-.2s.4 0 .5.3c.1.2.2.4.2.7s0 .6-.2.7ZM172.8 30.2c-.3-.2-.7-.3-1.2-.3s-.8 0-1 .2c-.3.2-.5.4-.6.7-.2.3-.2.7-.2 1.1 0 .6.2 1 .5 1.4.3.4.7.6 1.1.6s.4 0 .6-.1c.2 0 .4-.2.5-.4 0 .6-.1 1-.2 1.2-.1.3-.3.4-.5.4s-.2 0-.3-.1c0 0-.1-.3-.2-.5l-1.4.2c0 .3.2.6.4.8.1.2.3.4.6.5.2.1.5.2.9.2.7 0 1.2-.2 1.6-.7.4-.5.6-1.3.6-2.3s0-1.3-.3-1.7c-.2-.4-.4-.7-.7-.9Zm-.5 1.7c0 .3 0 .6-.2.7-.1.2-.3.2-.5.2s-.3 0-.5-.3c-.1-.2-.2-.4-.2-.7s0-.6.2-.7c.1-.2.3-.2.5-.2s.4 0 .5.3c.1.2.2.4.2.7ZM178.5 30.9c0-.2-.2-.3-.3-.5-.1-.2-.3-.3-.5-.4-.2 0-.5-.1-.8-.1-.7 0-1.2.2-1.6.7-.3.4-.5 1.2-.5 2.3 0 .4 0 .9.1 1.2 0 .4.2.7.3.9.2.3.4.5.6.7.3.2.6.2 1 .2.8 0 1.3-.2 1.6-.7.3-.5.5-1.3.5-2.3s0-.9-.1-1.4c0-.2-.1-.4-.2-.6Zm-1.1 3.2c0 .2-.1.4-.2.5-.1.1-.2.2-.4.2s-.4-.1-.5-.4c-.1-.3-.2-.8-.2-1.5s0-1.2.2-1.5c.1-.3.3-.4.5-.4s.4.1.5.4c.1.3.2.8.2 1.6v1.2ZM68.2 20.6zM68.2 20.6S62 31.3 35.8 31.3 15 27.5 13.9 26.9c-1.1-.6-2.1-.8-3.6.7C9 29 8.6 29.8 8.7 31.8c.2 2.7 4.5 7.6 16.4 7.6s36.8-7.3 42.6-16.1c1.4-2.2.5-2.7.5-2.7Z"/>
</svg>