<svg xmlns="http://www.w3.org/2000/svg" viewBox="0 0 200 50">
	<path fill="#5a5a5a" d="M94.7 23.1l-6.1-9.8h-5.5v23.4H88V21.5l6.6 9.8h.1l6.5-9.9v15.3h4.9V13.3h-5.3zm30.4 3.6c0 3.7-2 5.6-5.1 5.6-3.1 0-5.1-1.9-5.1-5.7V13.3H110v13.4c0 6.8 3.7 10.3 10 10.3 6.2 0 10.1-3.5 10.1-10.5V13.3h-4.9v13.4zm8.8 10h4.9v-8.8h10.3V23h-10.3v-4.9H152v-4.8h-18.1zM164.7 23v4.9h5.4v3c-1.5.9-2.9 1.4-4.8 1.4-4.1 0-7-3.1-7-7.4v-.1c0-3.9 2.9-7.2 6.6-7.2 2.7 0 4.2.9 6 2.4l3.2-3.9c-2.4-2.1-4.9-3.2-9.1-3.2-7 0-12.1 5.4-12.1 12v.1c0 6.9 4.9 12 12.1 12 4.3 0 7.4-1.7 9.9-3.7V23h-10.2z"/>
	<g fill="#e60000">
		<path d="M49.8 17.7c-4 0-7.3 3.3-7.3 7.3s3.3 7.3 7.3 7.3 7.3-3.3 7.3-7.3-3.3-7.3-7.3-7.3z"/>
		<path d="M57 7.4c-2.6 0-5 .5-7.2 1.5-2.2-1-4.6-1.5-7.2-1.5C32.9 7.4 25 15.3 25 25c0 9.7 7.9 17.6 17.6 17.6 2.6 0 5-.6 7.2-1.5 2.2 1 4.6 1.5 7.2 1.5 9.7 0 17.6-7.9 17.6-17.6-.1-9.7-7.9-17.6-17.6-17.6zm-7.2 33.5c-8.8 0-15.9-7.1-15.9-15.9S41 9.1 49.8 9.1 65.7 16.2 65.7 25s-7.1 15.9-15.9 15.9z"/>
	</g>
</svg>
