<svg xmlns="http://www.w3.org/2000/svg" viewBox="0 0 200 50">
	<path fill="#010101" d="M185 27c-.2-.9-.8-1.7-1.6-2.2-1.1-.6-2.4-.9-3.6-1.1-1.3-.2-2.6-.3-3.9-.4-1.4-.1-2.8-.1-4.1-.5-.6-.2-1.1-.6-1.1-1.2-.1-.6.5-1.1 1.1-1.3 1.2-.5 2.5-.5 3.8-.5 2.4 0 4.7.5 6.8 1.6.4-.5 1.3-1.4 1.8-2.1-2.5-1.6-5.5-2.2-8.4-2.2-2.1 0-4.2.3-6 1.2-1.1.6-2 1.6-2.2 3-.2.8-.2 1.7.2 2.4s1.1 1.3 1.8 1.6c1.1.5 2.4.7 3.7.8 1.6.2 3.3.2 4.9.3.9.1 1.8.2 2.6.6.5.2 1 .7 1 1.3 0 .6-.3 1.1-.8 1.5-.7.5-1.7.8-2.6.9-3.4.4-7-.1-9.9-2.1-.5.7-1.1 1.4-1.6 2.1 2.8 2.1 6.3 2.7 9.7 2.7 1.9-.1 3.9-.3 5.7-1.1.9-.5 1.7-1.1 2.2-1.9.6-1 .7-2.3.5-3.4zM83.4 30.5L72.9 17.6h-4.5v15.5h3V20.2L82 33.1h4.4V17.6h-3zM160.1 17.5h3V33h-3zM155.7 17.5h-3.8l-5.8 5.8-5.9-5.8h-3.8l7.7 7.7-8 7.8h3.8l6-5.9 6.3 5.9h3.8l-8-7.9zM129.7 33h3.1V17.5h-3zM108.6 20.3h7.4V33h3V20.2h7.4v-2.7h-17.8zM97.6 17.5L89.2 33h3.3l1.8-3.3h10.4l1.8 3.3h3.3l-8.4-15.5h-3.8zM95.8 27l3.7-6.8 3.6 6.8h-7.3z"/>
	<path fill="#382c3f" d="M29 22.6c.2 0 .5-.1.8-.2.3-.1.7 0 1-.2.1 0 .2.1.3.1v.4h.1c.2-.2.3-.5.4-.7l-.1-.1.3-.6c-.1-.1-.1-.2-.2-.3.1-.1.3-.1.5-.1 0-.3.1-.7 0-1-.1-.3 0-.7 0-1-.2-.2-.4-.5-.6-.7.2-.2.4-.3.6-.4-.3-.4-.5-.9-.5-1.4-.1 0-.3-.1-.4-.1v-.5h-1.8c-.6.1-1.2.1-1.8.3-.3 0-.5.2-.8.2-.1 0-.2.1-.3.1l-.1-.2h-.2v.1h.2v.2c-.5.2-1 .3-1.4.7-.2.2-.6.3-.9.4-1.2.7-2.3 1.5-3.3 2.3-.2.1-.6.2-.6.5.6-.2 1.2-.5 1.8-.8-.1.3-.4.5-.7.6.4.4.9.7 1.4.5.2.1.4-.1.6-.3h.4c0-.1.1-.2.1-.3h.4c.1-.1.2-.3.2-.4h.4c.1-.3.4-.6.5-1h.3v-.3h.2c.2-.2.3-.4.4-.6h-.3c-.1-.2-.2-.4-.3-.5h.5c.7-.6 1.7-.7 2.5-1 .5-.2.9-.2 1.4-.2l.1.1c-.3.3.2.6.4.7 0 .1-.1.2-.1.2.1.2.1.6.1.9-.3.2-.6.4-.7.8.2 0 .4.2.5.4-.2.1-.3.2-.4.2.3.2.5.3.7.5-.2.5-.8.8-.9 1.4-.1.3-.4.7-.6 1h-.7c-.6.2-1.2.4-1.7.7-.6-.1-.9.4-1.4.5-.1-.1-.2-.3-.2-.4H25v.4c-.1 0-.2.1-.3.2 0 .2-.1.4-.1.5-.1-.1-.2-.2-.3-.2 0 .2-.1.4-.1.5-.5 0-.9.3-1.4.5v.2c-.1-.1-.3-.1-.4-.1h-.1c-.1.2-.1.4-.1.5-.1.1-.3.2-.5.2-.1 0-.1.1-.1.1-.3.1-.6.3-.8.5l.1.2c.4-.1.7-.3 1.1-.4.5-.3.8-.6 1.2-.7.4-.2.7-.5 1.1-.7.2-.2.6-.2.8-.4.4-.3.8-.4 1.2-.6l.9-.6h.4c0-.1.1-.2.1-.2.5-.1.9-.2 1.3-.4zM31.2 15.8zM31.2 15.8v-.2c-.1.1-.2.2 0 .2zM52.2 21.2c-.1 0-.2.1-.3.1l.3-.1c.2 0 .4-.3.4-.5h.2v-.2h-.3c-.1.2-.2.4-.3.7zM19.1 20.7c-.1.2-.2.3-.3.9h-.2c-.2.2-.3.4-.6.4-.1.1-.2.2-.2.3-.2 0-.3.2-.4.2l-.2.1-.1.2c-.2 0-.4.1-.5.2 0 .3-.2.5-.4.7-.1.4-.5.7-.6 1.1 0 .1-.2.2-.2.2v.3c-.2.1-.3.2-.5.3h.3c0 .1.1.3.1.4h.2c0 .3.3.4.5.4v.2c.1-.1.2-.2.3-.2.1.2.3.4.5.5v-.1c.2 0 .4 0 .6.1.1-.1.2-.2.3-.2-.2-.1-.5-.1-.7-.3l-.4-.4c-.4-.3-.8-.9-.6-1.5.3-1 1.2-1.6 1.9-2.2.4-.3.7-.8 1.2-.7v-.4h.4c.1-.3.2-.6.4-.9l-.1-.1c-.2.2-.4.4-.7.5zM53.4 15.1c-.3 0-.5.2-.7.4-.1 0-.2-.1-.3-.1.2-.2.3-.4.4-.5-.2.1-.5.2-.7.3-.1-.1-.1-.2 0-.2-.3.2-.6.5-.8.8-.3 0-.5-.2-.7 0-.4.3-.7.6-1.2.6-.3.5-1 .5-1.5.9-.1 0-.2-.2-.2-.2V17.4c-.2.3-.5.5-.8.7 0 .1.1.2.1.3.1 0 .1.2.1.2h.5v.4c-.2 0-.3.1-.5.1 0 .1-.1.2-.2.2.1.1.2.2.3.2v.2c.1.1.3.2.4.2.2 0 .2-.3.3-.4.3 0 .4-.2.5-.4-.1.1-.3.2-.4.2.1-.1 0-.4.2-.4s.5.1.7.2c0-.2-.1-.4-.2-.5h.7c-.3-.2-.6-.3-.7-.6.2-.1.5 0 .7 0 .1-.3 0-.5-.1-.7.4-.2.9-.2 1.3.1l.2-.2c.1 0 .2.1.3.1.1-.2.1-.3.2-.5 0-.1.2-.1.2-.1v-.2h.5c.1.3.1.6.3.9.1-.1.1-.3.2-.4 0 0 .1.1.2.1v-.3c-.1-.1-.3-.2-.4-.2.1-.3.3-.7.7-.7-.1 0-.2-.2-.2-.2h.4c.1-.2.2-.4.2-.6zM32.4 37.8H32c-.3-.1-.5-.1-.7-.1-.2-.3-.6-.5-.9-.8.1-.2.2-.3.2-.4.1.1.3.2.4.3v-.4c.1-.1.2-.2.3-.2-.2-.1-.5-.3-.7-.4l-.2.1c0 .2.1.4.2.5-.4 0-.6-.3-.7-.5-.3.2-.4.4-.4.7-.2-.1-.3-.3-.4-.4v-.4c-.3.1-.5.2-.7.3-.1 0-.2 0-.1.1-.3 0-.4.3-.4.5.1-.1.2-.2.3-.2 0 .1.1.2.2.3-.2.1-.5.2-.7.2.2.1.4.3.5.4h-.5c.1.1.2.2.2.3.2 0 .3.2.4.4.2 0 .3.2.5.3h.3v.1l-.1.2c.3.3.8.2 1.2.2l.2.2c.1-.3.5-.2.7-.2.1-.1.3-.2.4-.3 0 .1.1.2.2.2.1-.2.1-.5.1-.7.1.1.3.1.5.1-.1.1-.2.2-.3.2v.6c.2-.1.5-.1.8-.1l.1-.1c.1-.2.2-.3.3-.4-.2-.2-.8-.2-.8-.6zM19.1 26.7c-.4.2-.8-.3-1.2-.2l.4.4c-.1.1-.3.2-.4.2h1c.2-.1.5-.2.7-.2 0-.3-.3-.3-.5-.2z"/>
	<g fill="#563a69">
		<path d="M25 16.8c.1.2.2.4.3.5h.3c-.1.2-.3.4-.4.6H25v.3h-.3c-.1.4-.3.7-.5 1 .4-.2.8-.2 1.1 0 0-.1.1-.2.2-.2v-.4c.1 0 .2.1.3.1.1-.1.2-.3.3-.4-.1-.1-.2-.2-.3-.2.1 0 .2-.1.2-.2v-.2c.2-.1.3-.2.4-.3V17l.6-.3.1.2c0-.1.1-.1.1-.1.1.1.3.2.4.2-.1-.1-.2-.2-.2-.3.2-.2.4-.4.7-.2v-.2c-.8.2-1.7.4-2.6.5H25zM28.1 16.3c.1 0 .1 0 .2-.1h.1c-.1 0-.2 0-.3-.1v.2z"/>
		<path d="M28.8 22.2c.3-.3.5-.6.6-1 .2-.5.7-.9.9-1.4-.2-.2-.5-.4-.7-.5.2-.1.3-.2.4-.2-.1-.2-.3-.3-.5-.4.1-.3.4-.6.7-.8.1-.3 0-.6-.1-.9 0-.1.1-.2.1-.2-.2-.1-.7-.4-.4-.7l-.1-.1c-.5 0-.8 0-1.3.2.2 0 .4 0 .6-.1.1.1.1.2.1.2-.1.1-.3.1-.4.1v.4c.1-.1.3-.1.4-.1v.2h-.3c0 .3.3.3.5.4v.6c-.2.1-.6.1-.6.3-.1.2 0 .3 0 .4-.2.2-.3.5-.4.7-.1 0-.2.1-.3.1.1.1.2.1.3.2l-.3.9c.1 0 .2-.1.3-.1.3.4.2.9 0 1.3h-.7v.2c-.2 0-.4.1-.5.2V22c-.1.1-.2.1-.3.1-.2-.1-.4-.3-.6-.1-.1 0-.2-.1-.3-.1v.3c-.2-.1-.3-.2-.5-.3-.1.1-.1.2-.2.3-.2-.2-.3-.4-.4-.6.3.1.7.2 1 0 .3.1.5.2.7.3.1-.1.3-.1.4-.1-.1-.1-.1-.2-.2-.2 0-.2-.1-.5-.2-.7l-.3.3c-.2-.1-.3-.2-.4-.3l-.3.3c0 .1.1.2.1.2h-.4c0-.1-.1-.2-.1-.2l.3-.3c-.2-.2-.4-.5-.6-.6h-.2v-.4c.1.1.3.2.4.3v-.6h-.9c-.1.1-.2.3-.2.4h-.4c0 .1-.1.2-.1.3H23c-.1.2-.3.4-.6.3-.6.2-1.1-.1-1.4-.5.3-.1.6-.3.7-.6-.6.2-1.2.6-1.8.8-.2.3-.3.6-.2.8h-.4v.4c-.5-.1-.9.4-1.2.7-.8.6-1.6 1.2-1.9 2.2-.2.6.2 1.1.6 1.5.1-.1.2-.3.2-.4-.1-.1-.3-.1-.5-.2-.1-.1-.2-.3-.2-.4.1-.2.3-.5.4-.7.3.1.6.1.9-.1-.3-.2-.7-.2-.9-.5.2-.1.5-.2.7-.4h.7c-.1-.1-.2-.3-.2-.3.1-.1.3-.2.5-.3-.1-.1-.2-.3-.2-.4.2.1.5.2.7.3-.1 0-.3.1-.4.1h.8v.7c.2.5.8.4 1.2.5l-.2.2c.1.1.1.2.1.3l-.2-.2c-.1.1-.2.2-.2.3h-.9c.2.2.4.3.6.4 0 .3 0 .7.4.8.1.1.1.3.1.4-.2.1-.5.2-.7.2.1-.2.2-.4.4-.5-.4-.2-.6-.6-.8-1l-.4.4c.2.2.5.4.7.6v.2c-.1-.1-.2-.1-.3-.1l-.3.3c-.1-.2-.2-.3-.3-.4-.3.1-.7.2-.7.7h-.7c.2.2.5.3.7.3-.1.1-.2.2-.3.2.1.1.3.2.4.2.1-.1.3-.2.4-.2-.2-.1-.3-.2-.4-.3.4 0 .8.4 1.2.2.2-.1.5-.1.5.2.1-.1.3-.1.5-.1s.5-.2.7-.3l-.1-.2c.2-.3.5-.4.8-.5.1 0 .1-.1.1-.1.2-.1.4-.1.5-.2.1-.2.1-.4.1-.5h.1c.1.1.3.1.4.1V25c.5-.2.9-.5 1.4-.5 0-.2.1-.4.1-.5.1.1.2.2.3.2 0-.2.1-.4.1-.5.1 0 .2-.1.3-.2v-.4c.1.1.1.2.1.3.5-.1.9-.6 1.4-.5.5-.4 1.1-.6 1.7-.7.3-.1.5 0 .7 0zm-3.7.4v.4h-.3s0 .1.1.1h-.1c0-.2-.1-.5-.1-.7.1-.1.3-.1.4-.1.1 0 .3.1.4.1-.2.1-.3.2-.4.2zM45.5 19.7c-.1-.1-.3-.3-.5-.3.1.1.1.2.1.3.1.1.3 0 .4 0zM39.8 26.7zM39.2 27.1c.2.2.5.4.8.4.1-.1.1-.4.2-.5-.1-.1-.3-.2-.4-.3 0 .2 0 .3.1.5-.2 0-.5-.1-.7-.1zM55.8 12.6v.3c.1-.2.2-.2.3-.2-.1 0-.2 0-.3-.1z"/>
		<path d="M62.2 12.3h-.5s0-.1-.1-.1H61c-.2.1-.5.2-.7.1v-.4c-.5-.1-.7.6-1.1.7-.2.1-.4.1-.5.1 0-.1 0-.2-.1-.4v.4c-.4-.2-.9 0-1.2.2l-.1.1c0-.1-.1-.2-.1-.4-.2.1-.4.1-.6.2 0 .1-.1.3-.2.4v-.4c-.1 0-.1 0-.2-.1 0 .1-.1.2-.2.3-.5.3-.9.6-1.5.5v-.1h.5v-.3c-.1.1-.3.4-.5.1v-.1l.1-.1c-.2.1-.4.2-.5.4h.2c.2.4-.3.4-.5.3v.1c-.2.1-.5.2-.7.3v-.3l-.2.2s-.1.2-.2.2h.4c-.3 0-.6 0-.7.3h-.1v.2c.2-.1.5-.2.7-.3-.1.1-.2.3-.4.5.1 0 .2.1.3.1.2-.2.4-.4.7-.4 0 .2-.1.4-.2.6H53s.1.2.2.2c-.4 0-.6.4-.7.7.1 0 .3.1.4.2v.3s-.1-.1-.2-.1c-.1.1-.1.3-.2.4-.2-.2-.2-.6-.3-.9h-.5v.2l-.2.1c-.1.2-.2.3-.2.5-.1 0-.2-.1-.3-.1l-.2.2c-.4-.3-.9-.3-1.3-.1.1.2.2.4.1.7-.2 0-.5-.1-.7 0 .1.3.4.4.7.6h-.7c.1.2.2.3.2.5-.2-.1-.4-.2-.7-.2-.2 0-.1.3-.2.4.1-.1.3-.1.4-.2-.1.2-.2.4-.5.4-.1.1-.1.4-.3.4-.1 0-.3-.1-.4-.2V19c-.1 0-.2-.1-.3-.2v-.5c.1 0 .2-.1.3-.2v-.2c0-.1-.1-.2-.1-.3 0 .1-.1.2-.1.3-.2 0-.4 0-.6.2 0 .1.1.2.2.3-.2 0-.5.1-.7.2l.2-.2c-.2.1-.5.2-.7.3 0 0 .1.1.1.2.2 0 .4-.1.6 0l.1.2v.2c0 .1-.1.1-.2.2v.5s-.1 0-.2.1c0-.1-.1-.2-.2-.4-.5 0-.7.5-.9.8-.3.1-.5.3-.7.5 0 0-.1-.1-.1-.2-.1.4-.4.7-.7.9-.2 0-.4-.1-.5-.1-.1 0-.2.1-.3.2 0-.1-.1-.2-.1-.3.1 0 .2-.1.4-.2s.3-.2.4-.5v-.4c-.4.5-1.1.7-1.5 1.2-.6.6-1.4 1.1-1.9 1.7h-.4c0 .1-.1.2-.1.3h-.1l-.2.2-.3.2c0-.3 0-.7-.2-1-.1-.2-.3-.2-.5-.3h-.4s.2.1.2.2c.1.2.2.5.4.7 0 0-.1.1-.1.2-.3-.1-.7-.2-.9.2.1.1.2.3.4.4-.1 0-.3 0-.4.1.5 0 .7-.3 1.1-.6 0 .2.1.4.2.5-.1.2-.3.5-.2.7.1.3.1.7 0 1 0 .1 0 .2-.1.3h.1c0 .1-.1.1-.1.2v.3s-.1.1-.2.1c0 0 0 .1.1.1 0 .1-.1.2-.1.3.2 0 .3.1.5.1.2-.1.4-.2.6-.2l.1-.1c-.1 0-.2 0-.4.1.1-.2.1-.5.1-.7h.2c0-.1.1-.1.1-.2l.2-.1c.1-.1.2-.2.4-.3 0 .2-.1.5-.1.7h.4c-.1 0-.2-.1-.3-.2.4-.2.8-.4 1.3-.4s.7-.4 1.2-.5c0-.1-.1-.2-.2-.2.4 0 .7-.1 1-.3v-.6l-.6.3v-.2s-.2 0-.2-.1v-.2h.5s-.1-.1-.1-.2c.4-.1.7 0 1 .1v.2c.2.1.3.2.5.3v.5c.3-.4.5-.7.7-1.1h.4v-.4c-.2.2-.5.3-.7.6-.1.2-.3.2-.5.3v-.9l.3-.3c-.2 0-.4 0-.6-.1.2-.7.9-.8 1.4-1.2.5-.2.7-.7 1.2-1 0 0 .1.2.1.3.4.1.7.2 1.1 0l-.2-.2c0-.1.1-.1.2-.2 0 0 .1.2.2.3v-.2c-.3-.3 0-.7.1-1 .2.2.3.4.5.5.2-.1.5-.2.7-.2 0-.2 0-.4.1-.5h-.4c.1-.1.3-.2.4-.2 0 .1.1.2.1.3.4-.4 1.1-.5 1.3-1.1h.7c.1-.4.3-.7.6-.9.2 0 .4.1.5-.1.2-.3.3-.7.5-1 .2 0 .4 0 .6-.1 0-.1-.1-.3-.1-.4.1 0 .2 0 .3-.1v.2s.1 0 .2.1v-.4c.3.2.7.3 1.1.2l.2.2c.1 0 .2-.1.3-.1.2-.3.5-.4.9-.5l.3-.6c.2 0 .4-.1.5-.2h.2c0-.1.1-.2.2-.3h.4c.2 0 .4-.1.5-.1l.1-.2c0-.1-.1-.3-.1-.4V13.9c.1 0 .2-.1.3-.1.1 0 .2-.1.3-.1.1-.1.2-.2.4-.2.4 0 .5.4.7.7.1-.1.2-.2.2-.3h.4v-.3s-.1-.1-.1-.2h.3c0-.7.8-.7 1.3-.7-.2-.1-.2-.2-.2-.4zM40.3 23.9c-.2 0-.1-.3 0-.3.2-.1.2.3 0 .3zm.5-.3h-.2v-.2h.3c.1-.1.2-.3.3-.4 0 .3-.2.4-.4.6zm.6-1.1c-.1.1-.2.2-.3.4-.3.1-.4.4-.7.4.1-.3.5-.3.7-.4v-.3c.3 0 .4-.3.6-.5h.4c-.2.3-.5.3-.7.4zM56.1 12.7s.1 0 0 0c.1 0 .1 0 0 0 .1 0 0 0 0 0zM28.7 35.1c-.3.1-.3.5-.5.7-.2-.1-.3-.3-.3-.5-.2.2-.4.4-.5.7 0 .2.1.5.3.7.2 0 .5-.1.7-.2-.1-.1-.2-.2-.2-.3-.1 0-.2.1-.3.2.1-.2.1-.5.4-.5.1 0 .2 0 .3.1.2-.1.4-.2.7-.3-.3-.1-.4-.4-.6-.6z"/>
		<path d="M38.7 34.7c-.1 0-.2 0-.3.1.1-.2.2-.5.2-.8-.2 0-.3.2-.5.4 0-.1 0-.2-.1-.3.1 0 .3-.1.5-.1-.2-.3-.5-.2-.8-.2l-.3.3c0 .1.1.2.2.3-.4-.2-.8-.2-1.2 0-.3-.2-.5-.1-.8 0-.3 0-.7-.1-1-.2-.2.2-.4.4-.6.5 0-.1.1-.3.1-.4h.3c0-.3.1-.7-.1-1-.1-.4-.6-.4-.9-.4-.1.2-.3.4-.4.5-.2 0-.4-.2-.4-.5 0 .1-.1.2-.2.3h-.5c.3.2.6.3.8.5-.4 0-.8-.2-1.3-.2-.1 0-.2 0-.3-.1 0-.1.1-.2.1-.3 0-.3 0-.7-.2-1-.1.1-.2.2-.2.3-.2 0-.5.2-.7.3h-.4v-.5c-.2 0-.3.1-.5.2-.2 0-.4-.1-.5-.2.1-.1.3-.2.4-.3-.1 0-.2 0-.3-.1.2 0 .4-.1.6-.2h.3s0-.2.1-.2h-.6v-.6c-.3.4-.7.8-.7 1.4-.2-.2-.4-.4-.7-.6 0 .1-.1.1-.2.2-.1.2-.2.8.2.7v.2c-.2-.1-.4-.2-.6-.2 0 .2 0 .4.2.6-.1 0-.2.1-.3.2v.6c.2.2.5.4.7.6-.1 0-.2.1-.3.2 0 .2-.1.3-.1.5h.1c.2-.2.4-.4.7-.5v.6l.2-.2c.1 0 .3 0 .4-.1v-.2c.1 0 .2-.1.3-.2v.3s.1.1.2.1v1.1c.1.1.2.3.4.4 0-.3.1-.5.4-.7.1.2.3.5.7.5-.1-.1-.2-.3-.2-.5l.2-.1c.2.1.5.2.7.4-.1 0-.2.1-.3.2v.4c-.1-.1-.3-.2-.4-.3 0 .1-.1.2-.2.4.3.3.7.5.9.8.2 0 .4 0 .7.1h.4c0 .4.6.4.8.6-.1.1-.2.2-.3.4v.4c.2 0 .3-.1.4-.2.3 0 .6-.1.9-.1l-.3-.3s.2 0 .2-.1c.2-.1.4-.2.5-.3-.2 0-.4 0-.6-.1.1 0 .2-.1.3-.2.2-.1.5-.2.7-.4 0-.1 0-.2-.1-.3.2-.1.4-.3.6-.5 0 .1.1.2.1.3l.3-.3c.2 0 .4 0 .6-.1.7-.3 1-1.3 1.8-1.3V35c-.2 0 0-.1.2-.3zm-11.2-1c-.2-.1 0-.5.2-.4.1.1-.1.3-.2.4zM28.4 38.5c-.2 0-.7.2-.7-.1h-.2c-.1-.1-.1-.2-.1-.3 0 .1 0 .3.1.4.4.2.8.4 1.2.4v-.1c0-.1.1-.1.1-.1l.1-.2c-.2-.1-.6-.2-.9-.2.1.1.3.2.4.2zM28.2 37c-.1.3-.2.6.1.6.2-.1.3-.3.3-.5h.3c-.1-.2-.5-.1-.7-.1z"/>
		<path d="M31.2 38.7c0-.1-.1-.2-.2-.2-.2.1-.3.2-.4.3l.6-.1v.2h-.6v.4c.4-.1.7-.1 1.1-.2v-.7c.1-.1.2-.2.3-.2-.1-.1-.3-.1-.5-.1 0 .2 0 .5-.3.6z"/>
		<path d="M58.9 14.2c.2.2.4.3.5.4 0 .2-.1.3-.1.5.1-.2.3-.3.5-.4-.2-.3-.5-.5-.9-.5zM31.2 15.4h-1.1c.2 0 .4.1.6.1l.1.1c.2.1.4 0 .4-.2l.1.2v.3c.3 0 .5-.1.8-.1-.2-.4-.6-.4-.9-.4zM58.8 15.4c-.4.3-.7.5-1.1.7v.2c.5-.3 1.1-.6 1.6-1v-.1h-.6c0 .1 0 .2.1.2zM59.9 17.3c0 .2 0 .4-.1.7.2-.1.4-.2.5-.4l-.3.1v-.1h.2c.1-.3.5-.3.7-.4 0-.1.1-.2.1-.2-.4.1-.7.2-1.1.3zM54.9 18.2l-.1.2h.2c.1-.1.2-.2.4-.3-.2 0-.3.1-.5.1zM30.3 18.1c-.2.1-.3.3-.3.4.2.1.5 0 .7 0-.1-.2-.2-.3-.4-.4zM55.1 17.9s.2.1.3.2l.2-.2h-.5zM55.4 18.1s.1 0 0 0c.1 0 0 0 0 0zM53.9 19.1c-.2.1 0 .3.2.3l.1-.1c0-.2-.2-.3-.3-.2zM55.3 20.5v.3c.1 0 .3-.1.5-.1l.3-.3v-.2c-.2.2-.5.3-.7.5 0-.1-.1-.2-.1-.2zM36.2 25v-.6c-.2.1-.3.1-.4.2-.2 0-.5-.1-.7-.2 0 .2.1.4.2.6l.2-.2.6.3v.2c.1-.1.2-.1.2-.1-.1 0-.1-.2-.1-.2zM45.8 28.5zM45.4 28.8c-.1.1-.1.3-.2.5-.2 0-.3-.1-.4-.1v.3c-.3.1-.5.3-.5.6h.4c.1-.1.2-.2.2-.3 0-.1-.1-.3 0-.4.1 0 .2.2.2.2l.9-.9c0-.1-.2-.2-.2-.2v.3h-.4zM48.8 25.2c-.1-.2-.3-.3-.5-.4-.1.2-.1.3-.1.3-.1 0-.2-.1-.3-.1.1.2.1.3.1.5-.1.2-.2.5-.3.7-.1.1-.3.1-.5.1v.1c.1 0 .3.1.2.3-.1.1-.1.1-.1.2-.1.1-.2.1-.2.1v.1c.1.1.1.3.1.4l-.1-.1c-.2.2-.3.5-.5.7 0-.2 0-.3.1-.4.1-.1.1-.3.1-.3.2-.1.1-.3.1-.5 0-.1.1-.1.1-.1l-.2-.1c0 .4-.3.8-.5 1.1-.1 0-.2-.1-.3-.1-.1.3-.2.5-.2.8.1-.2.2-.3.4-.3v.4c.2-.4.6-.6.9-.9.3-.1.4-.4.4-.7h.4c.1-.2.2-.5 0-.7.1-.2.2-.4.5-.4-.1-.1-.2-.2-.2-.3.1-.2.4-.3.6-.4zM30.3 27.2c0 .1.1.2.1.3l-.2.2v.7c.3-.2.6-.4.8-.7-.1-.1-.2-.2-.2-.3.1 0 .2-.1.2-.1-.2-.1-.5-.1-.7-.1zM31.8 26.8c-.1 0-.2-.1-.2-.1v.5c0-.1-.1-.2-.2-.2-.2.2-.1.5-.2.7-.1.2-.1.3 0 .4.2 0 .2-.4.4-.5h.3c-.2-.2-.1-.5-.1-.8zM43.2 30.5c0 .1 0 .2-.1.4 0 .1 0 .3-.1.4 0 .1.1.2.1.3.5-.3.4-.8.7-1-.1 0-.2-.1-.2-.1h-.4z"/>
	</g>
	<g fill="#78578f">
		<path d="M58.3 12.4c-.1 0-.3-.1-.4-.1.4-.2.8-.2 1.2-.2h.1c.1 0 .2.1.2.1.2-.3.6-.4.9-.4v.5c.2.1.5 0 .7-.1V12c-.2 0-.4-.1-.5-.2.2-.1.5-.2.7-.2.1-.1.1-.3.2-.4.2.1.4.1.6.1s.4-.3.3-.5l.2.2v-.4h.1v.3c.2-.1.5-.2.6-.5h.6V10c-.7.2-1.5.3-2.2.8-.1 0-.2 0-.4.1v.3c-.1-.3-.5 0-.7 0-.1 0-.1.2-.1.2-.1-.1-.2-.1-.3-.1v.2h-.4c0 .1-.1.2-.1.3-.2 0-.3.1-.4.1l.1-.3h-.6v.3h-.1c0-.2 0-.4-.1-.5v.5c-.2-.1-.6 0-.6.2h-.2c-.1.1-.1.2-.1.2-.3.1-.1-.3-.1-.4-.1 0-.2.1-.2.1v.3c0 .1-.1.2-.1.2.4.1.7 0 1.1-.1zM57.6 19.5v.1c.1 0 .2-.1.2-.1h-.2zM65.5 13.6h-.4c-.1-.3-.1-.6-.1-1-.1 0-.2-.1-.2-.1.1.3.1.5 0 .4-.1-.1-.3-.1-.4-.1h-.8v.3h-.2c0-.1 0-.2-.1-.3.1 0 .3-.1.4-.1v-.4l-.2.1c-.1.1-.3.1-.4.1.1-.1.2-.2.3-.2v-.2c-.1.2-.3.3-.4.4 0-.4.4-.5.6-.7-.3-.2-.5-.3-.8-.4l-.3.3h-.3c0 .1.1.2.1.3-.1.1-.2.2-.2.3l.1.1v.3c.3.1.5.2.8.2h.3c0 .1-.1.1-.1.1h-.3c.1.1.1.3.2.4h-.2v.7c-.1 0-.3-.1-.4-.1-.2.1-.3.2-.5.3-.3 0-.5-.1-.7-.1 0 .1-.1.2-.1.2-.2.1-.4.2-.6.2.2.4.2.7 0 1.1h.9c-.4.1-.8.4-1.2.2v.2c-.1-.1-.2-.3-.3-.4 0 .3.2.7.3 1 .2-.1.4-.2.7-.2h.1c-.3-.1 0-.3.1-.1.2.1.3.1.4.2.1-.1.2-.1.2-.1-.1 0-.2-.1-.2-.1.2.1.4-.1.4-.3 0 .1.2.1.2.1.3-.2.6-.5 1-.5.2-.1.4-.2.6-.4-.2 0-.4 0-.6-.1.4-.2.7-.5 1.1-.6.2-.1.6-.2.7-.4h.3c.2-.2.5-.5.8-.6v-.2c-.1.2-.4.2-.6.2zM55.7 13.4c-.1-.1-.3-.2-.4-.2v.3c-.1-.2-.2-.4-.4-.4-.1.2-.1.4-.2.6v.1h-.5v.1c.6.1 1-.2 1.5-.5z"/>
		<path d="M59.7 16.8v-.4c-.1 0-.2.1-.2.1-.1-.1-.2-.2-.2-.3-.1.2-.2.5-.3.8-.1-.1-.2-.2-.2-.3-.3 0-.7.2-1 .4 0 .1.1.3.1.3.2 0 .4.1.6.1h.3c-.2.2-.4.4-.6.5.1-.1.2-.3.3-.5-.3 0-.7.2-.9.4-.1.1-.1.2-.1.2-.2 0-.5-.1-.7-.1h-.1c0 .1-.1.3-.1.4l-.3-.3c-.2 0-.4.1-.6.1-.2.2-.4.4-.6.5.2.1.3.2.4.2 0-.3.3-.2.3 0h.2v-.3c.1.1.3.1.4.1 0 .4-.3.7-.6.9-.1.1-.2.1-.2.2s-.2.1-.2.1c-.1.1-.2.2-.2.3v.5c-.1.2-.4 0-.5 0-.1.1-.3.2-.4.2v-.3c-.4.1-.2.6-.4.8h.2c.3-.1.5-.3.6-.5h.6c0-.1.1-.3.1-.4.1 0 .2-.1.2-.1v.4c.1-.2.5-.3.7-.4v-.2H56c-.1 0-.3.1-.5.1V20c0 .1.1.2.1.2.2-.1.5-.3.7-.5v.2c.1-.3.3-.5.6-.5 0 .2-.1.4-.1.6h.3l.2-.2h-.2c-.1-.4.4-.6.4-1h.1c0-.2.1-.3.2-.5s.3 0 .3.1c.2-.2.4-.4.7-.6.2-.1.5-.3.5-.5h.5c-.1.1-.3.2-.3.3.1-.1.2-.1.3-.1.1-.2.1-.5.1-.7.1 0 .3-.1.4-.1-.2-.1-.3-.2-.5-.3 0 .2-.1.3-.1.4zM60.3 16.7z"/>
		<path d="M57.3 19.7c.1 0 .2 0 .3-.1-.1.1-.2.1-.3.1zM58.6 18.9c-.1.1-.2.2-.2.3.1 0 .1-.1.2-.1v-.2zM57.8 18.9c.1 0 .1.2.1.2v-.3h-.3v.2c.1-.1.2-.1.2-.1zM58.2 19.3s.1-.1.2-.1h-.5c-.1.1-.1.3-.1.3h.3c0-.1.1-.2.1-.2zM47.8 17.2c.5-.3 1.1-.4 1.5-.9.5 0 .8-.3 1.2-.6.2-.2.5 0 .7 0 .2-.3.5-.6.8-.8h.1l-.2-.2c-.2 0-.5-.1-.5.2-.1 0-.3 0-.5.2.1.1.1.2.2.3l-.3-.3c-.5.1-.9.6-1.4.8-.5.3-.9.7-1.4.9-.2 0-.3.1-.4.2.1 0 .2.2.2.2zM27 22.4c.1-.1.2-.1.3-.1v.1c.2-.1.3-.2.5-.2V22h.7c.2-.5.3-.9 0-1.3-.1 0-.2.1-.3.1l.3-.9c-.1-.1-.2-.1-.3-.2.1 0 .2-.1.3-.1.1-.3.3-.5.4-.7v-.4c.1-.3.4-.3.6-.3v-.6c-.2-.1-.5-.1-.5-.4h.3V17c-.1.1-.3.1-.4.1v-.4c.1-.1.3-.1.4-.1-.1-.1-.1-.2-.1-.2h-.9c0 .2 0 .3.1.7-.2-.2-.5.1-.7.2.1.1.2.2.2.3-.1-.1-.3-.2-.4-.2 0 .1-.1.1-.1.1l-.1-.2c-.2.1-.5.1-.6.3v.4c-.2.1-.3.2-.4.3v.2c-.1 0-.2.1-.2.2.1 0 .2.1.3.2-.1.1-.2.3-.3.4-.1 0-.2-.1-.3-.1v.4c0 .1-.1.2-.2.2-.4-.3-.8-.2-1.1 0h.5v.6c-.1-.1-.3-.2-.4-.3v.4h.2l.6.6-.3.3c0 .1.1.2.1.2h.4c0-.1-.1-.2-.1-.2l.3-.3c.2.1.3.2.4.3l.3-.3c.1.2.2.5.2.7 0 .1.1.2.2.2-.1.1-.3.1-.4.1-.3-.1-.5-.2-.7-.3-.3.2-.7.1-1 0 .1.3.3.5.5.7-.2.1-.4.1-.6.1 0 .2.1.5.1.7h.5v-.4c.2-.1.3-.2.4-.2-.1 0-.3-.1-.4-.1.1-.1.2-.3.3-.4.2.1.3.2.5.3v-.3c.1 0 .2.1.3.1.2-.2.4-.1.6.1zM43 20.8l.1-.1-.1.1zM43.2 20.7zM43.7 21.5c0 .1.1.2.1.2.2-.2.4-.4.7-.5.2-.3.4-.8.9-.8.1 0 .2-.1.2-.1V20c0-.1.2-.1.2-.1v.2c.1-.1.2-.1.2-.2v-.2h-.2c-.2 0 0-.3.1-.3-.2-.1-.4 0-.6 0 0-.1-.1-.2-.1-.2.2-.1.5-.2.7-.3l.3-.3c.2-.1.4-.2.6-.2 0-.1.1-.2.1-.3.2-.2.6-.4.8-.7v-.2c-.7.1-1 .8-1.7.8 0 0 0 .2-.2.7-.2.1-.4.3-.6.4 0-.1-.1-.1-.1-.1 0 .2-.1.4-.2.5-.1 0-.3.1-.4.1-.2.3-.6.4-.8.7 0 .1-.3.1-.4.1 0 .1-.1.2-.1.3.1 0 .1-.1.2-.1.1.3-.2.7-.2 1l.1.2c-.2.1-.3.1-.4.1-.1.2-.3.3-.4.4.1 0 .3.1.5.1.3-.2.6-.5.7-.9z"/>
		<path d="M24.8 21.1c-.2 0-.4-.1-.6-.2v.4c.2.1.4.2.6.2v-.4zM19.3 23.4v-.7h-.8c.1 0 .3-.1.4-.1-.2-.2-.4-.3-.7-.3.1.2.1.3.1.4-.2.1-.3.2-.5.3.1.1.2.3.2.3-.2.1-.5 0-.7 0-.2.2-.4.3-.7.4.2.3.6.4.9.5-.2.1-.6.1-.9.1-.1.3-.2.5-.4.7.1.1.1.3.2.4.1.1.3.2.5.2-.1.1-.2.3-.2.4l.4.4h.7c0-.4.4-.6.7-.6.1.2.2.3.3.4l.3-.3c.1.1.2.1.3.1v-.2c-.2-.2-.5-.4-.7-.6l.4-.4c.2.3.4.8.8 1-.2.1-.3.3-.4.5.2-.1.5-.2.7-.2-.1-.2-.1-.3-.1-.4-.4-.1-.4-.5-.4-.8-.2-.1-.5-.2-.6-.4h.9c.1-.1.2-.2.2-.3l.2.2c-.1-.1-.1-.2-.1-.3l.2-.2c-.4-.2-1-.1-1.2-.5zM21.8 22.7h-.4c-.1-.1-.2-.2-.2-.3-.1.3 0 .6.2.6v.4c.2.2.4 0 .5 0v-.3h.3c-.3 0-.5 0-.7-.1l.3-.3zM55.1 17.7c0-.2-.1-.2-.1-.3v-.5h.1l-.2-.2c-.4.1-.7 0-1.1-.2v.4s-.1 0-.2-.1v-.2c-.1 0-.2 0-.3.1 0 .1.1.3.1.4-.2 0-.4 0-.6.1-.2.3-.4.7-.5 1-.1.2-.4.1-.5.1-.3.2-.5.5-.6.9h-.7c-.2.6-.9.7-1.3 1.1 0-.1-.1-.2-.1-.3-.1.1-.3.2-.4.2h.4c0 .2 0 .4-.1.5-.3 0-.5.1-.7.2l-.5-.5c-.1.3-.4.7-.1 1v.2s-.1-.2-.2-.3c0 .1-.1.1-.2.2l.2.2c-.3.2-.7.2-1.1 0 0 0-.1-.2-.1-.3-.5.3-.7.7-1.2 1-.5.3-1.3.5-1.4 1.2.2 0 .4 0 .6.1l-.3.3v.9c.2 0 .4-.1.5-.3.1-.3.4-.5.7-.6v.4h-.4c-.2.4-.5.7-.7 1.1V25c-.2-.1-.3-.2-.5-.3v-.2c-.3-.2-.7-.2-1-.1 0 0 .1.1.1.2h-.5v.2s.2 0 .2.1v.2l.6-.3v.6c-.3.1-.7.2-1 .3 0 .1.1.2.2.2-.5 0-.8.4-1.2.5-.5.1-.8.3-1.3.4.1 0 .2.1.3.2h-.4c0-.2.1-.5.1-.7-.1.1-.2.2-.4.3l-.2.1c0 .1-.1.1-.1.2h-.2c0 .2 0 .5-.1.7.1 0 .2 0 .4-.1l-.1.1c-.2 0-.4.1-.6.2-.2 0-.3-.1-.5-.1 0-.1.1-.2.1-.3-.1.1-.1.1-.1 0 0 0 .1-.1.2-.1V27c0-.1.1-.1.1-.2h-.1v-.2s0-.1.1-.1c0-.2 0-.4-.1-.6-.1-.3.1-.5.2-.7 0-.2-.1-.4-.2-.5-.3.1-.5.3-.7.5-.1-.1-.2-.3-.4-.4.2-.3.6-.3.9-.2 0 0 .1-.1.1-.2-.2-.2-.3-.4-.4-.7 0 0-.1-.1-.2-.1-.5 0-.9.2-1.4.3-.2 0-.4.1-.6.2v.2c-.5.1-.7.6-1.2.8-.3.2-.7.2-1 .5.1.1.2.2.4.3l-1.2.3c.1 0 .2.1.3.2v.3c-.2-.1-.4-.2-.7-.4 0-.2-.1-.5 0-.7-.2-.1-.6-.1-.7.1-.2.4-.6.6-1 .7v-.5c-.1.2-.2.3-.3.5-.1.5-.5 1-.6 1.5-.3.7-.7 1.4-.9 2.1-.2.4-.1.8-.4 1.2-.1.2.1.4.1.6h-.3v.4c0-.1.1-.2.2-.2l.6.6c0-.5.4-.9.7-1.4v.6h.6s0 .2-.1.2h-.3c-.2 0-.4.1-.6.2.1 0 .2 0 .3.1-.1.1-.3.2-.4.3.2 0 .4.1.5.2.2 0 .3-.1.5-.2v.5h.4c.2-.1.5-.3.7-.3.1-.1.2-.2.2-.3.2.3.2.7.2 1 0 .1-.1.2-.1.3 0 0 .2 0 .3.1.4 0 .8.3 1.3.2-.3-.2-.6-.3-.8-.5h.5c0-.1.1-.2.2-.3 0 .2.1.5.4.5.1-.2.3-.4.4-.5.3 0 .8 0 .9.4.2.3.1.7.1 1l.3-.3c.3 0 .7.2 1 .2.3-.1.5-.2.8 0 .4-.2.8-.3 1.2 0 0-.1-.1-.2-.2-.3l.3-.3c.3 0 .6 0 .8.2-.1 0-.3.1-.5.1 0 .1 0 .2.1.3.1-.1.3-.3.5-.4 0 .3 0 .6-.2.8.1 0 .2 0 .3-.1-.1.1-.3.2-.4.4v.2c-.8 0-1.1 1-1.8 1.3-.2 0-.4 0-.6.1l-.3.3c0-.1-.1-.2-.1-.3-.2.2-.4.4-.6.5 0 .1 0 .2.1.3.5-.3.9-.6 1.4-.7 0 .1-.1.1-.2.2-.4.4-1.1.6-1.6.9-.1.1-.3 0-.4 0-.1 0-.2.1-.3.2.2 0 .4.1.6.1.1 0 .2 0 .4-.1s.4-.2.7-.3c.2-.1.4-.1.5-.1.3-.3.6-.5.9-.7v-.3c.5-.1.7-.5 1.1-.7.3-.3.7-.5.8-1 .2-.1.4-.2.6-.5.2-.3.7-.4.9-.8.3 0 .6-.2.7-.4 0-.1-.1-.2-.1-.3.2-.2.4-.5.7-.6 0 0 .1 0 .2-.1v-.4c.2-.1.5-.2.7-.3.2-.2.4-.5.6-.7v-.4h.4s.1.1.2.1v-.3c.1 0 .2-.1.4-.2h-.1c0-.3.2-.5.5-.6v-.3c.1 0 .2.1.4.1.1-.2.1-.4.2-.5h.4c0-.4 0-.7.2-1.1.1 0 .2.1.3.1.2-.3.5-.7.5-1.1l.2.1v.1s.1 0 .2-.1c0-.1 0-.1.1-.2-.1 0-.2 0-.3-.1V26.4c.2 0 .4 0 .5-.1.1-.2.2-.5.3-.7 0-.2 0-.4-.1-.5.1 0 .2 0 .3.1 0-.2.1-.3.1-.5.2.1.4.2.5.4 0 0 .1.2.2.2v-.1s-.1-.1-.1-.2c.2-.1.4-.3.6-.5.1-.2-.1-.5.1-.7.3-.2.7-.5.9-.8h.3c.1-.2.2-.4.5-.5 0-.1-.4-.3 0-.3V21.9c0-.1.2-.1.2-.1l-.2.2c0 .1 0 .4.2.4.3 0 .2-.2.2-.4 0 0 .1.2.2.2 0-.1 0-.3.1-.4.4.1.6-.3.8-.5.1-.2.4-.2.5-.3H53s0-.2.1-.2c-.1 0-.2-.1-.3-.1v.3h-.3c-.3.2-.5.5-.7.9-.2-.1 0-.3 0-.5v-.3c.1 0 .2-.1.3-.1l.3-.6h.3l.3-.3v.2h.3c0-.2 0-.4.1-.6 0 0 .2 0 .3-.1-.6-.2-.9.4-1.4.6.2-.3.5-.7.8-.9v-.7c.2 0 .4-.1.7-.1l.1-.1c.2-.2.4-.5.6-.7h.6zM39 27.4c.2 0 .5 0 .7.1-.1-.2-.1-.3-.1-.5.1.1.3.2.4.3 0 .2 0 .4-.2.5-.3 0-.6-.2-.8-.4zm-.4 4.1s-.1 0-.1-.1c-.1 0-.2 0-.2.1l-.1-.1h.4v.1zm.8.2c-.1-.3-.2-.3-.3-.3v.2h-.4l.3-.3h-.1c.1 0 .3-.1.4-.2 0 .1.1.2.2.3 0 .1-.1.2-.1.3zm1.8-1.5c0-.1 0-.2-.1-.2 0 0-.1 0-.1.1l-.2-.2v.4c.1.1.3.2.4.3-.2 0-.4.1-.7.2 0 .1.1.2.2.3-.2.2-.4.4-.5.6-.1-.1-.2-.2-.3-.2 0 .2 0 .3.1.5-.1-.1-.2-.2-.3-.4 0 0 .1-.1.1-.2s-.1-.2-.2-.3h.3v-.2h.4c0-.2 0-.5-.1-.7-.2-.2-.5-.4-.7-.6-.1 0-.2.1-.2.2-.2-.1-.3-.1-.5-.2v-.3c-.2.1-.4.2-.6.4v.3c.3-.1.7 0 1 .1l.1.2c.1 0 .2 0 .3.1v.3c-.1 0-.2.1-.3.1v-.2c-.4.2-.8.6-1.3.6-.1-.1-.3-.1-.4 0-.1.1-.2.4-.2.5h-.2c-.1.2-.3.4-.5.5-.1 0-.3-.1-.5-.1 0-.3-.1-.7-.5-.7.1-.2.3-.4.4-.6-.3.1-.6.2-.7.5-.2 0-.5.1-.7.2 0-.2.1-.4.4-.4 0-.1-.1-.2-.2-.3h.4c.1-.1.2-.2.4-.3 0 .1 0 .2.1.3.2-.2.4-.3.7-.4-.2-.2-.4-.1-.7-.1.1-.1.2-.2.2-.3v-.2l-.1.1c-.1 0-.2-.1-.4-.1v-.3c.2 0 .3-.1.5-.1-.3-.1-.7-.1-1-.1.1.2.1.4.2.6l-.3.3c-.3 0-.7-.3-.8-.6.1 0 .2-.1.4-.2-.2-.1-.3-.2-.5-.3l.2-.1s.1 0 .2.1l.3-.3h-.5c.1-.3.4-.3.7-.3 0 .3 0 .7.3.8.3 0 .2-.4.3-.6 0 .1.1.2.1.3.1-.1.3-.2.4-.3l-.7-.7v-.2c.1 0 .1.1.2.1v-.2c.2 0 .4-.1.4-.3-.2-.1-.4-.1-.5-.1.3 0 .6 0 .7-.2-.1 0-.3 0-.4-.1h.1c.2.1.5.1.7.2.2 0 .4-.1.6-.2v.4c.2 0 .4-.1.5-.1l-.2-.2h.3v-.4c.1 0 .1.1.2.1-.1.3-.2.5-.5.8.1.2.3.4.4.6.4.2.8.5 1.2.8v.3c.4-.2.7-.6 1.2-.7l.2.2s.1 0 .1-.1c.2.2.4.3.6.5 0 0 0 .1-.1.1.1.1.3.2.4.4.1.2-.1.3-.2.5zM37.4 23.5z"/>
		<path d="M34.3 34.9c.1 0 .2-.1.3-.2h-.3v.2zM34.6 34.7zM32 22.3V22c.1-.2.3-.3.5-.4-.1-.2-.3-.3-.4-.5.2-.3.3-.6.3-1 .2-.1.3-.1.4-.1 0-.1.1-.2.1-.2-.2-.1-.3-.1-.4-.1-.1-.4-.3-.7-.3-1.1-.1 0-.2-.1-.2-.2.1-.3.3-.6.4-.9-.1 0-.2-.1-.2-.1.1-.3-.3-.6-.4-.9 0-.2 0-.5.3-.5.2 0 .2.4.3.5v-.4l.6.3-.3.3c.1-.1.3-.2.5-.2-.1.2-.1.4-.1.5.2.1.5.1.7.1-.2-.1-.4-.2-.6-.2.2 0 .5-.1.7-.2-.2-.2-.3-.4-.5-.4-.5-.2-.9-.5-1.4-.5-.3 0-.5.1-.9.2v.3c.1 0 .3.1.4.1 0 .5.2 1 .5 1.4-.2.2-.4.3-.6.4.2.2.4.4.6.7-.1.3-.1.7 0 1 .2.3.1.7 0 1-.1.1-.3.1-.5.1.1.1.1.2.2.3l-.3.6.1.1c-.2.2-.3.5-.4.7h-.2v.4c.2-.2.5-.3.7-.3.1-.2.3-.4.4-.5zM48.1 18.4c-.3-.1-.5.3-.5.5.2 0 .7-.2.5-.5zM47.3 18.6c-.1.1-.1.3-.2.5.2 0 .3-.1.5-.1v-.4h-.3zM26.8 35.1c0-.1-.1-.2-.1-.3-.3.5-.1 1.1-.3 1.5l.3.9c.2-.5-.2-.9 0-1.4 0-.3.2-.5.1-.7zM29 34.7c-.1.1-.2.2-.3.2 0 0 0 .1-.1.1-.1.1-.3.1-.4.1l-.2.2v-.6c-.3.1-.5.3-.7.5h-.1c0 .2-.1.4.1.5H27c.1.5.3.9.5 1.4-.1 0-.2-.1-.3-.1 0 .3.3.5.6.5-.1-.1-.2-.2-.2-.3h.5c-.2-.1-.4-.3-.5-.4-.2-.2-.3-.5-.3-.7 0-.3.3-.5.5-.7.1.2.1.4.3.5.2-.2.2-.6.5-.7.2.2.3.5.6.6v-.7c-.1 0-.2-.1-.2-.1v-.3zM29.4 33.9c-.1-.1-.2-.2-.3-.2.2-.1.4-.2.5-.4 0-.1-.1-.3-.1-.4h-.3c0 .2.1.3.3.5-.2 0-.5 0-.7.1.1.1.3.1.3.1 0 .1-.1.2-.1.3.2.1.5.2.7.2-.1 0-.2.1-.3.1h.3c.1 0 .1-.3.1-.4-.1-.1-.2-.1-.2-.1-.1.1-.1.2-.2.2z"/>
	</g>
	<g fill="#9783a6">
		<path d="M61.2 12.2h.4c0-.2.1-.4.2-.5h-.5c.3-.1.5-.2.7-.4-.2-.1-.4-.1-.6-.1-.1.2-.2.3-.2.5-.2.1-.5.1-.7.2.2.1.3.2.5.2l.2.1zM57.2 13c.3-.2.8-.4 1.2-.2v-.4c.1.2.1.3.1.4.1-.1.3-.1.5-.2 0-.1-.1-.2-.2-.3l.2-.2c-.5 0-.8 0-1.2.2.1.1.2.1.3.1-.3.1-.6.1-.9.1h-.4v-.3c-.1.1-.3.2-.4.3v.4c.2-.1.5-.2.8-.3v.4zM63.4 13.7h.2v-.1h-.2v.1zM58.5 16.1zM54.5 18.9c0 .1-.1.1 0 0-.3.4-.5.7-.8.8v.2c-.3.2-.6.6-.8.9.1 0 .1-.1.2-.1v.1H52.8c.1 0 .2.1.3.1.1 0 .2.2.2.2.2 0 .4-.2.6-.2.2-.2.3-.4.5-.6h.4c.2-.2.4-.6.8-.5v.3c.3-.2.6-.5.6-.9-.1-.1-.3-.1-.4-.1v.3h-.5c-.2-.1-.2-.1-.3-.2l.4-.4h-.2l.2-.2h-.1c.1-.2.1-.3.2-.4h-.4c-.2.2-.4.5-.6.7zm-1.1 2v-.3h-.2c.3-.2.6-.5.9-.4-.1.1-.2.3-.3.4 0 .3-.2.3-.4.3zm1.4-1.3c-.1.1-.2.1-.3.2-.2 0-.3-.2-.2-.3.1-.1.3.1.3.2.1-.1.1-.2.2-.3v.2zM60.8 14.8s.1-.1 0 0c.1-.1 0-.1 0 0zM55.5 18.2h.1s-.1 0-.1-.1v.1z"/>
		<path d="M61.6 14.1c.3 0 .5-.3.7-.3-.2.2-.5.4-.9.4v.3H61c0 .1-.1.1-.1.2 0 .3-.2.4-.4.5v.3c-.1-.1-.2-.1-.3-.1-.2.1-.3.2-.4.3-.1 0-.2.1-.2.1v.2c-.4.4-.9.6-1.3 1l-.1-.2v.6h-.5c0-.1.1-.3.1-.5-.3.4-.7.6-1.1 1-.3.3-.7.6-1 .9.2 0 .4-.1.6-.1l.3.3c0-.1.1-.3.1-.4h-.3c.3-.4.5-.8.9-1.1.2.1.3.2.4.2-.2.4-.6.6-.9.9.2 0 .5.1.7.1.1 0 .1-.2.1-.2.2-.3.5-.4.9-.4-.2 0-.4-.1-.6-.1 0-.1-.1-.3-.1-.3.3-.2.6-.4 1-.4.1.1.2.2.2.3.1-.2.2-.5.3-.8.1.1.1.2.2.3.1 0 .2-.1.2-.1v.4c0-.2.1-.3.1-.4.2.1.3.2.5.3-.2-.3-.3-.6-.3-1 .1.1.2.3.3.4v-.2c.4.2.8-.1 1.2-.2-.3-.1-.6 0-.9 0 .2-.4.2-.7 0-1.1.2-.1.4-.2.6-.2 0-.1.1-.2.1-.2.3 0 .5.1.7.1.2-.1.3-.2.5-.3.1 0 .3.1.4.1V14h.2c-.1-.1-.1-.3-.2-.4h.3v-.1c-.1 0-.2-.1-.3-.1-.5 0-1.3 0-1.3.7z"/>
		<path d="M63.2 13.5h.1c0-.1-.1-.2-.1-.2.1 0 0 .1 0 .2zM63.6 13.4v.2h.1c.3 0 .5-.1.7-.2-.3 0-.5.1-.8 0zM66.6 13c-.2-.1-.5-.2-.8-.3l-.3.3c0-.1-.1-.3-.1-.3-.1.1-.2.1-.3.1v-.5c-.2 0-.4.1-.6 0-.1.2-.3.3-.5.3h-.1v-.4h-.3s0 .2.6.9l.2-.1v.4c.1.1.3.1.4.1v-.7c.1 0 .2.1.2.1 0 .3 0 .6.1 1h.4c-.1-.1-.1-.3-.1-.4.4-.2.8-.4 1.2-.5zM59.1 15.3l-.1.2c-.1 0-.3.1-.5.1v.4l.6-.3v-.3h.6v.1c0-.1.1-.1.1-.1.1-.2.1-.3.1-.5-.1-.1-.3-.2-.4-.3-.2.1-.4.2-.5.3 0 .1.1.3.1.4zM58.4 15.7h-.3v.3c-.2.1-.3.3-.3.4-.1 0-.2.1-.3.1 0-.1.1-.3.2-.4-.1.1-.3.2-.5.2.1.1.1.3.1.4-.1.1-.3.2-.5.3-.3.2-.4.6-.8.8v-.4c-.1 0-.2.1-.3.1h-.1c.1.1.2.3.3.4-.2.1-.3.1-.4.1.1 0 .2.1.2.2h-.1c.2.1.4 0 .5-.2h.4c.2-.3.5-.5.7-.7s.6-.4.8-.7v-.2c.2-.1.3-.2.5-.3 0 0-.1-.1-.2-.1 0-.1.1-.2.1-.3zM60.1 14.1c-.2 0-.3.1-.4.2-.1 0-.2.1-.3.1v.1c.3 0 .6.2.8.5.2-.1.4-.2.6-.2-.2-.3-.3-.7-.7-.7z"/>
		<path d="M59.5 14.6v-.1h-.1s0 .1.1.1zM33.6 25.8c-.2-.1-.3-.2-.4-.3.3-.3.7-.3 1-.5.5-.2.7-.7 1.2-.8V24c.2-.1.4-.2.6-.2.5-.1.9-.3 1.4-.3l.1-.1h.3c.2.1.4.2.5.3 0-.3-.1-.5-.2-.7-.3.1-.6.1-.9.1.1-.1.2-.2.2-.3-.2-.1-.4-.4-.4-.6h-.3c.1-.2.2-.4.2-.6-.2-.1-.4-.2-.5-.2v-.3h-.3v-.2h.2c0-.1.1-.2.1-.3.1 0 .4-.1.5-.2h-.4v-.2c.1 0 .2-.1.3-.1-.1-.1-.3-.1-.3-.1v-.3c-.1-.2-.3-.4-.3-.6h.3c0-.2-.1-.5-.3-.6.1-.1 0-.3 0-.5-.2-.1-.3-.3-.4-.4.1.3.2.5.3.7v1.2c-.3-.4-.7-.8-.8-1.3H35c-.1-.1-.2-.2-.2-.3v.2c-.2-.2-.4-.4-.3-.6-.2-.4-.6-.6-.9-.9-.2 0-.5.1-.7.2.2 0 .4.1.6.2-.3.1-.5 0-.7-.1.1-.2.1-.4.1-.5-.1.1-.3.2-.5.2l.3-.3-.6-.3v.4c-.1-.2-.1-.5-.3-.5-.3-.1-.3.3-.3.5.1.3.5.6 1.1 1.3.1 0 .2.1.2.1-.1.3-.3.6-.4.9.1 0 .2.1.2.2.1.4.2.7.3 1.1.2.1.3.1.4.1 0 .1-.1.2-.1.2-.2.1-.3.1-.4.1 0 .4-.1.7-.3 1 .1.2.3.3.4.5-.1.2-.3.3-.5.4v.3c-.1.2-.3.4-.4.5-.3.1-.5.1-.7.3-.2.3-.3.6-.4.9-.2.4-.5.9-.5 1.4l-.1.1v.5c.4-.1.8-.3 1-.7.1-.3.5-.2.7-.1-.1.2 0 .5 0 .7.2.2.5.3.7.4v-.3c-.1-.1-.2-.2-.3-.2l1.2-.3zM54.9 21.2v-.5c0 .1-.1.2-.1.2s-.1 0-.3.1l-.1.2c.2 0 .4.2.5 0zM42 21.2c-.4-.1-.4.5-.8.7-.3.2-.7.3-.9.7-.4.3-.7.7-1.1 1-.1.1-.2.1-.2.1-.3.1-.6.3-.5.7l.2-.2h.1c.1-.1.1-.2.1-.3h.4c.5-.6 1.3-1.1 1.9-1.7.4-.5 1.1-.7 1.5-1.2v.2c.1-.2.1-.4.1-.5v-.1c-.4-.1-.6.3-.8.6z"/>
		<path d="M37 21.1c.2 0 0-.4-.2-.4-.1.2 0 .3.2.4zM55.1 21.4c-.2 0-.4 0-.6.1-.2.2-.4.4-.6.5h-.2c-.1-.1-.1-.3-.1-.3 0 .1-.1.1-.1.1.2.5-.4.8-.7 1-.1-.1-.1-.3-.2-.3-.1.2-.1.3-.1.4-.4.2-.9.4-.9.9-.2 0-.4.1-.6.2.1.3-.3.5-.4.8.9-.5 1.6-1.4 2.5-1.9.7-.5 1.3-1.2 2.1-1.4 0-.2.1-.3 0-.5 0 .1-.1.3-.1.4zM37.4 27.4l-.1.1h.2l-.1-.1zM37.3 27.3c.1.1.2 0 .2 0h-.2z"/>
		<path d="M40.9 29.2l.1-.1c-.2-.2-.4-.3-.6-.5 0 .1-.1.1-.1.1l-.2-.2c-.5.1-.7.5-1.2.7v-.3c-.4-.3-.8-.6-1.2-.8-.1-.2-.3-.4-.4-.6-.1 0-.2.1-.3.1v-.4c-.2.1-.4.2-.6.2-.2-.1-.5-.2-.7-.2h-.1c.1.1.3.1.4.1-.1.2-.5.2-.7.2 0 .2-.1.5-.1.7.3.2.5.5.7.7-.1.1-.3.2-.4.3 0-.1-.1-.2-.1-.3-.1.2 0 .6-.3.6-.3-.1-.3-.5-.3-.8-.3 0-.6 0-.7.3h.5l-.3.3c-.1-.1-.2-.1-.2-.1 0 .1-.2.1-.2.1.2.1.3.2.5.3-.2.1-.3.2-.4.2.1.3.4.6.8.6l.3-.3c-.1-.2-.2-.4-.2-.6.3 0 .7 0 1 .1-.2 0-.3.1-.5.1v.3c.2 0 .3 0 .4.1l.1-.1v.2c0 .1-.1.2-.2.3.3 0 .5-.1.7.1-.3.1-.5.2-.7.4 0-.1-.1-.2-.1-.3-.2.1-.3.2-.4.3h-.4c.1.1.2.2.2.3-.3 0-.4.2-.4.4.2-.1.5-.2.7-.2.1-.3.4-.4.7-.5-.1.2-.2.4-.4.6.4 0 .5.4.5.7.2 0 .4.1.5.1.2-.1.4-.3.5-.5h.2c0-.1.1-.4.2-.5.2-.2.5.1.7.3 0-.1.1-.1.2-.1 0 .1.1.1.1.1v-.3c.1.1.3.1.4.1l-.3.3h.4v-.2h.3c0-.1.1-.2.1-.3 0-.1-.1-.2-.2-.3-.4.3-.9.3-1.4.3 0-.1.1-.2.1-.2.6 0 .9-.4 1.3-.6v.2c.1 0 .2-.1.3-.1v-.3c-.1 0-.3-.1-.3-.1 0-.1-.1-.2-.1-.2-.3-.1-.6-.2-1-.1v-.3c.2-.2.4-.3.6-.4v.3c.2.1.4.1.5.2 0-.1.1-.2.2-.2.2.2.5.4.7.6.1.2.1.5.1.7h-.4v.2h-.3c.1.1.2.2.2.3 0 .1-.1.2-.1.2.1.2.2.3.3.4-.1-.2-.1-.3-.1-.5.1.1.2.1.3.2.1-.2.3-.4.5-.6-.1-.1-.2-.2-.2-.3.3-.1.5-.2.7-.2-.1-.1-.3-.2-.4-.3v-.4c.1 0 .2.2.2.2l.1-.1c.1 0 .1.1.1.2.1-.2.3-.3.2-.5-.1-.2-.3-.3-.4-.4zM37.6 27.1c0 .1-.1.1-.1.2h.1v-.2zM38.1 26.4v-.2c0 .1-.1.2-.2.2 0-.1-.1-.2-.2-.2 0 .1 0 .3-.1.9.1-.2.2-.4.2-.6.1 0 .3-.1.3-.1z"/>
	</g>
</svg>