<svg xmlns="http://www.w3.org/2000/svg" viewBox="0 0 200 50">
	<path fill="#005BAA" d="M98.3723 13.4226c-1.4234 1.4122-3.209 2.1185-5.3556 2.1185-2.1415 0-3.9209-.7002-5.333-2.1067-1.4122-1.4066-2.1186-3.1288-2.1186-5.16103 0-2.02044.712-3.74264 2.1415-5.15482C89.13 1.70637 90.9156 1 93.0622 1c2.1415 0 3.9209.7002 5.3331 2.10678 1.4121 1.40657 2.1187 3.12877 2.1187 5.16098 0 2.02664-.7122 3.74264-2.1417 5.15484Zm-5.9554-.7765c.208.0281.4233.0421.6453.0421 1.2344 0 2.2446-.425 3.0312-1.2748.7921-.8494 1.1829-1.89996 1.1829-3.14564 0-.57855-.0886-1.11561-.2652-1.61063-.2001-.56118-.5135-1.06909-.9407-1.52374-.8034-.8555-1.8197-1.28605-3.0537-1.28605-1.2344 0-2.2446.42495-3.0312 1.27427-.7921.84989-1.1829 1.90047-1.1829 3.14615 0 1.23391.402 2.27884 1.2059 3.13434.4877.5192 1.0534.8819 1.6987 1.0865.2264.0718.463.1245.7097.1575ZM72 15.3001V1.23546h3.094V6.7984h5.7065V1.23546h3.094V15.3001h-3.094V9.65696H75.094v5.64314H72Zm30.311-14.06464V15.2889h6.681c1.637 0 2.923-.3274 3.859-.9822.935-.6543 1.406-1.6129 1.406-2.8704 0-.9126-.218-1.64143-.66-2.1813-.299-.36384-.694-.68395-1.188-.95584-.095-.0527-.195-.10372-.298-.15305-.153-.07232-.314-.14127-.483-.20574 1.234-.6946 1.848-1.70482 1.848-3.03067 0-.97602-.322-1.78554-.965-2.42857-.096-.09698-.197-.1878-.304-.27301-.066-.0527-.133-.10316-.203-.15137-.264-.1822-.557-.33412-.879-.45577-.646-.24387-1.409-.36552-2.287-.36552h-6.527Zm5.866 5.68908h-2.853V3.95106h3.055c.654 0 1.153.12613 1.504.3728.35.24667.522.60266.522 1.07357 0 1.01583-.741 1.52711-2.228 1.52711Zm.822 5.66606H105.319V9.49606h3.576c1.527 0 2.291.51124 2.291 1.52714 0 1.0449-.729 1.5674-2.187 1.5674Zm18.995 2.7151h-3.053V6.08642l-6.148 9.21928h-2.911V1.24106h3.054v9.22544l6.182-9.22544h2.876V15.3057ZM72 18.3829v14.0646h3.1002v-4.2999l1.6246-1.6874 4.3627 5.9817h3.7141l-5.9874-8.0947 5.7233-5.9643h-3.737l-5.7065 6.1482v-6.1482H72ZM97.0061 30.57c-1.4234 1.4122-3.209 2.1185-5.3556 2.1185-2.1415 0-3.9209-.7002-5.3331-2.1067-1.4121-1.4066-2.1185-3.1288-2.1185-5.161 0-2.0205.712-3.7427 2.1415-5.1548 1.4234-1.4122 3.209-2.1186 5.3555-2.1186 2.1416 0 3.921.7002 5.3331 2.1068 1.4122 1.4066 2.1186 3.1288 2.1186 5.161 0 2.0204-.712 3.7426-2.1415 5.1548Zm-8.3694-2.0205c.8034.8555 1.8197 1.2861 3.0536 1.2861 1.2345 0 2.2447-.425 3.0313-1.2748.7921-.8494 1.1823-1.8999 1.1823-3.1456 0-1.2345-.4014-2.2789-1.2053-3.1344-.8039-.8555-1.8198-1.286-3.0542-1.286-1.2339 0-2.2447.4249-3.0307 1.2742-.7927.8499-1.1829 1.9005-1.1829 3.1462.0056 1.2339.4076 2.2789 1.2059 3.1343Zm15.5283-10.1666h-3.336v14.0646h3.032v-9.1217l3.926 5.9469h.08l3.956-6.0047v9.1795h3.071V18.3829h-3.335l-3.697 5.9475-3.697-5.9475ZM75.094 38.3715v2.4509h3.7146c.7681 0 1.452.0937 2.0513.282.4367.1368.828.3246 1.1745.5623.148.1015.2876.2125.4193.3325.8667.7809 1.2973 1.8427 1.2973 3.1865 0 1.4178-.4648 2.5199-1.3836 3.2947-.9239.7753-2.2099 1.1655-3.8576 1.1655H72V35.5813h10.7867v2.7902H75.094Zm3.3984 5.023h-3.3922v3.4556h3.4152c1.4352 0 2.1472-.597 2.1472-1.7855 0-1.1134-.7232-1.6701-2.1702-1.6701Zm11.7572-7.9164-6.0277 14.1622h3.1517l1.2861-3.1518h5.9525l1.2861 3.1518h3.2319l-6.0277-14.1622h-2.8529Zm3.2493 8.278h-3.7371l1.8714-4.5577 1.8657 4.5577Zm7.3301 5.8842V35.5757h3.094v5.5629h5.707v-5.5629h3.094v14.0646h-3.094v-5.6431h-5.707v5.6431h-3.094Zm14.369-14.0646v14.059h3.106v-4.2999l1.625-1.688 4.357 5.9879H128l-5.987-8.0947 5.723-5.9643h-3.737l-5.707 6.1482v-6.1482h-3.094Z"/>
</svg>