<svg xmlns="http://www.w3.org/2000/svg" viewBox="0 0 200 50">
	<g fill="#1971C0">
		<path d="M42.5845 36.1051h4.3423v-7.5408h7.0858v7.5408h4.3424V17.9399h-4.3424v6.8558h-7.0858v-6.8558h-4.3423v18.1652Zm28.6789.4554c5.8361 0 9.469-3.9732 9.9399-9.5957 0-5.6167-4.442-9.5957-9.9399-9.5957-5.4959 0-9.8247 3.8875-9.8247 9.48 0 5.4871 4.3278 9.7114 9.8247 9.7114Zm0-3.9981c-3.1864 0-5.0314-2.7337-5.0314-5.7118 0-2.8759 1.9794-5.4823 5.0314-5.4823 3.0078 0 5.0313 2.5364 5.0313 5.4823 0 2.9324-1.8593 5.7118-5.0313 5.7118Zm12.7976 3.5427h7.1965c.685 0 1.3695 0 2.0585-.1148 2.7239-.4563 4.8018-2.2776 4.8018-5.1421 0-2.218-1.7088-3.8226-3.7721-4.2236 1.8485-.744 2.9689-1.9026 2.9689-4.0021 0-3.503-3.14-4.6826-6.1713-4.6826h-7.1966v18.1652h.1143Zm4.2236-3.5427v-4.1129h2.3987c.8631 0 1.9235.0831 2.5572.76.4157.4434.5224 1.1284.3246 1.7021-.1938.5738-.6608 1.0333-1.2114 1.2945-1.7495.4936-3.169.3563-4.0691.3563Zm0-7.426v-3.7686h2.1692c.9144 0 1.5994.1147 2.0584.4549.455.3443.685.685.685 1.3695 0 .6845-.2295 1.144-.685 1.4842-.455.3442-1.144.455-1.9437.455h-2.2839v.005Zm21.8234 11.4241c5.836 0 9.469-3.9732 9.94-9.5957 0-5.6167-4.442-9.5957-9.94-9.5957-5.496 0-9.825 3.8875-9.825 9.48 0 5.4872 4.327 9.7114 9.825 9.7114Zm0-3.9981c-3.186 0-5.032-2.7341-5.032-5.7118 0-2.8761 1.98-5.4823 5.032-5.4823s5.031 2.5722 5.031 5.4823c0 2.9326-1.859 5.7118-5.031 5.7118Zm12.797 3.5427h7.197c3.421 0 6.852-1.792 6.852-5.6011 0-3.9238-3.33-5.6011-6.852-5.6011h-2.858V21.483h8.34v-3.5431h-12.797v18.1652h.118Zm4.343-3.5427v-4.2276h2.398c1.468 0 2.973.4702 2.973 2.1692 0 1.6371-1.425 2.1691-2.857 2.1691h-2.399l-.115-.1107Zm10.395 3.5427h4.797l1.37-3.5427h7.086l1.369 3.5427h4.913l-7.542-18.1652h-4.227l-7.656 18.1652h-.11Zm7.315-7.0813 2.284-6.2821 2.284 6.2821h-4.568Zm13.593 7.0813h4.343v-7.5408h7.085v7.5408h4.343V17.9399h-4.343v6.8558h-7.085v-6.8558h-4.343v18.1652Zm19.654 0h4.342v-8.34l6.741 8.3405H195l-8.341-9.8247 7.885-8.3405h-5.481l-6.512 7.426h-.115v-7.4265h-4.342v18.1652h.111Z"/>
		<path d="M11.8507 16.6829c-2.62816 2.2879-3.88739 4.2276-5.48634 7.2005-1.9437 4.6826-2.16918 10.0547 1.7142 13.7121C19.162 45.4806 34.4695 25.3717 25.444 18.1716c-3.3131-1.8289-9.0254.2295-12.1126 3.3132 3.7762-2.8582 13.6683-5.1024 9.6032 4.2236C17.1 39.0918 1.91126 30.9652 14.4794 15.4282c.1147-.2295 2.3987-3.0837-2.5134 1.2547h-.1153Zm3.1989-12.56815c-.1147-.22547-2.9845 1.24312-3.7726 1.9437-1.62717 1.453-5.1658 5.75565-2.28396 7.54075 1.13186.7006 7.42196-.2652 10.62446-.5702 10.8423-1.0373 14.7373 1.2547 9.7099 5.4823 7.0858-2.1691 11.4242-11.65363 3.1984-12.91235-6.278-.34022-15.533 1.82895-17.5914 1.48873-1.3695-.2295-1.5995-.57375-.9145-1.9437.2295-.34425 1.144-.91448 1.0292-1.14398l.0005.11475Z"/>
	</g>
</svg>