<svg viewBox="0 0 200 50" xmlns="http://www.w3.org/2000/svg">
	<path fill="#FF0508" d="M28 39.4238v-17.782h17.7821V10.9766h28.4292v28.4483H28v-.0011Z"/>
	<path fill="#fff" d="M37.668 33.8035h-.384l-1.8225-8.1724h-3.3956v9.8983h1.7652V27.357h.384l1.7652 8.1724h2.9925l1.8034-8.1724h.384v8.1724h1.7652v-9.8983h-3.3956l-1.8618 8.1724Zm17.9168 1.7259h6.1961v-1.727h-4.3927v-2.4749h3.7785v-1.6484h-3.7785v-2.321h4.3927v-1.727h-6.1961v9.8983Zm-6.3297-1.4766c-2.0145 0-2.9543-1.5159-2.9543-3.472s.9398-3.472 2.9543-3.472c2.0144 0 2.9543 1.5159 2.9543 3.472s-.9399 3.472-2.9543 3.472Zm0-8.671c-3.0307 0-4.7959 2.0909-4.7959 5.1597 0 3.0689 1.7652 5.2372 4.7959 5.2372 3.0307 0 4.7958-2.1672 4.7958-5.2372 0-3.0688-1.7651-5.1597-4.7958-5.1597Zm13.7733 10.1476h1.9179l2.1481-3.9133 2.3019 3.9133h1.9179l-3.0688-5.1799 2.8779-4.7195h-1.9179l-2.0144 3.5292-2.0527-3.5292h-1.9179l2.7623 4.6611-2.9543 5.2383Z"/>
	<path fill="#4C4C4C" d="M172.428 18.4513v-7.4425h-1.61l-3.363 5.7661v-5.7661h-1.277v7.4425h1.599l3.379-5.7873v5.7873h1.272Zm-3.171-8.82362c-.472 0-.779-.21219-.825-.62768h-1.039c.015.93877.664 1.4531 1.863 1.4531 1.2 0 1.869-.51323 1.885-1.4531h-1.038c-.046.41439-.368.62768-.846.62768Zm-55.58 1.27782c2.07-.0259 3.586 1.4788 3.565 3.8245.02 2.3458-1.495 3.8504-3.565 3.8246-2.077.0258-3.597-1.4788-3.571-3.8246-.027-2.3457 1.494-3.8504 3.571-3.8245Zm.051 6.5128c1.355 0 2.243-1.0173 2.243-2.6883 0-1.6708-.887-2.6881-2.243-2.6881h-.104c-1.354 0-2.242 1.0173-2.242 2.6881 0 1.671.887 2.6883 2.242 2.6883h.104Zm-33.5313-6.4095h-1.2768v7.4425h1.2768v-3.1508h3.4664v3.1508h1.2766v-7.4425h-1.2766v3.1497h-3.4664v-3.1497Zm7.7254 5.6211h3.3059l.7062 1.8214h1.3396l-2.8914-7.4425h-1.5417l-2.9476 7.4425h1.3284l.7006-1.8214Zm1.6496-4.2871 1.2149 3.1452h-2.4243l1.2094-3.1452Zm10.5223 7.666v-1.5575h-5.8387v-7.4425h1.2767v6.3062h3.3843v-6.3062h1.2707v6.3062h1.131l.01 2.6938h-1.234Zm8.618-1.5575v-7.4425h-1.608l-3.363 5.766v-5.766h-1.276v7.4425h1.598l3.378-5.7873v5.7873h1.271Zm11.205-7.4425h-1.277v7.4425h1.277v-3.1508h3.466v3.1508h1.277v-7.4425h-1.277v3.1497h-3.466v-3.1497Zm11.031 5.6211h-3.306l-.701 1.8214h-1.328l2.948-7.4425h1.541l2.892 7.4425h-1.34l-.706-1.8214Zm-.441-1.1419-1.215-3.1452-1.21 3.1452h2.425Zm3.251 1.7854-.524.0056h-.001v1.1734h.665c.659 0 1.142-.1504 1.448-.4569.307-.3066.489-.712.535-1.215.036-.3739.067-.9545.093-1.7439.026-.7894.041-1.4642.041-2.0246v-.8612h2.751v6.2994h1.277v-7.4425h-5.252v1.9931c0 .5974-.011 1.2049-.031 1.8168-.01.3843-.024.7151-.04.9929-.01.1654-.021.3122-.033.44-.062.8051-.332 1.0016-.929 1.0229Zm11.296 1.1779h-3.193v-7.4425h1.277v2.7926h1.904c1.661 0 2.45.9286 2.45 2.2683.012 1.2093-.772 2.4029-2.438 2.3816Zm-.151-3.545h-1.765v2.4087h1.827c.804 0 1.251-.4717 1.251-1.2139.001-.7849-.436-1.1948-1.313-1.1948Zm5.109-3.8975h-1.276v7.4425h1.276v-3.1508h3.468v3.1508h1.276v-7.4425h-1.276v3.1497h-3.468v-3.1497Zm9.755 7.4425h-3.191v-7.4425h1.276v2.7926h1.905c1.66 0 2.45.9286 2.45 2.2683.01 1.2093-.774 2.4029-2.44 2.3816Zm-.151-3.545h-1.764v2.4087h1.827c.804 0 1.251-.4717 1.251-1.2139-.001-.7849-.437-1.1948-1.314-1.1948Zm4.745-3.8975v7.4425h-1.277v-7.4425h1.277Zm-85.44 10.4957h3.2587c1.4013-.0157 2.403.8724 2.3873 2.3041.0157 1.4329-.986 2.3199-2.3873 2.3098h-1.9819v2.8286H78.921v-7.4425Zm3.097 3.472c.8253 0 1.2767-.4357 1.2767-1.1679 0-.732-.4514-1.1621-1.2767-1.1621h-1.8213v2.3311h1.8213v-.0011Zm4.4186 2.1491h3.3057l.7075 1.8214h1.3385l-2.8915-7.4425h-1.5417l-2.9476 7.4425h1.3284l.7007-1.8214Zm1.6506-4.2871 1.2139 3.1452h-2.4232l1.2093-3.1452Zm7.584-1.4373c1.7652-.0158 2.9791 1.0634 3.0621 2.5062h-1.2767c-.0674-.4255-.2594-.7579-.566-1.0016-.3065-.2436-.6905-.3682-1.1621-.3682h-.1089c-1.3385-.0203-2.2267 1.1049-2.211 2.6881-.0157 1.5834.8725 2.7095 2.211 2.6883h.1089c.4727 0 .8613-.1191 1.1678-.3583.3065-.2436.4929-.576.5603-1.0072h1.2767c-.0887 1.4688-1.2924 2.522-3.0621 2.5018-2.1896.0202-3.5551-1.5889-3.5348-3.8246-.0191-2.2267 1.3452-3.8504 3.5348-3.8245Zm6.1168 4.8216h2.399v2.7242h1.277v-7.4425h-1.277v3.5832h-2.014c-.873 0-1.127-.2752-1.127-1.0646l-.005-2.5175h-1.2768l.01 3.088c.0045 1.1151.6378 1.6292 2.0138 1.6292Zm5.493-4.7183h5.542v1.142h-4.266v1.91h3.629v1.142h-3.629v2.1122h4.371v1.1363h-5.647v-7.4425Zm6.267 1.142h2.61v6.3005h1.271v-6.3005h2.617v-1.142h-6.498v1.142Zm7.595-1.142h1.277v3.1508h3.467v-3.1508h1.277v7.4425h-1.277v-3.1508h-3.467v3.1508h-1.277v-7.4425Zm7.84 7.4425h3.191c1.665.0213 2.449-1.1723 2.44-2.3816 0-1.3385-.789-2.2682-2.45-2.2682h-1.904v-2.7927h-1.277v7.4425Zm1.277-3.5449h1.764c.877 0 1.312.411 1.313 1.1936 0 .7422-.447 1.215-1.251 1.215h-1.826v-2.4086Zm6.507 3.5449v-7.4425h-1.277v7.4425h1.277Zm8.068-7.4426v7.4425h-1.271v-5.7862l-3.379 5.7862h-1.599v-7.4425h1.276v5.7661l3.364-5.7661h1.609Zm-3.997-2.0088c.047.4155.353.6277.826.6277.477 0 .799-.2122.845-.6277h1.039c-.016.9399-.685 1.4531-1.884 1.4531-1.2 0-1.848-.5143-1.863-1.4531h1.037ZM86.0615 41v-2.6926h-1.1004v-6.3062h-5.2675l-.0056 1.8629c-.0056.9197-.0157 1.6663-.0314 2.2323-.0157.5648-.0416 1.0118-.0775 1.3283-.0617.5862-.3211.8658-.8612.8714l-.5402.0102V41h1.2453v-1.5563h5.3978V41h1.2407Zm-5.1428-7.8579h2.7724v5.1642h-3.2125c.192-.1719.3109-.4515.3525-.8512.0128-.1124.0238-.262.0333-.4491.0139-.2713.0248-.6214.0341-1.0511.0146-.7321.0202-1.4227.0202-2.0762v-.7366Zm6.3129-1.142h5.5425v1.142h-4.2658v1.91h3.6281v1.142h-3.6281v2.1122h4.3703v1.1364h-5.647v-7.4426Zm12.9454 7.4426v-7.4426h-5.9577v7.4426h1.2767v-6.3006h3.4103v6.3006h1.2707Zm4.965-7.5459c2.07-.0259 3.586 1.4789 3.565 3.8245.02 2.3458-1.495 3.8516-3.565 3.8257-2.077.0259-3.597-1.4788-3.571-3.8257-.026-2.3456 1.494-3.8504 3.571-3.8245Zm.051 6.5139c1.354 0 2.243-1.0173 2.243-2.6882 0-1.6708-.887-2.6882-2.243-2.6882h-.104c-1.354 0-2.243 1.0174-2.243 2.6882 0 1.6709.888 2.6882 2.243 2.6882h.104Zm4.44-1.3756c.13 1.635 1.152 2.5119 3.036 2.5119 1.775.0157 2.871-.8882 2.856-2.1896 0-.9185-.53-1.4844-1.401-1.6764.845-.2651 1.292-.8983 1.292-1.6664 0-1.2925-1.027-2.1178-2.725-2.1178-.648 0-1.188.1247-1.629.374-.442.2481-.769.5648-.992.9544-.223.384-.348.7826-.38 1.2037h1.293c.119-.887.653-1.4115 1.728-1.4115.898 0 1.433.3998 1.433 1.0275 0 .6692-.498 1.069-1.354 1.069h-.986v1.1431h1.011c.939 0 1.438.3638 1.438 1.0432 0 .7309-.529 1.1105-1.568 1.1105-1.063 0-1.629-.4469-1.769-1.3756h-1.283Zm13.574 2.4076h-1.271v-5.7874l-3.379 5.7874h-1.598v-7.4426h1.277v5.766l3.363-5.766h1.608v7.4426Zm1.097-6.3006h2.61v6.3006h1.273v-6.3006h2.615v-1.142h-6.498v1.142Zm11.181 4.4791h-3.305l-.701 1.8215h-1.328l2.947-7.4426h1.542l2.891 7.4426h-1.338l-.708-1.8215Zm-.441-1.1419-1.215-3.1452-1.209 3.1452h2.424Zm6.73-4.4792h-3.26v7.4426h1.277V36.614h1.983c1.401.0101 2.403-.8769 2.387-2.3098.016-1.4316-.986-2.3198-2.387-2.3041Zm1.115 2.3041c0 .7322-.452 1.1679-1.277 1.1679h-1.821v-2.33h1.821c.825 0 1.277.4301 1.277 1.1621Zm8.767 5.1385h-1.271v-5.7874l-3.379 5.7874h-1.598v-7.4426h1.277v5.766l3.363-5.766h1.608v7.4426Zm6.797 0h1.271v-7.4426h-1.608l-3.363 5.7661v-5.7661h-1.277v7.4426h1.598l3.379-5.7874v5.7874Zm-1.9-8.8237c-.473 0-.778-.2122-.825-.6277h-1.038c.016.9388.664 1.4531 1.863 1.4531 1.199 0 1.869-.5132 1.884-1.4531h-1.038c-.046.4144-.369.6277-.846.6277Z"/>
</svg>