<svg xmlns="http://www.w3.org/2000/svg" viewBox="0 0 200 50">
	<path fill="#f3753e" d="M67.4 33.6H31.6c-.9 0-1.6.7-1.6 1.6 0 .9.7 1.6 1.6 1.6h35.8c.9 0 1.6-.7 1.6-1.6 0-.9-.7-1.6-1.6-1.6zM168.4 33.6h-35.8c-.9 0-1.6.7-1.6 1.6 0 .9.7 1.6 1.6 1.6h35.8c.9 0 1.6-.7 1.6-1.6 0-.9-.7-1.6-1.6-1.6z"/>
	<path fill="#5a5d62" d="m119.1 35.2 2.2-2.6c.3-.3.3-.8-.1-1.1-.3-.3-.8-.3-1.1.1l-2.6 3v-2.5c0-.4-.4-.8-.8-.8s-.8.4-.8.8v6.4c0 .4.4.8.8.8s.8-.4.8-.8v-2.7l2.8 3.2c.3.3.8.4 1.1.1.3-.3.4-.8.1-1.1l-2.4-2.8zM107.6 31.3c-.4 0-.8.4-.8.8v2.4h-2.6v-2.4c0-.4-.4-.8-.8-.8s-.8.4-.8.8v6.4c0 .4.4.8.8.8s.8-.4.8-.8v-2.4h2.6v2.4c0 .4.4.8.8.8s.8-.4.8-.8v-6.4c0-.4-.3-.8-.8-.8zM164.3 11.8c.7 0 1.2-.6 1.2-1.2v-.3c0-.7-.6-1.2-1.2-1.2s-1.2.6-1.2 1.2v.3c-.1.6.5 1.2 1.2 1.2zM169.9 13.5c0-.3-.2-.7-.4-.9-.2-.2-.5-.3-.8-.3-.2 0-.4 0-.6.1-.1.1-.3.2-.4.3l-.1.1-6.6 8.1v-7.3c0-.7-.6-1.2-1.2-1.2s-1.2.6-1.2 1.2v10.8c0 .3.2.7.4.9l.1.1h.1c.2.1.5.2.7.2.2 0 .3 0 .4-.1.2-.1.3-.2.5-.3l6.6-8.1v7.3c0 .7.6 1.2 1.2 1.2s1.2-.6 1.2-1.2l.1-10.9zM152.9 12.3c-.7 0-1.2.6-1.2 1.2v10.8c0 .7.6 1.2 1.2 1.2s1.2-.6 1.2-1.2V13.5c0-.6-.5-1.2-1.2-1.2zM121.4 24.4c0-.7-.6-1.2-1.2-1.2h-5.7v-2.9h4.6c.7 0 1.2-.6 1.2-1.2 0-.7-.6-1.2-1.2-1.2h-4.6V15h5.7c.7 0 1.2-.6 1.2-1.2 0-.7-.6-1.2-1.2-1.2h-7c-.7 0-1.2.6-1.2 1.2v10.8c0 .7.6 1.2 1.2 1.2h7c.7-.2 1.2-.7 1.2-1.4zM107.9 25.3c.5-.4.6-1.2.2-1.8l-4.3-5.5 3.4-3.7c.5-.5.4-1.3-.1-1.8s-1.3-.4-1.8.1l-5.2 5.6v-4.7c0-.7-.6-1.2-1.2-1.2-.7 0-1.2.6-1.2 1.2v4.7l-5.2-5.5c-.5-.5-1.3-.5-1.8-.1-.5.5-.5 1.3-.1 1.8l3.4 3.7-4.3 5.5c-.4.5-.3 1.3.2 1.8.5.4 1.3.3 1.8-.2l4-5.2 1.9 2v2.5c0 .7.6 1.2 1.2 1.2.7 0 1.2-.6 1.2-1.2v-2.4l1.9-2 4 5.2c.7.3 1.5.4 2 0zM85.2 12.3c-.7 0-1.2.6-1.2 1.2v4.1h-5.9v-4.1c0-.7-.6-1.2-1.2-1.2-.7 0-1.2.6-1.2 1.2v10.8c0 .7.6 1.2 1.2 1.2.7 0 1.2-.6 1.2-1.2v-4.2H84v4.2c0 .7.6 1.2 1.2 1.2.7 0 1.2-.6 1.2-1.2V13.5c.1-.6-.5-1.2-1.2-1.2zM36.9 12.1c-3.8 0-6.9 3.1-6.9 6.9 0 3.8 3.1 6.9 6.9 6.9 3.8 0 6.9-3.1 6.9-6.9 0-3.8-3.1-6.9-6.9-6.9zm0 11.3c-2.4 0-4.4-2-4.4-4.4 0-2.4 2-4.4 4.4-4.4 2.4 0 4.4 2 4.4 4.4 0 2.4-2 4.4-4.4 4.4zM52.6 12.3h-4.1c-.7 0-1.2.6-1.2 1.2v10.7c0 .7.6 1.2 1.2 1.2.7 0 1.2-.6 1.2-1.2v-2.5h2.8c2.6 0 4.7-2.1 4.7-4.7.2-2.6-1.9-4.7-4.6-4.7zm0 7h-2.8v-4.5h2.8c1.2 0 2.2 1 2.2 2.2.1 1.3-.9 2.3-2.2 2.3zM134.9 18.3c.4-.6.7-1.4.7-2.2 0-2.1-1.7-3.8-3.8-3.8h-5c-.7 0-1.2.6-1.2 1.2v10.8c0 .7.6 1.2 1.2 1.2h5.6c2.3 0 4.1-1.8 4.1-4.1 0-1.2-.6-2.4-1.6-3.1zm-6.9-3.5h3.8c.7 0 1.3.6 1.3 1.3 0 .7-.6 1.3-1.3 1.3H128v-2.6zm4.4 8.3H128v-3.2h4.4c.9 0 1.6.7 1.6 1.6s-.7 1.6-1.6 1.6zM146 16.2h-3v-2.6c0-.7-.6-1.2-1.2-1.2s-1.2.6-1.2 1.2v10.8c0 .7.6 1.2 1.2 1.2h4.2c2.6 0 4.7-2.1 4.7-4.7s-2.1-4.7-4.7-4.7zm0 6.9h-3v-4.4h3c1.2 0 2.2 1 2.2 2.2 0 1.2-1 2.2-2.2 2.2zM66.6 13c-.1-.1-.1-.2-.2-.3-.1-.1-.2-.2-.4-.2-.2-.1-.3-.1-.5-.1s-.3 0-.5.1c-.1.1-.3.1-.4.2-.1.1-.2.2-.2.3L59 23.8c-.3.6 0 1.4.6 1.7.6.3 1.4 0 1.7-.6l.9-1.7h6.6l.9 1.7c.3.6 1.1.9 1.7.6.6-.3.9-1.1.6-1.7L66.6 13zm-3.3 7.6 2.1-4.3 2.1 4.3h-4.2zM93.4 31.8c0-.1-.1-.2-.2-.3-.1-.1-.2-.1-.2-.2-.2-.1-.4-.1-.6 0-.1 0-.2.1-.2.2-.1.1-.1.2-.2.3l-2.6 6.4c-.2.4 0 .9.4 1 .4.2.9 0 1-.4l.3-.8h3.1l.3.8c.2.4.6.6 1 .4.4-.2.6-.6.4-1l-2.5-6.4zm-1.6 4.7.9-2.2.9 2.2h-1.8zM81.1 34.3h-1.7v-1.4h3c.4 0 .8-.4.8-.8s-.4-.8-.8-.8h-3.8c-.4 0-.8.4-.8.8v6.5c0 .4.3.7.7.7h2.6c1.4 0 2.5-1.1 2.5-2.5 0-1.3-1.2-2.5-2.5-2.5zm0 3.4h-1.7v-1.8h1.7c.5 0 .9.4.9.9s-.4.9-.9.9z"/>
</svg>