<svg xmlns="http://www.w3.org/2000/svg" viewBox="0 0 200 50">
	<path fill="#ED1A3B" d="M52.3172 5H200l-.002 40.7045H52.3154L52.3172 5Z"/>
	<path fill="#545758" d="M0 5h50.3153v40.7045H0V5Z"/>
	<path fill="#fff" d="M42.0906 26.4778c.4784-2.2179-.4592-4.4462-2.6492-5.2168-1.1087-.3896-2.197-.3844-3.2651.0157-1.6572.6193-2.5635 1.856-2.7189 3.7104-.2087 2.4979 1.3099 4.4131 3.8183 4.7332 2.2091.2835 4.3313-1.0055 4.8149-3.2425Zm-1.7631-1.6448.0055 1.0506c.0065 1.2573-1.039 2.3138-2.2962 2.3204l-.4175.0022c-1.2573.0066-2.3138-1.0389-2.3204-2.2962l-.0055-1.0507c-.0066-1.2572 1.0389-2.3138 2.2962-2.3203l.4175-.0022c1.2573-.0066 2.3138 1.0389 2.3204 2.2962Zm-28.9844 4.6905v-2.6562c0-.0905.0452-.134.1356-.1305 1.9744.0679 4.1401-.2 4.3401-2.651.1496-1.8508-1.1533-2.9345-2.9206-2.9676-1.0832-.0185-2.1727-.0209-3.26856-.007-.06494.0012-.09741.0343-.09741.0992v8.3149c0 .0653.05465.12.12002.12l1.57075-.0018c.08 0 .1201-.04.1201-.12Zm0-4.2653-.0035-2.731c0-.0332.0294-.0626.0626-.0626l1.2855-.0018c.716-.0009 1.3385.5815 1.3394 1.3064v.2401c.0009.7248-.62 1.3089-1.3359 1.3098l-1.2855.0018c-.0332 0-.0626-.0294-.0626-.0627Zm7.5041-.5429 3.5851-.0053c.0323 0 .0609-.0285.0609-.0608l.0035-3.486c0-.0332.0277-.0609.0609-.0609l1.6821.0052c.0331 0 .0609.0277.0609.0609l-.0018 8.4157c0 .0323-.0286.0609-.0609.0609l-1.6821-.0069c-.0323 0-.0609-.0286-.0609-.0609l-.0034-3.573c0-.0331-.0278-.0608-.0609-.0608h-3.5834c-.0323 0-.0609.0285-.0609.0608v3.5782c0 .0323-.0286.0609-.0609.0609h-1.689c-.0323 0-.0609-.0286-.0609-.0609v-8.4175c0-.0323.0286-.0609.0609-.0609l1.689.0053c.0323 0 .0609.0285.0609.0608v3.4843c0 .0323.0286.0609.0609.0609Zm12.4549 1.1658c-.1867-.3166-.472-.5642-.8558-.7428-.0696-.0324-.0696-.0655 0-.0991.2748-.1345.5009-.3375.6784-.6088.7236-1.1075 1.4444-2.2139 2.1622-3.319.0022-.005-.0015-.0116-.007-.0122-.7329-.0093-1.3719.0104-1.9169.0591-.027.0022-.052.0166-.0661.0383-.6703.9544-1.3133 1.9338-1.9291 2.938-.316.5162-.8302.5037-1.3631.4908-.0274-.0007-.0549-.0014-.0825-.002-.0603-.0023-.0904-.0336-.0904-.0939v-3.3207c0-.0263-.0105-.0515-.0291-.0701-.0185-.0186-.0438-.0291-.0701-.0291l-1.5777-.0034c-.0649 0-.0974.0324-.0974.0974v8.32c0 .0637.0555.1201.1183.1201h1.5534c.0684 0 .1026-.0337.1026-.1009v-3.493c0-.0649.0325-.0991.0974-.1026.0342-.0019.0693-.0041.1052-.0063.5125-.0314 1.1827-.0724 1.4412.3681.5752.9742 1.1382 1.928 1.6891 2.8615.1867.3178.4685.4761.8454.4749h1.4473c.0251-.0002.0399-.0344.0278-.0539-.741-1.2629-1.4687-2.4997-2.1831-3.7104ZM140.067 19.0619c.04.7376-.722.9289-1.198.5688-.175-.1343-.163-.4414-.197-.6384-.009-.051-.039-.0765-.09-.0765h-.835c-.184.0007-.351.1462-.376.327-.097.6854.393 1.1464 1.018 1.2786 1.002.2122 3.226.2452 2.978-1.3325-.028-.1797-.133-.2702-.315-.2714l-.842-.0034c-.1 0-.147.0492-.143.1478ZM65.2788 29.6054v-7.1111c0-.0277.0245-.0522.0521-.0522l3.3277-.0017c.0277 0 .0522.0245.0522.0521v7.1094c0 .0277.0245.0522.0522.0522l1.7221.0035c.0277 0 .0522-.0245.0522-.0522v-8.4627c0-.0277-.0245-.0522-.0522-.0522h-6.9876c-.0277 0-.0522.0245-.0522.0522v8.461c0 .0276.0245.0521.0522.0521l1.7291.0018c.0277 0 .0522-.0245.0522-.0522Zm10.3082-7.0555c-.0452 1.1702-.167 2.3559-.3653 3.5573-.1966 1.1933-.6088 2.8615-1.6995 3.413-.4546.2307-1.0054.2945-1.6525.1913-.2505-.0394-.3758-.1861-.3758-.4401v-.7567c0-.167.0835-.2423.2505-.2261.6842.0696 1.1574-.3015 1.4195-1.1133.6189-1.9083.6724-4.0045.7201-5.9926.0012-.0615.0325-.0922.094-.0922h5.4307c.058 0 .087.029.087.087v8.3931c0 .058-.029.087-.087.087l-1.6525-.0018c-.058 0-.087-.0284-.087-.0852v-7.0433c0-.058-.0284-.0869-.0852-.0869h-1.8839c-.0719 0-.1096.0365-.1131.1095Zm6.9025 6.7598.5532-1.5517c.0243-.0661.0713-.0991.1409-.0991h3.1815c.065 0 .1079.0313.1288.0939.1507.465.3264.9602.527 1.4856.0998.262.2853.3971.5567.4053.4395.0127.8854.0185 1.3377.0174.0858-.0012.113-.0412.0817-.1201l-3.2581-8.3496c-.0255-.0673-.0742-.1009-.1461-.1009h-1.6647c-.0638 0-.1079.0301-.1322.0904l-3.239 8.3027c-.0568.145-.0069.2134.1496.2053.4581-.0255.9162-.0505 1.3742-.0748.1817-.0103.3481-.1342.4088-.3044Zm1.0716-3.0285 1.1759-3.312c.022-.0615.044-.0615.0661 0l1.1933 3.3903c.0075.0172-.0057.0368-.0244.0365h-2.3309c-.0585 0-.0985-.0604-.08-.1148Zm6.711-3.7573h-2.4197c-.0286 0-.0539-.0254-.0539-.054l-.0017-1.3255c0-.0286.0253-.0539.0539-.0539h6.7249c.0286 0 .054.0253.054.0539v1.3273c0 .0286-.0254.0539-.054.0539l-2.3727-.0017c-.0286 0-.0539.0253-.0539.0539v7.0241c0 .0295-.0243.0539-.0539.0539h-1.7169c-.0286 0-.0539-.0253-.0539-.0539l.0017-7.0241c0-.0286-.0253-.0539-.0539-.0539Zm7.2693 2.0804v-2.07c0-.0277.0245-.0522.0522-.0522h3.5484c.028 0 .052-.0245.052-.0522l.002-1.2872c0-.0277-.024-.0522-.052-.0522h-5.3752c-.0277 0-.0522.0245-.0522.0522v8.461c0 .0276.0245.0521.0522.0521h5.3732c.028 0 .052-.0245.052-.0521l.002-1.329c0-.0283-.024-.0522-.052-.0522l-3.5504.0017c-.0277 0-.0522-.0245-.0522-.0522v-2.0717c0-.0277.0245-.0522.0522-.0522h2.7714c.027 0 .052-.0245.052-.0522v-1.2872c0-.0277-.025-.0522-.052-.0522h-2.7714c-.0277 0-.0522-.0245-.0522-.0522Zm7.4376.4329c-.229-.1206-.407-.2806-.534-.4801-.691-1.0912-1.389-2.1709-2.096-3.239-.125-.189-.075-.2748.152-.2574.389.0313.776.0429 1.16.0348.386-.0081.68.1519.882.4801.483.7839.983 1.6056 1.499 2.4649.353.5914.8.5984 1.42.5705.057-.0023.085-.0324.085-.0904l-.002-3.3868c0-.029.015-.0435.044-.0435h1.609c.029 0 .043.0145.043.0435v3.3903c0 .1394.214.0906.29.0892.507-.0098.878-.017 1.208-.5624.492-.8164 1.002-1.6583 1.532-2.5258.149-.2423.365-.3722.649-.3896.501-.0302.952-.0568 1.352-.08.233-.0139.286.0765.158.2713-.679 1.0368-1.368 2.1025-2.066 3.1973-.142.2203-.337.3977-.585.5323-.035.0202-.036.076.004.0921.384.1653.675.4854.882.8385.701 1.191 1.389 2.3582 2.063 3.5016.063.1079.033.1635-.093.167-.578.0209-1.037.0093-1.376-.0348-.295-.039-.567-.2159-.723-.4714-.527-.8628-1.069-1.7667-1.628-2.7119-.298-.5048-.736-.4939-1.203-.4822-.12.003-.242.0061-.365.0004-.066-.0023-.099.0295-.099.0957v3.5625c0 .029-.014.0429-.043.0417h-1.609c-.029 0-.044-.0139-.044-.0417v-3.5608c0-.0545-.026-.0835-.08-.087-.031-.002-.063-.0041-.094-.0061-.62-.0409-1.177-.0776-1.515.5019-.553.9555-1.088 1.8456-1.604 2.6701-.191.3039-.466.4691-.824.4958-.371.0278-.774.0452-1.209.0522-.19.0034-.237-.0766-.139-.2401.694-1.1655 1.37-2.3141 2.028-3.446.212-.3629.503-.643.871-.8401.073-.0395.073-.0783 0-.1166Zm12.525 4.5595-.002-3.5747c0-.0324.029-.0609.061-.0609h3.573c.032 0 .061.0286.061.0609v3.5729c0 .0332.028.0609.061.0609l1.712.0017c.032 0 .06-.0285.06-.0608v-8.4454c0-.0323-.028-.0608-.06-.0608h-1.714c-.032 0-.061.0285-.061.0608l.002 3.4895c0 .0323-.029.0609-.061.0609h-3.573c-.033 0-.061-.0277-.061-.0609l.002-3.4912c0-.0323-.029-.0609-.061-.0609l-1.705.0035c-.032 0-.061.0286-.061.0609v8.4418c0 .0323.029.0609.061.0609l1.705.0017c.032 0 .061-.0285.061-.0608Zm9.178-5.0167c.07-.0025.141-.0051.212-.0077.903-.033 1.829-.0669 2.654.2668.841.341 1.313.9133 1.416 1.7169.246 1.9205-1.106 3.0668-2.938 3.0911-1.119.0151-2.19.0169-3.213.0053-.06 0-.09-.0302-.09-.0905v-8.3844c0-.0462.041-.087.087-.087h1.652c.058 0 .087.029.087.087v3.272c0 .0893.044.1328.133.1305Zm-.138 1.4333.007 2.1987c0 .0259.023.0488.049.0488l1.459-.0053c.585-.0019 1.143-.4499 1.14-1.0611V27.01c-.003-.6099-.563-1.0526-1.147-1.0506l-1.459.0052c-.026 0-.049.0229-.049.0487Zm5.577-4.9228h1.729c.026 0 .047.021.047.047v8.4714c0 .0259-.021.0469-.047.0469h-1.729c-.026 0-.047-.021-.047-.0469v-8.4714c0-.026.021-.047.047-.047Zm5.279 6.123c1.342-2.2776 2.512-4.1864 3.511-5.7265.144-.2209.409-.4053.685-.4001.44.0082.87.0076 1.291-.0017.067-.0012.101.0319.101.0991v8.3427c0 .0859-.044.1288-.131.1288h-1.611c-.057 0-.086-.029-.086-.087l.005-6.0935c0-.0186-.004-.0192-.011-.0018-.134.3004-.278.577-.431.8298-1.025 1.6989-2.043 3.3468-3.053 4.9437-.303.4777-.995.4477-1.563.423-.15-.0065-.291-.0126-.415-.009-.065.0023-.097-.029-.097-.094v-8.3896c0-.058.029-.087.087-.087h1.647c.059 0 .089.0302.089.0905.006 2.0213.005 3.922-.002 5.7021 0 .1044-.014.211-.042.3201-.015.0603-.006.0637.026.0104Zm20.937 1.049-.977.0017c-.072 0-.108-.0359-.108-.1078v-6.9789c0-.058-.029-.087-.087-.087h-1.653c-.058 0-.087.029-.087.087v6.9998c0 .0568-.028.0852-.085.0852l-3.265.0017c-.058 0-.087-.029-.087-.0869v-6.9998c0-.058-.028-.087-.085-.087h-1.653c-.058 0-.087.029-.087.087v8.3931c0 .0568.029.0852.087.0852h6.436c.06 0 .089.0296.089.0888l-.002 1.8282c0 .0591.03.0887.089.0887l1.04-.0017c.285 0 .522-.2377.522-.5219v-2.7867c0-.0591-.029-.0887-.087-.0887Zm2.888-.0383 3.534-.0017c.032 0 .06.0277.06.0591v1.3168c0 .0314-.028.0592-.06.0592l-5.361-.0018c-.031 0-.059-.0277-.059-.0591v-8.4471c0-.0313.028-.0591.059-.0591h5.361c.032 0 .06.0278.06.0591v1.2734c0 .0313-.028.0591-.06.0591h-3.536c-.031 0-.059.0278-.059.0591l.003 2.0527c0 .0313.028.0591.059.0591l2.749.0052c.032 0 .059.0274.059.0592l.002 1.2716c0 .0322-.027.0591-.059.0591l-2.752.0017c-.032 0-.059.0278-.059.0592v2.0561c0 .0313.027.0591.059.0591Zm6.986 1.3812v-3.5921c0-.0277.024-.0522.052-.0522h3.594c.027 0 .052.0245.052.0522l-.002 3.5904c0 .0276.025.0521.052.0521h1.721c.027 0 .052-.0245.052-.0521l.002-8.461c0-.0277-.025-.0522-.053-.0522h-1.722c-.027 0-.052.0245-.052.0522l.002 3.5068c0 .0277-.025.0522-.052.0522h-3.594c-.028 0-.052-.0245-.052-.0522v-3.5068c0-.0277-.025-.0522-.053-.0522h-1.722c-.027 0-.052.0245-.052.0522v8.461c0 .0276.025.0521.052.0521l1.722.0018c.028 0 .053-.0245.053-.0522Zm10.83-7.0241.002 7.0206c0 .0305-.027.0574-.058.0574l-1.67-.0052c-.03 0-.057-.0269-.057-.0574l-.002-7.0154c0-.0313-.026-.0574-.057-.0574h-2.408c-.03 0-.057-.027-.057-.0575l-.002-1.3185c0-.0304.027-.0574.058-.0574h6.714c.031 0 .058.027.058.0574l-.002 1.3203c0 .0304-.027.0574-.058.0574l-2.404-.0017c-.03 0-.057.0269-.057.0574Zm5.347 6.9452v-2.6649c0-.0846.043-.1252.127-.1218 1.421.0401 3.279.0053 4.041-1.4838.534-1.0454.428-2.6388-.532-3.4233-.552-.4511-1.171-.69-1.858-.7167-.843-.0348-2.016-.0417-3.519-.0209-.057.0012-.085.0302-.085.087v8.3862c0 .058.028.087.085.087h1.611c.087.0011.13-.0418.13-.1288Zm0-4.2774v-2.7345c0-.0333.03-.0626.063-.0626h1.221c.731 0 1.374.5893 1.374 1.3324v.1948c0 .7432-.643 1.3325-1.374 1.3325h-1.221c-.033 0-.063-.0294-.063-.0626Z"/>
</svg>