<svg xmlns="http://www.w3.org/2000/svg" viewBox="0 0 200 50">
	<path fill="#D9007E" d="M44.0973 8.59766c-2.6654.72087-5.096 2.15414-7.0432 4.15314-1.9526 1.9919-3.352 4.4808-4.0541 7.2105v-8.7608c.0012-.6891.2687-1.34968.7439-1.8374.4752-.48772 1.1195-.76292 1.7922-.76544h8.5612ZM63.1716 19.9613c-.7015-2.729-2.0991-5.2176-4.0495-7.2105-1.9489-1.9992-4.3811-3.4324-7.0479-4.15314h8.5612c.6727.00252 1.317.27772 1.7923.76544.4752.48772.7426 1.1483.7439 1.8374v8.7608Zm-4.0495 15.3972c-1.9477 2.0009-4.3803 3.4343-7.0479 4.1532h8.5612c.6719-.0026 1.3155-.2771 1.7906-.7638.4751-.4867.7431-1.1461.7456-1.8343v-8.7752c-.6989 2.7329-2.0968 5.2252-4.0495 7.2201ZM33 28.1383c.7006 2.7332 2.1001 5.2255 4.0541 7.2201 1.946 2.0007 4.377 3.4342 7.0432 4.1532h-8.5612c-.6722-.0013-1.3166-.2754-1.7919-.7624-.4754-.487-.743-1.1471-.7442-1.8357v-8.7752Z"/>
	<path fill="#00B295" d="M41.2155 17.0194c1.3588-1.3916 3.0898-2.3391 4.9742-2.7229 1.8844-.3838 3.8376-.1865 5.6126.5668 1.775.7534 3.292 2.029 4.3594 3.6655 1.0673 1.6365 1.637 3.5606 1.637 5.5288 0 1.9682-.5697 3.8922-1.637 5.5288-1.0674 1.6366-2.5844 2.9122-4.3594 3.6655-1.775.7533-3.7282.9506-5.6126.5668-1.8844-.3837-3.6154-1.3313-4.9742-2.7228-.9029-.9239-1.6193-2.021-2.108-3.2287-.4888-1.2077-.7403-2.5023-.7403-3.8096 0-1.3074.2515-2.6019.7403-3.8096.4887-1.2077 1.2051-2.3048 2.108-3.2286Z"/>
	<path fill="#D9007E" d="M77.0808 14.3588V30.11c.0264.2146-.027.4315-.1495.6077-.0934.1052-.3316.1483-.7193.1483h-4.2455c-.2323.0236-.466-.0283-.6679-.1483-.0793-.0771-.1393-.1725-.1751-.2782-.0358-.1058-.0462-.2188-.0304-.3295V10.421c9.8082-4.98565 19.6911-2.00478 19.6911 6.4976V30.11c.0297.2141-.0221.4317-.1448.6077-.0934.1052-.3316.1483-.7146.1483h-4.2502c-.2292.021-.4591-.0308-.6585-.1483-.0775-.0782-.1361-.1739-.1709-.2794-.0349-.1055-.0452-.218-.03-.3283V18.9425c.012-.8037-.0648-1.6062-.2288-2.3923-.1248-.6245-.3921-1.2098-.78-1.7081-.4008-.4875-.929-.8477-1.5226-1.0383-1.3498-.4785-3.7879-.4067-5.2124.5694M130.353 25.1629V9.43562c-.025-.21454.028-.43113.149-.60766.218-.12931.471-.18146.72-.14832h4.245c.229-.01497.457.03643.659.14832.079.07749.138.17294.174.27855.036.10562.046.21839.031.32911V29.1007c-9.808 4.9856-19.7 2.0048-19.7-6.4976V9.43562c-.024-.21378.027-.42937.145-.60766.216-.12663.467-.17863.714-.14832h4.25c.226-.0178.452.03385.65.14832.082.07534.145.17007.183.27596.038.1059.051.21976.036.3317V20.5839c-.012.8037.065 1.6063.229 2.3924.119.6276.383 1.2167.771 1.7177.399.4888.928.8493 1.522 1.0382 1.341.4785 3.788.4067 5.213-.5693M100.028 38.7656c.028.2095-.023.4223-.1452.5933-.2227.107-.4702.1484-.7146.1196h-4.2596c-.2227.0151-.4456-.0259-.6492-.1196-.1401-.0861-.2008-.2871-.2008-.5933V10.3302c4.353-2.71291 10.9614-2.95693 14.8474-1.19138 1.248.54059 2.35 1.38088 3.214 2.44978.832 1.0742 1.429 2.3193 1.751 3.6507.367 1.4774.548 2.997.537 4.5215.01 1.5049-.183 3.0039-.574 4.4545-.356 1.3263-.962 2.5682-1.784 3.6555-.814 1.0503-1.85 1.8964-3.032 2.4737-1.356.6278-2.832.9368-4.32.9043-.822 0-1.593-.0382-2.293-.1052-.8-.0854-1.594-.2196-2.377-.4019v8.0239Zm8.117-19.1388c.019-.9819-.091-1.962-.327-2.9138-.176-.708-.512-1.3637-.981-1.9139-.424-.4779-.969-.8271-1.574-1.0096-.677-.2081-1.381-.3082-2.087-.2966-.507.0074-1.013.0506-1.514.1292-.553.0667-1.099.1787-1.634.3349v11.5311c.632.1765 1.277.3029 1.929.378.565.0526 1.064.0861 1.513.0861.629.0229 1.255-.0935 1.836-.3412.582-.2477 1.104-.6209 1.531-1.0942.875-.9474 1.311-2.5742 1.308-4.8804v-.0096ZM159.362 19.7417c0 3.0479-.607 6.177-2.615 8.5263-2.009 2.3493-4.858 3.067-7.791 3.067-2.933 0-5.787-.7273-7.781-3.067-1.994-2.3397-2.62-5.4784-2.62-8.5263 0-3.0478.607-6.177 2.62-8.5311 2.013-2.35403 4.853-3.06216 7.781-3.06216 2.929 0 5.806.73684 7.814 3.06216 2.008 2.3254 2.615 5.4785 2.615 8.5311h-.023Zm-6.198 0c.006-.8576-.062-1.7141-.201-2.5598-.122-.7078-.369-1.3871-.728-2.0047-.312-.5443-.75-1.0012-1.275-1.3302-.621-.3179-1.305-.4834-1.999-.4834-.694 0-1.379.1655-1.999.4834-.526.329-.964.7859-1.275 1.3302-.353.6251-.592 1.311-.706 2.0239-.139.8456-.206 1.7021-.2 2.5597-.006.8545.061 1.7078.2 2.5503.114.7144.353 1.4018.706 2.0287.313.539.751.9909 1.275 1.3158.62.3179 1.305.4834 1.999.4834.694 0 1.378-.1655 1.999-.4834.526-.3303.964-.7889 1.275-1.3349.353-.627.592-1.3144.705-2.0288.139-.8424.207-1.6957.201-2.5502h.023Z"/>
	<path fill="#00B295" d="m105.74 41.4359.122.0575c.594.2408 1.229.3563 1.868.3397.693.0563 1.38-.1669 1.915-.622.16-.1632.287-.357.373-.5705.087-.2135.131-.4424.131-.6736.006-.1498-.017-.2994-.069-.4399-.051-.1404-.129-.269-.23-.3782-.144-.1426-.32-.2461-.513-.3015.266-.0842.509-.2318.71-.4306.13-.1275.232-.2816.3-.4521.069-.1706.102-.354.097-.5383.006-.1637-.02-.327-.077-.48-.057-.153-.144-.2925-.255-.41-.169-.1572-.368-.2771-.584-.352-.216-.0749-.445-.1033-.672-.0834-.331-.0152-.66.0394-.969.1604-.308.121-.589.3058-.825.543-.333.4126-.553.9077-.64 1.4354l-.668 3.177-.014.0191Zm1.448-2.2248h.986c.278-.0316.559.0415.789.2057.068.0691.121.1521.156.2436.034.0915.05.1895.045.2875.01.1557-.015.3117-.074.4555-.06.1438-.151.2713-.267.3723-.269.2048-.599.3079-.934.2918-.251-.0041-.501-.0281-.748-.0718-.112 0-.205-.0574-.312-.0909l.359-1.6937Zm.126-.689.122-.5551c.048-.301.185-.5798.392-.799.117-.116.255-.2067.407-.2667.151-.06.313-.0881.476-.0826.212-.0106.421.0612.584.201.062.0614.111.1359.144.2185.032.0825.046.1711.042.2599.004.2486-.08.4901-.238.6795-.142.1237-.307.2171-.485.2747-.178.0575-.366.078-.552.0602l-.892.0096Zm5.054.6268h2.041l-.523 2.5358h.962l1.154-5.6028-1 .1914-.434 2.1196h-2.041l.467-2.311-1 .1914-1.111 5.4114h.934l.551-2.5358Zm8.631-1.6412c0-.9139-.588-1.4354-1.602-1.4354-.332-.0012-.66.0659-.966.1974-.305.1315-.582.3248-.813.5682-.758.8054-1.18 1.8813-1.177 3 0 1.2583.756 1.9808 1.816 1.9808.392.0246.784-.0341 1.152-.1725.368-.1383.705-.3533.988-.6313l-.346-.622c-.415.4034-.969.6219-1.541.6076-.141.0077-.282-.016-.413-.0693s-.249-.1351-.346-.2397c-.097-.1045-.171-.2294-.217-.3661-.045-.1366-.062-.2817-.047-.4253.004-.211.029-.421.075-.6268.172 0 .415.0335.658.0335 1.13 0 1.831-.2201 2.275-.6555.152-.1434.274-.317.358-.5104.084-.1933.129-.4023.132-.6141l.014-.0191Zm-.99.0287c0 .1149-.022.2286-.066.3346-.043.106-.106.202-.186.2826-.267.2728-.692.3876-1.514.3876h-.509c.267-1.0813.883-1.689 1.523-1.689.537 0 .738.3349.738.7034l.014-.0192Zm8.047-1.2631-.742 3.5885c-.222.268-.468.5146-.734.7368-.258.237-.587.3785-.934.4019-.048.0069-.098.0019-.144-.0148-.046-.0166-.088-.0444-.122-.0809-.075-.0903-.112-.2072-.103-.3253.012-.2044.046-.4067.103-.6029l.803-3.8947-.999.1914-.738 3.598c-.205.2738-.44.5226-.701.7417-.24.2266-.547.3632-.873.3875-.122.0085-.243-.0327-.336-.1148-.073-.095-.108-.2146-.098-.3349.002-.1614.023-.3219.06-.4785l.818-3.9761-1.014.1914-.78 3.7943c-.049.2068-.076.4187-.079.6316-.016.3003.079.5957.266.8277.214.196.493.299.78.2871.376-.0034.743-.1145 1.06-.3206.31-.2008.583-.455.808-.7512v.067c-.006.1407.016.2812.063.4134.047.1322.12.2535.213.3569.083.0803.182.1424.289.1827.108.0403.222.0579.337.0518.385-.0065.761-.1206 1.088-.3302.322-.1988.606-.4548.841-.7559-.036.1309-.055.266-.056.4019.001.2511.044.5001.126.7368l.934-.4163c-.05-.169-.076-.3448-.075-.5215.007-.279.043-.5565.107-.8277l.813-4.0192-.981.1771Zm8.874.8803c.01-.1405-.009-.2816-.056-.414-.047-.1324-.12-.2532-.216-.3544-.096-.1011-.211-.1805-.339-.2328-.128-.0522-.265-.0763-.402-.0705-.377.0369-.742.1543-1.072.3447-.33.1904-.617.4495-.843.7605 0-.6842-.308-1.0717-.934-1.0717-.373.0267-.736.1365-1.064.3216-.327.1851-.611.4411-.832.7501.036-.1567.055-.3173.056-.4784.005-.2274-.04-.453-.131-.6603l-.911.4163c.05.1691.073.345.07.5215-.007.2771-.041.5528-.103.8229l-.803 3.8756h.962l.734-3.5406c.574-.7512 1.214-1.1675 1.606-1.1675.308 0 .402.1675.402.4306-.016.2079-.047.4143-.094.6173l-.766 3.689h.935l.747-3.5886c.514-.6698 1.125-1.1483 1.56-1.1483.341 0 .467.1436.467.4498-.003.1757-.025.3506-.066.5215l-.775 3.7656h.934l.799-3.8613c.064-.2175.111-.4399.14-.6651l-.005-.0335Zm5.465.8756c0-1.1866-.621-1.9473-1.84-1.9473-1.728 0-2.999 1.6459-2.999 3.7799 0 1.2296.663 1.9521 1.831 1.9521 1.845.0192 3.013-1.7081 3.013-3.7655l-.005-.0192Zm-1.037-.0574c0 1.5024-.607 3.0479-1.756 3.0479-.607 0-.934-.3158-.934-1.067 0-1.5072.64-3.0479 1.779-3.0479.472 0 .911.2823.911 1.067Zm6.539-.0861c0-1.067-.467-1.7655-1.401-1.7655-.366.0224-.723.1265-1.046.3051-.323.1785-.603.4271-.822.7283.031-.1397.046-.2825.046-.4258-.003-.2275-.05-.4521-.14-.6603l-.934.4163c.05.1723.076.3512.075.5311-.007.2719-.038.5426-.094.8086l-1.289 6.177 1.014-.2201.467-2.2153c.376.194.794.2863 1.214.268.37-.0103.734-.1009 1.067-.2658.334-.165.629-.4006.867-.6912.624-.8667.966-1.9132.976-2.9904Zm-1.06.0526c-.02.8519-.249 1.6848-.668 2.4211-.14.198-.323.3602-.535.4739-.211.1137-.445.1759-.684.1816-.355.0164-.706-.0897-.995-.3014l.542-2.6029c.171-.2963.404-.5497.683-.7417.279-.1921.596-.3179.928-.3684.481.0048.715.2632.715.9378h.014Zm2.508-.6268c.139-.0811.284-.1499.434-.2057.293-.1365.612-.2051.934-.201.237-.0198.473.0538.659.2058.056.0549.1.1211.13.1943.03.0733.044.1522.043.2315.004.088-.009.176-.04.2583-.031.0824-.077.1574-.138.2202-.248.225-.544.3887-.864.4785l-.467.1866c-.509.1475-.985.3962-1.401.732-.144.1376-.257.3045-.334.4899-.076.1855-.114.3854-.11.5867-.006.1658.019.3312.076.4866.057.1553.144.2974.256.4177.381.3276.872.4891 1.368.4497.343.0033.686-.0385 1.018-.1244.315-.0735.618-.1911.902-.3492l.121-.067-.299-.7656c-.074.0431-.261.1483-.387.2058-.359.1782-.755.2668-1.154.2583-.266.0216-.532-.051-.752-.2057-.059-.0507-.106-.1145-.138-.1867-.031-.0721-.046-.1506-.044-.2296-.003-.1029.017-.2052.057-.2995.041-.0943.101-.1783.177-.2459.391-.2975.835-.5136 1.307-.6364.54-.1656 1.043-.437 1.481-.799.12-.1152.214-.2557.276-.4118.063-.1561.091-.3241.084-.4925.007-.1763-.021-.3523-.083-.5169-.062-.1647-.156-.3145-.277-.4401-.179-.1586-.386-.2795-.611-.3559-.224-.0763-.461-.1066-.697-.0891-.341-.0012-.681.0488-1.009.1484-.266.0826-.522.1932-.766.3301l.248.7416Zm8.748-3.9521c-.19.1128-.389.2103-.593.2919-.383.1674-.365.1339-.715.2727l-.715.2823c-.558.2025-1.071.5182-1.508.9282-.646.7356-1.089 1.6339-1.285 2.6029-.182.6826-.29 1.3838-.322 2.0909-.016.277.025.5544.119.8146s.24.4976.428.6973c.176.1657.383.2934.609.3755.225.0822.464.1172.703.103.692-.0055 1.357-.2731 1.868-.7512.742-.8188 1.141-1.9026 1.112-3.0191.015-.2493-.018-.4992-.098-.735-.08-.2359-.206-.4529-.369-.6382-.163-.161-.357-.2864-.569-.3686-.212-.0823-.438-.1196-.664-.1099-.339-.0094-.674.0679-.976.2249-.344.193-.647.4531-.892.7655.032-.0861.172-.4784.247-.6555.105-.2303.247-.4407.42-.622.654-.5493 1.413-.952 2.228-1.1818.44-.1443.866-.3268 1.275-.5454l-.303-.823Zm-2.289 3.6842c.122-.008.243.0109.357.0555.114.0446.217.1138.302.2029.181.2249.27.5131.247.8038-.003.6622-.148 1.3155-.425 1.9139-.11.2857-.3.5322-.546.709-.246.1767-.536.2762-.836.2862-.122.0083-.243-.0104-.357-.055-.114-.0447-.217-.114-.302-.2034-.195-.2333-.294-.5354-.275-.8421.021-.8674.291-1.7093.775-2.421.135-.1483.3-.2654.483-.3438.182-.0784.379-.1161.577-.1108v.0048Zm7.202-.512c-.451-.289-.976-.437-1.508-.4258-.406-.0117-.809.0617-1.186.2155-.376.1539-.718.385-1.005.6792-.735.8401-1.139 1.9295-1.135 3.0575 0 1.1818.584 1.7272 1.317 1.7272.347.0088.691-.0748.997-.2425.306-.1677.565-.4138.75-.7144-.022.1956.002.3938.07.5779.068.184.179.3485.322.4795l.794-.622c-.093-.0919-.166-.2038-.213-.3279-.047-.124-.067-.2571-.057-.3898.007-.2142.033-.4272.079-.6364l.467-2.1961c.084-.3685.224-.9091.308-1.1867v.0048Zm-1.097.5072-.57 2.7464c-.322.6747-.934 1.1962-1.448 1.1962-.467 0-.682-.2536-.682-.9043-.021-.8801.235-1.7437.729-2.4641.163-.2225.374-.4025.618-.5256.243-.123.511-.1856.783-.1826.197.0032.391.0488.57.134Zm2.938 2.1292h2.041l-.519 2.5359h.934l1.159-5.6029-1 .1914-.416 2.1196h-2.036l.467-2.311-.995.1914-1.121 5.4115h.962l.524-2.5359Zm5.048-2.8708-1.125 5.4115h.967c.314-.844.725-1.647 1.223-2.3924.187-.0024.371.0472.533.1436.056.0579.1.1277.127.2046.027.0768.038.1588.032.2403v.7895c-.027.2829.046.5664.205.7991.185.1655.423.2543.668.2488l.439.0526.262-.6746-.201-.0479c-.11-.018-.212-.0678-.295-.1435-.043-.0488-.077-.1062-.097-.1688-.021-.0626-.029-.129-.024-.1949l-.065-.8469c.016-.1364.002-.2748-.04-.4052-.042-.1305-.112-.2498-.204-.3495-.092-.0996-.205-.1771-.33-.227-.125-.0498-.259-.0708-.393-.0613l-.215-.0287c.157-.2589.347-.4954.565-.7034.485-.5138 1.094-.8869 1.766-1.0813l.177-.0383-.233-.7177c-.364.0721-.716.1961-1.047.3684-.378.1857-.724.4348-1.023.7369-.323.3229-.605.6862-.84 1.0813-.276.4785-.509.9569-.551 1.0239l.271-.9904.467-2.2345-1.019.2058Z"/>
</svg>