<svg viewBox="0 0 200 50" xmlns="http://www.w3.org/2000/svg">
	<path fill="#E00025" d="M11.0278 16.3126v8.3512c0 .5139 0 1.7987-1.0278 1.7987v.1285h5.3961v-.1285c-1.0278 0-1.0278-1.2848-1.0278-1.7987v-9.636h3.469v9.636c0 .5139 0 1.7987-1.0279 1.7987v.1285h5.3962v-.1285c-1.0279 0-1.0279-1.2848-1.0279-1.7987v-8.3512c0-.5139 0-1.7987 1.0279-1.7987v-.1285H10v.1285c1.0278 0 1.0278 1.2848 1.0278 1.7987Zm18.5011 1.4133c-.7709 0-1.4133.3854-1.9272 1.0278l-.3854.3855v-1.4133l-3.5975.5139c.3855.1285.7709.5139.6424 1.0279v9.379c0 .5139-.2569.8993-.6424 1.0278h4.3684c-.1285 0-.3855-.1285-.514-.2569-.1284-.257-.2569-.514-.2569-.7709v-2.8266l.3854.5139c.3855.3855 1.0278.6424 1.5418.514 1.5417 0 3.0835-1.5418 3.0835-4.7538.1285-2.1841-.7709-4.3683-2.6981-4.3683Zm-.3854 4.7538c.1284 1.1563 0 2.1841-.6424 3.2119-.1285.1285-.3855.257-.5139.257-.8994 0-.8994-1.0278-.8994-1.4133v-4.2398c0-.3854 0-1.4133.8994-1.4133.8993 0 1.1563 1.0279 1.1563 3.5975Zm8.8651-4.7538c-2.5696 0-4.2399 1.7987-4.2399 4.6253 0 4.3683 3.5975 4.6252 4.2399 4.6252.6424 0 4.2398-.2569 4.2398-4.6252 0-2.8266-1.6702-4.6253-4.2398-4.6253Zm1.1563 5.0107c0 1.2848 0 2.955-.6424 3.5974-.257.257-.7709.3855-1.1563 0-.6424-.6424-.6424-2.3126-.6424-3.4689v-.8994c0-1.2848 0-2.955.6424-3.4689.2569-.257.7708-.3855 1.1563 0 .6424.6424.6424 2.3126.6424 3.4689v.7709Zm14.2612-5.0107c-.6424 0-1.1563.1285-1.5417.6424l-.3855.3854V14h-3.5974c.6424.1285.6424.8994.6424 1.2848v3.4689l-.3854-.3854c-.3855-.3854-1.0279-.6424-1.5418-.6424-2.3126 0-2.955 2.955-2.955 4.6253 0 2.3126.8993 4.6252 2.955 4.6252.6424 0 1.1563-.1284 1.5418-.5139l.3854-.3854v2.5696c0 .3854 0 1.1563-.6424 1.2848h4.2398c-.2569 0-.3854-.1285-.5139-.3855-.1285-.2569-.257-.6424-.1285-.8993v-2.5696l.3855.3854c.3854.3855 1.0278.6424 1.5417.5139 2.0557 0 2.9551-2.3126 2.9551-4.6252 0-1.7987-.6424-4.6253-2.9551-4.6253Zm-4.6252 6.8094c0 .514 0 1.4133-.8994 1.4133s-1.1563-1.0278-1.1563-3.5974.3854-3.5975 1.1563-3.5975c.7709 0 .8994.8994.8994 1.4133v4.3683Zm3.3404 1.2848c-.8993 0-.8993-.8993-.8993-1.4132V20.167c0-.3854 0-1.4133.8993-1.4133.8994 0 1.1563 1.0279 1.1563 3.469 0 2.4411-.3854 3.5974-1.1563 3.5974Zm9.7645-8.0942c-2.4411 0-4.1114 1.9272-4.1114 4.8822 0 2.5696 1.5418 4.3683 3.8544 4.3683 1.4133 0 2.6981-.8993 3.469-2.1841l-.257-.1285c-.3854.5139-1.0278.8994-1.7987.8994-1.0278 0-2.1842-.5139-2.1842-3.3405v-.3854h4.6253c0-1.1564-.3854-2.3127-1.0278-3.212-.7709-.6424-1.6703-.8994-2.5696-.8994Zm-1.0279 3.5974v-.2569c0-1.0279 0-2.8266 1.0279-2.8266.6424 0 .8993.8994 1.0278 2.8266v.2569h-2.0557Zm10.9208-1.5417c0 .3854.1285 1.5417 1.2848 1.5417.7709 0 1.1563-.5139 1.1563-1.2848 0-2.1841-2.5696-2.3126-3.0835-2.3126-2.4411 0-4.4968 2.0557-4.3683 4.4968v.257c0 2.5696 1.6702 4.4967 3.8544 4.4967 1.4133 0 2.6981-.7708 3.4689-1.9271l-.2569-.3855c-.3855.3855-1.0279.6424-1.6702.6424-2.3127 0-2.4412-3.0835-2.4412-3.7259 0-1.0278.1285-3.3405 1.2848-3.3405.257 0 .6424.1285.6424.8994l.1285.6424Zm8.7366 0c0 .3854.1285 1.5417 1.2848 1.5417.7709 0 1.1563-.5139 1.1563-1.2848 0-2.1841-2.5696-2.3126-2.955-2.3126-2.4411 0-4.4968 2.0557-4.4968 4.4968v.257c0 2.5696 1.6703 4.4967 3.8544 4.4967 1.4133 0 2.6981-.7708 3.469-1.9271l-.257-.3855c-.3854.3855-1.0278.6424-1.6702.6424-2.3127 0-2.4411-3.0835-2.4411-3.7259 0-1.0278.1284-3.3405 1.2847-3.3405.257 0 .6424.1285.6424.8994l.1285.6424Zm9.5075-.6424-1.7987 4.2398h-.5139v-3.9829c0-.3854 0-1.1563.6424-1.2848h-4.2398c.6424.1285.6424.7709.6424 1.2848v6.1671c0 .5139-.257.8993-.6424 1.0278h4.2398c-.3855-.1285-.7709-.5139-.6424-1.0278l1.7987-4.3683h.5139v4.1113c0 .3854 0 1.1563-.6424 1.2848h4.3683c-.6424-.1285-.6424-.8994-.6424-1.2848v-5.9101c0-.3854 0-1.1563.6424-1.2848h-4.3683c.3855.1285.6424.514.6424 1.0279Zm9.1221-1.4133c-2.5696 0-4.2399 1.7987-4.2399 4.6253 0 4.3683 3.5975 4.6252 4.2399 4.6252.6424 0 4.2401-.2569 4.2401-4.6252 0-2.8266-1.671-4.6253-4.2401-4.6253Zm1.1561 5.0107c0 1.2848 0 2.955-.6422 3.5974-.257.257-.7709.3855-1.1563 0-.6424-.6424-.6424-2.3126-.6424-3.5974v-.7709c0-1.2848 0-2.955.5139-3.4689.257-.257.7709-.3855 1.1563 0 .6427.6424.6427 2.3126.5137 3.4689l.257.7709Zm10.022-.8993h-2.185v-2.6981c0-.6424.386-.8994.514-1.0279h-4.111c.642.257.642.8994.642 1.2848v5.9101c0 .3854 0 1.1563-.642 1.2848h4.24c-.257-.1285-.514-.3854-.514-1.0278v-3.212h2.184v3.3404c0 .6424-.385.8994-.514 1.0279h4.24c-.642-.1285-.642-.8994-.642-1.2848v-6.0386c0-.3854 0-1.1563.642-1.2848h-4.24c.257.1285.514.3855.514 1.0279l-.128 2.6981Zm12.719 4.1113c-.128 0-.257-.1285-.385-.1285-.129-.1285-.257-.3854-.257-.5139v-4.7537c0-1.2848-.386-2.8266-3.212-2.8266-2.827 0-3.726 1.1563-3.726 2.1842-.129.7708.385 1.4132 1.156 1.4132h.257c1.156 0 1.156-.8993 1.156-1.0278 0-.1285 0-.3854-.128-.5139v-.1285c-.129-.257-.257-.3854-.257-.6424 0-.3854.385-.7709.771-.7709h.128c.386 0 1.028.1285 1.028 1.1563v2.1842h-.128c-2.827 1.0278-4.369 2.1842-4.369 3.7259 0 .8994.643 1.6702 1.542 1.6702h.129c.899 0 1.67-.5139 2.184-1.1563l.128-.1285h.386v.1285c.257 1.0279 1.027 1.1563 1.67 1.1563.899 0 1.67-.3854 2.184-1.0278l-.128-.1285c0 .1285 0 .1285-.129.1285Zm-3.597-1.7987c0 .5139 0 1.2848-.771 1.2848s-.771-.5139-.771-1.1563c0-.8994.514-1.6703 1.156-2.0557l.386-.257v2.1842Zm7.708-4.1114v.257c0 3.3405-.128 5.1392-.642 5.5246-.128.1285-.257.1285-.385.1285 0 0-.386 0-.386-.5139v-.257c0-.1284-.128-.2569-.257-.3854-.128-.1285-.385-.257-.642-.257-.386 0-.9.257-.9 1.1563 0 .7709.643 1.2848 1.285 1.2848 2.056 0 2.184-2.4411 2.184-5.7815v-2.5696h2.056v6.6809c0 .5139 0 1.1563-.642 1.2848h4.24c-.643-.1285-.643-.8994-.643-1.2848v-5.9101c0-.3854 0-1.1563.643-1.2848h-6.938c.514 0 1.027.3855 1.027 1.9272Zm21.457 3.8544c-.771 0-1.542 0-2.313.257l-.386.1285V16.955h2.056c3.726 0 4.754 2.1842 5.011 3.5975h.257l-.129-4.4968h-13.105v.1285c1.285 0 1.285 1.7987 1.285 2.5695v12.2056c0 .7709 0 2.5696-1.285 2.5696v.1285h8.865c3.855 0 6.168-1.9272 6.168-5.1392-.129-2.1842-1.799-4.6253-6.424-4.6253Zm-1.414 8.9936c-1.413 0-1.413-1.1563-1.413-1.6702v-6.167h1.028c2.955 0 3.212 3.0835 3.212 4.1113 0 1.6702-.9 3.7259-2.827 3.7259Zm17.473-1.2848v-5.6531c0-1.6702-.385-3.4689-3.982-3.4689-3.598 0-4.626 1.5417-4.626 2.8265 0 .8994.643 1.6702 1.542 1.6702h.129c1.413 0 1.541-1.0278 1.541-1.2848 0-.2569 0-.3854-.128-.6423l-.129-.257c-.128-.257-.257-.5139-.257-.7709 0-.5139.386-.8993.9-1.0278h.128c.514 0 1.285.2569 1.285 1.4133v2.5695l-.257.1285c-3.34 1.1563-5.139 2.6981-5.139 4.4968 0 1.1563.771 2.0557 1.927 2.0557h.129c1.027-.1285 2.055-.6424 2.698-1.4133l.128-.1285h.514v.257c.257 1.1563 1.285 1.4133 2.056 1.4133 1.028 0 2.055-.3855 2.698-1.2848l-.129-.1285c-.385.1285-.899 0-1.028-.3854v-.3855Zm-3.597-1.2848c0 .6424 0 1.5418-.899 1.5418-.643 0-1.028-.5139-1.028-1.2848 0-1.0279.514-2.0557 1.413-2.5696l.514-.3855v2.6981Zm12.72-5.7816v3.212h-2.442v-3.212c0-.7708.386-1.1563.643-1.2848h-4.882c.77.257.77 1.0279.77 1.6703v7.1948c0 .514 0 1.4133-.77 1.6703h4.882c-.257-.1285-.643-.3855-.643-1.2848v-3.9829h2.57v3.9829c0 .7708-.385 1.1563-.642 1.2848h4.882c-.771-.257-.771-1.0279-.771-1.6703v-7.1948c0-.5139 0-1.4133.771-1.6703h-5.011c.257.1285.643.3855.643 1.2848Zm15.032 7.7088-3.212-5.7816 1.156-1.5417c.514-.8994 1.413-1.4133 2.441-1.6703h-4.111c.385.1285.642.514.642.8994 0 .5139-.257 1.1563-.642 1.5417l-1.542 2.1842h-.514v-3.3405c-.128-.5139.129-1.0278.642-1.2848h-5.01c.771.257.771 1.0279.771 1.6703v7.1948c0 .514 0 1.4133-.771 1.6703h5.01c-.513-.257-.642-.7709-.642-1.2848v-3.0835h.514l1.413 2.698c.129.257.257.6424.386 1.0279 0 .2569-.129.5139-.386.6424H190v-.1285c-.642-.3855-.899-.8994-1.156-1.4133ZM20.7923 35.0707s1.6702-.257 4.7537-.514c3.0835-.2569 7.3234-.6424 12.4626-1.1563 5.1391-.5139 11.1777-.7708 17.6017-1.1563 6.424-.3854 13.1049-.6424 19.9143-.8993 6.8094-.257 13.7473-.3855 20.1713-.3855 6.4241 0 12.4621 0 17.6021.1285 5.139.1285 9.507.257 12.462.3854 2.955.1285 4.754.257 4.754.257s-1.67.1285-4.754.257l-12.462.5139-37.7734 1.2848-20.1713.6424-17.6017.5139h-12.334l-4.6253.1285Z"/>
</svg>