<svg xmlns="http://www.w3.org/2000/svg" viewBox="0 0 200 50">
	<path fill="#164194" d="M88.2 8.5h24.6v.9c-1.2 0-2 .2-2.4.5-.4.3-.6 1-.6 2.1v16.1c0 1 .2 1.7.6 2.1.4.4 1.2.5 2.4.5v.9h-11.4v-.9c1.2 0 2-.2 2.4-.5.4-.3.6-1 .6-2.1V10h-7.9v18c0 1 .2 1.7.6 2.1.4.4 1.2.5 2.4.5v.9H88.2v-.9c1.2 0 2-.2 2.4-.5.4-.3.6-1 .6-2.1V12c0-1-.2-1.7-.6-2.1-.4-.4-1.2-.5-2.4-.5v-.9zm34.2 19.6V9.7h-.3c-1.7 0-3.1.5-4.2 1.5-1 1-1.6 2.4-1.8 4.3h-.8v-7h19.6v7h-.8c-.3-3.8-2.3-5.7-6-5.7h-.3v18.3c0 1 .2 1.7.6 2.1.4.4 1.2.5 2.4.5v.9h-11.4v-.9c1.2 0 2-.2 2.4-.5.4-.4.6-1.1.6-2.1zm14.7-19.6H155v7h-.8c-.2-1.7-.8-3-1.8-4s-2.3-1.5-3.8-1.5h-3.1v8.5c.6-.1 1.6-.2 3-.2 3.1 0 5.4.8 6.8 2.3 1.2 1.2 1.7 2.6 1.7 4.4 0 2.2-.7 3.8-2.2 4.9-1.5 1.1-3.9 1.6-7.1 1.6h-10.5v-.9c1.2 0 2-.2 2.4-.5.4-.3.6-1 .6-2.1V12c0-1-.2-1.7-.6-2.1-.4-.4-1.2-.5-2.4-.5l-.1-.9zm8.4 11.6v7.7c0 .6.1 1.1.3 1.4.3.5.8.8 1.6.8 1 0 1.9-.3 2.7-1 1-.9 1.5-2.2 1.5-4 0-1.9-.6-3.3-1.7-4.1-.8-.6-1.9-1-3.2-1l-1.2.2z"/>
	<path fill="#ec6608" d="M67.8 31.4h8.8l1.8-4.7h-6.8c-1 1.8-2.3 3.4-3.8 4.7zM73 22.3zM73.2 19.6v.3c0 .8-.1 1.6-.2 2.4h7l1.8-4.7H73c.2.7.2 1.3.2 2zM68 8.5c1.5 1.3 2.8 2.9 3.7 4.7h11.8l1.8-4.7H68z"/>
	<path fill="#ec6608" d="m53.4 31.4 1.8-4.7h16.3c.7-1.4 1.2-2.9 1.5-4.4H56.9l1.8-4.7H73c-.2-1.6-.7-3.1-1.4-4.4H60.4l1.8-4.7H68C65.5 6.3 62.2 5 58.6 5 50.5 5 44 11.6 44 19.8c0 8.2 6.5 14.8 14.6 14.8 3.5 0 6.6-1.2 9.1-3.3H53.4v.1z"/>
	<path fill="#164194" d="M45.3 37.9h5.4v.1c-.3 0-.4 0-.5.1-.1.1-.1.2-.1.5v3.5c0 .2 0 .4.1.5.1.1.3.1.5.1v.2h-2.5v-.2c.3 0 .4 0 .5-.1.1-.1.1-.2.1-.5v-3.9h-1.7v3.9c0 .2 0 .4.1.5.1.1.3.1.5.1v.2h-2.5v-.2c.3 0 .4 0 .5-.1.1-.1.1-.2.1-.5v-3.5c0-.2 0-.4-.1-.5-.1-.1-.3-.1-.5-.1l.1-.1zm11.2 2.5h.2c.4 0 .6-.1.8-.3.1-.2.2-.5.2-.8 0-.4-.1-.7-.2-.9-.1-.2-.3-.3-.6-.3-.2 0-.3 0-.3.1s-.1.2-.1.4v1.8c0-.1 0 0 0 0zM54.6 38v-.2h2.3c.6 0 1.1.1 1.4.3.4.2.6.6.6 1.1 0 .4-.2.8-.5 1-.3.2-.8.4-1.3.4h-.7v1.5c0 .2 0 .4.1.5.1.1.3.1.5.1v.2h-2.5v-.2c.3 0 .4 0 .5-.1.1-.1.1-.2.1-.5v-3.5c0-.2 0-.4-.1-.5.1 0-.1-.1-.4-.1zm12.2 2.4c0-.8-.1-1.3-.3-1.8-.2-.4-.6-.6-1-.6-.8 0-1.3.8-1.3 2.4 0 .8.1 1.3.3 1.8.2.4.5.6 1 .6.9-.1 1.3-.9 1.3-2.4zm-3.8 0c0-.7.2-1.4.7-1.9.5-.5 1.1-.8 1.8-.8s1.3.2 1.8.7c.5.5.7 1.1.7 1.9 0 .8-.2 1.4-.7 1.9s-1.1.8-1.8.8-1.3-.2-1.8-.8c-.5-.4-.7-1.1-.7-1.8zm8.9-2.5h1.8l1.4 3.5 1.4-3.5h1.9v.1c-.3 0-.4 0-.5.1-.1.1-.1.2-.1.5v3.5c0 .2 0 .4.1.5.1.1.3.1.5.1v.2h-2.5v-.2c.3 0 .4 0 .5-.1.1-.1.1-.2.1-.5v-3.6l-1.8 4.4h-.2l-1.8-4.3v3.5c0 .2 0 .4.1.5.1.1.3.1.5.1v.2h-1.6v-.2c.3 0 .4 0 .5-.1.1-.1.1-.2.1-.5v-3.5c0-.2 0-.4-.1-.5-.1-.1-.3-.1-.5-.1l.2-.1zM84 42.1v-4h-.1c-.4 0-.7.1-.9.3-.2.2-.4.5-.4.9h-.2v-1.5h4.3v1.5h-.2c-.1-.8-.5-1.3-1.3-1.3h-.1v4c0 .2 0 .4.1.5.1.1.3.1.5.1v.2h-2.5v-.2c.3 0 .4 0 .5-.1.3 0 .3-.1.3-.4zm8.5-1.8h.2c.4 0 .6-.1.8-.3.1-.2.2-.5.2-.8 0-.4-.1-.7-.2-.9-.1-.2-.3-.3-.6-.3-.2 0-.3 0-.3.1s-.1.2-.1.4v1.8zM90.6 38v-.2h2.3c.6 0 1.1.1 1.4.3.4.2.6.6.6 1.1 0 .4-.2.8-.5 1-.3.2-.8.4-1.3.4h-.7v1.5c0 .2 0 .4.1.5.1.1.3.1.5.1v.2h-2.5v-.2c.3 0 .4 0 .5-.1.1-.1.1-.2.1-.5v-3.5c0-.2 0-.4-.1-.5.1 0-.1-.1-.4-.1zm9 3.1h1.4l-.7-1.8-.7 1.8zm1-3.4h.2l1.7 4.2c.1.2.2.4.2.5.1.2.3.3.4.3v.2h-2.3v-.2c.4 0 .6-.1.6-.3 0-.1 0-.2-.1-.4l-.2-.6h-1.6l-.2.6c0 .1-.1.2-.1.2v.2c0 .2.2.3.5.3v.2h-1.5v-.2h.2c.1 0 .1-.1.2-.1.1-.1.2-.3.3-.5l1.7-4.4zm8.2 2.7v1.7c0 .2 0 .4.1.5.1.1.3.1.5.1v.2H107v-.2c.3 0 .4 0 .5-.1.1-.1.1-.2.1-.5v-3.5c0-.2 0-.4-.1-.5-.1-.1-.3-.1-.5-.1v-.2h2.5v.2c-.3 0-.4 0-.5.1-.1.1-.1.2-.1.5v1.5h1.7v-1.5c0-.2 0-.4-.1-.5-.1-.1-.3-.1-.5-.1v-.2h2.5v.2c-.3 0-.4 0-.5.1-.1.1-.1.2-.1.5v3.5c0 .2 0 .4.1.5.1.1.3.1.5.1v.2H110v-.2c.3 0 .4 0 .5-.1.1-.1.1-.2.1-.5v-1.7h-1.8zm11.9-2.7v1.7h-.2c-.2-.4-.4-.8-.7-1.1-.3-.3-.6-.4-1-.4-.9 0-1.3.8-1.3 2.4 0 1.5.5 2.2 1.5 2.2.3 0 .6-.1.9-.2.3-.2.5-.4.8-.7l.2.2c-.2.3-.5.6-.9.8-.4.2-.8.3-1.2.3-.7 0-1.3-.2-1.8-.7-.5-.5-.7-1.1-.7-1.9 0-.8.2-1.4.7-1.9.5-.5 1.1-.7 1.8-.7.2 0 .5 0 .7.1.2.1.5.2.7.2.2 0 .3-.1.3-.3h.2zm4.1.2h3.9v1.5h-.2c0-.4-.2-.7-.4-.9-.2-.2-.5-.3-.8-.3h-.7v1.9h.6c.7 0 1.2.2 1.5.5.3.3.4.6.4 1 0 .5-.2.8-.5 1.1-.3.2-.8.4-1.6.4h-2.3v-.2c.3 0 .4 0 .5-.1.1-.1.1-.2.1-.5v-3.5c0-.2 0-.4-.1-.5-.1-.1-.3-.1-.5-.1l.1-.3zm1.8 2.5v1.7c0 .1 0 .2.1.3.1.1.2.2.4.2s.4-.1.6-.2c.2-.2.3-.5.3-.9s-.1-.7-.4-.9c-.2-.1-.4-.2-.7-.2h-.3zm7.6.7h1.4l-.7-1.8-.7 1.8zm1-3.4h.2l1.7 4.2c.1.2.2.4.2.5.1.2.3.3.4.3v.2h-2.3v-.2c.4 0 .6-.1.6-.3 0-.1 0-.2-.1-.4l-.2-.6h-1.6l-.2.5c0 .1-.1.2-.1.2v.2c0 .2.2.3.5.3v.2h-1.5v-.2h.2c.1 0 .1-.1.2-.1.1-.1.2-.3.3-.5l1.7-4.3zm8.3 2.7v1.7c0 .2 0 .4.1.5.1.1.3.1.5.1v.2h-2.5v-.2c.3 0 .4 0 .5-.1.1-.1.1-.2.1-.5v-3.5c0-.2 0-.4-.1-.5-.1-.1-.3-.1-.5-.1v-.2h2.5v.2c-.3 0-.4 0-.5.1-.1.1-.1.2-.1.5v1.5h1.7v-1.5c0-.2 0-.4-.1-.5-.1-.1-.3-.1-.5-.1v-.2h2.5v.2c-.3 0-.4 0-.5.1-.1.1-.1.2-.1.5v3.5c0 .2 0 .4.1.5.1.1.3.1.5.1v.2h-2.5v-.2c.3 0 .4 0 .5-.1.1-.1.1-.2.1-.5v-1.7h-1.7zm9.3-.1 1.5-1.5c.1-.1.2-.2.2-.3 0-.1.1-.1.1-.2s-.2-.2-.6-.2v-.2h2.1v.1h-.1c-.4 0-.9.3-1.4.8l-.8.8 2.1 2.6c.1.1.2.2.3.2.1.1.2.1.3.1v.2h-2.6v-.2h.4c.1 0 .1-.1.1-.2s-.1-.2-.2-.3l-1.3-1.6-.2.2V42c0 .2 0 .4.1.5.1.1.3.1.5.1v.2H151v-.2c.3 0 .4 0 .5-.1.1-.1.1-.2.1-.5v-3.5c0-.2 0-.4-.1-.5-.1-.1-.3-.1-.5-.1v-.2h2.5v.3c-.3 0-.4 0-.5.1-.1.1-.1.2-.1.5l-.1 1.7z"/>
</svg>