<svg xmlns="http://www.w3.org/2000/svg" viewBox="0 0 200 50">
	<path fill="#4D4F53" d="M65.5997 5.86848 55.4734 0v5.97889C47.1287 8.2829 41 15.9231 41 24.9999c0 7.8288 4.5574 14.5923 11.1639 17.7835l1.9722-5.4203c-4.4109-2.3605-7.4129-7.01-7.4129-12.3632 0-5.8771 3.6191-10.9057 8.7495-12.9876l.0007 21.6759L65.5997 5.86848Z"/>
	<path fill="#55ED00" d="m55.8735 44.1311 10.1269 5.8684v-5.9782c8.3428-2.3047 14.4734-9.9449 14.4734-19.0216 0-7.8288-4.5581-14.5924-11.1652-17.7829l-1.9721 5.4196c4.4109 2.3606 7.4128 7.01 7.4128 12.3633 0 5.8763-3.619 10.9063-8.7495 12.9875l-.0007-21.6766-10.1256 27.8205Z"/>
	<path fill="#4D4F53" d="M117.638 20.7676c1.032 0 2.254-.3399 3.154-.7813l1.505 4.1192c-1.613.8769-3.812 1.2597-5.773 1.2597-5.114 0-9.257-4.1445-9.257-9.2578 0-5.1113 4.143-9.25584 9.257-9.25584 1.961 0 3.679.25586 5.443 1.20117l-1.504 4.12107c-.864-.4707-1.791-.7246-2.825-.7246-2.574 0-4.661 2.086-4.661 4.6582 0 2.5742 2.087 4.6602 4.661 4.6602Zm-11.412 23.25c-.155-.4688-.729-2.3457-.884-2.8242h-4.363l-.884 2.8242h-1.9053c.3357-1.0137 1.1335-3.3887 1.9253-5.7461l.708-2.1055 1.209-3.6133h2.392l3.758 11.4649h-1.956Zm-3.006-10.0098h-.069l-1.737 5.8164h3.527l-1.721-5.8164Zm-7.6568-1.4531h-7.2026v11.4648h4.7461c2.4453 0 3.5762-1.6465 3.5762-3.5273 0-1.0137-.3267-1.8203-.9778-2.4219-.6519-.6035-1.6074-.9043-2.866-.9043h-2.5898v-3.291h5.3139v-1.3203Zm-5.3139 10.1426v-4.209l2.1804-.002c.9753 0 2.3147.1778 2.3147 2.0391 0 1.8984-1.3106 2.1719-2.1306 2.1719h-2.3645Zm32.3637-10.127v11.4473h1.873V38.668h1.657c1.686 0 2.052.6738 2.354 1.7558l.984 3.5938h1.872l-1.035-3.9942c-.227-.7929-.586-1.8281-1.956-2.1074 1.036-.3867 1.498-1.4883 1.638-2.1387l.769-3.1914h-1.805l-.752 2.9258c-.162.5547-.416 1.1719-1.022 1.4903-.254.1328-.57.2128-.968.2128h-1.737v-4.6445h-1.872Zm16.624-13.666c-.557-1.8242-2.044-3.0625-3.966-3.3438 1.833-.375 2.86-1.8378 3.369-3.2109.472-1.2637 1.856-5.10741 1.856-5.10741H134.8l-1.42 4.03901c-.578 1.6211-1.106 2.3086-3.172 2.3086v-6.373h-5.743V25h5.743v-7.0527c2.405 0 2.986.1972 3.637 1.8984l.797 2.2598L135.656 25h5.699l-2.118-6.0957Zm10.076-5.3242h3.105c4.561 0 6.872 1.6875 6.871 5.4883 0 3.8515-2.257 5.9316-6.367 5.9316h-9.337V7.2168h14.613v4.2773h-8.885v2.086Zm0 7.1816h2.454c1.031 0 1.803-.4375 1.803-1.7051 0-1.2695-.815-1.5214-1.934-1.5214h-2.323v3.2265ZM99.2571 25V11.8711h-5.1695V25h-5.7231V7.2168h16.6425V25h-5.7499Zm18.1459 12.2812v-4.7109h1.922v11.4473h-1.922v-5.2969h-4.93v5.2969h-1.92V32.5703h1.92v4.7109h4.93Z"/>
</svg>