<svg xmlns="http://www.w3.org/2000/svg" viewBox="0 0 200 50">
	<path fill="#FF8C00" d="M80.4653 41.332c4.3047.9407 8.6233 2.0527 13.2911 7.8958.4146.5185-.2185 1.0381-.6942.6192-4.7503-4.1707-9.0421-5.5152-12.9975-5.5152-4.4033 0-7.403.5828-10.4264.5828-11.398 0-20.6383-9.16-20.6383-20.4584C49 13.16 58.2403 4 69.6383 4c11.3991 0 20.6384 9.1589 20.6384 20.4562.0054 3.7018-1.0051 7.3342-2.9216 10.5013-.061.0997-.2142.0643-.2292-.0503-.7082-5.0268-3.8076-7.7973-8.3169-8.6051-.391-.0707-.4638-.3096.0536-.3535 1.3756-.1178 3.3362-.0975 4.3325.0804.06-.5154.0857-1.0414.0857-1.5728 0-7.4672-6.1077-13.5225-13.6425-13.5225-7.5347 0-13.6424 6.0542-13.6424 13.5225 0 7.4694 6.1077 13.5236 13.6424 13.5236.2143 0 .4286.0021.6407-.0075-.2091-1.207-.2949-2.4322-.256-3.6565.0332-.8249.2024-.9385.5785-.2968 1.8866 3.2248 4.596 6.1635 9.8628 7.313h.001Zm-.3503-5.0192c.5035 0 1.0317.21 1.486.5914.9181.7692 1.1977 1.6841.7113 2.3301-.2699.3536-.7071.5486-1.232.5486-.5143 0-1.0392-.1897-1.4035-.5036-.8356-.7242-1.081-1.8963-.5356-2.5626.2132-.2604.5592-.4039.9738-.4039Zm4.5757-3.3469c.766.2871 1.0671 1.4485 1.1464 1.9841.1349.8967-.15 1.2674-.4372 1.2674-.3128 0-.707-.3632-1.1699-1.0799-.4574-.7071-.6246-1.5213-.3985-1.9306.15-.271.4639-.3899.8592-.241ZM110.81 19.8344c.167-.4874.26-1.0092.26-1.5513 0-2.4812-1.864-4.6196-4.42-4.6196s-4.419 2.1384-4.419 4.6196c0 2.4813 1.863 4.5897 4.419 4.5897.775 0 1.485-.1961 2.1-.5357l-1.661-1.9798c-.039-.0466-.064-.1034-.072-.1637-.007-.0603.002-.1216.028-.1766.026-.055.067-.1015.119-.1338.051-.0324.111-.0493.172-.0488h3.475-.001Zm2.882 2.9291 2.573 2.9215c.181.1972.032.5164-.239.5164h-3.792c-.076.0001-.152-.0166-.221-.0488-.069-.0322-.13-.0792-.179-.1376l-.643-.766c-1.354.8716-2.931 1.3343-4.541 1.3328-4.616 0-8.3714-3.723-8.3714-8.2987s3.7554-8.29858 8.3714-8.29858c4.618 0 8.373 3.72288 8.373 8.29858 0 1.6499-.491 3.1862-1.331 4.4804Zm37.607-12.3976c.229 0 .413.1832.413.4093v15.0159c0 .225-.184.4082-.413.4082h-3.093c-.108.0006-.213-.042-.29-.1183-.077-.0763-.121-.1802-.122-.2888V10.7741c0-.2261.184-.4093.412-.4093h3.094l-.001.0011Zm-29.736 0c.228 0 .412.1832.412.4093v15.0159c0 .225-.184.4082-.412.4082h-3.094c-.109.0006-.213-.042-.29-.1183-.078-.0763-.122-.1802-.122-.2888V10.7741c0-.2261.184-.4093.412-.4093h3.094v.0011Zm24.529 0c.131 0 .257.0632.334.1682.038.0517.063.1118.073.1752.01.0634.004.1283-.016.1891l-5.087 15.0256c-.028.0811-.081.1515-.151.2012-.07.0498-.153.0764-.239.0762h-2.749c-.086.0005-.17-.0258-.24-.0754-.07-.0496-.123-.1198-.151-.201l-2.982-8.7786-2.982 8.7786c-.029.081-.081.1511-.151.2007-.07.0495-.154.076-.239.0757h-2.751c-.085.0002-.169-.0264-.239-.0762-.07-.0497-.123-.1201-.15-.2012l-5.086-15.0246c-.021-.0608-.026-.1256-.016-.189.01-.0634.035-.1235.073-.1752.038-.0525.088-.0951.147-.1246.058-.0294.122-.0447.187-.0447h3.462c.183 0 .341.1179.395.2871l2.739 8.875 3.012-8.8857c.028-.0813.08-.1518.151-.2016.07-.0497.154-.0763.24-.0759h2.417c.176 0 .334.1115.39.2775l3.011 8.8847 2.741-8.875c.026-.0838.079-.1568.15-.2085.07-.0517.156-.0793.244-.0787h3.463v.0011Z"/>
	<path fill="#2D3540" d="M102.013 37.7971c.724 0 1.132-.4135 1.132-1.0606 0-.6567-.429-1.0917-1.152-1.0917h-1.223v2.1534h1.243v-.0011Zm-2.5579-6.052h4.4439v1.1217h-3.128v1.6574h1.446c1.325 0 2.264.8485 2.264 2.2123 0 1.2931-.918 2.1823-2.233 2.1823h-2.7929v-7.1737Zm7.7669 6.3156c.725 0 1.194-.7285 1.194-1.3542v-.1414h-.225c-.652 0-1.753.09-1.753.8185 0 .3428.266.6771.785.6771h-.001Zm.959-2.3752h.225v-.0707c0-.6771-.439-.9096-.979-.9096-.51 0-1.029.2122-1.446.4961l-.48-.9203c.428-.3428 1.264-.6364 2.038-.6364 1.356 0 2.161.7478 2.161 2.0516v3.2226h-1.203v-.4339c0-.2121.031-.3749.031-.3749h-.021c-.315.5464-.938.9299-1.64.9299-.938 0-1.712-.6053-1.712-1.546 0-1.5448 1.874-1.8084 3.026-1.8084Zm2.835-1.9198h1.294v1.9905h2.223v-1.9905h1.294v5.1531h-1.293v-2.0816h-2.223v2.0816h-1.294v-5.1531h-.001Zm6.198 0h1.295v1.9712h.632l1.264-1.9712h1.437l-1.651 2.4555v.0203l1.854 2.6784h-1.497l-1.366-2.0923h-.673v2.0912h-1.296v-5.1531h.001Z"/>
</svg>