<svg xmlns="http://www.w3.org/2000/svg" viewBox="0 0 200 50">
	<path fill="#525455" d="M91.1 21.1V17h9.8v-5H85.7v26.2h12.4l3.8-3.8V25l-4-3.8c0-.1-6.8-.1-6.8-.1zM96.5 33h-5.4v-6.9h5.4V33zM109 11.9l-5.4 26.2h5.3l1.2-6.2h6.9l1.2 6.2h5.4l-5.4-26.2H109zm2 15l2-10h1l2 10h-5zM137.9 22.6h-6.6V11.9h-5.4v26.2h5.4V27.7h6.6v10.4h5.4V11.9h-5.4zM160.2 24.7l4.6-12.8h-5.5l-3.7 10.4h-3V11.9h-5.4v26.2h5.4V27.3h2.9l3.8 10.8h5.7z"/>
	<path fill="#990032" d="M54.1 38.1h5.4V17h6.8v-5.1H54.1zM35 11.9v26.2h5.3v-6.6h6.8l4-3.8v-12l-3.8-3.8H35zm10.7 14.5h-5.4V17h5.4v9.4zM73.4 17H81v-5.1h-9.2L68 15.7v18.6l3.8 3.8H81V33h-7.6z"/>
</svg>