<svg viewBox="0 0 200 50" xmlns="http://www.w3.org/2000/svg">
	<path fill="#E41A19" d="M30.984 11.192H0V38.8h30.984V11.192z"/>
	<path fill="#005177" d="M42.9999 18.36h-5.904v12.328h2.352v-4.712h4.392c2.784 0 4-1.216 4-3.928 0-3.4-2.512-3.68-4.872-3.68l.032-.008zm2.472 3.848c0 1.6-.624 1.872-2.128 1.872h-3.896v-3.824h3.928c1.344 0 2.128.32 2.128 1.944l-.032.008zM93.248 18.36h2.848l-5.04 6.024 5.624 6.304h-2.928L89 25.416h-2.08v5.272h-2.352V18.36h2.352v5.152h2.096l4.232-5.152zm5.976 4.368c.934-.5099 1.994-.743 3.056-.672h.008c3.36 0 4.728 1.232 4.728 4.256 0 3.808-1.816 4.552-4.944 4.552-.914.0245-1.823-.1588-2.656-.536v4.448h-2.272V22.168h2.008l.072.56zm2.856 1.016c-.776-.0563-1.554.0811-2.264.4v-.008c-.0904.0472-.1699.1129-.2333.1929-.0634.0799-.1093.1723-.1347.2711-.0174.3064-.0174.6136 0 .92V28c-.0221.1563.0026.3157.071.4581.0683.1424.1772.2613.313.3419.538.2922 1.14.4435 1.752.44 2.192 0 3.2-.008 3.2-2.56s-.36-2.936-2.704-2.936zm40.488.248h3.344v6.696h2.208v-6.696h3.408v-1.84h-8.96v1.84zM117.96 25.92c.003.315-.032.6293-.104.936l-.032.176h-7.288c.032 1.992.48 2.184 2.68 2.184s2.48-.072 2.48-1.264v-.24h2.192v.24c.057.345.041.6981-.046 1.0368-.086.3388-.242.6558-.458.9312-.968.936-2.808.936-4.168.936-3.872 0-4.928-.896-4.928-4.336 0-3.44 1.152-4.488 4.928-4.488 3.072 0 4.744.624 4.744 3.888zm-2.184-.536c-.048-1.416-.56-1.728-2.568-1.728-1.248 0-1.896.152-2.256.512-.281.3407-.421.7756-.392 1.216h5.216zm18.216 3.296v-6.528h-2.16v8.536h2.936l4.624-6.544v6.544h2.128v-8.536h-3.072l-4.456 6.528zm-12.816-6.528h7.984v6.76h1.168v4.208h-1.952v-2.4h-7.784v2.4h-1.92v-4.208h.8c.888-.032 1.376-.768 1.456-2.168l.248-4.592zm5.84 6.76v-5.016h-3.832l-.24 3.088c-.012.6967-.244 1.3717-.664 1.928h4.736zm58.816-3.384h-4.536v-3.36h-2.192v8.52h2.192v-3.584h4.536v3.584h2.176v-8.52h-2.176v3.36zm-27.568-2.4h2.672c3.12 0 5.816.024 5.816 3.792s-3.512 3.768-5.832 3.768h-5.008V18.36h9.816v1.904h-7.464v2.864zm-.016 5.736h4v-.032c1.472 0 2.096-.576 2.096-1.944 0-1.616-.648-1.888-2.096-1.888h-4v3.864zm14.144-6.824c-1.016 0-4.112 0-4.112 2.08v.8h2.192v-.232c-.039-.2502.021-.5058.168-.712.546-.2753 1.163-.3759 1.768-.288 1.992 0 2.568.28 2.568 1.264v.336h-3.608c-1.512 0-3.52.288-3.52 2.752s2.512 2.832 4.4 2.832c1.012.0405 2.014-.2182 2.88-.744l.072.56h2.008V25.8c0-2.808-.232-3.776-4.8-3.776l-.016.016zm2.6 5.464c0 .848 0 .944-.384 1.192-.73.347-1.537.5039-2.344.456-1.6 0-2.144-.184-2.144-1.2s.568-1.12 2.192-1.12h2.68v.672zm24.152-5.336l-3.912 4.12 4.768 4.4h-2.912l-3.84-3.576h-1.216v3.576h-2.12v-8.52h2.12v3.36h1.28l3.048-3.36h2.784zM59.0849 25.6548c-.0884-.3005-.1145-.6158-.0769-.9268H59c0-2.576 2.3681-2.576 4.0961-2.576h4.56v8.536h-2.16v-3.36H63.648c-.712.872-2.7599 3.272-2.7599 3.272l-.0881.088h-2.4479l.3199-.392c.0036-.0035.0794-.0963.206-.2512l.0037-.0046.0005-.0006.0003-.0003.0004-.0005c.4458-.5457 1.5048-1.842 2.2612-2.7348-.3126-.0205-.6176-.1046-.8965-.247-.279-.1425-.5259-.3403-.7258-.5813-.2-.2411-.3486-.5205-.4369-.8209zm6.4112-1.8388H62.632c-1.096 0-1.3919.336-1.3919 1.008 0 .672.16.912 1.056.912h3.2v-1.92zM52.7523 22.04c-3.7459.0015-4.9523 1.1063-4.9523 4.544 0 3.44 1.112 4.28 4.96 4.28s4.84-.888 4.92-4.096v-.24c0-3.4775-1.1024-4.4866-4.9277-4.488zm-.0083 7.2c-2.3999 0-2.576-.176-2.576-2.704s.232-2.816 2.592-2.816 2.576.208 2.576 2.808c0 2.6-.136 2.704-2.576 2.704l-.016.008zM69.6001 29c.7999 0 1.0879-.464 1.168-1.784l.2559-5.064h7.984v8.472H76.8V23.88h-3.64l-.208 3.528c-.12 2.072-1.0879 3.264-2.6879 3.264-.4145.0033-.8288-.0208-1.2401-.072H68.8l.16-1.6h.6401z"/>
	<path fill="#fff" d="M21.2399 13.992c-.1421.1992-.3149.3747-.512.52-.1969-.1454-.3697-.3208-.512-.52.1423-.1992.3151-.3747.512-.52.197.1453.3698.3208.512.52zm-.1599 1.352v.968h-.584v-.984c-.328-.08-.72-.136-.72.072.03.3382.1397.6644.32.952-.0866.0161-.1681.0398-.246.0625-.1163.0339-.2246.0655-.33.0655-.277-.3824-.463-.8229-.544-1.288.032-.712 1.136-.496 1.512-.392l.312.08.312-.08c.368-.104 1.504-.312 1.504.4-.0731.4671-.2539.9108-.528 1.296-.0635-.0115-.1301-.0314-.1995-.0521-.1229-.0366-.2544-.0759-.3925-.0759.1799-.2878.2896-.6139.32-.952-.032-.208-.4-.16-.736-.072zm.896 1.4c-.3853-.0972-.7792-.1562-1.176-.176-.4045.0169-.8064.0732-1.2.168l.184.64c.3315-.0883.6729-.134 1.016-.136.3473.0031.6923.057 1.024.16l.152-.656zm-4.84 18.704h-2.072l.008-.024v-.432l-.392.416v-.568c-.0011-.0998.0261-.1979.0785-.2828.0524-.085.1278-.1534.2175-.1972.1674-.02.3366-.02.504 0 .3062-.0417.5938-.1711.8281-.3727.2342-.2016.4051-.4667.4919-.7633-.4493-.7773-.7377-1.637-.848-2.528 0-1.232.8-2.224 2.664-2.224.6689.0364 1.3253.1964 1.936.472 0 0-2.4 2.456-2.4 3.256.1889.3863.3287.7949.416 1.216-.4034.7266-.8834 1.4078-1.432 2.032zm9.904-11.936l-.128-.2c.2124-.1255.4519-.1983.6983-.2122.2463-.0139.4924.0314.7177.1322-.616-1.224-2.12-.872-2.168.224-.2408.1548-.4369.3698-.5689.6239-.1319.254-.195.5381-.1831.8241 0 .777.5339 1.9999.9655 2.9883.2928.6706.5385 1.2332.5385 1.4757.0159.0919.0108.1863-.015.2759-.0258.0896-.0717.1722-.1341.2416-.0624.0693-.1397.1236-.2261.1587-.0865.0351-.1797.0501-.2728.0438-.328 0-.656-.232-1.176-.928-.6057-.878-1.3809-1.626-2.28-2.2l-1.528-1.072 2.144-1.6.16.8c.3578-.5056.5975-1.0851.7013-1.6957.1039-.6106.0692-1.2368-.1013-1.8323 0-.0458-.0292-.1337-.0586-.2226-.0169-.0507-.0338-.1017-.0454-.1454l.552.208v-.28c-.376-1.944-1.8-3.464-3.76-3.464-.5431-.0111-1.0841.0701-1.6.24l.088.448c-.216.104-1.464.624-1.464.624-.0062.4575.1659.8994.48 1.232.3676.0636.7447.0444 1.104-.056.0565.0728.0916.1599.1013.2515.0098.0916-.0062.1842-.046.2672-.0399.0831-.1021.1534-.1797.2031-.0776.0497-.1675.0768-.2596.0782h-.56c-.0122.1138.0076.2287.057.3318.0495.1031.1267.1905.223.2522.3948.0157.7902.0077 1.184-.024.1462.008.292-.0225.4228-.0882.1308-.0658.2422-.1646.323-.2867.0809-.1221.1284-.2632.1379-.4093.0095-.1462-.0193-.2922-.0837-.4238-.0284-.1407-.0798-.2759-.152-.4.1389.0892.2576.2064.3486.3442.0909.1378.152.293.1794.4558.0473.1329.0632.275.0463.4151-.0169.14-.066.2742-.1436.3921-.0775.1179-.1813.2161-.3033.2871-.1219.0709-.2586.1126-.3994.1217-.3638.0691-.539.0903-.7031.1101-.1969.0238-.3778.0456-.8489.1459-.4387.1113-.8418.3329-1.1708.6438-.329.3108-.5731.7005-.7092 1.1322l-1.144.44-.528.2c-.5368.1589-1.0546.3762-1.544.648-.3114.2456-.5243.5948-.6.984-.0597.1249-.0906.2616-.0906.4 0 .1385.0309.2751.0906.4.2996.2146.6642.3192 1.032.296l-.408-.4.528-.064c.2009-.1589.3465-.3773.416-.624l.8.104c.547.0813 1.1057-.0081 1.6-.256.2474.5004.6298.9216 1.104 1.216l.432.264c1.168.592 3.64 1.512 3.64 1.512-.0017.0492-.0184.0967-.048.136-.7248.6887-1.1525 1.633-1.192 2.632 0 1.32 2.104 1.312 2.104 1.312h.56c-.112.512-.496 1.224-.92 1.224-.1941-.0212-.3899-.0212-.584 0-.0855.0455-.1568.1136-.2062.1968-.0493.0832-.0749.1784-.0738.2752v.544l.384-.408v.408h2.12l.152-.32c.4486-.765.7955-1.5852 1.032-2.44 0-.3904-1.6206-.7526-1.8134-.7957-.0126-.0028-.0191-.0043-.0186-.0043.2487-.8114.4491-1.6368.6-2.472.728.992 1.392 1.368 1.872 1.368.3205.0022.6291-.1214.8595-.3443.2304-.2229.3641-.5272.3725-.8477 0-.435-.1812-.859-.4982-1.601-.1493-.3496-.3289-.7698-.5338-1.295l-.058-.1502c-.4157-1.0757-.7558-1.9555-.014-2.5138l.032.112c.1342.1099.2963.1804.4682.2035.1719.0232.3469-.0019.5054-.0725.1585-.0705.2942-.1837.3921-.3269.0979-.1432.1541-.3108.1623-.4841-.2999-.07-.6149-.0303-.888.112zm-7.432-5.064c.3309-.0451.6679-.0009.976.128-.696.448-1.064.352-.976-.128zM16.152 20.2l.312.392 1.224 1.592c-.5618.2974-1.2102.388-1.832.256-.968-.256-1.152-1.6-1.152-1.6l-.096-.752c-.2325.0224-.4664-.0249-.672-.136l-.192-.44-.232.456c-.1137-.3127-.1137-.6554 0-.968.0882-.0876.1956-.1534.3136-.1923.118-.0389.2435-.0498.3664-.0317.3559-.0387.7138.0522 1.008.256.3592.3533.6784.745.952 1.168z"/>
</svg>
