<svg viewBox="0 0 200 50" xmlns="http://www.w3.org/2000/svg">
	<path fill="#595959" d="M105.966 33.1772h6.792c1.205.0055 2.376-.4053 3.314-1.1631.938-.7578 1.585-1.816 1.833-2.996.088-.5051.088-1.0216 0-1.5267-.096-.4056-.283-.7839-.548-1.1058-.265-.3245-.599-.5854-.978-.7634l-.372-.1566h-.147c.081-.0683.17-.1274.264-.1761.829-.4477 1.51-1.128 1.957-1.9573.275-.4974.42-1.0562.421-1.6245.01-.2574-.02-.5148-.088-.7633-.059-.2035-.131-.4029-.215-.597-.222-.4727-.562-.8803-.987-1.1836-.425-.3034-.921-.4923-1.44-.5486h-6.978l-2.828 14.562Zm8.651-12.8004c.979.0587 1.468.3131 1.722.8612.146.3047.21.6418.186.9786-.014.5053-.183.9942-.484 1.4003-.301.4061-.719.7098-1.199.8701-1.741.1969-3.494.2623-5.245.1957 0-.0489.832-4.3255.832-4.3353 0-.0098 3.161-.0391 4.188.0294Zm-.577 6.1751c.341.0366.673.1361.978.2936.298.1752.542.4292.705.734.156.3012.224.6405.196.9786-.022.5093-.173 1.0045-.441 1.4386-.27.4334-.643.7931-1.086 1.0471-.571.2838-1.203.4216-1.84.4013-.626 0-4.227.0489-4.227 0 0-.049.978-4.8932.978-4.9519 0-.0587.871 0 2.29 0 .826-.0245 1.652-.0049 2.476.0587h-.029Zm26.951 6.6547h1.83l.803-4.1592 1.487-1.2233 2.496 5.3825h2.231l-3.171-6.6253 4.786-3.9145h-2.32l-5.079 4.1885 1.547-8.2401H143.8l-2.809 14.5914Zm-16.089-10.7649c-.551.0394-1.098.1279-1.634.2642-1.052.2584-1.974.8916-2.593 1.7811-.218.3497-.408.7162-.568 1.0961 0 .0489 0 .0489.842.1566.256.0285.511.071.763.1272 0 0 .098 0 .215-.2349.262-.6025.712-1.1038 1.282-1.4288.956-.3882 2.014-.4434 3.005-.1566.187.0592.36.1557.509.2838.145.1354.261.2985.342.4796.108.4271.108.8744 0 1.3015l-.068.3328-.343.0978c-.965.2375-1.946.4076-2.936.5089-.694.0676-1.382.1953-2.055.3817-.641.1905-1.23.5253-1.722.9786-.336.3122-.612.6838-.812 1.0961-.2.3953-.31.8296-.323 1.2722-.029.438.056.8759.244 1.2722.183.3388.449.6252.773.8319.324.2014.688.3284 1.067.3718.586.0912 1.18.1142 1.771.0685 1.17-.1396 2.283-.5814 3.23-1.282l.274-.1957v.3327c-.018.2894.008.5799.078.8612v.1175h.979c.326.0204.653.0204.978 0-.005-.0792-.029-.1562-.068-.2251-.099-.3167-.149-.6468-.147-.9786.127-1.4071.352-2.8035.675-4.1788.509-2.6325.539-2.9359.5-3.3958-.012-.2802-.085-.5543-.216-.8025-.134-.2469-.325-.4582-.558-.6165-1.048-.5314-2.226-.7521-3.395-.6362l-.089.1175Zm1.831 5.5782c0 .0783-.206.9786-.274 1.2624-.118.5012-.353.9673-.686 1.3603-.333.3925-.747.7094-1.213.9297-.613.2879-1.28.4414-1.957.4502-.273.0263-.548.0031-.813-.0685-.266-.08-.511-.2207-.714-.4111-.18-.1862-.278-.4361-.274-.6948-.006-.3446.085-.684.264-.9786.183-.3092.456-.5551.783-.7046.623-.2648 1.283-.4299 1.957-.4894.926-.1084 1.84-.3017 2.731-.5773.117-.1077.137-.1077.137-.0588l.059-.0195Zm9.845-5.5782c-1.114.0899-2.157.5801-2.936 1.3798-.216.1958-.265.2545-.265.186s.265-1.3016.265-1.3016h-1.654l-1.957 10.5692h1.839s1.155-5.9892 1.214-6.273c.148-.8868.598-1.6954 1.272-2.29.448-.3679.99-.6017 1.565-.6744.575-.0727 1.159.0186 1.684.2634.244.1656.431.401.538.6752.117.268.147.5653.088.8514 0 .4306-1.37 7.4474-1.37 7.4474h1.85s1.37-7.1831 1.439-7.4082c.097-.435.097-.8862 0-1.3212-.086-.4381-.266-.8523-.529-1.2135-.196-.2129-.432-.3857-.695-.5089-.727-.3259-1.526-.4574-2.319-.3816h-.029ZM55.3513 42.6308c-.4555-.0014-.8989.1464-1.2625.4208-.356.2812-.6131.6686-.7339 1.1059-.0696.2503-.0488.517.0587.7535.1047.2369.2878.4305.5187.5481.3623.1707.7432.2988 1.1352.3816.9786.2545 1.2232.3817 1.3211.7144.0177.1631-.0058.328-.0685.4795-.0604.1522-.1579.2868-.2838.3915-.2997.2007-.6454.3221-1.0049.3529-.3594.0309-.7207-.03-1.0502-.1768-.171-.0748-.317-.1971-.4208-.3523-.0967-.1624-.1443-.3493-.137-.5382 0-.2349 0-.2349-.0783-.2251-.1199.0196-.2422.0196-.3621 0h-.2642v.0979c-.0489.2092-.0489.4269 0 .6361.0672.2922.2247.5558.4501.7535.2217.2013.4971.3339.7927.3817.5051.0881 1.0216.0881 1.5267 0 .4757-.1004.9114-.3387 1.2526-.685.1553-.1557.2813-.338.3719-.5383.083-.205.1229-.4248.1174-.6459.0104-.2768-.08-.548-.2544-.7633-.2838-.2936-.548-.411-1.5267-.6655-.9786-.2544-1.1352-.3327-1.233-.5284-.0538-.152-.0538-.3178 0-.4698.0384-.1527.1282-.2875.2544-.3817.1731-.1417.3741-.2454.5899-.3045.2158-.059.4416-.0719.6627-.038.7634 0 .9787.2545 1.0668.8416v.2153h.7241v-.225c.0196-1.0863-.7927-1.6833-2.1334-1.5659l-.0293.0294Zm23.2424.1174s-.137.6949-.137.7634.1468 0 .3621 0h.3621l.0685-.3817c.011-.1363.0372-.2708.0783-.4012-.1199-.0196-.2422-.0196-.3621 0h-.3719v.0195Zm7.2712 0s-.2446 1.2723-.5186 2.7989c-.274 1.5267-.5285 2.7891-.5285 2.7989 0 .0098 2.7304 0 2.9359 0 .268-.0582.5254-.1573.7633-.2936.4054-.2719.7031-.6769.8417-1.145.1052-.3177.1052-.6609 0-.9786-.1203-.2102-.2965-.3829-.5089-.4991h-.1762l.1664-.0979c.3711-.2155.6446-.5661.7633-.9786.1068-.3208.0893-.6701-.0489-.9786-.073-.1693-.1874-.3173-.3328-.4306-.1495-.1141-.3238-.1912-.5088-.2251-.5065-.0605-1.0174-.0769-1.5267-.0489l-1.3212.0782Zm2.5836.7634c.0834.0302.16.0768.2251.137.0657.0571.119.127.1566.2055.0102.0812.0102.1634 0 .2447-.0174.2291-.1103.4459-.2642.6165-.1596.1702-.3748.2778-.6068.3034h-1.7028l.2055-.8025c.0881-.46.1664-.8123.1664-.8416h.871c.3277.0095.6545.0389.9786.088l-.0294.049Zm-.4893 2.2998c.1028.0016.2037.0284.2936.0782.0951.0465.1762.1174.2349.2056.066.0858.1097.1867.1272.2935.0245.0997.0245.2038 0 .3034-.0268.1623-.0904.3163-.1859.4502-.0928.1318-.213.242-.3523.3229-.2936.1664-.4306.1762-1.4288.1762h-.92v-.0685s.0783-.4502.186-.8906c.1076-.4403.1566-.8514.1566-.8709.6514-.0515 1.3058-.0515 1.9572 0h-.0685Zm10.6964-3.0142c-.029.2338-.0715.4658-.1272.6948.1189.0294.2432.0294.3621 0h.3523l.0783-.3523c.0109-.1331.0372-.2644.0783-.3915 0-.0587 0-.0587-.3425-.0587s-.3915 0-.3915.0881l-.0098.0196Zm19.2884 0-1.027 5.5194h.783l1.076-5.5977-.832.0783Zm-58.8446.2838-.3621.2055-.0783.4599c0 .2741-.0978.4894-.0978.4991 0 .0098-.1077 0-.2643 0h-.2446v.1958c-.0104.0955-.0267.1903-.0489.2838 0 .0587 0 .0685.2446.0881h.274l-.2446 1.2037c-.1273.6654-.2545 1.3701-.274 1.5266v.4893c.0216.0555.0545.1059.0966.148.0421.0421.0925.0751.148.0967.1664.0881.2055.0881.5285.0881h.548v-.6263h-.2153c-.2349 0-.3327 0-.4012-.1566s0-.186.2153-1.4092l.2642-1.3506h.7046v-.2348c.0115-.0961.0311-.1911.0587-.2838h-.3523c-.3523 0-.3425 0-.3425-.0685s.0685-.3132.1272-.6361c.0346-.2111.0803-.4202.137-.6264.006-.0104.0092-.0222.0092-.0342s-.0032-.0239-.0092-.0343c-.1426.0453-.2778.1112-.4012.1958l-.0196-.0196Zm8.8762.2055-.1957.9786h-.4796l-.1076.5481h.4893s-.1174.6165-.2447 1.3211c-.1298.5166-.2117 1.044-.2446 1.5756 0 .3034 0 .3132.0783.4208.1293.1199.2868.2052.4579.2479.1711.0428.3502.0417.5207-.0032.1468 0 .274 0 .274-.049v-.6459h-.1859c-.3132 0-.46-.0489-.46-.2544 0 0 .1175-.6655.2447-1.3407.1272-.6753.2446-1.2722.2446-1.2722h.6949l.137-.5481h-.6948l.2348-1.419-.7633.4404Zm72.0374-.2055c-.196.0978-.382.2153-.382.2544 0 .0392 0 .2447-.098.5089l-.078.4502h-.206c-.274 0-.264 0-.313.2838-.049.2838-.068.2642.215.2642h.245s-.117.5872-.245 1.2918c-.264 1.3701-.313 1.7811-.235 1.9573.038.0696.09.1307.152.1795.062.0488.134.0843.211.1043.253.0391.51.0391.763 0h.176v-.5774c0-.0587 0-.0685-.157-.049-.313 0-.459-.0587-.459-.2642s.411-2.3487.411-2.6423c0-.0587 0-.0587.362-.0587h.342v-.548H140.022s.059-.3132.118-.6655c.127-.6655.127-.7144.098-.7144-.08.0701-.155.1453-.225.2251Zm-78.1049 1.1156c-.1551.0693-.2923.173-.4013.3034l-.225.2349v-.2741l.0587-.2642h-.3328c-.3131 0-.3229 0-.3425.0685-.0195.0685-.1859.9297-.3816 1.9573-.1958 1.0275-.3719 1.9572-.3719 1.9572s0 .0588.3425.0588h.3719c.0098 0 .0978-.5383.2153-1.1157.0685-.5756.2065-1.1408.411-1.6832.0815-.2112.2337-.3876.4306-.4991.112-.0575.2362-.0876.3621-.0876.1259 0 .2501.0301.3621.0876l.1468.0685.1859-.3425c.186-.3426.186-.3426-.0587-.46-.2658-.0733-.5465-.0733-.8123 0l.0392-.0098Zm2.6031 0c-.4186.0611-.8045.261-1.096.5676-.1686.1861-.3013.4018-.3915.6361.1976.0571.4013.09.6068.0979.0685 0 .0978 0 .1468-.1468.0809-.1672.2019-.3118.3523-.4208.1594-.102.3403-.1657.5284-.1859.3061-.0577.6226-.0021.8906.1565.0386.039.0686.0857.0881.137.0488.1561.0488.3235 0 .4796v.2153h-.0979c-.3648.085-.734.1503-1.1058.1957-.3132.0489-.6655.0979-.7634.1272-.2245.0569-.4345.1602-.6165.3034-.1849.1406-.3354.3213-.4404.5284-.0987.1646-.1368.3584-.1077.5481 0 .3327 0 .3523.1077.4991.1202.1765.2907.3129.4893.3914.1985.08.4143.107.6263.0783.5141.0207 1.0204-.1308 1.4386-.4306l.137-.0783v.4208c.1321.0296.2692.0296.4013 0h.3621v-.0782c-.0881-.3719-.0588-.6068.2153-2.0454.1957-1.0373.2055-1.3211.0978-1.5364-.0881-.1289-.2013-.2387-.3327-.323-.1315-.0806-.278-.1339-.4306-.1566-.3696-.0295-.7415-.0098-1.1059.0588v-.0392Zm1.057 2.2215c-.0511.2609-.1264.5165-.2251.7633-.0683.1053-.1506.2008-.2447.2838-.291.258-.6681.3977-1.0569.3915-.3915 0-.5872-.0979-.6948-.3425-.0257-.0465-.0392-.0986-.0392-.1517 0-.0531.0135-.1053.0392-.1517.0265-.1252.0875-.2405.1761-.3327.1762-.2055.3523-.2741 1.0569-.3915.2775-.0366.5522-.0922.8221-.1664.1957 0 .1859 0 .1664.0783v.0196Zm5.4411-2.2215c-.5211.1379-.9821.4441-1.3113.871-.3436.4907-.5467 1.066-.5872 1.6637-.0631.3645.0137.7393.2152 1.0496.2014.3103.5125.5331.8711.6238.3974.0784.8063.0784 1.2037 0 .4366-.1272.8186-.3957 1.0863-.7633.1327-.1507.2327-.3273.2936-.5187-.239-.0509-.4808-.0868-.7242-.1076-.0305.0649-.0665.1272-.1077.1859-.1463.2328-.3525.4221-.5969.548-.1576.0779-.3343.1085-.5089.0881-.3132 0-.3425 0-.4893-.0978-.0892-.0474-.1715-.1067-.2447-.1762-.0669-.0785-.1199-.1678-.1566-.2642-.0895-.22-.1165-.4605-.0783-.6949v-.0782h1.5267c1.419 0 1.5267 0 1.5267-.0588.0684-.2484.0981-.5058.088-.7633.0561-.3022.0058-.6145-.1422-.8839-.1481-.2694-.3848-.4792-.67-.5938-.1943-.0696-.4012-.0963-.6068-.0783-.1933-.0437-.3939-.0437-.5872 0v.0489Zm.8221.6361c.159.0728.2922.1923.3817.3425.0845.1559.1251.3318.1174.5089v.1958h-2.2998v-.0588c.1372-.3875.4078-.7135.7633-.9199.155-.0929.329-.1498.5089-.1663.1798-.0132.3603.0135.5285.0783v.0195Zm3.3861-.6361c-.3135.0806-.6045.2312-.8515.4404-.2456.2095-.4426.47-.5773.7633-.5774 1.145-.4013 2.4466.411 2.8087.2856.1263.6018.1671.9101.1174.3118-.0398.6065-.1651.8514-.3621.1272-.1076.1468-.1076.1272-.0489-.0396.1146-.0691.2325-.088.3523-.0305.233-.1179.4548-.2545.6459-.142.1689-.3234.3001-.5283.3821-.2048.0819-.4268.112-.646.0877-.4404 0-.6851-.2251-.6851-.5187v-.137l-.3425-.049h-.3523c-.0198.087-.0198.1773 0 .2643-.0236.1324-.0066.2689.0489.3914.0483.1266.1293.2381.2349.323.1741.1361.3738.2359.5872.2936.2168.039.4388.039.6557 0 .2345.0275.4719.0209.7046-.0196.2422-.0918.4638-.2307.652-.4088.1881-.1781.3391-.3917.444-.6286.3141-.8597.5275-1.753.6361-2.6618.186-.9787.3523-1.8594.3523-1.8986 0-.0391 0-.0685-.3131-.0685-.3132 0-.3425 0-.3915.2153-.0489.2153 0 .2153-.2348 0-.1086-.1006-.2368-.1777-.3766-.2266-.1397-.0488-.2881-.0683-.4357-.0572-.1786-.0248-.3597-.0248-.5382 0Zm.7633.6459c.0932.045.1764.1082.2446.186.0667.0822.1196.1748.1566.274.0686.1534.089.324.0587.4893-.01.3956-.0999.785-.2642 1.145-.152.2922-.3824.5362-.6655.7046-.1509.0873-.3255.125-.4991.1076-.1468.0099-.294-.0135-.4306-.0685-.1859-.1166-.3272-.2924-.4012-.4991-.0635-.2072-.0635-.4288 0-.6361.019-.4986.2091-.9755.5383-1.3505.143-.1998.3501-.3448.5869-.4106.2367-.0659.4889-.0488.7146.0485l-.0391.0098Zm5.2259-.6459c-.3647.0822-.7019.2575-.9787.5089-.5138.5262-.8167 1.2226-.8514 1.9573-.1076 1.1058.3817 1.7224 1.3701 1.7909.4146.019.8258-.0828 1.1837-.293s.647-.5198.8323-.8912c.1761-.3719.1761-.3425-.137-.3817-.3132-.0391-.411-.0685-.5285.1762-.0812.2159-.2241.4031-.411.5382-.1843.1324-.4004.2134-.6263.2349-.2146.0231-.4302-.0326-.6068-.1566-.3816-.2446-.4404-.8514-.2251-1.6441.0391-.2306.1257-.4506.2545-.6459.1374-.1882.3103-.3477.5089-.4697.175-.1194.3858-.1747.5969-.1566.21.017.4074.107.5578.2545.1035.147.1644.3197.1762.4991 0 .0685 0 .0685.0979.0489l.3621-.0489h.2642v-.186c-.0028-.2294-.0782-.4521-.2153-.6361-.139-.1872-.3294-.33-.548-.411-.3331-.0991-.6834-.1258-1.0276-.0783l-.0489-.0098Zm14.3565 0c-.2563.0402-.5004.1372-.7144.2838-.2085.1476-.3794.342-.4991.5676-.1151.255-.1392.5417-.0685.8123.1272.3425.3914.4893 1.3798.7731.6753.1762.7634.2642.7634.4893-.0166.1562-.0816.3034-.186.4208-.1046.115-.2407.1967-.3914.2349-.3507.0871-.7214.0382-1.0374-.137-.0726-.0706-.1323-.1534-.1761-.2447-.0441-.0921-.0707-.1917-.0783-.2936v-.1076h-.1077l-.3816.0489h-.2643v.2153c-.0067.1499.0166.2997.0685.4404.0546.1426.1379.2725.2447.3817.1067.1076.2329.194.3719.2544.1392.0592.2891.0892.4404.0881.4788.1109.9819.0375 1.4092-.2055.423-.2484.7373-.6465.8808-1.1157.039-.1242.039-.2574 0-.3816-.0288-.1244-.0896-.239-.1762-.3328-.1664-.1761-.3817-.2838-1.1646-.5088-.6263-.186-.7633-.2545-.8612-.3523-.0978-.0979 0-.4013.186-.5677.1823-.1142.3916-.1784.6067-.1859.2154-.015.4311.0254.6264.1174.067.0426.1238.0994.1663.1664.0405.0692.0671.1457.0783.2251v.1566h.6753c.039-.1707.039-.348 0-.5187-.137-.4306-.6068-.6655-1.3505-.6459-.1401-.0101-.2808-.0101-.4209 0l-.0195-.0783Zm5.8718 0c-.279.0912-.538.234-.763.4208l-.157.1468v-.1957c.059-.3523.098-.3327-.284-.3327-.3814 0-.3129 0-.3325.0587l-.3719 1.9572c-.1957 1.057-.3816 1.9573-.3816 1.9573s0 .0587.3523.0587.3621 0 .3718-.0587c.0098-.0587.1175-.5676.2349-1.2037.117-.6361.245-1.2135.284-1.3309.052-.2521.182-.4813.372-.6557.192-.1697.431-.2786.685-.3132.129-.0488.272-.0488.401 0 .093.0244.179.0677.254.1272.072.0606.131.1335.177.2153.012.6596-.08 1.317-.274 1.9475-.137.7046-.255 1.282-.255 1.3016h.773l.304-1.419c.152-.5798.247-1.173.283-1.7714 0-.3327 0-.3816-.088-.5088-.109-.181-.274-.3218-.469-.4013-.359-.0676-.728-.0676-1.087 0h-.029Zm3.914 0c-.452.1019-.862.3411-1.174.6851-.341.3911-.568.8684-.656 1.3798-.254 1.3016.245 2.0845 1.39 2.1726.426.0417.855-.0434 1.233-.2447.376-.1997.688-.5016.9-.871.037-.0665.07-.1351.098-.2055-.104-.0141-.209-.0141-.313 0-.12.0106-.241.0106-.362 0 0 0-.088 0-.127.137-.156.2427-.372.4415-.626.5774-.147.0806-.314.1147-.48.0979-.134.0386-.277.0386-.411 0-.136-.0403-.258-.1183-.352-.2251-.105-.096-.186-.2148-.237-.3472-.051-.1325-.07-.2749-.057-.4161v-.2838h3.053v-.1762c.049-.3243.049-.6542 0-.9786-.036-.2769-.155-.5362-.342-.7438-.195-.1997-.443-.339-.714-.4012-.279-.049-.564-.049-.842 0l.019-.1566Zm.823.6459c.169.0906.303.2353.381.411.06.1728.087.3555.078.5383v.0881h-1.125c-.371.0293-.744.0293-1.116 0l.098-.2643c.098-.1952.238-.3658.411-.4991.172-.1298.369-.2231.578-.274.23-.0685.474-.0685.704 0h-.009Zm3.053-.6459c-.253.0378-.492.1388-.695.2936-.203.1571-.365.3622-.47.597-.069.1391-.097.2957-.078.4501-.029.1123-.029.2303 0 .3426.041.1117.112.2099.205.2838.31.2176.664.3615 1.038.4208l.714.2251c.284.137.304.411.059.6948-.088.091-.191.1671-.303.2251-.157.088-.196.088-.568.088-.179.0214-.361-.0021-.528-.0685-.117-.061-.215-.1523-.284-.2642-.067-.112-.098-.2418-.088-.3719v-.1174h-.754v.2349c-.013.1341.003.2694.045.3974.042.128.11.2459.2.3463.157.1887.375.3167.616.3621.416.0588.837.0588 1.253 0 .38-.0573.727-.2481.979-.5382.234-.2738.368-.6187.381-.9787-.011-.1204-.048-.237-.107-.3425-.065-.1032-.152-.1902-.255-.2544-.373-.1793-.763-.3203-1.164-.4208-.411-.1175-.597-.2055-.646-.3425-.108-.2936.176-.597.675-.6753.499-.0783.979.0979.979.4991 0 .1468 0 .1468.117.137h.626c.009-.214-.027-.4276-.107-.6263-.091-.1267-.204-.2361-.333-.323-.132-.0806-.278-.1339-.431-.1565-.347-.0441-.699-.0441-1.047 0l-.029-.1175Zm3.826 0c-.377.0521-.723.2358-.978.5187-.101.1012-.18.2208-.235.3523-.051.1312-.077.2704-.079.411-.03.1558.001.3174.089.4502.146.2838.362.4012 1.096.597.346.0524.678.1721.978.3523.235.2446-.068.7633-.538.8612-.318.1012-.66.1012-.979 0-.1-.0468-.185-.1216-.244-.2153-.062-.0895-.096-.1949-.098-.3034v-.2251c-.126.0027-.25.0191-.372.0489h-.362v.1958c0 .148.03.2944.088.4306.053.1379.133.2642.235.3718.105.1023.228.1852.362.2447.139.0592.289.0891.44.0881.478.1059.978.029 1.402-.2155.424-.2446.741-.6391.888-1.1057.059-.1958.038-.4069-.058-.5872-.091-.1822-.249-.3224-.441-.3914-.098-.0489-.479-.1664-.851-.2838-.773-.2447-.91-.2936-.91-.548 0-.2545.215-.4111.479-.4991.252-.054.512-.054.764 0 .128.0109.249.0662.342.1565.09.0979.148.2208.166.3523v.137h.343c.112-.0296.227-.0493.342-.0587v-.1859c0-.5089-.274-.8123-.871-.9786-.351-.0342-.705-.0342-1.056 0l.058.0293Zm6.851.2545c-.086.0525-.157.1268-.206.2153 0 0 .059-.2545.078-.3817h-.655l-.783 4.0319h.714s.529-2.4955.578-2.6129c.074-.2618.237-.4898.46-.6459.221-.1617.489-.2475.763-.2446.117-.0102.235.01.342.0587.107.0459.198.1205.265.2153.137.1957.117.3914-.186 1.8789-.127.7144-.255 1.3505-.255 1.3505h.715s.518-2.5933.548-2.8478c.049-.1793.049-.3686 0-.548-.039-.1797-.131-.3434-.264-.4697-.112-.1046-.246-.1816-.392-.2251-.251-.0234-.503-.0234-.753 0-.331-.0094-.658.0682-.95.2251h-.019Zm4.736-.2545c-.263.0711-.505.2055-.704.3915-.108.0978-.177.1272-.167.0978.039-.1414.068-.2853.088-.4306h-.655l-.382 2.0258-.391 2.0355h.724l.215-1.0764c.108-.597.225-1.2038.254-1.331.03-.2073.107-.405.226-.5774.122-.1746.282-.3187.469-.4208.597-.3034 1.184-.137 1.263.3328.019.11.019.2226 0 .3327 0 .2349-.509 2.7401-.509 2.7401h.724s.489-2.6227.548-2.8771c.059-.2212.059-.454 0-.6753-.011-.0701-.038-.1369-.078-.1957-.03-.059-.078-.107-.137-.137-.116-.1056-.253-.1856-.401-.2349-.148-.035-.303-.035-.451 0-.199-.044-.407-.044-.606 0h-.03Zm3.827 0c-.435.0905-.831.3126-1.136.6361-.391.4229-.644.9557-.724 1.5267-.068.3654-.068.7404 0 1.1058.074.2074.195.395.353.5481.156.1492.343.2627.548.3327.398.0979.815.0979 1.213 0 .314-.0806.605-.2312.852-.4404.253-.1992.457-.4536.597-.7437.286-.6099.392-1.2893.303-1.9573-.068-.2504-.203-.4773-.392-.6557-.186-.1765-.416-.3012-.665-.3621-.292-.0391-.589-.0391-.881 0l-.068.0098Zm.763.6166c.214.0967.39.262.499.4697.059.1174.059.1957.059.5382.027.5746-.165 1.138-.538 1.5756-.111.131-.248.2376-.402.3132-.157.0692-.327.1059-.499.1076-.087.0195-.177.0195-.264 0-.085-.0173-.166-.0541-.235-.1076-.372-.1957-.509-.4795-.47-1.0471 0-.3104.068-.6169.2-.8978.132-.2808.325-.529.564-.7268.153-.1335.339-.2246.538-.2642.195-.0532.402-.0532.597 0l-.049.0392Zm7.115-.6459c-.318.0173-.625.1166-.893.2881-.267.1715-.486.4094-.634.6905-.047.0842-.087.1727-.117.2642.213.0404.429.0666.645.0783 0 0 .089 0 .128-.1272.118-.2132.29-.3919.499-.5187.228-.0998.48-.1343.727-.0998.247.0346.48.1369.672.2955.062.1029.086.2239.069.3426.01.1041.01.209 0 .3131-.353.1641-.736.254-1.126.2643-.402.0285-.798.1176-1.174.2642-.203.086-.383.2164-.528.3816-.139.1667-.242.3598-.304.5677-.034.1415-.034.289 0 .4305.019.1459.069.286.147.4111.084.1209.194.2213.323.2936.13.0685.274.1086.421.1174.615.0583 1.232-.101 1.742-.4502l.166-.1174v.1761c0 .3426 0 .323.411.323s.382 0 .362-.0685c-.098-.3621-.098-.5187.176-1.9573.177-.4883.234-1.0118.167-1.5266-.046-.1678-.15-.3137-.294-.4111-.133-.1097-.297-.1748-.47-.1859-.325-.031-.653-.031-.978 0l-.137-.0391Zm.89 2.5542c-.06.2874-.211.548-.43.7437-.147.14-.32.2498-.509.323-.193.0759-.4.1093-.607.0979-.134.0175-.271-.0064-.391-.0686-.451-.2446-.353-.8416.176-1.0764.251-.0695.506-.125.763-.1664l.832-.1566c.068-.0091.137-.0091.205 0l-.039.3034Zm5.304-2.5249c-.54.1684-1.009.513-1.331.9786-.322.4538-.49.9994-.479 1.5561-.048.2882-.011.5842.108.8514.117.2709.307.5045.548.6752.306.1433.64.2176.978.2176.338 0 .673-.0743.979-.2176.301-.1406.568-.3442.783-.5969.215-.253.372-.5504.46-.871.162-.4916.209-1.014.137-1.5267-.049-.2519-.172-.4835-.353-.6654-.179-.1825-.406-.3112-.655-.3719-.362-.0688-.734-.0688-1.096 0l-.079-.0294Zm.813.6361c.144.0728.269.1804.362.3132.095.133.156.2877.176.4502.03.5974-.127 1.1894-.45 1.693-.179.2096-.408.3711-.666.4697-.273.0883-.568.0883-.841 0-.182-.1024-.326-.2602-.411-.4501-.146-.6152-.051-1.2626.264-1.8105.135-.2951.376-.529.675-.6557.316-.1169.663-.1169.979 0l-.088-.0098Zm3.415-.6459c-.245.0811-.458.2389-.607.4502-.137.1468-.137.1468-.068-.1566-.013-.0745-.013-.1505 0-.2251-.107-.0196-.216-.0196-.323 0h-.333s-.156.9102-.372 1.9573c-.215 1.0471-.381 2.0062-.381 2.0355 0 .0294 0 0 .362 0h.362l.176-.9786c.088-.6103.226-1.2125.411-1.8007.103-.2496.276-.4638.499-.6165.131-.0487.271-.0688.411-.0587.139.0123.272.0558.392.1272.147-.2026.275-.4189.381-.6459l-.205-.1174c-.127-.0759-.274-.1101-.421-.0979h-.186l-.098.1272Zm-68.504.137-.3719 1.9573c-.1957 1.0471-.3817 1.9573-.3817 1.9573s0 .0685.3524.0685c.3523 0 .362 0 .3718-.049.0098-.0489.186-.9199.3817-1.9572.1957-1.0374.3817-1.9573.3914-1.9573.0098 0 0-.0685-.3425-.0685h-.3523l-.0489.0489Zm12.1839-.0685-.2642 1.3603c-.1489.5728-.2342 1.1603-.2544 1.7518 0 .3425 0 .411.0587.5187.1318.1892.3105.341.5187.4403.2169.0878.4529.1182.685.0881.4294-.0347.8353-.2102 1.1548-.4991.1272-.1174.1468-.1174.0685.1664.0046.0717.0046.1436 0 .2153.1074.0098.2155.0098.3229 0h.3034l.3915-2.0258c.2153-1.1156.3914-2.0355.3816-2.0551h-.7242l-.2153 1.0863c-.055.6053-.2002 1.199-.4306 1.7615-.3229.685-1.3309.9786-1.7028.4404-.0587-.0881-.0685-.137-.0685-.411.0417-.5345.1268-1.0647.2545-1.5854.1272-.6948.2446-1.2722.2446-1.2722h-.6654l-.0588.0195Zm7.8291.137c0 .0881-.2055.9787-.3817 1.9573-.1761.9786-.3621 1.8692-.3621 1.879 0 .0098 0 0 .3621 0h.3621l.3719-1.9573c.2055-1.0667.3816-1.9572.4012-2.0355v.0195h-.7144l-.0391.137Zm32.608 0s.176.9787.391 2.0454l.382 1.9572h.695l1.155-2.0355 1.174-2.0258h-.362c-.13-.0196-.262-.0196-.392 0 0 0-1.389 2.4662-1.595 2.8674l-.166.2936v-.2055c0-.2251-.48-2.9359-.489-2.9359-.01 0-.069-.0587-.402-.0587h-.381l-.01.0978Z"/>
	<path fill="#0A3E86" d="M62.9942 14.701c-1.4682.5813-2.7174 1.608-3.572 2.9359-.5887.9358-.9258 2.0077-.9786 3.112-.0532.7965.1498 1.589.5795 2.2617.4297.6726 1.0634 1.1901 1.8083 1.4767.9712.4625 1.9836.8327 3.024 1.1059.3327.088.9786.3033 1.3114.3914.6967.1482 1.3159.5448 1.7419 1.1157.1068.3131.1211.6504.0413.9714-.0798.3211-.2505.6124-.4914.839-.5749.5199-1.3029.8392-2.0747.9101-.5626.0386-1.1278.009-1.6833-.088-.3-.046-.5862-.1575-.8383-.3266-.252-.1692-.4637-.3918-.6198-.6521-.2098-.5859-.2703-1.2148-.1762-1.83h-4.5506c-.4163 1.5185-.2158 3.1401.5578 4.5115.2845.4489.6574.8351 1.0961 1.1352 1.3384.8295 2.9002 1.2259 4.4723 1.1352 1.4418.0024 2.874-.2358 4.2375-.7046.5977-.2367 1.1659-.5421 1.693-.9101.8474-.562 1.5675-1.2955 2.1138-2.153.5428-.858.918-1.811 1.1059-2.8087.2065-.9141.1175-1.8702-.2545-2.7304-.1912-.3709-.4501-.7028-.7633-.9786-.8612-.7927-1.9572-1.3016-4.4625-1.9573-1.7714-.4893-2.3977-.7731-2.7891-1.1547-.1625-.153-.2575-.3642-.2643-.5872.0036-.4071.1529-.7994.4208-1.1059.2343-.299.5505-.5235.9102-.6459.7987-.2573 1.6543-.2811 2.4661-.0685.2714.0728.5224.2067.734.3915.2084.1863.3609.4268.4404.6948.0685.3457.0685.7015 0 1.0471h4.5702c.2414-1.131.1322-2.3088-.3132-3.3762-.1952-.4322-.4785-.8189-.8318-1.1352-.9257-.819-2.0801-1.3348-3.3078-1.4778-.6489-.0833-1.3031-.1193-1.9572-.1076-1.1624.0926-2.3057.3496-3.3959.7633Zm13.1234-.4306-4.2374 18.9365h4.8931c5.2748 0 4.991 0 6.0088-.1761 1.2539-.1738 2.4339-.6959 3.4056-1.5071.9657-.8299 1.6836-1.9102 2.0747-3.1219.1816-.4951.316-1.0062.4013-1.5266.1089-.528.1096-1.0725.002-1.6007-.1077-.5282-.3214-1.0291-.6284-1.4722-.3891-.4584-.8871-.8117-1.4483-1.0276 0 0 .7535-.4306 1.0373-.6459.3789-.2892.7266-.6172 1.0374-.9786.5755-.7138.9595-1.5626 1.1156-2.4662.3817-2.2312-.4991-3.66-2.701-4.1983-.4693-.1271-.9525-.1961-1.4386-.2055l-9.5221-.0098Zm7.8291 3.9145c.1458.0128.2873.0559.4154.1267s.24.1677.3283.2844c.1783.2316.2653.5206.2447.8122-.0122.5092-.1757 1.0032-.4698 1.419-.313.4028-.7497.6916-1.2428.8221-.7207.0877-1.4472.1172-2.1726.0881h-1.9572l.7927-3.5916h1.8985c.6753-.0098 1.6343-.0098 2.1628.0293v.0098Zm-1.3995 6.7917c.3178-.0011.6284.0945.8906.274.2624.1825.4609.4426.5676.7438.0978.3754.0978.7696 0 1.145-.0805.5082-.3204.9777-.6851 1.3407-.361.3638-.826.6066-1.3309.6949-.8025.0978-4.5604.0587-4.5604.0587l.9786-4.2669 4.1396.0098Zm6.0773 8.2401h4.5898l4.2179-18.868h-4.5898l-4.2179 18.868Z"/>
	<path fill="#FC121B" d="M89.0553 1C84.5341 1 77.3118 2.70282 71.44 4.91452 65.1256 7.23355 59.2737 10.6565 54.1574 15.0238c-.5774.4991-3.8362 3.5915-5.1574 6.3708 2.2662-2.2336 4.7514-4.2335 7.418-5.9696 8.3154-5.2743 17.7233-8.58432 27.5093-9.67865 5.725-.55781 11.0585.45996 13.4268 1.95726 6.2629 4.01239 2.427 9.96249 2.3879 10.10929.47-.4894 4.609-4.3354 4.609-9.43403 0-2.23128-1.663-4.42341-4.12-5.62712C96.5908 1 93.9387 1 89.0553 1Z"/>
</svg>