<svg xmlns="http://www.w3.org/2000/svg" viewBox="0 0 200 50">
	<linearGradient id="gr1" gradientUnits="userSpaceOnUse" x1="29.407" y1="836.1" x2="29.407" y2="798.9999" gradientTransform="translate(0 -792)">
		<stop offset="0" stop-color="#0073b7"/>
		<stop offset="1" stop-color="#1a93cd"/>
	</linearGradient>
	<path fill="url(#gr1)" d="M29.3 7c-.6.7-3.9 5.4-6.8 12.7-.8 2.2-2.2 7-2.4 11.6v2.6c.1 4.7.8 8.9 1.1 10.2 0-1.9 0-8.1 1.5-13.2s4.3-11 6.6-14c2.5 3.1 5.6 10 6.7 14.1s1.7 9.3 1.4 13c.7-2.2 1.2-5.8 1.3-9.2s-.3-9.2-2.5-15.2C34.1 13.5 29.9 7.7 29.3 7z"/>
	<linearGradient id="gr2" gradientUnits="userSpaceOnUse" x1="29.391" y1="836.1" x2="29.391" y2="813.7498" gradientTransform="translate(0 -792)">
		<stop offset="0" stop-color="#0073b7"/>
		<stop offset="1" stop-color="#1a93cd"/>
	</linearGradient>
	<path fill="url(#gr2)" d="M24.9 29.4c-.5 1.3-1.4 4.2-1.5 7-.2 3.4.5 6.8.7 7.7 0-1.1 0-4.9 1-7.9 1-3.1 2.8-6.6 4.3-8.5 1.6 1.9 3.6 6 4.3 8.5s1.1 5.6.9 7.9c.4-1.3.8-3.5.8-5.5.1-2-.2-5.5-1.6-9.2-1.4-3.6-4.1-7.1-4.5-7.6-.4.4-2.5 3.2-4.4 7.6z"/>
	<linearGradient id="gr3" gradientUnits="userSpaceOnUse" x1="140.5" y1="36.6" x2="140.5" y2="14.1424">
		<stop offset="0" stop-color="#0073b7"/>
		<stop offset="1" stop-color="#1a93cd"/>
	</linearGradient>
	<g fill="url(#gr3)">
		<path d="M55.8 32.9c0 .4-.1.4-.1.4s-.1.1-.6.1c-.4 0-.6-.1-.6-.1s-.1-.1-.1-.4V17.8c0-.4.1-.4.1-.4s.2-.1.6-.1c.5 0 .6.1.6.1s.1.1.1.4v4.4h3.9v-4.4c0-.7-.1-1.2-.2-1.6-.4-1.4-1.9-2.1-4.4-2.1H55c-1.5 0-2.6.2-3.2.6-.9.6-1.3 1.6-1.3 3.1v15.1c0 1.5.4 2.5 1.3 3.1.7.4 1.7.6 3.3.6 2.5 0 4-.7 4.4-2.1.1-.4.2-.9.2-1.6v-5h-3.9v5z"/>
		<path d="M62.2 36.5H70V33h-3.9v-7h3.7v-3.4h-3.7v-4.9H70v-3.4h-7.8z"/>
		<path d="M80.6 25.1c-.3-.4-.7-.6-1.1-.8.4-.2.7-.4.9-.6.4-.4.6-1.2.6-2.2v-3c0-1.5-.2-2.6-.8-3.2-.6-.7-1.6-1-3.1-1h-4.9v22.2h5.5c.6 0 1.1-.1 1.5-.2 1.3-.4 2-1.8 2-4.3v-4.5c0-1.1-.2-1.9-.6-2.4zm-3.3 6.8c0 1.2-.5 1.3-.9 1.3H76V26h.3c.5 0 1 .2 1 1.5v4.4zm0-10.5c0 1.3-.6 1.3-.8 1.3H76v-5.3h.5c.3 0 .8 0 .8 1.2v2.8z"/>
		<path d="M83.7 36.5h7.9V33h-4v-7h3.8v-3.4h-3.8v-4.9h4v-3.4h-7.9z"/>
		<path d="M102.6 16.5c-.1-1.1-.7-1.8-1.5-2-.4-.1-1-.2-1.8-.2h-5.5v22.1h3.9v-7.6c1.5 0 2.4 0 2.8-.1.9-.1 1.5-.6 1.8-1.2.3-.6.5-1.6.5-3.1v-5.6c0-1.1-.1-1.9-.2-2.3zM99 24.1c0 .8-.1 1-.1 1 0 .1-.1.3-.5.3h-.6v-7.6h.6c.5 0 .5.2.5.3 0 0 .1.2.1 1v5z"/>
		<path d="M105.2 36.5h3.9V17.7h3.3v-3.4h-7.2z"/>
		<path d="M120.5 14.3H115l-2.5 22.2h3.6l.6-5.4h1.9l.5 5.4h3.9l-2.5-22.2zm-3.8 14l1-10.5.9 10.5h-1.9z"/>
		<path d="M132.3 14.7c-.6-.4-1.7-.6-3.2-.6h-.1c-2.6 0-4.1.7-4.4 2.1-.1.5-.2 1-.2 1.6v2.9h3.9v-2.6c0-.5.1-.7.1-.7s.1-.1.6-.1c.3 0 .6.1.6.9v3.3c0 1.1-.4 1.1-.6 1.1h-2.2v3.3h2.2c.2 0 .6 0 .6 1.2v5.6c0 .8-.3.9-.6.9s-.5-.1-.6-.2c0 0-.1-.1-.1-.7V28h-3.9v4.9c0 .6.1 1.2.2 1.6.4 1.4 1.8 2.1 4.4 2.1 1.6 0 2.7-.2 3.3-.6.8-.5 1.2-1.6 1.2-3.1v-5.4c0-1.5-.5-2.6-1.6-3.2 1-.5 1.6-1.5 1.6-2.9v-3.6c.1-1.5-.4-2.5-1.2-3.1z"/>
		<path d="M144.5 23.7c-.3-.7-.9-1.1-1.8-1.2-.4-.1-1.3-.1-2.8-.1v-4.6h4.8v-3.4H136v22.2h5.1c.8 0 1.4-.1 1.9-.2.9-.2 1.5-.8 1.8-1.9.2-.5.2-1.4.2-2.5v-5.1c0-1.5-.2-2.6-.5-3.2zm-3.4 7.9c0 .7-.1 1-.1 1.1-.1.2-.5.3-.9.3h-.2v-7.2h.2c.3 0 .8.1.9.3 0 .1.1.3.1 1.1v4.4z"/>
		<path d="M154.4 14.3h-5.5l-2.5 22.2h3.6l.6-5.4h1.9l.5 5.4h3.9l-2.5-22.2zm-3.7 14l1-10.5.9 10.5h-1.9z"/>
		<path d="M163.6 22.5h-1.2v-8.2h-3.9v22.2h3.9V26.1h1.2v10.4h3.9V14.3h-3.9z"/>
		<path d="M176.9 24.7l3-10.4H176l-1.9 7.1v-7.1h-3.9v22.2h3.9v-8l1.8 8h4.1z"/>
	</g>
</svg>