<svg xmlns="http://www.w3.org/2000/svg" viewBox="0 0 200 50">
	<path fill="#F2CD13" d="M38.4029 4H75.012c1.6663 0 2.9895 1.37223 2.9895 2.9895v36.6091c0 1.3232-1.0781 2.4014-2.4014 2.4014H38.4029c-1.3232 0-2.4014-1.0782-2.4014-2.4014V6.4014C35.9525 5.07818 37.0797 4 38.4029 4Z"/>
	<path fill="#185491" d="m49.8707 4 9.4096 15.5356v4.2147L47.2733 4h2.5974Zm4.2638 0 5.1458 8.5274v3.0385L52.2721 4h1.8624Zm3.6266 0 1.5192 2.54842v2.3524L56.2908 4h1.4703Zm4.2637 32.9825h-2.9405l-4.6558-8.0373v8.0373H51.684v-12.105h3.4306l4.1167 6.8121v-6.8121h2.7935v12.105Zm2.3033-12.105h6.0771c1.2742 0 2.2543.294 2.8424.8331.5881.5391.8822 1.2742.8822 2.2544 0 .5881-.147 1.1272-.4901 1.5683-.3431.441-.8331.7351-1.5193.9801.8332.1961 1.4703.5391 1.9114 1.0782.441.5391.6861 1.2252.6861 2.0093 0 1.0782-.3431 1.9114-1.0782 2.4994-.7351.5881-1.9113.8822-3.5776.8822h-5.734v-12.105Zm2.8425 2.3524v2.4014h2.6465c.441 0 .7841-.098 1.0291-.3431.2451-.245.3921-.5391.3921-.8821 0-.3431-.147-.6371-.3921-.8332-.245-.196-.6371-.343-1.1272-.343 0 .049-2.5484.049-2.5484 0Zm0 4.6557v2.7445h2.9405c.3921 0 .7841-.098 1.0782-.3431.3431-.245.4901-.5881.4901-1.0291 0-.4901-.147-.8332-.4901-1.0292-.2941-.245-.7841-.3431-1.4703-.3431h-2.5484ZM39.334 33.0618h2.8425c0 .5881.196 1.0292.5881 1.3723.392.343 1.0291.5391 1.8623.5391.7351 0 1.2742-.0981 1.6172-.2941.3431-.196.5391-.5391.5391-.9802 0-.392-.147-.7351-.4901-1.0291-.343-.2451-1.1762-.5881-2.5484-.8822-1.6172-.392-2.6954-.8331-3.2345-1.3722-.5391-.4901-.7842-1.2742-.7842-2.3034 0-1.1762.4411-2.0583 1.3233-2.6954.8821-.5881 2.1073-.8822 3.6266-.8822 1.3722 0 2.4994.3431 3.3325.9802.8332.6861 1.2252 1.5682 1.2742 2.6464h-2.6954c-.049-.392-.245-.7351-.5881-.9801-.3431-.2451-.8331-.3431-1.4702-.3431-.5881 0-1.0782.098-1.3723.2941-.343.196-.4901.49-.4901.8331 0 .3431.1471.6371.4411.8821.2941.2451.9312.4411 1.9603.6371 1.8624.3921 3.0876.8332 3.7247 1.4213.6371.5881.9311 1.3722.9311 2.3524 0 1.2252-.4411 2.2053-1.2742 2.9405-.8331.7351-2.1073 1.0781-3.8226 1.0781-1.6173 0-2.8915-.343-3.8227-1.0781-.9801-.6862-1.4702-1.7643-1.4702-3.1366ZM156.798 4.68796c.008 1.21708 1.13 1.53694 2.228 1.54398 1.065.00683 2.347-.33097 2.347-1.53416 0-.34608-.009-.35305-.452-.35305-.383 0-.469.04087-.572.26951-.338.753-2.191.753-2.529 0-.103-.22864-.19-.26951-.573-.26951-.44 0-.451.00834-.449.34323ZM87.5041 6.89289c-1.3076.38389-2.4513 1.41707-2.9532 2.6677-.234.58351-.2999.93881-.3397 1.83451-.0552 1.2413.0617 1.9929.4381 2.8173.2905.6362.9738 1.4275 1.5547 1.8005 1.2752.8189 3.1704.9609 4.5885.3437.9457-.4116 1.799-1.4575 2.0879-2.5594.256-.9764.3163-.9255-1.096-.9255h-1.2443l-.1166.4391c-.2824 1.0652-1.5398 1.5412-2.6002.9845-.3346-.1757-.7714-.8297-.9221-1.3804-.2875-1.0512-.051-2.6836.4818-3.32653.8419-1.01576 2.5836-.7529 3.0356.45823l.1082.2904h1.1928c.656 0 1.2133-.0357 1.2386-.0792.1013-.1751-.2705-1.27384-.6045-1.78615-.4201-.64454-.8287-.98027-1.6669-1.36986-.5157-.23974-.7872-.2918-1.66-.3181-.6515-.01975-1.2233.02133-1.5227.1092ZM94.589 11.71v4.7524H101.975v-2.2178H97.1896v-1.6898h4.2654v-2.0065h-4.2654V9.17533h4.6814V6.95752h-7.282V11.71Zm9.154 0v4.7524h2.746c3.134 0 3.713-.1011 4.501-.7867 1.227-1.0661 1.164-3.3075-.116-4.1474l-.448-.2936.397-.4392c.469-.5189.664-1.14831.566-1.82389-.153-1.05684-.619-1.57475-1.664-1.85124-.478-.12631-1.217-.16285-3.299-.16285h-2.683V11.71Zm9.674 0v4.7524h7.386v-2.2178h-4.785v-1.6898H120.283v-2.0065H116.018V9.17533h4.681V6.95752h-7.282V11.71Zm9.051-.0065v4.7589h2.6V13.2941h1.289c1.661 0 2.201-.1645 2.94-.8955.613-.6054.868-1.2748.868-2.2728 0-1.31282-.564-2.28168-1.641-2.8186l-.595-.29687-2.731-.03285-2.73-.03274v4.75876Zm9.258.0065v4.7524h2.6v-3.9076H137.239v3.9076h2.705V6.95752h-2.705V10.337H134.326V6.95752h-2.6V11.71Zm10.194.008v4.7604l2.629-.0344 2.63-.0344.687-.344c1.1-.5499 1.559-1.3573 1.559-2.7398-.001-1.2967-.615-2.2942-1.72-2.7932-.439-.1981-.762-.247-1.858-.2811l-1.326-.0413V6.95752h-2.601V11.718Zm8.218-.008v4.7524h2.601V6.95752h-2.601V11.71Zm4.681.0557v4.8082l1.424-.0293 1.425-.0294 1.358-2.8767 1.359-2.8768.052 2.8768.052 2.8767 1.274.0297 1.274.0297V6.95752h-2.874l-1.346 2.84566-1.345 2.84562-.028-2.84562-.027-2.84566h-2.598v4.80818Zm-46.43-2.68933c.369.14236.448.27195.45.74265.002.63108-.257.77568-1.466.81838l-1.029.0362V8.96411h.877c.483 0 1.008.05048 1.168.11226Zm18.577-.00116c.903.25452.951 1.78219.066 2.09529-.182.0643-.698.117-1.147.117h-.817V8.96411l.754.00063c.415.00032.93.05006 1.144.11047Zm19.37 3.31219c.404.1713.577.4395.577.8929 0 .8327-.372 1.0682-1.69 1.0693l-.702.0006V12.238h.731c.403 0 .89.0673 1.084.1494Zm-37.335.3211c.276.2804.352.9453.15 1.3272-.15.285-.738.4188-1.845.4195l-.962.0006v-2.0066h1.201c1.136 0 1.215.014 1.456.2593ZM157.025 18.438c.008 1.2012 1.18 1.452 2.241 1.4255.975-.0244 2.168-.3049 2.168-1.4162 0-.3246-.009-.3311-.435-.3311-.369 0-.453.0383-.552.2527-.326.7061-2.112.7061-2.438 0-.099-.2144-.182-.2527-.551-.2527-.425 0-.435.0078-.433.3218Zm-41.806 2.0505c-1.098.3024-2.207 1.1673-2.686 2.0964-.75 1.4517-.753 3.474-.007 4.9179.842 1.6315 2.966 2.5388 4.961 2.12 2.239-.4697 3.546-2.156 3.546-4.5724 0-2.8277-1.863-4.727-4.607-4.6949-.416.0049-.959.0647-1.207.133Zm-30.676 4.5124v4.4562h2.5062v-3.664H89.8561v3.664H92.4626v-8.9124H89.8561v3.1689H87.0492v-3.1689H84.543v4.4562Zm10.4916-.0247c-.9191 2.4372-1.6708 4.4649-1.6704 4.5057.0003.0408.5608.0743 1.2454.0743h1.2447l.2923-.8665.2923-.8665 1.5043-.0273 1.5043-.0272.2715.8937.2716.8938h1.2984c.714 0 1.299-.0208 1.299-.0462 0-.0253-.705-1.9304-1.566-4.2334-.861-2.303-1.6095-4.3098-1.6636-4.4596l-.0985-.2723h-2.5544l-1.6709 4.4315Zm8.5554.0187v4.4622h2.506v-2.9708h1.242c1.601 0 2.122-.1543 2.834-.8396.59-.5678.837-1.1954.837-2.1312 0-1.231-.544-2.1395-1.582-2.6429l-.574-.2784-2.631-.0308-2.632-.0307v4.4622Zm20.149-3.2371c-.004 2.6734-.275 4.2933-.87 5.1989-.245.3726-.32.4209-.655.4209h-.379v4.1653l1.178-.0278 1.178-.0279.029-1.015.028-1.0151H129.247l.028 1.0151.029 1.015 1.178.0279 1.178.0278v-4.1653H130.657v-6.8329h-6.917l-.001 1.2131Zm9.024 3.2431v4.4562h2.506v-3.664h2.807v3.664h2.606v-8.9124h-2.606v3.1689h-2.807v-3.1689h-2.506v4.4562Zm9.924.0075v4.4638l2.534-.0323 2.534-.0323.663-.3225c1.059-.5157 1.502-1.2727 1.501-2.5691 0-1.2158-.592-2.1511-1.657-2.619-.423-.1858-.735-.2317-1.79-.2637l-1.279-.0387v-3.0499h-2.506v4.4637Zm7.92-.0075v4.4562h2.506v-8.9124h-2.506v4.4562Zm4.511.0523v4.5085l1.373-.0275 1.372-.0276 1.309-2.6974 1.309-2.6975.05 2.6975.051 2.6974 1.228.0279 1.228.0278v-9.0176h-2.77l-1.297 2.6683-1.297 2.6683-.026-2.6683-.027-2.6683h-2.503v4.5085Zm-47.192-2.5228c.87.2386.916 1.6711.063 1.9647-.175.0603-.673.1097-1.106.1097h-.787v-2.1786l.727.0006c.4.0003.896.0469 1.103.1036Zm9.502.1186c1.245.6202 1.498 3.3102.417 4.4433-.637.6674-1.828.7494-2.566.1765-1.016-.7901-1.076-3.4897-.095-4.3654.589-.5268 1.492-.6291 2.244-.2544Zm10.723 2.3024v2.4262h-2.896l.248-.5354c.318-.6867.509-1.692.599-3.1534l.071-1.1636h1.978v2.4262Zm-29.7364-.232c.2.6349.3637 1.1809.3637 1.2131 0 .0322-.3883.0587-.8629.0587-.6485 0-.8512-.0308-.8159-.1238.0259-.068.2208-.6468.4331-1.2861.2124-.6392.4159-1.1294.4522-1.0893.0363.0401.2297.5925.4298 1.2274Zm48.5284.9168c.389.1606.556.412.556.8371 0 .7809-.359 1.0017-1.629 1.0027l-.677.0006V25.496h.705c.388 0 .858.0631 1.045.1402ZM84.543 38.5528v4.6006l2.8202-.0326c2.7991-.0325 2.8243-.0346 3.3693-.2982.6313-.3054 1.0274-.6811 1.3325-1.2643.3111-.5947.3104-2.1671-.0013-2.7574-.2942-.5573-.7848-1.0163-1.3812-1.2927-.4345-.2013-.7026-.2363-2.0714-.2711l-1.5724-.0399v-1.3056h4.3926v-1.9395H84.543v4.6007Zm9.9487-.0327c-.9153 2.5124-1.6638 4.6025-1.6634 4.6446.0003.042.5584.0765 1.2402.0765h1.2395l.2911-.8931.291-.8932 1.498-.0281 1.4981-.0281.2703.9213.2705.9212h1.293c.711 0 1.293-.0214 1.293-.0475 0-.0262-.701-1.9899-1.559-4.3639-.857-2.3739-1.6026-4.4426-1.6565-4.5969l-.0982-.2808H96.1556l-1.6639 4.568Zm8.4203.0256v4.5935h2.496V39.3623h2.795V43.1392H110.798V33.9521H108.203V37.2186h-2.795V33.9521h-2.496v4.5936Zm9.883.0542v4.6477l1.223-.0287 1.223-.0287.028-1.4793.028-1.4792.414-.4323.415-.4323.891 1.5543c.489.8548.998 1.7266 1.131 1.937l.24.3828h1.496c.834 0 1.496-.0411 1.496-.093 0-.0512-.807-1.3376-1.795-2.8587l-1.795-2.7657 1.016-1.0968c.559-.6033 1.31-1.4069 1.668-1.7858l.651-.6891h-3.126l-1.329 1.5894-1.329 1.5893-.028-1.5893-.027-1.5894h-2.491v4.6478Zm-14.9375-.3445c.1992.6546.3622 1.2173.3622 1.2505 0 .0333-.3866.0605-.8592.0605-.6458 0-.8477-.0317-.8125-.1276.0257-.0701.2198-.6667.4312-1.3256.2116-.659.4142-1.1642.4504-1.1229.0361.0413.2287.6107.4279 1.2651Zm-8.2892 1.1377c.3215.2154.4377.7569.2491 1.1599-.1858.3968-.6386.5319-1.8053.5389l-.9734.0057v-1.9652l1.1367.0445c.8403.0329 1.2034.0893 1.3929.2162Z"/>
</svg>