<svg viewBox="0 0 200 50" xmlns="http://www.w3.org/2000/svg">
	<path fill="#E21D40" d="m41.493 17.0709-5.2278 5.2341h-5.673l-9.4672 9.5412-11.0923-11.0861 3.6274-3.7015.0742.0063h7.3165l-3.6955 3.6955 3.6892 3.6892 7.3845-7.3785h13.064v-.0002ZM30.067 31.691l3.1144-3.1268h3.0838l5.2339-5.2278H31.0062l-7.3042 7.3042-1.0567 1.0507h7.4217v-.0003ZM59.3519 17.6565v2.8443h-7.4376v2.1912h3.2447c3.2236 0 5.5203 1.4539 5.5203 4.509 0 2.9286-2.3388 4.5719-5.5203 4.5719h-6.3841V17.6562h10.577v.0003Zm-7.4376 11.2934h3.2447c1.5592 0 2.3388-.6954 2.3388-1.7487 0-1.1168-.8428-1.7489-2.2546-1.7489h-3.3289v3.4976Zm11.5469-6.9111c1.5171-.9058 3.034-1.2643 4.6775-1.2643 3.4341 0 4.9301 1.8541 4.9301 4.5933v3.2447c0 .59.2318.8428.6322.8428.1264 0 .2739-.021.3582-.0632l.2739 2.3808c-.4003.1475-.8428.2318-1.3907.2318-1.1587 0-2.0436-.4636-2.2752-1.6646-.8218 1.18-2.0649 1.6857-3.7083 1.6857-2.4863 0-4.0875-1.2643-4.0875-3.5819s2.0017-3.4975 5.0144-3.4975c.8639 0 1.5804.1264 2.2125.295v-.3372c0-.9271-.6321-1.4749-1.9807-1.4749-1.2432 0-2.3386.2528-3.4765.8007l-1.1799-2.1912Zm6.6579 5.2886c-.611-.1475-1.3485-.2318-2.149-.2318-1.4117 0-2.0226.4846-2.0226 1.201 0 .6954.4844 1.1377 1.538 1.1377 1.7065 0 2.6336-.864 2.6336-1.8541v-.2528Zm9.6929-6.2998v4.0033h4.2351v-4.0033h3.034v10.7455h-3.034v-4.1086H79.812v4.1086h-3.034V21.0276h3.034Zm13.6959 0v3.8347l1.1166-.1896 2.8022-3.6451h3.7713l-4.0872 4.8883 4.4882 5.8572h-3.6664l-3.2236-4.3825h-1.2008v4.3825H90.495V21.0276h3.0129ZM120.65 21.5964c-.99-.8639-2.275-1.3486-3.835-1.3486-2.76 0-4.509 1.854-4.509 4.4669 0 2.676 1.812 4.4668 4.467 4.4668 1.58 0 3.013-.5689 4.109-1.6014l1.791 2.2124c-1.623 1.5382-3.603 2.2755-6.068 2.2755-4.404 0-7.438-2.8655-7.438-7.3112 0-4.0665 2.971-7.3955 7.775-7.3955 2.191 0 4.045.6954 5.457 1.9383l-1.749 2.2968Zm8.239-3.9399v5.3727l1.538-.1686 3.982-5.2041h3.898l-5.246 6.5948 5.752 7.5219h-4.067l-4.298-6.0258h-1.559v6.0258h-3.118V17.6565h3.118Zm22.925 3.9399c-.991-.8639-2.276-1.3486-3.835-1.3486-2.76 0-4.509 1.854-4.509 4.4669 0 2.676 1.812 4.4668 4.467 4.4668 1.58 0 3.013-.5689 4.108-1.6014l1.791 2.2124c-1.622 1.5382-3.603 2.2755-6.068 2.2755-4.403 0-7.437-2.8655-7.437-7.3112 0-4.0665 2.97-7.3955 7.774-7.3955 2.191 0 4.046.6954 5.457 1.9383l-1.748 2.2968ZM168.557 18.9675v.7926h-2.08v3.1125h-.874v-3.9051h2.954Zm2.407 0c.933 0 1.557.5595 1.557 1.4107 0 .8975-.711 1.4278-1.627 1.4278h-.792v1.0666h-.874v-3.9051h1.736Zm-.862 2.0634h.792c.467 0 .747-.2567.747-.6471 0-.3847-.239-.6353-.712-.6353h-.827v1.2824Zm3.777-2.0634.961 1.9527h.058l.811-1.9527h.973l-1.533 3.229c-.245.5071-.554.7577-.985.7577-.274 0-.495-.0408-.711-.1341l.198-.7404c.105.0467.239.07.344.07.187 0 .321-.0758.373-.2157l.047-.1165-1.597-2.8502h1.061v.0002Zm6.871 0v3.9051h-.88v-3.095h-1.655v3.095h-.88v-3.9051h3.415Zm4.33 0v3.9051h-.88v-3.095h-1.655v3.095h-.88v-3.9051h3.415Zm3.246-.0056 1.615 3.9107h-.968l-.297-.7751h-1.673l-.291.7751h-.95l1.603-3.9107h.961Zm-1.037 2.3662h1.102l-.519-1.4864h-.058l-.525 1.4864Zm-20.731 5.7092 1.096 1.7717 1.084-1.7717h.939v3.905h-.857v-2.576h-.053l-.903 1.4862h-.455l-.903-1.4862h-.052v2.576h-.851v-3.905h.955Zm5.333 0v1.4864l.426-.0467 1.101-1.4397h1.078l-1.451 1.8244 1.591 2.0806h-1.125l-1.189-1.6668h-.431v1.6668h-.862v-3.905h.862Zm6.732 0v.787h-2.058v.6061h.898c.892 0 1.527.4021 1.527 1.2472 0 .8099-.647 1.2647-1.527 1.2647h-1.766v-3.905h2.926Zm-2.058 3.1241h.898c.431 0 .647-.1921.647-.4835 0-.3092-.233-.4838-.624-.4838h-.921v.9673ZM161.402 18.1729h-.514v13.489h.514v-13.489Z"/>
</svg>