<svg xmlns="http://www.w3.org/2000/svg" viewBox="0 0 200 50">
	<path fill="#3A52AA" d="M32.9286 7c-4.6197 0-8.8544 1.76307-12.0442 4.6501h24.0884C41.783 8.76307 37.5483 7 32.9286 7Zm-13.694 6.521c1.0999-.9629 2.5848-1.6037 4.1797-1.6037 1.595 0 3.0799.6408 4.2347 1.6037h-8.4144Zm-.7148.7471h9.7893c.88 1.1222 1.43 2.4587 1.43 3.9544H17.1449c0-1.4957.4949-2.8853 1.3749-3.9544Zm32.338 10.6896c0 4.8642-1.925 9.2454-5.0597 12.4527H20.0597C16.9249 34.2031 15 29.8219 15 24.9577h35.8578Zm-27.4434-.4266c1.8699 0 3.5747-.8019 4.7297-2.1383h-9.4594c1.1549 1.3364 2.8598 2.1383 4.7297 2.1383Zm9.5144 18.3296c-4.3447 0-8.3595-1.6037-11.4393-4.1686h22.8786c-3.0798 2.618-7.0946 4.1686-11.4393 4.1686ZM68.8515 29.9785l-.1454-1.9208c-.0323.0216-.0699.0432-.113.0648l-.1292.0315c-.2585.1079-.5653.2042-.9205.2905-.3554.0764-.7537.1129-1.1951.1129h-.3069l-.3069-.0315c-.8182-.0963-1.5665-.4317-2.2448-1.0011-.6783-.581-1.0174-1.519-1.0174-2.8106 0-1.26.3822-2.2229 1.1466-2.8903.7752-.679 1.7389-1.0177 2.8908-1.0177.3985 0 .7806.0316 1.1467.0963.3661.0648.7321.1727 1.0981.3237l.097-1.939-.1404-.0415c-.054-.0149-.1095-.0266-.1665-.0382l-.2907-.0979c-.2906-.0631-.5921-.1129-.9044-.1445-.3015-.0431-.6352-.0647-1.0012-.0647-1.9488 0-3.4884.5279-4.619 1.5821-1.1196 1.0559-1.6795 2.4769-1.6795 4.2649 0 1.8942.5814 3.3203 1.7442 4.2782 1.1628.9479 2.5408 1.4227 4.1344 1.4227.1183 0 .2368-.0066.3552-.0166.1292 0 .2585-.005.3877-.0166.3767-.0315.7482-.0813 1.1142-.1444.3662-.0764.7215-.1727 1.066-.2922Zm6.9102-11.0781c1.5719 0 2.8854.4947 3.9405 1.4858 1.0659.9795 1.599 2.4122 1.599 4.2965 0 1.8842-.5331 3.3153-1.599 4.2947-1.0551.9795-2.3686 1.4709-3.9405 1.4709-1.572 0-2.8908-.4914-3.9567-1.4709-1.0552-.9794-1.5827-2.4105-1.5827-4.2947 0-1.8843.5275-3.317 1.5827-4.2965 1.0659-.9911 2.3847-1.4858 3.9567-1.4858Zm0 1.6153c-.1615 0-.3391.0166-.5329.0482-.0829.0099-.1658.0232-.2487.0431-.0629.015-.1258.0316-.1887.0515l-.144.0514c-.5061.1926-.969.5861-1.3889 1.1787-.4092.5811-.6137 1.5124-.6137 2.7941 0 1.2799.2045 2.2179.6137 2.8089.1475.2042.3004.3852.4586.5412.292.2889.602.4964.9303.6226.11.0431.2201.0797.3302.1079.0837.0216.1674.0398.2512.0531.1938.0216.3714.0315.5329.0315.0783 0 .1605-.0016.2465-.0066.0912-.005.1867-.0133.2865-.0249.1937-.0315.3875-.0863.5813-.161.1765-.0681.3471-.1594.5118-.2739.1136-.0797.2243-.1694.3322-.2707.1844-.1743.3607-.3801.5288-.6192.4199-.591.6298-1.529.6298-2.8089 0-1.2817-.2099-2.213-.6298-2.7941-.2458-.3552-.5091-.6391-.7897-.8516-.1866-.1411-.3809-.2507-.5831-.3271l-.1232-.0448c-.1527-.0514-.3055-.0846-.4581-.1012-.12-.02-.2337-.0333-.3412-.0399-.0663-.005-.1302-.0083-.1918-.0083Zm9.6959-1.4858h-2.2933v11.3055h8.398v2.3242h2.0833v-4.328h-1.3081v-9.3017h-2.2933v9.3017h-4.5866v-9.3017Zm9.6456 0h2.2933v5.8138l-.0484 2.7459h.0484l.8075-1.6469 3.957-6.9128h2.745v11.3055h-2.293V24.505l.049-2.7292h-.049l-.775 1.7116-3.9893 6.848h-2.7455V19.0299Zm13.6638 0h-2.568l4.151 8.0915-.323.7587c-.151.3436-.339.5595-.566.6458-.053.0166-.107.0332-.162.0465-.065.0166-.131.0298-.198.0398-.115.0183-.231.0266-.35.0266-.086 0-.173-.005-.259-.0166l-.226-.0316c-.075-.0216-.156-.0481-.242-.0813-.076-.0316-.156-.0697-.242-.1129l-.259 1.7116.13.0647.074.02.087.0298c.173.0532.377.1013.614.1445.247.0531.517.0813.807.0813.244 0 .479-.0232.703-.0697.282-.0598.548-.1544.799-.2855.452-.2474.845-.7272 1.179-1.4377l4.522-9.6255h-2.261l-2.148 4.7961-.484 1.2119h-.049l-.484-1.1953-2.245-4.8127Zm16.72 11.3055h-2.18l-2.746-8.0749-.516-1.6153h-.049l.033 1.7431v7.9471h-2.294V19.0299h3.876l2.261 6.5725.501 2.0038h.048l.501-2.0038 2.261-6.5725h3.876v11.3055h-2.293v-7.9471l.032-1.7431h-.048l-.517 1.6153-2.746 8.0749Zm16.284-11.3055h7.235v2.0021h-4.942v2.3591h1.841c1.41 0 2.411.3386 3.004 1.016.591.6674.925 1.4111 1.001 2.2295v.2092l.011.0897.005.1046-.004.1311c-.005.078-.015.1577-.028.2407l-.017.1511-.031.2208c-.152.6342-.533 1.2219-1.147 1.7597-.604.528-1.534.7919-2.794.7919h-4.134V19.0299Zm2.293 6.1375v3.3917h1.421c.107 0 .236-.0067.388-.0166.161-.0216.323-.0548.484-.098.28-.0846.538-.2407.775-.4681.248-.2358.372-.6076.372-1.114 0-.2224-.024-.4167-.071-.5843-.061-.2159-.162-.3869-.301-.513-.054-.0548-.109-.1046-.165-.1511-.073-.0598-.149-.1129-.226-.1594-.123-.0747-.251-.1328-.384-.1743-.161-.0432-.323-.0697-.484-.0813-.152-.0216-.281-.0316-.388-.0316h-1.421Zm14.191-6.1375h-2.616l-4.506 11.3055h2.455l.953-2.5367h4.667l.953 2.5367h2.584l-4.49-11.3055Zm.275 6.8962h-3.262l1.566-4.6185h.032l1.664 4.6185Zm5.589-6.8962h2.294v4.5537h4.586v-4.5537h2.294v11.3055h-2.294v-4.8941h-4.586v4.8941h-2.294V19.0299Zm11.434 0h2.293v4.8293h.048l4.086-4.8293h2.73l-4.716 5.1199L185 30.3354h-2.907l-4.199-5.6212h-.048v5.6212h-2.293V19.0299Zm-35.889 5.6362h-6.508v1.8892h6.508v-1.8892Z"/>
</svg>