<svg viewBox="0 0 200 50" xmlns="http://www.w3.org/2000/svg">
	<path fill="#FF4B5F" d="M12.326 32.698c-4.225 0-7.667-3.39-7.667-7.552 0-4.162 3.441-7.553 7.665-7.553h.48V13h-.479C5.532 13 0 18.451 0 25.145c0 6.738 5.532 12.189 12.326 12.189h.479V32.7h-.479v-.002Z"/>
	<path fill="#003791" d="M14.8081 19.5684v-6.3086c5.6628 1.1152 9.887 6.0078 9.887 11.8867 0 5.9238-4.2261 10.8144-9.887 11.8887v-6.3086H12.325c-3.13506 0-5.66094-2.4903-5.66094-5.5782 0-3.0898 2.52588-5.58 5.66214-5.58h2.4819Zm23.781 11.0703c1.2839.0039 2.5288-.4356 3.5269-1.2442l1.9599 1.9336c-1.437 1.2852-3.353 2.0586-5.4868 2.0586-4.6172 0-8.3191-3.7344-8.3191-8.2402 0-4.5059 3.7019-8.1973 8.3191-8.1973 2.074-.0058 4.0759.7598 5.6179 2.1465l-1.9599 1.9297c-1.011-.8887-2.312-1.377-3.658-1.3711-3.094 0-5.5752 2.4453-5.5752 5.4922 0 3.0469 2.4822 5.4922 5.5752 5.4922Zm86.0199-5.75 6.141-7.2949h2.439v15.1054h-2.439V21.7988l-6.141 7.1231-6.228-7.2949v11.0742h-2.483V17.5938h2.483v.0859l.043-.0859 6.185 7.2949Zm-70.254 8.4551c4.573 0 8.3191-3.6485 8.3191-8.1973 0-4.5059-3.7461-8.1973-8.3191-8.1973s-8.3179 3.6914-8.3179 8.1973c0 4.5058 3.7019 8.1973 8.3179 8.1973Zm-.043-13.6895c3.093 0 5.575 2.4453 5.575 5.4922 0 3.0469-2.482 5.4922-5.575 5.4922s-5.5749-2.4453-5.5749-5.4922c0-3.0469 2.4819-5.4922 5.5749-5.4922Zm50.741 13.6895c4.573 0 8.319-3.6485 8.319-8.1973 0-4.5059-3.703-8.1973-8.319-8.1973-4.573 0-8.3189 3.6914-8.3189 8.1973 0 4.5058 3.7019 8.1973 8.3189 8.1973Zm0-13.6895c3.093 0 5.575 2.4453 5.575 5.4922 0 3.0469-2.527 5.4922-5.575 5.4922-3.093 0-5.575-2.4453-5.575-5.4922 0-3.0469 2.482-5.4922 5.575-5.4922Zm-11.7171-2.0605h3.355l-7.5788 7.5957 7.4909 7.5117h-3.31l-6.3159-6.3106h-2.5252v6.3106h-2.439V17.5938h2.439v6.3515h2.5701l6.3139-6.3515Zm103.3561 0H200l-7.535 7.5957 7.448 7.5117h-3.31l-6.271-6.3106h-2.57v6.3106h-2.439V17.5938h2.439v6.3515h2.57l6.36-6.3515Zm-30.053 15.1054h-2.702l-1.479-3.2597h-7.928l-1.48 3.2617h-2.7l6.75-15.1074h2.787l6.752 15.1054Zm-8.145-12.0156-2.874 6.3516h5.749l-2.875-6.3516Zm-81.0111 4.4629c.8882.8164 1.3941 1.9687 1.3941 3.1758 0 2.4023-1.96 4.3789-4.3999 4.4218h-8.971V17.5938h8.971c2.4228-.004 4.3918 1.955 4.3999 4.3769 0 1.2441-.5669 2.3613-1.3941 3.1758Zm-3.0488-5.1055H67.988v3.8594h6.4461c1.0888 0 1.959-.8574 1.959-1.9297 0-1.0742-.8702-1.9297-1.959-1.9297ZM67.988 30.2969h6.4461c1.0898 0 1.9599-.9024 2.0029-1.9727 0-.5097-.2134-.9883-.561-1.3418-.3548-.3594-.8491-.5898-1.3989-.5898H67.988v3.9043Zm111.804-6.3516v-6.3086h2.483v15.0195h-2.483v-6.2675h-8.928v6.2675h-2.482V17.6367h2.482v6.3086h8.928Zm-34.757 0c2.439 0 4.443 1.9727 4.443 4.377 0 2.4023-2.003 4.3789-4.444 4.4199h-8.928V17.5938h11.891v2.4453h-9.408v3.9062h6.446Zm-6.445 6.3516h6.446c1.089 0 1.96-.9024 1.96-1.9727 0-1.0312-.871-1.9316-1.96-1.9316h-6.446v3.9043Z"/>
</svg>