<svg xmlns="http://www.w3.org/2000/svg" viewBox="0 0 200 50">
	<path fill="#333" d="M96.4018 23.949c1.1522 0 2.211.0932 3.0207.4046 1.7125.6544 2.8025 2.1179 2.8025 4.2353 0 2.087-1.152 3.6751-2.8647 4.3289-.8099.3114-1.8996.436-3.3634.436H85.4707V18.5303h15.5403v3.4254H89.9862v1.9933h6.4156Zm-.2493 5.6679c.436 0 .7786-.0314 1.0278-.1246.5294-.1868.7473-.6543.7473-1.0903 0-.1645-.0266-.3162-.08-.4509-.0319-.0804-.0734-.155-.1244-.2231-.0895-.1187-.2082-.2172-.3561-.2912-.0452-.0224-.0925-.0426-.1416-.0602-.0789-.0282-.1629-.05-.2518-.0676-.2376-.0469-.5112-.0591-.8212-.0591h-6.1663v2.367h6.1663Zm12.1315-11.0866h6.602l6.073 14.8235h-5.076l-.872-2.1487h-6.851l-.841 2.1487h-5.107l6.072-14.8235Zm3.146 3.4254-2.149 5.9794h4.64l-2.149-5.9794h-.342Zm15.342 5.8862v5.5119h-4.516V18.5303h4.516v5.4187h7.256v-5.4187h4.516v14.8235h-4.516v-5.5119h-7.256Zm18.919 5.5119v-5.6056h1.246l5.387 5.6056h6.011l-7.505-7.7229 7.225-7.1006h-5.668l-5.45 5.5747h-1.246v-5.5747h-4.516v14.8235h4.516Z"/>
	<path fill="#FFDD2D" d="M41 9h36.0001v18.1054c0 4.6414-2.4761 8.9304-6.4955 11.2514L59 45l-11.5045-6.6432C43.476 36.0358 41 31.7468 41 27.1054V9Z"/>
	<path fill="#333" d="M50.8804 18.5303v5.6311c.77-.8695 2.1701-1.458 3.7709-1.458h1.7396v6.5461c0 1.7416-.4732 3.266-1.1753 4.1045h7.5669c-.7006-.8393-1.1727-2.3618-1.1727-4.1011v-6.5495h1.7397c1.6008 0 3.0008.5885 3.7709 1.458v-5.6311h-16.24Z"/>
</svg>