<svg xmlns="http://www.w3.org/2000/svg" viewBox="0 0 200 50">
	<path fill="#212471" d="m180.7 23.7 3.8-7.2h-4l-2.7 6h-1.4v-6H173v15.4h3.4v-6.1h1.6l3.1 6.1h3.9l-4.3-8.2Zm-12.8-.9h-5.7v-6.3h-3.4v15.4h3.4v-6.2h5.7v6.2h3.4V16.5h-3.4v6.3Zm-19.1-6.3-5.5 15.4h3.9l1-3.4h4.7l1.1 3.4h3.9l-5.6-15.4h-3.5Zm.3 9.2 1.5-4.9 1.5 4.9h-3Zm-9-2.8c-1-.5-2.1-.6-3.2-.6h-2.1v-3h6.8v-2.8h-10.2v15.3h5.5c1.6.1 3.2-.4 4.5-1.4 1.1-.9 1.7-2.2 1.7-3.6 0-.8-.2-1.6-.7-2.3-.7-.6-1.4-1.2-2.3-1.6Zm-1.4 5.6c-.5.5-1.1.7-1.8.6h-2.1V25h2.1c.6-.1 1.3.2 1.8.6.4.3.6.7.6 1.3.1.6-.2 1.2-.6 1.6ZM94.3 17.2c-1-.5-2-.6-3.1-.6h-6V32h3.4v-5.4h2.6c1.5.1 3.1-.3 4.3-1.3 1.1-.9 1.7-2.2 1.6-3.5 0-1-.2-1.9-.7-2.7-.6-.9-1.2-1.5-2.1-1.9Zm-1.5 6c-.5.3-1 .6-1.6.5h-2.6v-4.3h2.7c.6-.1 1.1.2 1.5.6.4.5.6 1.1.6 1.7 0 .6-.2 1.1-.6 1.5Zm-19.6 8.7h10.3v-2.8h-6.9v-3.4h6.1v-2.9h-6.1v-3.4h6.9v-2.9H73.2v15.4Zm-3.4-15.4h-10l-.5 6.5c-.1 1.4-.3 2.7-.7 3.9-.3.9-.7 1.6-1.4 2.2h-1.1l.3 6.3h3.1V32h8.6v3.4H71l.4-6.3h-1.6V16.5Zm-3.5 12.6h-5.1c.9-1.4 1.4-3.5 1.6-5.9l.3-3.8h3.2v9.7Zm-15.4-6.3h-5.7v-6.3h-3.4v15.4h3.4v-6.2h5.7v6.2h3.5V16.5h-3.5v6.3Zm-21.6 9.1h10.2v-2.8h-6.8v-3.4h6v-2.9h-6v-3.4h6.8v-2.9H29.3v15.4ZM15 19.4h4.6v12.5H23V19.4h4.6v-2.9H15v2.9ZM126.8 21.1992v14.7h-25.5v-14.7h6.2l-.1 10.8h13.2l.1-10.8h6.1Z"/>
	<path fill="#D2561D" d="m126.8 14.4008-.1 3.8h-9.1l.1 10.8h-7.2l.2-10.7v-.1h-9.1v-3.9l25.2.1Z"/>
</svg>