<svg xmlns="http://www.w3.org/2000/svg" viewBox="0 0 200 50">
	<path fill="#004691" d="M105.452 29.5693H68.2534l2.4094-3.3601-5.9743 5.1713h70.7585l-10.195-8.9821h-21.988l2.188 7.1709Z"/>
	<path fill="#004691" d="M74.2685 33.7563h.4344l.0164.7779-2.8027 2.9099v-3.6878h.4754v-.4594h-2.3276v.4594h.4344v5.3269h-.4344v.4754h2.3276v-.4754h-.4754v-.7955l2.8027-2.926-.0164 3.7215h-.4344v.4754h2.3111v-.4754h-.4507v-5.3269h.4507v-.4594h-2.3111v.4594Zm-5.6627 3.0892c-.3323-.2929-.7539-.4658-1.1966-.4914v-.0896c.0778-.0128.1546-.0321.2295-.0577l.2459-.0896c.2344-.1136.4457-.2689.6228-.4594.1128-.1376.1935-.2977.2383-.4674.0142-.0528.0246-.1072.0316-.1632.0078-.0625.0108-.1249.0088-.1889v-.2465c0-.048 0-.0896-.0096-.1329-.0086-.0384-.025-.0784-.056-.12-.1205-.2817-.3271-.517-.59-.6723-.4354-.2401-.9306-.3473-1.426-.3121H64v.4594h.4344v5.3189H64v.4754H67.3766c.197-.0144.3921-.0512.5818-.1072.3095-.0753.5926-.2353.8195-.4578.1273-.1409.2219-.3089.2771-.4898.0552-.1809.0698-.373.0424-.5602.0156-.2161-.021-.4338-.1064-.6339-.0856-.1985-.2177-.3745-.3852-.5138Zm-2.7783-3.0812h.2131c.0818-.008.1641-.008.2459 0l.2785.0496c.2027.0528.387.16.5328.3121.0987.1089.1717.2401.2141.381.0426.1424.0534.2913.0318.4385.008.1505-.0162.3026-.0714.4434-.055.1409-.1396.2689-.2483.3762-.2225.2048-.517.3137-.8195.3025h-.3934l.0164-2.3033Zm1.2747 5.1252c-.087.0576-.1822.1041-.2831.1361-.0958.0416-.1989.064-.3031.0656l-.1274.0048-.1267-.0048h-.4344V36.527h.5491c.3005.0384.5842.1616.8195.3521.1342.1169.2385.2641.3041.429.0654.1664.0906.3441.073.5218.0262.2961-.0586.5906-.2377.8275v.024c-.0678.0801-.1464.1505-.2333.2081Zm32.4816-5.1332v-.4354h4.5732v.8195h-.443v-.3841h-2.262v5.3269h.476v.4834h-2.3196v-.4834h.4506v-5.3269h-.4752Zm18.0292-.4594h-.598l-2.737 5.7863h-.385v.4754h1.442v-.4754h-.401l.532-1.2133h2.762l.582 1.2133h-.393v.4754h2.327v-.4754h-.369l-2.762-5.7863Zm.361 4.0976h-2.237l1.106-2.4009 1.131 2.4009Zm10.252-3.6382h-.434v5.3269h.451l-.017.4754h-2.311v-.4754h.451l-.016-2.5162h-3.016l-.008 2.5162h.459v.4754h-2.328v-.4754h.435v-5.3269h-.435v-.4594h2.328v.4594h-.459l.008 2.3353h3.016l.016-2.3353h-.451v-.4594h2.311v.4594Zm4.516 1.7126 1.631-1.7126h.729v-.4594h-2.311v.4594h.803l-2.335 2.4409.008-2.4409h.459v-.4594h-2.319v.4594h.434v5.3269h-.434v.4754h2.319v-.4754h-.459l-.008-2.0744.688-.7123 1.303 2.7867h-.459v.4754h2.319v-.4754h-.442l-1.926-3.6143Zm-43.6646-1.7126h-.4505v-.4594h2.3273v.4594h-.4508v5.3269h.4508v.4754h-2.3273v-.4754h.4505v-3.7215l-2.7863 2.926v.7955h.459v.4754H84.439v-.4754h.4343v-5.3269h-.4343v-.4594h2.3111v.4594h-.459v3.6878l2.7863-2.9099v-.7779Zm-8.1704 1.7126 1.6554-1.7126h.7211v-.4594h-2.3111v.4594h.8115l-2.3521 2.4409.0082-2.4409h.459v-.4594h-2.3112v.4594h.4344v5.3269h-.4344v.4754h2.3112v-.4754h-.459l-.0082-2.0744.6967-.7123 1.3029 2.7867h-.459v.4754h2.3111v-.4754h-.4426l-1.9339-3.6143Zm31.953.778c.311.2433.531.5842.623.9667.029.0833.051.1681.066.2545v.2289c0 .0913.016.1889 0 .2882-.017.0976-.066.2048-.066.3025-.123.3569-.352.669-.656.8931-.484.317-1.062.461-1.639.4098h-2.786v-.4834h.451v-5.3509h-.451v-.4514h4.704v.8195h-.475v-.3601h-2.352v2.0488h.868c.259-.024.518-.0096.769.04.335.0672.656.2001.944.3938Zm-1.991 2.8443c.293.0208.584-.0624.819-.2385.189-.1633.279-.549.303-1.1797.035-.3601-.045-.7219-.229-1.0324l-.047-.0592-.063-.0656c-.112-.1041-.248-.1809-.398-.2193H110.303v2.7947h.566Zm-12.6373-5.3349h.4508v-.4594h-2.3112v.4594h.4344v2.3353h-3.0322v-2.3353h.4508v-.4594h-2.3111v.4594h.4343v5.3269h-.4343v.4754h2.3111v-.4754h-.4508V36.567h3.0322v2.5162h-.4344v.4754h2.3112v-.4754h-.4508v-5.3269Zm10.7463 11.4205c.067-.1536.099-.3201.096-.4882-.001-.1776-.046-.3521-.13-.5074l-.018-.0288c-.014-.0256-.03-.0512-.046-.0736l-.055-.072c-.067-.0817-.146-.1521-.235-.2113-.083-.0608-.17-.1169-.259-.1681l-.104-.0576c-.063-.0336-.128-.064-.193-.0913l-.165-.0624-.082-.0288-.09-.0272-.319-.0976c-.09-.0256-.179-.0561-.265-.0897-.088-.0352-.175-.0736-.26-.1152-.082-.0448-.15-.1121-.198-.1921-.047-.0816-.072-.1729-.072-.2673-.006-.0816.008-.1649.041-.2401.013-.0304.029-.0592.048-.0864.027-.0401.061-.0769.099-.1073.141-.1088.315-.1632.492-.1552.303.0112.592.1264.819.3265.218.1905.406.4114.558.6563l.205-.0657-.353-1.1636c-.034.0304-.07.0592-.108.0848-.031.0208-.063.0384-.097.0544-.068.0384-.143.0608-.221.0656h-.229c-.038-.0176-.076-.0336-.115-.0464-.059-.0192-.119-.0336-.181-.0432h-.295c-.303.0016-.595.1153-.819.3185-.113.1041-.202.2305-.262.373-.059.1408-.087.2945-.082.4466-.007.2657.084.525.254.7299.18.176.391.3185.623.4177.237.1057.481.1953.729.2705.182.0464.355.1185.516.2129.036.024.07.0512.1.0816l.033.0369c.02.024.037.0496.053.0784.044.0816.068.1713.068.2625.003.0976-.018.1937-.061.2801-.043.088-.106.1633-.185.2193l-.059.048-.055.0352c-.032.0192-.065.0352-.099.0497l-.034.0144c-.045.016-.091.0272-.138.0368-.027.0048-.055.0096-.083.0112l-.081.0016-.096-.0064-.092-.0128c-.112-.0208-.221-.0545-.324-.1009-.037-.016-.073-.0352-.108-.056-.046-.0256-.09-.056-.133-.088-.04-.0304-.078-.0625-.115-.0961-.241-.2177-.448-.469-.615-.7459l-.205.0657.344 1.2373c.11-.0545.222-.1041.336-.1473.027-.0048.053-.0064.08-.0048l.06.0048h.278c.115.04.233.0704.353.0896h.328c.345.0032.68-.1264.934-.3601.058-.0528.111-.1121.158-.1761.052-.0704.096-.1472.131-.2289Zm1.76.6579h-1.451v-.1633c.042.0064.085.0032.126-.008.041-.0112.079-.0304.112-.0576.082-.0576.106-.1889.106-.3762v-1.09c.009-.1184-.014-.2385-.065-.3441-.036-.0496-.083-.0913-.137-.1201-.054-.0272-.114-.0432-.175-.0448v-.1633l1.156-.3361v2.1881c-.006.0512 0 .104.017.1536.017.0497.044.0961.081.1329.067.048.148.0704.23.0656v.1633Zm-.304-3.5726c0 .12-.047.2337-.132.3185-.084.0848-.199.1328-.318.1328l-.05-.0032-.062-.0096-.032-.0096-.03-.0112c-.036-.0144-.069-.0336-.1-.0576l-.046-.04c-.033-.0368-.059-.0768-.079-.1201-.029-.0624-.044-.1296-.044-.2 0-.1185.044-.2321.123-.3202.041-.0416.091-.0752.146-.0976.055-.0224.114-.0336.174-.032.03-.0032.06-.0016.09.0032.029.0048.057.0128.085.024.055.024.105.0576.144.1024.022.0208.042.0449.058.0689.017.024.031.0496.042.0768.023.056.034.1152.031.1745Zm2.172 3.5742h1.442v-.1729c-.081 0-.16-.0224-.229-.0656-.04-.0368-.072-.0832-.092-.1345-.009-.0256-.016-.0512-.02-.0784-.004-.0272-.005-.0544-.003-.0816v-1.3526c.001-.0448-.003-.0896-.011-.1344-.005-.0304-.012-.0608-.021-.0897-.033-.112-.092-.2144-.173-.3009-.07-.08-.157-.144-.255-.1872-.097-.0449-.203-.0673-.31-.0657-.174.0064-.343.056-.492.1473-.09.0576-.229.1472-.434.2945v-.4834l-1.156.3361v.1633l.051.0048.059.0144c.022.0064.044.016.065.0272.022.0128.044.0256.064.0416.027.0225.052.0481.073.0769.046.1088.068.2257.065.3441v1.09l.005.0673c0 .024-.002.0512-.006.0752l-.012.0576c-.018.0641-.05.1249-.093.1761-.07.0544-.159.0768-.246.0656v.1649h1.475v-.1649c-.082.0064-.163-.0176-.229-.0656-.038-.0368-.067-.0816-.086-.1313-.018-.0496-.025-.1024-.021-.1552v-1.3926c.061-.0784.136-.1456.221-.1969.081-.0592.179-.0912.279-.0912.063-.0048.127.0064.185.0336.058.0288.107.0705.143.1233.083.1664.12.3537.106.541v.8931c0 .1873-.024.3186-.106.3762-.033.0272-.071.0464-.112.0576-.041.0112-.084.0144-.126.008v.1649Zm4.254-.6723c-.044.0689-.093.1345-.147.1953l-.049.0528-.033.0336-.064.0577-.089.0736c-.058.0448-.12.0848-.184.12-.136.0785-.283.1345-.436.1665-.099.0208-.2.0304-.301.0304-.166.0016-.331-.0304-.483-.096-.152-.064-.289-.1601-.403-.2817-.116-.1185-.207-.2593-.268-.4146-.03-.0768-.052-.1569-.066-.2385-.013-.072-.019-.1457-.018-.2193v-.0288c-.003-.1905.032-.3793.104-.5554.072-.1761.178-.3362.314-.469.217-.2001.486-.3345.777-.3874.184-.032.372-.032.554 0 .105.0192.208.0497.308.0913.102.0352.191.0976.257.1824.021.0289.04.0577.056.0881.016.032.028.0656.038.0992l.014.0672.004.0385c-.002.0544-.014.1072-.036.1552-.019.0432-.046.0817-.079.1153-.079.064-.177.0992-.278.0992-.055.0048-.11-.0032-.16-.0256-.05-.0208-.094-.0544-.127-.0976l-.052-.1393-.038-.1312c-.009-.0993-.049-.1953-.115-.2706-.018-.0192-.038-.0368-.06-.0512l-.048-.024c-.041-.0176-.086-.0256-.13-.0224-.099.0016-.194.0368-.271.0992-.039.0321-.072.0689-.098.1105l-.016.0288-.022.0448-.019.0608c-.024.0673-.043.1361-.058.2065-.026.1249-.04.2497-.04.3746-.012.2833.044.5634.164.8195.024.0592.057.1153.096.1649.046.0592.102.1104.165.152.117.0785.254.1185.394.1185.162-.0016.319-.0592.443-.1649.128-.0992.244-.2145.344-.3441l.156.1152Zm2.261.5907c.214-.1089.402-.2625.55-.4514l-.132-.1137c-.063.0705-.135.1345-.212.1905l-.074.0496-.066.0384c-.132.0753-.282.1153-.434.1153-.132.0032-.262-.024-.38-.0816-.119-.0577-.222-.1425-.301-.2465-.162-.1985-.249-.4482-.245-.7059h1.819c.013-.3538-.11-.6995-.344-.9668-.111-.1265-.248-.2273-.403-.2945-.155-.0657-.322-.0977-.49-.0897-.191-.008-.381.0304-.555.1105-.066.0304-.13.0672-.189.1088-.048.032-.093.0689-.136.1089-.043.04-.083.0832-.12.1296-.127.1505-.221.3249-.278.5106-.046.1473-.069.3009-.067.4562-.009.1777.024.3537.095.517.025.0576.055.1137.089.1649.031.0464.066.0912.103.1328.038.0432.079.0833.123.1201.082.0704.17.1312.264.1809.108.056.223.0992.341.1264.118.0272.24.04.362.0368.143.0032.285-.0144.423-.0512l.123-.0384.067-.0272.067-.0304Zm-.27-2.0985c.081.2033.117.421.107.6403h-1.131c-.006-.2001.039-.397.131-.5747.039-.0928.105-.1728.19-.2272.084-.0561.184-.0849.285-.0833.031-.0032.061-.0032.091 0 .055.008.109.0272.157.056.04.0225.075.0513.105.0865.026.0304.048.0656.065.1024Zm5.671 2.1801h-2.336v-.1649c.213.0256.428-.0176.615-.1216.054-.0785.097-.1617.128-.2497.054-.1521.073-.3169.052-.4802v-1.5574l.002-.0641c-.002-.0736-.015-.1472-.039-.2161-.031-.0896-.08-.1728-.143-.2448-.084-.0721-.181-.1265-.287-.1601-.106-.0352-.217-.0464-.328-.0368v-.1633c.573-.056 1.129-.2193 1.64-.4834v3.1053c-.008.064-.009.128-.003.1904.012.1201.049.2369.109.3426.202.1216.439.1712.672.1392l-.082.1649Zm3.352-.5986c.351-.4242.54-.9588.533-1.5079-.013-.4513-.171-.8851-.451-1.2388-.069-.0849-.148-.1617-.234-.2289-.092-.0737-.193-.1361-.3-.1857-.208-.0961-.434-.1457-.662-.1425-.215-.0048-.427.032-.625.1073l-.086.0352c-.041.0176-.082.0384-.122.0608-.094.0512-.183.1121-.266.1825-.146.1248-.262.2817-.34.4562-.079.176-.116.3681-.11.5602-.009.2977.09.589.278.8195.071.0785.153.1441.244.1953.041.024.084.0448.128.0624.142.0576.295.0817.448.0705.22-.0017.436-.0545.631-.1569.087-.0416.17-.0896.249-.1441.058-.0384.113-.08.165-.1248.047-.0416.092-.0865.135-.1329.036.4962-.057.994-.271 1.4438-.021.0384-.047.0736-.076.1072-.044.0497-.097.0929-.155.1265-.096.056-.206.0848-.318.0848-.032-.0016-.064-.008-.095-.0192-.019-.008-.038-.0176-.056-.0288l-.027-.0192c-.028-.0224-.051-.0496-.068-.08-.015-.0256-.026-.0528-.032-.0817-.131-.3201-.287-.4914-.459-.4914-.111-.008-.222.0241-.312.0897-.038.0336-.067.0752-.087.1232-.02.0464-.029.0961-.027.1473.002.096.03.1873.082.2673.053.08.126.1441.213.1841.074.0368.15.0688.229.0928.067.0192.135.0336.203.0432.069.0096.138.0128.207.0112.125.0016.249-.0096.37-.0336.148-.0304.291-.0784.427-.144.249-.1185.467-.2946.637-.5106Zm-.516-2.5819c.039.1345.069.2705.088.4082.023.16.032.3217.027.485v-.024c-.068.1104-.154.2113-.255.2945-.143.152-.34.2417-.549.2545-.101.0016-.2-.0272-.286-.08-.044-.0273-.083-.0609-.116-.0993-.033-.0368-.06-.0784-.081-.1248-.093-.1857-.138-.3906-.131-.5987-.01-.2417.038-.4834.139-.7043.05-.1072.13-.1984.23-.2625.045-.0288.093-.0512.142-.0672.062-.0192.127-.0304.194-.0304.152 0 .283.0528.388.1633.088.0912.158.2193.21.3857Zm4.614 2.0328c-.001.1569-.037.3122-.105.4546-.068.1409-.167.2657-.289.365-.358.2945-.815.4417-1.278.4097-.345.0128-.688-.0576-1-.2049-.165-.0608-.306-.1744-.402-.3217-.096-.1472-.142-.3217-.131-.4978.004-.112.031-.2225.078-.3233.048-.1025.117-.1921.201-.2673.174-.1473.364-.2769.565-.3842-.168-.0928-.315-.2177-.434-.3697-.121-.1505-.185-.3394-.18-.5314-.007-.1745.032-.3458.114-.4994.082-.1521.204-.2801.353-.3698.295-.1985.645-.2993 1-.2865.301-.008.6.0592.869.1953.138.0544.258.1488.343.2721.085.1232.131.2673.132.4178-.001.0944-.022.1904-.062.2769-.039.088-.097.1664-.168.2305-.144.1328-.314.2321-.5.2945.229.112.443.2497.64.4097.17.2049.26.4642.254.7299Zm-.689.3602c-.001-.056-.011-.1121-.028-.1665-.011-.0336-.024-.064-.039-.0928l-.016-.0288c-.019-.0321-.041-.0625-.066-.0913-.042-.0464-.091-.088-.146-.12-.18-.1057-.37-.1969-.565-.2705l-.525-.2049c-.107.0992-.201.2129-.278.3361-.07.1281-.104.2721-.099.4178-.006.1184.013.2369.057.3473.019.0496.044.0961.072.1409.035.0544.077.1056.125.1504.191.1521.429.2305.672.2225.092 0 .183-.0112.27-.0336.104-.0256.204-.0672.296-.1232.083-.0496.151-.1217.198-.2065.029-.0512.05-.1073.061-.1649.008-.0368.011-.0736.011-.112Zm-.139-2.2617c.004-.0993-.019-.1985-.067-.2865-.047-.0881-.118-.1617-.203-.2129-.069-.0432-.141-.0769-.217-.1025-.112-.0384-.23-.056-.349-.0528-.089-.0032-.178.008-.262.0336-.063.0192-.123.0464-.18.0801-.071.0368-.13.0928-.17.16-.041.0688-.061.1457-.06.2257.003.048.011.096.023.1409.02.0704.051.136.094.1968.069.1009.165.1793.276.2273.042.0224.114.0545.214.0945l.467.184c.061-.0464.12-.096.177-.1488.043-.0416.086-.0848.126-.1297.087-.1184.133-.2625.131-.4097Zm4.324 2.1944c.029-.0944.043-.192.044-.2929.011-.2705-.08-.5362-.254-.7459-.196-.16-.411-.2977-.639-.4097.112-.0368.219-.0881.316-.1521.062-.0416.121-.0896.175-.1424.073-.0641.131-.1409.171-.2289.039-.0881.059-.1825.059-.2786 0-.1488-.044-.2945-.127-.4177-.084-.1217-.202-.2177-.34-.2721-.269-.1345-.567-.2033-.869-.1953-.355-.0128-.705.088-1 .2865-.148.0896-.27.2177-.352.3698-.083.1536-.122.3249-.115.4994 0 .1904.06.3777.172.5314.123.1472.269.2721.435.3697-.198.1089-.385.2385-.558.3842-.087.072-.157.1616-.205.2641-.048.1024-.073.2145-.073.3265-.011.1761.035.3505.131.4978.095.1473.236.2609.401.3217.311.1537.654.2289 1 .2209.461.0336.916-.1136 1.27-.4097.125-.0977.226-.2209.295-.3634.026-.0528.047-.1072.063-.1633Zm-.727-.2192c.052.0864.08.1856.083.2881 0 .0976-.027.1953-.077.2801-.051.0848-.123.1553-.21.2033-.168.1024-.361.1552-.557.1552-.246.0096-.488-.0688-.681-.2209-.042-.04-.079-.0848-.112-.1328-.034-.0496-.063-.1041-.085-.1601-.044-.1104-.063-.2289-.057-.3473 0-.1441.034-.2881.099-.4178.078-.1264.174-.2385.287-.3361l.524.2049c.198.0752.39.1648.574.2705.087.0512.16.1248.212.2129Zm-.127-2.2601c.046.088.068.1856.062.2849.005.1472-.038.2913-.123.4097-.095.1025-.199.1953-.311.2785-.236-.0928-.416-.1632-.537-.216-.06-.0256-.105-.0465-.135-.0625-.112-.048-.208-.1264-.277-.2257-.07-.1008-.11-.2176-.117-.3393 0-.0496.007-.0992.023-.1456.01-.0273.022-.0545.037-.0801.041-.0672.1-.1232.17-.16.134-.0785.287-.1185.443-.1137.199-.0048.396.0496.565.1553.06.0368.113.0848.155.1424.017.0224.032.0464.045.0721ZM102.477 19.3584l-1.598-5.7783h14.341l8.04 7.3997H76.6206l5.4005-4.7363-2.3101 3.1149h22.766ZM99.8543 10.4242 98.666 6h7.564l7.015 6.1625H86.8237l5.6957-4.93321-2.1545 3.19491h9.4894Z"/>
</svg>