<svg viewBox="0 0 200 50" xmlns="http://www.w3.org/2000/svg">
	<path fill="#9D235A" d="M5.68039 20.5892v.0396c.01979.0594.02969.1089.03958.1584.0099.0494.01979.0989.03958.1583l.03959.0791c.03958.1188.07916.2375.11874.3167l.03958.0396c.11875.2771.27708.5541.47498.8312l.03959.0792c.03958.0395.07916.0791.11874.1583v.0396c.03958.0593.08906.1088.13854.1583.04947.0495.09895.099.13853.1583l3.40406-3.404L10.3115 12l-3.127 3.0874-.23749.2771c-.8708.8708-1.34578 2.6915-1.38536 3.9581v.5146c0 .1187 0 .1979.03958.3166V20.2726c0 .0594.00989.1088.01979.1583.00989.0495.01979.099.01979.1583.03958-.0395.03958 0 .03958 0zm22.12621-.5145v.1188c0 .0396 0 .0396-.0792.1187 0 .0198-.0099.0495-.0198.0792-.0099.0297-.0198.0594-.0198.0792v.0395c0 .0396-.0099.0693-.0198.099-.0099.0297-.0198.0594-.0198.099 0 .0197-.0099.0494-.0198.0791-.0099.0297-.0198.0594-.0198.0792-.0197.0396-.0296.0791-.0395.1187-.0099.0396-.0198.0792-.0396.1188 0 .0198-.0099.0396-.0198.0593-.0099.0198-.0198.0396-.0198.0594-.0198.0396-.0396.0891-.0594.1385v.0002l-.0001.0001c-.0197.0494-.0395.0988-.0592.1383l-.0396.0792c-.1583.3166-.3563.6728-.5937.9499l-.0396.0396c-.0792.1187-.1979.2375-.2771.3166v.0001c-.95-.7917-2.177-1.2271-3.4436-1.2271-1.425 0-2.8103.5542-3.8394 1.5833l-4.9478 4.9477.0396-7.4018 5.0269-5.0664c.95-.95 2.177-1.4646 3.5228-1.5437h.2375c1.3062 0 2.4936.5145 3.404 1.4249 1.0687 1.0687 1.5041 3.0082 1.3854 4.354v.1187zM6.47198 23.3204c-.71248-.7125-1.22704-1.6228-1.42495-2.6124l-.03958 6.1352c-.07916 1.5041.47498 2.9686 1.54369 3.9977l7.08516 7.0852v-2.2166l.0396-.0396 2.6124-2.6124c-.3876-.3681-2.7386-2.7093-5.0426-5.0035-2.40237-2.3923-4.75352-4.7336-4.77372-4.7336zm21.84912-2.4937c-.2375.9104-.7125 1.7812-1.3854 2.4541l-.0396.0396L14.2696 35.947l-.0396 7.4017 12.5474-12.5078c1.1083-1.1083 1.6624-2.652 1.5437-4.1957v-5.8185zm17.0994 1.8208c0-1.702-1.2271-2.8894-3.7207-2.8894H36.475v11.4391h5.8581c2.1374 0 3.6019-1.3458 3.6019-3.3645 0-1.4645-.8312-2.454-2.1374-2.7707.95-.3958 1.6229-1.3062 1.6229-2.4145zm-4.2749 1.9h-2.7311v-3.1666h2.8103c1.1479 0 2.177.1583 2.177 1.5833 0 1.1479-.7521 1.5833-2.2562 1.5833zm.2771 5.0268h-2.9686V26.012h2.9686c1.3062 0 2.4937.1979 2.4937 1.7812 0 1.4645-1.1479 1.7811-2.4937 1.7811zm13.2599 1.5832v-9.6579h-3.5228l-.2375 5.4227c-.1188 3.2061-1.425 4.4727-3.0874 4.4727-.4354 0-.9104-.1187-1.1874-.1979v-1.5437c.2375.0792.6333.1188.7916.1188.8312 0 1.4645-.475 1.5437-3.4041l.2375-6.6497h7.4809v11.4391h-2.0186zm12.1911.0397h2.1375l-4.3936-11.4391h-2.1374L58.047 31.1972h2.0582l1.1083-3.0478h4.5519l1.1083 3.0478zm-5.1456-4.5519l1.7812-4.829 1.702 4.829h-3.4832zm17.614 7.3621v-2.8103h-7.4414v2.8499h-1.9791v-4.5915h1.1083c.8708-1.5437 1.5041-4.7894 1.5041-7.9559v-1.7812h7.4414v9.6975h1.2666v4.5915h-1.8999zm-1.3854-12.5078h-3.4832v.6729c0 2.8498-.5937 5.8581-1.3062 7.283h4.7894v-7.9559zm5.0269 9.6976h5.4227c2.4937 0 3.9186-1.2666 3.9186-3.5228 0-2.2561-1.4249-3.5228-3.9186-3.5228h-3.404v-2.6519h6.4123v-1.7416h-8.431v11.4391zm1.9791-5.4227h3.3249c1.2666 0 2.0187.7125 1.9791 1.9395 0 1.227-.6729 1.8603-1.9791 1.8603h-3.3249v-3.7998zm9.3017-6.0164h1.9791v8.7871l4.9475-8.7871h2.296v11.4391h-1.979V22.41l-4.9478 8.7872h-2.2958V19.7581zm11.2416 7.6392c0 2.7707 2.097 4.0374 4.829 4.0374 3.206 0 4.354-2.1375 4.393-3.5624 0-1.4645-.91-2.5728-2.177-2.8103v-.0396c.871-.2375 1.821-1.2666 1.821-2.4541 0-2.1374-1.86-3.0873-4.117-3.0873-2.335 0-4.195 1.0291-4.274 3.6019h1.9c.118-1.4249 1.068-2.0187 2.493-2.0187 1.267 0 2.019.5938 2.019 1.6229 0 1.0687-.792 1.7812-1.821 1.7812h-1.385v1.5437h1.385c1.306 0 2.138.5937 2.138 1.8207 0 1.3062-.792 2.0187-2.257 2.0187-1.623 0-2.968-.6729-2.968-2.4541h-1.979zm20.661 3.7999h-2.018v-5.1456h-5.225v5.1456h-2.019V19.7581h2.019V24.31h5.225v-4.5519h2.018v11.4391zm4.671-9.7371h6.254v-1.702h-8.233v11.4391h8.312v-1.702h-6.333v-3.4041h5.779v-1.6228h-5.779v-3.0082zm13.299 10.0142c-3.245 0-5.343-2.3749-5.343-5.9769 0-3.2457 1.979-5.9768 5.462-5.9768 2.296 0 4.394 1.2666 4.79 3.9186h-1.979c-.278-1.3854-1.346-2.2166-2.811-2.2166-2.414 0-3.404 2.177-3.404 4.2748 0 2.1374.95 4.2748 3.365 4.2748 1.86 0 2.731-1.227 2.929-2.929h2.018c-.277 2.7707-2.177 4.6311-5.027 4.6311zm16.229-11.1225v-.5937h-7.877v11.4391h4.869c1.306 0 3.72-.6333 3.72-3.2061 0-2.0187-1.345-3.1666-3.641-3.1666h-4.235v-4.4727h7.164zm-7.125 10.2517v-5.1457h4.354c2.098 0 2.85 1.3854 2.85 2.5728 0 1.2667-.792 2.5729-3.246 2.5729h-3.958zm18.445.5937h-.752l-1.425-3.6811h-5.502l-1.464 3.6811h-.792l4.631-11.4391h.752l4.552 11.4391zm-4.73-10.172v-.0005c-.069-.2078-.138-.4156-.217-.5938-.08.198-.149.386-.218.574-.069.188-.139.376-.218.5739l-2.137 5.3436h5.106l-2.098-5.304c-.079-.178-.148-.3856-.218-.5932zm14.547 10.172h.712V19.7581h-.712v5.1456h-7.323v-5.1456h-.673v11.4391h.673V25.537h7.323v5.6602zm7.243-6.6893l5.581 6.6893h-.871l-5.224-6.2143-2.375 2.1769v4.0374h-.673V19.7581h.673v6.5705l7.243-6.5705h.91l-5.264 4.7498zM195 33.0971H82.9836v-.277H194.683l.317.277z"/>
</svg>
