<svg xmlns="http://www.w3.org/2000/svg" viewBox="0 0 200 50">
	<path opacity=".5" fill="#688fae" d="M38.2 14C32 14 27 19 27 25.1c0 6.2 5 11.2 11.1 11.2 6.2 0 11.2-5 11.2-11.2C49.4 19 44.4 14 38.2 14zm0 21.6c-5.7 0-10.4-4.7-10.4-10.4s4.7-10.4 10.4-10.4 10.4 4.7 10.4 10.4S44 35.6 38.2 35.6z"/>
	<path fill="#688fae" d="M52.2 14C46 14 41 19 41 25.1c0 6.2 5 11.2 11.1 11.2 6.2 0 11.2-5 11.2-11.2 0-6.1-5-11.1-11.1-11.1zm0 21.6c-5.7 0-10.4-4.7-10.4-10.4s4.7-10.4 10.4-10.4 10.4 4.7 10.4 10.4-4.7 10.4-10.4 10.4zM88.9 29.8c-.1-.3-.2-.3-.5-.2-.6.2-1.4.5-2.2.5-1.7 0-2.2-1.2-2.2-2.8 0-1.6.6-2.9 2.1-2.9.6 0 1.3.1 1.9.4.4.1.5.1.6-.2l.5-1.5c.1-.3.1-.4-.2-.6-.9-.5-2-.7-3.1-.7-3 0-4.9 2.1-4.9 5.5 0 3.6 1.6 5.4 4.7 5.4 1.1 0 2.5-.2 3.6-.8.3-.2.3-.3.1-.6l-.4-1.5zM112.2 18.5h-8.7c-.9 0-1.3.4-1.3 1.3V32c0 .3.1.4.4.4h2.1c.4 0 .4-.1.4-.4V21.1h5.3V32c0 .3.1.4.4.4h2.1c.4 0 .4-.1.4-.4V19.8c.2-.9-.1-1.3-1.1-1.3zM124.2 22h-5.5c-.9 0-1.2.3-1.2 1.2l-.1 2.2c-.2 4-.5 4.7-1.9 5.3-.3.2-.4.3-.2.6l.5 1.3c.1.3.2.4.6.2 3-1 3.4-2.8 3.7-7.5l.1-1h2.4V32c0 .3.1.4.5.4h2c.4 0 .5-.1.5-.4v-8.8c-.3-.9-.5-1.2-1.4-1.2zM146.8 22h-8.4c-.3 0-.4.1-.4.5v1.4c0 .3.1.4.4.4h2.8V32c0 .3.2.4.5.4h1.9c.4 0 .5-.1.5-.4v-7.7h2.8c.2 0 .4-.1.4-.4v-1.4c-.1-.4-.2-.5-.5-.5zM173.6 32l-1-3.4c-.3-.9-.5-1.5-1.7-1.8.8-.3 1.2-1 1.4-1.8l.7-2.6c0-.1 0-.3-.2-.3h-2.2c-.1 0-.3 0-.3.3l-.7 2.2c-.4 1.1-.9 1.4-1.6 1.4h-.6v-3.5c0-.3-.1-.3-.4-.3h-2.1c-.3 0-.4 0-.4.3V26h-.5c-.7 0-1.3-.3-1.6-1.4l-.7-2.2c-.1-.2-.2-.3-.3-.3h-2.2c-.3 0-.3.2-.2.3l.7 2.6c.2.8.6 1.5 1.4 1.8-1.1.3-1.4 1-1.7 1.8l-1 3.4c0 .1 0 .3.3.3h2.3c.1 0 .3 0 .3-.2l.9-3.1c.2-.9.8-1.2 1.6-1.2h.8V32c0 .3.1.3.4.3h2.1c.2 0 .4 0 .4-.3v-4.2h.8c.8 0 1.4.3 1.7 1.2l.9 3.1c.1.2.2.2.3.2h2.3c.1.1.1-.1.1-.3zM183.9 22h-1c-.7 0-.8.1-1.2.7-.9 1.4-1.5 2.4-2 3.2l-.3.6c-.2.4-.5.9-1.2 2h-.1v-6.1c0-.3-.1-.3-.4-.3h-2.1c-.2 0-.4.1-.4.3v9c0 .7.2 1.1 1.1 1.1h.9c.6 0 .8-.1 1.2-.7.4-.6.7-1.2 1.1-1.7.2-.4.5-.8.7-1.1.3-.4.5-.9.8-1.3.3-.5.6-1 .9-1.4h.1v6c0 .3.1.3.4.3h2.1c.3 0 .4-.1.4-.3v-9c.1-1.1-.3-1.3-1-1.3zM76.9 24.8v-.1c.9-.5 1.5-1.5 1.5-2.7 0-2.5-1.8-3.5-4.2-3.5h-4.8c-.9 0-1.2.4-1.2 1.2v11.5c0 .9.2 1.2 1.2 1.2h4.9c2.6 0 4.7-1.7 4.7-4.2 0-1.4-.6-2.8-2.1-3.4zm-5.7-3.7H74c.8 0 1.4.5 1.4 1.3 0 1.1-.8 1.4-1.5 1.4h-2.7v-2.7zm2.8 8.6h-2.8v-3.6H74c1.2 0 1.9.7 1.9 1.8 0 .8-.4 1.8-1.9 1.8zM95.7 21.7c-2.9 0-4.8 2-4.8 5.5 0 3.7 1.6 5.4 5 5.4 1.1 0 2.5-.3 3.5-.9.2-.1.3-.2.2-.5l-.6-1.4c-.1-.2-.2-.2-.5-.1-.7.3-1.5.5-2.2.5-1.3 0-2.3-.5-2.3-2.2h5c.9 0 1.5-.4 1.5-1.8-.2-2.9-1.7-4.5-4.8-4.5zm-1.8 4.5c.1-1.2.8-2 1.9-2 1.4 0 1.8.9 1.8 2h-3.7zM132.4 21.7c-1.3 0-2.6.2-3.8.6-.2.1-.3.2-.2.5l.3 1.4c.1.3.2.3.5.3.7-.2 2-.4 2.8-.4 1.5 0 1.7.7 1.7 1.4v.3h-2.2c-2.8 0-4.1 1.5-4.1 3.6 0 1.8 1 3.3 4.6 3.3 1.3 0 3-.2 4.1-.7.4-.2.4-.4.4-.8v-5.8c0-2.4-1.3-3.7-4.1-3.7zm1.3 8.4c-.5.2-1.3.3-1.6.3-1 0-1.7-.3-1.7-1.2 0-1.3 1.1-1.4 1.8-1.4h1.5v2.3zM152.6 21.7c-3 0-4.8 2-4.8 5.5 0 3.7 1.6 5.4 5 5.4 1.1 0 2.5-.3 3.5-.9.2-.1.3-.2.2-.5l-.6-1.4c-.1-.2-.2-.2-.5-.1-.7.3-1.5.5-2.2.5-1.3 0-2.3-.5-2.3-2.2h5c.9 0 1.5-.4 1.5-1.8-.2-2.9-1.8-4.5-4.8-4.5zm-1.8 4.5c.1-1.2.8-2 1.9-2 1.4 0 1.8.9 1.8 2h-3.7zM36.2 25.1c0 6-4.8 10.8-10.6 10.8-5.9 0-10.6-4.8-10.6-10.8 0-6 4.8-10.8 10.6-10.8 5.9.1 10.6 4.9 10.6 10.8z"/>
</svg>