<svg viewBox="0 0 200 50" xmlns="http://www.w3.org/2000/svg">
	<path fill="#009FDF" d="m56.9047 7-1.7279 4.7398h23.9368L80.8416 7H56.9047Zm-2.5909 7.1076-1.7279 4.7388h23.9368l1.728-4.7388H54.3138Zm-2.5859 7.1076L50 25.953h23.9369l1.7259-4.7388c.001.001-23.9349.001-23.9349.001Z"/>
	<path fill="#0A2973" d="M100.322 27.4405v.0984c1.075.3948 2.103 1.086 2.64 1.53 1.662 1.3824 2.396 3.2077 2.396 5.5766 0 3.9009-2.053 6.7128-5.4278 7.6019-1.0277.2964-2.1027.3948-4.1069.3948H85.6064V14.1133h9.0456c1.8585 0 3.1283.0984 4.2525.3938 3.2765.8891 5.4275 3.1595 5.4275 6.762 0 1.9259-.684 3.5553-1.808 4.6403-.489.4933-1.173 1.086-2.2 1.53l-.002.0011Zm-9.0445 3.0108v7.5024h3.9119c1.1724 0 2.2494-.0984 3.0309-.8388.7826-.7404 1.1242-1.6787 1.1242-2.9124 0-.9363-.2451-1.8254-.7334-2.4673-.8308-1.0368-1.8585-1.2839-3.6176-1.2839h-3.717.001Zm-.0503-4.9367h3.1786c.9775 0 1.4668 0 1.955-.1477 1.3211-.3958 2.1519-1.5782 2.1519-3.2077 0-1.9248-.8801-2.7647-2.1519-3.1585-.5385-.1487-1.0749-.1969-2.1509-.1969h-2.9827v6.7118-.001Zm22.6378 17.1286V18.9013h-8.164v-4.787h22.687l-1.614 4.787h-7.237v23.7419h-5.672Zm16.283 0V14.1143h18.384l-1.613 4.787h-11.147v6.319h4.548c3.666 0 5.573.889 6.894 2.0232 1.028.8891 2.787 2.8622 2.787 6.7631 0 3.8497-1.808 5.9714-3.325 7.0584-1.76 1.2326-3.618 1.5792-7.384 1.5792h-9.144v-.001Zm5.623-4.7889h4.253c1.614 0 2.591-.3949 3.275-1.2839.342-.4431.831-1.2347.831-2.7145 0-1.4798-.489-2.5176-1.467-3.258-.585-.443-1.369-.6891-2.689-.6891h-4.205v7.9455h.002Z"/>
</svg>