<svg xmlns="http://www.w3.org/2000/svg" viewBox="0 0 200 50">
	<path fill="#FD0" d="M29.8469 26.2027c.7491 1.2907 2.5181 1.2907 3.2673 0L26.0741 14h9.7658l3.7728 6.5436-7.6628 13.2768c-2.0579 3.5561-5.4154 3.5561-7.4733 0L13.023 14.009h9.7748l7.0491 12.1937Zm-10.9391 7.6175c-2.0488 3.5561-5.4154 3.5561-7.4732 0L-.00097656 14.0088H9.76481L20.0541 31.8345l-1.1463 1.9857Z"/>
	<path fill="#000" d="M170.07 16.3457c-.984 0-1.76.7582-1.76 1.7329 0 .9748.785 1.7059 1.76 1.7059s1.733-.7672 1.733-1.7059c0-.9567-.776-1.7329-1.733-1.7329ZM50.0644 33.9005h3.3305l.0271-.1083c2.0578-7.6267 2.8972-10.8849 3.2402-12.9067.3339 2.0127 1.1372 5.3161 3.1048 12.9067l.0271.1083h3.4027l4.7385-17.4376h-3.1049l-.027.1083c-2.0579 7.9156-2.8431 11.1197-3.2042 13.1685-.4151-2.1932-1.3087-5.8125-3.2312-13.1685l-.027-.1083h-3.2402l-.0271.1083c-2.0037 7.8434-2.8431 11.2009-3.2041 13.3761-.3972-2.121-1.2727-5.6411-3.2764-13.3761l-.027-.1083H45.344l4.6843 17.3384.0361.0992Zm23.1419.2442c2.5181 0 4.9009-1.3719 5.8576-3.4207l-2.3015-1.1733h-.0452l-.0451.0812c-.2798.5776-1.2997 1.9225-3.4388 1.9225-1.9405 0-3.4207-1.2366-3.6463-3.0327h9.9011v-.1354c.0632-2.4459-.6047-4.4496-1.9224-5.7944-1.1373-1.1734-2.7168-1.7871-4.549-1.7871-1.8322 0-3.4658.6859-4.6482 1.9224-1.1734 1.2275-1.8232 2.9244-1.8232 4.7656 0 3.9171 2.7438 6.6519 6.661 6.6519Zm-.1896-10.8037c1.8322 0 3.2312 1.1733 3.3756 2.807H69.587c.2076-1.6337 1.6246-2.807 3.4297-2.807Zm17.9882 6.8681c0 2.4279-2.0128 3.9352-5.253 3.9352-2.482 0-5.4425-1.417-5.4605-4.0976l2.7348-.5145.0271.1986c.1353 1.1913 1.2004 1.9314 2.7889 1.9314 1.3177 0 2.1391-.5144 2.1391-1.3538 0-.9567-1.2727-1.2997-2.7529-1.6968-2.0398-.5416-4.576-1.2185-4.576-3.9533 0-2.2564 2.0759-3.8359 4.8558-3.8359 2.7799 0 4.919 1.6968 4.919 4.1157l-2.5813.4874h-.0542l-.0902-.5235c-.1444-1.0379-.9928-1.6878-2.2203-1.6878-1.1192 0-1.9045.5235-1.9045 1.2636 0 .9183 1.2482 1.2439 2.6967 1.6217l.011.0029.0182.0048c2.0998.5497 4.7023 1.231 4.7023 4.1019Zm2.3106 1.318c0 1.4441.9116 2.6174 2.4279 2.6174 1.8773 0 2.4279-.2437 2.4279-.2437v-2.4279s-.5596.0903-1.2455.0903c-.4423 0-.7582-.2708-.7582-.6679v-7.365h1.9856l-.027-2.455h-1.9496V17.429l-2.8521.713v2.9333h-1.4892v2.455h1.4892v7.9968h-.009Zm22.3655-10.4516v1.6246c.822-1.3448 2.455-1.8953 4.251-1.6426l.127.018-.027 2.6716-.154-.018c-1.309-.1805-2.301 0-2.933.5325-.479.4061-.749 1.0109-.785 1.7961l.027 7.8433h-3.015V21.0755h2.509Zm12.582-.2619c-1.814 0-3.511.722-4.359 2.0939v-1.8322h-2.609v12.8255h3.042v-6.8866c0-2.2113 1.155-3.529 3.096-3.529 1.326 0 2.906.5776 2.906 3.3395v7.0761h3.042v-7.4913c0-4.1247-2.654-5.5959-5.118-5.5959Zm17.51 10.4605c2.545 0 3.953-1.6337 3.953-4.5941V16.4629h3.042v10.1449c0 4.7204-2.618 7.5364-6.995 7.5364-4.378 0-6.995-2.816-6.995-7.5364V16.4629h3.069V26.68c0 2.9604 1.38 4.5941 3.926 4.5941Zm15.777-10.4605c-1.815 0-3.52.722-4.36 2.0939v-1.8322h-2.617v12.8255h3.041v-6.8866c0-2.2113 1.156-3.529 3.096-3.529 1.327 0 2.906.5776 2.906 3.3395v7.0761h3.042v-7.4913c.009-4.1247-2.635-5.5959-5.108-5.5959Zm7.004.2618h3.014v12.8255h-3.014V21.0754Zm6.345 1.6336c1.245-1.2185 2.96-1.8954 4.837-1.8954 1.887 0 3.611.6679 4.856 1.8954 1.237 1.2185 1.923 2.9153 1.923 4.7655 0 3.863-2.861 6.67-6.779 6.67-3.917 0-6.76-2.807-6.76-6.67 0-1.8502.686-3.538 1.923-4.7655Zm1.029 4.7655c0 2.2204 1.633 3.8991 3.808 3.8991 2.194 0 3.854-1.6787 3.854-3.8991 0-2.2203-1.678-3.8991-3.854-3.8991-2.175 0-3.808 1.6788-3.808 3.8991Zm18.962-6.6609c-1.814 0-3.511.722-4.359 2.0939v-1.8322h-2.617v12.8255h3.041v-6.8866c0-2.2113 1.156-3.529 3.096-3.529 1.327 0 2.906.5776 2.906 3.3395v7.0761h3.042v-7.4913c.009-4.1247-2.636-5.5959-5.109-5.5959Zm-94.137 1.9225c1.182-1.2366 2.834-1.9225 4.648-1.9225 1.832 0 3.412.6137 4.549 1.778 1.318 1.3449 1.986 3.3486 1.922 5.7945v.1354h-9.901c.226 1.7961 1.706 3.0327 3.647 3.0327 2.139 0 3.159-1.3449 3.438-1.9225l.045-.0813h.046l2.301 1.1734c-.957 2.0488-3.339 3.4207-5.857 3.4207-3.927 0-6.6614-2.7348-6.6614-6.6429 0-1.8412.6498-3.538 1.8234-4.7655Zm4.648.6047c-1.814 0-3.231 1.1733-3.439 2.807h6.815c-.145-1.6337-1.562-2.807-3.376-2.807Z"/>
</svg>