<svg xmlns="http://www.w3.org/2000/svg" viewBox="0 0 200 50">
	<path fill="#000" d="M27.7699 14.06c1.3895-.6836 2.9218-1.0264 4.47-1h5.81v21.11h-3.68V15.86c-1.47 0-3-.12-4.39.59-.4912.2742-.9105.661-1.2234 1.1286-.3128.4676-.5104 1.0027-.5766 1.5614-.1084.6792-.0756 1.3734.0965 2.0393.172.6659.4796 1.2891.9035 1.8307 1.2273 1.2171 2.6051 2.2723 4.1 3.14-1.79 2.67-3.56 5.36-5.36 8h-4l4.8-7.17c-1.8073-1.1145-3.2094-2.7794-4-4.75-.3271-1.0244-.4277-2.1076-.2947-3.1747.1329-1.0671.4962-2.0925 1.0647-3.0053.5649-.824 1.3105-1.508 2.18-2l.1.01Zm89.8401-.8c.251-.0846.516-.1186.78-.1h11.54v2.74h-8.65v5.64c1.22.06 2.44 0 3.67 0 1.718.0652 3.37.6824 4.71 1.76.701.7026 1.187 1.5907 1.4 2.56.123.7533.167 1.5175.13 2.28-.063.3909-.107.7848-.13 1.18-.226 1.0962-.78 2.0974-1.59 2.87-1.505 1.1731-3.352 1.8227-5.26 1.85H119c-.461.0352-.924.015-1.38-.06v-2.17c-.051-.9993-.051-2.0006 0-3-.06-1.48 0-3 0-4.45-.05-2.13 0-4.26 0-6.39.08-1.34-.06-2.68 0-4v-.82l-.01.11Zm3.68 11.11c-.07 2.3 0 4.61 0 6.91 1.275.1337 2.562.0764 3.82-.17.486-.0903.941-.2991 1.327-.6079.385-.3087.689-.7079.883-1.1621.226-.6109.313-1.2647.255-1.9135-.059-.6488-.262-1.2763-.595-1.8365-.448-.4646-.996-.8207-1.603-1.0408-.606-.2201-1.255-.2985-1.897-.2292-.72-.0235-1.442-.0069-2.16.05h-.03Zm-20.05-4.74c1.68-.9804 3.653-1.3347 5.57-1 .79.0792 1.561.2922 2.28.63v3.07c-1.193-.6505-2.543-.9585-3.9-.89-.55.0448-1.079.2278-1.539.532-.459.3042-.835.7198-1.091 1.208-.5 1.0991-.72 2.3051-.64 3.51-.077 1.4466.383 2.8707 1.29 4 .367.3218.795.5651 1.26.7147.464.1496.954.2025 1.44.1553 1.135-.0126 2.242-.3605 3.18-1v3c-1.694.9273-3.67 1.1979-5.55.76-.867-.1157-1.697-.4258-2.428-.9072-.731-.4814-1.3434-1.1215-1.7921-1.8728-.9981-1.9465-1.3751-4.1524-1.08-6.32.0568-1.087.3557-2.1475.8747-3.1042.519-.9568 1.2454-1.7855 2.1254-2.4258v-.06Zm-29.3301 1.28c.4841-.6657 1.1066-1.2187 1.8247-1.6209.7181-.4022 1.5148-.6441 2.3353-.7091.8935-.1146 1.8012-.0384 2.6631.2237.8619.262 1.6584.7038 2.3369 1.2963.8729.9435 1.4198 2.1423 1.56 3.42.1749 1.4128.2351 2.8375.18 4.26h-8.73c-.0255.6335.0999 1.264.3659 1.8395.266.5755.665 1.0795 1.1641 1.4705 1.0027.4632 2.1256.5996 3.21.39 1.3696-.1431 2.6857-.6092 3.84-1.36v2.95c-1.7794 1.0758-3.8622 1.5394-5.93 1.32-1.0095-.0266-1.9991-.287-2.8909-.7607-.8919-.4737-1.6618-1.1478-2.2491-1.9693-1.0741-1.9282-1.4918-4.1535-1.19-6.34.072-1.5747.5734-3.0998 1.45-4.41h.06Zm3.54.85c-1.06.74-1.26 2.15-1.32 3.35h5c.0672-.9655-.1226-1.9316-.55-2.8-.3654-.4725-.8945-.791-1.4831-.8928-.5886-.1018-1.194.0205-1.6969.3428h.05Zm-34.37-2.92h3.63v6.05h4.84v-6.02h3.62v15.3h-3.62v-6.39h-4.83v6.39h-3.62V18.88l-.02-.04Zm16.26 0h10.55v12.44h1.62v6.35h-3.35v-3.48h-8.14v3.48h-3.3v-6.35h1.12c.4-.8599.689-1.7672.86-2.7.5427-3.2168.7671-6.4792.67-9.74h-.03Zm3.1 2.86c-.05 3.22-.13 6.53-1.28 9.58h5.12V21.7h-3.84Zm24.86-2.86v15.3h3.61v-7.37c1.81 2.44 3.56 4.92 5.36 7.36h4.1l-5.81-8.13c1.69-2.39 3.41-4.77 5.1-7.17h-3.63c-1.72 2.38-3.4 4.78-5.12 7.16v-7.15h-3.61Zm48.9201 1.28c1.613-.8915 3.427-1.3562 5.27-1.35 1.426-.0819 2.844.2665 4.07 1 .732.5219 1.248 1.2938 1.45 2.17.117.4886.184.9878.2 1.49v7c-.005 1.239.055 2.4774.18 3.71h-3.46c-.106-.3639-.186-.7348-.24-1.11h-.29c-.581.5559-1.293.9551-2.07 1.16-.782.2041-1.599.2365-2.395.095-.796-.1416-1.551-.4537-2.215-.915-.456-.3658-.833-.8203-1.108-1.336-.275-.5156-.442-1.0817-.492-1.664-.134-.7002-.095-1.4225.114-2.1041.209-.6815.582-1.3015 1.086-1.8059 1.329-1.0972 2.987-1.7169 4.71-1.76.86-.15 1.73 0 2.6-.13.091-.4238.089-.8623-.006-1.2853-.095-.4229-.281-.8203-.544-1.1647-.481-.2917-1.016-.4821-1.574-.5594-.557-.0774-1.124-.0402-1.666.1094-1.288.1991-2.529.633-3.66 1.28v-2.81l.04-.02Zm4.65 7.21c-.465.0298-.911.1941-1.283.4729-.373.2788-.657.6599-.817 1.0971-.117.4624-.092.9493.072 1.3971.164.4478.46.8357.848 1.1129.668.339 1.434.4335 2.164.2673.731-.1662 1.38-.5827 1.836-1.1773v-3.31c-.932-.0988-1.873-.0516-2.79.14h-.03Zm9.32-8.33c1.18-.11 2.37 0 3.56-.05v6c1.5.06 3 0 4.5 0l.38-.09v-5.88c1.18-.05 2.36 0 3.54 0v15.16h-3.54v-6.33c-1.64 0-3.29-.07-4.92 0v6.33h-3.54V19.07l.02-.07Zm15.15 0h3.53v7h.3c1.59-2.32 3.26-4.57 4.84-6.9 1.2-.05 2.39 0 3.59 0-1.6 2.26-3.2 4.53-4.81 6.78-.1.17-.34.4-.13.59l5.65 7.76h-4c-1.77-2.3-3.46-4.67-5.19-7l-.26-.08v7.11h-3.53l.01-15.26Z"/>
</svg>