<svg viewBox="0 0 200 50" xmlns="http://www.w3.org/2000/svg">
	<path fill="#000" d="M161.779 25.079c0-4.442-3.361-8.035-8.108-8.035-4.653 0-7.967 3.455-7.967 8.202 0 4.771 3.407 8.25 8.296 8.25 3.102 0 5.71-1.387 7.332-4.208l-3.29-1.528c-.775 1.41-2.468 2.327-4.042 2.327-1.997 0-4.3-1.504-4.442-3.595h12.103c.078-.467.117-.939.118-1.413Zm-12.151-1.358c.283-2.115 1.739-3.501 4.066-3.501 2.303 0 3.713 1.358 3.901 3.501h-7.967Zm-33.153-6.68c-4.771 0-8.155 3.432-8.155 8.274 0 4.794 3.384 8.179 8.202 8.179 4.841 0 8.225-3.385 8.225-8.108.001-4.866-3.477-8.345-8.272-8.345Zm.048 12.856c-2.398 0-3.878-1.786-3.878-4.559 0-2.82 1.504-4.747 3.878-4.747 2.397 0 3.901 1.903 3.901 4.747 0 2.797-1.481 4.559-3.901 4.559ZM99.487 17.045c-1.954 0-3.427.668-4.899 2.323h-.483c-.989-1.495-2.603-2.323-4.413-2.323-1.834-.018-3.565.846-4.652 2.323h-.483l-.024-.023v-1.978h-4.045v15.78h4.37v-8.121c0-2.622 1.104-4.163 3.014-4.163 1.771 0 2.921 1.312 2.921 3.312v8.972h4.393v-8.121c0-2.603 1.104-4.163 3.037-4.163 1.747 0 2.874 1.312 2.874 3.336v8.948h4.394v-9.478c0-4.116-2.209-6.624-6.004-6.624Zm72.011 10.63h-.312c0-.281-1.906-5.278-3.155-8.374l-.781-1.936h-4.403l6.247 15.835-2.461 6.034h4.373L180 17.37h-4.406l-.719 1.656-2.436 6.028c-.687 1.684-.968 2.465-.941 2.621Zm-34.629-10.63c-1.956 0-3.635.851-4.762 2.37h-.461l-.045-.023v-2.025h-4.047v15.78h4.37v-8.074c0-2.576 1.245-4.187 3.29-4.187 1.909 0 3.312 1.426 3.312 3.68v8.58h4.37v-9.521c.001-3.865-2.529-6.58-6.027-6.58Z"/>
	<path fill="#8B3FFD" d="M50.805 8c-9.443 0-17.03 7.639-17.03 16.975 0 9.413 7.662 16.975 17.028 16.975s17.035-7.639 17.035-16.975C67.838 15.639 60.171 8 50.805 8Zm0 23.302c-3.483 0-6.346-2.855-6.346-6.327s2.863-6.327 6.346-6.327 6.347 2.855 6.347 6.327c-.078 3.472-2.864 6.327-6.347 6.327Zm-17.03-18.37v24.691h-6.034L20 12.932h13.775Z"/>
</svg>