<svg xmlns="http://www.w3.org/2000/svg" viewBox="0 0 100 42">
	<path fill="#fff" d="M51.6649 19.2633h3.0866c2.7742 0 4.5017 1.7065 4.5039 4.2242 0 2.555-1.6903 4.2724-4.4273 4.2724h-5.4162V14h8.7427v2.1268h-6.4897v3.1365Zm0 6.4278h2.5426c1.7357 0 2.737-.7697 2.737-2.2097 0-1.4399-1.0013-2.222-2.7455-2.222h-2.5341v4.4317Zm8.8731 2.0688L65.4204 14h2.7597l4.8907 13.7599H70.429l-1.0345-3.1304h-5.321l-1.0529 3.1304H60.538Zm6.2168-11.1365L64.686 22.567h4.1003l-2.0315-5.9436Zm16.17 3.0701h-5.6601V14h-2.2531v13.7599h2.2531v-5.942h5.6601v5.942h2.2426V14h-2.2426v5.6935Zm16.3106 8.0664h-3.0329l-3.8356-5.7389-1.7729 2.2136v3.5253h-2.2531V14h2.2531v6.6284L95.9728 14h2.8239l-2.2838 2.8486-2.584 3.2233 5.3065 7.688ZM37.45 0H4.55C2.03711 0 0 2.03711 0 4.55v32.9C0 39.9629 2.03711 42 4.55 42h32.9c2.5128 0 4.55-2.0371 4.55-4.55V4.55C42 2.03711 39.9628 0 37.45 0ZM11.2 14h3.5v14h-2.45V16.45H9.79999L11.2 14Zm17.5 0h3.5v14h-2.45V16.45H27.3L28.7 14Zm-8.75 7 2.45-4.55h-5.6L18.2 14h8.05l-1.4 2.45-1.3604 2.5265c1.6288.7457 2.7604 2.39 2.7604 4.2985 0 2.6095-2.1155 4.725-4.725 4.725-2.6096 0-4.725-2.1155-4.725-4.725h2.45c0 1.2565 1.0185 2.275 2.275 2.275 1.2564 0 2.275-1.0185 2.275-2.275 0-1.2564-1.0186-2.275-2.275-2.275H19.95Z"/>
</svg>