<svg xmlns="http://www.w3.org/2000/svg" viewBox="0 0 170 36">
	<path fill="#309A5F" d="m0 .5 25.5629 34.1438 3.667-20.7547L0 .5Z"/>
	<path fill="#94FFD1" d="M55.0042 1.32427 0 .5l29.2299 13.3891L55.0042 1.32427Z"/>
	<path fill="#61EA83" d="M29.2299 13.8891 25.563 34.6437 55.0042 1.32422 29.2299 13.8891Z"/>
	<path fill="#fff" d="m58.2588 21.2862 4.0366-11.85651h3.4345L69.767 21.2862h-2.9592l-.5919-1.8596h-4.3957l-.6027 1.8596h-2.9587Zm5.7595-8.7605-1.3844 4.3539h2.7792l-1.3948-4.3539Zm58.3967 2.5583c.75 0 1.352.3591 1.638.9504l2.219-1.2889c-.729-1.2993-2.188-2.1662-3.826-2.1662-2.578 0-4.491 1.9443-4.491 4.4706 0 2.5253 1.913 4.4695 4.491 4.4695 1.659 0 3.097-.8668 3.826-2.1878l-2.219-1.2673c-.275.5914-.899.9402-1.638.9402-.604 0-1.122-.2394-1.467-.6502-.143-.1713-.256-.3725-.332-.5985-.074-.2178-.114-.4582-.114-.7173 0-1.1723.814-1.9649 1.913-1.9649v.0104Zm-51.7078 6.2022h2.5361v-6.034h3.3921v-2.4407h-5.9282v8.4747Zm83.8748-5.421h2.875v-3.0537h2.546v8.4747h-2.546v-3.0536h-2.875v3.0536h-2.536v-8.4747h2.536v3.0537Zm12.259 1.1837 3.074-4.2374h-2.969l-2.536 3.709v-3.709h-2.536v8.4747h2.536v-3.7513l2.716 3.7513H170l-3.159-4.2373Zm-85.7314-4.0506c-.2915.1641-.5418.3726-.7544.6171v-.7925h-2.5361v11.8565h2.5361v-4.1847c.5604.6439 1.3844 1.0351 2.5258 1.0351 2.2193 0 4.0475-1.9443 4.0475-4.4696 0-2.5263-1.8282-4.4706-4.0475-4.4706v-.0103c-.7085 0-1.2946.1507-1.7714.419Zm1.2642 6.1114c-.4758 0-.9004-.1331-1.2358-.3766-.484-.3519-.7828-.935-.7828-1.6832 0-1.2683.8457-2.0609 2.0186-2.0609 1.1728 0 2.0186.7926 2.0186 2.0609 0 1.2673-.8458 2.0598-2.0186 2.0598Zm5.4004-2.0598c0-2.5263 1.9974-4.4706 4.4912-4.4706 2.4835 0 4.4912 1.9443 4.4912 4.4706 0 2.5253-1.9974 4.4695-4.4912 4.4695-2.4938 0-4.4912-1.9442-4.4912-4.4695Zm2.5361 0c0 1.2043.8457 1.9969 1.9551 1.9969 1.0991 0 1.9443-.7926 1.9443-1.9969 0-1.2054-.8349-1.9979-1.9443-1.9979s-1.9551.7925-1.9551 1.9979Zm12.6917-4.4706c-1.142 0-1.966.3911-2.526 1.0361v-.7925h-2.5362v11.8565h2.5362v-4.1847c.56.6439 1.384 1.0351 2.526 1.0351 2.219 0 4.047-1.9443 4.047-4.4696 0-2.5263-1.828-4.4706-4.047-4.4706v-.0103Zm-.508 6.5304c-1.162 0-2.018-.7925-2.018-2.0598 0-1.2683.856-2.0609 2.018-2.0609 1.163 0 2.019.7926 2.019 2.0609 0 1.2673-.846 2.0598-2.019 2.0598Zm5.517-2.0598c0-2.5263 1.997-4.4706 4.491-4.4706 2.484 0 4.491 1.9443 4.491 4.4706 0 2.5253-1.997 4.4695-4.491 4.4695-2.494 0-4.491-1.9442-4.491-4.4695Zm2.536 0c0 1.2043.846 1.9969 1.955 1.9969 1.099 0 1.944-.7926 1.944-1.9969 0-1.2054-.834-1.9979-1.944-1.9979-1.109 0-1.955.7925-1.955 1.9979Zm25.669-3.2136h-1.86v-1.7967h4.914V9.42969h-7.619V21.2862h4.576c2.43 0 4.068-1.4685 4.068-3.7296 0-2.2621-1.638-3.7203-4.068-3.7203h-.011Zm0 4.9143h-1.86v-2.3777h1.86c.75 0 1.353.3168 1.353 1.1837 0 .8658-.603 1.1827-1.353 1.1827v.0113Zm8.951-6.1713c1.13 0 1.965.3911 2.525 1.0361V12.8012h2.537v8.4757h-2.537v-.7925c-.56.6439-1.395 1.035-2.525 1.035-2.22 0-4.048-1.9442-4.048-4.4695 0-2.5263 1.828-4.4706 4.048-4.4706Zm-1.512 4.4809c0 1.2683.846 2.0609 2.019 2.0609s2.018-.7926 2.018-2.0609c0-1.2683-.845-2.0609-2.018-2.0609-1.173 0-2.019.7926-2.019 2.0609Z"/>
</svg>