<svg xmlns="http://www.w3.org/2000/svg" viewBox="0 0 117 40">
	<path fill="#fff" d="M15.9958 9.96055V40c-.4082-.0868-.8119-.1859-1.2105-.2969V10.8665c-3.6219.4827-5.33229 4.2252-5.73451 6.0362-1.9316 0-3.01759 2.2131-3.32022 3.3202v13.8823c.04659.1241.09437.2459.14329.3654C2.24323 30.8152 0 25.7801 0 20.2211 0 9.05328 9.05328 0 20.2211 0c11.1677 0 20.221 9.05328 20.221 20.2211 0 5.3303-2.0624 10.179-5.4329 13.7914V20.2229c-.3026-1.1071-1.3886-3.3202-3.3202-3.3202-.4022-1.811-2.1126-5.5535-5.7345-6.0362v28.7513c-.4918.1451-.9915.2721-1.4981.3801l.2914-30.03735c-.7038-.60333-2.5349-1.81094-4.2252-1.81094-1.6893 0-3.7214 1.20666-4.5268 1.80998v.00096Zm38.8284 7.59885c.1163.3099.2281.6214.3352.9346h1.5705c-.3007-.8532-.588-1.6423-.8657-2.3663-.2701-.7231-.5353-1.4078-.7968-2.0542-.4744-1.21-.9902-2.4033-1.5466-3.5779h-1.3733c-.2691.5689-.5305 1.1464-.7853 1.7315-.2538.5842-.5114 1.2-.7728 1.8464-.5748 1.4629-1.1214 2.9367-1.6395 4.4205h1.5121l.3227-.9231c.1159-.3161.228-.635.3352-.9577h3.3691c.1059.3174.2176.6329.3352.9462Zm-2.6317-4.028c.1956-.4996.3993-.9961.611-1.4891.2087.489.4098.9817.6014 1.4776.2468.6353.4853 1.2738.7154 1.9154h-2.6317c.2461-.6848.4808-1.3197.7039-1.9039Zm8.7875 3.6123c-.2394.1772-.6196.2653-1.1434.2653-.4999 0-.9261-.0574-1.2804-.1733-.3543-.1149-.6359-.2308-.8428-.3457l-.4271 1.1884c.1197.0678.2428.1295.3687.1849.1778.0698.3587.1314.5421.1848.2389.0665.4821.1167.7278.1503.3015.048.6064.0711.9117.069.9854 0 1.7324-.1963 2.24-.589.5152-.3993.7737-.9615.7737-1.6855 0-.3763-.0545-.6962-.1628-.9576-.1072-.2691-.2652-.4999-.473-.6924-.2002-.2002-.4501-.3697-.7499-.5076-.293-.1465-.6273-.2882-1.0046-.4271-.2154-.0776-.4156-.158-.6004-.2423-.1762-.0852-.3343-.1772-.4731-.2768-.1303-.1005-.2346-.2126-.3113-.3351-.0699-.1312-.1043-.2845-.1043-.4626 0-.2921.1082-.519.3236-.6799.2232-.1619.5306-.2423.9232-.2423.3228-.0011.6444.0375.9577.1149.3024.072.5937.1848.8657.3352l.4501-1.1779c-.2231-.1303-.5305-.25-.9232-.3582-.3849-.1149-.8274-.1724-1.3273-.1724-.8619 0-1.5428.2078-2.0427.6235-.5008.4079-.7498.9729-.7498 1.696 0 .3467.0574.6426.1724.8887.1174.2388.2778.454.473.6349.2057.1805.4351.332.6819.4501.2614.1159.5296.2241.8073.3237.2516.0822.4985.1784.7393.2883.1936.0799.3758.1848.5421.3122.1541.1072.27.2308.3466.3687.0843.1388.1264.3045.1264.497 0 .3227-.1187.5727-.3572.7498Zm4.6064-6.6481h-1.4556v7.9984h1.4556v-7.9984Zm6.8894 7.0638c.1164.3099.2281.6214.3352.9346h1.5696c-.3007-.8532-.588-1.6423-.8657-2.3663-.2691-.7231-.5344-1.4078-.7958-2.0542-.4744-1.21-.9903-2.4033-1.5467-3.5779h-1.3732c-.2701.5689-.5315 1.1464-.7853 1.7315-.2538.5842-.5124 1.2-.7729 1.8464-.2547.6464-.5171 1.3311-.7852 2.0551-.2701.7231-.5545 1.5112-.8552 2.3654h1.5131l.3227-.9231c.1159-.3161.227-.635.3342-.9577h3.371c.1055.3174.217.6329.3342.9462Zm-2.6307-4.028c.1956-.4996.3993-.9961.611-1.4891.2087.489.4089.9817.6005 1.4776.2468.6353.4853 1.2738.7153 1.9154h-2.6316c.2461-.6848.4807-1.3197.7048-1.9039Zm9.6954-3.0358h-1.4547v7.9984h1.4547v-7.9984Zm6.4288 6.5907c.3007.464.5932.9333.8772 1.4077h1.2364v-7.9984h-1.4432v5.3093c-.2615-.4156-.5612-.8619-.9002-1.3388-.3304-.4855-.6771-.9663-1.0381-1.4432-.3544-.4769-.7087-.9347-1.063-1.3733-.3534-.4462-.6848-.8312-.9922-1.154h-1.1904v7.9984h1.4317v-5.7249c.3237.385.6618.8198 1.0152 1.3044.3684.4861.7229.9827 1.063 1.4891.3457.5086.6809 1.0161 1.0036 1.5237Zm4.6428-2.5053c.5207 1.32 1.079 2.6248 1.674 3.913h1.3962c.5944-1.2868 1.1488-2.5918 1.6625-3.913.5272-1.3517 1.0275-2.7138 1.5007-4.0854h-1.5581c-.1772.5392-.362 1.0889-.5545 1.6501-.1925.5612-.3879 1.1166-.589 1.6625-.3466.9999-.7238 1.989-1.131 2.9659-.1848-.4223-.3735-.8887-.565-1.3963-.1925-.5075-.3859-1.0314-.5775-1.5696-.1925-.5468-.385-1.1004-.5774-1.6625l-.5651-1.6501h-1.605c.4658 1.3728.9623 2.7349 1.4892 4.0854Zm7.2677-4.0854V18.495h5.4132v-1.2354h-3.9586v-2.3434h3.2786v-1.2124h-3.2786V11.731h3.6816v-1.2354h-5.1362Zm9.8452 6.6481c-.239.1772-.62.2653-1.143.2653-.5 0-.927-.0574-1.281-.1733-.354-.1149-.635-.2308-.843-.3457l-.427 1.1884c.12.0678.243.1294.369.1849.409.1623.835.2748 1.27.3351.302.048.607.0711.912.069.985 0 1.732-.1963 2.239-.589.516-.3993.774-.9615.774-1.6855 0-.3763-.054-.6962-.162-.9576-.107-.2691-.265-.4999-.473-.6924-.2-.2002-.45-.3697-.751-.5076-.292-.1465-.626-.2882-1.004-.4271-.215-.0776-.415-.158-.6-.2423-.177-.0852-.334-.1772-.473-.2768-.131-.1005-.235-.2126-.311-.3351-.07-.1312-.105-.2845-.105-.4626 0-.2921.109-.519.324-.6799.223-.1619.531-.2423.923-.2423.323-.0012.645.0374.958.1149.302.0719.594.1847.866.3352l.45-1.1779c-.223-.1303-.531-.25-.924-.3582-.384-.1149-.827-.1724-1.327-.1724-.862 0-1.543.2078-2.043.6235-.5.4079-.75.9729-.75 1.696 0 .3467.057.6426.173.8887.117.2389.278.4542.473.6349.205.1804.435.3319.681.4501.266.1172.535.2251.808.3237.252.0823.498.1785.739.2883.193.0799.376.1849.543.3122.141.0949.26.221.345.3687.089.1504.133.3226.128.497 0 .3227-.12.5727-.358.7498Zm8.727-5.3906v-1.2575h-6.384v1.2575h2.459v6.7419h1.465v-6.7419h2.46ZM50.9811 29.9678c.4309.0307.8571.0469 1.2804.0469h.0009c1.2383 0 2.1576-.2039 2.7581-.6129.6004-.4146.9002-1.0342.9002-1.8578 0-.4846-.1149-.884-.3467-1.2-.2298-.316-.588-.5535-1.0726-.7163.3033-.1445.5623-.3677.7499-.6464.1848-.2691.2768-.5919.2768-.9692 0-.408-.0843-.7508-.2538-1.0266-.1695-.2777-.408-.5009-.7154-.6704-.2997-.1695-.6579-.2882-1.0735-.3581-.4157-.0767-.8658-.115-1.3503-.115-.3851.0014-.7701.0167-1.154.046-.2002.0153-.3975.0383-.589.0699-.1925.023-.3735.0498-.543.0805v7.7676c.371.0917.7502.1459 1.132.1618Zm.2997-1.2114V26.321h1.2814c.5842 0 1.0429.0881 1.3733.2643.3313.1782.496.4932.496.9481 0 .2529-.0574.4607-.1723.6225-.1083.1619-.2586.2921-.4501.3927-.1849.0919-.408.158-.6704.1963-.2538.0383-.5306.0574-.8303.0574-.343-.001-.6858-.0163-1.0276-.0459Zm1.0276-3.5788h-1.0276v-2.1002c.1226-.0153.2691-.0268.4386-.0345.1772-.0076.3773-.0114.6005-.0114.5229 0 .9462.0794 1.2698.2422.3304.1609.4961.4348.4961.8188 0 .408-.157.6924-.4731.8552-.316.1533-.7508.2299-1.3043.2299Zm10.1024 3.8096c.1164.3098.2281.6214.3352.9346h1.5686c-.2997-.8532-.588-1.6423-.8657-2.3663-.2691-.724-.5344-1.4078-.7958-2.0552-.4744-1.21-.9902-2.4033-1.5467-3.5778h-1.3732c-.2701.5698-.5315 1.1473-.7853 1.7314-.2538.5852-.5124 1.2009-.7738 1.8474-.5744 1.463-1.121 2.9368-1.6395 4.4205h1.5131l.3227-.9241c.1161-.3176.2275-.6368.3342-.9577h3.371c.1082.3237.2203.6388.3352.9472Zm-2.6317-4.0289c.1955-.4994.3992-.9955.611-1.4882.2087.489.4089.9816.6005 1.4776.2468.6353.4853 1.2738.7153 1.9154h-2.6316c.2471-.6848.4817-1.3197.7048-1.9048Zm10.0603 3.5558c.3007.464.5932.9333.8772 1.4077h1.2344v-7.9993h-1.4422v5.3102c-.2615-.4156-.5622-.8619-.9002-1.3388-.3304-.4855-.6771-.9663-1.0391-1.4432-.3534-.4769-.7077-.9347-1.062-1.3733-.3544-.4462-.6848-.8312-.9922-1.1549h-1.1894v7.9993h1.4317v-5.7249c.3228.385.6608.8198 1.0151 1.3044.3682.4861.7223.9827 1.0621 1.4891.3467.5076.6809 1.0161 1.0046 1.5237Zm7.2859-.543c.5619.6062 1.0715 1.2588 1.5236 1.9507h1.72c-.2461-.4003-.52-.8006-.8198-1.1999-.2921-.408-.6004-.7968-.9232-1.1664-.3227-.3774-.654-.7269-.9931-1.0506-.3303-.3304-.6579-.6186-.9806-.8657.2921-.2845.589-.5842.8887-.9002.3084-.3151.612-.6302.9117-.9462.2998-.3227.5928-.6426.8772-.9577.2844-.316.5545-.6196.8083-.9126h-1.743c-.0423.0474-.0857.096-.1301.1456-.1655.1852-.3452.3862-.5393.6052-.5268.5884-1.0619 1.1695-1.605 1.7429-.2768.2845-.542.5536-.7958.8073v-3.301h-1.4547v7.9993h1.4547v-3.5893c.3208.2245.6254.4712.9117.7384.3074.2844.6043.5842.8887.9002Z"/>
</svg>