<svg xmlns="http://www.w3.org/2000/svg" viewBox="0 0 157 30">
	<path fill="#fff" d="M25.741 21.506c0-.4085.2181-.6344.5944-.6344.3722 0 .5923.2259.5903.6344v7.7797c0 .4064-.2181.6322-.5903.6322-.3763 0-.5944-.2258-.5944-.6322v-3.4445h-4.9524v3.4445c0 .4064-.218.6322-.5944.6322-.3722 0-.5944-.2258-.5944-.6322V21.506c0-.4085.2222-.6344.5944-.6344.3764 0 .5944.228.5944.6344v3.2267h4.9524V21.506Zm10.1537.3448-3.4449 3.4382 3.6053 3.6005c.1707.1704.2447.3078.2447.5029 0 .2832-.1953.5234-.5326.5234-.1769 0-.3147-.0595-.473-.2155l-3.5745-3.5676c-.1892-.1868-.3805-.2935-.6457-.2935h-.613v3.4444c0 .4064-.2179.6322-.5944.6322-.3722 0-.5943-.2258-.5943-.6322v-7.7797c0-.4085.2221-.6343.5943-.6343.3765 0 .5944.2279.5944.6343v3.2268h.6932c.2673 0 .4586-.1047.6478-.2935l3.3667-3.3602c.1502-.1478.2838-.2054.4504-.2054.3208 0 .508.23.508.5009 0 .1848-.0699.3161-.2324.4783Zm2.0258-11.2077c.7013 0 1.4335-.2011 1.9682-.4824V8.19635c-.7321-.21758-1.3162-.31405-1.9764-.31405-1.2525 0-1.8715.60763-1.8715 1.39175 0 .87035.7239 1.36905 1.8797 1.36905Zm-2.3343-7.21307c.58-.23604 1.487-.49263 2.4927-.49263 2.2561 0 3.5456 1.02426 3.5477 3.26168v4.34762c0 .3346-.0885.4988-.3373.6712-.5203.3571-1.8201.9238-3.5271.9238-2.1965 0-3.4367-1.2317-3.4367-2.86765 0-1.41431 1.1065-2.70338 3.3729-2.70338.7445 0 1.3944.09436 2.1903.30784v-.71844c0-1.06527-.5635-1.58667-1.9477-1.58667-.6231 0-1.2463.16415-1.6246.31606-.2386.09445-.4628.17246-.6644.17246-.4195 0-.7568-.32638-.7609-.77178-.0021-.37772.2056-.66098.6951-.86011Zm23.3842 5.82346c.1541-.26892.3825-.51107.7897-.5193.5203-.01233.874.32638.8761.82924 0 .26481-.0966.52757-.2571.81897-.5306.9813-1.67 1.7572-3.3091 1.7572-2.2129 0-3.6937-1.3979-3.8871-3.39107-.0638-.66508-.0638-1.76324 0-2.42623.1851-1.99316 1.6742-3.387 3.8871-3.387 1.6391 0 2.7786.78009 3.303 1.75511.1604.28939.2611.5542.2611.81901 0 .51108-.3517.83545-.874.83134-.4072-.00412-.6293-.25248-.7897-.51318-.3188-.68765-.9729-1.15361-1.8757-1.15361-1.2649 0-2.0258.76767-2.1308 1.90492-.0554.60754-.0554 1.30954 0 1.91717.105 1.13515.8557 1.90284 2.1308 1.90284.9028 0 1.563-.4742 1.8757-1.14541ZM16.264 7.42457 19.3655 10.52c.2406.2381.3619.4762.3619.7492 0 .4578-.3312.7944-.8042.7944-.2735 0-.4792-.1026-.7424-.3653l-3.1919-3.18379c-.1625-.16415-.3373-.25659-.5697-.25659h-.5101v2.85118c0 .5994-.3496.9524-.9008.9524-.545 0-.8946-.353-.8946-.9524V3.96577c0-.59941.3476-.94835.8946-.94835.5512 0 .9008.34894.9008.94835v2.6398h.6108c.2324 0 .4073-.09245.5698-.25659L18.08 3.36435c.253-.25248.4484-.34693.7095-.34693.4484 0 .763.32227.763.75543 0 .2607-.1172.4865-.3454.71432l-2.9431 2.9374Zm31.2672 2.98253c1.2999 0 2.0094-.76977 2.1143-1.90904.0555-.61987.0513-1.34442 0-1.91716-.1028-1.13926-.8144-1.91314-2.1143-1.91314-.6746 0-1.5178.20535-1.9353.50295v4.73755c.4175.29354 1.2628.49884 1.9353.49884Zm-3.2783-6.61781c.506-.29769 1.7625-.85189 3.3339-.85189 2.2356 0 3.6649 1.37731 3.848 3.37458.0638.67742.0638 1.7838 0 2.45501-.1872 1.99311-1.6145 3.37471-3.6917 3.37471-.7857 0-1.6104-.2013-2.1492-.462v2.3894c0 .5952-.3517.9483-.9029.9483-.547 0-.8946-.3531-.8946-.9483V4.91412c0-.68765.0432-.88057.4565-1.12483ZM13.8741 28.8833c.8289 0 1.7235-.2586 2.3817-.6117v-2.416c-.9317-.2751-1.596-.39-2.3817-.39-1.5835 0-2.3199.7287-2.3199 1.7037 0 1.0859.8371 1.714 2.3199 1.714Zm-2.3383-7.56c.547-.2484 1.5569-.5297 2.5934-.5297 2.0587 0 3.2988.9936 3.2988 3.1325v4.6226c0 .2628-.0554.3736-.2488.5112-.4771.3468-1.7707.9401-3.4614.9401-2.0463 0-3.3379-1.1269-3.3379-2.8409 0-1.4595 1.1414-2.7506 3.3894-2.7506.8308 0 1.524.0964 2.4865.3756v-.8273c0-1.3896-.7116-2.0136-2.2459-2.0136-.7754 0-1.5672.2361-1.9867.4146-.1666.0781-.3374.1334-.4792.1334-.29 0-.5244-.2401-.5348-.544-.0082-.2935.1584-.4638.5266-.6239Zm-9.43394 7.3485h3.36061c1.7584 0 2.48241-.8908 2.48241-2.4098 0-1.4861-.72401-2.3462-2.48241-2.3462H2.10186v4.756Zm0-5.8972h3.51279c2.25002 0 3.55188 1.2582 3.55188 3.4771 0 2.2806-1.30396 3.5861-3.55389 3.5861H1.95178c-.67459 0-1.057141-.3756-1.057141-1.0551v-9.7954c0-.6794.384561-1.0531 1.057141-1.0531h6.00333c.39077 0 .66015.2217.66015.5789 0 .3736-.26938.5912-.66015.5912H2.10186v3.6703ZM29.2106 6.34277h-2.9451v3.91243h2.9451c1.3924 0 2.0134-.74101 2.0134-1.98285 0-1.22138-.621-1.92958-2.0134-1.92958Zm.1934 5.63873h-3.5828c-.907 0-1.4026-.4885-1.4005-1.3958V1.47797c0-.907325.4956-1.3979147 1.4005-1.3979147h5.7175c.5759 0 .9502.3407467.9502.8559637 0 .541951-.3743.880571-.9502.880571h-5.2732v2.89018h3.1385c2.3301 0 3.7102 1.26449 3.7102 3.52657 0 2.39746-1.3801 3.74816-3.7102 3.74816ZM5.12102 1.92538 3.4757 6.60968h3.77404l-1.65363-4.6843c-.05965-.16415-.11309-.22169-.2344-.22169-.1234 0-.17693.05754-.24069.22169Zm5.49128 8.69322c.0946.2503.1235.4125.1235.5788 0 .4742-.3724.8662-.90089.8662-.41955 0-.73835-.2134-.91108-.7266L7.8338 8.25381H2.89785L1.81604 11.3288c-.17694.5214-.49564.7348-.921401.7348-.520305 0-.894639-.39-.894639-.8601 0-.1313.0205528-.2997.123408-.5808L3.46547 1.57443C3.86447.470065 4.45264 2.3e-7 5.37815 2.3e-7c.92963 0 1.5137.47006477 1.9147 1.57442977l3.31945 9.04417Zm137.5497-.68175c3.278-.59201 6.307 1.09965 7.534 4.20585 1.227 3.1062.17 6.412-2.631 8.2292l-9.888 6.4171c-1.179.7658-2.498 1.1496-3.823 1.1496-1.148 0-2.301-.2908-3.372-.8725-2.303-1.2546-3.678-3.5708-3.678-6.1969V2.07245c0-1.137437.919-2.0598644 2.055-2.0598644 1.136 0 2.055.9224274 2.055 2.0598644V22.8658c0 1.0928.574 2.0581 1.532 2.5796.958.5214 2.076.4801 2.996-.1154l9.888-6.4171c1.365-.8862 1.434-2.2646 1.041-3.2593-.392-.9929-1.382-1.9532-2.985-1.6641l-6.737 1.2132c-1.117.1996-2.186-.5437-2.387-1.6624-.199-1.1185.544-2.1889 1.662-2.3902l6.738-1.21325Zm-33.986 1.21495 6.738-1.21322c3.278-.59027 6.309 1.09792 7.531 4.20582 1.225 3.1062.169 6.412-2.629 8.2275l-9.89 6.4171c-1.179.7658-2.497 1.1496-3.821 1.1496-1.149 0-2.303-.2908-3.373-.8725-2.304-1.2546-3.679-3.5708-3.679-6.1969V7.07161c0-1.09277-.572-2.0582-1.531-2.58133-.958-.52141-2.079-.47838-2.994.11527L75.6598 20.7422c-1.3677.888-1.4348 2.2664-1.0412 3.261.3917.9931 1.3796 1.9533 2.9845 1.6642l21.716-3.9099c1.1169-.2013 2.1859.5438 2.3869 1.6624.201 1.1185-.543 2.1889-1.66 2.3903L78.3297 29.72c-3.2816.5903-6.3091-1.0996-7.5341-4.2041-1.2269-3.1062-.1702-6.412 2.6288-8.2275l24.8725-16.14c2.2011-1.42664 4.8911-1.529897 7.1941-.277102 2.304 1.254492 3.679 3.570842 3.679 6.198582V22.8675c0 1.0927.573 2.0582 1.531 2.5796.959.5215 2.077.4801 2.995-.1153l9.888-6.4171c1.368-.8863 1.435-2.2647 1.043-3.2593-.393-.9931-1.382-1.9533-2.987-1.6642l-6.736 1.2133c-1.118.1996-2.186-.5438-2.387-1.6624-.199-1.1186.543-2.1889 1.659-2.3903Z"/>
</svg>