<svg xmlns="http://www.w3.org/2000/svg" viewBox="0 0 170 22">
	<g fill="#ffd113">
		<path d="m163.4 8.6-2.8 3.9 4.4 7.8h5l-6.6-11.7zM136.1 2h4.4v18.3h-4.4zM146.8 9.4h-4.2l-1.3 1.8h5.5v9.1h4.4V2h-4.4v7.4zM95.1 20.3h4.5V3.9l-4.5 6v10.4zM89.1 14.2V2h-4.4v18.3h2L99.8 2h-2l-8.7 12.2zM47.1 20.3H49L60.2 4.8v7.3h-4l-1.3 1.8h5.3v6.4h4.4V2h-4.4L47.1 20.3zM74 12.5l4.4 7.8h5L76.8 8.6 74 12.5z"/>
		<path d="m78.3 2.1-6.8 9.4V2h-4.4v18.3h4.4v-6.1l8.8-12.1h-2zM116.3 12c-1-1.7-2.8-2.8-4.7-2.7h-3.4l-1.3 1.8h3.8c1.4.7 2.2 2.1 2.2 3.7s-.9 3-2.2 3.7h-4.3V3.9h7.7l1.3-1.8H102v18.3h9.5c1.9 0 3.7-1 4.7-2.7 1-1.7 1-3.9 0-5.6ZM116.1 20.3h2l11.1-15.5v7.3h-4l-1.3 1.8h5.3v6.4h4.4V2h-4.4l-13.1 18.3zM164.9 2.1l-6.8 9.4V2h-4.4l-.1 18.3h4.5v-6.1l8.8-12.1h-2z"/>
	</g>
	<g fill="#fff">
		<path d="M17.4 1.8 0 10.8l17.4 9 17.4-9-17.4-9Zm0 16.1L3.7 10.8l13.7-7.1 13.7 7.1-13.7 7.1Z"/>
		<path d="M18.6 6.9v1.9l1.9 1-1.9 1v1.9l5.6-2.9-5.6-2.9z"/>
		<path d="m21.1.5-1.8 1 18 9.3-18 9.3 1.8 1L41 10.8 21.1.5zM17.4 15.3v-1.9l-5-2.6 3.2-1.7v2l1.8-.9V6.3l-8.7 4.5 8.7 4.5z"/>
	</g>
</svg>