<svg xmlns="http://www.w3.org/2000/svg" viewBox="0 0 114 36">
	<path fill="#fff" d="M77.54 3.9438c-2.943 0-5.451.4677-7.572 1.1774l.427 4.3951c1.928-.7016 3.968-1.0564 5.936-1.0564 6.903 0 8.709 4.2016 9.145 6.871H73.927v4.5161h11.549c-.081 4.2339-2.903 7.6935-8.557 7.6935-1.427 0-3.863-.1693-6.677-1.3467l2.129 5.3871c1.476.3145 2.911.4758 4.347.4758 9.346 0 14.645-5.7339 14.645-14.492 0-8.5161-5.581-13.6209-13.823-13.6209Zm21.266 15.2338h3.452c3.113 0 4.911 1.3387 4.911 4.121 0 2.7903-1.798 4.121-4.911 4.121h-3.452v-8.242ZM93.234 4.2583v27.4838h10.048c7.855 0 9.782-5.1048 9.782-8.008 0-3.5403-1.693-8.8791-9.782-8.8791h-4.476V9.1212h12.017V4.2583H93.234ZM52.2096 21.0244l3.8065-11.2339h.0806l4.0403 11.2339h-7.9274Zm.9033-16.7661L42.1613 31.7421h5.9677l2.3145-6.1612H61.79l2.315 6.1612h6.282L59.476 4.2583h-6.3631Zm-32.25 15.2256-1.371 1.3709.9113 2.2017 2.6613-2.6613-2.2016-.9113Zm-1.879 1.5806h-1.9436l-.9113 2.2016h3.7581l-.9032-2.2016Zm2.0967-4.0322v1.9354l2.1936.9113v-3.758l-2.1936.9113Zm-4.5564 3.8225-1.371-1.3709-2.1935.9113 2.6613 2.6613.9032-2.2017Zm3.879-7.9113-.9113 2.2017 1.371 1.3709 2.2016-.9113-2.6613-2.6613Zm-3.3629 1.9839h1.9436l.9032-2.1935H16.129l.9113 2.1935Zm-2.0968 4.0403v-1.9354L12.75 16.121v3.758l2.1935-.9113Zm.2097-2.4516 1.371-1.3709-.9032-2.2017-2.6613 2.6613 2.1935.9113Zm1.4516-5.2258h13.2904c.4596 0 .9193.1774 1.2742.5323.3548.3548.5322.8145.5322 1.2742s-.1774.9274-.5322 1.2822l3.0483 3.0484c1.1936-1.1935 1.7904-2.7661 1.7904-4.3306 0-1.5645-.5968-3.1291-1.7904-4.3226-1.1935-1.1936-2.758-1.7903-4.3225-1.7903h-8.9839l-4.3065 4.3064Zm5.1533.9678 9.3951 9.4032c.3307.3226.5323.7742.5323 1.2742s-.2016.9516-.5323 1.2822c-.3226.3226-.7742.5242-1.2742.5242v4.3146c1.6855 0 3.2178-.6855 4.3226-1.7904 1.1129-1.1129 1.7903-2.6371 1.7903-4.3306 0-1.6855-.6854-3.2178-1.7903-4.3307l-6.3468-6.3467h-6.0967Zm2.9596 4.3306V29.879c0 .4597-.1774.9275-.5322 1.2823-.3549.3468-.8145.5242-1.2742.5242s-.9274-.1774-1.2742-.5242l-3.0565 3.0484C19.7823 35.4032 21.3468 36 22.9113 36c1.5645 0 3.129-.5968 4.3306-1.7903 1.1936-1.1936 1.7904-2.7662 1.7904-4.3307l-.0081-8.9758-4.3065-4.3145Zm-.9677 5.1532-9.3952 9.4033c-.3306.3225-.7822.5242-1.2822.5242s-.9436-.2017-1.2742-.5242c-.3307-.3307-.5323-.7823-.5323-1.2823H6.9516c0 1.6936.6855 3.2177 1.7984 4.3306 1.1048 1.1049 2.6371 1.7904 4.3226 1.7904 1.6935 0 3.2177-.6855 4.3306-1.7904l6.3468-6.3548v-6.0968Zm-4.3306 2.9597H6.129c-.4596 0-.9274-.1774-1.2742-.5242-.3548-.3548-.5322-.8145-.5322-1.2822 0-.4597.1774-.9194.5322-1.2742l-3.0483-3.0484C.6048 19.7661.0080986 21.3306.0080986 22.8952c0 1.5645.5967014 3.1371 1.7984014 4.3306C3 28.4194 4.5645 29.0161 6.129 29.0161h8.9839l4.3065-4.3145Zm-5.1775-1.0242-9.3951-9.3951C4.5161 13.9516 4.3145 13.5 4.3145 13s.2016-.9516.5323-1.2742c.3226-.3306.7742-.5323 1.2742-.5323V6.8871c-1.6855 0-3.2178.6855-4.3226 1.7903C.685501 9.7823 0 11.3145 0 13c0 1.6935.685501 3.2177 1.7984 4.3306l6.3468 6.3468h6.0967Zm-2.9354-4.2742V6.1129c0-.4597.1774-.9194.5322-1.2742.3468-.3548.8145-.5242 1.2742-.5322.4597 0 .9194.1774 1.2742.5322l3.0564-3.04838C16.2419.59677 14.6774 0 13.1129 0c-1.5645 0-3.129.59677-4.3306 1.79032C7.5887 2.98387 6.9919 4.5484 6.9919 6.121v8.9758l4.3146 4.3064Zm.9677-5.1532 9.3952-9.3952c.3306-.3306.7822-.5242 1.2822-.5242s.9436.2017 1.2742.5242c.3307.3307.5323.7742.5323 1.2823h4.3145c0-1.6936-.6936-3.22581-1.7984-4.33065C26.1694.70161 24.6371.01613 22.9516.01613c-1.6935 0-3.2258.68548-4.3306 1.79032L12.2742 8.1532V14.25Zm6.8145 6.3468 1.5161-1.5242v-2.1532l-1.5161-1.5162h-2.1532l-1.5242 1.5162v2.1532l1.5242 1.5242h2.1532Zm-3.4516 3.1371-3.3629-3.3549v-4.758l3.3629-3.3629h4.75L23.75 15.621v4.758l-3.3629 3.3549h-4.75Z"/>
</svg>