<svg xmlns="http://www.w3.org/2000/svg" viewBox="0 0 180 40">
	<path fill="#fff" d="m73.1508 0 6.0958 11.1565h7.361l8.7413 15.1822h4.9461L111.106 0H99.7195L96.269 16.6773 87.1827 0H73.1508Zm11.7316 12.9968 8.8562 15.2971 6.7864.115 5.75 10.9266H93.0485l-9.4313-15.5272-3.9105 15.5272H69.2402l10.6965-26.3387h4.9457ZM0 28.2941l6.55591-16.4473H23.0032l-6.5559 16.4473H0Zm13.4569-5.5208.9201 2.3003h2.1853l-4.0256-10.1214h-2.1853L6.44089 25.0736H8.6262l.80511-2.3003h4.02559Zm-.6901-1.6102-1.3802-3.7956-1.3802 3.7956h2.7604Zm5.7508 7.0159 6.5559-16.3322h16.4473L34.9649 28.179H18.5176Zm13.8019-3.1054h2.0703l-.115-10.1214h-7.131v5.7508c0 .3367.0219.6471.0417.9287.082 1.1612.1293 1.8317-1.5369 1.8317v1.6102c.0578.0048.1162.0099.1752.0149 1.3471.1158 2.9447.253 3.2752-1.5101.2483-1.5726.1988-3.3238.1516-4.9965-.0185-.6518-.0365-1.2917-.0365-1.9045h3.1054v8.3962Zm4.7156 3.1054 6.556-16.3322h16.4472L53.4824 28.179H37.0351Zm7.4761-2.9904h7.8211v-1.7252h-5.7508V20.703h5.1757v-1.7252h-5.1757v-2.3004h5.5207v-1.7252h-7.591v10.2364Zm21.393-7.476v4.6006c-3.4505-.115-3.3355-4.6006 0-4.6006Zm1.9552 4.4856v-4.6006c3.3355.115 3.3355 4.6006 0 4.6006Zm-5.9808-10.3514h16.4473L71.77 28.179H55.3227l6.5559-16.3322Zm5.9808 13.2268v-1.1501c5.9809-.1151 5.9809-7.7061 0-7.9361v-1.0352h-2.0703v.9201c-5.9808.1151-5.9808 7.9361 0 8.0512v1.1501h2.0703Zm63.8336-7.7061-1.38 3.7956h2.76l-1.38-3.7956Zm11.502-5.4057-6.556 16.3323h-16.447l6.556-16.3323h16.447Zm-10.467 2.9904h-2.185l-3.91 10.1214h2.185l.805-2.3003h4.026l.92 2.3003h2.185l-4.026-10.1214Zm28.984-2.9904-6.555 16.3323h-16.448l6.556-16.3323h16.447Zm-13.571 2.9904h-2.071v10.2364h2.071V20.703h4.025v4.4856h2.07V14.9522h-2.07v4.0256h-4.025v-4.0256ZM180 11.9618l-6.556 16.3323h-16.447l6.556-16.3323H180Zm-13.112 3.1054h-2.07v10.0064h2.07V20.588c1.199.0922 2.102 2.3287 2.65 3.686.136.3355.249.6172.341.7996h2.415c-.141-.2811-.295-.6433-.468-1.0458-.672-1.5738-1.609-3.7635-2.983-4.1299.726-.4353.984-1.1147 1.227-1.7559.335-.8835.643-1.6946 2.109-1.6946v-1.4952c-.202.0337-.424.0477-.655.0621-.555.0349-1.158.0728-1.645.398-.66.406-.939 1.1928-1.213 1.965-.347.9777-.685 1.932-1.778 2.0605v-4.3706Zm-42.211-3.1054-6.556 16.3323h-16.447l6.556-16.3323h16.447Zm-8.166 2.9904h-7.591l.115 10.0064c.408 0 .903.0299 1.445.0627 2.824.1706 6.951.42 6.951-3.0531 0-3.1493-3.14-3.0683-5.538-3.0064-.317.0081-.621.016-.903.016v-2.3004h5.521v-1.7252Zm-5.521 5.7508v2.6454c.194 0 .443.0162.722.0345 1.385.0906 3.534.2311 3.534-1.2997 0-1.5715-2.265-1.4655-3.642-1.401-.236.011-.446.0208-.614.0208Z"/>
</svg>