<svg xmlns="http://www.w3.org/2000/svg" viewBox="0 0 150 32">
	<path fill="#fff" d="M0 26.5364h19.8091v4.1091H0v-4.1091Zm143.255-13.1909 6.245-6.89096h-4.655l-5.118 5.72726V6.45454h-3.709V20.9364h3.727v-6.1l5.473 6.1H150l-6.745-7.5909ZM21.9909 14.3c-.1 2.7273-.4454 3.2455-1.9545 3.2455v3.4H20.6c3.7909 0 4.6909-1.9546 4.8273-6.3091l.1636-4.81822h3.5V20.9364H32.8V6.45454H22.2455L21.9909 14.3ZM5.89091 16.7909h7.81819l1.3 4.1455h4.3364L13.5 3.51818C12.9364 1.83636 12.2818.5 10.0455.5 7.80909.5 7.12727 1.83636 6.52727 3.51818L.4 20.9364h4.07273l1.41818-4.1455ZM9.85455 5.04545h.1L12.5727 13.3H7.06364l2.79091-8.25455ZM96.5 8.50909h-4.1364V4.41818h9.6004V.781819H88.4727V20.9364H96.5c4.445 0 7-2.2182 7-6.2728 0-3.8454-2.591-6.15451-7-6.15451Zm-.1909 8.78181h-3.9455v-5.2364h3.9455c2.0545 0 3.2091.9091 3.2091 2.6182 0 1.7091-1.1546 2.6182-3.2091 2.6182ZM59.6273 6.11818V.754545h-3.7V6.11818c-1.9428.06409-3.7808.89664-5.1104 2.31473-1.3294 1.41818-2.0418 3.30599-1.9805 5.24889-.0662 1.9469.6436 3.8404 1.9734 5.2639 1.3297 1.4237 3.1706 2.2607 5.1175 2.327v5.4546h3.7091v-5.4546c.9643-.0317 1.9131-.2532 2.7916-.6522.8786-.3988 1.6699-.967 2.3286-1.6721.6587-.7052 1.1718-1.5333 1.51-2.437.3381-.9038.4947-1.8653.4607-2.8296.0389-.9649-.1148-1.9279-.452-2.8327-.3373-.90492-.8514-1.73355-1.5123-2.43764-.6609-.704-1.4554-1.26946-2.3372-1.66319-.8818-.39372-1.8331-.60791-2.7985-.63009ZM55.9364 17.7727c-.9817-.1078-1.8816-.5972-2.5057-1.3624-.6241-.7653-.9225-1.7452-.8307-2.7285-.08-.9808.2226-1.9545.8446-2.7171.6219-.7626 1.5149-1.25488 2.4918-1.37379v8.18179Zm3.7091 0V9.59091c.9768.11891 1.8698.61119 2.4917 1.37379.622.7626.9246 1.7363.8446 2.7171.087.9823-.2131 1.9597-.8363 2.7239s-1.5203 1.2548-2.5 1.367Zm20.9818-1.2818v-4.8818c0-3.56365-2.2637-5.79092-6.0637-5.79092s-6.0181 2.36364-6.2 4.82732h3.7546c.1273-.5273.6909-1.46368 2.4363-1.46368.3264-.042.6573-.00764.9673.10054.3109.10819.5918.287.8209.52255.2291.23549.4009.52109.5009.83419.1.3132.1255.6453.0746.97h-3.6364c-3.2909 0-5.2454 1.7364-5.2454 4.6091-.0257.6855.0929 1.3688.348 2.0056.2551.6368.6411 1.2129 1.1331 1.6911.4918.4782 1.0786.8477 1.7224 1.0848.6437.237 1.3301.3362 2.0146.2912.7729.0406 1.5437-.1098 2.2446-.438.7009-.3283 1.31-.8241 1.7736-1.4438.3018.5104.7419.9248 1.27 1.1951.5273.2703 1.1209.3855 1.7118.3322h1.2819v-3.3455c-.6273 0-.9091-.3-.9091-1.1Zm-3.7091-.9091c.0154.3581-.0455.7154-.1791 1.0482-.1327.3328-.3346.6337-.5918.8828-.2582.2491-.5655.4407-.9028.5624-.3372.1215-.6963.1703-1.0536.143-1.3364 0-2.3909-.4818-2.3909-1.9273 0-1.4454 1.1727-1.6545 2.1636-1.6545h2.9546v.9454Zm-34.8818-4.7273h-2.6637V6.45454h-3.7091V20.9364H42.1c4.0273 0 5.4545-2.6182 5.4545-5.0909.0182-3.191-1.9818-4.991-5.5181-4.991Zm-.2728 6.9182h-2.3909v-3.6363h2.3909c1.2819 0 2.0546.5818 2.0546 1.8181 0 1.2364-.7364 1.8182-2.0546 1.8182Zm75.8914-1.2818v-4.8818c0-3.56365-2.264-5.79092-6.064-5.79092-3.8 0-6.018 2.36364-6.2 4.82732h3.754c.128-.5273.691-1.46368 2.437-1.46368.326-.042.657-.00764.967.10054.311.10819.592.287.821.52255.229.23549.401.52109.501.83419.1.3132.125.6453.074.97h-3.636c-3.291 0-5.245 1.7364-5.245 4.6091-.026.6855.092 1.3688.348 2.0056.254.6368.641 1.2129 1.133 1.6911.491.4782 1.079.8477 1.722 1.0848.644.237 1.33.3362 2.015.2912.78.0483 1.56-.0984 2.27-.4269.709-.3285 1.325-.8285 1.793-1.4549.298.5015.73.9102 1.247 1.18.517.2698 1.099.3901 1.681.3473h1.282v-3.3455c-.646 0-.9-.3-.9-1.1Zm-3.691-.9091c.013.3577-.049.7143-.182 1.0465-.134.3322-.336.6324-.593.8812-.257.2488-.564.4405-.901.5627-.336.1221-.694.1718-1.052.146-1.336 0-2.391-.4818-2.391-1.9273 0-1.4454 1.173-1.6545 2.164-1.6545h2.955v.9454Zm15.536-3.7363h-5.118V6.45454h-3.709V20.9455h3.709v-5.7091h5.118v5.7h3.709V6.45454H129.5v5.39096Z"/>
</svg>