<svg xmlns="http://www.w3.org/2000/svg" viewBox="0 0 130 30">
	<path fill="#fff" d="M28.9467.173828h-9.1V9.27383h9.1867L28.9467.173828ZM42.2934 8.23334l1.6466-.08667c1.3 0 2.2534-.34667 3.0334-1.04.6933-.69333 1.04-1.64667 1.04-2.86 0-1.12667-.3467-2.16667-1.04-2.94667C46.28.606667 45.24.173333 44.0267.173333H39.78V12.6533h2.5134V8.23334Zm0-6.06667h1.82c.4333 0 .78.26 1.04.60666.26.34667.4333.78001.4333 1.47334 0 .69333-.1733 1.04-.4333 1.38667-.3467.34666-.6934.52-1.1267.52h-1.7333V2.16667ZM51.5667.173333l-3.9 12.393367h2.6l.6933-2.5134h3.38l.6934 2.5134H57.72L53.82.173333h-2.2533Zm0 7.713337 1.1267-4.42 1.2133 4.42h-2.34Zm11.44 4.76663c1.3 0 2.34-.3466 3.12-1.04.6933-.6933 1.1267-1.90663 1.2133-3.29329h-2.6c0 .78-.1733 1.38666-.4333 1.73329-.26.3467-.6933.52-1.3867.52-.6933 0-1.1266-.1733-1.3866-.69329-.26-.43334-.4334-1.3-.4334-2.51334v-2.34c0-1.04.1734-1.82.4334-2.25334.3466-.52.78-.69333 1.4733-.69333s1.1267.17333 1.3867.52c.26.34667.4333.86667.4333 1.82H67.34c-.1733-1.38667-.52-2.51333-1.2133-3.29333C65.4334.433333 64.3934 0 63.0067 0S60.58.52 59.7134 1.38667c-.6934.86666-1.1267 2.16667-1.1267 3.9v2.08c0 1.82.4333 3.12003 1.1267 3.98663.8666.8667 1.9066 1.3 3.2933 1.3Zm12.1333-.0866h2.5134V.173333L75.14.0866662V5.72c-.6933.17334-1.2133.26-1.9066.26-.6934 0-1.04-.17333-1.3-.52-.26-.34666-.4334-.78-.4334-1.56V.0866662h-2.5133V4.07334c.0867 1.3.4333 2.25333 1.1267 2.94666.6933.69334 1.7333 1.04 3.12 1.04.6066 0 1.2133-.08666 1.9066-.26v4.7667ZM87.0134 10.4h-4.5933V7.19334h3.8133V5.2h-3.9V2.25333h4.5933V.173333h-7.1066V12.5667h7.1933V10.4Zm6.76 2.1667V2.16667h3.12V.0866662h-8.6667V2.16667h3.0334V12.5667h2.5133ZM100.967 7.28h3.726v5.2867h2.514V.173333h-2.514V5.2h-3.726V.173333h-2.5136V12.5667h2.5136V7.28Zm17.16-7.106667h2.513V12.5667h-2.513V.173333ZM113.36 4.59334h-1.473V.173333h-2.514V12.48h4.16c1.214 0 2.167-.4333 2.947-1.1267.693-.6933 1.04-1.64663 1.04-2.85996 0-1.21334-.433-2.08-1.127-2.86-.693-.78-1.82-1.04-3.033-1.04Zm1.213 5.37333c-.26.43333-.693.60663-1.126.60663h-1.56V6.84667h1.56c.52 0 .866.17333 1.126.52.26.34667.434.69334.434 1.3 0 .43334-.174.86667-.434 1.3ZM125.32 10.4V7.19334h3.987L129.22 5.2h-3.9V2.25333h4.593V.173333h-7.106V12.5667H130V10.4h-4.68Zm-81.2933 6.24H39.78v12.3934h2.5134v-4.4201H43.94c1.3 0 2.2534-.3466 3.0334-1.04.6933-.6933 1.04-1.6466 1.04-2.86 0-1.1266-.3467-2.1666-1.04-2.9466-.6934-.78-1.7334-1.1267-2.9467-1.1267Zm1.1267 5.3733c-.3467.3467-.6934.52-1.1267.52h-1.7333v-3.9h1.82c.4333 0 .78.1734 1.04.6067.26.3467.4333.78.4333 1.4733 0 .6067-.1733 1.04-.4333 1.3Zm7.3666 1.56h3.8134v-1.9066h-3.9V18.72h4.5933v-2.08h-7.02v12.3067h7.1067v-2.08H52.52v-3.2934Zm16.2934 3.3801H66.3V16.64h-2.6v10.3134h-2.5133V16.64h-2.5133v12.3067h12.6533V16.64h-2.5133v10.3134Zm7.1066-3.3801h3.9001l-.0867-1.9066h-3.9V18.72h4.68v-2.08h-7.1067v12.3067h7.1934v-2.08H75.92v-3.2934Zm12.4801-1.9066h-3.7267V16.64h-2.5133v12.3067h2.5133V23.66h3.7267v5.2867h2.5133V16.64h-2.5133v5.0267Zm7.1066 3.12V16.64h-2.5133v12.3067h2.5133l3.64-8.2334v8.2334h2.5133V16.64h-2.5133l-3.64 8.1467Zm8.8403-7.1934c-.694.6934-1.04 1.6467-1.04 2.86 0 1.3867.52 2.4267 1.56 3.2067l-2.167 5.3734h2.687l1.906-4.5067h1.3v4.5067h2.514V16.64h-3.727c-1.387 0-2.34.26-3.033.9533Zm4.16 4.94h-1.127c-.52 0-.867-.1733-1.127-.52-.346-.26-.433-.78-.433-1.4733 0-1.3.52-1.9933 1.473-1.9933h1.214v3.9866ZM9.10001.173828H0V9.18717h9.10001V.173828ZM28.9467 9.9668h-9.1v9.1h9.1867l-.0867-9.1ZM19.0666.173828H9.96655V9.27383h9.10005V.173828ZM19.0666 9.9668H9.96655v9.1h9.10005v-9.1ZM28.9467 19.8477h-9.1v9.1h9.1867l-.0867-9.1Z"/>
</svg>