<svg xmlns="http://www.w3.org/2000/svg" viewBox="0 0 180 28">
	<path fill="#fff" d="M19.6547 0c2.6098.224038 5.073.634809 7.1907 1.35076 1.9464.65803 3.8797 1.66342 5.3463 3.27229 1.5436 1.6933 2.3519 3.81916 2.3519 6.22535 0 2.4063-.8083 4.5321-2.3519 6.2255-1.4666 1.6088-3.3999 2.3324-5.3463 2.9905-3.8117 1.2888-10.3545 1.2888-13.3877 1.2888H10.0714l3.0316-6.7546c4.836 0 13.9109-.4098 16.4705-1.2752 1.245-.4209 1.8941-.8773 2.2121-1.2261.241-.2644.42-.5923.42-1.2489 0-.6565-.179-.9844-.42-1.24876-.318-.34888-.9671-.80526-2.2121-1.22613-2.0578-.69575-8.292-1.15441-13.1588-1.15441L19.6547 0Zm59.0211 10.4199c0-3.64582 2.2821-6.02625 6.4106-6.02625 4.1282 0 6.4271 2.38043 6.4271 6.02625 0 3.6457-2.2989 6.0268-6.4271 6.0268-4.1285 0-6.4106-2.3811-6.4106-6.0268Zm2.4837 0c0 2.3307 1.3761 4.0288 3.9269 4.0288 2.5509 0 3.9434-1.6981 3.9434-4.0288 0-2.33014-1.3925-4.02824-3.9434-4.02824-2.5508 0-3.9269 1.6981-3.9269 4.02824Zm-30.3564 5.8262-1.0071-2.6635h-5.9239l-1.0067 2.6635h-2.4502l4.5981-11.65318h3.7089l4.6314 11.65318h-2.5505Zm-6.2091-4.528h4.4972l-2.2489-5.94302-2.2483 5.94302Zm17.8351-1.4485c2.1812.1664 3.6411 1.0325 3.6411 2.8467 0 2.0476-1.8289 3.1298-4.581 3.1298h-6.4946V4.59292h6.4271c2.4499 0 4.2288.999 4.2288 2.99633 0 1.63168-1.2251 2.48035-3.2214 2.68035Zm.7548-2.31403c0-.91581-.7048-1.46462-1.947-1.46462h-3.7585v2.92991h3.7585c1.2258 0 1.947-.56625 1.947-1.46529Zm-.0892 5.93163c.3284-.2597.4918-.6287.4918-1.1037 0-1.0158-.7887-1.5485-2.1983-1.5485h-3.9098v3.1131h3.7759c.8424 0 1.4549-.1556 1.8404-.4609Zm14.8142-7.28018v-2.0141H66.9343v2.0141h4.2453v9.63908h2.4834V6.60702h4.2459Zm26.8271-1.19759c3.709 0 5.79 1.7142 5.79 4.74407 0 3.0467-2.081 4.7448-5.79 4.7448h-.687v1.3485h-2.383v-1.3485h-.689c-3.6911 0-5.8059-1.6981-5.8059-4.7448 0-3.02987 2.1148-4.74407 5.8059-4.74407h.689V4.39365h2.383v1.01578h.687Zm-3.608 7.59077h.538V7.30679h-.538c-2.1981 0-3.4731.98223-3.4731 2.84671 0 1.8645 1.275 2.8467 3.4731 2.8467Zm3.457 0c2.199 0 3.457-.9822 3.457-2.8467 0-1.86448-1.258-2.84671-3.457-2.84671h-.536v5.69341h.536Zm15.81-8.40728h3.826V16.2461h-2.4V6.32389l-5.335 9.92221h-3.86V4.59292h2.416V14.548l5.353-9.95508Zm17.912 0h-2.484v4.7112h-6.293v-4.7112h-2.483V16.2461h2.483v-4.9279h6.293v4.9279h2.484V4.59292Zm12.047 11.65318-1.008-2.6635h-5.923l-1.007 2.6635h-2.45l4.598-11.65318h3.708l4.632 11.65318h-2.55Zm-1.713-4.528-2.248-5.94302-2.249 5.94302h4.497Zm17.165-7.12518h-2.484v4.7112h-6.293v-4.7112h-2.484V16.2461h2.484v-4.9279h6.293v4.9279h2.484V4.59292Zm2.145 5.82698c0-3.61227 2.199-6.02625 6.158-6.02625 3.206 0 5.304 1.56459 5.706 3.97857l-2.383.18316c-.284-1.29824-1.61-2.16372-3.323-2.16372-2.5 0-3.674 1.84771-3.674 4.02824 0 2.314 1.342 4.0288 3.826 4.0288 1.93 0 3.07-1.0486 3.339-2.3475l2.4.1503c-.386 2.5803-2.316 4.1952-5.739 4.1952-4.061 0-6.31-2.3972-6.31-6.0268ZM47.9114 25.0157c0-1.7598-1.4005-2.4548-3.0932-2.4548h-2.6726v-1.8645h5.0419v-1.3197h-6.7692v8.1047h4.3999c1.6927 0 3.0932-.683 3.0932-2.4657Zm-1.7276 0c0 .7179-.4901 1.146-1.5173 1.146h-2.5209v-2.2926h2.5209c1.0272 0 1.5173.4288 1.5173 1.1466Zm9.464 2.4657-.7001-1.8524h-4.1201l-.7001 1.8524h-1.7041l3.1979-8.1047h2.5794l3.2214 8.1047h-1.7743Zm-1.1902-3.1486-1.5642-4.1343-1.5639 4.1343h3.1281Zm11.9374-4.9561h-1.727v3.2767h-4.3771v-3.2767h-1.7272v8.1047h1.7272v-3.4271h4.3771v3.4271h1.727v-8.1047Zm7.8887 8.1047-2.9994-3.4271H70.082v3.4271h-1.7273v-8.1047h1.7273v3.3693h1.1671l2.8246-3.3693h2.0423l-3.5127 3.9255 3.8048 4.1792h-2.1244Zm-66.96237-.0011 2.75007-6.1274c-2.24648 0-4.13277-.3793-5.10154-.7069-1.24489-.4208-1.89406-.9335-2.21201-1.2826-.24108-.2644-.41984-.5921-.41984-1.2489 0-.6564.17876-.9842.41984-1.2486.31795-.349.96712-.8053 2.21201-1.2262 1.37995-.4664 4.58161-1.0417 8.13314-1.0417l3.3118-7.37954c-3.2394 0-6.2472.43172-8.77345 1.28583-1.94634.65803-3.82288 1.77611-5.2896 3.38501C.808146 13.5826 0 15.7084 0 18.1145c0 2.4064.808146 4.5322 2.35175 6.2255 1.37198 1.505 3.15227 2.482 4.96958 3.1403Z"/>
</svg>