<svg xmlns="http://www.w3.org/2000/svg" viewBox="0 0 180 18">
	<path fill="#fff" d="M4.76889 8.16264v5.20106H6.5468c.24556.027.43219-.1302.43219-.4911V8.67582c0-.33147-.10805-.51318-.43219-.51318H4.76889ZM0 15.1834V.0294296L10.6699.00737972V1.86138l-5.90101-.027v4.53069h2.40164c1.15662 0 4.55777-.05895 4.55777 2.0529v4.68543c.022 1.746-2.74795 2.0308-4.5283 2.0554l-7.2.0246ZM20.5785 2.18061l-1.2942 7.04286h2.802l-1.2671-7.04286h-.2407ZM13.6977 15.1834 17.1504.00737972h7.087L27.69 15.1834h-4.6338l-.7293-3.8137h-3.2881l-.7024 3.8137h-4.6387ZM30.0794.00737972h4.6903V6.11217l2.129-.02952V.00737972h4.6658V15.1834h-4.6658V8.24121h-2.129v6.91999l-4.6903.0222V.00737972Zm15.0507 0H49.71V6.15879L52.7279.00737972h4.5013L53.7545 7.13124l3.988 8.05216h-4.3957L49.71 8.29035v6.89305h-4.5799V.00737972ZM74.8928 2.15118l-1.2967 7.04529H76.43l-1.2941-7.04529h-.2431ZM68.0243 15.1834 71.4696.00737972h7.0895L82.0093 15.1834H77.373l-.6974-3.8457H73.358l-.6974 3.8457h-4.6363ZM104.161 2.19294l-1.291 7.01334h2.804l-1.264-7.01334h-.249ZM97.2909 15.1834 100.741.00737972h7.087L111.28 15.1834h-4.633l-.732-3.8358h-3.283l-.703 3.8358h-4.6381ZM144.348 2.19294l-1.267 7.02558 2.807-.02205-1.299-7.00353h-.241Zm-6.841 12.99046L140.95.00737972h7.092L151.521 15.1834h-4.668l-.724-3.8259h-3.293l-.727 3.8259h-4.602ZM118.483.00737972V6.1146h2.134V.0294296l4.688-.02204988V15.1612l-4.688.0222V8.25597h-2.134v6.92743h-4.69V.0294296l4.69-.02204988ZM88.8925 8.26821v5.09549h1.6187c.3186 0 .513-.1842.513-.4395V8.83548c0-.33894-.1404-.56727-.5355-.56727h-1.5962Zm-4.5479 6.89299v.0246V.00737972h6.7606c4.5306 0 4.3929 1.51515028 4.3929 2.21256028v3.13587c0 .46656-.1125 1.854-2.5731 1.77543v.15228c1.9962-.02214 2.6568.62127 2.6568 1.57653v4.17455c0 .7146-.2754 2.102-4.5063 2.1266h-6.7309Zm4.5479-13.32682v4.34898l1.5962.027c.3978 0 .5355-.15471.5355-.36099V2.24199c0-.22833-.108-.41004-.513-.41004h-1.6187v.00243ZM129.246.00737972h9.28V1.83438h-4.724V15.1834h-4.556V.00737972ZM158.107 1.83195v6.17346h1.965c.783.05157.783-.2799.833-.64089l-.023-4.96287c.023-.56484-.554-.5796-.793-.5697h-1.982Zm-4.581 13.32925V.00737972h7.113c1.513 0 4.155 0 4.155 2.18304028v5.2281c0 2.2347-2.477 2.31327-4.155 2.34027h-2.529v5.42211l-4.584-.0197Zm21.447-13.32187h-2.684v9.94297c0 .7637-.16 1.4046-.97 1.66v-.0246l3.639-.0147.015-11.56367Zm-9.739 15.17347v-3.5411l.322-.027c1.962 0 2.21-1.0264 2.21-1.5617V.00737972L178.865 0v13.4202H180v3.5902h-4.526v-1.8492h-5.717v1.8492h-4.523v.0024Z"/>
</svg>