<svg xmlns="http://www.w3.org/2000/svg" viewBox="0 0 180 30">
	<g fill="#fff">
		<path d="M148.681 20.7032c-.593.7253-1.45 1.2527-2.307 1.5824-.726.2637-1.583.3297-2.77.3297h-2.373c-.528 0-.792 0-.923-.0659-.198-.066-.33-.5275-.33-1.2528v-5.1429h1.846c.923 0 1.517.1978 1.846.5275.33.3297.594.989.594 1.8462v.5934h1.055v-6.9231h-1.055v.2637c0 .5934-.066 1.055-.198 1.4506-.33.7912-1.055 1.2527-2.308 1.2527h-1.846V9.36249h3.824c.923 0 1.517 0 1.78.066 1.715.2637 2.836 1.31871 3.561 3.23071l.989-.3296-1.319-4.28571H135.89v.989c.791 0 1.253 0 1.319.0659.263.0659.461.2637.527.5275.066.1978.066.46151.066.79121v10.8791c0 .5275 0 .7912-.066.989-.066.1978-.264.3297-.461.4616-.198.0659-.462.0659-.989.0659h-.462v.989h13.253l1.78-4.8791-1.055-.3297c-.33.8572-.659 1.6484-1.121 2.1099Zm-32.11 1.6483c-.197-.1978-.329-.5934-.527-1.1868l-4.879-13.18681h-1.846l-4.88 12.98901c-.263.5934-.461.989-.527 1.2528-.264.3296-.791.5274-1.451.5274v.989h4.748v-.989h-.528c-.264 0-.527 0-.593-.0659-.264-.0659-.462-.3297-.462-.5934 0-.066.066-.3297.198-.7253l1.253-3.3626h5.736l1.055 3.0329c.198.5934.33.989.33 1.1869 0 .1978-.066.4615-.33.5274-.066.066-.33.066-.725.066h-.528v.989h5.605v-.989h-.33c-.593 0-1.055-.1978-1.319-.4616Zm-9.23-5.6044 2.373-6.79121 2.374 6.79121h-4.747Zm24.989-.7912c-.462-.1978-1.055-.3296-1.846-.5274.593-.1978 1.186-.3297 1.516-.5934 1.253-.7253 1.78-1.7803 1.78-3.033 0-.9231-.329-1.7143-.989-2.37361-.527-.5934-1.318-.989-2.307-1.2528-.726-.1978-1.979-.2637-3.759-.2637h-7.516v1.0549h.527c.462 0 .791 0 .989.066.33.1978.528.5934.528 1.45051v10.9451c0 .5274-.198.923-.462 1.0549-.198.1978-.527.2637-1.055.2637h-.527v.989h7.912c2.374 0 4.088-.2637 5.143-.923 1.45-.7912 2.11-1.978 2.11-3.4945.131-1.5165-.594-2.6374-2.044-3.3627Zm-8.967-6.65931h3.494c1.253 0 2.11.0659 2.506.1978 1.318.3297 2.044 1.18681 2.044 2.50551 0 1.5165-.792 2.5055-2.374 2.967-.462.066-1.319.1978-2.703.1978h-2.901V9.29659h-.066Zm7.714 12.19781c-.528.5275-1.253.9231-2.11.989-.461.0659-1.319.0659-2.505.0659h-1.649c-.593 0-.989 0-1.055-.0659-.198-.0659-.263-.1978-.329-.2637 0-.066-.066-.4616-.066-.9231v-5.1429h3.033c1.714 0 2.835.066 3.494.3297 1.451.4615 2.11 1.4506 2.11 2.8352 0 .923-.264 1.6483-.923 2.1758ZM161.67 8.37349c-.725-.2637-2.044-.3296-3.89-.3296h-6.264v.989h.33c.528 0 .923 0 1.055.0659.33.1978.528.5934.528 1.45061v10.8131c0 .5275 0 .9231-.066 1.055-.198.3297-.726.5275-1.517.5275h-.33v.989h6.132v-.989h-.527c-.725 0-1.187-.1978-1.319-.5935-.066-.1978-.066-.5274-.066-1.1868v-4.0219h2.835c1.319 0 2.374-.066 3.099-.3297.989-.3297 1.781-.9231 2.374-1.8462.461-.5934.725-1.4505.725-2.3736 0-2.1758-1.055-3.56041-3.099-4.21981Zm.198 6.13191c-.33.5934-.923.989-1.582 1.1868-.462.0659-1.187.1978-2.11.1978l-2.506.0659V9.36249h1.978c1.319 0 2.242.066 2.704.1978 1.45.46161 2.11 1.45061 2.11 3.03301-.066.6594-.264 1.3846-.594 1.9121Zm17.275 5.011c-.725.989-1.583 1.7143-2.572 2.3077-1.055.5934-2.109.989-3.296.989-1.055 0-2.044-.2637-2.967-.9231-.989-.5934-1.781-1.5165-2.242-2.7033-.462-1.0549-.725-2.2417-.725-3.4945 0-1.3187.263-2.5055.791-3.5604 1.055-2.1099 2.769-3.23081 4.879-3.23081 1.78 0 3.099.7253 4.22 2.24181.264.4615.725 1.2527 1.253 2.3736l1.054-.2637-1.252-5.27481h-.791l-.33 1.055c-1.319-.9231-2.703-1.3187-4.22-1.3187-1.45 0-2.769.3297-4.022 1.0549-1.253.7253-2.242 1.78031-2.967 3.03301-.725 1.2528-1.055 2.5714-1.055 4.0879 0 2.044.594 3.8901 1.846 5.3407 1.517 1.7802 3.495 2.7692 6 2.7692 2.11 0 4.022-.7253 5.737-2.2418.527-.4615 1.054-1.0549 1.516-1.7802l-.857-.4615ZM61.5166 20.835l-4.7473-6.3296 4.2198-4.2198c.9231-.92311 1.8461-1.31871 3.0329-1.31871v-.989h-5.5384v.989h.3297c.7252 0 1.0549.1978 1.0549.4615 0 .1978-.1978.5275-.5934.92311l-5.8022 6.1319v-5.8681c0-.4616 0-.72531.0659-.92311.1978-.4616.5934-.7253 1.4506-.7253h.4615v-.989h-6l-.1978.989h.3297c.5275 0 .9231 0 1.0549.0659.3297.1978.5275.7253.5275 1.51651v10.2198c0 .5275-.0659.9231-.1978 1.1868-.1978.3297-.5934.5934-1.3187.5934h-.4615v.9231h6v-.9231c-.7253 0-1.1868 0-1.3187-.0659-.4615-.1978-.5934-.5934-.5934-1.4506v-2.967l1.978-2.044 3.4945 4.7473c.5275.7253.7912 1.1868.7912 1.3187 0 .2637-.1978.3297-.4615.4615h-1.1209v.9231h6.5934v-.9231c-.5274 0-.989-.0659-1.2527-.1978-.5275-.0659-1.055-.5934-1.7802-1.5165ZM41.5384 8.83509h.5934c.7253 0 1.1868.2637 1.2528.7252 0 .1978.0659.46161.0659 1.05501v4.2198h-7.978v-4.2858c0-.5274 0-.92301.0659-1.05491.1978-.3297.5934-.5934 1.4506-.5934h.4615v-.989h-6v1.0549h.5934c.3297 0 .5934.066.7912.1978.3297.1978.4616.5934.4616 1.45061v10.6813c0 .4615 0 .7912-.066.989-.0659.2637-.3297.3297-.5934.4615h-1.1209v.9231h6v-.9231c-.7912 0-1.2527 0-1.4505-.0659-.2638-.0659-.4616-.2637-.5275-.5934v-5.8022h7.978v4.8132c0 .5934 0 1.0549-.0659 1.1868-.0659.2637-.5934.4615-1.4506.4615h-.4615v.9231h5.8681v-.9231c-.7252 0-1.1868 0-1.3186-.0659-.2638-.0659-.4616-.2637-.5275-.5934V10.6153c0-.5275 0-.92311.0659-1.05501.1978-.3296.5275-.5274 1.2528-.5274h.5274v-.9891h-5.8681v.7913ZM7.5165 13.7142H4.0879V9.09879H7.978c.9231 0 1.4506 0 1.7802.0659 1.5825.2638 2.7693 1.25281 3.4945 3.09891l.9891-.3296-1.4506-4.08791H.0658998v.989H.5934c.4615 0 .7912 0 .989.0659.3297.1978.4616.5934.4616 1.45061v10.7472c0 .4615-.1978.7912-.4616 1.0549-.1978.1978-.5275.2638-1.0549.2638H0v.9231h7.7802c3.2308 0 7.1209-.5275 7.1209-4.6154 0-3.2308-3.4945-5.011-7.3846-5.011Zm.3297 8.5055H5.6044c-.5934 0-.989 0-1.055-.066-.1978-.0659-.2637-.1978-.3296-.2637 0-.0659-.066-.3297-.066-.9231v-6.1318h3.2967c2.8352 0 5.011.7252 5.011 3.8241-.0659 3.3627-2.7692 3.5605-4.6153 3.5605Zm20.7692-.1978c-.1978-.1978-.3297-.5275-.5275-1.1868L23.3407 7.91199h-1.8462L16.6813 20.7691c-.1978.5934-.4615.989-.5274 1.1868-.2638.3297-.7253.5275-1.4506.5275v.9231h4.6154v-.9231h-.4615c-.2638 0-.5275 0-.5935-.0659-.2637-.1319-.4615-.3956-.4615-.6594 0-.0659.0659-.3296.1978-.7252l1.2528-3.3627h5.6044l.989 3.033c.1978.5934.2637.989.2637 1.1868 0 .1978-.0659.3297-.3297.5275-.0659.0659-.3296.0659-.7252.0659h-.5275v.9231h5.5384v-.9231h-.2637c-.4615 0-.9231-.1978-1.1868-.4615Zm-9.033-5.4726 2.4396-6.65931 2.3736 6.65931h-4.8132ZM83.868 2.57129c-.4615 0-.7252 0-.989.066 1.3187.3296 1.7143.9231 2.3737 1.978L90.857 12.923l2.044-1.8462-3.8901-5.93401c-1.3846-2.044-3.6264-2.5715-5.1429-2.5715Z"/>
		<path d="M83.0109 0c-8.3077 0-14.967 6.6593-14.967 14.9011 0 8.2417 6.6593 14.967 14.9011 14.967 8.242 0 14.967-6.6593 14.967-14.9011C97.978 6.7912 91.187 0 83.0109 0ZM96.396 16.2857l-2.77-4.1538-8.3074 7.5164c-2.967 2.7033-6.7912 6.9231-9.3626 2.2418-1.7143-3.0989-1.3187-8.4396.7252-11.0769 1.3187-1.5824 3.2308-1.5824 4.4836.2637l4.5494 6.7912 2.044-1.8461-3.0989-4.7473C83.0768 8.967 81.0988 7.978 79.1208 7.978c-1.7143-.0659-3.2308.5275-4.5494 1.5824-3.8902 3.0989-4.088 9.8242-.9891 13.6484 3.5605 4.3516 8.6374 2.967 12.4616-.4616l7.1211-6.3956 2.373 3.6264c-.066.1978-.197.3956-.263.6594l-1.912-2.9011-2.11 1.978 2.439 3.6264c-.198.2637-.395.4615-.593.7252l-2.572-3.8901-2.0436 1.978 2.5716 3.8242c-2.2419 1.7143-5.0771 2.7033-8.11 2.7033-7.3846-.0659-13.4506-6.1319-13.4506-13.5165 0-7.5165 6.066-13.4505 13.5165-13.4505 7.4501 0 13.4501 6.0659 13.4501 13.5165 0 .2637-.065.6593-.065 1.0549Z"/>
		<path d="M80.8352 2.9668c-1.055 0-2.1099.2638-3.033.7912 1.5824-.1978 2.967.4616 4.022 1.9781l6.5274 9.6923 2.0444-1.8462-5.8685-8.8352c-.9231-1.3846-2.2418-1.7802-3.6923-1.7802Z"/>
	</g>
</svg>