<svg xmlns="http://www.w3.org/2000/svg" viewBox="0 0 175 42">
	<g fill="#fff">
		<path d="M124.5 15.6h-5c-1 0-2 .3-2.8.9-1.2 1-1.8 2.8-1.8 5.5v1.5c0 .5.1 1 .2 1.5h3.3c0-.7-.2-1.1-.2-1.4V23c-.1-1.2.2-2.4.9-3.4.4-.4.9-.5 1.4-.5h.5v6.7h-7.2v3.6h11.8v-3.6h-1.3V15.6ZM110.1 16.6c-1.1-.7-2.3-1.1-3.6-1-1.1 0-2.3 0-3.4.2v3.5c.8-.3 1.7-.4 2.5-.4s1.6.2 2.2.8c.6.9.9 2 .8 3.1v3.1h-2.1c-.3 0-.6 0-.8-.3-.2-.2-.3-.5-.3-.8 0-.4.2-.8.6-1 .3-.1.7-.2 1-.2h1v-1.9c0-.3-.1-.7-.3-1h-1.4c-1.3 0-2.6.4-3.4 1.4-.7.9-1 1.9-.9 3 0 1.2.3 2.3 1.2 3.2.9.7 2 1 3.1 1h6V22c0-2.5-.7-4.3-2.1-5.4ZM95.8 15.6h-4.7v13.7h3.2V19h.7c1.7 0 2.4.8 2.4 1.6 0 1.2-1.2 2.7-2.5 2.1v3.5c.5.1 1 .2 1.5.1 1.2 0 2.3-.6 3-1.6 2.6-3.5 1.5-9-3.6-9ZM82.2 29.3h3.2V19.2h4.2v-3.6h-7.4v13.7zM60.1 19.2h2.8v10.1h3.2V19.2H69v-3.6h-8.9v3.6zM79.3 17.2c-.2-.3-.5-.5-.7-.7-2.2-1.8-5.6-1.5-7.4.7-1.1 1.5-1.6 3.4-1.5 5.2-.1 1.9.4 3.7 1.5 5.2.2.3.5.5.7.7 2.2 1.8 5.5 1.5 7.4-.7 1.1-1.5 1.6-3.4 1.5-5.2.1-1.9-.4-3.7-1.5-5.2Zm-2.8 8.3c-.3.4-.8.7-1.3.7s-1-.3-1.3-.7c-.5-.9-.8-2-.7-3 0-1.1.2-2.1.7-3 .1-.2.2-.3.4-.4.7-.5 1.7-.3 2.3.4.5.9.8 2 .7 3 0 1.1-.2 2.1-.7 3ZM57.5 22.2c.5-.1.9-.5 1.2-.9.4-.6.6-1.4.6-2.1 0-.8-.2-1.6-.6-2.3-.5-.8-1.4-1.3-2.4-1.2h-6.5v13.7h6.5c.9 0 1.7-.3 2.4-.9.6-.7.9-1.7.9-2.6 0-.9-.2-1.8-.7-2.6-.3-.5-.8-.8-1.3-1Zm-1.3 2.6c0 .3 0 .7-.3 1-.2.2-.5.3-.8.3h-2v-7.4H55c.3 0 .5 0 .7.2.2.2.3.5.3.8 0 .3-.1.7-.4.9-.2.1-.4.2-.6.1h-1.3v2.6H55c.3 0 .6 0 .8.3.2.3.3.6.3 1ZM152.6 15.6h3.4v13.7h-3.4zM171 20.1c.8-.8 1.5-1.7 2-2.7.3-.6.6-1.2.8-1.8H170c-.2.6-.6 1.2-1 1.8-.4.5-.9 1-1.5 1.4v-3.2h-3.3v13.8h3.3v-6.3c.3-.2.6-.4.9-.7.6 1 1.1 2.2 1.4 3.3.3 1.2.6 2.4.7 3.6h3.5c-.2-1.7-.5-3.3-1.1-4.9-.5-1.5-1.1-3-1.9-4.4ZM159.3 20h-2.7v3.4h2.7v5.9h3.3V15.6h-3.3V20zM148.9 16.6c-1.1-.7-2.3-1.1-3.6-1-1.1 0-2.2.1-3.3.3v3.5c.8-.3 1.7-.4 2.5-.4s1.6.2 2.2.8c.6.9.9 2 .8 3.1V26h-2.1c-.3 0-.6 0-.8-.3-.2-.2-.3-.5-.3-.8 0-.4.2-.8.6-1 .3-.1.7-.2 1-.2h1v-1.9c0-.3-.1-.7-.3-1h-1.4c-1.3 0-2.6.4-3.4 1.4-.7.9-1 1.9-.9 3 0 1.2.3 2.3 1.2 3.2.9.7 2 1 3.1 1h6V22c0-2.5-.7-4.3-2.1-5.4ZM21.1 4.9c-.3 0-.4 0-.4.3v1.4c-.2.7-.7 1.3-1.4 1.5-.8.2-1.6-.2-1.9-.9v-.9c0-.6 1-1.4 1.8-1.9.1 0 .2-.3 0-.5-3.5-2-3.7-2.1-5.8-3.4-1.7 1-3.5 2-5.8 3.4-.2.2-.1.3 0 .4 1.4 1 1.7 1.6 1.9 2.3.3 1.1-1.2 1.8-1.9 1.7C5.9 8 6 5.9 6 5.3s-.3-.2-.3-.3C3.2 6.3 2.3 6.7 0 8c-.2.3 0 .4.2.5 2.2.9 2.6 1.7 2.9 3.4.1.6.2 1.2 0 1.8 0 .3.3.5.6.5h.2l9.3-5.5c4.5 2.7 5.2 3.1 9.3 5.5.2.1.6 0 .7-.2v-.3c-.2-1.2 0-2.3.6-3.4.5-.9 1.3-1.6 2.4-1.8.3 0 .4-.4.2-.5-2.4-1.3-3.7-2-5.5-3Zm1.8 6.1c-.2.7-.2 1.3 0 2 0 .2 0 .4-.4.2-3.7-2.2-5-3-9-5.3-3.3 2-5.8 3.5-9.1 5.4-.2.1-.5.2-.4-.2.4-1.6-.8-4.4-2.7-5l4.1-2.3c0 .6.1 1.3.5 1.8 1 1.8 4.6 1.3 4.4-1.2-.2-.8-.8-1.6-1.5-2.1 0-.1-.3-.3 0-.5 1.6-.9 3.1-1.8 4.7-2.7 1 .6 2 1.1 4.6 2.7.3.2.2.4 0 .5-1 .9-1.9 1.9-1.3 3.1.5.8 1.4 1.2 2.3 1.2 1 0 1.8-.7 2.2-1.6l.2-1.4c1.7 1 2.1 1.2 4.1 2.2-1.3.5-2.2 1.7-2.6 3Z"/>
		<path d="M3.6 18.1V15.9c3.3-1.7 6.6-3.6 9.7-5.5 2.3 1.2 3.6 2.1 5.8 3.4 1.3.8 2.6 1.5 4 2.1v.4c-.2 1.3-.1 2.7.3 3.9h.5c-.3-1-.7-3-.2-4 0-.2 0-.5-.1-.7-.6-.4-1.2-.7-1.8-1-4.4-2.6-4.2-2.4-8.4-4.8-2.6 1.2-6.7 4-8.4 4.8-.7.3-1.3.7-2 1-.3.2-.2.4 0 .7.8 1.9-1.3 5.4-.4 10.5.5 3 2.9 6.2 5.2 8.5.1 0 .2-.4.3-.5-2-1.8-3.5-4.1-4.4-6.7-1.5-4.5-.1-7.2 0-9.9Z"/>
		<path d="M8.3 27c.9.2 1.4 1 1.4 1.9v6.8l3.3 3.1V11.3c-4 2.3-5.6 3.3-8.8 5 .3 1.2-.2 3.8-.6 5.7-.1.8-.3 2.4.4 3 .3.1.7.1 1 0 1.7-1 5-3.3 6.3.2 1 2.7 1.3 7.4 1 10.4-.2-2-1-10.3-4.7-9.2-1.3.4-2.9.8-4-.3.7 3 2.2 5.8 4.5 8 .4-.9.4-1.4.7-2-.6-1.6-1.7-3.1-1.8-4.8.3 0 1-.3 1.4-.2Zm1.4-4.6c-1-.1-2 0-2.8.6-.5-1.1.2-4 .5-4.6.4-1 1.3-1.6 2.3-1.5v5.5Z"/>
		<path d="M23.8 22c-.4.9-.7 2.1-1.7 2.3-2.7-1-3.1-2.4-5-1.8V17c2.8 1.5 3.2 1.7 5.7 3.1-.3-1.2-.4-2.5-.3-3.8-2.9-1.6-4.2-2.3-8.7-4.9v27.5c1.9-1.7 3.7-3.5 5.3-5.4 1.4-1.5 2.5-3.3 3.2-5.2l.6-2.2c-.9.7-2.2.9-3.3.3-2.3-1-3.6 1.1-4.4 3.2-.7 1.9-.8 4.2-1 6-.1-1.9-.1-3.8 0-5.7.1-1.6.5-3.2 1-4.7.4-1.4 1.8-2.2 3.1-1.8.2 0 .3 0 .5.2 1.3.5 3 2 4.1 1.2 0 0 0-.2.2-.3.3-.3.5-.6.6-.9.3 2.1-.2 4.3-1.3 6.1-2 3.9-6 7.3-9 10.3-1.8-1.7-2.5-2.5-3.7-3.6 0 .2-.2.5 0 .7 1.7 1.7 2.9 2.8 3.7 3.6 1.4-1.3 2.9-3 4.3-4.3 3.6-3.2 8.2-9.5 6.5-14.5h-.4Zm-6.7 6.1c.7-.9 1.4-1.4 2.6-.8-.4 2.2-1.3 4.2-2.7 6v-5.2ZM41.6 10.3c-.5.2-2.6 1.2-4.7 2.1-.4.2-.5.8-.3 1.2 0 .5 0 1.1-.1 1.6-.7 2.6-.9 5.2-.5 7.8.6 3.2 2.8 5.4 5.5 7.9 0-.4.7-1.5.9-2-.8-1.5-4.1-5.6-1.1-5.4 2 .1 1.9.5 2 2.2 0 2.1-.1 4.3 0 6.4v.2c3.5 3 3.6 3 4.2 3V10.7c0-4.4.3-2.8-5.9-.3Zm-1.4 5c.8-1.6 3.1-3 3.1-1.7v5.2l-3.5.8c-.8.2-.3-2.6.4-4.3Zm6.6 16.8V32c-.5-3.8-.8-9.1-5.8-9.1s-4.8 1.9-4.8-1.6c.9.4 1 .5 1.6.1 1.4-.8 3.6-1.8 5.3-1.5 4.3.6 3.7 8.7 3.7 12.2v.1ZM139.1 20.9h-.5c-.4 0-.3.5-2.1-.6-1.3-1-2.9-1.5-4.5-1.3v-5.8l7 3.3-.3-3.8-10.8-5v27.7h.5s5.5-4.2 6.7-5.5c1.2-1.1 2.2-2.5 3-4 .5-.3 2.4-5 1-5Zm-5.5 7.2c-.4.6-.9 1.2-1.5 1.8v-5.1c0-2.1 6.2-2.6 1.5 3.3Zm4-4.6c-.6.1-1.2 0-1.8-.3-5.3-3.3-6.9 5.7-7.3 9v-4.6s.3-2.5.4-3.6c.5-3.9 2.7-4.4 5.5-3.9 1.2.4 2.3.9 3.3 1.5.3.1.6.1 1 0 .1 0 .2-.2.2-.1.1.5-.3 2-1.3 2.1Z"/>
	</g>
	<path fill="#fc0" d="M5.7 8.5C5.3 8 5 7.4 4.8 6.7c-.7.4-1.6 1-2.4 1.4 1.4 1 2.2 2.6 2.3 4.3 1.9-1.1 4-2.3 5.7-3.3.8-.5 2.1-1.2 3-1.7 2.9 1.7 5.6 3.2 8.6 5 .4-2.2 1-3.3 2.3-4.3-.7-.4-1.6-1-2.4-1.4-.1.5-.3.9-.5 1.3-.9 1.2-2.6 1.7-4 1-.8-.3-1.4-1.1-1.4-1.9 0-1.1.5-2.2 1.5-2.8-1.1-.7-3-1.7-4.1-2.3-1.1.7-3.1 1.7-4.1 2.3.6.4 1 1 1.3 1.7.3.6.3 1.2 0 1.8C9.7 9.3 7.8 9.9 6.2 9c-.2-.1-.4-.2-.5-.4Z"/>
</svg>