<svg xmlns="http://www.w3.org/2000/svg" viewBox="0 0 110 38">
	<path fill="#fff" d="m83.0658 20.5915-5.5886 3.2203c-8.088-3.978-17.2003-6.2702-26.8232-6.327-9.9831-.0758-19.4168 2.1974-27.7898 6.327 17.1437-13.5255 41.3345-15.07883 60.2016-3.2203ZM62.5129 0l-4.3951 4.39484 6.6492 6.64906c4.3001.7578 8.5431 2.027 12.6351 3.8455L62.5129 0ZM44.081 11.4039c-4.6791.966-9.2633 2.5573-13.5823 4.7547L46.6572 0l4.4138 4.41378-6.99 6.99012ZM3.75079 32.8094H1.8564v-1.3828h4.24333v-1.5345H0v7.8804h3.75079c1.79957 0 2.97404-.7767 2.97404-2.3868 0-2.5194-2.33002-2.5763-2.97404-2.5763ZM3.353 36.2381H1.8564v-1.8943h1.53443c.45462 0 1.34495.0568 1.34495 1.004 0 .7388-.66302.8903-1.38278.8903Zm11.4985 1.5344-2.9551-7.8804h-1.8565l-2.93619 7.8804h1.93223l.49253-1.4775h2.84143l.5116 1.4775h1.97Zm-3.8833-5.8345 1.0039 3.012H9.94526l1.02294-3.012Zm5.7774 2.6521c0 1.0229-.0189 1.8186-1.364 1.648h-.0378v1.5155c3.0323.4356 3.0505-1.6939 3.0635-3.2175.0012-.1325.0022-.2605.0053-.3817l.0568-2.7468h2.2164v6.3649h1.8564v-7.8804h-5.7966v4.698Zm6.8576-4.698v1.5345h2.3679v6.3459h1.8565v-6.3459h2.3678v-1.5345h-6.5922Zm14.4158 0h-1.8565l-3.1256 5.0958v-5.0958h-1.8375v7.8804h1.8375l3.1256-5.1526v5.1526h1.8565v-7.8804Zm1.7239 7.8804h1.8565v-3.3908h2.8414v3.3908h1.8564v-7.8804h-1.8564v2.9552h-2.8414v-2.9552h-1.8565v7.8804Zm14.6243-5.8724c0-.8524-.3789-2.008-2.4248-2.008v.0189h-3.9402v7.8804h3.7318c1.4018 0 3.0122-.303 3.0122-2.2162 0-1.4397-1.061-1.8944-1.6672-2.0081v-.0189c.7577-.2462 1.2882-.7388 1.2882-1.6481Zm-2.8036 1.0987h-1.7239v-1.5722h1.6291c.8335 0 1.004.4357 1.004.7576 0 .3032-.1705.8146-.9092.8146Zm.2083 3.2393h-1.9133v-1.7996h1.686c.6631 0 1.2502.1705 1.2502.9093 0 .7198-.7008.8903-1.0229.8903Zm10.0787-1.7617v-1.4587h-3.8458v-1.5911h4.357v-1.5345h-6.1949v7.8804h6.3081v-1.5344h-4.4702v-1.7617h3.8458ZM67.0592 38c2.7852 0 3.4476-1.8186 3.5616-3.012v-.0189H68.783c-.076.5872-.4353 1.4776-1.6478 1.4776-1.2696 0-1.932-1.0609-1.932-2.5574 0-2.6331 1.4587-2.7089 1.875-2.7089.4171 0 1.4587.0569 1.6288 1.3829h1.8188c-.057-1.1556-.7574-2.8984-3.5426-2.8984-.7384 0-3.769.1516-3.769 4.3191 0 3.0878 1.837 4.016 3.845 4.016Zm4.0159-8.1079v1.5345h2.3863v6.3459h1.8378v-6.3459h2.3681v-1.5345h-6.5922Zm11.3284 2.9173h-1.8948v-1.3828h4.2439v-1.5345h-6.0999v7.8804h3.7508c1.7998 0 2.9735-.7767 2.9735-2.3868 0-2.5194-2.3292-2.5763-2.9735-2.5763Zm-.3981 3.4287h-1.4967v-1.8943h1.5347c.4542 0 1.3447.0568 1.3447 1.004 0 .7388-.6435.8903-1.3827.8903Zm11.5175 1.5344-2.9554-7.8804h-1.875l-2.9363 7.8804h1.9509l.4932-1.4775h2.8413l.5113 1.4775h1.97ZM89.64 31.938l1.0035 3.012h-2.027l1.0235-3.012Zm4.6032 5.8345h1.8559v-3.3908h2.8414v3.3908h1.8565v-7.8804h-1.8565v2.9552h-2.8414v-2.9552h-1.8559v7.8804Zm15.0018-7.8804h-2.178l-2.69 3.3151h-.019v-3.3151h-1.838v7.8804h1.838v-3.8454h.019l2.785 3.8454h2.273l-3.334-4.2811 3.144-3.5993Z"/>
</svg>