<svg xmlns="http://www.w3.org/2000/svg" viewBox="0 0 140 27">
	<path fill="#fff" d="M48.9722 6.20483h-1.856V.16546h1.856v2.31647c.165 0 .2887-.08273.3712-.16546.0825-.12409.2475-.41366.4125-.91004.1238-.37229.2887-.661851.4125-.827315.1237-.165462.3712-.289556.7011-.372287.33-.082731.8249-.1241043 1.5261-.1241043V1.36506h-.0825c-.3299 0-.5362.04136-.7012.16546-.165.1241-.2887.33093-.3712.57913-.0825.28955-.2062.45502-.3299.62048-.1238.1241-.2887.24819-.4537.33092.2887.08273.4949.24819.7011.45502.2062.20683.4125.53775.6187.99277l.8249 1.65463h-2.1035l-.7424-1.57189c-.165-.37229-.2887-.62049-.4125-.70322-.0825-.08273-.2474-.12409-.4124-.12409v2.44056h.0412Zm4.537-.45502c-.5362-.45502-.7837-1.03415-.7837-1.73736 0-.66185.2063-1.24097.6599-1.65462.4537-.41366 1.0724-.66184 1.8148-.66184.8661 0 1.5261.24819 1.9798.74457.3712.41366.5362.91005.5362 1.53054 0 .66185-.2063 1.24096-.6599 1.65461-.4537.41366-1.0724.66185-1.8561.66185-.6599 0-1.2373-.16546-1.691-.53775Zm.9074-1.73736c0 .37229.0825.66185.2475.86868.1649.20683.3712.28956.5774.28956.2474 0 .4537-.08273.5774-.28956.165-.16546.2474-.49639.2474-.86868s-.0824-.66184-.2474-.86867c-.165-.16546-.33-.28956-.5774-.28956-.2475 0-.4537.08273-.6187.28956-.1237.20683-.2062.49638-.2062.86867Zm5.4031-.57911 1.1136 2.77149h.9898l1.0312-2.77149v2.77149h1.4023V1.82008h-1.9798l-.9486 2.5233-1.0311-2.5233h-1.9798v4.38475h1.4024V3.43334Zm8.5375.91004-1.0311-2.5233h-1.9796v4.38475h1.4022V3.43334l1.1135 2.77149h.9899l1.0311-2.77149v2.77149h1.4023V1.82008h-1.9797l-.9486 2.5233Zm3.9593.91003c-.2062-.37228-.3299-.78594-.3299-1.24096 0-.70322.2062-1.24097.6599-1.65462.4543-.41366 1.0317-.62048 1.8154-.62048.6186 0 1.1136.08273 1.4847.28956.3712.20683.6187.45502.8249.82731.2062.37229.2887.82731.2887 1.40643v.20682h-3.3407c.0412.28956.0825.45503.2062.62049.165.20682.3712.28956.6187.28956.1649 0 .3299-.04137.4536-.12411.0825-.04136.2063-.12408.2887-.28955l1.6498.16546c-.2475.45503-.5774.74458-.9074.95141-.3712.20683-.8661.28956-1.526.28956-.5774 0-1.0311-.08273-1.361-.24819-.33-.2482-.6193-.49639-.8256-.86869Zm1.3617-1.65461h1.6498c-.0413-.33093-.1237-.53775-.2475-.70321-.1237-.1241-.3299-.20683-.5774-.20683-.2474 0-.4949.12409-.6186.33092-.1238.1241-.165.33092-.2063.57912Zm5.6092 4.26067h-1.691V1.82008h1.5672v.66185c.2063-.28955.4125-.45503.5775-.53776.2474-.12409.4949-.20682.8248-.20682.5774 0 1.0311.20682 1.3611.66185.3299.45502.4949.99277.4949 1.65462 0 .74458-.165 1.28233-.5362 1.65462-.3299.37229-.7836.57912-1.3198.57912-.2474 0-.4949-.04136-.7011-.12409-.2062-.08273-.4124-.20683-.5774-.37229v2.06829Zm0-3.84702c0 .33093.0825.6205.2062.78596.165.16546.3299.24818.5362.24818.2062 0 .3712-.08272.4949-.24818.1237-.16546.2062-.41366.2062-.82731 0-.3723-.0825-.6205-.2062-.78596-.1237-.16546-.2887-.24819-.4949-.24819-.2063 0-.4125.08273-.5362.24819-.1237.16546-.2062.45502-.2062.82731Zm8.3312 2.19238V1.82008h-1.691v1.44779c-.2062.2482-.4537.3723-.7424.3723-.1649 0-.2887-.04137-.3712-.16546-.0825-.1241-.1237-.28957-.1237-.45503v-1.1996h-1.691v1.44779c0 1.11687.5362 1.69599 1.5673 1.69599.4949 0 .9486-.12409 1.361-.37228v1.61325h1.691Zm.8661-.95142c-.2062-.37228-.3299-.78594-.3299-1.24096 0-.70322.2062-1.24097.6599-1.65462.4536-.41366 1.0311-.62048 1.8147-.62048.6186 0 1.1136.08273 1.4848.28956.3712.20683.6186.45502.8248.82731.2062.37229.2887.82731.2887 1.40643v.20682H89.887c.0412.28956.0825.45503.2062.62049.165.20682.3712.28956.6187.28956.165 0 .3299-.04137.4537-.12411.0824-.04136.2062-.12408.2887-.28955l1.6497.16546c-.2475.45503-.5774.74458-.9074.95141-.3712.20683-.8661.28956-1.526.28956-.5774 0-1.0311-.08273-1.361-.24819-.33-.2482-.5774-.49639-.8249-.86869ZM89.887 3.5988h1.6497c-.0412-.33093-.1237-.53775-.2474-.70321-.1237-.16546-.33-.20683-.5774-.20683-.2475 0-.495.12409-.6187.33092-.1237.1241-.165.33092-.2062.57912Zm4.4131 2.15101c.2062.20683.4949.33093.7843.41366.2887.08273.7011.12409 1.1548.12409.4949 0 .8661-.08273 1.196-.20683.33-.1241.5775-.33092.7837-.57912.2062-.24819.3299-.53775.4124-.86868l-1.6085-.16546c-.0825.2482-.2062.41367-.3299.53776-.165.1241-.33.16546-.5362.16546-.2475 0-.4949-.08273-.6599-.28956-.165-.20683-.2475-.45502-.2475-.82731 0-.41365.0825-.70321.2475-.91004.165-.20683.4124-.28956.6599-.28956.2062 0 .4124.04136.5362.12409.1237.08274.2062.24819.2887.41366l1.5672-.20683c-.165-.49639-.4124-.86867-.7836-1.11686-.3712-.2482-.9074-.37229-1.6497-.37229-.495 0-.9487.08273-1.238.20683-.2062.08273-.4124.20683-.6187.37229-.2062.16545-.3299.37228-.4537.57911-.1649.28956-.2474.66185-.2474 1.11688 0 .41365.0825.78594.2062 1.03413.165.33093.33.53775.5362.74458Zm8.9919-.86868c-.248-.41366-.454-.66184-.578-.74457-.123-.08273-.288-.1241-.536-.16546.124-.04137.206-.08275.289-.12411.082-.08273.124-.20682.247-.37228.083-.16547.165-.28956.248-.3723.082-.04136.165-.08273.289-.1241.123 0 .288-.04136.495-.04136h.082v-1.1996c-.454 0-.784 0-1.031.04136-.248 0-.413.04138-.577.12411-.165.04136-.289.16545-.372.28955-.082.1241-.206.33092-.33.57911-.123.2482-.206.41366-.288.49639-.083.08274-.165.1241-.289.1241V1.82008H99.25v4.38475h1.691V4.55021c.124 0 .247.04136.371.08272.083.04137.206.16548.289.3723l.619 1.1996h1.897l-.825-1.3237Zm4.413-.82731v2.15101h1.567V1.82008h-1.567l-1.65 2.19237V1.82008h-1.567v4.38475h1.608l1.609-2.15101Zm5.733 0v2.15101h1.567V1.82008h-1.567l-1.65 2.19237V1.82008h-1.567v4.38475h1.608l1.609-2.15101Zm-.825-2.77148c.371 0 .701-.12411.949-.33094.288-.206828.412-.537742.412-.910032h-.66c-.041.165462-.124.289554-.247.33092-.124.041365-.289.082736-.495.082736-.372 0-.619-.165465-.701-.455024h-.702c.042.37229.165.703204.413.910032.247.248198.577.372308 1.031.372308Zm6.311 4.34337c-.413-.45501-.619-1.1996-.619-2.23374 0-.95141.165-1.69598.536-2.31647.372-.620476.866-.868675 1.568-.91004h.495c.453 0 .701-.0827291.742-.16546h1.32c0 .785947-.454 1.1996-1.361 1.24097-.619.04136-1.031.08272-1.238.16546-.206.08273-.371.24819-.453.49639.206-.16547.495-.20683.825-.20683.824 0 1.443.20682 1.856.66184.412.41365.659.99278.659 1.61327 0 .66185-.206 1.1996-.659 1.65461-.413.45503-1.073.66185-1.898.66185-.742 0-1.361-.20682-1.773-.66185Zm1.072-1.61326c0 .37229.083.62048.206.82731.124.20683.33.28956.619.28956s.495-.08273.619-.28956c.123-.20683.206-.49638.206-.86866 0-.3723-.083-.66185-.206-.82732-.165-.20683-.33-.28956-.578-.28956-.288 0-.495.12409-.618.33092-.207.20683-.248.49639-.248.82731Zm6.31-.53774c.207-.04137.372-.1241.578-.20684 0-.20682-.041-.33092-.124-.41365-.082-.08273-.247-.12409-.454-.12409-.288 0-.494.04136-.618.12409s-.206.20683-.248.37228l-1.608-.16545c.041-.28956.165-.49639.247-.66185.124-.16546.289-.28956.495-.41366.165-.08273.371-.16546.619-.20683.289-.04136.577-.08272.866-.08272.495 0 .907.04136 1.196.08272.289.04137.577.16546.742.37229.124.1241.248.28956.33.53776.083.20683.124.45502.124.66185v1.94417c0 .20684 0 .3723.041.4964.042.12409.083.24819.165.45502h-1.567c-.082-.1241-.124-.20683-.124-.24819 0-.04137-.041-.16548-.041-.28957-.206.20683-.454.3723-.66.45503-.288.12409-.66.16546-1.031.16546-.536 0-.907-.1241-1.196-.37229-.289-.2482-.412-.53776-.412-.91005 0-.33093.082-.62048.288-.82731.207-.20683.536-.37228 1.073-.49638.742-.1241 1.113-.20683 1.319-.24819Zm.578.66185c-.248.08273-.454.16546-.701.20682-.33.08273-.536.16547-.66.2482-.083.08273-.124.20682-.124.28955 0 .1241.041.2482.124.33093.082.08274.247.12409.412.12409.206 0 .371-.04135.536-.12409.165-.08273.289-.20683.33-.33093.083-.1241.083-.28955.083-.49638v-.24819Zm5.692 2.06827h1.69V1.82008h-1.69v1.48916h-1.527V1.82008h-1.691v4.38475h1.691V4.55021h1.527v1.65462Zm4.248-1.65462c.123 0 .247.04136.371.08272.082.04137.206.16548.289.3723l.618 1.1996H140l-.784-1.3237c-.248-.41366-.454-.66184-.578-.74457-.123-.08273-.288-.1241-.536-.16546.124-.04137.206-.08275.289-.12411.041-.08273.124-.20682.247-.37228.083-.16547.165-.28956.248-.3723.082-.08273.165-.08273.288-.1241.125 0 .29-.04136.496-.04136h.083v-1.1996c-.454 0-.785 0-1.032.04136-.248 0-.413.04138-.578.12411-.165.04136-.288.16545-.371.28955-.082.1241-.206.33092-.33.57911-.123.2482-.206.41366-.288.49639-.083.08274-.165.1241-.289.1241V1.82008h-1.691v4.38475h1.691V4.55021h-.041ZM70.0894 12.3683h-4.4956l-2.3095 4.0124-2.3922-4.0124h-4.5782l4.2069 6.2462-4.6194 6.8253h4.6194l2.6397-4.1779 2.6396 4.1779h4.6605l-4.5781-6.7426 4.2069-6.3289Zm5.1973 7.1976v-7.1976h-3.9188v13.0715h3.9188l5.0318-7.1562v7.1562h3.8769V12.3683h-3.8769l-5.0318 7.1976Zm18.6834.7446-2.1034-7.9422h-5.4442v13.0715h3.382v-9.9691l2.5984 9.9691h3.0527l2.5983-9.9691v9.9691h3.3821V12.3683h-5.4443l-2.0216 7.9422Zm13.6109-.7446v-7.1976h-3.918v13.0715h3.918l5.032-7.1562v7.1562h3.877V12.3683h-3.877l-5.032 7.1976Zm20.169.0827c-.454-.455-.949-.7859-1.567-.9927.453-.1655.783-.4137 1.031-.7033.247-.2895.495-.7446.701-1.3237.206-.5791.495-.9927.825-1.2823.33-.2481.866-.3723 1.567-.3723h.206v-2.7715c-1.526 0-2.639.0828-3.34.2482-.702.1655-1.238.4137-1.526.7446-.33.3723-.619.9514-.949 1.7374-.412 1.1168-.742 1.7787-.949 1.9855-.206.2482-.495.3723-.825.3723v-4.9225H118.8v13.0715h4.124v-5.2121c.372 0 .66.0828.867.2896.206.2069.495.7032.907 1.4891l1.608 3.392h4.661l-1.815-3.5574c-.453-.9928-.948-1.696-1.402-2.1924Zm4.207-4.0952h1.65c-.042.3723-.165.7447-.372 1.0342-.247.2896-.66.5791-1.278.8687l.742 1.4478c.99-.4137 1.691-.9515 2.104-1.5306.412-.5791.618-1.3651.618-2.3578v-2.6888h-3.464v3.2265Zm4.578-3.2265v3.2265h1.65c-.042.3723-.165.7447-.372 1.0342-.247.2896-.659.5791-1.278.8687l.742 1.4478c.99-.4137 1.692-.9515 2.104-1.5306.413-.5791.619-1.3651.619-2.3578v-2.6888h-3.465Zm-81.211 1.6133-.7424-1.4478c-.9899.4137-1.6911.9514-2.1035 1.5305-.4125.5791-.6187 1.3651-.6187 2.3578v2.6888h3.4646V15.843h-1.6498c.0412-.3723.1649-.7445.3712-1.0342.2475-.2895.6599-.5791 1.2786-.8686Zm-4.5782 0-.7424-1.4478c-.9899.4137-1.6911.9514-2.1035 1.5305-.4125.5791-.6187 1.3651-.6187 2.3578v2.6888h3.4646V15.843H49.096c.0412-.3723.1649-.7445.3712-1.0342.2474-.2895.6599-.5791 1.2786-.8686Z"/>
	<path fill="#fff" d="M16.1413 20.6008H8.59348c-.70118 0-1.19609-.7032-.94867-1.3643L11.8931 7.7774c.2887-.70325.9486-1.19936 1.7322-1.19936h4.8669c.8662 0 1.6498-.53703 1.9386-1.36558l1.526-4.1773h-7.1353L13.6253 4.0131c-.2474.62142-.8661 1.03441-1.526 1.03441H7.35608c-.94859 0-1.81471.57923-2.14467 1.48961L.0970246 20.3119c-.3712036.9513.3712034 1.9857 1.4023454 1.9857l13.81703.0409.8249-1.7377ZM36.2275 4.9644l-13.817-.04091-.8661 1.77858h7.5478c.7011 0 1.1961.70325.9486 1.36558L25.8339 19.4424c-.2888.7032-.9488 1.2006-1.7323 1.2006h-4.8669c-.8662 0-1.6499.5371-1.9386 1.3643l-1.526 4.1786h7.1353l1.1962-2.9792c.2474-.6201.8661-1.0344 1.526-1.0344h4.7432c.9486 0 1.8148-.578 2.1447-1.4884l5.0731-13.77469c.4125-.95131-.33-1.94481-1.3611-1.94481ZM13.7903 7.24037h4.9082c.7837 0 1.526-.49611 1.8147-1.19936l1.9385-4.96366h.8662l-2.0622 5.21172c-.4125 1.03442-1.4436 1.73766-2.5572 1.73766h-4.9082c-.2475 0-.5361.20714-.6187.4552L9.21218 19.0716c0 .0831 0 .124.04123.1649.04124.0422.08247.0831.16495.0831h7.42414l-.4125.7864H9.41836c-.32997 0-.65986-.1662-.82488-.4143-.20618-.248-.24742-.6201-.12371-.9104L12.4293 8.19168c.2062-.57794.7423-.95131 1.361-.95131Zm3.4646 13.98193c.2887-.7033 1.0311-1.2007 1.8148-1.2007h4.9494c.6186 0 1.1548-.3721 1.361-.9513l3.9596-10.58965c.1237-.28897.0824-.66105-.1238-.90911-.165-.24933-.4949-.41428-.8249-.41428h-7.0116l-.4124.78636h7.424c.0825 0 .1238.04092.165.08184.0412.04219.0412.08311.0412.16622L24.6377 18.7813c-.0825.2481-.3712.4552-.6186.4552h-4.9494c-1.1137 0-2.1447.7033-2.5572 1.7364l-2.0622 5.213h.8661l1.9385-4.9636Z"/>
</svg>