<svg xmlns="http://www.w3.org/2000/svg" viewBox="0 0 170 28">
	<path fill="#fff" d="M22.5 12.6c-2.6-.6-5.2-1-7.9-1C7.9 11.6.4 14 0 18.3V16c0-.7763.282477-1.2701.664696-1.9383C.676373 14.0413.688142 14.0208.7 14c1-1.3 2.2-2 3.6-2.7 3.4-1.39999 6.9-1.89999 10.6-1.89999h1.3c-.6-.7-.8-1.2-.9-1.8h-.7C7.9 7.70001.4 10 0 13.9v-2.3c0-.7763.282477-1.2701.664696-1.93825C.676373 9.64134.688142 9.62076.7 9.60001c1-1.3 2.2-2 3.6-2.7 3.4-1.4 6.9-1.9 10.6-1.9h1.4c.5-.7 1.2-1.2 1.9-1.6-1.2-.2-2.4-.2-3.6-.2-6.7.1-14.2 2.4-14.6 6.3v-2.3c0-.77628.282477-1.27009.664696-1.93826C.676373 5.24134.688142 5.22076.7 5.20001c1-1.3 2.2-2 3.6-2.7 3.4-1.4 6.9-1.899999 10.6-1.899999 2.6 0 4.9.3 7.5.999999 2.5-.699999 5.1-.999999 7.7-.999999 7.7-.1 14.7 2.999999 14.7 6.499999C44.8 10.6 37.9 13.5 30 13.5c-2.5-.1-5-.3-7.5-.9Zm16.6-5.59999c0-2.1-4-4-9-4s-9.1 1.9-9 4c0 2.1 4 3.99999 9 3.99999 4.9 0 9-1.99999 9-3.99999ZM149.5 14.3l.2-1 1.9-6.69999h5.7V20.7h-4V10.5h-.1l-.2.7-2.5 9.5H148l-2.5-9.6-.1-.6h-.1l.1.9v9.3H142V6.60001h5.5L149.2 13.4l.2.9h.1Zm15.7-2.4c1.1 0 2.9.1 4 1.6.009.0142.02.0296.031.0461.224.3316.764 1.1298.669 2.6539 0 1.3-.4 2.5-1.2 3.3-1.1 1.1-2.6 1.2-3.7 1.2h-6.3V6.60001h4.2V11.9h2.3Zm-.9 5.7c.3 0 .7-.1 1-.4.2-.3.3-.5.3-.8 0-.3-.1-.6-.3-.9-.3-.3-.6-.4-1-.4H163v2.5h1.3Zm-55.1 3.1h-4.4V6.60001h11.6V20.7H112V9.90001h-2.8V20.7Zm25.6-14.09999c1.3 0 2.9 0 4.2.7.9.5 1.8 1.6 1.9 3.79999 0 .0667.006.15.012.2472.032.4862.088 1.3195-.412 2.1528-1.3 2-3.5 2.1-5 2.1H134v5.1h-4.4V6.60001h5.2ZM135 12.5c.3 0 .9 0 1.3-.4.2-.3.4-.6.5-.9 0-.4-.2-.8-.4-1-.5-.39999-1.1-.39999-1.4-.39999h-1.1V12.5h1.1Zm-8.4 2.5h-4v2.3h5.5v3.4h-9.9V6.60001h9.6v3.3h-5.2V12h4v3Zm-26.6154 1.4693c.0894.2904.2204.7208.5154 1.5307.1.4.3.8 1.1.8h.1v1.9c-.3.1-.7.1-1.1.1-.6 0-1.5 0-2.2-.9-.2556-.3408-.4386-.8992-.6726-1.6136-.0407-.1242-.083-.2531-.1274-.3864-.1528-.4584-.2618-.8438-.3549-1.173-.1507-.5326-.2597-.918-.4451-1.227-.4-.7-.9-1.1-2.3-1.1h-.9v6.3H91V6.6h2.9v5.7h.8c.6 0 .9 0 1.4-.3.5-.4.7-.8.9-1.4.1046-.4184.1727-.72732.2298-.98622.1067-.48373.1748-.79268.3702-1.31378.2-.6.6-1.1 1.1-1.4.5-.3 1-.4 1.7-.4.3 0 .5 0 .8.1v1.8h-.3c-.6 0-1 .1-1.3.9-.141.45827-.2323.8544-.3133 1.2059-.1488.6457-.263 1.1409-.5867 1.5941-.2.3-.4.5-.7.7-.3.2-.6.3-.9.4v.1c1.2.1 1.7.7 2.1 1.3.2.3.4.8.7 1.6.0264.0791.0528.1652.0846.2693ZM60.9 12.3c1.1 0 2.5.1 3.6.9.6.4 1.4 1.4 1.6 3.3 0 1.4-.5 2.4-1.2 3.1-1.1 1-2.3 1.1-3.5 1.1h-5.6V6.6h8.8v2.1h-6.2v3.6h2.5Zm-.2 6.4c.4 0 1.2-.1 1.8-.6.3-.3.6-.9.5-1.4 0-.7-.2-1.3-.6-1.7-.6-.6-1.4-.6-1.9-.6h-2.1v4.3h2.3Zm-38.4-4.2c2.6.6 5.2 1 7.9 1 6.7 0 14.2-2.4 14.6-6.7v2.3c0 .7763-.2825 1.2701-.6647 1.9383-.0117.0204-.0234.041-.0353.0617-1 1.3-2.2 2-3.6 2.7-3.4 1.4-6.9 1.9-10.6 1.9h-1.3c.6.7.8 1.2.9 1.8h.7c6.7-.1 14.2-2.4 14.6-6.3v2.3c0 .7763-.2825 1.2701-.6647 1.9383-.0117.0204-.0234.0409-.0353.0617-1 1.3-2.2 2-3.6 2.7-3.4 1.4-6.9 1.9-10.6 1.9h-1.4c-.5.7-1.2 1.2-1.9 1.6 1.2.2 2.4.2 3.6.2 6.7-.1 14.2-2.4 14.6-6.3v2.3c0 .7763-.2825 1.2701-.6647 1.9383-.0117.0204-.0234.041-.0353.0617-1 1.3-2.2 2-3.6 2.7-3.4 1.4-6.9 1.9-10.6 1.9-2.6 0-4.9-.3-7.5-1-2.5.7-5.1 1-7.7 1C7 26.6 0 23.5 0 20s6.9-6.4 14.8-6.4c2.5.1 5 .3 7.5.9ZM5.7 20.2c0 2.1 4 4 9 4s9.1-2 9-4c0-2.1-4-4-9-4-4.9 0-9 2-9 4Zm75.8-7.9h4.9V6.6h2.7v14.1h-2.7v-6.4h-4.9v6.4h-2.7V6.6h2.7v5.7ZM66 20.7l4.6-14.1h2.9l4.6 14.1h-2.8L74.1 17h-4.7l-1.1 3.7H66Zm4-5.6h3.6l-1.5-5.2-.2-.8h-.1l-.2.8-1.6 5.2Z"/>
</svg>