<svg xmlns="http://www.w3.org/2000/svg" viewBox="0 0 101 40">
	<path fill="#fff" d="M38.6536 23.73c-.1802.6755-.6249 1.8803-1.7059 3.3498-1.4018 1.5988-3.2259 2.7754-5.3033 3.4003-1.0529.3153-2.1506.473-3.2597.473-2.8375 0-5.5568-1.0528-7.6567-2.9613-.062-.0563-.0676-.1407-.0169-.2027 1.9086-2.3139 2.9557-5.2471 2.9557-8.2591 0-.5854-.0394-1.1597-.1182-1.7171-.5067-3.7833-2.6573-7.0542-5.7087-9.07532-2.0493-1.35681-4.504-2.15062-7.133-2.15062-.6306 0-1.24992.04504-1.86352.13512-1.84668.2646-3.61443.9346-5.1964 1.96483-.02258.01129-.05067.02249-.07885.02249-.03937 0-.07884-.01689-.10693-.04498-.05066-.05067-.05635-.12951-.01689-.19147C6.77154 3.64253 12.0637.585507 17.8455.0788184 18.4141.0281514 18.9883 0 19.5627 0c.1463 0 .2983 0 .4447.00562672C25.0518.118223 29.7978 2.15061 33.3783 5.72559c3.8565 3.85084 5.9339 9.17671 5.7144 14.62081-.0507 1.1428-.1971 2.2745-.4391 3.3836Zm8.6025-13.5121H51.94c3.1529 0 5.1067 1.5032 5.1067 3.9127 0 2.5279-1.768 3.9804-4.8587 3.9804h-8.0677V6.65984c0-.66995.5348-1.33428 1.4075-1.33428h10.3873v1.1879c0 .66994-.5351 1.29483-1.408 1.29483h-7.251v2.40961Zm.0056 5.4047h4.3467c1.5982 0 2.2463-.4223 2.2516-1.4582 0-1.0246-.6756-1.458-2.2516-1.458h-4.3467v2.9162ZM74.1561 5.32556h6.6597c3.0907 0 4.8587 1.45251 4.8533 3.98034 0 2.4152-1.9538 3.9127-5.1067 3.9127h-4.6782v3.6088c0 .7037-.5689 1.2836-1.3565 1.2836h-1.7796V6.62043c0-.715.5352-1.29487 1.408-1.29487Zm1.7334 5.40474h4.3467c1.576 0 2.2516-.4391 2.2516-1.45818 0-1.03591-.6525-1.45814-2.2516-1.45814h-4.3467v2.91632ZM61.5 10.2179h4.6783c3.1467 0 5.1058 1.5032 5.0952 3.9127 0 2.5279-1.7681 3.9804-4.8587 3.9804h-8.0623V6.6711c0-.70937.5404-1.34554 1.4133-1.34554h10.3868v1.1879c0 .72629-.5458 1.29483-1.3956 1.29483H61.5v2.40961Zm0 5.4047h4.3459c1.5991 0 2.2462-.4223 2.2524-1.4582 0-1.0246-.6755-1.458-2.2524-1.458H61.5v2.9162ZM47.2505 26.8429h4.6557c3.136 0 5.0898 1.4919 5.0898 3.896 0 2.5221-1.768 3.9634-4.8418 3.9634h-8.0283V23.3074c0-.6699.5292-1.3343 1.4019-1.3343h10.3873v1.126c0 .6587-.5182 1.3399-1.3742 1.3512h-7.2904v2.3926Zm0 5.3822h4.3241c1.5929 0 2.2401-.4222 2.2401-1.4525 0-1.019-.6694-1.4525-2.2401-1.4525h-4.3241v2.905Zm38.3848 1.126c0 .7206-.5404 1.3512-1.4018 1.3512v-.0056h-1.7288v-5.3653h-6.6374v4.0197c0 .6643-.5351 1.3456-1.4018 1.3456h-1.7227V23.313c.0053-.6474.4898-1.3455 1.3342-1.3455h1.7903v4.8923h6.6374V23.313c0-.715.5128-1.3174 1.3404-1.3455h1.7902v11.3836ZM63.6787 21.9675h2.0943l6.0071 12.7292h-1.8809c-.7262 0-1.5982-.3886-1.9867-1.0979l-.952-2.0211h-5.3369l-.9173 1.9422c-.3547.7545-1.2223 1.1768-2.0276 1.1768H56.804l5.5912-11.8397c.3653-.7657.9458-.8895 1.2835-.8895Zm.6187 3.9634-1.6551 3.5074h3.3165l-1.6614-3.5074Zm33.4474-3.9634h3.1142l-6.4867 5.2414 6.2837 7.4878h-2.4668c-.6133 0-1.6773-.2535-2.4427-1.1768l-3.6427-4.4813-1.5938 1.2892v3.0233c0 .7263-.5342 1.3456-1.4017 1.3456h-1.7227V23.313c0-.6812.5129-1.3174 1.3342-1.3455h1.7965v4.9712l5.0836-4.1211c.5235-.4279 1.2382-.8501 2.1449-.8501Zm-79.3756-9.948c.0563.0507.0619.1407.0112.2027-.1857.2251-.3659.4616-.5348.698-1.5595 2.1901-2.4152 4.8418-2.4152 7.5554 0 .5855.045 1.1541.1182 1.7171.2928 2.1337 1.0979 4.1042 2.297 5.7763 2.3533 3.299 6.2041 5.4497 10.5504 5.4497.6306 0 1.2499-.0451 1.8635-.1352 1.8466-.2702 3.6144-.9345 5.1963-1.9648l.0007-.0003c.028-.0111.0559-.0222.0838-.0222.0395 0 .0788.0169.107.0451.0507.0506.0563.1238.0169.1857C32.0048 36.8304 25.9808 40 19.5459 40c-.1464 0-.2984 0-.4448-.0056-.4223-.0113-.8389-.0338-1.2555-.0676-4.5771-.3941-8.83893-2.3758-12.11549-5.6524C1.87924 30.4236-.203799 25.0921.0157601 19.6479.0608247 18.5164.212827 17.3791.454874 16.27c.180177-.6755.624986-1.8803 1.705886-3.3498 1.40187-1.5932 3.22597-2.7754 5.29212-3.38914 1.05281-.31529 2.1506-.47289 3.25972-.47289 2.6066 0 5.1119.88951 7.133 2.51093.136.1105.2657.2243.3962.3389.0423.0371.0847.0743.1274.1115Z"/>
</svg>