<svg xmlns="http://www.w3.org/2000/svg" viewBox="0 0 150 32">
	<path fill="#fff" d="m95.2346 16.6344-.195-.2222.0389.004 4.9575.047V4.9114l-.1341-2.29366c.0238-.04583.0534-.08065.0911-.11198.038-.02727.16-.01625.358.04004l.754.14331.776.19786c.603.14332.927.32029.965.52221.03.18277-.154.41603-.55.7073l.01 12.36992.993.0093V4.86266l-.124-2.26116c.057-.10734.2-.15318.424-.13055.455.05512.996.16884 1.622.34523.626.17465.956.35801.996.54832.033.20947-.183.44562-.653.70266l.01 9.20944c.212-.5414.429-1.1512.652-1.833.221-.6817.394-1.2469.52-1.7041.126-.45722.253-.96608.381-1.52658.126-.56457.22-.99394.285-1.29044l.115-.60866.075-.46187c.097-.12475.307-.09573.634.0795l.835.39049.942.53381c.55.31507.78.58952.692.82625-.043.12011-.253.25821-.628.41371-.258.47521-.531.9568-.81 1.44071-.281.48218-.659 1.06068-1.131 1.73778-.471.6754-1.324 1.8521-2.551 3.5255v1.7123h1.478c.426-.5217.76-.951 1.003-1.2858.241-.3383.438-.5147.594-.5344.154-.0203.369.0655.654.2547.204.1532.427.3342.667.5506l.573.5455c.192.1792.303.3603.33.5436.063.2553-.02.5263-.233.5849l-13.9525-.0627-1.0508.0331-.4131-.5071Zm1.1065-9.63185c.0394.08414.1212.30578.2466.6574.1253.34988.2112.60809.2582.76997.047.16015.1003.42067.1618.77751.0842.52279.1231.96317.1213 1.32007-.0029.3574-.0458.7978-.1259 1.3177-.0795.5239-.0998.9353-.0563 1.2347.0401.3058.1909.575.4439.8117.2553.2374.5808.3406.9725.3105.3922-.0308.7293-.2281 1.0113-.5878.2791-.3615.4404-.7909.4804-1.2841.0534-.8047-.1276-1.5973-.5448-2.37833-.416-.77693-.7729-1.36935-1.0682-1.77261-.2919-.40674-.6853-.88717-1.1738-1.44361l-.3273-.36439c-.1212-.12765-.221-.21759-.2947-.26516-.0749-.04236-.1584-.04874-.2547-.00871-.0958.03714-.1387.10851-.1329.21991.0064.11082.0319.21062.0812.29534l.2014.38991Zm-4.592 7.55575-.5384-.1004-.4706-.1763c-.6214-.2275-1.2794-.5971-1.9734-1.1077-.6963-.5112-1.1947-.9626-1.49-1.3531-.2994-.3893-.5414-.7311-.7311-1.0235.8431-.2977 1.866-.6824 3.0729-1.1605.5593.01393.879-.03713.9539-.15956.054-.09342 0-.23674-.1596-.42415-.1537-.19032-.3876-.38527-.698-.58023-.3034-.1967-.5593-.38528-.7612-.56573-.2002-.17465-.3499-.29011-.4416-.34117-.1346-.06035-.2478-.08298-.3371-.06209-.0911.01915-.2228.1851-.3928.49378l-.1921.3522c-.2274.41835-.7073 1.0653-1.4361 1.94435-.4949-.90574-.8233-1.62638-.9939-2.15439-.1688-.53382-.3087-1.01889-.4172-1.46219-.0859-.35974-.1508-.64521-.1886-.86048h2.8333c-.2338.60286-.3893 1.00438-.4735 1.20688l-.2106.49958c-.0789.18393-.0772.31565.0093.39282.0865.07717.2524.01334.4915-.1909l.4502-.37599c.524-.43865 1.1019-.65856 1.7262-.65044l.7642.02495c.4299-.03539.6545-.21526.6736-.54948.0052-.17407-.0882-.35974-.2814-.55528-.1932-.19728-.7102-.59648-1.551-1.19121-.246-.16537-.4253-.23906-.5361-.22513-.1097.01682-.2298.08297-.3557.19321-.1067.09574-.2988.30869-.575.64464h-2.9824c.1718-.37309.3708-.82393.6006-1.3531.3789-.27329.5732-.46476.5866-.57617.0116-.13751-.1282-.28025-.4224-.42067-.2907-.14215-.7375-.2698-1.334-.38237-.5936-.11082-.926-.17465-.991-.19786-.3081-.07717-.4845-.10038-.5286-.06324-.0447.03771-.0836.20888-.119.5135l-.0789.59938c-.0934.7073-.1735 1.17903-.2361 1.41983-.0447.16246-.0876.31622-.1294.46128h-2.8971l-.1677-.36032-.2274-.3522c-.0766-.11663-.1323-.19032-.1677-.22339-.1271-.10154-.2327-.12997-.3157-.09052-.0882.0441-.1433.10618-.1665.18858l-.0249.5019-.0795.22513c-.0993.27851-.2159.49493-.3499.65044l-.7108.6191c-.2745.27677-.4155.57791-.4224.89878-.0093.30462.1271.61273.4149.91851.2848.3081.6846.39165 1.1993.24776.5158-.14216.8663-.39282 1.0566-.7543.1828-.36207.2675-.68874.2454-.9835-.0145-.24079-.04-.47637-.076-.70962h2.4097l-.293.80594c-.112.32319-.3597.85236-.7479 1.58984-.3905.73863-.7503 1.33511-1.0752 1.7935-.3272.4601-.8355 1.0775-1.5225 1.8567-.6887.7781-1.1309 1.2516-1.3328 1.4187-.2013.1648-.423.3418-.6638.5245l-.2617.2025c-.3557.2762-.4827.4596-.3806.546.0998.0853.2118.1323.3296.1341.116.0029.2234-.0256.322-.0807l.3348-.1764c.2048-.1044.6713-.3853 1.3995-.8326.7265-.452 1.5382-1.0288 2.4329-1.7366v3.2881c0 .0447-.069.1108-.2036.1996-.1347.0888-.2066.1903-.2182.3017-.0139.072.0354.2339.141.4845.1044.2501.2164.4776.3313.683l.4508.7519c.1091.2014.2025.3081.2786.3232.0887.0285.2228-.0214.4032-.1491l.8338-.8262 3.1472-3.0613.1601-.1526c.065-.0581.1132-.1399.1422-.2501.0342-.1062 0-.1932-.0992-.2646-.1022-.0743-.2548-.0574-.4671.0493l-.2855.141c-1.0845.5361-1.8289.9-2.2374 1.1019V9.96985c.4085-.21062.6075-.38759.5971-.52859-.0076-.14389-.188-.29939-.5367-.4752.6434-1.07749 1.0206-1.75927 1.1366-2.04416.1143-.28141.2072-.53381.2849-.74792.0233.32667.0505.71195.0876 1.1506.0366.43924.1091 1.03687.2246 1.79001.1143.75198.3162 1.55561.6075 2.40971.2942.8558.629 1.5922 1.009 2.2165.3807.6243.694 1.0699.9394 1.3461.2443.2768.5292.5547.8419.8355.3163.2809.5727.4892.7735.6215l.4439.3c.188.1351.3156.1926.3847.1758.0649-.0145.1439-.1399.2257-.3714.0841-.2315.1717-.4021.2553-.5123.0864-.1109.2112-.2391.3789-.3853.163-.1456.2941-.2431.3945-.2965.0958-.0511.2344-.112.4242-.1793l.3673-.1247c.2291-.0702.3759-.1283.4432-.1712.0656-.0435.0958-.1085.0888-.199-.0122-.0911-.0592-.1637-.1462-.2217ZM57.0832 4.78839l-.0981-2.42943c.0401-.06092.0911-.1085.1503-.13635.058-.03017.2292.02263.5158.16304l1.9722.97421h8.8097c.2269-.30636.4102-.55064.5576-.73167.1468-.18626.2721-.28722.3754-.31159.1015-.02262.2501.00929.452.09342.5483.24834.9986.51989 1.3531.81.3528.28722.5298.4845.5298.58488-.0018.12243-.1672.32957-.4915.62259L71.1932 14.516l.0969 2.13c-.0342.228-.098.3951-.1897.5036-.0882.1091-.3011.2165-.6307.325-.3302.1085-.6661.1462-1.0096.1143-.3394-.0331-.5657-.1045-.669-.2188-.105-.1114-.1549-.3023-.1491-.5756l.0069-.7966h-9.2256v.8216c0 .1508-.1085.3185-.3209.5059-.2199.1875-.7259.2466-1.5179.1788-.2199-.0169-.3615-.0511-.4253-.1085-.0696-.0552-.123-.1457-.1665-.2675l.1003-2.5362-.0098-9.80361Zm2.3319 10.43081h9.2443V4.14085h-9.228l-.0163 11.07835Zm8.7784-2.1677c-.2501-.2559-.5159-.4938-.7984-.7126-.1526-.1096-.2623-.1624-.3383-.1508-.0725.0133-.1457.058-.2176.1375-.0667.0812-.1886.2321-.3673.4619-.1735.2233-.3348.4229-.4798.6034H64.65V9.70353h.0835c-.0087.0116-.0116.02611-.0145.04178-.0098.09457.0232.17697.1085.25008l.3058.24771c.1834.1793.2994.4277.3545.7497.0557.3185.0998.5356.1323.647.0308.1114.1225.2187.2745.3249.1537.116.4044.1694.7566.1619.3481-.0087.622-.1787.8141-.5124.0969-.1677.1294-.3736.1073-.6214-.0238-.2483-.1828-.5158-.4764-.8071-.2222-.22049-.608-.37599-1.1581-.47057l1.9258.02031c.1764-.05106.3087-.27445.2547-.48797-.0099-.04468-.0354-.09806-.0795-.15492-.0702-.09922-.4149-.38934-1.0299-.86571-.2211-.16885-.4038-.23964-.5437-.2141-.1375.02553-.4543.34523-.9446.96492h-.8773l.0075-2.47004c.0186-.01567.0366-.0325.0517-.05048l3.439.03481c.2269-.06035.3644-.3522.2222-.6104-.0348-.0853-.116-.19322-.2431-.329-.2106-.22106-.5802-.52975-1.121-.92314-.1787-.12765-.3127-.18394-.3969-.17001-.0841.0145-.199.10618-.3371.27793-.1433.17233-.362.48681-.6684.94404H60.969l-1.3183-.0911.4033.51815.2559.35452 1.0072-.0354 1.2029.00987v2.54083l-1.4831-.01102-1.2272-.10735.4735.6017c.0214 0 .1897.24428.1897.24428l.9522-.03539 1.0949.01102.0098 3.71062-.7734-.0041-1.2504-.0226-1.0311-.0923.1834.2304.4287.5941 1.0079-.0342 7.2488.0632c.2269-.0603.3644-.3568.2165-.6168-.0337-.0893-.1567-.2425-.3667-.4583Zm-16.2024-.6864c-.0673.1537-.1631.2854-.2896.3916-.1259.1044-.3986.2042-.8233.293-.4253.0876-.7363.1184-.9353.0905-.2925-.0348-.4753-.1085-.546-.2228-.0749-.1143-.1114-.3458-.1114-.7015v-.6429h-3.3219v3.1118l.1138 2.3946c-.0674.1631-.1561.3047-.2745.4335-.1201.1276-.3505.2477-.6876.3551-.3324.1096-.705.1462-1.1065.1114-.3673-.0256-.5964-.0946-.6783-.2014-.0882-.1114-.1415-.2431-.1653-.4009l.1584-2.8008-.007-3.0033h-3.1327v.7079c0 .184-.1143.3847-.3481.5971-.2298.2135-.6435.3336-1.244.3591-.5994.0261-.933-.0139-.9951-.1137-.0673-.0998-.0957-.2338-.0957-.3992l.1044-1.8289V6.44089l-.0957-1.41286c.0458-.05977.1073-.10387.1903-.12998.0771-.02843.2622.03076.5553.18278l2.2483 1.1651h2.8014V4.49711l-.1398-1.98613c-.0122-.22107.018-.36844.0835-.42995.0702-.06673.2153-.08819.4427-.07195.119.01161.6035.11315 1.4547.29998.8581.19032 1.3212.34756 1.3966.47521.0783.12823.0981.24776.065.35568-.0331.10851-.1143.21411-.2571.31275l-.3951.27445.0093 2.5182h3.0816c.2431-.31622.4566-.59416.6359-.83553.1898-.24834.3459-.38237.4729-.39514.13-.01683.3476.07195.6505.26517l.7357.45258c.7224.44852 1.0844.78041 1.0798.99103-.0046.11547-.1097.26981-.3081.4578l-.4311.42009v3.07005l.1091 1.6937ZM43.305 7.02054h-3.1211v3.77436h3.1211V7.02054Zm5.981 0h-3.3218v3.77436h3.3218V7.02054Zm79.018 10.51786c-.058-.0238-.137-.0702-.239-.1509l-.296-.2176c-.471-.3556-.887-.8146-1.26-1.3739-.371-.5646-.589-.9278-.662-1.0949-.069-.1677-.118-.2803-.142-.3343-.224.2577-.392.4503-.527.5936l-.708.7427-.754.8408-.606.6522-.323.3754c-.101.1108-.167.1787-.203.2059-.033.0227-.087.032-.156.0192-.095-.011-.2-.1097-.317-.3017l-.631-1.0003c-.319-.5472-.458-.893-.414-1.0416.015-.051.061-.123.141-.2141.085-.0905.144-.1764.186-.2506.039-.0743.065-.2281.069-.4549l.009-3.8017c-.049.0911-.125.1607-.215.1857l-1.03-.0859-1.456-.0168v3.2023c.322-.1677.567-.2965.736-.383l.965-.4856.58-.2977c.046-.0232.116-.0284.21-.0186.093.0116.144.0633.15.1584.005.0975-.028.1817-.098.2594l-.369.3905c-.903.9649-1.485 1.6078-1.737 1.9333-.249.3244-.573.7654-.971 1.3201l-.292.4015c-.098.141-.172.2228-.211.2477-.046.0238-.106.0273-.18.0041-.103-.018-.217-.119-.349-.304-.13-.1857-.306-.4776-.526-.8727-.22-.3946-.35-.6661-.394-.817-.044-.1503-.044-.2669.004-.3504 0 0 .06-.0633.182-.1875.118-.1247.18-.311.186-.557l.009-3.6688-.942-.0133-1.044.0539s-.054-.0934-.059-.0934c0 0-.314-.557-.311-.5593l.055.0046 1.01.0621h1.291V8.14329l-.755.06904-.299-.38527c-.052.0528-.091.09284-.113.11605l-.579.60054-.299.3081c-.051.05106-.123.08761-.216.11431-.09.02611-.151-.01161-.188-.10677-.033-.09283-.036-.16943-.008-.23267l.242-.44968c.281-.54948.54-1.1564.765-1.81554.223-.6574.427-1.31191.605-1.95422.183-.64754.301-1.09374.355-1.34556l.094-.47637.051-.35046c.074-.14912.29-.16188.649-.03307l.705.21643c.977.3081 1.464.57094 1.464.78679-.005.13287-.216.27561-.641.42241-.407.75488-.715 1.29043-.924 1.60666l1.252.03017c.305-.37309.538-.64696.694-.81697.162-.17232.29-.2669.39-.28141.101-.01334.255.07601.466.26285.467.44735.736.74095.813.91212.155.23441.007.54136-.202.60054l-1.025-.06963s-2.772-.05106-2.797-.05106c-.463.66437-.926 1.27477-1.385 1.82947l.765.02553h2.139c.161-.18277.305-.35336.428-.51234.123-.16015.241-.28838.356-.38818.113-.09922.23-.14796.353-.14099.102.01102.297.15318.583.42298.292.27387.48.4787.573.61795.089.13926.115.25356.081.33828-.033.08587-.137.12997-.316.12997h-1.64c-.093.12591-.203.23847-.333.33363v1.76798h.265c.216-.2327.384-.42184.502-.5669.12-.14448.222-.26169.309-.358.085-.09342.183-.14796.295-.16189.109-.0145.321.12475.64.41139.312.29069.543.5414.69.7502V4.31898l-.079-1.808c.036-.04468.084-.08529.152-.11604.062-.03656.311.05338.743.26284l1.289.6458h3.063c.122-.15957.247-.33131.379-.51119.16-.22106.305-.33711.434-.35452.128-.01218.332.06093.603.21991.614.37367 1.006.62723 1.17.76126.17.13404.259.23616.272.30811.01.12127-.156.34117-.503.65218v3.25161l.079 1.78073c-.084.19438-.207.33364-.353.41835-.149.08819-.371.1439-.667.16769-.295.02609-.527.02319-.698-.0029-.362-.04642-.543-.17581-.543-.39224V9.5312h-1.033c.23 1.0166.381 1.5898.454 1.7134l.446.9168c.116-.1161.23-.2344.336-.3569.104-.1253.234-.3202.395-.5935.154-.271.257-.4613.295-.5681l.106-.2976.072-.2252c.028-.0394.088-.065.181-.0783.123-.0116.308.0389.553.1462.248.1114.522.2298.824.3592.306.13.526.2617.669.3928.139.13.203.2385.19.322-.019.1619-.319.2832-.892.376-.2.1596-.427.3325-.685.5205-.257.1862-.786.4479-1.587.7804.265.3267.587.6957.974 1.103.387.4039 1.044.799 1.974 1.1843l.471.1978c.148.0656.223.1538.235.2629.008.1073-.08.1856-.26.2297l-.475.126c-.123.0325-.304.1305-.548.2953-.242.1625-.441.4056-.594.7218-.158.3139-.265.4897-.325.5199-.06.0342-.155.0215-.282-.0412Zm-4.728-11.63132h3.237V4.08167h-3.237v1.82541Zm1.948 8.02462c-.11-.4155-.22-.8356-.32-1.251l-.01-.0424c-.096-.3992-.164-.738-.205-1.0159-.042-.2907-.092-.806-.15-1.5527l-.044-.53792h-1.218l.008 5.00162c.617-.1863 1.483-.4567 1.939-.6017Zm1.289-5.17801v-2.0662h-3.237v2.0662h3.237Zm7.666-1.27477c.108-.02031.287-.09574.533-.22919l.367-.2025c.028-.01334.255-.1555.673-.42415l1.123-.6574c.021-.01567 1.44-.97711 1.44-.97711.175-.11663.45-.29708.824-.53555.422.02263.668-.02553.736-.14796.043-.07427.021-.19438-.058-.36613-.076-.16653-.361-.47347-.854-.91444l-.639-.54832c-.264-.23964-.444-.3435-.543-.31565-.093.02495-.183.11315-.265.2553l-.132.24196-.314.49378-.174.27851-.325.52453c-.225.34407-.518.76532-.884 1.26084-.364.50074-.719.91444-1.058 1.24808l-.366.35742c-.205.20192-.321.33827-.353.40616-.029.07195-.016.13288.032.19322.051.0586.129.07717.237.0586Zm15.45.53149c-.083-.18161-.313-.46128-.686-.83785-.53-.53149-.885-.80768-1.066-.82625-.188-.0116-.441.18626-.758.58313-.312.4021-.569.74096-.763 1.02121h-5.981l-.982-.08297c.33-.03946.515-.12243.563-.26749.064-.20366-.232-.50538-.881-.91212-.654-.40326-1.027-.6342-1.127-.69164-.22-.0998-.36-.12997-.426-.09109-.07.04119-.121.1027-.164.19205l-.132.28373-.315.61795-.015.02843c-.164.31391-.334.63071-.51.951-.181.33131-.527.87093-1.031 1.61769-.506.74791-.994 1.37111-1.461 1.86661l-.332.3487c-.091.0923-.132.1718-.132.2489 0 .0726.033.148.102.2228.066.0766.23.0285.494-.1439l.498-.3278c.755-.488 1.3-.8605 1.633-1.1158v4.9128l-.088 1.9107c.052.0998.129.1851.23.253.076.0511.274.0726.597.0656.088-.0006.188-.0064.296-.0134.497-.0319.824-.1206.982-.2709.158-.1509.262-.311.306-.4851l-.095-1.5939V9.99423c.269-.25705.397-.43576.388-.5344-.005-.09806-.09-.1967-.249-.28953-.158-.09052-.304-.17639-.436-.2524l.077-.06963.813-.80826c.037-.03424.1-.08298.187-.15086l.143.17232.358.49204 1.045-.05396 3.636.01857-.019 6.18118c-.005.2106-.043.3946-.115.5565-.074.1555-.343.2129-.819.1688-.469-.0435-.741-.0719-.815-.083l-.318-.0255c-.246-.0168-.425-.0046-.54.0331-.114.0394-.172.116-.176.235-.002.1178.036.1967.12.2396.081.047.255.0934.518.1433l.473.0981c.148.0348.275.1178.384.2512.112.1341.185.2942.219.4752l.028.5014c.005.163.035.2686.086.3156.054.0516.147.0865.281.1027.258.0371.752-.0162 1.484-.1642.74-.1456 1.173-.3418 1.31-.5878.139-.2443.205-.539.205-.8773V8.7827c.045-.04177.119-.12765.229-.25066l1.515.00871 1.027.08355c.217-.05802.374-.37483.205-.61389Zm-9.613-4.08134.253.31564.216.29882 1.046-.05512 5.549.0412 1.029.08413c.218-.06208.378-.36206.147-.61969-.117-.14796-.311-.34349-.582-.58429l-.694-.6429c-.209-.17639-.381-.26458-.508-.26168-.13.00232-.3.12011-.504.34872-.205.22513-.495.60286-.873 1.13493l-3.643-.00638-1.441-.09284c.001.00058.03.04236.005.03946ZM46.6582 27.1464h-1.808c-.0366 0-.0656.0093-.0911.0279-.0273.0168-.0412.0435-.0412.0789-.0029.0261.0046.0482.0209.0656.0139.0162.0412.0249.0725.0284l.1166.0215c.0255.0069.0656.0209.1184.0464.0516.0232.098.0557.1363.0951.0378.0412.072.0981.1004.1788.0302.0789.0435.1415.0435.1885v.1555c0 .1254-.0296.2437-.0853.3551-.0586.1074-.1526.2025-.2808.2762-.1294.0749-.3.1143-.5089.1143-.1717.0006-.3371-.0272-.4897-.0876-.1537-.0597-.2692-.1352-.3394-.2274-.0702-.0923-.1259-.2136-.1689-.3627-.0412-.1491-.0667-.2855-.0835-.4061-.0157-.1213-.0232-.2664-.0279-.4317-.0063-.1666-.0087-.2988-.0087-.3969-.0029-.1654.0041-.3116.0186-.4363.0133-.1254.0418-.2664.0841-.4201.0424-.1538.1091-.3116.1944-.4706.0876-.1578.206-.2768.3528-.3592.1491-.0835.2994-.1282.4578-.1317.1352-.0017.2733.025.4131.0749.1416.0528.2646.1131.3661.1827.1022.0679.1921.1416.2641.2176.0725.0766.1323.1561.1734.235.0441.0813.0749.155.0906.2223l.0214.0934c.007.0377.0227.0713.0464.098.0256.0261.0517.0377.0853.0331.0296-.0029.0534-.0162.0703-.0348.0156-.0209.0255-.0435.0324-.0667.0064-.0227.0111-.0697.0111-.1329v-1.1355c0-.0186-.0047-.0441-.0116-.076-.0087-.0302-.0215-.0551-.0319-.0726-.0262-.0203-.0552-.0295-.0906-.0284-.0365.0029-.0621.0163-.0806.0418-.0192.0296-.0331.0627-.0401.1044-.0075.0424-.0191.0853-.033.1213-.0134.0371-.0319.0627-.0511.0783-.0377.0256-.0864.0319-.1456.0169-.0604-.0122-.1393-.0488-.2397-.1062-.1003-.058-.2036-.1062-.3115-.1457-.1045-.0377-.2072-.065-.3058-.0806-.1016-.018-.2176-.0232-.3487-.0232-.2107.004-.3905.0249-.5449.0632-.1514.0354-.2884.0853-.4102.1457-.1213.058-.2304.1212-.3244.1926-.0922.0673-.1851.1526-.2738.2512-.0882.0993-.1724.2072-.2414.325-.0737.1178-.1346.25-.188.3951-.0511.1433-.0853.2971-.1068.4543-.0179.1596-.0278.3157-.0278.4718 0 .1479.0052.3115.0215.4879.0133.1793.0533.3667.1224.5611.0673.195.1897.3917.3644.5901.1781.1996.3899.3464.6429.4439.2524.0975.5112.1462.7757.1491.2896.0029.5228-.0284.7126-.0998.1856-.0673.3202-.134.4067-.1909l.1758-.1294c.058-.0394.105-.0551.1433-.0516.0377.0023.0766.0226.1114.0586.0378.0365.0749.0789.1074.1276.0331.0482.0621.0929.0841.1364.0226.0423.0424.0696.054.0841.0441.0435.0922.0621.1421.0563.0517-.0052.09-.0215.1155-.0505.0232-.0261.04-.0719.0482-.13l.127-1.1865c.0023-.025.0116-.0737.0325-.1457.018-.0725.0395-.1247.0627-.1601.0261-.0342.0574-.0679.0957-.0992.0389-.0319.0772-.0517.1155-.0604l.0667-.0116c.0203-.0017.0412-.0116.0644-.0284.0215-.0163.0302-.0435.0192-.0795-.0093-.0366-.0279-.0621-.0581-.0725-.029-.0111-.0632-.0169-.1032-.0169Zm103.0758 1.8498c.023.0145.037.0331.041.0575.003.0278-.009.0533-.03.0771-.025.0238-.053.0366-.088.0366h-1.994c-.067 0-.114-.0064-.14-.0168-.028-.0111-.042-.0395-.037-.0865.005-.0278.015-.0487.04-.0673.025-.0133.055-.0226.093-.0255l.113-.0111c.041-.0023.085-.0116.135-.0301.051-.0163.09-.0505.119-.1016.032-.051.046-.1067.041-.1694-.005-.0656-.014-.1137-.024-.1445l-.307-.6992h-1.457l-.232.7097c-.034.0975-.042.1758-.025.2367.014.0621.044.1068.088.1387.044.0302.09.0505.137.0563.046.0092.088.0145.124.0145h.068c.028 0 .051.011.075.033.024.0233.037.047.033.0737-.004.0389-.023.0633-.059.0726-.034.0121-.086.0168-.151.0168h-1.284c-.086 0-.146-.0064-.176-.0168-.03-.0111-.046-.0372-.046-.0795 0-.0412.013-.0668.04-.0789.027-.0087.063-.014.109-.0209l.073-.0111c.03-.0023.077-.0145.14-.0435.064-.0272.115-.0574.16-.0922.041-.0348.084-.0789.123-.1277.041-.051.076-.0992.106-.1479.028-.0465.051-.0923.067-.1323 0 0 1.37-3.5064 1.374-3.5186.033-.0858.067-.1526.097-.2025.03-.0516.077-.0783.136-.0812.061-.004.105.0145.135.0534.031.0371.068.1039.114.1996l1.622 3.5493c.016.0319.049.0911.109.1793.056.0882.102.1537.136.1949.032.0401.075.0789.128.1108.051.0325.098.0534.139.0581l.058.011c.029.007.055.0157.077.0255Zm-2.115-1.4587-.639-1.501-.018-.0447-.62 1.5457h1.277Zm-15.562.3238c-.045.0232-.101.0806-.156.1723-.06.0905-.133.184-.218.2838-.086.098-.174.1827-.267.2553-.09.0713-.192.1317-.295.1769-.106.0441-.227.0726-.364.0853-.135.0134-.254.007-.362-.018-.104-.0232-.218-.0719-.338-.1415-.119-.0697-.22-.1555-.302-.2536-.083-.1027-.146-.2176-.193-.3458-.047-.1283-.08-.26-.101-.394-.021-.134-.032-.2745-.036-.4195-.006-.1468-.008-.2785-.008-.3963-.002-.17.005-.3186.016-.4474.014-.127.037-.2599.072-.4015.033-.1421.076-.2692.123-.3853.047-.1137.109-.2204.188-.3179.079-.0981.181-.1747.308-.2339.13-.0586.28-.0882.457-.0853.16.0018.305.0262.43.0726.127.0458.234.0998.323.1584.094.0621.174.1299.242.2089.07.0783.132.1694.192.2808.055.1097.097.2002.119.2739l.024.0841c.012.0435.028.0783.045.1039.018.0226.044.0324.083.0278.033-.0029.059-.0139.074-.0278.015-.0163.027-.0436.034-.0813.009-.0365.013-.0795.009-.1253l-.058-1.1355c-.002-.0232-.007-.0482-.015-.0783-.007-.0279-.015-.0528-.03-.0703-.023-.0203-.053-.0301-.089-.0295-.034.0005-.062.0133-.081.0411-.018.025-.031.0587-.042.0981-.007.0395-.019.076-.03.1062-.011.0331-.03.0551-.051.0714-.04.0272-.085.0365-.134.0272-.052-.011-.123-.0412-.212-.0899-.089-.0493-.193-.0934-.312-.134-.116-.0401-.237-.072-.36-.0882-.123-.0186-.261-.0232-.415-.0209-.178.0069-.339.0301-.48.065-.142.0342-.271.0789-.388.1392-.121.0598-.235.1271-.342.2048-.107.0766-.201.1584-.277.2466-.078.09-.155.1973-.231.325-.077.127-.137.2553-.181.3881-.045.1306-.08.2896-.101.4694-.026.1817-.037.336-.037.4579 0 .1235.007.2506.021.3852.016.1341.039.2698.076.4108.039.1422.095.2832.171.4277.078.1456.191.2924.339.4473.148.1515.305.2675.464.3453.161.0765.334.1351.52.1717.185.0348.368.0551.547.0551.151.0018.306-.0098.462-.0371.16-.025.304-.0691.433-.1271.127-.0597.252-.1456.369-.2593.119-.1167.211-.2205.274-.3151.065-.0952.132-.2083.204-.3383.042-.0743.059-.1346.054-.181-.004-.0459-.021-.0789-.054-.0981-.03-.0185-.066-.0145-.113.0099Zm7.589 1.1094-.095-.011c-.052-.0041-.112-.018-.183-.0418-.071-.0273-.128-.065-.173-.1143-.047-.0517-.075-.1114-.091-.1758-.01-.0673-.021-.1445-.024-.2298v-2.9435c0-.0725.01-.1433.026-.206.021-.0621.05-.1189.093-.1741.044-.0562.093-.1027.153-.1398.058-.0366.116-.058.175-.0673l.082-.0099c.026-.0005.049-.011.068-.0278.021-.0186.031-.0401.037-.0644.001-.0343-.006-.0586-.031-.0766-.02-.0163-.049-.0255-.085-.0284l-2.058-.0018c-.033 0-.063.007-.085.0226-.023.0169-.038.0418-.045.0743-.008.0342 0 .0575.022.0749.021.0168.044.0261.067.0272l.069.0099c.047.0093.105.0278.177.0586.07.0302.131.0748.178.1317.049.0575.081.1277.091.2118.011.0835.019.1514.019.2071v2.8878c-.005.0703-.019.1526-.045.2443-.027.0905-.065.1619-.112.2048-.047.0447-.102.079-.164.1039-.064.0238-.11.0377-.148.0418l-.076.011c-.022.0029-.045.0122-.065.025-.021.0156-.033.0342-.038.058-.009.0441-.002.076.021.0911.026.0162.057.0226.093.0226h2.121c.04 0 .072-.0064.095-.0209.023-.0139.03-.0441.028-.0853-.005-.0412-.013-.0667-.028-.0748-.015-.0047-.039-.0116-.069-.0151Zm4.9-4.3105h-1.525c-.038 0-.073.0087-.102.0249-.028.0157-.046.0377-.049.0679-.007.0354 0 .0609.022.0789.025.0168.05.0255.081.0255l.174.0099c.048.0052.102.0157.168.0307.063.0186.119.0465.169.0923.049.0412.088.0957.112.1607.025.0656.039.1259.039.1793v2.1869l-2.218-2.8669-1.351.0075c-.066.0018-.111.0093-.139.018-.026.0116-.045.0348-.049.0766-.003.0435.004.072.028.0841.023.0145.044.0204.063.0204l.093.0098c.033.0052.079.0139.133.0302.053.0133.108.0365.163.069.059.0319.102.0818.14.148.036.0673.061.1392.07.2234.013.0812.017.1595.017.2303v2.9476c0 .0598-.013.1271-.044.1932-.029.0702-.074.119-.13.1538-.059.0342-.119.0586-.179.0725-.058.0139-.105.0238-.137.0238l-.086.011c-.032.0029-.058.0122-.078.025-.023.0133-.037.0296-.045.0505-.013.0423-.005.0725.023.0911.028.0208.06.0301.096.0301l1.543.0041c.042.0029.077-.0041.107-.0163.026-.0133.041-.0388.039-.0829 0-.0424-.017-.0679-.05-.0807-.03-.0098-.063-.018-.086-.0209l-.098-.011c-.051-.0041-.106-.0122-.173-.0278-.067-.014-.134-.0412-.201-.0819-.065-.0417-.112-.0887-.139-.1456-.027-.0557-.038-.1224-.035-.2002v-2.8773l2.522 3.3119c.022.0319.058.076.107.1271.047.0534.084.0876.112.1015.051.0354.1.0505.152.0459.051-.007.089-.0435.121-.1091.033-.0667.049-.1561.046-.2721v-3.4855c0-.04.014-.0957.038-.1642.024-.0714.058-.1282.096-.1694.037-.0412.092-.0743.164-.1016.075-.0238.133-.0377.179-.0435l.128-.0098c.027-.0006.049-.0099.065-.0273.013-.018.021-.0372.025-.0633 0-.0342-.012-.062-.034-.0789-.024-.0174-.052-.0272-.087-.0272Zm-7.877.6098c.019-.0842.051-.1549.096-.2153.044-.0609.093-.1039.149-.1329.053-.0284.111-.0481.173-.0562l.07-.0087c.031-.0041.052-.0122.067-.0302.014-.0203.023-.0459.02-.0772 0-.0331-.011-.0563-.029-.0696-.019-.0116-.045-.0192-.082-.0209h-1.985c-.038 0-.067.007-.088.0209-.023.0139-.037.0394-.044.0737-.007.0307 0 .058.024.0766.023.0168.046.0272.065.0278l.061.0099c.056.0098.116.0348.181.0737.062.0377.113.0858.156.1439.04.058.067.1247.079.199.014.0743.021.1375.021.1903v1.0879h-1.588v-1.1024c0-.0679.007-.1329.019-.1979.011-.065.041-.1299.093-.1955.054-.0627.107-.1114.161-.1416.056-.0302.11-.0505.159-.0586l.071-.0087c.023-.0041.044-.0122.069-.0261.025-.0139.038-.0412.035-.083-.002-.0412-.015-.0667-.037-.0748-.025-.007-.051-.0122-.079-.0139h-1.978c-.033 0-.059.0069-.084.0208-.024.014-.04.0395-.047.0737-.007.0308.003.0581.026.0766.021.0168.048.0273.075.0279l.074.0098c.049.007.098.0238.153.0465.056.0272.107.0742.153.1439.047.0696.076.1456.09.2228.014.0806.02.1421.02.1932v2.9336c-.001.0795-.015.1602-.042.235-.025.0789-.067.137-.121.1805-.051.04-.102.0742-.152.0992-.049.0232-.087.0354-.114.0377l-.07.011c-.02.0029-.042.0122-.063.0256-.021.0185-.033.0365-.037.0574-.009.04 0 .0696.025.0876.024.0168.056.0261.089.0261h1.989c.035 0 .064-.0064.087-.0209.022-.0156.031-.0365.029-.0649 0-.0308-.009-.0552-.029-.0761-.023-.0191-.041-.0319-.06-.0348l-.071-.011c-.047-.0041-.096-.018-.156-.0418-.055-.0249-.108-.0632-.155-.1212-.046-.0563-.076-.1178-.094-.1851-.018-.0644-.028-.1341-.028-.2043v-1.5811h1.588v1.5811c-.002.083-.013.1602-.033.2304-.023.0713-.055.1329-.105.1764-.048.047-.1.0829-.156.105-.056.0238-.103.0365-.139.04l-.063.0111c-.023.0029-.047.0121-.067.0249-.019.0157-.033.0342-.036.058-.011.0401-.003.0697.023.0876.025.0169.057.0261.094.0261h1.96c.048 0 .086-.0063.116-.0208.025-.0157.041-.0366.043-.0691 0-.0319-.013-.0574-.037-.0737-.025-.0191-.049-.0301-.069-.033l-.059-.0111c-.044-.0046-.1-.0232-.165-.0528-.068-.0278-.123-.0696-.165-.1207-.042-.0516-.07-.1131-.085-.1851-.013-.0725-.018-.1398-.018-.2036v-2.9052c0-.0673.008-.1422.027-.2234Zm-15.319-.593c-.026.0162-.042.0418-.049.076-.009.0365 0 .0598.021.0766.024.0145.047.0232.073.0255l.079.0122c.05.0093.104.0278.169.0586.063.0302.119.0702.166.1189.048.0482.076.1167.091.206.014.0905.019.155.019.1979v2.9365c-.001.0906-.015.177-.038.2582-.027.0836-.068.1486-.128.1944-.059.0464-.117.0783-.17.0934-.052.018-.096.0279-.127.0279l-.105.011c-.014.0018-.031.0122-.052.0348-.021.0209-.032.0372-.035.0459-.011.04-.004.0678.021.0858.024.018.056.0279.092.0279l2.097.0023c.026.0041.049-.0064.069-.0261.019-.0226.024-.047.024-.0749-.005-.0284-.019-.0504-.037-.0667-.025-.0145-.045-.0255-.063-.0284l-.073-.011c-.034-.0041-.083-.018-.144-.0418-.059-.0273-.114-.0633-.164-.1143-.049-.0488-.084-.1074-.101-.1747-.015-.0667-.027-.1514-.028-.2524v-1.4001h.466c.043 0 .097.0145.169.0424.072.0296.138.0719.196.1305.058.0563.113.1294.164.2118.049.0836.086.1596.104.2246.02.0655.038.1038.051.116.027.0331.058.0488.098.0488.039-.0006.069-.0134.086-.0343.018-.0226.028-.0487.028-.0806v-1.5579c0-.0494-.012-.09-.035-.1143-.023-.0209-.052-.0325-.091-.0209-.036.0063-.062.0255-.076.0574-.013.0319-.03.076-.048.1294-.021.0551-.043.105-.072.1514-.024.0459-.064.1027-.116.1695-.051.0702-.1.1183-.149.1485-.045.0302-.097.0557-.15.0749-.051.0168-.107.0261-.156.0261h-.469v-1.5342c0-.0557 0-.0957.002-.1137.004-.0209.016-.0418.039-.0644.023-.0238.049-.0412.08-.047.029-.0093.062-.0145.099-.0162h.758c.066 0 .157.0145.267.0417.107.0273.219.076.322.141.104.0668.192.1422.258.2292.07.0853.126.17.166.2536.041.0835.078.1595.102.2257l.044.1282c.013.0348.032.0598.061.0743.023.0133.051.0157.084.007.028-.0087.049-.0256.059-.0528.013-.025.02-.0581.022-.0975l.004-1.2208h-3.889c-.031.0011-.06.0087-.085.0232Zm-12.789-.0168h-1.527c-.038 0-.072.0087-.102.0249-.028.0157-.044.0377-.05.0679-.007.0354.002.0609.024.0789.024.0168.05.0255.081.0255l.172.0099c.049.0052.105.0157.169.0307.063.0186.12.0465.171.0923.049.0412.084.0957.109.1607.026.0656.04.1259.04.1793v2.1869l-2.218-2.8669-1.352.0075c-.063.0018-.109.0093-.138.018-.026.0116-.044.0348-.049.0766-.002.0435.005.072.028.0841.023.0145.044.0204.063.0204l.093.0098c.035.0052.079.0139.133.0302.055.0133.109.0365.166.069.054.0319.1.0818.137.148.036.0673.063.1392.072.2234.011.0812.018.1595.018.2303v2.9476c0 .0598-.016.1271-.046.1932-.029.0702-.074.119-.131.1538-.057.0342-.116.0586-.176.0725-.061.0139-.107.0238-.139.0238l-.086.011c-.032.0029-.058.0122-.079.025-.02.0133-.036.0296-.043.0505-.013.0423-.006.0725.023.0911.027.0208.06.0301.095.0301l1.543.0041c.045.0029.077-.0041.109-.0163.026-.0133.039-.0388.038-.0829-.001-.0424-.018-.0679-.051-.0807-.031-.0098-.062-.018-.084-.0209l-.099-.011c-.05-.0041-.106-.0122-.174-.0278-.067-.014-.133-.0412-.2-.0819-.065-.0417-.113-.0887-.139-.1456-.026-.0557-.037-.1224-.035-.2002v-2.8773l2.523 3.3119c.022.0319.057.076.105.1271.05.0534.084.0876.113.1015.051.0354.1.0505.149.0459.052-.007.091-.0435.123-.1091.034-.0667.047-.1561.047-.2721v-3.4855c0-.04.014-.0957.038-.1642.025-.0714.056-.1282.096-.1694.037-.0412.093-.0743.163-.1016.074-.0238.133-.0377.179-.0435l.13-.0098c.026-.0006.048-.0099.062-.0273.015-.018.025-.0372.027-.0633 0-.0342-.013-.062-.034-.0789-.025-.0174-.053-.0272-.087-.0272Zm-10.0267 2.8634c.0673.1346.1027.2878.1062.4595.0041.1718-.0377.3412-.1183.506-.0534.1039-.1254.1973-.2142.2826-.0864.0835-.2083.1607-.3597.228-.1538.0667-.3035.1114-.4549.1352-.1491.0203-.3011.0325-.4549.0325h-2.6151c-.0371.0041-.0673-.0047-.0981-.0226-.0272-.0192-.0342-.047-.0272-.0882.0046-.0273.0185-.0441.0417-.0575.0227-.0093.0586-.0209.1085-.0284.0482-.0087.0981-.0209.1515-.0366.0534-.0162.1073-.0446.163-.0882.0581-.0423.0981-.0957.1271-.1618.0255-.0656.0366-.155.0366-.2652v-3.0294c0-.069-.007-.134-.025-.1973-.0203-.0626-.0458-.1166-.083-.1607-.0348-.0435-.0829-.0807-.1392-.1073-.0598-.0302-.1178-.047-.1735-.0534-.0557-.007-.0992-.018-.1248-.0331-.0296-.0145-.0388-.0412-.0296-.0783.0053-.0366.0204-.061.0436-.0784.0232-.0156.0528-.0226.0864-.0226h2.4579c.1688.0018.3272.0099.4764.0238.1479.0157.2825.04.3951.0766.1143.0377.2211.0928.3197.1625.0981.0702.1764.1537.2373.2442.0603.0923.1044.206.1352.3389.025.1329.0249.2733-.0093.4201-.0284.1212-.0737.2222-.134.3046-.0604.0812-.1352.1555-.2228.2187-.0876.065-.2095.1271-.3621.1886-.1538.0598-.2721.0934-.3591.1045l-.4335.0725c.2106.0226.3859.0458.5269.0696.141.025.2831.0644.4264.1201.1439.0551.2629.1213.3569.1996.0951.0801.1764.184.2419.3209Zm-2.5692-.8071h.4601c.0859 0 .1897-.0145.322-.0447.1201-.0307.2298-.0795.3325-.1462.1062-.0673.1897-.1549.2501-.2623.0609-.1091.0911-.246.0934-.4148.0023-.17-.0116-.3087-.0487-.4207-.047-.1416-.112-.242-.1967-.3081-.0842-.065-.1764-.1114-.2733-.1369-.0528-.014-.1062-.025-.1579-.032-.0417-.0046-.0818-.0069-.1253-.0069h-.3255c-.0441 0-.0911.0064-.1445.018-.0539.0139-.0888.0301-.112.0505-.0209.0208-.0394.0557-.0516.1015-.0145.0424-.0226.1004-.0226.1688v1.4338Zm1.5631 1.1303c-.0046-.1253-.0284-.2437-.0714-.3551-.0417-.1108-.1096-.2037-.2048-.2768-.0911-.0696-.2025-.1271-.3313-.1654-.0528-.0133-.1108-.0261-.1735-.0365-.0911-.0122-.192-.0203-.3011-.0203h-.481v1.6194c0 .0772.0075.134.0226.1677.0122.0348.0412.0627.0807.0795.0417.018.1119.0255.2059.0255h.4735c.1015-.004.1944-.0168.2814-.0394.1021-.0256.1955-.079.2768-.1561.0818-.0784.1363-.1642.1619-.2559.0255-.0934.0435-.1979.0487-.3151.0076-.116.0116-.2065.0116-.2715Zm6.1928 1.1494c.023.0145.037.0331.042.0575.003.0278-.008.0533-.03.0771-.024.0238-.052.0366-.088.0366h-1.996c-.066 0-.113-.0064-.14-.0168-.027-.0111-.04-.0395-.035-.0865.004-.0278.016-.0487.039-.0673.026-.0133.057-.0226.094-.0255l.114-.0111c.038-.0023.082-.0116.134-.0301.051-.0163.091-.0505.119-.1016.032-.051.045-.1067.04-.1694-.005-.0656-.013-.1137-.026-.1445l-.303-.6992h-1.46l-.2308.7097c-.0319.0975-.0412.1758-.0261.2367.0139.0621.0459.1068.0909.1387.044.0302.091.0505.136.0563.046.0092.088.0145.125.0145h.069c.025 0 .049.011.075.033.023.0233.034.047.032.0737-.005.0389-.025.0633-.058.0726-.035.0121-.086.0168-.153.0168h-1.283c-.0882 0-.1468-.0064-.1735-.0168-.0342-.0111-.0487-.0372-.0487-.0795 0-.0412.0139-.0668.0394-.0789.0261-.0087.0633-.014.1097-.0209l.0725-.0111c.0296-.0023.0766-.0145.1399-.0435.0632-.0272.1154-.0574.1595-.0922.0418-.0348.0836-.0789.1248-.1277.0412-.051.0742-.0992.1044-.1479.0279-.0465.0493-.0923.0656-.1323 0 0 1.3724-3.5064 1.3764-3.5186.032-.0858.065-.1526.094-.2025.032-.0516.079-.0783.139-.0812.059-.004.105.0145.132.0534.033.0371.068.1039.115.1996l1.622 3.5493c.015.0319.049.0911.109.1793.058.0882.102.1537.136.1949.033.0401.076.0789.128.1108.051.0325.099.0534.139.0581l.058.011c.03.007.056.0157.077.0255Zm-2.114-1.4587-.639-1.501-.019-.0447-.619 1.5457h1.277Zm12.064 1.4332-.087-.011c-.041-.0041-.086-.0192-.135-.0482-.046-.0284-.098-.0621-.149-.1044-.049-.0441-.095-.083-.13-.123-.041-.0401-.083-.0929-.132-.1602l-.114-.1607c-.086-.1155-.137-.1874-.151-.2199l-1.183-2.0407.764-.8117c.04-.0424.111-.0969.217-.1642.106-.0656.193-.1143.26-.1445.068-.0279.155-.0563.256-.0842.1-.0255.175-.0411.223-.0411h.053c.028 0 .058-.0088.086-.0273.028-.0163.04-.0418.04-.0813 0-.0377-.015-.0603-.046-.0719-.027-.0087-.056-.0145-.088-.0168h-1.77c-.04 0-.078.0075-.112.0209-.029.0145-.047.0417-.045.0841.001.0412.012.0667.034.0748.023.0116.056.0163.103.0169l.107.0098c.038.0053.081.0192.124.0436.041.0232.069.0539.088.0951.011.0424.008.0923-.019.1462-.023.0575-.049.112-.084.1689-.034.0551-.064.098-.093.1299l-1.246 1.2882v-1.2841c0-.0696.004-.1375.016-.2037.012-.0661.038-.1276.076-.1897.038-.0586.086-.105.141-.1369.056-.0319.109-.0505.167-.0575l.104-.0098c.028-.0006.051-.0087.071-.0203.02-.0099.031-.0372.035-.0789 0-.0302-.01-.0534-.029-.0697-.017-.0122-.046-.0203-.082-.0209l-2.033-.0046c-.033 0-.065.007-.088.0226-.021.0145-.037.0395-.044.0726-.007.0307 0 .0557.023.0742.024.0192.047.0285.075.0285l.118.0063c.045.0053.098.0256.161.0621.06.0354.113.0836.159.1457.039.0574.067.127.079.2025.009.076.016.1415.016.1978v2.9319c-.002.0876-.012.1642-.033.2257-.023.0633-.061.123-.114.177-.052.0563-.1.0934-.145.1155-.042.0214-.083.0319-.12.0342l-.086.011c-.019.0029-.042.0122-.066.0256-.021.0185-.037.0365-.04.0574-.011.0424-.004.0702.022.0882.024.0186.055.0255.095.0255h1.96c.049 0 .086-.0046.111-.0139.028-.0087.043-.0348.045-.0772 0-.0255-.012-.0493-.033-.0702-.02-.0191-.045-.0319-.072-.0348l-.069-.011c-.037-.0041-.089-.0232-.154-.0557-.065-.0343-.116-.0772-.156-.1282-.038-.0534-.067-.1144-.084-.1875-.019-.0713-.026-.1398-.026-.2025v-1.1767l.376-.3673.997 1.7135c.014.0301.028.0737.046.1305.016.0575.016.1068.004.1491-.017.0441-.043.076-.085.0923-.042.018-.078.0284-.107.0325l-.056.011-.067.0099c-.038.011-.059.0412-.063.0829-.004.0366.003.0656.026.0813.025.0156.053.0226.088.0226h1.993c.069 0 .12-.0064.158-.0191.035-.0134.052-.0412.044-.0819-.004-.0411-.024-.0667-.054-.076-.029-.0087-.052-.0156-.071-.0191Zm7.435-2.3557c.01.1392.014.2645.014.3777-.002.1578-.013.3023-.031.4369-.02.1363-.052.2663-.094.3946-.04.1276-.1.2605-.18.3986-.08.1386-.179.2663-.295.3829-.117.1161-.23.2048-.333.2646-.105.0598-.23.1201-.383.181-.149.0621-.255.0981-.315.1097-.056.0099-.155.0226-.292.0319-.137.0099-.222.0168-.272.0168-.069.0018-.167-.0069-.288-.0226-.131-.0145-.251-.0371-.361-.0679-.109-.0307-.24-.0835-.39-.1619-.154-.0771-.286-.1624-.4-.2535-.113-.0929-.218-.2072-.314-.3406-.1-.1346-.176-.2646-.228-.3917-.055-.1253-.096-.2477-.123-.3673-.025-.1183-.044-.221-.053-.3057-.01-.0859-.016-.1805-.017-.2809 0-.0679 0-.1531.001-.2489.002-.0975.011-.2095.036-.3383.019-.1282.056-.257.097-.3852.044-.1306.104-.2571.175-.387.074-.1271.153-.2374.241-.3267.087-.0888.181-.1723.279-.246.097-.0743.197-.1399.301-.195.102-.0557.22-.105.36-.1503.136-.0435.257-.0783.357-.0934.099-.0168.206-.0273.352-.0273.17.0018.336.018.499.0494.163.0319.314.076.452.134.139.0574.267.1276.386.2112.119.0841.225.1793.318.2872.091.1085.177.2362.251.3806.077.1445.133.3023.174.4706.039.1694.065.3226.076.4625Zm-1.082.3144c0-.0783-.003-.1926-.008-.3464-.014-.2065-.025-.3783-.036-.5146-.014-.1329-.035-.2617-.059-.3836-.025-.1247-.063-.235-.111-.3342-.047-.0969-.116-.181-.204-.2506-.086-.0726-.192-.1225-.312-.1555-.121-.0331-.234-.0505-.337-.0505h-.032c-.101.0046-.199.0238-.294.0574-.103.0372-.195.0876-.279.1561-.084.065-.162.1671-.237.3012-.073.1322-.127.279-.16.4316-.037.1555-.063.325-.081.506-.018.1834-.031.3603-.038.5338-.006.1735-.009.3017-.006.3801 0 .1085.004.2292.018.3626.013.1323.033.2687.063.4056.028.1375.062.242.1.3133.041.0714.082.137.124.199.044.0586.105.119.18.1828.079.0621.183.1132.314.1532.104.0319.205.0505.296.054.019.0023.038.0023.054.0023.065.0023.133-.0029.201-.0139.071-.014.154-.0412.248-.0853.095-.0418.18-.1114.258-.2049.076-.0957.136-.2205.183-.3684.046-.1503.076-.2739.094-.3754.017-.0998.03-.2652.04-.4967.014-.2309.018-.3835.021-.459Zm-77.9885 2.0674c.0208.0139.0371.0331.0394.0574.0023.0273-.0064.0528-.0284.0772-.025.0238-.0528.0354-.09.0354h-1.993c-.0679 0-.1144-.0052-.1434-.0162-.0261-.0116-.0377-.0401-.0342-.0865.0023-.0278.0163-.0493.04-.0673.025-.0139.0557-.0232.0923-.0255l.1131-.0111c.0401-.0023.0859-.0121.1352-.0301.0511-.0169.0911-.0528.1201-.1016.0308-.051.0441-.1073.0395-.17-.0041-.0655-.0122-.1131-.025-.1439l-.3046-.7003H38.539l-.2327.7096c-.0331.0975-.0418.1764-.0261.2367.0139.0621.0458.1074.0888.1393.047.0302.0922.0493.1387.0557.0446.0099.0864.0157.1259.0157h.0673c.0238 0 .0505.0098.0748.033.0232.0233.0331.0465.0331.0726-.007.0388-.0255.0632-.0604.0737-.0353.0121-.0841.0162-.1526.0162h-1.2811c-.0882 0-.1462-.0052-.177-.0162-.0284-.0116-.0464-.0378-.0464-.0807 0-.04.0157-.0656.0418-.0783.0255-.0093.0626-.0145.1091-.0209l.0725-.011c.0284-.0024.076-.0157.1398-.0441.0621-.0273.1161-.0575.1579-.0923.0435-.0348.0853-.0783.1253-.1276.0418-.0505.076-.0993.105-.1468.0261-.047.0511-.0929.0644-.1323 0 0 1.3717-3.5069 1.3769-3.5186.0342-.0858.0644-.1526.0952-.2036.0325-.0517.0771-.0772.1375-.0807.0603-.004.105.014.134.0528.0308.0378.0696.1045.1143.2002l1.6223 3.5493c.0134.0319.0494.0911.1074.1787.0574.0882.1027.1538.1363.195.0337.0412.0749.0806.1294.1114.0511.0325.0975.0528.1393.058l.0563.011c.0307.0076.0551.0163.0795.0267Zm-2.1167-1.4587-.64-1.4993-.0186-.0464-.6179 1.5457h1.2765Zm11.6795.3772c.0203.051.0168.1189-.007.2071-.0354.1352-.0725.257-.105.365-.0325.1085-.0795.2112-.1445.3063-.065.0975-.141.1758-.2269.2362-.0882.0621-.1828.1062-.286.1317-.1022.0255-.2153.0354-.336.0319-.1601-.0023-.2976-.0279-.4149-.0836-.116-.0493-.2059-.1299-.2692-.2344-.0603-.1067-.1015-.2089-.1212-.3069-.018-.0975-.032-.2257-.0366-.383l-.0087-.3197c-.0064-.0969-.011-.2048-.0203-.3272-.0047-.1207-.0226-.2205-.0511-.2948-.0272-.0725-.0673-.1352-.123-.1787-.0481-.0418-.1091-.0737-.2025-.0975-.0853-.0226-.206-.0301-.365-.0301h-.3295v1.4581c0 .0574.0098.1253.0273.2071.0203.0818.0481.148.0864.195.0412.0481.0923.0864.1555.1166.0621.0296.1114.0458.1462.0458l.0766.0076c.0296.0023.0575.0157.0818.0319.0261.018.0395.0424.0395.076.0023.0325-.0087.058-.0302.072-.0209.0179-.0516.0238-.0841.0203l-2.0059-.0024c-.0331 0-.0626-.0087-.0882-.0272-.0232-.0163-.033-.0464-.0255-.0876.0046-.0209.0168-.0401.0371-.0586.0209-.014.0435-.0227.0679-.0238l.065-.0076c.0226 0 .0667-.0145.1329-.0388.065-.0279.1189-.0534.1572-.0853.0435-.0302.076-.0935.1021-.1921.0273-.0969.0401-.177.0401-.2408v-2.9319c-.0023-.0511-.0099-.1143-.0238-.1955-.0116-.0766-.0401-.1486-.0812-.2095-.0401-.0644-.0877-.1108-.1364-.1422-.0511-.0301-.1021-.0493-.1526-.0574l-.1039-.0099c-.0203 0-.0412-.0087-.065-.0307-.0249-.0227-.0319-.0511-.0232-.0859.0047-.0255.0192-.0458.0412-.0621.025-.0168.0534-.0232.0877-.0232h2.7595c.1109.0029.2223.0076.3342.018.1097.0122.2275.0435.3482.0975.1224.0551.2245.1166.3023.1903.0818.0725.1532.1712.2129.2948.061.1247.0958.2738.1097.4438.0099.1724-.0302.336-.1224.4926-.0673.1132-.1555.206-.2594.2733-.105.0714-.2234.1329-.3621.1834-.1363.0487-.25.0841-.3417.1027l-.3342.0783c.1015.0168.1897.0331.2616.0488.0749.0162.155.0417.2484.0812.0911.0412.1712.0946.2361.1677.0668.0742.1132.1578.141.2506.0262.0952.0441.2252.0511.3923.007.1653.0122.3046.0139.4148 0 .1109.0232.1886.0679.2315.0441.0436.1004.0627.1723.061.0354 0 .0784-.0134.1294-.0389.0511-.0226.0981-.0725.1364-.1433.0412-.0679.0766-.1433.1097-.2205.0295-.0789.051-.1294.0609-.1532.0087-.0226.0301-.0441.0621-.0696.0307-.0215.0679-.0319.1027-.0255.0359.0063.0626.0353.0824.0882Zm-1.7698-1.6079c.0668-.1004.112-.2118.1306-.3342.0209-.1236.0255-.2535.0139-.3893-.0156-.1509-.0481-.264-.0975-.3412-.047-.0737-.1108-.1363-.1879-.1857-.0766-.0516-.1654-.0864-.2629-.1073-.0574-.0116-.1073-.0203-.1596-.0255-.0394-.0047-.0771-.007-.1137-.007l-.2321.0041c-.1178.0023-.2036.0185-.2524.047-.0493.0319-.0806.0655-.0934.1073-.0133.0412-.0226.116-.0226.2222v1.3827h.3464c.1108 0 .2205-.0093.3342-.0232l.0331-.0064c.0998-.0191.199-.0539.2994-.1067.109-.0581.1972-.137.2645-.2368Zm4.1684 2.6633-.0934-.0099c-.0528-.0029-.1131-.0185-.1839-.0423-.0696-.0273-.1253-.0644-.1723-.1155-.0465-.0511-.0749-.1108-.0888-.1746-.0134-.0674-.0215-.1445-.0261-.2304v-2.9424c0-.0742.0098-.1438.0261-.2065.0214-.0598.051-.119.0928-.1747.0435-.0551.0934-.1021.1532-.1392.058-.0354.1166-.058.1764-.0667l.0806-.0111c.0261-.0005.0488-.0098.0691-.0278.018-.0168.0302-.0412.0354-.0633.0023-.0348-.007-.0597-.0302-.0771-.0209-.0157-.0487-.0256-.0859-.0285l-2.0557-.0017c-.0354 0-.0627.007-.0876.0226-.0227.0168-.0378.0412-.0441.0743-.007.0331 0 .0574.0214.076.0227.018.0447.0255.0679.0261l.0696.011c.0447.0087.1039.0279.1759.0581.0702.0301.1305.0748.1804.1323.0487.0562.0783.1276.0888.2112.0116.0835.018.1531.018.2083v2.8872c-.0029.0702-.0163.1526-.0441.2443-.025.0911-.0627.1601-.112.2059-.047.0441-.1016.079-.1648.1028-.0621.0237-.1091.0394-.1456.0423l-.0784.0099c-.0203.0029-.0417.0139-.065.0249-.0191.0145-.033.0343-.0353.0604-.0111.0417-.0018.0737.0208.0882.0238.0168.054.0232.0923.0232h2.1196c.0423 0 .0737-.0064.0957-.0215.0215-.0133.0302-.0435.0279-.0853-.0041-.0394-.014-.0667-.0279-.0725-.0156-.0087-.0383-.0145-.0708-.018Zm4.0007-1.1106c-.0458.0238-.0998.0818-.1601.1741-.0551.0905-.1294.1839-.2153.2826-.0841.0998-.1735.1827-.2646.2559-.0911.0719-.192.1322-.297.1781-.1045.0435-.2269.0719-.3639.0853-.134.0139-.2547.0064-.3614-.0169-.1039-.0249-.2159-.0713-.3395-.1421-.116-.0696-.2187-.1561-.3011-.2536-.0812-.1027-.1457-.2164-.1921-.3458-.047-.1282-.0818-.2599-.1003-.394-.0209-.134-.0343-.2744-.0378-.4201-.0046-.1462-.0069-.2779-.0069-.3951-.0041-.1712.0029-.3174.0168-.4473.0093-.1271.0342-.26.0702-.4021.0325-.1416.0749-.2687.1224-.3853.0482-.1137.1109-.2205.188-.3174.0795-.0969.1805-.1747.3093-.2327.13-.0597.2791-.0888.4555-.0859.1595.0018.304.0262.4288.0726.1276.0447.235.0998.3266.1584.09.0621.1712.1305.2408.2083.0697.0783.1317.17.1898.2814.0557.1091.098.1996.1207.2733l.0249.0853c.011.0435.0273.0783.0458.1021.018.0249.0447.0331.0807.0302.0371-.0029.0603-.0145.0766-.0302.0139-.0145.0278-.0418.0348-.0783.0075-.0395.0099-.0818.0075-.1271l-.0586-1.1355c-.0023-.0226-.0069-.0488-.0139-.0789-.0069-.0279-.0162-.0517-.0302-.0697-.0232-.0203-.0533-.0301-.0887-.0295-.0348.0005-.061.0133-.0795.0394-.0186.0255-.0325.0598-.0412.0998-.011.0395-.0226.076-.0308.1062-.0145.0319-.0301.054-.0534.0714-.0394.0272-.0841.0365-.134.0272-.0516-.011-.1213-.0412-.2129-.0887-.0888-.0505-.1921-.0946-.311-.1341-.1178-.0418-.2385-.0719-.3604-.0888-.1183-.0185-.2593-.0249-.4131-.0214-.1787.0087-.3406.0296-.4798.0655-.1422.0331-.2733.0795-.3905.1393-.1184.0598-.2321.1271-.3418.2042-.1067.0784-.2002.1596-.2768.2484-.0771.0882-.1531.1973-.2303.3243-.076.1271-.1369.2553-.181.3882-.0436.1317-.0795.2884-.1016.4706-.0232.1804-.0348.3359-.0348.4572 0 .1236.0052.2524.0203.3853.0145.1328.0389.2698.0772.4114.0365.1415.0922.2814.1694.427.0772.1445.1909.2924.3389.4474.1491.1508.304.2674.4636.3458.1601.076.3336.1346.5193.1711.1862.0354.3684.054.5483.054.1503.0006.3046-.011.4624-.0365.1596-.0256.3041-.0691.4312-.1277.1276-.058.2524-.1445.3696-.2594.1183-.116.2117-.2205.2756-.3156.065-.0923.134-.2066.2036-.3383.0401-.0725.0586-.1329.054-.1804-.0029-.0447-.0209-.0789-.0516-.0981-.0325-.0203-.0714-.0174-.1167.0052Zm5.0997-3.2017h-1.2957c-.0534 0-.0922.0047-.1189.0168-.025.0134-.0389.0349-.0459.0679-.0063.0366.0024.0656.0296.0842.0238.0208.0464.0301.0644.0301l.1277.0093c.0354.0052.0841.0192.1514.0459.065.0237.1184.058.1561.0992.04.0412.0679.098.0853.1677.0157.0713.0255.1375.0255.2013v2.332c0 .1235-.0098.246-.0348.3638-.0232.1212-.065.2297-.1282.3249-.0633.0934-.1619.1816-.2953.2582-.1352.0772-.2675.13-.4033.1584-.13.0278-.2669.0394-.3992.0331-.17-.0053-.3273-.0354-.4758-.0923-.148-.0557-.2576-.1305-.3296-.2222-.0713-.0946-.1143-.1932-.1317-.2948-.0203-.1038-.0278-.2396-.0238-.4114v-2.3818c0-.0667.0087-.1387.0285-.2118.0191-.0702.0557-.1369.1073-.1955.054-.0598.1131-.0998.1828-.1259.0696-.0233.1294-.0401.1816-.0482l.1038-.0093c.0209 0 .0395-.0093.0563-.0302.018-.0185.0256-.0441.0256-.0783-.0006-.0307-.014-.0551-.0325-.0679-.0227-.0145-.0494-.0214-.09-.0232l-2.1811-.0023c-.0354 0-.0667.0052-.0911.0226-.0237.0145-.0353.0412-.0353.0743 0 .0365.0116.0627.0348.0795.0238.018.0458.0255.069.0255l.1021.0093c.0488.0075.1068.0226.1782.0464.0719.0232.141.065.2013.1213.065.0603.105.1271.1166.2019.0145.0789.0215.1549.0215.235v2.4184c-.0046.0679 0 .1375.0116.2118.011.0748.0226.1387.0348.1949.0116.0575.0377.1207.0749.1956.0394.0737.123.17.2501.293.1276.123.2895.2095.4879.2646.1967.0505.3708.0853.5222.0946.1492.0133.2791.0208.3882.0208.1184 0 .2466-.0092.3859-.0249.1386-.0116.2756-.0371.4055-.072.1329-.0348.2577-.0858.3824-.1578.1236-.0696.2304-.1526.3203-.2506.0911-.0946.1578-.202.2095-.3174.0464-.1161.0737-.2269.0783-.3325.007-.1039.0099-.2048.0099-.2988v-2.2821c-.0029-.058.0075-.123.0307-.199.0226-.0783.0528-.1375.0882-.1862.0354-.0465.083-.0859.1439-.119.058-.0319.1161-.051.1712-.0586l.1027-.0093c.0226-.0017.0435-.0093.0644-.0272.0226-.018.0296-.0418.0261-.0743-.0041-.0325-.0168-.0575-.0418-.0737-.0226-.0157-.0528-.0238-.0841-.0238Zm4.4875 2.9609c-.04-.0029-.0679.0076-.0853.0296-.0145.0256-.0325.0644-.0528.1201l-.0493.119c-.0302.0713-.0743.1537-.1364.2506-.0609.0969-.1259.1811-.1909.26-.0655.076-.1555.1561-.2646.2396-.1096.0865-.2141.1445-.3133.1781-.0957.0343-.1944.0563-.2872.065-.0934.0111-.1648.0122-.2129.0122h-.6969c-.0598 0-.1108-.0098-.1549-.0342-.0459-.0238-.0789-.0563-.105-.0929-.0279-.0371-.0412-.0719-.0459-.1027v-3.2092c0-.0621.0093-.1282.0238-.2002.0157-.0714.0458-.1363.0882-.1955.0441-.0575.0928-.1021.1468-.1341.0534-.0301.1114-.0504.1677-.0574l.0934-.0099c.0255-.0005.0464-.0133.0632-.0325.018-.0209.0256-.0458.0233-.076-.0006-.0261-.0116-.0481-.0262-.0632-.0203-.0139-.047-.0226-.0806-.0255l-1.9914-.0018c-.0365 0-.0649.007-.0882.0226-.0208.0169-.0371.0401-.0446.072-.0064.0331.0005.058.0261.0789.0232.0203.0464.0296.0702.0296l.0957.0064c.0302.0029.0813.0255.1503.0673.0696.0441.1207.0864.1538.1282.0342.0441.0574.1143.0696.2112.0157.0975.0226.1654.0226.2025v2.9308c-.0029.0928-.0156.1746-.0371.2442-.0209.0697-.0598.1254-.112.1677-.0516.0418-.1073.0737-.1648.0998-.0551.0256-.0922.0401-.1178.0401l-.0667.011c-.0232.0029-.0458.0122-.0667.0249-.0209.0157-.0331.0343-.0377.0586-.0093.0447 0 .0749.0214.0923.0256.0162.0581.025.0958.0209h4.068l.1317-1.3456c.0046-.0841.0023-.1375-.007-.1624-.0098-.0232-.0371-.0372-.0754-.0401Zm.2158-1.5846c0 .0488.0093.0934.0296.1317.0192.0377.0493.0586.0888.0586.0261.0018.0516-.0069.065-.0249.018-.0157.0331-.0464.0516-.0929l.0343-.0841.1178-.2884c.0307-.0655.0783-.1502.1415-.257.0656-.1044.1283-.188.1886-.2466.0609-.0603.1422-.1166.2454-.1694.1004-.0534.1898-.0929.2664-.1161.0771-.0214.1433-.033.1949-.033l.1573.0017v3.4193c-.0018.0673-.0169.1445-.0424.2298-.0238.0887-.0609.1572-.112.2083-.0481.0487-.1085.0864-.1758.1096-.0673.0279-.1294.0459-.1804.0581-.0517.0121-.0958.0214-.1347.0214l-.091.0099c-.0238.0029-.047.0139-.0691.0284-.0249.0163-.0365.0377-.0365.0644-.0041.0354.0069.0604.0324.0772.0256.0139.0575.0238.0929.0238l2.4555.0023c.0209.0041.0488-.0064.0766-.0238.0261-.0191.04-.0458.0395-.0806-.0024-.0331-.018-.0586-.0418-.072-.0279-.0168-.0557-.0255-.0772-.0261l-.0905-.0041c-.0603 0-.1387-.0156-.2367-.0493-.0975-.0342-.1758-.0789-.2339-.134-.0603-.0557-.098-.119-.1177-.195-.0209-.0737-.0302-.1491-.0302-.2268v-3.442l.1648-.0017c.058 0 .1392.018.2413.054.1045.0371.2089.0969.3134.1769.1061.0836.1926.1758.2558.278.0645.1038.1184.2094.1654.315.0464.105.0772.1886.0969.246l.0348.1254c.0087.0365.0256.0667.0488.0928.0214.0261.0533.0354.0934.0279.04-.0099.0673-.0302.0806-.0604.0134-.0319.0203-.0748.0203-.1329v-1.3763h-4.1237v1.3769Zm9.0458-1.3763H75.549c-.0516 0-.0911.0047-.1177.0168-.0256.0134-.0395.0349-.0447.0679-.007.0366.0023.0656.0261.0842.0273.0208.047.0301.0673.0301l.1294.0093c.0331.0052.083.0192.1468.0459.0673.0237.1213.058.1584.0992.0395.0412.0679.098.0853.1677.0133.0713.0249.1375.0249.2013v2.332c0 .1235-.0116.246-.033.3638-.0238.1212-.065.2297-.13.3249-.0627.0934-.1607.1816-.2948.2582-.134.0772-.2669.13-.4015.1584-.134.0278-.2675.0394-.4021.0331-.1671-.0053-.3255-.0354-.4752-.0923-.1468-.0557-.2576-.1305-.3278-.2222-.072-.0946-.1138-.1932-.1329-.2948-.0186-.1038-.0255-.2396-.0232-.4114v-2.3818c0-.0667.0093-.1387.0284-.2118.0186-.0702.0557-.1369.1091-.1955.0511-.0598.1132-.0998.1828-.1259.0679-.0233.1259-.0401.1804-.0482l.1039-.0093c.0209 0 .0389-.0093.0563-.0302.018-.0185.0272-.0441.0249-.0783 0-.0307-.0139-.0551-.0307-.0679-.0232-.0145-.0505-.0214-.0905-.0232l-2.18-.0023c-.0365 0-.0673.0052-.0922.0226-.0232.0145-.0331.0412-.0331.0743 0 .0365.0093.0627.0325.0795.0232.018.0458.0255.0696.0255l.1039.0093c.0464.0075.1027.0226.1758.0464.0714.0232.1392.065.2037.1213.0626.0603.1003.1271.1137.2019.0145.0789.0232.1549.0232.235v2.4184c-.0041.0679.0006.1375.0098.2118.0117.0748.0238.1387.0372.1949.0098.0575.0371.1207.0737.1956.0394.0737.123.17.2506.293.1271.123.2884.2095.4868.2646.1973.0505.3714.0853.5228.0946.1509.0133.2791.0208.3894.0208.1178 0 .2454-.0092.3847-.0249.1392-.0116.2744-.0371.4061-.072.1329-.0348.2576-.0858.383-.1578.123-.0696.2297-.1526.3185-.2506.0911-.0946.1584-.202.2083-.3174.0488-.1161.0766-.2269.083-.3325.0052-.1039.0075-.2048.0075-.2988v-2.2821c-.0023-.058.0076-.123.0308-.199.0209-.0783.0528-.1375.0876-.1862.0366-.0465.0859-.0859.1439-.119.0604-.0319.1161-.051.17-.0586l.1045-.0093c.0226-.0017.0446-.0093.0632-.0272.0215-.018.0302-.0418.0284-.0743-.0046-.0325-.018-.0575-.0412-.0737-.0278-.0157-.0557-.0238-.0882-.0238Zm4.9163 3.2569c.0163.051.0163.1189-.0075.2071-.0389.1352-.0719.257-.105.365-.0331.1085-.0813.2112-.1439.3063-.0656.0975-.1399.1758-.2275.2362-.0882.0621-.1816.1062-.2854.1317-.1027.0255-.2165.0354-.3366.0319-.1595-.0023-.2971-.0279-.4137-.0836-.116-.0493-.2065-.1299-.2692-.2344-.0604-.1067-.1004-.2089-.123-.3069-.0168-.0975-.0284-.2257-.0348-.383l-.0099-.3197c-.0046-.0969-.011-.2048-.0203-.3272-.0064-.1207-.0215-.2205-.0493-.2948-.0261-.0725-.0679-.1352-.1213-.1787-.0511-.0418-.1131-.0737-.2083-.0975-.0818-.0226-.2037-.0301-.3626-.0301h-.3273v1.4581c0 .0574.0093.1253.0279.2071.0168.0818.0464.148.0864.195.0395.0481.0888.0864.1526.1166.0633.0296.1137.0458.148.0458l.0766.0076c.0296.0023.0574.0157.0812.0319.0278.018.04.0424.04.076.0018.0325-.0087.058-.0307.072-.0232.0179-.0505.0238-.0836.0203l-2.0058-.0024c-.0354 0-.0656-.0087-.0888-.0272-.0232-.0163-.0325-.0464-.0255-.0876.0046-.0209.0179-.0401.0377-.0586.0203-.014.0441-.0227.0667-.0238l.0656-.0076c.0214 0 .0673-.0145.1328-.0388.065-.0279.119-.0534.1596-.0853.0395-.0302.0743-.0935.0981-.1921.0284-.0969.04-.177.04-.2408v-2.9319c-.0023-.0511-.0099-.1143-.0209-.1955-.0133-.0766-.04-.1486-.083-.2095-.0412-.0644-.0858-.1108-.1363-.1422-.0511-.0301-.1021-.0493-.1538-.0574l-.1027-.0099c-.018 0-.0394-.0087-.0644-.0307-.0249-.0227-.0325-.0511-.0226-.0859.0046-.0255.018-.0458.04-.0621.0238-.0168.0511-.0232.0865-.0232h2.7596c.1114.0029.2234.0076.3342.018.1096.0122.228.0435.3487.0975.1207.0551.2245.1166.3035.1903.0818.0725.1508.1712.2117.2948.0621.1247.0993.2738.1097.4438.0116.1724-.0296.336-.1207.4926-.0702.1132-.1561.206-.2605.2733-.1027.0714-.2251.1329-.3621.1834-.1363.0487-.2501.0841-.3435.1027l-.3324.0783c.1021.0168.1897.0331.2605.0488.0743.0162.1561.0417.2477.0812.0946.0412.1724.0946.2391.1677.0644.0742.1114.1578.1387.2506.0296.0952.0458.2252.051.3923.0093.1653.0116.3046.014.4148 0 .1109.0249.1886.069.2315.0447.0436.1004.0627.1694.061.0389 0 .0836-.0134.1329-.0389.0511-.0226.0975-.0725.1364-.1433.0412-.0679.076-.1433.1085-.2205.0325-.0789.0528-.1294.062-.1532.0087-.0226.0302-.0441.061-.0696.0342-.0215.0673-.0319.1038-.0255.0348.0063.0627.0353.0818.0882Zm-1.7714-1.6079c.0696-.1004.1114-.2118.1323-.3342.0191-.1236.0238-.2535.0116-.3893-.0139-.1509-.047-.264-.0957-.3412-.0482-.0737-.1097-.1363-.1886-.1857-.0743-.0516-.1648-.0864-.2629-.1073-.0557-.0116-.1067-.0203-.1584-.0255-.0394-.0047-.0783-.007-.116-.007l-.2315.0041c-.1166.0023-.1996.0185-.2507.047-.0493.0319-.0806.0655-.0934.1073-.0139.0412-.0209.116-.0209.2222v1.3827h.3441c.1114 0 .2234-.0093.3348-.0232l.0331-.0064c.1003-.0191.1996-.0539.2994-.1067.109-.0581.1961-.137.2628-.2368Zm6.8427 2.6894c.0209.0139.0354.0331.0377.0574.0046.0273-.007.0528-.0302.0772-.0232.0238-.0505.0354-.0864.0354h-1.9943c-.0673 0-.1143-.0052-.1416-.0162-.0261-.0116-.0389-.0401-.0342-.0865.0023-.0278.0162-.0493.0394-.0673.0233-.0139.054-.0232.0935-.0255l.1131-.0111c.0377-.0023.0836-.0121.1346-.0301.0488-.0169.09-.0528.1201-.1016.0302-.051.0441-.1073.0377-.17-.004-.0655-.0121-.1131-.0237-.1439l-.3047-.7003h-1.4575l-.2321.7096c-.0348.0975-.0418.1764-.0255.2367.0156.0621.0423.1074.0887.1393.0441.0302.0929.0493.1376.0557.047.0099.0853.0157.1236.0157h.069c.025 0 .0505.0098.076.033.0226.0233.0325.0465.0325.0726-.0046.0388-.0255.0632-.0603.0737-.0349.0121-.0859.0162-.1515.0162h-1.2829c-.0876 0-.1456-.0052-.1764-.0162-.0284-.0116-.047-.0378-.047-.0807 0-.04.0163-.0656.0424-.0783.0273-.0093.0609-.0145.1073-.0209l.0737-.011c.0296-.0024.076-.0157.1393-.0441.0632-.0273.1178-.0575.1595-.0923.0418-.0348.0859-.0783.1236-.1276.0418-.0505.0743-.0993.1051-.1468.0278-.047.0516-.0929.0655-.1323 0 0 1.3734-3.5046 1.3769-3.5186.0325-.0858.0644-.1526.0952-.2036.0307-.0517.076-.0772.1375-.0807.058-.004.1038.014.134.0528.0302.0378.0696.1045.1143.2002l1.6223 3.5493c.014.0319.0494.0911.1068.1787.058.0882.1039.1538.1369.195.0331.0412.0749.0806.1283.1114.0493.0325.0992.0528.1387.058l.058.011c.0307.0076.0539.0163.0795.0267Zm-2.1161-1.4587-.6389-1.4993-.0203-.0464-.6197 1.5457h1.2789Zm6.5154.0812c-.0412-.0029-.0691.0076-.0853.0296-.0145.0256-.0308.0644-.0534.1201l-.0482.119c-.0278.0713-.0742.1537-.1369.2506-.0603.0969-.123.1811-.1903.26-.069.076-.1561.1561-.264.2396-.1114.0865-.2135.1445-.3116.1781-.0981.0343-.1967.0563-.2907.065-.0934.0111-.1642.0122-.2089.0122h-.6991c-.061 0-.112-.0098-.1561-.0342-.0424-.0238-.0772-.0563-.1045-.0929-.0249-.0371-.04-.0719-.0423-.1027-.0024-.0301-.0024-.0841 0-.1595v-3.0497c0-.0621.0064-.1282.0226-.2002.0133-.0714.0447-.1363.0876-.1955.0441-.0575.0928-.1021.1468-.1341.0534-.0301.1108-.0504.1677-.0574l.0934-.0099c.0255-.0005.0459-.0133.0644-.0325.0157-.0209.025-.0458.0227-.076 0-.0261-.0117-.0481-.0296-.0632-.0169-.0139-.0447-.0226-.0784-.0255l-1.9937-.0018c-.033 0-.062.007-.0864.0226-.0209.0169-.0354.0401-.0435.072-.0052.0331.0006.058.0261.0789.0215.0203.0464.0296.0702.0296l.0957.0064c.0296.0029.0784.0255.1503.0673.0696.0441.119.0864.1538.1282.0331.0441.0557.1143.0719.2112.0122.0975.0192.1654.0192.2025v2.9308c-.0023.0928-.0134.1746-.0372.2442-.0209.0697-.0586.1254-.1119.1677-.0517.0418-.1062.0737-.1631.0998-.0534.0256-.0934.0401-.1201.0401l-.065.011c-.0226.0029-.047.0122-.0655.0249-.0215.0157-.0349.0343-.0395.0586-.0093.0447-.0023.0749.0226.0923.0256.0162.058.025.0958.0209h4.0662l.1329-1.3456c.007-.0841.0046-.1375-.0087-.1624-.011-.0232-.0354-.0372-.076-.0401ZM16.3184.551641C15.9007.516246 15.4812.5 15.0553.5h-.0534c-.4068.00058-.8106.018567-1.211.051641-.1549.012184-.3081.028431-.4612.046998V9.14893c0 .42299.3458.7688.7676.7688h1.808c.423 0 .7705-.34581.7705-.7688V.585294c-.1189-.012765-.239-.022049-.3574-.033653Zm2.0291.308683V9.9862c-.0302.318-.2808.5709-.5994.6029v.0023h-1.7424c-.3708 0-.6702.2994-.6702.6678v4.6813c0-.3533.2739-.6405.6203-.6643h3.3334c.0215.0017.04.0017.0609.0017.0209 0 .0418 0 .0633-.0017.2268-.0203.4201-.1584.5251-.3511.0006-.004.0023-.0052.004-.0098.0157-.0285.0279-.0604.0401-.0923.0046-.0186.0122-.0377.0157-.058.0046-.0134.0075-.0279.0075-.0441.0075-.0348.0099-.0673.0122-.1039V5.03625c3.9519 1.87937 6.6825 5.90505 6.6825 10.57005 0 5.8934-4.3581 10.7697-10.0281 11.5797v-6.563h2.6156c.0215.0017.0401.0029.061.0029.0209 0 .0417-.0017.0632-.0029.3383-.0325.6052-.3156.6052-.6644v-4.6894c0 .3708-.2988.6684-.6684.6684h-3.3451c-.3707 0-.6701.3-.6701.669v4.01h-.6685v-4.01c0-.369-.2988-.669-.6684-.669H10.653c-.3696 0-.67128-.2976-.67128-.6684v4.6889c.00522.3487.26918.6318.61038.6643.0186.0018.0395.0029.0609.0029.0192 0 .0412-.0017.0627-.0029h2.614v6.5636c-5.66949-.81-10.02586-5.6863-10.02586-11.5797 0-4.665 2.7294-8.69126 6.6773-10.57005v9.57555c0 .0023.0029.0023.0029.0046.00232.0366.00464.0691.00928.1039.00406.0163.00639.0308.01158.0441.0023.0203.0087.0395.0157.058.011.0319.0249.0633.04.0923.0006.0046.0024.0064.0047.0099.105.1926.297.3313.5262.351.0186.0017.0395.0017.061.0017.0191 0 .0412 0 .0626-.0017h3.3288c.3499.0238.6226.311.6226.6644v-4.6814c0-.3684-.2988-.6678-.6684-.6678H12.258l-.0041-.0023c-.3162-.0319-.5686-.2849-.5982-.60288V.883533C4.97838 2.42521 0 8.40623 0 15.5547c0 8.2955 6.71386 15.0239 15.0019 15.0535h.0534c8.3141 0 15.0541-6.74 15.0541-15.0535 0-7.18328-5.0295-13.19158-11.7619-14.694376Z"/>
</svg>