<svg xmlns="http://www.w3.org/2000/svg" viewBox="0 0 67 42">
	<path fill="#F58220" d="M41.2401 3.04199c.9376 5.20593-4.3762 15.27151-13.4145 24.62671-10.7104 11.0924-22.59088 16.9849-26.54302 13.17-1.773143-1.7134-1.647799-5.0985.00596-9.3133-1.092564 3.3551-.96722 6.0059.61488 7.3909C5.89143 42.4148 17.6407 36.6238 28.148 25.9791c8.5908-8.6984 13.6894-17.94014 13.0921-22.93711Z"/>
	<path fill="#fff" d="M13.4794 18.5759c0 .4239-.0596.806-.1731 1.1523-.1194.3462-.2806.6507-.4836.9134-.2089.2627-.4537.4895-.7403.6806-.2865.191-.6029.3463-.9433.4716-.3462.1254-.7104.2149-1.0984.2747-.38806.0597-.82391.0895-1.30151.0895H5.56306c-.20297 0-.37612-.0597-.5134-.1791-.13727-.1194-.20893-.3164-.20893-.5851V10.9939c0-.2686.07166-.4656.20893-.585.13728-.1195.31043-.1791.5134-.1791h2.99701c.72838 0 1.34922.0596 1.85673.185.5074.1254.9314.3105 1.2835.5553.3463.2507.615.5612.8001.9432.185.3821.2746.8298.2746 1.3433 0 .2866-.0359.5612-.1135.8179-.0716.2567-.179.4896-.3224.6985-.1432.2089-.3163.394-.5193.5552-.209.1612-.4418.2866-.7045.3881.3403.0596.6507.1672.9373.3223.2866.1553.5373.3523.7463.597.2149.2448.382.5254.5014.8538.1134.3164.1791.6806.1791 1.0865Zm-3.1343-5.0208c0-.2389-.0357-.4538-.1134-.6448-.0716-.191-.185-.3463-.33433-.4776-.14921-.1253-.33429-.2209-.55524-.2925-.22683-.0657-.52532-.1015-.90144-.1015H7.21682v3.0985H8.572c.35226 0 .6269-.0418.83583-.1254.20894-.0836.38209-.197.51944-.3403.13723-.1433.23873-.3105.31043-.5075.0717-.191.1074-.394.1074-.6089Zm.615 5.1044c0-.2746-.0478-.5254-.1374-.7403-.0895-.2208-.2268-.4-.4059-.5492-.1791-.1492-.406-.2627-.68057-.3403-.27463-.0776-.63882-.1195-1.08064-.1195H7.21682v3.3911h1.74919c.34033 0 .62093-.0358.85372-.1075.23287-.0716.42987-.1731.59707-.3104.1672-.1373.2985-.3104.394-.5135.1015-.2089.1493-.4477.1493-.7104Zm9.964 2.5433c0 .1791-.006.3283-.0239.4477-.0179.1195-.0358.215-.0716.2926-.0299.0716-.0717.1254-.1134.1611-.0478.0359-.0956.0478-.1493.0478h-5.988c-.203 0-.3761-.0597-.5134-.1791-.1374-.1193-.2089-.3164-.2089-.585v-10.394c0-.2686.0715-.4656.2089-.585.1373-.1195.3104-.1791.5134-.1791h5.9522c.0537 0 .1015.0179.1493.0477.0417.0299.0775.0836.1134.1612.0298.0776.0537.1731.0716.2925.0179.1194.0239.2747.0239.4538 0 .1731-.006.3164-.0239.4357-.0179.1195-.0358.215-.0716.2926-.0298.0716-.0657.1254-.1134.1612-.0419.0359-.0896.0478-.1493.0478h-4.2567v2.9134h3.6059c.0538 0 .1075.0179.1493.0477.0477.0358.0836.0836.1134.1553.0299.0716.0538.1671.0717.2865.0179.1194.0239.2687.0239.4358 0 .1791-.006.3284-.0239.4418-.0179.1194-.0359.209-.0717.2806-.0298.0717-.0716.1194-.1134.1493-.0478.0298-.0955.0477-.1493.0477h-3.6059v3.3612h4.2925c.0537 0 .1075.0179.1493.0478.0478.0357.0835.0895.1134.1612.0299.0716.0537.1731.0716.2925.0179.1313.0239.2806.0239.4597Zm8.1492-2.6269c0 .6269-.1193 1.1762-.3521 1.6478-.2329.4717-.5493.8657-.9493 1.1821-.4.3164-.8657.5552-1.403.7164s-1.1045.2388-1.7134.2388c-.412 0-.794-.0358-1.1463-.1015-.3522-.0657-.6627-.1492-.9373-.2447-.2686-.0956-.4955-.1971-.6746-.2986-.1791-.1015-.3104-.197-.394-.2746-.0777-.0776-.1373-.197-.1732-.3462-.0358-.1493-.0477-.3642-.0477-.6508 0-.191.006-.3523.0179-.4776.0119-.1314.0298-.2329.0597-.3104.0298-.0776.0656-.1374.1134-.1732.0478-.0358.1015-.0478.1613-.0478.0835 0 .2089.0478.3641.1493.1552.1015.3582.2149.603.3343.2447.1254.5372.2329.8776.3344.3403.1014.7343.1492 1.1821.1492.2925 0 .5612-.0358.794-.1075.2328-.0716.4299-.173.597-.2985.1612-.1313.2865-.2865.3761-.4776.0836-.191.1314-.4.1314-.6388 0-.2686-.0717-.5015-.221-.6985-.1492-.191-.3402-.3642-.5731-.5134-.2387-.1493-.5074-.2926-.8059-.4239-.2985-.1313-.609-.2746-.9314-.4179-.3224-.1492-.6268-.3164-.9313-.5015-.2985-.1851-.5672-.4119-.8059-.6746-.2389-.2627-.4299-.5672-.5732-.9254-.1492-.3581-.2209-.7821-.2209-1.2835 0-.5731.1075-1.0746.3164-1.5045.215-.4358.4956-.794.8598-1.0805.3581-.2866.782-.5016 1.2716-.6389.4895-.1433 1.0089-.2149 1.5521-.2149.2806 0 .5672.0239.8478.0656.2806.0419.5493.1015.7941.1732.2447.0717.4656.1552.6567.2508.191.0895.3164.1671.3761.2328.0597.0597.1015.1134.1254.1552.0238.0418.0417.1015.0537.1732.0179.0715.0239.1611.0298.2686.006.1075.012.2388.012.4 0 .1791-.006.3283-.012.4537-.0119.1254-.0238.2269-.0478.3045-.0238.0776-.0536.1373-.0895.1732-.0418.0357-.0955.0536-.1611.0536-.0657 0-.1732-.0417-.3225-.1313-.1492-.0836-.3283-.1791-.5432-.2806-.215-.1015-.4657-.191-.7463-.2746-.2806-.0836-.5911-.1253-.9313-.1253-.2627 0-.4955.0298-.6925.0955-.1971.0656-.3582.1551-.4956.2686-.1313.1135-.2328.2507-.2925.4119-.0656.1612-.0956.3284-.0956.5075 0 .2627.0717.4955.2149.6865.1434.1911.3404.3642.5792.5135.2447.1492.5194.2925.8238.4238.3046.1314.621.2747.9373.418.3225.1492.6329.3164.9374.5014.3044.1851.5791.412.8179.6747s.4358.5671.5791.9194c.1492.3642.2208.782.2208 1.2596Zm8.8299-7.3551c0 .1791-.0059.3284-.0235.4537-.0185.1254-.0362.2269-.0723.3045-.0294.0776-.0714.1314-.1134.1731-.0479.0359-.0949.0538-.1487.0538h-2.9858v9.6118c0 .0597-.0176.1194-.0596.1672-.0412.0478-.1075.0895-.1966.1193-.0899.03-.2151.0538-.3764.0717-.1554.0179-.3521.0299-.5849.0299-.2328 0-.4298-.012-.5851-.0299-.1552-.0179-.2805-.0417-.376-.0717-.0896-.0298-.1612-.0715-.1971-.1193-.0418-.0478-.0597-.1015-.0597-.1672v-9.6118H29.139c-.0596 0-.1134-.0179-.1551-.0538-.0419-.0358-.0777-.0955-.1135-.1731-.0298-.0776-.0537-.1791-.0716-.3045-.018-.1253-.0239-.2806-.0239-.4537 0-.185.0059-.3403.0239-.4716.0179-.1314.0358-.2329.0716-.3105.0299-.0776.0657-.1313.1135-.1672.0417-.0358.0955-.0477.1551-.0477h8.4063c.0538 0 .1075.0179.1487.0477.0479.0359.084.0896.1134.1672.0303.0776.0538.1791.0723.3105.0117.1313.0235.2866.0235.4716ZM12.3213 34.946c0 .191-.0059.3522-.0238.4776-.018.1253-.0419.2328-.0717.3104-.0359.0776-.0716.1373-.1253.1731-.0478.0358-.1016.0538-.1612.0538H5.53332c-.2149 0-.39998-.0657-.54927-.191-.1492-.1255-.22087-.3344-.22087-.6269V24.0266c0-.2866.07167-.4955.22087-.6268.14929-.1314.3284-.1911.54927-.1911h6.36408c.0598 0 .1135.0179.1553.0478.0478.0358.0836.0895.1194.1731.0358.0836.0597.1851.0716.3164.0179.1254.0239.2926.0239.4896 0 .1851-.006.3403-.0239.4657-.0179.1253-.0417.2328-.0716.3104-.0358.0776-.0716.1373-.1194.1732-.0477.0357-.1015.0536-.1553.0536H7.34225v3.1164H11.193c.0597 0 .1134.0179.1612.0538.0477.0358.0896.0896.1253.1671.0358.0776.0598.1791.0717.3045.0179.1254.0239.2866.0239.4657 0 .1911-.006.3462-.0239.4717-.0179.1253-.0418.2268-.0717.2984-.0357.0777-.0716.1314-.1253.1612-.0478.0359-.1015.0478-.1612.0478H7.34225v3.594h4.59705c.0596 0 .1134.0179.1612.0538.0477.0357.0894.0955.1253.173.0358.0776.0597.1851.0717.3105.0119.1373.0238.2985.0238.4896Zm7.4267-10.6746c0 .197-.0059.3642-.0238.4955-.0179.1374-.0418.2388-.0777.3224-.0358.0776-.0776.1373-.1253.1791-.0478.0418-.1015.0597-.1553.0597h-4.1671v3.4268h3.9104c.0597 0 .1135.018.1552.0478.0479.0358.0896.0896.1254.1672.0359.0775.0597.1851.0776.3164.0179.1313.024.2985.024.4955s-.0061.3642-.024.4955c-.0179.1314-.0417.2388-.0776.3224-.0358.0836-.0775.1492-.1254.1851-.0477.0358-.1014.0537-.1552.0537h-3.9104v4.7463c0 .0716-.0179.1372-.0596.185-.0419.0537-.1076.0956-.2091.1314-.1014.0357-.2328.0657-.3999.0836-.1672.0178-.3762.0298-.6329.0298-.2507 0-.4596-.012-.6268-.0298-.1672-.0179-.2985-.0479-.4-.0836-.1015-.0358-.1672-.0777-.209-.1314-.0417-.0537-.0656-.1134-.0656-.185V24.0266c0-.2866.0716-.4955.2209-.6268.1492-.1254.3283-.1911.5492-.1911h5.9999c.0598 0 .1135.0179.1553.0537.0477.0359.0895.0955.1253.1791.0359.0836.0598.1911.0777.3284.0179.1373.0238.3045.0238.5015Zm7.4269 0c0 .197-.006.3642-.0239.4955-.0179.1374-.0418.2388-.0776.3224-.0358.0776-.0776.1373-.1254.1791-.0477.0418-.1015.0597-.1552.0597h-4.1671v3.4268h3.9104c.0597 0 .1134.018.1552.0478.0478.0358.0896.0896.1254.1672.0358.0775.0597.1851.0777.3164.0178.1313.0238.2985.0238.4955s-.006.3642-.0238.4955c-.018.1314-.0419.2388-.0777.3224-.0358.0836-.0776.1492-.1254.1851-.0477.0358-.1015.0537-.1552.0537h-3.9104v4.7463c0 .0716-.0179.1372-.0597.185-.0418.0537-.1074.0956-.2089.1314-.1015.0357-.2329.0657-.4001.0836-.1671.0178-.3761.0298-.6328.0298-.2507 0-.4597-.012-.6269-.0298-.1671-.0179-.2984-.0479-.3999-.0836-.1015-.0358-.1672-.0777-.209-.1314-.0418-.0537-.0657-.1134-.0657-.185V24.0266c0-.2866.0717-.4955.2209-.6268.1493-.1254.3284-.1911.5493-.1911h5.9999c.0597 0 .1135.0179.1552.0537.0478.0359.0896.0955.1254.1791.0358.0836.0597.1911.0776.3284.0179.1373.0239.3045.0239.5015Zm12.1674 5.1641c0 1.0568-.1319 2.006-.394 2.8358-.263.8358-.657 1.5403-1.1703 2.1254-.5192.5791-1.1644 1.0269-1.9289 1.3313-.7637.3045-1.6475.4597-2.6563.4597-.991 0-1.8567-.1314-2.597-.388-.7403-.2568-1.3552-.6567-1.8448-1.1881-.4895-.5314-.8597-1.206-1.1104-2.0298-.2448-.8239-.3701-1.791-.3701-2.9134 0-1.0329.1313-1.9583.394-2.7822.2627-.8238.6507-1.5283 1.1701-2.1014.5194-.5791 1.1582-1.0208 1.9284-1.3313.7641-.3105 1.6537-.4657 2.6626-.4657.9676 0 1.8153.1254 2.5554.3821.7401.2567 1.3551.6507 1.8508 1.1821.4956.5313.8712 1.206 1.1224 2.0119.2621.812.3881 1.7672.3881 2.8716Zm-2.7228.1373c0-.6686-.0538-1.2776-.1554-1.8268-.1076-.5492-.2865-1.0209-.5369-1.4089-.2512-.3881-.5914-.6926-1.0089-.9075-.4184-.2149-.9435-.3224-1.5763-.3224-.6388 0-1.1701.1194-1.594.3582-.4299.2388-.7701.5612-1.0328.9612-.2627.4-.4478.8716-.5552 1.4029-.1075.5374-.1612 1.1045-.1612 1.7015 0 .6986.0537 1.3194.1552 1.8746.1074.5553.2806 1.0269.5314 1.4209.2506.394.585.6926 1.0029.9015.4179.209.9492.3105 1.5881.3105.6388 0 1.1697-.1194 1.594-.3523.4301-.2388.7704-.5552 1.0325-.9671.2629-.406.4478-.8836.5553-1.4209.1075-.5374.1613-1.1105.1613-1.7254Zm12.4538 6.0537c0 .0717-.0117.1313-.042.1851-.0235.0477-.089.0896-.1848.1253-.0958.0359-.2445.0538-.436.0717-.1907.0119-.4478.0179-.7763.0179-.2747 0-.4957-.006-.6628-.0179-.1672-.0119-.2924-.0358-.3873-.0717-.0958-.0357-.1613-.0835-.2033-.1372-.042-.0538-.0715-.1255-.1017-.203l-1.14-2.8477c-.1378-.3225-.2747-.609-.4058-.8598-.1319-.2507-.2747-.4596-.436-.6268-.1613-.1672-.3461-.2925-.5553-.3821-.2092-.0836-.4537-.1253-.7284-.1253h-.8057v4.8596c0 .0657-.0243.1253-.0663.1791-.0412.0537-.1135.0955-.2084.1254-.1016.0357-.2327.0597-.394.0776-.1672.0179-.3764.0298-.6335.0298-.2503 0-.4595-.0119-.6267-.0298-.1672-.0179-.2982-.0478-.3999-.0776-.1016-.0358-.1672-.0777-.2092-.1254-.0411-.0538-.0596-.1134-.0596-.1791v-11.588c0-.2866.0722-.4955.2209-.6268.1496-.1314.3285-.1911.5495-.1911h3.3016c.3344 0 .6091.006.83.0179.2143.012.4117.0299.5907.0478.5133.0716.9736.197 1.3853.3761.4116.1791.7578.406 1.0443.6926.2873.2865.5015.6268.6569 1.0148.1496.3881.2269.8418.2269 1.3434 0 .4298-.0538.8178-.1613 1.1701-.1076.3522-.268.6626-.4772.9432-.2092.2747-.4722.5134-.7763.7165-.3108.203-.6628.3701-1.0569.4955.1916.0895.3705.203.5377.3343.1672.1314.3218.2925.4713.4776.1496.1851.2865.4.4184.6388.131.2388.2562.5135.3814.812l1.0753 2.5133c.1009.2508.1672.4299.1966.5493.0303.1194.0479.2089.0479.2746Zm-3.3377-8.6506c0-.418-.095-.7762-.2865-1.0628-.1907-.2865-.5016-.4955-.9368-.6089-.1318-.0358-.2805-.0597-.4477-.0776-.1672-.0179-.3999-.0298-.6931-.0298h-1.1636v3.6178h1.319c.3705 0 .6922-.0417.967-.1313.2747-.0895.5074-.2149.6931-.3761.1848-.1612.3217-.3522.4116-.5791.0899-.2269.137-.4777.137-.7522Zm12.5916-2.7045c0 .191-.0059.3523-.0244.4895-.0177.1374-.042.2448-.0714.3225-.0361.0835-.0714.1432-.1252.185-.0479.0418-.1016.0597-.1613.0597h-3.1941v10.2746c0 .0656-.0235.1253-.0655.1791-.042.0537-.1134.0955-.2092.1253-.1017.0358-.2327.0598-.3999.0777-.1672.0178-.3764.0298-.6267.0298-.2512 0-.4596-.012-.6268-.0298-.1671-.0179-.299-.0479-.4007-.0777-.1008-.0358-.1672-.0776-.2083-.1253-.042-.0538-.0656-.1135-.0656-.1791V25.3281H48.954c-.0655 0-.1193-.0179-.1672-.0597-.0478-.0418-.084-.1015-.1193-.185-.0361-.0836-.0596-.1911-.0722-.3225-.0176-.1372-.0235-.2985-.0235-.4895 0-.197.0059-.3642.0235-.5015.0185-.1373.042-.2507.0722-.3284.0353-.0836.0715-.1432.1193-.1791.0479-.0358.1017-.0537.1672-.0537h8.985c.0597 0 .1134.0179.1613.0537.0471.0359.0891.0955.1252.1791.0353.0836.0597.1911.0714.3284.0244.1373.0303.3045.0303.5015Zm8.2381 7.8627c0 .6686-.1252 1.2597-.3755 1.7612-.2512.5074-.5856.9253-1.0149 1.2656-.4301.3404-.9258.5911-1.4987.7642-.573.1732-1.1821.2567-1.8332.2567-.4419 0-.8476-.0358-1.224-.1074-.3755-.0717-.7099-.1612-1.0023-.2627-.2873-.1015-.5318-.2089-.7225-.3224-.1915-.1135-.3343-.209-.4183-.2985-.0832-.0836-.1487-.209-.1849-.3702-.0361-.1611-.0537-.394-.0537-.6925 0-.203.0058-.3761.0176-.5134.0126-.1373.0361-.2508.0664-.3344.0294-.0835.0714-.1432.1193-.185.047-.0358.1075-.0537.173-.0537.0891 0 .221.0537.3882.1611.1671.1075.3814.2269.6443.3582.263.1314.5789.2508.9435.3583.3637.1074.788.1612 1.2652.1612.3167 0 .5973-.0359.8485-.1135.2504-.0776.4596-.1851.6326-.3224.1731-.1372.3041-.3104.3999-.5134.0899-.203.1369-.4298.1369-.6806 0-.2866-.0772-.5373-.2385-.7463-.1555-.2089-.3638-.388-.615-.5492-.2504-.1612-.5436-.3105-.8595-.4537-.3226-.1433-.6569-.2925-.9972-.4478-.3402-.1552-.6746-.3343-.9972-.5373-.3217-.203-.6082-.4418-.8594-.7164-.2504-.2806-.4596-.609-.615-.9911-.1554-.3821-.2386-.8357-.2386-1.3671 0-.6089.1135-1.1462.3403-1.6119s.5309-.8478.9132-1.1522c.3822-.3045.8359-.5314 1.361-.6866.52-.1493 1.0753-.2269 1.66-.2269.3041 0 .6032.0239.9074.0717.3049.0477.5855.1074.8476.1851.263.0776.4957.1671.699.2686.2025.1015.3402.1791.4058.2447.0655.0657.1075.1195.131.1672.0244.0478.042.1075.0597.1851.0185.0776.0302.1732.0361.2866.0059.1134.0118.2567.0118.4299 0 .191-.0059.3521-.0118.4835-.0118.1313-.0244.2388-.0479.3224-.0235.0836-.0538.1493-.1016.1851-.0412.0417-.1017.0597-.1731.0597s-.1848-.0478-.3461-.1374c-.1554-.0895-.352-.191-.5789-.2985-.2327-.1074-.4956-.2089-.8006-.2985-.3041-.0895-.6326-.1313-.9964-.1313-.2806 0-.5318.0358-.7401.1015-.2092.0716-.3881.1671-.5259.2866-.1428.1194-.2445.2686-.3159.4357-.0723.1732-.1016.3523-.1016.5433 0 .2806.0772.5255.2327.7344.1554.2089.3578.388.6208.5493.2571.1611.5553.3104.8838.4536.3285.1433.662.2925 1.0031.4478.3402.1552.6746.3344 1.0023.5373.3284.203.6208.4418.8779.7164.257.2806.4654.609.6208.9851.1613.4.2386.8478.2386 1.3552Z"/>
	<path fill="#F58220" d="M42.1718 22.0334h-2.4775v-8.6865c1.0569-.0537 1.8147-.0775 2.2801-.0775.8603 0 1.5231.1851 1.9944.5552.4713.3701.7049.8955.7049 1.588 0 .406-.1496.7701-.4478 1.1045-.2991.3343-.6334.5373-.9972.6209.6864.1671 1.1879.4417 1.5046.8238.3159.3821.4713.9075.4713 1.5642 0 .7642-.2806 1.3731-.8418 1.8269-.5612.4537-1.2895.6805-2.191.6805Zm-1.2954-7.7372v2.4955c.2503.0239.5553.0358.9249.0358 1.1224 0 1.6836-.4537 1.6836-1.3671 0-.8-.5133-1.206-1.5458-1.206-.394 0-.7527.0179-1.0627.0418Zm0 3.4149v3.3134c.4057.0418.7225.0597.9375.0597.7402 0 1.2829-.1373 1.6299-.4179.3402-.2806.5133-.7224.5133-1.3313 0-.5672-.1613-.9851-.4898-1.2537-.3285-.2687-.8712-.406-1.6357-.406l-.9552.0358Zm10.0116 4.3223-.5965-1.8328h-3.2302l-.6385 1.8328h-1.3257l3.5285-8.8059h.3167l3.2714 8.8059H50.888Zm-2.1667-6.5253-1.3433 3.8268h2.5792l-1.2359-3.8268Zm9.4026 6.6447-4.4896-6.3522v6.2327h-1.1282v-8.6865h.4713l4.3702 6.006v-6.006h1.1283v8.806h-.352Zm6.3227-.1195-2.4481-3.9939-1.1577 1.6417v2.3522H59.652v-8.6865h1.1888v4.7284l3.2235-4.7284h1.319l-2.5968 3.7672 2.9673 4.9193h-1.3072ZM42.3332 7.0484c-1.9104.54925-3.8989-.55521-4.4475-2.45968-.5495-1.90446.5553-3.898469 2.4657-4.447718 1.9104-.549249 3.8981.555219 4.4475 2.459678.5428 1.90447-.5553 3.89848-2.4657 4.44772Z"/>
</svg>