<svg xmlns="http://www.w3.org/2000/svg" viewBox="0 0 142 32">
	<g fill="#fff">
		<path d="M22.1608 0 0 16.8422v3.6344L22.1608 3.63437 33.2412 11.435V7.71195L22.1608 0Z"/>
		<path d="M0 22.3383v3.6344L22.1608 9.21911l11.0804 7.71199V13.208L22.1608 5.49609 0 22.3383Z"/>
		<path d="M0 27.8344v3.723l22.1608-16.8422 11.0804 7.712v-3.7231l-11.0804-7.7119L0 27.8344Z"/>
	</g>
	<path fill="#EC6608" d="M25.7065 24.2881h-7.1801v7.1801h7.1801v-7.1801Z"/>
	<path fill="#fff" d="M84.8314 18.1718h-.1772v-1.9501h-2.9253v1.9501h-.2659c-1.0637 0-2.1274.266-3.1025.7978-.8864.5319-1.5956 1.241-2.1274 2.1275-.5319.975-.7978 2.0387-.7978 3.1025 0 1.0637.2659 2.1274.7978 3.1025.5318.8864 1.241 1.5955 2.1274 2.1274.9751.5319 2.0388.7978 3.1025.7092h.1773v1.8615h2.9252v-1.8615c.7978 0 1.6842-.0887 2.482-.3546.7978-.266 1.507-.7092 2.1275-1.3297.5318-.5318.975-1.241 1.241-1.9501.2659-.7092.4432-1.5069.3545-2.3047 0-1.1524-.2659-2.2161-.7978-3.1912-.5318-.8864-1.241-1.6842-2.1274-2.1274-.8864-.5319-1.9501-.7978-3.0139-.7092Zm-4.6094 2.6593c.4432-.1773.7978-.2659 1.241-.1773h.1773v7.0915h-.0887c-.4432 0-.8864 0-1.3296-.1773-.4432-.1773-.7978-.4432-1.0637-.7091-.6205-.7092-.8864-1.5956-.8864-2.4821-.0887-.975.2659-1.9501.8864-2.6592.3546-.4433.7091-.7092 1.0637-.8865Zm4.4322 6.8255v-7.0028h.1772c.4433 0 .8865 0 1.3297.1773.4432.1773.7978.4432 1.0637.7092.6205.7091.8864 1.6842.7978 2.6593.0886.8864-.2659 1.8615-.8864 2.5706-.266.3546-.6205.5319-1.0638.7092-.4432.1772-.7977.2659-1.241.1772h-.1772Zm-30.9365-8.4211h-6.4709v2.8366h2.3933c1.4183-.0886 2.9252.3546 4.0776 1.241.5319.4432.8864.8865 1.1524 1.507.2659.6205.3545 1.241.3545 1.8615 0 .6205-.0886 1.3296-.3545 1.8615-.266.6205-.6205 1.1523-1.1524 1.5069-1.1524.8864-2.5706 1.3297-3.9889 1.3297h-5.4073V16.8422h9.5735v2.3933h-.1773Zm-6.4709 5.3186v4.5208h2.3933c.7092 0 1.3297-.1773 1.8615-.6205.266-.1773.4432-.4432.5319-.7978.0886-.2659.1773-.6205.1773-.8864 0-.2659 0-.6205-.1773-.8864-.0887-.2659-.2659-.5319-.5319-.7092-.5318-.4432-1.1523-.6205-1.7728-.6205h-2.482Zm21.8948.9751h-1.7729v5.9391h-3.0138v-5.9391H62.582l-3.1911 5.9391h-3.723l4.5208-7.8006-4.2549-6.8255h3.723l3.2798 5.8504h1.5069v-5.8504h2.9252v5.8504h1.507l3.1911-5.8504h3.723l-4.2548 6.7369 4.5208 7.8006h-3.8117l-3.1025-5.8505Zm36.9644-6.2937h-6.4712v2.8366h2.3052c1.507-.0886 2.925.3546 4.077 1.241.532.4432.887.8865 1.153 1.507.265.6205.354 1.241.354 1.8615 0 .6205-.089 1.3296-.354 1.8615-.266.6205-.621 1.1523-1.153 1.5069-1.152.8864-2.57 1.3297-3.989 1.3297h-5.4957V16.8422h9.5737v2.3933Zm-6.5598 5.3186v4.5208h2.3938c.709 0 1.329-.1773 1.861-.6205.266-.1773.443-.4432.532-.7978.089-.2659.177-.6205.177-.8864 0-.2659 0-.6205-.177-.8864-.089-.2659-.266-.5319-.532-.7092-.532-.4432-1.152-.6205-1.773-.6205h-2.4818Zm15.5128 5.9391c.088.3546.177.6205.266.9751h2.925v-.1773c-.355-.7091-.443-1.5069-.443-2.3047v-4.6981c0-.5319-.089-1.0637-.266-1.5956-.178-.5318-.532-.8864-.887-1.241-.886-.7091-2.038-1.0637-3.191-.975-.798 0-1.684.1772-2.393.4432-.621.2659-1.241.7091-1.684 1.3296-.355.5319-.621 1.1524-.621 1.7729h2.925c0-.1773 0-.3546.089-.5319s.177-.3546.355-.4432c.354-.2659.709-.3546 1.152-.3546.266 0 .443 0 .62.0887.178.0886.444.1773.532.3545.266.3546.443.7978.355 1.241v.4433h-1.33c-1.329-.0887-2.57.2659-3.634.8864-.443.2659-.798.7091-.975 1.1524-.266.4432-.355.975-.266 1.5069 0 .4432.088.8864.266 1.241.177.4432.443.7978.798 1.0637.709.6205 1.684.9751 2.659.8864.532 0 1.064-.0886 1.507-.2659.443-.0886.886-.4432 1.241-.7978Zm-.887-1.3296c-.354.1773-.797.2659-1.152.2659-.355 0-.709-.0886-1.064-.3546-.088-.0886-.266-.2659-.266-.4432-.088-.1773-.088-.3546-.088-.4432v-.1773c.088-.9751.886-1.5069 2.304-1.5069h1.064v1.8615c-.177.3546-.532.6205-.798.7978Zm15.07 2.3047h-2.926v-4.1662h-3.634v4.1662h-2.925V20.5652h2.925v4.3435h3.634v-4.3435h2.926v10.9031Zm5.141-3.9889h1.152l2.394 3.9889h3.811l-3.9-5.6732 3.546-5.1413h-3.635l-2.393 4.0776h-1.064v-4.0776h-2.925v10.8145h2.925l.089-3.9889Z"/>
</svg>