<svg xmlns="http://www.w3.org/2000/svg" viewBox="0 0 113 28">
	<path fill="#fff" d="M112.059 13.9555v-.1935h-5.032V14c0 4.9802-4.082 9.0198-9.1148 9.0198-5.0324 0-9.1153-4.0396-9.1153-9.0198 0-4.98018 4.0829-9.01982 9.1153-9.01982h.1502V0h-.1502c-7.8031 0-14.1464 6.27709-14.1464 14 0 7.7229 6.342 14 14.1464 14 7.8048 0 14.1468-6.2771 14.1468-14v-.0445ZM46.6887.506545l-9.1 26.986955h5.1978l1.0246-3.0266c.1502-.4327.4073-.7.9647-.7h8.316c.5575 0 .8273.2673.9635.7l1.0245 3.0266h5.1978l-9.1-26.986955h-4.4889Zm4.746 18.562755h-5.0183c-.5269 0-.8286-.3131-.6491-.8502l2.6371-7.8426c.2418-.69995.8285-.69995 1.0551 0l2.6065 7.8426c.196.5664-.1056.8502-.6325.8502h.0012Zm24.2569-2.3113c.4366.8349 1.1149.6567 1.1149-.2673V.505273h5.0159V27.4782h-6.0709L67.088 11.242c-.4365-.8349-1.1149-.6567-1.1149.2673v15.9842h-5.0158V.506545h6.3725L75.6916 16.7593v-.0013Zm-49.9443 5.0693V.506545h-5.0171V27.4935h16.1203v-4.7117H26.7273c-.1286.0077-.2573-.0115-.378-.0564-.1207-.0449-.2306-.1145-.3229-.2044-.0922-.0898-.1647-.1979-.2128-.3174-.048-.1195-.0706-.2476-.0663-.3763ZM17.9582 7.94691c0 2.28069-.9953 4.14529-2.7275 5.39639 2.0631 1.372 3.2989 3.6985 3.2989 6.3076 0 4.5322-3.2696 7.8426-7.6389 7.8426H0V.506545h10.3498c4.7015 0 7.6084 3.057095 7.6084 7.440365ZM5.72345 4.94964c-.43654 0-.70763.26854-.70763.7v5.12906c0 .4188.27109.7318.70763.7318h3.70746c1.86839 0 3.19459-1.4165 3.19459-3.28105 0-1.83272-1.311-3.27981-3.19459-3.27981H5.72345Zm.0611 18.04086h3.72018c2.21457 0 3.58657-1.5361 3.60177-3.5483 0-1.9829-1.3872-3.4886-3.5865-3.4886H5.78582c-.45309 0-.76873.3271-.76873.7891v5.488c0 .4455.33091.7598.76873.7598h-.00127Z"/>
</svg>