<svg xmlns="http://www.w3.org/2000/svg" viewBox="0 0 69 42">
	<path fill="#fff" d="M68.208 0H0v30.2398h68.208V0Zm0 32.0038H0V42h68.208v-9.9962Zm-20.664-8.484-9.24-12.18-.084 15.12h-4.788V4.03184h4.788L48.3 17.2198 58.38 4.03184h4.788V26.5438H58.38v-15.204l-9.24 12.18c-.42.504-1.176.504-1.596 0Zm-18.312-6.804v5.796c0 2.184-2.52 4.032-4.704 3.948H4.704V4.03184h23.1v4.032H9.66v4.61996h14.868c2.268 0 4.704 1.764 4.704 4.032Zm-7.14 5.796c1.092 0 2.016-.924 2.016-2.016v-2.268c0-1.092-.924-2.016-2.016-2.016H9.66v6.3h12.432Zm-15.96 13.944h4.284c.672 0 1.344.504 1.26 1.092v1.68c0 .672-.672 1.176-1.344 1.176H4.62v-6.468h6.72v1.176H6.132v1.344Zm3.612 2.856c.336 0 .588-.252.588-.588v-.672c0-.336-.252-.588-.588-.588H6.132v1.848h3.612Zm14.28-5.376h1.512l3.612 6.468h-1.512l-.924-1.596h-3.948l-.924 1.596h-1.428l3.612-6.468Zm.672 1.344-1.428 2.604h2.856l-1.428-2.604Zm14.952 1.428h4.872v-2.772h1.428v6.468H44.52v-2.772h-4.872v2.772H38.22v-6.468h1.428v2.772Zm20.664-2.772h2.436l-3.864 3.108 4.284 3.36h-2.436l-3.696-2.856v2.856h-1.428v-6.468h1.428v2.604l3.276-2.604Z"/>
</svg>