<svg xmlns="http://www.w3.org/2000/svg" viewBox="0 0 180 38">
	<g fill="#fff">
		<path d="M55.3001 18.0992c1.7-.4 2.8-1.6 2.8-2.9 0-2.1-2.5-3-4.8-3h-6.6l-.1.1c.1 1.4.2 4.8.2 6 0 1.2 0 5-.2 6.7v.1h6c3 0 6.1-.9 6.1-3.5 0-1.6-1.2-2.9-3.4-3.5Zm-3.7 5.6h-1.5c-.1-2.1-.1-4.6-.1-5.4 0-.9.1-2.9.1-4.6.3-.1.7-.1 1.2-.1 2.5 0 3.4.5 3.4 1.9 0 .4-.1.7-.3 1-.5.6-1.4.9-2.6.8h-.1l-.7 1.8h.7c1.4 0 2.6.4 3.2 1.2.3.3.4.8.4 1.2 0 1.4-1.3 2.2-3.7 2.2Zm21-11.6h-2.9l.1 3.3c.1 1.6.1 3.3.2 4.9-.2-.5-.4-.8-1.3-2.1 0 0-3-4.7-4.1-6.1h-3.4v.1c.1 1.4.2 4.8.2 6 0 1.2 0 5-.2 6.7v.1h3v-.1c-.2-3.1-.2-6.3-.2-9.4.1.4.2.7.7 1.4 0 .1 5.3 7.7 5.5 8.1v.1h2.4v-.1c-.2-1.7-.2-5.5-.2-6.7 0-1.2.1-4.7.2-6v-.2Zm9.2.1h-5.7v.1c.1 1.4.2 4.8.2 6 0 1.2 0 5-.2 6.7v.1h3.6v-.1c-.1-1.2-.2-3.5-.2-5.2h1.2c4.7 0 7-1.3 7-3.9 0-3-3.2-3.7-5.9-3.7Zm-1.4 6h-1V13.8992c.3-.2.7-.2 1.1-.2 1.7 0 2.9.3 3.4 1 .3.3.4.7.4 1.2 0 1.9-2.1 2.3-3.9 2.3Zm19.6999-6h-5.6999v.1h.1c.1 1.4.2 4.8.2 6 0 1.2 0 5-.2 6.7v.1h3.6v-.1c-.1-1.2-.2-3.5-.2-5.2h1.1c4.6999 0 7.0999-1.3 7.0999-3.9 0-3-3.3-3.7-6-3.7Zm-1.0999 6h-1V13.8992c.2-.2.6-.2 1-.2 1.6999 0 2.8999.3 3.3999 1 .3.3.4.7.4 1.2 0 1.9-2.1 2.3-3.7999 2.3Zm20.0999 6.9-5.7-12.9H111v-.1c-.7 1.9-5.1 11.3-5.7 12.8l-.1.2h3.1v-.1c.3-.9.6-1.9 1-3h5.1c.5 1.4 1 2.4 1.1 3v.1h3.6Zm-5.7-4.8h-3.5c.7-1.6 1.4-3.1 1.9-4.4.3.6 1 2.3 1.9 4.4h-.3Zm7.2-8c.1 1.4.2 4.8.2 6 0 1.2 0 5-.2 6.7v.1h3.6v-.1c-.2-1.7-.2-5.5-.2-6.7 0-.9 0-2.9.1-4.5.3 0 .7-.1 1-.1 1.7 0 2.9.3 3.4 1 .3.3.4.7.4 1.2 0 1.5-1.4 2.3-2.7 2.3h-1.1l.1.2c1.3 1.9 3.2 5.1 4 6.7v.1h3.9l-.1-.2c-.2-.2-2.7-3.9-3.7-5.5l-.1-.1c2-.6 2.9-1.7 2.9-3.4 0-3-3.2-3.7-6-3.7h-5.6.1Zm17.7-.2h-3.4v.1c.1 1.4.2 4.8.2 6 0 1.1 0 5-.2 6.7v.1h3.6v-.1c-.1-1.7-.2-5.5-.2-6.7 0-1.2.1-4.7.2-6l-.2-.1Zm12.1 6c1.7-.4 2.8-1.6 2.8-2.9 0-2.1-2.5-3-4.8-3h-6.6l-.1.1c.1 1.4.2 4.8.2 6 0 1.2 0 5-.2 6.7v.1h6c2.9 0 6.1-.9 6.1-3.5 0-1.6-1.2-2.9-3.4-3.5Zm-3.9 5.6H145c-.1-1.9-.1-4.5-.1-5.3 0-.9 0-2.9.1-4.6.4-.2.9-.2 1.3-.2 2.5 0 3.4.5 3.4 1.9 0 .4-.1.7-.3 1-.5.6-1.4.9-2.6.8h-.1l-.7 1.8h.7c1.4 0 2.6.4 3.2 1.2.3.3.4.8.4 1.2 0 1.4-1.3 2.2-3.8 2.2Zm21.9 1.4-5.8-13h-2.4v.1c-.7 2-5.3 11.9-5.7 12.7l-.1.2h3.1v-.1c.3-.9.6-1.9 1-3h5.1c.6 1.4 1 2.4 1.2 3v.1h3.6Zm-5.7-4.8h-3.5c.7-1.6 1.3-3.1 1.9-4.4.3.6 1 2.3 1.9 4.4h-.3Zm6.7-4.8c0 2.3 2.3 3.2 4.3 4 1.6.6 3.2 1.3 3.2 2.4 0 .3-.1.6-.2.8-.4.4-1.1.6-2.4.6-1.2 0-2.6-.4-4.1-1.1l-.6-.3v2.7l.4.1h.2c.8.2 2.2.5 3.7.5 3.8 0 6.1-1.5 6.1-4 0-2.4-2.3-3.3-4.4-4.1-1.5-.6-3.1-1.2-3.1-2.2 0-.3 0-1.1 2-1.1 1.5 0 2.9.6 3.7.9l.7.3v-2.8l-.7-.1c-.7-.1-2-.4-3.2-.4-3.4 0-5.6 1.5-5.6 3.8Z"/>
		<path d="M37.3 0H0v37.3h37.3V0Zm-2.1.599609c.7 0 1.3.700001 1.3 1.500001 0 0-.4001 9.09999-.4001 16.79999 0 7.9.4001 15.8.4001 15.8 0 .9-.6 1.5-1.3 1.5H2.89995c-.7 0-1.2-.7-1.3-1.5 0 0-.899999-6.9-.899999-17.3 0-10.39999.899999-15.29999.899999-15.29999.1-.8.6-1.500001 1.3-1.500001H35.2Z"/>
		<path d="M29.1001 9.79922c-2.3 1.39998-3 1.49998-5.5 2.99998 1.5-1.6 2-2.2 2.9-3.49998-2.3.1-5.7.4-8 .89998 2.1-1.09998 6.2-2.29998 8.4-2.59998-.5-.7-4.6-2.9-5.6-3.4 3.3.3 7.2 1.5 9.1 2.6.7-.3 1.4-.3 2.8-.4-.4.7-.4.9-1.8 1.9.4 1-.6 6.59998-1.3 8.09998.1-2.3-.2-5.3-1-6.59998Zm-16.9 20.09998c-1.3-.5-2.2-1-3.4-2.1.3-.8.7-1.6 1.2-2.4-1.1.2-1.9.3-2.8.5-.7-1.3-1.1-2.6-1.5-4.4-.2 1.9-.3 3.3 0 4.8-.7.3-1.4.5-2.1.7 1 .6 1.8 1 2.9 1.6.6 1.3 1.1 2.1 2.1 3.1-.2-.8-.3-1.5-.2-2.3 1.4.3 2.4.5 3.8.5Zm3.5-18.6c-.4.6-.9 1.5-1 2 3.5.5 6.2 2.2 6.2 2.2-3-.6-4.6-.5-5.7-.4-1.1.1-1.3.3-1.3.3-.8 1.8-1.3 4.8-1.3 4.8-.6-1.3-1.3-3.9-1.3-3.9-1.5.8-4.9 4.1-4.9 4.1 1.9-3.8 3.8-5.5 3.8-5.5-.7-.7-2.4-1-3.6-1 .7-.3 2.3-.6 3.6-.7h2.1c1-1.1 2.8-1.8 3.4-1.9Zm3.6 16.3c-.6.8-1.1 1.5-1.8 2.2-1.1.3-2.1.5-3.2.5.7.4 1.3.6 2.1.7-.7.7-1.3 1.1-2.1 1.6 1.2-.3 2.7-.7 3.8-1.5.6 0 1.1 0 1.6-.1-.1-.4-.2-.6-.3-1 1.1-.8 1.9-1.6 2.7-2.5-.9.7-1.8 1.1-2.9 1.7.1-.6.1-1 .1-1.6"/>
	</g>
</svg>