<svg xmlns="http://www.w3.org/2000/svg" viewBox="0 0 128 38">
	<g fill="#fff">
		<path d="M74.1 34.9c-.2 0-.4-.2-.6-.3-.1 0-.3-.4-.5-.6-.5-.9-1.4-1.8-1.9-2.6 0-.2 1.6-1.6 1.6-1.6.3-.3.7-.6.9-.7.2 0 .3-.2.6-.2.1 0 0-.2 0-.3H72c-.2 0 0 .2 0 .2h.2c.9.2-.2 1.1-.9 1.9-.3.3-.8.8-1.1 1 0 0-.1.2-.3.2 0 0-.1-.1-.1-.2v-2.1c0-.4 0-.8.5-.8.2 0 .3-.2 0-.2h-2.5c-.3 0 0 .3 0 .3.4 0 .5.1.7.2.1.1.2.4.2.6v4.2c0 .4-.1.6-.2.7 0 .1-.4.3-.5.3-.2 0-.1.2-.1.2h2.7s.1-.1 0-.2c0 0-.4 0-.6-.2-.3-.2-.1-1.5-.2-1.9 0-.4.6-.8.7-.8.6.8 1.5 2.1 2 2.8 0 0 .2.3.3.3h1.5s.1-.2-.1-.2ZM66.7 28.6h-2.2c-.1 0-.1.2 0 .2s.6.1.9.4c.2.2.1.5.1.8v3.2l-.2-.2-4-4.4h-1.1c-.4 0-.9-.1-.7.2.7 0 .9.7.9 1.2v3.6c0 .5 0 .6-.2.8-.1.1-.5.4-.6.4v.2h2.5c0-.2 0-.2-.3-.3-.6-.1-.9-.4-.9-1.2v-3.3c0-.2 0-.3.2-.2 1.4 1.5 3.3 3.6 4.7 5.1h.2v-5.2c0-.8.1-1.1.8-1.2v-.2ZM90.1 28.7h-4.8c-.2 0 0 .3 0 .3.6 0 1 .3.9 1v4.1c0 .7-.3.8-.7.9-.2 0-.1.1 0 .2h2.8s.1-.2 0-.2c-.4 0-.7-.2-.8-.3-.1-.1-.2-.3-.2-.5v-1.7c0-.1 0-.4.3-.4.4 0 1.1 0 1.4.3.1.1.2.3.3.6 0 0 0 .2.2 0v-2.1c0-.3-.2-.2-.3 0 0 .2-.2.4-.3.5-.3.4-.5.2-1.2.3h-.4V29.4H89c.1 0 .4 0 .5.2.1.1.3.4.3.6 0 0 0 .3.1.3 0 0 .2-.2.1-.3V29ZM118.6 28.7c-.2 0 0 .2 0 .2.3 0 .5.2.7.3.5.3.3 1.2.3 1.7V33c0 .4-.1.5-.5 0-1.1-1.2-3.7-4.1-3.9-4.2h-1.6c-.2 0 0 .2 0 .2.3.2.7 0 .8.7v4.1c0 .8-.4 1.1-.8 1.2-.1 0-.2.2-.1.2h2.5s0-.2-.2-.2c-.7 0-.9-.4-1-1.2v-3.3c0-.2.2-.3.3-.1.6.7 3.6 4 4.5 5 0 0 .2.1.2-.1v-5c0-.5 0-.8.2-1 .1-.1.4-.3.5-.3.1 0 .1-.2 0-.2h-2.1ZM111.9 34.8c-.1 0-.2-.3-.2-.7v-4.3c0-.2 0-.5.1-.7l.2-.1h.2s.2-.1 0-.2h-2.7c-.2 0 0 .2 0 .2.7 0 1 .3 1 1v4.2c0 .3 0 .5-.2.7 0 0-.1 0-.2.1h-.2s-.2.1 0 .2h2.6s.3-.1 0-.2c-.4 0-.5-.1-.7-.2ZM108.5 34.9c-.3 0-.4-.1-.5-.3-.1-.2-.2-.3-.2-.6v-4.3c0-.6 0-.8.6-.9.2 0 0-.2 0-.2h-2.7.1c.5 0 .9.1.9.7v1.6c0 .2-.2.4-.4.4h-2.7c-.2 0-.3-.2-.3-.3v-1.4c0-.4 0-.6.2-.7.1-.1.3-.2.5-.2 0 0 .1 0 0-.1h-2.6c-.5.1 0 .2 0 .2.2 0 .6 0 .7.2.3.3 0 4.3.1 4.7 0 .4 0 .6-.2.7 0 .1-.5.4-.5.4-.1 0-.1 0-.1.1h2.9s.2-.2 0-.2c-.4 0-.6-.1-.7-.2-.4-.3-.3-1.3-.3-1.7v-.7c0-.3 0-.4.2-.4H106.4c.2 0 .3.2.3.3 0 .7 0 1.9-.1 2.4-.1.2-.4.3-.4.3-.4.1 0 .3 0 .3h2.5c.2 0 .1-.2 0-.2ZM99.9 33.5c-1.9 2.3-4.7.9-4.7-1.9 0-3.3 3.7-3.5 4.6-.7 0 .1.2 0 .2 0v-1.8c-.1 0-.2-.3-.3-.2v.1c-.1.4-.6 0-.8 0-3.5-1.5-6.1 2.9-3.8 5.5 1.6 1.6 4.4.9 5.2-.8 0 0 0-.2-.3 0ZM18.1.5C8.1.5 0 8.6 0 18.6s8.1 18.1 18.1 18.1 18.1-8.1 18.1-18.1S28.1.5 18.1.5ZM3.9 18.6c0-7.1 5.2-13 12.1-14v6.7h-3c-2.2 0-3.6 1.6-3.6 3.9v7c0 2.2 1.8 3.9 4.1 3.9H16v6.7c-6.8-1-12.1-6.9-12.1-14.1Zm9.8 3.5s-.2 0-.3-.2v-6.3s0-.2.1-.3c.1-.1.3-.1.3-.1h8.8c.1 0 .2.4.2.4v6.2s0 .2-.1.2l-.2.1h-8.8Zm6.5 10.6V26h2.7c2.2 0 3.9-1.7 3.9-3.9v-7c0-2.2-1.8-3.8-4-3.8h-2.5V4.6c6.9 1 12.1 6.9 12.1 14.1s-5.3 13.1-12.1 14.1ZM119 8.7c.1.7.4 1.5 1 .6.9-.8 2.7-1.6 3.7-1.7.2 0 .3.2.4.1.2 0 .5-.2.7-.3.3 0 .7 0 .9-.2 0-.1 0-.4.1-.5.2-.1.2-.4.4-.5.6-.5-1.6 0-2.2.2-.8.2-1.6.5-2.3.8-.7.3-1.2.6-1.9.5 0 0-.1-.2-.2-.2-.5 0-.7.8-.6 1.1ZM73.1 6.7c.1.1.3.5.4.7s.1 0 .2 0h.1c.3-.1.5 0 .8 0 0 0 .1-.1.1-.2V7c.5-.3.6-1 .3-1.4-.1-.2-.5-.3-1-.6-.2-.1-.4-.3-.6-.2h-.8l-.2.2c-.1.1 0 .3 0 .4v1Z"/>
		<path d="M79.1 17.2c.2-2.4.4-5.4.2-8.4-.1-1.8-.8-4.1-1.1-4.9-.4-.9-1.2-2.2-1.9-2.6-.3-.2-.7-.3-1.1-.3H75c-.3 0-.6 0-.9.2-.5 0-.8.1-1.3.2-.2 0-.6.2-.9.2-.7.2-2.3.9-3.1 1.9-.4.6-1 1.1-1.2 1.7.1.2.3.6.3.9 0 .2.5.2.7.1.3 0 .4-.2.3-.5-.3-.6 0-1.4.5-1.9.7-1 3.5-1.8 4.7-1.8.4 0 .9 0 1.3.2.5.2 1.5 1.3 1.9 2.3.4 1.3.7 3.8.9 4.9s0 .2 0 .2c0 .2.1.4 0 .6 0 .1.1.2.1.3-.1.8 0 2.1 0 2.8v1.1c0 .1 0 .2-.1.3v2.4c0 .2-.1.4-.2.6-.1.5-.7.8-1 1.2 0 .1-.1.2-.2.2h-1.3c-.8-.2-1.2-.4-2.3-.4-.4 0-.8 0-1-.2-.2-.4.5-.2.8-.4h.6c.2 0 .3-.1.5 0h.7c.3 0 .6.2.9.1.2 0 .2-.3.4-.4.1-.1.2-.3.3-.7 0-.1.2-.3 0-.5 0 0-.1-.2-.2-.2H76c-.2.1-.6 0-.8.1-.2 0-.3.3-.4.3-.4 0-1.4.4-1.8.5-.3 0-.4.3-.6.2h-.5c-.2 0-.2 0-.4.1-.2 0-.5 0-.7.2h-.4c-.2 0-.6.2-.8.1-.1-.2.2-.3.3-.4 0 0 .2-.2.2-.3.4-.3.7-.4 1-.9.4-.3.9-.7 1.2-1.1.2-.2.4-.2.6-.5.2-.2.3-.4.6-.1 0 .1.6.8.8 1 .2.2.5.5.9.6h.1c.1 0 .2 0 .2-.1.5-.7.7-1.2.8-2.1.2-.7.3-1 .1-1.6 0 0-.1-.1-.2 0v.5c-.2.6-.5 1.8-1.1 2.3-.3.3-.9 0-1.2-.3-.1-.1-.4-.5-.5-.7 0 0 0-.2.1-.3.8-.8 1.6-1.9 2.3-2.8v-.8h-.1v-.2h-.2c-.4.5-.9 1.4-1.4 2-.3.4-.7 1-1 1.4v.1h-.2c-.1-.3.3-.6.5-.9 0-.1 0-.2.1-.4V12c0-.3-.2-.6-.4-.8-.4-.2-.4-.5-.6-.7-.1-.1-.2-.4-.4-.5s0 0-.1-.2c0-.1-.2-.1-.2-.2-.1-.2-.1-.4 0-.6 0-.1.1-.1.2-.2 0 0 0-.2.1-.3.1-.1.3-.2.3-.3 0-.2.2-.4.3-.6.1-.2 0-.3.2-.4 0-.1.1-.1.1-.2s0 0-.1-.2c0-.1-.1-.3-.2-.4h-.4c-.3.1-1 .4-1.2.5h-.3c-.1 0-.2-.2-.2-.3-.1-.4-.4-.8-.6-1.2l-.3-.3c-.1 0-.1.2 0 .3 0 .2.2.8.3 1 0 .3.2.6.2.8v.3c-.2.3-.6.7-.7 1 0 .2.2.3.4.2.3 0 .6-.4.8-.4V8.9h.1v.4c0 .3-.5.5-.6.8 0 0 0 .1-.1.2v.1H70c-.1 0 0 .2-.2.5v.2c0 .2 0 .6.2.6 0 0 .1 0 .1-.1.1 0 .3-.1.4-.2h.1c.1 0 .1.2 0 .3-.2.3-.4.3-.5.6-.1.3-.2.2-.4.4-.3.5-.8 1-1.1 1.6-.1.4-.4.5-.4.9v.3c-.1.3-.1.3 0 .4h.3c.7-.2 1.8-.8 2.5-1.3.5-.3.9-.7 1.4-1.1h.2v.3c0 .1-.7.7-1 1-.5.6-1.1 1.2-1.8 1.8-.6.5-.9 1-1.5 1.1h-1c-.1-.1-.2 0-.3.1v.1s0 .2-.2.2-.2-.2-.2-.4c0-.3 0-1.3-.1-1.6v-.6c-.2 0-.1.4-.3.4-.1 0-.1-.3-.1-.4v-3.6c0-.2-.1-.3 0-.4 0-.1 0-.3.1-.5 0-.3-.1-.1 0-.5V9.6c0-.4 0-.4.1-.8 0-.4 0-1 .2-1.5 0-.4.3-1.1 0-1.4h-.2c-.1.3-.4.6-.5 1 0 .3-.2 1.2-.4 1.6 0 .1-.2 1.2-.2 1.6 0 .4-.2 1.5-.2 1.6v.4c-.1.2 0 .4 0 .6 0 .3-.2.8 0 .9-.1.3 0 .7-.1 1v.5c-.1.2 0 .1 0 .7s.2 1.7.3 2.2c0 .3 0 1 .1 1.4 0 .4.8 1.3 1.5 1.1h.2c.2 0 .2-.3.2-.5s-.4-.3-.3-.5v-.8s0-.1.1-.1h.3c1 .3 4.8.3 5.7.8.8.4 2 .8 2.5 1.3.3.3.5.6.6.6.3-.1 1.2-1 1.6-1.3 1-.8 1.7-1.3 1.7-2.6ZM71.5 6.3c.3-.2.1 0 .2.2s0 0-.1.2c0 .3 0 .2-.3.4-.2.2-.2-.1-.3-.2 0-.4.2-.3.5-.4Zm.4 5.6c-.4.5-.6.4-1.1.7-.3.3-.5.2-.7.4-.1 0-.2.2-.3.1-.2-.1-.5-.2-.3-.5.2-.2.1 0 .3-.2v-.1c.2 0 .3-.2.4-.4v-.1c0-.2.2-.4.5-.6.2 0 .4-.3.6-.5 0 0 .1 0 .2.1 0 .1.2.4.3.5v.5Zm.6-.5h-.1c0-.1-.2-.3-.2-.4v-.3c-.2-.2-.2-.2-.1-.4 0-.2.2-.2.2-.3 0 0 .3.3.3.4 0 .2.2.3.2.4 0 .1 0 .2-.1.3ZM127.8 35c-.2 0-.4-.1-.5-.2-.2-.2-2.6-5.9-2.8-6.3h-.2s-2.3 5.3-2.8 6.2c-.1.2-.6.2-.6.5h2.3V35c-.1 0-.6-.2-.8-.3-.1 0-.2-.4-.1-.6 0-.1.3-1.1.5-1.2h2.3c.3.2.7 1.2.6 1.6 0 .3-.4.4-.6.4-.2 0 0 .2 0 .2h2.7V35Zm-2.9-2.5h-1.7c-.1-.2.7-2.1.9-2.2 0 0 .4.8.6 1.1.2.5.5 1 .4 1.1h-.1ZM58.6 34.7c-.2-.2-2.6-5.9-2.8-6.3h-.2c-.4.9-2.3 5.3-2.8 6.2-.1.2-.6.2-.6.5h2.4v-.2c-.1 0-.6-.2-.8-.3-.1 0-.2-.4-.1-.6 0-.1.3-1.1.5-1.2.2-.1 2.1 0 2.2 0 .3.2.7 1.2.6 1.6-.1.4-.8.5-.6.7h2.7v-.2c-.2 0-.4-.1-.5-.2Zm-2.3-2.3h-1.9c-.1-.2.7-2.1.9-2.2.2.2.4.8.6 1.1.1.3.5 1.1.4 1.1ZM50.3 31.5c1.1-.5 1.4-1.9.2-2.6-1-.5-3.4-.2-4.5-.3 0 0 0 .4.2.3.4 0 .8.3.7.8v4.4c0 .7-.3.7-.8.9v.2c1 0 3.6.1 4.5-.2.6-.2 1.1-.8 1.1-1.9s-.9-1.3-1.4-1.5ZM48 29.4c0-.6.8-.6 1.2-.5.6.2.9.7.9 1.3 0 1.1-.4 1.2-1.2 1.2 0 0-1 .1-.9-.3v-1.7Zm2.5 4.3c-.1.5-.5 1.1-1.4 1-.3 0-1.2-.1-1.1-.8v-1.6c0-.7.4-.6 1-.6 1.1.1 1.8.7 1.6 1.9ZM78.8 29.4c-1.5 1.3-1.4 4.4.4 5.4h.1c3.7 1.7 6.7-2.6 4-5.5-1.2-1.1-3.4-.9-4.6.1Zm3.9 4.7c-.9 1-2.3 1.1-3.1 0-.3-.3-.8-1.3-.8-2.4 0-1 .2-1.8.6-2.3.8-.8 2.3-.9 3.1.1.9 1 .9 3.6.2 4.5ZM104 19c.8-.2 1.6-.4 1.7-.5 0-.1-.2-.1-.3-.2-.3-.4-.6-.4-1.1-.6-.4-.1-.7-.2-.9-.3 0 0-.8 0-.8-.2s-.1-.2-.2-.1h-.2c-.4-.1-1.6-.5-1.8-.6-.1-.1-.1-.3-.1-.4.6-1 1.1-2 2-2.5.1 0 .3-.2.4-.2.2-.2.3-.6.2-.6-.3-.1-.8 0-1 .3-.5.5-1 1-1.4 1.1-.4.2-1 .5-1.2.5h-1.7c-.4 0-.9.2-1.2 0-.2-.1-.7 0-.9 0-.1 0-.2.2-.3.3-.1 0-.2-.1-.2-.2 0-.4 0-.8.2-1.2 0-.3.3-.8.3-1.1v-.7l.1-.1v-.2c0-.3.2-.7.3-.7.1-.1.3 0 .4 0 0 0 .1-.2.2-.3.1 0 .3-.2.4-.1.1 0 0 .3 0 .4-.4.5-.8 1.5-1.2 2 0 0 0 .1-.1.3v1.3c0 .1.1.2.2 0 .6-.5 1.8-1.1 2.3-1.3 1.3-.4.5-1.4 0-1.9 0 0-.1-.3 0-.4 0 0 .5-.9.6-1.3.1-.3.4-.8.4-.9.1-.3 0-.4 0-.7.2-.7.4-1.9.7-2.6.2-.9.8-1.5.6-2.3-.3-.6-.9.4-1.3.6-.6.4-1.3.8-1.9 1.4-.8.8-.4.6-.7.7h-.2c-.2-.2-.4-.3-.5 0V6c-.2.3-1.1 2.1-1.3 3.2-.1.6-.3 1.5-.4 2.4 0 .4-.2 1.2-.3 1.5-.3.9-.2 2.6-.5 3.3-.4.5-1.3 1.5-2.1 2.1-.4.4-1.8 1.3-2.2 1.3-.2-.2.1-.5.3-.5h.4c.1 0 0-.6.2-.7.5-.5 1.7-1.4 2-1.9.2-.3.9-.8.9-1.2-.3-.4-.5-.6-.9-.6h-.8c-.8.2-.3-.3.2-.6.2-.4.1-.8 0-1.2 0-.1 0-.5-.2-.5s0 .4-.1.5c-.2 0-.5.3-.6.4v.1c-.1 0-.3 0-.3-.1v-1c.1-.1.2-.2.3-.4 0-.1.2-.2.3-.3.2-.1.6-.2.7-.4v-.6c-.3-.1-.5-.6-.6-.8-.3-.4-1.1.3-1.5.6-.3.2-.6.4-.7.7 0 .2.3.6.5.8 0 .1.2.3 0 .4-.4.5-1.2 1.3-1.2 2 0 .3.3 1 .4 1.4 0 .1.2.1.3 0 .1 0 .3 0 .1.2-.5.4-.8.6-1.4 1.2-.3.3-.5.5-.9.7-.2.1-.5.3-.4.5.5 1.5 1.2.2 1.8-.4h.2c0-.5.7-1 1-1.2.1 0 .2 0 .2.2v.5s0 .2-.1.2c-.2.3-.7.3-1.1.3 0 0 .3.2.7.2.1 0 .3.2.2.2-.3.3-.8.9-1.1 1.1-.5.2-.3 1.6.1 1.5.6-.2 1.1-.3 1.6-.6.4-.2 1-.2 1.3-.5.3-.3.9-.6 1.1-.9.3-.4.8-.7 1-1 .1-.1.2-.2.4-.1.1 0 0 .8 0 1 0 .3 0 .9.2 1.1.2.4.7.8 1.1.9.4 0 .8.2 1.1.1.5-.2 1.2-.7 1.6-1.2.6-.3.6-.4 1.1-.9.1-.1.4-.3.4-.5.2-.2.2-.3.4-.3s1.2.8 1.7 1c1.1.3 1.9.4 3.1.2Zm-6-7.7v.5c-.2.2-.9.5-1.3.6-.1 0-.2 0-.2-.1 0-.2 0-.3.2-.4.2-.2.1-.5.4-.7.2-.2.2.4.5.2.2-.1.3-.6.5 0Zm-1.5-3.5v-.1c0-.2.2-.6.2-.8 0-.5.5-1.1.9-1.5.4-.5 1.9-1.4 1.9-1.4 0 .4-.5 2.1-.7 2.8 0 .2-.1.4-.2.7 0 .3-.3.2-.4.3-.1.3-1.3 1.1-1.5 1.3-.4.3-.4-.4-.4-.7 0-.2 0-.4.2-.5Zm-6.7 8.4v-.3c0-.1.6-.4.8-.5.2 0 1-.5.9 0 0 .2-1.1 1.3-1.5 1.7-.2 0-.3-.5-.2-.9Zm-1.1-2.1c0-.1 0-.2.1-.3.1 0 0-.2.2-.2.3 0 0 .7-.3.5Zm9.7 3.6c-.3.5-.8.6-1.5 1-.9.4-1.2 1.1-2 .6-.5-.5-.4-1.6-.4-2.3 0-.4 0-.9.3-1.4 0-.1.4.3.7.3.8.2 1.7.6 2.4 1 .2.1.8.4.5.7Zm1.1-1.7c-.2 0-.4-.2-.5-.2-.2-.1 0-.4.2-.4s.7-.2.9-.4c.1-.1.3 0 .2.2 0 .2-.4.5-.5.7 0 .1-.2.2-.2.1ZM91.6 7.7c.2-.3.8-.6 1.1-.7.2 0 .6 0 .6-.3 0-.5-.4-1.3-.8-1.5-.3 0-1 0-1.1.2v1.1c0 .3-.2.8-.3 1-.3.3.1.3.3.1Z"/>
		<path d="M85.5 14.5c.2-.5.9-1.8 1.2-2.4.6-1.4 1.7-3.7 2.5-4.9.5-.9 1-1.7 1.7-2.3.6-.7 1.4-.3 1.9-.9.2-.3 0-.5-.1-.7-.1-.1-.3-.4-.4-.6 0 0 0-.3-.3-.3-.1 0-.4-.2-.5-.3 0 0-.1-.1-.2 0-.2 0-1.2 1.6-1.4 2-.7 1.3-.9 1.6-1.5 2.8-.5 1.3-1.2 2.8-1.6 3.7-.4.7-1.2 2.7-1.8 3.3h-.3c-.3.1-.3.5-.4.8-.1.4.1.8.4 1 .2.1.4.1.5 0 .2-.4 0-.7.2-1.1ZM60 4.8c0-.1-.7 0-1-.1h-1.8c-.7 0-1.1.5-1.6.5-.2 0-.1-.4-.2-.7 0-.7-.9-1.6-1.3-2.1-.3-.3-1-1.1-1.3-1.3-.3-.3-.6-.2-.7-.1-.2.2-.6.7-.6 1.1v.8c.1.6-.2 1.3-.2 1.9 0 .6-.1.7-.1 1.5v.4s.1.1 0 .3v.4c-1 .8-2.5 1.8-3.5 2.5 0 0-.3-.4-.5-.5 0 0-.6-.5-.9-.9-.2-.2-.6-.9-.8-.9-.2 0-.3.4-.4.6 0 .3 0 1.6.3 2.2.2.5.8 2.9 2.2 3.8.6.4 1.6.9 2.2.8 0 0 .1-.2.2-.3 0-.3 0-.7.4-.7.2 0 .3.2.3.4 0 .5.2 2.8.3 3.7.1 1.1.3 1.6.4 2.6.1.9 0 1.8.9 2.1.1 0 .3-.2.3-.3 0 0-.3-.2-.4-.3-.1-.1-.1-.5-.3-.6 0 0-.1-.1-.2-.3-.1-.5-.2-1-.2-1.5 0-.6-.3-1.5-.2-2 0-.2 0-.3.2-.3s.1.2.2.4V19c0 .2.1 1.1 0 1.3 0 .3.2.4.2.6 0 .2-.1.3 0 .6.2.3.2.2.3.4 0 .1.2.1.2.2 0 .2 0 .3.2.3.1 0 .3-.3.4-.4h.3s0-.2.2-.2c.1 0 .3 0 .4-.2.3-.7 0-1.5 0-2.3 0-.2.2-.5.2-.7v-.2c0-.2 0-.2.1-.5 0-.6 0-.4.3-1 .1-.8.3-1.4.6-2.2.2-.5 0-1 .3-1.4.2-.3 0-.7.3-.9.2-.1.5 0 .7-.2.4-.2.3-.5.4-.8.1-.3.4-.5.4-.7 0-.3-.5-.1-.7-.3-.2-.2 1-1.3 1.2-1.7.6-.8.8-1.2 1.3-1.9.4-.5.8-2 .7-2.2Zm-9.3 6c0 .7-.1.7 0 1.2v.8c0 .2-.6.6-.8.7-.2 0 0-.2-.3-.4s-.3-.4-.5-.7c-.1-.2 0-.3-.3-.6-.2-.2-.2-.4 0-.6.1-.1.6-.4.8-.6.4-.3.5-.4.8-.6.5-.4.3.6.4.9Zm2.4 10.7c-.1 0-.3-.1-.4-.2-.2-.4-.2-.8-.1-1.3v-.6c0-.2.3-.5.3-.7 0-.3-.1-.9.2-1 .1 0 .2.2.2.3v.6c.1.9 0 1.1 0 1.5 0 .2-.2.7 0 1 0 .2.2.6-.1.5Zm5.1-15c-.2.7-2.1 3-2.6 3.4-.2.1-.3-.7-.2-.8 0-.3-.2-.7-.2-1.2v-.7c0-.1.5-.5.8-.6.4-.3.8-.7 1.3-.6.3 0 .7-.1.8 0 .1.2 0 .3 0 .5ZM127.7 9.7c-.5 0-.8 0-1.4.2-1.3.2-3.2.7-4.8 1.4-.8.4-1.7.9-2.5 1.3s-1 .3-1.6.6c-.2.1-.6.5-.4.8.1.2.3.2.5.3.1 0 .2 0 .3-.1.5-.3 1.3-.7 1.8-1 .7-.3 1.1-.8 1.9-.9 0 0 .2 0 .1.2 0 .2 0 .7-.1 1 .2 1.2 0 1.8 0 3.1 0 .5.1 1.3 0 1.8 0 .3-.4.9-.6 1-.3.1-.5 0-.9 0h-.2c-.8-.3-1.4-.3-2-.8-.2-.1-.3-.5-.6-.4-.2 0-.1.2 0 .3.8 1.2 2.7 1.5 3.3 2.8.2.7.6 1.5 1.5 1.2.2 0 .9-.8 1.4-1.3.1-.1.2-.7.2-1.1-.2-1.7-.8-3.9-.7-5.6 0-.5.1-1 .1-1.1 0-.2.2-.3.1-.4-.2-.2-.5-.4-.8-.7V12c.8-.4 2.9-.9 3.8-1 .1 0 .3.1.5 0 .1 0 .4-.3.5-.5.2-.2.5-.5.6-.5.1 0 .2-.1.1-.2 0 0-.2 0-.3-.1Z"/>
		<path d="m114.4 20.1.4.4c.3 0 .4 0 .5-.3.5-1.3.7-2.4 0-3.8-.3-.4-1.1-1-1.4-1.1-.2 0-.3-.3-.1-.5.4-.3 1.1-1 1.4-1.3.3-.3.4-.7.6-.8.3-.2.4-.5.7-.7.7-.6-.4-1.4-1-1.6-.7-.3-1.2-.2-1.4-.4-.2-.2 0-.3.1-.4.2-.1.7-.7 1-.9.7-.3 1.4-.8 2.1-1.1.3-.1.9 0 1.1-.4v-.1s0-.2.1-.3c.2-.4.4-.5.5-1l.1-.1v-1c0-.5-.1-.8-.2-1 0-.4 0-.6-.2-.9 0-.1-.1-.3-.2-.4-.3-.6-.6-1.3-.8-1.3-.3 0-.6-.1-1 0-.6.3-.6.6-.7.8-.6.6-2.1 2.9-2.9 3.8-.9 1.1-2 2.3-2.6 2.8-.2.2-.3.3-.5.4-.2.2-.2.5-.3.7-.2.4.4.6.6.8.2.3.5 0 .8.2.1 0 .2.2.4.3.2 0 1 0 1 .3 0 .2-.2.3-.3.4-.4.8-1.2 1.2-1.7 1.9-.7.7-.9 1.1-1.6 1.7-.1.1-.2.2-.2.3v.4c-.2.5.3 1.2.5 1.4.3.3.2.2.6.3.2 0 .3.3.6.2.1 0 .3-.1.5 0 .2 0 .3-.1.3-.3 0-.6.6-1 1.2-1.3.3-.1.9-.5 1-.4.3 0 .1.8 0 1 0 .3-.1.5-.2.9 0 .6-.3 1.5.3 1.8.3.3.6.4.9.6Z"/>
	</g>
</svg>