<svg xmlns="http://www.w3.org/2000/svg" viewBox="0 0 108 36">
	<path fill="#fff" d="M20.25 10.125c0 5.592-4.533 10.125-10.125 10.125C4.53296 20.25 0 15.717 0 10.125 0 4.53296 4.53296 0 10.125 0 15.717 0 20.25 4.53296 20.25 10.125ZM10.125 33.75C4.52802 33.75 0 34.118 0 34.4861v.7778C0 35.632 4.52802 36 10.125 36c5.597 0 10.125-.368 10.125-.7361v-.7778c.0313-.3681-4.528-.7361-10.125-.7361ZM0 26.4375v1.125c0 1.8644 4.53296 3.375 10.125 3.375 5.592 0 10.125-1.5106 10.125-3.375v-1.125c0-1.8644-4.533-3.375-10.125-3.375C4.53296 23.0625 0 24.5731 0 26.4375ZM60.1799 24.6572c-1.9984 0-3.6486-.635-4.9494-1.8742-1.3326-1.2712-1.9671-2.8598-1.9671-4.7978 0-1.938.6345-3.5266 1.904-4.7658 1.3321-1.2712 2.9503-1.9073 4.8543-1.9073 0 0 2.5378-.0318 4.188.9218l1.9671-3.04982S63.9872 7.4043 59.9579 7.4043c-3.236 0-5.9013 1.07995-7.9002 2.9553-2.0622 1.9699-3.1092 4.5121-3.1092 7.6256 0 3.0817 1.047 5.6239 3.141 7.6256 1.999 1.9062 4.6643 2.9554 7.8684 2.9554 4.0293 0 6.2189-1.7798 6.2189-1.7798l-1.9671-3.0498c-1.4283.8261-3.4904.9206-4.0298.9206Zm13.7691 3.5277h-4.188V7.81738h17.0376V28.1849h-4.1561V11.567H73.949v16.6179ZM43.9613 16.6823c-1.3645-1.2393-3.236-1.8743-5.6157-1.8743H33.967v-3.241h10.6288V7.81738H29.7791V28.1849h8.5665c2.3797 0 4.2512-.6042 5.6476-1.8435 1.3639-1.2711 2.0621-2.8597 2.0621-4.8296 0-1.9379-.6982-3.5584-2.094-4.8295Zm-3.1091 7.0224c-.6663.5087-1.5865.7943-2.8241.7943H33.967v-6.1644h4.0611c1.2058 0 2.1259.2856 2.7922.8262.6663.5405 1.0151 1.3029 1.0151 2.2873 0 .9855-.3488 1.7479-.9832 2.2566Zm65.0508-7.0224c-1.364-1.2393-3.236-1.8743-5.615-1.8743h-4.3789v-3.241h10.6289V7.81738H91.7211V28.1849h8.5669c2.379 0 4.251-.6042 5.647-1.8435 1.364-1.2711 2.062-2.8597 2.062-4.8296 0-1.9379-.698-3.5584-2.094-4.8295Zm-3.109 7.0224c-.666.5087-1.586.7943-2.8238.7943h-4.0611v-6.1644h4.0611c1.2058 0 2.1258.2856 2.7918.8262.356.2889.622.6416.791 1.0569.149.3625.224.7723.224 1.2304 0 .4109-.06.7822-.177 1.1129-.163.4637-.436.8471-.806 1.1437Z"/>
</svg>