<svg xmlns="http://www.w3.org/2000/svg" viewBox="0 0 150 32">
	<g fill="#fff">
		<path d="M50.1016 12.3677H46.382l-.8412 1.9084h-1.9794l4.0196-9.42063h1.3804l3.9001 9.42063h-1.9217l-.8392-1.9084h.001Zm-.5402-1.4899-1.3206-3.34056-1.3196 3.33956h2.6402v.001ZM35.0408 5.09466h6.4804v1.55068H36.781v2.08582h2.5196c.7196 0 1.6206.1196 2.3412.71555.5392.47635.899 1.19189.899 2.02699.005.6002-.1845 1.1859-.5402 1.6693-.7196 1.0135-1.8598 1.1331-2.6392 1.1331h-4.3206V5.09365v.00101Zm1.8 7.63184h2.1c1.4402 0 1.7402-.6568 1.7402-1.193 0-.5959-.3-1.2527-1.6804-1.2527h-2.1588v2.4446l-.001.0011Zm23.4599-4.05412h-3.9V5.09466h-1.8v9.18144h1.8v-4.1149h3.9v4.1149h1.8V5.09365h-1.8V8.67238Zm5.4608.29696 3.6-3.87468h2.1001l-3.6001 3.87468 3.7805 5.30676h-2.4011l-2.7598-3.9953-.7196.6558v3.2797h-1.8V5.09466h1.8v3.87468ZM92.7617 24.7691c0 2.8014-2.0413 4.8284-4.9207 4.8284-2.9392 0-4.9206-2.027-4.9206-4.8284 0-2.8024 2.0402-4.8294 4.9206-4.8294 2.8794.0598 4.9197 2.027 4.9197 4.8294h.001Zm-1.8609 0c0-1.8487-1.2598-3.1602-3.0608-3.1602-1.799 0-3.0588 1.3115-3.0588 3.1592 0 1.8486 1.2598 3.1601 3.0598 3.1601 1.7402.0598 3.0609-1.2517 3.0609-3.1591h-.0011Zm4.9795-.7156 3.6-3.8757h2.0997l-3.5997 3.8757 3.7807 5.3058h-2.4003l-2.7598-3.9943-.7196.6558v3.2787h-1.8011v-9.1804h1.8001v3.9344ZM34.981 20.1778h1.8v7.6318h3.9v-7.6318h1.8v7.6318h1.1392v3.0994h-1.6196v-1.5507H34.981v-9.1805Zm12.3598 1.5507h5.1588v-1.5507h-6.9588v9.1815h6.9598v-1.5507h-5.1598v-2.5034h4.5598v-1.5506h-4.5608v-2.0271l.001.001Zm72.3602 0h-5.16v2.0271h4.621v1.5496h-4.621v2.5034h5.16v1.5507h-6.96v-9.1815h6.96v1.5507Zm-58.9199 2.0271h-3.9v-3.5778h-1.8v9.1815h1.8v-4.1139h3.9v4.1139h1.8v-9.1815h-1.8v3.5778Zm8.5196-2.0271v7.6308h-1.8v-7.6318h-3v-1.5497h7.6794v1.5507h-2.8794Zm77.8203 7.6308v-7.6318H150v-1.5497h-7.679v1.5507h3v7.6308h1.8Zm-68.7594-9.1815c1.0196 0 1.7392.1196 2.4598.7156.7196.6557.9598 1.5507.9598 2.2064 0 .3568-.0608 1.3703-.7804 2.0271-.5392.5361-1.2598.8341-2.3392.8341h-2.5804v3.3983h-1.8v-9.1815h4.0804Zm-2.3412 4.2335h2.1608c.3598 0 .7804 0 1.2-.298.3598-.2392.4804-.6567.4804-1.0743 0-.5361-.2402-.8341-.5402-1.0723-.3598-.2382-.8402-.298-1.2598-.298h-2.0402v2.7426h-.001Zm34.2016-3.5179c-.721-.596-1.441-.7156-2.461-.7156h-4.08v9.1815h1.8V25.961h2.58c1.08 0 1.8-.298 2.34-.8341.721-.6568.78-1.6703.78-2.0271 0-.6567-.18-1.5507-.959-2.2064Zm-2.641 3.5169h-2.159v-2.7416h2.039c.42 0 .9.0598 1.261.298.3.2382.539.5372.539 1.0733 0 .4166-.12.8341-.48 1.0723-.42.299-.84.299-1.2.299v-.001Zm22.02 3.3993v-7.6318h-6.66v3.9355c0 1.3115-.18 1.9663-.36 2.4436-.3.7156-.84 1.2527-1.5 1.2527v3.0994h1.68v-1.5507h6.12v1.5507h1.68v-3.0994h-.96Zm-5.22-1.0743c.18-.4165.3-1.1321.3-2.5632h.06v-2.4446h3.12v6.0811h-4.2c.24-.2381.54-.5361.72-1.0723v-.001Zm9.66-6.5575v6.1997l5.1-6.379h1.26v9.4196h-1.8v-6.2595l-5.1 6.3791h-1.26v-9.3599h1.8Z"/>
		<path d="M0 27.2093V.5h26.8805v5.18719h-5.5206L10.2001 27.2093H0ZM1.68041 25.54h7.55984L20.3403 4.01691h4.8598V2.16927H1.68041V25.54Z"/>
		<path d="M3.71948 30.7886v-5.247h5.51963L20.2804 4.01953h10.2598V30.7876H3.71948v.001Zm25.97952-.8351v-.8352.8352Zm-23.3991-.8352h22.5599V5.6888H21.299L10.2597 27.1511H5.33909v1.9672h.96081Z"/>
	</g>
</svg>