<svg xmlns="http://www.w3.org/2000/svg" viewBox="0 0 119 40">
	<g fill="#fff">
		<path d="M27.8029.779056c-1.3782.265014-2.4913 1.653314-2.2312 3.280694-3.7075-1.30269-8.4575-1.05508-11.7793-.42061-.745.14601-1.4196.30551-1.998.47675-.1669.04902-.1669.21172-.0207.24227 5.1025 1.17232 7.0681 3.79901 11.0298 4.44591-2.8183 3.92653-2.6995 8.86553-2.3476 10.04673.0688.2846 1.3786 2.031 2.16 2.729.087.0742.204.1002.3085.0803.1487-.0281.2815-.1482.277-.3087-.0936-4.5681.4593-7.5469 1.8928-8.0659.9165-.3297 1.3488-.4532 1.6137-.5403 3.8429-1.2118 3.5389-5.88503 3.4884-7.57352-.073-2.74997 1.2778-3.49491 2.4092-3.7102l5.596-1.071419c.4986-.095206.7773-.037656.926-.065366l.0388-.033748C39.1453.161637 38.9676.00639443 38.583 0h-.0484c-.1065.00177623-.2279.0142099-.3649.0408533L32.3864 1.14674c-.7706.14742-1.4062.18686-1.591.1357-.3776-.10764-1.7581-.736781-2.9925-.503384Z"/>
		<path d="M118.069 38.5253h-.626v-1.5764h-.79l-.878 1.5764h-.709l.919-1.5986c-.344-.0682-.836-.4139-.836-1.0511 0-.7064.506-1.09 1.342-1.09h1.578v3.7397Zm-.626-3.2175h-.973c-.454 0-.696.2003-.696.5728.001.3883.242.5729.696.5729h.973v-1.1457Zm-5.529-.5222h-.62v3.7397h.651l1.82-2.7993h.01v2.7993h.628v-3.7397h-.654l-1.815 2.7989h-.02v-2.7989Zm-3.888 0h-.623v3.7397h.623v-1.7097h1.732v1.7097h.623v-3.7397h-.623v1.5068h-1.732v-1.5068Zm-4.578 1.1375c0-.8975.61-1.2446 1.527-1.2446.296 0 1.372.0868 1.372 1.0475v2.1325c0 .1578.081.2357.209.2357.053 0 .129-.014.198-.0268v.459c-.102.027-.196.0681-.335.0681-.552 0-.631-.2893-.659-.571-.244.2621-.614.6074-1.341.6074-.677 0-1.155-.4302-1.155-1.0824 0-.4428.111-1.1025 1.418-1.2.973-.0796 1.044-.1553 1.044-.5446 0-.4093-.277-.6015-.865-.6015-.711 0-.803.4383-.84.7207h-.573Zm2.278.6936c-.099.0783-.252.1325-1.026.2328-.308.0429-.799.1297-.799.6004 0 .4086.217.6586.682.6586.581 0 1.143-.375 1.143-.8782v-.6136Zm-6.085-1.8311h1.689c.82 0 1.211.4386 1.211.9575 0 .4411-.301.7104-.622.8018.39.0936.842.3475.842.9889 0 .5965-.479.9915-1.362.9915h-1.758v-3.7397Zm.629 1.5476h.903c.541 0 .746-.1568.746-.5643 0-.2968-.185-.4611-.732-.4611h-.917v1.0254Zm0 1.6703h1.113c.483 0 .751-.1657.751-.5818 0-.4036-.307-.5943-.813-.5943h-1.051v1.1761Zm-3.0519-3.325c1.1849 0 1.7179 1.0121 1.7179 1.9722.0008.9621-.533 1.9802-1.7179 1.9802-1.1875 0-1.7179-1.0181-1.7179-1.9802 0-.9601.5304-1.9722 1.7179-1.9722Zm0 3.4089c.8914 0 1.0786-.9321 1.0786-1.4367 0-.5011-.1872-1.4261-1.0786-1.4261-.8889 0-1.0812.925-1.0812 1.4261 0 .5046.1923 1.4367 1.0812 1.4367Zm-5.4633-3.3018h.582v.5293c.2057-.3014.4756-.6364 1.125-.6364.98 0 1.5332.8089 1.5332 1.8672 0 .8927-.3483 2.0852-1.6125 2.0852-.4959 0-.8307-.2389-1.0044-.5435v1.9125h-.6233v-5.2143Zm.6233 1.8604c0 .8135.3196 1.4414.996 1.4414.3955 0 .9842-.2693.9842-1.2654 0-.6143-.0667-1.5757-.9615-1.5757-.9656-.0003-1.0187.9115-1.0187 1.3997Zm-4.0144-1.8604h-.6257v3.7397h.6485l1.82-2.7993h.0143v2.7993h.6232v-3.7397h-.6536l-1.8157 2.7989h-.011v-2.7989Zm-1.2431 1.259c-.0531-.6503-.4157-1.3661-1.3907-1.3661-1.2203 0-1.7718.9268-1.7718 2.0804 0 1.0789.6173 1.872 1.6521 1.872 1.0896 0 1.4455-.8356 1.5104-1.4267h-.603c-.1045.5725-.4638.8832-.8846.8832-.8544 0-1.0095-.7914-1.0095-1.4367 0-.6629.2445-1.4047 1.0187-1.4044.5221 0 .7945.2972.8754.7983h.603Zm-6.2281-1.259h-.6233v3.7397h.6233v-1.7097h1.7305v1.7097h.6233v-3.7397h-.6233v1.5068h-1.7305v-1.5068Zm-4.5811 1.1375c0-.8975.6148-1.2446 1.5324-1.2446.2951 0 1.3721.0868 1.3721 1.0475v2.1325c0 .1578.0784.2357.2024.2357.0574 0 .1349-.014.2058-.0268v.459c-.108.027-.1982.0681-.3416.0681-.5524 0-.6283-.2893-.6561-.571-.2471.2621-.6165.6074-1.3401.6074-.6789 0-1.1571-.4302-1.1571-1.0824 0-.4428.1131-1.1025 1.4186-1.2.9749-.0796 1.0415-.1553 1.0415-.5446 0-.4093-.2724-.6015-.8611-.6015-.7075 0-.8028.4383-.8442.7207h-.5726Zm2.2779.6936c-.097.0783-.2496.1325-1.0188.2328-.3095.0429-.802.1297-.802.6004 0 .4086.2176.6586.6797.6586.582 0 1.1411-.375 1.1411-.8782v-.6136Zm-5.5256-1.8311h-.6233v3.7397h.6233v-1.7097h1.7347v1.7097h.6216v-3.7397h-.6216v1.5068h-1.7347v-1.5068Zm-4.0152 0h-.6275v3.7397h.6553l1.8157-2.7993h.0144v2.7993h.6241v-3.7397h-.6545l-1.814 2.7989h-.0135v-2.7989Zm-3.6846-.8611c1.5939 0 2.3656.9904 2.3656 2.0372 0 1.0443-.7649 2.0346-2.3656 2.0346v.529h-.6789v-.529c-1.599 0-2.3606-.9903-2.3606-2.0346 0-1.0468.7692-2.0372 2.3606-2.0372v-.5303h.6789v.5303Zm-.6789 3.5254v-2.9821c-.9513 0-1.6564.4386-1.6564 1.4939 0 1.0525.7051 1.4882 1.6564 1.4882Zm.6789-2.9821v2.9821c.9572 0 1.6563-.4357 1.6563-1.4882 0-1.0553-.6991-1.4939-1.6563-1.4939Zm48.7201-7.5103c1.183 0 1.718 1.0117 1.718 1.9753.001.9589-.535 1.9775-1.718 1.9775-1.183 0-1.716-1.0186-1.716-1.9775 0-.9636.533-1.9753 1.716-1.9753Zm0 3.4089c.89 0 1.084-.9332 1.084-1.4336 0-.5046-.194-1.4317-1.084-1.4317-.891 0-1.079.9271-1.079 1.4317.001.5004.188 1.4336 1.079 1.4336Zm-4.454-3.2993v3.7368h.626V27.59h1.788v-.5229h-2.414Zm-2.426-.1096c1.186 0 1.721 1.0117 1.721 1.9753 0 .9589-.535 1.9775-1.721 1.9775-1.185 0-1.716-1.0186-1.716-1.9775 0-.9636.531-1.9753 1.716-1.9753Zm0 3.4089c.892 0 1.08-.9332 1.08-1.4336 0-.5046-.188-1.4317-1.08-1.4317-.89 0-1.078.9271-1.078 1.4317 0 .5004.188 1.4336 1.078 1.4336Zm-4.783-3.2993h-.624v3.7368h.624v-1.7122h1.729v1.7122h.631v-3.7368h-.631v1.5018h-1.729v-1.5018Zm-4.4481 0h1.6841c.823 0 1.215.435 1.215.9521 0 .4462-.3.7122-.625.8069.395.0892.843.3449.843.9867 0 .5961-.478.9911-1.3604.9911h-1.7567v-3.7368Zm.6266 1.5425h.9057c.5378 0 .7418-.1536.7418-.5621 0-.2958-.183-.4575-.73-.4575h-.9175v1.0196Zm0 1.6743h1.1157c.4828 0 .7488-.1657.7488-.5829 0-.4032-.31-.5943-.8137-.5943h-1.0508v1.1772Zm-4.0194-3.2168h-.6241v3.7368h.6536l1.8166-2.8011h.0134v2.8011h.6233v-3.7368h-.6511l-1.8157 2.7965h-.016v-2.7965Zm-4.2345 0v.5229h1.2195v3.2139h.6266V27.59h1.2195v-.5229h-3.0656Zm-3.5438 1.1378c0-.8992.6098-1.2467 1.5316-1.2467.2934 0 1.3746.0857 1.3746 1.0457v2.135c0 .1568.0734.2357.2024.2357.0565 0 .1324-.0164.2041-.0307v.46c-.1062.0246-.1965.07-.3373.07-.5541 0-.6334-.2897-.6578-.5704-.2454.2607-.6199.6068-1.341.6068-.6789 0-1.1579-.4303-1.1579-1.0832.0009-.4428.1147-1.1028 1.4168-1.2003.975-.0797 1.0466-.1547 1.0466-.5451 0-.4082-.2766-.5982-.8635-.5982-.7101 0-.8088.4336-.8434.7214h-.5752Zm2.2821.6886c-.0995.0782-.2513.1383-1.028.234-.307.0435-.797.1278-.797.601 0 .4104.2193.6593.6815.6593.5827 0 1.1435-.375 1.1435-.8757v-.6186Zm-6.207-1.8264h.5827v.5261c.2025-.3046.4748-.6357 1.12-.6357.9842 0 1.5366.8064 1.5366 1.8682 0 .8925-.3492 2.0846-1.6125 2.0846-.4993 0-.8256-.2418-1.0027-.5439v1.9143h-.6241v-5.2136Zm.6241 1.8557c0 .8132.3162 1.4436.9977 1.4436.3904 0 .9799-.2707.9799-1.2668 0-.6153-.0632-1.5764-.9664-1.5764-.9648 0-1.0112.9104-1.0112 1.3996Zm-3.0521-1.9653c1.1883 0 1.7187 1.0117 1.7187 1.9753 0 .9589-.5304 1.9775-1.7187 1.9775-1.1824 0-1.7188-1.0186-1.7188-1.9775 0-.9636.5364-1.9753 1.7188-1.9753Zm0 3.4089c.8939 0 1.0812-.9332 1.0812-1.4336 0-.5046-.1873-1.4317-1.0812-1.4317-.8889 0-1.0787.9271-1.0787 1.4317 0 .5004.1898 1.4336 1.0787 1.4336Zm-5.4076-3.2993v3.7368h.6258V27.59h1.7331v3.2139h.6232v-3.7368h-2.9821Zm-3.9443 0h.5827v.5261c.2016-.3046.4731-.6357 1.1208-.6357.9817 0 1.5341.8064 1.5341 1.8682 0 .8925-.3517 2.0846-1.61 2.0846-.4992 0-.8323-.2418-1.0078-.5439v1.9143h-.6198v-5.2136Zm.6198 1.8557c0 .8132.3188 1.4436.9977 1.4436.3939 0 .9825-.2707.9825-1.2668 0-.6153-.0632-1.5764-.9614-1.5764-.9656 0-1.0188.9104-1.0188 1.3996Zm-3.0495-1.9653c1.1857 0 1.7187 1.0117 1.7187 1.9753 0 .9589-.533 1.9775-1.7187 1.9775-1.1849 0-1.7162-1.0186-1.7162-1.9775 0-.9636.5313-1.9753 1.7162-1.9753Zm0 3.4089c.8939 0 1.0812-.9332 1.0812-1.4336 0-.5046-.1873-1.4317-1.0812-1.4317-.8889 0-1.0812.9271-1.0812 1.4317 0 .5004.1923 1.4336 1.0812 1.4336Zm-5.3941-4.6925h-.6831v5.13h.6831V29l.7995-.7686 1.7837 2.5725h.8914l-2.1758-3.0618 2.1176-2.0682h-.9487l-2.4677 2.4864v-2.4864Zm12.2396-6.3303h-.6241v3.7361h.6241v-1.4111l.5262-.4953 1.2009 1.9064h.7422l-1.4995-2.3468 1.4135-1.3893h-.7903l-1.593 1.6243v-1.6243Zm-3.8331.0007h-.6283v3.7354h.6283v-1.7086h1.728v1.7086h.6267v-3.7354h-.6267v1.5043h-1.728v-1.5043Zm-4.5254 1.1361c0-.8982.6098-1.244 1.5273-1.244.2952 0 1.3738.0855 1.3738 1.0469v2.1324c0 .1579.0768.2347.2058.2347.0557 0 .1341-.0136.2041-.03v.4593c-.1037.0314-.1973.0717-.3382.0717-.5541 0-.6308-.2892-.6603-.5735-.2454.2643-.6174.6114-1.3376.6114-.6814 0-1.1554-.435-1.1554-1.0846 0-.4454.1113-1.1015 1.4118-1.1979.98-.0797 1.0466-.1557 1.0466-.5471 0-.4093-.2724-.6004-.8636-.6004-.705 0-.8046.4393-.8391.7211h-.5752Zm2.2779.6929c-.0995.0785-.2496.1331-1.0238.2314-.307.0421-.7987.1289-.7987.6003 0 .4107.2193.6585.6831.6585.5803 0 1.1394-.3735 1.1394-.8753v-.6149Zm-3.2612-3.2211v.6117h-2.8978v1.5072h1.6589c1.1065 0 1.5273.8535 1.5273 1.5682 0 .8275-.587 1.4404-1.5088 1.4404h-2.3605v-5.1275h3.5809Zm-2.8978 4.5146h1.4767c.5651 0 1.0002-.1915 1.0002-.8353 0-.6918-.4351-.9479-1.0491-.9479h-1.4278v1.7832Zm-26.5334-4.6289h-4.5601l-9.0882 9.3896V21.976c-.141.1076-.3047.1772-.4641.2073-.046.0092-.1063.0156-.1778.0156h-.0071c-.2265 0-.4758-.0757-.6788-.2571-.7997-.7193-1.86-2.0972-2.2459-2.7414 0-.0054 0-.0083-.0067-.0089v19.3477h3.5804v-6.95l2.941-2.9635 6.7549 9.9135h4.4675L28.516 26.0946l8.2238-8.2567Zm11.8506 5.1443v10.0917c3.1443-.3775 5.2556-1.6007 5.2556-4.9729.0003-3.3735-2.1417-4.7995-5.2556-5.1188Zm-3.6059 0c-3.1138.3193-5.251 1.7453-5.251 5.1188 0 3.3722 2.1066 4.5954 5.251 4.9729V22.9822Zm3.6059 13.2342v2.3228h-3.6059v-2.3228c-4.3847-.0926-8.8569-2.7086-8.8569-8.1154 0-5.2631 4.1533-8.1142 8.8569-8.2617v-2.0014h3.6059v2.0014c4.7865.1754 8.8573 2.9986 8.8573 8.2617 0 5.4068-4.4425 8.0228-8.8573 8.1154ZM9.54985 28.7093H3.606v6.8635h6.00162c2.36558 0 3.54818-1.1314 3.54818-3.3696 0-2.1832-1.3534-3.4939-3.60595-3.4939Zm.20299 9.8299H0V17.8379h15.1154v3.1382H3.606v4.7685h6.14684c4.50056 0 7.00936 2.2986 7.00936 6.3678 0 4.104-2.5367 6.4271-7.00936 6.4268Z"/>
	</g>
</svg>