<svg xmlns="http://www.w3.org/2000/svg" viewBox="0 0 170 26">
	<path fill="#fff" d="M84.3426 5.4351c-.1252 1.2302-.1801 3.4566-.1801 6.3907 0 2.5481-.0413 5.7426.1801 8.0251-.638-.0569-.9935-.0386-1.6114-.0386-.5994 0-1.1534-.0183-1.7694.0386.1982-2.377.1596-4.7012.1596-7.1495 0-.9342-.0156-2.0411-.0593-2.7996-2.8013 3.1962-5.5004 6.5972-8.1034 9.9491h-1.7876l.1984-7.1495c0-2.7174-.0412-5.1849-.2169-7.2663l1.7256.0585 1.669-.0585c-.1984 2.1624-.1799 4.5697-.1799 7.2488v2.8013c2.9429-3.1593 5.7626-6.5176 8.2247-9.9916l1.5705-.0585h.1801ZM44.0233 6.4669l.1003-1.0318-.898.04h-.9877l-1.3927-.04.1191 1.4488-.0186 2.9603c-.0207 3.1196-1.8035 3.1196-2.8748 3.1196-1.835 0-2.8055-1.6724-2.8448-4.7676l.0322-1.751.061-1.0101-1.5001.0576-1.7869-.0576.1118 4.1541c.1615 3.7282 3.2802 4.8423 5.0497 4.8423 1.3108 0 2.8353-.4003 3.7126-.8964l-.04 2.4502-.0805 2.5802-.061 1.2854 1.812-.0386 1.5867.0386-.1388-1.2854-.0393-2.5802.0156-5.0114c.0237-3.5326.0622-4.1339.0622-4.507Zm55.0917.2806.075-1.3124-1.628.0576-1.753-.0576.105 1.328.062 1.6881v1.8247l.018.8605-1.308.0971c-.52.042-1.134.0579-1.827.0579-.738 0-1.356-.0159-1.928-.0579l-1.389-.0971v-.8605l.057-1.8247.04-1.6881.079-1.328-1.686.0576-1.69-.0576.08 1.3124c.039.6116.053 1.7266.053 3.3519l.02 2.1459c-.02 1.372-.02 2.4851-.034 3.3397l-.103 2.9393-.016 1.3266 1.626-.0386 1.75.0386-.079-1.3037c-.06-.8563-.097-1.7275-.097-2.6266v-2.8802l1.307-.1164c.399-.0207 1.03-.0425 1.885-.0425l1.869.0823 1.391.0766-.018 1.0372-.041 1.8657-.059 2.5051-.067 1.4025 1.792-.0386 1.589.0386-.075-1.4604-.067-2.9507-.015-3.1945v-2.1459c.015-1.503.041-2.6232.082-3.3519ZM53.3858 5.4351c-.6177.04-1.6322.0585-3.0362.0585-.9605 0-1.628-.0185-2.0472-.0402l-1.7715-.1179.0998 1.0694.062 1.8098v2.2447l.0158 3.8166-.0158 2.6405c0 .7744-.0254 1.4445-.062 2.0002l-.0998 1.0582 1.7715-.1469 2.539-.0157 2.3845.0803 1.3562.0823-.0383-.935.0383-.9505-1.4313.0942c-.8188.0613-1.5753.0857-2.2484.0857l-1.1531-.0244v-5.0437l1.1899-.02c.8574.02 1.5915.0576 2.243.0752l1.2539.1047-.0612-.9342.0612-.954-1.1919.0786c-.7338.061-1.4906.084-2.2637.084l-1.2312-.023V7.0411l1.115.02 2.4597.0813 1.2581.0786-.0383-.9769.0383-.9086-1.1963.0996Zm9.5359.0751c-.3201 0-.6755-.0351-.8941-.0944-1.7825 4.9648-3.8752 9.6729-5.9198 14.4998.2594-.0647.635-.1033.955-.1033.3389 0 .7726.062.9961.1033 1.1463-3.513 2.5393-7.0123 3.9887-10.531 1.2522 3.5394 2.722 7.018 3.7758 10.531.4561-.0647 1.2329-.1033 1.8437-.1033.6404 0 1.2696.0386 1.8716.1033-1.9484-4.8269-3.8754-9.597-5.662-14.4998-.3217.0593-.6387.0944-.955.0944Zm59.0093 12.9741c1.755 0 2.665-.9752 2.665-2.9368 0-1.6315-1.074-2.6442-2.82-2.6235l-.695.0591-.018 1.0291v1.4276l.018 1.6358.062 1.3264.788.0823Zm.322-6.8959c2.343 0 5.56.8763 5.56 4.1101 0 2.1286-1.293 3.6602-3.296 4.016-.574.0978-1.152.1364-1.705.1364l-1.631-.0229-1.413-.0157h-.991l-.894.0386.1-1.0279c0-.3746.02-.954.02-1.7666l.014-2.7243V8.0092l-.034-1.4838-.1-1.072 1.45.0803 2.781.0781 3.294-.0193 1.455-.1391-.081.818.081.8327-1.455-.0806c-.775-.0434-2.36-.0646-3.317-.082h-1.01l.062.8937-.041 1.1936v2.5837l1.151-.0241Zm34.101-4.8409.084-1.3124-1.632.0576-1.753-.0576.105 1.328.059 1.6881v1.8247l.016.8605-1.304.0971c-.523.042-1.133.0579-1.831.0579-.738 0-1.349-.0159-1.928-.0579l-1.388-.0971v-.8605l.061-1.8247.032-1.6881.082-1.328-1.687.0576-1.689-.0576.082 1.3124c.037.6116.059 1.7266.059 3.3519l.019 2.1459c-.019 1.372-.019 2.4851-.041 3.3397l-.098 2.9393-.021 1.3266 1.632-.0386 1.744.0386-.082-1.3037c-.057-.8563-.093-1.7275-.093-2.6266v-2.8802l1.31-.1164c.397-.0207 1.036-.0425 1.888-.0425l1.867.0823 1.386.0766-.016 1.0372-.037 1.8657-.063 2.5051-.064 1.4025 1.794-.0386 1.591.0386-.084-1.4604-.06-2.9507-.022-3.1945v-2.1459c.022-1.503.041-2.6232.082-3.3519ZM169.147 18.72l-1.473-2.1441-2.222-3.2312-1.209-1.8908.753-.8983 1.985-2.2023 1.568-1.688 1.213-1.2302-1.411.0576-1.331-.0576-.793 1.1672c-.42.6187-1.033 1.3894-1.828 2.3472l-1.329 1.6478-1.254 1.3903v-1.432l.079-2.3594.023-1.6114.075-1.1497-1.684.0576-1.675-.0576.061 1.1326.038 1.6102.046 2.4616-.021 4.1099-.025 2.0485-.038 1.8033-.061 1.2497 1.752-.0386 1.607.0386-.098-1.2673c-.059-.5398-.079-1.1531-.079-1.8455v-1.9887l.02-1.3883.917 1.3883 1.266 1.9887c.596.8915 1.013 1.5722 1.276 2.0031l.631 1.1097 2.069-.0386 2.005.0386-.853-1.1309Zm-33.553-4.5453.674-.0971-.335-.8212-1.038-2.5612-.476-1.1893-.493 1.1893-1.011 2.5612-.34.8212.716.0734c.369.0464.788.0628 1.249.0628.395 0 .734 0 1.054-.0391Zm5.676 4.1356.758 1.5406-2.012-.0386-1.744.0386-.42-1.4025-.654-1.8133-.294-.9112-1.115-.1215c-.335-.0174-.837-.0403-1.408-.0403-.582 0-1.036 0-1.373.0403l-1.071.1215-.336.8903c-.2.5593-.401 1.178-.599 1.7878l-.417 1.4489-1.069-.0386-1.138.0386.755-1.505c1.194-2.5817 2.445-5.4976 3.782-8.8234l1.03-2.6825.497-1.4049.732.0576.911-.0576.522 1.4049.969 2.6493c1.252 3.289 2.488 6.2346 3.694 8.821Zm-34.124.1984h3.973c-.618-1.9731-1.472-4.4311-2.608-7.3723l-.668-1.7693-.697 1.7693c-1.311 3.3929-2.202 5.8162-2.64 7.312h.08c.987.0359 1.819.0603 2.56.0603Zm7.409-.1609 1.823-.2228-.175.9149-.091 1.0407s-4.354-.2297-5.788-.2526h-3.497l-5.781.2526-.096-1.0407-.183-.9149 1.829.2228 1.256-2.908c.654-1.5238 1.322-3.247 2.083-5.2381l1.25-3.4386.495-1.328.874.04 1.074-.04.479 1.37 1.234 3.3537 2.016 5.2647c.404 1.0176.819 1.9877 1.198 2.9243ZM12.7056 0C5.6875 0 0 5.6972 0 12.7119c0 7.0182 5.6875 12.7056 12.7056 12.7056 7.0123 0 12.7041-5.6874 12.7041-12.7056C25.4097 5.6972 19.7179 0 12.7056 0Zm1.3791 24.648 1.7964-4.3068H13.743c-1.094 0-1.4708-.7875-1.2129-1.4882l3.0252-7.5085s.2777-.5725-.2238-.8538c-.5442-.3083-.8361.2569-.8361.2569l-5.5216 8.7065c-.153.257-.663.8963-1.4881.5278-.8284-.3741-.5661-1.2338-.5042-1.371l2.8949-6.8898s.2946-.665-.0156-1.1606c-.2875-.4628-.6337-.5135-.9735-.5274H7.3302l-2.1485 5.08.0429-7.5593L11.452.3846 9.4501 5.171h2.4648c.3602 0 .6999.1855.8915.4957.1816.2945.2279.6989.0312 1.1665L9.742 14.3399c-.0979.2209-.1364.637.3057.8359.4396.2162.7366-.143.7863-.2384l5.4071-8.7729c.367-.6018.9051-.9444 1.5528-.6343.7751.3732.5837 1.1475.4971 1.404l-2.7513 6.9084c-.5708 1.4069.5398 1.6426 1.0254 1.6426h1.2813l2.1041-5.1481.1545 7.6786-6.0203 6.6323Z"/>
</svg>