<svg xmlns="http://www.w3.org/2000/svg" viewBox="0 0 181 24">
	<path fill="#fff" d="M9.3 16.3008c-.7.8-1.6 1.2-2.8 1.2-2 0-3.4-1.7-3.4-4 0-2.2 1.4-4.00002 3.4-4.00002 1 0 1.9.4 2.6 1.10002l1.8-1.90002c-1.1-1.2-2.6-1.9-4.4-1.9-3.6 0-6.5 3-6.5 6.70002 0 3.9 2.8 6.6 6.3 6.6 2 0 3.5-.7 4.7-2.1l-1.7-1.7Zm9.4-9.40002c-3.8 0-6.7 3-6.7 6.70002 0 3.7 2.7 6.6 6.6 6.6 3.8 0 6.7-3 6.7-6.7 0-3.80002-2.7-6.60002-6.6-6.60002Zm-.1 10.60002c-2.2 0-3.6-1.8-3.6-4s1.4-4.00002 3.6-4.00002 3.6 1.80002 3.6 4.00002-1.3 4-3.6 4ZM41.1 7.10078h-3.7l-1.9 6.40002c-.3 1-.6 2.4-.6 2.4s-.3-1.3-.7-2.4l-2-6.30002h-3.8L27.2 20.0008h2.7l.6-6.9c.1-1.3.1-2.7.1-2.7s.3 1.4.7 2.7l2.2 7H36l2.2-7c.4-1.2.7-2.6.7-2.6s0 1.4.1 2.8l.6 6.9h2.8L41.1 7.10078Zm17.9 0h-3.7l-1.9 6.40002c-.3 1-.6 2.4-.6 2.4s-.3-1.3-.7-2.4l-2-6.30002h-3.8L45 19.9008h2.7l.6-6.9c.1-1.3.1-2.7.1-2.7s.3 1.4.7 2.7l2.2 7h2.5l2.2-7c.4-1.2.7-2.6.7-2.6s0 1.4.1 2.8l.6 6.9h2.8L59 7.10078Zm7.1 10.40002v-2.8h4.7v-2.4h-4.7V9.60078h5.4v-2.5h-8.2V19.9008h8.3v-2.4h-5.5Zm18-6.3c0-2.60002-1.5-4.10002-5.3-4.10002H75V19.9008h2.8v-4.7h.9l2.7 4.7h3.3l-3.1-5.2c1.5-.6 2.5-1.8 2.5-3.5Zm-2.9 0c0 1.2-.8 1.7-2.4 1.7h-1.2V9.50078h1.2c1.5 0 2.4.50002 2.4 1.70002Zm8.6 6.3 5.3-8.30002v-2.1h-8.7v2.5h5.2l-5.3 8.20002v2.1h8.9v-2.4h-5.4Zm15.3-4.2c1.3-.4 2.1-1.4 2.1-2.9 0-2.80002-2.4-3.30002-4.7-3.30002h-4.4V19.9008h4.9c2.3 0 4.8-1 4.8-3.7 0-1.6-1.1-2.7-2.7-2.9Zm-2.5-1h-1.7V9.50078h1.6c.9 0 1.8.3 1.8 1.30002-.1 1.1-.8 1.5-1.7 1.5Zm-1.7 2.3h2.1c1.2 0 2 .4 2 1.4 0 1-.6 1.5-2 1.5h-2.1v-2.9Zm15.8-7.50002h-3.5l-4.6 12.80002h2.8l.9-2.6h5l.9 2.6h3l-4.5-12.80002Zm-1.8 2.6s.2.90002.6 1.80002l1.1 3.4h-3.4l1.1-3.4c.4-.9.6-1.80002.6-1.80002Zm16.1-2.6v5.80002c0 1.2.1 2.3.1 2.3s-.6-1-1.3-2l-4.1-6.10002H123V19.9008h2.6v-6.1c0-1.2-.1-2.3-.1-2.3s.6 1 1.3 2l4.3 6.4h2.5V7.10078H131Zm11.3 6.00002 4.3-6.00002h-3.2l-3.9 5.80002V7.10078h-2.8V19.9008h2.8v-6l4.1 6h3.4l-4.7-6.8ZM166.736 2.11873c-.503.60777-.951 1.25904-1.339 1.94614l-3.166 5.48727-3.172 5.48726c-.131.2321-.298.5237-.471.8808l-1.422-.2618c-.946-.1553-1.844-.5259-2.625-1.0832-.507-.369-.933-.8391-1.249-1.3808l-.292-.5177.22-.3809L160.302 0h8.529c-.296.225134-.576.469685-.839.732033-.363.357087-1.066 1.166487-1.256 1.386697Zm7.618 21.15757-.304.5237h-14.628l-4.256-7.3798c.341.1486.694.27 1.054.363.488.1309 1.541.3452 1.827.3928.786.1355 1.583.1992 2.38.1904h13.641c.185.5297.453 1.2737.476 1.351.344.8962.474 1.8599.381 2.8151-.073.6133-.267 1.2061-.571 1.7438Zm6.118-10.6175-4.261 7.3918c-.046-.3697-.117-.7356-.214-1.0951-.131-.488-.477-1.5057-.596-1.7855-.262-.7374-.588-1.4504-.976-2.1306l-3.166-5.48726-3.172-5.48727c-.125-.22616-.304-.52374-.518-.84512l.905-1.09507c.609-.74464 1.384-1.337512 2.261-1.731882C171.31.139829 171.929.00619208 172.557 0h.595l7.32 12.6588Z"/>
</svg>