<svg xmlns="http://www.w3.org/2000/svg" viewBox="0 0 180 22">
	<path fill="#fff" d="M70.354 21.0362c5.809 0 10.5181-4.7092 10.5181-10.5181C80.8721 4.7091 76.163 0 70.354 0S59.8359 4.7091 59.8359 10.5181c0 5.8089 4.7091 10.5181 10.5181 10.5181ZM2.10907 10.6994c-.04169-.1549-.04169-.318 0-.4728.03066-.0831.08049-.1579.14545-.2181.06101-.07481.1389-.13401.22727-.17277.76327-.36657 1.39727-.95619 1.81817-1.69089.49624-.97132 1.26159-1.77926 2.20462-2.32735.94303-.54809 2.0239-.81315 3.11351-.76353v.77272c.01373.18302-.04139.36458-.15455.50908-.11181.14044-.26952.237-.44545.27273-.68132.12845-1.32507.40836-1.88367.81905-.55859.41068-1.01776.94165-1.34357 1.55365-.16919.36266-.4116.68637-.71199.95078-.30039.26443-.65225.46373-1.03345.58553L9.6999 16.372c-.811.0404-1.624.0008-2.42725-.1182-.50776-.2401-.95047-.5986-1.29089-1.0454l-3.67269-4.1181c-.10326-.1045-.17291-.2375-.2-.3819v-.009Zm17.13623 1.1272c0 3.1212-1.2788 4.6788-3.8364 4.6727-1.5363 0-2.5636-.4091-3.0818-1.2364v4.5455c-.5535.0618-1.1139-.0067-1.6363-.2-.1636-.1273-.2182-.5637-.2182-1.3546V7.28121c.4202-.05337.8469.00625 1.2364.17272.1182.11818.1818.49091.1727 1.13636.5545-.90909 1.7091-1.41817 3.4818-1.42726 2.5818-.0303 3.8757 1.52422 3.8818 4.66357Zm-1.9182 0c.0549-.7817-.1021-1.5637-.4545-2.2636-.2387-.30212-.5493-.5395-.9035-.69039-.3542-.15089-.7406-.21046-1.1238-.17323-1.2727 0-2.0091.13636-2.2363.39999-.2273.26364-.3182 1.17273-.3182 2.72723-.0501.756.1004 1.5118.4363 2.1909.2364.3166.5507.5667.9123.726.3615.1593.7582.2224 1.1514.1831 1.2727 0 2.009-.1273 2.2181-.3727.3007-.8757.4093-1.8059.3182-2.7273Zm11.2999-.7727c0 .7454-.0818 1.1909-.2455 1.3273-.5463.185-1.1268.247-1.6999.1818h-4.7455c-.0181.31.0315.6202.1455.9091.1076.2886.2784.5496.5.7636.5226.4437 1.1979.6655 1.8818.6182h1.9909c.4435-.0557.8937.0135 1.3.2.1809.4143.2499.8688.2 1.3181h-3.4091c-3.0303 0-4.5454-1.5394-4.5454-4.6181 0-3.07877 1.5151-4.62421 4.5454-4.63633.5601-.03276 1.1209.05135 1.6468.24698.5258.19563 1.0052.4985 1.4077.88938.3374.37378.5997.80895.7727 1.2818.1752.47727.2615.98257.2546 1.49087v.0273Zm-1.9454 0c0-1.64544-.7364-2.44543-2.2909-2.44543-.7317-.09361-1.475.01977-2.1455.32727-.2242.21818-.3333.92726-.3272 2.12726l4.7636-.0091Zm11.718 5.2818v.5181c0 .7818-.0727 1.2364-.2182 1.3546-.5273.1857-1.0889.254-1.6454.2V16.372h-5.8818v2.0364c-.5535.0566-1.1127-.0118-1.6363-.2-.1636-.1364-.2273-.5728-.2273-1.3546v-.4818c0-.7818.0727-1.2181.2-1.3272.2244-.1432.4891-.2102.7546-.1909 1.1818-1.1273 1.5181-4.3182 1.5272-6.13634v-.18182c-.0503-.39031.0194-.78669.2-1.13635.4087-.17818.8567-.2471 1.3-.2h3.1545c.7364 0 1.1636.06364 1.2909.2.1273.13636.1909.49999.2 1.17271v6.2545c.28-.0202.5593.0464.8.1909.1364.1182.2.5454.1818 1.2909v.0273Zm-2.8545-2.1V8.69938h-2.6182c-.0123.88507-.0791 1.76852-.2 2.64542-.1266 1.2011-.4554 2.3722-.9727 3.4636h3.2c.4636 0 .5636-.2545.5909-.4273v-.1454ZM1.95453 16.372c-.57749.0633-1.161808-.0051-1.709078-.2C.0818173 16.0448 0 15.5751 0 14.763V5.03578c.575506-.05527 1.15626.00342 1.70907.17272.16364.11818.24546.54545.24546 1.26363V16.372Zm37.36327-.0636V7.21757c.5725-.05041 1.1493.0082 1.7.17273.1636.11818.2454.49999.2454 1.1818v5.3454l3.4091-5.54539c.2277-.39475.5377-.73582.9091-.99999.4458-.12743.9097-.17966 1.3727-.15455h1.0181v7.56353c0 .7818-.0818 1.2455-.2454 1.3727-.5471.1959-1.1316.2643-1.7091.2V9.53573l-3.409 5.45447c-.2366.4195-.5442.7948-.9091 1.1091-.4187.1378-.8607.1904-1.3.1545l-1.0818.0546Zm17.9998-9.09083c.0587.48208-.0103.97112-.2 1.41817-.425.18824-.8932.25737-1.3545.2H54.054V16.372c-.5625.0574-1.1307-.0109-1.6636-.2-.1636-.1363-.2364-.5909-.2364-1.3818V8.82665h-3.2636c-.0549-.48047.0075-.9671.1818-1.41817.3848-.18258.8136-.25194 1.2364-.2l7.009.00909ZM100.263 13.6441c0-.7818-.5275-1.2182-1.8184-1.2182h-3.7091v2.4818h3.6364c.5557.0479 1.1156-.0013 1.6541-.1454.164-.1.237-.4.237-1.1182Zm-1.8911-5.0454h-3.6364v2.3182h3.7091c.4831.0453.9704-.0009 1.4363-.1364.1-.0636.1541-.3182.1541-1.00908 0-.6909-.4813-1.1909-1.6631-1.1909v.01818Zm-3.8273 7.7727c-.4431.0487-.8915-.0073-1.309-.1637-.1364-.1091-.1819-.4818-.1819-1.1272V8.43507c0-.64545.0637-1.04544.1819-1.14544.4172-.15736.8659-.21344 1.309-.16364h3.8091c2.2783 0 3.4213.79999 3.4273 2.39998 0 1.00903-.355 1.62723-1.064 1.86363l-.136.0454.136.0455c.403.1596.741.4471.964.8182.257.4011.39.8691.382 1.3454 0 1.8182-1.212 2.7273-3.6366 2.7273h-3.8818Zm17.3634-4.6273c0 3.1212-1.276 4.6788-3.827 4.6727-1.546 0-2.564-.4091-3.082-1.2363v4.5454c-.556.0609-1.12-.0076-1.645-.2-.164-.1273-.219-.5637-.219-1.3455V7.14417c.71 0 1.119.05455 1.237.17273.118.11818.182.48181.182 1.12726.545-.90908 1.709-1.41817 3.481-1.41817 2.546 0 3.837 1.60908 3.837 4.68181l.036.0363Zm-1.9 0c.051-.7834-.113-1.5659-.473-2.26359-.235-.30129-.542-.53838-.893-.68934-.352-.15095-.735-.2109-1.116-.17428-1.272 0-2.027.13636-2.245.39999-.218.26364-.318 1.18182-.318 2.72722-.057.7662.097 1.5335.445 2.2182.234.3172.546.568.907.7274.36.1594.756.2221 1.148.1817 1.272 0 2.009-.1182 2.218-.3728.318-.8937.427-1.8485.318-2.7908l.009.0363Zm11.945 0c0 3.1091-1.515 4.6606-4.545 4.6545-3.03-.006-4.524-1.5575-4.482-4.6545 0-3.08479 1.515-4.6272 4.546-4.6272 3.03 0 4.512 1.5212 4.445 4.5636l.036.0636Zm-1.936 0c.048-.7534-.123-1.5046-.491-2.16359-.238-.31945-.555-.57132-.92-.73075-.365-.15942-.766-.22088-1.162-.17833-1.3 0-2.045.12727-2.263.39091-.302.85969-.408 1.77596-.309 2.68176 0 2.0727.848 3.1091 2.545 3.1091 1.303 0 2.058-.1273 2.264-.3818.316-.8942.425-1.8485.318-2.7909l.018.0636Zm11.118 4.3454c-.547.1949-1.131.2633-1.709.2V9.02597h-4.545v7.19993c-.578.0633-1.162-.0051-1.709-.2-.155-.1273-.237-.5909-.237-1.3727V8.84416c-.057-.52075.011-1.04771.2-1.53635.118-.15455.582-.24545 1.364-.24545h5.3c.782 0 1.236.08181 1.373.24545.184.4899.252 1.01566.2 1.53635v5.80904c-.019.8091-.1 1.2363-.273 1.3727l.036.0636Zm9.727.2c-.718 0-1.127-.0545-1.245-.1818-.118-.1273-.173-.5091-.173-1.1909-.321.4261-.761.7485-1.263.9273-.724.3227-1.509.484-2.3.4727-.883.0438-1.758-.1812-2.509-.6454-.336-.2326-.607-.5451-.791-.9091-.18-.3638-.265-.7673-.246-1.1727-.022-.4039.047-.8076.2-1.1818.158-.3679.39-.699.682-.9728.823-.6299 1.848-.9371 2.882-.8636h2.863c.029-.2678-.012-.5385-.117-.7865-.105-.24805-.271-.46538-.483-.63166-.57-.3273-1.226-.47317-1.881-.41817h-1.819c-.415.05267-.836-.01024-1.218-.18182-.127-.11818-.182-.58181-.182-1.35453h3.191c1.7 0 2.882.35454 3.555 1.04544.323.39262.566.84529.715 1.33203.148.48671.198.99791.148 1.50431l-.009 5.209Zm-1.818-3.8999v-.2909h-2.682c-.613-.0612-1.232.0069-1.818.2-.182.1363-.272.5545-.272 1.2909 0 .7363.681 1.3 2.045 1.3.782.0993 1.577-.0137 2.3-.3273.323-.6982.443-1.4733.345-2.2364l.082.0637Zm-47.2266 3.9818h-5.9909c-.5745.0634-1.1559-.005-1.6999-.2-.1637-.1364-.2455-.6091-.2455-1.4273V6.56236c0-.81817.0818-1.29999.2455-1.42726.544-.19508 1.1254-.26349 1.6999-.2h4.3909c.8 0 1.2727.06364 1.4.2.1273.13636.2.60909.2 1.42726h-5.9909v3.16361h3.8545c.4703-.06104.9482.00814 1.3819.19999.1363.13634.1999.59094.1999 1.38184h-5.4544v3.409h4.2545c.5148-.0609 1.0367.0078 1.5181.2.2108.454.2926.9572.2364 1.4546Z"/>
	<path fill="#ED1C24" d="M173.635 16.291c-.578.0581-1.161-.0101-1.709-.2-.164-.1394-.246-.6121-.246-1.4182V7.04564c.576-.05453 1.157.0073 1.709.18182.164.11818.246.53635.246 1.26362V16.291Zm6.363 0c-.71.0257-1.422-.0078-2.127-.1-.408-.1868-.762-.4747-1.027-.8364l-2.864-3.2817c-.113-.1359-.177-.3055-.182-.4819 0 0 0-.4909.328-.6454.655-.3576 1.211-.8732 1.618-1.49999.414-.75336 1.034-1.37363 1.787-1.78879.753-.41516 1.609-.60818 2.467-.55664v.70909s.055.75453-.454.82726c-.509.07273-1.437.24545-2.582 1.81817-.285.4383-.664.8079-1.109 1.0818l4.145 4.7545Zm-19.381 0c-.709 0-1.128-.0545-1.237-.1727-.17-.3756-.233-.7909-.182-1.2-.296.4456-.721.791-1.218.9909-.726.324-1.514.4853-2.309.4727-.883.0397-1.756-.1953-2.5-.6727-.338-.2296-.61-.5428-.791-.9091-.183-.366-.271-.7727-.254-1.1818-.018-.4015.054-.802.209-1.1727.153-.3704.386-.7025.682-.9727.822-.6316 1.847-.9389 2.881-.8637h2.855c.044-.2796.014-.5659-.086-.83051-.101-.26466-.268-.49853-.487-.67853-.57-.32885-1.226-.47778-1.882-.42726h-1.818c-.7 0-1.1-.05455-1.218-.17273-.174-.42876-.237-.89491-.182-1.35453h3.191c1.7 0 2.891.35454 3.555 1.04544.323.39262.566.84529.714 1.33203.149.48669.199.99799.149 1.50429l-.072 5.2636Zm-1.864-3.9v-.2909h-2.582c-.613-.0572-1.232.0109-1.818.2-.182.1364-.264.5546-.264 1.2909 0 .7364.682 1.3 2.037 1.3.785.0988 1.582-.0142 2.309-.3273.305-.7032.415-1.4758.318-2.2363v.0636Zm-7.982-1.3545c.065.0785.126.1605.182.2455l.091.1454c-.069-.1636-.161-.3166-.273-.4545v.0636Zm.646 1.9091c0 2.2181-1.515 3.3272-4.546 3.3272h-2.663c-.548.0567-1.101-.0117-1.618-.2-.155-.1363-.219-.6-.219-1.4V6.4911c0-.79999.073-1.27272.219-1.39999.516-.19312 1.07-.26165 1.618-.19999h6.527c-.029.39058-.08.77913-.155 1.16362-.081.27272-.191.42727-.754.42727h-5.455v3.1636h2.964c.643-.04938 1.288.04767 1.888.28386.6.23623 1.139.60533 1.576 1.07973.103.1225.191.2567.263.4.252.4487.375.9585.355 1.4727v.0637Zm-1.973 0c0-1.1273-.8-1.6818-2.409-1.6818h-2.664v3.3818h2.609c.727.0718 1.46-.0055 2.155-.2273.2-.1455.318-.6455.309-1.5182v.0455Zm20.909 3.3181c-.584.0633-1.174-.0051-1.727-.2-.164-.1272-.237-.6-.237-1.4181v-2.5364h-4.545v4.1182c-.575.0648-1.156-.0037-1.7-.2-.164-.1273-.255-.6-.255-1.4182V7.07291c.59-.06405 1.187.00747 1.746.20909.154.12727.236.5909.236 1.37271v1.89999h4.546V7.07291c.583-.06323 1.173.00511 1.727.2.154.12727.236.5909.236 1.37271v7.57268l-.027.0454ZM70.354.746098C68.4186.7443 66.5262 1.31669 64.9162 2.39083c-1.61 1.07413-2.8652 2.60174-3.6066 4.38948-.7415 1.78775-.936 3.75529-.5589 5.65359.3772 1.8983 1.309 3.6421 2.6775 5.0106 1.3686 1.3686 3.1124 2.3004 5.0107 2.6775 1.8983.3772 3.8658.1827 5.6536-.5588 1.7877-.7415 3.3153-1.9966 4.3894-3.6066 1.0742-1.61 1.6466-3.5025 1.6448-5.4379 0-1.28333-.2528-2.55413-.7439-3.7398s-1.211-2.26299-2.1185-3.17046c-.9074-.90748-1.9848-1.62732-3.1704-2.11845C72.9082.998874 71.6374.746098 70.354.746098Zm0 14.599902-4.8181-4.8273 4.8181-4.81811 4.8182 4.81811-4.8182 4.8273Z"/>
</svg>