<svg xmlns="http://www.w3.org/2000/svg" viewBox="0 0 170 20">
	<g fill="#fff">
		<path d="m17.68 9.34092-1.7-4.25-2.21 4.7605c-.765 1.52978-3.145 1.95478-4.845 2.12498l.33992-.5952 4.84518-9.34995h3.825l2.7199 5.69517 1.19 2.72018 2.4651 5.3548H21.25c-.595 0-1.105 0-1.3601-.5952l-.3399-1.3596-.7649-1.9557L17.68 9.34092Zm7.3099 7.90568H0v2.2096h24.9899v-2.2096ZM42.9555 7.20098c-1.1526-.82759-2.5566-1.24014-3.9107-1.24014-2.8468-.00083-5.5294 1.65269-5.5302 4.52396 0 2.872 2.6826 4.5521 5.5292 4.5521 1.4171 0 2.8969-.4515 4.075-1.2916l-.878-1.1413c-1.0023.6773-1.8301 1.0658-3.0831 1.0658-2.0696 0-3.6864-1.2908-3.6864-3.1709 0-1.88098 1.6168-3.17175 3.6864-3.17175.6956 0 1.2547.12451 1.7869.35776.3784.16602.7432.38682 1.1337.65825l.8772-1.14218Zm8.6353 1.75644c0 .95293-.8535 1.50498-2.1821 1.50498l-2.7328-.0009V7.51641h2.721c1.3786 0 2.1939.51381 2.1939 1.44101Zm-2.0451-2.84551H44.795v8.77479h1.8801V11.827h2.3443l2.6079 3.0597h2.1937l-2.8704-3.322c1.491-.3387 2.5942-1.1281 2.5942-2.63218 0-1.93159-1.7925-2.82061-3.9991-2.82061Zm10.4746-.96704 1.4543-1.54311h-1.9559l-1.1034 1.54311h1.605Zm-4.6012.96538v6.24305c0 1.5921.9274 2.5317 2.5322 2.5317h5.5912v-1.4045h-5.139c-.7396 0-1.1042-.3627-1.1042-1.1272v-1.3547h5.5667V9.63228h-5.5667V7.51392h6.0674V6.11025h-7.9476Zm17.9206 4.39855c0 1.7806-1.4298 2.9717-3.5606 2.9717h-2.2066V7.51392h2.2066c2.1308 0 3.5606 1.20195 3.5606 2.99488Zm-3.6864-4.39938h-3.962V14.885h3.962c3.3855 0 5.6414-1.7548 5.6414-4.3878 0-2.63299-2.2567-4.38778-5.6414-4.38778Zm9.3176 8.77808h-1.8811V6.11191h1.8811v8.77559Zm1.6311-8.77559v1.40284h3.3737v7.37275h1.8793V7.51641h3.372v-1.4045h-8.625Zm17.0978 1.80293 1.7299 3.48466h-3.4596l1.7297-3.48466Zm-2.4199 4.85096h4.8391l1.053 2.1192h2.157l-4.5514-8.77475H96.86L92.3099 14.885h1.9177l1.0523-2.1192Zm17.8191-5.56565c-1.154-.82759-2.557-1.24014-3.911-1.24014-2.846.00083-5.529 1.65352-5.529 4.52389 0 2.5957 2.195 4.5514 5.503 4.5514 1.893 0 3.384-.6276 4.438-1.3788V9.97095h-4.525v1.33975h2.645v1.6792c-.627.4151-1.517.6774-2.482.6774-2.181 0-3.623-1.3406-3.623-3.1958 0-1.88014 1.617-3.14601 3.685-3.14601 1.191 0 1.981.36357 2.921 1.01601l.878-1.14135Zm9.585 1.75644c0 .95293-.853 1.50491-2.181 1.50491h-2.734V7.51641h2.721c1.378 0 2.194.51298 2.194 1.44018Zm-2.044-2.84468h-4.75l-.001 8.77389h1.88V11.827h2.345l2.606 3.0588h2.194l-2.869-3.3219c1.491-.3387 2.594-1.1281 2.594-2.63304 0-1.92993-1.792-2.81895-3.999-2.81895Zm8.055 8.77479h-1.88V6.11191h1.88v8.77479Zm11.304-7.68655c-1.152-.82759-2.556-1.24014-3.911-1.24014-2.846 0-5.528 1.65352-5.528 4.52309 0 2.8712 2.682 4.5513 5.528 4.5513 1.417 0 2.896-.4515 4.074-1.2916l-.878-1.1405c-1.002.6773-1.829 1.0658-3.084 1.0658-2.067 0-3.684-1.2916-3.684-3.1709 0-1.88094 1.617-3.17171 3.684-3.17171 1.192 0 1.982.36357 2.922 1.01601l.877-1.14135Zm6.214 6.46965c-2.131 0-3.598-1.4037-3.598-3.1709 0-1.76726 1.467-3.17092 3.598-3.17175 2.131 0 3.598 1.40449 3.598 3.17175 0 1.7672-1.468 3.1709-3.598 3.1709Zm-.001-7.70813c-3.246 0-5.552 2.05527-5.552 4.53723 0 2.4819 2.306 4.538 5.552 4.5372 3.246 0 5.553-2.0553 5.553-4.5372 0-2.48113-2.307-4.53723-5.553-4.53723Zm9.103.15024h-1.88v8.77479h7.459v-1.4045h-5.579V6.11191Zm6.563 0v6.24219c-.001 1.5929.927 2.5326 2.531 2.5334H170V13.483h-5.138c-.741 0-1.104-.3627-1.104-1.1281v-1.3547h5.566V9.63394h-5.566V7.51641h6.067v-1.4045h-7.947Z"/>
		<path d="M18.785 11.9754c-2.55 1.36-5.185 2.635-8.245 3.315-2.805.68-5.865.765-7.99-.51C.595 13.6754 0 11.4654 0 9.85039c0-1.02.51-2.55 1.53-3.74 1.87-2.295 5.44-4.25 8.245-4.335 1.02 0 1.615.34 2.04 2.805-1.02 0-1.955.17-3.06.51-.68.255-2.04.85-3.57 1.87-1.955 1.36-3.145 2.805-3.23 4.16501-.085 1.19 1.02 1.87 2.805 2.04 4.25.34 9.18-1.7 12.92-3.74001l2.975-1.7 6.205-3.315v3.145l-4.93 2.89001-3.145 1.53Z"/>
		<path d="m25.84 1.01-3.57 1.87s-1.19.68-2.04.85l.595 1.275c.17.51.765.68 1.275.51l4.76-2.635V.5l-1.02.51Z"/>
	</g>
</svg>