<svg xmlns="http://www.w3.org/2000/svg" viewBox="0 0 180 24">
	<path fill="#fff" d="M0 14.6069c0-1.9722.763471-3.881 2.06788-5.31262C3.59482 7.67175 5.72624 6.81283 8.23946 6.8446c1.55885 0 3.11774.3818 5.05834 1.24073l.0955.03177.2544 3.2133-.3818.1271-.0635-.1592c-1.196-2.83198-3.45025-2.83144-4.73049-2.83117h-.04155c-4.13561 0-5.53533 2.70417-5.53533 5.85357 0 3.2766 1.39972 6.299 5.50356 6.299.09056 0 .19566.0046.31283.0097 1.07644.0473 3.18058.1394 4.58638-2.873l.0636-.1271.4135.0318-.2544 3.0857-.0955.0638c-2.0996 1.3042-4.29471 1.4951-5.40821 1.4951-2.13142 0-4.10385-.7318-5.59902-2.0996C.858922 18.7745 0 16.8022 0 14.6069Zm126.171.4136c-2.036-1.018-3.277-2.0361-3.245-4.1037.032-2.54526 2.417-3.91307 4.645-3.91307.572 0 2.004.09532 3.149.85892l.095.06355.159 2.7041-.509.0638-.063-.1909c-.191-.76357-1.05-2.1952-3.054-2.22697-.668 0-1.241.22267-1.654.60448-.382.3818-.605.89069-.605 1.39989 0 1.1451.7 1.6222 2.768 2.6403l.35.1909.095.0505c1.873.9985 3.627 1.9332 3.627 4.4988 0 1.1451-.446 2.1632-1.273 2.9903-.922.9225-2.29 1.4634-3.658 1.4634-1.877-.0317-3.213-.7953-4.009-1.2407l-.127-.0635-.127-3.1177.509-.0956.063.1909c.319 1.0816 1.178 2.9268 3.564 2.9586.827 0 1.495-.2227 1.972-.6998.668-.6998.732-1.5905.732-1.8452 0-1.4795-1.028-1.9932-2.591-2.7742l-.05-.0253-.763-.3818Zm-11.168.0006c-2.036-1.0181-3.277-2.0361-3.245-4.104.032-2.54501 2.386-3.91283 4.613-3.88105.573 0 2.004.09531 3.15.85892l.095.06354.191 2.73589-.509.0638-.064-.2227c-.191-.76356-1.05-2.19519-3.054-2.22696-1.654-.03177-2.258 1.17719-2.258 1.97226 0 1.1454.699 1.6226 2.767 2.6406l.35.1909.095.0505c1.873.9985 3.627 1.9332 3.627 4.4988 0 1.1452-.445 2.1632-1.272 2.9904-.923.9225-2.291 1.4634-3.659 1.4634-1.877-.0318-3.213-.7954-4.008-1.2407l-.127-.0636-.128-3.1177.509-.0956.064.1909c.318 1.0816 1.177 2.9268 3.563 2.9586.827 0 1.495-.2227 1.972-.6998.668-.6998.732-1.5907.732-1.8452 0-1.4794-1.028-1.9932-2.59-2.7742l-.05-.0252-.764-.3818ZM41.1024 7.1634l.0316.38181h.0321c.2227.09531.4134.63625.4134 1.08159v13.3933h4.2629c2.7995 0 5.1538-.859 6.7443-2.5133 1.3364-1.368 2.068-3.2447 2.068-5.1538 0-1.1451-.3818-2.8947-1.4952-4.3263-1.4634-1.90879-3.7859-2.89507-6.9353-2.89507l-5.0581.03177h-.0637Zm4.3584 1.43163c.3499 0 1.2405.03177 1.877.12736 4.1992.63625 4.6446 4.16721 4.6446 5.63061 0 1.209-.2226 2.9589-1.2725 4.2949-1.0179 1.3043-2.6088 1.9723-4.7718 1.9723-.5092 0-1.1454 0-1.8454-.0318.0321-.0953.0321-11.86601.0321-11.99337h1.336ZM15.6837 7.54521l-.0318-.03177V7.1634h4.1356c1.9725 0 3.4359.44535 4.3585 1.33604.9226.89097 1.0498 1.90876 1.0498 2.44966 0 1.9088-1.368 3.1813-2.7678 3.6266.7317.3818 1.1772.9863 1.4316 1.3681l.0318.0318.9543 1.5269.2269.3525.0245.0377.0311.0486.3065.4788c.6607 1.033 1.1225 1.755 1.4471 2.1048.6363.7316 1.1136.9542 1.4317 1.0498l.7636.2227-.2228.0635-.5408.1274c-.4773.1271-1.6862.1589-2.2906.0635-.8589-.1273-1.5271-.6044-2.0678-1.3998-.6909-1.0813-1.3817-2.2194-1.9119-3.0927l-.0923-.1521-.3182-.5092-.0637-.0953c-.4771-.8271-.8589-1.4634-1.845-1.5269h-1.1135v6.776H16.129V8.88125c0-.66802-.2226-1.20896-.4453-1.33604Zm6.9034 3.43569c0-.2227-.0637-2.38587-2.6087-2.48146-.3507-.01846-.6585-.01547-.9112-.00977l-.1728.00434c-.1086.00299-.2038.00543-.2839.00543v5.37646c.0954 0 .9863.0318.9863.0318 1.3997 0 2.9903-.7633 2.9903-2.9268Zm51.1252-3.75395.0316 2.38613h-.3818v-.06381c-.0953-.44535-.6679-.92247-1.5589-.92247h-2.6401v13.425h-2.5453V8.59503h-2.5769c-.8589 0-1.5589.73157-1.6223 1.11337v.03177l-.35.03177V7.1634h11.6116v.06355h.0321Zm-16.7991.31826-.0319-.03177V7.1634h2.9269l.0318.03178V22.0518h-2.4816V8.78593c0-.04127-.0008-.08201-.0025-.12192-.0047-.12275-.0168-.2387-.0353-.34623-.0677-.3962-.2203-.67916-.4074-.77257ZM29.5869 7.1634l.0321.35004h.0316c.2227.12708.4771.63624.4771 1.33604V22.0201h8.3349l.6045-2.6406-.3497-.1271-.0956.1589c-.7 1.0816-1.3996 1.2089-3.8174 1.2089-.6686.0247-1.3371-.0274-1.8407-.0671l-.1617-.0125-.015-.001-.1537-.0112-.056-.0035v-6.0763h4.2312v-1.3363h-4.2312V8.49944l.7438.00652.9896.00923 1.7024.01603c.7636 0 1.6225.73183 1.6862 1.17718v.06354h.3499l-.0955-2.60854h-8.3668Zm75.2351.35004-.031-.35004h2.926l.064.03178V22.0518h-2.482V8.78593c0-.63625-.19-1.14541-.445-1.27249h-.032Zm29.301-.35004.032.38181h.032c.222.12736.477.60447.477 1.30427V22.0201h8.335l.604-2.6406-.381-.1271-.096.1591c-.7 1.0816-1.4 1.2087-3.785 1.2087-.232.0084-.463.0079-.687.0019-.609-.0165-1.168-.0738-1.54-.0972v-6.0763h4.231v-1.3363h-4.231V8.49972c.049 0 .578.00461 1.206.01059l2.229.02118c.955 0 1.655.69979 1.655 1.17691v.06381l.381-.03204-.063-2.60854-.064.03177h-8.335Zm-55.067 3.7534c-.032 2.0679 1.2088 3.0859 3.2448 4.104l.7636.3818.049.0244c1.5631.7813 2.5913 1.2953 2.5913 2.775 0 .2545-.0634 1.1452-.7317 1.8452-.4771.4772-1.145.6998-1.9723.6998-2.3858-.0317-3.2448-1.8769-3.5629-2.9585l-.0637-.1909-.5091.0953.1273 3.1177.1271.0638.0348.0195c.7994.4478 2.1241 1.1897 3.9739 1.2209 1.3678 0 2.7356-.5406 3.6582-1.4631.8273-.8271 1.2725-1.8452 1.2725-2.9906 0-2.5656-1.7542-3.5006-3.6279-4.4991l-.094-.05-.3499-.1909c-2.068-1.018-2.7679-1.4951-2.7679-2.6405 0-.79542.6046-2.0041 2.2587-1.97233 2.0044.03177 2.8634 1.4634 3.0542 2.22673l.0635.2227.5089-.0636-.159-2.70409-.0954-.06354c-1.1453-.76361-2.5768-.85892-3.1493-.85892-2.2269-.06355-4.6131 1.30426-4.6447 3.84925Zm20.4849-3.7534.0316.35004h.0318c.0956.06354.4137.28621.4137 1.20895v8.43041c0 1.6225-.6045 3.5948-3.4675 3.5948-2.7042 0-3.2768-1.6226-3.2768-4.0402V7.13163H90.156l.0316.31826h.0321c.1908.09532.5408.50889.5408 1.30427v7.92144c0 4.9309 3.2448 5.4718 5.6943 5.4718 1.2091 0 5.0902-.35 5.0902-4.9946V7.09986l-.032.06354h-1.9721ZM159.798.0374844C162.948 2.10536 172.937 9.04055 179.967 18.4572c.054.0891.038.1882-.021.2468-.001.0014-.003.003-.004.0044-.018.0163-.039.0293-.063.0375-.038.0133-.084.0144-.134-.0025-1.145-.3182-3.945-1.018-6.999-1.5269-.032 0-.064 0-.095-.0321-2.927-2.5129-5.886-4.8035-8.781-6.8396-.032-.0317-.063-.0635-.063-.1273-.605-3.05392-1.846-6.71255-4.263-9.893799-.128-.190901.063-.4135749.254-.2862166ZM164.665 16.8982c2.195-.3818 5.185-.1273 7.953.318.018 0 .033.0024.046.0068.006.0022.013.0049.018.0081l.007.0041c.016.012.024.0283.024.0445 1.941 1.7182 3.85 3.5313 5.663 5.4718.076.0761.061.1975-.004.2694-.043.0486-.11.0744-.187.0489-2.45-.668-11.23-2.7677-19.978-1.0816-.066 0-.131-.0299-.176-.0793-.021-.0228-.037-.0497-.047-.0798-.35-1.6226-3.086-13.80687-10.88-20.964737-.159-.15913.032-.413575.223-.317988 2.672 1.272495 9.194 4.644645 16.415 9.702825.064.0318.096.0636.096.1271.604 3.086.604 5.5674.604 6.331 0 .1271.096.2227.223.1909Z"/>
</svg>