<svg xmlns="http://www.w3.org/2000/svg" viewBox="0 0 160 30">
	<g fill="#fff">
		<path d="M3.90894 16.9683H0V28.784h3.90894c4.53082 0 6.30756-2.1321 6.30756-5.9522 0-3.8201-2.22094-5.8635-6.30756-5.8635Zm-.26652 9.9501H2.39867v-8.1733h1.24375c2.75403 0 4.2643 1.2438 4.2643 4.0867 0 2.5763-1.06608 4.1754-4.2643 4.0866Zm11.99338-6.5741c-3.1094 0-4.1755 2.2209-4.1755 4.2643 0 2.4875 1.2438 4.2642 3.9089 4.3531 2.1322 0 3.9978-.6219 4.0867-2.9317h-2.1322c0 .8884-.7107 1.5103-1.5991 1.5103-1.5103 0-1.9545-1.0661-1.9545-2.3987h5.9523c.0888-2.4875-.9773-4.7973-4.0866-4.7973Zm1.5991 3.4647h-3.4648c.0889-1.0661.6219-2.0433 1.7768-2.0433s1.7768.8884 1.688 2.0433Zm9.6835 1.5103c0 1.5991-.7996 2.1321-1.7768 2.1321-1.0661 0-1.5103-.7107-1.5103-1.8656v-4.975h-2.221v5.3303c0 2.221 1.4215 3.1094 2.9317 3.1094 1.2438 0 2.3099-.533 2.6652-1.5991v1.3326h2.1322v-8.1732h-2.221v4.7085Zm7.2848-7.196-2.1321 1.1549v1.3326h-1.8657v1.5102h1.7768v4.1755c0 1.1549.1777 1.8656.9773 2.3098.9772.5331 2.221.2665 3.287.0889v-1.4215c-.3553.0889-.7107.0889-.9772.0889-.7996-.0889-1.0661-.5331-1.0661-1.3326v-3.909h2.0433v-1.5991h-2.0433v-2.3986Zm8.2621 5.6857c-1.5991-.4442-3.1982-.533-2.6652-1.688.4442-.6218 1.8656-.6218 2.3098-.1776.1777.1776.2666.533.2666.7995h2.1321c.0888-1.9545-1.5991-2.4875-3.1094-2.4875-.7107 0-1.5103.0889-2.1321.3554-.9773.3553-1.688 1.066-1.688 2.0433 0 1.1549.7996 1.7768 1.5103 2.1321.9772.3554 1.5991.4442 2.3987.6219.7995.1777 1.3326.4442 1.3326 1.0661 0 .7995-.7996 1.0661-1.5992 1.0661-.8884 0-1.4214-.3554-1.4214-1.3326h-2.221c-.0888 2.1321 1.5103 2.6651 3.3759 2.754 1.3326.0888 2.9317-.2665 3.7313-1.4214.4442-.6219.4442-1.5992.0888-2.3099-.3553-.6219-1.066-1.066-2.3098-1.4214Zm6.8406-1.8656c.2666-.1777.5331-.2666.7996-.2666 1.1549-.0888 1.6879.5331 1.6879 1.5992h2.221c0-2.221-1.8656-3.0206-3.6424-3.0206-2.6652 0-4.1754 1.7768-4.2643 4.442 0 2.4875 1.2438 4.2643 3.909 4.3531 2.0433 0 3.9089-.8884 3.9089-3.1982h-2.1322c0 .7107-.2665 1.5103-1.1549 1.688-.4442.0888-1.066 0-1.4214-.3554-.533-.3554-.7996-1.5103-.7996-2.6652 0-1.0661.1777-2.221.8884-2.5763Zm11.2827-1.5991c-1.155 0-2.0434.4441-2.6652 1.5102v-4.8862h-2.221v11.7269h2.221v-4.7085c0-1.5103.8884-2.1322 1.8656-2.1322 1.0661 0 1.5103.7996 1.5103 1.8657v4.975h2.221v-5.5969c0-1.5991-1.4215-2.754-2.9317-2.754Zm8.8839 0c-3.1094 0-4.1754 2.2209-4.1754 4.2643 0 2.4875 1.2437 4.2642 3.9089 4.3531 2.1321 0 3.9978-.6219 4.0866-2.9317h-2.1321c0 .8884-.7108 1.5103-1.5992 1.5103-1.5102 0-1.9544-1.0661-1.9544-2.3987h5.9522c.0889-2.4875-.9772-4.7973-4.0866-4.7973Zm1.5991 3.4647h-3.4647c.0888-1.0661.6219-2.0433 1.7768-2.0433s1.7768.8884 1.6879 2.0433Zm15.8135-1.0661c1.2437-.4442 2.2209-1.3326 2.1321-2.754-.0888-2.3098-2.221-2.9317-4.2643-2.9317h-4.5308V28.784h4.2643c1.0661 0 2.0433-.0888 2.8429-.3554.8884-.3553 1.5102-.8883 1.8656-1.5991.4442-.7995.3553-1.8656-.0889-2.6651-.533-.8884-1.2437-1.155-2.2209-1.4215Zm-4.442-3.9978h2.3098c1.2438 0 1.9545.6219 1.8656 1.5103 0 .9772-.6218 1.5103-1.8656 1.5103h-2.3098v-3.0206Zm2.4875 8.2621h-2.4875v-3.4647h2.5763c1.5103 0 2.0433.8884 2.0433 1.6879 0 .9773-.533 1.7768-2.1321 1.7768Zm9.6835-6.6629c-1.9545 0-3.3759.7107-3.4647 2.5763h2.1321c-.0888-.8884.533-1.3326 1.3326-1.3326 1.2438 0 1.7768.533 1.5991 1.9545-1.1549.0888-2.754 0-3.9978.533-.8884.4442-1.5102 1.1549-1.5102 2.3987 0 1.5991 1.066 2.4875 2.6651 2.5763 1.155.0889 2.4876-.3553 2.9318-1.4214l.0888 1.1549h1.9545c.1776-2.0433.1776-3.9978.1776-5.9522 0-1.688-1.7768-2.4875-3.9089-2.4875Zm-.1777 7.196c-.7995-.0889-1.3326-.4442-1.3326-1.2438 0-1.688 2.221-1.5103 3.2871-1.5103.0888 1.3326 0 2.7541-1.9545 2.7541Zm11.3716-7.1072c-1.155 0-2.221.4442-2.843 1.5103v-1.3326h-2.221v8.1732h2.221v-4.7085c0-1.5103.888-2.1321 1.866-2.1321.977 0 1.51.7995 1.51 1.8656v4.975h2.221v-5.5969c0-1.9545-1.422-2.754-2.754-2.754Zm4.975-3.4648V28.784h2.221V16.9683h-2.221Zm7.995 3.6425h-2.665l-3.109 3.4647 3.465 4.7085v-.0888h2.931l-3.82-4.7085 3.198-3.3759ZM131.305 0v28.784H160V0h-28.695Zm24.697 24.7862h-20.699V3.99778h20.699V24.7862Z"/>
		<path d="M153.781 6.75391h-5.064L137.524 21.7678h5.064l11.193-15.01389Z"/>
	</g>
</svg>