<svg xmlns="http://www.w3.org/2000/svg" viewBox="0 0 100 36">
	<g fill="#fff">
		<path d="M47.6359 8.88109c.7163-.57306 1.0745-1.57593 1.0028-2.65043-.0716-1.00286-.573-1.5043-1.0028-1.79083-.5015-.28653-1.1462-.35817-2.0058-.35817h-.7879l.2149-1.43266h3.1518l.3582-1.790834h-5.5874L41.9768 9.59742h3.2952c.5014 0 1.5759-.07163 2.3639-.71633Zm-2.937-2.93696h.7163c.1433 0 .3582 0 .5731.2149.1433.14326.2149.35816.2149.50143 0 .4298-.1433.71633-.3582.93123-.1432.14327-.3581.2149-.6447.2149h-.7163l.2149-1.86246Zm6.2321 3.65329.7163-1.64756h2.0774l.2865 1.64756h2.2207L54.6559.858166h-2.2922L48.5671 9.59742h2.3639Zm1.8625-4.87106c.1432-.4298.1432-.28653.4298-1.36103-.0717.6447-.0717.93123 0 1.21777l.2149 1.57593h-1.0745l.4298-1.43267Zm6.5902 1.21777h1.7909l-.4298 3.65329h2.2922L64.0399.858166h-2.2206l-.3582 3.223494h-1.7908l.3581-3.223494h-2.2922L56.7333 9.59742h2.2923l.3581-3.65329Zm7.8797-.2149h.3581c.1433 0 .5015.07163.7164.28653.2149.2149.2149.57307.2865.8596l.1433 1.00287c0 .4298 0 .71633.3581 1.0745.4298.57306 1.0745.57306 1.576.64469l.6447.07164.6447-1.43267-.3582-.14326c-.1433-.07164-.2865-.07164-.4298-.2149-.2865-.2149-.2865-.50144-.3582-.78797l-.2865-.93123c-.0716-.28654-.1433-.57307-.2865-.78797-.1433-.2149-.4298-.4298-.7164-.50143V4.798c.5015-.07164.7164-.35817.7164-.35817.0716-.07163.2865-.28653.573-.93123l.3582-.78797c.0716-.14327.2149-.35816.3582-.50143.1432-.07163.2865-.14327.4298-.14327l.573-.14326L72.2061.5l-.7164.071633c-.573.071633-.9312.143267-1.2894.429797-.2865.2149-.5014.50144-.7163 1.00287l-.3582 1.00286c-.0716.28654-.2149.57307-.4298.71634-.2865.28653-.573.28653-.7879.28653h-.5015L67.8364.7149h-2.2206L64.613 9.45416h2.2206l.4298-3.72493ZM47.6359 14.182c-.0717-.5015-.2149-1.0029-.8596-1.5043-.2866-.1433-.9313-.5015-2.2923-.5015h-2.8653l-1.0029 8.7393h2.2206l.3582-3.0802h.8596c.8596 0 2.0774-.2149 2.937-1.1462.4298-.6447.7163-1.5759.6447-2.5071Zm-2.6505 1.5043c-.3581.3581-.7163.3581-.9312.3581h-.6447l.2149-2.0057h.7163c.1433 0 .4298 0 .6447.1433.1433.1432.2149.2865.2149.4298 0 .3581-.0716.8596-.2149 1.0745Zm5.874-3.4384-3.7966 8.7392h2.4355l.7164-1.6476h2.0773l.2866 1.6476h2.2922l-1.6475-8.7392h-2.3639Zm0 5.3008.5014-1.4326c.1433-.4298.1433-.2866.4298-1.3611-.0716.6447-.0716.9313 0 1.2178l.2149 1.5759h-1.1461Zm10.3152-1.9341c.2865-.3581.5014-.9312.4297-1.5043-.0716-.7879-.5014-1.2177-.7879-1.5043-.5731-.4298-1.2894-.5014-1.9341-.5014-.7163 0-1.2894.0716-1.9341.2865-.3582.1433-.7163.2149-.9312.4298l.7879 1.6476c.6447-.4298 1.1462-.5014 1.576-.5014.2149 0 .5014 0 .7163.2149.1433.1432.2149.3581.2149.5014.0716.4298-.0716.7163-.3582.8596-.2865.1433-.7163.2149-1.0028.2149h-.6447l-.2149 1.6476v.0716h.7163c.4298 0 .7163 0 .8596.1433.2865.2149.3582.5014.3582.6446 0 .5015-.1433.788-.4298.9313-.2866.2149-.6447.2865-1.0029.2865-.3582 0-.6447-.0716-.8596-.1433-.2149-.0716-.5014-.2148-.7163-.4297l-1.0029 1.5042c.2865.2149.6447.4298.9312.5731.5731.2865 1.2178.3582 1.7192.3582 1.2894 0 2.149-.3582 2.7937-.8596.7164-.6447 1.0745-1.576 1.0029-2.5072 0-.3581-.1433-.7163-.3582-.9312 0 0-.3581-.5014-1.0028-.6447.4298-.2149.8596-.5014 1.0745-.788Zm8.1661-1.7192c-.0716-1.0028-.8596-1.7192-2.0057-1.7192v.0717h-3.8682l-1.0028 8.7392h3.51c2.8653 0 3.2951-2.0774 3.2235-3.0086-.0717-.8596-.7164-1.4326-1.3611-1.6475 1.2178-.4298 1.576-1.576 1.5043-2.4356Zm-3.51 5.2292h-.8596l.2149-1.7191h.788c.573 0 .7163.2149.7163.573.0716.5731-.2865 1.1461-.8596 1.1461Zm.3582-3.5816h-.8596l.1432-1.5043h.8596c.5015 0 .7164.1433.7164.5014.0716.6447-.3582 1.0029-.8596 1.0029Zm7.3782.5014c-.2865.5731-.5014.9313-.7163 1.5043.0716-.2149.2149-1.2177.2865-1.6475l.4298-3.6533h-2.2206l-1.0029 8.7392h2.2923l2.0773-3.7965c.3582-.7164.7164-1.2894.7164-1.5043-.2149 1.1461-.2866 1.4326-.2866 1.6475l-.4298 3.6533h2.2207l1.0028-8.7392h-2.2922l-2.0774 3.7965Zm6.5186 4.9427h2.149l.788-6.9484h2.0774l.5014-1.8625h-6.5903l-.2149 1.8625h2.0774l-.788 6.9484Zm7.6648 0 2.0774-3.7965c.3581-.7164.7163-1.2894.7163-1.5043-.2149 1.1461-.2865 1.4326-.2865 1.6475l-.4298 3.6533h2.2206l1.0029-8.7392h-2.2207l-2.0773 3.7965c-.2866.5731-.5015.9313-.7164 1.5043.0717-.2149.2149-1.2177.2866-1.6475l.4298-3.6533h-2.2207l-1.0028 8.7392h2.2206Zm11.8911-6.9484.3582-1.8625h-5.0143l-1.0029 8.8109h5.1576l.2149-1.8625h-3.0086l.2149-1.7908h2.149l.2149-1.7908h-2.149l.1433-1.5043h2.722Zm-57.235 13.0372c.1433-.5014.2866-.9312.5731-1.2177.2865-.2866.7163-.5731 1.2178-.5731.3581 0 .8596.0716 1.2894.4298l1.0028-1.5043c-.3581-.2865-.9312-.6447-2.149-.6447-1.7192 0-2.6504.7163-3.1518 1.1461-1.2178 1.2178-1.6476 3.2235-1.5043 4.9427 0 .5731.2149 1.3611.9312 2.0774.788.7163 1.7908.8596 2.3639.8596.788 0 1.9341-.1433 2.7937-.9312l-.788-1.576c-.2865.2866-.7879.6447-1.5043.6447-.3581 0-.7163-.1432-.8596-.3581-.2865-.2866-.4298-.7164-.4298-.9313-.0716-.3581 0-.9312 0-1.2177.1433-.3582.1433-.788.2149-1.1462Zm4.4413-3.4384L46.633 25.5h2.0774l-.788 6.8768h2.2206l.788-6.8768h2.0774l.5014-1.8625h-6.6619Zm14.255 3.0803c-.1432-1.1462-.573-1.8625-.9312-2.3639-.7163-.788-1.6476-.9313-2.3639-.9313-1.5759 0-2.6504.6447-3.4384 1.576-.9312 1.1461-1.2894 3.0086-1.1461 4.5129 0 .6447.2149 1.5043.9312 2.2206.788.7163 1.7192.8596 2.4355.8596 1.4327 0 2.4356-.5014 3.2235-1.2894 1.0029-1.1461 1.4327-3.0086 1.2894-4.5845Zm-2.9369 2.7937c-.5015 1.2894-1.1462 1.361-1.5043 1.361-.2866 0-.5731-.0716-.7164-.2149-.3581-.2865-.4298-.8596-.4298-1.0029-.0716-.9312.1433-2.2922.4298-3.0086.4298-1.0028.9313-1.2894 1.576-1.2894.1432 0 .5014 0 .7163.2149.2865.2866.3582.7164.2865.9313.1433 1.1461-.0716 2.2206-.3581 3.0086Zm7.5931 2.9369v-.1432.1432Zm-2.4356-7.3066c-.1432.8596-.4298 2.5788-.6447 3.4384-.0716.4298-.2865 1.0029-.4297 1.3611-.1433.2865-.2866.5014-.5731.6447-.1433.0716-.4298.2149-.6447.2865l-.2865.0716.2865 1.576.7163-.0717c.7164-.0716 1.4327-.2865 1.9341-.7879.4298-.5015.6447-1.2178.7163-1.7192.2149-.8596.3582-1.7192.5015-2.5072l.3582-2.0774h1.361l-.788 6.8768h2.2206l1.0029-8.7392h-5.5157l-.215 1.6475Zm9.8138 2.3639c-.2865.5731-.5014.9313-.7163 1.5043.0716-.2149.2149-1.2177.2865-1.6475l.4298-3.6533h-2.2206l-1.0029 8.7392h2.2923l2.0773-3.7965c.3582-.7164.7164-1.2894.7164-1.5043-.2149 1.1461-.2866 1.4326-.2866 1.6475l-.4298 3.6533h2.2207l1.0028-8.7392h-2.2922l-2.0774 3.7965Zm11.6046 3.0086.8596-6.8768h-2.2923l-.7879 6.8768h-1.7192l.7879-6.8768h-2.149l-1.0028 8.7393h4.9427l-.2866 2.149h2.0774l.5014-4.0115h-.9312Zm4.7278-6.8051-3.7966 8.7392h2.4356l.7163-1.6475h2.0774l.2865 1.6475h2.2206l-1.5759-8.7392h-2.3639Zm0 5.3008.5014-1.4326c.1433-.4298.1433-.2866.4298-1.3611-.0716.6447-.0716.9313 0 1.2178l.2149 1.5759h-1.1461ZM36.0313.7149h-5.3725c-.3582 0-.7164.28653-.7164.6447l-1.7192 16.0459c-.0716.2865-1.1461 8.5243-9.4555 8.5243h-8.3811c-.3582 0-.71637.2865-.71637.6447l-.57306 5.4441c0 .1433 0 .2866.14326.3582.07164.0716.2149.1433.35817.1433h8.3811c14.9713 0 16.6905-14.7565 16.7622-15.3295l1.7192-15.90263c0-.14327 0-.28654-.0717-.35817-.0716-.143267-.2149-.2149-.3581-.2149Z"/>
		<path d="M17.2638 15.3997h5.086c1.361 0 2.5788-1.0745 2.722-2.4355l.215-2.0057c0-.1433 0-.2866-.1433-.3582-.0716-.0716-.2149-.1433-.3582-.1433h-7.02c-2.4356 0-6.3038 1.6476-6.7336 6.2321-.5014 4.5129 3.0086 6.2321 5.4442 6.2321h4.298c1.361 0 2.5788-1.0745 2.722-2.4355l.2149-1.9341c0-.1433 0-.2865-.1432-.3582-.0717-.0716-.2149-.1432-.3582-.1432h-6.2321c-.788 0-1.1461-.8596-1.0745-1.2178.0716-.5014.1433-1.4327 1.361-1.4327Z"/>
		<path d="M17.6218 7.306h8.3811c.3581 0 .7163-.28653.7163-.6447l.5731-5.44413c0-.14327 0-.286533-.1433-.358166-.0716 0-.2149-.071633-.2865-.071633h-8.3811C3.4384.715737 1.7192 15.4006 1.64756 15.9736L0 32.0195c0 .1432-8.2e-7.2865.143266.3581.071633.0717.2149.1433.358166.1433H5.87393c.35816 0 .71633-.2865.71633-.6447l1.7192-16.0458c0-.2866 1.00286-8.5244 9.31234-8.5244Z"/>
	</g>
</svg>