<svg xmlns="http://www.w3.org/2000/svg" viewBox="0 0 160 30">
	<path fill="#fff" d="M15.1777 22.712h2.2538v5.8809h-2.6764v-3.4775H2.67635v3.4775H0V22.712c1.66392-.4578 2.61472-1.5671 3.16936-2.7116.24651-.5899.449-1.4262.55464-2.5707.28172-2.2626.28172-4.4547.28172-9.00629H15.1689l.0088 14.28859Zm-2.6499 0V10.818H6.78772c-.10565 7.0959-.65148 10.1596-2.67635 11.894h8.41643Zm37.3633 2.3682.0088-14.2534h-6.4004c0 5.4584-.1232 9.0151-.8804 11.2689-.4049 1.2061-1.391 2.7908-2.6675 3.6359l-1.9809-1.9896c1.1181-.8452 1.6639-1.6727 2.1393-2.7996.3786-.898.4226-2.0865.5283-4.3491 0-2.2626.0704-4.4987.0704-8.21391H52.673V25.0802h-2.7819Zm-14.7024-2.9493c-1.5054 2.1305-4.1113 3.3278-7.1046 3.3278-4.9389 0-8.6629-3.5831-8.6629-8.6981s3.5479-8.69815 8.4516-8.69815c4.5956 0 8.5661 3.30145 8.5661 8.20515 0 .6603-.0352 1.2501-.1409 1.8048H22.0975c.5194 3.0285 2.8172 4.8685 6.0218 4.8685 2.1921 0 4.2786-1.0829 5.2206-2.7116l1.8488 1.9016Zm-13.1176-6.5852h11.6298c-.1761-1.5319-.9772-2.7468-1.9192-3.6536-3.0285-2.74678-9.5345-1.0036-9.7106 3.6536Zm53.4302-7.15751H64.1268c-4.6308 0-8.3812 3.75041-8.3812 8.38121 0 4.6308 3.7504 8.3812 8.3812 8.3812h11.3657c4.6308 0 8.3812-3.7504 8.3812-8.3812s-3.7504-8.38121-8.3724-8.38121Zm-.0969 14.28851c-3.2662 0-5.9161-2.6499-5.9161-5.9161s2.6499-5.9162 5.9161-5.9162 5.9162 2.65 5.9162 5.9162-2.65 5.9161-5.9162 5.9161Zm61.6526 2.0425v-7.2631h-8.786v7.2631h-2.791V7.96561h2.791v6.91099h8.786V7.96561h2.791V24.7192h-2.791Zm19.052 0-6.524-7.1222h-3.037c0 4.0145 0 6.3827.035 7.1222h-2.791c.035-1.6727.035-4.4635.035-8.3724 0-3.9089 0-6.69967-.035-8.37239h2.791c-.035 1.43502-.035 3.76799-.035 7.05179h3.099l6.312-7.05179h3.486l-7.289 8.13469L160 24.728l-3.891-.0088Zm-34.3-2.8348c-.334.5546-.827.8452-1.391.7043-.537-.1321-.898-.6427-.898-1.1973v-8.2139c0-3.21343-2.755-5.54643-6.488-5.54643-2.307 0-4.235.75712-5.406 1.97204l1.867 1.86639c.607-.7835 1.822-1.2941 3.336-1.2941 2.263 0 3.909 1.435 3.909 3.3454v1.2589c-2.579.2818-4.393.5195-5.476.766-3.345.6955-5.335 2.4738-5.335 5.1678 0 2.6147 2.095 4.3579 5.3 4.3579 2.271 0 4.111-.4754 5.582-2.1834.317 1.4967 1.778 2.1834 3.627 2.1834 1.25 0 2.342-.5459 3.116-1.4527l-1.743-1.7343Zm-5.08-2.0953c-1.223 1.6727-3.134 2.6851-5.194 2.6851-1.637 0-2.72-.7219-2.72-2.0864 0-1.1181.871-1.9457 2.368-2.3683 1.153-.3169 3.002-.449 5.546-.7571v2.5267ZM95.8292 8.27374c-2.289-.08804-4.3755.73952-5.9426 2.14816.2994-2.39466 1.9457-4.38432 4.1642-5.10623 2.7468-.90679 6.3032.42258 9.8422-2.81721L101.895.5h-.035c-2.5797 2.42104-5.7139 1.37339-8.1789 2.04248-3.7592 1.01243-6.5412 4.45471-6.5764 8.56612v5.564c0 4.6395 3.7592 8.3988 8.3988 8.3988 4.7455 0 8.5745-3.9353 8.3895-8.7246-.176-4.3579-3.715-7.90579-8.0638-8.07306Zm.1321 14.04206c-3.4863.2729-6.3828-2.6235-6.1011-6.1098.2201-2.7468 2.4387-4.9654 5.1855-5.1855 3.4863-.2817 6.3823 2.6236 6.1013 6.1099-.229 2.7379-2.4478 4.9653-5.1857 5.1854Z"/>
</svg>