<svg xmlns="http://www.w3.org/2000/svg" viewBox="0 0 160 34">
	<path fill="#cd163a" d="M159.5 15.6c-.3-.3-.7-.4-1.1-.4H156c-.2-2.3-1.1-4.5-2.6-6.3l1.8-1.8c.3-.3.5-.6.5-1s0-.8-.3-1.1c-.3-.2-.7-.4-1.1-.3-.4 0-.7.2-1 .5L151.5 7c-1.8-1.5-4.1-2.5-6.5-2.7V1.6c0-.4 0-.8-.4-1.1s-.6-.5-1-.5-.8.2-1 .5c-.3.3-.4.7-.4 1.1v2.6c-2.4.3-4.6 1.2-6.4 2.7L133.9 5c-.3-.3-.6-.5-1-.5s-.8 0-1.1.3c-.2.3-.4.7-.3 1.1 0 .4.2.7.5 1l1.9 1.9c-1.4 1.8-2.3 4-2.6 6.3h-2.9c-.4 0-.8 0-1.1.4s-.5.6-.5 1 .2.8.5 1c.3.3.7.4 1.1.4h2.9c.3 2.3 1.2 4.5 2.7 6.4l-1.9 1.9c-.3.3-.5.6-.5 1s0 .8.3 1.1c.3.2.7.4 1.1.3.4 0 .7-.2 1-.5l1.8-1.9c1.8 1.4 4 2.3 6.3 2.6V32c0 .2.2.4.3.5.1.2.3.3.5.4.2 0 .4.1.6.2.4 0 .8-.2 1-.5.3-.3.4-.7.4-1.1v-2.6c2.3-.2 4.5-1.1 6.3-2.6l1.8 1.8c.3.3.6.5 1 .5s.8 0 1.1-.3c.2-.3.4-.7.3-1.1 0-.4-.2-.8-.5-1l-1.8-1.8c1.5-1.8 2.5-4.1 2.8-6.4h2.4c.4 0 .8 0 1.1-.4.3-.3.5-.6.5-1s-.2-.8-.5-1Zm-17-7v4.1c-.3.1-.7.3-1 .4l-2.9-2.9c1.1-.9 2.4-1.5 3.8-1.7Zm-5.2 3.1 2.9 2.9c-.2.4-.4.8-.5 1.2h-4.1c.2-1.5.7-2.9 1.6-4Zm-1.6 5.9h4.1c.1.4.3.8.5 1.2l-2.9 2.9c-.9-1.2-1.5-2.6-1.7-4Zm3.1 5.4 2.9-2.9c.3.2.5.3.8.4v4.1c-1.3-.2-2.6-.7-3.7-1.6Zm10-12.7-2.9 2.9c-.4-.3-.9-.5-1.4-.6v-4c1.5.2 3 .8 4.2 1.8Zm-4.3 14.3v-4c.4 0 .9-.2 1.3-.5l2.9 2.9c-1.2.9-2.6 1.5-4.1 1.7Zm5.5-3-2.9-2.9c.2-.3.4-.7.5-1.1h4.1c-.2 1.4-.8 2.8-1.7 4Zm-2.4-5.9c0-.4-.2-.7-.4-1.1l2.9-2.9c.9 1.2 1.4 2.5 1.6 4h-4.1Z"/>
	<g fill="#fff">
		<path d="m50.9 13.4-1.2 4.3v-7.2h-5.2v14.6h5.2l2.1-7.5v7.5h5.3V10.5h-5.3l-.8 2.9ZM123.3 25c0-.2 0-.3-.1-.3-1.3-2.3-2.5-4.5-3.8-6.8 0-.1-.1-.3-.1-.4s0-.3.1-.4c1.2-2.1 2.3-4.2 3.5-6.2 0-.1.1-.2.2-.4H117s-.1 0-.2.1c-.5 1.1-.9 2.2-1.4 3.4l-.7 1.7s0 .2-.1.3c0 .1 0 0 0 0v-5.7h-5.3v14.6h5.4V19c.1.1.2.2.2.4l.5 1.3 1.5 3.9c0 .1 0 .2.2.3h6.4ZM38 11.6v4h-2v-5.2h-5.2V25h5.3v-6h2.1v6h5.2V10.4h-5.2v1.2ZM102.8 10.5v5.2h-2.1v-5.2h-5.2v14.6H100.3c.4 0 .4-.1.4-.5V19h2.1v6.1h5.3V10.5h-5.3ZM64 17.7c.9-.2 1.5-.7 1.8-1.6.3-.9.3-1.8.2-2.7-.4-1.8-2.1-3.2-4.3-3.4-1.1 0-2.2.2-3.2.7 0 0-.2 0-.2.2v4c.5-.1 1-.3 1.5-.4.4 0 .9 0 1.3.1.1 0 .3.1.3.2s.1.3.1.4c0 .3 0 .6-.4.7-.3.1-.5.2-.8.2h-.8v3h.7c.2 0 .5 0 .7.1.7.2.8.8.3 1.3-.1.1-.3.3-.5.3-.1 0-.2 0-.4.1-.3 0-.7 0-1-.1-.2-.1-.5-.3-.7-.4-.2 0-.3-.2-.5-.3V24c0 .5.2.7.6.9 1.3.6 2.7.8 4.1.4 2.3-.6 3.8-2.6 3.6-4.7 0-1.4-.8-2.6-2.3-2.9ZM75.7 12.3H72.9v-1.9h4.9c.3 0 .4 0 .4-.4V4.8H67.6v20.7h8c1 0 2-.3 2.9-.7 1.3-.6 2.1-1.6 2.4-3 .3-1.5.4-3 0-4.5-.8-3-2.2-4.3-5.1-4.6Zm-.2 6.8c-.1.5-.8 1-1.5 1h-1.1v-3.3H74.7c.2 0 .4.1.6.3 0 .1.2.2.2.3V19ZM15.6 19.4v-15H2.1V16.3c0 .9-.2 1.7-.7 2.5-.2.3-.4.6-.7.7H.1V29h5.6c0-1.3-.2-2.6-.3-3.9h5.5l-.2 3.9h5.6v-9.5c-.3 0-.5 0-.6-.2Zm-5.8.1H6c.6-.8.9-1.8 1.1-2.7V10.6c0-.3 0-.4.4-.4H9.6v9.5ZM89.3 12.3l-.2-.2c-.6-.7-1.2-1.5-2.1-1.8-1.7-.6-3.4.2-4.3 1.9-1.3 2.5-1.6 5.2-1.2 7.9.2 1.5.8 2.9 1.7 4.1.3.4.6.7 1.1 1 .4.2.9.4 1.4.4.5 0 1 0 1.4-.2.2 0 .3-.1.5-.2s.3-.2.5-.4l.2-.2c.2-.2.4-.5.6-.7h.1v-.2c0-.2.1-.3.2-.4l.1-.1.1-.2v2.2h5V10.6h-5.2v1.8Zm-.1 6.4c0 .3-.2.6-.5.8-.5.5-1.2.5-1.7 0-.7-.8-.8-2.5 0-3.3.1-.1.3-.2.4-.3h.5c.2 0 .4 0 .5.1h.2l.2.2c.1.2.2.3.3.5v1.1c0 .3 0 .6-.1.9Z"/>
		<path d="M22.2 19H29.6c0-1.1 0-2.2-.2-3.2-.4-2.2-1.6-3.8-3.6-5-.7-.4-1.5-.7-2.4-.7-3-.2-5.4 1.9-6.2 3.8-1.1 2.8-1.1 5.6.3 8.3.6 1.2 1.5 2.1 2.7 2.7 2.6 1.2 4.9.8 7.1-.9 1-.8 1.5-2 1.9-3.2-1.6-.2-3.2-.3-4.7-.4h-.1l-.1.1c-.2.2-.3.5-.5.7-.5.5-1 .5-1.4-.1-.2-.4-.3-.8-.4-1.2v-.7s.2-.1.4-.1Zm1.2-4.9c.2 0 .3 0 .4.2.1.1.2.2.3.4v.3c0 .1 0 .3.1.4 0 .1 0 .2.1.4h-2.5c-.2-.9.7-1.9 1.4-1.7Z"/>
	</g>
</svg>