<svg xmlns="http://www.w3.org/2000/svg" viewBox="0 0 140 32">
	<path fill="#fff" d="M29.8235.5H0v29.8235h29.8235V.5Zm6.595 21.4372h5.5593v1.0102h-4.4474v2.6367h2.0395c.6093-.0186 1.2178.0564 1.8044.2224.4413.1384.8209.4259 1.0737.8132.2734.4116.4132.8975.4003 1.3914.0065.4212-.0894.8377-.2796 1.2136-.1973.3793-.4966.6962-.8641.9149-.6068.2907-1.2797.4157-1.9505.3621h-3.3356v-8.5645Zm1.1373 7.6242h2.2618c.4891.0382.9763-.0943 1.3788-.3748.1576-.1383.281-.3112.3604-.5053.0794-.194.1126-.4039.097-.613.0111-.3168-.0803-.6287-.2605-.8895-.1754-.2496-.4347-.4277-.7306-.5019-.526-.0962-1.0603-.1388-1.5948-.1271h-1.5121v3.0116Zm12.0717.9657 3.2848-8.5645h1.2262l3.5008 8.5645h-1.2707l-.9975-2.5985h-3.6342l-.9086 2.5414-1.2008.0571Zm2.4715-3.5452h2.9036l-1.4931-4.1171-1.4105 4.1171Zm13.0565 3.5198v-8.5645h1.1373v3.5135h4.4475v-3.5135h1.1373v8.5645h-1.1373v-4.0408h-4.4475v4.0408h-1.1373Zm15.204-8.5645h1.131v3.7486c.3885.0369.7771-.0693 1.0928-.2987.343-.4377.6153-.9265.8069-1.4486.16-.4122.3556-.8097.5845-1.1881.1643-.2408.3817-.4408.6354-.5845.2871-.16.6116-.2411.9403-.2351.2285-.0127.4576-.0127.6862 0v.9785h-.4638c-.1456-.0128-.2923.0043-.431.0502-.1388.0458-.2667.1196-.3759.2166-.2792.3302-.4946.7094-.6354 1.1182-.1587.4979-.4062.9628-.7306 1.3724-.2095.1902-.4503.3428-.7116.4511.7049.2992 1.278.843 1.6138 1.5312l1.7599 2.8527h-1.3787l-1.4359-2.3254c-.2681-.4842-.5993-.9307-.9848-1.3278-.2873-.2418-.654-.3686-1.0293-.3558v4.009h-1.1309l.0571-8.5645ZM57.5824 9.87131v2.54139h6.6649v3.6279H53.5289V.531616H64.044V4.15948h-6.4616v2.2301h5.5467v3.48173h-5.5467ZM50.5487.5H39.6778v3.81212c.0195 1.47316-.1276 2.94381-.4384 4.38394-.2929 1.31264-.7995 2.56834-1.4994 3.71684h-1.1309v6.5124h3.4182v-2.8846h8.6598v2.8846h3.4119v-6.5124h-1.5503V.5Zm-4.0535 11.9129h-4.3141c.4331-.8316.7495-1.7188.9403-2.63674.2791-1.39718.4132-2.81944.4003-4.24416V4.15328h2.9735v8.25962ZM130.616.531616h3.869L140 16.0406h-4.308l-.896-2.7574h-4.511l-.876 2.732h-4.289L130.616.531616Zm1.963 5.476744-1.271 4.00274h2.58l-1.271-4.00274h-.038ZM107.177.531616h-3.863L98.2698 14.7699 93.2886 7.781 99.0703.53797h-4.8795L90.4422 5.8114V.531616h-4.0345V5.8114L82.6401.531616h-4.8732l5.7754 7.243034-5.8834 8.25955h4.9367l3.8121-5.8643v5.8643h4.0536v-5.8579l3.8121 5.8643h7.8526l.884-2.7574h4.511l.895 2.7574h4.308L107.177.531616Zm-3.234 9.498584 1.309-4.02184 1.271 4.00274-2.58.0191ZM72.7542.531519c1.3863-.067456 2.7572.315948 3.9074 1.092811 1.0547.78148 1.7218 2.09031 1.7218 4.04085 0 2.47152-.9975 3.81212-2.2237 4.51102-1.0816.5529-2.2868.8198-3.5008.7751h-1.9061v5.0828H66.712V.531519h6.0422Zm-.6353 6.804641c.5356.04934 1.0719-.08754 1.5184-.38757.168-.15974.298-.3551.3804-.57171.0825-.21661.1154-.44895.0962-.67994 0-1.53755-1.2707-1.53755-1.9061-1.53755h-1.4295v3.17677h1.3406Zm53.0901 4.16164c.006-.3717-.032-.7429-.114-1.1055-.071-.3162-.177-.62314-.318-.91491-.405-.80097-1.08-1.43321-1.906-1.78534.355-.20362.669-.47066.927-.78784.503-.63668.762-1.43203.731-2.2428.036-.98229-.277-1.94561-.883-2.71931-.686-.81325-1.855-1.410484-3.812-1.410484h-6.532V16.0406h6.176c1.317.0679 2.629-.2011 3.812-.7815 1.112-.6353 1.906-1.7853 1.906-3.7295l.013-.0318Zm-7.847-7.33832h1.659c.205-.02233.414-.00105.611.06244s.378.16778.532.30607c.166.18391.253.42594.242.67347-.001.26605-.088.52473-.248.73701-.125.1377-.28.24484-.453.31314-.173.0683-.359.09594-.545.08078h-1.81l.012-2.17291Zm3.094 7.98642c-.271.173-.586.2656-.908.2668h-2.186V9.82684h1.76c.473-.02985.945.06202 1.373.26686.167.1118.301.2675.386.4501.085.1827.119.3852.096.5855.011.2004-.032.3999-.123.5785-.092.1785-.229.3296-.398.4381ZM22.7397 25.7505c-2.1425 1.9882-4.956 3.0949-7.8788 3.0992-2.9247.0003-5.74149-1.1047-7.88588-3.0936-2.14439-1.9889-3.45798-4.7146-3.67754-7.6311H26.418c-.2224 2.9143-1.5359 5.6374-3.6783 7.6255Zm-3.778-1.4334c1.2461-.7253 2.2777-1.768 2.9898-3.0217H7.76402c.71204 1.2537 1.74364 2.2964 2.98978 3.0217 1.246.7253 2.6621 1.1074 4.1039 1.1074 1.4419 0 2.8579-.3821 4.104-1.1074ZM11.0552 2.05689h3.1767V16.7717H3.27207v-.1462c-.00153-2.4081.74715-4.7568 2.14198-6.71987 1.39484-1.96301 3.36654-3.44276 5.64115-4.23358V2.05689ZM7.28751 13.5758h3.76769V9.39522c-1.70966.90558-3.04414 2.38638-3.76769 4.18058ZM24.276 9.90563c1.3949 1.96307 2.1435 4.31177 2.142 6.71987v.1525H15.4582V2.05689h3.1767v3.61516c2.2746.79082 4.2463 2.27057 5.6411 4.23358Zm-5.6411-.51041v4.19338h3.774c-.7216-1.8007-2.0591-3.2867-3.774-4.19338Z"/>
</svg>