<svg xmlns="http://www.w3.org/2000/svg" viewBox="0 0 170 28">
	<g fill="#fff">
		<path d="M57.2336 11.4532c-.8265-.4147-1.8089-.6016-2.9139-.6016s-2.0705.2075-2.9139.6016c-.3735.1876-.7125.4064-1.015.6571-.2058.1706-.3948.3562-.5657.5561-.1332.1557-.2557.3204-.3673.4937-.4658.7242-.6903 1.5878-.6903 2.5533 0 .9656.2245 1.8292.6903 2.5533.4659.7245 1.105 1.2923 1.948 1.707.8264.4147 1.8089.6016 2.9139.6016s2.0874-.2072 2.9139-.6016c.826-.4147 1.4821-.9825 1.948-1.707.4658-.7241.7072-1.5877.7072-2.5533 0-.9655-.2414-1.8291-.7072-2.5533-.4659-.7241-1.122-1.2919-1.948-1.7069Zm-.3264 5.6371c-.1196.1886-.26.3553-.4257.5011-.169.1484-.3645.2749-.591.3798-.1557.0717-.3194.1308-.4921.1776-.3253.088-.6823.1315-1.0754.1315-.3137 0-.6056-.0275-.8739-.0837-.2457-.0514-.4715-.1265-.6763-.2254-.2172-.1003-.4054-.2205-.5694-.3609-.1754-.1501-.3228-.3234-.4473-.52-.1169-.1842-.2052-.3878-.2649-.6099-.0638-.2364-.0953-.4934-.0953-.7703 0-.5372.1188-.9825.3602-1.3802.0256-.0405.0525-.08.0804-.1186.0471-.0647.0973-.1268.1507-.1859l.0448-.0481c.1302-.1362.2776-.2567.4413-.362.0943-.0604.1942-.1158.2995-.1663.4486-.2072.9655-.3091 1.5502-.3091s1.1392.1019 1.5675.3091c.4486.2075.7753.5 1.0167.8809.1178.1859.2065.3918.2663.6162.0627.2344.0939.4894.0939.764-.0169.5339-.1188.9997-.3602 1.3802Zm-18.6387-6.0485h8.2891v7.0685h1.605v4.1716h-2.4142V20.402h-7.8607v1.8799h-2.4138v-4.1716h1.4313c.5203-.5339 1.8122-2.3424 1.3633-7.0685Zm5.7053 7.1024v-4.8449h-3.2911s.3603 3.0533-.8978 4.8449h4.1889Zm89.4562-3.1314c-.5-.2413-1.156-.3602-1.948-.3602h-3.329l.017-1.6047h6.225v-1.9652h-8.826v9.3634h5.896c.184 0 .362-.0076.534-.0232.132-.012.26-.0286.383-.0498.189-.0326.369-.0757.54-.1298.095-.0303.188-.0638.277-.101.044-.0179.087-.0368.129-.0564.517-.2417.914-.5681 1.19-1.0167.275-.432.415-.9486.415-1.5333 0-.585-.119-1.0847-.381-1.5336-.242-.3978-.622-.7411-1.122-.9825v-.007Zm-1.398 3.2572c-.049.0419-.101.0794-.157.1126-.064.0375-.132.0694-.205.0956-.155.0555-.332.0843-.535.0843h-3.016l.017-2.1385h2.999c.078 0 .152.0036.223.0109.045.0047.087.0106.129.0179.032.006.064.013.095.0206.175.0439.323.1179.45.2258.132.1112.221.246.272.4071.02.0621.035.1278.044.1979.007.0594.011.1218.011.1872 0 .3437-.102.5851-.327.7753v.0033ZM170 20.4461l-4.311-4.9332 3.845-4.4133h-2.982l-4.916 5.6746v-5.6746h-2.567v9.3465h2.326l2.692-3.0872 2.741 3.0872H170Zm-34.969.017 4.261-9.3635h3.389l4.26 9.3635h-2.757l-.775-1.792h-4.845l-.775 1.792h-2.758Zm5.967-7.4152-1.516 3.5188h3.033l-1.517-3.5188Zm14.209 1.5028h-4.795v-3.4511h-2.57v9.3465h2.57V16.842h4.795v3.6041h2.587v-9.3465h-2.587v3.4511Zm-95.0257 3.5055s1.5366.4316 2.3119-.585l.0033-.0033c.8264-1.0881 1.0336-2.8458 1.0336-4.2603.0173-1.2238.0173-2.1724.0173-2.1724h8.0679v9.3634h-2.5875v-7.0515H65.941s.1357 7.1568-4.0358 7.1568c-1.0678 0-1.7239-.3091-1.7239-.3091v-2.1386Zm15.7111-.2211v-6.7933h-2.5363v9.3602h3.2774l4.6716-6.9122v6.9122h2.5706v-9.3602H80.496l-4.6036 6.7933Zm12.3079-3.3286h4.7772v-3.4647h2.5872v9.3602h-2.5872v-3.6042h-4.7772v3.6042h-2.5838v-9.3602h2.5838v3.4647Zm31.7967 5.8955-4.328-4.9469 3.845-4.4133h-2.985l-4.913 5.6883v-5.6883h-2.567v9.3602h2.325l2.707-3.1041 2.727 3.1041h3.189Zm-17.639-7.3099c-.585 0-1.085.1019-1.517.3094-.431.2075-.758.4997-.9653.8806-.1408.2493-.2397.5256-.2942.8327-.0325.1826-.0491.3762-.0491.5817 0 .5508.1189 1.0167.3433 1.4144.2243.3978.5343.7072.9653.9144.432.2075.932.3095 1.517.3095.286 0 .549-.0206.792-.0624.198-.0342.383-.0824.554-.1448.398-.1395.707-.3639.949-.6395.173-.2072.312-.4486.397-.7241h2.639c-.136.6902-.394 1.3125-.81 1.8464-.465.6222-1.087 1.1049-1.863 1.4483-.775.3433-1.655.5166-2.655.5166-1.105 0-2.05-.1869-2.8628-.6016-.8125-.4147-1.4483-.9825-1.8969-1.707-.4489-.7241-.6733-1.5877-.6733-2.5533 0-.9655.2244-1.8291.6733-2.5533.4486-.7241 1.0877-1.2919 1.8969-1.7069.8298-.3941 1.7788-.6016 2.8628-.6016 1 0 1.88.1733 2.655.5166.758.3436 1.398.8264 1.863 1.4486.412.5372.691 1.1558.81 1.8461h-2.639c-.046-.1434-.105-.2733-.175-.3938-.065-.1109-.139-.2141-.222-.3134-.242-.2789-.568-.4828-.949-.6392-.398-.1564-.846-.2244-1.346-.2244Z"/>
		<path d="M16.4377.506955c-.5134-.074799-.867.469193-.578.887385 1.683 2.43097 2.6486 5.25293 2.6486 8.26528 0 7.93548-6.6877 14.56198-15.59218 16.12598-.323.0578-.48959-.3502-.2142-.5236C10.396 20.5259 14.3638 13.2874 11.6642 8.32684 10.209 5.65788 7.09466 4.1449 3.21532 3.84571c-.4556-.034-.80579.38759-.6664.80918.79899 2.41397 1.21039 4.98433 1.24099 7.65331.068 6.2049-2.01957 10.5874-3.569951 12.981-.598391.9214.095198 2.1148 1.223981 2.1148h9.95846c6.2491 0 9.6185-1.7136 12.352-3.961 2.5602-2.1045 4.6307-5.8275 4.6307-9.564 0-6.78294-5.1849-12.40306-11.9474-13.372045Z"/>
	</g>
</svg>