<svg xmlns="http://www.w3.org/2000/svg" viewBox="0 0 107 40">
	<path fill="#fff" d="M13.3497 35.2956H2.21678v-4.7045H13.3251v4.7045h.0246Zm2.2414-7.069H0V40h2.21678v-2.3645H15.5419v-9.4089h.0492ZM2.21678 7.06896l4.45809-4.70443V18.8423H2.21678V7.06896ZM0 21.1823h8.86696V0H5.56652L0 5.8867v15.2956ZM13.3497 2.36453h4.4582V18.8423h-4.4582V2.36453ZM11.133 21.1823H20V0h-8.867v21.1823Zm24.4089 0h2.2167V0h-3.3497v.0246349L31.0591 3.5468V0h-3.3497l-5.5173 5.8867v15.2956h2.2168V7.06896l4.4581-4.70443V21.1823h2.2167V7.06896l4.4582-4.70443V21.1823ZM0 25.8867h37.7832v-2.3645H0v2.3645Zm28.8917 4.7044h6.6502v4.7045h-6.6502v-4.7045Zm-2.2168 4.7045H20v-4.7045h6.6749v4.7045Zm2.2168 2.3399h8.8915v-9.4089H17.8079v9.4089h8.867V40h2.2168v-2.3645Zm41.9457-16.8473h1.9461c.8617 0 1.3791.6157 1.3791 1.4532 0 .8867-.5174 1.4532-1.3791 1.4532h-1.9461v-2.9064Zm0-1.8473v-2.1182h4.6304v-1.8473h-6.6252v10.5911h4.0148c1.9948 0 3.2513-1.3793 3.2513-3.3005 0-1.9211-1.2322-3.3005-3.2513-3.3005.0243-.0246-2.02-.0246-2.02-.0246Zm12.4878 3.0049h-2.4878l1.2809-3.8423 1.2069 3.8423Zm1.1331 3.6207h2.0443l-3.6209-10.5911h-1.5269l-3.6209 10.5911h2.0444l.6156-1.8719h3.5226l.5418 1.8719Zm9.4087 0h1.946V14.9754h-1.946v4.3349h-3.3748v-4.3349H88.547v10.5911h1.9452V21.133h3.3748v4.4335Zm9.113-5.6404 3.35-4.9507h-2.315L100.813 20v-5.0246h-1.946v10.5911h1.946v-5.5419l3.497 5.5419h2.389l-3.719-5.6404ZM55.0495 4.50781h-1.7243V35.493h1.7243V4.50781Z"/>
</svg>