<svg xmlns="http://www.w3.org/2000/svg" viewBox="0 0 145 40">
	<path fill="#fff" d="M35.7704 17.8917V8.94727h5.1101V10.16h-3.8321v2.3002h2.938v1.2129h-2.938v3.0134h3.9602v1.2153l-5.2382-.0101Zm7.9978-.9583h1.5066c.4847 0 .7032-.0904.8438-.2511.1394-.1542.2165-.3546.216-.5625-.0025-.2027-.0794-.3976-.216-.5473-.1406-.1531-.3591-.2511-.8438-.2511h-1.5066v1.612Zm1.0221-2.5563c.4744 0 .6653-.0879.8059-.2285.2908-.2991.2908-.7755 0-1.0746-.1406-.1406-.3315-.2285-.8059-.2285h-1.0221v1.5316h1.0221Zm.2811-2.491c.6906 0 1.0874.1658 1.3938.4345.3518.3056.5562.7469.5625 1.213-.0055.3998-.1605.7833-.4345 1.0746.5829.274.9528.8626.9466 1.5065.0047.4641-.1761.9107-.5021 1.2407-.3189.3315-.7785.5499-1.5344.5499h-2.9378v-6.0192h2.5059Zm6.9652 4.9841c-.6535-.0125-1.2635-.3292-1.6497-.8563v-2.25c.4073-.5354 1.0397-.8518 1.7125-.8563.0221 0 .0442.0002.0663.001 1.0618.0319 1.8965.9184 1.8646 1.9804.0003.0159.0003.0319 0 .048-.0168 1.0844-.9093 1.9498-1.9937 1.9332Zm-2.8625 4.088h1.2128l.0025-3.591c.5043.4338 1.1507.6663 1.8154.653.5279-.0005 1.047-.1374 1.5068-.3968.4368-.2677.8032-.6361 1.0686-1.0744.9177-1.5163.4325-3.4895-1.0836-4.4071-1.0691-.6048-2.4001-.488-3.3474.2938v-.55h-1.1751v9.0725Zm12.1257-7.194c-.4056-.5359-1.0379-.8526-1.71-.8564-1.0623-.0045-1.9272.8529-1.9319 1.9152 0 .0221.0002.0442.001.066-.0101 1.0847.8611 1.9717 1.9458 1.9815.0158.0003.0319.0003.0479 0 .6527-.0121 1.2622-.329 1.6472-.8564v-2.2499Zm.0402 3.5782c-.5131.4465-1.173.6878-1.8531.6781-.5279-.0005-1.047-.1374-1.5068-.3968-.9609-.5739-1.5443-1.6153-1.5317-2.7347-.0078-1.1243.5796-2.1693 1.5442-2.7469.447-.2586.9553-.3915 1.4717-.3842.6878-.0106 1.3556.2305 1.8782.6781v-.55h1.1826v6.0064h-1.175l-.0101-.55Zm2.5288-.5494c.6941.7971 1.7054 1.2466 2.7622 1.2278 1.4036 0 2.491-.7559 2.4784-2.0516-.0097-.5253-.2835-1.0105-.7282-1.2908.3048-.3099.4746-.7278.4721-1.1625 0-1.1575-1.1123-1.7577-2.2349-1.7577-.8749-.0229-1.724.2981-2.3654.8938l.6404.8187c.4613-.3825 1.0359-.6022 1.6346-.6253.5626 0 1.1.2411 1.1.791.005.1824-.0819.3549-.231.4596-.2153.1289-.4669.1826-.7158.1532h-.8564v1.0244h.8439c.4972 0 .7785.0628.9719.2285.1441.1366.2267.3263.2282.5249 0 .5751-.5221.9064-1.2378.9064-.7512-.0006-1.4704-.3047-1.9938-.8436l-.7684.7032Zm6.9428-4.9072h1.2127v4.0176l3.5006-4.0176h.8313v6.0064h-1.213v-4.0177l-3.5029 4.0177h-.8287v-6.0064Zm10.4332-.9624c.9879.0372 1.8192-.7338 1.8561-1.72201h-1.0221c.0017.02939.0017.05852 0 .0879-.0241.42367-.3873.74741-.8109.72331-.4237-.0244-.7477-.38754-.7233-.81121h-1.0219c.0349.93621.7858 1.68711 1.7221 1.72201Zm-1.5814.9624h-1.213v6.0064h.8312l3.5004-4.0177v4.0177h1.2129v-6.0064h-.8287l-3.5028 4.0176v-4.0176Zm11.8604 4.7282c-.6035.8815-1.6035 1.4079-2.6719 1.4061-1.8531 0-3.2065-1.3433-3.2065-3.1311-.0452-1.6844 1.2836-3.0865 2.968-3.1317.0585-.0017.1172-.0015.1758.0003.9967.002 1.9362.4656 2.5437 1.2556l-.8564.7155c-.4211-.4992-1.0344-.7968-1.6873-.8184-1.0498-.0176-1.915.8189-1.9325 1.8687-.0005.0374 0 .0751.0015.1125-.0269 1.0676.8167 1.9546 1.8842 1.9814.0365.0011.0731.0008.1095-.0002.719-.0181 1.3891-.3677 1.8155-.9468l.8564.6881Zm5.6215 1.2782h1.6221l-3.3471-3.3097 2.9629-2.6967h-1.6623l-2.5563 2.3001v-2.3001h-1.2127v6.0064h1.2127v-2.9406l2.9807 2.9406Zm2.6848-6.0064h1.2129v4.0176l3.503-4.0176h.829v6.0064h-1.213v-4.0177l-3.501 4.0177h-.8309v-6.0064Zm10.4379-.9624c.988.0372 1.819-.7338 1.856-1.72201h-1.022c.004.04119.004.08288 0 .12406-.034.42317-.405.73805-.828.70395-.423-.03442-.738-.4051-.704-.82801h-1.024c.035.93621.786 1.68711 1.722 1.72201Zm-1.581.9624h-1.213v6.0064h.831l3.5-4.0177v4.0177h1.216v-6.0064h-.831l-3.503 4.0176v-4.0176ZM37.0478 29.6537v3.0134h1.6598c.8061 0 1.1878-.1783 1.4691-.4596.2697-.2853.4174-.6645.4116-1.0573 0-.3865-.1514-.7579-.4216-1.0344-.2813-.2813-.663-.4621-1.4692-.4621h-1.6497Zm-1.278-4.7258h5.2379v1.2129h-3.9599v2.3002h1.9159c.9066 0 1.5066.2182 1.9536.6 1.1685.9809 1.3205 2.7233.3398 3.8916-.1032.1228-.2167.2365-.3398.3395-.4596.3817-1.047.6002-1.9536.6002h-3.1939v-8.9444Zm10.3103 3.9594c.6731.0036 1.3062.32 1.7125.8564v2.2499c-.3849.5274-.9945.8444-1.6472.8564-.016.0003-.0321.0003-.0479 0-1.0847-.0098-1.9559-.8968-1.9458-1.9814-.0008-.0211-.001-.0422-.001-.0636.0032-1.0623.8671-1.9209 1.9294-1.9177ZM45.9797 34c.6801.0098 1.3401-.2316 1.8531-.6781l.0025.55h1.1751v-6.0064h-1.1751v.55c-.5226-.4476-1.1906-.6887-1.8782-.6781-.5163-.0073-1.0246.1256-1.4717.3842-.9646.5776-1.552 1.6226-1.5442 2.747-.0126 1.1193.5708 2.1607 1.5317 2.7346.4598.2594.9789.396 1.5068.3968Zm5.1233-6.1341h1.2152v2.2097h3.1816v-2.2097h1.213v6.0064h-1.213v-2.7092h-3.1816v2.7092H51.103v-6.0064Zm11.8967 6.0064h1.6246l-3.3622-3.3097 2.9779-2.6967h-1.6622L60.024 30.166v-2.3001h-1.2153v6.0064h1.2153v-2.9405l2.9757 2.9405Zm7.1067-5.1754h2.044c.6127 0 .9467-.1532 1.1753-.3968.4784-.4882.4784-1.2695 0-1.7577-.2286-.2511-.5626-.3968-1.1753-.3968h-2.044v2.5513Zm-1.2781 5.1754v-8.9444h3.3999c.8689 0 1.4312.2159 1.8657.5874 1.0513.8917 1.1806 2.4669.2888 3.5181-.0881.104-.1848.2007-.2888.2888-.4345.3717-1.0043.5874-1.8657.5874h-2.1093v3.9627h-1.2906Zm9.7881-4.985c.6728.0046 1.3051.321 1.7124.8564v2.2499c-.3852.5272-.9944.8439-1.6471.8564l-.016.0002h-.0182l-.0138-.0002c-1.0847-.0098-1.9559-.8968-1.9458-1.9814l-.0005-.0171-.0003-.0122-.0001-.0075-.0001-.0268c.0032-1.0623.8672-1.9209 1.9295-1.9177ZM78.5134 34c.6801.0098 1.3401-.2316 1.8531-.6781v.55h1.1776v-6.0064h-1.1776v.55c-.5221-.4483-1.1904-.6894-1.8782-.6781-.5156-.0073-1.0232.1256-1.4692.3842-.9656.5771-1.554 1.6221-1.5467 2.747-.0116 1.1198.5728 2.161 1.5342 2.7346.4598.2594.9789.396 1.5068.3968Zm7.1439.0005c-1.0518.0151-2.0568-.4342-2.7472-1.2278l.766-.7032c.5238.5382 1.2426.8423 1.9937.8436.7158 0 1.2404-.3313 1.2404-.9064-.0025-.1991-.0859-.3885-.2308-.5249-.1909-.1657-.4721-.2285-.9694-.2285h-.8438v-1.0244h.8564c.2489.0294.5005-.0243.7157-.1532.1487-.1049.2346-.2777.2286-.4595 0-.55-.535-.7911-1.0975-.7911-.5995.0238-1.1746.2433-1.6372.6253l-.6378-.8187c.6398-.5962 1.4884-.9174 2.3629-.8938 1.1248 0 2.2374.6002 2.2374 1.7577.0017.435-.1688.8531-.4747 1.1625.446.2793.721.7647.7308 1.2909 0 1.2956-1.0874 2.0515-2.4935 2.0515Zm6.8976-1.0881h-1.494v-1.6121h1.494c.4872 0 .7032.098.8438.2512.1384.1486.2165.344.2185.5472.001.2084-.0771.4093-.2185.5625-.1406.1608-.3566.2512-.8438.2512Zm.3139-2.7849c-.1406.1407-.3315.2286-.8034.2286h-1.0045v-1.5317h1.0045c.4719 0 .6628.0879.8034.2285.2908.2991.2908.7755 0 1.0746Zm.879-1.828c-.3089-.2687-.7032-.4345-1.3938-.4345h-2.5184v6.0193h2.9503c.7535 0 1.213-.2185 1.532-.55.327-.3295.5078-.7765.502-1.2406.0063-.6439-.3636-1.2326-.9465-1.5066.274-.2913.4289-.6748.4344-1.0746-.0052-.4659-.2089-.9071-.56-1.213Zm2.7072-.4336h1.2152v4.0177l3.5008-4.0177h.831v6.0064h-1.213v-4.0177l-3.5153 4.0177h-.8313l.0126-6.0064Zm6.925 1.0872h2.009l-.005 4.9192h1.213v-4.9192h2.009v-1.0875h-5.226v1.0875Zm6.61-1.0872h1.213v4.0177l3.503-4.0177h.829v6.0064h-1.213v-4.0177l-3.5 4.0177h-.832v-6.0064Zm11.244 1.0219v1.6572l-1.506.005c-.525 0-.756-.1155-.91-.3064-.237-.3094-.237-.7401 0-1.0495.156-.1908.385-.3063.91-.3063h1.506Zm-2.403 2.6316-1.813 2.3529h1.446l1.726-2.3001h1.047v2.3001h1.213v-6.0067h-2.941c-.716 0-1.15.1658-1.469.4471-.065.057-.127.1182-.184.1838-.675.7765-.593 1.9536.184 2.6286.224.1987.497.3348.791.3943Z"/>
	<path fill="url(#a)" d="M0 13.4187C0 20.83 6.00792 26.8379 13.4192 26.8379c-4.74096-.2873-6.70961-2.6836-6.70961-5.3675 0-2.6837 2.25469-5.3676 6.70961-8.0517H0Z"/>
  	<radialGradient id="a" cx="0" cy="0" r="1" gradientTransform="rotate(-45 22.90759519 -9.4888366) scale(13.3098)" gradientUnits="userSpaceOnUse">
  		<stop offset=".0584617" stop-color="#fff" stop-opacity=".7"/>
  		<stop offset=".65" stop-color="#fff" stop-opacity=".6"/>
  		<stop offset=".751153" stop-color="#fff" stop-opacity=".6"/>
  		<stop offset=".99879" stop-color="#fff" stop-opacity="0"/>
  	</radialGradient>
	<path fill="url(#b)" d="M20.1278 5.36656c0 2.68364-2.2544 5.36754-6.7093 8.05144h13.4191c0-7.41129-6.0079-13.4189591-13.4191-13.4189591C18.1591.286089 20.1278 2.68268 20.1278 5.36656Z"/>
  	<radialGradient id="b" cx="0" cy="0" r="1" gradientTransform="rotate(-45 22.90615879 -9.48844163) scale(13.3098)" gradientUnits="userSpaceOnUse">
  		<stop stop-color="#fff" stop-opacity=".7"/>
  		<stop offset=".65" stop-color="#fff" stop-opacity=".6"/>
  		<stop offset=".6942" stop-color="#fff" stop-opacity=".6"/>
  		<stop offset="1" stop-color="#fff" stop-opacity="0"/>
  	</radialGradient>
	<path fill="url(#c)" d="M0 13.418h13.4192c4.4549-2.6837 6.7093-5.36755 6.7093-8.05119 0-2.68389-2.2544-5.36752128-6.7093-5.36752128C6.00792-.00071128 0 6.00696 0 13.418Z"/>
  	<radialGradient id="c" cx="0" cy="0" r="1" gradientTransform="translate(13.4191 13.4182) scale(13.4191)" gradientUnits="userSpaceOnUse">
  		<stop stop-color="#fff"/>
  		<stop offset=".485427" stop-color="#fff"/>
  		<stop offset="1" stop-color="#fff" stop-opacity=".5"/>
  	</radialGradient>
	<path fill="url(#d)" d="M13.4193 13.419c-4.45489 2.6838-6.70958 5.3677-6.70958 8.0514 0 2.6839 2.25469 5.3675 6.70958 5.3675 7.4113 0 13.4192-6.0079 13.4192-13.4189H13.4193Z"/>
  	<radialGradient id="d" cx="0" cy="0" r="1" gradientTransform="translate(13.4193 13.4189) scale(13.4191)" gradientUnits="userSpaceOnUse">
  		<stop stop-color="#fff"/>
  		<stop offset=".485427" stop-color="#fff"/>
  		<stop offset="1" stop-color="#fff" stop-opacity=".5"/>
  	</radialGradient>
</svg>