<svg xmlns="http://www.w3.org/2000/svg" viewBox="0 0 120 32">
	<path fill="#fff" d="M43.8451 5.64153c.4234.20598.8812.30897 1.3961.30897.5836 0 1.0986-.12588 1.5678-.38907.4691-.25176.8239-.6065 1.0985-1.06423.2632-.44629.3891-.96123.3891-1.52195 0-.56072-.1259-1.07567-.3891-1.5334-.2746-.446286-.6294-.801027-1.0985-1.064222C46.3398.125876 45.8248 0 45.2412 0c-.5149 0-.9727.102989-1.3961.297525-.4234.194535-.7667.469174-1.0299.823915-.2746.35474-.4462.7667-.5149 1.22443h1.1329c.103-.40052.3089-.72093.6294-.96124.3204-.22886.7209-.35474 1.213-.35474.2975 0 .5721.05722.8239.1831.2517.12587.4691.29752.6408.51494.1716.21742.2975.46918.3662.74381h-2.0713v1.00701h2.0713c-.0687.27464-.1946.52639-.3662.74381-.1717.21743-.3891.38907-.6408.51495-.2518.12588-.5264.18309-.8239.18309-.4921 0-.8926-.12587-1.213-.36618-.3319-.24031-.5379-.56072-.6294-.96124h-1.1329c.0687.44629.2403.85825.5035 1.21299.2632.35474.6179.64082 1.0413.83536Zm5.1954.25155c.1144.01144.2403.02289.3661.02289.3205 0 .5951-.05722.8125-.1831.2174-.12587.3891-.29752.5379-.53783.2059-.35474.3432-.80103.4005-1.36175.0572-.56072.0915-1.29309.0915-2.19711v-.40051h2.426v4.60019h1.2015V.114231h-4.7489V1.75062c-.0115.65226-.0458 1.20154-.0801 1.65927-.0344.45773-.0916.78959-.1717.98412-.0572.13732-.1487.24031-.2632.29753-.1259.06866-.2632.10299-.4234.10299-.0686 0-.1373 0-.206-.02289-.0711 0-.1331-.01803-.2022-.03808l-.0266-.00769v1.09855c.0686.02289.1602.04577.2861.06866Zm10.2416.05742c-.6065 0-1.1329-.12588-1.602-.38907-.4692-.25176-.8468-.6065-1.0986-1.05278-.2632-.44629-.4005-.9498-.4005-1.51052 0-.56072.1373-1.07566.412-1.53339.2746-.44629.6522-.801031 1.1214-1.075669C58.1836.125876 58.71 0 59.2707 0s1.0642.125876 1.522.377628c.4462.263195.801.606493 1.0642 1.052782.2632.45773.3891.94979.3891 1.49906v.22887c-.0058.03433-.0086.06866-.0115.10299s-.0057.06866-.0114.10299h-4.852c.0458.28608.1602.54928.3319.78958.1716.24031.4005.42341.6866.56072.286.14877.595.21743.9498.21743.3318 0 .6293-.06866.9154-.21743.2747-.14876.4692-.34329.5951-.5836H62.04c-.0801.33185-.2403.64082-.4921.91546-.2632.27464-.5836.49206-.9727.65226-.4005.17165-.8239.25176-1.2931.25176Zm1.7623-3.55886c-.0687-.27464-.1831-.51494-.3547-.72092-.1717-.19454-.3777-.35474-.618-.46918-.2403-.10299-.5149-.1602-.8125-.1602-.2975 0-.5721.05721-.8239.1602-.2632.11444-.4806.27464-.6522.48062-.1831.20598-.309.44629-.3777.70948h3.639Zm3.948-2.277409h-1.2016V5.83586h1.2016V3.52432h.904l1.7966 2.31154h1.4991l-2.2887-2.92947 2.22-2.792159H67.693L65.8964 2.40288h-.904V.114231Zm7.0262 1.121439h-2.2772V.114231h5.756V1.23567h-2.2773v4.60019h-1.2015V1.23567ZM77.58.114433h-1.11V8.12472h1.2015V5.10369c.2404.2632.5379.46918.8697.61794.3319.16021.6866.22887 1.0757.22887.5378 0 1.0185-.12588 1.4647-.38907.4349-.2632.7782-.61794 1.0299-1.07567.2404-.44629.3662-.94979.3662-1.51051s-.1258-1.06423-.3662-1.52196c-.2517-.44628-.595-.801024-1.0299-1.064219C80.6468.125876 80.1547 0 79.6169 0c-.4234 0-.801.0801028-1.1443.240308-.3548.171649-.6523.400515-.8926.709483V.114433Zm2.7807 4.485757c-.2746.17165-.5836.25175-.9154.25175-.3319 0-.6409-.0801-.9155-.25175-.2746-.1602-.4921-.37763-.6408-.67515-.1602-.28608-.2403-.59505-.2403-.94979 0-.35474.0801-.67515.2403-.96124.1487-.28608.3662-.5035.6408-.67515.2746-.1602.5836-.24031.9155-.24031.3318 0 .6408.08011.9154.24031.2747.17165.4921.38907.6523.67515.1602.28609.2403.6065.2403.96124 0 .35474-.0801.66371-.2403.94979-.1602.29752-.3776.51495-.6523.67515Zm6.271 1.35031c-.5837 0-1.0986-.12588-1.5678-.38907-.4692-.2632-.8468-.61794-1.11-1.07567-.2746-.44629-.4119-.94979-.4119-1.51051s.1373-1.06423.4119-1.52196c.2632-.44628.6408-.801024 1.11-1.064219C85.5331.125876 86.0595 0 86.6317 0c.5836 0 1.0985.125876 1.5791.389071.4692.263195.8354.617939 1.11 1.064219.2632.45773.4005.96124.4005 1.52196 0 .54927-.1373 1.05278-.4005 1.49907-.2746.45773-.6522.81247-1.1214 1.07566-.4692.2632-.9956.40052-1.5677.40052Zm0-1.09856c.3547 0 .6751-.0801.9612-.24031.2861-.1602.5035-.37762.6637-.67515.1602-.28608.2403-.60649.2403-.96123 0-.35474-.0801-.6866-.2403-.97268s-.3776-.5035-.6637-.66371c-.2861-.1602-.6065-.24031-.9612-.24031-.3548 0-.6752.08011-.9613.24031-.2861.16021-.5149.37763-.6637.66371-.1602.28608-.2403.60649-.2403.97268 0 .35474.0801.67515.2403.96123.1602.29753.3776.51495.6637.67515.2861.16021.6065.24031.9613.24031Zm5.859-4.737709h-1.2016V5.83586h1.2016V3.53577h2.9752v2.30009h1.2016V.114231h-1.2016V2.41433h-2.9752V.114231Zm6.008 0h1.2015V2.41433h2.9748V.114231h1.202V5.83586h-1.202V3.53577h-2.9748v2.30009h-1.2015V.114231Zm8.5253 0h-1.202V5.83586h2.518c.72 0 1.293-.1602 1.716-.49206.412-.32041.618-.75525.618-1.31597 0-.56072-.206-1.00701-.618-1.33887-.423-.32041-.996-.48061-1.716-.48061h-1.305l-.011-2.094119Zm2.151 4.485759c-.183.14876-.435.21742-.767.21742h-1.362l-.011-1.60206h1.373c.321 0 .572.06866.767.21743.183.14876.275.3433.275.5836 0 .24031-.092.43485-.275.58361Zm3.753-4.485759h-1.201V5.83586h1.201V.114231Zm4.108 5.836269c-.606 0-1.132-.12588-1.602-.38907-.469-.25176-.846-.6065-1.098-1.05278-.263-.44629-.401-.9498-.401-1.51052 0-.56072.138-1.07566.412-1.53339.275-.44629.652-.801031 1.122-1.075669C115.938.125876 116.464 0 117.025 0s1.064.125876 1.522.377628c.446.263195.801.606493 1.064 1.052782.263.45773.389.94979.389 1.49906v.22887c-.005.03432-.008.06863-.011.10295-.003.03434-.006.06869-.012.10303h-4.852c.046.28608.161.54928.332.78958.172.24031.401.42341.687.56072.286.14877.595.21743.95.21743.331 0 .629-.06866.915-.21743.275-.14876.469-.34329.595-.5836h1.19c-.08.33185-.24.64082-.492.91546-.263.27464-.583.49206-.972.65226-.401.17165-.824.25176-1.294.25176Zm1.763-3.55886c-.069-.27464-.183-.51494-.355-.72092-.172-.19454-.378-.35474-.618-.46918-.24-.10299-.515-.1602-.812-.1602-.298 0-.573.05721-.824.1602-.264.11444-.481.27464-.653.48062-.183.20598-.309.44629-.377.70948h3.639ZM43.8222 17.0047c.4577.2632.9727.3891 1.5563.3891.4921 0 .9498-.103 1.3618-.2975.4119-.1946.7552-.4807 1.0184-.8354s.4234-.7667.4921-1.2244h-1.1901c-.0916.3776-.2861.6866-.5836.9154-.309.2289-.6752.3433-1.0986.3433-.3547 0-.6637-.0801-.9383-.2517-.2861-.1602-.5036-.3777-.6638-.6752-.1602-.2861-.2403-.595-.2403-.9498 0-.3547.0801-.6751.2403-.9612s.3777-.5035.6638-.6752c.2746-.1602.5836-.2403.9383-.2403.4234 0 .7896.1145 1.0871.3319.2975.2289.4921.5378.5951.9154h1.1901c-.0572-.4577-.2175-.8696-.4807-1.2244-.2631-.3547-.595-.6294-1.007-.8239-.4119-.1945-.8697-.2975-1.3846-.2975-.5607 0-1.0757.1259-1.5448.3891-.4692.2631-.8354.6179-1.0986 1.0642-.2632.4577-.4005.9612-.4005 1.5219s.1373 1.0757.4005 1.522c.2518.4463.6179.801 1.0871 1.0642Zm5.9621-5.4472h1.2015V15.7l3.0897-4.1425h1.2473v5.7216h-1.2015v-4.1424l-3.0897 4.1424h-1.2473v-5.7216Zm8.3878 5.4472c.4578.2632.9727.3891 1.5563.3891.4921 0 .9498-.103 1.3618-.2975.4119-.1946.7552-.4807 1.0184-.8354s.4234-.7667.4921-1.2244h-1.1901c-.0916.3776-.2861.6866-.5836.9154-.309.2289-.6752.3433-1.0986.3433-.3547 0-.6637-.0801-.9383-.2517-.2861-.1602-.5035-.3777-.6637-.6752-.1602-.2861-.2403-.595-.2403-.9498 0-.3547.0801-.6751.2403-.9612s.3776-.5035.6637-.6752c.2746-.1602.5836-.2403.9383-.2403.4234 0 .7896.1145 1.0871.3319.2976.2289.4921.5378.5951.9154h1.1901c-.0572-.4577-.2174-.8696-.4806-1.2244-.2632-.3547-.5951-.6294-1.007-.8239-.412-.1945-.8697-.2975-1.3847-.2975-.5607 0-1.0756.1259-1.5448.3891-.4692.2631-.8354.6179-1.0986 1.0642-.2632.4577-.4005.9612-.4005 1.5219s.1373 1.0757.4005 1.522c.2518.4463.618.801 1.0871 1.0642Zm7.3009-4.3258h-2.2772v-1.1214h5.756v1.1214h-2.2773v4.6002H65.473v-4.6002Zm5.1838 4.3258c.4692.2632.9956.3891 1.6021.3891.4692 0 .8926-.0801 1.2931-.2518.389-.1602.7095-.3776.9727-.6522.2517-.2747.4119-.5836.492-.9155h-1.1901c-.1259.2403-.3204.4348-.595.5836-.2861.1488-.5836.2174-.9155.2174-.3547 0-.6637-.0686-.9498-.2174-.2861-.1373-.5149-.3204-.6866-.5607-.1716-.2403-.2861-.5035-.3319-.7896h4.852c.0057-.0343.0086-.0687.0114-.103.0029-.0343.0058-.0686.0115-.103v-.2288c0-.5493-.1259-1.0414-.3891-1.4991-.2632-.4463-.6179-.7896-1.0642-1.0528-.4577-.2517-.9612-.3776-1.522-.3776-.5607 0-1.0871.1259-1.5563.3891-.4691.2746-.8468.6293-1.1214 1.0756-.2746.4577-.412.9727-.412 1.5334 0 .5607.1374 1.0642.4006 1.5105.2517.4463.6293.8011 1.0985 1.0528Zm3.0096-3.8907c.1717.206.2861.4463.3547.7209h-3.6389c.0686-.2632.1945-.5035.3776-.7095.1717-.2059.3891-.3661.6523-.4806.2517-.103.5264-.1602.8239-.1602s.5722.0572.8125.1602c.2403.1145.4463.2747.6179.4692Zm3.1011-1.5565H78.69l1.7394 4.337 1.7279-4.337h1.8881v5.7216h-1.1786v-4.6002l-1.8424 4.6002h-1.213l-1.8652-4.6116v4.6116h-1.1787v-5.7216Zm10.0816 0h-1.2015v5.7216h2.5175c.7209 0 1.2931-.1602 1.7165-.492.4119-.3204.6179-.7553.6179-1.316 0-.5607-.206-1.007-.6179-1.3389-.4234-.3204-.9956-.4806-1.7165-.4806h-1.3046l-.0114-2.0941Zm2.1513 4.4858c-.1831.1487-.4348.2174-.7667.2174H86.872l-.0115-1.6021h1.3732c.3205 0 .5722.0687.7667.2175.1831.1487.2747.3433.2747.5836s-.0916.4348-.2747.5836Zm3.7534-4.4858h-1.2015v5.7216h1.2015v-5.7216Zm4.4061 0h1.2015V15.7l3.0896-4.1425h1.247v5.7216h-1.201v-4.1424l-3.0898 4.1424h-1.2473v-5.7216ZM43.9825 23.001h-1.11v8.0103h1.2015v-3.021c.2403.2631.5378.4691.8697.6179.3318.1602.6866.2289 1.0757.2289.5378 0 1.0184-.1259 1.4647-.3891.4349-.2632.7782-.618 1.0299-1.0757.2403-.4463.3662-.9498.3662-1.5105s-.1259-1.0642-.3662-1.5219c-.2517-.4463-.595-.8011-1.0299-1.0643-.4348-.2632-.9269-.389-1.4647-.389-.4234 0-.8011.0801-1.1444.2403-.3547.1716-.6522.4005-.8925.7094v-.8353Zm2.7807 4.4857c-.2747.1717-.5836.2518-.9155.2518-.3318 0-.6408-.0801-.9154-.2518-.2747-.1602-.4921-.3776-.6409-.6751-.1602-.2861-.2403-.5951-.2403-.9498s.0801-.6751.2403-.9612c.1488-.2861.3662-.5035.6409-.6752.2746-.1602.5836-.2403.9154-.2403.3319 0 .6408.0801.9155.2403.2746.1717.492.3891.6522.6752.1603.2861.2404.6065.2404.9612s-.0801.6637-.2404.9498c-.1602.2975-.3776.5149-.6522.6751Zm6.2824 1.3504c-.6065 0-1.1329-.1259-1.6021-.3891-.4692-.2518-.8468-.6065-1.0986-1.0528-.2632-.4463-.4005-.9498-.4005-1.5105s.1373-1.0757.412-1.5334c.2746-.4463.6522-.801 1.1214-1.0757.4692-.2632.9956-.389 1.5563-.389s1.0642.1258 1.522.3776c.4463.2632.801.6065 1.0642 1.0528.2632.4577.3891.9498.3891 1.499v.2289c-.0058.0343-.0086.0687-.0115.103-.0028.0343-.0057.0686-.0114.103h-4.852c.0458.2861.1602.5493.3319.7896.1716.2403.4005.4234.6866.5607.2861.1487.595.2174.9498.2174.3318 0 .6294-.0687.9154-.2174.2747-.1488.4692-.3433.5951-.5836h1.1901c-.0801.3318-.2403.6408-.4921.9154-.2632.2747-.5836.4921-.9727.6523-.4005.1717-.8239.2518-1.293.2518Zm1.7622-3.5589c-.0686-.2746-.1831-.5149-.3547-.7209-.1717-.1946-.3776-.3548-.618-.4692-.2403-.103-.5149-.1602-.8124-.1602-.2976 0-.5722.0572-.8239.1602-.2632.1144-.4807.2746-.6523.4806-.1831.206-.309.4463-.3776.7095h3.6389Zm3.948-2.2774h-1.2016v5.7216h8.2278v-5.7216h-1.2016v4.646h-2.3115v-4.646h-1.2016v4.646h-2.3115v-4.646Zm11.203 5.8363c-.6065 0-1.1329-.1259-1.6021-.3891-.4692-.2518-.8468-.6065-1.0986-1.0528-.2632-.4463-.4005-.9498-.4005-1.5105s.1373-1.0757.412-1.5334c.2746-.4463.6522-.801 1.1214-1.0757.4692-.2632.9956-.389 1.5563-.389s1.0642.1258 1.522.3776c.4463.2632.801.6065 1.0642 1.0528.2632.4577.3891.9498.3891 1.499v.2289c-.0058.0343-.0086.0687-.0115.103-.0028.0343-.0057.0686-.0114.103h-4.852c.0458.2861.1602.5493.3319.7896.1716.2403.4005.4234.6866.5607.2861.1487.595.2174.9498.2174.3318 0 .6294-.0687.9154-.2174.2747-.1488.4692-.3433.5951-.5836h1.1901c-.0801.3318-.2403.6408-.4921.9154-.2632.2747-.5836.4921-.9727.6523-.4005.1717-.8239.2518-1.293.2518Zm1.7622-3.5589c-.0686-.2746-.1831-.5149-.3547-.7209-.1717-.1946-.3776-.3548-.618-.4692-.2403-.103-.5149-.1602-.8124-.1602-.2976 0-.5722.0572-.8239.1602-.2632.1144-.4807.2746-.6523.4806-.1831.206-.309.4463-.3776.7095h3.6389Zm3.948-2.2774h-1.2016v5.7216h1.2016v-2.3001h2.9752v2.3001h1.2016v-5.7216h-1.2016v2.3001H75.669v-2.3001Zm6.1222 0h1.2015v4.1425l3.0897-4.1425h1.2473v5.7216h-1.2015V24.58l-3.0897 4.1424h-1.2473v-5.7216Zm7.3237 2.9066c.1946.2861.4692.5149.8239.6637l-1.5677 2.1513h1.3961l1.3389-1.911h1.4304v1.911h1.2015v-5.7216h-2.5061c-.7438 0-1.3388.1716-1.7622.5035-.4234.3433-.6409.8125-.6409 1.3961 0 .389.0916.7209.2861 1.007Zm2.0598-1.9225h1.3618v1.8538h-1.3618c-.3547 0-.6294-.0801-.8353-.2517-.206-.1717-.309-.3891-.309-.6752s.103-.5035.309-.6751c.2059-.1717.4806-.2518.8353-.2518ZM9.28534.0078125 16.8119 15.0609 24.3384.0078125H9.28534ZM24.336 30.2559l-7.5266-15.0531-7.52651 15.0531H24.336ZM7.54573 1.08705 16.8125 15.1223l9.2683-14.03738 7.5265 13.03638-16.7742 1.0068 16.777 1.007-7.5266 13.0364-9.27-14.04-.0139-.0009L.019186 14.1234 7.54573 1.08705ZM0 16.139l16.7996-1.0084-9.27306 14.0447L0 16.139Z"/>
</svg>