<svg xmlns="http://www.w3.org/2000/svg" viewBox="0 0 160 34">
	<path fill="#fff" d="M57.2 26.2h-2.4v-2.5h-1.2v6.2h1.2v-2.5h2.4v2.5h1.3v-6.2h-1.3v2.5zM63.3 26.8c.2 0 .4-.3.7-.7l1.5-2.3h-1.4l-1.2 1.9c-.3.4-.4.6-.8.6h-.5v-2.5h-1.2V30h1.2v-2.6h.6c.4 0 .6.1.8.6l1.3 2h1.4l-1.5-2.4c-.4-.6-.6-.7-.8-.8ZM41.1 17.1v.2H48.4v-1.9c0-.2-.1-.3-.3-.3h-4.6v-1.2h3.6V12h-3.6V9.8h4.4c.1 0 .2 0 .2-.1V7.6h-7.2v9.7ZM55.8 12.2l.3-.3c.1-.2.2-.3.4-.5.1-.2.3-.4.4-.6.2-.2.3-.4.5-.6.2-.2.3-.3.5-.4.2-.1.4-.2.5-.2h.2v-2c0-.2 0-.3-.2-.3-.5 0-1 0-1.4.2-.4.1-.8.3-1.1.5-.3.2-.6.5-.8.9-.2.3-.5.7-.7 1.1v.1s0 .2-.2.2c0 0-.1.2-.2.3 0 0-.1.2-.2.3l-.2.2h-.2V7.5s0-.2-.1-.2H50.9V17c0 .2.1.3.3.3h2c.2 0 .3 0 .3-.3v-2.9h.3c.1 0 .3 0 .4-.2l2.6 3.2.2.2H59.9s.1 0 .1-.1V17l-4-4.8ZM78.6 7.3h-7.5V9.5h2.5v7.4s0 .2.1.2H76.1V9.5h2.3c.1 0 .2 0 .2-.1V7.5s0-.2-.1-.2h-.2ZM88.1 15h-4.6v-1.2h3.6v-1.9h-3.6V9.7h4.4c.1 0 .2 0 .2-.1V7.5h-7.2V17.4H88.2v-1.9c0-.2-.1-.3-.3-.3ZM109.7 6.9H109.4l-5.9 5.4V7.6c0-.2-.1-.3-.3-.3h-1.9c-.2 0-.3.1-.3.3v10.2h.1c.1 0 0 0 0 0l6-5.1v4.4c0 .2.1.3.3.3h1.9c.2 0 .3-.1.3-.3V7ZM120.9 7.3h-2.2V12h-3.4V7.5s0-.2-.1-.2H112.8V17c0 .2.1.3.3.3h2.2V14.5h3.4V17.3H121.1V7.6s0-.2-.1-.2h-.2ZM140.6 7.3h-2.1l-.2.2-1.2 3.9-.3-.9c-.1-.3-.5-1.7-.6-2l-.3-.9s0-.2-.1-.2H133.6c-.2 0-.3 0-.3.2l2.6 6.4-.2.5c0 .2-.2.3-.2.4 0 0-.2.2-.3.2h-.8V17.4c0 .2 0 .3.3.3.4 0 .7 0 1-.2.3-.1.6-.2.8-.4.2-.2.5-.4.7-.7.2-.3.3-.5.5-.9l.2-.5s.2-.5.3-.6V14.1c.2-.5.4-1 .5-1.5.2-.5 1.8-4.6 2.1-5.3V7h-.3ZM159.9 7.4h-6.3c-.2 0-.3 0-.3.3v9.7H155.7V9.8H159.6V7.6ZM20.6 2h-7.3l-.8-2H0v12.5l2 .8v7.5l-2 .8v12.5h12.5l.8-2h7.3l.8 2h12.5V21.6l-2-.8v-7.5l2-.7V0H21.4l-.8 2Zm4.6 3.6h3v3l-2 .8v15.2l2 .8v3h-3l-.8-2h-15l-.8 2h-3v-3l2-.8V9.4l-2-.8v-3h3l.8 2h15l.8-2ZM70.8 17.1l-4.3-9.7v-.1s0-.1-.1-.2c0 0-.1-.2-.2-.2s-.2-.1-.3-.1c-.2 0-.3 0-.3.1 0 0-.1.2-.1.3 0 0 0 .2-.1.3l-4.3 9.7c0 .1 0 .2.3.2h2.2c.2 0 .3 0 .4-.3l.3-.9h3.5l.3.9c0 .2.2.3.4.3h2.2c.2 0 .3 0 .3-.2Zm-6-2.9 1.1-3.1 1.1 3.1h-2.1ZM98.1 9.3c-.2-.3-.4-.6-.7-.8-.3-.2-.5-.5-.8-.6-.3-.2-.6-.3-1-.4-.3 0-.7-.1-1.1-.1h-4V17.3h2.2c.2 0 .3 0 .3-.3v-1.6h1.5c.6 0 1.1-.1 1.6-.3.5-.2.9-.5 1.3-.9s.7-.8.9-1.3c.2-.5.3-1 .3-1.6s0-.8-.1-1.1c-.1-.4-.2-.7-.4-1ZM96 12.1c0 .2-.2.4-.4.6-.2.2-.4.3-.6.4-.2 0-.5.1-.7.1h-1.2V9.3h1.2c.3 0 .5 0 .8.2.2.1.4.3.6.5.2.2.3.4.4.6 0 .2.1.5.1.7s0 .5-.1.8ZM131 11.9c-.3-.3-.6-.6-1-.7-.4-.2-.8-.3-1.3-.3h-2.1V9.6h4.2V7.5s-.1 0-.2-.1h-6.5V17.3H128.7c.5 0 .9 0 1.3-.3.4-.2.7-.4 1-.7.3-.3.5-.6.6-1 .2-.4.2-.8.2-1.2s0-.8-.2-1.2c-.1-.4-.4-.7-.6-1Zm-1.9 2.7c0 .1-.1.2-.2.3 0 0-.2.2-.3.2H126.8v-2.2H128.6c.1 0 .2.1.3.3 0 .1.2.2.2.4v.8ZM150.7 9.3c-.2-.3-.4-.6-.7-.8-.3-.2-.5-.5-.8-.6-.3-.2-.6-.3-1-.4-.3 0-.7-.1-1.1-.1h-4V17.3h2.2c.2 0 .3 0 .3-.3v-1.6h1.5c.6 0 1.1-.1 1.6-.3.5-.2.9-.5 1.3-.9s.7-.8.9-1.3c.2-.5.3-1 .3-1.6s0-.8-.2-1.1c0-.4-.2-.7-.4-1Zm-2.1 2.8c0 .2-.2.4-.4.6-.2.2-.4.3-.6.4-.2 0-.5.1-.7.1h-1.2V9.3h1.2c.3 0 .5 0 .8.2.2.1.4.3.6.5.2.2.3.4.4.6 0 .2.1.5.1.7s0 .5-.1.8ZM43.8 26h-1.5v-1.1h2.9v-1.2H41v6.2h2.7c1.5 0 2.1-.8 2.1-2s-.7-2-2.1-2Zm0 2.8h-1.5v-1.6h1.5c.7 0 1 .3 1 .8s-.2.8-1 .8ZM49.2 23.7l-2.6 6.2H48l.4-1.1h2.2l.4 1.1h1.4l-2.5-6.2h-.7Zm-.4 3.9.7-1.7.7 1.7h-1.3Z"/>
</svg>