<svg xmlns="http://www.w3.org/2000/svg" viewBox="0 0 160 32">
	<path fill="#fff" d="M15.2393 30.6904C6.82283 30.6904 0 23.9317 0 15.5947 0 7.25959 6.82283.500004 15.2393.500004 19.274.497254 23.146 2.08564 26.0157 4.92146c2.8532 2.81932 4.4606 6.66244 4.4636 10.67324 0 8.337-6.8228 15.0957-15.24 15.0957Zm31.3959-16.2835c-.4498-1.439-1.8432-2.3785-3.3592-2.2657-1.2747-.044-2.4839.5627-3.2098 1.6113-.0797.1209-.2431.1549-.3643.0751-.0147-.0101-.0282-.0211-.0406-.033l-1.3136-.999c-.1043-.0743-.129-.2191-.055-.3227l.0117-.0155c1.1118-1.6517 2.9797-2.63513 4.9716-2.61588 1.5804-.0495 3.1131.54628 4.2439 1.65258 1.1246 1.098 1.7451 2.6131 1.7142 4.1849-.0335 2.6113-1.7729 4.899-4.2975 5.6506-2.5247.7525-5.2494-.2053-6.731-2.3647-.0783-.1045-.0598-.2511.0426-.3309l1.3705-1.0064c.1494-.1054.2555-.1054.3623 0 .7328 1.088 1.9852 1.7085 3.295 1.6324 1.6358.1054 3.1025-.9944 3.4444-2.5819H41.373c-.0816.0092-.1625-.0193-.2211-.0761-.0268-.0266-.0472-.0586-.0605-.0935-.0156-.0394-.0215-.0825-.0165-.1255v-1.6883c-.0099-.0798.019-.1613.077-.2173.0586-.0568.1402-.0824.2211-.0705h5.2622Zm6.4908-4.3967c.0795-.0092.1592.0183.2161.0742.0561.0559.0838.1347.0747.2145v4.0438h5.2406v-4.0438c-.0069-.0798.0222-.1586.0802-.2145.0579-.0559.1384-.0834.2186-.0742h1.8603c.0798-.0092.1593.0183.2161.0742.0569.0559.0846.1347.0754.2145v10.8245c.0092.0788-.0185.1576-.0754.2135-.0568.0569-.1363.0834-.2161.0743H58.942c-.0809.0119-.1625-.0138-.2212-.0706-.0123-.0119-.0236-.0247-.0332-.0394-.0353-.0513-.0515-.1155-.0437-.1778V16.679h-5.2271v4.481c.0091.0789-.0186.1577-.0754.2136-.0569.0559-.1364.0834-.2161.0742h-1.8604c-.0802.012-.1618-.0146-.2204-.0705-.0587-.0569-.0871-.1366-.0777-.2182V10.2989c-.0069-.0798.0222-.1586.0802-.2145.058-.0559.1377-.0825.2179-.0742h1.8611Zm20.8782 9.4817c.0914.0834.0976.2255.0142.3162l-.0142.0147c-1.4111 1.1759-3.1981 1.8074-5.0351 1.779-3.6074 0-6.1283-2.4893-6.1283-5.8586-.0415-1.5957.5849-3.1364 1.7283-4.2501 1.1499-1.1209 2.7105-1.71757 4.3147-1.65158 1.576-.04583 3.1005.56188 4.213 1.67908 1.106 1.1109 1.6949 2.6351 1.6246 4.2015v.8368c0 .1898-.0851.2952-.2562.2952h-9.0677c.4628 1.5361 1.9351 2.5507 3.5498 2.4481 1.3421.0724 2.663-.3621 3.7001-1.2172.0711-.0935.2049-.1127.2993-.0412.0156.0119.0298.0256.0415.0412l1.016 1.4069Zm-8.6283-4.9237h6.8313c-.1704-1.4628-1.669-2.4692-3.3449-2.4692-1.5989-.0761-3.0414.9459-3.4864 2.4692Zm11.3195 10.1783c-.0802.0064-.1593-.0229-.2159-.0797-.0563-.0569-.0841-.1366-.0754-.2163V10.2989c-.0093-.0798.0186-.1586.0754-.2145.0566-.0559.1364-.0834.2159-.0742h1.4197c.1531-.0101.2903.0953.3199.2456l.1851.8167h.1488c.9594-.8488 2.2075-1.29697 3.487-1.25206 1.5859-.06233 3.1259.53896 4.2505 1.65806 1.1187 1.1127 1.7149 2.6461 1.6434 4.2216.0788 1.5765-.5167 3.1117-1.6372 4.2226-1.1271 1.1182-2.6708 1.7112-4.2567 1.6379-1.2099.0687-2.403-.3043-3.3592-1.0486v3.9183c.0032.0275.0018.055-.0037.0816-.0103.0513-.0355.099-.0735.1365-.058.0578-.1395.0862-.2209.077l-1.9032.0211Zm2.1303-6.7669c.895.8735 2.1085 1.3446 3.3592 1.3015.4855.0174.9635-.0697 1.4034-.2502.421-.1723.807-.4308 1.1317-.7635.66-.6764.9989-1.6031.9303-2.5453.0729-.9459-.2642-1.8771-.9248-2.5581-.664-.6846-1.587-1.0558-2.5406-1.0228-1.266-.0871-2.5025.4078-3.3592 1.3436v4.4948Zm11.3623 3.4325c-.0809.0119-.1625-.0147-.2211-.0715-.058-.0559-.0869-.1366-.077-.2172V10.2989c0-.0779.0314-.1531.0875-.2072.0561-.054.1322-.0834.2106-.0815h8.2801c.1604.0036.2913.1301.2988.2887v1.7158c.0092.0806-.0197.1613-.0779.219-.0587.0578-.1393.0862-.2209.077h-6.1494v8.8127c.0094.0806-.019.1613-.0777.2172-.0586.0568-.1402.0825-.2211.0706l-1.8319.0009Zm15.197-11.57058c3.255.07332 5.842 2.73318 5.794 5.95758-.048 3.2254-2.712 5.8082-5.968 5.7881-3.256-.022-5.8854-2.6397-5.8905-5.8651.0014-1.5856.6446-3.1016 1.7845-4.2042 1.145-1.1081 2.686-1.71213 4.28-1.67638Zm-3.593 5.88058c0 1.9569 1.602 3.5453 3.579 3.5453s3.579-1.5884 3.579-3.5453c0-1.9577-1.602-3.5461-3.579-3.5461s-3.579 1.5884-3.579 3.5461Zm20.118-5.7119c.041-.0046.081 0 .119.0128.036.0128.069.0339.097.0614.057.0559.085.1347.075.2145v1.6736c.009.0797-.019.1595-.075.2163-.057.0568-.136.0853-.216.0788h-6.299v1.4629h3.189c2.45 0 4.438 1.4701 4.438 3.8339s-1.988 3.8477-4.438 3.8477h-5.347c-.08.0092-.16-.0183-.216-.0742-.026-.0257-.046-.055-.059-.088-.016-.0394-.022-.0825-.017-.1265V10.2989c-.009-.0798.019-.1586.076-.2145.056-.0559.136-.0834.216-.0742h8.457Zm-6.299 9.1435h3.189c1.271 0 1.988-.6049 1.988-1.5893 0-.9844-.71-1.5893-1.988-1.5893h-3.189v3.1786Zm16.802.9221c-1.096 1.0302-2.558 1.5792-4.062 1.526-2.429 0-4.119-1.406-4.119-3.559 0-2.152 1.541-3.4535 4.14-3.7835l3.722-.4858v-.2465c0-.9844-1.037-1.4069-2.302-1.4069-1.305-.0504-2.593.3143-3.678 1.0412-.162.1127-.382.0852-.511-.0633l-.824-1.1466c-.124-.1265-.121-.3309.006-.4546.012-.011.024-.022.037-.0311 1.428-1.0797 3.181-1.64068 4.97-1.58935 2.493 0 4.752 1.11085 4.752 3.93205v3.6442c-.029.7974.065 1.5939.277 2.3629l.27.8789c.079.1366.032.3117-.105.3914-.025.0147-.052.0247-.081.0312l-1.505.4784c-.069.0348-.15.0348-.219.0018-.069-.033-.12-.0953-.136-.1714l-.532-1.3143-.1-.0357Zm-.327-4.2703-3.721.605c-1.157.1906-1.69.7534-1.69 1.4921 0 .8579.59 1.4069 1.925 1.4069 1.358.0733 2.664-.5243 3.486-1.5975v-1.9065Zm6.938-5.7953c.081-.0083.16.0183.218.0742.058.0559.087.1347.081.2145v4.0438h5.24v-4.0438c-.009-.0798.019-.1586.076-.2145.056-.0559.136-.0834.216-.0742h1.86c.08-.0083.16.0183.218.0742.058.0559.087.1347.08.2145v10.8245c.01.0797-.019.1613-.077.2172-.058.0568-.14.0825-.221.0706h-1.845c-.08.0091-.16-.0174-.217-.0743-.056-.0559-.084-.1347-.075-.2135V16.679h-5.241v4.481c.005.0413 0 .0825-.014.121-.014.0358-.035.0678-.063.0953-.059.0569-.14.0835-.221.0715h-1.861c-.081.012-.162-.0137-.221-.0705-.058-.0569-.087-.1375-.077-.2182V10.2989c-.007-.0798.022-.1586.08-.2145.058-.0559.138-.0825.218-.0742h1.846Zm12.3 0c.033-.0037.066-.0019.097.0064.045.0119.086.0348.119.0678.057.0559.084.1347.075.2145v4.5223l4.758-4.6433c.157-.1173.351-.176.547-.1687h2.578c.192 0 .256.1687.107.3089l-5.05 4.6928 5.369 6.0914c.149.1476.064.3089-.127.3089h-2.536c-.197.0165-.391-.0587-.525-.2035l-3.87-4.7762-1.251.9496v3.7285c.009.0789-.018.1577-.075.2136-.056.0559-.136.0834-.216.0742h-1.86c-.081.0119-.162-.0146-.221-.0715-.059-.0559-.087-.1365-.078-.2172V10.2989c-.007-.0798.022-.1586.08-.2145.058-.0559.139-.0834.219-.0742h1.86ZM6.65309 19.2443c1.41172 3.2586 4.57711 5.4333 8.15361 5.6012v-.0006c3.766.179 7.2722-1.9012 8.8894-5.2746 1.6179-3.3735 1.0284-7.3913-1.4901-10.15797-.008-.00864-.016-.01666-.0247-.02469-.2494-.23518-.6419-.22407-.8771.02469L19.6499 11.037c-.2142.2327-.2142.5907 0 .8235.9117 1.0308 1.4166 2.3586 1.4203 3.7345-.0006 2.5456-1.6845 4.7913-4.1444 5.5271-2.4604.7364-5.1172-.2105-6.5406-2.3302-1.42349-2.1167-1.27658-4.9191.3598-6.8753.2006-.2419.1821-.5963-.0432-.816L9.0827 9.4969c-.00741-.00741-.01543-.01482-.02346-.02161-.26049-.22901-.65678-.20308-.88517.05679-2.34011 2.67222-2.93269 6.45302-1.52098 9.71222Z"/>
</svg>