<svg xmlns="http://www.w3.org/2000/svg" viewBox="0 0 160 28">
	<g fill="#fff">
		<path d="M123.111 18.0109h3.911c.711 0 1.6-.0888 2.4-.5333.534-.3555 1.334-1.1556 1.334-2.4 0-.9778-.356-1.5111-.712-1.7778-.622-.4444-1.422-.5333-2.133-.5333h-1.422l.178-1.3333h4l.355-2.13337h-6.578l-1.333 8.71107Zm2.756-1.7777.266-1.8667h.978c.356 0 .711 0 .889.1778.089.0889.267.2666.267.6222 0 .3555-.178.6222-.445.8-.266.1778-.711.1778-.978.1778h-.977v.0889Zm4.889 1.7777h2.666l.8-1.5111h2.934l.266 1.5111H140l-1.689-8.79996h-2.933l-4.622 8.79996Zm5.688-6.6666.534 3.2h-2.045l1.511-3.2Zm4.534 6.6666h2.489l.533-3.5555h2.933l-.533 3.5555h2.489l1.422-8.79996h-2.489l-.533 3.11106h-2.933l.533-3.11106H142.4l-1.422 8.79996Zm13.511-8.71107H152l-1.422 8.79997h2.489l.622-3.7333 2.044 3.7333h2.934L156 13.6554l4-4.26668h-2.844l-3.2 3.64448.533-3.73337ZM16.4444.677778C15.8222.588889 15.1111.5 14.4889.5c-2.3111 0-4.53334.62222-6.66668 1.6-2.13333 1.06667-4.08889 2.66667-5.6 4.53333l3.02222 3.11111c.44445-.71111.97778-1.24444 1.60001-1.86666L5.33333 6.45556C6.57778 5.3 8 4.32222 9.51111 3.7c1.42219-.62222 3.02219-.97778 4.62219-.97778.5334 0 1.1556 0 1.6889.08889 5.2445.71111 8.5334 5.68889 7.6445 10.93329-.4445 3.0223-2.1334 5.7778-4.4445 7.8223-2.3111 1.9555-5.2444 3.2-8.3555 3.2-3.02226 0-5.95559-1.2445-7.64448-3.6445l2.04445-1.6c-.44445-.5333-.8-1.1555-.97778-1.8666L0 20.8556c.888889 1.8666 2.31111 3.4666 4.17778 4.6222 1.68889 1.0666 3.82222 1.6 6.13332 1.6 3.6445 0 7.2-1.5111 10.0445-3.9111 2.7555-2.4 4.8-5.6889 5.4222-9.4223.5333-3.2888-.2667-6.75551-2.4889-9.42218-1.6889-1.86666-4-3.2-6.8445-3.644442Z"/>
		<path d="M7.911 12.8542h12.2667c0-1.8667-.6223-3.55559-1.8667-4.80003-1.1556-1.15556-2.8444-1.86667-4.8-1.86667-2.1333 0-4.17778.88889-5.86666 2.31111-1.6 1.42222-2.84445 3.28889-3.11111 5.51109-.08889.2667-.08889.7111-.08889 1.0667 0 1.6889.53333 3.1111 1.51111 4.2667.97778 1.1555 2.31111 1.9555 4 2.2222.35555.0889.79995.0889 1.15555.0889 1.9556 0 3.8222-.7111 5.4222-1.8667 1.6-1.2444 2.7556-2.8444 3.3778-4.8H7.55545c.08889.8.35555 1.5111.8 2.1333h7.99995l-.0888.0889c-.0889.0889-.0889.1778-.1778.1778-.6222.6222-1.3334 1.1556-2.1334 1.5111-.8.3556-1.6.5333-2.4.5333-1.4222 0-2.75551-.5333-3.6444-1.5111-.71111-.8-1.06666-1.8666-1.06666-3.0222 0-.2667 0-.5333.08888-.8889.26667-1.5111 1.06667-2.9333 2.22223-3.9111 1.15555-.97777 2.66665-1.59999 4.17775-1.59999.8889 0 1.6889.17778 2.4889.62222.7111.35556 1.2445.97777 1.6 1.68887H9.511c-.71111.5334-1.24444 1.2445-1.6 2.0445Zm26.3111-3.91114c-1.3333 0-2.5778.62222-3.5555 1.51114l1.4222 1.5111.1778-.1778c.3555-.4444.9777-.7111 1.6888-.7111.6223 0 1.0667.2667 1.3334.5333.2666.2667.3555.6222.3555.9778h-2.7555l-.2667 1.6889h2.9333c-.1777.4444-.3555.8-.5333 1.0667-.3555.4444-.9778.7111-1.6889.7111-.6222 0-1.0666-.2667-1.3333-.5334-.0889-.1777-.2667-.2666-.3556-.4444l-1.8666 1.5111c0 .0889.0889.1778.0889.1778.7111.8889 1.7777 1.5111 3.0222 1.5111h.0889c1.0666 0 2.2222-.2667 3.2-1.0667.8889-.7111 1.8666-1.9555 1.8666-4.0889.0889-1.5111-.4444-2.4-.9777-2.9333-.4445-.71111-1.3334-1.24444-2.8445-1.24444Zm10.6667 3.46664h-2.9334l.5334-3.11109h-2.4889l-1.4222 8.71109h2.4889l.5333-3.5555h2.9333l-.5333 3.5555h2.4889l1.4222-8.71109h-2.4889l-.5333 3.11109Zm15.4666-3.11109h-3.7333l-1.4222 8.79999h2.5778l.4444-2.8444h1.2445c.8 0 1.8666-.1778 2.7555-1.0667.4445-.4444.8889-1.1556.8889-2.2222 0-.7111-.1778-1.2445-.4444-1.6-.6223-1.06669-1.7778-1.06669-2.3112-1.06669Zm-.0888 3.46669c-.2667.2666-.8.3555-1.0667.3555h-.7111l.3555-1.9555h.7111c.3556 0 .7112.0889.8889.2666.0889.1778.1778.3556.1778.5334-.0889.3555-.1778.6222-.3555.8Zm-12.0889 5.2444h5.2444l.3556-2.1333h-2.8445l.2667-1.3333h2.4889l.3555-1.9556h-2.5777l.1777-1.1556h2.7556l.3555-2.13329H49.511l-1.3333 8.71109Zm45.9555-7.8222c-.6222-.88889-1.7778-.88889-2.3111-.88889h-3.7333l-1.4222 8.79999h2.4888l.4445-2.8444h1.2444c.8 0 1.8667-.1778 2.7556-1.0667.4444-.4444.8889-1.1556.8889-2.2222.0889-.8889-.0889-1.4222-.3556-1.7778Zm-2.4 2.5778c-.2666.2666-.8.3555-1.0666.3555h-.7112l.2667-1.9555h.7111c.3556 0 .7111.0889.8889.2666.0889.1778.1778.3556.1778.5334 0 .3555-.0889.6222-.2667.8Zm18.5778-.3556h-3.022l.533-3.11109h-2.489l-1.422 8.71109h2.489l.533-3.5555h3.022l-.622 3.5555h2.489l1.422-8.71109h-2.489l-.444 3.11109ZM64.6221 9.29861l-1.4222 8.71109h2.4889l1.0666-6.6666h2.7556l.3556-2.04449h-5.2445Zm55.0219 6.22219c-.355.2667-.889.5334-1.511.5334-.622 0-1.155-.2667-1.422-.7111-.444-.6223-.444-1.2445-.267-2.0445.089-.6222.267-1.1555.889-1.6889.267-.2666.889-.5333 1.511-.5333.623 0 1.156.2667 1.423.7111.088.0889.088.1778.177.2667l1.867-1.6c-.711-1.0667-1.867-1.51114-3.2-1.51114-1.422 0-2.489.44444-3.2 1.06664-.711.5334-1.422 1.5111-1.778 2.9334-.533 2.1333.089 3.3777.8 4.0888.8.8889 1.867 1.0667 2.934 1.0667 1.422 0 2.755-.5333 3.733-1.6l-1.511-1.6c-.089.2667-.267.4445-.445.6222ZM98.2221 9.29861l-4.4444 8.79999h2.6666l.8-1.5111h2.9337l.266 1.5111h2.578l-1.689-8.79999h-3.1109Zm-.2667 5.24449 1.5112-3.2.5333 3.2h-2.0445ZM74.9332 9.03195c-1.0666 0-2.3111.26666-3.2889 1.06665-.8889.7111-1.8666 1.9556-1.9555 4.0889-.0889 1.5111.4444 2.4.9778 2.9333.6222.6223 1.6 1.0667 3.1111 1.0667 1.0666 0 2.3111-.2667 3.2889-1.0667.8888-.7111 1.8666-1.9555 1.9555-4.0889.0889-1.5111-.4444-2.4-.9778-2.9333-.6222-.62221-1.6-1.06665-3.1111-1.06665Zm1.5111 4.17775c0 1.1556-.4444 1.7778-.8 2.2222-.3555.3556-.9777.7112-1.6889.7112-.7111 0-1.1555-.2667-1.4222-.5334-.3555-.4444-.4444-1.0666-.4444-1.5111 0-1.1555.4444-1.7778.8-2.2222.3555-.4445 1.0666-.7111 1.6889-.7111.7111 0 1.1555.2666 1.4222.5333.4444.5333.5333 1.0667.4444 1.5111Zm3.3778-1.8666h1.9556l-1.0667 6.6666h2.4889l1.0667-6.6666h1.8666l.3556-2.04449h-6.3111l-.3556 2.04449Z"/>
	</g>
</svg>