<svg xmlns="http://www.w3.org/2000/svg" viewBox="0 0 160 28">
	<g fill="#fff">
		<path d="M34.7363 17.7354c.533.6219 1.4214.7996 2.5763.7996h3.6424c2.754 0 3.3759-1.5103 3.3759-4.0866v-3.0206c0-2.48749-.6219-4.17544-3.3759-4.17544h-3.7312c-2.1322 0-3.3759 1.15491-3.3759 3.28704v.2665h1.5102v-.2665c0-.62186.0889-.97722.3554-1.15489.2665-.17768.7107-.4442 1.5103-.4442h3.7312c1.7768 0 1.9545.88839 1.9545 2.48749v.5331h-7.2848v1.6879h7.2848v.8884c0 1.5991-.1777 2.3987-1.9545 2.3987h-3.7312c-1.2438 0-1.8657-.3554-1.8657-1.5991v-.2666h-1.5102v.2666c0 .9772.3553 1.7767.8884 2.3986Zm10.6607.7996h1.4214v-3.4648h5.1527v3.4648h1.5991v-8.0844h-1.5991v3.0205h-5.1527v-3.0205H45.397v8.0844Zm25.5858-7.1072c-.5331-.7107-1.3326-.9772-2.221-.9772h-2.3987c-.533 0-.9772.0888-1.3326.3553h-.0888v-.3553h-1.5103v11.1049h1.5103v-3.3759c.4442.2665.9772.4442 1.5103.4442h2.3098c.9772 0 1.5991-.2665 2.1321-.9772.4442-.5331.6219-1.3326.6219-2.3098v-1.5992c.0889-.9772-.1777-1.6879-.533-2.3098Zm-.8884 3.909c0 1.1549-.4442 1.6879-1.5991 1.6879h-1.9545c-1.0661 0-1.5103-.7107-1.5103-1.6879l-.0888-.7996.0888-.7996c0-.9772.4442-1.6879 1.5103-1.6879h1.9545c1.1549 0 1.5991.533 1.5991 1.6879v1.5992Zm3.6424 3.1982v-6.5741h4.7973v-1.5103h-6.3076v8.0844h1.5103Zm12.9706-7.1072c-.5331-.7107-1.3326-.9772-2.3098-.9772h-2.3987c-.9773 0-1.7768.2665-2.3098.9772-.4442.6219-.7108 1.3326-.6219 2.221v1.5991c0 1.9545.7995 3.2871 2.9317 3.2871h2.3987c.9772 0 1.7767-.2665 2.3098-.9773.4442-.6218.6219-1.3326.6219-2.2209v-1.5992c.0888-.9772-.1777-1.7767-.6219-2.3098Zm-.8884 3.8201c0 1.0661-.4442 1.7768-1.5103 1.7768h-2.3098c-.9773 0-1.5103-.533-1.5103-1.7768v-1.5991c0-1.0661.3554-1.6879 1.5103-1.6879h2.3098c1.1549 0 1.5103.7107 1.5103 1.6879v1.5991Zm13.6813-6.30759V18.535h1.5107V7.43004h-2.3991l-3.9978 8.52856-4.0866-8.52856h-2.3987V18.535h1.5103V8.85147l4.5308 9.68353h.7996l4.5308-9.59469Zm7.7287 1.51029h-2.665c-.711 0-1.332.1777-1.777.6219-.444.4442-.799.9772-.622 1.5102h1.511c.089-.1777.089-.2665.089-.2665.177-.1777.444-.3553 1.066-.3553h2.309c.445 0 .711.0888.889.3553.089.1777.266.4442.266.8884v.2665c-.177-.0888-.444-.0888-.799-.0888h-3.554c-.622 0-1.244.1777-1.599.6219-.355.3553-.533.8884-.533 1.5102v.8884c0 1.5103.888 2.221 2.31 2.221h3.376c.266 0 .533-.0888.799-.1777v.1777h1.511V13.56c0-1.8657-.622-3.1094-2.577-3.1094Zm.178 6.4853h-3.021c-.444 0-.71-.0889-.799-.2666-.089-.0888-.178-.2665-.178-.6218v-.5331c0-.3553.089-.533.178-.6218.089-.0889.266-.1777.799-.1777h3.021c.711 0 .977.3553.977 1.0661 0 .8883-.266 1.1549-.977 1.1549Zm3.287-6.4853v8.0844h12.615v-8.0844h-1.51v6.4853h-3.998v-6.4853h-1.599v6.4853h-3.998v-6.4853h-1.51Zm19.634 1.3326h-4.531V9.11799h7.018V7.43004h-8.528V18.6238h6.396c2.31 0 2.932-1.1549 2.932-3.3759 0-2.3987-.889-3.4647-3.287-3.4647Zm.355 5.0638h-4.886v-3.3759h4.708c1.333 0 1.511.5331 1.511 1.7768.088 1.1549-.089 1.5991-1.333 1.5991Zm8.884-6.3964h-2.665c-.711 0-1.333.1777-1.777.6219-.444.4442-.8.9772-.622 1.5102h1.51c.089-.1777.089-.2665.089-.2665.178-.1777.444-.3553 1.066-.3553h2.31c.444 0 .711.0888.888.3553.089.1777.267.4442.267.8884v.2665c-.178-.0888-.444-.0888-.8-.0888h-3.553c-.622 0-1.244.1777-1.599.6219-.356.3553-.533.8884-.533 1.5102v.8884c0 1.5103.888 2.221 2.31 2.221h3.375c.267 0 .533-.0888.8-.1777v.1777h1.51V13.56c0-1.8657-.71-3.1094-2.576-3.1094Zm.089 6.4853h-3.021c-.444 0-.711-.0889-.799-.2666-.089-.0888-.178-.2665-.178-.6218v-.5331c0-.3553.089-.533.178-.6218.088-.0889.355-.1777.799-.1777h3.021c.71 0 .977.3553.977 1.0661 0 .8883-.267 1.1549-.977 1.1549Zm3.464 1.5991h1.511v-3.4648h5.152v3.4648h1.511v-8.0844h-1.511v3.0205h-5.152v-3.0205h-1.511v8.0844Zm9.151-8.0844v8.0844h1.51v-3.7313h.444l3.643 3.7313H160l-4.442-4.442 4.175-3.6424h-2.309l-3.11 2.8428h-.533v-2.8428h-1.51Zm-91.1494 5.2415v.2665c0 .7107-.3554 1.0661-1.0661 1.0661h-2.8428c-.4442 0-.7996-.0888-.9773-.3554-.2665-.2665-.4442-.7107-.4442-1.4214v-.4442h6.663v-1.5103c0-.7995-.2665-1.5102-.7107-2.0433-.5331-.6218-1.3326-.8884-2.1322-.8884h-2.4875c-.8884 0-1.5991.3554-2.1321.9773-.4442.6219-.7107 1.3326-.7107 2.1321v1.9545c0 1.9545.9772 3.1094 2.8428 3.1094h2.9317c.7996 0 1.5103-.3554 1.9545-.9773.3553-.4442.533-.9772.533-1.5991v-.2665h-1.4214Zm-3.9978-3.7312h2.754c.4442 0 .7108.0888.9773.4441.1777.2666.2665.6219.2665.9773h-5.2415c.0888-.7996.4442-1.4214 1.2437-1.4214ZM.0888399 24.8426c1.4214301.4442 2.9317001.7107 4.5308201.7107 6.84064 0 12.34874-4.7085 12.79284-10.8384H9.23931c-.53304 0-.97723-.3554-.97723-.7996s.97723-.7995.97723-.7995h8.17319c-.4441-6.04112-6.041-10.83846-12.88168-10.83846-1.59912 0-3.10939.26652-4.53082.79956v8.0844h8.43976c.53303 0 .97723.3554.97723.7996 0 .4441-.97723.7995-.97723.7995H.0888399v12.0822Z"/>
		<path d="M12.7041.5h12.3487c1.5103 0 2.6652 1.15491 2.6652 2.66519V24.7532c0 1.5103-1.1549 2.6652-2.6652 2.6652H12.7929c5.2416-2.6652 8.7063-7.7291 8.7063-13.4148C21.5881 8.1402 17.9456 3.07635 12.7041.5Z"/>
	</g>
</svg>