<svg xmlns="http://www.w3.org/2000/svg" viewBox="0 0 160 30">
	<g fill="#fff">
		<path d="M53.1 13.7c0-.6-.3-1.3-.5-1.9-.8-1.9-2.1-3.7-3.7-5.1L48 6c.2-.5.2-.6 2.1-5.3-1.9.9-3.8 1.8-5.4 3.1-.5-.2-.7-.3-1.2-.6-1.5-.6-3.1-1.2-4.7-1.7C36.1.8 33.3.4 30.6.1c-1.5 0-3-.2-4.5 0L22 .3c-1.9 0-3.8.5-5.8.9-.7.2-1.3.3-1.9.5-.4.1-.8.2-1.1.4-.5 0-1 .4-1.5.5-1.3.5-2.6 1.1-3.8 1.7-1 .6-2 1.2-2.9 1.9-.3.3-.6.5-.9.7-1 .9-1.8 1.9-2.6 2.9C.8 10.9.3 12 0 13.3v3.3c.4 1.3.8 2.7 1.6 3.8.1.1.3.3.4.5.7.9 1.5 1.7 2.4 2.5.3.4.6.8 1 1.1.5.4 1 .9 1.6 1.2 0 0 .2.1.3.2 0 0 .2.1.3.2.9.5 1.7.9 2.6 1.2.8.3 1.8.6 2.6.7.4 0 .9 0 1.3.2.4.1.9.2 1.3.4 3.3.8 6.5 1.3 10 1.4.8 0 1.6 0 2.2-.1 1.5 0 3 0 4.5-.3 1.8-.2 3.5-.5 5.2-.9.4 0 .9-.2 1.3-.4 1.1-.4 2.4-.8 3.5-1.2 1.2-.5 2.4-1.1 3.6-1.7.3-.3.8-.5 1.1-.7.7-.5 1.4-1 2.1-1.6.5-.5 1-.9 1.5-1.4.4-.5.9-1 1.2-1.6.4-.6.7-1.3 1-1.9.3-.8.5-1.6.6-2.5v-1.5h-.1v-.4ZM48.2 2.6c-.6.8-1.1 1.6-1.6 2.5l-.6-.4c-.2-.1-.5-.3-.7-.4.9-.6 1.8-1.3 2.9-1.7Zm-19.5-1v.2c0 .3 0 .7.2 1 0 .3 0 .6.2.9-.5-.9-1.2-1.6-2.1-2.1h1.7Zm-9 .9s.3-.2.5-.3c1.4-.2 2.9-.4 4.3-.4h.2c1.4.4 2.6 1 3.5 2 .7.9 1.1 1.9 1.6 2.9.1 0 .3 0 .5.2-.6-1.6-.9-3.3-1.1-5-.4-.1 3.2.2 3.6.3.5 0 1.1 0 1.6.3 1.5.3 3.1.6 4.6 1.1 1.2.4 2.4.9 3.6 1.4.2 0 .4.2.6.3-2.6 2.5-5.3 6.8-7.7 10-2.1-1.6-4.4-2.9-7-3.3-3.7-.9-10-.4-9 4.3.9 2.9 3.7 4.7 6.5 6.1-2.1.9-5.3 1.6-7.8 1.3 1.8-1.3 2.3-2.9 1.3-4.7-1.6-2.3-4.6-3.1-7.4-3.6.5-3.3 4.3-6 7.7-7.1 2.6.8 5.4 1 7.9 0 .5-.2.5-.6 0-.9-1.6-.8-5.7 0-7.5.2-.1 0-.3-.2-.4-.4-1.4-1.4-1.8-3.3 0-4.6Zm12.7 13c-.3-1-.6-1.7-1.5-2.3 1.1.2 3.4 1.8 4.4 2.6-2 2.4-4.1 5.5-6.4 7.3-.4 0-.9-.4-1.3-.5 2.3-1.6 5.4-4.2 4.8-7.1Zm-5.6 6.6c-2.5-1.7-5.4-3.1-5.1-6.6.3-2 2.1-2.7 4.3-2.8 2.3 0 3.8.6 5.2 2.3 0 .2.2.4.2.6.6 2.7-2.3 5.1-4.6 6.5Zm-9.1 1.6c-.3 0-.6-.1-.9-.1-4.1-1-5.4-3.3-4.9-7 3.4.2 10.1 2.5 6.2 6.8 0-.1-.4.3-.4.3ZM21.2 8c2-.4 3.7-.6 5.7-.4v.3c-.7.4-3.8.9-5.6 0ZM3.5 19.1h-.2c-.6-.8-.9-1.7-1.2-2.6v-.6c-.3-1.7.2-3.4 1.1-4.9 0-.2.3-.4.4-.6.5-.6 1-1.2 1.6-1.8.6-.5 1.1-.9 1.7-1.4 1.5-1 3.1-1.9 4.7-2.6.3 0 .6-.2.9-.4 2.1-.8 4.2-1.4 6.4-1.7-2.5 1.6-2.1 3.8.4 5.1-3.6.6-9.1 3.1-9.7 7.5-2.9.2-5.7 1.1-6.1 4Zm10.9 7.3h-.1c-2.5-.8-4.9-1.8-7-3.3-.9-.6-1.7-1.2-2.4-2-.7-2 .4-4.7 4.4-4.8-.3 3 1.1 5.5 3.9 7.1 4.1 2.1 9.4 1.4 13.4-.5.2 0 .3-.1.3-.1.3 0 1.5.6 1.7.6-2.6 2-6.5 3.8-10.1 4-1.4-.3-2.8-.6-4.1-1Zm23.9.2C32.8 28 27 28.4 21.2 27.8c3.1-.6 5.7-2.1 7.9-4.1 2.8 1.1 6.5 1.9 9.6 1.6l-.4 1.3Zm.7-1.8c-3.8.1-7-.7-9.3-1.6 1.4-1.1 4.5-5.2 6.1-7.1 2.8 2.6 3.6 6.2 3.2 8.7Zm.6-2.7c-.3-1.6-.9-4.1-3.5-6.3 1.3-1.8 2.2-3.1 3.1-4.4 1.2-1.8 2.2-3.3 3.8-5.2l.7-.7c.6.4 1.3.7 1.9 1.1-2.3 5.1-4.3 10.2-6 15.5Zm11.7-5.9h-.1c0 .3-.2.7-.2 1s0 .4-.2.5c-.4.9-.9 1.7-1.6 2.6-1.8 2.2-4.6 3.8-7.1 5 1.1-6 3.1-11.6 5.3-17.4.5.4.9.8 1.4 1.3.3.4.4.5.8.9.7.9.9 1.6 1.4 2.6.3.9.4 1.9.4 2.8v.7ZM100.4 12.8c-.6 0-.9-.5-.9-1.5V8.4l.5-.4c.6.6 1.1 1.3 1.4 2 .3.5.8 1.8.8 2.3s-.4.5-.7.5v.4h5.2v-.4c-.6 0-.9-.5-1.1-1.1-.8-2.1-1.6-3.9-3.3-5.5l.8-.6c.9-.6 1.8-1.2 2.8-1.4v-.4h-4.4v.4c1.5.2.2 1.2-.3 1.7l-1.6 1.4c0-.8-.3-3.2.8-3.1v-.4h-4.8v.4c.6 0 .9.4.9 1.4v5.8c0 1-.2 1.4-.9 1.4v.4h4.8v-.4ZM89 12.7c-.7 0-.9-.4-.9-1.5v-4h3v4c0 1.1-.2 1.5-.9 1.5v.4H95v-.4c-.6 0-.9-.4-.9-1.4V5.5c0-1 .2-1.4.9-1.4v-.4h-4.8v.4c1 0 .9 1.3.9 2.2h-3c0-.9 0-2.3.9-2.2v-.4h-4.8v.4c.7 0 .9.7.9 1.4v5.8c0 1-.2 1.4-.9 1.4v.4H89v-.4ZM159.7 24c-.8 2.3-4.2 2.4-5.5.4-.6-.8-.9-1.8-.9-2.8 0-4.3 4.7-4.1 5.8-.4h.3l-.8-4.1c-.2.4-.8.4-1.2.3-8.7-2.1-9.9 9.7-1.2 9.7h2c.3 0 .5-.2.7 0L160 24h-.3Z"/>
		<path d="M145.3 17.8c.9 0 .9 1.3.9 2.2h-2.8c0-.9-.1-2.3.9-2.2v-.4h-4.4v.4c.6 0 .8.4.8 1.5v5.8c0 1-.2 1.4-.8 1.4v.4h4.4v-.4c-.6 0-.9-.5-.9-1.6v-4.1h2.8v4.1c0 1.1-.2 1.5-.9 1.5v.4h4.4v-.4c-.8 0-.8-.7-.8-1.4v-5.8c0-1 .2-1.4.8-1.4v-.4h-4.4v.4ZM113.1 17.8c.6 0 .6.5.4.9-2.3 3-2.7 6.8-2.7 8.2h3.1v-.4c-1 0-1.3-.9-1.3-1.5 0-2.5 1-4.8 2-6 .7-.9 2.2-1.2 2.1.4v5.5c0 .8 0 1.5-.8 1.6v.4h4.4v-.4c-.8 0-.8-.7-.8-1.5v-5.6c0-.8 0-1.6.8-1.6v-.4h-7v.4ZM70.6 23.3c-.7 1.4-1.8 2.6-3.6 2.6-.9 0-1.4-.3-1.4-1.7v-2.8c.8 0 1.5-.2 2.2.4.3.3.5.6.7 1.1h.3l-.6-3.6h-.3c0 1.6-1.3 1.2-2.3 1.2v-.6c0-1 0-1.5 1.3-1.5s2.6.9 3 2.2h.3l-.7-3.3c-.3.3-.8.2-1.1.2H62v.4c.6 0 .8.4.8 1.4v5.8c0 1-.2 1.4-.8 1.4v.4h6.9c.3 0 .6 0 .9.2l1.2-3.8h-.3ZM75.9 12.6h-.1c-.5.1-.8-.2-.7-.7 0-.3.2-.7.3-.9l.6-1.4c.9 0 1.6.1 2.3.6.9.5 2.1 2.3.4 2.6v.4h5.2v-.4c-.8 0-1-1-1.3-1.6-.8-2.1-1.9-5-2.3-6.6 0-.2.1-.4.4-.4v-.5h-4.4v.4c.7 0 .2.8 0 1.1L74 11c-.3.6-.6 1.4-1.4 1.6v.4h3.3v-.4Zm1.4-6.9L78.4 9c-.6-.4-1.4-.7-2.1-.7l1-2.6ZM70.5 12.8v-.2c1-.5 1.6-1.3 1.6-2.2 0-2.5-2.8-3.6-6.3-3.6 0-.4 0-1.6.1-1.8.5-.3 1.2-.2 1.7-.2 1.5 0 2.8.9 3.3 2.2h.4l-.9-3.3c-.3.3-.9.2-1.3.2h-7.3v.4c.6 0 .9.4.9 1.4v5.8c0 1-.2 1.4-.9 1.4v.4h5.8c.9 0 2.1 0 2.9-.5Zm-4.8-1.6V7.7c3.4-.1 4.5 4.3.9 4.4-.9 0-.9-.2-.9-.9ZM131.3 17.6c-1.8 1-.2 3.1 1.2 3.7-1 1.1-1.8 2.6-2.3 4-.2.5-.4 1.2-1.1 1.2v.4h4.7v-.4c-1.7 0 1-3.6 1.4-4.1h.5V25c0 1-.2 1.4-.8 1.4v.4h4.3v-.4c-.6 0-.7-.4-.7-1.4v-5.8c0-1 .2-1.4.8-1.4v-.4H133c-.6 0-1.2 0-1.7.2Zm3.2.8h.1c.3 0 .7 0 .9.3.1 0 .1.6.1.7v2.1c-1-.2-2.2-.8-2.2-2s.5-1.1 1.1-1.1Z"/>
		<path d="M124.3 20.5c0-.8-.3-2.9.9-2.7v-.4h-4.5v.4c.6 0 .8.4.8 1.4V25c0 1-.2 1.4-.8 1.4v.4h4.5c2.8 0 4.3-1 4.3-2.8s-2.5-3.3-5.2-3.5Zm.5 5.5c-.6 0-.6-.4-.6-.9v-3.6c2.5 0 3.2 4.4.6 4.5ZM109.3 24.8v.2c-.4-1.6-2-6.3-2.1-7 0-.2 0-.4.3-.4v-.4h-4.1v.4c.5 0 .2.8 0 1.1l-2.2 6c-.3.6-.5 1.5-1.3 1.6v.4h3.1v-.4c-1 0-.6-1.2-.4-1.8l.5-1.5c.8 0 1.5 0 2.1.6.9.4 1.9 2.4.4 2.6v.4h4.8v-.4c-.6 0-.9-.8-1.1-1.4Zm-5.5-2.7.9-2.7 1.1 3.4c-.6-.4-1.2-.7-1.9-.7ZM98.8 18.5c-3.1-2.8-8.8-.9-8.7 3.6 0 1.4.4 2.8 1.4 3.7 2 1.8 5.4 1.7 7.4 0 1.9-1.9 1.8-5.5 0-7.3Zm-1.9 6h-.1c-.8 2.1-2.8 1.6-3.4-.3-.5-1.4-.6-3.2-.1-4.6.8-1.9 2.8-1.3 3.3.4.3.9.4 1.8.4 2.7.1.6 0 1.3 0 1.8ZM88.7 17.6c-1.4-.3-6.3 0-7.8 0v.4c.6 0 .7.4.7 1.4v5.8c0 1-.2 1.4-.8 1.4v.4h4.5v-.4c-.7 0-.8-.6-.9-1.4v-2.6c1.6-.4 5.3-1.3 5.3-3.5s-.4-1.2-1.1-1.4Zm-4.1 3.9v-1.9c0-.9 0-1.2.9-1.2s1.4.3 1.4 1.1c0 1.2-1.3 1.8-2.3 2Z"/>
		<path d="M77.4 21.1c.9-.4 2.2-1.1 2.2-2.2s-1.5-1.4-2.5-1.4h-6.2v.4c.6 0 .8.4.8 1.4v5.8c0 1-.2 1.4-.8 1.4v.4h5.4c.9 0 1.9 0 2.7-.5 2.6-1.6 1.1-4.9-1.6-5.3Zm-2.8-1.8c0-.3 0-.6.1-.7.2-.2.6-.2.9-.2.5 0 1.3.2 1.3.9 0 1.1-1.4 1.7-2.3 1.8v-1.8Zm.8 6.7c-.9 0-.9-.3-.9-1v-2.8l1.4-.5c2 1 2.1 4.3-.6 4.3Z"/>
	</g>
</svg>