<svg xmlns="http://www.w3.org/2000/svg" viewBox="0 0 160 21">
	<path fill="#fff" d="M6.67019 9.06187 0 3.46209 2.90652 0l6.67019 5.59982c2.96079 2.48571 2.95839 7.04248-.00507 9.52498l-6.64382 5.5656-2.9028324-3.4652L6.6688 11.6596c.8082-.677.80888-1.91978.00139-2.59773Z"/>
	<path fill="#fff" d="m24.7528 8.37031-3.7347-.74281c1.011-3.46635 3.941-5.24078 8.0883-5.24078 5.1995 0 8.4595 2.78545 8.4595 8.15008 0 5.3646-3.26 8.15-8.4595 8.15-4.2917 0-7.2629-1.8982-8.1709-5.5709l3.7347-.6397c.5778 1.8984 2.1045 2.9094 4.4362 2.9094 2.4555 0 4.0028-1.1967 4.4774-3.322h-6.6439V9.00994h6.6439c-.4746-2.12522-2.0219-3.32193-4.4774-3.32193-2.2284 0-3.7346.92849-4.3536 2.6823Zm15.014 9.90389V2.79938h3.7965v6.10736h2.7648l4.1885-6.10736h4.4155L49.5263 10.186l5.8389 8.0882h-4.6423l-4.3122-6.1487h-2.8474v6.1487h-3.7965Zm28.2562-5.5709 3.714.7427c-.9903 3.4458-3.9203 5.2408-8.088 5.2408-5.179 0-8.4596-2.7854-8.4596-8.15 0-5.36463 3.26-8.15008 8.4596-8.15008 4.2914 0 7.2833 1.89823 8.1913 5.57093l-3.7553.63961c-.5777-1.89823-2.1046-2.90925-4.436-2.90925-3.0126 0-4.622 1.77444-4.622 4.84879 0 3.0743 1.6094 4.8488 4.622 4.8488 2.2283 0 3.7346-.9492 4.374-2.6823Zm20.8819-9.90392V18.2742h-3.7968V8.6798l-7.2627 9.5944h-3.7965V2.79938h3.7965v9.65622l7.2627-9.65622h3.7968Zm12.5291 9.05792h-5.7362v3.1156h5.7362c.97 0 1.63-.4539 1.63-1.5475 0-1.0935-.66-1.5681-1.63-1.5681Zm-9.5327-9.05792h14.0717v3.30129H95.6978v2.80607h6.2512c2.827 0 4.973 1.52686 4.973 4.60126 0 3.0949-2.146 4.7662-4.973 4.7662H91.9013V2.79938Zm23.7427 3.46636-2.064 6.14866h5.056l-2.064-6.14866h-.928Zm-4.003 12.00846h-4.045l5.613-15.47482h5.819l5.611 15.47482h-4.043l-.95-2.8268h-7.077l-.928 2.8268Zm25.995 0v-6.0868h-7.592v6.0868h-3.797V2.79938h3.797v6.08676h7.592V2.79938h3.797V18.2742h-3.797Zm6.766 0V2.79938h3.796v6.10736h2.765l4.188-6.10736h4.416l-5.406 7.38662L160 18.2742h-4.643l-4.312-6.1487h-2.847v6.1487h-3.796Z"/>
</svg>