<svg xmlns="http://www.w3.org/2000/svg" viewBox="0 0 160 12">
	<path fill="#fff" d="M0 0h21.2326l-5.597 11.5491-8.3508-6.13023L0 0Zm18.6036 2.36848L10.0157 5.7711l5.1187 3.7566 3.4692-7.15922ZM153.693 10.928h-1.777V.976889h1.777V5.68608l3.908-4.709191h2.133l-4.087 4.620701L160 10.928h-2.221l-4.086-5.15343V10.928Zm-5.42 0h-1.688V6.75146h-4.531v4.26504h-1.776V1.06712h1.776v4.08627h4.531V1.06712h1.688V10.928Zm-16.79-4.08631h2.842l-1.421-3.55358-1.421 3.55358Zm-1.688 4.08631h-1.777l4.353-9.951111h1.51l4.176 9.951111h-1.866l-1.066-2.57673h-4.264l-1.066 2.57673Zm-5.331-3.02093c0-.88839-.533-1.50958-1.777-1.50958-.355 0-.799.0885-1.154.0885v2.84217c.355.08849.71.08849 1.066.08849 1.332 0 1.865-.62118 1.865-1.50958Zm-3.926 3.04863c-.292-.0156-.549-.0277-.782-.0277V1.06712h5.774v1.59807h-4.086v2.22099c.257-.0642.655-.08155.989-.08676l.343-.00173c2.132 0 3.376 1.1556 3.376 3.02089 0 2.04227-1.421 3.19792-3.82 3.19792-.723 0-1.306-.0347-1.794-.0608Zm-12.687-.0277h-1.777V1.06712h1.777l3.376 4.61896 3.198-4.61896h1.688V10.928h-1.688V3.7323l-3.109 4.44198h-.266l-3.199-4.35348v7.1072Zm-7.018-7.01871L95.5913 10.928v.0885h-1.5102V1.06712h1.7768v7.01694L101.1 1.06712h1.51V10.928h-1.777V3.90929ZM88.3954 9.50688c.8884 0 1.6879-.26721 2.3986-.7999l.6219 1.42112c-.6219.7114-1.8655 1.1556-3.1981 1.1556-3.1094 0-5.1528-2.04403-5.1528-5.15342 0-2.84217 1.7768-5.153391 5.0638-5.153391 1.2437 0 2.3987.355701 3.0205.978621l-.7995 1.3326c-.5331-.4442-1.2436-.71141-2.221-.71141-1.7767 0-3.1983 1.33259-3.1983 3.46509 0 2.04227 1.4216 3.46509 3.4649 3.46509ZM75.8689 10.928h-1.8655V1.06712h1.7768v4.70745L79.778.976889h2.1321L77.8234 5.59759l4.3532 5.33041h-2.221l-4.0867-5.15343V10.928Zm-6.4853-4.17654h-4.442V5.0649h4.442c-.3553-1.6883-1.6879-2.5767-3.5536-2.5767-.5578 0-1.1157.13014-1.6434.38868-.2286.11278-.4516.24986-.6663.41123l-.7107-1.3326c.6218-.53442 1.8657-1.067114 3.3759-1.067114 2.9318 0 4.9749 1.955514 4.9749 5.064894 0 3.10939-1.9544 5.15171-5.1525 5.15171-1.4215 0-2.6652-.4442-3.376-1.0654l.7108-1.42112c.6218.53269 1.5102.8884 2.5762.8884 1.1314 0 2.1829-.39909 2.8335-1.22502.3202-.40602.5434-.91442.6312-1.5304ZM58.1899 9.50688c.7995 0 1.5992-.26721 2.3097-.7999l.7108 1.42112c-.6218.7114-1.8655 1.1556-3.1981 1.1556-3.1094 0-5.1527-2.04403-5.1527-5.15342 0-2.84217 1.7768-5.153391 5.0638-5.153391 1.3326 0 2.3986.355701 3.0204.978621l-.7994 1.3326c-.3267-.27242-.7199-.47717-1.2003-.59689-.3037-.07462-.6422-.11452-1.0207-.11452-1.7768 0-3.1983 1.33259-3.1983 3.46509 0 2.04227 1.4215 3.46509 3.4648 3.46509ZM45.4858 2.4882c-1.8657 0-3.287 1.42109-3.287 3.46509 0 2.04227 1.5102 3.55359 3.287 3.46336 2.1321 0 3.376-1.50958 3.376-3.46336 0-2.044-1.5102-3.46509-3.376-3.46509Zm0 8.6168c-2.9317 0-5.1527-2.04232-5.1527-5.15171 0-2.8439 2.1323-5.064894 5.1527-5.153387 2.9318 0 5.1528 2.044007 5.1528 5.153387 0 3.01916-2.221 5.15171-5.1528 5.15171Zm-8.9729-6.9285c0-.97862-.7105-1.51131-1.8655-1.51131h-1.2438v3.02089c.4442.08849.8884.08849 1.2438.08849 1.0661 0 1.8655-.53269 1.8655-1.59807Zm-3.1093 3.19788V10.928h-1.6879V.976889h2.8428c2.9318 0 3.8202 1.599811 3.8202 3.199611 0 1.68657-1.2437 3.19788-3.6425 3.19788h-1.3326Z"/>
</svg>