<svg xmlns="http://www.w3.org/2000/svg" viewBox="0 0 160 18">
	<path fill="#FDA329" d="M2.01511 0C1.3299 0 .644875.120828 0 .403023V10.4384c2.78082 1.1284 5.92451-.242 7.05289-3.02263C8.18128 4.63476 6.81104 1.49126 4.03023.403023 3.73819.293608 3.43789.200724 3.13287.131848 2.76468.0484099 2.38999 0 2.01511 0ZM14.8715.0401448c-2.9823 0-5.40047 2.4181352-5.40047 5.4006552 0 2.98214 2.41817 5.4003 5.40047 5.4003 2.9823 0 5.4005-2.41816 5.4005-5.4003 0-2.98252-2.4182-5.4006552-5.4005-5.4006552ZM0 12.8566h29.7833v4.0703H0v-4.0703ZM28.6361.0747796C28.3358.0236146 28.0319 0 27.7281 0c-.6852 0-1.3703.161366-2.0555.403023C22.8918 1.53141 21.5617 4.6749 22.6903 7.45592c1.1284 2.78098 4.2721 4.11088 7.0529 2.98248V.403023c-.359-.157038-.7303-.26409-1.1071-.3282434Z"/>
	<path fill="#fff" d="M108.978 15.3941c-1.129-1.2091-1.693-2.7-1.693-4.5136 0-1.97494.322-3.54689.886-4.59459.605-1.08824 1.774-2.09579 3.587-2.98252.242-.12083.645-.32234 1.129-.52385l.967-.48371c.113-.04526.24-.1161.386-.19836.113-.06376.239-.13421.38-.20466.846-.52385 1.088-.926874 1.491-1.8537475l2.458 1.4105775c-.201.96741-.645 1.69278-1.37 2.21663-.685.52385-1.733 1.0477-3.184 1.57194-1.975.76551-2.74 1.49087-3.143 2.57911.846-.88673 2.015-1.3299 3.506-1.3299 1.29 0 2.458.48371 3.466 1.41058 1.008.92688 1.531 2.1765 1.531 3.748 0 1.6121-.523 2.9019-1.652 3.9496-1.088 1.0481-2.499 1.5318-4.272 1.5318-1.854.0401-3.305-.5243-4.473-1.7333Zm2.377-5.76318c-.604.48368-.886 1.12838-.886 1.93448 0 .806.282 1.4912.846 2.0151.604.5242 1.29.806 2.136.806.846 0 1.532-.2416 2.096-.7655.524-.5238.806-1.1689.806-1.975 0-1.5715-1.209-2.74044-2.902-2.74044-.806 0-1.491.24166-2.096.72536ZM52.0706 2.61817c1.6121 1.61209 2.4182 3.6272 2.4182 6.04534 0 2.41809-.8061 4.43329-2.4182 6.04529-1.612 1.6527-3.6272 2.4587-6.0856 2.4587-2.9824 0-5.602-1.4912-7.0126-3.8692l2.7808-1.6121c.7657 1.4106 2.3778 2.2973 4.2318 2.2973 2.66 0 4.5542-1.4913 5.1184-3.8689h-7.2947V7.09196h7.2947C50.5392 4.71397 48.645 3.2227 45.985 3.2227c-1.854 0-3.4257.84659-4.2318 2.33746l-2.7808-1.61209C40.383 1.57047 43.043.0792073 45.985.0792073 48.4434.159891 50.4586.965936 52.0706 2.61817ZM67.3855 16.8452h-3.5064l-4.2317-5.32v5.32h-3.0227V5.15753h3.0227v5.15857l4.0302-5.15857h3.5869l-4.7153 5.76317 4.8363 5.9245Zm.0807-5.8438c0 1.7329.5642 3.184 1.7329 4.3931 1.2091 1.209 2.66 1.773 4.4736 1.773 2.257 0 4.2317-1.1685 5.2796-3.0226l-2.6196-1.4909c-.4837.967-1.4913 1.5314-2.7003 1.5314-.9269 0-1.6523-.3223-2.2568-.8867-.5644-.6046-.8867-1.3705-.8867-2.2973 0-1.85379 1.3299-3.18369 3.1435-3.18369 1.1689 0 2.1764.60454 2.6599 1.57156l2.5793-1.53141c-.9672-1.85375-2.9823-3.02267-5.2392-3.02267-1.7733 0-3.2242.56439-4.4333 1.77346-1.1687 1.20906-1.7329 2.65979-1.7329 4.39275Zm23.8185 5.8438H88.262V7.97869h-4.6348v8.86651h-3.0226V5.15753h10.6801V16.8452Zm3.9094-1.4507c1.209 1.209 2.6599 1.773 4.3929 1.773s3.184-.564 4.393-1.773c1.209-1.2091 1.814-2.7004 1.814-4.3931 0-1.69282-.605-3.14354-1.814-4.35261-1.209-1.20907-2.66-1.8136-4.393-1.8136-1.733 0-3.1839.60453-4.3929 1.8136-1.2091 1.16892-1.7733 2.61965-1.7733 4.35261 0 1.7329.5642 3.184 1.7733 4.3931Zm6.6499-2.0958c-.605.6045-1.33.9268-2.257.9268-.9269 0-1.6523-.3223-2.2568-.9268-.5644-.6046-.8867-1.3705-.8867-2.2973 0-.9269.3223-1.69282.8867-2.29735.6045-.60454 1.3299-.92688 2.2568-.92688.887 0 1.652.32234 2.257.92688.604.60453.927 1.37045.927 2.29735 0 .9268-.323 1.6927-.927 2.2973Zm31.234-8.14117h-3.022v1.37043c-.928-1.12838-2.177-1.69277-3.829-1.69277-1.572 0-2.902.60453-4.03 1.8136-1.089 1.16892-1.653 2.61965-1.653 4.35261 0 1.7329.564 3.184 1.653 4.3931 1.128 1.209 2.458 1.773 4.03 1.773 1.652 0 2.901-.564 3.829-1.6924v1.3701h3.022V5.15753Zm-3.99 8.22177c-.604.6046-1.37.9269-2.297.9269s-1.693-.3223-2.297-.9269c-.605-.6045-.927-1.4105-.927-2.3779 0-.9671.322-1.77311.927-2.37764.604-.60454 1.37-.92727 2.297-.92727s1.693.2822 2.297.92727c.605.64468.927 1.41054.927 2.37764 0 .9674-.282 1.7329-.927 2.3779Zm14.388-8.22177h3.023V16.8452h-3.023v-4.4333h-4.635v4.4333h-3.022V5.15753h3.022v4.43325h4.635V5.15753Zm13.018 11.68767H160l-4.836-5.9245 4.675-5.76317h-3.587l-4.03 5.15857V5.15753h-3.023V16.8452h3.023v-5.32l4.272 5.32Z"/>
</svg>