<svg xmlns="http://www.w3.org/2000/svg" viewBox="0 0 110 34">
	<path fill="#4FB84E" d="M14.3122 33.3551S0 29.1092 0 8.05993V0h28.6245v8.05993c0 20.25767-14.3123 25.29517-14.3123 25.29517Z"/>
	<path fill="#055532" d="M22.5927 8.13336H11.0645V14.826h11.5282v2.015c0 3.3822-.9636 6.1168-6.0318 6.1168h-5.4964v8.8156c1.8916 1.1873 3.2479 1.5831 3.2479 1.5831s14.3122-5.0374 14.3122-25.2951V1.98047c0 3.38229-1.4633 6.08093-6.0319 6.15289Z"/>
	<path fill="#fff" d="M87.4434 10.3985c0 .9716.2853 1.7991.8566 2.4468.5706.6476 1.3207.9715 2.1773.9715.8921 0 1.606-.3239 2.1766-.9715.5713-.6477.8566-1.4752.8566-2.4468 0-.93549-.2853-1.72707-.8566-2.33882-.5706-.61167-1.2845-.9355-2.1766-.9355-.8928 0-1.6067.32383-2.1773.9355-.5713.61175-.8566 1.40333-.8566 2.33882Zm-2.8558 0c0-1.65511.5358-3.02245 1.6422-4.13787 1.1064-1.11543 2.5343-1.65516 4.2475-1.65516 1.7132 0 3.1403.53973 4.2467 1.65516 1.1064 1.11542 1.6422 2.48276 1.6422 4.13787 0 1.6912-.5358 3.1304-1.6422 4.2459-1.1064 1.1514-2.5335 1.6911-4.2467 1.6911-1.7132 0-3.1411-.5757-4.2475-1.6911-1.1064-1.1515-1.6422-2.5547-1.6422-4.2459ZM36.5833 4.78497V16.1192h2.7482v-4.2098h1.856c.8565 0 1.5703-.7196 1.5703-1.5833v-.79154h-3.4263V7.15975h2.6411c.8566 0 1.5348-.68364 1.5348-1.5472v-.82758h-6.9241Zm0 15.04053h2.9624c1.6061 0 2.7482.7196 2.7482 2.1229 0 .6837-.3213 1.3673-.928 1.7271v.036c.9279.2879 1.2492 1.1154 1.2492 1.8351 0 1.7631-1.4633 2.4107-3.0694 2.4107h-2.9624v-8.1318Zm2.9981 3.1304c.4996 0 .7138-.3598.7138-.7556 0-.3599-.2142-.6837-.7495-.6837h-.9637v1.4393h.9994Zm.1427 3.2744c.5711 0 .8566-.3958.8566-.8636 0-.4678-.2855-.8276-.8566-.8276h-1.1778v1.6912h1.1778Zm5.9247-6.4048h2.0701l2.7482 8.0959h-2.0343l-.4997-1.6911h-2.4985l-.4996 1.6911h-2.0344l2.7482-8.0959Zm1.8203 4.8215-.464-1.5831c-.1428-.5038-.3212-1.4034-.3212-1.4034h-.0357s-.1785.8996-.3212 1.4034l-.464 1.5831h1.6061Zm5.782-4.8215h-1.9988v8.0959h1.9631v-3.7781c0-.5037-.1071-1.3673-.1071-1.3673h.0357s.3569.8276.6782 1.3673l2.2485 3.7781h1.963v-8.0959h-1.963v3.7781c0 .5037.107 1.3673.107 1.3673h-.0356s-.357-.8276-.6782-1.3673l-2.2128-3.7781Zm8.4589 0v3.1304h.8209l1.6775-3.1304h2.1058l-2.1771 3.886v.036l2.2841 4.2098h-2.2128l-1.7132-3.2743h-.8209v3.2743h-1.963v-8.1318H61.71ZM47.8616 9.93035h1.1777c.464 0 .8209-.10794 1.0708-.35981.2498-.25187.3926-.57569.3926-1.04345 0-.61174-.2142-1.04351-.6782-1.22342-.2498-.10794-.6067-.14392-1.035-.14392h-.9279v2.7706Zm-2.8197-5.14538h3.9261c.9993 0 1.7131.10795 2.1771.28785.6425.25188 1.1779.64767 1.5348 1.22338.3569.57571.5353 1.25934.5353 2.08697 0 .64766-.1427 1.25933-.4282 1.83503-.2856.5757-.7139 1.0075-1.2493 1.2954v.036c.1071.1439.2499.3598.4283.6836l2.1772 3.9939h-3.0338l-1.9987-3.85h-1.2848v3.85h-2.784V4.78497Zm10.3862 0V16.1552h7.3167v-2.3748H58.212v-2.1589h3.4264V9.24671H58.212V7.15975h4.3187V4.78497h-7.1026Zm9.0658 11.37023V4.78497h7.0669v2.37478h-4.283v2.08696h3.4264v2.37479h-3.4264v2.1589h4.5328v2.3748h-7.3167Zm12.9557-2.3748h-1.1418V7.15975h1.1418c.9638 0 1.7132.25187 2.2483.82756.5358.57577.8211 1.40333.8211 2.44679 0 1.0795-.2853 1.907-.8211 2.4827-.5351.5757-1.2845.8636-2.2483.8636Zm-3.8904-8.99543V16.1552h3.9976c1.7841 0 3.212-.5037 4.2474-1.5112 1.0348-1.0075 1.5699-2.3748 1.5699-4.1739 0-1.79908-.5351-3.16643-1.5699-4.1739-1.0354-1.00748-2.4633-1.51123-4.2474-1.51123h-3.9976Zm25.0553 0-.9282 11.37023h2.7487l.357-5.1094c.035-.5757.035-1.22339 0-1.90703h.035l.643 1.90703 1.178 3.3103h2.355l1.178-3.3103c.178-.4678.393-1.11545.642-1.90703h.036v1.04343c0 .3238 0 .6117.036.8636l.357 5.1094H110l-.928-11.37023h-2.998l-1.641 4.82155c-.179.46778-.358 1.11538-.572 1.87108h-.035l-.572-1.87108-1.641-4.82155h-2.9985Z"/>
</svg>