<svg xmlns="http://www.w3.org/2000/svg" viewBox="0 0 140 34">
	<path fill="#B4241C" d="M20.2251 4.43887 23.99 7.41573c.5253-.70044.9631-1.40088 1.4884-2.18887L21.7135 2.25c-.4377.78799-.9631 1.48843-1.4884 2.18887Zm12.4328 6.30393c-.4378.788-.9631 1.576-1.4885 2.1889l3.7649 2.9768c.5253-.7004.9631-1.4008 1.4884-2.1888l-3.7648-2.9769Z"/>
	<path fill="#C23F31" d="m18.1238 6.89266 3.7648 2.97686c.6129-.61288 1.2258-1.22576 1.8387-2.01376l-3.8524-2.97685c-.5254.78799-1.1382 1.40087-1.7511 2.01375Zm12.6954 6.56664c-.6129.7004-1.2258 1.4008-1.8386 2.0137l3.7648 2.9769c.6129-.6129 1.2258-1.2258 1.8387-2.0138l-3.7649-2.9768Z"/>
	<path fill="#DA8C97" d="M16.8105 7.94263c-.4377.35021-.8755.61288-1.4008.9631l3.8524 2.97687.0875-.0876c.7005-.4377 1.4009-.9631 2.1013-1.576l-3.7648-2.97681c-.2627.26266-.6129.52533-.8756.70044Zm11.8199 7.87987c-.2626.2627-.6129.4378-.8755.7005-.4378.3502-.8756.6129-1.4009.9631l3.7649 2.9768.0875-.0875c.7004-.4378 1.4009-.9631 2.1013-1.576l-3.6773-2.9769Z"/>
	<path fill="#EDCDCD" d="m12.4326 10.5672 3.8524 2.9769c.788-.4378 1.6636-.8756 2.4516-1.4009l-3.7649-2.88929c-.788.43777-1.576.87559-2.5391 1.31329Zm13.3959 7.1795c-.7005.4378-1.576.8756-2.5391 1.3133l3.8524 2.9769c.788-.4378 1.6635-.8756 2.4515-1.4009l-3.7648-2.8893Z"/>
	<path fill="#DA8D8D" d="m9.10571 12.0578 3.67729 2.8893c.0876 0 .1751-.0876.2627-.0876.8755-.2626 1.7511-.6128 2.6266-1.0506l-3.8524-2.9769c-.788.4378-1.6635.8756-2.71419 1.2258Zm13.65849 7.3546c-.8755.4378-1.751.788-2.7142 1.2258l3.6773 2.8893c.0876 0 .1752-.0876.2627-.0876.8756-.2627 1.7511-.6129 2.6266-1.0507l-3.8524-2.9768Z"/>
	<path fill="#C52E1A" d="M7.26724 12.8456c-.52533.1752-1.05066.4378-1.48843.7005l3.76485 2.9768c.78804-.5253 1.66354-.9631 2.62664-1.3133L8.493 12.3203c-.35021.1751-.78799.3502-1.22576.5253Zm12.17006 8.0551c-.4377.1751-.788.3502-1.2257.5253-.5254.1751-1.0507.4378-1.4885.7004l3.7649 2.9769c.788-.5253 1.6635-.9631 2.6266-1.3133l-3.6773-2.8893Z"/>
	<path fill="#A6201C" d="m3.2395 15.7371 3.76485 2.9768c.61289-.7004 1.31332-1.3133 2.01376-1.8386l-3.76485-2.9769c-.70044.5254-1.40088 1.1382-2.01376 1.8387Zm12.9581 6.7417c-.7004.5253-1.4009 1.1382-2.0138 1.8386l3.7649 2.9769c.6129-.7004 1.3133-1.3133 2.0137-1.8386l-3.7648-2.9769Z"/>
	<path fill="#A01F1C" d="m1.40088 18.3624 3.76485 2.8893c.43777-.788.9631-1.576 1.48843-2.1889l-3.76485-2.9769c-.52533.788-1.05066 1.4885-1.48843 2.2765Zm12.43272 6.3039c-.5253.7004-1.0506 1.4009-1.4884 2.1889l3.7649 2.8893c.4377-.788.9631-1.576 1.4884-2.1889l-3.7649-2.8893Z"/>
	<path fill="#791D19" d="m0 21.3382 3.76485 2.9769c.08756-.4378.26266-1.0506.52533-1.6635.17511-.3502.35022-.6129.52533-.9631l-3.6773-2.8018C.700437 19.6747.350219 20.4627 0 21.3382Zm11.995 6.0413c-.4378.788-.788 1.576-1.1382 2.5391l3.7648 2.9769c.0876-.4378.2627-1.0507.5254-1.6636.1751-.3502.3502-.6129.5253-.9631l-3.6773-2.8893Z"/>
	<path fill="#DFAF1F" d="M25.6536 8.64199c.5253-.70044.9631-1.40087 1.4884-2.18887l3.7648 2.97686c-.4377.78802-.9631 1.57602-1.4884 2.18892l-3.7648-2.97691Z"/>
	<path fill="#F0D24F" d="M23.552 11.0958c.6129-.6129 1.2258-1.22578 1.8386-2.01377l3.7649 2.97687c-.6129.7004-1.2258 1.4009-1.8386 2.0137l-3.7649-2.9768Z"/>
	<path fill="#F6DA82" d="M20.9255 13.1089c.5254-.3503.9631-.6129 1.4009-.9632.2627-.1751.6129-.4377.8756-.7004l3.7648 2.9769c-.7004.6129-1.4009 1.1382-2.1013 1.576l-.0876.0875-3.8524-2.9768Z"/>
	<path fill="#FFF8BE" d="M17.8611 14.7704c.9631-.4378 1.7511-.8756 2.5391-1.3134l3.7648 2.9769c-.788.5253-1.6635.9631-2.4515 1.4009l-3.8524-3.0644Z"/>
	<path fill="#F6DE73" d="M14.5342 16.3469c.9631-.4378 1.9262-.788 2.7142-1.2258l3.8524 2.9769c-.8756.4377-1.7511.7879-2.6267 1.0506-.0875 0-.1751.0876-.2626.0876l-3.6773-2.8893Z"/>
	<path fill="#E4A922" d="M11.207 17.7492c.4378-.2627.9631-.5253 1.4885-.7004.4377-.1751.8755-.3503 1.2257-.5254l3.6773 2.8893c-.9631.3503-1.8386.788-2.6266 1.3134l-3.7649-2.9769Z"/>
	<path fill="#C6972C" d="M8.66772 19.9402c.61289-.7004 1.31333-1.3133 2.01378-1.8386l3.7648 2.9768c-.7004.5253-1.4008 1.1382-2.0137 1.8387l-3.76488-2.9769Z"/>
	<path fill="#C48422" d="M6.82935 22.5639c.43777-.788.9631-1.576 1.48843-2.1889l3.76482 2.9769c-.5253.6128-1.0506 1.4008-1.4884 2.1888l-3.76485-2.9768Z"/>
	<path fill="#B86821" d="m9.19332 28.6058-3.76485-2.9769c.35022-.8755.70043-1.7511 1.13821-2.5391l3.67732 2.8893c-.1751.2627-.35025.6129-.52535.9632-.17511.6128-.43778 1.2257-.52533 1.6635Z"/>
	<path fill="#D9A41F" d="M27.4922 6.10387c.4378-.70043.9631-1.57598 1.3133-2.45153l3.7649 2.97686c-.3503.78799-.8756 1.66354-1.2258 2.36398l-3.8524-2.88931Z"/>
	<path fill="#D5931F" d="M29.0681 3.12664c.4378-.78799.7005-1.75109.9631-2.62664l3.7649 2.97686c-.2627.87555-.6129 1.83865-1.0507 2.53908l-3.6773-2.8893Z"/>
	<path fill="#fff" d="M58.7492 8.81494h-3.3271V7.41406h-4.2026v1.40088h-3.152c-3.5022 0-6.3915 2.88926-6.3915 6.39146v2.8893c0 3.5022 2.8893 6.3915 6.3915 6.3915h3.2395v1.576h4.2027v-1.576h3.327c3.5022 0 6.3915-2.8893 6.3915-6.3915v-2.8893c-.0875-3.5897-2.9768-6.39146-6.479-6.39146ZM51.2195 21.2477h-1.4884c-2.1014 0-3.7649-1.7511-3.7649-3.7648v-1.7511c0-2.1014 1.7511-3.7649 3.7649-3.7649h1.4884v9.2808Zm9.631-3.7648c0 2.1013-1.7511 3.7648-3.7649 3.7648h-1.5759v-9.2808h1.5759c2.1014 0 3.7649 1.7511 3.7649 3.7649v1.7511Zm10.5941.7004.0876-9.36836h-4.2027V24.3997h4.1151l6.5666-9.2808v9.2808h4.1151V8.81494h-4.2026l-6.4791 9.36836Zm24.2527-3.152h-6.4791V8.81494H84.928V24.3997h4.2902v-6.304h6.4791v6.304h4.2901V8.81494h-4.2901v6.21636Zm40.2747-6.21636c-1.488.08755-2.539 1.05065-2.889 2.18886-.963 2.9769-1.926 6.0413-2.889 8.9306l-2.977-9.0182c-.438-1.22572-1.226-2.01371-3.064-2.10126H120.3V24.3997h4.203V13.5429l3.589 10.8568h4.028l3.677-10.9444v10.9444H140V8.81494h-4.028Zm-23.552 0h-9.105v3.06446l7.267-.0876c1.838.0876 3.064.7004 3.064 2.364v.788h-6.567c-6.566 0-6.741 9.5434.175 9.3683h10.157v-9.631c.087-3.94-1.926-5.86616-4.991-5.86616Zm1.226 12.52036h-5.954c-2.276 0-2.276-3.152 0-3.152h5.954v3.152Z"/>
</svg>