<svg xmlns="http://www.w3.org/2000/svg" viewBox="0 0 180 28">
	<path fill="#fff" d="M61.6 10.1v4.2H57v-4.2h-2v10.5h2V16h4.6v4.6h2V10.1h-2zM71.2 15.1c.2-.2.3-.4.4-.6.2-.3.4-.8.7-1.4.1-.4.4-.8.7-1 .3-.2.6-.2.9-.2h.8v-1.7h-2.1c-.3 0-.5.2-.7.3-.2.2-.5.4-.6.7-.2.4-.4.7-.6 1.1l-.5 1c-.1.2-.2.4-.4.6 0 .1-.2.2-.3.3h-1.3v-4.1h-2v10.4h2v-4.6h1.3l3.1 4.5H75l-.2-.3-3.7-5.2ZM102.1 10.1v1.4l-4.7 5.3v-6.7h-1.9v10.5h1.9v-1.4l4.7-5.3v6.7h1.9V10.1h-1.9zM113.4 10.1v4.2h-4.7v-4.2h-2v10.5h2V16h4.7v4.6h2V10.1h-2zM125.1 17.4h-.2c-.2.5-.6 1-1.1 1.3-.4.2-.8.4-1.3.4-.4 0-.8 0-1.1-.3-.4-.2-.7-.4-.9-.7-.3-.4-.5-.8-.7-1.2-.3-1-.3-2.2 0-3.2.1-.4.4-.8.6-1.2.2-.3.5-.6.9-.7.3-.2.7-.2 1-.2.5 0 .9.1 1.3.4.5.3.9.8 1.1 1.4v.2l.2-.1 1.2-.8h.1v-.2c-.1-.3-.3-.5-.4-.8-.2-.3-.5-.6-.8-.8-.3-.3-.7-.5-1.1-.7-.5-.2-1-.3-1.6-.3-.6 0-1.2.1-1.7.3-.6.2-1.1.5-1.5 1-.5.5-.9 1.1-1.1 1.7-.3.8-.4 1.6-.4 2.5 0 .8.1 1.6.4 2.4.2.6.6 1.2 1.1 1.7.4.4 1 .8 1.6 1 .6.2 1.2.3 1.8.3.8 0 1.6-.2 2.3-.6.7-.4 1.3-1.1 1.7-1.9 0-.1-.1-.2-.1-.2l-1.1-.7ZM167 10.1v1.4l-4.8 5.3v-6.7h-1.9v10.5h1.9v-1.4l4.8-5.3v6.7h1.9V10.1H167zM179.9 18.1l-1.1-.7h-.2c-.2.5-.6 1-1.1 1.3-.4.2-.8.4-1.3.4-.4 0-.8 0-1.1-.3-.4-.2-.7-.4-1-.7-.3-.4-.5-.8-.7-1.2-.3-1-.3-2.2 0-3.2.1-.4.4-.8.7-1.2.2-.3.5-.6.9-.7.3-.2.7-.2 1-.2.5 0 .9.1 1.3.4.5.4.8.8 1.1 1.4v.2l.2-.1 1.2-.8h.1v-.2c-.1-.3-.3-.5-.4-.8-.5-.7-1.1-1.2-1.9-1.5-.5-.2-1-.3-1.6-.3-.6 0-1.2.1-1.7.3-.6.2-1.1.5-1.5 1-.5.5-.9 1.1-1.1 1.7-.3.8-.4 1.6-.4 2.5 0 .8.1 1.6.4 2.4.2.6.6 1.2 1.1 1.7.4.4 1 .8 1.6 1 .6.2 1.2.3 1.8.3.8 0 1.6-.2 2.3-.6.7-.4 1.3-1.1 1.7-1.9 0-.1-.1-.2-.1-.2ZM37.9 11.8h-2.4V8h6V6.2h-8v14.5H38c1.7 0 2.9-.4 3.7-1.1.8-.7 1.2-1.9 1.2-3.3s-.4-2.5-1.3-3.2c-.9-.7-2.1-1.1-3.7-1.1Zm2.2 6.4c-.6.4-1.3.7-2 .6s-2.5 0-2.5 0v-5.2h2.5c.7 0 1.4.2 2 .6.5.4.7 1.1.7 2s-.3 1.6-.7 2ZM48.7 9.9c-.7 0-1.5.1-2.2.4-.6.3-1.1.7-1.5 1.3h-.1c0 .1.1.2.1.2l1.1.8h.2c.3-.3.6-.6.9-.8.4-.2.8-.3 1.2-.3.3 0 .5 0 .8.1.2 0 .5.2.7.4.3.3.5.9.5 1.7-.7 0-1.3 0-2 .2-.7.1-1.4.3-2 .6-.6.3-1.1.7-1.5 1.2-.4.5-.6 1.2-.6 1.9 0 .5.1 1 .3 1.5.2.4.5.8.8 1 .3.3.7.5 1.2.6.4.1.9.2 1.3.2.5 0 1.1 0 1.6-.3.4-.2.7-.4 1-.6v.7h1.8v-6.8c0-1.4-.3-2.4-1-3-.7-.6-1.6-.9-2.8-.9Zm1.8 8.3c-.3.3-.7.5-1 .7-.4.2-.8.3-1.3.3h-.7c-.2 0-.4-.2-.6-.3-.2-.1-.3-.3-.4-.5-.1-.2-.2-.5-.2-.7 0-.4.1-.8.4-1.1.3-.3.6-.5 1-.7.5-.2.9-.3 1.4-.3h1.3v2.9ZM87.6 7.9V5.8h-2v2.1c-1.8 0-3.2.6-4.2 1.5s-1.6 2.3-1.6 3.9.5 3 1.5 3.9c1 1 2.4 1.4 4.2 1.5v2h2v-2c1.8 0 3.3-.6 4.3-1.6 1-.9 1.5-2.3 1.5-3.9s-.5-3-1.5-3.9c-1-.9-2.4-1.4-4.3-1.5Zm-2 9.2c-1 0-1.9-.3-2.6-.9-.7-.6-1.1-1.5-1.1-2.8s.3-2.1 1-2.7c.8-.6 1.7-1 2.7-1v7.4Zm4.7-1c-.8.6-1.7.9-2.7.9V9.6c.5 0 .9 0 1.4.2.5.2.9.4 1.2.7.3.3.6.7.8 1.1.2.5.3 1 .3 1.6 0 1.3-.4 2.2-1 2.8ZM135.7 11.4c-.4-.5-.9-.9-1.5-1.1-.6-.3-1.3-.4-2-.4s-1.3.1-1.9.4c-.6.3-1.1.6-1.5 1.1-.4.5-.7 1.1-1 1.7-.2.7-.3 1.5-.3 2.2 0 1.8.5 3.2 1.3 4.1.9.9 2.1 1.4 3.7 1.4.9 0 1.8-.2 2.5-.7.6-.4 1.1-1 1.5-1.6 0-.1-.1-.2-.1-.2l-1.1-.7h-.2c-.3.4-.6.8-1 1.1-.4.3-1 .4-1.5.4-.4 0-.9 0-1.3-.2s-.8-.4-1-.8c-.6-.8-.9-1.7-.8-2.7h7.2v-.2c0-.7 0-1.5-.2-2.2-.2-.6-.5-1.2-.8-1.7Zm-6 2.4c.1-.6.4-1.2.9-1.7.5-.4 1-.6 1.6-.6.3 0 .6 0 .9.2.3.1.6.3.8.5.2.2.4.5.5.7.1.3.2.6.2.9h-4.9ZM146.8 11.5c-.3-.5-.8-.9-1.3-1.2-.6-.3-1.3-.5-2-.4-.5 0-1.1 0-1.6.2-.4.1-.8.3-1.2.6v-.5l-.1-.1h-1.8v14.4h2v-4c.6.2 1.2.3 1.8.3.7 0 1.4-.1 2.1-.4.6-.3 1.2-.6 1.7-1.1.5-.5.8-1.1 1.1-1.8.3-.7.4-1.5.4-2.3 0-.7 0-1.3-.2-2-.1-.6-.4-1.2-.7-1.7Zm-1.3 5.4c-.2.5-.4.9-.7 1.2-.3.3-.7.6-1.1.7-.5.2-.9.3-1.4.3-.3 0-.6 0-.9-.1-.2 0-.4-.1-.6-.2v-6.3c.3-.3.7-.5 1.1-.7.4-.2.8-.3 1.2-.3.5 0 .9 0 1.3.3.3.2.6.5.8.9.2.4.4.8.5 1.2 0 .4.1.9.1 1.4 0 .6 0 1.1-.3 1.6ZM157.6 15.7c-.2-.2-.4-.4-.7-.5h-.3c.3-.2.5-.4.7-.7.3-.5.5-1.1.5-1.7 0-.4 0-.7-.2-1.1-.1-.3-.4-.6-.7-.9-.6-.5-1.4-.7-2.5-.7h-4.5v10.4h5c.5 0 .9 0 1.3-.2.4-.1.7-.3 1.1-.6.3-.3.5-.6.7-1 .2-.4.3-.9.3-1.3s0-.7-.2-1.1c-.1-.3-.3-.5-.5-.7Zm-5.7-3.9h2.6c.9 0 1.4.4 1.4 1.2v.6c0 .2-.2.4-.3.5-.1.1-.3.2-.5.3h-3v-2.6Zm4.3 6.4c0 .2-.2.3-.3.4-.1.1-.3.2-.5.2H152V16h2.6c.5 0 .9.1 1.3.4.1.1.3.3.3.4 0 .2.1.4.1.5 0 .2 0 .5-.1.7ZM13.1.5c-2.6 0-5.1.8-7.3 2.2C3.6 4.1 2 6.2 1 8.6c-1 2.4-1.3 5-.7 7.6.5 2.5 1.8 4.9 3.6 6.7 1.8 1.8 4.2 3.1 6.7 3.6s5.2.2 7.6-.7c2.4-1 4.4-2.7 5.9-4.8 1.4-2.2 2.2-4.7 2.2-7.3s-1.4-6.8-3.8-9.3C20 1.9 16.7.6 13.2.6Zm-.6 5.9s1 .7.4 1.5l-.7.7c-.3.3-.5.5-.6.9 0 0-.5-.5.1-1.2 0-.1.2-.2.3-.3.5-.5.9-.9.5-1.6Zm-1.2-.3L9.8 7.5s-.1-1.1 1.5-1.4Zm-1.2 1.4s1.1-.8 1.3-1.4c0 0 .4 0 .5.1 0 .5-.4.9-1 1.3l-.2.2c-.7.6-.7.8-.7.9 0 0-.5-.5.1-1.1Zm-1.4.6H8c-1 0-1.3.4-1.3 1.6v.6h1.7V12.1H6.7V20.5H4.3V9.7c0-2 .6-3.7 3.5-3.7.4 0 .9 0 1.3.1h.1v.2c-.1.4-.4 1.4-.4 1.5 0 0 0 .1-.1.1Zm4.5 12.3v.2H10.9V12.2H9.3V10.4h.2c1.2-.1 2.4-.1 3.6 0h.2c.1 0 0 .1 0 .2v9.8ZM11.9 9.5s-.4-.2.5-.7c.7-.4.9-.9.9-1-.2 1.3-1 1.6-1.3 1.7Zm10.8 10.9v.2H20.3v-6c0-1.7-.3-2.3-1.3-2.3s-1.7.6-2.5 1.3v7H14.1V10.4H16.4v1.2c1-.9 2.2-1.5 3.4-1.5 2 0 3 1.2 3 3.7v6.6Z"/>
</svg>