<svg xmlns="http://www.w3.org/2000/svg" viewBox="0 0 160 22">
	<g fill="#fff">
		<path d="M79.0737 4.12623c-1.0948-.16842-2.1895-.08421-3.2842-.16842h-.5053V2.52623h-4.2947v1.43158c-1.0948 0-2.1895-.08421-3.2842 0-1.7685.08421-2.9474 1.01053-3.1158 2.61053-.0842 1.43158-.1684 2.94737 0 4.37896.1684 1.7684 1.2631 2.6947 3.0316 2.7789 1.0105.0842 1.9368.0842 2.9473.0842h.4211v1.5158h4.2947v-1.5158h.5053c.9263 0 1.9368 0 2.8631-.0842 1.7685-.0842 2.8632-1.0947 3.0316-2.9473.0842-1.3474.0842-2.69477 0-4.04214-.0842-1.43158-1.0105-2.44211-2.6105-2.61053Zm-8 7.57897c-.5895-.0842-1.179-.0842-1.6842-.2526-.4211-.1685-.6737-.5895-.6737-1.0106 0-1.09471-.0842-2.10524 0-3.19998 0-.75789.421-1.09473 1.1789-1.17894.4211-.08421.7579-.08421 1.179-.08421v5.72633Zm6.4842-1.3474c0 .7579-.4211 1.179-1.2632 1.2632h-1.1789V5.97887c.5053.08421.9263.08421 1.3474.08421.5894.08421.9263.50526 1.0105 1.17894.0842 1.17895.0842 2.10527.0842 3.11578Zm38.3161 3.0316h-1.685V7.0736h-3.536v6.3158h-1.685V7.0736h-3.705v8.3368h14.232V7.0736h-3.706c.085 2.10527.085 4.2105.085 6.3158Zm-14.653-6.40001c-1.179-.16842-2.3578-.16842-3.3684.7579 0-.25263 0-.50527-.0842-.67369h-3.621v12.1263h3.7052v-4.5474c.8421.8422 1.9369.9264 2.9474.9264 1.6-.0842 2.442-.7579 2.779-2.3579.337-1.3474.337-2.6948 0-3.95792-.168-1.34737-1.011-2.10527-2.358-2.27369ZM99.2 13.642c-.5895.0842-1.0947-.2526-1.2632-.8421-.0842-.1684-.0842-.421-.0842-.5895v-2.021c0-.58948.4211-1.01054.9264-1.09475.6736-.08421 1.1789.25264 1.1789 1.01055v2.6105c.0841.5053-.2526.9263-.7579.9263Zm50.526-6.5684h-7.242c-.252 0-.337.16842-.337.33684-.084 1.01053-.084 2.02106-.168 3.03156s-.084 2.0211-.168 3.0316h-.927v4.6316h2.358c0-.9263.084-1.7684.169-2.6948h4.631c.084.9264.084 1.7685.169 2.6948h2.357v-4.6316h-.842v-6.4Zm-3.789 6.4H144c.084-1.5158.168-2.9474.253-4.46315h1.684v4.46315ZM90.6947 7.24202c-1.9368-.50526-3.7894-.50526-5.7263 0-1.0947.33685-1.8526 1.09474-1.9368 2.27369-.0842 1.01049-.0842 2.10529 0 3.11579.1684 1.6.9263 2.4421 2.5263 2.6947.6737.0842 1.3474.1685 2.1053.1685 1.0105 0 2.1052 0 3.1158-.3369 1.0947-.3368 1.6842-1.0105 1.8526-2.1053.0842-.5894.0842-1.2631.1684-1.6842 0-.5894-.0842-1.0947-.0842-1.59996-.0842-1.34737-.7579-2.18947-2.0211-2.52632Zm-1.7684 3.95788v1.5158c0 .5895-.3368.9263-1.0105 1.0105-.6737.0842-1.0947-.2526-1.0947-.8421 0-1.0947-.0843-2.1894 0-3.28418 0-.67369.5052-.92632 1.2631-.84211.5895.08421.8421.42106.8421 1.01053v1.43156Zm48.5897-4.1263c-1.6-.33684-3.2-.16842-4.884 0-1.6.25263-2.021 1.85263-1.769 2.9474h3.032c.168-1.17898.421-1.3474 1.431-1.26319.674.08421.927.42106.842 1.51579-1.179.2526-2.273.4211-3.452.6737-1.684.3368-2.274 1.0947-2.105 2.8631.084.9264.673 1.6 1.6 1.6843.757.0842 1.431.0842 2.189.0842.758-.0842 1.263-.4211 1.684-1.0948v-.1684c.084.0842.084.0842.169.0842v1.0948h3.452V9.68413c0-.25263 0-.50526-.084-.67368-.168-1.26316-1.01-1.68422-2.105-1.93685Zm-1.348 5.6421c-.168.6737-.926 1.0947-1.6.9263-.252-.0842-.505-.2526-.505-.5895 0-.421.084-.8421.505-1.0105.506-.1684 1.095-.3368 1.685-.5052 0 .421 0 .8421-.085 1.1789Zm-15.494-3.36841h2.694v6.06311h3.706V9.34729h2.694V7.0736h-9.094v2.27369Zm38.821-2.27369h-8.506c-.084 0-.168.08421-.168.16842v2.10527h2.779v6.06311h3.705V9.34729H160V7.0736h-.505Zm-105.4318.84211c.0842-.08421.1684-.16842.2526-.33684h-2.4421c.0842.16842.1684.25263.2526.33684.0842.08421.2526.16842.2526.25263v2.18946h-3.1157V8.25255c0-.16842.1684-.25263.2526-.33684l.2526-.25263-.0842-.08421h-2.2737c.0842.16842.1684.25263.1684.33684.2527.08421.3369.33684.3369.50526v4.63153c0 .1685-.1684.3369-.2526.5053-.1685.1684-.1685.2526-.1685.4211h2.3579c-.0842-.1685-.1684-.3369-.2526-.3369-.2526-.0842-.2526-.2526-.2526-.5052V11.0315h3.1158v2.2737c0 .1684-.1685.2526-.2527.3368-.1684.0842-.2526.2527-.1684.4211h2.1895l.0842-.0842c-.0842-.0842-.1684-.1685-.2526-.3369-.0843-.1684-.2527-.3368-.2527-.5052V8.50518c0-.25263.1684-.42105.2527-.58947Zm5.9789 4.63159c-.0842-.2526-.0842-.4211-.1684-.6737-.1684-.7579-.6737-1.2632-1.4316-1.4316-.1684-.0842-.3368-.0842-.421-.0842l1.0105-1.01051c.1684-.16842.2526-.33685.421-.50527.2527-.16842.4211-.16842.6737 0 .0842.08421.2526.08421.4211.16843v-1.5158c-.9263-.25263-1.5158 0-1.9369.84211-.1684.33684-.2526.67368-.5052 1.01053-.2527.42105-.6737.67371-1.179.67371V8.33676c0-.16842.1684-.25263.2526-.42105.0843-.08421.1685-.16842.2527-.33684l-.0842-.08422h-2.2737l-.0842.08422.2526.25263c.0842.16842.2526.33684.2526.50526v4.63154c0 .1685-.1684.3369-.2526.5053-.0842.0842-.1684.1684-.2526.3368h2.4421c-.0842-.1684-.0842-.2526-.1684-.3368-.2527-.1684-.3369-.3368-.3369-.5895V10.442c.5895-.0842 1.179.2527 1.3474.8421.1684.4211.2526.7579.3368 1.179.2527 1.0947 1.0106 1.6 2.1053 1.4316.2526-.0843.421-.1685.3368-.4211-.6737 0-.9263-.4211-1.0105-.9263Zm-21.8105-2.2737c-.3369-.0842-.6737-.0842-1.0105-.0842h-.7579V8.08413h1.0947c.6737-.08421 1.0947.25263 1.2632.8421.0842.25264.1684.25263.421.16842v-1.6c-.421.08422-.8421.08422-1.2632.08422h-3.4526c.0842.16842.0842.33684.1684.33684.2527.08421.3369.33684.3369.58947v4.54732c0 .1685-.1684.3369-.2527.5053-.0842.0842-.1684.1684-.2526.3369l.0842.0842h2.1053c.421 0 .9263 0 1.3474-.0842 1.0105-.1685 1.6-.8422 1.6-1.7685.0842-1.0105-.4211-1.6842-1.4316-1.8526Zm-.1684 2.6105c-.0843.3369-.3369.5895-.6737.5895h-1.0106v-2.7789h.9264c.3368.0842.5894.2526.7579.5894.1684.5053.1684 1.0106 0 1.6Zm7.8315-.6737c-.7579-1.5157-1.4315-2.94732-2.1052-4.46311-.1684-.33684-.3369-.33685-.5895-.16842-.2526.16842-.5053.25263-.7579.33684-.2526.08421-.2526.16842-.2526.33684.421.08421.5052.16842.3368.50526 0 .16842-.0842.25263-.1684.33684-.5895 1.26315-1.179 2.52635-1.7684 3.70525-.1684.2527-.3369.4211-.5053.6737-.0842.0842-.1684.2526-.2526.4211h1.8526l.0842-.0843c-.0842-.0842-.1684-.2526-.2526-.2526-.4211-.1684-.5053-.3368-.3369-.7579.0843-.0842.0843-.1684.1685-.3368.0842-.2527.1684-.2527.421-.2527h1.9369c.6736 0 .6736 0 .9263.6737.0842.3369 0 .5053-.2527.6737-.0842.0842-.1684.1684-.2526.3369h2.6948c0-.1685 0-.2527-.0843-.3369-.421-.3368-.5894-.8421-.8421-1.3474Zm-4.1263-.5052c.4211-.8421.7579-1.6 1.179-2.52633.421.84213.7579 1.68423 1.1789 2.52633h-2.3579Zm-23.2421 8.1684 1.2632-.8421V18.021l9.4316-6.3158-10.6948-7.0737v15.2421Zm1.2632-13.30526 7.7473 5.13686-7.7473 5.1368V6.56834ZM14.9053 20.7157v-1.9368L2.86316 10.6947l.75789-.4211 11.28425 7.579v-1.179L4.46316 9.68413 14.9053 2.69466V.757812L0 10.7789l14.9053 9.9368Z"/>
		<path d="m16.1685 21.4737 1.1789-.8421-.0842-17.93686 12.8 8.50526 1.4316-.9263L16.1685 0v21.4737Z"/>
	</g>
</svg>