<svg xmlns="http://www.w3.org/2000/svg" viewBox="0 0 170 22">
	<g fill="#fff">
		<path d="M38.9656 13.492c2.0302-1.1399 4.7752-2.8846 6.3356-4.50139-7.6741-2.2896-28.7448.19863-45.29905814 5.86669-.00268417-.187-.00268417-.374-.00089472-.5601C4.90076 12.225 10.7344 9.91218 15.888 8.49583c5.5992-1.53893 11.2753-2.85238 17.0409-3.57622 3.1996-.40173 10.6652-1.12556 13.2223.80526.6317.55294.5019.23531.6889 3.89116-.0116.27736.0716.59677-.1378.82587-1.0119 1.1076-4.7 2.2547-7.088 3.1601l-.6487-.11Z"/>
		<path d="M38.1004 13.3624c-7.3573-.2031-17.9938 2.7638-23.9759 5.6323 0 .2094-.0009.4187.0009.629 6.9529-2.592 19.7976-5.4113 27.0493-3.1709-2.6895 2.6341-6.2264 3.7847-7.2258 4.513 8.4462-3.4778 8.2252-3.051 8.2422-4.1703-.1243-2.3299-.0313-2.1429-.4563-2.5124-.8732-.663-2.5016-.8894-3.6344-.9207ZM26.4422.519023C18.2197.684547 8.43407 3.9324.886169 7.12567c-.000895.11811-.000895.23711 0 .35521C9.15969 4.6285 24.8308 1.65532 31.0796 3.51009c-.493.48673-1.0415.91172-1.5935 1.32777.841-.13242 1.6812-.26842 2.5258-.37489.0313-.08768.093-.17.0868-.26931-.0537-.78825-.0439-1.58187-.1316-2.36834-.17-1.520137-6.0966-1.327771-5.5249-1.306297ZM97.6427 5.8482c-.612-.57173-1.4683-.78646-2.2851-.82762-1.4844-.0009-2.9705 0-4.4549 0-.0027 3.86163-.0009 7.72322-.0009 11.58582h1.4772c-.0009-1.5667.0009-3.1333-.0009-4.7.9699-.0036 1.9407-.0009 2.9106-.0009.9645-.009 1.954-.3642 2.6063-1.096.6675-.7033.9457-1.70808.8589-2.66275-.0617-.87146-.484-1.69908-1.1112-2.29855Zm-.927 4.1703c-.4258.4644-1.07.6648-1.6865.6684-.8831.0018-1.7662 0-2.6493.0009-.0009-1.47275 0-2.94636-.0009-4.41997.9475.00268 1.895-.00269 2.8426.00268.5994.00805 1.2159.25589 1.5729.75425.6657.84999.6719 2.19387-.0788 2.99374ZM81.1958 5.01968c2.6994-.00089 5.3997 0 8.0991-.00089v1.28214c-1.0996-.00089-2.1992.0009-3.2989-.00089-.0035 3.43574-.0009 6.86966-.0009 10.30546-.4992-.0009-.9985.0018-1.4968-.0009.0027-3.4349 0-6.86882.0009-10.30367-1.1014.0009-2.202.0009-3.3034 0-.0017-.42678-.0017-.85446 0-1.28125Zm-24.9207.0009c1.9854-.0009 3.9716-.00179 5.957 0 .0018.42589.0018.85267 0 1.27946-1.4933.00268-2.9866.00089-4.4799.00089 0 3.43485-.0008 6.86967 0 10.30457h-1.4771c0-3.8625-.0009-7.72329 0-11.58492Zm24.1862 7.44952c.1834.8732.0787 1.8315-.3973 2.5982-.3785.6067-.9216 1.1256-1.5881 1.4003-.859.3606-1.8145.416-2.7334.3588-.9842-.0716-1.9845-.4035-2.6949-1.1122-.6585-.6182-1.0227-1.4843-1.1927-2.3594.4474-.1082.8947-.2093 1.3412-.3221.1825.7319.476 1.4898 1.0844 1.9729.6809.5404 1.5899.6711 2.4346.6281.6433-.0403 1.3241-.2398 1.75-.7534.6004-.6817.689-1.7053.3642-2.532-.1745-.4474-.5574-.7883-1.0039-.9529-.7596-.2899-1.5863-.1897-2.38-.2103-.0009-.416-.0035-.8321.0009-1.24722.7883-.01789 1.6463.10292 2.3523-.33194 1.0504-.5941 1.1935-2.25202.3006-3.04475-.4706-.43752-1.1372-.59141-1.7653-.58873-.6719-.00626-1.377.15747-1.8923.60842-.4734.41157-.7221 1.01998-.8348 1.62482-.4814-.03937-.9619-.102-1.4414-.15658.2192-.9332.6388-1.87087 1.4154-2.47034.9305-.73815 2.185-.88309 3.3329-.78288 1.0128.07784 2.0453.48136 2.6958 1.2884.5511.65047.7131 1.56667.5502 2.38981-.0993.53416-.399 1.02625-.8276 1.35999-.3677.2935-.8043.4912-1.2544.6218.4179.1163.8473.2148 1.2222.442.5896.3239 1.0209.9126 1.1614 1.5712ZM66.0276 5.0179c-1.267 3.85984-2.5124 7.7259-3.7767 11.5867.4161.0027.8312 0 1.2473.0009.3534-1.1292.7095-2.2574 1.0584-3.3874 1.4218.0017 2.8435-.0045 4.2652.0035.3785 1.1301.7775 2.2521 1.156 3.3821.5037.0054 1.0065.0009 1.5103.0018-1.258-3.8617-2.5097-7.72597-3.7731-11.58582-.5637-.00089-1.1256.00179-1.6874-.00178Zm-1.0827 7.0925c.5968-1.8262 1.1829-3.65586 1.7859-5.47842.595 1.82345 1.1811 3.65142 1.7653 5.47842h-3.5512Zm91.5321-7.09072c.495-.00089.991 0 1.487-.00089V16.6046h-1.488c.001-1.8324 0-3.6657.001-5.4972-1.771-.0009-3.542 0-5.314-.0009.001 1.8324-.001 3.6648.001 5.4972-.492.0009-.983 0-1.474.0009V5.01879c.49.00089.981-.00089 1.472.00089.002 1.5953.001 3.19149.001 4.78679 1.772-.00179 3.543.00357 5.315-.00269-.004-1.5935-.003-3.1888-.001-4.7841ZM170 16.6055h-1.617c-1.142-2.1295-2.297-4.2535-3.44-6.383-.841 1.0495-1.673 2.1071-2.517 3.1548-.052.0689-.125.1351-.108.23-.001.9994 0 1.9988 0 2.9982h-1.477c.001-3.8617-.001-7.72329.001-11.58582.491-.00089.983-.00089 1.475.0009.003 2.21623-.004 4.43247.003 6.64962 1.732-2.21268 3.462-4.42623 5.184-6.64783.53-.00537 1.062-.00179 1.593-.00179-1.048 1.35014-2.096 2.69849-3.146 4.04774 1.351 2.51148 2.701 5.02388 4.049 7.53718ZM115.968 5.02058c.49-.00268.981-.0009 1.472-.0009V16.6055c-.492-.0009-.983.0009-1.474-.0009.002-1.8324 0-3.6648.001-5.4972-1.772.0009-3.543 0-5.314.0009.001 1.8324 0 3.6648.001 5.4972h-1.488V5.01879c.496.00089.991-.00089 1.487.00089.003 1.5962-.003 3.19239.002 4.78858 1.77-.00269 3.541-.00001 5.312-.0009 0-1.5953-.001-3.19149.001-4.78678Zm5.416 3.90011c-.189.87414-.221 1.77601-.17 2.66721.076.943.3 1.9013.831 2.6976.343.5278.836.9806 1.445 1.1747.866.281 1.901.1137 2.566-.5296.637-.5861.949-1.4253 1.172-2.2404.452.1011.904.2004 1.358.2997-.254 1.0585-.702 2.1196-1.518 2.8676-.567.5243-1.306.8455-2.068.9412-1.023.1414-2.12-.0062-2.996-.5788-.7-.4483-1.218-1.1283-1.601-1.8566-.748-1.4342-.916-3.1029-.763-4.69373.128-1.31614.6-2.64212 1.533-3.60485.591-.6272 1.386-1.05488 2.234-1.20788.847-.14852 1.744-.12794 2.558.16911.695.2541 1.294.73904 1.714 1.34566.451.63615.723 1.37967.91 2.13035-.468.09663-.935.19236-1.402.28004-.23-.84283-.598-1.70176-1.297-2.26186-1.007-.7802-2.581-.61736-3.459.2881-.57.56636-.877 1.3403-1.047 2.11245Zm-17.46-3.90101c-.567-.00089-1.132-.00089-1.698 0-1.253 3.86253-2.5174 7.72062-3.7664 11.58582h1.2418c.3566-1.1283.7046-2.2592 1.0626-3.3874 1.421.0044 2.842-.009 4.263.0071.377 1.13.773 2.2529 1.157 3.3803.502-.0009 1.004.0009 1.506-.0009-1.253-3.8616-2.516-7.72149-3.766-11.58492Zm-2.775 7.09072c.495-1.5237.991-3.04745 1.486-4.57206.106-.30242.183-.61468.311-.90815.571 1.83061 1.172 3.65321 1.758 5.48021-1.185.0009-2.369-.0009-3.555 0Zm43.288-7.08982c-.564-.00358-1.128 0-1.691-.0009-1.259 3.86074-2.52 7.72152-3.769 11.58582.414 0 .829.0018 1.244-.0009.353-1.1283.704-2.2583 1.06-3.3857 1.418-.0008 2.836.0018 4.255-.0017.391 1.1291.774 2.2609 1.168 3.3901.499-.0009.999 0 1.499 0-1.247-3.8661-2.51-7.72509-3.766-11.58672Zm-2.77 7.08982c.6-1.827 1.175-3.66481 1.795-5.48558.571 1.8324 1.173 3.65588 1.758 5.48468-1.184.0018-2.369 0-3.553.0009Zm-3.795-.6442c-.306-.612-.813-1.1569-1.474-1.3797-.572-.19056-1.178-.23798-1.775-.27109-.943-.04652-1.886-.01968-2.828-.02594.001-1.16315-.003-2.32719.003-3.49033 1.742.00358 3.484.00179 5.226.0009.001-.42679.001-.85268 0-1.27946-2.22-.00179-4.439-.00179-6.659 0-.003 3.86163.001 7.72322-.001 11.58402 1.361.0027 2.722.0009 4.083.0009.771-.0009 1.566-.1047 2.254-.4742.828-.4492 1.384-1.3242 1.501-2.252.101-.8125.026-1.6678-.33-2.4131Zm-1.683 3.2997c-.433.4018-1.043.5234-1.615.5458-.926.0036-1.852 0-2.779.0018-.001-1.4083 0-2.8157-.001-4.224.862.0018 1.724-.0018 2.585.0018.607.025 1.262.0921 1.755.484.469.3776.636 1.0102.619 1.59.017.5744-.13 1.1962-.564 1.6006Z"/>
	</g>
</svg>