<svg xmlns="http://www.w3.org/2000/svg" viewBox="0 0 170 22">
	<path fill="#fff" d="M154.805 16.7486v-4.8029h-5.816v4.8029h-1.85V5.66393h1.85v4.57227h5.816V5.66393h1.849V16.7486h-1.849Zm12.607-.0004-4.315-4.7176h-2.006v4.7075h-1.844V5.65855h1.844V10.321h2.055l4.181-4.66245h2.307l-4.828 5.36935L170 16.7282l-2.588.02Zm-26.068-3.2632c-.393.5469-.909.9932-1.507 1.3025-.598.3094-1.26.4728-1.933.4772-1.082 0-1.799-.5012-1.799-1.3787 0-.737.576-1.2883 1.569-1.5641 1.213-.2311 2.438-.3984 3.67-.5014v1.6645Zm3.363 1.3887c-.065.1411-.169.2619-.298.35-.128.0881-.277.1403-.433.1513-.108.0018-.215-.0191-.315-.0612-.099-.0422-.189-.1047-.263-.1837-.074-.079-.13-.1724-.165-.2745-.035-.102-.049-.2102-.039-.3179V9.10332c0-2.12576-1.825-3.66992-4.297-3.66992-.654-.03013-1.307.06998-1.921.29466-.615.22459-1.179.56931-1.659 1.01386l1.234 1.23335c.281-.29683.625-.52766 1.006-.67593.382-.14819.791-.21014 1.2-.18143 1.503 0 2.587.94756 2.587 2.21595v.83224c-1.71.1855-2.908.3459-3.625.5014-2.217.4612-3.51 1.6394-3.51 3.4191 0 1.7797 1.384 2.8877 3.51 2.8877 1.504 0 2.722-.3108 3.695-1.4439.205 1.0028 1.177 1.4439 2.4 1.4439.389.0018.772-.0807 1.124-.2418.352-.1609.665-.3966.917-.6906l-1.148-1.1682Zm-17.452.08c-.741 0-1.466-.2199-2.083-.632-.616-.4121-1.096-.9978-1.381-1.683-.284-.6852-.358-1.4392-.213-2.1666.144-.7275.502-1.3957 1.026-1.92015.525-.52445 1.193-.88164 1.92-1.02633.728-.14469 1.481-.07036 2.167.21345.685.2838 1.271.76443 1.683 1.38115.412.61672.632 1.34168.632 2.08348 0 .9946-.396 1.9484-1.099 2.6516-.703.7033-1.657 1.0984-2.652 1.0984Zm0-9.30488c-1.372-.00415-2.696.50349-3.714 1.42375.118-.98307.59-1.88926 1.329-2.54905.738-.65988 1.691-1.02793 2.682-1.03549v.02002c1.13-.02257 2.252-.19106 3.339-.50131.712-.25188 1.362-.65176 1.91-1.17319L131.482.5c-.391.361155-.846.64515-1.343.83725-.552.23063-1.273.27568-2.578.33584-1.549.00794-3.032.62589-4.13 1.72002-1.096 1.09414-1.718 2.57635-1.73 4.12562v3.67997c.001 1.0982.327 2.1714.938 3.0841.611.9127 1.479 1.624 2.493 2.0438 1.016.4198 2.131.5294 3.209.3149 1.077-.2145 2.066-.7435 2.843-1.52.776-.7766 1.305-1.7659 1.519-2.843.215-1.077.106-2.1935-.315-3.20833-.419-1.01481-1.13-1.88247-2.043-2.49315-.913-.61077-1.986-.93726-3.084-.9383M108.787 15.8764l1.368 1.2384 5.389-5.9861L114.3 9.75l-5.513 6.1264ZM51.8838 16.7687v-4.7979h-5.8155v4.7979h-1.8501V5.68893h1.8501v4.57227h5.8155V5.68893h1.85V16.7687h-1.85Zm-36.7383-3.2336c-.3922.5469-.9083.9933-1.506 1.3026-.5978.3094-1.2602.4729-1.9332.4772-1.0829 0-1.79984-.5013-1.79984-1.3787 0-.737.57654-1.2884 1.56924-1.5641 1.2137-.2311 2.4386-.3985 3.6698-.5014v1.6644Zm3.364 1.3888c-.0664.141-.1692.2619-.298.35-.1286.088-.2784.1404-.434.1513-.1056.0022-.2107-.0174-.3084-.0574-.0978-.0401-.1863-.0997-.2602-.1754-.0738-.0757-.1312-.1657-.1688-.2645-.0376-.0988-.0546-.2043-.0496-.3099V9.16845c0-2.12566-1.825-3.66982-4.2966-3.66982-.6536-.02985-1.3066.07036-1.9211.29504-.6145.22459-1.1782.56912-1.65844 1.01349l1.23824 1.21323c.2817-.29684.6255-.52766 1.007-.67585.3813-.14818.7908-.21013 1.199-.18152 1.504 0 2.5869.94756 2.5869 2.21595v.83223c-1.7096.1855-2.9078.346-3.6247.5014-2.21595.4612-3.50937 1.6394-3.50937 3.4192 0 1.7797 1.36359 2.9127 3.48927 2.9127 1.5041 0 2.7223-.3108 3.6949-1.4438.2055 1.0027 1.1781 1.4438 2.4015 1.4438.393.0011.7816-.0848 1.1377-.2511.3562-.1664.6713-.4093.9228-.7114l-1.1481-1.1581Zm39.1849-4.5373h7.7104c-.1261-.93075-.575-1.78774-1.2683-2.42146-2.0053-1.82486-6.3219-.66678-6.4371 2.42146h-.005Zm8.7029 4.3666c-.7525.9452-1.779 1.6349-2.9387 1.9746-1.1596.3397-2.396.3131-3.5398-.0765-1.1439-.3895-2.1396-1.1229-2.851-2.0997-.7113-.9768-1.1036-2.1496-1.1232-3.3579 0-3.38893 2.3513-5.76534 5.6051-5.76534 3.0431 0 5.68 2.19083 5.68 5.44454.0072.4013-.0229.8025-.0902 1.1982h-9.4251c.3459 2.0053 1.87 3.2287 4.0107 3.2287.6821.019 1.3578-.1363 1.9631-.4513.6053-.3149 1.1203-.779 1.4962-1.3485l1.2129 1.2532ZM36.2769 5.51346c-.8051-.01313-1.604.14289-2.345.45815-.741.31525-1.4075.78256-1.9564 1.37171l1.1832 1.17819c.3896-.43907.8694-.7888 1.4068-1.025.5374-.23621 1.1196-.35351 1.7065-.34359.9353-.05261 1.8559.24971 2.5781.84631.7221.5967 1.1925 1.44387 1.3173 2.37227h-5.8456v1.6694h5.8556c-.1196.9386-.5863 1.7983-1.3082 2.4098-.7221.6115-1.6468.9305-2.5923.8941-.6801.0212-1.3547-.1311-1.9598-.4424-.6052-.3113-1.1211-.7716-1.4994-1.3374l-1.2332 1.2584c.5478.718 1.2599 1.2944 2.0763 1.6808.8164.3863 1.7134.5716 2.6161.5402.7666.0279 1.5305-.1022 2.2445-.3824.7139-.2802 1.3625-.7045 1.9052-1.2463.5428-.5419.9682-1.1897 1.2496-1.9031.2815-.7135.4129-1.4773.3863-2.2437 0-3.45931-2.4064-5.76545-5.7856-5.76545v.01001Zm54.2452.14062h-7.4753V16.7387h1.8452V7.33359h5.6301V5.65408Zm-83.04711 0H0V16.7387h1.84497V7.33359h5.63002V5.65408ZM96.4428 15.2296c-.7933 0-1.5687-.2352-2.2279-.6758-.6592-.4408-1.174-1.0672-1.4771-1.8-.3032-.7329-.3835-1.5393-.2286-2.3173.1549-.77807.5374-1.49273 1.0984-2.05363.561-.56091 1.275-.94284 2.0532-1.09764.7773-.1547 1.5848-.07527 2.3177.22818.7319.30364 1.3581.8177 1.7992 1.4773.4413.65951.6763 1.43499.6763 2.22819 0 1.0637-.423 2.0839-1.175 2.836-.7527.7522-1.7727 1.1747-2.8362 1.1747Zm0-9.75109c-1.1342 0-2.243.33641-3.1865.96664-.9435.63013-1.6783 1.52594-2.1118 2.57389-.4344 1.04806-.5478 2.20126-.3268 3.31376.222 1.1126.7679 2.1345 1.5697 2.9366.8018.8021 1.8237 1.3484 2.9372 1.5696 1.1116.2213 2.2648.1077 3.3131-.3264 1.0484-.434 1.9433-1.1692 2.5743-2.1123.629-.9432.966-2.0521.966-3.1864 0-1.52109-.604-2.97988-1.68-4.05551-1.0745-1.07562-2.5337-1.67988-4.0552-1.67988ZM75.136 15.2296c-.7932 0-1.5686-.2352-2.2283-.6758-.6591-.4408-1.1737-1.0672-1.477-1.8-.3034-.7329-.3832-1.5393-.2282-2.3173.155-.77807.5368-1.49273 1.0978-2.05363.561-.56091 1.2757-.94284 2.053-1.09764.7782-.1547 1.585-.07527 2.3179.22818.7323.30364 1.3588.8177 1.7994 1.4773.4407.65951.6761 1.43499.6761 2.22819 0 1.0637-.4224 2.0839-1.1744 2.836-.7525.7522-1.7725 1.1747-2.8363 1.1747Zm0-9.75109c-1.3593-.00151-2.6749.48195-3.71 1.36368v-1.1882h-1.845V21.1505h1.845v-5.5649c.7043.5978 1.5418 1.0168 2.4428 1.2213.9004.2044 1.8374.1884 2.7305-.0467.8932-.2352 1.7163-.6826 2.399-1.3041.6832-.6216 1.2063-1.3989 1.5247-2.2659.3178-.867.4224-1.798.3034-2.7139-.119-.9159-.4571-1.78951-.9859-2.54667-.529-.75716-1.2325-1.3754-2.0519-1.8021-.8193-.42679-1.7288-.6494-2.6526-.64902ZM25.2274 7.17313c-.5972-.0187-1.1911.0952-1.7391.33367-.5479.23838-1.036.59528-1.4294 1.04503l-1.1882-1.22325c.5535-.60963 1.2356-1.08856 1.9968-1.4025.7613-.31383 1.5827-.45465 2.4051-.41234 2.7222 0 4.2011 1.31344 4.2011 2.96792.0154.52265-.1037 1.04058-.3459 1.50402-.1986.34592-.4837.63442-.8272.83722v.2055c.9025.3811 1.5692 1.0028 1.5692 2.5518 0 1.805-1.875 3.4443-4.5521 3.4443-2.2812 0-3.8604-.8924-4.7979-2.2209l1.1932-1.2384c.7771 1.2384 1.9652 1.7698 3.5996 1.7698 1.1982 0 2.7022-.5665 2.7022-1.7648 0-1.0678-.6116-1.6995-2.4164-1.6995h-1.9352v-1.5892h1.85c1.5692 0 2.1307-.71695 2.1307-1.56421 0-1.10792-1.1732-1.53916-2.4165-1.53916v-.005ZM114.3 9.74985l-4.11-4.56723-1.374 1.23835 4.241 4.70763 1.243-1.37875Z"/>
</svg>