<svg xmlns="http://www.w3.org/2000/svg" viewBox="0 0 160 30">
	<g fill="#fff">
		<path d="M110.969 21.787h4.199l-2.09-5.2888-2.109 5.2888Zm-1.019-7.703c.662-1.5721 1.509-2.1582 3.128-2.1582 1.6 0 2.48.6047 3.122 2.1582l6.244 15.0523h-4.426l-1.605-3.9956h-6.698l-1.582 3.9956h-4.427l.079-.186 6.165-14.8663Zm-72.7811-1.1928c-.7124.721-.7124 1.521-.7124 2.1071v14.136h4.1632V16.124c0-.0838 0-.2838.0139-.4.0693-.014.2081-.0233.4626-.0233h9.0941v-3.6003H39.1394c-.754 0-1.471.2884-1.9705.7908Zm19.3908 12.5976c-.0093-.0279-.0278-.0838-.0278-.1488v-3.084h9.2607v-3.6003h-9.2607v-2.5676c0-.1488.0046-.2744.0463-.3116.074-.0698.3145-.0698.3978-.0698h9.0433v-3.6003H55.394c-.5134 0-1.5867 0-2.3314.8186-.4302.4931-.6892 1.2606-.6892 2.056v11.1963c0 .8047.0925 1.6419.7678 2.2978.6892.6651 1.4618.6651 2.2065.6651h10.7594V25.54h-8.9554c-.4024-.0047-.5458-.0326-.592-.0512Zm16.7779-6.9078h6.9063v-6.4796h4.1585v17.0338h-4.1585v-6.954h-6.9063v6.954h-4.1631V12.1014h4.1631v6.4796Zm25.1127 5.2658v.0785c.0001.3972.0002 1.0469-.2915 1.3355-.2682.2698-.6383.2698-1.1101.2698h-4.7969c-.3238 0-.4672-.0186-.5273-.0372-.0093-.079-.0232-.2372-.0232-.521v-2.6559h5.3474c.4163 0 .8465.0186 1.0962.2604.2823.2699.3054.7536.3054 1.2699Zm.074-5.1306h-6.823v-2.656c0-.1861.0139-.2791.0232-.3163.0508-.014.1711-.0372.4163-.0372h9.7552v-3.6003H90.2673c-1.0407 0-1.6744.4233-2.026.7768-.6291.6698-.7031 1.5397-.7031 2.1397v11.4008c0 .5536.0647 1.2653.5736 1.87.4811.5581 1.161.8465 2.0214.8465h8.4327c1.7811 0 2.7291-.7815 3.1361-1.2512.671-.7814.999-2.0699.999-3.9491 0-1.735-.305-2.9817-.934-3.8096-.722-.9397-1.8133-1.4141-3.2427-1.4141Zm36.7377-.1352h-6.906v-6.4796h-4.163v17.0338h4.163v-6.954h6.906v6.954h4.159V12.1014h-4.159v6.4796Zm15.362 1.8373c0 .0977.102.3535.8.9862L160 29.1352h-5.564l-6.601-6.2376c-.343-.3256-.62-.6652-.829-1.0141v7.2517h-4.163V12.1014h4.163v6.8424c.158-.2605.357-.5117.592-.7489l6.093-6.0935h5.412l-7.841 7.5401c-.615.6001-.638.7675-.638.7768Z"/>
		<path d="M8.70002.5H28.8749l-5.4487 5.43154H8.70002c-1.79026 0-3.25133 1.45871-3.25133 3.24062V23.8479L0 29.2766V9.17216C0 4.40132 3.91543.5 8.70002.5Z"/>
	</g>
	<path fill="#50B848" d="M28.8751 20.6038c0 4.768-3.9154 8.6722-8.7 8.6722H3.45654c1.81624-1.8106 3.63247-3.6211 5.4487-5.4316H20.1723c1.7902 0 3.2512-1.4587 3.2512-3.2406v-3.0003h-8.2524l5.4486-5.4316h8.2554v8.4319ZM8.86481 12.1719h8.29869l-5.4517 5.4316H8.86481v-5.4316Z"/>
</svg>