<svg xmlns="http://www.w3.org/2000/svg" viewBox="0 0 90 40">
	<path fill="#fff" d="M7.36529 9.54878H12.808v8.91492c-1.8175.3682-3.20921.5547-4.73488.5547C2.10437 19.0184 0 15.5988 0 9.96966 0 3.9196 2.91742.5 8.73313.5c.73653 0 2.12827.052609 3.86437.315655V6.52136h-1.2626l-.7126-2.18089C9.93836 2.2648 9.12531 1.23653 7.83399 1.23653c-2.2335 0-3.4196 3.02264-3.4196 8.68052 0 5.68175.47348 8.36485 3.3909 8.36485.39696 0 .86566-.0526 1.31523-.1817v-6.6336l-1.76001-1.21v-.70782h.00478ZM12.7027 33.4812c0 3.5774-2.4439 5.6292-6.75786 5.6292-1.18132 0-2.91742-.1818-4.5483-.4496v-6.9922h1.26262l.52609 1.6548c1.18131 3.8117 2.02306 5.0744 3.52482 5.0744 1.57827 0 2.70698-1.3918 2.70698-3.2331 0-1.497-.70783-2.5492-2.2335-3.367l-2.63046-1.4205c-2.02785-1.076-3.13264-2.7595-3.13264-4.8113 0-3.1039 2.54915-4.9692 6.73398-4.9692.94696 0 2.05177.0813 3.81177.3157v5.7057h-1.2626l-.70785-2.1809c-.71262-2.3148-1.47306-3.1566-2.86481-3.1566-1.55436 0-2.47263.9996-2.47263 2.444 0 1.2865.71261 2.2096 2.10436 2.9987l2.65438 1.497c2.23345 1.2626 3.28565 2.9461 3.28565 5.2609Zm11.6267 4.1322.5261.7891v.397h-4.0223l-.1865-1.5257c-.4209 1.1574-1.5256 1.8414-2.9461 1.8414-2.1044 0-3.4196-1.3153-3.4196-3.4722 0-2.1044 1.1813-3.4962 4.8114-4.9166l1.5495-.6026v-1.9705c0-1.7361-.3156-2.4439-1.2865-2.4439-.7891 0-1.2339.4209-1.9991 2.3387l-.8657 2.1474h-1.1813v-4.29c1.5496-.4735 3.1039-.7892 4.4431-.7892 2.97 0 4.577 1.4205 4.577 3.9983v8.4988Zm1.5209-25.592c0 4.4718-2.3914 6.997-5.4714 6.997-3.0753 0-5.4666-2.5252-5.4666-6.997 0-4.47177 2.3913-6.99701 5.4714-6.99701 3.0752 0 5.4666 2.52524 5.4666 6.99701Zm-5.2036 23.3824v-4.5483l-.4974.2105c-1.5543.6313-2.133 2.0517-2.133 4.1274 0 1.5543.3682 2.4439 1.2339 2.4439.8656 0 1.3965-.8417 1.3965-2.2335Zm1.3392-23.3824c0-5.05047-.4209-6.38961-1.6022-6.38961s-1.6022 1.33914-1.6022 6.38961c0 5.0505.4209 6.3896 1.6022 6.3896s1.6022-1.3391 1.6022-6.3896Zm13.2049 23.5115.4735.2392c-.8418 2.42-1.9179 3.3383-3.9983 3.3383-3.3909 0-5.2849-2.5492-5.2849-6.997 0-4.4431 2.2096-6.9971 5.811-6.9971.9708 0 2.2622.1579 3.3669.6026v4.4718h-1.2339l-.4974-1.6835c-.66-2.2335-1.0235-2.8122-1.6835-2.8122-1.0522 0-1.8939 1.3679-1.8939 6.5762 0 4.18.6313 5.7057 2.2335 5.7057 1.0761.0048 1.9944-.6792 2.707-2.444Zm-2.9222-16.8301h-4.7349v-.3922l.5261-.7891V2.8435l-.5261-.78914V1.6574l4.2088-.31565V17.5167l.5261.7891v.397Zm6.4709.3156c-2.8935 0-4.6296-2.6304-4.6296-7.1261 0-4.4718 1.8126-6.86313 4.6009-6.86313 1.4205 0 2.2096.55001 2.5492 1.6548V2.8435l-.5261-.78914V1.6574l4.2087-.31565V17.5167l.5261.7891v.3922h-3.7352l-.287-1.9991c-.4161 1.7121-1.2052 2.3195-2.707 2.3195Zm9.2305 18.595.5261.7891v.397h-4.7348v-.397l.5261-.7891v-9.4697c0-1.1287-.3396-1.8126-1.1574-1.8126-.9757 0-1.6835.8179-1.6835 2.42v8.8623l.5261.7891v.397h-4.7348v-.397l.526-.7891v-14.678l-.526-.7891v-.3922l4.2087-.3156v5.4426c.4735-1.1287 1.5496-1.76 3.0752-1.76 2.157 0 3.4435 1.3678 3.4435 4.0222v8.4701h.0048Zm-9.9909-25.6733c0 4.7348.4208 6.1792 1.5782 6.1792 1.4444 0 1.7075-2.0757 1.7075-6.2318 0-4.02221-.287-6.02136-1.6835-6.02136-1.1814 0-1.6022 1.42045-1.6022 6.07396Zm26.405 5.5766.5261.7891v.3922h-4.7348v-.3922l.5261-.7891V7.76007c0-.94697-.3157-1.52567-1.0522-1.52567-.9183 0-1.6548.81784-1.6548 2.39133v8.89097l.5261.7891v.3922h-4.7349v-.3922l.5261-.7891V7.76007c0-.94697-.3156-1.52567-1.0522-1.52567-.9182 0-1.6547.81784-1.6547 2.39133v8.89097l.526.7891v.3922h-4.7348v-.3922l.5261-.7891V6.8131l-.5261-.63131v-.39217l3.7879-.44957h.3156l.1053 1.47305c.4447-1.1574 1.5495-1.78871 3.0513-1.78871 1.6022 0 2.6544.78914 3.1278 2.20959.3922-1.36784 1.6309-2.20959 3.2092-2.20959 2.0757 0 3.3909 1.36784 3.3909 4.02221v8.4701Zm-4.9166 17.4136c0 2.2861-1.473 4.1801-5.0218 4.1801-.9182 0-2.1569-.1052-4.0748-.4496v-4.8879h1.0761l.3396 1.0522c.8417 2.6831 1.6548 3.6827 2.9461 3.6827 1.21 0 1.9992-.8705 1.9992-2.2096 0-1.1048-.5548-1.8653-1.8653-2.5779l-2.2622-1.21c-1.4443-.7891-2.2335-2.0231-2.2335-3.5487 0-2.3913 1.87-3.8405 4.9692-3.8405.8944 0 2.0518.1291 3.3144.3922v3.8405h-1.0761l-.5548-1.3966c-.6313-1.6835-1.2339-2.2335-2.2335-2.2335-1.0761 0-1.7074.6313-1.7074 1.6835 0 .8944.5261 1.497 1.8126 2.2335l2.2335 1.2626c1.5209.8705 2.3387 2.1044 2.3387 4.027Zm17.0167-17.4136.5261.7891v.3922h-4.0222l-.1817-1.5257c-.4209 1.1574-1.5257 1.8414-2.9462 1.8414-2.1043 0-3.4196-1.3153-3.4196-3.4722 0-2.1044 1.1814-3.4962 4.8114-4.9166l1.5496-.6026V8.05181c0-1.7361-.3157-2.44393-1.2866-2.44393-.7891 0-1.2339.42087-1.9991 2.33871l-.8657 2.15701h-1.1861V5.81831c1.5544-.47348 3.104-.78914 4.4431-.78914 2.97 0 4.577 1.42045 4.577 3.9983v8.48923Zm-3.6826-2.2096v-4.5483l-.4974.2104c-1.5496.6313-2.1283 2.0518-2.1283 4.1275 0 1.5543.3683 2.4487 1.2339 2.4487.8657 0 1.3918-.8418 1.3918-2.2383ZM90 18.3058v.3922h-4.7348v-.3922l.5261-.7891V8.04703c0-1.13349-.3396-1.81263-1.1574-1.81263-.9757 0-1.6835.81784-1.6835 2.42003v8.86227l.5261.7891v.3922h-4.7349v-.3922l.5261-.7891V6.8131l-.5261-.63131v-.39217l3.7879-.44957h.3157l.1052 1.47305c.4448-1.1574 1.5256-1.78871 3.0752-1.78871 2.157 0 3.4435 1.36784 3.4435 4.02221v8.4701l.5309.7891Z"/>
</svg>