<svg xmlns="http://www.w3.org/2000/svg" viewBox="0 0 170 32">
	<path fill="#fff" d="M7.10102 12.1132H17.3445c-.0269-2.0934.0952-2.88748.7246-4.0248h10.2107c-.0226.02582-9.3246 11.5303-11.6008 14.0148-2.2801 2.4882-3.0381 3.9855-4.6704 3.9268-1.6376-.0586-2.79003-1.8394-2.79003-4.6251H0c.242636 1.6317 1.3805 5.1847 5.44399 5.8787 4.05864.6929 7.66541.3013 7.98711.4955.3217.1942 2.3128.4567 3.717.3088 1.4047-.1485 4.2507-.1905 6.7917-2.5146 1.339 1.055 3.0746 2.7691 8.3018 2.7691 5.2202 0 10.5135-2.7847 12.0785-6.6513 1.5651-3.8666-.8941-7.2748-4.2765-8.1722-3.3834-.8979-5.5704-.4842-5.5704-.4842l4.1189-4.96943h12.2712L55.6272.791016H24.8958c-2.8977.00269-6.407 1.660794-8.1603 4.382514-4.9195.72845-8.06246 2.87075-9.63448 6.93967ZM36.1039 2.88167H51.065L49.5812 5.1617h-15.37l1.8927-2.28003ZM20.269 5.16869c.7672-.85487 2.739-2.28648 4.6854-2.28648h7.6498l-1.9093 2.28648H20.269Zm-5.2734 2.93908c-.3885 1.08998-.5025 1.5688-.5843 2.86803h-3.6159c.4503-.8301 1.5172-2.24665 4.2002-2.86803Zm9.7657 8.47133 7.0633-8.49285h2.782l-6.7529 8.09635c-2.2209.0107-3.0924.3965-3.0924.3965ZM9.04533 26.2926c-1.12172-.0118-1.69845-.0882-2.94445-.5961-1.24546-.5079-2.58992-1.8539-2.88958-2.8794h3.27909c.07747.5552.32495 1.1191.86348 1.8992.54069.7838 1.08245 1.0727 1.69146 1.5763Zm6.71317.2491c2.4312-1.5914 4.673-4.4449 5.8372-5.5037-.0382.9694.1948 1.6581.4207 2.1719-1.5177 1.445-3.8752 3.6282-6.2579 3.3318Zm9.6425-2.5856 4.5503-5.4768s1.0438.4729 1.5817 1.162c.5397.6908.6602 1.7593.6602 1.7593h3.7487c-.1678-.8264-.7467-2.0955-1.6532-2.9434-.9098-.8506-1.7937-1.4418-2.9122-1.6936l1.4424-1.7356s2.9853-.199 4.4035.516c1.509.7607 3.5104 2.4382 2.9121 5.3186-.5977 2.8756-4.624 4.7193-6.7437 4.9727-2.1144.2528-3.4777.2738-5.1105-.325-1.636-.5988-2.8793-1.5542-2.8793-1.5542Zm.9657-5.961-2.7782 3.3259c-.0802.0941-.5649-1.2261.4874-2.5195 1.0555-1.2965 2.2908-.8064 2.2908-.8064ZM71.215 11.3083h-.6354c-.1238 0-.1872-.0575-.1872-.1732V2.07364h-5.5565v9.06146c0 .1157-.0629.1732-.1877.1732h-.6349c-.1253 0-.1866-.0575-.1866-.1732V1.3807c0-.11513.0613-.1727.1866-.1727h7.2011c.1259 0 .1878.05757.1878.1727v9.755c.0005.1151-.0613.1726-.1872.1726Zm7.1042.0582c.3701-.0388.7091-.1028 1.0179-.1883.1054-.0291.1582-.0958.1582-.2023v-.3885c0-.1259-.0678-.1716-.2018-.1447-.3072.0624-.6284.1006-.9662.1297-.3373.029-.6747.043-1.0098.043-.913 0-1.5925-.2007-2.0342-.5993-.4433-.39975-.708-1.01199-.7952-1.83943h3.6955c.6047 0 1.0572-.1189 1.3547-.354.2997-.23618.4487-.61762.4487-1.14647 0-.43309-.0678-.83228-.2034-1.19812-.1345-.36476-.3308-.67787-.5912-.93773-.2593-.25985-.5864-.46267-.9803-.60632-.3954-.14418-.8521-.21627-1.3724-.21627-1.0475 0-1.8658.31526-2.4522.94472-.5869.63053-.8791 1.51284-.8791 2.64856v.31688c0 2.53018 1.2299 3.79558 3.6934 3.79558.3734.0005.7483-.0188 1.1174-.057Zm-.0355-3.99736h-3.809c.0194-.9146.2383-1.6156.6563-2.1068.417-.49011.9883-.73651 1.7087-.73651.7043 0 1.2444.1813 1.6237.54068.3814.36154.5703.90222.5703 1.62368 0 .26039-.0587.43739-.1797.53423-.12.09576-.3115.14472-.5703.14472Zm2.8406-2.72764h2.569v6.4936c0 .1157.0607.1732.1861.1732h.5789c.1259 0 .1861-.0575.1861-.1732V4.6415h2.5695c.1254 0 .1888-.05757.1888-.1727v-.46268c0-.11513-.0629-.17216-.1888-.17216h-6.089c-.1249 0-.1889.05703-.1889.17216v.46214c-.0005.11567.0635.17324.1883.17324Zm12.0398 6.725c.3702-.0388.7075-.1028 1.0163-.1883.1065-.0296.1598-.0958.1598-.2023v-.3885c0-.1259-.0667-.1721-.2023-.1447-.3061.0619-.6294.1006-.9673.1297-.3368.029-.672.043-1.0093.043-.913 0-1.5925-.2001-2.0342-.5993-.4416-.39921-.7069-1.01199-.7946-1.83943h3.6944c.6058 0 1.0572-.11782 1.3563-.354.2981-.2351.4482-.61762.4482-1.14647 0-.43309-.0683-.83282-.2028-1.19812-.1345-.3653-.3314-.67787-.5918-.93773-.2604-.25985-.5875-.46214-.9819-.60632-.3938-.14364-.8511-.21627-1.3686-.21627-1.0497 0-1.868.31472-2.4549.94472-.587.62999-.8791 1.51284-.8791 2.64856v.31688c0 2.53018 1.2299 3.79558 3.6933 3.79558.375.0005.7479-.0188 1.1185-.057Zm-.0355-3.99736h-3.8095c.0193-.9146.2383-1.61614.6563-2.1068.4181-.49065.9883-.73651 1.7114-.73651.701 0 1.2422.18023 1.6226.54068.3798.35992.5692.90222.5692 1.62368 0 .26039-.0603.43739-.1818.53423-.12.09576-.3099.14472-.5682.14472Zm5.5312 3.96826c.3421.0576.7091.0872 1.1045.0872.4997 0 .9597-.0673 1.3787-.2023.417-.1345.778-.3443 1.081-.6284.302-.2835.539-.64399.707-1.08192.168-.43739.252-.95494.252-1.55104V7.4267c0-.56704-.073-1.07975-.222-1.53651-.149-.45676-.381-.84681-.694-1.16853-.314-.32172-.702-.56974-1.17-.74244-.466-.17269-1.016-.26039-1.6523-.26039-.3642 0-.75.02636-1.154.07909-.404.05272-.7704.12804-1.0954.23833-.2722.09254-.404.29859-.404.60578v9.27887c0 .1156.0619.1727.1862.1727h.5788c.1259 0 .1857-.0571.1857-.1727v-2.8288c.2711.106.5761.1877.9178.2453Zm-.9178-.8511V4.74264c.213-.07801.4637-.13181.7526-.1657.2873-.03336.5762-.05165.8651-.05165.9343 0 1.6443.25124 2.1353.75158.49.4998.737 1.24977.737 2.25044v.33194c0 1.00068-.241 1.70976-.723 2.12832-.48.41753-1.173.62733-2.0767.62733-.3082 0-.6068-.0086-.8946-.028-.2879-.0188-.5526-.0533-.7957-.1006ZM111.337.919099c0-.135037-.07-.204438-.204-.202286-.923.014525-1.77.165703-2.539.411027-.771.24533-1.431.60848-1.985 1.08944-.553.48097-.982 1.08837-1.29 1.81843-.308.73222-.464 1.59247-.464 2.58292 0 .76019.059 1.43914.174 2.03471.115.59663.305 1.09912.57 1.50796.266.4084.614.7215 1.046.9378.433.2162.972.3255 1.615.3255 1.002 0 1.779-.2911 2.333-.8738.552-.58152.829-1.49343.829-2.73405 0-1.22179-.244-2.13853-.735-2.7497-.491-.61116-1.247-.91513-2.266-.91513-.461 0-.908.07155-1.342.21574-.433.14418-.804.33678-1.111.57834.124-.57834.34-1.07276.648-1.48648.308-.41372.686-.75965 1.134-1.03941.447-.27868.955-.4955 1.523-.64936.566-.15333 1.183-.24371 1.846-.31742.145-.01614.219-.07693.219-.17324V.919099h-.001ZM105.808 6.6181v-.41803c0-.14418.009-.27438.029-.39004.336-.25986.721-.46699 1.154-.62031.433-.15387.865-.23134 1.298-.23134.78 0 1.338.23833 1.675.71446.336.47558.504 1.19058.504 2.14337 0 .90384-.17 1.59678-.511 2.07775-.341.48044-.907.72144-1.697.72144-.424 0-.788-.0742-1.096-.2233-.308-.149-.563-.3846-.765-.70689-.201-.32172-.352-.73598-.448-1.24115-.097-.50464-.143-1.11366-.143-1.82596Zm10.59 7.5761c1.116 0 1.912-.2206 2.388-.6628.476-.4423.715-1.1503.715-2.1214V4.00612c0-.11513-.063-.17216-.189-.17216h-.576c-.126 0-.189.05703-.189.17216v6.36398c-.287.0479-.598.0812-.929.1006-.331.0194-.638.029-.918.029-.856 0-1.463-.1608-1.826-.4836-.36-.32174-.538-.86781-.538-1.63768v-4.3723c0-.11513-.065-.17216-.189-.17216h-.578c-.123 0-.186.05703-.186.17216v4.18562c0 1.13463.244 1.93736.73 2.40966.484.4708 1.227.7064 2.228.7064.172 0 .355-.007.548-.021.192-.0145.388-.036.583-.0651.198-.029.388-.0651.572-.1086.181-.0431.351-.0894.503-.1372v.3174c0 .3658-.033.6811-.1.9452-.068.2653-.187.4805-.361.6494-.172.1679-.408.2932-.708.3755-.297.0818-.678.1227-1.138.1227-.752 0-1.437-.049-2.051-.1732-.134-.0269-.201.0188-.201.1441v.375c0 .1162.053.1878.159.2168.279.0764.614.1372 1.009.1803.395.043.811.0651 1.242.0651Zm7.365-2.8568c.341.0576.71.0872 1.104.0872.501 0 .96-.0673 1.378-.2023.418-.1345.78-.3449 1.081-.6284.303-.2841.541-.64345.709-1.08192.169-.43685.252-.95494.252-1.55104V7.4267c0-.56704-.073-1.08029-.223-1.53651-.15-.45676-.381-.84735-.693-1.16853-.313-.32226-.703-.56974-1.169-.74244-.468-.17323-1.017-.26039-1.654-.26039-.365 0-.75.02636-1.154.07909-.403.05272-.771.1275-1.096.23833-.271.092-.405.29859-.405.60578v9.27887c0 .1156.063.1727.188.1727h.577c.126 0 .188-.0571.188-.1727v-2.8288c.268.106.575.1877.917.2453Zm-.917-.8511V4.74264c.212-.07801.462-.13181.75-.1657.289-.03336.577-.05165.867-.05165.934 0 1.645.25124 2.136.75158.491.4998.735 1.24977.735 2.25044v.33194c0 1.00068-.241 1.70976-.722 2.12832-.481.41803-1.173.62733-2.079.62733-.305 0-.605-.0086-.892-.028-.289-.0188-.555-.0533-.795-.1006Zm12.033-6.65234h-4.445c-.125 0-.185.05703-.185.17216v7.12898c0 .1157.06.1732.185.1732h.578c.126 0 .187-.0575.187-.1732V4.6415h3.68c.126 0 .188-.05757.188-.1727v-.46268c0-.11513-.062-.17216-.188-.17216Zm4.557 7.59004c.367 0 .727-.0193 1.083-.0581.357-.0387.664-.0984.925-.1732.104-.0296.158-.0963.158-.2023v-.375c0-.1248-.067-.17-.203-.1447-.288.0538-.588.0845-.9.1092-.313.0242-.623.0355-.932.0355-.951 0-1.647-.2324-2.085-.69992-.438-.46645-.657-1.17606-.657-2.12832v-.41802c0-.96194.22-1.6764.664-2.14338.443-.46698 1.13-.69993 2.065-.69993.287 0 .584.01291.888.03658.301.02367.598.05326.887.1076.134.02529.202-.01883.202-.14472v-.37391c0-.10598-.054-.17216-.16-.20228-.261-.07425-.56-.1345-.901-.17324-.343-.03874-.691-.05757-1.047-.05757-1.202 0-2.094.32495-2.676.97432-.582.64936-.874 1.52199-.874 2.61896v.53316c0 1.09697.295 1.96799.882 2.61247.586.644 1.48.9668 2.681.9668Zm6.147-4.05486 3.592-3.30491c.059-.05811.083-.11029.073-.15871-.01-.04842-.067-.07156-.175-.07156h-.75c-.115 0-.206.03282-.274.10007l-3.607 3.3189V4.00612c0-.11513-.062-.17216-.187-.17216h-.576c-.126 0-.189.05703-.189.17216v7.12898c0 .1157.063.1732.189.1732h.576c.125 0 .187-.0575.187-.1732V7.48427l3.983 3.67993c.097.0968.202.1441.317.1441h.793c.097 0 .148-.0258.153-.0796.006-.0522-.017-.1027-.065-.1506l-4.04-3.70896Zm10.575-3.37647-4.126 6.00189V4.00612c0-.11513-.062-.17216-.188-.17216h-.578c-.125 0-.187.05703-.187.17216v7.12898c0 .1157.062.1732.187.1732h.78c.126 0 .221-.0527.289-.1587l4.127-6.00239v5.98789c0 .1157.061.1732.186.1732h.579c.123 0 .186-.0575.186-.1732V4.00612c0-.11513-.063-.17216-.186-.17216h-.764c-.088 0-.15.01292-.189.04251-.038.02851-.078.06778-.116.1162Zm8.843-.1162c-.039.02959-.075.06778-.115.1162l-4.126 6.00189V4.00612c0-.11513-.063-.17216-.189-.17216h-.577c-.123 0-.188.05703-.188.17216v7.12898c0 .1157.065.1732.188.1732h.78c.123 0 .221-.0527.289-.1587l4.126-6.00239v5.98789c0 .1157.062.1732.189.1732h.576c.125 0 .188-.0575.188-.1732V4.00612c0-.11513-.063-.17216-.188-.17216h-.765c-.087 0-.149.01399-.188.04251Zm-2.034-1.12495c.664 0 1.196-.18292 1.594-.54822.399-.36638.618-.88555.656-1.558579C165.217.54842 165.164.5 165.058.5h-.375c-.105 0-.167.057566-.186.173235-.076.452995-.254.781705-.528.987765-.275.20766-.608.31096-1.002.31096-.395 0-.729-.1033-1.004-.31096-.273-.20659-.449-.53531-.525-.987765C161.418.557566 161.355.5 161.249.5h-.374c-.106 0-.158.04842-.158.144721.037.673029.255 1.192199.655 1.558579.399.36476.931.54822 1.595.54822ZM63.8267 18.1947v9.755c0 .1151.0613.1737.1866.1737h.6349c.1248 0 .1877-.0586.1877-.1737v-9.0621h5.0083c.1258 0 .1861-.0586.1861-.1737v-.5192c0-.1151-.0603-.1727-.1861-.1727h-5.8309c-.1253 0-.1866.0576-.1866.1727Zm12.0688 9.1131c.5725-.6208.8592-1.5134.8592-2.6776v-.4901c0-1.1637-.2867-2.0568-.8592-2.6771-.5724-.6203-1.3923-.9312-2.4608-.9312-1.0663 0-1.8873.3109-2.4591.9312-.5725.6209-.8592 1.5129-.8592 2.6771v.4901c0 1.1642.2862 2.0562.8592 2.6776.5718.6203 1.3934.9302 2.4591.9302 1.069 0 1.8889-.3093 2.4608-.9302Zm-.093-3.0956v.3465c0 .9431-.1937 1.6565-.5778 2.1423-.3842.4852-.9803.729-1.7894.729-.807 0-1.4037-.2432-1.7889-.729-.3846-.4853-.5762-1.1992-.5762-2.1423v-.3465c0-.9426.191-1.657.5762-2.1428.3852-.4859.9819-.729 1.7889-.729.8091 0 1.4058.2431 1.7894.729.3841.4863.5778 1.2002.5778 2.1428Zm4.7811 3.9392c.3411.0576.7107.0866 1.104.0866.5003 0 .9598-.0667 1.3783-.2017.4191-.1351.7775-.3443 1.0809-.6279.3034-.2835.5407-.6439.7091-1.0819.1684-.4374.2512-.9549.2512-1.551v-.5343c0-.567-.0737-1.0797-.2238-1.5365-.1501-.4567-.3793-.8473-.6913-1.1696-.3121-.3222-.7037-.5703-1.1691-.7429-.467-.1733-1.019-.2604-1.6516-.2604-.367 0-.7516.0263-1.1562.0796-.404.0532-.7704.1275-1.0964.2383-.2706.092-.4046.2981-.4046.6053v9.2793c0 .1152.0629.1727.1888.1727h.5762c.1248 0 .1883-.0575.1883-.1727V27.905c.2696.1071.5751.1888.9162.2464Zm-.9156-.8511v-5.7431c.2119-.0775.461-.1324.7489-.1657.291-.0339.5772-.0511.8667-.0511.9323 0 1.6446.2507 2.1353.751.4912.4998.7349 1.2503.7349 2.251v.3314c0 1.0007-.24 1.7097-.7209 2.1283-.481.4186-1.1734.6273-2.0783.6273-.3083 0-.6058-.0091-.8926-.028-.2883-.0188-.5541-.0527-.794-.1011Zm12.7462.0075c.5719-.6208.8575-1.5134.8575-2.6776v-.4901c0-1.1637-.2856-2.0562-.8575-2.6771-.5714-.6203-1.3913-.9312-2.4603-.9312-1.0679 0-1.8889.3109-2.4602.9312-.5725.6209-.8571 1.5129-.8571 2.6771v.4901c0 1.1642.2846 2.0562.8571 2.6776.5713.6198 1.3923.9302 2.4602.9302 1.069 0 1.8895-.3099 2.4603-.9302Zm-.0942-3.0956v.3465c0 .9431-.1931 1.6565-.5778 2.1423-.3841.4852-.9808.729-1.7877.729-.8076 0-1.4037-.2438-1.7878-.729-.3847-.4858-.5789-1.1992-.5789-2.1423v-.3465c0-.9426.1937-1.6565.5789-2.1428.3841-.4853.9802-.729 1.7878-.729.8075 0 1.4036.2437 1.7877.729.3852.4863.5778 1.2002.5778 2.1428Zm4.4794-3.2979c-.1883.1786-.3024.4309-.34.758-.1087.9426-.3406 1.8948-.7059 2.8573-.3653.962-.8237 1.89-1.3713 2.7847h-.4756c-.1254 0-.1878.0575-.1878.1738v1.9045c0 .1151.0576.1732.1727.1732h.5918c.1248 0 .1878-.0581.1878-.1732v-1.2697h5.5259v1.2697c0 .1151.057.1732.173.1732h.592c.125 0 .187-.0581.187-.1732v-1.9045c0-.1163-.062-.1738-.187-.1738h-.823v-6.4942c0-.1151-.062-.1727-.1864-.1727h-2.2521c-.4132 0-.7139.0893-.9011.2669Zm2.3887 6.4h-3.7235c.4605-.7984.8581-1.671 1.1906-2.619.3319-.9469.5805-1.9013.729-2.8643.0194-.1248.0635-.2189.1361-.2819.0732-.0629.1797-.0941.3244-.0941h1.3428v5.8593h.0006Zm6.7649.9237c.365 0 .727-.0193 1.083-.0575.354-.0382.663-.0996.923-.1733.106-.0301.158-.0968.158-.2023v-.376c0-.1248-.066-.17-.2-.1442-.289.0549-.592.0839-.904.1087-.313.0247-.623.0355-.93.0355-.953 0-1.65-.2324-2.087-.6994-.437-.4659-.656-1.1761-.656-2.1278v-.4191c0-.9619.221-1.6764.665-2.1434.443-.4664 1.13-.6994 2.062-.6994.29 0 .585.0124.889.0366.302.0242.598.0538.887.1082.136.0258.201-.0194.201-.1448v-.3744c0-.106-.053-.1716-.157-.2018-.261-.0747-.561-.1355-.903-.1737-.342-.0382-.69-.0576-1.046-.0576-1.203 0-2.094.3255-2.675.9743-.582.6499-.874 1.5225-.874 2.619v.5331c0 1.0975.292 1.9675.88 2.6125.587.644 1.481.9668 2.684.9668Zm6.145-4.0549 3.594-3.3043c.057-.0587.082-.1109.072-.1587-.009-.0479-.068-.0727-.173-.0727h-.75c-.118 0-.208.0334-.275.1012l-3.607 3.3189v-3.2474c0-.1151-.063-.1727-.189-.1727h-.576c-.126 0-.189.0576-.189.1727v7.129c0 .1151.063.1738.189.1738h.576c.126 0 .189-.0587.189-.1738v-3.6508l3.982 3.6804c.096.0963.201.1442.318.1442h.793c.095 0 .146-.0264.152-.0796.004-.0533-.018-.1039-.065-.1517l-4.041-3.7085Zm10.409 3.1247c.573-.6214.859-1.5134.859-2.6776v-.4901c0-1.1637-.286-2.0562-.859-2.6771-.572-.6197-1.392-.9312-2.459-.9312-1.069 0-1.889.3109-2.461.9312-.573.6203-.858 1.5129-.858 2.6771v.4901c0 1.1642.285 2.0568.858 2.6776.572.6203 1.392.9302 2.461.9302 1.067 0 1.887-.3099 2.459-.9302Zm-.093-3.0956v.3465c0 .9431-.193 1.657-.577 2.1423-.384.4858-.983.729-1.789.729-.809 0-1.404-.2427-1.79-.729-.384-.4848-.576-1.1992-.576-2.1423v-.3465c0-.9426.192-1.6576.576-2.1428.386-.4864.981-.729 1.79-.729.806 0 1.405.2431 1.789.729.384.4858.577 1.2002.577 2.1428Zm8.107-3.5212c-.038.0285-.076.0673-.115.1151l-4.128 6.0025v-5.9885c0-.1151-.06-.1727-.186-.1727h-.579c-.123 0-.185.0576-.185.1727v7.129c0 .1151.062.1738.185.1738h.78c.126 0 .223-.0533.289-.1593l4.127-6.0029v5.9884c0 .1151.061.1738.188.1738h.577c.126 0 .187-.0587.187-.1738v-7.129c0-.1151-.061-.1727-.187-.1727h-.765c-.087 0-.15.0146-.188.0436Zm-2.034-1.1255c.664 0 1.195-.1834 1.594-.5482.4-.3658.618-.8855.658-1.5586 0-.0952-.054-.1442-.159-.1442h-.375c-.106 0-.169.0581-.189.1733-.079.4514-.252.7811-.525.9877-.275.2077-.61.3105-1.004.3105s-.728-.1033-1.002-.3105c-.276-.2076-.452-.5358-.528-.9877-.019-.1152-.082-.1733-.187-.1733h-.377c-.105 0-.157.049-.157.1442.038.6731.259 1.1933.656 1.5586.399.3653.93.5482 1.595.5482Zm11.05 2.3521v-3.03h4.432c.124 0 .185-.0586.185-.1737v-.5192c0-.1151-.061-.1727-.185-.1727h-5.254c-.126 0-.186.0576-.186.1727v9.2213c0 .3168.13.5062.388.5772.367.1012.775.1824 1.228.2303.453.0479.933.0726 1.442.0726 1.174 0 2.045-.2738 2.613-.822.568-.5488.851-1.3617.851-2.4388 0-1.0873-.291-1.9034-.872-2.4457-.583-.545-1.475-.8161-2.678-.8161-.356 0-.699.0118-1.033.0365-.332.0237-.642.0598-.931.1076Zm1.889 5.5118c-.326.0016-.646-.0134-.965-.0425-.317-.0285-.626-.0769-.924-.1452v-4.459c.251-.0473.54-.0844.866-.1086.328-.0242.641-.0355.94-.0355.978 0 1.675.2071 2.083.6203.409.4142.613 1.0103.613 1.7893 0 .7699-.199 1.3563-.599 1.7598-.4.4051-1.068.6171-2.014.6214Zm9.768.729c.481-.0527.9-.1216 1.256-.2093.269-.0667.404-.2593.404-.5773v-3.9532c0-.4906-.056-.9167-.166-1.2766-.111-.361-.29-.6623-.54-.9022-.251-.2411-.584-.4191-1.003-.5343-.419-.1151-.931-.1732-1.538-.1732-.402 0-.795.0242-1.175.0726s-.725.1082-1.031.2018c-.088.0269-.13.0823-.13.1592v.4041c0 .0575.021.0957.063.1156.043.0194.09.0237.138.0146.278-.0512.586-.0861.924-.1157.336-.0291.664-.0436.981-.0436.519 0 .942.0382 1.269.1151.327.077.585.2072.773.3901.187.1824.314.4239.381.7209.068.2991.101.6682.101 1.112v.4326c-.173-.0576-.36-.1103-.562-.1587-.201-.0484-.412-.092-.635-.1302-.222-.0382-.446-.0673-.67-.0866-.226-.0199-.447-.0291-.657-.0291-.905 0-1.597.1867-2.077.5558-.481.3706-.722.9404-.722 1.7097 0 .3755.057.7043.167.9883.11.2835.289.5197.538.7069.251.1883.58.3293.99.4256.409.0963.91.1447 1.507.1447.463 0 .933-.0263 1.414-.0796Zm-1.356-.729c-.828 0-1.419-.1114-1.773-.3319-.356-.2217-.535-.5956-.535-1.125 0-.5186.17-.8925.511-1.1179.342-.2265.917-.3401 1.724-.3401.377 0 .746.0173 1.113.0506.364.0334.707.0888 1.022.1663v2.4963h.017c-.318.0769-.656.1302-1.01.1587-.356.0296-.713.043-1.069.043Zm10.619-2.9713v3.4916c0 .1151.062.1737.186.1737h.579c.126 0 .186-.0586.186-.1737v-7.1296c0-.1151-.06-.1727-.186-.1727h-.579c-.124 0-.186.0576-.186.1727v2.8293h-4.329v-2.8293c0-.1151-.062-.1727-.188-.1727h-.577c-.126 0-.188.0576-.188.1727v7.129c0 .1151.063.1738.188.1738h.577c.125 0 .188-.0587.188-.1738v-3.4916h4.329v.0006Zm5.437-.275 3.594-3.3043c.058-.0587.081-.1109.073-.1587-.009-.0485-.069-.0727-.174-.0727h-.751c-.115 0-.207.0334-.273.1012l-3.609 3.3189v-3.2474c0-.1151-.063-.1727-.188-.1727h-.576c-.125 0-.189.0576-.189.1727v7.129c0 .1151.063.1738.189.1738h.576c.125 0 .188-.0587.188-.1738v-3.6508l3.983 3.6804c.096.0963.201.1442.317.1442h.795c.094 0 .146-.0264.151-.0796.004-.0533-.017-.1039-.066-.1517l-4.04-3.7085Z"/>
</svg>