<svg xmlns="http://www.w3.org/2000/svg" viewBox="0 0 170 26">
	<path fill="#fff" d="M41.15 6.26651h-9.577V18.3069h5.3984c2.9746 0 5.0037-1.1843 5.0037-3.8687 0-2.339-1.36-3.7996-4.5398-3.7996h-2.8621V9.01804h6.569V6.26651h.0078Zm-3.8529 6.94589c.9988 0 1.5653.3612 1.5653 1.1705 0 .8586-.6711 1.1685-1.5791 1.1685h-2.7101v-2.339h2.7239Zm15.3644 5.0906h3.1798l-5.132-12.04044h-2.8976L42.6186 18.303h3.095l.8092-1.9956h5.3294l.8093 1.9956Zm-3.4562-8.51122 1.5988 3.94772h-3.2154l1.6166-3.94772ZM65.14 18.303h3.0082V6.26256H65.14v4.56154l-4.9859-.0178V6.26651H57.144V18.3069h3.0101v-4.6642l4.9859.0178v4.6425Zm8.6987-12.04044h-3.0081V18.303h3.0081v-3.5529l1.2732-1.4094 3.4897 4.9524h3.851l-4.9346-6.8433 4.7628-5.18329h-3.8174l-4.6247 5.27799V6.26256Zm25.6263 0h-3.5529L93.3856 10.08l-2.5581-3.81349h-3.5529l4.1451 5.93139-4.3424 6.1051h3.5529l2.7002-4.0247 2.6824 4.0247h3.5529l-4.2773-6.1051 4.1766-5.92152v-.01382Zm9.621 12.04044h3.008V6.26256h-9.37v1.358c0 6.97944-.413 7.87564-1.875 7.87564-.149.0026-.298-.0034-.446-.0178v2.8246c.441.0891.89.1348 1.34.1362 1.755 0 3.717-.7047 3.869-7.1059l.051-2.14354h3.423V18.303Zm16.777 0h3.01V6.26256h-3.002V18.303h-.008Zm-6.113-5.5603c1.392 0 1.84.4816 1.84 1.3816 0 .987-.466 1.514-1.84 1.514h-1.881v-2.8956h1.881Zm-1.881-6.47619h-3.002V18.3069h4.883c3.18 0 4.935-1.3935 4.935-4.2299 0-2.6134-1.67-3.9891-4.884-3.9891h-1.932V6.26651Zm21.724 12.04039h3.008V6.26651h-3.002v4.55759l-4.986-.0178V6.26651h-3.01V18.3069h3.01v-4.6642l4.986.0178v4.6425l-.006.0039Zm5.033-6.0182c0 3.7503 2.665 6.2926 6.449 6.2926s6.446-2.5779 6.446-6.2926c0-3.75031-2.664-6.29261-6.446-6.29261-3.835 0-6.449 2.64692-6.449 6.29261Zm3.095 0c0-2.0627 1.358-3.54108 3.356-3.54108 1.924 0 3.355 1.47838 3.355 3.54108 0 2.0626-1.288 3.541-3.355 3.541-1.96 0-3.356-1.4784-3.356-3.541Zm11.826 6.0182h5.759c2.716 0 4.694-1.0501 4.694-3.5766 0-1.4962-.756-2.4929-2.045-2.941 1.1-.4816 1.65-1.2534 1.65-2.43966 0-1.80606-1.018-3.07918-4.161-3.07918h-5.891V18.3109l-.006-.004Zm5.621-4.9346c1.222 0 1.704.3612 1.704 1.2041 0 .8763-.593 1.2376-1.686 1.2376h-2.625v-2.4456l2.607.0039Zm-.197-4.60889c1.152 0 1.529.39477 1.529 1.1014 0 .70659-.45 1.18429-1.478 1.18429h-2.461V8.75946l2.41.00395ZM17.0198 24.5837h6.9894c.0844.0073.1692-.0084.2454-.0454.0763-.037.1411-.0939.1876-.1647.0465-.0708.073-.1528.0767-.2375.0037-.0846-.0155-.1687-.0557-.2433l-3.9852-8.2901c-.2112-.4382-.5073-.6592-1.1251-.6592h-4.2477l8.977-13.67872c.0532-.07687.0831-.16739.0863-.26079.0031-.093394-.0206-.185731-.0685-.266011-.0478-.08028-.1177-.14512-.2014-.186801-.0836-.04168-.1775-.058443-.2704-.048294h-7.2143c-.2151-.006663-.428.044828-.6163.149043-.1883.104216-.345.257297-.4535.443103L11.3845 7.133 8.50274 1.14833C8.42688.94706 8.28819.775589 8.10722.659331 7.92626.543072 7.71265.488213 7.49806.502884H.508711C.424509.496266.340074.512376.264224.549531.188374.586685.12389.643523.0775054.714108.0311211.784693.00453772.866436.00053116.950802c-.00400656.084368.01471064.168258.05419724.242928L4.0399 9.48384c.2112.43621.50728.65726 1.12509.65726h4.24769L.435679 23.8218c-.052429.0772-.081706.1677-.084384.261-.002678.0933.021356.1853.06927.2654.047913.0801.117711.1448.20117.1865.083459.0417.177103.0587.2699.049H8.10403c.2151.0066.42801-.0449.61629-.1491.18829-.1042.34497-.2573.45353-.4431l3.96145-6.0399 2.8838 5.9866c.0757.2006.2138.3716.3939.4878.1802.1162.3929.1715.6068.1577Z"/>
</svg>