<svg xmlns="http://www.w3.org/2000/svg" viewBox="0 0 110 30">
	<path fill="#fff" d="M59.2065 14.782 44.4246 0v29.564l14.7819-14.782Zm-29.5639 0L44.4246 0H14.782l14.8606 14.782ZM0 14.782l14.782 14.782V0L0 14.782Zm29.6426 0L14.782 29.564h29.6426l-14.782-14.782ZM72.2588 15.6488h-5.4253v5.3467h-2.6733V8.57232h2.6733v5.11078h5.4253V8.57232h2.6733V20.9955h-2.6733v-5.3467Zm9.0422 5.5039c-2.6734 0-4.8749-1.1008-4.8749-4.01h2.6733c0 1.3367.8649 2.0443 2.2802 2.0443 1.1008 0 2.2802-.5504 2.2802-1.7298 0-.9435-.8649-1.258-2.2802-1.6511l-.8649-.2359c-1.9657-.5504-3.9314-1.3367-3.9314-3.6169 0-2.75196 2.5947-3.69549 4.8749-3.69549 2.2802 0 4.4818.8649 4.4818 3.61689h-2.6734c-.0786-1.1794-.7862-1.7298-1.9656-1.7298-1.0222 0-1.9657.5504-1.9657 1.6512 0 .8649.8649 1.1794 2.5947 1.7298l1.0221.3145c2.2016.629 3.4596 1.4153 3.4596 3.4596.0787 2.8306-2.5947 3.8527-5.1107 3.8527Zm6.7619-12.58038h4.3245c.8649-.07863 1.5726 0 2.4375.15726 1.4939.31451 2.6733 1.33662 2.6733 2.98782 0 1.6512-1.0221 2.4375-2.516 2.8306 1.6511.3145 2.9092 1.1794 2.9092 2.9879 0 2.8306-2.752 3.4596-5.0322 3.4596h-4.7963V8.57232Zm4.2459 5.18938c1.1794 0 2.4375-.2358 2.4375-1.6511 0-1.2581-1.1794-1.6512-2.2802-1.6512h-1.9657v3.381h1.8084v-.0787Zm.3145 5.3467c1.2581 0 2.5161-.3145 2.5161-1.8084s-1.1008-1.8871-2.2802-1.8871h-2.2016v3.6169l1.9657.0786Zm12.2657 2.0443c-4.01 0-5.8182-2.5947-5.8182-6.2902 0-3.6955 1.9652-6.52606 5.8972-6.52606 2.516 0 4.875 1.10078 4.875 3.93136h-2.752c-.079-1.1008-1.022-1.9657-2.123-1.9657-2.438 0-3.145 2.5947-3.145 4.5604 0 1.9657.786 4.2459 3.066 4.2459 1.18.0786 2.202-.7863 2.28-1.9657H110c-.314 2.9092-2.595 4.01-5.111 4.01Z"/>
</svg>