<svg xmlns="http://www.w3.org/2000/svg" viewBox="0 0 170 26">
	<g fill="#fff">
		<path d="M138.2 15.5c-2.1 1.5-5.1 0-5.1-2.6 0-2.4 2.7-3.9 4.7-2.7.9.5 1.3.4 1.7 0 .3-.4.3-.9-.1-1.3-3.3-2.6-8.6-.2-8.5 4.1 0 4.4 5.5 6.7 8.8 3.9.5-.4.5-1 0-1.4-.4-.3-.9-.5-1.6 0ZM79.5 8.8l-2.8 3.5L74 8.9c-.7-.8-2.4-1.3-2.5.3V18h2.1v-6.9l2.2 2.8c.5.6 1.3.6 1.8 0l2.2-2.8V18h2.1V9.5c0-1.7-1.6-1.5-2.4-.6ZM116 8.8l-2.8 3.5-2.7-3.4c-.7-.8-2.4-1.3-2.5.3V18h2.1v-6.9l2.2 2.8c.5.6 1.3.6 1.8 0l2.2-2.8V18h2.1V9.5c0-1.7-1.7-1.5-2.5-.6ZM55.8 8.1c-.7 0-1 .3-1.1 1v3.1h-4.5V9.1c0-.7-.3-1.1-1.1-1.1S48 8.5 48 9.2v8.7h2.1v-4h4.5v4h2.1V9.2c0-.7-.3-1.1-1.1-1.1ZM63.3 11.9 66 9.1c.7-.7.2-1-.3-1-.9 0-1 0-1.5.5l-3.5 3.7V9.2c0-.7-.3-1.1-1-1.1s-1.1.5-1.1 1.2v8.6h2.1v-3.2l1.2-1.2 3.2 4.5h2.6l-4.3-6ZM146.1 11.9l2.7-2.8c.7-.7.2-1-.3-1-.9 0-1 0-1.5.5l-3.5 3.7V9.2c0-.7-.3-1.1-1-1.1s-1.1.5-1.1 1.2v8.6h2.1v-3.2l1.2-1.2 3.2 4.5h2.6l-4.3-6ZM8.7 9.2c.5-3.1 2.1-5.6 3.7-6.5.2 0 .7.4 1.1.9h.2c.6-.3 1.2-.5 1.9-.7-.8-.9-1.2-1.3-1.9-1.8-.8-.5-1.8-.6-2.6 0-2.3 1.5-3.6 4-4.2 6.5l1.7 1.8Z"/>
		<path d="M7.2 12.9c-1.9-2.5-2.5-5.5-2-7.3.2 0 .8-.2 1.4-.2v-.2c.2-.6.5-1.2.9-1.9-1.2-.1-1.8 0-2.6 0-.9.2-1.7.9-1.8 1.8-.5 2.7.3 5.4 1.7 7.7h2.5ZM12.4 5.2v2.5c2.5-1.9 5.5-2.5 7.3-2 0 .2.2.8.2 1.4h.2c.6.2 1.3.5 1.9.9.1-1.2 0-1.8 0-2.6-.2-.9-.9-1.7-1.8-1.9-2.7-.5-5.4.2-7.6 1.6Z"/>
		<path d="m18 7.5-1.7 1.7c3.1.5 5.6 2.1 6.5 3.7 0 .2-.4.7-.9 1.1v.2c.3.6.5 1.2.7 1.9.9-.8 1.3-1.2 1.8-1.9.5-.8.6-1.8 0-2.6-1.5-2.3-4-3.6-6.6-4.2Z"/>
		<path d="M20.2 12.9h-2.5c1.9 2.5 2.5 5.5 2 7.3-.2 0-.8.2-1.4.2v.2c-.2.6-.5 1.3-.9 1.9 1.2.1 1.8 0 2.6 0 1-.2 1.7-.9 1.9-1.8.5-2.7-.2-5.4-1.6-7.6Z"/>
		<path d="M16.2 16.6c-.5 3.1-2.2 5.6-3.7 6.5-.2 0-.7-.4-1.1-.9h-.2c-.6.3-1.2.5-1.9.7.8.9 1.2 1.3 1.9 1.8.8.5 1.8.6 2.6 0 2.3-1.5 3.6-4 4.2-6.5l-1.7-1.8Z"/>
		<path d="M12.5 20.6v-2.5C10 20 7 20.6 5.2 20.1c0-.2-.2-.8-.2-1.4h-.2c-.6-.2-1.3-.5-1.9-.9-.1 1.2 0 1.8 0 2.6.2 1 .9 1.7 1.8 1.9 2.7.5 5.4-.2 7.6-1.6Z"/>
		<path d="M8.7 16.7c-3.1-.5-5.6-2.2-6.5-3.7 0-.2.4-.7.9-1.1v-.2c-.3-.6-.5-1.2-.7-1.9-.9.8-1.3 1.2-1.8 1.9-.5.8-.6 1.8 0 2.6 1.5 2.3 4 3.6 6.5 4.2l1.7-1.7ZM127.6 8.6c-3.3-1.9-8.1.3-8 4.4 0 4 4.7 6.3 8 4.4 3.5-1.9 3.5-6.8 0-8.7Zm0 5.9c-1.1 2-4.4 2-5.5 0-1.2-2 .4-4.7 2.7-4.6 2.4 0 4 2.6 2.7 4.6ZM46.7 16.9c-1-2.5-3-7.4-3.4-8.4-.3-.6-1.4-.8-1.9-.5-.4.2-.6.6-.8 1.1l-3.4 8.7h2.2l.9-2.3h3.8l.9 2.3h2.2s-.2-.4-.4-1ZM40.9 14l1.3-3.6 1.3 3.6h-2.6ZM98.2 8.5c-.3-.6-1.3-.8-1.9-.4-.4.2-.6.7-.8 1.1l-3.4 8.7h2.2l.9-2.3H99l.9 2.3h2.2s-.2-.4-.4-1c-1-2.4-3.3-8.2-3.4-8.4ZM95.7 14l1.3-3.6 1.3 3.6h-2.6ZM166.6 9.2c-.3-.7-.7-1.2-1.5-1.2s-1.2.5-1.5 1.2l-3.4 8.7h2.2l.9-2.3h3.8l.9 2.3h2.2l-3.4-8.7Zm-2.8 4.8 1.3-3.6 1.3 3.6h-2.6ZM158.1 12.7c1.7-.8 1.6-3.3 0-4.2-.7-.4-1.3-.4-2.2-.4h-3.1c-.4 0-.8.1-1 .3-.2.2-.3.5-.3 1v8.5h4.2c.9 0 1.6 0 2.4-.3 2.1-.9 2.2-4.1-.1-4.9Zm-4.4-3h.4c.8 0 2.1 0 2.6.2s.6 1 .3 1.5-.8.5-1.4.6h-1.9V9.7Zm2 6.5h-2v-2.6h.8c.9 0 2.2 0 2.6.3.3.2.5.5.5 1 0 .9-.6 1.3-1.9 1.3ZM36.4 13.4c-.7-1.1-1.9-1.5-3.2-1.5h-2.3V9.7h4.3c.5 0 .8-.2.8-.8s-.2-.8-.8-.8H30c-.9 0-1.2.4-1.2 1.2v8.6h4.6c.7 0 1.4 0 1.9-.3 1.6-.7 2.2-2.7 1.3-4.1Zm-3.6 2.8h-2v-2.6h.8c.9 0 2.2 0 2.6.3.3.2.5.5.5 1 0 .9-.6 1.3-1.9 1.3ZM91.3 13.4c-.7-1.1-1.9-1.5-3.2-1.5h-2.3V9.7h4.3c.6 0 .8-.2.8-.8s-.2-.8-.8-.8h-5.2c-.9 0-1.2.4-1.2 1.2v8.6h4.6c.7 0 1.4 0 1.9-.3 1.6-.7 2.2-2.7 1.3-4.1Zm-3.6 2.8h-2v-2.6h.8c.9 0 2.2 0 2.6.3.3.2.5.5.5 1 0 .9-.6 1.3-1.9 1.3ZM102.5 13c-.2.3-.3.7-.3 1.2h3c1 0 1.4-.7 1.4-1.6h-3c-.5 0-.8.2-1 .4Z"/>
	</g>
</svg>