<svg xmlns="http://www.w3.org/2000/svg" viewBox="0 0 144 36">
	<path fill="#fff" d="m20.3316 0-.0746.410364s-.0372.298449-.1492.783426l-.0239.09122c-.1878.71417-.4782 1.8193-.8714 2.85593-.3731.96998-.8581 1.93991-1.3804 2.49944-.7088-.78336-1.3429-2.27561-1.7533-3.58131-.2239-.70881-.4103-1.38031-.5223-1.86528C15.4446.708813 15.37.410364 15.37.410364L15.3327 0h-2.7979l.0746.559584c.373 3.170986 1.9772 6.938856 4.7377 8.841456h.9701c2.7605-1.86525 4.402-5.70777 4.7751-8.841456L23.1296 0h-2.798Zm15.258 20.5555.4103.0746v2.7605l-.5595-.0746c-3.1337-.3357-6.9762-1.9772-8.8415-4.7378v-.97c1.8653-2.7605 5.6704-4.402 8.8415-4.7377l.5595-.0747v2.798l-.4103.0746s-.2984.0746-.7835.1865c-.485.1119-1.1564.2985-1.8652.5223-1.3431.4103-2.8353 1.0445-3.5814 1.7534.5596.5223 1.5296 1.0072 2.4995 1.3802 1.1192.4104 2.2383.7089 2.9471.8954.4851.1119.7835.1493.7835.1493ZM.410399 15.7057 0 15.6311v-2.7979l.55962.0746c3.13362.3358 6.97617 1.9772 8.84142 4.7378v.97c-1.9026 2.7606-5.67045 4.4021-8.84142 4.7378L0 23.428v-2.7979l.410399-.1119s.298442-.0374.783361-.112c.48501-.0746 1.1565-.2611 1.86534-.485 1.30563-.4103 2.79792-1.0445 3.58128-1.7533-.55953-.5223-1.52946-1.0072-2.49948-1.3803-.9603-.3842-1.92069-.631-2.62179-.8112-.11592-.0298-.22473-.0577-.32535-.0841-.484919-.1492-.783361-.1866-.783361-.1866ZM15.4073 35.5896 15.3327 36h-2.8353l.0746-.5596c.3731-3.1336 2.0145-6.9762 4.7751-8.8414h.97c2.7606 1.9026 4.402 5.6704 4.7378 8.8414l.0747.5596h-2.7234l-.0746-.4104s-.0746-.2984-.1865-.7834-.2985-1.1565-.5223-1.8653c-.4104-1.3057-1.0446-2.7979-1.7534-3.5814-.5223.5596-1.0073 1.5296-1.3803 2.4995-.3759.9085-.6203 1.8696-.7994 2.574l-.0001.0001c-.0341.1345-.066.2596-.0958.3731-.1493.485-.1865.7834-.1865.7834Zm16.974-28.7253-.3358.22383s-.2611.18648-.6715.44766l-.0604.03555h-.0001c-.6366.37458-1.6135.9495-2.6256 1.41939-.9699.44766-1.9772.7461-2.7233.78336.0374-1.04454.6343-2.53674 1.3058-3.76785.295-.59004.59-1.09368.8344-1.51088l.0982-.16789c.2611-.41036.4103-.6715.4103-.6715l.2239-.29845-1.9771-1.9772-.3732.44767c-1.9771 2.49948-3.5067 6.34194-2.9098 9.62491l.6715.6715c3.2829.6342 7.1627-.9326 9.6249-2.90984l.4476-.37305-1.9398-1.97721ZM3.69324 28.5762l-.33579.2238-1.93986-1.9399.44766-.3731c2.46213-1.9772 6.34194-3.544 9.62485-2.9099l.6715.6716c.5969 3.3202-.9327 7.1254-2.90987 9.6249l-.37305.4476-1.97721-1.9772.22383-.3358s.14931-.2611.4104-.6715l.09819-.1678.00009-.0001c.24435-.4172.53937-.9208.83439-1.5108.63414-1.2311 1.26837-2.7233 1.30572-3.7679-.74619.0373-1.75338.3358-2.7234.7835-1.01196.4698-1.98891 1.0447-2.62548 1.4193l-.06048.0355c-.4104.2612-.67149.4478-.67149.4478Zm25.36786 3.8052-.2238-.3731s-.1865-.2612-.4104-.6715c-.4104-.6342-.97-1.6415-1.4549-2.686-.4477-.9699-.7834-1.9772-.7834-2.7233 1.0445.0373 2.5368.6715 3.7678 1.3057.59.295 1.0937.59 1.5109.8344l.1679.0982c.4104.2611.6715.4477.6715.4477l.3358.2238 1.9772-1.9772-.4477-.373c-2.4995-1.9772-6.342-3.5068-9.6249-2.9099l-.6715.6715c-.6342 3.2829.9326 7.1627 2.9098 9.6249l.3731.4476 1.9026-1.9398ZM7.34922 3.73052l-.22383-.37306 1.9026-1.9399.37305.44767c1.97726 2.46219 3.54406 6.34196 2.90986 9.62487l-.6715.6715c-3.2829.5969-7.12536-.9327-9.62484-2.90987l-.44766-.37305 1.97721-1.97721.37305.22383s.26109.18657.67149.44775l.16785.09819c.41724.24435.92088.53937 1.51092.83439 1.23102.67149 2.72331 1.26846 3.76788 1.30572-.03729-.7461-.33582-1.75338-.78348-2.72331-.4698-1.01196-1.04472-1.989-1.41939-2.62563l-.03546-.06038c-.26118-.41037-.44775-.67151-.44775-.67151ZM91.138 14.027c-2.7234 0-4.4766.8953-4.4766.8953l.522 1.828s1.3806-.6343 3.1338-.6343c1.6416 0 2.3877.6715 2.3877 2.0146-4.5144 0-6.678 1.5294-6.678 3.7305 0 2.0518 1.6417 3.5814 5.0365 3.5814 2.052 0 3.9545-.6715 4.7006-1.0819v-6.23c-.0378-2.4249-1.6794-4.1036-4.626-4.1036Zm-9.0278-3.5442v3.7306h3.0591l-.1873 2.0892h-2.8718v5.7451c0 .7834.5219 1.2311 1.1933 1.2311.6345 0 1.2681-.2239 1.9026-.5223l.2241 1.716c-.9333.6343-2.2382.9327-3.0968.9327-2.0511 0-3.3202-1.1939-3.3202-3.3949V10.7067l3.097-.2239Zm-13.2066 12.311c1.2311.373 2.3876.5222 3.5064.5222 1.3437 0 1.9403-.2984 1.9403-.8953 0-.6472-.9476-1.0333-2.078-1.4939-1.6708-.6811-3.7418-1.525-3.7418-3.617 0-2.0145 1.5295-3.2828 4.6633-3.2828 1.5291 0 3.1338.5595 3.8799.8953l-.3357 1.828c-1.1943-.4477-2.2383-.6343-3.1716-.6343-1.2681 0-1.8648.3731-1.8648.9327 0 .7086.9919 1.1246 2.1574 1.613 1.656.6945 3.6621 1.5356 3.6621 3.5724 0 2.2011-1.4923 3.2084-4.5514 3.2084-1.4174 0-3.3946-.3731-4.3646-.7835l.2985-1.8652Zm-2.1264 1.7533c-1.2311.5223-2.798.8954-4.2529.8954-3.6559 0-5.5213-2.2383-5.5585-5.5586 0-3.4694 1.9772-5.8569 5.3347-5.8569s4.999 2.2382 4.999 4.8497c0 .1492-.0374 1.1191-.1492 1.6414h-7.0136c0 1.716 1.1565 2.7607 3.0964 2.7607.9327 0 2.0892-.1866 3.0591-.5969l.485 1.8652Zm-6.6405-6.0062h4.0664c0-1.6042-.7462-2.4995-2.0518-2.4995-1.2685.0374-2.0146 1.0073-2.0146 2.4995Zm32.5304 4.6633c-.0081.0027-.0189.0063-.0315.0108-.1638.0578-.7101.2502-1.6101.2502-1.2681 0-1.9026-.7087-1.9026-1.5295 0-1.231 1.1565-1.9025 3.5442-2.0518v3.3203ZM53.3098 10.5575h3.2083c.3537 10.0089-4.7914 14.519-5.2953 14.9607-.0276.0242-.0413.0362-.0394.0362h-1.9026s-5.7451-4.4393-5.372-14.9969h3.2083s.0373 8.9161 3.0963 11.8632c3.0591-2.9844 3.0964-11.8632 3.0964-11.8632ZM140.679 25.2553l-4.066-4.999h-1.715v4.9616h-2.202V10.5568l2.202-.2238v8.2445h1.715l3.395-4.2528h2.426l-4.365 4.9617 5.111 5.9689h-2.501Zm-12.012 0v-7.2746c0-2.6115-3.096-2.4623-4.812-1.8654v9.1026h-2.201V14.847c1.119-.4477 2.798-.7461 4.402-.7461 2.462.0373 4.813.8953 4.813 3.6559v7.4985h-2.202Zm-11.08-5.484c-1.529.0746-4.439.0746-4.439 2.2384 0 1.4549 1.343 1.8652 2.574 1.8652.597 0 1.343-.0372 1.865-.2984v-3.8052Zm2.127 4.9244c-1.157.5596-2.649.7834-3.917.7834-2.238 0-4.701-.7461-4.701-3.4321 0-3.3202 4.03-3.6187 6.529-3.7679v-.6715c0-1.4177-1.045-1.8653-2.313-1.8653-1.007 0-2.089.2238-3.022.6716l-.559-1.5296c1.156-.5223 2.536-.7834 3.805-.7834 2.499 0 4.178 1.1937 4.178 3.6932v6.9016Zm-12.087-3.5441c0-2.0518-1.791-2.5741-3.432-2.5741h-2.462v4.8124c1.977.6343 5.894.6716 5.894-2.2383Zm-.336-6.6777c0-2.6487-3.768-2.7606-5.521-2.0518v4.4767h2.387c1.642 0 3.134-.5969 3.134-2.4249Zm2.612 6.827c0 3.1709-2.947 4.1409-5.671 4.1409-1.567 0-3.245-.1493-4.7005-.7834v-13.542c1.4175-.6342 3.0965-.7834 4.6635-.7834 2.5 0 5.26 1.0445 5.26 3.9171 0 1.4922-.933 2.8725-2.388 3.2829v.0373c1.642.485 2.836 1.9772 2.836 3.7306Z"/>
</svg>