<svg xmlns="http://www.w3.org/2000/svg" viewBox="0 0 181 24">
	<path fill="#fff" d="M47.3 11.8C47.3 5.3 52.6 0 59.1 0c6.6001 0 11.9001 5.3 11.8001 11.8 0 6.5-5.3 11.8-11.8001 11.8-6.5 0-11.8-5.3-11.8-11.8Zm2.3 0c0 5.3 4.3 9.5 9.5 9.5 5.3 0 9.5001-4.2 9.5001-9.5S64.3 2.3 59.1 2.3c-5.3 0-9.5 4.3-9.5 9.5ZM180 21.0996H78.4v.8H180v-.8Zm-123.6-10.3h-3.9V5.59961h5.8v1.7h-4v1.8h4v5.19999h-4v1.9h4v1.7h-5.8v-5.3h3.9v-1.8Zm7.5-3.49999H60v-1.7h5.8v5.19999h-4v1.8h4v5.3H60v-1.7h3.9v-1.9H60V9.09961h3.9v-1.8Zm96.8 6.60059c.262-.3488.675-.6215 1.175-.9508.073-.0484.148-.098.225-.1492.1 0 .1 0 .2-.1.3-.1.3-.4.1-.7-.3-.4-.7-.8-1.1-1.2h.7v-7.3h-7v10.9c0 .3-.1.7-.5 1-.1.1-.2.2-.2.3.079.1888.152.3677.222.5356.37.8988.61 1.4801.778 1.5644.071 0 .142-.05.283-.15.059-.0414.129-.0914.217-.15.3-.3 1.4-.9 3-1.7-.1-.1-.1-1.2-.1-1.4.5.9 1.3 1.8 2.7 2.8.05.05.1.075.15.1.05.025.1.05.15.1.5-.8 1-1.4 1.6-1.8-1.1-.4-2-.9-2.6-1.7Zm-3.8-8.5h3v1.1h-3v-1.1Zm1.6 8.3c-.3.3-.8.5-1.6.8v-3.8h.6c0 .9.3 1.9 1 3Zm-1.6-4.6v-1.1h3v1.1h-3Zm2.1 1.9v-.3h1.9c-.3.6-.8 1.1-1.3 1.6-.036-.0732-.086-.1865-.15-.3303v-.0006c-.11-.249-.26-.589-.45-.9691Zm13.2-7.20001h6.7V5.4002h-6.7V3.80019ZM97.2001 17.7002h1.9v-.9H108.2v.7h2.1v-14.3H97.1001v14.5h.1Zm1.9-12.6H108.2v10.2h-9.0999v-10.2Zm72.2999 2.5c0 .05 0 .075-.012.1h8.712v1.8h-2.4v6.6c0 .9-.9 1.4-3.1 1.4-.1-.8-.3-1.5-.7-2 1.1 0 1.6-.1 1.6-.5v-5.6h-4.3V7.80019c-.5.3-1 1.00001-1.5 1.70001v7.9h-2v-5.9c-.131.1309-.262.2809-.409.45-.191.2183-.409.4682-.691.75l-1.4-1.2c1.6-1.4 3.1-3.1 4.3-5.1 1.3.69999 1.8 1.1 1.9 1.2Zm-32.5-4.4c-.378 0-.755.02229-1.154.04582-.446.02631-.918.05417-1.446.05417-.1.1-.1.10001 0 .30001s.2.49999.3.8h-6v1.6h3.3c0 .2.2.8.4 1.1.076.11459.153.21459.218.3.106.13819.182.23819.182.3h-3.1v10l2 .1v-6.6c.3.3.5.6.7 1l.4-.3v4h1.7v-.6h1.9v.4h1.7c.3.6.5 1.6.6 2.2 2 .1 3.1-.4 3.1-1.4v-8.9h-2.9c.141-.23436.303-.53463.457-.81843v-.00065c.174-.32143.337-.62165.443-.78092 0-.05.025-.075.05-.1.025-.025.05-.05001.05-.10001h3V4.2002h-5.7c0-.3 0-.7-.2-1Zm-5.1 7.6v-1.6h2.1c-.6.7-1.3 1.2-2.1 1.6Zm4.6 3.2h-1.9v-1.3h1.9v1.3Zm-1.1-3.5c-.355.1777-.711.4345-.996.7H140c-.533-.2667-.889-.4889-1.126-.637v-.0002c-.118-.074-.207-.1295-.274-.1628-.046-.0232-.087-.0411-.122-.056-.114-.0494-.155-.0672-.078-.144 0-.2.3-.6.8-1.1h-2.7l1.1 1.1-.3.3Zm3 5.2v-3.9c.3.3.5.5.6.5.045-.0595.087-.1168.128-.1716v-.0004c.232-.3131.402-.5429.572-.628v4.2c.067.2658-.132.2225-.537.1342-.204-.0446-.461-.1007-.763-.1342Zm1.3-6.6v1.3c-.9-.60001-1.6-1-2.2-1.3h2.2Zm-3-1.5h-1.8c-.2-.5-.5-1.2-.7-1.6h3.2c-.1.5-.4 1.1-.7 1.6Zm-16.8-1.6h4.8v-2h-12v2h4.9v9h-5.6v1.9h13.2v-1.9h-5.3v-9Zm44.9 2.1c1-.8 2.3-2 3.6-3.5.1-.1.2-.175.3-.25.1-.075.2-.15.3-.25l.3-.30001c0-.1-.4-.29999-1.3-.69999l-.8-.4c-1.1 1.6-2.3 2.89999-3.8 4.09999.268.26785.516.47592.735.65978V7.46019c.272.22791.499.41864.665.64001Zm-59.7 2.4h-.4c.5.9.8 1.4.9 1.4l-1 .7h.9v1.7h-7.5v-1.7h2.7v-2.1h-2.3v-1.6h2.3V7.80019h-2.3V6.2002h6.7v1.59999h-2.5V8.9002h2.5v1.6Zm-2.5 2.1h1.6c-.071-.0944-.147-.1944-.228-.2999-.261-.3417-.566-.7417-.872-1.2001l1.1-.7h-1.6v2.2Zm48.49.8719c.474-.3504 1.045-.7719 1.11-.7719.2.5.3 1 .3 1.4-1.6 1.2-2.6 2-3.1 2.5-.3.4-.4.5-.5.5-.2-.2-.5-.8-1-1.8l.3-.3c.049-.0657.096-.126.139-.1822.221-.2862.361-.4671.361-.7178v-2.1h-2.2v-1.7h2.2v-1.3h-.7v-.5.00036c-.1.19988-.2.3997-.3.49964-.294.36733-.318.41082-.35.44769-.011.01332-.023.02577-.05.05231-.185-.12361-.409-.28541-.718-.50902-.191-.1382-.415-.3-.682-.49098 0 0-.1 0-.1-.1.185-.33289.411-.67946.643-1.03464.394-.60511.805-1.23524 1.057-1.86536.6-1.3.9-2.7.9-2.8.122.03051.272.06103.45.09723.405.08242.955.19431 1.65.40277.086.08641-.201.91965-.345 1.33801-.022.06574-.041.12124-.055.16199h2.5v1.59999h-3.3c-.15.35001-.25.65001-.325.87501-.075.225-.125.375-.175.425h3.6v1.6h-1.9v1.3h2v1.6h-2v1.8c.105-.0702.334-.2388.59-.4281ZM88.2565 3.36986c-.0836.32215-.1565.6033-.1565 1.03034h.2v1.6h5.3v7.8h-2.3v-1h-3.1v4.9H86v-4.9h-3v1.2h-2.1v-8.1h5v-3.1c1.2 0 1.9 0 2.1.1.3 0 .4 0 .4.1s0 .1-.1.2c-.0146.05837-.0292.11461-.0435.16966ZM82.8 11.3002H86v-3.4h-3.2v3.4Zm8.5 0v-3.4h-3.2v3.4h3.2Zm-80.2 7c-3.5 0-6.3-2.8-6.3-6.3s2.9-6.4 6.2-6.4h3.6v2.69999h-3.9c-2 0-3.6 1.60001-3.6 3.60001v.1c0 2 1.6 3.6 3.6 3.6h4v2.7h-3.6Zm25 0c-3.5 0-6.3-2.8-6.3-6.3s2.8-6.4 6.2-6.4h3.6v2.69999h-3.9c-2 0-3.6 1.60001-3.6 3.60001v.1c0 2 1.6 3.6 3.6 3.6h4v2.7h-3.6Zm-11.6-12.6c1.8 0 3.2 1.39999 3.2 3.2 0 1.4-1 2.7-2.3 3.2 1.3.4 2.3 1.6 2.3 3.1 0 1.8-1.4 3.2-3.2 3.2h-7.2V5.80019c0-.04999 0-.07499.0125-.08749.0125-.0125.0375-.0125.0875-.0125h7.1Zm.6 9.7c.2-.2.4-.6.4-1s-.2-.8-.5-1.1c-.2-.2-.6-.4-1-.4h-4.6V15.7002c0 .1.1.1.1.1h4.6c.3 0 .7-.1 1-.4Zm-1-4.7c.3 0 .7-.1 1-.4.2-.2.3-.9.3-1.2 0-.3-.1-.7-.4-1-.2-.2-.6-.4-1-.4h-4.6v2.9c0 .1.1.1.1.1h4.6Zm-21.7-5.1H0v12.7h2.4v-12.7Z"/>
</svg>