<svg xmlns="http://www.w3.org/2000/svg" viewBox="0 0 160 38">
	<path fill="#F56E28" d="M10.1222 20.2445c5.6026 0 10.1223-4.5432 10.1223-10.1223C20.2445 4.5197 15.7012 0 10.1222 0 4.5197 0 0 4.5197 0 10.1222c0 5.5791 4.5197 10.1223 10.1222 10.1223Zm.069 8.0507c5.6026 0 10.1223-1.2241 10.1223-2.7306 0-1.5067-4.5433-2.7307-10.1223-2.7307-5.60252 0-10.1222269 1.224-10.1222269 2.7307 0 1.5065 4.5432469 2.7306 10.1222269 2.7306Zm10.1223 3.9315c0 .8945-4.5197 1.6007-10.1223 1.6007-5.57898 0-10.1222269-.7062-10.1222269-1.6007S4.58868 30.626 10.1912 30.626c5.579-.0236 10.1223.7062 10.1223 1.6007Zm-10.1223 4.896c5.6026 0 10.1223-.1882 10.1223-.4472s-4.5433-.4708-10.1223-.4472c-5.60252 0-10.1222269.1882-10.1222269.4472 0 .2354 4.5432469.4472 10.1222269.4472Z"/>
	<path fill="#fff" d="M75.0441 3.03711c4.096.02354 7.0856 2.87189 7.0856 6.99139s-2.9896 6.9679-7.1091 6.9914H74.95c-4.096-.0471-7.0856-2.8719-7.0856-6.9914 0-4.1195 2.9661-6.94431 7.1091-6.99139h.0706Zm-4.096 6.99139c0 2.6365 1.6714 4.2608 4.0489 4.2608 2.3776 0 4.0254-1.6243 4.0489-4.2608-.0235-2.63647-1.6713-4.26074-4.0489-4.26074-2.4011 0-4.0489 1.62427-4.0489 4.26074Zm-31.3083 6.7791h2.919V3.2721h-2.7542l-6.4029 8.8746V3.2721h-2.919v13.5355h2.7778l6.3793-8.87455v8.87455Zm8.0034-13.5355h-2.9425v13.5355h2.9425v-5.4377h5.9556v5.4377h2.9662V3.2721h-2.9662v5.3436h-5.9556V3.2721Zm14.0065 13.5355h-2.9424V3.2721h9.157v2.68357h-6.2146V16.8076ZM113.132 6.02629h-4.331V3.2721h11.629v2.75419h-4.332V16.8076h-2.966V6.02629Zm15.137-2.75419h-6.051v13.512h2.966v-4.0489h2.802c3.013 0 5.438-1.6242 5.438-4.75507 0-2.80127-1.954-4.70803-5.155-4.70803Zm2.165 4.73157c0 1.20051-.871 2.09503-2.354 2.09503h-2.896V5.95567h2.849c1.483 0 2.401.70621 2.401 2.048ZM160 16.8076l-4.802-6.94426 4.614-6.59124h-3.414l-2.895 4.14306-2.848-4.14306h-3.507l4.613 6.66187-4.802 6.87363h3.413l3.084-4.4255 3.036 4.4255H160Zm-13.371-.0001h-3.013l-1.247-3.1073h-5.721l-1.27 3.1073h-3.014l5.768-13.62967h2.73l5.767 13.62967ZM139.496 6.803l-1.788 4.2372h3.578l-1.79-4.2372Zm-48.9621 7.4863c-2.3779 0-4.0492-1.6243-4.0492-4.2608 0-2.63647 1.6478-4.26074 4.0492-4.26074 1.2475 0 2.283.35311 3.1543 1.10639l1.8358-1.83613c-1.2475-1.20055-2.9192-1.97737-4.9431-2.00091H90.51c-4.1431.04708-7.1091 2.87189-7.1091 6.99139s2.9896 6.9443 7.086 6.9914h.0701c2.0248-.0235 3.6956-.8003 4.9431-2.0009l-1.8358-1.8361c-.8713.7533-1.8829 1.1064-3.1304 1.1064Zm8.3095-4.2608c0 2.6365 1.6706 4.2608 4.0486 4.2608 1.248 0 2.283-.3531 3.154-1.1064l1.836 1.8361c-1.247 1.2006-2.918 1.9774-4.943 2.0009h-.071c-4.0956-.0471-7.0849-2.8719-7.0849-6.9914 0-4.1195 2.9662-6.94431 7.0849-6.99139h.071c2.025.02354 3.696.80036 4.943 2.00091l-1.836 1.83613c-.871-.75328-1.906-1.10639-3.154-1.10639-2.401 0-4.0486 1.62427-4.0486 4.26074ZM40.0398 25.1647H32.201v3.8606h3.9783c3.2014 0 4.8492 1.3889 4.8492 3.837 0 2.8249-2.0244 4.096-5.3671 4.096H30.459V23.5405h9.5808v1.6242Zm-7.8153 5.4849v4.6609h3.6016c2.2128 0 3.4369-.7533 3.4369-2.4482 0-1.483-1.0593-2.2127-3.3191-2.2127h-3.7194Zm16.7373-7.1562h-1.3889l-5.8614 13.4414h1.789l1.483-3.3898h6.5677l1.483 3.3898h1.8127l-5.8851-13.4414Zm.0942 4.2842 1.8361 4.2373h-5.273l1.8361-4.2373.8004-2.0479.8004 2.0479Zm16.9722 3.1545H58.048v6.0027h-1.7655V23.5169h1.7655v5.7909h7.9802v-5.7909h1.7419v13.4179h-1.7419v-6.0027Zm6.6854-7.4152h-1.7655v13.4179h1.7655v-5.1552l1.1299-1.0359 6.0498 6.1911h2.3304l-6.7324-7.0385 6.2616-6.3794h-2.2598l-6.7795 6.7796v-6.7796Z"/>
</svg>