<svg xmlns="http://www.w3.org/2000/svg" viewBox="0 0 159 36">
	<g fill="#fff">
		<path d="m135.158 15.8838 1.296-3.8865 1.554 3.8865h-2.85Zm-.648 2.0729h4.146l1.037 2.5911c0 .1295.129.3886.129.5182 0 .2591-.259.5181-.777.5181v.9069h5.311v-.8996c-.129 0-.647-.1297-1.036-1.1661l-4.412-11.40772h-3.599L131.164 20.411c-.259.5182-.511 1.0364-1.166 1.166v.9067h4.275v-.8923c-.259 0-.777-.1297-.777-.6479-.02-.1826.026-.3664.129-.5182l.907-2.4615-.022-.0071Zm-38.9801-2.044 1.4394-3.865 1.4395 3.865h-2.8789Zm-.6478 2.0584h4.1241l1.0368 2.5767c0 .1295.129.3886.129.5182 0 .2591-.259.511-.7772.511v.8996h5.2832v-.8852c-.13 0-.641-.1296-1.03-1.1588L99.2653 9.09684h-3.5987l-4.124 11.33576c-.2591.5182-.5111 1.0292-1.1588 1.1588v.8996h4.2536v-.8996c-.2591 0-.7701-.1296-.7701-.6478-.0189-.1826.027-.366.1295-.5182l.8997-2.4471-.0144-.0072Z"/>
		<path d="M76.2914 9.03992v.90686h.2591c.5182.12952.6478.51822.6478 1.03642v9.4357c0 .6477-.1296 1.0364-.6478 1.1659h-.2591v.9069h5.1749v-.8997h-.2591c-.5182-.1295-.6478-.5182-.6478-1.1659v-3.2388l1.4395-1.4395 3.102 5.0381c.1296 0 .1296.1296.1296.2591 0 .2591-.1296.5182-.6478.5182v.9069h5.8154v-.8781c-.2816-.0588-.5443-.1834-.7683-.3635-.224-.1801-.4021-.4107-.52-.6729l-4.5271-6.9814 2.5838-2.4543c.574-.5631 1.2865-.9652 2.0657-1.16592v-.91406h-5.4268v.90686c.3886 0 .7773.12952.7773.38862 0 .1296 0 .2591-.2591.5182l-3.7498 3.4907v-3.3611c0-.5182.1295-.9069.6478-1.03642h.2591v-.90686h-5.1893Zm-29.9048-.04318v.92845h.2663c.5254.12951.6621.53261.6621 1.05801v9.522c0 .5254-.1295.9285-.6621 1.058h-.2663v.9285h5.1605v-.8997h-.2663c-.5326-.1295-.5326-.5254-.5326-1.058v-.9572l5.29-5.29v6.2184c0 .5254-.1296.9285-.6622 1.058h-.2663v.9285h5.1605v-.8997h-.2663c-.5326-.1295-.6622-.5254-.6622-1.058v-9.558c0-.5326.1296-.9285.6622-1.058h.2663v-.92126h-5.1533v.92845h.2663c.5254.12951.6622.53261.6622 1.05801v.3958l-5.29 5.2901v-5.6859c0-.5326 0-.9285.5326-1.05801h.2663v-.92845h-5.1677Zm14.9992 0v.92845h.2663c.5326.12951.5326.53261.5326 1.05801v9.522c0 .5254 0 .9285-.5326 1.058h-.2663v.9285h5.0381v-.8997h-.1296c-.5254-.1295-.6621-.5254-.6621-1.058v-4.3975h5.29v4.3687c0 .5254-.1295.9285-.6621 1.058h-.2663v.9285h5.1604v-.8997h-.3023c-.5254-.1295-.5254-.5254-.5254-1.058v-9.558c0-.5326 0-.9285.5254-1.058h.2663v-.92126h-5.1388v.92845h.2663c.5326.12951.6621.53261.6621 1.05801v3.174h-5.29V10.976c0-.5326.1367-.9285.6621-1.058h.1296v-.92126h-5.0237Zm52.0222 5.95216 2.778-3.9657c.159-.3197.405-.5883.709-.7753.304-.1871.654-.28505 1.011-.28271v-.92845h-4.908v.92845c.396 0 .928.12951.928.53261-.003.1026-.03.2032-.075.2951-.046.0919-.111.1729-.191.2375l-1.591 2.2456-1.583-2.5119c-.396-.6622.266-.79171.662-.79171v-.93565h-6.067v.92845c.662 0 1.058.53261 1.72 1.43951l2.778 4.232-3.44 5.0381c-.37.4537-.874.7787-1.44.9284v.9285h4.765v-.8997c-.792 0-.929-.3958-.929-.5254 0-.2663.13-.3958.267-.6621l2.116-3.0445 2.116 3.3108c.14.1463.234.3321.266.5326 0 .1295-.13.3958-.792.3958v.9285h5.952v-.9357c-.662-.1295-.928-.6621-1.187-.9284l-3.836-5.6859-.029-.0288Zm5.657-5.95216v.92845h.266c.526.12951.662.53261.662 1.05801v9.522c0 .5254-.129.9285-.662 1.058h-.266v.9285h5.16v-.8997h-.266c-.532-.1295-.662-.5254-.662-1.058v-2.0152c4.102-.9285 7.276-2.5119 7.276-5.8154.026-.4692-.053-.9382-.229-1.3737-.177-.4354-.447-.8265-.793-1.1454-1.187-1.18756-2.778-1.18756-3.836-1.18756h-6.65Zm4.232 1.84966h1.058c2.382 0 2.778 1.1948 2.778 1.9865 0 1.8497-1.986 3.174-3.836 3.8362v-5.8227Zm21.772-1.84966v.92845h.266c.533.12951.533.53261.533 1.05801v9.522c0 .5254 0 .9285-.533 1.058h-.266v.9285h5.038v-.8997h-.13c-.532-.1295-.662-.5254-.662-1.058v-4.3975h5.29v4.3687c0 .5254-.136.9285-.662 1.058h-.266v.9285h5.16v-.8997h-.266c-.525-.1295-.525-.5254-.525-1.058v-9.558c0-.5326 0-.9285.525-1.058h.266v-.92126h-5.175v.92845h.267c.525.12951.662.53261.662 1.05801v3.174h-5.29V10.976c0-.5326.129-.9285.662-1.058h.13v-.92126h-5.024ZM2.04398 16.0141c-.00899-.0422-.00872-.0859.00063-.128.00927-.0422.02753-.0819.05353-.1163.02591-.0346.05902-.0631.0969-.0838.03787-.0206.0798-.0329.12289-.0361.04301-.003.08628.0031.12676.0181.04049.0149.07729.0385.10796.0689.03059.0304.05443.0671.06973.1074.01529.0404.02177.0835.01898.1266v.2088c.2672 4.3581 1.98205 8.5022 4.87258 11.7747 2.87896 3.2244 6.93816 5.7219 12.12746 7.4133 2.6123-.8259 5.1083-1.9821 7.4276-3.4403 1.8861-1.1791 3.5844-2.6349 5.0381-4.3184h-4.4119c-.058-.0006-.1147-.0178-.1632-.0498-.0485-.0318-.0868-.0771-.1103-.1302l-4.3904-7.9458-6.7007 7.9962c-.0285.0333-.0638.0601-.1035.0787-.0397.0187-.083.0287-.1268.0293h-2.591c-.0545.0001-.1081-.0146-.155-.0425s-.0853-.0679-.1113-.1159L7.37719 16.266c-.02231-.0676-.02006-.141.00639-.2071.02645-.0661.07539-.1207.13819-.1543.06279-.0335.13548-.0439.20512-.029.06972.0147.13189.0536.1757.1097L13.6748 26.99h2.2672l6.8734-8.2193c.0245-.0287.0537-.0531.0864-.072.069-.0366.1496-.0451.2247-.0236.0751.0214.1391.0712.1783.1388l4.5559 8.1761h4.8654c.0677.0005.1335.0233.1871.0648.031.0239.0569.0538.0762.0878.0194.034.0317.0715.0364.1104.0047.0388.0016.0782-.0091.1159-.0106.0376-.0287.0727-.0531.1033-1.5662 1.9526-3.4464 3.6309-5.5635 4.9662-2.3898 1.5065-4.9636 2.699-7.6579 3.5482-.0587.0179-.1213.0179-.18 0-5.3404-1.7273-9.5292-4.3183-12.4873-7.6147-2.98634-3.3666-4.75994-7.6358-5.03811-12.1275v-.2159l.00719-.0144Zm4.09527-3.3467c.02492.0353.04193.0756.04993.1181.00801.0425.00684.0862-.0035.1282-.01035.042-.0296.0813-.05641.1152-.02681.034-.06055.0617-.09906.0815-.0385.0198-.0807.031-.12388.033-.04327.002-.08637-.0052-.12649-.0213-.04013-.0161-.07638-.0405-.10625-.0718-.02987-.0313-.05272-.0686-.06694-.1094l-1.51863-2.9221H2.57659v2.7853c.00674.0431.00404.0872-.00792.1291-.01197.042-.03275.0809-.06118.1141-.02834.0331-.06361.0597-.10319.0779-.03968.0183-.08277.0277-.1264.0277-.04364 0-.08673-.0094-.12641-.0277-.03958-.0182-.07485-.0448-.10319-.0779-.02843-.0332-.0493-.0721-.06117-.1141-.01197-.0419-.01467-.086-.00792-.1291V9.71647c0-.08016.03185-.15708.08853-.21376.05667-.05668.1336-.08853.21376-.08853h1.98645c.05452-.00009.10805.01458.15501.04247.04688.02789.08529.06792.11129.11587l1.605 3.09488Zm9.09015 3.8361c-.0381-.0687-.0475-.1498-.0259-.2253.0216-.0756.0724-.1396.1411-.1777.0687-.0382.1498-.0475.2254-.0259.0755.0216.1395.0723.1777.141l1.4394 2.5479 3.2388-3.6491-2.8141-5.33315H15.323c-.0801 0-.1571-.03185-.2137-.08853-.0567-.05668-.0886-.1336-.0886-.21376V6.161c0-.08016.0319-.15708.0886-.21376.0566-.05668.1336-.08853.2137-.08853h7.2549c.0526.00045.1042.01467.1496.04121.0454.02645.0832.06442.1095.10994l2.4903 4.13124c1.9217-1.95766 3.3611-3.19559 5.0381-3.79297 1.677-.59738 3.5986-.56859 6.3768 0V4.77912c-.9149-.39279-1.7383-.97119-2.4183-1.69857-.6752-.71433-1.1969-1.55936-1.533-2.483049H6.51351c-.32829.932709-.84523 1.787789-1.51863 2.511839-.67997.72738-1.50343 1.30577-2.41829 1.69857v1.04361h7.24049c.05272-.00027.10463.01358.15015.04021.04557.02654.08317.06487.10897.11093l3.7354 6.71504c.0189.0341.0309.0715.0353.1102.0044.0387.0013.0778-.0094.1152-.0107.0374-.0287.0724-.0529.1029-.0242.0304-.0542.0559-.0882.0748-.034.0189-.0714.0309-.1101.0354-.0387.0045-.0778.0012-.1152-.0095-.0375-.0107-.0725-.0287-.1029-.0529-.0305-.0242-.0559-.0542-.0748-.0882L9.63714 6.47768H2.2815c-.08016 0-.15709-.03185-.21376-.08852-.05668-.05668-.08853-.1336-.08853-.21376V4.60638c-.00225-.06045.01367-.12028.0457-.17156.03212-.05137.0789-.09186.13423-.11633.90866-.35618 1.72717-.9092 2.3967-1.61939.65433-.70786 1.14573-1.55052 1.43947-2.468662.01646-.067177.05541-.12669.11038-.168605.05506-.0419063.12281-.0636963.1919-.06170804H32.9996c.0639-.00009897.1261.02005314.1779.05755114.0517.0374979.0902.0904169.11.1511709.2909.925813.7824 1.776093 1.4395 2.490253.6734.71217 1.4971 1.26537 2.4111 1.61939.0544.0224.1011.06028.1344.10886.0332.04858.0515.1058.0527.16464 0 .64776.072 1.5978 0 2.20237-.0173.07675-.0638.14368-.1297.18668-.0658.04301-.1458.05866-.223.04364-2.8789-.64056-4.779-.71973-6.4128-.12955-1.6338.59018-3.0732 1.8641-5.0381 3.91537l-.072.0575c-.068.0402-.149.052-.2256.0332-.0767-.0188-.143-.0669-.1846-.1339l-2.627-4.28962h-6.7871v2.70619h2.1592c.0545-.00009.108.01457.155.04246.0469.02789.0853.06793.1113.11588l2.9869 5.66429c.0386.0521.0594.1151.0594.1799 0 .0648-.0208.1279-.0594.18l-3.6778 4.124-.0792.0648c-.0697.0389-.1521.0486-.2289.027-.0768-.0216-.142-.0727-.1814-.1422l-1.6194-2.9149-.0216-.0216Zm22.067-1.1156c.0067.0431.004.0872-.0079.1291-.012.0421-.0328.0809-.0612.1141-.0283.0331-.0636.0598-.1032.0779-.0397.0183-.0828.0277-.1264.0277-.0436 0-.0867-.0094-.1264-.0277-.0396-.0181-.0748-.0448-.1032-.0779-.0284-.0332-.0492-.072-.0612-.1141-.0119-.0419-.0146-.086-.0079-.1291.0648-2.0296 0-4.088 0-6.12486l-1.5834 2.61266c-.0352.0566-.0882.1001-.1507.1236-.0624.0234-.131.0255-.1948.0059l-.403-.1295c-1.2165-.3298-2.5094-.2332-3.6634.2735-1.2753.5076-2.3947 1.3416-3.246 2.4183.8421 1.3602 1.5258 2.4974 2.1592 3.4906 2.1951 3.6563 3.3179 5.506 4.707 6.3409.3439-.6321.6515-1.2833.9213-1.9505.2959-.7682.5435-1.5543.7413-2.3535.0298-.0645.0812-.1164.1455-.1467.0642-.0304.1371-.0371.2057-.019.0687.018.1288.0596.17.1176.041.0579.0603.1284.0546.1992-.2176.8247-.4868 1.6347-.8061 2.4255-.3177.7811-.6856 1.5408-1.1012 2.2744-.0379.0652-.0987.1139-.1706.1364-.072.0227-.1497.0177-.2181-.0141-1.6769-.8349-2.8213-2.735-5.2108-6.7007-.655-1.0868-1.4035-2.3247-2.224-3.6562-.0331-.0489-.0508-.1065-.0508-.1655 0-.0591.0177-.1167.0508-.1656.9169-1.2469 2.1631-2.2139 3.5987-2.7925 1.297-.5717 2.7528-.6735 4.1168-.2879l.1872.0576 2.0296-3.3252c.0316-.05884.0818-.10562.1428-.13297.061-.02726.1293-.03365.1942-.01799.0651.01565.123.05236.1648.10436.0419.05209.0654.1166.0668.18335v7.20455l-.036.0143Z"/>
		<path d="M.0215921 14.337H19.0009l-.4966-.8277H0l.0215921.8277Zm19.1448079.3095H2.17359v.6189l16.64741.4823.6045-.6694-.2591-.4318Zm9.9539.8493 1.6266 2.6918c1.9864.1439 4.2032.8636 6.7655 1.4394.1665-1.1361.1177-2.2934-.144-3.4115-2.7297-.4274-5.4855-.6679-8.2481-.7197Zm1.2523-.6694c.5686.144.5398-1.1588-.4534-1.1803-.2886-.0164-.5754.0544-.8232.2033-.2478.149-.445.369-.5659.6315l.2735.4103c.1727-.1499.386-.245.6129-.2732.2269-.0282.457.0118.661.1148l.2951.0936ZM7.23329 13.1782h5.31881L9.21975 7.19727H2.74217v1.52582h1.43947c.71973 0 .7845.04319 1.13717.71974l1.97206 3.74257-.05758-.0072Z"/>
		<path d="m14.0781 15.9132-5.44114-.1224 5.48434 10.4793h1.5042l7.5932-9.1046 5.0741 9.1046h5.4628v-.7197c-.5254-.072-2.26-1.677-2.8358-2.6198-1.5978-2.5623-3.03-5.1533-4.6926-7.8163l-.3167-.5902.3743-.547c1.6553-2.4039 5.1892-4.18161 8.1473-3.4619l1.7705-2.8789-.6765-.16554c-4.5559-.7989-6.0673.34547-9.4932 3.86494l-.9357.9573-3.102-5.09573h-5.6499v1.28112h1.1012c.8349 0 1.0148.10076 1.4394.84928l3.1668 5.98813-5.1028 5.7579-2.843-5.1029-.0288-.0576Z"/>
	</g>
</svg>