<svg xmlns="http://www.w3.org/2000/svg" viewBox="0 0 165 22">
	<g fill="#fff">
		<path d="M19.5 14.1004v-3c0-.4-.1-.8-.2-1.1v-.30001c-.1-.1-.1-.1-.1-.2s0-.2-.1-.2c-.1-.2-.2-.3-.4-.5l-.1-.1h-.1c-.1-.1-.2-.1-.4-.2.1 0 0 0 0 0h-.7v.1h-.6v.1c-.1 0-.2 0-.2.1-.1 0-.1 0-.1.1s-.1.1-.2.1v-.1h-.1v.1h-.1s-.1.1-.1.2l-.3.3s-.1 0-.1.1v.1s0 .1-.1.1 0 0 0 .1v1.70001h.1v.5h-.1v.4c-.1.1 0 .2 0 .3v.2l.1-.3.1.1v.8h-.1.1v1.3c0 .1.1.2.1.3v-.1s.1 0 .1-.1V14.1004v.7V10.4004c.1-.1.1-.3.1-.4V9.80039s0-.1.1-.1c0-.1.1-.2.1-.3 0-.1.1-.1.1-.1.1 0 .1-.1.1-.2s.1-.1.2-.2l.1-.1s.1-.1.2-.1h.1s.1-.1.2-.1.1-.1.2 0h.1v-.1h.2c.1 0 .2-.1.3-.1.1 0 .2 0 .3.1h.1l.1.1h.1l.1.1s.1.1.2.1c.1.1.2.3.3.4v.1c0 .1 0 .3.1.3s0 .1 0 .2v.20001c-.1.1 0 .2.1.3v.5-.1c0 .1-.1.1-.1.2s0 .2.1.2v1.7c0 .1 0 .2.1.3v.1h-.1v.2s0 .1-.1.1v.1h.1v.1l.1.1v.8h-.1l.1.1v.1h-.1l.1.1v.2h-.1l.1.1h-.1l.1.1v.2c-.1-.1-.2-.1-.4 0-.1 0-.2.1-.3.2-.1.1-.1.2 0 .4 0 .1.1.2.2.3h.6V14.7004c-.1-.5-.1-.6-.1-.6"/>
		<path d="M0 21.9h21.9V0H0v21.9Zm20.7-1.2H1.1V1.1h19.6v19.6Z"/>
		<path d="M13.5 14.0004v-3c0-.4-.1-.8-.2-1.10001v-.3l-.0999-.1v-.1c0-.1-.0001-.2-.1001-.2-.1-.2-.1999-.3-.3999-.5l-.1001-.1h-.1c-.1-.1-.2-.1-.4-.2 0 0 0-.1-.1-.1h-.7999v.1H10.6v.1c-.1 0-.2 0-.2.1-.1 0-.1 0-.1.1s-.1.1-.2.1h-.89995v-.1h.1l-.3.3-.3.3s-.1 0-.1.1 0 .1-.1.1 0 .1-.1.1 0 0 0 .1v1.60001h.1v1h-.1v.4c-.1.1 0 .2 0 .3v.2h-.1l.1.1v.1l.1-.1v.7h.5v.6l-.1.1v.7c0 .1.1.2.1.3 0 0 .1 0 .1-.1V10.0004c.1-.10001.1-.30001.1-.50001v-.1s0-.1.1-.2.1-.2.1-.3c0-.1.1-.1.1-.1s.1-.1.1-.2.1-.1.2-.2l.1-.1s.09995-.1.19995-.1h.1001s.0999-.1.1999-.1c0 0 .1-.1.2 0h.1001v-.1H11c.2-.1.4-.1.6 0h.1001v-.1l.0999.1h.2s.1001.1.2001.1c.1.1.1999.3.2999.4v.1h.1c0 .1.0001.3.1001.3.1 0 0 .1 0 .2l-.3001.2v.1c-.1.1 0 .2.1.3v.60001c0 .1-.1.1-.1.2s0 .2.1.2v.3l.5 1v1s0 .1.1.1v.1H13v.2s0 .1-.1.1v.1h.1v.1l.1.1v.1H13v1.5l.1.1v.1H13l.1.1v.3H13l.1.1-.1-.8.1.1v.3h.2v.3h.4001v-1.8l-.2001-.2ZM83.7999 18.4c-.4 0-.9-.1-1.3-.3-1.1-.6-2.1-1.3-2.9-2.2-.8-.8-4.8-5.1-5.6-6.1l4.4-4.4c.6-.7 1.4-1.2 2.2-1.5.4-.1.8-.2 1.2-.2.2 0 .3 0 .3-.2s-.2-.2-.3-.2c-.6 0-1.8.1-2.4.1-.6 0-1.7-.1-2.1-.1-.2 0-.3 0-.3.2s.1.2.3.2c.2 0 .3.2.3.4s-.4.9-1 1.5-3.6 3.8-4.3 4.5h-.1V4.8c0-.7.2-1.1.8-1.1.2 0 .4-.1.6-.1.2 0 .3 0 .3-.2s-.2-.2-.4-.2c-.7 0-2 .1-2.5.1s-1.8-.1-2.8-.1h-.1c-.8 0-2.1.1-2.6.1s-1.9-.1-3-.1c-.3 0-.4 0-.4.2s.1.2.3.2c.3 0 .5 0 .8.1.7.2.8.5.9 1.1.1.6 0 1.2 0 4.4v.5c0 .1-.1.2-.1.2h-7.1c-.1 0-.1 0-.1-.2V4.9c0-.7.2-1.1.8-1.1.2 0 .4-.1.6-.1.3 0 .4 0 .4-.2s-.2-.2-.4-.2c-.8 0-2.1.1-2.6.1s-1.9-.1-3-.1c-.3 0-.4 0-.4.2s.1.2.3.2c.3 0 .5 0 .8.1.7.2.8.5.9 1.1.1.6 0 1.2 0 4.4v3.6c0 1.5 0 2.9-.1 4.4-.1.6-.2 1-.6 1.2h-.5c-.7 0-.9-.5-1.7-2.2-1.3-3.1-4.6-11.5-5.1-12.6-.2-.5-.3-.7-.5-.7s-.3.2-.6.8l-4.8 12.9c-.4 1-.8 1.7-1.7 1.9h-.4c-.2 0-.3 0-.3.2s.1.2.4.2c1.1 0 1.9-.1 2.1-.1.6 0 1.5.1 2.2.1.2 0 .3 0 .3-.2s-.1-.2-.3-.2h-.3c-.6 0-.8-.3-.8-.6l.3-1.2 1.1-2.9c0-.1.1-.2.2-.2h4.6c.1 0 .2 0 .2.2l1.7 4.4v.2l-.1.1-.1.1c-.2 0-.3.1-.3.2s.3.2.6.2h8.9c.1 0 .2-.1.2-.1v-.2h-.3c-.3 0-.7 0-1-.1-.6-.1-.7-.5-.8-1.1-.1-1.5-.2-2.9-.1-4.4v-2c0-.1.1-.1.1-.1h7.3v2c0 1.5 0 2.9-.1 4.4-.1.6-.2 1-.6 1.2-.2.1-.5.1-.7.1-.3 0-.3.1-.3.2s.2.2.4.2c.8 0 2.1-.1 2.6-.1s1.6 0 2.8.1h.2c.8 0 2.1-.1 2.6-.1s1.8.1 3 .1c.2 0 .4-.1.4-.2s-.1-.2-.3-.2c-.3 0-.7 0-1-.1-.5-.1-.7-.5-.7-1.1-.1-.9-.1-2.5-.1-4.4V11h.1l.2.3c.4.6 4.4 5.3 5.4 6.1.7.8 1.6 1.2 2.6 1.3h3.2c.4 0 .5-.1.5-.2-.1-.1-.2-.1-.4-.1Zm-36.3-5.9h-3.8c-.1 0-.1-.1-.1-.2l1.9-5.1c0-.1.1-.2.1-.2s.1.1.1.2l1.9 5.1c-.1.1-.1.2-.1.2Zm22.2.4c0 1.5 0 2.9-.1 4.4-.1.6-.2 1-.6 1.2-.2.1-.3.1-.5.1-.3 0-.6 0-.9-.1-.6-.1-.7-.5-.8-1.1-.1-1.5-.2-2.9-.1-4.4V5c0-.7.2-1.1.8-1.1.2 0 .4-.1.5-.1.3 0 .5 0 .8.1.7.2.8.5.9 1.1.1.6 0 1.2 0 4.4v3.5c-.1 0 0 0 0 0Z"/>
		<path d="M36.4 10.2004c-.8-.2-1.7001-.30001-2.6001-.30001-.5 0-.8 0-1-.1H32.7v-.4c0-2.6 0-4.1.5-4.5.5-.4 1.1-.4 2.7-.4 1.1 0 1.8999 0 2.3999.6.3.4.5.8.5 1.2 0 .2.0001.3.2001.3s.2-.1.2-.3c0-.8-.1-1.6-.3-2.4-.1-.5-.2001-.5-1.3001-.5H33.7v-.1c-.6 0-1.3.1-2.2.1-.4 0-1.7-.1-2.8-.1-.3 0-.5 0-.5.2s.1.2.3.2c.2 0 .6 0 .7.1.7.1.7999.5.8999 1.1v7.90001c0 1.5.0001 2.9-.0999 4.4-.1.6-.2 1-.6 1.1-.2.1-.5.1-.7.1-.3 0-.3.1-.3.2s.1999.2.3999.2h2.5c.2 0 .9 0 1.5.1s1.2001.1 1.4001.1c3.8 0 5.3999-2.3 5.3999-4.5.2-2.4-1.5999-3.6-3.1999-4.3 0 .1 0 0 0 0Zm-1.5 7.7c-.5 0-1-.1-1.5-.3-.7-.3-.7-.6-.7-2v-4.8c0-.1-.0001-.2.0999-.2H33.7c.6 0 1.2.1 1.7.5.6.5 1.2 1.1 1.5 1.8.3.7.5 1.5.5 2.3 0 .3-.0001.7-.1001 1-.1.3-.3.6-.5.9-.2.3-.4999.5-.7999.6-.4.2-.8.3-1.1.2Zm122.8-5.4H154c-.1 0-.1-.1-.1-.2l1.9-5.10001c0-.1.1-.2.1-.2s.1.1.1.2l1.9 5.10001c0 .1 0 .2-.2.2Zm7 6c-.3 0-.6 0-.9-.1-.4-.1-1-.4-1.8-2.3-1.3-3.1-4.6-11.50001-5.1-12.60001-.2-.5-.3-.6-.5-.6s-.3.2-.6.8l-5.1 12.90001c-.4 1-.5 1.7-1.4 1.9h-.3c-.2 0-.3 0-.3.2s.1.2.4.2h4c.2 0 .3 0 .3-.2s-.1-.2-.3-.2h-.3c-.6 0-.8-.3-.8-.6 0-.4.1-.8.3-1.2l1.1-2.9c0-.1.1-.2.2-.2h4.7l.1.1 1.6 4.4v.2s0 .1-.1.1l-.1.1c-.2 0-.3.1-.3.2s.3.2.6.2h3.9c.8 0 .9 0 .9-.2s-.1-.3-.2-.2"/>
		<path d="M103.8 12.8004c0 1.5 0 3-.1 4.5-.1.6-.2.9-.6 1-.3.1-.6.1-.9 0-.4-.1-.7-.5-.7-1.2V9.10039c0-1.5 0-3 .1-4.5.1-.6.2-.9.6-1 .3-.1.6-.1.9 0 .4.1.7.5.7 1.1v8.10001Zm45.1-2.1c-.5-.3-1.1-.5-1.7-.7.4-.10001.7-.30001 1-.50001.8-.4 1.4-1.1 1.7-1.9.1-.4.2-.8.2-1.2 0-.6-.1-1.1-.4-1.6-.2-.3-.4-.5-.6-.7-1.1-.7-2.4-1-3.8-.9-.9 0-1.7.1-2.6.3h-.7c-.3-.1-.6-.1-.9-.1-.1 0-.2-.1-.3-.1-.1 0-.1.1-.1.2.1.5.1 1 .2 1.5 0 .2.1 1.1.1 1.4 0 .1.1.2.2.2s.2-.1.2-.3c0-.3 0-.5.1-.7l.3-.3c.3-.3.7-.6 1.2-.7h.2c.6-.2 1.2-.3 1.8-.3.5 0 .9 0 1.3.2.4.1.8.4 1.2.7.5.5.8 1.3.7 2 0 .4-.1.8-.2 1.1-.1.4-.4.7-.7 1-.3.3-.7.6-1.1.70001-.5.1-1.1.2-1.6.2s-1 0-1.5.2c-.2.2-.2.4 0 .6.4.1.8.2 1.2.1h.4c.6-.1 1.1 0 1.7.1.7.2 1.4.7 1.8 1.3.4.6.7 1.4.6 2.2 0 .9-.3 1.9-.9 2.6-.4.3-.8.6-1.3.7-.5.2-1 .2-1.5.2-1.1.1-2.1-.2-3-.8-.4-.4-.7-.8-.9-1.3 0-.1-.1-.1-.1-.2 0-.2-.3-1-.4-1.4-.1-.6-.5-.3-.5.1 0 .2-.1 1.5-.1 1.6v.3c0 .3-.1.6-.3.8-.2.2-.4.4-.7.5-.5.2-1.1.2-1.6.2-2.1 0-3.7-.3-3.7-1.7v-4.8c0-.1 0-.2.1-.2.5 0 3.4 0 3.8.1.8.1 1.1.4 1.1.8.1.3.1.5.1.8 0 .1 0 .2.2.2s.2-.3.2-.4c0-.1 0-1 .1-1.4.1-1 .2-1.4.2-1.50001 0-.1-.1-.2-.1-.2s-.2.1-.3.30001c-.1.2-.5.3-1 .3H134c-.1 0-.1-.1-.1-.3V4.80039c0-.2 0-.3.1-.3.4 0 3.5.1 3.8.1 1 .1 1.2.4 1.4.7.1.2.1.5.1.8 0 .2 0 .3.2.3s.2-.1.2-.2.1-1.1.1-1.4c.1-.9.2-1.2.2-1.3 0-.1 0-.2-.1-.2s-.2.1-.3.1c-.3.1-.6.1-.9.1H130c0-.1-.1-.2-.2-.2-.7.1-1.3.2-2 .2h-7c-.7 0-1.3 0-2-.1-.5 0-.7-.2-.9-.2-.2 0-.2 0-.3.3h-2.3c-.5 0-1.9-.1-3-.1-.3 0-.4 0-.4.2s.1.2.3.2c.3 0 .6 0 .8.1.7.2.9.5.9 1.2v4.8c0 .10001-.1.20001-.1.20001h-7.2c-.1 0-.1 0-.1-.20001v-4.8c0-.7.2-1.1.8-1.2.2 0 .4-.1.6-.1.3 0 .4 0 .4-.2s-.2-.2-.4-.2h-7.5c-.1 0-.2.1-.3.2-.6.8-.7.9-1.2 1.6-2.7 3.4-6.1 10.30001-6.8 11.00001V9.30039c-.1-1.5 0-2.9.1-4.4 0-.7.2-1.1.7-1.1.2 0 .4-.1.6-.1.2 0 .3 0 .3-.2s-.1-.2-.4-.2c-.8 0-2 .1-2.5.1s-1.9-.1-2.7-.1c-.3 0-.5 0-.5.2s.1.2.3.2c.3 0 .5 0 .7.1.4.1.7.4.7 1.1v8.00001c0 1.5 0 3-.1 4.5-.1.6-.2 1-.6 1-.2.1-.5.1-.7.1-.3 0-.3.1-.3.2s.2.2.4.2h2.6c.3 0 .5 0 .7-.1.1 0 .1-.1.2-.1 1.2-1.2 7-11.00001 7.3-11.40001v4.70001l-.1 4c0 1.6-.3 2.1-.7 2.3-.3.1-.7.1-1.1.1-.3 0-.3 0-.3.2s.2.2.4.2h.5c.8 0 2-.1 2.5-.1s2.9.1 2.9.1h2.1c.6 0 1.9.1 3.2.1.3 0 .4-.1.4-.2s-.1-.2-.3-.2c-.3 0-.7 0-1-.1-.6-.1-.7-.5-.8-1.1-.1-1.5-.2-2.9-.1-4.4v-1.8c0-.1.1-.1.1-.1h7.2v1.8c0 1.5 0 2.9-.1 4.4-.1.6-.2 1-.6 1.2-.2.1-.5.1-.7.1-.3 0-.3.1-.3.2s.2.2.4.2c.8 0 2.1-.1 2.6-.1h2.7c.3 0 .4 0 .4-.2s-.1-.2-.3-.2c-.2 0-.5 0-.7-.1-.4-.1-.5-.5-.6-1-.1-1.5-.2-3-.1-4.5V4.80039c0-.7.3-1 .7-1.1.1 0 .2 0 .3-.1v2c0 .3.1.3.2.3s.2-.1.3-.3c.1-.3.2-.5.3-.7.3-.5.8-.5 2-.6l2.1-.1v8.40001c0 1.5 0 2.9-.1 4.4-.1.6-.3 1.1-.7 1.2-.4.1-.8.1-1.1.1-.3 0-.3.1-.3.2s.1.2.4.2c.8 0 2.6-.1 3.1-.1s1.9.1 3.2.1c.3 0 .4-.1.4-.2s-.1-.2-.3-.2c-.3 0-.7-.1-1-.1-.6-.1-.7-.5-.8-1.1-.1-1.5-.2-2.9-.1-4.4V4.30039l2 .1c1.8 0 2.4.6 2.5 1.1v.2c0 .3.1.5.3.5.2 0 .2-.1.2-.3v-2.3h.3c.7.2.8.5.9 1.2.1 1.5.1 2.9.1 4.4v3.60001c0 1.5 0 2.9-.1 4.4-.1.6-.2 1-.6 1.1-.3.1-.5.1-.8.1-.3 0-.3.1-.3.2s.2.2.4.2h2.6c.6 0 1.3 0 2.2.1.9.1 2.9.1 4.4.1.8 0 .9 0 1.1-.5.2-.5.3-.9.4-1.2l.6.6c1.2.9 2.6 1.3 4.1 1.3.9 0 1.7-.1 2.5-.3.9-.4 1.7-1 2.3-1.8.6-.8.9-1.7 1.1-2.7 0-.7-.1-1.4-.5-2-.8-.8-1.3-1.3-1.9-1.7M19.5001 6.19922c-.1-.1-.3-.1-.5-.1-.8-.1-1.6-.1-2.5-.1h-1.4l-3.7-.1c-.9-.1-1.8-.1-2.7 0h-6.3c-.1 0-.3.2-.3.3v.2h3.7c.8-.1 1.6-.1 2.5-.1h3.4c1.2 0 2.5 0 3.7.1l.7.1c.6-.1 1.2-.1 1.9 0 .5 0 .9.1 1.3.1l.2-.2c.1-.1.1-.3 0-.4M7.40011 14.0008v-3c0-.4-.1-.8-.2-1.10002v-.3c-.1-.1-.1-.1-.1-.2s0-.2-.1-.2c-.1-.2-.2-.3-.4-.5l-.1-.1h-.1c-.1-.1-.2-.1-.4-.2 0 0 0-.1-.1-.1h-.7v.1h-.6v.1c-.1 0-.2 0-.2.1-.1 0-.1 0-.1.1s-.1.1-.2.1h-.1v-.1l-.3.3-.3.3c-.1.1-.1 0-.1.1s0 .1-.1.1 0 .1-.1.1 0 0 0 .1v1.40002h.1v.2h.1v1.1h-.1v.4c-.1.1 0 .2 0 .3v.2h-.1l.1.1v.1h.1v.7h-.1.1v1.4c0 .1.1.2.1.3 0 0 .1 0 .1-.1V10.3008c.1-.1.1-.3.1-.50002v-.1s0-.1.1-.2.1-.2.1-.3c.1 0 .1-.1.1-.2s.1-.1.2-.2c0 0 0-.1.1-.1s.1-.1.2-.1h.1s.1-.1.2-.1c0 0 .1-.1.2 0h.1v-.1h.4c.2-.1.4-.1.6 0h.1v-.1l.1.1h.2s.1.1.2.1c.1.1.2.3.3.4v.1h.1c0 .1 0 .3.1.3s0 .1 0 .2h-.1v.1c-.1.1 0 .2.1.3v.30002h-.2v.4c0 .1-.1.1-.1.2s0 .2.1.2v1.4s0 .1.1.1l.1-.3v.1h-.1v.2s0 .1-.1.1v.1h.1v.1l.1.1v.1h-.2v2h-.1l.1.1v.1h-.1l.1.1v.3h-.1l.1.1h-.1l.1.1v.3h.2v.1h-.1.3v-.2c.1-.4.1-.8.1-1.2v-1"/>
	</g>
</svg>