<svg xmlns="http://www.w3.org/2000/svg" viewBox="0 0 160 30">
	<path fill="#fff" d="M0 0v26.1294L29.2588 0 8.84951 8.85813 0 0Zm.302934 29.1375L20.7036 20.4308l8.7051 8.7067V3.008L.302934 29.1375ZM47.5222 13.0485v3.9105l-.0074.0941-.0098.0934-.0191.0849-.0195.0855-.0374.0758-.0369.0746-.0471.0763-.0485.0656-.0644.0576-.0569.0472-.0662.0473-.0565.0365-.0673.0188-.065.0302-.0668.0086h-.1312l-.0662-.0086-.0576-.0302-.0661-.0268-.0565-.0291-.0563-.0472-.057-.0576-.0467-.0558-.0575-.0656-.0363-.0677-.0385-.0747-.0287-.0758-.0289-.0855-.0086-.0848-.0081-.0936-.012-.0939v-3.9106l.012-.0763.0081-.0656.0086-.0649.0289-.0679.0287-.0552.0385-.0485.0363-.0467.0471-.0472.0571-.0382.057-.0365.0563-.0279.0565-.0291.058-.0182.0657-.0103.0547-.0079h.1427l.0668.0079.065.0103.0673.0182.0651.0291.0674.0279.0552.0279.0558.0473.0581.0393.0375.045.0368.0587.0374.0553.0195.0564.0191.0679.0097.0735.0081.0763Zm-6.1025 3.2029h1.0475l.0086.1692.0277.2182.0288.2638.0472.3026.0379.1693.0368.1788.0489.1784.0559.1903.0656.2006.0651.1965.0857.2177.0938.2177.095.2171.1232.2074.1318.2074.1404.1977.1606.1891.1709.1801.1877.1801.2077.1681.1047.0866.1111.0656.1133.0723.1129.0684.1226.0553.1317.0569.1226.0474.1336.0489.1428.0383.141.0352.1399.0297.1507.0187.1525.0178.1502.0102.1612.0102h.6228l.4229-.0284.2078-.0182.1969-.02.1911-.028.1778-.0267.179-.0382.1796-.0382.1605-.0376.1612-.0478.1513-.0467.1514-.057.1422-.0571.1323-.0649.1221-.0666.1231-.0656.1227-.0656.1138-.0768.1025-.0844.1053-.0769.0933-.0849.0938-.0837.0857-.0935.0847-.0854.0737-.106.0672-.0929.0662-.106.0645-.1031.0477-.1118.0571-.1054.0862-.2347.0743-.2473.0663-.2541.0563-.273.0386-.2838.0287-.2951.0185-.3111.0098-.3202v-3.7778l-.0098-.2935-.0276-.282-.019-.1334-.0282-.1418-.0288-.1328-.0288-.1305-.0478-.1327-.0374-.122-.0466-.1237-.0581-.1333-.0547-.1214-.057-.1145-.0662-.1201-.0759-.1146-.1502-.2268-.1606-.2068-.1791-.1995-.1887-.1783-.1974-.17947-.2078-.15155-.2262-.14196-.2353-.13271-.247-.11342-.2538-.10311-.255-.08436-.2647-.06613-.2745-.05644-.2809-.04089-.2826-.02685h-.2843l-.3395.008-.3298.01885-.16.01928-.1515.03023-.1605.02791-.141.02844-.1508.03707-.1415.04791-.1428.04613-.1398.04792-.1336.05519-.1422.05636-.1202.06667-.1336.06622-.2446.14124-.228.16187-.1035.08489-.1042.08491-.103.0951-.0949.0923-.0933.0952-.0944.1037-.0858.1048-.0736.1031-.0857.106-.0674.1118-.0742.1145-.0656.1219-.1145.245-.1025.2461-.0956.2645-.0656.2661-.0563.2729-.0387.273-.0276.2832-.0092.2933h-1.0475V9.12942h-3.482V20.9351h3.482v-4.6837Zm10.803 4.5606v-8.1413l.0086-.2451.0184-.2358.0386-.2262.0563-.2177.0662-.2183.0852-.208.1042-.1982.1111-.1978.1249-.188.1496-.1715.1514-.1698.1704-.1515.1784-.1396.1984-.14311.2085-.12133.2256-.11512.2354-.10426.2365-.08489.2556-.07529.2624-.06498.2641-.04613.2839-.03013.2825-.0296h2.9813v3.25974h-1.962l-.179.0178-.1605.0204-.1422.0291-.1221.037-.1041.0485-.0944.0547-.0668.0655-.057.0775-.046.0939-.0374.1044-.038.1128-.0282.1316-.0086.1504-.0207.1624v7.1579h-3.6305Zm7.6697-5.2797h4.5364v2.1988h-4.5364v-2.1988Zm15.0658-4.4207v9.7004h-3.5763v-4.6946l-2.2452 3.2598v1.4639h-3.7152V9.28836h3.6329v4.60054l2.1491-3.3345V9.28836h3.7547v1.82324Zm.897-1.82324V20.812h3.6319v-4.5607h1.6791v4.5607H84.8V9.28836h-3.6338v4.03414h-1.6791V9.28836h-3.6319Zm9.935 11.52374v-7.7636l.0089-.2929.0187-.2746.0373-.2729.0569-.2541.0747-.256.0844-.245.104-.2267.1262-.2262.1289-.2092.144-.2073.168-.1807.1689-.1795.1885-.1595.2088-.15163.216-.14125.2285-.12364.2427-.11289.2577-.10249.2729-.07582.2827-.07805.2915-.04444.312-.0376.3209-.028h.4996l.3013.00862.2934.01938.2835.0456.2729.05698.1316.03929.1324.03706.1227.04614.1235.04613.1227.05813.1218.05698.1209.06498.1155.06604.216.14187.208.15051.1982.1521.1778.1715.1618.18.1484.1863.1431.1995.1254.2068.112.2092.0933.2068.0765.2074.0657.2177.0578.2182.0373.2086.0169.2165.0098.2148-.0098.1425-.008.1338-.0089.1408-.0293.1333-.0284.1208-.0276.1334-.0382.1219-.0453.114-.0569.1133-.0587.1134-.0649.1032-.0764.0968-.0747.0923-.0862.0935-.0827.0866-.1075.0752.1262.0661.112.0764.1129.0752.104.0855.1049.094.1031.1031.0933.1043.0933.1134.0863.1236.0853.1226.0755.1321.0747.1209.0658.1333.0569.1435.056.1414.048.1413.0382.1401.0364.1413.0276.1448.0302.1401.0169.1425.0213.1402.008.1322v.143l-.008.2142-.0088.2109-.0294.2056-.048.1989-.0462.208-.0569.1909-.0755.1977-.0836.1875-.0951.1789-.104.1715-.1147.1698-.1298.1504-.1324.1528-.152.131-.1582.1328-.1725.123-.1697.114-.1885.0935-.1875.0757-.208.0656-.1983.0558-.216.0285-.2186.0291-.2338.0091h-2.0196v-2.9465l.1511-.0102.1405-.008.1413-.0188.1227-.0291.1147-.0273.1031-.0411.0933-.0553.0862-.0466.0738-.065.0676-.0575.056-.0655.048-.0673.0373-.0644.0275-.0787.0089-.0723.0098-.0775-.0098-.0854-.0089-.0833-.0275-.0854-.0373-.0861-.048-.0837-.056-.0752-.0676-.077-.0738-.0735-.0862-.0781-.0933-.0655-.096-.0484-.104-.0445-.1014-.0307-.1137-.0262-.1138-.0091-.1227-.0114h-.1218v-2.4171h.0854l.0746-.0097.0649-.0183.0667-.0279.0667-.0302.0568-.0371.0569-.0478.0569-.0467.0445-.0564.0391-.0564.0382-.0655.0267-.0576.0222-.0666.016-.0656.0089-.0661v-.1418l-.0089-.0565-.016-.0678-.0125-.0553-.0284-.0667-.0267-.0552-.0275-.057-.0391-.0569-.0463-.0565-.0471-.037-.0489-.0393-.0568-.037-.0472-.0188-.0648-.0194-.0667-.0102h-.168l-.0942.0199-.0871.0182-.0632.0388-.0711.0478-.0542.0553-.04.0684-.0267.0723-.0266.0952-.0196.1031-.0195.1345-.0098.1402-.0187.3407-.0098.4165v6.9881h-3.6302Zm15.6688-.0001h2.03v-3.0809h-1.946l-.167-.0171-.161-.0382-.152-.0466-.141-.0571-.142-.0758-.132-.0855-.132-.1014-.111-.1042-.106-.1037-.095-.1146-.084-.1133-.066-.1237-.0558-.1105-.0586-.1243-.0276-.1225h3.577v-2.6923h-3.577l.0098-.0764.0178-.0735.0302-.0854.0284-.0678.0378-.0747.046-.0667.038-.0757.056-.0656.057-.057.057-.065.067-.0575.074-.0563.152-.1135.178-.1048.191-.0945.187-.0747.199-.0656.197-.0557.19-.0485.207-.0285.198-.0199h1.359V9.28836h-1.775l-.338.01022-.331.01938-.311.03813-.311.05529-.303.06604-.2924.08551-.2845.10489-.2622.12134-.264.12311-.2453.14293-.2472.15-.2257.1691-.2169.1721-.2071.1892-.1974.1966-.1911.208-.1778.217-.1591.2166-.1493.2285-.1431.2347-.1316.2462-.1244.2461-.1031.2628-.1022.2563-.0872.2741-.0764.2639-.0542.266-.0578.2718-.0391.2753-.0267.2723-.0186.2764-.0089.2723.0089.1783v.1813l.0186.1783.008.1801.0285.1789.0293.1703.0276.1796.0391.1721.0364.1692.048.1681.0462.1698.0578.1629.056.1681.0667.159.0755.163.0658.159.0862.1526.0845.1619.0835.1396.0943.151.0968.1435.1014.1317.1155.1413.1111.1316.1129.1225.1236.122.1315.1248.1316.1111.1333.1145.1396.1037.1511.1048.1529.1031.1582.0946.1627.0952.1582.0747.1716.086.1697.0655.1787.0673.1787.0575.1786.0542.1907.0467.197.0381.19.0291.199.0262.206.0319.208.0086.206.0091.217.0091Zm10.492 0h-1.924l-.218-.0091-.217-.0091-.206-.0086-.207-.0319-.2-.0262-.198-.0291-.199-.0479-.186-.0455-.191-.0456-.177-.0678-.18-.0644-.179-.0678-.169-.085-.171-.0842-.17-.0946-.16-.0957-.151-.1049-.153-.1031-.149-.1135-.141-.1138-.145-.1203-.13-.1242-.124-.1225-.121-.1328-.113-.1311-.113-.1429-.114-.142-.104-.1395-.094-.1533-.095-.151-.084-.1607-.085-.1612-.075-.1687-.076-.1607-.064-.1698-.069-.1607-.057-.1697-.056-.1711-.045-.1703-.04-.1693-.037-.1778-.038-.1698-.029-.1805-.016-.1704-.02-.1784-.009-.1811-.011-.1801v-.4508l.02-.2757.027-.265.046-.2717.049-.2645.066-.266.075-.2638.086-.265.093-.2547.114-.2541.123-.2371.132-.2461.14-.2246.162-.2279.168-.2262.181-.2091.188-.2068.199-.1995.216-.1783.227-.1801.235-.1607.256-.1396.256-.14242.272-.12365.284-.11342.29-.10418.304-.07591.3-.07458.322-.04675.33-.03813.332-.01938.338-.01022h1.679v3.38234h-1.604l-.181.0182-.169.0302-.16.0365-.149.0456-.151.0688-.151.065-.134.085-.132.0866-.124.1031-.111.1043-.113.102-.096.123-.094.1231-.073.1334-.077.1316-.065.1413-.058.1413-.048.151-.036.143-.029.1504-.019.1431-.01.151-.009.1504.009.1602.01.1606.028.1515.028.1493.04.1528.055.1498.058.1516.064.1413.076.1418.084.1329.094.1316.103.1236.114.1133.123.1049.135.1026.143.0844.14.0865.15.0735.161.0576.168.057.171.0388.169.0273.189.0182h1.481v3.2023Zm2.763-8.2639v8.2639h3.596v-8.2639h1.934V9.28836h-7.464v3.25974h1.934Zm14.115 1.2759.122.0747.123.0752.106.086.111.0934.105.1049.104.1025.091.1141.088.123.094.1322.075.1316.076.1333.074.1402.066.151.058.1527.047.1499.056.1618.038.151.037.1584.029.1635.029.1591.019.16.018.1619v.1612l.009.1573-.009.2467-.018.2473-.029.2359-.038.2268-.047.2251-.066.2267-.075.2182-.086.2165-.092.2172-.107.1971-.112.191-.134.1788-.131.1698-.151.1619-.159.1509-.17.1316-.169.1328-.189.1032-.189.0946-.197.0751-.208.0663-.208.0375-.227.0296-.228.0086h-6.168v-7.7636l.01-.2935.019-.2729.037-.274.054-.2548.078-.2558.086-.245.103-.2268.113-.2256.142-.2092.14-.208.161-.1794.18-.1795.188-.1612.208-.15053.216-.14125.226-.12364.246-.11227.255-.10258.273-.07582.283-.07795.293-.04569.311-.03698.321-.028h4.568v2.85251h-4.237l-.104.0074-.095.0188-.075.0382-.075.0467-.066.0575-.047.0656-.048.0854-.028.1043-.029.1117-.019.1328-.018.1413-.009.1698-.029.3795v4.2678h.67l.142-.0109.133-.0159.121-.0199.113-.0285.104-.0365.094-.0393.094-.0552.077-.0485.066-.0553.056-.057.048-.0564.037-.065.018-.0677.018-.0684.013-.0649-.013-.0924-.036-.0969-.046-.0946-.067-.0922-.084-.0941-.105-.0946-.115-.0763-.123-.0655-.14-.057-.13-.0479-.154-.0182-.149-.0108h-.123v-2.4171l.434-.1613.633-.0952.95.0952 1.464.2849Zm2.642-.3795v7.3675h3.631v-7.7054l.011-.0866.018-.0849.03-.0747.027-.0683.039-.065.046-.0667.058-.045.057-.0495.064-.0445.057-.0404.067-.0279.073-.0183.077-.0188.067-.008h.16l.084.008.064.0188.078.0183.066.0279.064.0404.058.0445.057.0495.058.045.036.0667.038.065.037.0683.02.0747.02.0849.009.0866v1.245h-1.022v3.106h1.022v3.3544h3.64v-7.2348l-.009-.2922-.018-.2844-.029-.2735-.038-.2541-.046-.2558-.067-.2451-.075-.2262-.085-.2279-.093-.2068-.105-.1996-.104-.197-.121-.179-.125-.1715-.141-.1613-.142-.1509-.15-.1403-.161-.13329-.161-.13102-.168-.11449-.171-.10204-.179-.09627-.186-.08489-.191-.08489-.189-.06604-.197-.05707-.2-.05467-.207-.04728-.198-.03823-.208-.03066-.216-.01832-.207-.00853h-.387l-.162.00853-.158.00916-.161.02044-.161.01938-.151.02854-.151.02737-.15.03876-.141.04551-.153.03653-.141.05974-.133.05644-.142.05529-.131.06667-.131.07635-.124.0752-.245.16071-.227.17727-.112.0872-.104.1031-.104.0956-.097.1026-.091.1037-.094.1043-.087.102-.076.1145-.084.1231-.075.1134-.066.123-.067.1231-.121.2547-.105.2644-.094.2547-.075.2747-.058.2655-.036.2723-.029.2742v.2826Zm9.736 7.3675V9.28836h3.643v4.03414h1.679V9.28836h3.633V20.812h-3.633v-4.5607h-1.679v4.5607h-3.643Zm9.907-11.52364V20.812h3.631v-4.6946l.199.029.169.028.162.037.15.0279.123.04.114.0455.094.0496.073.0467.07.0553.054.066.046.0868.039.0928.039.1048.018.1128.01.1242.008.1414v3.6068h3.633v-3.9852l-.009-.2741-.029-.2547-.017-.1236-.03-.1146-.027-.1128-.029-.1139-.039-.1009-.046-.0963-.046-.0929-.049-.0855-.054-.0866-.068-.0752-.056-.0752-.076-.0758-.143-.1225-.16-.1133-.16-.1032-.169-.094-.17-.0769-.189-.0662-.187-.0461-.2-.0376.104-.0308.096-.0444.093-.0581.094-.0759.095-.0939.084-.1038.095-.123.085-.1311.074-.1515.086-.1715.075-.1869.085-.1995.075-.2159.069-.2382.072-.2444.07-.2644.855-2.86324h-3.632l-.846 2.86324-.051.2273-.065.2365-.084.245-.096.2462-.055.1213-.048.1049-.055.0832-.057.0667-.058.0563-.057.0474-.055.0193-.058.0086-.038-.0371V9.28836h-3.631Z"/>
</svg>