<svg xmlns="http://www.w3.org/2000/svg" viewBox="0 0 180 32">
	<g fill="#fff">
		<path d="M31.7859 15.7579c0 8.7343-7.1136 15.7579-15.938 15.7579C7.11356 31.5158 0 24.4922 0 15.7579V4.68234c6.12306 0 11.3457 3.78189 13.4167 9.18456.1801-.7203.4502-1.4407.7204-2.161C11.5258 6.66333 6.12306 3.15158 0 3.15158V0c6.66333 0 12.5163 3.33167 15.938 8.46423C19.3597 3.33167 25.1226 0 31.7859 0v1.62081c-6.3932 0-11.8859 3.33167-14.9475 8.37419.6303 1.2606 1.1706 2.5213 1.6208 3.962 2.0711-5.40272 7.2937-9.18461 13.4167-9.18461v1.53076c-7.0235 0-12.6963 5.67285-12.6963 12.60635H15.938c0-1.8009-.2702-3.4218-.8104-5.0426-.4503 1.6208-.7204 3.3317-.7204 5.0426h-3.2416c0-4.9525-3.33168-9.18464-7.92398-10.53531v7.38371c0 6.9334 5.67284 12.6063 12.69638 12.6063 7.0235 0 12.6963-5.6729 12.6963-12.6063h3.1516ZM52.2262 8.5542l-7.1135 9.0045V9.90488c0-.54027.09-.9905.18-1.35068.0901-.36018.3602-.72036.9005-.90045h-3.4217c.3602.27014.6303.54027.8104.81041.1801.27013.1801.8104.1801 1.44072V20.9804c.6303-.1801 1.1706-.4502 1.4407-.7203.3602-.2702.7204-.6304 1.0805-1.0806l6.9335-8.8244v7.7439c0 .6303-.09 1.1706-.1801 1.4407-.09.1801-.1801.2701-.2701.4502-.1801.1801-.2702.2702-.5403.4502v.0901h3.4217v-.0901c-.4502-.18-.7203-.5402-.8104-.8104-.1801-.3601-.1801-.8104-.1801-1.4407V9.90488c0-.72036.0901-1.17059.2702-1.44072.1801-.27014.4502-.54027.8104-.72036h-2.8815c-.09 0-.2701.27013-.6303.8104Zm10.1751 2.8814c.2701.0901.4502.2702.5403.5403.09.2701.09.6303.09.9905v2.071h-3.7819v-1.8909c0-.4502 0-.8104.0901-1.0805.09-.2702.2701-.4503.4502-.5403v-.0901h-3.0615v.0901c.3601.1801.6303.6303.6303 1.3507v6.3031c0 .7204-.1801 1.1706-.6303 1.2606v.0901H59.88v-.0901c-.3601-.09-.6303-.5402-.6303-1.2606V16.118h3.7819v3.0615c0 .7204-.1801 1.1706-.6303 1.2606v.0901h3.2416v-.0901c-.3602-.09-.6303-.5402-.6303-1.2606v-6.123c0-.4503 0-.8105.0901-1.0806.09-.2701.2701-.3602.4502-.4502v-.0901h-3.1516Zm11.7959 1.6209v-1.8009l-2.6113.09h-2.6113l-2.6113-.09v1.8009c.09-.0901.1801-.2702.2701-.2702.0901-.09.2701-.1801.6303-.2701h1.5308c.4502 0 .6303.1801.6303.6303v5.6728c0 .3602 0 .6304-.09.9005-.0901.2701-.2702.4502-.6303.6303v.09h3.2416v-.09c-.2702-.1801-.5403-.3602-.6303-.6303-.0901-.2701-.1801-.5403-.1801-.9005v-5.6728c0-.3602.1801-.6303.6303-.6303h1.4407c.2701.09.5403.1801.6303.2701.1801.0901.2702.1801.3602.2702Zm7.2936 6.033c-.2701.09-.6303.1801-.9004.1801-.2701.09-.5403.09-.8104.09h-.4502c-1.1706-.09-1.981-.5403-2.6113-1.2606-.5403-.7204-.8104-1.5308-.8104-2.4312h7.1135v-.0901c0-.9004-.1801-1.6208-.5403-2.2511-.3601-.6303-.9004-1.1706-1.6208-1.5308-.6303-.3602-1.4407-.5402-2.2511-.5402-1.5308 0-2.7914.4502-3.6018 1.4407-.9004.9004-1.2606 1.981-1.2606 3.1516v.09c0 1.5308.5402 2.7013 1.7108 3.5118 1.0806.9004 2.4312 1.2606 3.962 1.2606.9005 0 1.8009-.1801 2.7014-.5403l.9905-1.8009c-.5403.3602-1.0806.5403-1.6209.7204Zm-4.5923-6.1231c.5403-.3602 1.0806-.5403 1.7109-.5403.3602 0 .6303.0901.9005.0901.2701.09.5402.1801.8104.3602.2701.1801.4502.3601.5402.6303.1801.2701.1801.5402.1801.8104h-5.0425c.09-.4502.3602-.9905.9004-1.3507Zm16.7484.7204c-.3602-.8104-.9004-1.3507-1.5307-1.8009l-1.0806-.5403c-.3602-.09-.7203-.1801-1.1706-.1801h-.1801c-.6303 0-1.1705.0901-1.7108.3602-.6303.2701-1.0806.6303-1.4407 1.0805v-1.3506c-.0901.09-.2702.18-.4503.18-.1801.0901-.4502.0901-.8104.0901h-1.1705v.09c.5402.2702.7203.8104.7203 1.7109v9.6348c0 .7204-.2701 1.1706-.7203 1.4407v.0901h3.2416v-.1801c-.3602-.1801-.5403-.4502-.6303-.7204-.0901-.2701-.0901-.7203-.0901-1.4407v-7.2036c0-.6303.2701-1.1706.7204-1.6208.4502-.5403 1.1706-.8104 1.981-.8104.9905 0 1.7108.3602 2.2511 1.1706.4502.6303.7203 1.4407.7203 2.2511v.6303c-.09.9005-.4502 1.6208-.9904 2.071-.2702.2702-.6304.4503-.9005.5403-.3602.0901-.7204.1801-1.1706.1801-.4502 0-.8104-.09-1.1706-.1801-.3601-.09-.6303-.2701-.9905-.4502l.9905 1.6208c.5403.1801.9905.2701 1.5308.2701 1.1706 0 2.2511-.3601 3.1516-1.2606.9004-.8104 1.3506-1.8009 1.4407-3.0615v-.5403c0-.4502 0-.8104-.0901-1.1706-.18-.2701-.2701-.6303-.4502-.9004Zm9.7251 5.4027v-6.033c0-.4503.09-.8105.18-1.0806s.27-.3602.45-.5403h-8.8243c.3602.1801.6303.6304.6303 1.3507v6.2131c0 .7204-.1801 1.1706-.6303 1.2607v.09h3.0615v-.09c-.3602-.0901-.5403-.5403-.5403-1.2607v-6.6633h3.9621v6.6633c0 .7204-.18 1.1706-.63 1.2607v.09h2.971v-.09c-.45 0-.63-.4503-.63-1.1706Zm11.255-5.4027c-.36-.8104-.9-1.3507-1.53-1.8009l-1.081-.5403c-.36-.09-.72-.1801-1.17-.1801h-.181c-.63 0-1.17.0901-1.71.3602-.631.2701-1.081.6303-1.441 1.0805v-1.3506c-.09.09-.27.18-.45.18-.18.0901-.451.0901-.811.0901h-1.17v.09c.54.2702.72.8104.72 1.7109v9.6348c0 .7204-.27 1.1706-.72 1.4407v.0901h3.241v-.1801c-.36-.1801-.54-.4502-.63-.7204-.09-.2701-.09-.7203-.09-1.4407v-7.2036c0-.6303.27-1.1706.72-1.6208.45-.5403 1.171-.8104 1.981-.8104.991 0 1.711.3602 2.251 1.1706.451.6303.721 1.4407.721 2.2511v.6303c-.09.9005-.45 1.6208-.991 2.071-.27.2702-.63.4503-.9.5403-.36.0901-.721.1801-1.171.1801-.45 0-.81-.09-1.17-.1801-.361-.09-.631-.2701-.991-.4502l.991 1.6208c.54.1801.99.2701 1.53.2701 1.171 0 2.252-.3601 3.152-1.2606.9-.8104 1.351-1.8009 1.441-3.0615v-.5403c0-.4502 0-.8104-.09-1.1706-.18-.2701-.27-.6303-.451-.9004Zm6.754-2.4312h-.18c-1.621 0-2.882.5402-3.872 1.5307-.901.9005-1.261 1.981-1.261 3.2416v.0901c0 1.2606.45 2.3412 1.351 3.2416.9.9005 2.161 1.3507 3.602 1.3507 1.35 0 2.521-.4502 3.511-1.4407.991-.9905 1.531-2.0711 1.531-3.3317 0-1.3507-.45-2.4312-1.441-3.3317-.9-.9905-1.981-1.3506-3.241-1.3506Zm1.981 7.2036c-.54.6303-1.261.9905-2.161.9905h-.18c-.811 0-1.531-.3602-2.071-1.0806-.541-.7203-.811-1.6208-.811-2.6113 0-1.0805.27-1.8909.901-2.4312.54-.5403 1.17-.7204 1.981-.7204.9 0 1.62.3602 2.251 1.0806.54.7203.81 1.5307.81 2.5212 0 .9005-.18 1.6208-.72 2.2512Zm16.748 1.4407c-.09-.1801-.18-.4502-.27-.9005l-.99-6.4832v-.2702c0-.4502.18-.7203.45-.8104h-2.702c0 .2702-.09.5403-.18.7204l-2.611 5.8529-2.971-6.033c-.091-.1801-.181-.3602-.181-.5403h-2.701c.36.1801.54.3602.54.7204v.6303l-.9 5.7629c-.18.9005-.45 1.4407-.811 1.7109v.09h2.522v-.09c-.36-.1801-.541-.4503-.541-.9005v-.3602l.901-6.2131 3.061 6.3932c.181.3602.361.6303.541.9005.18.1801.45.3601.72.6303l3.512-7.8339.81 6.2131v.6303c0 .4502-.18.7203-.63.8104v.09h3.061c-.36-.3601-.54-.5402-.63-.7203Zm8.735-8.014c-.631-.4503-1.351-.6303-2.162-.6303-.36 0-.9.09-1.44.18l-.991 1.7109c.36-.2701.901-.4502 1.621-.4502.81 0 1.441.2701 1.981.7203.27.2702.54.5403.63.9905.18.3602.18.8104.18 1.3507v.2701c0 1.0806-.27 1.891-.9 2.4313-.63.6303-1.531.9004-2.521.9004-.451-.09-.991-.1801-1.621-.2701V10.085c0-.99053.9-1.5308 2.791-1.5308h.541c.36 0 .81.09005 1.17.27014l1.351-1.53077-.901-.09004c-.36-.09005-.54-.09005-.63-.09005l-.63-.09004h-.901c-1.35 0-2.431.27013-3.241.90045-.811.63031-1.261 1.35067-1.261 2.16111v8.9144c0 .6303-.18.9905-.54 1.1706l.99.1801c.541.09.901.1801.991.1801h.45c.09 0 .36 0 .81.09h.361c.54 0 1.08-.09 1.62-.1801.541-.09.991-.2701 1.351-.4502.81-.3602 1.531-.9004 1.981-1.6208.27-.3602.45-.7203.54-1.1706.09-.3602.18-.8104.18-1.2606v-.2701c0-.8104-.18-1.5308-.45-2.1611-.27-.6303-.72-1.1706-1.35-1.6208Zm10.535 7.0235c-.27-.2702-.36-.7204-.36-1.2606V14.227c0-.9905-.361-1.7108-1.081-2.2511-.72-.4502-1.621-.7203-2.701-.7203h-1.351l-1.261 1.9809c.991-.5402 1.891-.7203 2.612-.7203.45 0 .9.09 1.26.2701.361.1801.631.5403.631.9005 0 .1801 0 .3602-.09.4502-.09.1801-.18.2701-.271.3602-.27.1801-.54.2701-.9.3602-.27.09-.81.18-1.441.3601-.63.1801-1.08.2702-1.35.3602-1.171.5403-1.711 1.2606-1.711 2.2511v.1801c0 .7204.27 1.3507.9 1.891.631.5402 1.441.8104 2.431.8104h.451c.18 0 .36 0 .54-.0901l1.171-1.4407c-.361.0901-.631.1801-.811.1801-.18 0-.45.0901-.63.0901-.27 0-.54 0-.811-.0901-.27-.09-.45-.1801-.63-.3602-.36-.2701-.54-.6303-.54-1.1706 0-.5402.18-.9004.54-1.0805.36-.1801.901-.3602 1.711-.5403.81-.1801 1.351-.3602 1.711-.5402v3.0615c0 .6303.18 1.1706.63 1.4407.36.3602 1.081.5403 1.891.6303l.901-1.3506c-.271 0-.541 0-.811-.0901-.36-.2701-.54-.3602-.63-.4502Zm7.203-7.4738c.271.0901.451.2702.541.5403.09.2701.09.6303.09.9905v2.071h-3.782v-1.8909c0-.4502 0-.8104.09-1.0805.09-.2702.27-.4503.45-.5403v-.0901h-3.151v.0901c.36.1801.63.6303.63 1.3507v6.3031c0 .7204-.18 1.1706-.63 1.2606v.0901h3.151v-.0901c-.36-.09-.63-.5402-.63-1.2606V16.118h3.782v3.0615c0 .7204-.18 1.1706-.631 1.2606v.0901h3.242v-.0901c-.36-.09-.63-.5402-.63-1.2606v-6.123c0-.4503.09-.8105.09-1.0806.09-.2701.27-.3602.45-.4502v-.0901h-3.062Zm12.697 8.2842c-.27-.2701-.45-.4502-.631-.7204l-.54-.6303-2.521-3.1516 3.242-3.7819h-2.972v.0901c.27.09.36.2701.36.5403 0 .2701-.27.7203-.72 1.2606l-1.891 2.071 2.701 3.6919c.18.1801.27.3602.36.5402.09.1801.181.2702.271.2702.09.09.27.2701.54.3602.27.09.63.18.99.18H180c-.27-.2701-.54-.4502-.72-.7203Z"/>
		<path d="M173.427 19.6302c-.09-.18-.09-.5402-.09-.9904V11.166c-.09.0901-.181.1801-.271.1801-.09 0-.18.0901-.18.0901h-1.801c.361.18.541.3601.631.6303 0 .1801.09.3601.09.5402v5.4928c0 .8104 0 1.2606-.09 1.5307-.09.1801-.27.4503-.631.6304v.09h3.242v-.09c-.63-.0901-.81-.3602-.9-.6304Z"/>
	</g>
</svg>