<svg xmlns="http://www.w3.org/2000/svg" viewBox="0 0 160 32">
	<path fill="#fff" d="M16.3112 7.12854 26.7615 24.4636c-3.3355-.5803-7.0553-1.0835-10.5785-1.0835-3.5233 0-7.05533.5032-10.57861 1.0835L16.3112 7.12854Zm0-6.62854 16.0553 26.0025-3.4381-1.0238L16.3112 4.57794 3.43811 25.4787 0 26.5025 16.3112.5ZM0 31.0837c8.99164-4.4617 24.1342-4.1803 32.3665 0v-3.8219c-9.7082-3.566-23.23823-3.4381-32.3665 0v3.8219ZM64.0524 10.7105h.8414l.0005-2.53079h-.5803V2.43012h-6.9582v4.18692c0 .3856-.0692.68861-.2122.92696-.135.23806-.3388.44615-.6226.63571h-.4195v2.53079h.8244V8.97883h7.1265v1.73167Zm11.9931-1.71492h3.0201c.9049 0 1.5665-.15753 1.9649-.46789.4046-.30771.6097-.7903.6097-1.43336V7.0191h-.8586v.07523c0 .38678-.123.65923-.3768.83351-.2588.1781-.7066.26863-1.3308.26863h-3.0198c-.3764 0-.6872-.03263-.9304-.09758-.2001-.0532-.3546-.12844-.4621-.22513-.2431-.2119-.3665-.62924-.3665-1.23997V4.76546c0-.11962.0042-.2316.0126-.33622.0116-.14402.0313-.27363.0592-.38913.0603-.24952.1587-.43439.2966-.559.2404-.22454.7084-.33828 1.3906-.33828h3.0198c.6309 0 1.0921.10404 1.3697.30801.2275.17928.3382.44144.3382.80264v.07524h.8586v-.07524c0-1.26113-.8664-1.90066-2.5749-1.90066h-3.0201c-.9437 0-1.6022.18222-2.0134.55783-.4009.37413-.604.99838-.604 1.8551v1.86833c0 .87495.1953 1.47392.5968 1.83072.3963.35239 1.0761.53078 2.0206.53078Zm82.8805-.01704h.867V2.41278h-1.49L152.9 8.27229V2.41278h-.867v6.56576h1.277l5.459-5.91183h.157v5.91183Zm-8.847 0h.868V2.4213h-.868v6.55724Zm-8.258 0h4.998c.819 0 1.385-.14578 1.731-.44526.334-.29773.503-.80147.503-1.49802 0-.71594-.197-1.22968-.584-1.52711-.38-.29185-1.004-.43351-1.906-.43351h-3.874V2.41278h-.868v6.56576Zm-1.885 0h.867V2.41278h-.867v2.78119h-5.966V2.41278h-.868v6.56576h.868v-2.969h5.966v2.969Zm-15.015 0h4.998c.811 0 1.391-.14989 1.721-.44468.339-.29449.504-.78442.504-1.4986 0-.73035-.188-1.22968-.576-1.5277-.388-.29126-1.014-.43292-1.913-.43292h-3.866V2.41278h-.868v6.56576Zm-1.885 0h.867V2.41278h-7.206V7.385c0 .2989-.075.51227-.23.65129-.11.09552-.263.14372-.454.14372h-.459v.79882h.365c.13 0 .251-.00676.365-.02057.12-.0144.231-.03615.333-.06554.048-.01382.095-.02939.139-.04673.048-.01881.095-.03968.138-.0626.025-.01323.05-.02704.073-.04144.055-.03439.106-.0723.153-.11374.295-.25041.444-.66863.444-1.24321V3.22894h5.472v5.7496Zm-8.603 0h1.009l-3.659-6.56576h-1.18l-3.658 6.56576h.966l.887-1.60382h4.756l.879 1.60382Zm-8.826 0h.867V2.41278h-1.49l-5.4032 5.85981V2.41278h-.8671v6.56576h1.2686l5.4687-5.91183h.156v5.91183Zm-14.9802 0h.867l-.0003-2.65305h3.8662c.9213 0 1.5496-.12403 1.9197-.38002.378-.26128.5701-.75826.5701-1.47803 0-.74151-.1933-1.25995-.5918-1.58589-.3906-.31095-1.0322-.46877-1.9066-.46877h-4.7243v6.56576Zm-4.9568 0h.867V3.2116h3.3699v-.79882h-7.581v.79882H85.67v5.76694Zm-18.5208 0h.3142c.5838 0 1.0356-.12021 1.3408-.35533.3087-.22307.7112-.72094 1.2303-1.52182l3.0354-4.68861h-1.0325l-2.8275 4.4432-3.0463-4.4432h-1.0114l3.5593 5.10066c-.1887.27744-.3518.45937-.4854.54078-.0179.01087-.0379.02116-.0598.03056-.0482.02087-.1061.0385-.1736.05261-.1355.02822-.3094.04232-.5208.04232h-.3227v.79883Zm-12.771 0h.8671V2.41278h-.8671v2.78119h-5.9661V2.41278h-.8671v6.56576h.8671v-2.969h5.9661v2.969Zm-8.8125 0h.8586l-.0006-6.56576H44.942l-5.4111 5.85981V2.41278h-.867v6.56576h1.277l5.4598-5.91183h.165v5.91183Zm101.2703-.79883h-4.148V5.86465h4.08c.534 0 .921.08846 1.118.25423.202.17663.299.48493.299.94166 0 .44467-.096.74298-.289.88934-.182.15254-.539.22983-1.06.22983Zm-16.9 0h-4.147V5.86494h4.079c.536 0 .91.08612 1.112.25511.2.16929.297.47671.297.94049 0 .44291-.094.74151-.279.88817-.025.01998-.053.03879-.083.05613-.021.01205-.043.02351-.066.03439l-.032.01411-.027.01028c-.029.01117-.059.02146-.092.03116-.028.00852-.059.01616-.09.02351-.18.04114-.403.06142-.672.06142Zm-66.489 0h-5.8278c.1835-.16693.3271-.39.4279-.6651.029-.07435.0542-.15165.076-.23218l.0173-.06789c.0081-.0338.0156-.06848.0225-.10345.0403-.20368.0601-.42675.0601-.67333V3.22894h5.224v4.95077Zm47.738-5.07538 1.92 3.47156h-3.84l1.92-3.47156ZM95.5733 5.53489h-4.0795l.0003-2.32329h4.1474c.4942 0 .8382.0914 1.0487.27744.1995.19222.3009.52109.3009.97811 0 .31242-.0502.55106-.1499.71359-.0167.02733-.0348.05232-.0543.07524-.0294.03439-.0619.06407-.0976.08876-.1192.0867-.41.19015-1.116.19015Zm59.6997-3.19324h.802c.669 0 1.189-.13725 1.548-.40823.393-.3036.592-.70536.592-1.194119V.664062h-.867v.075239c0 .197208-.064.367969-.195.521089-.228.25305-.583.37619-1.087.37619h-.784c-.27 0-.499-.03468-.687-.10345-.075-.02733-.143-.05996-.204-.09816-.054-.03321-.102-.07054-.145-.11227-.018-.01676-.034-.0341-.05-.05232-.137-.16135-.204-.334752-.204-.531079V.664062h-.867v.075239c0 .352979.127.676859.377.963119.38.4241.976.63923 1.771.63923Zm3.159 28.58755h1.485l-5.169-3.5586L160 24.3631h-1.505l-4.658 2.6534h-1.048v-2.6534h-.859v6.5661h.859v-3.1224h1.079l4.564 3.1224Zm-37.649 0h.859v-6.5661h-.859v2.7812h-5.923v-2.7812h-.859v6.5661h.859v-2.969h5.923v2.969Zm-37.7698 0h1l-3.6319-6.5661H79.209l-3.6323 6.5661h.9655l.8789-1.6039h4.722l.8701 1.6039Zm-44.3064 0h4.9549c.8057 0 1.3823-.1499 1.7134-.4459.3328-.2968.4943-.7838.4943-1.4895 0-.7359-.1881-1.2382-.5747-1.535-.3666-.2881-1.0022-.4341-1.8892-.4341h-3.8404v-1.8625h5.7245v-.7991h-6.5828v6.5661Zm4.972-.7989h-4.1134v-2.3065h4.0451c.2835 0 .5208.0226.7107.0673.1735.0411.3072.1008.3998.1787.1953.1713.2901.4793.2901.9414 0 .4485-.0938.75-.2786.8964-.1866.1478-.5408.2227-1.0537.2227Zm34.2084-1.6041 1.9033-3.471 1.9032 3.471h-3.8065Zm-36.7931-8.517h2.9944c.884 0 1.5304-.1545 1.9226-.4587.3874-.3016.5838-.7668.5838-1.3822v-.0327h-.7728v.0327c0 .397-.1303.6865-.387.8605-.266.1828-.7163.2757-1.338.2757h-2.9859c-.7008 0-1.1626-.1088-1.4118-.3333-.2564-.2234-.3813-.6369-.3813-1.2638v-1.8427c0-.6408.1286-1.0775.3822-1.2985.246-.2295.7076-.3409 1.4109-.3409h2.9859c.6445 0 1.1086.1037 1.3795.3089.229.1719.3452.4476.3452.8185v.0326h.7728v-.0326c0-1.2162-.8433-1.8325-2.5064-1.8325h-2.9944c-.908 0-1.5671.1807-1.9587.5375-.3917.366-.5904.974-.5904 1.807v1.8427c0 .8473.1962 1.4469.5823 1.7814.3798.3453 1.0416.5204 1.9671.5204Zm117.8829-.0173h.773v-6.4117h-1.412l-5.4 5.8521h-.013v-5.8521h-.773v6.4117h1.198l5.409-5.8519h.218v5.8519Zm-9.333 0h.774v-6.4032h-.774v6.4032Zm-8.173 0h4.904c.798 0 1.362-.1461 1.676-.4341.325-.2807.489-.7653.489-1.4407 0-.703-.188-1.2023-.558-1.4845-.373-.2862-.982-.425-1.863-.425h-3.875v-2.6274h-.773v6.4117Zm-2.439 0h.773v-6.4117h-.773v2.7468h-5.992v-2.7468h-.773v6.4117h.773v-2.9428h5.992v2.9428Zm-15.442 0h4.896c.794 0 1.362-.1461 1.685-.4341.318-.2757.48-.7603.48-1.4407 0-.7071-.185-1.2065-.55-1.4845-.373-.2862-.985-.425-1.871-.425h-3.867v-2.6274h-.773v6.4117Zm-2.439 0h.773v-6.4117h-7.052v4.8775c0 .3039-.082.5282-.245.6672-.114.1061-.281.1619-.482.1619h-.399v.7048h.314c.521 0 .913-.1146 1.165-.3406.278-.244.42-.6454.42-1.193v-4.156h5.506v5.6899Zm-14.887 0h6.114v-.7045h-5.34V17.032h5.203v-.7047h-5.203v-2.0424h5.323v-.7047h-6.097v6.4117Zm-5.46 0h.774v-5.707h3.335v-.7047h-7.4187v.7047h3.3097v5.707Zm-5.037 0h.902l-3.5765-6.4117h-1.1217l-3.5678 6.4117h.8592l.8704-1.5953h4.7642l.8702 1.5953Zm-14.4048 0h.7728l.0003-5.707h5.1359v-.7047h-5.909v6.4117Zm-7.951 0h6.1133l.0003-.7045h-5.3404V17.032h5.2038v-.7047h-5.2038v-2.0424h5.3149v-.7047h-6.0881v6.4117Zm-8.5995 0h.7732l-.0003-2.6187h3.8748c.8697 0 1.4988-.1252 1.8698-.3726.366-.2528.5514-.7327.5514-1.426 0-.7151-.1935-1.2318-.5752-1.5354-.3831-.3047-1.0097-.459-1.8629-.459h-4.6308v6.4117Zm-7.8907 0h6.1133l.0003-.7045h-5.3405V17.032h5.2041v-.7047h-5.2041v-2.0424h5.3233v-.7047H56.921v6.4117Zm-8.5995 0h4.9034c.7949 0 1.362-.1461 1.6851-.4338.3187-.2757.4804-.7606.4804-1.4407 0-.7095-.1881-1.2088-.5586-1.4845-.3724-.2863-.9815-.425-1.8623-.425h-3.8748v-1.923h5.7157v-.7047h-6.4889v6.4117Zm98.0705-.7048h-4.148v-2.3747h4.08c.54 0 .921.0894 1.131.2654.207.174.312.4958.312.9561 0 .4611-.101.7682-.303.9131-.201.1593-.562.2401-1.072.2401Zm-17.881 0h-4.148v-2.3747h4.08c.298 0 .547.0273.746.0811.162.0438.29.1052.385.1843.204.1722.304.4849.304.9561 0 .459-.099.7659-.295.9131-.201.1593-.562.2401-1.072.2401Zm-75.2689 0h-4.1477v-2.3747h4.0794c.5387 0 .9327.0917 1.1394.2654.2044.1719.3039.4846.3039.9561 0 .4593-.0989.7662-.2946.9131-.2016.1593-.5649.2401-1.0804.2401Zm41.2526-1.5864h-3.9422l1.9751-3.5604 1.9671 3.5604Zm-24.8304-1.0325h-4.0794l.0003-2.3833h4.1477c.4951 0 .8523.0976 1.0616.2898.1227.1132.2098.2769.2607.4891.0353.1472.0529.3177.0529.5108 0 .4455-.1045.7468-.3104.8949-.1096.0758-.2829.1302-.5177.1628-.1724.0238-.3778.0359-.6157.0359Zm85.6517-3.245h.793c.657 0 1.149-.1305 1.504-.3982.382-.2784.576-.6631.576-1.1439v-.0326h-.773v.0326c0 .1975-.069.38-.205.542-.146.1719-.36.2877-.64.3456-.141.0291-.297.0438-.47.0438h-.776c-.524 0-.887-.1249-1.11-.3809-.139-.1649-.206-.3451-.206-.5508v-.0326h-.773v.0326c0 .3415.12.644.366.9255.363.4153.924.6169 1.714.6169Z"/>
</svg>