<svg xmlns="http://www.w3.org/2000/svg" viewBox="0 0 180 24">
	<path fill="#fff" d="M7.47 1.21875c-4.14 0-7.47 3.33-7.47 7.47v9.81005h4.32V8.68875c0-1.71 1.35-3.15 3.15-3.15 1.71 0 3.15 1.35 3.15 3.15v9.81005h4.32V8.68875c0-4.14-3.33-7.47-7.47-7.47Z"/>
	<path fill="#F39A00" d="M7.46988 15.6191c1.26 0 2.34.99 2.34 2.34 0 1.26-.99 2.34-2.34 2.34-1.26 0-2.34-.99-2.34-2.25 0-1.44 1.08-2.43 2.34-2.43Z"/>
	<path fill="#fff" d="m26.9999 11.84-1.35 2.25V6.53h-2.79v12.06h2.43l3.6-5.4 1.35-2.25-.09 2.79v4.86h2.88V6.53h-2.52l-3.51 5.31Zm16.2-.72h-4.5V6.53h-2.79v12.06h2.79v-5.22h4.5v5.22h2.79V6.53h-2.79v4.59Zm12.87.9c1.17-.36 1.89-1.35 1.89-2.52 0-2.07-1.71-3.15-4.86-3.15-1.35 0-2.79.09-4.23.18v12.06c1.44.09 2.97.18 4.41.18 2.97 0 5.4-1.26 5.4-3.87 0-1.53-1.17-2.7-2.61-2.88Zm-4.41-3.78h1.26c1.44 0 2.16.63 2.16 1.62 0 .99-.54 1.71-1.89 1.71h-1.53V8.24Zm1.8 8.55c-.63 0-1.26 0-1.8-.09v-3.51h1.53c1.71 0 2.52.63 2.52 1.8s-.81 1.8-2.25 1.8Zm12.24-10.62c-3.51 0-5.4 2.43-5.4 6.48 0 4.23 1.8 6.21 5.4 6.21 1.44 0 2.88-.18 4.32-.63l-.27-2.07c-1.17.36-2.34.54-3.6.54-2.16 0-2.97-1.26-2.97-3.51h7.2v-1.35c0-3.6-1.35-5.67-4.68-5.67Zm-2.52 5.04c.09-1.53.72-3.06 2.34-3.06 1.44 0 2.16 1.17 2.07 3.06h-4.41Zm14.67 5.22c-1.89 0-2.7-1.35-2.7-3.96 0-2.43.81-3.96 2.61-3.96.72 0 1.35.18 1.98.45l.63-2.16c-.9-.45-1.8-.63-2.79-.63-3.24 0-5.4 2.25-5.4 6.48 0 3.69 1.62 6.03 5.04 6.03 1.08 0 2.16-.18 3.15-.72l-.45-2.16c-.63.54-1.35.63-2.07.63Zm3.33-7.74h2.61v9.9h2.79v-9.9h2.61V6.53h-8.01v2.16Zm8.64 0h2.61v9.9h2.7v-9.9h2.7V6.53h-8.01v2.16ZM104.13 6.17c-3.69 0-5.6701 2.52-5.6701 6.57 0 3.87 1.8901 6.12 5.4901 6.12 3.69 0 5.67-2.52 5.67-6.48-.09-3.87-1.89-6.21-5.49-6.21Zm-.09 10.44c-1.8 0-2.61-1.53-2.61-4.23 0-2.34.81-3.96 2.52-3.96 1.89 0 2.7 1.53 2.7 4.23 0 2.34-.81 3.96-2.61 3.96Zm13.77-10.44c-1.53 0-2.61.63-3.6 1.89l-.18-1.62h-2.16v16.83h2.79V18.5c.63.18 1.35.18 1.98.18 3.87 0 5.58-2.97 5.58-6.66 0-3.24-1.26-5.85-4.41-5.85Zm-1.26 10.35c-.72 0-1.35-.18-1.98-.45v-5.85c.99-1.35 1.71-1.8 2.61-1.8 1.62 0 2.07 1.8 2.07 3.87 0 2.79-.9 4.23-2.7 4.23Zm8.01 2.07h2.79V8.78h3.69V6.53h-6.48v12.06Zm13.86-12.15c-1.53-.09-2.97.72-3.69 2.07.09-1.8.45-2.97 1.08-3.69.54-.54 1.35-.9 2.7-1.08l2.61-.36c.36-.09.72-.18 1.08-.36V.5c-.36.09-.81.27-1.17.27l-2.61.36c-1.71.27-3.15.81-4.05 1.71-1.53 1.53-2.07 3.87-2.07 8.37 0 5.31 1.8 7.47 5.13 7.47 3.51 0 5.49-2.43 5.49-6.57.09-3.33-1.53-5.67-4.5-5.67Zm-.72 10.17c-2.07 0-2.43-2.34-2.43-4.32 0-2.16.99-3.6 2.52-3.6 1.62 0 2.34 1.62 2.34 3.96-.09 2.52-.9 3.96-2.43 3.96Zm11.79-10.44c-1.35 0-2.79.27-4.05.81l.45 2.07c.99-.45 2.07-.72 3.24-.72 1.71 0 2.25.72 2.25 2.25v.81h-1.35c-3.42 0-5.4 1.17-5.4 3.87 0 2.34 1.53 3.69 3.69 3.69 1.35 0 2.61-.54 3.42-1.53l.18 1.26h2.16V10.4c.09-2.7-1.26-4.23-4.59-4.23Zm1.89 9.27c-.72.72-1.35 1.35-2.34 1.35-1.08 0-1.62-.72-1.62-1.71 0-1.26.81-1.89 2.52-1.89h1.44v2.25Zm12.87-4.32h-4.41V6.53h-2.79v12.06h2.79v-5.22h4.41v5.22h2.88V6.53h-2.88v4.59Zm11.52-.27 3.96-4.41h-3.33c-1.17 1.53-2.34 3.06-3.51 4.41V6.53h-2.79v12.06h2.79v-4.68l.81-.9 3.06 5.67H180l-4.23-7.83Z"/>
</svg>