<svg xmlns="http://www.w3.org/2000/svg" viewBox="0 0 131 32">
	<g fill="#fff">
		<path d="M44.3018 15.4769h4.2846l6.5691-12.93465h.0202c-.153.90099-.2278 1.81377-.2231 2.72779V15.4769h2.9924V0h-4.2846l-6.5508 12.9148h-.0407c.073-.4275.1282-.8576.166-1.2894.0425-.4853.063-.9718.0612-1.4589V0h-2.9943v15.4769Zm3.9561 11.5093h-3.2723v4.4175h3.2865c.4009.0037.7564-.0348 1.067-.1167.3366-.0893.6199-.2296.8501-.4219.4421-.3686.6633-.9153.6633-1.6432.0125-.2978-.0381-.5956-.1486-.8736l-.0307-.0733c-.0192-.0434-.0397-.0856-.0617-.1278-.0292-.0565-.0611-.1111-.0953-.1638-.0868-.1353-.1889-.2606-.3046-.3742-.4276-.4058-1.0788-.613-1.9537-.623ZM48.278 32h-3.9762v-9.9245h6.6137v.605h-5.9299v3.7113h3.2723c1.1293.0105 1.9642.2631 2.5053.7582.5411.4946.8116 1.1765.8116 2.0459.0041.945-.2832 1.6487-.8622 2.111-.5789.4623-1.3906.6931-2.4346.6931Zm10.2531-3.81-2.0285-5.5381-2.039 5.5381h4.0675ZM53.0253 32h-.7567l3.7898-9.9146h.8541L60.7184 32h-.7548l-1.2172-3.2155h-4.504L53.0253 32Zm9.0642 0h.6816v-4.9573h5.8145V32h.6857v-9.9146h-.6857v4.3628h-5.8145v-4.3628h-.6816V32Zm10.4885 0h-.6856v-9.9146h.6856v5.5238l5.6927-5.5238h.9192l-4.1816 4.0321L79.4881 32h-.8743l-4.0883-5.4171L72.578 28.46V32Zm-5.4652-16.5231h-2.9946V2.52178h-4.5747V0h12.1444v2.52178h-4.5751V15.4769Zm9.9326.1874h.0689c1.6863 0 3.0148-.7657 4.2602-3.5543L86.7832 0h-3.5341l-3.0145 7.76948c-.256.72538-.444 1.47248-.5622 2.23202h-.0425c-.0192-.29043-.0524-.57959-.0993-.86627-.0198-.11976-.0416-.23952-.0661-.35803l-.0353-.16506c-.0574-.25565-.1257-.50944-.2048-.75951L76.0964 0h-3.5972l5.3635 11.4063c.1138.2184.1787.4586.1886.7037 0 .7216-.7282 1.0325-1.7688 1.0325-.143.0013-.286-.0037-.4284-.0142-.0975-.0075-.1949-.018-.2917-.0311-.1142-.0155-.2277-.0347-.341-.0577v2.5199c.606.0739 1.2159.1086 1.824.1049ZM94.7481 2.52178h-3.6194v5.34264h3.6194c2.0369 0 2.8079-.47346 2.8079-2.51992 0-2.21772-.7791-2.82272-2.8079-2.82272ZM91.1287 15.4769h-2.994V0h6.6336c3.8016 0 5.8227.848866 5.8227 5.08451 0 4.23564-1.4567 5.31039-5.5525 5.31039h-3.9098v5.082Zm15.4023.1874h.069c1.684 0 3.014-.7657 4.26-3.5543L116.269 0h-3.534l-3.007 7.76948c-.123.34873-.23.70242-.322 1.05984-.098.38658-.178.77751-.239 1.17218h-.047c-.053-.72727-.194-1.44521-.42-2.13894L105.582 0h-3.597l5.364 11.4063c.112.2184.177.4586.188.7037 0 .7216-.729 1.0325-1.768 1.0325-.357.0031-.713-.0316-1.062-.103v2.5199c.606.0739 1.216.1086 1.824.1049Zm14.084-.1874h-2.995V0h13.248v15.4769h-2.997V2.52178h-7.256V15.4769Z"/>
		<path d="M32.0073 4.60685V.242188H0V31.8936h32.0073V16.3057c-1.767-9.07201-9.7378-7.93095-9.7378-7.93095H8.46185V19.2229c.04461.4274.54779 4.1994 4.24005 4.1994l11.1419-.0222v-4.3425H12.8561v-6.3161h9.4864c4.2441-.2944 5.2747 3.5683 5.2747 3.5683v11.2211H4.39221V4.60685H32.0073Z"/>
	</g>
</svg>