<svg xmlns="http://www.w3.org/2000/svg" viewBox="0 0 151 32">
	<path fill="#fff" d="M15.6935 1.12891H6.88705v.7339h2.8226V16.4273c0 4.3468-1.242 5.5887-3.9516 5.5887-1.0162.1129-1.9194-.6209-2.0323-1.6371v-.3387c0-1.5806-.1129-2.5403-1.5242-2.5403-1.411299 0-1.637097 1.4677-1.637097 1.9194 0 2.0322.903197 3.5564 4.911297 3.5564 4.79845 0 7.33875-1.5806 7.33875-6.9435V1.86281H15.75l-.0565-.7339Zm1.1291 18.40319c-.4516 0-.9033.1694-1.242.5081s-.508.7903-.508 1.2419.1693.9033.508 1.1855c.3387.3387.7904.5081 1.242.5081s.9032-.1694 1.2419-.5081.5081-.7339.5081-1.1855c0-.9596-.7339-1.6935-1.6936-1.6935h-.0564v-.0565Zm19.5887.0001c-.9032 0-1.6936.7339-1.75 1.6371v.0564c0 .4516.2258.9033.5645 1.1855.3387.3387.7903.5081 1.2419.5081s.9033-.1694 1.242-.5081c.3387-.2822.508-.7339.508-1.1855s-.1693-.9032-.508-1.2419-.7339-.5081-1.1855-.5081l-.1129.0565ZM30.3145 1.12891H21.621v.7339h2.5403V18.4596c.0564.6774 0 1.3548-.2258 2.0322-.2258.4516-.621.8468-1.0726.9597-.5081.1694-1.0726.2823-1.6371.2823v.6774h9.2016v-.6774c-.621 0-1.1855-.0565-1.75-.2258-.5081-.1694-.9032-.5081-1.0726-.9597-.1693-.4516-.2822-.9032-.2258-1.3549v-5.758h2.3145c6.6613 0 8.5242-2.6532 8.5242-6.20969 0-3.5564-1.1854-6.0968-7.9032-6.0968ZM29.0726 12.5886h-1.75V1.97571h1.5806c5.1371 0 6.379 2.0887 6.379 5.4758 0 3.38709-2.0322 5.24999-6.0967 5.24999l-.1129-.1129Zm36.6371 7.8467c-.1694-.4516-.2258-.9597-.1694-1.4677V1.86271h2.3145v-.6774H62.379L55.7177 17.3869c0 .0565-.0564.1129-.1129.1129-.0564 0-.1129-.0564-.1693-.1129 0 0-6.8871-16.03219-6.9436-16.20159h-6.0968v.6774h2.6533V19.8708c0 .3952-.1694.7339-.3387 1.0726-.2258.3387-.5646.5645-.9597.6774-.3952.1129-.8469.1129-1.2421.1129v.6774h6.0405v-.6774c-.3952 0-.7339-.0564-1.0726-.1693-.4516-.1129-.7903-.3388-1.0726-.6775-.2258-.3387-.3387-.6774-.3952-1.0725l-.0564-1.5242V4.06441h.3387s7.8468 18.12089 7.8468 18.34669h.7338l7.3952-18.17739h.1694V18.8547c0 .508-.0565 1.0161-.1694 1.5242-.1693.4516-.5081.7903-.9032.9597-.5081.1693-1.0161.2822-1.5242.2822v.6774H68.25v-.6774c-.5081 0-1.0726-.1129-1.5807-.2822-.4516-.2259-.7903-.621-.9596-1.0726v.1693ZM77.0564 6.83051c-4.5161 0-7.3387 2.9355-7.3387 8.12899 0 7.621 5.9275 8.0726 7.2258 8.0726 2.5405 0 7.3385-1.5807 7.3385-8.242-.056-5.19349-3.105-7.95959-7.2256-7.95959ZM77 22.0724c-3.3871 0-3.8952-1.6935-3.8952-7.0564 0-4.1775.2823-7.33879 3.8952-7.33879 3.895 0 3.952 3.27419 3.952 6.99999 0 5.4758-.96 7.3952-3.952 7.3952ZM96.024 7.05631c-2.709 0-3.5 1.5806-4.29 3.21769h-.226S91.113 7.95951 91 7.22571h-5.25v.7903h2.823V18.5724c.056.7339-.057 1.4678-.339 2.1452-.282.5081-.96.7903-1.976.7903h-.452v.9597H94.5v-.9597h-.395c-1.129 0-1.637-.2258-1.92-.7339-.282-.6774-.451-1.4677-.338-2.2016v-5.4758c0-1.8064 1.411-3.95159 3.048-3.95159 1.694 0 1.694 2.65319 3.67 1.58069 1.016-.621.79-3.66939-2.541-3.66939Zm34.718 13.77429c-.96 0-1.242-.5081-1.298-1.3548v-8.3549c.112-1.12899-.283-2.31449-1.073-3.16129-.79-.7903-2.371-1.2419-4.629-1.2419-1.694-.1129-3.331.2823-4.798 1.1855-.847.508-1.355 1.4677-1.355 2.42739-.057.3952.113.7903.395 1.0726.282.2258.621.3387.96.3387.846 0 1.354-.4516 1.524-1.5807 0-.67739.282-1.29829.677-1.80639.565-.5081 1.355-.7903 2.089-.6774.847-.1129 1.75.2258 2.314.9032.452.6774.621 1.4113.621 2.20159v2.6532c-2.766.2258-9.371.7904-9.088 5.7581.225 2.0887 2.032 3.6693 4.121 3.6129 1.975-.0565 3.838-.9597 5.08-2.5403.283 1.4113 1.524 2.3709 2.936 2.3145 2.032 0 3.274-1.0161 3.387-3.4436h-.508c-.113 1.1291-.791 1.6936-1.355 1.6936Zm-4.573-1.6371v.1694c-.903 1.0161-2.145 1.637-3.5 1.8064-1.298.0565-2.427-.9597-2.483-2.3145v-.3387c0-2.8226 3.895-4.2339 6.04-4.2339l-.057 4.9113Zm22.412 1.5241c-.395-.6774-.565-1.4678-.565-2.2581v-6.8871c.057-.9032-.113-1.74999-.508-2.54029-.339-.621-.903-1.1855-1.524-1.5242-.734-.3387-1.524-.5081-2.315-.5081-2.088-.0564-4.008 1.0726-4.967 2.9355h-.339l-.565-2.7661h-4.685v.7903h2.371V18.4595c0 .621-.057 1.1855-.169 1.8065-.113.4516-.452.8467-.904.9597-.395.1693-.846.2258-1.298.2258v.9596h7.508v-.9596c-.565.0564-1.129-.2258-1.524-.621-.339-.6774-.508-1.4113-.395-2.1452v-4.008c-.17-1.4678.056-2.9355.564-4.3468.621-1.07259 1.807-1.74999 3.049-1.69359.846-.1129 1.693.3388 2.088 1.0726.395 1.12909.565 2.37099.508 3.55649v4.9677c.057.621.057 1.242 0 1.8629-.056.4516-.282.8468-.677 1.0726-.395.2258-.79.3387-1.186.3387v.9597h7.283v-.9597c-.904-.1129-1.468-.3387-1.75-.7903ZM114.54 6.20961c-.508.2258-.846.6774-.903 1.1855-.113.6209-.339.9596-.677 1.0725-.339.1129-.734.0565-1.073-.0564-1.355-1.1855-3.161-1.75-4.911-1.6371-3.105-.2258-5.871 2.0887-6.097 5.19349v.6775c0 3.2742 1.242 4.7419 3.952 5.3629.169 0 .169.2258 0 .2258-2.315.3951-4.347 1.0726-4.347 3.3306 0 1.0726.677 2.0323 1.693 2.371 1.468.508 2.992.7339 4.517.6774 1.185 0 2.427.0565 3.612.1694.678.0564 1.355.2822 1.976.6774.508.4516.791 1.0726.734 1.75 0 1.0726-.677 2.0322-1.637 2.4274-1.298.621-2.71.9032-4.121.8468-1.298.1129-2.653-.1694-3.782-.8468-.678-.5081-1.016-1.3548-.791-2.1452.226-.6209-.112-1.3548-.79-1.5806h-.169c-.508-.0565-1.016.1693-1.299.5645-.225.3952-.395.9032-.338 1.4113.056 1.4677 1.072 2.6532 2.54 2.9355 1.355.4516 2.766.6209 4.177.6209 1.638.0565 3.275-.2258 4.799-.9032 1.806-.7903 3.048-2.5403 3.048-4.5161.057-.9597-.226-1.8629-.734-2.6532-1.524-2.0887-3.669-1.8065-8.524-2.0323-2.314 0-2.766-.3952-2.766-1.0726 0-1.0726.847-1.4677 4.177-1.9758 3.331-.508 6.436-1.75 6.436-5.758 0-.9597-.169-1.9758-.621-2.87909.621.1694 1.298.1694 1.919 0 .565-.1693 1.073-.5645 1.355-1.0726.282-.3951.395-.9596.282-1.4112-.282-.8468-.846-1.1855-1.637-.9597Zm-7.508 11.12089c-1.976 0-3.161-.7338-3.161-4.7419 0-2.82259.96-4.91129 3.161-4.91129 2.484 0 3.162 1.9194 3.162 4.85489-.057 4.1774-1.355 4.7983-3.162 4.7983Z"/>
</svg>