<svg xmlns="http://www.w3.org/2000/svg" viewBox="0 0 160 26">
	<path fill="#fff" d="M38.9 7.79961h4.9V25.6996h8.7V7.79961h4.9V.0996094H38.9V7.79961ZM6.1 17.9996H0v7.7h8.7c.4 0 .8 0 1.2-.1 1.3-.2 2.5-.8 3.4-1.8.9-1 1.4-2.3 1.4-3.6V.0996094H6.1V17.9996Zm31.7-1.5c0-.7 0-1.3-.1-2H35c0 .6.1 1.2.1 1.8 0 .6-.1 1.1-.1 1.7L25 9.59961c-1.3-1.1-1.8-1.8-1.8-3.6 0-3.4 2.2-3.4 4.9-3.4 3.8 0 4.3.7 4.3 3.9v1.4h2.9v-1.4c0-5.4-2.6-6.4000006-7.2-6.4000006-5 0-7.8 1.0000006-7.8 6.0000006 0 2.9.6 3.6 2.3 4.99999-3.2.9-5.2.8-5.2 7 0 8 4 7.9 9.7 7.9 4.1 0 8.1 0 9.5-3.3l3.8 3.1 1.6-2-4.5-3.8c.3-1.1.4-2.3.3-3.5Zm-10.5 6.8c-6 0-6.8-.4-6.8-5.4 0-4.1.4-4.5 4.1-5.4l10 8.3c-.7 2.8-4.6 2.5-7.3 2.5Zm53.8-11c2.4-1 3-2.79999 3-5.39999 0-2.2-.3-3.9-1.2-5.1C82 .599609 80.5.0996094 78.1.0996094H65V25.6996h13.6c2.2 0 3.7-.6 4.7-1.9 1-1.3 1.4-3 1.4-5.3 0-3-.5-5.5-3.6-6.2ZM68.2 2.89961h8.5c3 0 4.1.3 4.2 3.6 0 3.89999-1.1 4.49999-4.5 4.59999h-8.2V2.89961Zm8.9 19.99999h-8.9v-8.9h9.5c3.5 0 3.9 1.5 3.9 4.8 0 3.8-1.4 4-4.5 4.1ZM95.2.0996094 85.9 25.6996h3.3l2-5.4h12.6l2 5.4h3.2L99.5.0996094h-4.3ZM92 17.6996l5.4-14.69999 5.5 14.69999H92Zm38.1 5.3L116.1.0996094h-5V25.6996h3.2V2.99961l14 22.69999h4.9V.0996094h-3.1V22.9996Zm16.8-10.5L158.6.0996094h-4.1L144.2 11.1996h-2.3V.0996094h-3.2V25.6996h3.2v-11.7h2.3l11.5 11.7h4.3l-13.1-13.2Z"/>
</svg>