<svg xmlns="http://www.w3.org/2000/svg" viewBox="0 0 98 40">
	<path fill="#fff" d="m59.8653 28.8739 12.0115-12.0116-2.5409-2.5409-14.5524 14.5525h5.0818Zm28.3349-9.3937c1.6169-1.6169 2.5024-3.7343 2.5024-6.0057s-.8855-4.42736-2.5024-6.0058c-3.3109-3.31087-8.7007-3.31087-12.0116 0l-3.2338 3.2339L62.2522 0v5.0433l10.7026 10.7411 5.7747-5.7748c1.9249-1.92492 5.0048-1.92492 6.9298 0 1.9249 1.8864 1.9249 5.0048 0 6.9297l-6.8143 6.8528-5.8902-5.8903-10.9721 10.9721h5.0818l5.8518-5.8903 5.8902 5.8903 9.3937-9.3937ZM6.73723 38.4601v-5.3898c0-.0451-.01321-.077-.02415-.1034-.00774-.0187-.01435-.0347-.01435-.0506-.01925-.0193-.02887-.0385-.03849-.0578-.00963-.0192-.01925-.0385-.0385-.0577-.0385-.0385-.077-.077-.1155-.077-.0385-.0385-.077-.0385-.11549-.0385h-.50048c-.04511 0-.09021.0132-.12758.0241-.02642.0078-.04897.0144-.06492.0144-.03849 0-.11549.0385-.15399.077-.0385.0385-.077.077-.1155.154l-.11549.231-1.73243 4.1578h-.0385l-1.65544-4.1578c0-.0564-.02063-.0921-.04679-.1374-.00957-.0166-.01989-.0345-.0302-.0551 0-.0588-.04494-.0952-.08331-.1262-.01186-.0096-.0231-.0187-.03219-.0278-.02063-.0103-.0385-.0206-.05508-.0302-.04531-.0262-.08105-.0468-.13741-.0468-.0385-.0385-.15399-.0385-.23099-.0385H.808468c-.076997 0-.153994.0385-.230991.077-.076997.0385-.115495.154-.115495.2695v5.3898s0 .0385.038499.0385c.038498.0385.076996.0385.115495.0385h.384984c.0385-.0385.077-.0385.1155-.0385.03849 0 .07699-.0385.07699-.0385v-5.0818l1.96342 5.0048.0385.0385c.01925 0 .02888.0096.0385.0192.00963.0096.01925.0193.0385.0193.0385.0385.077.0385.1155.0385h.30798c.0385-.0385.077-.0385.1155-.0385.0385 0 .077-.0385.077-.0385s.03849 0 .03849-.0385l2.04042-5.0048v5.0818c.01925 0 .02888.0096.0385.0192.00963.0096.01925.0193.0385.0193.0385.0385.077.0385.1155.0385h.38498c.0385-.0385.077-.0385.1155-.0385.03849 0 .07699-.0385.07699-.0385ZM37.6515 23.7536c.0385-.154.077-.308.077-.4619v-.1155c-.0192 0-.0289-.0097-.0385-.0193-.0096-.0096-.0192-.0192-.0385-.0192-.0385-.0385-.077-.0385-.1155-.0385H37.1895c-.0192 0-.0288.0096-.0385.0192-.0096.0096-.0192.0193-.0385.0193 0 0-.0385 0-.0385.0385v.077c0 .1155 0 .1925-.0385.2695 0 .1154-.0385.1539-.1155.2309-.077.077-.154.1155-.231.154-.1155.0385-.1924.0385-.3079.0385-.1155 0-.231 0-.308-.0385-.0687-.0229-.1102-.0594-.1487-.0933-.0263-.0231-.0511-.0451-.0823-.0607-.077-.0385-.1155-.1155-.154-.1925-.0385-.0769-.0385-.1924-.0385-.2694v-.077s0-.0385-.0385-.0385c0-.0385-.0385-.0385-.077-.0385h-.308c-.0192 0-.0385.0096-.0577.0192-.0193.0096-.0385.0193-.0578.0193-.0385 0-.077 0-.077.0385v.077c0 .1925 0 .3465.077.5004.077.154.154.2695.2695.385.0159.0106.0325.0219.0497.0337.1081.0736.2409.1641.3738.1973.154.0385.3465.077.5775.077.2309 0 .4619 0 .6159-.077.1925-.077.308-.154.4235-.2695.1155-.1155.1925-.231.231-.385Zm.462 5.4668v-.0385l.0385-3.9653v-.077s0-.0385-.0385-.0385c-.0385-.0385-.077-.0385-.1155-.0385h-.308c-.0385.0385-.077.0385-.1155.0385-.0385 0-.077.0385-.077.0385 0 .0192-.0096.0289-.0192.0385-.0097.0096-.0193.0192-.0193.0385l-1.7324 2.3484c-.077.077-.154.1925-.231.308-.0385.1155-.1155.231-.1925.3464v.0001c.0385-.1155.0385-.231.0385-.3465v-2.6564c0-.0564-.0206-.0715-.0468-.0906-.0096-.007-.0199-.0146-.0302-.0249-.077-.0385-.154-.0385-.308-.0385h-.1925c-.0192 0-.0385.0096-.0577.0192-.0193.0097-.0385.0193-.0578.0193-.0385 0-.077.0385-.077.0385v4.1193s0 .0385.0385.0385c.0385.0385.077.0385.1155.0385h.308c0-.0385.0385-.0385.077-.0385s.077-.0385.077-.0385c0-.0163 0-.0257.003-.0341.004-.0113.0134-.0207.0355-.0429 0 0 1.8479-2.5409 1.9249-2.6564l.231-.3465c-.0385.1155-.0385.231-.0385.3465v2.6949c.0193 0 .0289.0097.0385.0193.0096.0096.0193.0192.0385.0192.0385.0385.077.0385.1155.0385h.385c.0385-.0385.077-.0385.1155-.0385.0385 0 .077-.0385.077-.0385Zm-4.8893 0v-.0385s0-4.0038.0385-3.9653v-.077s0-.0385-.0385-.0385c-.0385-.0385-.077-.0385-.1155-.0385h-.308c-.0385.0385-.077.0385-.1155.0385-.0385 0-.077.0385-.077.0385 0 .0192-.0096.0289-.0192.0385-.0097.0096-.0193.0192-.0193.0385l-1.7324 2.3484c-.077.077-.154.1925-.231.308-.0385.1155-.1155.231-.1925.3464v.0001c.0385-.1155.0385-.231.0385-.3465v-2.6564c0-.0564-.0206-.0715-.0468-.0906-.0096-.007-.0199-.0146-.0302-.0249-.077-.0385-.154-.0385-.308-.0385h-.1925c-.0192 0-.0385.0096-.0577.0192-.0193.0097-.0385.0193-.0578.0193-.0385 0-.077.0385-.077.0385v4.1193s.0385 0 .0385.0385c.0385.0385.077.0385.1155.0385h.308c0-.0385.0385-.0385.077-.0385s.077-.0385.077-.0385c0-.0163 0-.0257.003-.0341.0039-.0113.0134-.0207.0355-.0429 0 0 1.8479-2.5409 1.9249-2.6564l.231-.3465c-.0385.1155-.0385.231-.0385.3465v2.6949c.0193 0 .0289.0097.0385.0193.0096.0096.0193.0192.0385.0192.0385.0385.077.0385.1155.0385h.385c.0385-.0385.077-.0385.1155-.0385.0385 0 .077-.0385.077-.0385Zm-4.5043.0385v-.2695s-.0385 0-.0385-.0385l-.4235-1.0009c-.0385-.0578-.0674-.1155-.0963-.1733-.0288-.0577-.0577-.1155-.0962-.1732-.0385-.1155-.1155-.1925-.1925-.2695-.077-.077-.154-.154-.231-.1925h-.0001c-.0769-.0385-.1539-.077-.2694-.1155.077 0 .154-.0385.231-.077.077-.0385.154-.077.231-.154.0385-.0385.1155-.1155.1925-.231.0497-.0745.0834-.1491.1217-.2341.0211-.0466.0435-.0963.0708-.1509l.385-.8854c0-.0193.0096-.0385.0192-.0578.0096-.0192.0193-.0385.0193-.0577V25.0626s0-.0385-.0385-.0385c-.0385-.0385-.077-.0385-.1155-.0385h-.385c-.0193 0-.0385.0096-.0578.0192-.0192.0097-.0385.0193-.0577.0193-.0385 0-.077.0385-.077.0385-.0385.0385-.0385.0385-.0385.077l-.385.924c-.0385.1539-.077.2694-.154.3464-.0285.0857-.0783.129-.1335.1771-.0192.0167-.0391.034-.059.0539-.0385.0193-.0866.0385-.1347.0578-.0481.0192-.0963.0385-.1348.0577-.077.0385-.1925.0385-.308.0385h-.3079v-1.6554l-.0385-.0385c-.0193 0-.0289-.0096-.0385-.0193-.0097-.0096-.0193-.0192-.0385-.0192-.0385-.0385-.077-.0385-.1155-.0385h-.154c-.0117 0-.0269-.0035-.0434-.0074-.0382-.0089-.0838-.0194-.1106.0074-.0385.0385-.077.0385-.1155.0385-.0385 0-.077.0385-.077.0385-.0385 0-.0385.0385-.0385.0385v4.1193l.0385.0385c.0192 0 .0289.0096.0385.0193.0096.0096.0192.0192.0385.0192.0385.0385.077.0385.1155.0385h.154c.0116 0 .0268.0035.0434.0074.0382.0089.0837.0195.1106-.0074.0385-.0385.077-.0385.1155-.0385.0385 0 .077-.0385.077-.0385.0385 0 .0385-.0385.0385-.0385v-1.8094h.3079c.1155 0 .231 0 .3465.0385.1155 0 .1925.0385.2695.1155.0634.0317.1007.0894.1548.1732.0116.0181.0241.0373.0377.0578.0193.0577.0481.1155.077.1732.0289.0578.0578.1155.077.1733l.4235 1.0394.0385.0385c.0192 0 .0289.0096.0385.0193.0096.0096.0192.0192.0385.0192.0385.0385.077.0385.1155.0385h.385c.0385-.0385.077-.0385.1155-.0385l.0385-.0385Zm-4.2349-.5775v-.2309c-.0385-.0385-.0385-.077-.0385-.1155 0-.0385-.0385-.077-.0385-.077h-.0385c-.0238 0-.0476.0147-.0804.035-.0204.0125-.0441.0273-.0736.042-.077.0385-.154.077-.231.154-.1155.077-.231.154-.3464.1924-.154.0385-.308.077-.462.077-.154 0-.308 0-.462-.077-.154-.0769-.2695-.1924-.3465-.3079-.1155-.154-.1925-.308-.231-.5005-.0385-.1925-.077-.4235-.077-.693 0-.539.077-.924.2695-1.1934.1925-.2695.462-.4235.8085-.4235.1925 0 .3465.0385.462.077.1155.0385.231.077.308.154.0687.0229.1101.0594.1486.0933.0263.0231.0511.0451.0823.0607.0295.0147.0532.0294.0736.0419.0328.0204.0566.0351.0804.0351.0385 0 .077-.0385.1155-.077.0385-.0385.0385-.1155.0385-.231v-.1925c0-.0193-.0096-.0289-.0192-.0385-.0096-.0097-.0193-.0193-.0193-.0385l-.077-.077c0-.0385-.077-.077-.154-.1155-.077-.0385-.154-.077-.2694-.1155-.0578-.0193-.1155-.0289-.1733-.0385-.0577-.0096-.1155-.0193-.1732-.0385-.1155-.0385-.2695-.0385-.385-.0385-.2695 0-.5005.0385-.7315.1155-.231.077-.4235.1925-.5775.385-.154.1925-.308.4235-.385.6929-.1154.2695-.1539.616-.1539 1.001 0 .3465.0385.6545.1154.924.077.231.1925.462.3465.6544.1155.1925.308.3465.539.4235.231.1155.5005.154.77.154.154 0 .308 0 .4235-.0385l.3465-.1155c.0805-.0268.161-.0724.2285-.1105.0293-.0166.0561-.0318.0794-.0435.0451-.0451.0902-.077.1276-.1034.0264-.0187.049-.0346.0649-.0506.0147-.0147.0294-.0238.042-.0315.0203-.0126.035-.0217.035-.0455.0385-.0385.0385-.0385.0385-.077v-.077Zm-3.8113 0v-.2309c-.0385-.0385-.0385-.077-.0385-.1155 0-.0385-.0385-.077-.0385-.077h-.0385c-.0238 0-.0476.0147-.0805.035-.0203.0126-.0441.0273-.0735.042-.077.0385-.154.077-.231.154-.1155.077-.231.154-.3465.1924-.154.0385-.308.077-.462.077-.154 0-.308 0-.462-.077-.1539-.0769-.2694-.1924-.3464-.3079-.1155-.154-.1925-.308-.231-.5005-.0385-.1925-.077-.4235-.077-.693 0-.539.077-.924.2695-1.1934.1925-.2695.4619-.4235.8084-.4235.1925 0 .3465.0385.462.077.1155.0385.231.077.308.154.1155.0385.1925.1155.231.154.0294.0147.0532.0294.0735.0419.0329.0203.0567.0351.0805.0351.0385 0 .077-.0385.1155-.077.0385-.0385.0385-.1155.0385-.231v-.1925c0-.0193-.0096-.0289-.0193-.0385-.0096-.0097-.0192-.0193-.0192-.0385l-.077-.077c0-.0385-.077-.077-.154-.1155-.077-.0385-.154-.077-.2695-.1155-.0577-.0193-.1155-.0289-.1732-.0385-.0578-.0096-.1155-.0193-.1733-.0385-.1155-.0385-.2695-.0385-.385-.0385-.2695 0-.5004.0385-.7314.1155-.231.077-.4235.1925-.5775.385-.154.1925-.308.4235-.385.6929-.1155.2695-.154.616-.154 1.001 0 .3465.0385.6545.1155.924.077.231.1925.462.3465.6544.1155.1925.308.3465.539.4235.231.1155.5004.154.7699.154.154 0 .308 0 .4235-.0385l.3465-.1155c.0805-.0268.1611-.0724.2285-.1105.0293-.0166.0562-.0318.0795-.0435.0451-.0451.0902-.077.1276-.1034.0264-.0187.0489-.0346.0649-.0506.0147-.0147.0294-.0238.042-.0315.0203-.0126.035-.0217.035-.0455.0385-.0385.0385-.0385.0385-.077v-.077Zm-5.5438-1.3089h.616l-.077.8085c-.129.1935-.2851.3059-.4228.4052-.0267.0193-.0527.038-.0777.0568-.154.1154-.3465.1539-.539.1539-.231 0-.4235-.077-.539-.1924-.1155-.1155-.1925-.308-.1925-.5005 0-.1155.0385-.231.077-.308.0257-.0257.0471-.0513.0685-.077.0428-.0513.0855-.1027.1625-.154.1155-.077.231-.1155.385-.154.154-.0385.3465-.0385.539-.0385Zm1.3089 1.8864c.0385 0 .0385-.0385.0385-.077l-.077-2.6179c0-.2695-.0384-.4619-.0769-.6544s-.154-.3465-.2695-.462c-.154-.1155-.308-.1925-.5005-.2695-.1925-.077-.462-.1155-.7315-.1155-.154 0-.308 0-.462.0385-.154.0385-.308.077-.4235.1155-.0886.0221-.1517.0571-.2114.09-.0439.0244-.086.0476-.135.064h-.0001c-.077.0385-.1539.077-.1924.1155-.0385.0385-.077.077-.077.1155v.308c0 .0192.0096.0288.0192.0385.0096.0096.0193.0192.0193.0385l.0385.0385h.077c.0238 0 .0476-.0148.0804-.0351.0204-.0125.0442-.0272.0736-.0419.0286-.0144.0573-.034.0879-.0551.0517-.0354.109-.0748.1815-.0989.1155-.077.231-.1155.385-.154.154-.0385.308-.077.5005-.077.154 0 .308.0385.4235.077.1155.0385.1925.1155.2695.1925.077.077.1155.1925.154.308.0385.1154.0385.2694.0385.4234v.308h-.539c-.308 0-.616.0385-.847.077-.231.0385-.4619.1155-.6159.231-.154.1155-.308.2695-.385.4235-.1155.154-.154.3465-.154.5775 0 .1925.0385.3465.1155.5004.0385.154.154.2695.2695.385.1155.1155.2695.1925.4234.231h.0001c.1925.0385.3849.077.5774.077.2695 0 .462-.0385.693-.154.1925-.077.385-.231.5775-.4235v.385c0 .0385 0 .077.0385.077.0192 0 .0385.0096.0577.0193.0193.0096.0385.0192.0578.0192h.385c.0451 0 .0637-.0132.0792-.0241.011-.0078.0203-.0144.0362-.0144Zm-3.8113 0v-.0385c0-.0385 0-.077-.0385-.1925v-.0385s-.0385 0-.0385-.0385L12.127 27.95c-.0385-.0578-.0674-.1155-.0962-.1733-.0289-.0577-.0578-.1155-.0963-.1732-.0385-.1155-.1155-.1925-.1925-.2695-.077-.077-.154-.154-.231-.1925-.077-.0385-.154-.077-.2694-.1155.077 0 .1539-.0385.2309-.077.077-.0385.154-.077.231-.154h.0001c.0385-.0385.1154-.1155.1924-.231.0497-.0745.0834-.1491.1218-.2341.021-.0466.0434-.0963.0707-.1509l.385-.8854c0-.0193.0096-.0385.0193-.0578.0096-.0192.0192-.0385.0192-.0577V25.0626s0-.0385-.0385-.0385c-.0385-.0385-.077-.0385-.1155-.0385h-.385c-.0192 0-.0385.0096-.0577.0192-.0193.0097-.0385.0193-.0578.0193-.0385 0-.077.0385-.077.0385-.0385.0385-.0385.0385-.0385.077l-.385.924c-.0384.1539-.0769.2694-.1539.3464-.0286.0857-.0783.129-.1335.1771-.0193.0167-.0391.034-.059.0539-.0385.0193-.0866.0385-.1348.0578-.0481.0192-.0962.0385-.1347.0577-.077.0385-.1925.0385-.308.0385h-.2695v-1.6554l-.0385-.0385c-.0193 0-.0289-.0096-.0385-.0193-.0096-.0096-.0192-.0192-.0385-.0192-.0385-.0385-.077-.0385-.11549-.0385h-.154c-.01165 0-.02684-.0035-.04342-.0074-.03817-.0089-.08373-.0194-.11057.0074-.0385.0385-.077.0385-.1155.0385-.0385 0-.07699.0385-.07699.0385-.0385 0-.0385.0385-.0385.0385v4.1193l.0385.0385c.01925 0 .02887.0096.03849.0193.00963.0096.01925.0192.0385.0192.0385.0385.077.0385.1155.0385h.15399c.01166 0 .02684.0036.04342.0074.03818.0089.08373.0195.11058-.0074.03849-.0385.07699-.0385.11549-.0385.0385 0 .077-.0385.077-.0385.0385 0 .0385-.0385.0385-.0385v-1.8094h.308c.1155 0 .231 0 .3465.0385.1155 0 .1925.0385.2695.1155.0633.0317.1006.0894.1547.1732.0117.0181.0241.0373.0378.0578.0192.0577.0481.1155.0769.1732.0289.0578.0578.1155.077.1733l.4235 1.0394.0385.0385c.0193 0 .0289.0096.0385.0193.0097.0096.0193.0192.0385.0192.0385.0385.077.0385.1155.0385h.1925c.0273 0 .0546.0049.0801.0094.0466.0082.0875.0155.1124-.0094.0385-.0385.077-.0385.1155-.0385l.0385-.0385Zm-5.92877-1.8864h.53898v.8085c-.129.1935-.28502.3059-.4228.4052-.02668.0193-.05269.038-.07768.0568-.15399.1154-.34648.1539-.53898.1539-.23099 0-.42348-.077-.53897-.1924-.1155-.1155-.1925-.308-.1925-.5005 0-.1155.0385-.231.077-.308.02566-.0257.04705-.0513.06844-.077.04278-.0513.08555-.1027.16255-.154.1155-.077.23099-.1155.38499-.154.15399-.0385.34648-.0385.53897-.0385Zm1.30895 1.8864c.0385 0 .0385-.0385.0385-.077l-.077-2.6179c0-.2695-.03849-.4619-.07699-.6544s-.154-.3465-.26949-.462c-.154-.1155-.30799-.1925-.50048-.2695-.19249-.077-.46198-.1155-.73147-.1155h-.00002c-.15399 0-.30798 0-.46197.0385-.15399.0385-.30798.077-.42348.1155-.08863.0221-.15176.0571-.2114.09-.04398.0244-.08607.0476-.13508.064h-.00002c-.07699.0385-.15398.077-.19248.1155-.0385.0385-.07699.077-.07699.1155v.308c0 .0192.00962.0288.01925.0385.00962.0096.01924.0192.01924.0385l.0385.0385h.077c.02379 0 .04759-.0147.08047-.0351.02032-.0125.04411-.0272.07352-.0419.02867-.0144.05733-.034.08798-.0551.05168-.0354.10901-.0748.18151-.0989.1155-.077.23099-.1155.38499-.154.15399-.0385.30799-.077.50048-.077.15399 0 .30799.0385.42348.077.1155.0385.19249.1155.26949.1925.077.077.1155.1925.15399.308.0385.1154.0385.2694.0385.4234v.308h-.53898c-.30798 0-.61597.0385-.84696.077-.23099.0385-.46198.1155-.61598.231-.15399.1155-.30799.2695-.38498.4235-.1155.154-.154.3465-.154.5775 0 .1925.0385.3465.1155.5004.0385.154.15399.2695.26949.385.11549.1155.26949.1925.42348.231h.00005c.19247.0385.38495.077.57743.077.26949 0 .46198-.0385.69297-.154.19249-.077.38499-.231.57748-.4235v.385c0 .0385 0 .077.0385.077.01925 0 .03849.0096.05774.0193.01925.0096.0385.0192.05775.0192h.38499c.0451 0 .06378-.0132.07926-.0241.01094-.0078.02029-.0144.03623-.0144Zm-3.80788-.1574c-.01256-.0204-.02726-.0442-.04196-.0736L2.6179 26.41l1.50144-2.5409c.0147-.0294.02941-.0532.04197-.0735.02032-.0329.03502-.0567.03502-.0805 0-.0163 0-.0257-.00295-.0341-.004-.0113-.01341-.0207-.03554-.0429 0 0-.077-.0384-.1155-.0384H3.61886c-.0385.0384-.077.0384-.1155.0384-.0385 0-.077 0-.077.0385 0 .0193-.00962.0289-.01925.0385-.00962.0097-.01924.0193-.01924.0385l-1.23196 2.156-1.231947-2.156c0-.0385-.038498-.077-.038498-.077-.019249 0-.028874-.0096-.038498-.0192-.009625-.0096-.01925-.0193-.038499-.0193 0-.0384-.076997-.0384-.115495-.0384H.230991c-.038498 0-.076997 0-.115495.0384-.0384986 0-.0384988.0385-.0384988.077.0237928.0238.0328818.0476.0454408.0805.007762.0203.016851.0441.031556.0735L1.65543 26.41.0769972 29.0664c-.0147057.0294-.0294114.0532-.0419715.0736C.0147045 29.1728 0 29.1966 0 29.2204c0 .0164 0 .0258.00295432.0342.00399784.0113.01340568.0207.03554428.0428.0192493 0 .0384984.0096.0577476.0193.0192488.0096.0384978.0192.0577478.0192h.423483c.038499-.0385.076997-.0385.115496-.0385.038498 0 .076996-.0385.076996-.0385 0-.0192.009625-.0288.01925-.0385.009624-.0096.019249-.0192.019249-.0385L2.11742 26.872l1.27045 2.2714c0 .0385.03849.077.03849.077.01925 0 .02888.0097.0385.0193.00963.0096.01925.0192.0385.0192.0385.0385.077.0385.1155.0385h.46198c.0385 0 .07699 0 .11549-.0385.0385 0 .0385-.0385.0385-.077 0-.0238-.0147-.0476-.03503-.0804Zm79.3419 7.2411 1.0009-2.8488 1.001 2.8488h-2.0019Zm3.5033 2.0405c0-.0385 0-.077-.0385-.154l-1.9634-5.3128c0-.0385 0-.0385-.0385-.077 0 0-.0385-.0385-.077-.0385-.0385-.0385-.077-.0385-.154-.0385h-.4619c-.0452 0-.077.0132-.1035.0241-.0186.0078-.0346.0144-.0505.0144-.0385 0-.0385 0-.077.0385 0 0-.0385.0385-.0385.077l-1.925 5.3128c-.0385.077-.0385.1155-.0385.154 0 .0385 0 .0385.0385.077.0193 0 .0385.0096.0578.0192.0192.0096.0385.0193.0577.0193h.385c.0193 0 .0385-.0097.0578-.0193.0192-.0096.0385-.0192.0577-.0192.0385 0 .077 0 .077-.0385 0-.0193.0096-.0289.0193-.0385.0096-.0097.0192-.0193.0192-.0385l.462-1.386h2.3869l.5005 1.386c0 .0385.0385.077.0385.077.0192 0 .0289.0096.0385.0192.0096.0096.0192.0193.0385.0193.0385.0385.077.0385.1155.0385h.462c.0385 0 .0769 0 .1154-.0385.0385 0 .0385-.0385.0385-.077Zm-6.1982-1.9635c.0385.1155.077.2695.077.4235 0 .154-.0385.2695-.1155.5005l-.0001.0001c-.077.1155-.1539.2309-.2309.3079-.1155.077-.231.154-.385.1925-.154.0385-.3465.077-.5775.077h-.9624v-2.0789h.9624c.2695 0 .462.0385.616.077.154.0385.2695.1155.385.1925.1155.077.1925.1924.231.3079Zm.7315 1.001c.077-.231.1155-.4235.1155-.6545 0-.231-.0385-.462-.1925-.6159-.077-.1925-.1925-.3465-.3465-.5005-.154-.1155-.3465-.231-.5775-.308-.231-.077-.539-.1155-.8855-.1155h-1.0394v-1.8094h2.5024c.0192 0 .0289-.0097.0385-.0193.0096-.0096.0192-.0192.0385-.0192 0 0 .0385 0 .0385-.0385.0385-.0385.0385-.077.0385-.1155v-.308c0-.0193-.0096-.0385-.0193-.0578-.0096-.0192-.0192-.0385-.0192-.0577 0 0 0-.0385-.0385-.0385h-3.0414c-.0564 0-.0921.0206-.1374.0468-.0166.0095-.0345.0199-.0551.0302-.0385.0385-.077.1155-.077.231v5.1203c0 .1155 0 .1925.077.231.0385.0385.1155.077.1925.077h1.3859c.4235 0 .77-.077 1.0395-.154.2695-.1155.462-.231.616-.385.154-.154.2695-.3465.3465-.539Zm-8.0462-5.7363c.0385-.1155.077-.2695.077-.4235 0-.0385-.0385-.077-.0385-.0385-.0193 0-.0289-.0096-.0385-.0192-.0096-.0096-.0193-.0193-.0385-.0193-.0385-.0385-.077-.0385-.1155-.0385H73.0316c-.0192 0-.0289.0097-.0385.0193-.0096.0096-.0192.0192-.0385.0192 0 0-.0385 0-.0385.0385v.077c0 .077 0 .154-.0385.231 0 .077-.0385.154-.1155.1925l-.231.1155c-.1155.0385-.1925.0385-.308.0385-.1155 0-.231 0-.308-.0385-.0769 0-.1197-.0342-.1625-.0684-.0214-.0171-.0428-.0342-.0684-.0471h-.0001c-.077-.077-.1155-.1155-.1539-.1925-.0385-.077-.0385-.154-.0385-.231v-.077c0-.0385 0-.077-.0385-.077 0 0-.0385-.0384-.077-.0384h-.308c-.0193 0-.0385.0096-.0578.0192-.0192.0096-.0385.0192-.0577.0192 0 0-.0385 0-.0385.0385v.077c0 .154.0385.308.077.462.077.1155.154.231.2695.3465.1155.1155.2695.1925.4235.231.154.0385.3464.077.5774.077.231 0 .462 0 .616-.077.1925-.077.308-.154.4235-.2695.1155-.077.1925-.1925.231-.3465Zm.8085 6.7758v-5.6593s0-.0385-.0385-.0385c-.0386-.0385-.077-.0385-.1155-.0385h-.308c-.0385.0385-.077.0385-.1155.0385-.0385 0-.077.0385-.077.0385s-.0385 0-.0385.0385l-2.4639 3.7343c-.0385.0578-.0674.1059-.0963.154-.0288.0482-.0577.0963-.0962.154-.0242.0725-.0635.1298-.099.1815-.021.0307-.0407.0593-.055.088v-4.3503c-.0193 0-.0289-.0096-.0385-.0193-.0096-.0096-.0193-.0192-.0385-.0192-.0385-.0385-.077-.0385-.1155-.0385h-.385c-.0192 0-.0385.0096-.0577.0192-.0193.0097-.0385.0193-.0578.0193-.0385 0-.077.0385-.077.0385-.0385 0-.0385 0-.0385.0385v5.6208s0 .0385.0385.0385c.0385.0385.077.0385.1155.0385h.308c.0385-.0385.077-.0385.1155-.0385.0385 0 .077-.0385.077-.0385 0-.0193.0096-.0289.0192-.0385.0097-.0097.0193-.0193.0193-.0385 0 0 2.6564-4.0039 2.6949-4.0424.0192-.0192.0289-.0481.0385-.077.0096-.0288.0192-.0577.0385-.077.0192-.0192.0289-.0385.0385-.0577.0096-.0193.0192-.0385.0385-.0578v4.3889c.0192 0 .0289.0096.0385.0192.0096.0096.0192.0193.0385.0193.0385.0385.077.0385.1155.0385h.385c.0192 0 .0385-.0097.0577-.0193.0193-.0096.0385-.0192.0578-.0192.0385 0 .077-.0385.077-.0385Zm-8.3542-2.156c.0385.1155.077.2695.077.462 0 .1155-.0385.231-.077.3465-.0385.1155-.1155.231-.1925.3465-.077.1155-.231.1925-.385.2695-.154.077-.4235.1155-.77.1155h-.7699v-2.1944h.7314c.308 0 .5775.0385.7315.077.0181.0072.0356.0141.0524.0208.1619.0641.2665.1055.3711.2102.1155.077.1925.1925.231.3464Zm.7315 1.0395c.077-.1925.1154-.4235.1154-.6545 0-.2695-.0384-.5004-.0769-.7314-.1155-.231-.231-.385-.4235-.539-.154-.1155-.385-.231-.616-.308-.2695-.077-.5775-.1155-1.001-.1155h-.8084v-2.1944c-.0193 0-.0289-.0096-.0385-.0193-.0097-.0096-.0193-.0192-.0385-.0192-.0385-.0385-.077-.0385-.1155-.0385h-.385c-.0193 0-.0385.0096-.0578.0192-.0192.0097-.0385.0193-.0577.0193-.0385 0-.077.0385-.077.0385-.0385 0-.0385 0-.0385.0385v5.3128c0 .077 0 .1155.0385.154.0385.077.0385.077.077.1155 0 0 .0385.0385.077.0385h1.3089c.462 0 .847-.0385 1.1165-.154.2695-.077.5005-.231.6545-.385.154-.1925.2695-.385.3465-.5775Zm1.7709 1.1165v-.077h.0385v-5.5823c-.0193 0-.0289-.0096-.0385-.0193-.0096-.0096-.0193-.0192-.0385-.0192-.0385-.0385-.077-.0385-.1155-.0385h-.385c-.0192 0-.0385.0096-.0577.0192-.0193.0097-.0385.0193-.0578.0193-.0385 0-.077.0385-.077.0385-.0385 0-.0385 0-.0385.0385v5.6208c.0193 0 .0289.0096.0385.0192.0096.0096.0193.0193.0385.0193.0385.0385.077.0385.1155.0385h.385c.0192 0 .0385-.0097.0577-.0193.0193-.0096.0385-.0192.0578-.0192.0385 0 .077-.0385.077-.0385Zm-6.8912 0v-5.6978c-.0193 0-.0289-.0096-.0385-.0193-.0097-.0096-.0193-.0192-.0385-.0192-.0385-.0385-.077-.0385-.1155-.0385h-.385c-.0385.0385-.077.0385-.1155.0385-.0385 0-.077.0385-.077.0385v2.3869h-2.6179v-2.3869c-.0193 0-.0289-.0096-.0385-.0193-.0096-.0096-.0193-.0192-.0385-.0192-.0385-.0385-.077-.0385-.1155-.0385h-.385c-.0385.0385-.077.0385-.1155.0385-.0385 0-.077.0385-.077.0385v5.6593c.0193 0 .0289.0096.0385.0192.0096.0096.0193.0193.0385.0193.0164.0163.0258.0257.0371.0311.0153.0074.0341.0074.0784.0074h.385c.0385-.0385.077-.0385.1155-.0385.0385 0 .077-.0385.077-.0385v-2.6179h2.6179v2.6564c.0192 0 .0289.0096.0385.0192.0096.0096.0192.0193.0385.0193.0385.0385.077.0385.1155.0385h.385c.0385-.0385.077-.0385.1155-.0385.0385 0 .077-.0385.077-.0385Zm-6.0058-2.156c.0385.1155.077.2695.077.462 0 .1155-.0385.231-.077.3465-.0385.1155-.1155.231-.1925.3465-.077.1155-.231.1925-.385.2695-.154.077-.4235.1155-.77.1155h-.8469v-2.1944h.8084c.308 0 .5775.0385.7315.077.0181.0072.0356.0141.0524.0208.1619.0641.2665.1055.3711.2102.1155.077.1925.1925.231.3464Zm.7315 1.0395c.077-.1925.1155-.4235.1155-.6545 0-.2695-.0385-.5389-.1155-.7314-.1155-.231-.231-.385-.4235-.539-.1925-.1155-.4235-.231-.6545-.308-.231-.077-.5775-.1155-1.001-.1155h-.8469v-2.1944c-.0193 0-.0289-.0096-.0385-.0193-.0096-.0096-.0193-.0192-.0385-.0192-.0385-.0385-.077-.0385-.1155-.0385h-.385c-.0192 0-.0385.0096-.0577.0192-.0193.0097-.0385.0193-.0578.0193-.0385 0-.077.0385-.077.0385-.0385 0-.0385 0-.0385.0385v5.3513c0 .077 0 .1155.0385.154.0385.077.0385.077.077.1155 0 0 .0385.0385.077.0385h1.386c.5004 0 .8854-.0385 1.1549-.154.2695-.1155.5005-.2695.6545-.4235.154-.1925.2695-.385.3465-.5775Zm-5.2358 1.1165v-5.3128c0-.1155-.0385-.1925-.077-.231-.0385-.0385-.1155-.077-.1925-.077h-2.5409c-.077 0-.154.0385-.1925.077-.0385.0385-.077.154-.077.2695-.077.6544-.154 1.2704-.231 1.7709-.077.5005-.154.924-.231 1.2704-.077.3465-.154.616-.231.847-.077.1925-.1925.385-.2695.5005-.077.1155-.1925.1925-.2695.231-.077.0385-.1924.077-.3079.077h-.077c0 .0192-.0097.0289-.0193.0385-.0096.0096-.0192.0192-.0192.0385-.0385.0385-.0385.077-.0385.1155V38.4216c0 .0192.0096.0385.0192.0577.0096.0193.0193.0385.0193.0578.0192 0 .0288.0096.0385.0192.0096.0096.0192.0193.0385.0193h.077c.1924 0 .4234 0 .5774-.077.154-.077.308-.1925.462-.3465.1155-.154.231-.3465.3465-.616.1155-.2695.231-.5775.308-.9625.1155-.385.1925-.8084.2695-1.3474.077-.539.154-1.1165.231-1.8094h1.6169v5.0433c.0193 0 .0289.0096.0385.0192.0096.0096.0193.0193.0385.0193.0385.0385.077.0385.1155.0385h.385c.0192 0 .0385-.0097.0577-.0193.0193-.0096.0385-.0192.0578-.0192.0385 0 .077-.0385.077-.0385Zm-8.4312-2.1175 1.001-2.8488 1.0009 2.8488h-2.0019Zm3.5034 2.0405c0-.0385 0-.077-.0385-.154l-1.9635-5.3128c0-.0385 0-.0385-.0385-.077 0 0-.0385-.0385-.0769-.0385-.0385-.0385-.077-.0385-.154-.0385h-.462c-.0451 0-.077.0132-.1034.0241-.0187.0078-.0347.0144-.0506.0144-.0385 0-.077.0385-.077.0385s-.0385.0385-.0385.077l-1.9249 5.3128c-.0385.077-.0385.1155-.0385.154 0 .0385 0 .0385.0385.077.0192 0 .0385.0096.0577.0192.0193.0096.0385.0193.0578.0193h.3849c.0193 0 .0385-.0097.0578-.0193.0192-.0096.0385-.0192.0577-.0192.0385 0 .077 0 .077-.0385 0-.0193.0097-.0289.0193-.0385.0096-.0097.0192-.0193.0192-.0385l.462-1.386h2.3869l.5005 1.386c0 .0385.0385.077.0385.077.0192 0 .0289.0096.0385.0192.0096.0096.0192.0193.0385.0193.0385.0385.077.0385.1155.0385h.462c.0385 0 .077 0 .1155-.0385.0385 0 .0385-.0385.0385-.077Zm-5.8518.077v-.077l-.077-5.3128c0-.1155-.0385-.1925-.077-.231-.0385-.0385-.1155-.077-.1925-.077h-3.5803c-.077 0-.154.0385-.1925.077-.0385.0385-.077.1155-.077.231v5.3898c.0192 0 .0288.0096.0385.0192.0096.0096.0192.0193.0385.0193.0385.0385.077.0385.1155.0385h.3849c.0193 0 .0385-.0097.0578-.0193.0192-.0096.0385-.0192.0577-.0192.0385 0 .077-.0385.077-.0385.0385-.0385.0385-.0385.0385-.077v-4.9663h2.5794v4.9663c0 .0385.0385.077.0385.077.0193 0 .0289.0096.0385.0192.0097.0096.0193.0193.0385.0193.0385.0385.077.0385.1155.0385h.385c.0193 0 .0385-.0097.0578-.0193.0192-.0096.0385-.0192.0577-.0192.0385 0 .077-.0385.077-.0385Zm-5.6593 0v-5.6593s0-.0385-.0385-.0385c-.0385-.0385-.077-.0385-.1155-.0385h-.308c-.0385.0385-.077.0385-.1155.0385-.0385 0-.0769.0385-.0769.0385s-.0385 0-.0385.0385l-2.464 3.7343c-.0384.0578-.0673.1059-.0962.154-.0289.0481-.0577.0963-.0962.154-.0242.0725-.0635.1298-.099.1815-.021.0307-.0407.0593-.055.088v-4.3503c-.0193 0-.0289-.0096-.0385-.0193-.0097-.0096-.0193-.0192-.0385-.0192-.0385-.0385-.077-.0385-.1155-.0385h-.385c-.0193 0-.0385.0096-.0578.0192-.0192.0097-.0385.0193-.0577.0193-.0385 0-.077.0385-.077.0385-.0385 0-.0385 0-.0385.0385v5.6208s0 .0385.0385.0385c.0385.0385.077.0385.1155.0385h.308c.0385-.0385.077-.0385.1155-.0385.0385 0 .077-.0385.077-.0385 0-.0193.0096-.0289.0192-.0385.0096-.0097.0193-.0193.0193-.0385 0 0 2.6564-4.0039 2.6949-4.0424.0192-.0192.0288-.0481.0385-.077.0096-.0288.0192-.0577.0385-.077.0192-.0192.0288-.0385.0385-.0577.0096-.0193.0192-.0385.0385-.0578v4.3889c.0192 0 .0288.0096.0385.0192.0096.0096.0192.0193.0385.0193.0385.0385.0769.0385.1154.0385h.385c.0193 0 .0385-.0097.0578-.0193.0192-.0096.0385-.0192.0577-.0192.0385 0 .077-.0385.077-.0385Zm-5.2743 1.4629v-.0385l.0385-1.8864c0-.077 0-.1155-.0385-.154 0-.0385-.0385-.0385-.1155-.0385h-.5774v-5.0048c-.0193 0-.0289-.0096-.0385-.0193-.0097-.0096-.0193-.0192-.0385-.0192-.0385-.0385-.077-.0385-.1155-.0385h-.385c-.0193 0-.0385.0096-.0578.0192-.0192.0097-.0385.0193-.0577.0193-.0385 0-.077.0385-.077.0385v5.0048H25.332v-5.0048c-.0193 0-.0289-.0096-.0385-.0193-.0096-.0096-.0193-.0192-.0385-.0192-.0385-.0385-.077-.0385-.1155-.0385h-.385c-.0192 0-.0385.0096-.0577.0192-.0193.0097-.0385.0193-.0578.0193-.0385 0-.077.0385-.077.0385v5.3898c0 .1155.0385.1925.077.231.0385.0385.1155.077.1925.077h3.9269V39.923s0 .0385.0385.0385c.0385.0385.077.0385.1155.0385h.3079c.0526-.0263.0693-.0346.0868-.0373.0082-.0012.0165-.0012.0287-.0012l.0385-.0385Zm-6.3522-1.4629v-5.6593s0-.0385-.0385-.0385c-.0385-.0385-.077-.0385-.1155-.0385h-.308c-.0385.0385-.077.0385-.1155.0385-.0385 0-.077.0385-.077.0385s-.0385 0-.0385.0385l-2.4639 3.7343c-.0385.0578-.0674.1059-.0962.154-.0289.0481-.0578.0963-.0963.154-.0241.0725-.0635.1299-.0989.1815-.0211.0307-.0407.0593-.0551.088v-4.3503c-.0192 0-.0288-.0096-.0385-.0193-.0096-.0096-.0192-.0192-.0385-.0192-.0385-.0385-.077-.0385-.1155-.0385h-.385c-.0192 0-.0384.0096-.0577.0192-.0192.0097-.0385.0193-.0577.0193-.0385 0-.077.0385-.077.0385-.0385 0-.0385 0-.0385.0385v5.6208s0 .0385.0385.0385c.0385.0385.077.0385.1155.0385h.3079c.0385-.0385.077-.0385.1155-.0385.0385 0 .077-.0385.077-.0385 0-.0193.0097-.0289.0193-.0385.0096-.0097.0192-.0193.0192-.0385 0 0 2.6564-4.0039 2.6949-4.0424.0193-.0192.0289-.0481.0385-.077.0096-.0288.0193-.0577.0385-.077.0193-.0192.0289-.0385.0385-.0577.0096-.0193.0193-.0385.0385-.0578v4.3889c.0193 0 .0289.0096.0385.0192.0096.0096.0193.0193.0385.0193.0385.0385.077.0385.1155.0385h.385c.0192 0 .0385-.0097.0577-.0193.0193-.0096.0385-.0192.0578-.0192.0385 0 .077-.0385.077-.0385Zm-5.8133 0v-5.6978c-.0192 0-.0289-.0096-.0385-.0193-.0096-.0096-.0192-.0192-.0385-.0192-.0385-.0385-.077-.0385-.1155-.0385h-.385c-.0385.0385-.077.0385-.1155.0385-.0385 0-.077.0385-.077.0385v2.3869H13.821v-2.3869c-.0193 0-.0289-.0096-.0385-.0193-.0097-.0096-.0193-.0192-.0385-.0192-.0385-.0385-.077-.0385-.1155-.0385h-.385c-.0385.0385-.077.0385-.1155.0385-.0385 0-.077.0385-.077.0385v5.6593c.0192 0 .0289.0096.0385.0192.0096.0096.0192.0193.0385.0193.0163.0163.0257.0257.0371.0311.0153.0074.0341.0074.0784.0074h.385c.0385-.0385.077-.0385.1155-.0385.0385 0 .077-.0385.077-.0385v-2.6179h2.6178v2.6564c.0193 0 .0289.0096.0385.0192.0097.0096.0193.0193.0385.0193.0385.0385.077.0385.1155.0385h.385c.0385-.0385.077-.0385.1155-.0385.0385 0 .077-.0385.077-.0385Zm-6.7135-1.3712c.0292-.066.0596-.135.0918-.2073l1.6169-3.8113c.0385-.0385.0385-.077.0385-.1155 0-.0385 0-.077-.0385-.077-.0192 0-.0385-.0096-.0577-.0193-.0193-.0096-.0385-.0192-.0578-.0192h-.4235c-.0192 0-.0385.0096-.0577.0192-.0193.0097-.0385.0193-.0578.0193-.0385 0-.077.0385-.077.0385 0 .0192-.0096.0289-.0192.0385-.0096.0096-.0193.0192-.0193.0385l-.8084 2.0404c-.045.1573-.103.3015-.1589.4403-.0399.0989-.0786.195-.1106.2912-.077.1925-.154.4234-.231.6544-.1155-.231-1.65544-3.4263-1.65544-3.4263 0-.0385 0-.0385-.0385-.077-.01924 0-.02887-.0096-.03849-.0193-.00963-.0096-.01925-.0192-.0385-.0192-.0385-.0385-.077-.0385-.1155-.0385H7.81519c-.0385 0-.077 0-.11549.0385-.0385 0-.0385.0385-.0385.077s0 .077.0385.154l2.04041 4.0808c-.02727.0546-.04972.1091-.07075.1602-.03835.0932-.07202.1751-.12174.2248-.07698.1155-.15397.1925-.19247.231h-.00002c-.077.077-.1155.1155-.19249.1155-.0385.0385-.1155.0385-.1925.0385-.03849 0-.07699-.0096-.11549-.0193-.0385-.0096-.077-.0192-.1155-.0192-.01925-.0193-.04812-.0289-.077-.0385-.02887-.0096-.05774-.0193-.07699-.0385-.0385-.0385-.077-.077-.1155-.077-.03849-.0385-.03849-.0385-.07699-.0385-.05637 0-.07147.0206-.09062.0468-.00701.0096-.01456.0199-.02488.0302-.0385.0385-.0385.1155-.0385.231v.2695c0 .0385.0385.077.0385.077s0 .0385.0385.0385.077 0 .11549.0385c.01595 0 .0319.0066.05058.0143.02642.0109.05832.0242.10342.0242.0385 0 .06737.0096.09625.0192.02887.0096.05774.0193.09624.0193h.19249c.1925 0 .34649-.0385.50048-.077.1155-.0385.26949-.1155.38499-.231.11549-.1155.23099-.2695.34649-.5005.0914-.1828.1828-.3897.2932-.6397Zm86.8673 1.3712c.0385 0 .077-.0385.077-.0385v-.077s0-.0385-.0385.0385c0-.0385 0-.077-.0385-.154l-.5389-1.386c-.077-.1924-.154-.3463-.2309-.5003l-.0001-.0002c-.0385-.0577-.0867-.1154-.1348-.1732-.0481-.0577-.0962-.1155-.1347-.1732-.0578-.0385-.1059-.077-.154-.1155-.0481-.0385-.0963-.077-.154-.1155-.1155-.077-.231-.154-.385-.1925.154-.0385.231-.077.3465-.154.0385-.0385.0866-.077.1347-.1155.0482-.0385.0963-.077.1348-.1155l.231-.3465c.0523-.0785.0868-.1747.1278-.2887.0193-.0538.04-.1116.0647-.1733l.462-1.1934c0-.0451.0132-.077.0241-.1034.0077-.0187.0143-.0347.0143-.0506v-.1925s0-.0385-.0384-.0385c-.0385-.0385-.0771-.0385-.1156-.0385h-.3849c-.0193 0-.0385.0096-.0578.0192-.0192.0097-.0385.0193-.0577.0193-.0385 0-.077 0-.077.0385 0 .0192-.0097.0289-.0193.0385-.0096.0096-.0192.0192-.0192.0385l-.4235 1.2319c-.0385.1925-.1155.3465-.1925.462-.077.1155-.154.231-.2695.308-.077.077-.231.154-.3465.1925-.1155.0385-.2695.077-.462.077h-.3079v-2.3869c-.0193 0-.0289-.0096-.0385-.0193-.0097-.0096-.0193-.0192-.0385-.0192-.0385-.0385-.077-.0385-.1155-.0385h-.385c-.0385.0385-.077.0385-.1155.0385-.0385 0-.077.0385-.077.0385v5.6208c.0192 0 .0289.0096.0385.0192.0096.0096.0192.0193.0385.0193.0385.0385.077.0385.1155.0385h.385c.0385-.0385.077-.0385.1155-.0385.0385 0 .077-.0385.077-.0385v-2.5794h.3079c.154 0 .308.0385.462.077.154.0385.2695.1155.385.1925.1155.1155.231.2309.308.3464l.0001.0002c.0769.1539.1539.3079.2309.5003l.539 1.386c0 .0192.0096.0288.0192.0385.0096.0096.0193.0192.0193.0385.0192 0 .0288.0096.0385.0192.0096.0096.0192.0193.0385.0193.0385.0385.077.0385.1155.0385h.3849c.0193 0 .0385-.0097.0578-.0193.0192-.0096.0385-.0192.0577-.0192Zm-5.3513.0385c.0385 0 .077-.0385.077-.0385v-5.6978c-.0192 0-.0288-.0096-.0384-.0193-.0097-.0096-.0193-.0192-.0386-.0192-.0385-.0385-.0769-.0385-.1154-.0385h-.385c-.0385.0385-.077.0385-.1155.0385-.0385 0-.077.0385-.077.0385v2.3869h-2.6179v-2.3869c-.0193 0-.0289-.0096-.0385-.0193-.0096-.0096-.0193-.0192-.0385-.0192-.0385-.0385-.077-.0385-.1155-.0385h-.385c-.0385.0385-.077.0385-.1155.0385-.0385 0-.077.0385-.077.0385v5.6593c.0193 0 .0289.0096.0385.0192.0096.0096.0193.0193.0385.0193.0164.0163.0258.0257.0371.0311.0153.0074.0341.0074.0784.0074h.385c.0385-.0385.077-.0385.1155-.0385.0385 0 .077-.0385.077-.0385v-2.6179h2.6179v2.6564c.0192 0 .0289.0096.0385.0192.0096.0096.0192.0193.0385.0193.0385.0385.077.0385.1155.0385h.385c.0385-.0385.0769-.0385.1154-.0385Z"/>
</svg>