<svg xmlns="http://www.w3.org/2000/svg" viewBox="0 0 160 26">
	<path fill="#fff" d="M18.0811 12.9565c0 1.4999.3475 2.8168 1.0426 3.9509.6768 1.0975 1.6005 1.948 2.7711 2.5517 1.1707.6036 2.4328.9054 3.7864.9054 1.3535 0 2.6156-.3018 3.7863-.9054 1.1706-.6037 2.0852-1.4634 2.7437-2.5791.6768-1.1158 1.0152-2.4236 1.0152-3.9235 0-1.5182-.3384-2.8352-1.0152-3.95099-.6585-1.07919-1.5639-1.90231-2.7163-2.46934-1.1341-.56704-2.4053-.85055-3.8137-.85055-1.3719 0-2.634.28351-3.7864.85055-1.1889.56703-2.1218 1.40844-2.7986 2.52421-.6767 1.09752-1.0151 2.39622-1.0151 3.89612Zm62.5292 11.9351v-6.4752c.4207.7134 1.0152 1.2073 1.7834 1.4816.7865.2744 1.7743.4116 2.9632.4116.6402 0 1.2621-.0823 1.8657-.2469.6219-.1464 1.1524-.375 1.5914-.686.9694-.6036 1.7194-1.4541 2.2498-2.5516.5488-1.1158.8231-2.3962.8231-3.8412 0-1.3902-.2652-2.6614-.7956-3.81377-.5488-1.09748-1.317-1.93889-2.3048-2.52421-.9877-.60362-2.1309-.90543-3.4296-.90543-1.2255 0-2.2407.19206-3.0455.57618-.8048.38412-1.4542.95115-1.9481 1.7011V6.12461h-3.1004V24.8916h3.3474ZM67.852 20.4742c-.1463.4024-.3018.7042-.4664.9055-.4207.5853-1.189.8779-2.3047.8779-.5488 0-.9786-.0365-1.2896-.1097l1.1249 2.634c.0366.0182.3476.0274.9329.0274 1.006 0 1.82-.1646 2.4419-.4939.5853-.3109 1.0792-.7682 1.4816-1.3718.4024-.6036.8231-1.4999 1.2621-2.6889L76.138 6.12461h-3.3473c-1.2255 3.38391-2.323 6.74949-3.2925 10.09689-.9328-3.0547-2.0669-6.42031-3.4022-10.09689h-3.5119L67.852 20.4742ZM21.4558 12.929c0-1.4633.3567-2.5791 1.0701-3.34731.7133-.76824 1.7377-1.15236 3.0729-1.15236 1.3353 0 2.3688.38412 3.1004 1.15236.7317.76821 1.0975 1.88401 1.0975 3.34731 0 1.4999-.3658 2.6523-1.0975 3.4571-.7316.8048-1.7651 1.2072-3.1004 1.2072-1.3169 0-2.3413-.3932-3.0729-1.1798-.7134-.8048-1.0701-1.9663-1.0701-3.4845Zm59.0722.0275c.0365-1.3902.4024-2.4785 1.0974-3.26506.7134-.80483 1.692-1.20724 2.9358-1.20724s2.2133.40241 2.9084 1.20724c.695.80486 1.0517 1.89316 1.07 3.26506-.0183 1.3901-.375 2.4967-1.07 3.3198-.6951.8049-1.6646 1.2073-2.9084 1.2073-1.2438 0-2.2224-.4024-2.9358-1.2073-.695-.8231-1.0609-1.9297-1.0974-3.3198ZM14.8709.5 9.05425 8.20983H6.11848V.5h-4.3625L0 3.76502h2.63396V19.9804h3.48452v-8.7525h2.93577l6.11845 8.7525h3.9784L12.0449 9.71887 18.8219.5h-3.951Zm23.4588 19.4804v-5.8441h5.6794v5.8441h3.2925V6.12461h-3.2925v5.26789h-5.6794V6.12461h-3.3199V19.9804h3.3199ZM53.4201 8.75858V19.9804h3.3748V8.75858h4.7191V6.12461H48.7558v2.63397h4.6643ZM108.126 19.9804c1.207 0 2.314-.2378 3.32-.7134 2.012-.9694 3.018-2.6523 3.018-5.0484 0-1.2073-.256-2.2407-.768-3.1004-.531-.8597-1.271-1.51822-2.223-1.97551-.951-.47557-2.066-.71336-3.347-.71336h-5.624V2.61266h10.7V.5H99.9773v19.4804h8.1487Zm-5.624-9.4384h5.24c1.317 0 2.35.3292 3.1.9877.75.6402 1.125 1.5365 1.125 2.6889 0 1.1523-.375 2.0486-1.125 2.6888-.75.6402-1.783.9603-3.1.9603h-5.24V10.542Zm26.19-.0274c0-1.49995-.494-2.6706-1.481-3.512-.988-.84141-2.369-1.26211-4.143-1.26211-2.47 0-4.5.9603-6.091 2.8809l1.509 1.37186c.75-.82312 1.481-1.40844 2.195-1.75598.731-.36583 1.545-.54874 2.442-.54874 1.079 0 1.902.25608 2.469.76824.567.49387.85 1.23467.85 2.22243v.9328l-3.621.247c-2.049.1097-3.567.5304-4.555 1.2621-.969.7133-1.454 1.7651-1.454 3.1552v.1372c0 1.2621.43 2.2407 1.29 2.9358.878.6951 2.085 1.0426 3.621 1.0426 1.079 0 2.031-.192 2.854-.5762.823-.4024 1.481-.9694 1.975-1.7011v1.8658h2.14v-9.4658Zm-2.25 4.335c0 .6951-.182 1.3261-.548 1.8932-.366.567-.878 1.006-1.537 1.317-.658.3109-1.381.4664-2.167.4664-.988 0-1.756-.1921-2.305-.5762-.53-.3841-.796-.9328-.796-1.6462v-.1372c0-.878.293-1.5182.878-1.9206.586-.4024 1.592-.6402 3.018-.7134l3.457-.1646v1.4816Zm17.541-8.72499h-2.36v5.78919h-6.942V6.12461h-2.359V19.9804h2.359v-6.146h6.942v6.146h2.36V6.12461ZM160 19.9804l-5.625-7.1886 5.186-6.66719h-2.525l-4.553 5.81669h-2.416V6.12461h-2.36V19.9804h2.36v-6.1185h2.388l4.855 6.1185H160Z"/>
</svg>