<svg xmlns="http://www.w3.org/2000/svg" viewBox="0 0 148 24">
	<path fill="#fff" d="M52.2774 14.2328c0-1.5 1.0255-2.6289 2.5468-2.6289 1.5166 0 2.5466 1.134 2.5466 2.6289 0 1.5002-1.0251 2.629-2.5466 2.629-1.5214 0-2.5468-1.1288-2.5468-2.629Zm2.5468 5.4325c3.1977 0 5.7287-2.1546 5.7287-5.4325 0-3.285-2.5247-5.43247-5.7287-5.43247-3.2106 0-5.7286 2.14137-5.7286 5.43247 0 3.2843 2.5245 5.4325 5.7286 5.4325Zm9.8257-10.51617h-2.0603V19.3167h3.1787V14.131c0-1.4526.6077-2.1783 2.0894-2.1783h1.5071V9.09003h-1.0533c-1.1181 0-2.0029.2854-2.7482 1.14837l-.2447.2832-.6687-1.37267v.0002Zm8.6468 5.08367c0-1.5 1.0254-2.6289 2.5468-2.6289 1.5166 0 2.5466 1.134 2.5466 2.6289 0 1.5002-1.0251 2.629-2.5466 2.629-1.5215 0-2.5468-1.1288-2.5468-2.629Zm2.5468 5.4325c3.1977 0 5.7287-2.1546 5.7287-5.4325 0-3.285-2.5247-5.43247-5.7287-5.43247-3.2106 0-5.7286 2.14137-5.7286 5.43247 0 3.2843 2.5245 5.4325 5.7286 5.4325Zm9.9367-10.51617h-2.1714V19.3167h3.1786v-5.4456c0-1.3155.7794-2.4119 2.2084-2.4119 1.254 0 1.793.9997 1.793 2.1026v5.7549h3.178v-6.2619c0-2.3939-1.518-4.22147-4.017-4.22147-1.197 0-2.515.4298-3.3244 1.32997l-.2511.2791-.5941-1.29327Zm16.1038 7.75877c-1.527 0-2.6362-1.1628-2.6362-2.6784 0-1.5161 1.1092-2.6718 2.6362-2.6718 1.522 0 2.636 1.1606 2.636 2.6718 0 1.5138-1.11 2.6784-2.636 2.6784Zm3.301-7.76847-.442.97057-.249-.20417c-.88-.7257-1.963-1.0888-3.1-1.0888-3.1542 0-5.3442 2.26877-5.3442 5.40597 0 3.1369 2.18 5.4423 5.3442 5.4423 1.122 0 2.188-.3532 3.063-1.0605l.256-.2073.376.9059h2.425V9.13943h-2.329Zm11.055 3.52377h-2.352V8.81374h2.352c1.133 0 1.912.79719 1.912 1.92476 0 1.1275-.779 1.9247-1.912 1.9247Zm-5.669-6.67297V19.3167h3.317v-3.83h2.81c2.766 0 4.87-1.9607 4.87-4.758 0-2.79816-2.109-4.73847-4.87-4.73847h-6.127Zm18.038 10.91767c-1.527 0-2.635-1.1628-2.635-2.6784 0-1.5161 1.108-2.6718 2.635-2.6718 1.522 0 2.636 1.1606 2.636 2.6718 0 1.5138-1.11 2.6784-2.636 2.6784Zm3.301-7.76847-.443.97057-.248-.20417c-.88-.7257-1.963-1.0888-3.1-1.0888-3.154 0-5.344 2.26877-5.344 5.40597 0 3.1369 2.18 5.4423 5.344 5.4423 1.122 0 2.188-.3532 3.063-1.0605l.256-.2073.376.9059h2.425V9.13943h-2.329Zm11.94.0097-2.275 6.33457-2.438-6.33457H135.7l4.288 9.52387-.036.0952c-.526 1.404-.878 1.5323-2.407 1.5323h-.764v2.6586h1.011c3.036 0 3.988-1.3519 5.135-3.9684l4.314-9.84147h-3.391v-.0001ZM49.1661 19.3167l-4.668-6.8785 4.2633-6.44797h-3.8201L41.7049 11.151h-1.6737V5.99023h-3.3168V19.3167h3.3168v-5.3384h1.7539l3.4632 5.3384h3.9178Z"/>
	<path fill="#FECC00" d="M3.79781 22.3207H22.7384v-2.1304H3.79781v2.1304ZM13.2135.5l2.5143 2.38443-2.5143 2.3337-2.4607-2.3337L13.2135.5ZM26.483 10.7494c-3.3709-2.79107-7.7585-4.56547-12.6263-4.71787V19.2779s3.6376-.051 4.6011 0c.8033 0 1.0702-.7119 1.0702-.7119l3.3707-7.7126c.3203.2035.6408.4069.91.6102l-3.4241 7.8142h2.4073c1.2303-2.842 2.4607-5.6839 3.6911-8.5261v-.0026.0003Zm-9.2021 6.5966c-.267.051-1.177 0-1.177 0V8.36523c1.7132.2541 3.3171.7626 4.8703 1.4718l-3.1571 7.20647c-.2135.3562-.5362.3051-.5362.3051v-.0026ZM0 10.7494c3.37091-2.79107 7.81171-4.56547 12.6263-4.71787V19.2779s-3.63759-.051-4.60109 0c-.8033 0-1.0702-.7119-1.0702-.7119l-3.3707-7.7126c-.3203.2035-.64322.4069-.90996.6102l3.47736 7.8142h-2.4606C2.46061 16.4358 1.23037 13.5939 0 10.7517v-.0026.0003Zm9.20211 6.5966c.267.051 1.17699 0 1.17699 0V8.36523c-1.71319.2541-3.31739.7626-4.81459 1.4718l3.1039 7.20647c.216.3562.5337.3051.5337.3051v-.0026Z"/>
</svg>