<svg xmlns="http://www.w3.org/2000/svg" viewBox="0 0 153 30">
	<path fill="#fff" d="M33.8806 21.5305h5.5895v.9l-4.541.0003v2.1171h2.3068c.8826 0 1.5521.1832 2.0116.551.4595.3679.6884.8969.6884 1.5869 0 .034-.0005.0677-.0016.101-.0048.1443-.0198.2817-.0451.412-.0935.4815-.3271.868-.7002 1.1593-.4973.3885-1.2079.5827-2.1331.5827h-3.1753v-7.4103Zm3.1343 6.5716c.6063 0 1.0689-.1168 1.3863-.3489.2231-.1632.3682-.3811.4347-.653.0222-.0907.0356-.1873.0402-.29.0013-.0273.0019-.055.0019-.0831 0-.8969-.6205-1.3437-1.8632-1.3437h-2.0857v2.7203h2.0857l.0001-.0016Zm5.8153.8368 1.0894.0003.8147-1.8521h3.9379l.8163 1.8521h1.1116l-3.3663-7.4087h-1.0484l-3.3552 7.4084Zm3.8746-6.3281 1.5978 3.6297H45.107l1.5978-3.6297Zm13.8174-1.0803v7.4084l-1.0579.0003v-3.3016H55.209l.0001 3.3013-1.058.0003v-7.4084l1.058-.0003v3.1848h4.2552v-3.1845l1.0579-.0003Zm10.7667 7.4084-2.7724-3.8209 2.6462-3.5872-1.132-.0003-2.329 3.2179h-1.5663v-3.2179H65.098v7.4087h1.0373v-3.2605h1.5458l2.4016 3.2605 1.2062-.0003ZM39.1338 10.7211l-1.9484 2.0305v3.6679h-3.3363V1.91368h3.3363v6.77685l6.4247-6.77685h3.7311L41.3317 8.3779l6.3632 8.04h-3.9174l-4.6437-5.6968Zm13.8647 4.9721c-1.2094-.649-2.1552-1.5443-2.8389-2.6827-.6837-1.14-1.0247-2.4221-1.0247-3.84471 0-1.42105.341-2.70316 1.0247-3.84316.6837-1.14 1.6295-2.03368 2.8389-2.68421 1.2095-.64737 2.5674-.97263 4.0721-.97263 1.5064 0 2.8611.32526 4.0627.97263 1.2031.65053 2.1489 1.54421 2.8389 2.68421.69 1.14 1.0358 2.42053 1.0358 3.84316 0 1.42261-.3458 2.70471-1.0358 3.84471-.69 1.1384-1.6373 2.0337-2.8389 2.6827-1.2016.6489-2.5563.9726-4.0627.9726-1.5047 0-2.8626-.3237-4.0721-.9726Zm6.3948-2.4743c.69-.3947 1.2331-.9442 1.6263-1.6468.3932-.7042.5905-1.5063.5905-2.40473 0-.89684-.1973-1.69737-.5905-2.40316-.3932-.70421-.9363-1.25526-1.6263-1.64684-.69-.39474-1.4653-.59053-2.3211-.59053-.8573 0-1.6294.19579-2.321.59053-.69.39316-1.2332.94263-1.6263 1.64684-.3932.70421-.5906 1.50632-.5906 2.40316 0 .89843.1974 1.69893.5906 2.40473.3931.7026.9363 1.2521 1.6263 1.6468.69.3932 1.4637.5906 2.321.5906.8558-.0016 1.6295-.199 2.3211-.5906Zm28.151-11.30522V16.4179H68.3949V1.91368h3.3363V13.6832h4.5805V1.91368h3.3363V13.6832h4.56V1.91368h3.3363ZM103.369 13.7258v2.6921H92.1359V1.91368H103.1v2.69527h-7.6262v3.15h6.7362v2.60995h-6.7362v3.3569h7.8952Zm16.667-11.81212V16.4179h-3.317V4.64842h-4.974l-.104 3.02526c-.07 2.05895-.236 3.72632-.498 5.00372-.262 1.2773-.701 2.2579-1.315 2.9415-.614.6837-1.475 1.0248-2.58 1.0248-.456 0-1.009-.0758-1.658-.2274l.207-2.8374c.18.0537.379.0822.602.0822.8 0 1.359-.4737 1.678-1.4195.317-.9458.518-2.42844.602-4.44476l.206-5.88473h11.151v.00157Zm15.429 11.81212v2.6921h-11.231V1.91368h10.965v2.69527h-7.627v3.15h6.734v2.60995h-6.734v3.3569h7.893Zm16.197-3.5842c.471.5937.706 1.3247.706 2.1947 0 1.2853-.486 2.2863-1.461 3.0048-.974.7184-2.366 1.0768-4.176 1.0768h-7.151V1.91368h6.756c1.687 0 2.999.32527 3.938.97421.94.64895 1.409 1.57422 1.409 2.77737 0 .71842-.179 1.34842-.537 1.89474-.362.54632-.865.97737-1.514 1.29474.884.26368 1.563.69316 2.03 1.28686Zm-8.744-2.21844h3.128c.733 0 1.285-.14842 1.659-.44527.371-.29684.559-.73578.559-1.31684 0-.56526-.191-.99947-.568-1.30579-.381-.30315-.932-.45473-1.65-.45473h-3.128v3.52263Zm6.052 4.14474c0-1.2016-.788-1.8047-2.364-1.8047h-3.688v3.6679h3.688c1.576 0 2.364-.6206 2.364-1.8632ZM11.1691 14.6921 24.0833 0H4.05591c-.13964 0-.27765.00710526-.41371.0209731C1.60144.228991.00275188 1.95859.00275188 4.05316V25.68c-.00575579.1597-.00102071.2735.00105932.3235.00020238.0049.00037962.0092.00051962.0128l.00631578.0932c.0031579.0979.0078947.1958.0189474.2921l.0110526.1737.0157895-.0016C.358015 28.5111 2.03486 30 4.05749 30H26.4628L11.1691 14.6921ZM2.13117 26.13l-.00947-.2053v-.1768c.01105-.2653.07737-.8558.41842-1.309.04421-.0552.37105-.4247.74211-.84l6.48-7.3121L21.347 27.8811H4.05591c-.06276-.0001-.12484-.0032-.18608-.0092-.91868-.0894-1.65132-.8227-1.73866-1.7419ZM2.12328 4.05316c0-1.06579.86684-1.93421 1.93263-1.93421H19.397L8.95223 14.0053l-6.82895 7.7052V4.05316Z"/>
</svg>