<svg xmlns="http://www.w3.org/2000/svg" viewBox="0 0 170 30">
	<path fill="#fff" d="M19.4 2.6V0l-1.6001 1.4L16.5 0l-1.2 1.4L13.7 0v2.6c.9-.2 1.9-.3 2.9-.3.9 0 1.8.1 2.8.3Zm-2.9 1.1.5999.7L16.5 5l-.6-.7c-.1 0 .6-.6.6-.6Zm15.7 11.8.0999-.4h-1c-.4 0-.6.2-.7.6-.1.5-.2 1-.3 1.7-.1.7-.5.8-1.2.8.3-4.6-2.2999-8.9-6.3999-11-.5-.2-.9001-.4-1.4001-.6v.1c.5.2 1.0001.5 1.4001.8 3.8 2.4 5.5999 6.6 4.8999 10.7-.7 0-1.2 0-1.3-.8-.1-.8-.1999-1.3-.2999-1.7-.1-.4-.3001-.6-.7001-.6h-1l.1001.4h.6v.2h-.6l.1.4h.5999v.2H24.5l.0999.4H25.2c.1.6.2 1.2.3 1.5.1.5.2999 1.3 1.7999 1.4-.3.8-.5999 1.6-1.0999 2.4-2.9 4.6-9 5.9-13.6 2.9-1.9-1.2-3.20005-3.2-3.80005-5.3C10.2 19.5 10.4 18.8 10.6 18.2c.1-.2.2-.9.3-1.5h.6l.1-.4H11v-.2h.6l.1-.4h-.6v-.2h.6l.1-.4h-1c-.4 0-.6.2-.7.6-.10005.5-.20005 1-.30005 1.7-.1.7-.5.8-1.2.8-.2-2 .2-4 1.4-5.8C12.2 9.2 16.1 8.1 19.5 9.1l-2.8-2.9 2.8-2.9c-2.2-.5-4.4-.4-6.5.2-2 .6-3.80005 1.7-5.10005 3.3-2.9 3.1-3.8 8.2-2.6 12.3 1.1 4.1 4.5 7.6 8.70005 8.6 1.9.5 4 .5 5.9 0v.1c-1.9.5-4 .6-6 .1-4.30005-.9-7.90005-4.3-9.10005-8.6-1-3.4-.8-7.2.9-10.3l-.1-.1c-.8 1.2-1.5 2.6-1.8 4.1-.4 1.7-.5 3.4-.3 5.1-.7 0-1.2 0-1.3-.8-.1-.8-.2-1.3-.3-1.7-.1-.4-.3-.6-.7-.6H.199951l.100001.4h.599999v.2H.299952l.099999.4h.6v.2h-.6l.1.4h.599999c.1.6.2 1.2.3 1.5.1.5.3 1.4 1.9 1.4h.4v.1c1.2 4.8 4.9 8.7 10.10005 9.9 6.8 1.6 13.5999-2.6 15.2999-9.4.1-.2.1001-.4.1001-.7h.2c1.6 0 1.7999-.8 1.8999-1.4.1-.2.2-.9.3-1.5H32.2l.0999-.4H31.7v-.2h.5999l.1001-.4h-.6001v-.2c-.2.2.4001.2.4001.2ZM105.2 14.6992c-.4 0-.9.1-.9.1V9.89922h-1.9V23.2992h2.5c2.3 0 3.8-1.9 3.8-4.5.1-2.6-1.1-4.1-3.5-4.1Zm0 7h-.8v-5.2s.3-.1.7-.1c1.1 0 1.8.8 1.8 2.6 0 1.6-.7 2.7-1.7 2.7Zm-10-11.79998s-.3 5.99998-.5 8.29998c-.2 2.1-.3 2.8-.5 3.1-.2.3-.4.4-.7.5-.4.1-.6999 0-.6999 0l.6 1.8H93.5c.6 0 1.3-.2 1.6-.5.6-.5.9-1.2 1.1-2.1.1-.7.2-1.6.4-3.6 0-.5.4-5.8.4-5.8h1.5v11.8h1.9V9.89922h-5.2Zm61.4 0s-.3 5.99998-.5 8.29998c-.2 2.1-.3 2.8-.5 3.1-.2.3-.4.4-.7.5-.4.1-.7 0-.7 0l.6 1.8h.1c.6 0 1.3-.2 1.6-.5.6-.5.9-1.2 1.1-2.1.1-.7.2-1.6.4-3.6 0-.5.4-5.8.4-5.8h1.5v11.8h1.9V9.89922h-5.2ZM80.4001 14.3992l4-7.99998h-2.1L78.6 14.2992V6.29922h-1.9V23.2992h1.9v-8.5l4.1 8.5 2.1001-.2-4.4-8.7Zm36.5999 7.2V9.69922h-1.9V21.5992h-2.7V9.69922h-1.9V23.1992h6.1v2.9h1.8v-4.5H117Zm18.6-15.29998-1.8 9.89998c-.3-1.8-.5-3-.8-4.6-.1-.4-1.2-5.29998-1.2-5.29998h-2L133 18.9992s-.1.4-.2 1.2c-.2.9-.4 1.6-1.9 1.6h-.4l.6 1.8h.6c.8 0 1.5-.2 1.9-.8.4-.4.7-1 1-2.2.2-1 3.1-14.39998 3.1-14.39998l-2.1.1Zm6.4 3.3c-.6 0-1.4.4-1.9.89998l-.1-.59998h-1.8s.4 2.49998.4 2.89998v15.1h1.9v-4.7c.2.2.7.5 1.4.5 3.3 0 3.5-4.7 3.5-7.5-.1-3.4-.6-6.59998-3.4-6.59998Zm-.2 12.39998c-.5 0-1.1-.2-1.3-.5v-9.7c.4-.3.8-.5 1.2-.5 1.1 0 1.7 1.1 1.7 4.9 0 4.6-.6 5.8-1.6 5.8Zm11.3-.9v-8.1c0-2.1-.7-3.39998-2.8-3.39998-.8 0-2.1.4-2.9.79998.1.2.5 1.4.5 1.5.6-.2 1.5-.6 2-.6.9 0 1.3.8 1.3 1.9v1.7c-.4-.1-.8-.1-1.2-.1-1 0-1.9.4-2.5 1.2-.6.8-.9 2.1-.9 3.4 0 2.6 1 4.3 2.8 4.3.6 0 1.5-.4 1.9-1 0 .2.1.8.1.8h1.7c.2-.2 0-1.7 0-2.4Zm-1.9.2c-.3.4-.7.6-1.1.6-.8 0-1.4-.6-1.4-2.8 0-1.7.5-2.8 1.6-2.8.4 0 .6 0 .9.1v4.9Zm15.5.6c-.8 0-1.4-.6-1.4-2.8 0-1.7.5-2.8 1.6-2.8.4 0 .6 0 .9.1v4.9c-.2.4-.6.6-1.1.6Zm3.1-.9v-8c0-2-.7-3.39998-2.8-3.39998-.8 0-2.1.4-2.9.79998.1.2.5 1.4.5 1.5.6-.2 1.5-.6 2-.6.9 0 1.3.8 1.3 1.9v1.7c-.4-.1-.8-.1-1.2-.1-1 0-1.9.4-2.5 1.2-.6.8-.8 2.1-.8 3.4 0 2.6 1 4.3 2.8 4.3.6 0 1.5-.4 1.9-1 0 .2.1.8.1.8h1.7c.1-.2-.1-1.7-.1-2.5ZM88.8001 9.59922c-2.2 0-3.5 1.49998-3.5 6.99998s1.2999 7 3.3999 7c2.2 0 3.6001-1.9 3.6001-7-.1-5.1-1.3-6.99998-3.5-6.99998Zm0 12.39998c-1.4 0-1.6001-3.2-1.6001-5.4s0-5.4 1.5-5.4c1.4 0 1.5 2.4 1.5 5.4 0 3-.0999 5.4-1.3999 5.4ZM123.1 9.59922c-2.2 0-3.5 1.49998-3.5 6.99998s1.3 7 3.4 7c2.2 0 3.6-1.9 3.6-7-.1-5.1-1.3-6.99998-3.5-6.99998Zm0 12.39998c-1.4 0-1.6-3.2-1.6-5.4s0-5.4 1.5-5.4c1.4 0 1.5 2.4 1.5 5.4 0 3-.1 5.4-1.4 5.4Zm-69-.9v-8.1c0-2.1-.6999-3.39998-2.7999-3.39998-.8 0-2.1.4-2.9.79998.1.2.5 1.4.5 1.5.6-.2 1.5-.6 2-.6.9 0 1.2999.8 1.2999 1.9v1.7c-.4-.1-.8-.1-1.2-.1-1 0-1.9.4-2.5 1.2-.6.8-.7999 2.1-.7999 3.4 0 2.6.9999 4.3 2.7999 4.3.6 0 1.5001-.4 1.9001-1 0 .2.0999.8.0999.8h1.7c.1-.2-.1-1.7-.1-2.4Zm-1.9.2c-.2.5-.7.7-1.1.7-.8 0-1.4-.6-1.4-2.8 0-1.7.5001-2.8 1.6001-2.8.4 0 .5999 0 .8999.1v4.8Zm9.2001-11.39998H61.1v5.39998h-2.9V9.89922h-1.8999V23.2992H58.2v-6.3h2.9v6.4H63V9.89922h-1.5999ZM68.7 15.8992l3.4-6.09998-2-.1-3 6.09998V9.79922h-1.9V23.2992h1.9v-6.8l3.3001 6.9 2.0999-.1c0-.1-3.8-7.4-3.8-7.4Zm-26.7-3.5c-.8 0-1.2999.2-1.2999.2V8.09922h4.7v-1.6H38.8V23.3992H42c2.1 0 4.3-1.5 4.3-5.6-.1-4.1-1.8-5.4-4.3-5.4Zm-.4 9.3h-.8999v-7.5s.3999-.2 1.0999-.2c1.6 0 2.4001 1.2 2.4001 3.6.1 2.4-.7001 4.1-2.6001 4.1Z"/>
</svg>