<svg xmlns="http://www.w3.org/2000/svg" viewBox="0 0 170 36">
	<g fill="#fff">
		<path d="M35.7 5.8c-.8 0-1.5-.4-1.5-1.3h-1c0 1.4 1.1 2.1 2.5 2.1S38 5.5 38 4.8s-.5-1.3-1.1-1.4c.2 0 .4-.2.6-.4.2-.2.3-.5.3-.9 0-1.1-1-1.6-2.1-1.6s-2.2.5-2.2 1.9h1c0-.7.6-1 1.3-1s1 .3 1 .8-.4.9-.9.9h-.7v.8h.7c.7 0 1.1.3 1.1.9s-.4 1-1.2 1ZM24 4.5l.9-.8 1.9 2.8h1.3L25.6 3 28 .6h-1.3L24 3.3V.6h-1v5.9h1v-2zM30.1 4.9c-.2.4-.3.6-.5.8h-.2c-.4 0-.6 0-.7-.1v.9c.2 0 .4.1.7.1.7 0 1.2-.3 1.7-1.3L33.4.6h-1.1l-1.5 3.2L29.4.6h-1.1l2 4.2ZM43.7 4.7c0-1.2-.7-1.8-2-1.8h-1.8V1.5h3.3V.6h-4.3v5.9h2.8c1.3 0 2-.7 2-1.8Zm-3.7 1v-2h1.7c.6 0 1 .4 1 1s-.3 1-1 1H40ZM45.7 5H48l.6 1.6h1.1L47.4.7h-1.1L44 6.6h1.1l.6-1.6Zm1.2-3.3.9 2.5H46l.9-2.5ZM52.7 6.7c1.5 0 2.5-1 2.6-2.4h-1c-.1.9-.5 1.5-1.5 1.5s-1.7-1.1-1.7-2.2.5-2.2 1.7-2.2 1.3.4 1.5 1.1h1c-.2-1.4-1.3-2-2.5-2C51 .5 50 1.9 50 3.6s1.1 3.1 2.8 3.1ZM58.7 6.7c1.5 0 2.5-1 2.6-2.4h-1c-.1.9-.5 1.5-1.5 1.5s-1.7-1.1-1.7-2.2.5-2.2 1.7-2.2 1.3.4 1.5 1.1h1c-.2-1.4-1.3-2-2.5-2C57 .5 56 1.9 56 3.6s1.1 3.1 2.8 3.1ZM82.9 3.6l-.5.9L93.7 11v13.5h1V10.4h-.1L82.9 3.6zM71 10.6h-1v14.1l11.7 6.8.5-.9L71 24.1V10.6z"/>
		<path d="M89.2 20.3h-.3l-2.6-4.5-2.6-4.6c.3-.3.5-.8.5-1.3 0-1-.8-1.9-1.9-1.9s-1.9.8-1.9 1.9.2.9.5 1.3l-2.6 4.6-2.5 4.4h-.4c-1 0-1.9.8-1.9 1.9s.8 1.9 1.9 1.9 1.4-.5 1.7-1.1h10.4c.2.7.9 1.3 1.8 1.3s1.9-.8 1.9-1.9-.8-1.9-1.9-1.9Zm-1.8 1.4H77.2c0-.4-.3-.8-.5-1.1l2.5-4.4 2.6-4.6h1l2.6 4.6 2.6 4.4c-.3.3-.5.6-.6 1ZM116.6 18.7h3.2l-1.6-4.5-1.6 4.5zM107.1 17.7h-2.8v3.5h2.8c1.3 0 2.1-.5 2.1-1.8s-.9-1.7-2.1-1.7Z"/>
		<path d="M152.7 8.5H97l-7.1-4.1L82.3 0l-7.6 4.4-7.1 4.1H0l17.3 17.9h50.1l7.5 4.3 7.6 4.4 7.6-4.4 7.5-4.3h72.6L152.9 8.5Zm-119 14.9L31 19.2l-2.7 4.2h-3l4.3-6.3-3.9-5.8h3.1l2.4 3.9 2.4-3.9h2.9l-3.9 5.8 4.2 6.3h-3.2Zm14.6 0h-2.7V15L41 23.4h-3V11.3h2.7v8.4l4.6-8.4h3v12.1Zm15.4 0h-2.5v-8.6l-3 8.6h-2.1l-3-8.5v8.5h-2.5V11.3h3.8l2.8 8.3 2.8-8.3h3.7v12.1ZM96.9 26l-7.3 4.2-7.3 4.2-7.3-4.2-7.3-4.2V9.1L75 4.9 82.3.7l7.3 4.2 7.3 4.2V26Zm10.4-2.6h-5.7V11.3h9v2.2h-6.3v2.2h3.2c2.4 0 4.3 1.2 4.3 3.9s-1.8 3.9-4.4 3.9Zm14.1 0-1-2.7h-4.5l-1 2.7h-2.7l4.6-12.1h2.7l4.6 12.1h-2.8Zm14 0h-2.7v-5.2h-4.9v5.2h-2.7V11.3h2.7v4.6h4.9v-4.6h2.7v12.1Zm10.3 0L142 18l-1.5 1.5v3.9h-2.6V11.3h2.6v5l4.8-5h3.3l-4.7 4.8 5.2 7.3h-3.3Z"/>
	</g>
</svg>