<svg xmlns="http://www.w3.org/2000/svg" viewBox="0 0 140 28">
	<g fill="#fff">
		<path d="M12.9774 26.3367 0 13.4766v12.8601h12.9774ZM12.9775 26.3367l12.9728-12.8601v12.8601H12.9775ZM13.0054.6875v22.6387L1.56763 11.9836 13.0054.6875Z"/>
		<path d="M66.9231 1.33764V.622926h-4.1373V1.3606l.8897.07448.2199.17651v7.76389l-.2199.23211-.8897.06989v.71472h4.1467v-.69176l-.8749-.06938-.2342-.23212v-3.6108h.5428c.9456 0 1.343.65452 1.6195 1.30903l1.1371 2.78437v.51066h3.3131v-.69176l-.9639-.06938-.3933-.25048-.9639-2.09312c-.4821-1.06315-.8938-1.81969-2.0309-1.96814v-.02755c.454-.19028.7578-.51066 1.1231-1.34117l.5991-1.3927c.0967-.24946.2294-.48361.3929-.69583l.8843.80296c.138-.00255.2739-.03213.3997-.08723.126-.05459.2398-.13366.3349-.23263.0951-.09896.1691-.21579.2183-.34332.0485-.12754.0722-.26324.0674-.39996.0079-.15508-.0189-.30965-.0783-.45351-.0602-.14336-.151-.271912-.2671-.376492-.1158-.104069-.2538-.181611-.4038-.226504-.1497-.045403-.3081-.056626-.4627-.03418-.9779 0-1.5631.756546-2.0592 1.833456l-.641 1.39219c-.454 1.00702-.7631 1.21159-1.3618 1.21159h-1.0063v-3.3139l.2342-.19946.8655-.09744Zm-16.8246 8.1817L46.7384.506613h-1.535L41.904 9.5474l-.8751.12957v.71473h3.1542v-.71473l-.9358-.10203-.1452-.18569.8892-2.464h3.1871l.8749 2.47829-.1028.19028-.9361.08315v.71473h3.9452v-.7285l-.8611-.14386Zm-3.3601-3.42052h-2.4803l1.2682-3.58275 1.2121 3.58275ZM39.9711.622926V2.94357h-1.0203l-.2199-1.28097-.1918-.22752h-3.0093v3.39705c.2023-.02296.4563-.04438.7124-.06071.1607-.0102.3222-.01836.4721-.02295.098-.00307.1911-.0046.2758-.0046 1.2307 0 3.7439.36221 3.7439 2.78488 0 2.54765-2.7285 2.84045-3.6784 2.84045h-4.563v-.69172l.8798-.06938.2293-.23211v-7.7644l-.2293-.17651-.8798-.07448V.622926h7.4785ZM35.5298 9.56168c.089 0 .1898.0051.2989.01122l.0457.00306c.1484.00868.3102.01786.4744.01786.6397.05407 1.2767-.13315 1.7832-.52443.1957-.18365.3472-.40863.4428-.6586.0957-.24997.1329-.5183.1095-.7846 0-.92846-.5242-2.06506-2.2465-2.06506-.1663.00051-.3326.00867-.4981.02499-.0674.00663-.1347.0148-.2018.02449-.0696.00969-.139.02092-.2081.03367v3.9174ZM55.1951 21.5302c0 3.0165-2.0266 5.105-5.0216 5.105-3.1402 0-4.8765-2.3436-4.8765-5.1514-.0273-.7025.0918-1.4034.3505-2.0585.2584-.6545.6504-1.2493 1.1519-1.7472.9208-.8418 2.1357-1.2963 3.3881-1.2667 2.8923-.0189 5.0076 2.0049 5.0076 5.1188Zm-7.0387-2.9237c-.4688.8826-.6994 1.8707-.6691 2.8681-.0263.9922.1888 1.9758.627 2.868.1923.4102.4971.7581.8795 1.004.3823.2464.8269.3811 1.2827.3882.7581 0 2.728-.6127 2.728-4.1766.0334-1.0243-.1969-2.04-.669-2.9517-.1985-.3846-.5-.708-.8713-.934-.3717-.2255-.7987-.3459-1.2346-.3469-.165.0015-.3288.0199-.4885.0551-.2573.0566-.5042.1566-.73.2959-.3658.2259-.6616.5478-.8547.9299Zm-15.7199 7.0727.9359-.102.2012-.2602v-7.718l-.1729-.1898-.9642-.0699v-.7147h3.8236v.4087l2.279 6.6783 2.2651-6.6692V16.62h3.8702v.7148l-.992.0693-.1638.2046v7.7644l.1638.2367.992.0694v.7147h-4.048v-.7147l.9078-.0694.1451-.2367v-7.8154h-.028l-3.0091 8.8178H37.589l-2.9341-8.7438h-.0235v7.6853l.2199.2602.9032.102v.7147h-3.318v-.7147Zm29.1328.8774c1.0061-.003 2.0039-.1806 2.9484-.5244l.0046-2.4926h-1.0532l-.365 1.7636-.2153.2184c-.0658.0153-.1321.029-.1984.0413l-.0827.0143-.1071.0163c-.1813.0255-.3642.0403-.5479.0439-2.4987 0-3.4348-1.9814-3.4348-4.1766 0-1.7217.5852-2.6966 1.1139-3.221.5824-.5602 1.3649-.8688 2.1763-.8586.4-.0041.7971.075 1.1649.2321l.2064.2505.2711 1.5411h1.0813v-2.4323c-.8992-.3347-1.8483-.5168-2.8079-.5383-1.3399-.0576-2.6563.3623-3.7115 1.1836-.5548.4856-.9941 1.0871-1.2871 1.761-.2931.6739-.4321 1.4039-.4071 2.1375-.0067.4602.05.9178.1673 1.3611l.0383.1367.0148.049.0339.1066c.0372.1127.0783.2239.1234.3341.2587.6306.6426 1.203 1.1295 1.6835.4941.4734 1.0818.8397 1.7263 1.0754.6449.2357 1.3318.3357 2.0176.2938Zm8.0912-9.932v.7147l-.8797.0699-.2342.2041v3.3368h1.0108c.5992 0 .9033-.204 1.3573-1.211l.6415-1.3927c.4956-1.0764 1.0807-1.8564 2.0587-1.8564.1551-.0225.3135-.0113.4627.0336.15.0454.288.123.404.227.1158.1046.2074.2332.2668.3765.0597.1439.0867.2985.0788.4535.0044.1368-.0186.2725-.0678.4l-.0225.0536-.0079.0173-.0237.0475-.0125.0219-.0344.0561c-.0161.0245-.0332.0485-.0513.0714l-.0326.0393-.0334.0362c-.0947.099-.2084.1781-.3344.2327-.1263.055-.2623.0846-.3995.0872l-.8616-.7984c-.1666.2112-.3008.4454-.3974.6958l-.5992 1.3927c-.3653.8306-.6693 1.1509-1.1231 1.3412v.0276c1.142.1438 1.5488.9284 2.0309 1.9681l.9644 2.0931.3928.2505.9645.0694v.7147h-3.3277v-.5102l-1.142-2.7848c-.2757-.6545-.6693-1.3131-1.6194-1.3131h-.5428v3.6103l.2342.2367.8797.0698v.7148h-4.1416v-.7428l.8938-.0694.2152-.2367v-7.7598l-.2152-.2041-.8938-.0699v-.7147h4.1416ZM83.5693 18.88c0-2.0233-2.265-2.2554-3.1399-2.2554h-4.5255v.7147l.8749.0694.2342.2046v7.7598l-.2342.2362-.8749.0699v.7239h4.5536c.9356 0 3.6829-.2643 3.6829-2.7844 0-1.2947-.8608-2.39-2.569-2.39h-.0888v-.0281c1.0948-.2785 2.0867-.8494 2.0867-2.3206Zm-4.4392 2.09c-.063-.0005-.126-.0025-.1891-.0061l.0141-3.5455c.1553-.0199.3114-.0311.468-.0326.5576-.0393 1.1134.0933 1.5914.3805.1875.1674.3337.3755.4268.6081.0505.126.0849.2571.1025.3908.0151.1133.0181.228.0087.3423.0199.2571-.0184.5153-.1112.756-.0931.2408-.2388.4582-.4268.6362-.4895.3316-1.0746.4948-1.6666.4642-.0725.0046-.1451.0067-.2178.0061Zm.0867 4.6072c-.1028-.0072-.1972-.0138-.2758-.0138v-3.7547c.1883-.0097.3344-.0158.4492-.0199.2219-.0081.3252-.0081.3842-.0081.354-.0153.7068.026 1.045.1209.1921.054.3793.125.5596.2132.1347.0913.2543.2015.3559.3265.0464.0571.089.1173.1272.1806.0314.0515.06.1046.0857.1592.1266.2688.1773.5657.1475.8606.0194.2617-.0174.5239-.1077.7703-.0903.2464-.2323.4714-.4162.6591-.5569.4923-1.4325.5244-1.961.5244-.1232 0-.2464-.0097-.3599-.0183h-.0337Zm10.9609-9.0546 3.3553 9.0127.8613.1439v.7147h-3.9408v-.7147l.9361-.0837.1028-.1903-.8749-2.4782h-3.1823l-.8751 2.4645.1446.1857.9364.102v.7147h-3.1402v-.7147l.8797-.1301 3.2759-9.0265h1.5212Zm-2.4851 5.5922h2.4851l-1.2126-3.5965-1.2725 3.5965Zm10.5528 1.4856v-1.4295h-3.711v1.4295h3.711Zm9.5986 2.4318c-.946.3438-1.946.5214-2.953.5244-.686.0424-1.373-.0576-2.018-.2933-.434-.1586-.842-.3765-1.212-.6463-.181-.1312-.352-.2745-.514-.4296-.487-.4805-.87-1.0529-1.13-1.6835-.2582-.631-.3868-1.3064-.3768-1.9875-.025-.7336.114-1.4636.4068-2.1375.293-.6739.733-1.2754 1.287-1.761 1.054-.8239 2.372-1.2437 3.711-1.1836.96.022 1.91.2041 2.808.5388v2.4318h-1.081l-.276-1.5549-.206-.2505c-.369-.1571-.768-.2357-1.169-.2321-.808-.001-1.585.3122-2.163.8724-.524.5244-1.109 1.4993-1.109 3.221 0 2.1952.936 4.1766 3.435 4.1766.316-.0057.629-.0444.936-.1158l.22-.2184.365-1.7636h1.053l-.014 2.4926Zm5.124-8.6929v-.7147h-4.127v.7147l.847.0694.234.2367v7.7277l-.234.2362-.847.0699v.7147h4.118v-.7147l-.875-.0699-.234-.2362v-.5525l4.507-5.5182v6.0707l-.22.2362-.889.0699v.7147h4.118v-.7147l-.847-.0699-.234-.2362v-7.7277l.234-.2367.847-.0694v-.7147h-4.118v.7147l.889.0694.22.2367v.4041l-4.498 5.5228v-5.9269l.235-.2367.874-.0694Zm15.674-.7147v2.5758h-1.006l-.249-1.555-.219-.1903h-1.746v7.918l.248.2362.936.0699v.7147h-4.366v-.7147l.935-.0699.249-.2362v-7.918h-1.746l-.234.1903-.234 1.555h-1.006v-2.5758h8.438Zm4.965.7147v-.7147h-4.118v.7147l.847.0694.234.2367v7.7277l-.234.2362-.847.0699v.7147h4.118v-.7147l-.88-.0699-.229-.2362v-.5525l4.498-5.5182v6.0707l-.22.2362-.894.0699v.7147H140v-.7147l-.847-.0699-.234-.2362v-7.7277l.234-.2367.847-.0694v-.7147h-4.118v.7147l.894.0694.22.2367v.4041l-4.498 5.5228v-5.9269l.229-.2367.88-.0694ZM55.6907.622926v.714714l-.8703.09744-.2339.23211v3.16494h4.212v-3.1884l-.2199-.23161-.894-.07448V.622926h4.1187v.714714l-.8239.09744-.2293.23211v7.7088l.2293.23211.8468.06938v.71472h-4.1179v-.71472l.8938-.06938.2199-.23211v-3.671H54.61v3.671l.2339.23211.8751.06938v.71472h-4.1184v-.71472l.8471-.06938.2342-.23211V1.64373l-.2671-.20865-.8468-.07448V.622926h4.1227Z"/>
	</g>
</svg>