<svg xmlns="http://www.w3.org/2000/svg" viewBox="0 0 120 36">
	<g fill="#fff">
		<path d="M34.4471 15.7998c.2464 4.1879-2.2933 7.5816-8.5993 11.1044.5561-4.487-.0096-9.25-1.8769-11.8449 1.2881-3.0412 2.0979-6.32203 2.1465-8.89379.3545.16896 8.0019 4.01879 8.3297 9.63429Zm-11.0558-1.4331c-.1347-.1361-.2719-.2626-.4176-.3805-1.9438-1.5614-4.9024-2.049-9.1153-1.1796.8317-6.51525 5.1294-9.68413 11.4997-6.98461-.0024 2.42832-.7467 5.62151-1.9668 8.54471Z"/>
		<path d="M9.64695 15.2412c1.08295-.4925 2.08825-.895 3.03035-1.2184-.0122.1143-.5621 3.6419.3909 8.4511-1.3161-.1289-2.8033-.4876-4.50781-1.0931-1.55768-.5521-3.24768-1.3558-4.71064-2.421 1.64392-1.6708 4.01256-2.9002 5.7972-3.7186Zm-6.9436 2.7947c-1.64872-1.52-2.7838426-3.4497-2.69888259-5.8294C.162307 8.10376 3.92711 5.08687 7.54262 3.28964c1.73128-.85727 15.78898-7.27405 17.64888.54719.0182.07783.1336.80985.1397.87065-.1567-.33561-3.8559-1.58808-6.6483-.46329-4.0125 1.62453-5.4148 5.57413-5.887 8.80501-.726.1775-1.4775.3939-2.2703.6445-2.55321.8183-5.80937 2.1522-7.82225 4.3422Zm11.07255-4.3527c3.1432-.8901 5.4536-.7345 7.089.2772.6895.4244 1.2892 1.1126 1.8004 1.9918-1.0502 2.1098-2.3456 3.9532-3.7709 5.0634-.6131.4852-1.2979.8634-2.0663 1.1175-.6908.2432-1.4569.3818-2.3032.4049-.5147-1.948-.7539-4.2997-.8036-6.8995-.0158-.6785 0-1.3291.0546-1.9553Z"/>
		<path d="M14.994 26.3676c2.274 2.5633 6.0206 2.7955 9.6895 1.8495-.3181 3.2382-1.3003 6.0167-3.0073 7.0564-3.3156 1.8215-11.0723-1.6659-15.82412-5.9608-1.79928-1.6136-3.16384-3.3415-3.692-4.9442-.2088-.6177-.29376-1.2184-.23432-1.7827.13112-1.1649.67744-2.2057 1.46176-3.1214 1.2796 1.1236 2.72072 2.0453 4.11688 2.7554 2.36624 1.1929 4.3755 1.8046 6.1153 1.914.3581.8499.8122 1.6015 1.3743 2.2338Zm3.5975-3.6139c1.7058-1.2208 3.2792-3.3974 4.5455-5.8963 1.2833 2.7907 1.8478 6.8752 1.6148 10.5281-.8172.3258-1.6354.5642-2.4331.687-2.1064.4134-4.0841.1568-5.5191-1.1904-.7321-.6896-1.3149-1.6332-1.7641-2.7713 1.3416-.1387 2.5083-.6055 3.556-1.3571ZM43.5399 16.1329c-.0813 0-.1504-.0285-.2074-.0855-.0569-.0569-.0854-.126-.0854-.2073V7.89774c0-.08944.0264-.16264.0793-.2196.0528-.05696.124-.08544.2135-.08544h.9882c.1546 0 .2766.07728.366.23184l2.3546 4.36766 2.3547-4.36766c.0894-.15456.2114-.23184.366-.23184h.976c.0895 0 .1626.02848.2196.08544.0569.05696.0854.13016.0854.2196v7.94236c0 .0894-.0285.1606-.0854.2135-.057.0528-.1301.0793-.2196.0793h-1.0492c-.0814 0-.1505-.0285-.2075-.0855-.0568-.0569-.0853-.126-.0853-.2073V10.594l-1.6959 3.2209c-.0894.1788-.2236.2684-.4025.2684h-.5124c-.1709 0-.3091-.0896-.4149-.2684L44.882 10.594v5.2461c0 .0813-.0265.1504-.0794.2073-.0528.057-.124.0855-.2135.0855h-1.0492Zm12.9949.122c-1.1143 0-1.9805-.2807-2.5986-.8419-.6182-.5612-.9435-1.3949-.976-2.501-.0082-.2359-.0123-.5815-.0123-1.037 0-.4636.0041-.8133.0123-1.0492.0325-1.08174.366-1.91134 1.0004-2.48886.6344-.57744 1.4925-.86624 2.5742-.86624 1.0736 0 1.9297.2888 2.5682.86624.6385.57752.9738 1.40712 1.0066 2.48886.016.4717.024.8215.024 1.0492 0 .2196-.008.5653-.024 1.037-.0328 1.1061-.3601 1.9398-.9822 2.501-.6223.5612-1.4864.8419-2.5926.8419Zm0-1.4152c.545 0 .976-.1628 1.2932-.488.3172-.3254.488-.8256.5124-1.5007.0163-.488.0244-.8174.0244-.9882 0-.1871-.0081-.5165-.0244-.9882-.0244-.6669-.1993-1.1651-.5245-1.49454-.3254-.32944-.7524-.49408-1.2811-.49408-.5368 0-.9679.16464-1.2932.49408-.3253.32944-.4961.82764-.5124 1.49454-.0081.2359-.0122.5652-.0122.9882 0 .4148.0041.7442.0122.9882.0163.667.185 1.1651.5063 1.4945.3212.3294.7544.4942 1.2993.4942ZM62.1 16.1329c-.0816 0-.1504-.0285-.2072-.0855-.0576-.0569-.0856-.126-.0856-.2073V7.89774c0-.08944.0264-.16264.0792-.2196.0528-.05696.124-.08544.2136-.08544h5.5872c.0896 0 .1632.02848.22.08544.0568.05696.0856.13016.0856.2196v.86624c0 .08944-.0288.16064-.0856.21344-.0568.05288-.1304.07936-.22.07936h-4.16v1.93982h2.0376c.9192 0 1.6408.2277 2.1656.6832.524.4555.7864 1.0736.7864 1.8544 0 .4636-.1136.8927-.3416 1.2871-.2272.3945-.5632.7117-1.0064.9516-.4432.24-.9776.36-1.604.36H62.1Zm3.2936-1.3055c.4152 0 .7448-.1261.9888-.3781.244-.2522.3656-.5653.3656-.9395 0-.366-.116-.6649-.348-.8967-.2312-.2318-.5672-.3477-1.0064-.3477h-1.8664v2.562h1.8664Zm4.7112 1.3055c-.0896 0-.1608-.0285-.2136-.0855-.0528-.0569-.0792-.1301-.0792-.2196V7.89774c0-.08944.0264-.16264.0792-.2196.0528-.05696.124-.08544.2136-.08544h1.1344c.0816 0 .1504.02848.208.08544.0568.05696.0848.13016.0848.2196v5.57546l3.9896-5.67306c.0736-.13824.1912-.20744.3536-.20744H76.9c.0896 0 .1608.02848.2136.08544.0528.05696.0792.13016.0792.2196v7.94236c0 .0813-.0264.1504-.0792.2073-.0528.057-.124.0855-.2136.0855h-1.1224c-.0888 0-.1624-.0285-.2192-.0855-.0568-.0569-.0856-.126-.0856-.2073v-5.4536l-3.9768 5.5389c-.0816.1383-.1992.2075-.3544.2075h-1.0368Zm14.7272 0c-.0808 0-.1504-.0285-.2072-.0855-.0568-.0569-.0856-.126-.0856-.2073V9.14214H81.904v1.51276c0 1.3421-.0912 2.4015-.2744 3.1782-.1832.7768-.4944 1.3461-.9336 1.7081-.4392.3619-1.0528.555-1.8416.5794-.0816.0082-.1528-.0182-.2136-.0793-.0608-.0609-.092-.1321-.092-.2135v-.9393c0-.0814.0264-.1464.08-.1952.0528-.0488.1192-.0814.2008-.0976.48-.0732.836-.4494 1.068-1.1286.2312-.6791.3472-1.6897.3472-3.0318V7.88558c0-.08952.0288-.16064.0856-.21352.0568-.05288.1264-.07936.2072-.07936h5.4168c.0896 0 .1632.02848.22.08544.0568.05696.0856.13016.0856.2196v7.94236c0 .0813-.0288.1504-.0856.2073-.0568.057-.1304.0855-.22.0855H84.832Zm3.6984 0c-.0808 0-.1504-.0285-.2072-.0855-.0568-.0569-.0856-.126-.0856-.2073V7.88558c0-.08952.0288-.16064.0856-.21352.0568-.05288.1264-.07936.2072-.07936h1.1224c.0896 0 .1632.02848.22.08544.0568.05696.0856.12608.0856.20744v2.78162H91.52c.976 0 1.728.2297 2.2568.6893.5288.4596.7928 1.1285.7928 2.0069 0 .5287-.116 1.0024-.348 1.4213-.2312.4189-.5768.7483-1.0368.9882-.4592.24-1.0144.36-1.6648.36h-2.9896Zm2.916-1.3787c.4232 0 .7544-.1281.9944-.3843s.36-.5958.36-1.0187c0-.4311-.116-.7584-.348-.9821-.232-.2237-.5672-.3355-1.0064-.3355h-1.488v2.7206h1.488Zm4.8816 1.3787c-.0808 0-.1504-.0285-.2072-.0855-.0568-.0569-.0856-.126-.0856-.2073V7.89774c0-.08944.0264-.16264.0792-.2196.0528-.05696.124-.08544.2136-.08544h1.1224c.0896 0 .1632.02848.22.08544.0568.05696.0856.13016.0856.2196v3.13546h3.562V7.89774c0-.08944.028-.16264.085-.2196.058-.05696.127-.08544.208-.08544h1.135c.089 0 .16.02848.213.08544.053.05696.079.13016.079.2196v7.94236c0 .0813-.026.1504-.079.2073-.053.057-.124.0855-.213.0855h-1.135c-.081 0-.15-.0285-.208-.0855-.057-.0569-.085-.126-.085-.2073v-3.2575h-3.562v3.2575c0 .0813-.0288.1504-.0856.2073-.0568.057-.1304.0855-.22.0855H96.328Zm8.176 0c-.073 0-.134-.0244-.183-.0732-.049-.0488-.073-.1099-.073-.1831l.024-.1097 2.928-7.86916c.082-.20336.228-.30504.439-.30504h1.343c.211 0 .357.10168.439.30504l2.928 7.86916.024.1097c0 .0732-.027.1343-.079.1831-.053.0488-.112.0732-.177.0732h-1.086c-.171 0-.289-.0773-.353-.2319l-.562-1.4761h-3.611l-.561 1.4761c-.066.1546-.183.2319-.354.2319h-1.086Zm2.428-3.1233h2.757l-1.379-3.75762-1.378 3.75762Zm12.775-5.4169c.09 0 .161.02648.214.07936.053.05288.079.124.079.21352v7.95452c0 .0813-.026.1504-.079.2073-.053.057-.124.0855-.214.0855h-1.122c-.09 0-.163-.0265-.219-.0793-.058-.0529-.086-.1241-.086-.2135v-2.7817h-1.342l-1.623 2.745c-.049.1058-.109.1871-.183.244-.073.057-.174.0855-.305.0855h-1.122c-.065 0-.124-.0244-.177-.0732-.053-.0488-.079-.1099-.079-.1831 0-.0406.012-.0853.036-.1341l1.769-2.8915c-.512-.1952-.911-.5063-1.196-.9333-.284-.427-.427-.9496-.427-1.5677 0-.51242.116-.9781.348-1.39698.232-.4188.578-.75024 1.037-.99424.46-.24408 1.015-.36608 1.666-.36608h3.025Zm-1.427 1.36648h-1.538c-.422 0-.752.12808-.988.38432-.236.25616-.353.59576-.353 1.0186 0 .8622.447 1.2933 1.341 1.2933h1.538V8.95918ZM50.0914 27.9182c.0244.0325.0366.0773.0366.1342 0 .0732-.0265.1383-.0793.1952-.0529.0569-.12.0854-.2013.0854h-1.281c-.1627 0-.2847-.0691-.3661-.2074l-2.0862-3.3428h-1.1468v3.2574c0 .0814-.0285.1505-.0853.2074-.057.0569-.1302.0854-.2196.0854h-1.1225c-.0813 0-.1504-.0285-.2074-.0854-.0569-.0569-.0854-.126-.0854-.2074v-7.9423c0-.0894.0264-.1626.0793-.2196.0528-.057.124-.0854.2135-.0854h1.1225c.0894 0 .1626.0284.2196.0854.0568.057.0853.1302.0853.2196v3.1354l1.0492.0123 1.9642-3.2331c.0896-.1464.236-.2196.4393-.2196h1.2443c.0814 0 .1445.0244.1892.0732.0447.0488.0671.1098.0671.183 0 .0406-.0203.0894-.061.1464l-2.2937 3.721 2.5255 4.0017Zm.9167.4148c-.0732 0-.1341-.0244-.1829-.0732-.0488-.0488-.0732-.1098-.0732-.183l.0243-.1098 2.928-7.8691c.0814-.2034.2278-.305.4392-.305h1.3421c.2115 0 .3579.1016.4392.305l2.928 7.8691.0244.1098c0 .0732-.0264.1342-.0793.183-.0528.0488-.1118.0732-.1768.0732h-1.0859c-.1708 0-.2887-.0773-.3538-.2318l-.5612-1.4762H53.009l-.5612 1.4762c-.0651.1545-.1831.2318-.3539.2318h-1.0858Zm2.4278-3.1233h2.7573l-1.3786-3.7576-1.3787 3.7576Zm6.9433 3.1233c-.0808 0-.1504-.0285-.2072-.0854-.0568-.0569-.0856-.126-.0856-.2074v-7.9423c0-.0894.0272-.1626.08-.2196.0528-.057.124-.0854.2128-.0854h3.2704c.984 0 1.7568.2318 2.3176.6954.5616.4636.8416 1.1387.8416 2.0252 0 .8785-.28 1.5434-.8416 1.9948-.5608.4514-1.3336.677-2.3176.677H61.856v2.8549c0 .0895-.0288.1607-.0856.2135-.0568.0528-.1304.0793-.22.0793h-1.1712Zm3.2088-4.5141c.472 0 .832-.1118 1.08-.3355.248-.2237.372-.551.372-.9821 0-.4229-.12-.7523-.36-.9882-.24-.2358-.604-.3538-1.092-.3538h-1.7568v2.6596h1.7568Zm6.8096 4.5141c-.0816 0-.1504-.0285-.2072-.0854-.0568-.0569-.0856-.126-.0856-.2074v-6.7223H67.848c-.0816 0-.1504-.0285-.2072-.0854-.0576-.0569-.0856-.1301-.0856-.2196v-.915c0-.0894.0264-.1626.0792-.2196.0528-.057.124-.0854.2136-.0854h6.2344c.0888 0 .1624.0284.2192.0854.0568.057.0856.1302.0856.2196v.915c0 .0895-.0288.1627-.0856.2196-.0568.0569-.1304.0854-.2192.0854h-2.2448v6.7223c0 .0814-.0264.1505-.08.2074-.0528.0569-.124.0854-.2128.0854h-1.1472Zm3.9128 0c-.0728 0-.1344-.0244-.1832-.0732-.0488-.0488-.0728-.1098-.0728-.183l.024-.1098 2.928-7.8691c.0816-.2034.228-.305.4392-.305h1.3424c.2112 0 .3576.1016.4392.305l2.928 7.8691.024.1098c0 .0732-.0264.1342-.0792.183-.0528.0488-.112.0732-.1768.0732h-1.0856c-.1712 0-.2888-.0773-.3536-.2318l-.5616-1.4762h-3.6112l-.5608 1.4762c-.0656.1545-.1832.2318-.3544.2318h-1.0856Zm2.428-3.1233h2.7568l-1.3784-3.7576-1.3784 3.7576Z"/>
	</g>
</svg>