<svg xmlns="http://www.w3.org/2000/svg" viewBox="0 0 120 34">
	<path fill="url(#a)" d="M31.8586 16.6068c0 8.7071-7.0462 15.7533-15.7533 15.7533-8.70706 0-15.753249-7.0462-15.753249-15.7533C.352051 7.89971 7.39824.853516 16.1053.853516c8.7071 0 15.7533 7.046194 15.7533 15.753284ZM16.1053 1.80978c-8.20376 0-14.79698 6.59323-14.79698 14.79702 0 8.2038 6.64355 14.797 14.79698 14.797 8.2038 0 14.797-6.6436 14.797-14.797 0-8.20379-6.5932-14.79702-14.797-14.79702Z"/>
	<path fill="url(#b)" d="M16.1058 1.80859c-8.20374 0-14.79696 6.59322-14.79696 14.79701 0 8.2038 6.64355 14.797 14.79696 14.797 8.2038 0 14.797-6.6436 14.797-14.797 0-8.20379-6.5932-14.79701-14.797-14.79701Zm0 28.63771c-7.65011 0-13.84069-6.1906-13.84069-13.8407 0-7.65016 6.19058-13.84074 13.84069-13.84074 7.6502 0 13.8408 6.19058 13.8408 13.84074 0 7.6501-6.1906 13.8407-13.8408 13.8407Z"/>
	<path fill="url(#c)" opacity=".4" d="M16.1056 32.3588c8.7071 0 15.7532-7.0461 15.7532-15.7532S24.8127.85231 16.1056.85231.35231 7.8985.35231 16.6056 7.3985 32.3588 16.1056 32.3588Zm0-31.8588c8.858 0 16.1056 7.24751 16.1056 16.1056 0 8.858-7.2476 16.1056-16.1056 16.1056C7.24751 32.7112 0 25.4636 0 16.6056 0 7.74751 7.24751.5 16.1056.5Z"/>
	<path fill="#fff" d="M1.10693 16.6561c0-8.25414 6.69388-15.04868 14.99837-15.04868 8.3044 0 14.9983 6.74421 14.9983 15.04868 0 8.2541-6.6939 14.948-14.9983 14.948-8.30449 0-14.99837-6.6939-14.99837-14.948Zm4.68069-10.368c-2.66749 2.66749-4.32838 6.3416-4.32838 10.368 0 4.0264 1.66089 7.7004 4.27805 10.3176 2.66748 2.6172 6.34161 4.278 10.36801 4.278 4.0263 0 7.7004-1.6105 10.3176-4.278 2.6675-2.6172 4.278-6.2912 4.278-10.3176 0-4.0264-1.6609-7.70051-4.278-10.368-2.6172-2.66748-6.2913-4.32837-10.3176-4.32837-4.0264 0-7.70053 1.66089-10.31768 4.32837Z"/>
	<path fill="url(#d)" opacity=".4" d="M16.1054 30.4989c-3.7244 0-7.19716-1.4595-9.81432-4.0767-2.61716-2.6172-4.07672-6.0899-4.07672-9.8143 0-3.7245 1.45956-7.19722 4.07672-9.81438C8.90824 4.17637 12.381 2.7168 16.1054 2.7168s7.1972 1.45957 9.8144 4.07672c2.6171 2.61716 4.0767 6.08988 4.0767 9.81438 0 3.7244-1.4596 7.1971-4.0767 9.8143-2.6172 2.6172-6.09 4.0767-9.8144 4.0767Zm0-.4026c3.5734 0 6.9959-1.4093 9.5124-3.9258 2.5668-2.5668 3.9257-5.9389 3.9257-9.5123 0-3.5734-1.4092-6.99587-3.9257-9.51237C23.051 4.579 19.6788 3.2201 16.1054 3.2201c-3.5734 0-6.99584 1.40923-9.51234 3.92573C4.02623 9.612 2.61699 13.0344 2.61699 16.6079c0 3.5734 1.40924 6.9958 3.92574 9.5123 2.56683 2.5668 5.98927 3.9761 9.56267 3.9761Z"/>
	<path fill="#fff" d="M28.336 23.1471c-.2517-.2013-9.9653-7.9018-9.9653-7.9018L16.1058 2.31055c-.151.05033-.3523.20132-.453.40264L14.0423 15.2957 4.02663 22.9961s-.20132.2517-.30198.4027c-.05033.1006-.05033.2516-.05033.4026l12.38118-5.0833 12.3811 5.0833c.1007-.2516 0-.5033-.1006-.6543Z"/>
	<path fill="#565F64" d="m16.2064 17.0067-.1007 2.3152 11.3746 4.58c.4026.2013.7046.1007 1.0066-.1006l-12.1295-6.8449c-.0504-.0503-.151 0-.151.0503Z"/>
	<path fill="url(#e)" d="M16.2065 17.0067s.6543 1.1576 1.4093 1.9629c1.0569 1.1576 2.4661 1.9629 2.4661 1.9629l7.3985 2.9694c.4027.2013.7047.1007 1.0066-.1006l-12.1295-6.8449c-.0503-.0503-.151 0-.151.0503Z"/>
	<path fill="#A4AAAE" fill-opacity=".6" d="M28.4365 23.3519c0-.0503-.0504-.1006-.1007-.2013l-10.368-7.5998-1.4092.9059s.1007.0504.151 0c.151-.0503.453-.1006.7549 0 .2517.1007 10.972 6.9456 10.972 6.9456v-.0504Z"/>
	<path fill="#333E46" d="m28.0838 22.8943-9.6633-7.6502-.453.302 10.368 7.6502c-.0503-.1007-.151-.2014-.2517-.302Z"/>
	<path fill="#565F64" d="m16.3572 16.2524-.0504.0503s0 .1007.1007.0503c.0503-.0503 1.5099-.8052 2.0132-1.1072L16.6591 3.16661c-.0503-.45297-.2516-.65429-.6039-.80528l.2013 13.99167.1007-.1006Z"/>
	<path fill="#A4AAAE" fill-opacity=".6" d="M15.5015 3.16691v.65429l-1.1072 11.1229c0 .151.0503.302.2013.4027l.6543.5033.453-12.28055.0503-.95627c-.151.10066-.2013.30198-.2517.55363ZM14.8976 16.0541l-.6039-.5033-10.21703 7.3985s-.30197.2013-.3523.4026l.3523-.2013L14.797 16.4064c.2013-.1007.2516-.2013.1006-.3523Z"/>
	<path fill="#565F64" d="M15.9548 17.0067c0-.0503-.0503-.1006-.1006-.0503L3.67432 23.8516c.30198.2013.60396.2516 1.0066.1007l11.37458-4.5801-.1007-2.3655Z"/>
	<path fill="url(#f)" d="m16.3071 16.3059.0504-.0504-.0504.0504s0 .0503.0504.0503h.0503c.0503-.0503 1.5099-.8053 2.0132-1.1072l-.2013-1.4596-1.5603-10.61963c0-.20132-.0503-.35231-.151-.45297 0 0 .755 10.1666.755 11.2739 0 1.4596-.9563 2.3152-.9563 2.3152Z"/>
	<path fill="url(#g)" fill-opacity=".8" d="M15.9548 17.0067c0-.0503-.0503-.1006-.1006-.0503L3.67432 23.8516c.30198.2013.60396.2516 1.0066.1007l11.37458-4.5801-.1007-2.3655Z"/>
	<path fill="url(#h)" opacity=".8" d="m4.68083 23.9059 11.37457-4.5801-.1007-2.2145c-.2013.604-.5536 1.2583-1.5099 1.7616-.7046.4026-7.4488 3.7244-9.86463 4.882-.15099.1006-.35231.151-.45297.2013.20132.1007.35231.0503.55363-.0503Z"/>
	<path fill="url(#i)" d="m16.3572 16.2524-.0504.0503s0 .1007.1007.0503c.0503-.0503 1.5099-.8052 2.0132-1.1072L16.6591 3.16661c-.0503-.45297-.2516-.65429-.6039-.80528l.2013 13.99167.1007-.1006Z"/>
	<path fill="url(#j)" d="m16.3572 16.2524-.0504.0503s0 .1007.1007.0503c.0503-.0503 1.5099-.8052 2.0132-1.1072L16.6591 3.16661c-.0503-.45297-.2516-.65429-.6039-.80528l.2013 13.99167.1007-.1006Z"/>
	<path fill="url(#k)" d="M2.56657 22.845c-.35231-.8053-2.365509-4.7311-.15099-12.2805h-.85561C1.107 12.0744.75469 12.9803.553371 14.3392c0 0-.10066.5033-.15099 1.0569-.05033.5537-.05033.8556-.05033 1.2079 0 3.0198.754949 4.7814.754949 4.7814.80528 2.5165 2.21452 4.7813 4.12705 6.4926 1.66089 1.4595 4.22772 2.5668 6.34155 2.9694-.3523-.0503-6.39188-2.6171-9.00903-8.0024Z"/>
	<path fill="url(#l)" d="M16.3072 16.9056h-.453c.0504 0 .1007 0 .1007.0503l.1007 2.3152h.0503l.1007-2.3152c0-.0503.0503-.1006.1006-.0503Z"/>
	<path fill="url(#m)" d="M21.1387 1.6582C26.4233 3.6714 31.406 9.20769 31.406 16.2036c0 8.4554-6.7442 15.3506-15.3003 15.3506v.8053c8.5561 0 15.7533-7.0462 15.7533-15.7533 0-6.94554-4.4291-12.78381-10.7203-14.948Z"/>
	<path fill="url(#n)" d="M29.594 10.667c-3.5231-8.10315-11.4752-8.55612-11.9282-8.60645h-.0503c6.0899 1.10726 9.9653 5.08332 11.3242 9.26075v.0503c.604 1.6105.906 3.3218.9563 5.184.0503 1.7615-.3523 3.7244-1.1073 5.5363-.0503.2516-.1006.5536-.151.5536h.8053c2.4159-4.5297 1.3589-9.1097.151-11.9785Z"/>
	<path fill="#FBFBFB" d="M1.10693 16.6561c0-8.25414 6.69388-15.04868 14.99837-15.04868 8.3044 0 14.9983 6.74421 14.9983 15.04868 0 8.2541-6.6939 14.948-14.9983 14.948-8.30449 0-14.99837-6.6939-14.99837-14.948Zm4.68069-10.368c-2.66749 2.66749-4.32838 6.3416-4.32838 10.368 0 4.0264 1.66089 7.7004 4.27805 10.3176 2.66748 2.6172 6.34161 4.278 10.36801 4.278 4.0263 0 7.7004-1.6105 10.3176-4.278 2.6675-2.6172 4.278-6.2912 4.278-10.3176 0-4.0264-1.6609-7.70051-4.278-10.368-2.6172-2.66748-6.2913-4.32837-10.3176-4.32837-4.0264 0-7.70053 1.66089-10.31768 4.32837Z"/>
	<path fill="#333F47" d="m3.97607 23.0501 10.26733-7.3985c.5536.302 1.4596.7046 1.5602.7046.1007.0503.1007-.0503.1007-.0503L14.646 15.249c-.151-.1007-.2013-.2517-.2013-.4027l1.2079-12.1295c-.0503.05033-.0503.15099-.1006.20132-.0504.10066-.0504.15099-.0504.25165L13.7401 15.2993l-9.66337 7.5998c-.05033.0503-.10066.1007-.10066.151Z"/>
	<path fill="#fff" d="M77.8778 13.971c-.2164-.216-.2241-.3729-.2241-4.53065 0-3.32631.0424-4.14871-.2355-4.27642-.1254-.05768-.316.026-.605.0851-.2466.05037-.6373.12269-.8686.16092-.5289.08718-.5407.25017-.0249.34675.2174.04075.4443.1655.5043.27737.0599.11176.109.81465.109 1.56178V8.9541l-.2935-.34817c-.3947-.46812-.8304-.67623-1.4099-.67328-1.4392.00732-2.4198 1.22126-2.5288 3.13085-.0975 1.7074.4616 2.9641 1.5623 3.5116.927.4612 1.6947.3694 2.3457-.2804l.4253-.4246.0895.4521c.0492.2486.1281.4509.1753.4495.0472-.0013.375-.0605.7284-.1314.3535-.071.7583-.1515.8995-.1788.3266-.063.2111-.2668-.1513-.2668-.1505 0-.3744-.1006-.4977-.2237Zm10.9786 10.6373-.0298-3.0631c-.0216-2.2161.0151-2.8757-.235-3.0124-.1392-.0761-.3674.0098-.7438.0795-.3082.0571-.7243.1289-.9246.1596-.5025.0774-.4558.2186.1121.3382l.4763.1001.0296 4.1387c.0246 3.4458.0442 4.2074-.2612 4.3734-.0999.0543-.2347.0449-.4155.0449-.1186 0-.2069.0192-.2517.0518-.0286.0206-.0395.0468-.0296.0767.0638.1908 3.1137.202 3.1137.0113 0-.0768-.1165-.1398-.2588-.1398-.5587 0-.6912-.2381-.7258-1.3054l-.0321-.9879.5307-.5484c.2919-.3016.5466-.5029.5661-.4475.0196.0557.4761.8791 1.0144 1.8303l.9787 1.7293.9806.0068c.7211.005.9806-.0308.9806-.1352 0-.0476-.0482-.0899-.1218-.1157-.0473-.0166-.1049-.0263-.1669-.0263-.4282 0-.7805-.4239-1.935-2.3276l-1.0386-1.7122.7914-.8761c.7769-.8604 1.3209-1.2368 1.7874-1.2368.1295 0 .2353-.0634.2353-.1409 0-.106-.3482-.1407-1.4009-.1399-1.4155.0011-1.7807.1207-1.044.3415.1963.0589.3753.165.3978.2356.0224.0706-.5037.7064-1.1694 1.413l-1.2102 1.2845ZM43.3609 12.1252c-.041.0253-.6494-1.5123-1.3521-3.41702l-1.2775-3.46286h-1.2627c-.9955 0-1.2628.03245-1.2628.15349 0 .09177.1746.18135.4337.22275.1918.03059.3339.0461.4366.11777.3023.21084.2646.90728.1528 3.90247-.074 1.9812-.1629 3.7941-.1977 4.0291-.065.4394-.1976.546-.8534.686-.1696.0362-.3082.1277-.3082.2036 0 .1023.3606.1347 1.4032.126.7717-.0065 1.4385-.0469 1.4817-.0901.1072-.1071-.1977-.286-.491-.2881-.1319-.001-.3478-.0898-.4797-.1975l-.2399-.1958.1202-3.3c.0997-2.74003.1156-3.89552.2827-3.9177.1321-.01759.3586.67273.7956 1.84811.4574 1.23054 1.1203 3.05459 1.473 4.05319.3526.9988.6974 1.8169.7661 1.8179.0686.0011.3342-.5895.5901-1.3125.256-.723.9356-2.5642 1.5103-4.0919l1.0448-2.77724.0682 3.77444c.0424 2.3482.0272 3.8507-.04 3.9761-.0595.111-.309.2557-.5545.3217s-.4464.1809-.4464.2556c0 .1002.4522.1354 1.7399.1354 1.486 0 1.7352-.0245 1.7081-.1678-.0184-.0972-.1797-.1822-.3833-.202-.1637-.0159-.2898-.0271-.3881-.0851-.3328-.1964-.3473-.9299-.422-4.2025-.0482-2.1145-.0659-3.92939-.0392-4.03317.0494-.19239.5649-.42661.9392-.42661.1141 0 .2074-.07549.2074-.1678 0-.13929-.216-.1678-1.2718-.1678h-1.2717L44.7038 8.6623c-.6976 1.8794-1.3019 3.4376-1.3429 3.4629Zm55.3209-2.66377c1.4772-.76242 1.5012-3.00698.0419-3.86347-.5001-.29343-.5329-.29703-2.9991-.33232-2.129-.03048-2.4935-.0118-2.4935.12782 0 .18648.2335.29933.6192.29933.5891 0 .6135.17206.6135 4.31041 0 2.8763-.0344 3.8591-.14 3.9999-.077.1027-.3381.2271-.5801.2764-.1571.032-.3043.0861-.3951.1407-.0491.0295-.0818.0591-.0906.0854-.035.1048.5243.136 2.4013.1342 2.2187-.0023 2.4937-.0237 2.951-.2304 2.1217-.9585 2.2277-3.9011.1667-4.61335l-.4453-.15393.3501-.18069ZM71.2868 19.8692c-.2553-.4873-.8953-1.0181-1.3949-1.1565-.2327-.0645-1.4444-.1176-2.6926-.118-1.9298-.0005-2.2694.0243-2.2694.1651 0 .1536.1605.2212.7256.3064.4773.0718.5101.3726.4798 4.4166-.0199 2.6577-.0673 3.8646-.1552 3.9522-.0696.0694-.3343.154-.5884.188-.2978.0399-.4618.1189-.4618.2224 0 .1359.392.1552 2.5495.1252 2.2293-.0311 2.5989-.0617 2.9418-.244 1.1903-.6329 1.7809-1.886 1.4575-3.0928-.1586-.5921-.8846-1.3524-1.446-1.5148l-.3675-.1062.5078-.3566c.2793-.1962.595-.5235.7017-.7272.2514-.4802.258-1.5905.0121-2.0598ZM96.5091 9.49606l-.8125.00022V5.69279l.8685.00044c1.441.00076 1.9333.47642 1.933 1.86777-.0003 1.42707-.5222 1.93484-1.989 1.93506ZM68.1518 22.8448l-.8685.0002v-3.8034l.8685.0002c1.5162.0002 2.0447.4921 2.0451 1.9034.0003 1.3946-.5431 1.8994-2.0451 1.8996Zm-3.1014-12.7892c.1333 0 .1637-.2188.1637-1.17459 0-.92356-.033-1.17461-.1545-1.17461-.0849 0-.2172.15109-.2937.3356-.0766.18463-.1604.33561-.1863.33561-.0257 0-.2006-.11329-.3884-.25171-.5173-.38137-1.6525-.35734-2.3469.04938-1.5221.89177-2.0133 3.54242-.9884 5.33372 1.0712 1.8722 3.718 1.7197 4.3034-.2478.2174-.7308.2153-.7445-.1117-.7445-.2372 0-.2976.0759-.4076.5118-.0737.2924-.2843.676-.4912.895-.3167.3351-.4309.3831-.9122.3831-.6641 0-.9675-.1913-1.2978-.8184-.2049-.389-.2539-.6977-.29-1.8272-.0526-1.6533.1341-2.45356.7054-3.02383.3163-.31572.4514-.37143.9008-.37143.4624 0 .5819.0532.953.42354.2522.25181.4758.61473.5514.89494.0759.28098.1933.47138.291.47138Zm24.3144-.11185c.1382 0 .1681-.19883.1681-1.11867 0-.67121-.0449-1.11868-.1121-1.11868-.0616 0-.1121.04075-.1121.09057 0 .0497-.0667.18156-.1481.29267-.1412.19281-.1661.19325-.5209.01016-.2795-.14432-.5739-.18223-1.1789-.15175-.6796.0342-.8728.09111-1.2282.36171-.5393.41066-.7735.96202-.7062 1.66239.0713.74025.3623 1.01695 1.7651 1.67835 1.4519.6847 1.681.8805 1.681 1.4366 0 .8645-.9857 1.4987-1.8844 1.2123-.5811-.1852-.9936-.6107-1.2035-1.2414-.1026-.3085-.2485-.5413-.3391-.5413-.1273 0-.1592.2348-.1592 1.1746 0 .9696.0294 1.1746.1682 1.1746.0924 0 .1681-.0406.1681-.0904 0-.0499.0665-.1813.1478-.2924.1416-.1932.1671-.1918.6119.0347.3378.1719.6717.2362 1.2268.2362.8969 0 1.3721-.2105 1.875-.8307.2954-.3643.3372-.5038.339-1.1324.0019-.6593-.0269-.7457-.3588-1.0773-.1985-.1982-.9298-.6398-1.625-.9813-1.4351-.7046-1.6551-.9534-1.4343-1.62144.2307-.69764 1.1958-1.0446 1.8978-.68224.3585.18518.7861.898.7914 1.31936.0014.10772.0781.19577.1706.19577Zm-34.7342.69915c-.2056-1.46212-.811-2.36984-1.771-2.65443-.618-.18331-.9875-.20013-1.4305-.06565-.8461.25694-1.418.7704-1.8143 1.62939-.22.47639-.2582.74169-.2582 1.78989 0 1.3555.2041 2.0209.8185 2.6671 1.3202 1.3889 3.7353.9453 4.3294-.795.2282-.6685.2241-.6975-.0961-.6975-.2149 0-.3.0876-.4078.4195-.2978.9165-.8531 1.3704-1.676 1.3704-1.1204 0-1.6799-.7418-1.8356-2.4331l-.0643-.6992h4.2805l-.0746-.5314Zm2.5544-2.13485c-.0176-.1075-.0297-.22505-.0319-.32621-.0031-.14235-.0021-.23455-.0475-.2859-.0849-.09613-.3323-.04905-1.0724.08041-.7448.13044-1.0753.39984-.4942.403.1795.00099.3095-.00043.4044.05648.2526.15153.2563.71655.2829 2.84047.0324 2.5796.0248 2.6924-.1961 2.9128-.1263.1261-.3558.2293-.5099.2293-.1541 0-.2802.0631-.2802.1399 0 .1052.3886.1398 1.569.1398s1.5689-.0346 1.5689-.1398c0-.0513-.0511-.0964-.1268-.1207-.0378-.0122-.0817-.0192-.1284-.0192-.1404 0-.3673-.0784-.5043-.1741-.2415-.1688-.2491-.2345-.2491-2.1611 0-2.1873.1306-2.91433.6027-3.3571.1816-.17042.3757-.24176.5904-.21718.275.03135.325.09133.357.42759.0473.49837.1946.67164.5705.67164.4124 0 .569-.19238.569-.69863 0-1.03149-1.3345-1.44411-2.232-.69032-.1835.15404-.369.39121-.4122.52689-.0764.24023-.0809.24078-.1662.02305-.0238-.06074-.0463-.15611-.0636-.26109Zm14.3534 2.19085c-.2154-1.54445-.8629-2.49696-1.8694-2.74997-1.0049-.25258-1.7147-.06653-2.4387.6393-.7954.77543-1.0456 1.53877-.9762 2.97757.0597 1.2354.2206 1.7268.7703 2.3518.9001 1.0231 2.4988 1.2161 3.5433.4271.4618-.3486.6756-.6738.8724-1.3262l.1555-.516-.2882.0351c-.2194.0266-.3223.1349-.4315.4536-.3385.9884-.9109 1.3803-1.8799 1.2874-.9451-.0907-1.4747-.8485-1.6102-2.304l-.0745-.8003h4.2934l-.0663-.4754Zm12.9149-.1782c-.1198-1.14382-.6271-2.01331-1.4109-2.41796-.4308-.2222-1.2743-.30829-1.7761-.18112-1.4744.37383-2.38 2.20798-2.0562 4.16448.2441 1.4752.9826 2.3905 2.156 2.6713 1.4029.336 2.8756-.5343 3.0852-1.8229.064-.3938.0508-.4178-.227-.4178-.1907 0-.2948.0608-.2948.1723 0 .2706-.3974.9752-.719 1.275-.4066.3787-1.4259.4506-1.9273.136-.4989-.3131-.8322-1.0775-.9084-2.0833l-.0639-.8424H84.5218l-.0685-.6536Zm21.8757-.3757c-.208-.98235-.682-1.70687-1.341-2.05089-.373-.19445-1.294-.28851-1.727-.17643-1.424.3686-2.133 1.52857-2.125 3.48032.004.9495.041 1.1416.351 1.8021.394.8397.864 1.2623 1.685 1.5139 1.205.3694 2.453-.132 2.986-1.1996.379-.758.384-.9977.021-.9977-.225 0-.297.0791-.392.4328-.232.8598-.859 1.3574-1.708 1.3566-1.051-.0008-1.659-.7884-1.747-2.2648l-.052-.867h2.088c1.409 0 1.92.0322 2.053-.1761.091-.1426.005-.3979-.092-.8532Zm2.831-1.30791-.076-.5093c-.082-.54437-.136-.57223-.78-.39853-.185.05004-.525.12323-.756.16278-.555.09504-.579.39743-.032.39743.269 0 .424.06643.504.21642.07.13088.116 1.21448.116 2.74071 0 2.3753-.013 2.5376-.224 2.7481-.123.1231-.35.2237-.504.2237-.093 0-.175.0228-.226.0576-.034.0232-.054.0516-.054.0823 0 .105.377.1398 1.512.1398 1.136 0 1.513-.0348 1.513-.1398 0-.0768-.104-.1399-.231-.1399s-.329-.0521-.448-.1158c-.204-.1085-.217-.2556-.217-2.3602 0-1.8175.034-2.31568.178-2.6184.333-.70125 1.158-.98955 1.837-.64258.631.32205.671.50526.673 3.07228.002 2.5102-.035 2.6647-.623 2.6647-.15 0-.272.0631-.272.1399 0 .1055.371.1371 1.513.1285 1.443-.011 1.931-.1293 1.172-.2843-.194-.0396-.411-.13-.482-.2011-.087-.0863-.148-.9369-.186-2.557-.05-2.16604-.08-2.46876-.28-2.80753-.352-.59582-.751-.82993-1.507-.88467-.881-.06358-1.157.01694-1.682.49019l-.438.3947ZM81.0957 22.1907l-.0769-.5118c-.0344-.2284-.0506-.3657-.128-.4324-.1193-.1031-.3839-.0383-1.0839.1194-.8309.1871-1.0532.4723-.3681.4723.2692 0 .4238.0665.5043.2165.0701.1308.1159 1.2144.1159 2.7407 0 2.3752-.0131 2.5376-.2241 2.7481-.1233.1231-.3502.2237-.5043.2237-.1541 0-.2802.063-.2802.1398 0 .105.3774.1399 1.513.1399s1.5129-.0349 1.5129-.1399c0-.0768-.1225-.1398-.2722-.1398-.5842 0-.6244-.1644-.6244-2.5547 0-2.5954.0703-2.8381.9243-3.1938.5845-.2435.9358-.1926 1.3959.202l.3134.269.0343 2.4958c.0312 2.2699.0166 2.5089-.1614 2.6389-.1077.0785-.3123.1428-.4546.1428-.087 0-.1642.0235-.2112.0592-.03.0229-.0476.0507-.0476.0806 0 .1907 3.05.1795 3.1137-.0113.0257-.077-.0871-.1285-.2813-.1285-.1782 0-.4219-.0713-.5416-.1586-.2011-.1466-.2218-.3492-.2736-2.677-.0518-2.3316-.0733-2.5417-.2904-2.8338-.4427-.5957-.9046-.8189-1.6947-.8189-.7942 0-1.0407.0919-1.559.5812l-.3502.3306Zm-3.6142 2.7798c-.0645-2.7725-.1301-2.9962-1.0069-3.4399-1.4089-.7128-3.4758.0669-3.4758 1.3112 0 .4189.1291.5626.5054.5626.2829 0 .5032-.3464.5032-.791 0-.533.2732-.8441.8335-.949 1.0449-.1956 1.4982.3318 1.515 1.7629.0047.3933-.0166.418-.4153.4833-2.0884.3425-3.2967 1.2436-3.2967 2.4583 0 1.0245.6338 1.6425 1.7581 1.7138.8776.0558 1.2917-.0939 1.7312-.6263l.3235-.3917.1667.3982c.2115.505.5057.6607 1.1691.618.3968-.0256.5367-.0825.5647-.2298.0288-.1513-.0393-.1958-.3005-.1958-.1859 0-.3787-.0628-.4285-.1398-.0499-.0768-.1159-1.2221-.1467-2.545Zm40.7455-13.8518c.934-1.52912 1.724-2.84684 1.755-2.92845.046-.12006-.38-.14825-2.245-.14825-1.587 0-2.104-.04282-2.312.18955-.133.14857-.141.40945-.222.86588-.065.36498-.119.67972-.119.69917 0 .01944.063.03517.14.03496.078-.00011.267-.23565.421-.5234.447-.83562.673-.94519 1.874-.90707l1.024.03245-1.838 3.02046c-1.012 1.6613-1.84 3.0582-1.842 3.1043-.001.0461 1.076.0839 2.395.0839h2.398l.13-.7551c.072-.4154.158-.8683.192-1.0068.116-.4749-.26-.2726-.459.2464-.105.2741-.366.6517-.58.839-.377.3313-.42.3409-1.509.3409-1.05 0-1.114-.013-1.011-.2038.06-.1123.873-1.455 1.808-2.9841Zm-67.6937-.7071c0-.56016.3473-1.50295.6736-1.82872.2467-.24624.4216-.31714.782-.31714.122 0 .2556.0118.3749.03113.1303.0212.2435.05124.3057.08445.3326.17763.6838.97185.7495 1.69428l.0592.6512H50.5333v-.3152Zm16.9222-.0721c0-.56104.4159-1.58456.7507-1.8474.414-.32523 1.148-.30567 1.5222.04053.3115.28808.6409 1.22486.6409 1.82307v.3711h-2.9138v-.3873Zm12.9376-.0288c.1685-.93819.3235-1.32121.6775-1.67462.2952-.29474.4618-.37034.8153-.37034.8014 0 1.3314.72069 1.3985 1.90176l.0287.5034-1.498.0313-1.498.0314.076-.4229Zm22.0919-.69512c.185-.65351.406-.99905.778-1.21416.353-.20461 1.001-.16081 1.319.08936.339.26645.621.97622.665 1.67672l.031.5034-1.485.0312c-.931.0196-1.335.0447-1.455-.1276-.101-.1435-.005-.4241.147-.95892ZM73.5269 11.682c-.0542-1.6229.0927-2.38651.5618-2.91985.2898-.32948.4094-.38454.8349-.38454.6601 0 .9752.22832 1.275.92389.4682 1.0866.4297 3.3485-.0751 4.4105-.3107.6536-1.0558.8815-1.7351.5308-.5733-.296-.8093-.9973-.8615-2.5608Zm22.3706 2.4129c-.2325-.1859-.2009-.7006-.2009-2.1068V9.91709l1.0415.04545c1.6978.07406 2.2265.57536 2.2216 2.10626-.0047 1.4867-.6371 2.1259-2.1035 2.1259-.511 0-.798.0287-.9587-.0998Zm-28.5142 13.113c-.1064-.3833-.1203-3.7454-.0159-3.8519.1589-.1622 2.08-.0049 2.4743.2025.7861.4137 1.0824 2.0814.5487 3.0886-.379.7155-.8183.9086-1.9816.8711-.9042-.0291-.9514-.0434-1.0255-.3103Zm25.7506-16.0336-.0355-.3076-.0354-.3077-1.2608-.0317-1.2607-.0315v.6785h2.5924ZM73.8127 26.0175c.075-.664.6027-1.2141 1.442-1.5034.3309-.1141.7227-.2091.8704-.2111l.2687-.0037-.0623 1.042c-.074 1.237-.2747 1.7864-.7408 2.0271-1.0103.5215-1.912-.1636-1.778-1.3509Z"/>
  	<linearGradient id="a" x1="4.02614" x2="28.1845" y1="6.49047" y2="26.7231" gradientUnits="userSpaceOnUse">
  		<stop stop-color="#fff"/>
  		<stop offset=".1" stop-color="#CDD0D0"/>
  		<stop offset=".2" stop-color="#A5ACAF"/>
  		<stop offset=".3" stop-color="#98A0A4"/>
  		<stop offset=".4" stop-color="#828A8F"/>
  		<stop offset=".5" stop-color="#667075"/>
  		<stop offset=".6" stop-color="#535C63"/>
  		<stop offset=".7" stop-color="#475158"/>
  		<stop offset=".8" stop-color="#434D54"/>
  		<stop offset="1" stop-color="#475157"/>
  	</linearGradient>
  	<linearGradient id="b" x1="4.7816" x2="27.4301" y1="7.09324" y2="26.118" gradientUnits="userSpaceOnUse">
  		<stop stop-color="#0B1F2A"/>
  		<stop offset=".2" stop-color="#333F47"/>
  		<stop offset=".5" stop-color="#81898D"/>
  		<stop offset=".7" stop-color="#B3B8B8"/>
  		<stop offset=".8" stop-color="#DEE0DD"/>
  		<stop offset="1" stop-color="#FBFBFB"/>
  	</linearGradient>
  	<linearGradient id="c" x1="21.6281" x2="10.6058" y1="31.7585" y2="1.45984" gradientUnits="userSpaceOnUse">
  		<stop stop-color="#E1E3E1"/>
  		<stop offset=".1" stop-color="#C1C5C4"/>
  		<stop offset=".3" stop-color="#9BA1A2"/>
  		<stop offset=".5" stop-color="#7D8487"/>
  		<stop offset=".7" stop-color="#687074" stop-opacity="0"/>
  		<stop offset=".8" stop-color="#5B6469" stop-opacity="0"/>
  		<stop offset="1" stop-color="#576065" stop-opacity="0"/>
  	</linearGradient>
  	<linearGradient id="d" x1="9.15989" x2="23.0509" y1="4.579" y2="28.6367" gradientUnits="userSpaceOnUse">
  		<stop stop-color="#E1E3E1"/>
  		<stop offset=".1" stop-color="#C1C5C4"/>
  		<stop offset=".3" stop-color="#9BA1A2"/>
  		<stop offset=".5" stop-color="#7D8487"/>
  		<stop offset=".7" stop-color="#687074" stop-opacity="0"/>
  		<stop offset=".8" stop-color="#5B6469" stop-opacity="0"/>
  		<stop offset="1" stop-color="#576065" stop-opacity="0"/>
  	</linearGradient>
  	<linearGradient id="e" x1="22.3971" x2="21.5415" y1="20.3285" y2="21.7377" gradientUnits="userSpaceOnUse">
  		<stop stop-color="#27343C"/>
  		<stop offset="1" stop-color="#00111E" stop-opacity="0"/>
  	</linearGradient>
  	<linearGradient id="f" x1="19.9309" x2="18.5216" y1="15.1483" y2="12.8834" gradientUnits="userSpaceOnUse">
  		<stop offset=".1" stop-color="#02131F"/>
  		<stop offset=".9" stop-color="#02131F" stop-opacity="0"/>
  	</linearGradient>
  	<linearGradient id="g" x1="16.1058" x2="13.992" y1="18.8186" y2="19.4226" gradientUnits="userSpaceOnUse">
  		<stop offset=".2" stop-color="#02131F"/>
  		<stop offset=".9" stop-color="#02131F" stop-opacity="0"/>
  	</linearGradient>
  	<linearGradient id="h" x1="10.4688" x2="10.1668" y1="21.5907" y2="20.8357" gradientUnits="userSpaceOnUse">
  		<stop stop-color="#02131F"/>
  		<stop offset=".1" stop-color="#02131F"/>
  		<stop offset="1" stop-color="#02131F" stop-opacity="0"/>
  	</linearGradient>
  	<linearGradient id="i" x1="17.9174" x2="16.2062" y1="9.15587" y2="9.35719" gradientUnits="userSpaceOnUse">
  		<stop offset=".3" stop-color="#02131F"/>
  		<stop offset=".8" stop-color="#02131F" stop-opacity="0"/>
  	</linearGradient>
  	<linearGradient id="j" x1="17.9677" x2="16.8101" y1="9.10554" y2="9.25653" gradientUnits="userSpaceOnUse">
  		<stop offset=".4" stop-color="#27343C"/>
  		<stop offset="1" stop-color="#3B474E" stop-opacity="0"/>
  	</linearGradient>
  	<linearGradient id="k" x1="-.201578" x2="13.8405" y1="17.057" y2="25.1601" gradientUnits="userSpaceOnUse">
  		<stop stop-color="#25323B" stop-opacity="0"/>
  		<stop offset=".1" stop-color="#27343C"/>
  	</linearGradient>
  	<linearGradient id="l" x1="16.1059" x2="16.1059" y1="19.3214" y2="16.9056" gradientUnits="userSpaceOnUse">
  		<stop offset=".3" stop-color="#A5ABAF"/>
  		<stop offset="1" stop-color="#A5ABAF" stop-opacity="0"/>
  	</linearGradient>
  	<linearGradient id="m" x1="24.0075" x2="24.0075" y1="1.6582" y2="32.3595" gradientUnits="userSpaceOnUse">
  		<stop stop-color="#6B7378"/>
  		<stop offset=".2" stop-color="#333F47"/>
  		<stop offset=".5" stop-color="#27343C"/>
  		<stop offset=".8" stop-color="#333F47"/>
  		<stop offset="1" stop-color="#434D54"/>
  	</linearGradient>
  	<linearGradient id="n" x1="28.8391" x2="22.0445" y1="4.57704" y2="14.5424" gradientUnits="userSpaceOnUse">
  		<stop offset=".7" stop-color="#49545B"/>
  		<stop offset=".8" stop-color="#fff" stop-opacity="0"/>
  	</linearGradient>
</svg>