<svg xmlns="http://www.w3.org/2000/svg" viewBox="0 0 170 20">
	<path fill="#fff" d="m32.8214 15.325-.7149-5.74003-1.1746 5.74003h-1.6291l-1.3022-5.74003-.7813 5.74003h-2.8649l1.6597-11.4137h2.9619l1.0775 5.03787 1.1389-5.04042h2.8674L35.6863 15.325h-2.8649Zm9.8689-11.4137v2.86748h-2.8981v1.47075h2.0504v2.87007h-2.0504v1.3685h2.8981v2.8369h-5.7681V3.9113h5.7681Zm1.5627 0h6.3196v3.09987h-1.7261v8.31133h-2.9006V7.01372H44.253V3.90875v.00255Zm7.3921 11.4137 2.8342-11.4137h3.3552l2.8343 11.4137h-2.8343l-.457-1.6342h-2.4412l-.4238 1.6342h-2.8674Zm5.2114-3.9067-.6817-2.90067-.7482 2.90577h1.4324l-.0025-.0051Zm10.8136-7.507 2.2802 11.4137h-2.898l-1.2385-8.51044h-.2298L64.315 15.325h-2.8649l2.2138-11.4137h4.0062Zm9.2817 0 2.3133 11.4137H76.367l-1.2384-8.51044h-.2297L73.6298 15.325h-2.8649l2.247-11.4137h3.9399Zm11.9854 0V15.325h-2.8976v-5.2396l-2.6712 5.2396h-2.8649V3.9113h2.8649v5.50512l2.8649-5.50767h2.7039v.00255Zm4.9513 0v4.33823h2.1828V3.90875h2.8653V15.325h-2.8653v-4.2029h-2.1828v4.2055h-2.8654V3.91386h2.8654V3.9113Zm11.4315 0c.352-.00977.702.05993 1.024.20409.321.14416.606.35887.832.62832.454.56686.685 1.30228.685 2.17039 0 .69963-.097 1.23335-.294 1.63421-.197.36771-.454.6358-.781.73533.503.13345.941.44116 1.238.86816.358.5005.518 1.1363.518 1.8691 0 1.0367-.226 1.8691-.714 2.4385-.521.6001-1.206.8682-2.118.8682h-4.787V3.9062h4.397v.0051Zm-1.499 2.46662v1.63676h.49c.422 0 .651-.26563.651-.79926 0-.56941-.229-.8375-.651-.8375h-.49Zm0 4.34078v1.6699h.749c.459 0 .717-.2681.717-.8349 0-.2656-.064-.4673-.195-.6001-.137-.1439-.324-.2282-.522-.2349h-.749Zm11.986-6.80995v2.87258h-2.898v1.47075h2.864v2.87002h-2.862v1.3687h2.898v2.8368h-5.765V3.91386h5.765l-.002-.00511Zm6.58 3.67438c-.232-.00858-.461.03817-.671.13634-.209.09809-.393.2448-.534.42798-.264.36762-.391.86811-.391 1.47076 0 .56679.127 1.06729.422 1.46819.131.1857.308.3352.514.4342.205.0991.432.1447.66.1326.324 0 .554 0 .715-.0664.194-.0331.357-.1021.487-.1659v3.9067c-.064.0331-.227.0664-.39.0995-.161.0332-.455.0332-.812.0332-1.499 0-2.707-.5668-3.616-1.8026-.814-1.1031-1.205-2.4385-1.205-4.03949 0-1.57038.391-2.90582 1.205-4.00886.878-1.20012 2.084-1.80013 3.616-1.80013.26 0 .485 0 .682.03315.196.06638.357.10217.52.13277v3.87353c-.127-.06638-.293-.13276-.39-.16855-.265-.06706-.538-.09971-.812-.09699Zm2.735-3.67438h6.35v3.10497h-1.726V15.325h-2.898V7.01372h-1.726V3.90875Zm11.007 4.2387h1.76c.814 0 1.498.30124 2.017.90389.587.63325.85 1.46816.85 2.56866 0 1.1031-.263 2.0044-.817 2.7066-.241.3132-.553.5663-.908.7395-.356.1732-.747.2618-1.142.2589h-4.658V3.9113h6.677v2.40023h-3.779V8.15v-.00255Zm0 2.77295v1.6342h.718c.488 0 .714-.2656.714-.8324 0-.2682-.063-.4699-.193-.6026-.068-.0683-.15-.1214-.239-.1558-.09-.0343-.186-.0491-.282-.0434h-.718Zm5.539 4.4046 2.834-11.4137h3.319l2.835 11.4137h-2.835l-.421-1.6342h-2.477l-.424 1.6342h-2.834.003Zm5.178-3.9705-.684-2.77049-.751 2.77049h1.435Zm8.174-7.44575v4.34078h2.149V3.90875h2.867V15.325h-2.867v-4.2029h-2.149v4.2055h-2.899V3.91386h2.899v-.00511Zm9.932 0v4.13908l1.989-4.13653h2.962l-2.541 5.30596L170 15.325h-2.962l-2.084-4.9076v4.9076h-2.867V3.9113h2.867l-.002-.00255ZM9.5421.5c4.8515.178755 8.7275 4.17222 8.7581 9.06712.011 2.42318-.9386 4.75198-2.6408 6.47678-1.7022 1.7246-4.0184 2.7047-6.44158 2.7257-2.42496.0149-4.75696-.9322-6.48483-2.6337C1.00513 14.4343.0223536 12.1171.00009601 9.69224-.0106943 7.33383.888386 5.0622 2.51022 3.34996 4.13205 1.63781 6.35169.61696 8.70715.5l.0102 2.59683c-1.67146.11042-3.23788.85425-4.3799 2.07978S2.56381 8.01706 2.57136 9.69224c.00734.97686.2331 1.93966.66078 2.81806.42768.8783 1.04642 1.6499 1.81091 2.2581l2.4819-6.53672-1.72354.01275s-.33961-.06893-.53366.09197l-.40855.39321s-.03319-1.07754.01533-1.18991c.04851-.13787.1864-1.21797.66643-1.76953.48515-.53108 1.25883-.60511 1.25883-.60511l5.51531-.03834-.7967.82986 1.9151 8.65092c.7199-.6191 1.2964-1.3874 1.6897-2.2516.3933-.8642.5939-1.8036.5879-2.75308-.0153-1.6677-.6635-3.26732-1.8136-4.47517-1.15-1.20793-2.7159-1.93383-4.3809-2.03082L9.5421.5ZM7.43558 5.89019c.16597 0 .30641.12767.30641.28603 0 .15572-.13533.28593-.3013.28593-.16852.00255-.30641-.12511-.30641-.28083 0-.16091.13278-.28858.3013-.29113Z"/>
</svg>