<svg xmlns="http://www.w3.org/2000/svg" viewBox="0 0 111 40">
	<path fill="#fff" d="m4.94045 37.5732 2.57963-5.1548h2.40646v.6245h-.86137v6.1756h.86137v.6153H6.64963v-.6153h.87045v-5.2869l-2.57963 5.2413h-.84773l-2.62063-5.2413v5.2869h.87963v.6153H0v-.6153h.856819v-6.1756H0v-.6245h2.35172l2.58873 5.1548Zm11.00205-4.4119v2.411h2.3153v-.793h.5971v2.215h-.5971v-.7748h-2.3153v2.8623h2.9717v-.825h.5651v1.577h-5.9842v-.6153h.8705v-6.1756h-.8705v-.6245h5.7973v1.4631h-.6061v-.7202h-2.7438Zm10.5057 6.6725h-1.6727v-.6153h.866v-6.1756h-1.7957v.7839h-.67v-1.4084h6.5175v1.4084h-.6882v-.7839h-1.773v6.1756h.8523v.6153h-1.6362Zm9.3248-3.8832 2.9762-2.9033h-.907v-.6289h2.6844v.6289h-.9297l-2.0784 2.0054 1.7457 3.081c.2279.4011.442.6836.6517.8432.2142.1549.5059.2278.8842.2233v.638c-.2552.0775-.5606.1277-.907.155-.9161.0638-1.5952-.3236-2.0464-1.1577l-1.4721-2.6525-.5971.5971v2.4429h.8568v.6152h-3.3224v-.6152h.8796v-6.1802h-.8796v-.629h3.3224v.629h-.8568v2.9078h-.0045Zm16.3483-1.6818c-.3509-.5925-.8432-1.0665-1.4766-1.4266-.6336-.3554-1.3536-.5377-2.1513-.5377-.7975 0-1.5131.1823-2.1512.5424-.6426.3645-1.1348.8385-1.4766 1.4265-.3464.5834-.5196 1.2032-.5196 1.8504 0 .6563.1732 1.2762.5196 1.8641.3418.5924.834 1.0664 1.4766 1.4265.6427.36 1.3582.5424 2.1512.5424.7977 0 1.5177-.1777 2.1513-.5378.6334-.3556 1.1257-.8295 1.4766-1.4266.351-.5924.5288-1.2123.5288-1.8686 0-.6472-.1778-1.267-.5288-1.855Zm-1.6498 3.7829c-.2415.4922-.5378.8432-.8933 1.0528-.3555.2097-.7156.3099-1.0848.3099-.3691 0-.7337-.1093-1.0938-.3282-.3554-.2187-.6517-.5788-.8842-1.0847-.2324-.5013-.3463-1.1257-.3463-1.8777 0-1.1257.237-1.9553.7019-2.4885.4693-.5332 1.0072-.7976 1.6133-.7976.3828 0 .752.1094 1.1121.3282.3555.2187.6517.5743.8842 1.0619.2279.4877.3418 1.1212.3418 1.896.0091.793-.1093 1.4402-.3509 1.9279Zm10.4412-.4785 2.58-5.1548h2.4109v.6245h-.8655v6.1756h.8655v.6153h-3.2818v-.6153h.8709v-5.2869l-2.58 5.2413h-.8473l-2.6163-5.2413v5.2869h.8754v.6153h-2.3518v-.6153h.8564v-6.1756h-.8564v-.6245h2.3518l2.5882 5.1548Zm14.58-1.5724c-.4691-.278-.9255-.4466-1.3673-.5014-.2236-.0228-.5518-.0319-.98-.0319h-.7336v-2.3062h2.2791v.752h.6972v-1.4949H69.96v.629h.8563v6.1711H69.96v.6153h3.2354c.78 0 1.4909-.1322 2.1336-.4011.6473-.2689.9473-.9025.9019-1.896-.0273-.7429-.2737-1.2579-.7382-1.5359Zm-1.4218 2.7528c-.2646.2916-.6019.4376-1.0119.4376h-.6472v-2.9853h.5109c1.0163 0 1.5263.4876 1.5354 1.4539.0046.4375-.1227.8021-.3872 1.0938Zm12.9072.4649-3.0354-6.8001h-.9073l-2.7573 6.8001h-.8245v.6153h2.2327v-.6153h-.7927l.5654-1.4312h3.2582l.6064 1.4312h-.8573v.6153h3.3318l.0227-.6153h-.8427Zm-5.2918-2.0373 1.2855-3.1311.0318-.2507h.05l.0227.2507 1.39 3.1311h-2.78Zm11.4036-.9617v2.999h.87v.6153h-3.3218v-.6153h.8564v-6.1756h-.8564v-.6245h3.3218v.6245h-.87v2.5294h3.3228v-2.5294h-.8664v-.6245h3.3182v.6245h-.8664v6.1756h.8664v.6153h-3.3182v-.6153h.8664v-2.999h-3.3228Zm12.1691-.2689 2.976-2.9033h-.907v-.6289h2.685v.6289h-.93l-2.079 2.0054 1.746 3.081c.224.4011.437.6836.652.8432.214.1549.506.2278.884.2233v.638c-.26.0775-.561.1277-.907.155-.912.0638-1.595-.3236-2.046-1.1577l-1.472-2.6525-.597.5971v2.4429h.856v.6152h-3.317v-.6152h.874v-6.1802h-.874v-.629h3.317v.629h-.856v2.9078h-.005ZM68.52 2.84853C66.8427 1.39008 65.0109.738336 63.2145.597054c-1.8-.145845-3.6227.123055-5.4691 1.007236V0H52.126v1.52681C48.1107-.168636 43.4802.0683632 39.8568 4.54853c-4.3435 5.35519.5424 13.35847 5.2094 18.08017-1.1394.1458-2.2789.2871-3.4137.4421.0365.8568.0729 1.7182.1139 2.5751h8.1627v-2.5751C45.1254 17.1367 42.4 11.0067 44.4828 6.73619c1.7593-3.60509 4.9268-3.76916 7.5839-1.92332V25.6367h5.6787V4.92681c2.2655-1.47668 4.2436-1.57694 5.4782-.87507 2.8673 1.63164 3.1636 4.53034 2.7845 7.40616-.5145 3.915-3.0254 8.0124-5.8336 11.6584v2.4658h8.1718v-2.5204c-1.1209-.1504-2.2418-.2963-3.3636-.4421 4.2709-4.5668 6.6182-8.7097 6.8236-12.3603.1591-2.75285-.8436-5.29147-3.2863-7.41077Zm1.7499 9.16547c-1.0345 3.9696-3.8554 7.7206-7.7709 11.3667 1.55.1869 3.0946.3783 4.6446.5697v.5333h-5.8891v-.9891c2.0236-2.6935 3.8791-5.3278 4.7673-7.8436 1.0118-2.8623 1.8963-5.77455.8845-8.5821-.4145-1.14852-1.0891-2.32439-1.9963-3.14933C63.88 2.9807 62.6172 2.4748 61 2.54773c-1.6182.07291-2.9037.70187-4.4255 1.77291V24.5931h-3.3684V4.17024c-1.7-1.18499-3.286-1.74101-5.0635-1.62251-1.7821.10938-3.9333 1.26702-5.1456 4.69436-.597 1.68636-.3646 3.59141-.0456 5.25041.7384 3.7965 3.0172 7.4062 5.7746 10.9611v.989h-5.8839v-.4922c1.545-.1686 3.0946-.3281 4.6396-.4968-1.0528-1.0938-2.0737-2.0008-3.008-3.1037-1.814-2.1239-3.3271-4.3115-4.2067-6.5448-1.0984-2.7802-1.504-5.90211.4466-8.57292 1.8231-2.50215 4.0836-3.35899 6.3033-3.62789 2.2241-.2689 4.1839.3555 6.1938 1.84129V1.09839h3.3684v2.46113c1.6363-1.29437 3.3318-1.94156 5.0218-2.03727 3.0581-.18231 6.3218 1.53137 7.8854 4.00162 1.1391 1.81394 1.4264 4.02894.7836 6.49013Z"/>
</svg>