<svg xmlns="http://www.w3.org/2000/svg" viewBox="0 0 150 38">
	<g fill="#fff">
		<path d="M119.341 0h1.301c.304.18627.598.40196.929.54657.36-.10294.647-.36275.968-.54657h1.267c-.404.79902-1.005 1.65686-2.009 1.6348-1.15.18628-2.013-.67647-2.456-1.6348ZM0 2.02206h4.2279V32.9632c2.7598.0049 5.5196.0025 8.2795.0025 2.8137-8.4363 5.625-16.8701 8.4338-25.3039 2.8848-.0049 5.7696-.0025 8.6544-.0025.0024 7.9853 0 15.9706.0024 23.9584-3.5441 0-7.0882.0024-10.6299-.0025.4657-1.4093.9363-2.8186 1.4069-4.2279 1.6446.0049 3.2868.0024 4.9314.0024V11.9485c-.4069 0-.8138.0025-1.2182.0025-2.8088 8.4363-5.625 16.8676-8.4313 25.3039H0V2.02206Z"/>
		<path d="M5.58319 2.01773c1.4265.00735 2.85301.0049 4.27951.0049.0049 6.97795 0 13.95837.0024 20.93877 2.3505-6.9682 4.6642-13.94862 6.9828-20.92651 6.1275-.02941 12.2574-.0049 18.3848-.01226V37.2555h-18.147c.4755-1.4289.9534-2.8578 1.4289-4.2868 4.1422-.0073 8.2843 0 12.4289-.0024V6.31188c-3.6372-.0025-7.2745.0049-10.9117-.0025-2.8138 8.43872-5.6593 16.86772-8.4633 25.30882-1.99751-.0024-3.9951 0-5.9926 0 .0049-9.8676-.00741-19.7328.00729-29.60047Zm36.63481.0049c.728 0 1.4535 0 2.1839-.0049.7598 2.11515 1.4559 4.25735 2.2328 6.36765.7304-2.1226 1.4682-4.2426 2.1961-6.3652.7377.00245 1.473.00245 2.2108.00245v8.51717h-1.6544c-.0074-2.00982.0122-4.01712-.0098-6.02702-.7402 1.9927-1.3407 4.0319-2.0711 6.02952-.4633-.0025-.9265-.0049-1.3897-.0074-.6495-2.02452-1.3848-4.01962-2.0172-6.04902-.0564 2.0171-.0147 4.0368-.0269 6.05392-.5515 0-1.1054 0-1.6569-.0024.0024-2.83832.0024-5.67652.0024-8.51477Zm13.228-.01715c1.6324-.3799 3.5.10539 4.5711 1.43873 1.6127 1.82597 1.3186 4.98527-.6789 6.41667-2.1397 1.67162-5.7182.93142-6.8358-1.6005-1.2329-2.4142.2573-5.71078 2.9436-6.2549Zm.3015 1.57843c-1.1079.30147-1.9731 1.35297-2.0123 2.50737-.1838 1.5417 1.125 3.0196 2.6667 3.0858 1.8309.1519 3.4583-1.7451 2.9485-3.5294-.3088-1.5711-2.0956-2.55151-3.6029-2.06377Zm5.946 2.53917c.0441-1.9509 1.5294-3.83329 3.4853-4.15437 2.0196-.46814 4.1961.63235 4.9804 2.56127-.6103.0049-1.2181.0049-1.826 0-.951-1.14951-2.7867-1.45343-3.9436-.4387-1.3333.9951-1.4363 3.1519-.1985 4.2647 1.0784 1.1397 3.0073 1.0466 4.022-.1348.6299-.0123 1.2623-.0098 1.8946.0024-.4706.7745-1 1.5711-1.8333 1.99512-1.6495.9142-3.9044.6667-5.2524-.67642-.8799-.8971-1.3947-2.1569-1.3285-3.4192Zm13.1667-3.58084c.4437-.88971 1.5587-.41177 2.3457-.50736-1.056 1.41177-2.159 2.7892-3.2011 4.2108 1.0781 1.4167 2.1401 2.848 3.1841 4.28922-.652.0049-1.307.0049-1.959.0074-.855-1.19612-1.6981-2.40202-2.5584-3.59322v3.59072h-1.6544V2.02263h1.6544c0 1.18137-.0074 2.36275.0098 3.54415.75-.9902 1.4436-2.02209 2.1789-3.02454Z"/>
		<path d="M79.9981 2.09859c1.62-.50735 3.558-.1299 4.725 1.15196 1.542 1.5539 1.628 4.2819.203 5.9363-1.45 1.78175-4.303 2.07595-6.147.7451-1.629-1.1275-2.267-3.4167-1.517-5.2378.456-1.22301 1.49-2.20585 2.736-2.59556Zm.745 1.45588c-1.167.26226-2.096 1.36028-2.135 2.56128-.145 1.3922.914 2.7623 2.284 3.0024 1.669.3922 3.424-1.0196 3.424-2.7328.118-1.8284-1.818-3.34803-3.573-2.83088Zm6.267-1.53188c1.37.05882 2.867-.2353 4.117.47059 1.182.71323 1.187 2.52447.174 3.39217 1.606.7573 1.682 3.3382.128 4.18135-1.355.7254-2.949.4068-4.419.4705 0-2.83815-.003-5.67635 0-8.51461Zm1.595 1.56372c-.002.57104-.002 1.14214 0 1.71574.439-.0368.89-.005 1.317-.1349.478-.1397.541-.7451.406-1.1495-.411-.52692-1.147-.36026-1.723-.43134Zm-.002 3.25984c0 .7034 0 1.4093.002 2.1152.687-.0687 1.542.1691 2.079-.3946.463-.4608.235-1.3334-.356-1.5638-.551-.2059-1.152-.1225-1.725-.1568Zm4.819-1.9216c.441-1.43381 1.654-2.63234 3.144-2.93381 1.189-.23284 2.515-.1103 3.5269.60294.716.46324 1.177 1.19608 1.586 1.92397-.62.0148-1.24.0197-1.8579.0123-.6-.61274-1.368-1.16176-2.277-1.05147-1.684-.0049-3.034 1.74757-2.659 3.38237.269 1.4118 1.701 2.5147 3.144 2.2941.677-.0686 1.174-.5613 1.726-.8971.6149-.098 1.2429-.0416 1.8629-.0294-.471.7917-1.032 1.5809-1.8699 2.01465-1.221.6569-2.748.6839-4.01.1299-1.986-.89205-3.044-3.39945-2.316-5.44845Zm9.1539-2.90441c.529.00245 1.059.00245 1.591.00245 0 1.19853-.003 2.39466.002 3.59316.863-1.1887 1.716-2.38482 2.564-3.58825.664-.00491 1.331-.00491 1.997-.00491-1.066 1.39951-2.129 2.79906-3.21 4.18626 1.051 1.4534 2.142 2.8799 3.196 4.33085-.669 0-1.334-.0025-2-.0123-.834-1.21065-1.696-2.39695-2.544-3.59545-.01 1.2009-.005 2.4044-.005 3.60775h-1.593c0-2.84065-.003-5.67885.002-8.51956Zm7.044.00246c.549 0 1.101 0 1.655-.00245.002 1.94608-.005 3.8922.002 5.8382 1.24-1.946 2.463-3.90192 3.716-5.84065.536.00245 1.073.0049 1.612.00735 0 2.8382 0 5.6765.003 8.51465h-1.657c-.002-1.92885.005-3.86025-.005-5.78915-1.228 1.9265-2.446 3.8627-3.674 5.78915-.554 0-1.103 0-1.654-.0024.002-2.83825.002-5.67645.002-8.5147Zm8.456 0c.549 0 1.098-.00245 1.65-.0049.009 1.95343.004 3.90445.002 5.85535 1.233-1.946 2.478-3.88476 3.696-5.83819.544-.00981 1.088-.01226 1.635-.01716.002 2.84065.002 5.68135.002 8.522h-1.593c-.007-1.94355.012-3.88965-.01-5.83325-1.262 1.9191-2.483 3.8676-3.696 5.81855-.563.0098-1.125.0147-1.686.0196v-8.522Zm26.248 11.299c.441-.0123.887-.0221 1.333-.0221.328.6961 1.314.75 1.63.0074.463-.0025.931.0024 1.399.0147-.311 1.1372-1.456 1.8799-2.622 1.6152-.897-.0589-1.483-.8236-1.74-1.6152Zm-70.091 3.5588c1.3921-1.8946 4.3921-2.223 6.2061-.7574.576.4412.941 1.0809 1.299 1.701-.603 0-1.213.0613-1.809-.0416-.569-.3432-1.066-.8603-1.755-.951-1.625-.3015-3.299 1.1274-3.2451 2.7843-.0833 1.6029 1.4311 3.0515 3.0321 2.8799.767.0098 1.372-.5049 1.912-.9853.61-.0049 1.223-.0024 1.835.0098-.372.6275-.747 1.2843-1.35 1.7206-1.745 1.3358-4.527 1.1078-5.956-.5931-1.3897-1.5736-1.5074-4.125-.1691-5.7672Zm-32.0148-1.5h1.6544c.005 1.9289-.0098 3.8579.0074 5.7843 1.2328-1.924 2.4534-3.8554 3.6789-5.7843.5466 0 1.0956 0 1.6446.0025-.0098 2.8407.0196 5.6838-.0147 8.5269-.5465-.0098-1.0931-.0122-1.6397-.0171-.0024-1.9339.0025-3.8677 0-5.8015-1.2549 1.9216-2.4632 3.8725-3.7034 5.8039-.5392.0025-1.0784.0049-1.6177.0098-.0245-2.8407-.0024-5.6813-.0098-8.5245Zm8.4559.0024c.549-.0024 1.1005-.0024 1.6495-.0049.0074 1.125.0049 2.2476.0049 3.3726.9976 0 1.9976-.0025 2.9951.0049.0098-1.125.0074-2.25.0074-3.375h1.6544v8.5171H55.331c0-1.1838 0-2.3676.0024-3.5514-1.0024-.0025-2.0049-.0049-3.0073 0 .0049 1.1838.0024 2.3676.0024 3.5514h-1.6544v-8.5147Zm7.8824 6.9241c1.0612-2.3039 2.0833-4.6275 3.147-6.9314.4804.0049.9633.0074 1.4486.0098 1.0073 2.3113 2.0833 4.5931 3.0931 6.9044.2622.0098.527.0196.7941.027-.0073.875-.0049 1.7475-.0049 2.6201-.5294.0024-1.0613.0024-1.5907.0049-.0024-.3481-.0024-.6961-.0049-1.0441-2.022 0-4.0441-.0025-6.0662.0024 0 .2598.0025.7794.0049 1.0392H57.782v-2.6348c.1936 0 .5808 0 .7745.0025Zm3.8456-4.6299c-.6618 1.549-1.3481 3.0858-2.0221 4.6274h4.0711c-.6961-1.5367-1.3432-3.0931-2.049-4.6274Zm3.3382-2.2966c.6642 0 1.3284 0 1.9951-.0024.7647 1.4558 1.4264 2.9656 2.2034 4.4166.6324-1.4755 1.2672-2.951 1.9216-4.4191.5931.0025 1.1862.0049 1.7818.0074-1.2671 2.8406-2.5686 5.6666-3.8382 8.5098-.6029.0024-1.2083.0049-1.8113.0073.3088-.7549.7819-1.4632.9535-2.2598-1.027-2.1054-2.1373-4.1716-3.2059-6.2598Zm16.1838 0c1.593 0 3.186 0 4.779.0025v1.5882c-.531.0024-1.063.0025-1.593.0025v6.924h-1.654V16.976c-.51-.0024-1.022-.0024-1.532-.0024v-1.5932Zm5.515.0025c1.336.0661 2.74-.2108 4.024.2696 1.711.7132 1.934 3.3823.483 4.4632-.821.5956-1.885.5833-2.853.6201 0 1.0539 0 2.1078-.002 3.1618h-1.652v-8.5147Zm1.657 1.5784c-.003.7206-.005 1.4412-.008 2.1642.652-.0417 1.419.1029 1.949-.3774.37-.4927.296-1.3628-.312-1.6398-.512-.2132-1.088-.1152-1.629-.147Zm4.715-1.5809h1.655c0 1.9436-.003 3.8873 0 5.8284 1.25-1.9362 2.465-3.897 3.718-5.8333.537.0025 1.0729.0049 1.6129.0074v8.5147h-1.5939c-.004-1.9584.008-3.9143-.004-5.8701-1.248 1.946-2.488 3.8946-3.714 5.8554-.559.0098-1.117.0147-1.674.0196v-8.5221Zm11.3159.0024c.434-.0024.871-.0049 1.307-.0098 1.213 2.8285 2.365 5.6839 3.559 8.5221-.606.0024-1.209.0024-1.812.0024-.289-.7353-.583-1.4681-.877-2.2034-1.02-.0049-2.039-.0073-3.059.0074-.277.7353-.569 1.4656-.86 2.1936-.603.0024-1.206.0024-1.807.0049 1.17-2.8456 2.368-5.6789 3.549-8.5172Zm.655 2.4191c-.297.7672-.596 1.5319-.895 2.2966h1.792c-.294-.7671-.591-1.5343-.897-2.2966Zm4.257 6.0981c1.13-2.8382 2.238-5.6887 3.383-8.5245.477.0049.958.0049 1.438.0074 1.111 2.8431 2.25 5.6715 3.365 8.5122-.605.0025-1.208.0025-1.811.0025-.767-2.0638-1.507-4.1397-2.291-6.1986-.755 2.0687-1.515 4.1324-2.275 6.201-.603-.0024-1.208-.0024-1.809 0Zm8.956-8.5196h1.655c0 1.0809 0 2.1618-.003 3.2427 1.042.0122 2.201-.1201 3.096.5318 1.424 1.0662 1.237 3.6765-.429 4.4167-1.361.5833-2.885.2353-4.319.3235v-8.5147Zm1.657 4.8333c-.002.6986-.005 1.3996-.002 2.1005.598-.0269 1.223.0613 1.803-.125.763-.2745.802-1.4755.081-1.8235-.593-.25-1.259-.1176-1.882-.152Zm4.961-4.8333h1.654c0 1.125-.002 2.2476.003 3.3726 1-.0025 2-.0025 3-.0025 0-1.125-.003-2.2475.002-3.3701h1.652v8.5172h-1.654c0-1.1839-.003-2.3677.002-3.5515-1.002-.0025-2.005-.0025-3.007 0 .002 1.1838.002 2.3676.002 3.5515h-1.654v-8.5172Zm7.782.0025c.549-.0025 1.1-.0025 1.654-.0025v3.2427c1.044.0171 2.223-.1348 3.113.5416 1.453 1.1103 1.186 3.7941-.569 4.4706-1.338.4853-2.796.1765-4.186.2696-.03-2.8407-.005-5.6813-.012-8.522Zm1.654 4.8308c-.002.6986 0 1.3996 0 2.1005.601-.0245 1.226.0564 1.814-.1176.838-.3088.757-1.7157-.12-1.9142-.559-.0981-1.13-.0613-1.694-.0687Zm4.841-4.8333h1.593v8.5172h-1.593v-8.5172Zm3.125 0h1.593c.002 1.9583-.005 3.9167.005 5.875 1.233-1.9608 2.485-3.9093 3.72-5.8677.554-.0049 1.111-.0073 1.667-.0098v8.5172c-.551.0024-1.103.0024-1.652.0049-.007-1.9485 0-3.8971-.005-5.8456-1.243 1.9436-2.48 3.8897-3.711 5.8431h-1.617v-8.5171ZM42.2182 28.7382h5.0246v1.5932h-3.3701c0 .549 0 1.098.0024 1.647 1.0833.0295 2.3137-.1176 3.228.5907.8872.7035 1.0686 1.9976.7451 3.027-.3113.951-1.2623 1.5784-2.2378 1.6397-1.1299.0588-2.2622.0049-3.3946.0172.0024-2.8383.0024-5.6765.0024-8.5148Zm1.6545 4.8309v2.0956c.9093.0123 2.5441.2451 2.5122-1.1127-.1765-1.2108-1.6323-.9559-2.5122-.9829Zm8.0514-4.8333c.429 0 .8554-.0025 1.2843-.0049 1.201 2.8333 2.3775 5.6789 3.5564 8.522-.6054.0025-1.2108.0025-1.8162 0-.2769-.7156-.5588-1.4289-.8431-2.1446-1.0245.0025-2.0515.0001-3.076.005-.2745.7182-.5588 1.429-.8407 2.1422-.6053 0-1.2132-.0001-1.8186-.0026 1.1789-2.8406 2.3554-5.6838 3.5539-8.5171Zm-.2647 4.7818c.6079 0 1.2133 0 1.8211.0025-.3015-.7794-.6078-1.5564-.902-2.3382-.3137.7745-.6225 1.5539-.9191 2.3357Zm5.8799-4.7818c.549.0024 1.1005.0024 1.652.0024v3.4314c1.0024 0 2.0024 0 3.0024-.0024v-3.429h1.6544v8.5173h-1.6544c0-1.1838-.0024-2.3653.0049-3.5467-1.0024-.0098-2.0049-.0098-3.0073-.0073 0 1.1813-.0025 2.3627.0073 3.5441-.5539.0049-1.1078.0098-1.6618.0147 0-2.8431 0-5.6838.0025-8.5245Zm11.9583.0172c.6691-.0148 1.3358-.0148 2.0049-.0148-1.0661 1.4045-2.1372 2.8015-3.2108 4.1961 1.054 1.4486 2.1299 2.8825 3.1986 4.3212-.7647-.1274-1.8922.3725-2.3407-.4854-.7255-1.0319-1.4436-2.0662-2.1838-3.0833.0098 1.1887.0073 2.38.0073 3.5687h-1.6544v-8.5173h1.6544c0 1.1814 0 2.3628-.0024 3.5442.8627-1.1618 1.7034-2.3407 2.5269-3.5294Z"/>
	</g>
</svg>