<svg xmlns="http://www.w3.org/2000/svg" viewBox="0 0 123 36">
	<path fill="#fff" d="M82.6748 1.90655h7.2795l-.26 3.89975v11.266c0 1.2999.0867 2.5998.1733 3.8997H84.148v-.0003c.0867-1.2998.1733-2.5996.1733-3.8994v-4.6798h-7.4528v4.6798c0 1.2998.0866 2.5996.1733 3.8994v.0003h-.1733c-2.5132.1733-5.113.26-7.7129.26-1.6465 0-3.2931-.0867-4.853-.3467-5.113-.7799-5.7196-4.853-5.7196-6.7595V3.98642c-.0867-.43331-.26-.77996-.52-1.03994-.26-.25998-.6933-.43331-1.0399-.43331h-.1734v-.60662h7.2796c-.0051.07673-.0103.15316-.0154.22932-.0812 1.21413-.1579 2.36058-.1579 3.58377V15.079c0 1.3.3466 3.4665 2.6865 3.8998.0727.0073.1448.0145.2164.0218.7817.0788 1.5028.1515 2.2967.1515.78 0 1.5599-.0866 2.3399-.1733V3.98642c-.0867-.43331-.26-.77996-.52-1.03994-.26-.25998-.6066-.43331-1.0399-.43331h-.1733v-.60662h7.2795v.00029c-.0867 1.29982-.1733 2.59964-.1733 3.89946v4.5064h7.4528V3.98642c0-.43331-.1733-.77996-.4333-1.03994-.26-.25998-.6066-.43331-1.0399-.43331h-.1733v-.60662ZM46.1039 18.8918l-.0002.0003v.0867H52.69c1.2232 0 2.3697-.0767 3.5838-.158.0762-.0051.1526-.0102.2293-.0153v2.2532H38.5642v-.52l7.6262-12.65253c.7799-1.21319 1.4732-2.51304 2.1664-3.81289l.0001-.0002H41.424c-.4333 0-.8666.17332-1.1265.51996-.26.34665-.4334.77995-.4334 1.21326h-.6932V1.90655h16.7256v.51996L48.2703 14.9924c-.7799 1.2998-1.4732 2.5996-2.1664 3.8994ZM28.6849 1.90655h7.5395l-.26 3.89975v11.266c0 1.2999.0867 2.5998.1733 3.8997h-5.7196v-.0003c.0866-1.2998.1733-2.5996.1733-3.8994V4.33306c0-.95327-.78-1.73322-1.7332-1.73322h-.1733v-.69329ZM24.6984 0c.1734 2.59984.3467 5.19967.6067 7.79951l.5199 5.45969c.26 2.5998.6067 5.1996.9533 7.7995h-6.2396c-.1733-2.5999-.3466-5.1997-.6066-7.7995l-.8666-8.66616-3.3798 7.53956-.52 1.1266c-1.1266 2.5998-2.1665 5.1996-3.2065 7.7995h-.7799c-1.0399-2.5998-2.16645-5.1995-3.293-7.7992l-.00013-.0003-.25999-.6933c-1.12659-2.5132-2.25319-5.02638-3.46644-7.53955l-.86662 8.23285c-.25998 2.5998-.4333 5.1996-.60662 7.7995H0l.00001984-.0002C.346658 18.4587.693295 15.8589.953273 13.2592l.519967-5.45969c.08666-.90994.15166-1.79822.21665-2.6865.065-.88828.13-1.77655.21666-2.6865 0-.4333-.17333-.86661-.51997-1.21325C1.03993.866612.606629.69329.173323.69329V0H8.66612c1.03993 2.59984 2.16648 5.19967 3.29308 7.79951l1.5599 3.46649 1.4733-3.46649C16.119 5.19967 17.1589 2.59984 18.1988 0h6.4996ZM103.3 1.64656c5.46 0 11.006 3.20647 11.179 9.44604v.3467c0 6.4996-5.633 9.7927-11.179 9.7927-5.5462 0-11.1792-3.2931-11.1792-9.7927 0-6.49961 5.633-9.79274 11.1792-9.79274Zm-5.7195 9.79274c0 3.5531 1.4732 7.7128 5.7195 7.7128 4.247 0 5.72-4.1597 5.72-7.7128 0-3.55313-1.473-7.71287-5.72-7.71287-4.2463 0-5.7195 4.15974-5.7195 7.71287ZM56.8498 25.9981c-15.7724-.0867-31.458 1.6465-46.88372 5.113-.04333 0-.065.0216-.08666.0433-.02167.0217-.04333.0433-.08666.0433v.26c0 .0867 0 .0867.08666.1733 0 .0867.08666.0867.17328.0867 15.5991-1.3866 31.1981-1.9065 46.8837-1.6466 21.8387.4334 43.5906 2.3399 65.1696 5.893.086.0867.173 0 .173-.0867 0-.0866 0-.1733-.087-.1733-20.625-6.3262-42.637-9.706-65.3422-9.706Z"/>
</svg>