<svg xmlns="http://www.w3.org/2000/svg" viewBox="0 0 140 24">
	<path fill="#fff" d="M74.8957 13.7261h-1.4468L66.1771.113281h-5.5929V23.0741h5.0338V11.069h1.645l4.9355 9.7753h3.9478l4.9353-9.7753h1.6451v12.0051h5.0338V.113281h-5.5929L74.8957 13.7261Zm57.3303-4.9205h-9.016V5.03379h15.25V.113281h-20.503V23.0741h14.269c5.085 0 7.774-2.8532 7.774-7.1503 0-4.2972-3.016-7.1182-7.774-7.1182Zm-.425 9.5104h-8.591v-4.7537h8.595c1.968 0 2.885.6554 2.885 2.3615 0 1.706-.921 2.3951-2.889 2.3951v-.0029ZM115.713.113281h-6.477l-8.271 8.856279h-2.9221V.113281h-5.3144V23.0741h5.3144V13.89h2.9221l8.304 9.1841h6.71l-10.812-11.8528L115.713.113281ZM28.99 0 16.8749 11.511l-5.625-5.54229L17.0851 0H6.05766L0 5.96871 16.8749 23.0217 32.019 7.6739h9.9517L49.2183.0349877 28.99 0Zm20.7669 9.80568H32.8823L19.4689 23.0218H30.286l6.0575-5.9687h5.6251l7.7883-7.24742Z"/>
</svg>