<svg xmlns="http://www.w3.org/2000/svg" viewBox="0 0 159 36">
	<path fill="#fff" d="M.719879 6.75C.719879 3.41895 3.41977.720703 6.75.720703h22.5c3.3302 0 6.0301 2.698247 6.0301 6.029297v22.5c0 3.3311-2.6999 6.0293-6.0301 6.0293H6.75c-3.33023 0-6.030121-2.6982-6.030121-6.0293V6.75ZM6.75 0C3.02206 0 0 3.02124 0 6.75v22.5C0 32.9788 3.02206 36 6.75 36h22.5c3.7279 0 6.75-3.0212 6.75-6.75V6.75C36 3.02124 32.9779 0 29.25 0H6.75Zm5.8499 8.9978H9v7.2004h3.5999v3.5992H9v7.2004h3.5999v-3.5991h3.6v3.5991h3.6002v-3.5991h3.6v3.5991H27v-3.5991h-3.5999v-3.6013H27v-7.2005h-3.5999V8.9978H16.1999v3.5991h-3.6V8.9978Zm7.2002 7.2004h-3.6002v-3.6013h3.6002v3.6013Zm0 3.5992h-3.6002v3.6013h3.6002v-3.6013Zm0 0v-3.5992h3.6v3.5992h-3.6ZM121.464 16.0818c.207.022.408.0549.601.1011.387.0922.746.2285 1.079.4109.221.1186.426.2526.614.4042.172.1407.331.2945.475.4615.168.1955.317.4109.445.646.368.6548.551 1.4106.551 2.2697 0 .8811-.218 1.6656-.654 2.3533-.426.6768-1.024 1.2041-1.794 1.582-.77.367-1.643.5494-2.621.5494-1.621 0-2.897-.5164-3.827-1.5469-.921-1.0415-1.379-2.5664-1.379-4.5703 0-1.8567.401-3.3333 1.207-4.4341.815-1.1118 2.063-1.8391 3.74-2.1819l4.415-.8767.362 2.3027-3.897.7735c-.505.0988-.949.2285-1.331.3911-.165.0703-.319.145-.461.2263-.217.1231-.407.2615-.57.4131-.505.4812-.805 1.1623-.897 2.0456.403-.435.885-.7668 1.449-.9975.562-.2395 1.178-.3604 1.845-.3604.223 0 .439.0132.648.0374Zm-1.287 6.6994c.163 0 .317-.0109.465-.0351.124-.022.243-.0527.356-.0901.322-.1099.601-.2922.835-.5449.22-.2329.383-.4966.489-.7932.099-.2747.149-.5779.149-.9097 0-.1186-.006-.2329-.018-.3428l-.032-.2065c-.015-.0835-.035-.1648-.059-.2417-.103-.3406-.279-.6328-.529-.8745-.414-.4131-.965-.6197-1.656-.6197-.701 0-1.263.2066-1.689.6197-.138.134-.254.2834-.347.446-.195.3406-.292.7471-.292 1.2195 0 .7009.22 1.2722.656 1.7205.437.435.995.6525 1.672.6525Zm-64.2113-5.3261.0173 7.2004h2.6208l-.0173-12.03h-2.3104l-4.4484 7.4751-4.5173-7.4751H45v12.03h2.6208v-7.0642l3.5519 5.792h1.2411l3.5519-5.9282Zm6.9637 6.7346c.315.1626.6457.2922.9924.3889.1755.0484.3551.0879.5388.1209.3538.0615.7229.0922 1.1069.0922.5452 0 1.0583-.0615 1.5389-.1867.3807-.0989.7413-.2373 1.0819-.4153.7701-.4131 1.3736-.98 1.8103-1.7007.4367-.7229.655-1.5403.655-2.4587 0-.4966-.0642-.9646-.1925-1.4041-.1085-.3713-.2626-.7229-.4625-1.0525-.4367-.7207-1.0402-1.2832-1.8103-1.6831-.4268-.2285-.885-.3933-1.3749-.4966-.3947-.0813-.81-.123-1.2459-.123-.977 0-1.8564.2065-2.6381.6196-.7701.3999-1.3736.9624-1.8103 1.6831-.1955.323-.3474.6658-.4553 1.0284-.1335.446-.2.9228-.2 1.4282 0 .4636.0555.9009.1667 1.3139l.0635.2132c.048.1516.1038.2966.1672.4372l.0967.2022c.05.0989.1038.1977.1612.2922.4367.7207 1.0402 1.2876 1.8103 1.7007Zm4.3278-2.2852c-.437.4571-1 .6878-1.6897.6878s-1.2588-.2307-1.707-.6878c-.4482-.4702-.6724-1.0942-.6724-1.8742 0-.7779.2242-1.3975.6724-1.8545.4482-.4702 1.0173-.7053 1.707-.7053.3351 0 .6402.0549.9154.167.2915.1164.5496.2966.7743.5383.4482.457.6724 1.0766.6724 1.8545 0 .1098-.0044.2175-.0132.3208-.0132.1538-.0363.301-.069.4416-.0255.1077-.0568.2132-.0942.3142-.112.3033-.2774.5691-.496.7976Zm15.3364.5516v4.1923h-2.5002v-1.9929H73.576v1.9929h-2.5v-4.1923h.3794c.5745-.0132.9711-.3494 1.1895-1.0152.2186-.6636.3565-1.6084.4139-2.8345l.1206-3.197h8.0865v7.0467h1.3277Zm-7.1038-3.6607c-.0343.9382-.109 1.7073-.2241 2.3027-.1036.5955-.3046 1.0481-.6034 1.358h3.9138v-4.8472h-3.0344l-.0519 1.1865Zm13.7274 6.427 4.1899-9.813H90.821l-2.6208 6.2732-2.6035-6.2732h-2.776l4.0174 9.3142-.0346.0857c-.0934.2088-.1925.3867-.2974.534-.1022.145-.2099.2592-.3233.3427-.2299.1824-.5287.2747-.8965.2747-.2645 0-.5345-.0527-.8105-.1538-.0821-.0308-.1612-.0681-.2376-.1099l-.0755-.0395c-.1412-.0791-.2725-.1736-.3939-.2813l-.9827 1.9072c.1862.1648.4057.3077.6586.4263.1533.0725.3189.1362.4966.1934.1689.0527.3387.0967.5092.1296.0967.0198.1934.0352.2906.0484.2093.0285.4197.0439.6312.0439.8852 0 1.638-.2175 2.2588-.6526.3908-.2681.7421-.657 1.0538-1.1667.1926-.3164.37-.6768.5323-1.0833Zm13.5548-9.813v9.2461h-2.69v-7.0466h-2.9307l-.0863 1.6326c-.0296.7866-.0884 1.4897-.1763 2.1027l-.0687.4307-.0684.3516-.0313.1384c-.184.802-.4828 1.4326-.8967 1.8918-.4137.4571-.9885.6878-1.7241.6878-.3908 0-.8563-.0703-1.3966-.2066l.1379-2.1994c.184.0219.3161.0329.3966.0329.4024 0 .7012-.1428.8968-.4284.2068-.2989.3447-.6702.4136-1.1184l.0467-.356c.0461-.3999.0824-.8833.1085-1.448l.1379-3.7112h7.9311Zm10.207 3.7815c-.643-.5383-1.568-.8152-2.775-.8262h-2.345v-2.9553h-2.673v9.2461l4.656.0154c1.298 0 2.304-.2791 3.017-.8416.471-.3713.789-.8371.953-1.3974.089-.3032.134-.6328.134-.991 0-.9734-.322-1.7248-.967-2.25Zm-2.189 3.2476c-.276.2285-.672.3384-1.19.3252h-1.741V20.083l1.741.0176c.317.0066.586.0483.807.1252.149.0506.277.1187.383.2022.276.2065.414.5317.414.9778 0 .4592-.138.802-.414 1.0327Zm22.854-6.137c-.77-.6877-1.873-1.0305-3.31-1.0305-.36 0-.715.022-1.066.0681-.233.0308-.464.0703-.694.1187-.144.0307-.287.0659-.43.1054-.191.0528-.375.1121-.553.178-.11.0396-.218.0835-.323.1296-.115.0506-.227.1033-.336.1583-.212.1076-.412.2263-.598.3581l.965 1.8743c.333-.2637.736-.4702 1.208-.6197.482-.1604.97-.2395 1.465-.2395.486 0 .889.0748 1.209.2242.15.0703.281.156.395.257.356.3099.534.7559.534 1.3404h-2.138c-1.071 0-1.923.1516-2.557.4614-.084.0396-.164.0835-.241.1296-.077.0462-.15.0945-.219.1473-.645.4921-.966 1.1689-.966 2.028 0 .5384.138 1.0196.414 1.4436.275.4241.673.7559 1.19.9954.199.0901.412.1648.637.2219.373.0945.781.1406 1.225.1406.807 0 1.465-.1472 1.973-.4416.36-.2087.644-.4922.854-.8481v1.1513h2.518v-5.2756c0-1.3733-.385-2.3994-1.156-3.0762Zm-2.292 6.3765c-.357.2065-.765.3098-1.224.3098-.122 0-.238-.0066-.347-.0198-.148-.0176-.285-.0483-.409-.0901-.079-.0263-.153-.0571-.222-.0945-.05-.0263-.099-.0571-.144-.0878-.264-.2066-.396-.4812-.396-.8262 0-.7207.551-1.0833 1.655-1.0833h1.845v.9471c-.15.4108-.403.7272-.758.9448Zm5.612-7.2686h2.672v3.6079h4.034v-3.6079h2.69v9.2461h-2.69v-3.4541h-4.034v3.4541h-2.672v-9.2461Zm14.489 5.7393h1.396l2.483 3.5068h3.172l-3.465-4.812 3.242-4.4341h-2.863l-2.517 3.5926h-1.448v-3.5926h-2.69v9.2461h2.69v-3.5068Z"/>
</svg>