<svg xmlns="http://www.w3.org/2000/svg" viewBox="0 0 140 34">
	<path fill="#fff" d="M64.0439 19.6185c-.1737-.2841-.2581-.5823-.2535-.8948.001-.0237.0132-.0354.0369-.0354l12.2636.0099c.1245.0008.2361-.107.2407-.2322.0859-2.4231-.2392-4.8201-1.896-6.6919-1.6558-1.87177-4.0045-2.81152-6.4752-2.74976-3.3855.08638-6.2472 2.38166-7.3403 5.56616-1.1597 3.3784.1501 7.1293 3.0585 9.191 2.6861 1.9016 6.5573 1.9384 9.4175.2605.7646-.4474 1.4089-1.0634 2.09-1.6184.1622-.1321.1709-.3852.0184-.5282-.5541-.5164-1.0729-1.0539-1.5562-1.6128-.0745-.0861-.2042-.1147-.3072-.0679-.7796.4732-1.508 1.0874-2.3987 1.4187-2.6025.9657-5.3905.4617-6.8985-2.0149Zm2.8178-7.2213c2.5331-.7024 5.3664.4828 6.182 3.0598.0225.0739-.0308.1324-.1005.1445l-9.2066.034c-.0479-.0051-.0865-.0424-.075-.0935.3611-1.5661 1.7034-2.7286 3.2001-3.1448ZM55.7971 24.8656c.2025 0 .1673.1454.1673.2152l-.017 2.9382c-.001.2039.1005.3068.3044.3086l2.604.0184c.1448.0018.2676-.1183.2676-.2633l.0142-5.9966c0-.1436-.126-.271-.2691-.2719l-1.5943-.0071c-.1445-.0008-.2167-.0736-.2167-.218l.0014-12.03707c0-.12361-.0613-.18549-.184-.18549l-11.5302.00142c-.0523 0-.0954.04409-.0948.09628.0321 2.73566.0354 5.20706.0099 7.41396-.017 1.495-.3111 2.979-1.2347 4.1827-.5081.664-1.363.6986-2.1254.8043-.1539.0218-.2308.11-.2308.2648l-.0014 5.9569c0 .1634.0817.245.2449.245l2.7187.0014c.1529 0 .2294-.0765.2294-.2294l.0042-2.9763c.0011-.1581.137-.2391.281-.2394 3.5505-.0081 7.1009-.0226 10.6514-.0226Zm-1.9807-3.0089h-6.6522c-.1503 0-.248-.1734-.1501-.2959.5994-.7495.9601-1.5811 1.0818-2.4949.283-2.1142.3971-4.2272.3314-6.3605-.0057-.1926.0878-.2889.2803-.2889l4.9955.0113c.094 0 .177.0825.177.1756l-.0028 9.1599c0 .0406-.014.0934-.0609.0934ZM90.3396 9.37411l2.9183.00142c.0638 0 .1203.05674.1203.12036l-.0014 15.26401c0 .0636-.0565.1204-.1203.1204l-2.9226.0042c-.0637 0-.1203-.0566-.1203-.1203v-6.2203c0-.0638-.0564-.1204-.1204-.1204l-7.547.0057c-.0638 0-.1204.0566-.1204.1203l-.0042 6.2118c0 .0636-.0566.1204-.1204.1204h-2.9296c-.0637 0-.1204-.0567-.1204-.1204l.0043-15.26683c0-.06372.0566-.12036.1203-.12036l2.9183.00142c.0637 0 .1204.05664.1204.12036l.0099 5.75871c0 .0637.0566.1203.1203.1203l7.5443-.0042c.0638 0 .1203-.0567.1203-.1204l.0099-5.75583c0-.06373.0567-.12036.1204-.12036Zm9.7404 4.45599c-.007-1.4905-.009-2.9108-.006-4.26058.001-.10621-.0873-.19541-.1936-.19541l-2.8504.00284c-.0758 0-.143.06767-.143.14442l-.0028 15.18333c0 .0912.0801.1719.1713.1727 2.1098.0095 4.2605.0114 6.4515.0057 2.381-.0076 4.524-.9701 5.556-3.2482.553-1.2259.51-2.4992.201-3.7792-.607-2.5127-3.163-3.7531-5.558-3.7976-1.153-.0227-2.301-.0269-3.442-.0127-.112.002-.184-.1124-.184-.2153Zm-.042 7.7623.014-4.2535c0-.1243.105-.2272.229-.2266l3.556.0128c1.26.0045 2.346 1.0392 2.342 2.3136v.0992c-.005 1.2689-1.092 2.3013-2.359 2.2966l-3.556-.0127c-.124-.0006-.227-.1066-.226-.2294Zm15.37-9.1724c-.14 0-.21.0698-.21.2096l-.007 12.0597c0 .1049-.092.1982-.197.1982l-2.955-.0071c-.039 0-.073-.0345-.073-.0736.004-5.0427-.016-10.2856-.016-15.34332-.005-.05044.036-.09487.086-.09487l10.691.00142c.096 0 .176.081.174.17699l-.025 2.71578c-.001.0882-.075.162-.163.1614l-7.305-.0042Zm21.171 2.5912c.147-.1663.221-.1384.221.0835 0 3.1265-.037 6.298-.037 9.5747-.006.1136.088.211.201.211l2.787.0057c.163 0 .243-.0817.243-.245L140 9.56822c0-.10544-.093-.19824-.198-.19824l-2.26.00284c-.13-.00029-.261.05886-.345.15858-2.819 3.2539-5.629 6.4922-8.43 9.7149-.079.0915-.175.1608-.287.2081-.078.031-.166-.0257-.166-.1104l.026-9.79844c0-.09344-.078-.17251-.172-.17133l-2.904.00283c-.046 0-.086.04071-.086.08638l-.006 15.24566c0 .0941.079.1733.173.1727.589-.0028 1.243.0014 1.961.0127.419.0071.644-.1529.918-.4616 2.736-3.0934 5.521-6.234 8.355-9.4217Z"/>
	<path fill="#FF9E00" d="M22.0443 16.9469c0 2.8108-2.2866 5.0974-5.0974 5.0974-2.8108 0-5.0975-2.2866-5.0975-5.0974 0-2.8108 2.2867-5.0975 5.0975-5.0975s5.0974 2.2867 5.0974 5.0975ZM16.9469 0C7.6019 0 0 7.60185 0 16.9469c0 9.345 7.6019 16.9469 16.9469 16.9469 3.3977 0 6.8041-1.0313 9.5944-2.9815l-2.283-2.6533c-2.2078 1.3777-4.698 2.1607-7.3114 2.1607-7.42883 0-13.47279-6.044-13.47279-13.4728 0-7.42883 6.04396-13.47279 13.47279-13.47279 7.4288 0 13.4728 6.04396 13.4728 13.47279 0 1.8644-.2852 5.3084-2.8871 5.1095-.9248-.0751-2.007-.7336-2.0142-2.346v-2.7635c0-4.727-3.8445-8.57151-8.5715-8.57151S8.37539 12.2199 8.37539 16.9469s3.84451 8.5715 8.57151 8.5715c2.2963 0 4.4498-.897 6.073-2.5299.9442 1.4695 2.4828 2.3907 4.2343 2.5312.1501.012.3039.0181.4553.0181 4.6727 0 6.1843-4.7389 6.1843-8.5909C33.8938 7.60185 26.2919 0 16.9469 0Z"/>
</svg>