<svg xmlns="http://www.w3.org/2000/svg" viewBox="0 0 100 38">
  	<path fill="#f6bc25" d="M100 0h-5.1v37.2h5.1V0Z"/>
  	<path fill="#fff" d="m7.4 23.9-3.8-7.1H0v11.8h3v-7.3l3.2 6h2.2l3.2-6v7.3h3.1V16.8h-3.6l-3.7 7.1zM41.4 21h-4.7v-4.2h-3.6v11.8h3.6v-4.8h4.7v4.8H45V16.8h-3.6V21zM61.2 19.6h3.9v9h3.6v-9h4v-2.8H61.2v2.8zM27.5 17.2c-1-.5-2.2-.8-3.5-.8s-2.5.3-3.5.8-1.8 1.3-2.4 2.2c-.6 1-.9 2-.9 3.3s.3 2.3.9 3.3c.6 1 1.4 1.7 2.4 2.3 1 .5 2.2.8 3.5.8s2.5-.3 3.5-.8 1.8-1.3 2.4-2.3c.6-1 .9-2 .9-3.3s-.3-2.3-.9-3.3c-.6-1-1.4-1.7-2.4-2.2Zm-.6 6.6c0 .2-.1.4-.2.6-.2.3-.3.6-.6.8l-.3.3s-.1.1-.2.1c-.5.3-1 .4-1.6.4s-1.1-.1-1.6-.4c-.5-.3-.8-.7-1.1-1.2-.3-.5-.4-1.1-.4-1.8v-.9c0-.4.2-.7.3-1 .3-.5.6-.9 1.1-1.2.5-.3 1-.4 1.6-.4s1.1.1 1.6.4c.5.3.8.7 1.1 1.2.1.2.2.5.3.8 0 .3.1.6.1 1s0 .8-.1 1.1ZM58.2 17.9c-.3-.2-.6-.5-1-.7-.9-.5-2-.8-3.2-.8s-2.4.3-3.4.8-1.8 1.3-2.4 2.2c-.3.5-.5.9-.6 1.5-.1.4-.2.9-.2 1.4v.4c0 1.2.3 2.3.9 3.3.6.9 1.4 1.7 2.5 2.2 1.1.5 2.3.8 3.8.8s2.2-.2 3.2-.5c1-.4 1.8-.9 2.4-1.5l-1.8-2.1c-1 1-2.1 1.5-3.5 1.5s-1.4-.1-2-.4c-.6-.3-1-.7-1.3-1.2-.2-.3-.3-.6-.4-.9h9v-1.2c0-1.2-.3-2.3-.8-3.2-.3-.6-.7-1.1-1.2-1.5Zm-7.1 3.7v-.4c0-.2.1-.3.2-.5s.3-.5.4-.7l.6-.6c.4-.3 1-.4 1.5-.4s1.1.1 1.5.4c.4.3.7.6 1 1.1.1.3.2.6.3 1h-5.5ZM84.7 18.7c-.5-.7-1.2-1.3-2.1-1.7-.9-.4-2-.6-3.2-.6s-2.1.2-3 .5c-.9.3-1.7.8-2.3 1.4l1.8 2.1c.4-.4 1-.8 1.5-1 .6-.2 1.2-.4 1.9-.4s1.6.2 2.1.6c.5.4.7.9.8 1.5h-2.5c-1.2 0-2.3.2-3.2.5-.3.1-.6.2-.9.4-.5.3-.9.6-1.2 1-.5.6-.7 1.3-.7 2.1s0 .8.2 1.2c0 .3.2.6.4.9.4.6 1 1 1.7 1.4.3.2.7.3 1 .3.4 0 .9.1 1.4.1 1 0 1.9-.2 2.6-.6.5-.3 1-.6 1.3-1.1v1.3h3.2v-7.2c0-1.1-.3-2-.8-2.7Zm-2.7 6c0 .1-.1.3-.2.4-.3.4-.7.7-1.1 1-.5.2-1 .4-1.5.4s-1-.1-1.4-.4c-.4-.3-.5-.6-.5-1.1s0-.5.2-.7c.1-.2.3-.4.5-.5.5-.3 1.1-.4 1.9-.4h2.3v1.3Z"/>
</svg>