<svg xmlns="http://www.w3.org/2000/svg" viewBox="0 0 170 18">
	<path fill="#fff" d="M12.5508 5.79861C12.5508 2.59615 15.1469 0 18.3497 0c3.2027 0 5.7988 2.59615 5.7986 5.79861 0 3.20297-2.5959 5.79909-5.7986 5.79909-3.203 0-5.7989-2.59637-5.7989-5.79909Zm2.3723 0c0 1.89253 1.534 3.42653 3.4266 3.42653 1.8927 0 3.4262-1.534 3.4262-3.42653 0-1.89252-1.5335-3.42626-3.4262-3.42626-1.8928 0-3.4266 1.53399-3.4266 3.42626Zm32.6841 5.79919c0-3.20229 2.5962-5.7987 5.7989-5.7987 3.2027 0 5.7989 2.59615 5.7986 5.7987 0 3.2027-2.5959 5.7989-5.7986 5.7989-3.203 0-5.7989-2.5962-5.7989-5.7989Zm2.3724 0c0 1.8925 1.534 3.4265 3.4265 3.4265 1.8926 0 3.4265-1.534 3.4263-3.4265 0-1.89261-1.5337-3.42635-3.4263-3.42635-1.8928 0-3.4265 1.53374-3.4265 3.42635ZM2.65833 5.99145l2.94698 4.73965L8.5516 5.99145h2.6588V17.2021H8.75985V9.88284L5.60531 14.6705h-.06412L2.41807 9.93069v7.27141H0V5.99145h2.65833ZM26.8969 11.5963c0 1.9218 1.3292 3.5236 3.2511 3.5236 1.2813 0 2.0662-.5132 2.9469-1.3131l1.5691 1.586c-1.1524 1.232-2.4338 2.0005-4.5961 2.0005-3.2998 0-5.7493-2.5461-5.7493-5.7648v-.0322c0-3.18702 2.4021-5.79737 5.8446-5.79737 2.1142 0 3.3803.70524 4.4205 1.73017l-1.5691 1.80957c-.8647-.78464-1.7451-1.26523-2.8666-1.26523-1.8902 0-3.2511 1.56987-3.2511 3.49066v.0322Zm36.9828-5.60485 2.946 4.73965 2.9473-4.73965h2.658V17.2021h-2.4507V9.88284l-3.1546 4.78766h-.0636l-3.1226-4.73981v7.27141h-2.4188V5.99145h2.659Zm13.8997 0 2.9467 4.73965 2.9463-4.73965h2.6604V17.2021h-2.4513V9.88284l-3.1554 4.78766h-.0641l-3.123-4.73981v7.27141h-2.4177V5.99145h2.6581Zm18.977 6.66195h-5.2845v2.3542h6.086v2.1945h-8.5357V5.99145h8.4558v2.19334h-6.0061v2.27481h5.2845v2.1938Zm3.156-6.66195h4.5796c2.675 0 4.292 1.58551 4.292 3.87566v.03213c0 2.59376-2.017 3.93926-4.532 3.93926h-1.874v3.3636h-2.4656V5.99145Zm4.4196 5.65225c1.233 0 1.953-.7358 1.953-1.69728h.001v-.03171c0-1.105-.769-1.69779-2.002-1.69779h-1.905v3.42678h1.953Zm29.359 5.5587 4.805-11.29076h2.274l4.804 11.29076h-2.578l-1.024-2.5142h-4.741l-1.024 2.5142h-2.516Zm5.91-8.32826-1.49 3.63576h2.979l-1.489-3.63576Zm9.848 1.55306h4.55V5.99145h2.465V17.2021h-2.465v-4.501h-4.55v4.501h-2.465V5.99145h2.465v4.43575Zm-22.847-.413h1.783c2.75 0 4.623.842 4.623 3.5293v.032c0 2.0745-1.617 3.6266-4.292 3.6266h-4.58V5.99145h8.101l-.919 2.22547h-4.716v1.79728Zm0 4.9622h1.905c1.134 0 2.002-.3874 2.002-1.3949 0-.8909-.591-1.3743-1.952-1.3743h-1.955v2.7692Zm-8.946-8.98495h2.465v8.93605h1.783v2.2746h-11.05V5.99145h2.467v8.93605h4.335V5.99145ZM39.0995 17.2021H36.634V5.99145h2.4655V17.2021Zm5.0488-11.21065h2.9787l-4.4878 5.51195 4.8405 5.6987h-3.1076l-4.5746-5.6987 4.3508-5.51195Zm125.4987 0-4.486 5.51195L170 17.2021h-3.106l-4.576-5.6987 4.352-5.51195h2.977Zm-8.026 11.21065h-2.468V5.99145h2.468V17.2021Z"/>
</svg>