<svg xmlns="http://www.w3.org/2000/svg" viewBox="0 0 180 30">
	<path fill="#fff" d="M11.0546 1.70884c5.3598 0 9.7146 4.28588 9.7146 9.45086 0 5.275-4.3548 9.451-9.7146 9.451-5.35981 0-9.71465-4.2859-9.71465-9.451-.11166-5.16498 4.35484-9.45086 9.71465-9.45086Zm0-1.20884C4.91315.5 0 5.33535 0 11.2696c0 5.9343 4.91315 10.7697 11.0546 10.7697 6.0298 0 11.0546-4.8354 11.0546-10.7697C21.9975 5.22545 17.0844.5 11.0546.5ZM9.71524 7.53295 7.37032 5.22517 5.02541 7.53295v6.81345l4.68983-4.61558V7.53295Zm3.90756 4.72545-2.5682-2.52758V7.53295L8.70968 5.22517h5.13642l2.345 2.30778v2.19787l-2.5683 2.52758Zm-.5579.55-2.68-2.6374-6.81139 6.5936h5.35982l4.13157-3.9562ZM10.05 16.7646l6.8113-6.5936v6.5936H10.05ZM51.6997 17.0943c2.2332 0 4.1315-.7693 5.6947-2.3077 1.5633-1.5386 2.345-3.4068 2.345-5.60467 0-2.19789-.7817-4.0661-2.345-5.60461-1.5632-1.53853-3.4615-2.30779-5.6947-2.30779-2.2333 0-4.1316.76926-5.6949 2.30779C44.4416 5.11583 43.66 6.98404 43.66 9.18193c0 2.19787.7816 4.06607 2.3448 5.60467 1.5633 1.5384 3.4616 2.3077 5.6949 2.3077Zm0-2.5276c-1.5633 0-2.9033-.5494-3.9083-1.5385-1.1165-.989-1.5632-2.1978-1.5632-3.84627 0-1.64842.5583-2.96715 1.5632-3.9562 1.005-.98905 2.345-1.53852 3.9083-1.53852s2.9032.54947 3.9081 1.53852c1.005.98905 1.5633 2.19788 1.5633 3.8463 0 1.64837-.5583 2.96717-1.5633 3.95617-1.0049.9891-2.3448 1.5385-3.9081 1.5385Zm-10.3848 2.1979V1.48931h-2.6798L33.9452 9.1819l-4.6898-7.69259h-2.7915V16.7646h2.5682V5.88507l4.6898 7.69263h.335l4.6898-7.69263V16.7646h2.5682Zm28.0274.3297c-2.3449 0-4.2432-.7693-5.8064-2.3077-1.5633-1.5386-2.3449-3.4068-2.3449-5.60467 0-2.19789.7816-4.17599 2.3449-5.60461 1.5632-1.53853 3.4615-2.30779 5.8064-2.30779 1.4516 0 2.6799.32969 3.9082.98905 1.2283.54947 2.1216 1.42863 2.7915 2.63747l-2.2332 1.31873c-.4466-.76927-1.0049-1.31873-1.7866-1.75832-.7816-.43957-1.6749-.65936-2.6799-.65936-1.675 0-3.0149.54947-4.0198 1.53852-1.005.98905-1.5633 2.30778-1.5633 3.9562 0 1.53858.5583 2.85718 1.5633 3.95618 1.0049.989 2.3448 1.5386 4.0198 1.5386 1.005 0 1.8983-.2199 2.6799-.6594.7817-.4396 1.4516-1.099 1.7866-1.7583l2.2332 1.2088c-.6699 1.0989-1.5632 1.9781-2.7915 2.6375-1.1166.5494-2.4566.8791-3.9082.8791Zm16.0791 0c2.2332 0 4.1316-.7693 5.6946-2.3077 1.5638-1.5386 2.2336-3.4068 2.3453-5.60467 0-2.19789-.7815-4.0661-2.3453-5.60461-1.563-1.53853-3.4614-2.30779-5.6946-2.30779-2.2333 0-4.1315.76926-5.6948 2.30779-1.5633 1.53851-2.345 3.40672-2.345 5.60461 0 2.19787.7817 4.06607 2.345 5.60467 1.5633 1.5384 3.4615 2.3077 5.6948 2.3077Zm-.1117-2.5276c-1.5632 0-2.9032-.5494-3.9082-1.5385-1.0049-.989-1.5633-2.3078-1.5633-3.95617 0-1.64842.5584-2.96715 1.5633-3.9562 1.005-.98905 2.345-1.53851 3.9082-1.53851 1.5633 0 2.9032.54946 3.9084 1.53851 1.0048 1.09895 1.563 2.30778 1.563 3.9562 0 1.64837-.5582 2.96717-1.563 3.95617-1.0052.9891-2.3451 1.5385-3.9084 1.5385Zm16.3033-7.1431c1.452 0 2.68.43957 3.573 1.31873.893.87911 1.451 1.97817 1.451 3.40677 0 1.3187-.446 2.5275-1.451 3.4067-.893.8792-2.121 1.3187-3.573 1.3187h-5.9182V1.48931h9.4912v2.41767h-7.0351V7.4236h3.4621Zm0 7.0332c.669 0 1.228-.2197 1.787-.6594.446-.4395.67-.989.67-1.6483 0-.6594-.224-1.2089-.67-1.6485-.447-.4395-1.006-.65934-1.787-.65934h-3.3505v4.72544h3.3505v-.1099Zm5.583 0v2.3078c.732.103 1.367.013 2.086-.0891l.147-.0208c.558-.1099 1.117-.4395 1.675-.8791s.893-1.099 1.229-2.088c.335-.9891.446-2.088.446-3.4068V3.90697h5.248V16.8745h2.457V1.59919h-10.385v8.79151c0 1.6485-.223 2.8573-.67 3.4068-.558.5495-1.228.7692-2.233.6593Zm22.555-7.36288c1.564 0 2.904.43957 3.797 1.31873.893.87915 1.452 2.08795 1.452 3.51665 0 1.4286-.448 2.6374-1.452 3.5166-.893.8791-2.233 1.3187-3.797 1.3187h-6.364V1.48931h10.272v3.7364h-6.364v1.86821h2.456Zm-.223 6.04418c.446 0 .781-.1099 1.004-.3297.225-.2198.336-.5494.336-.989s-.111-.7692-.336-.9891c-.223-.2198-.558-.3297-1.004-.3297h-2.233v2.5276h2.233v.1099Zm15.41 1.4286.67 2.1979h4.243l-5.136-15.27529h-4.802l-5.136 15.27529h4.354l.67-2.1979h5.137Zm-2.568-8.57173 1.563 5.16503h-3.126l1.563-5.16503Zm16.972-4.50566h3.909V16.7646h-3.909v-5.8244h-4.354v5.8244h-4.02V1.48931h4.02v5.60461h4.354V1.48931Zm14.851 15.27529h4.467l-5.137-7.80249 4.913-7.4728h-4.466l-4.243 6.37386V1.48931h-4.02V16.7646h4.02V9.95113l4.466 6.81347Zm-46.897 5.1647v1.3187h-2.569v5.4948h-1.339v-6.8135h3.908Zm4.801.6593c-.446-.4395-1.005-.6593-1.675-.6593h-2.568v6.8135h1.34v-2.198h1.228c.67 0 1.229-.2197 1.675-.6593.447-.4396.67-.989.67-1.6484 0-.6594-.223-1.2089-.67-1.6485Zm-1.005 2.3079c-.111.2197-.335.3297-.67.3297v-.11h-1.228v-2.088h1.228c.223 0 .446.11.67.3297.224.2198.335.4396.335.7693 0 .3296-.111.5495-.335.7693Zm6.141-2.9672h1.34l-2.122 4.9452c-.558 1.3188-1.451 1.9782-2.679 1.8683v-1.2089c.335 0 .67 0 .893-.1099.223-.1098.446-.3297.558-.6593l-2.233-4.7255h1.34l1.563 3.2968 1.34-3.4067Zm5.807 6.8135h1.34v-6.8135h-5.137v6.8135h1.341V23.248h2.456v5.4948Zm7.705 0h-1.34V23.248h-2.457v5.4948h-1.34v-6.8135h5.137v6.8135Zm5.248-1.2089.447 1.2089h1.451l-2.456-6.8135h-1.675l-2.456 6.8135h1.451l.446-1.2089h2.792Zm-.446-1.2088h-1.899l1.005-2.7474.894 2.7474Zm10.607 2.4177h-1.34V23.248h-2.456v5.4948h-1.341v-6.8135h5.137v6.8135Zm1.898-.8784c.671.6594 1.564.9891 2.568.9891.187 0 .385-.0122.583-.0244.397-.0244.794-.0488 1.092.0244.559-.3297.894-.7692 1.229-1.2088l-1.229-.6594c-.112.2198-.335.4396-.67.6594-.335.1099-.67.2197-1.116.2197-.67 0-1.228-.2197-1.675-.6593-.447-.4396-.67-.989-.67-1.6484 0-.6594.223-1.2089.67-1.6484.447-.4396 1.005-.6594 1.675-.6594.446 0 .781 0 1.116.2198.335.1099.558.3297.782.6594l1.229-.6594c-.335-.5495-.67-.8791-1.229-1.2088-.558-.3297-1.117-.4397-1.787-.4397-1.004 0-1.897.3297-2.568.9891-.67.6594-1.005 1.5385-1.005 2.5276 0 .989.335 1.8682 1.005 2.5275Zm8.933-3.2976c.67 0 1.228.2197 1.675.5494.447.4397.67.8792.67 1.5386s-.223 1.0989-.67 1.5385c-.447.4395-1.005.5495-1.675.5495h-2.679v-6.8135h4.354v1.3187h-3.015v1.3188h1.34Zm0 2.9671c.223 0 .446-.1099.67-.2197.223-.11.223-.3297.223-.6594 0-.2198-.112-.4397-.223-.6594l-.001-.0003c-.223-.1097-.446-.2195-.669-.2195h-1.228v1.7583h1.228ZM180 19.9514l-.893-1.2089H26.4639l.8933 1.2089H180Z"/>
</svg>