<svg xmlns="http://www.w3.org/2000/svg" viewBox="0 0 160 30">
	<path fill="#fff" d="M31.4773 4.96871h2.1806c.5192 0 .9912.05192 1.416.15576.4342.0944.8355.25488 1.2036.48144.3681.21712.6561.53808.8637.96288.2077.42481.3116.92986.3116 1.51515 0 2.07676-1.265 3.11516-3.7949 3.11516h-4.3047V1.28711h7.2924v1.9116h-5.1683v1.77Zm0 4.36128h2.1948c.5003 0 .892-.08493 1.1753-.2549.2925-.17931.4389-.5097.4389-.99115 0-.48146-.1464-.80712-.4389-.97707-.2833-.17936-.675-.26904-1.1753-.26904h-2.1948v2.49216Zm13.2793.11328c0 .30204.1604.45311.4815.45311.132 0 .2548-.01889.368-.05659v1.28851c-.3586.1321-.722.1983-1.0902.1983-.7175 0-1.2178-.2549-1.501-.7647-.708.557-1.5245.8354-2.4497.8354-.6702 0-1.2366-.184-1.6991-.5522-.4531-.3776-.6798-.88731-.6798-1.52928 0-.53804.1605-.98643.4815-1.34516.321-.35873.6938-.59946 1.1187-.72218.4247-.13217.8873-.19825 1.3876-.19825.557 0 1.095.06136 1.6143.18407v-.24071c0-.34928-.1369-.62776-.4107-.83544-.2737-.20767-.6702-.31151-1.1894-.31151-.7552 0-1.5576.16991-2.4073.50976V4.65719c.9064-.30208 1.7842-.45312 2.6339-.45312 2.2277 0 3.3417 1.02424 3.3417 3.07275v2.16645Zm-3.1294-1.21771c-.4059 0-.7458.07548-1.0195.22655-.2737.15098-.4106.38698-.4106.70792 0 .24545.0991.44848.2974.6089.2076.15107.4625.22656.7646.22656.5947 0 1.1044-.18404 1.5293-.55222V8.38126c-.4343-.10383-.8213-.1557-1.1612-.1557Zm7.0018 2.97354h-1.9683V4.40231h1.9683v2.57712h2.7471V4.40231h1.9682v6.79679h-1.9682V8.62198H48.629v2.57712Zm8.3522 0h-1.9683V4.40231h1.9683v2.53464h.8213L59.53 4.40231h2.2089l-2.3364 3.35596 2.5348 3.44083h-2.209l-1.9542-2.6904h-.7929v2.6904ZM35.7394 25.0087H33.757l-1.8266-2.5629v-.3681l1.8266-2.563h1.9824l-1.9257 2.747 1.9257 2.747Zm-3.2285 0h-1.9824l-1.8266-2.5629v-.3681l1.8266-2.563h1.9824l-1.9257 2.747 1.9257 2.747Zm13.503-9.2606h1.9682v9.912h-2.124v-6.1029l-2.6196 3.9789h-1.232L39.387 19.543v6.1171h-2.1241v-9.912h1.9683l3.3984 5.1543 3.3843-5.1543Zm5.5822 9.912h-1.7133v-6.7967h1.9682v3.8232l3.0302-3.8232h1.6992v6.7967h-1.9541v-3.8232l-3.0302 3.8232Zm8.3943-5.8056c.557-.7929 1.3782-1.1894 2.4639-1.1894 1.0289 0 1.836.354 2.4213 1.062.5948.6985.8921 1.5434.8921 2.5346 0 .9913-.2973 1.8408-.8921 2.5488-.5853.6986-1.3924 1.0478-2.4213 1.0478-.9346 0-1.6804-.3067-2.2373-.9204v3.8374h-1.9683v-9.9119h1.7417v.9911Zm3.2852 3.7949c.3209-.3776.4814-.8402.4814-1.3877s-.1605-1.0053-.4814-1.3735c-.321-.3776-.7553-.5664-1.3028-.5664-.4059 0-.7693.1086-1.0903.3257-.3115.2171-.5381.4861-.6797.8071v1.6142c.1416.321.3682.59.6797.8071.321.2171.6844.3257 1.0903.3257.5475 0 .9818-.184 1.3028-.5522Zm9.2712 2.0107h-2.124v-9.912h8.6236v9.912H76.936v-8.0004h-4.3892v8.0004Zm10.136-5.8056c.5563-.7929 1.3777-1.1894 2.4632-1.1894 1.0296 0 1.8366.354 2.4217 1.062.5949.6985.8918 1.5434.8918 2.5346 0 .9913-.2969 1.8408-.8918 2.5488-.5851.6986-1.3921 1.0478-2.4217 1.0478-.9342 0-1.6804-.3067-2.2366-.9204v3.8374h-1.9687v-9.9119h1.7421v.9911Zm3.2846 3.7949c.321-.3776.4811-.8402.4811-1.3877s-.1601-1.0053-.4811-1.3735c-.321-.3776-.7549-.5664-1.3025-.5664-.4058 0-.7693.1086-1.0903.3257-.3114.2171-.538.4861-.6797.8071v1.6142c.1417.321.3683.59.6797.8071.321.2171.6845.3257 1.0903.3257.5476 0 .9815-.184 1.3025-.5522Zm5.4952 2.0107h-1.7132v-6.7967h1.9677v3.8232l3.031-3.8232h1.6987v6.7967h-1.9542v-3.8232l-3.03 3.8232Zm10.8154 0h-4.1624v-6.7967h4.0494c.756 0 1.317.1746 1.685.5238.368.3399.552.7646.552 1.2744 0 .7741-.349 1.2933-1.048 1.5577.802.2642 1.204.7976 1.204 1.6 0 .5381-.179.9818-.538 1.331-.359.3399-.939.5098-1.742.5098Zm-2.195-2.8178v1.4726h1.615c.604 0 .906-.2407.906-.7221 0-.5004-.302-.7505-.906-.7505h-1.615Zm-.013-2.6338v1.4443h1.5c.567 0 .85-.236.85-.7079 0-.4909-.288-.7364-.864-.7364h-1.486Zm7.53 5.4516h-1.713v-6.7967h1.968v3.8232l3.03-3.8232h1.699v6.7967h-1.954v-3.8232l-3.03 3.8232Zm9.669-5.2392c-.057.8307-.137 1.5482-.241 2.1523-.095.5947-.236 1.1518-.424 1.6709-.189.5098-.445.8968-.765 1.1611-.321.2644-.709.3966-1.162.3966-.349 0-.707-.0662-1.076-.1984v-1.5575c.142.0566.279.0849.411.0849.491 0 .835-.4389 1.034-1.3169.198-.8779.335-2.1948.41-3.9505h5.522v6.7967h-1.967v-5.2392h-1.742Zm4.995 1.8408c0-.6136.108-1.1564.325-1.6284.217-.4815.501-.859.851-1.1328.358-.2738.73-.4814 1.118-.6231.396-.1415.797-.2123 1.203-.2123.68 0 1.265.1274 1.757.3823.5.2549.867.5853 1.104.9912.236.3965.397.8496.482 1.3594.094.5002.07 1.0006-.072 1.5009h-4.785c.103.4721.377.8261.821 1.0621.443.2265.967.3398 1.571.3398.747 0 1.43-.1369 2.054-.4107v1.5435c-.671.2831-1.501.4247-2.492.4247-1.133 0-2.073-.3162-2.818-.9487-.746-.6324-1.119-1.5151-1.119-2.6479Zm4.998-.6372c.047-.3115-.042-.6325-.269-.9629-.226-.3303-.613-.4956-1.16-.4956-.435 0-.807.1322-1.12.3965-.311.2549-.471.6089-.481 1.062h3.03Zm5.068 4.0356h-1.967v-6.7967h5.182V20.52h-3.215v5.1401Zm5.982 0h-1.713v-6.7967h1.968v3.8232l3.03-3.8232h1.7v6.7967h-1.955v-3.8232l-3.03 3.8232Zm12.176-8.1844c-.615.3775-1.337.5664-2.168.5664-.83 0-1.552-.1889-2.166-.5664V16.003c.652.3587 1.374.5381 2.166.5381.794 0 1.516-.1794 2.168-.5381v1.4727Zm-3.809 8.1844h-1.715v-6.7967h1.969v3.8232l3.03-3.8232h1.7v6.7967h-1.954v-3.8232l-3.03 3.8232Zm11.495-.6514h-1.983l1.926-2.747-1.926-2.747h1.983l1.826 2.563v.3681l-1.826 2.5629Zm-3.229 0h-1.983l1.927-2.747-1.927-2.747h1.983l1.826 2.563v.3681l-1.826 2.5629Z"/>
	<path fill="#292929" d="M12.3675 24.3101c6.82-.011 12.34-5.35 12.3295-11.925C24.6865 5.81014 19.1494.488998 12.3295.500017 5.50966.511027-.0104934 5.85003.00001498 12.425.0105233 18.9999 5.54764 24.3211 12.3675 24.3101Z"/>
	<path fill="url(#a)" d="M5.23637 2.85138c-.188.12596-.50797.33703-.53506.32682.01359-.01532.02208-.02383.07452-.06469l.02372-.01872.37753-.27575c.83633-.5447.83633-.5447.87865-.5515-.05929.06978-.81262.57873-.81936.58384Zm.2844.15319c.24545-.17361.54344-.43575.46217-.48171-.2201-.03235-1.16305.64002-1.05131.74896.04733.04766.31148-.07149.58914-.26725Zm.71273.21448c.23022-.18213.43508-.45788.22347-.50044-.38939-.02043-1.19351.58725-1.01236.76598.09303.09192.4587-.0034.78889-.26554Zm6.2335.51577c.0304-.25193-.237-.59067-.8144-.57535-.7144.0698-.9937.61449-.6281.90557.4436.35405 1.3866.13787 1.4425-.33022Zm1.803-.04597c-.0491-.25021-.4284-.57874-1.0107-.54299-.6569.08681-.7974.59236-.4012.88172.5316.38811 1.5084.1549 1.4119-.33873Zm1.7776-.11234c-.1303-.24681-.6044-.55831-1.1495-.50215-.5655.10214-.5688.57364-.1609.84769.5536.37278 1.4509.21447 1.351-.2383-.0068-.03405-.0236-.07661-.0406-.10724Zm1.4627-.16341c-.2031-.24171-.7161-.53619-1.1478-.46469-.4419.12085-.2675.58554.1845.84598.557.3183 1.1936.21618 1.0801-.17533-.0169-.06638-.0575-.13617-.1168-.20596Zm1.0632-.20256c-.259-.2332-.7822-.51236-1.0868-.42895-.3184.14468.1201.70811.7195.92599.4401.16.7245.03745.5739-.25022-.0407-.0749-.1151-.16512-.2066-.24682Zm.6315-.22469c-.298-.22468-.7991-.48512-.9667-.39661-.1879.19916.794.96174 1.2359.95834.1862-.00171.1675-.1532-.0457-.36938-.0423-.04255-.1152-.11234-.2235-.19235ZM7.3254 3.4948c.21509-.20936.32846-.51916-.01523-.5515-.54171-.00171-1.27642.59576-1.03608.84088.16254.16341.70088.05276 1.05131-.28938Zm1.43232.13108c.15068-.20087.14731-.49023-.24892-.50726-.54682.01873-1.09191.50215-.86005.76087.19301.21619.83296.11576 1.10897-.25361Zm1.72338.0834c.0965-.21617-.022-.51746-.49429-.52087-.59088.03745-1.04293.52427-.74156.79833.27938.25703 1.05135.13617 1.23585-.27746Zm8.8932-.96174c-.3555-.2417-.7653-.45107-.7821-.36597.0609.2281 1.2815 1.03664 1.361.90217.034-.05788-.22-.29278-.5789-.5362ZM4.00217 3.75524l-.02709.02383c.12186-.10554.28613-.24681.40799-.35406-.17777.14809-.29963.25703-.3809.33023Zm-.94296 1.66132c.26744-.3149.48242-.74214.35883-.82214-.17604-.03575-.58577.45617-.60264.4766-.3674.44257-.45716.68768-.42322.76258.05418.12255.38591-.08511.66703-.41704Zm.85658.22299c.16254-.20596.19811-.4681-.0135-.51235-.36229-.02554-.78899.56852-.6332.75236.11347.13277.45205.0068.6467-.24001Zm8.62061.66896c.0457-.30979-.3285-.72854-1.1461-.70811-.916.0783-1.2698.68598-.8296 1.05536.5773.48341 1.8877.25361 1.9757-.34725Zm2.4362-.04936c-.017-.30469-.4774-.7013-1.3003-.65535-.8718.10043-1.1292.65364-.6924 1.0094.6299.51236 2.0265.26384 1.9927-.35405Zm2.404-.18384c-.0796-.30469-.5722-.71833-1.3764-.63832-.8228.13787-.9531.72514-.4537 1.07919.684.48681 1.9062.24 1.8419-.37279-.0017-.02042-.0067-.04765-.0118-.06808Zm1.9756-.22128c-.1388-.29959-.6382-.6979-1.2714-.59747-.6957.17192-.6263.81364-.0542 1.13365.7094.39831 1.5441.10894 1.3545-.4698-.0085-.02042-.0204-.04595-.0289-.06638Zm1.4374-.27235c-.1896-.30299-.6602-.67577-1.114-.55832-.5045.19916-.259.91918.4097 1.20174.5654.24001.9769-.03234.772-.51236-.0169-.04084-.044-.09362-.0677-.13106Zm.8329-.29958c-.3182-.42044-.755-.64173-.8836-.44598-.1931.29448.5128 1.24259 1.0005 1.11323.2725-.13788-.0762-.61278-.1169-.66725Zm-16.33542.79661c.14393-.21447.13545-.53278-.25558-.57364-.55193-.0068-.97351.57705-.72459.83067.21672.21788.7567.0766.98017-.25703Zm2.25842.05788c.14056-.27235.01697-.66725-.58066-.69619-.75342.02042-1.21896.64512-.89726.98556.33858.35746 1.23584.18043 1.47792-.28937Zm2.29062.11745c.0914-.26895-.13207-.64683-.78889-.65194-.78051.04426-1.15804.6179-.80587.94472.41475.38298 1.42711.19745 1.59476-.29278ZM21.8714 4.95528c-.0575-.06809-.5689-.66726-.6247-.50215-.0136.36427.8888 1.31068 1.0446 1.22217.0863-.04937-.1574-.40852-.4199-.72002ZM1.34925 8.2711c.17102-.36259.22009-.80172.09988-.88685-.12524-.03229-.29626.30985-.38592.51752-.176135.40172-.250561.71148-.196477.81193.072884.12764.319977-.09872.482517-.4426Zm1.05305.45957c.11848-.25355.06266-.57699-.20486-.63657-.40626-.0323-.64844.6707-.47066.90043.15405.19918.52657.05447.67552-.26386Zm10.19.62134c.0576-.32855-.3945-.77106-1.39-.74898-1.119.08339-1.47965.71659-.921 1.11157.6908.4902 2.2043.25191 2.311-.36259Zm2.8848-.02381c.0203-.38129-.5452-.76431-1.4915-.71669-1.0497.11068-1.3832.71322-.877 1.09962.7178.54647 2.3329.2843 2.3685-.38293Zm2.8475-.23495c-.0271-.35574-.5112-.81531-1.5-.7217-1.0022.15657-1.251.82042-.711 1.21878.7805.57537 2.267.24169 2.211-.49708Zm2.4531-.28767c-.0795-.40173-.5807-.90555-1.4457-.77106-.982.23147-1.0582 1.04688-.3962 1.46384.8431.52934 1.9977.09708 1.8419-.69278Zm1.7116-.3302c-.1167-.38813-.5553-.93958-1.2341-.76768-.8008.29616-.6332 1.28683.0863 1.64257.728.35748 1.3713-.13275 1.1478-.87489Zm.8905-.34725c-.1303-.33868-.4418-.78639-.7669-.62983-.4808.33878.0051 1.41622.5266 1.48775.3267.04252.4351-.34899.2403-.85792ZM4.27808 9.049c.13382-.3166-.04569-.69104-.52483-.74214-.65345-.01021-.99376.67071-.65518 1.02471.30985.32171.99385.1583 1.18001-.28257Zm2.00787.29106c.10836-.30802-.1557-.65702-.71949-.6842-.71273.01697-1.03945.57015-.71273.91914.3674.39151 1.26293.24506 1.43222-.23494Zm3.03719-.06296c.07617-.28931-.21672-.69615-.96156-.70473-.83295.04425-1.16314.59917-.79236.96513.4639.45966 1.61172.28941 1.75392-.2604ZM23.649 7.74684c-.3521-.7881-.408-.65533-.4249-.61107-.0965.45277.4994 1.57109.6653 1.46388.0694-.04425-.0186-.35574-.2404-.85281ZM6.738 2.0871c.00675-.0034.76016-.38469.79063-.46469l-.00338-.00511c-.17439-.03404-1.43057.59406-1.47801.74045l.00511.00681c.08465.01872.50787-.18895.68565-.27746Zm.36567.17192c.26753-.15149.59088-.38299.5045-.42555l-.01697-.0051c-.32499-.02213-1.35269.53959-1.23411.67406.04908.05958.34871-.01872.74658-.24341Zm5.95413.41704c-.0186-.17703-.2539-.42384-.6332-.40683-.4368.05447-.6348.44598-.3352.66726.3217.2366 1.0074.11234.9684-.26043Zm1.5424-.06298c-.1068-.20256-.5012-.47491-.9329-.43917-.4435.0749-.4656.47491-.1591.70811.4401.33363 1.2071.21277 1.1258-.17873-.0051-.02723-.0203-.06469-.0338-.09021Zm1.3018-.11235c-.1879-.19745-.667-.45448-1.0378-.40341-.3555.0868-.2319.44766.1135.67065.4571.29618 1.1055.26384 1.0496-.05276-.0102-.06298-.0559-.14128-.1253-.21448Zm.9989-.14639c-.2608-.19405-.789-.42894-1.0582-.36937-.2606.10213.1304.52428.5824.72342.4266.18724.7923.1515.7229-.07148-.0254-.08171-.1151-.18384-.2471-.28257Zm.6704-.17022c-.3098-.18553-.8465-.4017-1.0192-.33533-.171.13959.7703.75237 1.2308.80003.1913.02043.2455-.05787.1354-.19235-.0321-.03915-.127-.14127-.347-.27235Zm-9.70245.24512c.26753-.18213.44357-.40172.28102-.43576l-.02873-.0034c-.44356-.00681-1.28153.49874-1.13432.68427.08301.10554.49611.02043.88203-.24511Zm1.05642.13107c.18626-.16852.32335-.42895.02208-.44767-.51472.01361-1.20547.51065-.98537.7098.14557.13448.63831.03064.96329-.26213Zm1.23593.0817c.1219-.17022.1219-.41022-.19984-.41703-.46218.02724-.95308.44768-.76181.65364.17103.18213.73472.08.96165-.23661Zm1.4153.04256c.0559-.17703-.0592-.42044-.4215-.41534-.4622.04086-.8076.45108-.5622.66556.2456.21107.8737.09702.9837-.25022Zm6.3097-.68598c-.3691-.19065-.8618-.36937-.9176-.30299-.0051.16511 1.3256.84258 1.4678.74555.0711-.04766-.1744-.24681-.5502-.44256Zm-.0661-.18894c-.3605-.17192-.7076-.30469-.7568-.28768l.0069.01363c.1388.11574 1.4017.73534 1.4813.70299-.0475-.10042-.7246-.42554-.7314-.42894ZM3.97672 4.0378c.30647-.27235.64332-.64342.61796-.70981-.11-.04766-1.24094.99237-1.19862 1.10131.06604.02553.34195-.17702.58066-.3915Zm.57227.15319c.20313-.19234.3352-.43745.19975-.48171-.2844-.02893-.86004.57874-.7754.72173.05592.09702.34707-.02383.57565-.24002Zm9.02681.80173c.0018-.25363-.3724-.59236-1.0834-.56513-.8025.07661-1.0633.58216-.6433.88003.5603.39492 1.7217.18384 1.7267-.3149Zm2.1807-.1651c-.0712-.28598-.5418-.65364-1.2376-.59748-.7348.10894-.8737.63663-.4453.96514.6027.4613 1.7421.25533 1.693-.30639-.0018-.01702-.0051-.04255-.0101-.06127Zm1.9485-.16852c-.1388-.27065-.6332-.63321-1.2545-.55491-.6501.13617-.6331.66555-.1456.97535.6417.40852 1.5609.21787 1.4458-.29959-.0085-.03745-.0271-.08511-.0457-.12085Zm1.4983-.21959c-.1964-.26384-.7043-.61107-1.1698-.51576-.491.16001-.2608.73024.2708 1.0128.5604.29618 1.1225.1515 1.0175-.26384-.0203-.07489-.0592-.15319-.1185-.2332Zm1.0022-.25532c-.2387-.25703-.7313-.58725-1.0293-.48002-.3352.19575.2302.93961.8397 1.10813.3336.09191.5587-.04767.3607-.40002-.0407-.0732-.0983-.14979-.1711-.22809Zm-14.57975.42724c.22347-.24511.33347-.61278-.03894-.66555-.59763-.01872-1.2664.70301-1.0412.97705.17604.21448.75169.04936 1.08014-.3115Zm1.52198.18555c.02709-.03746.09303-.13788.10325-.25023.03721-.41192-.57902-.48171-1.06318-.12085-.38099.28426-.44867.69108.04233.76938.47229.03235.80586-.24681.9176-.3983Zm2.10774.08851c.1422-.28427.00163-.68428-.62983-.7013-.82273.03744-1.32559.69108-.97342 1.03322.37917.36937 1.35269.16681 1.60325-.33192Zm2.11613.05616c.0745-.28766-.1895-.68087-.8787-.67405-.83792.06297-1.21545.67916-.82096 1.0179.46556.40172 1.56256.18043 1.69966-.34385Zm9.3046-1.03492c-.2709-.25362-.7077-.56171-.8279-.44937-.066.13106.1862.45108.447.69279.2776.25703.6077.43575.7364.4017.1456-.03914-.0102-.32171-.3555-.64512Zm.2438.02213c-.2117-.18383-.4859-.43575-.7026-.61279l-.0136-.01191c-.1236-.09703-.1727-.13107-.1964-.13447l.0085.02723c.176.24512 1.0615 1.04174 1.2054 1.05876l.0051-.00511c-.0186-.05787-.2777-.29618-.3064-.32171ZM1.86396 6.62511c.25895-.40171.43171-.82385.41648-.90216l-.00511-.0051c-.08975.01702-.71109 1.07068-.71611 1.08089l-.0186.03234c-.04917.09021-.16428.30299-.08812.27916.05765-.01873.23195-.20937.41146-.48513Zm.66357.3813c.17276-.26895.21846-.6196.02372-.68429-.33685-.04085-.7889.81875-.63484 1.01277.10663.13623.42159-.03229.61112-.32848Zm11.38527.69107c.0253-.31149-.43-.72512-1.3527-.69278-1.0463.09532-1.351.703-.8059 1.07069.6959.46979 2.1078.22299 2.1586-.37791Zm2.7375-.02381c-.027-.30638-.5062-.72855-1.4509-.66216-.9514.12256-1.1952.70641-.6907 1.06899.7161.51578 2.1975.23321 2.1416-.40683Zm2.4464-.26898c-.0847-.33871-.5672-.77107-1.3815-.67064-.8584.17022-.9786.8085-.447 1.17957.7737.53959 2.0028.1958 1.8285-.50893Zm1.979-.28424c-.1473-.37618-.6619-.84258-1.3476-.7064-.8025.24171-.6619 1.07403.0356 1.43488.7652.39662 1.5287.02729 1.3408-.64679-.0085-.02552-.0203-.05786-.0288-.08169Zm1.2139-.32171c-.1727-.33703-.6145-.81194-1.07-.65704-.5383.27575-.1642 1.27321.5637 1.50131.5435.17189.8042-.26213.5063-.84427Zm-18.3823.57703c.1744-.30128.09998-.66214-.28941-.72001-.574-.02384-1.00562.68771-.74329 1.00942.22347.27235.80085.10894 1.0327-.28941Zm2.09251.18211c.15579-.31997.01523-.79149-.65344-.83915-.86853.00682-1.3442.80175-.90401 1.19836.40289.36423 1.30689.15657 1.55745-.35921Zm2.2483.1583c.10499-.28594-.11848-.69276-.8075-.71319-.81946.03235-1.20036.6298-.83295.99412.42322.4187 1.45082.24169 1.64045-.28093Zm2.73579.07665c.0677-.25365-.2523-.60089-1.02418-.59579-.87701.05273-1.21723.53958-.82283.85107.51134.40173 1.71831.23494 1.84701-.25528ZM22.8263 6.46c-.1575-.26383-.5063-.72342-.6874-.57022-.2692.37447.5434 1.45369.8482 1.3651.1558-.04426.0897-.37955-.1608-.79488Zm.3809.39832c-.2354-.41704-.5909-.94813-.8651-1.33962l.0135.03404c.3284.65874.7483 1.25111.86 1.34131l.0068-.0034-.0152-.03233ZM.545121 9.69927c.143936-.49197.186258-.96687.179413-1.04341-.011858.00675-.011859.00675-.033839.07143-.126968.42728-.28951.99753-.389387 1.43151l-.005013.0273c-.005109.0425-.00511.0494-.003471.0663l.013594.0034c.060929-.0578.160807-.29103.238703-.55653Zm.699139.38293c.12022-.37271.02034-.79825-.20477-.87653-.38437-.0511-.579014.99913-.40124 1.26293.148948.223.47741.0137.60601-.3864Zm12.88684.8699c.056-.4443-.5095-.8971-1.5168-.858-1.1411.1124-1.5034.7984-.987 1.2597.7212.6434 2.4073.3744 2.5038-.4017Zm3.088-.092c.022-.4204-.5654-.8306-1.5524-.7591-1.1241.1446-1.4323.8051-.8871 1.2239.7584.5803 2.4006.2689 2.4395-.4648Zm2.746-.2791c-.0169-.4035-.4859-.91413-1.4779-.7915-1.1241.2161-1.3357 1.0263-.6671 1.4519.8346.5294 2.1772.1175 2.145-.6604Zm2.1518-.3694c-.0559-.44253-.5045-.99234-1.3273-.83067-.9819.28431-1.0411 1.25617-.3386 1.67657.7872.4716 1.7691-.0271 1.6659-.8459Zm1.5372-.23998c-.0846-.38814-.4385-.93794-1.0276-.75921-.8042.349-.5705 1.46899.1709 1.71919.5706.189 1.0023-.2945.8567-.95998Zm-20.93694.46468c.08638-.2672-.06603-.60255-.42149-.65702-.50112-.02217-.66366.59572-.43007.88172.23707.2877.7297.1566.85156-.2247Zm2.20598.3421c.08629-.2945-.15743-.6332-.65855-.6707-.69076.0035-.86516.6061-.53843.9142.3539.3319 1.07001.1872 1.19698-.2435Zm2.7849.1532c.08976-.3574-.28951-.7541-.99713-.7745-.88376.034-1.19352.6792-.72797 1.0758.51973.4426 1.58464.257 1.7251-.3013Zm3.30296.1226c.0746-.3438-.3741-.8153-1.40683-.8086-1.14608.0698-1.52535.7285-.9633 1.1507.70088.526 2.22963.3064 2.37013-.3421Zm13.173-1.54052c-.0237-.09014-.2336-.86978-.4927-.66385-.3504.40683.0508 1.58307.4081 1.57117.2166-.0051.1964-.47493.0846-.90732Zm-.1947-.92251-.0474-.12774.0085.02555c.0913.29452.1524.59917.2387.89533.0609.21277.1405.42052.2048.63159-.1117-.43068-.2607-1.00604-.4046-1.42473ZM8.28533 1.32283c.8905-.29789.8905-.29789.91596-.31321v-.0034c-.20824-.010212-1.40349.37788-1.57953.51065l.00337.00852c.0592-.00342.22511-.05618.6602-.20256Zm.12532.13617c.1236-.04597.74484-.27916.79227-.33704l-.01012-.01021c-.25229-.01702-1.61848.43065-1.5694.56513.07616.03404.46892-.10044.78725-.21788Zm.41812.12936c.18963-.08511.70599-.33363.59936-.36937l-.01861-.00341c-.41647-.00851-1.62194.49194-1.46441.60939.05418.03915.33347.0085.88366-.23661Zm3.56033.23661c.0102-.13277-.1049-.3898-.4148-.37789-.3538.04426-.6636.42895-.4181.63321.2437.20426.8075.07831.8329-.25532Zm1.0226-.02554c-.0779-.16341-.359-.37788-.6416-.35745-.3302.05447-.3929.42213-.105.61278.325.21618.8211.09873.7719-.18214-.005-.02383-.0152-.05276-.0253-.07319Zm1.0089-.06468c-.1659-.15489-.5739-.36086-.8397-.33022-.2539.05957-.1235.38129.1575.55491.364.22468.8549.19235.7991-.05276-.0051-.02384-.0271-.08853-.1169-.17193Zm.8313-.09192c-.2692-.16511-.7516-.33532-.9446-.29958-.1728.06468.154.37788.5061.54129.4232.19575.7653.15831.6857-.01532-.0135-.03233-.0661-.11574-.2472-.22639Zm.6027-.11404c-.3285-.15149-.86-.3081-.9904-.26725-.1117.08682.7737.58045 1.2206.62811.1677.01872.2269-.02894.1491-.12086-.0593-.06978-.1981-.1566-.3793-.24Zm.3589-.12937c-.3978-.15149-.9176-.27575-.9769-.2349-.005.06809.6807.35235.8974.43235.3402.12597.5941.18044.6348.13618.0406-.04256-.1558-.18043-.5553-.33363Zm-6.70921.29618c.2201-.12766.49941-.33704.3945-.37788l-.04743-.00681c-.41822.00851-1.42036.46129-1.28163.6315.07789.09362.49437.00852.93456-.24681Zm.84481.0766c.176-.14809.325-.37278.1303-.3898l-.0322-.0017c-.4401.02383-1.22056.46809-1.02582.65193.12697.11916.59922.01362.92772-.26043Zm.9683.04426c.0881-.13618.1321-.3898-.1574-.3881-.4232.03574-.9701.4698-.7246.66045.1862.14298.6925.02212.882-.27235Zm4.9875-.54981c-.3724-.12426-.7449-.20767-.8296-.19916l-.005.00852c.0744.06468 1.3967.543 1.4813.48853-.0016-.05107-.3368-.19406-.6467-.29789Zm-.1811-.13617c-.3877-.11915-.689-.183842-.7585-.185539l.0102.011916c.0118.0051 1.478.474913 1.5626.480013-.0186-.03404-.474-.20256-.8143-.30639ZM14.2429.689608c-.3319-.047654-.6111-.062973-.6298-.052763.0169.003403.022.003403.061.008512.4537.032345.9006.095318 1.3357.185535l-.0152-.00511c-.0051 0-.3674-.081704-.7517-.136174ZM9.94448.846211c.36572-.066386.60442-.100427.79562-.127662.144-.020428.1491-.022125.1643-.027235V.689608C10.6962.667483 9.55674.846211 9.27571.96026c.01186.003403.01186.003403.66877-.114049Zm-.00674.080008c.30466-.064689.61626-.095327.91586-.185544v-.0051c-.2743-.01022-1.45931.190644-1.67439.321705v.01021c.06266.00682.19638-.02212.75853-.141271Zm.16246.078301c.7974-.207669.7974-.207669.811-.216182L10.901.783229c-.3217 0-1.57612.255331-1.61844.377881.04058.04256.44347-.05787.81764-.15659Zm2.553.17191c-.0356-.09531-.1879-.27064-.3233-.26043-.1677.034041-.3403.33704-.1186.47831.1914.12256.5029.02554.452-.19064l-.0101-.02724Zm.6163-.02723c-.1372-.11404-.447-.257032-.5621-.24341-.1101.034042-.0237.30469.2133.43746.2218.12425.4892.09873.4621-.04256-.005-.03233-.0304-.0834-.1133-.15149Zm.5519-.04766c-.2438-.115751-.6586-.236607-.7517-.219581-.0728.03915.3402.352351.6873.452781.2184.06468.3741.04085.3284-.04937-.0168-.02893-.0727-.09362-.264-.18383Zm.4232-.06128c-.3301-.108941-.8211-.211065-.8804-.192343.0119.044251.6502.304683.8144.357453.4655.1515.4977.07831.5011.06809.0085-.03915-.1236-.12936-.4351-.2332Zm.2844-.073193c-.425-.10894-.9261-.178729-.9497-.160007.0964.061286 1.483.48342 1.5304.3864-.0271-.06128-.3115-.1566-.5807-.226393Zm-4.0936.108943c.1388-.04767.596-.205967.6399-.236605L11.072.832598l-.0135-.001706c-.4386.013622-1.56607.352358-1.43573.432358.02208.01532.14732.04255.81263-.18724Zm.4538.05447c.005-.0017.4282-.209371.4401-.253631l-.0288-.006806c-.3826.025538-1.3188.369377-1.1715.469797.0542.03405.3064.01022.7602-.20936Zm.5417.03574c.0711-.05787.2929-.262136.193-.268942h-.017c-.3166.032344-1.0175.377882-.8431.491932.0864.05617.3894-.0017.6671-.22299Zm.5992.01532c.0271-.06127.0763-.27575-.0744-.268943-.2167.032344-.6619.342133-.496.485123.1151.10043.4656.01873.5704-.21618Zm2.6326-.292775c-.4266-.086805-.9293-.146384-.9582-.127662.0119.00511 1.5356.379587 1.6524.345537-.0135-.05787-.4334-.163405-.6942-.217875Zm-.0304-.078302c-.3877-.066385-.8109-.105526-.8364-.091914.0136.003403 1.5051.291071 1.561.268946-.039-.030638-.3556-.114049-.7246-.177032Zm-.1947-.078291c-.3488-.052773-.6755-.074899-.7263-.066386.0118.003403 1.4661.228088 1.4915.222979L15.196.885362c-.0913-.030638-.4147-.102133-.7584-.15319Zm-2.123-.151504c-.0102.018732-.0118.039151-.0186.057883l.0034-.001706c.0592-.027235.11-.044261.2082-.071496.0355-.010209.0406-.010209.0457-.013612V.55003c-.0033-.001696-.2082-.027234-.2387.030638Zm-.1524.001707c.0745.025528.1118.04426.1321.056176V.636845c-.0017-.022126.0067-.042554.0034-.062983l-.0153-.017016c-.0389-.015319-.1912-.011915-.2014-.003412.0017.003412.0017.003412.0812.028941Zm-.1456.008512c.1524.018723.2405.039151.2777.047664-.1321-.052773-.2268-.090217-.4859-.078302-.0203.001697-.0203.001697-.0271.003404.0051.001696.0119.003403.0762.010209.0356.003403.0948.008513.1591.017025ZM11.8879.6045c.2151.011916.3488.027235.4064.034051-.1253-.022135-.4605-.083411-.8008-.052773l-.0102.003403c.1338.013622.2693.006816.4046.015319Zm-.0965.015319c.2608.003413.4318.013622.5029.018732-.6755-.066386-1.0107-.025538-1.0479-.020429l-.0034.001697c.1828.017025.3657-.001697.5484 0Zm-.0625.018732c.2911-.006816.4824-.001706.5654 0-.8448-.042554-1.2139.018722-1.2172.018722l-.0018.001697c.017.001706.0542.001706.1914-.0051.1286-.00511.2878-.011916.4622-.015319Zm1.0039-.035748c-.1338.006807-.2692.018723-.4368.035748h.0102c.3368-.022135.5942-.025538.9514-.022135.1303.001706.1406 0 .1574-.001697-.0542-.013622-.3605-.028941-.6822-.011916Zm-.1219-.011916c-.1202.013613-.2268.032345-.3166.049361l.0085-.001697c.2725-.032344.4943-.04426.7652-.051067.0761-.001706.0846-.003403.0998-.003403-.027-.010219-.2844-.023832-.5569.006806Zm-.1406-.008512c-.066.015319-.1252.037444-.176.056176l.0051-.001706c.1541-.032345.2963-.052764.5061-.069789.0542-.00511.0593-.00511.0695-.006807-.0085-.003403-.2252-.018722-.4047.022126Zm-.7635.074898c.3047-.017025.4961-.018722.5892-.018722-.9363-.011916-1.3019.061276-1.3053.062973.0085.005109.0796 0 .2844-.015319.0965-.006807.2608-.018722.4317-.028932Zm.017.020429c.298-.027235.4825-.035748.5722-.039151-.9108.018722-1.2799.095317-1.3053.107233.0186.003403.0678 0 .3065-.025528.1506-.015319.281-.028942.4266-.042554Zm.0559.020419c.1895-.027235.3572-.045957.5146-.05957h-.0101c-1.004.057873-1.2562.156594-1.2562.156594.0169.006815.0169.006815.7517-.097024Zm.5281.035747c-.0016-.032344-.0135-.062982-.0135-.095317l-.0017.001697c-.0694.04936-.1472.107242-.1743.156603-.0441.079998.0101.09873.0354.102133.0576.008503.1643-.032344.1541-.165116Zm.1524-.005109c-.0474-.030638-.0965-.056167-.1659-.090208v.001697c.0203.045957.0254.097023.0474.141284.0068.013612.0237.042554.0576.071485.0609.04937.1557.05958.1709.017026.0085-.017026.0102-.061276-.11-.141284Zm.149-.008503c-.1253-.039151-.2573-.068092-.3149-.081705l.0034.001697c.1507.061276.2861.154896.4384.211073.0847.030638.1762.040847.1659.008512-.0033-.020428-.0727-.071495-.2928-.139577Zm.1236-.013623c-.1693-.032344-.3301-.054469-.4385-.068082l.0068.001697c.1202.023832.2048.04426.4249.105536.1828.051067.4571.129368.4808.09873-.0186-.032344-.2133-.08852-.474-.137881Zm.0897-.017025c-.1574-.018722-.3301-.035738-.5265-.051057l.0084.001697c.2438.028941.408.057873.6993.110646.2403.04425.4113.074888.4384.061276-.0508-.035748-.3504-.090218-.6196-.122562Zm.0525-.018722c-.1761-.013613-.3657-.023832-.5807-.032335h.0101c.3048.020419.5215.045957.8939.093621.2337.030638.3589.045957.3962.040847-.0237-.023832-.3369-.073192-.7195-.102133Zm-.9938.042554c.2066-.044251.3352-.064679.4148-.074889l-.0102.001697c-.8939.091924-1.0614.19235-1.0632.194047.0153.017026.0153.017026.6586-.120855Zm.1253.011916c.1185-.040848.2032-.066386.2895-.086805l-.0068.001697c-.6467.108939-.8041.200863-.8092.224685.0322.028941.2184-.034041.5265-.139577Zm.1422.006816c.0576-.040858.0948-.068092.1456-.093621l-.0051.001697c-.5722.166812-.5045.245114-.5028.245114.0034.001706.0796.047663.3623-.15319Zm.7399-.081705c-.1846-.008513-.3726-.011916-.5943-.011916h.0119c.3555.01021.6077.028932 1.036.068082.2117.018722.2777.023832.32.022126-.0304-.023822-.4131-.062973-.7736-.078292Zm-.0271-.020429c-.1744-.001706-.3556 0-.5672.008513h.0119c.3318-.001706.5958.006806 1.0445.032335.2167.011916.2658.015319.2945.011916-.0219-.015319-.369-.047664-.7837-.052764Zm.667.006807c-.4046-.023832-.8161-.023832-1.2342.001706h.0101c.3963-.017025.6908-.010219 1.0345-.001706.154.003403.1641.003403.1862.001706l.0034-.001706ZM4.62004 21.0732c-.3165-.3796-.96494-.771-1.08679-.6979-.14731.0868.62462.8681 1.08515 1.0248.02034.0051.04743.0118.06768.0118.13034.0069.10335-.1361-.06604-.3387Zm7.99086.543c.066-.2893-.3996-.5907-1.1935-.5754-.8144.0562-1.0396.4171-.7315.7081.4962.4665 1.8099.3762 1.925-.1327Zm2.2821-.0578c.1473-.2946-.237-.5805-1.0445-.5396-.9143.0918-1.2393.5327-.855.8187.518.3812 1.6878.143 1.8995-.2791Zm2.2534-.143c.22-.2979-.0289-.5771-.816-.5056-.9516.131-1.3849.6196-1.0159.8885.4149.3014 1.4933.0749 1.8319-.3829Zm1.8538-.2077c.2759-.3081.154-.5328-.2777-.5106-.0525.0033-.1219.0118-.1744.0204-.8854.177-1.4153.7608-1.0513.9821.32.1958 1.1207-.0663 1.5034-.4919Zm1.3458-.2554c.2912-.2979.3251-.5123.0813-.5123-.0592 0-.1304.017-.1777.0272-.7382.2196-1.3595.909-1.0683 1.0571.2031.1039.7804-.1805 1.1647-.572Zm.8008-.2859c.2607-.2639.4672-.526.342-.5209-.0271.0017-.0711.0205-.0999.0324-.5418.2706-1.2664 1.0621-1.0869 1.1115.0999.0255.4792-.2537.8448-.623Zm-15.16049.6196c-.21836-.3473-.93958-.6349-1.11735-.5022-.18963.1414.36394.6758.89388.7746.33858.0408.29453-.1601.22347-.2724Zm1.76405.1617c-.06941-.189-.42833-.4085-.8532-.4324-.41985.0035-.34706.2298-.20322.3728.34369.3388 1.07339.4239 1.06828.1225 0-.0203-.00511-.0459-.01186-.0629Zm2.34814.1327c-.0203-.2535-.4791-.531-1.12917-.5412-.61961.0238-.72122.308-.46053.5583.48251.4629 1.627.4493 1.5897-.0171Zm-3.15901 1.3618c-.44019-.2655-.9955-.5259-1.04457-.4885.0135.0885.92599.5856 1.28491.6996.02883.0085.03557.0085.05081.0085l.00511-.0102c-.02372-.0358-.1236-.1056-.29626-.2094Zm5.62231.3796c.0507-.1889-.2878-.3847-.8752-.3762-.5706.0357-.7027.2502-.4978.429.3487.3046 1.2849.2689 1.373-.0528Zm1.6066-.0409c.1591-.194-.0778-.3812-.6822-.3506-.6467.0596-.9041.32-.6942.5038.2997.2639 1.1461.1277 1.3764-.1532Zm1.5846-.0987c.2015-.1566.1727-.2876-.0744-.3302-.1304-.0221-.2794-.0085-.359-.0017-.7449.097-1.0902.4238-.9124.5787.2183.1907 1.0123.0102 1.3458-.2468Zm1.3036-.1464c.2624-.1634.3318-.2978.1727-.3336-.0829-.0187-.2049-.0017-.2708.0068-.7128.1328-1.2546.5532-1.0683.6638.1659.0971.7974-.1072 1.1664-.337Zm.9481-.1804c.325-.1856.4807-.3337.369-.3524-.0406-.0068-.0981.0069-.1557.0187-.6078.1669-1.3425.6605-1.219.7201.0847.0443.6028-.1567 1.0057-.3864Zm.1151.0409.6162-.3388.0373-.0222c.2251-.1361.3335-.2076.3639-.2433l-.0067-.0068c-.0203.0051-.0288.0068-.0694.0238-.3911.1719-1.2663.6928-1.3375.7643.0475.0067.3912-.1754.3962-.177Zm-10.08841.223c-.26406-.1976-.7754-.4393-1.14271-.4851-.05254-.0018-.20997-.0103-.11009.1105.2252.2707 1.39336.7388 1.41872.5685.00674-.0391-.05418-.1105-.16592-.1939Zm1.32733.1191c-.14731-.1668-.61797-.4136-1.12073-.4443-.41648 0-.22858.1992-.18626.2383.32672.3099 1.40513.6162 1.36965.3183-.00511-.0323-.02709-.0698-.06266-.1123Zm1.52028.0697c-.0626-.1888-.4909-.3982-1.03102-.4084-.50112.0169-.45031.2076-.34195.3166.34195.349 1.34917.4579 1.38137.1514.0018-.0187-.0016-.0425-.0084-.0596Zm1.6184.8869c.0305-.0596-.1473-.1464-.4859-.143-.2708.012-.3012.0767-.2555.1174.1133.0971.6805.1396.7414.0256Zm.7924-.0187c.0948-.0392.1084-.08.0389-.1072-.0863-.0341-.2455-.0273-.2979-.0256-.3556.0272-.5012.1243-.4402.177.083.0749.5299.0238.6992-.0442Zm.7838-.0511c.1778-.0459.2675-.0953.2218-.1192-.0407-.0238-.1795-.0118-.2252-.0085-.4266.046-.7499.1856-.7449.2264.0423.0239.4809-.0289.7483-.0987Zm.6433-.0715c.0847-.0187.3674-.0851.4182-.1327l-.0051-.0102c-.0271-.0051-.0542-.0035-.1321.0067-.3741.0596-1.0648.2639-1.0699.2656.1677-.0222.3911-.0544.5587-.0817l.0389-.0068c.0508-.0119.1185-.0239.1913-.0409Zm-4.4576.0409c-.32157-.0732-.63816-.1753-.96498-.2196l-.03047-.0017c.0458.0579.69249.1804.90415.2196.132.0222.3097.0493.4418.0698h-.0034c-.0931-.0136-.2065-.0358-.3471-.0681Zm.6552.0596c-.3826-.1124-.6636-.1736-.8566-.1873-.0576-.0017-.07447.0017-.08295.0137.04055.097 1.01915.2468 1.12585.2348-.0102-.0085-.0119-.0102-.1863-.0612Zm.7517.034c-.1032-.063-.3876-.1549-.6958-.1617-.1846.0034-.1659.0408-.1388.0646.1134.0937.8922.2163.8769.1379l-.0423-.0408Zm1.4729-.3268c.1033-.1311-.1135-.269-.5858-.2536-.4892.0357-.5891.1991-.474.3046.2285.2077.9091.1431 1.0598-.051Zm1.2392-.0545c.1558-.097.1507-.1838-.0168-.2247-.1169-.0272-.2557-.0187-.337-.0136-.562.0579-.8143.269-.7042.3779.1506.1481.8007.0187 1.058-.1396Zm1.1055-.0953c.2286-.1038.3099-.1941.21-.2298-.0694-.0255-.1981-.0103-.2692-.0034-.6095.0902-1.0479.3643-.9599.4442.0914.08.6754-.0561 1.0191-.211Zm.8499-.1243c.2946-.1174.4639-.223.4029-.2485-.0304-.0136-.1202.0017-.1642.0102-.491.1038-1.141.4102-1.1885.4902l.0068.0103c.0931.0204.6095-.1294.943-.2622Zm-1.6473.4783c.359-.0697.4673-.0919.8821-.194l.0118-.0034c.083-.0221.1727-.0494.2049-.0647-.0068-.0034-.0085-.0034-.0728.0102-.3453.0766-.6823.1771-1.026.2519Zm2.2161-.6246c.2523-.0987.5435-.2247.5842-.2673-.0119-.0051-.0154-.0068-.0848.0136-.3504.1107-1.3408.5311-1.3695.5465.0439.0033.2725-.0767.772-.2537l.0236-.0086c.0221-.0102.0526-.022.0745-.0305Zm-8.21082.2195c-.12697-.0527-.7754-.3233-1.06992-.3762-.0322-.0034-.03731-.0034-.04917.0018.05081.1242 1.31373.5344 1.44244.5311-.00849-.0154-.01697-.0273-.32335-.1567Zm.90912.1073c-.22348-.1209-.69413-.3065-1.03782-.337-.05081-.0018-.16756-.0051-.10499.0647.15753.1718 1.33745.5327 1.31383.4016-.00347-.0255-.06604-.0715-.17102-.1293Zm1.0869.0714c-.1253-.1174-.5215-.2876-.9396-.3046-.27938.0034-.22858.0919-.19474.1294.16254.177 1.17154.4595 1.18674.2637.0034-.0323-.0354-.0731-.0524-.0885Zm1.2002.0324c-.0202-.1293-.347-.2741-.7855-.2758-.3673.0153-.4113.1294-.2962.2281.2895.2503 1.1191.286 1.0817.0477Zm-8.80333-4.1448c-.27592-.4188-.78552-.8426-.88203-.8085-.11848.0425.56717 1.0008.92435 1.1863l.02709.0103c.12523.0357.09313-.1413-.06941-.3881Zm10.82483.7404c.105-.3353-.3775-.6741-1.2647-.6417-.9548.0817-1.268.5498-.8921.8818.5484.4834 1.9808.3251 2.1568-.2401Zm2.6089-.114c.1726-.3387-.2015-.6655-1.1055-.6008-1.0108.1225-1.412.6416-1.0192.9634.5011.4084 1.8504.1787 2.1247-.3626Zm2.3312-.2026c.1912-.2979.0728-.6723-.7958-.5702-.9801.1685-1.4593.749-1.0885 1.0435.43.342 1.5388.0629 1.8843-.4733Zm1.7894-.2621c.2794-.3847.127-.6401-.3402-.5703-.0255.0035-.0593.0103-.0847.0154-.8567.2161-1.373.8937-1.0242 1.1438.3131.2264 1.0869-.0885 1.4491-.5889Zm1.2003-.3047c.2828-.3745.303-.6179.0475-.5788-.034.0051-.0763.0188-.1101.029-.6958.274-1.2681 1.1184-.9447 1.234.2049.0733.6755-.2468 1.0073-.6842Zm-17.41891.4852c-.11675-.2281-.48243-.5227-.8211-.5771-.3301-.0221-.15743.2792-.02025.4408.3301.3898.84135.5703.88203.3115.01012-.0663-.02545-.1447-.04068-.1752Zm1.69473.1395c-.06778-.2077-.41484-.4528-.82457-.4852-.40799-.0033-.34195.2605-.16929.4409.37753.3915 1.00735.4137 1.00562.1141 0-.0221-.00501-.0494-.01176-.0698Zm2.38539.1804c-.03056-.2552-.46227-.5413-1.0598-.5617-.64342.017-.62809.3643-.37251.5991.5231.4767 1.47964.3711 1.43231-.0374Zm2.72219.0954c.0322-.3183-.4825-.6571-1.29846-.6554-.90738.0511-.98865.4851-.69923.766.5418.5243 1.94189.4459 1.99769-.1106Zm11.0043-.9992.3318-.4511.0255-.0375c.1523-.223.198-.3081.1861-.337-.0168-.0034-.0253 0-.0744.034-.4926.3882-1.0734 1.2869-.9294 1.2767.0981-.0051.457-.4801.4604-.4851ZM5.26172 21.9822c-.3674-.2945-.82784-.5924-.93283-.6213l-.00848.0068c.00848.0153.03046.0544.3166.2774l.45205.3371c.29789.2111.39276.257.42833.2758.03047.0118.03047.0118.04233.0051-.01697-.0528-.21509-.2145-.298-.2809Zm8.31078.5668c.1067-.2434-.2556-.4868-.965-.4647-.7635.0613-.9955.3916-.6856.6332.4622.3609 1.4915.1958 1.6506-.1685Zm2.0028-.0885c.2014-.2485-.0559-.4835-.7619-.4341-.7974.092-1.1648.4647-.8939.6945.3607.3081 1.3663.0987 1.6558-.2604Zm1.7894-.1532c.2557-.2349.1693-.4205-.198-.4306-.0898-.0017-.1829.0085-.2489.0152-.8228.1329-1.3205.5822-1.0378.7848.2946.211 1.1224-.0358 1.4847-.3694Zm1.373-.2026c.2844-.228.3386-.4051.1321-.4307-.0779-.0084-.1575.0052-.2353.0205-.723.1702-1.3443.703-1.1208.8596.188.1328.8414-.1413 1.224-.4494Zm.921-.2349c.3115-.2383.4622-.4204.3657-.4408-.0356-.0085-.0914.0085-.144.0255-.6094.2213-1.3238.846-1.1935.9225.0898.0529.5604-.1923.9718-.5072Zm-13.32368.3456c-.36905-.354-1.08005-.6639-1.19863-.5652-.13034.1107.6654.715 1.18176.8375.02198.0034.05244.0085.07616.0085.14056.0035.11684-.1123-.05929-.2808Zm1.46104.177c-.27254-.366-1.1376-.6451-1.36117-.4987-.23359.1531.43518.686 1.10386.7812.49264.0392.26753-.2706.25731-.2825Zm1.66591.1022c-.07279-.1992-.48927-.4239-.99376-.4426-.43846.0084-.45369.194-.28276.3625.37753.3711 1.27989.4732 1.28838.1447 0-.0188-.00511-.0459-.01186-.0646Zm2.08743.0698c.0084-.2401-.4385-.4989-1.1157-.4989-.65349.0341-.77535.3064-.51293.5396.47233.4222 1.61333.3933 1.62863-.0407Zm7.8689-.4393c.3741-.274.8668-.6501 1.224-.948l.0119-.012.005-.0067c-.0118.0033-.0118.0033-.049.0271-.4064.2758-1.1987.904-1.2461.9703.0102-.0018.017-.0034.0542-.0307ZM1.63027 16.9302c-.10836-.3797-.45031-.8393-.690653-.9278-.301368-.0511.077803.8664.309753 1.1813.20998.2843.37416.2605.40973.0715.01186-.0595.01687-.1634-.02883-.325Zm12.49753.8613c.0846-.3559-.3792-.8273-1.4678-.7865-1.1462.1055-1.4932.7269-.9616 1.1422.7009.5481 2.2686.32 2.4294-.3557Zm3.0118-.1329c.1337-.4118-.3488-.8102-1.3612-.737-1.1461.1464-1.549.7813-1.0649 1.1779.6383.526 2.2043.2418 2.4261-.4409Zm2.6918-.2315c.1354-.3591-.11-.8119-1.0784-.6961-1.1039.1992-1.5287.9055-1.0276 1.2681.5959.4323 1.8572.0902 2.106-.572Zm2.0671-.303c.1456-.3625.0203-.8119-.7144-.6706-.9566.2537-1.3409 1.0741-.8346 1.3787.4672.281 1.3069-.1021 1.549-.7081Zm1.4712-.3642c.1625-.4086.1913-.9498-.3928-.7626-.8414.3575-1.2511 1.4571-.7805 1.6903.3455.1719.916-.2792 1.1733-.9277Zm-20.17677.5941c-.04743-.2519-.34706-.5703-.70088-.6248-.3996-.022-.31149.4205-.04405.7082.33183.3592.73818.3081.75168.0033.00174-.0254-.00164-.0612-.00675-.0867Zm2.17879.0918c-.0457-.5361-1.06992-.9718-1.47965-.6297-.34533.2876.06778.9498.81261 1.0621.56042.0425.68227-.2638.66704-.4324Zm2.60048.269c.00838-.3404-.47915-.7217-1.21897-.7439-.83469.0273-.89899.5345-.57564.858.59936.5991 1.77937.4255 1.79461-.1141Zm3.0439.0954c.0457-.3353-.4233-.7984-1.42205-.7933-.97689.0613-1.25618.5941-.83633.9958.62809.5992 2.16868.4613 2.25838-.2025Zm12.9174-1.4231c.0846-.2281.2623-.7524.1015-.6894-.0186.0068-.039.0239-.0558.0358-.4927.4408-.7703 1.5217-.5468 1.5081.1167-.0068.3097-.3336.5011-.8545ZM1.77758 18.1863c-.19802-.3932-.55356-.8817-.61796-.897 0 .0136.00173.0255.03056.0851.13034.2689.32672.6179.46719.8817l.11684.1941c.06941.1123.09313.1379.11511.1617.01861.0153.02198.0169.03384.0153.03046-.046-.05418-.2605-.14558-.4409Zm1.10386.4136c-.11511-.291-.46564-.6145-.73308-.6774-.29963-.0323-.06941.4188.11338.6553.3352.4323.62809.4358.65518.2281.01022-.0783-.02198-.1702-.03548-.206Zm9.67866.5941c.0694-.3507-.4487-.7132-1.3307-.6962-.9463.0698-1.2274.5566-.8312.9124.5891.5277 2.0434.3829 2.1619-.2162Zm2.8662-.0647c.1287-.3778-.3725-.7473-1.3256-.6962-1.0937.1158-1.4611.6894-.9837 1.0605.6146.4732 2.1028.24 2.3093-.3643Zm2.7494-.1736c.1507-.3285-.1033-.7473-1.1343-.6519-1.1106.1616-1.5457.8017-1.0446 1.1438.5824.4 1.9063.1005 2.1789-.4919Zm2.2601-.2536c.1761-.3337.0525-.7472-.7686-.6264-1.004.2111-1.4543.909-1.0022 1.2205.4706.3233 1.4626-.0102 1.7708-.5941Zm1.6421-.3115c.1761-.3149.2235-.7592-.3961-.6111-.8312.2639-1.2816 1.0758-.8804 1.3141.3234.1906.9803-.1702 1.2765-.703Zm.9769-.349c.1896-.3439.2912-.6894.0643-.64-.0271.0068-.0609.0222-.0863.0324-.6129.3353-1.0818 1.326-.7619 1.3873.1998.0391.5553-.366.7839-.7797Zm-18.60232.7081c-.05929-.223-.38938-.5004-.76691-.5447-.40125-.0119-.32672.3217-.09651.5567.36568.3762.87191.3625.87355.0647 0-.0239-.00502-.0545-.01013-.0767Zm2.26007.2468c-.02873-.2399-.39614-.5157-.8989-.5429-.56041.0067-.54007.3591-.27939.5974.47066.4307 1.22234.3252 1.17829-.0545Zm2.92208.1686c.0136-.3438-.52146-.72-1.33909-.732-.92781.0409-.98874.5532-.62307.8749.61797.5431 1.93845.446 1.96216-.1429Zm13.57427-1.1728c.1456-.2894.3471-.6724.479-.9685l-.0016.0033-.0203.0341c-.3234.5345-.7162 1.2136-.745 1.4128.017-.0086.2844-.4784.2879-.4817ZM.668714 15.1377c-.077897-.4715-.316599-.9601-.404618-1.0094-.079536-.0443-.032201.24.030463.5549l.013497.0682.033936.1599c.111735.4987.176038.6503.240342.7234l.016966.0136c.077897.0375.125233-.1752.069414-.5106Zm1.112246.3183c-.02372-.2604-.25558-.5992-.52985-.6621-.350441-.0307-.20149.6009.02024.8544.22858.2605.48589.1634.50961-.1021.00173-.0272.00173-.0629 0-.0902Zm10.86714.8001c.0678-.383-.4283-.8988-1.5388-.875-1.16482.0936-1.50513.7592-.9549 1.2171.7313.6093 2.3634.3847 2.4937-.3421Zm3.0728-.0784c.088-.3847-.386-.8851-1.5034-.8238-1.1901.1345-1.5694.8102-1.0327 1.2494.7094.5821 2.3684.3047 2.5361-.4256Zm3.0321-.1923c.0998-.383-.2591-.8767-1.3679-.7711-1.2038.1856-1.5914.938-.9904 1.3431.7195.4884 2.1737.1361 2.3583-.572Zm2.492-.2791c.1016-.3864-.149-.8699-1.0293-.7354-1.0565.2349-1.4034 1.0622-.833 1.423.6197.3916 1.6811 0 1.8623-.6876Zm1.9604-.3558c.1101-.4324-.0101-1.0435-.799-.8511-1.0276.3489-1.3442 1.4894-.7094 1.8179.5417.2792 1.3171-.2179 1.5084-.9668Zm.9295-.3728c.0728-.32.1067-.88-.2895-.6996-.6315.3796-.8024 1.5167-.3742 1.5932.2472.0443.5384-.3489.6637-.8936Zm-20.49165.8545c-.00511-.2673-.30648-.5975-.72971-.6434-.49938-.0103-.49601.4646-.22848.7558.38592.4204.96667.2859.95819-.1124Zm2.53944.2298c.01524-.3268-.39276-.6979-1.02596-.7303-.74657.0154-.8075.5362-.48251.8664.51809.526 1.48312.3575 1.50847-.1361Zm3.07779.1464c.03895-.3302-.39103-.7933-1.29677-.8034-1.00562.051-1.1242.6587-.71109 1.0281.60273.5378 1.93681.3898 2.00786-.2247ZM24.4701 14.45l.088-.5719.0017-.0119v-.029c-.0118.0034-.0118.0034-.0322.0392-.2708.5753-.4248 1.5745-.3148 1.6069.0677-.0409.2556-1.0231.2573-1.0333ZM.445243 11.6857c.059193-.3813-.020341-.8052-.125328-.8834-.028729-.0085-.106626-.0323-.172665.5242-.023716.1975-.0676779.669.016967.7984.074426.114.211614-.0749.270807-.3762.003471-.0171.008483-.0425.010219-.063Zm1.166427.3745c.0643-.3404-.11338-.7779-.4723-.858-.482513-.0391-.558675.829-.296256 1.1728.238706.3116.683906.1294.768556-.3148Zm11.01953.6672c.0745-.4323-.4892-.8851-1.5288-.8613-1.16303.092-1.53882.7541-1.0191 1.2119.706.6247 2.4209.3882 2.5479-.3506Zm3.1117-.0596c.0593-.4255-.5231-.8511-1.5677-.7966-1.1783.126-1.5372.7864-.9955 1.2188.7584.6025 2.4582.3217 2.5632-.4222Zm3.071-.2535c.0338-.3966-.4114-.909-1.505-.8035-1.1818.1872-1.483.9787-.8363 1.4111.8108.543 2.277.1617 2.3413-.6076Zm2.6495-.2912c.0118-.4425-.4063-.9974-1.368-.8493-1.168.269-1.3713 1.217-.628 1.6579.7991.4749 1.9757-.0017 1.996-.8086Zm1.8216-.3523c-.0118-.4187-.3064-1.0162-1.0445-.8323-.9599.3404-.9785 1.4587-.2405 1.8026.635.2962 1.307-.2111 1.285-.9703Zm1.0175-.3864c-.0288-.3507-.193-.9617-.6128-.766-.6332.412-.4368 1.6835.1117 1.7788.3639.063.5434-.4766.5011-1.0128Zm-20.91492.9107c.05929-.2894-.17267-.6315-.61286-.6775-.58066-.0103-.68729.5855-.39103.8954.31824.3353.91924.2042 1.00389-.2179Zm2.5649.2944c.06603-.325-.26917-.6945-.87191-.725-.78725.0169-.92608.6348-.55694.9702.44694.4085 1.32897.2553 1.42885-.2452Zm3.28775.0937c.07617-.3881-.4131-.8086-1.26466-.8187-1.01073.051-1.33244.6927-.82447 1.1183.61787.5191 1.96718.3251 2.08913-.2996ZM24.6123 11.495c-.0305-.303-.0762-.7063-.127-1.006l-.0034-.0169c-.0203-.1141-.0524-.2843-.0998-.2077l-.0102.0221c-.1896.5549.0779 1.7345.2133 1.6375.0644-.0459.0271-.4256.0271-.429ZM.181088 13.2602c-.013497-.3761-.0965024-.7456-.1032509-1.1234l-.0033742.3693c.0186065.4.0423231.9345.0846461 1.3329v.0016c.018606-.0254.032198-.2893.021979-.5804Zm.866792.3813c.00685-.4239-.221734-.909-.472295-.9975-.379264-.0511-.242076 1.0741-.027089 1.3856.194741.2809.435082.0953.487624-.2486.00675-.0425.01176-.097.01176-.1395Zm13.16292.9141c.0694-.4051-.4335-.943-1.5609-.8987-1.2546.1241-1.5136.88-1.0175 1.3055.7331.6332 2.4446.3626 2.5784-.4068Zm3.1878-.1413c.0694-.3932-.3657-.9328-1.522-.8443-1.1613.1583-1.5609.892-1.0225 1.3448.7177.6042 2.4056.2723 2.5445-.5005Zm2.8493-.2469c.0643-.4051-.2947-.9208-1.2934-.7982-1.1428.2179-1.4713 1.0196-.8737 1.4383.7297.5124 2.0468.1225 2.1671-.6401Zm2.321-.3284c.061-.4647-.2421-1.0418-1.1038-.8733-1.0954.3099-1.3408 1.3839-.6349 1.7788.6789.3762 1.6371-.1225 1.7387-.9055Zm1.4475-.3797c.0457-.4647-.11-1.0808-.7229-.8782-.8634.3948-.9735 1.6561-.3454 1.9336.4758.2094.9955-.303 1.0683-1.0554Zm-21.66655.618c.01688-.2621-.20149-.589-.54344-.6401-.44019-.0187-.45379.5277-.19638.8171.27254.3081.71437.2025.73982-.177Zm2.21263.1191c.02883-.2791-.25731-.6026-.73134-.6366-.60437.0051-.65682.5311-.34369.8221.36914.3422 1.03271.2281 1.07503-.1855Zm3.13708.2758c.04569-.3388-.33858-.8188-1.17992-.8426-.97178.0391-1.09538.7149-.65692 1.103.58577.5175 1.75393.3523 1.83684-.2604Zm3.19974.1004c.0593-.3779-.4012-.897-1.4221-.8903-1.11909.0767-1.3442.7763-.89899 1.1916.66704.6196 2.20759.4204 2.32109-.3013Zm13.6927-1.5047c.0135-.223.0339-.9328-.2285-.7303-.4318.4426-.4199 1.6835-.0881 1.675.1812-.0051.2895-.4784.3166-.9447Z"/>
  	<linearGradient id="a" x1="-2.53777" x2="26.3532" y1="20.4433" y2="20.4433" gradientUnits="userSpaceOnUse">
  		<stop stop-color="#47B547"/>
  		<stop offset="1" stop-color="#FFDA5A"/>
  	</linearGradient>
</svg>