<svg xmlns="http://www.w3.org/2000/svg" viewBox="0 0 130 28">
	<path fill="#D3D5D6" d="M85.9905 27.9587h11.9946L90.4003 8.82031 85.9905 27.9587Z"/>
	<path fill="#ADAFB2" d="m86.9607 0 3.4396 8.81954L97.9851 27.958l4.4099-19.13846L98.9553 0H86.9607Z"/>
	<path fill="#75BEE9" d="m99.749 27.9587 4.498-19.13839 7.497 19.13839H99.749Z"/>
	<path fill="#0072BC" d="M116.153 8.81954 111.744 27.958l-7.497-19.13846L100.719 0h11.995l3.439 8.81954Z"/>
	<path fill="#F37164" d="m113.596 27.9587 4.409-19.13839 7.585 19.13839h-11.994Z"/>
	<path fill="#ED1B35" d="M130 8.81954 125.59 27.958l-7.584-19.13846L114.566 0h11.906L130 8.81954Z"/>
	<path fill="#fff" d="M6.61466 12.5235 3.61601 6.1734H0v10.5835h2.64586V9.43663l3.35143 7.32027h1.14654l3.43967-7.32027v7.32027h2.6458V6.1734H9.52511l-2.91045 6.3501ZM20.4613 7.84911c1.2348 0 2.2931.70557 2.8223 1.58752l2.2049-.97015c-.7938-1.41113-2.2931-2.73406-4.939-2.73406-3.616 0-6.35 2.38128-6.35 5.73268 0 3.4396 2.8222 5.7327 6.35 5.7327 2.5577 0 4.057-1.3229 4.939-2.734l-2.2049-.9702c-.5292.882-1.5875 1.5875-2.8223 1.5875-2.1166 0-3.7042-1.4993-3.7042-3.616 0-2.11667 1.5876-3.61599 3.7042-3.61599Zm6.4383 9.17229h2.5577V8.1137h5.5563v8.9077h2.5577V5.99701H26.8996V17.0214Zm22.8426-7.0556h-3.0868V8.0255h6.1737V5.99701h-8.7314V17.0214h5.6445c2.5577 0 3.9688-1.5875 3.9688-3.5278 0-1.9403-1.4111-3.5278-3.9688-3.5278Zm-.3527 5.0271h-2.7341v-2.8222h2.7341c.9701 0 1.6757.5292 1.6757 1.4111 0 .882-.7056 1.4111-1.6757 1.4111Zm9.4369-5.99725c-1.4112 0-2.7341.35279-3.7924 1.23475l.8819 1.4111c.7056-.6174 1.5875-.9701 2.4695-.9701 1.0583 0 1.8521.5291 1.8521 1.3229v1.0583c-.6174-.6173-1.5875-.9701-2.7341-.9701-1.4111 0-2.9986.7056-2.9986 2.5577 0 1.7639 1.5875 2.6458 2.9986 2.6458 1.1466 0 2.1167-.441 2.7341-1.0583v.9701h2.3813v-5.2035c0-2.29308-1.8521-2.99865-3.7924-2.99865Zm1.4111 6.17365c-.441.441-1.1466.6174-1.8521.7056-.882 0-1.5875-.441-1.5875-1.1465 0-.7938.7055-1.2348 1.5875-1.2348.7937 0 1.4993.2646 1.8521.7056v.9701ZM70.38 12.0825h-3.616V8.99565h-2.2049v8.02575h2.2049v-3.175h3.616v3.175h2.2049V8.99565H70.38v3.08685Zm9.1723.6174 3.4396-3.70425h-2.734l-3.2633 3.52785V8.99565h-2.2931v8.02575h2.2931v-2.1167l.9702-.8819 2.2931 2.9986h2.8222l-3.5278-4.3215Z"/>
</svg>