<svg xmlns="http://www.w3.org/2000/svg" viewBox="0 0 180 12">
  	<path fill="#fff" d="M166.2 5.2h-2.9V2.3H162v6.8h1.3V6.3h2.9v2.8h1.3V3.5h2.3v5.7h1.3V3.5h2.2V2.3h-7.1v2.9zM154 0h-1.3v8h-4.4V0H147v9.2h6.6v2.1h1.4l.1-3.4H154V0zM139.2 7.3v-5h-1.3v6.8h1.5l3-4.9v4.9h1.3V2.3h-1.5l-3 5zM135.8 2.3h1.3v6.8h-1.3zM127.1 5.2h-3V2.3h-1.3v6.8h1.3V6.3h3v2.8h1.3V2.3h-1.3v2.9zM116.6 3.5h2.2v5.7h1.3V3.5h2.2V2.3h-5.7v1.2zM108.6 5.7h-.3c-.3 0-.7.1-1.1.1s-.6 0-.8-.1c-.2 0-.4-.2-.5-.4-.1-.2-.2-.5-.2-.8V2.3h-1.3v2.2c0 .9.2 1.5.7 1.9.5.4 1.2.6 2 .6h.8c.2 0 .4 0 .6-.1v2.3h1.3V2.3h-1.3v3.4ZM100.2 3.7c.3-.2.6-.3 1-.3s.8.1 1 .3c.3.2.4.5.5.8h1.3c0-.5-.2-.9-.5-1.2-.3-.3-.6-.6-1-.8-.4-.2-.9-.3-1.4-.3s-1.2.2-1.7.5-.8.7-1.1 1.2c-.3.5-.4 1.1-.4 1.8s.1 1.3.4 1.8c.3.5.6.9 1.1 1.2.5.3 1.1.5 1.7.5s1 0 1.4-.3c.4-.2.7-.5 1-.8.2-.3.4-.7.4-1.2h-1.3c0 .3-.2.5-.3.6-.1.2-.3.3-.5.4s-.4.1-.7.1c-.4 0-.7 0-1-.3-.3-.2-.5-.5-.6-.8-.2-.4-.2-.8-.2-1.3s0-.9.2-1.3.4-.6.6-.8ZM77.4 7.3v-5h-1.3v6.8h1.4l3-4.9v4.9h1.3V2.3h-1.4l-3 5zM70.8 7.3v-5h-1.3v6.8h1.4l3-4.9v4.9h1.3V2.3h-1.4l-3 5zM69.4 2.3h-1.7l-2.2 2.9h-.7V2.3h-1.3v6.8h1.3V6.4h.9l2.1 2.7h1.6l-2.7-3.5 2.7-3.3zM59.2 3.7c.3-.2.6-.3 1-.3s.8.1 1 .3c.3.2.4.5.5.8H63c0-.5-.2-.9-.5-1.2-.3-.3-.6-.6-1-.8-.4-.2-.9-.3-1.4-.3s-1.2.2-1.7.5-.8.7-1.1 1.2c-.3.5-.4 1.1-.4 1.8s.1 1.3.4 1.8c.3.5.6.9 1.1 1.2.5.3 1.1.5 1.7.5s1 0 1.4-.3c.4-.2.7-.5 1-.8.2-.3.4-.7.4-1.2h-1.3c0 .3-.2.5-.3.6-.1.2-.3.3-.5.4-.2 0-.4.1-.7.1-.4 0-.7 0-1-.3-.3-.2-.5-.5-.6-.8-.2-.4-.2-.8-.2-1.3s0-.9.2-1.3.4-.6.6-.8ZM55.2 5.2h-3V2.3h-1.3v6.8h1.3V6.3h3v2.8h1.3V2.3h-1.3v2.9zM43.4 2.3h-1.2L40 7.5l-2.1-5.2h-1.7v6.8h1.3V4.2l2.1 4.9h.9l2.1-4.9v4.9h1.3V2.3h-.5zM25.9 7.6l-1.7-5.3h-1.4l2.5 6.9-.2.5c-.1.3-.3.5-.4.7-.1.1-.3.2-.5.2h-.6l-.3 1.1h.9c.4 0 .7 0 1-.2.3-.1.5-.3.7-.6.2-.2.4-.5.5-.9l2.8-7.8h-1.4l-1.7 5.3ZM17.7 7.1h-.1L14.7 0h-1.6v9.1h1.3V2.5h.1l2.6 6.6h1.1l2.7-6.5h.1v6.6h1.3V0h-1.7l-2.9 7.1zM7.2 7.2V0H0l7.2 7.2zM179.6 3.8c-.2-.5-.6-.9-1-1.2-.4-.3-.9-.4-1.5-.4s-.8 0-1 .2c-.3.1-.5.3-.6.5-.1.2-.3.3-.3.5h-.1V2.3h-1.3v9.4h1.3V8.1c0 .1.2.3.3.5.1.2.3.4.6.5.3.1.6.2 1 .2s1-.1 1.5-.4c.4-.3.8-.7 1-1.2.3-.5.4-1.2.4-1.9s-.1-1.4-.4-1.9ZM178.5 7c-.1.4-.3.6-.6.9-.3.2-.6.3-1 .3s-.7 0-1-.3c-.3-.2-.5-.5-.6-.9-.1-.4-.2-.8-.2-1.3s0-.9.2-1.2.3-.6.6-.8c.3-.2.6-.3 1-.3s.7.1 1 .3c.3.2.5.5.6.9.1.4.2.8.2 1.2s0 .9-.2 1.2ZM160.5 3c-.3-.3-.6-.5-1-.6-.4-.1-.7-.2-1.1-.2-.6 0-1.2.2-1.7.5s-.8.7-1.1 1.2c-.3.5-.4 1.1-.4 1.8s.1 1.3.4 1.9c.2.5.6.9 1.1 1.2.5.3 1.1.4 1.7.4s.9 0 1.3-.2.7-.4 1-.6c.3-.3.4-.6.5-1l-1.3-.2c0 .2-.2.4-.3.5-.2.1-.3.3-.5.3s-.4.1-.7.1c-.4 0-.7 0-1-.3-.3-.2-.5-.4-.7-.7-.1-.3-.2-.6-.2-1.1h4.8v-.5c0-.6 0-1.1-.3-1.6-.2-.4-.4-.8-.7-1.1Zm-3.9 2.1c0-.3 0-.6.2-.8.1-.3.4-.5.6-.7.3-.2.6-.3 1-.3s.6 0 .9.2c.3.2.5.4.6.6.1.3.2.6.2.9h-3.6ZM140.8 1.7c.6 0 1.1-.2 1.4-.5.3-.3.5-.7.5-1.2h-1.1c0 .2 0 .4-.2.6-.1.2-.4.3-.7.3s-.5 0-.7-.3c-.1-.2-.2-.4-.2-.6h-1.1c0 .5.2.9.5 1.2.3.3.8.5 1.4.5ZM132.2 4.7h-1.7V2.4h-1.3v6.8h3c.6 0 1-.1 1.4-.3.4-.2.7-.5.9-.8.2-.3.3-.7.3-1.2 0-.7-.2-1.2-.7-1.6-.4-.4-1.1-.6-1.9-.6Zm.9 3c-.3.2-.6.3-.9.3h-1.7V5.8h1.7c.4 0 .7 0 .9.3.3.2.4.5.4.8s-.1.6-.4.8ZM115.7 3c-.3-.3-.6-.5-1-.6-.4-.1-.7-.2-1.1-.2-.6 0-1.2.2-1.7.5s-.8.7-1.1 1.2c-.3.5-.4 1.1-.4 1.8s.1 1.3.4 1.9c.2.5.6.9 1.1 1.2.5.3 1.1.4 1.7.4s.9 0 1.4-.2c.4-.2.7-.4 1-.6.3-.3.4-.6.5-1l-1.3-.2c0 .2-.2.4-.3.5-.2.1-.3.3-.5.3s-.4.1-.7.1c-.4 0-.7 0-1-.3-.3-.2-.5-.4-.7-.7-.1-.3-.2-.6-.2-1.1h4.9v-.5c0-.6 0-1.1-.3-1.6-.2-.4-.4-.8-.7-1.1Zm-3.9 2.1c0-.3 0-.6.2-.8.1-.3.4-.5.6-.7.3-.2.6-.3 1-.3s.6 0 .9.2c.3.2.5.4.6.6.1.3.2.6.2.9h-3.6ZM96.5 2.7c-.3-.2-.6-.3-.9-.3h-.9c-.4 0-.8 0-1.2.2-.4.1-.7.3-1 .6-.3.3-.5.6-.6 1l1.2.3c0-.2.3-.5.5-.7.3-.2.6-.3 1.1-.3s.8.1 1 .3c.2.2.3.5.3.9 0 .2 0 .3-.2.4-.1 0-.3.1-.6.2h-1c-.3 0-.6 0-.9.2-.3 0-.6.2-.9.3-.3.1-.5.3-.6.6-.2.2-.2.6-.2.9s0 .8.3 1.1c.2.3.5.5.8.7.3.2.7.2 1.2.2s.7 0 1-.2c.3-.1.5-.3.7-.4.2-.2.3-.3.4-.5v.9h1.3V4.6c0-.5 0-.9-.3-1.2-.2-.3-.4-.6-.7-.7Zm-.4 4c0 .3 0 .5-.2.8-.1.2-.3.4-.6.6-.3.1-.6.2-.9.2s-.7 0-.9-.3c-.2-.2-.4-.4-.4-.7s0-.4.2-.6c.1-.2.3-.3.5-.3s.4-.1.7-.2h.8c.2-.1.3-.1.5-.2.1 0 .2 0 .3-.1v.9ZM90.2.4c-.5-.3-1.1-.4-1.8-.4h-3.2v9.1h1.4V5.9h1.9c.7 0 1.3-.1 1.8-.4.5-.3.8-.6 1.1-1.1.2-.4.3-.9.3-1.5s-.1-1.1-.3-1.5c-.2-.4-.6-.8-1-1.1ZM90 3.9c-.1.3-.3.5-.6.6-.3.2-.6.2-1.1.2h-1.7V1.2h1.7c.5 0 .8 0 1.1.2.3.1.5.4.6.6.1.3.2.6.2.9s0 .6-.2.9ZM79 1.7c.6 0 1.1-.2 1.4-.5.4-.3.5-.7.5-1.2h-1.1c0 .2 0 .4-.2.6-.1.2-.4.3-.7.3s-.5 0-.7-.3C78.1.4 78 .2 78 0h-1.1c0 .5.2.9.5 1.2.3.3.8.5 1.4.5ZM49.2 2.7c-.3-.2-.6-.3-.9-.3h-.9c-.4 0-.8 0-1.2.2-.4.1-.7.3-1 .6-.3.3-.5.6-.6 1l1.2.3c0-.2.3-.5.5-.7.3-.2.6-.3 1.1-.3s.8.1 1 .3c.2.2.3.5.3.9 0 .2 0 .3-.2.4-.1 0-.3.1-.6.2h-1c-.3 0-.6 0-.9.2-.3 0-.6.2-.9.3-.3.1-.5.3-.6.6-.2.2-.2.6-.2.9s0 .8.3 1.1c.2.3.5.5.8.7.3.2.7.2 1.2.2s.7 0 1-.2c.3-.1.5-.3.7-.4.2-.2.3-.3.4-.5v.9H50V4.6c0-.5 0-.9-.3-1.2-.2-.3-.4-.6-.7-.7Zm-.4 4c0 .3 0 .5-.2.8-.1.2-.3.4-.6.6-.3.1-.6.2-.9.2s-.7 0-.9-.3c-.2-.2-.4-.4-.4-.7s0-.4.2-.6c.1-.2.3-.3.5-.3s.4-.1.7-.2h.8c.2-.1.3-.1.5-.2.1 0 .2 0 .3-.1v.9ZM34.3 2.6c-.4-.3-.9-.4-1.5-.4s-.8 0-1 .2c-.3.1-.5.3-.6.5-.1.2-.3.3-.3.5h-.1V2.3h-1.3v9.4h1.3V8.1c0 .1.2.3.3.5.1.2.3.3.6.5.3.1.6.2 1 .2s1-.1 1.5-.4c.4-.3.8-.7 1-1.2.3-.5.4-1.2.4-1.9s-.1-1.4-.4-1.9-.6-.9-1-1.2ZM34.1 7c-.1.4-.3.6-.6.9-.3.2-.6.3-1 .3s-.7 0-1-.3c-.3-.2-.5-.5-.6-.9-.1-.4-.2-.8-.2-1.3s0-.9.2-1.2c.1-.3.3-.6.6-.8.3-.2.6-.3 1-.3s.7.1 1 .3c.3.2.5.5.6.9.1.4.2.8.2 1.2s0 .9-.2 1.2Z"/>
</svg>