<svg xmlns="http://www.w3.org/2000/svg" viewBox="0 0 151 24">
	<path fill="#fff" d="M0 14.53C0 19.25 2.65 24 8.57 24s8.57-4.75 8.57-9.47c0-3.22-1.09-6.93-2.9-9.92C12.48 1.72 10.36 0 8.57 0S4.66 1.72 2.91 4.61C1.09 7.61 0 11.31 0 14.53Zm60.86-7.46h-6V1.29h18.43v5.79h-6v15.64h-6.43V7.07Zm26.14 0h9.43V1.29H87C78.34 1.29 73.71 5.6 73.71 12c0 6.41 4.63 10.71 13.29 10.71h9.43v-5.79H87c-4.01 0-6.65-1.43-6.65-4.93 0-3.49 2.64-4.92 6.65-4.92Zm-48.65 7.01 3.43-12.79h11.36v21.43h-6.43V5.27l-4.67 17.44h-7.37L30 5.28v17.43h-6.43V1.29h11.36l3.42 12.79Zm74.09-6.58h-2.27v2.1h2.27c.57 0 .92-.3.92-.84v-.39c-.01-.56-.3-.87-.92-.87Zm.57 4.5h-5.87V1.29h8.63v2.56h-5.61v1.4H113c2.38 0 3.53 1.18 3.53 3.26.01 2.19-1.14 3.49-3.52 3.49Zm10.51-4.38h-2.39l1.2-3.96 1.19 3.96Zm4.6 4.38-3.31-10.71h-4.5L117 12h2.83l.61-2.05h3.79l.62 2.05h3.27Zm7.65 0V7.85h-3.46V12h-3.1V1.29h3.1v3.93h3.46V1.29h3.11V12h-3.11Zm8.62-6.79h-.54V1.29h-3.1V12h3.1V7.85h.45l2.87 4.15h3.59l-3.88-5.61 3.57-5.11h-3.28l-2.78 3.93Z"/>
</svg>