<svg xmlns="http://www.w3.org/2000/svg" viewBox="0 0 120 30">
	<g fill="#fff">
		<path d="m55.7972 13.0678-4.8833-7.84524H46.511V23.955h3.9226V11.7869l5.2835 7.8453h.0801l5.2034-7.9253V23.955h3.9227V5.22256h-4.2429l-4.8832 7.84524Zm24.3362 2.8819c0 2.962-1.6011 4.483-4.0827 4.483-2.4817 0-4.0828-1.521-4.0828-4.563V5.22256h-3.9226V15.9497c0 5.4436 2.962 8.2455 8.0054 8.2455 4.9633 0 8.0854-2.8019 8.0854-8.4056V5.22256h-3.9227V15.9497h-.08Zm7.0447 8.0053h3.9226v-7.0447h8.2455v-3.9226h-8.2455V9.06512h10.5673V5.22256H87.1781V23.955Zm24.6559-10.9673v3.9226h4.323v2.4016c-1.2.7205-2.321 1.1208-3.842 1.1208-3.282 0-5.604-2.4817-5.604-5.924v-.08c0-3.1221 2.322-5.76385 5.284-5.76385 2.161 0 3.362.72048 4.803 1.92125l2.562-3.12205c-1.922-1.68112-3.923-2.56171-7.285-2.56171-5.604 0-9.687 4.32288-9.687 9.60636v.0801c0 5.5237 3.923 9.6064 9.687 9.6064 3.442 0 5.924-1.3609 7.925-2.962v-8.2455h-8.166ZM19.8532 8.74609c-3.2022 0-5.8439 2.64181-5.8439 5.84391s2.6417 5.8439 5.8439 5.8439c3.2021 0 5.8439-2.6418 5.8439-5.8439 0-3.2021-2.6418-5.84391-5.8439-5.84391Z"/>
		<path d="M25.6171.5c-2.0814 0-4.0027.400266-5.7639 1.2008C18.0921.900266 16.1708.5 14.0894.5 6.32421.5 0 6.82421 0 14.5894c0 7.7652 6.32421 14.0894 14.0894 14.0894 2.0814 0 4.0027-.4804 5.7638-1.2008 1.7612.8005 3.6825 1.2008 5.7639 1.2008 7.7651 0 14.0893-6.3242 14.0893-14.0894C39.6264 6.82421 33.3822.5 25.6171.5Zm-5.7639 26.8179c-7.0447 0-12.72845-5.6838-12.72845-12.7285 0-7.04471 5.68375-12.72849 12.72845-12.72849 7.0447 0 12.7285 5.68378 12.7285 12.72849 0 7.0447-5.6838 12.7285-12.7285 12.7285Z"/>
	</g>
</svg>