<svg xmlns="http://www.w3.org/2000/svg" viewBox="0 0 150 26">
	<path fill="#fff" d="M149.917 14.9851c-.176-.7932-.705-1.4983-1.41-1.9389-.969-.5289-2.115-.7933-3.173-.9695-1.145-.1763-2.291-.2644-3.437-.3526-1.234-.0881-2.468-.0881-3.613-.4406-.529-.1763-.97-.5289-.97-1.0577-.088-.52877.441-.96945.97-1.14572 1.057-.44067 2.203-.44067 3.349-.44067 2.115 0 4.142.44067 5.993 1.41019.352-.44071 1.146-1.23392 1.586-1.85087-2.203-1.41016-4.847-1.93896-7.403-1.93896-1.851 0-3.702.2644-5.288 1.05761-.97.52881-1.763 1.41016-1.939 2.64405-.176.70507-.176 1.49827.176 2.11527.353.6169.97 1.1457 1.587 1.4101.969.4407 2.115.617 3.261.7051 1.41.1763 2.908.1763 4.318.2644.793.0881 1.587.1763 2.292.5288.44.1763.881.617.881 1.1458 0 .5288-.264.9695-.705 1.322-.617.4407-1.498.7051-2.291.7932-2.997.3526-6.17-.0881-8.726-1.8508-.441.6169-.969 1.2339-1.41 1.8508 2.468 1.8508 5.553 2.3797 8.549 2.3797 1.675-.0882 3.437-.2644 5.024-.9695.793-.4407 1.498-.9695 1.939-1.6746.529-.8813.617-2.0271.44-2.9966Zm-89.5447 3.0847L51.1182 6.70044h-3.9661V20.3614h2.644V8.99195l9.3423 11.36945h3.878V6.70044h-2.6441V18.0698ZM127.972 6.6123h2.644v13.6609h-2.644V6.6123Zm-3.878 0h-3.349l-5.112 5.1118-5.2-5.1118h-3.349l6.786 6.7864-7.051 6.8745h3.35l5.288-5.1999 5.552 5.1999h3.349l-7.051-6.9626 6.787-6.6983Zm-22.915 13.6609h2.732V6.6123h-2.644l-.088 13.6609ZM82.5823 9.08008h6.522V20.2732h2.6441V8.99195h6.522V6.6123H82.5823v2.46778ZM72.8875 6.6123l-7.4033 13.6609h2.9084l1.5864-2.9084h9.1661l1.5864 2.9084H83.64L76.2366 6.6123h-3.3491Zm-1.5864 8.3728 3.261-5.99315 3.1728 5.99315h-6.4338Z"/>
	<path fill="#FFFBFE" d="M12.427 11.1028c.1763 0 .4407-.0881.7051-.1763.2644-.0881.6169 0 .8814-.1762.0881 0 .1762.0881.2644.0881v.3525h.0881c.1763-.1762.2644-.4406.3525-.6169l-.0881-.0881.2644-.52886c-.0881-.08813-.0881-.17627-.1763-.2644.0882-.08814.2644-.08814.4407-.08814 0-.2644.0881-.61694 0-.88135-.0881-.2644 0-.61694 0-.88135-.1763-.17627-.3525-.44067-.5288-.61694.1763-.17627.3525-.26441.5288-.35254-.2644-.35254-.4407-.79322-.4407-1.23389-.0881 0-.2644-.08814-.3525-.08814v-.44067h-1.5864c-.5288.08814-1.0577.08814-1.5865.26441-.2644 0-.4406.17626-.705.17626-.0882 0-.1763.08814-.2644.08814l-.0882-.17627h-.17625v.08813h.17625v.17628c-.44066.17627-.88133.2644-1.23387.61694-.17627.17627-.52881.2644-.79322.35254-1.05762.61694-2.0271 1.32202-2.90845 2.0271-.17627.08814-.52881.17627-.52881.44068.52881-.17627 1.05762-.44068 1.58643-.70508-.08813.2644-.35254.44067-.61695.52881.35254.35254.79322.61694 1.2339.44067.17627.08814.35253-.08813.5288-.2644h.35254c0-.08814.08814-.17627.08814-.26441h.35254c.08813-.08813.17627-.2644.17627-.35254h.35254c.08813-.2644.35254-.52881.44067-.88135h.26441v-.2644h.17627c.17627-.17627.2644-.35254.35254-.52881h-.26441c-.08813-.17627-.17627-.35254-.2644-.44068h.44067c.61699-.52881 1.49829-.61694 2.20339-.88135.4407-.17627.7932-.17626 1.2339-.17626l.0881.08813c-.2644.26441.1763.52881.3525.61694 0 .08814-.0881.17628-.0881.17628.0881.17627.0881.5288.0881.79321-.2644.17627-.5288.35254-.6169.70508.1763 0 .3525.17627.4407.35254-.1763.08813-.2644.17627-.3526.17627.2644.17627.4407.2644.617.44067-.1763.44068-.7051.70508-.7932 1.23389-.0882.26436-.3526.61696-.5288.88136h-.617c-.5288.1763-1.0576.3525-1.4983.6169-.52879-.0881-.79319.3526-1.23387.4407-.08813-.0881-.17627-.2644-.17627-.3525h-.08813v.3525c-.08814 0-.17627.0881-.26441.1763 0 .1763-.08813.3525-.08813.4407-.08814-.0882-.17627-.1763-.26441-.1763 0 .1763-.08813.3525-.08813.4407-.44068 0-.79322.2644-1.23389.4406v.1763c-.08814-.0881-.26441-.0881-.35254-.0881h-.08814c-.08813.1762-.08813.3525-.08813.4406-.08813.0882-.2644.1763-.44067.1763-.08814 0-.08814.0881-.08814.0881-.2644.0882-.52881.2645-.70508.4407l.08814.1763c.35254-.0881.61694-.2644.96948-.3525.44067-.2645.70508-.5289 1.05762-.617.35254-.1763.61694-.4407.96948-.6169.17627-.1763.52881-.1763.70508-.3526.35254-.2644.70508-.3525 1.05764-.5288l.7932-.5288h.3525c0-.0881.0882-.1763.0882-.1763.4406-.0881.7932-.1762 1.1457-.3525Zm1.939-5.99318v-.17627c-.0881.08814-.1763.17627 0 .17627Zm18.5083 4.75929c-.0881 0-.1762.08813-.2644.08813l.2644-.08813c.1763 0 .3526-.26441.3526-.44068h.1762v-.17627h-.2644c-.0881.17627-.1762.35254-.2644.61695ZM3.70167 9.42823c-.08814.17627-.17627.26441-.26441.79317h-.17627c-.17627.1763-.2644.3526-.52881.3526-.08813.0881-.17627.1763-.17627.2644-.17627 0-.2644.1763-.35254.1763l-.17627.0881-.08813.1763c-.17627 0-.35254.0881-.44068.1762 0 .2644-.17627.4407-.35253.617-.08814.3525-.44068.6169-.528815.9695 0 .0881-.17627.1762-.17627.1762v.2644c-.17627.0882-.264405.1763-.440675.2644h.264405c0 .0882.088135.2644.088135.3526h.17627c0 .2644.264405.3525.440675.3525v.1763c.088135-.0881.176265-.1763.264405-.1763.08813.1763.2644.3526.44067.4407v-.0881c.17627 0 .35254 0 .52881.0881.08814-.0881.17627-.1763.26441-.1763-.17627-.0881-.44068-.0881-.61695-.2644l-.35254-.3525c-.35254-.2644-.705075-.7932-.528805-1.322.264405-.8814 1.057615-1.4102 1.674565-1.939.35254-.2644.61694-.7051 1.05762-.617v-.35249h.35254c.08813-.26441.17627-.52881.35254-.79322l-.08814-.08813c-.17627.17627-.35254.35254-.61694.44067ZM33.9319 4.49268c-.2644 0-.4406.17627-.6169.35254-.0881 0-.1763-.08814-.2644-.08814.1763-.17627.2644-.35254.3525-.44067-.1762.08813-.4406.17627-.6169.2644-.0881-.08813-.0881-.17627 0-.17627-.2644.17627-.5288.44068-.7051.70508-.2644 0-.4407-.17627-.6169 0-.3526.26441-.617.52881-1.0577.52881-.2644.44067-.8813.44067-1.322.79321-.0881 0-.1762-.17626-.1762-.17626v.2644c-.1763.2644-.4407.44067-.7051.61694 0 .08814.0881.17627.0881.26441.0881 0 .0881.17627.0881.17627h.4407v.35254c-.1763 0-.2644.08813-.4407.08813 0 .08814-.0881.17627-.1762.17627.0881.08814.1762.17627.2644.17627v.17627c.0881.08814.2644.17627.3525.17627.1763 0 .1763-.2644.2644-.35254.2644 0 .3526-.17627.4407-.35254-.0881.08814-.2644.17627-.3525.17627.0881-.08813 0-.35254.1762-.35254.1763 0 .4407.08814.617.17627 0-.17627-.0882-.35254-.1763-.44067h.6169c-.2644-.17627-.5288-.26441-.6169-.52881.1763-.08814.4407 0 .6169 0 .0882-.26441.0001-.44068-.0881-.61695.3526-.17627.7932-.17627 1.1458.08814l.1762-.17627c.0882 0 .1763.08813.2644.08813.0882-.17627.0882-.2644.1763-.44067 0-.08814.1763-.08813.1763-.08813v-.17627h.4407c.0881.2644.0881.5288.2644.79321.0881-.08814.0881-.26441.1762-.35254 0 0 .0882.08814.1763.08814v-.26441c-.0881-.08814-.2644-.17627-.3525-.17627.0881-.2644.2644-.61694.6169-.61694-.0881 0-.1763-.17627-.1763-.17627h.3526c.0881-.17627.1762-.35254.1762-.52881ZM15.4236 24.4993h-.3525c-.2644-.0881-.4407-.0881-.617-.0881-.1762-.2644-.5288-.4407-.7932-.7051.0881-.1763.1763-.2644.1763-.3526.0881.0882.2644.1763.3525.2645v-.3526c.0882-.0881.1763-.1763.2644-.1763-.1762-.0881-.4406-.2644-.6169-.3525l-.1763.0881c0 .1763.0881.3526.1763.4407-.3526 0-.5288-.2644-.617-.4407-.2644.1763-.3525.3526-.3525.617-.1763-.0882-.2644-.2644-.3525-.3526v-.3525c-.2644.0881-.4407.1763-.617.2644-.0881 0-.1763 0-.0881.0881-.2644 0-.3526.2645-.3526.4407.0882-.0881.1763-.1763.2644-.1763 0 .0882.0882.1763.1763.2645-.1763.0881-.4407.1762-.6169.1762.1762.0882.3525.2644.4406.3526h-.4406c.0881.0881.1762.1762.1762.2644.1763 0 .2644.1762.3526.3525.1762 0 .2644.1763.4407.2644h.2644v.0881l-.0882.1763c.2644.2644.7051.1763 1.0576.1763l.1763.1763c.0881-.2644.4407-.1763.617-.1763.0881-.0881.2644-.1763.3525-.2644 0 .0881.0881.1763.1763.1763.0881-.1763.0881-.4407.0881-.617.0881.0881.2644.0881.4407.0881-.0882.0882-.1763.1763-.2644.1763v.5288c.1762-.0881.4406-.0881.7051-.0881l.0881-.0881c.0881-.1763.1763-.2645.2644-.3526-.1763-.1763-.7051-.1763-.7051-.5288Zm-11.72193-9.783c-.35254.1763-.70508-.2644-1.05762-.1762l.35254.3525c-.08814.0881-.26441.1763-.35254.1763h.88135c.17627-.0882.44067-.1763.61694-.1763 0-.2644-.2644-.2644-.44067-.1763Z"/>
	<g fill="#F3F2F4">
		<path d="M8.90161 5.9939c.08814.17627.17627.35254.26441.44067h.2644c-.08813.17627-.2644.35254-.35254.52881h-.17627v.26441h-.2644c-.08814.35254-.26441.61694-.44068.88135.35254-.17627.70508-.17627.96949 0 0-.08814.08813-.17627.17627-.17627v-.35254c.08813 0 .17627.08813.2644.08813.08814-.08813.17627-.2644.26441-.35254-.08814-.08813-.17627-.17627-.26441-.17627.08814 0 .17627-.08813.17627-.17627v-.17627c.17627-.08813.26444-.17627.35254-.2644v-.35254l.5288-.26441.0881.17627c0-.08813.0882-.08813.0882-.08813.0881.08813.2644.17627.3525.17627-.0881-.08814-.1763-.17627-.1763-.26441.1763-.17627.3526-.35254.617-.17627v-.17627c-.7051.17627-1.4983.35254-2.29151.44068h-.44068Zm2.73219-.44068c.0881 0 .0881 0 .1763-.08813h.0881c-.0881 0-.1763 0-.2644-.08814v.17627Z"/>
		<path d="M12.2508 10.7539c.2644-.2644.4406-.5288.5288-.88133.1762-.44067.6169-.79321.7932-1.23389-.1763-.17627-.4407-.35254-.617-.44067.1763-.08814.2644-.17627.3526-.17627-.0882-.17627-.2644-.26441-.4407-.35254.0881-.26441.3525-.52881.617-.70508.0881-.26441 0-.52881-.0882-.79322 0-.08813.0882-.17627.0882-.17627-.1763-.08813-.617-.35253-.3526-.61694l-.0881-.08813c-.4407 0-.7051 0-1.1458.17627.1763 0 .3526 0 .5288-.08814.0882.08814.0882.17627.0882.17627-.0882.08813-.2644.08814-.3526.08814v.35253c.0882-.08813.2644-.08813.3526-.08813v.17627h-.2644c0 .2644.2644.2644.4406.35254v.52881c-.1762.08813-.5288.08813-.5288.2644-.0881.17627 0 .26441 0 .35254-.1762.17627-.2644.44068-.3525.61695-.0881 0-.1763.08813-.2644.08813.0881.08814.1763.08814.2644.17627l-.2644.79322c.0881 0 .1763-.08814.2644-.08814.2644.35254.1763.79322 0 1.14571h-.617v.1763c-.1762 0-.3525.0882-.4406.1763v-.0881c-.0882.0881-.1763.0881-.2644.0881-.1763-.0881-.3526-.2644-.52885-.0881-.08813 0-.17627-.0882-.2644-.0882v.2644c-.17627-.0881-.26441-.1762-.44068-.2644-.08813.0882-.08813.1763-.17626.2644-.17627-.1762-.26441-.3525-.35255-.5288.26441.0881.61695.1763.88135 0 .26441.0881.44069.1763.61699.2644.0881-.0881.2644-.0881.3525-.0881-.0881-.0882-.0881-.1763-.1763-.1763 0-.1763-.0881-.44066-.1762-.61693l-.26445.2644c-.17626-.08813-.2644-.17627-.35254-.2644l-.2644.2644c0 .08814.08814.17623.08814.17623h-.35254c0-.08809-.08814-.17623-.08814-.17623l.2644-.2644c-.17627-.17627-.35254-.44068-.52881-.52881H8.5491v-.35254c.08813.08813.2644.17627.35254.2644v-.52881h-.79322c-.08813.08814-.17627.26441-.17627.35254h-.35254c0 .08814-.08813.17627-.08813.26441h-.35254c-.08814.17627-.26441.35254-.52881.2644-.52881.17627-.96949-.08813-1.23389-.44067.2644-.08814.52881-.26441.61694-.52881-.52881.17627-1.05762.52881-1.58643.70508-.17627.2644-.2644.52881-.17627.70508h-.35254v.35256c-.44067-.0882-.79321.3525-1.05761.6169-.70508.5288-1.41016 1.0576-1.67457 1.939-.176267.5288.17627.9695.52881 1.322.08814-.0881.17627-.2644.17627-.3525-.08813-.0882-.2644-.0882-.44067-.1763-.08814-.0881-.17627-.2644-.17627-.3525.08813-.1763.2644-.4407.35254-.617.2644.0882.52881.0882.79321-.0881-.2644-.1763-.61694-.1763-.79321-.4407.17627-.0881.44067-.1763.61694-.3525h.61695c-.08814-.0882-.17627-.2644-.17627-.2644.08813-.0882.2644-.1763.44067-.2644-.08814-.0882-.17627-.2644-.17627-.3526.17627.0882.44067.1763.61694.2644-.08813 0-.2644.0882-.35254.0882h.70508v.6169c.17627.4407.70508.3525 1.05762.4407l-.17627.1762c.08814.0882.08814.1763.08814.2645l-.17627-.1763c-.08814.0881-.17627.1763-.17627.2644h-.79322c.17627.1763.35254.2644.52881.3525 0 .2644 0 .617.35254.7051.08814.0881.08814.2644.08814.3525-.17627.0882-.44068.1763-.61695.1763.08814-.1763.17627-.3525.35254-.4407-.35254-.1762-.52881-.5288-.70508-.8813l-.35253.3525c.17627.1763.44067.3526.61694.5288v.1763c-.08814-.0881-.17627-.0881-.26441-.0881l-.2644.2644c-.08814-.1763-.17627-.2644-.26441-.3526-.2644.0882-.61694.1763-.61694.617h-.61694c.17627.1763.44067.2644.61694.2644-.08814.0881-.17627.1763-.2644.1763.08813.0881.2644.1762.35254.1762.08813-.0881.2644-.1762.35253-.1762-.17627-.0882-.2644-.1763-.35253-.2644.35253 0 .70508.3525 1.05761.1762.17627-.0881.44068-.0881.44068.1763.08813-.0881.2644-.0881.44067-.0881.17627 0 .44068-.1763.61695-.2644l-.08814-.1763c.17627-.2644.44068-.3526.70508-.4407.08814 0 .08814-.0881.08814-.0881.17627-.0882.35254-.0882.44067-.1763.08814-.1763.08814-.3525.08814-.4407h.08813c.08814.0882.26441.0882.35254.0882v-.1763c.44068-.1763.79322-.4407 1.23389-.4407 0-.1762.08814-.3525.08814-.4407.08813.0882.17627.1763.2644.1763 0-.1762.08814-.3525.08814-.4407.08813 0 .17627-.0881.2644-.1762v-.3526c.08813.0882.08814.1763.08814.2644.44067-.0881.79321-.5288 1.23386-.4406.4407-.3526.9695-.5288 1.4983-.617.2644-.0881.4407 0 .617 0Zm-3.26103.3526v.3525h-.26441s.00001.0881.08814.0881h-.08814c0-.1762-.08813-.4406-.08813-.6169.08814-.0881.26441-.0881.35254-.0881.08814 0 .2644.0881.35254.0881-.17627.0881-.2644.1763-.35254.1763ZM26.9693 8.55055c-.0881-.08814-.2644-.26441-.4407-.26441.0882.08814.0882.17627.0882.26441.0881.08813.2644 0 .3525 0Zm-5.5525 6.52195c.1763.1763.4407.3526.7051.3526.0881-.0882.0881-.3526.1762-.4407-.0881-.0881-.2644-.1763-.3525-.2644 0 .1763 0 .2644.0881.4407-.1762 0-.4406-.0882-.6169-.0882ZM36.0472 2.29297v.2644c.0881-.17627.1763-.17627.2644-.17627-.0881 0-.1763 0-.2644-.08813Z"/>
		<path d="M41.6878 2.02715h-.4407s0-.08814-.0881-.08814h-.5288c-.1763.08814-.4407.17627-.617.08814v-.35254c-.4406-.08814-.6169.52881-.9694.61694-.1763.08814-.3526.08814-.4407.08814 0-.08814 0-.17627-.0882-.35254v.35254c-.3525-.17627-.7932 0-1.0576.17627l-.0881.08813c0-.08813-.0881-.17627-.0881-.35254-.1763.08814-.3526.08814-.5289.17627 0 .08814-.0881.26441-.1762.35254v-.35254c-.0882 0-.0882 0-.1763-.08813 0 .08813-.0881.17627-.1763.2644-.4406.26441-.7932.52881-1.322.44068v-.08814h.4407v-.2644c-.0881.08813-.2644.35254-.4407.08813v-.08813l.0881-.08814c-.1762.08814-.3525.17627-.4406.35254h.1762c.1763.35254-.2644.35254-.4406.26441v.08813c-.1763.08814-.4407.17627-.617.26441v-.26441l-.1762.17627s-.0882.17627-.1763.17627h.3525c-.2644 0-.5288 0-.6169.26441h-.0882v.17627c.1763-.08814.4407-.17627.617-.26441-.0881.08814-.1763.26441-.3526.44068.0882 0 .1763.08813.2645.08813.1762-.17627.3525-.35254.6169-.35254 0 .17627-.0881.35254-.1763.52881h-.3525s.0881.17627.1763.17627c-.3526 0-.5289.35254-.617.61694.0881 0 .2644.08814.3526.17627v.26441s-.0882-.08814-.1763-.08814c-.0882.08814-.0882.26441-.1763.35254-.1763-.17627-.1763-.52881-.2644-.79321h-.4407v.17627l-.1762.08813c-.0882.17627-.1763.26441-.1763.44068-.0881 0-.1763-.08814-.2644-.08814l-.1763.17627c-.3525-.2644-.7932-.2644-1.1457-.08813.0881.17627.1762.35254.0881.61694-.1763 0-.4407-.08813-.6169 0 .0881.26441.3525.35254.6169.52881h-.6169c.0881.17627.1762.26441.1762.44068-.1762-.08814-.3525-.17627-.6169-.17627-.1763 0-.0882.2644-.1763.35254.0881-.08814.2644-.08814.3525-.17627-.0881.17627-.1762.35254-.4406.35254-.0882.08813-.0882.35254-.2644.35254-.0882 0-.2644-.08814-.3526-.17627v-.17627c-.0881 0-.1762-.08814-.2644-.17627v-.44068c.0882 0 .1763-.08813.2644-.17627V6.9627c0-.08813-.0881-.17627-.0881-.2644 0 .08813-.0881.17627-.0881.2644-.1763 0-.3526 0-.5288.17627 0 .08814.0881.17627.1762.26441-.1762 0-.4407.08813-.6169.17627l.1762-.17627c-.1762.08813-.4406.17627-.6169.2644 0 0 .0881.08814.0881.17627.1763 0 .3526-.08813.5288 0l.0882.17627v.17627c0 .08814-.0882.08814-.1763.17627v.44068s-.0881 0-.1763.08813c0-.08813-.0881-.17627-.1762-.35254-.4407 0-.617.44068-.7932.70508-.2644.08814-.4407.26441-.617.44068 0 0-.0881-.08814-.0881-.17627-.0882.35253-.3526.61698-.617.79318-.1762 0-.3525-.0881-.4406-.0881-.0882 0-.1763.0881-.2644.1763 0-.0882-.0882-.1763-.0882-.2644.0882 0 .1763-.0882.3526-.17631.1762-.08814.2644-.17627.3525-.44067v-.35254c-.3525.44067-.9695.61694-1.322 1.05762-.5288.5288-1.2339.9695-1.6746 1.4983h-.3525c0 .0881-.0882.1763-.0882.2644h-.0881l-.1763.1763-.2644.1762c0-.2644 0-.6169-.1762-.8813-.0882-.1763-.2644-.1763-.4407-.2644h-.3526s.1763.0881.1763.1762c.0881.1763.1763.4407.3526.617 0 0-.0882.0881-.0882.1763-.2644-.0882-.6169-.1763-.7932.1762.0881.0882.1763.2644.3525.3526-.0881 0-.2644 0-.3525.0881.4407 0 .6169-.2644.9695-.5288 0 .1763.0881.3525.1763.4407-.0882.1762-.2644.4406-.1763.6169.0881.2644.0881.617 0 .8814 0 .0881 0 .1762-.0881.2644h.0881c0 .0881-.0881.0881-.0881.1762v.2644s-.0882.0882-.1763.0882c0 0 0 .0881.0881.0881 0 .0882-.0881.1763-.0881.2644.1763 0 .2644.0882.4407.0882.1762-.0882.3525-.1763.5288-.1763l.0881-.0881c-.0881 0-.1763-.0001-.3525.0881.0881-.1763.0881-.4407.0881-.617h.1763c0-.0881.0881-.0881.0881-.1762l.1763-.0882c.0881-.0881.1762-.1762.3525-.2644 0 .1763-.0881.4407-.0881.617h.3525c-.0881 0-.1763-.0882-.2644-.1763.3526-.1763.7051-.3525 1.1458-.3525.4406 0 .6169-.3526 1.0576-.4407 0-.0881-.0881-.1763-.1763-.1763.3526 0 .617-.0881.8814-.2644v-.5288l-.5288.2644v-.1763s-.1763 0-.1763-.0881v-.1763h.4407s-.0882-.0881-.0882-.1762c.3526-.0882.617 0 .8814.0881v.1763c.1762.0881.2644.1762.4406.2644v.4407c.2645-.3526.4407-.617.617-.9695h.3525v-.3526c-.1762.1763-.4406.2644-.6169.5288-.0881.1763-.2644.1763-.4407.2644v-.7932l.2644-.2644c-.1763 0-.3525 0-.5288-.0881.1763-.617.7932-.7051 1.2339-1.0576.4407-.1763.6169-.617 1.0576-.88138 0 0 .0882.17627.0882.26438.3525.0882.6169.1763.9694 0l-.1762-.17624c0-.08814.0881-.08814.1762-.17627 0 0 .0882.17626.1763.2644v-.17627c-.2644-.2644 0-.61694.0881-.88135.1763.17627.2644.35254.4407.44068.1763-.08814.4407-.17627.617-.17627 0-.17627 0-.35254.0881-.44068h-.3525c.0881-.08813.2644-.17627.3525-.17627 0 .08814.0881.17627.0881.26441.3526-.35254.9695-.44068 1.1458-.96949h.6169c.0882-.35254.2644-.61694.5288-.79321.1763 0 .3526.08813.4407-.08814.1763-.2644.2644-.61694.4407-.88135.1763 0 .3525 0 .5288-.08813 0-.08814-.0881-.26441-.0881-.35254.0881 0 .1762 0 .2644-.08814v.17627s.0881 0 .1762.08814v-.35254c.2644.17627.617.2644.9695.17627l.1763.17627c.0881 0 .1763-.08814.2644-.08814.1763-.2644.4407-.35254.7932-.44067l.2644-.52881c.1763 0 .3526-.08814.4407-.17627h.1763c0-.08813.0881-.17627.1762-.2644h.3526c.1762 0 .3525-.08814.4406-.08814l.0882-.17627c0-.08813-.0882-.2644-.0882-.35254v-.2644c.0882 0 .1763-.08814.2644-.08814.0882 0 .1763-.08813.2645-.08813.0881-.08814.1762-.17627.3525-.17627.3525 0 .4407.35254.6169.61694.0882-.08813.1763-.17627.1763-.2644h.3525V3.1729s-.0881-.08813-.0881-.17627h.2644c0-.61694.7051-.61694 1.1458-.61694-.1763-.08814-.1763-.17627-.1763-.35254ZM22.3863 12.2508c-.1763 0-.0882-.2644 0-.2644.1762-.0881.1762.2644 0 .2644Zm.4406-.2644h-.1762v-.1763h.2644c.0881-.0881.1762-.2644.2644-.3525 0 .2644-.1763.3525-.3526.5288Zm.5288-.9695c-.0881.0881-.1762.1763-.2644.3525-.2644.0882-.3525.3526-.6169.3526.0881-.2644.4407-.2644.6169-.3526v-.2644c.2644 0 .3526-.2644.5288-.4406h.3526c-.1763.2644-.4407.2644-.617.3525Zm12.9559-8.63721s.0881 0 0 0c.0881 0 .0881 0 0 0 0 0 .0881 0 0 0ZM12.1626 22.1219c-.2644.0881-.2644.4407-.4407.617-.1762-.0882-.2644-.2645-.2644-.4407-.1762.1762-.3525.3525-.4407.6169 0 .1763.0882.4407.2645.617.1762 0 .4406-.0882.6169-.1763-.0881-.0881-.1763-.1763-.1763-.2644-.0881 0-.1762.0881-.2644.1763.0882-.1763.0882-.4407.3526-.4407.0881 0 .1762 0 .2644.0881.1762-.0881.3525-.1762.6169-.2644-.2644-.0881-.3525-.3525-.5288-.5288Z"/>
		<path d="M20.9763 21.7693c-.0881 0-.1762 0-.2644.0881.0882-.1762.1763-.4406.1763-.7051-.1763 0-.2644.1763-.4407.3526 0-.0881 0-.1763-.0881-.2644.0881 0 .2644-.0882.4407-.0882-.1763-.2644-.4407-.1762-.7051-.1762l-.2644.2644c0 .0881.0881.1763.1763.2644-.3526-.1763-.7051-.1763-1.0577 0-.2644-.1763-.4406-.0881-.705 0-.2645 0-.617-.0881-.8814-.1763-.1763.1763-.3525.3526-.5288.4407 0-.0881.0881-.2644.0881-.3525h.2644c0-.2645.0882-.617-.0881-.8814-.0881-.3525-.5288-.3525-.7932-.3525-.0881.1762-.2644.3525-.3526.4406-.1762 0-.3525-.1762-.3525-.4406 0 .0881-.0881.1762-.1763.2644h-.4406c.2644.1762.5288.2644.705.4406-.3525 0-.705-.1762-1.1457-.1762-.0881 0-.1763 0-.2644-.0882 0-.0881.0881-.1762.0881-.2644 0-.2644 0-.6169-.1763-.8813-.0881.0881-.1762.1763-.1762.2644-.1763 0-.4407.1763-.617.2644h-.3525v-.4407c-.1763 0-.2644.0882-.4407.1763-.1763 0-.3525-.0881-.4407-.1763.0882-.0881.2644-.1762.3526-.2644-.0882 0-.1763 0-.2644-.0881.1762 0 .3525-.0882.5288-.1763h.2644s0-.1763.0881-.1763h-.5288v-.5288c-.2644.3526-.6169.7051-.6169 1.2339-.1763-.1762-.3526-.3525-.617-.5288 0 .0881-.0881.0881-.1762.1763-.0882.1763-.1763.7051.1762.6169v.1763c-.1762-.0881-.3525-.1763-.5288-.1763 0 .1763 0 .3526.1763.5288-.0881 0-.1763.0882-.2644.1763v.5288c.1763.1763.4407.3526.6169.5288-.0881 0-.1762.0882-.2644.1763 0 .1763-.0881.2644-.0881.4407h.0881c.1763-.1763.3526-.3526.617-.4407v.5288l.1762-.1763c.0882 0 .2644 0 .3526-.0881v-.1763c.0881 0 .1762-.0881.2644-.1762v.2644s.0881.0881.1763.0881v.9695c.0881.0881.1762.2644.3525.3525 0-.2644.0881-.4407.3525-.6169.0882.1762.2644.4407.617.4407-.0882-.0882-.1763-.2645-.1763-.4407l.1763-.0882c.1762.0882.4407.1763.6169.3526-.0881 0-.1762.0881-.2644.1763v.3525c-.0881-.0881-.2644-.1763-.3525-.2644 0 .0881-.0882.1763-.1763.3525.2644.2644.617.4407.7932.7051.1763 0 .3526 0 .617.0881h.3525c0 .3526.5288.3526.7051.5288-.0881.0882-.1763.1763-.2644.3526v.3525c.1762 0 .2644-.0881.3525-.1762.2644 0 .5288-.0882.7932-.0882l-.2644-.2644s.1763 0 .1763-.0881c.1763-.0881.3525-.1763.4407-.2644-.1763 0-.3526 0-.5288-.0882.0881 0 .1762-.0881.2644-.1762.1762-.0882.4406-.1763.6169-.3526 0-.0881 0-.1762-.0881-.2644.1762-.0881.3525-.2644.5288-.4406 0 .0881.0881.1762.0881.2644l.2644-.2644c.1763 0 .3526 0 .5288-.0882.617-.2644.8814-1.1457 1.5865-1.1457v-.1763c-.1763 0 0-.0881.1762-.2644Zm-9.8711-.8814c-.1762-.0881 0-.4406.1763-.3525.0881.0881-.0881.2644-.1763.3525Zm.7932 4.2305c-.1762 0-.6169.1763-.6169-.0881h-.1763c-.0881-.0881-.0881-.1763-.0881-.2644 0 .0881 0 .2644.0881.3525.3526.1763.7051.3526 1.0576.3526v-.0882c0-.0881.0882-.0881.0882-.0881l.0881-.1763c-.1763-.0881-.5288-.1763-.7932-.1763.0881.0882.2644.1763.3525.1763Zm-.1762-1.322c-.0882.2644-.1763.5288.0881.5288.1763-.0881.2644-.2644.2644-.4407h.2644c-.0881-.1762-.4407-.0881-.6169-.0881Z"/>
		<path d="M14.3662 25.2964c0-.0881-.0881-.1763-.1763-.1763-.1762.0882-.2644.1763-.3525.2644l.5288-.0881v.1763h-.5288v.3525c.3525-.0881.6169-.0881.9695-.1763v-.6169c.0881-.0881.1763-.1763.2644-.1763-.0881-.0881-.2644-.0881-.4407-.0881 0 .1762 0 .4407-.2644.5288ZM38.7793 3.70117c.1763.17627.3526.26441.4407.35254 0 .17627-.0881.26441-.0881.44068.0881-.17627.2644-.26441.4407-.35254-.1763-.26441-.4407-.44068-.7933-.44068ZM14.366 4.75879h-.9695c.1763 0 .3525.08814.5288.08814l.0881.08813c.1763.08814.3526 0 .3526-.17627l.0881.17627v.26441c.2644 0 .4407-.08814.7051-.08814-.1763-.35254-.5288-.35254-.7932-.35254Zm24.3252 0c-.3525.26441-.6169.44068-.9695.61695V5.552c.4407-.2644.9695-.5288 1.4102-.88134v-.08814h-.5288c0 .08814 0 .17627.0881.17627Zm.9695 1.67456c0 .17627 0 .35254-.0881.61695.1762-.08814.3525-.17627.4406-.35254l-.2644.08813v-.08813h.1763c.0881-.26441.4407-.2644.6169-.35254 0-.08813.0882-.17627.0882-.17627-.3526.08813-.617.17627-.9695.2644Zm-4.4068.79322-.0881.17627h.1763c.0881-.08814.1763-.17627.3525-.26441-.1762 0-.2644.08814-.4407.08814Zm-21.6811-.08814c-.1763.08814-.2645.26441-.2645.35254.1763.08814.4407 0 .617 0-.0881-.17627-.1763-.2644-.3525-.35254Zm21.8574-.17627s.1763.08814.2644.17627l.1763-.17627h-.4407Zm.2644.17627s.0882 0 0 0c.0882 0 0 0 0 0Zm-1.322.88135c-.1763.08814 0 .26441.1763.26441l.0881-.08814c0-.17627-.1763-.2644-.2644-.17627Zm1.2339 1.23389v.26441c.0881 0 .2644-.08814.4407-.08814l.2644-.2644v-.17627c-.1763.17627-.4407.2644-.617.44067 0-.08813-.0881-.17627-.0881-.17627ZM18.7727 13.2197v-.5288c-.1763.0882-.2644.0882-.3525.1763-.1763 0-.4407-.0881-.617-.1763 0 .1763.0882.3526.1763.5288l.1763-.1762.5288.2644v.1762c.0881-.0881.1762-.0881.1762-.0881-.0881 0-.0881-.1763-.0881-.1763Zm8.1084 3.3492c-.0881.0881-.0881.2644-.1762.4406-.1763 0-.2644-.0881-.3526-.0881v.2644c-.2644.0881-.4407.2644-.4407.5288h.3526c.0881-.0881.1763-.1762.1763-.2644 0-.0881-.0882-.2644 0-.3525.0881 0 .1762.1762.1762.1762l.7932-.7932c0-.0881-.1762-.1762-.1762-.1762v.2644h-.3526Zm2.9966-3.1729c-.0881-.1763-.2644-.2644-.4407-.3525-.0881.1762-.0881.2644-.0881.2644-.0881 0-.1763-.0882-.2644-.0882.0881.1763.0881.2644.0881.4407-.0881.1763-.1762.4407-.2644.617-.0881.0881-.2644.0881-.4406.0881v.0881c.0881 0 .2644.0882.1762.2644-.0881.0882-.0881.0882-.0881.1763-.0881.0881-.1763.0881-.1763.0881v.0882c.0882.0881.0882.2644.0882.3525l-.0882-.0881c-.1763.1763-.2644.4407-.4407.6169 0-.1762 0-.2644.0882-.3525.0881-.0881.0881-.2644.0881-.2644.1763-.0882.0882-.2644.0882-.4407 0-.0881.0881-.0881.0881-.0881l-.1763-.0882c0 .3526-.2644.7051-.4407.9695-.0881 0-.1762-.0881-.2644-.0881-.0881.2644-.1762.4407-.1762.7051.0881-.1763.1762-.2644.3525-.2644v.3525c.1763-.3525.5288-.5288.7932-.7932.2644-.0881.3526-.3526.3526-.617h.3525c.0881-.1762.1763-.4406 0-.6169.0881-.1763.1763-.3525.4407-.3525-.0882-.0882-.1763-.1763-.1763-.2644.0881-.1763.3525-.2645.5288-.3526Zm-16.3049 1.7627c0 .0881.0881.1763.0881.2644l-.1763.1763v.6169c.2644-.1762.5288-.3525.7051-.6169-.0881-.0881-.1763-.1763-.1763-.2644.0882 0 .1763-.0882.1763-.0882-.1763-.0881-.4407-.0881-.6169-.0881Zm1.322-.3525c-.0882 0-.1763-.0882-.1763-.0882v.4407c0-.0881-.0881-.1763-.1763-.1763-.1762.1763-.0881.4407-.1762.617-.0882.1763-.0882.2644 0 .3525.1762 0 .1762-.3525.3525-.4406h.2644c-.1763-.1763-.0881-.4407-.0881-.7051Zm10.0474 3.261c0 .0881 0 .1762-.0882.3525 0 .0881 0 .2644-.0881.3525 0 .0882.0881.1763.0881.2644.4407-.2644.3526-.705.617-.8813-.0882 0-.1763-.0881-.1763-.0881h-.3525Z"/>
	</g>
	<g fill="#EDE6F0">
		<path d="M38.2505 2.11524c-.0881 0-.2644-.08814-.3525-.08814.3525-.17627.705-.17627 1.0576-.17627h.0881c.0881 0 .1763.08814.1763.08814.1762-.26441.5288-.35254.7932-.35254v.44067c.1763.08814.4407 0 .6169-.08813V1.7627c-.1762 0-.3525-.08814-.4406-.17627.1762-.08814.4406-.17627.6169-.17627.0881-.08814.0881-.26441.1763-.35254.1762.08813.3525.08813.5288.08813.1763 0 .3525-.264401.2644-.44067l.1763.176269V.52881h.0881v.264404c.1763-.088135.4407-.17627.5288-.440675h.5288V0c-.6169.17627-1.322.264405-1.939.70508-.0881 0-.1762-.000001-.3525.088134v.264406c-.0881-.264406-.4407 0-.6169 0-.0882 0-.0882.17627-.0882.17627-.0881-.08814-.1762-.08814-.2644-.08814v.17627h-.3525c0 .08814-.0882.17627-.0882.26441-.1762 0-.2644.08813-.3525.08813l.0881-.2644h-.5288v.2644h-.0881c0-.17627 0-.35254-.0881-.44067v.44067c-.1763-.08813-.5288 0-.5288.17627h-.1763c-.0881.08814-.0882.17627-.0882.17627-.2644.08814-.0881-.2644-.0881-.35254-.0881 0-.1763.08814-.1763.08814v.2644c0 .08814-.0881.17627-.0881.17627.3526.08814.617 0 .9695-.08813Zm-.617 6.25758v.08813c.0882 0 .1763-.08813.1763-.08813h-.1763Zm6.9627-5.19996h-.3525c-.0882-.26441-.0882-.52881-.0882-.88135-.0881 0-.1762-.08814-.1762-.08814.0881.26441.0881.44068 0 .35254-.0882-.08813-.2644-.08813-.3526-.08813h-.7051v.2644h-.1762c0-.08813 0-.17627-.0882-.2644.0882 0 .2644-.08814.3526-.08814V2.0271l-.1763.08814c-.0881.08813-.2644.08813-.3525.08813.0881-.08813.1762-.17627.2644-.17627v-.17627c-.0882.17627-.2644.26441-.3526.35254 0-.35254.3526-.44067.5288-.61694-.2644-.17627-.4406-.26441-.705-.35254l-.2644.2644h-.2644c0 .08814.0881.17627.0881.26441-.0881.08813-.1763.17627-.1763.2644l.0882.08814v.2644c.2644.08814.4406.17627.705.17627h.2644c0 .08814-.0881.08814-.0881.08814h-.2644c.0881.08813.0881.2644.1763.35254h-.1763v.61694c-.0881 0-.2644-.08813-.3525-.08813-.1763.08813-.2644.17627-.4407.2644-.2644 0-.4407-.08813-.617-.08813 0 .08813-.0881.17627-.0881.17627-.1763.08813-.3525.17627-.5288.17627.1763.35254.1763.61694 0 .96948h.7932c-.3525.08814-.7051.35254-1.0576.17627v.17627c-.0881-.08813-.1763-.2644-.2644-.35254 0 .26441.1763.61695.2644.88135.1763-.08813.3525-.17627.6169-.17627h.0882c-.2644-.08814 0-.26441.0881-.08814.1763.08814.2644.08814.3525.17628.0882-.08814.1763-.08814.1763-.08814-.0881 0-.1763-.08814-.1763-.08814.1763.08814.3526-.08813.3526-.2644 0 .08814.1763.08814.1763.08814.2644-.17627.5288-.44068.8813-.44068.1763-.08813.3525-.17627.5288-.35254-.1763 0-.3525 0-.5288-.08813.3525-.17627.617-.44068.9695-.52881.1763-.08814.5288-.17627.6169-.35254h.2644c.1763-.17627.4407-.44068.7051-.52881v-.17627c-.0881.17627-.3525.17627-.5288.17627Zm-8.6372-.17627c-.0881-.08814-.2644-.17627-.3526-.17627v.2644c-.0881-.17627-.1762-.35254-.3525-.35254-.0881.17627-.0881.35254-.1763.52881v.08814h-.4406v.08813c.5288.08814.8813-.17627 1.322-.44067Z"/>
		<path d="M39.4844 5.9917v-.35254c-.0882 0-.1763.08813-.1763.08813-.0881-.08813-.1763-.17626-.1763-.2644-.0881.17627-.1762.44067-.2644.70508-.0881-.08814-.1762-.17627-.1762-.2644-.2644 0-.617.17626-.8814.35253 0 .08814.0882.26441.0882.26441.1762 0 .3525.08813.5288.08813h.2644c-.1763.17627-.3526.35254-.5288.44068.0881-.08814.1762-.26441.2644-.44068-.2644 0-.617.17627-.7933.35254-.0881.08814-.0881.17627-.0881.17627-.1763 0-.4407-.08813-.6169-.08813h-.0882c0 .08813-.0881.2644-.0881.35254l-.2644-.26441c-.1763 0-.3525.08814-.5288.08814-.1763.17627-.3526.35254-.5288.44067.1762.08814.2644.17627.3525.17627 0-.2644.2644-.17627.2644 0h.1763v-.2644c.0881.08813.2644.08813.3525.08813 0 .35254-.2644.61695-.5288.79322-.0881.08813-.1763.08813-.1763.17627 0 .08813-.1762.08813-.1762.08813-.0882.08814-.1763.17627-.1763.26441v.44067c-.0881.17627-.3525 0-.4407 0-.0881.08814-.2644.17627-.3525.17627v-.2644c-.3525.08813-.1763.52881-.3525.70507h.1762c.2644-.08813.4407-.2644.5288-.44067h.5288c0-.08813.0882-.2644.0882-.35254.0881 0 .1762-.08813.1762-.08813v.35254c.0882-.17627.4407-.26441.617-.35254v-.17627h-.2644c-.0881 0-.2644.08813-.4407.08813v-.2644c0 .08813.0881.17627.0881.17627.1763-.08814.4407-.26441.617-.44068v.17627c.0881-.2644.2644-.44067.5288-.44067 0 .17627-.0881.35254-.0881.52881h.2644l.1762-.17627h-.1762c-.0882-.35254.3525-.52881.3525-.88135h.0881c0-.17627.0882-.26441.1763-.44068.0882-.17627.2644 0 .2644.08814.1763-.17627.3526-.35254.617-.52881.1762-.08814.4406-.26441.4406-.44068h.4407c-.0881.08814-.2644.17627-.2644.26441.0881-.08814.1763-.08814.2644-.08814.0882-.17627.0882-.44067.0882-.61694.0881 0 .2644-.08813.3525-.08813-.1763-.08814-.2644-.17628-.4407-.26441 0 .17627-.0881.2644-.0881.35254Z"/>
		<path d="M37.3692 8.5478c.0881 0 .1763 0 .2644-.08813-.0881.08813-.1763.08813-.2644.08813Zm1.1457-.70508c-.0881.08814-.1762.17627-.1762.26441.0881 0 .0881-.08814.1762-.08814v-.17627Zm-.705 0c.0881 0 .0881.17627.0881.17627v-.2644h-.2644v.17627c.0881-.08814.1763-.08814.1763-.08814Zm.3525.35254s.0881-.08813.1763-.08813h-.4407c-.0881.08813-.0881.2644-.0881.2644h.2644c0-.08813.0881-.17627.0881-.17627Zm-9.166-1.85083c.4406-.26441.9695-.35254 1.322-.79322.4407 0 .7051-.2644 1.0576-.52881.1763-.17627.4407 0 .617 0 .1762-.2644.4406-.52881.705-.70508h.0882l-.1763-.17627c-.1763 0-.4407-.08813-.4407.17627-.0881 0-.2644.00001-.4406.17627.0881.08814.0881.17627.1762.26441l-.2644-.26441c-.4407.08814-.7932.52881-1.2339.70508-.4406.26441-.7932.61695-1.2339.79322-.1762 0-.2644.08813-.3525.17627.0881 0 .1763.17627.1763.17627ZM10.6643 10.9274c.0881-.0881.1763-.0881.2644-.0881v.0881c.1763-.0881.2644-.1762.4407-.1762v-.1763h.6169c.1763-.4407.2644-.79321 0-1.14575-.0881 0-.1762.08813-.2644.08813l.2644-.79321c-.0881-.08813-.1762-.08813-.2644-.17627.0882 0 .1763-.08813.2644-.08813.0882-.26441.2644-.44068.3526-.61695v-.35254c.0881-.2644.3525-.2644.5288-.2644v-.52881c-.1763-.08814-.4407-.08814-.4407-.35254h.2644v-.17627c-.0881.08813-.2644.08813-.3525.08813v-.35254c.0881-.08813.2644-.08813.3525-.08813-.0881-.08814-.0881-.17627-.0881-.17627h-.7932c0 .17627 0 .2644.0881.61694-.1763-.17627-.4407.08814-.6169.17627.0881.08814.1762.17627.1762.26441-.0881-.08814-.2644-.17627-.3525-.17627 0 .08813-.0882.08813-.0882.08813l-.0881-.17627c-.1763.08814-.4407.08814-.5288.26441v.35254c-.1763.08813-.2644.17627-.3525.2644v.17627c-.08817 0-.1763.08814-.1763.17627.08813 0 .1763.08814.2644.17627-.0881.08814-.17627.26441-.2644.35254-.08814 0-.17627-.08813-.26441-.08813v.35254c0 .08813-.08813.17627-.17627.17627-.35254-.26441-.70508-.17627-.96948 0h.44067v.5288c-.08813-.08813-.2644-.17626-.35254-.2644v.35254h.17627l.52881.52881-.2644.26441c0 .0881.08813.1763.08813.1763h.35254c0-.0882-.08813-.1763-.08813-.1763l.2644-.26441c.17627.08813.26441.17627.35254.26441l.26437-.26441c.0882.17627.1763.44071.1763.61691 0 .0882.0881.1763.1763.1763-.0882.0881-.2644.0881-.3526.0881-.26437-.0881-.44064-.1762-.61691-.2644-.2644.1763-.61694.0882-.88135 0 .08814.2644.26441.4407.44068.617-.17627.0881-.35254.0881-.52881.0881 0 .1763.08813.4407.08813.617h.44068v-.3526c.17627-.0881.2644-.1763.35254-.1763-.08814 0-.26441-.0881-.35254-.0881.08813-.0881.17627-.2644.2644-.3525.17627.0881.26441.1762.44068.2644v-.2644c.08813 0 .1763.0881.2644.0881.1763-.1763.3525-.0881.5288.0881Zm14.1016-1.41012.0881-.08813-.0881.08813Zm.6169.61692c0 .0882.0882.1763.0882.1763.1762-.1763.3525-.35254.6169-.44067.1763-.26441.3526-.70509.7932-.70509.0882 0 .1763-.08813.1763-.08813v-.2644c0-.08814.1763-.08814.1763-.08814v.17627c.0881-.08813.1762-.08813.1762-.17627V8.5478h-.1762c-.1763 0 0-.2644.0881-.2644-.1763-.08814-.3525 0-.5288 0 0-.08814-.0881-.17627-.0881-.17627.1762-.08814.4406-.17627.6169-.26441l.2644-.2644c.1763-.08814.3526-.17627.5288-.17627 0-.08814.0882-.17627.0882-.26441.1762-.17627.5288-.35254.705-.61694v-.17627c-.6169.08813-.8813.70508-1.4983.70508 0 0 0 .17627-.1762.61694-.1763.08814-.3526.26441-.5288.35254 0-.08813-.0882-.08813-.0882-.08813 0 .17627-.0881.35254-.1762.44067-.0882 0-.2644.08814-.3526.08814-.1762.2644-.5288.35253-.7051.61694 0 .08813-.2644.08813-.3525.08813 0 .08814-.0881.17628-.0881.26441.0881 0 .0881-.08813.1762-.08813.0882.2644-.1762.61694-.1762.88138l.0881.1762c-.1763.0882-.2644.0882-.3525.0882-.0882.1762-.2644.2644-.3526.3525.0882 0 .2644.0881.4407.0881.2644-.1762.5288-.4406.6169-.7932Z"/>
		<path d="M8.72535 9.78272c-.17627 0-.35253-.08813-.5288-.17627v.35254c.17627.08811.35253.17631.5288.17631v-.35258ZM3.87793 11.8098v-.6169h-.70508c.08814 0 .26441-.0882.35254-.0882-.17627-.1762-.35253-.2644-.61694-.2644.08814.1763.08813.2644.08813.3526-.17627.0881-.2644.1763-.44067.2644.08813.0881.17627.2644.17627.2644-.17627.0881-.44068 0-.61695 0-.17627.1763-.35253.2644-.61694.3525.17627.2644.52881.3526.79322.4407-.17627.0881-.52881.0881-.79322.0881-.08813.2644-.17627.4407-.35254.617.08814.0881.08814.2644.17627.3525.08814.0882.26441.1763.44068.1763-.08814.0881-.17627.2644-.17627.3525l.35254.3526h.61694c0-.3526.35254-.5288.61694-.5288.08814.1762.17627.2644.26441.3525l.2644-.2644c.08814.0881.17627.0881.26441.0881v-.1762c-.17627-.1763-.44068-.3526-.61695-.5288l.35254-.3526c.17627.2644.35254.7051.70508.8814-.17627.0881-.2644.2644-.35254.4406.17627-.0881.44068-.1762.61695-.1762-.08814-.1763-.08814-.2644-.08814-.3526-.35254-.0881-.35254-.4406-.35254-.7051-.17627-.0881-.44067-.1762-.52881-.3525h.79322c.08813-.0881.17627-.1763.17627-.2644l.17627.1763c-.08814-.0882-.08814-.1763-.08814-.2644l.17627-.1763c-.35254-.1763-.88135-.0881-1.05762-.4407Zm2.20338-.6169h-.35254c-.08814-.0882-.17627-.1763-.17627-.2644-.08814.2644 0 .5288.17627.5288v.3525c.17627.1763.35254 0 .44067 0v-.2644h.26441c-.26441 0-.44068 0-.61695-.0881l.26441-.2644ZM35.4302 6.78614c0-.17627-.0881-.17628-.0881-.26441v-.44068h.0881l-.1762-.17626c-.3526.08813-.617 0-.9695-.17627v.35253s-.0882 0-.1763-.08813v-.17627c-.0881 0-.1763 0-.2644.08814 0 .08813.0881.2644.0881.35254-.1762 0-.3525 0-.5288.08813-.1762.26441-.3525.61695-.4406.88135-.0882.17627-.3526.08813-.4407.08813-.2644.17627-.4407.44068-.5288.79322h-.617c-.1762.52881-.7932.61694-1.1457.96948 0-.08813-.0882-.17627-.0882-.2644-.0881.08813-.2644.17627-.3525.17627h.3525c0 .17627 0 .35254-.0881.44067-.2644 0-.4407.08814-.6169.17627l-.4407-.44067c-.0881.2644-.3526.61694-.0881.88132v.1763s-.0882-.1763-.1763-.26441c0 .08811-.0882.08811-.1763.17631l.1763.1762c-.2644.1763-.617.1763-.9695 0 0 0-.0881-.1762-.0881-.2644-.4407.2644-.617.617-1.0577.8814-.4406.2644-1.1457.4407-1.2338 1.0576.1762 0 .3525 0 .5288.0881l-.2644.2644v.7932c.1762 0 .3525-.0881.4406-.2644.0882-.2644.3526-.4406.617-.5288v.3526h-.3526c-.1762.3525-.4406.6169-.6169.9695V13.22c-.1763-.0882-.2644-.1763-.4407-.2644v-.1763c-.2644-.1763-.6169-.1763-.8813-.0881 0 0 .0881.0881.0881.1762h-.4407v.1763s.1763 0 .1763.0881v.1763l.5288-.2644v.5288c-.2644.0882-.6169.1763-.8813.2644 0 .0882.0881.1763.1762.1763-.4406 0-.705.3525-1.0576.4407-.4407.0881-.7051.2644-1.1457.3525.0881 0 .1762.0881.2644.1763h-.3526c0-.1763.0882-.4407.0882-.617-.0882.0882-.1763.1763-.3526.2644l-.1763.0882c0 .0881-.0881.0881-.0881.1762h-.1763c0 .1763 0 .4407-.0881.617.0881 0 .1763 0 .3525-.0881l-.0881.0881c-.1763 0-.3525.0881-.5288.1763-.1763 0-.2644-.0882-.4407-.0882 0-.0881.0882-.1762.0882-.2644-.0882.0882-.0882.0882-.0882 0 0 0 .0882-.0881.1763-.0881v-.2644c0-.0882.0881-.0882.0881-.1763h-.0881v-.1763s0-.0881.0881-.0881c0-.1763 0-.3525-.0881-.5288-.0881-.2644.0881-.4407.1763-.6169 0-.1763-.0882-.3526-.1763-.4407-.2644.0881-.4407.2644-.6169.4407-.0882-.0882-.1763-.2645-.3526-.3526.1763-.2644.5288-.2644.7932-.1763 0 0 .0882-.0881.0882-.1762-.1763-.1763-.2644-.3526-.3526-.617 0 0-.0881-.0881-.1762-.0881-.4407 0-.7933.1763-1.2339.2644-.1763 0-.3526.0881-.5288.1763v.1762c-.4407.0882-.617.5288-1.0577.7051-.2644.1763-.6169.1763-.8813.4407.0881.0881.1763.1763.3525.2644l-1.0576.2644c.0881 0 .1763.0881.2644.1763v.2644c-.1763-.0882-.3525-.1763-.6169-.3526 0-.1762-.0882-.4406 0-.6169-.1763-.0881-.5288-.0881-.617.0881-.1762.3526-.5288.5288-.8813.617v-.4407c-.0882.1763-.1763.2644-.2644.4407-.0882.4406-.4407.8813-.5288 1.322-.2644.6169-.617 1.2339-.7933 1.8508-.1762.3526-.0881.7051-.3525 1.0576-.0881.1763.0881.3526.0881.5289h-.2644v.3525c0-.0881.0882-.1763.1763-.1763l.5288.5288c0-.4406.3526-.7932.617-1.2339v.5289h.5288s0 .1762-.0882.1762h-.2644c-.1762 0-.3525.0882-.5288.1763.0882 0 .1763 0 .2644.0881-.0881.0882-.2644.1763-.3525.2644.1763 0 .3525.0882.4407.1763.1762 0 .2644-.0881.4406-.1763v.4407h.3526c.1762-.0881.4406-.2644.6169-.2644.0882-.0881.1763-.1763.1763-.2644.1763.2644.1763.6169.1763.8814 0 .0881-.0882.1762-.0882.2644 0 0 .1763 0 .2644.0881.3526 0 .7051.2644 1.1458.1763-.2644-.1763-.5288-.2644-.7051-.4407h.4407c0-.0882.0881-.1763.1762-.2644 0 .1763.0882.4407.3526.4407.0881-.1763.2644-.3526.3525-.4407.2644 0 .7051 0 .7932.3525.1763.2644.0882.617.0882.8814l.2644-.2644c.2644 0 .6169.1762.8813.1762.2644-.0881.4407-.1762.7051 0 .3526-.1762.7051-.2644 1.0576 0 0-.0881-.0881-.1762-.1762-.2644l.2644-.2644c.2644 0 .5288 0 .705.1763-.0881 0-.2644.0881-.4406.0881 0 .0882 0 .1763.0881.2644.0881-.0881.2644-.2644.4407-.3525 0 .2644 0 .5288-.1763.7051.0881 0 .1763 0 .2644-.0882-.0881.0882-.2644.1763-.3525.3526v.1762c-.7051 0-.9695.8814-1.5865 1.1458-.1762 0-.3525 0-.5288.0881l-.2644.2644c0-.0881-.0881-.1762-.0881-.2644-.1763.1763-.3525.3526-.5288.4407 0 .0881 0 .1763.0881.2644.4407-.2644.7932-.5288 1.2339-.6169 0 .0881-.0881.0881-.1763.1762-.3525.3526-.9694.5289-1.4101.7933-.0882.0881-.2644 0-.3526 0-.0881 0-.1762.0881-.2644.1762.1763 0 .3526.0882.5288.0882.0882 0 .1763 0 .3526-.0882.1763-.0881.3525-.1762.6169-.2644.1763-.0881.3526-.0881.4407-.0881.2644-.2644.5288-.4407.7932-.617v-.2644c.4407-.0881.617-.4406.9695-.6169.2644-.2644.6169-.4407.7051-.8814.1763-.0881.3525-.1762.5288-.4406.1763-.2644.6169-.3526.7932-.7051.2644 0 .5288-.1763.617-.3525 0-.0882-.0882-.1763-.0882-.2645.1763-.1762.3526-.4406.617-.5288 0 0 .0881 0 .1762-.0881v-.3525c.1763-.0882.4407-.1763.617-.2644.1762-.1763.3525-.4407.5288-.617v-.3525h.3525s.0882.0881.1763.0881v-.2644c.0881 0 .1763-.0881.3525-.1763h-.0881c0-.2644.1763-.4406.4407-.5288v-.2644c.0881 0 .1762.0882.3525.0882.0881-.1763.0881-.3526.1763-.4407h.3525c0-.3526 0-.617.1763-.9695.0881 0 .1763.0881.2644.0881.1763-.2644.4407-.6169.4407-.9695l.1762.0882v.0881s.0882 0 .1763-.0881c0-.0882 0-.0882.0881-.1763-.0881 0-.1762 0-.2644-.0881v-.2644c.1763 0 .3526 0 .4407-.0882.0881-.1762.1763-.4406.2644-.6169 0-.1763 0-.3525-.0881-.4407.0881 0 .1763 0 .2644.0882 0-.1763.0881-.2645.0881-.4407.1763.0881.3526.1762.4407.3525 0 0 .0881.1763.1763.1763v-.0881s-.0882-.0882-.0882-.1763c.1763-.0882.3526-.2644.5288-.4407.0882-.1763-.0881-.4407.0882-.6169.2644-.1763.6169-.4407.7932-.7051h.2644c.0881-.1763.1763-.3526.4407-.4407 0-.0881-.3526-.2644 0-.2644v-.2644c0-.0881.1762-.0881.1762-.0881l-.1762.1762c0 .0882 0 .3526.1762.3526.2644 0 .1763-.1763.1763-.3526 0 0 .0881.1763.1763.1763 0-.0881 0-.2644.0881-.3525.3526.0881.5288-.2644.7051-.44071.0881-.17627.3525-.17627.4407-.2644h-.1763s0-.17627.0881-.17627c-.0881 0-.1762-.08814-.2644-.08814v.26441h-.2644c-.2644.17627-.4406.44071-.6169.79321-.1763-.0881 0-.2644 0-.4407v-.26438c.0881 0 .1763-.08813.2644-.08813l.2644-.52881h.2644l.2644-.26441v.17627h.2644c0-.17627 0-.35254.0881-.52881 0 0 .1763 0 .2644-.08813-.5288-.17627-.7932.35254-1.2338.52881.1762-.26441.4406-.61695.705-.79322v-.61694c.1763 0 .3526-.08814.617-.08814l.0881-.08813c.1763-.17627.3526-.44067.5288-.61694h.5288ZM21.2405 15.3352c.1763 0 .4407 0 .617.0882-.0882-.1763-.0882-.2644-.0882-.4407.0882.0881.2644.1763.3526.2644 0 .1763 0 .3525-.1763.4407-.2644 0-.5288-.1763-.7051-.3526Zm-.3525 3.6136s-.0882 0-.0882-.0882c-.0881 0-.1762 0-.1762.0882l-.0882-.0882h.3526v.0882Zm.7051.1762c-.0882-.2644-.1763-.2644-.2645-.2644v.1763h-.3525l.2644-.2644h-.0881c.0881 0 .2644-.0882.3525-.1763 0 .0881.0882.1763.1763.2644 0 .0882-.0881.1763-.0881.2644Zm1.5864-1.322c0-.0881 0-.1763-.0882-.1763 0 0-.0881 0-.0881.0882l-.1763-.1763v.3525c.0882.0882.2644.1763.3526.2644-.1763 0-.3526.0882-.617.1763 0 .0881.0882.1763.1763.2644-.1763.1763-.3525.3526-.4407.5288-.0881-.0881-.1762-.1762-.2644-.1762 0 .1762 0 .2644.0882.4406-.0882-.0881-.1763-.1762-.2644-.3525 0 0 .0881-.0881.0881-.1763 0-.0881-.0881-.1763-.1763-.2644h.2644v-.1763h.3526c0-.1762 0-.4406-.0882-.6169-.1762-.1763-.4406-.3525-.6169-.5288-.0881 0-.1763.0881-.1763.1763-.1763-.0882-.2644-.0882-.4407-.1763v-.2644c-.1762.0881-.3525.1763-.5288.3525v.2644c.2644-.0881.617 0 .8814.0882l.0881.1762c.0882 0 .1763 0 .2644.0882v.2644c-.0881 0-.1762.0881-.2644.0881v-.1763c-.3525.1763-.7051.5288-1.1457.5288-.0882-.0881-.2644-.0881-.3526 0-.0881.0882-.1762.3526-.1762.4407h-.1763c-.0881.1763-.2644.3526-.4407.4407-.0881 0-.2644-.0881-.4407-.0881 0-.2644-.0881-.617-.4406-.617.0881-.1763.2644-.3525.3525-.5288-.2644.0881-.5288.1763-.6169.4407-.1763 0-.4407.0881-.617.1763 0-.1763.0881-.3526.3525-.3526 0-.0881-.0881-.1763-.1762-.2644h.3525c.0882-.0881.1763-.1763.3526-.2644 0 .0881 0 .1763.0881.2644.1763-.1763.3525-.2644.6169-.3525-.1762-.1763-.3525-.0882-.6169-.0882.0881-.0881.1763-.1762.1763-.2644v-.1762l-.0882.0881c-.0881 0-.1762-.0881-.3525-.0881v-.2644c.1763 0 .2644-.0882.4407-.0882-.2644-.0881-.617-.0881-.8814-.0881.0882.1763.0882.3525.1763.5288l-.2644.2644c-.2644 0-.617-.2644-.7051-.5288.0881 0 .1763-.0881.3525-.1763-.1762-.0881-.2644-.1762-.4406-.2644l.1762-.0881s.0882 0 .1763.0881l.2644-.2644H17.01c.0882-.2644.3526-.2644.617-.2644 0 .2644 0 .6169.2644.7051.2644 0 .1763-.3526.2644-.5288 0 .0881.0881.1762.0881.2644.0882-.0882.2644-.1763.3526-.2644l-.617-.617v-.1762c.0882 0 .0882.0881.1763.0881v-.1763c.1763 0 .3525-.0881.3525-.2644-.1762-.0881-.3525-.0881-.4406-.0881.2644 0 .5288 0 .6169-.1763-.0881 0-.2644 0-.3525-.0881h.0881c.1763.0881.4407.0881.6169.1763.1763 0 .3526-.0882.5288-.1763v.3525c.1763 0 .3526-.0881.4407-.0881l-.1762-.1763h.2644v-.3525c.0881 0 .0881.0881.1762.0881-.0881.2644-.1762.4407-.4406.7051.0881.1763.2644.3525.3525.5288.3525.1763.7051.4407 1.0576.7051v.2644c.3526-.1763.617-.5288 1.0576-.617l.1763.1763s.0881 0 .0881-.0881c.1763.1762.3526.2644.5288.4407 0 0 0 .0881-.0881.0881.0881.0881.2644.1763.3526.3525.0881.1763-.0882.2644-.1763.4407Z"/>
		<path d="M17.0982 21.9471c.0881 0 .1762-.0882.2644-.1763h-.2644v.1763Zm-2.0271-11.105v-.2645c.0881-.1762.2644-.2644.4406-.3525-.0881-.1763-.2644-.2644-.3525-.44067.1763-.2644.2644-.52881.2644-.88135.1763-.08813.2644-.08813.3525-.08813 0-.08814.0882-.17627.0882-.17627-.1763-.08814-.2644-.08814-.3526-.08814-.0881-.35254-.2644-.61694-.2644-.96948-.0881 0-.1762-.08814-.1762-.17627.0881-.26441.2644-.52881.3525-.79322-.0881 0-.1763-.08813-.1763-.08813.0882-.26441-.2644-.52881-.3525-.79321 0-.17627 0-.44068.2644-.44068.1763 0 .1763.35254.2644.44068v-.35254l.5288.2644-.2644.26441c.0881-.08814.2644-.17627.4407-.17627-.0882.17627-.0882.35254-.0882.44067.1763.08814.4407.08814.617.08814-.1763-.08814-.3526-.17628-.5288-.17628.1762 0 .4406-.08813.6169-.17626-.1763-.17627-.2644-.35254-.4407-.35254-.4406-.17627-.7932-.44068-1.2338-.44068-.2645 0-.4407.08814-.7933.17627v.26441c.0882 0 .2644.08813.3526.08813 0 .44067.1762.88135.4407 1.23389-.1763.17627-.3526.2644-.5289.35254.1763.17627.3526.35254.5289.61694-.0882.26441-.0882.61695 0 .88135.1762.26441.0881.61695 0 .88135-.0882.08814-.2645.08814-.4407.08814.0881.08813.0881.17627.1763.2644l-.2645.5288.0882.0881c-.1763.1763-.2644.4407-.3526.617h-.1762v.3525c.1762-.1762.4406-.2644.6169-.2644.0881-.1762.2644-.3525.3526-.4406Zm14.1897-3.43731c-.2644-.08814-.4407.2644-.4407.44067.1763 0 .6169-.17627.4407-.44067Zm-.7051.17627c-.0881.08813-.0881.2644-.1763.44067.1763 0 .2644-.08813.4407-.08813v-.35254h-.2644ZM10.488 22.1233c0-.0881-.0881-.1762-.0881-.2644-.2644.4407-.0881.9695-.2644 1.322l.2644.7933c.1763-.4407-.1763-.7933 0-1.2339 0-.2644.1763-.4407.0881-.617Zm1.939-.3525c-.0881.0881-.1763.1763-.2644.1763 0 0 0 .0881-.0881.0881-.0882.0881-.2644.0881-.3526.0881l-.1762.1763v-.5288c-.2644.0881-.4407.2644-.617.4407h-.0881c0 .1762-.0882.3525.0881.4406h-.2644c.0881.4407.2644.7932.4407 1.2339-.0882 0-.1763-.0881-.2644-.0881 0 .2644.2644.4407.5288.4407-.0881-.0882-.1763-.1763-.1763-.2644h.4407c-.1763-.0882-.3525-.2645-.4407-.3526-.1763-.1763-.2644-.4407-.2644-.6169 0-.2644.2644-.4407.4407-.617.0881.1763.0881.3526.2644.4407.1763-.1763.1763-.5288.4407-.6169.1762.1762.2644.4406.5288.5288v-.617c-.0882 0-.1763-.0881-.1763-.0881v-.2644Zm.3525-.7051c-.0881-.0881-.1762-.1763-.2644-.1763.1763-.0881.3526-.1762.4407-.3525 0-.0881-.0881-.2644-.0881-.3525h-.2644c0 .1762.0881.2644.2644.4406-.1763 0-.4407 0-.617.0882.0882.0881.2644.0881.2644.0881 0 .0881-.0881.1763-.0881.2644.1763.0881.4407.1763.617.1763-.0882 0-.1763.0881-.2645.0881h.2645c.0881 0 .0881-.2644.0881-.3525-.0881-.0882-.1763-.0882-.1763-.0882-.0881.0882-.0881.1763-.1763.1763Z"/>
	</g>
	<g fill="#EAE3ED">
		<path d="M40.8067 1.93799h.3525c0-.17627.0881-.35254.1763-.44067h-.4407c.2644-.08814.4407-.17627.6169-.35254-.1762-.08814-.3525-.08814-.5288-.08814-.0881.17627-.1762.26441-.1762.44068-.1763.08813-.4407.08813-.617.17626.1763.08814.2644.17628.4407.17628l.1763.08813Zm-3.5254.70508c.2644-.17627.705-.35254 1.0576-.17627v-.35254c.0881.17627.0881.2644.0881.35254.0881-.08814.2644-.08813.4407-.17627 0-.08813-.0881-.17627-.1763-.2644l.1763-.17627c-.4407 0-.7051 0-1.0576.17627.0881.08813.1762.08813.2644.08813-.2644.08813-.5288.08813-.7932.08813h-.3526v-.2644c-.0881.08813-.2644.17627-.3525.2644v.35254c.1762-.08813.4407-.17626.7051-.2644v.35254Zm5.4643.61694h.1763v-.08813h-.1763v.08813Zm-7.844 4.58302c0 .08813-.0881.08813 0 0-.2644.35254-.4407.61695-.7051.70508v.17627c-.2644.17627-.5288.52881-.705.79321.0881 0 .0881-.08813.1762-.08813v.08813h-.2644c.0882 0 .1763.08814.2644.08814.0882 0 .1763.17627.1763.17627.1763 0 .3525-.17627.5288-.17627.1763-.17627.2644-.35254.4407-.52881h.3525c.1763-.17627.3526-.52881.7051-.44068v.26441c.2644-.17627.5288-.44067.5288-.79321-.0881-.08814-.2644-.08814-.3525-.08814v.2644h-.4407c-.1763-.08813-.1763-.08813-.2644-.17626l.3525-.35255h-.1762l.1762-.17626h-.0881c.0881-.17627.0881-.26441.1763-.35254h-.3526c-.1762.17627-.3525.44067-.5288.61694Zm-.9695 1.7627v-.26441h-.1762c.2644-.17627.5288-.44067.7932-.35254-.0882.08814-.1763.26441-.2644.35254 0 .26441-.1763.26441-.3526.26441Zm1.2339-1.14576c-.0881.08814-.1763.08814-.2644.17627-.1763 0-.2644-.17627-.1763-.2644.0882-.08814.2644.08814.2644.17627.0882-.08813.0882-.17627.1763-.26441v.17627Zm5.2881-4.23047s.0881-.08814 0 0c.0881-.08814 0-.08814 0 0ZM35.783 7.22609h.0881s-.0881 0-.0881-.08814v.08814Z"/>
		<path d="M41.1589 3.61304c.2644 0 .4407-.26441.617-.26441-.1763.17627-.4407.35254-.7932.35254v.26441h-.3526c0 .08813-.0881.08813-.0881.17627 0 .2644-.1763.35254-.3525.44067v.26441c-.0882-.08814-.1763-.08814-.2644-.08814-.1763.08814-.2645.17627-.3526.26441-.0881 0-.1763.08813-.1763.08813v.17627c-.3525.35254-.7932.52881-1.1457.88135l-.0881-.17627v.52881h-.4407c0-.08813.0881-.2644.0881-.44067-.2644.35254-.6169.52881-.9695.88135-.2644.2644-.6169.5288-.8813.79321.1763 0 .3525-.08813.5288-.08813l.2644.2644c0-.08814.0881-.2644.0881-.35254h-.2644c.2644-.35254.4407-.70508.7932-.96948.1763.08813.2644.17627.3526.17627-.1763.35254-.5288.52881-.7932.79321.1762 0 .4406.08814.6169.08814.0881 0 .0881-.17627.0881-.17627.1763-.26441.4407-.35254.7933-.35254-.1763 0-.3526-.08814-.5288-.08814 0-.08813-.0882-.2644-.0882-.2644.2644-.17627.5288-.35254.8814-.35254.0881.08813.1762.17627.1762.2644.0882-.17627.1763-.44067.2644-.70508.0882.08814.0882.17627.1763.26441.0881 0 .1763-.08814.1763-.08814v.35254c0-.17627.0881-.2644.0881-.35254.1763.08814.2644.17627.4407.26441-.1763-.26441-.2644-.52881-.2644-.88135.0881.08813.1763.2644.2644.35254v-.17627c.3525.17627.7051-.08814 1.0576-.17627-.2644-.08814-.5288 0-.7932 0 .1763-.35254.1763-.61695 0-.96949.1763-.08813.3525-.17627.5288-.17627 0-.08813.0881-.17627.0881-.17627.2644 0 .4407.08814.617.08814.1763-.08814.2644-.17627.4407-.26441.0881 0 .2644.08814.3525.08814V3.5249h.1763c-.0882-.08813-.0882-.2644-.1763-.35254h.2644v-.08813c-.0881 0-.1763-.08814-.2644-.08814-.4407 0-1.1458 0-1.1458.61695Z"/>
		<path d="M42.5693 3.08325h.0882c0-.08813-.0882-.17627-.0882-.17627.0882 0 0 .08814 0 .17627Zm.3526-.08813v.17627h.0881c.2644 0 .4407-.08814.617-.17627-.2644 0-.4407.08813-.7051 0Zm2.644-.35254c-.1762-.08814-.4406-.17627-.705-.26441l-.2644.26441c0-.08814-.0882-.26441-.0882-.26441-.0881.08814-.1763.08814-.2644.08814v-.44067c-.1763 0-.3525.08813-.5288 0-.0881.17627-.2644.2644-.4407.2644h-.0881V1.9375h-.2644s0 .17627.5288.79321l.1763-.08813v.35254c.0881.08813.2644.08813.3525.08813v-.61694c.0881 0 .1763.08813.1763.08813 0 .26441 0 .52881.0881.88135h.3526c-.0882-.08813-.0882-.2644-.0882-.35254.3526-.17627.7051-.35254 1.0576-.44067Zm-6.6101 2.0271-.0881.17627c-.0882 0-.2644.08814-.4407.08814v.35254l.5288-.26441v-.2644h.5288v.08813c0-.08813.0882-.08813.0882-.08813.0881-.17627.0881-.26441.0881-.44068-.0881-.08813-.2644-.17627-.3525-.2644-.1763.08813-.3526.17627-.4407.2644 0 .08814.0881.26441.0881.35254Zm-.6169.35254h-.2644v.26441c-.1763.08813-.2644.2644-.2644.35254-.0882 0-.1763.08813-.2644.08813 0-.08813.0881-.2644.1762-.35254-.0881.08814-.2644.17627-.4406.17627.0881.08814.0881.26441.0881.35254-.0881.08814-.2644.17627-.4407.26441-.2644.17627-.3525.5288-.7051.70507v-.35253c-.0881 0-.1762.08813-.2644.08813h-.0881c.0881.08814.1763.26441.2644.35254-.1763.08813-.2644.08814-.3525.08814.0881 0 .1762.08813.1762.17627h-.0881c.1763.08813.3525 0 .4407-.17627h.3525c.1763-.26441.4407-.44068.617-.61695.1762-.17627.5288-.35254.705-.61694v-.17627c.1763-.08814.2644-.17627.4407-.26441 0 0-.0881-.08813-.1763-.08813 0-.08814.0882-.17627.0882-.26441Zm1.4983-1.41016c-.1763 0-.2644.08814-.3526.17627-.0881 0-.1762.08814-.2644.08814v.08813c.2644 0 .5288.17627.7051.44068.1763-.08814.3525-.17627.5288-.17627-.1763-.26441-.2644-.61695-.6169-.61695Z"/>
		<path d="M39.3084 4.05493V3.9668h-.0881s0 .08813.0881.08813ZM16.4814 13.926c-.1762-.0881-.2644-.1762-.3525-.2644.2644-.2644.617-.2644.8814-.4406.4406-.1763.6169-.617 1.0576-.7051v-.1763c.1763-.0881.3525-.1763.5288-.1763.4407-.0881.7932-.2644 1.2339-.2644l.0881-.0881h.2644c.1763.0881.3526.1763.4407.2644 0-.2644-.0881-.4407-.1763-.6169-.2644.0881-.5288.0881-.7932.0881.0881-.0881.1763-.1763.1763-.2644-.1763-.0881-.3526-.3525-.3526-.5288h-.2644c.0882-.1763.1763-.3526.1763-.5288-.1763-.0882-.3525-.1763-.4407-.1763v-.2644h-.2644v-.17627h.1763c0-.08813.0881-.17627.0881-.2644.0882 0 .3526-.08814.4407-.17627h-.3525v-.17627c.0881 0 .1762-.08814.2644-.08814-.0882-.08813-.2644-.08813-.2644-.08813v-.26441c-.0882-.17627-.2644-.35254-.2644-.52881h.2644c0-.17627-.0882-.44067-.2644-.52881.0881-.08813 0-.2644 0-.44067-.1763-.08814-.2644-.26441-.3526-.35254.0882.2644.1763.44067.2644.61694v1.05762c-.2644-.35254-.6169-.70508-.7051-1.14575h-.2644c-.0881-.08814-.1762-.17627-.1762-.26441v.17627c-.1763-.17627-.3526-.35254-.2644-.52881-.1763-.35254-.5288-.5288-.7933-.79321-.1762 0-.4406.08813-.6169.17627.1763 0 .3525.08813.5288.17627-.2644.08813-.4407 0-.6169-.08814.0881-.17627.0881-.35254.0881-.44067-.0881.08813-.2644.17627-.4407.17627l.2644-.26441-.5288-.2644v.35254c-.0881-.17627-.0881-.44067-.2644-.44067-.2644-.08814-.2644.2644-.2644.44067.0882.2644.4407.52881.9695 1.14576.0881 0 .1763.08813.1763.08813-.0882.2644-.2644.52881-.3526.79321.0882 0 .1763.08814.1763.17627.0881.35254.1763.61695.2644.96949.1763.08813.2644.08813.3525.08813 0 .08814-.0881.17627-.0881.17627-.1763.08814-.2644.08814-.3525.08814 0 .35254-.0882.61694-.2644.88134.0881.1763.2644.2644.3525.4407-.0881.1763-.2644.2644-.4407.3525v.2644c-.0881.1763-.2644.3526-.3525.4407-.2644.0881-.4407.0881-.617.2644-.1762.2644-.2644.5288-.3525.7932-.1763.3526-.4407.7932-.4407 1.2339l-.0881.0881v.4407c.3525-.0881.7051-.2644.8813-.6169.0882-.2644.4407-.1763.617-.0882-.0881.1763 0 .4407 0 .617.1763.1763.4407.2644.6169.3525v-.2644c-.0881-.0881-.1762-.1763-.2644-.1763l1.0576-.2644Zm18.7728-4.05416v-.44068c0 .08814-.0881.17627-.0881.17627s-.0882 0-.2645.08814l-.0881.17627c.1763 0 .3526.17626.4407 0Zm-11.3694 0c-.3526-.08814-.3526.44066-.7051.61696-.2644.1763-.6169.2644-.7932.6169-.3525.2644-.617.617-.9695.8814-.0881.0881-.1763.0881-.1763.0881-.2644.0881-.5288.2644-.4406.617l.1762-.1763h.0882c.0881-.0882.0881-.1763.0881-.2644h.3525c.4407-.5288 1.1458-.9695 1.6746-1.4983.3525-.4407.9695-.617 1.322-1.05763v.17627c.0882-.17627.0882-.35254.0882-.44068v-.08813c-.3526-.08814-.5288.2644-.7051.52881Z"/>
		<path d="M19.4779 9.78223c.1763 0 0-.35254-.1762-.35254-.0882.17627 0 .2644.1762.35254Zm15.9525.26437c-.1763 0-.3526 0-.5289.0882-.1762.1762-.3525.3525-.5288.4406h-.1762c-.0882-.0881-.0882-.2644-.0882-.2644 0 .0882-.0881.0882-.0881.0882.1763.4406-.3525.705-.6169.8813-.0882-.0881-.0882-.2644-.1763-.2644-.0882.1763-.0882.2644-.0882.3526-.3525.1762-.7932.3525-.7932.7932-.1762 0-.3525.0881-.5288.1762.0882.2644-.2644.4407-.3525.7051.7932-.4407 1.4101-1.2339 2.2034-1.6745.6169-.4407 1.1457-1.0577 1.8508-1.2339 0-.1763.0881-.26444 0-.44071 0 .08814-.0881.26441-.0881.35251Zm-15.5999 5.2881-.0882.0882h.1763l-.0881-.0882Zm-.0882-.0881c.0882.0881.1763 0 .1763 0h-.1763Z"/>
		<path d="m22.915 16.9214.0882-.0881c-.1763-.1763-.3526-.2644-.5288-.4407 0 .0881-.0882.0881-.0882.0881l-.1762-.1763c-.4407.0882-.617.4407-1.0576.617v-.2644c-.3526-.2644-.7051-.5288-1.0577-.7051-.0881-.1763-.2644-.3525-.3525-.5288-.0881 0-.1763.0881-.2644.0881v-.3525c-.1763.0881-.3526.1763-.5288.1763-.1763-.0882-.4407-.1763-.617-.1763h-.0881c.0881.0881.2644.0881.3525.0881-.0881.1763-.4406.1763-.6169.1763 0 .1763-.0881.4407-.0881.6169.2644.1763.4406.4407.6169.617-.0881.0881-.2644.1763-.3525.2644 0-.0881-.0882-.1763-.0882-.2644-.0881.1763 0 .5288-.2644.5288-.2644-.0881-.2644-.4407-.2644-.7051-.2644 0-.5288 0-.6169.2644h.4406l-.2644.2644c-.0881-.0881-.1762-.0881-.1762-.0881 0 .0881-.1763.0881-.1763.0881.1763.0882.2644.1763.4407.2644-.1763.0882-.2644.1763-.3526.1763.0882.2644.3526.5288.7051.5288l.2644-.2644c-.0881-.1763-.1762-.3525-.1762-.5288.2644 0 .6169 0 .8813.0881-.1763 0-.2644.0882-.4407.0882v.2644c.1763 0 .2644 0 .3526.0881l.0881-.0881v.1762c0 .0882-.0881.1763-.1763.2644.2644 0 .4407-.0881.617.0882-.2644.0881-.4407.1762-.617.3525 0-.0881-.0881-.1763-.0881-.2644-.1763.0881-.2644.1763-.3525.2644h-.3526c.0882.0882.1763.1763.1763.2644-.2644 0-.3526.1763-.3526.3526.1763-.0882.4407-.1763.617-.1763.0881-.2644.3525-.3525.6169-.4407-.0881.1763-.1762.3526-.3525.5288.3525 0 .4407.3526.4407.617.1762 0 .3525.0881.4406.0881.1763-.0881.3526-.2644.4407-.4407h.1763c0-.0881.0881-.3525.1763-.4406.1762-.1763.4406.0881.6169.2644 0-.0882.0881-.0882.1763-.0882 0 .0882.0881.0882.0881.0882v-.2644c.0881.0881.2644.0881.3526.0881l-.2645.2644h.3526v-.1763h.2644c0-.0881.0881-.1762.0881-.2644 0-.0881-.0881-.1762-.1762-.2644-.3526.2644-.7933.2644-1.2339.2644 0-.0881.0881-.1762.0881-.1762.5288 0 .7932-.3526 1.1458-.5289v.1763c.0881 0 .1762-.0881.2644-.0881v-.2644c-.0882 0-.2644-.0882-.2644-.0882 0-.0881-.0882-.1762-.0882-.1762-.2644-.0882-.5288-.1763-.8813-.0882v-.2644c.1762-.1762.3525-.2644.5288-.3525v.2644c.1763.0881.3525.0881.4407.1763 0-.0882.0881-.1763.1762-.1763.1763.1763.4407.3525.617.5288.0881.1763.0881.4407.0881.6169h-.3525v.1763h-.2644c.0881.0882.1762.1763.1762.2644 0 .0882-.0881.1763-.0881.1763.0881.1763.1763.2644.2644.3525-.0881-.1762-.0881-.2644-.0881-.4406.0881.0881.1762.0881.2644.1762.0881-.1762.2644-.3525.4406-.5288-.0881-.0881-.1762-.1763-.1762-.2644.2644-.0881.4406-.1763.6169-.1763-.0881-.0881-.2644-.1762-.3525-.2644v-.3525c.0881 0 .1762.1763.1762.1763l.0882-.0882c.0881 0 .0881.0882.0881.1763.0882-.1763.2644-.2644.1763-.4407-.0881-.1762-.2644-.2644-.3526-.3525Zm-2.9084-1.8508c0 .0881-.0881.0881-.0881.1762h.0881v-.1762Zm.4407-.617v-.1763c0 .0882-.0882.1763-.1763.1763 0-.0881-.0881-.1763-.1763-.1763 0 .0882 0 .2644-.0881.7933.0881-.1763.1763-.3526.1763-.5289.0881 0 .2644-.0881.2644-.0881Z"/>
	</g>
</svg>