<svg xmlns="http://www.w3.org/2000/svg" viewBox="0 0 140 32">
	<path fill="url(#a)" d="M.0876465 16.7027C.175092 19.326 1.04955 21.9494 2.53612 24.223c1.31168-1.1368 6.90818-1.9238 13.46658-1.9238 6.5584 0 12.1549.787 13.4666 1.9238 1.3991-2.2736 2.2736-4.897 2.361-7.6078-2.0112 1.3117-8.3947 2.1862-15.8276 2.1862-7.69519 0-13.99125-.8745-15.9150535-2.0987Z"/>
	<path fill="url(#b)" d="M3.67261 25.8848c5.50906 6.7333 15.39039 7.87 22.12369 2.2735.8744-.6995 1.6615-1.4865 2.2736-2.2735-2.2736.787-6.9957 1.3991-12.2424 1.3991-5.2467-.0875-9.96876-.6121-12.15489-1.3991Z"/>
	<path fill="url(#c)" d="M28.1574 5.85884C25.0968 2.09869 20.6371 0 15.8276 0h-.0874C10.9307 0 6.47095 2.18614 3.4978 5.85884c2.27358-.87445 6.9956-1.39913 12.3298-1.39913 5.3342 0 10.1437.61212 12.3298 1.39913Z"/>
	<path fill="url(#d)" d="M29.3817 7.43359C28.07 8.57038 22.5609 9.44484 15.9151 9.44484c-6.64589 0-12.24239-.78701-13.46663-2.01125C1.04934 9.70717.174891 12.3305 0 15.0413c1.9238-1.2242 8.30731-2.1861 15.8276-2.1861 7.5203 0 13.9913.9619 15.8276 2.1861v-.0874c-.0874-2.7108-.8744-5.24673-2.2735-7.52031Z"/>
	<path fill="#fff" d="M62.8732 14.4292h-4.9844v-3.4104h8.3073V8.57031H54.8282V23.3486h8.1324c3.0606 0 4.5472-.787 4.5472-3.9351v-1.0493c0-3.2355-1.574-3.935-4.6346-3.935Zm1.574 5.0718c0 1.0493-.2623 1.3991-1.9238 1.3991h-4.6346v-3.935h4.7221c1.574 0 1.7489.4372 1.7489 1.3991.0874 0 .0874 1.1368.0874 1.1368Zm-14.8657-4.9844h-7.258V8.65776h-3.0606V23.436h3.0606v-6.3835h7.258v6.3835h3.0606V8.65776h-3.0606v5.85884Zm75.8155 2.5359h-5.509v-3.7601h-2.886V23.436h2.886v-4.2848h5.509v4.2848h2.798V13.2924h-2.798v3.7601Zm-27.3708-2.6233h-4.8969v-3.4104h8.3077V8.57031H90.0687V23.3486h8.045c3.0603 0 4.5473-.787 4.5473-3.9351v-1.0493c0-3.2355-1.662-3.935-4.6348-3.935Zm1.5741 5.0718c0 1.0493-.2624 1.3991-1.8364 1.3991h-4.6346v-3.935h4.722c1.5741 0 1.749.4372 1.749 1.3991v1.1368Zm-16.09-10.93069H71.6177v8.83199c0 1.8363-.4372 2.4485-1.574 3.4978h-1.574v2.5359H84.822v-2.5359h-1.3117V8.57031ZM80.4497 20.9001h-6.9956c.6996-1.0493 1.0493-1.3991 1.0493-2.8857v-6.8207h5.9463v9.7064Zm54.8283-2.7108 4.285-4.8969h-2.886l-3.41 3.935h-.35l.087-3.935h-2.885V23.436h2.885v-4.2848h.263l3.585 4.2848H140l-4.722-5.2467Zm-24.048-4.8969h-3.497c-2.886 0-3.673 1.1368-3.673 2.6233h2.711c.175-.5246.35-.787 1.399-.787h2.448c1.137 0 1.662.1749 1.662 1.1368v1.9238c-.35-.6121-1.05-.9619-1.662-.8744h-2.885c-2.886 0-3.673.9619-3.673 2.4484v1.3117c0 1.574 1.137 2.2736 3.061 2.2736h3.235c1.137 0 1.399-.3498 1.924-1.0494v1.0494h2.886v-6.5584c0-1.7489-.962-3.4978-3.936-3.4978Zm1.137 7.1705c0 .787-.349 1.0493-1.486 1.0493h-2.536c-1.137 0-1.487-.2623-1.487-1.0493v-.2624c0-.6995.437-.9619 1.487-.9619h2.536c1.049 0 1.486.3498 1.486.9619v.2624Z"/>
  	<radialGradient id="a" cx="0" cy="0" r="1" gradientTransform="matrix(29.8421 0 0 29.842 15.8325 2.68405)" gradientUnits="userSpaceOnUse">
  		<stop stop-color="#FAC39D"/>
  		<stop offset=".24" stop-color="#F08436"/>
  		<stop offset=".48" stop-color="#EC6707"/>
  		<stop offset=".73" stop-color="#EC6508"/>
  		<stop offset="1" stop-color="#E74011"/>
  	</radialGradient>
  	<radialGradient id="b" cx="0" cy="0" r="1" gradientTransform="translate(15.8322 2.68437) scale(29.842)" gradientUnits="userSpaceOnUse">
  		<stop stop-color="#FAC39D"/>
  		<stop offset=".24" stop-color="#F08436"/>
  		<stop offset=".48" stop-color="#EC6707"/>
  		<stop offset=".73" stop-color="#EC6508"/>
  		<stop offset="1" stop-color="#E74011"/>
  	</radialGradient>
  	<radialGradient id="c" cx="0" cy="0" r="1" gradientTransform="translate(15.8322 2.68344) scale(29.8421)" gradientUnits="userSpaceOnUse">
  		<stop stop-color="#FAC39D"/>
  		<stop offset=".24" stop-color="#F08436"/>
  		<stop offset=".48" stop-color="#EC6707"/>
  		<stop offset=".73" stop-color="#EC6508"/>
  		<stop offset="1" stop-color="#E74011"/>
  	</radialGradient>
  	<radialGradient id="d" cx="0" cy="0" r="1" gradientTransform="translate(15.8323 2.68417) scale(29.8421)" gradientUnits="userSpaceOnUse">
  		<stop stop-color="#FAC39D"/>
  		<stop offset=".24" stop-color="#F08436"/>
  		<stop offset=".48" stop-color="#EC6707"/>
  		<stop offset=".73" stop-color="#EC6508"/>
  		<stop offset="1" stop-color="#E74011"/>
  	</radialGradient>
</svg>