<svg xmlns="http://www.w3.org/2000/svg" viewBox="0 0 102 36">
	<path fill="#fff" d="M53.9959 2.86419v4.28092h.5333V5.1299h2.0619v2.01521h.5271V2.86419h-.5271v1.7641h-2.0619v-1.7641h-.5333Zm5.0932 0-1.5286 4.28092h.5593l.436-1.29765h1.6781l.4618 1.29765h.5986L59.668 2.86419h-.5789Zm.9756 2.5231h-1.3595l.4423-1.25684c.0907-.26932.1626-.5443.2147-.82366.0716.23479.1626.53299.2863.89334l.4162 1.18716Zm2.1857-2.5231h-.5267v4.28092h3.0244v1.18904h.4686V6.64288h-.3644V2.86419h-.5267v3.77869h-2.0752V2.86419Zm4.0722 0h-.4816v4.28092h.5334l2.1137-3.38129v3.38129h.4815V2.86419h-.5264l-2.1206 3.38945V2.86419Zm3.8835.53049c-.3519.40116-.5336.95738-.5336 1.66679-.0007.36851.0762.73326.2275 1.06913.1447.32519.3792.60205.6762.79604.3004.19461.6513.29443 1.0085.2869.3403.00188.6752-.08852.969-.26116.3042-.18143.5453-.45327.6896-.77658.1686-.36475.2534-.76214.2477-1.16393.0063-.39488-.0734-.78662-.2348-1.14698-.1425-.32457-.3779-.59954-.6761-.78913-.297-.1896-.6429-.28816-.9954-.28251-.559 0-1.0277.20027-1.3786.60143Zm.403 2.89349c-.2605-.29632-.3905-.70187-.3905-1.21666 0-.64223.1366-1.10115.4034-1.37612.0709-.07471.1497-.14125.2351-.19776.0644-.04206.1325-.07847.2037-.1086.1654-.07094.3441-.10736.5239-.1061.2549-.00314.5041.07157.7157.2147.1061.07408.2006.1626.2809.26242.0823.10233.1501.21659.2006.33964.1149.28941.1705.59954.1626.91093 0 .54994-.1306.97496-.3839 1.27316-.1202.14376-.2706.25865-.4404.3365-.1701.07784-.3553.11551-.5418.11174-.1845.0044-.3675-.0339-.5355-.11049-.0766-.03516-.1491-.07785-.2166-.12744-.0803-.05964-.1535-.1287-.2172-.20592Zm3.5838-3.42398v4.28092h.5273V5.1299h2.0617v2.01521h.527V2.86419h-.527v1.7641h-2.0617v-1.7641h-.5273Zm5.087 0-1.5287 4.28092h.5594l.4357-1.29765h1.6787l.4614 1.29765h.5986l-1.6194-4.28092h-.5857Zm.9822 2.5231h-1.3595l.4357-1.25684c.0901-.26995.1641-.54492.2213-.82366.0342.12367.0756.26492.1265.42376.0455.1425.0982.29945.1594.46958l.4166 1.18716Zm4.5533-2.5231h-2.4917v3.01717c0 .35533-.032.58636-.0904.68241-.0125.02135-.0276.04081-.0449.05839-.02.02009-.043.03767-.0684.05148-.0474.02511-.1001.03767-.1535.03515-.0784-.00502-.155-.0295-.2213-.07219l-.0976.50223c.1362.04709.2791.07283.4228.07722.1742.00628.3447-.05587.4746-.17264.1331-.13184.2198-.3026.2474-.4878.0471-.32582.0662-.65479.0587-.98375V3.36705h1.431v3.77806h.5333V2.86419Zm1.4182 0h-.527v4.28092h1.5089c.5725 0 .9693-.12493 1.1777-.37479.2056-.24296.3168-.55309.3124-.87201.0006-.1199-.0145-.23919-.0446-.3547-.021-.08098-.0499-.16009-.086-.23668-.0496-.10861-.1187-.20654-.2034-.28878-.0666-.06529-.1425-.12054-.226-.16386-.1946-.11111-.5202-.16636-.9624-.16636h-.9496V2.86419Zm.9624 3.79626h-.9624V5.17761h.7085c.2423-.00754.484.01004.7226.05336.1397.03139.2624.11426.3446.23166.0879.12807.1338.28062.13.43568.0031.12745-.022.253-.0735.36789-.027.06027-.0612.11803-.1023.17139-.1233.14816-.3773.22286-.7675.22286Zm2.1665-3.79626v4.28092h.5265V5.1299h2.0623v2.01521h.5267V2.86419h-.5267v1.7641H89.889v-1.7641h-.5265Zm4.5534 0h-.527v4.28092h1.5158c.5719-.00063.9624-.12493 1.1705-.37291.1981-.23982.3086-.54116.3117-.85317.0041-.31138-.0995-.61524-.2922-.85945-.1949-.24798-.6052-.37165-1.2292-.37165h-.9496V2.86419Zm.9624 3.79626h-.9624V5.17761h.7085c.2379-.00754.4749.00941.7091.04959.1412.03202.2662.11363.3515.23103.0939.13058.1422.28816.1363.4495 0 .26242-.0713.45389-.221.5738-.15.11928-.3902.17892-.722.17892Zm2.5175-3.79626h-.5274v4.28092h.5274V2.86419Zm1.3852 0h-.4815v4.28092h.5336l2.1149-3.38129v3.38129h.48V2.86419h-.526l-2.121 3.38945V2.86419Zm1.841-1.02832h-.331c-.016.11488-.069.22098-.15.30259-.055.04018-.118.06843-.1832.08413-.0505.01193-.103.01632-.1554.01255-.0656.00314-.1306-.00816-.1902-.03327-.0392-.01632-.076-.03892-.1092-.06655-.0509-.04771-.0914-.10484-.119-.16887-.0182-.04206-.0308-.08664-.0374-.13247h-.3314c.011.10485.0323.19901.0637.28314.043.11488.1045.21031.1836.28564.1545.13561.355.20592.5594.1965.2031.01068.4021-.06026.5531-.1965.148-.15255.235-.35407.247-.56689ZM93.9875 17.2074c.0389.0062.0841.0094.1296.0119.0459.0025.1234.0056.2085.0056.6067 0 1.0948-.1707 1.4637-.5135.3773-.3415.7153-.9423 1.0145-1.8024.5465-1.5732 1.0299-2.5896 1.4508-3.0492.193-.2222.4326-.3992.7006-.5185.1723-.0766.3538-.1287.5393-.1545.1039-.0144.209-.0207.3145-.0188.374-.0107.739.1161 1.028.356.286.2379.429.521.429.8494.001.0364 0 .0728-.002.1092-.002.0232-.005.0458-.008.0684l-.009.049-.012.0509-.013.0452c-.01.0313-.022.0627-.036.0935-.021.0477-.046.0935-.075.1375-.026.0389-.054.0759-.086.1111-.045.0483-.096.091-.151.1274-.041.027-.084.0503-.13.0697-.048.0207-.098.0364-.149.0471-.062.0132-.125.0188-.187.0176-.11 0-.223-.0251-.341-.0766-.1327-.0578-.2721-.1482-.4206-.2712-.2797-.2317-.5006-.3465-.6698-.3465-.2276 0-.4232.118-.5986.359-.1755.2411-.4229.84-.7609 1.7993-.2992.8494-.5531 1.4489-.7678 1.8087-.2031.3402-.468.6391-.7804.8814.8783.4696 1.9493 1.6894 3.2131 3.6588.3839.5913.6767 1.0396.878 1.3447.202.2913.397.496.592.6152.196.1187.469.2166.82.2907v.3742h-2.8557c-.4529-.7879-.8603-1.4829-1.2223-2.0843-.1381-.2298-.2696-.4464-.3945-.6491-.1667-.27-.3218-.5155-.4649-.7377-.3648-.5656-.6532-.9743-.8651-1.2267-.2455-.2888-.4796-.5104-.7044-.6655-.2577-.1776-.5032-.2668-.7395-.2668h-.1692c-.0289 0-.0562.0019-.0835.005l-.0854.0101v3.5847c0 .3647.0361.6604.1095.8877.0327.1011.0729.189.1206.263.0323.0503.0684.0942.108.1319.2275.2166.6896.3415 1.3981.371l.0072.3742h-5.3667v-.3635c.6962-.0176 1.1576-.1306 1.3918-.3466.2339-.2166.3453-.6535.3453-1.307v-8.2725c0-.6265-.1177-1.0515-.3453-1.2775-.2276-.226-.6956-.3466-1.3918-.3767v-.3742h5.3667l-.0072.3742c-.3215.0113-.5936.0427-.8162.0954-.2545.0609-.4441.1494-.5691.2668-.2341.2204-.3509.6473-.3509 1.292v3.7618Zm-26.7283 1.7641h4.1045l-1.9772-5.1668-2.1273 5.1668Zm-3.5385 4.7743v-.3741c.3578-.012.6501-.1218.8648-.3265.2147-.2053.4623-.6265.7219-1.2531l4.4172-10.5845h.3773l4.2803 10.7766c.069.1796.139.3403.209.4822.141.2844.2825.4928.4216.6284.0778.0753.1648.1362.2608.1827.1607.0785.3472.1168.5588.1168h.0913v.3566h-4.495v-.3792c.2687-.0069.4869-.0308.6557-.0722.1212-.0295.2169-.0678.2876-.1149.1688-.113.2539-.3114.2539-.597-.0012-.098-.0122-.1953-.0329-.2907-.0073-.0521-.0183-.1036-.0324-.1538-.0125-.0433-.0279-.0867-.0455-.1287l-.9043-2.3304h-4.6055l-.7606 1.9568c-.042.0992-.0794.2003-.112.3033-.0267.0841-.0503.1688-.0704.2548-.0398.1382-.0618.2807-.0649.4244 0 .2555.0913.4426.2796.5638.0631.0408.1385.0747.2254.1017.1733.0546.3927.0829.6526.0829h.1042v.3741h-3.5385Zm-10.3621 0 .0066-.3741c.0537-.0013.1061-.0032.157-.0063.0549-.0032.1083-.0069.1598-.0119.0681-.0063.133-.0139.1949-.0226.0967-.0139.1861-.0314.2677-.0521.07-.0176.1347-.0383.1937-.0609.1394-.054.2483-.1212.3277-.2022.2147-.2197.3189-.6479.3189-1.2769v-8.2976c0-.6416-.1042-1.0685-.3189-1.2825-.2147-.2135-.6504-.3321-1.3074-.3686v-.3735h8.8466l.3318 3.2419h-.3318c-.2668-.8927-.6247-1.5312-1.0735-1.9147-.4552-.3861-1.0733-.5789-1.8473-.5789h-1.4179c-.462 0-.7612.0653-.9043.1959-.1432.1306-.221.4759-.221 1.0277v3.5282h.9756c1.9709 0 3.3825.258 4.2476.7778.8651.5205 1.2945 1.3573 1.2945 2.5125 0 1.1934-.4033 2.0805-1.2034 2.6631-.8002.5819-2.0294.8701-3.6817.8701l-5.0152.0056Zm3.3826-1.6002c0 .3497.0716.5876.2081.7069.1365.1186.5073.1808 1.0864.1808h.3509c.0773 0 .1532-.0019.2273-.0044l.0926-.0044c.0678-.0038.1343-.0094.1996-.0157l.1108-.0132.0361-.0044.1272-.0188c.5835-.0973 1.054-.3108 1.4116-.6397.5075-.4665.7677-1.1407.7677-2.0196 0-.9147-.2862-1.5946-.8456-2.0335-.5594-.4394-1.4442-.6629-2.6345-.6629h-.3641c-.3645 0-.5855.0326-.6636.1017-.0782.0684-.1105.2461-.1105.543v3.8842Zm19.6703 1.2261-.0063.3741 5.0798-.0031v-.3742c-.6698-.0295-1.1055-.1544-1.3202-.371-.2147-.2172-.319-.6447-.319-1.2826V18.338c0-.0615.0032-.1174.0095-.1676.005-.0408.0119-.0778.021-.1117.0056-.0214.0122-.0415.0198-.0603.0163-.0414.0367-.0753.0602-.1023.0355-.0396.0832-.0697.1447-.0898.0346-.0113.0735-.0201.1174-.0251.0374-.0044.0779-.0069.1218-.0069h4.7873c.1626 0 .2803.0351.339.1098.0646.0716.097.2229.097.4539v3.3976c0 .3654-.039.6624-.1134.8902-.0207.0641-.0445.1225-.0709.1758-.0424.0854-.0917.157-.1475.2141-.2147.2191-.657.3384-1.3206.356l-.0063.3741h5.0999v-.3741c-.657-.0176-1.093-.1394-1.3206-.3623-.2275-.2228-.338-.6529-.338-1.2913v-8.2693c0-.6605.1105-1.0936.3318-1.3071.112-.1061.2812-.1877.5072-.2448.2194-.0559.4925-.0879.8196-.0967v-.383h-5.0999v.383c.35.0176.6363.0596.8607.1256.2176.0634.377.1494.4797.2573.0882.093.1591.2229.2112.3899.0707.2254.1071.5179.1071.8783v3.0222c0 .2436-.0258.4068-.0842.4871-.0587.0804-.1757.1218-.3518.1218h-4.7738c-.0351 0-.0684-.0012-.0995-.0037-.0505-.0038-.0957-.0107-.1356-.0201-.0455-.0107-.0838-.0251-.1149-.0433-.0213-.0126-.0392-.027-.0536-.0427-.065-.071-.1043-.2229-.1043-.4539v-3.0674c0-.6441.1105-1.0723.3252-1.2857.1388-.1381.3723-.2392.6969-.3033l.108-.0194c.1522-.0245.3217-.0421.5091-.0521v-.3736h-5.0798v.3736c.6636.0358 1.1122.1632 1.3269.3861.2213.2228.3318.6478.3318 1.2744v8.2668c0 .6441-.1105 1.0722-.319 1.2913-.2084.2198-.657.3384-1.3334.3623Zm-18.4606 9.3177-.1042-.1218c-.1095.1349-.2191.2542-.3286.3572-.1507.1412-.3014.2524-.452.3321-.2775.1431-.5858.2147-.8975.209-.1619.0032-.3226-.0213-.4758-.0709-.0694-.0226-.1372-.0502-.2028-.0829-.2106-.1054-.393-.2599-.5314-.4507-.2-.2587-.3359-.5644-.4081-.9197-.0402-.199-.0603-.4138-.0603-.6448 0-.6435.1564-1.1627.475-1.5619.1456-.1909.3339-.3447.5499-.4483.216-.1042.4533-.1557.6925-.15.3415-.0107.6752.1055.9366.3264.2603.2204.4489.5412.5789.9643h.1368l-.1303-1.5092h-.1233c.0025.0622-.0182.1231-.0587.1708-.0151.015-.032.0276-.0505.0383l-.0211.01c-.0267.0113-.0555.017-.0844.017-.1614-.0333-.3202-.0785-.4749-.135-.0484-.0157-.0967-.0301-.146-.0433l-.0549-.0138-.0638-.0145-.086-.0176c-.1566-.0295-.3157-.0445-.4755-.0452-.1654 0-.324.0132-.4759.0396-.2514.0433-.484.1237-.6965.2404-.0427.0233-.0845.0484-.1256.0747-.0439.0283-.0869.0584-.129.0904-.0973.0735-.1899.1564-.2772.248-.4422.4652-.6635 1.0516-.6635 1.7723 0 .7207.2081 1.302.6375 1.7415.4228.4407.9888.661 1.6975.661.3701.0063.7355-.0835 1.0604-.2611.3374-.1965.6231-.4715.8327-.8023Zm.2016.9555.0066-.1407c.2602-.0075.4356-.0521.5267-.1356.0571-.0521.0935-.1343.113-.2473.0116-.0672.0172-.1457.0172-.2348v-3.1358c0-.0898-.0062-.1683-.0185-.2355-.0207-.1155-.0584-.1983-.1117-.2492-.0449-.0433-.1174-.076-.2154-.0992-.0866-.0207-.193-.0339-.3179-.0402v-.1418h3.584l.1366 1.2254h-.1366c-.1105-.3377-.2536-.5788-.4357-.7238-.1823-.1451-.436-.2147-.748-.2147h-.5725c-.1887 0-.3057.0244-.3707.0753-.0167.0126-.0302.0308-.0411.054-.0048.01-.0091.0207-.0129.0326-.0229.0685-.0308.1689-.0308.302v1.3341h.3905c.8001 0 1.3724.0973 1.7236.2938.3513.1971.5205.5129.5205.9492 0 .1984-.0314.3742-.0945.528-.0801.1958-.2113.3553-.3933.479-.3252.2191-.8196.327-1.4898.327l-2.0293-.0018Zm1.3723-.6046c0 .1306.0261.2216.0848.2668.0584.0458.2015.0691.4357.0691h.1431c.3902 0 .6896-.0886.8977-.2656.2016-.1758.3058-.4307.3058-.7628 0-.14-.0192-.2655-.0568-.376-.0559-.1626-.1523-.2938-.2879-.3924-.0888-.0646-.1965-.1174-.3236-.1569-.0452-.0145-.0926-.027-.1425-.0377-.0691-.0151-.1428-.027-.221-.0358-.1143-.0132-.2386-.0201-.3732-.0201h-.1498c-.1497 0-.2341.0126-.2668.0377-.0323.0257-.0455.0935-.0455.2059v1.4678Zm2.9924.4639v.1407l3.6098.0031.3255-1.1432-.1171-.0653c-.1428.3742-.2988.6215-.468.7389-.1692.118-.4489.1771-.8324.1771h-.9631c-.1171.0006-.1952-.0245-.2341-.0741-.0069-.0088-.0132-.0195-.0189-.032l-.0094-.0245c-.0075-.0226-.0138-.0503-.0185-.0823-.0079-.0533-.0119-.1193-.0119-.1977v-1.3925c0-.101.0194-.1638.0392-.1877.0195-.0232.0716-.0358.1494-.0358h.8325c.1349 0 .2501.0082.3456.0245.1299.0226.2231.0603.2793.1137.097.0916.1491.2724.1692.5417h.1234v-1.599h-.1234c-.0201.2562-.065.4263-.1629.5173-.0976.0911-.3057.1363-.6312.1363h-.8259c-.0374 0-.0681-.0025-.0929-.0069-.0355-.0069-.0584-.0189-.0697-.0352l-.0094-.022-.0094-.0269c-.0132-.0427-.0179-.0879-.0138-.1325v-1.2562l.0006-.0452c.0009-.0339.0034-.0641.0066-.0911.0044-.0364.011-.0665.0198-.0904.0043-.0119.0091-.0219.0144-.0307l.0075-.0107.0098-.01c.0194-.0176.0483-.0302.0878-.0383.0132-.0032.0277-.0057.0434-.0076.0317-.0037.0681-.0056.1095-.0056h1.0406c.2994 0 .5006.0521.6177.1582.1105.1055.189.3063.2348.602h.1234l-.0521-1.0302h-3.5257v.1419c.247.0132.4099.0622.4878.1438.0782.0816.1171.2423.1171.4809v3.1358c0 .1061-.0063.1965-.0198.2712-.0173.096-.0468.1664-.0907.2109-.0782.0791-.2408.1237-.4944.1356Zm5.7958-2.4502c-.0079.0615.0088.1236.0455.1732.0461.0358.1042.0528.1626.0477.4165 0 .7282-.0872.9367-.2617.063-.0528.1164-.1137.1604-.1827.027-.0421.0505-.0873.0703-.135.0125-.0301.0235-.0615.0332-.0935.0139-.0471.0245-.0967.0324-.1488.0106-.0703.016-.1444.016-.2235 0-.1363-.0157-.2587-.0468-.3673-.0442-.1532-.1196-.2794-.2263-.3785-.1755-.1664-.4489-.2512-.8067-.2512-.1428 0-.2471.0239-.2992.071-.0521.0471-.0781.1544-.0781.3264v1.4239Zm-1.3463 2.5909v-.1407c.2668-.005.436-.0521.5135-.1437.0785-.0923.1171-.297.1171-.6165v-3.0254c0-.0809-.0041-.1525-.0126-.214-.0044-.0333-.0103-.0634-.0172-.0911-.0129-.0508-.0302-.0929-.0518-.1249-.0107-.0157-.0226-.0295-.0355-.0408-.0496-.0439-.14-.076-.2668-.096-.0709-.0113-.1535-.0195-.2467-.0245v-.1419h1.9574c.5208 0 .911.1023 1.1844.3057.0973.0728.1757.1576.2363.2543.0239.0383.0449.0785.0634.1205.0154.0358.0289.0722.0405.1105l.0113.0396c.0069.0257.0132.0514.0182.0778.0063.0326.0116.0665.0157.1004.0072.0622.011.1269.011.1947.0091.2718-.0681.5392-.221.764-.0844.1168-.1883.2159-.3063.2944-.1011.0678-.2125.1199-.3309.1545-.1491.0433-.3013.0728-.4558.0872-.2313.022-.4636.0314-.6955.0283-.0135 0-.0264-.0013-.0393-.0032l-.0264-.0037c-.0521 0-.0841.0081-.0969.0238-.0173.0339-.0245.0728-.0198.1111v1.1106c0 .3108.0389.511.1167.6002.0785.0891.2606.1375.5465.1469v.1406l-2.0095.0013Zm3.838-.1407v.1407l3.9093.0031.3509-1.1432-.1234-.0653c-.0803.1927-.1638.3509-.2508.4759-.0825.118-.1679.2059-.2564.263-.1827.118-.4815.1771-.8981.1771h-1.0471c-.0823 0-.1435-.0101-.1893-.0296-.0264-.0113-.0474-.0263-.0641-.0445-.0458-.049-.0649-.1614-.0649-.3365v-1.3925c0-.101.0128-.1626.0386-.1877.0515-.0295.1105-.042.1688-.0358h.8984c.351 0 .5848.0459.6827.1382.0977.0916.1626.2724.1755.5417h.1369v-1.599h-.1369c-.0075.147-.0298.2662-.0675.3579-.0088.0213-.0185.0414-.0289.0603l-.0197.0313-.0113.0157c-.0148.0195-.0308.0371-.0481.0521-.1042.0905-.3317.1363-.6827.1363h-.8918c-.0612 0-.107-.0057-.1393-.017-.0113-.0037-.0211-.0081-.0289-.0132-.0053-.0037-.0101-.0075-.0138-.0119-.027-.0565-.0377-.1193-.032-.1814v-1.2562c0-.1513.0257-.243.0649-.2781.0386-.0352.13-.0515.2596-.0515h1.1323c.3189 0 .5399.0527.6632.1582.011.0094.022.0194.0327.0307l.0292.0339c.0298.0377.0568.0829.0813.1344.0499.1055.0885.2398.1174.403h.1362l-.0584-1.0302h-3.8245v.1419c.1337.0069.248.0226.3384.0465.0894.0238.156.0565.1946.0973.0785.0816.124.2423.124.4809v3.1358c0 .2423-.0393.403-.124.4821-.0841.0791-.2599.1237-.533.1356Zm7.643-2.3102h.0258c.2539 0 .4492-.0591.5791-.1777.027-.0245.0528-.0534.0772-.0866.0434-.0578.0839-.1294.1218-.2141.0452-.1011.087-.221.1262-.3597l.0587-.2669c.0841-.3773.1818-.6472.286-.8073.0737-.1199.1742-.2216.2925-.2969.1149-.0666.2449-.1011.3773-.1005.1523-.0075.3036.0352.4294.1212.0148.0106.0286.0219.0418.0345l.0132.0132.0182.0207c.0182.022.0339.0465.0471.0728.0282.0559.043.1181.0423.1808l.0004.0208-.0016.0282c-.0032.0314-.0101.0622-.021.0917-.0069.0169-.0148.0339-.0239.0496-.0141.0257-.0314.0496-.0515.0709-.0263.0333-.0606.0603-.0982.0785-.0386.0182-.0804.027-.1231.027-.0775 0-.1689-.0471-.2731-.1413-.0718-.081-.1717-.1312-.2796-.1412-.0754 0-.146.0577-.2113.172-.0703.123-.1347.3126-.1918.5675l-.0427.1808c-.0179.0772-.0333.1431-.0486.1971-.0386.1683-.1021.3302-.1884.4797-.0637.1148-.1557.2109-.2668.2793.2606.1946.5528.5996.8783 1.2142.1234.2323.221.4068.2925.5267.0675.1325.1658.2467.286.3327.0185.012.0374.0226.0565.0327l.0487.0238.0492.0207.0597.0208c.0637.0194.1293.0326.1962.0389v.1481h-1.1385c-.0157-.0339-.033-.0665-.0521-.0985-.657-1.3793-1.093-2.0692-1.314-2.0692h-.0779v1.4012l.0013.0697.0025.0439c.0047.0672.0138.1262.027.1777.022.0854.0553.1494.0989.1927.0851.0829.2668.1306.5336.1413v.1412h-2.0359v-.1412c.0772-.0019.1469-.0069.2093-.0157.1146-.0157.2038-.0421.2678-.0797.0185-.0107.0352-.0226.0496-.0352.0847-.0822.1303-.2461.1303-.4934v-1.4044h-.0977c-.1073 0-.2696.1739-.4878.5223-.1142.1827-.2435.4125-.3882.69-.1165.2228-.243.4765-.3795.7615l-.0904.1958h-1.1323v-.1412c.1435-.0126.2816-.0596.4031-.1369.1215-.0879.2213-.2015.2932-.3333.0649-.1187.1626-.2938.2859-.5267.3255-.6146.6178-1.0189.8783-1.2136-.1133-.0709-.2062-.1676-.2731-.2831-.0863-.1507-.15-.3133-.1893-.4828-.0257-.0916-.0518-.2191-.0904-.3779-.0486-.216-.1023-.3848-.1604-.5066-.0741-.1551-.1557-.2329-.2432-.2329-.1077.01-.2078.0602-.2797.1412-.0496.0452-.0964.0791-.14.103-.0481.0257-.0923.0383-.1334.0383-.0418.0012-.0835-.0076-.1221-.0251-.0386-.0176-.0719-.044-.0989-.0766-.0612-.071-.0932-.162-.0907-.2555-.0003-.0277.0022-.0547.0072-.081.0066-.0358.0182-.0697.0345-.1024.0283-.0565.0694-.1061.1209-.1437.1227-.0879.2718-.1312.4225-.1231.1123-.0019.2235.0226.3252.0716.1036.0515.1946.1256.2668.2166.1368.1657.2539.4658.3581.8965.0255.1312.0518.231.0713.2963.0841.3176.1946.5349.3189.6535.021.0207.0446.0389.07.0553l.0352.0213.0417.0214c.0226.01.0465.0194.0713.0276.1032.0339.2266.0508.3666.0508h.0264v-1.4464c0-.0534-.0025-.103-.0073-.1488l-.0072-.0584c-.0034-.0232-.0078-.0452-.0125-.0659-.022-.0923-.0568-.162-.1033-.2091-.0458-.0458-.1202-.0803-.22-.1042-.0845-.0201-.1874-.0326-.3067-.0376v-.1419h2.0359v.1419c-.2668.0088-.4423.0533-.527.1362-.017.0169-.0324.0364-.0465.059-.0163.0264-.0304.0571-.0427.0917-.0301.086-.0471.1984-.0471.3371v1.4427Zm7.4545 2.3102v.1407h1.964v-.1407c-.1177-.0044-.2169-.0163-.2979-.0364-.0979-.0238-.1695-.059-.2159-.1042-.0779-.0822-.1168-.2436-.1168-.4846v-1.2763c-.0066-.0584.0075-.1174.0389-.167.0201-.0176.044-.0308.0703-.039.0258-.0075.0528-.01.0791-.0069h1.8539c.065 0 .1105.0132.13.0408.0326.0515.0461.1118.0392.1721v1.2844c0 .2392-.0458.3999-.13.4834-.0524.0515-.1368.0885-.2536.1105-.0722.0138-.1566.022-.2536.0251l-.0069.1413h1.9709v-.1413c-.2533-.0069-.4225-.0533-.5072-.1375-.0842-.0841-.13-.2467-.13-.4878v-3.1245c0-.2505.0458-.4143.13-.4953.0847-.0804.2539-.1243.5072-.1306v-.145h-1.9709v.145c.0565.0031.1089.0075.1572.0138.0204.0025.0399.005.0587.0088l.0434.0075c.1243.0245.2121.0628.2611.1149.0779.0829.1237.2424.1237.479v1.142c.005.0634-.0066.1268-.0323.1846-.0186.0169-.0399.0301-.0635.0383-.0232.0075-.0483.0106-.0734.0075h-1.8476c-.0552.0075-.1111-.0075-.1557-.0414-.0201-.0314-.0329-.0666-.0383-.103l-.0025-.0333c-.0003-.0119.0003-.0238.0019-.0358v-1.1589c0-.2436.0389-.4055.1233-.4859.0848-.0803.254-.128.5073-.1412v-.1419h-1.964v.1419c.1651.01.2972.0332.3926.0715.0509.0201.0914.0446.1209.0741.0844.0841.1237.2449.1237.4815v3.1246c0 .2435-.0324.4049-.1171.4878-.0841.0828-.254.128-.5201.1374Zm5.2882.1407.0062-.1407c.2669-.0094.4426-.0546.5274-.1374.0508-.0503.0876-.1287.1089-.2361.0053-.027.0097-.0559.0129-.0873.0053-.0496.0081-.1042.0081-.1632v-3.1258c0-.2366-.0458-.3974-.1299-.4815-.0848-.0841-.2668-.1306-.5336-.1456v-.1419h2.023v.1419c-.2602.0132-.4357.0609-.5207.1412-.0841.0804-.13.2436-.13.4859v2.7542l2.2764-2.773-.0009-.054-.0029-.0508-.005-.0584c-.0044-.0358-.01-.0685-.0169-.0986-.0104-.0433-.0236-.0816-.0399-.1149-.0097-.0194-.0204-.0376-.032-.054-.0101-.0132-.0207-.0257-.032-.0364-.0182-.0176-.0412-.0333-.0682-.0471-.0238-.0125-.0511-.0238-.0816-.0339-.096-.0314-.2247-.0502-.3839-.0571v-.145h2.0294v.145c-.2596.0063-.4357.0502-.5264.1306-.0408.0383-.0725.0967-.0945.1745-.0239.0835-.0361.1902-.0361.3196v3.1257c0 .2399.0458.4025.1372.4866.0904.0841.2602.1306.5198.1375v.1406h-2.0294v-.1406c.2668-.0076.4423-.0521.5337-.1356.0913-.0835.1296-.2442.1296-.4822V30.133l-2.2764 2.7629c0 .2342.0459.3917.13.4709.0477.0439.1215.0778.2241.1017.0807.0188.1792.0307.2966.0357v.1407h-2.023Zm5.2945-.1413v.1413h2.023v-.1413c-.2668-.0113-.4485-.0577-.5264-.1368-.0785-.0792-.1243-.2367-.1243-.4715l2.2708-2.7629v2.7547c0 .238-.046.3987-.1306.4822-.0427.042-.1087.0747-.1981.0973-.0873.0219-.1968.0345-.3283.0376v.1413h2.029v-.1413c-.26-.0062-.435-.0527-.527-.1368-.091-.0841-.13-.2474-.13-.4872v-3.1251c0-.2493.039-.4144.13-.4941.027-.0258.063-.0471.108-.0653l.047-.0163c.094-.0289.218-.0452.372-.049v-.145h-2.029v.145c.2668.0107.4356.0565.5264.1375.0526.0465.0876.118.1086.2141.007.032.012.0671.015.1048.005.0452.007.0948.007.1482l-2.2708 2.7729v-2.7535c0-.2423.033-.4061.1243-.4865.0352-.0314.0835-.0578.1447-.0791.0954-.0333.2229-.054.3817-.0615v-.1419h-2.023v.1419c.2668.015.436.0609.527.1456.0913.0841.1299.2449.1299.4815v3.1252c0 .0967-.0062.1802-.0188.2511-.0041.0239-.0088.0458-.0144.0665-.0204.0741-.0503.1306-.0901.1696-.0841.0828-.2606.128-.5336.1368Zm1.9518-5.4913c-.0914-.1864-.2147-.2794-.3711-.2794-.032-.0018-.0643.0026-.0944.0139-.0302.0113-.0578.0288-.081.0514-.0226.0233-.0399.0509-.0509.081-.0116.0308-.016.0628-.0141.0954 0 .1513.1105.2788.3252.3792.177.0835.4027.1325.6692.1476.0568.0031.1155.0044.1761.0044.3447 0 .6244-.0503.8391-.152.2142-.101.3192-.2279.3192-.3792v-.0307l-.005-.0314-.009-.0333c-.011-.0301-.029-.0577-.051-.081-.009-.0081-.018-.0157-.027-.0226-.016-.0119-.033-.0207-.051-.0276-.0162-.0063-.0328-.0107-.0494-.0132l-.0179-.0012c-.0079-.0007-.016-.0013-.0242-.0007-.156 0-.2859.0948-.3773.2825l-.0166.0365-.0091.0169c-.0167.037-.0396.071-.0672.0998-.0273.0289-.0596.0534-.0954.0716-.1155.037-.2373.0527-.3582.0452-.1252.0082-.2505-.0069-.3707-.0452-.0722-.037-.1293-.0973-.1626-.1714-.0066-.0113-.0129-.0301-.0257-.0565Zm-16.958 5.6326.0063-.1407c.2477-.0119.4103-.0565.4881-.1356.0254-.0257.0468-.0602.0641-.1036.0122-.0313.0222-.0671.0304-.1073.0151-.0747.0226-.1651.0226-.2712v-3.1358c0-.2386-.0392-.3993-.1171-.4809-.0778-.0816-.2404-.1306-.4944-.1438v-.1419h3.532l.0521 1.0302h-.1237c-.0455-.2957-.1233-.4972-.2404-.602-.1174-.1055-.3186-.1582-.6118-.1582h-1.0403c-.1239 0-.2018.0163-.241.0515-.0211.0188-.0364.054-.0462.1061-.0081.0445-.0122.1017-.0122.172v1.2562c-.0066.0615.0019.1243.0264.1814.0257.0283.0775.0421.1688.0421h.8196c.3249 0 .5396-.0452.6309-.1363.0314-.0313.0587-.0721.082-.1224.0135-.0295.0254-.0621.0358-.0979.0131-.0452.0235-.0961.0313-.1519.0063-.0446.011-.0929.0135-.1451h.1297v1.599h-.1297c-.0128-.2693-.0715-.4501-.1626-.5417-.0913-.0923-.306-.1382-.6309-.1382h-.8259c-.0546-.0056-.1098.0069-.1563.0358-.0282.0584-.0392.1237-.0326.1877v1.3925c0 .1739.0191.2862.0584.3365.0197.0251.0496.0439.0894.0565.0226.0069.0481.0119.0766.0144.0211.0019.0437.0032.0681.0032h.9628c.3839 0 .6573-.0591.8261-.1771.0942-.0653.1843-.1707.2716-.3164.0693-.1155.1371-.2568.2037-.4225l.1105.0653-.319 1.1432-3.6167-.0031ZM15.9742 12.6908c6.8762-.1481 28.8763-.6227 29.058-6.33063C44.8505.651021 22.8313.177038 15.9651.0288785 15.465.018206 15.0454.00941689 14.7202 0v12.7203c.327-.0094.7499-.0188 1.254-.0295ZM0 20.0084v-4.3161c19.9111.9166 41.6239-.7791 44.9543-5.0424l-.0715 4.3832c-6.3009 5.7123-33.6183 5.1906-44.068867 4.991L0 20.0084Zm0 3.4949v4.3161l.816758.0157c10.452442.1996 37.765542.7213 44.066042-4.991l.0715-4.382C41.6239 22.7248 19.9111 24.4199 0 23.5033Zm0 12.3719v-4.3186c19.9111.9191 41.6239-.7759 44.9543-5.0386l-.0715 4.382c-6.3005 5.7122-33.6136 5.1905-44.066042 4.9909L0 35.8752Z"/>
</svg>