<svg xmlns="http://www.w3.org/2000/svg" viewBox="0 0 147 36">
	<path fill="#DD1F2A" d="M12.3325 7.2889c.0307-4.32227 2.6538-7.1993914 5.8944-7.28697164C21.4675-.0856609 24.2438 2.82212 24.3578 6.36927c.0234 1.72623-.4313 3.42528-1.3138 4.90903-1.2306 2.2115-5.3076 6.3366-5.3076 6.3366l-1.5502-3.0347s.6525-.9284 1.5108-1.9619c1.1127-1.2966 2.0101-2.76328 2.6582-4.34408.2516-.58198.3798-1.20967.3766-1.84367-.0482-1.51957-1.108-2.7326-2.4042-2.72385-1.2963.00877-2.3823 1.25683-2.4042 2.74572-.0558 1.08306.2324 2.15603.8233 3.06549.289.4379.7269 1.25669.7269 1.25669l-2.2858 2.7458c-.509-.6606-.9784-1.3509-1.4058-2.0669-.9108-1.52837-1.4582-3.18369-1.4582-4.17342l.0087.00882Zm-.8846 4.0639c-.9851-.9722-2.19656-1.68406-3.52521-2.07139-3.372-.92845-6.87098.94149-7.729323 4.13389-.408384 1.6279-.1644146 3.3511.679891 4.8017.844302 1.4506 2.222172 2.5137 3.839422 2.9626 1.62903.4483 3.34977.4407 4.97476-.0219.59386-.1489 1.17876-.3317 1.75166-.5474L9.71812 17.339s-.74009.2321-1.2481.3811c-1.02357.2997-2.12129.2156-3.08726-.2365-1.37949-.5781-2.10645-2.0451-1.62472-3.2713.48173-1.2262 2.03193-1.8218 3.37632-1.3137.68781.3169 1.31704.7477 1.86122 1.2743 3.06542 2.6275 4.26092 7.2431 4.26092 7.2431s-3.94127 1.3138-5.36449 2.2903c-2.7633 1.9313-3.94129 5.3164-2.864 8.1584.38094 1.0994 1.088 2.0564 2.02689 2.7434.93898.687 2.06514 1.0713 3.2281 1.1015 1.3209-.0067 2.6103-.4041 3.7059-1.142 1.0956-.738 1.9485-1.7835 2.4513-3.005.7969-1.8612.9853-3.8274 1.0247-5.8287.0122-2.678-.5142-5.3312-1.5479-7.8017-1.0336-2.4705-2.5535-4.7081-4.4691-6.5794Zm1.432 19.1281c-.565.9942-1.3969 1.6072-2.5881 1.5328-.42672-.0105-.83942-.1548-1.17968-.4126-.34026-.2577-.59089-.6159-.71652-1.0238-.4073-1.1298 0-2.0539.68313-2.9778 1.18677-1.5985 4.50187-2.4349 4.50187-2.4349s.1226 1.3576.1226 1.8174c.0413 1.2207-.2444 2.4303-.8277 3.5033l.0044-.0044Zm6.9804-.2977c.3396 1.3577 1.0038 2.6125 1.9356 3.6566 2.3911 2.6013 6.3279 2.8991 8.7014.6438 2.4568-2.3341 2.5312-6.3805.1445-9.0343-1.147-1.2605-2.6154-2.1855-4.2478-2.6757-.5744-.1919-1.1592-.3513-1.7516-.4773l-.2146 3.7091s.7488.2015 1.2568.3504c1.0312.2997 1.9203.9604 2.5049 1.8612.8758 1.2349.7401 2.8727-.2978 3.6566-1.0378.7839-2.6669.4379-3.5384-.7139-.4222-.6388-.7358-1.3432-.9283-2.0844-1.2657-3.8931.1007-8.4562.1007-8.4562s4.042 1.016 5.741.9371c3.3195-.1357 6.0784-2.3735 6.6258-5.3732.2435-1.1557.1346-2.3579-.3127-3.4509-.4475-1.0931-1.2127-2.0267-2.1966-2.6799-1.108-.70545-2.4021-1.06254-3.7151-1.02502-1.3131.03744-2.5847.46769-3.6507 1.23512-1.6334 1.1517-2.807 2.7283-3.8668 4.4055-1.3947 2.2997-2.3147 4.8554-2.7058 7.5164-.3911 2.661-.2453 5.3733.4287 7.9772l-.0132.0218Zm8.6139-17.0437c.4481-.2899.9741-.4363 1.5076-.4199.5335.0164 1.0494.195 1.4789.5118.3586.2387.6349.5818.7916.9829.1567.4012.1861.8408.0842 1.2593-.232 1.178-1.0509 1.7517-2.115 2.1676-1.8306.7182-5.0799-.3546-5.0799-.3546s.5911-1.2219.8321-1.6116c.5872-1.057 1.4517-1.9337 2.5005-2.5355Z"/>
	<g fill="#fff">
		<path d="M44.3967 33.5541h-3.7266c-.0986.0058-.1973-.0079-.2904-.0405-.0932-.0325-.1788-.0834-.2522-.1493-.0733-.0661-.1329-.146-.175-.2352-.0422-.0893-.0663-.1859-.0707-.2845v-3.2975c.0124-.196.1017-.3792.2486-.5096.1468-.1304.3392-.1975.5353-.1867h3.731c.1961-.0108.3885.0563.5353.1867.1469.1304.2361.3136.2486.5096v3.2975c-.0125.196-.1017.3791-.2486.5095-.1468.1305-.3392.1975-.5353.1868v.0132Zm9.1962-.0001h-3.7704c-.0989.0065-.198-.0068-.2916-.0391-.0937-.0323-.18-.083-.2538-.149-.0738-.0661-.1337-.1463-.1762-.2357-.0424-.0895-.0666-.1867-.071-.2856v-3.3325c.0124-.196.1018-.3792.2485-.5096.1469-.1305.3393-.1975.5353-.1868h3.7705c.1961-.0107.3885.0563.5353.1868.1468.1304.2362.3136.2486.5096v3.3325c-.0124.196-.1018.3791-.2486.5095-.1468.1304-.3392.1975-.5353.1867l.0087.0132Zm9.2182 0h-3.7704c-.0982.0053-.1965-.0089-.2891-.0417-.0926-.0328-.1778-.0838-.2507-.1497-.0729-.0659-.132-.1457-.1738-.2346-.042-.0889-.0658-.1853-.0703-.2834v-3.3325c.0124-.196.1018-.3792.2485-.5096.1469-.1305.3393-.1975.5354-.1868h3.7704c.1961-.0107.3885.0563.5353.1868.1468.1304.2362.3136.2486.5096v3.3325c-.0124.196-.1018.3791-.2486.5095-.1468.1304-.3392.1975-.5353.1867v.0132Zm9.2225 0h-3.7704c-.0981.0053-.1964-.0089-.289-.0417-.0926-.0328-.1778-.0838-.2507-.1497-.0729-.0659-.132-.1457-.1739-.2346-.0419-.0889-.0658-.1853-.0703-.2834v-3.3325c.0125-.196.1018-.3792.2486-.5096.1469-.1305.3393-.1975.5353-.1868h3.7704c.1961-.0107.3885.0563.5354.1868.1468.1304.2362.3136.2486.5096v3.3325c-.0124.196-.1018.3791-.2486.5095-.1469.1304-.3393.1975-.5354.1867v.0132Zm9.2222 0h-3.7616c-.0981.0065-.198-.0068-.2916-.0391-.0936-.0323-.18-.083-.2538-.149-.0738-.0661-.1332-.1463-.1755-.2358-.0431-.0894-.0665-.1866-.071-.2855V29.512c.0054-.0978.0315-.1935.0746-.2815.0432-.0879.1026-.1666.1764-.2313.0738-.0647.1593-.1142.252-.1457.0936-.0315.1917-.0443.2889-.0378h3.7706c.1962-.0108.3888.0563.5355.1867.1467.1305.2358.3137.2484.5096v3.3326c-.0126.196-.1017.3791-.2484.5095-.1467.1304-.3393.1975-.5355.1867l-.009.0132Zm9.2233 0h-3.7886c-.1953.006-.3852-.0651-.5283-.1978-.1431-.1327-.2286-.3164-.2376-.5116v-3.3325c.0126-.1929.099-.3733.2421-.5033.1431-.1299.3312-.1991.5238-.1931h3.7706c.1962-.0107.3888.0563.5355.1868.1467.1304.2358.3136.2484.5096v3.3325c-.0126.196-.1017.3791-.2484.5095-.1467.1304-.3393.1975-.5355.1867l.018.0132Zm9.2224 0h-3.7707c-.098.0053-.1961-.0089-.2888-.0417s-.1782-.0838-.2511-.1497c-.0729-.0659-.1314-.1457-.1737-.2346-.0423-.0889-.0657-.1853-.0702-.2834v-3.3325c.0126-.196.1017-.3792.2484-.5096.1467-.1305.3393-.1975.5354-.1868h3.7707c.1962-.0107.3875.0563.5355.1868.147.1304.236.3136.248.5096v3.3325c-.012.196-.101.3791-.248.5095-.148.1304-.3393.1975-.5355.1867v.0132Zm9.2225 0h-3.771c-.098.0053-.196-.0089-.289-.0417-.092-.0328-.178-.0838-.251-.1497-.073-.0659-.131-.1457-.173-.2346-.042-.0889-.066-.1853-.071-.2834v-3.3325c.013-.196.102-.3792.249-.5096.146-.1305.339-.1975.535-.1868h3.771c.196-.0107.389.0563.535.1868.147.1304.236.3136.249.5096v3.3325c-.013.196-.102.3791-.249.5095-.146.1304-.339.1975-.535.1867v.0132Zm9.222 0h-3.77c-.098.0053-.197-.0089-.289-.0417-.093-.0328-.178-.0838-.25-.1497-.073-.0659-.133-.1457-.175-.2346-.041-.0889-.066-.1853-.07-.2834v-3.3325c.012-.196.101-.3792.249-.5096.147-.1305.338-.1975.535-.1868h3.77c.196-.0107.389.0563.536.1868.146.1304.236.3136.248.5096v3.3325c-.012.196-.102.3791-.248.5095-.147.1304-.34.1975-.536.1867v.0132Zm9.223 0h-3.77c-.099.0053-.197-.0089-.29-.0417-.093-.0328-.177-.0838-.25-.1497-.073-.0659-.132-.1457-.174-.2346-.042-.0889-.066-.1853-.071-.2834v-3.3325c.013-.196.103-.3792.249-.5096.147-.1305.34-.1975.536-.1868h3.77c.196-.0107.388.0563.535.1868.147.1304.237.3136.249.5096v3.3325c-.012.196-.102.3791-.249.5095-.147.1304-.339.1975-.535.1867v.0132Zm9.222 0h-3.77c-.098.0053-.197-.0089-.289-.0417-.092-.0328-.178-.0838-.251-.1497-.073-.0659-.132-.1457-.173-.2346-.043-.0889-.066-.1853-.071-.2834v-3.3325c.012-.196.102-.3792.249-.5096.147-.1305.339-.1975.535-.1868h3.77c.196-.0107.389.0563.536.1868.146.1304.236.3136.248.5096v3.3325c-.012.196-.102.3791-.248.5095-.147.1304-.34.1975-.536.1867v.0132Zm9.219.0175h-3.766c-.197.0107-.389-.0563-.536-.1868-.146-.1304-.236-.3135-.248-.5095v-3.3457c.012-.196.102-.3791.248-.5095.147-.1305.339-.1975.536-.1868h3.766c.196-.0107.388.0563.535.1868.147.1304.236.3135.249.5095v3.3413c-.012.1968-.1.3811-.248.5124-.147.1313-.34.199-.536.1883ZM40.0088 3.27641h6.0214v1.0291h-4.8478v2.59686h2.4567c.4532-.00846.905.05211 1.3401.17954.3483.10322.6708.27933.9459.51673.2503.22183.4427.50144.5604.81452.1267.34485.1891.70995.184 1.07729.0057.36312-.0567.72395-.184 1.06415-.1169.3153-.304.5998-.5473.8321-.2518.2348-.5502.4139-.8759.5254-.3806.1287-.7806.1909-1.1823.184h-3.8712V3.27641Zm1.1736 7.77309h2.5443c.2243.0012.4478-.0252.6656-.0789.1948-.0463.3771-.1345.5343-.2583.1556-.1276.2775-.2916.3547-.4773.0923-.23555.1355-.48744.127-.74014.0071-.25206-.0392-.50278-.1358-.73568-.0835-.19186-.2165-.35808-.3853-.48173-.1828-.12743-.3901-.21544-.6087-.25837-.268-.05498-.541-.08144-.8145-.07883h-2.2816v3.10925Zm5.9907 1.029 3.3019-8.93788h1.432l3.1924 8.93788h-1.3137l-.9285-2.69316h-3.4595l-.9809 2.69316h-1.2437Zm5.3601-3.62592-1.34-3.91499-1.4846 3.91499h2.8246Zm3.6522-5.17617h1.1649v3.63037h4.6814V3.27641h1.178v8.80209h-1.178V7.93584h-4.6814v4.14266h-1.1736l.0087-8.80209Zm8.8548 0h1.1736v4.28723l4.2741-4.28723H72.13l-3.6653 3.55154 3.766 5.25495h-1.5108l-3.1005-4.43611-1.4232 1.37076v3.06535h-1.1736l.0176-8.80649ZM111.407 14.3732h6.012c.442-.006.884.0411 1.314.1402.346.0812.679.211.99.3853.498.2816.9.7075 1.152 1.2218.108.2241.187.461.237.705.045.225.068.4538.069.6832.003.281-.025.5615-.083.8364-.052.2372-.14.4648-.263.6744-.124.2087-.282.3952-.469.5518-.21.1731-.441.3202-.687.438.366.1264.705.3211.999.5736.235.2096.429.4604.573.7401.131.2573.221.5337.267.8189.043.2693.065.5417.066.8145.012.5431-.099 1.0819-.324 1.5765-.211.4491-.524.8422-.915 1.1474-.429.3256-.917.5651-1.436.705-.612.1671-1.245.2481-1.88.2409h-5.622v-12.253Zm2.461 4.8171h3.161c.217.001.433-.024.645-.0744.196-.0455.382-.1289.547-.2452.159-.1143.29-.2642.381-.438.099-.1997.147-.4209.14-.6437.009-.223-.034-.445-.127-.6481-.081-.1628-.203-.3017-.354-.4029-.16-.1044-.339-.1759-.526-.2103-.21-.0393-.422-.0583-.635-.0568h-3.227l-.005 2.7194Zm0 5.312h3.192c.265.0022.528-.0317.784-.1008.225-.059.436-.1617.622-.3021.175-.1372.315-.3144.407-.5167.101-.2334.151-.4859.144-.7401.018-.3021-.043-.6035-.174-.8759-.108-.2035-.268-.3744-.465-.4948-.199-.1185-.422-.1959-.652-.2278-.245-.0358-.492-.0533-.74-.0525h-3.127l.009 3.3107Zm9.87-10.1291h8.995v2.1107h-6.538v2.7195h6.013v2.1195h-6.013v3.0917h6.828v2.2158h-9.285V14.3732Zm11.474 0h2.562v4.9879l4.685-4.9879h3.311l-5.005 5.0184 5.294 7.2388h-3.245l-3.792-5.4301-1.253 1.2743v4.1515h-2.557V14.3732Zm-95.1594 0h2.5706v4.6594h4.8171v-4.6594h2.5618v12.2616h-2.5618v-5.4827h-4.8171v5.4783h-2.5706V14.3732Zm11.8894 6.1264c-.0075-.8647.1165-1.7256.3679-2.553.2245-.7463.5985-1.4391 1.0992-2.0364.5037-.5853 1.1341-1.048 1.8436-1.3531.8174-.3426 1.6977-.5097 2.5837-.4905.8431-.0135 1.6793.1537 2.4523.4905.7167.3099 1.3577.7716 1.8787 1.3531.5144.5996.9057 1.2945 1.1517 2.0451.5442 1.6556.5442 3.4418 0 5.0974-.2463.7492-.6377 1.4426-1.1517 2.0407-.5147.5791-1.148 1.0405-1.8567 1.3532-.7731.3367-1.6093.5039-2.4524.4904-.8861.0193-1.7663-.1478-2.5837-.4904-.7173-.3022-1.3555-.7652-1.8655-1.3532-.5018-.5998-.8758-1.2957-1.0992-2.0451-.2508-.826-.3749-1.6854-.3679-2.5487Zm5.8944 4.2171c.4857.0091.9663-.099 1.4014-.3152.4102-.2096.768-.509 1.0466-.8759.2974-.3941.52-.8393.6568-1.3137.2998-1.1055.2998-2.2708 0-3.3764-.1368-.4743-.3594-.9196-.6568-1.3137-.2786-.3669-.6364-.6662-1.0466-.8758-.4377-.2089-.9165-.3173-1.4014-.3173-.485 0-.9637.1084-1.4013.3173-.4103.2096-.768.5089-1.0466.8758-.2964.3947-.5189.8398-.6569 1.3137-.3061 1.1047-.3061 2.2718 0 3.3764.138.4739.3605.919.6569 1.3137.2786.3669.6363.6663 1.0466.8759.4359.2184.9181.328 1.4056.3197l-.0043-.0045Zm8.0402-10.3435h6.0126c.442-.0062.883.0409 1.3142.1401.3455.0812.6794.211.989.3853.4985.2816.8999.7075 1.1519 1.2218.1089.224.1881.461.2367.705.0458.2249.0692.4538.0701.6833.0027.2809-.0252.5614-.0836.8363-.0522.2372-.1404.4647-.2628.6744-.1152.2064-.2628.3928-.4374.5518-.2106.1732-.4418.3203-.6875.438.3563.1293.6857.3239.9719.5736.2421.2106.4428.4646.5912.7488.1314.2574.2214.5337.2673.8189.0432.2694.0648.5418.0657.8146.0054.5379-.108 1.0704-.333 1.559-.2105.449-.5246.8422-.9152 1.1473-.4301.3261-.9197.5656-1.4408.7051-.6121.1671-1.2444.2482-1.8787.2408h-5.6316V14.3732Zm2.4611 4.817h3.1618c.2167.0009.4328-.0241.6437-.0744.1967-.0453.3826-.1287.5474-.2453.1595-.1141.2896-.2641.3814-.4379.099-.1997.1467-.4209.1395-.6437.0081-.2234-.0369-.4455-.1314-.6481-.081-.163-.2034-.3019-.3545-.4029-.1594-.1044-.338-.176-.5255-.2102-.2094-.0394-.4219-.0585-.6349-.0569h-3.2275v2.7194Zm0 5.312h3.1924c.2646.0023.5284-.0317.7839-.1008.225-.059.4363-.1617.6221-.3021.1746-.1371.315-.3143.4067-.5167.1026-.2331.1521-.4858.1449-.7401.0162-.3021-.0441-.6035-.1754-.8759-.108-.2035-.2682-.3744-.464-.4948-.2-.1191-.4219-.1966-.6526-.2278-.2436-.0356-.4894-.0532-.7357-.0525h-3.1267l.0044 3.3107Zm9.871-10.129h2.5612v4.817h3.1488c.3096.015.6174.056.9197.1227.3393.0728.6696.183.9854.3284.3285.1571.6255.3739.8757.6394.2852.3033.5075.6607.6524 1.051.18.504.2646 1.0372.2502 1.5721.0144.5307-.0702 1.0594-.2502 1.559-.1449.3862-.3618.7414-.6389 1.0466-.2484.2662-.5463.4818-.8766.635-.2924.1396-.5993.2482-.9152.324-.2681.0659-.5426.107-.8189.1226h-5.8936V14.3732Zm2.5612 10.1509h2.1895c.2421.0002.4833-.016.7226-.0482.2394-.0314.4707-.1056.6831-.2189.2133-.1147.3905-.2859.5129-.4949.1449-.2683.2151-.571.2016-.8758.0162-.3144-.0513-.6276-.1971-.9065-.1242-.2217-.3095-.4027-.5345-.5211-.2223-.115-.4644-.1863-.7137-.2102-.2645-.0286-.5309-.0432-.7973-.0439h-2.0671v3.3195Zm8.5042-10.1509h2.5621v12.2616h-2.5621V14.3732Zm4.8614 0h2.4613v8.3466h.0351l4.8511-8.3466h2.593v12.2616h-2.496v-8.3029l-4.8608 8.2985h-2.5837V14.3732Z"/>
		<path d="M99.1149 15.6364h-1.5065l1.2869-2.4567h1.8087l-1.5891 2.4567Z"/>
	</g>
</svg>