<svg xmlns="http://www.w3.org/2000/svg" viewBox="0 0 154 40">
	<path fill="#fff" d="M80.31 7.09525c-.0208-.02161-.0316-.04904-.0316-.07896l.0025-.09724c.0009-.05984.0499-.10805.1097-.10805h1.7736c5.2502 0 7.4269 3.4383 6.4362 7.3562-.4862 1.9207-2.1019 3.3503-4.0592 3.6586 3.1292.7455 5.192 3.4973 5.192 6.9581 0 3.6253-3.0718 6.9648-6.6389 6.9648-3.8282 0-6.9839-2.7261-7.8092-5.2876L70.822 12.2698V28.297c0 1.8351 1.4877 3.3228 3.3228 3.3228h.5377c.0366 0 .0682.0175.0881.0449.0133.0183.0216.0408.0216.0649v.1545c0 .0607-.049.1098-.1097.1098h-7.3279c-.0615 0-.1106-.0491-.1106-.1098v-.1545c0-.0607.0491-.1098.1106-.1098h.2177c1.2558 0 2.2739-1.0181 2.2739-2.2739V9.46642c0-1.18185-.689-2.07447-1.7702-2.07447h-.4904c-.0357 0-.0673-.01662-.0873-.04238-.0149-.01829-.0232-.04156-.0232-.06732v-.1762c0-.06067.049-.10971.1105-.10971h4.4623c2.0478 0 3.9519 1.64063 4.5545 3.59626l6.2126 20.1288V9.19797c0-1.14278-.9267-2.06948-2.0695-2.06948h-.3565c-.0175 0-.0341-.00415-.0491-.01163-.0108-.00499-.0207-.01247-.0299-.02161ZM95.5427 20c0-9.8138-7.9845-17.79837-17.7983-17.79837C67.9297 2.20163 59.946 10.1862 59.946 20c0 9.8138 7.9837 17.7984 17.7984 17.7984 9.8138 0 17.7983-7.9846 17.7983-17.7984Zm-37.7992 0c0-11.04555 8.9545-20 20.0009-20 11.0455 0 20 8.95445 20 20 0 11.0455-8.9545 20-20 20-11.0464 0-20.0009-8.9545-20.0009-20Zm76.3785 5.7256 1.301-6.1195-4.786-.0009-1.222 5.6175c-.052.2186-.083.4289-.083.6284 0 .1994.036.3598.103.4828h-2.347c-.299 0-.449-.1138-.449-.3415 0-.0374.012-.1239.037-.2668l2.6-11.9482c.049-.1787.077-.3632.077-.5435 0-.192-.044-.3665-.135-.5203h2.379c.29 0 .433.0981.433.2934 0 .0274-.011.1263-.039.29l-.985 4.4856h4.831l.883-4.0235c.056-.2044.082-.3922.082-.5635 0-.1496-.041-.31-.119-.4812h2.384c.288 0 .433.0981.433.2934 0 .0183-.006.0673-.018.1455l-.022.1446-2.601 11.9248c-.05.2195-.077.4339-.077.6292 0 .1995.032.3599.098.4829h-2.345c-.302 0-.454-.1147-.454-.3416 0-.0108.006-.0449.015-.1014l.026-.1662ZM49.7573 12.0504c1.5941 0 2.741.3299 3.4492.9799.4737.4346.7887 1.0314.9441 1.786.0756.369.113.7763.113 1.2209 0 .8095-.1138 1.7695-.3507 2.8749-.2967 1.3846-.615 2.5099-.94 3.3785-.3241.866-.7264 1.5641-1.2018 2.0894-.4762.5253-1.0771.9034-1.8002 1.1378-.7289.2369-1.6572.3565-2.7743.3565-1.0364 0-1.8666-.1446-2.5074-.4321-.468-.2103-.8428-.5079-1.1254-.8918-.1005-.1372-.1895-.2851-.2668-.4439-.2917-.6025-.4355-1.3854-.4355-2.3462 0-.9957.1197-2.249.4488-3.7392.3125-1.4129.7323-2.5258 1.1669-3.3585.4347-.832 1.068-1.4744 1.9041-1.9291.8345-.4537 1.9615-.6831 3.376-.6831Zm.4546 10.1022c.3275-.684.625-1.6332.8852-2.8516.2884-1.353.428-2.3803.428-3.0793 0-.7704-.1579-1.348-.4746-1.7362-.3141-.3856-.8444-.5776-1.5866-.5776-.3615 0-.6923.0407-.9915.1222-.2244.0615-.4313.1463-.62.2551-.438.2527-.8253.7173-1.1627 1.3897-.3341.6665-.6342 1.6123-.8935 2.844-.177.8411-.2942 1.5675-.3565 2.1801-.0341.3407-.0507.6466-.0507.9167 0 .8668.167 1.4794.4961 1.8459.3317.369.8445.551 1.5401.551.6433 0 1.1868-.1371 1.6315-.4155.443-.2768.8278-.7588 1.1552-1.4445Zm-10.3997 1.8808-.2884 1.3847c-.0308.1363-.0665.216-.1139.2343-.0457.025-.187.0341-.4338.0341h-1.7063c-.1263 0-.2311-.0233-.3142-.0748-.0407-.0249-.0756-.0557-.1064-.0939-.0906-.1139-.182-.3258-.2618-.6375l-1.4918-6.5508-2.0388 1.8833-.9749 4.3791c-.0299.1463-.0531.2701-.0698.3724-.0182.118-.0282.2069-.0282.2676 0 .1604.0457.3141.1354.4546h-2.3271c-.3008 0-.4513-.1097-.4513-.3324 0-.0133.0042-.0491.0142-.1081l.0282-.1571 2.5599-11.801c.0573-.2011.0806-.3831.0806-.5552 0-.1488-.0374-.3058-.1172-.4762h2.3537c.2842 0 .4272.0947.4272.29 0 .0266-.0133.123-.0407.2859l-1.0265 4.6909 4.597-4.2362c.2335-.2012.3523-.4505.3523-.7622 0-.1238-.0141-.2127-.0382-.2684h2.5432c.3125 0 .468.0831.468.2477 0 .1279-.1231.3149-.3682.5543L37.057 16.924l1.4744 6.2002c.0582.3175.1396.546.2385.694.0973.1437.3367.2152.714.2152h.3283ZM19.9028 12.8333l-1.7687 8.2862 6.3772-7.667c.0598-.2951.0906-.5361.0906-.7181 0-.2012-.0308-.3599-.0906-.4763h2.3496c.2834 0 .4263.0948.4263.2901 0 .0432-.0149.1405-.0415.2859l-2.5624 11.7587c-.0673.2884-.1014.5044-.1014.6399 0 .1704.0483.3225.1405.4555h-2.3338c-.2983 0-.4454-.1106-.4454-.3333 0-.0374.0124-.1238.0374-.2651l1.7877-8.1475-6.3672 7.5424c-.0781.3807-.1205.635-.1205.7696 0 .1638.0424.3109.1205.433h-2.3363c-.1728 0-.295-.0382-.3665-.1155-.049-.0532-.074-.1255-.074-.2169 0-.0382.0125-.1238.0341-.2651l2.5673-11.7811c.0491-.1795.074-.3599.074-.5378 0-.1903-.0399-.3607-.1338-.5136h2.3471c.2859 0 .4288.0948.4288.2909 0 .0258-.0133.123-.039.2851ZM7.38115 25.0889l1.28241-6.0364H3.94282l-1.20346 5.5394c-.05236.2178-.08228.4247-.08228.6209 0 .1961.03657.354.1014.4745H.444648C.14877 25.6873 0 25.5768 0 25.3549c0-.0216.00332447-.0574.0108045-.1097l.0241024-.1554L2.60472 13.3078c.04821-.1795.07231-.359.07231-.5369 0-.1911-.04156-.3615-.13381-.5136h2.3479c.28591 0 .4272.0948.4272.2901 0 .0266-.01247.123-.03823.285l-.97075 4.4224h4.7623l.87018-3.9669c.05319-.2003.08148-.3856.08148-.5544 0-.1496-.03992-.3066-.11722-.4762h2.34962c.1496 0 .2601.0258.3316.0781.0648.0482.0972.1189.0972.212 0 .0266-.0133.123-.0399.285l-2.564 11.7595c-.0249.1047-.044.207-.0565.3075-.0141.1072-.0216.212-.0216.3125 0 .0923.0066.1762.0208.251.0166.0856.0424.1596.0764.2236H7.78923c-.29837 0-.4488-.1097-.4488-.3324 0-.0167.00831-.069.02327-.1571l.01745-.1081ZM123.722 13.3403l.237 12.4509c0 .1854.053.3641.158.5436h-2.264c-.148 0-.25-.0349-.31-.1031-.054-.0698-.085-.1886-.085-.359l-.038-3.0777h-4.391l-1.357 2.5973c-.03.0565-.056.1114-.079.1645-.069.1638-.103.3109-.103.4356 0 .0814.007.1504.022.2086.013.0532.032.0972.056.1329h-2.226c-.155 0-.235-.0556-.235-.1703 0-.0906.032-.1895.101-.2909l6.67-12.1568c.121-.2186.181-.4222.181-.6067 0-.1637-.043-.2967-.121-.3948h3.153c.422 0 .631.2086.631.6259Zm-5.869 7.8823h3.566v-6.8784l-3.566 6.8784Zm-14.237-8.0053c0-.217-.036-.384-.102-.5029h8.195l-.236.8802c-.066.2585-.154.4222-.251.4854-.097.0639-.318.0972-.654.0972h-4.454l-.787 3.617h2.74c.674 0 1.247.0973 1.721.3142.333.1521.607.3607.826.6241.093.1114.176.2328.25.3641.131.2327.227.4953.289.787.055.2602.083.5436.083.8503 0 .4446-.057.9342-.177 1.4711-.217.9682-.496 1.7495-.822 2.3437-.328.5943-.782 1.0397-1.365 1.3381s-1.354.448-2.305.448h-5.197c-.177 0-.302-.0399-.375-.1189-.051-.0548-.076-.1296-.076-.2227 0-.0374.013-.1239.038-.2676l2.601-11.9665c.019-.0889.033-.177.043-.2643.01-.0947.015-.1878.015-.2775Zm4.822 7.9612c0-1.1295-.635-1.6955-1.909-1.6955h-1.576l-1.064 4.961h1.992c.692 0 1.226-.1746 1.605-.5236.379-.3499.651-.9782.857-1.88.06-.2585.095-.5469.095-.8619Zm43.724 3.4774-.293 1.4046c-.029.1363-.065.2186-.115.2394-.047.0224-.19.034-.439.034h-1.729c-.193 0-.334-.0548-.428-.172-.093-.1147-.184-.3316-.268-.6466l-1.511-6.6423-2.068 1.9099-.988 4.4398c-.068.3175-.099.5336-.099.65 0 .1637.045.315.139.4612h-2.36c-.306 0-.46-.1138-.46-.3415 0-.0183.015-.1098.044-.2668l2.597-11.9665c.056-.2044.082-.3889.082-.5643 0-.0723-.01-.1471-.029-.2244-.02-.0823-.051-.1679-.092-.2568h2.387c.289 0 .432.0981.432.2934 0 .0274-.012.1263-.04.29l-1.041 4.7574 4.663-4.2953c.237-.2044.354-.4571.354-.7729 0-.1263-.012-.2153-.036-.2726h2.577c.318 0 .475.0831.475.2518 0 .1305-.124.3167-.373.5619l-4.175 3.9212 1.496 6.2874c.06.3191.142.5527.241.6989.098.148.342.2211.725.2211h.332Z"/>
</svg>