<svg xmlns="http://www.w3.org/2000/svg" viewBox="0 0 160 32">
	<g fill="#fff">
		<path d="M59.2503 23.0401v.8796h.7996c.3198 0 .6397.08.7996.2399.3998.2399.5597.7196.5597 1.3593 0 .3998-.0799.6397-.1599.8796-.2399.3998-.6397.5597-1.1994.5597h-1.7591v-4.8776h2.8785v.9595h-1.919Zm0 1.7592v1.1994h.6397c.2399 0 .3198 0 .4797-.08.08-.08.16-.2399.16-.3998 0-.2399-.08-.3998-.16-.4798-.0799-.0799-.2398-.0799-.3998-.0799l-.7196-.1599Zm3.5182-2.7187h.9596l1.3593 4.8776h-.9595l-.2399-.8796h-1.1994l-.2399.8796h-.9595l1.2793-4.8776Zm.08 3.1185h.7996l-.3998-1.8391-.3998 1.8391Zm3.3583-.3998v2.0789h-.9595v-4.8775h.9595v1.839h1.1994v-1.839h.9595v4.8775h-.9595v-2.0789h-1.1994Zm3.8381-.7197 1.1194-2.0789h1.0395l-1.4393 2.2388 1.5193 2.6387h-1.1195l-1.1194-2.3988v2.3988h-.9595v-4.8775h.9595v2.0789Zm-10.8746-7.5162 1.3594-3.1185h.8795v4.8776h-.9595v-3.1184l-1.2794 3.1184h-.9595v-4.8776h.9595v3.1185Zm3.998-.3199v2.079h-.9595v-4.8776h.9595v1.8391h1.1994v-1.8391h.9596v4.8776h-.9596v-2.079h-1.1994Zm2.8786-2.7186h1.8391c.3998 0 .7196.1599.9595.3998.1599.2399.2399.4798.2399.7996 0 .2399-.08.4798-.1599.6397-.08.1599-.2399.2399-.4798.3198l.4798.2399c.2398.2399.3198.5597.3198.9595 0 .5597-.1599.8796-.4798 1.1195-.2398.1599-.5597.2398-.9595.2398h-1.7591v-4.7176Zm.8796.8796v.9595h.7196c.08 0 .2399-.08.2399-.1599 0 0 .0799-.08.0799-.16v-.2398c0-.16 0-.2399-.0799-.3199-.08-.0799-.1599-.1599-.3199-.1599h-.6396v.08Zm0 1.919v1.1194h.7996c.1599 0 .2398-.0799.3198-.1599.08-.0799.1599-.2399.1599-.3998s-.0799-.3198-.1599-.3998c-.08-.0799-.2399-.1599-.3998-.1599h-.7196Zm3.7581-.8796h1.7591v.8796h-1.7591v1.1194h1.999v.9596h-2.9585v-4.8776h2.8785v.9595h-1.999l.08.9595Zm4.7976 1.1994h.8796c-.08.6397-.2399 1.1195-.4798 1.3594-.2399.3198-.6397.4797-1.1994.4797s-.9595-.1599-1.2794-.5597c-.3198-.3998-.4797-1.0395-.4797-1.919 0-.7197.0799-1.3594.3198-1.7592.3198-.5597.7996-.8795 1.4393-.8795s1.1194.2399 1.3593.7196c.1599.3199.2399.6397.2399 1.0395h-.8796c0-.3198-.0799-.5597-.2399-.7196-.0799-.08-.2398-.16-.4797-.16s-.3998.08-.4798.2399c-.1599.2399-.3198.7197-.3198 1.4393 0 .6397.08 1.0395.3198 1.2794.16.1599.3199.2398.5597.2398.2399 0 .3998-.0799.4798-.1599.08-.0799.1599-.3198.2399-.6397Zm1.999-2.2388h-1.0395v-.9596h3.0385v.9596h-1.0395v3.918h-.9595v-3.918Zm3.3583 2.1589 1.3593-3.1185h.9596v4.8776h-.9596v-3.1184l-1.3593 3.1184H79.88v-4.8776h.9595v3.1185Zm3.9181.8795h1.2793v-3.918h.9595v3.918h.4798v2.079h-.7996v-1.1194H83.878v-4.8776h.9595l-.0799 3.918Zm3.998-.8795 1.3593-3.1185h.9595v4.8776h-.9595v-3.1184l-1.3593 3.1184h-.9596v-4.8776h.9596v3.1185Zm4.6376 1.919c-.4797 0-.8795-.1599-1.1994-.4797-.2398-.2399-.3998-.6397-.4797-1.0395 0-.1599-.08-.3199-.08-.4798v-.5597c0-.3198 0-.7196.08-.9595.0799-.4798.2399-.7996.4797-1.0395.3199-.3198.7197-.4798 1.1994-.4798.6397 0 1.1994.3199 1.4393.8796.2399.3998.3199 1.0395.3199 1.6792 0 .7196-.08 1.2793-.3199 1.6791-.2399.5597-.7196.7996-1.4393.7996Zm0-.9595c.2399 0 .3998-.08.5598-.2399.1599-.2399.3198-.7196.3198-1.3593 0-.6397-.08-1.1194-.3198-1.3593-.16-.1599-.3199-.2399-.5598-.2399-.2398 0-.3998.08-.5597.2399-.1599.2399-.3198.7196-.3198 1.3593 0 .6397.0799 1.1194.2399 1.3593.2398.1599.3998.2399.6396.2399Zm3.3584-1.2794v2.079h-.9596v-4.8776h.9596v1.8391h1.1994v-1.8391h.9595v4.8776h-.9595v-2.079h-1.1994Zm3.8384 0v2.079h-.9599v-4.8776h.9599v1.8391h1.199v-1.8391h.96v4.8776h-.96v-2.079h-1.199Zm4.477 2.2389c-.479 0-.879-.1599-1.199-.4797-.24-.2399-.4-.6397-.48-1.0395 0-.1599-.08-.3199-.08-.4798v-.5597c0-.3198 0-.7196.08-.9595.08-.4798.24-.7996.48-1.0395.32-.3198.72-.4798 1.199-.4798.64 0 1.2.3199 1.44.8796.24.3998.32 1.0395.32 1.6792 0 .7196-.08 1.2793-.32 1.6791-.24.5597-.72.7996-1.44.7996Zm0-.9595c.24 0 .4-.08.56-.2399.16-.2399.32-.7196.32-1.3593 0-.6397-.08-1.1194-.32-1.3593-.16-.1599-.32-.2399-.56-.2399-.239 0-.399.08-.559.2399-.16.2399-.32.7196-.32 1.3593 0 .6397.08 1.1194.24 1.3593.24.1599.4.2399.639.2399Zm2.479-.5597v-.8796h1.519v.8796h-1.519Zm3.279-2.5587v3.918h-.96v-4.8776h3.118v4.8776h-.959v-3.918h-1.199Zm2.958-.8796h1.679c.4 0 .72.08.96.3198.24.2399.4.6397.4 1.1994 0 .6397-.16 1.1195-.56 1.3594-.24.1599-.48.2398-.88.2398h-.719v1.6792h-.96l.08-4.7976Zm.88.8796v1.2793h.639c.16 0 .32-.0799.4-.1599.08-.08.16-.2399.16-.4798 0-.2398-.08-.4797-.24-.5597-.08-.0799-.16-.0799-.32-.0799h-.639Zm4.237 4.0779c-.479 0-.879-.1599-1.199-.4797-.24-.2399-.4-.6397-.48-1.0395 0-.1599-.08-.3199-.08-.4798v-.5597c0-.3198 0-.7196.08-.9595.08-.4798.24-.7996.48-1.0395.32-.3198.72-.4798 1.199-.4798.64 0 1.2.3199 1.44.8796.24.3998.32 1.0395.32 1.6792 0 .7196-.08 1.2793-.32 1.6791-.24.5597-.72.7996-1.44.7996Zm0-.9595c.24 0 .4-.08.56-.2399.16-.2399.32-.7196.32-1.3593 0-.6397-.08-1.1194-.32-1.3593-.16-.1599-.32-.2399-.56-.2399-.239 0-.399.08-.559.2399-.16.2399-.32.7196-.32 1.3593 0 .6397.08 1.1194.24 1.3593.24.1599.4.2399.639.2399Zm4.158.7996-.799-3.1184v3.1184h-.96v-4.8776h1.28l.799 3.1984.8-3.1984h1.279v4.8776h-.959v-3.1184l-.8 3.1184h-.64Zm4.158-4.7976v1.7591h.8c.48 0 .8.1599 1.039.4798.24.2399.32.6397.32 1.1194 0 .4798-.08.8796-.32 1.1195-.239.2398-.559.3998-1.039.3998h-1.679v-4.8776h.879Zm-.08 2.6387v1.2793h.64c.16 0 .32-.0799.4-.1599.08-.0799.08-.2399.08-.4797 0-.16 0-.3199-.08-.3998-.08-.08-.24-.16-.4-.16h-.64v-.0799Zm2.399-2.6387h.96v4.8776h-.96v-4.8776Zm2.639 3.918h1.039v-3.918h.96v3.918h1.039v-3.918h.96v4.8776h-4.798v-4.8776h.96l-.16 3.918Zm4.238.8796v-.9595h.16c.319 0 .479-.1599.559-.5597.08-.2399.08-.5598.08-1.0395v-2.3189h2.719v4.8776h-.96v-3.918h-.879v1.6791c0 .6397-.08 1.0395-.16 1.4393-.24.5597-.56.7996-1.119.7996-.08.08-.24.08-.4 0Zm5.277-2.8786h1.759v.8796h-1.759v1.1194h1.999v.9596h-2.958v-4.8776h2.878v.9595h-1.999l.08.9595Zm3.358.7996v2.079h-.959v-4.8776h.959v1.8391h1.2v-1.8391h.959v4.8776h-.959v-2.079h-1.2Zm3.839 0v2.079h-.96v-4.8776h.96v1.8391h1.199v-1.8391h.959v4.8776h-.959v-2.079h-1.199Zm3.838-2.7186v1.7591h.799c.48 0 .8.1599 1.04.4798.24.2399.32.6397.32 1.1194 0 .4798-.08.8796-.32 1.1195-.24.2398-.56.3998-1.04.3998h-1.679v-4.8776h.88Zm0 2.6387v1.2793h.639c.16 0 .32-.0799.4-.1599.08-.0799.16-.2399.16-.4797 0-.16 0-.3199-.08-.3998-.08-.08-.24-.16-.4-.16h-.719v-.0799Zm2.318-2.6387h.96v4.8776h-.96v-4.8776Zm2.639 3.0385 1.359-3.1185h.96v4.8776h-.96v-3.1184l-1.359 3.1184h-.959v-4.8776h.959v3.1185Zm-.4-4.2379h.64c0 .08 0 .2399.08.3198.08.08.16.16.32.16s.24-.08.32-.16c.08-.0799.08-.1599.08-.3198h.639c0 .3198-.16.5597-.32.7196-.159.16-.399.2399-.719.2399-.32 0-.56-.0799-.72-.2399-.24-.2398-.32-.4797-.32-.7196ZM59.0904 7.92769v2.07901h-.9595V5.12909h.9595v1.83908h1.1994V5.12909h.9595v4.87761h-.9595V7.92769h-1.1994Zm3.8381-2.7986h.9595l1.3593 4.87761h-.9595l-.3199-.87961h-1.1994l-.2398.87961h-.9596l1.3594-4.87761Zm.0799 3.11844h.7996l-.3998-1.83908-.3998 1.83908Zm3.4383.7996h1.2794V5.12909h.9595v3.91804h.4797v2.07897h-.7996v-1.1194h-2.7986V5.12909h.9596l-.08 3.91804Zm4.1579-.7996 1.3593-3.11844h.9596v4.87761h-.9596V6.88821l-1.3593 3.11849h-.9595V5.12909h.9595v3.11844Zm4.7177 1.91907c-.4798 0-.8796-.16-1.1994-.47979-.2399-.23988-.3998-.63968-.4798-1.03948 0-.15992-.08-.31984-.08-.47976v-.55972c0-.3998 0-.71964.08-.95952.08-.47976.2399-.7996.4798-1.03948.3198-.31984.7196-.47976 1.1994-.47976.6396 0 1.1994.31984 1.5192.87956.2399.3998.3199 1.03948.3199 1.67916 0 .71964-.08 1.27936-.3199 1.67916-.3198.47976-.7996.79963-1.5192.79963Zm0-.95955c.2398 0 .3998-.07996.5597-.23988.1599-.23988.3198-.71964.3198-1.35932 0-.63968-.0799-1.11944-.3198-1.35932-.1599-.15992-.3199-.23988-.5597-.23988-.2399 0-.3998.07996-.5598.23988-.1599.23988-.3198.71964-.3198 1.35932 0 .63968.08 1.11944.2399 1.35932.2399.15992.3998.23988.6397.23988Zm3.4383-1.27936v2.07901h-.9596V5.12909h.9596v1.83908H79.96V5.12909h.9595v4.87761H79.96V7.92769h-1.1994Zm3.838-2.7986h.9596l1.3593 4.87761h-.9595l-.2399-.87961h-1.1994l-.2399.87961h-.9595l1.2793-4.87761Zm.08 3.11844h.7996l-.3998-1.83908-.3998 1.83908Zm2.4788 1.75917v-.95957h.1599c.3198 0 .4797-.15992.5597-.55972.08-.23988.08-.55972.08-1.03948V5.12909h2.7186v4.87761h-.9595V6.08861h-.8796v1.67916c0 .63968-.0799 1.11944-.1599 1.43928-.2399.55972-.5597.79965-1.1194.79965-.08.0799-.2399 0-.3998 0Zm5.1174-4.87761v1.75912h.7996c.4798 0 .8796.15992 1.1194.47976.16.23988.2399.63968.2399 1.03948 0 .55972-.0799.87956-.3198 1.11944-.2399.23988-.5597.31984-1.0395.31984h-1.6792V4.96917h.8796v.15992Zm0 2.71864v1.1994h.6397c.1599 0 .3198-.07996.3998-.15992.0799-.07996.1599-.23988.1599-.47976s-.08-.3998-.1599-.47976c-.08-.07996-.2399-.07996-.4798-.07996h-.5597Zm3.5982.07996v2.07901h-.9595V5.12909h.9595v1.83908h1.1994V5.12909h.9595v4.87761h-.9595V7.92769H93.873Zm3.998-2.7986v1.75912h.7996c.4798 0 .7996.15992 1.0395.47976.2399.23988.3199.63968.3199 1.11944 0 .47976-.08.87956-.3199 1.11944-.2399.23988-.5597.39985-1.0395.39985h-1.6792V5.12909h.8796Zm0 2.71864v1.1994h.6397c.1599 0 .3198-.07996.3998-.15992.0799-.07996.0799-.23988.0799-.47976 0-.15992 0-.31984-.0799-.3998-.08-.07996-.2399-.15992-.3998-.15992h-.6397Zm2.319-2.71864h.959v4.87761h-.959V5.12909Zm2.718 3.11844 1.36-3.11844h.959v4.87761h-.959V6.88821l-1.36 3.11849h-.959V5.12909h.959v3.11844Zm-.399-4.31784h.639c0 .07996 0 .23988.08.31984s.16.15992.32.15992.24-.07996.32-.15992c.08-.07996.08-.15992.08-.31984h.64c0 .31984-.16.55972-.32.71964-.16.15992-.4.23988-.72.23988-.32 0-.56-.07996-.719-.23988-.16-.15992-.32-.3998-.32-.71964ZM35.5823 8.88672h1.6791L33.8231 19.4414h-1.5992l3.3584-10.55468Zm2.7186 2.79858h1.5992l-3.4383 10.4748h-1.5192l3.3583-10.4748Zm-9.8351 7.7561h.6397l1.5992-5.0374 1.2794 3.998.8795-2.6387-1.5992-4.7177-2.7986 8.3958Zm3.1185-9.4352.3198-.8796 1.4393 4.9575-.3199.9595-1.4392-5.0374Zm16.0719 3.3583c.08.2399.08.3198.08.6397h4.7976c0-.2399 0-.2399-.08-.5598-1.5992-.0799-3.1984-.0799-4.7976-.0799Z"/>
		<path d="M52.3739 12.8025h-4.8776c-.0799-.1599-.1599-.3998-.3198-.5597-.08-.16-.3998-.4798-.3998-.5598h1.5992c0-.2398-.08-.3198-.08-.3998-1.6791-4.55769-5.0375-9.03545-12.2339-9.27533-9.1154 0-14.6327 6.63668-14.8725 13.99303h-.3199C20.9496 7.36519 27.1865.248745 36.062.00886475 43.5783-.231015 50.6148 4.40667 52.3739 12.8025Z"/>
		<path d="m34.3828 19.4414 3.4383-10.55468h.4798L34.9425 19.5214l-.5597-.08Zm2.7187 2.7187 3.3583-10.4748h.6397l-3.3584 10.4748h-.6396Zm4.0779-9.1954c.08-.3199.2399-.8796.3998-1.3593h3.8381c2.3988.3998 2.1589 4.7176-.4798 5.1974 1.999 1.5192.2399 5.1974-1.919 5.1974h-4.7176c.0799-.2399.2398-.6397.3198-.8796 1.4393-.08 2.7986 0 4.2379 0 1.8391-1.0395 2.1589-3.0385 1.1194-4.3178 2.7986-.8796 1.9191-3.9181.9595-3.9181-1.5192.08-2.3988.1599-3.7581.08Z"/>
		<path d="M38.7006 20.6388c.08-.1599.1599-.4798.2399-.6397h3.0385c.7196-.3198.8795-1.0395.7196-1.6792h-3.2784c.16-.3998.3199-.9595.4798-1.4392h3.3583c1.0395.6396.5597 3.2783-.7196 3.6781l-3.8381.08Zm1.3593-4.2379h3.3583c.9596-.1599 1.5992-1.1994 1.6792-1.8391 0-.3198-.1599-.8795-.4798-.9595h-3.6781l-.1599.3998h3.3583c.4797.4798 0 1.7591-.8796 1.8391h-3.1184l-.08.5597ZM25.827 19.5193l3.4383-10.63464h2.079L27.986 19.4394l-2.159.0799Zm12.9536-9.3553.3998-1.27934h1.5992l-.3998 1.35934-1.5992-.08Zm2.0789 0 .3998-1.27934h.6397l-.3998 1.35934-.6397-.08Zm-2.3988.9595.1599-.4797h1.5992l-.1599.4797h-1.5992Zm2.1589 0 .16-.4797h.6396l-.1599.4797h-.6397Zm-4.4777-3.67812.3998-1.27936h1.5992l-.3998 1.35932-1.5992-.07996Zm2.0789 0 .3998-1.27936h.5598l-.3998 1.35932-.5598-.07996Zm-2.3988.95952.16-.47976h1.5992l-.16.47976H35.822Zm2.079 0 .1599-.47976h.4798l-.1599.47976h-.4798Zm-11.994 9.0355.1599-.6397h-5.2773v.6397h5.1174Z"/>
		<path d="M21.0295 18.0798h4.7177c-.1599.5597-.3199 1.1194-.4798 1.4393h-.3998c.08.1599.08.2398.08.3198 1.4393 4.6377 4.5577 9.2754 11.7541 9.9151 9.0355.4797 15.0325-5.8371 15.5922-13.1935h.3199c-.5598 8.6357-7.1964 15.3524-15.9921 15.1925-7.5962-.2399-14.3128-5.1974-15.5922-13.6732Z"/>
	</g>
	<path fill="#F19000" d="M16.072.167969H0V31.5123h16.072c-3.3584-3.918-5.4373-9.5152-5.4373-15.6722 0-6.15689 2.0789-11.75409 5.4373-15.672131Z"/>
</svg>