<svg xmlns="http://www.w3.org/2000/svg" viewBox="0 0 120 32">
	<path fill="#fff" d="M75.5465 0c-.2612 0-.4626.203335-.4626.464484V13.6435c0 .2631.2014.4645.4626.4645h1.8938c.2631 0 .4645-.2033.4645-.4645V8.92885c0-.26315.2014-.46446.4625-.46446h7.5357c.2604 0 .4621.20336.4621.46446v4.71465c0 .2631.2034.4645.4647.4645h1.8936c.2613 0 .4622-.2033.4622-.4645V.464484C89.1856.201342 88.9847 0 88.7234 0h-1.8936c-.263 0-.4647.203335-.4647.464484V5.17911c0 .26115-.2017.46249-.4621.46249h-7.5357c-.2611 0-.4625-.20134-.4625-.46249V.464484C77.9048.201342 77.7014 0 77.4403 0h-1.8938ZM61.7662.021609c-1.551 0-2.8209 1.269861-2.8209 2.820801h.0021V13.6631c0 .2631.2013.4645.4624.4645h1.8939c.2631 0 .4644-.2033.4644-.4645v-1.8938c0-.2632.2014-.4645.4626-.4645h7.9979c1.5509 0 2.8207-1.2698 2.8207-2.82079v-5.6416c0-1.55094-1.2698-2.820801-2.8207-2.820801h-8.4624Zm.0019 3.285291c0-.26314.2014-.46449.4626-.46449h7.5354c.2611 0 .4625.20334.4625.46449v4.71462c0 .26115-.2014.46249-.4625.46249h-7.5354c-.2612 0-.4626-.20134-.4626-.46249V3.3069ZM91.2255.484433c0-.261149.2017-.4624938.463-.4624938h1.8936c.2613 0 .4647.2013448.4647.4624938V5.19906c0 .26114.2008.46248.4621.46248h1.7523c.303 0 .5847-.1216.766-.36281L101.299.382764c.182-.241214.464-.3628172.766-.3628172h2.802c.08 0 .162.0398701.181.1216042.04.079739.021.161472-.019.241213L99.5489 6.71012c-.1813.20135-.1813.52429 0 .72564l5.4801 6.32734c.04.0797.059.1615.019.2413-.019.0797-.101.1216-.181.1216h-2.801c-.303 0-.583-.1216-.765-.3629l-4.2721-4.91593c-.1813-.24119-.4647-.36283-.7651-.36283h-1.7524c-.2612 0-.4629.20138-.4629.46445v4.71461c0 .2612-.2009.4645-.4647.4645h-1.8936c-.2613 0-.4622-.2013-.4622-.4645V.484433h-.0025ZM108.715.021609c-1.551 0-2.82 1.269861-2.82 2.820801v8.46239c0 1.551 1.269 2.8208 2.82 2.8208h8.463c1.551 0 2.82-1.2698 2.82-2.8208V2.84241c0-1.55094-1.269-2.820801-2.82-2.820801h-8.463Zm8.463 10.820691c0 .2612-.202.4625-.463.4625h-7.535c-.262 0-.463-.2013-.463-.4625V3.3069c0-.26314.201-.46449.463-.46449h7.535c.261 0 .463.20334.463.46449v7.5354ZM58.9453 18.777c0-.2512.1935-.4426.4426-.4426h1.8101c.2511 0 .4425.1934.4425.4426v4.5053c0 .2512.1934.4425.4426.4425h7.2005c.2513 0 .4426-.1933.4426-.4425V18.777c0-.2512.1933-.4426.4425-.4426h1.8102c.2511 0 .4425.1934.4425.4426v12.5929c0 .2512-.1934.4426-.4425.4426h-1.8102c-.2511 0-.4425-.1934-.4425-.4426v-4.5053c0-.2512-.1934-.4426-.4426-.4426h-7.2005c-.2511 0-.4426.1934-.4426.4426v4.5053c0 .2512-.1933.4426-.4425.4426h-1.8101c-.2512 0-.4426-.1934-.4426-.4426V18.777Zm17.7327-.4243c-1.4833 0-2.6953 1.2121-2.6953 2.6953v8.0875c0 1.4832 1.212 2.6953 2.6953 2.6953h8.0856c1.4832 0 2.6951-1.2121 2.6951-2.6953V21.048c0-1.4832-1.2119-2.6953-2.6951-2.6953H76.678Zm8.0875 10.3403c0 .2492-.1914.4425-.4425.4425h-7.2005c-.2492 0-.4426-.1913-.4426-.4425v-7.2005c0-.2492.1914-.4426.4426-.4426h7.2005c.2492 0 .4425.1914.4425.4426v7.2005Zm5.3894-7.645c0-1.4832 1.2128-2.6953 2.6954-2.6953h8.0857c1.484 0 2.696 1.2121 2.696 2.6953v7.643c0 .2512.193.4426.442.4426h.462c.251 0 .443.1933.443.4425v1.8101c0 .2512-.193.4426-.443.4426H89.2486c-.2511 0-.4426-.1934-.4426-.4426v-1.8101c0-.2512.1932-.4425.4426-.4425h.4621c.251 0 .4425-.1934.4425-.4426v-7.643h.0017Zm3.1379 0c-.251 0-.4425.1933-.4425.4425v7.2005c0 .2512.194.4426.4425.4426h7.2012c.251 0 .442-.1934.442-.4426v-7.2005c0-.2512-.193-.4425-.442-.4425h-7.2012Zm15.9242-2.6953c-1.483 0-2.695 1.2121-2.695 2.6953h.001v10.3402c0 .2492.192.4426.443.4426h1.81c.25 0 .443-.1914.443-.4426v-1.8101c0-.2492.191-.4426.442-.4426h7.201c.249 0 .443.1914.443.4426v1.8101c0 .2492.191.4426.442.4426h1.81c.25 0 .443-.1914.443-.4426V21.048c0-1.4832-1.212-2.6953-2.695-2.6953h-8.088Zm0 3.1378c0-.2492.191-.4425.443-.4425h7.2c.249 0 .443.1913.443.4425v4.5053c0 .2492-.192.4425-.443.4425h-7.2c-.25 0-.443-.1914-.443-.4425v-4.5053Z"/>
	<path fill="#fff" d="M97.23 24.0543V22.912c0-.1575.1276-.285.2851-.285h.5702c.1574 0 .2851.1275.2851.285v1.1423c0 .1575-.1277.2851-.2851.2851h-.5702c-.1575.0019-.2851-.1276-.2851-.2851Z"/>
	<path fill="#540608" d="M42.9289 27.8337H7.07272c-1.62687 0-2.94723-1.3203-2.94723-2.9472V2.94724C4.12549 1.32037 5.44585 0 7.07272 0H42.9289c1.6268 0 2.9472 1.32037 2.9472 2.94724V24.8865c0 1.6269-1.3204 2.9472-2.9472 2.9472Z"/>
	<path fill="#fff" d="M38.8033 31.9587H2.94724C1.32037 31.9587 0 30.6384 0 29.0115V7.07223C0 5.44536 1.32037 4.125 2.94724 4.125H38.8033c1.6269 0 2.9473 1.32036 2.9473 2.94723V29.0115c0 1.6269-1.3204 2.9472-2.9473 2.9472Z"/>
</svg>