<svg xmlns="http://www.w3.org/2000/svg" viewBox="0 0 44 38">
	<path fill="#fff" d="M20.6008 9.70396c-1.1119 1.10314-2.5066 1.65494-4.1835 1.65494-1.6728 0-3.0628-.547-4.1659-1.64574-1.1032-1.09875-1.6549-2.44406-1.6549-4.03153 0-1.57828.5561-2.92358 1.6728-4.02671C13.3812.551785 14.776 0 16.4528 0c1.6729 0 3.0629.546967 4.166 1.64572 1.1031 1.09875 1.6549 2.44405 1.6549 4.03153 0 1.5831-.5562 2.92358-1.6729 4.02671Zm-4.652-.60652c.1624.02189.3306.03284.504.03284.9643 0 1.7535-.33194 2.3679-.99584.6188-.66345.924-1.48412.924-2.45719 0-.45194-.0692-.87147-.2071-1.25816-.1564-.43836-.4012-.83512-.7349-1.19027-.6275-.66828-1.4215-1.0046-2.3854-1.0046-.9643 0-1.7534.33194-2.3678.9954-.6188.66389-.924 1.48456-.924 2.45763 0 .96387.314 1.78016.9419 2.44843.381.40552.8229.68886 1.327.8487.1769.05606.3617.09722.5544.12306ZM0 11.1706V.183928h2.4169V4.52945h4.45763V.183928h2.41691V11.1706H6.87453V6.76243H2.4169v4.40817H0ZM23.6772.183928V11.1618h5.2197c1.2783 0 2.2829-.2557 3.0138-.7672.7309-.51109 1.0983-1.25994 1.0983-2.2422 0-.71294-.1704-1.28224-.5155-1.70397-.2334-.28421-.5421-.53426-.9275-.74666-.0749-.04116-.1528-.08101-.2334-.11955-.1191-.05649-.2448-.11036-.377-.16072.9638-.54259 1.4438-1.33173 1.4438-2.36742 0-.76242-.2514-1.39479-.7537-1.89708-.0753-.07577-.1546-.14671-.2378-.213273-.0512-.041165-.1042-.080578-.1589-.11824-.2059-.142325-.4349-.261003-.6863-.356032-.5049-.190497-1.1009-.285527-1.7867-.285527h-5.0988Zm4.5829 4.444052h-2.2286V2.30523h2.3858c.5111 0 .9013.09854 1.175.29122.2733.19269.4077.47077.4077.83863 0 .79352-.5785 1.1929-1.7399 1.1929Zm.6416 4.4261H26.0272V6.63674h2.7935c1.1929 0 1.7893.39939 1.7893 1.19291 0 .81629-.5693 1.22443-1.7083 1.22443ZM43.7403 11.175h-2.3854V3.97329L36.5522 11.175h-2.2737V.188307h2.3858V7.39479L41.4938.188307h2.2465V11.175ZM0 13.5787v10.9867h2.42172v-3.3589l1.26911-1.3182 3.40792 4.6727H10l-4.67703-6.3232 4.47077-4.6591H6.87453L2.4169 18.3814v-4.8027H0Zm19.5336 9.5201c-1.1119 1.1031-2.5067 1.6549-4.1835 1.6549-1.6729 0-3.0628-.547-4.166-1.6458-1.1031-1.0987-1.65487-2.444-1.65487-4.0315 0-1.5783.55617-2.9236 1.67287-4.0267 1.1119-1.1031 2.5067-1.6549 4.1835-1.6549 1.6729 0 3.0628.547 4.166 1.6457 1.1031 1.0988 1.6549 2.4441 1.6549 4.0315 0 1.5783-.5562 2.9236-1.6729 4.0268Zm-6.5378-1.5783c.6276.6682 1.4215 1.0046 2.3854 1.0046.9643 0 1.7535-.332 2.3679-.9959.6188-.6634.9236-1.4841.9236-2.4572 0-.9643-.3136-1.7801-.9416-2.4484-.628-.6683-1.4215-1.0046-2.3858-1.0046-.9639 0-1.7534.332-2.3674.9954-.6192.6639-.924 1.4846-.924 2.4576.0043.9639.3183 1.7802.9419 2.4485Zm12.1297-7.9418h-2.6052v10.9867h2.3678v-7.1255l3.0672 4.6455h.0627l3.0899-4.6906v7.1706h2.399V13.5787h-2.6052l-2.8881 4.646-2.8881-4.646ZM2.4169 29.1929v1.9146h2.90169c.59996 0 1.13422.0731 1.60236.2203.34115.1068.64682.2535.91746.4392.11561.0793.22465.166.32756.2597.67703.61 1.01336 1.4395 1.01336 2.4892 0 1.1075-.36304 1.9684-1.0808 2.5737-.7217.6056-1.72629.9104-3.01335.9104H0V27.0134h8.4261v2.1795H2.4169Zm2.6547 3.9238H2.42172v2.6994h2.66784c1.12108 0 1.67725-.4664 1.67725-1.3948 0-.8697-.56493-1.3046-1.69521-1.3046Zm9.1841-6.1839L9.54719 37.9956h2.46201l1.0046-2.462h4.6499l1.0046 2.462h2.5246l-4.7086-11.0628h-2.2286Zm2.5383 6.4664h-2.9192l1.4617-3.5604 1.4575 3.5604Zm5.7263 4.5964V27.009h2.4169v4.3455h4.4576V27.009h2.4169v10.9866h-2.4169v-4.4081h-4.4576v4.4081h-2.4169ZM33.7447 27.009v10.9822h2.4261v-3.3588l1.2691-1.3186 3.4035 4.6774h2.9013l-4.677-6.3231 4.4707-4.6591h-2.9192l-4.4576 4.8027V27.009h-2.4169Z"/>
</svg>