<svg xmlns="http://www.w3.org/2000/svg" viewBox="0 0 160 30">
	<g fill="#fff">
		<path d="M31.6501 27.0354h3.6568v-6.3501h5.967v6.3501h3.6567v-15.297h-3.6567v5.7733h-5.967v-5.7733h-3.6568v15.297Zm24.1507.3836c4.9146 0 7.9739-3.3459 8.3705-8.0806 0-4.7299-3.7406-8.0806-8.3705-8.0806-4.6281 0-8.2734 3.2736-8.2734 7.9831 0 4.6208 3.6445 8.1781 8.2734 8.1781Zm0-3.3668c-2.6833 0-4.2369-2.3022-4.2369-4.81 0-2.4218 1.6668-4.6167 4.2369-4.6167 2.5329 0 4.237 2.136 4.237 4.6167 0 2.4694-1.5658 4.81-4.237 4.81Zm10.777 2.9832h6.0602c.5768 0 1.1532 0 1.7334-.0966 2.2939-.3843 4.0437-1.9179 4.0437-4.3302 0-1.8678-1.439-3.219-3.1765-3.5567 1.5566-.6265 2.5001-1.6022 2.5001-3.3702 0-2.9499-2.6442-3.9433-5.1969-3.9433h-6.0603v15.297h.0963Zm3.5567-2.9832v-3.4635h2.0199c.7269 0 1.6199.0699 2.1535.64.35.3733.4399.9502.2733 1.4333-.1632.4832-.5565.8701-1.0201 1.0901-1.4732.4157-2.6687.3001-3.4266.3001Zm0-6.2535v-3.1736h1.8266c.7701 0 1.347.0966 1.7335.3831.3831.2899.5768.5768.5768 1.1532s-.1933.9634-.5768 1.2499c-.3832.2899-.9634.3831-1.6368.3831h-1.9233v.0043Zm18.3773 9.6203c4.9147 0 7.9739-3.3459 8.3705-8.0806 0-4.7299-3.7406-8.0806-8.3705-8.0806-4.628 0-8.2734 3.2737-8.2734 7.9831 0 4.6209 3.6439 8.1781 8.2734 8.1781Zm0-3.3668c-2.6829 0-4.2369-2.3024-4.2369-4.81 0-2.422 1.6668-4.6167 4.2369-4.6167 2.5704 0 4.237 2.1661 4.237 4.6167 0 2.4695-1.5659 4.81-4.237 4.81Zm10.777 2.9832h6.0602c2.881 0 5.77-1.509 5.77-4.7167 0-3.3042-2.804-4.7167-5.77-4.7167h-2.407v-2.8799h7.024v-2.9837H99.1888v15.297h.1Zm3.6572-2.9832v-3.5601h2.019c1.236 0 2.504.3959 2.504 1.8266 0 1.3787-1.2 1.8267-2.406 1.8267h-2.02l-.097-.0932Zm8.753 2.9832h4.04l1.154-2.9832h5.967l1.153 2.9832h4.137l-6.351-15.297h-3.56l-6.447 15.297h-.093Zm6.16-5.9631 1.924-5.2902 1.923 5.2902h-3.847Zm11.447 5.9631h3.657v-6.3501h5.967v6.3501h3.657v-15.297h-3.657v5.7733h-5.967v-5.7733h-3.657v15.297Zm16.551 0h3.656v-7.0231l5.677 7.0236H160l-7.024-8.2735 6.64-7.0235H155l-5.483 6.2534h-.097v-6.2539h-3.657v15.297h.094Z"/>
		<path d="M5.76902 10.6803c-2.2132 1.9267-3.2736 3.5601-4.62009 6.0637-1.636797 3.9432-1.826669 8.4671 1.44354 11.547C11.9259 34.931 24.8164 17.9972 17.216 11.934c-2.79-1.5402-7.60037.1933-10.20009 2.79 3.17989-2.4069 11.51019-4.2967 8.08699 3.5567-4.9134 11.2703-17.70394 4.4269-7.12026-8.65695.09664-.19326 2.01996-2.59676-2.11656 1.05655h-.09706ZM8.46283.0966316C8.3662-.0932409 5.94957 1.14347 5.28586 1.73343 3.91565 2.95701.935752 6.58028 3.36256 8.08358c.95317.58996 6.25011-.22335 8.94684-.48019 9.1304-.8735 12.4104 1.05659 8.1768 4.61671 5.967-1.8267 9.6204-9.81364 2.6934-10.87362-5.2867-.2865-13.0804 1.54017-14.81382 1.25367-1.15322-.19326-1.34691-.48316-.77009-1.636801C7.78896.673454 8.55904.193263 8.46241 0l.00042.0966316Z"/>
	</g>
</svg>