<svg xmlns="http://www.w3.org/2000/svg" viewBox="0 0 140 28">
	<path fill="#fff" d="M137.259 10.0332c0-1.39766-.798-2.09425-2.396-2.0897h-1.307v4.2066h1.307c.667.0636 1.332-.1206 1.872-.5173.192-.2164.338-.4701.428-.7453.09-.2752.123-.566.096-.8543Zm2.723 0c.02.5693-.079 1.1366-.292 1.6653-.212.5286-.532 1.0071-.94 1.4046-1.048.9238-2.417 1.3983-3.812 1.3205h-4.084V.680662h7.773V3.04263h-5.071v2.62745h1.361c1.356-.08015 2.693.34142 3.758 1.1844.441.39804.788.88908 1.016 1.43762.228.54845.333 1.14082.305 1.7343l-.014.0068Zm-11.204 4.4108h-2.723V5.88787l-8.597 8.36553V.680662h2.723V8.33148L128.798 0v14.4372l-.02.0068Zm-12.191 0h-3.356l-5.037-6.88165v6.86125h-2.688V.680662h2.688V6.42564l4.935-5.744978h3.158l-5.684 6.330358 6.025 7.41938-.041.0136ZM101.19 7.54196c.049-1.26944-.394-2.5087-1.2388-3.4579-.8557-.84263-2.009-1.31486-3.2095-1.31486-1.2014 0-2.3537.47223-3.2095 1.31486-.8461.95812-1.2853 2.20823-1.225 3.48512-.0568 1.27417.3824 2.52072 1.225 3.47822.4209.423.9205.7586 1.4718.9876.5504.229 1.141.3469 1.7377.3469.5968 0 1.1874-.1179 1.7378-.3469.5503-.229 1.0508-.5646 1.4717-.9876.8428-.9575 1.2808-2.20405 1.2248-3.47822l.014-.02722Zm2.872 0c.031.96347-.136 1.92316-.492 2.81904-.356.8959-.893 1.7088-1.577 2.3881-1.402 1.3371-3.2659 2.0829-5.204 2.0829-1.9373 0-3.801-.7458-5.2036-2.0829-.6904-.6764-1.2329-1.488-1.5952-2.384-.3622-.89604-.5346-1.85714-.5083-2.82314-.0263-.96503.147-1.92508.5083-2.82003.3623-.89486.9057-1.70528 1.5952-2.38043C92.9906 1.00914 94.8526.266438 96.789.266438c1.9363 0 3.799.742702 5.204 2.075062.679.6804 1.211 1.49318 1.562 2.38778.351.89469.515 1.85211.48 2.81268h.027ZM85.8401 10.2102c0-1.36134-.6799-2.04209-2.0414-2.04209h-1.974v3.92079h1.7422c1.5251 0 2.2802-.6262 2.2802-1.8855l-.007.0068Zm-.9047-5.83346c0-.93248-.5994-1.40218-1.7973-1.40218h-1.3204v2.99503h1.7019c.9459 0 1.4158-.52412 1.4158-1.5792v-.01365Zm3.7231 5.83346c.0236.5371-.0621 1.0733-.2511 1.5765-.1899.503-.4795.9625-.8514 1.3504-.5145.4584-1.1156.8085-1.7684 1.0296-.6527.221-1.3431.3084-2.03.2569h-4.6077V.680662h4.0836c2.9767 0 4.4651 1.200328 4.4651 3.600798.035.51861-.0787 1.03652-.3281 1.49248-.2494.45596-.6248.8309-1.0806 1.08054.7341.23266 1.365.714 1.7832 1.36132.406.6027.6178 1.31539.6055 2.0421l-.0201-.0477ZM74.8134 7.54196c.0534-1.26761-.3859-2.5066-1.225-3.4579-.8558-.84263-2.0081-1.31486-3.2095-1.31486-1.2009 0-2.3537.47223-3.2094 1.31486-.8493.94709-1.2983 2.18662-1.2525 3.4579-.0563 1.27418.3827 2.52074 1.2253 3.47824.4206.4229.9207.7585 1.4715.9876.5508.229 1.1414.3468 1.738.3468.5967 0 1.1873-.1178 1.7377-.3468.5513-.2291 1.0509-.5647 1.4718-.9876.8426-.9575 1.2818-2.20406 1.225-3.47824h.0271Zm2.8726 0c.0271.966-.1461 1.9271-.5084 2.82314-.3613.896-.9047 1.7076-1.5951 2.384-1.4026 1.3371-3.2655 2.0829-5.2036 2.0829-1.9378 0-3.8012-.7458-5.2038-2.0829-.6902-.6764-1.2333-1.488-1.5952-2.384-.3619-.89604-.5349-1.85714-.5081-2.82314-.0267-.96503.1464-1.92508.5083-2.82003.3619-.89486.905-1.70528 1.595-2.38043 1.405-1.33236 3.2675-2.075062 5.2038-2.075062 1.9364 0 3.7992.742702 5.2036 2.075062.6904.67515 1.2329 1.48557 1.5951 2.38043.3623.89495.5355 1.855.5084 2.82003ZM61.6083 14.4236h-2.7227V8.22263h-5.8402v6.20097h-2.7227V.680662h2.7227V5.9219h5.8607V.680662h2.7226L61.6083 14.4236ZM8.54935 10.2109c.02704.5698-.06974 1.1387-.28359 1.6674-.21385.5288-.53978 1.005-.95523 1.3957-.99286.8205-2.261 1.2318-3.54637 1.1504H0V.681482h7.3786V2.15174H1.67449v3.87301h2.08967c1.2754-.08208 2.53679.30529 3.54637 1.08911.42297.39226.75363.87351.96783 1.40919.21429.53558.30678 1.11212.27099 1.68785Zm-1.70852 0c0-1.81508-1.05053-2.72263-3.15157-2.72263H1.64727v5.44543h2.04199c2.09649 0 3.14702-.9111 3.15157-2.7331v.0103Zm14.83197 4.2135h-1.7289l-1.6745-3.8187h-6.2078l-1.6812 3.8187H8.64464L15.1587.18457l6.5141 14.23983Zm-4.084-5.24126-2.4301-5.56796-2.464 5.56796h4.8941Zm15.8121 5.24126h-1.6472V7.65837h-7.4058v6.76603h-1.6745V.681482h1.6745V6.19494h7.4058V.681482h1.6472V14.4244Zm12.3679 0h-2.0896l-6.1874-7.05871v7.05871h-1.654V.681482h1.654V6.97771L43.577.681482h2.0421L39.1527 7.20232l6.6161 7.22208Zm57.1832 8.6581c6.222.0409 10.987-2.2734 15.091-6.8953l2.771 3.4034c-2.309 2.4116-5.081 4.3308-8.15 5.642-3.07 1.3112-6.374 1.9872-9.712 1.9872-3.3369 0-6.6409-.676-9.7104-1.9872-3.0695-1.3112-5.8423-3.2304-8.1497-5.642l2.7702-3.4034c4.1047 4.6219 8.869 6.9566 15.0899 6.8953Z"/>
</svg>