<svg xmlns="http://www.w3.org/2000/svg" viewBox="0 0 140 36">
	<path fill="#0DB14B" d="M15.4496 9.81467v7.79553H7.72483V9.81467H.0121581V33.2139H7.72483V25.406h7.72477v7.8079h7.7127V9.81467h-7.7127ZM7.72481 3.95854c0-.77257-.22684-1.52791-.65178-2.17006C6.64807 1.14617 6.04413.645713 5.33767.350717 4.6312.0555695 3.85397-.0210019 3.10441.130614 2.35484.28223 1.66666.655169 1.12698 1.20245.587296 1.74973.2204 2.4465.0727418 3.20458c-.1476573.75808-.06943367 1.54346.2247652 2.25654.2942.71309.791143 1.32199 1.427903 1.74954.63677.42739 1.38472.65436 2.14914.65192.50664 0 1.00832-.10113 1.47624-.29744.46793-.19631.89291-.48414 1.25061-.8467.35769-.36272.64104-.79316.83382-1.26677.19278-.47361.29119-.98093.28959-1.49313Zm15.43749 0c-.0002-.77105-.2261-1.52486-.6494-2.16625-.4233-.64155-1.0251-1.14185-1.7295-1.438065-.7043-.2962161-1.4797-.3749212-2.2282-.226356-.7486.148718-1.4369.518149-1.9779 1.061621-.5412.54362-.9109 1.23687-1.0627 1.99251-.1518.75564-.0788 1.5398.2099 2.25365.2886.71385.7799 1.32519 1.4119 1.75701.6319.43197 1.3763.66504 2.1391.66992.5093.0032 1.0141-.09534 1.4855-.29012.4715-.19478.9-.48184 1.2613-.84456.3613-.36288.648-.79439.8436-1.26967.1956-.47514.2964-.9849.2964-1.49969Z"/>
	<path fill="#fff" d="M38.438 3.07094h-2.1954V.808175h3.6795V0h-4.4138v7.69347h2.9297c.5863 0 1.1486-.24348 1.5632-.67694.4146-.43346.6475-1.02134.6475-1.63432 0-.61299-.2329-1.20087-.6475-1.63432-.4146-.43346-.9769-.67695-1.5632-.67695Zm0 3.89519h-2.1954V3.87902h2.1954c.3915 0 .767.16266 1.0439.45213.2769.28947.4325.68206.4325 1.09142 0 .40936-.1556.80205-.4325 1.09143-.2769.28947-.6524.45213-1.0439.45213ZM51.3203 4.6387h-2.806V2.46479H47.78v5.26905h.7343V5.40641h2.806v2.32743h.7344V2.46479h-.7344V4.6387Zm-7.1834-2.295c-.663.02078-1.3129.1976-1.9015.51719l.3555.67072c.4796-.25724 1.0074-.40072 1.546-.4202.163-.00763.3256.02128.4769.08484.1514.06346.288.16005.4007.28325.1128.1232.199.27019.253.43115.0539.16085.0743.33204.0598.50183v.26668c-.5363-.13344-1.0886-.18244-1.6387-.14549-.4492.01556-.8765.20694-1.1972.53627-.3207.32924-.5113.77233-.5344 1.24163-.0031.20363.0328.40585.1059.59471.073.18877.1816.36036.3193.50435.1704.17029.3718.30313.5922.39058.2204.08745.4554.12772.6909.11858.6034-.0255 1.183-.25202 1.6544-.64652v.47683h.7343V4.41248c.0151-.2703-.0237-.54099-.1139-.79482s-.2298-.48527-.41-.67976c-.1803-.19448-.3971-.3477-.637-.45002-.2398-.10231-.4973-.15141-.7562-.14418Zm-.5024 4.80838c-.1404.00934-.2812-.01095-.4139-.05954-.1329-.0486-.2549-.12451-.3591-.22331-.0686-.07209-.1224-.15794-.1582-.25242-.0359-.09448-.0531-.19559-.0505-.2971 0-.65466.572-.95367 1.0976-1.01833.5202-.02902 1.0416.0255 1.546.16166v.65465c-.1813.29529-.4258.5425-.7142.72203-.2886.17952-.613.28646-.9477.31236Zm13.6323.58176h.9121l-2.2031-3.08701 2.033-2.18204h-1.028l-2.4969 2.68307V2.46479h-.7343v5.26905h.7343v-1.4789l.9741-1.05055 1.8088 2.52945ZM39.0985 27.563c.5295.0009 1.0379.2167 1.4212.6027l.9689-1.0802c-.6435-.6502-1.5002-1.012-2.3901-1.0098-.4707-.0229-.9404.0554-1.3816.2301-.4413.1747-.8449.4422-1.185.7865-.341.3443-.6122.758-.7979 1.2163-.1848.4583-.2804.9516-.2804 1.45 0 .4985.0956.9917.2804 1.45.1857.4583.4569.8721.7979 1.2162.3401.3443.7437.6118 1.185.7866.4412.1747.9109.253 1.3816.23.8899.0023 1.7466-.3594 2.3901-1.0098l-.9689-1.0801c-.3815.3888-.8908.6051-1.4212.6027-.2822.0178-.5663-.0256-.8329-.128-.2656-.1022-.5101-.261-.7161-.4667-.2068-.2056-.3713-.4536-.4835-.729-.1121-.2753-.1701-.572-.1701-.8719 0-.2999.058-.5967.1701-.8719.1122-.2753.2767-.5235.4835-.7291.206-.2056.4505-.3645.7161-.4667.2666-.1022.5507-.1458.8329-.1279Zm24.2071 1.4402h-3.2192v-2.7631h-1.4129v7.0212h1.4129v-2.7709h3.2192v2.7709h1.4056v-7.0212h-1.4056v2.7631Zm-20.1801-1.2758h2.153v5.5339h1.4129v-5.5339h2.1612v-1.4873h-5.7271v1.4873Zm55.2049-1.4873h-5.727v1.4873h2.1612v5.5339h1.4055v-5.5339h2.1603v-1.4873Zm-24.983 0h-4.7875l-.0589.6732s-.2371 2.5048-.4587 3.9137c-.1259.7828-.5478.9862-.8733.9862h-.4881v2.6692h1.4056v-1.2132h4.5724v1.1819h1.4056v-2.6692h-.7391l.022-5.5418Zm-3.9142 4.8061c.1553-.9862.3181-2.4656.3999-3.3188h2.1079v4.0545h-2.7146c.0956-.2358.1654-.4828.2068-.7357Zm18.3526-4.9627c-.7602.0101-1.4966.2853-2.0941.7828v-.5949h-1.4055v9.7295h1.4055v-3.3266c.5957.5012 1.3329.7768 2.0941.7827.4707.023.9404-.0553 1.3817-.23.4412-.1747.8448-.4422 1.1849-.7865.341-.3443.6122-.758.7979-1.2163.1848-.4583.2804-.9516.2804-1.45 0-.4985-.0956-.9917-.2804-1.45-.1857-.4582-.4569-.8721-.7979-1.2162-.3401-.3443-.7437-.6118-1.1849-.7866-.4413-.1748-.911-.253-1.3817-.23v-.0079Zm0 5.8785c-.41-.0015-.8099-.1315-1.1491-.3732-.3401-.2417-.6039-.5846-.7602-.9852-.1554-.4006-.1949-.841-.1149-1.2656.0809-.4247.2794-.8145.569-1.1202.2905-.3058.6591-.5137 1.0608-.5976.4018-.0839.8182-.0401 1.196.126.3778.1661.7014.447.9285.8072.227.3603.3484.7838.3484 1.2168-.0019.5821-.2216 1.1395-.6113 1.5503-.3898.4108-.9175.6415-1.4672.6415Zm-8.8137-5.9019c-.8825.0297-1.7466.2677-2.5307.6966l.6812 1.3072c.5718-.3085 1.2005-.4821 1.8422-.5088.1747-.0101.3484.02.5111.0882.1618.0683.3089.1731.4293.3071.1204.1339.2114.294.2675.469.0561.1751.0754.3609.057.5446v.047c-.581-.1356-1.1739-.2064-1.7687-.2113-.3079-.0245-.6177.016-.911.1191-.2941.1031-.5653.2668-.7979.4815-.2335.2148-.4247.4763-.5617.7696-.1369.2933-.2178.6123-.2371.9389 0 .315.0597.6269.1756.9171.1158.2901.2868.5525.5.7716.2142.2191.4679.3905.7456.5038.2785.1133.5745.1662.8723.1557.7106-.0176 1.4028-.2454 1.9976-.6575v.4305h1.4129v-4.266c.0203-.3814-.0358-.7631-.1627-1.1207-.1268-.3576-.3236-.6833-.5754-.9564-.2528-.2731-.5562-.4876-.8917-.6299-.3346-.1424-.695-.2095-1.0554-.1969Zm-.74 5.9567c-.1176.0124-.2371-.0022-.3493-.0426-.1121-.0405-.2151-.1059-.3015-.192-.0864-.0861-.1535-.1907-.1986-.3069-.045-.1162-.0652-.2412-.0606-.3665.0441-.5401.6067-.8454 1.1987-.8454.5764.0136 1.15.0977 1.7089.2505v.5714c-.25.3022-.5598.5425-.9082.7034-.3475.1611-.7244.2389-1.1041.2281h.0147Zm-24.7982-5.9411c-.8825.0258-1.7484.264-2.5307.6967l.6876 1.2993c.5727-.3085 1.2015-.4821 1.8431-.5088.1738-.0101.3484.02.5111.0883.1618.0682.3089.1729.4284.3069.1204.1341.2124.2941.2684.4691.0561.175.0754.3609.057.5447v.047c-.581-.1327-1.1739-.2009-1.7686-.2036-.3126-.0277-.627.0117-.9248.1158-.2988.1041-.5737.2708-.809.49-.2353.2193-.4275.4867-.5626.7861s-.2123.6247-.2261.9564c.0064.3097.0708.615.1894.8982.1195.2833.2895.5389.5019.752.2123.2132.4633.3798.7363.4902.2739.1104.5653.1624.8586.153.7088-.0154 1.3991-.2434 1.9902-.6575v.4384h1.4129v-4.266c.0193-.3792-.0349-.7585-.1608-1.1139-.126-.3556-.3209-.6796-.5709-.9518-.25-.2721-.5516-.4864-.8834-.6293-.3328-.143-.6895-.2115-1.048-.2012Zm-.74 5.9567c-.1195.0093-.239-.0087-.3512-.0525-.1121-.0439-.2141-.1126-.2987-.2016-.0846-.089-.1508-.1963-.1931-.3144-.0423-.1182-.0606-.2446-.0524-.3707.0442-.5324.6067-.8454 1.1988-.8454.5773.0114 1.1509.0982 1.7089.2583v.6027c-.251.3008-.5608.5395-.9092.6992-.3475.1596-.7244.2362-1.1031.2244ZM126.026 16.3055h-1.681v-2.1402h-1.421v7.0817h3.117c.593-.0355 1.151-.3101 1.56-.7674.408-.4572.637-1.0625.637-1.6916s-.229-1.2343-.637-1.6916c-.409-.4572-.967-.7317-1.56-.7672l-.015-.0237Zm0 3.4229h-1.681v-1.92h1.696c.24 0 .471.1011.641.2812.17.18.266.4242.266.6788 0 .2545-.096.4988-.266.6788-.17.18-.401.2812-.641.2812h-.015Zm-7.244-2.7856h-3.243v-2.7775h-1.413v7.0581h1.413v-2.7777h3.243v2.7777h1.413v-7.0581h-1.413v2.7775Zm-69.7921-2.927c-.8867.0299-1.7558.2692-2.5439.7003l.6918 1.314c.5738-.3138 1.2065-.4885 1.8521-.5115.1754-.01.3507.0202.514.0888.1632.0685.3103.1738.4313.3085.121.1348.2128.2957.2692.4716.0565.1759.076.3627.0574.5475v.0472c-.5842-.1338-1.18-.2023-1.7777-.2046-.3114-.0278-.6249.0105-.9221.1126-.2973.1023-.5721.2664-.8084.4827-.2364.2163-.4295.4804-.5678.7768-.1385.2964-.2194.6192-.2382.9492-.0002.3173.0602.6316.1774.9238.1172.2922.289.5563.5049.7767.216.2204.4717.3924.7519.5058.2803.1134.5793.1659.8792.1542.7121-.0192 1.4049-.2481 2.0008-.6609v.4327h1.4133V16.935c.0197-.3821-.0357-.7645-.1627-1.1228-.1271-.3584-.3229-.685-.5752-.9592-.2523-.2744-.5555-.4903-.8907-.6344-.3352-.1441-.6949-.2131-1.0566-.2028Zm-.7438 5.988c-.122.0132-.2452-.0022-.3608-.0452-.1157-.043-.2209-.1124-.3083-.2033-.0874-.0909-.1548-.2011-.1972-.3227-.0425-.1217-.0591-.2518-.0486-.3809.0446-.543.6099-.8499 1.205-.8499.5807.0116 1.1577.0988 1.7182.2597v.5902c-.249.3079-.5598.5532-.9098.718-.3501.1647-.7304.2447-1.1134.2341h.0149Zm-6.239-4.8471h-4.8126v-4.1782h-1.4133v10.2449h1.4133v-4.5716h4.8126v4.5716h1.4207V10.9785h-1.4207v4.1782Zm18.265-.9914h-1.4132v5.5552h-3.0795v-5.5552h-1.4207v7.0502h5.2143v1.1803h1.4207v-2.6753h-.7216v-5.5552Zm4.5133 4.5558v-4.5558h-1.4132v7.0581h1.4132l3.2208-4.556v4.556h1.4133v-7.0581h-1.4133l-3.2208 4.5558Zm10.4939-4.6895c-.6929 0-1.3702.2173-1.9463.6246-.5762.4071-1.0252.986-1.2904 1.6632-.2651.6772-.3345 1.4224-.1993 2.1412.1351.719.4688 1.3794.9588 1.8976.4899.5183 1.1142.8714 1.7937 1.0143.6797.143 1.3841.0696 2.0242-.2109.6402-.2805 1.1874-.7555 1.5723-1.365.385-.6094.5904-1.326.5904-2.0589-.0019-.9824-.3716-1.9238-1.0283-2.6184-.6565-.6945-1.5465-1.0857-2.4751-1.0877Zm0 5.9092c-.4116-.0015-.8135-.132-1.155-.3751-.3415-.243-.6073-.5876-.7638-.9904-.1565-.4027-.1967-.8455-.1155-1.2723.0812-.4268.2802-.8187.5718-1.126.2915-.3074.6626-.5164 1.0664-.6008.4038-.0844.8222-.0403 1.2023.1267.3802.167.705.4493.9335.8115.2285.3622.3505.7878.3505 1.2233 0 .2899-.0541.5771-.1592.8449-.1052.2678-.2592.511-.4534.7157-.1943.2047-.4247.3669-.6782.4771-.2535.1102-.5253.1664-.7994.1654Zm27.1797-5.7755h-3.5929l-.0595.6767s-.2381 2.5179-.4612 3.9343c-.1339.7868-.5504.9835-.8778.9835h-.4983v1.5029h.4983c.5646-.024 1.1018-.2636 1.512-.6745.4104-.4109.666-.9652.7195-1.5602.1637-.9914.3269-2.4786.4089-3.3362h2.351v5.5631h1.413v-7.0818h-1.413v-.0078Zm7.214 2.1402h-1.697v-2.1402h-1.413v7.0817h3.11c.316.0189.632-.0306.929-.1456.298-.1151.571-.2931.801-.5233.23-.2302.414-.5077.539-.8155.125-.3077.19-.6394.19-.9746 0-.3351-.065-.6667-.19-.9745-.125-.3077-.309-.5853-.539-.8154-.23-.2303-.503-.4083-.801-.5233-.297-.115-.613-.1646-.929-.1456v-.0237Zm0 3.4229h-1.697v-1.92h1.697c.24 0 .471.1011.641.2812.17.18.266.4242.266.6788 0 .2545-.096.4988-.266.6788-.17.18-.401.2812-.641.2812Zm20.741-5.5631h-1.413v7.0581h1.413v-7.0581Zm7.31 0-3.22 4.5558v-4.5558h-1.413v7.0581h1.413l3.22-4.556v4.556h1.413v-7.0581h-1.413Zm-1.622-1.1173c.51-.0021.997-.2167 1.355-.5969.36-.3803.563-.8955.565-1.4332h-.989c.011.136-.005.2731-.045.4025-.042.1293-.108.2482-.195.349-.087.1008-.193.1814-.312.2364-.118.0551-.245.0835-.374.0835s-.257-.0284-.375-.0835c-.118-.055-.225-.1356-.312-.2364-.086-.1008-.153-.2197-.195-.349-.04-.1294-.056-.2665-.045-.4025h-.989c0 .537.202 1.0522.559 1.4327.359.3805.845.5953 1.352.5974Zm-50.458 3.8948h-3.2356v-2.7775h-1.4132v7.0581h1.4132v-2.7777h3.2356v2.7777h1.4207v-7.0581H85.644v2.7775Zm6.7597-2.927c-.8867.0299-1.7559.2692-2.5439.7003l.6917 1.314c.5744-.3123 1.2068-.4869 1.8522-.5115.175-.0088.3498.0224.5124.0915.1627.0691.3093.1743.43.3088.1207.1344.2126.2947.2695.47.0568.1754.0773.3616.06.5461v.0472c-.5868-.1333-1.185-.2018-1.7851-.2046-.3115-.0278-.6249.0105-.9222.1127-.2972.1022-.572.2663-.8084.4826-.2363.2163-.4294.4804-.5678.7768-.1385.2964-.2193.6192-.2381.9492-.0002.3173.0601.6316.1774.9238.1171.2922.2888.5563.5048.7767.216.2204.4717.3924.752.5058.2802.1134.5793.1659.8791.1543.7145-.0191 1.4098-.2479 2.0083-.661v.4327h1.4133V16.935c.0208-.3824-.0338-.7653-.1604-1.1242-.1266-.3588-.3225-.686-.575-.9605-.2525-.2745-.5562-.4905-.8919-.6342s-.6959-.2118-1.0579-.2003Zm-.7438 5.988c-.1191.0106-.239-.0063-.3514-.0495s-.2145-.1116-.2993-.2007c-.0849-.089-.1505-.1965-.1922-.315-.0418-.1185-.0588-.2452-.0498-.3712.0447-.5429.61-.8498 1.1977-.8498.583.0122 1.1625.0993 1.7256.2596v.5745c-.2524.3098-.5671.5561-.921.7208-.3538.1647-.7381.2437-1.1245.2313h.0149Z"/>
</svg>