<svg xmlns="http://www.w3.org/2000/svg" viewBox="0 0 139 34">
	<path fill="#FFD503" d="M0 0h57v34H0z"/>
	<path fill="#fff" d="M62.1082 6.37305h17.8844V10.38H67.2045v4.473h6.1409c2.6805 0 4.7168.5487 6.1091 1.6462 1.4144 1.0976 2.1211 2.6817 2.1211 4.7525 0 2.1744-.7813 3.8621-2.3422 5.0631-1.5619 1.2011-3.7668 1.8017-6.6162 1.8017h-10.509V6.37305ZM72.3324 24.389c1.3084 0 2.3104-.2485 3.007-.7454.6966-.5178 1.0449-1.2633 1.0449-2.2366 0-1.9051-1.3508-2.8577-4.0519-2.8577h-5.1279v5.8397h5.1279Zm18.1148-13.2325c2.638 0 4.6642.6212 6.0777 1.8637 1.4144 1.2218 2.1211 3.0751 2.1211 5.5601v9.536h-4.6219v-2.0812c-.9278 1.5531-2.6583 2.3298-5.1913 2.3298-1.3075 0-2.4473-.2176-3.4185-.6525-.9491-.4347-1.6779-1.0353-2.1838-1.8015-.5068-.7662-.7602-1.6359-.7602-2.6092 0-1.5531.5916-2.7748 1.7729-3.6653 1.2034-.8905 3.0499-1.3357 5.5396-1.3357h3.9253c0-1.0561-.3271-1.8638-.9813-2.4228-.6542-.5798-1.6356-.8697-2.944-.8697-.9076 0-1.8042.145-2.6906.4348-.8652.2692-1.6042.6419-2.216 1.1183l-1.7719-3.3858c.9279-.6419 2.0363-1.1389 3.3236-1.491 1.3084-.352 2.6482-.528 4.0193-.528Zm-.3797 13.9467c.844 0 1.5932-.1863 2.2474-.559.6542-.3934 1.1186-.9629 1.3932-1.7084v-1.7084h-3.3872c-2.0262 0-3.0389.6523-3.0389 1.9569 0 .6212.2433 1.1182.728 1.4909.5068.3521 1.1923.528 2.0575.528Zm10.9685-13.6986h4.907v6.523h7.406v-6.523h4.939V28.116h-4.939v-6.2435h-7.406v6.2435h-4.907V11.4046Zm27.581 10.3748h-2.563v6.3366h-4.938V11.4046h4.938v6.4919h2.659l4.621-6.4919h5.254l-5.95 8.014L139 28.116h-5.824l-4.559-6.3366ZM27.3219 6.37297V28.1164H22.194v-8.9148H12.1279v8.9148H7V6.37297h5.1279v8.57313H22.194V6.37297h5.1279ZM41.4517 28.4888c-2.2581 0-4.305-.4761-6.141-1.4288-1.8147-.9733-3.2497-2.3088-4.3049-4.007-1.034-1.7187-1.551-3.6549-1.551-5.8086 0-2.1536.517-4.0794 1.551-5.7775 1.0552-1.71873 2.4902-3.05438 4.3049-4.00695C37.1467 6.48668 39.2042 6 41.4833 6c1.9203 0 3.6508.33129 5.1912.99397 1.5616.66267 2.8701 1.61524 3.9252 2.8577l-3.2921 2.98203c-1.4982-1.6981-3.3553-2.5471-5.5711-2.5471-1.3716 0-2.5956.3002-3.6718.9007-1.0763.5799-1.9204 1.3979-2.5324 2.4539-.5908 1.0562-.8863 2.2573-.8863 3.6032 0 1.3461.2955 2.5471.8863 3.6033.612 1.0561 1.4561 1.8843 2.5324 2.4849 1.0762.5798 2.3002.8697 3.6718.8697 2.2158 0 4.0729-.8594 5.5711-2.5781l3.2921 2.982c-1.0551 1.2631-2.3636 2.2261-3.9252 2.8887-1.5614.6627-3.3025.9939-5.2228.9939Z"/>
</svg>