<svg xmlns="http://www.w3.org/2000/svg" viewBox="0 0 120 28">
	<path fill="#fff" d="M0 11.0019v14.7754h38.3952V2.14062H14.7744v8.86128H0Zm7.7137 10.1055h.31907l1.54685-6.7901h2.82128v8.2241h-1.4666v-6.7901h-.3191l-1.49833 6.7901H6.63052l-1.46661-6.7901h-.31908v6.7901H3.37821v-8.2241H6.1995l1.5142 6.7901Zm20.3535 1.434h-5.1481v-8.2241h5.1481v1.4349h-3.6497v1.9285h3.1394v1.3696h-3.1394v2.0562h3.6497v1.4349Zm-12.8618-4.1116c0 1.6253.7809 2.8848 2.4546 2.8848 1.6738 0 2.4546-1.2595 2.4546-2.8848 0-1.6252-.7808-2.8847-2.4546-2.8847-1.6737 0-2.4546 1.2595-2.4546 2.8847Zm-1.5301-.0326c0-2.5498 1.4667-4.287 3.9847-4.287 2.5181 0 3.9847 1.7372 3.9847 4.287 0 2.5507-1.4666 4.3513-3.9847 4.3513-2.518 0-3.9847-1.8015-3.9847-4.3513Zm17.022 4.1442h-1.5936l2.4547-4.3523-2.2951-3.8727h1.5935l1.7054 2.9323 1.6738-2.9323h1.5935l-2.3912 3.9212 2.5498 4.3038h-1.5935L32.482 19.29l-1.7847 3.2514ZM120 8.35275V2.16904h-1.338l-2.794 4.79082V2.16904h-1.061v6.18371h1.329l2.807-4.8085v4.8085H120Zm-2.635-7.33124c-.393 0-.647-.176295-.685-.52151h-.863c.012.77999.551 1.2073 1.547 1.2073.997 0 1.553-.4264 1.566-1.2073h-.862c-.038.344304-.306.52151-.703.52151Zm-46.1796 1.0617c1.7204-.0215 2.9799 1.22871 2.9622 3.17764.0167 1.94902-1.2418 3.19913-2.9622 3.17772-1.7251.02141-2.9883-1.2287-2.9669-3.17772-.0223-1.94893 1.2418-3.19914 2.9669-3.17764Zm.0429 5.41119c1.1252 0 1.8631-.84522 1.8631-2.23355 0-1.38824-.737-2.23347-1.8631-2.23347h-.0868c-1.1251 0-1.8631.84523-1.8631 2.23347 0 1.38833.7371 2.23355 1.8631 2.23355h.0868ZM43.3681 2.16904h-1.0607v6.18371h1.0607V5.7348h2.8801v2.61795h1.0608V2.16904h-1.0608v2.61694h-2.8801V2.16904Zm6.4188 4.67038h2.7467l.5868 1.51333h1.113l-2.4023-6.18371h-1.281l-2.449 6.18371h1.1037l.5821-1.51333Zm1.3706-3.56203 1.0094 2.61321h-2.0143l1.0049-2.61321Zm8.7428 6.36939V8.35275h-4.8514V2.16904h1.0608v5.23954h2.8119V2.16904h1.0561v5.23954h.9395l.0084 2.2382h-1.0253Zm7.1605-1.29403V2.16904h-1.3361l-2.7942 4.79073V2.16904h-1.0608v6.18371h1.3277l2.8072-4.8085v4.8085h1.0562Zm9.3091-6.18371h-1.0608v6.18371h1.0608V5.7348h2.88v2.61795h1.0608V2.16904h-1.0608v2.61694h-2.88V2.16904Zm9.1654 4.67038h-2.7466l-.5822 1.51333h-1.1037l2.449-6.18371h1.281l2.4024 6.18371h-1.1131l-.5868-1.51333Zm-.3666-.94882-1.0095-2.61321-1.0048 2.61321h2.0143Zm2.7018 1.48345-.4357.00464h-.0009v.97497h.5523c.5476 0 .9488-.125 1.2035-.37966.2547-.25474.4058-.59157.4441-1.00949.0298-.31069.056-.79302.0774-1.44892.0215-.6559.0345-1.21659.0345-1.68216v-.71557h2.2858v5.23398h1.0608V2.16813h-4.3635v1.65601c0 .49636-.0093 1.00111-.0261 1.5095-.0082.31925-.0197.59413-.0335.82491-.0083.13749-.0174.25939-.0271.36563-.0514.66892-.2762.83219-.7716.84987Zm9.3847.9787h-2.6524V2.16904h1.0608v2.32029h1.5823c1.3798 0 2.0357.77152 2.0357 1.88461.0093 1.00475-.6419 1.99648-2.0264 1.97881Zm-.125-2.9454h-1.4666v2.00123h1.5179c.668 0 1.0393-.39187 1.0393-1.00859.001-.65207-.362-.99264-1.0906-.99264Zm4.2448-3.23831h-1.061v6.18371h1.061V5.7348h2.881v2.61795h1.061V2.16904h-1.061v2.61694h-2.881V2.16904Zm8.105 6.18371h-2.652V2.16904h1.061v2.32029h1.582c1.38 0 2.036.77152 2.036 1.88461.009 1.00475-.643 1.99648-2.027 1.97881Zm-.125-2.9454h-1.466v2.00123h1.518c.668 0 1.039-.39187 1.039-1.00859-.001-.65207-.363-.99264-1.091-.99264Zm3.942-3.23831v6.18371h-1.061V2.16904h1.061ZM42.3083 10.8895h2.7074c1.1644-.013 1.9966.7249 1.9835 1.9144.0131 1.1905-.8191 1.9275-1.9835 1.9191h-1.6466v2.3502h-1.0608v-6.1837Zm2.5731 2.8847c.6857 0 1.0608-.3619 1.0608-.9703 0-.6082-.3751-.9656-1.0608-.9656h-1.5133v1.9368h1.5133v-.0009Zm3.6712 1.7857h2.7466l.5878 1.5133h1.1121l-2.4024-6.1837h-1.2809l-2.449 6.1837h1.1037l.5821-1.5133Zm1.3715-3.562 1.0085 2.6132h-2.0133l1.0048-2.6132Zm6.3012-1.1942c1.4667-.0131 2.4752.8835 2.5442 2.0823h-1.0608c-.056-.3536-.2155-.6297-.4702-.8322-.2547-.2024-.5738-.3059-.9656-.3059h-.0905c-1.1121-.0169-1.8501.918-1.837 2.2334-.0131 1.3156.7249 2.2513 1.837 2.2336h.0905c.3928 0 .7156-.099.9703-.2977.2547-.2024.4095-.4786.4655-.8368h1.0608c-.0737 1.2203-1.0738 2.0954-2.5442 2.0786-1.8193.0168-2.9538-1.3201-2.9369-3.1777-.0159-1.85 1.1176-3.1991 2.9369-3.1776Zm5.0819 4.0061H63.3009v2.2634h1.0608v-6.1837h-1.0608v2.9771h-1.6737c-.7249 0-.9358-.2286-.9358-.8845l-.0046-2.0917H59.626l.0084 2.5657c.0037.9265.5299 1.3537 1.6728 1.3537Zm4.564-3.9203h4.6051v.9488H66.932v1.587h3.0144v.9488H66.932v1.755h3.6311v.9441h-4.6919v-6.1837Zm5.2069.9488h2.1692v5.2349h1.0561v-5.2349h2.1738v-.9488h-5.3991v.9488Zm6.3106-.9488h1.0607v2.6179h2.881v-2.6179h1.0608v6.1837h-1.0608v-2.6179h-2.881v2.6179h-1.0607v-6.1837Zm6.5139 6.1837h2.6515c1.3836.0177 2.0348-.974 2.0273-1.9788 0-1.1121-.6558-1.8846-2.0357-1.8846h-1.5823v-2.3203h-1.0608v6.1837Zm1.0608-2.9454h1.4657c.7287 0 1.0906.3415 1.0915.9918 0 .6167-.3713 1.0095-1.0392 1.0095h-1.518v-2.0013Zm5.4065 2.9454v-6.1837h-1.0607v6.1837h1.0607Zm6.7034-6.1838v6.1837h-1.0561v-4.8076l-2.8073 4.8076h-1.3286v-6.1837h1.0608v4.7908l2.7942-4.7908h1.337Zm-3.3204-1.66901c.0392.34521.2929.52151.6857.52151.3965 0 .6642-.1763.7025-.52151h.863c-.0131.78091-.5691 1.20731-1.5655 1.20731-.9964 0-1.5347-.4273-1.5478-1.20731h.8621ZM48.241 27.0876v-2.2372h-.9143v-5.2396h-4.3765l-.0047 1.5478c-.0047.7641-.013 1.3845-.0261 1.8547-.013.4693-.0346.8407-.0644 1.1037-.0513.487-.2668.7193-.7156.724l-.4487.0084v2.2382h1.0346v-1.2931h4.4848v1.2931h1.0309Zm-4.2729-6.5289H46.2715v4.2907h-2.6692c.1596-.1427.2584-.3751.293-.7072.0106-.0933.0197-.2176.0277-.3731.0115-.2254.0205-.5163.0282-.8733.0122-.6083.0169-1.1821.0169-1.7251v-.612Zm5.245-.9488h4.6051v.9488h-3.5443v1.587h3.0145v.9488h-3.0145v1.7549h3.6311v.9442h-4.6919v-6.1837Zm10.7562 6.1837v-6.1837H55.019v6.1837h1.0608v-5.2349h2.8334v5.2349h1.0561Zm4.1246-6.2695c1.7204-.0215 2.9799 1.2287 2.9622 3.1776.0168 1.949-1.2418 3.2001-2.9622 3.1786-1.725.0215-2.9882-1.2287-2.9668-3.1786-.0214-1.9489 1.2418-3.1991 2.9668-3.1776Zm.0429 5.4121c1.1252 0 1.8632-.8452 1.8632-2.2335 0-1.3882-.7371-2.2335-1.8632-2.2335h-.0867c-1.1252 0-1.8632.8453-1.8632 2.2335 0 1.3883.7371 2.2335 1.8632 2.2335h.0867Zm3.689-1.1429c.1082 1.3584.9572 2.087 2.5227 2.087 1.4741.0131 2.3847-.7379 2.3726-1.8192 0-.7632-.4404-1.2334-1.1644-1.3929.7025-.2202 1.0738-.7464 1.0738-1.3845 0-1.0739-.8536-1.7596-2.2643-1.7596-.5383 0-.987.1036-1.3537.3107-.3666.2061-.6382.4693-.8238.793-.1857.319-.2892.6502-.3153 1.0001h1.0738c.0989-.737.543-1.1728 1.4358-1.1728.7464 0 1.1905.3322 1.1905.8537 0 .5561-.4133.8883-1.1252.8883h-.8191v.9497h.8406c.78 0 1.1942.3023 1.1942.8667 0 .6073-.4394.9227-1.3024.9227-.8835 0-1.3538-.3713-1.4704-1.1429h-1.0654Zm11.2777 2.0003h-1.0562v-4.8085l-2.8072 4.8085h-1.3276v-6.1837h1.0607v4.7907l2.7942-4.7907h1.3361v6.1837Zm.9114-5.2349h2.1692v5.2349h1.057v-5.2349h2.1729v-.9488h-5.3991v.9488Zm9.2905 3.7216h-2.7466l-.5822 1.5133h-1.1037l2.449-6.1837h1.281l2.4024 6.1837h-1.1121l-.5878-1.5133Zm-.3666-.9488-1.0095-2.6132-1.0048 2.6132h2.0143Zm5.5912-3.7216h-2.7084v6.1837h1.0608v-2.3502H94.53c1.1644.0084 1.9966-.7286 1.9835-1.9191.0131-1.1895-.8191-1.9274-1.9835-1.9144Zm.9264 1.9144c0 .6083-.375.9703-1.0607.9703h-1.5133v-1.9359h1.5133c.6857 0 1.0607.3574 1.0607.9656Zm7.2846 4.2693h-1.056v-4.8085l-2.8074 4.8085H97.55v-6.1837h1.0608v4.7907l2.7942-4.7907h1.336v6.1837Zm5.647 0h1.056v-6.1837h-1.336l-2.794 4.7908v-4.7908h-1.061v6.1837h1.328l2.807-4.8085v4.8085Zm-1.578-7.3312c-.393 0-.647-.1763-.686-.5215h-.862c.013.78.551 1.2073 1.548 1.2073.996 0 1.552-.4264 1.565-1.2073h-.863c-.038.3443-.306.5215-.702.5215Z"/>
</svg>