<svg xmlns="http://www.w3.org/2000/svg" viewBox="0 0 165 32">
	<path fill="#fff" d="M16 0C7.15207 0 0 7.15207 0 16c0 8.8479 7.15207 16 16 16 8.8479 0 16-7.1521 16-16 0-8.84793-7.1521-16-16-16Zm-2.212 22.7834-1.1797 3.4654c-4.42397-1.4746-7.37328-5.6774-7.37328-10.3963 0-4.7189 2.94931-8.84789 7.44698-10.39628l1.1798 3.46544c-2.9494.95852-4.86641 3.76034-4.86641 6.85714-.14746 3.2442 1.84331 6.0461 4.79261 7.0046Zm5.4562 3.5392-1.106-3.5392c3.0231-.9585 5.0139-3.7604 5.0139-6.9309s-1.9908-5.89858-4.9401-6.85711l1.1797-3.53917c4.4977 1.47466 7.5207 5.67738 7.5207 10.39628 0 4.8664-3.0967 9.0692-7.6682 10.4701ZM162.507 18.8753l1.77 2.1383c-1.844 1.917-4.13 2.4331-5.973 2.4331-1.769 0-3.023-.2949-4.129-.811-2.359-1.1797-3.539-3.5392-3.539-6.4148 0-4.3502 2.949-7.59443 7.299-7.59443 4.867 0 7.226 3.61293 6.858 8.33183h-11.06c.073 1.1797.737 2.2857 1.696 2.8755.811.5162 1.769.7374 3.023.7374 1.401 0 2.801-.4424 4.055-1.6959Zm-8.701-4.4977h7.816c-.221-1.6958-1.622-3.1705-3.834-3.1705-2.286 0-3.687 1.6221-3.982 3.1705Zm-74.2484 8.6267h3.9816l-6.2673-7.2995 6.1935-6.85714h-3.9078l-4.7189 5.45624h-1.4009V8.84766h-3.023V22.9306h3.023v-5.6037h1.4009l4.7189 5.6774Zm12.977-11.576c-2.5807 0-4.2765 1.9908-4.2765 4.4977s1.6958 4.4977 4.2765 4.4977c2.5806 0 4.2027-1.917 4.2027-4.4977.0738-2.4332-1.5484-4.4977-4.2027-4.4977Zm.5161-2.87557c3.9816 0 6.9309 3.09677 6.9309 7.37327 0 4.2028-2.8756 7.447-6.9309 7.447-1.9171 0-3.4654-.6636-4.5714-1.8433v7.3733h-3.0968V8.9214h3.023v1.6959c1.1798-1.40097 2.7281-2.06457 4.6452-2.06457Zm40.1843.36867h-12.608v2.8018h4.792v11.2811h3.097V11.7232h4.793V8.9214h-.074Zm-64.9585 0h-12.682v2.8018h4.7926v11.2811h3.0968V11.7232h4.7926V8.9214Zm-16.3687 7.0783c0-2.6543-1.8433-4.5714-4.4239-4.5714-2.5069 0-4.424 1.9171-4.424 4.5714 0 2.6544 1.8433 4.5715 4.424 4.5715 2.5069 0 4.4239-1.9171 4.4239-4.5715Zm-12.0184 0c0-4.2027 3.2442-7.37323 7.5945-7.37323 4.2765 0 7.5944 3.17053 7.5944 7.37323 0 4.2028-3.2442 7.447-7.5944 7.447-4.2765-.0737-7.5945-3.2442-7.5945-7.447ZM148.203 8.9214v14.0829h-3.023v-9.0691l-7.374 9.0691h-2.433V8.9214h3.023v9.0691l7.374-9.0691h2.433Zm-29.715 14.0829h-3.023V8.9214h3.023v14.0829Zm-7.815-4.7926c0-1.2534-.885-2.1382-2.065-2.1382h-3.096v4.3502h3.096c1.18 0 2.065-.9585 2.065-2.212Zm3.023 0c0 2.8019-2.065 4.7926-5.014 4.7926h-6.194V8.9214h3.024v4.5714h3.465c2.949 0 4.719 1.9171 4.719 4.7189Z"/>
</svg>