<svg xmlns="http://www.w3.org/2000/svg" viewBox="0 0 170 34">
	<path fill="#fff" d="M0 16.9675C0 7.88041 7.5109.510751 16.7796.5v5.95055C10.8603 6.45862 6.06923 11.1648 6.06923 16.9675S10.8739 27.4898 16.8041 27.4898c5.9303 0 10.7295-4.6658 10.7295-10.56l6.0719.0055c0 9.1301-7.519 16.505-16.8014 16.505C7.5218 33.4403 0 26.0626 0 16.9675Zm9.38825-.0002c0-4.0343 3.34115-7.30514 7.45365-7.30514s7.4564 3.27084 7.4564 7.30514c0 4.0342-3.3412 7.3051-7.4564 7.3051s-7.45365-3.2681-7.45365-7.3051ZM26.2822 3.52672c-2.3574 0-4.2705 1.87332-4.2705 4.18743 0 2.31145 1.9105 4.19005 4.2705 4.19005 2.3601 0 4.2733-1.8759 4.2733-4.19005 0-2.31411-1.9159-4.18743-4.2733-4.18743ZM116.141 20.1391c-.73 2.8006-2.759 7.6412-8.991 7.6412-4.412 0-6.832-2.2443-6.832-6.6629 0-.7975.1-1.5858.212-2.3732 1.199-7.3266 4.44-14.26896 11.55-14.33884.945-.01075 2.87-.1075 4.175-.41122l-.475 2.92691c-1.315.33057-3.401.50259-4.618.51066-1.51.01612-2.555.57785-3.279 1.26052-.575.5413-.984 1.20659-1.338 1.90557.951-.2903 1.989-.473 3.159-.473 5.943 0 7.733 5.045 6.437 10.0116v.0027Zm-3.45-1.0133c.648-2.6309.67-6.6278-2.987-6.6278-5.206 0-5.873 7.9287-5.873 9.13 0 2.6018 1.591 3.7413 3.385 3.7413 3.547 0 4.872-3.5746 5.472-6.2435h.003Zm39.254-1.3866-.001.0075-.001.0032v.0009l-.001.0013v.0019c-.704 3.0986-1.158 5.0952-1.958 9.1963l-.234.1935-3.361.0968-.164-.2258 1.355-5.5662.395-1.8249c-1.445-.0323-2.889-.0564-4.332-.0564-1.129 0-1.987.0134-2.865.0376-.496 2.1904-.907 4.1149-1.543 7.3427l-.235.1935-3.364.0968-.164-.2258 1.886-7.9904c.888-3.8193 1.054-4.6578 1.583-8.1841l.235-.2258c1.545-.1935 1.91-.2607 3.49-.5832l.172.2258-.357 1.6045-.512 2.4969-.538 2.3651c1.214.0297 2.426.0485 3.647.0485 1.188 0 2.375-.0288 3.563-.0511.463-2.0696.651-3.1984 1.057-5.8807l.231-.2258c1.551-.1935 1.914-.2607 3.499-.5832l.164.2258c-.546 2.4924-1.079 4.9896-1.647 7.4848Zm6.974-.5994-.005.0027 1.501-6.8805-.163-.2258c-1.587.3225-1.946.3897-3.499.5832l-.232.2258c-.529 3.5263-.695 4.3648-1.584 8.184l-1.88 7.9906.163.2258 3.369-.0968.229-.1935c.818-4.1633 1.264-6.1683 1.992-9.3506 1.569 3.114 3.215 6.2075 4.587 9.4151l.264.1935 3.666-.0995.195-.2553-5.118-9.5467 4.296-3.881c1.088-.9519 2.216-1.8585 3.3-2.8141l-.096-.2902h-3.798l-.366.1908c-2.181 2.2857-4.41 4.5736-6.821 6.6225Zm-22.867-6.7541v-.0027.0027Zm0-.0007-.164-.26-4.578-.0296c-3.051 0-7.328.1908-10.412 3.7333-1.393 1.6179-2.652 4.4078-2.652 6.9692 0 4.053 2.755 6.3912 6.134 6.3912 1.793 0 3.448-.5347 4.843-1.6529l-.231 1.2955.162.2311 3.116-.0671.237-.2285c.659-3.8649.896-5.0932 2.054-10.0896l1.491-6.2926Zm-6.336 12.6543c-.362.285-.727.6155-1.093.8359-.861.5215-1.989.7499-2.883.7499-3.019 0-3.881-2.4969-3.881-4.053 0-.1587.066-4.3461 3.546-6.6763 1.959-1.2982 4.115-1.3626 5.208-1.3626.498 0 .991.0295 1.491.0295l-2.391 10.4766h.003Zm-75.4144-4.8462c-.7659 3.322-1.9487 5.9022-4.4723 5.9022h-.0027c-2.837 0-2.6736-2.8167-1.9595-5.9022.7658-3.3247 1.9158-5.765 4.5131-5.765 3.0469 0 2.4637 3.4267 1.9214 5.765Zm-12.5446.2393c-1.8777 8.1382 3.3003 9.2563 6.895 9.2563 5.7449 0 10.0345-2.5452 11.6206-9.4257l.0038-.0174c.5349-2.4584 2.0328-9.34386-6.8061-9.34386-8.8599 0-11.0129 6.47466-11.7133 9.53066Zm27.9547 8.8505c-1.6651 0-4.3959 0-5.5432.0323l-.1962-.2016c.3188-1.0859 1.0983-4.0047 1.9159-7.5659.505-2.1897 1.0467-4.3747 1.4825-6.5794-1.3926.0323-3.5374.0323-4.5812.0671l-.1908-.2365c.2753-.8815.6622-2.4055.9048-3.31925l.3189-.1747c.9266.03226 4.4476.06719 7.282.06719 3.4283 0 6.7641-.06719 7.4645-.10213l.2371.1747c-.2546.80399-.7003 2.45229-.9305 3.30369l-.0043.0157-.327.2042c-1.3708-.0296-2.4118-.0296-4.3876-.0296-.0483.2081-.1255.53-.2312.9713l-.0003.001-.0001.0005c-.2697 1.1263-.7255 3.03-1.3656 5.8056-.6703 2.9215-1.2235 5.5958-1.5424 7.2917l-.3025.2741h-.0028Zm19.2277-13.9062-.0027-.0026c1.0383 0 2.2729.0349 2.8288.0349-.237 1.0186-.8366 3.7654-1.428 6.343-.7848 3.3946-1.4526 6.1414-1.7578 7.3239l.1526.242c1.4253-.0323 4.1615-.0323 5.6468-.0323l.2562-.207c.1908-.9837.9293-4.475 1.736-7.969 1.0001-4.3379 2.0413-8.7081 2.2865-9.62463l-.1581-.20964c-1.8777.03494-5.396.13707-9.0289.13707-4.6357 0-6.5243-.06988-8.3939-.06988l-.2915.2392c-.2453 1.05088-1.0002 4.78408-1.875 8.57648-.8695 3.7681-1.7769 7.5631-2.1339 8.958l.1934.2017c1.7415-.0323 3.919-.0323 5.6141-.0323l.327-.207c.2536-1.2525.9049-4.2385 1.6407-7.4261.6214-2.7118 1.2999-5.4937 1.4716-6.2408.556 0 1.8042-.035 2.9161-.035Z"/>
</svg>