<svg xmlns="http://www.w3.org/2000/svg" viewBox="0 0 157 26">
	<path fill="#fff" d="M18.0191 15.9847c0 5.1439-3.8108 8.693-9.00952 8.693C3.80858 24.6777 0 21.1286 0 15.9847c0-5.1441 3.81087-8.69316 9.00958-8.69316 5.20102 0 9.00952 3.54906 9.00952 8.69316Zm35.1131 0c0 5.1439-3.8108 8.693-9.0095 8.693-5.1988 0-9.0096-3.5491-9.0096-8.693 0-5.1441 3.8108-8.69316 9.0096-8.69316 5.1987 0 9.0095 3.54906 9.0095 8.69316Zm18.3306-1.9039v10.0317h-4.3765v-9.105c0-2.6223-1.2367-3.7047-3.3459-3.7047-2.2146 0-3.8109 1.2334-3.8109 4.7848v8.0249H55.553V7.80411h4.3261v2.46899h.1031c1.081-1.85116 2.936-2.98385 5.3041-2.98385 3.5497.00229 6.1765 1.95646 6.1765 6.79155Zm65.9722-6.27669V24.1125h-4.377v-6.5856h-7.003v6.5856h-4.377V7.80411h4.377v5.91509h7.003V7.80411h4.377Zm-23.839 0v2.36609h-.102c-.772-1.64529-2.833-2.88095-5.458-2.88095-4.273 0-7.775 3.08685-7.775 8.64275 0 5.6085 3.398 8.7457 7.775 8.7457 2.677 0 4.583-1.2356 5.458-2.778h.102v2.2128h4.377V7.80411h-4.377Zm-23.167-.15332c-2.6773 0-4.7361 1.23566-5.817 3.18981h-.1032c.1535-3.60169 1.3902-5.14398 5.611-5.55587l6.5385-.61782V.5l-7.2599.5652c-7.1042.5652-9.2157 5.40256-9.2157 13.1185 0 6.842 3.9643 10.494 9.1126 10.494 5.098 0 9.0096-3.652 9.0096-8.7457 0-5.0914-3.5521-8.28121-7.8759-8.28121Zm-70.8136.15332v3.70459h8.5974l-8.8036 9.105v3.4988h14.6229v-3.7047h-9.2157l8.8035-9.1576V7.80411H19.6154ZM109.17 20.7167c-2.628 0-4.324-1.9542-4.324-4.6817 0-2.778 1.699-4.7848 4.324-4.7848 2.624 0 4.426 1.9541 4.426 4.7321 0 2.7276-1.802 4.7344-4.426 4.7344ZM4.58266 15.9847c0 2.8282 1.7497 4.6817 4.42692 4.6817s4.42692-1.8512 4.42692-4.6817c0-2.8307-1.7497-4.6819-4.42692-4.6819s-4.42692 1.8512-4.42692 4.6819Zm35.11314 0c0 2.8282 1.7497 4.6817 4.4269 4.6817s4.4269-1.8512 4.4269-4.6817c0-2.8307-1.7497-4.6819-4.4269-4.6819s-4.4269 1.8512-4.4269 4.6819Zm49.5468 4.732c-2.5214 0-4.4795-1.9038-4.4795-4.732 0-2.881 1.9558-4.5789 4.4795-4.5789 2.5239 0 4.4797 1.6979 4.4797 4.5789 0 2.8282-1.9558 4.732-4.4797 4.732Zm62.1964 3.3958-5.919-7.819v7.819h-4.377V7.80411h4.377V14.543l5.457-6.73889h5.407l-6.694 7.40709 7.31 8.899h-5.561v.0023Z"/>
</svg>