<svg xmlns="http://www.w3.org/2000/svg" viewBox="0 0 132 32">
	<path fill="#fff" d="M49.8454 7.15625h-7.252c-.4958 0-.9179.36079-.9955.85074L38.6652 26.6024c-.0577.3671.2258.6989.5975.6989h3.4627c.4957 0 .9178-.3606.9954-.8504l.7913-5.0168c.0773-.4899.4994-.8507.9951-.8507h2.2949c4.7769 0 7.5337-2.3119 8.2543-6.8935.3242-2.0039.0131-3.5784-.9251-4.6807-1.0319-1.21216-2.86-1.85295-5.2859-1.85295Zm.837 6.79145c-.3963 2.6032-2.3846 2.6032-4.3072 2.6032H45.281l.7673-4.8602c.0465-.2941.2995-.5104.597-.5104h.5017c1.309 0 2.5455 0 3.1827.7457.3813.4465.4967 1.1078.3527 2.0217Zm20.8385-.0831h-3.472c-.2978 0-.5511.2164-.5973.5104l-.1529.971-.2427-.3517c-.7523-1.0916-2.4283-1.4563-4.1019-1.4563-3.8362 0-7.1139 2.9074-7.7517 6.9848-.3321 2.0341.1392 3.9783 1.2926 5.3352 1.0597 1.2467 2.572 1.7656 4.3738 1.7656 3.0921 0 4.8074-1.9869 4.8074-1.9869l-.1551.9654c-.0583.367.2253.6991.5972.6991h3.127c.496 0 .9174-.3605.9956-.85l1.8773-11.8878c.0578-.3673-.2258-.6988-.5973-.6988Zm-4.8391 6.7592c-.3357 1.9839-1.911 3.316-3.92 3.316-1.0072 0-1.8135-.3239-2.3318-.9373-.5136-.6079-.7069-1.4742-.5439-2.439.3125-1.9664 1.9132-3.3415 3.8916-3.3415.9859 0 1.7868.327 2.3152.9462.5319.6235.7409 1.4954.5889 2.4556ZM101.569 7.15625h-7.252c-.4951 0-.9174.36079-.9947.85074L90.3899 26.6024c-.0578.3671.2249.6989.5964.6989h3.7218c.3466 0 .6426-.2523.6959-.5956l.832-5.2716c.0774-.4899.4996-.8507.9956-.8507h2.295c4.7764 0 7.5334-2.3119 8.2544-6.8935.323-2.0039.012-3.5784-.926-4.6807-1.032-1.21216-2.859-1.85295-5.286-1.85295Zm.838 6.79145c-.397 2.6032-2.384 2.6032-4.3079 2.6032h-1.0942l.768-4.8602c.0462-.2941.2996-.5104.5964-.5104h.5022c1.3085 0 2.5455 0 3.1825.7457.382.4465.497 1.1078.353 2.0217Zm20.838-.083h-3.472c-.297 0-.551.2164-.597.5104l-.153.971-.242-.3518c-.753-1.0915-2.429-1.4562-4.103-1.4562-3.836 0-7.113 2.9073-7.751 6.9848-.332 2.0341.139 3.9783 1.293 5.3352 1.059 1.2466 2.571 1.7656 4.373 1.7656 3.092 0 4.808-1.9869 4.808-1.9869l-.156.9654c-.057.367.226.6991.598.6991h3.127c.496 0 .918-.3605.995-.8501l1.878-11.8877c.057-.3674-.226-.6988-.598-.6988Zm-4.839 6.7592c-.336 1.9839-1.91 3.316-3.92 3.316-1.007 0-1.813-.3239-2.331-.9373-.514-.6079-.708-1.4742-.544-2.439.313-1.9664 1.913-3.3415 3.891-3.3415.986 0 1.787.327 2.316.9461.531.6236.74 1.4955.588 2.4557Zm5.956 5.9785 2.977-18.93576c.046-.29395.299-.51075.597-.51039h3.35c.372 0 .655.33182.597.69875l-2.935 18.5955c-.078.4899-.499.8504-.995.8504h-2.994c-.371 0-.655-.3318-.597-.6985ZM86.5258 13.8648h3.4906c.4871 0 .7742.5483.4969.9488L78.9055 31.5663c-.1885.2719-.4978.4338-.8285.4338H74.59c-.4907 0-.7769-.5538-.4933-.9543l3.615-5.1003-3.8435-11.2811c-.1333-.3925.1582-.7999.5725-.7999h3.431c.4445 0 .8373.2927.9653.719l2.04 6.8143 4.815-7.091c.1876-.276.4996-.442.8338-.442Z"/>
	<path fill="#AED6FA" d="M24.4386 8.1301c.3905-2.48948-.0025-4.18304-1.349-5.71754C21.6072.723571 18.9294 0 15.5031 0H5.55759c-.70008 0-1.29651.509432-1.4054 1.20139L.0105628 27.4625c-.0815099.5182.3191072.9866.8431872.9866h6.1399l-.42372 2.6873c-.07138.4534.27866.8631.73759.8631h5.17558c.6124 0 1.1338-.4456 1.2294-1.0508l.0508-.2634.9749-6.1823.0629-.3415c.0955-.605.617-1.0512 1.2294-1.0512h.7741c5.0138 0 8.9397-2.0368 10.0867-7.9277.4794-2.4614.2314-4.5161-1.0362-5.96061-.383-.43608-.8601-.79723-1.4165-1.09189Z"/>
	<path fill="#E6F2FC" d="M24.4386 8.1301c.3905-2.48948-.0026-4.18304-1.349-5.71754C21.6072.723571 18.9294 0 15.5031 0H5.55759c-.70008 0-1.29651.509432-1.4054 1.20139L.0105628 27.4625c-.0815099.5182.3191072.9866.8431872.9866h6.1399l1.54238-9.7803-.048.3067c.10924-.6916.70017-1.2014 1.4006-1.2014H12.807c5.7313 0 10.219-2.3285 11.5299-9.06224.0392-.19884.072-.39208.1017-.58176Z"/>
	<path fill="#fff" d="M10.1931 8.16298c.0655-.4159.3327-.75678.6922-.92887.1633-.07822.3462-.12195.5374-.12195h7.7961c.9237 0 1.7848.06062 2.572.18746.2248.03618.4439.07787.6567.12515.2125.04729.4192.09974.619.1584.1.02898.1981.06.2949.09191.3866.12844.7467.27964 1.0778.45537.3905-2.48956-.0025-4.18307-1.349-5.71756C21.6072.723571 18.9294 0 15.5031 0H5.55759c-.70008 0-1.29651.509432-1.4054 1.20139L.0105628 27.4625c-.0815099.5182.3191072.9866.8431872.9866h6.1399l1.54238-9.7803L10.1931 8.16298Z"/>
</svg>