<svg xmlns="http://www.w3.org/2000/svg" viewBox="0 0 160 32">
	<g fill="#FFD100">
		<path d="M35.1984 27.4345v-16.834h14.5385v16.834h-4.5146v-12.702h-5.5859v12.702h-4.438Zm16.834 0v-16.834h12.243v3.9789h-7.8049v2.5251h7.8049v3.6729h-7.8049v2.6782h7.8049v3.9789h-12.243Zm20.5834-8.7996h2.1425c.8418 0 1.4539-.2296 1.913-.6122.4591-.3826.6887-.9182.6887-1.6069 0-.6886-.2296-1.2242-.6887-1.6068-.4591-.3827-1.0712-.5357-1.913-.5357h-2.1425v4.3616Zm-4.5146 8.264V10.4474h7.0398c2.0659 0 3.7493.5356 4.9736 1.5304 1.224.9947 1.8364 2.4485 1.8364 4.285 0 1.3008-.3058 2.3721-.9182 3.2137-.6124.9183-1.4538 1.607-2.5251 1.9896-1.0712.4591-2.219.6886-3.5963.6886h-2.2191v4.7442h-4.5911Zm15.6863 0V10.4474h12.32v3.9025h-7.8818v2.525h7.8818v3.5964h-7.8818v2.6016h7.8818v3.9025l-12.32-.0765Zm27.6235-.0766h-4.132c-1.531 0-2.985-.3826-4.209-1.0713-1.3-.6886-2.295-1.6833-3.06-2.9076-.7656-1.2243-1.1487-2.6016-1.1487-4.2085 0-1.1478.2302-2.2191.6888-3.2138.4599-.9948.9949-1.913 1.7599-2.6016.765-.7652 1.684-1.3008 2.755-1.7599 1.071-.4592 2.219-.6122 3.443-.6122h3.979v3.9025h-4.055c-1.148 0-2.066.3826-2.831 1.2242-.766.8417-1.071 1.913-1.071 3.1373 0 1.2243.382 2.219 1.071 3.0607.765.8417 1.683 1.2244 2.831 1.2244h4.055v3.8258h-.076Zm7.269-3.5198h3.52c.689 0 1.224-.1531 1.607-.3826.382-.3061.535-.6887.535-1.1478 0-.4591-.153-.8417-.535-1.0712-.383-.3061-.918-.3827-1.684-.3827h-3.443v2.9843Zm0-6.351h2.831c1.454 0 2.142-.5357 2.142-1.5304 0-.4591-.153-.8417-.535-1.0712-.383-.2296-.842-.3827-1.531-.3827h-2.907v2.9843Zm-4.438 9.9474V10.4474h8.417c1.99 0 3.443.4591 4.438 1.4539.689.6886 1.071 1.6068 1.071 2.6781 0 1.7599-.842 2.9842-2.525 3.6729 1.072.3826 1.837.8417 2.448 1.5304.536.6121.842 1.5303.842 2.6016 0 1.3773-.535 2.525-1.607 3.2903-1.071.7651-2.601 1.2243-4.591 1.2243h-8.493Zm16.757 0V10.4474h12.855v3.9025h-8.417v2.525h8.417v3.5964h-8.417v2.6016h8.417v3.9025l-12.855-.0765Zm14.615-12.4726v-3.9789H160v3.9789h-4.897v12.4726h-4.515V14.4263h-4.974ZM36.4227 4.4024h1.4539l-.7652-1.75991-.6887 1.75991Zm-1.5304 1.68347 1.913-4.36158h.6887l1.9129 4.36158h-.7651l-.4592-1.07129h-2.0659l-.4591 1.07129h-.7653Zm4.9738 0V1.72429h.7652v2.219l2.066-2.219h.9182l-1.7599 1.83642 1.9129 2.44863h-.9182L41.32 4.17289l-.6887.68862v1.22436h-.7652Zm4.1319 0V1.72429h.7653v3.67287h1.9894V1.72429h.7652v3.67287h.6121l-.0765 1.60693h-.6886v-.91822H43.998Zm4.4381 0V1.72429h.7652v3.13722l2.219-3.13722h.6887v4.36158h-.7652V2.94862l-2.1425 3.13725h-.7652Zm5.0502-2.14249c0 .30604.0765.53556.1531.76516.153.22951.306.45911.5356.53564.2295.15298.4591.22951.7652.22951.306 0 .5356-.07653.7651-.22951.2296-.15307.3827-.30613.5357-.53564.153-.2296.153-.45912.153-.76516 0-.30613-.0765-.53564-.153-.76525-.153-.22951-.3061-.45911-.5357-.53564-.2295-.15298-.4591-.22951-.7651-.22951-.3061 0-.5357.07653-.7652.22951-.2296.15307-.3826.30613-.5356.53564-.0766.22961-.1531.45912-.1531.76525Zm-.7652 0c0-.30613.0766-.61218.1531-.84178.0764-.30604.2295-.53555.4591-.68862.2295-.22957.4591-.38261.6886-.45912.3061-.15304.6122-.15304.9183-.15304.306 0 .6121.07652.9182.15304.306.15304.5356.30607.6887.45912.2295.22951.3826.45911.4591.68862.0765.30613.153.53565.153.84178 0 .30604-.0765.61209-.153.84169-.0765.30604-.2296.53564-.4591.68862-.1531.2296-.3827.38258-.6887.53565-.3061.15306-.6122.15306-.9182.15306-.4591 0-.8417-.07653-1.1478-.30613-.3825-.22951-.6121-.45911-.7652-.84169-.2295-.30604-.3061-.68862-.3061-1.0712Zm5.1268 2.14249V1.72429h.7652v1.83642h2.066V1.72429h.7652v4.36158h-.7652V4.24942h-2.066v1.83645h-.7652Zm4.3615 0V1.72429h3.2138v.68869h-2.4486v1.14773h2.1425v.68871h-2.1425v1.14774h2.4486v.68871h-3.2138Zm4.591-2.06605h.9183c.3061 0 .5356-.07653.6887-.22951.1529-.15306.2295-.30613.2295-.53564 0-.2296-.0766-.45911-.2295-.61218-.1531-.15298-.3826-.22951-.6887-.22951h-.9183v1.60684Zm-.7651 2.06605V1.72429h1.6834c.5356 0 .9182.15304 1.2243.3826.3061.22956.4591.61213.4591 1.07124 0 .30605-.0765.61218-.2296.84169-.153.2296-.3826.38258-.6122.53565-.2295.07653-.5355.15307-.8416.15307h-.8417v1.37733h-.8417Zm3.8259 0V1.72429h.7652v1.83642h2.066V1.72429h.7652v4.36158h-.7652V4.24942h-2.066v1.83645h-.7652Zm8.2641 0h.7652V1.72429h-.7652v4.36158Zm-3.1372-.68871h.9947c.3061 0 .5356-.07654.6887-.22951.153-.15307.2296-.30614.2296-.53565 0-.2296-.0766-.38258-.2296-.53564-.1531-.15307-.3826-.15307-.6887-.15307h-.9947v1.45387Zm-.7652.68871V1.72429h.7652v1.53038h.9947c.4591 0 .9183.15306 1.1478.38258.3061.2296.4591.53564.4591.99475s-.153.76516-.4591 1.07129c-.3061.22951-.6886.38258-1.2243.38258h-1.6834ZM80.4977.576515 80.9564.5c.0764.306071.2293.459112.536.459112.2293 0 .4586-.153041.5351-.459112l.4595.076515c-.0764.229556-.1529.459115-.3066.612155-.1529.15304-.3823.22955-.6116.22955-.2293 0-.4596-.07651-.6889-.22955-.2293-.15304-.3058-.382599-.3822-.612155Zm-.8421 5.509355V1.72429h.7656v3.13722l2.2187-3.13722h.6889v4.36158h-.7653V2.94862l-2.2196 3.13725h-.6883Zm5.9683 0V1.72429h.7653v2.219l2.0658-2.219h.9182l-1.76 1.83642 1.9138 2.44863h-.9182l-1.4542-1.98952-.6889.68872V5.9328h-.8418v.15307Z"/>
		<path d="M90.2153 3.94338c0 .30604.0764.53556.1529.76516.1538.22951.3066.45911.536.53564.2293.15298.4586.22951.7653.22951.3058 0 .5351-.07653.7653-.22951.2294-.15307.3823-.30613.5352-.53564.1528-.2296.1528-.45912.1528-.76516 0-.30613-.0764-.53564-.1528-.76524-.1529-.22952-.3058-.45912-.5352-.53565-.2302-.15298-.4595-.22951-.7653-.22951-.3067 0-.536.07653-.7653.22951-.2294.15307-.3822.30613-.536.53565-.0765.2296-.1529.45911-.1529.76524Zm-.7653 0c0-.30613.0764-.61218.1537-.84178.0765-.30604.2294-.53555.4587-.68862.2293-.22957.4596-.38261.6889-.45912.3058-.15304.6115-.15304.9182-.15304.3058 0 .6116.07652.9182.15304.3058.15304.5351.30607.6889.45912.2294.22951.3822.45911.4587.68862.0764.30613.1529.53565.1529.84178 0 .30604-.0765.61209-.1529.84169-.0765.30604-.2293.53564-.4587.68862-.2302.2296-.4595.38258-.6889.45911-.3066.15307-.6124.15307-.9182.15307-.4595 0-.8418-.07653-1.1475-.30604-.3832-.2296-.6125-.45912-.7654-.84178-.2302-.22951-.3066-.61209-.3066-.99467Zm5.1271 2.14249V1.72429h.8417l1.3005 2.06602 1.3013-2.06602h.8418v4.36158h-.7653V2.94862l-1.3778 2.06596-1.3769-2.06596v3.13725h-.7653Zm5.0497 0V1.72429h.8422l1.301 2.06602 1.3-2.06602h.842v4.36158h-.765V2.94862l-1.377 2.06596-1.378-2.06596v3.13725h-.7652Zm5.0512 0V1.72429h3.213v.68869h-2.448v1.14773h2.142v.68871h-2.142v1.14774h2.448v.68871h-3.213Zm4.591-2.06605h.918c.306 0 .535-.07653.689-.22951.153-.15306.229-.30613.229-.53564 0-.2296-.076-.45911-.229-.61218-.154-.15298-.383-.22951-.689-.22951h-.918v1.60684Zm-.766 2.06605V1.72429h1.684c.535 0 .918.15304 1.224.3826.307.22956.459.61213.459 1.07125 0 .30604-.076.61217-.23.84168-.153.2296-.382.38258-.611.53565-.23.07653-.536.15307-.842.15307h-.842v1.37733h-.842Zm3.673-2.75467V1.72429h.766V3.1016c0 .30613.076.45911.229.61218.153.15307.306.22951.612.22951.153 0 .383 0 .612-.07644.23-.07654.383-.15307.536-.2296V1.72429h.765v4.36158h-.765V4.4024c-.46.2296-.842.38267-1.224.38267-.46 0-.765-.15307-1.072-.38267-.306-.22951-.459-.61209-.459-1.0712Zm4.209 2.75467V1.72429h3.213v.68869h-2.448v1.14773h2.143v.68871h-2.143v1.14774h2.448v.68871h-3.213Zm3.597-2.14249c0-.30613.076-.61218.152-.84178.077-.30604.23-.53555.459-.68862.229-.22957.46-.38261.689-.45912.306-.15304.612-.15304.918-.15304.382 0 .689.07652.918.15304.23.15304.536.30607.766.53565l-.46.45911c-.153-.15306-.382-.30613-.535-.38257-.23-.07654-.383-.15307-.612-.15307-.306 0-.536.07653-.766.22951-.229.15307-.382.30613-.535.53565-.154.2296-.154.45911-.154.76524 0 .45911.154.76516.384 1.0712.305.30613.612.45911.994.45911.23 0 .459-.07653.689-.15298.153-.07653.382-.2296.612-.45911l.459.45911c-.153.15298-.306.30605-.459.38258-.153.07653-.306.15298-.535.22951-.23.07654-.46.07654-.689.07654-.383 0-.766-.07654-1.148-.30605-.307-.2296-.612-.45911-.765-.84169-.23-.15306-.382-.53564-.382-.91822Zm4.437 2.14249V1.72429h.765v2.219l2.066-2.219h.918l-1.76 1.83642 1.914 2.44863h-.918l-1.454-1.98952-.689.68872V5.9328h-.842v.15307Zm4.209 0V1.72429h.765v3.13722l2.219-3.13722h.689v4.36158h-.766V2.94862l-2.218 3.13725h-.689Zm5.28-5.509355L134.366.5c.077.306071.231.459112.536.459112.23 0 .459-.153041.536-.459112l.459.076515c-.076.229556-.153.459115-.306.612155s-.383.22955-.612.22955c-.229 0-.46-.07651-.689-.22955-.229-.15304-.306-.382599-.382-.612155Zm-.842 5.509355V1.72429h.765v3.13722l2.219-3.13722h.689v4.36158h-.765V2.94862l-2.143 3.13725h-.765Zm6.733-.68871h.995c.306 0 .612-.07654.765-.15298.153-.07653.23-.30613.23-.53564 0-.2296-.077-.38258-.23-.45912-.153-.07653-.382-.15306-.689-.15306h-1.147l.076 1.3008Zm-.765.68871V1.72429h3.214v.68869h-2.449v.99476h1.224c.46 0 .842.15297 1.149.38257.306.22951.458.53565.458.99476s-.152.76516-.458.99467c-.307.2296-.689.38266-1.149.38266h-1.989v-.07653Zm5.204-1.68347h1.453l-.765-1.75991-.688 1.75991Zm-1.455 1.68347 1.913-4.36158h.689l1.913 4.36158h-.765l-.459-1.07129h-2.066l-.459 1.07129h-.766Zm4.898 0V1.72429h.765v1.83642h2.066V1.72429h.766v4.36158h-.766V4.24942h-2.066v1.83645h-.765Zm4.361 0V1.72429h.765v2.219l2.066-2.219h.918l-1.759 1.83642 1.913 2.44863h-.918l-1.454-1.98952-.689.68872V5.9328h-.842v.15307Z"/>
		<path d="M14.6916 31.1834c8.1874 0 14.768-6.5806 14.768-14.7681 0-7.93166-6.366-14.47306-14.2324-14.75837.0043 2.17439 1.456 3.28227 2.9077 4.39014 1.4539 1.10952 2.9077 2.21903 2.9077 4.39973v3.2138L8.57007 16.3388v-5.892c0-2.22862 1.46653-3.33811 2.92673-4.44278 1.4468-1.09458 2.8873-2.18442 2.8887-4.35363C6.41574 1.81531 0 8.40661 0 16.4153c0 8.1875 6.50409 14.7681 14.6916 14.7681Zm-6.19789-8.111V17.257l9.79439-2.219v5.1267c0 3.0607-2.1426 5.7389-5.1267 6.351l-7.42236 1.6069c-.30604-.2295-.61217-.4591-.84168-.6886 2.14248-.3826 3.59635-2.2191 3.59635-4.3616Z"/>
	</g>
</svg>