<svg xmlns="http://www.w3.org/2000/svg" viewBox="0 0 97 40">
	<path fill="#fff" d="M42.4 33.1H.3c-.2-.1-.3 0-.3.1s.1.2.3.2l41.9 6.5h.1v-6.6ZM86.5 7.1c.2 0 .4 0 .5-.2.1-.1.2-.3.2-.5h-.3c0 .1 0 .2-.2.3 0 0-.2.1-.3.1s-.2 0-.3-.1c0 0-.2-.2-.2-.3h-.3c0 .2.1.4.3.5.1.1.3.2.5.2ZM55.1 4.8h-2V3.6H55v-.4h-1.9V2.1h2v-.5h-2.5v3.6h2.5v-.4zM49.4 2.1h1.9v3.2h.5V1.6h-2.9v3.6h.5V2.1zM56.2 5.2V3.7h1c.8 0 1.2-.4 1.2-1.1v-.4c0-.1-.1-.3-.3-.4-.3-.2-.6-.3-.9-.3h-1.5v3.6h.5Zm0-3.2h1.5s.2.1.2.2v.6s0 .2-.2.2c-.2.1-.4.2-.6.1h-.9V1.8ZM73.1 7.7v-.4h-2.6v3.6h2.6v-.4H71V9.2h2v-.4h-2V7.7h2.1zM94.2 1.2c.1.1.3.2.5.2h.3s.2 0 .2-.1c.1-.1.2-.3.2-.5h-.3s0 .2-.2.2c0 0-.2.1-.3.1-.1 0-.2 0-.3-.1 0 0-.2-.2-.2-.3h-.3V1s.1.2.2.2ZM52.7 9.6l.6-.5 1.3 1.8h.6l-1.6-2.2 1.5-1.4h-.6l-1.8 1.8V7.3h-.5v3.6h.5V9.6zM87.3 6.4zM83.9 5.3c.4 0 .9-.1 1.2-.4.3-.3.5-.7.5-1.1h-.4c0 .3-.1.6-.3.8 0 0-.2.2-.3.2h-.9c-.2 0-.3-.2-.4-.3-.2-.3-.4-.7-.3-1.1 0-.4 0-.7.3-1 .1-.1.2-.3.4-.3s.3-.1.5 0c.2 0 .5 0 .7.2.2.1.3.3.4.6h.5c0-.2 0-.4-.1-.5 0-.2-.2-.3-.4-.4-.3-.2-.7-.3-1-.3-.2 0-.5 0-.7.1-.2 0-.4.2-.6.4-.3.4-.5.9-.5 1.3 0 .5.1 1 .5 1.4.3.3.7.5 1.1.5ZM72.5 5.3l.4-1.1h1.5l.4 1.1H76c.1 0 .2-.1.3-.3.2-.3.2-.6.2-.9v-2h1.4v3.2h.5V1.6h-2.3V4.5s0 .2-.2.3h-.5v.3L74 1.6h-.5l-1.4 3.6h.5Zm1.2-3.2.6 1.7h-1.2l.6-1.7ZM67.2 4.4c-.2.3-.3.5-.5.5h-.4v.4h.4c.2 0 .4 0 .5-.2.2-.2.4-.4.5-.6l1.4-2.9h-.5l-1 2.2-1.1-2.2H66l1.3 2.7ZM83.8 7.3h.5v3.6h-.5zM67.3 7.3h-.4v3.6h.4V9.2h2v1.7h.4V7.3h-.4v1.5h-2V7.3zM81.2 5.2c.1 0 .3-.1.4-.2.1-.1.2-.2.2-.4v-.8c0-.1-.1-.3-.2-.4-.1 0-.2-.2-.4-.2h-1.5V1.7h-.5v3.6h2Zm-1.5-.4V3.5h.9c.5 0 .8.2.8.7 0 .5-.3.7-.8.7h-.9ZM70 5.2V3.7h1c.8 0 1.2-.4 1.2-1.1v-.4c0-.1-.1-.3-.3-.4-.3-.2-.6-.3-.9-.3h-1.5v3.6h.5ZM70 2h1.5s.2.1.2.2v.6s-.1.2-.2.2c-.2.1-.4.2-.6.1H70V1.8ZM81.2 7.3h-.5V11h2c.1 0 .3-.1.4-.2.1-.1.2-.2.2-.4v-.9c0-.1-.1-.3-.2-.4-.1 0-.2-.2-.4-.2h-1.5V7.4Zm.9 1.9c.5 0 .8.2.8.6 0 .4-.3.6-.8.7h-.9V9.2h.9ZM61.9 4.2c0-.2 0-.4-.2-.6-.1-.2-.3-.3-.5-.3.2 0 .3-.2.4-.3 0-.1.1-.3.1-.5v-.4c0-.1-.1-.2-.3-.3-.2-.1-.5-.2-.8-.2H59v3.6h1.5c.9 0 1.4-.3 1.4-1Zm-2.4-2.1H61.1s.1 0 .1.2v.6s0 .1-.1.2H59.5v-1Zm0 1.5H61.3c0 .2.1.2.1.3v.6s0 .1-.1.2c0 0-.1 0-.2.1h-1.5V3.5ZM62.2 10.9V7.3h-.6l-1.8 3v-3h-.5v3.6h.6l1.8-3.1v3.1h.5zM62.7 4.8c.1.2.3.3.5.4.2.1.5.2.8.2.2 0 .5 0 .7-.1.2 0 .4-.2.6-.4.3-.4.5-.9.5-1.4 0-.5-.1-1-.5-1.3-.2-.2-.4-.3-.6-.4s-.5-.1-.7-.1c-.2 0-.5 0-.7.1-.2 0-.4.2-.6.4-.3.4-.5.9-.5 1.3 0 .3 0 .5.1.7 0 .2.2.4.3.6Zm.4-2.4c.1-.1.2-.2.4-.3.2 0 .3-.1.5-.1s.4 0 .5.1c.2 0 .3.2.4.3.2.3.4.7.3 1.1 0 .4-.1.8-.3 1.1-.1.1-.2.2-.4.3-.2 0-.3.1-.5 0h-.5c-.2 0-.3-.2-.4-.3-.2-.3-.4-.7-.3-1.1 0-.4.1-.7.3-1ZM58.4 11.8h.4v-1.3h-.4V7.3H58v3.2h-1.9V7.3h-.5v3.6h2.8v.9zM80.2 15.9s-.2.2-.3.2H79c-.2 0-.3-.2-.4-.3-.2-.3-.4-.7-.3-1.1 0-.4.1-.7.3-1 .1-.1.2-.3.4-.3s.3-.1.5 0c.2 0 .5 0 .7.2.2.1.3.3.4.6h.5c0-.2 0-.3-.1-.5 0-.1-.2-.3-.3-.4-.3-.2-.7-.3-1-.3-.2 0-.5 0-.7.1-.2 0-.4.2-.6.4-.3.4-.5.9-.5 1.3 0 .5.1 1 .5 1.4.3.3.7.5 1.1.5.4 0 .9-.1 1.2-.4.3-.3.5-.7.5-1.1h-.4c0 .3-.1.6-.3.8ZM81 15.1zM85.5 15.9v-3H85v3.6h.6l1.8-3.1v3.1h.5v-3.6h-.6l-1.8 3zM84.5 12.9h-.6l-1.8 1.8v-1.8h-.5v3.6h.5v-1.2l.6-.6 1.3 1.8h.6L83 14.3l1.5-1.4zM76.4 8.3v-.4c0-.1-.1-.3-.3-.4-.3-.2-.6-.3-.9-.3h-1.5v3.6h.5V9.3h1c.8 0 1.2-.4 1.2-1.1Zm-2.2.7V7.7h1.5s.2.1.2.2v.6s0 .2-.2.2c-.2.1-.4.2-.6.1h-.9ZM79.3 10.9h.5V7.3h-.5v1.5h-1.9V7.3H77v3.6h.4V9.2h1.9v1.7zM75.3 14.8h1.9v-.4h-1.9v-1.1h2v-.4h-2.5v3.6h2.5v-.4h-2v-1.3zM73.5 12.9v1.6c-.3 0-.7.1-1 .1h-.4s-.2 0-.2-.1c0 0 0-.1-.1-.2v-1.4h-.5v1.3s0 .2.1.3c0 .1.1.2.2.3.1 0 .2.2.4.2h.6c.3 0 .7 0 1-.1v1.6h.5v-3.6h-.5ZM85.6 10.3v-3h-.5v3.6h.6l1.8-3.1v3.1h.5V7.3h-.6l-1.8 3zM90.4 12.6s.2 0 .2-.1c.1-.1.2-.3.2-.5s-.3 0-.3 0c0 .1 0 .2-.2.3 0 0-.2.1-.3.1-.1 0-.2 0-.3-.1 0 0-.2-.2-.2-.3h-.3c0 .2.1.4.3.5.1.1.3.2.5.2h.3ZM95.6 1.6l-1.8 3.1V1.6h-.5v3.6h.6l1.8-3v3.1h.5V1.6h-.6zM90.1 4.7V1.6h-.5v3.6h.6l1.8-3v3.1h.5V1.6h-.6l-1.8 3.1zM89.2 15.9v-3h-.5v3.6h.5l1.9-3.1v3.1h.4v-3.6h-.6l-1.7 3zM87.6 3.1l1.5-1.5-.6.1-1.8 1.8V1.7h-.5v3.6h.5V4l.6-.6 1.3 1.8h.6l-1.6-2.1zM54.4 12.9c-.2 0-.5-.1-.7-.1-.2 0-.5 0-.7.1-.2 0-.4.2-.6.4-.3.4-.5.9-.5 1.3 0 .3 0 .5.1.7 0 .2.2.4.3.6.1.2.3.3.5.4.2.1.5.2.8.2.2 0 .5 0 .7-.1.2 0 .4-.2.6-.4.3-.4.5-.9.5-1.4 0-.5-.1-1-.5-1.3-.2-.2-.4-.3-.6-.4Zm.3 2.9c-.1.1-.2.2-.4.3-.2 0-.3.1-.5 0h-.5c-.2 0-.3-.2-.4-.3-.2-.3-.4-.7-.3-1.1 0-.4.1-.7.3-1 .1-.1.2-.2.4-.3.2 0 .3-.1.5-.1h.5c.2 0 .3.2.4.3.3.3.4.7.4 1.1 0 .4-.1.8-.3 1.1ZM51.8 12.9h-.6l-1.8 1.8v-1.8h-.5v3.6h.5v-1.2l.6-.6 1.3 1.8h.6l-1.6-2.2 1.5-1.4zM53.4 18.5 52 22.1h.5l.4-1.1h1.5l.4 1.1h.5l-1.4-3.6h-.5Zm-.4 2.2.6-1.7.6 1.6H53ZM51.4 20.3c-.2-.2-.5-.3-.8-.3h-1.2v-1.1h2v-.4h-2.5v3.6H51c.1 0 .3-.1.4-.2.1-.1.2-.2.2-.4v-.8c0-.1-.1-.3-.2-.4Zm-1 1.4h-1v-1.3h1c.5 0 .8.2.8.7 0 .4-.3.7-.8.7ZM58.1 20h-1.9v-1.5h-.5v3.6h.5v-1.7h1.9v1.7h.5v-3.6h-.5V20zM49.4 9.8h1.5l.4 1.1h.5l-1.4-3.6h-.5l-1.4 3.6h.5l.4-1.1Zm.8-2.1.6 1.7h-1.2l.6-1.7ZM65 16.5h2.5v-.4h-2.1v-1.3h2v-.4h-2v-1.1h2.1v-.4H65v3.6zM65.8 10.5c.3-.4.5-.9.5-1.4 0-.5-.1-1-.5-1.4-.2-.2-.4-.3-.6-.4-.2 0-.5-.1-.7-.1-.2 0-.5 0-.7.1-.2 0-.4.2-.6.4-.3.4-.5.9-.5 1.3 0 .3 0 .5.1.7 0 .2.2.4.3.6.1.2.3.3.5.4.2.1.5.2.8.2.2 0 .5 0 .7-.1.2 0 .4-.2.6-.4Zm-1.3.1c-.2 0-.3 0-.5-.1-.2 0-.3-.2-.4-.3-.2-.3-.4-.7-.3-1.1 0-.4.1-.8.3-1.1.1-.1.2-.2.4-.3.2 0 .3-.1.5-.1s.3 0 .5.1c.2 0 .3.2.4.3.2.3.4.7.3 1.1 0 .4-.1.8-.4 1.1-.1.1-.3.2-.4.3-.2 0-.3.1-.5.1ZM62.4 15.9l-1.2-3h-.7v3.6h.5v-3l1.1 3h.5l1.1-3v3h.5v-3.6h-.7l-1.1 3zM62.3 18.5h-.6l-1.8 1.8v-1.8h-.5v3.6h.5v-1.2l.6-.6 1.3 1.8h.6L60.8 20l1.5-1.5zM70.5 13.2c-.3-.2-.6-.3-.9-.3h-1.5v3.6h.5V15h1c.8 0 1.2-.4 1.2-1.1v-.4c0-.1-.1-.3-.3-.4Zm-.2 1.1s0 .2-.2.2c-.2.1-.4.2-.6.1h-.9v-1.3H70s.2.1.2.2.1.2.1.4v.3ZM59.7 16.5v-3.6H59l-1.1 3-1.1-3h-.7v3.6h.4v-3l1.2 3h.5l1.1-3v3h.4zM43.3 16.3c-1 1.2-2.3 2.1-3.8 2.6v.1c.5.7.8 1.5.7 2.4 0 .7 0 1.3-.4 1.9-.3.6-.7 1.1-1.3 1.5-1.6 1.1-4 1.1-5.1 1.1H28v-9.1h5.4c4.9 0 10.3-2.3 10.4-8.6C43.8 0 34.2 0 33.1 0h-9.5c-.2 0-.4 0-.6.3-.2.2-.2.4-.2.6V30s.1.2.2.2c0 0 .2.1.3.2H34c1.6 0 3.2-.2 4.8-.6 1.3-.3 2.4-.9 3.5-1.7.9-.7 1.7-1.7 2.2-2.8.5-1.2.8-2.5.8-3.8 0-.7 0-1.4-.3-2.1-.3-1.1-.8-2.2-1.6-3ZM27.9 4.4h4.8c1.5 0 3.1.2 4.4 1 .5.3.9.8 1.1 1.3s.4 1.1.4 1.7c0 .6 0 1.2-.4 1.7s-.6 1-1.1 1.3c-1.4.9-2.8.9-4.4 1h-4.8v-8ZM.5 30.3h4.1c.1 0 .2-.1.3-.2.1-.2.2-.4.2-.6V19.3h4.5c1.6 0 3.2-.2 4.8-.6 1.3-.4 2.6-1 3.6-1.9 1-.8 1.8-1.8 2.4-3 .6-1.3.9-2.7.8-4.2 0-1.4-.3-2.8-.8-4.1-.5-1.2-1.3-2.2-2.4-3-1.1-.9-2.3-1.5-3.6-1.9C12.8.2 11.2 0 9.6 0H.5C.4 0 .3.1.2.2 0 .4 0 .6 0 .8v28.7c0 .2 0 .4.2.6 0 0 .2.1.3.2ZM5.1 4.4h4c2.3 0 4 .4 5.1 1.2 1.1.8 1.7 2.1 1.7 4s-.6 3.2-1.7 4c-1.1.8-2.8 1.2-5.1 1.2h-4V4.4Z"/>
</svg>