<svg xmlns="http://www.w3.org/2000/svg" viewBox="0 0 152 34">
	<path fill="#545758" d="M0 .5h40.2522v32.5636H0V.5Z"/>
	<path fill="#fff" d="M33.6727 17.6815c.3827-1.7743-.3674-3.557-2.1194-4.1735-.8869-.3117-1.7576-.3075-2.6121.0126-1.3257.4954-2.0507 1.4848-2.1751 2.9683-.1669 1.9983 1.0479 3.5305 3.0546 3.7865 1.7674.2269 3.4651-.8043 3.852-2.5939Zm-1.4105-1.3159.0044.8405c.0052 1.0058-.8312 1.8511-1.837 1.8563l-.334.0018c-1.0058.0053-1.851-.8311-1.8563-1.837l-.0044-.8405c-.0053-1.0058.8312-1.851 1.837-1.8563l.334-.0018c1.0058-.0052 1.851.8312 1.8563 1.837ZM9.07464 20.118v-2.125c0-.0723.03618-.1071.10854-.1043 1.57952.0542 3.31202-.1601 3.47202-2.1208.1197-1.4807-.9226-2.3477-2.3365-2.3741-.86647-.0149-1.73808-.0167-2.61479-.0056-.05196.0009-.07793.0274-.07793.0793v6.6519c0 .0523.04372.096.09602.096l1.25662-.0013c.06401 0 .09602-.0321.09602-.0961Zm0-3.4122-.00278-2.1848c0-.0266.02352-.0501.05009-.0501l1.02845-.0014c.5728-.0008 1.0707.4652 1.0715 1.0451v.192c.0007.5799-.496 1.0471-1.0688 1.0479l-1.02836.0014c-.02658 0-.0501-.0235-.0501-.0501Zm6.00326-.4344 2.8681-.0041c.0259 0 .0488-.0229.0488-.0488l.0027-2.7887c0-.0266.0222-.0487.0487-.0487l1.3457.0041c.0266 0 .0487.0222.0487.0487l-.0014 6.7326c0 .0259-.0228.0487-.0487.0487l-1.3456-.0055c-.0259 0-.0488-.0229-.0488-.0487l-.0027-2.8584c0-.0265-.0222-.0487-.0487-.0487h-2.8668c-.0258 0-.0487.0229-.0487.0487v2.8625c0 .0259-.0228.0488-.0487.0488h-1.3512c-.0259 0-.0487-.0229-.0487-.0488v-6.7339c0-.0259.0228-.0487.0487-.0487l1.3512.0041c.0259 0 .0487.0229.0487.0487v2.7874c0 .0259.0229.0487.0487.0487Zm9.964.9327c-.1494-.2533-.3776-.4513-.6847-.5942-.0557-.026-.0557-.0524 0-.0793.2199-.1076.4008-.27.5427-.4871.5789-.886 1.1555-1.771 1.7298-2.6552.0018-.004-.0012-.0092-.0056-.0097-.5863-.0074-1.0975.0083-1.5335.0473-.0216.0017-.0416.0133-.0529.0306-.5362.7635-1.0507 1.547-1.5433 2.3504-.2528.413-.6641.403-1.0905.3926-.0219-.0005-.0439-.001-.0659-.0015-.0483-.0019-.0724-.0269-.0724-.0752v-2.6566c0-.021-.0083-.0412-.0232-.056-.0149-.0149-.0351-.0233-.0561-.0233l-1.2622-.0028c-.0519 0-.0779.026-.0779.078v6.656c0 .051.0444.0961.0946.0961h1.2427c.0548 0 .0821-.027.0821-.0808v-2.7943c0-.052.026-.0793.078-.0821.0273-.0016.0554-.0033.0841-.005.41-.0252.9462-.058 1.153.2944.4602.7793.9106 1.5424 1.3512 2.2892.1494.2542.3749.3809.6764.3799h1.1578c.0201-.0001.0319-.0275.0222-.0431-.5928-1.0103-1.1749-1.9997-1.7464-2.9683ZM112.054 11.7511c.032.59-.578.7431-.959.4551-.14-.1075-.13-.3532-.157-.5108-.008-.0408-.032-.0612-.073-.0612h-.668c-.147.0005-.28.1169-.3.2616-.078.5483.314.9171.814 1.0229.801.1697 2.581.1962 2.382-1.066-.022-.1438-.106-.2162-.252-.2171l-.673-.0028c-.08 0-.118.0394-.114.1183Zm-59.8311 8.4348V14.497c0-.0222.0196-.0418.0417-.0418l2.6622-.0014c.0221 0 .0417.0196.0417.0418v5.6875c0 .0221.0196.0417.0417.0417l1.3777.0028c.0222 0 .0418-.0196.0418-.0417v-6.7702c0-.0221-.0196-.0417-.0418-.0417h-5.5901c-.0221 0-.0417.0196-.0417.0417v6.7688c0 .0221.0196.0417.0417.0417l1.3833.0014c.0222 0 .0418-.0196.0418-.0417Zm8.2466-5.6444c-.0362.9361-.1336 1.8847-.2923 2.8459-.1572.9546-.487 2.2891-1.3596 2.7303-.3637.1846-.8043.2356-1.322.1531-.2004-.0316-.3006-.1489-.3006-.3521v-.6054c0-.1336.0668-.1939.2004-.1809.5474.0557.9259-.2412 1.1356-.8906.4951-1.5266.5379-3.2036.5761-4.7941.0009-.0492.0259-.0737.0751-.0737h4.3446c.0464 0 .0696.0232.0696.0695v6.7145c0 .0464-.0232.0696-.0696.0696l-1.322-.0014c-.0464 0-.0696-.0227-.0696-.0682v-5.6346c0-.0464-.0227-.0696-.0682-.0696h-1.5071c-.0575 0-.0877.0293-.0904.0877Zm5.522 5.4078.4425-1.2413c.0195-.0529.057-.0793.1127-.0793h2.5453c.0519 0 .0862.025.1029.0751.1206.372.2612.7682.4217 1.1884.0798.2097.2282.3178.4453.3243.3516.0102.7083.0148 1.0702.0139.0686-.0009.0904-.0329.0654-.096l-2.6065-6.6797c-.0204-.0538-.0594-.0807-.1169-.0807h-1.3318c-.051 0-.0863.0241-.1057.0723l-2.5912 6.6422c-.0455.1159-.0056.1707.1197.1642.3664-.0204.7329-.0404 1.0993-.0599.1453-.0082.2785-.1074.3271-.2435Zm.8572-2.4228.9407-2.6496c.0176-.0492.0353-.0492.0529 0l.9546 2.7122c.0061.0138-.0045.0295-.0194.0293h-1.8648c-.0468 0-.0788-.0484-.064-.0919Zm5.3688-3.0059h-1.9357c-.0229 0-.0431-.0202-.0431-.0431l-.0014-1.0604c0-.0229.0202-.0431.0431-.0431h5.38c.0228 0 .0431.0202.0431.0431v1.0618c0 .0229-.0203.0431-.0431.0431l-1.8982-.0014c-.0229 0-.0431.0203-.0431.0432v5.6193c0 .0236-.0195.0431-.0432.0431h-1.3735c-.0229 0-.0431-.0202-.0431-.0431l.0014-5.6193c0-.0229-.0203-.0432-.0432-.0432Zm5.8155 1.6644v-1.656c0-.0221.0196-.0418.0417-.0418h2.8389c.0221 0 .0417-.0196.0417-.0417l.0014-1.0298c0-.0221-.0196-.0417-.0417-.0417h-4.3001c-.0221 0-.0417.0196-.0417.0417v6.7688c0 .0221.0196.0417.0417.0417h4.2987c.0221 0 .0417-.0196.0417-.0417l.0014-1.0632c0-.0227-.0189-.0418-.0417-.0418l-2.8403.0014c-.0221 0-.0417-.0196-.0417-.0417v-1.6574c0-.0222.0196-.0418.0417-.0418h2.2168c.0222 0 .0418-.0196.0418-.0417v-1.0298c0-.0221-.0196-.0417-.0418-.0417h-2.2168c-.0221 0-.0417-.0197-.0417-.0418Zm5.9504.3463c-.1837-.0964-.3261-.2245-.4272-.384-.553-.8731-1.1119-1.7368-1.6769-2.5912-.1002-.1512-.0599-.2199.121-.206.3118.0251.6212.0343.9282.0279.309-.0065.5442.1215.7056.384.3868.6272.7867 1.2845 1.1995 1.9719.2825.4732.6402.4788 1.1356.4565.0455-.0019.0682-.026.0682-.0724l-.0014-2.7094c0-.0232.0116-.0348.0348-.0348h1.2872c.0232 0 .0348.0116.0348.0348v2.7122c0 .1116.1708.0726.2321.0714.405-.0079.7021-.0136.9661-.4499.3933-.6531.802-1.3267 1.226-2.0206.1187-.1939.2918-.2978.5191-.3117.4007-.0242.7612-.0455 1.0812-.0641.1865-.0111.2287.0613.1267.2171-.5437.8294-1.0947 1.682-1.6532 2.5578-.1132.1763-.2691.3182-.4676.4258-.0285.0163-.029.0608.0028.0738.3075.1322.5399.3883.7055.6708.5613.9527 1.1114 1.8865 1.6504 2.8013.0511.0862.0265.1308-.0737.1336-.463.0167-.8299.0074-1.1008-.0279-.2363-.0312-.4536-.1728-.5789-.3771-.4212-.6902-.8554-1.4134-1.3025-2.1695-.2379-.4039-.5885-.3951-.9621-.3858-.0962.0024-.194.0049-.2918.0003-.0528-.0019-.0793.0237-.0793.0765v2.8501c0 .0231-.0116.0343-.0348.0334h-1.2872c-.0232 0-.0348-.0112-.0348-.0334V17.344c0-.0436-.0213-.0668-.064-.0695-.0253-.0017-.0505-.0033-.0756-.005-.496-.0327-.9414-.0621-1.2117.4016-.4425.7644-.8702 1.4765-1.283 2.1361-.1531.243-.373.3752-.6596.3966-.2969.0223-.6193.0362-.9672.0417-.1522.0028-.1893-.0612-.1113-.192.5557-.9324 1.0966-1.8513 1.6226-2.7568.1698-.2904.4022-.5144.6972-.6721.0584-.0316.0584-.0626 0-.0933Zm10.0196 3.6476-.0014-2.8598c0-.0259.0229-.0487.0487-.0487h2.8584c.0258 0 .0487.0229.0487.0487v2.8584c0 .0265.0222.0487.0487.0487l1.3694.0014c.0258 0 .0487-.0229.0487-.0487v-6.7563c0-.0258-.0229-.0487-.0487-.0487h-1.3708c-.0258 0-.0487.0229-.0487.0487l.0014 2.7916c0 .0258-.0229.0487-.0487.0487h-2.8584c-.0265 0-.0487-.0222-.0487-.0487l.0014-2.793c0-.0258-.0228-.0487-.0487-.0487l-1.3638.0028c-.0258 0-.0487.0229-.0487.0487v6.7535c0 .0258.0229.0487.0487.0487l1.3638.0014c.0259 0 .0487-.0229.0487-.0487Zm7.342-4.0134c.057-.0019.113-.004.17-.0061.722-.0264 1.463-.0535 2.123.2135.673.2727 1.051.7306 1.133 1.3735.196 1.5363-.885 2.4534-2.35 2.4729-.895.012-1.752.0134-2.5705.0041-.0482 0-.0724-.0241-.0724-.0723v-6.7076c0-.0369.0327-.0695.0696-.0695h1.3223c.046 0 .069.0232.069.0695v2.6177c0 .0714.036.1062.106.1043Zm-.11 1.1467.006 1.759c0 .0207.018.039.039.039l1.167-.0042c.468-.0016.914-.36.912-.8489v-.1475c-.003-.488-.45-.8421-.917-.8405l-1.168.0041c-.021 0-.039.0183-.039.039Zm4.462-3.9382h1.383c.021 0 .038.0168.038.0375v6.7772c0 .0207-.017.0375-.038.0375h-1.383c-.021 0-.038-.0168-.038-.0375v-6.7772c0-.0207.017-.0375.038-.0375Zm4.223 4.8984c1.074-1.8221 2.01-3.3492 2.808-4.5812.116-.1768.327-.3243.549-.3201.351.0065.696.006 1.032-.0014.054-.0009.081.0255.081.0793v6.6742c0 .0686-.035.103-.104.103h-1.289c-.046 0-.07-.0232-.07-.0696l.005-4.8748c0-.0149-.003-.0153-.009-.0014-.107.2403-.222.4615-.345.6638-.82 1.3591-1.634 2.6774-2.442 3.9549-.242.3822-.796.3582-1.251.3385-.12-.0053-.233-.0102-.331-.0073-.052.0019-.078-.0232-.078-.0751v-6.7117c0-.0464.023-.0696.069-.0696h1.318c.047 0 .071.0241.071.0724.005 1.617.004 3.1376-.001 4.5616 0 .0835-.011.1689-.034.2561-.012.0482-.005.051.021.0084Zm16.75.8392-.783.0013c-.057 0-.086-.0287-.086-.0862v-5.5832c0-.0463-.023-.0695-.069-.0695h-1.322c-.047 0-.07.0232-.07.0695v5.5999c0 .0454-.023.0682-.068.0682l-2.612.0013c-.047 0-.07-.0231-.07-.0695v-5.5999c0-.0463-.023-.0695-.068-.0695H120.2c-.046 0-.07.0232-.07.0695v6.7145c0 .0455.024.0682.07.0682h5.149c.047 0 .071.0237.071.071l-.001 1.4626c0 .0473.023.071.07.071l.833-.0014c.227 0 .417-.1901.417-.4175v-2.2294c0-.0473-.023-.0709-.069-.0709Zm2.31-.0307 2.827-.0014c.025 0 .048.0223.048.0474v1.0534c0 .0251-.023.0473-.048.0473l-4.289-.0014c-.025 0-.047-.0222-.047-.0473v-6.7576c0-.0251.022-.0473.047-.0473h4.289c.025 0 .048.0222.048.0473v1.0186c0 .0251-.023.0473-.048.0473h-2.829c-.025 0-.047.0223-.047.0474l.003 1.6421c0 .0251.022.0473.047.0473l2.199.0041c.025 0 .047.0219.047.0474l.001 1.0172c0 .0258-.021.0473-.047.0473l-2.201.0014c-.025 0-.048.0223-.048.0473v1.6449c0 .0251.023.0473.048.0473Zm5.588 1.105v-2.8737c0-.0221.02-.0417.042-.0417h2.875c.022 0 .042.0196.042.0417l-.002 2.8723c0 .0221.02.0417.042.0417h1.377c.022 0 .041-.0196.041-.0417l.002-6.7688c0-.0221-.02-.0417-.042-.0417h-1.378c-.022 0-.042.0196-.042.0417l.002 2.8055c0 .0221-.02.0417-.042.0417h-2.875c-.022 0-.042-.0196-.042-.0417v-2.8055c0-.0221-.019-.0417-.041-.0417h-1.378c-.022 0-.042.0196-.042.0417v6.7688c0 .0221.02.0417.042.0417l1.378.0014c.022 0 .041-.0196.041-.0417Zm8.665-5.6193.001 5.6165c0 .0244-.022.0459-.046.0459l-1.336-.0042c-.024 0-.046-.0215-.046-.0459l-.001-5.6123c0-.025-.021-.046-.046-.046h-1.926c-.024 0-.046-.0215-.046-.0459l-.001-1.0548c0-.0244.021-.0459.046-.0459h5.371c.025 0 .046.0215.046.0459l-.001 1.0562c0 .0244-.022.0459-.046.0459l-1.923-.0014c-.025 0-.046.0216-.046.046Zm4.277 5.5562v-2.132c0-.0677.034-.1001.102-.0974 1.137.032 2.623.0042 3.233-1.187.427-.8364.342-2.1111-.426-2.7387-.442-.3609-.937-.552-1.486-.5733-.675-.0279-1.613-.0334-2.816-.0167-.045.0009-.068.0241-.068.0695v6.709c0 .0464.023.0696.068.0696h1.289c.07.0009.104-.0334.104-.103Zm0-3.422v-2.1876c0-.0266.024-.0501.051-.0501h.976c.585 0 1.1.4715 1.1 1.066v.1559c0 .5945-.515 1.0659-1.1 1.0659h-.976c-.027 0-.051-.0235-.051-.0501Z"/>
</svg>