<svg xmlns="http://www.w3.org/2000/svg" viewBox="0 0 140 30">
	<g fill="#fff">
		<path d="M25.8 24.2s-.1 0-.2-.1c0-.1-.1-.3-.1-.5v-6c0-.2 0-.3.1-.5 0-.1.3-.2.6-.2h.1v-.6h-3.7v.6h.2c.3 0 .5 0 .6.1v.3c.1 0 .1 2.3.1 2.3h-3.2v-2.2c0-.3 0-.4.2-.5.1 0 .3-.1.5-.1h.2v-.6h-3.7v.6h.2c.2 0 .4 0 .5.1.1 0 .2.2.2.5v6c0 .3 0 .4-.1.5-.1 0-.3.1-.5.1h-.2v.6h3.7V24H20.6c-.1 0-.2-.3-.2-.5v-3.1h3.2V24c-.2 0-.4.1-.7.1h-.2v.6h3.7v-.6H25.8ZM36 24.2h-.1c-.1-.2-.3-.3-.5-.5s-.3-.4-.4-.6c0-.1-.2-.3-.2-.4 0-.1-.1-.3-.2-.3l-1.8-3.3 1.2-1.4c.2-.2.4-.4.6-.5.2-.1.5-.2.8-.2v-.6h-2.6v.6h.4l.1.2v.2c-.1 0-.2.2-.3.4l-2.3 2.5h-.1v-3.1c.2-.1.4-.1.7-.1h.3v-.6h-3.9v.7h.5c.2 0 .3 0 .3.2v6.9c0 .1-.3.2-.6.2h-.2v.6h3.9v-.6h-.3c-.3 0-.5 0-.5-.2 0 0-.1-.2-.1-.3v-2.3l.8-.8 1.5 2.7v.4l.1.1v.2h-.4v.6h3.7v-.6H36ZM72.7 24.1c-.1 0-.2-.3-.2-.5v-6c0-.3 0-.4.2-.5.1 0 .3-.1.5-.1h.2v-.6h-8.9v.6h.8l.2.3V24c-.2 0-.4.1-.7.1h-.3v.6h3.9v-.6h-.3c-.3 0-.4 0-.5-.1-.1 0-.2-.3-.2-.5v-5.8c0-.3 0-.4.2-.5.1 0 .3-.1.5-.1h1.6c.3 0 .4 0 .5.1 0 0 0 .1.1.2v6.1c0 .3 0 .4-.2.5 0 0-.1 0-.2.1h-.6v.6h3.9v-.6H73c-.2 0-.4 0-.5-.1ZM88.6 17h.2c.3 0 .4 0 .5.1 0 0 .1.2.1.3v.4l-3.2 3.8h-.1v-4.5c.2 0 .4-.1.7-.1h.3v-.6h-3.9v.6h.2c.3 0 .5 0 .6.1v.3c.1 0 .1 6.3.1 6.3v.3c-.2 0-.4.1-.7.1h-.3v.6H87v-.6h-.3c-.3 0-.5 0-.6-.1v-.3c-.1 0-.1-.7-.1-.7l3.1-3.8h.1v4.3c0 .3 0 .4-.2.5-.1 0-.3.1-.5.1h-.2v.6h3.9v-.6H92c-.3 0-.4 0-.5-.1-.1 0-.2-.3-.2-.5v-6c0-.3 0-.4.2-.5.1 0 .3-.1.5-.1h.2v-.6h-3.9v.6ZM104.2 24.1c-.1 0-.2-.3-.2-.6l-.9-6v-.4c.1 0 .2-.1.4-.1h.3v-.6h-2.7l-1.8 5.4h-.1l-1.7-5.4h-3v.6H95.4v1l-.7 5.2c0 .2 0 .4-.2.6 0 .2-.3.3-.6.3h-.3v.6h2.7v-.6h-.7s-.1-.1-.1-.3v-.4l.7-5h.1l2 6.3h.9l2.1-6.3h.1l.8 5.4v.3h-.1l-.1.1h-.4v.6h3.5v-.6h-.7ZM139.6 22.7c0 .1-.1.2-.2.3 0 .1-.2.2-.3.3-.1.2-.3.3-.5.4-.3.2-.5.3-.7.3H136.2c-.3 0-.5 0-.6-.1 0-.1-.1-.3-.1-.5v-2.8h1.3c.4 0 .6 0 .8.1.1 0 .2.2.3.3v.4h.4V19h-.4v.2c0 .2-.1.3-.3.4-.1 0-.6.1-1.3.1h-.8v-2.2c0-.3 0-.4.2-.5.1 0 .3-.1.5-.1h.9c.4 0 .8 0 1.1.3.3.2.5.4.6.6v.2c.1 0 .3.2.3.2h.4l-.4-2h-6.5v.6h.7s.1 0 .2.1c0 .1.1.3.1.4v6.5c-.2 0-.4.1-.7.1h-.3v.6h6.9l.4-2.1h-.4ZM47 23.5c-.6.2-1.1.3-1.7.4h-1.9c1.1.7 2.6 1.1 3.8 1.4 0-.3-.2-.6-.2-.9v-.9ZM50.1 22.4c-.1.2-.2.4-.3.7v.6c0 .1 0 .3.1.4l.2.2.2-.2c0-.1 0-.3.1-.4v-.6c0-.3-.1-.5-.3-.7ZM47.6 17.7c-.2-.6-.4-1.2-.4-1.7-1.2.2-2.7.6-3.7 1.4 1.3-.1 2.8 0 4 .4ZM47.1 20.5c-.8-.5-1.6-.7-2.5-.6-.4 0-1.8.2-1.8.8 0 .7 1.7.7 2.1.6.8 0 1.6-.3 2.3-.7ZM54.9 24c-.6 0-1.2-.3-1.7-.5v.9c0 .3 0 .6-.2.9 1.2-.3 2.7-.6 3.8-1.3h-1.9ZM50.1 16.9c.2-.4.3-.9.4-1.4h-.8c0 .5.2 1 .4 1.4ZM57.4 20.6c0-.6-1.4-.7-1.8-.8-.9 0-1.7.2-2.5.6.7.5 1.5.7 2.3.8.3 0 2.1 0 2.1-.6ZM56.6 17.3c-1-.8-2.5-1.2-3.7-1.4 0 .6-.3 1.2-.4 1.7 1.2-.3 2.8-.5 4.1-.3Z"/>
		<path d="M38.2 29H62V0H38.2v29Zm11-2.5c-2.4 0-7.7-1.2-8.5-5h.2c1 1.1 2.2 1.6 3.5 1.6 1.2 0 2.4-.5 3.5-1.1v.2c-.4 1.6-.3 3.5 1.3 4.1v.2Zm-7.3-5.8c0-1.2 1.6-1.5 2.3-1.6 1.3-.1 3.1.3 4.2 1.4v.2c-1.1.8-2.5 1.4-3.8 1.5-.7 0-2.7-.2-2.7-1.4Zm8.3 4.7H50c-.8-.2-1.1-1.2-1-2 0-.9.5-1.8 1.1-2.3h.1c.6.6 1 1.4 1.1 2.3 0 .9-.3 1.8-1 2Zm.8 1.1v-.2c1.6-.6 1.7-2.5 1.1-4.1V22c1.2.7 2.4 1.1 3.6 1.1 1.6 0 2.8-.5 3.6-1.7l.2.2c-.7 3.6-6 4.9-8.5 5Zm.8-5.8v-.2c1.1-1.1 2.9-1.5 4.3-1.4.7 0 2.3.5 2.3 1.6 0 1.3-2 1.4-2.7 1.4-1.3 0-2.6-.6-3.8-1.5Zm7.7-.5h-.2c-.9-1.5-2-2-3.9-2-1.5 0-2.9.4-4.2 1l-.3.2.2-.4c.7-1.2 1.2-2.6 1.4-4 3 .6 6.9 1.8 7.1 5.3Zm-9.4-5.5h1.3c-.2 1.4-.5 2.7-1.2 3.7H50c-.7-1.1-1.1-2.4-1.2-3.7h1.3Zm-2.3.1c.2 1.5.7 2.8 1.4 4l.2.4h-.3c-1.4-.6-2.8-1-4.2-1s-3.2.6-3.9 2.1h-.2c0-3.5 4.4-5 7.1-5.5ZM6.7 20.4c-.7-.3-1.6-.5-2.7-.5H2.8V17.3c.2 0 .3 0 .4-.1h1.6c.2 0 .5.2.7.3.2.2.5.4.8.7h.4l-.4-1.9H0v.6h.2c.3 0 .4 0 .5.1.1 0 .2.3.2.5v6c0 .3 0 .4-.1.5 0 0-.2.1-.3.1H0v.6h4.8c.5 0 .9 0 1.3-.2.4-.1.7-.3 1-.5.5-.5.8-1.1.8-1.8s-.4-1.7-1.1-2Zm-1.1 2.1v.4c0 .3-.2.5-.5.8-.1.1-.3.2-.5.3h-1c-.3 0-.5 0-.6-.1 0 0-.1-.2-.1-.5v-2.9h.8c.7 0 1.2.2 1.5.5.2.2.3.4.4.7v.9ZM16.5 24.2h-.2v-.1l-.2-.3v-.2H16c0-.1-.1-.2-.1-.3v-.2l-2.6-6.8h-.5c-.1.1-.3.2-.4.3l-.3.2c-.1 0-.3.1-.4.2h-.5v.4h.4v.8l-1.9 5.1v.1c0 .1-.1.4-.1.4v.1c0 .1-.2.2-.3.3h-.6v.6h2.5v-.6h-.5v-.4l.5-1.3h3l.5 1.5v.4h-.5v.6h3.2v-.6H17Zm-5.6-2.7 1.1-3.1h.1l1.1 3.1h-2.4ZM78.9 16.4H75v.6H75.7c.1 0 .2.3.2.5v6c0 .3 0 .4-.2.5-.1 0-.3.1-.5.1H75v.6h4v-.6h-.4c-.3 0-.4 0-.5-.1l-.1-.2v-2.3h.7c1.5 0 2.5-.2 3.1-.7.6-.5.9-1.1.9-1.8s-.3-1.3-.8-1.9c-.6-.6-1.4-.8-2.6-.8Zm1.3 2.9v.3c-.1.3-.3.6-.6.9-.3.3-.8.4-1.4.4h-.5v-3.1c0-.3 0-.4.2-.5.1 0 .3-.1.6-.1h.3c.1 0 .3 0 .4.1.3 0 .5.3.7.5.2.3.3.7.3 1.2v.3ZM109.8 16.2c-1.2 0-2.3.4-3.1 1.2-.8.8-1.2 1.9-1.2 3.2s.4 2.6 1.3 3.3c.9.7 1.8 1.1 2.9 1.1 1.1 0 2.1-.4 2.9-1.1.5-.5.9-1 1.1-1.8.1-.5.2-1 .2-1.5 0-1.5-.4-2.6-1.3-3.3-.9-.7-1.8-1.1-3-1.1Zm1.7 6.9c-.2.5-.5.9-.8 1-.2 0-.3.1-.5.2h-.8c-.2 0-.3 0-.5-.2-.3-.2-.6-.5-.8-1-.2-.3-.3-.8-.3-1.4v-1.1c0-1.3.2-2.3.6-2.8.2-.3.4-.5.6-.6.3-.2.6-.2.9-.2h.4c.4 0 .8.4 1.2.9.4.5.5 1.4.5 2.8s-.1 1.9-.4 2.5ZM122 17.2c-.5-.6-1.4-.8-2.6-.8h-3.9v.6h.2c.2 0 .4 0 .5.1.1 0 .2.3.2.5v6c0 .3 0 .4-.2.5-.1 0-.3.1-.5.1h-.2v.6h4v-.6h-.4c-.3 0-.4 0-.5-.1-.1 0-.2-.3-.2-.5v-2h.7c.6 0 1.1 0 1.5-.1.7-.1 1.2-.3 1.5-.6.3-.3.5-.6.7-.9.1-.3.2-.6.2-.9 0-.4 0-.8-.3-1.1-.1-.3-.3-.5-.6-.8Zm-1.3 2.1v.3c-.1.3-.3.6-.6.9-.3.3-.8.4-1.4.4h-.5v-3.1c0-.3 0-.4.2-.5.1 0 .3-.1.6-.1h.6c.3 0 .5.3.7.5.2.3.3.7.3 1.2v.3ZM130.7 20.6c-.6-.5-1.5-.7-2.6-.7H126.7v-2.8c.2 0 .4-.1.7-.1h.3v-.6h-3.9v.6h.3c.3 0 .5 0 .5.2 0 0 0 .1.1.3V24.1c0 .1-.3.2-.7.2h-.2v.6h4.9c.9 0 1.6-.2 2-.7.2-.2.3-.4.5-.6.2-.3.3-.6.3-.9v-.4c0-.7-.3-1.3-.9-1.8Zm-1.2 2v.3c-.2.3-.3.6-.6.8-.3.2-.6.4-1.2.4h-.7l-.2-.3v-3h.8c.5 0 .9 0 1.1.3.2.2.4.4.5.7 0 .1 0 .3.1.4v.6Z"/>
	</g>
</svg>