<svg xmlns="http://www.w3.org/2000/svg" viewBox="0 0 160 20">
	<path fill="#fff" d="M.913633 2.55567v7.42327c0 .45686 0 1.59886-.913633 1.59886v.1142h4.79657v-.1142c-.91363 0-.91363-1.142-.91363-1.59886V1.41363h3.08351v8.56531c0 .45686 0 1.59886-.91363 1.59886v.1142h4.79658v-.1142c-.91364 0-.91364-1.142-.91364-1.59886V2.55567c0-.45681 0-1.598853.91364-1.598853V.842612H0v.114205c.913633 0 .913633 1.142043.913633 1.598853ZM17.359 3.81192c-.6852 0-1.2562.34261-1.713.91363l-.3426.34262V3.81192l-3.1978.45682c.3427.1142.6853.45681.5711.91363v8.33693c0 .4568-.2284.7994-.5711.9136h3.883c-.1142 0-.3426-.1142-.4568-.2284-.1142-.2284-.2284-.4568-.2284-.6852v-2.5125l.3426.4568c.3426.3426.9136.571 1.3704.4568 1.3705 0 2.7409-1.3704 2.7409-4.22554.1142-1.94147-.6852-3.88294-2.3983-3.88294Zm-.3426 4.22555c.1142 1.02784 0 1.94147-.571 2.85513-.1142.1142-.3426.2284-.4568.2284-.7995 0-.7995-.9136-.7995-1.25626V6.096c0-.34261 0-1.25624.7995-1.25624.7994 0 1.0278.91363 1.0278 3.19771Zm7.8801-4.22555c-2.2841 0-3.7687 1.59886-3.7687 4.11135 0 3.88293 3.1977 4.11133 3.7687 4.11133.571 0 3.7687-.2284 3.7687-4.11133 0-2.51249-1.4846-4.11135-3.7687-4.11135Zm1.0278 4.45396c0 1.14204 0 2.62672-.571 3.19772-.2284.2284-.6852.3426-1.0278 0-.571-.571-.571-2.05568-.571-3.08351v-.79943c0-1.14204 0-2.6267.571-3.08351.2284-.22841.6852-.34262 1.0278 0 .571.57102.571 2.05567.571 3.08351v.68522ZM38.601 3.81192c-.571 0-1.0278.1142-1.3705.57102l-.3426.34261V.5h-3.1977c.571.114204.571.79943.571 1.14204v3.08351l-.3426-.34261c-.3426-.34261-.9136-.57102-1.3704-.57102-2.0557 0-2.6267 2.6267-2.6267 4.11135 0 2.05567.7994 4.11133 2.6267 4.11133.571 0 1.0278-.1142 1.3704-.4568l.3426-.3426v2.2841c0 .3426 0 1.0278-.571 1.142h3.7688c-.2285 0-.3427-.1142-.4569-.3426-.1142-.2284-.2284-.571-.1142-.7994v-2.2841l.3426.3426c.3427.3426.9137.571 1.3705.4568 1.8273 0 2.6267-2.05566 2.6267-4.11133 0-1.59886-.571-4.11135-2.6267-4.11135Zm-4.1114 6.05282c0 .45686 0 1.25626-.7994 1.25626s-1.0278-.9136-1.0278-3.19773c0-2.28408.3426-3.19772 1.0278-3.19772s.7994.79943.7994 1.25625v3.88294Zm2.9694 1.14206c-.7995 0-.7995-.7994-.7995-1.25626V5.9818c0-.34261 0-1.25625.7995-1.25625.7994 0 1.0278.91364 1.0278 3.08352 0 2.16987-.3426 3.19773-1.0278 3.19773Zm8.6795-7.19488c-2.1699 0-3.6546 1.71306-3.6546 4.33976 0 2.28412 1.3705 3.88292 3.4262 3.88292 1.2562 0 2.3982-.7994 3.0835-1.9415l-.2284-.11416c-.3426.45686-.9137.79946-1.5989.79946-.9136 0-1.9415-.4568-1.9415-2.96933v-.34262h4.1114c0-1.02783-.3426-2.05567-.9136-2.8551-.6853-.57102-1.4847-.79943-2.2841-.79943Zm-.9137 3.19772v-.22841c0-.91364 0-2.51249.9137-2.51249.571 0 .7994.79943.9136 2.51249v.22841h-1.8273Zm9.7074-1.37045c0 .34261.1142 1.37045 1.142 1.37045.6853 0 1.0279-.45682 1.0279-1.14205 0-1.94147-2.2841-2.05567-2.7409-2.05567-2.1699 0-3.9972 1.82727-3.883 3.99715v.2284c0 2.28413 1.4847 3.99713 3.4262 3.99713 1.2562 0 2.3982-.6852 3.0835-1.713l-.2284-.34266c-.3427.34266-.9137.57106-1.4847.57106-2.0557 0-2.1699-2.74093-2.1699-3.31196 0-.91363.1142-2.9693 1.1421-2.9693.2284 0 .571.1142.571.79943l.1142.57102Zm7.7659 0c0 .34261.1142 1.37045 1.142 1.37045.6852 0 1.0278-.45682 1.0278-1.14205 0-1.94147-2.284-2.05567-2.6266-2.05567-2.1699 0-3.9972 1.82727-3.9972 3.99715v.2284c0 2.28413 1.4847 3.99713 3.4261 3.99713 1.2563 0 2.3983-.6852 3.0835-1.713l-.2284-.34266c-.3426.34266-.9136.57106-1.4846.57106-2.0557 0-2.1699-2.74093-2.1699-3.31196 0-.91363.1142-2.9693 1.142-2.9693.2285 0 .5711.1142.5711.79943l.1142.57102Zm8.4511-.57102L69.5503 8.8369h-.4568V5.29657c0-.34261 0-1.02783.571-1.14204h-3.7687c.571.11421.571.68523.571 1.14204v5.48183c0 .4568-.2284.7994-.571.9136h3.7687c-.3426-.1142-.6852-.4568-.571-.9136l1.5989-3.88297h.4568V10.55c0 .3426 0 1.0278-.571 1.142h3.8829c-.571-.1142-.571-.7994-.571-1.142V5.29657c0-.34261 0-1.02783.571-1.14204h-3.8829c.3426.11421.571.45682.571.91364Zm8.1085-1.25625c-2.2841 0-3.7688 1.59886-3.7688 4.11135 0 3.88293 3.1977 4.11133 3.7688 4.11133.571 0 3.7687-.2284 3.7687-4.11133 0-2.51249-1.4846-4.11135-3.7687-4.11135Zm1.0278 4.45396c0 1.14204 0 2.62672-.571 3.19772-.2284.2284-.6852.3426-1.0279 0-.571-.571-.571-2.05568-.571-3.19772v-.68522c0-1.14204 0-2.6267.4568-3.08351.2285-.22841.6853-.34262 1.0279 0 .571.57102.571 2.05567.4568 3.08351l.2284.68522Zm8.9079-.79943H87.252V5.06817c0-.57102.3426-.79943.4568-.91364h-3.6546c.5711.22841.5711.79943.5711 1.14204V10.55c0 .3426 0 1.0278-.5711 1.142h3.7688c-.2284-.1142-.4568-.3426-.4568-.9136V7.92327h1.9414v2.96933c0 .571-.3426.7994-.4568.9136h3.7687c-.571-.1142-.571-.7994-.571-1.142V5.29657c0-.34261 0-1.02783.571-1.14204h-3.7687c.2284.11421.4568.34262.4568.91364l-.1142 2.39828ZM100.5 11.121c-.115 0-.229-.1142-.343-.1142-.114-.1142-.2284-.3426-.2284-.4568V6.32441c0-1.14204-.3426-2.51249-2.8551-2.51249s-3.3119 1.02784-3.3119 1.94147c-.1142.68523.3426 1.25625 1.0278 1.25625h.2284c1.0279 0 1.0279-.79943 1.0279-.91364 0-.1142 0-.34261-.1142-.45681v-.11421c-.1142-.22841-.2284-.34261-.2284-.57102 0-.34261.3426-.68522.6852-.68522h.1142c.3426 0 .9136.1142.9136 1.02783v1.94147h-.1142c-2.5125.91364-3.8829 1.94148-3.8829 3.31196 0 .7994.571 1.4846 1.3704 1.4846h.1142c.7995 0 1.4847-.4568 1.9415-1.0278l.1142-.1142h.3426v.1142c.2284.9136.9137 1.0278 1.4847 1.0278.7994 0 1.4844-.3426 1.9414-.9136l-.114-.1142c0 .1142 0 .1142-.114.1142Zm-3.1981-1.59887c0 .45681 0 1.14207-.6852 1.14207s-.6852-.4568-.6852-1.02787c0-.79943.4568-1.48465 1.0278-1.82726l.3426-.22841v1.94147Zm6.8521-3.65454V6.096c0 2.96931-.114 4.5682-.571 4.9108-.114.1142-.228.1142-.342.1142 0 0-.343 0-.343-.4568v-.2284c0-.1142-.114-.2284-.228-.3427-.115-.11416-.343-.22836-.572-.22836-.342 0-.799.22836-.799 1.02786 0 .6852.571 1.142 1.142 1.142 1.827 0 1.942-2.16986 1.942-5.13917V4.61135h1.827V10.55c0 .4568 0 1.0278-.571 1.142h3.769c-.571-.1142-.571-.7994-.571-1.142V5.29657c0-.34261 0-1.02783.571-1.14204h-6.167c.456 0 .913.34261.913 1.71306Zm19.072 3.42613c-.685 0-1.37 0-2.055.22841l-.343.1142V3.1267h1.827c3.312 0 4.226 1.94147 4.454 3.19771h.229l-.115-3.99714h-11.648v.1142c1.142 0 1.142 1.59886 1.142 2.28408V15.5749c0 .6853 0 2.2841-1.142 2.2841v.1142h7.88c3.426 0 5.481-1.713 5.481-4.5681-.114-1.9415-1.598-4.11138-5.71-4.11138ZM121.97 17.288c-1.256 0-1.256-1.0278-1.256-1.4846v-5.4818h.913c2.627 0 2.856 2.7409 2.856 3.6545 0 1.4846-.8 3.3119-2.513 3.3119Zm15.532-1.142v-5.025c0-1.48467-.343-3.08353-3.541-3.08353-3.197 0-4.111 1.37045-4.111 2.51253 0 .7994.571 1.4846 1.371 1.4846h.114c1.256 0 1.37-.9136 1.37-1.142 0-.2284 0-.3426-.114-.571l-.114-.2285c-.114-.22836-.229-.45677-.229-.68518 0-.45681.343-.79943.8-.91363h.114c.457 0 1.142.22841 1.142 1.25625v2.28406l-.228.1142c-2.97 1.0279-4.569 2.3983-4.569 3.9972 0 1.0278.686 1.8272 1.714 1.8272h.114c.913-.1142 1.827-.571 2.398-1.2562l.114-.1142h.457v.2284c.228 1.0278 1.142 1.2562 1.827 1.2562.914 0 1.828-.3426 2.399-1.142l-.115-.1142c-.342.1142-.799 0-.913-.3426v-.3426Zm-3.198-1.1421c0 .571 0 1.3705-.799 1.3705-.571 0-.914-.4568-.914-1.1421 0-.9136.457-1.8272 1.256-2.284l.457-.3427v2.3983Zm11.306-5.13916v2.85506h-2.17V9.86474c0-.68523.343-1.02784.571-1.14204h-4.339c.685.22841.685.91363.685 1.4847v6.3954c0 .4568 0 1.2562-.685 1.4846h4.339c-.228-.1142-.571-.3426-.571-1.142v-3.5403h2.284v3.5403c0 .6852-.342 1.0278-.571 1.142h4.34c-.685-.2284-.685-.9136-.685-1.4846v-6.3954c0-.45686 0-1.25629.685-1.4847h-4.454c.229.1142.571.34261.571 1.14204Zm13.362 6.85226-2.855-5.1392 1.028-1.3704c.457-.79948 1.256-1.25629 2.17-1.4847h-3.655c.343.1142.571.45682.571.79943 0 .45681-.228 1.02787-.571 1.37047l-1.37 1.9414h-.457V9.86474c-.114-.45682.114-.91363.571-1.14204h-4.454c.685.22841.685.91363.685 1.4847v6.3954c0 .4568 0 1.2562-.685 1.4846h4.454c-.457-.2284-.571-.6852-.571-1.142v-2.7409h.457l1.256 2.3983c.114.2284.228.571.343.9136 0 .2284-.115.4568-.343.571H160v-.1142c-.571-.3426-.799-.7994-1.028-1.2562ZM9.59315 19.2295s1.48465-.2284 4.22555-.4568 6.5096-.5711 11.0778-1.0279 9.9358-.6852 15.646-1.0278 11.6488-.571 17.7016-.7994c6.0528-.2284 12.2198-.3427 17.9301-.3427 5.7102 0 11.0778 0 15.6459.1143 4.5682.1142 8.4509.2284 11.0779.3426 2.627.1142 4.225.2284 4.225.2284s-1.484.1142-4.225.2284l-11.0779.4568-33.576 1.142-17.93.5711-15.646.4568H13.7045l-4.11135.1142Z"/>
</svg>