<svg xmlns="http://www.w3.org/2000/svg" viewBox="0 0 151 40">
	<path fill="#fff" d="M17.7373 7.92453h3.4717V20.3019c0 .9811.6037 2.1887 1.2076 2.7924 2.6415 2.6415 7.3961.7548 7.3961-3.1698 0-4.3018-5.5094-5.9623-7.849-2.6415v-4.3773c4.9811-2.5661 11.3208.9811 11.3208 6.9434 0 2.1131-.8302 4.0754-2.2642 5.5094-1.434 1.4339-3.3963 2.2642-5.5094 2.3396-4.8302 0-7.6982-3.9245-7.6982-7.9245l-.0754-11.84907ZM.00145295 38.9434H3.4731V40H.00145295v-1.0566Zm0-2.4906H3.4731v1.585H.00145295v-1.585Zm0-3.6226H3.4731v2.6415H.00145295v-2.6415ZM3.54856 19.6981c0-.9811.60383-2.1887 1.20756-2.7924 2.64151-2.6415 7.32078-.7548 7.32078 3.1698 0 4.3018-5.5094 5.9623-7.84905 2.6415v4.3773c4.98116 2.5661 11.32075-.9811 11.32075-7.0188 0-2.1133-.8302-4.0755-2.2641-5.5095-1.434-1.4339-3.39629-2.2641-5.50945-2.3396-4.98115-.0755-7.8490637 4.0755-7.77359705 8.0755V32H3.54856V19.6981ZM17.7373 1.0566h3.4717V0h-3.4717v1.0566Zm0 2.49057h3.4717v-1.5849h-3.4717v1.5849Zm0 3.62261h3.4717V4.5283h-3.4717v2.64148ZM48.4546 17.9629v.151c0 .0755-.0755.0755-.1509.0755-.0755 0-.151.0755-.2264.0755h-.7548c-.0754 0-.1509 0-.2264-.0755-.0754 0-.0754-.0755-.1509-.0755 0 0-.0755-.0755-.0755-.151v-6.9434l-2.4151 6.9434c0 .0755-.0755.0755-.0755.151-.0754.0755-.0754.0755-.1509.0755-.0755 0-.1509.0755-.2264.0755h-.7547c-.0755 0-.151 0-.2264-.0755-.0755 0-.151-.0755-.151-.0755s-.0754-.0755-.0754-.151l-2.3397-6.9434v7.0944c0 .0755-.0755.0755-.1509.0755-.0755 0-.151.0755-.2264.0755h-.7548c-.0754 0-.1509 0-.2264-.0755-.0754 0-.0754-.0755-.1509-.0755v-8c0-.0755.0755-.15099.1509-.22646.0755-.07546.151-.07546.2264-.15093.0755 0 .151-.07547.2264-.07547h1.1321c.1509 0 .3773 0 .5283.07547.151 0 .2265.07547.3774.15093.0755.07547.2264.15096.2264.30196.0755.1509.1509.3019.1509.4528l1.8113 5.0566 1.8869-5.0566c.0754-.1509.0754-.3019.1509-.4528.0755-.151.1509-.22649.2264-.30196.0755-.07546.2264-.15093.3019-.15093.1509 0 .3019-.07547.4529-.07547h1.132c.0755 0 .2264 0 .3019.07547.0755 0 .1509.07547.2264.15093.0755.07547.0755.15096.1509.22646 0 .0755.0755.2264.0755.3019l-.2264 7.5471Zm5.8869-2.1131c-.151.4528-.3774.8301-.5284 1.2075-.1509.3019-.3773.5283-.6037.7547-.2264.1509-.4528.3018-.6793.3774-.3019.0755-.6038.0755-.8302.0755h-.3773c-.0755 0-.2265 0-.3019-.0755-.0755 0-.151-.0756-.2264-.0756-.0755 0-.151-.0754-.151-.0754l-.0754-.0755c0-.0755-.0755-.0755-.0755-.1509v-.6038c0-.1509 0-.3774.0755-.5283.0754-.0755.0754-.1509.1509-.1509.0755 0 .0755 0 .1509.0754.0755 0 .0755.0755.151.0755.0754 0 .1509.0755.2264.0755.0755 0 .2264.0754.3019.0754h.2264c.0755 0 .1509-.0754.2264-.1509l.2264-.2264c.0755-.1509.1509-.2264.2264-.3773l-2.7924-5.7359c-.0755-.0754-.0755-.2265-.0755-.3019v-.07549s0-.07547.0755-.07547c.0754-.07546.1509-.07546.2264-.07546h.9811c.0755 0 .2264 0 .3019.07546.0755 0 .151.07547.151.15096.0755.0754.0755.1509.1509.2265l1.2076 2.5659c.1509.302.2264.5284.3773.8302.151.3019.2264.5283.3019.8303.0755-.302.1509-.6039.3019-.8303.0754-.3018.2264-.6037.3019-.9056l.9811-2.6416c0-.0754.0755-.0754.0755-.15089.0754-.07547.0754-.07547.1509-.07547.0755 0 .2265-.07546.3019-.07546h.9056c.0755 0 .151 0 .2265.07546l.0755.07547v.07549c0 .0754 0 .1509-.0755.2265l-2.2641 5.5849Zm9.8867 2.1132c0 .0755 0 .0755-.0755.1509h-.1509c-.0755 0-.1509.0755-.2264.0755h-.8302c-.0755 0-.1509 0-.2264-.0755-.0755 0-.0755-.0754-.1509-.0754 0 0-.0755-.0755-.0755-.151v-3.3962h-3.1698v3.3962c0 .0755 0 .0755-.0755.151 0 .0754-.0755.0754-.151.0754-.0754 0-.1509.0755-.2264.0755h-.9056c-.0754 0-.151 0-.2265-.0755-.0754 0-.0754-.0754-.1509-.0754 0 0-.0755-.0755-.0755-.151V9.88753c0-.07547 0-.07547.0755-.15093 0-.07547.0755-.07547.1509-.07547.0755 0 .1511-.07547.2265-.07547h.9056c.0755 0 .151 0 .2264.07547.0755 0 .0755.07547.151.07547 0 0 .0755.07546.0755.15093v3.09427h3.1698V9.88753c0-.07547 0-.07547.0755-.15093 0-.07547.0754-.07547.1509-.07547.0755 0 .1509-.07547.2264-.07547h.8302c.0755 0 .1509 0 .2264.07547.0755 0 .0755.07547.1509.07547 0 0 .0755.07546.0755.15093V17.963Zm8.6793-.0001c0 .0755 0 .0755-.0755.151h-.0754c-.0755 0-.151.0755-.2264.0755h-.8303c-.0754 0-.1509 0-.2264-.0755-.0754 0-.0754-.0755-.1509-.0755 0 0-.0755-.0755-.0755-.151V12.4535c0 .0755-.0754.1509-.151.2264-.0754.0755-.0754.151-.1509.2265l-.1509.3018c-.0755.0755-.151.151-.151.3019l-2.9434 4.3773c0 .0755-.0754.0755-.0754.151-.0755 0-.0755.0755-.151.0755-.0754 0-.1509 0-.2264.0755h-.6792c-.0755 0-.151 0-.2264-.0755-.0755 0-.0755-.0755-.151-.0755V9.88744c0-.07546 0-.07546.0755-.07546.0755-.07547.0755-.07547.1509-.07547.0755 0 .151-.07547.2264-.07547h.8302c.0755 0 .151 0 .2264.07547.0755 0 .0755.07547.151.07547l.0754.07546v5.43396c.0755-.1509.151-.3019.3019-.4528.0755-.1509.2265-.3773.3774-.5283l2.9434-4.45286c0-.07546.0755-.07546.0755-.07546.0754 0 .0754-.07547.1509-.07547.0755 0 .1509-.07547.2264-.07547h.6793c.0755 0 .1509 0 .2264.07547.0755 0 .0755.07547.1509.07547v.15093l-.1509 7.99999Zm9.4339 2.1887v.0755l-.0756.0755c-.0755 0-.1511.0754-.2267.0754h-.7546c-.0756 0-.1502 0-.2258-.0754-.0755 0-.0756-.0755-.1511-.0755 0 0-.0756-.0755 0-.0755v-2.0377h-5.8115c-.0754 0-.1509-.0755-.1509-.0755-.0755-.0755-.0755-.151-.0755-.2264V9.88744c0-.07546 0-.07546.0755-.07546.0755-.07547.0755-.07547.1509-.07547.0755 0 .151-.07547.2264-.07547h.8304c.0756 0 .1511 0 .2258.07547.0756 0 .0756.07547.1511.07547l.0756.07546v6.86796h3.0942V9.88744c0-.07546 0-.07546.0756-.07546.0755-.07547.0755-.07547.1511-.07547.0755 0 .1511-.07547.2266-.07547h.8302c.0756 0 .1512 0 .2258.07547.0756 0 .0756.07547.1511.07547l.0756.07546v6.86796h.9058c.0755 0 .0755 0 .0755.0755.0756.0755.0756.1509.0756.3019l-.1511 3.0188Zm8.0755-2.1887c0 .0755 0 .0755-.0755.151-.0756.0755-.0756.0755-.1511.0755-.0756 0-.1512.0755-.2258.0755h-.8302c-.0756 0-.1512 0-.2267-.0755-.0756 0-.0756-.0755-.1511-.0755 0 0-.0756-.0755-.0756-.151V12.529c0 .0754-.0755.1509-.1511.2264-.0755.0755-.0755.151-.1511.2264l-.1502.3019c-.0756.0755-.1511.1509-.1511.3019l-2.9431 4.3773c0 .0755-.0756.0755-.0756.151-.0755 0-.0756.0755-.1511.0755-.0756 0-.1511 0-.2267.0755h-.6791c-.0755 0-.1511 0-.2266-.0755-.0756 0-.0756-.0755-.1512-.0755V9.88744c0-.07546 0-.07546.0756-.07546.0756-.07547.0755-.07547.1511-.07547.0756 0 .1511-.07547.3022-.07547h.8302c.0756 0 .1512 0 .2258.07547.0756 0 .0756.07547.1511.07547l.0756.07546v5.43396c.0755-.1509.1511-.3019.3022-.4528.1511-.1509.2267-.3773.3769-.5283l2.944-4.37739c0-.07547.0756-.07547.0756-.07547.0746 0 .0746-.07546.1502-.07546.0755 0 .1511-.07547.2266-.07547h.6792c.0755 0 .1511 0 .2266.07547.0756 0 .0756.07546.1511.07546v.15096l-.1511 7.9245Zm8.4525.0001c0 .0755 0 .0755-.0756.1509 0 .0755-.0747.0755-.1502.0755-.0756 0-.1511.0755-.3022.0755h-.8303c-.0755 0-.1511 0-.2266-.0755-.0756 0-.0756-.0755-.1502-.0755 0 0-.0756-.0754-.0756-.1509v-6.8679h-3.1698v6.8679c0 .0755 0 .0755-.0755.1509-.0756.0755-.0756.0755-.1511.0755-.0756 0-.1512.0755-.2267.0755h-.8302c-.0756 0-.1511 0-.2258-.0755-.0756 0-.0756-.0755-.1511-.0755 0 0-.0756-.0754-.0756-.1509v-7.9245c0-.0755.0756-.15097.0756-.22644.0755-.07546.0755-.07546.1511-.07546h6.0373c.0756 0 .1511.07546.1511.07546.0756.15094.1511.22644.1511.37734l.1503 7.7736Zm8.7546-.4528c.076.1509.076.2264.076.3773v.0755s0 .0755-.076.0755c-.075.0754-.15.0754-.226.0754h-1.057c-.075 0-.226 0-.302-.0754-.075 0-.075-.0755-.15-.0755 0-.0755-.076-.0755-.076-.1509l-.604-1.7359h-3.17l-.528 1.6604c0 .0755-.075.0755-.075.1509 0 .0755-.076.0755-.152.0755-.075 0-.15.0755-.301.0755h-.906c-.075 0-.1507 0-.2263-.0755l-.0756-.0755v-.0754c0-.151.0756-.2264.0756-.3774l2.5663-7.54717c0-.07547.075-.15093.075-.15093.076-.07547.076-.07547.152-.07547.075 0 .225-.07547.301-.07547h1.132c.151 0 .227 0 .377.07547.076 0 .151.07547.151.07547.076.07546.076.15093.076.2264l2.943 7.5472Zm-3.924-6.1887-1.208 3.6227h2.416l-1.208-3.6227Zm11.623 6.6414c0 .0755 0 .0755-.076.1509 0 .0755-.075.0755-.151.0755s-.151.0756-.227.0756h-.83c-.075 0-.15 0-.226-.0756-.075 0-.075-.0755-.151-.0755 0 0-.075-.0754-.075-.1509V11.095h-1.812c-.151.9812-.226 1.8868-.377 2.6415-.151.7548-.226 1.3585-.378 1.9623-.075.4528-.301.9056-.452 1.283-.151.3019-.378.6038-.604.8302-.226.2264-.453.3018-.755.3773-.301.0756-.604.151-.905.0756h-.151c-.076 0-.076-.0756-.151-.0756 0-.0755-.076-.1509-.076-.2264V17.2082c0-.0754 0-.1509.076-.3018 0-.0756.075-.0756.075-.151h.151c.152 0 .302 0 .453-.0755.151-.0755.227-.1509.302-.3019.151-.2264.226-.4528.301-.6792.152-.3774.227-.7547.303-1.1321.075-.4529.226-1.0566.302-1.7359.075-.6792.226-1.5094.301-2.4905 0-.151.076-.3019.151-.45286.076-.07546.076-.07546.151-.07546h4.528c.076 0 .152.07546.152.07546.075.15096.151.22636.151.37746v7.698Zm8.075-2.5659c0 .3773-.075.7546-.151 1.132-.151.3019-.302.6038-.603.9056-.303.3019-.68.4528-1.057.6038-.604.151-1.207.2265-1.736.2265h-2.34c-.075 0-.151-.0755-.151-.0755-.076-.0755-.076-.0755-.151-.151 0-.0755-.075-.151 0-.2264V9.88744c0-.07546 0-.07546.075-.07546.076-.07547.076-.07547.152-.07547.075 0 .151-.07547.302-.07547h.83c.076 0 .151 0 .226.07547.075 0 .075.07547.151.07547l.075.07546v2.94346h1.208c.528 0 1.056.0755 1.51.1509.377.0755.679.3019.981.5283.226.2264.453.5283.604.8302 0 .3019.075.6792.075 1.0567Zm-1.736.0754c0-.2265 0-.3774-.075-.6038-.076-.1509-.151-.3019-.303-.4528-.15-.1509-.301-.2264-.452-.3019-.302-.0755-.604-.0755-.906-.0755h-.981v2.717h1.057c.302 0 .603 0 .906-.151.151-.0754.301-.1509.452-.3018.151-.151.227-.3019.227-.4528 0 0 .075-.151.075-.3774Zm9.51 2.4906c0 .0755 0 .0755-.076.1509 0 .0755-.076.0755-.151.0755-.076 0-.151.0755-.226.0755h-.83c-.076 0-.151 0-.227-.0755-.075 0-.075-.0755-.151-.0755 0 0-.075-.0754-.075-.1509v-3.3962h-3.17v3.3962c0 .0755 0 .0755-.076.1509-.075.0755-.075.0755-.151.0755-.075 0-.15.0755-.226.0755h-.905c-.076 0-.152 0-.227-.0755-.076 0-.076-.0755-.151-.0755 0 0-.076-.0754-.076-.1509V9.88753c0-.07547 0-.07547.076-.15093.075-.07547.075-.07547.151-.07547.075 0 .151-.07547.227-.07547h.905c.076 0 .151 0 .226.07547.076 0 .076.07547.151.07547 0 0 .076.07546.076.15093v3.09427h3.17V9.88753c0-.07547 0-.07547.075-.15093 0-.07547.076-.07547.151-.07547.076 0 .151-.07547.227-.07547h.83c.075 0 .15 0 .226.07547.075 0 .075.07547.151.07547 0 0 .076.07546.076.15093V17.963Zm7.924-2.566c0 .3773-.076.7546-.151 1.132-.15.3019-.301.6038-.604.9056-.302.3019-.679.4528-1.057.6038-.603.151-1.131.2265-1.735.2265h-2.189c-.076 0-.151-.0755-.151-.0755-.075-.0755-.075-.0755-.075-.151s-.075-.151 0-.2264V9.88744c0-.07546 0-.07546.075-.07546.075-.07547.075-.07547.151-.07547s.151-.07547.302-.07547h.83c.076 0 .152 0 .227.07547.076 0 .076.07547.15.07547l.076.07546v2.94346h1.057c.528 0 .981.0755 1.509.1509.378.0755.679.2264.981.4528.227.2264.453.4528.604.8303-.076.3773 0 .7546 0 1.1321Zm-1.736.1509c0-.2265 0-.3774-.076-.5284-.075-.1509-.15-.3018-.301-.4528-.151-.1509-.302-.2264-.453-.3018-.302-.0755-.604-.0755-.906-.0755h-.905v2.717h.905c.302 0 .604 0 .906-.151.151-.0755.302-.151.453-.3019.151-.1509.226-.3019.301-.4528 0-.1509.076-.3019.076-.4528Zm4.453 2.415c0 .0755 0 .0755-.075.151-.076.0755-.076.0755-.151.0755-.076 0-.151.0755-.227.0755h-.755c-.075 0-.151 0-.225-.0755-.076 0-.076-.0755-.152-.0755 0 0-.075-.0755-.075-.151V9.88744c0-.07546 0-.07546.075-.07546.076-.07547.076-.07547.152-.07547.074 0 .15-.07547.301-.07547h.755c.075 0 .151 0 .226.07547.076 0 .076.07547.151.07547l.076.07546v8.07546h-.076Zm8.755.0001c0 .0755 0 .0755-.076.1509-.075.0755-.075.0755-.151.0755-.075 0-.151.0755-.226.0755h-.831c-.075 0-.15 0-.225-.0755-.076 0-.076-.0755-.151-.0755 0 0-.076-.0754-.076-.1509V12.529c0 .0755-.076.151-.151.2264-.076.0755-.076.151-.151.2264-.076.0755-.076.151-.151.3019-.075.0755-.151.1509-.151.3019l-2.944 4.3774c0 .0755-.075.0755-.075.1509-.075 0-.075.0755-.15.0755-.076 0-.151 0-.227.0755h-.679c-.076 0-.151 0-.227-.0755-.075 0-.075-.0755-.151-.0755V9.88753c0-.07555 0-.07555.076-.07555.075-.07547.075-.07547.151-.07547.075 0 .151-.07547.302-.07547h.83c.075 0 .15 0 .226.07547.076 0 .076.07547.151.07547l.076.07555v5.43397c.075-.1509.151-.302.302-.4529.075-.1509.226-.3773.377-.5283l2.943-4.3773c0-.07547.075-.07547.075-.07547.076 0 .076-.07555.152-.07555.075 0 .151-.07547.226-.07547h.679c.076 0 .151 0 .227.07547.076 0 .076.07555.151.07555 0 0 .075.07547 0 .15097l-.151 7.9245Zm-1.057-10.56605c0 .2264-.075.4528-.151.6792-.076.2264-.226.45289-.377.60383-.227.15093-.453.30186-.755.37733-.377.07547-.754.15093-1.132.15093-.377 0-.755-.07546-1.057-.15093-.301-.07547-.528-.2264-.755-.37733-.15-.15094-.301-.37743-.376-.60383-.076-.2264-.152-.4528-.152-.75466v-.15094c0-.07555.076-.07555.152-.07555.075 0 .151-.07547.226-.07547h.755c.075 0 .15 0 .226.07547.075 0 .075.07555.075.07555v.15094c0 .07546 0 .2264.076.30186.075.07547.075.15094.151.2264.075.07547.227.15094.302.15094.15.07546.226.07546.377.07546s.227 0 .378-.07546c.075 0 .226-.07547.301-.15094.076-.07546.151-.15093.151-.2264.076-.07546.076-.2264.076-.30186v-.15094c0-.07555.075-.07555.075-.07555.076 0 .151-.07547.227-.07547h.679c.076 0 .151 0 .226.07547.075 0 .075.07555.151.07555.151.15094.151.15094.151.2264ZM44.2282 29.5101v.0755s-.0755.0754-.1509.0754c-.0755 0-.151 0-.2264.0755h-.7548c-.0754 0-.1509 0-.2264-.0755-.0754 0-.0754-.0754-.1509-.0754 0-.0755-.0755-.0755-.0755-.151l-.6038-1.6604c-.0755-.2264-.1509-.3773-.2264-.6037-.0755-.151-.1509-.3019-.3019-.3774-.0754-.0754-.2264-.1509-.3773-.2264-.1509-.0755-.302-.0755-.4529-.0755h-.3019v3.0189s-.0754.0755-.1509.0755c-.0755 0-.1509.0754-.2264.0754h-.7547c-.0755 0-.151 0-.2264-.0754-.0755 0-.0755-.0755-.151-.0755 0 0-.0754-.0755 0-.0755v-7.0944s.0755-.0754.151-.0754c.0754 0 .1509 0 .2264-.0755h.7547c.0755 0 .1509 0 .2264.0755.0755 0 .0755 0 .1509.0754v2.868h.3019c.1509 0 .302 0 .4529-.0755.1509-.0755.2264-.1509.3773-.2264.151-.1509.2264-.2264.3019-.3773.0755-.2264.1509-.3774.2264-.6038l.4529-1.5095c0-.0755.0755-.0755.0755-.1509 0-.0755.0754-.0755.1509-.0755.0755 0 .1509-.0755.2264-.0755h.7547c.0755 0 .151 0 .2264.0755.0755 0 .0755 0 .0755.0755 0 0 .0755.0754 0 .1509v.151c0 .0755-.0755.2264-.0755.3019l-.5283 1.283c-.0755.2264-.1509.4528-.3019.6038-.0754.1509-.1509.3018-.3018.4528-.0755.151-.2264.2264-.3019.3019-.1509.0755-.2264.1509-.3774.2264.151.0755.3019.1509.3774.2264.1509.0755.2264.2264.3773.3019.151.1509.2264.3019.3019.4529.1509.2264.2264.4528.3019.6792l.6038 1.5094c.0754.0755.0754.2264.0754.3019.0755.2264.0755.2264.0755.3019Zm7.1698-.3774c.0755.0755.0755.2265.0755.3019v.0755s0 .0755-.0755.0755c-.0755.0754-.1509.0754-.2264.0754h-1.1321c-.0755 0-.0755 0-.1509-.0754 0 0-.0755-.0755-.0755-.151l-.5283-1.5095h-2.7925l-.4528 1.4341c0 .0754 0 .0754-.0755.1509 0 .0755-.0754.0755-.1509.0755-.0755 0-.1509.0754-.2264.0754h-.7548c-.0754 0-.1509 0-.2264-.0754 0 0 0-.0755-.0754-.0755v-.0755c0-.0754.0754-.2264.0754-.3019l2.2642-6.5661c0-.0754.0755-.0754.0755-.1509.0755-.0755.0755-.0755.1509-.0755.0755 0 .151-.0754.3019-.0754h.9811c.0755 0 .2264 0 .3019.0754.0755 0 .1509.0755.1509.0755 0 .0755.0755.0755.0755.1509l2.4906 6.5661Zm-3.3962-5.434-1.0566 3.1699h2.1131l-1.0565-3.1699Zm13.0565 5.8114v.0755l-.0754.0754c-.0755 0-.151.0755-.2264.0755h-.7547c-.0755 0-.151 0-.2265-.0755-.0754 0-.0754-.0754-.0754-.0754v-6.1133l-2.1132 6.0378c0 .0755-.0755.0755-.0755.1509-.0754 0-.0754.0755-.1509.0755h-.8302c-.0755 0-.151 0-.2264-.0755-.0755 0-.0755-.0754-.151-.0754l-.0754-.0755-2.0378-6.0378v6.1133s-.0755.0754-.1509.0754c-.0755 0-.151.0755-.2264.0755h-.6793c-.0755 0-.151 0-.2264-.0755-.0755 0-.0755-.0754-.151-.0754v-6.9434c0-.0755.0755-.1509.151-.2265.0754-.0755.1509-.0755.2264-.1509.0754 0 .1509-.0755.2264 0h.9811c.151 0 .3019 0 .4529.0754.151 0 .2264.0755.3019.1511.0755.0754.1509.1509.2264.3018.0755.151.1509.2264.1509.3774l1.5849 4.4528 1.6605-4.4528c.0754-.151.0754-.3019.1509-.3774.0755-.0754.1509-.2264.2264-.3018.0755-.0756.1509-.1511.3019-.1511.1509 0 .2264-.0754.3773-.0754h.7547c.0755 0 .151 0 .3019.0754.0755 0 .1509.0755.1509.1511.0755.0754.0755.1509.0755.2264 0 .0754.0755.1509 0 .2264l.1509 6.566Zm6.6416 0v.0755s-.0754.0754-.1509.0754c-.0755 0-.1509.0755-.2264.0755h-.7547c-.0755 0-.151 0-.2264-.0755-.0755 0-.0755 0-.151-.0754l-.0754-.0755v-2.566c-.2264 0-.3775 0-.6039.0754h-.6037c-.3773 0-.7548 0-1.1321-.0754-.3019-.0755-.6037-.2264-.8302-.3775-.2264-.2264-.4528-.4528-.5283-.7546-.1509-.3774-.2264-.7548-.2264-1.2076v-2.1887s.0755-.0755.151-.0755c.0754 0 .1509-.0754.2264-.0754h.7547c.0755 0 .1509 0 .2264.0754.0755 0 .0755 0 .1509.0755l.0755.0755v1.9623c0 .2264 0 .3773.0755.6037.0754.151.1509.302.2264.4529.1509.1509.3018.2264.4529.2264.2264.0755.4528.0755.6792.0755h.5282c.1511 0 .302 0 .5284-.0755v-3.2453s0-.0755.0755-.0755c0 0 .0754-.0755.1509-.0755.0755 0 .1509 0 .2264-.0754h.7547c.0755 0 .151 0 .2264.0754.0755 0 .0755 0 .151.0755v.0755l-.151 7.0189Zm7.6226-.3774c0 .0755.0755.2265.0755.3019v.0755s0 .0755-.0755.0755c-.0754.0754-.1509.0754-.2264.0754H73.964c-.0754 0-.0754 0-.1509-.0754 0 0-.0755-.0755-.0755-.151l-.5282-1.5095h-2.7925l-.4529 1.4341c0 .0754 0 .0754-.0754.1509 0 .0755-.0755.0755-.151.0755-.0754 0-.1509.0754-.2264.0754h-.7547c-.0755 0-.151 0-.2264-.0754 0 0 0-.0755-.0755-.0755v-.0755c0-.0754.0755-.2264.0755-.3019l2.2642-6.5661c0-.0754.0754-.0754.0754-.1509.0755-.0755.0755-.0755.151-.0755.0754 0 .1509-.0754.3018-.0754h.9812c.0754 0 .2264 0 .3018.0754.0755 0 .151.0755.151.0755 0 .0755.0754.0755.0754.1509l2.4906 6.5661Zm-3.3962-5.434-1.0566 3.1699h2.1132l-1.0566-3.1699Zm8.528-.7546v.3018c0 .0756 0 .1511-.0756.2265 0 .0755-.0747.0755-.0747.0755h-1.8871v5.9622c0 .0755 0 .0755-.0755.0755 0 0-.0756.0754-.1511.0754-.0756 0-.1512.0755-.2258.0755h-.7556c-.0746 0-.1502 0-.2258-.0755-.0755 0-.0755-.0754-.1511-.0754v-6.0377h-1.8868l-.0755-.0755c0-.0754 0-.1509-.0754-.2265v-.6037c0-.0755 0-.1509.0754-.2264 0-.0755 0-.0755.0755-.0755h5.3588l.0747.0755c0 .0755 0 .1509.0756.2264v.3019Zm6.6417 6.566v.0755s-.0755.0754-.1511.0754c-.0755 0-.1502 0-.2258.0755h-.7546c-.0756 0-.1511 0-.2267-.0755-.0755 0-.0755 0-.1511-.0754 0 0-.0756-.0755 0-.0755v-5.9623h-2.7173v6.0378s-.0747.0754-.1503.0754c-.0755 0-.1511 0-.2266.0755h-.7547c-.0755 0-.1511 0-.2267-.0755-.0755 0-.0755 0-.1511-.0754V22.4912c0-.0755.0756-.151.0756-.151.0755-.0754.0755-.0754.1511-.0754h5.208c.0747 0 .0747.0754.1502.0754.0756.0755.1511.2264.1511.3775v6.7924Zm6.6418-4.9811c0 .3773-.0755.7546-.2267 1.132-.1511.3019-.3013.6038-.6035.8302-.3022.2265-.6036.3774-.9058.5283-.3778.151-.8302.151-1.2827.151h-.6044v2.3396c0 .0755 0 .0755-.0756.0755 0 0-.0746.0754-.1502.0754-.0755 0-.1511.0755-.2266.0755h-.7547c-.0756 0-.1511 0-.2267-.0755-.0755 0-.0755 0-.1511-.0754v-7.019c0-.0754.0756-.1509.0756-.1509.0755-.0755.2266-.1509.3777-.1509h2.264c.2267 0 .3769.0754.6036.0754.2267.0755.4533.151.6791.2264.2267.1511.4533.302.6045.4529.1502.151.3013.3774.3768.6038.2267.3773.2267.6793.2267.9057Zm-1.5093.1509c0-.2264 0-.4528-.1511-.6793-.0756-.1509-.2267-.3019-.3022-.3773-.1512-.0755-.3014-.151-.4525-.151h-1.0569v2.4906h.6791c.2267 0 .3778 0 .6045-.0755.1502-.0754.3013-.1509.3769-.3018.0755-.151.1511-.302.2266-.4529 0-.1509.0756-.3019.0756-.4528Zm9.3585 1.2075c0 .5283-.076 1.1321-.227 1.6604-.151.4529-.377.9057-.679 1.2076-.301.3773-.679.6038-1.1316.7547-.5289.1509-.9814.3019-1.5103.3019-.528 0-1.056-.0755-1.5093-.2264-.3769-.151-.7547-.3774-1.056-.6793-.3022-.3019-.5289-.7547-.68-1.2076-.1502-.5282-.2258-1.132-.2258-1.7358 0-.5283.0756-1.0566.2258-1.5849.1511-.4528.3778-.9057.68-1.2075.3013-.3774.6791-.6038 1.1316-.7548.5289-.1509.9813-.3019 1.5093-.3019.5289 0 .9813.0755 1.5093.2264.378.151.756.3775 1.057.6793.302.3019.528.7547.679 1.2076.151.5283.227 1.1321.227 1.6603Zm-1.585.0755c0-.3773 0-.6792-.0757-1.0566-.0756-.3019-.1512-.6037-.3023-.8301-.1502-.2265-.3769-.3775-.6035-.5284-.3014-.1509-.6036-.2264-.9058-.1509-.3013 0-.6036.0754-.9058.2264-.2258.1509-.4524.3019-.6035.5283s-.3014.5283-.3014.8302c-.0755.3019-.0755.6792-.0755.9811 0 .3773 0 .7548.0755 1.0566.0756.3019.1503.6038.3014.8303.1511.2264.3777.3773.6035.5282.3022.151.6045.2264.9058.151.3022 0 .6044-.0755.9058-.2264.2266-.151.4533-.3019.6035-.5284.1511-.2264.3023-.5283.3023-.8301 0-.3019.0757-.6039.0757-.9812Zm10.037-.1509c0 .3773-.075.7547-.226 1.1321-.151.3018-.302.6037-.604.9057-.301.2264-.604.4528-.981.6037-.453.1509-.905.2264-1.359.3019v.9811s-.074.0755-.15.0755h-1.208c-.075 0-.075 0-.151-.0755v-1.0566c-.452 0-.906-.0755-1.358-.2264-.378-.0755-.679-.3019-.982-.5283-.225-.2265-.452-.5283-.603-.8302-.151-.3773-.227-.8302-.227-1.2076 0-.3773.076-.7547.227-1.0566.151-.3018.302-.6037.603-.8301.303-.2265.604-.4529.982-.6038.452-.151.906-.2264 1.358-.3019v-.9057s.076-.0755.151-.0755h1.208c.076 0 .076 0 .15.0755v.9812c.454 0 .906.0754 1.359.2264.377.0754.68.3018.981.5283.227.2264.453.5283.604.8302.151.2264.226.6038.226 1.0566Zm-4.528-1.6604c-.227 0-.528.0755-.755.2264-.151.0755-.376.2264-.452.3774-.151.1509-.227.3018-.302.5283-.076.2264-.076.3773-.076.6037s0 .4528.076.6793c.075.2264.151.3774.302.5283.15.1509.301.3019.452.3773.227.0755.454.151.755.2264v-3.5471Zm3.019 1.7358c0-.2264 0-.4528-.076-.6792-.074-.151-.15-.3774-.226-.5283-.151-.1509-.302-.3019-.453-.3773-.226-.0755-.452-.151-.755-.2264v3.3961c.227 0 .529-.0754.755-.2264.151-.0754.378-.2264.453-.3773.152-.1509.226-.3019.302-.5284v-.4528Zm8.754 3.6227v.0755s-.075.0754-.15.0754-.151 0-.226.0755h-.755c-.076 0-.151 0-.227-.0755-.075 0-.075 0-.151-.0754v-4.8302c0 .0754-.075.1509-.075.1509-.076.0755-.076.1509-.151.2264l-.151.2265c-.075.0754-.075.1509-.151.2264l-2.566 3.849c0 .0755-.076.0755-.076.0755s-.075.0755-.151.0755h-.83c-.075 0-.15 0-.226-.0755-.075 0-.075-.0755-.075-.0755v-7.1698s.075-.0755.151-.0755c.075 0 .15 0 .226-.0755h.754c.076 0 .151 0 .227.0755.075 0 .075 0 .151.0755v4.9057c.076-.0755.151-.2264.227-.3774.075-.1509.225-.3019.301-.4529l2.566-3.849.076-.0755s.075-.0755.151-.0755c.075 0 .151 0 .227-.0754h.679c.075 0 .15 0 .225.0754.076 0 .076.0755.076.0755v.0755l-.076 7.0189Zm6.491-6.566v.3018c0 .0756 0 .1511-.075.2265 0 .0755-.076.0755-.076.0755h-1.886v6.0377s-.076.0754-.151.0754c-.076 0-.151.0755-.227.0755h-.755c-.075 0-.151 0-.226-.0755-.075 0-.075-.0754-.151-.0754 0 0-.075-.0755 0-.0755v-5.9622h-1.887l-.075-.0755c0-.0754-.076-.1509-.076-.2265v-.6037c0-.0755 0-.1509.076-.2264 0-.0755 0-.0755.075-.0755h5.359l.075.0755c0 .0755 0 .1509.076.2264-.076.0755-.076.1509-.076.3019Zm6.264 4.4529c0 .3018-.075.6037-.15.9056-.151.3018-.302.5283-.529.7547-.226.2264-.528.3773-.906.4528-.452.1509-.905.1509-1.358.1509h-1.962c-.151 0-.226 0-.302-.0754-.076-.0755-.076-.0755-.076-.151v-6.8679c0-.0754.076-.1509.076-.1509.076-.0755.076-.0755.151-.0755h4.377l.076.0755c0 .0755 0 .1509.075.1509v.6038c0 .0754 0 .151-.075.151 0 .0755-.076.0755-.076.0755h-3.17v1.8112h1.208c.377 0 .755 0 1.207.151.303.0754.529.2264.755.3773.227.1509.378.3774.529.6793.075.3773.15.6792.15.9812Zm-1.509.1509c0-.1509 0-.302-.076-.4529-.075-.1509-.15-.2264-.226-.3019-.151-.0754-.226-.1509-.377-.2264-.227-.0754-.453-.0754-.679-.0754h-.982v2.1132h.982c.226 0 .377-.0001.603-.0755.151 0 .302-.0755.378-.2264.075-.0755.226-.2264.226-.3019.075-.1509.151-.3019.151-.4528Zm8.529 1.5848c0 .0755.075.2265.075.3019v.0755s0 .0755-.075.0755c-.076.0754-.151.0754-.227.0754H135.7c-.076 0-.076 0-.151-.0754 0 0-.075-.0755-.075-.151l-.454-1.5095h-2.792l-.453 1.4341c0 .0754 0 .0754-.075.1509 0 .0755-.076.0755-.151.0755s-.151.0754-.226.0754h-.755c-.076 0-.151 0-.227-.0754 0 0 0-.0755-.075-.0755v-.0755c0-.0754.075-.2264.075-.3019l2.264-6.5661c0-.0754.076-.0754.076-.1509 0-.0755.075-.0755.151-.0755s.151-.0754.302-.0754h.981c.075 0 .226 0 .302.0754.075 0 .151.0755.151.0755 0 .0755.076.0755.076.1509l2.415 6.5661Zm-3.397-5.434-1.057 3.1699h2.114l-1.057-3.1699Zm10.189 5.8114v.0755s-.076.0754-.151.0754c-.076 0-.151.0755-.226.0755h-.755c-.075 0-.151 0-.227-.0755-.075 0-.075-.0754-.151-.0754v-3.0944h-2.717v3.0944s-.075.0754-.15.0754c-.076 0-.151.0755-.227.0755h-.755c-.075 0-.151 0-.226-.0755-.076 0-.076-.0754-.151-.0754 0 0-.076-.0755 0-.0755v-7.0944s.075-.0755.151-.0755c.075 0 .151-.0754.226-.0754h.755c.076 0 .151 0 .227.0754.075 0 .075 0 .15.0755v2.7925h2.717v-2.717c0-.0755 0-.0755.076-.0755 0 0 .075-.0755.151-.0755s.151-.0754.226-.0754h.755c.075 0 .151 0 .226.0754.076 0 .076.0755.151.0755v.0755l-.075 7.0189Zm7.094 0v.0755s-.076.0754-.151.0754-.15 0-.226.0755h-.755c-.075 0-.151 0-.226-.0755-.076 0-.076-.0754-.151-.0754 0-.0755-.076-.0755-.076-.151l-.604-1.6604c-.075-.2264-.151-.3773-.226-.6037-.076-.151-.151-.3019-.302-.3774-.075-.0754-.226-.1509-.377-.2264-.151-.0755-.302-.0755-.453-.0755h-.378v3.0189s-.075.0755-.151.0755c-.075 0-.15.0754-.225.0754h-.755c-.076 0-.151 0-.227-.0754-.075 0-.075-.0755-.151-.0755l-.075-.0755v-7.0189c0-.0755 0-.0755.075-.0755 0 0 .076-.0754.151-.0754.076 0 .151 0 .227-.0755h.755c.075 0 .15 0 .225.0755.076 0 .076 0 .151.0754v2.868h.303c.151 0 .301 0 .452-.0755.151-.0755.227-.1509.378-.2264.151-.1509.226-.2264.301-.3773.076-.2264.151-.3774.227-.6038l.528-1.5095c0-.0755.075-.0755.075-.1509 0-.0755.076-.0755.152-.0755.075 0 .151-.0755.226-.0755h.755c.075 0 .151 0 .227.0755.075 0 .075 0 .075.0755v.2264c0 .0755-.075.2265-.075.3019l-.529 1.2831c-.076.2264-.151.4528-.302.6037-.075.1509-.151.3019-.302.4528-.075.151-.227.2265-.302.3019-.15.0755-.226.151-.377.2264.151.0755.302.151.377.2264.151.0755.227.2264.378.3019.151.1509.226.3019.302.4529.15.2264.226.4528.301.6792l.604 1.5094c.075.0755.075.2264.075.3019.076.3019.076.3019.076.3774Z"/>
</svg>