<svg xmlns="http://www.w3.org/2000/svg" viewBox="0 0 96 32">
	<g fill="#ec6608">
		<path d="M20 22.3h7.4l1.5-4h-5.7c-.8 1.5-1.9 2.9-3.2 4ZM24.5 14.6zM24.6 12.3v.2c0 .7 0 1.4-.2 2h5.9l1.5-4h-7.4c0 .6.1 1.1.1 1.7ZM20.2 2.9c1.3 1.1 2.3 2.4 3.1 4h10l1.5-4H20.2Z"/>
		<path d="m8 22.3 1.5-4h13.7c.6-1.1 1-2.4 1.2-3.7H10.9l1.5-4h12.1c-.2-1.3-.6-2.6-1.2-3.7h-9.5l1.5-4h4.9C18.1 1.1 15.3 0 12.3 0 5.5 0 0 5.6 0 12.5S5.5 25 12.3 25s5.6-1 7.7-2.8H8Z"/>
	</g>
	<path fill="#fff" d="M37.2 3v.7c1 0 1.7.1 2 .4.3.3.5.9.5 1.7v13.5c0 .9-.2 1.5-.5 1.7-.3.3-1 .4-2 .4v.7h9.6v-.7c-1 0-1.7-.1-2-.4-.3-.3-.5-.9-.5-1.7V4.2H51v15.2c0 .9-.2 1.5-.5 1.7-.3.3-1 .4-2 .4v.7h9.6v-.7c-1 0-1.7-.1-2-.4-.3-.3-.5-.9-.5-1.7V5.9c0-.9.2-1.5.5-1.7s1-.4 2-.4v-.7H37.4ZM70.8 4c3.1 0 4.8 1.6 5.1 4.8h.7V3H60.1v5.9h.7c.1-1.6.6-2.8 1.5-3.6.9-.8 2-1.2 3.5-1.2h.3v15.4c0 .9-.2 1.5-.5 1.7-.3.3-1 .4-2 .4v.7h9.6v-.7c-1 0-1.7-.1-2-.4-.3-.3-.5-.9-.5-1.7V4h.3ZM95.2 16.9c0-1.5-.5-2.7-1.5-3.7-1.2-1.3-3.1-1.9-5.7-1.9s-2 0-2.5.1V4.2h2.6c1.3 0 2.3.4 3.2 1.2.9.8 1.4 1.9 1.5 3.4h.7V3H78.4v.7c1 0 1.7.1 2 .4.3.3.5.9.5 1.7v13.5c0 .9-.2 1.5-.5 1.7-.3.3-1 .4-2 .4v.7h8.8c2.7 0 4.7-.5 6-1.4 1.3-.9 1.9-2.3 1.9-4.1Zm-5.8 3.3c-.6.5-1.4.8-2.3.8s-1.1-.2-1.4-.7c-.2-.3-.2-.7-.2-1.2v-6.5h1.1c1.1 0 2 .2 2.7.7 1 .7 1.4 1.9 1.4 3.5s-.4 2.6-1.3 3.3ZM1.1 27.7v.2h.4s.1.2.1.4v3c0 .2 0 .3-.1.4h-.4v.2h2.1v-.2h-.4s-.1-.2-.1-.4V28h1.5v3.3c0 .2 0 .3-.1.4h-.4v.2h2.1v-.2h-.4s-.1-.2-.1-.4v-3c0-.2 0-.3.1-.4h.4v-.2H1.1ZM26.3 30.6l-1.2-2.9h-1.6v.2h.4s.1.2.1.4v3c0 .2 0 .3-.1.4h-.4v.2h1.4v-.2h-.5v-3.4l1.5 3.6h.2l1.5-3.7v3.1c0 .2 0 .3-.1.4h-.4v.2h2.1v-.2h-.4s-.1-.2-.1-.4v-3c0-.2 0-.3.1-.4h.4v-.2h-1.6l-1.2 2.9ZM32.4 29h.1c0-.3.1-.6.3-.8.2-.2.4-.3.8-.3v3.4c0 .2 0 .3-.1.4h-.4v.2h2.1v-.2h-.4s-.1-.2-.1-.4v-3.4c.7 0 1 .4 1.1 1.1h.2v-1.3h-3.6V29ZM55.5 27.8h.4s.1.2.1.4v1.3h-1.5v-1.3c0-.2 0-.3.1-.4h.4v-.2h-2.1v.2h.4s.1.2.1.4v3c0 .2 0 .3-.1.4h-.4v.2H55v-.2h-.4s-.1-.2-.1-.4v-1.4H56v1.4c0 .2 0 .3-.1.4h-.4v.2h2.1v-.2h-.4s-.1-.2-.1-.4v-3c0-.2 0-.3.1-.4h.4v-.2h-2.1v.2ZM63.9 31.5c-.2.1-.5.2-.7.2-.8 0-1.2-.6-1.2-1.9s.4-2 1.1-2 .6.1.8.3c.2.2.4.5.6.9h.2v-1.5h-.2c0 .2-.1.3-.3.3-.2 0-.4-.1-.6-.2H63c-.6 0-1.1.2-1.5.6-.4.4-.6.9-.6 1.6s.2 1.2.6 1.6c.4.4.9.6 1.5.6.3 0 .7 0 1-.2.3-.2.6-.4.8-.7l-.2-.2c-.2.3-.4.4-.6.6ZM84.7 27.8h.4s.1.2.1.4v1.3h-1.5v-1.3c0-.2 0-.3.1-.4h.4v-.2h-2.1v.2h.4s.1.2.1.4v3c0 .2 0 .3-.1.4h-.4v.2h2.1v-.2h-.4s-.1-.2-.1-.4v-1.4h1.5v1.4c0 .2 0 .3-.1.4h-.4v.2h2.1v-.2h-.4s-.1-.2-.1-.4v-3c0-.2 0-.3.1-.4h.4v-.2h-2.1v.2ZM94.2 31.5l-1.8-2.2.7-.7c.5-.5.9-.7 1.2-.7v-.2h-1.8v.2c.4 0 .5 0 .5.2v.2s-.1.2-.2.2l-1.3 1.3v-1.4c0-.2 0-.3.1-.4h.4v-.2h-2.1v.2h.4s.1.2.1.4v3c0 .2 0 .3-.1.4h-.4v.2H92v-.2h-.4s-.1-.2-.1-.4v-1.2h.2c0-.1 1.1 1.2 1.1 1.2.1.1.2.2.2.3s0 .1-.1.1h-.4v.2h2.2v-.2h-.3s-.2-.1-.2-.2ZM12.1 27.9c-.3-.1-.7-.2-1.2-.2H9v.2h.4s.1.2.1.4v3c0 .2 0 .3-.1.4H9v.2h2.1v-.2h-.4s-.1-.2-.1-.4V30h.5c.5 0 .9-.1 1.1-.3.3-.2.4-.5.4-.9s-.2-.7-.5-.9Zm-.8 1.7c-.1.1-.3.2-.6.2h-.2V28h.3c.3 0 .4 0 .5.2.1.1.2.4.2.7s0 .6-.2.7ZM42.4 27.9c-.3-.1-.7-.2-1.2-.2h-1.9v.2h.4s.1.2.1.4v3c0 .2 0 .3-.1.4h-.4v.2h2.1v-.2H41s-.1-.2-.1-.4V30h.5c.5 0 .9-.1 1.1-.3.3-.2.4-.5.4-.9s-.2-.7-.5-.9Zm-.8 1.7c-.1.1-.3.2-.6.2h-.2V28h.3c.3 0 .4 0 .5.2.1.1.2.4.2.7s0 .6-.2.7ZM49.5 31.5l-.2-.4-1.5-3.5h-.2l-1.4 3.7c0 .2-.1.3-.2.4H45.7v.2h1.2v-.2c-.3 0-.4 0-.4-.3V31.1l.2-.5h1.4l.2.5v.3c0 .2-.2.3-.5.3v.2h2v-.2c-.1 0-.3 0-.4-.3Zm-2.7-1.1.6-1.5.6 1.5h-1.2ZM78.6 31.5l-.2-.4-1.5-3.5h-.2l-1.4 3.7c0 .2-.1.3-.2.4H74.8v.2h1.3v-.2c-.3 0-.4 0-.4-.3V31.1l.2-.5h1.4l.2.5v.3c0 .2-.2.3-.5.3v.2h2v-.2c-.1 0-.3 0-.4-.3ZM76 30.4l.6-1.5.6 1.5H76ZM18.1 27.6c-.6 0-1.1.2-1.6.6-.4.4-.6.9-.6 1.6 0 .6.2 1.2.6 1.6.4.4.9.6 1.5.6s1.1-.2 1.6-.6c.4-.4.6-.9.6-1.6s-.2-1.2-.6-1.6c-.4-.4-.9-.6-1.5-.6Zm0 4.2c-.3 0-.6-.2-.8-.5-.2-.3-.3-.8-.3-1.5 0-1.3.4-2 1.1-2s.6.2.8.5c.2.3.3.8.3 1.5 0 1.3-.4 2-1.1 2ZM70.1 29.5h-.5v-1.6h.6c.3 0 .5 0 .7.3.2.2.3.4.3.7h.2v-1.3h-3.3v.2h.4s.1.2.1.4v3c0 .2 0 .3-.1.4h-.4v.2H70c.6 0 1 0 1.3-.3.3-.2.4-.5.4-.9s-.1-.6-.3-.8c-.3-.3-.7-.4-1.3-.4Zm.3 1.9c-.1.1-.3.2-.5.2s-.2 0-.3-.1v-1.7h.2c.2 0 .4 0 .6.2.2.2.3.4.3.8s0 .6-.3.7Z"/>
</svg>