<svg xmlns="http://www.w3.org/2000/svg" viewBox="0 0 150 30">
	<g fill="#fff">
		<path d="m5.80884 24.8498 3.6254-2.5574v-9.9031l-3.6254-1.2995v13.76Z"/>
		<path d="m0 2.55736 19.0408 6.79986V29.5788l3.6254-2.5574V6.80579L3.6254 0 0 2.55736Z"/>
		<path d="M88.1664 24.3695c-.0059 0-.0119-.006-.0119-.0119-.0059-.0059-.0059-.0119-.0059-.0119v-.0178l.0119-.0118c.528-.2611.5518-.9613.0652-1.2698-.5696-.3679-1.3588-.3026-1.9462-.0119-.0178.0119-.0237.0238-.0178.0475l.1543.4035c0 .0059.0059.0059.0059.0118.006.006.006.006.0119.006h.0119c.0059 0 .0118 0 .0118-.006.3501-.2017.9138-.3204 1.2876-.1186.3264.178.3086.5755-.0356.712-.2433.0949-.6586.0475-.9256.0475-.0178 0-.0297.0118-.0297.0296v.3857c0 .0237.0119.0356.0356.0356.2907-.0119.5815 0 .8663.0297.2255.0237.4213.1127.445.3441.0416.3323-.2848.5103-.5755.5459-.4154.0534-.8011-.0237-1.1571-.2433-.0059 0-.0059-.0059-.0118-.0059h-.0119c-.0059 0-.0059.0059-.0119.0059 0 .006-.0059.006-.0059.0119l-.1424.3382c-.0178.0416-.0059.0712.0297.089.6408.3382 1.7622.4984 2.2962-.1127.3798-.4154.184-1.0443-.3441-1.2223Zm20.2806-1.0977c-.16-.1484-.344-.267-.546-.3501-.207-.0831-.427-.1246-.646-.1246-.22 0-.439.0415-.647.1246-.202.0831-.392.2017-.546.3501-.154.1483-.279.3263-.368.5221-.083.1958-.13.4035-.13.6171 0 .2136.047.4213.13.6171.083.1958.208.3738.368.5222.16.1483.344.267.546.35.208.0831.427.1246.647.1246.219 0 .439-.0415.646-.1246.208-.083.392-.2017.546-.35.155-.1484.279-.3264.368-.5222.083-.1958.131-.4035.131-.6171 0-.2136-.048-.4213-.131-.6171-.089-.1958-.213-.3738-.368-.5221Zm-.415 1.9165c-.208.2077-.487.3204-.777.3204-.291 0-.57-.1187-.778-.3204-.207-.2077-.32-.4865-.32-.7773 0-.2907.113-.5696.32-.7773.208-.2077.487-.3204.778-.3204.29 0 .569.1187.777.3204.208.2018.32.4866.32.7773 0 .2908-.112.5756-.32.7773Zm-42.2055-2.3319s-.0059-.0059-.0118 0h-.5518s-.006 0-.006.006c-.0059 0-.0059.0059-.0059.0059l-1.3885 3.0795v.0178l.006.0059h.0118l.5578-.0059h.0059s.006 0 .006-.0059l.0059-.006.2907-.6883v-.0059h.006c.0059 0 .0059-.0059.0118-.0059h1.5487s.0059 0 .0059.0059l.006.0059.3026.6943v.0059h.0118l.006.0059.5577-.0059h.0119l.0059-.0059s.006-.006.006-.0119v-.0119l-1.4004-3.0795Zm.2849 1.9225v.0059l-.006.006h-1.1333l-.0059-.006s-.0059-.0059-.0059-.0118v-.0119l.5518-1.2935c0-.006.0059-.006.0059-.006.0059 0 .0059-.0059.0119-.0059h.0059s.0059 0 .0059.0059l.006.006.5577 1.2876v.0118c.006.006.006.0119.006.0119Zm-5.9751-1.9284h-2.7235l-.006.0059v3.0795c0 .0238.0119.0356.0356.0297l.4629-.0119c.0178 0 .0296-.0059.0415-.0237.0118-.0237.0237-.0534.0296-.0949.006-.0238.006-.0534.006-.0831-.0119-.7951-.0119-1.5961.0059-2.3972 0-.0178.006-.0237.0238-.0237h1.5545c.006 0 .0178.0059.0178.0059.006.006.0119.0119.0119.0238v2.5751c0 .0178.0119.0297.0297.0297l.5043-.0059c.0178 0 .0297-.0119.0297-.0297v-3.0558c.0059-.0118 0-.0237-.0237-.0237Zm-20.7378.0059c-.4628-.0059-.9197-.0059-1.3766 0-.0059 0-.0059 0-.0119.006h-.0059v3.0735c0 .0238.0119.0297.0297.0297l.5162.0059c.0237 0 .0297-.0118.0297-.0296v-.8307c0-.0178.0118-.0297.0296-.0297.3916.0059.6824 0 .8723-.0178 1.5605-.1187 1.4774-2.1954-.0831-2.2073Zm.623 1.1274c0 .1543-.0712.3026-.1958.4153-.1246.1128-.2967.1721-.4688.1721l-.7654.0059h-.0059s-.0059 0-.0059-.0059c0 0-.006-.0059-.006-.0119l-.0059-1.2045v-.0059l.0059-.0059s.006-.006.0119-.006l.7654-.0059c.178 0 .3501.0593.4747.1661.1246.1068.1958.2552.1958.4095v.0771Zm6.4082-1.1333c-.0237 0-.0356.0119-.0474.0297l-.9138 1.7682v.0118h-.0119s-.0059 0-.0059-.0059c-.0059 0-.0059-.0059-.0059-.0119l-.8901-1.7682c-.0118-.0178-.0237-.0297-.0474-.0297h-.54s-.0059.0001-.0059.006c-.0059 0-.0059.0059-.0119.0119v.0059l-.0059.0059s0 .006.0059.006l1.1986 2.2488c.0119.0178.0119.0356 0 .0593-.1661.3086-.4213.4094-.7595.2967h-.0178c-.0059 0-.0119 0-.0119.0059-.0059 0-.0059 0-.0059.006 0 0 0 .0059-.0059.0059l-.006.0059v.006l-.1186.3856c-.006.0238 0 .0416.0237.0475.7773.2611 1.1333-.1365 1.4893-.7832l.3442-.6349c.1127-.2136.2314-.4213.3441-.6349.184-.3442.3679-.6824.5518-1.0265v-.0119s-.0118-.0119-.0118-.0178h-.5341v.0119Zm-12.1341.0059c-.0059 0-.0059-.0059-.0118-.0059h-2.0649c-.006 0-.0178.0059-.0238.0059-.0059.006-.0059.006-.0059.0119v3.0676c0 .006.0059.0178.0059.0238h.0238l.5162.0059h.0237s.006-.0059.006-.0119v-.0118l-.0119-2.5693v-.0237c.0059-.0059.0119-.0059.0237-.0059h1.519l.006-.006v-.445c0-.0059-.006-.0178-.006-.0237.006-.0119 0-.0119 0-.0119Zm19.0171-.0059h-2.7176c-.0059 0-.0119 0-.0178.0059-.0059.006-.0059.0119-.0059.0178v3.0677c0 .0059 0 .0118.0059.0178.0059.0059.0119.0059.0178.0059h.5281s0-.0059.0059-.0059c0 0 .006-.006.006-.0119v-2.5989c0-.0059.0059-.0059.0059-.0119l.0059-.0059h1.614s.0059.0059.0059.0119v2.6107s0 .006.0059.006l.006.0059h.528c.006 0 .006 0 .0119-.0059.0059-.006.0059-.0119.0059-.0178v-3.0736s0-.0059-.0118-.0178c.0059 0 .0059 0 0 0Zm23.4019.0119c0-.0119-.0059-.0119-.0059-.0119h-2.0708c-.006 0-.0119 0-.0119.0059-.0059.006-.0059.0119-.0059.0119v3.0914s0 .0059.0059.0059l.006.0059h.534s.0059 0 .0059-.0059l.0059-.0059v-2.6049c0-.0059 0-.0118.006-.0118.0059-.006.0118-.006.0118-.006h1.5012c.006 0 .0119 0 .0119-.0059.0059-.0059.0059-.0119.0059-.0119l.006-.445c0-.0059 0-.0118-.006-.0118Zm4.6757-.006s-.006-.0059-.0119 0h-.5459c-.0059 0-.0059 0-.0119.006-.0059 0-.0059.0059-.0059.0059l-1.3884 3.0854v.0119c0 .0059 0 .0059.0059.0119l.0059.0059h.5637c.006 0 .006 0 .0119-.0059.0059 0 .0059-.006.0059-.006l.2967-.6942c0-.0059.0059-.0059.0059-.0059.006 0 .006-.006.0119-.006h1.5427c.006 0 .006 0 .0119.006l.0059.0059.2967.6883c0 .0059.0059.0059.0059.0059s.006.006.0119.006l.5637.0059h.0119l.0059-.0059s.0059-.006.0059-.0119v-.0119l-1.4003-3.0913c0-.006-.0059-.006-.0059-.006Zm.2848 1.9225-.006.0119h-1.1392l-.0059-.006v-.0178l.5577-1.2935c0-.0059.006-.0059.006-.0059h.0237l.0059.0059.5578 1.2935v.0119Zm13.6234-1.9284h-2.7057c-.0059 0-.0118 0-.0178.0059-.0059.006-.0059.0119-.0059.0178v3.0617c0 .006 0 .0119.0059.0178.006.006.0119.006.0178.006l.5222.0059h.0118c.006 0 .006-.0059.006-.0059l.0059-.006v-.0118l.006-2.5811c0-.006.0059-.0119.0059-.0178 0-.006.0118-.006.0178-.006h1.5664c.006 0 .0119 0 .0178.006.006.0059.006.0118.006.0178v2.5751c0 .006.0059.0119.0059.0178 0 .006.0119.006.0178.006h.5103c.0059 0 .0119 0 .0178-.006.0059-.0059.0059-.0118.0059-.0178v-3.0676c0-.0059-.0059-.0119-.0059-.0178 0-.0059-.0059 0-.0119 0Zm5.4945.0059c-.457-.0059-.9138-.0059-1.3647 0-.006 0-.0119.006-.0178.006-.0059.0059-.0059.0118-.0059.0178v3.0557c0 .0238.0118.0297.0296.0297l.5162-.0059c.0178 0 .0297-.0119.0297-.0297v-.8307c0-.0178.0119-.0297.0299-.0297.433 0 .718-.0059.86-.0178 1.614-.1364 1.478-2.1835-.077-2.1954Zm.641 1.1333c0 .1543-.071.3086-.202.4213-.13.1127-.308.1721-.492.1721h-.718c-.006 0-.012 0-.018-.006-.0061 0-.012-.0059-.012-.0059-.006-.0059-.006-.0059-.006-.0119 0-.0059-.0059-.0118-.0059-.0178v-1.157c0-.0119.0059-.0237.0119-.0297.0059-.0059.018-.0118.03-.0118h.718c.089 0 .184.0178.267.0474.083.0297.16.0712.225.1306.065.0534.119.1186.148.1898.036.0713.054.1484.054.2255v.0534Zm14.733-1.1333-.012-.0059h-.445c-.006 0-.006.0059-.006.0059l-1.199 2.0293-.005.0059h-.024l-.006-.0059-1.217-2.0293c0-.0059-.005-.0059-.005-.0059h-.451c-.006 0-.012 0-.012.0059-.006.006-.006.006-.006.0119v3.0736c0 .0059 0 .0118.006.0118.006.006.006.006.012.006h.492c.006 0 .012 0 .012-.006.006-.0059.006-.0059.006-.0118l.012-1.9403c0-.0059 0-.0059.006-.0119 0-.0059.006-.0059.012-.0059h.011c.006 0 .006.0059.012.0059l.979 1.608.006.006h.012l.237.0059h.012c.006 0 .006-.0059.006-.0059l.991-1.6496c0-.0059.006-.0059.012-.0059h.012s.006.0059.012.0059c0 .006.006.006.006.0119l.012 1.9759c0 .0059 0 .0118.006.0118.005.006.005.006.011.006l.511-.006c.006 0 .012 0 .012-.0059.005-.0059.005-.0059.005-.0119l-.035-3.0795c.006.006.006 0 0 0Z"/>
		<path d="M116.173 22.8617c.006.0059.006 0 0 0Zm12.14.0178c-.006-.0178-.024-.0297-.048-.0297h-.516c-.018 0-.03.006-.035.0238l-1.371 3.0557v.0119c0 .0059 0 .0119.006.0119 0 .0059 0 .0059.006.0059 0 0 .006 0 .006.0059h.006c.006 0 .006.006.006.006l.522-.006c.023 0 .041-.0118.047-.0356l.273-.6467c.006-.0178.024-.0297.048-.0297h1.501c.024 0 .035.0119.047.0297l.291.6705c.006.0118.012.0178.024.0237h.023c.155-.0178.303-.0178.457.0059.083.0119.107-.0178.072-.0949l-1.365-3.0083Zm.267 1.9047-.006.0059h-.012l-1.104.0059h-.011l-.006-.0059s-.006-.0059-.006-.0119v-.0118l.546-1.2936c0-.0059.006-.0059.006-.0059h.017s.006 0 .006.0059v.006l.558 1.2935v.0119c.012-.006.012-.006.012 0 .006-.006.006-.006 0 0Zm-7.488-.6883-.107.0059c-.036 0-.071 0-.107.0059-.006 0-.012 0-.018-.0059-.006 0-.006-.0059-.012-.0059-.006-.006-.005-.0119-.005-.0238v-.7179c0-.006-.001-.0119.005-.0178.006-.006.012-.006.018-.006h1.792c.018 0 .03-.0059.042-.0237.012-.0119.012-.0237.012-.0356v-.0356c-.006-.0178-.006-.0356-.006-.0534.012-.0949.012-.1958 0-.2967 0-.0118-.006-.0237-.012-.0237s-.012-.0059-.024-.0059h-2.362c-.017 0-.029.0118-.029.0296v3.0499c0 .0178.012.0296.029.0296h1.389c.676-.0059 1.299-.2907 1.199-1.0858-.101-.8544-1.045-.8188-1.804-.7832Zm1.062 1.2935c-.107.0831-.255.1305-.41.1305h-.866c-.012 0-.018-.0059-.03-.0118-.006-.006-.011-.0178-.011-.0297v-.9197l.006-.0059c.005-.006.017-.0119.029-.0119h.866c.078 0 .155.0119.22.0356.071.0237.136.0593.19.1009.053.0415.095.0949.124.1483.03.0534.042.1127.042.1721l.006.0771c.006.1127-.053.2314-.166.3145Zm27.84.5518-1.388-3.0854v-.006h-.576l-.006.006-1.388 3.0854v.0119c0 .0059 0 .0059.006.0059l.006.0059h.011l.558-.0118h.012l.006-.006.297-.6883c0-.0059.006-.0059.006-.0059s.006-.0059.011-.0059h1.537c.006 0 .006 0 .012.0059.006 0 .006.0059.006.0059l.303.6943c0 .0059.006.0059.006.0059.006 0 .006.0059.011.0059h.57l.006-.0059v-.0059c0-.006-.006-.006-.006-.0119Zm-1.098-1.163h-.006c-.005 0-.006.006-.006.006l-.005.0059h-1.134v-.0178l.558-1.2935v-.006h.006s.006-.0059.012-.0059h.006s.006 0 .006.0059l.006.006.557 1.2994Zm-5.975 1.1571-1.074-1.5606s0-.0059-.006-.0059l-.006-.0059c0-.006 0-.006.006-.0119l1.039-1.4715v-.0059s0-.006.006-.006v-.0118l-.006-.006h-.6v.006l-.878 1.2875-.006.006h-.599v-.006l-.006-.0059v-1.2876h-.006c-.006 0-.006 0-.006-.0059h-.534c-.006 0-.012 0-.012.0059 0 .006-.006.006-.006.0119v3.0854c0 .006 0 .0119.006.0119s.006.0059.012.0059l.528-.0059c.006 0 .012 0 .012-.0059l.006-.006v-1.2697c0-.006 0-.0119.006-.0119s.006 0 .006-.0059h.576l.005.0059.896 1.2935.006.0059h.635v-.0237c.006 0 .006 0 0-.0059Zm-6.806-3.0855h-.498c-.018 0-.03.0119-.03.0297l-.006 1.2342c0 .0059 0 .0118-.005.0178l-.006.0059h-1.567c-.018 0-.03-.0119-.03-.0297l-.017-1.2282c0-.0237-.012-.0356-.036-.0356h-.498c-.018 0-.03.0119-.03.0297v3.0379c0 .0297.018.0475.047.0475h.487c.024 0 .036-.0119.042-.0415v-1.2639c0-.0237.011-.0296.029-.0296h1.561c.006 0 .018.0059.023.0059l.006.0059v1.2995c0 .0178.012.0296.03.0296l.493-.0059c.023 0 .035-.0119.035-.0356.024-1.0146.024-2.0352 0-3.0498-.006-.0178-.012-.0238-.03-.0238ZM123.608 7.64211h-1.81l-4.456 9.90909h1.898l.979-2.2904h4.955l.991 2.2904h1.922l-4.479-9.90909Zm-2.777 6.17089 1.851-4.33149 1.869 4.33149h-3.72Zm15.724-2.0767h-5.121V7.64211h-1.839v9.90909h1.839v-4.2485h5.121v4.2485h1.839V7.64211h-1.839v4.09419ZM32.1892 17.5512h1.8097V9.20264h5.1385v8.34856h1.8097V7.64211h-8.7579v9.90909ZM100.301 6.11719h.611V19.1769h-.611V6.11719Zm12.721 5.47671h-2.931V9.1611h5.904V7.64805h-7.714v9.90905h4.456c2.504 0 3.922-1.1037 3.922-3.0736 0-1.8691-1.258-2.8896-3.637-2.8896Zm-.38 4.5391h-2.545v-3.127h2.545c1.442 0 2.166.4925 2.166 1.5309-.006 1.0443-.753 1.5961-2.166 1.5961Zm-60.611-4.9664c0-2.19537-1.6139-3.52449-4.2187-3.52449h-4.0764v9.90909h1.8394v-2.86h2.237c2.6048 0 4.2187-1.341 4.2187-3.5246Zm-4.3018 1.97h-2.1539V9.20264h2.1539c1.6139 0 2.4506.72389 2.4506 1.96396-.006 1.2461-.8367 1.97-2.4506 1.97Zm22.7967-4.02297c1.0325 0 1.9225.37975 2.6464 1.16297l1.1867-1.12143c-.9197-1.07398-2.3081-1.65546-3.9221-1.65546-3.0439 0-5.3046 2.13608-5.3046 5.09689 0 2.9549 2.2666 5.097 5.2928 5.097 1.6258 0 3.0142-.5815 3.9339-1.6555l-1.1867-1.1333c-.7239.7951-1.6139 1.1748-2.6464 1.1748-2.053 0-3.5364-1.4418-3.5364-3.483 0-2.0352 1.4834-3.48297 3.5364-3.48297Zm4.2425.08901h3.2694v8.34856h1.8275V9.20264h3.2813V7.64211h-8.3782v1.56053Zm-16.2698-1.697c-3.0676 0-5.3343 2.16575-5.3343 5.09696 0 2.9311 2.2667 5.0969 5.3343 5.0969 3.0736 0 5.3343-2.1539 5.3343-5.0969 0-2.94901-2.2666-5.09696-5.3343-5.09696Zm0 8.57396c-1.9937 0-3.483-1.4596-3.483-3.483 0-2.0233 1.4834-3.48297 3.483-3.48297s3.483 1.45967 3.483 3.48297c-.0059 2.0234-1.4893 3.483-3.483 3.483Zm36.0167-3.483c0-2.94301-2.2666-5.09689-5.3343-5.09689-3.0676 0-5.3342 2.16574-5.3342 5.09689 0 2.9312 2.2666 5.097 5.3342 5.097 3.0677 0 5.3343-2.1539 5.3343-5.097Zm-5.3402 3.483c-1.9937 0-3.483-1.4596-3.483-3.483 0-2.0233 1.4834-3.48297 3.483-3.48297 1.9937 0 3.483 1.45967 3.483 3.48297 0 2.0234-1.4834 3.483-3.483 3.483Zm60.6289 1.4716-3.512-5.1088 3.382-4.80029h-1.952l-2.843 4.14759h-1.898V7.64211h-1.81v9.90909h1.81v-4.1773h1.839l2.902 4.1773h2.082Z"/>
	</g>
</svg>