<svg xmlns="http://www.w3.org/2000/svg" viewBox="0 0 100 32">
	<path fill="#EA5616" d="M20.3584.5 10.175 10.675h10.1834v20.3583l10.175-10.15V.5h-10.175Z"/>
	<path fill="#fff" d="m10.175 31.0333 10.1833-10.175H10.175V.5L0 10.65v20.3833h10.175Zm30.5417-5.0916h5.3416v-15.775h8.1084v15.775h5.3416V5.59168H40.7167V25.9417ZM92.625 13.2083h-4.5667v-3.0416H98.225V5.58334H82.7083V25.9417H92.875c4.075 0 7.125-2.0417 7.125-6.3667 0-4.325-3.05-6.3667-7.3833-6.3667h.0083ZM92.1083 21.6H88.05v-4.05h4.0583c1.2584 0 2.5.5 2.5 2.025s-1.275 2.025-2.5 2.025Zm-19.4916 0c-3.5667 0-5.575-2.6167-5.575-5.8333 0-2.5917 1.4583-5.83336 5.4666-5.83336.8984.00775 1.7842.21246 2.595.59986.81.3873 1.5259.9477 2.0967 1.6418l3.25-3.24999c-1.0017-1.1985-2.255-2.16234-3.6708-2.82325-1.415-.661-2.9584-1.00292-4.5209-1.00175-1.4075-.03717-2.8075.21391-4.1141.73783-1.3067.52383-2.4925 1.30942-3.485 2.3085-.9917.999-1.7692 2.19046-2.2834 3.50086-.515 1.3105-.7558 2.7124-.7091 4.1195-.0175 2.2442.6775 4.4361 1.9858 6.2599 1.3075 1.8238 3.1608 3.1855 5.2917 3.8888 2.1316.7034 4.4308.712 6.5675.0249 2.1366-.6872 4-2.0348 5.3216-3.8486l-3.2666-3.2667c-.5184.8599-1.2525 1.5697-2.13 2.0593-.8767.4895-1.8659.742-2.87.7324"/>
</svg>