<svg xmlns="http://www.w3.org/2000/svg" viewBox="0 0 100 42">
	<path fill="#fff" d="M20.6639 4.92957 12.1578 0v5.02231C5.14817 6.95771 0 13.3755 0 21.0001c0 6.5762 3.82828 12.2577 9.37778 14.9383l1.65662-4.5531c-3.70518-1.9829-6.22683-5.8884-6.22683-10.3852 0-4.9368 3.04-9.1609 7.34963-10.9097l.0006 18.208 8.5061-23.36883Z"/>
	<path fill="#55ED00" d="m12.4939 37.0708 8.5067 4.9295v-5.0217c7.0079-1.936 12.1577-8.3538 12.1577-15.9783 0-6.5763-3.8288-12.25773-9.3788-14.9378l-1.6567 4.5525c3.7052 1.9829 6.2269 5.8885 6.2269 10.3853 0 4.9362-3.04 9.1613-7.3497 10.9096l-.0005-18.2085-8.5056 23.3694Z"/>
	<path fill="#fff" d="M64.3762 17.4454c.8669 0 1.8935-.2855 2.6492-.6562l1.2647 3.4601c-1.3551.7366-3.2023 1.0582-4.8495 1.0582-4.2954 0-7.7758-3.4815-7.7758-7.7766 0-4.2936 3.4804-7.77504 7.7758-7.77504 1.6472 0 3.0908.21492 4.5725 1.00899l-1.2637 3.46175c-.7258-.39539-1.5043-.60867-2.3732-.60867-2.1615 0-3.9148 1.75217-3.9148 3.91297 0 2.1623 1.7533 3.9145 3.9148 3.9145Zm-9.5859 19.5302c-.1302-.3938-.6121-1.9704-.743-2.3724H50.383l-.743 2.3724h-1.6003c.282-.8515.9522-2.8465 1.6177-4.8268l.5943-1.7686 1.0158-3.0352h2.0087l3.157 9.6306h-1.6429Zm-2.5253-8.4083h-.0574l-1.4592 4.8858h2.9622l-1.4456-4.8858Zm-6.4315-1.2206h-6.0503v9.6305H43.77c2.054 0 3.004-1.383 3.004-2.963 0-.8514-.2744-1.529-.8214-2.0343-.5475-.507-1.3502-.7597-2.4074-.7597h-2.1755v-2.7644h4.4638v-1.1091Zm-4.4638 8.5198v-3.5356l1.8316-.0016c.8193 0 1.9443.1493 1.9443 1.7128 0 1.5947-1.1008 1.8244-1.7897 1.8244h-1.9862Zm27.1854-8.5067v9.6158h1.5738v-4.4937h1.3917c1.4165 0 1.7239.566 1.9774 1.4749l.8268 3.0188h1.5722l-.8689-3.3551c-.191-.6661-.4929-1.5356-1.6434-1.7703.87-.3248 1.2582-1.2501 1.3757-1.7965l.6458-2.6808h-1.5157l-.6321 2.4577c-.1357.466-.3492.9844-.8582 1.2518-.2135.1116-.4791.1789-.8128.1789h-1.4591v-3.9015h-1.5732Zm13.9647-11.4795c-.4682-1.5324-1.7173-2.5726-3.3315-2.8088 1.5397-.315 2.4025-1.5439 2.8303-2.6972.3958-1.06153 1.5588-4.29031 1.5588-4.29031h-4.7849l-1.1923 3.39284c-.4863 1.36177-.9297 1.93927-2.6653 1.93927V6.06266h-4.8234V21.0007h4.8234v-5.9244c2.0205 0 2.509.1657 3.0555 1.5947l.6698 1.8983.8517 2.4314h4.7872l-1.7793-5.1204Zm8.4637-4.4724h2.6082c3.8315 0 5.7726 1.4175 5.772 4.6102 0 3.2353-1.8962 4.9826-5.3485 4.9826h-7.8427V6.06266h12.2749v3.593h-7.4639v1.75224Zm0 6.0326h2.0612c.8661 0 1.5152-.3675 1.5148-1.4323 0-1.0664-.6846-1.278-1.6247-1.278h-1.9513v2.7103Zm-42.0472 3.5602V9.9723H44.594v11.0284h-4.8075V6.06266h13.9801V21.0007h-4.8303ZM64.1787 31.317v-3.9572h1.6152v9.6158h-1.6152v-4.4494h-4.1412v4.4494H58.425v-9.6158h1.6125v3.9572h4.1412Z"/>
</svg>