<svg xmlns="http://www.w3.org/2000/svg" viewBox="0 0 103 46">
	<path fill="#fff" d="M31.4653 37.332c4.3047.9407 8.6233 2.0527 13.2911 7.8958.4146.5185-.2185 1.0381-.6942.6192-4.7503-4.1707-9.0421-5.5152-12.9975-5.5152-4.4033 0-7.403.5828-10.4264.5828C9.24033 40.9146 0 31.7546 0 20.4562 0 9.15998 9.24033 0 20.6383 0c11.3991 0 20.6384 9.15891 20.6384 20.4562.0054 3.7018-1.0051 7.3342-2.9216 10.5013-.061.0997-.2142.0643-.2292-.0503-.7082-5.0268-3.8076-7.7973-8.3169-8.6051-.391-.0707-.4638-.3096.0536-.3535 1.3756-.1178 3.3362-.0975 4.3325.0804.06-.5154.0857-1.0414.0857-1.5728 0-7.4672-6.1077-13.52247-13.6425-13.52247-7.5347 0-13.64243 6.05417-13.64243 13.52247 0 7.4694 6.10773 13.5236 13.64243 13.5236.2143 0 .4286.0021.6407-.0075-.2091-1.207-.2949-2.4322-.256-3.6565.0332-.8249.2024-.9385.5785-.2968 1.8866 3.2248 4.596 6.1635 9.8628 7.313h.001Zm-.3503-5.0192c.5035 0 1.0317.21 1.486.5914.9181.7692 1.1977 1.6841.7113 2.3301-.2699.3536-.7071.5486-1.232.5486-.5143 0-1.0392-.1897-1.4035-.5036-.8356-.7242-1.081-1.8963-.5356-2.5626.2132-.2604.5592-.4039.9738-.4039Zm4.5757-3.3469c.766.2871 1.0671 1.4485 1.1464 1.9841.1349.8967-.15 1.2674-.4372 1.2674-.3128 0-.707-.3632-1.1699-1.0799-.4574-.7071-.6246-1.5213-.3985-1.9306.15-.271.4639-.3899.8592-.241Zm26.1194-13.1315c.1671-.4874.2603-1.0092.2603-1.5513 0-2.4812-1.8641-4.61959-4.4204-4.61959-2.5562 0-4.4193 2.13839-4.4193 4.61959 0 2.4813 1.8631 4.5897 4.4193 4.5897.7746 0 1.4849-.1961 2.0999-.5357l-1.6606-1.9798c-.0391-.0466-.0641-.1034-.0719-.1637-.0078-.0603.0018-.1216.0277-.1766.0259-.055.0671-.1015.1186-.1338.0515-.0324.1112-.0493.172-.0488h3.4754-.001Zm2.8819 2.9291 2.5733 2.9215c.1811.1972.0322.5164-.2389.5164h-3.7925c-.0762.0001-.1515-.0166-.2205-.0488-.0691-.0322-.1302-.0792-.1791-.1376l-.6428-.766c-1.3543.8716-2.931 1.3343-4.5415 1.3328-4.6164 0-8.3714-3.723-8.3714-8.2987 0-4.57566 3.755-8.29858 8.3714-8.29858 4.6175 0 8.3726 3.72292 8.3726 8.29858 0 1.6499-.4907 3.1862-1.3306 4.4804Zm37.607-12.39758c.229 0 .413.1832.413.40925V21.7911c0 .225-.184.4082-.413.4082h-3.0927c-.1086.0006-.213-.042-.2904-.1183-.0773-.0763-.1212-.1802-.122-.2888V6.7741c0-.22605.1842-.40925.4124-.40925H102.3l-.001.00107Zm-29.7359 0c.2282 0 .4114.1832.4114.40925V21.7911c0 .225-.1832.4082-.4114.4082h-3.094c-.1087.0006-.2131-.042-.2904-.1183-.0773-.0763-.1212-.1802-.1221-.2888V6.7741c0-.22605.1843-.40925.4125-.40925h3.094v.00107Zm24.5284 0c.1318 0 .2571.06321.3343.1682.0381.05166.0631.11175.073.17517.0099.06342.0043.12829-.0162.18909L92.3958 21.924c-.0279.0811-.0805.1515-.1505.2012-.0699.0498-.1536.0764-.2395.0762h-2.749c-.0859.0005-.1698-.0258-.2399-.0754-.0701-.0496-.123-.1198-.1512-.201l-2.9815-8.7786-2.9826 8.7786c-.0281.081-.0808.1511-.1507.2007-.07.0495-.1536.076-.2393.0757h-2.7501c-.0859.0002-.1696-.0264-.2395-.0762-.0699-.0497-.1226-.1201-.1505-.2012L74.2858 6.89945c-.0204-.06082-.026-.12567-.0161-.18907.0099-.0634.0349-.12349.0729-.17519.0385-.05247.0889-.09514.1469-.12455.0581-.0294.1223-.04473.1874-.04472h3.4626c.1821 0 .3406.11785.3942.28712l2.7394 8.87496 3.0116-8.88567c.028-.08133.0808-.15183.1509-.2016.0701-.04977.1541-.07631.2401-.07588h2.417c.1767 0 .3342.11142.3899.27748l3.0116 8.88467 2.7405-8.87503c.0263-.08374.0789-.15682.1498-.2085.071-.05168.1566-.07923.2444-.07862h3.4626v.00107ZM53.0134 33.7981c.7232 0 1.1314-.4135 1.1314-1.0606 0-.6568-.4286-1.0917-1.1517-1.0917h-1.2235v2.1534h1.2438v-.0011Zm-2.5583-6.052h4.4439v1.1217h-3.1283v1.6574h1.4463c1.3253 0 2.2637.8485 2.2637 2.2123 0 1.2931-.9181 2.1823-2.2326 2.1823h-2.793v-7.1737Zm7.7672 6.3156c.7242 0 1.1935-.7286 1.1935-1.3542v-.1414h-.225c-.6514 0-1.7527.09-1.7527.8185 0 .3428.2657.6771.7853.6771h-.0011Zm.9589-2.3752h.2249v-.0707c0-.6771-.4392-.9096-.9792-.9096-.5099 0-1.0284.2121-1.4463.496l-.4799-.9202c.4285-.3429 1.2641-.6364 2.0387-.6364 1.3553 0 2.1609.7478 2.1609 2.0516v3.2226h-1.2031v-.4339c0-.2121.0311-.375.0311-.375h-.0214c-.315.5464-.9375.93-1.6403.93-.9374 0-1.712-.6053-1.712-1.546 0-1.5449 1.8749-1.8084 3.0266-1.8084Zm2.8347-1.9199h1.2942v1.9906h2.2231v-1.9906h1.2941v5.1532h-1.2931v-2.0816h-2.223v2.0816H62.017v-5.1532h-.0011Zm6.1978 0h1.2952v1.9713h.6321l1.2642-1.9713h1.4367l-1.651 2.4556v.0203l1.8545 2.6784h-1.4977l-1.366-2.0924h-.6728v2.0913h-1.2963v-5.1532h.0011Z"/>
</svg>