<svg xmlns="http://www.w3.org/2000/svg" viewBox="0 0 123 34">
	<path fill="#FFE600" d="M34 27.574C34 31.705 31.705 34 27.574 34H6.426C2.295 34 0 31.705 0 27.574V6.426C0 2.295 2.295 0 6.426 0h21.1565C31.705 0 34 2.295 34 6.426v21.148Z"/>
	<path fill="#2B2D34" d="M21.8617 15.3428v-3.2469l1.1726-1.1735v2.8135l1.0206 1.0197 4.1049-4.1049 1.0118 1.0109c-.0087-.7645-.1616-2.98303-2.0402-4.82756-2.0228-1.95461-4.2159-1.07123-4.9639-.32329l-4.0971 4.09705 1.0459 1.0459-2.1162 2.1329-2.1172-2.1163 1.0459-1.045-4.0971-4.09707c-.7479-.74795-2.94105-1.6322-4.96382.32242-1.8786 1.84452-2.03151 4.06305-2.04024 4.82845l1.01182-1.0118 4.10495 4.1058 1.02059-1.0197v-2.8135l1.1726 1.1726v3.2469l1.6488 1.6409-8.12606 8.126 3.21371 3.2041 8.12605-8.1172 8.1251 8.126 3.2137-3.205-8.126-8.1339 1.6488-1.6575Z"/>
	<path fill="#fff" d="M39.6699 18.4199h6.1286v1.9293h-3.8332V22.33h1.2748c.8581 0 1.9634.1023 2.7961.9184.3574.3565.7995 1.0109.7995 2.0647 0 .318-.0393.623-.1154.9078-.1275.4753-.3591.893-.6841 1.2172-.2211.221-.4719.3905-.7471.519-.1249.0577-.2551.1075-.3906.1503-.0664.0209-.1336.0402-.2027.0576-.4998.1267-1.0572.1661-1.6514.1661h-3.3745v-9.9112Zm3.1963 8.0666c.3145 0 .8755-.0253 1.232-.3145.069-.0594.187-.1765.2735-.3626.0629-.1337.1092-.3032.1092-.5129 0-.0752-.0061-.146-.0166-.2124-.0114-.0707-.0289-.1363-.0498-.1974-.0332-.0961-.0769-.18-.1258-.2525-.0464-.0682-.0979-.1259-.1495-.1739-.0227-.021-.0454-.0402-.0681-.0577l-.0323-.0245c-.3565-.2551-.935-.263-1.1726-.263h-.9096v2.3802h.9096v-.0088Zm12.2816-4.7856h-2.1416v.748c-.4133-.5619-.9629-.8065-1.4487-.9061-.2333-.0481-.4517-.0629-.6343-.0629-.9175 0-1.7249.3311-2.3033.9095-.6116.6117-1.0284 1.5641-1.0284 2.6773 0 .8755.2717 1.7423.969 2.4823.7313.7733 1.53 1.011 2.4824 1.011.2804 0 .6343-.035.9899-.187.3434-.1468.6894-.4028.9734-.8414v.7995h2.1416v-6.6302Zm-5.3544 3.3063c0-.3276.0821-.5932.1931-.8029.0909-.1704.2001-.3041.2997-.4037.2805-.2805.7051-.4762 1.1647-.4675.3906 0 .8668.1442 1.1892.4587.0594.056.1145.1171.1643.1827.0568.076.1066.1581.1494.2446.1171.2351.18.5059.18.7881 0 .5697-.2386.9865-.519 1.2495-.1398.1398-.3093.2543-.4981.3338-.1896.0804-.3984.125-.6151.125-.5103 0-.969-.2036-1.267-.5182-.187-.2123-.4412-.595-.4412-1.1901Zm6.6467-3.3063h2.1416v2.3033h2.3976v-2.3033h2.1416v6.6302h-2.1416v-2.6012h-2.3976v2.6012h-2.1416v-6.6302Zm10.106 0h-2.1416v6.6302h2.1416V25.39l2.2613 2.9411h2.7629l-3.0346-3.5528 2.8388-3.0774h-2.6606l-2.1678 2.6353v-2.6353ZM43.1624 5.66992c.8589 0 1.8113.11883 2.6012.8161.8501.73921.969 1.72569.969 2.40548 0 1.2495-.4762 1.9468-.8502 2.3373-.7899.7995-1.827.8755-2.5243.8755h-1.3937v3.4768h-2.2866V5.66992h3.4846Zm-1.2067 4.56458h.8161c.1214 0 .2761-.0026.4421-.0262.2665-.0376.561-.1285.7908-.34779.2036-.20447.3739-.55222.3739-.97775 0-.19048-.0305-.36611-.0856-.51989-.0646-.18174-.1642-.33465-.2883-.44912-.3408-.32242-.8336-.37397-1.2757-.37397h-.7733v2.69472Zm12.5036-1.28359h-2.1416v.74795c-.2936-.39931-.6562-.63872-1.0153-.7794-.3897-.15291-.7759-.18961-1.0678-.18961-.9174 0-1.7248.33116-2.3032.90959-.6117.61166-1.0284 1.56406-1.0284 2.67726 0 .5662.1135 1.1289.3827 1.6558.1468.2883.3399.5653.5863.8265.7313.7733 1.5299 1.011 2.4823 1.011.2796 0 .6309-.0341.9848-.1844.3451-.1468.6929-.4028.9786-.844v.7995h2.1416V8.95091Zm-5.3545 3.30629c0-.595.2718-.9856.4929-1.2066.2804-.2805.7138-.4762 1.1647-.4675.1153 0 .2377.0131.3617.0385.0725.0148.1451.034.2176.0585.2228.0751.4378.194.6099.3617.1643.1556.2918.3504.3757.5697.0358.0935.0638.1914.0839.2919.0087.0437.0157.0882.021.1337.0043.0358.0069.0725.0087.1092.0026.0367.0044.0734.0044.1109 0 .5697-.2386.9865-.5191 1.2495-.1467.1468-.3259.2657-.526.346-.0777.0315-.159.0568-.2429.0752l-.0926.0183-.0865.0105c-.0542.0061-.1092.0088-.1651.0088-.2228 0-.436-.0394-.6309-.1093-.2499-.09-.4683-.2315-.6361-.4089-.187-.2123-.4413-.595-.4413-1.1901Zm8.7884-3.30629v3.79129l2.8223-3.79129h1.9895v6.63019h-2.1425v-3.8507l-2.8222 3.8507h-1.9887V8.95091h2.1416Zm4.0298-2.67722c-.1791.53475-.5356.99435-.9524 1.26609-.561.37397-1.2495.41679-1.7423.41679-.4928 0-1.1735-.04282-1.7423-.41679-.0489-.03145-.097-.06466-.1442-.10135-.0533-.04107-.1057-.08563-.1564-.13369-.0541-.05155-.1066-.10573-.1572-.1634-.2124-.24465-.3862-.54348-.4946-.86765l1.4872-.57843c.0594.29708.2044.53562.3827.67979.1957.16165.4421.26388.8161.26388.0917 0 .1756-.00612.2534-.01748l.0445-.00699.0437-.00873.0586-.01486.0585-.01747c.1398-.04631.2551-.11447.3574-.19835.1782-.14417.3233-.38271.3827-.67979l1.5046.57843Zm5.5161 9.40961v3.2041h2.1591v-3.2041h.0847c1.5046 0 2.3373-.6213 2.7201-.9952.1966-.1931.3923-.4395.5548-.7462.028-.0525.055-.1066.0804-.1626l.0454-.1031c.0568-.1371.1066-.2839.1477-.4421.0507-.1931.0874-.4019.1075-.6282.0052-.0638.0096-.1285.0122-.1949.0026-.0594.0035-.1188.0035-.1791 0-.4299-.0647-.8082-.1704-1.1385-.0935-.2936-.2202-.5487-.3644-.7681-.034-.0524-.0699-.1031-.1066-.152l-.0314-.0411-.0542-.0672c-.1354-.16517-.2787-.3041-.4203-.41682-.6544-.51902-1.64-.7995-2.5155-.7995h-.1023V5.66992h-2.1416v3.17876h-.1022c-.8843 0-1.862.28048-2.5165.7995-.5522.44212-1.1472 1.27482-1.1472 2.58372 0 1.2067.4762 1.9974.9524 2.4562.3818.3739 1.2154.9952 2.7192.9952h.0856Zm-.4343-5.0635c.1748-.0384.3574-.0542.5365-.0454v3.3832c-.5443.0166-1.0546-.187-1.3351-.5015-.2551-.2639-.4334-.6973-.4334-1.2155 0-.5268.1783-.9524.4334-1.2075.1966-.2018.4849-.3443.7986-.4133Zm3.8088 2.845c-.2805.3058-.782.5181-1.3343.5015v-3.3832c.3443-.0236.6973.0533.9865.2062.1311.0699.2499.1547.3478.2525.1162.1162.2167.2692.2918.45.0891.2176.1416.4745.1416.7567 0 .519-.1783.9524-.4334 1.2163Zm6.9281 5.4226v-3.2041h-.0857c-.484 0-.8982-.0647-1.2512-.1643-.1931-.0542-.367-.1197-.5234-.1905-.4473-.2027-.7532-.4526-.9445-.6404-.0656-.0629-.1311-.132-.1949-.208-.0559-.0655-.1109-.1363-.1634-.2114-.1232-.1765-.2376-.3801-.332-.6126-.1057-.2595-.1861-.5548-.2289-.8886-.0131-.1005-.0227-.2053-.028-.3128-.0035-.0725-.0052-.1468-.0052-.2228 0-1.3089.595-2.1416 1.1472-2.58372.6545-.51902 1.6322-.7995 2.5165-.7995h.1022V5.66992h2.1416v3.17876h.1022c.2718 0 .554.02709.8336.07952.1416.02621.2822.05941.4212.09961.1223.03495.242.07514.3591.1197.3338.12845.6431.29621.9017.50067.5531.44212 1.1473 1.27482 1.1473 2.58372 0 .4806-.0752.893-.1958 1.246-.1083.3163-.2533.5845-.4132.8091-.1101.1538-.2264.2866-.3426.4011-.2446.2394-.6745.5801-1.3473.7942-.1791.0568-.3757.1049-.5898.1398-.2377.0393-.4981.0612-.7829.0612h-.0848v3.2041h-2.159Zm.1022-8.313c-.5015-.0254-1.0293.1441-1.3351.4587-.2552.2551-.4334.6807-.4334 1.2075 0 .5182.1782.9516.4334 1.2155.2805.3145.7907.5181 1.3351.5015v-3.3832Zm1.9371 3.3919c.5531.0166 1.0547-.1957 1.3352-.5015.1354-.1398.249-.3277.3259-.5505.0681-.1975.1074-.422.1074-.6658 0-.5181-.1782-.9515-.4333-1.2067-.3146-.3145-.8336-.4928-1.3352-.4587v3.3832Zm12.0528-5.01539h-2.1416v.74795c-.6125-.8327-1.5221-.96901-2.0831-.96901-.9174 0-1.7248.33116-2.3032.90959-.6117.61166-1.0285 1.56406-1.0285 2.67726 0 .5574.1101 1.1114.3696 1.6313.1486.2971.3461.5819.5995.851.7313.7733 1.5299 1.011 2.4823 1.011.5522 0 1.3849-.1355 1.9634-1.0284v.7995h2.1416V8.95091Zm-5.3545 3.30629c0-.2761.0586-.5076.1433-.699.0979-.2219.2307-.3888.3495-.5076.2805-.2805.7139-.4762 1.1648-.4675.3905 0 .8667.1442 1.1892.4587.3145.2971.4936.7392.4936 1.2154 0 .5697-.2385.9865-.519 1.2495-.2805.2805-.6798.4588-1.1132.4588-.5102 0-.969-.2036-1.2669-.5182-.09-.1022-.1957-.2446-.2814-.4308-.0917-.2-.1599-.4517-.1599-.7593Zm8.7884-3.30629v3.79129l2.8222-3.79129h1.9901v6.63019h-2.143v-3.8507l-2.8222 3.8507h-1.9887V8.95091h2.1416Zm4.0298-2.67722c-.083.24815-.2045.4797-.3521.68416-.1031.1433-.2194.27262-.3452.38533-.0812.0734-.1669.13893-.2551.1966-.1424.09437-.2927.16777-.4465.22543-.1765.06554-.3565.10922-.533.13806-.2744.04456-.5391.0533-.7628.0533-.4928 0-1.1735-.04282-1.7423-.41679-.4168-.26388-.7742-.73134-.9524-1.26609l1.4871-.57843c.0595.29708.2045.53562.3828.67979.0978.08039.2079.14592.3407.19136.1328.04631.2884.07252.4754.07252.3739 0 .6203-.10223.8161-.26388.0908-.07339.173-.17126.2402-.28922.0638-.11358.1136-.24465.1425-.39057l1.5046.57843Zm2.9575 2.69383c-.357.1363-.816.37397-1.096.55309l.832 1.43649c.214-.1791.435-.3146.715-.4334.281-.1197.535-.1791.876-.1791.356 0 .568.0769.671.1197.153.069.238.1642.282.2551.03.0656.041.1285.041.1783 0 .1275-.06.3224-.315.4412-.069.0323-.16.0559-.259.0734-.192.035-.411.0463-.54.0463h-.612v1.4531h.799c.238 0 .595.0428.774.1188.084.0367.154.083.206.1416.069.0769.109.1747.109.3006 0 .0969-.02.2236-.108.3399-.044.0576-.106.1135-.19.1616-.213.1188-.536.1616-.774.1616-.225 0-.472-.0358-.693-.0926-.122-.0314-.235-.069-.335-.1109-.264-.1197-.579-.3321-.816-.5357l-.91 1.4112c.084.0673.222.1756.406.2944.085.0551.18.1127.283.1695.15.0822.319.1626.501.2325.595.221 1.216.2979 1.811.2979 1.105 0 1.878-.1616 2.439-.7139.22-.221.366-.4569.456-.6955.087-.2306.122-.4648.122-.6902 0-.0586-.002-.1163-.007-.1722-.004-.0358-.007-.0716-.012-.1066l-.013-.0734c-.054-.2761-.18-.5207-.409-.7444-.094-.0935-.401-.3574-.893-.4762.05-.0184.1-.0411.149-.0664.041-.021.08-.0446.12-.0699l.05-.0341c.035-.0245.069-.0507.103-.0778.049-.0393.095-.0821.139-.1258.323-.3399.399-.7139.399-1.1306 0-.1267-.01-.2517-.032-.3731-.013-.0665-.029-.132-.05-.1966-.074-.22984-.203-.44654-.411-.64576-.671-.65445-1.886-.67979-2.244-.67979-.51 0-1.062.05942-1.564.23767ZM114.682 12.64h-4.947c0 .1232.016.2612.049.401.061.2639.179.5348.351.7287.085.0944.179.1687.278.2255.069.0402.14.0725.212.0978.212.076.428.0935.606.0935.118 0 .238-.0087.353-.0262.19-.0297.367-.0847.505-.1695.026-.0166.281-.1782.459-.5522l2.024.2044c-.298.935-.893 1.4278-1.276 1.6654-.637.3827-1.351.4928-2.099.4928-.995 0-1.87-.1782-2.644-.9515-.577-.5784-.994-1.4539-.994-2.5584 0-.9524.34-1.9293 1.012-2.61778.397-.39844.846-.6361 1.288-.77416.444-.1398.881-.17825 1.253-.17825.74 0 1.81.13631 2.635.99435.791.83354.935 1.86984.935 2.69474v.2298Zm-1.972-1.2757c-.017-.0595-.119-.4754-.434-.7733-.087-.0813-.188-.1529-.303-.2115-.074-.0384-.154-.0708-.239-.0961-.142-.0428-.298-.0664-.469-.0664-.185 0-.343.0245-.48.0647-.275.0812-.467.2271-.608.3687-.162.1791-.315.4168-.374.7139h2.907Zm5.083-2.41339h-2.142v6.63019h2.142v-2.6012h2.397v2.6012h2.142V8.95091h-2.142v2.30329h-2.397V8.95091Z"/>
</svg>