<svg xmlns="http://www.w3.org/2000/svg" viewBox="0 0 160 28">
	<path fill="#fff" d="m0 16.9 4-4.6h5.4l.5 1.5-.5 1.5H5.3l-5.3 6v6.3h27.6v-16l-4.1 3.6h-5l3.1-1.5-3.1-1.5h4l5.1-4.6V0H0v16.9Zm16.5-4.6 3.1 1.5-3.1 1.5-7.2 3.4 1-3.4.5-1.5-.5-1.5-.9-3v-.5c-.1 0 7 3.4 7 3.4ZM45.8 8.2c-1-.9-2.1-1.4-3.5-1.4h-6.6v14.4h2.4v-4.9h4.1c1.4 0 2.6-.5 3.5-1.4 1-.9 1.4-2 1.4-3.3s-.5-2.5-1.4-3.4ZM44 13.3c-.5.5-1.1.7-1.8.7h-4.1V9h4.1c.7 0 1.3.2 1.8.7.2.2.4.5.5.8 0 .2.1.4.1.6v.4c0 .7-.2 1.4-.7 1.8ZM52.5 10.7c-1.6 0-2.9.5-4 1.5s-1.6 2.3-1.6 3.8.6 2.8 1.6 3.8c1.1 1 2.4 1.5 4 1.5s2.9-.5 4-1.5 1.6-2.3 1.6-3.8-.6-2.8-1.6-3.8c-1.1-1-2.4-1.5-4-1.5Zm2.4 7.7c-.6.6-1.4.9-2.4.9s-1.8-.3-2.4-.9c-.6-.6-1-1.4-1-2.3s.3-1.7 1-2.3c.6-.6 1.4-.9 2.4-.9s1.7.3 2.4.9c.6.6 1 1.4 1 2.3s-.3 1.7-1 2.3ZM66.7 18.9c-.5.3-1.1.5-1.7.5s-.7 0-1-.1c-.5-.1-1-.4-1.3-.8-.6-.6-1-1.4-1-2.3s.3-1.7 1-2.3c.6-.6 1.4-.9 2.4-.9h.9c.3 0 .6.2.8.3.5.3.8.7 1.1 1.1l2-1.1c-.5-.8-1.1-1.4-1.9-1.9-.3-.2-.7-.3-1.1-.5l-1.2-.3h-.6c-1.6 0-2.9.5-4 1.5s-1.6 2.3-1.6 3.8.6 2.8 1.6 3.8c1.1 1 2.4 1.5 4 1.5s2-.2 2.8-.7c.8-.5 1.5-1.1 2-1.9l-2-1.1c-.2.5-.6.9-1.1 1.2ZM83.6 6.8H73.3V14c0 2.2-.5 3.8-1.3 4.9h-1.4v5H73v-2.8h9.7v2.8h2.4v-5h-1.6V6.8Zm-2.5 12.1h-6.4c.7-1.1 1.1-2.8 1.1-4.9V9h5.4v9.9ZM91.6 10.7c-1.6 0-2.9.5-4 1.5S86 14.5 86 16s.6 2.8 1.6 3.8c1.1 1 2.4 1.5 4 1.5s2.9-.5 4-1.5 1.6-2.3 1.6-3.8-.6-2.8-1.6-3.8c-1.1-1-2.4-1.5-4-1.5Zm2.4 7.7c-.6.6-1.4.9-2.4.9s-.7 0-1-.1c-.5-.1-1-.4-1.4-.8-.6-.6-1-1.4-1-2.3s.3-1.7 1-2.3c.6-.6 1.4-.9 2.4-.9s1.7.3 2.4.9c.7.6 1 1.4 1 2.3s-.3 1.7-1 2.3ZM105.1 10.7c-1.6 0-2.9.6-3.7 1.8V11h-2.3v14.3h2.3v-5.5c.8 1.1 2.1 1.7 3.7 1.7s2.7-.5 3.7-1.5 1.5-2.3 1.5-3.8-.5-2.8-1.5-3.8c-1-1.1-2.3-1.5-3.7-1.5Zm2 7.7c-.3.3-.7.6-1.2.8-.4.1-.8.2-1.2.2s-.7 0-1.1-.2c-.1 0-.2 0-.4-.1-.1 0-.2-.1-.3-.2-.1 0-.3-.2-.4-.3 0 0-.2-.1-.2-.2-.6-.6-1-1.4-1-2.3s.3-1.8 1-2.4c.6-.6 1.5-1 2.4-1s1.8.3 2.4 1l.3.3c.2.2.3.4.4.7.2.4.3.9.3 1.4 0 .9-.3 1.7-1 2.3ZM119 12.4h-4.2V9.1h7.7V6.8h-10.2v14.4h6.7c1.4 0 2.5-.4 3.4-1.2.9-.8 1.4-1.9 1.4-3.2s-.5-2.3-1.4-3.2c-.9-.8-2-1.2-3.4-1.2Zm1.7 6c-.5.4-1 .6-1.7.6h-4.2v-4.4h4.2c.7 0 1.2.2 1.7.6.5.4.7.9.7 1.6s-.2 1.2-.7 1.6ZM133.9 12.4c-.8-1.1-2.1-1.7-3.7-1.7s-2.7.5-3.7 1.5-1.5 2.3-1.5 3.8.5 2.8 1.5 3.8 2.3 1.6 3.7 1.6 2.9-.6 3.7-1.8v1.5h2.3V10.9h-2.3v1.4Zm-.9 6c-.6.6-1.5 1-2.4 1s-1.8-.3-2.4-1c-.6-.6-1-1.4-1-2.3s.1-1.1.4-1.6c.2-.3.3-.5.6-.8.6-.6 1.5-1 2.4-1h.7c.2 0 .3 0 .4.1.5.2.9.4 1.3.8.3.3.5.6.7 1 .2.4.3.9.3 1.4 0 .9-.3 1.7-1 2.3ZM145.9 15h-5v-4.1h-2.3v10.3h2.3v-4.1h5v4.1h2.2V11h-2.2v4zM155.1 15.9l4.7-4.9H157l-4.1 4.5V11h-2.3v10.2h2.3v-4.7l4.3 4.7h2.8l-4.9-5.3z"/>
</svg>