<svg xmlns="http://www.w3.org/2000/svg" viewBox="0 0 140 34">
	<path fill="#fff" d="M0 33.6991V0h33.6991v33.6991H0Zm5.61652-5.6165H28.1652V5.61652H5.61652V28.0826ZM102.501.49493v9.82887l5.7-9.82887h3.634V14.7014h-3.221V5.2029l-5.617 9.4985h-3.7168V.49493h3.2208Zm-29.4862 0h5.0383l4.4602 14.20647h-3.4691l-1.0737-3.7168h-4.9557l-1.0738 3.7168h-3.3864L73.0148.49493Zm2.3126 2.97345-1.4041 4.54277h3.1387l-1.4042-4.54277h-.3304Zm52.9436 0V.49493H140l-1.735 2.97345h-2.808V14.7014h-3.304V3.46838h-3.882ZM41.7935.49493h7.0207c3.3038 0 5.4513 2.23009 5.4513 4.95575 0 2.89086-1.8997 4.79052-5.3687 4.79052h-2.8083v4.4602h-3.3038V3.46838h-2.6431L41.7935.49493Zm4.2124 6.85546h2.6431c1.8997 0 2.3127-1.15634 2.3127-1.9823s-.4956-1.89971-2.3127-1.89971h-2.6431v3.88201Zm78.5491-2.39528c-.826-1.07375-2.065-1.65192-3.552-1.65192-2.065 0-4.047 1.65192-3.965 4.46018 0 2.64303 1.735 4.29503 4.048 4.29503 1.899 0 2.89-.6608 3.551-1.5694.083-.0826 2.808 1.4042 2.808 1.4042-.495.8259-1.321 1.7345-2.147 2.23-1.156.6608-2.726 1.0738-4.13 1.0738-4.13 0-7.351-3.1386-7.351-7.51623 0-4.12979 3.469-7.516224 7.599-7.516224 3.469 0 5.203 2.147494 5.947 3.386434l-2.808 1.40413ZM83.8348 11.6454c1.3215 0 1.8171-.9912 1.8171-2.31271l.0826-8.83776h10.4897V14.7014h-3.3038V3.46838h-3.9646v6.0295c0 3.63422-1.5694 5.20352-3.9646 5.20352h-.413l-.9912-3.056h.2478ZM65.0029 9.0023h-5.6991l.0826 2.7257h8.177l-.9085 2.9734H56V.49493h10.9027v2.97345h-7.5989v2.64307h5.6991V9.0023ZM59.469 19.492h4.9558l4.5428 14.2065h-3.4691l-1.0737-3.7168H59.469l-1.0737 3.7168h-3.3864L59.469 19.492Zm2.2301 2.9734-1.4041 4.5428h3.1386l-1.4041-4.5428h-.3304Zm-15.6932 1.6519h2.8083c3.469 0 5.5339 1.8172 5.3687 4.708 0 2.5605-2.1475 4.8732-5.4513 4.8732h-6.0295V22.4654H40.059l1.6519-2.9734h11.5634v2.9734h-7.2684v1.6519Zm0 6.7729h2.6431c1.8997 0 2.3127-1.3215 2.3127-2.0649 0-.7433-.4956-1.8997-2.3127-1.8997h-2.6431v3.9646Zm28-6.0295h5.6165V19.492h3.3039v14.1239h-3.3039v-5.7817h-5.6165v5.7817h-3.2212V19.492h3.2212v5.3687Zm24.2006-5.3687-3.7168 6.938 4.295 7.1859h-3.6343l-3.3038-5.7817h-2.5605v5.7817h-3.3038V19.492h3.3038v5.3687h2.5605l3.1387-5.3687h3.2212Zm-74.4189-9.3321h-11.233l-2.6431 4.4602h11.233l2.6431-4.4602Zm-11.233 9.0017h11.233l-2.6431 4.4602H9.9115l2.6431-4.4602Z"/>
</svg>