<svg xmlns="http://www.w3.org/2000/svg" viewBox="0 0 140 32">
	<path fill="#fff" d="M32.0251 3.61536h6.475c1.434-.00963 2.8144.54442 3.8438 1.5428 1.0295.99837 1.6256 2.3611 1.66 3.7947-.0139 1.44814-.6007 2.83194-1.6321 3.84854s-2.4234 1.5835-3.8717 1.5765h-4.025v4.3749h-2.45V3.61536Zm6.2388 8.46124c.4224.0176.8439-.05 1.2397-.1987.3957-.1488.7574-.3756 1.0636-.6671.3061-.2915.5505-.6416.7185-1.0295.1681-.38792.2563-.80573.2594-1.22844.0031-.42455-.0809-.84517-.2468-1.23603-.1658-.39077-.41-.74349-.7176-1.03617-.3075-.29278-.6717-.51932-1.0702-.66579-.3985-.14648-.8228-.20965-1.2466-.18576h-3.78v6.23879l3.78.0087Zm6.4837 1.1463c-.0354-.7577.0864-1.5145.3577-2.2227.2714-.7083.6865-1.35277 1.2191-1.89273.5326-.54005 1.1712-.9639 1.8756-1.24504.7045-.28105 1.4595-.41335 2.2176-.38832 3.5 0 5.25 2.95749 5.25 5.91499v.5775h-8.4175c.3325 1.89 1.9688 2.9575 4.1913 2.9575 1.2344-.0082 2.4437-.3498 3.5-.9887v2.0562c-1.2048.7503-2.6068 1.1222-4.025 1.0675-3.4563-.0088-6.1688-2.3012-6.1688-5.8362Zm8.4613-1.1463c-.0099-.3628-.0928-.7199-.2436-1.0501-.1508-.3301-.3666-.6265-.6344-.8714-.2678-.24499-.5822-.43347-.9244-.55439-.3423-.12084-.7054-.17159-1.0676-.14911-.7494-.04838-1.4876.19977-2.0556.6908-.568.4912-.9203 1.1858-.9807 1.9342h5.9063Zm4.5937-4.35749h2.4675v4.26999h5.5825V7.71911h2.4675V18.7266h-2.4675v-4.6025h-5.5825v4.6025h-2.4675V7.71911Zm12.565 5.50379c-.0359-.7577.0867-1.5145.3579-2.2227.2713-.7083.686-1.35277 1.2189-1.89273.5328-.54005 1.1716-.9639 1.876-1.24504.7043-.28105 1.4595-.41335 2.2172-.38832 3.5 0 5.25 2.95749 5.25 5.91499v.5775h-8.4612c.3325 1.89 1.9687 2.9575 4.1912 2.9575 1.2346-.0082 2.4439-.3498 3.5-.9887v2.0562c-1.2049.7503-2.6066 1.1222-4.025 1.0675-3.4125-.0088-6.125-2.3012-6.125-5.8362Zm8.4613-1.1463c-.0097-.3628-.0928-.7199-.2433-1.0501-.1514-.3301-.3666-.6265-.6344-.8714-.2677-.24499-.5827-.43347-.9248-.55439-.3422-.12084-.7053-.17159-1.0675-.14911-.749-.04838-1.4875.19977-2.0554.6908-.5679.4912-.9205 1.1858-.9809 1.9342h5.9063Zm3.8587 1.1463c-.0044-.7771.1496-1.547.4524-2.2626.3027-.7157.7481-1.36213 1.309-1.90008.5609-.53786 1.225-.95594 1.953-1.22868.7271-.27265 1.5032-.39427 2.2794-.35743 1.1375-.02844 2.2645.224 3.2812.735v2.05629c-.9109-.48305-1.9267-.7354-2.9575-.73505-.504-.02721-1.008.04787-1.4814.22068-.4742.17281-.9082.43977-1.2757.78477-.3684.345-.6624.761-.8654 1.2228-.203.4618-.3097.9599-.315 1.4643-.0009.5061.1015 1.0073.3028 1.472.2003.4648.4943.8833.8636 1.2295.3692.3463.8059.613 1.2827.7835.4769.1704.9835.2411 1.4884.2075 1.0999.0422 2.1875-.2441 3.1238-.8225v2.0562c-1.071.5905-2.2768.8922-3.5.875-.7744.0235-1.5462-.1094-2.2689-.3908-.7219-.2815-1.3799-.7056-1.9346-1.2471-.5548-.5415-.994-1.1893-1.2933-1.9047-.2984-.7153-.4497-1.4835-.4445-2.2586Zm10.675 0c-.0044-.7771.1496-1.547.4524-2.2626.3027-.7157.7481-1.36213 1.309-1.90008.5609-.53786 1.225-.95594 1.953-1.22868.7271-.27265 1.5032-.39427 2.2794-.35743 1.1376-.02844 2.2646.224 3.2816.735v2.05629c-.911-.48305-1.927-.7354-2.9579-.73505-.504-.02721-1.008.04787-1.4814.22068-.4742.17281-.9082.43977-1.2757.78477-.3684.345-.6624.761-.8654 1.2228-.203.4618-.3097.9599-.315 1.4643-.0009.5061.1015 1.0073.3028 1.472.2003.4648.4943.8833.8636 1.2295.3692.3463.8059.613 1.2827.7835.4769.1704.9835.2411 1.4884.2075 1.0999.0422 2.1879-.2441 3.1239-.8225v2.0562c-1.071.5905-2.277.8922-3.5001.875-.7727.0163-1.5418-.1216-2.2602-.4056-.7192-.2841-1.3746-.7085-1.9276-1.2486-.553-.5401-.9931-1.185-1.2941-1.8971-.301-.712-.4576-1.4769-.4594-2.2499Zm22.9074 3.4475v1.8024c-.424.2446-.911.3601-1.4.3326-.503.0405-1.005-.0917-1.424-.3748-.419-.2832-.728-.7003-.877-1.1827-.505.5648-1.126 1.0136-1.821 1.3158-.695.302-1.446.4502-2.204.4341-2.301 0-4.104-1.3124-4.104-3.6924s1.803-3.2025 4.191-3.2025h3.78v-.1663c0-1.89-1.557-2.37999-3.202-2.37999-1.215.0301-2.402.37047-3.448.98879V8.38411c1.25-.6167 2.632-.91718 4.025-.875 2.958 0 5.093 1.39999 5.093 4.19129v4.1037c-.015.1278-.004.2573.033.3808.037.1234.097.2383.179.3378.081.0995.182.1817.296.2416.114.06.238.0965.367.1073.188-.016.367-.0859.516-.2012Zm-4.025-2.7125h-2.87c-1.557 0-2.625.3325-2.625 1.4 0 1.2337 1.068 1.6449 2.38 1.6449.582 0 1.158-.1161 1.694-.3415.536-.2254 1.023-.5555 1.43-.9709l-.009-1.7325Zm5.749-6.23879h2.467v4.26999H126V7.71911h2.468V18.7266H126v-4.6025h-5.582v4.6025h-2.468l.044-11.00749Zm12.565 5.50379c-.005-.7771.149-1.547.452-2.2626.303-.7157.748-1.36213 1.309-1.90008.561-.53786 1.225-.95594 1.953-1.22868.727-.27265 1.503-.39427 2.28-.35743 1.137-.02844 2.264.224 3.281.735v2.05629c-.911-.48305-1.927-.7354-2.958-.73505-.504-.02721-1.008.04787-1.481.22068-.474.17281-.908.43977-1.276.78477s-.662.761-.865 1.2228c-.203.4618-.31.9599-.315 1.4643-.001.5061.101 1.0073.303 1.472.2.4648.494.8833.863 1.2295.369.3463.806.613 1.283.7835.477.1704.983.2411 1.488.2075 1.1.0422 2.188-.2441 3.124-.8225v2.0562c-1.071.5905-2.277.8922-3.5.875-.774.0235-1.546-.1094-2.269-.3908-.722-.2815-1.38-.7056-1.934-1.2471-.555-.5415-.994-1.1893-1.294-1.9047-.298-.7153-.449-1.4835-.444-2.2586ZM32.0251 24.6416h1.1463v2.135l1.9687-2.135h1.4l-2.3012 2.4675 2.7125 2.9575h-1.4l-2.3013-2.4763v2.4675h-1.225v-5.4162Zm6.405 0h2.38c.238-.0389.4815-.0257.7137.0388.2323.0644.4477.1787.6315.3348.1837.156.3313.3502.4325.569.1012.2188.1536.457.1536.698 0 .2411-.0524.4793-.1536.698-.1012.2188-.2488.413-.4325.5691-.1838.156-.3992.2703-.6315.3348-.2322.0645-.4757.0777-.7137.0387h-1.2337v2.135h-1.1463v-5.4162Zm2.3013 2.3012c.49 0 .8225-.245.8225-.6562 0-.4113-.3325-.6563-.8225-.6563h-1.155v1.3125h1.155Zm3.605-2.3012h3.9375v.98h-2.87v1.0675h2.3012v.9887h-2.3012v1.4h3.0362v.9888h-4.1037v-5.425Zm5.5912 4.4275h.49c.5878-1.0676.8436-2.2862.735-3.5v-.8225h3.78v4.4362h.735v2.135h-1.0675v-1.0937h-3.6925v1.0675h-1.0325v-2.2225h.0525Zm3.9375 0v-3.4475h-1.5575c.0493 1.1768-.1474 2.3509-.5775 3.4475h2.135Zm3.535-4.4275h1.1463v3.5l2.625-3.5h.9537v5.4162h-1.0325v-3.5l-2.7912 3.5h-.875l-.0263-5.4162Zm10.85 0v.98h-1.75v4.4362h-1.1375v-4.4362h-1.75v-.98h4.6375Z"/>
	<path fill="url(#a)" d="M3.5 24.64H0V9.44124c.013825-2.49969 1.0129-4.89317 2.78049-6.66075C4.54807 1.01291 6.94155.0137812 9.44125 0H21.105v9.36249c0 2.50401-.9947 4.90541-2.7653 6.67601-1.7705 1.7705-4.172 2.7652-6.676 2.7652H5.74875l1.3125-3.5h4.51495c.7807.0047 1.5546-.1459 2.2765-.4431.722-.2971 1.3776-.7348 1.9289-1.2877.5512-.5528.987-1.2098 1.282-1.9326.295-.7228.4434-1.4971.4364-2.27781V3.535H9.36249c-.77769-.0035-1.54848.14717-2.26764.44319-.71925.29601-1.3727.73158-1.92264 1.28152-.54994.54994-.98551 1.20339-1.28152 1.92264C3.59467 7.90151 3.444 8.67221 3.4475 9.45v15.19H3.5Z"/>
  	<radialGradient id="a" cx="0" cy="0" r="1" gradientTransform="translate(.708749 23.6425) scale(20.4312)" gradientUnits="userSpaceOnUse">
  		<stop stop-color="#D6005E"/>
  		<stop offset="1" stop-color="#E3448A"/>
  	</radialGradient>
</svg>