<svg xmlns="http://www.w3.org/2000/svg" viewBox="0 0 110 34">
	<path fill="#fff" d="m30.905 21.659-.241-1.906c-.285-3.203-1.458-6.262-3.388-8.834-1.686-2.09503-3.905-3.69603-6.425-4.63603V.792969l-1.869.204c-3.213.286001-6.281 1.467001-8.856 3.410001-2.094 1.685-3.698 3.901-4.643 6.41803H0l.226 1.906C.515 15.939 1.702 19 3.65 21.565c1.684 2.098 3.904 3.703 6.425 4.643v5.49l1.898-.226c3.202-.287 6.261-1.46 8.834-3.388 2.098-1.684 3.703-3.904 4.643-6.425h5.455Zm-12.236 3.746c-1.541 1.174-3.328 1.983-5.227 2.366V16.476H10.04v6.009c-1.456-.722-2.737-1.754-3.753-3.023-1.169-1.543-1.975-3.33-2.358-5.227H15.23v-3.41H9.214c.722-1.45403 1.754-2.73303 3.023-3.74503 1.539-1.171 3.324-1.977 5.22-2.358V16.163h3.41V9.99997c1.454.72303 2.732 1.75403 3.745 3.02303 1.172 1.541 1.979 3.329 2.358 5.227H15.777v3.41h5.914c-.722 1.453-1.754 2.732-3.022 3.745ZM52.018 4.24752c-.752-1.14-1.825-2.032-3.082-2.565-1.485-.622-3.084-.925001-4.693-.889001h-7.221V21.4955h4.066v-5.881h3.126c1.617.037 3.224-.269 4.715-.896 1.262-.532 2.338-1.428 3.09-2.572.728-1.184 1.1-2.55298 1.071-3.94198.032-1.395-.34-2.769-1.072-3.957Zm-3.061 3.957c.061 1.097-.395 2.15898-1.232 2.87098-1.063.744-2.349 1.102-3.644 1.013h-2.995V4.31352h2.988c1.295-.089 2.58.269 3.644 1.013.85.721 1.307 1.803 1.232 2.915l.007-.037Zm20.411 9.80098v3.49h-14.29V.793519H68.96V4.28352h-9.779v4.984h8.526v3.43298h-8.526v5.305h10.187Zm18.159 1.858c-.584.41-1.209.757-1.865 1.035-1.474.604-3.056.907-4.649.889-1.978.027-3.931-.447-5.677-1.377-1.643-.88-3.014-2.193-3.964-3.797-.971-1.659-1.474-3.55-1.457-5.473-.024-1.92098.48-3.81098 1.457-5.46498.954-1.603 2.327-2.916 3.971-3.797C77.095.943519 79.056.469519 81.041.501519c1.589-.018 3.165.285 4.635.889001.607.257 1.188.571 1.734.94l-2.405 2.864c-1.136-.71-2.45-1.079-3.789-1.064-1.271-.015-2.524.294-3.644.896-1.058.58-1.933 1.443-2.529 2.492-.625 1.111-.939 2.369-.911 3.64398-.029 1.274.286 2.533.911 3.644.59 1.025 1.446 1.871 2.478 2.448 1.12.599 2.373.908 3.644.896 1.463.03 2.897-.406 4.095-1.246l2.267 2.959Zm20.601-14.18798c-.958-1.608-2.339-2.921-3.993-3.797-3.574-1.8370008-7.815-1.8370008-11.39 0-1.655.878-3.035 2.198-3.986 3.812-.976 1.649-1.48 3.535-1.457 5.45098-.024 1.918.481 3.807 1.457 5.458.951 1.614 2.331 2.934 3.986 3.811 3.574 1.837 7.815 1.837 11.39 0 1.654-.875 3.036-2.189 3.993-3.797.977-1.657 1.481-3.549 1.457-5.473.024-1.91998-.48-3.81098-1.457-5.46498Zm-2.682 5.46598c.015 1.251-.297 2.484-.904 3.578-.585 1.05-1.451 1.918-2.499 2.507-2.246 1.194-4.939 1.194-7.185 0-1.05-.59-1.917-1.457-2.507-2.507-.614-1.102-.928-2.346-.911-3.607-.016-1.26098.298-2.50498.911-3.60698.593-1.046 1.459-1.91 2.507-2.499 2.246-1.194 4.939-1.194 7.185 0 1.046.589 1.911 1.453 2.499 2.499.613 1.102.927 2.346.911 3.60698M39.052 29.9034h-.61v1.816h-1.338v-4.758h1.338v1.853h.647l1.133-1.853h1.419l-1.471 2.302 1.471 2.456h-1.508l-1.081-1.816Zm8.089-2.743c.625.257 1.022.877.993 1.552.023.669-.373 1.282-.993 1.537-.356.148-.739.221-1.125.213h-.831v1.258h-1.346v-4.759h2.206c.375-.007.747.06 1.096.199Zm-.581 2.059c.146-.127.224-.314.213-.507.01-.197-.068-.389-.213-.522-.18-.133-.402-.198-.625-.184H45.2v1.397h.735c.222.023.445-.038.625-.169v-.015Zm7.567 1.464v1.037H50.31v-4.759h3.728v1.044h-2.397v.802h2.111v1.007h-2.111v.868h2.486v.001Zm7.801-.03v2.03H60.7v-.963h-3.045v.963h-1.243v-2.03h.169c.287 0 .485-.199.596-.574.14-.538.212-1.091.213-1.647l.059-1.471h3.839v3.677l.64.015Zm-3.479-.816c-.041.289-.141.567-.294.816h1.802v-2.625h-1.368v.522c-.017.432-.064.862-.14 1.287Zm5.934-2.876h1.324v2.794l1.964-2.794h1.272v4.758h-1.331v-2.787l-1.956 2.787h-1.272v-4.758h-.001Zm11.231 1.067h-1.471v3.677H72.82v-3.677h-1.471v-1.067h4.243l.022 1.067Zm6.636-1.067h3.978v1.044h-2.655v.735h1.235c.47-.029.936.1 1.324.368.315.255.487.647.463 1.052.021.438-.174.858-.522 1.125-.429.301-.949.444-1.471.404h-2.375l.023-4.728Zm2.288 3.795c.184.012.366-.034.522-.132.118-.094.184-.239.176-.39 0-.338-.235-.507-.735-.507h-.963v1.03h1v-.001Zm7.71.081h-2.015l-.375.919h-1.375l2.103-4.758h1.331l2.103 4.758h-1.397l-.375-.919Zm-.397-.993-.61-1.53-.61 1.53h1.22Zm8.992-2.883v4.758h-1.346v-1.853h-1.838v1.853h-1.346v-4.758h1.346v1.787h1.838v-1.787h1.346Zm4.748 2.942h-.61v1.816h-1.346v-4.758h1.346v1.853h.647l1.132-1.853h1.412l-1.471 2.302 1.471 2.456h-1.515l-1.066-1.816Z"/>
</svg>