<svg xmlns="http://www.w3.org/2000/svg" viewBox="0 0 150 22">
	<g fill="#fff">
		<path d="m150 21.175-3.8-4.7h-9.7c-3.4-.2-7-2.6-6.5-7.6s6.9-5.3 7-5.2l-2.7-3.6c0-.1-.1-.1-.2 0h-.9c-1.1 0-9 .8-8.4 10.2.6 9.4 9.7 10.8 9.7 10.8l15.5.1ZM57.6 6.265l-5.9-5.9-3.2 3.2 17.9 17.8h6.3l-9.8-9.8v-1.8h7.7v9.4l2.1 2h3.2v-21h-5.3v4.4H63v-4.4h-5.4v6.1ZM16 .365H0v21.2h5.4v-5.6h11.8s5.8-.5 6-7.2c.1-8-6.6-8.4-7.2-8.4Zm-1.3 10.21H5.4v-4.7h9.5c.3 0 .7 0 1 .1.3.1.6.2.9.4.3.2.5.5.6.8.1.3.2.6.2.9.3 2.7-2.9 2.5-2.9 2.5ZM118.4.165l-16.5 16.1-7.9-7.6 8.9-8.6h-7l-12.4 12v-12H78v21.1h3.2l8.8-8.6 9 8.6h4.7l5.4-5.2h8.4v5.2h5.4v-21h-4.5Zm-.9 11.31h-3.8l3.8-3.6v3.6Zm-92.3-2.2h5.2v5.3h-5.2v-5.3Zm5.3-9.01 17.3 17.3 3.1-3.2L36.8.265h-6.3Zm-7.4 0 21 21 3.1-3.2L29.4.265h-6.3Zm42.1 21.11L47.9 4.065l-3.1 3.2 14.1 14.1h6.3v.01Z"/>
		<path d="M24 .765625h5.2l6.7 6.499995h-5.2C27 3.66563 24 .765625 24 .765625ZM50.1 7.06563h-4.5l2.3-2.20001 2.2 2.20001ZM31.6.765625h5l6.6 6.400005h-5.1C34.7 3.76562 31.6.765625 31.6.765625ZM57.9 7.16563 51.7.965625 49.1 3.56562l3.6 3.7h5.2v-.09999Z"/>
	</g>
	<path fill="#D52B1E" d="M71.3999 20.8648h-5l-6.4-6.4h5c3.5 3.4 6.3 6.2 6.4 6.4Zm-25.8-6.3 2.2 2.2 2.2-2.2h-4.4Zm18.3 6.3c-.2-.3-3.1-3.1-6.4-6.4h-4.9l6.4 6.4h4.9Zm-20.9-6.3h-5.1l6.2 6.2 2.5-2.5-3.6-3.7Z"/>
	<path fill="#0039A6" d="M37.91 14.5656H43l-7.1-7.29998h-5.2l7.2 7.29998h.01ZM45.6101 14.5641h4.39l.26-.28-7.06-7.12004h-5.1l7.5 7.40004h.01ZM52.6001 14.4645H57.5001l-7.39-7.40005h-4.51l-.26.23 7.26 7.17005ZM52.7 7.26562 60 14.4656H65l-7-7.19998h-5.3Z"/>
</svg>