<svg xmlns="http://www.w3.org/2000/svg" viewBox="0 0 91 32">
	<path fill="#fff" d="M89.7748 27.3809H0v4.6193h89.7748v-4.6193ZM81.8527 5.91361v6.35979h.5575l4.7535-6.35979h2.7894l-5.4892 6.64989c2.0299.2455 3.2573 1.8299 4.2398 4.4631.3345.9596.7805 2.3877 1.3609 3.5705h-2.4321c-.3354-.6472-.7814-1.7852-1.1826-3.0126-.871-2.3654-2.0308-3.4588-4.1731-3.4588h-.4469v6.4491h-2.2758V5.91361h2.2986ZM59.7826 20.597l-.1782-1.8521h-.0896c-.7138 1.1603-2.0528 2.1869-3.8605 2.1869-2.5436 0-3.8606-2.0976-3.8606-4.2176 0-3.5482 2.7007-5.4896 7.5876-5.4673v-.3124c0-1.20504-.2906-3.39195-2.857-3.39195-1.1826 0-2.3872.42407-3.2801 1.09346l-.5128-1.76284c1.0483-.78106 2.5436-1.29434 4.1503-1.29434 3.8605 0 4.7982 3.05718 4.7982 6.00287v5.4895c0 1.272.0439 2.5216.2002 3.5258h-2.0975Zm-.3565-7.4979c-2.4996-.067-5.3338.4463-5.3338 3.3027 0 1.7182.9816 2.5439 2.1643 2.5439 1.6515 0 2.6778-1.205 3.0571-2.4546.0676-.2678.1344-.5803.1344-.8481v-2.5439h-.022ZM48.4907.15625v2.20921h-7.5869v5.48957c.5579-.08929 1.5844-.15619 2.1646-.15619 1.6736 0 3.3028.42398 4.5303 1.36124 1.3389 1.00412 2.2309 2.61092 2.2309 4.99862 0 1.9191-.5575 3.3696-1.4504 4.4184-1.4276 1.629-3.7934 2.2762-6.2035 2.2762-1.5843 0-2.7893-.1116-3.548-.2455V.15625h9.863ZM40.9038 18.5664c.5133.1116 1.1157.1562 1.8968.1562 1.4059 0 2.834-.5133 3.7041-1.5845.6032-.7363.9596-1.7182.9596-3.0124 0-1.5845-.5803-2.6333-1.4276-3.3474-.9157-.7364-2.0757-1.02645-3.3254-1.02645-.5132 0-1.2273.0669-1.8075.11159v8.70296ZM67.5704 5.91361v5.91359h5.9809V5.91361h2.2757V20.5971h-2.2757v-6.65h-5.9809v6.65h-2.2758V5.91361h2.2758ZM.0222168.423992C1.24956.178523 2.96788 0 5.40019 0 7.85488 0 9.5955.535567 10.7782 1.62902c1.1158 1.02647 1.8745 2.72249 1.8745 4.73081 0 2.00841-.5802 3.70437-1.6068 4.84247-1.36119 1.4951-3.36951 2.1422-5.71261 2.1422-.51328 0-.98186-.0223-1.36125-.0893v7.3195H.0222168V.423992ZM3.94974 9.70718c.33469.08921.75868.11151 1.33886.11151 2.12 0 3.41425-1.24965 3.41425-3.32496 0-1.87443-1.11576-3.01257-3.10178-3.01257-.80336 0-1.36124.08929-1.65133.17858v6.04744ZM19.1464.156195V8.01116h6.5384V.156195h3.9721V20.597h-3.9721v-8.5467h-6.5384v8.5467H15.152V.156195h3.9944Z"/>
</svg>