<svg xmlns="http://www.w3.org/2000/svg" viewBox="0 0 58 36">
	<path fill="#fff" d="M52.9384 36.0008H0l4.79946-15.6903H57.7378l-4.7994 15.6903ZM22.5827 14.4272V4.61181h4.3159v3.24775h1.9847V4.61181h4.3087v9.81539h-4.3087v-3.2549h-1.9847v3.2549h-4.3159Zm21.3485-5.4634 1.6384-4.35199h-4.2077l-1.3135 3.24775h-.7651V4.61181h-4.3159v9.81539h4.3159v-3.2549h1.0249l1.3135 3.2549h4.3087l-1.9992-5.4634Zm9.6495-3.2694c-.5247-.01742-1.0472.0772-1.533.27756-.485.20037-.9223.50187-1.2817.88441.0303-.44282.1804-.86905.4344-1.23277.2548-.36373.6034-.65117 1.009-.83136 1.4434-.61346 3.1178-.18765 4.3303-1.21971V0c-.9324.329918-1.9024.543243-2.8869.635116-1.4571.152962-2.863.620864-4.121 1.371274-1.7538 1.10424-3.0024 2.88689-3.0024 6.58933 0 4.79228 2.7715 6.14188 5.6295 6.14188s5.3263-1.4435 5.3263-4.5685c0-3.01682-1.7971-4.46749-3.919-4.46749l.0145-.00721Zm-1.5662 5.7377c-1.0392 0-1.2846-.8156-1.2846-1.44345 0-.6279.2454-1.44345 1.2846-1.44345 1.0393 0 1.2631.7939 1.2631 1.44345 0 .64955-.2454 1.44345-1.2631 1.44345ZM21.0887 9.51953c0-2.41056-1.0826-4.6912-3.5653-5.15311l-.2021-.03608c-.1443 0-.2959-.03609-.4475-.0433h-.5846c-.717.03304-1.4111.26275-2.0063.66398-.3356.22814-.6349.5055-.8878.82276l-.4041-1.16197H9.59888V18.3245h4.33032v-4.4963c.3337.293.7209.5184 1.1403.664.4911.1835 1.0133.2693 1.5373.2526 3.1323 0 4.4963-2.5332 4.4963-5.23249l-.0144.00722ZM15.1561 11.295c-.2567.0036-.5099-.0615-.7332-.1883-.2233-.1269-.4086-.311-.537-.5335V8.40807c.1327-.21853.3191-.39947.5414-.52577.2223-.1263.4731-.19378.7288-.19595 1.0393 0 1.494.90215 1.494 1.77544.007.10811.007.21666 0 .32478-.0109.37943-.1665.74023-.4348 1.00863-.2684.2683-.6293.4239-1.0086.4348"/>
</svg>