<svg xmlns="http://www.w3.org/2000/svg" viewBox="0 0 147 36">
	<path fill="#E4003A" d="m82.5541.5-18.36 2.39851v5.43318l18.36-1.63847V.5Z"/>
	<path fill="#fff" d="M79.0784 12.9513 64.1941 2.9043v5.42035l4.641 3.14365.9131.5327c-1.6673.0201-2.4658.3587-3.268.8431-2.2917 1.3816-3.4814 3.8115-3.4814 7.3971 0 6.0418 3.335 8.9024 9.6878 8.9024 6.3532 0 9.7047-2.8606 9.7047-8.9024 0-3.4968-1.1341-5.8879-3.3129-7.2899Zm-6.3918 11.7745c-3.1495 0-4.1407-1.1466-4.1407-4.4382 0-3.2917.9838-4.4383 4.1407-4.4383 3.1572 0 4.1242 1.1242 4.1242 4.4383 0 3.3136-.9504 4.4382-4.1242 4.4382Zm-46.23-4.4382c0 3.2972.9838 4.4382 4.1407 4.4382 3.1568 0 4.1242-1.1466 4.1242-4.4382 0-3.2917-.9526-4.4383-4.1242-4.4383-3.172 0-4.1407 1.1242-4.1407 4.4383Zm-5.5471-.0481c0-6.0417 3.3573-8.8063 9.6878-8.8063 6.3306 0 9.7025 2.7646 9.7025 8.8063 0 6.0415-3.3349 8.9024-9.7025 8.9024-6.3677 0-9.6878-2.8609-9.6878-8.9024ZM5.31908 14.0258c.60401-.7658 3.04045-2.615 6.03802-2.615 4.9891 0 7.7404 2.689 7.7404 8.7972 0 6.1079-2.7549 8.8228-7.7572 8.8228-3.01447 0-5.43398-1.816-6.05443-2.5982v8.0738H0V11.8067h5.31908v2.2191Zm.00378 6.169c0 3.2937.99118 4.4382 4.14064 4.4382v-.0072c3.1716 0 4.1222-1.1209 4.1222-4.431 0-3.31-.9653-4.4382-4.1222-4.4382-3.15686 0-4.14064 1.1446-4.14064 4.4382ZM118.763 11.8139v6.1638h-7.018v-6.1638h-5.319v16.6806h5.319v-6.2489h7.018v6.2489h5.321V11.8139h-5.321ZM91.979 29.0308c-5.006 0-7.7574-2.7205-7.7574-8.8228 0-6.0918 2.7494-8.7972 7.7389-8.7972 2.9955 0 5.432 1.8492 6.0396 2.6038v-2.2191h5.3189v16.7007h-5.2875v-2.0636c-.6206.7822-3.0401 2.5982-6.0525 2.5982Zm1.8767-13.2854c-3.1736 0-4.1242 1.1246-4.1242 4.4382-.002 3.2973.9692 4.4386 4.1242 4.4386 3.1552 0 4.1387-1.1281 4.1387-4.4386 0-3.31-.9649-4.4382-4.1387-4.4382Zm-38.1211 6.5853c-.4152 1.744-1.5267 2.3947-3.9353 2.3947-3.1495 0-4.139-1.1465-4.139-4.4382 0-3.2916.9895-4.4382 4.139-4.4382 2.4086 0 3.5201.6491 3.9369 2.4042l5.5471-.4198c-.8283-4.3643-4.076-6.393-9.484-6.393-6.3307 0-9.6858 2.7646-9.6858 8.8064 0 6.0414 3.3346 8.9024 9.6858 8.9024 5.4042 0 8.6188-2.0712 9.4672-6.393l-5.5319-.4255Zm82.4444-2.5962 8.419 8.758h-6.838l-7.333-7.6798v7.6798h-5.225V11.8139h5.225v7.2456l7.138-7.2456h6.581l-7.967 7.9206Z"/>
</svg>