<svg xmlns="http://www.w3.org/2000/svg" viewBox="0 0 170 28">
	<g fill="#fff">
		<path d="M5 0C2.2 0 0 2.2 0 5v17.8c0 2.8 2.2 5 5 5s5-2.2 5-5V5c0-2.8-2.3-5-5-5ZM17 11.5c3.2 0 5.8-2.6 5.8-5.8S20.2 0 17 0s-5.8 2.6-5.8 5.8 2.6 5.8 5.8 5.8ZM52.9 1.2zM56.3 9.1c1.5 0 3.1-.7 3.1-2.4s-1-2.3-2.9-2.3H54V2.1h4.9v-1h-6V9h3.4ZM54 5.3h2.2c1.3 0 2 .5 2 1.4s-.7 1.5-2 1.5H54V5.3ZM64.3 9.1h1V5.5c0-1.6-1-2.4-2.6-2.4s-1.8.2-2.5.8l.4.8c.5-.4 1.2-.6 1.9-.6 1 0 1.6.7 1.6 1.7h-1.7c-1.1 0-2.4.4-2.4 1.8s1.1 1.8 2.2 1.8 1.5-.2 2-.9v.8Zm0-1.8c-.3.7-1 1.1-1.7 1.1s-1.3-.3-1.3-1 .5-.9 1.4-.9h1.7v.8ZM68 6.6h3.1v2.5h1.1v-6h-1.1v2.6H68V3.1h-1.1v6H68V6.6zM79.3 9.1 76.9 6l2.3-2.9H78l-1.9 2.6h-1.3V3.1h-1.1v6h1.1V6.6H76l2.1 2.5h1.2zM58 13.1h-5.1V26h3v-3.6H58c2.9 0 5.6-1.5 5.6-4.7S60.8 13 58 13Zm-.2 6.9h-2v-4.5h2c1.4 0 2.8.7 2.8 2.3S59.3 20 57.8 20ZM69.8 15.9c-2.9 0-5.5 2.1-5.5 5.1s2.6 5.1 5.5 5.1 5.5-2.1 5.5-5.1-2.5-5.1-5.5-5.1Zm0 7.9c-1.6 0-2.6-1.3-2.6-2.8s1-2.8 2.6-2.8 2.5 1.3 2.5 2.8-1 2.8-2.5 2.8ZM81.7 18.3c1 0 1.7.5 2.2 1.4l2.2-1.2c-.8-1.8-2.6-2.5-4.5-2.5-3 0-5.6 2-5.6 5.1s2.6 5.1 5.6 5.1 3.7-.8 4.5-2.5l-2.2-1.2c-.5.9-1.3 1.4-2.2 1.4-1.6 0-2.6-1.2-2.6-2.7s1-2.7 2.6-2.7ZM86.8 18.4h2.8V26h2.9v-7.6h2.9v-2.3h-8.6v2.3zM105.6 13.8v-1.3h-2.8v1.3c-3.4.2-6.8 1.8-6.8 5.7s3.4 5.5 6.8 5.7v1.4h2.8v-1.4c3.5-.2 6.8-1.8 6.8-5.7s-3.4-5.5-6.8-5.7Zm-2.7 9c-2.6-.3-3.9-1.4-3.9-3.3s1.9-3.1 3.9-3.3v6.6Zm2.7.1v-6.6c2.6.2 3.9 1.3 3.9 3.3s-1.8 3.2-3.9 3.4ZM116.9 22v-5.9H114V26h2.6l4.6-5.7V26h2.8v-9.9h-2.6l-4.5 5.9zM133.2 20h-4v-3.9h-2.9V26h2.9v-3.7h4V26h2.9v-9.9h-2.9V20zM155.5 20h-4v-3.9h-2.9V26h2.9v-3.7h4V26h2.9v-9.9h-2.9V20zM165.5 23.8c-1.6 0-2.6-1.2-2.6-2.7s1-2.7 2.6-2.7 1.7.5 2.2 1.4l2.2-1.2c-.8-1.8-2.6-2.5-4.5-2.5-3 0-5.6 2-5.6 5.1s2.6 5.1 5.6 5.1 3.7-.8 4.5-2.5l-2.2-1.2c-.5.9-1.3 1.4-2.2 1.4ZM142.1 15.9c-1.3 0-2.7.3-3.9 1l1 2c.8-.5 1.7-.7 2.6-.7s2.2.7 2.2 1.9h-1.9c-1.9 0-4.3.6-4.3 3s1.9 3 3.7 3 2.1-.3 2.7-.9v.8h2.7v-5.7c0-3-2-4.4-4.8-4.4Zm.1 8.3c-.8 0-1.6-.3-1.6-1.2s.6-1.2 1.8-1.2h1.6v1.5c-.4.6-1.1.8-1.8.8ZM39.7 5c0-1.3-.5-2.6-1.5-3.5C37.3.6 36 0 34.7 0s-2.6.5-3.5 1.5L13.4 19.2c-1.9 1.9-1.9 5.1 0 7.1s5.1 1.9 7 0L38.1 8.5c.9-.9 1.5-2.2 1.5-3.5Z"/>
		<circle cx="34.6" cy="22" r="5.8"/>
	</g>
</svg>