<svg xmlns="http://www.w3.org/2000/svg" viewBox="0 0 89 36">
	<path fill="#4B9B45" d="M18.8997 14.5623c0-3.7636 2.0454-7.03628 5.1544-8.99988C21.5996 2.78065 17.9179 1.0625 13.827 1.0625 6.21807 1.0625 0 7.19876 0 14.7259c0 7.5271 6.21807 13.6634 13.827 13.6634 4.1727 0 7.8544-1.8 10.3907-4.7454-3.1908-1.8818-5.318-5.2363-5.318-9.0816ZM83.6985 30.762l3.0272-3.0272h-1.7181l-3.2727 3.2726v-6.2999h-1.3091v11.1271h1.3091v-3.1908l.9818-.9 2.7 4.0908h1.6363l-3.3545-5.0726Zm-5.8908-2.2091c-.1636-.2454-.4909-.4909-.9-.6545-.4091-.1636-.8181-.2455-1.309-.2455-1.0637 0-1.9636.4909-2.5364 1.3091v-1.1454h-1.2272v8.018h1.309v-4.4181c0-.9818.1637-1.7181.6546-2.1272.4091-.4091.9-.5727 1.4727-.5727.3273 0 .6545.0818.9818.2454.2454.1636.4909.4091.5727.6545.0818.2455.1636.6546.1636 1.2273v4.909h1.3909v-4.909c0-.6545 0-1.0636-.0818-1.3091-.1636-.4091-.3273-.7363-.4909-.9818Zm-8.018 3.9272v-1.7999c0-.5728 0-.9818-.0819-1.2273-.0818-.4091-.2454-.6545-.409-.9818-.1637-.2454-.4909-.4909-.9818-.5727-.4091-.1636-.9818-.2455-1.7182-.2455-.6545 0-1.3091.0819-1.8.2455-.4909.1636-.8999.4909-1.2272.8182-.2455.3272-.4909.8181-.5727 1.3908l1.309.1637c.1637-.5727.4091-.9818.6546-1.2273.3272-.2454.8181-.3272 1.3909-.3272.6545 0 1.2272.1636 1.5545.4909.2454.2454.4091.5727.4091 1.1454v.3273c-.5728.1636-1.3091.3272-2.4545.4909-.5728.0818-.9818.1636-1.2273.1636-.4091.0818-.7363.2454-.9818.4909-.3273.1636-.5727.4909-.7363.8182-.1637.3272-.2455.6545-.2455 1.0636 0 .6545.2455 1.2272.7364 1.6363.4909.4091 1.1454.6545 2.0454.6545.5727 0 1.0636-.0818 1.4727-.2454.4909-.1636.9818-.4909 1.4727-.9 0 .4091.1636.7364.3273.9818h1.3908c-.1636-.3273-.2454-.6545-.3272-.9818v-2.3727Zm-1.5546-.2454c0 .5727-.0818 1.0636-.2454 1.309-.1636.4091-.4909.7364-.9.9818-.4091.2455-.9.3273-1.3909.3273s-.8999-.1636-1.2272-.3273c-.2455-.2454-.4091-.5727-.4091-.8999 0-.2455.0818-.4091.1636-.6546.1637-.1636.3273-.3272.5727-.4091.2455-.0818.6546-.1636 1.2273-.2454.9818-.1636 1.7181-.3273 2.209-.4909v.4091Zm-7.6089-3.4363c-.2455-.3273-.6545-.6546-1.0636-.8182-.4091-.1636-.9-.3273-1.3909-.3273-.9 0-1.6363.3273-2.2091 1.0637v-4.0091h-1.3908v11.1271h1.309v-.9818c.5727.8182 1.3091 1.1454 2.2091 1.1454.9818 0 1.7181-.3272 2.4545-1.1454.6545-.7363.9818-1.8.9818-3.1908 0-.5728-.0818-1.1455-.2455-1.6364-.1636-.4909-.4091-.9-.6545-1.2272Zm-1.2273 5.3181c-.409.4909-.9818.7363-1.5545.7363-.7363 0-1.309-.3273-1.7181-1.0636-.2455-.4091-.4091-1.1454-.4091-2.1272 0-.9818.2454-1.7182.6545-2.2091.4091-.4909.9818-.7363 1.5545-.7363.5728 0 1.0637.2454 1.4727.7363.4091.4909.5728 1.3091.5728 2.2909.0818 1.0636-.0819 1.7999-.5728 2.3727Z"/>
	<path fill="#fff" d="M10.4725 22.2546c0 .6545-.57271 1.1454-1.14542 1.1454-.65454 0-1.14544-.5727-1.14544-1.1454l.08182-9.5725c0-2.0455.73635-3.6818 1.96364-4.82723 1.2272-1.14543 2.9454-1.71815 5.0726-1.71815.6545 0 1.1454.4909 1.1454 1.14543 0 .65454-.4909 1.14544-1.1454 1.14544-1.4727 0-2.7.40908-3.4363 1.14543-.7364.73638-1.2273 1.79998-1.2273 3.19088l-.1636 9.4907ZM29.5361 5.72717c-2.3727 0-4.5.9818-6.0545 2.53632s-2.5363 3.68171-2.5363 6.05441.9818 4.4999 2.5363 6.0545c1.5545 1.5545 3.6818 2.5363 6.0545 2.5363s4.4999-.9818 6.0544-2.5363c1.5545-1.5546 2.5363-3.6818 2.5363-6.0545s-.9818-4.49989-2.5363-6.05441c-1.5545-1.55452-3.6817-2.53632-6.0544-2.53632Zm4.5817 13.17253c-1.2272 1.1454-2.7818 1.8817-4.5817 1.8817-1.8 0-3.4363-.7363-4.5818-1.8817-1.1454-1.1455-1.8818-2.7818-1.8818-4.5818 0-1.7999.7364-3.4363 1.8818-4.58171 1.2273-1.14543 2.8636-1.88178 4.5818-1.88178 1.7999 0 3.4363.73635 4.5817 1.88178 1.1454 1.22721 1.8818 2.78181 1.8818 4.58171 0 1.8-.7364 3.4363-1.8818 4.5818ZM52.6084 5.80899c-.5727 0-1.0636.4909-1.0636 1.06361v9.8998c-.0818 1.7182-1.0636 2.8636-2.3727 3.4363-.6545.2455-1.3909.4091-2.1272.4091-.7364 0-1.5546-.1636-2.2091-.4091-1.4727-.5727-2.6181-1.7181-2.7818-3.5181l.0818-9.818c0-.57271-.4909-1.06361-1.0636-1.06361-.5727 0-1.0636.4909-1.0636 1.06361l-.0818 9.9816v.0819c.1636 2.6999 1.9636 4.4999 4.1727 5.318.9818.4091 1.9635.5728 3.0272.5728 1.0636 0 2.0454-.2455 2.9454-.5728 2.0454-.8999 3.5999-2.6181 3.6817-5.318V6.79079c-.0818-.57272-.5727-.9818-1.1454-.9818Zm12.8452.73635c-.9818-.32727-1.9636-.57272-3.0272-.57272s-2.0454.24545-2.9454.57272c-2.0454.89998-3.5999 2.61813-3.6818 5.31806v10.0635c0 .5727.4909 1.0636 1.0637 1.0636.5727 0 1.0636-.4909 1.0636-1.0636v-9.8998c.0818-1.7182 1.0636-2.86363 2.3727-3.43634.6545-.24545 1.3908-.40909 2.1272-.40909.7364 0 1.5545.16364 2.209.40909 1.4728.57271 2.6182 1.71814 2.7818 3.51814l-.0818 9.818c0 .5727.4909 1.0636 1.0636 1.0636.5727 0 1.0636-.4909 1.0636-1.0636l.0819-9.9817v-.0818c-.1637-2.69993-1.9636-4.41808-4.0909-5.31806ZM87.8714 0c-.5727 0-.9818.4909-.9818.9818v8.18167c-1.5545-2.04542-4.009-3.27267-6.709-3.27267-4.7453 0-8.5089 3.84539-8.5089 8.5089 0 4.6636 3.6817 8.509 8.4271 8.509 2.7818 0 5.1545-1.3091 6.709-3.2727v2.2909c0 .5727.4909.9818.9818.9818.5727 0 .9818-.4909.9818-.9818V.9818c.0818-.4909-.4091-.9818-.9-.9818Zm-7.7726 20.8633c-3.5999 0-6.4635-2.9454-6.4635-6.4636 0-3.5999 2.9454-6.46348 6.4635-6.46348 3.5999 0 6.4635 2.94538 6.4635 6.46348 0 3.6-2.9454 6.4636-6.4635 6.4636Z"/>
</svg>