<svg xmlns="http://www.w3.org/2000/svg" viewBox="0 0 170 24">
	<path fill="#E41A19" d="M26.3364 0H0v23.4668h26.3364V0Z"/>
	<path fill="#fff" d="M36.5499 6.0918h-5.0184v10.4788h1.9992v-4.0052h3.7332c2.3664 0 3.4-1.0336 3.4-3.3388 0-2.89-2.1352-3.128-4.1412-3.128l.0272-.0068Zm2.1012 3.2708c0 1.36-.5304 1.5912-1.8088 1.5912h-3.3116V7.7034h3.3388c1.1424 0 1.8088.272 1.8088 1.6524l-.0272.0068Zm40.6097-3.2708h2.4208l-4.284 5.1204 4.7804 5.3584h-2.4888L75.65 12.0894h-1.768v4.4812h-1.9992V6.0918h1.9992v4.3792h1.7816l3.5972-4.3792Zm5.0796 3.7128c.7939-.43342 1.6949-.63155 2.5976-.5712h.0068c2.856 0 4.0188 1.0472 4.0188 3.6176 0 3.2368-1.5436 3.8692-4.2024 3.8692-.7769.0208-1.5496-.135-2.2576-.4556v3.7808h-1.9312V9.32859h1.7068l.0612.47601Zm2.4276.8636c-.6596-.0479-1.3209.0689-1.9244.34v-.0068c-.0769.0401-.1444.096-.1983.164-.0539.0679-.0929.1464-.1145.2304-.0148.2604-.0148.5216 0 .782v2.108c-.0188.1328.0022.2683.0603.3894.0581.121.1506.2221.2661.2906.4573.2484.969.377 1.4892.374 1.8632 0 2.72-.0068 2.72-2.176s-.306-2.4956-2.2984-2.4956Zm34.415.2108h2.842v5.6916h1.877V10.879h2.897V9.315h-7.616v1.564Zm-20.917 1.6388c.003.2677-.027.5349-.088.7956l-.028.1496h-6.1944c.0272 1.6932.408 1.8564 2.278 1.8564s2.108-.0612 2.108-1.0744v-.204h1.8634v.204c.048.2932.035.5934-.039.8813-.073.288-.206.5574-.3896.7915-.8228.7956-2.3868.7956-3.5428.7956-3.2912 0-4.1888-.7616-4.1888-3.6856s.9792-3.8148 4.1888-3.8148c2.6112 0 4.0324.5304 4.0324 3.3048Zm-1.8564-.4556c-.0408-1.2036-.476-1.4688-2.1828-1.4688-1.0608 0-1.6116.1292-1.9176.4352-.2389.2896-.3579.6593-.3332 1.0336h4.4336Zm15.4834 2.8016V9.315h-1.836v7.2556h2.496l3.93-5.5624v5.5624h1.809V9.315h-2.611l-3.788 5.5488ZM103 9.315h6.786v5.746h.993v3.5768h-1.659v-2.04h-6.617v2.04h-1.632V15.061h.68c.755-.0272 1.17-.6528 1.238-1.8428L103 9.315Zm4.964 5.746v-4.2636h-3.258l-.204 2.6248c-.01.5922-.207 1.1659-.564 1.6388h4.026Zm49.993-2.8764h-3.855V9.32859h-1.864v7.24201h1.864v-3.0464h3.855v3.0464h1.85V9.32859h-1.85v2.85601Zm-23.433-2.04h2.272c2.652 0 4.943.0204 4.943 3.2232s-2.985 3.2028-4.957 3.2028h-4.257V6.0918h8.344v1.6184h-6.345v2.4344Zm-.013 4.8756h3.4v-.0272c1.251 0 1.781-.4896 1.781-1.6524 0-1.3736-.55-1.6048-1.781-1.6048h-3.4v3.2844Zm12.022-5.8004c-.863 0-3.495 0-3.495 1.768v.68h1.863v-.1972c-.033-.2127.018-.4299.143-.6052.464-.234.989-.3195 1.503-.2448 1.693 0 2.183.238 2.183 1.0744v.2856h-3.067c-1.285 0-2.992.2448-2.992 2.3392s2.135 2.4072 3.74 2.4072c.86.0344 1.712-.1855 2.448-.6324l.061.476h1.707v-4.1548c0-2.3868-.197-3.2096-4.08-3.2096l-.014.0136Zm2.21 4.6444c0 .7208 0 .8024-.326 1.0132-.621.2949-1.307.4283-1.993.3876-1.36 0-1.822-.1564-1.822-1.02s.483-.952 1.863-.952h2.278v.5712Zm20.529-4.53561-3.325 3.50201 4.053 3.74h-2.475l-3.264-3.0396h-1.034v3.0396h-1.802V9.32859h1.802v2.85601h1.088l2.591-2.85601h2.366ZM50.2221 12.2924c-.0751-.2554-.0973-.5235-.0653-.7878H50.15c0-2.1896 2.0129-2.1896 3.4817-2.1896h3.876v7.2556h-1.836v-2.856h-1.5709c-.6052.7412-2.3459 2.7812-2.3459 2.7812l-.0749.0748h-2.0807l.2719-.3332c.003-.003.0675-.0819.1751-.2135l.0031-.0039.0004-.0005.0003-.0003.0003-.0004c.379-.4639 1.2791-1.5657 1.9221-2.3246-.2658-.0174-.525-.0889-.7621-.21-.2371-.1211-.447-.2892-.6169-.4941-.17-.2049-.2963-.4424-.3714-.6977Zm5.4496-1.563h-2.4345c-.9316 0-1.1831.2856-1.1831.8568 0 .5712.136.7752.8976.7752h2.72v-1.632ZM44.8394 9.2198c-3.184.00127-4.2094.9403-4.2094 3.8624 0 2.924.9452 3.638 4.216 3.638 3.2708 0 4.114-.7548 4.182-3.4816v-.204c0-2.9559-.9371-3.81361-4.1886-3.8148Zm-.007 6.12c-2.0399 0-2.1896-.1496-2.1896-2.2984s.1972-2.3936 2.2032-2.3936 2.1896.1768 2.1896 2.3868-.1156 2.2984-2.1896 2.2984l-.0136.0068Zm14.3277-.204c.6799 0 .9247-.3944.9928-1.5164l.2175-4.3044h6.7864v7.2012H65.28v-5.7324h-3.094l-.1768 2.9988c-.102 1.7612-.9247 2.7744-2.2847 2.7744-.3524.0028-.7045-.0177-1.0541-.0612H58.48l.136-1.36h.5441ZM18.0539 2.38145c-.1208.16932-.2677.3185-.4352.442-.1674-.12359-.3142-.27268-.4352-.442.121-.16932.2678-.31849.4352-.442.1675.12351.3143.27268.4352.442Zm-.1359 1.1492v.8228h-.4964v-.8364c-.2788-.068-.612-.1156-.612.0612.0255.28747.1187.56474.272.8092-.0736.01369-.1429.03383-.2091.05313-.0989.02881-.1909.05567-.2805.05567-.2355-.32504-.3936-.69946-.4624-1.0948.0272-.6052.9656-.4216 1.2852-.3332l.2652.068.2652-.068c.3128-.0884 1.2784-.2652 1.2784.34-.0621.39704-.2158.77418-.4488 1.1016-.054-.00977-.1106-.02669-.1696-.04428-.1044-.03111-.2162-.06452-.3336-.06452.1529-.24463.2462-.52181.272-.8092-.0272-.1768-.34-.136-.6256-.0612Zm.7616 1.19c-.3275-.08262-.6623-.13277-.9996-.1496-.3438.01437-.6854.06222-1.02.1428l.1564.544c.2818-.07505.572-.1139.8636-.1156.2952.00264.5885.04845.8704.136l.1292-.5576Zm-4.114 15.89845h-1.7612l.0068-.0205v-.3671l-.3332.3536v-.4829c-.0009-.0848.0222-.1682.0667-.2403.0446-.0723.1087-.1304.1849-.1676.1423-.017.2861-.017.4284 0 .2603-.0355.5047-.1455.7039-.3168.1991-.1714.3443-.3967.4181-.6489-.3819-.6607-.627-1.3914-.7208-2.1488 0-1.0472.68-1.8903 2.2644-1.8903.5686.0309 1.1265.1669 1.6456.4012 0 0-2.04 2.0876-2.04 2.7676.1606.3283.2794.6756.3536 1.0336-.3429.6176-.7509 1.1966-1.2172 1.7272Zm8.4184-10.1456-.1088-.17c.1805-.1067.3841-.1686.5935-.1804.2094-.0118.4186.0267.6101.1124-.5236-1.04045-1.802-.74125-1.8428.1904-.2047.1315-.3714.3143-.4836.5303-.1121.2159-.1657.4574-.1556.7005 0 .6604.4538 1.6999.8207 2.54.2489.57.4577 1.0482.4577 1.2544.0135.0781.0092.1583-.0128.2345-.0219.0761-.0609.1463-.1139.2053-.0531.0589-.1188.1051-.1922.1349-.0735.0299-.1528.0426-.2319.0372-.2788 0-.5576-.1971-.9996-.7887-.5149-.7463-1.1738-1.3821-1.938-1.87l-1.2988-.9112 1.8224-1.36.136.68c.3041-.4298.5079-.9224.5961-1.4414.0883-.519.0588-1.05127-.0861-1.55745 0-.03893-.0248-.11364-.0498-.18921-.0144-.04309-.0287-.08644-.0386-.12359l.4692.1768v-.238c-.3196-1.6524-1.53-2.9444-3.196-2.9444-.4616-.00943-.9215.05959-1.36.204l.0748.3808c-.1836.0884-1.2444.5304-1.2444.5304-.0053.38888.141.76449.408 1.0472.3125.05406.633.03774.9384-.0476.048.06188.0779.13592.0861.21378.0083.07786-.0053.15657-.0391.22712-.0339.07063-.0868.13039-.1527.17263-.066.04225-.1424.06528-.2207.06647h-.476c-.0104.09673.0065.1944.0484.28203.0421.08764.1077.16193.1896.21437.3356.01335.6717.00655 1.0064-.0204.1243.0068.2482-.01912.3594-.07497.1112-.05593.2058-.13991.2745-.24369.0688-.10379.1092-.22372.1172-.34791.0081-.12427-.0164-.24837-.0711-.36023-.0241-.11959-.0678-.23451-.1292-.34.1181.07582.219.17544.2963.29257.0773.11713.1292.24905.1525.38743.0402.11297.0537.23375.0394.35284-.0144.119-.0562.23307-.1221.33328-.0659.10022-.1541.18369-.2578.24404-.1036.06026-.2198.09571-.3395.10344-.3092.05874-.4582.07676-.5976.09359-.1674.02023-.3212.03876-.7216.12401-.3729.09461-.7155.28297-.9952.54723-.2796.26422-.4871.59542-.6028.96242l-.9724.374-.4488.17c-.4563.135-.8964.3197-1.3124.5508-.2647.2087-.4457.5055-.51.8364-.0507.1061-.077.2223-.077.34 0 .1177.0263.2338.077.34.2547.1824.5646.2713.8772.2516l-.3468-.34.4488-.0544c.1708-.1351.2945-.3208.3536-.5304l.68.0884c.4649.0691.9398-.0069 1.36-.2176.2103.4253.5353.7833.9384 1.0336l.3672.2244c.9928.5032 3.094 1.2851 3.094 1.2851-.0015.0419-.0156.0822-.0408.1157-.6161.5853-.9796 1.388-1.0132 2.2372 0 1.122 1.7884 1.1152 1.7884 1.1152h.476c-.0952.4352-.4216 1.0403-.782 1.0403-.165-.018-.3314-.018-.4964 0-.0727.0387-.1333.0966-.1753.1673-.0419.0707-.0636.1517-.0627.2339v.4624l.3264-.3467v.3467h1.802l.1292-.272c.3813-.6502.6762-1.3474.8772-2.0739 0-.3319-1.3775-.6398-1.5414-.6764-.0107-.0024-.0162-.0037-.0158-.0037.2114-.6896.3817-1.3912.51-2.1012.6188.8432 1.1832 1.1628 1.5912 1.1628.2724.0019.5347-.1031.7306-.2926.1958-.1895.3095-.4481.3166-.7205 0-.3698-.154-.7302-.4235-1.3609-.1269-.2972-.2795-.6543-.4537-1.1007l-.0493-.1277c-.3534-.9144-.6424-1.6622-.0119-2.1367l.0272.0952c.1141.0934.2519.1533.398.1729.1461.0197.2948-.0016.4296-.0616.1347-.0599.25-.1561.3332-.2779.0833-.1217.131-.2641.138-.4114-.2549-.0595-.5227-.0258-.7548.0952Zm-6.3172-4.30445c.2813-.03833.5677-.00076.8296.1088-.5916.3808-.9044.2992-.8296-.1088Zm-2.9376 1.4892.2652.3332 1.0404 1.3532c-.4775.25279-1.0287.3298-1.5572.2176-.8228-.2176-.9792-1.36-.9792-1.36l-.0816-.6392c-.1976.01904-.3964-.02116-.5712-.1156l-.1632-.374-.1972.3876c-.0966-.26579-.0966-.55709 0-.8228.075-.07446.1663-.13039.2666-.16345.1003-.03307.2069-.04233.3114-.02695.3025-.03289.6067.04437.8568.2176.3053.30031.5766.63325.8092.9928Z"/>
</svg>