<svg xmlns="http://www.w3.org/2000/svg" viewBox="0 0 160 30">
	<path fill="#fff" d="M104.785 7.55518c-.62-.0672-1.246.07342-1.777.39998l.64-1.39548h7.155l-.614 1.43992c-.145-.14559-.32-.25696-.514-.32612-.194-.06924-.401-.09439-.606-.07386h-1.279v5.72408c-.057.3963.045.7991.284 1.12h-2.48c.235-.3234.336-.7241.285-1.12V7.55518h-1.094Zm13.644 6.87962c-.368-.3221-.644-.7362-.8-1.1999l-2.844-6.68411h-2.24c.243.21483.448.47055.604.75551l-2.56 5.9197c-.191.4353-.445.8398-.755 1.1999h1.92c-.225-.4502-.169-.6579-.029-1.1734l.029-.1065.16-.48h3.484l.16.48c.023.0852.044.1623.065.2332.122.432.179.6344-.065 1.0467l2.871.0089Zm-6.08-2.7199 1.396-3.31532 1.28 3.31532h-2.676Zm12.284-.8888h-3.36v2.4443c-.057.3963.046.7991.285 1.12h-2.48c.234-.3234.336-.724.284-1.12V7.59962c.057-.39624-.045-.79907-.284-1.11994h2.48c-.235.32336-.336.72405-.285 1.11994v2.17766h3.36V7.59962c.057-.39624-.045-.79907-.284-1.11994h2.48c-.235.32336-.336.72405-.285 1.11994v5.67968c-.057.3963.045.7991.285 1.1199h-2.48c.234-.3233.336-.7239.284-1.1199v-2.4532Zm10.08 1.7777V7.6885c-.052-.39588.049-.79657.284-1.11993h-6.222c.24.28443.284.51552.284 1.11993v3.1198c0 1.44-.239 2.5599-1.679 3.0843v1.3955c.567-.5195 1.31-.8053 2.079-.8h4.116c.766.0135 1.502.2968 2.08.8v-1.4044c-.289-.0562-.547-.219-.721-.4561-.174-.2371-.253-.5312-.221-.8238Zm-1.84.4355c0 .1061-.042.2078-.118.2828-.074.0751-.177.1172-.282.1172h-2.667c.482-.7616.692-1.6638.596-2.5599V7.9196c-.007-.05422-.002-.1095.015-.16132.018-.05191.047-.09902.086-.13768.038-.03875.085-.068.137-.08551.052-.01751.107-.02284.162-.01546h2.08l-.009 5.51967Zm11.999 1.3955c-.368-.3221-.644-.7362-.8-1.1999l-2.844-6.67522h-2.24c.243.21483.448.47055.604.75551l-2.56 5.91971c-.191.4353-.445.8397-.755 1.1999h1.92c-.225-.4502-.169-.6579-.029-1.1733l.029-.1066.16-.48h3.404l.24.48c.023.0852.044.1623.065.2332.122.432.179.6344-.065 1.0467h2.871Zm-6.115-2.7199 1.395-3.31532 1.28 3.31532h-2.675Zm9.715-5.15522h-3.138c.24.28443.285.51553.285 1.11994v5.67968c.051.396-.05.7966-.285 1.1199h2.48c-.24-.2844-.284-.5155-.284-1.1199v-1.2799h.942c2.195 0 3.555-1.12 3.555-2.84431 0-1.72435-1.155-2.67541-3.555-2.67541Zm-.24 4.55972h-.649V7.56407h.684c1.28 0 1.92.51553 1.92 1.77768 0 1.26215-.684 1.77765-1.955 1.77765ZM36.3091 21.5188h-.72V19.359h1.9199c.202-.0252.407-.0056.6006.0574.1936.0629.3708.1678.5194.307l.5955-1.3155h-5.7864c.24.2844.2756.5155.2756 1.1199v5.6797c.0541.3949-.0445.7954-.2756 1.12h2.9243c1.8399 0 3.2354-.5956 3.2354-2.3643 0-1.7688-1.4044-2.4444-3.2887-2.4444Zm-.2044 3.7954h-.5956v-2.9154h.5956c1.0044 0 1.6354.4 1.6354 1.4399 0 1.04-.6666 1.4755-1.6265 1.4755h-.0089Zm12.5593 1.0044c-.3682-.3221-.6442-.7362-.8-1.2l-2.8354-6.684h-2.231c.2446.2175.4492.4762.6044.7644l-2.5687 5.9196c-.2044.4382-.4741.8428-.8 1.2h1.9199c-.2233-.4466-.1695-.647-.0321-1.1595l.0321-.1205.16-.4799h3.4043l.24.4799c.0206.0782.0406.1495.0591.2155.1242.4443.1808.6466-.0591 1.0645h2.9065Zm-6.0797-2.7199 1.3244-3.3153 1.3155 3.3153h-2.6399Zm12.4438-.8888h-3.3154v2.4443c-.0598.3951.0392.7977.2755 1.1199h-2.4709c.2374-.322.3423-.7229.2933-1.1199v-5.6708c.0598-.3951-.0392-.7977-.2756-1.1199h2.4799c-.2311.3246-.3297.7251-.2756 1.1199v2.2043h3.3599v-2.2043c.0598-.3951-.0392-.7977-.2756-1.1199h2.4532c-.2311.3246-.3297.7251-.2755 1.1199v5.6797c-.0598.3951.0392.7977.2755 1.1199H54.797c.2311-.3246.3296-.7251.2755-1.1199l-.0444-2.4532Zm8.7195-3.2709-2.6761 2.7898-.0349-2.6743c-.0541-.3948.0445-.7953.2756-1.1199h-2.4799c.2363.3222.3353.7248.2755 1.1199v5.6886c.0542.3948-.0444.7953-.2755 1.1199h2.4799c-.2364-.3222-.3354-.7248-.2756-1.1199v-2.7732l2.4443 2.9598c.1229.1115.2187.2495.2803.4035.0616.1539.0873.32.0753.4854h3.0842c-.5444-.3346-1.0208-.7689-1.4043-1.28l-2.5599-3.1198 2.3999-2.3643c.4121-.4312.8678-.8184 1.3599-1.1555H64.272c0 .3556-.0445.56-.5244 1.04ZM154.027 7.55518c-.62-.0672-1.246.07342-1.778.39998l.64-1.39548H160l-.613 1.43992c-.146-.15244-.324-.27119-.52-.34798-.197-.07671-.407-.10968-.618-.09644h-1.28v5.72412c-.057.3963.045.7991.284 1.1199h-2.444c.235-.3233.336-.7239.285-1.1199V7.55518h-1.067ZM14.7192.000043C11.8136-.00698793 8.97115.848209 6.55172 2.45742 4.1323 4.06657 2.24476 6.35738 1.12794 9.03981.0111281 11.7222-.284731 14.6758.27785 17.5264c.562547 2.8507 1.9582 5.4704 4.01027 7.5275 2.05215 2.0572 4.66845 3.4591 7.51778 4.0286 2.8493.5695 5.8035.2808 8.4887-.8295 2.6851-1.1104 4.9805-2.9924 6.5955-5.4078 1.6151-2.4155 2.4772-5.2558 2.4772-8.1615.0023-1.926-.3748-3.8335-1.1096-5.61376-.7349-1.78026-1.8132-3.3983-3.1734-4.76178s-2.9757-2.44573-4.754-3.18494C18.5518.38403 16.6451.00238002 14.7192.000043Zm0 27.838457c-2.5983-.0036-5.13715-.7775-7.29552-2.2239-2.15846-1.4464-3.83952-3.5004-4.83058-5.9022-.99106-2.4019-1.24757-5.0437-.73729-7.5913.51037-2.54763 1.7647-4.8867 3.60442-6.72154 1.83972-1.83474 4.18226-3.08276 6.73127-3.5862 2.549-.50343 5.1901-.2397 7.5892.75783 2.3991.99763 4.4486 2.68421 5.8892 4.84649 1.4406 2.16236 2.2077 4.70332 2.2041 7.30152-.0023 1.7252-.3444 3.4331-1.0068 5.026-.6623 1.5929-1.632 3.0399-2.8535 4.2581-1.2215 1.2183-2.6711 2.184-4.2658 2.842-1.5948.658-3.3036.9955-5.0287.9932ZM36.798 5.28012h-3.4042c.2399.27554.2755.52442.2755 1.11994V13.333c.0541.3947-.0444.7953-.2755 1.1199h2.5598c-.24-.2844-.2755-.5155-.2755-1.1199v-1.7777h1.1555c2.3643 0 3.8398-1.1999 3.8398-3.24423s-1.44-3.03095-3.8754-3.03095Zm-.32 5.15528h-.8888V6.32007h.8888c.2819-.03778.5686-.01227.8393.07484.2707.08701.5185.2334.7254.42842.2071.19501.3679.43375.4708.6988.103.26514.1455.54984.1244.83338.0198.28523-.0231.57126-.1258.83808-.1027.26675-.2626.5078-.4686.7061-.2059.19831-.4527.34901-.7233.44161-.2705.0926-.5579.1247-.8422.0941Zm8.1596 3.8398-2.8265-6.39078c-.1832-.48406-.4545-.93008-.8-1.31548h2.7999c-.0892.20159-.1352.41953-.1352.63997 0 .22043.046.43837.1352.63996l1.7776 4.15973 1.5644-4.23973c.0789-.19021.1196-.39402.1196-.59996 0-.20595-.0407-.40985-.1196-.59997h1.9643c-.3236.31847-.5567.71721-.6755 1.15549l-2.2043 5.80417c-.5955 1.5643-1.3244 2.9598-3.1998 2.9598-.7973.0289-1.5738-.2587-2.1599-.8l.5244-1.1199c.1683.2808.4087.5114.6963.6678.2877.1562.612.2326.9392.221.7555.0623 1.2799-.3466 1.6354-1.1732l-.0355-.0089Zm8.284.2844c-2.0799 0-3.7598-1.3155-3.7598-4.0798-.0183-.55638.0797-1.11057.2878-1.62699.2082-.51632.5217-.98359.9208-1.37183.3991-.38825.8749-.68885 1.3968-.88262.522-.19377 1.0786-.27643 1.6343-.24274.6103 0 1.0706.08264 1.4509.15093.2678.04809.496.08906.709.08906.2355.00808.4688-.04711.6755-.16l-.7555 1.77768c-.2464-.27563-.5476-.49704-.8843-.65-.3366-.15306-.7014-.23439-1.0711-.23884-1.4755 0-2.3643 1.27993-2.3643 3.19985 0 1.9199.6844 3.0043 2.2398 3.0043.4786.0087.9524-.0955 1.3833-.3039.4308-.2085.8065-.5155 1.0966-.8961l.3555.8889c-.4184.459-.9339.8193-1.5089 1.0546-.5749.2352-1.195.3394-1.8153.3053l.0089-.0178Zm7.4751 0c-2.0799 0-3.7598-1.3155-3.7598-4.0798-.0183-.55638.0797-1.11057.2878-1.62699.2082-.51632.5218-.98359.9209-1.37183.3991-.38825.8748-.68885 1.3968-.88262.5219-.19377 1.0786-.27643 1.6343-.24274.6102 0 1.0705.08264 1.4509.15093.2678.04809.496.08906.709.08906.2354.00808.4687-.04711.6755-.16l-.72 1.77768c-.2465-.27563-.5476-.49704-.8843-.65-.3366-.15306-.7014-.23439-1.0711-.23884-1.4488-.00888-2.3377 1.27993-2.3377 3.19095 0 1.911.6755 3.0043 2.2399 3.0043.4785.0087.9524-.0955 1.3832-.3039.4308-.2085.8065-.5155 1.0967-.8961l.3555.8889c-.4226.4458-.9351.7969-1.5036 1.0298-.5686.2329-1.18.3424-1.794.3212h-.08Zm6.4796-4.1598 2.7199-2.84425c.48-.47997.5244-.6844.5244-1.03994h2.4443c-.5142.33634-.9909.72672-1.4221 1.16438l-2.3554 2.35541 2.5598 3.1198c.3836.5111.86.9454 1.4044 1.28h-3.0754c.012-.1654-.0137-.3315-.0753-.4854-.0616-.1541-.1574-.292-.2802-.4035l-2.4444-2.9865v2.7732c-.0598.3951.0392.7977.2756 1.1199H64.672c.2218-.3283.3108-.7285.2489-1.1199V7.64444c.0598-.39509-.0392-.79774-.2755-1.11994h2.4798c-.2311.3246-.3296.72511-.2755 1.11994v2.75536h.0266Zm11.9994-2.75536c.0598-.39509-.0392-.79774-.2756-1.11994H81.08c-.2311.3246-.3297.72511-.2755 1.11994V13.333c-.0596.3951.0391.7977.2755 1.1199h-2.4887c.2343-.3233.3359-.724.2844-1.1199V9.47545l-3.3598 3.55535v.3022c-.0599.3951.0392.7977.2755 1.1199h-2.4799c.2344-.3233.336-.724.2845-1.1199V7.64444c.0598-.39509-.0392-.79774-.2756-1.11994h2.4799c-.2311.3246-.3297.72511-.2755 1.11994v3.83976l3.3598-3.55533-.0089-.28443Zm9.155 0c.0596-.39509-.0391-.79774-.2755-1.11994h2.4799c-.2311.3246-.3298.72511-.2756 1.11994V13.333c-.0595.3951.0391.7977.2756 1.1199h-2.4799c.2311-.3246.3297-.7252.2755-1.1199V9.47545l-3.3598 3.55535v.3022c-.0595.3951.0391.7977.2756 1.1199h-2.4799c.2311-.3246.3298-.7252.2755-1.1199V7.64444c.0596-.39509-.0391-.79774-.2755-1.11994h2.4799c-.2311.3246-.3298.72511-.2756 1.11994v3.83976l3.3598-3.55533v-.28443Zm-2.0799-3.43981c-.1368.18763-.2195.40886-.2399.63996 0 .23999.1599.47998.6755.47998.5155 0 .6755-.27555.6755-.47998-.0071-.23403-.0916-.45908-.24-.63996h.7555c.1618.22052.2569.48264.2756.75551 0 .63997-.6045 1.00439-1.52 1.00439s-1.5199-.35554-1.5199-.9955c.0054-.14346.0391-.28443.1005-.41429.0604-.12995.1475-.24603.2551-.34122h.7644l.0177-.00889Zm16.3542 3.00428c-.297-.32923-.661-.59197-1.066-.77116-.406-.17919-.845-.27074-1.2889-.26879-1.8399 0-2.9243 1.43992-2.9243 3.72424 0 2.2843.7999 3.6442 2.9598 3.6442.5084-.0199 1.0074-.1437 1.4654-.3638.459-.2202.868-.5319 1.201-.9161l.516.8889c-.483.4913-1.064.8739-1.707 1.1223-.643.2483-1.33.3566-2.0176.3176-2.7998 0-4.5597-1.6799-4.5597-4.63977-.0178-.64005.0969-1.2769.3369-1.87029.2408-.59348.6017-1.13061 1.0603-1.57743.4587-.44691 1.0044-.79382 1.6044-1.01888.5991-.22505 1.239-.32335 1.8781-.28869.7096 0 1.1786.07377 1.5966.13951.336.05283.639.10048 1.008.10048.356.02346.71-.0736 1.004-.27554l-1.067 2.05322ZM18.5946 24.7636c.4-1.1199.56-3.5642-.64-4.8797.3538.9752.4057 2.0345.1488 3.0396-.2568 1.0051-.8104 1.9096-1.5887 2.5956.1355-.0391.321-.0834.5337-.1341.4151-.099.9337-.2227 1.3862-.3814.0423-.0261.0786-.0611.1061-.1026.0277-.0414.046-.0882.0539-.1374Zm.7999-9.1639c2.0128.4356 3.8836 1.3709 5.4397 2.7198.0889.08.0889.1156.0889.1867-.245.6168-.5423 1.2116-.8888 1.7777-.9856-2.0318-2.6175-3.6793-4.6398-4.6842Zm6.2753-1.04c.019.0517.019.1084 0 .16-.0319.3222-.0048.6475.08.96-1.0288-.8186-2.173-1.4806-3.3954-1.9643.7203-.0037 1.4307-.1677 2.0799-.48-.1184.2898-.3315.5311-.6044.6844.6279.1685 1.2428.3825 1.8399.6399Zm-5.9553 4.0433c.4274.1392.888.1392 1.3154 0-.6466-.1746-1.1932-.6185-1.8234-1.1302-1.1023-.8951-2.4603-1.9977-5.0562-2.2296-.16 0-.5955 0-.3644-.3644.5628-.5763 1.1822-1.0944 1.8488-1.5466-.2844 0-1.6799.1155-2.0799.16-.4.0444-.5155 0-.5155-.3645 0 0-.8.7644-.4 1.1644.157.044.323.044.48 0 .1094 0 .3103-.0748.506-.1477.0904-.0337.1797-.067.2584-.0923-.163.2095-.2974.4397-.4.6844 0 .0478-.0046.091-.0088.1304-.0168.1588-.0272.2571.2932.3496 1.2093.3641 2.3613.8967 3.4221 1.5821 1.1642.7135 2.1204 1.7207 2.7725 2.9203.6521 1.1998.9772 2.5498.9428 3.9149.5482-.3928 1.0707-.8204 1.5644-1.2799v-.24c-.6217-1.3756-1.5671-2.5802-2.7554-3.5109Zm2.8799-9.86556c.2755.1511 1.4399.87995 1.6799 1.03994.1244.06222-.1156.41772-.4533.57772-.0402.2194-.1343.4252-.274.599-.1397.1738-.3205.3101-.526.3965-.2219.0752-.4624.0752-.6844 0l-.2844.2845c-.16.1599-.16.1155-.16 0 .0199-.0938.0199-.1907 0-.2845-.0804-.1669-.1263-.1403-.2276-.0817-.0444.0256-.0993.0574-.1724.0817-.24.08-.24-.16-.24-.16-.219-.0734-.4539-.0857-.6794-.0355-.2256.0501-.4331.1607-.6005.32.2097.0225.4105.0968.5842.2163.1739.1196.3152.2803.4113.4681.0889.1155.56.1155.6044 0 .0445-.1156.16-.16.16 0 .0153.0942.0153.1902 0 .2844.0667.0458.1241.0809.1714.1099.1545.0944.2015.1232.113.2456-.3206.524-.5793.4975-.7155.4836-.0186-.0019-.035-.0036-.0489-.0036-1.0438-.3687-2.1316-.5987-3.2353-.6844l.3999-.4c-5.1552 0-6.0352.6311-6.3196.9955-.0425.0935-.0645.195-.0645.2978 0 .1027.022.2042.0645.2977-1.0096.1196-1.9805.4595-2.8443.9955-.5038.6329-.7484 1.4336-.68441 2.2399.29554-.2769.63117-.5076.9955-.6844.81971-.2934 1.70001-.3759 2.55981-.24.1662-.0098.3315.0308.4742.1164.1427.0857.2563.2123.3258.3636.1156.2311-.2044.2311-.3644.1155-.481-.306-.8159-.1341-1.1659.0455-.2903.149-.591.3034-.994.1945.1127.1178.2531.2054.4083.2551.1552.0497.3205.0598.4805.0294.9155-.3645 1.2 0 1.2.1155-.7003.0651-1.3883.2266-2.0444.48-.3814.0773-.76729.1307-1.15545.16.16515.179.37074.316.59952.3994.22883.0835.47433.1111.71593.0806.8523-.0609 1.7077-.0609 2.5599 0 2.0354.2311 2.1599 2.0709.9955 3.2353.2881-.0921.5539-.2432.7804-.4436.2265-.2005.4087-.4459.5351-.7208.7199 3.1643-2.1955 4.8442-4.5598 4.3642-1.00729-.1592-1.96155-.5586-2.78204-1.1643-.37225-.2649-.72032-.5624-1.03994-.8889 1.82825.4458 3.74698.3469 5.51968-.2844-2.3306.1156-4.64675-.4265-6.68406-1.5644-.53331-.2844-.72885-.4355-.88884-.7999-.46113-.8398-.8108-1.7363-1.03994-2.6665 1.23548 1.0399 3.79534 2.4443 4.99527 2.5598-2.07686-1.1624-3.80476-2.8595-5.00416-4.9153-.22648-.33-.35021-.7196-.35554-1.1199.09831-.9519.29794-1.8904.59552-2.7998.5046 1.5078 1.35362 2.8773 2.47987 3.9997-.83631-1.9182-1.27193-3.987-1.27993-6.07962-.0112-.2783.08781-.54975.27554-.75552.47481-.6237 1.01079-1.19833 1.59991-1.71546-.18772 1.42188-.18772 2.86234 0 4.2842.32887-1.98095 1.0643-3.8724 2.15988-5.55524.12124-.20692.30043-.37384.51553-.47997.70245-.33776 1.44245-.59135 2.20435-.75551-.8082.66254-1.4401 1.5144-1.8399 2.47986 2.1965-2.10559 4.3171-2.67168 5.9934-3.11917.6163-.16455 1.1727-.31306 1.6506-.51619.4444-.24887.6488 0 .6044.27555-.0444.27554-.16.75551-.16.75551.5669.10613 1.0931.36762 1.5199.75551-.0208-.11759-.0208-.23794 0-.35553 1.4399 1.21771 1.8399 2.23987 1.8399 2.99539-.0034.26763.0702.53054.212.75747.1419.22692.3459.40824.588.52246Zm-7.5196.55996c-.2341.06187-.4629.14213-.6844.23999v-.01778c.1726-1.35503.8292-2.6019 1.8488-3.51091-.7833.43837-1.4431 1.0674-1.9186 1.82878-.4755.7613-.7511 1.63031-.8013 2.52652l.8-.3555c-.1426.6715-.1965 1.3588-.16 2.0443.4609-.0796.9279-.1183 1.3955-.1155-.7555-.2845-.7555-1.7244-.24-2.47991.16-.15999 0-.15999-.24-.15999Zm2.5381-5.30828c.0358-.04947.0678-.09382.0929-.13141l.0089-.01778c.0977-.08.0977-.23999-.2489-.02667-.5036.30523-.9081.74983-1.1644 1.27993-.08.15999 0 .28443.16.15999.2496-.10577.5048-.19776.7644-.27554-.105-.30734.1947-.72215.3871-.98852Zm3.1238 4.10835c.2844.04444.2844 0 .2844-.23999l.0089-.01777c.1293-.32176.1325-.68041.0089-1.00439-.1155.6844-.32.6844-.48.6844-.3772-.11226-.7724-.15145-1.1643-.11554.4352.39206.7886.86635 1.0399 1.39547.0265-.2766-.0292-.55481-.16-.79995h.1156c.1207.0104.2383.04364.3466.09777Z"/>
</svg>