<svg xmlns="http://www.w3.org/2000/svg" viewBox="0 0 150 40">
	<path fill="#fff" d="m11.6701 22.1988 3.7597-3.6831v-2.5093l-3.7597 3.6746v2.5178Zm0-9.3396 3.7597-3.70011V6.80293L11.6701 10.469v2.3902Zm0 3.0877 3.7597-3.6831V9.89911l-3.7597 3.67459v2.3732Zm-1.0717-9.11845-.5104-.47634V.5h-.56137v5.29072l-.49335-.48484V.5h-.5699v4.25299l-.50185-.49335V.5h-.56139v5.57992l3.77666 3.68309V.5h-.5699v6.32845h-.0085Zm1.0717 12.20605 3.7597-3.6831v-2.3646l-3.7597 3.6746v2.3731Zm-4.27847-.5188 3.77667 3.6831V19.681l-3.77667-3.6746v2.5093ZM14.8684 4.25964l-.5019.49335V.5h-.5614v4.81438l-.5103.47634V.5h-.5614v5.84361l-.4934.48484V.5h-.5699v9.27152l3.7597-3.6916V.5h-.5614v3.75964ZM7.39163 9.15909l3.77667 3.70011v-2.3817L7.39163 6.79443V9.15909Zm0 3.10471 3.77667 3.6831v-2.3817L7.39163 9.90761v2.35619Zm0 3.0876 3.77667 3.6831v-2.3731l-3.77667-3.6661v2.3561Zm22.43027 1.9479h-9.1524c.1997-.3092.306-.6696.3062-1.0377-.0046-1.0749-.907-1.9695-1.9819-1.9649-1.0684.0046-1.9603.8965-1.9649 1.9649 0 .4253.1361.8166.3658 1.1398-.1713.1139-.2791.3132-.2807.5188 0 .2212.119.4168.2807.5274-.237.3329-.3648.7312-.3658 1.1398 0 1.0702.8947 1.9649 1.9649 1.9649 1.0749.0046 1.9773-.89 1.9819-1.9649 0-.3828-.1106-.74-.3062-1.0377h6.8133v.4168h-.6805v.5784h.6805v.5954h-.6805v1.1058h.6805v-.4934h.9951v.4934h.672v-1.1058h-.672v-.5954h.672v-.5784h-.672v-.4253h1.344c.2594 0 .4763-.2169.4763-.4764v-.2892c-.0044-.2576-.2187-.4718-.4763-.4763Zm-9.8074 2.2966c0 .556-.4648 1.0207-1.0207 1.0207-.556 0-1.0207-.4647-1.0207-1.0207 0-.3906.2655-.7186.4593-1.0377-.1841-.1572-.2923-.3959-.2892-.638 0-.2551.1106-.4763.2807-.6294-.1832-.3206-.4484-.6525-.4423-1.0377 0-.556.4647-1.0207 1.0207-1.0207.5559 0 1.0207.4647 1.0207 1.0207 0 .4168-.4763 1.4035-.4763 1.4035v.5273c-.0085.0085.4678.9952.4678 1.412ZM3.97223 16.1v2.4582c0 2.3391 1.02071 3.8532 1.61613 4.4316l3.89574 3.8277c1.0888 1.0633 1.2759 1.412 1.5226 2.0159v-2.7219c0-2.2153-1.03007-3.1859-1.69296-3.8106-1.15805-1.0912-2.29413-2.2094-3.41916-3.3344-.8511-.7963-1.50866-1.7769-1.92235-2.8665Zm1.92235 8.9398c-.79144-.7173-1.44071-1.5772-1.91385-2.5348v2.118c-.02542 1.632.54629 3.2171 1.60763 4.4571l3.89574 3.8022c1.0507 1.026 1.2617 1.5372 1.4968 2.1068l.0258.0622v-2.8665c0-2.2193-1.03367-3.191-1.69136-3.8094l-.00038-.0003-.00102-.001c-1.15584-1.0869-2.29673-2.2117-3.41936-3.3343ZM16.9021 5.04206c-.2696 0-.5392.00016-.8088.01701v1.1398C22.5861 5.70094 28.8716 9.397 31.5928 15.313c.8917 1.9385 1.3798 4.0382 1.4347 6.1713.11 4.2796-1.5743 8.5003-4.6005 11.5283-3.0262 3.028-7.246 4.7149-11.5256 4.6074-4.172.0045-8.17504-1.6479-11.12907-4.594-2.95403-2.946-4.61726-6.9446-4.62402-11.1166 0-4.8229 2.16903-9.1269 5.59694-12.01893V8.42744C4.64986 9.99526 2.94909 12.0303 1.77814 14.3707.607194 16.7111-.00165217 19.2924.00000337 21.9094c0 9.3141 7.57031663 16.8674 16.90989663 16.8674 4.4765.0022 8.7707-1.7733 11.9385-4.9363 3.1678-3.163 4.9499-7.4545 4.9544-11.9311 0-9.3138-7.57-16.86695-16.9007-16.86734ZM29.6008 29.6158c-.2297.3828-.4848.7571-.74 1.1058v-3.3684h.74v2.2626Zm1.4916-3.3143c-.0235.0776-.0473.1559-.0711.2352-.4083-.4168-1.1398-.4083-1.7948-.3913h-.3657V25.55h2.4497c-.0652.2479-.1405.4959-.2181.7515Zm-17.0575-.8451h.6634V32.1846h-.6634v-6.7282Zm-1.5312-1.2851h2.1946c.5699 0 .9696.1191 1.1908.3403.2297.2126.3402.6124.3402 1.1738v6.2944c0 .5614-.102.9527-.3402 1.1739-.3402.3487-.9867.3487-1.5141.3487l-.3402-.0085v2.9771l.6635.1191v-2.4497c1.0207 0 1.6756-.3403 1.9904-1.0378v3.6491h.2211l.4253-.0085V25.796c0-.5784.1106-.9867.3403-1.2164.2126-.2296.6124-.3402 1.1653-.3402.0782 0 .1614-.0016.2479-.0033.5433-.0104 1.2151-.0234 1.5894.3435.2211.2297.3232.6465.3232 1.2164v3.2323h-1.5056v-3.4535h-.6549v11.0493c.2211-.0255.4253-.0595.6549-.1021v-6.8473h1.5056v6.4986c.3062-.0851.6124-.1786.9186-.2892v-5.9542c0-.6805.1616-1.1908.8506-1.4205l-.7655-4.1424h1.5311l.2551 4.5167h.1872l.2552-4.5167h1.5991l-.8591 4.1424c.7145.2552.8591.689.8591 1.412v3.8532c.4462-.3346.8723-.6953 1.2759-1.0803V24.333h4.4656l.0851-.6125H21.2053l.1446.7571c-.3232-.6125-.9526-.9187-1.8713-.9187h-.6549c-1.1058 0-1.7863.4423-2.0415 1.3184-.2296-.9186-.9356-1.3779-2.0924-1.3779h-2.8581v12.3507c.2212.0765.4424.1531.6635.2126V24.1798l.0085-.0085ZM26.36 28.9177l-.7231-.6805.7231-3.7171v4.3976Zm-2.716 6.2171c-.039.0201-.0779.0401-.1165.0602v-5.4524h.6804v5.0866c-.1768.1061-.3713.2064-.5639.3056ZM126.136 15.1985l-.19-1.4426c-.614.1386-1.244.2027-1.865.2994-1.297.1938-2.572.7205-3.348 1.8237-.816 1.1909-.953 2.7201-.953 4.1237 0 2.2935.88 4.5047 3.416 4.5047 2.068 0 3.335-1.7041 3.335-3.6337 0-1.9028-1.041-3.4977-3.076-3.4977-.666 0-1.333.2114-1.892.5716.127-.8529.418-1.4426.871-1.8237.503-.4422 1.203-.605 1.851-.6805.619-.0663 1.24-.1226 1.851-.2449Zm-4.627 4.1917c.411-.4314 1.066-.6124 1.647-.6124 1.183 0 1.701 1.0327 1.701 2.0959 0 1.047-.451 2.2047-1.661 2.2047-.977 0-1.492-.7678-1.633-1.6604-.1-.6356-.154-1.3815-.054-2.0278Zm9.234 3.7697c.508 0 .894-.0272 1.157-.0816v-1.8237c-.486-.1457-1.026-.1528-1.524-.0817-.522.0782-.994.375-.994.9527 0 .8049.656 1.0343 1.361 1.0343Zm-.136-6.1379c1.809 0 2.885.9985 2.885 2.8172v4.3142c-1.289.2764-2.754.4909-4.056.1906-1.089-.2514-1.701-1.0683-1.701-2.1776 0-1.1116.761-1.8778 1.824-2.0958.769-.1731 1.575-.1565 2.341.0272 0-.9839-.36-1.6876-1.456-1.6876-.609 0-1.248.0627-1.824.2722l-.204-1.3337c.692-.2409 1.462-.3267 2.191-.3267Zm9.23 7.2948h1.646V17.199h-1.646v2.7763h-2.681V17.199h-1.647v7.1178h1.647v-2.9805h2.681v2.9805Zm5.386-4.2598v-2.858h-1.647v7.1178h1.647v-3.1983c1.128.8356 2.123 2.0164 2.872 3.1983H150c-.806-1.4417-1.975-2.8182-3.239-3.8788 1.043-1.0434 2.081-2.1122 3.035-3.239h-1.933c-.833.9892-1.726 1.9436-2.64 2.858Zm-32.315-2.6398c.714-.2748 1.538-.3811 2.3-.3811 1.266 0 2.912.4557 2.912 2.0007 0 .6812-.424 1.2664-1.034 1.5514.803.3034 1.265.9645 1.265 1.8237 0 1.6071-1.729 2.0823-3.075 2.0823-.837 0-1.773-.0891-2.545-.4355l.285-1.3338c.686.2886 1.439.3947 2.178.3947.998 0 1.497-.2903 1.497-.871 0-.7715-.794-.9663-1.443-.9663h-1.361v-1.2248h1.348c.548 0 1.225-.1663 1.225-.8302 0-.6601-.803-.8302-1.32-.8302-.626 0-1.356.0975-1.933.3538l-.299-1.3337Zm-1.185 3.3338c0-2.002-1.318-3.729-3.416-3.729-2.101 0-3.416 1.728-3.416 3.729 0 2.0055 1.305 3.7563 3.416 3.7563 2.123 0 3.416-1.7412 3.416-3.7563Zm-1.687 0c0 1.0815-.469 2.3273-1.729 2.3273-1.271 0-1.728-1.2372-1.728-2.3273 0-1.0842.47-2.3 1.728-2.3 1.247 0 1.729 1.2244 1.729 2.3Zm-9.156-1.2248 1.511-2.3272h1.728l-2.34 3.3615c.914 1.1857 1.837 2.4174 2.517 3.7563h-1.782c-.446-.9399-1.072-1.8337-1.688-2.6675-.645.8298-1.2002 1.7368-1.6876 2.6675h-1.6876c.6603-1.3207 1.5578-2.5428 2.4633-3.7018l-2.3544-3.416h1.81l1.5103 2.3272Zm-7.782.2041c-.2631.0273-.4627.059-.5988.0953V17.199h-1.6468v6.9408c.9526.2198 1.9215.3267 2.8989.3267 1.5498 0 3.0757-.6194 3.0757-2.3817 0-2.0522-2.054-2.5277-3.729-2.3545Zm-.0816 3.4296c-.2269-.0181-.3993-.0362-.5172-.0544v-2.0278c.1361-.0363.3085-.059.5172-.0681.7859-.0683 2.1639-.0558 2.1639 1.048 0 1.1834-1.2998 1.1356-2.1639 1.1023Zm-7.7205-4.6c-.0283 1.2454-.0405 2.5356-.49 3.7154-.4907 1.2883-1.6316 2.0449-2.9805 2.1776l-.2313-1.3746c1.1008-.2159 1.7089-.9474 1.9053-2.0278.1359-.6406.187-1.3062.2042-1.9598.0166-.6305.0136-1.2611.0136-1.8917h5.0355v7.1178H87.106v-5.7569h-1.8101Zm-10.9595 2.232c0 2.2154 1.4289 3.7018 3.6609 3.7018.7407 0 1.6262-.085 2.3001-.4219l-.2178-1.3474c-.582.2495-1.2499.3403-1.8781.3403-1.1615 0-2.0672-.5778-2.1639-1.7965h4.6953c.0201-.2016.0272-.4098.0272-.6124 0-1.9684-.9875-3.6338-3.1166-3.6338-2.0828 0-3.3071 1.8372-3.3071 3.7699Zm4.7769-.7349h-3.0621c.1135-.8704.6503-1.6604 1.6059-1.6604.9243 0 1.4562.7974 1.4562 1.6604Zm-11.1963.7077c0-2.0532 1.4071-3.7427 3.5249-3.7427.6714 0 1.3065.1225 1.9053.3675l-.3538 1.3473c-.4442-.1903-.933-.2858-1.4154-.2858-1.3484 0-1.9734 1.0703-1.9734 2.3137 0 1.3485.669 2.3 2.0823 2.3.5188 0 1.0561-.0887 1.5378-.2858l.2314 1.3609c-.5785.2893-1.324.3539-1.9598.3539-2.2272 0-3.5793-1.5492-3.5793-3.729Zm-6.4193 0c0 2.1798 1.352 3.729 3.5793 3.729.6357 0 1.3813-.0646 1.9598-.3539l-.2314-1.3609c-.4818.1971-1.019.2858-1.5379.2858-1.4132 0-2.0823-.9515-2.0823-2.3 0-1.2434.6251-2.3137 1.9734-2.3137.4825 0 .9713.0955 1.4154.2858l.3539-1.3473c-.5988-.245-1.234-.3675-1.9054-.3675-2.1177 0-3.5248 1.6895-3.5248 3.7427Zm-1.3019-.0137c0 2.0151-1.2936 3.7563-3.416 3.7563-2.1112 0-3.416-1.7508-3.416-3.7563 0-2.001 1.3148-3.729 3.416-3.729 2.0975 0 3.416 1.727 3.416 3.729Zm-1.6876 0c0-1.0756-.4817-2.3-1.7284-2.3-1.2581 0-1.7284 1.2158-1.7284 2.3 0 1.0901.457 2.3273 1.7284 2.3273 1.26 0 1.7284-1.2459 1.7284-2.3273Zm-7.3363-5.2124c-.7259-.4991-1.7738-.7486-3.1438-.7486-.8854 0-1.8017.0346-2.6675.2314v9.2953h1.7148V20.996h.8574c.6896 0 1.302-.059 1.8373-.1769 1.5105-.3328 2.5042-1.3501 2.5042-2.9397 0-1.0615-.3675-1.8418-1.1024-2.3408Zm-4.0965.7757c.2813-.0272.6397-.0408 1.0752-.0408 1.0783 0 2.3272.2891 2.3272 1.5923 0 1.4517-1.3917 1.6604-2.5722 1.6604h-.8302v-3.2119Z"/>
</svg>