<svg xmlns="http://www.w3.org/2000/svg" viewBox="0 0 160 24">
	<path fill="#fff" d="M19.6342 6.50845c.1312.25137.2056.54337.2056.836 0 .84871-.7507 1.71235-2.0064 1.71235h-.007l-.0013.00125h-2.0776c.9211-.78809 1.4981-1.9128 1.4987-3.27983-.0012-2.71698-2.2609-4.54782-5.8665-4.54782-.0363 0-.0655.0088-.1037.01022v1.90142c1.5782.13992 2.525 1.25832 2.525 2.61138 0 1.62978-1.3215 3.28303-3.3954 3.30463H8.20766c1.06498-.91147 1.72658-2.21609 1.7272-3.7984C9.93309 2.11645 7.31904 0 3.14588 0c-.04266 0-.07582.00657738-.11946.00782183V2.15982C4.84944 2.32258 6.1186 3.60205 6.1186 5.1656c0 2.28516-1.99876 3.86338-4.3984 3.89245H0v2.55535l1.65148.0014c2.43014-.0014 4.46712 1.584 4.46712 3.8926 0 1.565-1.26916 2.846-3.09218 3.0076v2.1522c.04364.0012.0768.007.11946.007 4.17316 0 6.78721-2.1152 6.78898-5.2628-.00062-1.5822-.6648-2.8874-1.7336-3.7992h2.16164c2.0989 0 3.4381 1.6688 3.4381 3.3098 0 1.3508-.9468 2.4704-2.525 2.6116v1.9028c.0382 0 .0674.0076.1037.0076 3.6056 0 5.8653-1.8308 5.8665-4.5478-.0006-1.3696-.5801-2.4958-1.5052-3.2852l2.0841.0012h.0083c1.2557 0 2.0064.8614 2.0064 1.7122 0 .2918-.0744.5856-.2056.8376 3.1359-.6038 5.3909-3.8264 5.3922-3.8264-.0013 0-2.2563-3.22138-5.3922-3.82715ZM152.526 6.71049v4.88831l4.068-4.88831H160l-4.57 5.17831c1.623.2411 2.617 1.5019 3.416 3.3875.361.8933.797 2.0917 1.082 3.2189h-3.158c-.112-.5783-.347-1.3784-.783-2.518-.651-1.6201-1.545-2.3944-3.071-2.3944h-.39v4.9124h-2.972V6.71049h2.972Zm-13.16 0V11.212h4.547V6.71049h2.978V18.4952h-2.978v-4.9618h-4.547v4.9618h-2.977V6.71049h2.977Zm-25.223 9.60591c.435.0738.97.098 1.573.098 1.091 0 2.154-.3405 2.854-1.016.511-.5351.85-1.2359.85-2.1311 0-1.0389-.435-1.74-1.089-2.224-.727-.5585-1.742-.7768-2.71-.7768-.462 0-.993.0504-1.478.0968v5.9531Zm7.112-14.13276v2.4448h-7.112v3.51103c.533-.07325 1.404-.12285 2.009-.12285 1.596 0 3.218.38738 4.402 1.23342 1.186.79956 1.986 2.10686 1.986 3.94526 0 1.5733-.555 2.7819-1.477 3.6301-1.45 1.3294-3.846 1.8416-6.219 1.8416-1.67 0-2.878-.1229-3.65-.2208V2.18364h10.061ZM95.2275 13.5593c0 .2895.0231.5567.072.8213.3147 1.2106 1.3529 2.0808 2.6373 2.0808 1.8889 0 3.0012-1.5701 3.0012-3.8957 0-2.0809-1.0163-3.77441-2.9274-3.77441-1.2346 0-2.3733.89316-2.6871 2.20261-.0515.2422-.096.508-.096.7491v1.8163Zm-2.976-6.84881h3.0205v1.81636c.8737-1.33218 1.9395-2.08356 3.7315-2.08356 2.7085 0 4.9575 2.32391 4.9575 6.00211 0 4.2603-2.685 6.3157-5.3699 6.3157-1.4756 0-2.712-.6298-3.3191-1.5731v6.0998h-3.0205V6.71049Zm-4.7253 4.64641c.0231-1.0904-.4622-2.8809-2.4454-2.8809-1.8391 0-2.6124 1.6716-2.7333 2.8809h5.1787Zm-5.1787 2.0808c.0738 2.1267 1.7173 3.0504 3.6293 3.0504 1.3778 0 2.3467-.2227 3.2676-.5342l.4356 2.0344c-1.0187.4363-2.4223.7486-4.1156.7486-3.8231 0-6.0712-2.3467-6.0712-5.9542 0-3.2635 1.9814-6.33941 5.7583-6.33941 3.8231 0 5.0818 3.14711 5.0818 5.73621 0 .5553-.0462.9893-.0987 1.2582h-7.8871ZM72.2894 8.81742c-.9912 0-1.717.53005-2.1286 1.25458-.3855.6337-.6056 1.4299-.6056 2.3971 0 1.7422.8003 4.1381 2.8086 4.1381 2.0096 0 2.7348-2.0071 2.7348-3.9188 0-1.7195-.6513-3.87098-2.8092-3.87098Zm4.504-5.37538c-.6554.21805-1.8168.38996-2.6382.48543-1.8194.24222-3.1114.7672-3.9479 1.8384-1.1127 1.42515-1.1864 3.36595-1.1864 3.36595.7544-1.50062 2.2773-2.42133 3.9696-2.42133 3.0776 0 5.1599 2.22533 5.1599 5.85521 0 3.8245-2.3005 6.1954-5.7866 6.1954-4.1394 0-5.8806-3.5829-5.8806-7.8163 0-2.90471.6998-5.25031 2.201-6.8736 1.1591-1.40338 2.7826-2.12658 5.0118-2.44098 1.0382-.1488 2.4178-.31493 3.241-.55795l-.1436 2.36977ZM57.2241 6.71049l2.8549 8.39031 2.4702-8.39031h3.1656l-2.9486 8.03141c-1.6246 4.4053-2.7101 6.3659-4.0906 7.5747-1.187 1.0178-2.3982 1.4064-3.1234 1.5007l-.6777-2.49c.5072-.1227 1.1113-.3875 1.7176-.8225.5816-.3645 1.2355-1.0669 1.6472-1.8645.1221-.2157.1699-.3875.1699-.5312 0-.1208-.0237-.2914-.1453-.5816L53.9318 6.71049h3.2923ZM31.3057 3.16907c1.1133-.70107 2.6859-1.28178 4.7177-1.28178 3.245 0 5.2762 1.64578 5.2762 4.08916 0 2.0344-1.2074 3.55217-3.3157 3.97075 2.1211.2635 3.8738 1.7176 3.896 3.9652 0 3.5338-3.3385 4.8424-6.338 4.8424-1.598 0-3.2914-.3379-4.6242-1.1158l.6787-2.2979c.8226.4377 2.3952.9925 3.8234.9925 2.1062 0 3.3398-1.0148 3.3398-2.5892 0-2.0796-2.1057-2.5878-3.8952-2.5878h-1.2838V8.9288h1.2838c1.8874 0 3.3386-1.01653 3.3386-2.49191 0-1.33005-1.0173-2.12845-2.6871-2.12845-1.2329 0-2.5892.5064-3.483.99245l-.7272-2.13182ZM130.894 12.759c-2.105-.0267-4.113.411-4.113 2.2011 0 1.1603.751 1.6946 1.695 1.6946 1.208 0 2.058-.7746 2.348-1.6219.07-.217.07-.4352.07-.6522V12.759Zm2.904 5.7586h-2.709v-1.3061s-.832 1.5718-3.557 1.5718c-2.373 0-3.701-1.7169-3.701-3.507 0-2.9549 2.635-4.4778 6.993-4.4555v-.1928c0-.77298-.316-2.05493-2.397-2.05493-1.162 0-2.37.36017-3.17.87102l-.581-1.93707c.872-.5304 2.396-1.03893 4.26-1.03893 3.775 0 4.862 2.39333 4.862 4.98371v7.0658Zm-83.5038-5.7732c-2.1042-.0254-4.1133.4117-4.1133 2.2036 0 1.1592.7513 1.6921 1.6947 1.6921 1.2101 0 2.0579-.7741 2.3474-1.6214.0712-.2183.0712-.4365.0712-.6533v-1.621Zm2.9041 5.7584h-2.7101v-1.3067s-.8324 1.5739-3.556 1.5739c-2.3728 0-3.7017-1.7188-3.7017-3.5097 0-2.9511 2.6349-4.4739 6.9925-4.453v-.1928c0-.77406-.3149-2.05601-2.3957-2.05601-1.1624 0-2.3717.36151-3.1706.87156l-.5801-1.93636c.8707-.53049 2.3958-1.03885 4.2588-1.03885 3.7759 0 4.8629 2.39458 4.8629 4.98156v7.0664Z"/>
</svg>