<svg xmlns="http://www.w3.org/2000/svg" viewBox="0 0 160 26">
	<g fill="#fff">
		<path d="m71.5463 8.05468 3.3781-2.48916H63.7233V20.3226h11.2011v-2.4891h-8.0008v-3.7337h6.7563v-2.4892h-6.7563V8.05468h4.6227Zm-13.957 0 3.3781-2.48916H48.1661V20.3226h6.6673c3.7338 0 5.8673-1.689 5.8673-4.6227 0-2.8447-1.9557-4.356-5.5117-4.356h-3.9115V8.05468h6.3118Zm-2.8448 5.68952c2.0447 0 2.9337.7112 2.9337 2.0446 0 1.3335-.9779 2.0447-2.9337 2.0447h-3.3781v-4.0893h3.3781Zm29.1587-8.17868h-6.0451V20.3226h3.2003v-4.1782h2.9337c3.9115 0 6.3117-2.0446 6.3117-5.3339 0-3.28921-2.4891-5.24498-6.4006-5.24498Zm0 8.08978h-2.8448V7.96578h2.8448c2.0446 0 3.2003.97788 3.2003 2.84472-.0889 1.8669-1.1557 2.8448-3.2003 2.8448Zm-41.1599 3.467c-.889.4445-1.778.7112-2.7559.7112-2.8447 0-4.9783-2.0447-4.9783-4.8894 0-2.8448 2.0447-4.88942 4.9783-4.88942 1.0668 0 2.0447.35559 2.9337.88898l2.3113-1.68907-.1778-.1778c-1.3335-1.15567-3.1114-1.77796-5.1561-1.77796-2.2224 0-4.1782.71118-5.6895 2.13356-1.4223 1.42237-2.3113 3.37811-2.2224 5.42281 0 2.0446.8001 4.0004 2.2224 5.5117 1.5113 1.4223 3.556 2.2224 5.6006 2.1335 2.3114 0 4.2671-.8001 5.6895-2.2224l-2.0446-1.5113-.7112.3556Zm95.9217-5.5117h-6.846V5.56552h-3.2V20.3226h3.2v-6.045h6.846v6.045h3.2V5.56552h-3.2v6.04508Zm-21.603-6.04508-6.4 14.75708h3.2l1.244-2.9336h6.757l1.244 2.9336h3.378l-6.222-14.75708h-3.201Zm-.889 9.33428 2.489-5.95614 2.312 5.95614h-4.801Zm37.249-2.2224 5.778-7.11188h-3.645l-4.8 6.31178h-1.778V5.56552h-3.201V20.3226h3.201v-5.9561h2.044l4.89 5.9561H160l-6.578-7.6452Zm-49.428-1.3335h-3.911V8.05468h8.356V5.56552H96.8823V20.3226h6.6677c3.733 0 5.867-1.689 5.867-4.6227.089-2.8447-1.867-4.356-5.423-4.356Zm-.533 6.5785h-3.378v-4.0893h3.378c2.044 0 2.933.7111 2.933 2.0446.089 1.3335-.977 2.0447-2.933 2.0447Z"/>
		<path d="M12.1352.500009h-.0024C9.00143.49614 5.94384 1.75413 3.70635 3.94144.139942 7.41301-.981235 12.9088.906377 17.5246c1.178233 2.8812 3.454653 5.2655 6.297073 6.5441 3.01955 1.358 6.52385 1.4049 9.57765.1223 2.8763-1.2081 5.2083-3.5264 6.4592-6.3837.9856-2.251 1.2772-4.7841.8505-7.2021l-2.615 1.9531c0 1.4133-.2327 2.7928-.8031 4.0936-.9631 2.1959-2.7548 3.9795-4.9655 4.9094-2.35.9885-5.0386.9525-7.36386-.0947-2.1871-.9851-3.93384-2.8146-4.84227-5.0329-.97369-2.3776-.93941-5.1106.09217-7.46276.96243-2.1944 2.7532-3.97707 4.96453-4.90736 2.89553-1.21812 6.25013-.86935 8.84163.93242l2.3621-1.76456C17.6257 1.47868 14.897.49648 12.1352.500009Zm9.6112 4.785221c.5771.75619 1.0657 1.57773 1.4558 2.44813L12.1354 16.0011l-4.62518-2.9383V9.52787l4.62518 2.93833 9.611-7.18097Z"/>
	</g>
</svg>