<svg xmlns="http://www.w3.org/2000/svg" viewBox="0 0 84 40">
	<path fill="#fff" d="M46.5215 26.2788h5.5464c.9847.0045 1.9407-.331 2.7066-.9499.7659-.6188 1.2948-1.483 1.4972-2.4467.0719-.4125.0719-.8343 0-1.2467-.0783-.3313-.2314-.6402-.4475-.9031-.2164-.265-.4896-.478-.7992-.6234l-.3037-.1279h-.1199c.0663-.0558.1387-.1041.2158-.1438.6772-.3657 1.2327-.9212 1.5984-1.5984.2243-.4063.3425-.8626.3436-1.3267.0077-.2102-.0165-.4204-.0719-.6234-.048-.1661-.1067-.329-.1758-.4875-.1813-.386-.4588-.7189-.8059-.9666-.3472-.2478-.7522-.402-1.1761-.448h-5.6983l-2.3097 11.8921Zm7.0649-10.4535c.7992.0479 1.1988.2557 1.4066.7033.1187.2488.171.5241.1518.7992-.0114.4127-.1494.8119-.3953 1.1435-.2459.3316-.5877.5797-.9793.7106-1.4219.1608-2.8538.2142-4.2837.1599 0-.04.6793-3.5325.6793-3.5405 0-.008 2.5814-.032 3.4206.024Zm-.4715 5.0429c.2789.0299.5499.1112.7992.2398.2432.1431.4424.3505.5754.5994.1275.246.1829.5231.1598.7992-.0176.4159-.1414.8203-.3596 1.1748-.2206.3539-.5253.6477-.8871.8552-.4661.2317-.9823.3443-1.5025.3276-.5115 0-3.4526.04-3.4526 0 0-.0399.7992-3.996.7992-4.0439 0-.048.7113 0 1.8702 0 .6743-.02 1.3493-.004 2.0219.0479h-.0239Zm22.0099 5.4346h1.4945l.6554-3.3966 1.2148-.999 2.0379 4.3956h1.8222l-2.5894-5.4106 3.9081-3.1968h-1.8941l-4.1479 3.4206 1.2628-6.7293h-1.4706l-2.2937 11.9161ZM61.986 17.5116c-.4504.0322-.8971.1044-1.3347.2158-.8594.211-1.6124.7281-2.1179 1.4545-.178.2856-.333.5849-.4635.8951 0 .04 0 .04.6873.1279.2095.0233.4176.058.6234.1039 0 0 .0799 0 .1758-.1918.2135-.492.5809-.9015 1.047-1.1668.7802-.3171 1.6445-.3622 2.4535-.1279.1528.0483.2942.1271.4156.2317.1184.1106.2135.2438.2797.3917.088.3488.088.714 0 1.0629l-.0559.2717-.2797.0799c-.7886.194-1.5898.3329-2.3976.4156-.5674.0552-1.129.1595-1.6784.3117-.5237.1556-1.0048.429-1.4066.7992-.2744.2549-.4993.5584-.6633.8951-.1629.3228-.2529.6775-.2637 1.039-.0231.3577.0457.7153.1998 1.0389.1489.2767.3663.5106.6313.6794.2643.1645.5619.2682.8712.3037.4784.0744.9638.0932 1.4465.0559.9551-.114 1.8641-.4749 2.6374-1.047l.2238-.1598v.2717c-.0149.2364.0067.4736.0639.7033v.0959h.7992c.2661.0167.5331.0167.7992 0-.0046-.0647-.0237-.1275-.056-.1838-.081-.2586-.1214-.5282-.1198-.7992.1032-1.1491.2874-2.2895.5514-3.4126.4156-2.1498.4396-2.3976.4076-2.7732-.0092-.2288-.0693-.4526-.1758-.6553-.1098-.2016-.2659-.3742-.4556-.5035-.856-.434-1.8182-.6142-2.7732-.5195l-.0719.0959Zm1.4945 4.5554c0 .064-.1678.7992-.2238 1.031-.0961.4093-.2878.79-.5594 1.1109-.2727.3205-.6106.5793-.991.7592-.5005.2352-1.0455.3605-1.5984.3677-.2227.0215-.4474.0025-.6634-.056-.2178-.0653-.4175-.1802-.5834-.3356-.1467-.1522-.2271-.3562-.2238-.5675-.0052-.2814.0697-.5586.2158-.7992.1495-.2525.3726-.4533.6394-.5754.5085-.2162 1.0479-.3511 1.5984-.3996.7561-.0886 1.5025-.2464 2.2298-.4715.0959-.0879.1118-.0879.1118-.048l.048-.016Zm8.0399-4.5554c-.9091.0734-1.7609.4737-2.3976 1.1269-.1758.1598-.2157.2078-.2157.1518 0-.0559.2157-1.0629.2157-1.0629h-1.3506l-1.5984 8.6313h1.5025s.943-4.8911.991-5.1228c.1213-.7242.4881-1.3846 1.039-1.8702.3656-.3004.8087-.4913 1.2782-.5507.4695-.0594.9462.0152 1.3751.2151.1988.1352.3521.3274.4396.5514.0949.2189.1201.4617.0719.6953 0 .3517-1.1189 6.0819-1.1189 6.0819h1.5105s1.1189-5.8661 1.1748-6.0499c.0798-.3552.0798-.7237 0-1.0789-.0699-.3579-.2172-.6961-.4315-.991-.1605-.1739-.3532-.3151-.5675-.4156-.5937-.2662-1.2464-.3736-1.8941-.3117h-.024ZM5.18684 33.9991c-.37198-.0012-.73409.1195-1.03097.3436-.29074.2297-.50071.546-.5994.9031-.05679.2044-.03981.4223.04795.6154.08548.1935.23509.3516.42358.4476.29589.1395.60701.2441.92707.3117.7992.2078.999.3117 1.07892.5834.01446.1331-.00478.2678-.05595.3916-.0493.1243-.12899.2342-.23176.3197-.24478.1639-.52711.263-.82062.2882-.29351.0252-.58861-.0245-.8577-.1444-.13965-.0611-.2589-.161-.34366-.2877-.07896-.1326-.11783-.2853-.11189-.4395 0-.1919 0-.1919-.06393-.1839-.09793.016-.19779.016-.29571 0h-.21578v.08c-.03988.1708-.03988.3486 0 .5194.05494.2387.18355.4539.36763.6154.18105.1644.40594.2727.64735.3117.41247.0719.83428.0719 1.24675 0 .38853-.082.74432-.2766 1.02298-.5594.12681-.1271.22969-.276.3037-.4396.06774-.1674.10039-.3469.0959-.5275.00843-.2261-.06539-.4475-.20779-.6233-.23177-.2398-.44755-.3357-1.24675-.5435-.7992-.2078-.92708-.2717-1.007-.4316-.04388-.1241-.04388-.2595 0-.3836.03139-.1247.10477-.2347.2078-.3117.14136-.1157.30549-.2005.48173-.2486.17624-.0482.36065-.0588.54124-.0311.62338 0 .7992.2078.87113.6873v.1758h.59141v-.1838c.01598-.8871-.64735-1.3746-1.74226-1.2787l-.02397.024Zm18.98096.0959s-.1118.5674-.1118.6234c0 .0559.1198 0 .2957 0h.2957l.0559-.3117c.0089-.1113.0304-.2212.0639-.3277-.0979-.016-.1977-.016-.2957 0h-.3037v.016Zm5.9381 0s-.1998 1.039-.4236 2.2857c-.2238 1.2468-.4315 2.2777-.4315 2.2857 0 .008 2.2297 0 2.3976 0 .2188-.0476.429-.1284.6233-.2397.3311-.2221.5742-.5528.6873-.9351.086-.2595.086-.5397 0-.7992-.0982-.1716-.242-.3127-.4155-.4076h-.1439l.1359-.0799c.3031-.176.5264-.4624.6233-.7992.0872-.262.073-.5472-.0399-.7992-.0596-.1382-.1531-.2592-.2717-.3517-.1222-.0931-.2646-.1561-.4156-.1838-.4137-.0494-.8308-.0628-1.2468-.0399l-1.0789.0639Zm2.1099.6234c.0681.0246.1306.0627.1838.1119.0537.0466.0972.1037.1279.1678.0083.0663.0083.1335 0 .1998-.0142.1871-.0901.3642-.2158.5035-.1304.139-.3061.2269-.4955.2477h-1.3906l.1678-.6553c.0719-.3756.1359-.6633.1359-.6873h.7113c.2676.0077.5345.0317.7992.0719l-.024.04Zm-.3996 1.8781c.0839.0013.1663.0233.2397.0639.0777.038.1439.0959.1919.1679.0539.0701.0895.1524.1038.2397.02.0814.02.1664 0 .2478-.0218.1325-.0738.2583-.1518.3676-.0757.1077-.1739.1976-.2877.2637-.2398.1359-.3517.1439-1.1668.1439h-.7513v-.056s.0639-.3676.1519-.7272c.0879-.3597.1278-.6953.1278-.7113.532-.042 1.0665-.042 1.5984 0h-.0559Zm8.7352-2.4615c-.0237.1909-.0584.3804-.1039.5674.0971.024.1986.024.2957 0h.2878l.0639-.2877c.0089-.1087.0304-.216.0639-.3197 0-.048 0-.048-.2797-.048s-.3197 0-.3197.072l-.008.016Zm15.7523 0-.8392 4.5074h.6394l.8791-4.5714-.6793.064Zm-48.05593.2317-.2957.1679-.06394.3756c0 .2238-.07992.3996-.07992.4076 0 .008-.08791 0-.21578 0h-.1998v.1598c-.00847.078-.02181.1554-.03996.2318 0 .0479 0 .0559.1998.0719h.22377l-.1998.983c-.10389.5435-.20779 1.1189-.22377 1.2468v.3996c.01767.0453.04456.0864.07895.1208.03439.0344.07554.0613.12085.079.13586.0719.16783.0719.43157.0719h.44755v-.5115h-.17583c-.1918 0-.27172 0-.32767-.1279-.05594-.1278 0-.1518.17583-1.1508l.21578-1.1029h.57542v-.1918c.00937-.0785.02541-.156.04796-.2318h-.28772c-.28771 0-.27972 0-.27972-.0559 0-.056.05595-.2558.1039-.5195.02823-.1724.06558-.3431.11189-.5115.00491-.0085.00749-.0181.00749-.028 0-.0098-.00258-.0194-.00749-.0279-.11647.0369-.22687.0908-.32767.1598l-.01599-.016Zm7.24873.1679-.1598.7992h-.3916l-.0879.4475h.3996s-.0959.5035-.1998 1.0789c-.1061.4219-.173.8526-.1998 1.2867 0 .2478 0 .2558.0639.3437.1056.0979.2342.1675.3739.2025.1398.0349.286.034.4253-.0027.1199 0 .2238 0 .2238-.04v-.5274h-.1519c-.2557 0-.3756-.04-.3756-.2078 0 0 .0959-.5435.1998-1.0949.1039-.5515.1998-1.039.1998-1.039h.5674l.1119-.4475h-.5674l.1918-1.1589-.6234.3597Zm58.8291-.1679c-.1598.0799-.3117.1758-.3117.2078s0 .1998-.0799.4156l-.0639.3676h-.1678c-.2238 0-.2158 0-.2558.2318-.0399.2318-.0559.2158.1758.2158h.1998s-.0959.4795-.1998 1.0549c-.2157 1.1189-.2557 1.4546-.1918 1.5984.0308.0569.0729.1068.1238.1466.0509.0399.1094.0689.1719.0852.2066.032.4168.032.6234 0h.1439v-.4715c0-.048 0-.056-.1279-.04-.2557 0-.3756-.0479-.3756-.2158 0-.1678.3356-1.9181.3356-2.1578 0-.048 0-.048.2957-.048h.2798v-.4475h-.5675s.048-.2558.0959-.5435c.1039-.5434.1039-.5834.08-.5834-.0652.0573-.1266.1187-.1839.1838Zm-63.7841.9111c-.1267.0566-.2388.1413-.3277.2478l-.1838.1918v-.2238l.0479-.2158h-.27169c-.25574 0-.26373 0-.27972.056-.01598.0559-.15185.7592-.31169 1.5984-.15984.8391-.30369 1.5984-.30369 1.5984s0 .0479.27972.0479h.30369c.008 0 .07992-.4396.17583-.9111.05593-.4701.16864-.9316.33565-1.3746.0666-.1724.1908-.3165.3517-.4076.0915-.047.1928-.0715.2957-.0715.1028 0 .2042.0245.2957.0715l.1198.0559.1519-.2797c.1518-.2797.1518-.2797-.048-.3756-.217-.0599-.4462-.0599-.6633 0l.032-.008Zm2.1258 0c-.3418.0499-.657.2131-.8951.4635-.1376.152-.246.3281-.3196.5195.1613.0467.3277.0735.4955.0799.0559 0 .0799 0 .1198-.1198.0661-.1366.165-.2546.2878-.3437.1301-.0833.2779-.1353.4315-.1518.2499-.0472.5085-.0017.7273.1278.0316.0319.0561.07.0719.1119.0399.1275.0399.2641 0 .3916v.1759h-.0799c-.2979.0694-.5994.1227-.9031.1598-.2557.04-.5434.0799-.6234.1039-.1833.0464-.3548.1308-.5035.2477-.1509.1149-.2739.2624-.3596.4316-.0806.1344-.1117.2927-.0879.4476 0 .2717 0 .2877.0879.4076.0982.1441.2374.2555.3996.3196.1621.0654.3383.0874.5115.064.4198.0169.8333-.1069 1.1748-.3517l.1119-.0639v.3436c.1079.0241.2198.0241.3277 0h.2957v-.0639c-.072-.3037-.048-.4955.1758-1.6703.1598-.8472.1678-1.0789.0799-1.2548-.072-.1052-.1644-.1949-.2717-.2637-.1074-.0659-.227-.1094-.3517-.1279-.3018-.0241-.6055-.008-.9031.048v-.032Zm.8632 1.8142c-.0417.2131-.1032.4218-.1838.6234-.0558.0859-.123.1639-.1998.2317-.2377.2107-.5456.3248-.8632.3197-.3196 0-.4795-.0799-.5674-.2797-.021-.0379-.032-.0805-.032-.1239 0-.0433.011-.0859.032-.1239.0216-.1022.0715-.1963.1439-.2717.1438-.1678.2877-.2238.8631-.3197.2266-.0298.4509-.0752.6713-.1358.1599 0 .1519 0 .1359.0639v.016Zm4.4435-1.8142c-.4256.1126-.802.3627-1.0709.7113-.2806.4007-.4464.8705-.4795 1.3586-.0515.2977.0112.6038.1757.8572.1645.2534.4185.4354.7114.5095.3246.0639.6585.0639.983 0 .3565-.104.6685-.3232.8871-.6234.1084-.1231.1901-.2673.2398-.4236-.1951-.0416-.3926-.0709-.5914-.0879-.0249.0531-.0543.1039-.0879.1519-.1196.1901-.2879.3446-.4875.4475-.1287.0636-.2731.0886-.4156.0719-.2558 0-.2797 0-.3996-.0799-.0728-.0387-.14-.0871-.1998-.1438-.0547-.0641-.0979-.1371-.1279-.2158-.0731-.1797-.0952-.376-.0639-.5675v-.0639h1.2467c1.1589 0 1.2468 0 1.2468-.0479.0559-.2029.0801-.4132.0719-.6234.0458-.2468.0047-.5019-.1162-.7219-.1209-.22-.3142-.3913-.5471-.4849-.1587-.0569-.3277-.0787-.4955-.064-.1579-.0357-.3217-.0357-.4796 0v.04Zm.6714.5195c.1299.0594.2386.157.3117.2797.069.1273.1021.2709.0959.4156v.1598h-1.8782v-.0479c.1121-.3165.3331-.5828.6234-.7513.1266-.0759.2686-.1223.4156-.1358.1468-.0108.2942.0111.4316.0639v.016Zm2.7652-.5195c-.2559.0659-.4937.1888-.6953.3596-.2006.1711-.3615.3838-.4715.6234-.4716.9351-.3277 1.998.3356 2.2937.2333.1032.4915.1365.7433.0959.2546-.0325.4953-.1348.6953-.2957.1039-.0879.1199-.0879.1039-.0399-.0324.0936-.0565.1898-.0719.2877-.0249.1902-.0963.3714-.2078.5275-.116.1379-.2642.245-.4315.312-.1673.0669-.3485.0915-.5276.0716-.3596 0-.5594-.1838-.5594-.4236v-.1119l-.2797-.04h-.2877c-.0162.0711-.0162.1448 0 .2158-.0193.1082-.0054.2196.0399.3197.0394.1034.1056.1944.1918.2637.1422.1112.3053.1927.4795.2398.1771.0319.3584.0319.5355 0 .1916.0225.3854.0171.5754-.016.1979-.0749.3789-.1884.5325-.3338.1537-.1454.2769-.3199.3626-.5133.2565-.7022.4308-1.4316.5195-2.1739.1519-.7992.2877-1.5184.2877-1.5504 0-.032 0-.0559-.2557-.0559-.2558 0-.2797 0-.3197.1758-.04.1758 0 .1758-.1918 0-.0887-.0822-.1934-.1452-.3075-.1851-.1141-.0398-.2353-.0557-.3558-.0467-.1459-.0202-.2938-.0202-.4396 0Zm.6234.5275c.0761.0367.144.0884.1998.1518.0544.0672.0976.1428.1278.2238.056.1253.0727.2646.048.3996-.0082.323-.0816.6411-.2158.9351-.1241.2386-.3123.4378-.5434.5754-.1233.0713-.2659.1021-.4076.0879-.12.008-.2402-.0111-.3517-.0559-.1518-.0953-.2672-.2389-.3277-.4076-.0518-.1693-.0518-.3502 0-.5195.0156-.4072.1708-.7967.4396-1.1029.1168-.1632.2859-.2816.4793-.3354.1934-.0538.3993-.0398.5836.0397l-.0319.008Zm4.2677-.5275c-.2978.0671-.5732.2103-.7992.4156-.4196.4297-.667.9984-.6953 1.5984-.0879.9031.3117 1.4066 1.1189 1.4625.3386.0156.6744-.0676.9666-.2392.2923-.1717.5284-.4245.6797-.7278.1439-.3037.1439-.2797-.1119-.3117-.2557-.032-.3356-.0559-.4315.1439-.0663.1763-.1831.3291-.3357.4395-.1505.1081-.327.1743-.5115.1918-.1752.0188-.3513-.0266-.4955-.1278-.3117-.1998-.3596-.6953-.1838-1.3427.0319-.1883.1026-.368.2078-.5275.1122-.1537.2534-.284.4156-.3836.1429-.0975.3151-.1426.4875-.1279.1715.0139.3327.0874.4555.2078.0845.1201.1343.2611.1439.4076 0 .056 0 .056.0799.04l.2957-.04h.2158v-.1518c-.0023-.1874-.0638-.3693-.1758-.5195-.1136-.1529-.269-.2695-.4476-.3357-.2719-.0809-.5581-.1027-.8391-.0639l-.04-.008Zm11.7243 0c-.2093.0329-.4087.112-.5834.2318-.1703.1205-.3099.2793-.4076.4635-.094.2082-.1137.4423-.056.6633.1039.2798.3197.3996 1.1269.6314.5514.1439.6234.2158.6234.3996-.0136.1276-.0667.2478-.1519.3437-.0854.0939-.1966.1606-.3197.1918-.2863.0711-.589.0312-.8471-.1119-.0593-.0576-.108-.1253-.1439-.1998-.036-.0753-.0577-.1566-.0639-.2398v-.0879h-.0879l-.3117.04h-.2158v.1758c-.0055.1224.0135.2447.056.3596.0445.1165.1125.2226.1998.3117.0871.0879.1901.1585.3036.2078.1137.0483.2362.0728.3597.072.3911.0905.8019.0306 1.1508-.1679.3455-.2028.6022-.528.7193-.9111.0319-.1014.0319-.2102 0-.3117-.0235-.1015-.0731-.1952-.1438-.2717-.1359-.1438-.3117-.2318-.9511-.4156-.5115-.1518-.6234-.2078-.7033-.2877-.0799-.0799 0-.3277.1519-.4635.1489-.0933.3198-.1457.4955-.1519.1759-.0123.352.0208.5115.0959.0547.0348.1011.0812.1358.1359.0331.0565.0548.119.064.1838v.1279h.5514c.0318-.1394.0318-.2842 0-.4236-.1119-.3516-.4955-.5434-1.1029-.5275-.1144-.0082-.2292-.0082-.3436 0l-.016-.0639Zm4.7952 0c-.2275.0745-.439.1911-.6234.3437l-.1279.1198v-.1598c.048-.2877.0799-.2717-.2317-.2717-.3117 0-.2558 0-.2718.0479l-.3037 1.5984c-.1598.8632-.3117 1.5984-.3117 1.5984s0 .048.2878.048c.2877 0 .2957 0 .3036-.048.008-.0479.096-.4635.1919-.983.0959-.5195.1998-.991.2317-1.0869.0429-.2058.1491-.3931.3037-.5355.1572-.1385.3519-.2275.5595-.2557.1055-.0399.2221-.0399.3276 0 .0757.0199.1465.0553.2078.1039.0582.0494.107.109.1439.1758.0104.5387-.0651 1.0756-.2238 1.5904-.1119.5754-.2078 1.047-.2078 1.063h.6314l.2477-1.1589c.1245-.4734.2021-.9579.2318-1.4465 0-.2718 0-.3117-.0719-.4156-.0892-.1478-.2237-.2628-.3836-.3277-.2932-.0552-.594-.0552-.8872 0h-.0239Zm3.1968 0c-.3697.0832-.7047.2786-.9591.5594-.2784.3194-.4637.7093-.5354 1.1269-.2078 1.063.1998 1.7023 1.1348 1.7742.3481.0341.6984-.0354 1.007-.1998.3072-.1631.5621-.4096.7353-.7112.0299-.0544.0565-.1104.0799-.1679-.0849-.0115-.1709-.0115-.2557 0-.0984.0087-.1974.0087-.2957 0 0 0-.072 0-.1039.1119-.1276.1982-.3036.3605-.5115.4715-.1194.0658-.256.0937-.3916.08-.1097.0315-.226.0315-.3357 0-.1113-.0329-.2111-.0967-.2877-.1839-.0853-.0783-.1514-.1754-.193-.2835-.0416-.1082-.0576-.2245-.0468-.3398v-.2318h2.4935v-.1439c.04-.2649.04-.5343 0-.7992-.0296-.2261-.1271-.4379-.2797-.6073-.1589-.1632-.3614-.2769-.5834-.3277-.2274-.04-.46-.04-.6873 0l.016-.1279Zm.6713.5275c.1384.074.2482.1921.3117.3356.0491.1412.0708.2904.0639.4396v.0719h-.9191c-.3032.024-.6078.024-.911 0l.0799-.2158c.0797-.1594.1945-.2987.3356-.4075.1403-.1061.3008-.1822.4716-.2238.1877-.056.3877-.056.5754 0h-.008Zm2.4935-.5275c-.2063.0309-.4015.1133-.5674.2398-.1662.1283-.298.2958-.3836.4875-.057.1136-.0792.2414-.064.3676-.024.0917-.024.188 0 .2797.0335.0913.0916.1715.1679.2318.2524.1777.5422.2953.8471.3437l.5834.1838c.2318.1119.2478.3356.048.5674-.0721.0744-.1557.1364-.2478.1838-.1279.0719-.1598.0719-.4635.0719-.1463.0175-.2946-.0017-.4316-.0559-.0952-.0498-.1752-.1244-.2318-.2158-.0545-.0914-.0796-.1975-.0719-.3037v-.0959h-.6154v.1918c-.0103.1096.0022.2201.0365.3246.0344.1045.09.2008.1633.2828.1284.1541.3064.2586.5035.2957.3393.048.6837.048 1.023 0 .3102-.0468.5936-.2026.7992-.4395.1912-.2236.301-.5053.3117-.7992-.0096-.0984-.0395-.1936-.0879-.2798-.0524-.0842-.1235-.1553-.2078-.2077-.3046-.1464-.6232-.2616-.9511-.3437-.3356-.0959-.4875-.1678-.5274-.2797-.0879-.2398.1438-.4875.5514-.5515.4076-.0639.7992.0799.7992.4076 0 .1199 0 .1199.0959.1119H50.7732c.0074-.1748-.0226-.3492-.0879-.5115-.0741-.1034-.1661-.1928-.2717-.2637-.1074-.0659-.227-.1094-.3517-.1279-.2839-.0359-.5712-.0359-.8551 0l-.024-.0959Zm3.1249 0c-.308.0426-.5911.1926-.7992.4236-.0819.0826-.147.1803-.1918.2877-.0413.1072-.0629.2208-.064.3357-.025.1272.0008.2592.072.3676.1198.2318.2957.3277.8951.4875.2826.0428.5541.1406.7992.2877.1918.1998-.056.6234-.4396.7033-.26.0827-.5392.0827-.7992 0-.0821-.0382-.1515-.0992-.1998-.1758-.0502-.0731-.0779-.1592-.0799-.2478v-.1838c-.1024.0022-.2042.0156-.3037.04h-.2957v.1598c0 .1209.0244.2405.0719.3517.0437.1126.1089.2158.1918.3037.086.0835.1861.1512.2957.1998.1137.0483.2361.0728.3597.0719.3901.0865.7986.0237 1.1447-.176.3462-.1997.605-.5219.7254-.9029.048-.1599.0308-.3323-.048-.4795-.0743-.1489-.2031-.2633-.3596-.3197-.0799-.04-.3916-.1359-.6953-.2318-.6314-.1998-.7433-.2398-.7433-.4475 0-.2078.1759-.3357.3916-.4076.2055-.0441.418-.0441.6234 0 .1053.0089.2041.0541.2797.1278.0734.08.1208.1803.1359.2877v.1119h.2797c.0917-.0242.1853-.0403.2797-.0479v-.1519c0-.4156-.2237-.6633-.7112-.7992-.2871-.0279-.5761-.0279-.8632 0l.048.024Zm5.5944.2078c-.0704.0429-.1282.1036-.1679.1758 0 0 .048-.2078.064-.3117h-.5355l-.6393 3.2927h.5834s.4315-2.0379.4715-2.1338c.0609-.2138.1935-.4001.3756-.5275.1809-.132.3995-.2021.6234-.1998.0958-.0083.1921.0082.2797.048.0868.0375.1615.0984.2158.1758.1119.1598.0959.3197-.1518 1.5344-.1039.5835-.2078 1.1029-.2078 1.1029h.5834s.4236-2.1178.4475-2.3256c.0401-.1465.0401-.3011 0-.4476-.0315-.1467-.1067-.2804-.2158-.3836-.0907-.0854-.2002-.1483-.3196-.1838-.2047-.0191-.4107-.0191-.6154 0-.2701-.0077-.5374.0557-.7752.1838h-.016Zm3.8681-.2078c-.215.0581-.4125.1678-.5754.3197-.0879.0799-.1439.1039-.1359.0799.0316-.1155.0557-.233.0719-.3516h-.5354l-.3117 1.6543-.3197 1.6623h.5914l.1758-.8791c.088-.4875.1839-.983.2078-1.0869.0239-.1693.0869-.3307.1839-.4715.0996-.1426.2309-.2603.3836-.3437.4875-.2477.967-.1119 1.0309.2718.0155.0899.0155.1818 0 .2717 0 .1918-.4155 2.2377-.4155 2.2377h.5914s.3996-2.1418.4475-2.3496c.0481-.1807.0481-.3708 0-.5515-.0094-.0572-.0313-.1118-.0639-.1598-.0246-.0482-.0637-.0874-.1119-.1119-.0946-.0862-.2062-.1516-.3277-.1918-.1209-.0286-.2467-.0286-.3676 0-.1632-.036-.3323-.036-.4955 0h-.024Zm3.1249 0c-.3551.0739-.6787.2553-.9271.5195-.32.3453-.5264.7805-.5914 1.2467-.0559.2985-.0559.6047 0 .9031.0602.1694.1586.3226.2877.4476.1278.1218.2805.2145.4476.2717.3255.0799.6655.0799.991 0 .2559-.0658.4936-.1888.6953-.3596.2066-.1627.3734-.3705.4875-.6074.2342-.498.3202-1.0529.2477-1.5984-.0552-.2045-.1658-.3898-.3196-.5355-.1524-.1441-.3397-.246-.5435-.2957-.2387-.032-.4806-.032-.7193 0l-.0559.008Zm.6234.5035c.1747.0791.3181.214.4075.3836.048.0959.048.1599.048.4396.0225.4692-.1347.9293-.4396 1.2867-.0904.1069-.2019.194-.3276.2557-.1286.0566-.2672.0865-.4076.0879-.0711.0159-.1448.0159-.2158 0-.0699-.0141-.1355-.0442-.1918-.0879-.3037-.1598-.4156-.3916-.3836-.8551-.0004-.2534.0553-.5038.1631-.7332.1078-.2293.2649-.432.4602-.5935.1252-.109.2768-.1834.4396-.2158.1596-.0435.3279-.0435.4875 0l-.0399.032Zm5.8101-.5275c-.2591.0142-.5101.0953-.7286.2354-.2185.14-.397.3343-.5181.5638-.0386.0688-.0707.1411-.0959.2158.1742.033.3504.0544.5275.064 0 0 .0719 0 .1038-.1039.097-.1741.2374-.3201.4076-.4236.1867-.0815.3923-.1097.594-.0815.2018.0282.3917.1117.5489.2413.0504.084.0702.1828.0559.2797.008.0851.008.1707 0 .2558-.2883.134-.6011.2074-.919.2158-.3288.0233-.6521.096-.9591.2158-.1654.0702-.3129.1767-.4315.3116-.1133.1361-.1976.2938-.2478.4636-.0278.1155-.0278.2361 0 .3516.0157.1191.0566.2336.1199.3357.0687.0987.1589.1807.2637.2397.1065.0561.2236.0887.3437.096.5026.0476 1.006-.0825 1.4225-.3677l.1359-.0959v.1439c0 .2797 0 .2637.3357.2637.3356 0 .3117 0 .2957-.0559-.0799-.2957-.0799-.4236.1438-1.5984.1443-.3988.1909-.8263.1359-1.2468-.037-.137-.1221-.2562-.2398-.3357-.1087-.0896-.2429-.1427-.3836-.1518-.2658-.0253-.5334-.0253-.7992 0l-.1119-.032Zm.7273 2.0859c-.0496.2348-.1728.4476-.3516.6074-.1199.1144-.2611.204-.4156.2638-.1575.062-.3265.0893-.4955.0799-.1098.0143-.2213-.0052-.3197-.056-.3676-.1998-.2877-.6873.1438-.8791.2052-.0567.4133-.102.6234-.1358l.6793-.1279c.0557-.0075.1122-.0075.1679 0l-.032.2477Zm4.3317-2.0619c-.4414.1376-.8241.4189-1.0869.7992-.2636.3706-.4009.8161-.3916 1.2707-.0392.2354-.0087.4771.0879.6953.0959.2213.2507.4121.4475.5515.2502.117.523.1777.7992.1777s.549-.0607.7992-.1777c.2456-.1149.4636-.2811.6394-.4875.1759-.2066.3042-.4495.3756-.7113.1327-.4015.171-.8281.1119-1.2468-.0398-.2057-.14-.3949-.2877-.5434-.1469-.149-.3323-.2541-.5355-.3037-.2957-.0562-.5994-.0562-.8951 0l-.0639-.024Zm.6633.5195c.1182.0594.2198.1473.2957.2557.078.1086.1274.235.1439.3677.0247.4879-.1039.9713-.3677 1.3826-.1463.1712-.3331.303-.5434.3836-.2234.0721-.4639.0721-.6873 0-.1482-.0837-.2658-.2125-.3357-.3676-.1187-.5024-.0415-1.0311.2158-1.4786.1106-.241.3073-.432.5514-.5354.2579-.0955.5414-.0955.7992 0l-.0719-.008Zm2.7892-.5275c-.2003.0662-.3741.1951-.4955.3676-.1119.1199-.1119.1199-.0559-.1278-.0102-.0609-.0102-.123 0-.1838-.0872-.0161-.1766-.0161-.2638 0h-.2717s-.1279.7432-.3037 1.5984c-.1758.8551-.3117 1.6383-.3117 1.6623 0 .024 0 0 .2957 0h.2957l.1439-.7992c.072-.4984.1842-.9902.3356-1.4705.0841-.2039.2257-.3789.4076-.5035.1072-.0398.2217-.0562.3357-.048.113.0101.2223.0456.3197.1039.1205-.1654.2249-.3421.3117-.5275l-.1679-.0959c-.1033-.0619-.2235-.0899-.3436-.0799H79.92l-.0799.1039Zm-55.944.1119-.3037 1.5984c-.1598.8551-.3117 1.5984-.3117 1.5984s0 .0559.2877.0559.2957 0 .3037-.0399c.008-.04.1519-.7513.3117-1.5984.1599-.8472.3117-1.5984.3197-1.5984.008 0 0-.056-.2797-.056h-.2877l-.04.04Zm9.9501-.0559-.2158 1.1108c-.1216.4678-.1913.9476-.2078 1.4306 0 .2797 0 .3357.0479.4236.1077.1545.2536.2785.4236.3596.1772.0717.3699.0965.5594.072.3507-.0284.6822-.1717.9431-.4076.1039-.0959.1199-.0959.0559.1358.0038.0586.0038.1173 0 .1759.0878.0079.176.0079.2638 0h.2477l.3197-1.6544c.1758-.9111.3197-1.6623.3117-1.6783h-.5914l-.1758.8871c-.045.4944-.1635.9792-.3517 1.4386-.2637.5594-1.0869.7992-1.3906.3596-.0479-.0719-.0559-.1119-.0559-.3357.034-.4364.1035-.8694.2078-1.2947.1039-.5674.1998-1.0389.1998-1.0389h-.5435l-.0479.016Zm6.3936.1118c0 .072-.1679.7992-.3117 1.5984-.1439.7992-.2957 1.5265-.2957 1.5345 0 .008 0 0 .2957 0h.2957l.3037-1.5984c.1678-.8711.3117-1.5984.3276-1.6623v.016h-.5834l-.0319.1118Zm26.6293 0s.1439.7992.3197 1.6704l.3117 1.5984h.5674l.9431-1.6624.959-1.6543h-.2957c-.106-.016-.2137-.016-.3197 0 0 0-1.1349 2.014-1.3027 2.3417l-.1358.2397v-.1678c0-.1838-.3917-2.3976-.3996-2.3976-.008 0-.056-.048-.3277-.048h-.3117l-.008.0799ZM11.4283 11.1915c-1.199.4747-2.21916 1.3132-2.91706 2.3976-.48079.7642-.75608 1.6396-.7992 2.5415-.04346.6504.12239 1.2976.47328 1.8469.35088.5494.86839.972 1.47677 1.206.79311.3777 1.61991.68 2.46951.9031.2717.072.7992.2478 1.0709.3197.5691.1211 1.0747.4449 1.4226.9111.0872.2557.0989.5311.0337.7933-.0652.2622-.2045.5001-.4013.6852-.4695.4246-1.064.6854-1.6943.7433-.4594.0315-.921.0073-1.3746-.072-.2451-.0375-.4788-.1285-.6846-.2667-.2059-.1381-.3787-.3199-.50625-.5325-.17128-.4785-.22072-.9921-.14386-1.4945H6.13761c-.33998 1.2402-.17625 2.5644.45555 3.6844.23234.3665.5369.682.8951.927 1.09308.6774 2.36851 1.0012 3.65234.9271 1.1775.0019 2.347-.1926 3.4605-.5754.4882-.1933.9522-.4428 1.3827-.7433.692-.4589 1.2801-1.0579 1.7262-1.7582.4433-.7007.7497-1.479.9031-2.2937.1687-.7465.096-1.5273-.2078-2.2298-.1561-.3029-.3675-.574-.6233-.7992-.7033-.6474-1.5984-1.0629-3.6444-1.5984-1.4465-.3996-1.958-.6314-2.2777-.9431-.1327-.1249-.2103-.2974-.2158-.4795.0029-.3324.1248-.6528.3437-.9031.1913-.2442.4495-.4275.7432-.5274.6523-.2102 1.3511-.2296 2.014-.056.2216.0594.4266.1688.5994.3197.1702.1521.2947.3486.3596.5674.056.2823.056.5729 0 .8552h3.7323c.1972-.9237.1079-1.8856-.2557-2.7573-.1595-.3529-.3908-.6687-.6794-.927-.7559-.6689-1.6987-1.09-2.7013-1.2068-.5299-.0681-1.0641-.0975-1.5984-.0879-.9492.0756-1.8829.2855-2.7732.6233Zm10.7173-.3516-3.4605 15.4645h3.996c4.3076 0 4.0759 0 4.907-.1439 1.024-.1418 1.9877-.5682 2.7813-1.2307.7885-.6778 1.3748-1.5599 1.6943-2.5495.1483-.4043.258-.8217.3276-1.2467.089-.4312.0896-.8759.0017-1.3072-.088-.4314-.2625-.8404-.5132-1.2023-.3178-.3743-.7245-.6629-1.1828-.8392 0 0 .6154-.3516.8472-.5274.3094-.2362.5933-.5041.8471-.7992.47-.583.7836-1.2762.9111-2.014.3117-1.8222-.4076-2.989-2.2058-3.4286-.3832-.1038-.7778-.1602-1.1748-.1678l-7.7762-.008Zm6.3936 3.1968c.1191.0104.2346.0456.3393.1034.1046.0578.1959.1369.2681.2322.1455.1892.2166.4253.1998.6634-.01.4158-.1435.8192-.3836 1.1588-.2557.3289-.6123.5648-1.015.6713-.5885.0717-1.1819.0958-1.7742.072h-1.5984l.6473-2.9331h1.5505c.5514-.008 1.3346-.008 1.7662.024v.008Zm-1.1429 5.5464c.2595-.0009.5132.0771.7273.2238.2143.149.3764.3614.4635.6074.0799.3066.0799.6285 0 .9351-.0657.415-.2616.7984-.5594 1.0949-.2948.297-.6746.4953-1.0869.5674-.6554.0799-3.7243.0479-3.7243.0479l.7992-3.4845 3.3806.008Zm4.9631 6.7293h3.7482l3.4446-15.4086h-3.7483l-3.4445 15.4086Z"/>
	<path fill="#FC121B" d="M32.7113 0c-3.6923 0-9.5904 1.39061-14.3856 3.1968-5.1567 1.89384-9.93566 4.68924-14.11392 8.2557-.47152.4076-3.13286 2.9331-4.21178 5.2028 1.85072-1.824 3.88025-3.4573 6.05794-4.8751C12.8487 7.47293 20.5317 4.7698 28.5235 3.87612c4.6753-.45554 9.0309.37562 10.965 1.5984 5.1149 3.27672 1.982 8.13588 1.95 8.25578.3836-.3996 3.7643-3.5405 3.7643-7.70433 0-1.82218-1.3587-3.61239-3.3647-4.5954C38.8651 0 36.6993 0 32.7113 0Z"/>
</svg>