<svg xmlns="http://www.w3.org/2000/svg" viewBox="0 0 80 40">
	<path fill="#5B57A2" d="m0 8.70703 4.84386 8.65807v5.2812L.00566651 31.2874 0 8.70703Z"/>
	<path fill="#D90751" d="m18.5986 14.2164 4.5389-2.782 9.2891-.0086-13.828 8.4711v-5.6805Z"/>
	<path fill="#FAB718" d="m18.5727 8.65543.0257 11.46297-4.8552-2.9832V0l4.8298 8.65543h-.0003Z"/>
	<path fill="#ED6F26" d="m32.4263 11.4233-9.2894.0087-4.5642-2.77657L13.7432 0 32.426 11.4233h.0003Z"/>
	<path fill="#63B22F" d="M18.5984 31.3358v-5.5616l-4.8552-2.9265.0026 17.1521 4.8526-8.664Z"/>
	<path fill="#1487C9" d="M23.126 28.5788 4.84353 17.3651 0 8.70703 32.4068 28.5675l-9.2811.0113h.0003Z"/>
	<path fill="#017F36" d="m13.7463 39.9984 4.8519-8.6641 4.5275-2.7566 9.2808-.0113-18.6602 11.432Z"/>
	<path fill="#984995" d="M.00561523 31.2856 13.7829 22.8458l-4.63187-2.8419-4.30722 2.6406-4.83819477 8.6411Z"/>
	<path fill="#fff" d="M52.9603 21.3574c3.1259 0 5.4471-1.9167 5.4471-4.8222 0-2.8124-1.7125-4.6382-4.5749-4.6382-1.3209 0-2.4109.4648-3.2318 1.2672.1959-1.6581 1.5982-2.869 3.1422-2.869.3564 0 3.0389-.0056 3.0389-.0056l1.5171-2.90288s-3.3679.07682-4.9336.07682c-3.5773.06217-5.9935 3.31366-5.9935 7.26286 0 4.6011 2.3565 6.631 5.5885 6.631Zm.0191-6.8892c1.1606 0 1.9651.7627 1.9651 2.0667 0 1.1735-.7148 2.1406-1.9651 2.1432-1.1961 0-2.0008-.8962-2.0008-2.1233 0-1.3044.8047-2.0866 2.0008-2.0866Zm17.4983-3.2395v9.7791h-3.4919v-6.8599h-3.3622v6.8599h-3.4919v-9.7797l10.346.0006Zm-28.0046 7.0705c1.2318-.0899 2.0563-.5654 2.0563-.5654l1.2923 2.3908c-.8276.5316-2.1855.8773-3.1698.9138-3.5216.0647-5.9712-2.0781-5.9712-5.2001 0-3.0826 2.6062-5.2765 5.9712-5.2765 1.3332 0 2.4795.3577 3.3402 1.01-.1812.321-.4274.7656-.6614 1.1911l-.3749.6829-.3409.6237s-1.2401-.6497-2.1774-.6497c-1.5286 0-2.6419.8883-2.6419 2.438 0 1.5892 1.2616 2.4834 2.6775 2.4414Zm-2.6765 9.2898c-.1066.136-.2469.2389-.4152.3082-.1728.0703-.3575.1061-.5441.1052-.1853.0026-.3697-.0284-.5442-.0912-.1567-.057-.3-.1458-.4207-.2607-.1192-.1153-.2128-.2542-.2746-.4082-.0671-.1683-.1004-.3483-.0983-.5296 0-.18.0309-.3467.0952-.5046.0617-.1582.1514-.2939.2637-.4078.0509-.0528.1064-.1.166-.1423l.0364-.0247c.0383-.0251.0782-.0485.1195-.07l.0444-.0221.0321-.0153c.1543-.0668.3226-.1029.5076-.1029.1992 0 .3843.0251.5526.0749.1063.0312.2023.0758.2882.1338.0505.0341.0974.0729.1408.1162l-.2046.3466c-.0991-.0898-.2156-.1578-.3424-.2002-.1205-.0387-.2464-.0582-.3729-.0579-.1121 0-.2187.0221-.3224.0638-.1021.041-.1955.1012-.2749.1777-.0814.0782-.1453.1729-.1881.2774-.0476.1077-.07.2272-.07.3603 0 .1357.025.2578.0727.3633.048.108.1123.1998.1937.2773.0812.0778.1766.1358.286.1748.0446.0169.0901.0303.1367.0401.0678.0143.1382.0211.2112.0211.1514 0 .2891-.0309.4068-.0892.0616-.0299.1201-.0657.1744-.1071.0482-.0368.0931-.0778.1341-.1227l.2103.3158Zm.5778.3551v-2.4684h.4432v1.8392l1.4417-1.8392h.4433v2.4687h-.4433v-1.8388l-1.4417 1.8388-.4432-.0003Zm5.2648-.3551c-.109.1373-.2521.2434-.415.3082-.0989.0401-.202.069-.3069.0863-.0783.0127-.1578.0192-.2373.0189-.0744.0009-.1486-.0033-.222-.0131-.1097-.0143-.2177-.0403-.3221-.0781-.0358-.013-.071-.0277-.1053-.0439-.0415-.0199-.0819-.042-.121-.0661-.0696-.0433-.1349-.0938-.1946-.1507-.1193-.1153-.2129-.2542-.2748-.4082-.0669-.1683-.1004-.3483-.0983-.5296 0-.18.031-.3467.0954-.5046.062-.1582.1515-.2939.2637-.4078.1123-.1166.2469-.2051.3982-.2744.1599-.0703.333-.1055.5077-.1029.1159 0 .2267.0085.3323.0254l.062.0107c.0235.0046.0467.0098.0697.0153l.0408.0101.0479.0134c.1683.0498.3112.1331.4292.25l-.2049.3466c-.0988-.0898-.2154-.1578-.342-.2002-.0304-.0097-.0612-.0185-.0923-.026-.0213-.0049-.0428-.0091-.0644-.013-.0204-.0036-.0409-.0069-.0614-.0095l-.0452-.0048c-.0365-.0033-.0731-.0049-.1097-.0046-.2228.0007-.4369.0872-.5977.2415-.0208.0205-.0405.0417-.059.0642-.022.0263-.0424.0543-.0609.0833-.0264.0413-.0492.0846-.068.1299-.0105.0234-.0196.0475-.0275.0722-.0093.0283-.017.0573-.0232.0869-.013.0635-.0193.1302-.0193.2012 0 .0641.0055.125.0164.1826.0065.0342.0148.0667.0249.0983.0091.0287.0197.056.0316.0824.0301.0683.0669.1302.1103.1858.0254.0326.0531.0629.083.0915.0814.0778.1771.1358.2863.1748.1094.0388.2245.0612.3477.0612.0517 0 .1015-.0036.1496-.0107.0924-.0134.1778-.0401.2571-.0785.1165-.0563.2214-.1344.3086-.2298l.2104.3158Zm.23-2.1133h2.2719v.4385h-.9143v2.0299h-.4432v-2.0299h-.9144v-.4385Zm4.7767 2.1995c-.1233.1107-.2662.1914-.4347.2441-.1623.0525-.3315.0795-.5019.0805-.0684.0009-.1366-.0027-.2043-.0105-.1186-.014-.2355-.041-.3483-.081-.1657-.0609-.3056-.1471-.4207-.2608-.1175-.1152-.2093-.2542-.2694-.4075-.0617-.1582-.0953-.3356-.0953-.5299-.0017-.1722.0278-.3431.087-.5046.0539-.152.1389-.2907.2494-.4078.0527-.0544.1103-.1039.172-.1475.0715-.0504.1483-.0931.2293-.1273.0925-.0384.1926-.0667.3008-.0836.0786-.0124.1615-.0189.2489-.0189.0514-.0003.1027.0026.1533.0088.0459.0055.0914.0137.1364.0241.0548.013.109.0299.1619.0504.1375.0511.2635.1293.3703.2302.0273.0263.053.0537.0773.0826.02.0238.039.0482.0569.0736.0276.0387.0526.0798.0748.1218.0136.026.0262.0527.0377.0797.0254.0573.0456.1169.0606.179.0213.0882.032.182.032.2816 0 .1136-.0083.2106-.028.2965h-1.9185c.0197.2334.1066.416.2662.5466.16.1305.362.194.606.194.0831 0 .1627-.0065.2381-.0195.0721-.0124.1406-.0306.2052-.0551.1317-.0501.2411-.111.3224-.1832l.1346.3437Zm-1.0069-1.8414c-.23 0-.4123.0609-.5497.1855-.1359.1228-.2225.2904-.2439.4717H50.36c-.0114-.2051-.0783-.3659-.2048-.4824-.021-.0195-.0433-.0371-.0667-.0531-.0221-.0153-.0454-.0289-.0698-.0413-.0184-.0094-.0376-.0179-.0575-.0257-.0936-.0365-.2013-.0547-.3222-.0547Zm1.7839-.3581h.404l.9593 1.2233.9086-1.2233h.3928v2.4687h-.4431v-1.8001l-.864 1.1455h-.017l-.8972-1.1458v1.8001h-.4434v-2.4684Zm3.6768.0746c.0629-.0267.1276-.0489.1937-.0661.1431-.0387.2917-.0609.4491-.0609.1531 0 .2867.0166.4005.0498.076.0222.1432.0518.2013.0886.0555.0348.1027.0765.1415.125.0625.0765.111.1673.1458.2721.0449.1351.0671.2933.0671.4743v1.5142h-.4149v-.319c-.0731.0944-.174.1774-.3005.2497-.1259.0719-.2916.1081-.4991.1081-.1504 0-.2814-.0283-.3932-.085-.0245-.0123-.0479-.026-.0705-.041-.0153-.0104-.0303-.0215-.0448-.0329-.0161-.0127-.0317-.0263-.0468-.0407-.1402-.1331-.2105-.3219-.2105-.5631-.0013-.1162.0236-.2308.0731-.3359.0462-.0957.1133-.18.1963-.2464.0813-.0668.1823-.1169.2999-.1501.0233-.0065.0469-.0127.0707-.0182l.0358-.0078.0402-.0072c.0729-.0127.1482-.0195.2267-.0195.1074.0013.2143.0123.3196.0335.1089.0189.2123.0615.3031.125 0-.0492-.0011-.0967-.0034-.1426l-.0044-.0674c-.0029-.0364-.0069-.0719-.0119-.1064-.014-.097-.0394-.18-.0786-.2467-.0186-.0313-.0407-.0603-.0667-.0856-.0122-.0121-.0253-.0235-.0393-.0339-.0094-.0068-.0193-.0137-.0297-.0199-.0113-.0068-.023-.013-.0354-.0188-.0756-.0388-.174-.0586-.2973-.0586-.1543 0-.2834.0169-.3843.053l-.0537.0199-.0454.0172-.0532.0218c-.0503.0212-.1004.044-.1507.0687l-.1177-.3499c.06-.0371.1229-.0697.1876-.0973Zm.5391 2.039c.1626 0 .2946-.0329.3957-.1052.0909-.0605.1739-.1324.2465-.2138v-.3135c-.049-.0351-.1012-.0644-.1567-.0882-.0311-.0133-.0632-.0247-.0962-.0342-.0229-.0065-.0464-.0124-.0703-.0176-.0273-.0058-.0553-.0104-.084-.014-.0493-.0061-.1006-.0094-.1536-.0094-.0674 0-.1317.0081-.1965.0247-.032.0079-.0633.0186-.0932.0323-.0269.012-.0529.0263-.0777.0429-.0477.0332-.0896.0749-.1207.1276l-.0064.0114c-.0047.0088-.0089.0176-.0127.0267-.0042.0101-.0078.0205-.0109.0313-.0029.0097-.0054.0198-.0075.0302-.005.0251-.0075.0518-.0075.0804 0 .1166.0393.211.118.2829.0453.0401.1018.069.169.0863.0491.0127.1041.0192.1647.0192Zm5.2254-3.1949c-.0786.1025-.1626.1719-.2522.2132-.09.0417-.188.0697-.2946.0918-.0801.0166-.1638.0319-.2515.0478l-.0879.0163c-.1329.0244-.2622.0664-.3844.1247-.0464.0198-.0908.0439-.1326.0716-.03.0199-.0586.0413-.0858.0648l-.0327.0296-.0199.0199-.0207.0218c-.0151.0179-.0297.0361-.0437.0546-.028.0368-.0537.0749-.0772.1146-.0236.0401-.0449.0817-.0639.125-.0481.1078-.0844.222-.1097.3412-.0251.1194-.0391.2356-.0477.3492h.0114c.0392-.0885.0952-.1663.1626-.236.0688-.0703.1471-.1308.2327-.18.0187-.0107.0376-.0211.0568-.0312.0216-.0111.0436-.0215.0659-.0313.0511-.0224.1038-.0413.1579-.0566.1011-.0277.2047-.0417.3113-.0417.1042-.0013.2079.0101.3088.0339.0589.014.1168.0322.1735.0547.1395.0553.2649.1409.3676.25.1026.1113.181.2425.23.3854.0534.15.0814.319.0814.5045 0 .1722-.0309.3356-.0954.4883-.0265.0657-.0584.1286-.0952.1878-.0483.0781-.1048.1497-.1684.2145-.1153.1172-.2526.2103-.404.2744-.1569.0667-.3309.1029-.5189.1029-.2047 0-.387-.0362-.5498-.1081-.1625-.0719-.3002-.1722-.4151-.3053-.1151-.1306-.2017-.291-.2637-.4828-.0617-.1914-.0925-.4046-.0925-.6406 0-.1829.0111-.374.0337-.5738.022-.196.0663-.3884.1317-.5742.0646-.1833.16-.3496.2808-.4964.1206-.1472.2802-.2634.4796-.3496l.0435-.0189c.0213-.0088.0428-.0173.0644-.0251.0394-.0143.0791-.0273.1193-.0391.0241-.0068.0483-.0133.0728-.0192.0306-.0074.0615-.014.0926-.0195l.1534-.0264.0822-.0143.084-.015c.0493-.0084.0982-.0198.1462-.0341.0377-.0111.075-.0238.1118-.0381.0203-.0078.0402-.0179.0594-.0293l.0251-.0163c.0452-.0316.0872-.0739.1259-.1263l.2412.3467Zm-1.8734 2.1523c-.0027.1464.0182.2926.0615.4326.0371.1185.095.2291.171.3274.0726.0879.1636.1589.2666.208.1037.0498.2162.0749.3394.0749.0932 0 .1788-.0127.2586-.0384l.029-.0098c.0156-.0055.031-.0117.0463-.0185.097-.041.1848-.1016.258-.1771.0733-.0758.1305-.1657.1685-.264.0389-.0996.0617-.208.0617-.3271 0-.2412-.0674-.4411-.2051-.6016-.0461-.0534-.0988-.0976-.1585-.1331-.049-.0293-.1027-.0524-.1612-.0697-.0822-.0241-.1736-.0361-.2749-.0361-.2093-.0016-.413.0677-.5778.1969-.0729.0586-.1346.125-.1822.1999-.0166.0247-.0316.0505-.0448.0771-.0106.0215-.0202.0433-.0285.0655-.0114.0302-.0206.0615-.0276.0931Zm5.0851-1.0706h.4433v2.4686h-.4433v-2.4686Zm-1.8736 0h-.446v2.4712h.805c.0404 0 .0791-.0013.1165-.0035.0236-.0013.0466-.0033.069-.0056.0202-.0019.0401-.0042.0594-.0071.092-.0131.1745-.0339.2487-.0612.0313-.0117.0611-.0241.0894-.0375l.0363-.0182.0286-.0153c.0202-.0117.0396-.0241.058-.0371.0118-.0081.0232-.0166.0343-.0251.0135-.0107.0265-.0218.0391-.0332.0118-.0107.0232-.0221.034-.0335.0786-.0833.1377-.1748.1714-.2799.0214-.0625.0363-.125.0446-.1885.0058-.0439.0086-.0885.0086-.1338 0-.0238-.0008-.0472-.0025-.0706-.0013-.0205-.0032-.0407-.0057-.0609-.0078-.0638-.0211-.126-.0395-.1875-.0309-.1022-.0843-.1937-.16-.2715-.0757-.0778-.1766-.1412-.3029-.1888-.1264-.0468-.2833-.0719-.4767-.0719h-.4096v-.7405Zm.3225 2.0578h-.3225v-.9101h.3282c.0414 0 .0804.0013.1174.0042.0566.0046.1079.0127.1539.0241.0347.0085.0663.0192.0949.0316.0363.016.0676.0348.0939.057.0298.026.0549.0556.0751.0895.0223.0371.0389.0791.0491.1256.0086.0388.013.0808.013.126 0 .1471-.0446.2578-.1346.3356-.0392.0339-.0911.0606-.1557.0798-.0833.0244-.1878.0367-.3127.0367Zm4.9257.0551c-.1066.136-.2469.2389-.4152.3082-.1729.07-.3576.1058-.5441.1052-.1854.0026-.3698-.0284-.5443-.0912-.1567-.057-.2999-.1458-.4207-.2607-.0457-.0443-.0877-.0921-.1256-.1429l-.0308-.0433c-.0111-.0163-.0216-.0329-.0319-.0498l-.0142-.0238c-.0092-.0159-.018-.0322-.0265-.0488-.0114-.0218-.0221-.044-.0322-.0667l-.0137-.0329c-.0667-.1683-.1001-.3483-.098-.5296 0-.18.0306-.3467.0953-.5046.0616-.1582.1513-.2939.2636-.4078.1123-.1166.2468-.2051.3984-.2744.1599-.0703.333-.1055.5077-.1029.1989 0 .3842.0251.5525.0749.1685.0498.3114.1331.4291.25l-.2046.3466c-.0415-.0377-.0861-.0716-.1333-.1012-.0233-.0147-.0472-.0283-.0718-.041-.0192-.0098-.0387-.0189-.0588-.0277l-.0374-.0153-.0412-.015c-.1204-.0387-.2464-.0582-.3728-.0579-.0451 0-.0894.0036-.133.0104-.0646.0104-.1276.0287-.1898.0534-.102.041-.1953.1016-.2746.1777-.026.0254-.0502.0524-.0725.0808l-.0196.0257c-.0384.053-.0706.1103-.096.1709-.0475.1077-.07.2272-.07.3603 0 .1357.0251.2578.0728.3633.0477.108.1123.1998.1937.2773.0812.0778.1765.1358.2859.1748.1097.0388.2246.0612.348.0612.0911 0 .1761-.0111.2557-.0329.02-.0055.0397-.0117.0591-.0185.0315-.0108.0621-.0235.0919-.0378.1165-.0563.2214-.1344.3086-.2298l.2103.3158Zm.23-2.1133h2.272v.4385h-.9147v2.0299h-.443v-2.0299h-.9143v-.4385Zm2.7543.0007h.4433v.291c.084-.1003.2046-.18.3591-.2467.1542-.0668.3168-.1.4905-.1.0282-.0006.0562 0 .0841.0016.0565.0033.1125.0105.1677.0215.0779.0157.1543.0394.2278.071.1385.0579.2624.1461.362.2581.1017.1149.1799.2487.2301.3936.0259.0742.0458.152.0595.2337.0144.0866.0218.1771.0218.2715 0 .1855-.031.3606-.0926.5237-.0617.1637-.1488.3024-.2637.4222-.1169.1191-.2559.2142-.4093.2799-.16.0664-.3368.1023-.5331.1023-.132 0-.2609-.0137-.3842-.0414-.1234-.0277-.23-.0693-.3197-.1276v1.2119h-.4433v-3.5663Zm1.1643.3574c-.1487 0-.2861.0335-.4124.1003-.126.0664-.23.1468-.3083.2408v1.2233c.1005.0674.2113.1182.328.1501.1066.0276.2191.0413.3393.0413.1242.0023.2474-.0215.362-.0693.1027-.042.1955-.1055.272-.1859.0761-.0814.1346-.1777.1714-.2829.039-.111.0616-.2301.0616-.3632 0-.028-.0008-.0557-.0026-.0827l-.0037-.044-.0036-.0312-.0049-.0322-.0057-.031-.0078-.0361c-.007-.0296-.0153-.0586-.025-.0869-.0337-.1051-.087-.194-.1569-.2718-.0705-.0775-.1545-.1357-.2554-.1774-.104-.0417-.2191-.0612-.348-.0612Zm4.2379-.3577h.4433v2.4683h-.4433v-2.4683Zm-1.8763 0h-.4459v2.4709h.8048c.1964 0 .359-.0277.4938-.0771.1346-.0502.2412-.1166.3196-.1999.0787-.0833.1376-.1748.1713-.2803.0363-.1051.053-.2109.053-.3219 0-.111-.0167-.2161-.0477-.319-.0306-.1022-.0839-.194-.1596-.2715-.0757-.0778-.1766-.1416-.3031-.1888-.1263-.0468-.2832-.0719-.4769-.0719h-.4093v-.7405Zm.3257 2.0578h-.3228v-.9101h.3283c.2131 0 .3674.0391.4601.1169.0897.0778.1372.191.1372.3411 0 .1471-.0449.2578-.1346.3353-.0896.0781-.2469.1168-.4682.1168Zm4.1202-.8681.9478 1.2786h-.5439l-.7322-.9987-.7433.9987h-.5161l.9423-1.2568-.8863-1.2119h.5444l.6759.932.687-.932h.5163l-.8919 1.1901Zm-38.9379 4.3293h-1.3603v2.0582h-.4434V30.585h2.2467v2.4683h-.443v-2.0582Zm2.9589.0277h-.875l-.0283.416c-.0194.2217-.0432.4157-.0728.583-.0176.0986-.0371.1881-.0589.2685-.0591.2165-.132.3828-.216.4994-.0839.1165-.1824.1969-.2947.236-.1159.0419-.2385.0625-.3617.0608l-.0337-.4274c.0477.0026.1037-.0081.1654-.0358.062-.0276.1237-.0888.1823-.18.0591-.0947.1125-.2278.16-.3997.0477-.1748.0788-.402.0954-.6881l.045-.7683h1.7363v2.4687h-.4433v-2.0331Zm1.2564-.2689c.1094-.0693.2385-.1247.3817-.1634.1462-.0404.297-.0609.4487-.0609.3534 0 .603.0882.7433.2634.1429.1748.2134.4244.2134.746v1.5143h-.4153v-.319c-.0731.0944-.174.1777-.3.2497-.1265.0723-.2917.1084-.4993.1084-.23 0-.4154-.0667-.5554-.1999-.0769-.0726-.1326-.1621-.1674-.2679-.0287-.0875-.043-.1858-.043-.2949-.0002-.0176.0002-.0351.0011-.0527.0022-.0388.0072-.0768.0152-.1143.0122-.0582.0311-.1149.0564-.1689.0463-.0957.1133-.18.1963-.2464.0443-.0365.0943-.0677.1496-.0941.0466-.0221.0968-.0407.1507-.056.1177-.0335.2414-.0527.3731-.0527.1074.0013.2143.0123.3196.0332.0404.0071.0799.0176.1183.0309.0655.0228.1276.0544.1848.0937 0-.1136-.0057-.2187-.0197-.316-.0075-.0515-.0181-.099-.0323-.1423-.0073-.0221-.0154-.0433-.0245-.0631-.0067-.0143-.0139-.0283-.0215-.0414-.0394-.0667-.0954-.122-.1714-.1582-.0493-.025-.1079-.0423-.1771-.0511l-.0338-.0035c-.0274-.0023-.0562-.0036-.0865-.0036-.1539 0-.2833.0169-.3842.0527-.0293.0104-.0586.0215-.0879.0329-.0715.028-.1431.0592-.2149.0947l-.118-.3496Zm.7297 1.9417c.1017 0 .1914-.013.2689-.0404.0465-.0166.0887-.0381.1264-.0654.0912-.0602.1742-.1322.2471-.2135v-.3135c-.1543-.1107-.3425-.1631-.561-.1631-.0256 0-.0511.001-.0765.0033-.0404.0039-.0804.011-.1198.0211-.0648.0169-.1234.0417-.1711.0752-.0477.0332-.09.0749-.1206.1276-.0311.0527-.0451.111-.0451.1803 0 .1163.0394.2107.118.2826.0785.0697.1877.1058.3337.1058Zm1.4947-2.1106h2.2721v.4381h-.9147v2.0302h-.443v-2.0299h-.9144v-.4384Zm4.5424 2.3612c-.0625.0326-.1291.0599-.2002.0821-.1683.0527-.3366.0807-.5023.0807-.1881.0023-.3751-.0287-.5524-.0918-.1655-.0609-.3059-.1471-.4208-.2607-.1151-.1136-.2074-.2497-.2694-.4076-.0617-.1585-.0954-.3356-.0954-.5299-.0014-.1722.028-.3431.0871-.5049.0252-.0706.0571-.1383.0952-.2025.0436-.0735.0954-.1425.1545-.205.1137-.1179.2503-.2113.4013-.2748.1597-.0667.342-.1025.5496-.1025.1545-.001.3077.0273.4517.0833.1375.0511.2633.1296.3699.2302.1057.1015.1896.2233.2471.3577.0617.1387.0926.2913.0926.4603 0 .1139-.0086.2112-.028.2968h-1.9186c.0197.2331.1063.4164.2663.5466.16.1302.362.194.606.194.1627 0 .3113-.0248.443-.0746.132-.0501.2413-.111.3227-.1835l.1346.344c-.0713.0638-.1491.1179-.2345.1621Zm-.7751-2.0064c-.2301 0-.4124.0612-.5497.1858-.1358.1224-.2225.2901-.244.4717h1.5146c-.0112-.2054-.0786-.3662-.2046-.4827-.1263-.1136-.2973-.1748-.5163-.1748Zm1.9606-.3548h-.561l.9169 1.1897-.9589 1.2786h.5439l.9144-1.2783-.8553-1.19Zm1.408 0h-.4433v2.4683h.4433V30.585Zm.6085 1.1897.9761 1.2786h-.5496l-.9258-1.2786.861-1.1901h.5501l-.9118 1.1901Zm3.436 1.0094c-.1234.1107-.2663.1914-.4347.2442-.1623.052-.3316.0794-.502.0807-.1881.0023-.3753-.0287-.5525-.0918-.1657-.0609-.3057-.1471-.4208-.2607-.115-.1136-.2076-.2497-.2693-.4076-.0617-.1585-.0952-.3356-.0952-.5299-.0018-.1722.0276-.3431.0869-.5049.0539-.1517.139-.2907.2497-.4075.1136-.1179.2501-.2113.401-.2748.16-.0667.3423-.1025.5496-.1025.1545-.001.3076.0273.4517.0833.1376.0511.2635.1296.3702.2302.1055.1015.1893.2233.2468.3577.062.1387.0926.2913.0926.4603 0 .1139-.0083.2112-.028.2968h-1.9186c.0197.2331.1066.4164.2663.5466.16.1302.362.194.6059.194.1628 0 .3114-.0248.4434-.0746.1316-.0501.241-.111.3224-.1835l.1346.344Zm-1.0093-1.8443c-.2299 0-.4124.0612-.5499.1858-.1359.1224-.2227.2901-.2441.4717h1.5147c-.011-.2054-.0784-.3662-.2047-.4827-.1263-.1136-.3-.1748-.516-.1748Zm2.6741-1.2975c.0713.0755.174.1133.3075.1133.2467 0 .3842-.1442.4039-.4326h.4151c0 .1106-.0197.2106-.059.305-.039.0944-.0953.1748-.1653.2412-.0314.0286-.065.0553-.1009.0794-.0476.0319-.0996.0592-.1571.0814-.0571.0234-.1178.0397-.1828.0498-.0498.0075-.102.011-.1569.011-.0529 0-.1033-.0029-.1512-.0088-.0765-.0094-.1466-.0263-.2104-.052-.1037-.0414-.1937-.0941-.2637-.1608-.0423-.0401-.0786-.0856-.1087-.1361-.0197-.0329-.0368-.068-.0513-.1051-.0203-.0524-.0353-.1068-.0446-.1638-.0074-.0452-.0114-.0921-.0114-.1412h.418c.0109.1409.0506.2473.1188.3193Zm-.4472 3.411h-.4432v-2.4687h.4432v1.8389l1.4417-1.8389h.4433v2.4687h-.4433v-1.8391l-1.4417 1.8391Z"/>
</svg>