<svg xmlns="http://www.w3.org/2000/svg" viewBox="0 0 134 34">
	<path fill="#00ADEF" d="M.00322948 23.5881 9.73435 12.9179H20.3869L31.8747.0993648 0 0l.00322948 23.5881Z"/>
	<path fill="#fff" d="m40.0072 7.94782.0131 7.94778h4.2371l.0133-2.771.0134-2.771 1.4076-.0264c1.4913-.0279 1.9728-.0842 2.8257-.33065 1.5727-.45434 2.7006-1.35354 3.2852-2.61862.5136-1.11156.5799-2.81201.158-4.05213C51.4259 1.754 50.3187.806645 48.4725.34129 47.3129.0489837 47.2132.042576 43.4692.0205122L39.9941 0l.0131 7.94782Zm14.7651-5.3706c-.0001 1.41384-.0241 2.8962-.0533 3.29407-.1926 2.62208-.5669 4.08413-1.604 6.26521l-.3502.7363h-1.4026v6.7173h4.1337V15.9214h8.9909V19.5901h4.1337v-6.7173h-1.9118V.00655988H54.7725L54.7723 2.57722Zm15.8118 5.38677v7.95741h4.237V8.26684l.1105.01649c.082.0123.767.99648 2.6637 3.82727l2.5533 3.8108h2.4315c2.1009 0 2.4275-.0101 2.4027-.0748-.0158-.0411-1.3556-1.9732-2.9773-4.2935l-2.9486-4.21878.2689-.36981C79.7462 6.3862 84.174.362423 84.3167.174493l.1276-.16793312h-4.7557L77.3507 3.44273c-1.6822 2.47259-2.3647 3.43616-2.4337 3.43616-.0924 0-.0959-.1236-.0959-3.43616V.00655988h-4.237V7.96399ZM46.2212 3.07947c1.0308.19723 1.6008.74992 1.7309 1.6784.103.73395-.0683 1.4002-.4727 1.8389-.4721.51211-1.0166.68304-2.3307.7314l-.8655.03189V3.00352h.7705c.4634 0 .9288.03027 1.1675.07595Zm16.1987 4.85869v4.93464h-5.5814l.2521-.5038c.7813-1.5612 1.2871-3.62203 1.4513-5.91315.0299-.4174.0543-1.36495.0543-2.10562V3.00352H62.4199v4.93464ZM22.2447 18.8584l-10.6568.0014L.0517578 31.7504l31.9330422.0273-.0129-23.56188-9.7272 10.64258Zm76.7716 5.0536c.6818-.0674.9802-.1458.9802-.2573 0-.0222.2995-.0404.6665-.0404.366 0 .666.0076.666.0169 0 .1637-.209.6227-.359.7887-.341.3762-.665.485-1.7196.5768-.8388.0729-.9265.0905-1.2522.2508-.3313.1631-.5725.3872-.8095.7522-.171.2635-.4428.8962-.4428 1.031 0 .0328.1413-.0943.3139-.2826.4743-.5172 1.0155-.7379 1.809-.7379.7124 0 1.3372.2536 1.8252.7414.56.56.816 1.2417.819 2.1869.002.6819-.067 1.035-.299 1.528-.523 1.1146-1.7609 1.6811-3.132 1.4336-1.1357-.2051-1.885-.9233-2.1728-2.0831-.1302-.5241-.1267-2.1823.006-2.921.2881-1.6033.9112-2.4767 2.0008-2.8047.1917-.0577.6869-.1384 1.1003-.1793Zm-18.338.7907c.4851-.4866.9585-.7638 1.5848-.9277.5445-.1426 1.4816-.1437 2.0342-.0025.8903.2275 1.6296.7854 2.0127 1.5189.1767.3381.2321.4952.3335.9451l.033.1464h-.7204c-.664 0-.7204-.0077-.7204-.098 0-.1867-.3281-.7527-.5426-.9362-.4638-.3967-1.136-.5741-1.7743-.4684-1.1885.1967-1.8966 1.1622-1.9836 2.7042-.0847 1.5029.4918 2.6643 1.5214 3.0647.4329.1683 1.1886.1657 1.6302-.0058.5779-.2242 1.0004-.7848 1.1547-1.5318l.0688-.3328h1.4275l-.0368.2795c-.0449.3418-.2612 1.0119-.4083 1.2645-.4736.8137-1.2491 1.3792-2.1541 1.5708-.4721.0999-1.3291.0999-1.8071 0-1.0984-.2297-2.0501-1.0492-2.4983-2.1514-.252-.6196-.3265-1.0787-.3203-1.975.005-.7333.0217-.8784.1494-1.3019.2284-.7573.5224-1.2673 1.016-1.7626Zm38.5337 1.3257c.48-1.1988 1.288-1.9339 2.479-2.2553.328-.0886.517-.1029 1.139-.0862.835.0226 1.262.1327 1.822.4693.591.3553 1.107 1.0394 1.316 1.7439.068.2265.111.347.069.411-.052.0797-.238.0718-.677.0718-.51 0-.7-.0177-.714-.0666-.249-.8703-.84-1.3623-1.748-1.4553-.827-.0846-1.621.2962-2.067.9914-.612.9523-.667 2.6695-.121 3.7472.185.3651.618.8046.945.959.835.3946 1.88.2554 2.437-.3244.292-.3038.451-.6498.599-1.309l.033-.1464h1.42l-.05.3328c-.117.7898-.415 1.3833-.968 1.9302-.436.4308-.867.6657-1.529.8329-.621.157-1.591.1222-2.21-.0794-1.572-.5123-2.483-1.9702-2.483-3.9749-.001-.733.086-1.2381.308-1.792Zm-79.2179 5.7883v-7.9895h5.4354v1.2246h-3.9958l-.0137 3.3676-.0137 3.3676-.7061.0149-.7061.0148Zm47.9593-.0031v-7.9864h6.5011v7.9864h-1.4388v-6.7618h-3.6235v6.7618h-1.4388Zm14.8136 0v-7.9864l1 .0001.999.0001 1.036 2.8883c.57 1.5886 1.073 2.9794 1.119 3.0906l.084.2022 1.067-3.0773 1.067-3.0774.997-.0144.998-.0145V31.8168l-.68-.0149-.679-.0149-.027-2.9749-.026-2.9749-1.086 2.9882-1.086 2.9882h-.574c-.497 0-.578-.0124-.61-.0931-.02-.0513-.527-1.4094-1.126-3.0179-.599-1.6087-1.1-2.9364-1.115-2.9506-.014-.0142-.025 1.3439-.025 3.0179v3.0437H102.767Zm9.273-6.7618v-1.2246H118.541v1.2246h-2.558v6.7618h-1.386v-6.7618h-2.557Zm15.347 6.7618v-7.9864h5.914v1.2246h-4.476v1.8103h1.381c1.922 0 2.448.1157 3.04.6682.504.4714.727 1.1234.681 1.9937-.054 1.0465-.536 1.7299-1.463 2.0765-.484.1808-.917.211-3.039.2121l-2.038.001ZM46.2232 26.535c.2389-.2712.6111-.4894 1.0237-.6003.1581-.0425.4563-.0788.6626-.0807 1.3239-.0124 2.3127.851 2.5873 2.2593.0795.4075.0629 1.3585-.0308 1.7619-.3303 1.4234-1.4437 2.218-2.859 2.0404-.4845-.0607-.8772-.2409-1.2166-.5581l-.2681-.2506V33.9466l-.6528-.0149-.6528-.015v-7.8799l.5995-.0151.5995-.015v.7639l.2075-.2356Zm24.2926.3312c.2894-.4697.7867-.8107 1.366-.9366.1787-.0389.5767-.0722.8845-.074 1.2081-.0071 1.9437.3269 2.2723 1.032.1221.262.1247.3017.1304 1.9977.0032.9517.0224 1.7903.0427 1.8635.0324.1172.0699.135.3144.1492l.2776.0161v.8954l-.2192.059c-.3312.0891-.9625.0771-1.1542-.022-.1751-.0905-.3609-.2988-.4131-.4632-.0311-.0977-.0397-.0967-.2021.0249-.4616.3458-1.0458.516-1.7865.5207-.8138.0052-1.2175-.1432-1.6266-.5979-.3148-.3498-.4295-.7118-.3951-1.2471.03-.4677.1947-.8228.496-1.0695.399-.3266.8978-.4755 2.1302-.6356.8803-.1144 1.1896-.2074 1.2544-.3776.0796-.2093.0602-.5616-.0422-.7664-.1518-.3036-.4618-.426-1.079-.426-.4234 0-.5508.0204-.7477.1198-.2752.139-.454.3798-.5048.6801l-.0358.2117h-.6081c-.6005 0-.6082-.0015-.6082-.1234 0-.1695.1512-.6639.2541-.8308Zm-18.479 2.0408c-.5942-1.4908-1.0919-2.7531-1.1061-2.8052-.0239-.0879.0254-.0938.6831-.0799l.7088.0149.7539 2.0627c.4147 1.1346.7641 2.0728.7766 2.085.0124.0122.3463-.922.742-2.076l.7193-2.0982h.6852c.6312-.0001.6822.0072.6476.0931-.0206.0512-.5846 1.5332-1.2533 3.2934-.6688 1.7601-1.2918 3.3504-1.3845 3.534-.2285.4523-.5943.8082-.9782.9517-.3127.1169-.9374.1531-1.3803.0799l-.1998-.033v-1.0436l.4755.0097c.4611.0093.4806.0048.6443-.1501.1976-.187.3236-.4179.4529-.8302l.0934-.2978-1.0804-2.7104Zm5.3292 2.9099v-5.8067h5.1157v5.8034h-1.2789v-4.7918h-2.5034l-.0139 2.3826-.0139 2.3826-.6528.015-.6528.0149Zm6.4607-2.8517c-.0076-1.5521-.0024-2.8518.0117-2.8885.0198-.0519.5865-.0665 2.5854-.0665h2.5599l-.0137 2.8884-.0138 2.8884-.6528.015-.6528.0149v-4.7951h-2.5045v4.7951l-.6528-.0149-.6528-.015-.0138-2.8218Zm-15.1433-1.6678c-.1212-.1175-.3317-.2516-.4677-.2979-.1361-.0463-.405-.084-.5975-.0837-.6438.001-1.1415.3546-1.3944.9908-.1079.2717-.1244.4049-.1244 1.0053 0 .7779.0872 1.1001.4002 1.4793.4735.5736 1.4575.6798 2.0824.2248.8464-.6161.9052-2.5393.1014-3.3186Zm51.3576.68c-.1774-.3869-.4161-.652-.7128-.7913-.2671-.1255-.7617-.1825-1.0157-.1171-.5288.1362-.9106.5319-1.0933 1.1328-.0942.3099-.1096.4674-.0896.9149.0306.6821.1969 1.0955.5785 1.4384.2874.2581.5479.3534.9662.3534.721 0 1.2375-.4229 1.4577-1.1939.136-.475.091-1.3406-.091-1.7372Zm32.361.7718c-.128-.2819-.486-.5832-.779-.657-.138-.0348-.757-.0588-1.516-.0588h-1.282v2.6089h1.277c.726 0 1.394-.0252 1.549-.0586.326-.0699.613-.3011.752-.6065.133-.2925.132-.9343-.001-1.228Zm-58.8613 1.9221c.2999-.2286.3612-.4037.3876-1.1072.0129-.3441.0025-.6239-.0231-.6218-.0256.002-.1424.0391-.2597.0824-.1172.0432-.4649.1139-.7726.1569-.7835.1097-1.1058.2122-1.311.4172-.4204.4201-.2276 1.1833.3421 1.3537.4803.1439 1.2532.011 1.6367-.2812Z"/>
</svg>