<svg xmlns="http://www.w3.org/2000/svg" viewBox="0 0 89 40">
	<path fill="#fff" d="m23.9928 10.2466-4.7559 3.5054c-2.2465-1.9069-5.1475-2.2808-6.7377-2.2808-1.5902 0-3.3091.4554-3.561 1.6003-.2537 1.1104.7924 1.9741 2.5885 2.4549 2.048.5443 3.9139 1.0268 6.7873 1.836 4.2724 1.2029 7.1936 3.0282 7.1936 7.2574 0 5.8313-5.2449 8.8539-12.2712 8.8539S1.4229 29.8613 0 28.1758l5.028-3.7103c3.5315 3.039 5.9876 3.4673 8.0411 3.4673 2.355 0 4.5574-.4989 4.8405-1.8143.2298-1.056-.6582-1.896-2.6638-2.3587-2.2705-.5171-4.1861-.9326-6.3241-1.4878-5.7946-1.5005-7.4289-4.8261-7.4289-7.8125 0-4.113 3.879-8.33685 10.9733-8.33685 7.2745 0 11.5341 4.11315 11.5341 4.11315l-.0074.0108Zm30.3219-3.71215h-21.209V32.6991h21.592v-6.031H40.553v-4.2129h9.7437v-5.7696H40.553v-4.1729h13.7567l.005-5.97825ZM27.6181 38.7352h1.6546V.5h-1.6546v38.2352Zm29.8646 0h1.655V.5h-1.655v38.2352Zm5.478-6.0361h17.031c4.554 0 8.244-2.7089 8.244-7.047 0-3.3838-2.245-5.6244-5.391-6.6168-.1-.0214-.202-.0342-.305-.0381.103-.0093.205-.027.305-.0527 1.802-.704 3.799-2.5781 3.799-5.7695 0-4.04785-3.629-6.62965-8.108-6.62965h-15.575V32.6991Zm7.483-20.7144h5.949c1.369 0 2.478 1.0669 2.478 2.2934 0 1.2265-1.103 2.297-2.478 2.297h-5.949v-4.5904Zm7.276 14.9011h-7.276V22.116h7.276c.624.0241 1.215.2857 1.648.7301.433.4445.675 1.0372.675 1.6539 0 .6166-.242 1.2094-.675 1.6539-.433.4445-1.024.7061-1.648.7301v.0018Z"/>
</svg>