<svg xmlns="http://www.w3.org/2000/svg" viewBox="0 0 140 34">
	<path fill="#fff" d="M2.10131 11.6195C4.6404 5.22796 7.52971 1.11288 8.05504.5c.52533.61288 4.20266 5.69106 6.04126 11.0319 1.9262 5.2533 2.2764 10.3315 2.1889 13.3083-.0876 2.9769-.5253 6.1289-1.1382 8.0551.2626-3.2396-.2627-7.7924-1.2258-11.3821-.9631-3.5898-3.6773-9.6311-5.86616-12.34528C6.04128 11.7946 3.58975 16.9603 2.27643 21.4256.963103 25.8909.963103 31.3193.963103 32.9828.700439 31.8446.0875551 28.1673 0 24.0522v-2.2764c.17511-4.0275 1.40088-8.2301 2.10131-10.1563Zm.78796 14.6223c.08756-2.4515.87555-4.9906 1.31333-6.1288 1.66354-3.8525 3.50219-6.304 3.85241-6.6542.35022.4378 2.71419 3.5022 3.93999 6.6542 1.2257 3.2395 1.4884 6.3039 1.4009 8.055 0 1.7511-.3503 3.6773-.7005 4.8155.1751-2.0137-.1751-4.7279-.788-6.9168-.6129-2.1889-2.36396-5.7786-3.76484-7.4422-1.31332 1.6636-2.88931 4.728-3.76485 7.4422-.87555 2.6266-.87555 5.9537-.87555 6.9168-.17511-.788-.788-3.7648-.61289-6.7417ZM31.257 23.1764c0 .3502-.0876.3502-.0876.3502s-.0875.0875-.5253.0875c-.3502 0-.5253-.0875-.5253-.0875s-.0876-.0876-.0876-.3502V9.95557c0-.35021.0876-.35021.0876-.35021s.1751-.08756.5253-.08756c.4378 0 .5253.08756.5253.08756s.0876.08755.0876.35021V13.808h3.4146V9.95557c0-.61288-.0875-1.05065-.1751-1.40087-.3502-1.22577-1.6635-1.83865-3.8524-1.83865h-.0876c-1.3133 0-2.2764.17511-2.8017.52533-.788.52533-1.1382 1.40087-1.1382 2.71419V23.1764c0 1.3133.3502 2.1888 1.1382 2.7141.6129.3503 1.4884.5254 2.8893.5254 2.1889 0 3.5022-.6129 3.8524-1.8387.0876-.3502.1751-.788.1751-1.4008v-4.3778H31.257v4.3778Zm12.4327 3.1529h-6.8293V6.89218h6.8293v2.97687h-3.4146v4.29015h3.2395v2.9769h-3.2395v6.1288h3.4146v3.0644Zm9.2808-9.9812c-.2626-.3502-.6129-.5253-.9631-.7004.3502-.1751.6129-.3503.788-.5254.3502-.3502.5253-1.0506.5253-1.9262v-2.6266c0-1.31334-.1751-2.27644-.7004-2.80177-.5253-.61288-1.4009-.87555-2.7142-.87555h-4.2902V26.3293h4.8155c.5254 0 .9631-.0875 1.3134-.1751 1.1382-.3502 1.7511-1.5759 1.7511-3.7648v-3.94c0-.9631-.1752-1.6635-.5254-2.1013ZM49.2932 23.44h-.3502v-6.3039h.2627c.4377 0 .8755.1751.8755 1.3133v3.8524c0 1.0507-.4378 1.1382-.788 1.1382Zm.788-10.3314c0 1.1382-.5253 1.1382-.7004 1.1382h-.4378V9.60638h.4378c.2626 0 .7004 0 .7004 1.05062v2.4516Zm12.5204 13.2207h-6.9169V6.89218h6.9169v2.97687h-3.5022v4.29015h3.327v2.9769h-3.327v6.1288h3.5022v3.0644Zm9.6311-17.51091c-.0876-.9631-.6129-1.57599-1.3134-1.7511-.3502-.08755-.8755-.17511-1.5759-.17511h-4.8156V26.2418h3.4147v-6.6542c1.3133 0 2.1013 0 2.4515-.0875.788-.0876 1.3133-.5254 1.576-1.0507.2627-.5253.4378-1.4009.4378-2.7142v-4.9031c0-.96305-.0876-1.66349-.1751-2.01371Zm-3.152 6.65421c0 .7004-.0876.8755-.0876.8755 0 .0876-.0875.2627-.4377.2627H68.03V9.9566h.5254c.4377 0 .4377.1751.4377.2627 0 0 .0876.1751.0876.8755v4.3778Zm8.8429 10.8567H74.509V6.89218h6.304v2.97687h-2.8894V26.3293Zm9.9813-19.43712h-4.8155L80.9006 26.3293h3.1519l.5253-4.7279h1.6636l.4378 4.7279h3.4146L87.9049 6.89218ZM84.5778 19.1499l.8756-9.1933.788 9.1933h-1.6636ZM95.4346 6.71605c1.3133 0 2.2764.17511 2.8017.52533.7005.52533 1.1382 1.40087 1.0507 2.71419v3.15193c0 1.2258-.5254 2.1014-1.4009 2.5391.9631.5254 1.4009 1.4885 1.4009 2.8018v4.728c0 1.3133-.3502 2.2764-1.0507 2.7141-.5253.3503-1.4884.5254-2.8893.5254-2.2764 0-3.5022-.6129-3.8524-1.8387-.0876-.3502-.1751-.8755-.1751-1.4008v-4.2902h3.4146v4.115c0 .5254.0876.6129.0876.6129.0875.0876.2626.1751.5253.1751s.5253-.0875.5253-.788v-4.903c0-1.0507-.3502-1.0507-.5253-1.0507h-1.9262v-2.8893h1.9262c.1751 0 .5253 0 .5253-.9631v-2.8893c0-.70044-.2626-.788-.5253-.788-.4378 0-.5253.08756-.5253.08756s-.0876.17511-.0876.61284v2.2765h-3.4146V9.95557c0-.52532.0875-.9631.1751-1.40087.2627-1.22577 1.576-1.83865 3.8524-1.83865h.0876ZM108.918 15.122c-.263-.6129-.788-.9631-1.576-1.0507-.35-.0875-1.138-.0875-2.451-.0875V9.95626h4.202V6.9794h-7.617v19.4372h4.465c.701 0 1.226-.0876 1.664-.1751.788-.1752 1.313-.7005 1.576-1.6636.175-.4378.175-1.2258.175-2.1889v-4.4653c0-1.3133-.175-2.2764-.438-2.8017Zm-2.977 6.9168c0 .4448-.046.7051-.071.8479-.01.054-.016.0912-.016.1152-.088.1751-.438.2627-.788.2627h-.175v-6.304h.175c.262 0 .7.0876.788.2627 0 .0229.006.0517.014.0943.025.1206.073.3513.073.8688v3.8524Zm6.829-15.14662h4.816l2.189 19.43712h-3.415l-.438-4.7279h-1.663l-.525 4.7279h-3.152l2.188-19.43712Zm2.452 3.06442-.876 9.1933h1.664l-.788-9.1933Zm10.419 4.1151h-1.051V6.89218h-3.414V26.3293h3.414v-9.1057h1.051v9.1057h3.415V6.89218h-3.415v7.17952Zm14.271-7.17952-2.626 9.10572L140 26.3293h-3.59l-1.576-7.0043v7.0043h-3.414V6.89218h3.414v6.21642l1.664-6.21642h3.414Z"/>
</svg>