<svg xmlns="http://www.w3.org/2000/svg" viewBox="0 0 97 32">
	<g fill="#f2cd13">
		<path d="M26.5 19.3c.2-.2.3-.4.3-.7s-.1-.5-.3-.6-.5-.3-.9-.3h-1.9v1.8h2c.3 0 .6 0 .8-.3ZM25.7 21.2h-1.9v2.1H26c.3 0 .6 0 .8-.3.3-.2.4-.4.4-.8s-.1-.6-.4-.8c-.2-.2-.6-.3-1.1-.3Z"/>
		<path d="M29.7 0H16.6l1.2 1.9v1.8L15.5 0h-1.6l3.9 6.5v2.3L12.4 0h-1.8l7.2 11.8V15L8.6 0H1.8C.8 0 0 .8 0 1.8v28.3c0 1 .8 1.8 1.8 1.8h28.3c1 0 1.8-.8 1.8-1.8V2.3c0-1.2-1-2.3-2.3-2.3ZM9.5 24.5c-.6.6-1.6.8-2.9.8s-2.2-.3-2.9-.8c-.7-.5-1.1-1.3-1.1-2.4h2.2c0 .4.1.8.4 1 .3.3.8.4 1.4.4s1 0 1.2-.2c.3-.1.4-.4.4-.7s-.1-.6-.4-.8c-.3-.2-.9-.4-1.9-.7-1.2-.3-2.1-.6-2.5-1-.4-.4-.6-1-.6-1.8s.3-1.6 1-2.1c.7-.4 1.6-.7 2.8-.7s1.9.3 2.5.7c.6.5.9 1.2 1 2H8c0-.3-.2-.6-.4-.7-.3-.2-.6-.3-1.1-.3s-.8 0-1 .2c-.3.1-.4.4-.4.6s.1.5.3.7c.2.2.7.3 1.5.5 1.4.3 2.4.6 2.8 1.1.5.4.7 1 .7 1.8s-.3 1.7-1 2.2Zm10.3.6h-2.2L14.1 19v6.1H12v-9.2h2.6l3.1 5.2v-5.2h2.1v9.2Zm8.9-.6c-.6.4-1.5.7-2.7.7h-4.4V16h4.6c1 0 1.7.2 2.2.6.4.4.7 1 .7 1.7s-.1.9-.4 1.2c-.3.3-.6.6-1.2.7.6.1 1.1.4 1.5.8.3.4.5.9.5 1.5s-.3 1.5-.8 1.9ZM93.7 1.7c.8 0 1.8-.3 1.8-1.2s0-.3-.3-.3-.4 0-.4.2c-.3.6-1.7.6-1.9 0 0-.2-.1-.2-.4-.2s-.3 0-.3.3c0 .9.9 1.2 1.7 1.2ZM38.3 9.2c1 .6 2.4.7 3.5.3.7-.3 1.4-1.1 1.6-1.9.2-.7.2-.7-.8-.7h-.9v.3c-.3.8-1.3 1.2-2.1.8-.3-.1-.6-.6-.7-1.1-.2-.8 0-2 .4-2.5.6-.8 2-.6 2.3.3v.2h1.9c0-.1-.2-1-.5-1.4-.3-.5-.6-.7-1.3-1-.4-.2-.6-.2-1.3-.2h-1.2c-1 .3-1.9 1.1-2.2 2-.2.4-.2.7-.3 1.4 0 .9 0 1.5.3 2.1.2.5.7 1.1 1.2 1.4ZM50.3 7.8h-3.7V6.5h3.3V5h-3.3V3.9h3.6V2.3h-5.6v7.2h5.7V7.8zM64.6 7.8H61V6.5h3.2V5H61V3.9h3.5V2.3H59v7.2h5.6V7.8zM74.9 6.5h2.2v3h2.1V2.3h-2.1v2.5h-2.2V2.3h-2v7.2h2v-3zM88.9 2.3H87v7.2h1.9V2.3zM92.7 9.5l1-2.2 1.1-2.1V9.5l1 .1h1V2.3h-2.2l-1 2.1-1.1 2.2V2.3h-2V9.6h1.1l1.1-.1zM67.9 7.1h1c1.3 0 1.7-.1 2.2-.7.5-.5.7-1 .7-1.7s-.4-1.7-1.2-2.1l-.5-.2h-4.2v7.3h2V7.3Zm0-3.3h1.5c.7.2.7 1.4 0 1.6h-1.5V3.6ZM84.7 9.5l.5-.3c.8-.4 1.2-1 1.2-2.1 0-1-.5-1.7-1.3-2.1-.3-.2-.6-.2-1.4-.2h-1V2.3h-2v7.2h4Zm-2-3.2h.6c.3 0 .7 0 .8.1.3.1.4.3.4.7 0 .6-.3.8-1.3.8h-.5V6.3ZM57 5.7l-.3-.2.3-.3c.4-.4.5-.9.4-1.4-.1-.8-.5-1.2-1.3-1.4-.4 0-.9-.1-2.5-.1h-2v7.2h2.1c2.4 0 2.8 0 3.4-.6.9-.8.9-2.5 0-3.2Zm-3.4-1.9h1.6c.3.1.3.2.3.6 0 .5-.2.6-1.1.6h-.8V3.7Zm2.1 3.8c-.1.2-.6.3-1.4.3h-.7V6.4h.9c.9 0 .9 0 1.1.2.2.2.3.7.1 1ZM94.8 11c-.2.5-1.6.5-1.9 0 0-.2-.1-.2-.4-.2s-.3 0-.3.2c0 .9.9 1.1 1.7 1.1.7 0 1.7-.2 1.7-1.1s0-.3-.3-.3-.3 0-.4.2ZM41 15h-2.1v-2.4H37v6.8h1.9v-2.8H41v2.8h2v-6.8h-2V15zM77.8 15h-2.2v-2.4h-1.9v6.8h1.9v-2.8h2.2v2.8h2v-6.8h-2V15zM87.3 16v3.4h1.9v-6.8h-1.9V16zM94.7 12.6l-1 2-1 2.1v-4.1h-1.9v6.9h1l1-.1 1-2 1-2.1.1 2.1v2l1 .1h.9v-6.9h-2.1zM55.9 12.9l-.4-.2h-4v6.8h1.9v-2.3h.9c1.2 0 1.6-.1 2.2-.6.4-.4.6-.9.6-1.6s-.4-1.6-1.2-2Zm-1.1 2.7h-1.4v-1.7h1.4c.7.2.7 1.3 0 1.5ZM62.1 19.5c1.7-.4 2.7-1.6 2.7-3.5s-1.4-3.6-3.5-3.6c-.3 0-.7 0-.9.1-.8.2-1.7.9-2 1.6-.6 1.1-.6 2.6 0 3.7.6 1.2 2.3 1.9 3.8 1.6Zm-1.8-5.1c.5-.4 1.1-.5 1.7-.2.9.5 1.1 2.5.3 3.4-.5.5-1.4.6-2 .1-.8-.6-.8-2.7 0-3.3ZM72.1 12.6h-5.3v.9c0 2-.2 3.3-.7 4-.2.3-.2.3-.5.3h-.3V21h1.8v-1.6h3.8V21h1.8v-3.2h-.8v-5.2ZM70.2 16v1.8H68l.2-.4c.2-.5.4-1.3.5-2.4v-.9h1.6v1.8ZM48.3 12.8v-.2h-2L45 16c-.7 1.9-1.3 3.4-1.3 3.4h1.8l.2-.7.2-.7h2.2l.2.7.2.7h2s-.5-1.5-1.2-3.2c-.7-1.8-1.2-3.3-1.3-3.4Zm-1.1 4h-.6s.2-.5.3-1 .3-.9.3-.8c0 0 .2.5.3.9.2.5.3.9.3.9h-.7ZM85.5 15.2c-.3-.1-.6-.2-1.4-.2h-1v-2.4h-1.9v6.8H85l.5-.2c.8-.4 1.1-1 1.1-2 0-.9-.5-1.6-1.3-2Zm-1.8 2.7h-.5v-1.5h.5c.3 0 .7 0 .8.1.3.1.4.3.4.6 0 .6-.3.8-1.2.8ZM55 25.3h-2.1v-2.5H51v7h1.9v-2.9H55v2.9h2v-7h-2v2.5zM62.3 25.5l.8-.8c.4-.5 1-1.1 1.3-1.4l.5-.5h-2.4l-1 1.2-1 1.2v-2.4h-1.9v7.1h1.8v-2.2l.3-.3.3-.3.7 1.2c.4.7.8 1.3.9 1.5l.2.3H65s-.6-1-1.4-2.2l-1.4-2.1ZM47.8 23v-.2h-2l-1.3 3.5c-.7 1.9-1.3 3.5-1.3 3.5H45l.2-.7.2-.7h2.2l.2.7.2.7h2s-.5-1.5-1.2-3.3c-.7-1.8-1.2-3.4-1.3-3.5Zm-1 4.1h-.6s.2-.5.3-1c.2-.5.3-.9.3-.9s.2.5.3 1c.2.5.3.9.3 1s-.3 0-.7 0ZM41.7 25.5c-.3-.2-.5-.2-1.6-.2h-1.2v-1h3.3v-1.5H37v7h2.1c2.1 0 2.2 0 2.6-.3.5-.2.8-.5 1-1 .2-.5.2-1.7 0-2.1-.2-.4-.6-.8-1.1-1Zm-.7 2.4c-.1.3-.5.4-1.4.4h-.7v-1.5h.9c.6 0 .9.1 1.1.2.2.2.3.6.2.9Z"/>
	</g>
</svg>