<svg xmlns="http://www.w3.org/2000/svg" viewBox="0 0 160 24">
	<g fill="#fff">
		<path d="M116.121 16.7015c2.589 0 4.638-2.0029 4.638-4.6505 0-2.63471-2.049-4.66026-4.638-4.66026-2.6 0-4.661 2.02555-4.661 4.66026 0 2.6476 2.061 4.6505 4.661 4.6505Zm-.961-15.58883C117.55.820291 118.463.609127 119.669 0l.492 1.46515c-1.429.73745-2.74.95999-4.72 1.21663-2.248.29238-4.039 1.76891-4.039 5.52925v.19817c.971-1.74454 2.739-2.71589 4.741-2.71589 3.632 0 6.431 2.82148 6.431 6.37069 0 3.5378-2.799 6.3349-6.476 6.3349-3.655 0-6.443-2.8101-6.443-6.3349V8.18667c0-4.59038 2.426-6.69878 5.505-7.074ZM33.4893 5.71443c-3.592 0-6.2981 2.84259-6.2981 6.34307 0 3.4663 2.673 6.3219 6.3097 6.3219 1.774 0 3.3051-.6676 4.388-1.6698l-1.4638-2.0954c-.7701.6448-1.6343 1.0704-2.7861 1.0704-1.9111 0-3.5338-1.5528-3.5338-3.6271 0-2.10517 1.611-3.66129 3.5338-3.66129 1.1287 0 1.9918.41583 2.7754 1.09318l1.4745-2.10677c-1.0944-1.00059-2.5923-1.66819-4.3996-1.66819Zm13.8299 4.62777v7.7042h2.9248V5.96782h-2.9248l-5.5955 7.27708V5.96782h-2.925V18.0464h2.7287l5.7918-7.7042Zm4.4519-4.37438h2.9242V10.503h5.5962V5.96782h2.9348V18.0448h-2.9348v-4.8925h-5.5962v4.8925h-2.9242V5.96782Zm22.3525 6.06688c0 2.0499-1.5419 3.5135-3.4655 3.5135-1.9228 0-3.4083-1.4636-3.4083-3.5135 0-2.03689 1.4962-3.5459 3.4083-3.5459 1.9335 0 3.4655 1.50901 3.4655 3.5459Zm-3.7193-6.32027c-3.3157 0-6.0677 2.79711-6.0677 6.31057 0 3.5102 2.7402 6.3089 6.0677 6.3089 1.601 0 2.8336-.692 3.7083-1.7039l.2071 1.4164h2.5683V5.97919h-2.5581l-.184 1.46353c-.8741-1.02658-2.1065-1.72829-3.7416-1.72829Zm14.229 9.83377c1.9236 0 3.4091-1.4636 3.4091-3.5135 0-2.03689-1.4971-3.5459-3.4091-3.5459-1.9336 0-3.4655 1.50901-3.4655 3.5459 0 2.0499 1.5427 3.5135 3.4655 3.5135Zm-3.2818 1.2767v5.3083h-2.9366v-4.0868l-.0116-7.0236.0116-.0114V5.97919h2.5216l.2079 1.46353c.8633-1.02658 2.1076-1.72829 3.7425-1.72829 3.3167 0 6.0679 2.79711 6.0679 6.31057 0 3.5118-2.7403 6.3089-6.0679 6.3089-1.4968 0-2.6721-.5994-3.5354-1.509Zm20.2815-4.7902c0 2.0499-1.542 3.5135-3.4651 3.5135-1.9247 0-3.4091-1.4636-3.4091-3.5135 0-2.03689 1.497-3.5459 3.4091-3.5459 1.9331 0 3.4651 1.50901 3.4651 3.5459Zm-3.7189-6.32027c-3.3165 0-6.0677 2.79711-6.0677 6.31057 0 3.5102 2.7394 6.3089 6.0677 6.3089 1.5993 0 2.8329-.692 3.7079-1.7039l.208 1.4164h2.566V5.97919h-2.555l-.185 1.46353c-.874-1.02658-2.1068-1.72829-3.7419-1.72829Zm35.4949 6.32517c0 2.6233-1.662 4.5676-4.11 4.5676-2.424 0-4.005-1.9443-4.005-4.5676 0-2.61194 1.592-4.59201 4.017-4.59201 2.436 0 4.098 1.98007 4.098 4.59201Zm-4.228-6.34792c-3.301 0-5.702 2.80037-5.702 6.33652 0 3.5492 2.389 6.335 5.702 6.335 1.851 0 3.245-.9016 4.146-2.2351v1.954h1.781l.011-5.7258V5.94995h-1.826v1.91997c-.892-1.29947-2.273-2.17824-4.112-2.17824Zm7.728.25827h1.816v5.11825h7.237V5.94995h1.826V18.0838h-1.826v-5.3636h-7.237v5.3636h-1.816V5.94995Zm14.378 0h-1.816V18.0838h1.816v-5.3181h2.554l4.039 5.3181H160l-4.754-6.2765 4.145-5.85735h-2.143l-3.444 5.08255h-2.517V5.94995Z"/>
		<path d="M19.5981 1.2524C12.3053 2.80143 6.86536 6.69267 7.44752 9.94261c.18213 1.01449.93064 1.84619 2.0933 2.46379l-.00416.0178-.0183-.0195-.00416.0195c-3.13037-.5286-5.46069-1.9803-6.17592-4.20149-.78093-2.42884-.1447-5.12524 1.95441-7.433648H0V23.2733c.943936-.1038 1.90783-.2426 2.89917-.4538 7.29203-1.5497 12.73273-5.4403 12.14973-8.6902-.1821-1.0139-.9298-1.8462-2.0949-2.4645l.0058-.0178.0183.0208.0041-.0201c3.1304.5292 5.4607 1.9808 6.176 4.2015.7826 2.43.1438 5.1264-1.9569 7.4366h5.296V.797961c-.944.104417-1.9079.243829-2.8992.454439Z"/>
	</g>
</svg>