<svg xmlns="http://www.w3.org/2000/svg" viewBox="0 0 120 32">
	<path fill="#fff" d="m19.4335 12.8404 1.1836-1.4866c-.7952-.3068-1.6657-.3601-2.4923-.1527l1.3087 1.6393Zm-4.7887 5.9187 2.1992-2.7094-2.0465-2.5704c-.9046.8349-1.7817 1.7086-2.6451 2.598l2.4924 2.6818Zm4.7333.5005-1.49 1.82c.9167.2104 1.8775.1076 2.729-.2922l-1.239-1.5278Zm-4.1347-9.65656c-1.7708 1.37546-3.4324 2.88596-4.97 4.51816l1.0314 1.0839c1.5193-1.593 3.1472-3.0785 4.8723-4.446.8451-.5932 1.8493-.91838 2.8817-.93312.8172-.00609 1.6256.16955 2.3666.51422l.9743-1.20865c-1.0499-.52744-2.2081-.80334-3.3831-.8059-1.3613.01324-2.6828.46054-3.7722 1.27686l-.001.00053Zm6.5568 10.64266c.3945-.317.7538-.6756 1.0716-1.0696l-5.9301-7.4476-1.1694.9611 6.0279 7.5561Zm-4.7637 1.9035-1.0162 1.1787c.9778.4577 2.0547.663 3.1323.5972 1.8025-.133 3.5039-.884 4.8168-2.126.915-.8252 1.6327-1.8455 2.1003-2.9853.4675-1.14.6728-2.3704.6008-3.6004-.1406-1.2689-.5891-2.4843-1.3065-3.5404l-.9605 1.2362c.7074 1.1806.9552 2.5804.6959 3.9322-.2245 1.2464-.7874 2.4071-1.6271 3.3552-.8397.9481-1.924 1.647-3.1341 2.0204-1.0777.3389-2.2368.3146-3.2993-.0692l-.0024.0014ZM5.39735 14.8136c-.16708.8908-.16708 1.8049 0 2.6957.41791-.4587.83485-.9169 1.26706-1.3613l-1.26706-1.3344Zm1.21154-2.7369c-.33751.4098-.60979.8691-.8074 1.3619l7.09941 7.4888 1.0023-1.2092-7.29431-7.6415Zm3.92541-3.94549c-1.09059.93476-2.12597 1.93199-3.10088 2.98689l2.00464 2.0979c.93304-.9723 1.89324-1.9314 2.89754-2.8341l-1.8013-2.25069ZM36.7621 19.2183l-1.1973 1.4866c.7949.3068 1.6653.3603 2.4918.1532l-1.2945-1.6398Zm4.7745-5.9188-2.1991 2.7094 2.0459 2.5705c.9193-.8349 1.7822-1.709 2.6456-2.5984l-2.4924-2.6815Zm-4.7298-.5008 1.5032-1.8201c-.9205-.2183-1.8881-.1153-2.7422.2918l1.239 1.5283ZM8.83949 5.99047C7.08523 7.44473 5.49364 9.08451 4.09242 10.8814c-1.79591 2.6121-1.9772 6.1132-.90457 8.9872l1.16882-1.2509c-.09258-.3337-.16689-.6722-.2225-1.0141-.34518-2.0317.07123-4.1194 1.16936-5.8633 1.31833-1.6861 2.81161-3.2278 4.45474-4.59919l-.91878-1.15064ZM4.70486 8.22742C5.7285 7.1224 6.81621 6.07846 7.96236 5.10107c-.68216-.55595-1.50325-.98613-2.33863-.77792-.33918.09912-.64694.28428-.89336.5375-.24634.25331-.42303.5661-.5127.90784-.11792.41933-.13531.86054-.05067 1.28781.08464.42726.26893.82849.53786 1.17112Zm-1.796 2.18148c.2947-.4169.62673-.81963.94694-1.22236-.44333-.5075-.75215-1.11817-.89805-1.77606-.1458-.65789-.12418-1.3419.06311-1.9892.15498-.55286.45066-1.05612.85806-1.46061.4075-.40459.91288-.69655 1.46688-.84756 1.239-.31968 2.84003.18075 4.413 2.01347l3.5635 4.47399 1.1697-.94492-3.5638-4.47389c-1.41988-1.69531-3.57775-3.11214-5.93067-2.5287-.80511.22436-1.54031.64917-2.13678 1.23472-.59646.58551-1.03475 1.31269-1.27394 2.11365-.27705.93732-.30061 1.93139-.06831 2.8808.2323.94941.71225 1.82028 1.39089 2.52367l-.00053.003ZM13.6979 26.2618c.5722.2539 1.1578.4766 1.7543.6668 1.5339.4727 3.1478.629 4.7438.4593 1.5961-.1695 3.1411-.6615 4.5414-1.4459-.5706-.6384-1.1001-1.3196-1.6289-1.9865-1.1154.6537-2.36 1.056-3.647 1.1786-1.451.1373-2.9116-.1323-4.2181-.7783l-1.5455 1.906Zm-2.4221-1.3339c.4312.278.8629.5402 1.2808.7641l6.0135-7.4471-.933-1.1953-6.3613 7.8783Zm-4.09286-3.5851c.89583 1.0796 1.92485 2.0411 3.06256 2.8617l1.8795-2.3082-2.72859-2.8714-2.21347 2.3179Zm-1.92116 2.0135c.95047 1.1059 2.02486 2.0988 3.20198 2.9595 4.41304 3.3203 8.67284 4.3069 12.51474 3.751 2.077-.3305 4.0659-1.0772 5.8471-2.1953-.4037-.3334-.8074-.6669-1.1831-1.0279-1.4927.8863-3.1426 1.4759-4.8589 1.7367-3.4662.5141-7.3499-.4028-11.41526-3.4594-.68208-.528-1.40598-1.1114-2.12989-1.7926-.33415-.3348-.6503-.6872-.94685-1.0558l-1.02982 1.0838Zm2.43633 3.9598c-1.20343-.8966-2.30941-1.9172-3.29969-3.0448-.23292.2722-.37325.6114-.4007.9686-.02745.3572.0594.7138.24792 1.0184.17281.3401.41227.642.70397.8878.29169.2459.62982.4306.99433.5433.29956.0968.61941.1131.92735.0472.30785-.0659.59302-.2115.82682-.4224v.0019Zm2.31069 1.5426c-.43173-.25-.8634-.5142-1.28087-.8059-.397.4236-.90537.7266-1.4668.8742-.56142.1477-1.15311.1341-1.70712-.0393-1.04235-.332-1.91224-1.0605-2.42212-2.0283-.28217-.5006-.415-1.0714-.38296-1.6451.03195-.5737.22762-1.1262.56363-1.5922 1.796-1.7788 3.50851-3.6539 5.2347-5.5161l-1.03132-1.0696c-1.73996 1.8759-3.46623 3.779-5.28969 5.5715-1.267055 1.2504-1.15558 3.5291-.41791 4.9459.3376.6568.80167 1.2404 1.36547 1.7174.56381.4769 1.21631.8377 1.92001 1.0618.87351.2606 1.80421.26 2.67737-.0018.87315-.2617 1.65064-.7733 2.23661-1.4715l.001-.001Zm30.933-6.4035c1.7704-1.3758 3.4319-2.8864 4.9695-4.5181L44.88 16.8394c-1.5142 1.5974-3.1376 3.0876-4.8584 4.4598-.8471.5895-1.8501.9142-2.8818.933-.8219.0077-1.635-.168-2.3804-.5142l-.9606 1.1953c1.0482.5333 2.2067.814 3.3827.8197 1.356-.0199 2.6713-.4667 3.7589-1.2768l.0014-.001ZM24.9741 6.11571c-1.4768-.82479-3.1062-1.34005-4.7887-1.51454-2.1919-.23098-4.4035.18437-6.3622 1.19486l1.7262 2.15346c1.2544-.67007 2.6755-.96442 4.0928-.84765 1.2372.09435 2.4412.44448 3.536 1.0284.5711-.70872 1.1693-1.37509 1.7959-2.01356v-.00097Zm2.325 1.59803c-.395-.33803-.8087-.65347-1.2391-.94491-.796.78534-1.5356 1.62575-2.2134 2.51497l-3.6754 4.6125.9748 1.1673c2.0184-2.4869 3.9396-5.0436 6.1531-7.34986Zm.7096 15.81356c.7055-.6787 1.366-1.4026 1.9772-2.1672-1.1115-1.4456-1.7093-3.2204-1.6988-5.0437.0225-1.9716.6494-3.8889 1.796-5.493-.5934-.7983-1.2301-1.56361-1.9069-2.29246-.7058.6744-1.3663 1.3946-1.9772 2.15596 1.11 1.4518 1.7075 3.2307 1.6986 5.0583-.026 1.9693-.6529 3.8835-1.7968 5.4866.5969.7958 1.2333 1.5611 1.9069 2.293l.001.0025Zm2.1162 1.7503c.7957-.7806 1.5353-1.6164 2.2134-2.5012l3.6754-4.6129-.9749-1.1694c-2.0189 2.4732-3.9401 5.0436-6.1388 7.3499.3876.3386.7978.6503 1.2278.933l-.0029.0006Zm12.2368.9866-1.7125-2.1673c-1.2562.6796-2.6832.9788-4.1066.861-1.2356-.1027-2.4381-.4524-3.5359-1.0284-.5707.7091-1.1694 1.3751-1.7961 2.0135 1.2462.697 2.6021 1.1764 4.0094 1.4173 1.7005.3139 3.4511.2187 5.1075-.2775.7015-.2095 1.3821-.4841 2.0327-.8201l.0015.0015Zm1.7262 2.1672-.9331-1.1787c-2.4912 1.3661-5.374 1.8417-8.172 1.3481-3.2096-.5965-6.1317-2.2381-8.3109-4.6688-.5009-.5698-.9743-1.1669-1.4477-1.7783-.3541.3566-.7258.695-1.1139 1.0141.4597.6114.9331 1.2085 1.4341 1.7783 2.4094 2.6653 5.628 4.465 9.1605 5.1221 3.2231.5701 6.5441-.0101 9.383-1.6392v.0024Zm8.2412-5.5578c.4461.5059.7567 1.1168.9027 1.7753.146.6586.1227 1.3434-.0679 1.9905-.1573.5516-.4537 1.0537-.8608 1.4579-.4071.4041-.9112.697-1.4641.8503-1.239.3059-2.8258-.1802-4.4129-2.0136l-3.564-4.4734-1.1693.9449 3.5639 4.4734c1.4203 1.6953 3.5777 3.1122 5.9305 2.5287.8051-.2243 1.5402-.649 2.1365-1.2345.5964-.5854 1.0346-1.3125 1.2738-2.1133.2773-.9364.3024-1.9294.0726-2.8785-.2297-.9492-.7061-1.8207-1.381-2.5266-.0697.0982-.1389.1802-.1963.2642-.2505.3193-.501.6384-.7657.9582l.002-.0035Zm-4.1066 4.085c.6679.5559 1.5032.9866 2.3386.7784.3397-.1009.6483-.2864.8966-.5392.2484-.2528.4285-.5647.5232-.9061.1122-.4208.1254-.8619.0384-1.2886-.0869-.4268-.2714-.8275-.5393-1.1709-1.0238 1.1048-2.1115 2.1485-3.2575 3.1259v.0005Zm.5426-6.0185-2.0046-2.0979c-.9464.9723-1.907 1.9309-2.9093 2.8341l1.796 2.2507c1.093-.938 2.1339-1.9351 3.1179-2.9869Zm1.6153-2.3346-7.0999-7.4874-1.0023 1.2228 7.3085 7.6416c.3281-.4187.5953-.8816.7937-1.3751v-.0019Zm.4174-4.0566c-.4316.4421-.8491.9027-1.267 1.3614l1.2533 1.3201c.1646-.8859.1692-1.794.0137-2.6815Zm2.1996-2.3621c-.3899.4167-.7796.8337-1.1692 1.2508.2829 1.0015.3866 2.045.3059 3.0826-.0931 1.3457-.524 2.6463-1.2528 3.7815-1.318 1.6905-2.8112 3.2365-4.4548 4.6124l.9189 1.1537c1.7509-1.4578 3.3421-3.0973 4.7469-4.891.9919-1.4772 1.5374-3.2087 1.5716-4.9876.0334-1.3642-.1932-2.7221-.6679-4.0015l.0014-.0009ZM47.4568 4.004c.397-.42356.9054-.72664 1.4669-.8743.5614-.14766 1.1531-.13398 1.7071.03936.5172.1624.9974.42524 1.413.77334.4156.34809.7586.77474 1.0092 1.25541.2823.50052.4152 1.07138.3832 1.64516-.032.57369-.2277 1.12629-.564 1.59221-1.7959 1.77822-3.5084 3.65382-5.2346 5.50032l1.0313 1.0839c1.74-1.8755 3.4662-3.7791 5.2901-5.57108 1.2666-1.25082 1.1693-3.52908.4175-4.94636-.3378-.65665-.8018-1.24022-1.3656-1.71701-.5638-.47686-1.2163-.83765-1.9199-1.06167-.8708-.26118-1.7984-.26644-2.672-.01515-.8737.2513-1.6568.74855-2.2557 1.43251.4449.27793.8766.56963 1.2945.86133l-.001.00203Zm4.3291 3.78141c.2334-.27466.3738-.61614.4013-.97545.0275-.35939-.0593-.71826-.2481-1.02523-.3551-.67704-.9589-1.19-1.6844-1.43113-.3035-.09117-.6252-.10335-.9346-.03522-.3094.06805-.5963.21403-.8334.42418 1.2062.89301 2.3122 1.91392 3.2987 3.04488l.0005-.00203Zm-5.8441.05552-1.8794 2.31997 2.7423 2.8621 2.1996-2.3082c-.8954-1.08396-1.9244-2.05023-3.0625-2.87582v.00195ZM43.6307 6.3676l-6.0161 7.4452.9332 1.1953L44.91 7.12982c-.4317-.27793-.8491-.54024-1.2808-.76416l.0015.00194Zm-12.1794-.25039c.5706.63838 1.0996 1.32002 1.6285 1.987 1.1155-.65383 2.3603-1.05603 3.6475-1.17872 1.4555-.13751 2.9207.13186 4.2323.77793l1.5312-1.90351c-1.6255-.74712-3.3898-1.14464-5.1787-1.16688-2.0481-.01086-4.0653.50061-5.8608 1.48612v-.00194Zm-2.0882-1.93104c.4037.31968.8074.66689 1.1836 1.02832 1.4925-.88605 3.142-1.4758 4.858-1.73696 3.4666-.51376 7.3508.40317 11.4157 3.45979.7446.5548 1.4559 1.1532 2.1299 1.79203.3482.34722.6542.69443.9464 1.04209l1.0312-1.06963c-.942-1.10881-2.012-2.10217-3.1877-2.95935-4.4268-3.33458-8.6871-4.30696-12.5152-3.75153-2.0835.32209-4.0785 1.06931-5.8608 2.19524h-.0011ZM11.266 2.68531C14.4163.825521 18.1232.140925 21.7299.752858c2.339.428762 4.5656 1.331222 6.543 2.651942C31.0652 1.55035 34.3604.599638 37.7114.681649c2.5715.07022 5.0938.720951 7.3783 1.903521.7394-.93997 1.7424-1.637823 2.8808-2.004155 1.1384-.366332 2.3602-.384478 3.509-.0521 1.7327.553545 3.1748 1.772355 4.0093 3.388595 1.0161 1.94525 1.0161 4.75191-.6546 6.40499-.306.2917-.5844.5834-.8767.8751.6623 1.5636.9893 3.2486.9602 4.9464-.0115 1.5068-.3438 2.9939-.9744 4.3625.8489.8429 1.4839 1.8766 1.852 3.0149.3855 1.264.3806 2.615-.0142 3.8763-.2998 1.0119-.8538 1.9302-1.6094 2.6672-.7555.7369-1.6873 1.268-2.7065 1.5425-2.4776.6119-4.8305-.5402-6.5425-2.237-3.1472 1.8592-6.8513 2.5436-10.4551 1.9315-2.342-.4325-4.5724-1.3346-6.5566-2.6519-.3758.2362-.7515.4724-1.1414.6944-1.8728 1.0668-3.9422 1.7436-6.0835 1.9895-2.1414.246-4.3103.056-6.3763-.5584-1.1051-.3359-2.1768-.7732-3.2015-1.3064-.7401.9392-1.74323 1.6364-2.88152 2.0027-1.1382.3662-2.3598.3849-3.50868.0536-.8608-.2718-1.65938-.7111-2.34983-1.2927-.69046-.5815-1.25912-1.2938-1.673239-2.096-1.015607-1.9442-1.015607-4.7513.654099-6.4045.30652-.2917.5992-.5833.89142-.875-.63326-1.4707-.96459-3.0536-.97439-4.6547-.02824-1.605.30477-3.1958.97439-4.6547C1.39017 10.7032.759199 9.66349.402806 8.5192c-.39725835-1.25691-.39725835-2.60569 0-3.8626.299642-1.01199.853644-1.93034 1.609064-2.66735C2.76729 1.25221 3.69905.721031 4.7181.44641c1.275-.30898 2.61638-.186714 3.81442.3477 1.02293.44795 1.94968 1.08949 2.72908 1.88926l.0044.00194ZM30.9626 9.9085c.3562-.3601.7333-.69875 1.1296-1.0141-.4734-.61147-.9469-1.20916-1.4477-1.77835-2.4019-2.66845-5.6167-4.47034-9.1464-5.12659-3.2276-.57792-6.5555.00266-9.3967 1.63926l.9468 1.17871c2.4862-1.36591 5.3644-1.84137 8.1577-1.34764 3.206.59734 6.1264 2.2328 8.311 4.65421.5008.56972.9743 1.1811 1.4477 1.79256l-.002.00194Zm3.4378 1.9035c-.4022.3135-.7667.6725-1.0863 1.0696l5.9305 7.4476 1.1694-.9586-6.0136-7.5586Zm2.6868-2.19519c.7006-.05411 1.4045.04545 2.0626.29169l1.0161-1.17862c-.977-.46001-2.0545-.66539-3.1322-.59725-1.8048.12329-3.5092.87545-4.8167 2.12557-.916.8243-1.6344 1.8445-2.102 2.9846-.4676 1.1401-.6724 2.3709-.5991 3.6011.1406 1.2701.5898 2.4866 1.3088 3.5433l.9601-1.2372c-.453-.7453-.7203-1.5887-.7794-2.4589-.0528-.9406.095-1.8817.4337-2.7609.3386-.8791.8604-1.6762 1.5307-2.3382 1.0854-1.1405 2.5518-1.84272 4.1208-1.97325l-.0034-.00194Zm-2.8543 6.43339-1.517-1.903c-.2962.6036-.456 1.265-.468 1.9372-.0121.6723.1239 1.339.3983 1.9528l1.5867-1.987Zm-12.2775-.0417 1.5174 1.9035c.2962-.6037.4559-1.2652.4679-1.9376.0119-.6723-.1241-1.339-.3986-1.9529l-1.5867 1.987Zm37.0438 15.728v-8.5594h5.9425v1.2361h-4.5675v2.3347h2.5472c.9188.0138 1.5878.1385 2.0626.5402.459.4032.6267 1.0421.6267 1.9035.0335.3486-.0062.7004-.1156 1.0328-.1104.3325-.2887.6384-.5234.8983-.572.4599-1.301.6792-2.0318.6113h-3.9402l-.0005.0025Zm3.8701-1.2508c1.2666-.0555 1.3089-.25 1.3645-1.2921-.0697-1.1816-.1536-1.1261-1.4739-1.1953h-2.3795v2.4869h2.4916l-.0027.0005Zm21.0756 1.1251h-1.1244l-.6143-1.6393h-3.8305l-.654 1.6393h-1.4616l3.1041-8.2947.0556-.1385h1.6311l3.2268 8.4337h-.3345l.0017-.0005Zm-5.18-2.8621h2.9779l-1.488-4.0428-1.4899 4.0428Zm22.8191 2.9874h-1.145v-3.7378h-4.4104v3.7378h-1.3654v-8.559h1.3654v3.5851h4.4104v-3.5851h1.38v8.559h-.235Zm16.495 0-3.801-3.7378h-.5v3.7378h-1.381v-8.559h1.381v3.5851h.5l3.399-3.5851h1.866l-4.042 4.1405L120 31.7375h-1.921v-.0014ZM74.7006.166485V2.38971c0 5.09915-5.5551 5.26561-5.5551 12.47649v6.8106h2.7431v-7.1701c.0909-2.5191.752-4.98477 1.9347-7.21087l.8773-1.63934V21.6768h2.7422V.166485h-2.7422ZM115.948 0c-2.352 0-3.87 1.00037-3.87 2.77913v.9999c0 1.94525.835 2.23695 2.731 2.80666.672.21545 1.262.63212 1.69 1.19372.427.5616.672 1.24102.701 1.9464 0 2.06999-2.308 3.16769-4.105 3.16769-.342-.0027-.683-.0398-1.017-.1111v8.8944h2.731v-8.4892c.947-.2935 1.782-.8707 2.391-1.6535v10.1427h2.731V2.94762c0-1.75031-1.213-2.94664025-3.983-2.94664025V0Zm1.252 7.90677c-.57-1.13891-2.391-1.52831-2.391-3.04488V2.12795c0-1.292093.766-1.361342 1.252-1.361342.569 0 1.139.098225 1.139 1.361342v5.77979-.00097Zm-7.823 13.77003L109.362.166485h-2.725V4.55695l-2.383 3.68326V.166485h-2.739V21.6768h2.739V9.79747l2.383-3.62625V21.6768h2.74Zm-10.6468-8.8919c-.3407.0644-.6858.1015-1.0317.1109-2.1315 0-4.1059-1.3337-4.1059-3.16752 0-1.58383 1.1006-2.65195 2.436-3.14011 1.2921-.48623 2.6866-.51421 2.6866-2.83421V2.75309c0-1.77825-1.5172-2.75014232-3.8702-2.75014232-2.7696 0-3.9823 1.19485232-3.9823 2.90389232V21.6768h7.8675v-8.8924.0005ZM93.6473 1.98946c0-1.292091.6823-1.333839 1.1395-1.333839.4219 0 1.2568.041748 1.2568 1.333839v2.73739c0 1.52831-1.6743 1.87552-2.3963 3.04488V1.98896v.0005Zm2.3963 19.18734h-2.3963v-9.601c.5931.8078 1.4351 1.3986 2.3963 1.6816v7.9194ZM85.3377.166485V3.19563c-.6143 2.72317-2.3963 4.23771-4.8623 4.23771-.0882.003-.1765-.01121-.2603-.04175l-.0142 14.28521h2.7405v-8.9199l2.3963 3.668v5.2519h2.7254l.015-21.510315h-2.7404Zm0 14.852415-2.3963-3.6675V7.46326c1.0644-.48905 1.9161-1.34817 2.3963-2.4177v9.97584-.0025ZM66.3891 7.43484V2.92008c0-1.59803-1.0856-2.8758796-3.8278-2.8758796-3.0209 0-3.9534 1.2768696-3.9534 3.2653696V18.3284c0 1.9728.933 3.2512 3.9251 3.2512 2.729 0 3.8288-1.2769 3.8288-2.8764v-2.2783h-2.7017v2.2783c0 1.5003-.0688 2.3081-1.2383 2.3081-.9329 0-1.1297-.8348-1.1297-1.7227l.0141-16.93671c0-.90314.196-1.737027 1.1289-1.737027 1.2118 0 1.2533.834867 1.2533 2.403447l-.0142 4.41997h2.7149v-.00344Z"/>
</svg>