<svg xmlns="http://www.w3.org/2000/svg" viewBox="0 0 110 38">
	<g fill="#fff">
		<path d="M27.1563 22.6541h1.7352l.9972 4.4405h.0149l.9977-4.4405h1.7426v5.7058h-1.0937v-4.7704h-.0153l-1.0783 4.7704h-1.1555l-1.0358-4.7704h-.0149v4.7704h-1.0941v-5.7058Zm6.469 3.5902c.0057-1.258.8619-2.2398 2.1527-2.2398 1.2905 0 2.1522.977 2.1522 2.2398 0 1.2638-.8606 2.2437-2.1522 2.2437-1.2827 0-2.1609-.9835-2.1527-2.2437Zm1.1402 0c0 .6336.2867 1.3044 1.012 1.3044.7437 0 1.013-.6528 1.013-1.3044 0-.6471-.2725-1.3039-1.0125-1.3039-.7214 0-1.0145.6711-1.0125 1.3039Zm7.3346-3.8855c0 .7807-.6031 1.1472-1.3257 1.1452-.7278-.0038-1.3296-.3549-1.3296-1.1452h.7925c.0115.3405.1904.5239.5371.5239.3546 0 .5474-.163.5372-.5239h.7885Zm-3.2192 1.7699h1.0932v2.6088h.0158l1.5344-2.6083h1.1476v4.2307h-1.0902v-2.5504h-.0198l-1.4874 2.5504h-1.1936v-4.2312Zm7.3579 0h1.0932v1.529h1.6076v-1.5295h1.0897v4.2312h-1.0897v-1.8129H47.332v1.8129h-1.0932v-4.2307Zm8.4006 3.3967c0 .2191-.0054.5781.2513.6599v.1746h-1.2094c-.0664-.1581-.1077-.3205-.1044-.4931-.3847.3981-.7728.6265-1.3449.6212-.7672-.008-1.3064-.5267-1.2985-1.3044.0078-.6806.4915-1.2143 1.1555-1.3039 0 0 1.1501-.1726 1.1941-.1825.1606-.037.2668-.1568.2627-.326-.008-.3766-.3443-.4803-.6722-.4773-.3906.004-.6747.1584-.7267.5822h-1.0937c0-.9607.9425-1.4668 1.7971-1.4716.85-.0044 1.7891.2846 1.7891 1.2772v2.2437Zm-1.0936-1.2306c-.2432.1316-.4877.1789-.7573.2295-.3894.0686-.7613.2063-.7613.6593 0 .3287.2326.5244.5525.5244.4083 0 .7785-.2254.9122-.6134.0865-.2515.0539-.5384.0539-.7998Zm1.8895 1.1762h.4368c.5493-1.0351.5304-2.2056.5604-3.3423h3.2924v3.3423h.5293v1.9059h-1.0279v-1.017h-2.7631v1.017h-1.0279V27.471Zm3.1999 0v-2.4495h-1.2519c0 .8091-.0373 1.7159-.4136 2.4495h1.6655Zm3.1687-.8854c0 .5923.3999 1.0091.9893 1.0091.3075 0 .6289-.1808.7108-.4927h1.1323c0 .9154-1.1389 1.3821-1.9049 1.3855-1.3472.005-2.029-1.0247-2.029-2.2902 0-1.2059.7242-2.1933 1.9944-2.1933 1.516 0 1.9939 1.2538 1.9939 2.5811l-2.8868.0005Zm1.7506-.7291c0-.5159-.3132-.9603-.8577-.9631-.5482-.003-.8543.4511-.8543.9631h1.712Zm5.36-.047h.2083l1.1555-1.6808h1.2484l-1.4146 1.9568L71.6 28.3599h-1.3217l-1.1555-1.797h-.2083v1.797h-1.0902v-1.797h-.2394l-1.1862 1.797h-1.2752l1.4953-2.2744-1.3988-1.9568h1.2519l1.1476 1.6808h.2048v-1.6808h1.0902v1.6808Zm3.4274-1.6808h1.0937v1.5294h1.6076v-1.5294h1.0897v4.2312h-1.0897V26.547h-1.6076v1.8129h-1.0937v-4.2312Zm9.2203 0h1.0936v4.2312h-1.0936v-4.2312Zm-4.2238 0h1.0936v1.4716h.9933c.8928 0 1.6541.4073 1.6541 1.3855 0 .9035-.7054 1.3629-1.5384 1.3741h-2.2026v-4.2312Zm1.0936 3.4047h.7999c.3607 0 .7073-.1337.7073-.5476 0-.4459-.427-.5608-.7998-.559h-.7074v1.1066Zm8.6445-5.1746c0 .7807-.6022 1.1472-1.3251 1.1452-.7279-.0038-1.3297-.3549-1.3297-1.1452h.7925c.0115.3398.1914.5239.5372.5239.3545 0 .5473-.163.5371-.5239h.788Zm-3.2187 1.7699h1.0937v2.6088h.0153l1.534-2.6083h1.148v4.2307h-1.0897v-2.5504h-.0198l-1.4874 2.5504h-1.1941v-4.2312Zm11.0361-1.5408c.0075.5492-.3346.9327-.8616 1.0521-.4197.0953-.8547.0752-1.2634.225-.6002.2194-.9299.7387-.97 1.3663.208-.6722.9357-.9853 1.5958-.9898 1.1608-.0086 1.8742.9106 1.8742 2.0186 0 1.2702-.8484 2.2358-2.1448 2.2358-1.1142 0-1.8691-.6755-2.0637-1.7584-.0652-.363-.094-.7263-.0964-1.0947-.0039-1.0523.361-2.1133 1.3602-2.585.3201-.1514.7059-.2503 1.1595-.2914.1317-.0117.3587-.0319.421-.1785h.9892Zm-2.7824 3.6564c.002.6338.2863 1.3044 1.0126 1.3044.7497 0 1.0125-.649 1.0125-1.3044 0-.6157-.2904-1.1876-.9739-1.1876-.6896 0-1.0532.5406-1.0512 1.1876Zm7.5049 1.2811c0 .1267.0049.2315.0192.3146.0255.1485.0779.2962.232.3453v.1746h-1.2094c-.0664-.1581-.1077-.3205-.1043-.4931-.3848.3981-.773.6265-1.345.6212-.7673-.008-1.3064-.5266-1.2985-1.3044.0079-.6889.476-1.2057 1.1555-1.3039 0 0 1.1501-.1726 1.1941-.1825.1606-.037.2668-.1568.2627-.326-.008-.3766-.3443-.4803-.6722-.4773-.4105.0042-.6751.1612-.7267.5822h-1.0936c0-.9608.9422-1.4668 1.797-1.4716.8497-.0044 1.7892.2846 1.7892 1.2772v2.2437Zm-1.0937-1.2306c-.2432.1316-.4876.1789-.7573.2295-.3894.0686-.7613.2063-.7613.6593 0 .409.3466.5657.7108.5125.3497-.0519.6383-.2659.7539-.6015.0865-.2515.0539-.5384.0539-.7998Zm2.2523-2.1661h1.094v1.5294h1.608v-1.5294h1.09v4.2312h-1.09V26.547h-1.608v1.8129h-1.094v-4.2312Zm5.028 0h1.094v1.6076l1.577-1.6076h1.452l-1.738 1.7585L110 28.3604h-1.426l-1.237-1.7857-.44.4462v1.339h-1.094v-4.2312ZM31.6769 11.0428c-.2088-.7379-.7659-1.19633-1.5582-1.18324-1.2479.018-1.6739 1.29834-1.6739 2.35754 0 1.054.4166 2.3565 1.6739 2.3565.8517 0 1.3444-.5048 1.5676-1.2807h1.4147c-.2703 1.4906-1.3874 2.5242-2.9264 2.5198-2.0741-.0081-3.1534-1.651-3.1534-3.5961 0-1.8618 1.0821-3.59564 3.0975-3.59564 1.4616 0 2.8529.86974 2.9818 2.42184h-1.4236Zm2.0958-2.2497h5.5836v1.17875h-2.0825v5.66865h-1.4236V9.97185h-2.0775V8.7931Zm6.6684 0h3.0979c1.3449 0 2.133.87011 2.133 2.1938 0 1.3032-.9624 2.1942-2.2492 2.1942h-1.5581v2.4594h-1.4236V8.7931Zm1.4236 3.2048h1.3498c.6355 0 1.0339-.3691 1.0339-1.011 0-.6321-.4021-1.02362-1.0339-1.01505h-1.3498v2.02605Zm4.7392.2187c.0076-1.9828 1.1899-3.59564 3.2785-3.59564 2.0139 0 3.2741 1.67974 3.2741 3.59564 0 1.9181-1.2578 3.5961-3.2741 3.5961-2.0794 0-3.2867-1.6101-3.2785-3.5961Zm3.2785 2.357c1.2734 0 1.8557-1.2335 1.8505-2.357-.0049-1.1204-.5741-2.35704-1.8505-2.35704-1.271 0-1.8602 1.23404-1.8549 2.35704.0049 1.1254.5731 2.357 1.8549 2.357Zm4.5493-5.7805h1.3682v4.6626h.0183l2.6988-4.6626h1.4424v6.8474h-1.3682v-4.6348h-.0183l-2.6944 4.6348h-1.4468V8.7931Zm2.8798-.35862c-1.1899 0-1.7901-.46229-1.7901-1.43448h1.0759c.0133.43085.2906.66135.7142.66135.413 0 .7274-.22432.7143-.66135h1.0759c0 .9718-.5997 1.43448-1.7902 1.43448Zm8.3794 1.53737h-1.9964c0 .89595.0135 1.79255-.0396 2.68745-.0674 1.1345-.1985 3.1148-1.7387 3.1069-.2803-.0017-.5671-.029-.8275-.1395v-1.3094c.2057.1041.504.1493.7261.0747.3748-.1249.4165-.7592.4541-1.0714.0882-.7203.0906-1.4553.0881-2.1799V8.7931h4.758v6.8474h-1.4236V9.97185h-.0005Zm2.9446-1.17875h5.0034v1.17875h-3.6357v1.51855h3.3439v1.1827h-3.3439v1.7283h3.7984v1.2391h-5.1661V8.7931Zm10.8185 2.2497c-.2094-.7401-.7667-1.18978-1.5582-1.18324-1.2485.00714-1.6738 1.30774-1.6738 2.35754 0 1.0539.4166 2.3565 1.6738 2.3565.8493 0 1.3477-.5039 1.5676-1.2807h1.4142c-.2683 1.4892-1.388 2.5264-2.9259 2.5198-2.0741-.0081-3.1533-1.651-3.1533-3.5961 0-1.8617 1.0825-3.59564 3.0974-3.59564 1.4615 0 2.8529.8699 2.9818 2.42184H79.454Zm2.7591-2.2497h4.9619v1.17875h-3.5383v1.51855s1.9262.003 2.087.0089c1.2172.0487 2.0587.8258 2.0587 2.0726 0 1.3626-.9663 2.0686-2.2442 2.0686h-3.3251V8.7931Zm1.4236 5.6637h1.5399c.6129 0 1.1777-.2128 1.1777-.9171 0-.7535-.5937-.9225-1.2336-.9225h-1.484v1.8396Zm7.4336-5.6637h1.6279l2.4114 6.8474h-1.5492l-.4358-1.4117h-2.5183l-.4729 1.4117h-1.5022l2.4391-6.8474Zm-.0836 4.2525h1.7392l-.8488-2.7112h-.0183l-.8721 2.7112Zm5.1706-4.2525h1.428v2.6038h2.6757V8.7931h1.424v6.8474h-1.424v-3.0604h-2.6757v3.0604h-1.428V8.7931Zm7.2157 0h1.423v2.7854l2.607-2.7849h1.841l-2.783 2.8037 2.945 4.0432h-1.804l-2.11-3.0322-.696.7123v2.3199h-1.423V8.7931Z"/>
		<path d="M13.1234 13.4995 9.38042.5 0 34.2906h1.23338L.676578 36.28H9.72955l.15289-.1332c.52736-.6319.97146-1.2214 1.37556-1.8562h1.8654v2.5036h8.5609L13.6089 7.91926c-.0754-.26927-.4855-.21198-.4855.06732v5.51292ZM10.663 24.6619c.8814 2.3772 1.3698 4.0004 1.3597 5.5816-.0032.5161-.0795 1.0267-.2298 1.5447-.4237 1.4608-1.3352 2.7431-2.29643 3.9052H1.45L8.45147 10.679c-.01894.4469-.02832.8908-.02832 1.3309 0 5.0653 1.11186 9.6105 2.23985 12.652Z"/>
	</g>
</svg>