<svg xmlns="http://www.w3.org/2000/svg" viewBox="0 0 130 36">
	<g fill="#fff">
		<path d="M24.0612 30.2306c-2.1548-1.5213-3.1078-3.0989-2.2923-4.5263 0 0 3.6129-5.0803 1.1373-15.6728 0 0 6.8404-2.99565 7.9777-9.061966L25.8316 3.37352c.247-.50709.449-1.03296.5958-1.57762.1281-.3944.2656-.873325.3479-1.2959l-1.228.5916-10.775 5.06154c-.0552.02817-.101.06573-.1188.12207-.578 1.26774-.7706 2.77022-.7342 4.35729-.981-.3287-2.0079-.5166-3.09-.5166-1.59556 0-3.09944.4039-4.43779 1.0894-.00935-.0282-.01871-.0657-.03648-.0939-.08323-.0845-.21136-.1033-.31237-.0376l-1.28316.8169-.32173-2.58237c-.00842-.12205-.11878-.21595-.23756-.2253-.12906 0-.23007.0939-.24784.21595L3.56705 11.872l-1.27474-.8451c-.10101-.0658-.22915-.0564-.31145.0281-.0823.0846-.10101.216-.03648.3193l.79778 1.3147-2.522375.3193C.0916552 13.0271 0 13.1303 0 13.2618c0 .1314.0916527.2348.211365.2536l2.512095.3944-.83425 1.2959c-.06453.0939-.05519.2347.02712.3193.0187.0187.05517.0281.0823.0375-.75195 1.4368-1.182154 3.0801-1.182154 4.8173 0 5.6532 4.492944 10.2546 10.012824 10.2546 1.3664 0 2.6683-.2817 3.8607-.7888.0823.0658.1562.1221.2478.1878 3.8879 2.9017 6.6749 1.7748 8.8672 2.7514 1.8059.8076 2.5944 2.3289 2.5944 2.3289l3.3107-1.1362c-1.2841-2.3383-3.9888-2.5731-5.6489-3.7469ZM15.066 6.57571l10.949-5.12726c-.1656.64795-.4041 1.28651-.7061 1.89689L17.6332 6.9889c-.0551.02817-.101.06573-.1187.12206-1.3113 2.92984-1.4029 6.85514-1.4768 10.31084-.0271 1.1739-.0552 2.2819-.1281 3.2398-.0552-.6855-.1646-1.4461-.3208-2.2444-.0646-.3098-.1281-.6291-.1927-.9484-.7519-3.7375-1.6049-7.98202-.3301-10.89309ZM11.3427 23.5351c-.2291-.2347-.4489-.8545-1.2467-1.0705-.39464-.1127-.77995-.0657-1.06333 0-.28432.0658-.70612.0094-1.0185-.1315-.12813-.0469-.28431-.1315-.28431-.1315-.21044-.0939-.43958-.1878-.67807-.1596-.3582.0469-.88006.3945-.88006.3945l1.62266.77s.32079.1502.54992.4507c.679.9202 1.23828 1.2114 1.6049 1.3898 1.32989 1.1175 1.78819 2.3289 3.93369 4.1507-.953.3474-1.9893.554-3.063.554-5.0522 0-9.15983-4.207-9.15983-9.3719 0-2.1128.6874-4.0566 1.83402-5.6248h-.02805l.01871-.0188.31144 2.5917c.01871.1221.11971.2254.24784.2254.11878 0 .22914-.0939.24784-.216l.39374-2.573 1.25604.8546c.10101.0657.23007.0563.31238-.0282.0823-.0845.101-.216.03647-.3193l-.79777-1.3147 2.53079-.3193c.11878-.0188.21978-.122.21978-.2535s-.09164-.2348-.21042-.2536l-2.51303-.4037c1.49547-1.08 3.3108-1.7279 5.28235-1.7279 1.0998 0 2.1548.216 3.1265.5822.1375 1.972.5593 4.0473.9446 6.0006.0645.3193.1281.6291.1927.9484.4489 2.2819.679 4.8268-.0823 5.4935-1.4946.8264-3.2463-.0845-3.641-.4883Z"/>
		<path d="M32.544 21.79c1.3748 1.4367 3.1172 2.1504 5.2168 2.1504 1.2841 0 2.4579-.3005 3.5128-.9203 1.0634-.6104 1.8977-1.4367 2.4934-2.4697l-2.3746-1.4086c-.3301.6291-.8249 1.1269-1.4674 1.4837-.6416.3662-1.3664.5447-2.1642.5447-1.357 0-2.4475-.432-3.2827-1.3054-.8342-.8639-1.2467-1.9907-1.2467-3.3712 0-1.3992.4125-2.5261 1.2467-3.3993.8258-.8734 1.9257-1.3054 3.2827-1.3054.7978 0 1.5133.1878 2.1549.5447.6331.3568 1.1279.8639 1.4767 1.5025l2.3746-1.4086c-.5957-1.0424-1.43-1.8593-2.5027-2.46969-1.0727-.61044-2.2381-.91093-3.5035-.91093-2.109 0-3.842.71369-5.2168 2.14102-1.3664 1.418-2.0547 3.1928-2.0547 5.3057 0 2.0942.6789 3.869 2.0547 5.2964Zm86.975 11.3626c.605.6291 1.366.9484 2.292.9484.56 0 1.064-.1127 1.532-.385.467-.2723.834-.6292 1.1-1.0893l-1.045-.6198c-.147.2723-.358.4883-.643.6479-.284.1597-.605.2349-.953.2349-.596 0-1.082-.1879-1.448-.5729-.368-.385-.551-.8733-.551-1.4837s.183-1.1081.551-1.4931c.366-.385.852-.5728 1.448-.5728.358 0 .669.0751.953.2347.285.1503.496.3756.651.6574l1.046-.6198c-.256-.4601-.632-.817-1.1-1.0893-.467-.2723-.981-.4038-1.541-.4038-.926 0-1.687.3099-2.292.9391-.606.6291-.908 1.4086-.908 2.3382 0 .9203.302 1.6997.908 2.3289ZM92.0829 27.669h1.2103l-1.8434 4.5639c-.4948 1.2207-1.3019 1.8029-2.4298 1.7372v-1.1644c.3301.0282.5957-.0188.7978-.1409.202-.1221.3666-.3192.5041-.6009l-2.0174-4.4042h1.2112l1.3477 3.0425 1.2195-3.0332Zm-8.8858 1.1924v-1.1832h-3.4932v6.3011h1.2102v-5.1179h2.283Zm4.3835-.5822c-.404-.4038-.8987-.6104-1.4945-.6104h-2.2923v6.3011h1.2102v-2.0754h1.0821c.5958 0 1.0905-.2066 1.4945-.6103.4031-.4038.6052-.9109.6052-1.5025 0-.5916-.2021-1.0987-.6052-1.5025Zm-.8529 2.188c-.174.1784-.3853.2723-.6416.2723H85.004v-1.9062h1.0821c.2563 0 .4676.0939.6416.2722.1739.1785.2572.4132.2572.6856 0 .263-.0833.4977-.2572.6761Zm11.7467 3.5027v-6.3011h-4.594v6.3011h1.2102V28.852h2.1736v5.1179h1.2102Zm5.6576-6.3011v6.3011h-1.21V28.852h-2.174v5.1179h-1.2102v-6.3011h4.5942Zm4.685 5.1648.368 1.1363h1.329l-2.164-6.3011h-1.504l-2.155 6.3011h1.311l.367-1.1363h2.448Zm-.384-1.155h-1.688l.844-2.5731.844 2.5731Zm9.426-4.0098v6.3011h-1.211V28.852h-2.172v5.1179h-1.211v-6.3011h4.594Zm9.601 2.3853c.595 0 1.091.1783 1.467.5446.385.3662.569.8357.569 1.4085 0 .5823-.193 1.0518-.569 1.4181-.385.3662-.872.5446-1.467.5446h-2.357v-6.3011h3.87v1.1926h-2.659v1.202h1.146v-.0093Zm0 2.7514c.238 0 .44-.0751.595-.2161.157-.1408.239-.338.239-.5915 0-.2536-.082-.4508-.239-.5822-.155-.1409-.357-.2066-.595-.2066h-1.146v1.5964h1.146ZM58.8787 9.33823V23.6588h-2.7319v-9.2872l-3.9346 6.6485h-.3208l-3.9337-6.6297v9.2684h-2.7599V9.33823h2.8338l4.016 6.77057 3.9982-6.77057h2.8329ZM71.7075 23.6588V9.33823h-10.444V23.6494h2.7599V12.0332h4.9335v11.6256h2.7506Zm13.3517-8.9022c1.357 0 2.4662.4131 3.3369 1.2395.8623.8264 1.3028 1.8969 1.3028 3.2022 0 1.324-.4311 2.3946-1.3028 3.221-.8613.8263-1.9799 1.2395-3.3369 1.2395h-5.3553V9.33823h8.7932v2.70447h-6.0333v2.7233h2.5954v-.0094Zm0 6.2635c.5499 0 .9988-.1597 1.357-.479.3573-.3193.5406-.77.5406-1.3428s-.1833-1.0142-.5406-1.3335c-.3582-.3098-.8165-.4695-1.357-.4695h-2.5954v3.6248h2.5954Zm14.2037.0563.8431 2.5824h2.99L98.1808 9.33823h-3.4202l-4.897 14.32057h2.9806l.8436-2.5824h5.5751Zm-.853-2.6387h-3.8326l1.9163-5.8504 1.9163 5.8504Zm13.8371-9.09947h2.733V23.6588h-2.733V17.724h-5.19v5.9348h-2.76V9.33823h2.76v5.69067h5.19V9.33823Zm12.865 14.32057h3.174l-5.374-7.3622 5.172-6.95837h-3.174l-4.795 6.31987V9.33823h-2.761V23.6588h2.761v-6.7143l4.997 6.7143Z"/>
	</g>
	<path fill="#E85919" d="M130 26.259H32.4336l-.9175-1.1926h97.5579L130 26.259Z"/>
</svg>