<svg xmlns="http://www.w3.org/2000/svg" viewBox="0 0 117 38">
	<path fill="#fff" d="m24.4539 12.4937.8761-2.2009 1.7174-6.81987-7.6327.00845c-1.3385 0-2.5598.57211-3.4221 1.21494-.437.30506-1.1169 1.21603-1.4915 2.05094l-.8762 2.20084-2.1913 6.8199 8.1035-.0073c1.3374-.0032 2.564-.5732 3.4211-1.2171.4401-.304 1.121-1.2149 1.4957-2.0499ZM12.3509.125771h25.651l-.0233.063333h.0233L34.108 13.6232c-.0507.1665-.1409.3491-.2247.5187-.0489.0991-.0956.1937-.1311.2782-.0817.1693-.1576.3352-.2323.4986-.427.9338-.8155 1.7834-2.0382 2.6881-1.5716 1.103-3.4664 1.5063-4.8776 1.5084H.194072l1.169498-3.3409L4.8459 5.61884c.05104-.16999.14145-.35496.22467-.52523.04751-.0972.09267-.1896.12683-.27168.08628-.17698.16582-.35017.24403-.52046.42607-.92766.8126-1.76924 2.03172-2.66732C9.04382.532154 10.9364.125771 12.3509.125771ZM45.0216 16.7558c1.5643 1.937 3.5677 2.3455 6.5624 2.3455h8.5166v-3.629h-5.3331c-2.0583 0-3.8432 0-4.6697-1.5-.1626-.3261-.4645-2.1575-.4645-4.28655 0-.92784.0792-3.6005.6312-4.55681.8397-1.50071 2.3129-1.50039 4.2925-1.49996l.1018.00002h5.1387V0h-8.1322c-2.1692 0-4.9706.244892-6.7281 2.48161-1.3744 1.72055-1.6763 4.12089-1.6763 7.31497 0 3.65432.6038 5.53962 1.7607 6.95922Zm29.3281-9.2413V0h6.2049v19.1013h-6.2049v-7.961h-6.1234v7.961h-6.2085V0h6.2085v7.5145h6.1234Zm9.7-4.02378V19.1013h6.2066V4.85555c0-.32723 0-.73678.1647-.95633.2286-.27457.6705-.27236 1.0399-.27051.0297.00014.0589.00029.0874.00029h5.7371V0h-10.184c-.9364 0-1.7887.4085-2.2836.927833-.7419.790607-.7681 1.717387-.7681 2.562887ZM105.872 15.8454c-.786.0041-1.177.0061-1.177-1.2556v-3.9319h3.262c.355 0 .96 0 1.37.3293.416.2999.416 2.145.416 2.583 0 .3272 0 1.5939-.357 1.92-.387.3547-1.074.3547-1.429.3547h-1.943c-.049 0-.096.0003-.142.0005Zm.003-12.21641h9.11V0h-13.506c-.683 0-2.992.163608-2.992 3.05583V16.4276c0 1.5516 1.0974 2.6716 2.692 2.6716h10.728c1.898 0 2.886-1.1442 3.135-1.4735.931-1.1981 1.069-2.9735 1.069-4.6107 0-1.2836-.082-3.32925-1.099-4.49983-.575-.6555-1.675-1.25608-3.159-1.25608h-7.158V4.77427c0-.70933.026-1.14528 1.18-1.14528ZM0 36.1497v-7.5525h4.04067v.4591H.543581v2.4215c.05917-.0096.138338-.0159.229086-.0222.072579-.0057.147695-.0102.226314-.0148.023109-.0014.046529-.0028.070269-.0042.0297-.0012.05906-.0024.08803-.0035.07197-.0028.14161-.0054.20864-.0092.03878-.0004.07481-.0011.10793-.0016.04616-.0008.08666-.0015.12106-.0015.34101-.0011.67134.0274.99334.0907.323.0592.6185.1563.88766.2903.23117.115.43384.2618.60801.4412.17208.1784.30825.3917.40533.6418.09817.2502.14784.5373.14883.8666-.00099.3515-.05483.6587-.16041.9226-.10559.2638-.247.4918-.42642.6798-.20375.211-.4465.381-.72516.5077-.27659.1277-.57742.2174-.89934.2733-.32517.057-.65658.0835-.9975.0824-.29558-.0021-.565836-.0095-.810664-.0254-.042918-.0028-.084659-.0054-.12523-.0081-.18992-.0122-.354172-.0228-.493356-.034Zm.88142-4.2434c-.12142.0085-.233338.019-.338833.0306H.541499v3.7663c.138249.0221.288168.039.453921.0506.16675.0116.36199.0169.58683.0169.25333 0 .50775-.0264.76-.0781.25233-.0538.48875-.1341.70933-.2428.21958-.1066.40958-.2428.56683-.4075.14467-.152.25759-.3314.33992-.5404.08125-.2079.1235-.4465.12459-.7146 0-.2555-.03483-.4781-.10559-.6735-.06758-.1941-.16575-.362-.29025-.5045-.12666-.1425-.27341-.2618-.4455-.3589-.23433-.133-.49717-.228-.78425-.2861-.28925-.059-.59217-.0865-.90883-.0844-.08976 0-.19317.0021-.30925.0074-.11047.004-.22577.011-.343096.0181l-.014734.0009Zm10.56288 4.2434-1.0524-2.6559H7.07225l-1.02916 2.6559h-.56476l3.01042-7.5525h.532l2.98825 7.5525h-.5647ZM8.322 30.3452l-1.06192 2.6895h2.95562l-1.05137-2.6569c-.0665-.1667-.12241-.3176-.16991-.4538-.0475-.1341-.09084-.2617-.12884-.3821-.01723-.0562-.03447-.1128-.05172-.1695-.01968-.0647-.03938-.1295-.05911-.1936h-.02217c-.03691.1256-.076.2512-.11717.3726-.04116.1204-.08441.2459-.13191.3758-.04536.1212-.0953.2488-.14981.3881l-.01169.0299Zm4.8808 5.8045v-7.5525h.5426v3.306h4.6698v-3.306h.5425v7.5525h-.5425v-3.7874h-4.6698v3.7874h-.5426Zm7.7024 0v-7.5514h.5405v3.4737h.4539l3.2089-3.4737h.6417l-3.3091 3.518c.38.0317.7072.1035.9796.2133.2744.1097.5076.2554.703.4349.1963.1794.3662.3884.513.6259.1466.2386.2807.5014.4063.7885.1119.2565.2153.4951.3114.7178.095.2216.1879.4381.2798.6396.095.2059.1963.4117.305.6144h-.5753c-.1024-.1805-.2026-.3737-.2987-.5784-.096-.2048-.191-.4128-.2808-.626-.0547-.1288-.1083-.2564-.1611-.3823-.0338-.0805-.0673-.1604-.1006-.2394-.1162-.2871-.2492-.5426-.399-.7674-.1479-.2238-.3284-.4149-.5342-.5721-.2079-.1541-.457-.2744-.7483-.3547-.2914-.0812-.6376-.1224-1.0409-.1224h-.3536v3.6417h-.5415Zm8.776 0v-7.5525h.5425v3.306h4.6697v-3.306h.5426v7.5525h-.5426v-3.7874h-4.6697v3.7874h-.5425Zm13.0244 0-1.0514-2.6559h-3.3186l-1.0302 2.6559h-.5647l3.0104-7.5525h.531l2.9882 7.5525h-.5647Zm-3.1202-5.8045-1.063 2.6895h2.9535l-1.0513-2.6569c-.0665-.1667-.1214-.3176-.1689-.4538-.0486-.1341-.0908-.2617-.1288-.3821-.0237-.075-.0465-.1508-.0694-.2264-.0137-.0458-.0275-.0914-.0414-.1367h-.0222c-.0359.1256-.075.2512-.1162.3726-.04.1204-.0833.2459-.1319.3758-.0486.1298-.1013.267-.1604.418Zm4.8798 5.8045v-7.5525h.5415v7.0943h3.0991v-7.0943h.5426v7.0943h3.0991v-7.0943h.5426v7.5525h-7.8249Zm10.3139-4.2128h3.3211v.4592h-3.3211v3.2944h3.6966v.4592h-4.2392v-7.5525h4.051v.4591h-3.5084v2.8806Zm5.1134 4.2128v-7.5536h3.9728v.4592h-3.4308v7.0944h-.542Zm9.0268-.0307c-.3673.1098-.7473.1658-1.1373.1658h-.0126c-.5329-.0021-1.0242-.0982-1.4757-.2861-.4478-.1879-.8405-.4507-1.1735-.7917-.3347-.3409-.5917-.7452-.7753-1.2075-.1864-.4634-.2778-.9712-.2823-1.5263.0036-.4761.0651-.9184.1909-1.33.1257-.4085.3004-.779.532-1.1094.228-.3294.4994-.6112.8134-.8445.313-.2364.6595-.4159 1.0404-.5404.38-.1256.7845-.1868 1.2097-.189.5501.0022 1.0513.0982 1.5028.2893.4533.19.8423.4581 1.1726.8001.3293.344.5808.7462.76 1.2085.18.4624.2705.9659.2723 1.5127-.0018.5235-.0715.9975-.2063 1.4208-.1357.4254-.3221.7969-.5636 1.121-.2398.324-.5203.5942-.8369.8106-.3203.2196-.6632.3843-1.0306.4961Zm-2.2112-.4644c.3257.1192.6867.1794 1.0739.1816v.001h.0109c.494-.0021.9364-.0919 1.3318-.267.3918-.1753.7274-.4212 1.0061-.74.2769-.3177.4913-.6893.6379-1.1168.1465-.4254.2207-.8909.2225-1.3944 0-.3325-.0434-.6587-.1257-.9837-.0842-.3251-.2099-.6345-.3791-.9247-.1692-.2893-.3809-.5468-.6334-.7705-.2515-.227-.5482-.4043-.8848-.5331-.3393-.1298-.7202-.1942-1.1418-.1974-.4244.0032-.808.0665-1.15.19-.3393.1246-.6378.2987-.8939.5204-.2569.2248-.4714.4845-.6396.7811-.171.2967-.3013.6196-.3855.9679-.0868.3473-.1294.7083-.1294 1.082 0 .3578.048.7051.1412 1.0376.0932.3314.2298.6397.4089.9247.1801.2829.3972.532.6533.7452.256.2122.5474.3789.8767.4961Zm8.8983.4951v-7.5536h3.9737v.4592h-3.4317v7.0944h-.542Zm9.0277-.0307c-.3673.1098-.7473.1658-1.1363.1658h-.0118c-.5329-.0021-1.0251-.0982-1.4748-.2861-.4496-.1879-.8414-.4507-1.1762-.7917-.332-.3409-.5899-.7452-.7753-1.2075-.1846-.4634-.2769-.9712-.2805-1.5263.0018-.4761.0651-.9184.19-1.33.1248-.4085.3004-.779.532-1.1094.2289-.3294.4985-.6112.8134-.8445.3139-.2364.6605-.4159 1.0395-.5404.38-.1256.7836-.1868 1.2097-.189.5501.0022 1.0513.0982 1.5037.2893.4524.19.8423.4581 1.1726.8001.3284.344.5799.7462.76 1.2085.1801.4624.2687.9659.2714 1.5127-.0027.5235-.0724.9975-.2063 1.4208-.1348.4254-.323.7969-.5645 1.121-.2398.324-.5194.5942-.8369.8106-.3194.2196-.6632.3843-1.0297.4961Zm-2.2121-.4644c.3275.1192.6867.1794 1.0758.1816v.001h.0099c.494-.0021.9365-.0919 1.3318-.267.3927-.1753.7284-.4212 1.007-.74.2769-.3177.4904-.6893.6361-1.1168.1474-.4254.2216-.8909.2234-1.3944 0-.3325-.0425-.6587-.1248-.9837-.086-.3251-.2108-.6345-.38-.9247-.1692-.2893-.38-.5468-.6324-.7705-.2525-.227-.5492-.4043-.8858-.5331-.3402-.1298-.7202-.1942-1.1418-.1974-.4234.0032-.808.0665-1.1491.19-.341.1246-.6387.2987-.8948.5204-.2551.2248-.4704.4845-.6396.7811-.171.2967-.3013.6196-.3855.9679-.0868.3473-.1284.7083-.1284 1.082 0 .3578.047.7051.1402 1.0376.0941.3314.2298.6397.4099.9247.1791.2829.3953.532.6523.7452.256.2122.5474.3789.8758.4961Zm6.7857.4951h-.541v-7.4765c.2406-.0401.5075-.0749.8061-.1024.2986-.0285.6198-.0412.9654-.0433.4976.0021.9274.0602 1.2875.1753.3592.1181.6487.2828.8694.4971.19.1794.3357.3937.4416.6375.1022.246.1538.5236.1565.8318 0 .3304-.0498.626-.1457.8835-.0986.2596-.2406.4845-.4297.6745-.171.1795-.3764.3315-.6171.4528-.2389.1193-.5048.2101-.7953.2723-.2949.0624-.6044.094-.9346.094-.1927.0021-.3818-.0042-.56-.019-.1801-.0137-.3484-.0454-.5031-.094v3.2164Zm.4795-7.1261c-.2053.019-.3673.0422-.4795.0665h.0018v3.3619c.1556.0507.3293.0845.5212.1056.1927.0201.3944.0296.6071.0296.4949-.0022.9147-.0739 1.2594-.2207.3429-.1457.6044-.3567.7835-.6312.1792-.2734.2696-.607.2696-.9975-.0018-.324-.0615-.5975-.1773-.8223-.1158-.2237-.2787-.4032-.4831-.5393-.2045-.1362-.4407-.2344-.7085-.2966-.2651-.0623-.551-.0918-.8559-.0898-.2832.0021-.5302.0116-.7383.0338Zm9.3435 7.0954c-.3655.1098-.7473.1658-1.1355.1658h-.0135c-.532-.0021-1.0251-.0982-1.4748-.2861-.4497-.1879-.8414-.4507-1.1744-.7917-.3338-.3409-.5917-.7452-.7763-1.2075-.1845-.4634-.2777-.9712-.2804-1.5263.0009-.4761.0642-.9184.19-1.33.1239-.4085.2994-.779.5311-1.1094.2289-.3294.5003-.6112.8133-.8445.3149-.2364.6605-.4159 1.0405-.5404.38-.1256.7844-.1868 1.2097-.189.551.0022 1.0513.0982 1.5046.2893.4524.19.841.4581 1.172.8001.329.344.581.7462.76 1.2085.179.4624.268.9659.272 1.5127-.004.5235-.071.9975-.207 1.4208-.135.4254-.322.7969-.564 1.121-.241.324-.519.5942-.838.8106-.3181.2196-.6619.3843-1.0293.4961Zm-2.2112-.4644c.3275.1192.6867.1794 1.0757.1816v.001h.01c.494-.0021.9373-.0919 1.3309-.267.3936-.1753.7283-.4212 1.0069-.74.278-.3177.49-.6893.637-1.1168.148-.4254.221-.8909.224-1.3944 0-.3325-.043-.6587-.125-.9837-.086-.3251-.211-.6345-.38-.9247-.17-.2893-.381-.5468-.6337-.7705-.2533-.227-.5482-.4043-.8857-.5331-.3384-.1298-.7202-.1942-1.1409-.1974-.4244.0032-.8089.0665-1.15.19-.3402.1246-.6378.2987-.8948.5204-.256.2248-.4696.4845-.6388.7811-.1719.2967-.3013.6196-.3863.9679-.0859.3473-.1285.7083-.1285 1.082 0 .3578.0471.7051.1403 1.0376.095.3314.2316.6397.4107.9247.1783.2829.3954.532.6524.7452.256.2122.5464.3789.8758.4961Zm7.1405-5.1078v-1.9507h4.15v7.0944h.653L108.697 38h-.442l-.056-1.8503h-5.433L102.709 38h-.442l-.068-2.3085h.542c.082-.1425.172-.2902.266-.4443.094-.1563.184-.3178.273-.4899.091-.1699.17-.3483.237-.5351.105-.2998.191-.6323.257-.9944.066-.363.113-.7652.143-1.2075.027-.4412.043-.9331.043-1.4735Zm3.608-1.4915h-3.098v1.8039c0 .5025-.015.9669-.046 1.3849-.032.4201-.083.8064-.152 1.1558-.069.3515-.157.6756-.267.9679-.064.17-.136.3347-.214.4951-.078.1604-.16.3124-.243.4518-.08.1415-.157.266-.228.3758h4.248v-6.6352Zm7.978 7.0944-1.051-2.6559h-3.32l-1.03 2.6559h-.564l3.01-7.5525h.531l2.989 7.5525h-.565Zm-3.12-5.8045-1.063 2.6895h2.954l-1.052-2.6569c-.067-.1667-.121-.3176-.17-.4538-.048-.1341-.09-.2617-.128-.3821-.037-.1203-.074-.2428-.111-.3631h-.021c-.037.1256-.075.2512-.116.3726-.041.1204-.085.2459-.132.3758-.049.1298-.102.267-.161.418ZM18.7233 13.6966l-4.2381.0042 2.2769-5.99558c.1615-.53309.6946-1.25084 1.3268-1.63084.5912-.38316 1.3153-.53408 2.1302-.53408l4.0891-.00217-2.1807 5.95647c-.2639.645-.7082 1.2129-1.3015 1.595-.5573.38-1.2836.607-2.1027.607Z"/>
</svg>