<svg xmlns="http://www.w3.org/2000/svg" viewBox="0 0 200 30">
	<path fill="#fff" d="m43.3917 26.2919.2712.1088-.4339 1.7956c-1.1933.5985-2.495.8706-4.068.8706-1.0848 0-2.1154-.1633-3.0374-.4897-.9221-.3265-1.7899-.8162-2.4408-1.4148-.7051-.5985-1.2475-1.3603-1.6272-2.2309-.3797-.8162-.5966-1.7956-.5966-2.8295 0-1.3058.2169-2.4485.6508-3.4823.434-.9794.9764-1.8501 1.7357-2.503s1.6272-1.1427 2.6036-1.4691c.9763-.3265 2.061-.4898 3.2001-.4898.7051 0 1.4102.1089 2.2238.2721.7593.1633 1.4103.4353 2.0069.7618-.035.2105-.0926.421-.1581.6606v.0001c-.0361.132-.0746.2729-.1131.4275-.0827.3319-.1339.6006-.1776.8301-.0136.0715-.0265.1392-.0394.2038h-.2712c-.3797-.5986-.8678-1.0339-1.5187-1.3604-.6509-.3264-1.2475-.544-1.8984-.544-.8136 0-1.5187.1632-2.1696.544-.5966.3809-1.139.8707-1.5187 1.4692-.3797.5985-.7051 1.3059-.8678 2.0133-.217.7617-.2712 1.5235-.2712 2.2853 0 1.197.1627 2.2309.5424 3.1015.3796.925.9221 1.6324 1.6814 2.1221s1.6272.7618 2.6578.7618c.6508 0 1.3017-.1633 1.9526-.4353.6509-.1633 1.2475-.5442 1.6814-.9794Zm16.7602-7.2367c-.2712-.8706-.6508-1.6324-1.2475-2.3398-.5966-.7073-1.356-1.3059-2.3323-1.7412s-2.1696-.6529-3.5798-.6529c-1.2476 0-2.3866.2176-3.4171.5985-1.0306.2721-1.8442.8162-2.5493 1.4692-.7051.7074-1.2475 1.4691-1.6272 2.3941-.3797.925-.5424 1.85-.5424 2.8839 0 1.5235.3254 2.8838.9763 3.9721.5967 1.0882 1.5187 1.9588 2.6578 2.5574 1.139.5985 2.495.8706 4.0138.8706 1.2475 0 2.3323-.2177 3.3628-.5986 1.0306-.3808 1.8441-.925 2.6035-1.6323.7051-.7074 1.2475-1.4692 1.6272-2.3942.3797-.8706.5424-1.85.5424-2.8839-.0542-.8162-.217-1.6867-.4882-2.5029Zm-5.3697-3.0471c.5424.3265 1.0306.7617 1.356 1.3059.3796.5441.5966 1.197.7594 1.85.1627.6529.2712 1.3603.2712 2.0677 0 1.197-.1628 2.2853-.4882 3.2647-.3255 1.0338-.8678 1.8501-1.5187 2.4486-.7051.5985-1.573.925-2.5493.925-.9763 0-1.7899-.2721-2.4408-.8162-.6509-.5441-1.139-1.1971-1.4102-2.0676-.3255-.8706-.434-1.7412-.434-2.7207 0-1.5236.1628-2.775.5425-3.8089.3796-1.0338.8678-1.7412 1.5729-2.2853.7051-.4897 1.5187-.7618 2.4408-.7618.7051.1089 1.356.2721 1.8984.5986Zm11.7704-1.4151s.1625 0 .3796.0544c.2164.0544.3796.0544.4882.0544h.2164c.0546 0 .1632 0 .2171-.0544.1086 0 .1632 0 .2171-.0544h.2171c.4336 1.2515.8678 2.3942 1.2474 3.3192.2529.6525.53 1.3774.8471 2.207.1589.4156.3278.8576.5088 1.3298.5428 1.4147.9763 2.503 1.302 3.2647.1308.3286.2969.7365.4982 1.2308l.001.0025c.2987.7333.6747 1.6567 1.1278 2.7933-.1431 0-.2711-.0152-.392-.0295-.1082-.0128-.2108-.025-.3133-.025-.1082 0-.203-.0136-.2979-.0272-.0951-.0136-.1902-.0272-.2988-.0272h-1.0303c-.1164 0-.2328.0156-.3408.0301-.0934.0126-.1805.0243-.2559.0243-.1025 0-.2048.0121-.3128.025-.1209.0143-.249.0295-.3925.0295-.1471-.5179-.3198-1.061-.5005-1.6293-.0851-.2676-.1719-.5406-.2587-.8193-.271-.8706-.5421-1.6324-.8138-2.2309-.0939-.2833-.2185-.6075-.3605-.9772l-.0001-.0002-.0001-.0003c-.1854-.4823-.4004-1.0418-.6156-1.6885-.1367-.3603-.268-.699-.3923-1.0194-.2698-.6958-.5063-1.3057-.6919-1.8645-1.6818 4.0809-2.9293 7.4546-3.7971 10.2296-.3255-.0545-.6509-.0545-.9763-.0545-.3255 0-.6509 0-.9763.0545.5966-1.3604 1.139-2.6118 1.6271-3.7545.2027-.4744.396-.9488.5877-1.4193l.0001-.0001.0001-.0003c.2701-.6626.5369-1.3176.8224-1.9539.1282-.3215.2611-.6478.396-.9788l.0004-.001.0002-.0004c.3214-.7889.6539-1.6049.9594-2.4477.4881-1.1427.9221-2.3398 1.3563-3.5913Zm9.546 14.2556V14.7013c.1163 0 .2324.0156.3403.0301.0934.0126.1807.0243.2564.0243.0812 0 .1623.0136.2436.0272.0814.0136.1629.0273.2446.0273h.8678c.0754 0 .151-.0117.232-.0243.0934-.0146.1941-.0302.3101-.0302.1631-.0544.3796-.0544.5967-.0544v9.7399l.1512-.1654.0001-.0001c.5629-.6152 1.2094-1.3218 1.8559-2.1199.3244-.4008.6489-.79.9682-1.1731.3743-.4489.7415-.8893 1.093-1.3298.2838-.356.5675-.7223.8558-1.0944.3728-.4812.7531-.9721 1.1508-1.4631.5555-.7898 1.0718-1.4605 1.5487-2.0801v-.0001c.0816-.106.1621-.2105.2414-.3139h1.573V28.903c-.1631 0-.4342 0-.7598-.0544-.1789 0-.3417-.0165-.4881-.0313-.1194-.0121-.2278-.0231-.3251-.0231-.1631 0-.4342 0-.7599.0544-.1902 0-.3619.0186-.5044.0341-.1009.0109-.1871.0203-.2548.0203v-9.7943.0001c-.5967.7073-1.1934 1.4147-1.844 2.122-.396.4636-.7923.9474-1.2251 1.4759l-.0006.0007-.0003.0004c-.2781.3395-.5713.6975-.8892 1.0804-.5545.6673-1.0586 1.3095-1.5294 1.9091l-.0001.0002-.0009.0011c-.2198.2799-.4323.5506-.6393.8103-.1929.2581-.3811.5067-.5631.7471h-.0001c-.4318.5704-.8289 1.095-1.1723 1.5926-.0713 0-.1526-.0104-.2444-.0221-.1183-.015-.2539-.0323-.407-.0323-.3796.0544-.7046.0544-.9217.0544Zm14.9699-.4897c0 .4353-.054.8162-.1079 1.0883h.325c.271-.3265.6513-.4897 1.2473-.5985.5968-.1089 1.3566-.1633 2.2783-.1633h6.0748c.814 0 1.519.0544 2.115.1633.597.0544 1.031.272 1.248.5985h.325c-.108-.3809-.108-.7617-.108-1.0882v-.0001c0-.0112.002-.0362.006-.0745.003-.0284.007-.0642.012-.1072.021-.1806.055-.4875.09-.9065h-.976c-1.898-4.6795-3.526-8.9237-4.8815-12.6237-.1086 0-.2711 0-.4336.0544h-.8684c-.0894 0-.1789-.0165-.2593-.0313-.0657-.0121-.1254-.0231-.1742-.0231-.1174.3137-.2346.6415-.3569.9835l-.0003.0008c-.2171.6068-.4501 1.2581-.7277 1.954l-.0244.0612c-.4261 1.0678-.8526 2.1367-1.3315 3.2579-.1162.285-.2263.5576-.3317.8187l-.0015.0038-.0001.0003c-.3366.8337-.6253 1.549-.9141 2.1699-.2582.647-.6184 1.4992-1.0539 2.5294-.1139.2694-.2329.5509-.3566.8442h-.8678c0 .2333.0155.4353.0299.6228v.0001c.0125.1623.0241.3138.0241.4653Zm3.9052-1.0882c-.6505-.0545-1.0841-.0545-1.4097-.0545h-.0001c.6506-1.9588 1.7901-4.8971 3.3085-8.7059.462 1.2829.9004 2.4259 1.2852 3.4287l.0001.0003.0006.0017c.2024.5276.39 1.0164.5582 1.4664.4882 1.3059.9224 2.6118 1.3015 3.8088-.3253 0-.8673 0-1.5186.0545h-1.8441c-.4881.0544-1.0303.0544-1.6816 0Zm20.2313 1.5237c.163 0 .488 0 .868-.0544.216 0 .398-.0176.553-.0328.118-.0115.222-.0216.315-.0216.217 0 .488 0 .868.0544.216 0 .415.0176.586.0328.129.0115.243.0216.336.0216l-5.749-14.3105c-.272.0544-.489.0544-.76.0544s-.488 0-.759-.0544l-5.858 14.3105h1.953v-.0004c.108-.3807.216-.7616.379-1.2511.081-.2155.161-.4576.248-.7198.089-.2675.185-.5559.295-.8582.217-.5985.379-1.0882.488-1.4691h4.827c.325.8706.814 2.2853 1.41 4.2986Zm-3.742-10.3928 1.844 4.8427h-3.743l1.899-4.8427Zm15.079 3.863c.922-.272 1.626-.7073 2.169-1.3603.542-.6529.813-1.5779.813-2.7206s-.379-2.0677-1.138-2.6117c-.76-.5986-1.844-.8707-3.255-.8707h-5.044v14.1473c.162 0 .434 0 .759-.0544.191 0 .363-.0187.506-.0342.1-.0109.186-.0202.253-.0202.163 0 .435 0 .76.0544.19 0 .363.0187.505.0342.101.0109.187.0202.254.0202V22.7c1.302-.0544 2.441-.2177 3.418-.4354Zm-2.17-6.475c.543 0 1.031.272 1.356.7618.379.4896.542 1.1426.542 1.9588 0 .7073-.163 1.3059-.434 1.7956-.325.4897-.759.8162-1.41 1.0339-.271.0544-.759.1088-1.356.1632v-5.7133h1.302Zm7.105 13.0046V14.647c.116 0 .233.0156.34.0301.094.0126.181.0243.257.0243.082 0 .163.0136.244.0272.081.0136.162.0272.244.0272h.868c.081 0 .163-.0136.244-.0272.081-.0136.163-.0272.244-.0272.163-.0544.38-.0544.596-.0544v5.6044c.847.0266 1.526.0531 2.043.0734h.001c.543.0212.908.0355 1.102.0355.155 0 .469-.0123.947-.031.529-.0207 1.26-.0493 2.2-.0779V14.647c.116 0 .232.0156.34.0301.093.0126.18.0243.256.0243.081 0 .163.0136.244.0272.081.0136.163.0272.244.0272h.868c.082 0 .163-.0136.245-.0273.081-.0135.162-.0271.243-.0271.076 0 .163-.0117.257-.0243.107-.0145.224-.0301.34-.0301v14.1472c-.163 0-.434 0-.759-.0544-.191 0-.363-.0187-.506-.0341-.1-.011-.186-.0203-.254-.0203-.163 0-.434 0-.759.0544-.191 0-.364.0187-.506.0342-.1.0109-.186.0202-.253.0202v-6.9103c-1.411-.0545-2.496-.0545-3.147-.0545-.705 0-1.79 0-3.146.0545v6.9103c-.162 0-.433 0-.759-.0544-.19 0-.362-.0186-.504-.0341-.101-.011-.187-.0203-.255-.0203-.162 0-.434 0-.759.0544-.326.0544-.597.0544-.76.0544Zm30.32-9.739c-.271-.8706-.705-1.6324-1.302-2.3398-.596-.7073-1.356-1.3059-2.332-1.7412-.976-.4353-2.17-.6529-3.579-.6529-1.248 0-2.387.2176-3.364.5985-1.03.3809-1.898.925-2.549 1.578-.705.7074-1.247 1.4691-1.573 2.3941-.38.925-.542 1.85-.542 2.8839 0 1.5236.326 2.8838.976 3.9721.651 1.0883 1.519 1.9589 2.658 2.5574 1.139.5986 2.495.8706 4.014.8706 1.247 0 2.332-.2176 3.362-.5986 1.031-.3808 1.899-.925 2.604-1.6323.705-.7074 1.248-1.4692 1.627-2.3942.38-.8706.542-1.85.542-2.8838-.033-.1892-.064-.3762-.095-.5608-.118-.7181-.231-1.4017-.447-2.051Zm-5.369-3.0471c.542.3265 1.03.7617 1.356 1.3059.379.5441.596 1.197.759 1.85.162.6529.271 1.3603.271 2.0677 0 1.197-.163 2.2853-.488 3.2647-.325 1.0338-.868 1.8501-1.573 2.4486-.705.5985-1.519.925-2.549.925-.976 0-1.79-.2721-2.441-.8162-.651-.5441-1.139-1.1971-1.41-2.0676-.326-.8706-.435-1.7412-.435-2.7207 0-1.5236.164-2.775.543-3.8089.38-1.0338.868-1.7412 1.573-2.2853.705-.4897 1.519-.7618 2.441-.7618.705.1089 1.356.2721 1.953.5986Zm19.2 10.1202.272.1088-.434 1.7956c-1.139.5986-2.495.8706-4.068.8706-2.007 0-4.014-.5441-5.533-1.9044-.704-.5985-1.247-1.3603-1.627-2.2309-.379-.8706-.597-1.7957-.597-2.8295 0-1.3059.218-2.4485.651-3.4824.434-.9794 1.031-1.85 1.736-2.4486.76-.6529 1.627-1.1426 2.604-1.4691.976-.3265 2.061-.4897 3.2-.4897.705 0 1.41.1088 2.223.272.76.1633 1.411.4354 2.008.7618-.022.1335-.053.2669-.086.4078v.0002c-.048.2037-.099.423-.132.6803-.08.3233-.131.5865-.174.812v.0011c-.015.0778-.029.151-.043.2207h-.271c-.379-.5985-.921-1.0338-1.518-1.3603-.651-.3264-1.248-.4897-1.899-.4897-.814 0-1.573.1633-2.17.5441-.596.3809-1.084.8706-1.518 1.4691-.38.5986-.705 1.306-.868 2.0133-.163.7618-.271 1.5236-.271 2.2854 0 1.1426.163 2.2309.597 3.1015.38.925.922 1.6323 1.681 2.1221.759.4897 1.627.7618 2.658.7618.596 0 1.247-.1633 1.952-.4354.597-.272 1.139-.6529 1.627-1.0882Zm9.113-9.9579V28.903c-.163 0-.434 0-.759-.0544h-1.52c-.229 0-.399.0198-.533.0356-.088.0103-.161.0188-.226.0188V16.1704c-1.139 0-2.441.1089-3.851.2721.027-.2393.053-.4266.073-.5683v-.0009c.021-.1478.035-.2458.035-.3013 0-.0557-.014-.154-.035-.3023-.02-.1418-.046-.3291-.073-.5684h10.577c0 .0545-.014.1089-.027.1633-.014.0544-.027.1088-.027.1632 0 .0544-.014.0952-.027.136-.014.0408-.028.0816-.028.136v.5442c0 .0637.019.1275.035.1803.011.0373.02.0692.02.0917 0 .0544.014.1088.027.1632v.0002c.014.0544.027.1088.027.1631-1.627-.2177-2.875-.2721-3.688-.2721Zm8.027-1.523c-.179 0-.341.0165-.487.0313-.12.0121-.228.0231-.326.0231-.218 0-.489 0-.814-.0544-.19 0-.343-.0186-.471-.0341-.09-.0109-.166-.0203-.234-.0203v14.1473h4.122c1.573 0 2.82-.3265 3.851-.9795.976-.6529 1.465-1.85 1.465-3.5368 0-1.1426-.38-2.0132-1.139-2.6118-.76-.5985-1.845-.8706-3.309-.8706h-2.007V14.593c-.109.0544-.326.0544-.651.0544Zm2.007 7.2913c.543 0 .976.2721 1.356.7618.379.5441.543 1.1426.543 2.0132 0 .7074-.164 1.306-.489 1.7956-.271.4898-.759.8706-1.41 1.0339-.326.1088-.814.1632-1.356.1632v-5.7677h1.356ZM15.2414 11.0561c.2314 0 .4627-.0793.7278-.1701.0456-.0157.0922-.0316.14-.0476l9.6005-3.6456C24.4079 5.1251 20.8281.88089 15.3499.55441 14.9159.5 14.482.5 14.1024.5 8.78684.5 4.71886 2.8942 2.11535 7.1384.379678 9.9134 0 12.7428 0 14.8649c0 1.4147.162719 2.503.271199 3.0471.162719 1.2515.813601 2.503 1.139041 2.7206.21695.1633.59663.2721.92207.2721.21696 0 .48816-.0544.70512-.1088l9.49197-3.5912-.0757-.1361c-.2997-.5375-.8837-1.585-1.8769-3.7272-1.68147-3.7001-2.33233-5.931-2.49509-7.5634.05428-.2176.05428-.3265.05428-.4353 0-.4897.27118-.9794.75934-.9794.65085.0544 1.19327.5985 1.84417 1.2515.8505.85325 1.9766 2.59103 2.7694 3.8145.3194.49304.5848.9026.7562 1.137.3254.3809.5966.4898.9763.4898ZM162.719 7.1384h1.845c.813 0 1.247-.4898 1.247-1.1427 0-.7074-.543-1.0339-1.247-1.0339h-1.845v2.1766ZM166.896.5v1.3603h-4.177v1.6324h2.061c1.519 0 2.713.925 2.713 2.503 0 1.5779-1.14 2.4485-2.767 2.4485h-3.688V.5h5.858Zm6.509 4.9515h2.115l-1.085-3.1559-1.03 3.1559ZM175.411.5l2.767 7.9986h-1.791l-.488-1.6323h-2.929l-.542 1.6323h-1.735L173.459.5h1.952Zm7.703 3.0471h3.091V.5h1.682v7.9986h-1.682V4.9074h-3.091v3.5912h-1.628V.5h1.628v3.0471Zm9.979.2176L196.131.5h2.115l-3.2 3.2647 3.417 4.7339h-2.17l-2.44-3.5368-.76.8162v2.7206h-1.681V.5h1.681v3.2647ZM12.4207 19.1093c.2712-.1632.5967-.2176.8679-.2176.3796 0 .7051.1088 1.0306.4352.1712.2343.4363.6434.7555 1.136.7928 1.2236 1.9193 2.9621 2.77 3.8156.6509.653 1.1933 1.197 1.8442 1.2515.4339 0 .7051-.4897.7051-.9795v-.3808c-.1627-1.6868-.8136-3.8633-2.495-7.5634-.993-2.1416-1.577-3.1891-1.8767-3.7267-.0278-.0498-.0531-.0952-.076-.1366l9.492-3.59123c.217-.0544.4882-.1088.7051-.1088.3797 0 .7594.1088.9763.2721.3797.2176 1.0306 1.46913 1.1933 2.72063.1085.5441.2712 1.5779.2712 2.9927 0 2.1765-.4339 5.0059-2.1154 7.781-2.6035 4.2441-6.7257 6.6383-11.987 6.6383-.4339 0-.8136 0-1.2475-.0545-5.47819-.3808-9.05803-4.5705-10.35979-6.6382l9.54619-3.6457Z"/>
</svg>