<svg xmlns="http://www.w3.org/2000/svg" viewBox="0 0 170 16">
	<path fill="#fff" d="m0 7.39463 2.83306.85c.03984.51714.14692.98364.3063 1.41445.11704.31543.2623.61172.43081.89402.14775.2473.31211.4839.49057.7138.66157.85 1.6062 1.5108 2.55 2.0777 1.22852.5661 2.55.9447 3.87236 1.1331.5129.1145 1.0259.1594 1.5389.1776.337.0116.674.0116 1.0111.0116.2838 0 .6615 0 1.0392-.0946.3777-.0946.7554-.0946.9446-.0946.3312 0 .6384.0241.9223.0598.283.0348.542.0821.7777.1294v-.3776c-1.9838-1.0393-4.0615-2.0786-6.2338-3.0224-2.45541-1.1338-5.00541-2.07764-7.65004-3.02227V7.20537c.8998.28887 1.79961.60015 2.69194.92969 1.72988.63833 3.43237 1.34472 5.0527 2.09264 2.1723.9446 4.25 1.983 6.233 3.0223v-1.0393c-1.983-1.0384-4.0607-2.0776-6.233-3.02144-1.2883-.54536-2.60314-1.09073-3.94372-1.60869-1.2144-.469-2.44956-.91558-3.70629-1.31983 0 .18926-.09463.47232-.09463.7562v.18843L0 6.35537v1.03926Zm0-3.11694v1.03925l2.83306.85h.09463c.09462-.28388.18925-.66157.28305-.94463-.03237 0-.07636 0-.12451-.00415-.08965-.00747-.19175-.02905-.25317-.09047L0 4.27769ZM0 2.2v1.03926l2.83306.85c.28388.18843.56694.28305.85.37768-.0938.14112-.16436.28223-.23492.42417-.07138.14195-.14277.28389-.2374.42583 2.55.85 5.0062 1.7938 7.27236 2.83306 2.1723.94463 4.25 1.9831 6.2338 3.0223v-1.0392c-1.9838-1.03847-4.0615-2.07773-6.2338-3.02236-2.17236-.9438-4.43847-1.88843-6.80004-2.6438l.56694-.85c2.17231.75537 4.25 1.60537 6.2331 2.45537 1.7431.75787 3.3651 1.57632 5.012 2.40723.405.20503.8118.41006 1.2218.61509V8.05537l-.9139-.48393c-.6732-.35777-1.3281-.7064-2.0204-1.05669-.7744-.3918-1.5962-.78609-2.5433-1.19781.3776-.18925 1.4161-.37768 2.1714-.37768.7529.0938 1.3174.18843 1.8818.28305H15.3c.3777.09463.9446.28306 1.4169.66075V.5c-.6615.283057-1.4169.283057-1.8892.283057-.4723 0-1.0384-.188428-2.8331-.283057-.4723 0-1.0392 0-1.5115.094629C9.06694.689258 7.65 1.16074 6.70537 1.72769 5.76074 2.2 4.91074 2.86074 4.25 3.61694c-.47231-.18925-.94463-.37768-1.41694-.47231C1.88926 2.76694.944629 2.48306 0 2.2Zm1.98306 11.8062h-.18843v-.3785h.18843c.04482 0 .08965 0 .12451.0199.03818.0224.06474.0697.06474.1693.06226.0623.04234.1246-.03154.1602-.03901.0183-.09297.0291-.15771.0291Zm.28388 0c.09048-.0457.1378-.0913.16187-.137.02656-.0489.02656-.0979.02656-.1469 0-.0921-.01992-.1544-.05312-.1967-.06973-.0863-.19673-.0863-.32456-.0863h-.47232v1.133h.18926V14.1h.18843c.18925 0 .18925.0946.18925.1893v.283h.18843v-.283c.04234-.0424.04649-.0847.03072-.1262-.01993-.0523-.07222-.1046-.12452-.1569Zm-.28388.9438c-.47232 0-.9438-.3777-.9438-.9438 0-.5669.37768-.9446.9438-.9446.47231 0 .94463.3777.94463.9446 0 .5661-.47232.9438-.94463.9438Zm0-1.9831c-.66075 0-1.13306.4724-1.13306 1.0393 0 .5661.47231 1.1331 1.13306 1.1331.66157 0 1.13388-.4724 1.13388-1.1331 0-.5669-.47231-1.0393-1.13388-1.0393Zm81.50534-2.6446V5.12769c0-.28306.1893-.75538.4723-.94463h-5.1c.3777.18925.4724.66157.4724.94463v.09462c-1.5863.55948-3.1726 1.21109-4.7597 1.86353l-.0573.0249V5.03306c0-.18843.1893-.66075.4723-.85h-5.1c.2839.18925.4723.66157.4723.94463v5.19461c0 .2831-.1884.7554-.4723.9438h5.1c-.283-.1884-.4723-.6607-.4723-.9438v-.56693c1.6062-.66074 3.2116-1.22768 4.817-1.88926v2.45619c0 .2831-.1885.7554-.4724.9438h5.1c-.283-.1884-.4723-.6607-.4723-.9438ZM66.1456 7.88354c.728.98448 1.446 1.94073 1.7598 2.34416.1544.2307.3079.3993.4623.5047.0349.024.0698.0448.1046.0622.1884.0938.2831.2831.5661.3777h-5.7607v-.0946c.0946 0 .1884-.0946.1884-.2831v-.1892c-.0465-.0473-.0697-.0947-.093-.1411-.024-.0474-.0481-.0947-.0954-.142 0-.0946-.0946-.1892-.0946-.1892L61.2 7.3h-.0946l-1.9831 2.8331c-.1892.3776-.2839.5669-.2839.6615 0 .1885 0 .2831.0947.3777h-4.6277c.3777-.1892.6607-.3777.7553-.5669.3777-.5197 1.3697-1.86521 2.3608-3.21077.9919-1.34639 1.9839-2.69194 2.3616-3.21157h4.533c-.127.04233-.1967.14194-.2357.24653-.0473.12949-.0473.26811-.0473.32041 0 .03818.0157.09214.0406.15522.0357.09297.0922.20503.1486.31709.2972.44659 1.1165 1.57134 1.9233 2.66123Zm34.5324 4.32716V9.28306h-1.7003c-.1884-.32954-.7297-1.12974-1.2717-1.9316-.5445-.80434-1.0891-1.60952-1.2783-1.94072-.0946-.09463-.1893-.28305-.1893-.37768 0-.09463-.0938-.66075.1893-.75537H90.1c-.5669.85-2.55 4.15537-3.0223 5.00537h-1.7v2.92764c.1345-.034.3295-.1394.5545-.2614.4059-.2208.9089-.4939 1.3339-.4939h11.617c.508 0 1.0716.3345 1.4779.5752.122.0722.23.1361.317.1801Zm-6.9406-4.43507c.3063.49473.6126.98946.8957 1.50743h-4.7224c.2433-.53457.5114-1.04424.7787-1.55474.2523-.48145.5038-.96289.7329-1.46758h1.4161c.2839.52046.5919 1.01768.899 1.51489Zm-39.7151 1.4128c.3777-.47232.5661-1.03843.5661-1.51074 0-.47232-.1884-1.03926-.5661-1.51158-.3777-.47148-.85-.85-1.5116-1.22768-.6607-.37769-1.4161-.66074-2.2661-.85-.9446-.18843-1.8892-.28306-2.8339-.28306-.9446 0-1.8884.09463-2.7384.28306-.85.18926-1.6062.47231-2.2669.85-.6608.37768-1.1331.7562-1.5108 1.22768-.3785.47232-.5669.94463-.5669 1.51158 0 .43745.1245.8749.4001 1.28496.1403.20918.3204.41171.5445.60346.6608.56699 1.5108 1.03929 2.55 1.41699 1.1331.3776 2.2661.5669 3.5884.5669 1.0393 0 1.9839-.0946 2.8339-.2839.4101-.0905.7977-.2034 1.1638-.3387.3926-.1444.7604-.3154 1.1023-.5113.6616-.3777 1.1339-.75536 1.5116-1.22767ZM50.15 6.73306c.1884.28305.3777.56694.3777.94463 0 .37768-.1893.66074-.3777.94462-.2839.28306-.6616.47232-1.1339.66075-.4715.18925-.9438.28305-1.5107.28305-.567 0-1.0393-.0938-1.5108-.28305-.4723-.18843-.85-.37769-1.1339-.66075-.1386-.13945-.2324-.27807-.2913-.42832-.0614-.15605-.0863-.32373-.0863-.5163 0-.37769.0946-.66158.3776-.94463.2839-.28306.6616-.47232 1.1339-.66075.1843-.03735.3694-.0747.5595-.10625.2963-.04814.606-.083.9513-.083.3602 0 .6823 0 .9903.04814.1768.02822.3486.07222.5204.14111.4723.18843.85.37769 1.1339.66075ZM35.8884 3.80537h.85C37.1161 3.9 37.4 3.9 37.4946 3.9c.5661 0 .9438-.09463 1.3215-.09463v3.02232c-.3777-.18926-.85-.37769-1.3215-.47232-.5669-.18926-1.0392-.18926-1.6062-.18926-.5661 0-1.133.09463-1.5107.28389-.098.03901-.1918.07388-.2814.10708-.3437.12866-.6275.23491-.8517.45903-.2839.18926-.4723.47232-.4723.7562 0 .17266.0349.31045.1262.45572.0589.09297.1411.18925.2515.29966.2831.28305.6607.37768 1.1331.56694.1527.03071.3154.06142.488.08882.3611.05644.7654.09961 1.212.09961.5669 0 1.133-.09463 1.6053-.18843.567-.09463.9447-.28389 1.3223-.47232v3.02229c-.156-.039-.3287-.0622-.5105-.0755-.2573-.0191-.5345-.0191-.8118-.0191h-1.6053c-1.5108 0-2.8331-.1893-4.0608-.5669-1.2277-.3777-2.1723-.85-2.9277-1.41699C28.3331 9 27.9554 8.33843 27.9554 7.67769c0-.56695.1892-1.03926.5669-1.51158.2316-.28886.5338-.54287.9073-.78276.2357-.1519.4997-.29883.7927-.44492.7554-.37769 1.6054-.66074 2.55-.85.9438-.18843 1.9831-.28306 3.1161-.28306Zm74.7066 7.46073h9.727c.756 0 4.25-.0938 4.25-2.07767 0-1.32232-1.606-2.26612-4.061-2.26612h-5.006V5.6c.661-.18926 4.44-.18926 5.1-.18926.661 0 1.511 0 2.456.47232-.053-.15938-.114-.31045-.178-.45655-.163-.37519-.348-.71469-.483-1.0542h-11.805c.66.18843.755.66075.755 1.03843v4.81696c0 .3777-.095.7554-.755 1.0384Zm7.933-3.77767c1.038 0 1.983.28388 1.983 1.51157 0 .75537-.473 1.5107-2.078 1.6054-.283 0-2.738-.0947-2.928-.0947V7.58306c.182-.0606 1.259-.08218 2.081-.09048.46-.00415.84-.00415.942-.00415Zm20.777 3.77767c-.283-.0938-.472-.283-.567-.3777-.083-.0415-.149-.1029-.213-.1909-.079-.1096-.154-.2606-.259-.4698-.367-.4192-1.316-1.6527-2.184-2.81315-.696-.93052-1.341-1.81372-1.594-2.19224-.093-.18925-.188-.37768-.188-.47231 0-.09463 0-.47231.283-.56694h-4.533c-.755 1.13305-3.967 5.47768-4.722 6.51694-.095.1884-.378.3777-.756.5661h4.723c-.048-.0473-.072-.0946-.083-.1544-.012-.0589-.012-.1295-.012-.2233 0-.0456.022-.1369.067-.2507.048-.1195.12-.2648.216-.41.095-.1893.189-.28307.283-.47233h3.4c.047.09463.095.16519.142.23574.047.07139.095.14199.142.23659 0 0 0 .0946.095.1884.093.0946.188.1893.188.2839v.1884c0 .0947 0 .2839-.188.2839v.0938h5.76Zm-7.131-2.74589c.109.1544.22.31294.331.47979h-2.172c.283-.56694.662-1.03926 1.039-1.60537h.094c.201.4001.448.75288.708 1.12558Zm21.298-3.39252v5.19461c0 .1486.053.3495.143.5479.081.1793.195.3561.33.4905h-5.1c.377-.1884.471-.6607.471-.9446V8.62231H144.5v1.79379c0 .2839.188.7562.472.9446h-5.1c.174-.1153.312-.3378.394-.5586.05-.1386.079-.2764.079-.386V5.22231c0-.28388-.19-.7562-.473-.94462h5.1c-.284.18842-.472.66074-.472.94462v1.7938h4.816v-1.7938c0-.28388-.188-.7562-.471-.94462h5.1c-.284.09462-.473.56694-.473.85Zm15.31 5.57481c.121.0764.234.1419.368.1859.188.0947.472.1893.85.2839H163.578c.188-.0946.188-.1892.094-.2839l-.094-.0938c-.048-.0473-.095-.0705-.141-.0938-.048-.024-.095-.0481-.142-.0954-.095-.0947-.19-.1893-.284-.1893-.523-.3328-1.022-.64164-1.522-.95126-.492-.30464-.985-.60927-1.501-.93715v1.88841c0 .2839.19.7562.473.9446h-5.1c.377-.1884.472-.6607.472-.9446V5.22231c0-.13779-.1-.425-.263-.64414-.061-.08217-.132-.15439-.209-.20586h5.1c-.283.0938-.473.56612-.473.85v1.88843c1.512-1.03843 3.023-1.98305 4.534-2.92768h3.4c-1.7.47231-2.172.75537-3.022 1.32231-.464.27808-1.385.92222-2.314 1.57217l-.048.0332c.85.47232 4.628 2.64463 5.762 3.30536.2.1005.347.2009.482.2864Z"/>
</svg>