<svg xmlns="http://www.w3.org/2000/svg" viewBox="0 0 170 22">
	<path fill="#FF4B5F" d="M10.4771 17.2433c-3.59125 0-6.51695-2.8815-6.51695-6.4192S6.885 4.40405 10.4754 4.40405h.408V.5h-.4071C4.7022.5 0 5.13335 0 10.8232c0 5.7273 4.7022 10.3607 10.4771 10.3607h.4072V17.245h-.4072v-.0017Z"/>
	<path fill="#fff" d="M12.587 6.08496V.722656c4.8134.947954 8.4039 5.106644 8.4039 10.103744 0 5.0352-3.5922 9.1923-8.4039 10.1053v-5.3623h-2.1107c-2.66475 0-4.81175-2.1167-4.81175-4.7414 0-2.62634 2.147-4.74304 4.81275-4.74304h2.1097Zm20.2138 9.40974c1.0914.0033 2.1495-.3702 2.9979-1.0575l1.6659 1.6436c-1.2214 1.0923-2.85 1.7498-4.6638 1.7498-3.9246 0-7.0712-3.1743-7.0712-7.0042 0-3.83001 3.1466-6.96771 7.0712-6.96771 1.7629-.00498 3.4646.6458 4.7753 1.82451l-1.666 1.64024c-.8593-.75537-1.9652-1.17041-3.1093-1.16543-2.6299 0-4.7389 2.07851-4.7389 4.66839 0 2.5898 2.1099 4.6683 4.7389 4.6683Zm73.1172-4.8875 5.22-6.20066h2.073V17.2462h-2.073V7.98086l-5.22 6.05454-5.294-6.20063v9.41313h-2.1106V4.40654h2.1106v.07305l.037-.07305 5.257 6.20066ZM46.2018 17.794c3.8871 0 7.0713-3.1011 7.0713-6.9676 0-3.83001-3.1842-6.96771-7.0713-6.96771-3.887 0-7.0702 3.1377-7.0702 6.96771 0 3.8299 3.1467 6.9676 7.0702 6.9676Zm-.0365-11.63599c2.6291 0 4.7387 2.07851 4.7387 4.66839 0 2.5898-2.1096 4.6683-4.7387 4.6683-2.6291 0-4.7387-2.0785-4.7387-4.6683 0-2.58988 2.1096-4.66839 4.7387-4.66839ZM89.2951 17.794c3.8871 0 7.0713-3.1011 7.0713-6.9676 0-3.83001-3.1477-6.96771-7.0713-6.96771-3.887 0-7.071 3.1377-7.071 6.96771 0 3.8299 3.1466 6.9676 7.071 6.9676Zm0-11.63599c2.6291 0 4.7387 2.07851 4.7387 4.66839 0 2.5898-2.1478 4.6683-4.7387 4.6683-2.629 0-4.7387-2.0785-4.7387-4.6683 0-2.58988 2.1097-4.66839 4.7387-4.66839Zm-9.9595-1.75147h2.8518l-6.4421 6.45636 6.3674 6.385h-2.8136l-5.3685-5.364h-2.1464v5.364h-2.0731V4.40654h2.0731v5.39883h2.1846l5.3668-5.39883Zm87.8524 0H170l-6.405 6.45636 6.331 6.385h-2.813l-5.331-5.364h-2.184v5.364h-2.073V4.40654h2.073v5.39883h2.184l5.406-5.39883ZM141.643 17.2462h-2.296l-1.258-2.7708h-6.738l-1.258 2.7725h-2.295l5.737-12.84136h2.369l5.739 12.83966ZM134.72 7.03291l-2.443 5.39879h4.887l-2.444-5.39879ZM65.8606 10.8264c.7549.6939 1.1849 1.6734 1.1849 2.6994 0 2.042-1.666 3.7221-3.7399 3.7586h-7.6253V4.40654h7.6253c2.0594-.00332 3.7331 1.66182 3.7399 3.72041 0 1.05752-.4819 2.00715-1.1849 2.69945Zm-2.5915-4.33968h-5.4792v3.28047h5.4792c.9255 0 1.6651-.72881 1.6651-1.64024 0-.91308-.7396-1.64023-1.6651-1.64023Zm-5.4792 8.71748h5.4792c.9263 0 1.6659-.767 1.7025-1.6768 0-.4333-.1814-.84-.4769-1.1405-.3016-.3055-.7218-.5014-1.1891-.5014h-5.5157v3.3187Zm95.0331-5.39883v-5.3623h2.111V17.2097h-2.111v-5.3275h-7.588v5.3275h-2.11V4.44307h2.11v5.3623h7.588Zm-29.543 0c2.073 0 3.776 1.67673 3.776 3.72043 0 2.042-1.702 3.7221-3.777 3.7569h-7.589V4.40654h10.108v2.07852h-7.997v3.32031h5.479Zm-5.478 5.39883h5.479c.925 0 1.666-.767 1.666-1.6768 0-.8765-.741-1.6419-1.666-1.6419h-5.479v3.3187Z"/>
</svg>