<svg xmlns="http://www.w3.org/2000/svg" viewBox="0 0 84 38">
	<path fill="#F36F21" d="M.090332 10.0186c0 5.5059 4.422808 9.9287 9.928768 9.9287 5.5059 0 9.9287-4.4228 9.9287-9.9287 0-5.41569-4.4228-9.9287562-9.9287-9.9287562C4.51314.0898438.090332 4.51265.090332 10.0186Zm0 15.1639c0 1.4442 4.422808 2.6176 9.928768 2.6176 5.5059 0 9.9287-1.1734 9.9287-2.6176s-4.4228-2.6176-9.9287-2.6176C4.51314 22.4746.090332 23.648.090332 25.1825Zm9.928768 5.2351c7.1306 0 9.9287.7221 9.9287 1.6247 0 .9929-2.7981 1.6247-9.9287 1.6247-7.13067 0-9.928768-.722-9.928768-1.6247 0-.9026 2.798098-1.6247 9.928768-1.6247Zm0 5.9573c8.7553 0 9.9287.1805 9.9287.6318 0 .4513-1.0831.6318-9.9287.6318-8.75537 0-9.928768-.1805-9.928768-.6318 0-.4513 1.083138-.6318 9.928768-.6318Z"/>
	<path fill="#EB690A" d="M10.019 37.8195C.361044 37.8195 0 37.5487 0 37.0071c0-.6318.81235-.8123 10.019-.8123 9.2067 0 10.019.1805 10.019.8123 0 .5416-.4513.8124-10.019.8124Zm0-1.3539c-7.31116 0-9.748217.0902-9.748217.5415s2.437057.5416 9.748217.5416c7.3112 0 9.7482-.0903 9.7482-.5416s-2.5273-.5415-9.7482-.5415Zm0-2.6176C3.33967 33.848 0 33.2162 0 32.0428s3.33967-1.8053 10.019-1.8053c6.6793 0 10.019.6319 10.019 1.8053s-3.4299 1.8052-10.019 1.8052Zm0-3.3397c-8.8456 0-9.748217 1.0832-9.748217 1.5345 0 .4513.992877 1.5344 9.748217 1.5344 8.7553 0 9.7482-1.0831 9.7482-1.5344 0-.4513-.9929-1.5345-9.7482-1.5345Zm0-2.6176C4.4228 27.8907 0 26.7173 0 25.0926c0-1.6247 4.4228-2.7981 10.019-2.7981 5.5962 0 10.019 1.1734 10.019 2.7981 0 1.6247-4.4228 2.7981-10.019 2.7981Zm0-5.2351c-5.86698 0-9.748217 1.2636-9.748217 2.5273 0 1.2637 3.881237 2.5273 9.748217 2.5273 5.867 0 9.7482-1.2636 9.7482-2.5273 0-1.2637-3.9715-2.5273-9.7482-2.5273Zm0-2.6176C4.51306 20.038 0 15.5249 0 10.019 0 4.51306 4.4228 0 10.019 0c5.5962 0 10.019 4.51306 10.019 10.019 0 5.5059-4.5131 10.019-10.019 10.019Zm0-19.767216C4.60332.270784.18052 4.60333.18052 10.019c0 5.4157 4.4228 9.7482 9.83848 9.7482 5.4157 0 9.7482-4.4228 9.7482-9.7482 0-5.32541-4.4228-9.748216-9.7482-9.748216Z"/>
	<path fill="#fff" d="M31.6818 24.64c.8124 0 1.8053.2708 2.5274.6318l.361 2.1663h1.1734v-3.1592c-.8124-.2707-2.1663-.7221-3.8812-.7221-2.5274 0-4.1521.8124-5.1449 1.715-1.1734 1.0831-2.2566 2.7981-2.2566 5.4157 0 2.7981 1.2637 4.4228 1.8955 5.1449 1.6247 1.7149 3.6105 2.1663 5.2352 2.1663 1.3539 0 2.7981-.2708 4.0617-.7221v-3.2494h-1.1734l-.5415 2.6175c-.6319.1806-1.4442.2708-2.076.2708-2.1663 0-3.3397-.9929-4.0618-1.8052-.7221-.9026-1.2637-2.3468-1.2637-4.3325 0-1.6248.4514-3.3397 1.4442-4.5131.8124-.8124 1.9858-1.6247 3.7007-1.6247Zm17.2399.4513c1.354 1.2636 2.2566 3.2494 2.2566 5.5962 0 2.1663-.7221 4.0618-1.8955 5.2351-.9026.9929-2.4371 2.0761-4.7839 2.0761-2.1662 0-3.7007-.9027-4.7838-1.9858-.8124-.8123-1.8955-2.5273-1.8955-5.3254 0-2.8884 1.1734-4.6033 2.3468-5.5962.8124-.7221 2.2565-1.6247 4.4228-1.6247 1.8955 0 3.2494.7221 4.3325 1.6247Zm-7.3111.7221c-.9929 1.0831-1.6247 2.8883-1.6247 4.8741 0 .8123.0902 2.7981 1.1734 4.4228.9928 1.4442 2.3468 1.8052 3.3396 1.8052.7221 0 2.1663-.1805 3.2495-1.7149 1.1733-1.5345 1.2636-3.6105 1.2636-4.4228 0-2.1663-.5416-3.8813-1.5344-4.9644-1.0832-1.1734-2.4371-1.2637-2.9787-1.2637-1.4441 0-2.3468.6319-2.8883 1.2637Zm28.0712-.7221c-.8123-.7221-2.1662-1.6247-4.2422-1.6247-1.8053 0-3.2494.6318-4.3326 1.6247-1.7149 1.5344-2.076 3.791-2.1663 5.0546h-2.8883v-5.4157l1.6247-.0902v-.8124h-5.0546v.8124l1.5344.0902v11.9145l-1.5344.0903v.8123h5.0546v-.8123l-1.6247-.0903v-5.5962h2.8883c.0903 2.076.9027 3.8813 1.8053 4.8741.8123.9027 2.3468 1.9858 4.6033 1.9858 2.3468 0 3.8812-1.0831 4.6936-2.076 1.0831-1.2637 1.8052-3.0689 1.8052-5.2352 0-2.3468-.8123-4.2423-2.1663-5.5059Zm-1.1734 10.1093c-.8123 1.0831-1.9857 1.7149-3.1591 1.7149-.9929 0-2.3468-.361-3.2494-1.8052-.8124-1.1734-1.0831-2.8884-1.0831-4.4228 0-1.6247.4513-3.7007 1.5344-4.8741.7221-.7221 1.6247-1.2637 2.9786-1.2637 1.0832 0 1.9858.3611 2.7981 1.2637 1.0832 1.2636 1.4442 3.2494 1.4442 4.9644-.0903 1.5344-.4513 3.2494-1.2637 4.4228Zm8.0333-5.2352v1.2637l1.8052-.1806c.7221 0 1.9858.0903 2.7079.9026.361.3611.7221 1.0832.7221 1.9858 0 .9026-.2708 1.715-1.1734 2.3468-.8124.5416-1.8053.6318-2.6176.6318-.9026 0-1.715-.2708-2.3468-.6318l-.3611-2.6176h-1.1734v3.6105c1.8955.6318 3.5202.6318 3.9715.6318 1.2637 0 3.0689-.2708 4.2423-1.0831 1.1734-.8124 1.6247-1.8955 1.6247-3.2495 0-.8123-.2708-1.7149-.9928-2.3467-.7221-.6319-1.715-.9027-2.6176-.9929.7221-.1805 1.5344-.5416 2.076-1.0832.7221-.722.9026-1.4441.9026-2.076 0-1.4441-.7221-2.3468-1.5344-2.7981-.9929-.5415-2.1663-.6318-3.3397-.6318-.7221 0-1.9858 0-3.791.5416v3.1591h1.1734l.2708-2.2565c.8123-.3611 1.715-.5416 2.3468-.5416.8123 0 1.4442.1805 2.076.7221.4513.4513.8123 1.0831.8123 1.9858 0 .8123-.2707 1.5344-.9928 2.076-.5416.4513-1.1734.6318-1.8053.7221-.2707 0-1.9857-.0903-1.9857-.0903ZM33.7579 11.3716c-1.0832-.7221-2.3468-.8124-3.6105-.8124-.2708 0-1.1734 0-2.3468.0903V5.68512h5.3254l.3611 2.07601h1.1734V4.69224H24.4609v.81235l1.5345.09026V17.5093l-1.5345.1806v.8123h5.4157c1.0832 0 2.8884-.0902 4.0618-1.0831 1.1734-.9026 1.3539-2.076 1.3539-2.8884 0-1.4442-.4513-2.437-1.5344-3.1591Zm-1.354 5.4157c-.8123.8123-2.1662.8123-3.0689.8123-.5415 0-.9928 0-1.5344-.0903v-5.8669c.6318-.0903 1.3539-.1806 2.076-.1806.9026 0 1.8955.0903 2.6176.8124.6318.7221.7221 1.6247.7221 2.1663.0902.722-.0903 1.7149-.8124 2.3468Zm17.2399.6318L44.6795 4.51172h-1.354L38.4514 17.4191l-1.7149.2708v.8123h4.513v-.8123l-1.6247-.0903 1.5345-4.2423h4.8741l1.6247 4.2423-1.5345.0903v.8123h4.6936v-.8123l-1.1734-.2708Zm-8.0332-4.9644 2.076-5.68645 2.076 5.68645h-4.152ZM67.335 5.59485v-.90261h-5.0546v.81235l1.6247.09026v5.41565h-7.1306V5.59485l1.6247-.09026v-.81235h-5.0547v.81235l1.5345.09026V17.5093l-1.5345.0903v.8124h5.0547v-.8124l-1.6247-.0903v-5.5962h7.1306v5.5962l-1.6247.0903v.8124h5.0546v-.8124l-1.5344-.0903V5.68512l1.5344-.09027ZM82.2282 17.5996 77.5346 10.83l4.3325-5.14488 1.3539-.18053v-.81235h-4.3325v.81235l1.4442.09026-4.5131 5.50595h-1.5344V5.59485l1.6247-.09026v-.81235h-5.0547v.81235l1.5345.09026V17.5093l-1.5345.0903v.8124h5.0547v-.8124l-1.6247-.0903v-5.5962h1.7149l4.6034 6.4989h2.9786v-.8124h-1.3539Z"/>
</svg>