<svg xmlns="http://www.w3.org/2000/svg" viewBox="0 0 164 28">
	<path fill="#000" d="M74.9448.5h89.0553v27H74.9448z"/>
	<path fill="#fff" d="M75 .5H0v27h75z"/>
	<path fill="#F08064" d="M14.4545 4.79032c-5.56047.36677-9.12653 2.77344-10.21612 6.89448-.2535.9587-.31895 3.0669-.12756 4.1049.78877 4.2767 4.02901 6.8364 9.35048 7.3864 1.3442.1389 4.1248.056 5.339-.1592 3.8522-.6828 6.2795-2.5538 7.266-5.6009.0954-.2944.1377-.571.1377-.571l-5.3413-1.016s-.0523.1498-.1113.348c-.409 1.374-1.4352 2.3052-2.9872 2.7107-1.881.4915-4.7111.2398-6.1985-.5513-.6514-.3463-1.3513-1.062-1.66952-1.707-.38785-.7861-.5329-1.5025-.53323-2.6336-.00041-1.5983.3778-2.6701 1.25095-3.5449 1.0801-1.08231 3.0669-1.64763 5.3613-1.5254 2.6155.13927 4.1835 1.1044 4.7705 2.9365.0832.2597.0814.295.0814.295 1.8085-.3451 3.6175-.6886 5.4189-1.0695 0 0 .0329-.0297-.0344-.2727-.1674-.6052-.5853-1.4847-1.0027-2.1102-1.3992-2.09707-3.9211-3.40425-7.3221-3.79523-.8115-.09329-2.7847-.1617-3.4323-.11905ZM27.775 23.006h5.2302V9.22565h10.542V23.006h5.2302V5.06707H27.775V23.006Zm23.2088.0066 7.4162-.0272c7.3866-.0269 7.419-.0278 8.1109-.2104 2.8238-.7454 4.386-2.8929 4.2213-5.803-.0576-1.0157-.1897-1.5406-.5956-2.3647-.6254-1.2696-1.927-2.253-3.5849-2.7082-.634-.1741-.8025-.1803-5.5775-.208l-4.9269-.0285V9.14411h13.3238V5.06707H50.9838V23.0126ZM74.9281 9.22663l13.2797-.04175.0437-4.11781H74.9281v4.15956ZM88.8207 23.1399l5.5708-.0115 1.7156-3.3024h9.8719l1.678 3.2666h5.762l-9.602-17.96438h-5.3452L88.8207 23.1399Zm25.8243-.0473h5.311v-7.0991h10.951v7.0991h5.271V5.12822h-5.271v6.62518h-10.951V5.12822h-5.311V23.0926Zm23.862 0h5.271v-7.7428l8.969 7.7428h7.403l-10.757-9.5391 10.44-8.42528h-6.984l-9.071 7.35908V5.12822h-5.271V23.0926Zm-34.559-7.2621h-5.8239l2.9489-5.5754 2.875 5.5754Zm-29.0199-.1727 4.1474.0252c4.1054.0249 4.1508.0269 4.4869.2063.6443.3438.8892.8593.8262 1.7388-.0483.6733-.2467 1.0264-.7327 1.304l-.3514.2008-4.1882.0232-4.1882.0232v3.9992l4.842-.0302c4.6874-.0292 4.8641-.0359 5.5366-.2112 2.1234-.5533 3.6363-1.9775 4.1279-3.8858.1824-.7079.2397-1.8554.1282-2.5666-.3616-2.3067-1.7732-3.8444-4.1335-4.5025-.6378-.1778-.7736-.1829-5.5775-.2096l-4.9237-.0274v3.9126Zm-10.4424.0132c.6796.1883 1.124.8335 1.1208 1.6272-.0032.8004-.2491 1.2556-.8527 1.5783-.3219.1722-.3899.1748-4.4946.1748h-4.2119v-3.465h4.0672c2.5457.0003 4.181.032 4.3712.0847Z"/>
</svg>