<svg xmlns="http://www.w3.org/2000/svg" viewBox="0 0 111 36">
	<g fill="#fff">
		<path d="M60.9 16.5c-.7-.3-1.4-.5-2.3-.5h-3.9v-3.8H61c.2 0 .4 0 .6-.2.2-.2.2-.3.2-.6s0-.4-.2-.6c-.1-.2-.3-.2-.6-.2h-7.2c-.2 0-.5 0-.6.3-.2.2-.3.4-.3.6v11.3c0 .2 0 .5.3.6.2.2.4.3.6.3h4.8c.8 0 1.6-.2 2.3-.5.7-.3 1.2-.8 1.5-1.4.4-.6.6-1.3.6-2s-.2-1.4-.6-1.9c-.4-.6-.9-1-1.5-1.3ZM61 21c-.2.3-.5.6-.9.8-.4.2-.9.3-1.4.3h-3.9v-4.6h3.9c.5 0 1 0 1.4.3.4.2.7.4.9.7.2.3.3.7.3 1.3s-.1.9-.3 1.3ZM71.7 15.1c-.7-.4-1.5-.6-2.4-.6s-1.7.2-2.4.6c-.7.4-1.3 1-1.7 1.7-.4.7-.6 1.5-.6 2.4s.2 1.7.6 2.4c.4.7.9 1.2 1.6 1.7.7.4 1.4.6 2.2.6s1.6-.2 2.2-.6c.4-.3.8-.6 1.1-.9v.6c0 .2 0 .5.2.6.2.2.4.2.6.2s.5 0 .6-.2c.2-.2.3-.4.3-.6v-3.7c0-.9-.2-1.7-.6-2.4-.4-.7-1-1.3-1.7-1.7Zm.2 5.6c-.3.5-.6.8-1.1 1.1-.5.3-1 .4-1.5.4s-.7 0-1-.1l-1.1.6c-.1 0-.3 0-.3-.2l.2-.9c-.2-.2-.4-.4-.5-.7-.3-.5-.4-1-.4-1.6s.1-1.1.4-1.6c.3-.5.6-.9 1.1-1.1.5-.3 1-.4 1.5-.4s1.1.1 1.5.4c.5.3.8.6 1.1 1.1.3.5.4 1 .4 1.6s-.1 1.1-.4 1.6ZM83.9 14.5c-.2 0-.5 0-.6.2-.2.2-.2.4-.2.6v2.8h-5.2v-2.8c0-.3 0-.5-.2-.6-.2-.2-.4-.2-.6-.2s-.5 0-.6.2c-.1.2-.2.4-.2.6v7.5c0 .2 0 .5.2.6.2.2.4.2.6.2s.5 0 .6-.2c.2-.2.2-.4.2-.6v-3.2h5.2v3.2c0 .2 0 .5.2.6.2.2.4.2.6.2s.5 0 .6-.2c.1-.2.2-.4.2-.6v-7.5c0-.3 0-.5-.2-.6-.1-.2-.4-.2-.6-.2ZM91.7 19l3.1-3.3c.1-.2.2-.3.2-.5s-.1-.4-.3-.5c-.1-.1-.4-.2-.6-.2-.3 0-.5.1-.6.3l-3.1 3.4h-1.3v-2.8c0-.3 0-.5-.3-.6-.2-.2-.4-.2-.6-.2s-.4 0-.6.2c-.1.2-.2.4-.2.6v7.5c0 .2 0 .5.2.6.1.2.3.2.6.2s.5 0 .6-.2c.2-.2.3-.4.3-.6v-3.1h1.1l3.5 3.7c.1.1.4.2.6.2.3 0 .5 0 .6-.2.2-.2.3-.3.3-.5s0-.4-.2-.5L91.7 19ZM41.8 14.5c-.2 0-.5 0-.6.2-.2.2-.2.4-.2.6V20c0 .4-.1.8-.3 1.1-.2.3-.5.6-.9.8-.4.2-.8.3-1.3.3s-1 0-1.4-.3c-.4-.2-.7-.5-1-.9-.2-.4-.4-.9-.4-1.6v-4.1c0-.2 0-.4-.3-.6-.2-.2-.4-.3-.6-.3s-.5 0-.6.3c-.2.2-.2.4-.2.6v4.1c0 .9.2 1.7.5 2.3.4.6.8 1.1 1.5 1.5.6.3 1.3.5 2.1.5s1.4-.2 2-.5l.9-.6v.2c0 .2 0 .5.2.6.2.2.4.2.6.2s.5 0 .6-.2c.2-.2.2-.4.2-.6v-7.5c0-.3 0-.5-.2-.6-.2-.2-.4-.2-.6-.2ZM36.8 13c.5.2 1 .3 1.6.3s1.1 0 1.6-.3c.5-.2.8-.5 1.1-.8.3-.3.4-.7.4-1.2s0-.4-.2-.6c-.1-.2-.3-.2-.5-.2s-.4 0-.5.2c-.1.2-.2.4-.2.6s-.1.5-.4.7c-.3.2-.7.3-1.1.3s-.8 0-1.1-.3c-.3-.2-.4-.4-.4-.7s0-.4-.2-.6c-.1-.2-.3-.2-.5-.2s-.4 0-.5.2c-.1.2-.2.4-.2.6 0 .4.1.8.4 1.2.3.3.6.6 1.1.8ZM3.1 13.5c.5-.5 1-.8 1.6-1.1.6-.3 1.2-.4 1.9-.4s1.3 0 1.8.3c.5.2.9.5 1.3.8.2.2.4.2.6.2.2 0 .4-.1.5-.2.2-.1.2-.3.2-.5v-.3s0-.2-.1-.2c0 0-.1-.2-.2-.2-.6-.5-1.3-.9-1.9-1.1-.6-.2-1.4-.3-2.2-.3s-1.8.2-2.6.5-1.5.8-2.1 1.4c-.6.6-1.1 1.3-1.4 2.1-.3.8-.5 1.7-.5 2.6s.2 1.8.5 2.6.8 1.5 1.4 2.1c.6.6 1.3 1.1 2.1 1.4.8.3 1.7.5 2.6.5s1.5-.1 2.2-.4c.7-.2 1.4-.6 2-1.1 0 0 .2-.2.2-.3v-.3c0-.2 0-.4-.2-.6-.1-.1-.3-.2-.5-.2s-.4 0-.6.2c-.5.3-1 .6-1.5.8-.5.2-1.1.3-1.6.3s-1.3-.1-1.9-.4c-.6-.3-1.1-.6-1.6-1.1-.4-.5-.8-1-1-1.6-.2-.6-.4-1.3-.4-2s.1-1.4.4-2c.2-.6.6-1.2 1-1.6ZM19.9 18.9c.2 0 .4-.2.5-.3.5-.4.7-1 .7-1.6s-.1-.9-.4-1.2c-.2-.4-.6-.7-1-.9-.4-.2-.9-.3-1.4-.3H14c-.2 0-.4 0-.6.2-.2.2-.2.4-.3.6v7.5c0 .2 0 .5.2.6.2.2.4.2.6.2h4.2c.6 0 1.2-.1 1.6-.3.5-.2.9-.5 1.1-.9.3-.4.4-.8.4-1.3s-.1-.9-.4-1.3c-.3-.4-.7-.7-1.1-.9Zm-5-2.8h3.4c.3 0 .6 0 .8.3.2.2.3.4.3.7s0 .6-.3.8c-.2.2-.4.3-.7.3h-3.6V16Zm4.4 5.7c-.3.2-.7.3-1.1.3h-3.3v-2.4h3.3c.5 0 .8.1 1.1.4.3.2.4.5.4.9s-.1.6-.4.9ZM29.7 15.1c-.7-.4-1.5-.6-2.4-.6s-1.7.2-2.4.6c-.7.4-1.3.9-1.7 1.6-.4.7-.6 1.5-.6 2.4s.2 1.7.6 2.4c.4.7 1 1.2 1.7 1.6.7.4 1.5.6 2.4.6s1.7-.2 2.4-.6c.7-.4 1.2-.9 1.6-1.6.4-.7.6-1.5.6-2.4s-.2-1.7-.6-2.4c-.4-.7-.9-1.3-1.6-1.6Zm.2 5.6c-.2.5-.6.8-1.1 1.1-.5.3-1 .4-1.6.4s-.8 0-1.2-.2h-.1l-.9.5c-.1 0-.3 0-.3-.2l.2-.9v-.2c-.2-.2-.3-.4-.4-.6-.3-.5-.4-1-.4-1.6s.1-1.2.4-1.6c.3-.5.6-.9 1.1-1.1.5-.3 1-.4 1.6-.4s1.1.1 1.6.4c.5.3.8.6 1.1 1.1.3.5.4 1 .4 1.6s-.1 1.2-.4 1.6Z"/>
		<path d="M106.9 7.3c-2-3.1-4.8-5.5-8.2-7.1-1.2-.6-2.7 0-3.3 1.2-.6 1.2 0 2.7 1.2 3.2 5.2 2.4 8.5 7.7 8.5 13.4s-3.3 10.9-8.5 13.4c-1.2.6-1.8 2-1.2 3.2.4.9 1.3 1.4 2.2 1.4s.7 0 1.1-.2c3.3-1.6 6.2-4 8.2-7.1 2.1-3.2 3.2-6.9 3.2-10.6s-1.1-7.5-3.2-10.7Z"/>
	</g>
</svg>