<svg xmlns="http://www.w3.org/2000/svg" viewBox="0 0 140 36">
	<g fill="#fff">
		<path d="M19.651 8.67608c.5105 1.03101-.506 2.05042-1.537 1.53702-.1809-.0911-.3267-.23694-.4178-.41781-.5105-1.03101.506-2.05038 1.537-1.53702.1809.09109.3267.23695.4178.41781Zm4.4961 0c.5104 1.03101-.5053 2.05042-1.5371 1.53702-.1801-.0904-.3266-.23694-.4171-.41781-.5141-1.03101.5053-2.05038 1.5364-1.53702.1808.09109.3266.23695.4178.41781ZM25.6667 11.7118c-.7795.5928-2.3202 1.1383-4.3204 1.1383-2 0-3.5415-.5455-4.3203-1.1383h-1.7032c.4294 1.5269 2.9582 2.7016 6.0228 2.7016 3.0647 0 5.5928-1.1747 6.0222-2.7016h-1.7011Zm21.4966 16.0534c-.9305 0-1.6669-.0817-2.2102-.2457-.5307-.1575-1.0259-.4172-1.4582-.7628-.4456-.358-.7956-.8196-1.0209-1.3446-.2326-.5344-.3493-1.241-.3493-2.1197v-6.9029h-1.89v-2.3247h1.8871V9.66797h3.0246v4.39683h3.8267v2.3268h-3.8267v6.2774c0 .2603.0219.5192.0649.7758.0445.2632.1225.52.2326.7628.1123.2501.2858.4681.5045.6329.3465.296.7752.4775 1.2287.5199.3726.0459.7481.0722 1.1237.0794h.7495v2.3268l-1.887-.0014Zm11.3494-13.7004c.5557-.005 1.1076.0912 1.6282.2844.4587.1634.8743.4288 1.2156.7759.2916.2916.533.7094.7241 1.2541.191.5447.2857 1.2038.2843 1.9775v7.1094c-.0058.2953-.0358.5891-.0904.8794-.1145.6825-.6489 1.2169-1.3314 1.3315-.3318.0582-.6687.0882-1.0056.0882h-6.5406c-.4106-.0022-.821-.0285-1.2287-.0781-.4375-.051-.8553-.2494-1.2534-.5942-.2705-.2356-.4929-.5206-.6563-.84-.1632-.315-.2858-.6497-.3645-.9953-.0774-.3318-.1262-.6687-.1459-1.0085-.0175-.3274-.0262-.6205-.0255-.8793-.0007-.6002.0642-1.1981.194-1.7836.129-.5833.4521-1.1003.969-1.551.431-.3791.8663-.6073 1.306-.6854.3966-.0728.7991-.1122 1.2024-.1159h5.9456v-.9566c-.0015-.2174-.0226-.4339-.0642-.6468-.0517-.2392-.1626-.4616-.3238-.646-.1757-.2378-.4257-.4106-.7109-.4915-.2486-.0664-.5053-.1014-.7626-.1035H50.731v-2.3247h7.7817Zm-4.2146 7.4973c-.1691.0081-.3375.0299-.5038.0649-.2458.0518-.463.1954-.6074.401-.0838.1299-.1531.2684-.2071.4135-.086.2071-.1291.5608-.1291 1.0602.0044.2581.0256.5163.0649.7715.0292.2822.1517.5461.3485.7503.1255.1181.2699.2144.4266.2844.1743.086.3653.1312.5593.1319h4.2146c.086 0 .1939-.0043.323-.0131.129-.008.2515-.0583.3493-.1422.0904-.0663.1546-.1625.1809-.2712.0175-.0985.0254-.1976.0254-.2975v-3.1559l-5.0451.0022ZM64.4328 9.66797h3.0246V27.7652h-3.0246V9.66797Zm5.0925 18.09723V9.66797h3.0271V27.7652h-3.0271Zm9.5913 0-4.7302-5.0153c-.2275-.2573-.4305-.5337-.6081-.8276-.2232-.374-.336-.8043-.3238-1.2396 0-.5169.1129-.9354.3369-1.2541.2231-.3187.4305-.5899.6204-.8138l4.1361-4.55h3.5166l-5.145 5.5329c-.1164.1321-.2205.275-.3106.4266-.0919.1706-.1356.3624-.1286.5556.0026.2327.07.4594.1942.6563.1295.2173.2809.4208.4515.6074l5.6105 5.9209-3.6199.0007Zm7.3168-18.09723v4.39683h4.0101c.4279.0007.8558.027 1.2801.0781.4419.0517.875.156 1.2924.3098.4331.1612.8383.388 1.2023.6724.4095.3281.7516.732 1.0088 1.1892.3868.6636.6379 1.3971.7359 2.1591.1146.8349.1706 1.6771.1689 2.52 0 1.1207-.077 2.0387-.2328 2.7533-.1548.7146-.3718 1.3031-.6501 1.766-.2467.45-.5801.8466-.9826 1.1668-.3649.285-.77.5162-1.2023.6846-.4156.1626-.8496.2713-1.2923.323-.4157.0503-.8348.0766-1.2539.0781h-4.3173c-.385.0007-.7691-.0256-1.1506-.0781-.3867-.0591-.7446-.2398-1.0211-.5169-.2538-.221-.434-.5141-.5171-.84-.0657-.2837-.1007-.5747-.1024-.8663V9.66797h3.024Zm0 14.63293c0 .1378.0035.2917.0131.4521.0096.1691.0788.3288.1934.4528.1015.1028.2327.1706.3754.194.1496.0262.3001.0386.4515.0386h2.198c.2065 0 .4392-.0088.6982-.0263.2651-.0182.5259-.0751.7753-.1676.2721-.1022.5285-.2415.763-.4135.2712-.2078.4882-.479.6326-.789.1216-.2982.2222-.6044.2975-.9172.1129-.4222.1689-1.0902.1689-2.0038 0-1.0858-.0648-1.8696-.1943-2.353-.1286-.4835-.2205-.7759-.2747-.8787-.2582-.5454-.7027-.9807-1.253-1.2279-.2468-.1109-.5084-.1844-.7762-.2187-.2441-.0329-.4908-.0504-.7376-.0518h-3.3346l.0035 7.91Zm19.8286-10.2361c.555-.005 1.108.0912 1.629.2844.459.1634.873.4288 1.215.7759.292.2916.533.7094.724 1.2541.191.5447.286 1.2038.284 1.9775v7.1094c-.005.2953-.035.5891-.09.8794-.113.6825-.649 1.2177-1.331 1.3315-.334.059-.671.0896-1.009.0903h-6.541c-.41-.0021-.82-.0284-1.2276-.078-.4375-.051-.8549-.2494-1.2539-.5942-.2704-.2356-.4935-.5206-.6563-.84-.1636-.315-.2861-.649-.3648-.9953-.077-.3311-.126-.6687-.1462-1.0085-.0175-.3274-.0262-.6205-.0262-.8793 0-.6002.0656-1.1981.1943-1.7836.1295-.5833.4532-1.1004.9695-1.551.4313-.3791.8662-.6073 1.3055-.6854.3967-.0729.7987-.1122 1.2017-.1159h5.947v-.9588c-.002-.2174-.023-.4339-.065-.6468-.051-.2392-.162-.4616-.323-.646-.176-.2378-.427-.4106-.711-.4915-.248-.0664-.505-.1014-.762-.1035h-6.7481v-2.3247h7.7851Zm-4.213 7.4973c-.17.0081-.338.0299-.504.0649-.247.0518-.464.1947-.608.401-.084.1299-.153.2684-.207.4135-.087.2071-.13.5608-.129 1.0602.004.2596.026.5185.064.7751.029.2822.153.5462.349.7503.126.1181.27.2144.427.2844.173.0846.363.1283.555.129h4.214c.087 0 .194-.0043.324-.0131.129-.0079.251-.0583.349-.1422.09-.0656.154-.1618.18-.2712.018-.0985.027-.1976.027-.2975v-3.1566l-5.041.0022Zm10.133-5.4053c.003-.2428.025-.4848.066-.7241.046-.2822.176-.5432.374-.7495.265-.3121.641-.5112 1.048-.5556.347-.0394.696-.0613 1.046-.0649h4.834c.685-.0037 1.369.0575 2.043.1815.637.1203 1.232.4303 1.784.9304.361.3274.675.7671.943 1.3184.268.5512.401 1.3008.401 2.2494v9.0228h-3.023v-8.1179c0-.4375-.035-.8743-.104-1.3059-.063-.4069-.222-.7926-.465-1.1244-.215-.2858-.506-.5053-.84-.6336-.336-.1291-.78-.1932-1.331-.1939h-3.077c-.086 0-.173.0043-.259.0131-.099.016-.191.0663-.259.1422-.079.0743-.13.1757-.141.2843-.009.1036-.013.1983-.013.2844v10.6517h-3.027V16.1568Zm14.607 11.6084V9.66797h3.025V27.7652h-3.025Zm9.591 0-4.73-5.0153c-.228-.2573-.431-.5337-.608-.8276-.223-.374-.336-.8043-.324-1.2396 0-.5169.113-.9354.337-1.2541.223-.3187.43-.5899.62-.8138l4.136-4.55h3.517l-5.145 5.5329c-.116.1321-.221.275-.311.4266-.092.1706-.135.3624-.128.5556.002.2327.07.4594.194.6563.13.2173.281.4208.451.6074L140 27.7645l-3.62.0007Z"/>
		<path d="M32.558 19.1084V3.3926C32.558 1.795 31.2637.500726 29.6661.5h-17.489c-1.5977 0-2.89268 1.295-2.89268 2.8926v15.7158c0 1.5975 1.29498 2.8925 2.89268 2.8925h12.7676c1.2462 2.8729 7.6133 2.5813 7.6133 2.5813s-1.7274-.8218-2.2065-2.6637c1.295-.3164 2.2065-1.4773 2.2065-2.8101Zm-19.2602-2.1066V5.49916c-.0015-.54468.4397-.98729.9844-.98875h13.2803c.5447 0 .9858.44115.9858.98584V17.0018c.0007.5447-.4404.9858-.9851.9866H14.2843c-.5446 0-.9865-.4419-.9865-.9866Z"/>
		<path d="M17.7603 23.8347v3.4547c-.0022.5447-.4448.9844-.9894.9829H4.99914c-.54469.0015-.98727-.4397-.98875-.9843V16.9572c0-.5447.44117-.9859.98586-.9859h2.48867v-4.0104H2.89117C1.295 11.9616.0014875 13.2551 0 14.8513v14.5418c0 1.3329.911487 2.4938 2.20649 2.8102C1.72742 34.043 0 34.8662 0 34.8662s6.36711.2917 7.61399-2.5812H18.8803c1.5976 0 2.8919-1.2943 2.8926-2.8919v-5.5584h-4.0126Z"/>
		<path d="M6.54712 19.5204c-.0007.6154.49875 1.1149 1.11422 1.1156.61539.0007 1.11484-.4987 1.11563-1.1141.0007-.6155-.49875-1.1149-1.11423-1.1156h-.00069c-.61539-.0008-1.11414.4979-1.11493 1.1134v.0007Zm6.25698 5.1369H9.70517v1.99h3.09893v-1.99Z"/>
	</g>
</svg>