<svg xmlns="http://www.w3.org/2000/svg" viewBox="0 0 160 30">
	<path fill="#fff" d="M152.743 6.56516c.698 0 1.396-.00969 2.102 0v5.59044c.233 0 .475-.0097.718-.0097.619-1.8602 1.327-3.69141 1.918-5.57106.775-.04844 1.55-.02906 2.325-.00968-.765 2.15093-1.463 4.33094-2.228 6.47204.775 2.306 1.608 4.5925 2.422 6.8888-.765.0193-1.521 0-2.286.0193-.718-1.8893-1.366-3.8076-2.084-5.6969-.251-.0582-.522-.0291-.775-.0291-.01 1.9087 0 3.8173 0 5.726h-2.102c-.01-4.4471-.01-8.9137-.01-13.38014Zm-8.855 0c.716.00968 1.434-.00969 2.16.00968v5.59036c.804-.0096 1.609 0 2.412 0-.009-1.8601 0-3.73009 0-5.59036h2.104V19.955h-2.104c-.009-1.9087-.009-3.8076 0-5.7163h-2.412c.01 1.899 0 3.8076 0 5.7163h-2.16c0-4.4665-.01-8.9234 0-13.38984Zm-6.085 9.03964c.62-.0097 1.241.0194 1.86-.0194-.329-2.1509-.659-4.3018-.91-6.46238-.349 2.15088-.65 4.32118-.95 6.48178Zm-.503-9.06871c.959.01938 1.918-.01938 2.867.02907.736 4.46644 1.521 8.93304 2.277 13.39954-.727-.0097-1.454-.0097-2.17 0l-.35-2.3544h-2.44c-.097.7848-.224 1.5599-.311 2.3447-.727.0097-1.453 0-2.18 0 .775-4.4762 1.531-8.9523 2.307-13.41891Zm-7.577 6.65621c0 1.5502-.01 3.1101.009 4.6602.465-.0097.93.0291 1.386-.0387.406-.0969.669-.5135.669-.9204.018-.8235 0-1.6568.009-2.4803.009-.3876-.078-.8236-.426-1.0464-.514-.2423-1.095-.1744-1.647-.1744Zm-2.132-6.61746c1.841-.00968 3.692 0 5.533 0v2.03467c-1.134 0-2.258.00969-3.382-.00969-.029.84294-.01 1.68588-.01 2.52868 1.124.0485 2.452-.0969 3.343.7267.881.7945.911 2.0831.881 3.1876-.048 1.2402.214 2.616-.504 3.7205-.484.7945-1.433 1.1142-2.315 1.1627-1.181.0581-2.364.0096-3.536.029-.02-4.4568-.01-8.9234-.01-13.38016Zm-13.875-.00968c.718 0 1.435-.00969 2.152.00968.039 1.68587-.078 3.37174-.058 5.06716.01 1.0852 0 2.1607-.03 3.2458.785-2.7613 1.56-5.53224 2.306-8.30327.892-.02906 1.783-.00969 2.675-.01937V19.955h-2.132c.029-2.8387.019-5.6776.068-8.5164-.862 2.8291-1.677 5.668-2.5 8.5067-.824.0194-1.657 0-2.489.0097.008-4.4568 0-8.9234.008-13.38984Zm-9.175 0c.698 0 1.396-.00969 2.103 0 .029 2.75164-.058 5.49354-.048 8.23544.775-2.7419 1.52-5.49349 2.296-8.23544.881-.00969 1.773-.00969 2.655 0 .009 4.45684-.02 8.90404.019 13.36084-.727.0484-1.463.0193-2.19.0193.077-.9107.039-1.8312.049-2.7516-.029-1.9183.155-3.8367 0-5.7551-.756 2.8582-1.647 5.668-2.461 8.5067h-2.48c-.02-4.4568 0-8.9137.057-13.38014Zm-8.7774.00968h2.1315c.0098 1.86027-.0098 3.73026.0098 5.60006h.7075c.6489-1.8698 1.288-3.73979 1.9566-5.60006.765.00969 1.522 0 2.287.00969-.737 2.15094-1.483 4.30187-2.2 6.46237.698 2.3254 1.628 4.6022 2.374 6.9178h-2.277c-.697-1.9087-1.385-3.8076-2.073-5.7163h-.7751c-.0098 1.9087 0 3.8173-.0098 5.7163h-2.1315c-.0098-4.4665 0-8.9331 0-13.38986ZM80 6.56516h5.6578v2.07342h-3.5556c0 1.15297.0098 2.29622 0 3.44912.9885.0194 1.9867 0 2.9742.0097-.0088.6879-.0088 1.3758 0 2.0638-.9973.0096-1.9857-.0194-2.984.0096.0294 1.2305.0098 2.461.0098 3.7011h3.5467c0 .6879.0089 1.3855 0 2.0831h-5.6586C80 15.4885 80 11.0316 80 6.56516Zm-8.623.00968c.717 0 1.4436-.00968 2.1606 0 .0194 1.95716-.0388 3.92396.0291 5.88106.0969 1.0077 1.3079.8236 2.0249.8236V6.56516c.7169-.00969 1.4339 0 2.1606 0V19.955c-.717 0-1.434-.0097-2.151.0097-.0193-1.5405-.0096-3.0713-.0096-4.6118-1.0173-.0194-2.1218.0775-3.0326-.4748-.8332-.5135-1.1433-1.5405-1.182-2.4609 0-1.9474.0097-3.89489 0-5.84236Zm-9.1462-.00968h2.1315c.0291 1.89902-.0387 3.78834-.0291 5.68724-.0096.8914.0388 1.7731-.0387 2.6645.7848-2.771 1.5599-5.55166 2.3156-8.33237.8914-.02906 1.7828-.00969 2.6741-.01937.0097 4.46644.0097 8.92334 0 13.38984h-2.1315c.0291-2.8387.0194-5.6776.0775-8.5164-.8623 2.8291-1.6858 5.6777-2.5094 8.5164-.8236.0097-1.6568 0-2.4803 0-.0097-4.4665-.0193-8.9234-.0097-13.38984Zm-6.2104 2.08311c0 1.54053-.0097 3.09063.0096 4.63123.6008-.0388 1.3176.1453 1.8118-.2907.4069-.6298.1841-1.4243.2422-2.1218-.0581-.6491.1744-1.40487-.2713-1.95713-.4747-.44569-1.2014-.21316-1.7923-.2616Zm-2.1316-2.07343h3.3716c.9399.00969 1.996.31974 2.4998 1.18205.6782 1.06578.4554 2.38351.4941 3.57511.0291 1.153.0194 2.4997-.9011 3.3427-.9107.7848-2.1993.6782-3.3232.6782-.0193 1.5405 0 3.081-.0096 4.6118-.7073-.0097-1.4243 0-2.1316 0V6.57484ZM47.533 13.9286c-.0097 1.308 0 2.616-.0097 3.9239.6395-.0775 1.4049.1938 1.9475-.2519.4069-.3682.2809-.9785.3197-1.4726-.0388-.6298.1453-1.4146-.3779-1.899-.5038-.4942-1.2595-.2326-1.8796-.3004Zm0-5.41598c-.0097 1.15298-.0097 2.30598 0 3.46858.7073-.0194 1.8118.1647 2.0443-.7364.0679-.7266.1454-1.50169-.0872-2.19929-.3875-.71698-1.2886-.49413-1.9571-.53289Zm-2.1122-1.93778h3.5074c.9398.00969 1.957.39725 2.4415 1.24018.5232.93014.4457 2.04436.4069 3.08108-.0484.775-.31 1.6858-1.1239 1.9764.7267.2423 1.153.998 1.2305 1.7247.1066.9688.0969 1.9571-.0291 2.9259-.0969.7654-.465 1.5405-1.1336 1.9572-.7169.436-1.5889.4747-2.4027.4457h-2.8873c-.0097-4.4568-.0097-8.904-.0097-13.35116Zm-5.3772 2.54818c-.252 2.15088-.5814 4.30178-.9205 6.45268.6201.0388 1.2402.0097 1.8603.0291-.3101-2.1606-.591-4.3309-.9398-6.48178Zm-1.4243-2.56755c.9592-.03876 1.9184-.00969 2.8776-.01938.7751 4.46661 1.5405 8.94271 2.2963 13.41891h-2.18c-.1066-.7848-.2229-1.5696-.3295-2.3447-.8138.0097-1.618 0-2.4319.0097-.1259.7848-.2228 1.5696-.3391 2.3447-.7266 0-1.4435-.0097-2.1702 0 .7557-4.4665 1.5502-8.9331 2.2768-13.40923Zm-9.3302.00969h6.4817c.0194.6976.0194 1.38551 0 2.08311-.7169-.00969-1.4339-.00969-2.1509 0V19.955h-2.1315c-.0096-3.7689 0-7.5378 0-11.30673-.7266 0-1.4533-.00969-2.18 0-.0193-.68791-.0193-1.38551-.0193-2.08311Zm58.3162 1.57928c.3494-1.06577 1.4534-1.76337 2.5583-1.75368 1.0071-.0872 2.1315.06782 2.848.86231.8631.96889.8337 2.36409.8142 3.58493h-2.1609c-.0187-.6008.0684-1.22084-.1449-1.79249-.2427-.73635-1.4151-.82355-1.8116-.1744-.2524.40693-.2426.91076-.2524 1.37579.0098 2.054 0 4.1177 0 6.1718.0196.4747.0293 1.0269.3973 1.3854.4649.3779 1.2889.3003 1.5991-.2519.3094-.5813.184-1.2789.2027-1.9086.7173 0 1.4445 0 2.1609.0096.0098 1.0174.0293 2.0928-.4453 3.0229-.456.8914-1.4534 1.3758-2.432 1.4146-.9591.0678-2.0249-.0679-2.7325-.7848-.7751-.7461-.8622-1.8797-.92-2.8969-.0195-1.8506 0-3.7012-.0098-5.5517.0098-.90103.0285-1.84086.3289-2.71286Zm26.8187-5.05751h5.659c.018.60071.018 1.21111 0 1.81174-1.89-.00969-3.769 0-5.659 0V3.08693ZM2.76133 6.80738H18.9028V19.9841l-3.5461 2.0443-.0097-11.6653h-2.7322V23.598l-3.56547 2.0443V10.3631H6.31707v16.8488l-3.55574 2.0443V6.80738ZM0 .5h21.6543v3.55573L0 4.06542V.5Z"/>
</svg>