<svg xmlns="http://www.w3.org/2000/svg" viewBox="0 0 118 36">
	<path fill="#fff" d="M55.4018 14.949c1.1522 0 2.211.0932 3.0207.4046 1.7128.6544 2.8028 2.1179 2.8028 4.2353 0 2.087-1.1521 3.6751-2.865 4.3289-.8099.3114-1.8996.436-3.3634.436H44.4707V9.53027h15.54v3.42543H48.9862v1.9933h6.4156Zm-.2493 5.6679c.436 0 .7786-.0314 1.0278-.1246.5294-.1868.7473-.6543.7473-1.0903 0-.1645-.0266-.3162-.08-.4509-.0319-.0804-.0734-.155-.1244-.2231-.0895-.1187-.2082-.2172-.3561-.2912-.0452-.0224-.0925-.0426-.1416-.0602-.0789-.0282-.1629-.05-.2518-.0676-.2376-.0469-.5112-.0591-.8212-.0591h-6.1663v2.367h6.1663Zm12.132-11.08663h6.602l6.0729 14.82353h-5.0763l-.872-2.1487h-6.8512l-.8408 2.1487h-5.1074l6.0728-14.82353Zm3.1454 3.42543-2.149 5.9794h4.6404l-2.1489-5.9794h-.3425Zm15.3418 5.8862v5.5119h-4.5154V9.53027h4.5154V14.949h7.2562V9.53027h4.5158V24.3538h-4.5158v-5.5119h-7.2562Zm18.9193 5.5119v-5.6056h1.246l5.387 5.6056h6.011l-7.505-7.7229 7.225-7.10063h-5.668l-5.45 5.57473h-1.246V9.53027h-4.516V24.3538h4.516Z"/>
	<path fill="#FFDD2D" d="M0 0h36.0001v18.1054c0 4.6414-2.4761 8.9304-6.4955 11.2514L18 36 6.49547 29.3568C2.47602 27.0358 0 22.7468 0 18.1054V0Z"/>
	<path fill="#333" d="M9.88037 9.53027v5.63113c.77003-.8695 2.17013-1.458 3.77093-1.458h1.7396v6.5461c0 1.7416-.4732 3.266-1.1753 4.1045h7.5669c-.7006-.8393-1.1727-2.3618-1.1727-4.1011v-6.5495h1.7397c1.6008 0 3.0008.5885 3.7709 1.458V9.53027H9.88037Z"/>
</svg>