<svg xmlns="http://www.w3.org/2000/svg" viewBox="0 0 110 38">
	<g fill="#fff">
		<path d="M68.2443 27.365c.3858.4329.8579.7783 1.3841 1.0138.527.2354 1.0967.3555 1.6721.3525h4.0002c.0444-.0006.0871-.0143.1232-.0394.0361-.0251.0648-.0604.0812-.1016.0173-.0412.0214-.0865.0132-.1303-.0082-.0437-.0296-.084-.0599-.1158l-8.0908-8.5847 6.9218-7.0362c.0287-.0344.0476-.076.055-.1203.0074-.0444.0025-.09-.0131-.132-.0164-.0419-.0435-.0787-.078-.1063-.0353-.0278-.0772-.0455-.1207-.0513h-4.652l-4.4952 4.8958-3.0562-3.5067c-.3801-.4353-.8472-.7841-1.3701-1.0234-.5229-.2394-1.0901-.364-1.664-.3657h-3.9326c-.2023 0-.2697.296-.1573.4099l7.2364 7.6511-7.7982 7.9698c-.0308.0318-.0517.0721-.0601.1158-.0085.0438-.004.0891.0127.1303.0168.0412.0451.0765.0814.1016.0365.0251.0793.0388.1233.0394h4.6521l5.3038-5.7155 3.8877 4.3492Zm-8.2918 7.8127c0 .9724 0 2.2191-.848 2.0446v.4986c1.3265.2992 1.4349-1.122 1.4349-2.4933v-1.0224h1.2617v3.5157h.587v-4.0642h-2.4356v1.521Zm4.9335.1089h-.9719v-1.6299h-.7051v4.0873h1.92c.1732.0305.3506.0203.5188-.0297.1691-.0499.3243-.1385.4548-.2589.1314-.1205.234-.2698.3013-.4369.0665-.1671.0968-.3476.087-.5282 0-1.1284-.9966-1.2037-1.6049-1.2037Zm0 1.981h-.9481v-1.4794h.8266c.3407 0 1.0459 0 1.0459.7021-.0247.2256-.0493.7773-.9482.7773h.0238ZM13.4289.00001627C10.8957-.0034364 8.39325.542538 6.10073 1.59881 3.80822 2.65508 1.78249 4.19547.168778 6.10956c-.419888.4983.000001.88828.640874.58497C3.15134 5.6119 5.71278 5.06376 8.30164 5.09131c3.48156 0 6.82056 1.35585 9.28256 3.76927 2.4618 2.41342 3.8449 5.68672 3.8449 9.09982 0 1.249-.251 2.4857-.7386 3.6397-.4875 1.1539-1.2022 2.2023-2.103 3.0855-.901.8832-1.9705 1.5838-3.1476 2.0617-1.1771.478-2.4387.724-3.7127.724-1.8171 0-3.5597-.7076-4.84448-1.9671-1.28479-1.2595-2.0066-2.9678-2.0066-4.749 0-1.1837.47965-2.3189 1.33338-3.1559.85382-.8369 2.01177-1.3072 3.21923-1.3072.37621-.0028.74927.0674 1.09777.2066.3485.1391.6653.3445.9324.6043s.4791.5689.6237.9094.2192.7057.2191 1.0746c.0001.2209-.0447.4396-.1316.6434-.0868.2038-.2142.3887-.3746.5439-.1604.1552-.3506.2776-.5596.3601-.209.0826-.4327.1237-.658.1208-.61879 0-.83978.3249-.3315.8449.2664.27.5859.484.9392.6293.3533.1452.7331.2186 1.1161.2156 1.2095-.0057 2.3674-.4807 3.2205-1.3211.8532-.8405 1.3322-1.9779 1.3322-3.1635 0-1.7813-.7218-3.4896-2.0067-4.7491-1.2848-1.2596-3.0274-1.9671-4.8443-1.9671-2.57142.0057-5.03575 1.0096-6.85395 2.792-1.8182 1.7825-2.84227 4.1983-2.848098 6.719.028813 3.4063 1.420398 6.6655 3.875448 9.0762 2.45505 2.4108 5.7773 3.7806 9.2521 3.8145 2.3024.0811 4.5979-.2935 6.7495-1.1013 2.1514-.8079 4.1149-2.0324 5.773-3.6006 1.6581-1.5681 2.9769-3.4477 3.8776-5.5266.9008-2.0788 1.365-4.3142 1.365-6.5728 0-2.2586-.4642-4.494-1.365-6.5728-.9007-2.07885-2.2195-3.95846-3.8776-5.5266-1.6581-1.56814-3.6216-2.79268-5.773-3.60052C18.0268.336846 15.7313-.0377187 13.4289.0433513V.00001627ZM51.7164 34.1603h1.318v3.6009h.6476v-3.6009H55v-.5036h-3.2836v.5036Z"/>
		<path d="m54.905 14.8629-2.473-2.5504H35.5437c-.065 0-.1274.0264-.1734.0734-.0459.0469-.0717.1106-.0717.1771v2.4593c-.0002.0318.0062.0634.0188.0927.0125.0292.031.0554.0541.0769.0231.0215.0504.0377.08.0477.0297.0101.0611.0135.0922.0104h6.684v9.3816c0 .5401.1045 1.075.3074 1.5738.2029.4988.5003.9516.8751 1.3325.3747.381.8195.6824 1.3087.887.489.2046 1.0129.3085 1.5415.3054h.9135c.059 0 .1158-.0239.1575-.0666.0418-.0427.0653-.1007.0653-.1611V15.25h7.4861c.0335-.0185.0618-.0453.0823-.0781.0204-.0327.0323-.0703.0346-.1092.002-.0388-.0053-.0775-.0219-.1125-.0165-.035-.0416-.0651-.0728-.0873ZM79.4685 28.719h10.5731c.6633.0461 1.3291-.0482 1.9562-.2772.6264-.229 1.2002-.5877 1.6861-1.054.486-.4662.8735-1.0299 1.1386-1.6562.2652-.6263.4015-1.3018.4015-1.9846 0-.6827-.1363-1.3583-.4015-1.9846-.2651-.6263-.6526-1.19-1.1386-1.6562-.4859-.4662-1.0597-.825-1.6861-1.054-.6271-.2289-1.2929-.3233-1.9562-.2772H80.621v-3.5271h9.1325l2.4602-2.5258c.0288-.0344.0468-.0759.0542-.1203.0074-.0443.0025-.0899-.0131-.1318-.0156-.0419-.0427-.0786-.0772-.1064-.0345-.0277-.0755-.0454-.119-.0511H75.7441c-.0607.0057-.1174.0346-.1584.0809-.0411.0463-.0632.1068-.0632.1694v12.0603c0 1.0785.4145 2.1134 1.1525 2.8803.7388.7668 1.7428 1.2036 2.7935 1.2156Zm1.1525-7.0313h7.1377c.495.0535.9539.2936 1.288.6739.3333.3802.518.8737.518 1.3854 0 .5117-.1847 1.0052-.518 1.3855-.3341.3802-.793.6203-1.288.6739h-6.0073c-.1502 0-.2996-.0308-.4375-.0905-.1388-.0597-.2643-.1473-.3702-.2574-.1051-.1103-.188-.2409-.243-.3843-.0558-.1435-.0829-.2968-.0797-.4511v-2.9354ZM57.2288 33.6641c-.4104-.0371-.8225.0509-1.1821.2526-.3595.2017-.6493.5078-.8332.878-.183.3702-.2507.7874-.1937 1.1968.0566.4094.2356.7921.513 1.0978.2775.3058.6395.5204 1.0409.6157.4006.0953.8209.0668 1.2051-.0815.385-.1484.7158-.4099.9498-.7502.2331-.3403.3595-.7436.3612-1.157.0336-.2618.0098-.5277-.069-.7793-.0796-.2518-.2118-.4832-.3891-.6784-.1765-.1952-.394-.3494-.6362-.4521-.2421-.1026-.504-.1512-.7667-.1424Zm0 3.6202c-.2758 0-1.1492 0-1.1492-1.5911 0-1.591.8734-1.5679 1.1492-1.5679.2758 0 1.1714 0 1.1714 1.5679 0 1.568-.8726 1.5911-1.1714 1.5911Zm16.6519-3.1249h1.3183v3.6009h.6469v-3.6009h1.3184v-.5036h-3.2836v.5036Zm27.5743 2.5312V34.93c0-1.1121-.821-1.2742-1.369-1.2742-1.2205 0-1.4734.7645-1.4734 1.2742h.5689c0-.7878.6945-.8109.9045-.8109.758 0 .779.6024.779.7645 0 .1622-.168.4865-.674.5328-1.3888.139-1.6835.5329-1.6835 1.2047 0 .6718.4844 1.1352 1.2002 1.1352.2331.0195.4673-.0331.6753-.1518.209-.1186.383-.2987.503-.52 0 .4865.294.556.632.556h.273v-.4634c-.336-.0232-.358-.1853-.336-.4865Zm-.59-.7182c0 1.0657-.589 1.3205-1.0736 1.3205-.0854.0066-.1707-.0066-.2512-.039-.0804-.0322-.1543-.0828-.2159-.1484-.0615-.0655-.11-.1445-.142-.2321-.0312-.0874-.0468-.1812-.0435-.2754 0-.6256.4425-.6487.9892-.7414.548-.0927.569 0 .758-.1853l-.021.3011Zm-4.7561-1.7391c-.275-.0217-.5484.0478-.7807.1978-.2315.1499-.4088.3722-.504.6331 0-.8917.4219-1.2363.903-1.3579.4818-.1215 1.6253 0 1.6656-.8714h-.4819c0 .304-.3407.1418-1.224.3445-.8824.2027-1.2838.5877-1.2838 2.3306 0 .6485 0 2.2496 1.645 2.2496.2241.0066.4466-.0348.6535-.1214.2068-.0866.394-.2166.5475-.3812.1535-.1647.2709-.3604.344-.5742.073-.2138.1009-.4408.0804-.6661.0287-.224.0099-.4515-.0558-.6673-.0657-.2158-.1765-.415-.3251-.584-.1477-.169-.3308-.3039-.5344-.3957-.2044-.0918-.426-.1383-.6493-.1364Zm0 3.1209c-.8628 0-1.0434-.7903-1.0434-1.297 0-.5066.1199-1.4186 1.0434-1.4186.9227 0 1.0228.912 1.0228 1.4389s-.4211 1.3376-1.0836 1.3376l.0608-.0609Zm11.9361-1.7847 1.858-1.9137h-.821l-1.689 1.7878v-1.7878h-.677v4.1045h.677v-2.0397l1.786 2.0397H110l-1.955-2.1908Zm-2.84-.2266h-1.926v-1.6871h-.667v4.1045h.667v-1.9138h1.926v1.9138h.691v-4.1045h-.691v1.6871Zm-13.6751 1.662-1.21-3.3491h-.8422v4.1045h.605v-3.2987l1.21 3.2987h.4745l1.1886-3.2987h.0214l-.0214.2266v3.0721h.6264v-4.1045h-.8423l-1.21 3.3491Zm-20.9328-2.8455h1.3184v3.6009h.6468v-3.6009h1.3184v-.5036h-3.2836v.5036Zm15.2481 2.7699v-3.2735h-.472v4.1045h.5402l1.4333-3.2735v3.2735h.4892v-4.1045h-.5402l-1.4505 3.2735Zm-7.3708 0v-3.2735h-.4892v4.1045h.5401l1.4333-3.2735v3.2735h.4892v-4.1045h-.5401l-1.4333 3.2735Zm-11.055-1.9863c-.0098.2988.0624.5915.2011.8166.1388.2251.3333.3652.5435.3908l-.8505 1.6099h.5492l.7618-1.6099h.6559v1.6099h.4958v-4.1001h-1.4349c-.1223-.0148-.2455.0079-.3604.0668-.1157.0588-.2208.1523-.3078.2741-.0879.1219-.156.2691-.1995.4317-.0435.1626-.0616.3366-.0542.5102Zm1.9135-.7797v1.4841h-.7084c-.5673 0-.6912-.4025-.6912-.7295 0-.7546.4786-.7546.6739-.7546h.7257Zm15.1143-.5075h-.6526l-.8841 1.5108-.8841-1.5108h-.6731l1.2207 1.9641-1.3053 2.1404h.6526l.9892-1.6871.9679 1.6871h.6739l-1.3052-2.1404 1.2001-1.9641Z"/>
	</g>
</svg>