<svg xmlns="http://www.w3.org/2000/svg" viewBox="0 0 160 28">
	<path fill="#FFDD2D" d="M0 0h27.3659v13.9367c0 3.5738-1.9039 6.8686-4.9995 8.6623l-8.6835 5.115-8.67419-5.115C1.91314 20.8187.0132855 17.5105.0132855 13.9367V0H0Z"/>
	<path fill="#333" d="M7.36768 7.33594V11.667c.59786-.6642 1.67399-1.116 2.89632-1.116h1.3418v5.0353c0 1.3418-.3587 2.511-.9034 3.162h5.9592c-.5447-.651-.8736-1.8202-.8736-3.162V10.551h1.3051c1.2356 0 2.3204.4518 2.905 1.116V7.33594H7.36768Z"/>
	<g fill="#fff">
		<path d="M152.618 6.71484h-3.158V7.882c-4.424.09525-7.368 1.96877-7.368 5.2751 0 3.3062 2.944 5.0346 7.368 5.1297v1.1673h3.158v-1.1673c4.448-.0951 7.382-1.8235 7.382-5.1297 0-3.30633-2.934-5.17985-7.382-5.2751V6.71484Zm-3.158 9.09236c-2.429-.0953-3.8-1.0921-3.8-2.6501s1.366-2.6751 3.8-2.7703v5.4204Zm3.158-5.4204c2.454.0952 3.786 1.2173 3.786 2.7703 0 1.5529-1.332 2.5548-3.786 2.6501v-5.4204ZM133.672 6.71484h-3.158V7.882c-4.424.09525-7.368 1.96877-7.368 5.2751 0 3.3062 2.944 5.0346 7.368 5.1297v1.1673h3.158v-1.1673c4.448-.0951 7.382-1.8235 7.382-5.1297 0-3.30633-2.934-5.17985-7.382-5.2751V6.71484Zm-3.158 9.09236c-2.429-.0953-3.799-1.0921-3.799-2.6501s1.365-2.6751 3.799-2.7703v5.4204Zm3.158-5.4204c2.454.0952 3.786 1.2173 3.786 2.7703 0 1.5529-1.332 2.5548-3.786 2.6501v-5.4204ZM114.542 7.05469c-4.738 0-7.584 2.67512-7.584 6.12661 0 3.4516 2.846 6.1267 7.584 6.1267 4.739 0 7.559-2.6751 7.559-6.1267 0-3.45149-2.845-6.12661-7.559-6.12661Zm0 9.43291c-2.36 0-3.867-1.4077-3.867-3.3063 0-1.8986 1.507-3.28119 3.867-3.28119 2.36 0 3.867 1.38769 3.867 3.28119 0 1.8936-1.532 3.3063-3.867 3.3063Z"/>
		<path d="m98.1694 14.5696 4.2076 4.3783h4.694l-5.861-6.0265 5.64-5.54054h-4.423l-4.2527 4.35324h-.9718V7.38086h-3.5267V18.953h3.5267v-4.3784h.9718l-.0049-.005ZM87.1362 18.945c.8015 0 1.5329-.0751 2.2142-.2654 1.8236-.511 3.0158-1.9938 3.0158-4.0127 0-2.0189-1.0219-3.2562-2.65-3.8673-.7766-.2906-1.7033-.3157-2.5749-.3157h-3.6219V7.37305h-3.5267V18.945h7.1486-.0051Zm-.6061-5.7359c.4859 0 .9468 0 1.3626.1453.5811.1953.9218.6813.9218 1.2624s-.3407 1.1172-.9018 1.3626c-.3907.1703-.7765.1703-1.3876.1703h-3.0157v-2.9406H86.5301ZM74.3618 14.6458v4.3031h3.5259V7.37695h-3.5259v4.57915h-5.5777V7.37695h-3.5268V18.9489h3.5268v-4.3031h5.5777ZM54.0482 14.1059V7.37305h-3.5267V18.945h3.1109l5.9935-6.7327v6.7327h3.526V7.37305h-3.1155l-5.9882 6.73285ZM44.5222 18.9474v-8.4207h4.9469V7.36914h-13.683v3.15756h4.9469v8.4207h3.7892Z"/>
	</g>
</svg>