<svg xmlns="http://www.w3.org/2000/svg" viewBox="0 0 92 38">
	<g fill="#fff">
		<path d="M57.8732 14.7521v12.1506h-3.7205V14.7521h-3.9305v-2.8538h11.5816v2.8451l-3.9306.0087Zm23.2946-1.4969c1.2439-1.0005 2.7811-1.5662 4.377-1.6108 4.2982 0 6.3379 3.0289 6.3379 7.3709 0 5.4888-3.0814 8.2901-7.5372 8.2901s-6.8019-2.8013-6.8019-9.2618c0-5.375 1.2168-9.07792 3.0814-10.79372 2.136-1.97842 2.8013-1.92589 5.305-2.57369 1.5407-.39394 3.0289-.63905 3.6066-.87541l1.3569 3.08143c-.7353.4377-2.1097.7616-4.8497 1.31311-3.169.62154-4.5959 1.75081-4.9198 5.03358l.0438.0263Zm3.3965 11.0301c2.4599 0 3.3791-1.9959 3.3791-4.8498 0-2.5737-.7616-4.6834-3.239-4.6834-1.124-.0673-2.234.2748-3.1252.963-.1182 1.1631-.1567 2.3332-.1138 3.5016-.0525 3.0727.9454 5.0686 3.0989 5.0686Zm-11.993 2.6262-5.0073-7.0033v7.0033h-3.7643V11.8983h3.7643v6.5743l4.4558-6.5743h4.1406l-4.8497 6.8019 5.6989 8.2288h-4.377l-.0613-.0175Z"/>
		<path d="M9.05248 11.9493H26.0782c-.0069-3.17161-1.2717-6.21086-3.5168-8.45103C20.3163 1.25809 17.2743-.00000877 14.1027 0H4.27188C5.28617 4.19041 6.89551 8.21391 9.0508 11.9479H0c2.06132 6.0455 5.4817 11.5376 9.9981 16.054 4.5164 4.5164 10.0085 7.9368 16.054 9.9981v-9.0517c-7.0711-4.0621-12.9373-9.9281-16.99962-16.999ZM25.982 0c.6501 2.94508 2.1286 5.64294 4.2613 7.77553 2.1326 2.13266 4.8304 3.61117 7.7755 4.26127V0H25.982Zm12.0369 33.7018V23.871c-.0011-1.5669-.3109-3.1183-.9116-4.5655s-1.4805-2.7619-2.5893-3.869c-1.1088-1.1072-2.4248-1.9851-3.8729-2.5837-1.448-.5986-2.9998-.906-4.5667-.9049V28.887c3.7344 2.1576 7.754 3.7784 11.9405 4.8148Z"/>
	</g>
</svg>