<svg xmlns="http://www.w3.org/2000/svg" viewBox="0 0 170 24">
	<path fill="#A38959" d="M39.6481 19.0057 22.2121 1.66125 4.67324 19.0114H3.52343L22.2007.5 40.815 19.0057h-1.1669ZM22.1443 3.13123l.2746.26314L38.3103 19.0112h-1.0812L22.1558 4.20667 7.14528 19.0112H6.07555L21.8754 3.40009l.2689-.26886ZM44.4707 22.7127l-1.9849-2.0136H2.03648L0 22.7298l44.4707-.0171Zm-28.2589-3.7586v-.0114c-.2173-.4633-.2802-.715-.2802-1.3329V14.189l.5491.0286c.2803.019.6867.5981 1.0196 1.0724l.0001.0001c.068.0968.1329.1893.1931.2718l.1029-.0343-.2746-1.5388h-4.1759l-.2689 1.5388.0973.0343c.0435-.0606.0899-.1265.1386-.1957.3424-.486.7951-1.1286 1.0856-1.1486l.5491-.0286v3.4208c0 .6179-.0686.8696-.286 1.3329v.0114h1.5502Zm9.5587-2.8546-.2402 2.0136c-.3147.2403-1.6075.8466-3.0776.8466-2.6028 0-4.1988-1.8992-4.1988-4.3189 0-2.4198 1.7733-4.2961 4.4448-4.2961 1.1441 0 2.2081.3147 2.7801.5549l.2517 1.842-.1373.0343c-.9038-1.4816-1.6761-2.0823-2.9975-2.0823-2.2595 0-3.2664 1.6876-3.2664 3.9472 0 2.2595.9839 3.97 3.1348 3.97 1.6418 0 2.4999-.984 3.1806-2.5456l.1258.0343Zm2.0594 2.8604c1.4385 0 2.1137-.6721 2.1166-1.5446v.0058-.0115.0057c-.0024-.7353-.4731-1.3271-2.0021-1.3271h-.5721v-1.9107l1.0068.0516c.2231.0123.5507.3918.8491.7374.1147.1329.2251.2608.3236.3609l.103-.0343-.2631-1.3043h-3.2778v.0114c.2173.4634.286.7208.286 1.3386v2.271c0 .6236-.0687.8753-.286 1.3386v.0115h1.716Zm-.4576-2.6601h.3661c.7323 0 1.1956.3204 1.1956 1.1213 0 .6635-.3203 1.3157-1.2013 1.3157-.0972 0-.2174 0-.3604-.0115v-2.4255Z"/>
	<path fill="#fff" d="M143.116 5.56117c-.379.06453-.738.11099-1.081.15537-.346.04478-.676.08744-.993.14441-.932.16205-1.523.44564-1.888 1.15864-.283.56716-.462 1.345-.567 2.45502h.065c.583-.84264 1.62-1.4098 2.917-1.4098 2.074 0 3.484 1.60427 3.484 3.92959 0 2.3254-1.24 4.2456-3.914 4.2456-2.406 0-3.945-1.742-3.945-4.7236 0-3.96205 1.952-6.43327 6.66-7.37314.461-.09723.68-.26738.842-.51045h.146c-.081 1.17484-.494 1.77441-1.709 1.92025l-.017.00811Zm-4.61 6.27933c0 2.3578.891 3.9782 2.633 3.9782 1.54 0 2.601-1.3774 2.601-3.5812s-1.191-3.31385-2.77-3.31385c-1.143 0-2.01.54286-2.407 1.14245-.033.478-.049.9966-.049 1.7744h-.008ZM55.4489 16.005v-.0324c-.5185-.8102-.6319-1.2559-.6319-2.3497V4.82379l2.0579.06482c.5038.02799 1.2736 1.2163 1.9126 2.20269.1008.15574.1985.30645.2913.44676l.1863-.06481-.6319-3.07078h-8.9531l-.632 3.07078.1864.06481c.0732-.11066.1497-.22779.2288-.34875.6562-1.00381 1.485-2.27178 1.9912-2.3007l2.0418-.06482v8.79911c0 1.0857-.1053 1.5395-.632 2.3497v.0324h2.5846Zm4.8285 3.5649v.0325H62.2868v-.0325c-.3647-.7454-.3971-1.4422-.3971-2.617v-1.191c.4862.2754 1.1344.4779 2.0094.4779 2.7626 0 4.0919-1.9202 4.0919-4.2942 0-2.37397-1.3611-3.97825-3.3465-3.97825-1.1586 0-2.1471.53476-2.7143 1.3774l-.1134-.0162v-1.4422l-1.8716.85884v.0324c.3808.31605.7292.80214.7292 1.62861v6.5629c0 1.191-.0649 1.8554-.397 2.6008Zm6.393-7.365c0 2.2363-1.0941 3.5813-2.6173 3.5813-.8913 0-1.742-.4457-2.1715-1.4747V9.87141c.3646-.51856 1.1425-1.06135 2.1715-1.06135 1.4908 0 2.6173 1.15862 2.6173 3.39484Zm4.3112 4.0431c-1.1261 0-1.9043-.6158-1.9043-1.6367 0-1.8716 2.5364-2.7224 4.3915-2.9655v-1.2639c0-.9804-.3486-1.62046-1.6613-1.62046-.8425 0-1.6605.26737-2.2847.72916l-.1454-.162c.6806-.79404 1.7416-1.3612 3.0463-1.3612 1.7907 0 2.2522.99661 2.2522 2.1228v4.5616c0 .4457.1866.7454.6646.7454.332 0 .5836-.162.8266-.4294l.1295.1135c-.2025.478-.648 1.11-1.5397 1.11-.826 0-1.223-.5429-1.2556-1.1587-.5431.632-1.4421 1.2073-2.5197 1.2073v.0081Zm-.7291-1.9689c0 .6968.4615 1.1749 1.3286 1.1749.8101 0 1.5072-.397 1.8877-.8265v-2.5846c-1.5882.2674-3.2163.9317-3.2163 2.2362Zm8.8062-2.4873V10.86c0-1.19105.0166-1.85541.3811-2.61705v-.0324h-1.9853v.0324c.3161.76164.3971 1.4098.3971 2.60085v2.5361c0 1.191-.081 1.8553-.3971 2.6008v.0324h1.9853v-.0324c-.3645-.7455-.3811-1.426-.3811-2.617v-1.1263h3.76v1.1425c0 1.1424-.065 1.8553-.397 2.6008v.0324h1.9846v-.0324c-.3645-.7455-.3805-1.4098-.3805-2.617V10.86c0-1.20725.016-1.85541.3805-2.61705v-.0324h-1.9846v.0324c.332.76164.397 1.4584.397 2.60085v.948h-3.76Zm13.426 2.2851.1786.1135c-.4621 1.1424-1.5722 2.0579-3.1843 2.0579-2.1227 0-3.5649-1.5556-3.5649-3.9458 0-2.63323 1.9687-4.32667 4.1564-4.32667 1.0777 0 1.7901.29978 2.1872.49425l.1865 1.77442-.162.0486c-.5995-1.01278-1.4096-1.87162-2.5038-1.87162-1.5557 0-2.6167 1.26399-2.6167 3.36242 0 2.0986 1.0776 3.4274 2.9002 3.4274.9156 0 1.8558-.3485 2.4228-1.1263v-.0081Zm8.0213.1135-.178-.1135v.0081c-.5675.7778-1.507 1.1263-2.4226 1.1263-1.8233 0-2.9009-1.3288-2.9009-3.4274 0-2.09843 1.0617-3.36242 2.6173-3.36242 1.0936 0 1.9043.85884 2.5042 1.87162l.162-.0486-.187-1.77442c-.397-.19447-1.1101-.49425-2.1877-.49425-2.1877 0-4.1564 1.69344-4.1564 4.32667 0 2.3902 1.4421 3.9458 3.5648 3.9458 1.6128 0 2.7233-.9155 3.1843-2.0579Zm2.853-5.50179c-.479.0324-.827.46185-1.71 1.75819l-.146-.0486.397-2.18765h6.433l.397 2.18765-.146.0486c-.891-1.29634-1.24-1.72579-1.709-1.75819l-1.159-.06481v4.7399c0 1.191.016 1.8716.381 2.6171v.0324h-1.977v-.0324c.332-.7455.397-1.4099.397-2.6009V8.6238l-1.158.06481Zm6.708 10.88129v.0325h2.009v-.0325c-.364-.7454-.397-1.4422-.397-2.617v-1.191c.486.2754 1.135.4779 2.01.4779 2.763 0 4.092-1.9202 4.092-4.2942 0-2.37397-1.362-3.97825-3.347-3.97825-1.159 0-2.147.53476-2.714 1.3774l-.114-.0162v-1.4422l-1.871.85884v.0324c.381.31605.729.80214.729 1.62861v6.5629c0 1.191-.065 1.8554-.397 2.6008Zm6.393-7.365c0 2.2363-1.094 3.5813-2.617 3.5813-.892 0-1.742-.4457-2.172-1.4747V9.87141c.365-.51856 1.143-1.06135 2.172-1.06135 1.491 0 2.617 1.15862 2.617 3.39484Zm6.7 4.0431c-2.269 0-4.141-1.8717-4.125-4.1403 0-2.25245 1.889-4.1403 4.125-4.1403 2.236 0 4.14 1.88785 4.14 4.1403 0 2.2524-1.871 4.1403-4.14 4.1403Zm0-.4619c1.839 0 2.771-1.6771 2.771-3.6784 0-2.0013-.948-3.67845-2.771-3.67845s-2.755 1.69335-2.755 3.67845c0 1.9851.916 3.6784 2.755 3.6784Zm7.187-.9966v-3.9297c0-1.19105.016-1.85541.382-2.61705v-.0324h-1.978v.0324c.316.76164.397 1.4098.397 2.60085v2.5361c0 1.191-.081 1.8553-.397 2.6008v.0324h1.361l4.06-6.57913v3.94593c0 1.1424-.065 1.8553-.397 2.6008v.0324h1.993v-.0324c-.381-.7455-.397-1.4098-.397-2.617v-2.5037c0-1.20725.016-1.85541.397-2.61705v-.0324h-1.378l-4.043 6.57915Zm3.096-10.05505c-.017.92367-.179 1.62047-1.127 1.62047-.939 0-1.109-.7049-1.126-1.62047h-1.061c.048 1.11002.681 2.02558 2.187 2.02558 1.507 0 2.139-.91556 2.204-2.02558h-1.077Zm12.696 9.87685c0 1.0209.778 1.6367 1.904 1.6367v-.0081c1.077 0 1.977-.5753 2.52-1.2073.032.6158.429 1.1587 1.256 1.1587.891 0 1.336-.632 1.539-1.11l-.13-.1135c-.243.2674-.494.4294-.826.4294-.478 0-.664-.2997-.664-.7454v-4.5616c0-1.12619-.462-2.1228-2.253-2.1228-1.304 0-2.366.56716-3.046 1.3612l.146.162c.623-.46179 1.442-.72916 2.284-.72916 1.313 0 1.662.64006 1.662 1.62046v1.2639c-1.856.2431-4.392 1.0939-4.392 2.9655Zm2.503.8427c-.866 0-1.328-.4781-1.328-1.1749 0-1.3045 1.629-1.9688 3.217-2.2362v2.5846c-.381.4295-1.078.8265-1.889.8265Zm7.479-4.594v.9318h3.759v-.948c0-1.14245-.064-1.83921-.397-2.60085v-.0324h1.985v.0324c-.364.76164-.381 1.4098-.381 2.61705v2.5037c0 1.2072.017 1.8715.381 2.617v.0324h-1.985v-.0324c.333-.7455.397-1.4584.397-2.6008v-1.1425h-3.759v1.1263c0 1.191.016 1.8715.381 2.617v.0324h-1.986v-.0324c.317-.7455.398-1.4098.398-2.6008v-2.5361c0-1.19105-.081-1.83921-.398-2.60085v-.0324h1.986v.0324c-.365.76164-.381 1.426-.381 2.61705Zm8.775 2.5037V10.86c0-1.19105.016-1.85541.381-2.61705v-.0324h-1.978v.0324c.316.76164.397 1.4098.397 2.60085v2.5361c0 1.191-.081 1.8553-.397 2.6008v.0324h1.978v-.0324c-.365-.7455-.381-1.426-.381-2.617Zm3.249 2.6494H170v-.0324c-.591-.316-.956-.7131-1.507-1.4746l-2.285-3.1195 1.329-1.52317c.713-.79404 1.158-1.23969 1.937-1.62048v-.0324h-2.107v.0324c.364.36458.243.93174-.219 1.4584l-1.985 2.23625 2.982 4.0755Z"/>
</svg>