<svg xmlns="http://www.w3.org/2000/svg" viewBox="0 0 107 38">
	<path fill="#fff" d="M62.2911 22.8392c0 7.8385-4.3881 8.8286-8.7752 8.8286-7.5093 0-9.1124-3.7955-9.1124-9.1586V7.24491h-2.7844V5.75975h10.5468v1.48516h-2.9531V22.0142c0 5.1981 1.35 7.8384 5.2313 7.8384 3.8815 0 5.8222-1.8978 5.8222-7.3434V7.24491h-2.7849V5.75975h7.5096v1.48516h-2.5316l-.1683 15.59429Zm7.3404 7.0134V7.24491h-2.9532V5.75975h11.6434c4.978 0 7.4254 2.72278 7.4254 5.94065 0 3.4654-3.2065 5.3632-5.9904 5.9408 5.4837.495 7.0028 3.9604 7.0028 6.5182 0 5.1981-4.5564 7.1783-8.9435 7.1783H66.51v-1.4851h3.1215Zm11.3909-17.8221c0-2.39285-1.2657-4.78559-4.0506-4.78559h-3.0373v9.81869h2.6998c3.0373 0 4.3881-2.3929 4.3881-5.0331Zm1.0125 12.2114c0-3.3829-1.5191-5.6932-4.978-5.6932h-2.9532v11.3864h2.4465c3.6281-.0825 5.4847-2.2278 5.4847-5.6932Zm16.453-17.32705c-2.7848 0-4.5563 1.56769-4.5563 4.37295 0 2.4754 2.7839 3.713 5.4837 4.6207 1.6037.5775 3.6277 1.3201 5.0627 2.5577 1.519 1.4027 2.363 3.3004 2.279 5.6932-.085 4.4555-3.291 7.5084-8.9449 7.5084-2.109 0-5.3996-.4951-7.3403-1.5677l-.2534-6.6833h1.6883c.1683 4.538 2.2773 6.8483 6.0746 6.8483 3.0377 0 4.7247-1.9802 4.7247-5.0331 0-2.6402-2.193-3.7129-5.5689-4.868-1.0965-.3301-3.2906-1.1552-4.8088-2.6404-1.3499-1.3201-2.0248-3.0529-2.0248-4.7856 0-5.198 3.7964-7.50831 8.5219-7.50831 1.8556 0 4.6406.66011 6.3276 1.56768l.169 5.85813h-1.688c-.253-4.12542-2.109-5.94065-5.1461-5.94065ZM28.7857 10.987l-.6753.5782.7597 2.3956-2.1947-1.1564-.7599.5782 2.4481 1.3218-2.6169 2.0652-.6753-.9088.9286-.7434-.6754-.8261-.9285.7435-.7597-.9914.9285-.7434-.6753-.9087-4.7273 3.8827 4.5585 3.552.8441-.9912c.5909 0 1.013.4956 1.2662.9912l-.8441.9914.5065.413c1.0975-.9912 2.6169-1.6522 4.1364-1.6522 3.2078 0 5.6558 2.561 5.6558 5.7 0 .9914-.2532 2.1478-.8441 3.0566l.8441.6608c0 .5784-.5909 1.2392-1.1818 1.4044l-.8441-.6608c-1.0975 1.0738-2.617 1.6521-4.1364 1.6521-3.2079 0-5.6559-2.4783-5.6559-5.6173 0-.9914.3377-2.0653.7598-2.974l-.5909-.413-.8442 1.0738c-.5909-.0826-1.0974-.4956-1.2662-1.0738l.8441-.9088-3.7987-3.139v4.9564h1.2662c.1689.2478.2533.4957.2533.7436 0 .2478-.0844.5782-.2533.826h-1.2662v.5782c2.7858.4958 5.1494 2.8088 5.1494 5.6174 0 2.8914-2.2792 5.2044-5.1494 5.7v.9914c-.2532.1652-.5909.2478-.9285.2478-.3377 0-.7598-.0826-1.013-.2478v-.9914c-2.8702-.413-5.065-2.8086-5.065-5.7 0-2.8086 2.1948-5.1216 5.065-5.5348v-.6608h-1.3506c-.1689-.2478-.2533-.4956-.2533-.826 0-.3305.0844-.5784.2533-.8262h1.3506v-4.9564l-3.8832 3.139.8442.9088c-.1688.5782-.6753.9912-1.2662 1.0738l-.8442-1.0738-.5065.4956c.5065.9087.8442 1.9.8442 2.974 0 3.139-2.53245 5.6173-5.65587 5.6173-1.51945 0-3.03891-.5783-4.13639-1.6521L1.1818 30.4C.675313 30.2348.0844143 29.574 0 28.9956l.844142-.6608C.337656 27.426 0 26.3522 0 25.2782c0-3.139 2.44802-5.7 5.65585-5.7 1.51946 0 3.03891.661 4.13639 1.6522l.50646-.3304-.84412-.9913c.16883-.4957.67532-.9087 1.26622-.9913l.8441.9913 4.5585-3.5521-4.7273-3.8826-.6753.9086.9286.7434-.6754.9088-.9285-.7435-.67534.8261.75974.5782-.67532.9088-2.53252-2.0652 2.36369-1.3218-.6754-.5782-2.19477 1.1564.67531-2.2304-.67531-.5782-.84415 2.5608-2.61684-2.0652.67532-.826.92855.7434.75973-.826-.92856-.82619.67532-.82604.92856.66083.67531-.82604-2.02594-1.48698c.16882-.66093.5909-1.15656 1.26621-1.56958l10.72081 8.5913V8.59135h-1.0974v1.07386H14.435V8.59135h-1.0974v1.07386h-1.0973V6.44344l2.5325 1.07395v-.90874l-2.3637-.99125 2.3637-.9087v-.8261l-2.5325.99132V1.56956h1.0973v1.15652h1.0974V1.56956h1.0975v1.15652h1.0974V.165219C16.9675.0826048 17.3052 0 17.6429 0c.3376 0 .6753.0826048.9285.165219V14.2913L29.2922 5.7c.5909.41302 1.013.90865 1.2662 1.56958l-2.0259 1.56958.6753.82605.9286-.66084.6753.82605-.9286.82618.6753.826.9286-.7434.6753.826-2.6168 2.0652-.7598-2.6434ZM6.92206 26.5174c0 .9086.67532 1.487 1.51946 1.5696l-1.35063.9912c-.92856-.3304-1.7727-1.4042-1.7727-2.3956 0-.3304.08442-.4956.16883-.7434h-.25325c-1.26621 0-2.27918-1.1566-2.53251-2.3132l1.43513-1.0738v.413c0 .7435.75973 1.4044 1.51946 1.4044.84414 0 1.60387-.6609 1.60387-1.487 0-.9913-.75973-1.6522-1.7727-1.6522-1.85711 0-3.71432 1.8174-3.71432 4.1304 0 .661.16883 1.3218.42207 1.9L3.039 26.6c.5909.2478 1.01298.826 1.1818 1.487l-.84414.6608c.84415.6609 1.85712.9914 2.87009.9914 2.19477 0 3.88315-1.7348 3.88315-3.2218 0-.9087-.5909-1.6522-1.51955-1.6522-1.01297.1652-1.68829.8261-1.68829 1.6522Zm11.48054 3.3044c0 .826.6753 1.4869 1.5194 1.4869.591 0 .8443-.2479 1.2663-.5783v1.7348c-.422.2478-.8442.3304-1.3507.3304-.9285 0-1.6883-.2478-2.1947-1.0738-.5065.826-1.3507 1.0738-2.2792 1.0738-.4221 0-.9287-.0826-1.3507-.3304v-1.7348c.422.413.6754.5783 1.2663.5783.8441 0 1.5194-.6609 1.5194-1.4869 0-.8262-.5065-1.487-1.435-1.487-1.604 0-2.2793 1.487-2.2793 2.8912 0 1.9827 1.5195 3.7174 3.4611 4.048v-.9914c.3376-.1652.6753-.1652.9285-.1652.3377 0 .6753 0 1.013.1652v.9914c1.8571-.248 3.4611-2.148 3.4611-4.048 0-1.4042-.5909-2.8912-2.2793-2.8912-.6753-.0826-1.2662.6608-1.2662 1.487Zm9.6234-6.8566c0 .7435.8441 1.487 1.6039 1.487.7597 0 1.5194-.6609 1.5194-1.4044v-.413L32.5 23.7087c-.2533 1.3217-1.4351 2.3957-2.7857 2.3131.0844.2478.0844.4956.0844.7434 0 .9914-.8442 2.0652-1.7727 2.3956l-1.2662-1.0738c.8441-.0826 1.5194-.661 1.5194-1.5696 0-.9087-.7597-1.487-1.6038-1.487-.9287 0-1.5196.7436-1.5196 1.6522 0 1.074 1.3507 3.2218 3.9676 3.2218 1.013 0 2.0259-.3304 2.7856-.9914l-.8441-.6608c.1688-.6609.5909-1.2392 1.1819-1.487l.8441.6608c.3377-.5782.5065-1.239.5065-1.9 0-1.8173-1.4351-4.1304-3.7143-4.1304-1.013 0-1.8571.5784-1.8571 1.5696Z"/>
</svg>