<svg xmlns="http://www.w3.org/2000/svg" viewBox="0 0 78 38">
	<path fill="#fff" d="M31.6764 10.9952 12.5099 16.151c-.685.1548-1.3392.5695-1.82 1.1979-.4812.6277-.71235 1.369-.71235 2.104v4.6822l-5.08921 1.348c-.29526.0791-.56632.2525-.76719.5147-.20088.2598-.29527.5671-.29527.8721v4.9815L8.9151 30.48c.07583-.0202.15005-.0468.22185-.0791.20773-.0944.39569-.2404.54494-.4332.20087-.259.29526-.5671.29526-.8721l.0004-4.9605 6.16055-1.6522v7.3323l-5.0711 1.3505c-.3013.0823-.578.2589-.7821.5244-.2041.2654-.3013.5792-.3013.8938v5.2009l5.0711-1.3625c.0714-.0202.1415-.0444.2097-.075.0367-.0162.073-.0339.1085-.0533.1759-.0944.3344-.2267.4639-.3961.2041-.2654.3013-.58.3013-.8906v-5.1921l6.1424-1.6554v7.2839l9.4173-2.5307c1.5856-.4243 2.8824-2.1007 2.8824-3.6891V13.0741c.0028-1.5876-1.2936-2.5396-2.9038-2.0789ZM3.04377 37.175 0 38.0011v-3.0212c0-.1348.0262185-.2735.0790589-.4034.0354961-.0879.0830921-.1718.1431931-.2493.149244-.1984.352942-.3291.571967-.3872l3.043771-.8293v3.0212c0 .2291-.07301.4606-.22185.6558-.14925.1953-.35335.326-.57237.3873Z"/>
	<path fill="#B9BABB" d="M12.4731 3.70756 25.9966.0885996c1.342-.3654456 2.4407.4332104 2.444 1.7772104V15.5309c0 1.3416-1.0988 2.7437-2.4412 3.1067l-3.7133.9963v-6.1182l-6.1485 1.6522V8.98192L9.99242 10.6252V7.03368c0-.73815.23118-1.47872.71238-2.10635.4626-.60666 1.0894-1.01244 1.7683-1.21332v-.00645ZM4.77857 17.2379l4.12437-1.1221c.29809-.0823.57197-.2558.77607-.5212.08914-.1161.15731-.2404.20572-.3695.06252-.1669.09237-.3412.09237-.5146v-4.0853l-4.12397 1.1125c-.12182.0339-.2396.0823-.35012.1468-.16014.0936-.30535.2194-.42595.3776-.20128.2654-.29849.5768-.29849.8873v4.0885ZM.00317383 23.3537 3.04694 22.5276c.21903-.0613.42313-.192.57237-.3872.08471-.1105.14481-.2332.18071-.3606.02743-.0968.04114-.1961.04114-.2953v-3.0212l-3.043767.8293c-.219026.0581-.422723.1888-.571967.3873-.1492437.192-.22225217.4235-.22225217.6526v3.0212Z"/>
	<path fill="#fff" d="M75.427 9.96924c.7579.38726 1.4126.91806 1.8111 1.67396.265.5002.4138 1.0979.4171 1.7901.0028 1.3134-.5175 2.4202-1.4582 3.1672-.315.2509-.6736.4623-1.0721.6325-.2392.1024-.4925.1896-.7595.2614-.2929.079-.6019.1395-.9262.1823-.359.0468-.7369.0702-1.1318.0702-1.254 0-2.3104-.2283-3.1442-.5825-.8341-.3533-1.446-.8293-1.8171-1.3383-.1775-.2461-.3018-.4994-.357-.7551-.0214-.0993-.0327-.1993-.0327-.2993 0-.1953.0516-.3752.1279-.5309.0762-.1589.1762-.2928.2831-.4082.1404-.1492.286-.2654.4207-.3493.0452-.0282.0892-.0532.1315-.075.0279-.0137.0549-.0258.0807-.0363.0549-.0218.1037-.0395.192-.0428.0274 0 .0609 0 .1065.0154.0456.0153.1065.0516.1488.1097l.0033.0064c.7244 1.0544 2.0789 1.945 3.8351 1.945.3691 0 .7007-.0306.9931-.0895.2432-.0484.4594-.1162.6474-.2001.4139-.1863.691-.4421.8523-.7688.1097-.2194.1674-.4727.1674-.768 0-.3356-.0823-.576-.2251-.7833-.1432-.2073-.3594-.3816-.6425-.5341-.5659-.3049-1.3969-.5001-2.2919-.7074l-.2364-.0565-.2057-.05-.2408-.0622c-.1089-.029-.2174-.0588-.3255-.0911-.0864-.025-.1723-.0516-.2578-.0791-.3654-.1178-.7224-.2549-1.0592-.4227-.7184-.3598-1.3573-.86884-1.7441-1.62796-.2586-.50663-.4018-1.11328-.4018-1.83288-.0028-1.22864.5389-2.30158 1.4549-3.04215.9165-.7438 2.1947-1.16491 3.6864-1.16491 1.1596 0 2.1273.2041 2.8912.52114.764.31705 1.3211.7438 1.6619 1.20444.2255.30817.3562.63409.3562.95758 0 .33479-.14.61876-.3074.83496-.1706.21701-.3743.37513-.5449.48161-.1186.07342-.213.1194-.3106.14683l-.0222.00484c-.023.00484-.0472.01048-.0839.01048-.0149 0-.0315-.0008-.0516-.00484l-.046-.01048c-.0218-.00646-.0512-.01936-.0819-.04115-.0117-.00806-.0234-.01774-.0347-.02904-.0121-.0121-.0242-.02662-.0355-.04275-.6546-.94226-1.9087-1.69251-3.3757-1.69251-.8003 0-1.4396.19523-1.8627.50985-.4232.31704-.6454.73412-.6482 1.27704 0 .32915.0697.56068.1887.74703.1186.18554.2981.3356.551.46951.4667.25009 1.1778.41466 2.0338.6123l.1972.04599c.263.06131.5268.12665.7878.20006.3041.08471.6042.1791.895.2872.2812.10407.5534.22104.8128.35415Zm-9.9747 3.60766c-.048-.0363-.0956-.0678-.1416-.096-.044-.0274-.0863-.0508-.1263-.0718-.0423-.0218-.0818-.0395-.1246-.0516-.0427-.0129-.0823-.0275-.1521-.0275-.0274 0-.0641.0025-.1097.0178-.0218.0081-.0472.0202-.073.0387-.025.0178-.0504.0412-.073.071l-.0032.0065c-.6999 1.0213-2.0055 1.7586-3.7255 1.7893l-.0121-.0121h-.1125c-1.2815 0-2.3742-.4937-3.1563-1.3384-.7825-.8446-1.2541-2.0458-1.2541-3.4753 0-1.44246.4595-2.659 1.2267-3.51251.77-.85352 1.8474-1.35369 3.1381-1.35369l.2219.00323c1.7441-.00323 3.1534.71314 3.7895 1.64007.0517.07018.1098.09761.1493.10971.0395.0121.0698.01533.0972.01533.0488 0 .0762-.00887.1037-.01533.1004-.02743.1916-.07341.3101-.14601.1707-.1073.3748-.26542.545-.48162.1674-.21701.3074-.50017.3074-.83576-.0029-.3477-.1735-.67362-.4413-.98178-.4046-.45984-1.0532-.8874-1.8902-1.20686-.837-.32027-1.8659-.53083-3.0284-.53083h-.1856c-2.091-.00322-3.8872.75913-5.1473 2.06441-1.2629 1.30447-1.9934 3.14622-1.9934 5.27434 0 2.1185.7212 3.9449 1.9753 5.2373 1.254 1.2931 3.0317 2.0426 5.1013 2.0402h.1218c1.6711 0 2.9889-.4058 3.9021-.9729.2126-.1323.4034-.2735.5716-.4212.1932-.1686.3562-.346.4877-.5267.2464-.3389.3864-.6987.3896-1.0552 0-.0613-.0052-.121-.0145-.1783-.0097-.0613-.0242-.1202-.0428-.1775l-.0181-.0532-.0218-.0533-.0218-.0492c-.0133-.0282-.0274-.0565-.0423-.0831-.1372-.2622-.3409-.4574-.5268-.6002ZM52.2825 4.0608c-.0698-.23476-.2101-.43886-.411-.56713-.2009-.12827-.4413-.1799-.6998-.1799h-.3348c-.1186 0-.2332.00968-.3425.03389l-.046.01129c-.0347.00887-.0685.01855-.1016.03066-.0609.02016-.1194.04679-.1747.07825-.0766.04356-.1472.09761-.2093.15973-.0613.06131-.1146.13069-.1577.20733-.0375.06615-.0682.13633-.0924.21055-.0524.16135-.075.33963-.075.53325v7.03708c0 1.2802-.2679 2.1886-.7579 2.7654-.0456.0533-.0932.1049-.1432.1533-.0561.0548-.115.1057-.1767.1541-.1799.1411-.384.2557-.6147.3444-.1598.0614-.3328.1114-.5204.1485-.0956.0185-.1948.0339-.2976.046-.1771.0209-.3651.0314-.5639.0314-.5297 0-.983-.079-1.3634-.2291-.5691-.2251-.9802-.6002-1.2694-1.1584-.2892-.5543-.4413-1.3013-.4413-2.2347V4.57872l-.0012-.06293-.0024-.06212-.004-.05647-.0053-.05243c-.0117-.09762-.031-.1912-.0601-.27832-.0363-.11617-.0907-.22589-.1613-.32189l-.0432-.05485c-.0193-.02259-.0395-.04357-.0609-.06454-.0488-.04679-.1024-.08874-.1609-.12504-.2037-.12827-.4502-.18313-.7212-.18313h-.2925c-.1734 0-.3348.0242-.4868.07906-.2251.07906-.4171.23798-.5385.44854-.1218.20975-.1767.4566-.1767.73734v7.11936c0 1.9232.4869 3.4415 1.4763 4.4749.3009.3146.6474.5832 1.035.8027.0464.0266.0932.0524.1408.0766l.1025.0524c.1052.0525.2129.1017.3235.1469.0738.0298.1484.0588.2242.0863.7184.2565 1.5433.384 2.4658.384.9221 0 1.7498-.1307 2.4714-.3929 1.0834-.3905 1.9325-1.0883 2.4928-2.0491.563-.9632.8402-2.1797.8402-3.6246V4.57872c.0008-.04679.0004-.09278-.0017-.13795l-.004-.05809-.0073-.07664c-.0104-.08551-.027-.16699-.0512-.24524Zm-8.5924 16.7137h-.0944c-.0976 0-.1827.0274-.2436.0887-.0609.0638-.0851.1525-.0851.2558v1.9603c0 .3566-.073.6131-.2134.7745-.0855.0984-.1956.1686-.3376.2081-.0609.0177-.1279.029-.2013.0347l-.0504.0024-.0617.0016c-.1339 0-.2493-.0177-.3489-.0516-.1218-.0412-.2195-.1081-.2965-.1985-.14-.1645-.2162-.4171-.2162-.7647V21.119c0-.0339-.0028-.0662-.0085-.096-.0117-.0605-.0363-.1146-.0766-.1574-.0609-.0637-.1493-.0911-.2497-.0911h-.0823c-.0504 0-.0984.0081-.1412.025-.0375.0145-.0709.0363-.0992.0661-.0609.0646-.0851.1525-.0851.2534v1.9845c0 .1904.0174.3663.052.5268.063.2896.1828.5308.359.7172.2739.2872.6785.43 1.19.43.5114 0 .9192-.1461 1.1963-.4357.1388-.1452.2429-.3243.3118-.5348.0351-.1081.0613-.2235.0783-.3477.0157-.1162.0238-.2388.0238-.3679V21.119c0-.0484-.0049-.0944-.0162-.1356-.0129-.046-.0338-.0863-.0661-.1202-.0549-.0613-.14-.0887-.2372-.0887Zm4.0603 0h.0697c.0944 0 .1795.0306.2376.1008.0577.0638.0791.1525.0791.2525v3.2019c0 .1154-.0307.2162-.0912.2921-.0641.0734-.1585.1161-.2618.1161h-.046c-.0972 0-.1702-.0153-.2311-.0548-.0609-.0363-.1004-.0912-.146-.1557l-1.8264-2.588v2.4541c0 .0532-.0065.1024-.0214.1468l-.0097.025-.0149.0306c-.0101.0186-.0222.0355-.0363.0509-.025.0258-.0545.0459-.0875.0605-.0472.0209-.1013.0306-.159.0306h-.0637c-.0976 0-.1827-.0274-.2404-.0944-.0548-.0669-.0762-.1524-.0762-.2533v-3.2011c0-.1129.0274-.2137.0883-.2896.0609-.0758.1581-.1186.2678-.1186h.1005l.0556.0025c.0267.0032.0521.008.0763.0145.0423.0121.0802.0298.1145.0532.0141.0097.0275.0194.04.0307.0165.0145.0322.0306.0476.0484l.0439.0532.0392.0533 1.7288 2.454v-2.3685c0-.1009.0213-.1888.079-.2533.0335-.0387.0775-.0646.1275-.0791.0359-.0105.0754-.0153.1162-.0153Zm1.6679 0h-.0823c-.0972 0-.1828.0274-.2437.0911-.0242.0259-.0427.0549-.056.0872-.0202.0492-.0291.1057-.0291.1662v3.2656c0 .1.0242.1887.0851.2525.0363.0387.0815.0637.1327.0774.0347.0097.0718.0145.111.0145h.0823c.0342 0 .0673-.0032.0984-.0104l.0246-.0065.0331-.0129c.0342-.0145.0645-.0347.0903-.0621.025-.0258.044-.0565.0573-.0904.0193-.0484.0278-.1032.0278-.1621v-3.2624c0-.1009-.0242-.1888-.0851-.2533-.0609-.067-.1492-.0944-.2464-.0944Zm1.1959.0242h2.6602c.0544 0 .1049.0073.1492.0218.0384.0129.0722.0322.1005.0573.0185.0177.0339.0379.0468.0588.0068.0113.0129.0234.0181.0363.0182.0444.0262.0936.0262.1461v.0274c0 .0492-.0072.096-.0234.1379-.0072.0186-.0161.0363-.027.0533-.0113.0177-.025.0339-.0407.0492-.0194.0185-.0416.0339-.0662.046-.0282.0145-.0597.0242-.0928.0306l-.0383.0057-.0246.0024-.0306.0008h-.956v2.909c0 .1033-.027.192-.0879.2558-.0343.0355-.0771.0597-.1259.0742-.0383.0113-.0798.0169-.1238.0169h-.0823c-.0972 0-.1827-.0274-.2436-.0911-.0609-.0638-.0851-.1525-.0851-.2533v-2.9083h-.9556c-.025 0-.0496-.0016-.0734-.0048-.0303-.004-.0589-.0113-.0859-.021-.0363-.0137-.069-.0331-.0964-.0597-.0359-.0322-.0609-.0742-.0763-.121-.0056-.0169-.0101-.0347-.0129-.0532l-.004-.0371-.0012-.0291v-.0274c0-.0976.0335-.1831.0972-.2412.0669-.0581.1553-.0823.2557-.0823Zm6.1029 3.235h-1.8627v-.9972h1.3968c.1037 0 .192-.0242.259-.0822.0637-.0581.0943-.1469.0943-.2413v-.0177c0-.0581-.0108-.1137-.0355-.1605-.0141-.0275-.0326-.0517-.056-.0718-.0638-.0549-.1521-.0759-.2586-.0759h-1.3972v-.9083h1.8264c.0795 0 .1517-.0146.2097-.0476.0178-.0097.0339-.021.0489-.0347.0145-.0129.0274-.0283.0387-.0444.0113-.0161.0205-.0339.0286-.0524l.0125-.0363c.0097-.0339.0145-.071.0145-.1081v-.0331l-.0024-.0444c-.004-.0411-.0141-.0807-.031-.1153-.0146-.0291-.0335-.0557-.0577-.0783-.0642-.0581-.1553-.0855-.259-.0855h-2.1789c-.113 0-.2134.0395-.2832.1162-.0367.0379-.0649.0855-.0839.1387-.0169.0484-.0258.1017-.0258.1565v3.0978c0 .1154.0367.2195.1097.2929.0698.0726.1702.1129.2832.1097h2.2124l.0561-.0024c.0298-.0033.0581-.0089.0847-.0178l.0298-.0113.0315-.0161c.0117-.0065.023-.0145.0335-.0226l.0201-.0185c.0642-.0606.0884-.1493.0884-.2437v-.0306c0-.0242-.002-.0484-.0061-.0718-.0056-.0323-.0157-.063-.0302-.0904-.0142-.0258-.0323-.0492-.0549-.0694-.0641-.0613-.1525-.0822-.2557-.0822Zm1.2903-3.235h.9165c.6514 0 1.181.1767 1.5461.5155.3654.3348.563.8261.563 1.4295 0 .1291-.0092.2533-.0274.3719l-.0113.067c-.0101.054-.0222.1073-.0363.1589-.0903.3364-.2601.6212-.5001.8414-.3715.3412-.9072.5244-1.5647.5244h-.8765c-.1093 0-.2069-.0428-.2787-.1122-.0762-.0742-.123-.1774-.123-.2904v-3.0978c0-.1186.0395-.2219.1125-.2953.073-.0734.1706-.1129.2799-.1129Zm.3413 3.2471h.557c.4473 0 .7914-.1219 1.0193-.3389.2315-.2194.3594-.5364.3594-.9567-.0032-.4115-.1311-.7317-.3622-.9488-.0839-.079-.1819-.146-.2941-.1984-.1972-.0936-.438-.1428-.7196-.1428h-.5598v2.5856Zm7.6852-.5268c-.0911-.0613-.1827-.0823-.2464-.0856l-.0335.0033-.0065.0024-.0165.0081c-.0105.0064-.0222.0169-.0319.0379-.1432.3751-.5356.6099-1.0197.6099-.7151-.0033-1.2326-.5462-1.2359-1.3481 0-.4017.1279-.7373.3441-.9721.2162-.2347.5175-.3686.8797-.3686.1888 0 .3768.0427.5438.1242.1887.092.3509.2339.4606.4211l.0274.0307.0517.0121c.058-.0033.1432-.0242.2343-.0856.0884-.0613.1706-.1645.1706-.317-.0004-.0282-.0048-.0573-.0125-.0871-.008-.0323-.0201-.0646-.0363-.0976-.0601-.1243-.175-.2533-.3376-.3703-.2497-.1767-.6179-.3138-1.102-.3138-.5812 0-1.0773.2105-1.4307.5727-.3497.3631-.5538.8721-.5538 1.4667 0 .3799.0835.726.2356 1.0197.0839.1621.1887.3081.3122.4348.1581.1637.3469.296.5602.3912.255.1146.545.1759.8584.1759.2682 0 .5026-.0428.7018-.1105.0541-.0186.1057-.0387.1545-.0605.117-.0517.219-.1122.3062-.1767.2618-.1952.3989-.4235.4017-.6002-.0012-.075-.0226-.1388-.0548-.1912-.0335-.0548-.0783-.0968-.1247-.1258Zm2.7457-2.5186 1.3484 3.4568.0061.025c-.0032.0484-.0274.0694-.0488.0968-.0105.0137-.0234.0258-.0379.0371-.015.0121-.0319.0226-.0504.0331-.0731.046-.1642.0798-.2679.0798-.0762.0033-.1613-.0185-.2376-.0701-.073-.0517-.1367-.134-.1823-.2533l-.3138-.8076h-1.4061l-.3134.814c-.0428.1129-.1005.1952-.1706.2469-.0198.0145-.0396.0266-.0597.0363-.0226.0113-.0456.0201-.0686.0258-.0335.008-.067.0113-.0996.0113-.1525 0-.2832-.0702-.3534-.1436-.0214-.0275-.0423-.0517-.0456-.1009l.0061-.033 1.3363-3.4544c.0274-.0702.0758-.1404.1553-.1799.0819-.0396.1823-.0581.3255-.0581l.0759.0008c.0258.0016.0504.004.073.0073.0238.0032.0459.0072.0669.0121l.0182.0048.0379.0113c.0194.0064.0371.0137.0536.0218.0795.0395.1279.1097.1525.1799Zm-.9894 1.9756h1.0043l-.4989-1.3206-.5054 1.3206Zm5.7559-.9761c0-.3872-.1311-.6978-.3868-.8995-.0924-.0742-.1997-.1339-.3211-.1807-.2137-.0815-.4723-.121-.7712-.121h-1.0685c-.1125 0-.213.0395-.2832.1162-.0697.0726-.1064.1766-.1064.2952v3.1438c0 .0484.0044.0936.0145.1347.0125.0517.0339.0985.0645.1396.0258.0331.0585.0581.096.0758.0432.0202.0928.0307.1444.0307h.0823c.1004 0 .1916-.0339.2497-.0976l.0105-.0121.0161-.0218.0182-.0323c.0274-.0532.0403-.1153.0403-.1807v-1.1496h.3074l1.0075 1.2384c.067.0879.1307.1516.2009.1944.044.0274.0916.0452.1416.0548.0331.0065.067.0097.1021.0097.1306 0 .2371-.0524.3073-.1097.0157-.0137.0299-.0274.0424-.0411l.0189-.0218c.0081-.0097.015-.0194.0206-.0291.0186-.0298.0339-.0605.0339-.0976l-.0214-.0573-1.0169-1.2108c.0581-.0089.1142-.0194.1682-.0323.088-.021.1707-.0476.2473-.0807.1295-.0565.2416-.1307.3336-.2226.2069-.2195.3102-.5026.3073-.835Zm-.7458.0274c0 .1888-.0577.3292-.1734.43-.1158.1009-.3013.1614-.5663.1614h-.718V21.436h.6998c.2678 0 .4566.0549.5784.1525.1158.0976.1767.2347.1795.4388Zm2.7146-1.2286c.6515 0 1.1811.1799 1.5465.5155.3683.3348.5631.8261.5631 1.4295s-.2041 1.098-.5752 1.4392c-.3715.3412-.9071.5244-1.5646.5244h-.8765c-.096 0-.1827-.0323-.2513-.0855-.0178-.0138-.0343-.0291-.0496-.046-.0355-.0404-.0634-.0863-.0811-.1372-.0149-.0419-.023-.0871-.023-.1339v-3.0978c0-.1186.0395-.2219.1125-.2953.0731-.0734.1735-.1129.28-.1129h.9192Zm-.5719 3.2471h.5538c.4473 0 .7886-.1219 1.0229-.3389.2311-.2194.359-.5364.359-.9567-.0032-.4115-.1311-.7317-.3622-.9488-.2311-.2194-.5724-.3412-1.0137-.3412h-.5598v2.5856Zm-31.7587 4.7838c-.2493-.1831-.572-.2807-.8947-.3566l-.0463-.0104c-.2413-.0573-.4429-.1041-.5777-.1759-.0318-.0178-.0597-.0363-.0839-.0557l-.0193-.0169-.0194-.0186c-.0234-.0242-.0415-.0508-.0556-.0822l-.0089-.0226c-.0053-.0146-.0097-.0299-.0129-.046-.0061-.0299-.0093-.0638-.0101-.1025 0-.1524.0641-.271.1827-.3598.1186-.0879.2985-.1428.5236-.1428.411 0 .7607.2098.9467.4752l.0213.0307h.0396l.0484-.0089c.0488-.0186.119-.0613.1827-.1251.0641-.0645.119-.1557.1218-.2686-.0028-.1767-.1367-.3566-.3654-.5002-.2312-.1395-.5659-.2436-.9951-.2436-.4139 0-.77.1162-1.0225.3235-.0868.0702-.1618.1517-.2227.242-.0444.0654-.0811.1355-.1097.2098-.0464.121-.071.2533-.0698.392-.0028.4002.1646.6712.405.8447.2404.1742.5449.2589.837.3267.2496.0573.4812.1121.6393.1976.0661.0371.1194.0759.1593.1219.0561.0637.0855.1419.0871.25 0 .1678-.0637.2872-.1827.3752-.1214.0887-.3134.1403-.5631.1403-.4929 0-.8704-.2501-1.0802-.5518l-.0609-.0274c-.0427.0032-.0641.0153-.0976.0339l-.0307.0185-.0322.0242c-.0303.0242-.0605.0541-.0892.088-.0488.0581-.0883.1371-.0883.2283.0032.1952.1492.3937.3989.5518.2525.1589.6176.2718 1.0834.2718.4506 0 .8189-.1097 1.0807-.317.2617-.2073.4045-.5123.4045-.8785-.0012-.0759-.0089-.1477-.0226-.2154-.0125-.0629-.0302-.1218-.0524-.1775-.0214-.0532-.0464-.1033-.075-.15-.0714-.1162-.165-.213-.2731-.2921Zm22.0131-.3566c.3255.0759.6449.1735.8946.3566.2465.1799.4171.4542.4171.835 0 .3662-.1432.6712-.405.8785-.2618.2073-.63.317-1.0806.317-.4655 0-.8309-.1129-1.0834-.2718-.2525-.1581-.3985-.3566-.4018-.5518 0-.0912.0396-.1702.0884-.2283.0488-.0581.1032-.1033.152-.1307.0335-.0186.0549-.0307.0976-.0339l.0638.0274c.0262.0371.0544.0734.0847.1081l.0468.0509c.0222.0225.0451.0443.0693.0661.065.0581.1376.1105.2175.1557.1847.1049.4082.171.6623.171.2525 0 .4413-.0516.5631-.1403.1218-.088.1827-.2074.1827-.3752 0-.1855-.0855-.2831-.2436-.3719-.1582-.0855-.3897-.1403-.6394-.1976-.1302-.0299-.263-.0637-.3912-.1073-.1598-.0541-.3126-.1226-.4457-.2194-.2404-.1735-.4078-.4445-.4046-.8447-.0032-.3412.1488-.6397.4017-.8438.2525-.2073.6087-.3235 1.0226-.3235.4291 0 .7639.1041.9955.2436.2279.1436.3618.3235.365.5002-.0032.1129-.0577.2041-.1218.2686l-.0145.0146-.0271.0234c-.029.0242-.0584.0443-.0851.0597l-.0314.0169-.0242.0105-.0488.0089h-.0367l-.0214-.0307c-.1856-.2654-.5357-.4752-.9463-.4752-.2255 0-.405.0549-.5236.1428-.119.0888-.1827.2074-.1827.3598.0028.1832.0698.2654.2102.3445.0839.0452.1944.0799.3247.1137l.177.0436.0452.0097.0295.0072.0476.0121Zm-18.3449 1.6401h-1.8628v-.9971h1.3969c.1036 0 .192-.0242.2557-.0823.0642-.0581.0944-.1468.0944-.238v-.0185c0-.0646-.0137-.1259-.0444-.1759-.0125-.021-.0282-.0395-.0468-.0556-.0641-.0549-.1524-.0791-.2589-.0791h-1.3969v-.9084h1.8293c.1032 0 .1916-.0242.2585-.0823.0251-.0225.0448-.05.0597-.0806.0234-.0476.0347-.1033.0347-.1606v-.033c0-.092-.0274-.1775-.0911-.238l-.0279-.0218c-.0165-.0121-.0347-.0218-.0536-.0307-.0516-.0226-.1121-.033-.1775-.033h-2.1794c-.1125 0-.2129.0395-.2827.1161-.0702.0726-.1097.1799-.1069.2953v3.0946c0 .1161.0367.2194.1097.2928.0283.0299.0617.0541.0984.0718l.0311.0129c.0472.0178.0988.0266.1537.025h2.2128c.0234 0 .046-.0016.0678-.004.0407-.0056.079-.0153.1129-.0315.0283-.0137.0537-.0314.075-.0532.0638-.0605.0884-.1493.0884-.2469v-.0306c0-.0912-.0274-.1767-.0916-.2316-.0698-.0548-.1581-.0758-.2585-.0758Zm3.4455-2.9332c.2557.2041.3864.5122.3864.8995 0 .3356-.1033.6187-.3013.8261-.1069.1072-.2404.1895-.3973.2484-.1069.0396-.2243.0686-.3513.0872l1.0164 1.21.0214.0613c0 .0396-.0153.0702-.0335.1009-.0181.0298-.0456.0605-.0823.0911-.0697.0581-.1762.1098-.3073.1098-.0884 0-.1706-.021-.2437-.0638-.073-.0427-.1367-.1073-.2037-.1952l-1.0075-1.2351h-.3074v1.1496c0 .054-.0089.1057-.0274.1525-.0138.0355-.0331.0669-.0577.0943-.023.0251-.0512.046-.0831.0614-.0484.0242-.1061.0363-.1666.0363h-.0823c-.0387 0-.0762-.0057-.1105-.017-.052-.0177-.098-.0476-.1327-.0895-.0549-.0702-.0795-.1646-.0795-.2743v-3.1438c-.0012-.0549.0065-.1065.0222-.1533.0182-.0548.0472-.1033.0847-.142.0698-.0766.1702-.1161.2828-.1161h1.0685c.4687 0 .837.0976 1.0927.3017Zm-.5329 1.3569c.1158-.1009.1739-.2412.1739-.43-.0032-.2009-.0641-.3412-.1799-.4389-.0577-.0459-.1303-.0822-.219-.1081-.0989-.029-.2178-.0443-.359-.0443h-.7003v1.1826h.7184c.1303 0 .2416-.0145.3348-.0419l.0569-.0186c.0367-.0137.0698-.0298.1-.0476.0275-.0161.0521-.0339.0742-.0532Zm4.3499-1.6804c-.1553-.0033-.3259.0944-.3989.3235l-.9556 2.6767-.956-2.6767c-.0125-.0396-.0282-.0759-.0472-.1089-.0153-.0267-.0326-.0509-.0516-.0726-.0835-.096-.1984-.1428-.3178-.1388-.1069 0-.2074.0363-.2832.0791-.0395.0217-.0702.0459-.0976.0701l-.0048.0049-.0049.0048c-.0101.0121-.0193.0234-.0266.0371-.0081.0154-.0141.0331-.0153.0573l.0092.0363 1.3481 3.4052c.0367.092.0823.1621.1553.2106.073.0484.1613.0637.2771.0637.0532 0 .1008-.0032.144-.0113.0528-.0105.0988-.0274.1391-.0524.073-.0485.1186-.1219.1549-.2074l1.3456-3.4116.0029-.0307c-.0012-.0226-.0061-.0395-.0129-.054-.0089-.0194-.0218-.0339-.0355-.0492-.073-.0791-.2102-.1557-.3683-.1557Zm1.1625 0h.0823c.1004-.0024.1883.0274.2492.0919.061.0638.0856.1525.0856.2525v3.2657c0 .1008-.0246.1887-.0856.2533-.0427.0452-.1008.0718-.1653.0839l-.0363.0048-.0476.0024h-.0823c-.0214 0-.0424-.0016-.0625-.0048-.0238-.0032-.0464-.0081-.0682-.0153-.0432-.0146-.0815-.038-.1129-.071-.061-.0646-.0852-.1525-.0852-.2533v-3.2657c0-.1.0242-.1887.0852-.2525.0306-.0322.0677-.0556.1093-.0709.0407-.0146.0859-.021.1343-.021Zm4.3281 2.7412c-.0912-.0581-.1828-.0823-.2465-.0855l-.0335.0032c-.0076.0016-.0197.0049-.0327.017-.0076.0072-.0153.0169-.0221.0322-.0763.1985-.2239.359-.4187.4655-.1698.0928-.3756.1444-.601.1444-.7152-.0032-1.2327-.5493-1.2355-1.348 0-.2533.0504-.4792.1415-.6704.0537-.1137.1219-.2146.2021-.3017.2162-.2348.5175-.3695.8798-.3695.1972 0 .3936.046.5667.1347.1791.0928.3324.2316.4348.4115.021.0306.0395.033.0484.0363l.0307.0032c.0576-.0032.1432-.0242.2343-.0855.0379-.0266.075-.0605.1049-.1033.0391-.0556.0657-.1266.0657-.2138-.0016-.079-.0302-.1645-.0843-.2509-.0415-.0653-.0976-.1323-.1678-.1968-.0403-.0363-.0855-.0726-.1347-.1073-.2497-.1767-.6179-.3138-1.1048-.3138-.5812 0-1.0774.2106-1.4307.5728-.1363.1411-.2505.3049-.3388.4872-.1388.2856-.215.6164-.215.9794 0 .5889.2008 1.0947.5477 1.4545.3473.3598.8402.5671 1.4187.5671.1157 0 .2254-.008.3287-.0217.0795-.0113.1553-.0267.2275-.0452.2485-.0637.451-.167.6062-.284.259-.1952.399-.4235.4018-.6002.0012-.0597-.0129-.1121-.0355-.1573-.0073-.0153-.0157-.0298-.025-.0436-.0315-.0467-.0722-.0839-.1129-.1105Zm1.4246.5155h1.8627c.1033 0 .1916.021.2526.0758.0641.0549.0911.1404.0911.2316v.0306c0 .0976-.0242.1864-.0879.2469-.0609.0613-.1525.0887-.2558.0887h-2.2128c-.1097.0033-.213-.0363-.2832-.1097-.0697-.0734-.1064-.1767-.1064-.2928v-3.0946c0-.1154.0367-.2227.1064-.2953.0493-.0532.113-.0887.1856-.1048.0311-.0073.0637-.0113.0976-.0113h2.1794c.1032 0 .1948.0242.2585.0855.0484.046.0759.1057.0863.171.0037.0218.0053.0444.0053.067v.033c0 .0944-.0307.1832-.0944.2412-.067.0581-.1553.0823-.259.0823h-1.826v.9084h1.3969c.1065 0 .1948.0242.2589.0791.0638.0548.0912.1403.0912.2315v.0185c.0028.0912-.0274.1799-.0912.238-.0669.0581-.1553.0823-.2589.0823h-1.3969v.9971Z"/>
</svg>