<svg xmlns="http://www.w3.org/2000/svg" viewBox="0 0 77 40">
	<g fill="#fff">
		<path d="M74.7913 26.1569h-4.4795c-.2399.08-.3199.3199-.5599.5599-2.6397 3.1996-6.6392 5.7593-12.2385 7.8391-4.8795 1.8397-10.4788 2.9596-16.878 3.3596-6.3992.3999-12.5585 0-18.5578-1.2799-4.5594-.9599-9.2789-2.4797-13.03843-4.7194-2.63968-1.5198-4.71943-3.1197-5.99928-4.7994-.39995-.4 0-.56.31996-.32 1.83978 1.9198 4.39948 3.6795 7.35915 5.0394 2.8796 1.3598 6.6392 2.5597 11.6786 3.5196 3.5995.6399 8.399.9598 14.3982.6399 6.3993-.4 12.3986-1.8398 17.358-4.1595 2.8796-1.3599 4.8794-2.7197 6.4792-4.1595.5599-.6399.08-1.3599-.48-1.5198h-2.2397c-3.9195 4.3194-12.7985 8.7989-27.1967 8.8789-14.3983.16-29.916441-5.8393-29.83645-14.9582C1.04013 10.9587 15.5184 4.95941 29.8367 4.95941s23.5971 3.75954 28.3166 8.95889h2.3197c.4799-.2399.7999-.9599.32-1.4398-1.5998-1.5198-3.5996-2.79966-6.4793-4.1595-5.0393-2.31972-10.9586-3.75955-17.3579-4.1595-5.9993-.31996-10.7987 0-14.3983.63992-5.2793.95989-8.9589 2.15975-11.9185 3.51958-3.03965 1.35984-5.43937 3.1996-7.27915 5.1194-.31996.24-.71991.08-.31996-.32 1.27985-1.5998 3.19962-3.27958 5.8393-4.7994C12.6387 6.07927 17.3582 4.47946 21.9976 3.51958c5.9993-1.27985 12.1586-1.75979 18.5578-1.35984s12.0785 1.59981 16.878 3.3596c5.5993 2.07975 9.6788 4.79946 12.2385 7.99906.16.24.4.3999.5599.4799h4.5595c1.1199.08 1.9997-1.0399 1.3598-2.3197C69.9919 4.87942 56.7135 0 38.6356 0 18.718 0 .0802469 8.47898.00025654 19.9176-.0797339 31.4362 18.558 40.2352 39.8355 39.9952c18.3978-.16 29.2765-5.0394 35.5157-10.6387 2.0798-1.7598.8799-3.1996-.5599-3.1996Z"/>
		<path d="M25.6769 23.7613h.32v-7.4391h-1.5998v2.6397c0 .2399-.08.4799-.32.4799h-2.9596c-.16 0-.32-.16-.32-.3999V17.842c0-1.3598-.8799-1.4398-1.2799-1.4398h-.3199v7.4391h1.5998v-2.5597c0-.32.16-.4.4799-.4h2.7197c.4 0 .4799.16.4799.48v1.1198c0 1.1999.8799 1.2799 1.1999 1.2799Zm2.5597-7.5191h-.24v7.4391h1.5998l3.1197-4.3195c.1599-.24.5599-.3199.4799.16v2.7997c0 1.3598.8799 1.4398 1.2798 1.4398h.32v-7.4391H33.196l-3.1196 4.3995c-.24.3199-.56.3199-.56-.08V17.762c0-1.3598-.8798-1.5198-1.2798-1.5198Zm18.9577 7.5191V18.002c0-.24.16-.4.48-.4h1.1998c.56 0 1.0399-.7199 1.0399-1.1998h-5.6793c-.7999 0-1.1199.5599-1.2799 1.1998h2.2398c.3199 0 .3999.16.3999.4v5.8393l1.5998-.08Zm12.1586-7.5191h-.32v7.4391h1.5998l3.1196-4.3195c.16-.24.56-.3199.48.16v2.7997c0 1.3598.8799 1.4398 1.2798 1.4398h.32v-7.4391h-1.5998l-3.1196 4.3995c-.24.3199-.56.3199-.56-.08V17.762c.08-1.4398-.8799-1.5198-1.1998-1.5198Zm-45.6746 7.5991h1.1199c1.2799 0 2.3197-1.0399 2.3197-2.3197v-2.9597c0-1.2798-1.0398-2.3197-2.3197-2.3197h-1.1199c-1.2798 0-2.3197 1.0399-2.3197 2.3197v.48c0 .3199-.16.4799-.4799.4799H9.83881c-.15999 0-.31997-.16-.31997-.4V17.762c0-1.3598-.87989-1.4398-1.27985-1.4398h-.23997v7.4391h1.59981v-2.6397c0-.32.15998-.3999.47997-.3999h.8799c.3199 0 .3999.1599.3999.4799v.3999c0 1.1999 1.0399 2.2398 2.3197 2.2398Zm-.8799-5.1194c0-.7199.56-1.2799 1.2799-1.2799h.32c.7199 0 1.2798.56 1.2798 1.2799v2.6397c0 .7199-.5599 1.2798-1.2798 1.2798h-.24c-.7199 0-1.2799-.5599-1.2799-1.2798v-2.6397h-.08Zm26.2369-1.1999h1.9998c.4799-.1599.7999-.6399.8799-1.1998h-3.0397c-1.2798 0-2.3197 1.0399-2.3197 2.3197v2.7197c0 1.2798 1.0399 2.3197 2.3197 2.3197h3.1996c-.08-.5599-.4799-1.0399-.9598-1.1999h-2.0798c-.4799 0-.7999-.3999-.7999-.7999v-3.2796c0-.4799.32-.8799.7999-.8799Zm16.1581-1.1998h-3.9196v7.4391h1.6798v-2.3997h2.1598c1.0399-.08 1.7598-.48 2.1597-1.1999.32-.7199.24-1.5198.08-2.3997-.32-.8799-1.1199-1.3598-2.1597-1.4398Zm-.24 3.8395h-1.9198c-.08 0-.2399-.08-.2399-.24V17.762c0-.08.0799-.24.2399-.24h2.0798c.4799 0 .7999.32.7999.7999v1.0399c.08.32-.4.7999-.9599.7999Zm19.7576 2.1598c0 1.3598.8799 1.4398 1.2799 1.4398h.3199v-7.4391h-1.8397c-.32 0-.48.16-.56.3999l-1.4398 3.9196c-.16.5599-.48.5599-.7199-.08-.48-1.2799-.9599-2.4797-1.3599-3.7596-.0799-.24-.2399-.3999-.5599-.3999h-1.8398v7.4391h.32c.3199 0 1.2798-.08 1.2798-1.4399v-2.7996c0-.48.4-.48.48-.16l1.3598 3.3596h1.4399l1.3598-3.3596c.16-.32.5599-.32.4799.16v2.7197Z"/>
	</g>
</svg>