<svg xmlns="http://www.w3.org/2000/svg" viewBox="0 0 109 38">
	<path fill="#fff" d="M37.9117 18.9644v.0765c-.0047 4.2868-.3201 11.4917-3.5342 15.0595-1.9165 2.1272-4.777 3.8908-9.1397 3.8996l-.0888-2.0572c3.8919-.6626 6.188-3.1552 6.6347-6.7389.4631-3.7142.4107-5.2854.4107-10.2036 0-4.9129.0524-6.4858-.4107-10.20305-.4467-3.58186-2.3009-6.07628-6.194-6.73887L25.2378 0c4.3627.00764978 7.2226 1.77534 9.1397 3.90315C37.591 7.46913 37.907 14.6735 37.9117 18.9644ZM6.12865 29.2039c-.46369-3.7142-.4125-5.2854-.4125-10.2036 0-4.9129-.01706-6.4829.4125-10.20305.48076-4.16089 3.05285-6.07628 6.94365-6.73887L13.3 0C8.93612.00411911 5.45253 1.77593 3.53538 3.90315.321291 7.46972.00176533 14.6735 0 18.9644v.0765c.00176533 4.2868.320114 11.4917 3.53538 15.0595C5.45194 36.2276 8.31119 37.9959 12.6745 38l.0889-2.0572c-3.89318-.6626-6.18753-3.1547-6.63475-6.7389Zm21.01045-5.6167c0 3.7743-.9592 6.9154-4.2839 8.7249-1.018.5543-2.6215.945-3.8726.945-1.3481 0-2.8168-.22-3.9084-.8756-.8026-.4819-1.7247-1.2316-2.3185-2.0178-1.4499-1.9212-2.159-3.9984-2.159-8.3076 0-8.5183.166-12.20318 2.2614-13.80022 3.9661-3.02225 7.7345-4.94176 8.177-6.26694.2954-.88384 0-1.541134 0-1.541134l1.5353-.4077918C23.7738 3.90433 24.5393 7.55798 21.4618 9.2174c-2.8222 1.5217-3.2842 1.5859-5.6509 2.8222-1.9724 1.0303-3.1841 2.0089-3.3818 3.7054-.0818.705-.1741 2.5133-.1741 2.5133l.7414-.0459c.2618-.838.6979-1.7354 1.6164-2.5109 1.1593-.9786 2.7304-1.7336 4.4405-1.7889.163-.0053.3242-.0082.4837-.0082 2.0201 0 3.7719.4407 5.1271 1.6588 2.1413 1.9248 2.475 5.0936 2.475 8.024Zm-6.1299-5.7973c-.5143-1.2299-1.2239-1.4464-2.1189-1.4488-.8933-.0023-1.6065.3201-2.1232 1.547-.5607 1.3323-.6773 3.2129-.682 5.6562-.0053 2.4444.1036 4.4333.6603 5.7632.516 1.2334 1.2257 1.6635 2.119 1.6665.892.0029 1.607-.4278 2.126-1.6565.5614-1.3293.6755-3.3182.6803-5.7615.0047-2.445-.1036-4.4327-.6615-5.7661ZM48.493 7.81185l.0135.05473-.0065.04472-.1024.4378c-.0017.0306-.03.11181-.1253.11181h-.9851v.91797h.835l.1113.05296.0206.09239v.39955l-.0453.11942-.0866.0259h-.8367v1.0892h1.0439l.0859.0248.0441.12v.3984l-.0441.1206-.0583.0247h-1.6959l-.1106-.0518-.0194-.0935V7.91483l.0441-.12004.0865-.0253h1.7465l.0848.04236Zm2.4214-.04413-.0894.02295-.0412.12299v1.46875h-.9174V7.91424l-.043-.12298-.0894-.02354h-.4931l-.0883.02295-.0429.12299v3.78604l.0423.123.0883.0229h.4931l.0889-.0229.0435-.1224v-1.6265h.918v1.6265l.0412.1224.0888.0235h.4973l.1082-.0506.02-.0959V7.91366l-.02-.09592-.1106-.05002h-.4943Zm3.3277.00177c-.1006 0-.1265.0712-.1524.14122l-.6491 1.59704c-.0677.16889-.213.55725-.3036.81085.0112-.54487.0188-.45131.0188-.71258V7.91483l-.0206-.09415-.1118-.05119h-.4937l-.0847.0253-.0453.12004v3.78547l.0205.0953.1101.0512h.5019c.0842 0 .1165-.0565.1377-.1171l.7097-1.74354c.0688-.16653.1424-.33483.2495-.66083-.0082.18125-.0147.38308-.0147.5096v1.86657l.0212.0941.1088.0518h.4973l.1076-.0518.0212-.0941V7.91483l-.0206-.09415-.11-.05178h-.4978v.00059Zm2.4979-.09886c-.2795 0-.6155.08944-.8791.4125-.2636.32188-.4555.86854-.4555 1.77592v.00589c0 .83206.1489 2.08136 1.3505 2.08246h.0524c.2966-.0123.592-.1159.7691-.2836l.0724-.12-.0306-.1001-.1589-.3289-.0924-.0741-.1448.0747c-.1353.0935-.2689.1412-.406.1412-.226 0-.3542-.1206-.4278-.2342-.1777-.273-.1971-.9433-.1971-1.19983 0-.7738.0694-1.11451.2148-1.28457.0947-.11063.2271-.17771.3954-.17771.1548 0 .2748.0812.409.20419l.1265.07237.0818-.07355.19-.32894.0301-.09003c0-.05002-.0336-.09945-.1066-.17242-.2136-.21302-.5348-.30128-.7932-.30128Zm1.4258.09886-.0871.02589-.0447.12063v3.78669l.0206.0935.11.053h1.6959l.0595-.0277.0429-.1194v-.399l-.0429-.1206-.0865-.0242h-1.0428v-1.0892h.8362l.0865-.0265.0448-.11999v-.39838l-.0206-.09356-.1107-.05179h-.8362v-.91856h.9869c.0959 0 .1224-.08062.1241-.11122l.1042-.43956.0035-.04414-.0147-.05472-.0847-.0406-1.7442-.00059Zm3.0523.00117.11.05179.0218.09356v1.6906c-.0018.26186-.0118.16653-.0206.71199.0906-.2518.2371-.64079.3048-.81026l.6479-1.59645c.0241-.07002.053-.14123.1536-.14123h.496l.1095.05179.0218.09356v3.78719l-.0218.093-.1071.053h-.4961l-.1118-.053-.0212-.093V9.8361c0-.12592.0065-.32835.0159-.50959-.1077.32541-.1812.49488-.2495.662l-.7096 1.74359c-.0212.0606-.0559.1177-.1389.1177h-.5002l-.1106-.053-.0212-.093V7.91601l.0447-.12004.0871-.02531h.4955Zm1.0127-.9927.3342.04119.0765.11063c0 .09238-.0223.21007-.1094.34482-.1053.16242-.2954.32718-.6208.34895l-.0853.00353c-.3714 0-.585-.17712-.6991-.35306-.0865-.13358-.1065-.25186-.1059-.34483.0005-.06826.0364-.11004.0759-.11004l.3807-.04767.0465.01942.05.12417c.0406.13416.1165.2136.256.21419.1418.00059.2153-.07944.2565-.21478l.0495-.12358.0482-.01942.0465.00648Zm2.7033.89267c-.2789-.00059-.6155.09121-.8797.41367-.2648.32247-.4549.86796-.4537 1.77593.0012.83147.1471 2.08837 1.3487 2.08897l.0518.0006c.2977-.0106.592-.1165.7703-.2842l.0694-.1201-.0276-.1006-.1595-.3289-.0942-.0736-.143.0753c-.1365.0918-.2695.1413-.406.1413-.2248 0-.3554-.1207-.4284-.2336-.1777-.2743-.1977-.9439-.1971-1.20048.0018-.77321.0712-1.11451.2154-1.28457.0924-.10886.2248-.17771.3883-.17889l.0065.00118c.1536 0 .2772.08179.409.2036l.1271.07179.0824-.07355.1877-.32777.0312-.09003c-.0006-.04943-.0324-.10004-.1065-.17418-.2125-.21243-.5338-.30128-.7921-.30187Zm3.4713.00059h-.0065c-.1112 0-.2978.04295-.4549.15182-.2413.16711-.2901.40661-.326.64728l-.0777.49842c-.0612.35248-.1712.41191-.4089.4172h-.1483V7.9166l-.0424-.12299-.0877-.02295h-.4937l-.0888.02295-.0436.12299v3.7872l.0436.1218.0888.0236h.4937l.0877-.0236.0424-.1218v-1.6282h.1959c.299.0029.3272.1924.3619.3701l.1224.705c.0318.1859.0553.4301.2248.5967.1907.1871.4949.2018.5549.2018h.0094c.0918 0 .1207-.0641.1313-.1065l.1347-.4478.0065-.0488-.0789-.103-.133-.0342c-.1418-.0417-.1559-.0918-.2059-.3713l-.083-.4925c-.0188-.1089-.0835-.47487-.439-.62845.2584-.12122.3443-.34659.3778-.57314l.0606-.41604c.0447-.29304.0965-.31776.2077-.35365l.1283-.03531.0771-.11239-.0053-.04355-.1088-.41779c-.0159-.0712-.0736-.09356-.1171-.09356Zm2.7339.10062c-.0989 0-.1271.07179-.1519.14123l-.649 1.59645c-.0659.17006-.2124.55788-.3031.81028.0095-.54489.0189-.45015.0189-.71201v-1.6906l-.0212-.09357-.1089-.05119h-.496l-.0854.02471-.0453.12005V11.705l.0206.0924.1095.053h.496c.0836-.0006.123-.0571.143-.1177l.7103-1.74301c.0677-.16712.1424-.33659.2477-.66082-.007.18006-.0135.38307-.0135.51018v1.86655l.0206.0924.1106.0535h.4949l.1083-.0529.0217-.093V7.91777l-.0206-.09297-.1112-.05178h-.489l-.007-.00118Zm2.2243.05237.02.09298v1.69178c0 .26068-.0082.16594-.0182.71143.09-.2513.2359-.64023.3036-.81088l.6508-1.59704c.0241-.06826.0512-.14005.1518-.14005h.4967l.1094.05178.0218.09298V11.705l-.0224.093-.1059.0524h-.4972l-.1112-.0524-.0212-.093V9.83728c.0017-.12651.007-.32953.0165-.51018-.1083.32541-.1819.49488-.2507.66082l-.7109 1.74358c-.0194.0606-.0523.1159-.1353.1165l-.0077.0018h-.4937l-.1112-.0524-.0194-.0936V7.91601l.0447-.11887.0877-.02648h.4931l.1089.05355Zm.5037-.19595c42.3677 0-42.368 0 0 0Zm-.3078-.83677.0495.12593c.0417.13416.1153.21478.2565.21478.1418 0 .2148-.08003.256-.21478l.05-.12416.0471-.01942.3807.04825c.0394.00177.0771.04237.0771.10945 0 .09239-.0212.21125-.1077.34424-.1141.17595-.3272.33836-.7014.35248-.3772.01412-.5896-.17712-.7044-.35307-.0865-.1324-.1082-.25126-.1082-.34424 0-.06826.0376-.10827.0759-.10886l.3383-.04119.043-.00765.0476.01824ZM48.3971 20.1545h.007c.3984.0006.6232-.3866.745-.9021.1218-.5137.1353-1.1328.1353-1.5388 0-.4784-.0247-1.1039-.1518-1.5994-.1283-.4984-.3489-.8515-.7273-.8515h-.0141c-.3749.0024-.5955.3566-.7221.8527-.1265.4961-.1494 1.1186-.1494 1.5982 0 .406.0118 1.0251.133 1.5388.1218.5155.3448.9021.7444.9021Zm.0094-6.0575c2.1637.0159 2.2031 2.8681 2.2055 3.6048l.0005.0118c-.0023.7014-.0311 3.526-2.136 3.6048l-.0753.0018c-2.179-.0071-2.212-2.8975-2.212-3.6072 0-.7191.0335-3.6083 2.2108-3.6166l.0065.0006Zm4.837 5.8892c.5125-.0088 1.0551-.0618 1.0557-.9339.0005-.8897-.595-.9156-.9692-.9238h-.3525v1.8577h.266Zm1.7206-5.7197.1247.0353.0542.1218c0 .0124-.0024.0394-.0188.1095l-.1742.7067c-.0206.09-.0859.193-.2336.193h-1.7383v1.5305h.562c.4101.0012.9338.0389 1.3493.3684.3307.2625.6755.7626.6784 1.7324v.0194c0 .3207-.037.8344-.316 1.2752-.2642.4166-.7508.7614-1.6076.7938h-1.7218c-.0906 0-.1547-.0341-.1859-.0877l-.0347-.1577v-6.3946c0-.0977.0276-.1648.0753-.2024l.1465-.0436h3.0405Zm3.6119 5.7209c.4996-.0071.9703-.1177.9721-.9127.0017-.9245-.6844-.908-1.0374-.9162h-.2754v1.8289h.3407Zm-2.651-5.7215h.0089l.0082.0012h2.0801c.0848 0 .1477.0359.1772.0883l.0347.1583v2.4797h.5619c.3737 0 .9198.0088 1.377.3877.5243.4349.6497 1.0957.6514 1.6912l.0006.0218c-.0006.479-.0694 1.1392-.5731 1.5917-.2389.2148-.6562.4455-1.3529.4667h-1.7224c-.0876 0-.1524-.0341-.1835-.0883l-.0365-.1571v-5.469h-1.2722l-.013-.0012-.0989-.0265-.0547-.1382.0171-.1319.1736-.6567c.0094-.0794.0465-.2177.2165-.2177Zm8.6772.0012h-2.9469l-.1465.0424c-.0465.0394-.0753.1071-.0742.2047v6.3929l.0342.1583c.0312.0518.0947.0889.18.0889h2.8216l.1471-.0424c.0477-.0394.0754-.1065.0754-.203v-.6962c-.0042-.0853-.0324-.1453-.0754-.1818l-.1471-.0424h-1.76v-1.8377h1.4128l.1454-.0423c.0482-.0395.0765-.1065.0759-.2036v-.675l-.0341-.1583c-.0318-.0518-.0948-.0877-.1795-.0877h-1.4205v-1.5517h1.6676c.1595 0 .2048-.1359.2107-.1871l.173-.7415.01-.0753-.0247-.0894-.1448-.0718Zm3.6431 1.1675h-.7991v1.1922c0 .5502-.0824 1.5199-.2024 2.1601-.0924.492-.2248.8915-.3572 1.2022h1.3587v-4.5545Zm-1.7842-1.1663h2.8499c.0824 0 .1453.037.1765.0882l.0353.1589v5.4743h.3519c.0847 0 .1471.0359.1765.0883l.0359.1571v1.9701l-.0359.1571c-.0294.0536-.0947.0889-.18.0889h-.765c-.0859 0-.1495-.0365-.1824-.0871l-.0336-.1583V21.1543H66.427v1.0497c.0018.0965-.0259.1636-.0753.2025l-.146.0429h-.7638c-.0829 0-.1459-.0353-.1771-.0877l-.0365-.1565v-1.9713l.0365-.1583c.0318-.0523.0965-.0882.183-.0882h.1836c.266-.5485.3843-1.0304.469-1.6241.1206-.848.1342-1.7607.1342-1.9366v-1.9142l.04-.1577c.0312-.0512.0936-.0877.1777-.0877l.0088.0012Zm7.6816.0011c-.173 0-.2189.1201-.2619.2378 0 0-1.3299 3.3182-1.4693 3.6901-.0506.1342-.0977.366-.1395.479.0165-.9209.0312-.8644.0324-1.3069v-2.8546l-.0359-.1583c-.03-.0523-.0947-.0876-.1795-.0876h-.8397l-.1465.0423c-.0489.0389-.0765.1059-.0753.203v6.3947l.0359.1565c.0317.0535.0959.0894.1853.0894h.8474c.1406 0 .1953-.0959.2318-.1989 0 0 1.3676-3.3459 1.4747-3.6436.0435-.1206.0924-.3607.1435-.5202-.0141.3054-.0253.7509-.0253.9645v3.1529l.0365.1571c.0312.0529.0954.0888.1813.0888 0 0 .5914-.0017.8491-.0017l.1024-.0206.0735-.0665.0359-.1566v-6.394l-.0359-.1577c-.03-.0518-.0941-.0889-.1788-.0889h-.8421Zm6.274.0006h-.8374l-.1494.0395c-.0489.0388-.073.1071-.073.2059v2.4809h-1.5476v-2.4809c0-.1-.0218-.1677-.0724-.2059l-.1471-.0395h-.835l-.1495.0395c-.0494.0388-.0735.1071-.0735.2059V20.91c0 .1007.0241.1689.0724.2072l.1506.0388h.8332l.1483-.0388c.05-.0389.073-.1059.073-.2066v-2.748h1.5482v2.7486c-.0018.1006.0229.1677.0729.2072l.1495.0394h.875l.0595-.0159.09-.0694.0318-.1613v-6.3958l-.0318-.16c-.0347-.0536-.0983-.0854-.1877-.0854Zm1.8918 0-.1447.043c-.05.0394-.0765.1065-.0765.2018V20.91l.0359.1577c.0306.0524.0947.0883.18.0883h2.8205l.1465-.0418c.0488-.04.0747-.1071.0747-.2036v-.6967c-.0047-.0847-.03-.1447-.0747-.18l-.1465-.043h-1.7595v-1.8371h1.4105l.1477-.0436c.0483-.0388.0759-.1071.0753-.2036v-.6732l-.0347-.1577c-.0324-.0512-.0941-.0876-.1818-.0876h-1.417v-1.5506h1.6688c.1601 0 .203-.1365.2083-.1877l.173-.7409.01-.0759-.0258-.0906-.1424-.0718-2.9476-.0006Zm5.1566.0012h-.8368l-.1489.0389c-.0488.04-.0718.1076-.0718.2071v6.3958c0 .0988.023.1671.0718.2059l.1489.0383h.8362l.1465-.0383c.05-.0388.0724-.1071.0724-.2059v-2.7486h1.547v2.7486c0 .1.0241.1671.0742.2059l.1482.0401h.8639l.0706-.0159.0877-.0689.0341-.1612v-6.3952l-.0312-.1613c-.0312-.0523-.093-.0835-.1789-.0835h-.8438l-.1495.0371c-.0506.04-.0759.1076-.0735.2077v2.4809H87.684v-2.4809c.0017-.1007-.0212-.1677-.0718-.2077l-.1471-.0389Zm8.3841.0012h-.8408l-.1495.0388c-.0477.04-.0724.1077-.0724.206v2.4815h-1.5494v-2.4815c.0006-.0989-.0217-.166-.0706-.206l-.1494-.0388h-.8345l-.1471.0388c-.0506.04-.0741.1077-.0741.206v6.3952c0 .1.0223.1677.073.206l.1471.0406h.8344l.1494-.0406c.0477-.0383.0707-.106.0707-.206v-2.748h1.5499v2.748c0 .1.0241.1677.0724.2071l.1495.0395h.8614l.0718-.0153.0895-.0701.0323-.1606v-6.3935l-.0306-.1624c-.0311-.0523-.0959-.0847-.183-.0847Zm6.3108.0012h.838l.146.0435c.048.0383.074.1065.074.2024v6.3953l-.035.1577c-.032.0517-.098.087-.184.087h-.845c-.084 0-.148-.0358-.178-.0876l-.035-.1577v-6.3953l.035-.1577c.031-.0529.099-.0876.184-.0876Zm-3.0267 5.7208c.4996-.0082.9717-.12.9737-.9144.001-.9239-.6877-.9068-1.039-.9139h-.2742v1.8283h.3395Zm-.5613-5.722c.0894 0 .1547.0347.1865.0883l.0365.1588v2.4803h.5596c.3737 0 .9194.0083 1.3774.3878.523.4349.65 1.0975.651 1.6924v.02c0 .4796-.068 1.141-.571 1.5923-.242.2166-.666.449-1.3791.4672h-1.7006c-.086 0-.1501-.0358-.1819-.0876l-.0335-.1583v-6.3941c0-.0959.0276-.1641.0741-.2024l.1436-.0447h.8374Zm9.214.0018h.842c.086 0 .15.0364.179.0888l.034.1577v6.3941l-.035.1577c-.032.0535-.096.0888-.182.0888h-.84c-.087 0-.152-.0359-.186-.0888l-.033-.1577s.011-3.812.023-4.118c-.032.103-.097.3672-.127.4537-.129.3731-.199.539-.292.7673l-1.2 2.944c-.033.1012-.091.1942-.231.1966l-.013.0006h.005-.845c-.084 0-.15-.0353-.181-.0871l-.033-.1577v-6.3947c0-.0959.026-.1636.074-.2024l.146-.0429h.841c.085 0 .148.0364.178.0888l.037.1577v2.8551c0 .442-.015.3855-.032 1.3064.04-.1106.126-.4243.174-.5561.139-.3719.256-.7044.34-.9162l1.095-2.698c.043-.1177.088-.2377.262-.2377Zm-.349-1.6753.562.0694c.069.0041.132.0735.132.1865 0 .1554-.037.3554-.183.5808-.193.2984-.553.5967-1.185.5961-.631-.0006-.995-.2977-1.189-.5973-.145-.2236-.181-.4242-.181-.5796 0-.1153.064-.1859.129-.1865l.644-.08.079.0317c.057.0571.059.1348.084.2119.073.2248.194.3619.434.3619.237 0 .358-.1365.433-.3643.024-.0753.024-.1524.08-.2083l.081-.0329.08.0106ZM48.1546 29.7208c.5114-.0082 1.0545-.0629 1.0545-.9344 0-.8897-.5943-.9156-.9698-.9233h-.3507v1.8577h.266Zm1.8448-5.6867.0512.1218c0 .0135-.0018.0418-.0159.1118l-.1777.7061c-.0183.0895-.083.1925-.2319.1925H47.888v1.5305h.5597c.4125 0 .9373.0394 1.3522.3684.3313.2624.6744.7632.6779 1.7335v.0183c0 .3207-.0371.835-.3148 1.274-.2648.4183-.7521.7602-1.6112.7926l.0059.0029h-1.7306c-.0859 0-.1501-.0364-.1824-.0888l-.0342-.1571v-6.3947c-.0006-.0971.0277-.1647.0754-.2036l.1471-.0417h3.0422l.1242.0335Zm3.6172 4.0503-.3437-1.6471c-.0494-.2377-.0965-.499-.15-.9403-.0254.2318-.0718.5302-.1654.9403l-.3707 1.6471h1.0298Zm-.9245-4.0838h1.0121c.1195 0 .1542.1023.1736.1936l1.7301 6.5264c0 .1483-.1419.1659-.1878.1659h-.9885c-.0983 0-.1678-.0635-.2031-.2442l-.3748-1.5699H52.435l-.3484 1.5688c-.0235.1429-.0618.2453-.1895.2453l-.0123-.0005h-.931l-.1488-.0495-.0442-.1118 1.7477-6.5417c.0165-.0771.0542-.1824.1836-.1824Zm3.9002.0011-.1489.0389c-.0494.0394-.0741.1065-.0741.2071v6.394c0 .1001.0235.1678.0736.2072l.1488.0382h.8339l.1494-.0382c.0495-.0394.0748-.1071.0748-.2054v-2.7486h1.5464v2.7486c0 .1.0218.1665.0712.2071l.1495.0377h.8397c.0888 0 .1512-.0306.1836-.0841l.0329-.1601v-6.3958l-.0312-.1618c-.0329-.0524-.0977-.0836-.1853-.0836h-.8386l-.1494.0394c-.0483.0395-.0718.1071-.0718.2066v2.4803h-1.547v-2.4803c0-.1006-.0242-.1677-.0736-.2066l-.1495-.04h-.8344v-.0006Zm9.0085-.1677-.0123.0006c-.1848 0-.5014.073-.7656.2566-.4066.2818-.4896.6849-.549 1.0921l-.1318.8427c-.103.5937-.2866.6955-.6909.7026h-.2489v-2.4815c.0018-.0988-.0229-.1665-.0712-.2065l-.1494-.0395h-.8356l-.1483.0395c-.0483.0406-.0712.1065-.0712.2065v6.3958c0 .0995.0206.1654.07.2066l.1483.0382h.8356l.1494-.0382c.0477-.0412.0718-.1071.0718-.2066v-2.7492h.3266c.5096.0041.5555.3237.6138.6249l.2083 1.1899c.0529.3148.093.7261.3778 1.0068.3213.3166.8356.3401.9397.3413h.0159c.153 0 .2036-.1089.2212-.1818l.2248-.7538.0124-.083c.0029-.0635-.0335-.1518-.1324-.1754l-.2271-.0588c-.2378-.0683-.2631-.1536-.3466-.6267l-.1395-.8326c-.0341-.1825-.143-.8009-.7414-1.0592.4336-.2042.5796-.5867.6367-.9686l.1041-.7044c.0765-.4943.1624-.5337.3478-.5955l.2177-.0594c.0847-.0218.1318-.1048.1295-.1895l-.01-.0765-.1813-.7038c-.0265-.1153-.1236-.1536-.1989-.1536Z"/>
</svg>