<svg xmlns="http://www.w3.org/2000/svg" viewBox="0 0 160 26">
	<path fill="#fff" d="m36.9608 8.42578 2.5224-1.29723L19.7416.5 0 7.12855l2.52161 1.29723L0 9.21803l2.52161 1.29727L0 11.3795l2.30555 1.1524C2.01746 12.6768 0 13.3241 0 13.3241l9.87039 4.9712v.2867c0 3.3866 4.46681 6.1243 9.87071 6.1243 5.4755 0 9.8707-2.7377 9.8707-6.1243v-1.1517c0 3.3851-4.3952 6.1951-9.8707 6.1951-5.4031 0-9.86937-2.8084-9.87071-6.1943v-.0015m0 .0015-7.56484-3.818 1.22521-.4322 6.33963 3.1707c.00129 3.3859 4.46751 6.1943 9.87071 6.1943 5.4755 0 9.8707-2.8107 9.8707-6.1965v-1.081c0 3.4574-4.3952 6.1959-9.8707 6.1959-5.4033 0-9.86965-2.7364-9.87071-6.1939l-7.34878-3.674 1.29724-.4321 6.05154 3.0258v.0696c0 3.3866 4.46681 6.1244 9.87071 6.1244 5.4755 0 9.8707-2.7378 9.8707-6.1974v-1.0086c0 3.3858-4.3952 6.125-9.8707 6.125-5.4032 0-9.86951-2.7362-9.87071-6.1222L2.52161 9.43493l1.29724-.43214 6.05154 3.09781c.00108 3.386 4.46741 6.1216 9.87071 6.1216 5.4755 0 9.8707-2.7377 9.8707-6.1243v-1.0087c0 .4321-.0655.9386-.216 1.3692-.9647 2.7534-4.9711 4.7551-9.6547 4.7551-5.4039 0-9.87071-2.7377-9.87071-6.1966v-.0678L2.52161 7.2726 19.7416 1.50831 36.9608 7.2726l-7.3488 3.674v1.1523l6.1244-3.09776 1.2244.4313-7.3488 3.74766v1.0083l6.1244-3.0266 1.2244.4321-7.3488 3.6748v1.0812l6.3405-3.1715 1.2972.4322-7.6377 3.8205v.8651l9.8712-4.9721-2.3064-.7922 2.3064-1.1524-2.5224-.8651 2.5224-1.29637-2.5224-.79225M5.11525 7.48866 19.7408 2.58948 34.368 7.48949l-4.9 2.44877c-.8651-2.88173-4.8992-5.04323-9.7272-5.04323-4.8272 0-8.8621 2.1615-9.7255 5.0424L5.11525 7.48866ZM74.2138 8.117v5.8371c0 .4446-.0033 1.0001-.096 1.4769-.0688.351-.1863.659-.3867.8485-.1928.183-.5943.3204-.9263.3204-.1681 0-.3461-.0463-.4603-.0761l-.024-.0067v1.3991c.2078.0588.4421.0877.7053.0877.8014 0 1.3544-.298 1.6996-.591.1507-.1275.279-.2649.3874-.4098.1076-.1441.1962-.2964.2682-.4545.2939-.6416.3262-1.3875.3262-2.1458V9.51605h3.1922V17.917h1.4926v-9.8h-6.1782Zm-9.1071 6.0209 1.4926-3.3056 1.4363 3.3056h-2.9289Zm4.5341 3.7791h1.6018L66.6539 7.55655 61.845 17.917h1.6027l1.0629-2.38h4.1053l1.0249 2.38ZM58.3341 9.51605h.6349c.5116 0 1.8246.0712 1.8246 1.49845 0 1.3717-1.1606 1.5265-1.8105 1.5265h-.649V9.51605ZM56.8423 8.117v9.8h1.4934v-3.9753h.6491c.7044 0 1.6027-.1117 2.3618-.7699.4851-.4205.9413-1.1201.9413-2.1424 0-.7285-.2352-1.73438-1.2029-2.3801-.7335-.48925-1.4794-.5323-2.1151-.5323h-2.1276Zm53.7227 9.8008 1.01-5.9215 2.777 6.3719 2.82-6.3587.967 5.9083h1.519l-1.823-10.52765-3.4 7.58715-3.358-7.58715-2.032 10.52765h1.52Zm-7.299-1.2053c-2.045 0-3.4818-1.5265-3.4818-3.6814 0-2.1698 1.4368-3.71042 3.4818-3.71042 2.046 0 3.483 1.54062 3.483 3.71042 0 2.1557-1.437 3.6814-3.483 3.6814Zm0-8.7917c-2.887 0-5.0298 2.2261-5.0298 5.1103 0 2.856 2.1288 5.0838 5.0298 5.0838 2.903 0 5.032-2.2278 5.032-5.0838 0-2.8842-2.143-5.1103-5.032-5.1103Zm-9.9787 1.59525h.6358c.5116 0 1.8246.0712 1.8246 1.49845 0 1.3717-1.1607 1.5265-1.8122 1.5265h-.6482V9.51605ZM91.7947 8.117v9.8h1.4934v-3.9753h.6491c.7061 0 1.6052-.1117 2.3643-.7699.4843-.4205.9388-1.1201.9388-2.1424 0-.7285-.2351-1.73521-1.2012-2.3801-.7335-.48925-1.4786-.5323-2.1152-.5323h-2.1292Zm59.3043 9.8h2.71v-4.2137l2.804 4.2137H160l-3.773-5.054 3.676-4.74517h-3.18l-2.914 4.11607V8.11783h-2.71V17.917Zm-10.447 0h2.707v-3.919h3.291v3.919h2.708v-9.8h-2.708v3.5283h-3.291V8.117h-2.707v9.8Zm-5.86-7.463 1.106 3.6127h-2.213l1.107-3.6127Zm-5.089 7.463h2.904l.54-1.6929h3.289l.539 1.6929h2.903l-3.442-9.79917h-3.289l-3.444 9.79917Zm-5.511-1.9587v-2.058h1.16c.856 0 1.355.2509 1.355 1.0208 0 .7839-.511 1.0372-1.355 1.0372h-1.16Zm-2.71 1.9587h4.155c.745 0 3.778 0 3.778-3.0373 0-2.9397-3.04-2.9397-3.79-2.9397h-1.433v-1.4703h4.436V8.11783h-7.146V17.917Zm-39.0022-9.8v9.8h1.4934V9.51605h4.1186V17.917h1.4917v-9.8h-7.1037Zm-34.9251 0 3.4827 6.8736-1.2988 2.9256h1.5472l4.3677-9.7992h-1.5489l-2.2236 5.0821-2.5299-5.0821h-1.7964Zm-21.1845-.48512c1.3692.93629 2.2335 2.08948 2.2335 3.38672 0 1.2972-.8651 2.5216-2.2335 3.3867v-1.2252c.3352-.3013.6076-.6184.8038-.9512.2252-.3833.3485-.7865.3485-1.2095 0-.7202-.4321-1.51328-1.1523-2.08946V7.63188Z"/>
</svg>