<svg xmlns="http://www.w3.org/2000/svg" viewBox="0 0 140 30">
	<path fill="#fff" d="M127.633 18.3658h-4.444l2.222-5.8909 2.222 5.8909Zm-8.213 0h-1.256v3.1869h14.686v-3.1869h-1.256l-3.574-8.59491-.098-.28971-.192-.28972-.291-.19311-.289-.28971-.29-.1932-.387-.19311-.483-.0966h-.966l-.483.0966-.386.0966-.387.19311-.29.28971-.193.28971-.193.28972-.097.28971-3.575 8.59491Zm-8.985 0v-6.76h1.642l.291.0966.289.0965.194.0966.193.1931.192.1932.098.1931.096.1932.097.2897.096.2897v3.1869l-.096.2897-.097.2897-.096.2897-.098.1931-.096.1932-.193.1931-.194.0966-.192.0966-.291.0965-.289.0966h-1.546v.0966Zm-3.768 0h-1.546l-.29-.0966-.289-.0966-.194-.0965-.193-.0966-.194-.1931-.096-.1932-.097-.1931-.096-.2897-.097-.2897-.097-.2897v-2.9938l.097-.3863.097-.2897.096-.2897.097-.1931.096-.0966.194-.1932.193-.1931.29-.0966.289-.0965.291-.0966h1.642v6.76h-.193Zm0-13.80974v3.86287h-3.285l-.29.09651-.29.0966-.29.0966-.289.09651-.291.1932-.289.19311-.29.19312-.29.1932-.29.28971-.29.28971-.193.2897-.193.2897-.097.2897-.0968.2898-.0962.2897-.0963.2897-.0971.2897-.0962.2897-.0972.2897v4.3458l.0972.2897.0962.2897.0971.2897.0963.2897.0962.2898.0968.2897.097.2897.193.2897.193.2897.29.2897.29.2897.29.2897.29.1932.289.1932.291.1931.289.0966.29.0966.29.0965.29.0966h3.285v3.8628h3.768v-3.8628h3.382l.289-.0966.291-.0965.289-.0966.29-.0966.29-.1931.29-.1932.29-.1932.289-.2897.29-.2897.29-.2897.193-.2897.193-.2897.097-.2897.097-.2897.097-.2898.096-.2897.096-.2897.097-.2897.097-.2897v-4.3458l-.097-.2897-.097-.2897-.096-.2897-.096-.2897-.097-.2897-.097-.2898-.097-.2897-.193-.2897-.193-.2897-.29-.28971-.29-.28971-.289-.1932-.483-.19312-.291-.19311-.289-.1932-.29-.09651-.29-.0966h-.29l-.29-.0966h-3.285V4.65258h-3.671v-.09652ZM89.8556 9.28807l-.1934-.28972-.2896-.1932-.2905-.19311-.2896-.19311-.2896-.0966-.2905-.0966h-.6755l-.2906.0966-.2896.0966-.2896.09651-.2905.1932-.483.28971-.1925.28972-.1934.28971-5.2176 11.97492h3.9611l3.4782-8.8846 3.479 8.8846h3.9611L90.0481 9.57778l-.1925-.28971ZM71.4981 17.4966v-1.1588l.0962-.0965h4.4442v2.2211h-4.3479v-.4829l-.1925-.4829ZM68.406 8.41893v3.18687h6.9561l.0971.0966.0963.0965.0971.0966.0963.0966v.9657h-5.2177l-.3858.0965-.3867.0966-.2899.1931-.3865.1932-.3865.2898-.3865.3862-.2898.3863-.0966.3863-.1933.4828-.0966.4829-.0965.4829v2.2212l.0965.2897.0966.2897.0967.2897.0966.2897.0966.2897.0966.2897.1932.1931.1933.1932.1932.1932.2899.2897.3865.1931.3865.0966.3867.0966.2896.0965h7.6326l.2905-.0965.2896-.0966.2896-.1931.2897-.1932.1934-.2897.1933-.2898.0963-.2897.0971-.2897v-7.6291l-.0971-.4829-.0963-.4828-.0962-.3864-.1934-.3863-.1934-.5794-.1934-.28971-.1933-.28971-.2896-.28972-.2897-.19311-.2905-.1932-.3858-.19311-.3868-.0966-.3867-.09651H68.406Zm-6.2802 8.88457-.0966.0966-.0966.0965-.0967.0966-.0966.1932-.1932.0965-.1933.0966-.1932.0966-.2899.0965-.2898.0966H57.778v-6.76h2.8985l.2898.0966.2899.0966.1933.0965.1932.1932.1932.1931.0967.1932.0966.1931v3.8629l-.0966.2897-.0967.2897.2899.2897Zm-4.3478 4.2492h4.1546l.2898-.0966.2899-.0965.2898-.0966.2899-.0966.2899-.0965.2898-.1932.2898-.1932.2899-.1931.2898-.2898.2899-.2897.2898-.2897.1933-.2897.1932-.2897.0967-.2897.0966-.2897.0966-.2898.0966-.2897.0966-.2897.0967-.2897v-4.3457l-.0967-.2897v-.5795l-.0966-.2897-.0966-.2897-.1932-.3863-.1933-.2897-.1932-.2897-.0967-.3863-.2898-.28971-.2899-.28971-.2898-.1932-.1933-.19312-.2898-.19311-.2898-.0966-.2899-.0966-.2898-.09651-.1933-.0966-.2898-.0966-.2899-.09651h-6.1835l-.1933.09651-.2898.0966-.2899.0966-.1933.19311-.1932.0966-.1932.19311-.1933.19312-.0966.1932-.0966.28971-.1933.28971v15.1617h3.7682v-3.7662ZM53.4301 8.41893h-3.9614l-3.6714 8.20857-3.3817-8.20857h-4.058l5.604 12.55437-2.1257 4.5388h3.9614l7.6328-17.09317ZM35.749.5h99.614c1.255 0 2.415.57943 3.284 1.35205.87.86914 1.353 2.02799 1.353 3.28344V24.7395c0 1.2555-.579 2.4143-1.353 3.2835-.869.8692-2.029 1.352-3.284 1.352H35.749c-1.2561 0-2.4155-.5794-3.285-1.352-.8696-.8692-1.3527-2.028-1.3527-3.2835V5.232c0-1.25545.5797-2.4143 1.3527-3.28344C33.2369 1.07943 34.3963.5 35.749.5ZM11.5797 11.9907c-1.3398.9655-2.39255 2.414-2.39255 4.2486 0 1.545.76563 2.9934 1.91395 4.0556.7657.6759 1.2442.6759 1.2442-.0966v-7.8214c0-.3862-.3828-.5793-.7656-.3862Zm5.0721-4.7315c-.2871-.09651-.3828-.28962-.3828-.48274V4.07271c0-.28962-.2871-.48282-.6699-.28962-1.1485.77245-1.914 1.35179-3.0624 2.12432-.1914.09652-.2871.28963-.2871.57934v.48283c0 .19311-.1914.38622-.3828.48273-.4785.19312-1.0528.38632-1.5312.57943-3.15815 1.5449-5.35921 4.63486-5.35921 8.30416 0 3.283 1.81825 6.5661 4.78502 8.4007.57419.3863 1.14839.4829 1.72249-.0965 1.5313-1.4485 3.0625-2.8968 4.5936-4.3452.1915-.1931.3828-.4829.3828-.8691V12.57c0-.5793.3828-.4827.6699-.2896 1.4356.9656 2.3925 2.5105 2.3925 4.152 0 1.3519-.4784 2.5106-1.3398 3.4762-.287.3863-.287.3863-.3828.8691v3.6692c0 .5794.5743.5794.8614.3863 2.9667-1.6416 4.9764-4.9246 4.9764-8.4973 0-4.4418-3.1582-8.01454-6.9861-9.0767ZM4.11513.5H24.4034c2.2968 0 4.1151 1.93121 4.1151 4.15205V25.2195c0 2.3174-1.8183 4.152-4.1151 4.152H4.11513C1.81834 29.4681 0 27.5369 0 25.316V4.65205C0 2.43121 1.81834.5 4.11513.5Z"/>
</svg>