<svg xmlns="http://www.w3.org/2000/svg" viewBox="0 0 100 32">
	<path fill="#fff" d="M46.0799 17.0402c-.64-.88-1.6-1.44-2.64-1.68.96-.24 1.84-.8 2.4-1.6.56-.8.88-1.76.8-2.72 0-2.55996-1.84-4.79997-5.44-4.79997h-9.84V25.0402h10.24c3.6 0 5.44-2.24 5.44-5.04 0-1.04-.32-2.16-.96-2.96Zm-10.72-7.35996h5.04c.32 0 .56 0 .8.08s.48.23996.72.39996c.24.16.4.4.48.72.08.24.16.56.16.8 0 .32-.08.56-.16.8s-.24.48-.48.72c-.24.16-.48.32-.72.4-.24.08-.56.16-.8.08h-5.04V9.68024Zm5.12 11.91996h-5.12v-4.4h5.12c.32 0 .64 0 .88.08.32.08.56.24.8.48s.4.48.56.72c.16.32.16.56.16.88.08 1.44-.88 2.24-2.4 2.24Zm18.4-8.48h-4.88V9.76024h9.68V6.24023h-13.68V25.0402h8.88c4 0 6.24-2.72 6.24-6s-2.24-5.92-6.24-5.92Zm1.84 6.96c-.16.32-.32.56-.56.8-.24.24-.56.4-.88.56-.32.08-.64.16-.96.16h-4.32v-4.88h4.32c.32 0 .64 0 .96.16.32.08.64.32.88.56.24.24.4.48.56.8.16.32.24.64.24.96 0 .32-.08.56-.24.88Zm15.68-13.83997h-8.8V25.0402h4v-6.64h4.8c4.08 0 6.32-2.8 6.32-6.08 0-3.27996-2.24-6.07997-6.32-6.07997Zm2 7.11997c-.16.32-.32.64-.64.88-.24.24-.56.4-.88.56-.32.08-.72.16-1.04.08h-4.24V9.84024h4.24c.32 0 .72 0 1.04.08.32.07996.64.31996.88.55996s.48.56.64.88c.16.32.24.64.24 1.04 0 .32-.08.64-.24.96Zm15.2-7.11997h-8.8V25.0402h4v-6.64h4.8c4.08 0 6.32-2.8 6.32-6.08 0-3.27996-2.16-6.07997-6.32-6.07997Zm2.08 7.11997c-.16.32-.32.64-.64.88-.24.24-.56.4-.88.56-.32.08-.72.16-1.04.08h-4.32V9.84024h4.24c.32 0 .72 0 1.04.08.32.07996.64.31996.88.55996s.48.56.64.88c.16.32.24.64.24 1.04.08.32 0 .64-.16.96ZM4.48 15.04l6.24-.32.56 10-6.24.32-.56-10Zm7.12 7.44 1.6-6.08 9.68 2.56-1.6 6.08-9.68-2.56Zm4-7.92 5.44-8.4 5.28 3.44001L20.88 18l-5.28-3.44ZM8.24001 3.92 13.2 0l6.32 7.76001L14.64 11.68c-.08.08-6.31999-7.76-6.39999-7.76ZM0 9.60001l9.36001-3.6L11.6 11.84l-9.36 3.6L0 9.60001Z"/>
	<path fill="#FFD101" d="M4.71997 29.2793H100v2.08H4.71997v-2.08Z"/>
</svg>