<svg xmlns="http://www.w3.org/2000/svg" viewBox="0 0 170 18">
	<path fill="#fff" d="M39.2996 12.7644c-.2685.0895-.358.358-.6266.358-.3581.0896-.7162.0896-1.0743.0896h-4.3865V8.73591h3.3123c.3581 0 .6266.08952.9847.26857.2686.08952.3581.4476.3581.71616h.9847V6.22933h-.9847c0 .26856-.0895.44761-.3581.62665-.2685.08952-.4476.08952-.8057.08952h-3.4018V4.17035h3.7599c.3581 0 .8057.08952 1.2533.08952.2686 0 .4476.08952.6267.35809.2685.26856.358.4476.358.71616h.9848V2.37994H29.0943v.98473c.2685 0 .4476.08952.6266.26856.0895.08952.0895.35808.0895.62664V13.391c.0895.2686 0 .3581-.0895.6266-.0895.0896-.3581.2686-.6266.2686v.8057h11.3691v-3.0437h-.9847c.0895.2685 0 .4476-.1791.7162ZM22.3802 3.45419c.2686 0 .4476.08952.6266.26856.0896.08952.0896.35808.0896.62664v2.95419h-5.1027V4.25987c0-.35808.3581-.71616.8057-.71616v-.98473h-4.8342v.98473c.2686 0 .4476.08952.6267.26856.0895.08952.2686.35808.2686.62664V13.57c0 .2686 0 .3581-.0896.6267-.0895.0895-.3581.2685-.6266.2685v.9848h4.8341v-.9848c-.2686 0-.3581-.0895-.6266-.2685-.0896-.0895-.0896-.3581-.0896-.6267V9.18352h4.8342V13.57c0 .2686 0 .4476-.4476.7162-.0896.0895-.3581.2686-.6267.2686v.9847h5.0132v-.9847c-.2686 0-.4476-.0896-.6267-.2686-.0895-.0895-.0895-.3581-.0895-.6266V4.17035c0-.35808.3581-.71616.8057-.71616v-.98473h-4.8341l.0895.98473Zm34.1969 0h.0896c.2685 0 .4476.08952.6266.26856.0895.08952.0895.35808.0895.62664v8.95211h-3.6703V4.43891c0-.26856 0-.4476.0895-.71616.0895-.08952.2686-.26856.4476-.26856h.0895v-.98473h-4.7446v.80569c.0895.08952.0895.08952.2686.08952.0895 0 .3581.08952.4476.26856.0895.26856.0895.4476.0895.71616v8.95211h-.6266c-1.0743.0895-2.1485-.2686-3.0437-.9848-.7162-.7161-1.0743-1.7008-.9848-2.7751 0-.98473.2686-1.96946.4476-2.77514.0896-.35809.2686-.80569.4476-1.34282.2686-.35808.3581-.80568.6267-1.25329.0895-.4476.4476-.71616.9847-.80568v-.98473H43.149v.98473c.4476.08952.7162.26856.7162.35808 0 .35808-.0895.71616-.3581 1.07425l-.2686.35808c-.0895.08952-.0895.35809-.2685.44761-.0895.26856-.0895.35808-.2686.62664l.2686.62665c-.6267 1.25329-.7162 2.68562-.3581 4.02842.0895.4476.3581.9847.6266 1.4323.2686.4477.6267.8057.9848 1.2533 1.2533 1.0743 2.9542 1.7009 4.6551 1.7009h12.5329v-.9847c-.2686 0-.4476-.0895-.6267-.2686-.2685-.2685-.2685-.4476-.2685-.7161V4.34939c0-.26856 0-.35808.0895-.62664.2685-.08952.3581-.26856.6266-.26856h.0896v-.98473h-4.7447v.98473ZM10.653 9.00448c-.6267-.35809-1.34284-.62665-2.14852-.80569.71616-.26856 1.43233-.62665 1.96942-1.07425.3581-.35808.6267-.98473.6267-1.61137 0-.62665-.0895-1.07426-.3581-1.61138-.2686-.35808-.6266-.71617-1.07425-.98473-.44761-.26856-.98473-.35808-1.43234-.35808-.71616-.08952-1.43233-.08952-2.1485-.08952H0v.80569c.268562.08952.447604.26856.626645.35808.089521.26856.089522.35808.089522.62664V13.391c.08952.2686-.000001.4476-.089522.6266-.08952.0896-.358083.2686-.626645.2686v.9847h6.71406c.62665 0 1.25329 0 1.79042-.0895.4476 0 .80568-.0895 1.34281-.2686.35811-.0895.71621-.358.98471-.6266.7162-.7162 1.2533-1.7009 1.0743-2.7751 0-1.0743-.3581-1.87998-1.2533-2.50662ZM4.02844 4.17035h1.96945c.44761 0 1.07425.08952 1.43234.44761.35808.26856.4476.71616.4476 1.25329.08952.4476-.08952.98473-.4476 1.25329-.35809.26856-.98473.35808-1.43234.35808H4.02844V4.17035Zm2.05897 9.31015H4.02844V9.094h2.05897c.71617 0 1.34282.08952 1.79042.62664.44761.35806.71617.98476.71617 1.61136 0 1.4323-.80569 2.1485-2.50659 2.1485ZM149.231 2.46946v.98473c.269 0 .448.08952.627.26856.089.08952.089.35808.089.62664v2.95419h-5.013V4.25987c0-.35808.358-.71616.895-.71616v-.98473h-4.834v.98473c.269 0 .448.08952.627.26856.089.08952.089.35808.089.62664V13.57c0 .2686 0 .4476-.089.6267-.09.0895-.358.2685-.627.2685v.9848h4.834v-.9848c-.268 0-.358-.0895-.626-.2685-.09-.0895-.09-.3581-.09-.6267V9.18352h5.013v4.47608c.09.2685 0 .4476-.089.6266-.09.0895-.358.2686-.627.2686v.9847h4.834v-.9847c-.268 0-.447-.0896-.626-.2686-.09-.0895-.09-.3581-.09-.6266V4.17035c0-.35808.358-.71616.895-.71616v-.98473h-5.192ZM139.473 13.391l-4.207-11.10058h-3.312L127.836 13.212c-.09.4476-.358.8056-.806.9847v.9847h3.849v-.9847c-.089 0-.358 0-.447-.0895-.09-.0896-.269-.2686-.269-.3581v-.3581l.806-2.5066h4.118l1.074 2.6856v.1791c-.089.0895-.089.2685-.268.3581-.09 0-.358.0895-.448.0895v.9847h4.834v-.9847c-.268-.0895-.627-.4476-.806-.8057Zm-7.877-4.38652 1.432-4.02844 1.432 4.02844h-2.864Zm37.777 5.01312c-.268-.0895-.358-.2685-.447-.4476l-4.476-6.80354 2.775-2.50659c.268-.08952.627-.35808.806-.4476.268-.08952.626-.26856.805-.26856v-.98473h-5.192v1.07425c.448 0 .716.26856.716.35808 0 .08952-.089.26856-.358.4476l-3.491 3.13323V4.25987c-.09-.26856 0-.4476.089-.62664.09-.08952.358-.26856.627-.26856v-.98473h-4.834v.98473c.268 0 .447.08952.626.26856.09.08952.09.35808.09.62664V13.391c.09.2686 0 .3581-.09.6266-.089.0896-.358.2686-.626.2686v.9847h4.834v-.9847c-.269 0-.358-.0895-.627-.2686-.089-.2685-.089-.358-.089-.6266v-3.3123l1.432-1.25327 3.044 4.65507c.089.0895.089.2686.089.3581 0 .2686-.089.3581-.626.4476v.9847H170v-.9847c-.179-.0895-.358-.179-.627-.2686Zm-44.939-5.37121c-.716-.4476-1.432-.80568-2.328-1.25329-1.074-.35808-2.148-.71616-3.312-.98473h-.268v-2.1485h3.491c.806 0 1.253.35809 1.343 1.2533h.984V2.46946h-9.936v.98473c.268 0 .447.08952.626.26856.269.08952.269.35808.269.62664v9.13111c.089.2686 0 .3581-.09.6267-.089.2685-.358.2685-.626.2685v.9848h6.535c1.253.0895 2.327-.0896 3.401-.4477.448-.2685.985-.6266 1.254-1.0742.358-.4476.447-1.0743.447-1.7009s-.268-1.2533-.447-1.7904c-.358-.89522-.895-1.34282-1.343-1.70091Zm-1.97 3.84941c-.089.2685-.447.4476-.716.6266-.716.2686-1.432.3581-2.148.3581-.09 0-.448-.0895-.985-.0895V8.28831c.716.08952 1.432.35808 2.149.71617.626.26856 1.074.71616 1.432 1.25332.268.3581.448.8057.448 1.3428.089.2685.089.7161-.18.8952ZM80.0316 4.61796c-.3581-.44761-.8057-.98473-1.4323-1.25329-.3581-.26857-.7162-.35809-1.0743-.44761-.3581-.08952-.8057-.26856-1.2533-.26856-.4476-.08952-1.0742-.08952-1.9694-.08952h-.2686v-.35809c0-.35808.2686-.62664.7162-.71616V.5h-4.9237v.98473c.6267.08952.8057.35808.8057.71616v.35809h-.2685c-.8057 0-1.4324.08952-1.9695.08952-.3581 0-.8057.08952-1.2533.26856-.3581.08952-.7162.26856-1.0742.44761-.4476.35808-1.0743.71616-1.4324 1.25329-.8057 1.07425-1.3428 2.41706-1.3428 3.84939 0 1.25329.3581 2.41705.9847 3.40175.7162.9848 1.6114 1.7905 2.6857 2.4171 1.0742.6266 2.417.8057 3.6703.8057h.0895v.3581c0 .0895 0 .3581-.0895.4476-.0895.0895-.2685.2685-.4476.2685h-.0895v.9848h4.7446v-.9848h-.0895c-.0895 0-.3581-.0895-.4476-.2685-.0896-.0895-.0896-.3581-.0896-.4476v-.3581c1.2533 0 2.5066-.2686 3.6704-.8057 1.0743-.6266 2.059-1.4323 2.6856-2.4171.9848-1.6113 1.2533-3.67031.6267-5.46073-.3581-.53712-.7162-1.25329-1.1638-1.79041ZM70.811 13.391c-.7162-.0895-1.4324-.3581-1.9695-.7162-.6266-.3581-1.0742-.9847-1.3428-1.6113-.3581-.7162-.4476-1.61142-.4476-2.32759-.0895-1.07425.2685-2.1485.9847-3.0437.7162-.71617 1.7009-1.2533 2.7752-1.2533V13.391Zm6.9826-4.74461c0 .80569-.0895 1.61141-.3581 2.32751-.3581.6267-.7162 1.2533-1.3428 1.6114-.6267.4476-1.3428.7162-2.059.8057V4.43891c.9847 0 2.059.44761 2.7752 1.2533.8056.71616 1.1637 1.87993.9847 2.95418Zm19.6946 5.72931c-.0896 0-.2686 0-.3581-.0895-.0895-.0895-.2686-.2686-.2686-.3581-.0895-.0895-.0895-.2685-.0895-.3581V3.90179c0-.08952.0895-.26856.2686-.26856.0895-.08952.2685-.26856.4476-.26856v-.98473H92.475v1.07425c.0895 0 .3581 0 .4476.08952.0895 0 .2686.08952.2686.26856v1.87994l-5.4608 6.80359V3.81227l.2686-.26856c.0895-.08952.2685-.26856.4476-.26856v-.98473h-5.0132v.80568c.0895.08952.3581.08952.4476.26857.0895 0 .2686.08952.2686.26856v9.66827c0 .2685 0 .4476-.0896.6266-.0895.0895-.358.2686-.6266.2686v.9847h5.0132l4.8341-6.17692V13.212c.0895.358 0 .6266-.0895.8056-.0896.0896-.3581.2686-.6267.2686v.9847h5.1027v-.9847h-.179v.0895Zm9.9368-10.92151c.269 0 .448.08952.627.26856.089.08952.089.35808.089.62664v2.95419h-4.834V4.25987c0-.35808.358-.71616.806-.71616v-.98473h-4.8344v.98473c.2685 0 .4476.08952.6266.26856.0895.08952.0895.35808.0895.62664V13.57c0 .2686 0 .4476-.0895.6267-.0895.0895-.3581.2685-.6266.2685v.9848h4.8344v-.9848c-.269 0-.358-.0895-.627-.2685-.089-.2686-.089-.3581-.089-.6267V9.18352h4.834v4.47608c.089.2685 0 .4476-.09.6266-.089.0895-.358.2686-.627.2686v.9847h4.835v-.9847c-.269 0-.448-.0896-.627-.2686-.09-.0895-.09-.3581-.09-.6266V4.17035c0-.4476.359-.80569.806-.71616v-.98473h-4.834c.09 0 .09.80568-.179.98473Z"/>
</svg>