<svg xmlns="http://www.w3.org/2000/svg" viewBox="0 0 170 30">
	<path fill="#fff" d="M.60877 8.18507v.03543c.017707.05315.026565.09744.035414.14173.008858.0442.017707.08849.035414.14164l.035422.07077c.035414.1063.070828.2125.106241.28336l.035414.03544c.10625.24793.247915.49577.424985.7437l.03542.07086c.03541.03535.07083.07078.10624.14164v.03543c.03541.05306.07969.09735.12396.14163.04426.0443.08853.0886.12395.1416l3.04573-3.04564L4.75239.5 1.95455 3.26241l-.21249.24793C.962925 4.28948.537943 5.91853.502529 7.0518v.46043c0 .10621 0 .17707.035414.28327v.1063c0 .05315.008849.09735.017706.14164.008849.04429.017707.08857.017707.14163.035414-.03534.035414 0 .035414 0Zm19.79713-.46034v.1063c0 .03543 0 .03543-.0709.1062 0 .01772-.0088.04429-.0177.07086-.0088.02658-.0177.05315-.0177.07087v.03534c0 .03543-.0088.06201-.0177.08858-.0089.02657-.0177.05315-.0177.08858 0 .01762-.0089.0442-.0177.07077-.0089.02658-.0178.05315-.0178.07086-.0176.03544-.0264.07078-.0353.10621-.0089.03543-.0177.07086-.0354.1063 0 .01771-.0089.03543-.0177.05305-.0089.01772-.0178.03543-.0178.05315-.0177.03543-.0354.07972-.0531.12392v.00018l-.0001.00009c-.0176.0442-.0353.0884-.053.12374l-.0354.07086c-.1416.28328-.3188.60198-.5312.84991l-.0354.03544c-.0709.10616-.1771.21246-.248.28326v.0001c-.85-.70836-1.9478-1.09793-3.0811-1.09793-1.275 0-2.5145.49586-3.4352 1.41663l-4.42701 4.4269.03543-6.62267 4.49778-4.53309c.85-.85 1.9478-1.31043 3.152-1.38121h.2125c1.1687 0 2.2311.46034 3.0456 1.27491.9562.95621 1.3458 2.69155 1.2396 3.89569v.1062ZM1.31703 10.6288C.679553 9.99128.219157 9.1768.0420796 8.29137L.00666602 13.7808C-.0641613 15.1265.431648 16.4369 1.38786 17.3576l6.33936 6.3394v-1.9832l.03543-.0355 2.33745-2.3374c-.34684-.3293-2.45037-2.4241-4.51184-4.4768-2.14949-2.1405-4.25315-4.2353-4.27123-4.2353ZM20.8662 8.39757c-.2125.81457-.6375 1.59371-1.2395 2.19573l-.0355.0355L8.29385 21.9263l-.03543 6.6225L19.485 17.3576c.9917-.9916 1.4875-2.3728 1.3812-3.754V8.39757Zm15.2995 1.62913c0-1.52283-1.0979-2.58524-3.329-2.58524h-4.6749V17.6764h5.2415c1.9124 0 3.2228-1.2041 3.2228-3.0103 0-1.3103-.7438-2.1957-1.9125-2.479.85-.3542 1.4521-1.1688 1.4521-2.1604Zm-3.8249 1.7h-2.4436V8.89344h2.5145c1.027 0 1.9478.14163 1.9478 1.41666 0 1.027-.6729 1.4166-2.0187 1.4166Zm.2479 4.4977h-2.6561v-3.1873h2.6561c1.1687 0 2.2312.177 2.2312 1.5937 0 1.3103-1.027 1.5936-2.2312 1.5936Zm11.8642 1.4165V8.99964h-3.152l-.2125 4.85186c-.1063 2.8686-1.275 4.0019-2.7624 4.0019-.3896 0-.8146-.1062-1.0624-.177v-1.3813c.2125.0709.5666.1063.7082.1063.7437 0 1.3104-.425 1.3812-3.0457l.2125-5.94976h6.6935V17.6409h-1.8061Zm10.9078.0355h1.9125L53.3421 7.44146h-1.9124L47.4631 17.6764h1.8416l.9916-2.7269h4.0727l.9917 2.7269Zm-4.604-4.0727 1.5937-4.3207 1.5229 4.3207h-3.1166Zm15.7599 6.5871v-2.5144h-6.6581v2.5499h-1.7708v-4.1082h.9917c.7791-1.3812 1.3458-4.2853 1.3458-7.11846v-1.5937h6.6581v8.67666h1.1332v4.1082h-1.6999ZM65.277 8.99964h-3.1165v.60207c0 2.54979-.5312 5.24149-1.1687 6.51639h4.2852V8.99964Zm4.4978 8.67676h4.8519c2.2312 0 3.5061-1.1332 3.5061-3.1519s-1.2749-3.152-3.5061-3.152H71.581V8.99973h5.7373V7.44146h-7.5435V17.6764Zm1.7708-4.8518h2.9749c1.1333 0 1.8062.6375 1.7708 1.7353 0 1.0978-.6021 1.6645-1.7708 1.6645h-2.9749v-3.3998Zm8.3225-5.38314h1.7708v7.86214l4.4267-7.86214h2.0543V17.6764h-1.7706V9.81421l-4.427 7.86219h-2.0542V7.44146Zm10.0583 6.83504c0 2.4791 1.8763 3.6124 4.3207 3.6124 2.8685 0 3.8957-1.9125 3.9306-3.1874 0-1.3103-.8142-2.3019-1.9479-2.5144v-.0355c.7794-.2125 1.6294-1.1333 1.6294-2.19575 0-1.91241-1.6643-2.76232-3.6837-2.76232-2.0892 0-3.7534.92077-3.8241 3.22277h1.7c.1056-1.27493.9556-1.80623 2.2306-1.80623 1.1336 0 1.8065.5313 1.8065 1.45203 0 .9562-.7087 1.5937-1.6293 1.5937h-1.2393v1.3813h1.2393c1.1685 0 1.9129.5312 1.9129 1.629 0 1.1687-.7086 1.8062-2.0194 1.8062-1.4522 0-2.6556-.6021-2.6556-2.1958h-1.7707Zm18.4866 3.3999h-1.806v-4.6039h-4.675v4.6039h-1.806V7.44146h1.806v4.07274h4.675V7.44146h1.806V17.6764Zm4.179-8.7121h5.596V7.44146h-7.367V17.6764h7.437v-1.5228h-5.666v-3.0458h5.171v-1.452h-5.171V8.9643Zm11.899 8.9601c-2.903 0-4.781-2.1249-4.781-5.3478 0-2.90403 1.771-5.34764 4.887-5.34764 2.055 0 3.932 1.13327 4.286 3.50614h-1.77c-.249-1.2396-1.205-1.9833-2.516-1.9833-2.159 0-3.045 1.9478-3.045 3.8248 0 1.9124.85 3.8248 3.011 3.8248 1.664 0 2.443-1.0978 2.62-2.6206h1.806c-.248 2.479-1.948 4.1436-4.498 4.1436Zm14.521-9.95174v-.5312h-7.048V17.6764h4.356c1.169 0 3.329-.5666 3.329-2.8686 0-1.8062-1.204-2.8332-3.258-2.8332h-3.789V7.97266h6.41Zm-6.375 9.17254v-4.604h3.895c1.878 0 2.55 1.2396 2.55 2.302 0 1.1333-.708 2.302-2.904 2.302h-3.541Zm16.503.5312h-.673l-1.275-3.2936h-4.923l-1.309 3.2936h-.709l4.143-10.23494h.673l4.073 10.23494Zm-4.232-9.10122v-.00045c-.062-.18592-.123-.37185-.194-.53129-.072.17716-.133.34537-.195.51358-.062.16821-.125.33642-.195.51349l-1.912 4.78109h4.568l-1.877-4.74566c-.071-.15927-.132-.34501-.195-.53076Zm13.016 9.10122h.637V7.44146h-.637v4.60394h-6.552V7.44146h-.603V17.6764h.603v-5.0643h6.552v5.0643Zm6.48-5.9851 4.994 5.9851h-.779l-4.675-5.5601-2.125 1.9477v3.6124h-.602V7.44146h.602v5.87884l6.481-5.87884h.814l-4.71 4.24984ZM170 19.3764H69.7748v-.2479h99.9412l.284.2479Z"/>
</svg>