<svg xmlns="http://www.w3.org/2000/svg" viewBox="0 0 170 24">
	<g fill="#fff">
		<path opacity=".5" d="M23.2 0C17 0 12 5 12 11.1s5 11.2 11.1 11.2 11.2-5 11.2-11.2S29.4 0 23.2 0Zm0 21.6c-5.7 0-10.4-4.7-10.4-10.4S17.5.7 23.2.7s10.4 4.7 10.4 10.4-4.7 10.4-10.4 10.4Z"/>
		<path d="M37.2 0C31 0 26 5 26 11.1s5 11.2 11.1 11.2 11.2-5 11.2-11.2S43.3 0 37.2 0Zm0 21.6c-5.7 0-10.4-4.7-10.4-10.4S31.4.7 37.2.7s10.4 4.7 10.4 10.4-4.7 10.4-10.4 10.4ZM73.9 15.8c0-.3-.2-.3-.5-.2-.6.2-1.4.5-2.2.5-1.7 0-2.2-1.2-2.2-2.8s.6-2.9 2.1-2.9 1.3.1 1.9.4c.4 0 .5.1.6-.2l.5-1.5c.1-.3.1-.4-.2-.6-.9-.5-2-.7-3.1-.7-3 0-4.9 2.1-4.9 5.5s1.6 5.4 4.7 5.4 2.5-.2 3.6-.8c.3-.2.3-.3.1-.6l-.5-1.5ZM97.2 4.5h-8.7c-.9 0-1.3.4-1.3 1.3V18c0 .3.1.4.4.4h2.1c.4 0 .4 0 .4-.4V7.1h5.3V18c0 .3.1.4.4.4h2.1c.4 0 .4 0 .4-.4V5.8c0-.9-.3-1.3-1.3-1.3ZM109.2 8h-5.5c-.9 0-1.2.3-1.2 1.2v2.2c-.4 4-.7 4.7-2.1 5.3-.3.2-.4.3-.2.6l.5 1.3c0 .3.2.4.6.2 3-1 3.4-2.8 3.7-7.5v-1h2.5V18c0 .3 0 .4.5.4h2c.4 0 .5 0 .5-.4V9.2c0-.9-.3-1.2-1.2-1.2ZM131.8 8h-8.4c-.3 0-.4 0-.4.5v1.4c0 .3.1.4.4.4h2.8V18c0 .3.2.4.5.4h1.9c.4 0 .5 0 .5-.4v-7.7h2.8c.2 0 .4-.1.4-.4V8.5c0-.4 0-.5-.4-.5ZM158.6 18l-1-3.4c-.3-.9-.5-1.5-1.7-1.8.8-.4 1.2-1.1 1.4-1.9l.7-2.6c0-.1 0-.3-.2-.3h-2.2c-.1 0-.3 0-.3.3l-.7 2.2c-.4 1.1-.9 1.4-1.6 1.4h-.6V8.4c0-.3-.1-.3-.4-.3h-2.1c-.3 0-.4 0-.4.3v3.5h-.6c-.7 0-1.3-.3-1.6-1.4l-.7-2.2c0-.2-.2-.3-.3-.3h-2.2c-.3 0-.3.2-.2.3l.7 2.6c.2.8.6 1.5 1.4 1.8-1.1.4-1.4 1-1.7 1.9l-1 3.4c0 .2 0 .4.3.4h2.3s.3 0 .3-.2l.9-3.1c.2-.9.8-1.2 1.6-1.2h.8v4.2c0 .3 0 .3.4.3h2.1c.2 0 .4 0 .4-.3v-4.2h.8c.8 0 1.4.3 1.7 1.2l.9 3.1c0 .2.2.2.3.2h2.3c.3 0 .3-.2.3-.3ZM168.9 8h-1c-.7 0-.8.1-1.2.7-.9 1.4-1.5 2.4-2 3.2l-.3.6c-.2.4-.5.9-1.2 2V8.4c0-.3 0-.3-.4-.3h-2.1c-.2 0-.4 0-.4.3v9c0 .7.2 1.1 1.1 1.1h.9c.6 0 .8-.1 1.2-.7.4-.6.7-1.2 1.1-1.7.2-.4.5-.8.7-1.1.3-.4.5-.9.8-1.3.3-.5.6-1 .9-1.4v6c0 .3 0 .3.4.3h2.1c.3 0 .4 0 .4-.3v-9c0-.9-.4-1.1-1.1-1.1ZM61.9 10.8c.9-.6 1.5-1.7 1.5-2.8 0-2.5-1.8-3.5-4.2-3.5h-4.8c-.9 0-1.2.4-1.2 1.2v11.5c0 .9.2 1.2 1.2 1.2h4.9c2.6 0 4.7-1.7 4.7-4.2s-.6-2.8-2.1-3.4Zm-5.7-3.7H59c.8 0 1.4.5 1.4 1.3s-.8 1.4-1.5 1.4h-2.7V7.2Zm2.8 8.6h-2.8v-3.6H59c1.2 0 1.9.7 1.9 1.8s-.4 1.8-1.9 1.8ZM80.7 7.7c-2.9 0-4.8 2-4.8 5.5s1.6 5.4 5 5.4 2.5-.3 3.5-.9c.2-.1.3-.2.2-.5l-.6-1.4c0-.2-.2-.2-.5-.1-.7.3-1.5.5-2.2.5-1.3 0-2.3-.5-2.3-2.2h5c.9 0 1.5-.4 1.5-1.8 0-2.9-1.5-4.5-4.6-4.5Zm-1.8 4.5c0-1.2.8-2 1.9-2 1.4 0 1.8.9 1.8 2h-3.7ZM117.4 7.7c-1.3 0-2.6.2-3.8.6-.2 0-.3.2-.2.5l.3 1.4c0 .3.2.3.5.3.7-.2 2-.4 2.8-.4 1.5 0 1.7.7 1.7 1.4v.3h-2.2c-2.8 0-4.1 1.5-4.1 3.6s1 3.3 4.6 3.3 3-.2 4.1-.7c.4-.2.4-.4.4-.8v-5.8c0-2.4-1.3-3.6-4.1-3.6Zm1.3 8.4c-.5.2-1.3.3-1.6.3-1 0-1.7-.3-1.7-1.2s1.1-1.4 1.8-1.4h1.5v2.4ZM137.6 7.7c-3 0-4.8 2-4.8 5.5s1.6 5.4 5 5.4 2.5-.3 3.5-.9c.2-.1.3-.2.2-.5l-.6-1.4c0-.2-.2-.2-.5-.1-.7.3-1.5.5-2.2.5-1.3 0-2.3-.5-2.3-2.2h5c.9 0 1.5-.4 1.5-1.8 0-2.9-1.5-4.5-4.6-4.5Zm-1.8 4.5c0-1.2.8-2 1.9-2 1.4 0 1.8.9 1.8 2h-3.7ZM21.2 11.1c0 6-4.8 10.8-10.6 10.8S0 17.1 0 11.1 4.8.4 10.6.4s10.6 4.8 10.6 10.8Z"/>
	</g>
</svg>