<svg xmlns="http://www.w3.org/2000/svg" viewBox="0 0 100 36">
	<path fill="#fff" d="M6.90469 0 5.17676 4.73976H29.1136L30.8416 0H6.90469ZM4.3138 7.10762 2.58587 11.8464H26.5227l1.728-4.73878H4.3138ZM1.72793 14.2152 0 18.953h23.9369l1.7259-4.7388c.001.001-23.93487.001-23.93487.001ZM50.322 20.4405v.0984c1.0749.3948 2.1026 1.086 2.6401 1.53 1.6616 1.3824 2.396 3.2077 2.396 5.5766 0 3.9009-2.0534 6.7128-5.4279 7.6019-1.0277.2964-2.1027.3948-4.1069.3948H35.6064V7.11328h9.0456c1.8585 0 3.1283.09845 4.2525.39381 3.276.88908 5.4279 3.15951 5.4279 6.76201 0 1.9259-.6841 3.5553-1.8083 4.6403-.4893.4933-1.1734 1.086-2.2001 1.53l-.002.0011Zm-9.0445 3.0108v7.5024h3.9119c1.1724 0 2.2494-.0984 3.0309-.8388.7826-.7404 1.1242-1.6787 1.1242-2.9124 0-.9363-.2451-1.8254-.7334-2.4673-.8308-1.0368-1.8585-1.2839-3.6176-1.2839h-3.717.001Zm-.0503-4.9367h3.1786c.9775 0 1.4668 0 1.955-.1477 1.3211-.3958 2.1519-1.5782 2.1519-3.2077 0-1.9248-.8801-2.7647-2.1519-3.1585-.5385-.1487-1.0749-.1969-2.1509-.1969h-2.9827v6.7118-.001Zm22.6379 17.1286V11.9013h-8.1644V7.11429h22.6871l-1.6134 4.78701h-7.2372v23.7419h-5.6721Zm16.2828 0V7.11429h18.3844l-1.6134 4.78701H85.7717v6.319h4.5479c3.6668 0 5.5736.889 6.8946 2.0232 1.0277.8891 2.7868 2.8622 2.7868 6.7631 0 3.8497-1.8083 5.9714-3.3253 7.0584-1.76 1.2326-3.6176 1.5792-7.3838 1.5792h-9.144v-.001Zm5.6228-4.7889h4.2535c1.6134 0 2.5909-.3949 3.275-1.2839.3416-.4431.8309-1.2347.8309-2.7145 0-1.4798-.4893-2.5176-1.4668-3.258-.5857-.443-1.3693-.6891-2.6893-.6891h-4.2053v7.9455h.002Z"/>
</svg>