<svg xmlns="http://www.w3.org/2000/svg" viewBox="0 0 130 26">
	<path fill="#fff" d="M41.6634 1.35954C43.7011.783904 45.8217.529536 47.937.502756c1.7699-.01612 3.5532.02938 5.2936.382894 1.0416.20349 2.1019.57833 2.8517 1.36283.8594.80332 1.0656 2.04837 1.0469 3.17296-.0134 1.08983-.3507 2.26798-1.229 2.97752-.5248.41504-1.1353.72834-1.7913.86484-.0054.03216-.0134.09906-.0188.13122 1.4138.27308 2.8651.93448 3.6469 2.20098.6106 1.0683.7096 2.3482.6185 3.5505-.0883 1.1862-.5703 2.3777-1.4807 3.1676-.8407.7443-1.9332 1.1193-3.0122 1.3629-1.3495.2865-2.7312.3856-4.1075.4284-2.7954.1312-5.6176-.1259-8.3166-.8782.1767-1.288.4739-2.5598.6855-3.8424.3239.016.6506.0401.9693.1178 1.6654.3802 3.3576.7257 5.074.6989.9077.008 1.8395-.0402 2.7044-.3535.5033-.1928 1.0389-.5301 1.1701-1.0924.1713-.6935.1151-1.5209-.391-2.0699-.4927-.5515-1.2423-.7604-1.9493-.8648-1.7163-.2624-3.4621-.1124-5.1918-.166.0053-1.1031.0188-2.20364-.0107-3.30413 1.4485-.00806 2.8972.02947 4.3457-.03753.7015-.06959 1.4861-.24899 1.9199-.85947.6265-.80331.4337-2.26261-.5731-2.66959-.589-.29181-1.2664-.34268-1.9144-.34537-1.944-.03753-3.8504.39624-5.7488.75773-.3053-1.27721-.5087-2.57582-.8649-3.837ZM71.9949.72497c3.1945.021406 6.3916.00806 9.5862.005374.0052.835376-.0052 1.670756.0052 2.506226-2.3773-.01343-4.758-.00806-7.1353-.00269-.0035 1.66816-.0087 3.33892 0 5.00977 1.3009.00269 2.6026-.00537 3.9035.00269 1.2636.03484 2.6164.40967 3.4432 1.42982.9456 1.14064 1.125 2.68294 1.1328 4.11004.0164 1.3228-.0668 2.7125-.6743 3.9121-.4741.8889-1.3069 1.5851-2.2741 1.8769-.6717.2089-1.3815.2678-2.08.2625-1.9708 0-3.9416-.0027-5.9098 0 .0112-6.37.0052-12.74004.0026-19.11273Zm2.4448 9.80273c.0078 2.3241.0165 4.6456-.0026 6.9697 1.0816.0215 2.1606.0215 3.2422.0081.7636-.0322 1.6259-.1607 2.1398-.7899.6396-.7417.6986-1.7753.7046-2.7071.0052-.9559-.097-2.0162-.7713-2.7553-.5755-.581-1.417-.7149-2.1987-.7149-1.0357-.0079-2.0748.0081-3.114-.0106ZM111.182.727657c.801.016033 1.603.013346 2.407-.002687.041 4.50372.008 9.01013.019 13.51383-.011 1.869.022 3.7353-.017 5.6015-.8-.0026-1.603-.008-2.404.0027-.034-3.0632-.014-6.129-.01-9.1922-2.643 0-5.289.0054-7.932-.0027.022 2.857 0 5.7167.014 8.5737 0 .2116-.041.4204-.073.6292-.795-.0214-1.59 0-2.385-.0133.005-6.3647-.016-12.73198.011-19.096697.808-.002686 1.619-.002686 2.428.002687.037 2.56516-.013 5.13032.027 7.69279 2.64-.01074 5.278 0 7.918-.00268-.027-2.57322-.022-5.14098-.003-7.706143Zm6.006 0c.806.01066 1.615.016033 2.421 0 .085 2.816843-.038 5.638963.061 8.455803.447-.16328.664-.60779.956-.95056 1.547-1.95459 3.122-3.88786 4.667-5.84783.455-.5382.846-1.13533 1.355-1.62526.948-.058933 1.9-.002687 2.851-.013433-.573.899683-1.325 1.662783-1.989 2.495563-.965 1.11116-1.858 2.28393-2.828 3.3898-.771.97465-1.617 1.89037-2.375 2.87577.849 1.15669 1.66 2.34289 2.49 3.51299 1.323 1.7699 2.541 3.6147 3.856 5.3927.332.4712.632.9666 1.023 1.395-.956.0428-1.917.0428-2.871.0107-.508-.6266-.934-1.3174-1.413-1.9654-1.572-2.233-3.176-4.4475-4.74-6.6886-.232-.3266-.457-.6586-.711-.9719-.073-.0027-.218-.0054-.287-.0081-.045 2.1769-.005 4.3565-.019 6.536-.016 1.0389.043 2.0805-.043 3.1194-.798-.0161-1.595-.0026-2.394-.008-.024-6.3646-.007-12.73464-.01-19.104643ZM.326646.75175C3.68437.757123 7.0421.754436 10.3998.75175c1.4486.024093 2.9748.136587 4.2547.88088 1.0336.59176 1.7057 1.70837 1.8422 2.88115.1606 1.21827.0857 2.58119-.6962 3.588-.4311.62651-1.1139 1.02284-1.8128 1.27989.6454.2249 1.3121.44443 1.8476.88353 1.0737.814 1.5423 2.2091 1.5423 3.5184.0723 1.312-.0803 2.6936-.747 3.8477-.6373 1.0791-1.8395 1.6896-3.0284 1.9493-.9345.233-1.9064.2704-2.8678.2651-3.45665.008-6.91344-.0054-10.370226.008-.013434-.2517-.029468-.5007-.034841-.7497C.326646 12.9857.342766 6.86738.326646.75175ZM6.32987 4.25941c0 1.32808-.00537 2.65616.0026 3.98424.90775-.01335 1.8181.02409 2.72316-.01603.92109-.03216 1.65477-.897 1.70557-1.78603.0295-.58899-.0508-1.25311-.4846-1.69217-.38022-.3776-.93714-.49807-1.45662-.49538-.82732.00268-1.65741.00268-2.49011.00537Zm.0026 7.48379c-.00528 1.5424-.00797 3.0874.00269 4.6296.86753-.0053 1.73515.0027 2.60269-.0027.43645-.016.88625-.008 1.29595-.1767 1.3816-.4552 1.7672-2.4124.9452-3.5156-.4338-.6614-1.25584-.9479-2.01894-.9452-.9425.016-1.885 0-2.82759.0106ZM18.9146.757123c2.375-.013433 4.7473.007974 7.125-.010746 1.387 3.593373 2.6428 7.237533 3.9709 10.855023.0482-.0027.1472-.0108.1954-.0161 1.0444-3.62011 2.26-7.18939 3.3042-10.80677 2.126-.058934 4.2547-.010747 6.3834-.024093-.1419.690823-.4659 1.322703-.7149 1.976083-1.5932 4.14224-3.2078 8.27368-4.8063 12.41058-.6694 1.7753-2.0805 3.2319-3.7941 4.0271-1.2076.5972-2.5518.8783-3.8906.9533-2.3643.0589-4.7259-.2276-7.0421-.6829.3856-1.2557.7604-2.5168 1.0416-3.7994 1.1567.257 2.3161.5837 3.513.5783 1.0068.0161 2.0778.0161 2.9882-.4712.4445-.2169.731-.6346 1.0309-1.0095-1.3817-.1392-2.7606-.6747-3.746-1.6788-.6693-.6614-.9452-1.5851-1.3147-2.4232-1.2933-2.94538-2.5651-5.89612-3.8396-8.84686-.1553-.33731-.3026-.6747-.4043-1.030817ZM90.0605.72497c.9594.032153 1.9206-.016033 2.8817.029467.0399.024093.1179.074967.1577.101747C94.3367 5.33044 95.6306 9.79394 96.8621 14.2709c.5677 1.8449 1.0331 3.7165 1.5878 5.5641-.865 0-1.7299 0-2.5974.0027-.3692-1.5022-.8138-2.9829-1.183-4.485-.065-.241-.1101-.4927-.2522-.7015-1.9414-.0161-3.8801.0106-5.8206-.0108-.5442 1.7083-.9507 3.4568-1.4092 5.1892-.8614.0107-1.7238.0134-2.5861 0 1.1483-4.0592 2.2949-8.1211 3.4537-12.17771.6725-2.30811 1.2852-4.63493 2.0054-6.92692Zm.9776 4.54385c-.6612 2.36704-1.3494 4.7287-1.9812 7.10368 1.6545.0375 3.3064-.008 4.9617.0214-.8649-2.96136-1.599-5.96028-2.4423-8.92974-.2331.5837-.3804 1.19686-.5382 1.80466ZM63.5983 8.00003c.6399-.20089 1.3602-.17411 1.9676.11509.8814.39893 1.5349 1.29593 1.58 2.27058.0346.8756-.3103 1.8048-1.0279 2.3376-.6985.5596-1.6843.7041-2.5304.4445-.9533-.3214-1.7298-1.1916-1.8476-2.201-.2008-1.26923.6292-2.59462 1.8583-2.96677ZM0 23.0883c4.52244-.059 9.04488-.0081 13.5674-.0241H121.092c2.969.016 5.939-.0376 8.908.0268-.069.6881-.037 1.3789-.037 2.0697-10.419.0214-20.84.0027-31.2583.0081-32.903-.0081-65.8024.008-98.7047-.0081v-2.0724Z"/>
</svg>