<svg xmlns="http://www.w3.org/2000/svg" viewBox="0 0 47 40">
	<path fill="#fff" d="M14.1921 39.8766v-8.0973h1.4007v8.0925l-1.4007.0048Zm-5.64942-1.6701c0 1.1327.83425 1.7927 2.50442 1.7927.8326 0 1.6717-.1855 2.0816-.4017v-3.421c0-1.4233-.7875-1.9816-2.2139-1.9816-.7065.0053-1.4059.1421-2.06231.4034l.35181.9488c.49489-.2014 1.0215-.3134 1.5555-.3308.6423 0 1.0441.2162 1.0441.7955v.2873c-1.6879.0936-3.26122.3921-3.26122 1.9074Zm1.32481-.0307c0-.8343.89881-.9279 1.93641-.9812l.0048 1.6928c-.2591.0772-.5284.1147-.7987.1113-.7262 0-1.14251-.2985-1.14251-.8229Zm-4.66344 1.7008h1.45228l1.61366-5.5575H6.87734l-.80682 3.4047c-.08715.4197-.13875.9038-.13875.9038h-.01773s-.02663-.1471-.06761-.3477c-.03388-.1661-.07768-.369-.12441-.5561l-.89562-3.4047H3.53548l-.89397 3.4047c-.10645.4197-.19202.9038-.19202.9038h-.0145s-.00866-.0732-.0245-.1868l-.01403-.0978-.0156-.1029c-.01639-.1053-.03608-.223-.05854-.3409-.01127-.0589-.02324-.1179-.03577-.1754l-.79233-3.4047H.0822754L1.69593 39.8766h1.45228l.84875-3.1645c.07595-.274.13371-.5526.17271-.8342h.01615c.03814.2808.09203.5594.16137.8342l.85686 3.1645Zm11.56345-8.0973v8.0973l1.4039-.0048v-8.0925h-1.4039Zm7.2243 5.4153-3.5759.4841c.1259.8069.723 1.2183 1.5378 1.2183.5353.0008 1.0637-.1194 1.5459-.3517l.4034 1.0504c-.4631.2356-1.2441.4019-2.0509.4019-1.8348 0-2.8062-1.1942-2.8062-2.9046 0-1.7106.9682-2.8965 2.5819-2.8965 1.5329 0 2.3914 1.0117 2.3914 2.527.0009.0422.0009.0844 0 .1267-.0005.025-.0014.0501-.0026.075-.0041.0901-.0124.1799-.0248.2694Zm-2.3996-1.9783c-.7325 0-1.2457.5374-1.2666 1.5765l2.3333-.3227c0-.8327-.4196-1.2538-1.0667-1.2538Zm3.5679 2.9902c0 1.165.5066 1.7507 1.5765 1.7507.1867.0033.3726-.017.5534-.06.0992-.0236.1968-.0542.2921-.0916v-1.1634c-.1279.0511-.264.0785-.4017.0807-.3648 0-.6455-.1533-.6455-.6084v-2.7433h1.0472v-1.052h-1.0472v-1.6379l-1.3748.4018v1.2361h-.7084v1.052h.7084v2.8353ZM39.633 39.8777v-3.6598c0-.5583-.3404-.8971-.9794-.8971-.2854-.0023-.5691.0435-.8392.1355v4.4214h-1.399v-5.2783c.705-.278 1.4577-.4151 2.2156-.4034 1.6507 0 2.4204.6826 2.4204 1.8751v3.8066H39.633Zm-6.5869.1229c-1.6136 0-2.5173-1.2459-2.5173-2.9046 0-1.6589.8972-2.895 2.5173-2.895s2.5141 1.2377 2.5141 2.8966c0 1.6589-.8956 2.903-2.5141 2.903Zm0-4.699c-.7423 0-1.1134.6713-1.1134 1.775s.3711 1.775 1.1134 1.775 1.1151-.6583 1.1151-1.775c0-1.1166-.3696-1.775-1.1151-1.775ZM43.2606 37.68l3.5758-.4841c.0108-.0766.0187-.1535.0239-.2305.0053-.0801.0076-.1603.0067-.2407 0-1.5153-.8552-2.527-2.3914-2.527-1.6233 0-2.5818 1.186-2.5818 2.8966 0 1.7104.9714 2.9045 2.8029 2.9045.8036 0 1.5878-.1662 2.0525-.4018l-.4066-1.0504c-.4821.2322-1.0107.3525-1.5458.3517-.815 0-1.4087-.4115-1.5362-1.2183Zm-.0839-.8859c.0209-1.0391.5373-1.5765 1.2699-1.5765.6471 0 1.0602.4211 1.0602 1.2537l-2.3301.3228ZM39.3507 12.4315v10.7857c0 2.109 1.6136 3.834 3.5791 3.834 1.9654 0 3.5839-1.7266 3.5839-3.834V3.83561c.0336-.49482-.0415-.991-.22-1.45373s-.4561-.8808-.8132-1.2249c-.3572-.344105-.7853-.605899-1.2544-.767025-.4691-.161126-.9677-.217682-1.4609-.165701-.4208.021689-.8337.122988-1.2167.298526-.4737.201655-.9039.49318-1.2667.85846-4.4471 4.44407-8.8499 8.91486-13.2934 13.36106V3.83404C26.9884 1.725 25.3747 0 23.4077 0c-.8183.00917192-1.6061.311473-2.2204.852008-.22.147215-.4249.315862-.6116.503462L7.16463 14.7698V3.83404C7.16463 1.725 5.55098 0 3.58232 0 1.61367 0 .00001338 1.725.00001338 3.83404V22.9994c-.00199351.7671.21888062 1.5183.63577962 2.1623.137784.2513.309351.4826.509917.6874.42986.4191.96335.7165 1.54587.8617h.01292c.6514.1596 1.33308.1473 1.97829-.0358.64521-.183 1.23184-.5304 1.70245-1.0082L19.827 12.2299v10.7663c.0009.5499.1152 1.0937.3356 1.5975.1682.4697.4369.8971.7875 1.2522 1.3909 1.3942 3.7517 1.3119 5.2411-.1791 4.4029-4.3979 8.7607-8.8421 13.1595-13.2353Zm5.9867-8.67569-.0028.03985V23.2172c0 1.5314-1.1633 2.655-2.4048 2.655-1.2399 0-2.4001-1.1201-2.4001-2.655V9.58765l-3.2661 3.26195c-1.0851 1.0839-2.699 1.0556-3.5753.1784-.8757-.8768-.9044-2.4863.1851-3.57581l7.2434-7.2385.0015-.00155c.2555-.25722.5584-.46251.892-.60451l.0148-.0063.0146-.00669c.2475-.11343.5143-.17889.7862-.1929l.0315-.00162.0314-.00331c.3221-.03396.6479.00299.9543.10824.3063.10525.586.27626.8193.50103.2333.22478.4146.49787.5312.80013.1166.30226.1657.62637.1438.9496Z"/>
</svg>