<svg xmlns="http://www.w3.org/2000/svg" viewBox="0 0 160 24">
  	<path fill="#fff" d="M113.7 6.1c-.9-.5-1.9-.8-3-.8s-1.8.2-2.6.6c-.8.4-1.4.9-1.8 1.4v-5h-2.6v15.5h2.6V16c.4.6 1 1.1 1.8 1.4.8.4 1.6.6 2.6.6s2.1-.3 3-.8c.9-.5 1.6-1.3 2.2-2.3.5-1 .8-2.1.8-3.3s-.3-2.3-.8-3.3-1.2-1.7-2.1-2.2Zm-.3 7.7c-.4.6-.8 1.1-1.4 1.5-.6.3-1.2.5-1.9.5s-1.3-.2-1.9-.5c-.6-.3-1.1-.8-1.4-1.4-.4-.6-.5-1.4-.5-2.2s.2-1.6.5-2.2c.4-.6.8-1.1 1.4-1.4.6-.3 1.2-.5 1.9-.5s1.3.2 1.9.5c.6.3 1.1.8 1.4 1.4.4.6.5 1.3.5 2.2s-.2 1.6-.5 2.2ZM160 5.6h-3.6l-4.6 5.3V2.3h-2.6v15.5h2.6v-5.3l4.7 5.3h3.5l-5.8-6.1 5.8-6.1zM67.9 14.9 64.6 2.4h-3l-3.5 12.5-3.3-12.5H52l4.5 15.4h2.9L63 6.1l3.3 11.7h3L74 2.4h-2.8l-3.3 12.5zM84.6 7.3c-.4-.6-1-1-1.8-1.4-.7-.4-1.6-.6-2.6-.6s-2.1.3-3 .8c-.9.5-1.6 1.3-2.2 2.2-.5.9-.8 2-.8 3.3s.3 2.3.8 3.3 1.3 1.7 2.2 2.3c.9.5 1.9.8 3 .8s1.8-.2 2.6-.6c.8-.4 1.4-.9 1.8-1.4v1.8h2.6V5.6h-2.6v1.8Zm-.6 6.6c-.4.6-.8 1.1-1.4 1.4-.6.3-1.2.5-1.9.5s-1.3-.2-1.9-.5c-.6-.3-1.1-.8-1.4-1.5-.4-.6-.5-1.4-.5-2.2s.2-1.6.5-2.2c.4-.6.8-1.1 1.4-1.4.6-.3 1.2-.5 1.9-.5s1.3.2 1.9.5c.6.3 1 .8 1.4 1.4.4.6.5 1.4.5 2.2s-.2 1.6-.5 2.2ZM95.6 14.9l-3.5-9.3h-2.9l4.9 12-2.5 5.9h2.7L102 5.6h-2.7l-3.7 9.3zM128.6 7.3c-.4-.6-1-1-1.8-1.4-.7-.4-1.6-.6-2.6-.6s-2.1.3-3 .8c-.9.5-1.6 1.3-2.2 2.2-.5.9-.8 2-.8 3.3s.3 2.3.8 3.3 1.2 1.7 2.2 2.3c.9.5 1.9.8 3 .8s1.8-.2 2.6-.6c.8-.4 1.4-.9 1.8-1.4v1.8h2.6V5.6h-2.6v1.8Zm-.5 6.6c-.4.6-.8 1.1-1.4 1.4-.6.3-1.2.5-1.9.5s-1.3-.2-1.9-.5c-.6-.3-1.1-.8-1.4-1.5-.4-.6-.5-1.4-.5-2.2s.2-1.6.5-2.2c.4-.6.8-1.1 1.4-1.4.6-.3 1.2-.5 1.9-.5s1.3.2 1.9.5c.6.3 1 .8 1.4 1.4.4.6.5 1.4.5 2.2s-.2 1.6-.5 2.2ZM143.7 6c-.8-.4-1.7-.6-2.7-.6s-1.5.1-2.1.4c-.7.3-1.2.7-1.6 1.2V5.6h-2.6v12.2h2.6V11c0-1.1.3-1.9.8-2.5.6-.6 1.4-.9 2.3-.9s1.7.3 2.3.9c.6.6.8 1.4.8 2.5v6.8h2.6v-7.2c0-1.1-.2-2.1-.7-2.8-.4-.8-1.1-1.4-1.9-1.8Z"/>
  	<path fill="url(#a)" d="M0 .3C0 .2 0 0 .2 0H3l8.8 15.2c1 1.7 3.5 1.6 4.4 0l2-3.5H21c.1 0 .2.2.2.3l-2.7 4.6c-2 3.4-7 3.4-9 0S0 .3 0 .3Z"/>
  	<path fill="url(#b)" d="M15.7 7.7h.2l2-3.6c1-1.7 3.4-1.7 4.4 0l7.1 12.7c2 3.5 7 3.5 8.9 0L43 8.5c.7-1.3 1.3-3.6 0-5.8-2-3.5-7-3.4-8.9 0l-2.7 4.8c0 .1 0 .3.2.3H34.4l2.1-3.7c1-1.7 3.4-1.7 4.4 0 .7 1.2.4 2.4 0 3.2l-4.7 8.3c-1 1.7-3.4 1.7-4.4 0L24.7 2.9c-2-3.5-7-3.5-8.9 0l-2.7 4.7c0 .1 0 .3.2.3h2.6Z"/>
  	<linearGradient id="a" x1="38" x2="5.9" y1="5.4" y2="16.3" gradientTransform="matrix(1 0 0 -1 0 25.3)" gradientUnits="userSpaceOnUse">
  		<stop offset="0" stop-color="#ff4d01"/>
  		<stop offset="1" stop-color="#ff8a01"/>
  	</linearGradient>
  	<linearGradient id="b" x1="40.9" x2="8.9" y1="14" y2="25" gradientTransform="matrix(1 0 0 -1 0 25.3)" gradientUnits="userSpaceOnUse">
  		<stop offset="0" stop-color="#ff4d01"/>
  		<stop offset="1" stop-color="#ff8a01"/>
  	</linearGradient>	
</svg>