<svg xmlns="http://www.w3.org/2000/svg" viewBox="0 0 170 40">
	<path fill="#fff" d="M13.2886 28.0397h2.6334l3.95-17.2874h-2.8528l-2.4871 12.8985h-.1706l-3.3892-12.8985H8.8022L5.63243 23.6508h-.17068L2.73088 10.7523H0l3.95002 17.2874h2.63334l3.21853-12.167h.17068l3.31603 12.167Zm14.1154-1.4142c-2.5115 0-3.7062-1.2923-3.7062-4.2182h7.9488v-.9022c0-3.9744-1.8775-5.9494-4.9254-5.9494-3.6574 0-5.5349 2.6821-5.5349 6.3883 0 3.8525 1.6824 6.3883 5.7788 6.3883 1.7555 0 3.2185-.4876 4.3157-1.1216v-1.8531c-1.341.8046-2.5602 1.2679-3.8768 1.2679Zm-.7559-9.4361c1.3167 0 2.5602 1.0241 2.6821 3.5842h-5.5837c.2682-2.4382 1.4142-3.5842 2.9016-3.5842Zm10.3654-7.68061-2.5358.60961v17.0192c1.4629.7802 3.4623 1.1947 4.7546 1.1947 3.5355 0 5.73-2.2188 5.73-6.7784 0-3.9013-1.6337-5.9982-4.6572-5.9982-1.3166 0-2.5602.5121-3.2916.9022V9.50879Zm-.0244 8.75341c.9753-.5364 1.6824-.8046 2.6577-.8046 1.6337 0 2.7553.9997 2.7553 4.0963 0 3.95-1.3655 5.0716-3.1698 5.0716-.6096 0-1.463-.0487-2.2432-.3901v-7.9732Zm14.2239-7.5099h-2.9503v17.2874h2.1945V15.7996h.2194l4.9741 12.2401h1.5605l4.9741-12.5327h.2194v12.5327h2.6334V10.7523h-3.0235l-5.2179 13.63h-.1219l-5.4618-13.63Zm22.6686 17.58c3.3405 0 5.5593-2.2188 5.5593-6.3883 0-4.267-2.3408-6.3883-5.5593-6.3883s-5.5593 2.1213-5.5593 6.3883c0 4.1695 2.2189 6.3883 5.5593 6.3883Zm0-1.7068c-1.7312 0-2.9991-1.341-2.9991-4.6815 0-3.2917 1.3898-4.6815 2.9991-4.6815 1.658 0 2.9991 1.3898 2.9991 4.6815 0 3.3405-1.2679 4.6815-2.9991 4.6815Zm8.4951 1.4142h2.5358v-9.6556c.7559-.4389 1.9994-.8777 2.9747-.8777 1.2436 0 2.1945.3413 2.1945 2.2676v8.2657h2.5358v-8.8266c0-2.5114-1.0972-3.6574-4.0232-3.6574-2.804 0-5.1204 1.146-6.2176 1.8044v10.6796Zm19.3333-1.4142c-2.5117 0-3.7065-1.2923-3.7065-4.2182h7.9485v-.9022c0-3.9744-1.877-5.9494-4.925-5.9494-3.6574 0-5.5349 2.6821-5.5349 6.3883 0 3.8525 1.6824 6.3883 5.7789 6.3883 1.755 0 3.218-.4876 4.316-1.1216v-1.8531c-1.341.8046-2.561 1.2679-3.877 1.2679Zm-.756-9.4361c1.317 0 2.56 1.0241 2.682 3.5842h-5.5837c.2682-2.4382 1.4142-3.5842 2.9017-3.5842Zm12.316 7.7537h-.147l-3.121-8.9729h-2.682l4.682 12.1914c-.585 1.8044-1.609 3.121-3.267 3.121v1.9994c2.804 0 4.291-1.7555 5.51-5.1204l4.413-12.1914h-2.609l-2.779 8.9729ZM149.482 0c3.187 0 6.218.708087 8.939 1.97473.426.1867.855.41014 1.281.63379l-1.865 1.60268-2.797-2.79483-4.818 4.09862-2.838-2.94419-8.86 7.6392 5.673 5.9995-2.215 1.8627 5.597 5.9994-2.215 1.862 8.006 8.5333 4.737-4.1736 4.122 4.4728c-.817.5963-1.71 1.1937-2.681 1.7145-2.954 1.6021-6.375 2.5319-10.026 2.5319-11.232 0-20.363-8.755-20.363-19.523C129.12 8.79426 138.251 0 149.482 0Zm-3.731 18.2963 4.857-4.1738 4.354 4.6578-4.858 4.1732-4.353-4.6572Zm3.459 8.049 4.819-4.2107 4.392 4.6574-4.859 4.1738-4.352-4.6205Zm-6.915-15.9857 4.856-4.17367 4.352 4.65767-4.858 4.1735-4.35-4.6575Zm8.897-2.23649 3.614-3.12991 3.265 3.46559-3.614 3.16691-3.265-3.50259Zm6.451 14.34619 3.613-3.1301 3.265 3.5018-3.615 3.1321-3.263-3.5038Zm3.187 7.0434 3.614-3.1307 3.263 3.4654-3.614 3.1664-3.263-3.5011Zm1.476-16.0983 2.409-2.0869 2.176 2.3111-2.409 2.0862-2.176-2.3104Zm-3.109-6.89358 2.409-2.12351 2.178 2.34715-2.411 2.08674-2.176-2.31038Zm6.179 13.78788 2.409-2.0868L170 20.5323l-2.447 2.0862-2.177-2.3098Zm-10.842-5.1798 3.615-3.13 3.263 3.4648-3.613 3.1306-3.265-3.4654Z"/>
</svg>