<svg xmlns="http://www.w3.org/2000/svg" viewBox="0 0 171 30">
	<g fill="#fff">
		<path d="m55.6279 7.14331-4.0597.01456-3.5756 9.58743-1.1453-9.56996-3.261.01166-4.742 9.5911.0222-9.57436-4.0609.01384-.008 16.71742 3.9644-.0131 5.0533-9.4338 1.4654 9.409 3.9658-.0116 6.3814-16.74219Zm7.4857 8.38749c-.9655 5.0744-2.7491 5.0824-3.3342 5.0824-.5869.0051-2.3646.0117-1.4031-5.0664.9644-5.0773 2.7469-5.0824 3.3331-5.0846.5861-.0029 2.3686-.0058 1.4042 5.0686Zm4.4231-.016c1.347-7.08632-2.0643-8.56154-5.1629-8.54989-3.0972.00874-7.0739 1.51454-8.4188 8.59859-1.3467 7.0849 2.0625 8.5593 5.1589 8.5506 3.0982-.0131 7.0732-1.5131 8.4228-8.5993Zm10.3036.016c-.9656 5.0744-2.7477 5.0824-3.3349 5.0846-.5858.0029-2.3665.0095-1.4021-5.0686.9634-5.0766 2.7469-5.0824 3.332-5.0846.5862-.0029 2.3683-.0058 1.405 5.0686Zm4.4216-.016c1.346-7.08632-2.0632-8.56154-5.1614-8.54989-3.0972.00874-7.071 1.51599-8.421 8.59859-1.3456 7.0849 2.0654 8.5593 5.1603 8.5506 3.0983-.0116 7.0732-1.5131 8.4221-8.5993Zm5.6147-.3182.9211-4.7985c.1755 0 .391-.0226.6266-.0473 1.2032-.1282 2.9318-.3117 2.5627 2.2121-.4398 3.0203-4.1104 2.6337-4.1104 2.6337Zm5.8222 4.0921c-.099-.6073-.2923-1.4563-1.2134-1.9216 2.0282-1.1373 3.3669-3.3516 3.3669-6.2154 0-4.23776-5.0668-3.81835-5.0668-3.81835H85.532L82.0252 23.8651h3.9193l1.1504-5.6504h1.5299c.4703.0837 1.1184.3633 1.2065 1.2903.1514 1.4883.3772 4.43.3772 4.43h3.9392s-.1063-1.2284-.2184-2.432c-.091-.9786-.1861-1.9412-.2305-2.2143Zm5.3195-11.77258L95.8523 23.935l4.3777-.0109 3.164-16.42328-4.3757.0153Zm63.3237 7.43428 8.158-7.71316h-5.119l-6.327 6.06906 1.205-6.06906h-4.471l-3.296 16.60456h4.469l1.364-6.8861 3.949 6.8861h5.437l-5.369-8.8914Zm-46.726-4.5195c1.883-.0088 1.99.3713 1.779 1.4613-.204 1.0711-.562 1.4272-1.748 1.5058h-3.075l.561-2.9671h2.483Zm-1.228 6.3086c2.82-.0124 2.569 1.2954 2.434 2.0031-.208 1.0966-.724 1.7738-2.619 1.8866v.0073h-.094l-.234.0066-.218.0014-.189.0044v-.0117h-2.238l.731-3.8977h2.427Zm5.173-1.9376c1.056-.8162 1.73-1.9478 1.996-3.3706.531-2.80622-1.067-4.4744-4.273-4.46639l-7.677.01821-3.23 17.13098 7.673-.0175c3.887-.0116 6.186-1.7482 6.828-5.1516.359-1.8982-.11-3.3421-1.317-4.1431Zm11.445 2.622-3.148-.0072 2.54-4.9747.608 4.9819Zm2.278-10.45899h-3.934l-9.602 16.87689h4.528l1.782-3.2177 5.217.0372.368 3.1805h4.203l-2.562-16.87689Zm20.298 0h-3.884l-1.743 9.64719-3.503-9.64719h-4.255l-3.259 16.87689 3.948-.1012 1.929-10.2159 3.522 10.3171h3.986l3.259-16.87689Z"/>
		<circle cx="14.295" cy="14.795" r="14.295"/>
	</g>
	<path fill="#1273B8" d="M2.72335 22.3078c1.73517 2.6665 4.36703 4.6951 7.46785 5.6599 1.2957.4033 2.6737.6203 4.102.6203 5.208 0 9.7421-2.8863 12.0897-7.1467.0735-.1369.1445-.2752.2129-.415-3.273-.8614-7.6021-1.3857-12.35-1.3857-4.70231 0-8.99361.5148-12.25532 1.3617.2199.4492.46492.8854.73287 1.3055Z"/>
	<path fill="#D9D9D9" d="M26.599 21.0326c-.0092.0182-.0185.0365-.0279.0546-3.2915-.8832-7.6065-1.4184-12.3318-1.4184-4.68012 0-8.95759.5257-12.23714 1.393-.21699-.4246-.4126-.862-.58543-1.3107C.83882 18.2507.515694 16.6236.5 14.9235.569538 7.23217 6.70195 1.01675 14.2626 1h.0306c.9524 0 1.8822.09684 2.78.28033 6.2453 1.30192 10.9524 6.90934 11.0132 13.64317-.0159 1.7249-.3484 3.3745-.9423 4.8931h.0001c-.1624.4158-.3444.8214-.545 1.216h-.0002Z"/>
	<path fill="url(#a)" d="M26.599 21.0326c-.0092.0182-.0185.0365-.0279.0546-3.2915-.8832-7.6065-1.4184-12.3318-1.4184-4.68012 0-8.95759.5257-12.23714 1.393-.21699-.4246-.4126-.862-.58543-1.3107C.83882 18.2507.515694 16.6236.5 14.9235.569538 7.23217 6.70195 1.01675 14.2626 1h.0306c.9524 0 1.8822.09684 2.78.28033 6.2453 1.30192 10.9524 6.90934 11.0132 13.64317-.0159 1.7249-.3484 3.3745-.9423 4.8931h.0001c-.1624.4158-.3444.8214-.545 1.216h-.0002Z"/>
  	<radialGradient id="a" cx="0" cy="0" r="1" gradientTransform="matrix(0 -34.6712 35.0559 0 14.2932 28.5878)" gradientUnits="userSpaceOnUse">
  		<stop offset=".42429" stop-color="#fff"/>
  		<stop offset=".500886" stop-color="#09ABE0"/>
  		<stop offset=".587553" stop-color="#007CC2"/>
  	</radialGradient>
</svg>