<svg xmlns="http://www.w3.org/2000/svg" viewBox="0 0 170 20">
	<path fill="#FD0" d="M25.3707 10.3723c.6367 1.0971 2.1404 1.0971 2.7772 0L22.1639 0h8.3009l3.2068 5.56208-6.5134 11.28522c-1.7492 3.0227-4.6031 3.0227-6.3523 0L11.0704.00767054h8.3086L25.3707 10.3723Zm-9.2982 6.4749c-1.7415 3.0227-4.6031 3.0227-6.35229 0L0 .00749202h8.30092L17.0468 15.1594l-.9743 1.6878Z"/>
	<path fill="#fff" d="M144.56 1.99414c-.836 0-1.496.64443-1.496 1.47299 0 .82856.668 1.44998 1.496 1.44998.829 0 1.473-.65211 1.473-1.44998 0-.81321-.66-1.47299-1.473-1.47299ZM42.5556 16.9158h2.8309l.023-.0921c1.7492-6.4827 2.4627-9.25223 2.7542-10.97072.2838 1.71082.9666 4.51872 2.6391 10.97072l.023.0921h2.8923l4.0277-14.82202h-2.6391l-.023.09207C53.3345 8.91404 52.667 11.6375 52.3602 13.379c-.3529-1.8642-1.1124-4.94061-2.7465-11.19315l-.0231-.09207h-2.7541l-.0231.09207c-1.7031 6.66681-2.4166 9.52075-2.7235 11.36965-.3375-1.8029-1.0817-4.7949-2.7848-11.36965l-.023-.09207h-2.7389l3.9817 14.73762.0307.0844Zm19.6705.2075c2.1405 0 4.1658-1.1661 4.9791-2.9076l-1.9564-.9973h-.0383l-.0384.069c-.2378.491-1.1047 1.6341-2.9229 1.6341-1.6495 0-2.9077-1.051-3.0995-2.5777h8.416v-.1151c.0537-2.0791-.514-3.78222-1.6341-4.92532-.9666-.99734-2.3092-1.51903-3.8666-1.51903s-2.946.58306-3.951 1.6341c-.9973 1.04337-1.5497 2.48567-1.5497 4.05075 0 3.3296 2.3323 5.6541 5.6618 5.6541Zm-.1611-9.18316c1.5574 0 2.7465.99734 2.8693 2.38596h-5.7846c.1765-1.38862 1.381-2.38596 2.9153-2.38596Zm15.29 5.83786c0 2.0638-1.7108 3.345-4.465 3.345-2.1098 0-4.6261-1.2045-4.6415-3.4831l2.3246-.4372.023.1687c.1151 1.0127 1.0203 1.6418 2.3706 1.6418 1.1201 0 1.8182-.4373 1.8182-1.1508 0-.8132-1.0817-1.1047-2.3399-1.4423-1.7338-.4603-3.8896-1.0357-3.8896-3.36024 0-1.91795 1.7645-3.26052 4.1274-3.26052s4.1812 1.4423 4.1812 3.49835l-2.1942.41428h-.046l-.0767-.44497c-.1228-.88226-.8439-1.43463-1.8873-1.43463-.9513 0-1.6187.44497-1.6187 1.07406 0 .78053 1.0609 1.0573 2.2921 1.37847l.0094.0025.0154.004c1.7849.4673 3.997 1.0464 3.997 3.4866Zm1.964 1.1203c0 1.2275.7748 2.2248 2.0637 2.2248 1.5958 0 2.0637-.2071 2.0637-.2071v-2.0637s-.4756.0767-1.0587.0767c-.3759 0-.6444-.2302-.6444-.5677V8.10107h1.6878l-.023-2.08674H81.751V2.91491l-2.4243.60607v2.49335h-1.2659v2.08674h1.2659v6.79723h-.0077Zm19.0109-8.88381v1.38093c.6981-1.14311 2.0871-1.61109 3.6131-1.39628l.108.01535-.023 2.27086-.131-.01534c-1.112-.15344-1.956 0-2.4931.45263-.4066.34523-.6367.85925-.6674 1.52666l.023 6.6669h-2.5624V6.01449h2.1328Zm10.6941-.22264c-1.542 0-2.984.61374-3.705 1.77986V6.01433h-2.217V16.916h2.585v-5.8536c0-1.87961.982-2.99969 2.632-2.99969 1.127 0 2.47.49099 2.47 2.83859v6.0147h2.585v-6.3676c0-3.50605-2.255-4.75655-4.35-4.75655Zm14.884 8.89145c2.163 0 3.36-1.3886 3.36-3.905V2.09378h2.585v8.62312c0 4.0124-2.224 6.406-5.945 6.406s-5.946-2.3936-5.946-6.406V2.09378h2.608v8.68452c0 2.5164 1.174 3.905 3.338 3.905Zm13.41-8.89145c-1.542 0-2.992.61374-3.705 1.77986V6.01433h-2.225V16.916h2.585v-5.8536c0-1.87961.982-2.99969 2.632-2.99969 1.127 0 2.47.49099 2.47 2.83859v6.0147h2.585v-6.3676c.008-3.50605-2.24-4.75655-4.342-4.75655Zm5.953.22251h2.563V16.916h-2.563V6.01436Zm5.394 1.38857c1.058-1.0357 2.516-1.61108 4.112-1.61108 1.603 0 3.069.56771 4.127 1.61108 1.051 1.0357 1.634 2.478 1.634 4.05077 0 3.2835-2.432 5.6694-5.761 5.6694-3.33 0-5.746-2.3859-5.746-5.6694 0-1.57277.583-3.0074 1.634-4.05077Zm.874 4.05077c0 1.8872 1.389 3.3142 3.238 3.3142 1.864 0 3.276-1.427 3.276-3.3142 0-1.88732-1.427-3.31428-3.276-3.31428-1.849 0-3.238 1.42696-3.238 3.31428Zm16.119-5.66185c-1.542 0-2.985.61374-3.706 1.77986V6.01433h-2.225V16.916h2.586v-5.8536c0-1.87961.982-2.99969 2.631-2.99969 1.128 0 2.471.49099 2.471 2.83859v6.0147H170v-6.3676c.008-3.50605-2.24-4.75655-4.342-4.75655ZM85.6407 7.42594c1.005-1.05104 2.4089-1.63409 3.9509-1.63409 1.5574 0 2.9.52168 3.8667 1.51135 1.12 1.1431 1.6878 2.8462 1.634 4.9253v.1151h-8.416c.1918 1.5267 1.45 2.5777 3.0995 2.5777 1.8182 0 2.6851-1.1431 2.9229-1.6341l.0384-.069h.0384l1.9563.9973c-.8132 1.7415-2.8386 2.9076-4.979 2.9076-3.3373 0-5.6619-2.3245-5.6619-5.6464 0-1.56508.5524-3.00739 1.5498-4.05076Zm3.9509.51402c-1.542 0-2.7465.99734-2.9229 2.38594h5.7922c-.1227-1.3886-1.3272-2.38594-2.8693-2.38594Z"/>
</svg>