<svg xmlns="http://www.w3.org/2000/svg" viewBox="0 0 153 26">
	<path fill="#fff" d="M3.85001 1.50141C5.23946.817847 6.77174.475054 8.32001.501413H14.13V21.6114h-3.68v-18.31c-1.47 0-3-.12-4.39.59-.49125.27424-.91049.66104-1.22338 1.12863-.31288.46759-.51048 1.00265-.57661 1.56137-.10844.67916-.07561 1.37339.09645 2.03928.17206.66588.47967 1.28914.90355 1.83072 1.22727 1.2171 2.6051 2.2723 4.09999 3.14-1.79 2.67-3.56 5.36-5.36 8H0l4.8-7.17C2.99268 13.307 1.59063 11.642.800003 9.6714.472867 8.64702.372295 7.5638.505249 6.49671.638203 5.42963 1.00151 4.40418 1.57001 3.4914c.5649-.82396 1.31051-1.50802 2.17999-2l.10001.01001ZM93.69.701425c.2508-.084623.516-.11862.78-.100006h11.54V3.34141h-8.65v5.64001c1.22.06 2.44 0 3.67 0 1.718.06522 3.37.68236 4.71 1.75998.701.7026 1.187 1.5907 1.4 2.56.123.7533.167 1.5175.13 2.28-.063.3909-.106.7848-.13 1.18-.226 1.0962-.78 2.0974-1.59 2.87-1.505 1.1731-3.352 1.8227-5.26 1.85h-5.21c-.4607.0352-.924.015-1.38-.06v-2.17c-.051-.9993-.051-2.0006 0-3-.06-1.48 0-3 0-4.45-.05-2.13 0-4.25998 0-6.38998.08-1.34-.06-2.68 0-4V.591409l-.01.110016ZM97.37 11.8114c-.07 2.3 0 4.61 0 6.91 1.2747.1337 2.5622.0764 3.82-.17.486-.0903.941-.2991 1.327-.6078.385-.3088.689-.708.883-1.1622.226-.6109.313-1.2647.255-1.9135-.059-.6488-.262-1.2763-.595-1.8365-.448-.4646-.996-.8207-1.603-1.0408-.606-.2201-1.255-.2985-1.897-.2292-.7204-.0235-1.4415-.0069-2.16.05h-.03ZM77.32 7.07142c1.6804-.98043 3.6535-1.33467 5.57-1 .7902.07914 1.5612.29219 2.28.63001V9.7714c-1.1931-.65054-2.5428-.95854-3.9-.88998-.5495.04479-1.0788.2278-1.5386.53201s-.8353.71977-1.0914 1.20797c-.5004 1.0991-.7203 2.3051-.64 3.51-.0765 1.4466.3827 2.8707 1.29 4 .3667.3218.7955.5651 1.2599.7147.4644.1496.9545.2025 1.4401.1553 1.1354-.0126 2.2417-.3605 3.18-1v3c-1.6936.9273-3.6695 1.1979-5.55.76-.8673-.1157-1.6973-.4258-2.4281-.9072-.7307-.4813-1.3432-1.1215-1.7919-1.8728-.9982-1.9465-1.3751-4.1524-1.08-6.32.0568-1.0869.3556-2.1475.8747-3.10423.519-.95673 1.2451-1.78548 2.1253-2.42575v-.06Zm-29.33 1.28c.4841-.6657 1.1066-1.21867 1.8247-1.62088.7181-.40221 1.5148-.64415 2.3353-.70914.8935-.11459 1.8012-.03835 2.6631.22367.8618.26201 1.6584.70385 2.3369 1.29635.8729.94348 1.4198 2.14232 1.56 3.41998.1749 1.4128.2351 2.8375.18 4.26h-8.73c-.0256.6335.0999 1.264.3659 1.8395.266.5755.665 1.0795 1.1641 1.4705 1.0027.4632 2.1256.5996 3.21.39 1.3696-.143 2.6857-.6091 3.84-1.36v2.95c-1.7795 1.0758-3.8622 1.5394-5.93 1.32-1.0095-.0266-1.9991-.287-2.8909-.7607-.8919-.4737-1.6618-1.1478-2.2491-1.9693-1.0741-1.9282-1.4918-4.1535-1.19-6.34.072-1.5747.5734-3.09979 1.45-4.40998h.06Zm3.54.85c-1.06.74-1.26 2.14998-1.32 3.34998h5c.0672-.9655-.1226-1.9316-.55-2.79999-.3655-.47247-.8946-.79096-1.4831-.89276-.5886-.1018-1.194.02049-1.6969.34277h.05ZM17.16 6.28141h3.63v6.04999h4.84V6.31141h3.62V21.6114h-3.62v-6.39H20.8v6.39h-3.62V6.32142l-.02-.04001Zm16.26 0h10.55V18.7214h1.62v6.35h-3.35v-3.48H34.1v3.48h-3.3v-6.35h1.12c.4-.8599.689-1.7672.86-2.7.5426-3.2168.7671-6.4792.67-9.73999h-.03Zm3.1 2.85999c-.05 3.22-.13 6.53-1.28 9.58h5.12v-9.58h-3.84Zm24.86-2.85999V21.5814h3.61v-7.37c1.81 2.44 3.56 4.92 5.36 7.36h4.1l-5.81-8.13c1.69-2.39 3.41-4.77 5.1-7.17h-3.63c-1.72 2.38-3.4 4.78-5.12 7.16V6.28141h-3.61Zm48.92 1.28c1.613-.89148 3.427-1.35617 5.27-1.35001 1.426-.08192 2.844.26647 4.07 1 .732.5219 1.248 1.29383 1.45 2.17002.117.48861.184.98788.2 1.48998v7c-.005 1.239.055 2.4774.18 3.71h-3.46c-.106-.3639-.186-.7348-.24-1.11h-.29c-.58.5559-1.293.9551-2.07 1.16-.782.2041-1.599.2365-2.395.095-.796-.1416-1.551-.4537-2.215-.915-.456-.3658-.833-.8203-1.108-1.336-.275-.5156-.442-1.0817-.492-1.664-.134-.7002-.095-1.4225.114-2.1041.21-.6815.582-1.3015 1.086-1.8059 1.329-1.0972 2.987-1.7169 4.71-1.76.86-.15 1.73 0 2.6-.13.091-.4238.089-.8623-.006-1.2853-.095-.4229-.281-.8203-.544-1.16469-.481-.29169-1.016-.48207-1.574-.55945-.557-.07738-1.124-.04015-1.666.10944-1.288.19911-2.529.63297-3.66 1.28v-2.81l.04-.01999Zm4.65 7.20999c-.465.0298-.91.1941-1.283.4729-.373.2788-.657.6599-.817 1.0971-.117.4624-.092.9493.072 1.3971.164.4478.46.8357.848 1.1129.668.339 1.434.4335 2.164.2673.731-.1662 1.38-.5827 1.836-1.1773v-3.31c-.932-.0988-1.873-.0516-2.79.14h-.03Zm9.32-8.32998c1.18-.11 2.37-.00002 3.56-.05002v6c1.5.06 3 0 4.5 0l.38-.09v-5.88c1.18-.05 2.36 0 3.54 0v15.16h-3.54v-6.33c-1.64 0-3.29-.07-4.92 0v6.33h-3.54V6.51142l.02-.07Zm15.15 0h3.53v6.99998h.3c1.59-2.32 3.26-4.56998 4.84-6.89998 1.2-.05 2.39 0 3.59 0-1.6 2.26-3.2 4.52998-4.81 6.77998-.1.17-.34.4-.13.59l5.65 7.76h-4c-1.77-2.3-3.46-4.67-5.19-7l-.26-.08v7.11h-3.53l.01-15.25998Z"/>
</svg>