<svg xmlns="http://www.w3.org/2000/svg" viewBox="0 0 140 30">
	<path fill="#fff" d="M124.057 14.9434c0-3.8867-2.941-7.03062-7.095-7.03062-4.071 0-6.971 3.02312-6.971 7.17672 0 4.1747 2.981 7.2188 7.259 7.2188 2.714 0 4.996-1.2136 6.415-3.682l-2.878-1.337c-.678 1.2337-2.16 2.0361-3.537 2.0361-1.747 0-3.763-1.316-3.887-3.1456h10.59c.069-.4086.103-.8216.104-1.2364Zm-10.633-1.1882c.248-1.8507 1.522-3.0634 3.558-3.0634 2.015 0 3.249 1.1882 3.414 3.0634h-6.972ZM84.4156 7.91016c-4.1746 0-7.1356 3.00304-7.1356 7.23974 0 4.1948 2.961 7.1566 7.1767 7.1566 4.2359 0 7.1969-2.9618 7.1969-7.0945.0009-4.2577-3.0424-7.30184-7.238-7.30184Zm.042 11.24904c-2.0982 0-3.3932-1.5628-3.3932-3.9892 0-2.4675 1.316-4.1536 3.3932-4.1536 2.0974 0 3.4134 1.6651 3.4134 4.1536 0 2.4474-1.2959 3.9892-3.4134 3.9892ZM69.5511 7.91366c-1.7097 0-2.9986.5845-4.2866 2.03262h-.4226c-.8654-1.30812-2.2776-2.03262-3.8614-2.03262-1.6047-.01575-3.1194.74025-4.0705 2.03262h-.4226l-.021-.02012V8.19541H52.927V22.0029h3.8238V14.897c0-2.2942.966-3.6426 2.6372-3.6426 1.5496 0 2.5559 1.148 2.5559 2.898v7.8505h3.8438V14.897c0-2.2776.966-3.6426 2.6574-3.6426 1.5286 0 2.5148 1.148 2.5148 2.919v7.8295h3.8447v-8.2932c0-3.6015-1.9329-5.79604-5.2535-5.79604Zm63.0099 9.30124h-.273c0-.2459-1.668-4.6182-2.761-7.32724l-.683-1.694h-3.853l5.466 13.85564-2.153 5.2797h3.826L140 8.19803h-3.855l-.629 1.449-2.132 5.27447c-.601 1.4735-.847 2.1569-.823 2.2934ZM102.26 7.91366c-1.711 0-3.1803.74462-4.1664 2.07375h-.4034l-.0393-.02013V8.19541h-3.5412V22.0029h3.8238v-7.0647c0-2.254 1.0894-3.6637 2.8785-3.6637 1.671 0 2.898 1.2478 2.898 3.22v7.5075h3.824v-8.3308c.001-3.3819-2.213-5.75754-5.274-5.75754ZM26.9544 0c-8.2627 0-14.9013 6.68412-14.9013 14.8531 0 8.2364 6.7043 14.8531 14.8995 14.8531 8.1953 0 14.9056-6.6841 14.9056-14.8531C41.8582 6.68412 35.1496 0 26.9544 0Zm0 20.3892c-3.0477 0-5.5528-2.4981-5.5528-5.5361 0-3.038 2.5051-5.5361 5.5528-5.5361 3.0476 0 5.5536 2.4981 5.5536 5.5361-.0683 3.038-2.506 5.5361-5.5536 5.5361ZM12.0531 4.3155v21.6046H6.77337L0 4.3155h12.0531Z"/>
</svg>