<svg xmlns="http://www.w3.org/2000/svg" viewBox="0 0 169 36">
	<g fill="#fff">
		<path d="M118.392 27.1539c-.024-.0241-.044-2.8088-.044-6.1886 0-5.5448.01-6.1488.101-6.1835.199-.0762 2.411-.0429 2.491.0376.046.0453.077.2639.077.54 0 .5479.047.5715.413.2049.35-.351.775-.6139 1.285-.7936.516-.1824 1.462-.2089 2.097-.0593 1.498.3531 2.63 1.5342 3.074 3.2082.192.7208.207 2.2093.03 2.8906-.424 1.6293-1.453 2.7725-2.897 3.2178-.696.2147-1.754.2057-2.389-.0204-.475-.1692-1.038-.5085-1.293-.7804-.314-.3351-.317-.3197-.335 1.8869l-.017 2.0488-1.275.0172c-.701.0095-1.294-.0024-1.318-.0262Zm5.71-5.4834c1.727-.85 1.701-3.658-.042-4.5866-.237-.1257-.372-.1487-.883-.1487-.689 0-.942.0974-1.437.5532-1.131 1.043-.94 3.3462.341 4.0969.667.3912 1.342.4195 2.021.0852Zm-62.574 2.4387c-1.7343-.3893-2.6256-1.8267-2.2248-3.5886.1858-.8171.8246-1.5231 1.6661-1.8421.9153-.3467 2.6065-.4108 3.6148-.1368.252.0683.4735.109.4923.09.0882-.0882.0217-.5893-.1122-.845-.4206-.8033-1.7373-1.035-3.3792-.594-1.0149.2724-.9032.3402-1.2622-.7626-.3086-.9471-.3089-.9497-.1794-1.0546.2107-.1707 1.2981-.5013 1.9985-.608.8248-.1255 2.4371-.0903 2.9962.0654 1.0308.2872 1.7518.8582 2.1629 1.7129.3942.8195.4185 1.0906.3997 4.455l-.0167 2.9859-1.22.0172c-1.3796.0196-1.3487.0307-1.3415-.4855.0021-.1477-.0109-.2832-.0289-.3012-.018-.018-.1286.0503-.2456.1519-.3039.2631-.7235.4921-1.1817.6451-.5439.1816-1.5533.2263-2.1383.095Zm2.488-1.9151c.4182-.1318.8778-.518 1.039-.8733.0693-.1524.117-.406.118-.6252.0014-.3597-.0037-.3706-.2152-.459-.8624-.3603-2.2084-.3079-2.7354.1067-.3934.3094-.5218.9582-.2761 1.3952.2919.5199 1.2192.7237 2.0697.4556Zm36.336 1.9226c-1.2982-.228-2.2376-.6504-3.1588-1.4205-.5368-.4489-.5543-.4838-.3706-.7422.4233-.5951 1.1507-1.5041 1.2269-1.5332.0477-.0182.2883.1202.5345.3079.8391.6392 1.835 1.0159 2.91 1.0998 1.277.0998 2.189-.3454 2.372-1.1581.115-.5061-.198-1.063-.74-1.3203-.38-.1803-1.144-.2869-2.056-.2869-.742 0-.884-.0157-.916-.1006-.021-.0554-.039-.5419-.039-1.0816 0-.9591.003-.9823.143-1.0353.079-.0299.543-.0585 1.033-.0635.986-.0103 1.431-.0972 1.822-.3558.656-.4341.652-1.4739-.007-1.9098-.376-.2491-.785-.3452-1.466-.3452-1.057 0-1.9305.2922-2.6855.8981-.2146.1724-.4335.3047-.4868.2944-.1373-.0265-1.3312-1.4543-1.3351-1.5967-.0016-.0649.1326-.2438.2986-.3973.6617-.6126 1.6639-1.1629 2.53-1.3892 1.0158-.2655 2.6678-.2833 3.5828-.0384 1.145.3065 2.035.9688 2.462 1.8323.214.4331.239.536.261 1.1006.031.7658-.123 1.3522-.477 1.8154-.27.3539-.369.4444-.862.7883-.201.14-.366.2673-.366.283 0 .0156.15.1037.334.1961 1.144.5752 1.699 1.4434 1.699 2.6566 0 1.6044-1.075 2.8856-2.86 3.407-.398.1162-.671.1422-1.682.1602-.825.0148-1.363-.0059-1.701-.0651Zm9.775.0293c-1.163-.2107-2.03-.9246-2.333-1.9191-.111-.3677-.13-.5561-.105-1.0945.024-.5599.056-.7095.226-1.0734.352-.7518 1.027-1.273 1.999-1.5448.768-.2147 2.43-.1782 3.299.0725.163.0468.313.0685.334.0482.077-.0776.03-.5025-.084-.7468-.157-.3393-.483-.6387-.832-.7647-.652-.2353-1.8-.1808-2.881.1366-.473.1387-.576.1514-.646.0791-.148-.1543-.627-1.7799-.557-1.8918.081-.1308.657-.36 1.414-.5625.551-.1475.722-.1626 1.908-.1676 1.196-.005 1.341.0066 1.779.1432 1.029.3211 1.671.8174 2.061 1.5925.445.8833.446.8899.447 4.3893l.001 3.1447-1.234.0173c-.945.0132-1.247-.0016-1.286-.0636-.028-.0444-.051-.2117-.052-.3719 0-.1601-.019-.3097-.042-.3322-.022-.0225-.138.0445-.256.1488-.268.2345-.828.5214-1.291.6604-.417.125-1.432.1797-1.869.1003Zm2.536-2.025c.632-.2835.939-.7382.947-1.4032l.006-.41-.294-.1101c-.48-.1798-1.25-.26-1.741-.1816-.879.1403-1.301.5315-1.301 1.2068 0 .5106.222.8158.731 1.0059.32.1201 1.284.0571 1.652-.1078Zm19.984 1.9628c-.26-.0638-.743-.253-1.074-.4206-1.054-.5339-1.848-1.4641-2.202-2.5817-.841-2.6518.417-5.4241 2.833-6.2417.442-.1493.672-.1856 1.334-.2094 1.208-.0434 2.059.2022 2.898.8373.701.531 1.245 1.4029 1.554 2.4903.117.4116.143.6665.145 1.4228l.003.9212-3.131.0164c-2.585.0135-3.137.0318-3.164.1038-.048.1233.125.5074.391.8692.167.2288.336.3627.649.5173.797.3925 1.935.301 2.708-.2176.171-.1149.391-.2607.489-.324l.177-.1149.369.3375c.203.1856.519.4635.702.6173.184.1538.334.329.334.3891 0 .0601-.2.2981-.444.5284-.52.4897-1.353.9243-2.078 1.0839-.634.1393-1.875.1271-2.493-.0246Zm2.874-5.6742c-.017-.2494-.312-.869-.515-1.0834-.311-.3275-.684-.5017-1.145-.5345-.961-.068-1.609.3801-1.982 1.3707-.07.186-.111.365-.09.3981.022.0357.781.0529 1.89.0429l1.854-.017-.012-.1768Zm27.303 5.7341c-.989-.207-1.664-.5739-2.39-1.2984-.674-.6729-1.018-1.2897-1.241-2.2257-.179-.7507-.147-1.9787.069-2.6682.523-1.6637 1.678-2.817 3.215-3.2101.596-.1525 1.629-.1662 2.28-.0299 1.561.3266 2.767 1.575 3.212 3.3263.155.6109.237 1.9572.13 2.1563l-.075.14h-6.221v.1464c0 .2395.306.7817.583 1.0321.457.4132.744.505 1.577.505.689 0 .754-.0113 1.158-.2025.235-.1114.56-.3036.722-.4272.221-.1694.321-.2104.403-.1665.193.103 1.402 1.219 1.402 1.2936 0 .1271-.79.8285-1.212 1.0768-.225.1319-.637.3148-.917.4061-.438.1435-.638.1689-1.461.1858-.524.0101-1.08-.0077-1.234-.0399Zm2.637-5.7913c-.067-.4217-.41-1.0014-.724-1.2229-.374-.2653-.611-.3428-1.065-.3484-.77-.0095-1.338.3394-1.676 1.0303-.106.2168-.211.4873-.233.6008l-.04.2065H165.504l-.043-.2663ZM48.1233 23.9655c-.0484-.0781-.0524-11.88-.0039-11.9581.0587-.095 9.0693-.0786 9.1649.0167.1149.1149.1067 2.2336-.009 2.3294-.0596.0495-1.0517.0757-3.2877.0871l-3.2024.0164-.0177.9207c-.0156.8102-.0045.9301.0916 1.0005.0818.0599.5762.08 1.9739.08 2.1396 0 2.5226.0508 3.3726.4479.9259.4325 1.5623 1.2076 1.8336 2.2333.1385.5236.1382 1.5975-.0002 2.1293-.2634 1.0104-.9024 1.7873-1.8353 2.2317-1.0127.4826-.9524.476-4.6977.5016-2.0583.0149-3.3596.0006-3.3827-.0365Zm5.9522-2.426c.7719-.1117 1.1732-.422 1.3161-1.0176.1533-.6384-.0802-1.3023-.5503-1.5649-.1345-.0752-.414-.1678-.6215-.2057-.5347-.0979-3.2911-.0924-3.3904.0072-.0545.0545-.0762.4539-.0762 1.3944 0 1.1886.0108 1.3246.1112 1.3831.1442.0837 2.6367.0863 3.2111.0035Zm15.8392 2.3797c-.0214-.0559-.0392-2.1092-.0392-4.5628 0-3.3847.0183-4.4793.0763-4.537.0804-.0805 2.2929-.1138 2.4914-.0376.0881.0339.1006.2441.1014 1.6994.0005.9135.0241 1.697.0521 1.7412.0395.0623.423.0768 1.6984.0636l1.6472-.017.017-1.6782c.0111-1.1083.0407-1.7071.0871-1.7629.054-.0652.3446-.0845 1.2536-.0837.6509.0005 1.2195.0238 1.2635.0519.063.04.0804 1.0075.0823 4.5746.0013 2.4883-.0151 4.5517-.0363 4.5858-.063.1022-2.4774.0807-2.5631-.0225-.0464-.0558-.076-.6464-.0871-1.7312l-.017-1.6464h-3.367l-.0318 1.7153-.0317 1.7152-1.2791.0173c-1.1245.0148-1.2836.0045-1.318-.085Zm10.9655.0243c-.1115-.1114-.1128-9.0127-.0014-9.1241.0805-.0805 2.2929-.1138 2.4914-.0376.0882.0339.1006.2525.1014 1.7947.0008 1.71.022 2.0419.1297 2.0419.0286 0 .7703-.8433 1.6481-1.8738.8778-1.0308 1.6494-1.9024 1.715-1.9377.0691-.0367.684-.0637 1.4596-.0637 1.1242 0 1.346.015 1.3762.0939.0463.121.0792.0805-1.8045 2.2326-.9881 1.1289-1.5962 1.8733-1.5811 1.9355.0135.0556.8148 1.1602 1.7804 2.4546.9657 1.2944 1.7558 2.3998 1.7558 2.4559 0 .0911-.1593.1025-1.4566.1025-1.2187 0-1.4723-.0159-1.5533-.0966-.0532-.0532-.5842-.8092-1.1804-1.6801-.5961-.8709-1.1144-1.6026-1.152-1.6256-.0781-.0482-.3102.1596-.7785.6973l-.3274.3761-.0318 1.1486-.0317 1.1485-1.2407.0172c-.9114.013-1.2611-.0032-1.3182-.0601Zm64.1308.0339c-.024-.0241-.044-.6893-.045-1.4784 0-.7891-.026-1.4744-.057-1.5231-.046-.073-.135-.0593-.523.0808-.656.2374-1.273.3547-1.865.3547-1.648 0-2.825-.7889-3.174-2.127-.127-.4881-.145-4.3409-.021-4.465.085-.0852 2.377-.1104 2.505-.0275.05.032.081.5656.1 1.6983.024 1.3797.046 1.6936.138 1.9051.232.5374.559.7319 1.229.7306.446-.0008.961-.1104 1.36-.2893.225-.1014.231-.1131.274-.5498.024-.2454.037-1.1168.028-1.9364-.014-1.2388-.001-1.4998.075-1.5477.05-.0318.624-.0582 1.274-.0588.922-.0007 1.2.0183 1.256.0855.052.0628.067 1.3244.055 4.6218l-.016 4.5352-1.275.0172c-.701.0096-1.294-.0021-1.318-.0262Zm4.827-.0013c-.023-.0233-.042-2.0928-.042-4.599 0-4.0966.01-4.5606.1-4.5953.055-.0212.624-.0386 1.263-.0386.889 0 1.179.0198 1.233.0844.045.0545.076.5887.087 1.5088l.017 1.4244 1.397.0416c.971.0288 1.515.073 1.779.1442.991.2666 1.723.8333 2.079 1.6084.173.3761.201.5156.226 1.1292.047 1.1213-.174 1.7542-.839 2.4141-.177.1753-.51.4106-.74.5228-.752.3672-1.05.3973-3.927.3973-1.425 0-2.61-.019-2.633-.0423Zm4.954-2.2309c.507-.2632.678-1.0001.342-1.4726-.23-.3232-.514-.4069-1.478-.4354-.48-.0143-.944-.008-1.032.0142l-.16.0403v.9781c0 .721.021.9876.079 1.0141.044.0198.509.0272 1.033.0169.828-.0167.987-.0368 1.216-.1556Z"/>
		<path d="M0 0v36h36V0H0Zm10.5859 9.22659h5.1487V8.07327h1.0835l1.2232-1.22321 1.2232 1.22321h1.0834v1.15332h5.1486v2.22431H10.5856V9.22659h.0003ZM9.14426 12.1924H26.9383v.7414H9.14426v-.7414ZM12.0687 29.245H9.84441v-3.213c0-.6824-.49791-1.2357-1.11203-1.2357s-1.11203.5533-1.11203 1.2357v3.2127H5.39603V22.572h6.67267v6.673Zm0-7.4144H5.39577v-.7415h6.67273v.7415h.0002Zm11.2037 7.4144h-.7414v-7.4555c0-2.4795-2.0102-4.4896-4.4897-4.4896s-4.4897 2.0101-4.4897 4.4896v7.4555h-.7414v-7.4555c0-2.889 2.3421-5.2311 5.2311-5.2311s5.2311 2.3421 5.2311 5.2311v7.4555Zm7.4142 0h-2.2244v-3.213c0-.6824-.4979-1.2357-1.112-1.2357-.6141 0-1.112.5533-1.112 1.2357v3.2127h-2.2243V22.572h6.6727v6.673Zm0-7.4144h-6.6727v-.7415h6.6727v.7415Zm0-1.4827h-6.9234c-.3534-2.5194-2.7712-4.469-5.7015-4.469-2.9303 0-5.3479 1.9496-5.7013 4.469H5.39603v-.7414h5.23107V13.675h14.8283v5.9312h5.2312v.7417Z"/>
	</g>
</svg>