<svg xmlns="http://www.w3.org/2000/svg" viewBox="0 0 110 34">
	<g fill="#fff">
		<path d="m0 32.3387 15.9087-.0216-.0108-15.7468C12.5822 22.8561 6.37214 26.9386 0 28.5046c.0215769 1.188 0 3.8341 0 3.8341Z"/>
		<path d="M5.08691 24.4122c6.00489-3.0348 8.89939-8.5753 8.89939-8.5753s-.0216-1.8253-.0216-1.8577c-3.3048-1.1664-6.30734-2.8728-8.86695-5.42164.01074 4.32004-.01084 15.85464-.01084 15.85464ZM5.94018.576172s0 4.816848-.01083 6.015688C7.51699 8.0607 8.30543 8.74109 9.94706 9.78871l.01074-6.45849C8.08941 2.3042 7.36578 1.76419 5.94018.576172ZM29.5491 5.65173c-.1404-.86401-.6264-1.43644-1.4364-1.70644-.3996-.12962-.8425-.20522-1.3825-.23762-.324-.0216-.6587 0-.972.0324h-.1296V1.86084l1.5337.01079 1.6956.23761.0648-1.533627h-5.2381l.2052 1.911627.0216 4.27693-.2376 2.03043h.3024s.7128-.01083 1.0584 0c.1836 0 .3672.01074.5509.02157.2591.01084.5183.03241.7776.03241h.1836c.9828-.02157 1.7388-.27001 2.3004-.74521.8532-.7452.8101-1.74967.702-2.45164Zm-1.7064.42121c0 .18362-.0108.33474-.0325.4752-.0647.38881-.27.65882-.6047.7992-.4429.19444-.9288.2376-1.5876.16203v-2.4409c.594-.07556 1.1771-.09714 1.7171.17279.3457.18361.5077.45362.5077.83168Zm6.9013-4.55772L34.4955.5l-1.728.021602-.1943.896418-2.0845 5.40013-.9072 1.93321 1.8036.03241.3132-1.47967.4321-1.12319h2.592l.594 1.43643.3133 1.1556h2.3328l-.7993-1.37162-2.4192-5.8861Zm-.5076 3.41288c-.27 0-.5508.01083-.8316.02157-.27.01083-.5509.01083-.8101.02158.1621-.38881.324-.78836.4861-1.17719.1295-.2916.2483-.58321.3671-.87481l.7885 2.00885Zm17.2373 3.84484 2.3761-.02158-3.7801-4.28772L53.623.553985 51.5385.56479l-.6264.87481s-1.5984 1.76044-2.4624 2.72163V2.03362l.2484-1.458033h-2.1817l.1297 1.436433.0324 5.06531-.1621 1.68478h2.1817l-.2376-1.67404V5.0793l3.0132 3.69364Zm-6.4587-2.4624c0-.55084.0217-4.24449.0217-4.24449L45.231.597223h-2.16l.1729 1.425627s-.0001 1.08002.0107 1.72803h-3.0565c-.0216-.92881-.0107-1.87923.2269-2.808053l.0864-.334807h-2.2465l.0324.302407c.0108.108003.1404 1.242023.1621 1.771243.0323 1.10161.0215 2.23559.0107 3.31563v.24843c0 .46445-.108 1.89005-.1619 2.14923l-.0649.31325h2.1708l-.0324-.30242c-.0215-.19445-.0431-.37806-.0648-.57242-.054-.42122-.1079-.8316-.1295-1.23124-.0217-.41039-.0217-.8316-.0109-1.24199v-.29167h3.1105c0 .20528 0 .41047.0108.61566.0108.92883.0216 1.81441-.216 2.68925l-.0864.33483h2.2681l-.0757-.324c-.1511-.75604-.1728-1.51208-.1728-2.07367Zm27.2168 6.50166.0643-.324h-4.6326l.0321.3024c.1616 1.3932.2809 2.6893.3672 3.9853.0542.9288.0432 1.8792.0322 2.808 0 .3241-.011.6588-.011.9829h-8.6613c-.0431-2.5381-.0753-5.1626.5831-7.733l.0863-.3348h-4.7732l.0432.3024c0 .0324.3562 3.1213.4103 4.5901.0863 2.8297.0643 5.7133.0322 8.4997v.6588c-.011 1.2205-.2809 4.925-.4104 5.5838l-.0651.324h4.6013l-.033-.3024c-.0533-.486-.1184-.9612-.1726-1.4364-.1404-1.0585-.2699-2.1493-.3342-3.2077-.0652-1.0692-.0432-2.1708-.033-3.2293 0-.3888.011-.7776.011-1.1664h8.8025c0 .6588 0 1.3285.0102 1.9764.033 2.4301.0651 4.7197-.561 7.031l-.0973.3456h4.7841l-.0643-.324c-.3782-1.9656-.4433-3.9205-.4543-5.4001-.0102-1.4797 0-8.0138.0651-9.8282.0542-1.7281.1726-3.0673.3782-4.1041ZM43.9782 30.0277v-7.0849c2.2141.0648 6.4369.3996 6.4801.3996l.2916.0216.0108-3.24-6.7825.3888V14.929c2.0196-.0215 5.8105-.0431 7.7761.5616l.3024.0973.0433-.3132c.1403-1.026.0432-2.4625.0324-2.5165l-.0216-.2484H39.8741l.054.3133c.4104 2.6244.3888 5.2812.3564 7.8517-.0107.594-.0107 1.188-.0107 1.7928.0323 3.8017-.3781 9.6446-.3888 9.6986l-.0217.2916 12.1718.054.0109-.27c.0216-.648.0755-2.3868.1079-2.6353l.0433-.3671-.3672.0755c-2.4193.4861-4.7089.7021-7.8518.7128Zm-10.4006-8.7481c.054-.0324.108-.0756.162-.108 1.1017-.7452 2.3653-1.8468 2.4409-3.7261.108-2.592-1.3069-4.428-3.8881-5.0221-2.2249-.5183-4.5145-.4319-6.9985.2484l-.0324.0109c-1.1989.3348-1.4041.4428-1.3717.7236.0649.5292.1728 1.1124.2701 1.6848.0755.4212.1512.8424.2051 1.2528.0216.1512.1297.27.2701.324.1403.0432.3024 0 .3996-.108l.1512-.162c1.1663-1.2312 2.6893-1.8036 4.6225-1.7712 1.2312.0216 2.2572.7992 2.4948 1.89.324 1.5012-.2268 2.8081-1.3824 3.3265-.5617.2484-1.2097.432-1.9873.5724-.756.1296-2.2464.2376-2.268.2376l-.27.0216.108 2.5488.27-.0108c.0108 0 1.3393-.0431 2.4516-.0431.4969 0 2.1061.1079 2.9269.6048.7236.432 1.242 1.1448 1.3932 1.9008.2161 1.134.4104 3.8341-2.538 4.4821-2.5489.5616-4.6333 0-6.1778-1.6632-.1295-.1405-.27-.2809-.4211-.4537l-.1621-.1727c-.0972-.1081-.2376-.1405-.3779-.0973-.1297.0433-.2269.1621-.2485.3025l-.0756.6264c-.0756.6155-.1404 1.188-.2376 1.7496-.0756.486.0864.81.5508 1.0584 1.7173.9397 3.6181 1.4149 5.6485 1.4149.3888 0 .7777-.0217 1.1773-.0541 1.6308-.1404 3.132-.7344 4.3309-1.728 1.7496-1.4364 2.5488-3.1753 2.3544-5.1733-.1512-2.3005-1.4473-3.8773-3.7909-4.6873ZM91.91 23.7637v-2.4409c-.011-2.8297-.022-5.7565.4857-8.4998l.0542-.324h-4.774l.0651.324c.1616.8532.3021 1.7605.4104 2.6893.0321.2916 0 .432-.1515.594-1.5121 1.62-3.0021 3.2724-4.4279 4.8709-1.3073 1.458-2.6569 2.9592-4.0395 4.4497.0321-1.2529.011-2.4949-.0212-3.7153-.0651-3.0565-.1193-5.951.6372-8.8562l.0863-.3456h-4.8925l.1075.3456c.4535 1.4905.4535 2.9485.4645 4.4929v1.4904c.011 2.6029.022 5.2921-.011 7.9274 0 .3996.011.7992.022 1.188.022.7344.0432 1.4796-.0322 2.214-.0431.4428-.1514.8749-.2597 1.3285-.0533.2052-.0965.4212-.1405.6372l-.0643.324h4.7089l-.0542-.3132c-.0973-.648-.1726-1.296-.2378-1.9225-.0431-.3671-.0753-.7235-.1184-1.0908-.022-.1512.0541-.378.1404-.4752 1.3395-1.458 2.668-2.9268 3.9423-4.3525 1.4469-1.62 2.948-3.2833 4.482-4.9356v2.7432c-.011.8856 0 1.782.0102 2.646.011 1.3392.033 2.7217-.0322 4.0717-.0321.7452-.1616 1.4797-.2919 2.2573-.0643.3456-.1184.702-.1726 1.0476l-.0431.3132h4.6877l-.0652-.324c-.4857-2.6137-.4747-5.5297-.4747-8.3593Zm12.053-8.6078c0-.0432 0-.0972.011-.162l6.026.7776-.388-3.3048H94.5449l-.335 3.3048 6.4481-.7776v12.6039l-.627 4.8817h4.569l-.572-4.7954c0-.0972-.054-8.4025-.065-12.5282Z"/>
	</g>
</svg>