<svg xmlns="http://www.w3.org/2000/svg" viewBox="0 0 140 36">
	<path fill="#fff" d="M4.3421 1.08433c0 .96601.07884 1.18287.49289 1.51801.39428.29572.4928.55201.4928 1.24201 0 .68999-.05915.84775-.29566.76883-.2366-.09853-.29575.07892-.29575.966 0 1.06462.01969 1.08431 1.06462 1.99116.59141.49289 1.16314.90694 1.28144.90694.27597 0 .29566-2.08977.01968-2.26722-.25628-.15768-.25628-1.67572-.01968-1.67572.1183 0 .25629.09861.31544.19714.25628.43374.4928-.05915.4928-1.04484l-.01969-1.02515L6.4121 1.41947c-2.01085-1.695437-2.07-1.715151-2.07-.33514Zm6.3285.31539L9.07377 2.77973v3.03605c0 1.67572.07883 3.07546.15767 3.13461.09861.05906.88716-.49289 1.77436-1.22238l1.6165-1.32081V5.36236c0-.76887-.0788-1.02518-.2759-1.02518-.1578 0-.3352.07886-.4141.19716-.059.09853-.3745.37459-.6899.59142l-.5915.41396v-.8477c.0197-.76885.0986-.90685.9857-1.61657.9857-.76886.9857-.78858.9857-1.93201C12.6223.512576 12.5435 0 12.4449 0c-.0789 0-.8871.630859-1.7743 1.39972ZM.142968 5.06652c-.256288.2366-.13798931 5.46098.118299 5.89458.137988.2366 1.636253 1.5969 3.351433 3.0164 1.69541 1.4392 3.09515 2.6811 3.09515 2.7403 0 .1577-1.30113 1.2223-1.47858 1.2223-.05915 0-1.12368-.8477-2.36574-1.8926C1.42441 14.8449.478093 14.1944.300642 14.2732c-.2365131.0788-.29566338.552-.29566338 2.4249v2.3066l.96600238.9068.946319.9266-.90694.7886-.906856.7886-.0591502 3.0754c-.0591502 1.9912 6e-7 3.1937.1380762 3.4698.335126.6111 6.97884 6.1509 7.31406 6.072.41396-.0592.53226-5.2243.15767-5.934-.13798-.2563-1.65603-1.6364-3.35143-3.0755-1.71518-1.4391-3.11492-2.6812-3.11492-2.76 0-.0789.39427-.4731.88716-.8872l.88717-.7294 2.08968 1.7546c1.14345.9463 2.22776 1.7348 2.40521 1.7348.29575 0 .33512-.2759.33512-2.4249v-2.4445l-.76886-.69-.76887-.7097.63088-.5126c.33512-.276.70971-.828.80833-1.2026.29566-1.0054.23651-5.52-.05915-6.1114C7.37819 10.5275.832994 4.92853.478093 4.92853c-.1183 0-.275975.05915-.335125.13799ZM12.8589 7.80694c-1.8728 1.5771-3.48938 3.09516-3.60768 3.37116-.09862.2562-.17745 1.6363-.17745 3.0557 0 2.3855.01969 2.5629.39427 2.6614.33513.0987.39428.2761.39428 1.3209 0 .8281-.1183 1.4589-.39428 1.9912-.31543.6111-.39427 1.1631-.39427 2.5826 0 1.9911.09852 2.4445.51257 2.4445.45346 0 .39428 3.0952-.05915 3.6078-.29575.2957-.37459.828-.41396 2.8389-.07893 2.76.01969 3.4698.47311 3.3711.49286-.0985 6.89996-5.52 7.15626-6.0326.1381-.2957.217-2.3657.217-5.9538 0-5.0074-.0395-5.52-.3352-5.52s-.2957-.0197 0-.3548c.2957-.3154.3352-1.0646.3352-6.3086 0-5.53982-.0197-5.95378-.3352-5.95378-.1971 0-1.8926 1.30113-3.7655 2.87832Zm2.8389 5.26376c.2366 1.0251-.1775 1.7545-1.9123 3.2528-.9069.7887-1.8926 1.6166-2.1883 1.8335l-.552.3943v-2.5629l1.932-1.6757c1.0449-.9266 2.07-1.6757 2.2475-1.6757.1971-.0197.3943.1774.4731.4337Zm.0788 8.8123c0 1.3603-.3351 1.8729-2.3854 3.588-1.0843.8872-2.0503 1.6561-2.1488 1.6955-.1183.0394-.1972-.5915-.1972-1.4786v-1.5574l2.0897-1.7152c2.2869-1.8926 2.6417-1.9517 2.6417-.5323ZM26.363 8.61495c-.0591.09853-.1971.55195-.3351 1.04484-.1183.49291-.2563 1.04481-.3154 1.22231-.0987.3351.1774.3548 4.0414.3548 2.2868 0 4.1598.0395 4.1598.0986 0 .0592-1.9518 3.3121-4.3372 7.2155l-4.3372 7.0972v2.5432h11.947l.3548-1.1435c.1971-.6112.414-1.242.4534-1.38.0789-.1774-.8477-.2365-4.278-.2365-3.4303 0-4.3569-.0592-4.278-.2563.0394-.1183 1.9715-3.3318 4.2583-7.1169l4.1597-6.9001V8.47688H32.159c-3.1543 0-5.7565.05915-5.796.13807Zm13.741.21683c-1.6561 1.32092-.828 3.76552 1.2616 3.78512 1.2421 0 2.011-.7885 2.011-2.0699 0-1.28148-.7689-2.07004-2.011-2.07004-.5125 0-1.0251.13799-1.2616.35482Zm49.8384 9.42352.0586 9.8375 3.9821-.0394c4.4162-.0198 5.5204-.2169 6.8999-1.2223 1.834-1.3209 2.445-4.3767 1.341-6.6438-.552-1.1237-1.38-1.8334-2.6216-2.2671l-.651-.2169.8479-.552c1.5377-.966 2.1287-2.0503 2.1287-3.7852-.019-1.8926-1.103-3.45002-3.0554-4.33719-.9065-.39427-1.3405-.45342-4.9875-.51257L89.903 8.4375l.0394 9.8178Zm7.6685-7.2944c1.0649.6309 1.5575 1.5181 1.5575 2.8192 0 1.3209-.4734 2.2081-1.4193 2.7009-.4926.2562-1.2031.3352-3.0161.3549l-2.366.0196-.0595-2.9571c-.0193-1.6166 0-3.0755.0595-3.2135.1776-.4731 4.3566-.2366 5.2439.276Zm.9074 8.4181c1.064.5717 1.5177 1.4392 1.5967 2.9966.079 1.7546-.3157 2.5826-1.5381 3.1937-.7884.414-1.1629.4535-3.5875.4535h-2.7213v-7.1366l2.8193.0788c2.1691.0592 2.9374.138 3.4309.414ZM129.627 8.61486c-.217.03947-.591.1183-.828.17745l-.453.07884V28.211l1.143-.0592 1.124-.0591.098-3.8837.099-3.864 3.155 3.864 3.154 3.8837 1.36.0591c.75.0395 1.42-.0197 1.518-.0985.079-.0788-1.321-1.8532-3.095-3.9035-1.794-2.07-3.293-3.864-3.351-3.9823-.06-.138 1.064-1.5574 2.523-3.1543 3.627-4.0414 3.43-3.6077 1.695-3.6077h-1.459l-2.74 3.1543-2.76 3.174-.059-5.6384c-.059-6.1311.039-5.73683-1.124-5.48054Zm-49.0883.98578c-.217.03938-.868.17745-1.4201.27598l-1.0448.19718v3.3317H76.477l.0595 1.1238.0595 1.1433.7288.0592.7298.0591.0586 5.1653c.0595 4.7905.0796 5.2242.4734 5.8551.8671 1.4983 2.6416 2.0503 4.83 1.4983.6904-.1774 1.2618-.3548 1.3011-.3943.0394-.0394-.0192-.5126-.1382-1.0645-.2162-.9858-.2162-.9858-.8077-.7887-.7691.2563-1.8926.0395-2.149-.4336-.1181-.2169-.1968-2.2869-.1968-5.1061v-4.7512h2.3852l.4926-1.0843c.2564-.6111.4734-1.1434.4734-1.1828 0-.0591-.749-.0986-1.6756-.0986H81.426V11.434c0-2.05027 0-2.0305-.8873-1.83336ZM41.4052 13.6224c-.4928.0985-1.0843.2365-1.3208.2957l-.4535.0788v14.1945h3.3515v-7.393c0-8.3194.1773-7.5309-1.5772-7.176Zm5.2245.0591-1.1829.2168-.0591 7.1564-.0395 7.1563 1.6166-.0592 1.6363-.0591.0986-4.968.0986-4.968.5717-.5915c.6702-.69 1.7152-.966 2.5234-.6506.6112.2169.6112.2563.9266-1.6166.2365-1.3405.138-1.4982-.9266-1.4982-.9068 0-1.8334.4336-2.7797 1.2814l-.8083.7294V14.608c0-.8477-.0789-1.2025-.2365-1.1828-.1381.0197-.7887.1183-1.4392.2563Zm9.3247.0788c-.7294.1972-1.38.4141-1.4391.4732-.1183.0985-.6901 2.9769-.6309 3.0557.0197.0198.69-.2957 1.4983-.6899 1.1631-.5718 1.6757-.7098 2.622-.7295 1.5377 0 1.932.414 1.932 2.0701v1.1236l-1.6166.1578c-2.4052.1971-3.9823.7491-4.968 1.7349-2.3066 2.3262-1.4589 6.4465 1.5378 7.3337 1.6165.4929 2.898.3746 4.7117-.3943.2563-.0986.3351-.0394.3351.276 0 .414.0788.4337 1.6363.3746l1.6166-.0592v-6.1114c0-5.8158-.0197-6.1509-.414-6.9001-.2563-.4731-.7689-1.0054-1.3209-1.3603-1.2026-.7492-3.5092-.8871-5.5003-.3549Zm3.9823 9.3644c0 1.5377-.0394 1.6757-.5323 2.1489-1.6757 1.5969-3.8048.9463-3.8048-1.1631 0-.6901.4139-2.011.6505-2.0307.0197 0 .3943-.1379.828-.2957.4337-.1577 1.2617-.276 1.8334-.2957h1.0252v1.6363Zm8.5168-9.4038c-1.5771.4141-1.7348.5521-1.8728 1.4984-.0592.4731-.1774 1.2223-.2563 1.6559l-.1183.8281 1.518-.7689c1.242-.6308 1.7349-.7689 2.6611-.7689 1.0062 0 1.2031.0592 1.5575.5126.2957.3549.4147.8083.4147 1.4392v.9265l-2.0702.2366c-2.4448.276-3.7657.7886-4.7119 1.8137-.8675.9661-1.1631 1.9124-1.0646 3.5486.138 2.3855 1.518 3.6867 4.1991 3.8838 1.1435.0985 1.8136-.0197 3.3125-.6309.2555-.0985.3351-.0394.3351.276 0 .3944.098.4141 1.5768.4141h1.5767v-6.0918c0-3.8246-.0787-6.3086-.2161-6.6635-.7499-2.0305-3.7459-2.9572-6.8413-2.1095Zm3.9039 9.325c0 1.8137-.2957 2.346-1.5968 2.8586-1.5973.6505-2.7802-.138-2.7802-1.8137 0-.5323.0986-1.1632.2366-1.3998.3351-.6702 1.6954-1.2026 3.0161-1.2026h1.1243v1.5575ZM108.1 13.6223c-.474.0789-1.223.3352-1.696.5323-.809.3549-.867.4337-1.065 1.5377-.118.6309-.197 1.1828-.158 1.2223.021.0197.533-.2168 1.144-.5323.611-.3154 1.577-.69 2.168-.8083 2.267-.5126 3.49.3155 3.49 2.3658v1.1434l-1.715.138c-3.411.276-5.422 1.2814-6.289 3.1149-1.143 2.4643-.138 5.0272 2.267 5.8354 1.577.5324 4.081.0789 5.185-.9068.335-.2957.355-.276.355.3942v.7295h2.366v-6.2297c0-4.1992-.079-6.3481-.217-6.6438-.907-1.7349-3.076-2.4446-5.835-1.8926Zm3.686 9.2066c0 1.932 0 1.932-.631 2.5629-1.794 1.7152-4.357 1.5574-4.869-.2957-.277-1.0054-.277-1.3012.099-2.2277.551-1.3603 1.734-1.932 4.08-1.9518l1.321-.0197v1.932Zm5.066-9.1868-.926.1971.04 7.1366.058 7.117h2.169l.059-5.3426.04-5.3624 1.044-.7097c1.755-1.2025 3.471-1.3997 4.239-.4928.296.3351.355 1.0843.434 6.1509l.099 5.7566h2.365V16.2641l-.493-.8477c-1.241-2.1686-3.883-2.5037-6.485-.828l-1.203.7886v-.9857c0-1.0843.059-1.0449-1.44-.7492Z"/>
</svg>