<svg xmlns="http://www.w3.org/2000/svg" viewBox="0 0 160 35">
	<path fill="#9a9da5" d="M25.2 11.8h-1.7V6.1h5.6v5.7h-1.7V7.3h-2.2v4.5zm11-1.6c-.4 1.6-1.9 1.9-3 1.9-.7 0-3.1-.2-3.1-3.1 0-2 1.3-3 3.2-3 2.8 0 2.9 2.5 2.9 3.2v.3H32c0 .5.3 1.5 1.4 1.5.2 0 .5 0 .7-.2.2-.1.4-.3.5-.6h1.6zm-1.6-1.8c0-1.2-.8-1.4-1.2-1.4-.2 0-1.2 0-1.4 1.4h2.6zm4.5-2.3v.7c.2-.3.5-.5.8-.7.3-.2.7-.2 1-.2 1.6 0 2.6 1.2 2.6 3.1 0 1.8-1 3-2.6 3-.3 0-.7-.1-1-.2-.3-.1-.6-.3-.8-.6v2.7h-1.7V6.1h1.7zm1.4 4.8c1 0 1.3-.9 1.3-1.9 0-1.6-.8-1.9-1.3-1.9s-1.3.3-1.3 1.9c-.1 1 .3 1.9 1.3 1.9zm7.6-4.8c.5 0 1.9 0 1.9 1.4 0 .3-.1.6-.3.9-.2.2-.5.4-.8.4.9.2 1.4.6 1.4 1.5 0 1.2-.9 1.5-2.1 1.5h-3.4V6.1h3.3zm-1.7 2.3h.9c.3 0 .9 0 .9-.5s-.4-.6-.9-.6h-.9v1.1zm0 2.3h1.1c.8 0 1-.3 1-.6 0-.4-.2-.7-1-.7h-1v1.3zm6.5-4.6v2H54c.5 0 2.5-.1 2.5 1.9 0 1.6-1.3 1.7-2.1 1.7h-3.2V6.1h1.7zm0 4.6h.8c.4 0 1-.1 1-.7 0-.7-.7-.7-1-.7H53c-.1 0-.1 1.4-.1 1.4zm5.9-4.6v5.7h-1.7V6.1h1.7zm5.4 0H66v5.7h-1.7V8.1L62 11.8h-1.8V6.1h1.7v3.7l2.3-3.7zM62.1 4c0 .7.8.7 1 .7.4 0 1-.2 1-.7h1.3c-.1.7-.6 1.5-2.2 1.5-1.7 0-2.2-.9-2.2-1.5h1.1zM3.6 17.3h1.9L3.1 20l2.5 3h-2l-1.9-2.5V23H0v-5.7h1.7v2.3l1.9-2.3zm2 4.6h.3c.7 0 1-.3 1-2.1l.1-2.5h4.9V23h-1.7v-4.6H8.6v1.3c-.1 3-.9 3.4-2.3 3.4-.2 0-.4 0-.7-.1v-1.1zm11.7-4.6h1.8V23h-1.7v-3.7L15 23h-1.8v-5.7h1.7V21l2.4-3.7zm8.9 4.1c-.4 1.6-1.9 1.9-3 1.9-.7 0-3.1-.2-3.1-3.1 0-2 1.3-3 3.2-3 2.8 0 2.9 2.5 2.9 3.2v.3H22c0 .5.3 1.5 1.4 1.5.2 0 .5 0 .7-.2.2-.1.4-.3.5-.5-.1-.1 1.6-.1 1.6-.1zm-1.6-1.8c0-1.2-.8-1.4-1.2-1.4-.2 0-1.2 0-1.4 1.4h2.6zm4.6 3.4h-1.7v-5.7h1.7v2.1h2.1v-2.1H33V23h-1.7v-2.4h-2.1V23zm4.6-4.5v-1.1h5.5v1.1h-1.9V23h-1.7v-4.6h-1.9zm11.9 2.4c-.1.9-.6 2.4-2.8 2.4-1.9 0-3-1.1-3-3 0-1.4.6-3.1 3.1-3.1 2 0 2.6 1.2 2.7 2.2H44c-.1-.9-.6-1.1-1.1-1.1-.4 0-1.3.1-1.3 1.8 0 1.9.9 2 1.3 2 .9 0 1.1-.8 1.1-1.2h1.7zm4.7-3.6h1.9L49.9 20l2.5 3h-2l-1.9-2.5V23h-1.7v-5.7h1.7v2.3l1.9-2.3zm6.6 0h1.8V23h-1.7v-3.7L54.8 23H53v-5.7h1.7V21c-.1.1 2.3-3.7 2.3-3.7zm7.2 0H66V23h-1.7v-3.7L62 23h-1.8v-5.7h1.7V21c0 .1 2.3-3.7 2.3-3.7zm-2.1-2.1c0 .7.8.7 1 .7.4 0 1-.2 1-.7h1.3c-.1.7-.6 1.5-2.2 1.5-1.7 0-2.2-.9-2.2-1.5h1.1z"/>
	<path fill="#201600" d="M117 15.9h2.8c1 0 4.5.1 4.5 3.8 0 2.4-1.7 3.5-4.5 3.5h-5.6V11.6h9.1v2.3H117v2zm0 5.1h2.2c1.1 0 2.1-.2 2.1-1.3 0-1.4-1.3-1.5-2-1.5H117c-.1 0 0 2.8 0 2.8zm14.9-9.4l4.4 11.7h-2.9l-.7-2.2h-4.3l-.7 2.2h-2.9l4.4-11.7h2.7zm.1 7.5l-1.5-4.5-1.5 4.5h3zm8.1 4.1h-2.8V11.6h2.8V16h4.2v-4.4h2.8v11.7h-2.8v-5h-4.2v4.9zm16.4-11.6h3.2l-4.7 5.3 5 6.3h-3.4l-4.1-5.7v5.7h-2.7V11.6h2.8v4.9l3.9-4.9z"/>
	<path fill="url(#gr1)" d="M87.6 10.7h-7.9V5.9H95V0H74.4v24.3h13.2V10.7z"/>
	<linearGradient id="gr1" gradientUnits="userSpaceOnUse" x1="72.4076" y1="33.436" x2="92.3597" y2="17.8449" gradientTransform="matrix(1 0 0 -1 0 36)">
		<stop offset="0" stop-color="#5997d4"/>
		<stop offset="1" stop-color="#363c6e"/>
	</linearGradient>
	<path fill="url(#gr2)" d="M93.6 10.7v13.6h7.9v4.8H86.2V35h20.5V10.7H93.6z"/>
	<linearGradient id="gr2" gradientUnits="userSpaceOnUse" x1="4006.7368" y1="-2566.9968" x2="5242.9468" y2="-3382.697" gradientTransform="matrix(1 0 0 -1 0 36)">
		<stop offset="0" stop-color="#5997d4"/>
		<stop offset="1" stop-color="#363c6e"/>
	</linearGradient>
</svg>