<svg xmlns="http://www.w3.org/2000/svg" viewBox="0 0 174 17">
  <path fill="#00f500" d="M169.9 8.1c2.3 0 4.1-1.8 4.1-4.1 0-2.2-1.8-4.1-4.1-4.1s-4.1 1.8-4.1 4.1 1.8 4.1 4.1 4.1z"/>
  <path fill="#ff5000" d="M125.6 13.6c-2.1 0-3.7-1.6-3.7-3.7s1.6-3.7 3.7-3.7 3.8 1.6 3.8 3.7-1.7 3.7-3.8 3.7zm3.8-7.6h-.4c-.8-1.5-2.3-2.3-4.1-2.3-2.9 0-5.6 2.7-5.6 6.1 0 3.5 2.6 6.1 5.6 6.1 1.7 0 3.3-.8 4.1-2.3h.4v2h2.6V4h-2.6v2zM6.3 13.6c-2.1 0-3.7-1.6-3.7-3.7s1.6-3.7 3.7-3.7 3.8 1.6 3.8 3.7-1.7 3.7-3.8 3.7zM10.1 6h-.5c-.8-1.4-2.3-2.3-4-2.3C2.7 3.7 0 6.4 0 9.9 0 13.3 2.6 16 5.6 16c1.7 0 3.3-.8 4.1-2.3h.4v2h2.6V4h-2.6v2zm134.1 2.6h-6V4h-2.6v11.7h2.6v-4.6h6v4.6h2.6V4h-2.6v4.6zm11.6 1.1l6.1-5.7h-3.5l-5.5 5.3V4h-2.6v11.7h2.6v-5.4l5.5 5.4h3.8l-6.4-6zm-42.6 3.7h-4.1v-2.9h4.1c1.2 0 1.7.6 1.7 1.5s-.5 1.4-1.7 1.4zm.3-5.2h-4.4V6.3h7.5V4h-10.1v11.7h7c2.4 0 4-1.6 4-3.7.1-2.2-1.6-3.8-4-3.8zm-31.2 5.4c-2.1 0-3.7-1.6-3.7-3.7s1.6-3.7 3.7-3.7S86 7.8 86 9.9s-1.6 3.7-3.7 3.7zm0-9.9c-3.1 0-5.6 2.1-6.1 4.9H74V4h-2.6v11.7H74V11h2.2c.5 2.8 3.1 5 6.1 5 3.5 0 6.3-2.7 6.3-6.1 0-3.4-2.8-6.2-6.3-6.2zm7.2 2.7h4.3v9.2h2.6V6.4h4.3V4H89.5v2.4zM61.2 4l-5 11.7h2.7l3.9-9.3 3.9 9.3h2.8L64.5 4h-3.3zM35.4 6.1c2.5 0 3.2 1.9 3.2 1.9h2.7s-1.1-4.3-5.9-4.3c-3.5 0-6.2 2.7-6.2 6.1 0 3.4 2.7 6.1 6.2 6.1 4.9 0 5.9-4.3 5.9-4.3h-2.7s-.7 1.9-3.2 1.9c-2.1 0-3.6-1.6-3.6-3.7 0-2 1.5-3.7 3.6-3.7zM23 13.4h-4.2v-2.9H23c1.2 0 1.7.6 1.7 1.5s-.5 1.4-1.7 1.4zm.4-5.2h-4.5V6.3h7.6V4H16.3v11.7h7.1c2.4 0 4-1.6 4-3.7 0-2.2-1.7-3.8-4-3.8zm25.7 5.4c-2.2 0-3.8-1.6-3.8-3.7s1.6-3.7 3.8-3.7c2.1 0 3.8 1.6 3.8 3.7s-1.6 3.7-3.8 3.7zm0-9.9c-3.6 0-6.4 2.7-6.4 6.1 0 3.4 2.8 6.1 6.4 6.1 3.5 0 6.4-2.7 6.4-6.1 0-3.3-2.9-6.1-6.4-6.1z"/>
</svg>