<svg xmlns="http://www.w3.org/2000/svg" viewBox="0 0 200.1 28.8">
	<path fill="#832b43" d="M28.4 7.4c-3 .7-5.9.4-8.8-.4-2.2-.7-4.5-1.4-6.7-2.1-3.2-1-6-.2-8.4 2.1-1.8 1.7-3.1 3.7-4.3 5.7-.3.6-.3.7.4.9.8.2 1.5.5 2.2.9 1.9 1.1 3.6 2.5 5.2 4 1.1 1.1 2.2 2 3.5 2.9 1.1.7 2.3 1.1 3.7.8 2.6-.5 4.6-2 6.5-3.6.3-.3.2-.5-.2-.6-.2 0-.4-.1-.7-.1-.9-.1-1.7-.5-2.4-1 .4-.1.6-.2.8-.3 3.1-.8 5.9-2.5 8-4.8.9-1 1.7-2 2-3.4.3-1.1.2-1.2-.8-1zm-9.5 10.9c.2 0 .4 0 .4.2s-.2.2-.4.3c-1.8.8-3.5.4-4.9-.9-.9-.8-1.6-1.7-2.4-2.6-1.2-1.4-2.5-2.7-4.4-3.3-.9-.3-1.8-.4-2.7-.3h-.2c-.1 0-.1-.1-.2-.1.8-.5 1.6-.8 2.5-1 2.7-.8 4.6.5 6.2 2.5 1.1 1.4 2.2 2.9 3.6 4.1.8.5 1.6.9 2.5 1.1zm7.4-8.7c-.9.9-1.9 1.6-3 2.1-1.5.7-3 .5-4.4-.2-1.1-.5-2.1-1.2-3.2-1.9-1.9-1.2-4.1-1.7-6.4-1.4-1.9.3-3.7.9-5.4 1.9-.3.2-.6.3-1 .4.7-1.1 1.6-2.1 2.6-2.8C6.8 6.6 8.3 6 10 5.9c1.2 0 2.5.2 3.6.6 1.9.6 3.7 1.6 5.6 2.3 2.1.7 4.2 1.2 6.4.8h.3c.3-.1.3-.1.4 0zm25.5.5H50V3c0-1.2.3-1.5 1.1-1.6h.6c3.4 0 4.8.9 4.8 4.5h.7L57.1.4H43.8v.8c1.7.2 2.2.7 2.2 2.6v15c0 1.8-.4 2.2-2.2 2.5v.8H52c4.4 0 6.9-2.6 6.9-6-.1-4.3-3.1-6-7.1-6zm-.3 11.1c-1.1 0-1.6-.6-1.6-2.1v-7.9h.7c2.6 0 3.9 1.7 3.9 5s-1 5-3 5zm20.5-.8l-.3.1c-.3 0-.5-.4-.5-.9v-8.4c0-2.8-1.8-4.3-4.9-4.3-2.8 0-4.8 1.5-4.8 4 0 1.3.6 2.2 1.6 2.2s1.7-.8 1.7-1.9c0-.5-.2-1-.5-1.4-.2-.2-.3-.5-.3-.7 0-.8.7-1.2 1.6-1.2 1.5 0 2 .9 2 3v2.2c-2.9 1.1-4.1 1.6-5 2.4-.5.4-1 1-1.2 1.6-.3.6-.4 1.3-.4 2 0 2.4 1.1 3.4 2.8 3.4 1.4 0 2.6-.6 4-2.2.3 1.6.8 2.2 2 2.2 1.1 0 1.9-.5 2.8-1.8l-.4-.7-.2.4zm-4.2-1.3c-.5 1-1.1 1.3-1.8 1.3s-1.3-.7-1.3-2.2c0-1.9 1.1-3.2 3.1-3.9v4.8zm12.7-11c1.1.2 1.2.6 1.2 2v3.8h-3.5v-3.8c0-1.4.1-1.7 1.2-2v-.8h-6v.8c1.1.2 1.3.6 1.3 2v9.3c0 1.4-.2 1.7-1.3 2v.8h6v-.8c-.9-.2-1.2-.7-1.2-1.9V15h3.5v4.5c0 1.2-.3 1.8-1.2 1.9v.8h6v-.8c-1.1-.3-1.3-.7-1.3-2v-9.3c0-1.4.2-1.7 1.3-2v-.8h-6v.8zm19.4 12.8l-2.6-4.6c-.3-.6-.7-1.1-1.2-1.5s-1.2-.6-1.8-.7V14c.6-.6.9-1.5 1.2-2.3.3-.8.6-2.5 1.3-2.5.9 0 .3 2.4 2.1 2.4 1 0 1.4-1 1.4-2 0-1.6-.9-2.6-2.2-2.6-1.5 0-2.1.8-2.6 1.9-.8 1.9-1.1 4.8-3.3 4.8V9.9c0-1.4.1-1.8 1.2-2v-.7h-5.9V8c.9.1 1.2.6 1.2 1.9v9.5c0 1.3-.4 1.8-1.2 1.9v.8h6v-.8c-1.2-.2-1.3-.4-1.3-1.9v-4.6c.6 0 .8.3 1.1 1l3.2 6.3h4.1v-.8c-.3.1-.5 0-.7-.4zm21.7-4.1L116 0h-.7l-5.5 17.5c-.9 3-1.3 3.6-2.5 3.9v.8h5v-.8c-1.5-.1-2-.5-2-1.3s.5-2.1.8-3.1l.3-1.1h5.6c.9 2.5 1.1 3.6 1.1 4.4 0 .7-.3 1-1.1 1.1l-.8.1v.8h8.1v-.8c-1-.1-1.4-.8-2.7-4.7zm-9.8-2.2l2.3-7.8 2.5 7.8h-4.8zm13.9-7.2v.8c1.1.2 1.3.6 1.3 2v9.3c0 1.5-.2 1.7-1.3 2.1v.8h6.1v-.8c-.9-.2-1.3-.6-1.3-2V9.4c0-.6.3-.9.6-.9 3.6 0 3.9 1.9 4.3 4.5h.6l-.1-5.6h-10.2zM145 7c-1.5 0-2.4.7-3.3 2.6V7.4h-4.8v.8c1.1.2 1.4.7 1.4 2.1V26c0 1.4-.2 1.8-1.4 2v.8h6.8V28c-1.5-.1-1.9-1.1-1.9-3.3v-4.1c1.2 1.5 1.8 1.9 3 1.9 3 0 4.8-3.4 4.8-8.4-.1-4.7-1.8-7.1-4.6-7.1zm-1.3 13.8c-.8 0-1.5-.9-1.9-2.1V11c.1-.4.2-.7.5-1.1.5-.8 1.1-1.2 1.7-1.2 1.3 0 1.9 1.9 1.9 5.9 0 4.5-.8 6.2-2.2 6.2zm13-13.8c-3.3 0-5.7 3.2-5.7 7.9 0 4.6 2.5 7.8 5.6 7.8 3.2 0 5.7-3.3 5.7-7.8-.1-4.6-2.5-7.9-5.6-7.9zm-.1 14.6c-1.4 0-2-1.8-2-6.4 0-5.5.5-7.2 2-7.2s2 1.7 2 7.2c0 4.7-.5 6.4-2 6.4zM171.4 7c-1.5 0-2.4.7-3.3 2.6V7.4h-4.8v.8c1.1.2 1.4.7 1.4 2.1V26c0 1.4-.2 1.8-1.4 2v.8h6.8V28c-1.5-.1-1.9-1.1-1.9-3.3v-4.1c1.2 1.5 1.8 1.9 3 1.9 3 0 4.8-3.4 4.8-8.4-.1-4.7-1.8-7.1-4.6-7.1zm-1.3 13.8c-.8 0-1.5-.9-1.9-2.1V11c.1-.4.2-.7.5-1.1.5-.8 1.1-1.2 1.7-1.2 1.3 0 1.9 1.9 1.9 5.9 0 4.5-.8 6.2-2.2 6.2zm13-13.8c-3.3 0-5.7 3.2-5.7 7.9 0 4.6 2.5 7.8 5.6 7.8 3.2 0 5.7-3.3 5.7-7.8 0-4.6-2.4-7.9-5.6-7.9zm-.1 14.6c-1.4 0-2-1.8-2-6.4 0-5.5.5-7.2 2-7.2s2 1.7 2 7.2c0 4.7-.5 6.4-2 6.4zm16.5-2.9c-.9 1.3-1.7 1.8-2.7 1.8-2.2 0-3.5-2.7-3.5-7.1 0-3.5.9-5.4 2.1-5.4 1.1 0 1.1.7 1.1 2.2s.6 2.3 1.5 2.3c1 0 1.6-.8 1.6-2.1 0-2.1-1.7-3.5-3.8-3.5-3.3 0-5.9 3.3-5.9 8.1 0 4.6 2.2 7.6 5.4 7.6 2 0 3.4-1 4.8-3.4l-.6-.5z"/>
</svg>