<svg xmlns="http://www.w3.org/2000/svg" viewBox="0 0 170 20.8">
	<path fill="#004575" d="M96.6 2.1h1.9l-13.4 18H83v-18h4.6v12.1l9-12.1zm38.9 0h4.5v18.1h-4.5V2.1zm-72.9 0v18.1h-4.5v-6.3h-5.4l1.4-1.8h4V4.8L46.8 20.1h-2.1l13.4-18h4.5zm61.9 10h4V4.8l-11.3 15.3h-2.1L128.5 2h4.5v18.1h-4.5v-6.3h-5.4l1.4-1.7zm17.7-2.7h4.2V2.1h4.5v18.1h-4.5v-9h-5.6l1.4-1.8zM98.3 20.1h-4.6V10l4.6-6v16.1zM75 8.6l6.7 11.6h-5.2L72 12.5l3-3.9zm-9.9-6.5h4.5v9.4l7-9.4h1.9l-8.9 12.1v6h-4.5V2.1zm98.2 6.5l6.7 11.6h-5.2l-4.5-7.7 3-3.9zm-9.9-6.5h4.5v9.4l7-9.4h1.9l-8.9 12.1v6h-4.5V2.1zm-52.5 0h13.5L113.2 4h-7.8v14.4h4.3l1-.6.6-.8.5-1 .2-1.1v-.6l-.2-.5-.1-.7-.3-.5-.6-.8-1-.7H106l1.3-1.8h3.4l1.1.2 1.1.3.8.5.8.6.8.8.5 1 .3 1 .2 1.1-.2 1.1-.3 1-.5 1-.6.8-.8.6-1 .5-1.1.3h-10.9v-18z"/>
	<g fill="#d99d00">
		<path d="M17.9 1.5L0 10.5l17.9 9 17.9-9-17.9-9zm-14.1 9l14.1-7.1L32 10.5l-14.1 7.1-14.1-7.1z"/>
		<path d="M21.7 0l20.4 10.5-20.4 10.3-1.9-1 18.5-9.3-18.5-9.4L21.7 0zm-3.8 15L9 10.5 17.9 6v3.9l-1.9 1V8.7l-3.2 1.8 5.1 2.6V15z"/>
		<path d="M19.2 6.6L25 9.5l-5.8 2.9v-1.9l1.9-1-1.9-1V6.6z"/>
	</g>
</svg>