<svg viewBox="0 0 200 23" xmlns="http://www.w3.org/2000/svg">
	<path fill="#1A1717" d="M40.7902 13.1929c0-1.596-1.193-2.898-2.791-2.898-1.64 0-2.748 1.285-2.748 2.898 0 1.574 1.194 2.859 2.791 2.859 1.662 0 2.748-1.263 2.748-2.859Zm-8.757-1.057c0-3.33095.513-6.87295 4.794-7.63795l6.113-1.1.511 2.488-6.263 1.2c-2.107.414-2.686 1.552-2.768 2.611.426-.728 1.812-1.867 4.155-1.867 2.893 0 5.41 2.28095 5.41 5.32195 0 3.063-2.517 5.611-5.987 5.611-3.852 0-5.965-2.36-5.965-6.627Zm22.07 2.465v-.559c-.557-.245-1.281-.414-2.069-.414-1.383 0-2.234.539-2.234 1.575 0 .849.722 1.3441 1.766 1.3441 1.512.001 2.537-.8031 2.537-1.9461Zm-7.436.684c0-2.421 1.895-3.541 4.603-3.541 1.149 0 1.978.186 2.789.452v-.184c0-1.302-.831-2.02695-2.45-2.02695-1.238 0-2.108.22995-3.152.59695l-.809-2.40095c1.255-.54 2.491-.89 4.429-.89 1.768 0 3.046.454 3.859 1.244.848.829 1.229 2.04695 1.229 3.54095v6.438h-3.129v-1.202c-.789.85-1.875 1.411-3.45 1.411-2.15.002-3.919-1.202-3.919-3.438Zm24.815 3.23h-3.237v-4.245h-3.983v4.245h-3.237V7.41795h3.237v4.26595h3.983V7.41795h3.237V18.5149Zm3.964-11.09695h3.235v4.55595l4.092-4.55595h3.725l-4.194 4.55595 4.727 6.541h-3.831l-3.048-4.224-1.471 1.553v2.6721h-3.235V7.41795Z"/>
	<path fill="#7A66A8" d="M103.323 0h-.652v22.195h.652V0Zm19.574 5.32722c0-.896-.685-1.61701-1.564-1.61701-.905 0-1.548.722-1.548 1.61701 0 .89499.685 1.61699 1.564 1.61699.906.00101 1.548-.72099 1.548-1.61699Zm-3.779-.22401c0-1.38499.11-2.712 1.632-3.069l2.435-.564.127.539-2.367.572c-.905.224-1.209.705-1.277 1.52601.304-.506.879-.929 1.809-.929 1.141 0 2.097.95399 2.097 2.131 0 1.194-.947 2.20599-2.24 2.20599-1.328.00201-2.216-.919-2.216-2.412Zm8.936.739v-.399c-.321-.091-.744-.18199-1.276-.18199-.812 0-1.277.34799-1.277.87899 0 .539.507.85401 1.099.85401.803 0 1.454-.47201 1.454-1.15201Zm-3.213.31501c0-.921.761-1.40201 1.868-1.40201.558 0 .947.07501 1.336.182v-.132c0-.763-.474-1.161-1.294-1.161-.515 0-.921.125-1.327.307l-.195-.52299c.482-.216.947-.365 1.59-.365.617 0 1.099.166 1.412.47299.304.29801.456.713.456 1.261v2.621h-.642v-.639c-.304.38101-.803.73-1.573.73-.819 0-1.631-.45599-1.631-1.35199Zm5.648-3.028h.651v1.84999h2.519V3.12922h.651v4.28799h-.651v-1.874h-2.519v1.874h-.651V3.12922Zm5.698 0h.651v2.472l2.392-2.472h.803l-1.826 1.858 1.877 2.42999h-.77l-1.556-1.966-.921.929v1.037h-.651V3.12922h.001ZM122.161 16.9362v-.398c-.321-.091-.743-.182-1.276-.182-.812 0-1.277.348-1.277.879 0 .539.507.854 1.099.854.804 0 1.454-.473 1.454-1.153Zm-3.212.315c0-.921.761-1.402 1.868-1.402.558 0 .947.075 1.336.182v-.133c0-.763-.474-1.161-1.294-1.161-.515 0-.921.125-1.327.307l-.195-.523c.482-.216.947-.365 1.59-.365.617 0 1.099.166 1.412.473.304.298.456.713.456 1.261v2.621h-.642v-.639c-.304.381-.803.73-1.573.73-.819.001-1.631-.455-1.631-1.351Zm4.912 1.261.076-.547c.084.025.237.058.312.058.524 0 .964-.224.964-3.442v-.357h3.095v4.288h-.651v-3.724h-1.826v.099c0 3.343-.617 3.691-1.446 3.691-.144 0-.389-.033-.524-.066Zm9.528-2.397c-.076-.779-.533-1.443-1.395-1.443-.752 0-1.327.614-1.421 1.443h2.816Zm-3.475.257c0-1.244.888-2.239 2.097-2.239 1.293 0 2.037 1.012 2.037 2.273 0 .058 0 .124-.008.224h-3.467c.093.904.77 1.427 1.539 1.427.6 0 1.023-.241 1.378-.605l.406.357c-.44.481-.973.804-1.801.804-1.2-.001-2.181-.906-2.181-2.241Zm5.698-2.148h.651v2.472l2.392-2.472h.803l-1.826 1.858 1.877 2.43h-.77l-1.556-1.966-.921.929v1.037h-.651v-4.288h.001Zm4.946 2.148c0-1.211.964-2.239 2.241-2.239.828 0 1.344.34 1.75.763l-.414.431c-.346-.357-.752-.631-1.344-.631-.887 0-1.564.738-1.564 1.676 0 .929.693 1.667 1.606 1.667.558 0 .972-.282 1.319-.647l.431.39c-.44.481-.964.83-1.784.83-1.277 0-2.241-1.021-2.241-2.24Zm8.403.564v-.398c-.321-.091-.743-.182-1.276-.182-.812 0-1.276.348-1.276.879 0 .539.507.854 1.099.854.802 0 1.453-.473 1.453-1.153Zm-3.212.315c0-.921.761-1.402 1.868-1.402.558 0 .947.075 1.336.182v-.133c0-.763-.473-1.161-1.294-1.161-.515 0-.921.125-1.327.307l-.194-.523c.482-.216.947-.365 1.589-.365.617 0 1.099.166 1.412.473.304.298.456.713.456 1.261v2.621h-.642v-.639c-.304.381-.803.73-1.573.73-.82.001-1.631-.455-1.631-1.351Zm5.647-3.027h.651v1.85h2.52v-1.85h.651v4.288h-.651v-1.874h-2.52v1.874h-.651v-4.288Zm8.573 3.724v-3.16h-1.835v.597c0 1.062-.212 2.007-.516 2.563h2.351Zm-3.516 0h.472c.355-.639.584-1.535.584-2.978v-.747h3.111v3.724h.66l-.102 1.634h-.541v-1.07h-3.534l-.118 1.07h-.532v-1.633Zm9.891-1.584c0-1.012-.71-1.659-1.539-1.659-.812 0-1.581.672-1.581 1.667s.769 1.659 1.581 1.659c.845 0 1.539-.614 1.539-1.667Zm-3.746-2.14h.651v.863c.355-.514.871-.954 1.674-.954 1.048 0 2.088.813 2.088 2.239 0 1.401-1.031 2.231-2.088 2.231-.812 0-1.336-.431-1.674-.912v2.148h-.651v-5.615Zm9.655 2.148c0-.921-.702-1.676-1.623-1.676-.947 0-1.598.755-1.598 1.676 0 .921.693 1.667 1.614 1.667.948 0 1.607-.746 1.607-1.667Zm-3.889 0c0-1.211.964-2.239 2.282-2.239 1.311 0 2.274 1.012 2.274 2.239 0 1.211-.972 2.239-2.291 2.239-1.31.001-2.265-1.011-2.265-2.239Zm8.26 1.593c.626 0 1.006-.274 1.006-.722 0-.415-.38-.664-1.09-.664h-1.37v1.385h1.454v.001Zm-.11-1.9c.524 0 .888-.241.888-.688 0-.357-.304-.605-.871-.605h-1.361v1.294h1.344v-.001Zm-1.995-1.841h2.114c.871 0 1.429.423 1.429 1.07 0 .564-.363.838-.727.987.524.141.964.456.964 1.062 0 .722-.626 1.169-1.59 1.169h-2.19v-4.288Zm5.106 2.148c0-1.211.964-2.239 2.241-2.239.828 0 1.344.34 1.75.763l-.414.431c-.346-.357-.752-.631-1.344-.631-.887 0-1.564.738-1.564 1.676 0 .929.693 1.667 1.606 1.667.558 0 .972-.282 1.319-.647l.431.39c-.44.481-.964.83-1.784.83-1.277 0-2.241-1.021-2.241-2.24Zm5.521-2.148h.651v2.472l2.392-2.472h.803l-1.826 1.858 1.877 2.43h-.769l-1.556-1.966-.921.929v1.037h-.651v-4.288Zm5.216 0h.651v3.392l2.595-3.392h.634v4.288h-.651v-3.392l-2.604 3.392h-.626v-4.288h.001Zm6.484-1.626.448-.091c.102.357.33.581.744.581.415 0 .643-.224.744-.581l.448.091c-.101.589-.558 1.012-1.192 1.012-.633 0-1.09-.423-1.192-1.012Zm-.727 1.626h.651v3.392l2.595-3.392H200v4.288h-.651v-3.392l-2.604 3.392h-.626v-4.288ZM7.434 14.042v.559c0 1.143-1.021 1.947-2.534 1.946-1.047 0-1.769-.495-1.769-1.344 0-1.036.853-1.575 2.236-1.575.79 0 1.512.169 2.067.414Zm-2.835-2.298C1.893 11.744 0 12.864 0 15.285c0 2.236 1.769 3.44 3.918 3.438 1.577 0 2.663-.561 3.448-1.411v1.202h3.135v-6.438c0-1.494-.384-2.71202-1.236-3.54102-.809-.79-2.091-1.24399-3.857-1.24399-1.937 0-3.172.34999-4.43.88999l.81 2.40102c1.044-.367 1.916-.59702 3.152-.59702 1.619 0 2.45.72502 2.45 2.02702v.184c-.809-.266-1.638-.452-2.791-.452Zm13.313.828c0 2.921-1.235 4.825-4.111 6.776l1.427 2.086c3.918-2.071 5.902-4.886 5.902-8.862 0-3.97402-1.984-6.79102-5.902-8.86302l-1.427 2.094c2.875 1.944 4.111 3.851 4.111 6.76902Z"/>
</svg>