<svg xmlns="http://www.w3.org/2000/svg" viewBox="0 0 200 23.5">
	<path fill="#1a1717" d="M40.3 8.1c-2.5 0-3.9 1.2-4.4 2 .1-1.2.7-2.4 2.9-2.8L45.4 6l-.5-2.6-6.4 1.2c-4.5.8-5 4.6-5 8.1 0 4.6 2.3 7.1 6.2 7.1 3.6 0 6.3-2.7 6.3-6-.1-3.2-2.7-5.7-5.7-5.7zm-.5 8.8c-1.6 0-2.9-1.4-2.9-3 0-1.7 1.1-3.1 2.8-3.1 1.6 0 2.9 1.4 2.9 3.1 0 1.6-1.2 3-2.8 3zm14.7-9.3c-2 0-3.4.4-4.6.9l.8 2.6c1.1-.4 2-.6 3.3-.6 1.6 0 2.6.8 2.6 2.2v.2c-.8-.3-1.7-.5-2.9-.5-2.8 0-4.8 1.2-4.8 3.7 0 2.4 1.8 3.6 4.1 3.6 1.6 0 2.8-.5 3.6-1.5v1.3h3.3v-6.8c0-1.5-.4-2.8-1.3-3.7-.9-.9-2.3-1.4-4.1-1.4zm2 7.7c0 1.2-1 2.1-2.7 2-1.1 0-1.8-.5-1.8-1.5 0-1.1.9-1.6 2.4-1.6.8 0 1.6.2 2.2.5v.6h-.1zm14.8-3.1h-4.2V7.7h-3.3v11.8h3.3V15h4.2v4.5h3.4V7.7h-3.4v4.5zm14.7.3l4.3-4.8h-3.9l-4.3 4.8V7.7h-3.3v11.8h3.3v-2.8l1.6-1.7 3.2 4.5h4l-4.9-7z"/>
	<path fill="#7a66a8" d="M118 3.3c-1 0-1.6.5-1.9 1 .1-.9.5-1.4 1.4-1.6l2.5-.6-.1-.5-2.6.6c-1.6.4-1.7 1.8-1.7 3.3 0 1.6 1 2.6 2.3 2.6 1.4 0 2.4-1.1 2.4-2.4s-1.1-2.4-2.3-2.4zm-.1 4.1c-.9 0-1.6-.8-1.6-1.7 0-1 .7-1.7 1.6-1.7s1.6.8 1.6 1.7c.1.9-.6 1.7-1.6 1.7zm5.7-4.1c-.6 0-1.1.1-1.6.4l.2.5c.4-.3.8-.4 1.4-.4.9 0 1.4.5 1.4 1.3v.2c-.4-.1-.8-.2-1.4-.2-1.1 0-1.9.5-1.9 1.5 0 .9.8 1.4 1.6 1.5.8 0 1.4-.5 1.6-.8v.8h.6V5.3c0-.6-.2-1.1-.5-1.4-.2-.4-.8-.6-1.4-.6zm1.4 2.9c0 .7-.7 1.2-1.5 1.2-.6 0-1.2-.4-1.2-.9s.5-.9 1.4-.9c.5 0 1 .1 1.4.2v.4h-.1zm5.8-.9h-2.7v-2h-.6v4.6h.6v-2h2.7v2h.7V3.3h-.7v2zm6.6-2h-.8L134.2 6V3.3h-.8v4.6h.8V6.8l.9-1 1.6 2.1h.8l-2-2.6 1.9-2zm-20 11.8c-.6 0-1.1.1-1.6.4l.2.5c.4-.3.8-.4 1.4-.4.9 0 1.4.5 1.4 1.3v.2c-.4-.1-.8-.2-1.4-.2-1.1 0-1.9.5-1.9 1.5 0 .9.9 1.5 1.6 1.5.8 0 1.4-.5 1.6-.8v.8h.6v-2.8c0-.6-.2-1.1-.5-1.4-.2-.4-.8-.6-1.4-.6zm1.4 2.9c0 .7-.6 1.2-1.5 1.2-.6 0-1.2-.4-1.2-.9s.5-.9 1.4-.9c.5 0 1 .1 1.4.2v.4h-.1zm3.2-2.5c0 3.4-.5 3.6-1 3.6-.1 0-.3-.1-.4-.1l-.1.5c.1.1.4.1.5.2.9 0 1.5-.4 1.5-3.9v-.1h1.9v4h.6v-4.6h-3v.4zm7.1-.5c-1.3 0-2.2 1-2.2 2.4 0 1.5 1 2.5 2.3 2.5.9 0 1.5-.3 1.9-.8l-.5-.4c-.4.4-.8.6-1.5.6-.8 0-1.5-.5-1.6-1.5h3.6v-.3c0-1.4-.7-2.5-2-2.5zm-1.5 2.1c.1-.9.6-1.5 1.5-1.5s1.4.7 1.5 1.5h-3zm8.4-2l-2.5 2.6v-2.6h-.7v4.5h.7v-1.1l.9-1 1.7 2.1h.8l-1.9-2.5 1.9-2h-.9zm4.3.5c.5 0 1 .3 1.4.6l.5-.5c-.5-.5-1-.8-1.8-.8-1.4 0-2.4 1.1-2.4 2.4 0 1.4 1 2.5 2.4 2.5.8 0 1.4-.4 1.8-.9l-.5-.5c-.4.5-.8.7-1.4.7-.9 0-1.6-.7-1.6-1.7s.7-1.8 1.6-1.8zm5.1-.5c-.6 0-1.1.1-1.6.4l.2.5c.4-.3.8-.4 1.4-.4.9 0 1.4.5 1.4 1.3v.2c-.4-.1-.8-.2-1.4-.2-1.1 0-1.9.5-1.9 1.5 0 .9.8 1.5 1.6 1.5s1.4-.5 1.6-.8v.8h.6v-2.8c0-.6-.2-1.1-.5-1.4-.2-.4-.7-.6-1.4-.6zm1.3 2.9c0 .7-.6 1.2-1.5 1.2-.6 0-1.2-.4-1.2-.9s.5-.9 1.4-.9c.5 0 1 .1 1.4.2l-.1.4zm5.9-.9H150v-2h-.7v4.5h.7v-1.9h2.6v1.9h.7v-4.5h-.7v2zm6.3-2h-3.3v.8c0 1.5-.3 2.6-.6 3.2h-.3v1.6h.5l.1-1.1h3.6v1.1h.5l.1-1.7h-.7l.1-3.9zm-.6 4h-2.5c.4-.6.5-1.6.5-2.7v-.7h1.9v3.4h.1zm5.1-4.1c-.8 0-1.4.5-1.7 1v-.9h-.7V21h.6v-2.3c.4.5.9 1 1.7 1 1.1 0 2.2-.9 2.2-2.4.1-1.5-1-2.3-2.1-2.3zm-.1 4.1c-.8 0-1.6-.6-1.6-1.7 0-1 .8-1.7 1.6-1.7.9 0 1.6.6 1.6 1.7s-.7 1.8-1.6 1.7zm6.1-4.1c-1.4 0-2.4 1.1-2.4 2.4 0 1.4 1 2.5 2.4 2.4 1.4 0 2.4-1.1 2.4-2.4s-1-2.4-2.4-2.4zm-.1 4.1c-.9 0-1.6-.7-1.6-1.7s.6-1.8 1.6-1.8 1.7.8 1.7 1.8c0 .9-.6 1.8-1.7 1.7zm7-1.8c.4-.2.7-.5.7-1.1s-.5-1.1-1.5-1.1h-2.2v4.6h2.3c1 0 1.6-.5 1.6-1.3.1-.7-.3-1-.9-1.1zm-2.3-1.6h1.5c.6 0 .9.3.9.6 0 .5-.4.7-.9.7H174v-1.3zm1.7 3.4h-1.5v-1.5h1.5c.7 0 1.1.3 1.1.7 0 .5-.5.8-1.1.8zm5.4-3.5c.5 0 1 .3 1.4.6l.5-.5c-.5-.5-1-.8-1.8-.8-1.4 0-2.4 1.1-2.4 2.4 0 1.4 1 2.5 2.4 2.5.8 0 1.4-.4 1.8-.9l-.5-.5c-.4.5-.8.7-1.4.7-.9 0-1.6-.7-1.6-1.7s.7-1.8 1.6-1.8zm7.4-.5h-.8l-2.5 2.6v-2.6h-.7v4.5h.7v-1.1l1-1 1.6 2.1h.8l-2-2.5 1.9-2zm2.2 3.6v-3.6h-.7v4.5h.6l2.8-3.5v3.5h.7v-4.5h-.7l-2.7 3.6zm7.3-4.3c.7 0 1.2-.5 1.3-1.1l-.5-.1c-.2.4-.4.6-.8.6s-.7-.3-.8-.6l-.5.1c.2.7.7 1.1 1.3 1.1zm1.4.7l-2.8 3.6v-3.6h-.6v4.5h.6l2.8-3.6v3.6h.6v-4.5h-.6zM5.6 7.6c-2 0-3.4.4-4.6.9l.9 2.6c1.1-.4 2-.6 3.3-.6 1.6 0 2.6.8 2.6 2.2v.2c-.8-.3-1.7-.5-2.9-.5C2 12.3 0 13.5 0 16.1c0 2.3 1.8 3.6 4.1 3.6 1.7 0 2.8-.5 3.6-1.5v1.3h3.2v-6.8c0-1.5-.4-2.8-1.3-3.7-.8-.9-2.1-1.4-4-1.4zm2.1 7.7c0 1.2-1 2.1-2.7 2-1.1 0-1.8-.5-1.8-1.5 0-1.1.9-1.6 2.4-1.6.8 0 1.6.2 2.2.5v.6h-.1zm8.1-11.4l-1.5 2.2c3 2.1 4.3 4.1 4.3 7.2s-1.3 5.1-4.3 7.2l1.5 2.4c4.1-2.3 6.2-5.3 6.2-9.5 0-4.3-2.1-7.3-6.2-9.5zM103.3 0h.7v23.5h-.7V0z"/>
</svg>