<svg xmlns="http://www.w3.org/2000/svg" viewBox="0 0 165 33.2">
	<path fill="#ef3124" d="M0 28.6h21.8v4.5H0v-4.5zm157.6-14.5l6.9-7.6h-5.1l-5.6 6.3V6.5h-4.1v15.9h4.1v-6.7l6 6.7h5.3l-7.5-8.3zM24.2 15.2c-.1 3-.5 3.6-2.2 3.6v3.7h.6c4.2 0 5.2-2.2 5.3-6.9l.2-5.3H32v12.2h4.1v-16H24.5l-.3 8.7zM6.5 17.9h8.6l1.4 4.6h4.8L14.9 3.3C14.2 1.5 13.5 0 11.1 0S7.8 1.5 7.2 3.3L.4 22.5h4.5l1.6-4.6zM10.8 5h.2l2.9 9.1H7.8l3-9.1zm95.3 3.8h-4.6V4.3h10.6v-4H97.3v22.2h8.8c4.9 0 7.7-2.4 7.7-6.9 0-4.2-2.8-6.8-7.7-6.8zm-.2 9.7h-4.3v-5.8h4.3c2.3 0 3.5 1 3.5 2.9s-1.2 2.9-3.5 2.9zM65.6 6.2V.3h-4.1v5.9c-2.1.1-4.2 1-5.6 2.5-1.5 1.6-2.2 3.6-2.2 5.8-.1 2.1.7 4.2 2.2 5.8 1.5 1.6 3.5 2.5 5.6 2.6v6h4.1v-6c1.1 0 2.1-.3 3.1-.7 1-.4 1.8-1.1 2.6-1.8.7-.8 1.3-1.7 1.7-2.7.4-1 .5-2.1.5-3.1 0-1.1-.1-2.1-.5-3.1s-.9-1.9-1.7-2.7c-.7-.8-1.6-1.4-2.6-1.8-1-.6-2-.8-3.1-.8zM61.5 19c-1.1-.1-2.1-.7-2.8-1.5-.7-.8-1-1.9-.9-3-.1-1.1.2-2.1.9-3 .7-.8 1.7-1.4 2.7-1.5.1 0 .1 9 .1 9zm4.1 0v-9c1.1.1 2.1.7 2.7 1.5.7.8 1 1.9.9 3 .1 1.1-.2 2.2-.9 3-.6.8-1.6 1.4-2.7 1.5zm23.1-1.4v-5.4c0-3.9-2.5-6.4-6.7-6.4s-6.6 2.6-6.8 5.3h4.1c.1-.6.8-1.6 2.7-1.6.4 0 .7 0 1.1.1.3.1.7.3.9.6.3.3.4.6.6.9.1.3.1.7.1 1.1h-4c-3.6 0-5.8 1.9-5.8 5.1 0 .8.1 1.5.4 2.2.3.7.7 1.3 1.2 1.9.5.5 1.2.9 1.9 1.2.7.3 1.5.4 2.2.3.9 0 1.7-.1 2.5-.5s1.4-.9 2-1.6c.3.6.8 1 1.4 1.3.6.3 1.2.4 1.9.4h1.4v-3.7c-.8 0-1.1-.3-1.1-1.2zm-4.1-1c0 .4-.1.8-.2 1.2-.1.4-.4.7-.7 1-.3.3-.6.5-1 .6-.4.1-.8.2-1.2.2-1.5 0-2.6-.5-2.6-2.1s1.3-1.8 2.4-1.8h3.3v.9zm-38.4-5.2h-2.9V6.5h-4.1v15.9h7.1c4.4 0 6-2.9 6-5.6 0-3.4-2.2-5.4-6.1-5.4zm-.3 7.6h-2.6v-4h2.6c1.4 0 2.3.6 2.3 2s-.8 2-2.3 2zm83.5-1.4v-5.4c0-3.9-2.5-6.4-6.7-6.4s-6.6 2.6-6.8 5.3h4.1c.1-.6.8-1.6 2.7-1.6.4 0 .7 0 1.1.1.3.1.7.3.9.6.3.3.4.6.6.9.1.3.1.7.1 1.1h-4c-3.6 0-5.8 1.9-5.8 5.1 0 .8.1 1.5.4 2.2.3.7.7 1.3 1.2 1.9s1.2.9 1.9 1.2c.7.3 1.5.4 2.2.3.9.1 1.7-.1 2.5-.5s1.5-.9 2-1.6c.3.6.8 1 1.4 1.3s1.2.4 1.8.4h1.4v-3.7c-.7 0-1-.3-1-1.2zm-4-1c0 .4-.1.8-.2 1.2s-.4.7-.7 1c-.3.3-.6.5-1 .6-.4.1-.8.2-1.2.2-1.5 0-2.6-.5-2.6-2.1s1.3-1.8 2.4-1.8h3.3v.9zm17.1-4.1h-5.6v-6h-4.1v15.9h4.1v-6.3h5.6v6.3h4.1V6.5h-4.1v6z"/>
</svg>