<?xml version="1.0" encoding="utf-8"?>
<!-- Generator: Adobe Illustrator 25.4.1, SVG Export Plug-In . SVG Version: 6.00 Build 0)  -->
<svg version="1.1" id="Layer_1" xmlns="http://www.w3.org/2000/svg" xmlns:xlink="http://www.w3.org/1999/xlink" x="0px" y="0px"
	 viewBox="0 0 180 42" style="enable-background:new 0 0 180 42;" xml:space="preserve">
<style type="text/css">
	.st0{fill:url(#SVGID_1_);}
	.st1{fill:#433A31;}
	.st2{fill:url(#SVGID_00000165194431331049454660000008325846933556886444_);}
</style>
<linearGradient id="SVGID_1_" gradientUnits="userSpaceOnUse" x1="38.6019" y1="10.8932" x2="2.8019" y2="31.5932" gradientTransform="matrix(1 0 0 -1 0 41.8898)">
	<stop  offset="0" style="stop-color:#A1742B"/>
	<stop  offset="0.5216" style="stop-color:#EADC66"/>
	<stop  offset="1" style="stop-color:#A1742B"/>
</linearGradient>
<path class="st0" d="M20.8,41.4c11.4,0,20.7-9.3,20.7-20.7C41.5,9.2,32.2,0,20.8,0C9.4,0,0,9.3,0,20.7C0,32.1,9.4,41.4,20.8,41.4z"
	/>
<g>
	<path class="st1" d="M34.4,7.1C26.9-0.5,14.5-0.5,7,7c-7.5,7.5-7.5,19.8,0.1,27.3c7.5,7.6,19.9,7.6,27.3,0.1
		C42,26.9,41.9,14.6,34.4,7.1z M30,29.8c-1.4,1.4-3.6,1.4-5.1-0.1c-1.5-1.4-1.5-3.7-0.1-5.1c1.4-1.5,3.8-1.5,5.2,0
		C31.5,26.1,31.5,28.4,30,29.8z M34,20.7c-3.5-3.5-9.1-3.6-12.7-0.4c0,0-0.1,0.1-0.2,0.2c-0.2,0.2-0.6,0.6-0.7,0.7
		c-3.6,3.2-9.2,3-12.7-0.5c-3.6-3.6-3.6-9.4-0.1-12.9c7.2-7.2,18.8-7.2,26.1,0.1c6.6,6.5,7.2,16.7,1.9,23.9
		C37.5,28.2,36.9,23.7,34,20.7z"/>
	<path class="st1" d="M11.4,11.2c-1.5,1.4-1.5,3.7,0,5.1c1.4,1.4,3.8,1.4,5.2,0c1.5-1.5,1.5-3.7,0-5.1S12.8,9.8,11.4,11.2z"/>
</g>
<linearGradient id="SVGID_00000132800221110675014070000011823576163571726487_" gradientUnits="userSpaceOnUse" x1="125.4347" y1="0.2047" x2="106.8347" y2="43.5047" gradientTransform="matrix(1 0 0 -1 0 41.8898)">
	<stop  offset="0" style="stop-color:#A1742B"/>
	<stop  offset="0.4118" style="stop-color:#D3BC6F"/>
	<stop  offset="0.6784" style="stop-color:#EADC66"/>
	<stop  offset="1" style="stop-color:#A1742B"/>
</linearGradient>
<path style="fill:url(#SVGID_00000132800221110675014070000011823576163571726487_);" d="M55.5,13.9h7.3l2.9,8.9
	c0.1,0.2,0.2,0.5,0.2,0.6c0.1,0.1,0.2,0.2,0.3,0.3c0.1,0.1,0.3,0.1,0.5,0.1H67v2.2h-6.5v-2.2h0.5c0.4,0,0.5-0.1,0.5-0.3
	c0-0.1-0.1-0.2-0.1-0.5h-4.3l-0.1,0.2c0,0.1,0.1,0.2,0.1,0.4c0.1,0.1,0.2,0.2,0.4,0.2h0.2V26h-5v-2.2h0.3c0.4,0,0.6-0.1,0.8-0.2
	c0.1-0.2,0.3-0.4,0.4-0.9l2.1-5.8c0,0,0-0.1,0.1-0.1v-0.1c0-0.1,0.1-0.1,0.1-0.1v-0.1c0.1-0.1,0.1-0.2,0.1-0.2
	c0-0.2-0.2-0.2-0.5-0.2h-0.7C55.5,16.1,55.5,13.9,55.5,13.9z M59.4,17l-1.3,3.4h2.5L59.5,17C59.5,17,59.4,17,59.4,17z M67.9,26.1
	v-2.2h0.5c0.3,0,0.5-0.1,0.6-0.2s0.2-0.3,0.2-0.5v-6.3c0-0.2-0.1-0.4-0.2-0.5c-0.1-0.1-0.3-0.1-0.6-0.1h-0.5v-2.2h6.9v2.2h-0.7
	c-0.4,0-0.6,0.1-0.6,0.4v6.9h2.4c0.4,0,0.6-0.1,0.8-0.3c0.2-0.2,0.3-0.6,0.4-1.3h2.2V26L67.9,26.1C67.9,26,67.9,26.1,67.9,26.1z
	 M83.1,26.1v-2.2h0.8c0.3,0,0.5-0.1,0.6-0.1c0.1-0.1,0.2-0.3,0.2-0.5v-6.6H84c-0.3,0-0.5,0-0.7,0.1c-0.1,0.1-0.2,0.1-0.3,0.2
	c-0.1,0.1-0.1,0.2-0.1,0.4l-0.2,1h-2.2l0.1-4.3h12.6l0.1,4.3H91l-0.2-1c-0.1-0.2-0.1-0.4-0.2-0.5c-0.1-0.1-0.4-0.1-0.9-0.1h-0.7v6.6
	c0,0.2,0.1,0.4,0.1,0.5c0.1,0.1,0.3,0.2,0.6,0.2h0.8v2.2L83.1,26.1L83.1,26.1z M101.5,13.9h5.3v2.2h-0.4c-0.2,0-0.4,0.1-0.5,0.1
	c-0.1,0.1-0.2,0.2-0.3,0.4c-0.1,0.2-0.2,0.5-0.5,1l-2.4,5.3v0.4c0,0.2,0.1,0.3,0.1,0.4c0.1,0.1,0.2,0.1,0.4,0.1h0.9v2.2h-7v-2.2h0.7
	c0.5,0,0.7-0.1,0.7-0.4v-0.5l-2.9-5.6c-0.2-0.5-0.5-0.8-0.7-1c-0.2-0.2-0.5-0.3-0.8-0.3h-0.2v-2.2h6.9V16h-0.4
	c-0.4,0-0.5,0.1-0.5,0.2c0,0.1,0.1,0.2,0.1,0.3L101,19h0.1l1.1-2.5c0.1-0.1,0.1-0.2,0.1-0.3c0-0.1-0.1-0.2-0.4-0.2h-0.4
	C101.5,16,101.5,13.9,101.5,13.9z M107.6,13.9h5.1l4.7,6.7v-3.8c0-0.2-0.1-0.4-0.1-0.4c-0.1-0.1-0.3-0.2-0.5-0.2h-0.5v-2.2h5.2v2.2
	h-0.5c-0.3,0-0.5,0.1-0.6,0.2c-0.1,0.1-0.1,0.3-0.1,0.5v9.3h-3.9l-4.7-6.6v3.7c0,0.2,0.1,0.4,0.1,0.5c0.1,0.1,0.2,0.1,0.5,0.1h0.5
	v2.2h-5.2v-2.2h0.5c0.3,0,0.5-0.1,0.6-0.2c0.1-0.1,0.1-0.3,0.1-0.5v-6.4c0-0.2-0.1-0.4-0.1-0.5c-0.1-0.1-0.3-0.2-0.6-0.2h-0.5
	C107.6,16,107.6,13.9,107.6,13.9z M122.5,13.9h5.6c1.2,0,2.1,0,2.8,0.1c0.7,0.1,1.4,0.2,2,0.4c0.6,0.2,1.1,0.5,1.4,0.9
	c0.4,0.4,0.5,1,0.5,1.7c0,0.5-0.1,0.9-0.4,1.3c-0.2,0.4-0.6,0.7-1,1c-0.4,0.2-1,0.4-1.5,0.4h-0.2v0.2h0.4c0.5,0,1,0.1,1.5,0.4
	c0.5,0.2,0.9,0.5,1.2,1c0.3,0.5,0.5,1,0.5,1.6c0,0.8-0.2,1.4-0.5,1.9c-0.4,0.4-0.9,0.8-1.5,1c-0.7,0.2-1.4,0.4-2.2,0.4
	c-0.8,0.1-1.9,0.1-3.2,0.1h-5.2v-2.2h0.5c0.3,0,0.5-0.1,0.6-0.2c0.1-0.1,0.1-0.3,0.1-0.5v-6.3c0-0.2-0.1-0.4-0.1-0.5
	c-0.1-0.1-0.3-0.2-0.6-0.2h-0.5v-2.2C122.7,13.9,122.5,13.9,122.5,13.9z M128.1,18.7h0.9c0.9,0,1.3-0.4,1.3-1.1
	c0-0.4-0.1-0.7-0.4-0.9c-0.3-0.1-0.7-0.2-1.3-0.2h-0.5L128.1,18.7L128.1,18.7z M128.1,23.4h0.9c1,0,1.5-0.4,1.5-1.1
	c0-0.5-0.2-0.8-0.5-1c-0.3-0.2-0.7-0.2-1.3-0.2h-0.6V23.4z M138.3,13.9h7.3l2.9,8.9c0.1,0.2,0.2,0.5,0.2,0.6
	c0.1,0.1,0.2,0.2,0.3,0.3c0.1,0.1,0.3,0.1,0.5,0.1h0.3v2.2h-6.5v-2.2h0.5c0.4,0,0.5-0.1,0.5-0.3c0-0.1-0.1-0.2-0.1-0.5h-4.3
	l-0.1,0.2c0,0.1,0.1,0.2,0.1,0.4c0.1,0.1,0.2,0.2,0.4,0.2h0.2V26h-5v-2.2h0.3c0.4,0,0.6-0.1,0.8-0.2c0.1-0.2,0.3-0.4,0.4-0.9
	l2.1-5.8c0,0,0-0.1,0.1-0.1c0-0.1,0-0.1,0.1-0.1v-0.1c0.1-0.1,0.1-0.2,0.1-0.2c0-0.2-0.2-0.2-0.5-0.2h-0.7v-2.2H138.3L138.3,13.9z
	 M142.2,17l-1.3,3.4h2.4L142.2,17L142.2,17z M150.5,13.9h5.1l4.7,6.7v-3.8c0-0.2-0.1-0.4-0.1-0.4c-0.1-0.1-0.3-0.2-0.6-0.2H159v-2.2
	h5.2v2.2h-0.6c-0.3,0-0.5,0.1-0.5,0.2c-0.1,0.1-0.1,0.3-0.1,0.5v9.3H159l-4.7-6.6v3.7c0,0.2,0.1,0.4,0.1,0.5s0.2,0.1,0.5,0.1h0.5
	v2.2h-5.2v-2.2h0.5c0.3,0,0.5-0.1,0.6-0.2c0.1-0.1,0.1-0.3,0.1-0.5v-6.4c0-0.2-0.1-0.4-0.1-0.5c-0.1-0.1-0.3-0.2-0.6-0.2h-0.5
	L150.5,13.9L150.5,13.9L150.5,13.9z M165.4,26.1v-2.2h0.5c0.4,0,0.6-0.1,0.7-0.1c0.1-0.1,0.1-0.2,0.1-0.4v-6.5
	c0-0.2-0.1-0.4-0.1-0.5c-0.1-0.1-0.3-0.2-0.6-0.2h-0.6v-2.2h6.6V16h-0.3c-0.2,0-0.4,0.1-0.5,0.1c-0.1,0.1-0.2,0.2-0.2,0.4v2l2.3-2.1
	c0.2-0.2,0.3-0.3,0.3-0.4c0-0.1-0.2-0.1-0.4-0.1H173v-2.2h6.3V16h-0.4c-0.6,0-1.2,0.2-1.8,0.5c-0.6,0.4-1.1,0.8-1.6,1.3l2.6,4.2
	c0.7,1.1,1.3,1.6,1.9,1.6v2.2h-7v-2.2h0.3c0.3,0,0.4-0.1,0.4-0.4c0-0.1-0.1-0.3-0.4-0.7l-1.1-1.8l-1.3,1.3v1c0,0.5,0.2,0.7,0.7,0.7
	h0.2v2.2H165.4L165.4,26.1z"/>
</svg>
