<svg viewBox="0 0 154 41" xmlns="http://www.w3.org/2000/svg">
	<path fill="#02ACE2" d="M8.70185 26.6104c-.12793-.1934-.22364-.3389-.29737-.4708L6.3039 22.501l-.05787-.0996-2.00952-3.4815c-.90722-1.5732-1.81274-3.1465-2.71631-4.7231-2.030758-3.5386-2.015133-7.09426-.02392-10.647L3.54559 0l.10303.171387.05908.096191.06055.09961.052.09082C6.12567 4.45508 8.42182 8.4165 10.705 12.4004c2.0532 3.5517 2.073 7.0976.0462 10.6601l-2.04935 3.5499ZM136.152 29.957v2.0235h-9.987v-1.9976h1.219l.111-.6475c.063-.375.124-.7441.183-1.1108l.189-1.1865.003-.0249.007-.0396c.182-1.0893.363-2.205.519-3.2944.155-1.0117.934-1.686 1.971-1.7119.494-.0117.987-.0132 1.479-.0108.424.002.847.0064 1.266.0093l.498.0015c.934 0 1.504.5703 1.504 1.5044V29.957h1.038Zm-3.217-5.9926h-1.686c-.356 0-.572.0473-.707.2021-.047.0542-.084.1221-.114.2061-.04.1108-.067.2495-.087.4223l-.073.5215-.088.6045-.065.4341-.001.0058v.0059l-.001.0059-.001.0058c-.064.4273-.128.8511-.186 1.27l-.001.0074c-.103.7495-.207 1.4995-.336 2.2754h3.372c-.026-1.9717-.026-3.9434-.026-5.9668Zm12.504 7.9897V21.9409l-.264.002c-.334.0044-.635.0078-.903-.0537-.178-.0113-.327.0058-.457.0576-.058.0229-.112.0527-.163.0893-.105.0752-.198.1802-.288.3199-1.167 1.8159-2.361 3.6059-3.554 5.396-.052.0859-.115.1723-.175.2583-.03.0434-.058.0869-.084.1303-.013 0-.033-.0068-.053-.0132l-.032-.0102-.019-.0025v-6.1479h-2.179V31.98c.183 0 .364-.0029.542-.0059.352-.0058.696-.0112 1.04.0059.26 0 .415-.0777.571-.3111 1.167-1.79 2.361-3.58 3.554-5.3701.052-.1035.13-.2075.207-.311.026 0 .052.0259.078.0259v5.9404h2.179Zm-42.492-6.0181c.519 0 .934.0259 1.375 0 .726-.0781 1.167-.5449 1.401-1.1933.259-.7783.519-1.5825.752-2.3609.032-.1181.074-.2094.133-.2744.083-.0913.203-.1299.386-.1147.131.0063.261.0097.391.0112l.198.001c.176-.0005.353-.0034.535-.0064.198-.0029.401-.0058.614-.0058-.13.4414-.259.8564-.389 1.2456l-.545 1.7895c-.233.7266-.571 1.375-1.323 1.7642.882.3892 1.219 1.1157 1.453 1.9199.337 1.0635.648 2.1528.986 3.2686-.727 0-1.375.0258-2.05-.0259-.104 0-.259-.1817-.285-.2857-.173-.4985-.317-.997-.464-1.5063l-.159-.543c-.441-1.4267-.856-1.7641-2.36-1.7641h-.623v4.0727h-2.205V21.915h2.179v4.021Zm22.439-1.9975v-1.9712c-.181 0-.311-.0264-.389 0h-4.358c-1.401.0259-2.283.8818-2.283 2.2827v5.4736c0 1.4527.882 2.3086 2.309 2.3086h4.358c.13 0 .26-.0259.39-.0259v-1.9716h-4.826v-2.127h4.099v-1.9199h-4.125v-2.0493h4.825Zm-13.359 4.332v3.6836h-2.206c0-.0645-.006-.1357-.012-.207-.007-.0713-.013-.1431-.013-.208v-7.4449c0-1.3491.83-2.1792 2.179-2.1533.908 0 1.816-.0259 2.723.0777 1.739.2075 2.802 1.4526 2.776 3.1909-.026 1.5566-1.245 2.8794-2.879 3.061-.548.0518-1.096.0352-1.666.0176-.294-.0088-.594-.0176-.902-.0176Zm.025-1.9717c.247 0 .487.003.723.0059h.011c.457.0058.899.0117 1.342-.0059.622-.0259 1.037-.5185 1.063-1.1152.026-.6226-.285-1.1157-.856-1.1675-.344-.0356-.694-.0439-1.047-.0425-.198.0005-.396.0044-.595.0083-.222.0044-.444.0083-.666.0083.025.7525.025 1.5308.025 2.3086Zm34.321-2.334h2.698v8.0157h2.205v-8.0157H154v-1.9716h-7.627v1.9716Z"/>
	<path fill="#FE720A" d="M36.8743 17.7388h-.493c-4.6435 0-9.2871.0258-13.9565 0-3.9949-.0264-7.03-1.7901-9.0793-5.2403l-.003-.0058-.0029-.0059c-.6208-1.06-1.2415-2.1196-1.8362-3.17918-.0346-.05811-.0642-.11621-.0954-.17823l-.0074-.01416-.0036-.00732c-.0359-.07178-.075-.1499-.127-.24121.1113 0 .2075-.00732.2969-.01416l.1208-.0083.0425-.00195.0586-.00147c1.0235 0 2.0469-.00146 3.0703-.00293l1.5213-.00293c3.061-.00586 6.1223-.01172 9.1833.00586 4.0989.02588 7.2117 1.81588 9.2871 5.36958.5967 1.0376 1.1934 2.0494 1.7901 3.087.0385.0644.0708.1289.1062.2002.0359.0717.0749.1499.1272.2412Zm-.8819 14.2417h-2.2829V29.957c-.5188 0-1.5205-.0112-2.4434-.0234-1.0613-.0142-2.0185-.0288-2.0185-.0288l-1.1155 2.1274s-2.0235-.0259-2.5164-.0259c.1038-.2075.1817-.3374.2595-.4672.7505-1.333 1.5079-2.6661 2.2652-3.9991l.3684-.6489c.4758-.8379.9512-1.6758 1.4245-2.5137l.4815-.854c.5967-1.0898 1.4788-1.6342 2.7239-1.5825.3613.0171.7226.0117 1.0915.0059.1875-.003.3767-.0059.5689-.0059.7263 0 1.2971.4668 1.2971 1.1934.0173 1.935.0115 3.8701.0059 5.813-.003.9741-.0059 1.9502-.0059 2.9292l-.1038.104Zm-5.759-3.9693h3.4502v-3.7358c-.908-.2075-1.5046.0522-1.8938.9082-.301.4888-.5203.9233-.7564 1.3628-.0893.1665-.1813.3335-.2812.5049l-.094.1645-.0762.1387-.0722.1348-.0967.1831-.1797.3388Zm31.4685-.726-.0015-.3374v-1.1934c-.0261-2.2568-1.3491-3.6836-3.6059-3.8916-2.3347-.2075-4.0989 1.3232-4.1765 3.6582-.0262.9595-.0262 1.8936 0 2.8535.0517 2.1011 1.3488 3.4502 3.4243 3.6836 2.1789.2334 3.9429-.9858 4.2803-3.0869.0866-.5415.083-1.1182.0793-1.686Zm-5.5847.1538c.0027-.1641.0056-.3277.0056-.4912v-1.479c.052-.9078.6746-1.5044 1.5825-1.5044.96-.0259 1.6863.5708 1.7122 1.4785.052 1.0117.052 2.0234 0 3.0351-.0518.96-.7263 1.5308-1.6863 1.5308-.9338 0-1.5823-.6226-1.6084-1.5825-.01-.19-.0122-.3799-.0112-.5699.0007-.1391.0031-.2783.0056-.4174Zm-8.5291 4.541h-2.205c0-.0386-.0015-.0757-.0039-.1118l-.0054-.0669c-.0073-.0855-.0166-.1695-.0166-.2622v-7.8863c0-1.1152.5967-1.7119 1.7121-1.686l.5313-.002c.8796-.0034 1.7478-.0068 2.6335.0796 1.7642.1817 2.8018 1.4527 2.8018 3.1651 0 1.5566-1.2451 2.8794-2.8535 3.061-.4324.0518-.8648.0576-1.2971.063l-.3213.0049c-.1092.0024-.2183.0054-.3274.0097h-.6226v1.8423c-.0117.2583-.0181.522-.0215.7906-.0044.3252-.0044.6582-.0044.999Zm.0259-8.0156v2.3344c.7263 0 1.4009.0259 2.1013 0 .6226-.0517 1.0638-.5708 1.0638-1.167 0-.6748-.3633-1.0898-1.0379-1.1416-.31-.0229-.6201-.0302-.9324-.0317-.2155-.001-.4323.001-.6508.0029-.1553.0015-.3113.003-.4685.003h-.0755Zm-10.1431 8.0161h2.2051v-8.0679h4.8511v-1.9717H39.261c-1.2193 0-1.8159.5708-1.8159 1.7901v7.7563c0 .0747.0061.1494.0122.2275.0066.084.0136.1714.0136.2657Z"/>
	<path fill="#0062A4" d="M5.02954 37.4121c.03198-.06.06226-.1147.09253-.1655 2.30859-3.9946 4.59155-7.9639 6.90043-11.9331 2.0493-3.5279 5.1362-5.292 9.2092-5.3438h4.0986c-.0476.0835-.0896.1612-.1286.2334-.0464.0855-.0887.1631-.1307.2334l-2.0373 3.5288c-.8882 1.5386-1.7744 3.0747-2.6624 4.6094-.7321 1.2656-1.4653 2.5303-2.2009 3.7949-2.0493 3.5542-5.1103 5.3443-9.20922 5.3701H4.86255c.06323-.1264.11694-.2338.16699-.3276Zm89.59036-9.5044c.3113-.6743.5708-1.2973.8303-1.8935.5447-1.2456 1.0894-2.4649 1.6081-3.71.1299-.2852.2596-.3892.5709-.3633.3515.0176.7031.0117 1.0622.0059H98.7207c.1873-.003.3765-.0059.5686-.0059v10.0137h-2.2048v-4.6177c-.0132 0-.0327-.0068-.0523-.0132l-.0251-.0078c-.01-.0029-.0193-.0049-.0264-.0049-.3633.7784-.7263 1.5567-1.0896 2.3609-.2334.5703-.6225.9336-1.2712.9336-.3416 0-.6099-.0933-.8252-.2593-.21-.1621-.3697-.3931-.4978-.6743-.3372-.8042-.7263-1.5825-1.1673-2.335v4.5918h-2.205V21.915c.1577 0 .312-.0014.4643-.0029.449-.0049.8801-.0098 1.3257.0288.1296 0 .2593.2075.3372.3374.3779.8316.7558 1.6631 1.1308 2.4976.2371.5273.4729 1.0561.707 1.5869.158.3584.315.7178.471 1.0781.0779.1294.1555.2593.2593.4668Zm-26.097 4.0728h2.1531c0-.1558 0-.2857.0259-.4414v-8.1455c0-.96-.4929-1.4527-1.4526-1.4527h-4.6436c-1.1155.0259-1.6084.4927-1.6084 1.6084v8.4312h2.231v-7.9903h3.2946v7.9903Zm20.0008-4.981c0 .5967.0259 1.1934-.052 1.7901-.2852 2.2309-2.0493 3.5542-4.3321 3.2685-1.9975-.2334-3.2167-1.4268-3.3725-3.4243-.0779-1.167-.0779-2.3345.0259-3.502.1816-2.0493 1.9196-3.3984 4.0468-3.2426 2.2571.1557 3.658 1.6601 3.6839 3.917v1.1933Zm-2.283-.0259v-1.3227c-.0259-1.064-.6484-1.6865-1.6601-1.6865-.9859 0-1.6343.5708-1.6602 1.6342-.0261.9082-.0261 1.8418 0 2.75.0259 1.0376.6743 1.6602 1.6343 1.6602 1.0117 0 1.6343-.6226 1.6601-1.686.0389-.3291.0342-.6587.0293-.9991l-.0014-.1103-.002-.2398Zm-11.7253 4.9805v-3.6318h.6225c.6487-.0259 1.2972 0 1.9456-.0777 1.6345-.1816 2.8276-1.5044 2.8538-3.061.0258-1.7124-1.0118-2.9834-2.7759-3.165-.9085-.0865-1.835-.0826-2.749-.0787l-.5455.001c-1.0896-.0259-1.5825.4668-1.5825 1.5567v8.0156c0 .0815.0071.1631.0139.2407l.0093.1196.0027.0806h2.2051Zm.0259-5.6553v-2.3344l.153-.0005.3721-.0025c.5254-.0049 1.0508-.0097 1.5762.0288.7004.0518 1.0637.4668 1.0637 1.1416 0 .1817-.0408.356-.1152.5122-.0711.149-.1729.2818-.2989.3882-.0937.0791-.2009.1441-.3188.1905-.1028.04-.2136.0664-.3308.0761-.0965.0039-.1934.0064-.2908.0083-.1824.0034-.3664.0039-.5525.0034-.1728-.0009-.3469-.0034-.5229-.0058h-.0088l-.3176-.0039-.4087-.002Zm-48.355 10.896h-.3113v1.7637h-1.1155v-4.2803h1.1155v1.8159l.2595-.1298 1.0117-1.712h1.1932l-1.0376 1.6343-.441.3374.4668.3369 1.1675 1.9976h-1.2712l-1.0376-1.7637Zm2.6921-1.6303c-.0354.0737-.0674.1508-.0954.2314-.0181.0513-.0347.104-.0496.1582l-.023.0894c-.0102.0424-.0195.0859-.028.1298-.0198.104-.0345.2129-.044.3267l-.0075.1099-.0032.0664-.0022.0854-.0007.0698c0 .0894.0036.1773.01.2632.0053.0723.0127.1436.0212.2134.0195.1592.0461.3115.0725.4575.0735.2022.1599.3784.2595.5376.0257.041.0523.0806.0796.1192l.0501.0693c.0649.0864.1386.1641.2217.2329.1159.0957.2495.1738.4008.2344.0537.0239.1119.0449.1734.0635.0437.0131.0891.0249.136.0351.1735.0381.3684.0571.5727.0571.2539 0 .4907-.0302.7048-.0942.1175-.0351.2283-.0806.3313-.1367.1695-.0918.3182-.2129.4424-.3657.1389-.1709.2515-.3638.3357-.5826.1204-.3125.1831-.6767.1831-1.104 0-.2133-.0207-.4165-.0556-.6093-.0203-.1118-.0454-.2198-.074-.3243-.0779-.2856-.2075-.519-.363-.7265-.1558-.2075-.3633-.3633-.6228-.4668-.2334-.104-.5447-.1558-.8819-.1558-.6225 0-1.1155.2075-1.4787.5967-.1033.127-.1919.2661-.2652.419Zm.9485 1.6782-.0151-.1128-.0086-.0777-.0061-.0781c-.0029-.0469-.0049-.0947-.0049-.1426 0-.4668.0518-.8042.1814-1.0117.1558-.2075.3633-.311.6487-.311.3113 0 .5447.1294.6743.3633.1299.2592.2076.5703.2076.9594 0 .0918-.003.1788-.0088.2603-.0044.0625-.0105.1221-.0183.1782-.0054.0401-.0115.0786-.0184.1157-.0356.1914-.091.3438-.1621.4576-.1296.2075-.363.3115-.6484.3115-.1558 0-.2854-.0259-.3892-.104-.1037-.0777-.1816-.1553-.2592-.2852-.0779-.104-.1299-.2593-.1558-.415l-.0171-.1079Zm7.2808-.23.0778-.8818h-.0517l-.3374.7265-.8042 1.3228h-.4151l-.8818-1.3228-.3374-.7265h-.0517l.1037.8818v1.9717h-.9858v-4.2803h1.1675l.9855 1.6084.2337.5449h.0259l.2592-.5449.908-1.5825h1.1675v4.2803h-1.0637v-1.9976Zm5.759-.8818-.0779.8818h.0259v1.9976h1.0637V34.73h-1.1675l-.9079 1.5825-.2593.5449h-.0259l-.2336-.5449-.9856-1.6084h-1.1675v4.2803h.9858v-1.9717l-.1037-.8818h.0259l.3371.7265.8821 1.3228h.415l.8042-1.3228.3372-.7265h.052Zm5.396 2.4648c-.1816.1299-.415.2593-.7004.3374-.2854.1035-.5967.1294-.9341.1294-.7002 0-1.1931-.2075-1.5044-.5967-.1892-.2519-.3208-.5517-.395-.9057-.0481-.2286-.0721-.4795-.0721-.7544 0-.7525.1817-1.3228.5447-1.6861.3633-.3891.8562-.5708 1.5047-.5708.2075 0 .4411.0259.6225.0777.2075.0522.3892.1557.5449.2856.1556.1294.2854.311.3892.5186.1038.2075.1555.4931.1555.83 0 .1299 0 .2598-.0259.3892-.0129.0645-.0193.1357-.0256.2065-.0066.0718-.0132.1436-.0264.2085h-2.5681c.0259.3633.1038.6231.2854.8042.1555.1817.4409.2857.8042.2857.2334 0 .4409-.0259.6226-.104.1816-.0777.3371-.1553.415-.2075l.3633.7524Zm-1.5825-3.1392c-.2854 0-.4929.0782-.6485.2598-.1298.1816-.2336.415-.2595.7002h1.5825c.0259-.311-.0261-.5444-.1298-.7002-.1297-.1558-.3113-.2598-.5447-.2598Zm3.3205-.7519h-.8042v6.0181h1.1155V38.959c.1038.0517.2334.1035.3372.1294.1299.0259.2595.0259.4411.0259.3113 0 .5967-.0518.8301-.1553.2595-.104.4671-.2598.6226-.4673.1816-.2075.3112-.4668.3891-.752.043-.1572.0779-.33.1006-.5141.0186-.1504.0291-.3086.0291-.4717 0-.7524-.1556-1.2974-.4151-1.6343-.2854-.3374-.6745-.519-1.2192-.519-.3113 0-.5447.0517-.7522.1557-.1572.0586-.2847.1773-.4048.3213l-.052.0645-.0623.081h-.0258l-.1297-.5185Zm.8743.8242c.0674-.0137.1396-.0205.2153-.0205.1136 0 .2146.0166.302.0493.1321.0498.2322.1372.2947.2622.1297.2075.1814.4927.1814.8819 0 .519-.0776.8823-.2334 1.1157-.1555.2334-.415.3374-.7263.3374-.1558 0-.2595-.0264-.3633-.0523-.1037-.0517-.1814-.1035-.2593-.1552v-1.7901c.0779-.2334.1556-.3891.2854-.4931.0823-.066.1858-.1109.3035-.1353Zm3.8472-.8247v.96c0 .1816 0 .3374.0258.4668.0259.1298.0518.2334.0779.3115.0518.0776.1038.1553.1814.1816.0779.0518.1817.0518.3113.0518.1558 0 .3113-.0259.4412-.0518.0747-.0151.1408-.0386.1982-.0708l.032-.0195.032-.023.0227-.018.0263-.0244v-1.7901h1.1155v4.2803H56.071v-1.686c-.0778.0517-.2075.1294-.3891.2075-.1817.0776-.4151.1035-.7005.1035-.2075 0-.3891-.0259-.5708-.0776-.0766-.0254-.1533-.0572-.2236-.0953-.0725-.0395-.1387-.0854-.1914-.1381-.1038-.104-.2075-.2593-.2593-.441-.052-.1816-.0779-.415-.0779-.7006v-1.4527h1.0638v.0259Zm6.122 4.229c.2854-.0781.5188-.2075.7005-.3374l-.3633-.7524c-.0344.0229-.0837.0507-.1438.0815l-.085.0425-.0778.0356-.1084.0479c-.1817.0781-.3892.104-.6226.104-.3633 0-.6487-.104-.8042-.2857-.0867-.0864-.1497-.1909-.1948-.3159-.0493-.1367-.0772-.2983-.0906-.4883h2.5681c.0132-.0649.0198-.1367.0264-.2085.0063-.0708.0127-.142.0256-.2065l.0078-.0454.0066-.0469.0056-.06c.0059-.0787.0059-.1578.0059-.2369 0-.3369-.0518-.6225-.1555-.83-.0608-.1216-.1306-.2344-.2095-.333l-.0342-.0411-.0381-.0424c-.021-.0225-.0427-.044-.0649-.0645l-.0425-.0376c-.1557-.1299-.3374-.2334-.5449-.2856-.1814-.0518-.415-.0777-.6226-.0777-.6484 0-1.1413.1817-1.5046.5708-.363.3633-.5447.9336-.5447 1.6861 0 .438.0611.8149.1826 1.1377.0354.0937.076.1831.1216.268.0486.0899.1028.1743.1629.2544.3112.3892.8042.5967 1.5044.5967.3374 0 .6486-.0259.934-.1294Zm-1.2324-3.4238c.1016-.0362.2175-.0528.3504-.0528.1079 0 .2024.0181.2832.0503.1137.0454.2009.1187.2614.2095.0633.0947.1072.2183.1263.3701.0122.0982.0139.208.0036.3301h-1.5825c.0117-.1299.0398-.249.0791-.3579.0469-.1294.1099-.2437.1804-.3423.0833-.0972.1814-.165.2981-.207Zm5.8501 3.1899c-.1816.1294-.3891.2334-.6225.2852-.2337.0517-.493.104-.7525.104-.3371 0-.6225-.0523-.8559-.1558-.2337-.104-.4412-.2593-.5708-.4673-.1556-.2075-.2593-.4409-.3113-.726-.0779-.2857-.1038-.5967-.1038-.9341 0-.3701.0405-.6934.1248-.9761.0476-.1597.1091-.3062.185-.4409.0537-.0952.1148-.1846.1831-.2691.3372-.3891.8042-.5966 1.4268-.5966.1743 0 .3325.0083.4697.0244.1077.0127.2027.0302.2825.0532.1816.0522.3633.1299.519.2075l-.2595.9082-.3891-.1557c-.1297-.0259-.2854-.0518-.441-.0518-.3112 0-.5449.1035-.7004.311-.073.0972-.1287.2173-.1675.3628-.0439.1651-.0659.3628-.0659.5972 0 .1816.0259.3633.0518.4932l.0183.0537.0354.0967c.0363.0927.0764.1787.1279.2646.0779.1035.1816.2075.3113.2593.1296.0776.2854.1035.4409.1035.0881 0 .1702-.0064.2461-.0186.0806-.0127.1543-.0322.2209-.059.0828-.0332.1656-.0665.2417-.106.043-.0225.084-.0474.1216-.0757l.2334.9082Zm1.7898-1.5044h.3113l1.0376 1.7637h1.2712l-1.1675-1.9976-.4668-.3369.441-.3374 1.0376-1.6343h-1.1932l-1.0117 1.712-.2595.1298v-1.8159h-1.1155v4.2803h1.1155v-1.7637Zm5.6553-.1821.052-.5967h-.0259l-.3633.6231-1.5305 1.9453h-.7004v-4.2803h1.1154v2.0493l-.052.5708h.0262l.363-.5967 1.5305-2.0234h.7005v4.2803H72.907v-1.9717Zm4.7214-.5962-.052.5967v1.9717h1.1155v-4.2803h-.7004l-1.5306 2.0234-.363.5967h-.0261l.052-.5708v-2.0493h-1.1155v4.2803h.7004l1.5306-1.9458.3632-.6226h.0259Zm-1.0376-3.0093c-.0158-.0117-.0305-.0254-.0439-.041-.0242-.0273-.0449-.0605-.0637-.0991-.0401-.083-.0701-.1919-.0999-.3267l-.908.2334c.0259.1817.0777.3633.1814.4932.1038.1294.2076.2593.3374.3369.1297.0781.2854.1299.441.1816l.0607.0088c.1563.0225.2969.043.4581.043.3632 0 .6745-.0776.9338-.2593.1926-.1347.3281-.3266.417-.5654.0307-.0825.0559-.1709.0759-.2647l-.8559-.2075c-.0259.2334-.0779.3633-.1817.4668-.0693.0523-.1504.0928-.2431.1138-.0459.0102-.0945.0161-.146.0161-.1556 0-.2593-.0259-.3631-.1299Zm5.9666 2.1011c.1555-.2593.363-.4409.5967-.5444.2334-.104.4926-.1558.83-.1558.5188 0 .9339.1558 1.2451.4668.3113.3115.4671.8042.4671 1.479 0 .4766-.0681.8755-.1985 1.2085-.0825.2105-.1897.3945-.3203.5552-.3374.3891-.8303.5967-1.4788.5967-.2202 0-.4211-.022-.6035-.0674-.3762-.0933-.6741-.2842-.9011-.5811-.3372-.4409-.5188-1.1152-.5188-2.0493 0-.3018.0098-.5747.0293-.8242.0122-.1577.0286-.3062.0486-.4468.0517-.3374.1296-.6489.2334-.8823.0349-.0786.0727-.1543.1135-.2251.0264-.0454.054-.0889.0828-.1299.059-.0845.1233-.1577.1928-.2158.1555-.1294.3113-.2593.493-.3369.1816-.0782.363-.1299.5705-.1817.2078-.0517.4153-.0517.6487-.0776.2854-.0264.5447-.0523.7522-.104.2075-.0518.3633-.1035.467-.2075l.0518.9858c-.0383.0381-.0874.0728-.1445.103-.0582.0308-.1246.0562-.1966.0752-.0483.0127-.0991.023-.1516.0293-.1062.0264-.2327.0459-.3794.0625-.1404.0157-.2993.0283-.4768.041-.2075 0-.415.0264-.5708.0782-.1555.0517-.3113.1035-.4409.2075-.1296.1035-.2075.2334-.2854.4409-.1038.1558-.1555.3892-.1555.7002Zm.2075 1.375c0 .3633.0779.6748.2075.9082.0601.1084.1426.1943.2422.2554.052.0317.1086.0571.1694.0752.0735.0215.1529.0327.2368.0327l.0604-.0015c.0449-.0019.0874-.0063.1276-.0137.0555-.0092.107-.0234.1548-.0424.0567-.0225.1084-.0518.1563-.0884.0656-.0498.1235-.1133.1755-.1914.1296-.2075.2075-.5191.2075-.9341 0-.3633-.052-.6484-.1816-.856-.0501-.08-.1118-.145-.1851-.1943-.0595-.04-.1267-.0698-.2014-.0893-.0718-.0186-.1504-.0279-.2361-.0279-.1049 0-.2011.0117-.2883.0357-.052.0141-.1008.0322-.1465.0547-.105.0517-.1936.1254-.2656.2211-.0806.1075-.1404.2359-.1792.3853-.0361.1392-.0542.2959-.0542.4707Zm4.436-2.1792c-.3115.0522-.5708.1299-.8042.2339l.2334.8559c.0757-.0327.1511-.0605.2324-.0859.1138-.0351.2388-.0654.3902-.0957.0881-.0195.1763-.0352.2644-.0474.1453-.0205.2908-.0307.436-.0307.2854 0 .4929.0781.5708.208.1038.1553.1297.3887.0777.7002-.3631-.0259-.7005-.0259-1.0118.0259-.1189.0214-.238.0478-.3515.0786-.1582.0429-.3057.0942-.4265.1548-.2076.104-.3633.2597-.493.4409-.1298.1816-.1816.415-.1816.6748 0 .2075.052.3633.1038.5185.0354.106.0944.1997.1613.2818.0318.0385.065.0742.0982.1074.1296.104.2593.2075.415.2598.1555.0517.3372.0776.5447.0776.3113 0 .5967-.0518.7783-.1816.0596-.0425.1189-.0879.1756-.1358.0305-.0259.0605-.0527.0891-.0801.0227-.0219.0447-.0444.0656-.0673.053-.0581.0997-.1192.1365-.1836h.052l.1817.5966h.9079c-.0488-.1303-.0774-.2607-.0981-.3974-.0125-.0811-.022-.1646-.0318-.2515-.01-.0903-.0161-.1841-.0197-.2788-.0061-.1509-.0061-.3042-.0061-.4473 0-.163 0-.3159.0063-.4711.0039-.0923.01-.1851.0195-.2813.0262-.2593.0262-.4927.0262-.7524 0-.2334-.0262-.441-.0779-.6226-.0235-.082-.052-.1582-.0884-.2295-.0442-.0869-.0998-.166-.1711-.2373-.1038-.1299-.2593-.2334-.4668-.311-.2076-.0782-.4671-.104-.7525-.104-.3371 0-.6743.0258-.9856.0776Zm.8636 3.4009c-.0706.0156-.1499.0234-.241.0234-.1817 0-.3113-.0517-.4412-.1035-.0464-.0469-.0835-.1118-.1059-.1899-.0152-.0523-.0237-.1109-.0237-.1734 0-.1299.0259-.2075.1037-.2851.0779-.0782.1817-.1299.3113-.1817.1297-.0522.2595-.0522.4409-.0781.076-.0107.1473-.0171.2178-.019.0542-.0015.1079 0 .1629.0039.0449.0034.0908.0083.1384.0151v.5449c-.0242.0484-.0593.0962-.103.1446-.0332.0361-.0711.0722-.1128.1084l-.0696.0585c-.0469.0372-.0969.0679-.1528.0918-.0386.0166-.0801.0298-.125.0401Zm5.1027-.8067h-1.4008v1.6861h-1.1155v-4.2803h1.1155v1.6084h1.4008v-1.6084h1.1155v4.2803h-1.1155v-1.6861Zm3.191-.1035h.3112l1.0635 1.7637h1.2713l-1.1675-1.9976-.4668-.3369.4409-.3374 1.0376-1.6343h-1.1931l-1.0117 1.712-.2596.1298v-1.8159h-1.1154v4.2803h1.0896v-1.7637Z"/>
</svg>