<svg xmlns="http://www.w3.org/2000/svg" viewBox="0 0 170 32">
	<path fill="#08131D" d="M81.6682 23.3863c-.1994.1611-.4186.3102-.6576.4472-1.4566.856-3.5988 1.2637-6.4479 1.2637-1.4358 0-2.6995-.1502-3.7922-.4505-1.0922-.2992-1.992-.7069-2.7423-1.2418-.7283-.514-1.285-1.1354-1.6708-1.8424-.3212-.6214-.5141-1.2637-.5568-1.9706 0-.0713.0285-.1425.0751-.1973.0246-.0296.0542-.0537.0871-.0723.0356-.0198.0751-.0307.1162-.0307h4.863c.1288 0 .257.1074.2784.2356.0214.1929.0855.3639.1502.536.1068.2356.2783.4493.514.6422.257.1929.5787.3212 1.0281.4286.1627.0416.3479.0756.5524.103.1002.0132.2055.0241.3151.034.1775.0153.3666.0263.5661.0307l.2592.0033c.5995 0 1.0708-.0428 1.4352-.1064.3639-.0646.6642-.172.8566-.2794.2142-.1064.343-.2346.4285-.3847l.0247-.0526.0126-.0307.0274-.0757c.0268-.0844.0427-.1698.0427-.2488 0-.092-.0082-.1677-.029-.2411l-.0176-.0537c-.0109-.0296-.0241-.0603-.0394-.091-.0641-.1063-.1496-.2137-.2998-.3211-.0669-.0449-.1507-.0899-.2466-.1348-.0882-.0406-.1858-.0811-.2888-.1217-.2356-.0646-.514-.1501-.8357-.2148l-4.5841-.8779c-.9212-.171-1.6928-.4285-2.3137-.7289-.6215-.2992-1.1355-.6641-1.4999-1.0927-.3853-.4066-.6423-.8779-.8138-1.3919-.1716-.5141-.2357-1.05-.2357-1.6495 0-.1754.0121-.3519.0345-.5272.0126-.102.0291-.2039.0488-.3058.0247-.1294.0543-.2587.0882-.388.0554-.2115.1288-.4176.2225-.6182.0861-.1841.1897-.3639.313-.5392.257-.3639.5781-.7069.9853-1.00616.4071-.30031.9212-.5787 1.5213-.79243.5995-.23564 1.3064-.40772 2.1208-.53595.8138-.12824 1.7563-.1929 2.8063-.1929.2746 0 .5426.00548.8034.01644.5217.02082 1.016.06247 1.4807.12385.2379.03178.468.06795.6905.1096.2773.05261.5426.1118.7957.17865 1.0495.27839 1.9279.68502 2.6135 1.17823.6856.51407 1.1996 1.09277 1.5421 1.77777.3003.5787.4713 1.2209.536 1.8643.0213.171-.1074.2992-.2784.2992h-4.4992c-.0318 0-.0619-.0044-.0899-.0142-.0339-.011-.0652-.0296-.0909-.0526-.039-.034-.0664-.0779-.0762-.1261-.0641-.1918-.1282-.3639-.2143-.514-.1282-.2137-.2997-.4066-.5568-.5568-.257-.1501-.5781-.2784-1.0067-.3639-.2449-.0515-.5359-.0866-.8642-.1074-.2175-.0142-.4521-.0208-.6998-.0208-.4926 0-.8998.0427-1.221.1063-.1244.0252-.2356.0537-.337.0844-.1315.0406-.2455.0866-.3469.1381l-.0657.0351c-.091.057-.1705.114-.234.1775-.0559.0559-.1003.1162-.1305.1864l-.0361.0789c-.0143.0328-.0269.0657-.0373.0986-.0214.0691-.034.1392-.034.2083 0 .1501.0219.2783.0861.3858.0641.1282.1501.2356.2997.343.1502.1063.3431.1918.5787.2784.2357.0855.5568.1491.9212.2137l3.6843.6861c.3924.08.7607.1622 1.1064.2499.5793.1458 1.0944.3036 1.5504.4779.7069.2784 1.2851.6214 1.735 1.0072.4285.3858.7497.8352.9426 1.3492.1715.5568.2783 1.1355.2783 1.7778 0 .5502-.0734 1.0555-.2197 1.5147-.1469.4614-.3672.8779-.6615 1.2484-.1194.1501-.2504.2926-.3945.4274-.08.0756-.1639.1491-.2516.2192Zm-37.4193.9623L51.104 8.90238c.0197-.04932.0543-.08988.0959-.11947.0471-.03288.1041-.05151.1611-.05151h6.8984c.1069 0 .2143.06466.257.17098l6.8551 15.44622c.086.1929-.0428.3858-.257.3858h-5.227c-.1074 0-.2142-.0646-.257-.1721l-.9426-2.3992c-.0427-.1074-.1501-.1709-.257-.1709H51.19c-.1074 0-.2142.0635-.2575.1709l-.942 2.3992c-.0433.1075-.1502.1721-.2576.1721H44.506c-.2143 0-.3425-.1929-.2571-.3858Zm12.4892-6.1487c.1929 0 .3217-.1929.257-.3858l-1.9279-4.9266c-.0427-.1074-.1496-.1721-.257-.1721-.1069 0-.2143.0647-.257.1721l-1.9279 4.9266c-.0263.0713-.0197.1502.0104.217.0427.0954.1337.1688.2466.1688h3.8558Zm28.4928-9.16929V24.4549c0 .171.1282.2784.2783.3003h5.1201c.1502 0 .2784-.1293.2784-.2783V9.03061c0-.06685-.0252-.12933-.0669-.17755-.0515-.06138-.1282-.10084-.2115-.10084h-5.1201c-.1501 0-.2783.12824-.2783.27839Zm7.3044 15.31799 6.8551-15.44622c.0433-.10632.1501-.17098.257-.17098h6.8986c.107 0 .214.06466.257.17098l6.855 15.44622c.086.1929-.043.3858-.257.3858h-5.227c-.046 0-.091-.012-.131-.0329-.055-.0296-.101-.0767-.126-.1392l-.943-2.3992c-.005-.0142-.012-.0274-.019-.0394l-.021-.0274-.017-.0208c-.053-.0537-.126-.0833-.2-.0833h-7.2406c-.0192 0-.0384.0022-.057.0054l-.0312.0088c-.0411.0132-.0795.0362-.1107.068-.0241.0252-.0444.0548-.0581.0887l-.9426 2.3992c-.0427.1075-.1501.1721-.257.1721h-5.2275c-.0658 0-.1266-.0219-.1748-.0592-.0926-.0723-.1387-.1994-.0822-.3266Zm12.4887-6.1487c.193 0 .322-.1929.258-.3858l-1.928-4.9266c-.043-.1074-.15-.1721-.257-.1721-.057 0-.114.0176-.161.0505-.02.0142-.038.0306-.054.0504l-.027.0372-.015.034-1.928 4.9266c-.065.1721.064.3858.257.3858h3.855Zm27.785-.9217c.322-.685.493-1.4994.493-2.3992h.022v-.9853c0-.4483-.054-.8758-.165-1.2791-.084-.3102-.201-.605-.35-.8845-.342-.6434-.813-1.1782-1.434-1.6287-.622-.42852-1.372-.77048-2.229-1.00612-.856-.23565-1.82-.34306-2.87-.34306h-10.711c-.151 0-.278.12824-.278.27839V24.4549c0 .1502.127.2784.278.2784h5.099c.082 0 .159-.0394.211-.0997.041-.0493.067-.1118.067-.1787v-3.7484c0-.1501.128-.2794.278-.2794h5.292c1.007 0 1.928-.1283 2.763-.3639.434-.1228.834-.274 1.201-.4571.34-.1699.654-.366.942-.5929.599-.4713 1.071-1.0489 1.391-1.735Zm-5.419-3.7484c.107.2137.15.4713.15.7705v.4713c0 .1348-.013.2608-.037.3792-.029.1447-.075.2751-.134.3924-.039.0778-.084.1523-.134.2225-.088.1227-.194.2312-.317.3134-.192.1283-.406.2357-.663.2992-.074.0187-.148.034-.223.0461-.074.012-.148.0208-.224.0263-.113.0098-.228.0131-.347.0131h-4.241c-.021 0-.042-.0022-.062-.0076-.049-.0121-.094-.0373-.13-.0724-.019-.0186-.036-.0394-.049-.0624-.023-.0395-.037-.0866-.037-.136v-3.1916c0-.1501.128-.2784.278-.2784h4.349c.3 0 .578.022.814.0647.236.0427.45.1282.622.2565.149.1282.299.2784.385.4932Zm4.499 10.8188 6.855-15.44622c.043-.10632.15-.17098.257-.17098h6.899c.058 0 .116.01863.164.0537.04.0296.073.06905.093.11728l6.855 15.44622c.037.0833.034.1666.001.2346-.044.0887-.137.1512-.258.1512h-5.227c-.107 0-.215-.0646-.257-.1721l-.943-2.3992c-.043-.1074-.15-.1709-.257-.1709h-7.24c-.108 0-.215.0635-.257.1709l-.943 2.3992c-.043.1075-.151.1721-.257.1721h-5.228c-.193 0-.342-.1929-.257-.3858Zm8.634-6.1487h3.855c.193 0 .322-.1929.257-.3858l-1.928-4.9266c-.042-.1074-.149-.1721-.257-.1721-.065 0-.13.0242-.181.068-.032.0274-.059.0625-.076.1041l-1.928 4.9266c-.028.0735-.02.1546.013.2225.044.0932.134.1633.245.1633Zm21.614 6.277v-5.1623c0-.0428.009-.0855.022-.1217.007-.0186.014-.0361.022-.0504l7.24-9.96173c.045-.06686.058-.14139.047-.21044-.021-.12933-.129-.23893-.283-.23893h-5.74c-.087 0-.194.04274-.236.12823l-3.642 5.82757c-.108.171-.365.171-.471 0l-3.664-5.82757c-.043-.08549-.15-.12823-.235-.12823h-5.743c-.235 0-.363.25756-.235.44937l7.198 9.96173.014.0384c.016.0449.029.0822.029.1337v5.1623c0 .1501.13.2783.279.2783h5.12c.15 0 .278-.1282.278-.2783Z"/>
	<path fill="#6059F4" d="M10.0577 4.12921 1.12452 19.5964C-2.06746 25.102 1.91715 32 8.27966 32H26.1462c6.3624 0 10.347-6.898 7.155-12.4036L24.3681 4.12921c-3.1706-5.50561-11.1184-5.50561-14.3104 0Z"/>
	<path fill="#fff" d="M5.92384 20.9035c-1.1996 2.0781-.49266 4.7348 1.58485 5.935 2.07806 1.199 4.71341.4921 5.93441-1.586l8.0119-13.8603c1.1996-2.07801.4927-4.73477-1.5854-5.93382-2.0775-1.20014-4.7342-.49321-5.9338 1.58485L5.92384 20.9035ZM29.1239 22.895c0 2.6743-2.1674 4.8422-4.8411 4.8422-2.6743 0-4.8417-2.1679-4.8417-4.8422 0-2.6732 2.1674-4.8411 4.8417-4.8411 2.6737 0 4.8411 2.1679 4.8411 4.8411Z"/>
</svg>