<svg xmlns="http://www.w3.org/2000/svg" viewBox="0 0 200 18.9">
	<path fill="#003e22" d="M5.3 9.1v5.8h2c.3 0 .5-.1.5-.5V9.6c0-.4-.1-.6-.5-.6h-2zM0 16.9V0h11.9v2.1L5.3 2v5H8c1.3.1 5 0 5 2.4v5.2c0 1.9-3.1 2.3-5 2.3 0-.1-8 0-8 0zM22.9 2.4l-1.4 7.8h3.1l-1.4-7.8h-.3zm-7.7 14.5L19.1 0H27l3.8 16.9h-5.1l-.8-4.2h-3.7l-.8 4.2h-5.2zM33.4 0h5.2v6.8H41V0h5.2v16.9H41V9.2h-2.4v7.7h-5.2V0zm16.7 0h5.1v6.8L58.6 0h5l-3.9 7.9 4.4 8.9h-4.9l-4-7.7v7.7h-5.1V0zm33.1 2.4l-1.4 7.8h3.1l-1.4-7.8h-.3zm-7.6 14.5L79.4 0h7.9l3.8 16.9H86l-.8-4.3h-3.7l-.8 4.3h-5.1zm40.1-14.5l-1.4 7.8h3.1L116 2.4h-.3zm-7.6 14.5L111.9 0h7.9l3.8 16.9h-5.1l-.8-4.3H114l-.8 4.3h-5.1zm52.3-14.5l-1.4 7.8h3.1l-1.4-7.8h-.3zm-7.6 14.5L156.6 0h7.9l3.9 16.9h-5.2l-.8-4.3h-3.7l-.8 4.3h-5.1zM131.6 0v6.8h2.4V0h5.2v16.8H134V9.2h-2.4v7.7h-5.2V0h5.2zM98.8 9.2v5.7h1.8c.4 0 .6-.2.6-.5V9.8c0-.4-.2-.6-.6-.6h-1.8zm-5.1 7.6V0h7.5c5 0 4.9 1.7 4.9 2.5V6c0 .5-.1 2.1-2.9 2v.2c2.2 0 3 .7 3 1.8v4.6c0 .8-.3 2.3-5 2.4 0-.2-7.5-.2-7.5-.2zM98.8 2v4.8h1.8c.4 0 .6-.2.6-.4v-4c0-.3-.1-.5-.6-.5l-1.8.1zm44.8-2h10.3v2h-5.2v14.8h-5.1V0zm32.1 2v6.9h2.2c.9.1.9-.3.9-.7V2.7c0-.6-.6-.6-.9-.6l-2.2-.1zm-5.1 14.8V0h7.9c1.7 0 4.6 0 4.6 2.4v5.8c0 2.5-2.8 2.6-4.6 2.6h-2.8v6h-5.1zM194.4 2h-3v11c0 .8-.2 1.6-1.1 1.8h4c.1.1.1-12.8.1-12.8zm-10.8 16.9V15h.4c2.2 0 2.5-1.1 2.5-1.7V0h12.3v14.9h1.3v4h-5v-2.1h-6.4v2.1h-5.1z"/>
</svg>