<svg xmlns="http://www.w3.org/2000/svg" viewBox="0 0 173.1 40.1">
	<g fill="#00753a">
		<path d="M125.1 28.6h-11.8V25h7.1v-6.7h-.5c-.3 0-.5 0-.7.1s-.5.2-.6.4c-.7 1-1 2.2-.9 3.4v.6c0 .3.1.7.1 1.2v.2h-3.3c-.1-.5-.1-1-.2-1.5v-1.5c0-2.7.6-4.5 1.8-5.5.8-.6 1.8-.9 2.8-.9h5v10.1h1.3l-.1 3.7zm-13.5 0h-6c-1.1.1-2.2-.3-3.1-.9-.4-.4-.7-.9-.9-1.4-.2-.5-.3-1.1-.2-1.7-.1-1.1.3-2.1.9-3 .4-.5.9-.9 1.5-1.1s1.2-.3 1.9-.3h1.4c.2.3.3.7.3 1 0 .4.1.8.1 1.3v.5h-1c-.3 0-.7 0-1 .2-.2.1-.3.2-.4.4-.1.2-.1.4-.1.6 0 .3.1.6.3.8.1.1.2.2.4.2s.3.1.4.1h2.1v-3.1c.1-1.1-.1-2.2-.7-3.1-.3-.3-.7-.5-1-.6s-.8-.2-1.2-.2c-.9 0-1.7.1-2.5.4v-3.5c1.1-.2 2.2-.2 3.4-.2 1.3-.1 2.5.3 3.6 1 1.4 1 2.1 2.8 2.1 5.3l-.3 7.3zm-14-3.4c.5-.3 1-.7 1.3-1.2 2.6-3.5 1.5-9-3.6-9h-4.7v13.6h3.2V18.4h.7c1.7 0 2.4.8 2.4 1.6.1 1.2-1.2 2.7-2.5 2v3.5c.5.1 1 .1 1.5.1.6 0 1.2-.1 1.7-.4zm-8.5-6.6H85v10h-3.2V15h7.3v3.6zm-20.5 0h-2.8v10h-3.2v-10h-2.8V15h8.8v3.6zM26.5 7.4c-.9-.5-1.6-.9-2.3-1.3-1.1-.6-2-1.1-3.1-1.7-.3 0-.4.1-.4.2 0 .5 0 .9-.1 1.4-.1.4-.2.7-.5.9-.2.3-.6.5-.9.6-.4.1-.8 0-1.1-.1-.3-.2-.6-.4-.8-.8-.1-.3-.1-.6 0-.9.1-.6 1-1.4 1.8-1.9.1-.1.2-.3 0-.4-1.2-.7-2-1.2-2.7-1.6-1.1-.7-1.7-1-3.1-1.8l-1.5.9c-1.3.7-2.7 1.5-4.3 2.5-.2.2-.1.3 0 .4 1.4 1 1.7 1.6 1.9 2.2.3 1.1-1.2 1.8-1.9 1.6-1.6-.3-1.6-2.2-1.6-2.9v-.1c0-.1-.1-.1-.2-.2l-.1-.1-.3.2C3.1 5.7 2.2 6.2.1 7.3c-.2.2.1.4.2.5 2.2.8 2.6 1.7 2.9 3.4.1.6.2 1.2.1 1.8 0 .1 0 .2.1.3 0 .1.1.1.2.2.1 0 .2.1.3.1.1 0 .2 0 .3-.1l9.3-5.4c3.8 2.3 4.9 2.9 7.7 4.5.5.3 1 .6 1.6.9.1 0 .2.1.3.1s.2 0 .3-.1c.1 0 .1-.1.2-.2 0-.1.1-.2.1-.3-.2-1.1 0-2.3.5-3.4.2-.5.6-.9 1-1.2s.9-.5 1.4-.6c-.1.1 0-.3-.1-.4zm-2.8 1.3c-.4.5-.8 1.1-.9 1.8-.2.6-.2 1.3-.1 2 0 .2 0 .4-.4.2-1.1-.7-2-1.2-2.8-1.7-1.9-1.1-3.4-2-6.2-3.6-3.2 2-5.8 3.5-9 5.3-.2.1-.5.2-.4-.2.4-1.6-.8-4.4-2.6-5l4.1-2.2c0 .6.1 1.3.4 1.8 1 1.8 4.6 1.3 4.3-1.2-.2-.8-.8-1.6-1.5-2.1v-.1c-.1-.1-.2-.3.1-.4 1-.6 2-1.1 3-1.7.6-.3 1.1-.6 1.7-1 1 .6 2 1.1 4.6 2.7.3.2.2.4.1.5-1 .9-1.9 1.9-1.3 3.1.2.4.6.7 1 .9s.8.3 1.3.3.9-.2 1.3-.5.7-.7.9-1.1l.2-1.4c1.3.8 1.8 1 2.8 1.6.3.2.7.4 1.2.6-.8.4-1.4.8-1.8 1.4zm55.2 7.9c-.5-.6-1.1-1.1-1.8-1.4s-1.5-.5-2.2-.5c-.8 0-1.5.2-2.2.5s-1.3.8-1.8 1.4c-1.1 1.5-1.6 3.3-1.5 5.2-.1 1.9.4 3.7 1.5 5.2.5.6 1.1 1.1 1.8 1.4.7.3 1.5.5 2.2.5.8 0 1.5-.2 2.2-.5s1.3-.8 1.8-1.4c1.1-1.5 1.6-3.3 1.5-5.2.1-1.8-.5-3.7-1.5-5.2zm-2.8 8.2c-.1.2-.3.4-.6.5-.2.1-.5.2-.7.2-.3 0-.5-.1-.7-.2s-.4-.3-.6-.5c-.5-.9-.8-2-.7-3-.1-1 .2-2.1.7-3 .1-.2.3-.4.6-.5s.5-.2.7-.2c.3 0 .5.1.7.2s.4.3.6.5c.5.9.8 2 .7 3 .1 1.1-.1 2.1-.7 3zm-16.9.3c0-.9-.2-1.8-.7-2.5-.3-.5-.8-.8-1.3-1 .5-.1.9-.5 1.2-.9.4-.6.6-1.4.6-2.1 0-.8-.2-1.6-.6-2.3-.2-.4-.6-.7-1-.9-.4-.3-.8-.4-1.3-.4h-6.5v13.6H56c.4 0 .9-.1 1.3-.2.4-.2.8-.4 1.1-.7.6-.7.9-1.6.8-2.6zm-3.3-.9c0 .3-.1.7-.3.9-.1.1-.2.2-.4.3-.1.1-.3.1-.4.1h-2v-7.3h1.9c.3 0 .5.1.7.2.1.1.2.2.2.4 0 .1.1.3 0 .4 0 .2 0 .3-.1.5s-.2.3-.3.4c-.2.1-.4.2-.6.1h-1.3v2.6h1.3c.1 0 .3 0 .4.1s.3.1.4.3c.5.3.6.6.5 1zm95.9-9.2h3.3v13.7h-3.3V15zm17.8 13.8h3.5c-.2-1.7-.5-3.3-1.1-4.9-.5-1.5-1.1-3-1.9-4.4.8-.8 1.5-1.7 2-2.7.3-.6.6-1.2.8-1.8h-3.7c-.2.6-.6 1.2-1 1.8-.4.5-.9 1-1.5 1.4V15h-3.3v13.7h3.3v-6.3l.9-.6c.6 1 1 2.2 1.4 3.3.2 1.2.5 2.4.6 3.7zm-7.8-.1h-3.4v-5.9h-2.6v-3.4h2.6V15h3.4v13.7zm-17.6-.1h6v-7.3c0-2.5-.7-4.3-2.1-5.3-1.1-.7-2.3-1.1-3.6-1-1.1 0-2.2.1-3.3.3v3.5c.8-.3 1.7-.4 2.5-.4.4 0 .8 0 1.2.2.4.1.7.3 1 .6.6.9.9 2 .8 3.1v3.1h-2.1c-.2 0-.3 0-.4-.1-.1-.1-.3-.1-.4-.2-.2-.2-.3-.5-.3-.8 0-.2 0-.4.1-.6s.2-.3.4-.4c.3-.1.7-.2 1-.2h1v-.6c0-.4 0-.8-.1-1.3 0-.3-.1-.7-.3-1h-1.4c-.6 0-1.3.1-1.9.3-.6.2-1.1.6-1.5 1.1-.7.9-1 1.9-.9 3 0 .6 0 1.2.2 1.7s.5 1 .9 1.4c1 .7 2.1 1 3.2.9z"/>
		<path d="M2.9 15.6c-.1-.3-.2-.5.1-.7.3-.1.6-.3 1-.5.3-.2.6-.3 1-.5.7-.4 1.9-1.1 3.2-1.9 1.7-1 3.7-2.2 5.1-2.9 2.4 1.4 3.3 2 4.6 2.6.9.5 2 1.1 3.8 2.2.6.3 1.3.6 1.8 1 .1.1.1.2.1.3v.4c-.5 1-.1 3 .1 4h-.5c-.4-1.3-.6-2.6-.3-3.9.1-.2.1-.3 0-.4-1.4-.6-2.7-1.3-4-2.1-1-.6-1.8-1-2.6-1.5-1-.6-1.9-1.2-3.2-1.8-3.1 1.9-6.4 3.8-9.7 5.5v.3l.1 1-.1.9-.3 2.1c-.4 2.1-.9 4.4.3 7.7.9 2.5 2.4 4.8 4.4 6.6 0 0-.1.1-.1.2s-.1.2-.2.3C5.4 32.2 3 29 2.5 26c-.5-2.9-.1-5.2.3-7 .2-1.5.4-2.6.1-3.4z"/>
		<path d="M11.5 11.6c-3 1.7-4.5 2.6-7.3 4.1.3 1.2-.2 3.8-.6 5.6-.1.8-.3 2.4.4 3 .2.1.3.1.5.1s.3 0 .5-.1.3-.2.5-.3c1.8-1 4.6-2.6 5.8.4 1 2.7 1.3 7.3 1 10.4-.2-2.1-1-10.2-4.7-9.1-1.3.4-2.9.8-4-.3.7 3 2.2 5.8 4.4 7.9.2-.6.3-1 .5-1.3.1-.2.1-.4.2-.7-.2-.6-.5-1.1-.7-1.7-.5-1-1-2-1.1-3.1.1 0 .3 0 .5-.1.3-.1.7-.2.9-.1.4.1.8.4 1 .7.3.3.4.8.4 1.2v6.7L13 38V10.8c-.5.3-1 .5-1.5.8zM9.7 21.8c-1-.1-2 .1-2.8.6-.5-1.1.1-3.9.5-4.6.2-.5.5-.9.9-1.1.4-.3.9-.4 1.4-.4v5.5z"/>
		<path d="M24.1 21.4h-.4c-.1.2-.2.4-.2.6-.3.8-.6 1.6-1.5 1.7-1-.4-1.7-.8-2.3-1.2-.9-.6-1.6-1-2.7-.6v-5.5c.9.5 1.5.8 2.1 1.1 1.2.6 1.9 1 3.6 2-.3-1.2-.4-2.5-.2-3.7-2.9-1.6-4.2-2.3-8.7-4.8v27.4c1.9-1.7 3.6-3.5 5.3-5.4 1.4-1.5 2.5-3.3 3.2-5.2l.6-2.2c-.5.4-1 .6-1.6.6-.6.1-1.2-.1-1.7-.3-2.3-1-3.5 1.1-4.4 3.1-.5 1.4-.7 3-.8 4.5-.1.5-.1 1.1-.2 1.5-.1-1.9-.1-3.8 0-5.7.1-1.6.5-3.2 1-4.7.1-.4.3-.7.5-1s.5-.5.9-.7c.3-.2.7-.2 1.1-.2s.7.1 1.1.2c.4.1.8.4 1.2.6 1 .6 2.1 1.2 2.9.6 0 0 0-.1.1-.1 0-.1 0-.1.1-.2.3-.3.5-.6.6-.9.2 2.1-.2 4.3-1.3 6.1-1.7 3.2-4.7 6.1-7.5 8.8l-1.5 1.5c-1.3-1.3-2.1-2-2.8-2.7-.3-.3-.6-.5-.9-.8v.2c0 .2-.1.4 0 .5 1.2 1.2 2 2 2.8 2.7.3.3.7.6.9.9.7-.6 1.4-1.4 2.1-2.1.7-.8 1.4-1.5 2.2-2.2 3.5-3.2 8-9.5 6.4-14.4zM17 32.6v-5.1c.7-.9 1.4-1.4 2.6-.8-.3 2.1-1.3 4.1-2.6 5.9zM46.9 7.4c-.3-.2-.8.1-1.7.6-.9.4-2.1 1.1-3.8 1.8-.2.1-.5.2-1 .4-.9.4-2.3 1-3.7 1.7-.2.1-.3.3-.4.5-.1.2 0 .5.1.7.1.5 0 1-.1 1.5-.7 2.5-.9 5.2-.5 7.8.6 3.2 2.7 5.4 5.5 7.8-.1-.3.4-1.1.7-1.6.1-.1.2-.3.2-.4-.1-.3-.4-.6-.7-1.1-1.2-1.8-2.9-4.4-.5-4.3 1.9.1 1.9.5 2 2v6.7s0 .1.1.1c3.5 3 3.6 3 4.2 3V9.5c-.1-1.3-.1-1.9-.4-2.1zM40 14.7c.7-1.6 3.1-3 3.1-1.7v5.2l-3.5.8c-.9.2-.3-2.6.4-4.3zm6.5 16.7c0-.4-.1-.7-.1-1.1-.5-3.6-1.1-8.1-5.6-8.1-.5 0-1.1.1-1.7.3-1.6.4-3.1.7-3.1-1.9l.1.1c.7.3.8.4 1.5.1 1.4-.7 3.6-1.8 5.2-1.5 3.9.5 3.7 7.2 3.7 11v1.1zm91.9-11.1h-.7c-.2.1-.5.2-1.9-.6-1.3-1-2.9-1.5-4.5-1.3v-5.8l7 3.3-.3-3.8-10.7-5v27.5h.5s5.4-4.2 6.6-5.5c1.2-1.1 2.2-2.5 3-3.9.5-.2 2.4-4.9 1-4.9zm-5.5 7.2c-.4.6-.9 1.2-1.5 1.8v-5.1c.1-2.1 6.3-2.6 1.5 3.3zm4-4.6c-.6.1-1.2 0-1.7-.3-5.2-3.3-6.9 5.7-7.3 9V27s.1-.6.2-1.4c.1-.8.2-1.7.3-2.3.5-3.9 2.7-4.4 5.4-3.9 1.2.4 2.3.9 3.3 1.5.3.1.6.1.9 0 0 0 .1 0 .1-.1.1 0 .1-.1.1-.1.2.7-.3 2.1-1.3 2.2z"/>
	</g>
	<path fill="#fc0" d="M5.7 7.9c-.4-.5-.7-1.1-.9-1.8-.7.4-1.6 1-2.3 1.4.7.5 1.2 1.1 1.6 1.9.4.7.6 1.5.7 2.4 1.9-1.1 4-2.3 5.6-3.3.8-.5 2-1.2 2.9-1.7 2.9 1.7 5.6 3.2 8.6 5 .4-2.2 1-3.3 2.3-4.2-.7-.4-1.6-1-2.3-1.4-.1.5-.3.9-.5 1.3-.5.6-1.1 1-1.8 1.2s-1.5.1-2.2-.2c-.4-.2-.7-.4-1-.8-.3-.3-.4-.7-.4-1.2s.1-1.1.4-1.6.6-.9 1.1-1.2c-1.1-.7-3-1.7-4.1-2.3-1.1.7-3 1.7-4.1 2.3.6.4 1 1 1.3 1.6.1.3.2.6.2.9 0 .3-.1.6-.2.9-.2.4-.6.8-.9 1-.4.3-.8.4-1.3.5s-.9.1-1.4-.1c-.6-.1-1-.3-1.3-.6z"/>
</svg>