<svg xmlns="http://www.w3.org/2000/svg" viewBox="0 0 126.7 44">
	<path fill="#102d69" d="M2.1 38h2.2c.7 0 3.4.1 3.4 3 0 1.9-1.4 2.8-3.4 2.8H0v-9.1h7.1v1.8h-5V38zm0 4h1.7c.8 0 1.6-.2 1.6-1 0-1.1-1-1.2-1.6-1.2H2.1V42zm11.7-7.4l3.4 9.1h-2.3l-.6-1.7H11l-.6 1.7H8.2l3.4-9.1h2.2zm.1 5.9L12.7 37l-1.2 3.5h2.4zm3.9 1.5c1.6.2 1.6-.7 1.6-1.9v-5.4h6.7v9.1H24v-7.4h-2.6l-.1 3.2c0 1.8.3 4.7-3.6 4.2l.1-1.8zm9.5-5.6v-1.8H35v1.8h-2.7v7.3h-2.1v-7.3h-2.9zm14.6-1.8H44v9.1h-2.1v-6l-3.6 6h-2.1v-9.1h2.1v5.9l3.6-5.9zm6.3 9.1H46v-9.1h2.1V38h3.3v-3.4h2.1v9.1h-2.1v-3.9h-3.3v3.9zm11.9-9.1c2.4 0 2.8 1.3 2.8 2.3 0 1.1-.6 1.6-1.5 1.9.7.1 1.9.7 1.9 2.3 0 2.2-1.9 2.6-3.5 2.6h-4.3v-9.1h4.6zm-2.4 3.6h2c.9 0 1.1-.6 1.1-.9 0-.4-.2-.9-1.2-.9h-1.9v1.8zm0 3.8h2.2c.4 0 1.2-.2 1.2-1 0-.9-.7-1.1-1.4-1.1h-2V42zm13.9-3.8v1.7h-4.5v2h5.2v1.8H65v-9.1h7.2v1.8h-5v1.8h4.4zm10.2 2.3c-.1 1.4-.9 3.5-4.1 3.5-2.3 0-4.5-1.1-4.5-4.7 0-4.8 3.5-5 4.4-5 3.2 0 4 2 4.1 3.4h-2.1c-.2-1.5-1.4-1.6-1.9-1.6s-2.2.1-2.2 3.1c0 1.7.8 3 2.2 3 1.4 0 1.8-1 1.9-1.7h2.2zm.5-4.1v-1.8h7.6v1.8h-2.7v7.3h-2.1v-7.3h-2.8zM93.2 38h2.2c.7 0 3.4.1 3.4 3 0 1.9-1.4 2.8-3.4 2.8h-4.3v-9.1h7.1v1.8h-4.9V38zm0 4H95c.9 0 1.6-.2 1.6-1 0-1.1-1-1.2-1.6-1.2h-1.8V42zm11.7-7.4l3.4 9.1H106l-.6-1.7h-3.3l-.6 1.7h-2.3l3.4-9.1h2.3zm.1 5.9l-1.2-3.5-1.2 3.5h2.4zm6.3 3.2h-2.1v-9.1h2.1V38h3.3v-3.4h2.1v9.1h-2.1v-3.9h-3.3v3.9zm12.7-9.1h2.5l-3.6 4.2 3.9 5h-2.6l-3.2-4.5v4.5h-2.1v-9.1h2.1v3.8l3-3.9zM89.7 27.6l6.5-3.7C74.4 10.2 46.3 12 26.5 27.6c9.7-4.8 20.6-7.4 32.2-7.3 11.1 0 21.6 2.7 31 7.3zM67.3 5.1L72.4 0l17.2 17.2c-4.7-2.1-9.7-3.6-14.6-4.5 0 .1-7.7-7.6-7.7-7.6zm-32 13.6c5-2.5 10.3-4.4 15.7-5.5l8.1-8.1L54 0 35.3 18.7z"/>
</svg>