<svg xmlns="http://www.w3.org/2000/svg" viewBox="0 0 113.5 45">
	<g fill="#00447c">
		<path d="M58.4 11.5h-5.3V8.8h8.2c1 0 1.6-.7 1.6-1.5V6H51.2c-1 0-1.6.7-1.6 1.5v12.9h9.1c3.5 0 5.5-1.6 5.5-4.5 0-2.7-2.2-4.4-5.8-4.4zm-.3 6.1h-4.9v-3.3h4.9c1.8 0 2.5.5 2.5 1.6 0 1.2-.7 1.7-2.5 1.7zM90.9 6h-7.5c-1 0-1.6.7-1.6 1.5v-.2 13h2c.9 0 1.5-.7 1.5-1.4v-4.1h5.3c3.5 0 5.7-1.7 5.7-4.4.1-2.8-1.9-4.4-5.4-4.4zm-.6 6.1h-4.9V8.8h4.9c1.8 0 2.5.5 2.5 1.6 0 1.2-.8 1.7-2.5 1.7zm-15.8-.6h-5.3V8.8h8.2c1 0 1.6-.6 1.6-1.5V6H67.2c-1 0-1.6.7-1.6 1.5v12.9h9.1c3.5 0 5.5-1.6 5.5-4.5 0-2.7-2.2-4.4-5.7-4.4zm-.4 6.1h-4.9v-3.3h4.9c1.8 0 2.5.5 2.5 1.6 0 1.2-.7 1.7-2.5 1.7zM58.4 30.2h-5.2v-2.7h8.2c1 0 1.5-.8 1.5-1.5v-1.3H51.2c-1 0-1.6.7-1.6 1.5V39h9c3.5 0 5.4-1.6 5.4-4.5.1-2.6-2.1-4.3-5.6-4.3zm-.4 6.1h-4.9V33H58c1.8 0 2.5.5 2.5 1.6 0 1.2-.7 1.7-2.5 1.7zM94.8 39c1 0 1.6-.7 1.6-1.5V24.7h-2c-.9 0-1.5.7-1.5 1.5v4h-7.5v-5.5h-2c-.9 0-1.5.8-1.5 1.5V39h1.9c1 0 1.6-.8 1.6-1.5V33h7.5v6h1.9zM74 24.7h-2.4c-.4 0-1 .1-1.4 1L63.9 39H66c.9 0 1.9-.5 2.3-1.3l1-2.2h6l1.1 2.3c.4.8 1.4 1.2 2.2 1.2h2.1L74 24.7zm-3.5 8.4l1.9-3.9 1.9 3.9h-3.8zm43-8.4H110c-1 0-1.8.5-2.4 1l-5.7 4.6v-5.6h-2c-.9 0-1.5.7-1.5 1.5V39h1.9c1 0 1.6-.7 1.6-1.5v-3.4l1.8-1.5 4.1 5c.9 1 2.1 1.3 2.7 1.3h2.8l-7.1-8.4c0 .1 7.3-5.8 7.3-5.8zM20.7 13.8c.1-.1.1-.2 0-.2-.2-.2-.4-.3-.6-.5-2.3-1.8-5.1-2.8-8-2.8-1.2 0-2.5.2-3.7.5-2.3.7-4.4 2-6 3.8-1.2 1.7-1.7 3-1.9 3.8-.3 1.2-.4 2.5-.5 3.8-.2 6.1 2.1 12.1 6.4 16.5 3.7 3.7 8.5 5.9 13.6 6.4.5 0 .9.1 1.4.1h.5c7.2 0 14-3.6 18.1-9.5v-.2l-.1-.1h-.1C38 36.6 36 37.3 34 37.6c-.7.1-1.4.2-2.1.2-4.9 0-9.2-2.4-11.9-6.1-1.3-1.9-2.3-4.1-2.6-6.5-.1-.6-.1-1.3-.1-1.9 0-3.1 1-6 2.7-8.5.3-.5.5-.8.7-1z"/>
		<path d="M41.6 30.5c1.2-1.7 1.7-3 1.9-3.8.3-1.2.4-2.5.5-3.8.2-6.1-2.1-12.1-6.4-16.4-4-4-9.4-6.3-15-6.4h-.5c-.6 0-1.3 0-1.9.1C13.7.8 7.7 4.2 4 9.6v.2l.1.1h.1C6 8.7 8 8 10 7.7c.7-.1 1.4-.2 2.1-.2 3 0 5.7.9 8 2.4 3.4 2.3 5.9 6 6.4 10.2.1.6.1 1.3.1 1.9 0 3.4-1.2 6.7-3.3 9.3-.1.1-.1.2 0 .2 2.4 2.1 5.4 3.3 8.6 3.3 1.2 0 2.5-.2 3.7-.5 2.3-.7 4.4-2 6-3.8z"/>
	</g>
</svg>