<svg xmlns="http://www.w3.org/2000/svg" viewBox="0 0 170.1 32.5">
	<path fill="#009882" d="M12.4.3v9.3c0 .8.1 1.2 1.1 1.2h1.7c1 .1.8.9.8 1.7v3.8c-.3-.7-1.4-.5-2.2-.4h-.1c-.7.1-1.4.1-2.1-.1-.4-.1-.6-.3-.7-.7V4.4c-4.5 2.1-7.5 6.8-7.5 11.9 0 6.3 4.8 11.9 11 12.9h.2v-6.8c0-.3.1-.7-.2-.7h-.5c-.6 0-1 0-1.3.1h-.2c-.6.1-1.4-.1-1.5-.8v-5c0 .3.2.5.4.5.8.2 1.8.1 2.6 0l.5-.1c.7-.1 1.4-.1 1.6.6v4.5h.7V17c0-.6.9-.7 2.1-.6h.2c1.2.2 2.7.2 2.7-.6v5c0 1.3-3 .6-3.5.7-.2.1-.2.4-.2.6V29c6.3-.9 11.2-6.5 11.2-12.9 0-5-2.9-9.6-7.4-11.8l-.1-.1v10.7c0 .4-.2.7-.5.8-.8.2-1.9.1-2.7 0h-.3c-.7-.1-1.2-.1-1.5.4v-3.8c0-.5-.2-1.5.4-1.7.6-.2 3.2.5 3.2-.5V.1c6.8 1.8 11.9 7.9 12.3 15 .5 8.4-5.7 16.1-14.1 17.2C9.3 33.6.7 26.5 0 17.1-.5 9.5 4.8 2.2 12.4.3zm5.7-.3v10.1h-3.6L14.6 0h3.5z"/>
	<g fill="#000">
		<path d="M76.7 17.8c0 .3.1.5.2.6s.4.2.7.3c.4 0 .8 0 1.1-.1h.1c.2-.1.5-.2.6-.3.1-.2.2-.4.2-.6l-.1-2.3v-11c.3-.3.5-.5.5-.7 0-.1-.2-.3-.5-.6V3c-.5-.4-1-.6-1.5-.9-.1-.1-.3-.1-.5-.1-.2.1-.3.2-.4.3-.2.2-.3.4-.5.7l-.1.1h-9.6L64.7 2c-.3-.1-.5-.2-.5-.2-.1 0-.1.1-.1.1l.1 2.7v10.7l-.1 2.8v.1c0 .1.1.2.2.3.1.1.3.1.4.1.9.1 1.4 0 1.7-.2.2-.2.4-.4.4-.6v-1h10.1l-.2 1zm.1-1.5H66.7V3.6h10.1v12.7zm23.4 1.6c.2.2.4.2.4.2.1 0 .2-.2.3-.4l.1-.1c0-.2.1-.3.2-.5l.3-.3.2-.2c.1-.1.3-.2.4-.3.1 0 .2-.1.4-.2h.1l.4-.1c.1-.1.3-.1.5-.2.1 0 .1-.1.1-.2s-.1-.2-.2-.3l-.6-.1-.6-.2c-.7-.3-1.4-.7-2.1-1.2-.8-.6-1.3-1.1-1.6-1.5-.3-.4-.5-.7-.7-1l-.1-.2c.8-.3 1.7-.6 2.8-1l.6-.2c.6 0 1-.1 1-.2s0-.2-.2-.5-.5-.5-.8-.6l-.1-.1c-.3-.2-.5-.4-.8-.6-.2-.1-.3-.3-.5-.4-.1-.1-.2-.1-.4-.1-.1 0-.2.2-.4.5l-.2.4c-.2.5-.7 1.1-1.4 2l-.1.2c-.5-1-.9-1.8-1.1-2.4s-.3-1.1-.5-1.6c-.1-.4-.2-.8-.2-1v-.1h3.1c-.2.4-.3.8-.4 1l-.2.4-.2.5c-.1.2-.1.3 0 .4s.3 0 .5-.2l.6-.5c.5-.4 1.2-.7 1.8-.7h.8c.5 0 .7-.3.7-.6 0-.2-.1-.5-.3-.6-.4-.4-.9-.7-1.4-1.1l-.3-.2c-.3-.2-.5-.3-.6-.3-.2 0-.3.1-.4.2-.2.2-.5.5-.7.8l-.1.2h-3.2c.2-.4.4-.8.6-1.3l.2-.4c.4-.3.6-.5.6-.6s-.1-.3-.5-.5c-.5-.2-1-.4-1.5-.4-.4-.1-.7-.1-1.1-.2s-.5-.1-.6 0c0 0-.1.2-.1.6l-.1.7c-.1.5-.1 1-.3 1.5v.2c0 .2-.1.4-.2.5h-3l-.1-.2-.2-.4-.3-.4c-.1-.1-.1-.2-.2-.2-.1-.1-.2-.2-.3-.1-.1.1-.2.1-.2.2v.6l-.1.3c-.1.3-.2.5-.4.7l-.8.7c-.3.3-.4.6-.5 1 0 .4.2.7.5 1s.7.4 1.3.3c.6-.2.9-.5 1.2-.8.2-.3.3-.7.3-1.1 0-.3-.1-.6-.1-.9h2.7l-.4 1c-.2.6-.5 1.1-.7 1.6l-.2.3c-.3.6-.7 1.3-1.1 1.8-.3.5-.8 1.1-1.5 1.9l-.2.2c-.5.5-.9 1-1.4 1.5-.2.2-.5.4-.7.6l-.3.2c-.4.3-.5.5-.4.6s.2.2.4.2c.1 0 .3 0 .4-.1l.4-.2c.2-.1.5-.3 1-.6l.7-.4c.8-.5 1.6-1 2.3-1.6l.3-.2v3.6s0 .1-.2.2l-.3.3c0 .2 0 .3.1.4v.1c.1.3.2.5.4.8l.5.8c.1.2.2.3.3.4.2 0 .3-.1.4-.2l.9-.9 3.4-3.3.2-.2c.1-.1.1-.2.2-.3 0-.1 0-.3-.1-.3-.1-.1-.3-.1-.5.1l-.3.2c-1.1.5-1.8.9-2.3 1.1l-.1.1v-5c.4-.3.7-.4.7-.6s-.2-.3-.6-.5c.5-.7.9-1.5 1.2-2.2v-.1c.1-.3.2-.5.3-.7 0 .3 0 .6.1.9v.4c0 .4.1 1 .2 1.7v.3c.1.9.4 1.8.7 2.6.3.9.7 1.7 1.1 2.4.3.5.6 1 1 1.4l.2.2.9.9c.4.3.6.5.9.7l.4.3zM57 5.7l-.8-.5c-.3-.2-.5-.3-.7-.3s-.3.2-.5.4c-.1.2-.2.3-.4.5l-.3.4H51V3.4l.4-.3.3-.3c0-.1 0-.3-.1-.4-.1-.1-.5-.3-1.3-.5L50 2c-.8-.2-1.2-.3-1.4-.3h-.1c-.2 0-.3 0-.5.1-.1.1-.1.2-.1.5l.2 2.2v1.9h-3L42.5 5c-.3-.1-.5-.2-.6-.2s-.2.1-.2.2l.1 1.5v4.8l-.1 2v.1c0 .1 0 .3.1.4s.4.2 1 .1h.1c.7 0 1.1-.2 1.4-.4.2-.2.4-.5.4-.7v-1H48v3.5l-.2 3.1v.1c0 .1.1.3.2.4.1.1.4.2.8.2.4.1.8 0 1.2-.1h.1c.3-.1.5-.2.7-.4.1-.1.2-.3.3-.5l-.1-2.6v-3.6h3.6v1c0 .4 0 .6.1.7s.3.2.6.3c.3 0 .7 0 1-.1h.1c.4-.1.7-.2.8-.3.2-.1.3-.3.3-.4l-.1-1.9V7.9l.5-.5c.2-.2.3-.4.3-.5 0-.3-.4-.7-1.2-1.2zm-9 5.7h-3.4V6.8H48v4.6zm6.5 0h-3.6V6.8h3.6v4.6z"/>
		<path d="M68.1 14.2l-1.3-.1.5.7 1.1-.1h7.7c.2 0 .3 0 .5-.1.1-.1.1-.2.1-.2 0-.1-.1-.3-.4-.6-.3-.4-.6-.6-.9-.9-.2-.1-.2-.1-.3-.2l.3-.3c.1-.2.2-.4.1-.7 0-.3-.2-.6-.5-.9-.3-.4-.9-.6-1.8-.7h-.4c-.2 0-.3.1-.3.1 0 .1 0 .2.1.3l.3.3c.2.2.3.5.4.8s.1.5.1.6v.1c.1.2.2.3.3.4.2.1.4.2.8.2.1 0 .2 0 .3-.1v.1l-.1.1-.3.4c-.2.2-.3.4-.4.5l-.1.1h-1.5V9.7h3.5c.1 0 .2-.1.3-.1 0-.1 0-.2-.1-.3-.3-.3-.5-.5-.8-.7l-.3-.2c-.3-.2-.5-.3-.6-.2-.2 0-.4.3-.9.9l-.1.2h-1V6.6c.1-.1.3-.3.3-.4H76c.2 0 .3-.1.4-.1.1-.1 0-.2-.3-.5s-.7-.6-1.1-.9l-.1-.1c-.1-.1-.3-.2-.4-.2-.2.1-.3.2-.4.3-.2.3-.5.6-.7.9l-.1.1h-5L67 5.6l.5.7 1.1-.1h1.5v3.1h-1.6l-1.3-.1.5.7 1.1-.1h1.3v4.4h-2zm85-6.5l.6-.3.4-.2c.1 0 .2-.2.5-.3l.2-.1L156 6l1.6-1.1c.1-.1.3-.2.5-.4l.4-.2c.5 0 .7 0 .8-.2.1-.1 0-.2 0-.3v-.1c-.1-.2-.4-.5-.8-.9l-.1-.1-.7-.6-.1-.1c-.3-.2-.4-.3-.5-.3l-.3.3-.2.3-.3.5-.5.9-.1.1c-.1.2-.3.4-.4.6l-.5.7c-.4.5-.7.9-1.2 1.4l-.4.4-.1.1c-.1.1-.2.2-.3.4v.2c.1.1.2.1.3.1zm8-3.3h7.2c.1 0 .3-.1.3-.2.1-.1-.2-.5-.8-1l-.8-.7c-.2-.2-.4-.3-.6-.3s-.3.2-.5.4c-.3.4-.6.7-.9 1.1l-.1.2h-4.2l-1.3-.1.5.7 1.2-.1zm-52.4 2.3l.3.4c0 .1.1.3.2.6v.2c.1.4.3.7.3.9.1.2.1.4.2.7v.2c.1.5.1.9.1 1.4s-.1 1-.2 1.5v.1c-.1.4-.1.9 0 1.3 0 .4.2.7.5.9.3.3.7.4 1.1.3h.1c.4-.1.8-.3 1.1-.7.3-.4.5-.9.6-1.4.1-.9-.1-1.9-.6-2.7-.4-.7-.8-1.3-1.2-2-.4-.5-.8-1-1.4-1.6l-.4-.4-.1-.1c-.1-.1-.2-.2-.3-.2-.1-.1-.2-.1-.3 0-.1 0-.2.1-.1.3 0 .1 0 .2.1.3z"/>
		<path d="M169.2 7.2c-.6-.6-1-.9-1.2-.9s-.5.2-.8.6c-.4.4-.6.8-.8 1.1h-6.5l-1.1-.1v-.1c.3 0 .6-.1.6-.3.1-.2-.3-.6-1-1-.5-.3-.9-.6-1.1-.7l-.1-.1c-.2-.1-.4-.2-.5-.1l-.2.2-.2.3-.3.9c-.2.4-.4.7-.6 1.1-.2.3-.5.8-.9 1.5l-.2.3c-.5.7-1 1.4-1.6 2l-.4.4c-.1.1-.1.2-.1.3 0 .1 0 .2.1.3v-.1c.1.1.3 0 .5-.2l.6-.4c.8-.5 1.3-.9 1.7-1.2l.1-.1v5.4l-.1 2.1c0 .1.1.2.3.3.1.1.5.1 1 .1h.1c.5 0 .8-.1 1-.3.2-.1.3-.3.3-.5l-.1-1.7v-6c.3-.3.4-.5.4-.6s-.2-.3-.3-.3c-.2-.1-.3-.2-.5-.3l.1-.1.9-.9.2-.1.5.6 1.1-.1h4.1v6.9c0 .2 0 .4-.1.6s-.4.2-.9.2c-.5-.1-.8-.1-.9-.1h-.9c-.1 0-.2.1-.2.3 0 .1 0 .2.1.3.2.1.4.1.6.2l.5.1c.2.1.3.2.4.3.1.2.2.3.3.5v.6c0 .1 0 .2.1.3.1.1.2.1.3.1.3.1.7 0 1.5-.2h.2c.8-.2 1.3-.4 1.4-.6.2-.3.2-.6.2-1V9s.1-.1.2-.3l.2-.2h2.5c.2 0 .3-.1.3-.2.1-.1-.2-.5-.8-1.1zm-21.5 9l-.6-.3c-1-.4-1.6-.8-2.1-1.2-.4-.4-.7-.7-.9-1.1l-.1-.2c.6-.2 1.2-.5 1.7-.8.3-.2.5-.4.8-.6.6-.1 1-.2 1-.4 0-.1-.1-.2-.2-.4-.2-.2-.5-.3-.7-.4-.1-.1-.2-.1-.3-.2l-.6-.3c-.1-.1-.2-.1-.3-.1.2 0 .3-.1.4-.2.2-.1.3-.3.4-.5l-.1-1.9V4.1c.4-.3.5-.5.5-.7 0-.1-.1-.2-.3-.3-.3-.3-.7-.5-1.1-.7l-.2-.1c-.3-.2-.5-.3-.7-.3s-.3.2-.5.4-.3.5-.5.7h-3l-1.6-.8h-.1c-.5-.2-.7-.3-.8-.3s-.1.1-.2.1l.1 2v6.6c-.2-.3-.5-.5-.7-.8-.4-.3-.6-.5-.7-.5-.1 0-.3.1-.3.2l-.3.3-.1.1c-.1.1-.3.3-.4.5l-.1.1h-.3V8.7l.3-.3h1.8c.2 0 .3-.1.3-.2s0-.3-.1-.4c-.1-.2-.3-.4-.5-.6l-.1-.1c-.3-.3-.5-.4-.6-.5-.1 0-.3.1-.4.2l-.4.4c-.1.2-.3.4-.5.6h-3.1l.1-.2c.5-.6 1-1.2 1.5-1.9h4c.2 0 .3-.1.3-.1v-.3c-.2-.3-.5-.6-.7-.8l-.2-.1c-.2-.2-.4-.3-.5-.3-.1.1-.3.1-.4.3l-.1.1c-.1.2-.4.4-.6.7l-.1.2h-1.4c.2-.3.5-.8.8-1.4l.2-.4c.5-.1.7-.3.7-.5s-.5-.5-1.5-.8l-.1-.1-.8-.3c-.4-.1-.6-.1-.7.1v.3l-.1.5v.1c0 .2-.1.4-.2.8l-.2.6c-.2.7-.4 1.4-.7 2.1-.2.7-.5 1.3-.8 2l-.3.5v.2c.1.1.1.2.2.1.1 0 .2-.1.2-.1l.3-.3.6-.7c.1 0 .1-.1.1-.1l.3.4.8-.1v2.3h-1.4l-1.2-.1.3.6 1.1-.1h1.2v4.2c0 .2-.1.4-.2.6l-.1.2-.1.1v.4c.1.3.2.5.4.8l.1.1.6.9c.1.2.3.3.4.3h.2l.1-.1.1-.2.3-.4v-.1c.3-.4.6-.8.8-1.1l.2-.3c.2-.3.8-.9 1.6-1.8l.3-.3.4-.4c.1-.1.1-.2.1-.3 0-.1-.1-.2-.2-.2h-.2l-.6.3-1.1.5-.3.2-.5.3V11h2.4c.2 0 .3 0 .5-.1v4.4c0 .2 0 .3-.1.4s-.1.2-.2.3c-.1.1-.1.2-.1.2 0 .2.1.5.4 1l.1.2.7 1.1c.1.2.2.3.3.3h.1l.2-.2v-.1l.4-.4.7-.7.8-.9.8-.8v-.1l.3-.3.2-.3s0 .2.1.3v.1c.2.3.4.7.6 1l.2.3c.4.5.8 1 1.3 1.4l.3.3c.1.1.1.1.2.1.1.1.2.1.3.1.1-.1.3-.3.3-.5V18c.2-.3.4-.6.7-.8l.6-.3.5-.1c.2-.1.3-.1.3-.2.5-.2.4-.3.3-.4zm-7.6-12.5h3.5v2.5h-3.5V3.7zm0 3h3.5v2.6h-3.5V6.7zm1.7 8.1l-1.8.5V9.8h1.3l.1.7v.7c0 .4.1.7.1.9v.1c0 .3.1.7.2 1l.1.2c.1.5.2.9.3 1.4h-.3zm1.8-2.3l-.5-1c-.1-.2-.2-.7-.4-1.5l-.1-.4h1.1v.2c0 .2.2.4.6.4h.6l-.1.3-.1.3c0 .1-.1.2-.2.4l-.1.2c-.1.2-.3.5-.4.7-.1.1-.2.3-.4.4zM66.1 29.8l-.3.3c-.1.1-.3.2-.4.2-.2.1-.3.1-.5.1-.3 0-.5 0-.8-.1-.2-.1-.4-.2-.6-.4s-.3-.4-.4-.7-.2-.7-.2-1 0-.6.1-.9c.1-.2.2-.5.4-.6.2-.2.4-.3.6-.4.2-.1.5-.1.7-.1s.4 0 .6.1.3.2.4.3.2.2.3.4c.1.1.1.3.1.4h.2v-1.2c-.1-.1-.3-.1-.4-.2-.2-.1-.4-.1-.6-.1-.3 0-.5-.1-.8-.1-.4 0-.7.1-1.1.2-.3.1-.6.3-.9.5s-.5.5-.6.8c-.2.3-.2.7-.2 1 0 .4.1.7.2 1 .2.3.4.5.6.7.3.2.6.4.9.5.4.1.7.2 1.1.2.3 0 .6 0 1-.1.2 0 .4-.1.7-.1 0-.1.1-.2.1-.3s.1-.2.1-.3 0-.2.1-.3c0-.1 0-.2.1-.3h-.2c-.1.2-.2.4-.3.5zm-5.9.5c0-.1-.1-.1 0-.2v-3.7c0-.1 0-.1.1-.2.1 0 .1-.1.2-.1l.5-.1h-2.6v.2l.5.1c.1 0 .1 0 .2.1 0 .1.1.1.1.2v3.9c-.1 0-.1.1-.2.1h-.5v.3h2.6v-.3l-.7-.2c-.1 0-.1 0-.2-.1zM50 28.6v.2l.5.1c.1 0 .1 0 .2.1 0 0 .1.1.1.2v1.1c0 .1-.1.2-.2.2-.1.1-.2.1-.3.2-.2.1-.3.1-.5.1-.3 0-.6-.1-.8-.2-.2-.1-.4-.3-.6-.5-.2-.2-.3-.4-.4-.7v-1c0-.3 0-.6.1-.9.1-.3.2-.5.3-.7.2-.2.4-.3.6-.4.3-.1.5-.2.8-.2.2 0 .4 0 .5.1.2.1.3.2.4.3s.2.3.3.4c.1.2.2.3.3.5h.2l-.1-1.3c-.4-.1-1-.2-1.6-.2-.4 0-.8.1-1.1.2-.3.1-.7.2-.9.5-.3.2-.5.5-.6.8-.2.4-.3.7-.3 1.1 0 .7.3 1.3.8 1.7.3.2.6.4.9.5.4.1.7.1 1.1.1h.4c.2 0 .3 0 .4-.1.1 0 .3-.1.4-.1s.2-.1.3-.1.2-.1.3-.1c.1 0 .1-.1.1-.1 0-.1.1-.1.1-.2v-1.1c0-.1 0-.1.1-.2.1 0 .1-.1.2-.1l.3-.1v-.2h-1.1c-.4.1-.8.1-1.2.1zm-3.9 1.8c-.1 0-.1-.1 0 0l-1.8-4.5h-.4l-1.8 4.4c-.1.2-.2.3-.4.3h-.5v.2h1.9v-.2h-.5c-.1 0-.2 0-.2-.1v-.2l.6-1.5h1.3l.5 1.4c0 .1.1.2 0 .2s-.1.1-.3.1l-.5.1v.2h2.6v-.2l-.4-.1s-.1 0-.1-.1zm-2.9-1.8l.6-1.3.5 1.3h-1.1zm14.4 1.7c-.1-.1-.2-.2-.3-.2-.1-.2-.2-.3-.3-.5l-.8-1.3c.2-.1.3-.2.4-.2.1-.1.2-.1.3-.2.1-.1.2-.2.2-.3.1-.1.1-.3.1-.4 0-.2-.1-.4-.2-.6-.1-.2-.3-.3-.4-.4-.2-.1-.4-.2-.6-.2-.3 0-.5-.1-.8-.1h-.3l-1.2.1h-.6v.2h.2c.1 0 .2 0 .2.1.1 0 .1.1.1.1l.1.1V30c0 .2 0 .3-.1.3-.1.1-.2.1-.3.1l-.3.1v.2h2.3v-.2l-.3-.1c-.1 0-.2-.1-.3-.1-.1-.1-.1-.2-.1-.3v-1.6h.3c.1 0 .2 0 .2.1l.2.2 1.1 2h1.8v-.2l-.3-.1c-.1 0-.2 0-.3-.1zm-1.7-2.7c-.1.1-.1.2-.2.3s-.3.1-.4.2c-.2.1-.4.1-.6.1v-1.8h.3c.4 0 .6.1.8.3s.2.5.2.7c0-.1 0 0-.1.2zm98.5-1.6v.2l.4.1s.1 0 .1.1v4l-.1.1h-.4v.3h2.2v-.3h-.4c-.1 0-.1 0-.1-.1v-4l.1-.1.4-.1V26h-2.2zm-7.6 3.8l-.3.3c-.1.1-.3.2-.4.2-.2.1-.3.1-.5.1-.3 0-.5 0-.8-.1-.2-.1-.4-.2-.6-.4-.2-.2-.3-.4-.4-.7-.1-.3-.2-.7-.2-1s0-.6.1-.9c.1-.2.2-.5.4-.6.2-.2.4-.3.6-.4.2-.1.5-.1.7-.1s.4 0 .6.1.3.2.4.3c.1.1.2.2.3.4 0 .1.1.3.1.4h.2v-1.2c-.1-.1-.3-.1-.4-.2-.2-.1-.4-.1-.6-.1-.3 0-.5-.1-.8-.1-.4 0-.7.1-1.1.2-.3.1-.6.3-.9.5s-.5.5-.6.8c-.2.3-.2.7-.2 1s.1.7.2 1c.1.3.4.5.6.7.3.2.6.4.9.5.4.1.7.2 1.1.2.3 0 .6 0 1-.1.2 0 .4-.1.7-.1 0-.1 0-.2.1-.3 0-.1 0-.2.1-.3v-.6h-.2c.1.2 0 .4-.1.5zm4.5-3.6l.3.1s.1 0 .1.1v1.8H150v-1.8l.1-.1.5-.1V26h-2.3v.2l.3.1s.1 0 .1.1v3.8c0 .1-.1.1-.2.1l-.5.1v.2h2.5v-.2l-.4-.1c-.1 0-.1 0-.1-.1v-1.9h1.6v2c0 .1-.1.1-.1.1l-.4.1v.2h2.4v-.2l-.5-.1c0-.1-.1-.1-.1-.2v-3.9l.1-.1.5-.1V26h-2.2v.2zm-15-.2v.2l.4.1c.1 0 .1 0 .2.1v4c-.1.1-.1.1-.2.1l-.5.1v.3h2.4v-.2l-.4-.1h-.2s0-.1-.1-.1v-1.9h1.5l.1.1v.1l.2.5h.2v-1.6h-.2l-.1.5c0 .1 0 .1-.1.2-.1 0-.1.1-.2 0h-1.4v-1.7c0-.1.1-.1.2-.1h1.6c.1 0 .1.1.2.1 0 .1.1.2.1.3.1.1.1.3.2.5h.2V26h-4.1zm-2.5.2c-.3-.1-.7-.2-1-.2-.4 0-.7.1-1 .2-.3.1-.6.3-.8.5s-.4.5-.6.8c-.1.3-.2.7-.2 1s.1.7.2 1c.1.3.3.5.6.7s.5.4.8.5.7.2 1 .2c.4 0 .7-.1 1.1-.2.3-.1.6-.3.8-.5s.4-.5.5-.7c.1-.3.2-.6.2-.9 0-.7-.3-1.3-.7-1.7s-.6-.6-.9-.7zm.1 3.8c-.3.3-.7.5-1.1.5-.2 0-.5-.1-.7-.2-.2-.1-.4-.3-.5-.5s-.3-.4-.3-.6c-.1-.2-.1-.5-.1-.7 0-.3 0-.5.1-.8 0-.2.1-.5.3-.7.1-.2.3-.4.5-.5s.4-.2.7-.2c.2 0 .5.1.7.2s.4.3.5.5.2.4.3.7.1.5.1.8c-.1.7-.2 1.2-.5 1.5zm-62.4-3.9h-.8v.2l.5.1c.2 0 .3.2.3.3v1.9c0 .3 0 .6-.1.8 0 .2-.1.4-.3.5-.1.1-.3.2-.5.3s-.4.1-.7.1c-.4 0-.7-.1-1-.3-.2-.2-.4-.6-.3-.9v-2.5c0-.1 0-.2.1-.3s.1-.1.2-.1l.5-.1v-.2h-2.5v.2l.5.1c.1 0 .1 0 .2.1 0 .1.1.2 0 .3v2.5c0 .5.2.9.6 1.1.4.3 1 .4 1.7.4s1.2-.2 1.5-.5.5-.8.5-1.4v-2.1c0-.2.1-.3.2-.3l.5-.1V26l-1.1.1zm96.4 4.1c0-.1-.1-.1-.1-.2l-1.7-4.2h-.3l-1.6 4.2c0 .2-.2.3-.3.3h-.4v.2h1.7v-.2h-.5c-.1 0-.2 0-.2-.1V30l.5-1.4h1.2l.5 1.3v.2s-.1.1-.2.1l-.4.1v.2h2.4v-.2l-.4-.1c-.1.1-.1 0-.2 0zm-2.7-1.8l.5-1.3.5 1.3h-1zm-3.4-2.3h-.8v.2l.6.1c.1 0 .2 0 .2.1s.1.2.1.3v2.7l-2.4-3.3-.1-.1-.1-.1h-1.5v.3l.4.1c.1 0 .2.1.3.2 0 .3.1.5.1.7v2.8c0 .1 0 .2-.1.2-.1.1-.2.1-.3.1l-.4.1v.2h1.9v-.2l-.6-.1c-.1 0-.1 0-.2-.1v-3.1l2.7 3.6h.7v-4.3c0-.1.1-.1.2-.1h.4v-.2h-1.1v-.1zm-75.3 0h-.8v.2l.5.1c.2 0 .3.2.3.3v1.9c0 .3 0 .6-.1.8 0 .2-.1.4-.3.5-.1.1-.3.2-.4.3-.2.1-.4.1-.7.1s-.7-.1-.9-.3c-.2-.2-.4-.6-.3-.9v-2.5c0-.1 0-.2.1-.3s.1-.1.2-.1l.5-.1v-.2h-2.4v.2l.5.1c.1 0 .1 0 .2.1 0 .1.1.2 0 .3v2.5c0 .5.2.9.6 1.1.4.3.9.4 1.6.4s1.1-.2 1.4-.5.4-.8.4-1.4v-2.1c0-.2 0-.3.2-.3l.5-.1V26l-1.1.1zm-5.2-.1s0 .1 0 0l-.2.2h-3.6s-.1 0-.1-.1l-.1-.1c-.1-.1-.1-.2-.2-.2s-.1.1-.1.2l-.3 1v.3h.1l.2-.2c.1-.1.2-.3.3-.3l.2-.2c.1-.1.1-.1.2-.1h1V30c0 .1 0 .2-.1.3s-.2.1-.3.1l-.5.1.2-1h-.1c-.5.2-.6.3-.8.5-.1.1-.3.2-.4.3s-.3.1-.4.1h-1.1c-.1 0-.2 0-.2-.1v-3.7c0-.1 0-.2.1-.2s.1-.1.2-.1l.5-.1V26h-2.3v.2l.4.1.2.1s.1.1.1.2v3.7c0 .1-.1.1-.2.2l-.5.1v.2h4.3v-.1h2.8l.1-.2-.7-.1c-.1 0-.2-.1-.2-.1 0-.1-.1-.2-.1-.3v-3.5h1.1c.2 0 .3.1.3.3 0 .1.1.2.1.2 0 .1 0 .1.1.2l.1.1h.1v-1.4l-.2.1c0-.1 0 0 0 0zm46.2 4.3l-.3-.3c-.1-.1-.2-.2-.4-.3l-2-1.7 1.2-1.1c.1-.1.3-.2.4-.3.1-.1.2-.1.4-.2.1-.1.2-.1.3-.1s.2-.1.3-.1V26h-1.8v.2l.5.1c.1 0 .1 0 .1.1v.1l-.1.1s0 .1-.1.1-.1.1-.2.2l-1.2 1.1-.2.2c-.1.1-.2.1-.2.2l-.2.2v-2.1c.1 0 .1-.1.2-.1l.3-.1V26h-2v.2l.4.1s.1 0 .2.1v4.1s-.1.1-.2.1l-.4.1v.2h2v-.2l-.3-.1s-.1 0-.2-.1v-1.7l.1.1.3.3 1.4 1.2c.1.1.1.1.1.2 0 0 0 .1-.1.1l-.5.1v.2h2.7v-.2l-.3-.4s-.1 0-.2-.1zm-6.9-4.3h-.8v.2l.5.1c.1 0 .2 0 .2.1s.1.2.1.3v2.4l-2.6-2.9c0-.1-.1-.1-.1-.1l-.1-.1h-1.5v.3l.4.1c.1 0 .2.1.3.2 0 .2.1.3.1.5v3c0 .1 0 .2-.1.2-.1.1-.2.1-.3.1l-.4.1v.2h1.9v-.2l-.6-.1c-.1 0-.1 0-.2-.1v-3.4l3.4 3.8h.2v-4.4c0-.1.1-.1.2-.1h.4V26h-1zm-11.3-7.7H125c.5 0 .7-.1.7-.3 0-.3-.2-.5-.4-.7l-.7-.6c-.1-.1-.3-.3-.5-.4l-.3-.2c-.3-.2-.6-.3-.8-.3s-.4.2-.7.6l-.1.1c-.2.3-.5.7-.9 1.1l-.2.3h-1.7V16c1.3-1.7 2.2-2.9 2.7-3.7l.2-.3c.5-.7.9-1.3 1.2-1.8l.1-.2c.3-.6.6-1.1.9-1.6.2-.1.4-.1.5-.2s.2-.1.2-.2c.1-.3-.2-.6-.8-.9l-1.1-.6-1-.4c-.4-.2-.6-.3-.7-.1l-.1.5-.1.7c0 .2-.1.3-.1.5l-.2.9c-.1.6-.3 1.2-.4 1.7-.1.5-.3 1-.5 1.7l-.1.2c-.3.8-.5 1.5-.8 2.1V3.9c.5-.3.8-.6.8-.8s-.4-.4-1.1-.6c-.6-.2-1.2-.3-1.9-.4-.3 0-.4 0-.5.1l.1 2.5v13.1h-1.1V3.9c.5-.3.7-.6.6-.8-.1-.2-.4-.4-1.1-.6l-.9-.2-.9-.2c-.2-.1-.4-.1-.4-.1v.2l.2 2.6v13h-4.4l-1.3-.1.6.7 1.3-.1zm5.8 12c0-.1-.1-.1-.1-.2l-1.6-4.3h-.4l-1.7 4.3c0 .2-.2.3-.3.3h-.5v.2h1.8v-.2h-.5c-.1 0-.2 0-.2-.1v-.2l.5-1.4h1.2l.5 1.4v.2s-.1.1-.2.1l-.5.1v.2h2.3v-.2l-.3-.2c.1.1.1.1 0 0zm-2.6-1.7l.5-1.4.4 1.4h-.9zm-9.4 1.4c-.1.1-.3.2-.4.3s-.3.1-.4.1h-1.1c-.1 0-.2 0-.2-.1v-4.1l.1-.1.5-.1h-2.3v.2l.4.1c.1 0 .1 0 .2.1v3.9c0 .1-.1.1-.2.2l-.5.1v.2h4.3l.2-1.3h-.1c-.2.1-.3.3-.5.5zm6.6-1.6c-.1-.1-.3-.2-.5-.2-.2-.1-.4-.1-.6-.1.1 0 .3-.1.4-.1.1-.1.2-.1.3-.2.1-.1.2-.2.2-.3s.1-.2.1-.3c0-.2 0-.4-.2-.5-.1-.1-.3-.3-.4-.3-.2-.1-.4-.1-.6-.2-.2 0-.4-.1-.7-.1h-.6c-.3 0-.7 0-1.2.1h-.5v.2l.3.1h.2s.1 0 .1.1V30c0 .1 0 .2-.1.3 0 .1-.1.1-.2.1l-.4.1v.2h2.3c.3 0 .6 0 .8-.1.3-.1.5-.2.7-.3s.4-.3.5-.5.2-.4.2-.6 0-.4-.1-.5c.2-.1.1-.2 0-.3zm-2-2.2c.1 0 .2 0 .4.1.1 0 .2.1.3.2.1.1.2.1.2.2.1.1.1.2.1.3 0 .3-.1.5-.2.7-.2.2-.5.3-.7.2h-.6v-1.6h-.1c.2-.1.4-.1.6-.1zm1.2 3.2c0 .3-.1.6-.3.8-.2.2-.5.3-.7.3s-.4 0-.6-.2c-.2-.1-.2-.3-.2-.5v-1.7h.6c.6-.1 1.1.3 1.2.9v.4zm-16.2 1c-.1-.1-.2-.1-.3-.2-.1-.1-.2-.3-.3-.5l-.8-1.3c.2-.1.3-.1.4-.2.1-.1.2-.1.3-.2.2-.2.3-.4.3-.7 0-.2 0-.4-.2-.6-.1-.2-.3-.3-.5-.4-.2-.1-.4-.2-.7-.2-.3 0-.5-.1-.8-.1h-.3l-1.2.1H88v.2h.2c.1 0 .2 0 .3.1.1 0 .1.1.1.1V30c0 .2 0 .3-.1.3-.1.1-.2.1-.3.1l-.3.1v.2h2.3v-.2l-.4-.1c-.1 0-.2-.1-.3-.1 0-.1-.1-.2-.1-.3v-1.5h.3c.1 0 .2 0 .2.1l.2.2 1.1 2H93v-.2c-.1 0-.3 0-.4-.1.3-.1.2-.1.1-.1zM91 27.7c0 .1-.1.2-.2.3s-.3.1-.4.2c-.2.1-.4.1-.6.1v-1.8h.4c.4 0 .6.1.8.3s.2.5.2.7c-.1 0-.2.1-.2.2zm7 2.6c0-.1-.1-.1-.1-.2l-1.6-4.3H96l-1.7 4.3c0 .2-.2.3-.3.3h-.5v.2h1.8v-.2h-.5c-.1 0-.2 0-.2-.1v-.2l.6-1.4h1.2l.5 1.4c0 .1.1.2 0 .2s-.1.1-.2.1l-.5.1v.2h2.5v-.2l-.5-.1c-.1 0-.1 0-.2-.1zm-2.7-1.9l.6-1.3.5 1.3h-1.1z"/>
	</g>
</svg>