<svg xmlns="http://www.w3.org/2000/svg" viewBox="0 0 160 27.2">
	<path fill="#006df0" d="M45.4 11.8c.7.3 1.3.6 1.9 1.2.5.5 1 1.1 1.2 1.8.3.7.4 1.4.4 2.2 0 .8-.2 1.5-.4 2.2-.4.7-.7 1.2-1.2 1.8-.5.5-1.2.9-1.9 1.2-.7.2-1.5.4-2.4.4h-8.7V4.7h13.3v3.5H38v3.2h5c.8 0 1.6.1 2.4.4zm-.6 3.5c-.4-.4-1.1-.5-1.9-.5h-5v4.5h5c.8 0 1.4-.2 1.9-.5s.7-.9.7-1.6c0-1-.3-1.5-.7-1.9zm11 7.2h-3.5V4.7h3.5v7.5L62 4.7h4.4l-7.1 8.6 8.6 9.3h-4.6l-7.5-8v7.9zm17.5-.5c-1.2-.4-2.1-1.2-2.9-2s-1.5-1.8-2-2.9c-.4-1.2-.7-2.3-.7-3.6 0-1.2.3-2.5.7-3.6.4-1.2 1.2-2.1 2-2.9s1.8-1.5 2.9-2c1.1-.4 2.3-.6 3.7-.6 1 0 2 .2 2.9.4.9.4 1.8.7 2.6 1.3.7.5 1.4 1.2 2 2 .5.8 1 1.7 1.2 2.6h-3.9c-.2-.4-.4-.9-.7-1.2-.4-.4-.7-.6-1.2-.9-.4-.3-.9-.4-1.3-.5s-1-.2-1.5-.2c-.9 0-1.6.2-2.3.4S73.5 9 73 9.5s-.9 1.2-1.2 1.8c-.3.7-.4 1.4-.4 2.2 0 .8.1 1.5.4 2.2s.6 1.2 1.2 1.8 1.1.9 1.8 1.2c.6.3 1.4.4 2.3.4.5 0 1-.1 1.5-.2.4-.1.9-.4 1.3-.5.4-.3.8-.5 1.2-.9.4-.4.5-.7.7-1.2h3.9c-.3 1-.6 1.8-1.2 2.6-.5.8-1.2 1.4-2 2-.8.5-1.6 1-2.6 1.3-.9.4-1.9.4-2.9.4-1.4.2-2.7 0-3.7-.6zm22.2-9.6V6.6h8.5V4.8H93.6v17.6h6.2c3.4 0 5.9-1.7 5.9-5 0-3.4-2.5-5.1-5.9-5.1l-4.3.1zm8.3 5c0 2.1-1.4 3.3-4 3.3h-4.3v-6.6h4.3c2.6 0 4 1.2 4 3.3zm2.8 5.1h2l2.4-5.4h8.4l2.5 5.4h2L116 4.9h-1.5l-7.9 17.6zm8.6-15l3.5 7.7h-6.9l3.4-7.7zm11.2 15h1.9v-8.1h10.3v8.1h1.9V4.8h-1.9v7.7h-10.3V4.8h-1.9v17.7zm30.8 0h2.8l-10.8-9.3 8.7-8.4h-2.6l-8.1 7.7V4.8h-1.9v17.6h1.9v-8.5l10 8.6z"/>
	<circle fill="url(#gr1)" cx="13.6" cy="13.6" r="13.6"/>
	<linearGradient id="gr1" gradientUnits="userSpaceOnUse" x1="13.6" y1="74.7709" x2="13.6" y2="49.506" gradientTransform="translate(0 -47.3)">
		<stop offset="0" stop-color="#4581e9"/>
		<stop offset=".4792" stop-color="#80acf0"/>
		<stop offset="1" stop-color="#fff"/>
	</linearGradient>
	<circle fill="url(#gr2)" cx="13.6" cy="13.6" r="13.6"/>
	<linearGradient id="gr2" gradientUnits="userSpaceOnUse" x1="31.8461" y1="74.9456" x2="8.589" y2="57.0426" gradientTransform="translate(0 -47.3)">
		<stop offset="0" stop-color="#4581e9"/>
		<stop offset="1" stop-color="#4581e9" stop-opacity="0"/>
	</linearGradient>
	<path fill="url(#gr3)" d="M13.6.1C11.1.1 8.7.8 6.7 2c-.2.1-.4.3-.5.4-4.6 4.1-4 11.5 1.1 16.5s12.9 5.8 17.5 1.7c.5-.4 1-1 1.3-1.5.7-1.7 1.1-3.5 1.1-5.4C27.2 6.1 21.1.1 13.6.1z"/>
	<radialGradient id="gr3" cx="147.8274" cy="-54.5192" r="33.2999" gradientTransform="matrix(-.809 -.5879 .8327 -1.1459 194.0927 45.5453)" gradientUnits="userSpaceOnUse">
		<stop offset=".0969745" stop-color="#4581e9"/>
		<stop offset=".4599" stop-color="#80acf0"/>
		<stop offset=".7942" stop-color="#f0f6fd"/>
	</radialGradient>
	<path fill="url(#gr4)" d="M26 13.2c.6-.9.8-2 .7-3.1-1-3.6-3.4-6.6-6.5-8.4-.1-.1-.2-.1-.3-.2-1.9-1-4-1.5-6.3-1.5-1.9 0-3.7.4-5.3 1.1-.4.4-.9.8-1.2 1.3-2.1 3.2.4 8.3 5.6 11.2 5.1 3.1 11.1 2.8 13.3-.4z"/>
	<radialGradient id="gr4" cx="216.5635" cy="-50.5038" r="29.5997" gradientTransform="matrix(-.9977 .06783 -.08088 -1.1896 253.9676 -70.6388)" gradientUnits="userSpaceOnUse">
		<stop offset="0" stop-color="#4581e9"/>
		<stop offset=".5368" stop-color="#87b1f0"/>
		<stop offset=".8057" stop-color="#cce0fd"/>
		<stop offset="1" stop-color="#f0f6fd"/>
	</radialGradient>
</svg>