<svg xmlns="http://www.w3.org/2000/svg" viewBox="0 0 112.1 28">
	<path fill="#1d1d1b" d="M107 13.8v.2c0 5-4.1 9-9.1 9s-9.1-4-9.1-9 4.1-9 9.1-9h.2V0h-.2c-7.8 0-14.1 6.3-14.1 14s6.3 14 14.1 14S112 21.7 112 14v-.2h-5zM46.7.5l-9.1 27h5.2l1-3c.2-.4.4-.7 1-.7h8.3c.6 0 .8.3 1 .7l1 3h5.2L51.2.5h-4.5zm4.7 18.6h-5c-.5 0-.8-.3-.6-.9l2.6-7.8c.2-.7.8-.7 1.1 0l2.6 7.8c.2.6-.1.9-.7.9zM76.8 16.5c0 .9-.7 1.1-1.1.3L67.3.5H61v27h5v-16c0-.9.7-1.1 1.1-.3l8.7 16.2h6.1V.4h-5v16.1zM26.3 22.7c-.1 0-.2-.1-.3-.2-.1-.1-.2-.2-.2-.3 0-.1-.1-.2-.1-.4V.5h-5v27h16.1v-4.7H26.7c-.1 0-.2 0-.4-.1zM15.2 13.3C17 12.1 18 10.2 18 7.9 18 3.5 15.1.5 10.4.5H0v27h10.9c4.4 0 7.6-3.3 7.6-7.8 0-2.7-1.2-5-3.3-6.4zM5 5.6c0-.4.3-.7.7-.7h3.7c1.9 0 3.2 1.4 3.2 3.3s-1.3 3.3-3.2 3.3H5.7c-.4 0-.7-.3-.7-.7V5.6zM9.5 23H5.8c-.5 0-.8-.3-.8-.8v-5.5c0-.4.3-.7.8-.7h3.7c2.2 0 3.6 1.5 3.6 3.5S11.7 23 9.5 23z"/>
</svg>