<svg xmlns="http://www.w3.org/2000/svg" viewBox="0 0 81.2 50">
	<path fill="#a61731" d="M0 0h81.2v50H0V0z"/>
	<path fill="#fff" d="M45.6 13.5l11 14.5c.5.6 1.4.6 1.9 0l11-14.5v18.1h5.7V4.8h-5.7l-12 15.7-12-15.7h-5.7v26.7h5.7l.1-18zM34.8 26.8v-6.9c0-2.7-2.9-4.8-5.6-4.8H11.5V9.6h21.6V4.8H5.6v26.7h23.6c2.6.1 5.6-2.1 5.6-4.7zm-6.1-2.4c0 1.3-1.1 2.4-2.4 2.4H11.5v-7.5h14.8c1.3 0 2.4 1.1 2.4 2.4v2.7zm-16.3 19H7.3v-1.6h6.2v-1.4h-8v7.7h6.8c.8 0 1.6-.6 1.6-1.4v-2c.1-.7-.7-1.3-1.5-1.3zm-.1 2.7c0 .4-.3.7-.7.7H7.3v-2.2h4.3c.4 0 .7.3.7.7v.8zm18.1-5.7h-1.8l-4.3 7.7H26l1.1-1.9h4.7l1.1 1.9h1.8l-4.3-7.7zm-2.7 4.7l1.7-3.1 1.7 3.1h-3.4zM53 43.7h-5.8v-3.3h-1.7v7.7h1.7v-3.3H53v3.3h1.7v-7.7H53v3.3zm21.7-3.3h-2.9l-3.9 3.1v-3.1h-1.7v7.7h1.7v-3.4l4.4 3.4h2.9l-5.1-4 4.6-3.7zM0 36h81.2v2.1H0V36z"/>
</svg>