<svg xmlns="http://www.w3.org/2000/svg" viewBox="0 0 127.5 36">
	<g fill="#000">
		<path d="M127.4 10.8c-.2.1-.9.9-1.1 1-.2.1-.4-.1-.6-.1-.4 0-1.3.3-2 .4-.6.1-1.5.5-1.8.6-.2.1-.2.2-.1.3.3.3.6.5.8.7.1.1 0 .2-.1.4 0 .3-.2 1.6-.1 2.4.1.7.4 2.6.5 3.1s.1 1.1.2 1.4c.1.3 0 .9-.1 1.1-.5.5-1.2 1.3-1.4 1.3-.3.1-.7.1-.9-.1-.4-.3-.5-.8-.6-1.1-.2-.5-.7-.8-1.1-1.1-.6-.5-2.1-1.2-2.3-1.7 0-.1-.1-.2.1-.3.3-.1.4.3.6.4.4.3.6.3.9.4.4.1 1.2.3 1.3.4.4.1.6.2.9.1.2-.1.6-.7.6-1 0-.7-.1-1.5-.1-1.9 0-1 0-1.2.1-1.9.1-.6-.1-1 0-1.2 0-.3 0-.7.1-1 .1-.2-.1-.2-.3-.1-.7.2-1.1.6-1.8.9-.5.2-1.2.7-1.6.8-.2.1-.4.4-.6.3-.1-.1-.4-.1-.5-.4-.2-.4.1-.7.4-.8.3-.2.6-.1 1.6-.6s2.1-1.2 2.9-1.5c.8-.3 3-1 3.3-1s1-.1 1.1-.2c.4-.2.8-.2.9-.2h.6c.4 0 .4.1.2.2zm-8.5-2.4c.3-.1.4.2.5.2.3 0 .6 0 .9-.1.3-.1 2-1 2.6-1.1 1-.2 2.4-.7 2.9-.6.2 0 .2.1 0 .2s-.2.4-.4.5c-.1.1 0 .4-.1.5s-.2.2-.4.2h-.5c-.2 0-.6.3-.7.3 0 0-.2-.1-.3-.1-.3-.1-1.5.4-1.9.6-.5.2-1.3.7-1.8 1.1-.2.2-.3.5-.6.4-.2-.1-.4-.7-.4-1-.3-.2-.2-.8.2-1.1z"/>
		<path d="M117.3 1.6c.3 0 .7 1.2 1 1.8.1.2.1.5.2.9 0 .2.2.6.2 1.1v.8c0 .1-.3.3-.3.5 0 .1-.2.4-.3.5-.2.2-.3.6-.4.8-.2.3-.7.3-1.1.4-.3.1-.6.3-.9.5-.3.2-.8.4-1.2.7-.3.2-.8.7-1 .9-.1.1-.3.2-.1.4.2.2.7.1 1.4.4.5.2.9.5 1.2.9.2.3.1.6-.1.7-.2.1-.3.4-.7.7-.2.2-.3.6-.6.8l-1.4 1.4c-.2.1-.2.4.1.5s1.1.7 1.4 1.1c.3.4.4 1.4.5 2.1 0 .5-.3 1.3-.5 1.8-.1.3-.1.4-.5.3-.1 0-.2-.2-.4-.4s-.5-.3-.6-.5-.4-.3-.5-.5-.1-1.2 0-1.6c0-.4.1-.6.2-.9.1-.2.2-.9 0-1-.1 0-.7.3-1 .4-.3.2-.7.4-.9.6s-.3.5-.3.7-.2.4-.3.3c-.2-.1-.4 0-.6 0-.2 0-.3-.1-.6-.2-.4-.1-.2 0-.6-.3-.2-.2-.7-.9-.5-1.4.1-.3 0-.4.3-.7.7-.7.9-1 1.6-1.7.4-.4 1-1 1.3-1.4.1-.1.3-.4.4-.6.1-.2.5-.5.2-.7s-.6-.2-.8-.1-.3-.1-.6-.3c-.2-.1-.4 0-.6-.1s-.3-.2-.5-.4c-.2-.1-.5-.3-.3-.6.1-.2 0-.6.3-.7.3-.2.6-.5.7-.7.4-.4 1.6-1.8 2.4-2.7.8-1 2.4-3.3 3-3.9.1-.1.1-.4.7-.7.5 0 .8.1 1.1.1zM91.6 6.1c.1-.2.8-.2 1-.2.3 0 .6.6.7.8 0 .2.2.5.1.7-.1.2-.4.2-.6.2-.1 0-.4.1-.5.2-.2.1-.5.4-.6.5s-.3.1-.4.1v-.3c.2-.2.4-.7.4-.9 0-.1-.1-.1-.1-.5 0-.1-.1-.4 0-.6z"/>
		<path d="M91.5 2.4c.1 0 .2.1.4.2.1 0 .2.2.3.2.2 0 .2.3.3.3s.2.3.3.4.1.2.3.3c.1.1.1.4 0 .6-.1.1-.3.3-.5.4-.2 0-.7.1-1 .2-.2.1-.6.5-.9.7-.4.5-.9 1.3-1.3 2-.3.5-1.2 2.2-1.5 2.8-.1.3-.7 1.6-1 2.1-.3.7-1 2-1.1 2.4-.2.5-.1.9-.2 1.1s-.4.1-.5 0-.4-.3-.5-.6c0-.2 0-.7.1-.9 0-.2.1-.3.3-.3h.3c.1 0 .5-.7.7-1.1.3-.5 1-2 1.1-2.3.1-.2.5-1.1.8-1.7.2-.3 1-2.8 1.5-3.4.1-.1.5-1.1.8-1.6.1-.2 1.1-1.8 1.3-1.8zM50.8 31.3c.5.1 1 .3 1.2.6.3.2.5.6.5 1.1 0 .7-.2 1.2-.7 1.6-.5.4-1.2.6-2.1.6h-3c-.2 0-.3 0-.3-.1s.1-.1.4-.2c.4-.1.5-.3.5-.8v-4.4c0-.3-.1-.6-.3-.8-.2-.1-.4-.2-.7-.3-.1 0-.2-.1-.2-.2s.1-.1.2-.1h3.1c.9 0 1.5.1 1.9.4.4.3.6.7.6 1.2 0 .3-.1.6-.3.9-.2.3-.5.4-.8.5zm-2.4-.5c0 .2.1.4.2.4s.3.1.5.1h.7c.7 0 1.1-.3 1.1-1.1 0-.4-.2-.8-.5-1.1s-.7-.4-1.2-.4c-.3 0-.5 0-.6.1s-.2.3-.2.6v1.4zm0 1.5v1.3c0 .4.1.7.3.9.2.1.5.2.9.2.5 0 .9-.1 1.2-.4.3-.2.5-.6.5-1.2 0-1-.7-1.5-2.1-1.5-.3 0-.4 0-.5.1-.3.2-.3.4-.3.6zm11.1 2.8l-2.7.1v-.1s0-.1.1-.1c0 0 .1 0 .1-.1 0 0 .1-.1.3-.1.1-.1.2-.2.2-.4 0-.1-.1-.4-.2-.8-.1-.3-.2-.5-.3-.6 0-.1-.1-.1-.3-.1h-1.8c-.2 0-.3 0-.3.1 0 0-.1.1-.1.2-.1.1-.1.3-.2.5s-.1.4-.1.5c0 .3.2.5.7.6.2 0 .4.1.4.2s-.1.1-.2.1h-2c-.2 0-.3 0-.3-.1 0 0 0-.1.1-.1 0 0 .1 0 .2-.1.2-.1.4-.3.5-.5l2.6-5.8c0-.1 0-.1.1-.2 0-.1.1-.1.1-.1s.1 0 .1.1.1.2.1.3l2.4 5.5c.1.3.2.5.3.5.1.1.2.1.4.2-.3.1-.2.2-.2.3zm-4-5s-.1.1-.2.4l-.7 1.6v.2s.1.1.2.1h1.5c.1 0 .2 0 .2-.1V32l-.7-1.6-.3-.3zM67 28.5c-.4.1-.7.4-.7.9v5.7H66l-.1-.1-4.7-5c0-.1-.1-.1-.1-.1v3.5c0 .5 0 .9.2 1.1.1.2.4.4.7.4h.2v.2h-2.4c-.1 0-.2 0-.2-.1s.1-.1.2-.2c.2-.1.4-.2.5-.3s.2-.3.2-.6v-3.8c0-.5-.1-.9-.2-1.1-.1-.2-.4-.3-.6-.4h-.2c-.1 0 0 0 0-.1s0-.2.2-.2h1.6c.1 0 .1 0 .2.1l.1.1 4.1 4.5c0 .1.1.1.1.1v-3.6c0-.2 0-.4-.2-.5-.1-.1-.4-.2-.8-.4-.1 0-.1-.1-.1-.2s0-.1.2-.1h2.2c.1 0 .2 0 .2.1-.1 0-.2.1-.3.1zm7.3 6.5c0 .1 0 .1 0 0l-1.7.1c-.1 0-.1-.1-.2-.2l-2-2.7c-.1-.1-.1-.2-.2-.2 0 0-.1.1-.3.2-.1.1-.2.3-.2.5V34c0 .4.2.7.6.8.2 0 .3.1.3.2s-.1.1-.3.1h-2.4c-.2 0-.3 0-.3-.1s.1-.1.3-.2c.3-.1.5-.4.5-1.1v-4.3c0-.3-.1-.5-.2-.6s-.3-.2-.6-.2c-.1 0-.2-.1-.2-.2s.1-.1.2-.1h2.6c.1 0 .2 0 .2.1l-.1.1s-.1 0-.2.1c-.1 0-.2.1-.2.2-.1.1-.1.2-.1.5v2.5c.1 0 .1-.1.3-.2l1.3-1.3.7-.7c.3-.3.4-.5.4-.7 0-.1-.1-.2-.3-.2s-.3-.1-.3-.1c0-.1.1-.2.2-.2h2.1c.1 0 .2 0 .2.2 0 0-.1.1-.2.1-.3.1-.6.3-1 .6l-1.6 1.5c-.2.2-.3.3-.3.4 0 0 0 .2.2.3l1.9 2.6c.3.3.5.6.8.7.1 0 .1.1.2.1-.1 0-.1.1-.1.1zm3.2-3.1c0-1.1.3-2.1.9-2.7.6-.7 1.4-1 2.4-1 .9 0 1.6.3 2.2.9.6.6.8 1.4.8 2.4 0 1.1-.3 2-.8 2.7-.6.7-1.4 1-2.5 1-.9 0-1.6-.3-2.1-.9-.7-.6-.9-1.4-.9-2.4zm1.1-.5c0 .9.2 1.7.5 2.3.4.7.9 1 1.5 1 1.4 0 2-1 2-2.9 0-1-.2-1.8-.6-2.4-.4-.6-.9-.9-1.5-.9-.7 0-1.1.2-1.5.7-.3.6-.4 1.3-.4 2.2zm8.3-.6c0 .2 0 .3.1.3h1c.3 0 .5 0 .6-.2.2-.1.3-.3.4-.5.1-.1.1-.1.2-.1s.2.1.2.5l.1 1.5v.1c0 .2-.1.3-.2.3s-.2 0-.2-.1c-.2-.6-.5-1-.9-1h-.7c-.2 0-.3 0-.4.1-.1 0-.1.1-.1.3v1.7c0 .5.3.8.9 1 .2 0 .3.1.3.2s-.1.1-.3.1h-2.7c-.2 0-.3 0-.3-.1s.1-.1.3-.2c.4-.1.6-.4.6-.9v-4.6c0-.2-.1-.4-.2-.5s-.4-.2-.8-.3c-.1 0-.2-.1-.2-.2s.1-.1.3-.1H90c.1 0 .1.1.1.2l.1.9v.1c0 .1-.1.2-.2.2s-.2-.1-.2-.3c-.1-.3-.2-.5-.4-.6-.3-.1-.7-.1-1.2-.1s-.8 0-.9.1c-.1 0-.2.2-.2.6l-.2 1.6zm12.4-.3c0 .1 0 .2-.1.2 0 0-.1 0-.2-.1 0 0 0-.1-.1-.3-.3-.5-.5-.9-.9-1.3-.4-.3-.8-.4-1.1-.4-.6 0-1.1.3-1.4.8-.3.5-.5 1.2-.5 1.8 0 .8.2 1.6.6 2.2.4.7 1 1 1.6 1 .4 0 .7-.1 1-.2.3-.2.5-.4.8-.7.2-.2.3-.3.4-.3s.1 0 .1.1c0 .3-.3.6-.7 1.1-.5.5-1.1.7-1.9.7-.9 0-1.6-.3-2.1-1-.5-.6-.8-1.4-.8-2.3 0-1 .3-1.9.8-2.7.5-.7 1.3-1.1 2.1-1.1.4 0 .8.1 1.1.2.3.1.5.2.6.3h.2c.1 0 .1 0 .2-.1 0-.1.1-.1.1-.1s.1 0 .1.1l.1 1.6v.5zm8.7 4.6s0 .1-.2.1h-2.4c-.1 0-.2 0-.2-.1 0 0 0-.1.1-.1 0 0 .1 0 .1-.1.1 0 .2-.1.3-.3.1-.1.1-.3.1-.5v-2c0-.1 0-.2-.1-.2H103c-.2 0-.3 0-.4.1 0 0-.1.1-.1.3V34c0 .3.1.5.2.7.1.1.4.2.7.3.2 0 .2.1.2.2s-.1.1-.3.1h-2.6c-.2 0-.3 0-.3-.1s0-.1.1-.2c.2-.1.4-.2.5-.3s.1-.4.1-.7v-4.4c0-.3 0-.5-.2-.6s-.3-.2-.6-.2c-.2 0-.3-.1-.3-.2s.1-.1.5-.1h2.4s.1 0 .1.1c0 0 0 .1-.1.1 0 0-.1 0-.2.1-.3.1-.4.3-.4.7v1.9s.1.1.2.1h2.7c.2 0 .4-.1.4-.4v-1.3c0-.3 0-.5-.2-.6-.1-.1-.3-.2-.6-.2-.2 0-.2-.1-.2-.2s.1-.1.2-.1h2.5v.2c0 .1-.1.1-.2.1-.3.1-.4.3-.4.7v4.6c0 .3 0 .6.2.7s.3.2.6.3c.4-.4.5-.3.5-.2zm.8-6.8c0-.1.1-.1.3-.1h2.4s.1 0 .1.1 0 .1-.1.1c0 0-.1.1-.2.1-.3.1-.4.3-.4.7v4.7c0 .3 0 .5.2.7.1.1.3.2.6.2.1 0 .2.1.2.1 0 .1-.1.2-.3.2h-2.3c-.1 0-.1 0-.1-.1v-.1s.1 0 .2-.1c.1 0 .2-.1.3-.2.1-.1.1-.3.1-.6v-4.7c0-.2 0-.4-.2-.5-.1-.1-.3-.2-.6-.3-.1 0-.2-.1-.2-.2zm10.7.2c-.4.1-.6.4-.6.9v5.7h-.3l-.1-.1-4.1-5.1c0-.1-.1-.1-.1-.1v3.5c0 .5 0 .9.2 1.1.1.2.4.4.7.4h.2v.2H113c-.1 0-.2 0-.2-.1s.1-.1.2-.2c.2-.1.4-.2.4-.3.1-.1.1-.3.1-.6V30c0-.5-.1-.9-.2-1.1-.1-.2-.4-.3-.5-.4h-.2v-.1c0-.1 0-.2.2-.2h1.5c.1 0 .1 0 .2.1l.1.1 3.7 4.5c0 .1.1.1.1.1v-3.6c0-.2 0-.4-.2-.5-.1-.1-.4-.2-.7-.4-.1 0-.1-.1-.1-.2s0-.1.2-.1h1.9c.1 0 .2 0 .2.1s-.1.2-.2.2zm7.3 6.6l-2.8.1v-.1s0-.1.1-.1c0 0 .1 0 .1-.1 0 0 .1-.1.3-.1.1-.1.2-.2.2-.4 0-.1-.1-.4-.2-.8-.1-.3-.2-.5-.3-.6 0-.1-.1-.1-.3-.1H122c-.2 0-.3 0-.3.1 0 0-.1.1-.1.2-.1.1-.1.3-.2.5s-.1.4-.1.5c0 .3.2.5.7.6.2 0 .4.1.4.2s-.1.1-.2.1h-2c-.2 0-.3 0-.3-.1 0 0 0-.1.1-.1 0 0 .1 0 .2-.1.2-.1.4-.3.5-.5l2.5-5.8c0-.1 0-.1.1-.2 0-.1.1-.1.1-.1s.1 0 .1.1.1.2.1.3l2.4 5.5c.1.3.2.5.3.5.1.1.2.1.4.2 0 .1.1.2.1.3zm-4-5s-.1.1-.2.4l-.7 1.6v.2s.1.1.2.1h1.5c.1 0 .2 0 .2-.1V32l-.7-1.6-.3-.3zM73.5 5.5h.9c.2 0 .4.1.6.2.5.3.9.4 1 .5s.2.4.1.6c0 .2 0 .5-.2.6s-.3.3-.4.4c-.1.1 0 .3-.2.4h-.5c-.2 0-.4.1-.5 0l-.2-.2c-.1-.1-.2 0-.2-.1s-.2-.5-.4-.7c0 0 .1-.3 0-.4-.1-.1 0-.2-.1-.3v-.3c0-.1-.1-.2 0-.4-.1 0 0-.2.1-.3z"/>
		<path d="M79.8 9.2c-.1-1.8-.8-4-1.1-4.8-.3-.8-1.2-2.2-2-2.6-.2-.1-.5-.4-.9-.3-.2 0-.5-.1-.8 0-.2 0-.4.1-.6.2-.1 0-.5 0-.7.1-.1 0-.6 0-.8.1-.2 0-.7.2-.8.2-.7.2-2.3.9-3.1 1.8-.9 1.1-1.2 1.5-1.2 1.6.1.3.3.6.1.8 0 .1.2.2.4.2.4 0 .3 0 .5-.1.1 0 .1-.2.1-.4 0-.1-.2-.6 0-1 0-.1.1-.4.4-.7.2-.3.6-.7.9-.9s1.1-.5 1.9-.8 1.8-.4 2.1-.4c.4 0 .9 0 1.4.2s1.6 1.2 2 2.2c.3.7.8 3.5.8 4 0 .3.1.8.1 1s.1.4 0 .5c0 .1.1.2.1.3 0 .2-.1.9 0 1.4v1.3c0 .1.1.2 0 .3-.1 0 0 .3-.1.5v.4c0 .1-.1.3-.1.4v.4c0 .1 0 .2-.1.3v1.1c-.1.4 0 .5 0 .7-.1.3-.1.4-.2.6s-.5.6-.7.7c-.1.1-.4.4-.5.4s-.1 0-.4.1c-.1 0-.2-.1-.4-.1s-.3 0-.5-.1c-.2 0-.3-.1-.5-.1s-.4-.2-.8-.2c-.2 0-.7-.1-1.3-.1-.4 0-.8-.1-1-.2 0-.1 0-.2.1-.3.2 0 .4 0 .7-.2h.5c.2 0 .3-.2.8-.1.3 0 .5-.2 1 0 .2.1.4 0 .6 0s.2-.3.4-.4c.1-.1.2-.3.3-.7 0-.2.2-.3 0-.5-.1-.2-.4-.3-.5-.3-.2.1-.6 0-.8.1-.1.1-.3.3-.4.3s-.8.2-1.1.3c-.3.1-.6.2-.7.2h-.4l-.2.2c-.1.1-.4 0-.7.1-.2 0-.3.1-.4.1h-.5c-.2 0-.4.2-.5.2h-.6c-.2 0-.5.2-.6.1s0-.2.1-.3c.2 0 .3-.3.5-.5.1-.1.5-.3.6-.4s.3-.3.4-.5c.1-.1.6-.5.8-.6l.5-.5c.1-.1.2-.2.3-.2.1-.1.3-.4.5-.5.1 0 .3 0 .3.1.1.1.6.8.8.9.2.2.5.5.9.5h.3c.1 0 .1-.1.1-.2s.6-.9.7-1.4c.1-.4.4-1.5.4-1.7 0-.1 0-.4-.1-.5 0 0-.1-.1-.1 0v.5c0 .1-.3.9-.4 1.2-.1.3-.4.8-.7 1-.1.1-.2.1-.4.1s-.6-.3-.8-.4c-.1-.1-.4-.5-.5-.7 0-.1 0-.2.1-.3.1-.1 1-1.2 1.4-1.5.2-.3.8-1 1-1.2.1-.2.1-.4.1-.5.1-.1 0-.1 0-.2v-.2c0-.1-.1 0-.1-.1V9c0-.1-.1-.1-.2 0 0 .1-.4.5-.5.7s-.6 1-.8 1.3c-.4.5-.9 1.4-1.1 1.5h-.2v-.3c0-.1.3-.5.4-.6s.1-.2.1-.4v-.4c.1-.2 0 0 0-.3 0-.1 0-.2-.1-.4s-.4-.3-.6-.5c-.1-.1-.2-.3-.3-.4-.2-.1-.1 0-.3-.2 0-.1 0-.1-.1-.3 0-.1-.2-.1-.2-.3 0-.1-.2-.1-.2-.2-.1-.2-.1-.4 0-.5 0-.1 0-.1.2-.2 0 0 0-.2.1-.3s.2-.1.3-.3c.1-.1.2-.4.3-.6.1-.2 0-.2.1-.4.1-.1.1-.1.1-.2s0-.1-.1-.1c0 0-.1-.4-.2-.4-.2-.1-.3 0-.4 0-.3.1-1 .4-1.2.5-.1.1-.2.1-.3.1s-.2-.2-.2-.3-.1-.3-.2-.5c0-.1-.3-.5-.4-.7-.1-.1-.2-.3-.3-.3-.2 0-.1.2-.1.3s.2.8.3.9c0 .3.2.6.2.8 0 .1 0 .3-.1.4 0 .1-.5.6-.7.9-.1.3.1.5.4.4s.6-.4.8-.4c.2 0 .2 0 .2.2 0 .1.1.2.1.3v.3c0 .1.2.1.2.1 0 .1 0 .2-.1.4 0 .1-.3.5-.5.5-.1.1-.2.3-.3.5v.2c-.1.1-.1.1-.2.1 0 .1 0 .1-.1.5-.1.1 0 .2 0 .3 0 .1 0 .5.2.5s.1-.2.3-.3c.1 0 .3-.1.4-.2s.2 0 .2.1v.2s-.2.3-.4.4l-.2.4s-.2.1-.3.2c-.1.2-.6.8-.7.9-.3.3-.4.9-.6 1.1-.2.4-.1.6-.1.8-.1.3-.1.3 0 .4s.2 0 .3 0c0 0 .5-.2.8-.4.3-.1.8-.4 1.1-.5.3-.2.8-.5 1.2-.8.2-.1.6-.5.8-.6h.2c.1.1.1.2 0 .3l-1 1c-.2.2-.8.9-1 1-.4.4-1.4 1.2-1.6 1.4-.2.1-.4.4-.7.4h-1c-.1 0-.1 0-.3.1-.1.2 0 .3-.2.3s-.2-.2-.2-.4v-1.1c-.1-.5 0-.3-.1-.6v-.4c-.1 0-.1.4-.3.4-.1 0-.1-.2-.1-.4v-3.5c0-.2-.1-.4 0-.5 0-.1 0-.3.1-.5 0-.2-.1-.2 0-.4.1-.1 0-.2 0-.4v-.3c0-.1 0-.2.1-.4v-.5c0-.1.1-.3.1-.4v-.5c0-.1.1-.7.2-.9.1-.1.2-.8.2-.9s0-.4-.1-.5c-.1 0-.2 0-.3.1-.1.3-.4.5-.5.9-.1.3-.2 1.2-.4 1.5-.1.1-.2 1.2-.2 1.6-.1.4-.2 1.4-.2 1.5 0 .2.1.3 0 .4-.1.2-.1.3-.1.5v.5c0 .1-.1.2-.1.4 0 .1.1.1.1.2-.1.3 0 .7-.1.9-.1.3.2.3.1.5s0 .1 0 .7c0 .5.2 1.7.3 2.1 0 .2 0 1 .1 1.3 0 .4.8 1 .9 1.1.3.1.5 0 .8 0s.3-.3.2-.5c-.1-.2-.5-.3-.4-.5v-.3c0-.2-.1 0-.1-.3v-.3s0-.2.1-.2.2 0 .3.1c0 .1 1.3.2 2.1.3 1.1 0 3.1.2 3.6.5.6.3 2 .8 2.5 1.3.3.3.5.5.6.5s1.1-.8 1.3-1c.2-.3 1.5-1.2 1.8-1.7.1-.3.2-1 .3-1.5 0-.4.1-2.3.2-3.1.1.7.2-2.3.1-3.5zm-8-2.3c.3-.1.1-.1.2.1s-.1 0-.1.3c-.1.3-.1.2-.3.4s-.2 0-.3-.2c-.1-.1 0 0 0-.3-.1-.3.2-.2.5-.3zm.2 5.6c-.2.3-.6.2-.9.5s-.5.2-.8.4c-.3.2-.2.1-.5 0-.2-.1-.2-.2 0-.4s.1-.1.3-.2c.1-.1-.1-.1 0-.2s.1 0 .3-.2c.2-.2.1-.3.2-.4s.2-.3.4-.4c.3-.2.5-.5.6-.5s.2.2.3.5c.1.3.1.2.2.5.2.3.2.2-.1.4zm.7-.7c-.2.1 0 .1-.2-.1s0-.4-.2-.6c-.2-.1-.2-.1-.1-.4 0-.2.2-.1.2-.2s0 0 .2.3.1.3.2.5.1.1.1.3c0 .1-.1.1-.2.2zm32.7 7.4c-.1-.1-.1-.2-.3-.3-.3-.2-1.4-.5-1.7-.7-.1-.1-.8-.1-.8-.2 0-.2-.1-.2-.2-.1-.1 0-.2-.1-.2-.1-.5-.2-1.6-.5-1.8-.7-.1-.1-.1-.3-.1-.4.2-.3.5-.8.6-1 .3-.4.7-1 1-1.3.2-.1.5-.3.7-.5s.3-.6.1-.7c-.3-.1-.8 0-1 .3-.4.4-1 1-1.2 1.1-.3.1-1.2.6-1.4.6h-1.7c-.2 0-.5 0-.7.1-.3 0-.5 0-.6-.1-.2-.1-.7-.1-.9 0-.1 0-.2.2-.3.3-.1 0-.2-.1-.2-.2 0-.3 0-.7.1-.9 0-.3.3-1.1.4-1.4v-.7c0-.1.2-.2.2-.3 0-.3.2-.7.3-.7.1-.1.3 0 .4 0 .1 0 .1-.2.2-.3.1 0 .3-.2.4-.1.1.1 0 .3 0 .4-.4.4-.8 1.3-1 1.6-.3.5-.3.3-.4.7-.1.3 0 1.1-.1 1.3 0 .1.1.2.2.1.4-.4 1.7-1.1 2-1.2s.7-.3.8-.4c.1-.2.2-.4.1-.6-.2-.7-.6-.9-.7-1-.1-.1-.1-.3 0-.4.1 0 .5-1 .6-1.3s.4-.8.4-.9c.1-.3-.1-.4.1-.7.1-.2.3-1.3.5-1.8s.4-1.3.5-1.5c.2-.4.4-.7.4-.9.1-.3 0-.6 0-.8-.1-.2-.2-.3-.4-.2s-.5.4-.9.7-1.1.7-1.9 1.4c-.7.7-.4.6-.6.7-.1 0-.3-.1-.4-.2-.2-.1-.3 0-.3.1v.3c-.1.2-1 2.1-1.3 3.3-.2 1.1-.5 3.2-.7 3.9-.3 1.4-.2 2.9-.5 3.3-.4.5-1.3 1.5-2 2.1-.7.7-2.1 1.4-2.2 1.3-.1 0-.1-.1 0-.3 0-.1.3-.2.4-.2h.4c.1 0 0-.6.1-.7.3-.2 1.6-1.4 1.9-1.9s1-1 .9-1.2c-.2-.3-.5-.6-.6-.6h-.7c-.3 0-.7.2-.8 0-.1-.3.6-.6.6-.7s.1-.3.1-.5-.1-.7-.2-.8c0-.2-.1-.6-.2-.6-.2 0 0 .4-.1.5s-.5.3-.5.4c-.1 0-.1.2-.2.2s-.3 0-.3-.1c.1-.3-.1-.9 0-1s.2-.2.3-.4l.3-.3c.2-.2.6-.2.6-.4 0-.1 0-.5-.1-.6-.1 0-.2-.2-.3-.3-.1-.1-.3-.5-.3-.6 0 0 0-.2-.3-.1-.3 0-.6.3-.9.8-.4.3-.7.5-.8.8 0 .2.4.7.5.8.1.1.2.3 0 .5s-.9 1.1-1.1 1.6c-.1.1-.1.2-.1.4 0 .3.3 1.1.4 1.4.1.1.2.1.3.1.1-.1.3.1.1.2-.2.2-.5.4-.8.6-.2.1-.8.8-1 .9-.1.1-.6.4-.8.5-.1.1-.2.2-.1.4.1.1.2.6.4.7.2.1.4 0 .5-.1.2-.2.6-.7.9-.9 0 0 .1.1.2 0 0 0 0-.1.1-.3.1-.3.6-.7.9-.9.1-.1.2.1.3.2v.6c0 .1-.1.2-.1.2-.2.3-.8.3-1.1.3 0 0 .3.2.7.2.1 0 .3.1.2.2-.3.3-.8.9-1.1 1.1-.2.1-.3.5-.3.8s.1.8.4.7c.4-.1.9-.3 1.1-.4s.5-.3.6-.3c.3-.1.9-.2 1.1-.5.3-.3.7-.5.9-.7.2-.2.2-.3.5-.5.5-.4.7-.7.8-.8.1-.1.2-.3.4-.1.1.1 0 .7 0 1 .1.3.1.9.2 1.1.2.4.7.8 1.1.9.4 0 .8.2 1 .1s.6-.4 1-.6c.1-.1.5-.4.6-.6.2-.1.5-.2.7-.4l.7-.7c.1-.1.2-.3.2-.3.1-.2.1-.2.4-.2.2 0 1.2.8 1.7 1 .6.2 1.3.3 1.9.3.7 0 2.8-.5 2.8-.7.4-.1.2-.1.1-.2zM98 11.9c0 .2.1.4 0 .5-.2.2-1.1.6-1.3.6-.1 0-.1.1-.2-.1 0-.3.3-.5.3-.6 0-.2.1-.4.3-.5s.2.2.4.2c.1 0 .2-.2.3-.3.1-.1.2-.1.2.2zm-1.4-3.6c.1-.2.2-.6.2-.8 0-.5.5-1.1.9-1.6.4-.4 1.9-1.4 1.9-1.4 0 .2-.1 1.1-.4 1.9-.2.7-.3 1-.5 1.7-.1.3-.3.1-.4.3l-.4.4c-.3.3-1 .7-1.1.9-.1.1-.3 0-.3-.1V9c-.1-.3 0-.6.1-.7zm-6.7 8.2c0-.1.5-.3.8-.5.3-.1.5-.2.7-.3.1 0 .2.1.2.2-.1.2-1.1 1.3-1.5 1.7-.1.1-.2-.2-.2-.4v-.7zm-.7-1.9c-.1.1-.3.2-.4.1s0-.2.1-.3c.1-.1 0-.2.1-.2s.3.2.2.4zm9.2 3.8c-.1.1-.1.2-.3.4-.5.3-2 1.2-2.2 1.3-.3.2-.8.1-.9 0-.1-.1-.3-.3-.3-.6 0-.5-.1-1.3 0-1.7 0-.4 0-.9.2-1.4 0-.1.5.3.7.4.3 0 .5.2.9.3.5.1.9.4 1.2.6.2.2.5.2.8.5 0-.1-.1.1-.1.2zm1.8-2.6c-.1.1-.4.6-.5.7 0 .1-.1.2-.2.1-.1 0-.4-.1-.5-.2s0-.5.2-.5.7-.2.9-.4c0 0 .2.1.1.3zM60.2 5c0-.1-.5-.1-.8-.1-.5 0-1.4 0-1.9.1-.8.2-1.3.6-1.5.5-.1 0-.1-.4-.1-.6 0-.2-.1-.6-.4-.9-.3-.3-.7-.9-.9-1.1-.1-.1-.5-.6-.8-.8-.2-.2-.4-.3-.5-.4-.3-.2-.6-.2-.7-.1-.2.2-.5.7-.6 1.1-.1.5 0 .5 0 .8 0 .4 0 .7-.1 1.2v.7c0 .1 0 .5-.1.8v.7c0 .1-.1.3-.1.4 0 0 .1.1.1.3-.1.3-.1.4-.1.4s-.6.4-.9.7c-.3.2-.8.5-.9.6-.2.1-.8.5-1 .7-.2.1-.5.4-.6.4s-.4-.4-.4-.4-.5-.5-.9-.8c-.3-.3-.6-.9-.8-.9-.2.1-.3.4-.7.4 0 .2 0 1.5.3 2.1.2.4.7 2.8 2.2 3.7.9.5 2 .8 2.2.8s.2-.5.2-.7c0-.1.2-.3.3-.3.1 0 .3.1.3.4 0 .4.2 2.7.3 3.6.1.8.2 1.2.4 1.9.1.4.2 1.6.3 2 .1.2.4.6.7.6.1 0 .3-.2.3-.3 0-.1-.3-.2-.4-.3-.1-.1-.1-.3-.2-.4 0-.2-.2-.1-.3-.4-.1-.3-.2-.7-.2-.9V20c0-.2-.1-.9-.2-1.1V18c0-.2.1-.3.2-.3s.1.1.1.2.1.4.1.8v1c0 .3.1.6 0 .7-.1.3.2.4.2.6s-.1.3 0 .6c.2.3.2.2.3.4 0 .1.2.1.2.2 0 .2.1.3.2.3s.3-.2.4-.4c0-.1.2 0 .3 0 .1 0 .1-.2.2-.2s.3 0 .4-.2c.1-.1.2-.3.1-.8 0-.5-.1-.6 0-1.5 0-.2.1-.5.1-.7 0-.1.1-.2.1-.3 0-.1.1-.6.1-.8 0 0 .2-.2.2-.4s.1-.9.2-1.1c.2-.7.2-.4.4-1 .2-.4 0-.9.3-1.4.2-.3.1-.7.3-.8.2-.1.4-.1.7-.2.4-.1.3-.4.4-.8.1-.3.4-.4.4-.7 0-.4-.5-.1-.7-.3-.2-.1.8-1 1.2-1.6.5-.6.5-.8.8-1.2s.5-.5.8-1.2c.5-1 .6-1.6.5-1.9zm-8.9 6.4v1.4c0 .1-.6.6-.8.6-.2 0 0-.2-.3-.4s-.3-.4-.4-.6-.1-.4-.3-.5c-.1-.2-.1-.4 0-.6 0-.1.4-.3.5-.4s.4-.3.5-.4c.3-.3.3-.2.5-.4.1-.1.3-.1.4.1 0 .4-.1 1-.1 1.2zm2.3 10c-.1 0-.3-.1-.4-.2 0-.1-.2-.5-.2-.7 0-.1 0-.4.1-.6v-.6c0-.2.3-.4.3-.7v-.5c-.1-.2 0-.4.1-.4s.1 0 .1.2v2.2c0 .1-.1.4-.1.6s.2.4.2.6c.1.1.1.1-.1.1zm4.9-14.5c0 .1-.8 1.3-1.2 1.7-.4.4-1.3 1.5-1.4 1.6-.1 0-.2-.1-.2-.3v-.7c0-.1-.1-.5-.1-.9 0-.2.1-.4.1-.7 0-.1.5-.4.8-.6.2-.1.4-.4.6-.5.3-.1.5-.1.7-.1.3 0 .6-.1.7 0 .1.2.1.2 0 .5z"/>
	</g>
	<path fill="#b50029" d="M18 0C8.1 0 0 8.1 0 18s8.1 18 18 18 18-8.1 18-18C36 8 27.9 0 18 0zm-2.1 31.9c-6.8-1-12.1-6.9-12.1-14s5.2-13 12.1-14v6.6h-2.6c-2.1 0-3.9 1.7-3.9 3.9v6.9c0 2.1 1.7 3.9 3.9 3.9h2.6v6.7zm-2.2-10.5c-.2 0-.4-.2-.4-.4v-6c0-.2.2-.4.4-.4h8.6c.2 0 .4.2.4.4v6c0 .2-.2.4-.4.4h-8.6zm6.4 10.5v-6.6h2.6c2.1 0 3.9-1.7 3.9-3.9v-6.9c0-2.1-1.7-3.9-3.9-3.9h-2.6V4c6.8 1 12.1 6.9 12.1 14-.1 7.1-5.3 12.9-12.1 13.9z"/>
</svg>