<svg xmlns="http://www.w3.org/2000/svg" viewBox="0 0 108 36">
	<path fill="#F10D30" d="M20.25 10.125c0 5.592-4.533 10.125-10.125 10.125C4.53296 20.25 0 15.717 0 10.125 0 4.53296 4.53296 0 10.125 0 15.717 0 20.25 4.53296 20.25 10.125ZM10.125 33.75C4.52802 33.75 0 34.118 0 34.4861v.7778C0 35.632 4.52802 36 10.125 36c5.597 0 10.125-.368 10.125-.7361v-.7778c.0313-.3681-4.528-.7361-10.125-.7361ZM0 26.4375v1.125c0 1.8644 4.53296 3.375 10.125 3.375 5.592 0 10.125-1.5106 10.125-3.375v-1.125c0-1.8644-4.533-3.375-10.125-3.375C4.53296 23.0625 0 24.5731 0 26.4375Z"/>
	<path fill="#10385C" d="M60.1796 24.6562c-1.9984 0-3.6485-.635-4.9493-1.8742-1.3327-1.2711-1.9671-2.8598-1.9671-4.7977 0-1.938.6344-3.5267 1.9039-4.7659 1.3321-1.2711 2.9504-1.9072 4.8543-1.9072 0 0 2.5379-.0319 4.188.9217l1.9671-3.04979s-2.1896-1.77979-6.2188-1.77979c-3.236 0-5.9013 1.07996-7.9003 2.95528-2.0621 1.9699-3.1091 4.5121-3.1091 7.6257 0 3.0816 1.047 5.6239 3.141 7.6256 1.999 1.9061 4.6642 2.9553 7.8684 2.9553 4.0292 0 6.2188-1.7798 6.2188-1.7798l-1.9671-3.0498c-1.4282.8262-3.4903.9206-4.0298.9206Zm13.7692 3.5278h-4.188V7.81641h17.0376V28.184h-4.1561V11.566h-8.6935v16.618ZM43.9611 16.6813c-1.3645-1.2393-3.2361-1.8743-5.6157-1.8743h-4.3786v-3.241h10.6287V7.81641H29.7788V28.184h8.5666c2.3796 0 4.2512-.6043 5.6475-1.8435 1.364-1.2712 2.0622-2.8598 2.0622-4.8296 0-1.938-.6982-3.5585-2.094-4.8296Zm-3.1092 7.0224c-.6663.5087-1.5864.7943-2.824.7943h-4.0611v-6.1644h4.0611c1.2057 0 2.1258.2857 2.7922.8262.6663.5405 1.0151 1.303 1.0151 2.2873 0 .9855-.3488 1.748-.9833 2.2566Zm65.0511-7.0224c-1.364-1.2393-3.236-1.8743-5.616-1.8743h-4.3782v-3.241h10.6292V7.81641H91.7208V28.184h8.5662c2.38 0 4.252-.6043 5.647-1.8435 1.365-1.2712 2.063-2.8598 2.063-4.8296 0-1.938-.698-3.5585-2.094-4.8296Zm-3.109 7.0224c-.666.5087-1.586.7943-2.8241.7943h-4.0611v-6.1644h4.0611c1.2061 0 2.1261.2857 2.7921.8262.356.2889.621.6416.791 1.0569.148.3625.224.7723.224 1.2304 0 .4109-.06.7823-.177 1.113-.163.4636-.436.847-.806 1.1436Z"/>
</svg>