<svg xmlns="http://www.w3.org/2000/svg" viewBox="0 0 160 31">
	<path fill="#231f20" d="M97.1 28.6c0 .1-.1.3-.3.4s-.3.1-.4.1h-3.9V25h3.8v-1.2h-3.8v-3.5h3.8c.2 0 .3 0 .4.1.1.1.2.2.2.4h.4v-1.6h-6.8v.4c.1 0 .2.1.3.2.2.2.2.4.2.5v9c0 .1 0 .3-.1.4l-.3.3v.4h6.8v-1.6c.1-.2-.3-.2-.3-.2zm17.5 0c0 .1-.1.3-.3.4-.1.1-.3.1-.4.1H110V25h3.8v-1.2H110v-3.5h3.8c.2 0 .3 0 .4.1s.2.2.3.4h.4v-1.6h-6.7v.4c.1 0 .2.1.3.2.2.2.2.4.2.5v9c0 .1 0 .3-.1.4l-.3.3v.4h6.8v-1.6h-.5v-.2zm-25.9-9.1v-.4h-8.8v.4c.1 0 .3.1.4.3.1.1.1.3.1.4v9c0 .2 0 .3-.1.4-.1.1-.2.2-.4.3v.4h2.3v-.4c-.1 0-.3-.1-.4-.3-.1-.1-.1-.3-.1-.4v-8.9h5.1v8.9c0 .2 0 .3-.1.4-.1.1-.2.2-.4.3v.4h2.3v-.4c-.1 0-.3-.1-.4-.3-.1-.1-.1-.3-.1-.4v-9c0-.2.1-.3.2-.4.1-.2.3-.3.4-.3zM77.6 25h-4.7v-1.2h4.7V25zm-45.2 3.6c0 .1-.1.3-.2.4-.1.1-.3.1-.4.1 0 0-.7.1-1.6.1-.4 0-.8 0-1.1-.2-.3-.1-.7-.4-.9-.7-.5-.8-.7-1.7-.6-2.6v-2.1c0-2.3.8-3.4 2.6-3.4.8 0 1.6.1 1.6.1.1 0 .3.1.4.2s.2.2.2.4h.5v-1.5c-.4-.1-.7-.2-1.1-.2-.5-.1-1-.1-1.5-.2-.5 0-1.1.1-1.6.3-.5.2-1 .5-1.3.9-.8 1-1.1 2.2-1 3.5v2.1c-.1 1.2.3 2.5 1.1 3.4.4.4.8.7 1.3.9.5.2 1 .3 1.6.3.7 0 1.2 0 1.6-.1l1-.2v-1.5h-.6zm111.2-9.4h-2.5v.4c.3.1.5.4.3.8-.2.5-2 5.2-2 5.2-.2 0-.3-.1-.4-.3-.2-.3-2-4.8-2.1-5.1 0-.1-.1-.1-.1-.2v-.2c0-.1.1-.1.1-.2.1 0 .1-.1.2-.1v-.4h-2.6v.4c.2 0 .3.1.5.2.1.1.2.3.3.4.1.3 2.1 5.2 2.3 5.6.1.3.2.5.4.7.2.2.5.3.8.4 0 0-.3.8-.5 1.4-.1.3-.2.5-.5.7-.2.2-.5.3-.8.3-.1 0-.3 0-.4-.1-.1-.1-.2-.2-.2-.3h-.4v1.4c.3.2.7.2 1.1.2.5 0 1.1-.1 1.5-.4.4-.3.8-.8 1-1.3.3-.6 3-8.1 3.2-8.4.2-.4.3-.6.7-.7l.1-.4zm-99.8-6c0-.1-2.6-9-2.6-9-.1-.3-.3-.6-.6-.8-.3-.2-.6-.3-.9-.3-.3 0-.7.1-.9.3-.3.2-.5.5-.6.8 0 0-2.4 8.4-2.6 9 0 .2-.1.4-.3.5s-.3.2-.5.3v.4h2.6V14c-.1-.1-.3-.2-.3-.3-.1-.1-.1-.3-.1-.4.2-1 .7-2.5.7-2.5h3.9s.6 2.3.7 2.5c0 .1 0 .3-.1.4l-.3.3v.4h2.6V14c-.2-.1-.3-.1-.5-.3 0-.2-.1-.4-.2-.5.1 0 0 0 0 0zm-5.7-3.8s1.4-4.9 1.4-5c0-.1 0-.1.1-.2 0 0 .1-.1.2-.1s.1 0 .2.1c0 0 .1.1.1.2s1.4 5 1.4 5h-3.4zm4.7 19.8c0-.1-2.6-9-2.6-9-.1-.3-.3-.6-.6-.8-.3-.2-.6-.3-.9-.3-.3 0-.7.1-.9.3-.3.2-.5.5-.6.8 0 0-2.4 8.4-2.6 9 0 .2-.1.4-.3.5s-.3.2-.5.3v.4h2.6V30c-.1-.1-.3-.2-.3-.3-.1-.1-.1-.3-.1-.4.2-1 .7-2.5.7-2.5h3.8s.6 2.3.7 2.5c0 .1 0 .3-.1.4l-.3.3v.4h2.6V30c-.2-.1-.3-.2-.5-.3 0-.2-.1-.3-.1-.5zM37 25.4s1.4-4.9 1.4-5c0-.1 0-.1.1-.2 0 0 .1-.1.2-.1s.1 0 .2.1c0 0 .1.1.1.2s1.4 5 1.4 5H37zM54.2 4.1c0-.2 0-.3.1-.4.1-.1.2-.2.4-.3V3h-2.3v.4c.1 0 .3.1.4.3s.1.3.1.4v3.6h-5.1V4.1c0-.2 0-.3.1-.4.1-.1.2-.2.4-.3V3H46v.4c.1 0 .3.1.4.3s.1.3.1.4v9c0 .2 0 .3-.1.4s-.2.2-.4.3v.4h2.3v-.4c-.1 0-.3-.1-.4-.3s-.1-.3-.1-.4V8.9h5.1v4.2c0 .2 0 .3-.1.4s-.2.2-.4.3v.4h2.3v-.4c-.1 0-.3-.1-.4-.3s-.1-.3-.1-.4v-9c-.1.1 0 0 0 0zM53 20.2c0-.2 0-.3.1-.4s.2-.2.4-.3v-.4h-2.3v.4c.1 0 .3.1.4.3s.1.3.1.4v3.6h-5.1v-3.6c0-.2 0-.3.1-.4s.2-.2.4-.3v-.4h-2.3v.4c.1 0 .3.1.4.3s.1.3.1.4v9c0 .2 0 .3-.1.4-.1.1-.2.2-.4.3v.4H47v-.4c-.1 0-.3-.1-.4-.3s-.1-.3-.1-.4V25h5.1v4.2c0 .2 0 .3-.1.4-.1.1-.2.2-.4.3v.4h2.3v-.4c-.1 0-.3-.1-.3-.3-.1-.1-.1-.3-.1-.4v-9zm11.4-7l-4-5.4 3.2-3.6c.2-.3.6-.6 1-.7V3H63l-4.5 5.2v-4c0-.2 0-.3.1-.4.1-.1.2-.2.4-.3v-.4h-2.3v.4c.1 0 .3.1.4.3s.1.3.1.4v9c0 .2 0 .3-.1.4s-.2.2-.4.3v.4H59v-.4c-.1 0-.3-.1-.4-.3s-.1-.3-.1-.4V10l1.1-1.2 4 5.5h2v-.4c-.4-.2-.8-.4-1.2-.7.1 0 0 0 0 0zm-1.1 16l-4-5.4 3.2-3.6c.2-.3.6-.6 1-.7V19h-1.7l-4.4 5.2v-4.1c0-.2 0-.3.1-.4s.2-.2.4-.3V19h-2.3v.4c.1 0 .3.1.4.3s.1.3.1.4v9c0 .2 0 .3-.1.4-.1.1-.2.2-.4.3v.4h2.3v-.4c-.1 0-.3-.1-.4-.3s-.1-.3-.1-.4V26l1.1-1.2 4 5.5h2v-.4c-.5-.1-.9-.4-1.2-.7.1 0 0 0 0 0zM29.7 7.7c-.5 0-1.1 0-1.6.1V4.3H32c.2 0 .3 0 .4.1.1.1.2.2.3.4h.4V3.1h-6.8v.4c.1 0 .3.1.4.2.1.1.1.3.1.4v9c0 .2 0 .3-.1.4-.1.1-.2.2-.4.3v.4h3.5c2.8 0 4.3-1.1 4.3-3.2v-.1c0-2.1-1.5-3.2-4.4-3.2zm3 3.3c0 .3 0 .6-.1.8-.1.3-.3.5-.5.7-.7.4-1.5.6-2.3.5h-1.6V8.9c.7 0 1.2-.1 1.6-.1.8-.1 1.6.1 2.3.5.2.2.4.4.5.7.1.3.2.6.2.8v.2zm96.7 12.7c-.5 0-1.1 0-1.6.1v-3.5h3.9c.2 0 .3 0 .4.1s.2.2.3.4h.4v-1.6H126v.4c.1 0 .3.1.4.2.1.1.1.3.1.4v9c0 .2 0 .3-.1.4-.1.1-.2.2-.4.3v.4h3.5c2.8 0 4.3-1.1 4.3-3.2 0-2.3-1.4-3.3-4.4-3.4zm3 3.4c0 .3 0 .6-.1.9-.1.3-.3.5-.5.7-.7.4-1.5.6-2.3.5h-1.6V25c.7 0 1.2-.1 1.6-.1.8-.1 1.6.1 2.3.5.2.2.4.4.5.7.1.3.2.6.2.8-.1 0-.1.2-.1.2zm-67.9-8v1.6h.5c0-.1.1-.3.3-.4s.3-.1.4-.1h2.1v9c0 .2 0 .3-.1.4-.1.1-.2.2-.4.3v.4h2.3v-.4c-.1 0-.3-.1-.4-.3s-.1-.3-.1-.4v-8.9h2.2c.2 0 .3 0 .4.1s.2.2.3.4h.4v-1.6l-7.9-.1c.1 0 0 0 0 0zm34.4 0v1.6h.4c0-.1.1-.3.3-.4s.3-.1.4-.1h2.2v9c0 .2 0 .3-.1.4-.1.1-.2.2-.4.3v.4h2.3v-.4c-.1 0-.3-.1-.4-.3-.1-.1-.1-.3-.1-.4v-8.9h2.2c.2 0 .3 0 .4.1s.2.2.3.4h.4v-1.6c0-.1-7.9-.1-7.9-.1zm21.3-.1h-1.6l-1.7.1v.4c.1 0 .3.1.4.3.1.1.1.3.1.4v9c0 .2 0 .3-.1.4-.1.1-.2.2-.4.3v.4h2.3v-.4c-.1 0-.3-.1-.4-.3-.1-.1-.1-.3-.1-.4v-3.4c.6 0 1.1.1 1.5.1 2.8 0 4.2-1.1 4.2-3.4v-.2c0-2.2-1.4-3.3-4.2-3.3zm2.9 3.4c0 .3 0 .6-.1.9-.1.3-.3.6-.5.8-.6.4-1.4.6-2.2.5l-1.5-.1v-4.4c.5 0 1-.1 1.5-.1.8-.1 1.5.1 2.2.5.2.2.4.4.5.7.1.3.2.6.1.9v.3zM148 19h-1.6l-1.7.1v.4c.1 0 .3.1.4.3.1.1.1.3.1.4v9c0 .2 0 .3-.1.4-.1.1-.2.2-.4.3v.4h2.3v-.4c-.1 0-.3-.1-.4-.3-.1-.1-.1-.3-.1-.4v-3.4c.6 0 1.1.1 1.5.1 2.8 0 4.2-1.1 4.2-3.4v-.2c0-2.2-1.4-3.3-4.2-3.3zm2.8 3.4c0 .3 0 .6-.1.9-.1.3-.3.6-.5.8-.6.4-1.4.6-2.2.5l-1.5-.1v-4.4c.5 0 1-.1 1.5-.1.8-.1 1.5.1 2.2.5.2.2.4.4.5.7.1.3.2.6.1.9v.3zm2.8-3.3v.4c.1 0 .3.1.4.3.1.1.1.3.1.4v9c0 .2 0 .3-.1.4-.1.1-.2.2-.4.3v.4h2.3v-.4c-.1 0-.3-.1-.4-.3-.1-.1-.1-.3-.1-.4v-8.9h3.5c.2 0 .3 0 .4.1s.2.2.3.4h.4v-1.6l-6.4-.1z"/>
	<path fill="#c4122f" d="M17.6 23.1v.9c0 1.7-3.9 3.1-8.8 3.1C4 27.1 0 25.7 0 24v-.9h17.6zM0 30c0-.2 3.9-.5 8.8-.5 4.8 0 8.8.2 8.8.5v.6c0 .2-3.9.5-8.8.5-4.8-.2-8.8-.4-8.8-.7V30z"/>
	<path fill="url(#gr1)" d="M17.2 11.7c1.6-4.6-.8-9.6-5.4-11.2C10.9.2 10 0 9.1 0h-.6C5 .2 1.8 2.4.5 5.9c-1.6 4.6.8 9.6 5.4 11.2.8.2 1.6.4 2.4.5h1c3.5-.2 6.6-2.5 7.9-5.9z"/>
	<linearGradient id="gr1" gradientUnits="userSpaceOnUse" x1="5.5567" y1="21.9221" x2="15.4145" y2="31.78" gradientTransform="matrix(1 0 0 -1 0 34)">
		<stop offset="0" stop-color="#e11837"/>
		<stop offset="1" stop-color="#f15a22"/>
	</linearGradient>
	<path fill="url(#gr2)" d="M8.8 26.2c4.8 0 8.8-1.4 8.8-3.1 0-1.7-3.9-3.1-8.8-3.1S0 21.5 0 23.2c0 1.7 3.9 3 8.8 3z"/>
	<linearGradient id="gr2" gradientUnits="userSpaceOnUse" x1="4.5407" y1="10.1095" x2="18.9823" y2="12.4991" gradientTransform="matrix(1 0 0 -1 0 34)">
		<stop offset="0" stop-color="#e11837"/>
		<stop offset=".9843" stop-color="#f15a22"/>
	</linearGradient>
</svg>