<svg viewBox="0 0 160 27" xmlns="http://www.w3.org/2000/svg">
	<path fill="#231F20" d="m41.7216 5.07812-.3725 2.21107H34.428v4.33391h2.3207c1.2646 0 3.399 0 4.9016 1.4152 1.1871 1.1265 1.3564 2.6736 1.3564 3.5853 0 .9091-.139 2.2147-1.1871 3.2583-1.3831 1.3822-3.5737 1.5025-5.1983 1.5025h-4.9917V5.07812h10.092ZM36.8057 19.1627c1.2566 0 1.9794-.3699 2.368-.7264.6327-.5926.7307-1.4125.7307-1.9686 0-1.0053-.3582-1.5979-.7307-1.9206-.6506-.6113-1.6274-.704-2.368-.704H34.428v5.3205h2.3777v-.0009Zm11.8717-9.97703v4.67343h1.6782c.9883 0 2.6548.0223 3.7947 1.1595.8743.8671.9946 1.9588.9946 2.6611 0 1.3422-.4848 2.1576-.9474 2.6184-.8716.8751-2.1451 1.0863-3.6325 1.0863h-4.5353V9.66692l2.6477-.48125Zm0 10.35753h1.3814c.581 0 1.2851-.0347 1.7886-.5213.4421-.4002.4911-.9679.4911-1.3422 0-.7994-.2861-1.2726-.5588-1.5026-.467-.4322-1.1933-.4652-1.7209-.4652h-1.3814v3.8313ZM59.657 9.18567V21.3844h-2.6424V9.66692l2.6424-.48125Zm8.241 12.50003c-3.3483 0-5.2171-2.2878-5.2171-6.1288 0-4.3339 2.6727-6.41044 5.4051-6.41044 1.3323 0 2.3189.30657 3.3973 1.30564l-1.3324 1.7155c-.7326-.6372-1.3626-.9233-2.0649-.9233-.8431 0-1.5471.4287-1.9357 1.2058-.3663.729-.5196 1.8377-.5196 3.3313 0 1.622.2808 2.6549.8369 3.2422.3868.426.966.68 1.6193.68.8475 0 1.6763-.3921 2.4766-1.1657l1.2566 1.565c-1.1086 1.0828-2.269 1.5828-3.9221 1.5828Zm10.4627-.3022h-2.6398v-9.993h-3.2867V9.45838h9.4431l-.3333 1.93212h-3.1825v9.993h-.0008Zm7.5449-12.23704c.1149.49283.1907.97674.1907 1.42054.9536-1.08812 2.2574-1.42054 3.2769-1.42054 1.4304 0 2.3938.58819 2.9757 1.15324.8244.8056 1.6577 2.2618 1.6577 4.9755 0 2.6211-.7798 4.3179-1.7744 5.2599-.5855.5383-1.5819 1.1514-3.1495 1.1514-.606 0-1.7254-.1051-2.8839-.991.049.5463.0632 1.1835.0632 1.6318v3.498l-2.5702.6212V12.5446c0-1.5792-.1203-2.4606-.2335-2.97215l2.4473-.42599Zm.3556 9.28894c.6363.5847 1.4553 1.0722 2.4499 1.0722.5383 0 .9758-.148 1.3653-.5071 1.0578-.9465 1.0578-2.6594 1.0578-3.5871 0-1.5329-.139-2.8198-.8413-3.5238-.4135-.4207-.8716-.5561-1.3831-.5561-1.2138 0-2.1104.7004-2.6486 1.228v5.8739Zm15.0788 3.2503c-3.3168 0-5.4111-2.4161-5.4111-6.2732 0-3.8126 2.1104-6.26693 5.3601-6.26693 3.498 0 5.479 2.52563 5.479 6.29543 0 3.8696-2.098 6.2447-5.428 6.2447Zm-.051-10.6071c-1.6696 0-2.3986 1.2503-2.3986 4.1512 0 3.514.9027 4.5228 2.4746 4.5228 1.578 0 2.447-1.2485 2.447-4.2893 0-3.3696-.969-4.3847-2.523-4.3847Z"/>
	<path fill="#F68E1E" d="M27.1086 26.3574H0V0h27.1086v26.3574ZM119.521 7.28906l.367-2.21094h-10.086V21.3848h4.994c1.619 0 3.801-.1211 5.187-1.503 1.045-1.0439 1.192-2.3496 1.192-3.2578 0-.9121-.176-2.459-1.361-3.5859-1.502-1.4151-3.635-1.4151-4.903-1.4151h-2.326V7.28906h6.936ZM117.34 18.4365c-.383.3565-1.116.7266-2.372.7266h-2.383v-5.3203h2.383c.753 0 1.719.0927 2.372.7041.366.3232.728.915.728 1.9209 0 .5556-.092 1.376-.728 1.9687Zm13.568 1.8281c.299.7647.932 1.3311 1.674 1.6153l1.388-1.6475c-.943-.6386-1.095-1.166-1.072-2.7597l.051-3.417c.021-1.7696.021-2.3955-.198-2.9229-.529-1.3037-1.822-1.98534-3.726-1.98534-1.85 0-3.378.49316-5.22 1.62594l1.193 1.8702s1.885-1.376 3.664-1.376c1.454 0 1.694.7265 1.694 2.1113v.6309h-.827c-3.921 0-6.056 1.3925-6.056 4.1396 0 2.083 1.259 3.5401 4.069 3.5401 1.312 0 2.386-.3311 3.366-1.4249Zm-4.562-2.2587c0-1.4981.801-2.2588 3.474-2.2588l.485.0312-.047 2.8262c-.532.7549-1.355 1.1934-2.204 1.1934-1.067 0-1.708-.6553-1.708-1.792Zm10.332 3.3789h2.64v-5.378h4.149v5.378h2.646V9.18555l-2.646.4834v4.40525h-4.149V9.18555l-2.64.4834V21.3848Zm15.703-12.19828-2.639.48145V21.3828h2.639v-5.2822h1.095c.393 0 .826 0 1.187.3047.317.2685.468.7295.565 1.1836l.382 1.6787c.096.4355.268 1.1074.745 1.5762.639.5927 1.482.6347 2.341.7041l.819.0712.485-1.7607-.485-.1045-.798-.3564c-.066-.0557-.169-.168-.28-.3702-.062-.1123-.127-.2519-.189-.4238l-.603-1.7724c-.147-.4424-.387-.9463-.731-1.2754-.193-.1563-.483-.376-.894-.4649v-.0556c.558-.1065.894-.4112.974-.4903.264-.2597.483-.666.595-1.0761l.395-1.2891.009-.0264c.094-.2685.196-.5605.43-.7627l.672-.2861.613-.1113-.489-1.77054-.895.0957c-.894.09961-1.475.17773-1.969.68454-.431.4483-.556.92-.649 1.3741l-.314 1.3398c-.121.5381-.294.8848-.508 1.1103-.373.3204-.921.3594-1.355.3594h-1.148V9.18652Z"/>
	<path fill="#FEFEFE" d="m18.6993 13.1981-5.5709-8.1483H8.41748l5.54242 8.1483-5.54242 8.1081h4.71092l5.5709-8.1081Z"/>
</svg>