<svg xmlns="http://www.w3.org/2000/svg" viewBox="0 0 160 27.1">
	<path fill="#fff" d="M27.2 0H0v27.1h27.2V0z"/>
	<path fill="#f78f1e" d="M119.7 13.2c-2-1.7-4.7-1.2-7.1-1.3V7.6c2.3-.1 4.6 0 6.9 0 .1-.8.2-1.6.3-2.3-1.8-.3-3.6-.1-5.3-.1-1.6 0-3.2-.2-4.8.1v16.8h5.5c1.2 0 3.9-.4 4.9-1.7 1.7-2 1.5-5.4-.4-7.2zm-2.6 6c-.4.2-.9.4-1.4.5-1 .1-2 0-3-.1v-5.3c1.4 0 3.1-.2 4.1.3 1.7.9 1.7 3.8.3 4.6zm16 .4c-.1-2.3 0-4.7 0-7 0-1.3-.8-2.7-2.1-3-2.4-.7-5-.1-7 1.4.2.7.6 1.2 1 1.8.7-.2 1.3-.5 1.9-.8.9-.5 1.9-.4 2.9-.3 1 .5.6 1.7.7 2.6-1.3-.1-2.5.1-3.8.4-1.4.4-2.7 1.4-2.9 2.8-.1.8-.2 1.6 0 2.4.3 1.2 1.4 2.2 2.6 2.4.8.1 1.6.1 2.3 0 .9-.1 1.7-.7 2.3-1.3.4.5.6 1.1 1.2 1.3.2.1.5 0 .7 0l1.2-1.5c-.5-.3-.8-.7-1-1.2zm-2.9-.4c-.3.5-.8.9-1.4 1.1-.5.2-1.1.2-1.6-.1-.3-.1-.5-.4-.6-.6-.3-.6-.3-1.5-.1-2.1.5-1.4 2.4-1.2 3.7-1.1 0 .9.1 1.9 0 2.8zm6.4-9.3c.9-.2 1.8-.3 2.6-.5.3 1.6.1 3.3.1 5h4c.1-1.5.1-3 .1-4.5.9-.2 1.7-.4 2.6-.5V22h-2.6c-.2-1.8-.1-3.6-.2-5.5-1.3 0-2.7-.1-4 0-.1 1.8-.1 3.7-.2 5.5h-2.6c.2-4 .3-8 .2-12.1zm13.2 0c.9-.2 1.7-.3 2.6-.5 0 1.6.1 3.6.1 5.2.9 0 1.7.1 2.3-.4.9-.7.8-2.6 1.3-3.7.7-1.1 2.1-1 3.2-1.2.1.7.3 1.3.4 2-.2 0-.7-.1-.9 0-1.4.6-.6 3-1.9 3.8-.1.1-.4.1-.5.2 1.3.9 1.5 2.6 2.1 4 .2.7 1 .8 1.6 1.1 0 0-.3 1.5-.5 1.9-1.1-.2-2.5 0-3.3-1-.9-1.2-.7-2.8-1.3-4.1-.5-.9-1.6-.6-2.5-.6V22h-2.6c-.2-4-.1-8.1-.1-12.1zM27.2 0H0v27.1h27.2V0zM13.1 22H8.3l5.7-8.4-5.7-8.4h4.9l5.7 8.4c-.1 0-5.8 8.4-5.8 8.4z"/>
	<path fill="#010101" d="M31.6 5.2h10.2c-.2.8-.3 1.6-.4 2.4h-6.9V12c1.9.1 3.9-.3 5.7.5 1.3.5 2.4 1.6 2.7 3 .4 1.7.3 3.7-1 5-1.1 1.1-2.7 1.5-4.2 1.5h-6.1V5.2zm2.8 9.1v5.4c1.3-.1 2.6.2 3.9-.2 1.8-.6 2.1-3.4.7-4.6-1.3-1-3-.6-4.6-.6zM46 9.9c.9-.1 1.8-.3 2.7-.5v4.9c1.5 0 3-.2 4.4.4 2.6 1.1 2.8 5.2.5 6.7-.6.4-1.5.6-2.3.6H46V9.9zm2.7 6.3v3.9c.9 0 1.8.1 2.6-.2 1.2-.5 1.2-2.2.5-3.1-.7-.9-2-.5-3.1-.6zm37.5-5.5c1.6-1.7 4.6-1.8 6.2-.2 1.4 1.5 1.7 3.7 1.7 5.7-.1 2-.6 4.2-2.3 5.4-1.6 1.1-3.9.9-5.5-.1.1 1.7 0 3.4.1 5.1-.7.2-1.3.4-2 .5h-.7V12.9c0-1-.1-2.1-.2-3.1.8-.1 1.7-.3 2.5-.4 0 .4.1.9.2 1.3zm.1 2.1V19c1 .8 2.6 1.5 3.7.5 1.3-1.2 1.1-3 1.1-4.6-.1-1.1-.2-2.5-1.3-3.1-1.2-.5-2.5.3-3.5 1zM57 9.9c.9-.2 1.8-.4 2.7-.5V22H57V9.9zm5.8 4.3c.3-2 1.7-4 3.7-4.5 1.7-.6 3.6-.2 5 1-.3.7-.8 1.3-1.3 1.9-.9-.6-2-1.3-3.1-.7-1.4.8-1.4 2.7-1.4 4.1 0 1.4 0 3.3 1.5 4 1.2.6 2.5-.2 3.4-1 .4.6.9 1.1 1.3 1.7-1.1.9-2.4 1.7-3.8 1.6-1.7.1-3.5-.6-4.4-2.1-1.1-1.8-1.2-4-.9-6zm9.6-4.5h9.5l-.3 2.1h-3.2V22h-2.7V11.7h-3.3v-2zm27 0c1.8-.6 3.9-.4 5.3.9 1.5 1.3 2 3.3 2.1 5.2 0 1.7-.3 3.6-1.5 4.9-2.1 2.4-6.4 2.2-8.2-.4-1.3-1.8-1.4-4.2-1-6.4.4-1.8 1.5-3.6 3.3-4.2zm1.1 1.9c-1.2.4-1.4 1.8-1.5 2.9 0 1.6-.2 3.3.5 4.8.6 1.2 2.5 1.4 3.4.4.5-.6.6-1.4.8-2.1.2-1.6.2-3.4-.4-4.9-.5-1.1-1.8-1.5-2.8-1.1z"/>
</svg>