<svg xmlns="http://www.w3.org/2000/svg" viewBox="0 0 180 43.9">
	<path fill="#de9031" d="M0 36.1h11.2l16-31h9.4V0H0v36.1z"/>
	<path fill="#1e6b01" d="M41.1 7.7H29.7l-16 31H4.6v5.2h36.5V7.7z"/>
	<path fill="#000" d="M58.2 15.5c.5-.5.9-1.5.9-2.6 0-1-.5-1.8-1.1-2.6-.7-.8-1.6-1-2.7-1H53V7.5h5.2V5.4h-7.3v11.1h4.6c1.1 0 2-.3 2.7-1zm-5.3-.8v-3.6H55c1.1 0 1.8.5 1.8 1.8s-.7 1.8-1.8 1.8h-2.1zm11.9-9.3l-4.3 11.4h2.3l.9-2.6H68l.9 2.6h2.3L66.8 5.4h-2zm-.5 7l1.6-3.9 1.4 3.9h-3zm15.5-2.6h-4.5V5.4h-2.1v11.4h2.1v-4.9h4.5v4.9h2.1V5.4h-2.1v4.4zm13.3-4.4h-2.5l-3.7 4.4V5.4h-2v11.4h2v-5.2l4.4 5.2h2.5l-5.1-6.2 4.4-5.2zM59.1 25H57v9.3h-4.1V25h-2v11.4h7.7v2.3h1.9v-4.4h-1.4V25zm5.7 6.5h4.3v-2.1h-4.3v-2.3H70V25h-7.3v11.4h7.6v-2.1h-5.5v-2.8zm14.6-2.1h-4.6V25h-2v11.4h2v-4.9h4.6v4.9h2V25h-2v4.4zm4.3-2.3h3.2v9.3H89v-9.3h3.2V25h-8.5v2.1zM98.8 25h-4.3v11.7h2.1v-4.4h2.3c1.1 0 1.8-.5 2.5-1 .7-.8.9-1.5.9-2.6 0-1-.2-2.1-.9-2.6-.6-.8-1.5-1.1-2.6-1.1zm0 4.9h-2.3v-2.6h2.3c.9 0 1.6.3 1.6 1.3 0 .8-.7 1.3-1.6 1.3zm10.5-5.1c-1.4 0-2.7.8-3.7 1.8-.9 1-1.4 2.6-1.4 4.1s.5 3.1 1.4 4.1c.9 1.3 2.1 1.8 3.7 1.8 1.4 0 2.5-.8 3.7-1.8 1.1-1 1.6-2.6 1.6-4.1s-.7-3.1-1.6-4.1c-1-1.3-2.1-1.8-3.7-1.8zm2.5 8.5c-.7.8-1.4 1-2.3 1s-1.6-.3-2.3-1c-.7-.5-.9-1.5-.9-2.6 0-1 .2-1.8.9-2.6s1.4-1 2.3-1 1.6.3 2.3 1c.7.5.9 1.5.9 2.6 0 1-.2 1.8-.9 2.6zm13.7-8.3H123l-3.7 4.4V25h-2v11.4h1.8v-5.2l4.3 5.2h2.8l-5.1-6.2 4.4-5.2zm7 0h-4.3v11.7h2.1v-4.4h2.3c1.1 0 1.8-.5 2.5-1 .7-.8.9-1.5.9-2.6 0-1-.2-2.1-.9-2.6-.5-.8-1.4-1.1-2.6-1.1zm0 4.9h-2.3v-2.6h2.3c.9 0 1.6.3 1.6 1.3 0 .8-.6 1.3-1.6 1.3zm7.8 1.6h4.3v-2.1h-4.3v-2.3h5.3V25h-7.3v11.4h7.7v-2.1h-5.7v-2.8zm16.2-6.5h-7.1v1.8c0 2.1 0 3.6-.2 4.6s-.5 2.1-.9 2.8h-.9v4.4h1.6v-2.3h6.8v2.3h2.1v-4.4h-1.4V25zm-1.8 9.3h-4.1c.9-2.1 1.1-4.4 1.1-7.2h3v7.2zm7.7-1.8V25h-2v11.4h1.6l5-7.5v7.5h2V25h-1.8l-4.8 7.5zm9.2-7.5v2.1h3.2v9.3h2v-9.3h3.2V25h-8.4z"/>
</svg>