<svg xmlns="http://www.w3.org/2000/svg" viewBox="0 0 183 37">
	<path fill="#231f20" d="M57.9 5.3 53 16.8h2.4l1-2.3H61l1 2.3h2.3L59.6 5.3h-1.7zm2.4 7.3h-3.2l1.6-4.1 1.6 4.1zM51.1 15.4c.4-.6.7-1.3.7-2 0-1-.4-1.9-1.1-2.5-.9-.7-2-.9-2.8-.9h-3.1V7.5h5.8V5.6h-7.9v11.2H48c.8 0 2.2-.2 3.1-1.4zm-6.3-.5v-3h2.6c1.7 0 2 .8 2 1.5s-.4 1.5-2.1 1.5h-2.5zM68.6 11.8h4.8v5h2.2V5.6h-2.2v4.3h-4.8V5.6h-2.2v11.2h2.2zM80 12.7l.9-.8 3.4 4.9h2.9l-4.6-6.5L87 5.6h-2.6L80 10.3V5.6h-2.2v11.1H80zM106.9 23.7c-3.5 0-6 2.5-6 5.9 0 3.4 2.4 5.9 6 5.9 3.5 0 6-2.5 6-5.9 0-3.5-2.5-5.9-6-5.9zm0 9.7c-2.2 0-3.7-1.6-3.7-3.8 0-2.2 1.5-3.8 3.7-3.8s3.7 1.6 3.7 3.8c0 2.2-1.6 3.8-3.7 3.8zM123.6 23.9h-2.5l-4.4 4.8v-4.8h-2.2V35h2.2v-3.9l.9-.8 3.3 4.8h2.9l-4.6-6.4zM51.7 23.9h-2.2v9.3h-4.7v-9.3h-2.2v11.2h8.5V37h2v-3.8h-1.4zM57.6 30.2h5.6v-1.9h-5.6v-2.5h6.3v-1.9h-8.5v11.2h8.5v-1.9h-6.3zM137.2 35.1h8.5v-1.9h-6.3v-3h5.6v-1.9h-5.6v-2.5h6.3v-1.9h-8.5zM74 28.3h-4.8v-4.4H67v11.2h2.2v-5H74v5h2.2V23.9H74zM78.5 25.8h3.6v9.3h2.2v-9.3h3.5v-1.9h-9.3zM173.2 23.9v1.9h3.6v9.3h2.2v-9.3h3.5v-1.9zM95.4 23.9h-5v11.2h2.2V31h3.1c1.3 0 2.2-.4 2.8-1 .9-.8 1-2 1-2.5 0-.8-.3-1.9-1.2-2.7-.8-.7-1.7-.9-2.9-.9zm1.2 4.8c-.5.4-1 .4-1.5.4h-2.6v-3.3H95c.5 0 1.1.1 1.5.4.4.3.7.7.7 1.3 0 .4-.2.9-.6 1.2zM134.1 24.8c-.9-.7-1.8-.9-3-.9h-5v11.2h2.2V31h3.1c1.3 0 2.2-.4 2.8-1 .9-.8.9-2 .9-2.5.2-.8 0-1.9-1-2.7zm-1.7 3.9c-.5.4-1 .4-1.5.4h-2.6v-3.3h2.5c.5 0 1.1.1 1.5.4.4.3.7.7.7 1.3 0 .4-.2.9-.6 1.2zM157.7 23.9h-8.1v4.8c0 1.6-.2 2.4-.4 3-.4.9-1 1.5-1.8 1.5V37h2v-1.9h7.4V37h2v-3.8h-1.2v-9.3zm-2.1 9.3h-5.1c.3-.3.7-.7.9-1.3.2-.5.4-1.4.4-3.1h.1v-3h3.8v7.4zM163.1 31.5v-7.6h-2.2v11.4h1.6l6.2-7.7v7.6h2.2V23.7h-1.6z"/>
	<path fill="#f6921e" d="M0 0v32.5h12.4L26 6.3h6.7V0H0zm30.7 4.3h-5.9L11.2 30.5H2V2h28.6v2.3z"/>
	<path fill="#009345" d="M24.7 4.3 11.2 30.5H4.5v6.4h32.6V4.3H24.7zm10.4 30.5H6.5v-2.4h6L25.9 6.3h9.2v28.5z"/>
</svg>