<svg xmlns="http://www.w3.org/2000/svg" viewBox="0 0 160 33.5">
	<g fill="#50b848">
		<path d="M14.2 0v7.6L20.4 0h-6.2zM.9 3.6c.4-.7.9-1.2 1.5-1.7l.6-.4c.4-.2.8-.4 1.3-.5.3-.1.6-.1.9-.1.4 0 .8.1 1.2.2.4 0 .6.2.9.3.6.3 1.1.7 1.6 1.3l.4.5c.5.8.9 1.5 1.1 2.4l.1.6v.3V0H0v6.5c.1-.7.3-1.7.7-2.3 0-.1.2-.6.2-.6zM24.8 1L14.2 14v2.7l.1-.6c.3-.9.6-1.7 1.1-2.4l.4-.5c.4-.4.8-.8 1.3-1.1.3-.1.5-.3.8-.4.6-.2 1.2-.3 1.8-.3l.6.1c.5.1.9.3 1.4.5.3.2.5.3.7.5.7.6 1.2 1.3 1.6 2.1l.2.6c.2.5.3 1.3.4 1.8.2 0 .2-16 .2-16z"/>
		<path d="M19.5 22.6c-1.5 0-2.7-1.9-2.7-4.2 0-2.3 1.2-4.2 2.7-4.2 1.5 0 2.7 1.9 2.7 4.2 0 2.2-1.2 4.2-2.7 4.2zm0-9.6c-2.1 0-3.8 2.4-3.8 5.3s1.7 5.3 3.8 5.3c2.1 0 3.8-2.4 3.8-5.3.1-2.9-1.7-5.3-3.8-5.3z"/>
		<path d="M14.4 20.5l-.1-.6v-.3 6.5h10.6v-6.4c-.1.7-.3 1.6-.7 2.3l-.3.5c-.4.7-.9 1.2-1.5 1.7l-.5.3c-.5.3-.9.4-1.4.5-.3.1-.6.1-.9.1-.4 0-.8-.1-1.2-.2-.3-.1-.6-.2-.8-.3-.6-.3-1.1-.7-1.6-1.3l-.5-.3c-.5-.8-.8-1.6-1.1-2.5zM10.6 9.1v.3l-.2.6c-.3.9-.6 1.7-1.1 2.4l-.4.5c-.4.4-.8.8-1.3 1.1-.3.1-.5.3-.8.4-.6.2-1.2.3-1.8.2l-.6-.1c-.6 0-1-.2-1.4-.5-.3-.2-.5-.3-.7-.5-.7-.6-1.2-1.3-1.6-2.1-.4-.7-.6-1.5-.7-2.3V25l10.6-13V9.1z"/>
		<path d="M5.3 12c-1.5 0-2.7-1.9-2.7-4.2 0-2.3 1.2-4.2 2.7-4.2C6.8 3.5 8 5.4 8 7.8 8 10.1 6.8 12 5.3 12zm0-9.6c-2.1 0-3.8 2.4-3.8 5.3S3.2 13 5.3 13c2.1 0 3.8-2.4 3.8-5.3S7.4 2.4 5.3 2.4zm5.3 16.1l-6.2 7.6h6.2v-7.6zM24.5 0h-3L.3 26.1h2.9L24.5 0zM13.3 24.3h-1.8v1.8h1.8v-1.8z"/>
		<path d="M25.7 24.3v1.8c1.2 0 2.2 1 2.2 2.2 0 1.2-1 2.2-2.2 2.2-.9 0-1.7-.2-3.5-.6-3.4-.8-7.5-1.8-10.8-2.6-5.9-1.5-11.4.2-11.4 4h1.8c0-1.4 2.8-2.4 8.7-.9 5.2 1.3 7.1 1.7 11 2.7 2.6.6 4.7.5 6.2-.2s2.5-2.3 2.5-4c.1-2.6-2-4.6-4.5-4.6zm67.8-4.7h-5.3v2.5h5.3v-2.5zm23-1.6h-5v-4.9h-2.8v13h2.8v-5.7h5v5.7h2.8v-13h-2.8V18zm-18.7 3.3v-8.2H95v13h2.2l6.6-8.2v8.2h2.8v-13h-2.2l-6.6 8.2zm49.6-8.5c-1.8 0-3.5.5-4.8 1.7-1.1 1-2.1 2.7-2.1 5.1 0 1.9.6 3.5 2.1 5 1.1 1 2.5 1.8 4.8 1.8 1.4 0 2.4-.4 3.2-.8h.1v-3.5l-.3.4c-.7.8-1.7 1.3-2.8 1.3-1 0-2.1-.4-2.8-1.1-.8-.7-1.3-1.7-1.3-3.1 0-1.1.4-2.2 1.1-3 .7-.8 1.7-1.3 2.9-1.3.4 0 1.8.1 2.9 1.4l.3.3v-3.5h-.1c-1.2-.6-2.3-.7-3.2-.7zM84 18.6c-.5.4-1 .4-1.5.4h-.8v-3.4h.7c.6 0 1.2 0 1.6.4.3.2.6.7.6 1.3 0 .4-.2.9-.6 1.3zm2.2-4.5c-.5-.4-1-.7-1.6-.8-.6-.1-1.2-.2-1.9-.2h-3.9v13h2.8v-4.7H83c1.5 0 2.6-.4 3.3-1.2 1-1 1.1-2.4 1.1-3 .1-.9-.2-2.2-1.2-3.1zm65.3-1v2.5h2.9v10.6h2.8V15.5h2.9V13h-8.6zm-103.3 13h7.4v-2.5H51v-3.1h4.4V18H51v-2.5h4.6V13h-7.4v13.1zm79.2-3.3c-.1.2-.3.4-.6.6-.5.3-1.2.3-1.6.3h-.9v-3.2h.7c.5 0 1.1 0 1.6.2.4.2.6.4.7.6.1.2.1.5.1.7.2.3.1.6 0 .8zm-3-7.4h.6c.5 0 .9.1 1.2.3.3.2.5.6.5 1.1 0 .4-.1.6-.2.8-.2.3-.5.5-.8.5-.3.1-.6.1-.7.1h-.5l-.1-2.8zm3.8 3.7c.2-.1.4-.3.5-.5.3-.4.6-1 .6-1.9 0-1.1-.5-2.2-1.2-2.8-1.1-.8-2.5-.8-3.2-.8h-3.3v13h4.4c1.1 0 2.3-.2 3.3-1.1.9-.8 1.1-1.9 1.1-2.7 0-.7-.2-1.7-1-2.5-.2-.2-.6-.6-1.2-.7zm3.8 7h7.4v-2.5h-4.6v-3.1h4.4V18h-4.4v-2.5h4.6V13H132v13.1zm-86.5-13h-2.8v10.6H38V13.1h-2.8v13h9.2V29H47v-5.3h-1.5V13.1zM65.3 18h-5v-4.9h-2.8v13h2.8v-5.7h5v5.7h2.8v-13h-2.8V18zm3.9-2.5h2.9v10.6h2.8V15.5h2.9V13h-8.5l-.1 2.5zM59.9 3.9H56V0h-2.3v10.4H56V6h3.9v4.5h2.3V0h-2.3v3.9zM46.6 6.4l1.2-3 1.2 3h-2.4zm.2-6.4l-4.4 10.4h2.5l.9-2.1h3.8l.9 2.1H53L48.7 0h-1.9zm21.5 4.9L72.7 0h-2.9l-3.4 4V0H64v10.4h2.3V6.1l3.5 4.4h3l-4.5-5.6zM39.7 8c-.2.2-.6.4-1.4.4h-.8V6.1h.8c.7 0 1.1.2 1.4.4.2.2.3.5.3.8 0 .2-.1.5-.3.7zm1.7-3.1c-.9-.8-1.9-.9-2.7-.9h-1.2V2h3.9V0h-6.2v10.4h3.5c.4 0 1 0 1.5-.2s1.1-.5 1.5-1.1c.4-.5.6-1.2.6-1.9.1-.9-.3-1.8-.9-2.3z"/>
	</g>
</svg>