<svg xmlns="http://www.w3.org/2000/svg" viewBox="0 0 150 28.4">
	<path fill="#3a913f" d="M130.3 0c.9.3 1.4 1 2 1.7 2.2 2.7 4.4 5.5 6.6 8.3l.2.2 2.4-3c1.6-2.1 3.3-4.2 4.9-6.2.6-.7 1.5-1 2.3-.7.8.3 1.3 1 1.3 2v16.8c0 1-.8 1.8-1.9 2-.9.1-1.9-.6-2.1-1.5-.1-.2-.1-.5-.1-.8V8.3h-.1c-.4.5-.9 1.1-1.3 1.6-1.3 1.6-2.6 3.2-3.8 4.8-.9 1.2-2.4 1.2-3.3 0-1.7-2.2-3.5-4.4-5.2-6.6 0-.1-.1-.1-.2-.2v11.2c0 1.1-.7 1.9-1.8 2.1-.9.1-1.9-.5-2.2-1.5-.1-.2-.1-.5-.1-.7V2.2c0-1.1.5-1.8 1.6-2.1 0 0 .1 0 .1-.1h.7zM69.8 0c.6.1 1.2.2 1.8.4 3.7 1.2 6.3 3.5 7.3 7.3.2.9.3 1.8.2 2.7-.2 1.2-1.3 2.3-2.7 2.3H62.6c.2 1.2.7 2.2 1.5 3 2 2.1 4.5 2.5 7.2 1.8.9-.2 1.8-.7 2.7-1.1.7-.3 1.4-.5 2.1 0 1.2.7 1.2 2.5-.1 3.3-1.4.9-3 1.4-4.7 1.7-2.3.4-4.5.2-6.6-.7-3.6-1.6-5.7-4.3-6.3-8.1-.8-5 2-9.9 6.7-11.7.9-.5 1.9-.6 2.8-.8.1 0 .1 0 .2-.1h1.7zm5.4 8.9C75 6 71.5 3.4 68.3 3.7c-2.8.3-5.9 3.1-5.6 5.2h12.5zM32.2 0c.5.1 1 .2 1.6.3 3.6 1 6.1 3.1 7.3 6.7.4 1.1.6 2.2.4 3.4-.2 1.1-1.3 2.2-2.7 2.2H25c.2 1.2.7 2.2 1.5 3 2 2.1 4.5 2.5 7.2 1.8.9-.2 1.8-.7 2.7-1.1.5-.2 1-.4 1.6-.3.8.2 1.3.7 1.5 1.6.1.7-.2 1.6-1 2-.8.4-1.6.8-2.4 1.1-2.8 1-5.6 1.2-8.4.1-3.9-1.4-6.3-4.3-6.9-8.5-.7-4.6 1.5-8.9 5.6-11.1 1.2-.6 2.5-1 3.9-1.2.1 0 .1 0 .2-.1.5.1 1.1.1 1.7.1zm5.3 8.9c.1-2.3-3.2-5.2-6.1-5.2-3.6-.1-6.2 2.7-6.5 5.2h12.6zM115.6 0l1.5.3c3.7 1.1 6.4 3.3 7.5 7.1.2.8.3 1.6.3 2.5 0 1.4-1.2 2.7-2.8 2.7h-13.8v.3c.7 2.5 2.4 4 4.9 4.6 2.2.5 4.2 0 6.2-1 .4-.2.9-.4 1.3-.5.9-.1 1.7.4 2 1.3.3.9-.1 1.8-.9 2.3-1.5.9-3 1.4-4.7 1.7-2.4.4-4.7.2-6.9-.8-3.4-1.6-5.4-4.2-6-7.9-.6-3.7.4-6.9 3.1-9.5 1.8-1.7 3.9-2.7 6.4-3 .1 0 .1 0 .2-.1h1.7zm5.4 8.9c-.3-2.9-3.7-5.5-6.9-5.2-2.8.2-5.8 3-5.7 5.2H121zM99.4 0c.8.2 1.4.7 1.6 1.5.1.2.1.5.1.8v16.6c0 1.2-.6 2-1.7 2.2-1.1.2-2.3-.7-2.4-1.8V4.1h-8.2V13c0 4.1-2.8 7.4-6.9 8-.5.1-1 .1-1.4.1-1.1-.1-1.8-1.1-1.8-2.1.1-1.1.9-1.9 2.1-1.9 1.9 0 3.4-1.2 3.8-3 .1-.3.1-.7.1-1V2.3c0-1.2.5-1.8 1.6-2.2V0h13.1zM11.6 0c.6.1 1.3.2 1.9.4 1.9.5 3.5 1.4 4.8 2.8.8.8.8 2 0 2.8-.7.8-1.9.9-2.7.2-.3-.2-.5-.5-.8-.7-2-1.5-4.2-1.9-6.5-1-2.3 1-3.7 2.8-4 5.3-.5 3.7 1.9 6.9 5.6 7.5 2.1.3 3.9-.3 5.5-1.8 1.1-1 2.8-.8 3.4.6.4.8.2 1.7-.4 2.3-2.4 2.3-5.2 3.4-8.6 3.1-4.6-.4-8.3-3.6-9.4-8.1l-.3-1.8c0-.1 0-.2-.1-.3v-1c0-.3.1-.7.1-1C.7 5 3.8 1.4 8 .4 8.6.2 9.2.1 9.9 0h1.7zM2.9 28.4c-.1 0-.1-.1-.2-.1-1-.3-1.5-1.1-1.4-2.1.1-.9.9-1.6 1.9-1.6H17.3c.8 0 1.5.3 1.8 1.1.3.7.3 1.5-.3 2-.3.3-.7.4-1.1.7H2.9zM47.8 4.2h-5C41.7 4 41 3.1 41.1 2c.1-1.1 1-1.9 2-1.9h13.4c1.2 0 2.1.9 2.1 2s-.9 2-2.1 2h-4.7V19c0 .9-.4 1.5-1.2 1.9-.8.4-1.5.2-2.2-.3-.5-.4-.7-1-.7-1.6V4.7c.1-.2.1-.3.1-.5z"/>
</svg>