<svg xmlns="http://www.w3.org/2000/svg" viewBox="0 0 140 47.4">
	<path fill="#f27007" d="M33 .9c-1.6.3-3 2-2.6 3.9-4.4-1.5-10-1.3-14-.5-.9.2-1.7.4-2.4.6-.2.1-.2.3 0 .3 6 1.4 8.3 4.5 13 5.2-3.3 4.7-3.2 10.5-2.8 11.9.1.3 1.6 2.4 2.6 3.2.1.1.2.1.4.1s.3-.2.3-.4c-.1-5.4.5-8.9 2.2-9.6 1.1-.4 1.6-.5 1.9-.6 4.6-1.4 4.2-7 4.1-9-.1-3.3 1.5-4.1 2.9-4.4L45.2.3c.6-.1.9 0 1.1-.1 0-.2-.2-.3-.7-.3h-.5l-6.9 1.3c-.9.2-1.7.2-1.9.2-.2 0-1.9-.8-3.3-.5z"/>
	<path fill="#686867" d="M140 45.7h-.7v-1.9h-.9l-1 1.9h-.8l1.1-1.9c-.4-.1-1-.5-1-1.2 0-.8.6-1.3 1.6-1.3h1.9v4.4zm-.7-3.8h-1.2c-.5 0-.8.2-.8.7 0 .5.3.7.8.7h1.2v-1.4zm-6.6-.7h-.7v4.4h.8l2.2-3.3v3.3h.7v-4.4h-.8l-2.2 3.3v-3.3zm-4.6 0h-.7v4.4h.7v-2h2.1v2h.7v-4.4h-.7V43h-2.1v-1.8zm-5.4 1.4c0-1.1.7-1.5 1.8-1.5.4 0 1.6.1 1.6 1.2v2.5c0 .2.1.3.2.3h.2v.5c-.1 0-.2.1-.4.1-.7 0-.7-.3-.8-.7-.3.3-.7.7-1.6.7-.8 0-1.4-.5-1.4-1.3 0-.5.1-1.3 1.7-1.4 1.2-.1 1.2-.2 1.2-.6 0-.5-.3-.7-1-.7-.8 0-1 .5-1 .9h-.5zm2.7.8c-.1.1-.3.2-1.2.3-.4.1-.9.2-.9.7 0 .5.3.8.8.8.7 0 1.4-.4 1.4-1-.1-.1-.1-.8-.1-.8zm-7.3-2.2h2c1 0 1.4.5 1.4 1.1 0 .5-.4.8-.7 1 .5.1 1 .4 1 1.2 0 .7-.6 1.2-1.6 1.2h-2.1v-4.5zm.8 1.9h1.1c.6 0 .9-.2.9-.7 0-.4-.2-.5-.9-.5h-1.1v1.2zm0 2h1.3c.6 0 .9-.2.9-.7 0-.5-.4-.7-1-.7h-1.2v1.4zm-3.6-4c1.4 0 2 1.2 2 2.3 0 1.1-.6 2.3-2 2.3s-2-1.2-2-2.3c-.1-1.1.6-2.3 2-2.3zm0 4.1c1.1 0 1.3-1.1 1.3-1.7 0-.6-.2-1.7-1.3-1.7s-1.3 1.1-1.3 1.7c0 .6.2 1.7 1.3 1.7zm-6.5-4h.7v.6c.2-.4.6-.8 1.3-.8 1.2 0 1.8 1 1.8 2.2 0 1.1-.4 2.5-1.9 2.5-.6 0-1-.3-1.2-.6v2.3h-.7v-6.2zm.7 2.3c0 1 .4 1.7 1.2 1.7.5 0 1.2-.3 1.2-1.5 0-.7-.1-1.9-1.1-1.9-1.2 0-1.3 1.1-1.3 1.7zm-4.7-2.3h-.8v4.4h.8l2.2-3.3v3.3h.7v-4.4h-.8l-2.2 3.3c.1.1.1-3.3.1-3.3zm-1.5 1.5c-.1-.8-.5-1.6-1.6-1.6-1.4 0-2.1 1.1-2.1 2.5 0 1.3.7 2.2 2 2.2s1.7-1 1.8-1.7h-.7c-.1.7-.6 1-1 1-1 0-1.2-.9-1.2-1.7 0-.8.3-1.7 1.2-1.7.6 0 .9.4 1 .9l.6.1zm-7.4-1.5h-.7v4.4h.7v-2H98v2h.7v-4.4H98V43h-2.1v-1.8zm-5.4 1.4c0-1.1.7-1.5 1.8-1.5.3 0 1.6.1 1.6 1.2v2.5c0 .2.1.3.2.3h.2v.5c-.1 0-.2.1-.4.1-.7 0-.7-.3-.8-.7-.3.3-.7.7-1.6.7-.8 0-1.4-.5-1.4-1.3 0-.5.1-1.3 1.7-1.4 1.2-.1 1.2-.2 1.2-.6 0-.5-.3-.7-1-.7-.8 0-1 .5-1 .9h-.5zm2.7.8c-.1.1-.3.2-1.2.3-.4.1-1 .2-1 .7 0 .5.3.8.8.8.7 0 1.4-.4 1.4-1v-.8zm-6.6-2.2h-.7v4.4h.7v-2h2.1v2h.7v-4.4h-.7V43h-2.1v-1.8zm-4.7 0h-.7v4.4h.8l2.2-3.3v3.3h.7v-4.4H84l-2.2 3.3c.1.1.1-3.3.1-3.3zm-4.4-1c1.9 0 2.8 1.2 2.8 2.4s-.9 2.4-2.8 2.4v.6h-.8V45c-1.9 0-2.8-1.2-2.8-2.4s.9-2.4 2.8-2.4v-.6h.8v.6zm-.8 4.2v-3.5c-1.1 0-2 .5-2 1.8 0 1.2.9 1.7 2 1.7zm.8-3.5v3.5c1.1 0 2-.5 2-1.8 0-1.2-.9-1.7-2-1.7zm57.8-8.9c1.4 0 2 1.2 2 2.3 0 1.1-.6 2.3-2 2.3s-2-1.2-2-2.3c-.1-1.1.6-2.3 2-2.3zm0 4c1.1 0 1.3-1.1 1.3-1.7 0-.6-.2-1.7-1.3-1.7s-1.3 1.1-1.3 1.7c0 .6.2 1.7 1.3 1.7zm-5.3-3.9v4.4h.7v-3.8h2.1v-.6H130zm-2.9-.1c1.4 0 2 1.2 2 2.3 0 1.1-.6 2.3-2 2.3s-2-1.2-2-2.3c0-1.1.6-2.3 2-2.3zm0 4c1.1 0 1.3-1.1 1.3-1.7 0-.6-.2-1.7-1.3-1.7s-1.3 1.1-1.3 1.7c0 .6.3 1.7 1.3 1.7zm-5.7-3.9h-.7v4.4h.7v-2h2.1v2h.7v-4.4h-.7v1.8h-2.1v-1.8zm-5.2 0h2c1 0 1.4.5 1.4 1.1 0 .5-.4.8-.7 1 .5.1 1 .4 1 1.2 0 .7-.6 1.2-1.6 1.2h-2.1v-4.5zm.7 1.8h1.1c.6 0 .9-.2.9-.7 0-.4-.2-.5-.9-.5h-1.1v1.2zm0 2h1.3c.6 0 .9-.2.9-.7 0-.5-.4-.7-1-.7h-1.2v1.4zm-4.8-3.8h-.7v4.4h.8l2.2-3.3v3.3h.7v-4.4h-.8l-2.2 3.3v-3.3zm-5 0v.6h1.4v3.8h.7v-3.8h1.4v-.6h-3.5zm-4.2 1.3c0-1.1.7-1.5 1.8-1.5.3 0 1.6.1 1.6 1.2v2.5c0 .2.1.3.2.3h.2v.5c-.1 0-.2.1-.4.1-.7 0-.8-.3-.8-.7-.3.3-.7.7-1.6.7-.8 0-1.4-.5-1.4-1.3 0-.5.1-1.3 1.7-1.4 1.2-.1 1.2-.2 1.2-.6 0-.5-.3-.7-1-.7-.8 0-1 .5-1 .9h-.5zm2.7.9c-.1.1-.3.2-1.2.3-.4.1-.9.2-.9.7 0 .5.3.8.8.8.7 0 1.4-.4 1.4-1v-.8zm-7.3-2.2h.7v.6c.2-.4.6-.8 1.3-.8 1.2 0 1.8 1 1.8 2.2 0 1.1-.4 2.5-1.9 2.5-.6 0-1-.3-1.2-.6v2.3h-.7v-6.2zm.7 2.2c0 1 .4 1.7 1.2 1.7.5 0 1.2-.3 1.2-1.5 0-.7-.1-1.9-1.1-1.9-1.2 0-1.3 1.1-1.3 1.7zM95.4 32c1.4 0 2 1.2 2 2.3 0 1.1-.6 2.3-2 2.3s-2-1.2-2-2.3c0-1.1.6-2.3 2-2.3zm0 4c1.1 0 1.3-1.1 1.3-1.7 0-.6-.2-1.7-1.3-1.7s-1.3 1.1-1.3 1.7c0 .6.2 1.7 1.3 1.7zM89 32.1v4.4h.7v-3.8h2.1v3.8h.7v-4.4H89zm-4.7 0h.7v.6c.2-.4.6-.8 1.3-.8 1.2 0 1.8 1 1.8 2.2 0 1.1-.4 2.5-1.9 2.5-.6 0-1-.3-1.2-.6v2.3h-.7v-6.2zm.7 2.2c0 1 .4 1.7 1.2 1.7.5 0 1.2-.3 1.2-1.5 0-.7-.1-1.9-1.1-1.9-1.2 0-1.3 1.1-1.3 1.7zM81.4 32c1.4 0 2 1.2 2 2.3 0 1.1-.6 2.3-2 2.3s-2-1.2-2-2.3c0-1.1.6-2.3 2-2.3zm0 4c1.1 0 1.3-1.1 1.3-1.7 0-.6-.2-1.7-1.3-1.7s-1.3 1.1-1.3 1.7c0 .6.3 1.7 1.3 1.7zM75 30.4h-.8v6.1h.8v-2.1l.9-.9 2.1 3.1h1.1L76.5 33l2.5-2.5h-1l-3 2.9v-3zm14.5-7.5h-.7v4.4h.7v-1.7l.6-.6 1.4 2.3h.9l-1.8-2.8 1.7-1.6h-.9l-1.9 1.9v-1.9zm-4.5 0h-.7v4.4h.7v-2h2v2h.7v-4.4H87v1.8h-2v-1.8zm-5.4 1.4c0-1.1.7-1.5 1.8-1.5.3 0 1.6.1 1.6 1.2v2.5c0 .2.1.3.2.3h.2v.5c-.1 0-.2.1-.4.1-.7 0-.7-.3-.8-.7-.3.3-.7.7-1.6.7-.8 0-1.4-.5-1.4-1.3 0-.5.1-1.3 1.7-1.4 1.2-.1 1.2-.2 1.2-.6 0-.5-.3-.7-1-.7-.8 0-1 .5-1 .9h-.5zm2.7.8c-.1.1-.3.2-1.2.3-.4 0-.9.2-.9.7 0 .5.3.8.8.8.7 0 1.4-.4 1.4-1v-.8zm-3.8-3.8v.7H75v1.8h2c1.3 0 1.8 1 1.8 1.9 0 1-.7 1.7-1.8 1.7h-2.8v-6.1h4.3zM75 26.6h1.8c.7 0 1.2-.2 1.2-1s-.5-1.1-1.2-1.1H75v2.1zm-31.4-5.4h-5.4L27.4 32.3v-6.2c-.2.1-.4.2-.6.2h-.2c-.3 0-.6-.1-.8-.3-.9-.9-2.2-2.5-2.7-3.3v22.9h4.2v-8.2l3.5-3.5 8 11.8h5.3L33.8 30.9l9.8-9.7zm14 6.1v12c3.7-.4 6.2-1.9 6.2-5.9 0-4.1-2.5-5.8-6.2-6.1zm-4.3 0c-3.7.4-6.2 2.1-6.2 6.1 0 4 2.5 5.4 6.2 5.9v-12zm4.3 15.6v2.8h-4.3v-2.8c-5.2-.1-10.5-3.2-10.5-9.6 0-6.2 4.9-9.6 10.5-9.8v-2.4h4.3v2.4c5.7.2 10.5 3.6 10.5 9.8 0 6.4-5.2 9.5-10.5 9.6zM11.3 34h-7v8.1h7.1c2.8 0 4.2-1.3 4.2-4 0-2.5-1.6-4.1-4.3-4.1zm.3 11.7H0V21.2h17.9v3.7H4.3v5.7h7.3c5.3 0 8.3 2.7 8.3 7.6 0 4.7-3 7.5-8.3 7.5z"/>
</svg>