<svg xmlns="http://www.w3.org/2000/svg" viewBox="0 0 160 28">
	<path fill="#1f487f" d="M40.4 11.9h-5V7.1h-4.3v13.8h4.3v-5.5h5v5.5h4.5V7.1h-4.5zM47.2 7.1h4.3v13.8h-4.3zM56.4 14.1c-.1-.2 0-.5.1-.7.1-.2 1.2-1.6 2.5-3.2 1.3-1.5 2.6-3.1 2.6-3.1h-5.2l-1.8 2.5c-2.2 3.1-2.5 3.5-2.5 4.2 0 .7.2 1 2.9 4.5l2 2.6h5.3l-2.9-3.2c-1.5-1.7-2.9-3.3-3-3.6zM109 12.1l-2.3-.1c-1.9 0-2.4-.1-2.5-.3-.1-.1-.2-1.2-.2-2.5V7h-4.5l.1 3c0 2.6.1 3 .4 3.7.7 1.5 1.6 1.8 6.1 1.8h3V21h4.3V7H109v5.1zM137 7.1c-3.5 0-4.6.1-5 .2-.3.1-.7.5-.9.8-.3.5-.3.8-.3 6.7V21h4.3v-4l3.5-.1c3.7-.1 4.2-.2 5-1 .7-.8.9-1.7 1-4.1 0-2 0-2.3-.4-3-.9-1.5-1.5-1.7-7.2-1.7zm2.6 6.3c-.2.1-1.2.2-2.4.2h-2.1v-2.8s4.2-.3 4.6.1c.2.1.4.5.5.7.1.6-.2 1.6-.6 1.8zM158.2 7.5c-.5-.3-1.2-.3-5.4-.3-3.8 0-4.9 0-5.3.2-.3.1-.6.4-.8.6-.3.4-.3.6-.4 6.8v6.4h4.3v-4l3.5-.1c3.7-.1 4.2-.2 5-1 .6-.6.9-1.7 1-3.4 0-2.7-.6-4.5-1.9-5.2zm-3.2 5.9c-.2.1-1.2.2-2.4.2h-2.1v-2.8s4.2-.3 4.6 0c.7.5.6 2.3-.1 2.6zM25 8c-.6-.8-2.8-1.3-4.2-.9-1.3.4-1.1.2-3.7 6.4-1.1 2.6-2.1 5.2-2.4 5.9-.3.7-.5 1.4-.5 1.4l4.5.1 1-2.7h5l1.1 2.8h4.6c-1-2.3-1.9-4.6-2.9-6.9-1.2-3.2-2.3-5.9-2.5-6.1zm-4.2 6.9 1.5-3.7 1.3 3.7h-2.8zM8.1 12.4H4.5v-.9c0-.8 0-.9.4-1 .2-.1 2.1-.1 4.2-.1H13V7.1H7.2c-5.4 0-5.8 0-6.3.3-.4.3-.6.6-.7 1-.1.4-.2 2.7-.2 5.8 0 5.8.1 6.1 1.1 6.5.5.2 1.6.2 5.4.2 4.6 0 4.9 0 5.6-.3.5-.2.9-.6 1.2-1.1.4-.7.5-.9.5-2.9 0-1.9 0-2.1-.4-2.8-.8-1.3-1.1-1.4-5.3-1.4zm-1 5.1c-2.5.1-2.6 0-2.6-1.2v-1h2c1.2 0 2.1.1 2.4.2.3.2.4.4.5.8 0 1-.3 1.2-2.3 1.2zM123.3 12.4h-3.5v-1.7l8.5-.1V7.1h-5.7c-4.7 0-5.8 0-6.2.3-1 .5-1 .5-1 6.5-.1 6.3 0 6.5 1.1 7 .5.2 1.4.2 5.6.2 4.8 0 5-.1 5.6-.4.3-.2.8-.7 1-1.1.4-.7.4-.9.4-2.9s0-2.2-.4-2.9c-.8-1.2-1.3-1.4-5.4-1.4zm-1.3 5.2h-2.1l-.1-2.1h2c.9 0 2.8-.3 2.8 1.1 0 .9-.3 1-2.6 1z"/>
	<g fill="#02ac5d">
		<path d="M79.7 0c-7.6 0-13.8 6.2-13.8 13.8 0 7.6 6.2 13.8 13.8 13.8 7.6 0 13.8-6.2 13.8-13.8C93.5 6.2 87.4 0 79.7 0zm0 27.2c-7.4 0-13.3-6-13.3-13.3 0-7.4 6-13.3 13.3-13.3C87.1.6 93 6.6 93 13.9c0 7.3-5.9 13.3-13.3 13.3z"/>
		<path d="M85.9 12.7c-1.9-.2-2-.2-1.6-.5.8-.6 2.1-1.8 2.6-2.7.3-.5.3-.6.1-1-.4-.7-.9-.9-1.4-1-.3-.1-.7-.2-1-.4-.3-.2-.6-.5-.8-.8-.4-.5-.8-.9-1.5-1-1.1 0-1.6 1.4-2 2.3 0 .1-.1.2-.1.2-.3.7-.5 1.2-.6 1.2-.1 0-.4-.7-.7-1.5-.3-.7-.7-1.5-1.1-2-.7-1-2.1.1-2.5.7-.5.6-.8.7-1.3.9-.4.1-.9.3-1.5.8-.5.4-.6.9-.4 1.4.4 1 2.2 2.5 2.8 2.9.2.1-.2.2-1.3.3-2 .2-2.7.3-3.1.9-.4.6-.4 1.2.3 2.1.3.5.5 1 .6 1.9.1 1.6.4 2.1 1.3 2.1 2.5 0 5.3-2.6 6.6-4.6l.1.8c.1.5.3 1.3.6 1.9.6 1.4.6 2.4-.1 3.6-.5.8-.5.9-.2 1.1.3.3.3.2.8-.7.7-1.5.8-2.5-.2-4.2-.7-1.2-.7-2.4-.7-2.4s.1 0 .5.8c1 1.8 3 2.9 5.9 3.8 1.1.3 1.4-1.4 1.5-2.1.1-1 .2-1.4.5-1.7.5-.6.7-1.5.6-2 0-.6-.7-.9-2.7-1.1z"/>
	</g>
</svg>