<svg viewBox="0 0 200 23" xmlns="http://www.w3.org/2000/svg">
	<path fill="#C5AF62" d="M0 0h22.4719v22.4719H0V0Zm26.4043 20.7861H200v1.6854H26.4043v-1.6854Z"/>
	<path fill="#fff" d="M13.3843 1.84573v9.03147c0 .6635.5382 1.2017 1.2017 1.2017s1.2017-.5382 1.2017-1.2017V5.77494c1.5287 1.29551 2.4994 3.22978 2.4994 5.39106 0 3.9022-3.1634 7.0657-7.0657 7.0657-3.90223 0-7.06571-3.1641-7.06571-7.0663 0-2.11518.93034-4.01181 2.40337-5.30563v5.01743c0 .6635.5382 1.2017 1.20168 1.2017.66349 0 1.20169-.5382 1.20169-1.2017V1.86932C4.76973 2.88449 1.65625 6.6609 1.65625 11.1654c0 5.2826 4.28258 9.5652 9.56515 9.5652 5.2826 0 9.5652-4.2826 9.5652-9.5652 0-4.53877-3.1612-8.33934-7.4023-9.31967Zm-2.4033-.14944c-.5309 0-.9613.43034-.9613.96123v8.21968c0 .6635.5382 1.2017 1.2017 1.2017s1.2017-.5382 1.2017-1.2017V1.69629H10.981Zm.2404 1.39382c-.2123 0-.3843-.17191-.3843-.38427s.172-.38427.3843-.38427c.2124 0 .3843.17191.3843.38427s-.1719.38427-.3843.38427Z"/>
	<path fill="#000" d="M28.3891 3.84804v4.21348c0 2.21968.7809 2.44548 2.6534 2.44548.736 0 1.5388-.0618 2.1185-.123V3.84804h1.9843V18.2346H33.161v-6.268c-.8472.123-1.4943.1646-2.4084.1646-2.4972 0-4.3483-.3084-4.3483-3.76125V3.84804h1.9848ZM45.802 9.99298v1.62412h-6.2213v4.9944h7.0466v1.6236h-9.0314V3.84804h8.8303v1.62359h-6.8455v4.52135h6.2213Zm2.7944 6.49492c1.0478.4107 2.7871.0203 2.7871-6.4533V3.84804h7.8494V18.2346h-1.9842V5.47163h-3.8804v4.97357c0 4.5219-.8921 8.5703-4.7719 7.7686v-1.7259Zm17.8012-3.9674-2.8989 5.7141h-2.3191l3.2331-5.9191c-1.7393-.2467-3.2556-1.5618-3.2556-4.17252 0-3.76067 2.6983-4.2955 4.5045-4.2955h5.0393V18.234h-1.9842v-5.7135h-2.3191Zm-.6023-7.04887c-1.8506 0-2.6315 1.25394-2.6315 2.69214 0 2.09603 1.2933 2.73373 2.8545 2.73373h2.6984V5.47163h-2.9214Zm9.1961 4.3163h3.2112c1.3601 0 4.3933.22637 4.3933 4.27467 0 1.8911-.8028 4.1725-4.3708 4.1725h-5.218V3.84804h8.8079v1.62359h-6.8236v4.3163Zm0 6.82357h2.8988c.959 0 2.6984-.1854 2.6984-2.5281 0-2.4455-1.695-2.6719-2.6984-2.6719h-2.8988v5.2ZM92.1835 3.84804h1.9624V18.2346H92.161V7.25984L86.1852 18.2346h-1.9399V3.84804h1.9843V14.7407l5.9539-10.89266ZM98.67 18.2351h-1.9842V3.84804H98.67v6.00112h5.575V3.84804h1.985V18.2346h-1.985v-6.7613H98.67v6.7618Zm15.156-14.42863c2.698 0 3.969 1.5 3.969 3.65842 0 1.41854-.825 2.71291-2.319 3.06241v.1028c1.115.1848 2.81.9865 2.81 3.5556 0 2.5483-1.427 4.0078-4.638 4.0078h-4.996V3.80647h5.174Zm-3.189 6.10393h2.765c1.65 0 2.364-.80169 2.364-2.24045 0-.98652-.335-2.24045-2.297-2.24045h-2.832v4.4809Zm0 6.659h2.877c1.182 0 2.764-.2264 2.764-2.5489 0-1.7674-.869-2.4865-2.764-2.4865h-2.877v5.0354Zm17.94-6.57642v1.62412h-6.221v4.9944h7.046v1.6236h-9.031V3.84804h8.83v1.62359h-6.845v4.52135h6.221Zm13.622 3.47302c-.223 2.0348-1.204 5.2-5.218 5.2-4.304 0-5.82-3.6786-5.82-7.3781 0-1.78818.178-7.87188 5.775-7.87188 2.119 0 4.817.82247 5.107 4.87078h-1.984c-.134-1.31517-.714-3.24719-3.122-3.24719-3.612 0-3.701 4.9118-3.701 6.16569 0 4.0899 1.851 5.8366 3.813 5.8366 1.895 0 3.055-1.7057 3.166-3.5759h1.984Zm1.101-7.99437V3.84804h9.655v1.62359h-3.835V18.2346h-1.985V5.47163H143.3Zm13.599 4.3163h3.211c1.361 0 4.393.22637 4.393 4.27467 0 1.8911-.803 4.1725-4.37 4.1725h-5.219V3.84804h8.809v1.62359h-6.824v4.3163Zm0 6.82357h2.899c.959 0 2.698-.1854 2.698-2.5281 0-2.4455-1.695-2.6719-2.698-2.6719h-2.899v5.2Zm10.827 1.6236h-2.074l4.482-14.3865h2.096l4.482 14.3865h-2.074l-1.115-3.7196h-4.682l-1.115 3.7196Zm5.352-5.3438-1.896-6.45337-1.895 6.45337h3.791Zm6.989 5.3438h-1.985V3.84804h1.985v6.00112h5.575V3.84804h1.985V18.2346h-1.985v-6.7613h-5.575v6.7618Zm17.324-14.38706h2.23L193.98 10.507l6.02 7.7281h-2.386l-5.218-7.0286v7.0286h-1.984V3.84804h1.984v6.12472l4.995-6.12472Z"/>
</svg>