<svg xmlns="http://www.w3.org/2000/svg" viewBox="0 0 180.4 23.8">
	<path fill="#000" d="M9.3 16c-.7.8-1.6 1.2-2.8 1.2-2 0-3.4-1.7-3.4-4 0-2.2 1.4-4 3.4-4 1 0 1.9.4 2.6 1.1l1.8-1.9C9.8 7.2 8.3 6.5 6.5 6.5c-3.6 0-6.5 3-6.5 6.7 0 3.9 2.8 6.6 6.3 6.6 2 0 3.5-.7 4.7-2.1L9.3 16zm9.4-9.4c-3.8 0-6.7 3-6.7 6.7s2.7 6.6 6.6 6.6c3.8 0 6.7-3 6.7-6.7 0-3.8-2.7-6.6-6.6-6.6zm-.1 10.6c-2.2 0-3.6-1.8-3.6-4s1.4-4 3.6-4 3.6 1.8 3.6 4-1.3 4-3.6 4zM41.1 6.8h-3.7l-1.9 6.4c-.3 1-.6 2.4-.6 2.4s-.3-1.3-.7-2.4l-2-6.3h-3.8l-1.2 12.8h2.7l.6-6.9c.1-1.3.1-2.7.1-2.7s.3 1.4.7 2.7l2.2 7H36l2.2-7c.4-1.2.7-2.6.7-2.6s0 1.4.1 2.8l.6 6.9h2.8L41.1 6.8zm17.9 0h-3.7l-1.9 6.4c-.3 1-.6 2.4-.6 2.4s-.3-1.3-.7-2.4l-2-6.3h-3.8L45 19.6h2.7l.6-6.9c.1-1.3.1-2.7.1-2.7s.3 1.4.7 2.7l2.2 7h2.5l2.2-7c.4-1.2.7-2.6.7-2.6s0 1.4.1 2.8l.6 6.9h2.8L59 6.8zm7.1 10.4v-2.8h4.7V12h-4.7V9.3h5.4V6.8h-8.2v12.8h8.3v-2.4h-5.5zm18-6.3c0-2.6-1.5-4.1-5.3-4.1H75v12.8h2.8v-4.7h.9l2.7 4.7h3.3l-3.1-5.2c1.5-.6 2.5-1.8 2.5-3.5zm-2.9 0c0 1.2-.8 1.7-2.4 1.7h-1.2V9.2h1.2c1.5 0 2.4.5 2.4 1.7zm8.6 6.3l5.3-8.3V6.8h-8.7v2.5h5.2l-5.3 8.2v2.1h8.9v-2.4h-5.4zm15.3-4.2c1.3-.4 2.1-1.4 2.1-2.9 0-2.8-2.4-3.3-4.7-3.3h-4.4v12.8h4.9c2.3 0 4.8-1 4.8-3.7 0-1.6-1.1-2.7-2.7-2.9zm-2.5-1h-1.7V9.2h1.6c.9 0 1.8.3 1.8 1.3-.1 1.1-.8 1.5-1.7 1.5zm-1.7 2.3h2.1c1.2 0 2 .4 2 1.4s-.6 1.5-2 1.5h-2.1v-2.9zm15.8-7.5h-3.5l-4.6 12.8h2.8l.9-2.6h5l.9 2.6h3l-4.5-12.8zm-1.8 2.6s.2.9.6 1.8l1.1 3.4h-3.4l1.1-3.4c.4-.9.6-1.8.6-1.8zM131 6.8v5.8c0 1.2.1 2.3.1 2.3s-.6-1-1.3-2l-4.1-6.1H123v12.8h2.6v-6.1c0-1.2-.1-2.3-.1-2.3s.6 1 1.3 2l4.3 6.4h2.5V6.8H131zm11.3 6l4.3-6h-3.2l-3.9 5.8V6.8h-2.8v12.8h2.8v-6l4.1 6h3.4l-4.7-6.8z"/>
	<path fill="url(#gr1)" d="M160.3.1s-.1 0 0 0l-5.4 9.3-1.7 2.9-.2.3 5.1 8.9c-.1-.2-.2-.4-.2-.5-.2-.5-.3-1.2-.3-1.8.1-1.7 1-3.4 1.5-4.2 1.1-1.9 3.2-5.5 3.2-5.5s2.1-3.6 3.2-5.5c.5-.8 1.5-2.4 2.9-3.4.5-.4 1.2-.6 1.7-.6h3.1c-.1.1-12.9.1-12.9.1z"/>
	<radialGradient id="gr1" cx="169.0781" cy="25.2945" r="20.6366" gradientTransform="matrix(1 0 0 -1 0 25.4)" gradientUnits="userSpaceOnUse">
		<stop offset="0" stop-color="#ffdf4f"/>
		<stop offset=".1374" stop-color="#ffd137"/>
		<stop offset=".3217" stop-color="#ffc31a"/>
		<stop offset=".44" stop-color="#febe10"/>
		<stop offset=".6086" stop-color="#fcba12"/>
		<stop offset=".7543" stop-color="#f5af15"/>
		<stop offset=".8911" stop-color="#ed9f18"/>
		<stop offset=".9" stop-color="#ed9d19"/>
		<stop offset="1" stop-color="#e0861a"/>
	</radialGradient>
	<path fill="url(#gr2)" d="M178.7 15.4c-.3.4-.8.9-1.4 1.2-1.5.8-3.5.8-4.4.8h-12.6c-.9 0-2.8-.1-4.4-.8-.6-.3-1.1-.7-1.4-1.2-.2-.3-.7-1.1-1.3-2.2l1.3 2.2 4.8 8.4h14.5l6.3-11c-.5 1.2-1.1 2.3-1.4 2.6M153 12.8c.1.1.2.3.2.4l-.2-.4z"/>
	<radialGradient id="gr2" cx="154.4595" cy="10.1645" r="21.053" gradientTransform="matrix(1 0 0 -1 0 25.4)" gradientUnits="userSpaceOnUse">
		<stop offset="0" stop-color="#ffdf4f"/>
		<stop offset=".1374" stop-color="#ffd137"/>
		<stop offset=".3217" stop-color="#ffc31a"/>
		<stop offset=".44" stop-color="#febe10"/>
		<stop offset=".6086" stop-color="#fcba12"/>
		<stop offset=".7543" stop-color="#f5af15"/>
		<stop offset=".8911" stop-color="#ed9f18"/>
		<stop offset=".9" stop-color="#ed9d19"/>
		<stop offset="1" stop-color="#e0861a"/>
	</radialGradient>
	<path fill="url(#gr3)" d="M169.9.1c-.5.1-1.2.3-1.7.6-.6.4-1.1.9-1.6 1.4.6.7 1.1 1.5 1.3 1.9 1.1 1.9 3.2 5.5 3.2 5.5s2.1 3.6 3.2 5.5c.5.8 1.4 2.5 1.5 4.2 0 .7-.1 1.3-.3 1.8-.1.3-.7 1.4-1.4 2.6l6.3-10.9L173.1.1h-3.2"/>
	<radialGradient id="gr3" cx="175.5563" cy="4.4108" r="21.1182" gradientTransform="matrix(1 0 0 -1 0 25.4)" gradientUnits="userSpaceOnUse">
		<stop offset="0" stop-color="#ffdf4f"/>
		<stop offset=".1374" stop-color="#ffd137"/>
		<stop offset=".3217" stop-color="#ffc31a"/>
		<stop offset=".44" stop-color="#febe10"/>
		<stop offset=".6086" stop-color="#fcba12"/>
		<stop offset=".7543" stop-color="#f5af15"/>
		<stop offset=".8911" stop-color="#ed9f18"/>
		<stop offset=".9" stop-color="#ed9d19"/>
		<stop offset="1" stop-color="#e0861a"/>
	</radialGradient>
</svg>