<svg viewBox="0 0 199 24" xmlns="http://www.w3.org/2000/svg">
	<path fill="#fff" d="M77.3898 23.14c6.39 0 11.57-5.1801 11.57-11.57 0-6.38993-5.18-11.57-11.57-11.57-6.3899 0-11.57 5.18007-11.57 11.57 0 6.3899 5.1801 11.57 11.57 11.57Z"/>
	<path fill="#005BAA" d="M2.32 11.7697c-.04586-.1703-.04586-.3497 0-.52.03372-.0914.08854-.1736.16-.24.06711-.0822.15279-.1473.25-.19.8396-.4032 1.53701-1.05177 2-1.85995.54588-1.06846 1.38776-1.95721 2.42511-2.56011 1.03734-.6029 2.22631-.89448 3.42489-.8399v.85c.0151.20133-.0455.40105-.17.56-.123.15449-.2965.26071-.49.30001-.74946.14129-1.45759.44919-2.07205.90096-.61447.45176-1.11956 1.03583-1.47795 1.70904-.18611.39895-.45277.75505-.7832 1.04585-.33043.2909-.71748.5102-1.1368.6441l6.22 6.44c-.89211.0444-1.78642.0009-2.67-.13-.55855-.2641-1.04553-.6585-1.42-1.15l-4.04-4.53c-.11358-.1149-.1902-.2611-.22-.42v-.01Zm18.85 1.24c0 3.4334-1.4067 5.1467-4.22 5.14-1.69 0-2.82-.45-3.39-1.36v5c-.6089.068-1.2254-.0073-1.8-.22-.18-.14-.24-.62-.24-1.49V8.00974c.4622-.0587.9316.00688 1.36.19001.13.13.2.54.19 1.25.61-1 1.88-1.56 3.83-1.57 2.84-.03334 4.2633 1.67666 4.27 5.12995Zm-2.11 0c.0604-.8598-.1123-1.7201-.5-2.49-.2625-.3323-.6042-.59342-.9938-.7594-.3896-.16598-.8147-.2315-1.2362-.19056-1.4 0-2.21.15-2.46.43996-.25.29-.35 1.29-.35 3-.0551.8316.1105 1.663.48 2.41.26.3483.6057.6235 1.0034.7987.3978.1752.8341.2446 1.2666.2013 1.4 0 2.21-.14 2.44-.41.3308-.9632.4502-1.9864.35-3Zm12.43-.85c0 .82-.09 1.31-.27 1.46-.601.2036-1.2395.2718-1.87.2h-5.22c-.02.341.0346.6823.16 1 .1183.3176.3063.6046.55.84.5749.4881 1.3177.7321 2.07.68h2.19c.4879-.0612.9831.015 1.43.22.199.4558.2749.9558.22 1.45H27c-3.3333 0-5-1.6933-5-5.08 0-3.38662 1.6667-5.08662 5-5.09996.6161-.03603 1.233.05649 1.8114.27168.5785.2152 1.1058.54836 1.5486.97832.3711.41117.6597.88986.85 1.40996.1927.525.2876 1.0809.28 1.64v.03Zm-2.14 0c0-1.81-.81-2.68996-2.52-2.68996-.8049-.10297-1.6225.02175-2.36.36-.2467.23996-.3667 1.01996-.36 2.33996l5.24-.01Zm12.89 5.81v.57c0 .86-.08 1.36-.24 1.49-.5801.2044-1.1978.2795-1.81.22v-2.24h-6.47v2.24c-.6089.0623-1.224-.0129-1.8-.22-.18-.15-.25-.63-.25-1.49v-.53c0-.86.08-1.34.22-1.46.2468-.1575.5379-.2311.83-.21 1.3-1.24 1.67-4.75 1.68-6.74996v-.2c-.0554-.42934.0213-.86537.22-1.25.4496-.196.9423-.27181 1.43-.22h3.47c.81 0 1.28.07 1.42.22.14.15.21.55.22 1.29v6.87996c.308-.0222.6153.0511.88.21.15.13.22.6.2 1.42v.03Zm-3.14-2.31V9.56974h-2.88c-.0136.97356-.087 1.94546-.22 2.90996-.1393 1.3213-.501 2.6095-1.07 3.81h3.52c.51 0 .62-.28.65-.47v-.16Zm-36.95 2.35c-.63524.0697-1.277997-.0056-1.88-.22-.18-.14-.27-.6566-.27-1.55V5.53975c.633063-.0608 1.2719.00376 1.88.18999.18.13.27.60001.27 1.39001V18.0097Zm41.1-.07V7.93975c.6297-.05546 1.2643.00901 1.87.19.18.13.27.54999.27 1.29999v5.87996l3.75-6.09995c.2505-.43423.5915-.80941 1-1.1.4904-.14017 1.0007-.19763 1.51-.17h1.12v8.31995c0 .86-.09 1.37-.27 1.51-.6018.2155-1.2448.2907-1.88.22v-7.5l-3.75 6c-.2603.4615-.5986.8743-1 1.22-.4605.1516-.9468.2094-1.43.17l-1.19.06Zm19.8-9.99995c.0646.53029-.0113 1.06823-.22 1.55999-.4675.20707-.9826.28311-1.49.22h-1.88v8.28996c-.6188.0631-1.2438-.012-1.83-.22-.18-.15-.26-.65-.26-1.52V9.70975h-3.59c-.0604-.52853.0082-1.06382.2-1.56001.4233-.20083.895-.27713 1.36-.22l7.71.01001ZM110.29 15.0096c0-.86-.58-1.34-2-1.34h-4.08v2.73h4c.611.0526 1.227-.0015 1.82-.16.18-.11.26-.44.26-1.23Zm-2.08-5.55001h-4v2.55001h4.08c.531.0499 1.067-.001 1.58-.15.11-.07.17-.35.17-1.11 0-.76001-.53-1.31001-1.83-1.31001v.02ZM104 18.0096c-.487.0536-.981-.008-1.44-.18-.15-.12-.2-.53-.2-1.24V9.27959c0-.71.07-1.15.2-1.26.459-.17309.953-.23478 1.44-.18h4.19c2.507 0 3.763.88 3.77 2.64001 0 1.11-.39 1.79-1.17 2.05l-.15.05.15.05c.443.1756.815.4918 1.06.9.283.4412.429.9561.42 1.48 0 2-1.333 3-4 3H104Zm19.1-5.09c0 3.4333-1.403 5.1467-4.21 5.14-1.7 0-2.82-.45-3.39-1.36v5c-.612.067-1.232-.0083-1.81-.22-.18-.14-.24-.62-.24-1.48V7.85959c.78 0 1.23.06 1.36.19.13.13.2.53.2 1.24.6-1 1.88-1.56 3.83-1.56 2.8 0 4.22 1.77 4.22 5.15001l.04.04Zm-2.09 0c.056-.8618-.124-1.7225-.52-2.49-.259-.3314-.597-.59224-.983-.75829-.386-.16605-.808-.23199-1.227-.19172-1.4 0-2.23.15-2.47.44-.24.29001-.35 1.30001-.35 3.00001-.063.8428.107 1.6868.49 2.44.257.349.601.6248.997.8002.397.1753.832.2442 1.263.1998 1.4 0 2.21-.13 2.44-.41.35-.9831.47-2.0334.35-3.07l.01.04Zm13.14 0c0 3.42-1.667 5.1267-5 5.12-3.333-.0067-4.977-1.7133-4.93-5.12 0-3.39334 1.667-5.09001 5-5.09001s4.963 1.67334 4.89 5.02001l.04.07Zm-2.13 0c.053-.8288-.135-1.6551-.54-2.38-.262-.3514-.611-.62847-1.012-.80384-.402-.17537-.842-.24298-1.278-.19617-1.43 0-2.25.14-2.49.43-.332.94571-.448 1.95361-.34 2.95001 0 2.28.933 3.42 2.8 3.42 1.433 0 2.263-.14 2.49-.42.348-.9836.468-2.0334.35-3.07l.02.07Zm12.23 4.78c-.602.2144-1.245.2896-1.88.22V9.92959h-5v7.92001c-.635.0696-1.278-.0056-1.88-.22-.17-.14-.26-.65-.26-1.51V9.72959c-.063-.57282.012-1.15249.22-1.69.13-.17.64-.27 1.5-.27h5.83c.86 0 1.36.09 1.51.27.202.5389.278 1.11724.22 1.69v6.39001c-.02.89-.11 1.36-.3 1.51l.04.07Zm10.7.22c-.79 0-1.24-.06-1.37-.2-.13-.14-.19-.56-.19-1.31-.354.4687-.837.8233-1.39 1.02-.796.3549-1.659.5324-2.53.52-.971.0482-1.933-.1994-2.76-.71-.369-.2559-.668-.5996-.87-1-.198-.4001-.291-.8441-.27-1.29-.024-.4443.051-.8884.22-1.3.174-.4046.429-.7689.75-1.07.905-.693 2.033-1.0309 3.17-.95h3.15c.031-.2946-.013-.5923-.129-.8652-.115-.2728-.298-.5119-.531-.6948-.627-.36005-1.349-.5205-2.07-.46001h-2c-.457.05795-.92-.01126-1.34-.2-.14-.13-.2-.64-.2-1.49h3.51c1.87 0 3.17.39 3.91 1.15.356.43188.623.92983.786 1.46521.163.5355.219 1.0978.164 1.6548l-.01 5.73Zm-2-4.29v-.32H150c-.675-.0673-1.356.0077-2 .22-.2.15-.3.61-.3 1.42 0 .81.75 1.43 2.25 1.43.86.1093 1.734-.015 2.53-.36.355-.768.487-1.6206.38-2.46l.09.07Zm-51.95 4.38h-6.59c-.6319.0698-1.2715-.0054-1.87-.22-.18-.15-.27-.67-.27-1.57V7.21959c0-.9.09-1.43.27-1.57.5985-.2146 1.2381-.28984 1.87-.22h4.83c.88 0 1.4.07 1.54.22.14.15.22.67.22 1.57h-6.59v3.48001h4.24c.5173-.0671 1.043.0089 1.52.22.15.15.22.65.22 1.52h-6v3.75h4.68c.5663-.0671 1.14.0086 1.67.22.232.4994.322 1.0529.26 1.6Z"/>
	<path fill="#ED1C24" d="M191 17.9196c-.635.064-1.277-.0111-1.88-.22-.18-.1533-.27-.6733-.27-1.56V7.74964c.634-.05998 1.273.00803 1.88.2.18.13.27.59.27 1.39v8.57996Zm7 0c-.782.0283-1.565-.0085-2.34-.11-.449-.2055-.838-.5221-1.13-.92l-3.15-3.61c-.124-.1494-.194-.3359-.2-.53 0 0 0-.54.36-.71.721-.3934 1.333-.9605 1.78-1.65.456-.82866 1.138-1.51097 1.966-1.96766.829-.45668 1.77-.669 2.714-.6123v.78s.06.83-.5.91c-.56.08-1.58.27-2.84 1.99996-.314.4822-.73.8887-1.22 1.19l4.56 5.23Zm-21.32 0c-.78 0-1.24-.06-1.36-.19-.187-.4131-.256-.8699-.2-1.32-.327.4902-.794.8702-1.34 1.09-.799.3564-1.666.5339-2.54.52-.971.0437-1.932-.2148-2.75-.74-.372-.2525-.671-.5971-.87-1-.202-.4026-.298-.8499-.28-1.3-.019-.4417.059-.8822.23-1.29.168-.4074.424-.7727.75-1.07.904-.6946 2.032-1.0327 3.17-.95h3.14c.048-.3075.016-.6225-.095-.9136-.11-.2911-.295-.5484-.535-.7464-.627-.3617-1.349-.52553-2.07-.46996h-2c-.77 0-1.21-.06-1.34-.19-.192-.47164-.261-.98441-.2-1.49h3.51c1.87 0 3.18.39 3.91 1.15.356.43188.623.92983.786 1.46526.163.5354.219 1.0978.164 1.6547l-.08 5.79Zm-2.05-4.29v-.32h-2.84c-.675-.0629-1.355.0119-2 .22-.2.15-.29.61-.29 1.42 0 .81.75 1.43 2.24 1.43.863.1087 1.74-.0156 2.54-.36.336-.7736.456-1.6234.35-2.46v.07Zm-8.78-1.49c.071.0864.138.1766.2.27l.1.16c-.076-.1799-.177-.3482-.3-.5v.07Zm.71 2.1c0 2.44-1.667 3.66-5 3.66h-2.93c-.602.0624-1.211-.0128-1.78-.22-.17-.15-.24-.66-.24-1.54V7.13964c0-.88.08-1.4.24-1.54.568-.21244 1.177-.28782 1.78-.22h7.18c-.032.42965-.088.85706-.17 1.28-.09.3-.21.47-.83.47h-6v3.47996h3.26c.707-.0543 1.417.0525 2.077.3123.66.2598 1.253.6659 1.733 1.1877.114.1347.211.2824.29.44.277.4936.412 1.0544.39 1.62v.07Zm-2.17 0c0-1.24-.88-1.85-2.65-1.85h-2.93v3.72h2.87c.799.0791 1.605-.006 2.37-.25.22-.16.35-.71.34-1.67v.05Zm23 3.65c-.642.0696-1.291-.0056-1.9-.22-.18-.14-.26-.66-.26-1.56v-2.79h-5v4.53c-.632.0713-1.272-.004-1.87-.22-.18-.14-.28-.66-.28-1.56V7.77964c.649-.07045 1.306.00821 1.92.23.17.14.26.65.26 1.51v2.08996h5V7.77964c.642-.06955 1.291.00562 1.9.22.17.14.26.65.26 1.51v8.32996l-.03.05ZM77.3901.820317c-2.129-.001978-4.2107.627653-5.9817 1.809223-1.771 1.18156-3.1517 2.86194-3.9673 4.82848-.8157 1.96654-1.0296 4.13088-.6147 6.21898.4148 2.0882 1.4398 4.0064 2.9453 5.5118 1.5054 1.5054 3.4235 2.5304 5.5117 2.9453 2.0882.4148 4.2525.2009 6.219-.6148 1.9666-.8156 3.6469-2.1963 4.8285-3.9673s1.8112-3.8527 1.8092-5.9817c0-1.4117-.278-2.80958-.8183-4.11383-.5402-1.30425-1.3321-2.48932-2.3303-3.48755-.9982-.99823-2.1833-1.79007-3.4875-2.33031-1.3043-.54024-2.7022-.818293-4.1139-.818293Zm0 16.059983-5.3-5.31 5.3-5.29998 5.3 5.29998-5.3 5.31Z"/>
</svg>