<svg xmlns="http://www.w3.org/2000/svg" viewBox="0 0 177.1 39.4">
	<g fill="#003662">
		<path d="M78.4 24.1H66.8v2.7h.4c.1-.4.8-1.1 1.6-1.1h2.6v13.6H74V25.6h2.7c.9 0 1.4.5 1.5 1v.1h.4l-.2-2.6zm-75.7-.9C1 25 0 27.4 0 29.8c0 2.8 1.1 5.2 3 7 1.9 1.7 4.5 2.7 7.1 2.7 1.4 0 4.2-.3 7-1.9l.1-.1.3-3.8-.5-.2v.2c-2 4.1-5 4.1-6.3 4.1-5.2 0-7.6-4.4-7.6-8.4 0-3.9 2.4-7.9 7.6-7.9 1.6 0 4.6.6 6.1 4.1l.1.2.5-.2-.2-3.9-.2-.1c-2.5-1-4.5-1.5-6.5-1.5-3.2.1-5.9 1.1-7.8 3.1zm17.4.9l-.1.4c.2.1.5.7.5 1.3v13.3H23v-6.9h1c1 .1 1.3.7 1.9 1.5l.1.1.3.6c.6.9 1.2 2.1 2 3.2.6.9 1.2 1.2 2.1 1.4.6.1 1.8.1 2.3-.1l.6-.1.2-.1-.8-.2c-.3-.1-.8-.3-1.4-1-.4-.5-1-1.5-2-3l-1-1.5c-.3-.4-.7-1-1.4-1.4 1.4-.5 2.8-1.7 2.8-3.6 0-.6-.1-1.6-1-2.5-1-.9-2.4-1.3-4.4-1.3-.1 0-4.2-.1-4.2-.1zm4.3 1.4c2.6.1 2.7 2.3 2.7 2.6 0 2.2-1.6 3-3 3h-1v-5.4c.2-.2.7-.3 1.3-.2zm21.3-1.4v.4c.2.1.4.7.4 1.1v13.5h4.3c2.9 0 5.1-.9 6.8-2.6 1.3-1.4 2.1-3.2 2.1-5.2 0-1.1-.4-3-1.5-4.4-1.5-1.9-3.8-3-7-3 0 .1-5.1.2-5.1.2zm3 1.5H50c.4 0 1.2 0 1.9.1 4.2.7 4.7 4.2 4.7 5.7 0 1.2-.2 3-1.2 4.4-1 1.3-2.7 2-4.9 2h-1.8V25.6zm15.8-1.5h-3v.4c.3.1.5.7.5 1.2v13.4h2.5v-15zm50.5 0h-3v.4c.3.1.5.7.5 1.2v13.4h2.5v-15zm-72.5 0h-8.4l.1.4c.2.1.5.7.5 1.3v13.3H43l.6-2.7-.4-.1-.1.2c-.7 1-1.4 1.2-3.8 1.2-.9 0-1.7-.1-2.3-.1v-6.1h4.3v-1.4H37v-4.7h3.4c.8 0 1.6.8 1.7 1.2v.1h.4c.1.2 0-2.6 0-2.6zm107.4 0h-8.4v.4c.2.1.5.6.5 1.3v13.3h8.4l.6-2.7-.4-.1-.1.2c-.7 1-1.4 1.2-3.8 1.2-.9 0-1.7-.1-2.3-.1v-6.1h4.3v-1.4h-4.3v-4.7h3.4c1 0 1.6.8 1.6 1.2v.1h.4c0 .2.1-2.6.1-2.6zm-64.2-2.8c-.9.7-1.9 1.8-2 3.8v.1c0 2.4 1.5 3.7 4 5 .1.1.3.2 1 .5 2.1 1 3.5 1.8 3.5 3.9 0 .8-.3 1.8-1 2.6-.7.7-1.5 1-2.6 1-3.1 0-4.3-2.8-4.6-4l-.1-.2h-.6l.2 3.9.3-.1c1 .6 2.7 1.5 5.1 1.6 1.7 0 3.4-.7 4.7-1.9 1-1 1.6-2.4 1.6-3.8 0-3.1-2.3-4.4-4.7-5.6l-.5-.3c-2.5-1.2-3.6-2-3.6-3.5 0-1 .9-2.8 3-2.8 2.5 0 3.8 1.9 4.1 3l.1.2.6-.1-.2-3.4-.1-.1c-1.4-1-3.2-1.1-4-1.1-1.7.1-3.1.6-4.2 1.3zm33.3 6.6c0 2.1 1.2 3.1 3.2 4.2l.8.4c1.6.8 2.7 1.3 2.7 2.9 0 .3-.1 1.1-.8 1.9-.5.5-1.1.8-2 .7-2.4 0-3.2-1.9-3.6-3l-.1-.2-.5.1.1 3.1.1.1c.8.5 2.1 1.2 4.1 1.2 1.3 0 2.8-.6 3.7-1.5.9-.9 1.2-1.9 1.2-3 0-2.7-1.8-3.6-3.7-4.6l-.4-.2c-2.1-1-2.8-1.5-2.8-2.7 0-.9.6-2 2.3-2 2 0 2.9 1.5 3 2.3l.1.2.5-.1-.2-2.8-.1-.1c-1.1-.8-2.6-.9-3.1-.9-2.1.1-4.5 1.4-4.5 4zm11.3 0c0 2.1 1.2 3.1 3.2 4.2l.8.4c1.6.8 2.7 1.3 2.7 2.9 0 .3-.1 1.1-.8 1.9-.5.5-1.1.8-2 .7-2.4 0-3.2-1.9-3.6-3l-.1-.2-.5.1.1 3.1.1.1c.8.5 2.1 1.2 4.1 1.2 1.3 0 2.8-.6 3.7-1.5.9-.9 1.2-1.9 1.2-3 0-2.7-1.8-3.6-3.7-4.6l-.4-.2c-2.1-1-2.8-1.5-2.8-2.7 0-.5.2-1 .6-1.4.4-.4 1-.6 1.6-.6 2 0 2.9 1.5 3 2.3l.1.2.5-.1-.1-2.7-.1-.1c-1.1-.8-2.6-.9-3.1-.9-2 0-4.5 1.3-4.5 3.9zm-21.5-3.8h-2v.4c.1.1.4.3.4 1.2v8.6c0 1.6-.6 3.6-3.5 3.6-2.8 0-3.3-1.6-3.3-4.1v-9.7h-3.1v.4c.2.1.6.5.6 1.3v8c0 5 3.2 5.5 5.7 5.5 1.2 0 5.1-.4 5.1-5-.1 0 .1-10.2.1-10.2zm62.7-4.3c1.8.6 3.6 1.3 5.6 2.5-4.9-8-13.4-16.7-21.9-22.3 2.2 2.2 5.7 7 6.7 12 3.4 2.5 6.7 5.1 9.6 7.8z"/>
		<path d="M171.5 19.8c-4.2-1.3-7.7-1.4-10.3-1.1 1-2.2 1-4.5.7-6.7-6.4-4.6-13.5-8.6-20.3-11.5 5 3.3 10.5 13.1 12.8 23.6 5-1.4 12.5-2.5 22.3.9-1.7-1.8-3.4-3.5-5.2-5.2z"/>
	</g>
</svg>