<svg viewBox="0 0 180 31" xmlns="http://www.w3.org/2000/svg">
	<path fill="#0057B6" d="M.528321 15.1389C.528321 7.07452 7.15773.517525 15.3061.517525c8.1534 0 14.7777 6.556995 14.7777 14.621375 0 8.0593-6.6243 14.6163-14.7777 14.6163-8.14837 0-14.777779-6.557-14.777779-14.6163ZM0 15.1389c0 8.3457 6.86818 15.1338 15.3061 15.1338 8.4379 0 15.306-6.7931 15.306-15.1338C30.6121 6.78813 23.744 0 15.3061 0 6.86818 0 0 6.78813 0 15.1389Zm24.7344-1.2967v.0001l-.0659.0505c-.8484.6431-2.1793 1.1607-4.0335 1.6481-2.1533.5747-3.976.8745-5.7215 1.1617-1.3678.225-2.6881.4422-4.0829.7777-.6147.1457-1.26491.3567-1.86439.5979.59948.2964 1.23449.5678 1.88979.814 1.2852-.3618 1.905-.5275 3.7693-.8391.7113-.1206 2.9058-.4975 4.4857-.8291 2.86-.6079 7.0459-1.9143 5.9335-3.6276-.0937.0799-.198.1599-.3101.2458Zm-1.5289-3.8032c-.6045-.26631-1.3665-.53263-2.1742-.74863-.3658.28138-.7874.53256-1.3869.76873.741.1296 1.3469.3136 1.9538.498.2169.0659.434.1319.6573.1954.1575.0804.8433-.5628.95-.7135ZM9.19988 13.8224c1.96982-.5725 3.99042-.9353 6.04272-1.3037 1.8378-.33 3.7008-.6645 5.5753-1.1582-1.5443-.4121-2.3978-.5879-4.0386-.402-2.3775.2764-4.9988.7889-7.23905 1.447l-.09418.0278c-1.071.3156-5.37035 1.5822-4.0765 3.3437.00053.0026.00939-.0068.02816-.0265h.00002c.16376-.1726 1.08152-1.1392 3.80213-1.9281Zm-2.57046 6.2305c-.01017.3316.19812.633.65532 1.0049.05588-.1809.13716-.3166.27432-.4874-.32004-.1558-.635-.3316-.92964-.5175Zm1.74753-.1658c.27941-.1659.61978-.3267 1.0058-.4824-.53338-.216-1.0769-.4522-1.63065-.7034-.24892.1507-.47244.3215-.65024.4874.17069.0924.33976.1865.50883.2805.25358.1411.50717.2822.76626.4179ZM22.733 12.0387c-.7518.3468-1.8339.7035-3.3782 1.0903-.5824.1453-1.5484.3147-2.7442.5245-1.4116.2477-3.1432.5514-4.9419.9377-1.0515.2262-3.89628.8894-5.29837 2.0701.27745.221.47823.3231.72741.4499.10213.052.2124.1081.33939.1782.58421-.3668 1.36651-.7185 2.53495-1.025 2.03332-.5367 3.55042-.7729 5.38482-1.0587l.0101-.0015c1.8237-.2763 5.2426-.9898 7.1374-1.6631.6198-.2161 1.1938-.4975 1.6206-.8291-.1321-.1507-1.3513-.7285-1.392-.6733Zm1.1024-.6733c.0768.037.1516.072.2249.1063.2857.1338.5476.2564.8064.4364.2336-.4421.0914-.7285-.3963-1.1355-.1879.2211-.4064.417-.635.5928ZM6.44654 18.033c-.33529-.1808-.55881-.3065-.83821-.4974-.1524.3166.13208.6783.43181.8491.07487-.077.15681-.1435.23852-.2099.05689-.0462.11366-.0923.16788-.1418ZM22.3368 7.84328c-.061.25123-.3352.54267-.5233.73863.5639.14572 1.1278.35165 1.6714.55268-.0661-.49238-.6503-.97476-1.1481-1.29131ZM4.76505 10.9886c3.9116-2.53735 8.23975-4.01456 15.57525-2.76342.4065-.23117.6249-.44722.7316-.92454-1.8339-.6532-3.8151-.88432-6.3856-.8391-2.3063.06029-6.46177.90944-8.67665 2.20579l.67565-.83912c1.55445-.89436 5.5931-2.0902 8.6258-2.15049 2.1388-.0402 3.2462.08038 5.7862.7587-.2049-.40535-.687-.62057-1.3749-.92771l-.139-.06212c-2.4587-1.09535-7.051-1.19584-10.81527.44215.47242-.30649.93976-.59289 1.54937-.87427 1.2344-.56274 3.2664-1.10036 5.8065-1.06016 2.0269.03014 4.4348.73357 5.908 2.17561.2489.2864.3861.59289.4521.83909 1.1684.58285 1.844 1.1255 2.2301 1.77866.1525.32662.2185.69341.1474 1.10038.4876.28645.7162.52255.955.84415.1779.2663.3048.5627.3353.8391.0508.3668.0914.7737-.2896 1.2511.4013.1909.7113.7336.7621.9797.1778.8744-.3861 1.7185-1.1329 2.3817-.8585.7436-2.7534 1.6279-4.2977 2.0148-2.1811.5429-4.1774.8649-5.9232 1.1465-.7101.1145-1.3788.2224-2.0016.3358l.0094.0022c.9594.2259 2.2735.5354 4.4102.5354 4.572 0 8.6157-2.1405 8.6157-2.1405s-.0915.2814-.1778.5276c-2.9007 1.7335-7.5235 2.4721-9.4997 2.3817-2.0065-.0955-3.688-.387-5.3441-.8894-.508.1307-1.0008.2864-1.48334.4974 2.51464 1.1305 4.40434 1.3868 6.55834 1.5375 2.1894.1608 5.8114-.3617 8.8747-1.4571-.0659.0676-.1177.1536-.1689.2387-.0554.0922-.1103.1834-.1816.2487-1.5697.8089-4.8819 1.6279-6.5431 1.6983-1.6561.0653-3.683.005-5.4356-.3216-1.5138-.2914-2.7432-.7687-4.03354-1.3214-.23874.1658-.35558.3969-.39616.6381 5.0393 2.6026 9.7586 2.6579 15.1283 1.0099l-.4878.4672c-5.9131 2.3666-10.5308 1.4472-14.10713-.2612-.01865-.008-.03788-.0161-.05752-.0245h-.00008c-.10366-.0437-.21853-.0923-.30821-.1513.33022.5728 3.06324 2.5424 6.11644 2.7936 2.1082.1708 4.6787-.1859 6.1975-.7839l-.8889.4572c-.7417.3618-2.6976 1.1708-5.4357.995-3.6423-.2462-5.69463-1.8391-6.61414-2.6731-.42164-.3919-.62992-.8441-.75693-1.3968-.82296-.4271-1.34112-.8693-1.77291-1.5275-.25401-.3868-.20321-.824-.13716-1.1908.02031-.1156.05079-.2261.09651-.3266-.39624-.2864-.79756-.5879-.9652-.8943-.36068-.6432-.13716-1.1959.11176-1.623-.21336-.2411-.41656-.4874-.50292-.7336-.09652-.3065-.11684-.5778-.08636-.8893.06604-.5427.36068-1.035.73152-1.4621.79757-.9094 2.04725-1.6129 4.19613-2.3163 1.5698-.515 2.4371-.701 3.4382-.9156.337-.0723.689-.1477 1.0881-.2401.7043-.16026 1.4593-.27931 2.2264-.40024 1.2522-.19734 2.5369-.39984 3.6866-.7956-5.1561-.89935-10.51555-.08541-14.88435 2.88914l.2794-.8341Zm96.64695 1.1758c-.157.839-.376.9848-.884.9848-.223 0-.432-.0553-.7417-.2713l-.1669 2.7936c.3755.2362 1.0816.2713 1.4836.2713 1.173 0 2.062-1.1707 2.479-2.467l3.413-10.80777h-2.555l-1.122 4.30602c-.198.73358-.402 1.51238-.575 2.52234h-.066c-.051-1.0602-.233-1.76866-.401-2.39672l-1.25-4.43666h-2.8295l3.2155 9.50139Zm-53.66 3.5071h-3.1597l-2.7889-5.6626h-.0255v5.6626h-2.5552V2.66807h2.5552v5.35111h.0255l2.7685-5.35111h2.9566l-3.3883 6.15504 3.6118 6.84839Zm3.7085 0h-2.5603V2.66808h4.1199c1.8745 0 3.2359 1.20589 3.2359 4.12513 0 2.2711-.8991 4.42159-3.1954 4.42159h-1.6001v4.4567Zm1.1328-10.44594h-1.1887v3.38147h1.2141c.7214 0 1.1888-.69335 1.1888-1.71836 0-.87929-.4217-1.66311-1.2142-1.66311Zm5.0191 10.44594h6.5989v-2.668h-4.0996v-2.5926h3.7186V7.74285h-3.7186V5.3361h3.9523V2.66808h-6.4516V15.6715Zm9.906 3.1001h-2.0269v-5.7681h.9499c.8332-1.3164.95-1.6279 1.2752-10.33542h6.7817V13.0035h1.1177v5.7681h-2.0321v-3.1001h-6.0655v3.1001ZM71.938 5.3361h-2.0066c-.1981 5.6576-.3657 6.572-1.0718 7.6724h3.0784V5.3361Zm4.9327 10.3354h2.6823l3.0686-7.48649v7.48649h2.5552V2.66808h-2.6877L79.426 10.1546V2.66808h-2.5553V15.6715ZM88.7629 5.40644h-2.3973V2.66808h7.3555v2.73836h-2.403V15.6715h-2.5552V5.40644ZM110.698 15.6715h-2.56V2.66808h4.12c1.885 0 3.236 1.20589 3.236 4.12513 0 2.2711-.899 4.42159-3.195 4.42159h-1.601v4.4567Zm1.134-10.44594H110.643v3.38147h1.209c.721 0 1.189-.69335 1.189-1.71836 0-.87929-.412-1.66311-1.209-1.66311Zm7.431 5.22054.732-3.04995c.142-.56777.31-1.35159.401-2.06507h.051c.056.49239.198 1.28124.381 2.06507l.706 3.04995h-2.271Zm2.845-7.77802h-3.22l-3.404 13.00342h2.555l.615-2.668h3.454l.564 2.668h2.687l-3.251-13.00342Zm6.848 11.81762c-.716 1.0552-1.605 1.1858-2.814 1.1858l-.387-2.8489c.508 0 1.017-.0603 1.423-.7134.589-.9698.747-3.70811.889-9.44112h7.223V15.6715h-2.555V5.3361h-2.305c-.275 6.3007-.575 7.8131-1.474 9.1496Zm19.05-9.15462v-2.663h-6.609V15.6715h4.186c1.88 0 3.236-1.1707 3.236-4.0899 0-2.26611-.899-4.27589-3.196-4.27589h-1.67V5.33108h4.053Zm-4.104 4.58741h1.279c.717 0 1.189.54761 1.189 1.56761 0 .8793-.421 1.628-1.214 1.628h-1.254V9.91849Zm10.261-2.52234-.732 3.04995h2.271l-.701-3.04995c-.188-.78383-.33-1.57268-.381-2.06507h-.051c-.096.71348-.264 1.4973-.406 2.06507Zm-1.107-4.72807h3.22l3.251 13.00342h-2.686l-.565-2.668h-3.454l-.615 2.668h-2.555l3.404-13.00342Zm7.6 13.00342h2.555v-5.4817h3.068v5.4817h2.555V2.66808h-2.555v4.85871h-3.068V2.66808h-2.555V15.6715Zm18.684 0h-3.15l-2.794-5.6626h-.026v5.6626h-2.555V2.66808h2.555v5.35111h.026l2.763-5.35111h2.962l-3.388 6.15503 3.607 6.84839ZM180 19.47H39.0704v6.6575H180V19.47ZM40.574 24.8511h.9094v-3.5723h1.8338v-.6784H40.574v4.2507Zm7.5083.0002h-.9042v-4.2508h1.7069c1.0363 0 1.4528.588 1.4528 1.3014 0 .9898-.7366 1.3516-1.4427 1.3516h-.8128v1.5978Zm0-3.5976v1.3466h.6045c.5335 0 .7874-.2562.7824-.7386 0-.3317-.1575-.608-.5893-.608h-.7976Zm7.3051 2.5475c-.0966.3064-.2338.3768-.4065.3768-.1066 0-.259-.0101-.4368-.0904l-.0763.7637c.2083.0653.4522.0904.6198.0904.6046 0 .9297-.5125 1.1176-.9245l1.4986-3.4116H56.693l-.691 1.8591c-.0142.0385-.0305.081-.0476.1255l-.0002.0004c-.0496.1297-.1061.277-.1401.3966h-.0203c-.0356-.1608-.0864-.3718-.1474-.5225l-.8128-1.8591H53.782l1.6054 3.1956Zm7.0053 1.0501h-.9042v-4.2508h3.4746v4.2508h-.9041v-3.5724h-1.6663v3.5724Zm6.7716 0h.9094v-3.5724h1.6611v3.5724h.9043v-4.2508h-3.4748v4.2508Zm9.2457-2.9846-.4978 1.3365h1.3309l-.4776-1.3365c-.066-.1809-.1269-.3969-.1726-.5828h-.0254c-.0306.1809-.0915.4019-.1575.5828Zm-1.0821 2.9846h-.9144l1.6155-4.2508h1.1532l1.5646 4.2508h-.95l-.3404-.9898h-1.7728l-.3557.9898Zm12.299 0h.9041v-3.5724h1.8335v-.6784h-2.7376v4.2508Zm7.6197-2.9846-.4925 1.3365h1.3254l-.477-1.3365c-.0662-.1809-.1276-.3969-.1677-.5828h-.0311c-.0253.1809-.0859.4019-.1571.5828Zm-1.0767 2.9846h-.9098l1.6159-4.2508h1.1528l1.5652 4.2508h-.9507l-.3453-.9898h-1.773l-.3551.9898Zm8.6711-.5829c-.723 0-.807-.4633-.857-.7451l-.001-.0035-.849.1859c.087.4522.325 1.2461 1.687 1.2461 1.016 0 1.707-.5326 1.707-1.2762 0-.6432-.478-.9748-.894-1.0251v-.01c.559-.1106.828-.5527.828-.9848 0-.5829-.513-1.1557-1.555-1.1557-1.011 0-1.549.4673-1.737 1.2109l.838.1709c.041-.402.28-.6984.879-.6984.416 0 .711.2161.711.5627 0 .402-.284.6181-.62.6181h-.553v.6783h.558c.499 0 .666.2612.666.5728-.005.432-.422.6531-.808.6531Zm6.62.5829h-.91v-4.2508h3.48v4.2508h-.909v-3.5724h-1.661v3.5724Zm6.771 0h.899v-1.5978h.808c.706 0 1.448-.3618 1.448-1.3516 0-.7134-.422-1.3014-1.453-1.3014h-1.707v4.2508h.005Zm.904-2.251v-1.3466h.793c.437 0 .594.2763.594.608 0 .4824-.254.7386-.782.7386h-.605Zm6.909.1206c0 1.0803.416 1.5475 1.062 1.5475.645 0 1.062-.4623 1.062-1.5475 0-1.0803-.417-1.5476-1.062-1.5476-.646 0-1.062.4673-1.062 1.5476Zm3.079.005c0 1.4571-.828 2.2259-2.017 2.2259-1.184 0-2.017-.7688-2.017-2.2259s.833-2.2259 2.017-2.2259c1.194 0 2.017.7688 2.017 2.2259Zm6.03 2.1254h.711l.96-2.7786c.096-.2864.198-.6883.218-.819h.052c-.011.1607-.011.3114-.011.462v3.1356h.833v-4.2508h-1.407l-.797 2.3616c-.076.2361-.173.6029-.189.7386h-.035c-.025-.1357-.107-.4975-.188-.7386l-.798-2.3616h-1.407v4.2508h.833V21.716c0-.1508 0-.2965-.01-.4623h.056c.015.1307.122.5326.218.819l.961 2.7786Zm8.677 0h-1.718v-4.2508h2.799v.6784h-1.89v.9144h.809c.7 0 1.447.3668 1.447 1.3567 0 .7184-.412 1.3013-1.447 1.3013Zm.584-1.3315c0-.4773-.193-.6682-.66-.6682h-.727v1.3415h.736c.458 0 .651-.3417.651-.6733Zm5.918-.3166.497-1.3365c.066-.1809.128-.4019.158-.5828h.025c.041.1859.107.4019.173.5828l.478 1.3365h-1.331Zm-1.499 1.6481h.915l.355-.9898h1.778l.341.9898h.945l-1.561-4.2508h-1.152l-1.621 4.2508Zm9.012 0h-.904v-4.2508h.904v1.6732h1.667v-1.6732h.904v4.2508h-.904V22.952h-1.667v1.8993Zm6.772 0h.909v-1.9495h.01l1.514 1.9495h1.148l-1.818-2.2359 1.706-2.0149h-1.081l-1.469 1.8088h-.01v-1.8088h-.909v4.2508Zm8.905-2.9846-.493 1.3365h1.326l-.478-1.3365c-.065-.1809-.126-.3969-.167-.5828h-.031c-.03.1809-.086.4019-.157.5828Zm-1.077 2.9846h-.909l1.615-4.2508h1.153l1.56 4.2508h-.945l-.345-.9898h-1.773l-.356.9898Z"/>
</svg>