<svg xmlns="http://www.w3.org/2000/svg" viewBox="0 0 200 23.4">
	<path fill="#fff" d="M89.9 11.7c0 6.4-5.2 11.7-11.7 11.7-6.5 0-11.7-5.2-11.7-11.7S71.7 0 78.2 0c6.5 0 11.7 5.2 11.7 11.7z"/>
	<path fill="#005baa" d="M2.4 11.9c-.1-.2 0-.5 0-.5.1-.2.2-.4.4-.5 0 0 1.1-.5 2-1.9 1.1-1.7 2.6-3.5 5.9-3.5v.8s0 .7-.6.8c-.9.1-2.6.8-3.6 2.7-.8 1.5-1.9 1.7-1.9 1.7l6.2 6.5c-1.5 0-2.4-.1-2.7-.2-.4-.1-.8-.5-1.5-1.2L2.5 12c0 .2-.1.1-.1-.1zm19 1.2c0 3.5-1.5 5.2-4.3 5.2-1.7 0-2.8-.5-3.4-1.4V22c-1 0-1.6-.1-1.8-.2-.2-.1-.3-.6-.3-1.5V8.1c.8 0 1.3.1 1.4.2.1.1.2.5.2 1.3C13.8 8.5 15.1 8 17 8c3-.1 4.4 1.6 4.4 5.1zm-2.1 0c0-1.1-.2-2-.5-2.5-.5-.6-1.2-.9-2.3-.9-1.4 0-2.2.2-2.5.5-.3.3-.4 1.3-.4 3 0 1.1.2 1.9.5 2.5.5.6 1.2 1 2.3 1 1.4 0 2.2-.2 2.5-.5.3-.4.4-1.4.4-3.1zm12.6-.8c0 .8-.1 1.4-.3 1.5-.2.1-.8.2-1.9.2h-5.3c0 .7.3 1.4.7 1.8.5.5 1.2.7 2.1.7h2.2c.8 0 1.3.1 1.5.2.2.1.2.6.2 1.5h-3.8c-3.3 0-5-1.7-5-5.1 0-3.4 1.6-5.1 5-5.1 1.5 0 2.6.5 3.4 1.3.8.7 1.2 1.7 1.2 3zm-2.2 0c0-1.8-.8-2.7-2.6-2.7-1.4 0-2.1.1-2.4.4-.3.3-.4 1-.4 2.4 0-.1 5.4-.1 5.4-.1zm13 5.8v.5c0 .8-.1 1.4-.3 1.5-.2.2-.8.2-1.8.2V18h-6.5v2.3c-1 0-1.6-.1-1.8-.2-.2-.1-.3-.6-.3-1.4v-.5c0-.9.1-1.4.2-1.5.1-.1.4-.2.8-.2 1.3-1.3 1.6-4.8 1.7-6.8v-.2c0-.7.1-1.1.2-1.3.1-.2.6-.2 1.5-.2h3.5c.8 0 1.3.1 1.5.2.2.1.2.5.2 1.3v7c.5 0 .8.1.9.2.2.1.2.6.2 1.4zm-3.2-2.3V9.7h-2.9c0 .6-.1 1.7-.2 2.9-.2 1.2-.5 2.7-1.1 3.8h3.5c.5 0 .6-.3.6-.5 0 .1.1-.1.1-.1zM2.2 18.2c-1.1 0-1.7-.1-1.9-.2-.2-.2-.3-.6-.3-1.5V5.6c1.1 0 1.7.1 1.9.2.2.2.3.6.3 1.5v10.9zm41.6-.1V8c1.1 0 1.7.1 1.9.2.2.1.3.5.3 1.3v5.9l3.8-6.1c.5-.6.7-1 1-1.1.1-.1.6-.2 1.5-.2h1.1v8.4c0 .9-.1 1.4-.3 1.6-.2.2-.8.2-1.9.2v-7.5l-3.8 6.1c-.5.7-.8 1.1-1 1.2s-.7.2-1.5.2c0-.1-1.1-.1-1.1-.1zM63.7 8c0 .9-.1 1.5-.2 1.6-.1.2-.6.2-1.5.2h-1.9V18c-1 0-1.6-.1-1.8-.2-.2-.2-.3-.6-.3-1.6V9.7h-3.7c0-.9.1-1.5.2-1.6.1-.1.6-.1 1.4-.1h7.8zM111.5 15.1c0-.8-.5-1.4-2-1.4h-4.1v2.7h4.1c1.1 0 1.7-.1 1.8-.2 0 .1.2-.3.2-1.1zm-2.2-5.6h-4v2.6h4.1c1 0 1.5-.1 1.6-.2.1-.1.2-.4.2-1.1 0-.8-.5-1.3-1.9-1.3zm-4.2 8.6c-.8 0-1.3-.1-1.5-.2-.1-.1-.2-.5-.2-1.3V9.3c0-.7.1-1.2.2-1.3.2-.1.6-.2 1.5-.2h4.2c2.6 0 3.8.9 3.8 2.7 0 1.1-.4 1.8-1.2 2.1l-.2.1.2.1c.5.2.8.5 1.1.9.3.5.5.9.5 1.5 0 2-1.4 3-4 3-.2-.1-4.4-.1-4.4-.1zm19.2-5.1c0 3.5-1.4 5.2-4.3 5.2-1.7 0-2.8-.5-3.4-1.4V22c-1 0-1.6-.1-1.8-.2-.2-.1-.3-.6-.3-1.5V8c.8 0 1.3.1 1.4.2.1.1.2.5.2 1.3.6-1 1.9-1.6 3.8-1.6 3-.1 4.4 1.6 4.4 5.1zm-2.1 0c0-1.1-.2-2-.5-2.5-.5-.6-1.2-.9-2.2-.9-1.4 0-2.2.2-2.5.5-.3.3-.4 1.3-.4 3 0 1.1.2 1.9.5 2.5.5.6 1.2 1 2.3 1 1.4 0 2.2-.2 2.5-.5.2-.4.3-1.4.3-3.1zm13.3 0c0 3.5-1.6 5.1-5 5.1-3.3 0-4.9-1.7-4.9-5.1 0-3.4 1.6-5.1 5-5.1 3.2 0 4.9 1.6 4.9 5.1zm-2.1 0c0-1.1-.2-1.9-.5-2.4-.5-.6-1.2-1-2.3-1-1.5 0-2.3.2-2.5.5-.3.3-.4 1.3-.4 3 0 2.3.9 3.5 2.8 3.5 1.5 0 2.3-.2 2.5-.5.2-.4.4-1.4.4-3.1zm12.3 4.8c-.2.2-.8.2-1.9.2v-8h-5v8c-1.1 0-1.7-.1-1.9-.2-.2-.2-.3-.6-.3-1.6V9.8c0-1 .1-1.6.2-1.7.2-.2.6-.3 1.6-.3h5.9c.9 0 1.4.1 1.6.3.2.2.2.7.2 1.7v6.4c-.1.9-.2 1.5-.4 1.6zm10.8.2c-.8 0-1.3-.1-1.4-.2-.1-.1-.2-.5-.2-1.4-.3.5-.7.8-1.4 1.1-.7.4-1.6.5-2.6.5-1.2 0-2.1-.3-2.7-.7-.7-.5-1.2-1.3-1.2-2.3 0-1 .4-1.8 1-2.4.7-.6 1.8-.9 3.2-.9h3.2c0-.7-.2-1.3-.6-1.6-.5-.3-1.1-.5-2.1-.5h-2.2c-.7 0-1.2-.1-1.4-.2 0 0-.1-.4-.1-1.3h3.6c1.9 0 3.2.4 3.9 1.2.6.6.9 1.6.9 3.1l.1 5.6zm-2.1-4.3v-.3h-2.8c-1.2 0-1.8.1-2 .2-.2.1-.3.6-.3 1.5 0 1 .7 1.5 2.3 1.5 1.5 0 2.3-.1 2.6-.4.1-.3.2-1.1.2-2.5zm-52.3 4.4h-6.7c-1.1 0-1.7-.1-1.9-.2-.2-.2-.3-.6-.3-1.6V7.2c0-.9.1-1.5.3-1.6.2-.2.8-.2 1.9-.2h4.9c.9 0 1.4.1 1.6.2.2.2.2.6.2 1.6h-6.7v3.5h4.3c.9 0 1.4.1 1.6.2.2.2.2.6.2 1.6h-6v3.8h4.8c1 0 1.6.1 1.6.2.1.3.2.7.2 1.6z"/>
  	<path fill="#ed1c24" d="M72.9 11.7l5.4 5.4 5.4-5.4-5.4-5.4-5.4 5.4zm-5.5 0c0-6 4.9-10.9 10.9-10.9s10.9 4.9 10.9 10.9-4.9 10.9-10.9 10.9c-6.1-.1-10.9-4.9-10.9-10.9zM192.9 18.1c-1.1 0-1.7-.1-1.9-.2-.2-.2-.3-.6-.3-1.6V7.8c1.1 0 1.7.1 1.9.2.2.1.3.6.3 1.4v8.7zm7.1-.1c-1.2 0-2.1 0-2.4-.1-.3-.1-.6-.4-1.2-.9l-3.2-3.7c-.1-.2-.2-.4-.2-.5 0 0 0-.5.4-.7 0 0 1-.5 1.8-1.6.9-1.4 2-2.6 4.8-2.6v.8s.1.8-.6.9c-.6.1-1.6.3-2.8 2-.7 1-1.2 1.2-1.2 1.2L200 18zm-21.5 0c-.8 0-1.3-.1-1.4-.2-.1-.1-.2-.5-.2-1.4-.3.5-.7.8-1.4 1.1-.7.4-1.6.5-2.6.5-1.2 0-2.1-.3-2.7-.7-.7-.5-1.2-1.3-1.2-2.3 0-1 .4-1.8 1-2.4.7-.6 1.8-.9 3.2-.9h3.2c0-.7-.2-1.3-.6-1.6-.5-.3-1.1-.5-2.1-.5h-2.1c-.7 0-1.2-.1-1.4-.2-.1-.2-.2-.6-.2-1.5h3.6c1.9 0 3.2.4 3.9 1.2.6.6.9 1.6.9 3.1V18zm-2-4.3v-.3h-2.8c-1.2 0-1.8.1-2 .2-.2.1-.3.6-.3 1.5 0 1 .7 1.5 2.3 1.5 1.5 0 2.3-.1 2.6-.4 0-.3.2-1.1.2-2.5zm-8.9-1.4c.1.1.1.2.2.3l.1.2c0-.3-.1-.4-.3-.5zm.7 2.1c0 2.5-1.6 3.7-5 3.7h-2.9c-1 0-1.6-.1-1.8-.2-.2-.2-.3-.6-.3-1.6V7.1c0-.9.1-1.4.3-1.6.2-.2.8-.2 1.8-.2h7.2s-.1 1-.2 1.3c-.1.3-.2.5-.8.5h-6.1v3.6h3.3c2.3 0 3.4 1 3.8 1.6.2.2.3.4.3.5.2.5.4.9.4 1.6zm-2.3 0c0-1.3-.9-1.8-2.7-1.8h-2.9v3.8h2.9c1.4 0 2.2-.1 2.4-.3.2-.3.3-.8.3-1.7zm23.3 3.6c-1.1 0-1.7-.1-1.9-.2-.2-.2-.3-.6-.3-1.6v-2.7h-5v4.6c-1.1 0-1.7-.1-1.9-.2-.2-.2-.3-.6-.3-1.6V7.9c1.1 0 1.7.1 1.9.2.2.2.3.6.3 1.6v2.1h5V7.9c1.1 0 1.7.1 1.9.2.2.2.3.6.3 1.6V18z"/>
</svg>