<svg xmlns="http://www.w3.org/2000/svg" viewBox="0 0 147 40">
	<g fill="#00247d">
		<path d="M73.8 17.9h3.1v7.5h3.3v-7.5h3v-3h-9.4v3zm56.7.7h-3.9v-3.7h-3.3v10.5h3.3v-3.8h3.9v3.8h3.3V14.9h-3.3v3.7zm11.7 1.3l4.5-5h-4.1l-3.4 4.2v-4.2h-3.3v10.5h3.3v-4.3l3.7 4.3h4.1l-4.8-5.5zm-38.3-4.6c-1.3 0-2.5.5-3.2 1.6.2-3 2.2-3.4 6.3-3.4v-3.1c-5.3 0-9.6 1.1-9.6 8.2 0 5.1 2.8 7 5.7 7 3 0 5.3-2.1 5.3-5.4.1-2.9-1.9-4.9-4.5-4.9zm-.9 7.6c-1.3 0-2.2-.9-2.2-2.4s1-2.4 2.2-2.4c1.3 0 2.2.9 2.2 2.4s-.9 2.3-2.2 2.4zm-33.9-6.8c-.7-.8-1.7-1.4-3-1.4-2.6 0-4.8 2.2-4.8 5.5 0 3.2 2.1 5.5 4.8 5.5 1.3 0 2.3-.5 3-1.4v1.1h3.3V14.9h-3.2v1.2h-.1zm-2.3 6.5c-1.3 0-2.2-.9-2.2-2.4s1-2.4 2.2-2.4 2.2.9 2.2 2.4-1 2.4-2.2 2.4zm-8.4-7.7h-8.2l-1 6.1c-.1.7-.3 1.1-.5 1.4h-1.9V28h3.3v-2.6h7V28h3.3v-5.6h-2v-7.5zm-3.3 7.4H52c.2-.3.3-.7.4-1.2l.5-3.2h2.2v4.4zm37.2-6.2c-.7-.8-1.7-1.4-3-1.4-2.6 0-4.7 2.2-4.7 5.5 0 3.2 2.1 5.5 4.8 5.5 1.3 0 2.3-.5 3-1.4v1.1h3.3V14.9h-3.3v1.2h-.1zm-2.2 6.5c-1.3 0-2.2-.9-2.2-2.4s1-2.4 2.2-2.4c1.3 0 2.2.9 2.2 2.4s-1 2.4-2.2 2.4zm27.9-6.5c-.7-.8-1.7-1.4-3-1.4-2.6 0-4.8 2.2-4.8 5.5 0 3.2 2.1 5.5 4.8 5.5 1.3 0 2.3-.5 3-1.4v1.1h3.3V14.9H118v1.2zm-2.3 6.5c-1.3 0-2.2-.9-2.2-2.4s1-2.4 2.2-2.4c1.3 0 2.2.9 2.2 2.4s-.9 2.4-2.2 2.4zM12.4 21.3c0 .3-.1.5-.1.8 0 .1 0 .2-.1.3h4.1v-7.2h-3l-.9 6.1zm15.4-3.6c-1.3 0-2.2.9-2.2 2.4s1 2.4 2.2 2.4c1.3 0 2.2-.9 2.2-2.4s-.9-2.4-2.2-2.4z"/>
		<path d="M32.1 0H8C3.6 0 0 3.6 0 8v32h32.1c4.4 0 8-3.6 8-8V8c0-4.4-3.6-8-8-8zM21.5 28h-3.3v-2.6h-8.1V28H6.8v-5.7h1.9c.2-.3.4-.7.5-1.4l1.4-9h9v10.3h1.9V28zm11.8-2.6H30v-1.2c-.7.8-1.6 1.4-3 1.4-2.7 0-4.8-2.3-4.8-5.5 0-3.3 2.1-5.5 4.8-5.5 1.3 0 2.3.6 3 1.4v-1.2h3.2l.1 10.6z"/>
	</g>
</svg>