<svg xmlns="http://www.w3.org/2000/svg" viewBox="0 0 146 29">
	<path fill="#1D478C" d="M18.9591 19.8236H16.461V8.3264H4.19538c0 2.9143-.03202 5.2522-.51247 7.526-.28818 1.3451-.70445 2.6581-1.345 3.9712H.03202L0 28.054h4.13134l.1601-4.0672H14.5395l.2882 4.0672h4.1314v-8.2304Zm-11.81742 0c.38425-.8327.70459-1.6974.92874-2.5941.38424-1.5372.57651-3.1385.70459-4.8678h2.78619v7.4619H7.14168ZM27.2856 24.275c1.8895 0 3.2986-.6404 4.3234-1.9535l.064.032v1.6333h4.7719V8.3264h-5.0281v1.6334l-.064.032c-1.0888-1.281-2.6581-1.9535-4.3233-1.9535-4.0353 0-7.1417 3.3306-7.1417 8.1344 0 4.8358 3.1064 8.1023 7.3978 8.1023Zm1.0568-4.4194c-1.9855 0-3.3627-1.4732-3.3627-3.6829 0-2.2418 1.4412-3.7149 3.3627-3.7149 1.8575 0 3.2986 1.5691 3.2986 3.7149 0 2.2417-1.5051 3.6829-3.2986 3.6829Zm14.5074 4.1312h5.0279V12.3937h4.2274V8.3264H38.5905v4.0673h4.2593v11.5931Zm17.71.2882c1.8895 0 3.2985-.6404 4.3233-1.9535l.064.032v1.6333h4.7719V8.3264h-5.028v1.6334l-.0641.032c-1.0888-1.281-2.6581-1.9535-4.3233-1.9535-4.0353 0-7.1417 3.3306-7.1417 8.1344 0 4.8358 3.1064 8.1023 7.3979 8.1023Zm1.0568-4.4194c-1.9855 0-3.3627-1.4732-3.3627-3.6829 0-2.2418 1.4412-3.7149 3.3627-3.7149 1.8575 0 3.2985 1.5691 3.2985 3.7149 0 2.2417-1.5051 3.6829-3.2985 3.6829Zm19.5673 4.4194c4.5476 0 8.0704-3.3626 8.0704-8.1663 0-4.4836-3.1704-7.558-6.8213-7.558-2.6902 0-4.4195 1.345-5.3483 2.9463l-.064-.032c.1921-3.5548.9607-5.2202 4.5796-5.8607l6.5011-1.1849L86.8844 0l-6.1808 1.08884c-6.5972 1.15287-8.0704 5.47636-8.1024 12.58586-.0321 5.7325 2.2098 10.6003 8.5827 10.6003Zm-.2241-4.4194c-1.8575 0-3.2986-1.5372-3.2986-3.7149 0-1.5052 1.0889-3.2987 3.2025-3.2987 1.8575 0 3.3307 1.3772 3.3307 3.4268 0 2.1776-1.5053 3.5868-3.2346 3.5868Zm17.4858 4.4194c1.8894 0 3.2984-.6404 4.3234-1.9535l.064.032v1.6333h4.772V8.3264h-5.028v1.6334l-.064.032c-1.089-1.281-2.658-1.9535-4.3236-1.9535-4.0353 0-7.1417 3.3306-7.1417 8.1344 0 4.8358 3.1064 8.1023 7.3979 8.1023Zm1.0564-4.4194c-1.9851 0-3.3623-1.4732-3.3623-3.6829 0-2.2418 1.4412-3.7149 3.3623-3.7149 1.858 0 3.299 1.5691 3.299 3.7149 0 2.2417-1.505 3.6829-3.299 3.6829Zm11.465 4.1312h4.996v-5.6044h4.964v5.6044h5.028V8.3264h-5.028v6.0209h-4.964V8.3264h-4.996v15.6604Zm18.415 0h4.932v-4.3875l1.505-1.7934 3.939 6.1809h5.669l-5.829-8.9991 5.508-6.6613h-5.828l-4.9 6.213h-.064v-6.213h-4.932v15.6604Z"/>
</svg>