<svg xmlns="http://www.w3.org/2000/svg" viewBox="0 0 139.6 47.5">
	<g fill="#db082b">
		<path d="M66.5 11.7c1-.8 1.5-2.2 1.4-3.7-.1-1.4-.8-2.1-1.4-2.5-.7-.4-1.6-.5-2.8-.5h-1.1l.3-2h4.4l.5-2.5H60l-1.4 12.2h4.6c.7 0 2.2-.1 3.3-1zm-4.1-4.1h1c.2 0 .5 0 .8.3.2.2.3.5.3.7 0 .6-.2 1-.5 1.3-.2.2-.5.3-.9.3h-1l.3-2.6zm8.7 5.1l1-2.3H75l.4 2.3h3.1L76.3.5h-3.2l-5.3 12.2h3.3zm2.6-6.8c.2-.6.2-.4.6-1.9-.1.9-.1 1.3 0 1.7l.3 2.2h-1.5l.6-2zm9.2 1.7h2.5l-.6 5.1H88L89.4.5h-3.1L85.8 5h-2.5l.5-4.5h-3.2l-1.4 12.2h3.2l.5-5.1zm11-.3h.5c.2 0 .7.1 1 .4.3.3.3.8.4 1.2l.2 1.4c0 .6 0 1 .5 1.5.6.8 1.5.8 2.2.9l.9.1.9-2-.5-.2c-.2-.1-.4-.1-.6-.3-.4-.3-.4-.7-.5-1.1l-.4-1.3c-.1-.4-.2-.8-.4-1.1s-.6-.6-1-.7V6c.7-.1 1-.5 1-.5.1-.1.4-.4.8-1.3l.5-1.1c.1-.2.3-.5.5-.7.2-.1.4-.2.6-.2l.8-.2-.5-2-1 .1c-.8.1-1.3.2-1.8.6-.4.3-.7.7-1 1.4l-.5 1.4c-.1.4-.3.8-.6 1-.4.4-.8.4-1.1.4h-.7l.6-4.6h-3.1l-1.4 12.2h3.1l.6-5.2zM66.5 19.1c-.1-.7-.3-1.4-1.2-2.1-.4-.2-1.3-.7-3.2-.7h-4l-1.4 12.2h3.1l.5-4.3h1.2c1.2 0 2.9-.3 4.1-1.6.6-.9 1-2.2.9-3.5zm-3.7 2.1c-.5.5-1 .5-1.3.5h-.9l.3-2.8h1c.2 0 .6 0 .9.2.2.2.3.4.3.6 0 .5-.1 1.2-.3 1.5zm8.2-4.8l-5.3 12.2h3.4l1-2.3H73l.4 2.3h3.2l-2.3-12.2H71zm0 7.4l.7-2c.2-.6.2-.4.6-1.9-.1.9-.1 1.3 0 1.7l.3 2.2H71zm14.4-2.7c.4-.5.7-1.3.6-2.1-.1-1.1-.7-1.7-1.1-2.1-.8-.6-1.8-.7-2.7-.7-1 0-1.8.1-2.7.4-.5.2-1 .3-1.3.6l1.1 2.3c.9-.6 1.6-.7 2.2-.7.3 0 .7 0 1 .3.2.2.3.5.3.7.1.6-.1 1-.5 1.2-.4.2-1 .3-1.4.3H80l-.3 2.3v.1h1c.6 0 1 0 1.2.2.4.3.5.7.5.9 0 .7-.2 1.1-.6 1.3-.4.3-.9.4-1.4.4s-.9-.1-1.2-.2c-.3-.1-.7-.3-1-.6l-1.4 2.1c.4.3.9.6 1.3.8.8.4 1.7.5 2.4.5 1.8 0 3-.5 3.9-1.2 1-.9 1.5-2.2 1.4-3.5 0-.5-.2-1-.5-1.3 0 0-.5-.7-1.4-.9.6-.3 1.2-.7 1.5-1.1zm11.4-2.4c-.1-1.4-1.2-2.4-2.8-2.4v.1h-5.4l-1.4 12.2h4.9c4 0 4.6-2.9 4.5-4.2-.1-1.2-1-2-1.9-2.3 1.7-.6 2.2-2.2 2.1-3.4zM91.9 26h-1.2l.3-2.4h1.1c.8 0 1 .3 1 .8.1.8-.4 1.6-1.2 1.6zm.5-5h-1.2l.2-2.1h1.2c.7 0 1 .2 1 .7.1.9-.5 1.4-1.2 1.4zm10.3.7c-.4.8-.7 1.3-1 2.1.1-.3.3-1.7.4-2.3l.6-5.1h-3.1l-1.4 12.2h3.2l2.9-5.3c.5-1 1-1.8 1-2.1-.3 1.6-.4 2-.4 2.3l-.6 5.1h3.1l1.4-12.2h-3.2l-2.9 5.3zm9.1 6.9h3l1.1-9.7h2.9l.7-2.6h-9.2l-.3 2.6h2.9l-1.1 9.7zm10.7 0l2.9-5.3c.5-1 1-1.8 1-2.1-.3 1.6-.4 2-.4 2.3l-.6 5.1h3.1l1.4-12.2h-3.1l-2.9 5.3c-.4.8-.7 1.3-1 2.1.1-.3.3-1.7.4-2.3l.6-5.1h-3.1l-1.4 12.2h3.1zm16.6-9.7l.5-2.6h-7l-1.4 12.3h7.2l.3-2.6h-4.2l.3-2.5h3l.3-2.5h-3l.2-2.1h3.8zM59.2 37.1c.2-.7.4-1.3.8-1.7s1-.8 1.7-.8c.5 0 1.2.1 1.8.6l1.4-2.1c-.5-.4-1.3-.9-3-.9-2.4 0-3.7 1-4.4 1.6-1.7 1.7-2.3 4.5-2.1 6.9 0 .8.3 1.9 1.3 2.9 1.1 1 2.5 1.2 3.3 1.2 1.1 0 2.7-.2 3.9-1.3l-1.1-2.2c-.4.4-1.1.9-2.1.9-.5 0-1-.2-1.2-.5-.4-.4-.6-1-.6-1.3-.1-.5 0-1.3 0-1.7.2-.5.2-1.1.3-1.6zm6.2-4.8l-.3 2.6H68l-1.1 9.6H70l1.1-9.6H74l.7-2.6h-9.3zm19.9 4.3c-.2-1.6-.8-2.6-1.3-3.3-1-1.1-2.3-1.3-3.3-1.3-2.2 0-3.7.9-4.8 2.2-1.3 1.6-1.8 4.2-1.6 6.3 0 .9.3 2.1 1.3 3.1 1.1 1 2.4 1.2 3.4 1.2 2 0 3.4-.7 4.5-1.8 1.4-1.6 2-4.2 1.8-6.4zm-4.1 3.9c-.7 1.8-1.6 1.9-2.1 1.9-.4 0-.8-.1-1-.3-.5-.4-.6-1.2-.6-1.4-.1-1.3.2-3.2.6-4.2.6-1.4 1.3-1.8 2.2-1.8.2 0 .7 0 1 .3.4.4.5 1 .4 1.3.2 1.6-.1 3.1-.5 4.2zm10.6 4.1v-.2.2zm-3.4-10.2c-.2 1.2-.6 3.6-.9 4.8-.1.6-.4 1.4-.6 1.9-.2.4-.4.7-.8.9-.2.1-.6.3-.9.4l-.4.1.4 2.2 1-.1c1-.1 2-.4 2.7-1.1.6-.7.9-1.7 1-2.4.3-1.2.5-2.4.7-3.5l.5-2.9H93l-1.1 9.6H95l1.4-12.2h-7.7l-.3 2.3zm13.7 3.3c-.4.8-.7 1.3-1 2.1.1-.3.3-1.7.4-2.3l.6-5.1H99l-1.4 12.2h3.2l2.9-5.3c.5-1 1-1.8 1-2.1-.3 1.6-.4 2-.4 2.3l-.6 5.1h3.1l1.4-12.2H105l-2.9 5.3zm16.2 4.2l1.2-9.6h-3.2l-1.1 9.6h-2.4l1.1-9.6h-3l-1.4 12.2h6.9l-.4 3h2.9l.7-5.6h-1.3zm6.6-9.5l-5.3 12.2h3.4l1-2.3h2.9l.4 2.3h3.1l-2.2-12.2h-3.3zm0 7.4l.7-2c.2-.6.2-.4.6-1.9-.1.9-.1 1.3 0 1.7l.3 2.2h-1.6zM50.3.3h-7.5c-.5 0-1 .4-1 .9l-2.4 22.4c-.1.4-1.6 11.9-13.2 11.9H14.5c-.5 0-1 .4-1 .9l-.8 7.6c0 .2 0 .4.2.5.1.1.3.2.5.2h11.7c20.9 0 23.3-20.6 23.4-21.4l2.4-22.2c0-.2 0-.4-.1-.5-.1-.2-.3-.3-.5-.3z"/>
		<path d="M24.1 20.8h7.1c1.9 0 3.6-1.5 3.8-3.4l.3-2.8c0-.2 0-.4-.2-.5-.1-.1-.3-.2-.5-.2h-9.8c-3.4 0-8.8 2.3-9.4 8.7-.7 6.3 4.2 8.7 7.6 8.7h6c1.9 0 3.6-1.5 3.8-3.4l.3-2.7c0-.2 0-.4-.2-.5-.1-.1-.3-.2-.5-.2h-8.7c-1.1 0-1.6-1.2-1.5-1.7.1-.7.2-2 1.9-2z"/>
		<path d="M24.6 9.5h11.7c.5 0 1-.4 1-.9l.8-7.6c0-.2 0-.4-.2-.5-.1 0-.3-.1-.4-.1H25.8C4.8.3 2.4 20.8 2.3 21.6L0 44c0 .2 0 .4.2.5.1.1.3.2.5.2h7.5c.5 0 1-.4 1-.9l2.4-22.4c0-.4 1.4-11.9 13-11.9z"/>
	</g>
</svg>