<svg xmlns="http://www.w3.org/2000/svg" viewBox="0 0 181.7 31.9">
	<path fill="#f65e64" d="M17.2 25.2h2.6v6.7h-3v-4H3v4H0v-6.7c1.9-.5 3-1.8 3.6-3.1.3-.7.5-1.6.6-2.9.4-2.5.4-5 .4-10.2h12.7l-.1 16.2zm-3 0V11.7H7.7c-.1 8.1-.7 11.5-3 13.5h9.5zm42.5 2.7V11.7h-7.3c0 6.2-.1 10.2-1 12.8-.5 1.4-1.6 3.2-3 4.1l-2.3-2.3c1.3-1 1.9-1.9 2.4-3.2.4-1 .5-2.4.6-4.9 0-2.6.1-5.1.1-9.3h13.6v19h-3.1zM40 24.6c-1.7 2.4-4.7 3.8-8.1 3.8-5.6 0-9.8-4.1-9.8-9.9s4-9.9 9.6-9.9c5.2 0 9.7 3.8 9.7 9.3 0 .8 0 1.4-.2 2H25.1c.6 3.4 3.2 5.5 6.8 5.5 2.5 0 4.9-1.2 5.9-3.1.1.1 2.2 2.3 2.2 2.3zm-14.9-7.5h13.2c-.2-1.7-1.1-3.1-2.2-4.1-3.4-3.2-10.8-1.2-11 4.1zM85.8 9h-13c-5.3 0-9.5 4.3-9.5 9.5s4.3 9.5 9.5 9.5h12.9c5.3 0 9.5-4.3 9.5-9.5S91 9 85.8 9zm-.1 16.2c-3.7 0-6.7-3-6.7-6.7s3-6.7 6.7-6.7 6.7 3 6.7 6.7-3 6.7-6.7 6.7zm70 2.3v-8.3h-10v8.3h-3.2v-19h3.2v7.9h10V8.5h3.2v19h-3.2zm21.6 0l-7.4-8.1h-3.4v8.1h-3.2V18 8.5h3.2v8h3.5l7.2-8h4l-8.3 9.2 8.9 9.8h-4.5zm-38.9-3.2c-.4.6-.9 1-1.6.8-.6-.2-1-.7-1-1.4v-9.3c0-3.6-3.1-6.3-7.4-6.3-2.6 0-4.8.9-6.1 2.2l2.1 2.1c.7-.9 2.1-1.5 3.8-1.5 2.6 0 4.4 1.6 4.4 3.8v1.4c-2.9.3-5 .6-6.2.9-3.8.8-6.1 2.8-6.1 5.9 0 3 2.4 5 6 5 2.6 0 4.7-.5 6.3-2.5.4 1.7 2 2.5 4.1 2.5 1.4 0 2.7-.6 3.5-1.7l-1.8-1.9zm-5.8-2.4c-1.4 1.9-3.6 3-5.9 3-1.9 0-3.1-.8-3.1-2.4 0-1.3 1-2.2 2.7-2.7 1.3-.4 3.4-.5 6.3-.9v3zM108.8 8.8c-2.6-.1-5 .8-6.8 2.4.3-2.7 2.2-5 4.7-5.8 3.1-1 7.2.5 11.2-3.2L115.7 0c-2.9 2.8-6.5 1.6-9.3 2.3-4.3 1.1-7.4 5.1-7.5 9.7v6.3c0 5.3 4.3 9.5 9.5 9.5 5.4 0 9.7-4.5 9.5-9.9-.1-4.9-4.1-8.9-9.1-9.1zm.2 16c-4 .3-7.3-3-6.9-6.9.3-3.1 2.8-5.6 5.9-5.9 4-.3 7.3 3 6.9 6.9-.3 3.1-2.8 5.6-5.9 5.9z"/>
</svg>