<svg xmlns="http://www.w3.org/2000/svg" viewBox="0 0 159.8 33.5">
	<path fill="#a3002f" d="M143.3 33.5c-.8-.3-1.1-1-1.1-1.8v-2.2c0-.2-.1-.3-.3-.4-2.2-.3-4.1-1.1-5.9-2.5 0 0-.1 0-.2-.2-.1.1-.1.3-.2.3-.6.6-1.2 1.2-1.8 1.7-.4.4-1 .6-1.6.4-.9-.3-1-1.2-.5-1.9.2-.4.5-.7.8-1l1.4-1.4c-1.5-1.9-2.5-4.1-2.7-6.5h-3c-.6 0-1.3-.4-1.4-.9-.3-.7.1-1.5.9-1.7.3-.1.6-.1.9-.1h2.6c.3-2.3 1.1-4.5 2.6-6.4L131.9 7c-.6-.5-.7-1.2-.5-1.8.2-.4.7-.8 1.2-.7.4.1.8.2 1.2.6.6.6 1.3 1.2 1.9 1.9 1-.7 1.9-1.4 3-1.8 1.1-.4 2.2-.7 3.4-.9V1.6c0-.8.4-1.4 1.2-1.6h.3c.9.3 1.2 1 1.2 1.8V4c0 .3.1.3.3.4.7.1 1.5.3 2.2.5 1.1.3 2.2.8 3.1 1.5l.9.6 1.8-1.8c.6-.6 1.6-.7 2.1-.1.4.5.4 1.4-.1 1.9l-1.7 1.7-.2.2c1.5 1.9 2.3 4 2.6 6.4h2.1c.8 0 1.6.2 1.9 1.1v.5c-.3.8-.9 1.1-1.7 1.1h-2.3c-.3 2.4-1.2 4.6-2.7 6.5l1.7 1.7c.2.2.3.4.5.6.4.7.2 1.7-.6 1.9-.6.1-1.1 0-1.5-.4s-.9-.8-1.3-1.3c-.2-.2-.4-.4-.5-.6-1.9 1.5-4 2.3-6.3 2.6-.2 0-.2.2-.2.3v2.2c0 .8-.3 1.5-1.1 1.8-.1.2-.3.2-.5.2zm5.4-23c-1.3-1-2.7-1.6-4.4-1.7v3.9c0 .1.1.2.2.2.4.2.9.3 1.3.5 1-.9 1.9-1.9 2.9-2.9zm-4.3 14.4c1.2 0 3.2-.8 4.2-1.7-.2-.2-.4-.3-.6-.5l-2-2c-.2-.2-.4-.4-.7-.2-.2.1-.5.2-.7.3-.2 0-.2.1-.2.3v3.8zm-8.8-7c.2 1.5.8 2.9 1.8 4.1.9-1 1.8-1.9 2.7-2.8.1-.1.1-.2 0-.3-.1-.2-.2-.5-.3-.7-.1-.3-.2-.3-.5-.3h-3.7zm1.6-6c-.9 1.2-1.5 2.5-1.6 4.1h3.6c.4 0 .6-.1.6-.5 0-.2.2-.5.3-.7-1-.9-1.9-1.9-2.9-2.9zm14.5 6h-3.6c-.4 0-.6.1-.7.5 0 .1-.1.3-.2.4-.1.2-.1.3.1.4.9.8 1.7 1.7 2.6 2.5 0 0 .1.1.2.1.7-.8 1.5-2.6 1.6-3.9zm-1.6-6c-.9 1-1.9 1.9-2.8 2.8v.2c.1.2.2.4.3.7.1.2.2.3.4.3h3.8c-.3-1.4-.8-2.8-1.7-4zm-8.7 1.5c.3-.1.6-.2.8-.4.1-.1.2-.2.2-.3V8.8c-1.4.2-2.7.8-3.8 1.6 1 1.1 1.9 2 2.8 3zm1.1 11.5V21.2c0-.4-.2-.5-.5-.6s-.5-.2-.8.1l-2.4 2.4-.2.2c1.2.9 2.4 1.4 3.9 1.6z"/>
	<path fill="#013370" d="M12.4 11.4c-.7-.8-1.6-1.5-2.6-1.9-1.5-.6-3-.8-4.6-.8H0v21.2h7.8c.3 0 .6 0 .8-.1 2.2-.6 3.8-1.9 4.9-3.9 1-1.8 1.3-3.7 1.4-5.7 0-1.4-.1-2.9-.4-4.3-.3-1.7-1-3.2-2.1-4.5zM8.8 22.3c-.3.8-.8 1.4-1.5 1.9-.4.3-1 .4-1.5.4-.2 0-.2-.1-.2-.3V13.8c1.1-.1 2 .4 2.6 1.3.6 1 1 2 1.1 3.2.1 1.3 0 2.7-.5 4zm68.1-2.6c-.3-.2-.7-.5-1-.7.4-.3.9-.6 1.3-1 .6-.5 1.1-1.2 1.1-2 .1-.6.1-1.2.1-1.8 0-1-.3-1.9-.9-2.7-1.3-1.9-3.2-2.8-5.5-2.8-2.4-.1-4.8 0-7.2 0h-.3v21.2h8.9c1 0 1.9-.2 2.8-.6 1.1-.5 1.8-1.3 2.3-2.4.5-1.3.6-2.6.5-3.9-.4-1.5-1-2.5-2.1-3.3zm-6.8-5.6c0-.3.1-.4.3-.3.4 0 .7.1 1.1.1.5.1.8.4.9.9.1.4 0 .8-.1 1.3s-.5.7-.9.8c-.4.1-.8 0-1.2 0v-.6c-.1-.8-.1-1.5-.1-2.2zm1.4 10.7h-1.4v-3.5c.7 0 1.5-.1 2.1.2.5.2.7.7.8 1.2v.4c.1 1-.6 1.6-1.5 1.7zm51 2.4c-.9-1.8-1.8-3.6-2.6-5.5v-.3c.8-1.5 1.7-2.9 2.6-4.4l1.2-2.1h-6.2l-2.4 6.3c-.3-.5-.4-.9-.4-1.3V8.8h-5.2v21h5.3v-7.3h.1c0 .1.1.1.1.2.8 2.2 1.5 4.5 2.3 6.8.1.3.2.4.5.4h6c-.5-1-.9-1.9-1.3-2.7zM87.9 16.7c-.2-.1-.3-.2-.4-.3-.4-.6-.9-1.1-1.6-1.4-1.1-.5-2.2-.4-3.3.2-1.2.7-1.8 1.9-2.2 3.2-.6 1.9-.7 3.9-.4 5.9.3 1.7.8 3.4 2 4.7 1.1 1.3 3.2 1.6 4.5.3.4-.4.7-.8 1.1-1.3.1-.1.1-.2.2-.2h.1c0 .6-.1 1.2-.1 1.9h5.6V14.8h-5.6c.1.7.1 1.3.1 1.9zm-.4 8c-.2.4-.4.6-.8.7-.4 0-.7-.2-.9-.6-.8-1.6-.9-3.2-.1-4.8.2-.3.4-.6.8-.6s.7.3.9.6c.4.7.6 1.5.5 2.2 0 1-.1 1.8-.4 2.5zm19.1-8.8c-.9-1.2-2.6-1.5-3.9-.9-.8.4-1.4 1.2-1.8 1.9-.1.2-.2.3-.3.5h-.1c.1-.8.1-1.6.2-2.4h-5.5v14.9h5.7v-7.6c0-.5.1-.9.2-1.4.1-.3.4-.4.7-.4.3 0 .6.2.7.5s.2.6.2.9v7.9h5.3v-.2c0-3.4 0-6.8-.1-10.2-.2-1.3-.5-2.5-1.3-3.5zm-64.1 2.7c-.2-1.2-.6-2.3-1.5-3.2-.9-.9-2.9-1-3.9-.2-.5.4-.8.9-1.2 1.4-.2.2-.3.5-.5.8h-.1c.1-.8.1-1.6.2-2.4h-5.1v14.9h5.2v-7.6c0-.4.1-.8.2-1.3.1-.3.3-.5.6-.5.4 0 .6.1.8.5.1.3.2.6.2.9v7.9h5.3v-9.4c-.1-.6-.1-1.2-.2-1.8zm-13.9 5c-.1-1-.1-2-.3-2.9-.4-2.2-1.4-4-3.3-5.2-1.2-.8-2.6-1.1-4-.8-2.3.4-3.8 1.8-4.6 3.9-.4.9-.6 1.9-.7 3-.1 1.8 0 3.6.9 5.3.9 1.8 2.4 2.8 4.3 3.2 1.5.3 2.9.1 4.3-.7 1.8-1 2.7-2.5 3.1-4.4h-5.1c-.1.3-.2.5-.3.8-.4.6-1.4.6-1.7 0s-.4-1.3-.3-2.1c2.5-.1 5-.1 7.7-.1zm-7.1-4.9c.6-.3 1.3-.1 1.6.6.1.3.2.6.2.9 0 .1-.1.3-.2.3h-2.3c-.1-.6.3-1.5.7-1.8zm30.1-3.8v4.6h3.7c0 .1 0 .2-.1.3l-3.9 8.4c-.2.5-.4 1-.3 1.7h11.4v-4.6h-4.1v-.1l1.2-3c.9-2 1.9-3.9 2.9-5.9.2-.4.2-.8.2-1.3-3.6-.1-7.3-.1-11-.1zm-7 14.9h5.2V14.9h-5.2v14.9zM49.5 9h-4.6v4.5h4.6V9z"/>
</svg>