<svg viewBox="0 0 160 35" xmlns="http://www.w3.org/2000/svg">
	<path fill="#6A2538" d="M0 0h34.084v34.084H0V0Zm47.9746 24.4996h-6.3535v9.7881h3.8121c.7666.0612 1.5357-.0816 2.2292-.4139.42-.25.7619-.6121.9875-1.0456.2173-.4296.327-.9056.3195-1.3869.0147-.5645-.145-1.1198-.4575-1.5902-.2889-.4427-.7227-.7713-1.2271-.9294-.6703-.1897-1.3658-.2754-2.0622-.2542h-2.3308v-3.0134h5.0828v-1.1545Zm-2.4688 8.7134h-2.585v-3.4418h1.7282c.6109-.0133 1.2215.0353 1.8226.1452.3381.0848.6345.2884.835.5737.206.298.3104.6545.2977 1.0165.0178.239-.0201.4788-.1109.7006-.0907.2218-.2317.4194-.4119.5774-.4599.3206-1.0167.472-1.5757.4284Zm14.9653-8.6844-3.754 9.7881 1.3723-.0653 1.0384-2.9045h4.1534l1.14 2.9698h1.4522l-4.0009-9.7881h-1.4014ZM62.86 30.265h-3.3183l1.612-4.7053L62.86 30.265Zm11.6034-5.7654v9.7881h1.2997v-4.6181h5.0829v4.6181h1.2997v-9.7881H80.846v4.0154h-5.0829v-4.0154h-1.2997Zm18.6685 0h-1.2925l-.0654 9.7881h1.2925v-4.5818c.4289-.0146.848.1303 1.1763.4066.4406.4538.8191.9642 1.1255 1.5176l1.641 2.6576h1.5757l-2.0113-3.2603c-.3838-.7866-1.0388-1.408-1.8444-1.75.2988-.1237.5739-.2981.8133-.5155.3707-.4681.6537-.9995.835-1.5684.1609-.4673.4071-.9006.7261-1.278.1249-.1109.2711-.1951.4297-.2476.1585-.0524.3261-.0719.4925-.0573h.5301v-1.1183c-.2612-.0145-.523-.0145-.7842 0-.3757-.0069-.7465.0858-1.0747.2687-.2899.1642-.5384.3927-.7261.668-.2616.4324-.4852.8867-.668 1.3579-.219.5966-.5301 1.1553-.9222 1.6555-.3608.2622-.8049.3835-1.2489.3413v-4.2841ZM65.8084 13.6145v-2.9044h6.339V6.73094h-6.339V4.18226h7.3846V.0361328H61.1758V17.7607h12.2496v-4.1462h-7.617ZM45.346 0h12.4239v13.6147h1.7717v7.4427h-3.8992v-3.2966h-9.897v3.2966h-3.9065v-7.4427h1.2925c.7999-1.3125 1.3788-2.7476 1.7136-4.24779.3552-1.64586.5233-3.32659.501-5.01021V0Zm2.8609 13.6147h4.9304V4.17518H49.739v1.57567c.0148 1.62825-.1385 3.25369-.4574 4.85045-.2181 1.0491-.5797 2.0631-1.0747 3.0134ZM153.697.0361328h-4.422L142.994 17.7316h4.901l1.002-3.1223h5.156l1.024 3.1514H160L153.697.0361328ZM150.067 10.8698l1.452-4.57454h.043l1.453 4.57454h-2.948ZM118.074.0361328h4.414L128.827 17.7607h-4.923l-1.024-3.1514h-5.155l-1.009 3.1514h-8.975l-4.357-6.7021v6.6948h-4.6324v-6.7021l-4.3567 6.7021h-5.642l6.7239-9.43953L88.8764.0361328h5.5693L98.7516 6.07017V.0361328h4.6104V6.07017l4.285-6.0267759h5.576L106.615 8.32113l5.693 7.98727L118.074.0361328Zm2.214 6.2591272-1.496 4.59634 2.948-.0218-1.452-4.57454ZM87.6132 1.28494C86.2987.397104 84.7319-.0410705 83.1476.0360222h-6.9054V17.7533h4.6181v-5.809h2.1784c1.3873.0511 2.7647-.2539 4.0009-.8858 1.4014-.7987 2.5414-2.33085 2.5414-5.15545 0-2.22918-.7624-3.72498-1.9678-4.61811Zm-3.4563 6.08487c-.5103.34289-1.1232.49932-1.7355.44293h-1.5321V4.18215h1.6338c.7261 0 2.1784 0 2.1784 1.75721.0219.26398-.0156.52951-.1099.77706-.0942.24756-.2428.47083-.4347.65339Zm58.8081 3.93569c.094.4144.138.8386.131 1.2634l-.015.0363c0 2.2219-.907 3.5362-2.178 4.2623-1.353.6634-2.852.9708-4.357.8932h-7.058V.0361328h7.465c2.236 0 3.572.6825502 4.356 1.6119772.693.88423 1.051 1.98517 1.01 3.10779.036.92659-.26 1.83555-.835 2.56319-.296.36249-.655.66767-1.06.90039.943.40243 1.715 1.12499 2.178 2.04042.161.3334.283.6843.363 1.0456Zm-6.942-7.12324h-1.895l-.014 2.48333h2.069c.212.01732.425-.01427.623-.09233.197-.07806.374-.2005.517-.35787.183-.24261.283-.53824.283-.84229.013-.2829-.086-.55951-.276-.76969-.176-.15804-.383-.27723-.608-.34979-.225-.07256-.463-.09688-.699-.07136Zm.603 9.43224c.368-.0014.728-.1072 1.038-.3049.193-.124.35-.2967.455-.5008.104-.204.153-.4321.141-.661.025-.2289-.013-.4604-.11-.6692-.098-.2087-.25-.3867-.442-.5144-.488-.2341-1.028-.3391-1.568-.305h-2.012v2.9553h2.498Z"/>
	<path fill="#fff" d="M16.9836 32.3997c3.3403-.005 6.5558-1.2698 9.0043-3.542 2.4485-2.2721 3.9497-5.3843 4.2038-8.7149H3.76831c.25091 3.3331 1.75215 6.4483 4.20289 8.7213 2.4507 2.273 5.6699 3.5358 9.0124 3.5356Zm8.1035-8.6336c-.8137 1.4329-1.9927 2.6244-3.4168 3.4534-1.4241.829-3.0425 1.2657-4.6903 1.2657-1.6478 0-3.2661-.4367-4.6903-1.2657-1.4241-.829-2.60303-2.0205-3.41679-3.4534H25.0871ZM16.2648 1.7793h-3.6306v4.13161c-2.5995.90379-4.85287 2.59493-6.44696 4.83839-1.5941 2.2434-2.44973 4.9277-2.44798 7.6799v.167H16.2648V1.7793Zm-3.6306 13.1645H8.32832c.82692-2.0506 2.35208-3.7429 4.30588-4.7778v4.7778Zm17.5575 3.4854c.0018-2.7522-.8539-5.4365-2.448-7.6799-1.5941-2.24346-3.8474-3.9346-6.4469-4.83839V1.7793h-3.6306v16.8241h12.5255v-.1742Zm-8.8949-3.4709V10.166c1.9599 1.0362 3.4884 2.7345 4.3131 4.7923h-4.3131Z"/>
</svg>