<svg viewBox="0 0 145 40" xmlns="http://www.w3.org/2000/svg">
	<path fill="#231F20" d="M42.0837 21.0485V10.5254h6.012v1.4268h-4.5084v2.7061h3.4566v1.427h-3.4566v3.5453h4.6591v1.4297l-6.1627-.0118Zm9.4094-1.1274h1.7725c.5702 0 .8273-.1064.9927-.2955.164-.1814.2547-.4172.2541-.6618-.0029-.2384-.0934-.4677-.2541-.6438-.1654-.1802-.4225-.2955-.9927-.2955h-1.7725v1.8966Zm1.2025-3.0075c.5581 0 .7827-.1034.9482-.2689.3421-.3519.3421-.9123 0-1.2642-.1655-.1655-.3901-.2689-.9482-.2689h-1.2025v1.802h1.2025Zm.3306-2.9307c.8126 0 1.2794.195 1.6398.5112.414.3596.6545.8787.6619 1.4271-.0065.4703-.1888.9215-.5112 1.2642.6858.3224 1.121 1.0149 1.1136 1.7725.0056.546-.2071 1.0713-.5906 1.4595-.3752.3901-.9159.6471-1.8053.6471h-3.4562v-7.0816h2.948Zm8.1946 5.8638c-.7688-.0148-1.4865-.3873-1.9409-1.0075v-2.647c.4792-.6299 1.2232-1.0022 2.0147-1.0075.026 0 .052.0003.078.0011 1.2492.0376 2.2313 1.0805 2.1938 2.33.0003.0187.0003.0376 0 .0565-.0198 1.2758-1.0698 2.2939-2.3456 2.2744Zm-3.3677 4.8095h1.4268l.003-4.2248c.5932.5103 1.3537.7839 2.1358.7682.6211-.0006 1.2318-.1616 1.7728-.4668.5138-.315.9449-.7484 1.2572-1.264 1.0796-1.784.5087-4.1054-1.2749-5.185-1.2578-.7115-2.8237-.5741-3.9382.3457v-.6471h-1.3825v10.6738Zm14.2658-8.4637c-.4771-.6305-1.2211-1.0031-2.0118-1.0075-1.2497-.0053-2.2673 1.0033-2.2729 2.2531 0 .026.0003.052.0012.0777-.0119 1.2761 1.0131 2.3197 2.2892 2.3312.0186.0003.0375.0003.0564 0 .7679-.0142 1.485-.387 1.9379-1.0075v-2.647Zm.0473 4.2097c-.6036.5253-1.3801.8093-2.1802.7977-.621-.0006-1.2318-.1616-1.7727-.4668-1.1305-.6751-1.8168-1.9004-1.802-3.2173-.0092-1.3227.6819-2.5521 1.8167-3.2317.5259-.3043 1.124-.4606 1.7314-.452.8093-.0124 1.5949.2712 2.2098.7977v-.6471h1.3913v7.0665H72.178l-.0118-.647Zm2.975-.6464c.8167.9378 2.0065 1.4667 3.2498 1.4445 1.6513 0 2.9307-.8893 2.9159-2.4136-.0115-.6181-.3336-1.1889-.8568-1.5187.3586-.3646.5584-.8562.5554-1.3676 0-1.3618-1.3086-2.068-2.6293-2.068-1.0294-.0269-2.0283.3507-2.7829 1.0516l.7534.9632c.5428-.45 1.2188-.7085 1.9232-.7357.6618 0 1.2941.2836 1.2941.9307.0059.2145-.0963.4175-.2718.5407-.2533.1515-.5493.2148-.8421.1802h-1.0075v1.2052h.9927c.585 0 .9159.0738 1.1434.2688.1696.1608.2668.3838.2686.6175 0 .6767-.6142 1.0664-1.4563 1.0664-.8837-.0006-1.7299-.3584-2.3457-.9925l-.9041.8273Zm8.1682-5.7733h1.4268v4.7268l4.1184-4.7268h.978v7.0665h-1.4271v-4.7267l-4.1211 4.7267h-.975v-7.0665Zm12.2746-1.1322c1.1623.0438 2.1403-.8633 2.1837-2.0259h-1.2025c.0021.0345.0021.0688 0 .1034-.0284.4984-.4556.8793-.954.8509-.4985-.0287-.8796-.4559-.851-.9543H93.558c.0411 1.1014.9245 1.9849 2.026 2.0259Zm-1.8605 1.1322h-1.4271v7.0665h.978l4.1181-4.7267v4.7267h1.4271v-7.0665h-.9751l-4.121 4.7268v-4.7268Zm13.9535 5.5628c-.71 1.037-1.886 1.6563-3.143 1.6543-2.18 0-3.773-1.5805-3.773-3.6838-.053-1.9817 1.51-3.6312 3.492-3.6844.069-.0021.138-.0018.207.0003 1.173.0024 2.278.5478 2.993 1.4773l-1.008.8418c-.495-.5874-1.217-.9375-1.985-.963-1.235-.0206-2.253.9635-2.274 2.1986 0 .044 0 .0883.002.1323-.031 1.256.961 2.2996 2.217 2.3312.043.0012.086.0009.129-.0003.846-.0213 1.634-.4325 2.136-1.1139l1.007.8096Zm6.614 1.5037h1.908l-3.938-3.8938 3.486-3.1727h-1.955l-3.008 2.7061v-2.7061h-1.427v7.0665h1.427v-3.4595l3.507 3.4595Zm3.159-7.0665h1.426v4.7268l4.122-4.7268h.975v7.0665h-1.427v-4.7267l-4.118 4.7267h-.978v-7.0665Zm12.28-1.1322c1.162.0438 2.14-.8633 2.183-2.0259h-1.202c.004.0484.004.0975 0 .1459-.04.4979-.476.8684-.974.8282-.498-.0405-.868-.4766-.828-.9741h-1.205c.041 1.1014.924 1.9849 2.026 2.0259Zm-1.861 1.1322h-1.427v7.0665h.978l4.118-4.7267v4.7267h1.43v-7.0665h-.978l-4.121 4.7268v-4.7268ZM43.5866 34.8864v3.5452h1.9527c.9484 0 1.3975-.2098 1.7284-.5407.3173-.3356.4911-.7818.4843-1.2439 0-.4547-.1782-.8917-.4961-1.217-.3309-.3309-.78-.5436-1.7284-.5436h-1.9409Zm-1.5036-5.56h6.1624v1.4271h-4.6588v2.7061h2.2541c1.0666 0 1.7724.2568 2.2983.7059 1.3748 1.154 1.5536 3.2039.3998 4.5784-.1214.1445-.255.2783-.3998.3995-.5407.4491-1.2317.7061-2.2983.7061H42.083V29.3264Zm12.1301 4.6584c.7918.0041 1.5367.3764 2.0147 1.0075v2.647c-.4529.6204-1.17.9933-1.9379 1.0075-.0189.0003-.0378.0003-.0564 0-1.2761-.0115-2.3011-1.0551-2.2892-2.3312-.0009-.0248-.0012-.0496-.0012-.0747.0038-1.2498 1.0202-2.26 2.27-2.2561Zm-.1182 6.0149c.8001.0115 1.5766-.2724 2.1802-.7977l.0029.647h1.3825v-7.0665H56.278v.6471c-.6148-.5265-1.4007-.8102-2.2097-.7978-.6075-.0085-1.2055.1478-1.7314.4521-1.1348.6796-1.8259 1.909-1.8168 3.2317-.0147 1.3169.6716 2.5422 1.802 3.2173.541.3052 1.1517.4659 1.7728.4668Zm6.0275-7.2167h1.4297v2.5998h3.7432V32.783h1.427v7.0665h-1.427v-3.1874h-3.7432v3.1874h-1.4297V32.783Zm13.9964 7.0665h1.9113l-3.9556-3.8938 3.5035-3.1727h-1.9556l-3.0045 2.7061V32.783h-1.4298v7.0665h1.4298V36.39l3.5009 3.4595Zm8.361-6.0888h2.4047c.7209 0 1.1139-.1802 1.3828-.4668.5628-.5744.5628-1.4936 0-2.068-.2689-.2954-.6619-.4668-1.3828-.4668h-2.4047v3.0016Zm-1.5036 6.0888V29.3264h3.9999c1.0223 0 1.6838.2541 2.195.6911 1.2368 1.0492 1.3889 2.9023.3397 4.1391-.1037.1223-.2174.2361-.3397.3398-.5112.4373-1.1816.6911-2.195.6911h-2.4816v4.662h-1.5183Zm11.5155-5.8647c.7915.0053 1.5355.3775 2.0147 1.0075v2.647c-.4532.6202-1.17.9927-1.9379 1.0075l-.0188.0002h-.0213l-.0163-.0002c-1.2761-.0115-2.3011-1.0551-2.2892-2.3312l-.0006-.02-.0003-.0144-.0001-.0088-.0002-.0315c.0038-1.2498 1.0202-2.26 2.27-2.2561Zm-.1211 6.0149c.8001.0115 1.5765-.2724 2.1802-.7977v.647h1.3854v-7.0665h-1.3854v.6471c-.6143-.5274-1.4005-.8111-2.2098-.7978-.6066-.0085-1.2037.1478-1.7284.4521-1.1361.679-1.8283 1.9084-1.8198 3.2317-.0135 1.3175.674 2.5425 1.805 3.2173.541.3052 1.1517.4659 1.7728.4668Zm8.4044.0006c-1.2371.0177-2.4195-.5108-3.2317-1.4445l.9011-.8273c.6163.6332 1.462.991 2.3456.9925.842 0 1.459-.3897 1.459-1.0663-.003-.2343-.101-.4571-.271-.6175-.225-.195-.556-.2689-1.141-.2689h-.9924v-1.2052h1.0074c.293.0346.589-.0286.842-.1802.175-.1235.276-.3268.269-.5407 0-.6471-.629-.9307-1.291-.9307-.7054.0281-1.382.2863-1.9262.7357l-.7505-.9632c.7529-.7014 1.7512-1.0793 2.7797-1.0515 1.324 0 2.633.7061 2.633 2.0679.002.5117-.199 1.0036-.559 1.3676.525.3286.848.8997.86 1.5187 0 1.5243-1.279 2.4136-2.934 2.4136Zm8.115-1.2801h-1.757v-1.8966h1.757c.573 0 .828.1152.993.2955.163.1749.255.4047.257.6438.001.2452-.091.4816-.257.6618-.165.1891-.42.2955-.993.2955Zm.37-3.2764c-.166.1655-.39.2689-.946.2689h-1.181v-1.802h1.181c.556 0 .78.1034.946.2688.342.3519.342.9124 0 1.2643Zm1.034-2.1506c-.364-.3162-.828-.5112-1.64-.5112h-2.963v7.0816h3.471c.886 0 1.427-.2571 1.802-.6471.385-.3876.598-.9135.591-1.4595.007-.7576-.428-1.4502-1.114-1.7725.323-.3427.505-.7939.512-1.2643-.007-.548-.246-1.0672-.659-1.427Zm3.185-.5102h1.429v4.7268l4.119-4.7268h.978v7.0665h-1.427v-4.7267l-4.136 4.7267h-.978l.015-7.0665Zm8.147 1.2791h2.364l-.006 5.7874h1.427v-5.7874h2.363v-1.2794h-6.148v1.2794Zm7.777-1.2791h1.427v4.7268l4.121-4.7268h.975v7.0665h-1.427v-4.7267l-4.118 4.7267h-.978V32.783Zm13.228 1.2022v1.9498l-1.772.0059c-.618 0-.89-.1359-1.07-.3605-.28-.364-.28-.8707 0-1.2347.183-.2246.452-.3605 1.07-.3605h1.772Zm-2.827 3.0962-2.133 2.7681h1.701l2.03-2.7061h1.232v2.7061h1.427v-7.0668h-3.459c-.842 0-1.354.195-1.729.5259-.077.0671-.149.1392-.216.2163-.794.9136-.697 2.2984.216 3.0926.264.2337.585.3938.931.4639Z"/>
	<path fill="url(#a)" d="M0 15.7867c0 8.7192 7.06827 15.7875 15.7876 15.7875-5.5777-.338-7.89382-3.1573-7.89382-6.3148 0-3.1573 2.65262-6.3149 7.89382-9.4727H0Z"/>
    <radialGradient id="a" cx="0" cy="0" r="1" gradientUnits="userSpaceOnUse" gradientTransform="rotate(-45 26.95022404 -11.1637483) scale(15.6589)">
		<stop stop-color="#99D98C"/>
		<stop offset=".0584617" stop-color="#99D98C"/>
		<stop offset=".65" stop-color="#CCEBB5"/>
		<stop offset=".751153" stop-color="#CCEBB5"/>
		<stop offset=".99879" stop-color="#fff" stop-opacity="0"/>
    </radialGradient>
	<path fill="url(#b)" d="M23.6806 6.31566c0 3.15728-2.6523 6.31484-7.8935 9.47244h15.7876c0-8.71931-7.0683-15.78728316-15.7876-15.78728316C21.3645.338527 23.6806 3.15809 23.6806 6.31566Z"/>
    <radialGradient id="b" cx="0" cy="0" r="1" gradientUnits="userSpaceOnUse" gradientTransform="rotate(-45 26.95147257 -11.16266547) scale(15.6589)">
		<stop stop-color="#99DEF9"/>
		<stop offset=".65" stop-color="#CCEFFC"/>
		<stop offset=".6942" stop-color="#CCEFFC"/>
		<stop offset="1" stop-color="#fff" stop-opacity="0"/>
    </radialGradient>
	<path fill="url(#c)" d="M0 15.7871h15.7876c5.2411-3.1573 7.8935-6.31484 7.8935-9.47212 0-3.15757-2.6524-6.3148476-7.8935-6.3148476C7.06827.0001324 0 7.06811 0 15.7871Z"/>
    <radialGradient id="c" cx="0" cy="0" r="1" gradientUnits="userSpaceOnUse" gradientTransform="translate(15.7875 15.7874) scale(15.7875)">
		<stop stop-color="#4DC6F4"/>
		<stop offset=".485427" stop-color="#4DC6F4"/>
		<stop offset="1" stop-color="#99DEF9"/>
    </radialGradient>
	<path fill="url(#d)" d="M15.7873 15.7869c-5.2411 3.1576-7.89375 6.3152-7.89375 9.4725 0 3.1575 2.65265 6.3148 7.89375 6.3148 8.7193 0 15.7876-7.0683 15.7876-15.7873H15.7873Z"/>
    <radialGradient id="d" cx="0" cy="0" r="1" gradientUnits="userSpaceOnUse" gradientTransform="translate(15.7873 15.7869) scale(15.7875)">
		<stop stop-color="#4DBD38"/>
		<stop offset=".485427" stop-color="#4DBD38"/>
		<stop offset="1" stop-color="#9CDA8E"/>
    </radialGradient>
  
</svg>