<svg xmlns="http://www.w3.org/2000/svg" viewBox="0 0 180 29.9">
	<path fill="#dd9311" d="M138.5 19.7h4.4c.8 0 1.8-.1 2.7-.6.6-.4 1.5-1.3 1.5-2.7 0-1.1-.4-1.7-.8-2-.7-.5-1.6-.6-2.4-.6h-1.6l.2-1.5h4.5l.4-2.4H140l-1.5 9.8zm3.1-2l.3-2.1h1.1c.4 0 .8 0 1 .2.1.1.3.3.3.7 0 .4-.2.7-.5.9s-.8.2-1.1.2l-1.1.1c0-.1 0 0 0 0zm5.5 2h3l.9-1.7h3.3l.3 1.7h2.9l-1.9-9.9h-3.3l-5.2 9.9zm6.4-7.5l.6 3.6h-2.3l1.7-3.6zm5.1 7.5h2.8l.6-4h3.3l-.6 4h2.8l1.6-9.9h-2.8l-.6 3.5h-3.3l.6-3.5h-2.8l-1.6 9.9zm15.2-9.8H171l-1.6 9.9h2.8l.7-4.2 2.3 4.2h3.3l-3-5L180 10h-3.2l-3.6 4.1.6-4.2z"/>
	<g fill="#8c261e">
		<path d="M18.5.2C17.8.1 17 0 16.3 0c-2.6 0-5.1.7-7.5 1.8-2.4 1.2-4.6 3-6.3 5.1l3.4 3.5C6.4 9.6 7 9 7.7 8.3L6 6.7c1.4-1.3 3-2.4 4.7-3.1 1.6-.7 3.4-1.1 5.2-1.1.6 0 1.3 0 1.9.1 5.9.8 9.6 6.4 8.6 12.3-.5 3.4-2.4 6.5-5 8.8-2.6 2.2-5.9 3.6-9.4 3.6-3.4 0-6.7-1.4-8.6-4.1l2.3-1.8c-.5-.6-.9-1.3-1.1-2.1L0 22.9c1 2.1 2.6 3.9 4.7 5.2 1.9 1.2 4.3 1.8 6.9 1.8 4.1 0 8.1-1.7 11.3-4.4 3.1-2.7 5.4-6.4 6.1-10.6.6-3.7-.3-7.6-2.8-10.6C24.3 2.2 21.7.7 18.5.2z"/>
		<path d="M8.9 13.9h13.8c0-2.1-.7-4-2.1-5.4-1.3-1.3-3.2-2.1-5.4-2.1-2.4 0-4.7 1-6.6 2.6-1.8 1.6-3.2 3.7-3.5 6.2-.1.3-.1.8-.1 1.2 0 1.9.6 3.5 1.7 4.8s2.6 2.2 4.5 2.5c.4.1.9.1 1.3.1 2.2 0 4.3-.8 6.1-2.1 1.8-1.4 3.1-3.2 3.8-5.4H8.5c.1.9.4 1.7.9 2.4h9l-.1.1c-.1.1-.1.2-.2.2-.7.7-1.5 1.3-2.4 1.7-.9.4-1.8.6-2.7.6-1.6 0-3.1-.6-4.1-1.7-.8-.9-1.2-2.1-1.2-3.4 0-.3 0-.6.1-1 .3-1.7 1.2-3.3 2.5-4.4S13.3 9 15 9c1 0 1.9.2 2.8.7.8.4 1.4 1.1 1.8 1.9h-8.9c-.8.6-1.4 1.4-1.8 2.3zm29.6-4.4c-1.5 0-2.9.7-4 1.7l1.6 1.7.2-.2c.4-.5 1.1-.8 1.9-.8.7 0 1.2.3 1.5.6.3.3.4.7.4 1.1H37l-.3 1.9H40c-.2.5-.4.9-.6 1.2-.4.5-1.1.8-1.9.8-.7 0-1.2-.3-1.5-.6-.1-.2-.3-.3-.4-.5l-2.1 1.7c0 .1.1.2.1.2.8 1 2 1.7 3.4 1.7h.1c1.2 0 2.5-.3 3.6-1.2 1-.8 2.1-2.2 2.1-4.6.1-1.7-.5-2.7-1.1-3.3-.5-.8-1.5-1.4-3.2-1.4zm12 3.9h-3.3l.6-3.5H45l-1.6 9.8h2.8l.6-4h3.3l-.6 4h2.8l1.6-9.8h-2.8l-.6 3.5zm17.4-3.5h-4.2l-1.6 9.9H65l.5-3.2h1.4c.9 0 2.1-.2 3.1-1.2.5-.5 1-1.3 1-2.5 0-.8-.2-1.4-.5-1.8-.7-1.2-2-1.2-2.6-1.2zm-.1 3.9c-.3.3-.9.4-1.2.4h-.8l.4-2.2h.8c.4 0 .8.1 1 .3.1.2.2.4.2.6-.1.4-.2.7-.4.9zm-13.6 5.9h5.9l.4-2.4h-3.2l.3-1.5h2.8l.4-2.2h-2.9l.2-1.3h3.1l.4-2.4h-5.9l-1.5 9.8zm51.7-8.8c-.7-1-2-1-2.6-1h-4.2l-1.6 9.9h2.8l.5-3.2h1.4c.9 0 2.1-.2 3.1-1.2.5-.5 1-1.3 1-2.5.1-1-.1-1.6-.4-2zm-2.7 2.9c-.3.3-.9.4-1.2.4h-.8l.3-2.2h.8c.4 0 .8.1 1 .3.1.2.2.4.2.6 0 .4-.1.7-.3.9zm20.9-.4h-3.4l.6-3.5h-2.8l-1.6 9.8h2.8l.6-4h3.4l-.7 4h2.8l1.6-9.8h-2.8l-.5 3.5zM72.7 9.9l-1.6 9.8h2.8l1.2-7.5h3.1l.4-2.3h-5.9zm61.9 7c-.4.3-1 .6-1.7.6s-1.3-.3-1.6-.8c-.5-.7-.5-1.4-.3-2.3.1-.7.3-1.3 1-1.9.3-.3 1-.6 1.7-.6s1.3.3 1.6.8c.1.1.1.2.2.3l2.1-1.8c-.8-1.2-2.1-1.7-3.6-1.7-1.6 0-2.8.5-3.6 1.2-.8.6-1.6 1.7-2 3.3-.6 2.4.1 3.8.9 4.6.9 1 2.1 1.2 3.3 1.2 1.6 0 3.1-.6 4.2-1.8l-1.7-1.8c-.1.3-.3.5-.5.7zm-24.1-7l-5 9.9h3l.9-1.7h3.3l.3 1.7h2.9L114 9.9h-3.5zm-.3 5.9l1.7-3.6.6 3.6h-2.3zM84.3 9.6c-1.2 0-2.6.3-3.7 1.2-1 .8-2.1 2.2-2.2 4.6-.1 1.7.5 2.7 1.1 3.3.7.7 1.8 1.2 3.5 1.2 1.2 0 2.6-.3 3.7-1.2 1-.8 2.1-2.2 2.2-4.6.1-1.7-.5-2.7-1.1-3.3-.7-.7-1.8-1.2-3.5-1.2zm1.7 4.7c0 1.3-.5 2-.9 2.5-.4.4-1.1.8-1.9.8s-1.3-.3-1.6-.6c-.4-.5-.5-1.2-.5-1.7 0-1.3.5-2 .9-2.5s1.2-.8 1.9-.8c.8 0 1.3.3 1.6.6.5.6.6 1.2.5 1.7zm3.8-2.1H92l-1.2 7.5h2.8l1.2-7.5h2.1l.4-2.3h-7.1l-.4 2.3z"/>
	</g>
</svg>