<svg viewBox="0 0 171 33" xmlns="http://www.w3.org/2000/svg">
	<path fill="#3C46FA" d="M0 16.083c0 8.8828 7.26953 16.084 16.2371 16.084 8.9682 0 16.2378-7.2012 16.2378-16.084-.0032-4.2734-1.7159-8.36815-4.7559-11.37206C24.6614 1.68946 20.5359-.00292589 16.2371.0000038 7.26953.0000038 0 7.20215 0 16.083Zm46.1094-3.6797c1.6152-.1201 3.0998.8809 3.5791 2.4141h-5.6067c-.0862-.0127-.1731.0146-.2356.0752-.0618.0596-.0925.1465-.082.2314v1.7989c-.0054.0459.0009.0918.0175.1337.0142.0372.0359.0713.0645.0997.0625.0605.1487.0908.2356.081h5.6975c-.3643 1.6914-1.927 2.8633-3.6699 2.751-1.3955.081-2.73-.5801-3.5108-1.7393-.1137-.1123-.2268-.1123-.386 0l-1.4602 1.0723c-.1091.085-.1289.2412-.0454.3525 1.5786 2.3008 4.4817 3.3213 7.1717 2.5196 2.6899-.8008 4.5432-3.2383 4.5788-6.0205.033-1.6748-.6282-3.2891-1.8264-4.459-1.2048-1.1787-2.8379-1.81351-4.5217-1.76077-2.1223-.02051-4.1126 1.02737-5.2971 2.78707l-.0125.0166c-.0789.1104-.0525.2647.0586.3438l1.3997 1.0644c.0131.0127.0275.0245.0432.0352.1291.085.3032.0488.3882-.0801.7734-1.1172 2.0617-1.7637 3.4199-1.7168Zm10.7251-2.1914c-.0606-.0596-.1455-.0888-.2303-.0791h-1.9829c-.0854-.0088-.1704.0195-.2321.0791-.0618.0596-.0928.1436-.0855.2285v11.5713c-.01.0869.0203.1719.0828.2324.0625.0596.1494.0879.2348.0752h1.9822c.085.0098.1697-.0195.2302-.0791.0606-.0595.0901-.1435.0804-.2275v-4.7744h5.5693v4.7353c-.0083.0664.009.1348.0466.1895.0103.0156.0222.0293.0354.042.0625.0605.1494.0879.2356.0752h1.9973c.085.0097.1697-.0186.2303-.0791.0605-.0596.0901-.1436.0803-.2276V10.4404c.0098-.0849-.0198-.1689-.0803-.2285-.0606-.0596-.1453-.0888-.2303-.0791h-1.9821c-.0855-.0097-.1712.0195-.2329.0791-.0618.0596-.0928.1436-.0855.2285v4.3086h-5.5837v-4.3086c.0097-.0849-.0198-.1689-.0796-.2285Zm22.03 10.3604c.0889-.0967.0823-.2481-.0151-.3369l-1.0826-1.4991c-.0124-.0166-.0275-.0312-.0441-.0439-.1006-.0762-.2432-.0557-.3189.0439-1.105.9112-2.5124 1.3741-3.9424 1.2969-1.7204.1094-3.289-.9717-3.7822-2.6084h9.6614c.1823 0 .2729-.1123.2729-.3144v-.8916c.075-1.669-.5525-3.293-1.7309-4.4766-1.1853-1.1904-2.8096-1.8379-4.4888-1.78907-1.7092-.07031-3.3721.56547-4.5972 1.75977-1.2182 1.1865-1.8857 2.8281-1.8415 4.5283 0 3.5899 2.686 6.2422 6.5295 6.2422 1.9573.0303 3.8613-.6426 5.3648-1.8955l.0151-.0156Zm-1.9297-5.583h-7.2786c.4742-1.6231 2.011-2.712 3.7146-2.6309 1.7857 0 3.3824 1.0723 3.564 2.6309Zm4.552 10.7597c.0603.0606.1445.0918.23.085l2.0278-.0225c.0867.0098.1736-.0205.2354-.082.0405-.04.0674-.0908.0783-.1455.0059-.0283.0074-.0576.004-.0869v-4.1748c1.0188.7929 2.29 1.1904 3.5791 1.1172 1.6897.0781 3.3344-.5538 4.5354-1.7452 1.1938-1.1836 1.8283-2.8193 1.7443-4.499.0762-1.6787-.559-3.3125-1.7509-4.498-1.1983-1.1924-2.8391-1.83304-4.5288-1.76663-1.3633-.04785-2.6932.42973-3.7154 1.33403h-.1584l-.1973-.8702c-.0315-.1601-.1777-.2724-.3408-.2617h-1.5127c-.0847-.0097-.1697.0195-.23.0791-.0605.0596-.0903.1436-.0803.2285v15.0782c-.0093.0849.0203.1699.0803.2304Zm6.0789-5.7383c-1.3325.0459-2.6255-.456-3.5791-1.3867v-4.789c.9128-.9971 2.2302-1.5244 3.5791-1.4317 1.0161-.0351 1.9995.3604 2.707 1.0899.7039.7256 1.063 1.7177.9854 2.7256.073 1.0039-.2881 1.9912-.9913 2.7119-.3459.3545-.7573.6299-1.2058.8134-.4687.1924-.978.2852-1.4953.2666Zm8.2915 2.1944c.0625.0605.1494.0888.2356.0762l1.9519-.001c.0862.0127.1731-.0147.2356-.0752.0625-.0596.0927-.1455.0827-.2315V12.584h6.552c.087.0098.173-.0205.235-.082.062-.0616.093-.1475.083-.2334v-1.8282c-.008-.1689-.147-.3037-.318-.3076h-8.8222c-.0835-.0019-.1646.0293-.2244.0869-.0598.0576-.0933.1377-.0933.2207v11.5332c-.0105.086.0203.1719.0821.2315Zm22.6008-5.9043c.052-3.4356-2.705-6.2695-6.173-6.34767-1.698-.03809-3.34.60547-4.561 1.78617-1.214 1.1748-1.899 2.79-1.901 4.4795.006 3.4365 2.807 6.2255 6.277 6.249 3.469.0215 6.307-2.7305 6.358-6.167Zm-6.188 3.6953c-2.107 0-3.814-1.6924-3.814-3.7773 0-2.086 1.707-3.7784 3.814-3.7784 2.106 0 3.813 1.6924 3.813 3.7784 0 2.0849-1.707 3.7773-3.813 3.7773Zm17.748-9.8496c-.04-.0137-.083-.0186-.126-.0137h-9.011c-.085-.0097-.17.0195-.231.0791-.06.0596-.09.1436-.08.2285v11.5332c-.005.0469.001.0928.018.1348.014.0352.035.0664.062.0938.061.0595.146.0888.231.0791h5.697c2.61 0 4.729-1.5811 4.729-4.0997 0-2.5185-2.119-4.0849-4.729-4.0849h-3.398v-1.5586h6.712c.085.0068.169-.0234.23-.084.06-.0605.089-.1455.08-.2305v-1.7832c.01-.0849-.02-.1689-.08-.2285-.03-.0293-.065-.0517-.104-.0654Zm-3.44 9.7285h-3.398v-3.3867h3.398c1.361 0 2.118.6445 2.118 1.6933 0 1.0489-.764 1.6934-2.118 1.6934Zm10.177 2.6084c1.602.0566 3.16-.5283 4.328-1.626l.106.0381.567 1.4004c.017.0811.071.1475.144.1826.075.0352.161.0352.235-.0019l1.603-.5098c.03-.0068.059-.0176.086-.0332.146-.085.196-.2715.111-.417l-.287-.9365c-.226-.8194-.326-1.668-.295-2.5176v-3.8828c0-3.0059-2.407-4.18946-5.063-4.18946-1.906-.05469-3.774.54296-5.295 1.69336-.014.0098-.027.0215-.04.0332-.135.1318-.139.3496-.007.4844l.878 1.2217c.138.1582.373.1875.545.0673 1.156-.7744 2.528-1.163 3.919-1.1093 1.347 0 2.452.4502 2.452 1.499v.2627l-3.965.5176c-2.769.3515-4.411 1.7382-4.411 4.0312 0 2.294 1.801 3.792 4.389 3.792Zm.015-5.5312 3.964-.6446v2.0313c-.876 1.1435-2.267 1.7802-3.714 1.7021-1.423 0-2.051-.5849-2.051-1.499 0-.7871.568-1.3867 1.801-1.5898Zm11.589-6.7403c-.062-.0596-.147-.0879-.232-.0791h-1.967c-.086-.0088-.171.0195-.233.0791s-.092.1436-.085.2285v11.5713c-.011.086.02.1719.082.2324.063.0606.149.0879.236.0752h1.982c.086.0127.173-.0156.235-.0761.03-.0293.053-.0635.067-.1016.015-.041.021-.085.016-.1289v-4.7744h5.584v4.7353c-.01.084.02.168.08.2276.061.0605.146.0888.23.0791h1.967c.086.0127.173-.0147.235-.0752.062-.0596.093-.1465.083-.2315V10.4404c.007-.0849-.024-.1689-.086-.2285-.062-.0596-.147-.0879-.232-.0791h-1.982c-.085-.0097-.17.0195-.231.0791-.06.0596-.09.1436-.08.2285v4.3086h-5.584v-4.3086c.008-.0849-.023-.1689-.085-.2285Zm12.976-.0722c-.033-.0088-.068-.0108-.103-.0069h-1.982c-.086-.0097-.171.0195-.233.0791s-.093.1436-.086.2285V21.958c-.01.0859.021.1719.083.2315.063.0605.15.0888.236.0761h1.982c.085.0098.17-.0195.23-.0791.06-.0595.09-.1435.08-.2275v-3.9727l1.332-1.0117 4.124 5.0889c.143.1543.349.2344.559.2168h2.702c.204 0 .294-.1719.136-.3291l-5.721-6.4903 5.38-5c.159-.1494.091-.3291-.114-.3291h-2.746c-.209-.0078-.415.0547-.583.1797l-5.069 4.9473v-4.8184c.01-.0849-.02-.1689-.08-.2285-.035-.0351-.08-.0596-.127-.0722Z"/>
	<path fill="#fff" d="M15.7761 25.9395c-3.8106-.1789-7.18327-2.496-8.68741-5.9679-1.50415-3.4727-.87276-7.501 1.62055-10.34817.24335-.27688.66558-.30451.94313-.0605.00855.00723.0171.01512.02499.02302l1.72514 1.70865c.24.2342.2598.6117.046.8695-1.74351 2.0842-1.90005 5.0701-.3834 7.3254 1.5166 2.2585 4.3473 3.2674 6.9689 2.4828 2.6209-.784 4.4151-3.1767 4.4157-5.889-.0039-1.466-.5419-2.8807-1.5133-3.9791-.2282-.2479-.2282-.6294 0-.8773l1.7626-1.73106c.2506-.26505.6689-.27689.9346-.02631.0092.00855.0177.0171.0263.02631 2.6834 2.94776 3.3115 7.22866 1.5877 10.82296-1.7232 3.5943-5.4589 5.8107-9.4715 5.62v.0007Z"/>
</svg>