<svg xmlns="http://www.w3.org/2000/svg" viewBox="0 0 160 36">
	<g fill="#003867">
	<path d="M47.5 16.4c-.9 2.2-2.6 5.6-4.9 10.3-1.3-2.8-2.3-4.8-3-6.1-.4-.8-.6-1.3-.8-1.6-.4-.9-.8-1.7-1.1-2.6h-5.1v.8c.9.1 1.3.1 1.5.2.1 0 .1.1.2.1l.1.1c.1.2.1.7.1 1.5v3.6c0 2 0 3.8-.1 5.5 0 .8-.1 1.3-.2 1.5-.1.1-.1.1-.2.1h-1.3v.8c.8-.1 1.8-.1 2.8-.1H37.6v-.8c-.9 0-1.4-.1-1.5-.3-.1-.1-.2-.5-.2-1.1 0-1.4-.1-4.1-.1-7.9V19l3.5 7.3c.9 1.8 1.5 3.3 2 4.4h.7c.4-.9.9-2 1.6-3.4 1.6-3.4 3-6.2 4-8.3v6.2c0 1.8 0 2.9-.1 3.4 0 .3-.1.6-.1.8 0 .1-.1.1-.1.1-.1.1-.4.2-.9.2h-.6v.8c1.5-.1 2.7-.1 3.6-.1h1.1c.6 0 1.2 0 1.8.1v-.8c-.9-.1-1.4-.2-1.5-.2-.1-.1-.2-.1-.2-.2-.1-.2-.1-1-.1-2.3v-3.8c0-2.4 0-4 .1-4.9 0-.5.1-.8.2-.9s.6-.2 1.5-.2v-.8c-.8.1-1.6.1-2.5.1-.7 0-1.5-.1-2.3-.1zM70.1 22.3c.2 0 .4 0 .6.1.2 0 .4.1.6.2.2.1.4.2.5.3.1.1.1.1.1.2.1.1.1.6.2 1.4h.8c0-.7.1-1.4.2-2.2v-.4c0-.2.1-.4.1-.6l-.2-.2s-.2-.1-.4-.1c-.1 0-.3-.1-.4-.1H72c-.2 0-.4-.1-.6-.1h-.6c-.5 0-.8 0-1.1.1-.3.1-.7.3-1.3.7-1 .6-1.6 1-1.8 1.1-.2.2-.4.5-.6.8-.2.3-.3.7-.4 1.2 0 .1 0 .2-.1.3v1.2c0 1.5.4 2.7 1.2 3.5.8.8 2 1.2 3.5 1.2h.8c.2 0 .4-.1.6-.1.5-.1.9-.3 1.4-.5.1-.3.3-.7.4-1l-.2-.2c-.2.1-.5.2-.8.3-.3.1-.6.1-1 .1-1 0-1.8-.4-2.4-1.1-.6-.7-.9-1.8-.9-3.2 0-1.1.2-1.8.5-2.2.2-.5.8-.7 1.5-.7zM85.5 21H84.3c-.8 0-1.7 0-2.8-.1v.8c.9 0 1.4.1 1.5.3v3c-.6 0-1.3.1-2.2.1h-1.5L79 25h-.4v-1.1c0-1 0-1.6.1-1.8 0-.2.5-.3 1.5-.3V21c-1.1 0-2.1.1-2.8.1H74.6v.8c.8 0 1.2.1 1.3.2.1.1.1 1.5.1 4V29c0 .4-.1.6-.1.7 0 0-.1.1-.2.1s-.2 0-.3.1c-.2 0-.5.1-.8.1v.8h5.5V30c-.9 0-1.4-.1-1.5-.3-.1-.2-.1-.9-.1-2.2v-1.3c.5 0 1.2-.1 2.1-.1h.8c.5 0 1 0 1.4.1v1.3c0 1.3 0 2-.1 2.2-.1.2-.5.3-1.5.3v.8c1.2 0 2.1-.1 2.8-.1H86.8v-.8c-.4 0-.7 0-.9-.1-.1 0-.2-.1-.3-.1-.1 0-.1-.1-.1-.1-.1-.1-.1-1.5-.1-4.2 0-2.1 0-3.3.2-3.4.1-.1.2-.1.5-.2.2 0 .5 0 .8-.1V21h-1.4zM145.1 29.6c-.1-.1-.1-1.5-.1-4.2 0-2.1.1-3.3.2-3.4.1-.1.5-.2 1.3-.2V21c-1.1 0-2.1.1-2.8.1h-2.8v.8c.9 0 1.4.1 1.5.3.1.2.1.8.1 1.8v1c-.6 0-1.3.1-2.2.1-.7 0-1.4 0-2.2-.1V22.1c0-.2.5-.3 1.5-.3V21c-1.1 0-2.1.1-2.8.1H134.1v.8c.8 0 1.2.1 1.3.2.1.1.1 1.5.1 4V28.5c0 .7-.1 1.1-.1 1.1-.1.1-.5.2-1.3.2v.8h5.5v-.8c-.9 0-1.4-.1-1.5-.3-.1-.2-.1-.9-.1-2.2V26c.5 0 1.2-.1 2.2-.1.9 0 1.7 0 2.2.1v3.1c0 .2 0 .4-.1.5 0 .1-.1.1-.2.2-.1 0-.2.1-.4.1-.1 0-.3 0-.4.1h-.5v.8h5.7V30c-.5 0-.9-.1-1.1-.1-.2-.2-.3-.2-.3-.3zM155.9 26.3l-1.5-1.7c1.5-1.3 2.3-2 2.6-2.3.3-.2.5-.4.7-.4.1 0 .6-.1 1.3-.1V21c-.5 0-.9.1-1.4.1-.5 0-.9 0-1.4-.1-1.5 1.7-3 3.2-4.5 4.4v-1.1c0-1.3 0-2.1.1-2.2.1-.1.6-.2 1.4-.3V21H147.8v.8c.8 0 1.2.1 1.3.2 0 .1.1.5.1 1.3v2.8c0 2.2-.1 3.4-.2 3.6-.1.1-.5.2-1.3.2v.8h5.6v-.8c-1 0-1.5-.2-1.5-.4s-.1-1.1-.1-2.5v-1.2c1.5 1.5 2.9 3.1 4.3 4.9.4 0 .9-.1 1.5-.1.7 0 1.4 0 2.1.1v-.8c-.4 0-.7-.2-.9-.4-.2-.2-1.1-1.3-2.8-3.2zM3.2 2.6c0 .8.1 2.3.1 4.6 0 3.4-.1 5.7-.2 6.7-.3.2-.6.4-1 .6v.5H10.7c.6 0 1.2 0 1.8-.1 0-1.1.1-2.3.3-3.5h-.9c-.2.8-.3 1.5-.5 2.1-.4 0-.7.1-1.1.1-.6 0-1.3.1-2 .1h-2c-.1-1-.1-2.5-.1-4.5V8.1c.5-.1.9-.1 1.3-.1 1.2 0 2 0 2.3.1.1 0 .2.1.3.2v.4c0 .3.1.7.1 1.2h.9L11 7.6c0-.3 0-1.1.1-2.3h-.9c0 .4-.1.7-.1.9v.5s0 .1-.1.1c0 .1-.1.1-.2.2-.1 0-.7.1-1.7.1-.6 0-1.3-.1-2-.1 0-1.2.1-2.9.2-5 .8-.1 1.4-.1 2-.1 1.2 0 2 .1 2.6.2.3.1.4.1.5.2 0 .1.1.6.1 1.6h.8c.1-1.2.2-2.2.3-3l-.1-.1c-.5 0-1-.1-1.6-.1L5.3.8C4.4.8 3.1.8 1.5.7v.8c.9.1 1.4.2 1.5.3.1.1.2.4.2.8zM69 6.4c0 .1.1.5.1 1.4v3.4c0 1.1-.1 2.3-.2 3.8l.1.1c.6-.1 1.1-.1 1.6-.2 1.5-1.7 3.3-4.2 5.5-7.5V13.7c-.1.1-.6.2-1.4.3v1c1.1 0 2.1-.1 2.8-.1H80.4v-.8H79.5c-.2 0-.4-.1-.4-.2-.1-.1-.1-1.5-.1-4.2V6.9c0-.4.1-.6.1-.6.1-.1.3-.1.6-.2h.8v-.8l-2.4.1-1.3-.1c-.6 1.2-2.2 3.6-4.8 7.1V8.2c0-1 0-1.6.1-1.8 0-.2.5-.3 1.5-.3v-.8c-1.1 0-2 .1-2.8.1h-2.7v.8c.4 0 .8 0 1 .1-.2 0-.1 0-.1.1zM84.3 15H87.1v-.8c-.9 0-1.4-.1-1.5-.3-.1-.2-.1-.9-.1-2.2v-1.3c.5 0 1.2-.1 2.2-.1h1c.5 0 .8 0 1.2.1v1.3c0 1.3 0 2-.1 2.2-.1.2-.5.3-1.5.3v.8h5.6v-.8c-.8 0-1.2-.1-1.3-.3 0-.1-.1-.3-.1-.8V9.7c0-2.1.1-3.3.2-3.4.1-.1.5-.2 1.3-.2v-.8c-1.1 0-2.1.1-2.8.1h-2.8v.8c.5 0 .8 0 1 .1.2.1.4.1.4.2s0 .2.1.4v2.5c-.6 0-1.3.1-2.2.1-.7 0-1.4 0-2.2-.1V6.4s0-.1.1-.1c0 0 .1 0 .1-.1.1 0 .1 0 .2-.1.1 0 .3 0 .4-.1h.6v-.7c-1.1 0-2.1.1-2.8.1h-2.7v.8c.8 0 1.2.1 1.3.2.1.1.1 1.5.1 4v2.5c0 .7-.1 1-.1 1.1h-.1s-.1.1-.2.1c-.2.1-.6.1-1.1.1v.8h3zM114.1 10.4v2.9c0 .3 0 .5-.1.6-.1.2-.5.3-1.5.3v.8c1.2 0 2.1-.1 2.8-.1H118.1v-.8c-.8 0-1.2-.1-1.3-.3-.1-.1-.1-1.5-.1-4.2 0-2.1.1-3.3.2-3.4.1-.1.5-.2 1.3-.2v-.7h-2.7c-.8 0-1.7 0-2.8-.1V6c.9 0 1.4.1 1.5.3.1.2.1.8.1 1.8v1.1c-.6 0-1.3.1-2.2.1-.7 0-1.4 0-2.2-.1v-1c0-1 0-1.6.1-1.8 0-.1.2-.2.5-.2H111.4v-.9c-1.1 0-2.1.1-2.8.1h-2.7v.8c.3 0 .6 0 .8.1h.4v.1c.1.1.1 1.5.1 4 0 2.2-.1 3.4-.2 3.5-.1 0-.2.1-.4.1s-.5.1-.9.1v.9c1.2 0 2.1-.1 2.8-.1H111.3v-.8c-.9 0-1.4-.1-1.5-.3 0-.1-.1-.4-.1-.8V10.2h3.3c.5.1.8.1 1.1.2zM124.3 15.3c.4 0 .7 0 1.1-.1H125.7c.5-.1.9-.3 1.4-.5l.1-.3.1-.2c.1-.2.1-.3.2-.5l-.2-.2c-.2.1-.5.2-.8.3-.3.1-.6.1-1 .1-1 0-1.8-.4-2.4-1.1-.6-.7-.9-1.8-.9-3.2 0-1.1.2-1.8.5-2.2.3-.4.9-.6 1.6-.6.3 0 .6 0 .8.1.1 0 .2.1.3.1.3.2.5.3.6.5.1.1.1.6.2 1.4h.8c0-1 .2-2 .4-3.1l-.2-.2c-.4-.1-.7-.2-1.1-.3-.2 0-.3 0-.5-.1h-.7c-.5 0-.8 0-1.1.1-.3.1-.7.3-1.3.7-.7.5-1.2.8-1.5 1-.1.1-.2.1-.2.2l-.1.1-.2.2c-.1.1-.2.3-.3.5-.2.3-.3.7-.4 1.2-.1.5-.2 1-.2 1.5 0 1.5.4 2.7 1.2 3.5.8.6 2 1.1 3.5 1.1zM53.9 15.2c.8 0 1.3-.1 1.6-.4l1.5-1.3v2.1c0 1.1 0 1.9-.1 2.5 0 .6-.1.9-.2 1-.1.1-.5.1-1.3.1v.8c.4 0 1.5-.1 3.3-.1h2.5v-.8c-.9 0-1.4-.1-1.5-.2-.1-.2-.2-1-.2-2.5v-1.9c.6.4 1.1.6 1.8.6 1.2 0 2.3-.6 3.4-1.9 1.1-1.3 1.6-2.7 1.6-4.3 0-1.3-.3-2.2-1.1-2.9-.7-.7-1.6-1-2.7-1-.3 0-.6 0-.8.1h-.1l-.6.3-1.5 1.3V5.5c.1-3 .1-4.7.2-5.2l-.2-.3c-1.2.5-2.6.8-4.1 1v.7c.8 0 1.3.1 1.4.1.1 0 .2.2.2.4s.1.8.1 1.8v1.8c-.5-.4-1-.6-1.5-.6-.9 0-2 .6-3.3 1.7-1.3 1.2-1.9 2.6-1.9 4.4 0 1.1.3 2 .9 2.8.5.8 1.4 1.1 2.6 1.1zm5.7-7.3c.6-.7 1.3-1 1.9-1 .7 0 1.3.3 1.7.9.2.2.3.5.4.7.2.5.3 1.1.3 1.8 0 1.2-.2 2.1-.7 2.8-.5.7-1.1 1-1.8 1-.6 0-1.1-.3-1.5-.8-.1-.1-.2-.3-.3-.4v-5zm-6.2-.3c.4-.7 1-1 1.8-1 .7 0 1.3.3 1.8 1v4.9c-.6.7-1.2 1-1.8 1-.7 0-1.3-.3-1.8-.9-.5-.6-.7-1.4-.7-2.5 0-1 .3-1.8.7-2.5zM15.6 11.6v1.7c0 .2 0 .5-.1.7-.2.2-.5.4-.9.6v.4c1.2 0 1.9-.1 2.3-.1h2.3c1.8 0 3-.3 3.9-.9.8-.6 1.2-1.3 1.2-2.1 0-.6-.2-1.1-.6-1.5-.4-.4-1.4-.7-2.9-.8 2.1-.4 3.2-1.2 3.2-2.3 0-.7-.3-1.2-.9-1.5-.6-.4-1.5-.5-2.6-.5l-3.8.1h-2.4v.8c.8 0 1.2.1 1.3.3-.1.1 0 1.8 0 5.1zm2.5-3c0-.4 0-1.2.1-2.2.3-.1.7-.1 1-.1 1.3 0 1.9.5 1.9 1.5 0 1.1-.7 1.7-2.2 1.7h-.8v-.9zm0 1.8c.4-.1.7-.1.9-.1.7 0 1.3.2 1.8.5s.7.8.7 1.4c0 .6-.2 1.1-.7 1.4-.2.2-.5.3-.8.4-.3.1-.6.1-.9.1-.2 0-.6 0-1-.1v-3.6z"/>
	<path d="m30.1 14.9.2.1c.1.1.3.1.4.1.2 0 .3.1.5.1h.5c.5 0 1-.1 1.4-.3.2-.1.8-.6 1.8-1.4l.2-.2.1-.1.1-.1.1-.1c.1-.1.3-.2.4-.3l.3-.3.1-.1c.1-.1.2-.3.3-.4.1-.3.3-.6.4-1 .1-.6.1-1.2.1-1.8 0-1.2-.3-2.2-1-2.9s-1.6-1.1-2.8-1.1H32.4c-.1 0-.2 0-.2.1H32c-.1 0-.1.1-.2.1-.1.1-.2.1-.3.2l-1.7 1.3V5.1h-.1l-1.1.3c-.8.2-1.8.4-3 .5v.8c.8 0 1.2 0 1.3.1.1 0 .1.1.2.2.1.2.1.9.1 2.1v9.3c0 .4-.1.7-.1.8 0 .1-.1.2-.2.2s-.2.1-.5.1h-.8v.8h3.2c.8 0 1.7 0 2.8.1v-.8c-.9 0-1.4-.1-1.5-.2-.1-.1-.1-.3-.2-.6 0-.2 0-.4-.1-.7V15c.1 0 .1.1.2.1 0-.2.1-.2.1-.2zm-.3-2.1V7.9c.2-.2.4-.4.6-.5.2-.1.3-.2.5-.3.4-.2.7-.3 1.1-.3.2 0 .4 0 .5.1.2 0 .4.1.6.2.2.1.5.3.7.6.5.6.7 1.4.7 2.5 0 1.4-.2 2.3-.7 2.9-.5.6-1 .9-1.7.9-.3 0-.6-.1-.9-.2-.1 0-.2-.1-.3-.1-.2-.1-.3-.2-.5-.4-.2-.1-.4-.3-.6-.5zM43.6 15.2c1.6 0 2.9-.5 3.8-1.4.9-.9 1.4-2.3 1.4-4 0-1.7-.4-2.9-1.2-3.7-.8-.8-2-1.2-3.7-1.2-1.7 0-3 .5-3.9 1.4-.8.8-1.1 2-1.1 3.6s.4 2.9 1.2 3.8c.7 1.1 1.9 1.5 3.5 1.5zm-1.5-8.3c.4-.5.9-.8 1.5-.8.7 0 1.3.3 1.6.8.4.7.6 2 .6 3.8 0 1.3-.2 2.3-.5 2.8-.2.3-.5.5-.8.6-.1 0-.2.1-.2.1-.1 0-.3.1-.5.1-.7 0-1.3-.3-1.6-.9-.5-.8-.7-2.1-.7-3.9.1-1.3.3-2.1.6-2.6zM97.6 15.2c.3 0 .6 0 1-.1l2.1-1.6-.1 1.4.1.1c.6 0 1.2-.1 1.8-.1h2v-.8h-.8c-.2 0-.3-.1-.3-.1-.1-.1-.2-.1-.2-.3 0-.2-.1-.7-.1-1.6V8.2c0-.8-.1-1.4-.3-1.8s-.6-.7-1.1-1c-.5-.2-1.1-.4-2-.4-.4 0-.8 0-1.1.1-.1 0-.2.1-.3.1-.5.2-1.2.6-2.2 1.2v1.3l.9.3.5-1.1c.2-.1.4-.2.6-.2.2 0 .4-.1.6-.1.5 0 .9.1 1.2.3.2.1.4.3.5.5.3.4.4.9.4 1.8-2.4.4-3.9.9-4.6 1.5-.5.4-.8 1.1-.8 2.1 0 .8.2 1.4.6 1.9.4.3.9.5 1.6.5zm.4-3.7c.1-.2.2-.4.4-.6.4-.3 1.1-.6 2.3-.8v2.5c-.6.6-1.1.9-1.7.9-.4 0-.6-.1-.9-.4-.2-.2-.3-.6-.3-1 .1-.2.1-.5.2-.6zM58.9 20.8c-1.7 0-3 .5-3.9 1.4-.8.8-1.1 2-1.1 3.6s.4 2.9 1.2 3.8c.8.9 2 1.3 3.6 1.3s2.9-.5 3.8-1.4c.9-.9 1.4-2.3 1.4-4 0-1.7-.4-2.9-1.2-3.6-.9-.7-2.1-1.1-3.8-1.1zm1.5 8.4c-.3.5-.8.8-1.5.8s-1.3-.3-1.6-.9c-.5-.8-.7-2.1-.7-3.9 0-1.2.2-2.1.5-2.6.4-.5.9-.8 1.5-.8.7 0 1.3.3 1.6.8.4.7.6 2 .6 3.8.2 1.4 0 2.3-.4 2.8zM96.3 29.5c0-.2-.1-.7-.1-1.6V24c0-.8-.1-1.4-.3-1.8-.2-.4-.6-.7-1.1-1-.5-.2-1.2-.4-2-.4-.6 0-1.1.1-1.4.2-.5.2-1.2.6-2.2 1.2v1.3l.7.2.5-1.1c.2-.1.4-.2.6-.2h.6c.8 0 1.4.3 1.7.8.3.4.4.9.4 1.8-2.4.4-3.9.9-4.6 1.5-.5.4-.8 1.1-.8 2.1 0 .8.2 1.4.6 1.9l.2.2.1.1s.1 0 .1.1h.1c.3.1.6.2 1 .2.3 0 .6 0 1-.1l2.1-1.6-.1 1.4.1.1c.6 0 1.2-.1 1.8-.1h2V30c-.6-.1-1-.1-1.1-.2.2-.2.2-.2.1-.3zm-2.5-1.3-.4.4c-.3.2-.6.4-.9.5h-.3c-.2 0-.4 0-.5-.1-.1 0-.1-.1-.2-.1s-.1-.1-.2-.1l-.1-.1-.1-.1c0-.1-.1-.1-.1-.2s-.1-.2-.1-.4v-.2c0-.5.2-.9.5-1.2.4-.3 1.1-.6 2.3-.8v2.4zM106.2 20.8c-.8 0-1.4.1-1.7.4l-1.7 1.3V21c0-.2-.1-.2-.1-.2l-1.1.3c-.8.2-1.8.4-3 .5v.8h.8c.3 0 .5 0 .6.1l.1.1v.1c0 .1.1.3.1.7v9.4c0 1.2-.1 1.9-.1 2.1v.1l-.1.1h-.1c-.1.1-.5.1-1.3.1v.8h3.1c.8 0 1.7 0 2.8.1v-.8h-1c-.3 0-.5-.1-.5-.1-.1-.1-.1-.2-.2-.5 0-.2-.1-.5-.1-.8v-3.1c.1.1.3.1.4.2.2.1.3.1.5.1.3.1.6.1.9.1.5 0 1-.1 1.4-.3.2-.1.8-.6 1.8-1.4.2-.2.4-.3.5-.4.3-.3.6-.5.7-.8l.3-.6c.1-.2.1-.3.2-.5v-.1c0-.1 0-.1.1-.2.2-.6.3-1.2.3-1.8 0-1.2-.3-2.2-1-2.9-.6-1.1-1.5-1.4-2.6-1.4zm1 6.5c-.1.6-.3 1.1-.6 1.5-.4.6-1 .9-1.7.9-.4 0-.8-.1-1.2-.3-.3-.2-.6-.4-.9-.7 0-.1-.1-.1-.1-.2v-4.9c.4-.3.7-.6 1.1-.8.4-.2.7-.3 1.1-.3.7 0 1.3.3 1.8.8.5.6.7 1.4.7 2.5-.1.6-.1 1.1-.2 1.5zM117.3 20.8c-2.1 0-3.5.8-4.4 2.4.1-3 1.1-4.5 3.1-4.5h1c.6.1 1.1.1 1.4.1 1.7 0 2.7-.9 3-2.6l-.7-.3c-.4.5-.9.8-1.5.8-.3 0-.8 0-1.5-.1-.4-.1-.9-.1-1.3-.1-1.1 0-2 .3-2.6.7-.6.5-1 1.3-1.3 2.4-.3 1.1-.4 2.5-.4 4.3 0 1.4.1 2.5.2 3.3.1.4.2.8.3 1 .1.3.3.6.5.9.3.4.7.8 1.2 1 .8.4 1.6.6 2.6.6 1.6 0 2.8-.4 3.8-1.3.9-.9 1.4-2.2 1.4-4.1-.1-2.9-1.6-4.5-4.8-4.5zm1.4 8.4c-.3.5-.8.8-1.5.8s-1.3-.3-1.7-1c-.4-.7-.6-1.9-.6-3.7 0-2.3.7-3.4 2.1-3.4.8 0 1.4.4 1.8 1.1.3.7.5 1.9.5 3.6-.1 1.1-.3 2-.6 2.6zM132.1 29.8H131.8c-.1-.1-.2-.1-.2-.3 0-.2-.1-.7-.1-1.6V24c0-.8-.1-1.4-.3-1.8-.2-.4-.6-.7-1.1-1-.1-.1-.2-.1-.3-.1-.1 0-.2-.1-.4-.1-.4-.1-.8-.1-1.2-.1h-.7c-.1 0-.2 0-.3.1h-.2c-.1 0-.1 0-.2.1-.5.2-1.2.6-2.2 1.2v1.3l.7.2.5-1.1c.2-.1.4-.2.6-.2.2 0 .4-.1.6-.1.8 0 1.4.3 1.7.8.3.4.4.9.4 1.8-2.4.4-3.9.9-4.6 1.5-.5.4-.8 1.1-.8 2.1 0 .8.2 1.4.6 1.9.4.4 1 .6 1.7.6.3 0 .6 0 1-.1l2.1-1.6-.1 1.4.1.1H133v-.8c-.2 0-.3 0-.5-.1-.2-.2-.3-.2-.4-.2zm-3.1-1.6c-.6.6-1.1.9-1.6.9-.4 0-.6-.1-.9-.4-.2-.2-.3-.6-.3-1v-.5c0-.1 0-.1.1-.2V26.7s0-.1.1-.1l.2-.2c.4-.3 1.1-.6 2.3-.8v2.6zM0 17.2h24.8v.4H0zM62.2 17.4h49.4v.4H62.2zM122.1 17.6H160v.4h-37.9z"/>
	</g>
</svg>