<svg xmlns="http://www.w3.org/2000/svg" viewBox="0 0 180.1 13">
	<path fill="#008fcb" d="M23.9 0l-6.3 13-9.4-6.9L23.6 0h.3z"/>
	<path fill="#004a99" d="M23.6 0L8.2 6.1 0 0h23.6zM171 12.3h2V6.5l4.6 5.8h2.5l-4.9-6 4.6-5.2h-2.4L173 6.4V1.1h-2v11.2zm-6 0h1.9V1.2H165v4.6h-5.1V1.2h-2v11.2h2V7.6h5.1v4.7zm-15.4-8.6l1.6 4H148l1.6-4zm-5.5 8.6h2l1.2-2.9h4.8l1.2 2.9h2.1l-4.7-11.2H149l-4.9 11.2zm-6-5.1c1.4 0 2 .7 2 1.7s-.6 1.7-2.1 1.7c-.4 0-.8 0-1.2-.1V7.3c.4 0 .9-.1 1.3-.1m-3.3 5.1c.7 0 1.6.1 2.9.1 2.7 0 4.3-1.3 4.3-3.6 0-2.1-1.4-3.4-3.8-3.4-.4 0-1.1 0-1.5.1V3h4.6V1.2h-6.5v11.1zm-15.4 0h2v-8l3.6 4.9h.3l3.5-5v8.1h1.9V1.2h-1.9l-3.6 5.2-3.8-5.2h-2v11.1zm-11.8 0l5.9-7.9v7.9h2V1.2h-1.7l-5.9 7.9V1.2h-2v11.2h1.7v-.1zm-5.4-2.5c-.8.6-1.7.9-2.7.9-2.3 0-3.9-1.6-3.9-3.9 0-2.4 1.6-3.9 3.6-3.9 1.1 0 1.9.3 2.5.8l.9-1.5c-.7-.7-2-1.1-3.4-1.1-3.7 0-5.7 2.6-5.7 5.8 0 3.5 2.3 5.8 5.8 5.8 1.5 0 2.9-.5 3.6-1.3l-.7-1.6zm-18.8 2.5h2V6.5l4.6 5.8h2.5l-4.9-6 4.6-5.2h-2.4l-4.5 5.4V1.2h-2v11.1h.1zM73.1 7.6h5c-.3 2.1-2 3.1-3.9 3.1-1.2 0-2.2-.4-2.9-1l-.8 1.6c.8.7 2.2 1.2 3.8 1.2 3.6 0 5.8-2.3 5.8-5.8S77.8 1 74.5 1c-1.7 0-3.1.6-3.8 1.2l.8 1.5c.8-.6 1.7-.9 2.6-.9 2.1 0 3.6 1 4 2.9h-5v1.9zm-5 2.2c-.8.6-1.7.9-2.6.9-2.3 0-3.9-1.6-3.9-3.9 0-2.4 1.6-3.9 3.6-3.9 1.1 0 1.9.3 2.5.8l.9-1.5c-.7-.7-1.9-1.1-3.4-1.1-3.7 0-5.7 2.6-5.7 5.8 0 3.5 2.3 5.8 5.8 5.8 1.5 0 2.9-.5 3.6-1.3l-.8-1.6zM47.5 6.7c0-2.3 1.6-3.9 3.7-3.9S55 4.4 55 6.7c0 2.2-1.4 3.9-3.8 3.9-2 .1-3.7-1.6-3.7-3.9m-2.1 0c0 3.5 2.5 5.8 5.8 5.8S57 10.1 57 6.7C57 3.2 54.5.9 51.2.9c-3.4.1-5.8 2.6-5.8 5.8M39 3c1.3 0 2.1.6 2.1 1.7 0 1.2-.9 1.8-2.1 1.8-.4 0-.9 0-1.4-.1V3H39m-1.4 9.3v-4h1.5c2.7 0 4.1-1.7 4.1-3.6 0-1.8-1-3.6-4.3-3.6h-3.2v11.2h1.9z"/>
</svg>