<svg xmlns="http://www.w3.org/2000/svg" viewBox="0 0 170 30.8">
	<path fill="#000" d="M40.3 6v2h4.2v2.2h-4.2V14h-2.7V3.8h7.3V6h-4.6zm12.1 5.3h-2.1V14h-2.7V3.8h5.3c.8 0 1.5.1 2 .3s.9.4 1.1.9c.2.5.4 1.1.4 1.9 0 .7-.1 1.2-.1 1.6-.1.3-.2.7-.5 1-.3.3-.7.5-1.4.6v.1c.6 0 1 .2 1.4.5.3.3.5.7.5 1.3v2h-2.7v-1.4c-.1-.9-.4-1.3-1.2-1.3zM50.3 9h2.1c.3 0 .6-.1.8-.2.2-.1.3-.2.3-.5.1-.2.1-.6.1-1s-.1-.8-.2-.9c-.2-.2-.5-.2-.9-.2h-2.1c-.1 0-.1 2.8-.1 2.8zM62 6v1.9h4.4v1.9H62v2h4.8V14h-7.5V3.8h7.4V6H62zm10.5 0v1.9h4.4v1.9h-4.4v2h4.8V14h-7.5V3.8h7.4V6h-4.7zm7.7 8V3.8h5.2c1 0 1.8.1 2.4.4.6.3 1 .7 1.4 1.2.3.6.5 1.4.5 2.3v2.2c0 1-.1 1.8-.3 2.3-.2.6-.6 1.1-1.2 1.4-.6.3-1.3.5-2.2.5l-5.8-.1zM83 6.2v5.5h2.4c.9 0 1.4-.6 1.4-1.8V7.8c0-.5-.1-.7-.2-1-.1-.2-.2-.4-.5-.5-.2-.1-.5-.1-.8-.1H83zm13.9 7.9c-.7 0-1.4-.1-2-.2-.6-.1-1-.3-1.5-.6-.4-.3-.7-.7-1-1.1-.2-.5-.3-1.1-.3-1.9V7.5c0-.7.1-1.4.3-1.9.2-.5.6-.9 1-1.1.4-.2.9-.5 1.5-.6.6-.1 1.2-.2 2-.2s1.4.1 2 .2c.6.1 1 .3 1.5.6.4.3.7.6 1 1.1s.3 1.1.3 1.9v2.9c0 .7-.1 1.4-.3 1.9-.2.5-.6.9-1 1.1-.4.3-.9.5-1.5.6-.6.1-1.2.1-2 .1zm0-2.4c.5 0 .9-.1 1.2-.1.3-.1.5-.2.6-.5.1-.2.2-.6.2-1.1V7.7c0-.4-.1-.7-.1-.9-.1-.2-.2-.4-.3-.5s-.5-.2-.7-.2c-.2-.1-.6-.1-1-.1-.5 0-.9.1-1.1.1-.3.1-.5.2-.6.5-.1.2-.1.6-.2 1V10c0 .5.1.9.2 1.1.1.2.3.4.6.5.2 0 .7.1 1.2.1zm10-5.5l.3 7.8h-2.7V3.8h4.3l2 6.4h.1l1.8-6.4h4.5V14h-2.7l.2-7.8h-.1L112 14h-2.4L107 6.2h-.1zM41 19.6v.9h-1.9v6.3H38v-6.2h-1.1v-.9H38v-1.1c0-.8.2-1.4.6-1.6.3-.3 1-.5 1.8-.5l.7.1v.9c-.2 0-.4-.1-.6-.1h-.2c-.4 0-.7.1-.8.3s-.2.5-.2.9v1.1H41v-.1zm2.9-1.9h-1.1v-1.2h1.1v1.2zm0 9.1h-1.1v-7.2h1.1v7.2zm3.6-4.4v4.4h-1.1v-7.1h1v.9c.2-.4.6-.7 1.1-.9.3-.1.8-.2 1.4-.2 1 0 1.6.2 2 .6.4.3.6 1 .6 2v4.8h-1.1v-4.6c0-.7-.1-1.2-.3-1.4-.2-.2-.7-.3-1.4-.3s-1.2.2-1.6.5c-.4.1-.6.6-.6 1.3zm12.3.9v-1c0-.8-.1-1.4-.4-1.6-.2-.2-.8-.3-1.7-.3-.7 0-1.1.1-1.4.2-.2 0-.3.4-.3.8v.2h-1.1c0-.9.3-1.5.8-1.8.4-.2 1.1-.3 2-.3 1.1 0 1.9.2 2.3.4.6.3.8 1.1.8 2.1v4.8h-1l.1-.9c-.2.5-.5.7-.8.8-.3.1-.9.2-1.6.2-1 0-1.6-.1-2.1-.4-.5-.3-.7-1-.7-1.9 0-.8.2-1.5.7-1.8.4-.3 1.1-.4 2-.4.8 0 1.4.1 1.7.2.3.2.5.3.7.7zm0 1.4c0-.6-.2-1-.5-1.2s-1-.2-1.9-.2c-.6 0-1 .1-1.2.2-.3.2-.4.5-.4 1 0 .6.1 1 .3 1.2.2.2.7.3 1.3.3.8 0 1.4-.1 1.7-.2.5-.1.7-.5.7-1.1zm4.6-2.3v4.4h-1.1v-7.1h1v.9c.2-.4.6-.7 1.1-.9.3-.1.8-.2 1.4-.2 1 0 1.6.2 2 .6.4.3.6 1 .6 2v4.8h-1.1v-4.6c0-.7-.1-1.2-.3-1.4-.2-.2-.7-.3-1.4-.3s-1.2.2-1.6.5c-.4.1-.6.6-.6 1.3zm12.4 1.8h1.1c0 1.1-.2 1.8-.7 2.2-.5.3-1.2.5-2.4.5s-2-.3-2.4-.8c-.5-.5-.6-1.5-.6-2.9s.2-2.4.6-2.9c.4-.5 1.2-.8 2.4-.8 1 0 1.7.2 2.2.5.6.3.8 1 .8 1.8v.2h-1c0-.6-.1-1-.3-1.2-.3-.2-.8-.3-1.6-.3s-1.3.2-1.6.5c-.2.3-.4 1.1-.4 2.3 0 1.1.1 1.9.4 2.3s.8.6 1.6.6 1.4-.1 1.6-.3c.1-.5.3-1 .3-1.7zm9.3-.8h-5.2c0 1.1.1 1.8.4 2.2.3.3.8.5 1.6.5s1.4-.1 1.6-.2c.2-.2.4-.5.4-1v-.2H86c0 1-.3 1.6-.8 1.9-.3.3-1.1.4-2.2.4-1.2 0-2-.3-2.4-.8-.5-.5-.7-1.5-.7-2.9s.2-2.3.7-2.9c.5-.6 1.2-.8 2.4-.8 1.1 0 1.9.2 2.4.7.5.5.7 1.4.7 2.6v.5zm-1.1-.8c0-.8-.2-1.4-.5-1.7-.3-.3-.8-.5-1.6-.5s-1.3.2-1.6.5-.5.9-.5 1.7H85zM137.8 9.1h6.8v1h-5.7v3.6h3.5c1.1 0 1.9.2 2.4.6.5.4.7 1.1.7 2.2s-.2 1.8-.7 2.3c-.5.5-1.2.7-2.3.7h-4.6l-.1-10.4c.1 0 0 0 0 0zm1.1 5.6v3.7h3.4c.8 0 1.3-.2 1.6-.5.2-.3.4-.7.4-1.5s-.1-1.2-.4-1.5c-.3-.2-.9-.3-1.7-.3h-3.3zm9.7-.5h-1.1c0-.9.3-1.5.8-1.8.4-.2 1.1-.3 2-.3 1.1 0 1.9.1 2.3.4.6.3.9 1.1.9 2.1v4.8h-1l.1-.9c-.2.5-.5.7-.9.9-.3.1-.9.2-1.6.2-1 0-1.7-.1-2.1-.4-.5-.3-.7-1-.7-1.9 0-.9.2-1.5.7-1.8.4-.3 1.1-.4 2-.4.9 0 1.4.1 1.7.2s.6.3.7.7v-1c0-.9-.1-1.4-.3-1.6-.2-.2-.8-.3-1.8-.3-.7 0-1.1.1-1.4.2-.2.1-.3.4-.3.8v.1zm3.8 3.1c0-.6-.2-1-.5-1.2s-1-.2-1.9-.2c-.6 0-1 .1-1.2.2-.3.2-.5.5-.5 1 0 .6.1 1 .4 1.2.2.2.7.3 1.3.3.9 0 1.4-.1 1.7-.2.5-.2.7-.5.7-1.1zm4.5-5.1v2.9h3.8v-2.9h1.1v7.2h-1.1V16h-3.8v3.4h-1.1v-7.2h1.1zm8.2 0v2.9h.4l2.6-2.9h1.3l-3.1 3.3 3.6 3.9h-1.4l-3.1-3.4h-.4v3.4h-1v-7.2h1.1z"/>
	<path fill="#a8a8a7" d="M128.2 0h-.9v30.8h.9V0z"/>
	<path fill="#2e7e33" d="M10.2 9v3.9h13.9v7.7H10.2v9c1.1.5 2.2.9 3.3 1.1 6.9-1.4 13.2-7.4 13.4-18.2L27 9H10.2z"/>
	<path fill="#76b949" d="M27 9l.1-8.3c-4.5-.3-9-.5-13.5-.5C9 .1 4.5.3 0 .6l.1 6.5.2 5.3s.1 4.9 1.7 8.5c2.7 6.5 8.3 8.6 8.3 8.6v-9h13.9v-7.8h-14V9H27z"/>
</svg>