<svg xmlns="http://www.w3.org/2000/svg" viewBox="0 0 180 26.2">
	<path fill="#015289" d="M26.2 13.1c0 2.6-.8 5.1-2.2 7.3-1.4 2.2-3.5 3.8-5.9 4.8-2.4 1-5 1.3-7.6.7s-4.9-1.8-6.7-3.6C2 20.5.7 18.1.2 15.6S0 10.5 1 8.1c1-2.4 2.7-4.4 4.8-5.9C8 .8 10.5 0 13.1 0c3.5 0 6.8 1.4 9.3 3.8 2.5 2.5 3.8 5.8 3.8 9.3M41.7 12.4c-.9-.7-2.1-1.1-3.7-1.1h-2.4V7.5h6V5.6h-8v14.5H38c1.7 0 2.9-.4 3.7-1.1.8-.7 1.2-1.9 1.2-3.3s-.4-2.6-1.2-3.3zm-3.6 5.9h-2.5v-5.2h2.5c.7 0 1.4.2 2 .6.5.4.7 1.1.7 2 0 .9-.3 1.6-.7 2-.6.4-1.3.6-2 .6-.1 0 0 0 0 0zm10.6-8.9c-.7 0-1.5.1-2.2.4-.6.3-1.1.7-1.5 1.3l-.1.1.1.1 1.1.8.1.1.1-.1c.3-.3.6-.6.9-.8.4-.2.8-.3 1.2-.3.3 0 .5 0 .8.1.2.1.5.2.7.4.3.3.5.9.5 1.7-.7 0-1.3.1-2 .2s-1.4.3-2 .6c-.6.3-1.1.7-1.5 1.2-.4.5-.6 1.2-.6 1.9 0 .5.1 1 .3 1.5.2.4.5.8.8 1 .3.3.7.5 1.2.6.4.1.9.2 1.3.2.5 0 1.1-.1 1.6-.3.4-.2.7-.4 1-.6l.1.5v.2h1.8v-6.8c0-1.4-.3-2.4-1-3-.6-.7-1.5-1-2.7-1zm1.8 5.4v2.9c-.3.3-.7.5-1 .7-.4.2-.8.3-1.3.3-.2 0-.4 0-.7-.1l-.6-.3c-.2-.1-.3-.3-.4-.5-.1-.2-.2-.5-.2-.7 0-.4.1-.8.4-1.1.3-.3.6-.5 1-.7.5-.2.9-.3 1.4-.3.5-.1 1-.2 1.4-.2zm11.3-5.2h-.2v4.2H57V9.6h-2V20h2v-4.6h4.7V20h2V9.6h-1.9zm9.4 5c.2-.2.3-.4.4-.6.2-.3.4-.8.7-1.4.1-.4.4-.8.7-1 .3-.2.6-.2.9-.2h.8V9.6h-1.2c-.3 0-.6 0-.9.1-.3.1-.5.2-.7.3-.2.2-.5.4-.6.7-.2.4-.4.7-.6 1.1l-.5 1c-.1.2-.2.4-.4.6l-.3.3c-.1 0-.2.1-.4.1h-.9V9.6h-2V20h2v-4.6h1.3l3.1 4.5.1.1h2.4l-.2-.3c0 .1-3.7-5.1-3.7-5.1zm16.4-7.2v-2h-2v2.1c-1.8.1-3.2.6-4.2 1.5s-1.6 2.3-1.6 3.9.5 3 1.5 3.9c1 1 2.4 1.4 4.2 1.5v2h2v-2c1.8-.1 3.3-.6 4.3-1.6 1-.9 1.5-2.3 1.5-3.9s-.5-3-1.5-3.9c-.9-.9-2.3-1.4-4.2-1.5zm-5.7 5.4c0-1.2.3-2.1 1-2.7.8-.6 1.7-1 2.7-1v7.4c-1 0-1.9-.3-2.6-.9-.8-.6-1.1-1.5-1.1-2.8zm9.4 0c0 1.3-.4 2.2-1.1 2.8-.8.6-1.7.9-2.7.9V9.2c.5 0 .9.1 1.4.2.5.2.9.4 1.2.7.3.3.6.7.8 1.1.3.6.4 1.1.4 1.6zm11-3.2h-.2V11l-4.7 5.3V9.6h-1.9V20h1.9v-1.4l4.7-5.3v6.6h1.9V9.6h-1.7zm11.3 0h-.2v4.2h-4.7V9.6h-2V20h2v-4.6h4.7V20h2V9.6h-1.8zm11.5 7.3l-.2-.1-.1.2c-.2.5-.6 1-1.1 1.3-.4.2-.8.4-1.3.4-.4 0-.8-.1-1.1-.3-.4-.2-.7-.4-.9-.7-.3-.4-.5-.8-.7-1.2-.3-1-.3-2.2 0-3.2.1-.4.4-.8.6-1.2.2-.3.5-.6.9-.7.3-.2.7-.2 1-.2.5 0 .9.1 1.3.4.5.3.9.8 1.1 1.4l.1.2.2-.1 1.2-.8.1-.1v-.1c-.1-.3-.3-.5-.4-.8-.2-.3-.5-.6-.8-.8-.3-.3-.7-.5-1.1-.7-.5-.2-1-.3-1.6-.3-.6 0-1.2.1-1.7.3-.6.2-1.1.5-1.5 1-.5.5-.9 1.1-1.1 1.7-.3.8-.4 1.6-.4 2.5 0 .8.1 1.6.4 2.4.3.6.6 1.2 1.1 1.7.4.4 1 .8 1.6 1 .6.2 1.2.3 1.8.3.8 0 1.6-.2 2.3-.6.7-.4 1.3-1.1 1.7-1.9l.1-.1-.1-.1-1.4-.8zm10.6-6c-.4-.5-.9-.9-1.5-1.1-.6-.3-1.3-.4-2-.4s-1.3.1-1.9.4c-.6.3-1.1.6-1.5 1.1-.4.5-.7 1.1-1 1.7-.2.7-.3 1.5-.3 2.2 0 1.8.5 3.2 1.3 4.1.9.9 2.1 1.4 3.7 1.4.9 0 1.8-.2 2.5-.7.6-.4 1.1-1 1.5-1.6l.1-.1-.1-.1-1.1-.7-.2-.1-.1.2c-.3.4-.6.8-1 1.1-.4.3-1 .4-1.5.4-.4 0-.9 0-1.3-.2s-.8-.4-1-.8c-.6-.8-.9-1.7-.8-2.7h7.2v-.2c0-.7 0-1.5-.2-2.2-.1-.6-.4-1.2-.8-1.7zm-3.5.2c.3 0 .6.1.9.2.3.1.6.3.8.5.2.2.4.5.5.7.1.3.2.6.2.9h-4.9c.1-.6.4-1.2.9-1.7.5-.4 1-.6 1.6-.6zm14.6-.1c-.3-.5-.8-.9-1.3-1.2-.6-.3-1.3-.5-2-.4-.5 0-1.1.1-1.6.2-.4.1-.8.3-1.2.6l-.1-.5v-.1h-1.8V24h2v-4c.6.2 1.2.3 1.8.3.7 0 1.4-.1 2.1-.4.6-.3 1.2-.6 1.7-1.1.5-.5.8-1.1 1.1-1.8.3-.7.4-1.5.4-2.3 0-.7-.1-1.3-.2-2-.3-.6-.5-1.1-.9-1.7zm-1 3.8c0 .6-.1 1.1-.3 1.6-.2.5-.4.9-.7 1.2-.3.3-.7.6-1.1.7-.5.2-.9.3-1.4.3-.3 0-.6 0-.9-.1-.2-.1-.4-.1-.6-.2V12c.3-.3.7-.5 1.1-.7.4-.2.8-.3 1.2-.3.5 0 .9.1 1.3.3.3.2.6.5.8.9.2.4.4.8.5 1.2.1.5.1 1 .1 1.4zm11.8.4c-.2-.2-.4-.4-.7-.5-.1 0-.2-.1-.3-.1.3-.2.5-.4.7-.7.3-.5.5-1.1.5-1.7 0-.4 0-.7-.2-1.1-.1-.3-.4-.6-.7-.9-.6-.5-1.4-.7-2.5-.7H150v10.4h5c.5 0 .9-.1 1.3-.2s.7-.3 1.1-.6c.3-.3.6-.6.7-1 .2-.4.3-.9.3-1.3s-.1-.7-.2-1.1c-.2 0-.4-.3-.6-.5zm-3.2-1.3H152v-2.6h2.6c.9 0 1.4.4 1.4 1.2 0 .2 0 .4-.1.6-.1.2-.2.4-.3.5-.1.1-.3.2-.5.3-.3.1-.5.1-.7 0zm-2.5 1.7h2.6c.5 0 .9.1 1.3.4.1.1.3.3.3.4.1.2.1.4.1.5 0 .2 0 .5-.1.7-.1.2-.2.3-.3.4-.1.1-.3.2-.5.2s-.4.1-.6.1h-2.8v-2.7zm15.2-6h-.1V11l-4.7 5.3V9.6h-1.9V20h1.9v-1.4l4.7-5.3v6.6h1.9V9.6h-1.8zm12.8 8l-1.1-.7-.2-.1-.1.2c-.2.5-.6 1-1.1 1.3-.4.2-.8.4-1.3.4-.4 0-.8-.1-1.1-.3-.4-.2-.7-.4-1-.7-.3-.4-.5-.8-.7-1.2-.3-1-.3-2.2 0-3.2.1-.4.4-.8.7-1.2.2-.3.5-.5.9-.7.3-.2.7-.2 1-.2.5 0 .9.1 1.3.4.5.4.8.8 1.1 1.4l.1.2.2-.1 1.2-.8.1-.1v-.1c-.1-.3-.3-.5-.4-.8-.5-.7-1.1-1.2-1.9-1.5-.5-.2-1-.3-1.6-.3-.6 0-1.2.1-1.7.3-.6.2-1.1.5-1.5 1-.5.5-.9 1.1-1.1 1.7-.3.8-.4 1.6-.4 2.5 0 .8.1 1.6.4 2.4.3.6.6 1.2 1.1 1.7.4.4 1 .8 1.6 1 .6.2 1.2.3 1.8.3.8 0 1.6-.2 2.3-.6.7-.4 1.3-1.1 1.7-1.9l.1-.1-.4-.2z"/>
	<path fill="#fff" d="M12.5 5.9s1 .7.4 1.5c-.7.9-1.2 1.1-1.2 1.6 0 0-.5-.5.1-1.2.5-.7 1.1-1.1.7-1.9zm.7 1.4s-.1.5-.9 1.1c-.9.5-.5.7-.5.7s1.2-.2 1.4-1.8zm-1.8-1.7s.4-.1.5.1c.1.5-.5.9-1.2 1.5-.8.7-.7.9-.7.9s-.5-.5.1-1.1c0 0 1.1-.8 1.3-1.4zm-.1 0L9.8 7s-.1-1.2 1.5-1.4zm11.2 14.5h-2c-.1 0-.1 0-.2-.1 0 0-.1-.1-.1-.2V14c0-1.7-.3-2.3-1.3-2.3-.7 0-1.7.6-2.5 1.3v6.8c0 .1 0 .1-.1.2 0 0-.1.1-.2.1h-2c-.1 0-.1 0-.2-.1 0 0-.1-.1-.1-.2V10c0-.1 0-.1.1-.2 0 0 .1-.1.2-.1H16c.1 0 .1 0 .2.1 0 0 .1.1.1.2v1c1-.9 2.2-1.5 3.4-1.5 2 0 3 1.2 3 3.7v6.6c0 .1 0 .1-.1.2 0 .1 0 .1-.1.1zM9 5.7c-.4-.1-.8-.1-1.2-.1-2.9 0-3.5 1.6-3.5 3.7v10.6c0 .1 0 .1.1.2 0 0 .1.1.2.1h2c.1 0 .1 0 .2-.1 0 0 .1-.1.1-.2v-8.2h1.5c.1 0 .1 0 .2-.1 0 0 .1-.1.1-.2V10c0-.1 0-.1-.1-.2 0 0-.1-.1-.2-.1H6.7v-.5c0-1.2.4-1.6 1.3-1.6h.7c.1 0 .1-.1.1-.1 0-.1.3-1 .4-1.5v-.2s-.1-.1-.2-.1zm4.2 14.2v-9.8c0-.1 0-.1-.1-.2s-.1-.1-.2-.1c-1.2-.1-2.4-.1-3.6 0-.1 0-.1 0-.2.1 0 0-.1.1-.1.2v1.4c0 .1 0 .1.1.2s.1.1.2.1c.4 0 .9-.1 1.4-.1v8.2c0 .1 0 .1.1.2s.1.1.2.1h2c.1 0 .1 0 .1-.1s.1-.2.1-.2z"/>
</svg>