<svg xmlns="http://www.w3.org/2000/svg" viewBox="0 0 167 49.9">
	<path fill="url(#gr1)" d="M44.3 4.4C42.8 1.7 39.8 0 36.7 0H18.1C15 0 12 1.7 10.5 4.4L1.2 20.5c-1.6 2.7-1.6 6.1 0 8.9l9.3 16.1c1.6 2.7 4.5 4.4 7.6 4.4h18.6c3.1 0 6.1-1.7 7.6-4.4l9.3-16.1c1.7-2.7 1.7-6.1.1-8.9L44.3 4.4z"/>
	<linearGradient id="gr1" gradientUnits="userSpaceOnUse" x1="52.2693" y1="45.643" x2="2.487" y2="100.305" gradientTransform="translate(0 -48)">
		<stop offset="0" stop-color="#ff8447"/>
		<stop offset="1" stop-color="#fa363b"/>
	</linearGradient>
	<path fill="#f0f8ff" d="M23 27.2c.3-.4.5-.7.7-1.1V26c.2-.3.4-.6.6-1.1 1-2 2.1-3.9 3.4-5.8 1.7-2.2 4.2-3.4 7-3.3 2.9 0 5.7 1.4 7.4 3.8s2.1 5.5 1 8.2c-1 2.8-3.3 4.8-6.2 5.6-2.8.7-5.9 0-8.1-1.9l2.7-4.9c.7 1.1 1.9 1.8 3.2 1.8s2.5-.7 3.2-1.9c.6-1.1.6-2.5 0-3.7-.7-1.1-1.9-1.8-3.2-1.8-1.1-.1-2.2.4-2.8 1.3-.3.4-.5.7-.7 1.1v.1c-.2.3-.4.6-.6 1.1-1 2-2.1 3.9-3.3 5.8-1.7 2.2-4.2 3.4-7 3.3-2.9 0-5.7-1.4-7.4-3.8-1.7-2.4-2.1-5.5-1-8.2 1-2.8 3.3-4.8 6.2-5.6 2.8-.7 5.9 0 8.1 1.9l-2.8 5c-.2-.3-.4-.6-.7-.8-.9-.8-2.1-1.2-3.3-.9-1.2.3-2.2 1.1-2.6 2.2-.4 1.1-.3 2.4.4 3.4s1.8 1.6 3 1.6c1.1.1 2.2-.4 2.8-1.3z"/>
	<path fill="#2c3345" d="M76.2 16.5H75v-1.6c0-.2-.1-.3-.4-.3h-2.3c-.2 0-.3.1-.3.3v1.6h-1.2c-1.9 0-3.5.6-4.8 1.7s-1.9 2.8-1.9 5.1v3.2c0 2.3.6 4 1.9 5.1 1.3 1.1 2.9 1.7 4.8 1.7H72V35c0 .2.1.4.3.4h2.3c.2 0 .4-.1.4-.4v-1.7h1.2c1.9 0 3.5-.6 4.8-1.7 1.3-1.1 1.9-2.8 1.9-5.1v-3.2c0-2.2-.6-3.9-1.9-5.1-1.3-1.1-2.9-1.7-4.8-1.7zM72 30.6h-1c-1.1 0-2-.3-2.7-.9s-1-1.6-1-3v-3.3c0-2.6 1.3-3.9 3.8-3.9h1v11.1H72zm7.8-4c0 1.4-.3 2.4-1 3s-1.6.9-2.7.9h-1V19.4h1c2.5 0 3.8 1.3 3.8 3.9v3.3h-.1zm11.4-6c-1.7 0-3.1.5-4.1 1.4s-1.5 2.2-1.5 3.7V29c0 1.5.5 2.8 1.5 3.7s2.4 1.4 4.1 1.4 3.1-.5 4.1-1.4c1-.9 1.5-2.1 1.5-3.7v-3.3c0-1.6-.5-2.8-1.5-3.7-1-.9-2.4-1.4-4.1-1.4zm2.7 8.5c0 .8-.2 1.4-.7 1.8s-1.2.6-2.1.6c-1.8 0-2.8-.8-2.8-2.4v-3.3c0-.8.2-1.5.7-1.9s1.2-.6 2.1-.6 1.6.2 2 .7c.5.4.7 1.1.7 1.9v3.2h.1zm10.9-8.5c-1.8 0-3.5.3-5 .9-.2.1-.3.2-.3.4v16.3c0 .2.1.4.4.4h2.1c.2 0 .4-.1.4-.4v-4.6c.8.4 1.7.5 2.6.5 1.6 0 2.9-.5 4-1.4 1-1 1.5-2.3 1.5-3.9v-2.7c0-1.8-.5-3.2-1.6-4.1-.9-.9-2.3-1.4-4.1-1.4zm2.8 8.2c0 1.8-.9 2.7-2.8 2.7-.9 0-1.7-.2-2.4-.7v-7.4c.6-.2 1.3-.3 2.3-.3.9 0 1.7.2 2.1.7.5.4.7 1.2.7 2.2v2.8h.1zm12.9-5.9h-3.8v-4.2h8.2c.2 0 .4-.1.4-.4v-2c0-.2-.1-.4-.4-.4H114c-.2 0-.3.1-.3.4v17.1c0 .2.1.4.3.4h6.5c1.9 0 3.4-.5 4.5-1.4 1.1-.9 1.7-2.3 1.7-4.1 0-1.9-.5-3.2-1.5-4.1-1-.8-2.6-1.3-4.7-1.3zm2.4 7.5c-.5.4-1.3.6-2.4.6h-3.8v-5.4h3.8c1.1 0 1.9.2 2.4.6s.7 1.1.7 2c.1 1.1-.2 1.8-.7 2.2zm11.2-9.8c-2 0-3.6.4-4.9 1.3-.1.1-.1.2 0 .4l1 1.5c.1.2.3.2.5.1.9-.5 2-.8 3.2-.8.9 0 1.6.2 1.9.6.4.4.6 1 .6 1.9v.5c-1-.1-1.8-.2-2.5-.2-1.7 0-3 .3-4 1s-1.5 1.7-1.5 3c0 1.4.5 2.5 1.6 3.2 1 .7 2.4 1 4 1 1.7 0 3.4-.2 5-.7.2-.1.3-.2.3-.4v-7.3c0-1.7-.5-3-1.4-3.8-.9-.9-2.2-1.3-3.8-1.3zm2.3 10.7c-.8.2-1.6.3-2.4.3-.8 0-1.4-.1-1.9-.4s-.7-.7-.7-1.3c0-1.1.9-1.6 2.6-1.6.7 0 1.5.1 2.4.2v2.8zm16.1-10.4h-2.1c-.2 0-.4.1-.4.3v4.6h-4.8v-4.6c0-.2-.1-.3-.4-.3h-2.1c-.2 0-.4.1-.4.3v12.2c0 .2.1.4.4.4h2.1c.2 0 .4-.1.4-.4v-5h4.8v5c0 .2.1.4.4.4h2.1c.2 0 .4-.1.4-.4V21.3c0-.3-.2-.4-.4-.4zm14.4 12.5l-5.2-6.9 4.7-5.1c.1-.1.1-.2.1-.3 0-.1-.1-.1-.3-.1h-2.5c-.2 0-.3.1-.4.2l-4.5 5v-4.8c0-.2-.1-.4-.4-.4h-2.1c-.2 0-.4.1-.4.4v12.2c0 .2.1.4.4.4h2.1c.2 0 .4-.1.4-.4v-3.9l1-1.1 3.9 5.1c.1.1.2.2.4.2h2.5c.4-.1.5-.2.3-.5z"/>
	<path fill="#fd6842" d="M138.9 13l-1.8 5.5c-.1.2-.2.3-.4.3H135c-.3 0-.4-.1-.3-.4l1.4-5.5c.1-.2.2-.3.4-.3h2.2c.1 0 .2.1.2.4z"/>
</svg>