<svg xmlns="http://www.w3.org/2000/svg" viewBox="0 0 160 35.6">
	<g fill="#0d356c">
		<path d="M150 10.1h3.4v5.4h.7l1.9-5.4h3.6l-2.6 7.2 3 7.9h-3.9l-1.9-6.1h-.8v6.1H150V10.1zm-11.3 0h3.3v5.5h2.4v-5.5h3.3v15.1h-3.3v-6.1H142v6.1h-3.3V10.1zM127 25.2h3.5l.4-2.6h2.4l.4 2.6h3.5l-2.9-15.1H130l-3 15.1zm5.1-10.5l.6 4.6h-1.3l.7-4.6zm-14.4 10.5h4.1c.9 0 4.6-.4 4.6-5 0-3.8-2.9-4.5-4.7-4.5h-.7v-2h4.5v-3.6h-7.9l.1 15.1zm3.3-3.1v-3.4h.5c.4 0 1.5 0 1.5 1.6s-1.1 1.8-1.5 1.8h-.5zm-16.6-12h2.9l2.6 3.6 2.6-3.6h2.9v15.1H112V16l-2.1 2.6-2.1-2.6v9.2h-3.4V10.1zm-7.1 15.3c4.1 0 5.4-3.9 5.4-7.8s-1.4-7.8-5.4-7.8-5.4 3.9-5.4 7.8 1.4 7.8 5.4 7.8zm0-3.7c-1.2 0-1.8-1.4-1.8-4.1 0-2.7.6-4.1 1.8-4.1s1.8 1.4 1.8 4.1c0 2.7-.6 4.1-1.8 4.1zM82 25.2h3.4v-5h1.1c3.4 0 4.4-3.1 4.4-5.1 0-1.9-1.2-5-4.4-5H82v15.1zm3.4-11.8h.8c.8 0 1.3.5 1.3 1.7 0 1.6-.8 1.7-1.3 1.7h-.8v-3.4zm-14.7-3.3H80v15.1h-3.4V13.7h-2.5v11.5h-3.4V10.1zm-7 5.8c.6 0 1.6-.4 1.6-1.5 0-1.3-1.2-1.4-1.5-1.4-.4 0-1.1.1-1.9.4v-3.3c1.2-.3 2-.4 3-.4 2.8 0 4.1 2 4.1 4 0 1.9-1.1 3.1-2.1 3.5v.1c1 .3 2.4 1.3 2.4 3.6 0 2.9-1.9 4.4-4.4 4.4-1.3 0-2.2-.2-3.2-.8l.1-3.1c1 .4 1.6.5 2.3.5 1.1 0 1.5-.8 1.5-1.4 0-.9-.5-1.4-1.7-1.4h-1.4v-3.2h1.2zm-13.5 9.3h3.5l.4-2.6h2.4l.4 2.6h3.5l-2.9-15.1h-4.3l-3 15.1zm5.1-10.6l.7 4.6h-1.3l.6-4.6zm-11.7-4.5h7v3.8h-3.5v11.4h-3.5V10.1zM.9 17.8c0 9.3 7.4 16.9 16.5 16.9s16.5-7.6 16.5-16.9C33.9 8.5 26.5.9 17.4.9S.9 8.5.9 17.8zm-.9 0C0 8 7.8 0 17.4 0 27 0 34.7 8 34.7 17.8s-7.8 17.8-17.3 17.8C7.8 35.6 0 27.6 0 17.8z"/>
		<path d="M12.2 6.6c-.6.3-1.2.6-1.7 1 4.1-1.9 9.2-1.8 11.9-.5.9.4 1.4.7 1.7 1.1-2.8-.8-4-.9-6.4-.9-3.3.1-7.8 1.4-9.5 2.5l-.8 1c2.5-1.5 7-2.5 9.6-2.5 2.8 0 5 .2 7 1-.1.5-.4.8-.8 1.1-8.1-1.4-12.8.3-17.1 3.1l-.3 1c4.8-3.4 10.7-4.3 16.4-3.3-2 .7-4.5.9-6.5 1.4-1.7.4-2.7.5-5 1.3-2.4.8-3.7 1.6-4.6 2.6-.4.5-.7 1.1-.8 1.7 0 .4 0 .7.1 1 .1.3.3.6.6.9-.3.5-.5 1.1-.1 1.8.2.3.6.7 1.1 1l-.1.4c-.1.4-.1.9.2 1.4.5.8 1 1.3 2 1.8.1.6.4 1.1.8 1.6 1 1 3.3 2.8 7.3 3.1 3 .2 5.2-.7 6-1.1l1-.5c-1.7.7-4.5 1.1-6.8.9-3.4-.3-6.4-2.5-6.7-3.2.1.1.3.1.4.2 3.9 1.9 9 3 15.5.3l.5-.5c-5.9 1.9-11.1 1.8-16.7-1.2.1-.3.2-.5.4-.7 1.4.6 2.8 1.2 4.5 1.5 1.9.4 4.2.5 6 .4 1.8-.1 5.5-1 7.2-1.9.2-.1.2-.4.4-.5-3.4 1.3-7.4 1.8-9.8 1.7-2.4-.2-4.5-.5-7.2-1.8.5-.2 1.1-.4 1.6-.6 1.8.6 3.7.9 5.9 1 2.2.1 7.3-.7 10.5-2.7l.2-.6s-4.5 2.4-9.5 2.4c-2.4 0-3.8-.3-4.9-.6 2.4-.4 5.4-.8 8.7-1.7 1.7-.4 3.8-1.5 4.8-2.3.8-.8 1.4-1.7 1.2-2.7 0-.3-.4-.9-.8-1.1.4-.5.4-1 .3-1.4 0-.3-.2-.7-.4-1-.3-.4-.5-.7-1.1-1 .1-.4 0-.9-.2-1.3-.4-.7-1.2-1.4-2.5-2-.1-.3-.2-.6-.5-1-1.6-1.6-4.3-2.4-6.5-2.5h-.4c-2.7-.4-4.8.2-6.1.9zm12.7 4c.2-.2.5-.6.6-.9.6.4 1.2.9 1.3 1.5-.7-.2-1.3-.4-1.9-.6zm.4 2.5c-.9-.3-1.8-.6-2.9-.8.7-.3 1.1-.5 1.5-.9.9.2 1.7.5 2.4.9 0 .2-.7.8-1 .8.1 0 .1 0 0 0zm1.8.7c.3-.2.5-.4.7-.7.5.5.7.8.4 1.3-.3-.3-.7-.4-1.1-.6zm-20.3 5c-1.5-2.1 3.6-3.5 4.6-3.8 2.5-.8 5.4-1.3 8-1.6 1.8-.2 2.8 0 4.5.4-4.4 1.2-8.7 1.6-12.8 2.8-3.5 1-4.3 2.2-4.3 2.2zm1 1c1.5-1.3 4.7-2.1 5.8-2.4 3.7-.8 7.1-1.3 8.5-1.7 1.7-.4 2.9-.8 3.7-1.2 0-.1 1.4.6 1.5.8-.5.4-1.1.7-1.8 1-2.1.8-5.9 1.6-7.9 1.9-2 .3-3.7.6-5.9 1.2-1.3.4-2.2.8-2.8 1.2-.4-.3-.6-.4-1.1-.8zm2.9 1.6c.7-.3 1.4-.5 2-.7 3.5-.9 6.5-1 10.8-2.2 2-.6 3.5-1.1 4.5-1.9.1-.1.3-.2.4-.3 1.2 1.9-3.4 3.4-6.5 4.1-1.6.3-3.3.7-4.9 1-2.1.3-2.7.5-4.2 1-.7-.3-1.4-.6-2.1-1zM7 20.8l.9.6c-.1.1-.3.2-.5.4-.2-.2-.5-.6-.4-1zm1.6 1.9c.2-.2.5-.4.7-.5.6.3 1.2.5 1.8.8-.4.1-.8.3-1.1.6-.4-.4-.9-.6-1.4-.9zm-.5 1c.3.2.7.4 1 .6l-.3.6c-.5-.5-.7-.8-.7-1.2z"/>
	</g>
</svg>