<svg viewBox="0 0 191 24" xmlns="http://www.w3.org/2000/svg">
	<path fill="#0059A5" d="M44.548 15.5c2.269-1.274 5.337-3.224 7.081-5.031-8.577-2.55896-32.127.222-50.629048 6.557-.003-.209-.003-.418-.001-.626C6.47495 14.084 12.995 11.499 18.755 9.91604c6.258-1.72 12.602-3.188 19.046-3.997 3.576-.449 11.92-1.258 14.778.9.706.618.561.263.77 4.34896-.013.31.08.667-.154.923-1.131 1.238-5.253 2.52-7.922 3.532l-.725-.123Z"/>
	<path fill="#929295" d="M43.5809 15.3548c-8.223-.227-20.111 3.089-26.797 6.295 0 .234-.001.468.001.703 7.771-2.897 22.127-6.048 30.232-3.544-3.006 2.944-6.959 4.23-8.076 5.044 9.44-3.887 9.193-3.41 9.212-4.661-.139-2.604-.035-2.395-.51-2.808-.976-.741-2.796-.994-4.062-1.029ZM30.5511.999776c-9.19.185004-20.127 3.815004-28.56305 7.384004-.001.132-.001.265 0 .397 9.24705-3.188 26.76205-6.511 33.74605-4.438-.551.544-1.164 1.019-1.781 1.484.94-.148 1.879-.3 2.823-.419.035-.098.104-.19.097-.301-.06-.881-.049-1.768-.147-2.647-.19-1.699003-6.814-1.484004-6.175-1.460004Z"/>
	<path fill="#0059A5" d="M110.129 6.95593c-.684-.639-1.641-.879-2.554-.925-1.659-.001-3.32 0-4.979 0-.003 4.31597-.001 8.63197-.001 12.94897h1.651c-.001-1.751.001-3.502-.001-5.253 1.084-.004 2.169-.001 3.253-.001 1.078-.01 2.184-.407 2.913-1.225.746-.786 1.057-1.909.96-2.97597-.069-.974-.541-1.899-1.242-2.569Zm-1.036 4.66097c-.476.519-1.196.743-1.885.747-.987.002-1.974 0-2.961.001-.001-1.646 0-3.29297-.001-4.93997 1.059.003 2.118-.003 3.177.003.67.009 1.359.286 1.758.843.744.95.751 2.45197-.088 3.34597ZM91.747 6.02993c3.017-.001 6.035 0 9.052-.001v1.433c-1.229-.001-2.458.001-3.687-.001-.004 3.83997-.001 7.67797-.001 11.51797-.558-.001-1.116.002-1.673-.001.003-3.839 0-7.677.001-11.51597-1.231.001-2.461.001-3.692 0-.002-.477-.002-.955 0-1.432Zm-27.853.001c2.219-.001 4.439-.002 6.658 0 .002.476.002.953 0 1.43-1.669.003-3.338.001-5.007.001 0 3.83897-.001 7.67797 0 11.51697h-1.651c0-4.317-.001-8.632 0-12.94797Zm27.032 8.32597c.205.976.088 2.047-.444 2.904-.423.678-1.03 1.258-1.775 1.565-.96.403-2.028.465-3.055.401-1.1-.08-2.218-.451-3.012-1.243-.736-.691-1.143-1.659-1.333-2.637.5-.121 1-.234 1.499-.36.204.818.532 1.665 1.212 2.205.761.604 1.777.75 2.721.702.719-.045 1.48-.268 1.956-.842.671-.762.77-1.906.407-2.83-.195-.5-.623-.881-1.122-1.065-.849-.324-1.773-.212-2.66-.235-.001-.465-.004-.93.001-1.394.881-.02 1.84.115 2.629-.371 1.174-.664 1.334-2.51697.336-3.40297-.526-.489-1.271-.661-1.973-.658-.751-.007-1.539.176-2.115.68-.529.46-.807 1.14-.933 1.816-.538-.044-1.075-.114-1.611-.175.245-1.043.714-2.091 1.582-2.761 1.04-.825 2.442-.987 3.725-.875 1.132.087 2.286.538 3.013 1.44.616.727.797 1.751.615 2.671-.111.59697-.446 1.14697-.925 1.51997-.411.328-.899.549-1.402.695.467.13.947.24 1.366.494.659.362 1.141 1.02 1.298 1.756ZM74.794 6.02793c-1.416 4.31397-2.808 8.63497-4.221 12.94997.465.003.929 0 1.394.001.395-1.262.793-2.523 1.183-3.786 1.589.002 3.178-.005 4.767.004.423 1.263.869 2.517 1.292 3.78.563.006 1.125.001 1.688.002-1.406-4.316-2.805-8.635-4.217-12.94897-.63-.001-1.258.002-1.886-.002Zm-1.21 7.92697c.667-2.041 1.322-4.08597 1.996-6.12297.665 2.038 1.32 4.08097 1.973 6.12297h-3.969Zm102.302-7.92497c.553-.001 1.108 0 1.662-.001V18.9779h-1.663c.001-2.048 0-4.097.001-6.144-1.98-.001-3.959 0-5.939-.001.001 2.048-.001 4.096.001 6.144-.55.001-1.099 0-1.648.001V6.02893c.548.001 1.097-.001 1.646.001.002 1.783.001 3.567.001 5.34997 1.98-.002 3.96.004 5.94-.003-.005-1.78097-.003-3.56397-.001-5.34697ZM191 18.9789h-1.807c-1.277-2.38-2.567-4.754-3.845-7.134-.94 1.173-1.87 2.355-2.813 3.526-.058.077-.14.151-.121.257-.001 1.117 0 2.234 0 3.351h-1.651c.001-4.316-.001-8.632.001-12.94897.549-.001 1.099-.001 1.649.001.003 2.477-.004 4.95397.003 7.43197 1.936-2.473 3.87-4.94697 5.794-7.42997.593-.006 1.187-.002 1.781-.002-1.172 1.509-2.343 3.016-3.516 4.52397 1.51 2.807 3.018 5.615 4.525 8.424ZM130.61 6.03093c.548-.003 1.097-.001 1.646-.001V18.9789c-.55-.001-1.099.001-1.648-.001.002-2.048 0-4.096.001-6.144-1.98.001-3.959 0-5.939.001.001 2.048 0 4.096.001 6.144h-1.663V6.02893c.554.001 1.108-.001 1.662.001.003 1.784-.003 3.568.002 5.35197 1.979-.003 3.958 0 5.937-.001 0-1.78297-.001-3.56697.001-5.34997Zm6.054 4.35897c-.211.977-.247 1.985-.19 2.981.085 1.054.335 2.125.928 3.015.384.59.935 1.096 1.616 1.313.967.314 2.124.127 2.868-.592.711-.655 1.06-1.593 1.309-2.504.505.113 1.011.224 1.518.335-.284 1.183-.785 2.369-1.697 3.205-.633.586-1.459.945-2.311 1.052-1.143.158-2.369-.007-3.348-.647-.783-.501-1.362-1.261-1.79-2.075-.836-1.603-1.023-3.468-.853-5.246.144-1.47097.671-2.95297 1.714-4.02897.66-.701 1.549-1.179 2.497-1.35.947-.166 1.949-.143 2.859.189.776.284 1.446.826 1.915 1.504.505.711.808 1.542 1.018 2.381-.523.10797-1.045.21497-1.568.31297-.257-.94197-.668-1.90197-1.449-2.52797-1.126-.872-2.885-.69-3.866.322-.637.633-.98 1.498-1.17 2.36097Zm-19.515-4.35997c-.633-.001-1.265-.001-1.897 0-1.401 4.31697-2.814 8.62897-4.21 12.94897h1.388c.398-1.261.788-2.525 1.188-3.786 1.588.005 3.176-.01 4.764.008.422 1.263.864 2.518 1.293 3.778.561-.001 1.122.001 1.683-.001-1.4-4.316-2.811-8.63-4.209-12.94797Zm-3.101 7.92497c.553-1.703 1.108-3.406 1.661-5.10997.118-.338.204-.687.347-1.015.639 2.046 1.31 4.08297 1.965 6.12497-1.324.001-2.648-.001-3.973 0Zm48.381-7.92397c-.63-.004-1.26 0-1.89-.001-1.407 4.31497-2.816 8.62997-4.212 12.94897.463 0 .926.002 1.39-.001.395-1.261.787-2.524 1.185-3.784 1.585-.001 3.17.002 4.755-.002.438 1.262.866 2.527 1.306 3.789.558-.001 1.117 0 1.675 0-1.393-4.321-2.805-8.634-4.209-12.94997Zm-3.096 7.92397c.671-2.042 1.314-4.09597 2.006-6.13097.639 2.048 1.312 4.08597 1.965 6.12997-1.323.002-2.647 0-3.971.001Zm-4.241-.72c-.342-.684-.909-1.293-1.648-1.542-.639-.213-1.316-.266-1.984-.303-1.053-.052-2.107-.022-3.16-.029.001-1.3-.004-2.60097.003-3.90097 1.947.004 3.894.002 5.841.001.001-.477.001-.953 0-1.43-2.481-.002-4.961-.002-7.442 0-.004 4.31597.001 8.63197-.002 12.94697 1.521.003 3.043.001 4.564.001.861-.001 1.75-.117 2.519-.53.925-.502 1.547-1.48 1.678-2.517.113-.908.029-1.864-.369-2.697Zm-1.881 3.688c-.484.449-1.166.585-1.805.61-1.035.004-2.07 0-3.106.002-.001-1.574 0-3.147-.001-4.721.963.002 1.926-.002 2.889.002.678.028 1.41.103 1.961.541.524.422.711 1.129.692 1.777.019.642-.145 1.337-.63 1.789Z"/>
</svg>