<svg xmlns="http://www.w3.org/2000/svg" viewBox="0 0 190 22.1">
	<path fill="#0059a5" d="M52.4 10.2c0 .4 0 0 0 0-.3-.3-.7-.7-1.3-1 .9.7 1.3 1 1.3 1s0-4-.3-4.3c-2.3-3.3-16.8-2.3-35.6 3-4.6 1.6-10.9 4-16.5 6.3v.7c2.3-1 4.9-1.6 7.6-2.3C22.4 9.3 40.5 7.7 48.4 9c1 0 1.6.3 2 .3h.3-.3c-2 2-5.6 4.6-9.9 6.6 5.3-2 11.9-4 11.9-5.7 0 .4 0 .4 0 0zm91.2 3.7l-1.3-.3c-.3 2.3-1.6 3.3-4 3-1 0-2-.3-2.6-1.3-.7-1-1-2.3-1-4 0-1.6.3-3 1-4s1.6-1.3 2.6-1.3c1.6 0 2.6 1 3.3 3l1.6-.3c-.7-3-2.3-4.3-4.6-4.3-1.6 0-3 .7-4 2s-1.3 3-1.3 4.9.3 3.6 1.3 4.9c1 1.3 2.3 2 4 2 2.7-.1 4.3-1.4 5-4.3zm-63.3.6l1.3-.3c.3 1 .7 1.6 1.3 2.3.7.3 1.3.7 2.3.7 1 0 1.6-.3 2.3-.7.7-.3.7-1 .7-2 0-1.6-1-2.3-2.6-2.3h-1.3v-1.6h1c.7 0 1.3-.3 2-.7.3-.3.7-1 .7-1.6 0-.7-.3-1.3-.7-1.6-.3-.3-1-.7-2-.7-1.6 0-2.6 1-3 2.6l-1.6-.3c.7-2.3 2-3.6 4.6-3.6 1.3 0 2.3.3 3.3 1 .7.7 1.3 1.3 1.3 2.6 0 1.6-1 2.3-2.6 3 2 .3 3 1.3 3 3.3 0 1-.3 2-1.3 2.6-.7.7-2 1.3-3.6 1.3-1.3 0-2.6-.3-3.3-1-1.1-1-1.4-2-1.8-3zM62.9 5v13.2h1.6V6.6h4.9V5h-6.5zm11.5 1.6l2 6.3h-4l2-6.3zM78 18.1h1.6l-4-12.8h-2.3L69 18.1h1.3l1.3-3.6h4.9l1.5 3.6zm16.5 0h1.6V6.6h3.6V5h-8.9v1.6h3.6c.1 0 .1 11.5.1 11.5zm8.6-6.5h3c.7 0 1.3-.3 2-.7.3-.7.7-1.3.7-2s-.3-1.3-.7-1.6c-.3-.7-1-.7-2-.7h-3v5zm0 6.5h-1.6V5h4.6c1.3 0 2.6.3 3.3 1.3.7.7 1 1.6 1 2.6s-.3 2-1 2.6c-.7.7-1.6 1-3 1h-3.3v5.6zm12.2-11.5l2 6.3h-4l2-6.3zm3.6 11.5h1.6l-4.3-12.8h-2L110 18.1h1.3l1.3-3.6h4.9l1.4 3.6zm12.5 0h-1.6v-6.3h-5.9v6.3h-1.6V5h1.6v5.6h5.9V5h1.6v13.1zm16.1-1.6h3c1.6 0 2.6-.7 2.6-2.3 0-.7-.3-1.3-.7-1.6-.3-.3-1.3-.7-2.3-.7h-2.6v4.6zm-1.6 1.6V5h7.6v1.6h-5.9v4h2.3c1.3 0 2 0 2.6.3s1.3.7 1.6 1.3c.3.3.7 1.3.7 2 0 1-.3 2-1 2.6-.7.7-1.6 1-3.3 1l-4.6.3zm14.5-11.5l2 6.3h-4l2-6.3zm3.6 11.5h1.6l-4.3-12.8h-1.6l-4.3 12.8h1.3l1.3-3.6h4.6l1.4 3.6zm12.8 0h-1.6v-6.3h-6.3v6.3h-1.6V5h1.6v5.6h6.3V5h1.6v13.1zm11.6 0h1.6l-4.3-8.6L189 5h-1.6l-5.9 7.6V5h-1.6v13.2h1.6v-3.6l3-3.6 3.9 7.1z"/>
	<path fill="#929295" d="M34.9 3.6c.3 0 .7.3 1 .7-1 .3-1.6.3-2.6.3.7-.3 1.3-1 1.6-1.3-.1 0-.3-.1-.4-.1-.3-.1-.5-.2-.9-.2-5.3-.7-17.5.3-27 3-2 .7-4 1.3-5.6 2v-.4C4.6 6 8.9 4.3 12.2 3.3 24.7-.3 34.3-1 35.6 1.3c.3.3.3 2.5.3 2.9 0-.3-.1-.6-1-.6zm1 .6c0 .1 0 .1 0 0 0 .1 0 .1 0 0zm11.2 14.3c0-.1-.1-.2-.1-.3.1.2.1.3.1.3zm-.2-.3c-.1-.1-.3-.2-.5-.4.1.1.3.2.4.3 0 0 .1 0 .1.1zm.2-2.4v2.6c0 .8-2.6 1.7-5.3 2.7-.8.3-1.6.6-2.3.9 3-1.3 5.3-3 6.6-4.3-.1 0-.3-.1-.4-.1-.2-.1-.5-.2-.9-.2h-.2c-5.2-.6-9.9-1.2-24.8 2.7-.3.1-.7.2-1.1.3-.9.3-2 .5-2.9 1v-.7c2-1 4.3-2 8.2-3 12.2-3.8 21.4-3.8 23.1-1.9z"/>
</svg>