<svg xmlns="http://www.w3.org/2000/svg" viewBox="0 0 180 21.9">
	<path fill="#f65e64" d="M163.9 17.2v-5.1h-6.2v5.1h-2V5.5h2v4.8h6.2V5.5h2v11.7h-2zm13.4 0l-4.6-5h-2.1v5h-2V5.5h2v4.9h2.2l4.4-4.9h2.4l-5.1 5.7 5.5 6h-2.7zm-27.6-3.5c-.4.6-1 1.1-1.6 1.4s-1.3.5-2 .5c-1.1 0-1.9-.5-1.9-1.5 0-.8.6-1.4 1.7-1.7 1.3-.2 2.6-.4 3.9-.5v1.8zm3.5 1.5c-.1.1-.2.3-.3.4s-.3.1-.5.2c-.1 0-.2 0-.3-.1-.1 0-.2-.1-.3-.2-.1-.1-.1-.2-.2-.3 0-.1-.1-.2 0-.3V9.1c0-2.3-1.9-3.9-4.6-3.9-.7 0-1.4.1-2 .3-.7.2-1.2.6-1.8 1.1l1.3 1.3c.3-.3.7-.6 1.1-.7.4-.2.8-.2 1.3-.2 1.6 0 2.7 1 2.7 2.3v.9c-1.8.2-3.1.4-3.8.5-2.3.5-3.7 1.7-3.7 3.6s1.5 3.1 3.7 3.1c1.6 0 2.9-.3 3.9-1.5.2 1.1 1.2 1.5 2.5 1.5.4 0 .8-.1 1.2-.3.4-.2.7-.4 1-.7l-1.2-1.2zm-18.5.1c-.8 0-1.6-.2-2.2-.7-.7-.4-1.2-1.1-1.5-1.8-.3-.7-.4-1.5-.2-2.3.2-.8.5-1.5 1.1-2 .6-.6 1.3-.9 2-1.1.8-.2 1.6-.1 2.3.2.7.3 1.3.8 1.8 1.5s.7 1.4.7 2.2c0 1.1-.4 2.1-1.2 2.8-.7.8-1.7 1.2-2.8 1.2zm0-9.8c-1.5 0-2.9.5-3.9 1.5.1-1 .6-2 1.4-2.7.8-.7 1.8-1.1 2.8-1.1 1.2 0 2.4-.2 3.5-.5.8-.3 1.4-.7 2-1.2L139.2 0c-.4.4-.9.7-1.4.9-.6.2-1.3.3-2.7.4-1.6 0-3.2.7-4.4 1.8-1.2 1.2-1.8 2.7-1.8 4.4v3.9c0 1.2.3 2.3 1 3.3s1.6 1.7 2.6 2.2c1.1.4 2.3.6 3.4.3 1.1-.2 2.2-.8 3-1.6.8-.8 1.4-1.9 1.6-3 .2-1.1.1-2.3-.3-3.4s-1.2-2-2.2-2.6c-1-.8-2.1-1.2-3.3-1.1M115.2 16.3l1.4 1.3 5.7-6.3-1.3-1.5-5.8 6.5z"/>
	<path fill="#30a6e0" d="M54.9 17.2v-5.1h-6.2v5.1h-2V5.5h2v4.8h6.2V5.5h2v11.7h-2zM16 13.8c-.4.6-1 1.1-1.6 1.4-.6.3-1.3.5-2 .5-1.1 0-1.9-.5-1.9-1.5 0-.8.6-1.4 1.7-1.7 1.3-.2 2.6-.4 3.9-.5-.1 0-.1 1.8-.1 1.8zm3.6 1.5c-.1.1-.2.3-.3.4-.1.1-.3.1-.5.2-.1 0-.2 0-.3-.1-.1 0-.2-.1-.3-.2-.1-.1-.1-.2-.2-.3 0-.1-.1-.2-.1-.3V9.2c0-2.3-1.9-3.9-4.5-3.9-.7 0-1.4.1-2 .3-.7.2-1.2.6-1.8 1.1L11 8c.3-.3.7-.6 1.1-.7.4-.2.8-.2 1.3-.2 1.6 0 2.7 1 2.7 2.3v.9c-1.8.2-3.1.4-3.8.5-2.3.5-3.7 1.7-3.7 3.6 0 1.9 1.4 3.1 3.7 3.1 1.6 0 2.9-.3 3.9-1.5.2 1.1 1.2 1.5 2.5 1.5.4 0 .8-.1 1.2-.3.4-.2.7-.4 1-.8-.1.1-1.3-1.1-1.3-1.1zm41.5-4.8h8.2c-.1-1-.6-1.9-1.3-2.6-2.2-1.9-6.8-.7-6.9 2.6zm9.2 4.6c-.8 1-1.9 1.7-3.1 2.1-1.2.4-2.5.3-3.7-.1-1.2-.4-2.3-1.2-3-2.2s-1.2-2.3-1.2-3.6c0-3.6 2.5-6.1 5.9-6.1 3.2 0 6 2.3 6 5.8 0 .4 0 .8-.1 1.3h-10c.4 2.1 2 3.4 4.2 3.4.7 0 1.4-.1 2.1-.5s1.2-.8 1.6-1.4l1.3 1.3zM38.4 5.3c-.9 0-1.7.2-2.5.5s-1.5.8-2.1 1.5l1.3 1.2c.4-.5.9-.8 1.5-1.1.6-.2 1.2-.4 1.8-.4 1-.1 2 .3 2.7.9.8.6 1.3 1.5 1.4 2.5h-6.2v1.8h6.2c-.1 1-.6 1.9-1.4 2.6-.8.6-1.7 1-2.7.9-.7 0-1.4-.1-2.1-.5-.6-.3-1.2-.8-1.6-1.4l-1.3 1.3c.6.8 1.3 1.4 2.2 1.8.9.4 1.8.6 2.8.6.8 0 1.6-.1 2.4-.4.8-.3 1.4-.7 2-1.3s1-1.3 1.3-2c.3-.8.4-1.6.4-2.4 0-3.7-2.5-6.1-6.1-6.1m57.4.2h-7.9v11.7h2v-10h6c-.1 0-.1-1.7-.1-1.7zm-87.9 0H0v11.7h2v-10h6c-.1 0-.1-1.7-.1-1.7zm94.2 10.1c-.8 0-1.7-.2-2.4-.7-.7-.5-1.2-1.1-1.6-1.9-.3-.8-.4-1.6-.2-2.5s.6-1.6 1.2-2.2 1.3-1 2.2-1.2c.8-.2 1.7-.1 2.5.2.8.3 1.4.9 1.9 1.6.5.7.7 1.5.7 2.4 0 1.1-.4 2.2-1.2 3-.9.8-2 1.3-3.1 1.3zm0-10.3c-1.2 0-2.4.4-3.4 1-1 .7-1.7 1.6-2.2 2.7-.5 1.1-.6 2.3-.3 3.5.2 1.2.8 2.3 1.7 3.1s1.9 1.4 3.1 1.7c1.2.2 2.4.1 3.5-.3s2.1-1.2 2.7-2.2c.7-1 1-2.2 1-3.4 0-1.6-.6-3.2-1.8-4.3-1.1-1.2-2.7-1.8-4.3-1.8zM79.6 15.6c-.8 0-1.7-.2-2.4-.7-.7-.5-1.2-1.1-1.6-1.9-.3-.8-.4-1.6-.2-2.5s.6-1.6 1.2-2.2 1.4-1 2.2-1.2c.8-.2 1.7-.1 2.5.2.7.4 1.3 1 1.8 1.7s.7 1.5.7 2.4c0 1.1-.4 2.2-1.2 3-.8.7-1.9 1.2-3 1.2zm0-10.3c-1.4 0-2.8.5-3.9 1.4V5.5h-2v16.4h2V16c.7.6 1.6 1.1 2.6 1.3 1 .2 1.9.2 2.9 0 .9-.2 1.8-.7 2.5-1.4s1.3-1.5 1.6-2.4c.3-.9.4-1.9.3-2.9s-.5-1.9-1-2.7c-.6-.8-1.4-1.5-2.2-1.9-.9-.5-1.9-.7-2.8-.7zM26.7 7.1c-.6 0-1.3.1-1.8.4-.6.3-1.1.6-1.5 1.1l-1.3-1.3c.6-.6 1.3-1.2 2.1-1.5.8-.3 1.7-.5 2.5-.4 2.9 0 4.4 1.4 4.4 3.1 0 .6-.1 1.1-.4 1.6-.2.4-.5.7-.9.9v.2c1 .4 1.7 1.1 1.7 2.7 0 1.9-2 3.6-4.8 3.6-2.4 0-4.1-.9-5.1-2.4l1.3-1.3c.8 1.3 2.1 1.9 3.8 1.9 1.3 0 2.9-.6 2.9-1.9 0-1.1-.6-1.8-2.6-1.8h-2v-1.7h2c1.7 0 2.3-.8 2.3-1.7 0-1.1-1.3-1.5-2.6-1.5M121 9.8L116.7 5l-1.5 1.3 4.5 5 1.3-1.5z"/>
</svg>