<svg xmlns="http://www.w3.org/2000/svg" viewBox="0 0 160 24.7">
	<path fill="#001b52" d="M0 24.7h6.5V6.4h11.4V0H0v24.7zm21.9 0H39v-6H28.4v-3.4h5.3v-6l-5.3.1V6H39V0H21.9v24.7zM55.5 9.1h-5.4V0h-6.5v24.7h6.5v-9.2l5.4-.1.1 9.3H62V0h-6.5v9.1zm12.4 15.6h6.5V15h4.9v4.2H76v5.5h9.7V9.5H74.4v-4h11.3V0H67.9v24.7zM100.8 0v6.4l1.4.1.6 6.5-4.2-.1.6-12.9h-4.9L91 24.7h6.4l.6-5.3h5.5l.6 5.3h6.3L107.2 0h-6.4zm26.7 9.1H122V0h-6.4v24.7h6.4v-9.3l5.5.1v9.2h6.5V0h-6.5v9.1zm26.4 2.8L159.7 0h-7l-3.9 9.1h-2.2V0h-6.5v24.7h6.5v-9.2l2.2-.1 4.2 9.3h7l-6.1-12.8z"/>
</svg>