<svg viewBox="0 0 160 36" xmlns="http://www.w3.org/2000/svg">
	<path fill="#0066B7" d="M46.5783 15.1406h9.821v3.0007h-.3007c-.1313-.7411-.3007-1.2649-.5061-1.5706-.2069-.3056-.4574-.5018-.7539-.5901-.2958-.0861-.8824-.1299-1.7612-.1299h-2.2708v8.6464c0 .6212.0917 1.0172.2724 1.1908.1822.1694.5139.2555.9975.2555h.2844v.3h-5.7833v-.3h.312c.4807 0 .8069-.0903.9812-.2731.1751-.1836.2626-.5739.2626-1.1732v-7.6638c0-.5054-.072-.864-.2167-1.075-.1454-.2104-.4744-.3177-.9868-.3177h-.3523v-.3h.0007Zm13.6511 9.9572c-.9275.8358-1.7605 1.2565-2.4981 1.2565-.4327 0-.7934-.1454-1.0814-.4327-.2866-.2838-.4299-.6438-.4299-1.0744 0-.583.2499-1.1096.7475-1.5748.4991-.4666 1.5854-1.0878 3.2619-1.8614v-.7701c0-.5782-.0304-.9431-.0932-1.092-.06-.1504-.1779-.2817-.3473-.3939-.1715-.1108-.3635-.1673-.5781-.1673-.3473 0-.6353.079-.864.2372-.1412.0981-.2132.2117-.2132.3416 0 .1151.077.2562.2302.4257.2068.2343.3098.4595.3098.6776 0 .2682-.0995.4948-.2986.6826-.199.187-.4609.2809-.7814.2809-.3416 0-.6303-.1044-.8618-.3106-.2323-.2068-.348-.4489-.348-.7291 0-.3925.1545-.7673.4644-1.1252.3099-.3572.7419-.6318 1.296-.8224.5534-.1906 1.1308-.2866 1.728-.2866.7228 0 1.2946.1546 1.7153.4645.4221.3078.6939.6452.8196 1.0038.0755.2301.1143.7588.1143 1.5847v2.9767c0 .3501.0127.5696.0416.6607.0269.0889.0678.156.1229.2005.0557.0437.1186.067.1906.067.1425 0 .288-.103.4369-.3035l.2435.1941c-.2724.4003-.5562.6911-.8491.8725-.293.18-.6262.2725-.9982.2725-.4369 0-.7807-.1059-1.0277-.3135-.2464-.2054-.3981-.5202-.4525-.9416Zm0-.6007v-2.5433c-.6529.3904-1.1393.8061-1.4576 1.2515-.2104.2958-.3156.5944-.3156.8951 0 .252.089.475.2676.6663.1341.1483.3233.2217.5668.2217.2689-.0007.583-.1631.9388-.4913Zm7.1132.9593v2.8602c0 .3883.0303.6544.0903.7948.0607.1391.1553.2429.2824.3092.127.0643.3748.0967.7454.0967v.3h-4.3376v-.3c.343-.0113.5971-.1066.7623-.2859.1101-.1256.1666-.4475.1666-.9698v-8.0732c0-.5358-.0642-.8788-.1906-1.0264-.1271-.1489-.3727-.2343-.7376-.2562v-.3h3.2195v1.0059c.2661-.3932.5379-.6748.8146-.8506.3967-.2675.828-.4017 1.296-.4017.5597 0 1.0694.1786 1.5296.533.4581.3529.8075.8428 1.0454 1.4668.24.624.3593 1.296.3593 2.016 0 .773-.1228 1.4795-.3706 2.1205-.247.6416-.6056 1.1287-1.0764 1.464-.4687.3339-.9925.5026-1.5692.5026-.4179 0-.8097-.0918-1.1739-.2781-.2711-.1419-.5569-.384-.8555-.7278Zm0-.833c.4666.6615.9656.9925 1.4979.9925.2929 0 .5343-.156.7249-.4645.2809-.4552.4214-1.3242.4214-2.6054 0-1.3136-.1546-2.2129-.4638-2.6978-.2061-.3191-.4821-.4786-.8301-.4786-.5477 0-.9981.3967-1.351 1.1894v4.0644h.0007Zm10.5628.4744c-.9282.8358-1.7598 1.2565-2.4981 1.2565-.4334 0-.7941-.1454-1.0814-.4327-.2866-.2838-.4299-.6438-.4299-1.0744 0-.583.2485-1.1096.7475-1.5748.4984-.4666 1.5854-1.0878 3.2619-1.8614v-.7701c0-.5782-.0318-.9431-.0932-1.092-.0614-.1504-.1786-.2817-.348-.3939-.1715-.1108-.3642-.1673-.5774-.1673-.348 0-.636.079-.8654.2372-.1412.0981-.2118.2117-.2118.3416 0 .1151.077.2562.2287.4257.2069.2343.3106.4595.3106.6776 0 .2682-.0995.4948-.2986.6826-.1997.187-.4595.2809-.7807.2809-.3444 0-.6317-.1044-.864-.3106-.2308-.2068-.3473-.4489-.3473-.7291 0-.3925.156-.7673.4652-1.1252.3106-.3572.7426-.6318 1.2967-.8224.5534-.1906 1.1287-.2866 1.728-.2866.7228 0 1.2946.1546 1.7146.4645.4207.3078.6946.6452.8188 1.0038.077.2301.1151.7588.1151 1.5847v2.9767c0 .3501.0127.5696.0409.6607.0269.0889.0685.156.1229.2005.055.0437.1193.067.1905.067.1433 0 .2888-.103.437-.3035l.2463.1941c-.2745.4003-.5583.6911-.8513.8725-.2929.18-.6247.2725-.9974.2725-.4383 0-.7821-.1059-1.027-.3135-.2478-.2054-.3996-.5202-.4532-.9416Zm0-.6007v-2.5433c-.6529.3904-1.1393.8061-1.4576 1.2515-.2104.2958-.3156.5944-.3156.8951 0 .252.0883.475.2676.6663.1341.1483.3232.2217.5647.2217.271-.0007.5844-.1631.9409-.4913Zm4.1668 1.7463v-.3c.3113 0 .5294-.0818.6565-.2421.1256-.1644.1899-.4736.1899-.9296v-4.6666c0-.4849-.0621-.8061-.1864-.9621-.1228-.1574-.343-.2365-.66-.2365v-.3h3.9014v.3c-.2816.0057-.4793.0819-.5929.216-.1137.132-.1715.4327-.1715.9035v1.9906h2.2094V20.026c0-.3875-.0424-.6698-.1271-.8491-.0847-.18-.2986-.2704-.6367-.2704v-.3h3.9007v.3c-.3113 0-.5301.0777-.6564.2329-.1271.1546-.1906.413-.1906.7758v4.8572c0 .4835.0614.7976.1863.9416.1242.1433.3431.2196.6607.2309v.3h-3.9007v-.3c.2831-.0057.4821-.0699.5951-.1942.1122-.1242.1687-.432.1687-.924v-2.2905h-2.2094v2.2369c0 .4892.0578.8061.1715.9551.1136.1447.3113.2174.5929.2174v.3h-3.9014v-.0022Zm11.1974 0v-.3c.3219 0 .5443-.0847.665-.2512.12-.1702.1807-.504.1807-1.0031v-5.5645h-.7638c-.5365 0-.9092.0939-1.116.2852-.2075.1885-.3727.5852-.4927 1.1873h-.3v-1.9913h7.637v1.9913h-.2993c-.0996-.5421-.2443-.9226-.4363-1.1428-.1906-.2203-.5767-.3297-1.1576-.3297h-.7793v5.5645c0 .5153.06.852.1807 1.0087.12.1588.3423.2393.6649.2456v.3h-3.9833Zm11.2494-3.0007h-4.7475v-1.6913h4.7475v1.6913Zm8.928-6.2689c-.005-.6014-.078-1.0059-.217-1.2162-.142-.2111-.491-.3163-1.05-.3163h-.37v-.3007h5.974v.3h-.388c-.517 0-.858.0996-1.025.3-.168.1977-.251.6353-.251 1.3101v7.2826c0 .6854.085 1.1238.255 1.3186.17.1927.51.2908 1.022.2908h.387v.3h-5.973v-.3h.37c.522 0 .863-.1023 1.023-.3063.163-.2054.243-.6417.243-1.3031v-6.0649l-3.982 6.1828c0 .5301.065.9113.195 1.1428.131.233.484.348 1.059.348h.382v.3h-5.946v-.3h.369c.518 0 .858-.1023 1.022-.3063.164-.2054.245-.6417.245-1.3031v-7.2819c0-.6748-.066-1.1124-.198-1.3101-.129-.2004-.486-.3-1.07-.3h-.368v-.3h5.945v.3h-.382c-.501 0-.834.1101-1.001.3276-.169.2202-.254.6458-.254 1.2825v6.1059l3.984-6.1828Zm5.08 9.2696v-.3c.311 0 .53-.0818.656-.2421.125-.1644.189-.4736.189-.9296v-4.6666c0-.4849-.062-.8061-.185-.9621-.124-.1574-.345-.2365-.66-.2365v-.3h3.901v.3c-.281.0057-.478.0819-.592.216-.115.132-.172.4327-.172.9035v1.9906h2.21V20.026c0-.3875-.045-.6698-.129-.8491-.084-.18-.296-.2704-.635-.2704v-.3h3.9v.3c-.311 0-.529.0777-.656.2329-.125.1546-.19.413-.19.7758v4.8572c0 .4835.063.7976.185.9416.123.1433.343.2196.66.2309v.3h-3.9v-.3c.283-.0057.481-.0699.595-.1942.112-.1242.17-.432.17-.924v-2.2905h-2.21v2.2369c0 .4892.058.8061.172.9551.114.1447.312.2174.592.2174v.3h-3.901v-.0022Zm9.643-7.6376h4.251c.89 0 1.616.1595 2.184.4786.564.319.847.792.847 1.4188 0 .8457-.584 1.4153-1.752 1.7097 1.568.1842 2.352.8449 2.352 1.975 0 .6854-.32 1.2-.961 1.541-.641.3423-1.52.5145-2.639.5145h-4.281v-.3c.381-.0381.617-.1256.708-.2611.091-.137.137-.4038.137-.8019v-4.5558c0-.6141-.051-.9974-.155-1.1484-.1-.1532-.333-.2422-.691-.2704v-.3Zm3.245 3.4094c1.327-.0367 1.991-.5202 1.991-1.4449 0-.9494-.665-1.4301-1.991-1.4457v2.8906Zm0 .5188v2.4932c0 .2534.041.4327.125.5379.083.1073.263.1602.54.1602.466 0 .863-.1602 1.19-.48.327-.3176.491-.7249.491-1.2183 0-.5196-.183-.8979-.545-1.1372-.364-.2372-.963-.3558-1.801-.3558Zm12.285-.4383h-4.256c.049 1.0242.324 1.8339.823 2.4275.381.4567.84.6833 1.377.6833.332 0 .634-.0911.904-.2718.272-.1814.563-.5096.874-.9818l.278.2181c-.418.8343-.879 1.4237-1.383 1.7703-.505.3466-1.09.5217-1.755.5217-1.139 0-2.004-.4377-2.592-1.3087-.473-.7024-.706-1.5727-.706-2.6153 0-1.2763.346-2.2892 1.04-3.0452.694-.7546 1.508-1.1329 2.439-1.1329.781 0 1.457.3148 2.03.943.573.6261.883 1.5593.927 2.7918Zm-2.02-.516c0-.8605-.048-1.4513-.144-1.7725-.098-.3205-.249-.5633-.454-.7306-.117-.0953-.272-.1433-.467-.1433-.288 0-.524.1363-.708.408-.326.4765-.49 1.1294-.49 1.9581v.2803h2.263Zm9.396 2.6753.255.1955c-.361.6791-.81 1.1852-1.348 1.5134-.54.3311-1.112.4984-1.719.4984-1.023 0-1.84-.3847-2.451-1.1534-.612-.7666-.919-1.6906-.919-2.7706 0-1.0426.279-1.9553.838-2.7466.674-.9537 1.603-1.4315 2.786-1.4315.794 0 1.426.199 1.893.5971.469.3967.703.84.703 1.3292 0 .3106-.095.5577-.287.7419-.19.1842-.439.2795-.75.2795-.325 0-.594-.1073-.808-.319-.212-.2125-.343-.5902-.393-1.1344-.034-.3416-.113-.5823-.241-.7186-.126-.1355-.277-.2026-.448-.2026-.266 0-.492.1391-.68.4158-.287.4193-.43 1.0616-.43 1.9256 0 .7193.115 1.4069.347 2.0619.23.6558.548 1.145.95 1.4654.302.233.66.3502 1.074.3502.27 0 .527-.0615.769-.1871.243-.1271.531-.3621.859-.7101Zm2.746 1.9884v-.3c.324 0 .544-.0847.665-.2512.121-.1702.182-.504.182-1.0031v-5.5645h-.765c-.536 0-.908.0939-1.116.2852-.207.1885-.372.5852-.493 1.1873h-.299v-1.9913h7.637v1.9913h-.3c-.099-.5421-.244-.9226-.435-1.1428-.191-.2203-.578-.3297-1.157-.3297h-.78v5.5645c0 .5153.06.852.183 1.0087.118.1588.34.2393.662.2456v.3h-3.984ZM47.8451 7.54645h1.884l-.0318.11153c-.2908 0-.487.04306-.588.132-.1009.08753-.2103.32683-.3261.72l-.3.98118c.1059.00212.1814.00282.228.00282.3459 0 .5845-.02611.7172-.07905.1299-.05295.2626-.15318.3946-.3.1327-.14753.2929-.41577.4821-.80753.1835-.37906.3508-.60777.4983-.68753.1483-.07906.2937-.1193.4356-.1193.1609 0 .2858.03883.3762.11577.0896.07694.1348.16164.1348.25482 0 .08894-.0282.17012-.0875.24424-.0586.07553-.1405.11294-.2485.11294-.0685 0-.1228-.012-.1588-.036-.0374-.024-.0897-.07836-.156-.16377-.0565-.06847-.1172-.10235-.1821-.10235-.0671 0-.1236.02541-.1701.07553-.0459.05012-.1186.17647-.216.37553-.2132.432-.401.73694-.5612.91412-.1617.17858-.3579.29858-.588.36211.1009.0353.2061.168.3141.39809l.5492 1.1492c.0995.2061.1948.3438.2873.4129.0903.0706.2463.113.4666.1306l-.012.1144h-1.0603l-.696-1.4591c-.1334-.2746-.2407-.45738-.3233-.54703-.0819-.08894-.2019-.13412-.3571-.13412-.0325 0-.0784.00353-.1405.00989l-.4073 1.33266c-.0593.1956-.0875.3353-.0875.4158 0 .156.1715.2457.5167.2689l-.0269.113h-1.8296l.0438-.1122c.1743 0 .2985-.0149.3698-.0445.072-.0304.1363-.0713.1949-.1243.0571-.0515.1313-.2244.2181-.5167l.8308-2.70631c.0579-.19694.0868-.32894.0868-.39247 0-.11859-.0388-.19835-.1179-.24-.0783-.04165-.2117-.06282-.4002-.06282l.0438-.11295Zm9.8717 2.42259c0 .31836-.0889.63526-.2668.94866-.1793.3128-.4277.5605-.7475.744-.3191.1836-.6282.2746-.9304.2746-.307 0-.559-.0938-.7531-.2795-.1949-.1856-.2916-.4278-.2916-.7235 0-.3127.0946-.6268.2845-.94167.1892-.31553.4426-.5647.7616-.74823.3177-.18212.6255-.2753.9219-.2753.2965 0 .5414.09318.7327.27883.1942.18564.2887.42564.2887.72211Zm-.5484-.22729c0-.19906-.0516-.35224-.1546-.45671-.1038-.10588-.2365-.15882-.4003-.15882-.3324 0-.6388.22518-.919.67482-.2795.45106-.4193.89856-.4193 1.34396 0 .2026.0543.36.1631.4695.108.1115.2456.1658.4101.1658.3197 0 .6197-.2244.8986-.6713.2823-.4503.4214-.9042.4214-1.36725Zm4.6807-.56047 1.0242-.20188h.1391l.1976 2.3287 1.589-2.26165h.5527l-.648 2.11695c-.0678.2181-.1017.3395-.1017.3649 0 .0678.0268.1024.0805.1024.0896 0 .2195-.1511.3932-.4567l.1002.0635c-.1158.1962-.2605.3614-.4313.4955-.1715.1349-.3085.2026-.4129.2026-.1709 0-.2549-.1002-.2549-.3007 0-.0889.0367-.2541.1109-.4955l.5343-1.74142-1.7823 2.53762h-.1518l-.2513-2.65762c-.3762 1.32702-.6515 2.10072-.8245 2.32302-.1715.2238-.3607.3346-.564.3346-.2033 0-.3049-.0797-.3049-.2386 0-.0698.0261-.1298.0791-.1793.0536-.0501.115-.0748.1884-.0748.0628 0 .1391.0297.2323.0883.0423.0303.0804.0451.1115.0451.0543 0 .1278-.0691.2209-.204.0932-.1362.2273-.4807.3989-1.0341.1743-.55269.2597-.86822.2597-.94516 0-.09459-.0748-.14188-.2223-.14188-.0784 0-.1822.01341-.3106.04094l.048-.11082Zm7.8452 0 1.0235-.20188h.1405l.1962 2.3287 1.5889-2.26165h.5527l-.6487 2.11695c-.0677.2181-.1002.3395-.1002.3649 0 .0678.0261.1024.0798.1024.0882 0 .2195-.1511.3924-.4567l.1003.0635c-.1165.1962-.2605.3614-.4313.4955-.1723.1349-.3092.2026-.4137.2026-.1708 0-.2548-.1002-.2548-.3007 0-.0889.036-.2541.1087-.4955l.5365-1.74142-1.7824 2.53762h-.1524l-.2506-2.65762c-.377 1.32702-.6516 2.10072-.8238 2.32302-.1722.2238-.36.3346-.564.3346-.204 0-.3056-.0797-.3056-.2386 0-.0698.0261-.1298.079-.1793.053-.0501.1151-.0748.1864-.0748.0635 0 .1411.0297.2343.0883.0417.0303.0791.0451.1108.0451.0558 0 .1285-.0691.2224-.204.0939-.1362.2266-.4807.3988-1.0341.173-.55269.2598-.86822.2598-.94516 0-.09459-.0748-.14188-.2224-.14188-.079 0-.1835.01341-.3127.04094l.0516-.11082Zm7.9214 1.46682c-.0142.1073-.0219.1962-.0219.2661 0 .1906.072.353.2174.4857.1447.1327.3219.1997.528.1997.1659 0 .3268-.031.4793-.0946.1546-.0628.3812-.2011.6819-.4171l.072.0924c-.5351.5033-1.0454.756-1.5311.756-.3296 0-.5781-.0981-.7454-.2936-.1673-.1962-.2513-.4122-.2513-.6487 0-.317.1038-.6424.3113-.9741.2089-.3325.4687-.59086.7828-.77439.3141-.18423.6367-.27741.9692-.27741.2379 0 .4158.04588.5322.13694.1144.09177.1723.20047.1723.32471 0 .17647-.0763.34447-.228.50612-.1991.20963-.4934.37903-.8824.50823-.2569.0875-.619.156-1.0863.204Zm.0254-.1454c.3416-.036.6197-.0981.835-.1857.2852-.1178.4977-.259.6403-.42278.1426-.16447.2139-.31977.2139-.46659 0-.09035-.0318-.16235-.0925-.21953-.0614-.05435-.149-.08259-.2612-.08259-.2365 0-.4863.11647-.7525.34871-.264.23294-.4581.57528-.583 1.02848Zm7.224-1.5226-.2252.73624c.2428-.27318.4595-.46377.6515-.57247.1899-.10871.3854-.16377.5838-.16377.1983 0 .3692.07483.5082.22447.1419.15036.2111.34447.2111.58447 0 .46656-.1998.94166-.5993 1.42446-.4009.4828-.8668.7242-1.3991.7242-.1115 0-.211-.0127-.2978-.036-.0848-.024-.1829-.0649-.2895-.1263l-.2513.8181c-.0487.1631-.0734.2682-.0734.3184 0 .0458.012.0861.0389.1193.0254.0331.067.0585.1249.0769.0586.0176.1736.0275.3466.0275l-.0304.1116h-1.5769l.0332-.1116c.2082-.0084.3494-.0423.4221-.1023.072-.0586.1489-.2245.2301-.4941l.8492-2.77486c.0529-.17789.0783-.28871.0783-.33177 0-.05788-.0162-.10235-.0515-.13553-.0339-.03247-.0868-.048-.1546-.048-.0628 0-.151.00777-.2633.02259V9.1601l1.1344-.18Zm-.78 2.5419c.1412.1581.3296.2357.5682.2357.1165 0 .2379-.0303.36-.0917.1221-.0614.2421-.1525.3579-.2732.1172-.1207.2223-.2591.3148-.4172.0932-.1567.1758-.343.2499-.5569.0741-.2125.1101-.42425.1101-.6346 0-.1687-.0416-.29859-.1249-.38894-.0833-.08965-.1807-.13482-.293-.13482-.2449 0-.4884.13129-.7298.39317-.24.26189-.4137.56899-.5224.92119l-.2908.9473Zm6.3924-2.3739.9706-.18h.1257l-.3205 1.0878c-.048.1538-.0706.2527-.0706.2978 0 .1737.1292.2605.3876.2605.2089 0 .4496-.084.7193-.2541l.4002-1.31365h.516l-.6883 2.25525c-.0352.125-.0529.2005-.0529.2266 0 .0509.0212.077.0642.077.0713 0 .2012-.1384.3897-.4172l.1122.0635c-.3437.4574-.624.6854-.8414.6854-.1637 0-.2449-.0917-.2449-.2745 0-.1123.0374-.2902.1115-.5323l.1729-.5661c-.2901.1906-.576.2866-.8654.2866-.187 0-.3494-.048-.4877-.1426-.1391-.0953-.2083-.2146-.2083-.3593 0-.0847.0254-.2103.0784-.37482l.091-.29294c.0353-.11717.0537-.20117.0537-.25411 0-.11506-.0769-.17153-.2315-.17153-.0685 0-.1398.00564-.2182.01623l.0367-.12353Zm7.1796 1.5c-.0163.1073-.0233.1962-.0233.2661 0 .1906.0727.353.2174.4857.1454.1327.3219.1997.5294.1997.1645 0 .324-.031.4786-.0946.1539-.0628.3805-.2011.6819-.4171l.0713.0924c-.5337.5033-1.0447.756-1.5304.756-.3289 0-.5788-.0981-.7454-.2936-.1666-.1962-.2506-.4122-.2506-.6487 0-.317.1038-.6424.312-.9741.2075-.3325.4673-.59086.7814-.77439.3141-.18423.636-.27741.9685-.27741.2386 0 .4165.04588.5322.13694.1144.09177.1723.20047.1723.32471 0 .17647-.0756.34447-.2273.50612-.1998.20963-.4941.37903-.8824.50823-.2583.0875-.6211.156-1.0856.204Zm.0233-.1454c.343-.036.6204-.0981.8357-.1857.2852-.1178.4977-.259.6396-.42278.1425-.16447.2145-.31977.2145-.46659 0-.09035-.031-.16235-.0931-.21953-.0614-.05435-.149-.08259-.2612-.08259-.2365 0-.4864.11647-.7511.34871-.2647.23294-.4602.57528-.5844 1.02848Zm8.2796.6593c-.232.264-.467.4602-.704.5859-.234.1249-.486.1884-.749.1884-.317 0-.565-.0854-.742-.2555-.177-.1701-.266-.3988-.266-.6868 0-.3254.095-.6466.286-.9621.192-.31486.447-.57039.771-.76803.323-.19624.638-.29577.949-.29577.244 0 .425.04871.546.14471.12.09459.18.21317.18.35294 0 .12988-.042.24282-.127.33529-.062.07271-.14.108-.233.108-.07 0-.128-.02047-.174-.06353-.047-.04094-.07-.09458-.07-.15741 0-.03953.008-.07694.026-.11012.017-.03388.053-.07482.107-.12141.053-.048.086-.08188.098-.10306.01-.02188.016-.04306.016-.06706 0-.04376-.021-.08117-.063-.11082-.066-.04094-.159-.06353-.278-.06353-.22 0-.439.07341-.654.22094-.216.14612-.402.35436-.553.624-.185.32756-.277.65506-.277.98186 0 .2174.065.389.196.5146.131.1271.307.1899.532.1899.173 0 .344-.0409.515-.1221.17-.0812.36-.2294.572-.4433l.096.084Zm4.175-1.99131 1.033-.19059h.13l-.423 1.3779c.084.0042.133.0063.143.0063.367 0 .655-.2167.863-.65079.115-.2407.195-.39882.241-.47223.047-.07483.107-.13765.186-.18706.077-.04941.166-.07482.264-.07482.122 0 .223.036.306.108.081.072.123.1567.123.25411 0 .0833-.029.15247-.088.21106-.057.05859-.126.08683-.202.08683-.095 0-.18-.05224-.252-.156-.053-.07483-.099-.11224-.139-.11224-.062 0-.137.09741-.227.28941-.184.41793-.391.67063-.618.75813.097.0452.181.1186.254.2174.073.1002.216.3381.427.7144.095.1736.186.2781.272.3134.087.0346.192.0593.314.0698l-.044.1236h-.807c-.198-.3981-.366-.7094-.504-.929-.139-.2202-.238-.3466-.3-.3783-.059-.0318-.145-.048-.257-.048l-.416 1.3553h-.499l.657-2.15226c.043-.13411.064-.22729.064-.27953 0-.11364-.079-.17011-.239-.17011-.048 0-.136.00917-.262.02611v-.11082Zm9.654-.12353-.617 1.93274c-.092.2873-.139.468-.139.5442 0 .0346.007.0607.019.0776.012.017.025.0248.044.0248.028 0 .062-.0149.097-.0459.035-.029.124-.1589.267-.3876l.101.0742c-.154.2576-.311.4433-.474.559-.107.0734-.21.1115-.311.1115-.076 0-.136-.024-.181-.0705-.045-.0459-.068-.1073-.068-.1815 0-.0727.016-.1687.045-.2865.036-.1462.143-.4807.319-1.0066-.396.5894-.727.9946-.992 1.2141-.265.2209-.511.331-.737.331-.106 0-.196-.0345-.269-.1023-.075-.0692-.113-.1539-.113-.2591 0-.1595.06-.4051.179-.7348l.352-.9861c.086-.23718.13-.3833.13-.44189 0-.02541-.012-.04729-.035-.06494-.024-.01764-.048-.02682-.074-.02682-.058 0-.114.01553-.171.04729-.056.03177-.184.14965-.384.35436l-.103-.06989c.183-.24706.378-.42917.582-.54635.158-.09176.302-.13765.434-.13765.091 0 .166.03247.222.09671.059.06494.087.14682.087.24847 0 .11294-.053.31412-.158.60353l-.367 1.01148c-.103.2746-.155.449-.155.5224 0 .0395.016.0727.044.0974.029.024.069.036.117.036.077 0 .177-.0346.3-.1052.122-.0706.286-.2258.491-.4666.205-.2414.375-.468.508-.679.133-.2118.275-.54777.425-1.00872l.086-.27741h.499v-.00141Zm6.855 0-.598 1.93134c-.09.2894-.134.4672-.134.535 0 .0572.02.0868.061.0868.028 0 .062-.0176.101-.0536.041-.0353.128-.1645.262-.3875l.102.0727c-.284.4701-.555.7051-.815.7051-.064 0-.118-.0225-.163-.067-.046-.0452-.067-.108-.067-.1885 0-.1426.116-.5781.353-1.3066-.662 1.0412-1.222 1.5621-1.683 1.5621-.124 0-.218-.0367-.288-.1087-.067-.072-.101-.163-.101-.2717 0-.1476.058-.3861.176-.7158l.345-.98682c.084-.23929.127-.38047.127-.42494 0-.07341-.04-.1087-.119-.1087-.101 0-.279.13341-.533.40164l-.106-.06988c.336-.456.672-.684 1.006-.684.09 0 .162.03247.218.096.058.06283.086.14541.086.24847 0 .11153-.051.312-.154.60212l-.362 1.01221c-.1.276-.15.4504-.15.5238 0 .0882.05.1334.152.1334.077 0 .183-.0416.317-.1242.133-.084.319-.2767.557-.5789.24-.3014.408-.5513.504-.7496.099-.19836.203-.47718.317-.83789l.075-.24635h.514Zm-.205-1.59035h.158c-.26.55341-.629.8287-1.107.8287-.219 0-.401-.05153-.546-.15458-.145-.10236-.218-.2273-.218-.37624 0-.08259.026-.15388.076-.21106.051-.05788.12-.08753.204-.08753.08 0 .144.02188.195.06424.051.04306.105.1207.163.23294.085.168.211.252.374.252.151 0 .291-.06.422-.1793.133-.1207.226-.24282.279-.36917Zm12.447-.12283h.122c-.033.15812-.103.29718-.213.41718-.108.12071-.224.19977-.344.23788-.12.03883-.317.06706-.591.0833-.266.01906-.469.0487-.608.08964-.138.03953-.273.11647-.408.23083-.134.11294-.269.29153-.404.53435-.138.24282-.273.55059-.406.92047.473-.58659 1.005-.88023 1.601-.88023.288 0 .528.09176.718.27176.191.18071.285.432.285.75388 0 .50686-.194.95716-.583 1.35106-.389.3939-.842.5915-1.358.5915-.331 0-.584-.1023-.761-.3049-.177-.2047-.266-.4539-.266-.7511 0-.415.112-.89503.333-1.44067.224-.54424.455-.94871.696-1.21271.24-.264.473-.43624.701-.51671.227-.08047.541-.13129.943-.15317.198-.01271.328-.03106.39-.05506.061-.02259.112-.07835.153-.1673Zm-1.285 1.76895c-.372 0-.698.22164-.981.66141-.281.44116-.422.89506-.422 1.36446 0 .2308.062.3988.183.5047.124.1052.263.1574.417.1574.354 0 .657-.2386.911-.7193.254-.48.38-.9571.38-1.43079 0-.18706-.046-.3233-.142-.40941-.094-.08542-.21-.12847-.346-.12847Zm8.144-.06706-.726 2.44443c-.013.0254-.019.0459-.019.0636 0 .0296.008.0564.025.0797.012.0177.027.0261.047.0261.021 0 .046-.0155.08-.0465.064-.0565.145-.1815.251-.3742l.113.077c-.131.2139-.265.3727-.404.4757-.138.1031-.266.1553-.382.1553-.082 0-.145-.0233-.19-.0684-.044-.0459-.067-.1116-.067-.1998 0-.1045.024-.2414.075-.4108l.072-.2315c-.323.36-.621.612-.893.7545-.195.1031-.385.1553-.572.1553-.18 0-.336-.0628-.467-.1884-.131-.1264-.195-.2993-.195-.521 0-.3303.116-.679.35-1.0468.232-.36776.527-.66212.886-.88164.282-.17506.545-.26259.796-.26259.147 0 .272.03176.37.09247.099.06141.175.16306.225.30494l.101-.31906.524-.07835Zm-1.242.15741c-.158 0-.325.06212-.501.18776-.25.17577-.473.43906-.668.78636-.195.3473-.291.6607-.291.9423 0 .1412.043.2528.129.3353.087.0826.187.1229.299.1229.278 0 .579-.1666.906-.5019.397-.4447.589-.9014.578-1.36943 0-.17647-.042-.30494-.122-.38329-.081-.08118-.192-.12-.33-.12Zm5.096-.012 1.027-.20188h.121l-.408 1.3327h1.175l.388-1.26494h.5l-.683 2.23344c-.036.1221-.054.1969-.054.223 0 .041.02.0607.06.0607.08 0 .216-.1404.404-.4228l.124.0558c-.323.4927-.61.739-.861.739-.158 0-.237-.0995-.237-.2971 0-.0975.043-.2859.127-.5655l.186-.6049h-1.177l-.426 1.3892h-.501l.649-2.10919c.049-.16094.074-.2633.074-.30706 0-.11365-.075-.17082-.223-.17082-.034 0-.124.00776-.265.02188v-.11153Zm6.829-.01059 1.031-.19059h.131l-.423 1.3779c.083.0042.131.0063.143.0063.366 0 .654-.2167.862-.65079.115-.2407.194-.39882.242-.47223.046-.07483.108-.13765.185-.18706.076-.04941.167-.07482.265-.07482.122 0 .223.036.306.108.081.072.122.1567.122.25411 0 .0833-.028.15247-.088.21106-.058.05859-.123.08683-.202.08683-.095 0-.178-.05224-.252-.156-.052-.07483-.099-.11224-.139-.11224-.063 0-.138.09741-.227.28941-.185.41793-.391.67063-.618.75813.097.0452.181.1186.255.2174.072.1002.214.3381.426.7144.096.1736.185.2781.274.3134.086.0346.19.0593.314.0698l-.045.1236h-.807c-.197-.3981-.365-.7094-.505-.929-.139-.2202-.238-.3466-.298-.3783-.06-.0318-.146-.048-.258-.048l-.415 1.3553h-.501l.658-2.15226c.042-.13411.064-.22729.064-.27953 0-.11364-.079-.17011-.238-.17011-.05 0-.138.00917-.263.02611v-.11082h.001Z"/>
	<path fill="#0066B7" d="M159.413 27.3867H46.5239v.3798H159.413v-.3798ZM11.7752 0h-1.1393c-.2993 0-.5379.246353-.5379.554118V28.4104c0 .5731.1617 1.0263.4793 1.3531.3149.3233.7264.4956 1.1902.4956.4927 0 .9148-.1836 1.219-.5323.2972-.3402.4475-.7807.4475-1.3164v-5.0457c0-2.7127 1.1019-5.5461 3.276-8.4212 1.8615-2.4677 4.2078-4.5395 6.941-6.21879V31.4689H7.20675c-1.53106 0-2.77977-1.2338-2.77977-2.7508V6.168c0-1.51694 1.24871-2.75294 2.77977-2.75294h1.17106c.29576 0 .53929-.24777.53929-.5513V.554118C8.9164.246353 8.67287 0 8.3771 0H7.26393C3.85875 0 1.08887 2.77412 1.08887 6.18141V28.7033c0 3.408 2.76988 6.18 6.17506 6.18H26.454c.2951 0 .5351-.2457.5351-.552V6.47435c0-.48141-.1447-.90494-.4278-1.26141-.3077-.38612-.7503-.58588-1.2755-.58588-1.4174 0-3.4525 1.10329-6.223 3.37835-2.3182 1.89741-4.1916 3.94169-5.6288 6.08189V3.41576h16.445c1.5353 0 2.7868 1.23601 2.7868 2.75295V28.7174c0 1.517-1.2515 2.7508-2.7868 2.7508h-1.1661c-.2986 0-.54.2478-.54.5513v2.3118c0 .3063.2421.552.54.552h1.1075c3.4094 0 6.18-2.772 6.18-6.18V6.18141C35.9997 2.77412 33.2298 0 29.8197 0H11.7752Z"/>
	<path fill="#0066B7" d="M10.6913 1.11328H9.54776c-.29717 0-.53858.24777-.53858.55059V29.525c0 .5697.16094 1.0271.48353 1.3546.31411.3226.72489.4941 1.18379.4941.4927 0 .9162-.1863 1.2261-.535.2915-.336.444-.7786.444-1.3137v-5.0484c0-2.7113 1.0998-5.5447 3.2746-8.4212 1.8621-2.4649 4.2063-4.5381 6.9452-6.21671V32.5843H6.11647c-1.53459 0-2.78047-1.236-2.78047-2.7536V7.28269c0-1.51694 1.24588-2.75364 2.78047-2.75364h1.17177c.29788 0 .53788-.24706.53788-.54989V1.66387c0-.30282-.24-.55059-.53788-.55059H6.17647C2.76988 1.11328 0 3.8874 0 7.29399V29.8173c0 3.4087 2.76988 6.1821 6.17647 6.1821H25.3595c.2986 0 .5414-.2464.5414-.5527V7.58905c0-.48212-.1425-.90495-.4298-1.26283-.3092-.3847-.7476-.58588-1.2735-.58588-1.4174 0-3.4531 1.10541-6.2258 3.37976-2.316 1.8981-4.1887 3.9417-5.6259 6.0847V4.52905H28.788c1.5395 0 2.7875 1.2367 2.7875 2.75364V29.8307c0 1.5176-1.248 2.7536-2.7875 2.7536h-1.1682c-.2965 0-.5393.245-.5393.5499v2.3125c0 .3056.2428.5527.5393.5527h1.1117c3.408 0 6.1786-2.7734 6.1786-6.1814V7.29399c0-3.40659-2.7706-6.18071-6.1786-6.18071H10.6913Z"/>
	<path fill="#fff" d="M6.17624 1.66602h1.11247v2.31529H6.11695c-1.82753 0-3.31977 1.48447-3.31977 3.30353V29.8328c0 1.817 1.49294 3.3036 3.31977 3.3036H23.1026V8.85119c-3.1722 1.79651-5.8087 4.08851-7.9066 6.86821-2.2574 2.9901-3.3903 5.9118-3.3903 8.7593v5.0485c0 .3967-.1031.7122-.305.9445-.2082.235-.4821.3522-.8238.3522-.319 0-.5865-.1108-.80395-.3332-.21671-.2237-.324-.5449-.324-.9635V1.66602H28.7334c3.1045 0 5.6358 2.53411 5.6358 5.63011V29.8194c0 3.096-2.5313 5.6294-5.6358 5.6294h-1.1117v-2.3124h1.1682c1.8282 0 3.3261-1.4859 3.3261-3.3036V7.28413c0-1.81906-1.4979-3.30353-3.3261-3.30353H11.8064v13.1047c1.4844-2.6873 3.6536-5.2002 6.5047-7.53317 2.6435-2.17411 4.6115-3.25976 5.8877-3.25976.365 0 .6501.12776.857.38329.2026.25765.3042.55977.3042.91412V35.4474H6.17624c-3.10306 0-5.637178-2.5327-5.637178-5.6294V7.29543c0-3.0953 2.534118-5.62941 5.637178-5.62941Z" clip-rule="evenodd"/>
</svg>