<svg xmlns="http://www.w3.org/2000/svg" viewBox="0 0 134.1 26">
	<path fill="#4d4d4d" d="M83.7 7h-2l-2.4 4c-.1.3-.3.6-.4.9-.1-.3-.2-.6-.4-.9l-2.3-4H74l3.7 6-4.3 6.7h2l2.9-4.7c.1-.3.3-.5.4-.9.1.3.2.6.4.9l2.7 4.7H84L79.9 13l3.8-6zm-25.1 6.9h-3.9v-3.8H53v9.6h1.8v-4.3h3.9v4.3h1.8v-9.6h-1.8v3.8zm-9.9 3.5c-.5.5-1.1 1-2.1 1-1.1 0-1.8-.6-1.8-1.6 0-1.1.8-1.7 2.3-1.7.6 0 1.2.1 1.6.2v2.1zm1.8-3.6c0-3.1-1.8-3.9-3.6-3.9-1.2 0-2.4.4-3.4.9l.8 1.5c.9-.7 1.7-1 2.5-1 1 0 1.9.7 1.9 2.3v.2c-.6-.1-1.2-.2-2-.2-2.3 0-3.8 1.2-3.8 3.2 0 1.9 1.4 3 3.2 3 1.3 0 2.1-.6 2.7-1.2.1.3.2.7.3 1h1.6c-.2-.6-.3-1.2-.3-1.9l.1-3.9zm35.9-.7c0 3.7-1.1 4.8-2.4 5.2l.7 1.6c1.9-.4 3.4-2.3 3.4-6.8v-1.5h2.7v8.1h1.8v-9.6h-6.1l-.1 3zm-16.3-3H68l-3.4 4.3v-4.3h-1.8v9.6h1.8V15l3.9 4.7h2.2l-4.3-5.1 3.7-4.5zm50.9 8.3c-1.6 0-2.6-1.8-2.6-3.7 0-1.5.6-3.3 2.3-3.3 1.6 0 2.6 1.8 2.6 3.7-.1 1.6-.7 3.3-2.3 3.3zm-.2-8.5c-2.3 0-4.2 2.2-4.2 5.2 0 2.7 1.6 4.8 4.2 4.8 2.3 0 4.2-2.2 4.2-5.2 0-2.7-1.6-4.8-4.2-4.8zm-22.3 8.4h-1.6V15h1.6c1 0 1.7.5 1.7 1.7 0 1.1-.8 1.6-1.7 1.6zm0-4.8h-1.6v-3.4h-1.8v9.6h3.4c1.9 0 3.4-1.2 3.4-3.3 0-2.3-1.5-2.9-3.4-2.9zm32.3 4.8h-2.1v-3h2.1c.9 0 1.5.5 1.5 1.5 0 .9-.6 1.5-1.5 1.5zm-2.2-6.8h1.9c.9 0 1.3.5 1.3 1.2s-.4 1.3-1.3 1.3h-1.9v-2.5zm3.8 2.9c.7-.4 1.2-1.1 1.2-2.1 0-1.4-1.1-2.2-2.8-2.2h-3.9v9.6h3.8c1.9 0 3.4-1.2 3.4-3.1 0-1.3-.8-2-1.7-2.2zM103 19.7h1.8v-9.6H103v9.6zm10-5.8h-3.9v-3.8h-1.8v9.6h1.8v-4.3h3.9v4.3h1.8v-9.6H113v3.8zm-75.8 4.3h-2.1v-4.8H37c1.7 0 2.7.8 2.7 2.4-.1 1.5-1 2.4-2.5 2.4zm-.1-6.3H35V8.6h5.3V7h-7.2v12.7H37c2.5 0 4.4-1.5 4.4-4.2.1-2.5-1.5-3.6-4.3-3.6z"/>
	<path fill="#009ca3" d="M20.5 11.8c.5 0 .8.1 1.1.4.3-.6.8-1.6.8-2.3-.9.3-2.5 1-3.3 1.5-1.3.9-2.3 2.4-2.3 3.4 0 .4.2.7.7.7 1.1 0 3.3-1.8 3.5-2.2-.1-.3-.4-.5-.7-.5-.9 0-1.5.5-1.8.5-.2 0-.4-.1-.4-.3 0-.7 1.6-1.2 2.4-1.2zm-5.4-3.1c1.3-.8 2.5-1.3 3.8-1.3.3 0 .5 0 .8.1-1.7.9-3.1 1.8-4.1 3.2 0-.8-.1-1.4-.5-2zM10.5 7c-2.3 0-4 .9-4.7 1.5 1.1-.6 2.1-.7 3.1-.7 1.2 0 2 .3 2.4.4l1.2-.9c-.8-.2-1.5-.3-2-.3zm2.3 11.3c.9-1 1.6-2 2.1-3.1 0 .1.7 1.1 2 1.1s3-1.1 4-2.2c-.4 2.3-3.8 4.6-6.5 4.6-.5 0-1.1-.1-1.6-.4zm-11 .2c.4 0 .7.3 1.4.3 1.2 0 2-1 2-2.1S4.4 15 3.4 15c-2 0-3.4 1.9-3.4 3.7 0 2.3 1.9 2.9 3.9 2.9 4.4 0 9.1-3.3 10.6-7.3v-.4c0-1.1.4-1.9.5-2.2v-.5c0-.8-.1-1.4-.5-2.1 0 0-1.3 1-1.8 1.7s-.6 1-.7 1.5c-.3.7-.6 1.4-1.1 2.2-1.5 2.6-4.7 6.1-7.7 6.1-.9 0-2.1-.4-2.1-1.5.1-.3.3-.6.7-.6zm21.9-9.1c1-.4 1.6-1 2.2-1.8v14.8c0 2.3-1.4 3.6-3.6 3.6H3.6C1.4 26 0 24.6 0 22.4V21c.9 1 2.3 1.3 3.9 1.3 2.1 0 4.5-.8 6.4-1.8.9.3 1.8.5 2.7.5 4.3 0 9.2-3.7 9.2-7.5V13c.5-.9 1.5-2.9 1.5-3.6zM22.4 0C24.6 0 26 1.4 26 3.6v1.1c-.7.8-1.8 1.5-3 1.5-.9-.6-2.3-.9-3.7-.9-2 0-4.3.5-6 1.4-.8-.4-1.7-.5-2.6-.5-2.5.1-4.9 1-6.8 2.8-.5.5-1.8 1.8-1.8 2.5 0 .2.1.4.4.4.2 0 .3-.1.5-.3 1.4-1.5 3.3-3.2 5.7-3.2.6 0 1.2.1 1.8.3-1.9 1.9-3.1 4.6-3.1 7 0 .6.1 1.2.2 1.7-.9 1-2.8 2.5-4.3 2.5-.9 0-1.3-.4-1.3-.6 0 0 0-.1.1-.1s.5.3 1.2.3c1.5 0 2.7-1.3 2.7-2.9 0-1.5-1.2-2.5-2.6-2.5C2 14.1.9 14.8.1 16V3.7C.1 1.4 1.4 0 3.6 0h18.8z"/>
</svg>