<svg xmlns="http://www.w3.org/2000/svg" viewBox="0 0 139.9 37.7">
	<path fill="#fff" d="M18.8 0h37.7v37.7H18.8V0z"/>
	<path fill="#db0011" d="M75.3 18.8L56.5 0v37.6l18.8-18.8zm-37.6 0L56.5 0H18.8l18.9 18.8zM0 18.8l18.8 18.8V0L0 18.8zm37.7 0L18.8 37.6h37.7L37.7 18.8z"/>
	<path fill="#000" d="M91.9 19.9H85v6.8h-3.4V10.9H85v6.5h6.9v-6.5h3.4v15.8h-3.4v-6.8zm11.5 7c-3.4 0-6.2-1.4-6.2-5.1h3.4c0 1.7 1.1 2.6 2.9 2.6 1.4 0 2.9-.7 2.9-2.2 0-1.2-1.1-1.6-2.9-2.1l-1.1-.3c-2.5-.7-5-1.7-5-4.6 0-3.5 3.3-4.7 6.2-4.7s5.7 1.1 5.7 4.6h-3.4c-.1-1.5-1-2.2-2.5-2.2-1.3 0-2.5.7-2.5 2.1 0 1.1 1.1 1.5 3.3 2.2l1.3.4c2.8.8 4.4 1.8 4.4 4.4.1 3.6-3.3 4.9-6.5 4.9m8.6-16h5.5c1.1-.1 2 0 3.1.2 1.9.4 3.4 1.7 3.4 3.8s-1.3 3.1-3.2 3.6c2.1.4 3.7 1.5 3.7 3.8 0 3.6-3.5 4.4-6.4 4.4H112V10.9zm5.4 6.6c1.5 0 3.1-.3 3.1-2.1 0-1.6-1.5-2.1-2.9-2.1h-2.5v4.3l2.3-.1zm.4 6.8c1.6 0 3.2-.4 3.2-2.3s-1.4-2.4-2.9-2.4h-2.8v4.6l2.5.1zm15.6 2.6c-5.1 0-7.4-3.3-7.4-8s2.5-8.3 7.5-8.3c3.2 0 6.2 1.4 6.2 5h-3.5c-.1-1.4-1.3-2.5-2.7-2.5-3.1 0-4 3.3-4 5.8s1 5.4 3.9 5.4c1.5.1 2.8-1 2.9-2.5h3.6c-.4 3.7-3.3 5.1-6.5 5.1"/>
</svg>