<svg xmlns="http://www.w3.org/2000/svg" viewBox="0 0 180 35.9">
	<g fill="#2e56a6">
		<path d="M8.9 11c.1.8.4 1.7.7 2.5 1.1-.3 2.3-.5 3.4-.6.3-3.7 1.4-6.8 5-9.8.7.6 1.3 1.2 1.9 1.9.8-.4 1.7-.7 2.5-.9-1.3-1.6-2.8-3-4.5-4.2-3.7 2.7-6.5 5.8-7.3 10.6-.6.2-1.2.4-1.7.5zM11 27c.8-.1 1.7-.4 2.5-.7-.3-1.1-.5-2.3-.6-3.4-3.7-.3-6.8-1.4-9.8-5 .6-.7 1.2-1.3 1.9-1.9-.4-.8-.7-1.7-.9-2.5-1.6 1.3-3 2.8-4.2 4.5 2.7 3.7 5.8 6.5 10.6 7.3.2.5.4 1.1.5 1.7zm14.2-16.4c-.1-.6-.2-1.2-.4-1.7-.8.1-1.7.3-2.4.6.3 1.1.5 2.3.6 3.4 3.7.4 6.8 1.4 9.8 5-.6.7-1.2 1.3-1.9 1.9.4.8.7 1.7.9 2.5 1.6-1.3 3-2.8 4.2-4.5-2.8-3.6-6-6.4-10.8-7.2zM27 24.8c-.1-.8-.4-1.7-.7-2.5-1.1.3-2.3.5-3.4.6-.3 3.7-1.4 6.8-5 9.8-.7-.6-1.3-1.2-1.9-1.9-.8.4-1.7.7-2.5.9 1.3 1.6 2.8 3 4.5 4.2 3.7-2.7 6.5-5.8 7.3-10.6.5-.2 1.1-.3 1.7-.5z"/>
		<path d="M16.4 6.7c-.5.7-.9 1.4-1.3 2.2 1 .6 2 1.2 2.8 2 2.9-2.4 5.8-3.8 10.4-3.4.1.9.1 1.8 0 2.7.8.3 1.7.7 2.4 1.2.3-2 .2-4.1-.2-6.1-4.5-.7-8.7-.5-12.7 2.4-.4-.4-.9-.8-1.4-1zM6.7 19.5c.7.5 1.4.9 2.2 1.3.6-1 1.2-2 2-2.8C8.5 15 7 12.1 7.5 7.5c.9-.1 1.8-.1 2.7 0 .3-.8.7-1.6 1.2-2.4-2-.3-4.1-.2-6.1.2-.8 4.5-.5 8.7 2.3 12.6-.3.5-.7 1-.9 1.6zm22.5-3.1c-.7-.5-1.4-.9-2.2-1.3-.6 1-1.2 2-2 2.8 2.4 2.9 3.8 5.8 3.4 10.4-.9.1-1.8.1-2.7 0-.3.8-.7 1.6-1.2 2.4 2 .3 4.1.2 6.1-.2.7-4.5.5-8.7-2.4-12.7.4-.4.7-.9 1-1.4zm-9.7 12.8c.5-.7.9-1.4 1.3-2.2-1-.6-2-1.2-2.8-2-2.9 2.4-5.8 3.8-10.4 3.4-.1-.9-.1-1.8 0-2.7-1-.4-1.8-.7-2.6-1.2-.3 2-.2 4.1.2 6.1 4.5.7 8.7.5 12.7-2.4.5.4 1 .7 1.6 1zm25-12.5H47c2.1 0 3.3 1.1 3.3 2.9 0 1.9-1.3 3-3.5 3h-4.3v-9.3h7.2v1.9h-5.1c-.1-.1-.1 1.5-.1 1.5zm0 1.7v2.3h2.3c1 0 1.4-.4 1.4-1.2 0-.7-.5-1.1-1.4-1.1h-2.3zm9.9-5.2h1.9l4 9.4h-2.1l-.9-2.1h-4l-.9 2.1h-2.1c.1 0 4.1-9.4 4.1-9.4zm2.1 5.5l-1.2-3-1.2 3h2.4zm4.7-5.4h2.1V17h3.8v-3.7h2.1v9.3h-2.1v-3.8h-3.8v3.8h-2.1v-9.3zm9.7 0H73v4.1l3.8-4.1h2.5l-3.8 4 4 5.4H77l-2.9-4-1.1 1v2.9h-2.1v-9.3zm13.3 0h2.2l2.5 4 2.5-4h2.2v9.3h-2v-6.1l-2.6 4h-.1l-2.6-4v6.1h-2c-.1 0-.1-9.3-.1-9.3zm13.2 3.4h2.5c2.1 0 3.3 1.1 3.3 2.9 0 1.9-1.3 3-3.5 3h-4.3v-9.3h7.2v1.9h-5.1c-.1-.1-.1 1.5-.1 1.5zm0 1.7v2.3h2.3c1 0 1.4-.4 1.4-1.2 0-.7-.5-1.1-1.4-1.1h-2.3zm9.9-5.2h1.9l4 9.4H111l-.9-2.1h-4l-.9 2.1h-2.1l4.2-9.4zm2.2 5.5l-1.2-3-1.2 3h2.4zm4.2-1.2h5.7v1.9h-5.7v-1.9zm7.4-4.2h2.2l2.5 4 2.5-4h2.2v9.3h-2v-6.1l-2.6 4h-.1l-2.6-4v6.1h-2v-9.3zm10.7 4.6c0-1 .2-2 .8-2.8.5-.8 1.3-1.5 2.2-1.9.9-.4 1.9-.5 2.9-.3s1.9.6 2.6 1.3c.7.7 1.2 1.6 1.4 2.5.2 1 .1 2-.3 2.9-.4.9-1 1.7-1.8 2.2-.8.6-1.8.8-2.8.8-.6 0-1.3-.1-1.9-.3-.6-.2-1.1-.6-1.6-1-.5-.5-.8-1-1.1-1.6-.3-.5-.4-1.1-.4-1.8zm7.8 0c0-.4-.1-.8-.2-1.1-.1-.4-.3-.7-.6-1s-.6-.5-.9-.6c-.4-.1-.7-.2-1.1-.2-.4 0-.8.1-1.1.2-.3.1-.7.4-.9.6-.3.3-.5.6-.6 1-.1.4-.2.7-.2 1.1 0 .4.1.8.2 1.1.1.4.3.7.6 1 .3.3.6.5.9.6.4.1.7.2 1.1.2.4 0 .8-.1 1.1-.2s.7-.4.9-.6.5-.6.6-1c.1-.3.2-.7.2-1.1zm3.1 0c0-.6.1-1.3.3-1.9.2-.6.6-1.1 1.1-1.6.5-.5 1-.8 1.6-1 .6-.2 1.2-.3 1.9-.3s1.4.1 2 .4c.6.3 1.2.7 1.6 1.2l-1.2 1.4c-.3-.3-.7-.6-1.1-.8-.4-.2-.9-.3-1.3-.3s-.7.1-1.1.2-.6.4-.9.6-.4.6-.6.9c-.1.4-.2.7-.2 1.1 0 .4 0 .7.2 1.1.1.4.3.7.6.9.3.3.6.5.9.6.3.2.7.2 1.1.2.5 0 .9-.1 1.3-.3.4-.2.8-.5 1.1-.8l1.3 1.4c-.7.7-1.5 1.2-2.5 1.5s-2 .2-2.9-.2c-.9-.3-1.7-1-2.3-1.8-.6-.5-.9-1.5-.9-2.5zm9.7-4.6h2.1v4.1l3.8-4.1h2.5l-3.8 4 4 5.4h-2.5l-2.9-4-1.1 1.1v2.9h-2.1v-9.4zm9.5 0h4.3c.9-.1 1.8.2 2.4.8.2.3.4.6.5.9s.1.7.1 1.1-.2.7-.4 1-.5.5-.8.7c1.1.4 1.7 1 1.7 2.3 0 1.7-1.4 2.6-3.5 2.6h-4.4l.1-9.4zm3.9 3.7c.9 0 1.5-.3 1.5-1 0-.6-.5-1-1.3-1h-2v2h1.8zm.5 3.8c.9 0 1.5-.3 1.5-1 0-.6-.5-1-1.5-1h-2.4v2.1h2.4zm7.8-7.6h1.9l4 9.4h-2.1l-.9-2.1h-4l-.9 2.1H170l4.1-9.4zm2.2 5.5l-1.2-3-1.2 3h2.4z"/>
	</g>
</svg>