<svg xmlns="http://www.w3.org/2000/svg" viewBox="0 0 159.1 40">
	<path fill="#ee151f" d="M22.6 0l-.1.5s0 .3-.2.9v.1c-.2.8-.5 2-1 3.2-.4 1.1-1 2.2-1.5 2.8-.8-.9-1.5-2.5-1.9-4-.2-.8-.5-1.5-.6-2.1-.1-.5-.2-.9-.2-.9V0H14l.1.6c.4 3.5 2.2 7.7 5.3 9.8h1.1c3.1-2.1 4.9-6.3 5.3-9.8V0h-3.2zm17 22.8l.5.1V26l-.6-.1c-3.5-.4-7.8-2.2-9.8-5.3v-1.1c2.1-3.1 6.3-4.9 9.8-5.3l.6-.1v3.1l-.5.1s-.3.1-.9.2c-.5.1-1.3.3-2.1.6-1.5.5-3.2 1.2-4 1.9.6.6 1.7 1.1 2.8 1.5 1.2.5 2.5.8 3.3 1 .6.3.9.3.9.3zM.5 17.5l-.5-.1v-3.1l.6.1c3.5.4 7.8 2.2 9.8 5.3v1.1c-2.1 3.1-6.3 4.9-9.8 5.3L0 26v-3.1l.5-.1s.3 0 .9-.1c.5-.1 1.3-.3 2.1-.5 1.5-.5 3.1-1.2 4-1.9-.6-.6-1.7-1.1-2.8-1.5-1.1-.4-2.1-.7-2.9-.9-.1 0-.2-.1-.4-.1-.6-.3-.9-.3-.9-.3zm16.7 22l-.1.5h-3.2l.1-.6c.4-3.5 2.2-7.8 5.3-9.8h1.1c3.1 2.1 4.9 6.3 5.3 9.8l.1.6h-3l-.1-.5s-.1-.3-.2-.9c-.1-.5-.3-1.3-.6-2.1-.5-1.5-1.2-3.1-1.9-4-.6.6-1.1 1.7-1.5 2.8-.4 1-.7 2.1-.9 2.9 0 .1-.1.3-.1.4-.3.6-.3.9-.3.9zM36 7.6l-.4.2s-.3.2-.7.5h-.1c-.7.5-1.8 1.2-2.9 1.7-1.1.5-2.2.8-3 .9 0-1.2.7-2.8 1.5-4.2.3-.7.6-1.2.9-1.7l.1-.2c.3-.5.5-.7.5-.7l.2-.3-2.2-2.2-.4.4c-2.2 2.8-3.9 7-3.2 10.7l.7.7c3.6.7 8-1 10.7-3.2l.5-.4L36 7.6zM4.1 31.8l-.3.2-2.2-2.2.5-.4c2.7-2.2 7-3.9 10.7-3.2l.7.7c.7 3.7-1 7.9-3.2 10.7l-.4.5-2.2-2.2.3-.3s.2-.3.5-.7l.1-.2c.3-.5.6-1 .9-1.7.7-1.4 1.4-3 1.5-4.2-.8 0-1.9.4-3 .9s-2.2 1.2-2.9 1.6H5c-.6.2-.9.5-.9.5zM32.3 36l-.2-.4s-.2-.3-.5-.7c-.5-.7-1.1-1.8-1.6-3-.5-1.1-.9-2.2-.9-3 1.2 0 2.8.7 4.2 1.5.7.3 1.2.7 1.7.9l.2.1c.5.3.7.5.7.5l.4.2 2.2-2.2-.5-.5c-2.8-2.2-7-3.9-10.7-3.2l-.7.7c-.7 3.6 1 8 3.2 10.7l.4.5 2.1-2.1zM8.2 4.1L8 3.7l2.1-2.2.4.5c2.2 2.7 3.9 7 3.2 10.7l-.7.8c-3.6.7-7.9-1-10.7-3.2l-.5-.4L4 7.7l.4.2s.3.2.7.5l.2.1c.5.3 1 .6 1.7.9 1.4.7 3 1.4 4.2 1.5 0-.8-.4-1.9-.9-3S9.2 5.7 8.7 5v-.1c-.3-.5-.5-.8-.5-.8zm93.1 11.5c-3 0-5 1-5 1l.6 2s1.5-.7 3.5-.7c1.8 0 2.7.7 2.7 2.2-5 0-7.4 1.7-7.4 4.1 0 2.3 1.8 4 5.6 4 2.3 0 4.4-.7 5.2-1.2v-6.9c-.1-2.6-1.9-4.5-5.2-4.5zm-10-4v4.1h3.4l-.2 2.3h-3.2v6.4c0 .9.6 1.4 1.3 1.4.7 0 1.4-.2 2.1-.6l.2 1.9c-1 .7-2.5 1-3.4 1-2.3 0-3.7-1.3-3.7-3.8V11.9l3.5-.3zM76.6 25.3c1.4.4 2.7.6 3.9.6 1.5 0 2.2-.3 2.2-1s-1.1-1.1-2.3-1.7c-1.9-.8-4.2-1.7-4.2-4 0-2.2 1.7-3.6 5.2-3.6 1.7 0 3.5.6 4.3 1l-.4 2c-1.3-.5-2.5-.7-3.5-.7-1.4 0-2.1.4-2.1 1 0 .8 1.1 1.2 2.4 1.8 1.8.8 4.1 1.7 4.1 4 0 2.4-1.7 3.6-5.1 3.6-1.6 0-3.8-.4-4.8-.9l.3-2.1zm-2.4 2c-1.4.6-3.1 1-4.7 1-4.1 0-6.1-2.5-6.2-6.2 0-3.9 2.2-6.5 5.9-6.5s5.6 2.5 5.6 5.4c0 .2 0 1.2-.2 1.8h-7.8c0 1.9 1.3 3.1 3.4 3.1 1 0 2.3-.2 3.4-.7.1 0 .6 2.1.6 2.1zm-7.3-6.7h4.5c0-1.8-.8-2.8-2.3-2.8-1.4.1-2.2 1.1-2.2 2.8zm36.1 5.2c-.2.1-.8.3-1.8.3-1.4 0-2.1-.8-2.1-1.7 0-1.4 1.3-2.1 3.9-2.3v3.7zM59.3 11.7h3.6c.4 11.1-5.3 16.1-5.9 16.6h-2.1s-6.4-4.9-6-16.7h3.6s0 9.9 3.4 13.2c3.3-3.2 3.4-13.1 3.4-13.1z"/>
	<path fill="#cf151c" d="M19.9 7.3c-.8-.8-1.6-2.9-1.9-4-.7-1.8-.9-3.3-.9-3.3S16 5.6 19.9 10.4C23.7 5.6 22.6 0 22.6 0s-.2 1.5-.8 3.3c-.8 2.6-1.7 3.7-1.9 4zM3.4 22.1c1.1-.3 3.2-1.2 4-1.9-.2-.2-1.2-1.1-4-1.9-1.8-.7-3.4-.9-3.4-.9s5.6-1.1 10.4 2.8C5.6 24 0 22.9 0 22.9s1.6-.2 3.4-.8zm33.3-3.9c-1.1.3-3.2 1.2-4 1.9h.1c.3.2 1.4 1.1 4 1.9 1.8.6 3.3.8 3.3.8s-5.6 1.1-10.4-2.8c4.8-3.9 10.4-2.8 10.4-2.8s-1.6.4-3.4 1zM21.8 36.7c-.3-1.1-1.2-3.2-1.9-4-.2.2-1.1 1.2-1.9 4-.6 1.8-.8 3.3-.8 3.3s-1.1-5.6 2.8-10.4c3.9 4.8 2.8 10.4 2.8 10.4s-.4-1.5-1-3.3zm7-25.8c0-1.2.9-3.2 1.5-4.2.9-1.7 1.8-2.9 1.8-2.9s-4.7 3.2-5.4 9.4c6.1-.7 9.3-5.5 9.3-5.5s-1.3.8-3 1.7c-2.2 1.2-3.6 1.4-4.2 1.5.1 0 .1 0 0 0zM9.5 33c.5-1 1.4-3.1 1.5-4.2-.2 0-1.7.1-4.2 1.5-1.7.8-3 1.7-3 1.7s3.2-4.7 9.4-5.4c-.7 6.1-5.4 9.4-5.4 9.4s.8-1.3 1.7-3zm19.6-4.2c1.2 0 3.2.9 4.2 1.5 1.7.9 2.9 1.8 2.9 1.8s-3.2-4.7-9.4-5.4c.7 6.1 5.4 9.3 5.4 9.3s-.9-1.3-1.7-2.9c-1.3-2.6-1.4-4.1-1.4-4.3zM7 9.5c1 .5 3.1 1.4 4.2 1.5v-.1c0-.5-.2-1.9-1.5-4.2C8.9 5 8 3.7 8 3.7s4.7 3.2 5.5 9.4c-6.1-.7-9.4-5.4-9.4-5.4s1.2.9 2.9 1.8z"/>
	<path fill="#007ac3" d="M156.4 28.1l-4.5-5.6H150V28h-2.4V11.7l2.4-.2v9.2h1.9l3.8-4.7h2.7l-4.9 5.5 5.7 6.6h-2.8zm-13.4 0V20c0-2.9-3.4-2.7-5.3-2.1V28h-2.4V16.5c1.2-.5 3.1-.8 4.9-.8 2.7 0 5.3 1 5.3 4.1v8.3H143zM130.7 22c-1.7.1-4.9.1-4.9 2.5 0 1.6 1.5 2.1 2.9 2.1.7 0 1.5 0 2.1-.3V22zm2.4 5.4c-1.3.6-2.9.9-4.4.9-2.5 0-5.2-.8-5.2-3.8 0-3.7 4.5-4 7.3-4.2v-.7c0-1.6-1.2-2.1-2.6-2.1-1.1 0-2.3.2-3.4.7l-.6-1.7c1.3-.6 2.8-.9 4.2-.9 2.8 0 4.6 1.3 4.6 4.1l.1 7.7zm-13.5-3.9c0-2.3-2-2.9-3.8-2.9h-2.7V26c2.2.7 6.5.7 6.5-2.5zm-.3-7.4c0-2.9-4.2-3.1-6.1-2.3v5h2.7c1.7 0 3.4-.7 3.4-2.7zm2.9 7.6c0 3.5-3.3 4.6-6.3 4.6-1.7 0-3.6-.2-5.2-.9v-15c1.6-.7 3.4-.9 5.2-.9 2.8 0 5.8 1.2 5.8 4.4 0 1.7-1 3.2-2.7 3.6 1.8.6 3.2 2.2 3.2 4.2z"/>
</svg>