<svg xmlns="http://www.w3.org/2000/svg" viewBox="0 0 180 32.8">
	<path fill="#8c1e1e" d="M0 0v29.4L32.9 0 10 10 0 0zm.3 32.8l23-9.8 9.8 9.8V3.4L.3 32.8zm53.2-18.1V19.7l-.1.1-.1.1-.1.1-.1.1-.1-.1H52.1l-.1-.1-.1-.1-.1-.1h.2V13.9l.1-.1H53.6l.1.1h.1v.5l-.3.3c0-.1 0 0 0 0zm-6.9 3.6h1.2v.7l.1.3v.4l.1.2.1.2.1.2.1.2.1.2.1.2.1.2.1.2.1.2.2.5.2.2.2.2.2.2.2.2.1.1.1.1.1.1.1.1.1.1.1.1.1.1.2.1H54.7l.2-.1.2-.1.2-.1.2-.1.1-.1.1-.1.1-.1.1-.1.1-.1.1-.1.1-.1.1-.1.1-.1.1-.1.1-.1.1-.1.1-.1.1-.1.1-.1.1-.1.1-.1.1-.3.1-.3.1-.3.1-.3V13.5l-.1-.1v-.1l-.3-.3-.1-.1-.1-.1-.1-.1.1-.2-.1-.1-.2-.3-.2-.2-.2-.2-.2-.2-.2-.2-.2-.3-.3-.2-.3-.1-.3-.1-.3-.1-.3-.1-.2-.1-.3-.1H51v.2l-.2.1-.2.1-.2.1-.2.1-.1.1-.2.1h-.1l-.3.2-.1.1-.1.1-.1.1-.1.1-.1.1-.1.1-.1.1-.1.1-.1.1-.1.1-.1.1-.1.1-.1.3-.1.3-.1.4-.1.3v1.2h-1.2v-4.7h-3.9v13.3h3.9l-.1-5.2zm12.2 5.1V13.3l.1-.2.1-.1.1-.2.1-.2.1-.2.1-.2.2-.2.2-.2.2-.2.2-.2.2-.2.2-.1.3-.1.3-.1.3-.1.3-.1.3-.1.3-.1h4v3.7H63.5l-.1.1-.1.1-.1.1H63v8.9h-4.2zm8.6-5.9h5.1V20h-5.1v-2.5zm16.9-5v10.9h-4v-5.3l-2.5 3.7v1.6h-4.2v-13h4.1v5.2l2.4-3.8v-1.4h4.2v2.1zm1-2.1v13h4.1v-5.1h1.9v5.1h4.1v-13h-4.1V15h-1.9v-4.5c0-.1-4.1-.1-4.1-.1zm11.2 13V13.8l.1-.3.1-.3.1-.3.1-.3.1-.3.1-.2.2-.2.2-.2.2-.2.2-.2.2-.2.2-.2.3-.1.3-.1.3-.1.3-.1.3-.1h2.3l.3.1.3.1h.2l.1.1.1.1.1.1.1.1.1.1.1.1.2.2.2.2.2.2.2.2.2.2.2.2.2.2.1.2.1.2.1.2.1.2.1.2.1.2V15.4l-.1.1-.1.1-.1.1-.1.1-.1.1-.1.1-.1.1-.1.1-.1.1.1.1.1.1.1.1.1.1.1.1.1.1.1.1.1.1.1.1.1.1.1.1.1.1.1.1.1.2.1.2.1.2v2.1l-.1.2-.1.2-.1.2-.1.2-.1.2-.1.2-.1.2-.1.2-.1.2-.1.2-.2.1-.2.1-.2.1-.2.1-.2.1-.2.1-.2.1-.2.1h-3v-3.3h.9l.1-.1.1-.1.1-.1.1-.1.1-.1.1-.1V18.4l-.1-.1-.1-.1-.1-.1-.1-.1-.1-.1-.1-.1-.1-.1h-.6V15h.6l.1-.1.1-.1.1-.1V13.2l-.1-.1h-1.1l-.1.1-.1.1V22.9h-3.8v.5zm17.6 0h2.3v-3.5H113.8l-.2-.1-.2-.1-.2-.1-.1-.1-.1-.1-.1-.1-.1-.1-.1-.1-.1-.1-.1-.1-.1-.1-.1-.1v-.1h4v-3h-4v-.5l.1-.1v-.1l.1-.1.1-.1.1-.1.1-.1.1-.1.2-.1.2-.1.2-.1.2-.1h.3l.2-.1.2-.1h1.9v-3.4H113.2l-.3.1-.3.1-.3.1-.3.1-.3.1-.3.1-.3.2-.3.2-.3.2-.2.2-.2.2-.2.2-.2.2-.2.2-.2.2-.2.3-.2.3-.1.3-.1.3-.1.3-.1.3-.1.3-.1.3-.1.3-.1.3V18.8l.1.2.1.2.1.2.1.2.1.2.1.2.1.2.1.2.1.2.1.2.1.2.1.2.1.1.1.2.1.1.1.1.1.1.1.1.1.1.2.1.2.1.2.1.2.1.2.1.2.1.2.1.2.1.2.1.2.1.2.1.2.1.2.1h1.2l.3.1zm11.8 0H122.5l-.2-.1-.2-.1-.2-.1-.2-.1-.2-.1-.2-.1-.2-.1-.2-.1-.2-.1-.2-.1-.2-.1-.2-.1-.2-.1-.2-.1-.2-.1-.1-.1-.1-.1-.1-.1-.1-.1-.1-.2-.1-.2-.1-.2-.1-.2-.1-.2-.1-.2-.1-.2-.1-.2-.1-.2-.1-.2-.1-.2-.1-.2-.1-.2-.1-.2V16l.1-.3.1-.3.1-.3.1-.3.1-.3.1-.3.1-.3.1-.3.1-.3.2-.3.2-.3.2-.3.2-.2.2-.2.2-.2.2-.2.3-.2.3-.2.3-.2.3-.2.3-.1.3-.1.3-.1.3-.1.3-.1.4-.1h3.1V14H123.8l-.2.1-.2.1-.2.1-.2.1-.1.1-.1.1-.1.1-.1.1-.1.1-.1.1-.1.1-.1.1-.1.2-.1.2-.1.2V17.8l.1.2.1.2.1.2.1.2.1.1.1.1.1.1.1.1.1.1.2.1.2.1.2.1.2.1.2.1.2.1h2.3l-.4 3.7zm3.2-9.3v9.3h4v-9.3h2.2v-3.7h-8.4v3.7h2.2zm15.8 1.5l.1.1.1.1.1.1.1.1.1.1.1.1.1.1.1.1.1.1.1.1.1.1.1.2.1.2.1.2.1.2.1.2V20.4l-.1.3-.1.3-.1.2-.1.2-.1.2-.1.2-.1.2-.2.2-.1.2-.2.2-.2.2-.2.1-.2.1-.2.1-.2.1-.2.1-.2.1h-7.7V13.8l.1-.3.1-.3.1-.3.1-.3.1-.3.2-.2.2-.2.2-.2.2-.2.2-.2.2-.2.2-.2.3-.1.3-.1.3-.1.3-.1.3-.1.3-.1H145.8v3.2H140.7l-.1.1-.1.1-.1.1-.1.1v5.9H141.8l.1-.1.1-.1.1-.1.1-.1.1-.1v-.6l-.1-.1-.1-.1-.1-.1-.1-.1-.1-.1-.1-.1-.2-.1-.1-.1h-.4v-2.7l.5-.2.7-.1 1.1.1 1.6.6zm3-.5v8.3h4.1V14.2l.1-.1.1-.1.1-.1H153.7l.1.1.1.1v2h-1.1v3.5h1.1v3.8h4.1V14.1l-.1-.3-.1-.3-.1-.3-.1-.3-.1-.2-.1-.2-.1-.2-.1-.2-.1-.2-.2-.2-.2-.2-.2-.2-.2-.1-.2-.1-.2-.1-.2-.1-.2-.1-.2-.1-.2-.1-.2-.1-.2-.1-.2-.1-.2-.1H151.7l-.2.1h-.2l-.2.1-.1.1-.2.1-.1.1-.1.1-.1.1-.3.2-.3.2-.1.1-.1.1-.1.1-.1.1-.1.1-.1.1-.1.1-.1.1-.1.1-.1.1-.1.1-.1.1-.1.3-.1.3-.1.3-.1.3-.1.3v.6l-.3.5zm11 8.3v-13h4.1V15h1.9v-4.5h4.1v13h-4.1v-5.1H163v5.1c0-.1-4.1-.1-4.1-.1zm11.1-13v13h4.1v-5.3h.9l.1.1.1.1.1.1.1.1.1.1.1.1V23.4h4.1V17.8l-.1-.1-.1-.1-.1-.1-.1-.1-.1-.1-.1-.1-.1-.1-.2-.1-.2-.1-.2-.1-.2-.1-.2-.1-.2-.1-.2-.1h-.2.2l.1-.1.1-.1.1-.1.1-.1.1-.1.1-.1.1-.2.1-.2.1-.2.1-.2.1-.2.1-.3.2-.5.1-.3 1-3.2H176l-1 3.2-.1.3-.1.3-.1.3-.1.3-.1.1-.1.1-.1.1-.1.1-.1.1-.1.1h-.2v-4.8l-3.8-.3z"/>
</svg>