<svg xmlns="http://www.w3.org/2000/svg" viewBox="0 0 88.9 44">
	<path fill="#e77128" d="M12.9 37.8h.8v4.4h-.8V39l-2.1 3.2H10v-4.4h.8V41l2.1-3.2zm5.6 4.5h-.8v-1.9h-2v1.9h-.8v-4.4h.8v1.9h2v-1.9h.8v4.4zm4.5-3.8h-1.5v3.8h-.8v-3.8h-1.5v-.6H23v.6zm2.3 3.9c-.6 0-1.1-.2-1.5-.6-.4-.4-.6-.9-.6-1.6V40c0-.4.1-.8.3-1.2.2-.3.4-.6.7-.8.3-.2.6-.3 1-.3.6 0 1 .2 1.3.6.3.4.5.9.5 1.6v.3h-3c0 .4.1.8.4 1.1.2.3.6.4.9.4.3 0 .5-.1.7-.2.2-.1.3-.3.5-.4l.5.4c-.4.6-1 .9-1.7.9zm-.1-4c-.3 0-.6.1-.8.3-.2.2-.3.5-.4.9h2.2v-.1c0-.4-.1-.7-.3-.9-.1-.1-.4-.2-.7-.2zm6.5 1.7c0 .7-.2 1.2-.5 1.6-.3.4-.7.6-1.3.6-.5 0-1-.2-1.3-.5V44h-.8v-6.2h.7v.5c.3-.4.7-.6 1.3-.6.5 0 1 .2 1.3.6.4.5.6 1 .6 1.8 0-.1 0 0 0 0zm-.8-.1c0-.5-.1-.9-.3-1.2-.2-.3-.5-.4-.9-.4-.5 0-.8.2-1 .6v2.1c.2.4.6.6 1 .6s.7-.1.9-.4c.2-.3.3-.7.3-1.3zm5.4 2.3h-.8v-3.8h-2.1v3.8h-.8v-4.4h3.6c.1-.1.1 4.4.1 4.4zm5-2.2c0 .7-.2 1.2-.5 1.6-.3.4-.7.6-1.3.6-.5 0-1-.2-1.3-.5V44h-.8v-6.2h.7v.5c.3-.4.7-.6 1.3-.6.5 0 1 .2 1.3.6.4.5.6 1 .6 1.8 0-.1 0 0 0 0zm-.8-.1c0-.5-.1-.9-.3-1.2-.2-.3-.5-.4-.9-.4-.5 0-.8.2-1 .6v2.1c.2.4.6.6 1 .6s.7-.1.9-.4c.2-.3.3-.7.3-1.3zm1.5 0c0-.4.1-.8.3-1.2s.4-.6.7-.8c.3-.2.7-.3 1-.3.6 0 1.1.2 1.5.6.4.4.6 1 .6 1.7v.1c0 .4-.1.8-.2 1.2-.2.3-.4.6-.7.8-.3.2-.7.3-1.1.3-.6 0-1.1-.2-1.5-.6-.4-.5-.6-1-.6-1.8 0 .1 0 0 0 0zm.8.1c0 .5.1.9.3 1.2.2.3.5.4.9.4s.7-.2.9-.5c.2-.3.3-.7.3-1.3 0-.5-.1-.9-.3-1.2-.2-.3-.5-.5-.9-.5s-.7.2-.9.4c-.2.5-.3 1-.3 1.5zm7.1-1.6h-2.1v3.8H47v-4.4h2.8l.1.6zm4.4 1.6c0 .7-.2 1.2-.5 1.6s-.7.6-1.3.6c-.5 0-1-.2-1.3-.5V44h-.8v-6.2h.7v.5c.3-.4.7-.6 1.3-.6.5 0 1 .2 1.3.6.5.5.6 1 .6 1.8 0-.1 0 0 0 0zm-.7-.1c0-.5-.1-.9-.3-1.2-.2-.3-.5-.4-.9-.4-.5 0-.8.2-1 .6v2.1c.2.4.6.6 1 .6s.7-.1.9-.4c.1-.3.3-.7.3-1.3zm3.5 2.4c-.6 0-1.1-.2-1.5-.6-.4-.4-.6-.9-.6-1.6V40c0-.4.1-.8.3-1.2.2-.3.4-.6.7-.8.3-.2.6-.3 1-.3.6 0 1 .2 1.3.6.3.4.5.9.5 1.6v.3h-3c0 .4.1.8.4 1.1.2.3.6.4.9.4.3 0 .5-.1.7-.2.2-.1.3-.3.5-.4l.5.4c-.4.6-.9.9-1.7.9zm-.1-4c-.3 0-.6.1-.8.3-.2.2-.3.5-.4.9H58v-.1c0-.4-.1-.7-.3-.9-.1-.1-.3-.2-.7-.2zm4.5 3.4c.3 0 .5-.1.7-.2.2-.2.3-.4.3-.6h.7c0 .3-.1.5-.3.7l-.6.6c-.3.1-.6.2-.9.2-.6 0-1.1-.2-1.4-.6-.4-.4-.5-1-.5-1.7V40c0-.4.1-.8.2-1.2.2-.3.4-.6.7-.8.3-.2.7-.3 1.1-.3.5 0 .9.2 1.2.4.3.3.5.7.5 1.2h-.7c0-.3-.1-.5-.3-.7-.2-.2-.4-.3-.7-.3-.4 0-.7.1-.9.4-.2.3-.3.7-.3 1.2v.1c0 .5.1.9.3 1.2.2.4.5.6.9.6zm4.4 0c.3 0 .5-.1.7-.2.2-.2.3-.4.3-.6h.7c0 .3-.1.5-.3.7l-.6.6c-.3.1-.6.2-.9.2-.6 0-1.1-.2-1.4-.6-.4-.4-.5-1-.5-1.7V40c0-.4.1-.8.2-1.2.2-.3.4-.6.7-.8s.7-.3 1.1-.3c.5 0 .9.2 1.2.4.3.3.5.7.5 1.2H67c0-.3-.1-.5-.3-.7-.2-.2-.4-.3-.7-.3-.4 0-.7.1-.9.4-.2.3-.3.7-.3 1.2v.1c0 .5.1.9.3 1.2.1.4.4.6.8.6zm4.6-3.7c.6 0 1 .2 1.3.6.3.4.5.9.5 1.5v.1c0 .4-.1.8-.2 1.1-.2.3-.4.6-.7.8s-.7.3-1 .3c-.6 0-1.1-.2-1.4-.6-.4-.4-.5-.9-.5-1.6v-.4c0-.9.2-1.7.5-2.2.3-.6.9-.9 1.5-1 .4-.1.6-.2.8-.3.1-.1.2-.2.2-.4h.6c0 .3-.1.6-.2.8-.2.2-.4.3-.7.4l-.6.1c-.5.1-.8.3-1 .5-.2.3-.4.6-.4 1 .2-.5.7-.7 1.3-.7zm-.1.6c-.4 0-.7.1-.9.4s-.3.6-.3 1v.1c0 .5.1.9.3 1.1.2.3.5.4.9.4s.7-.1.9-.4c.2-.3.3-.7.3-1.2 0-.4-.1-.8-.3-1s-.5-.4-.9-.4zm5.6 3.6c0-.1-.1-.2-.1-.5-.4.4-.8.6-1.3.6-.4 0-.8-.1-1.1-.4-.3-.2-.4-.6-.4-.9 0-.5.2-.8.5-1.1.4-.3.8-.4 1.5-.4h.7v-.3c0-.3-.1-.5-.2-.6-.2-.2-.4-.2-.7-.2-.3 0-.5.1-.7.2-.2 0-.2.2-.2.4h-.8c0-.2.1-.4.2-.6.2-.2.4-.4.6-.5.3-.1.6-.2.9-.2.5 0 .9.1 1.2.4.3.3.4.6.5 1.1v2.1c0 .4.1.7.2 1v.1l-.8-.2zm-1.3-.6c.2 0 .5-.1.7-.2.2-.1.4-.3.5-.5v-.9h-.6c-.9 0-1.4.3-1.4.8 0 .2.1.4.2.6.2.1.4.2.6.2zm6.7.6h-.8v-1.9h-2v1.9h-.8v-4.4h.8v1.9h2v-1.9h.8v4.4zm2.6-1.9h-.6v1.9h-.8v-4.4h.8v1.9h.6l1.5-1.9h.9L84.6 40l1.9 2.3h-1L84 40.4zM70.3 13.3l.9-.9c1.2-1.2 2.8-1.7 4.5-1.9 2.5-.4 4.9-.3 7.3.5 3 1 4.7 3.2 5.5 6.3.5 2.3.6 4.6.1 6.9-.8 3.5-2.9 5.9-6.3 7-4.3 1.5-8.6 1.2-12.5-1.4-2.1-1.3-3.2-3.3-3.7-5.6-1.2-5-1.1-10 .4-15 .8-2.6 2.4-4.8 4.7-6.3 1.6-1.1 3.4-1.5 5.3-1.7 2.7-.3 5.4-.5 8.1-.8.4 0 .9-.1 1.3-.2.5-.1.9.1 1 .6.3 1.4.4 2.8-.2 4.2-.4.9-1.4 1.4-2.3 1.6-1.8.1-3.4.4-5 .7-1.6.3-3.2.3-4.7.7-2.6.6-4.1 2.3-4.4 5.3zm11.1 7.8c-.1-.8-.1-1.6-.2-2.3-.1-.4-.2-.9-.4-1.3-.6-1.6-1.8-2.5-3.3-2.5-1.7 0-2.9.8-3.5 2.4-.3.8-.5 1.6-.5 2.5-.2 1.7-.1 3.4.6 5.1.6 1.4 1.7 2.1 3.2 2.1 1.6 0 2.7-.6 3.3-2 .6-1.3.8-2.6.8-4zm-55.5 6.6c-.2.3-.4.5-.6.8-1.9 2.3-4.5 3.2-7.4 3.1-1.5-.1-2.9-.3-4.1-1.2-1.7-1.2-2.7-3-2.8-5-.1-2.9-.1-5.8-.1-8.8v-1.3c-.4-.1-.8-.1-1.2-.2-1.1-.2-1.7-1-1.7-2.2v-2.4c0-.7.2-1 1-1 2.7 0 5.5.1 8.2.2.4 0 .6.3.7.7v11.9c0 .4.1.8.2 1.2.4 1.8 2.2 2.6 4 1.7 1.8-.9 2.7-2.4 3-4.3.1-.7.1-1.3.1-2v-8.1c0-.9.2-1.1 1.1-1.1h5.2c.8 0 .9.1.9.9v6.9c0 3.8.1 7.6.1 11.4 0 .5.1 1 .1 1.4 0 .5-.3.8-.8.8h-4c-.6 0-1.1-.4-1.3-.9-.2-.6-.3-1.3-.4-1.9v-.7c-.1.1-.2.1-.2.1zm13.8-12.3c-.5-.1-.9-.2-1.4-.4-.9-.3-1.3-1-1.3-1.9v-2.5c0-.8.2-1 1-1.1 1.6 0 3.1 0 4.7.1 3.7 0 7.4 0 11 .1 2.5 0 4.6.9 5.9 3.2.7 1.2 1 2.6 1 4v9.9c0 1.2.1 2.3.1 3.5 0 .7-.2.9-.9.9h-4.6c-.6 0-1.2-.3-1.4-.8-.2-.7-.4-1.5-.4-2.3V17.8c0-1.8-.7-2.5-2.5-2.5h-4.1V30c0 1.1-.1 1.2-1.2 1.2h-5c-.8 0-.9-.2-.9-1V15.4zM7.7 28c0 2.1-1.7 3.9-3.9 3.9s-3.9-1.7-3.9-4c0-2.1 1.7-3.8 3.8-3.8 2.3 0 4 1.7 4 3.9z"/>
</svg>