<svg xmlns="http://www.w3.org/2000/svg" viewBox="0 0 199.9 35">
	<path fill="#7b091e" d="M35.3 17.5c0 9.7-7.9 17.5-17.7 17.5C7.9 35 0 27.2 0 17.5V5.2c6.8 0 12.6 4.2 14.9 10.2.2-.8.5-1.6.8-2.4C12.8 7.4 6.8 3.5 0 3.5V0c7.4 0 13.9 3.7 17.7 9.4C21.5 3.7 27.9 0 35.3 0v1.8c-7.1 0-13.2 3.7-16.6 9.3.7 1.4 1.3 2.8 1.8 4.4 2.3-6 8.1-10.2 14.9-10.2V7c-7.8 0-14.1 6.3-14.1 14h-3.6c0-2-.3-3.8-.9-5.6-.5 1.8-.8 3.7-.8 5.6h-3.6c0-5.5-3.7-10.2-8.8-11.7v8.2c0 7.7 6.3 14 14.1 14s14.1-6.3 14.1-14h3.5z"/>
	<g fill="#000">
		<path d="M58 9.5l-7.9 10V11c0-.6.1-1.1.2-1.5.1-.4.4-.8 1-1h-3.8c.4.3.7.6.9.9s.2.9.2 1.6v12.3c.7-.2 1.3-.5 1.6-.8.4-.3.8-.7 1.2-1.2l7.7-9.8v8.6c0 .7-.1 1.3-.2 1.6-.1.2-.2.3-.3.5-.2.2-.3.3-.6.5v.1h3.8v-.1c-.5-.2-.8-.6-.9-.9-.2-.4-.2-.9-.2-1.6V11c0-.8.1-1.3.3-1.6.2-.3.5-.6.9-.8h-3.2c-.1 0-.3.3-.7.9zm11.3 3.2c.3.1.5.3.6.6.1.3.1.7.1 1.1v2.3h-4.2v-2.1c0-.5 0-.9.1-1.2.1-.3.3-.5.5-.6v-.1H63v.1c.4.2.7.7.7 1.5v7c0 .8-.2 1.3-.7 1.4v.1h3.5v-.1c-.4-.1-.7-.6-.7-1.4v-3.4H70v3.4c0 .8-.2 1.3-.7 1.4v.1h3.6v-.1c-.4-.1-.7-.6-.7-1.4v-6.8c0-.5 0-.9.1-1.2.1-.3.3-.4.5-.5v-.1h-3.5zm13.1 1.8v-2l-2.9.1h-2.9l-2.9-.1v2c.1-.1.2-.3.3-.3.1-.1.3-.2.7-.3h1.7c.5 0 .7.2.7.7v6.3c0 .4 0 .7-.1 1s-.3.5-.7.7v.1h3.6v-.1c-.3-.2-.6-.4-.7-.7-.1-.3-.2-.6-.2-1v-6.3c0-.4.2-.7.7-.7h1.6c.3.1.6.2.7.3.2.1.3.2.4.3zm8.1 6.7c-.3.1-.7.2-1 .2-.3.1-.6.1-.9.1h-.5c-1.3-.1-2.2-.6-2.9-1.4-.6-.8-.9-1.7-.9-2.7h7.9v-.1c0-1-.2-1.8-.6-2.5s-1-1.3-1.8-1.7c-.7-.4-1.6-.6-2.5-.6-1.7 0-3.1.5-4 1.6-1 1-1.4 2.2-1.4 3.5v.1c0 1.7.6 3 1.9 3.9 1.2 1 2.7 1.4 4.4 1.4 1 0 2-.2 3-.6l1.1-2c-.6.4-1.2.6-1.8.8zm-5.1-6.8c.6-.4 1.2-.6 1.9-.6.4 0 .7.1 1 .1.3.1.6.2.9.4.3.2.5.4.6.7.2.3.2.6.2.9h-5.6c.1-.5.4-1.1 1-1.5zm18.6.8c-.4-.9-1-1.5-1.7-2l-1.2-.6c-.4-.1-.8-.2-1.3-.2h-.2c-.7 0-1.3.1-1.9.4-.7.3-1.2.7-1.6 1.2v-1.5c-.1.1-.3.2-.5.2-.2.1-.5.1-.9.1h-1.3v.1c.6.3.8.9.8 1.9v10.7c0 .8-.3 1.3-.8 1.6v.1H97V27c-.4-.2-.6-.5-.7-.8s-.1-.8-.1-1.6v-8c0-.7.3-1.3.8-1.8.5-.6 1.3-.9 2.2-.9 1.1 0 1.9.4 2.5 1.3.5.7.8 1.6.8 2.5v.7c-.1 1-.5 1.8-1.1 2.3-.3.3-.7.5-1 .6-.4.1-.8.2-1.3.2s-.9-.1-1.3-.2-.7-.3-1.1-.5l1.1 1.8c.6.2 1.1.3 1.7.3 1.3 0 2.5-.4 3.5-1.4 1-.9 1.5-2 1.6-3.4v-.6c0-.5 0-.9-.1-1.3-.2-.3-.3-.7-.5-1zm10.8 6v-6.7c0-.5.1-.9.2-1.2.1-.3.3-.4.5-.6h-9.8c.4.2.7.7.7 1.5v6.9c0 .8-.2 1.3-.7 1.4v.1h3.4v-.1c-.4-.1-.6-.6-.6-1.4v-7.4h4.4v7.4c0 .8-.2 1.3-.7 1.4v.1h3.3v-.1c-.5 0-.7-.5-.7-1.3zm12.5-6c-.4-.9-1-1.5-1.7-2l-1.2-.6c-.4-.1-.8-.2-1.3-.2h-.2c-.7 0-1.3.1-1.9.4-.7.3-1.2.7-1.6 1.2v-1.5c-.1.1-.3.2-.5.2-.2.1-.5.1-.9.1h-1.3v.1c.6.3.8.9.8 1.9v10.7c0 .8-.3 1.3-.8 1.6v.1h3.6V27c-.4-.2-.6-.5-.7-.8s-.1-.8-.1-1.6v-8c0-.7.3-1.3.8-1.8.5-.6 1.3-.9 2.2-.9 1.1 0 1.9.4 2.5 1.3.5.7.8 1.6.8 2.5v.7c-.1 1-.5 1.8-1.1 2.3-.3.3-.7.5-1 .6-.4.1-.8.2-1.3.2s-.9-.1-1.3-.2-.7-.3-1.1-.5l1.1 1.8c.6.2 1.1.3 1.7.3 1.3 0 2.5-.4 3.5-1.4 1-.9 1.5-2 1.6-3.4v-.6c0-.5 0-.9-.1-1.3-.2-.3-.3-.7-.5-1zm7.5-2.7h-.2c-1.8 0-3.2.6-4.3 1.7-1 1-1.4 2.2-1.4 3.6v.1c0 1.4.5 2.6 1.5 3.6s2.4 1.5 4 1.5c1.5 0 2.8-.5 3.9-1.6s1.7-2.3 1.7-3.7c0-1.5-.5-2.7-1.6-3.7-1-1.1-2.2-1.5-3.6-1.5zm2.2 8c-.6.7-1.4 1.1-2.4 1.1h-.2c-.9 0-1.7-.4-2.3-1.2-.6-.8-.9-1.8-.9-2.9 0-1.2.3-2.1 1-2.7.6-.6 1.3-.8 2.2-.8 1 0 1.8.4 2.5 1.2.6.8.9 1.7.9 2.8 0 1-.2 1.8-.8 2.5zm18.6 1.6c-.1-.2-.2-.5-.3-1l-1.1-7.2v-.3c0-.5.2-.8.5-.9h-3c0 .3-.1.6-.2.8l-2.9 6.5-3.3-6.7c-.1-.2-.2-.4-.2-.6h-3c.4.2.6.4.6.8v.7l-1 6.4c-.2 1-.5 1.6-.9 1.9v.1h2.8v-.1c-.4-.2-.6-.5-.6-1v-.4l1-6.9 3.4 7.1c.2.4.4.7.6 1 .2.2.5.4.8.7l3.9-8.7.9 6.9v.7c0 .5-.2.8-.7.9v.1h3.4c-.4-.4-.6-.6-.7-.8zm9.7-8.9c-.7-.5-1.5-.7-2.4-.7-.4 0-1 .1-1.6.2l-1.1 1.9c.4-.3 1-.5 1.8-.5.9 0 1.6.3 2.2.8.3.3.6.6.7 1.1.2.4.2.9.2 1.5v.3c0 1.2-.3 2.1-1 2.7-.7.7-1.7 1-2.8 1-.5-.1-1.1-.2-1.8-.3v-10c0-1.1 1-1.7 3.1-1.7h.6c.4 0 .9.1 1.3.3l1.5-1.7-1-.1c-.4-.1-.6-.1-.7-.1l-.7-.1h-1c-1.5 0-2.7.3-3.6 1-.9.7-1.4 1.5-1.4 2.4v9.9c0 .7-.2 1.1-.6 1.3l1.1.2c.6.1 1 .2 1.1.2h.5c.1 0 .4 0 .9.1h.4c.6 0 1.2-.1 1.8-.2s1.1-.3 1.5-.5c.9-.4 1.7-1 2.2-1.8.3-.4.5-.8.6-1.3.1-.4.2-.9.2-1.4v-.3c0-.9-.2-1.7-.5-2.4s-.8-1.3-1.5-1.8zM177 21c-.3-.3-.4-.8-.4-1.4v-3.8c0-1.1-.4-1.9-1.2-2.5-.8-.5-1.8-.8-3-.8h-1.5l-1.4 2.2c1.1-.6 2.1-.8 2.9-.8.5 0 1 .1 1.4.3.4.2.7.6.7 1 0 .2 0 .4-.1.5-.1.2-.2.3-.3.4-.3.2-.6.3-1 .4-.3.1-.9.2-1.6.4-.7.2-1.2.3-1.5.4-1.3.6-1.9 1.4-1.9 2.5v.2c0 .8.3 1.5 1 2.1s1.6.9 2.7.9h.5c.2 0 .4 0 .6-.1l1.3-1.6c-.4.1-.7.2-.9.2s-.5.1-.7.1c-.3 0-.6 0-.9-.1-.3-.1-.5-.2-.7-.4-.4-.3-.6-.7-.6-1.3 0-.6.2-1 .6-1.2.4-.2 1-.4 1.9-.6s1.5-.4 1.9-.6v3.4c0 .7.2 1.3.7 1.6.4.4 1.2.6 2.1.7l1-1.5c-.3 0-.6 0-.9-.1-.4-.3-.6-.4-.7-.5zm8-8.3c.3.1.5.3.6.6.1.3.1.7.1 1.1v2.3h-4.2v-2.1c0-.5 0-.9.1-1.2.1-.3.3-.5.5-.6v-.1h-3.5v.1c.4.2.7.7.7 1.5v7c0 .8-.2 1.3-.7 1.4v.1h3.5v-.1c-.4-.1-.7-.6-.7-1.4v-3.4h4.2v3.4c0 .8-.2 1.3-.7 1.4v.1h3.6v-.1c-.4-.1-.7-.6-.7-1.4v-6.8c0-.5.1-.9.1-1.2.1-.3.3-.4.5-.5v-.1H185zm14.1 9.2c-.3-.3-.5-.5-.7-.8l-.6-.7-2.8-3.5 3.6-4.2h-3.3v.1c.3.1.4.3.4.6s-.3.8-.8 1.4l-2.1 2.3 3 4.1c.2.2.3.4.4.6.1.2.2.3.3.3.1.1.3.3.6.4s.7.2 1.1.2h1.7c-.3-.3-.6-.5-.8-.8z"/>
		<path d="M192.6 21.8c-.1-.2-.1-.6-.1-1.1v-8.3c-.1.1-.2.2-.3.2s-.2.1-.2.1h-2c.4.2.6.4.7.7 0 .2.1.4.1.6v6.1c0 .9 0 1.4-.1 1.7-.1.2-.3.5-.7.7v.1h3.6v-.1c-.7-.1-.9-.4-1-.7z"/>
	</g>
</svg>