<svg xmlns="http://www.w3.org/2000/svg" viewBox="0 0 180 16.9">
	<path fill="#4a4c4d" d="M145.1 10.3h-6.8l3.4-9.3 3.4 9.3zm-9.2 6.4l2-5.4h7.5l2 5.4h1.3L142.4 0H141l-6.3 16.6h1.2v.1zm-13.4-1V8.2h5.5c1.5 0 2.5.4 3.3 1 .7.7 1.1 1.6 1.1 2.7 0 1.2-.4 2.1-1.1 2.8-.7.6-1.8.9-3.2.9h-5.6v.1zm0-8.5V1h9.9V0h-11v16.6h6.6c1.7 0 3.1-.4 4.1-1.2 1-.8 1.4-2 1.4-3.5s-.5-2.6-1.4-3.4c-.9-.8-2.3-1.3-4.2-1.3h-5.4zm29.6 1.1v8.3H151V0h1.1v7.3h9.7V0h1.1v16.6h-1.1V8.3h-9.7zM178 0l-9.5 9.3V0h-1.1v16.6h1.1v-5.9l3.2-3.1 6.8 9.1h1.5l-7.5-9.9 7-6.8H178zM37.8.1v16.6h-3.2v-11c0-.5 0-1.7.2-2.9l-7 13.9h-4.6V.1h3.2V11c0 .5 0 1.8-.2 3l7-13.9h4.6zm6.6 16.6h3.2V2.8h4.9V.1h-13v2.7h4.9v13.9zM68.6.1l-5.8 13c-1.3 3-2.8 3.8-4.5 3.8-.8 0-1.2 0-2-.1v-2.7c.3.1.7.1 1.1.1 1.1 0 1.9-.3 1.9-1.1 0-.2-.1-.5-.2-.8L53.3.1h3.8l3.3 8.4c.2.5.4 1.5.4 2.3.1-.7.4-1.8.6-2.4L64.6.1h4zm8.5 8.4h-3.9V2.8h3.9c2.2 0 3 .6 3 3-.1 2.2-.9 2.7-3 2.7zM70 16.7h3.2v-5.5h4.2c4.4 0 5.9-1.2 5.9-5.7S81.1 0 77.1 0H70v16.7zM100 .1h-3.8L93 8.4c-.2.6-.5 1.7-.6 2.4-.1-.8-.3-1.8-.5-2.3L88.6.1h-3.8l5.7 12.2c.1.3.2.5.2.8 0 .8-.8 1.1-1.9 1.1-.5 0-.8 0-1.1-.1v2.7c.8.1 1.2.1 2 .1 1.8 0 3.2-.8 4.5-3.8l5.8-13zm15.6 16.6V.1h-14.1v16.6h3.2V2.8h7.7v13.9h3.2z"/>
	<path fill="#a2c73f" d="M16.8 2.3V0H0v16.8h16.8V8.5c-.9-4.8-5.1-4.2-5.1-4.2H4.5V10c0 .2.3 2.2 2.2 2.2h5.9V10H6.8V6.6h5c2.2-.2 2.8 1.9 2.8 1.9v5.9H2.3V2.3h14.5z"/>
</svg>