<svg xmlns="http://www.w3.org/2000/svg" viewBox="0 0 160 25.9">
	<path fill="#768086" d="M38.9 7.7h4.9v17.9h8.7V7.7h4.9V0H38.9v7.7zM6.1 17.9H0v7.7h8.7c.4 0 .8 0 1.2-.1 1.3-.2 2.5-.8 3.4-1.8s1.4-2.3 1.4-3.6V0H6.1v17.9zm31.7-1.5c0-.7 0-1.3-.1-2H35c0 .6.1 1.2.1 1.8 0 .6-.1 1.1-.1 1.7L25 9.5c-1.3-1.1-1.8-1.8-1.8-3.6 0-3.4 2.2-3.4 4.9-3.4 3.8 0 4.3.7 4.3 3.9v1.4h2.9V6.4C35.3 1 32.7 0 28.1 0c-5 0-7.8 1-7.8 6 0 2.9.6 3.6 2.3 5-3.2.9-5.2.8-5.2 7 0 8 4 7.9 9.7 7.9 4.1 0 8.1 0 9.5-3.3l3.8 3.1 1.6-2-4.5-3.8c.3-1.1.4-2.3.3-3.5zm-10.5 6.8c-6 0-6.8-.4-6.8-5.4 0-4.1.4-4.5 4.1-5.4l10 8.3c-.7 2.8-4.6 2.5-7.3 2.5zm53.8-11c2.4-1 3-2.8 3-5.4 0-2.2-.3-3.9-1.2-5.1C82 .5 80.5 0 78.1 0H65v25.6h13.6c2.2 0 3.7-.6 4.7-1.9s1.4-3 1.4-5.3c0-3-.5-5.5-3.6-6.2zM68.2 2.8h8.5c3 0 4.1.3 4.2 3.6 0 3.9-1.1 4.5-4.5 4.6h-8.2V2.8zm8.9 20h-8.9v-8.9h9.5c3.5 0 3.9 1.5 3.9 4.8 0 3.8-1.4 4-4.5 4.1zM95.2 0l-9.3 25.6h3.3l2-5.4h12.6l2 5.4h3.2L99.5 0h-4.3zM92 17.6l5.4-14.7 5.5 14.7H92zm38.1 5.3L116.1 0h-5v25.6h3.2V2.9l14 22.7h4.9V0h-3.1v22.9zm16.8-10.5L158.6 0h-4.1l-10.3 11.1h-2.3V0h-3.2v25.6h3.2V13.9h2.3l11.5 11.7h4.3l-13.1-13.2z"/>
</svg>