<svg xmlns="http://www.w3.org/2000/svg" viewBox="0 0 122 50">
	<g fill="#609a42">
		<path d="M8.4 41.1c-.1 0-.1 0 0 0l-.1-.1-.1-.1H7.1s-.1 0-.2.1c0 0-.1.1-.1.2l-.1.3-2.2 5.2-2.1-5.2c0-.1 0-.1-.1-.2v-.1c0-.1-.1-.1-.1-.2H1c-.1 0-.2 0-.3.1-.1 0-.1.2-.1.3v6.7H1.4v-6.4L3.9 48h.7l2.6-6.3v6.4H8v-6.7c.4-.1.4-.2.4-.3 0 .1 0 .1 0 0zM92.9 41h-.7L89 45.7c0 .1-.1.1-.1.2s-.1.1-.1.2-.1.2-.1.2l-.1.1V41H87.7v7h.7s3.3-5 3.4-5.1v-.4V48H92.7l.2-7zM85.6 41H84.7v7H85.6v-7zM76.9 40.9h-.7l-.2.1v3h-3.3v-3H71.8v7H72.6v-3.3H76V48H76.8l.1-7.1c.1.1.1 0 0 0zM63.5 41h-3.2c-.1 0-.2 0-.2.1 0 0-.1.2-.1.3-.1.8-.2 1.6-.3 2.2-.1.6-.2 1.2-.3 1.6-.1.4-.2.8-.3 1.1-.1.2-.2.5-.3.6l-.3.3c-.1 0-.2.1-.4.1H58V48.2h.1c.2 0 .5 0 .7-.1s.4-.2.6-.4c.1-.2.3-.4.4-.8.1-.3.3-.7.4-1.2.1-.5.2-1 .3-1.7.1-.7.2-1.4.3-2.3h2V48H63.7v-6.6c0-.1 0-.2-.1-.3.1 0 0-.1-.1-.1zM50.2 41s-.1-.1-.2-.1h-4.5c-.1 0-.2 0-.2.1s-.1.1-.1.3V48H46.1v-6.3h3.2V48.1H50.2V48l-.1-6.6c.2-.2.1-.3.1-.4zM43.3 41h-.7l-3.1 4.7c0 .1-.1.1-.1.2s-.1.1-.1.2-.1.2-.1.2l-.1.1V41H38.2v7h.7s3.3-5 3.4-5.1v-.4V48H43.2l.1-7zM36.6 47.3h-.7V41H35v6.3h-3.2V41H30.9v6.7c0 .1 0 .2.1.3 0 0 .1.1.2.1h4.9v1.8h.6v-2.6h-.1zM28.7 41H28l-3.1 4.7c0 .1-.1.1-.1.2s-.1.1-.1.2-.1.2-.1.2l-.1.1V41H23.6v7h.6s3.3-5 3.4-5.1v-.4V48H28.5l.2-7c.1 0 .1 0 0 0zM21.4 40.9H20.6v3h-3.3v-3H16.5V48h.7v-3.3h3.3V48H21.3l.1-7.1c.1.1.1 0 0 0 .1 0 0 0 0 0zM15.3 41.1c-.1 0-.1 0 0 0H14.4l-1 2.6c-.1.2-.1.4-.2.6 0 .1-.1.2-.1.4-.1.2-.2.5-.3.8-.1-.3-2.1-4.3-2.1-4.3v-.1h-1V41.4l2.6 5.1c0 .1-.1.1-.1.2s-.1.2-.2.3c-.1.1-.2.2-.2.3-.1.1-.1.1-.2.1H11l-.1-.1h-.1c-.1 0-.1 0-.1.1v.7h.7c.2 0 .4 0 .6-.1.1 0 .3-.1.5-.3.1-.1.3-.3.4-.6.1-.2.2-.5.4-.8 0-.1.1-.2.1-.3l2-4.8c-.1.1-.1 0-.1-.1zM121.8 48v-.2l-.7-1.7-.3-.6c0-.1-.1-.1-.2-.2l-.2-.2c-.1 0-.1-.1-.2-.1s-.1-.1-.2-.1c-.1-.1-.3-.2-.5-.2.2 0 .3-.1.4-.2 0 0 .1-.1.2-.1s.1-.1.2-.1l.3-.4c.1-.1.1-.2.2-.4 0-.1 0-.1.1-.2l.6-1.5V41H120.6l-.5 1.5c0 .2-.1.4-.2.6-.1.1-.2.3-.3.4-.1.1-.3.2-.4.2-.1 0-.3.1-.6.1h-.6v-3H117.2v7H118v-3.2h.4c.2 0 .4 0 .6.1.2 0 .3.1.5.2l.4.4.3.6.7 1.7h.7c.1.5.1.5.2.4 0 .1 0 0 0 0 0-.1 0-.1 0 0zM115 40.9H114.2v3h-3.3v-3H110.1V48H110.9v-3.3h3.3V48H115v-7.1c.1.1.1 0 0 0 .1 0 0 0 0 0zM46.7 32.7v3.8H47.5v-5.1h-.7l-2.2 2.9c-.1.1-.2.2-.3.4 0 .1-.1.3-.2.4V31.4c0-.1 0-.1-.1-.1h-.9v5.1h.7v-.1s2.3-3.2 2.4-3.3l.5-.3zM40.3 33.2l.3-.4v3.8H41.4v-5.1h-.6l-2.2 2.9c-.1.1-.2.2-.3.4 0 .1-.1.3-.2.4V31.5c0-.1 0-.1-.1-.1h-.9v5.1h.7v-.1c.1.1 2.4-3.1 2.5-3.2zM32 36.6c0 .1 0 .1 0 0 .1.1.1.1.2.1h.6v-2.3h.8c.1 0 .2 0 .3.1.1 0 .1.1.2.2v.1c0 .1.1.1.1.2s.1.1.1.2l.5 1.3h.7v-.3l-.5-1.3c0-.1-.1-.1-.1-.2s-.1-.1-.1-.2-.1-.2-.2-.3c-.1-.1-.2-.2-.3-.2-.1 0-.2-.1-.3-.1.1 0 .2 0 .3-.1.1 0 .2-.1.3-.2 0 0 .1-.1.2-.3.1-.1.1-.2.2-.3 0-.1.1-.1.1-.2l.5-1.1V31.4H34.7v.1l-.5 1.2c0 .2-.1.3-.2.4 0 .1-.1.2-.2.2l-.1.1s-.1 0-.2.1c-.1 0-.1 0-.2.1h-.8v-2.1h-.7l.2 5.1c-.1 0-.1 0 0 0zM30.5 35.3h-.1s-.1 0-.1.1c-.1 0-.2.1-.3.2-.1.1-.3.2-.4.2-.2 0-.4.1-.6.1s-.4 0-.6-.1c-.2-.1-.3-.2-.4-.4l-.3-.6c0-.2-.1-.5-.1-.9 0-.7.1-1.2.3-1.5.2-.3.6-.5 1-.5.2 0 .4 0 .6.1.1 0 .3.1.4.2.1 0 .1.1.2.1l.1.1s.1 0 .1.1h.1s.1 0 .1-.1v-.5l-.1-.1s-.1-.1-.2-.1-.2-.1-.3-.1H29c-.3 0-.6 0-.9.1-.3.1-.5.2-.7.5s-.4.5-.5.9c-.1.3-.2.8-.2 1.3 0 .4 0 .8.1 1.2.1.3.2.6.4.8.1.2.4.4.7.5.3.1.6.2 1 .2h.5l.4-.1c.1 0 .2-.1.3-.1 0 0 .1 0 .1-.1.1-.1.1-.1.2-.1 0 0 .1 0 .1-.1h.1V36c0-.5 0-.5-.1-.7.1.1 0 0 0 0zM24.6 36.7l.4-.1c.1 0 .2-.1.3-.1 0 0 .1 0 .1-.1.1-.1.1-.1.2-.1 0 0 .1 0 .1-.1h.1v-.8h-.1s-.1 0-.1.1c-.1 0-.2.1-.3.2-.1.1-.3.2-.4.2-.2 0-.4.1-.6.1s-.4 0-.6-.1c-.2-.1-.3-.2-.4-.4l-.3-.6c0-.2-.1-.5-.1-.9 0-.7.1-1.2.3-1.5.2-.3.6-.5 1-.5.2 0 .4 0 .6.1.1 0 .3.1.4.2.1 0 .2.1.3.2 0 0 .1 0 .1.1h.1s.1 0 .1-.1V32l-.1-.1s-.1-.1-.2-.1-.2-.1-.3-.1h-.9c-.3 0-.6 0-.9.1-.3.1-.5.2-.7.5-.2.2-.4.5-.5.9-.1.3-.2.8-.2 1.3 0 .4 0 .8.1 1.2.1.3.2.6.4.8.1.2.4.4.7.5.3.1.6.2 1 .2.1-.5.3-.5.4-.5zM15.7 36.2l-.6-1.3c0-.1-.1-.1-.1-.2s-.1-.1-.1-.2-.1-.2-.2-.3c-.1-.1-.2-.2-.3-.2-.1 0-.2-.1-.3-.1.1 0 .2 0 .3-.1.1 0 .2-.1.3-.2 0 0 .1-.1.2-.3.1-.1.1-.2.2-.3 0-.1.1-.1.1-.2l.5-1.1V31.4H14.7v.1l-.5 1.2c0 .2-.1.3-.2.4 0 .1-.1.2-.2.2l-.1.1s-.1 0-.2.1c-.1 0-.1 0-.2.1h-.7v-2.1h-.7v5.1h.7v-2.3h.8c.1 0 .2 0 .3.1.1 0 .1.1.2.2v.1c0 .1.1.1.1.2s.1.1.1.2l.5 1.3h.6c.6.1.6 0 .5-.2zM.9 36.6s.1 0 0 0l.1-.1 1.6-2.9 1.6 2.8v.1H5v-.2s0-.1-.1-.1L3.3 33l1.9-3.2s0-.1.1-.1v-.2H4.3l-1.5 2.7-1.5-2.7v-.1H.2v.1s0 .1.1.1v.1L2.1 33l-2 3.3s0 .1-.1.1v.2H.9zM89.8 21.1l-3.1-3.2-18.2 18.2h6.3z"/>
		<path d="m98.5 36.1 11.7-11.7c2-2 3.1-4.7 3.1-7.5s-1.1-5.5-3.1-7.5c-4.1-4.1-10.9-4.1-15 0l-4 4L77.8 0v6.3l13.4 13.4 7.2-7.2c2.4-2.4 6.3-2.4 8.7 0 2.4 2.4 2.4 6.3 0 8.7l-8.5 8.6-7.4-7.4-13.7 13.7h6.4l7.3-7.4 7.3 7.4zM44.2 30.2s.1 0 0 0c.2.1.4.2.5.3.2 0 .4.1.7.1.3 0 .6 0 .8-.1.2-.1.4-.2.5-.3.1-.1.2-.3.3-.5s.1-.4.1-.6V29h-.5v.4c0 .1 0 .2-.1.3-.1.1-.2.1-.3.2h-.8c-.1 0-.1-.1-.2-.1l-.1-.1c-.1 0-.1-.1-.2-.2V29H43.7v.1c0 .2 0 .4.1.6.2.2.3.4.4.5zM16.9 36.3c.1.1.3.2.5.3.2 0 .5.1.7.1.3 0 .6 0 .9-.2.2-.1.5-.3.7-.5v.6H20.5v-.1l-.1-3.3c0-.3 0-.6-.1-.8 0-.2-.2-.4-.3-.6l-.6-.3c-.2-.1-.6-.1-.9-.1h-.6c-.2 0-.4.1-.5.1-.1 0-.2.1-.3.1-.1 0-.1.1-.2.1s-.2.1-.2.1l-.1.1v.4h.2s.1 0 .1-.1c0 0 .1 0 .1-.1.1 0 .1-.1.2-.1.1-.1.3-.1.5-.2s.4-.1.6-.1c.2 0 .4 0 .5.1.1 0 .2.1.3.2s.1.2.2.4v.9h-.7c-.4 0-.8 0-1.1.1-.3 0-.6.1-.8.3-.2.1-.4.3-.5.5-.1.2-.2.4-.2.7 0 .2 0 .4.1.6.5.5.6.7.8.8zm.6-1.6c.1-.2.2-.2.3-.3.1-.1.3-.1.5-.2s.4 0 .7 0h.8l-.1 1-.5.5s-.1 0-.1.1c-.2.1-.4.2-.7.2-.3 0-.5-.1-.7-.2-.1-.1-.2-.4-.2-.6-.1-.2-.1-.4 0-.5zM10 36.6c.1 0 .1-.1.1-.1l-.1-3.3c0-.3 0-.6-.1-.8 0-.2-.2-.4-.3-.6l-.6-.3c-.2-.1-.6-.1-.9-.1h-.6c-.2 0-.4.1-.5.1-.1 0-.2.1-.3.1-.1 0-.1.1-.2.1s-.2.1-.2.1l-.1.1v.4h.2s.1 0 .1-.1c0 0 .1 0 .1-.1.1 0 .1-.1.2-.1.1-.1.3-.1.5-.2.2.2.4.2.6.2.2 0 .4 0 .5.1.1 0 .2.1.3.2s.3.2.3.4v.9h-.6c-.4 0-.8 0-1.1.1-.3 0-.6.1-.8.3-.2.1-.4.3-.5.5-.1.2-.2.4-.2.7 0 .2 0 .4.1.6 0 .2.2.3.3.5.1.1.3.2.5.3.2 0 .5.1.7.1.3 0 .6 0 .9-.2.4-.1.7-.3.9-.5v.6h.8c-.1 0-.1 0 0 0zm-1-1.4-.5.5s-.1 0-.1.1c-.2.1-.4.2-.7.2-.3 0-.5-.1-.7-.2-.1-.1-.2-.4-.2-.6 0-.1 0-.3.1-.4l.1-.1.2-.2c.1-.1.3-.1.5-.2s.4 0 .7 0H9v.9zM106.3 41.1c0-.1-.1-.1-.1-.1h-1.1v.1l-2.4 6.6V48H103.7l.6-1.7h3l.6 1.7v.1H108.7V47.8l-2.4-6.7zm-1.9 4.3 1.3-3.6 1.3 3.6h-2.6zM101.4 44.6c-.2-.1-.4-.3-.7-.4s-.7-.2-1.1-.2h-1.3v-2.3h3.1V41h-3.8c-.1 0-.1 0-.2.1h-.1s-.1.1-.1.3v6.4c0 .1 0 .2.1.3 0 0 .1.1.2.1h1.7c.5 0 1-.1 1.3-.2.3-.1.6-.3.8-.5.2-.2.3-.4.4-.7.1-.3.1-.5.1-.8 0-.3 0-.6-.2-.8.2-.3 0-.4-.2-.6zm-.4 2.1c-.1.1-.2.3-.3.4-.1.1-.3.2-.5.2s-.4.1-.7.1h-1.2v-2.6h1.2c.3 0 .6 0 .8.1.2 0 .3.1.5.2.1.1.2.2.3.4 0 .1.1.3.1.5s-.1.4-.2.7zM89.3 38.9h-.7v.1c0 .2 0 .4.1.6.1.1.2.3.3.4.1.1.3.2.5.3.2 0 .4.1.7.1.3 0 .6 0 .8-.1.2-.1.4-.2.5-.3.1-.1.2-.2.3-.4 0-.1.1-.3.1-.5 0 0 0-.1 0 0h-.5v.4c0 .1 0 .2-.1.2l-.3.1h-.8c-.1 0-.1 0-.2-.1 0 0-.1 0-.1-.1l-.2-.2v-.3l-.4-.2c.1.1.1 0 0 0zM82.9 44.3c-.2-.1-.5-.3-.8-.4-.3-.1-.7-.1-1.3-.1h-1V41H78.9v6.8l.1.2H80.7c.6 0 1.1 0 1.4-.2.3-.1.6-.3.8-.5.2-.2.3-.5.4-.7.1-.2.1-.5.1-.8 0-.3 0-.6-.1-.9 0-.2-.1-.4-.4-.6zm-.4 2.1c0 .1-.1.3-.2.4-.1.1-.3.2-.5.3s-.5.1-1 .1h-1v-2.7h.9c.4 0 .7 0 .9.1h.1c.2.1.3.1.5.3.1.1.2.2.3.4 0 .1.1.3.1.6 0 .2-.1.3-.1.5zM69.9 44.3c-.2-.1-.5-.3-.8-.4-.3-.1-.7-.1-1.3-.1h-1.1V41H65.7v6.9c0 .1 0 .1.1.1h1.8c.6 0 1.1 0 1.4-.2.3-.1.6-.3.8-.5.2-.2.3-.5.4-.7.1-.2.1-.5.1-.8 0-.3 0-.7-.1-.9.1-.2-.1-.4-.3-.6zm-.4 2.1c0 .1-.1.3-.2.4-.1.1-.3.2-.5.3-.2.1-.5.1-1 .1h-1.1v-2.7h1c.4 0 .7 0 .9.1h.1c.2.1.3.1.5.3.1.1.2.2.3.4 0 .1.1.3.1.6 0 .2-.1.3-.1.5zM55.2 41.1c0-.1-.1-.1-.1-.1H54v.1l-2.4 6.6V48H52.6l.6-1.7h3l.6 1.7v.1H57.6V47.8l-2.4-6.7zm-1.9 4.3 1.3-3.6 1.3 3.6h-2.6z"/>
	</g>
</svg>