<svg xmlns="http://www.w3.org/2000/svg" viewBox="0 0 160 40">
	<path fill="#515252" d="M65.0361 20.8676c0-1.5 1.0255-2.6289 2.5468-2.6289 1.5166 0 2.5466 1.134 2.5466 2.6289 0 1.5002-1.0251 2.629-2.5466 2.629-1.5214 0-2.5468-1.1288-2.5468-2.629Zm2.5468 5.4325c3.1977 0 5.7287-2.1546 5.7287-5.4325 0-3.285-2.5247-5.4325-5.7287-5.4325-3.2106 0-5.7286 2.1414-5.7286 5.4325 0 3.2843 2.5245 5.4325 5.7286 5.4325Zm9.8257-10.5162h-2.0603v10.1676h3.1787v-5.1857c0-1.4526.6077-2.1783 2.0894-2.1783h1.5071v-2.8627h-1.0533c-1.1181 0-2.0029.2854-2.7482 1.1484l-.2447.2832-.6687-1.3727v.0002Zm8.6468 5.0837c0-1.5 1.0254-2.6289 2.5468-2.6289 1.5166 0 2.5466 1.134 2.5466 2.6289 0 1.5002-1.0251 2.629-2.5466 2.629-1.5215 0-2.5468-1.1288-2.5468-2.629Zm2.5468 5.4325c3.1977 0 5.7287-2.1546 5.7287-5.4325 0-3.285-2.5247-5.4325-5.7287-5.4325-3.2106 0-5.7286 2.1414-5.7286 5.4325 0 3.2843 2.5245 5.4325 5.7286 5.4325Zm9.9367-10.5162h-2.1714v10.1676h3.1786v-5.4456c0-1.3155.7799-2.4119 2.2089-2.4119 1.254 0 1.793.9997 1.793 2.1026v5.7549h3.178v-6.2619c0-2.3939-1.518-4.2215-4.017-4.2215-1.197 0-2.515.4298-3.3249 1.33l-.2511.2791-.5941-1.2933Zm16.1041 7.7588c-1.527 0-2.636-1.1628-2.636-2.6784 0-1.5161 1.109-2.6718 2.636-2.6718 1.522 0 2.636 1.1606 2.636 2.6718 0 1.5138-1.11 2.6784-2.636 2.6784Zm3.301-7.7685-.442.9706-.249-.2042c-.88-.7257-1.963-1.0888-3.1-1.0888-3.154 0-5.344 2.2688-5.344 5.406 0 3.1369 2.18 5.4423 5.344 5.4423 1.122 0 2.188-.3532 3.063-1.0605l.256-.2073.376.9059h2.425v-10.164h-2.329Zm11.055 3.5238h-2.352v-3.8495h2.352c1.133 0 1.912.7972 1.912 1.9248 0 1.1275-.779 1.9247-1.912 1.9247Zm-5.669-6.673v13.3265h3.317v-3.83h2.81c2.766 0 4.87-1.9607 4.87-4.758 0-2.7982-2.109-4.7385-4.87-4.7385h-6.127Zm18.038 10.9177c-1.527 0-2.635-1.1628-2.635-2.6784 0-1.5161 1.108-2.6718 2.635-2.6718 1.522 0 2.636 1.1606 2.636 2.6718 0 1.5138-1.11 2.6784-2.636 2.6784Zm3.301-7.7685-.443.9706-.248-.2042c-.88-.7257-1.963-1.0888-3.1-1.0888-3.154 0-5.344 2.2688-5.344 5.406 0 3.1369 2.18 5.4423 5.344 5.4423 1.122 0 2.188-.3532 3.063-1.0605l.256-.2073.376.9059h2.425v-10.164h-2.329Zm11.94.0097-2.275 6.3346-2.438-6.3346h-3.437l4.288 9.5239-.036.0952c-.526 1.404-.878 1.5323-2.407 1.5323h-.764v2.6586h1.011c3.036 0 3.988-1.3519 5.135-3.9684L160 15.784h-3.391v-.0001ZM61.9248 25.9515l-4.668-6.8785 4.2633-6.448H57.7l-3.2364 5.1608h-1.6737V12.625h-3.3168v13.3265h3.3168v-5.3384h1.7539l3.4632 5.3384h3.9178Z"/>
	<path fill="#E31A3C" d="M29.0667 40H10.9332C4.44469 40 0 35.5533 0 29.0668V10.9333C0 4.44787 4.44775 0 10.9332 0h18.1335c6.4855 0 10.9332 4.44481 10.9332 10.9333v18.1335C39.9999 35.5553 35.5552 40 29.0667 40Z"/>
	<path fill="#FECC00" d="M10.5566 28.9555h18.9406v-2.1304H10.5566v2.1304Zm9.4157-21.82073 2.5143 2.38443-2.5143 2.3337-2.4607-2.3337 2.4607-2.38443ZM33.2418 17.3842c-3.3709-2.7911-7.7585-4.5655-12.6263-4.7179v13.2464s3.6376-.051 4.6011 0c.8033 0 1.0702-.7119 1.0702-.7119l3.3707-7.7126c.3203.2035.6408.4069.91.6102l-3.4241 7.8142h2.4073c1.2303-2.842 2.4607-5.6839 3.6911-8.5261v-.0026.0003Zm-9.2021 6.5966c-.267.051-1.177 0-1.177 0V15c1.7132.2541 3.3171.7626 4.8703 1.4718l-3.1571 7.2065c-.2135.3562-.5362.3051-.5362.3051v-.0026ZM6.75879 17.3842c3.37091-2.7911 7.81171-4.5655 12.62631-4.7179v13.2464s-3.6376-.051-4.6011 0c-.8033 0-1.0702-.7119-1.0702-.7119l-3.3707-7.7126c-.3203.2035-.64322.4069-.90996.6102l3.47736 7.8142h-2.4606c-1.2305-2.842-2.46074-5.6839-3.69111-8.5261v-.0026.0003Zm9.20211 6.5966c.267.051 1.177 0 1.177 0V15c-1.7132.2541-3.3174.7626-4.8146 1.4718l3.1039 7.2065c.216.3562.5337.3051.5337.3051v-.0026Z"/>
</svg>