<svg xmlns="http://www.w3.org/2000/svg" viewBox="0 0 100 50">
	<path fill="#e0002e" d="M0 50h100V0H0v50z"/>
	<path fill="#ffc733" d="M12.2 20.4h13.2v-1.6H12.2v1.6zm6.6-16l1.8 1.7-1.8 1.7-1.7-1.7 1.7-1.7zm9.3 7.6c-2.4-2.2-5.6-3.4-8.8-3.5v9.7h3.2c.6 0 .8-.5.8-.5l2.3-5.7c.2.1.4.3.7.5l-2.4 5.7h1.7l2.5-6.2zm-6.5 4.8h-.8v-6.6c1.2.2 2.3.6 3.4 1.1L22 16.6c-.1.2-.4.2-.4.2zM9.6 12c2.4-2.2 5.6-3.4 8.8-3.5v9.7h-3.2c-.6 0-.8-.5-.8-.5L12.1 12c-.2.1-.4.3-.7.5l2.4 5.7h-1.7L9.6 12zm6.4 4.8h.8v-6.6c-1.2.2-2.3.5-3.4 1.1l2.2 5.3c.2.2.4.2.4.2z"/>
	<g fill="#fff">
		<path d="M21.9 30.1c-.4-.3-.8-.6-1.3-.7 1.6-.6 1.6-3.1 3-4.1.8-.6 1.9-.2 1.9-1.4v-2.4c-.6 0-1.9-.1-3.4.4-2 .7-3 4.1-4 5.4-.2.3-.4.5-.6.6s-.5.2-.8.2h-.6v-6.5h-3.9V38h3.9v-6.9h1.2c.7 0 1.1.2 1.5.8l2.8 5c.3.6.8 1.1 1.5 1.1h3.6l-3.8-6.5c-.3-.6-.7-1.1-1-1.4zm20.3-7c2.6 0 4.3-1.8 4.3-4.4s-1.7-4.3-4.3-4.3c-2.6 0-4.3 1.7-4.3 4.3 0 2.7 1.7 4.4 4.3 4.4zm0-6.8c1.4 0 1.7 1.3 1.7 2.5s-.2 2.5-1.7 2.5-1.7-1.3-1.7-2.5.2-2.5 1.7-2.5zm39.6 3.9L80.1 23h1.7c.7 0 1.2-.2 1.6-.8l.8-1.8c.1-.2.2-.3.3-.5.2-.2.5-.2.8-.2V23h2.4v-8.4h-3.4c-.9 0-1.9.2-2.7.8-.5.4-.8 1-.8 1.7 0 1.3 1 1.9 2.1 2.2-.5.1-.8.4-1.1.9zm1.6-3.4c.1-.5.5-.7 1-.7h.9v2.1h-.9c-.3 0-.6-.1-.8-.3-.3-.2-.3-.7-.2-1.1zM67 23h2.5v-6.6h2.7v-1.8h-7.9v1.8H67V23zm-34.2-2.1c-1 0-1.7-.3-2.5-.8-.4-.2-.8-.2-1.1.2l-.8 1.3c1.1 1 2.9 1.6 4.4 1.6.7 0 1.4-.1 1.9-.3 1.6-.6 2.6-1.9 2.6-3.6 0-1.1-.8-1.9-1.7-2.4 1-.6 1.4-1.5 1.4-2.6 0-1.6-1.1-2.5-2.6-2.9-.5-.2-1.1-.2-1.8-.2-1.4 0-2.8.4-3.9 1.3l.7 1.3c.3.4.6.5 1 .3.7-.4 1.3-.6 2.2-.6.8 0 1.8.2 1.8 1.2 0 .4-.2.8-.5 1s-.8.3-1.5.3h-1.5v2.1h1.7c.9 0 2.1.3 2.1 1.4 0 1-.8 1.4-1.9 1.4zm59.1-5c.1-.1.1-.2.1-.3s0-.2-.1-.2c0-.1-.1-.1-.2-.2-.1 0-.1 0-.2-.1h-.9v1.6h.3v-.6h.3l.6.6h.4l-.7-.7c.3 0 .4 0 .4-.1zm-.4 0H91v-.6h.6l.1.1v.2s0 .1-.1.1c0 .2-.1.2-.1.2zm-31.4-1.5c-2.6 0-4.3 1.7-4.3 4.3s1.7 4.4 4.3 4.4c2.6 0 4.3-1.8 4.3-4.4-.1-2.5-1.7-4.3-4.3-4.3zm0 6.8c-1.5 0-1.7-1.3-1.7-2.5s.3-2.5 1.7-2.5 1.7 1.3 1.7 2.5-.3 2.5-1.7 2.5zM52.4 23h2.5v-8.4h-6.6c-.1 1.5.1 4.3-.6 5.6-.2.5-.5.8-1 1-.2 0-.3.1-.5.1v1.5c0 .1 0 .2.1.3.2.1.3.1.4.1.3 0 .7 0 1-.1.7-.1 1.2-.5 1.6-1 1.1-1.3 1-4 1.2-5.6h1.8l.1 6.5z"/>
		<path d="M92.4 14.9c-.3-.3-.7-.4-1.1-.4-.2 0-.4 0-.6.1-.2.1-.4.2-.5.3-.3.3-.5.7-.5 1.1s.2.8.5 1.1c.3.3.7.4 1.1.4.2 0 .4 0 .6-.1.2-.1.4-.2.5-.3.3-.3.5-.7.5-1.1s-.2-.8-.5-1.1zm-.1 2.1c-.3.3-.6.4-.9.4-.4 0-.7-.1-1-.4s-.4-.6-.4-1c0-.2 0-.4.1-.5.1-.2.2-.3.3-.4.3-.3.6-.4 1-.4.2 0 .4 0 .5.1.2.1.3.2.4.3.1.1.2.3.3.4.1.2.1.3.1.5s0 .4-.1.5c-.1.2-.2.3-.3.5zm-14.7 5.5c.2.4.4.5.8.5h1.1v-5.4c0-1.9-1.5-3.1-3.3-3.1-1.3 0-2.3.2-3.3.3 0 .4-.2 2.2 1.2 1.8 1.2-.2 2.1-.4 2.6.1.2.2.3.4.3.9-1 0-1.8.1-2.4.3-1 .3-1.8.7-2.3 1.6-.4.9-.2 2.4.5 3.1.8.7 2.3.7 3.2.3.4-.2.8-.5 1.2-.8l.4.4zm-.4-2c-.2.3-.5.4-.7.5-.4.2-1.2.3-1.6 0s-.3-1.2.2-1.5 1.6-.3 2.2-.4l-.1 1.4zm-45.5 5.1c-3.9 0-6.3 2.5-6.3 6.3 0 1 .2 1.9.5 2.6 1 2.5 3.2 3.7 5.8 3.7 2.6 0 4.8-1.2 5.8-3.7.3-.8.5-1.7.5-2.6-.1-3.8-2.4-6.3-6.3-6.3zm0 9.8c-2.1 0-2.5-1.8-2.5-3.6s.4-3.6 2.5-3.6 2.5 1.9 2.5 3.6c0 1.8-.4 3.6-2.5 3.6zm14.4-9.9c-1.5 0-2.8.6-3.8 1.7l-.3-.8c-.1-.4-.4-.6-.9-.6h-2.3v16.1h3.7v-4.7c.8.7 1.7 1 2.8 1 2.4 0 4.1-1.6 4.9-3.9.5-1.6.5-3.6 0-5.2-.5-1.9-1.9-3.6-4.1-3.6zm-1.6 10c-.8 0-1.4-.3-1.9-.8v-5.2c.7-.8 1.3-1.2 2.3-1.2 1.8 0 1.9 2.1 1.9 3.4 0 1.6-.4 3.8-2.3 3.8zm27.8-5.3h-3.7v-4.4h-3.7V38h3.7v-5.2h3.7V38H76V25.8h-3.7v4.4zm-14.6-4.6c-3.8 0-6.3 2.5-6.3 6.3s2.5 6.3 6.3 6.3 6.2-2.5 6.2-6.3c.1-3.8-2.4-6.3-6.2-6.3zm0 9.8c-2.1 0-2.5-1.8-2.5-3.6s.4-3.6 2.5-3.6 2.5 1.9 2.5 3.6c0 1.8-.4 3.6-2.5 3.6zm25.2-9.9c-1.9 0-3.4.3-4.8.5 0 .6-.3 3.1 1.8 2.7 1.7-.3 3.1-.6 3.7.1.3.3.4.6.4 1.2-1.4 0-2.6.2-3.5.4-1.4.4-2.6 1-3.3 2.4-.6 1.3-.3 3.5.7 4.5 1.2 1 3.3 1.1 4.7.5.7-.3 1.2-.7 1.8-1.2l.3.7c.2.6.6.7 1.2.7h1.7v-7.9c.1-2.8-2-4.6-4.7-4.6zm1.3 8.8c-.4.4-.7.6-1.1.8-.6.3-1.7.5-2.4 0-.6-.5-.4-1.8.3-2.2s2.3-.5 3.1-.5l.1 1.9z"/>
	</g>
</svg>