<svg xmlns="http://www.w3.org/2000/svg" viewBox="0 0 163 32">
	<path fill="#196D1F" d="M36.1394 22.9659h5.9621v.96l-4.8438.0002v2.2583h2.4606c.9415 0 1.6556.1954 2.1457.5878.4901.3924.7343.9566.7343 1.6926 0 .0364-.0006.0723-.0018.1078-.005.1539-.0211.3004-.0481.4395-.0996.5136-.3488.9258-.7468 1.2366-.5305.4143-1.2884.6214-2.2753.6214h-3.387l.0001-7.9042Zm3.3431 7.0097c.6467 0 1.1402-.1246 1.4788-.3722.238-.1741.3927-.4065.4636-.6965.0237-.0967.038-.1998.043-.3093.0013-.0291.0019-.0587.0019-.0887 0-.9566-.6618-1.4333-1.9873-1.4333h-2.2248v2.9017h2.2248v-.0017Zm6.203.8926 1.162.0003.8691-1.9756h4.2004l.8707 1.9756h1.1857l-3.5907-7.9026h-1.1183l-3.5789 7.9023Zm4.133-6.7501 1.7043 3.8718h-3.4086l1.7043-3.8718Zm14.7385-1.1522v7.9023l-1.1284.0003v-3.5217h-4.539l.0001 3.5214-1.1285.0003v-7.9024l1.1285-.0002v3.397h4.5389v-3.3968l1.1284-.0002Zm11.4845 7.9023-2.9572-4.0757 2.8226-3.8264-1.2075-.0002-2.4843 3.4324h-1.6707v-3.4324h-1.1065v7.9026h1.1065v-3.4779h1.6488l2.5617 3.4779 1.2866-.0003ZM41.7427 11.4358l-2.0783 2.1659v3.9124h-3.5587V2.04126h3.5587v7.22863l6.8531-7.22863h3.9797l-6.4101 6.89516 6.7874 8.57598H46.696l-4.9533-6.0766Zm14.7891 5.3036c-1.2901-.6922-2.299-1.6472-3.0282-2.8615-.7293-1.216-1.0931-2.5836-1.0931-4.10106 0-1.51579.3638-2.88337 1.0931-4.09937.7292-1.216 1.7381-2.16926 3.0282-2.86315 1.2901-.69053 2.7385-1.03748 4.3436-1.03748 1.6067 0 3.0517.34695 4.3334 1.03748 1.2834.69389 2.2922 1.64715 3.0282 2.86315.736 1.216 1.1049 2.5819 1.1049 4.09937 0 1.51746-.3689 2.88506-1.1049 4.10106-.736 1.2143-1.7465 2.1693-3.0282 2.8615-1.2817.6922-2.7267 1.0374-4.3334 1.0374-1.6051 0-3.0535-.3452-4.3436-1.0374Zm6.821-2.6392c.736-.421 1.3154-1.0071 1.7348-1.7566.4193-.7512.6299-1.6068.6299-2.56507 0-.95663-.2106-1.81053-.6299-2.56337-.4194-.75116-.9988-1.33895-1.7348-1.75663-.736-.42106-1.5629-.6299-2.4758-.6299-.9145 0-1.7381.20884-2.4757.6299-.736.41936-1.3154 1.00547-1.7348 1.75663-.4193.75116-.6299 1.60674-.6299 2.56337 0 .95827.2106 1.81217.6299 2.56507.4194.7495.9988 1.3356 1.7348 1.7566.736.4194 1.5612.6299 2.4757.6299.9129-.0017 1.7381-.2122 2.4758-.6299ZM93.3806 2.04126V17.5124H72.9545V2.04126h3.5588V14.5954h4.8858V2.04126h3.5588V14.5954h4.864V2.04126h3.5587ZM110.26 14.6408v2.8716H98.2783V2.04126h11.6947v2.87495h-8.134v3.36h7.185v2.78399h-7.185v3.5806h8.421Zm17.778-12.59954V17.5124H124.5V4.95832h-5.305l-.112 3.22694c-.074 2.19624-.251 3.97474-.53 5.33724-.28 1.3626-.748 2.4084-1.403 3.1377-.655.7293-1.573 1.0931-2.752 1.0931-.487 0-1.076-.0809-1.769-.2426l.221-3.0265c.192.0573.404.0876.642.0876.854 0 1.45-.5053 1.79-1.5141.339-1.0089.553-2.5903.642-4.74107l.22-6.27705h11.894v.00168Zm16.458 12.59954v2.8716h-11.979V2.04126h11.695v2.87495h-8.135v3.36h7.183v2.78399h-7.183v3.5806h8.419Zm17.277-3.8231c.502.6332.753 1.413.753 2.341 0 1.371-.519 2.4388-1.558 3.2051-1.039.7663-2.525 1.1486-4.455 1.1486h-7.628V2.04126h7.207c1.799 0 3.199.34695 4.201 1.03916 1.002.69221 1.502 1.67916 1.502 2.96253 0 .76631-.19 1.43831-.573 2.02105-.385.58274-.923 1.04253-1.615 1.38105.943.28127 1.668.73935 2.166 1.37265Zm-9.327-2.36633h3.336c.782 0 1.371-.15832 1.77-.47495.396-.31663.597-.78484.597-1.40463 0-.60295-.204-1.06611-.607-1.39284-.406-.32337-.993-.48505-1.76-.48505h-3.336v3.75747Zm6.455 4.42103c0-1.2817-.84-1.925-2.521-1.925h-3.934v3.9124h3.934c1.681 0 2.521-.6619 2.521-1.9874ZM11.9137 15.6716 25.6888 0H4.3263c-.14894 0-.29616.00757895-.44128.0223713C1.7082.244257.00293533 2.08916.00293533 4.32337V27.392c-.0061395.1704-.00108875.2918.00112995.3451.00021587.0052.00040493.0098.00055427.0136l.00673685.0994c.0033684.1044.008421.2089.0202105.3116l.0117895.1852.0168421-.0016C.381883 30.4118 2.17051 32 4.32799 32H28.2269L11.9137 15.6716ZM2.27325 27.872l-.0101-.2189v-.1887c.01179-.2829.08252-.9128.44631-1.3962.04716-.0589.39579-.453.79158-.896l6.91196-7.7996 12.3571 12.3672H4.3263c-.06694-.0001-.13315-.0034-.19848-.0098-.97993-.0953-1.76141-.8775-1.85457-1.858ZM2.26483 4.32337c0-1.13684.92463-2.06316 2.06147-2.06316h16.3638L9.54904 14.9389l-7.28421 8.219V4.32337Z"/>
</svg>