<svg xmlns="http://www.w3.org/2000/svg" viewBox="0 0 140 42.9">
	<path fill="#f9c623" d="M117.7 42.9l2.1-7.4c.3-1.1-.7-2.4-2.6-2.4H76.6c-.9 0-1.8.7-2 1.5l-2.3 8.3h45.4"/>
	<g fill="#1a1919">
		<path d="M139.4 9.6c-.4-.6-.9-1.1-1.6-1.4-.8-.8-1.9-1.1-3.3-1.1H15.3c-1.6 0-3.2.6-4.7 1.5-1.5 1-2.6 2.3-3.2 3.8l-6.8 16C0 30 0 31.5.8 32.7c.4.6.9 1.1 1.6 1.4.8.8 1.9 1.1 3.3 1.1h67.7l.2-.8.1-.3c.3-.9 1.2-1.6 2.1-1.6h42.8c.4 0 .8.1 1.2.2l.1.1c.2.3.3.5.4.8l.2.8h.9l.1.7h3.4c1.6 0 3.2-.6 4.7-1.5 1.5-1 2.6-2.3 3.2-3.8l6.7-16.1c.7-1.4.6-3-.1-4.1zM11.8 9.3c-1.5 1-2.6 2.3-3.2 3.8l-6.8 16c-.3.6-.4 1.3-.4 1.8-.1-.6.1-1.3.4-2.1l6.7-16.1c.8-1.9 2.8-3.6 4.9-4.3-.6.3-1.2.6-1.6.9z"/>
		<path d="M82 37.4c-.4-.3-1-.5-1.9-.5h-1.6V36h3.8v-1.8h-5.8v7.4h3.6c.8 0 1.4-.1 1.8-.4.4-.3.7-.6.8-.9.1-.2.1-.3.1-.5s.1-.3.1-.4V39c-.1-.2-.1-.3-.1-.4-.2-.5-.4-.8-.8-1.2zm-1.5 2.5c-.2.1-.5.2-.8.2h-1.2v-1.6h1.6c.1 0 .2 0 .3.1.1.1.3.1.4.3.1.1.1.3.1.5-.2.3-.3.5-.4.5zm35.9-5.7h-2.5l-2.2 2.7v-2.7h-2v7.5h2v-3.1l2.3 3.1h2.5l-3.1-4 3-3.5zm-27 0l-2.8 7.4h2.1l.4-1.3h2.3l.4 1.3h2.1l-2.8-7.4h-1.7zm.3 4.6l.7-2 .7 2h-1.4zm12.9-1.9h-2.3v-2.7h-2v7.5h2v-3.1h2.3v3.1h2v-7.5h-2v2.7z"/>
	</g>
	<path fill="#8ac14b" d="M132.9.3L99 5l-.5 1.7H131l1.9-6.4zm1.4 7.5H15.1c-2.8 0-5.9 2.1-6.9 4.6l-6.7 16C.4 31 1.8 33 4.5 33h66.9l.1-.3c.4-1.3 1.8-2.4 3.1-2.4h42.8c1.3 0 2.5.5 3.2 1.4.3.4.4.8.6 1.2h2.6c2.8 0 5.9-2.1 6.9-4.6l6.7-16.1c1-2.4-.4-4.4-3.1-4.4z"/>
	<path fill="#1a1919" d="M30.6 15.8l1.4-3.1c-1.6 0-2.9.1-3.7.3-.8.2-1.5.4-2 .8s-1.1 1.1-1.9 1.9c-1 1.2-1.7 1.9-2 2.2-.3.3-.7.4-1.1.4l2.4-5.5h-4.4L13 27.3h4.4l2.5-5.7c.4 0 .7.1.8.3.1.2.2.8.3 1.6l.1 3.7h5l-.2-3.9c-.1-1.1-.2-1.9-.4-2.4-.3-.5-.6-.9-1.2-1.1.6-.2 1.1-.4 1.4-.8.4-.3.9-.8 1.4-1.4s1-1.1 1.5-1.4 1.1-.4 2-.4zm15-1.2c-.8-1.3-2.3-1.9-4.7-1.9-2.3 0-4.4.6-6.3 1.9s-3.4 3.1-4.4 5.5c-.8 1.7-1.1 3.1-.9 4.2s.7 1.9 1.5 2.4 2.1.8 3.7.8 3.1-.3 4.4-.9 2.5-1.4 3.6-2.5 1.9-2.4 2.7-4.1c1-2.3 1.2-4.2.4-5.4zm-4.9 5.3c-.7 1.6-1.5 2.8-2.3 3.3-.8.6-1.7.9-2.6.9s-1.5-.3-1.8-.9c-.3-.6-.1-1.7.6-3.1.6-1.4 1.4-2.5 2.2-3.1.8-.6 1.7-.9 2.6-.9s1.6.3 1.8.9c.3.6.2 1.6-.5 2.9zm25-7l-4.9 10.8h-3l4.8-10.8h-4.5l-4.8 10.8h-2.9l4.8-10.8h-4.4l-6.4 14.4h19.3l6.4-14.4h-4.4zM72.5 24l1.3-2.8h6.9l1.3-2.9h-6.9l1-2.3h7.5l1.3-3.1H73l-6.3 14.4h12l1.5-3.3h-7.7zm15.9-11.2l-4.3 9.6c-.3.7-.6 1.2-1 1.4-.4.3-.9.4-1.4.4H81l-1.3 2.9c.6.1 1.1.2 1.6.2 1.6 0 2.8-.2 3.7-.6.9-.4 1.6-1 2.2-1.9s1.3-2.2 2.1-4l1.9-4.4h3.5l-4.8 10.8h4.4l6.4-14.4H88.4zm23 8.4l1.3-2.9h-6.9l1-2.3h7.4l1.4-3.1h-11.9l-6.4 14.4h12.2l1.4-3.3h-7.7l1.3-2.8h6.9zm17.9-7.3c-.4-.7-1.4-1-2.8-1h-8.3l-6.4 14.4h7.7c.3 0 1-.1 2.1-.2.8-.1 1.4-.3 1.9-.5.8-.4 1.4-.8 2.1-1.4s1.1-1.3 1.4-2c.4-.9.5-1.7.3-2.3-.2-.6-.8-1.1-1.7-1.3.8-.3 1.4-.6 2-.9.8-.6 1.4-1.3 1.8-2.2.4-1 .4-1.9-.1-2.6zm-6.6 8.8c-.2.4-.5.8-.9 1.1-.4.3-1.1.4-1.8.4h-2.3l1.3-2.9h2.3c.8 0 1.3.1 1.4.4.2.2.2.6 0 1zm1.9-5.5c-.2.4-.5.8-.9 1.1-.4.3-.9.4-1.6.4h-1.9l1.2-2.8h1.9c.7 0 1.1.1 1.3.4.2.1.2.4 0 .9z"/>
	<g fill="#fffffe">
		<path d="M138.1 8.5c-.8-1.1-2.2-1.8-3.8-1.8h-3l1.9-6.7L99 4.8h-.1l-.7 1.9H15.1c-1.6 0-3.2.6-4.7 1.5S7.8 10.5 7.2 12L.4 28c-.3.7-.4 1.4-.4 2.1 0 .8.2 1.6.6 2.2.8 1.1 2.2 1.8 3.8 1.8h67.7l.2-.8.1-.3c.3-.9 1.2-1.6 2.1-1.6h42.8c1 0 1.9.4 2.4 1.1.2.3.3.5.4.8l.2.8h3.4c1.6 0 3.2-.6 4.7-1.6s2.6-2.3 3.2-3.8l6.7-16.1c.6-1.3.5-2.9-.2-4.1zM99.2 5.2L132.6.4l-1.8 6H98.6l.6-1.2zm38.1 7.2l-6.7 16.1c-1.1 2.6-4.2 4.6-6.9 4.6h-2.6c-.1-.4-.3-.8-.6-1.2-.7-.9-1.9-1.4-3.2-1.4H74.5c-1.4 0-2.8 1.1-3.1 2.4l-.1.3H4.5c-2.8 0-4.1-2.1-3.1-4.6l6.7-16.1c1.1-2.6 4.2-4.6 6.9-4.6h119.2c2.8-.1 4.2 1.9 3.1 4.5z"/>
		<path d="M30.4 15.5l1.4-3.1c-1.6 0-2.9.1-3.7.3s-1.5.4-2 .8-1.1 1.1-1.9 1.9c-1 1.2-1.7 1.9-2 2.2-.3.3-.7.4-1.1.4l2.4-5.5h-4.4l-6.4 14.4h4.4l2.5-5.7c.4 0 .7.1.8.3.1.2.2.8.3 1.6l.1 3.7h5l-.2-3.9c-.1-1.1-.2-1.9-.4-2.4-.3-.5-.6-.9-1.2-1.1.6-.2 1.1-.4 1.4-.8.4-.3.9-.8 1.4-1.4s1-1.1 1.5-1.4 1.1-.4 1.9-.4h.2v.1zm15-1.3c-.8-1.3-2.3-1.9-4.7-1.9-2.3 0-4.4.6-6.3 1.9S31 17.3 30 19.7c-.8 1.7-1.1 3.1-.9 4.2s.7 1.9 1.5 2.4 2.1.8 3.7.8 3.1-.3 4.4-.9 2.5-1.4 3.6-2.5 1.9-2.4 2.7-4.1c1-2.3 1.1-4.1.4-5.4zm-4.8 5.4c-.7 1.6-1.5 2.8-2.3 3.3-.8.6-1.7.9-2.6.9s-1.5-.3-1.8-.9c-.3-.6-.1-1.7.6-3.1.6-1.4 1.4-2.5 2.2-3.1.8-.6 1.7-.9 2.6-.9s1.6.3 1.8.9c.2.5 0 1.5-.5 2.9zm24.9-7.1l-4.9 10.9h-3l4.8-10.9H58l-4.9 10.9h-3L55 12.5h-4.5l-6.4 14.4h19.4l6.4-14.4h-4.4zm6.8 11.2l1.3-2.9h6.9l1.3-2.9h-6.9l1-2.3h7.5l1.4-3.1h-12l-6.4 14.4h12.2l1.4-3.2h-7.7zm15.9-11.2L83.9 22c-.3.7-.6 1.2-1 1.4-.4.3-.9.4-1.4.4h-.7l-1.3 2.9c.6.1 1.1.2 1.6.2 1.6 0 2.8-.2 3.7-.6.9-.4 1.6-1 2.2-1.9s1.3-2.2 2.1-4L91 16h3.5l-4.8 10.9h4.4l6.4-14.4H88.2zm23 8.3l1.3-2.9h-6.9l1-2.3h7.4l1.4-3.1h-11.9l-6.4 14.4h12.1l1.5-3.2H103l1.3-2.9h6.9zm15.1-8.2H118L111.6 27h7.7c.3 0 1-.1 2.1-.2.8-.1 1.4-.3 1.9-.5.8-.4 1.4-.8 2.1-1.4.6-.6 1.1-1.3 1.4-2 .4-.9.5-1.7.3-2.3-.2-.6-.8-1.1-1.7-1.3.8-.3 1.4-.6 2-.9.8-.6 1.4-1.3 1.8-2.2.4-1.1.4-1.9-.1-2.6s-1.4-1-2.8-1zm-3.8 9.7c-.2.4-.5.8-.9 1.1-.4.3-1.1.4-1.8.4h-2.3l1.3-2.9h2.3c.8 0 1.3.1 1.4.4.2.3.2.6 0 1zm1.9-5.5c-.2.4-.5.8-.9 1.1-.4.3-.9.4-1.6.4H120l1.2-2.8h1.9c.7 0 1.1.1 1.3.4.2.1.2.5 0 .9z"/>
	</g>
</svg>