<svg xmlns="http://www.w3.org/2000/svg" viewBox="0 0 180 35.7">
	<path fill="#1a1a18" d="M120.7 14h-.4v4.1h.5l2.1-3.1v3h.5v-4h-.5l-2.2 3.2V14zm1.9-.9h-.4c-.1.1-.1.2-.3.3h-.6v-.3h-.3c0 .2.1.4.2.5.2.1.4.2.6.2.2 0 .4-.1.6-.2.1-.1.2-.3.2-.5zm-42.4 2.1c-.1.3-.1.6-.1.8 0 .3.1.7.2 1 .2.3.4.6.7.8.3.2.6.3 1 .3.3 0 .7-.1 1-.2.3-.2.5-.4.7-.7.2-.3.2-.7.2-1.1 0-.4-.1-.7-.2-1.1-.2-.3-.4-.6-.7-.7-.3-.2-.7-.3-1-.3-.3 0-.5 0-.8.1s-.5.2-.6.4c-.2.2-.3.5-.4.7zm.8 2c-.3-.3-.4-.7-.4-1.2 0-.2 0-.5.1-.7l.3-.6c.1-.1.3-.2.4-.3.2-.1.3-.1.5-.1.3 0 .5.1.7.2.2.1.4.3.5.6.1.3.2.6.2.9 0 .4-.1.9-.4 1.2-.1.1-.3.2-.4.3-.2.1-.3.1-.5.1s-.4 0-.5-.1c-.2 0-.4-.1-.5-.3zM77 14h.7v1.8h.5c.1-.3.2-.5.2-.8.1-.2.1-.4.3-.6l.3-.3h.7v.4H79.1c-.1.1-.2.3-.3.5l-.3.6-.3.4c.3 0 .5.3.7.7l.9 1.3h-.7l-.7-1.1c-.1-.2-.3-.4-.4-.6-.2-.1-.3-.1-.5 0v1.9H77V14zm98 7.3c.1.5.1.9 0 1.4l-4.3 6.8v-6.8c0-.5.1-1 .3-1.4.1-.1.3-.3.5-.3.2-.1.4-.1.6-.1h.4v-.3h-6.6v.3h.4c.6 0 1.2.1 1.2.3.2.4.3.9.2 1.4v8.1c.1.5-.1 1-.3 1.5-.2.1-.3.2-.5.3-.2.1-.4.1-.6 0h-.4v.5h6.6v-.3h-.4c-.6 0-1.2-.1-1.2-.4-.2-.4-.3-.9-.2-1.3l4.3-6.8v6.7c.1.5.1 1 0 1.5-.2.2-.4.3-.6.3-.2.1-.5.1-.7 0h-.4v.3h6.8v-.3h-1c-.2-.1-.4-.2-.5-.3-.2-.4-.3-1-.3-1.5v-8.1c-.1-.5 0-1 .3-1.4.2-.1.3-.2.5-.3.2-.1.4-.1.6 0h.4v-.3h-6.7v.3h.4c.6-.2 1-.1 1.2.2zm-5-2.4c.9.4 1.8.5 2.7.5h.1c.9.1 1.8-.1 2.7-.5.2-.1.5-.3.6-.5.2-.2.2-.5.2-.7 0-.1 0-.2-.1-.4 0-.1-.1-.2-.2-.3-.2-.1-.4-.2-.6-.2-.5 0-.9.3-1.2.9-.1.3-.3.6-.6.8-.3.1-.7.1-1 0-.3.1-.6.1-.9 0-.3-.2-.4-.4-.5-.7-.3-.6-.6-.9-1.2-.9-.2 0-.5.1-.6.2-.1.1-.2.2-.2.3 0 .1-.1.2-.1.3 0 .3.1.5.2.7s.5.4.7.5zm-33.6 1.4v4.3h-.3c-.2-1-.7-1.9-1.5-2.6-.7-.6-1.6-.9-2.5-.9-.8 0-1.5.2-2.1.7-.6.4-1.1 1.1-1.4 1.8-.4 1-.6 2-.6 3.1 0 1 .1 2 .4 3 .2.8.7 1.5 1.3 2.1.7.5 1.5.7 2.3.7.7 0 1.5-.2 2.1-.5.8-.5 1.5-1.1 2.1-1.8v1c-.6.7-1.3 1.2-2.2 1.6-.8.4-1.7.5-2.7.5-1.2 0-2.4-.3-3.5-.8-1-.5-1.8-1.3-2.4-2.3-.6-1-.9-2-.9-3.1 0-1.2.3-2.3.9-3.4.6-1 1.5-1.9 2.5-2.5 1-.6 2.2-.9 3.4-.9.9 0 1.9.2 2.7.6.3.2.7.3 1.1.3.2.1.3.1.5 0 .2-.2.3-.4.3-.7l.5-.2zm-106 .3h6.4v.3H35.9l-.6.3c-.2.4-.3.8-.3 1.2v3.7h1.5c.3-.1.5-.2.7-.5.3-.5.5-1 .6-1.6.2-.7.4-1.4.7-2.1.2-.4.5-.8.9-1.1.4-.3 1-.4 1.5-.4.3 0 .5 0 .7.1s.5.2.6.4c.2.2.3.3.4.6s.4.5.4.7c0 .2 0 .3-.1.5s-.1.3-.3.4c-.2.2-.6.3-.9.3-.7 0-1-.4-1.1-1.2v-.3c0-.2 0-.3-.1-.4h-.1-.2c-.1 0-.3.1-.4.1l-.3.3c-.3.5-.5 1.1-.6 1.7-.2.8-.4 1.3-.6 1.8-.1.4-.4.7-.7 1 .3.1.6.2.9.4l.6.6c.2.3.6.9 1.1 1.9l1.2 2.3c.2.3.4.5.7.7.3.2.6.3 1 .3v.4h-4l-2.5-4.8c-.2-.4-.4-.7-.6-1-.3-.1-.6-.1-.8 0v4c0 .6 0 1 .4 1.1.4.2.9.3 1.3.3v.4h-6.5v-.3c.5.1 1-.1 1.4-.3.2-.2.3-.6.3-1.3v-8.3c0-.5 0-1-.3-1.5-.2-.3-.6-.4-1.2-.4h-.3c.1 0 .1-.3.1-.3zm18.2 6.8v3.4c-.1.4-.1.8 0 1.3.1.2.3.3.4.4.4.1.8.1 1.2 0v.3h-6.1v-.2c.4.1.8.1 1.2 0 .2-.1.3-.2.4-.4.1-.4.1-.9 0-1.3v-8.2c.1-.4.1-.9 0-1.3-.1-.2-.2-.3-.4-.4-.4-.1-.8-.1-1.2 0v-.5h5.4c1.3-.1 2.6.2 3.7.9.4.3.7.6.9 1 .2.4.4.8.4 1.2 0 .4 0 .9-.2 1.3s-.4.8-.7 1.1c-.5.6-1.3 1-2.1 1.2-.9.2-1.9.3-2.9.2zm0-6.1v5.3h.4c.3 0 .6 0 .9-.1.3-.1.6-.2.8-.4.3-.3.5-.6.6-1s.2-.8.2-1.2c.1-.7-.1-1.5-.6-2-.2-.2-.5-.4-.8-.5s-.6-.2-1-.1h-.5zm11.5 5.1v-5l1.2.2c.6-.1 1.3-.1 1.9 0 .5.1 1 .4 1.3.9.4.6.7 1.2.7 1.9h.4v-3.7H55.3v.3h.3c.3 0 .7.1.9.3.2.1.3.3.3.5v9.1c.1.4.1.8 0 1.2 0 .1-.1.2-.1.3l-.2.2c-.3.1-.6.2-.9.2h-.4v.2H66l.6-3.9h-.2c-.2 1-.8 1.8-1.5 2.4-.9.4-1.9.7-2.9.6h-.7c-.2.1-.5.1-.7 0-.2-.1-.3-.2-.3-.4V27c.5 0 .9.1 1.3.2.4.2.6.6.8.9.3.5.4 1.1.4 1.7h.3v-6.5h-.3c-.1.8-.3 1.5-.7 2.2-.2.3-.5.5-.8.6-.3.1-.6.2-1 .2h-.2zm16.3 2.3l3.4-8.1h5v.3h-.4c-.3 0-.6.1-.9.2-.1 0-.2.1-.2.2s-.1.2-.1.3c-.1.4-.1.8 0 1.1v8.1c-.1.4-.1.8 0 1.2.1.2.2.3.4.4.3.1.5.2.8.2h.4v.4h-6.5v-.3h.4c.3 0 .6-.1.9-.2.1 0 .2-.1.2-.2.1-.1.1-.2.1-.3.1-.4.1-.8 0-1.2v-9.2l-4.7 11.2H75l-4.7-11.1V31.5c.1.3.3.6.5.7.4.2.8.3 1.2.3v.5h-4.2v-.3c.3.1.5.1.8 0 .2-.1.4-.2.5-.4.2-.2.3-.4.3-.7v-8.9c.1-.4.1-.8 0-1.2-.1-.2-.2-.3-.4-.4-.3-.1-.5-.2-.8-.2h-.4v-.3h5.1l3.5 8.1zm20.8-7.5c.4-.2.8-.3 1.3-.3l.1-.3h-10v.5c.4-.1.8-.1 1.3 0 .1 0 .2.1.3.2.1.1.1.2.2.3.1.4.1.9 0 1.3v2.5c0 1.2-.1 2.5-.2 3.7-.1.8-.4 1.5-.9 2.1-.4.5-1 .8-1.2.8H88c-.2 0-.2.1-.3-.6-.1-.9-.4-1.3-1.2-1.3-.2 0-.3 0-.5.1s-.3.2-.4.3c-.2.3-.3.6-.3.9v.7c.1.2.2.5.4.6.2.2.4.3.6.4.2.1.5.1.7.1.6 0 1.3-.2 1.8-.6.6-.4 1.1-1 1.3-1.6.3-.7.6-1.5.6-2.3v-7.5h3V31c.1.3.1.7 0 1-.1.2-.2.3-.4.4-.3.1-.7.1-1 0v.6h6.2v-.3c-.5.1-.9-.1-1.3-.3-.2-.4-.3-.9-.3-1.4v-8.6c0-.4.1-.8.3-1.2zm6.9.1v5h.2c.3 0 .7 0 1-.2.3-.1.6-.3.8-.6.4-.7.6-1.4.7-2.2h.3v6.5h-.3c0-.6-.2-1.2-.4-1.7-.2-.4-.5-.7-.8-.9-.4-.2-.9-.2-1.3-.2v4.8c.1.2.2.3.3.4.2.1.5.1.7 0h.7c1 0 2-.2 2.8-.8.8-.6 1.3-1.5 1.5-2.4h.4l-.6 3.9H99.4v-.2h.4c.3 0 .6-.1.9-.2.1 0 .2-.1.2-.2.1-.1.1-.2.1-.3.1-.4.1-.8 0-1.2v-8.1-1c-.1-.2-.2-.4-.3-.5-.3-.2-.6-.3-.9-.3h-.4v-.3h10.4v3.7h-.4c-.1-.7-.3-1.4-.7-1.9-.4-.4-.8-.7-1.3-.9-.6-.1-1.3-.1-1.9 0-.2 0-1.4-.2-1.4-.2zm18.2 6.1c-.8-.5-1.6-.8-2.5-1 .8-.1 1.6-.5 2.3-1.1.4-.4.7-1 .7-1.6 0-.6-.2-1.1-.5-1.6-.4-.5-.8-.9-1.4-1.1-1-.3-2-.4-3-.4H112v.5c.4-.1.8-.1 1.2 0 .2.1.3.2.4.4.1.4.1.8 0 1.3V31c.1.4.1.8 0 1.3-.1.2-.2.3-.4.4-.4.1-.8.1-1.2 0v.3h6.3c1.4.1 2.8-.3 4-1.1.4-.3.6-.6.8-1 .2-.4.3-.8.3-1.3 0-.4-.1-.8-.3-1.2-.2-.4-.5-.7-.8-1zm-5.8 3.9v-4.4c.7 0 1.4.1 2.1.3.5.2.9.5 1.1 1 .3.5.4 1 .4 1.5s-.1 1-.3 1.4c-.2.4-.5.7-.9.9-.4.2-.9.3-1.3.3h-.4c-.1 0-.3-.1-.3-.2-.1-.1-.2-.2-.2-.3-.2-.2-.2-.4-.2-.5zm1.9-5.4c-.6.2-1.3.3-1.9.3v-4.9c.7 0 1.3.1 1.9.3.4.1.7.4.9.8.2.4.3.9.3 1.3s-.1.9-.3 1.3c-.2.4-.5.7-.9.9zm25.9-5.3h-6.4v.3h.3c.6 0 1.2.1 1.2.4.2.5.3 1 .3 1.5V31c0 .7-.1 1.1-.3 1.3-.4.3-.9.4-1.4.3v.4h6.5v-.3c-.5.1-.9 0-1.3-.3-.4-.1-.4-.5-.4-1.1v-4c.3-.1.6-.1.8 0 .3.3.5.6.6 1l2.6 4.7h4.1v-.3c-.3 0-.7-.1-1-.3-.3-.2-.5-.4-.7-.7l-1.2-2.3c-.5-1-.9-1.6-1.1-1.9-.1-.2-.3-.4-.6-.6-.3-.2-.6-.4-.9-.4.3-.3.5-.6.7-1 .1-.4.3-1 .6-1.8.1-.6.4-1.2.6-1.7l.3-.3c.1-.1.3-.1.4-.1H148.3s.1.1.1.4V22.3c.1.8.4 1.2 1.1 1.2.2 0 .3 0 .5-.1s.3-.1.4-.3.2-.3.3-.4c.1-.2.1-.3.1-.5s0-.5-.1-.7c-.1-.2-.2-.4-.4-.6-.2-.2-.4-.3-.6-.4-.2-.1-.5-.1-.7-.1-.5 0-1 .1-1.5.4-.4.3-.7.6-.9 1.1-.3.7-.5 1.4-.7 2.1-.1.6-.3 1.1-.6 1.6-.1.2-.4.4-.6.5-.5.1-1.1.1-1.6 0v-3.6c0-.4.1-.9.3-1.3l.6-.3c.2-.1.4-.1.7 0v-.3zm16.2 2.1c0-.5 0-.9-.2-1.4 0-.2-.6-.3-1.2-.3h-.4v-.3h6.7v.3h-1c-.2.1-.4.2-.5.3-.2.4-.3.9-.3 1.4v8.1c-.1.5 0 1 .3 1.5.2.1.3.2.5.3.2.1.4.1.6 0h.4v.4h-6.7v-.3h1c.2-.1.4-.2.5-.3.2-.4.3-1 .3-1.5v-6.7l-4.2 6.8c0 .4 0 .9.2 1.3 0 .2.6.4 1.2.4h.4v.3h-6.8v-.3h.4c.6 0 1 0 1.1-.3.2-.4.4-1 .3-1.5v-8.1c0-.5 0-1-.2-1.4 0-.2-.6-.3-1.2-.3h-.4v-.3h6.7v.3h-.4c-.2 0-.4 0-.6.1-.2.1-.4.2-.5.3-.2.4-.3.9-.3 1.4v6.8l4.3-7zM84.6 18v-4h.7l.9 2.8.2.6c.1-.2.1-.4.2-.6l1-2.8h.7v4h-.5v-3.3L86.6 18h-.5l-.9-3.4V18h-.6zm4.6-4v4h.7v-3.4l1.2 3.4h.5l1.2-3.3V18h.4v-4h-.7l-1 2.8c-.1.2-.2.4-.2.6l-.3-.5-.9-2.9h-.9zm4.7 4v-4h2.9v.5h-2.4v1.2h2.2v.4h-2.2v1.4h2.5v.5h-3zm3.8-4v4h.4v-1.6h1c.2 0 .4 0 .6-.1l.6-.3c.1-.1.2-.2.3-.4s.1-.3.1-.5c.1-.2.1-.4 0-.5-.1-.2-.2-.3-.3-.4l-.6-.2h-2.1zm1.6 1.9h-1l.1-1.2h1.5c.1 0 .2.1.3.2v.7c0 .1-.1.2-.2.3-.3.1-.5.1-.7 0zm5 2.1h-.3v-1.6c-.4.2-.8.3-1.2.3-.2.1-.5.1-.7 0-.2-.1-.4-.3-.4-.5V14h.6v1.1c0 .4 0 .7.2.9.2.1.4.2.6.2.4 0 .7-.1 1.1-.3V14h.5l-.4 4zm.9-4v4h3v-.4h-2.5v-1.4h2.2v-.4h-2.2v-1.2h2.4V14h-2.9zm6.5 2.6h.6c-.1.4-.3.7-.6 1-.3.2-.7.3-1.1.3-.4 0-.7-.1-1-.3-.3-.2-.5-.4-.6-.7-.1-.3-.2-.7-.2-1.1 0-.3.1-.6.2-.9.1-.3.4-.6.7-.7.3-.2.6-.3 1-.3s.7.1 1 .3c.3.2.5.5.6.9h-.5c0-.2-.2-.4-.3-.6-.2-.2-.4-.2-.7-.2-.3 0-.6.1-.8.2-.2.2-.3.4-.4.6-.1.3-.1.5 0 .8v.9c.1.2.3.4.5.6.2.1.5.1.7 0 .1 0 .3 0 .4-.1.1 0 .2-.1.3-.2.1-.1.2-.3.2-.5zm1.8-2.6h-.5v4.1h.5v-1.9c.2-.1.3-.1.5 0 .2.2.4.4.5.6l.7 1.1h1l-.8-1.3c-.2-.4-.5-.7-.7-.7l.3-.2.3-.6c.1-.2.2-.4.3-.5h.4v-.4h-.7c-.1 0-.2.1-.3.1-.1.1-.2.2-.2.3l-.3.6c-.1.3-.2.5-.4.7h-.5l-.1-1.9zm2.7 0h.5v3.2l2.2-3.2h.5v4h-.5v-3l-2.1 3.1h-.5c-.1 0-.1-4.1-.1-4.1zm9.6 0h2.6v.5h-2.1v1.2h1.8c.1 0 .2.1.3.1.1.1.2.1.2.2.1.2.2.4.2.6v.6c-.1.2-.2.3-.4.4-.2 0-.4.1-.6 0h.3l.2-.2c0-.1.1-.2.1-.3v-.4c-.1-.1-.2-.2-.3-.2h-1.6v1.2h-.5l-.2-3.7zm2 3.8h-.4.4zm2.7-3.8l-1.5 4h.7l.4-1.2h1.5l.4 1.2h.6l-1.6-4h-.5zm1 2.4h-1.4l.4-1.2.2-.8.3.9.5 1.1zm1.6 1.6v-4h.7v1.6h2.1V14h.6v4h-.6v-1.9h-2.1V18h-.7zm4.5-4h-.4v4.1h.5v-1.9c.2-.1.3-.1.5 0 .2.2.3.4.4.6l.7 1.1h.7l-.9-1.3c-.2-.4-.5-.7-.7-.7l.3-.2.3-.6c.1-.2.2-.4.3-.5H139.9v-.4h-.7l-.3.3-.3.6c-.1.3-.3.6-.6.8h-.5l.1-1.9z"/>
	<path fill="#e52e0e" d="M27.2 12.3h-8.6L10.5 24l8 11.7h8.8L19.1 24l8.1-11.5.2-.2h-.2zM0 23.7h8.8l8.3-11.9L8.9 0H.1l8.2 11.7-1.1 1.6L0 23.7z"/>
</svg>