<svg xmlns="http://www.w3.org/2000/svg" viewBox="0 0 169.7 29.8">
	<path fill="#ffb400" d="M19.2 2.6V0l-1.6 1.4L16.3 0l-1.2 1.4L13.5 0v2.6c.9-.2 1.9-.3 2.9-.3.9 0 1.8.1 2.8.3zm-2.9 1.1l.6.7-.6.6-.6-.7c-.1 0 .6-.6.6-.6zM32 15.5l.1-.4h-1c-.4 0-.6.2-.7.6-.1.5-.2 1-.3 1.7s-.5.8-1.2.8c.3-4.6-2.3-8.9-6.4-11-.5-.2-.9-.4-1.4-.6v.1c.5.2 1 .5 1.4.8 3.8 2.4 5.6 6.6 4.9 10.7-.7 0-1.2 0-1.3-.8s-.2-1.3-.3-1.7c-.1-.4-.3-.6-.7-.6h-1l.1.4h.6v.2h-.6l.1.4h.6v.2h-.6l.1.4h.6c.1.6.2 1.2.3 1.5.1.5.3 1.3 1.8 1.4-.3.8-.6 1.6-1.1 2.4-2.9 4.6-9 5.9-13.6 2.9-1.9-1.2-3.2-3.2-3.8-5.3 1.4-.1 1.6-.8 1.8-1.4.1-.2.2-.9.3-1.5h.6l.1-.4h-.6v-.2h.6l.1-.4h-.6v-.2h.6l.1-.4h-1c-.4 0-.6.2-.7.6-.1.5-.2 1-.3 1.7-.1.7-.5.8-1.2.8-.2-2 .2-4 1.4-5.8 2.2-3.2 6.1-4.3 9.5-3.3l-2.8-2.9 2.8-2.9c-2.2-.5-4.4-.4-6.5.2-2 .6-3.8 1.7-5.1 3.3C4.8 9.9 3.9 15 5.1 19.1c1.1 4.1 4.5 7.6 8.7 8.6 1.9.5 4 .5 5.9 0v.1c-1.9.5-4 .6-6 .1-4.3-.9-7.9-4.3-9.1-8.6-1-3.4-.8-7.2.9-10.3l-.1-.1c-.8 1.2-1.5 2.6-1.8 4.1-.4 1.7-.5 3.4-.3 5.1-.7 0-1.2 0-1.3-.8-.1-.8-.2-1.3-.3-1.7-.1-.4-.3-.6-.7-.6H0l.1.4h.6v.2H.1l.1.4h.6v.2H.2l.1.4h.6c.1.6.2 1.2.3 1.5.1.5.3 1.4 1.9 1.4h.4v.1c1.2 4.8 4.9 8.7 10.1 9.9 6.8 1.6 13.6-2.6 15.3-9.4.1-.2.1-.4.1-.7h.2c1.6 0 1.8-.8 1.9-1.4.1-.2.2-.9.3-1.5h.6l.1-.4h-.6v-.2h.6l.1-.4h-.6v-.2c-.2.2.4.2.4.2z"/>
	<path fill="#000" d="M105 14.7c-.4 0-.9.1-.9.1V9.9h-1.9v13.4h2.5c2.3 0 3.8-1.9 3.8-4.5.1-2.6-1.1-4.1-3.5-4.1zm0 7h-.8v-5.2s.3-.1.7-.1c1.1 0 1.8.8 1.8 2.6 0 1.6-.7 2.7-1.7 2.7zM95 9.9s-.3 6-.5 8.3c-.2 2.1-.3 2.8-.5 3.1-.2.3-.4.4-.7.5-.4.1-.7 0-.7 0l.6 1.8h.1c.6 0 1.3-.2 1.6-.5.6-.5.9-1.2 1.1-2.1.1-.7.2-1.6.4-3.6 0-.5.4-5.8.4-5.8h1.5v11.8h1.9V9.9H95zm61.4 0s-.3 6-.5 8.3c-.2 2.1-.3 2.8-.5 3.1-.2.3-.4.4-.7.5-.4.1-.7 0-.7 0l.6 1.8h.1c.6 0 1.3-.2 1.6-.5.6-.5.9-1.2 1.1-2.1.1-.7.2-1.6.4-3.6 0-.5.4-5.8.4-5.8h1.5v11.8h1.9V9.9h-5.2zm-76.2 4.5l4-8h-2.1l-3.7 7.9v-8h-1.9v17h1.9v-8.5l4.1 8.5 2.1-.2-4.4-8.7zm36.6 7.2V9.7h-1.9v11.9h-2.7V9.7h-1.9v13.5h6.1v2.9h1.8v-4.5h-1.4zm18.6-15.3l-1.8 9.9c-.3-1.8-.5-3-.8-4.6-.1-.4-1.2-5.3-1.2-5.3h-2l3.2 12.7s-.1.4-.2 1.2c-.2.9-.4 1.6-1.9 1.6h-.4l.6 1.8h.6c.8 0 1.5-.2 1.9-.8.4-.4.7-1 1-2.2.2-1 3.1-14.4 3.1-14.4l-2.1.1zm6.4 3.3c-.6 0-1.4.4-1.9.9l-.1-.6H138s.4 2.5.4 2.9v15.1h1.9v-4.7c.2.2.7.5 1.4.5 3.3 0 3.5-4.7 3.5-7.5-.1-3.4-.6-6.6-3.4-6.6zm-.2 12.4c-.5 0-1.1-.2-1.3-.5v-9.7c.4-.3.8-.5 1.2-.5 1.1 0 1.7 1.1 1.7 4.9 0 4.6-.6 5.8-1.6 5.8zm11.3-.9V13c0-2.1-.7-3.4-2.8-3.4-.8 0-2.1.4-2.9.8.1.2.5 1.4.5 1.5.6-.2 1.5-.6 2-.6.9 0 1.3.8 1.3 1.9v1.7c-.4-.1-.8-.1-1.2-.1-1 0-1.9.4-2.5 1.2-.6.8-.9 2.1-.9 3.4 0 2.6 1 4.3 2.8 4.3.6 0 1.5-.4 1.9-1 0 .2.1.8.1.8h1.7c.2-.2 0-1.7 0-2.4zm-1.9.2c-.3.4-.7.6-1.1.6-.8 0-1.4-.6-1.4-2.8 0-1.7.5-2.8 1.6-2.8.4 0 .6 0 .9.1v4.9zm15.5.6c-.8 0-1.4-.6-1.4-2.8 0-1.7.5-2.8 1.6-2.8.4 0 .6 0 .9.1v4.9c-.2.4-.6.6-1.1.6zm3.1-.9v-8c0-2-.7-3.4-2.8-3.4-.8 0-2.1.4-2.9.8.1.2.5 1.4.5 1.5.6-.2 1.5-.6 2-.6.9 0 1.3.8 1.3 1.9v1.7c-.4-.1-.8-.1-1.2-.1-1 0-1.9.4-2.5 1.2-.6.8-.8 2.1-.8 3.4 0 2.6 1 4.3 2.8 4.3.6 0 1.5-.4 1.9-1 0 .2.1.8.1.8h1.7c.1-.2-.1-1.7-.1-2.5m-81-11.4c-2.2 0-3.5 1.5-3.5 7s1.3 7 3.4 7c2.2 0 3.6-1.9 3.6-7-.1-5.1-1.3-7-3.5-7zm0 12.4c-1.4 0-1.6-3.2-1.6-5.4s0-5.4 1.5-5.4c1.4 0 1.5 2.4 1.5 5.4s-.1 5.4-1.4 5.4zm34.3-12.4c-2.2 0-3.5 1.5-3.5 7s1.3 7 3.4 7c2.2 0 3.6-1.9 3.6-7-.1-5.1-1.3-7-3.5-7zm0 12.4c-1.4 0-1.6-3.2-1.6-5.4s0-5.4 1.5-5.4c1.4 0 1.5 2.4 1.5 5.4s-.1 5.4-1.4 5.4zm-69-.9V13c0-2.1-.7-3.4-2.8-3.4-.8 0-2.1.4-2.9.8.1.2.5 1.4.5 1.5.6-.2 1.5-.6 2-.6.9 0 1.3.8 1.3 1.9v1.7c-.4-.1-.8-.1-1.2-.1-1 0-1.9.4-2.5 1.2s-.8 2.1-.8 3.4c0 2.6 1 4.3 2.8 4.3.6 0 1.5-.4 1.9-1 0 .2.1.8.1.8H54c.1-.2-.1-1.7-.1-2.4zm-1.9.2c-.2.5-.7.7-1.1.7-.8 0-1.4-.6-1.4-2.8 0-1.7.5-2.8 1.6-2.8.4 0 .6 0 .9.1v4.8zm9.2-11.4h-.3v5.4H58V9.9h-1.9v13.4H58V17h2.9v6.4h1.9V9.9h-1.6zm7.3 6l3.4-6.1-2-.1-3 6.1v-6H65v13.5h1.9v-6.8l3.3 6.9 2.1-.1c0-.1-3.8-7.4-3.8-7.4zm-26.7-3.5c-.8 0-1.3.2-1.3.2V8.1h4.7V6.5h-6.6v16.9h3.2c2.1 0 4.3-1.5 4.3-5.6-.1-4.1-1.8-5.4-4.3-5.4zm-.4 9.3h-.9v-7.5s.4-.2 1.1-.2c1.6 0 2.4 1.2 2.4 3.6.1 2.4-.7 4.1-2.6 4.1z"/>
</svg>