<svg viewBox="0 0 157 27" xmlns="http://www.w3.org/2000/svg">
	<path fill="#0039A6" d="M47.8328 5.7421c.0311-.58279.1736-.99506.4263-1.24683.2488-.24876.624-.37515 1.1245-.37515h7.9374c1.0321 0 1.5497.54166 1.5497 1.62198v14.9108c0 .1775-.0311.2929-.0953.341-.0652.0472-.1875.0712-.3651.0712H56.353c-.1605 0-.2758-.024-.3511-.0712-.0712-.0481-.1093-.1635-.1093-.341V6.71007h-5.3474l-.1475 2.10747c-.1294 1.80556-.2588 3.42046-.3952 4.84086-.1364 1.4204-.3711 2.6541-.7082 3.7034-.334 1.0522-.8245 1.9148-1.4645 2.5889-.6409.6781-1.5297 1.1887-2.6571 1.5297-.1605.0311-.2929.0271-.3983-.014-.1023-.0412-.1875-.1495-.2517-.327l-.5106-1.4304c-.0311-.1465-.0371-.2658-.01-.3611.0241-.0993.1224-.1876.3029-.2658.6741-.2929 1.2057-.6641 1.5839-1.1175.3781-.4494.674-1.0562.8827-1.8125.2116-.7594.3681-1.7103.4734-2.8448.1054-1.1375.2217-2.5448.3511-4.22395l.2367-3.34125Zm25.1683 8.9083c0 2.1466-.4975 3.7947-1.4886 4.9502-.995 1.1516-2.4736 1.7304-4.4416 1.7304-1.952 0-3.4065-.5618-4.3704-1.6832-.961-1.1205-1.4374-2.7625-1.4374-4.9261 0-1.0633.1434-2.0102.4363-2.8307.2899-.8205.6951-1.5157 1.2097-2.08142.5176-.56573 1.1315-.99505 1.8527-1.29397.7152-.29691 1.5127-.44637 2.3843-.44637 1.9179 0 3.3764.5858 4.3704 1.75439.9901 1.16757 1.4846 2.77957 1.4846 4.82677Zm-2.8788.0713c0-.5828-.0412-1.1375-.1324-1.6561-.0883-.5216-.2418-.978-.4594-1.3762-.2177-.3983-.5146-.7082-.8958-.9369-.3782-.2287-.8586-.3411-1.4414-.3411-.5146 0-.968.1094-1.3562.327-.3852.2177-.7082.5146-.968.8888-.2588.3751-.4463.8175-.5687 1.3391-.1194.5176-.1806 1.0763-.1806 1.6761 0 1.3492.2177 2.4084.651 3.1748.4364.7733 1.2098 1.1585 2.3232 1.1585.5657 0 1.0422-.1153 1.4274-.3541.3881-.2317.6981-.5446.9338-.9368.2317-.3882.4023-.8386.5076-1.3492.1053-.5065.1595-1.0452.1595-1.6139Zm29.3882-.0713c0 2.1466-.4935 3.7947-1.4886 4.9502-.991 1.1516-2.4736 1.7304-4.4426 1.7304-1.952 0-3.4105-.5618-4.3704-1.6832-.957-1.1205-1.4374-2.7625-1.4374-4.9261 0-1.0633.1464-2.0102.4363-2.8307.2899-.8205.6951-1.5157 1.2097-2.08142.5146-.56573 1.1345-.99505 1.8527-1.29397.7192-.29691 1.5156-.44637 2.3843-.44637 1.9209 0 3.3764.5858 4.3704 1.75439.9921 1.16757 1.4856 2.77957 1.4856 4.82677Zm-2.8748.0713c0-.5828-.0482-1.1375-.1324-1.6561-.0923-.5216-.2458-.978-.4594-1.3762-.2177-.3983-.5216-.7082-.8958-.9369-.3782-.2287-.8586-.3411-1.4374-.3411-.5146 0-.971.1094-1.3562.327-.3852.2177-.7081.5146-.9679.8888-.2588.3751-.4534.8175-.5728 1.3391-.1194.5176-.1806 1.0763-.1806 1.6761 0 1.3492.2177 2.4084.651 3.1748.4394.7733 1.2098 1.1585 2.3232 1.1585.5657 0 1.0422-.1153 1.4304-.3541.3851-.2317.6951-.5446.9338-.9368.2317-.3882.4023-.8386.5046-1.3492.1053-.5065.1595-1.0452.1595-1.6139Zm7.0583 6.3434c-.517 0-.871-.1053-1.066-.3169-.194-.2077-.293-.5557-.293-1.0392V5.76617c0-1.09737.515-1.64505 1.55-1.64505h9.126c.177 0 .29.03711.338.10934.05.07121.071.1976.071.37515v1.64505c0 .16049-.02.27284-.071.33703-.048.0652-.161.0953-.338.0953h-7.699v3.74951h3.972c.919 0 1.7.0923 2.344.2799.647.1835 1.189.4323 1.635.7392.442.307.796.651 1.066 1.0292.266.3781.47.7703.607 1.1756.135.4022.225.7904.265 1.1616.038.3711.062.7021.062.991 0 .7563-.15 1.4615-.45 2.1055-.296.6439-.705 1.2027-1.219 1.6691-.515.4664-1.122.8275-1.816 1.0903-.692.2588-1.434.3852-2.225.3852h-5.859v.006Zm8.495-5.4377c0-.7703-.244-1.4133-.739-1.9379-.493-.5216-1.206-.7834-2.142-.7834h-3.997v5.4949h3.948c.58 0 1.057-.0923 1.428-.2799.372-.1836.667-.4123.897-.6881.227-.2729.381-.5728.472-.9028.09-.323.133-.6269.133-.9028Zm15.856 4.0545c0 .3882-.153.657-.46.7974-.357.1635-.74.3-1.152.4123-.412.1154-.837.2006-1.271.2658-.432.0652-.868.1124-1.297.1324-.425.0271-.834.0412-1.219.0412-1.067 0-1.949-.1124-2.651-.3271-.705-.2176-1.261-.5115-1.674-.8716-.412-.3641-.697-.7905-.858-1.284-.163-.4935-.245-1.0121-.245-1.5638 0-.5617.095-1.1074.28-1.632.183-.5246.489-.984.905-1.3792.42-.3952.968-.7152 1.636-.957.671-.2417 1.488-.3611 2.456-.3611h2.711v-.4122c0-.307-.031-.5898-.095-.8486-.065-.2558-.19-.4835-.378-.6781-.185-.1946-.439-.3411-.759-.4464s-.743-.1565-1.257-.1565c-.553 0-1.148.0482-1.793.1435-.647.0983-1.171.2116-1.574.341-.176.0472-.307.0582-.387.0241-.082-.0311-.137-.1194-.167-.2658l-.337-1.37624c-.066-.2588.007-.42631.214-.50756.677-.25579 1.42-.43935 2.228-.54467.808-.10232 1.567-.15648 2.276-.15648 1.679 0 2.909.37114 3.688 1.11442.788.74228 1.176 1.82263 1.176 3.24293v7.2563h.004v-.003Zm-2.859-4.572h-2.323c-.273 0-.572.017-.885.0481-.312.0341-.612.1224-.896.2658-.283.1435-.518.3541-.702.63-.185.2758-.279.654-.279 1.1374 0 .6952.234 1.1787.697 1.4515.47.2758 1.09.4123 1.864.4123.115 0 .269-.003.47-.0141.201-.01.415-.0271.644-.0612.225-.0341.462-.0712.712-.1223.248-.0472.48-.1124.691-.1906v-3.5569h.007Zm8.691 5.87c-.082.0541-.218.0852-.409.0852h-1.752c-.177 0-.307-.0341-.395-.0983-.085-.0652-.132-.1946-.132-.3851V8.81754c0-.17755.044-.29992.132-.36412.088-.0652.222-.0993.395-.0993h1.752c.19 0 .327.03109.409.08526.082.05416.119.18055.119.37515v4.30617h5.352V8.81754c0-.17755.045-.29992.133-.36412.084-.0652.218-.0993.399-.0993h1.764c.211 0 .348.03109.412.08526.065.05416.099.18055.099.37515V20.5776c0 .2117-.034.3441-.099.3983-.064.0541-.201.0852-.412.0852h-1.764c-.18 0-.315-.0341-.399-.0983-.092-.0652-.133-.1946-.133-.3852v-5.1538h-5.352v5.1538c-.001.2147-.038.3471-.119.4023Zm23.058-.3611-4.101-6.2924 3.696-5.4878c.068-.08225.082-.19459.041-.28989-.041-.09529-.14-.16049-.242-.16049h-2.512c-.077 0-.149.0341-.199.09529l-3.247 4.68739h-2.289V8.74331c0-.17755-.03-.28989-.096-.327-.064-.04113-.176-.06119-.34-.06119h-1.938c-.147 0-.252.02006-.328.06119-.071.03711-.109.14645-.109.327V20.6769c0 .1776.038.2829.109.327.073.0372.181.0612.328.0612h1.938c.164 0 .276-.02.34-.0612.066-.0411.096-.1494.096-.327v-5.3002h2.133l3.728 5.5901c.054.0612.125.1023.207.1023h2.581c.105 0 .201-.0611.246-.1564.04-.1003.027-.2127-.042-.2939Zm-69.8747 0-4.1056-6.2924 3.6923-5.4878c.0712-.08225.0883-.19459.0411-.28989-.0411-.09529-.1364-.16049-.2417-.16049h-2.5067c-.0783 0-.1535.0341-.2006.09529l-3.25 4.68739h-2.286V8.74331c0-.17755-.0341-.28989-.0993-.327-.0652-.04113-.1776-.06119-.3371-.06119h-1.9349c-.1465 0-.2558.02006-.327.06119-.0712.03711-.1093.14645-.1093.327V20.6769c0 .1776.0371.2829.1093.327.0712.0372.1805.0612.327.0612h1.9349c.1635 0 .2759-.02.3371-.0612.0652-.0411.0993-.1494.0993-.327v-5.3002h2.1325l3.7305 5.5901c.0511.0612.1264.1023.2076.1023h2.5819c.1024 0 .1977-.0611.2418-.1564.0371-.1003.0271-.2127-.0371-.2939ZM28.9889 20.8238 18.0764 1.92583c-.325-.55771-.7864-1.023143-1.3411-1.353156-.5547-.330013-1.1836-.5135764-1.8286-.5326349C15.0461 3.20977 14.043 4.21285 13.5415 9.22825l8.9073 15.48755c.4996.8616 1.3191 1.4926 2.28 1.7554.961.2628 1.9871.1364 2.8558-.3511.8546-.5467 1.4715-1.3973 1.7243-2.3793.2528-.983.1244-2.0252-.3601-2.917"/>
	<path fill="#00A1DE" d="M14.6659 0c-1.2759.0521601-2.4866.782402-3.1296 1.88579L.502463 20.8239c-.50053642.8727-.632943 1.9079-.370136 2.8789.26381.9709.901773 1.7965 1.774443 2.297.87268.5006 1.90786.633 2.87884.3702.97098-.2639 1.79652-.9018 2.29705-1.7745l7.66354-13.2808c.3009-4.59407-.0803-7.65446-.0803-11.3147Z"/>
	<path fill="#002C77" d="M16.6721.521601C16.1315.215662 15.5276.0371139 14.9067 0h-.2808c-.624.0180554-1.2318.197607-1.7655.521601-.4323.247761-.8115.577769-1.1154.971989-.3049.39421-.5286.84459-.659 1.32506-.1304.48048-.1645.98202-.1013 1.47654.0632.49351.2237.97098.4714 1.4023l3.2901 5.69751 3.2901-5.69751c.2558-.42831.4243-.90277.4945-1.39629.0703-.49351.0412-.99605-.0862-1.47853-.1274-.48249-.3491-.93387-.654-1.32908-.305-.39522-.6851-.726234-1.1185-.971989Z"/>
	<path fill="#EEAF30" d="M18.6774 22.7494c0 .7693-.2287 1.5226-.656 2.1626-.4273.64-1.0352 1.1385-1.7463 1.4334-.7112.2949-1.4936.3722-2.249.2217-.7553-.1505-1.4484-.5206-1.9931-1.0653-.5446-.5447-.9148-1.2378-1.0652-1.9931-.1505-.7553-.0733-1.5377.2216-2.2489.2949-.7112.7935-1.3191 1.4334-1.7464.64-.4273 1.3923-.656 2.1627-.656 1.0321 0 2.0222.4103 2.7524 1.1395.7303.7303 1.1395 1.7203 1.1395 2.7525Z"/>
</svg>