<svg viewBox="0 0 159 36" xmlns="http://www.w3.org/2000/svg">
	<path fill="#0039A6" d="M51.3679 10.522c.0299-.56903.1697-.97169.4159-1.21796.243-.24292.609-.36605 1.0982-.36605h7.7537c1.0084 0 1.5141.52912 1.5141 1.58401v14.5657c0 .1731-.0299.2862-.0931.3328-.0632.0465-.1831.0699-.3561.0699h-2.01c-.1564 0-.2695-.0234-.3427-.0699-.0699-.0466-.1066-.1597-.1066-.3328V11.4671h-5.2246l-.1431 2.0599c-.1264 1.7638-.2529 3.3411-.386 4.7288-.1331 1.3877-.3627 2.5923-.6922 3.6173-.3261 1.0283-.8053 1.8702-1.4308 2.5291-.6257.6623-1.4942 1.1614-2.5958 1.4942-.1564.03-.2862.0266-.3893-.0134-.0999-.0399-.183-.1463-.2462-.3194l-.4992-1.3977c-.03-.1431-.0366-.2595-.01-.3527.0233-.0965.1197-.183.2962-.2596.6589-.2862 1.178-.6489 1.5474-1.0915.3693-.4392.6589-1.0317.8619-1.7703.2063-.7421.3594-1.6707.4625-2.7788.1032-1.1115.2164-2.4858.3428-4.1264l.233-3.2646ZM75.9528 19.2247c0 2.0964-.4858 3.7071-1.4542 4.8353-.9717 1.1247-2.4159 1.6905-4.3394 1.6905-1.9069 0-3.3277-.5491-4.2695-1.644-.9384-1.0948-1.4043-2.6988-1.4043-4.812 0-1.0382.1397-1.9633.4259-2.7653.2829-.8021.6789-1.4809 1.1814-2.0333.5058-.5524 1.1048-.9717 1.8103-1.2645.6988-.2896 1.4775-.436 2.3294-.436 1.8735 0 3.2978.5724 4.2696 1.7138.9683 1.1415 1.4508 2.7154 1.4508 4.7155Zm-2.8119.0698c0-.569-.04-1.1114-.1298-1.6172-.0865-.5092-.2363-.9551-.4493-1.3444-.2129-.3895-.5024-.6922-.8752-.9152-.3693-.223-.8385-.3328-1.4076-.3328-.5025 0-.9451.1066-1.3245.3194-.376.213-.6922.5026-.9451.8686-.2528.3661-.4358.7986-.5557 1.3079-.1165.5057-.1763 1.0515-.1763 1.6373 0 1.3177.2129 2.3527.6356 3.1015.4259.7553 1.1813 1.1314 2.2695 1.1314.5524 0 1.0183-.1132 1.3943-.3461.3795-.2263.6822-.5325.9119-.9152.2262-.3794.3926-.8186.4958-1.3178.1032-.4959.1564-1.0216.1564-1.5774ZM101.85 19.2247c0 2.0964-.482 3.7071-1.454 4.8353-.9682 1.1247-2.4159 1.6905-4.3393 1.6905-1.9069 0-3.3312-.5491-4.2696-1.644-.9351-1.0948-1.4043-2.6988-1.4043-4.812 0-1.0382.1431-1.9633.426-2.7653.2829-.8021.6789-1.4809 1.1813-2.0333.5025-.5524 1.1082-.9717 1.8103-1.2645.7022-.2896 1.4809-.436 2.3295-.436 1.8769 0 3.2979.5724 4.2691 1.7138.969 1.1415 1.451 2.7154 1.451 4.7155Zm-2.8082.0698c0-.569-.0467-1.1114-.1299-1.6172-.0898-.5092-.2396-.9551-.4492-1.3444-.213-.3895-.5091-.6922-.8752-.9152-.3694-.223-.8386-.3328-1.4043-.3328-.5026 0-.9485.1066-1.3245.3194-.3761.213-.6922.5026-.9451.8686-.253.3661-.4426.7986-.5591 1.3079-.1164.5057-.1763 1.0515-.1763 1.6373 0 1.3177.2129 2.3527.6355 3.1015.4294.7553 1.1815 1.1314 2.2697 1.1314.5523 0 1.0182-.1132 1.3976-.3461.376-.2263.6789-.5325.9118-.9152.2263-.3794.3927-.8186.4925-1.3178.1031-.4959.1565-1.0216.1565-1.5774ZM105.937 25.4904c-.506 0-.852-.1031-1.041-.3095-.19-.203-.287-.5424-.287-1.015V10.5453c0-1.07154.503-1.60731 1.515-1.60731h8.914c.174 0 .283.0366.331.10649.049.06989.069.19301.069.36606v1.60726c0 .1565-.02.2662-.069.3295-.048.0632-.157.0932-.331.0932h-7.52v3.6639h3.881c.897 0 1.66.0898 2.288.2728.633.1798 1.163.4227 1.598.7222.432.2995.778.6356 1.041 1.005.261.3693.46.7521.593 1.1481.133.3926.219.772.259 1.1347.037.3627.06.6856.06.9685 0 .7386-.146 1.4275-.439 2.0565-.289.629-.689 1.1746-1.191 1.6306-.503.4559-1.095.8087-1.773 1.0649-.676.2529-1.402.376-2.174.376h-5.724v.0067Zm8.299-5.3112c0-.7521-.239-1.3809-.722-1.8935-.482-.5091-1.177-.7653-2.092-.7653h-3.904v5.3677h3.856c.567 0 1.032-.0899 1.395-.2729.363-.1797.652-.4027.876-.6722.222-.2662.372-.5591.462-.8819.086-.3161.129-.6123.129-.8819ZM129.724 24.1399c0 .3793-.15.6422-.45.7786-.349.1598-.722.2929-1.124.4027-.403.1131-.819.1963-1.242.2595-.422.0633-.848.1098-1.267.1298-.416.0267-.815.04-1.192.04-1.041 0-1.903-.1099-2.588-.3195-.689-.2129-1.232-.4992-1.635-.8519-.403-.3561-.681-.7721-.838-1.2546-.159-.4825-.24-.9884-.24-1.5275 0-.5491.094-1.0815.274-1.594.179-.5124.478-.9617.884-1.3477.409-.386.946-.6989 1.598-.9351.655-.2363 1.454-.3528 2.4-.3528h2.648v-.4026c0-.2995-.03-.5757-.093-.8287-.064-.2495-.186-.4724-.37-.6622-.18-.1897-.429-.3328-.741-.4359-.313-.1032-.726-.1531-1.228-.1531-.54 0-1.122.0466-1.752.1398-.632.0965-1.144.2063-1.537.3328-.172.0465-.299.0565-.378.0233-.081-.03-.134-.1166-.164-.2596l-.329-1.3444c-.064-.253.006-.416.209-.4959.662-.2495 1.387-.4293 2.176-.5324.789-.0999 1.531-.1531 2.223-.1531 1.641 0 2.842.3628 3.604 1.0882.769.7254 1.149 1.7803 1.149 3.168v7.0883h.003Zm-2.792-4.466h-2.27c-.266 0-.558.0167-.864.0466-.306.0333-.599.1198-.876.2595-.276.1398-.506.3462-.686.6157-.18.2696-.272.639-.272 1.1115 0 .6789.229 1.1515.682 1.4177.459.2695 1.065.4026 1.82.4026.113 0 .263-.0033.46-.0133.196-.01.406-.0267.628-.0599.22-.0333.452-.0699.696-.1199.243-.0465.469-.1097.675-.1863v-3.4742h.007ZM135.421 25.407c-.08.0532-.213.0832-.4.0832h-1.71c-.174 0-.3-.0333-.387-.0965-.083-.0632-.129-.1897-.129-.376V13.5269c0-.1731.043-.2929.129-.3561.087-.0632.217-.0966.387-.0966h1.71c.187 0 .32.03.4.0832.08.0533.116.1764.116.366v4.2064h5.228v-4.2029c0-.1731.043-.2929.13-.3561.082-.0632.213-.0966.39-.0966h1.722c.207 0 .341.03.403.0832.064.0533.097.1764.097.366v11.491c0 .2063-.033.3361-.097.3893-.062.0532-.196.0832-.403.0832h-1.722c-.177 0-.308-.0333-.39-.0965-.09-.0633-.13-.1897-.13-.376v-5.035h-5.228v5.035c0 .2096-.036.3394-.116.3926ZM157.946 25.0542l-4.006-6.1463 3.61-5.3611c.067-.0799.08-.1897.04-.2829-.04-.0931-.136-.1563-.235-.1563h-2.454c-.076 0-.146.0332-.195.0931l-3.173 4.579h-2.236v-4.326c0-.1731-.029-.2829-.093-.3196-.063-.0399-.172-.0599-.333-.0599h-1.892c-.144 0-.247.02-.321.0599-.069.0367-.106.1431-.106.3196v11.6571c0 .1731.037.2762.106.3195.07.0366.177.0599.321.0599h1.892c.161 0 .27-.02.333-.0599.064-.0399.093-.1464.093-.3195v-5.178h2.084l3.641 5.4609c.052.0599.123.0999.203.0999h2.521c.103 0 .197-.0599.241-.1531.039-.0966.026-.2064-.041-.2863ZM89.6872 25.0542l-4.0099-6.1463 3.6073-5.3611c.0699-.0799.0865-.1897.04-.2829-.04-.0931-.1331-.1563-.2364-.1563h-2.4491c-.0766 0-.1498.0332-.1964.0931l-3.1747 4.579h-2.2329v-4.326c0-.1731-.0332-.2829-.0966-.3196-.0632-.0399-.173-.0599-.3294-.0599h-1.8902c-.1431 0-.2495.02-.3194.0599-.0699.0367-.1065.1431-.1065.3196v11.6571c0 .1731.0366.2762.1065.3195.0699.0366.1763.0599.3194.0599h1.8902c.1598 0 .2695-.02.3294-.0599.0634-.0399.0966-.1464.0966-.3195v-5.178h2.0832l3.6439 5.4609c.0499.0599.1231.0999.203.0999h2.5224c.0999 0 .193-.0599.2363-.1531.0365-.0966.0266-.2064-.0367-.2863ZM28.6123 36H7.38768C3.31447 36 0 32.6855 0 28.6123V7.38768C0 3.31447 3.31447 0 7.38768 0H28.6123c4.0732 0 7.3843 3.31447 7.3843 7.38768V28.6123C36 32.6855 32.6855 36 28.6123 36ZM7.38768.522461C3.60066.522461.522461 3.60066.522461 7.38768V28.6123c0 3.7836 3.078199 6.8619 6.865219 6.8619H28.6123c3.7836 0 6.8619-3.0815 6.8619-6.8619V7.38768c0-3.78702-3.0783-6.865219-6.8619-6.865219H7.38768Z"/>
	<path fill="#00A1DE" d="M16.1437 5.24086c.549-.31947 1.1481-.4792 1.7437-.49916-1.248.0366-2.4459.69883-3.1148 1.86022L4.00389 25.2475c-1.02828 1.7837-.41598 4.0599 1.36439 5.0882 1.78036 1.0283 4.0599.4193 5.08482-1.3611l7.5474-13.0716-3.2179-5.574c-1.0283-1.78365-.4193-4.05985 1.3611-5.08814Z"/>
	<path fill="#0039A6" d="M31.9966 25.2485 21.2312 6.60632c-.6722-1.1614-1.8702-1.82362-3.1182-1.86023.5924.01664 1.1914.1797 1.7405.49917 1.7804 1.02828 2.3927 3.30449 1.361 5.08484l-3.2179 5.574 7.5474 13.0716c1.0282 1.7803 3.3045 2.3893 5.0848 1.361 1.7871-1.0282 2.396-3.3044 1.3678-5.0882Z"/>
	<path fill="#002C77" d="M19.857 5.24086c-.549-.31947-1.148-.4792-1.7404-.49916h-.2262c-.5957.01663-1.1915.17969-1.7438.49916-1.7804 1.02829-2.3894 3.30449-1.3611 5.08484l3.218 5.5741 3.2179-5.5741c1.025-1.78035.416-4.05655-1.3644-5.08484Z"/>
	<path fill="#EEAF30" d="M21.8333 27.1349c0 2.1198-1.7137 3.8303-3.8303 3.8303-2.1164 0-3.8336-1.7139-3.8336-3.8303 0-2.1132 1.7139-3.8302 3.8303-3.8302 2.1165 0 3.8336 1.717 3.8336 3.8302Z"/>
</svg>