<svg xmlns="http://www.w3.org/2000/svg" viewBox="0 0 156.5 26.6">
	<path fill="#0039a6" d="M48.5 5.8c0-.4.1-.9.4-1.2.2-.1.3-.3.5-.3.2-.1.4-.1.6-.1h7.8c.2 0 .4 0 .7.1.2.1.4.2.6.4.2.2.3.4.3.6s.1.4 0 .7v14.8c0 .2 0 .3-.1.3 0-.1-.2-.1-.3-.1h-2c-.1 0-.2 0-.3-.1-.1 0-.1-.2-.1-.3V6.8h-5.4l-.1 2.1c-.1 1.8-.3 3.4-.4 4.8-.1 1.3-.3 2.5-.7 3.7-.3 1-.8 1.8-1.5 2.6-.7.7-1.6 1.2-2.6 1.5h-.4c-.1 0-.2-.1-.2-.3l-.5-1.4v-.4c0-.1.1-.2.3-.3.6-.3 1.1-.6 1.6-1.1.4-.5.7-1.1.9-1.8.2-.9.4-1.9.5-2.8.1-1.1.2-2.5.3-4.2l.1-3.4zm24.9 8.9c.1 1.8-.4 3.5-1.5 4.9-1.2 1.1-2.7 1.7-4.3 1.7s-3.2-.6-4.4-1.6c-1-1.4-1.5-3.1-1.4-4.9 0-1 .1-1.9.4-2.8.3-.7.7-1.4 1.2-2 .5-.6 1.2-1 1.9-1.3.7-.3 1.5-.4 2.3-.4.8-.1 1.6.1 2.4.4.7.3 1.4.8 2 1.4 1 1.2 1.5 2.9 1.4 4.6zm-2.9.1c0-.5 0-1.1-.1-1.6s-.2-.9-.4-1.4c-.2-.4-.5-.8-.9-1-.4-.2-.9-.4-1.4-.3-.5 0-.9.1-1.4.3-.4.2-.7.5-1 .9-.3.3-.5.8-.6 1.3-.1.5-.2 1.1-.2 1.6-.1 1.1.2 2.2.6 3.1.2.4.6.7 1 .9s.9.3 1.3.3c.5 0 1-.1 1.4-.3.4-.2.7-.6.9-1 .3-.4.4-.9.5-1.4.3-.5.3-1 .3-1.4zm29.1-.1c.1 1.8-.4 3.5-1.5 4.9-.6.6-1.2 1.1-2 1.4-.8.3-1.6.4-2.4.4-.8.1-1.6-.1-2.3-.3-.7-.3-1.4-.7-2-1.3-1-1.4-1.5-3.1-1.4-4.9 0-1 .1-1.9.4-2.8.3-.7.7-1.4 1.2-2 .5-.6 1.2-1 1.9-1.3.7-.3 1.5-.4 2.3-.4.8-.1 1.6.1 2.4.4.7.3 1.4.8 2 1.4 1 1.1 1.5 2.8 1.4 4.5zm-2.8.1c0-.5 0-1.1-.1-1.6s-.2-.9-.5-1.4c-.2-.4-.5-.8-.9-1-.4-.2-.9-.4-1.4-.3-.5 0-.9.1-1.4.3-.4.2-.7.5-1 .9-.2.3-.4.8-.5 1.3-.1.5-.2 1.1-.2 1.6-.1 1.1.2 2.2.6 3.1.2.4.6.7 1 .9.4.2.9.3 1.3.3.5 0 1-.1 1.4-.3.4-.2.7-.6.9-1 .3-.4.4-.9.5-1.4.2-.5.3-1 .3-1.4-.1-.1 0 0 0 0zm7 6.2c-.2 0-.4 0-.5-.1-.2-.1-.3-.1-.5-.3-.2-.3-.3-.6-.3-1V5.9c0-1.1.5-1.6 1.5-1.6h9c.2 0 .3 0 .3.1.1.1.1.2.1.4v1.6c0 .1 0 .2-.1.3 0 .1-.2.1-.3.1h-7.6v3.7h4c.8 0 1.6.1 2.3.3.6.1 1.1.4 1.6.8.4.3.7.6 1 1 .3.3.5.7.6 1.2l.3 1.2c0 .4.1.7.1 1 0 .7-.1 1.4-.4 2.1-.3.6-.7 1.2-1.2 1.6-.5.5-1.1.8-1.8 1.1-.7.3-1.4.4-2.2.4l-5.9-.2zm8.4-5.4c0-.4-.1-.7-.2-1s-.3-.6-.6-.9c-.3-.3-.6-.5-1-.6-.4-.1-.8-.2-1.1-.1h-4v5.4h3.9c.5 0 1-.1 1.4-.3.3-.1.6-.4.9-.7.2-.3.4-.6.5-.9.1-.2.1-.5.2-.9zm15.6 4.1c0 .2 0 .3-.1.4l-.3.3c-.4.2-.8.3-1.2.4l-1.2.3c-.4.1-.9.1-1.3.1h-1.2c-.9 0-1.8-.1-2.6-.3-.6-.2-1.2-.5-1.6-.9-.4-.3-.7-.8-.8-1.3-.2-.5-.2-1-.2-1.6 0-.5.1-1.1.3-1.6.2-.5.5-1 .9-1.4.5-.4 1-.8 1.6-1 .8-.3 1.6-.4 2.4-.4h2.7v-.4c0-.3 0-.6-.1-.8-.1-.2-.2-.5-.4-.7-.2-.2-.5-.4-.8-.4-.4-.1-.8-.2-1.2-.2-.6 0-1.2 0-1.8.1-.6.1-1.2.2-1.6.3-.2 0-.3.1-.4 0s-.1-.1-.2-.3l-.3-1.4c-.1-.3 0-.4.2-.5.7-.3 1.4-.5 2.2-.5.7-.1 1.5-.2 2.2-.2.7 0 1.3 0 1.9.2.6.2 1.2.5 1.7 1 .4.4.7.9.9 1.5.2.6.3 1.1.2 1.7l.1 7.6zm-2.7-4.6h-3.2c-.3 0-.6.1-.9.3-.3.1-.5.3-.7.6-.2.3-.3.7-.3 1.1 0 .3 0 .6.2.8.1.3.3.5.6.6.6.3 1.2.4 1.8.4h.5c.2 0 .4 0 .6-.1l.7-.1c.2 0 .5-.1.7-.2v-3.4zm8.5 5.9c-.1 0-.1.1-.2.1h-1.9c-.1 0-.3 0-.4-.1-.1-.1-.1-.2-.1-.4V8.9c0-.2 0-.3.1-.4.1-.1.3-.1.4-.1h1.9c.1 0 .1.1.2.1 0 0 .1.1.1.2v4.5h5.3V8.9c0-.2 0-.3.1-.4.1-.1.3-.1.4-.1h2c.1 0 .1.1.2.1 0 0 .1.1.1.2V20.7c0 .1-.1.1-.1.2-.1.1-.1.1-.2.1h-2c-.1 0-.3 0-.4-.1-.1-.1-.1-.2-.1-.4v-5.2h-5.3v5.1c0 .2 0 .4-.1.6zm22.8-.4l-4-6.2L156 9v-.1-.1c0-.1 0-.1-.1-.1h-2.6c-.1 0-.1 0-.2.1l-3.2 4.6h-2.3V8.8c0-.2 0-.3-.1-.3-.1-.1-.2-.1-.3-.1h-1.9c-.1 0-.2 0-.3.1-.1 0-.1.1-.1.3v11.8c0 .2 0 .3.1.3.1.1.2.1.3.1h1.9c.1 0 .2 0 .3-.1.1 0 .1-.1.1-.3v-5.2h2.1l3.7 5.5c.1.1.1.1.2.1h2.7l.1-.1c.1-.1.1-.2 0-.3zm-69.1 0l-4.1-6.2L86.8 9l.1-.1c0-.1 0-.1-.1-.1 0-.1 0-.1-.1-.1h-2.6c-.1 0-.1 0-.2.1l-3.2 4.6h-2.3V8.8c0-.2 0-.3-.1-.3-.1-.1-.2-.1-.3-.1h-1.8c-.1 0-.2 0-.3.1-.1 0-.1.1-.1.3v11.8c0 .2 0 .3.1.3.1.1.2.1.3.1h1.9c.1 0 .2 0 .3-.1.1 0 .1-.1.1-.3v-5.2h2.1l3.7 5.5s0 .1.1.1H87.2l.1-.1v-.2c.1 0 0-.1 0-.1zM28.9 20.8L18 1.9c-.3-.6-.8-1-1.3-1.3-.6-.3-1.2-.5-1.8-.5.1 3.1-.9 4.1-1.4 9.1l8.9 15.4c.5.9 1.3 1.5 2.3 1.7 1 .3 2 .1 2.8-.3.9-.5 1.5-1.4 1.7-2.4.3-.9.1-2-.3-2.8"/>
	<path fill="#00a1de" d="M14.6 0c-1.3.1-2.5.8-3.1 1.9L.5 20.8c-.5.9-.6 1.9-.4 2.9.3 1 .9 1.8 1.8 2.3s1.9.6 2.9.4c1-.3 1.8-.9 2.3-1.8l7.6-13.2c.3-4.7-.1-7.8-.1-11.4z"/>
	<path fill="#002c77" d="M16.6.5c-.5-.3-1.1-.5-1.7-.5h-.3c-.6 0-1.2.2-1.8.5-.4.2-.8.6-1.1 1-.3.4-.5.8-.7 1.3s-.2 1-.1 1.5.2 1 .5 1.4l3.3 5.7L18 5.7c.3-.4.4-.9.5-1.4.1-.5 0-1-.1-1.5s-.3-.9-.7-1.3c-.3-.4-.6-.7-1.1-1z"/>
	<path fill="#eeaf30" d="M18.6 22.7c0 .8-.2 1.5-.7 2.2-.4.6-1 1.1-1.7 1.4-.7.3-1.5.4-2.2.2-.8-.1-1.4-.5-2-1.1-.5-.5-.9-1.2-1.1-2-.1-.8-.1-1.5.2-2.2.3-.7.8-1.3 1.4-1.7.6-.4 1.4-.7 2.2-.7 1 0 2 .4 2.7 1.1.8.8 1.2 1.8 1.2 2.8z"/>
</svg>