<svg xmlns="http://www.w3.org/2000/svg" viewBox="0 0 155 38">
	<path fill="#D8232A" d="m67.2802 35.6571-1.7963-3.1435h-3.5926l1.7963-3.1435-1.7963-3.1435-1.7963 3.1435 1.7963 3.1435h-3.5926l-1.7963 3.1345h3.5926l1.7963-3.1435 1.7963 3.1435 3.5926.009Z"/>
	<path fill="#000" d="M53.3771 28.8578c.2671-.0018.5308.057.7725.1702.1074.0333.2013.0999.2677.1903.0662.0903.1015.2.1004.3131-.0017.1061-.0434.2088-.1166.2868-.0344.0456-.0814.0798-.1346.0991-.0507.0088-.1024.0088-.1529 0-.0888-.0017-.1743-.0333-.2425-.0903-.0958-.0912-.1802-.193-.2515-.3052l-.0807-.1342c-.0443-.0658-.0989-.1228-.1618-.1711-.0752-.0543-.1678-.0798-.2603-.0719-.0715-.0035-.1423.0088-.2081.0351-.0386.0149-.0752.0351-.109.0596-.0914.0676-.1572.1641-.1859.2737-.0553.171-.0796.3508-.0719.5298v1.177h1.2215v.35h-1.2215v3.1347c-.0349.25.0193.5044.1528.7184.2377.1429.5131.2122.7903.1973v.1351h-2.6945v-.1351c.2469.022.4934-.0482.6916-.1973.136-.2132.193-.4675.1616-.7184v-3.1347h-.8442v-.35h.8442c-.005-.4578.0772-.9122.2425-1.3384.0682-.2105.1822-.4026.3327-.5622.0717-.0755.1515-.1439.2385-.2035.2697-.1851.5932-.2763.9197-.2579Zm-30.1867.5289c-.0173.0614-.0173.1272 0 .1886.0228.064.0597.1228.1077.171.0482.0474.1066.0842.1708.107.0647.0184.1329.0184.1976 0 .0647.0175.1328.0175.1975 0 .059-.0272.1136-.0631.1616-.107.0489-.05.0886-.1079.1169-.171.0051-.0369.0072-.0755.0061-.1123l-.003-.05-.0031-.0263c.0092-.0684.0092-.1377 0-.207-.0307-.0588-.0702-.1132-.1169-.1614-.0467-.0482-.1024-.0859-.1642-.1123-.0616-.0263-.1278-.0403-.1949-.0403-.0684.0009-.1358.0158-.1976.0447-.0649.022-.1235.0588-.1706.1079-.0824.1044-.121.2359-.1079.3684Zm1.015 5.3441V31.1295c-.0625.0079-.123.0263-.1798.0535-.4069.1623-.8113.3061-1.2123.4315l-.2156.0632v.1614l.3053-.0807h.0988c.0671-.0079.1349.007.1919.0429.0572.036.1004.0904.1226.1544.0147.0544.0261.1088.034.164.0136.0939.0173.1895.0107.2851v2.3348c0 .3868-.0447.6289-.1346.7096-.1987.1254-.4302.1877-.6646.1798v.1351h2.3979v-.1351c-.0708.0026-.1412-.0018-.2102-.014-.0373-.0071-.0742-.0158-.1103-.0263-.0307-.0088-.061-.0193-.0906-.0316l-.0471-.0202-.0439-.021-.0487-.0272-.0598-.0395c-.1226-.2175-.1728-.4693-.1437-.7184Zm11.5405.4833c.0489.0377.1094.057.1712.0553.0939-.0026.1846-.0342.2605-.0895.0384-.0237.0761-.0491.1132-.0745l.0736-.0544.0647-.0509v.2693c-.0958.1202-.2111.2236-.3414.3052-.162.1175-.357.1798-.5567.1798-.0939.0079-.1882-.007-.2743-.0447-.0864-.0377-.1619-.0965-.2197-.171-.1027-.1544-.1588-.3351-.1617-.5202l-.0877.0755-.087.0719-.061.0491-.0607.0456c-.0428.0325-.0862.0649-.1303.0956-.0719.0509-.1451.1-.2199.1474-.2513.1657-.5436.2587-.8444.2692-.2794-.0026-.5467-.1149-.7436-.314-.075-.0754-.1375-.1613-.1859-.2543-.0351-.0667-.063-.1368-.0829-.2096-.0252-.0913-.0384-.186-.0384-.2825.0068-.2438.0765-.4815.2024-.6911.034-.0562.0717-.1097.1127-.1605.1114-.1386.2482-.2544.4035-.343.5712-.3236 1.1729-.5911 1.7963-.799v-.4219c.0149-.2351-.0189-.4701-.0989-.692-.0719-.1167-.1765-.2114-.3009-.2702-.0574-.0272-.1182-.0465-.1802-.057-.0298-.0052-.0601-.0088-.0903-.0105h-.0726l-.0566.0053c-.1028.0008-.2046.0175-.3019.0482-.027.0079-.0535.0175-.0796.0281-.0353.0149-.0698.0315-.1033.05-.0667.0359-.1224.0894-.1618.1534-.0393.065-.061.1386-.0628.2149-.0043.0658-.0043.1316 0 .1974.0044.0596.0044.1201 0 .1798.0022.0245.0022.0491.0003.0737-.0042.05-.0169.0982-.038.1438-.0315.0675-.0804.1254-.1421.1684-.0782.0386-.164.0605-.2515.0632-.062.0122-.1263.0122-.1885 0-.0562-.0281-.1077-.0641-.1527-.1079-.0763-.0904-.1177-.2053-.1168-.3237.016-.1438.0618-.2824.1344-.4078.0728-.1254.1708-.2342.2879-.3193.3592-.2745.8063-.4087 1.2573-.3771.2522-.0307.5076.0122.7368.1219.1269.0605.2429.1412.344.2368.0811.0772.1526.1649.2125.2605.159.314.2364.6631.2245 1.0148v1.9761c-.0193.1316-.0193.264 0 .3956.0145.0596.0491.1131.0983.1508Zm-1.0363-.3622c.0519-.0825.0813-.1763.0848-.2737V33.024c-.3306.0974-.6477.236-.9431.4131-.096.043-.1855.0974-.2664.1632-.084.0675-.1587.1464-.2223.235-.1246.1737-.2009.3772-.2208.5903-.0097.1263.0122.2535.064.3693.0517.1166.1316.2175.2324.2947.1263.0886.277.1359.4311.1351.2221-.0009.4397-.0632.6287-.1798.0191-.0097.0373-.0211.055-.0325.0204-.014.0397-.0289.0581-.0456.038-.0333.0711-.0719.0985-.1149Zm-4.3789-5.4652c-.013.0623-.013.1263 0 .1886.0252.0631.0618.121.1076.1701.0513.0448.1088.0807.1708.1079.0645.0184.1329.0184.1976 0 .0298.0079.0603.0123.0908.0132.0359.0008.0719-.0035.1068-.0132.0603-.0254.1151-.0614.1616-.1079.0151-.014.0291-.028.0423-.0438l.018-.0228c.0232-.0316.0423-.0667.0566-.1035l.0078-.0553c.0038-.0447.0011-.0895-.0078-.1333.0067-.0342.01-.0693.0098-.1044l-.0028-.0579-.007-.0447c-.0277-.0614-.0674-.1158-.1169-.1614-.0382-.0412-.0829-.0745-.132-.1-.0404-.0202-.0838-.0351-.129-.0438-.0999-.0193-.2034-.0071-.2958.0359-.0638.0237-.1219.0605-.1708.1079-.0822.1044-.1208.2359-.1076.3684Zm-1.3922 5.6494c.0261.0649.0712.0982.1364.1158.0693.0184.1611.0184.2767.0184l-.0357-.0623h.2155v.1702l-.7186.2429-.7725.2877v-.6113c-.0701.0833-.1458.1614-.2263.2342-.0787.071-.162.1368-.2497.1973-.2511.1535-.541.2307-.8352.2245-.0825.0018-.1647-.0026-.2461-.0122-.105-.0132-.2085-.036-.3091-.0693l-.0952-.0342c-.0355-.0141-.0706-.029-.105-.0457-.2355-.1122-.4414-.2789-.6008-.4859-.3456-.4254-.53-.9595-.521-1.5086-.0066-.6525.2122-1.2867.6199-1.7963.0956-.1289.2069-.2447.3308-.3455.1053-.0851.2195-.1597.3412-.2211.1397-.071.2868-.1236.4381-.1579l.0827-.0175c.1099-.0202.2215-.0298.334-.0307.1269-.0009.2532.0149.3754.0474l.0736.0219c.0406.014.0803.0289.1193.0456.1794.0772.3408.1912.4734.3342v-1.5718c.0119-.1403-.0096-.2815-.0627-.4131-.0449-.1166-.1528-.1166-.3234-.1166h-.3055v-.1702l.4132-.0991.4403-.1254.3951-.1263.2605-.0895v5.7301c-.0046.0526-.0042.1052.0011.1579.005.0508.0147.1008.0287.1499.0132.0448.0303.0895.0509.1325Zm-1.1317.0535c.0344-.0281.0656-.0597.093-.0939.0388-.0473.0704-.1.094-.157l.0119-.0307.0105-.0315c.0116-.0386.0197-.0772.0241-.1176V32.539c.0158-.1658-.0068-.3333-.066-.4886-.0383-.1008-.091-.1947-.1565-.2798l-.0327-.0403c-.0268-.0307-.0555-.0614-.086-.0895-.1184-.0991-.2554-.1728-.4019-.2157-.0851-.0255-.1732-.0404-.2627-.0448-.0947-.0017-.189.0088-.2804.0307-.0976.0228-.1921.0597-.2803.1097l-.0491.0289-.0245.0158c-.0452.0307-.0877.0649-.1277.1017-.0331.0307-.0644.0632-.0936.0974-.043.0509-.0813.1061-.1144.164-.0459.079-.0871.1605-.1239.2439-.0586.1324-.1057.2683-.141.4078-.0263.1035-.0461.2096-.059.3166-.0156.1281-.0215.257-.0173.3877-.0092.4947.1181.9832.3681 1.4104.1048.1973.2634.3614.4572.4719.1938.1114.4153.1657.6385.157.2287.0035.4504-.0798.6197-.2342Zm-6.4217-1.8945-.6466-.3509c-.4581-.2333-.6826-.5026-.6826-.8078-.0042-.093.0112-.1859.0454-.2728.034-.0868.0857-.1649.1522-.2307.0706-.0692.155-.1236.2477-.1596.0928-.0351.1919-.0517.291-.0465.1803-.0061.3587.0369.5168.1237.1579.0868.2897.2149.3814.3701.0254.043.0493.0869.0717.1316l.0449.0965.0189.0447c.0201.0491.0383.0991.055.15l.0206.0658c.0246.0842.0441.1701.0584.257h.1526v-1.3744h-.1077l-.0719.0807c-.0441.0114-.0906.0114-.1347 0-.0649-.0123-.1291-.0272-.1925-.0457-.0533-.0157-.1059-.0333-.1579-.0526-.0587-.0193-.1181-.0359-.1784-.05l-.0343-.0079-.0993-.0175c-.0868-.0132-.1745-.0211-.2627-.0237-.3662-.0132-.7236.1158-.997.3596-.127.1114-.2283.25-.2965.4052-.0682.1553-.1019.3237-.0986.493-.0062.2868.0967.5666.2874.7815.2583.2692.5625.4911.8982.6552l.5567.314c.1697.0929.3169.2219.4311.378.0417.0587.0735.1237.0947.1921.0204.0649.0309.1333.0312.2026.0002.0982-.018.1956-.054.2877-.0322.0929-.0877.1763-.1616.242-.03.0272-.062.0527-.0956.0755-.0544.0359-.1134.0658-.1752.0877-.0265.0096-.0537.0175-.0811.0237-.0759.0184-.1539.0245-.232.0201h-.0954c-.0329-.0008-.0656-.0043-.098-.0087-.136-.0176-.2682-.0597-.3897-.1255-.1787-.0964-.328-.2394-.4317-.4139l-.0283-.0536-.0257-.0499-.0333-.0693c-.1063-.2298-.1798-.4745-.2182-.7254h-.1616v1.5902h.1347c.0188-.0369.0429-.0702.0719-.0991l.0221-.0027.0228.0027h.054c.1524.0184.3028.0517.4491.0991.2166.0596.4398.093.6646.0982.3912.0088.774-.1149 1.0867-.3499.1388-.1158.2495-.2623.3243-.4272.0746-.1649.1112-.3438.1068-.5254 0-.5113-.3502-.9516-1.0508-1.3375Zm-7.4636-2.0025v3.4672c-.0128.0544-.0189.1105-.0185.1658.0005.0535.0073.107.0202.1596.0081.0333.0187.0658.0316.0974.0112.0272.0239.0535.0384.0798.151.0991.3339.1377.512.1079v.0719l-.3952.1166-.4311.1351-.5569.2149v-.8438c-.0733.0921-.1511.1798-.2333.2632-.1173.1193-.2434.2289-.3774.3298-.1169.0868-.2451.1561-.3804.2052-.1649.0605-.3399.0921-.5177.0912-.1524-.0017-.302-.0307-.4417-.0851-.0923-.0359-.1802-.0824-.262-.1394-.0362-.0255-.0713-.0527-.1048-.0816-.0774-.071-.1449-.1509-.2011-.2386-.0199-.0315-.0386-.064-.0557-.0973-.0212-.0404-.0399-.0825-.0561-.1254-.0671-.1763-.0921-.3658-.0732-.5535v-2.5594c.0129-.0956.0041-.1929-.0255-.2842-.0294-.092-.0791-.1754-.1451-.2455-.1395-.079-.29782-.1193-.45811-.1167v-.1351H11.227v3.1795c.0101.1754.0559.3465.1347.5026.0225.0474.0504.0912.0831.1316.0524.064.1168.1184.1903.1587.0228.0132.0463.0246.0702.0342.0399.0167.0813.029.1234.0369.0647.0122.1314.0149.1976.007.2355-.0027.4646-.0772.6556-.2158.091-.0614.1754-.1307.2519-.2087.0411-.0421.0799-.086.1163-.1325v-2.6944c.0129-.0877.0068-.1772-.018-.2623l-.0116-.0359-.0171-.0421-.0139-.029-.0177-.0324c-.0189-.0325-.0408-.0632-.0654-.0921-.0611-.0342-.1254-.0632-.1914-.0851-.1285-.0439-.2644-.0632-.4013-.0588v-.1614h1.6078Zm3.377-.064c-.0936-.0009-.1866.0061-.278.0211-.1645.0271-.3237.0789-.4719.1552-.0233.0114-.0461.0237-.0686.0377l-.0498.029c-.0601.0377-.1182.0798-.1735.1254-.1543.1263-.2852.278-.3863.4491v-3.0173c.0044-.021.0044-.0421 0-.0631l-.4851.1614c-.3357.1122-.6775.2052-1.0238.2789v.1702h.2246c.0662-.0088.1335-.0036.1973.0166.0636.0202.1222.0544.1708.1.0647.1281.0928.271.081.4131v5.2188c0 .0675.0396.1368.1181.2061.0886.0789.2263.1579.4118.2342.3386.1412.7017.214 1.0688.2148l.0677.0018h.0421c.0198.0009.0393 0 .0588-.0009l.0651-.0035.0704-.0061c.1165-.0114.2318-.0316.3449-.0614.1119-.029.2215-.0667.3281-.1132.3078-.1333.5817-.335.8012-.5885.0388-.043.0761-.0877.1118-.1333.0424-.0544.0823-.1097.1198-.1658.0655-.0982.1241-.2008.1754-.307.0322-.0666.0616-.135.0881-.2043.1189-.3123.1774-.6465.1695-.9859.009-.1982-.007-.3947-.0465-.5859-.0265-.1289-.0633-.2544-.1107-.3763-.0243-.0631-.0513-.1245-.0809-.185-.0748-.1527-.1664-.2983-.2739-.4333-.1486-.1939-.3407-.3482-.5609-.4535-.2201-.1044-.4618-.1552-.7054-.1491Zm.5478 3.8627c-.1081.1676-.2594.3035-.4377.3939-.1785.0894-.3778.1307-.5771.1175-.1996 0-.3974-.036-.5838-.1079-.091-.0184-.1749-.0623-.2429-.1254-.0682-.0632-.1175-.1439-.1434-.2333v-2.4612c.0013-.0517.009-.1026.0224-.1517.0157-.057.0396-.1114.071-.1623.0583-.0947.1408-.1727.239-.2245.0564-.0386.1156-.0728.177-.1009.0596-.028.1214-.0508.1846-.0684.1011-.0289.2059-.0447.312-.0465.2092-.0087.4162.0456.594.1562.0559.035.1081.0745.1559.1184.1046.0965.1888.214.2469.3455.2073.4211.3121.8859.3055 1.356.0048.4202-.107.8342-.3234 1.1946Zm13.4994-3.7899v3.5294c-.032.2483.0151.4991.1346.7184.1002.0702.2116.1202.3285.15.0945.0237.1925.0342.2912.0298v.1351h-2.407v-.1351c.052.0018.1037 0 .155-.0053.0812-.0079.1612-.0245.2386-.0491.0947-.0298.186-.0719.271-.1254.1263-.2131.177-.4631.1437-.7096v-2.3348c.0057-.1509-.0095-.3017-.0448-.4491-.0103-.0281-.0245-.0544-.0421-.0781-.0144-.0184-.0309-.0359-.0493-.0508l-.0325-.0228c-.0568-.036-.1236-.0518-.1905-.0456h-.1079l-.3052.0807v-.1614l.2245-.0632c.4131-.1254.8172-.2692 1.2124-.4315.0568-.0272.1173-.0456.1798-.0535v.0719Zm-27.69002 4.068c-.06183.0017-.12235-.0176-.17147-.0553-.04912-.0377-.08376-.0912-.09801-.1508-.02084-.1307-.02084-.2649 0-.3956v-1.9761c.0057-.3526-.07763-.7017-.24252-1.0148-.06425-.1026-.14187-.1956-.23046-.2772-.0967-.0886-.20656-.1631-.32628-.2201-.22892-.1097-.48438-.1526-.73654-.1219-.45105-.0316-.898153.1026-1.257544.3771-.117092.0851-.215108.1939-.287688.3193-.015349.0263-.029602.0535-.042759.0815-.019954.0421-.036838.086-.050652.1307-.013156.043-.023682.0869-.031576.1307l-.009428.0649c-.001097.1184.040346.2333.116873.3237.025436.0245.052845.0473.082228.0666.022585.0149.046048.029.070387.0413.062274.0122.126302.0122.188576 0 .090122.014.182217.0079.269489-.0185.061397-.0421.110514-.1008.142094-.1684.03157-.0684.04451-.1429.03749-.2175.00439-.0596.00439-.1201 0-.1798l-.00482-.0473-.00132-.0264.00022-.0605.00592-.0631c.00176-.0755.02346-.15.06293-.214.03947-.065.09517-.1185.16161-.1544.14867-.0816.31554-.1246.48503-.1254.13639-.0185.27519.0026.39974.0614.04232.0201.08223.0447.11951.0728.07214.0535.13397.121.18134.1982.08003.221.11358.4561.09867.6911v.4219c-.29799.1-.59116.214-.87841.3403-.17455.0763-.3469.1588-.51683.2456-.13508.0684-.268835.1395-.401057.214-.10591.0597-.203268.1334-.289881.2176-.086833.085-.162921.1806-.226072.285-.125864.2096-.1955934.4473-.2023909.692-.0057012.1404.0195154.2816.0736759.4114.025875.0623.058108.121.096043.1763l.035522.0474.021489.0271c.026971.0325.056354.0632.087491.0921.025874.0272.053283.0527.082008.0764.029164.0236.059424.0464.090999.0675.050214.0324.103498.0605.158974.0842.032234.0131.065344.0254.098893.0351.096042.0289.196036.043.296676.0421.31927 0 .63151-.0939.89815-.2693.23024-.1412.44666-.3035.64664-.485.00307.185.05899.3657.16161.521.05789.0736.13354.1324.21971.1701.08639.0377.18046.0535.27431.0448.19998.0008.3947-.0623.55696-.179.13003-.0824.24537-.185.34119-.3061v-.2692c-.08003.0649-.16402.1254-.25151.1798-.09363.0491-.20129.0649-.30523.0447Zm-1.14614-.5517c-.01492.0482-.0364.0947-.06425.1368-.03552.0544-.0807.1018-.13288.1395-.02653.0193-.05482.0368-.08486.0509-.18551.1175-.4004.1798-.61967.1798-.15415.0008-.30479-.0465-.4311-.1351-.10086-.0772-.180897-.1781-.232646-.2947-.016226-.0369-.029602-.0746-.040127-.1132-.007894-.0289-.014034-.0587-.018419-.0886-.007894-.0552-.009648-.1113-.005263-.1675.025875-.207.104814-.4026.229145-.5701.08376-.1123.18616-.2087.30216-.2859.05635-.0369.11599-.0693.17827-.0965.07104-.0439.1434-.0851.21686-.1246.12455-.0666.2526-.1271.38351-.1806.0978-.0404.19713-.0763.29778-.1079l.04495 1.5182-.00439.0527c-.00394.0298-.0103.0587-.01907.0868Zm5.53799-1.8726.65564.35c.30873.164.54467.3376.71198.5209.07455.0816.13551.1649.18309.25.09758.1754.13946.3579.12894.5491.00416.1815-.03224.3605-.10679.5254-.07477.1649-.1855.3105-.32431.4271-.06512.0509-.13353.0965-.20458.1368-.04977.029-.10065.0553-.15261.079-.05351.0237-.10811.0447-.1638.0631-.19801.0667-.40785.0974-.61967.0895-.11008-.0026-.21972-.0123-.32848-.0281-.11336-.0166-.22563-.0403-.33614-.071-.07434-.0237-.14955-.0439-.22564-.0605-.07389-.0167-.14845-.0299-.22344-.0386h-.05394c-.01469-.0035-.03026-.0035-.04495 0-.0318.0272-.05635.0605-.07192.0991h-.13464v-1.5902h.24252c.04342.3166.14713.6219.30545.8982.10372.1754.25282.3183.43153.4148.17893.0965.38044.1421.58327.1333l.03202.0018h.02697c.02872-.0009.05745-.0026.08595-.0061.05723-.0071.11359-.0202.16797-.0395.10043-.0351.19252-.0904.2708-.1623.0739-.0658.12959-.1491.16183-.2429.03574-.0913.05416-.1886.05372-.2877-.00044-.1412-.04429-.2789-.12565-.3947-.05745-.0781-.12301-.15-.19537-.2132-.07214-.0631-.1513-.1184-.23572-.164l-.55696-.3148c-.33702-.1614-.64159-.3833-.89815-.6552-.08222-.093-.14801-.1974-.19581-.3097-.06315-.1473-.09494-.3078-.09144-.4718-.00197-.0974.00834-.1948.0307-.2904.01623-.0692.03903-.1368.06798-.2026.06819-.1543.16928-.2929.29646-.4052.27256-.2456.63041-.3745.99704-.3596.09516.0026.18989.0123.28352.0281l.11775.0237c.05833.0131.11622.0289.17345.0473.11314.0447.23046.0781.35018.0991.02171.0053.04407.0079.06622.0079.0125.0009.025 0 .0375-.0017l.03113-.0062.07171-.0807h.10788v1.3736H9.2781c-.04736-.2614-.13858-.514-.26948-.7456-.09166-.1552-.22345-.2824-.38154-.3692-.15788-.0877-.33637-.1298-.51661-.1246-.09933-.0061-.19889.0097-.29164.0456-.04517.0167-.08837.0386-.12893.0649-.04276.0281-.08245.0597-.11841.0965l-.041.043-.03926.0518c-.01447.021-.02784.0429-.0399.0657-.01206.0228-.02281.0456-.03202.0693-.03398.0869-.04955.1798-.04539.2728 0 .086.01776.1693.05351.2491.03793.0851.09582.1675.17388.2465.1092.1105.25809.2149.44622.3131Zm31.57007-1.5902c-.1092-.1017-.2546-.157-.4041-.1526-.0369.0009-.0735.0035-.1097.0088-.0609.0079-.1206.0228-.1782.0429-.1195.0421-.2298.1106-.3228.2-.068.0579-.1335.1184-.1965.1807-.0508.0509-.1.1026-.1475.1561-.0963.1088-.1853.2246-.2669.3456v-.8078c.0044-.036.0044-.0719 0-.1079-.1636.0807-.3315.1526-.503.2158l-.4041.1429-.5748.207v.1702c.0972-.0237.1965-.0386.2965-.0447.0702-.0062.1408.0105.2009.0473.06.0377.1061.0939.1313.1597.0748.2219.1052.4569.0899.6911v2.2366c.0068.0474.0083.0947.0048.1421l-.0028.0316c-.004.0324-.0108.0649-.0198.0973-.0247.0886-.0675.1702-.126.2412-.081.0457-.1663.0816-.2544.1079-.1151.0351-.2351.0527-.3563.0535v.1614h2.4429v-.1614c-.1337.0158-.2684.0044-.396-.0315-.0943-.0272-.1848-.0676-.2686-.1211-.0743-.078-.1307-.1719-.1647-.2745-.0342-.1026-.0454-.2114-.0329-.3184v-2.2541c.0051-.2176.0954-.4237.2515-.5754.1706-.1886.3143-.2781.4311-.2781.1154.0211.2202.0816.2965.1711l.0441.0412.0296.0228.0432.0289c.0535.0316.1118.0535.173.0658.0287.0062.0579.0097.0872.0114l.0217.0044.0222.0035.0164.0009h.0358l.0248-.0009.0407-.0079c.0551-.021.1042-.0552.1439-.0982.0278-.0368.0511-.0763.0693-.1184l.0186-.0491c.0103-.0316.018-.0641.0228-.0965.0055-.0369.0073-.0737.0055-.1105-.0028-.0588-.0147-.1176-.0355-.1737-.038-.0851-.1004-.157-.1796-.207Zm3.6645.0991h-.1528v-.0991h1.3202v.1351c-.1155.0096-.2238.0605-.3052.1429-.0434.0544-.0813.1123-.1136.1728-.0259.0483-.0478.0991-.066.1509l-1.545 4.1224c-.0357.1026-.0741.2043-.1149.3052-.0642.1587-.1346.3149-.2112.4675-.0603.121-.1245.2403-.1925.357-.0822.1421-.1699.2806-.2627.4157-.1026.143-.2372.2605-.3931.343-.1559.0824-.3287.128-.505.1324-.1825.0009-.362-.0447-.521-.1342-.0774-.0439-.1412-.1079-.184-.1859-.0112-.0202-.0208-.0413-.0289-.0632-.0077-.0202-.0138-.0403-.0187-.0614-.0094-.0421-.0131-.0859-.0109-.1298-.0029-.0614.0087-.1228.0337-.1789.025-.0562.0625-.1053.1101-.1448.05-.0438.1081-.078.1715-.0999.0631-.0211.13-.0299.1967-.0255.1298.0097.2572.0395.3771.0895.0985.057.2044.0991.3145.1263.1796 0 .3681-.2245.5747-.6736.1462-.2816.2465-.585.2964-.8982.0136-.0745.0136-.1508 0-.2245l-1.5537-3.3593c-.0367-.086-.0794-.1702-.1281-.25-.05-.0824-.1063-.1605-.1684-.235-.1041-.0877-.2326-.1404-.3682-.1526v-.1351h2.1018v.1351c-.1224-.015-.246-.015-.3684 0-.0627.0087-.1199.0394-.1614.0877-.0412.0482-.0636.1096-.0631.1728-.0044.0473-.0044.0956 0 .1438.018.0447.0449.1254.0899.2245l1.1406 2.4699.9879-2.4523c.0033-.0377.0046-.0763.0037-.114l-.0037-.0658c.0046-.0386.0066-.0772.0055-.1158-.0007-.0237-.0025-.0482-.0055-.0728.0087-.0211.0144-.043.0166-.0649.0022-.0228.0009-.0465-.0039-.0693-.0097-.0447-.0329-.086-.0664-.1167-.07-.0377-.1461-.0622-.2246-.0719Zm6.7806.1597c-.1359-.0939-.2824-.172-.4368-.2325-.278-.1096-.5755-.1614-.8742-.1517-.0765-.0018-.1528 0-.2287.0061-.05.0035-.0998.0097-.1491.0167-.171.0263-.3388.0728-.4993.1394-.1305.0553-.2548.1228-.371.2018-.1309.0894-.2515.1929-.3596.3096-.4136.457-.6355 1.0551-.6199 1.6709-.0263.6402.1995 1.2656.6289 1.7419.1999.2263.4486.4052.7273.521.2826.1254.5892.1868.8982.1798.0754.0017.1506 0 .2254-.0062.2285-.0192.4523-.078.6622-.1727.0443-.0202.0879-.0421.1304-.0658l.0972-.0553c.1857-.1149.3521-.2587.4925-.4271.4126-.4719.6337-1.0806.6196-1.7069.0165-.314-.0318-.6288-.1414-.9235-.1096-.2948-.2785-.564-.4962-.7921-.0941-.0938-.1965-.1789-.3055-.2534Zm-.2692 3.6127c-.0816.1544-.2046.2842-.3553.3728-.1508.0886-.3232.1342-.4979.1307-.2366-.0044-.4669-.0781-.6616-.2123-.1267-.0877-.235-.1982-.3195-.3245-.0453-.0684-.0839-.1412-.1146-.2184-.1277-.2412-.2255-.4964-.2919-.7596-.0726-.2877-.1077-.585-.1035-.8841-.0296-.278-.002-.5596.0816-.8271.0833-.2666.2208-.514.4034-.7262.1838-.1684.4243-.2623.6737-.2605.2396.0008.4736.0736.6709.2105.1972.1359.3485.3289.4338.5525.2488.5.378 1.0499.3773 1.6078.0182.4648-.0839.9253-.2964 1.3384ZM94.4495 11.8645l5.5235 6.9966h3.853l-5.9458-7.2027 5.5508-6.68262h-3.8172l-5.1643 6.57472V0h-3.1438v18.8611h3.1438v-6.9966ZM133.6 19.1041c1.619.0316 3.209-.4359 4.553-1.3385l.288 1.078h2.694V4.97578h-3.143V15.5825c-.479.2386-.981.4202-1.497.5438-.59.1412-1.198.207-1.809.193-2.011 0-2.586-.6824-2.586-2.1735V4.97578h-3.216V15.0624c0 2.5682 1.258 4.0417 4.716 4.0417Zm-14.451-6.6651h-3.243l.009 6.4221h-3.197V1.05076h6.619c4.158 0 6.673.98762 6.673 5.60466 0 3.40398-1.464 4.74158-3.664 5.31698l4.634 6.8887h-3.664l-4.167-6.4221Zm-.028-8.45171h-3.215v5.60466h3.215c2.569 0 3.674-.43066 3.674-2.78391 0-2.35326-1.078-2.82075-3.674-2.82075Zm28.337 8.61401 2.515.7359c1.338.3596 1.913.6288 1.913 1.6436s-.629 1.4192-2.695 1.4192c-1.717-.0211-3.418-.321-5.038-.8894v2.9286c1.588.486 3.242.7254 4.904.7096 4.212 0 5.811-.9972 5.811-4.1408 0-2.5865-1.231-3.4312-3.692-4.1311l-2.407-.6833c-.584-.1666-.995-.30607-1.27-.49289-.142-.09648-.247-.20524-.321-.33768-.099-.17455-.142-.38944-.142-.66923 0-.89815.53-1.26653 2.649-1.26653.325.00088.65.01228.974.03508.861.05965 1.714.19647 2.55.40961.325.08245.648.17717.967.2833V5.26347c-1.469-.36575-2.977-.54994-4.491-.54819-3.88 0-5.712.89815-5.712 3.8259 0 2.56902 1.203 3.37682 3.485 4.06012ZM57.6881 5.55028c0 2.4164-.8622 3.48471-2.5326 3.98817 1.8769.43942 3.0086 1.57175 3.0086 4.42755 0 3.8707-2.0655 4.8951-6.2331 4.8951h-7.3827V1.05953h7.0953c4.0326 0 6.0445.9613 6.0445 4.49075Zm-6.5923-1.71561h-3.3591v4.6074h3.9069c2.0657 0 2.8293-.54731 2.8293-2.43395 0-1.67964-.7366-2.17345-3.3771-2.17345Zm.4221 12.31363c2.5059 0 3.404-.4219 3.404-2.4875l-.009-.0447c0-1.9945-.7545-2.5962-3.0895-2.5962h-4.0777v5.1284h3.7722Zm-17.0111-.6912c-1.4558.4412-2.9694.6622-4.4907.6552-3.7363 0-5.0205-1.2841-5.0205-6.16074 0-4.87755 1.2932-6.11689 5.0295-6.11689 1.5213-.00614 3.0349.21489 4.4907.65607V1.39196c-1.5843-.39119-3.2093-.592923-4.8409-.601694-5.3889 0-7.9128 2.245374-7.9128 9.161294 0 7.10454 2.5956 9.17004 7.9128 9.17004 1.6316-.0087 3.2566-.2105 4.8409-.6017l-.009-3.0628Zm37.7942 3.404h-2.434l-.3951-1.0595c-1.2148.9446-2.7295 1.42-4.2662 1.3384-3.431 0-4.7872-1.4016-4.7872-4.4907 0-3.297 1.8053-4.1048 5.0207-4.1048 1.2597-.0027 2.5129.1824 3.7183.5482V9.49371c0-1.51825-1.0958-2.06556-3.3501-2.06556-1.3828-.01755-2.7611.15787-4.0956.52099V5.2547c1.4684-.36575 2.9777-.5403 4.4907-.521 3.6645 0 6.0985.84377 6.0985 4.49074v9.63666Zm-6.0985-2.3085c1.0054.0158 2.0066-.1324 2.9639-.4394v-2.8567c-.9597-.1798-1.9335-.2763-2.9099-.2868-1.9939 0-2.6226.4394-2.6226 1.6699 0 1.4736.6017 1.913 2.5686 1.913Zm12.6011-8.35261c.485-.21927.99-.38767 1.5064-.50257.612-.13595 1.24-.19647 1.8706-.17981 2.0478 0 2.6945.68238 2.6945 2.17345v9.17004h3.1435V8.77449c-.0719-2.56902-1.1766-4.04167-4.6614-4.04167-1.6708-.04385-3.3123.44381-4.6883 1.39196v-1.149H75.66V18.8611h3.1436V8.19999ZM9.34965 13.9845 3.19746 5.08366V18.8611H0V1.05076h3.97874l5.37091 7.93073 5.29025-7.93073h4.0326V18.8611h-3.1974V5.08366L9.34965 13.9845ZM78.5606 28.8758c.0651-.0141.1324-.0141.1976 0 .0252.0017.0502.0061.0747.0122.0213.0044.0419.0114.0623.0193l.0316.0123.0199.0097c.0627.0254.1182.0649.1619.1166.0489.0465.0877.1018.114.164.0114.0263.0204.0544.0267.0825.0084.0368.0123.0745.0119.1131l.0041.0369.0027.0579-.0013.0473-.0055.0553c-.0283.0605-.068.1158-.1169.1614l-.0232.0254c-.0117.0123-.0242.0228-.0371.0333-.0171.0132-.0353.0255-.0544.036-.0151.0088-.0309.0158-.0469.0219-.0651.0132-.1324.0132-.1976 0-.0651.014-.1324.014-.1975 0-.0945-.0289-.1768-.0894-.2336-.1701-.0322-.0325-.0596-.0693-.082-.1088l-.0259-.0526c-.0067-.0334-.01-.0676-.0098-.1009l.0022-.0474.0076-.05c-.0013-.0657.0106-.1324.0354-.1938.0247-.0623.0616-.1184.1085-.1649.0469-.0517.1055-.0921.1706-.1166Zm3.3141 6.4756c.1072.0009.2127-.0272.3055-.0807.1089-.1132.2023-.2403.2784-.378l.1347.1078-.1077.1439c-.0322.0482-.0673.0947-.105.1386-.0421.0491-.0875.0947-.1355.1377-.0926.0824-.1959.1526-.3075.2087-.1675.0939-.3561.143-.5479.1439-.075.0052-.1498 0-.2224-.0158-.0914-.0202-.1791-.0562-.2585-.1079-.1425-.0921-.2513-.2289-.3094-.3886-.0627-.1938-.0989-.3955-.1074-.5999-.0027-.0605-.0029-.121-.0005-.1816v-2.9812h-.5387c-.0106-.0263-.0106-.0553 0-.0807l.1436-.1263c.1734-.1395.3357-.293.485-.4579.0989-.0894.3324-.3955.7006-.8981h.045v1.2937h.9608v.35H81.282v2.7935c.0029.2184.0454.4342.1257.6377.0133.0509.0355.0991.0649.1421.0291.043.0655.0807.1081.1114.085.0622.1888.0929.294.0877Zm8.1463-.6824v-3.4759h-1.5538v.171c.1002-.0044.2002.0053.2967.0289.1002.0237.1969.0623.287.1141.0469.0359.082.0868.1066.1534.0318.086.046.1991.046.3412v2.6945c-.0305.0359-.0625.071-.0956.1052l-.0743.0711c-.0623.0561-.1285.1079-.1982.1552-.1891.143-.4189.2219-.6557.2246-.1372.0131-.2749-.0167-.3953-.0842-.1202-.0667-.2173-.1693-.2783-.293-.0627-.1693-.0932-.3491-.0899-.5298v-3.1522h-1.4998v.135c.1611 0 .3195.043.458.1255.0652.071.1141.1543.1434.2464l.0156.057.0029.0132.009.0544.0041.0526c.0013.0351 0 .071-.0044.1061v2.5603c-.0204.1859.004.3745.0713.549.0671.1755.1752.3316.3149.4561.2245.1947.5111.3035.8084.3061.3235 0 .6384-.1043.8982-.2964.0482-.0351.0954-.0719.1414-.1097l.0557-.0473.0566-.05.0699-.0658c.1029-.1.1989-.207.2871-.3201v.799c-.0042.0175-.0042.036 0 .0544l.5569-.207.4221-.1439.3952-.1079v-.0894h-.0943l-.1088-.0026c-.0254-.0009-.0493-.0036-.0719-.0062l-.0305-.0035c-.0899-.014-.155-.043-.1975-.1044-.0474-.0701-.0807-.15-.0976-.2324-.0169-.0833-.0173-.1693-.0011-.2526Zm4.0894-3.3751c.2132.1061.3996.2588.5452.4473.3767.4456.578 1.014.5657 1.5981.0127.6613-.2245 1.3034-.6648 1.7963-.0654.0728-.1356.1403-.2097.2035-.0723.0614-.1486.1175-.228.1693-.0535.0351-.1088.0684-.1654.0991l-.0736.0377c-.0452.0219-.0912.043-.1382.0623-.3105.1272-.646.1833-.9814.1649-.3697.0009-.7364-.0728-1.0776-.2158-.3504-.1438-.521-.2868-.521-.4306v-5.2276c.0046-.0578.0025-.1157-.0061-.1727-.0121-.0799-.0373-.1588-.0748-.2316-.0427-.093-.1311-.1114-.2605-.1158l-.1076-.0009h-.2246v-.1613l.1899-.0448.1316-.0333.1362-.036c.1903-.0526.3791-.1105.5661-.1736l.4853-.1526V31.9561c.1434-.2517.3508-.4613.6021-.606.1096-.0641.2259-.1141.3465-.1509l.0973-.0263.1035-.0211c.0917-.0149.1846-.0228.2785-.0219.0851.0009.1693.0088.2526.0228.0469.0079.0934.0184.1395.0307.1008.0272.1991.064.2933.1105Zm-.5797 4.1005c.0833-.0421.1605-.0948.2302-.1562.0781-.0693.1465-.1482.2031-.2368.2245-.364.3394-.785.3324-1.213.0057-.4666-.0991-.928-.3057-1.3472-.082-.1939-.2219-.3579-.3999-.4702-.1781-.1122-.3864-.1675-.5969-.1587-.2412.0026-.4758.078-.6736.2158-.0996.0535-.1829.1324-.2412.2289-.0583.0965-.0899.2061-.0912.3192v2.4612c.0197.0912.0658.1754.1329.2412.0302.0289.064.0544.0999.0745.0198.0114.0399.0211.061.029.0267.0105.0548.0175.0833.0228.1917.064.3912.1.5929.1079.0628.0043.125.0026.1873-.0035l.0491-.0071c.1167-.0184.2303-.0543.3364-.1078Zm-8.71-2.1902-.6467-.3499c-.1164-.0614-.2179-.1246-.3043-.1904-.0759-.057-.1404-.1157-.1932-.1754-.1239-.1403-.1851-.2877-.1851-.4429-.0013-.0921.0171-.1842.054-.2693.0337-.0859.0824-.1649.1436-.2333.0362-.0377.0763-.071.1197-.1l.041-.0254.0401-.0211.0498-.021c.0945-.0368.1958-.0535.2974-.0483.1813-.007.3613.0369.5196.1255.1586.0886.2895.2192.3785.3771.0638.1149.1178.2351.1609.3579.0443.1254.0777.2552.0996.3877h.1526v-1.3832h-.1166c-.0141.0351-.0395.0631-.072.0815-.0414.0088-.0844.0088-.1258 0l-.3592-.0719c-.1877-.0649-.385-.0991-.5837-.0991-.3618-.0123-.7151.1123-.9881.35-.0576.05-.11.1061-.1565.1666-.0566.0728-.1042.1535-.1417.2386-.0684.1552-.1015.3236-.0969.4929-.0094.2868.0901.5658.2785.7815.2548.2737.5596.4965.8981.6561l.5478.3228c.1732.0868.3241.2131.4401.3683.0381.0597.0682.1237.0892.1904.0219.0684.0344.1403.0366.214.0003.0982-.0179.1956-.0539.2877-.0368.0912-.0919.1736-.1616.2421-.1605.142-.3699.2157-.5839.2069-.204.0088-.4066-.0385-.5855-.1368-.1789-.0982-.3276-.2429-.4293-.4201-.1579-.2772-.2616-.5824-.3055-.8982h-.1616v1.6437h.1346c.0057-.0254.0169-.05.0325-.0701.0112-.015.0243-.0272.0395-.0378h.0539c.091.0141.1816.0316.2712.0535.0566.0141.113.029.1689.0457.2157.0631.4394.0964.6646.0982.2184.0123.4353-.0184.6385-.0886.0625-.0219.1237-.0474.1831-.0763.0369-.0184.0733-.0377.1088-.0579l.0715-.0439c.0478-.0315.094-.0649.1388-.1017.1414-.114.2545-.2596.3309-.4245.0763-.1649.1138-.3456.1092-.5271.001-.0334.0008-.0667-.0007-.0992l-.0068-.078-.009-.0605c-.0103-.0579-.025-.1149-.0443-.1702-.037-.107-.091-.2096-.1614-.3079-.1732-.242-.4469-.4604-.8198-.6587Zm-5.5595-1.9936V34.74c-.0211.2465.0388.4921.1706.7008.1769.129.3918.1956.6106.1886v.0904h-5.1643v-.1886c.2708.0096.5379-.0658.7635-.2158.1314-.2508.1844-.5359.1526-.8174v-4.4908l-2.5955 5.7573h-.1978l-2.5506-5.524v4.0329c-.0476.3763.0384.7578.2425 1.078.2074.1465.4554.2254.7096.2245v.1886h-2.3443v-.1886c.293.007.578-.0956.7993-.2877.1548-.314.2173-.6666.1798-1.0148v-4.1048c.0348-.2491-.0263-.5026-.1708-.7096-.2353-.1491-.5125-.2184-.7903-.1973v-.1886h1.9849l2.3352 5.0389 2.2634-5.0389h2.0118v.2158c-.2589-.0149-.515.0579-.7275.2061-.1353.207-.1928.4552-.1616.7008v4.4907c-.0316.2483.0256.5.1616.7096.2133.1307.4591.1991.7096.1974.2179-.0018.4315-.0606.6196-.1702.1206-.2158.1678-.4649.1347-.7096v-2.3173c.0252-.1456.0252-.2947 0-.4403-.0202-.0631-.0617-.1175-.1174-.1535-.032-.021-.0675-.035-.1046-.0412-.0274-.0052-.0554-.0061-.0833-.0026h-.1079c-.0618.0105-.123.0237-.1833.0412-.0247.007-.0493.014-.0736.0228l-.0483.0167v-.1614l.1886-.0632c.4041-.1254.8082-.2692 1.2124-.4218l.1708-.0632c.0024.0149.0035.0307.003.0465l-.003.0342Zm27.3128-1.4639c.049.05.107.0895.171.1167.127.0473.267.0473.395 0 .12-.0605.218-.1579.278-.2781.014-.0658.014-.1324 0-.1982l.007-.0482.002-.0342c.002-.0386-.001-.0772-.009-.1149-.06-.1202-.158-.2176-.278-.2781-.021-.0079-.041-.014-.063-.0193-.024-.0061-.048-.0105-.073-.0131l-.036-.0035h-.03c-.039 0-.078.0043-.117.0131l-.041.0105-.035.0123c-.064.0272-.122.0667-.171.1167-.047.0465-.084.1026-.109.1649-.024.0614-.036.128-.035.1938-.013.0658-.013.1324 0 .1982.036.0632.085.1184.144.1614Zm.871 1.4639V34.74c-.024.2456.033.4912.162.7008.18.1307.398.1965.619.1886v.1439h-2.469v-.1351c.233.0035.464-.0588.664-.1789.144-.0904.144-.3237.144-.7096v-2.3445c.02-.1456.02-.2938 0-.4403-.022-.0632-.066-.1175-.123-.1535-.057-.036-.125-.0517-.192-.0438h-.107c-.101.0184-.2.0456-.297.0806v-.1613l.207-.072c.413-.1254.817-.2692 1.213-.4218l.179-.0632v.0807ZM96.6672 34.74v-3.5294c.0026-.0158.0035-.0325.0031-.0491l-.0031-.0316-.1706.0632c-.2333.0982-.6284.2333-1.2126.4218l-.2153.072v.1613c.0991-.0359.2013-.0631.3052-.0806h.1079c.0316-.0027.0631-.0009.0934.0061.0197.0044.0395.0105.0579.0184l.0395.0211.0333.0245c.0149.0132.0289.0272.0412.0421.0206.0255.0373.0544.0491.0851.0193.1465.0193.2947 0 .4403v2.3445c.0329.2447-.0144.4938-.1346.7096-.2009.1201-.4311.1824-.6648.1789v.1351h2.4519v-.1439c-.0715.0026-.1421-.0026-.2118-.0158l-.072-.0158-.046-.0122c-.0605-.0185-.1193-.043-.1754-.0737l-.054-.0307-.0263-.0167-.0342-.0237c-.1285-.2096-.1855-.4552-.1618-.7008Zm2.3625-1.8857.6464.3508c.7009.3772 1.0509.8262 1.0149 1.3736.002.0675-.002.135-.012.2017-.008.0588-.021.1175-.038.1745l-.021.0632c-.01.0298-.022.0587-.035.0868-.074.1649-.186.3105-.325.4263-.3221.2587-.7282.3894-1.1409.3684-.225-.0009-.4486-.0342-.6644-.0991l-.0355-.0106-.0851-.0219-.0881-.0219-.0382-.0079c-.064-.0141-.1285-.0263-.1934-.0369h-.0627c-.0136.0132-.0259.0281-.0368.0439-.0141.0193-.0259.0412-.0351.064h-.1347V34.148h.1619c.0258.1763.0701.3491.1324.5149.0496.1324.1101.2605.1816.3832.1013.1755.2486.3202.4258.4184.0776.043.1596.0763.2443.1.1087.0298.2219.043.3359.0386.1061.0053.2123-.0096.3127-.0456.1-.0351.1921-.0903.271-.1614.0702-.0684.125-.1517.1618-.2421.0405-.0903.0585-.1885.0535-.2877 0-.1447-.0438-.285-.1254-.4043-.0579-.0798-.1245-.1517-.1991-.2149-.071-.0596-.1487-.1114-.232-.1535l-.5569-.3228c-.3377-.1605-.6421-.3832-.8982-.656-.2035-.2412-.3057-.5508-.2855-.8657.0092-.1456.0443-.2868.1022-.4175.0675-.1518.1662-.2903.2912-.4052.1333-.1132.2846-.2009.446-.2605.1745-.0641.3614-.0948.5508-.0895l.0807.0026.0434.0027c.075.0052.1496.0157.2232.0307.0772.0157.1531.0368.2277.0622l.3589.0991c.042.0088.084.0088.126 0 .03-.0201.055-.0482.072-.0806h.117v1.3831h-.153c-.04-.264-.132-.5175-.2692-.7455-.0886-.1588-.2193-.2903-.378-.3789-.1584-.0895-.3386-.1324-.5202-.1246l-.0425-.0008c-.0285.0008-.057.0026-.0846.0061-.0382.0053-.0759.0132-.1123.0237-.064.0193-.1254.0474-.1824.0842-.1259.0807-.2233.1982-.279.3359-.0048.0298-.0079.0597-.0096.0895l-.0009.057c.0004.0412.004.0824.0105.1237 0 .2964.2246.5657.6829.8078Zm6.0083 1.8866v-2.012c.003-.15-.008-.3-.032-.4474-.026-.1535-.066-.3043-.121-.4508-.086-.2131-.238-.3929-.434-.514-.195-.121-.423-.1763-.653-.1596-.321.007-.635.1105-.898.2965-.203.1508-.387.3254-.547.5209v-3.0987l-.485.1526-.44.1254-.539.1623v.1798h.152c.064-.0088.13-.0018.191.0201.061.0211.115.0579.16.1053.026.0631.045.1289.058.1965.012.071.017.1438.014.2166v4.7328c.028.2395-.019.4816-.135.6921l-.041.0315-.024.0158-.039.0246-.042.0237-.067.0315c-.1.0421-.208.0658-.317.0702v.1351h2.191v-.1623c-.201-.0105-.394-.0789-.557-.1973-.109-.2132-.153-.4535-.125-.6912v-2.4252c0-.0631.116-.1798.359-.3596.087-.0745.185-.135.289-.1807.14-.0622.292-.0956.447-.0973.119-.0149.239.0053.345.0579.018.0087.035.0184.051.0289l.039.0255c.068.0491.125.1122.167.1841.07.1421.118.2939.143.4491.017.1062.024.214.019.3228v1.9945c.032.2351-.012.4736-.126.6824-.044.036-.091.0684-.14.0956-.054.0298-.111.0544-.17.0719-.045.0132-.092.0237-.139.0298l-.041.0053-.067.0035v.1351h2.147v-.1351c-.184-.007-.359-.0807-.494-.2061-.032-.0702-.057-.143-.075-.2166-.019-.079-.031-.1597-.034-.2412-.003-.0746 0-.15.01-.2246Zm8.928.7271c.505.0027 1.003-.1236 1.446-.3684.192-.1052.375-.2245.549-.3561.108-.0824.213-.1701.313-.2631l.188.1886c-.233.2938-.516.5464-.835.7455-.146.0912-.299.1719-.456.2412-.307.1342-.63.2246-.961.2702-.29.0394-.587.0438-.882.0105-.804-.0895-1.554-.4473-2.129-1.0166-.256-.2797-.462-.5973-.611-.9385-.201-.4578-.301-.9586-.287-1.4682-.032-.9113.29-1.7998.898-2.4787.327-.3482.725-.6219 1.166-.8034.137-.0561.277-.1026.419-.1404.317-.0833.646-.1201.975-.107.383.0018.764.0562 1.132.1614.212.0667.428.1202.647.1614.094 0 .187-.0245.269-.0719.087-.0605.151-.1491.18-.2509h.206l.117 2.2454h-.233c-.105-.3964-.286-.7683-.531-1.0964-.196-.2534-.45-.456-.74-.592-.291-.136-.61-.2009-.93-.1886-.337-.007-.67.0667-.972.2132-.303.1464-.567.3631-.77.6306-.483.6692-.721 1.484-.674 2.3085-.041.7841.212 1.556.709 2.1647.221.2579.498.464.808.6017.311.1386.649.2061.989.1973Zm6.493-3.6917c-.211-.2131-.463-.3798-.741-.4912-.278-.1113-.576-.164-.876-.1561-.301-.0105-.601.0456-.879.1632-.278.1184-.526.2955-.728.5201-.414.4526-.636 1.0481-.62 1.6612-.017.328.033.6561.146.9648.112.3088.286.5912.51.8315.096.1061.203.2026.318.2868.126.0921.262.1702.406.2324.145.0623.296.1079.45.1369.14.0263.282.0386.425.0359.304.0079.607-.0526.885-.1771.278-.1246.525-.3097.722-.5421.199-.2315.353-.4947.458-.7753.111-.2983.167-.6166.162-.9394.02-.3202-.027-.6412-.137-.9429-.109-.3008-.28-.5762-.501-.8087Zm-.557 3.3497c-.017.0377-.037.0736-.06.107-.015.0237-.032.0465-.05.0684l-.033.0395-.032.0342c-.052.0517-.111.0973-.174.1359-.152.0912-.327.1351-.504.1272-.239-.0053-.47-.0807-.667-.2167-.196-.135-.348-.3254-.438-.5464-.26-.5087-.396-1.0727-.395-1.6437-.027-.278.002-.5587.087-.8236.085-.2657.224-.5113.407-.7218.184-.1684.424-.2614.674-.2605.238.0026.47.0754.667.2096.196.1342.349.3245.438.5456.032.064.062.1289.09.1947.056.1324.104.2675.143.4052.097.3289.145.671.144 1.0166.009.1999-.005.3999-.042.5955-.048.2544-.133.5017-.255.7333Zm-23.9352-6.2502c.0654-.0141.1325-.0141.1978 0 .0592-.0027.118.007.1728.0271.0548.0202.1061.05.1504.0895.0202.0167.0386.0351.0548.0553.0255.0324.0465.0684.0619.1061.0087.0456.0114.0921.0079.1377-.0013.0202-.004.0404-.0079.0596.0136.0658.0136.1325 0 .1983-.0325.0649-.0759.1228-.1276.1719-.0193.0184-.0399.0359-.0619.0517-.028.0202-.0579.0386-.089.0544l-.0408.0062-.0263.0026-.0153.0009h-.036c-.0268-.0009-.0531-.0044-.0789-.0097-.0654.0132-.1325.0132-.1978 0-.0171-.007-.0342-.0158-.0505-.0254l-.0342-.0202-.0131-.0088-.0351-.0272-.0377-.035c-.0461-.0465-.0825-.1018-.1079-.1614-.0062-.0299-.0097-.0605-.0101-.0904-.0009-.0359.0026-.0719.0101-.1079-.0013-.0657.0105-.1324.0351-.1938.025-.0623.0618-.1184.1087-.1649.047-.0517.1053-.0921.1706-.1166Zm28.1212 2.3883c-.113-.1026-.261-.157-.413-.1526-.224.0035-.439.0894-.602.2429-.231.2044-.437.436-.611.6912v-.8078c.002-.0184.004-.0369.003-.0553 0-.0175-.001-.0351-.003-.0526h-.045c-.296.1342-.602.2517-.898.3587l-.575.207v.1614H121.241c.07-.0035.139.0141.199.0509.059.0368.106.0912.133.1561.069.2263.099.4631.09.7008v2.2357c.012.0913.005.1842-.022.2728-.026.0877-.071.1693-.131.2395-.112.0631-.234.107-.359.1315-.032.0062-.065.0106-.098.0141-.048.0052-.096.0079-.145.007v.171h2.434v-.171c-.229.0263-.461-.0272-.655-.1526-.03-.0307-.057-.0641-.081-.0991l-.025-.0404c-.014-.0228-.025-.0465-.036-.0702l-.023-.0596c-.021-.0632-.033-.1289-.037-.1947l-.001-.0412c0-.0264.002-.0527.005-.079V32.621c.004-.1377.043-.2719.11-.3903.038-.0676.086-.1298.142-.1851.17-.1789.305-.278.422-.278.116.0263.222.085.305.1701.096.1044.227.1684.368.1798.057.0097.115.0097.171 0l.027-.014c.041-.0246.078-.0562.108-.0939.08-.0921.124-.2096.126-.3324-.002-.071-.017-.1412-.045-.2061-.021-.0816-.069-.1544-.135-.207Zm2.362.1079c.269-.1702.58-.2631.898-.2693.237-.0114.473.0333.689.1325.215.0982.404.2464.551.4332.352.4526.528 1.0175.494 1.5902.008.6482-.201 1.2797-.593 1.7963-.163.2439-.383.4447-.641.5842-.08.0421-.162.0789-.246.1087-.191.0684-.392.1053-.595.1062-.047.0017-.093.0008-.139-.0018l-.075-.007-.086-.0123c-.059-.0105-.118-.0246-.176-.0421-.224-.0772-.425-.2105-.584-.3859v1.6165c0 .1307.009.2403.025.3306.026.1386.071.2316.137.2807.223.1.465.1526.709.1526v.179h-2.434v-.1702c.315-.0184.512-.0903.584-.1974.099-.1587.146-.3438.135-.5306v-4.6249c.02-.1623-.015-.3272-.099-.4675-.046-.0413-.1-.0728-.159-.0912-.021-.0071-.043-.0123-.065-.0158-.039-.0053-.078-.0062-.117-.0009h-.234v-.1702l.467-.1526.988-.3412v.6552c.172-.1807.362-.3429.566-.485Zm1.022 3.9276c.116-.0859.215-.1929.289-.3166.134-.2123.233-.4421.296-.6815.036-.1377.06-.2789.071-.421l.006-.1c.002-.0482.002-.0965.001-.1447-.001-.0421-.002-.0842-.005-.1263.017-.2167-.001-.4324-.052-.6403-.063-.2561-.176-.5-.334-.7157-.022-.0281-.045-.0544-.069-.0798l-.055-.0535-.034-.0299c-.022-.0193-.045-.0368-.067-.0543-.025-.0185-.051-.036-.077-.0527-.032-.0193-.065-.0377-.098-.0544-.155-.0771-.325-.1201-.498-.1245-.144.0009-.285.0289-.417.0816-.091.0359-.177.0833-.257.1429-.11.0851-.189.1667-.238.2474-.039.0649-.059.1289-.059.1929v2.4787c.072.2018.204.3772.378.5035.123.0745.26.1254.402.1473.143.022.288.0158.429-.0184.082-.0202.161-.05.237-.0886l.056-.0307c.032-.0184.065-.0386.095-.0614Zm5.696-3.5224c-.211-.2131-.463-.3798-.742-.4912-.278-.1114-.575-.164-.875-.1561-.301-.0096-.601.0465-.879.164l-.098.0448c-.035.0166-.07.035-.104.0543-.074.0413-.145.0869-.212.136-.114.0833-.219.1789-.315.2842-.413.4525-.635 1.0481-.619 1.6612l-.003.0816v.0552l.002.1079c.005.0877.014.1745.028.2605.024.1561.064.3105.118.4596.113.3087.286.5912.51.8315.049.0535.1.1044.153.1526.035.0307.07.0605.107.0895.025.0201.051.0403.078.0587l.069.0474c.101.0667.209.1245.321.1728.283.1219.59.1807.898.1701.076.0018.152 0 .228-.0061.119-.0105.237-.0307.353-.0623.105-.0289.207-.0658.307-.1105.077-.0351.152-.0745.225-.1193.066-.0412.131-.0859.192-.1342.073-.057.142-.1193.206-.1868.033-.0351.066-.071.097-.1079.139-.1614.257-.3377.351-.5254l.054-.114.041-.1008c.069-.1755.118-.3588.146-.5465.02-.1386.03-.2789.027-.4201.02-.3219-.029-.6447-.144-.9464-.114-.3026-.292-.5763-.52-.8043Zm-.714 3.561c-.061.0676-.131.1263-.21.1737-.152.0912-.328.1351-.504.1272-.238-.0053-.469-.0799-.664-.2158-.052-.0368-.101-.0772-.146-.1202-.037-.035-.071-.0728-.102-.1122-.022-.0263-.042-.0535-.061-.0816-.021-.0316-.041-.064-.059-.0974-.024-.0438-.045-.0894-.064-.1368-.268-.5061-.407-1.07-.404-1.6437-.011-.1131-.013-.2263-.005-.3385.011-.1658.041-.3298.092-.4886.085-.2675.223-.514.407-.7262.185-.1649.426-.2544.673-.2517.069.0008.138.007.206.0193.058.0105.116.0254.173.0447.102.0342.199.0824.289.1438.104.0711.196.1579.272.257.068.0877.124.1851.165.2895l.058.1219c.045.0982.084.1973.119.2982.036.1017.067.2052.093.3096.073.2895.109.5877.108.8876.019.4614-.083.9192-.297 1.3288l-.032.0614-.019.0316-.023.0351c-.021.0289-.042.057-.065.0833Zm4.387-4.0741c.054.0474.097.1053.126.171.02.0798.02.1623 0 .2421.002.0211.002.0421.002.0623-.002.0316-.007.0631-.014.093-.016.064-.045.1245-.086.1771-.017.0202-.035.0386-.054.0553l-.017.0131-.03.0211-.034.0184c-.054.0097-.108.0097-.162 0-.144-.0096-.279-.0737-.377-.1798-.082-.0868-.189-.1465-.305-.1701-.024 0-.049.0043-.076.0131-.041.014-.084.0386-.131.0719-.066.0465-.138.1114-.216.193-.154.1526-.244.3578-.251.5745v2.3085c-.013.1061-.001.2132.033.314.016.0474.036.0921.061.1342.029.0491.064.0947.103.136.195.1254.426.1789.656.1526v.1701h-2.416v-.1701c.21-.0018.416-.0544.602-.1526.06-.0702.105-.1518.131-.2404.026-.0877.033-.1806.021-.2719v-2.2366c.014-.2368-.016-.4745-.089-.6999-.013-.0307-.031-.0588-.052-.0842-.023-.0281-.051-.0526-.082-.0719-.022-.014-.046-.0254-.071-.0333-.041-.0141-.084-.0193-.127-.0176H133.689v-.1614l.575-.207.404-.1526.503-.2061h.045v.9157c.174-.2552.379-.4877.611-.6912.163-.1535.378-.2394.601-.2429.041-.0026.083 0 .123.007.034.0053.068.014.1.0263.024.0088.047.0193.07.0316.019.0096.037.0202.054.0324l.038.0299.028.0254Zm3.597 4.0022c-.041-.007-.08-.0237-.114-.05-.049-.0377-.083-.0921-.097-.1526-.019-.1316-.019-.264 0-.3956V32.692c.004-.0719.004-.1438.001-.2158l-.006-.0894-.01-.093c-.007-.0535-.017-.1061-.028-.1587-.01-.0518-.022-.1035-.037-.1544-.027-.0939-.06-.186-.099-.2763-.137-.2149-.332-.3877-.562-.4973-.23-.1097-.487-.1518-.74-.1228-.449-.0351-.895.1-1.249.378-.119.0816-.218.1886-.293.3123-.075.1236-.121.2622-.138.4061 0 .0228.003.0456.006.0675l.009.0447c.004.0176.009.0351.016.0518.008.0228.018.0447.029.0658.018.0324.04.064.066.0929.041.0509.093.0913.152.1176.06.0131.121.0131.18 0 .088.0026.175-.0193.251-.0632.037-.0245.07-.0552.097-.0903.018-.0237.034-.05.047-.0781.032-.0675.044-.143.036-.2175.002-.0368.003-.0728.003-.1088l-.003-.071v-.1982c.002-.0755.024-.1491.066-.2132.011-.0175.023-.0333.037-.0482l.015-.0167.016-.0149c.029-.0263.063-.0491.1-.0658.143-.0859.308-.1289.476-.1263.036-.0052.073-.0079.109-.007.05.0009.099.0062.147.0176.049.0114.096.0271.142.0482.059.0272.113.0623.162.1035.033.0281.064.0596.092.0938.017.0211.033.0439.048.0676.016.0447.03.0894.042.1351.014.0535.026.107.035.1613.023.1334.03.2693.022.4044v.4131c-.622.2149-1.223.4859-1.796.8078-.05.0281-.098.0588-.143.0921-.025.0175-.05.0368-.074.0561l-.053.0465c-.048.0439-.092.0912-.133.1412-.042.0509-.08.1044-.114.1614-.126.2079-.196.4456-.202.6885-.004.1421.021.2842.076.4158.054.1315.135.25.239.3482.043.043.09.0824.141.1166.028.0193.056.0369.085.0527.036.0193.074.0368.112.0526.127.0509.262.0763.398.0737.304-.0097.599-.1026.853-.2693.228-.1377.441-.2973.638-.4754.004.186.064.3675.171.5201.016.022.035.043.054.0623.017.0149.033.0298.051.043.017.014.036.0263.055.0377l.055.0281c.084.0377.177.0526.27.0447.203-.0044.4-.0702.565-.1886.072-.0491.139-.1035.203-.1622.049-.0448.095-.093.139-.143v-.2693l-.26.1798c-.014.0097-.027.0185-.042.0263-.031.0185-.065.0307-.1.0386-.051.0106-.104.0097-.155-.0026-.007.0009-.014 0-.021-.0009h-.017l-.021-.0026Zm-1.064-.6789c-.002.0965-.031.1904-.083.271-.053.0807-.126.1456-.213.1869-.186.1245-.405.1903-.629.1885-.029 0-.057-.0008-.086-.0035-.029-.0035-.058-.0087-.087-.0158-.047-.0114-.093-.028-.137-.0491-.042-.0201-.083-.0456-.121-.0745-.1-.0763-.179-.1763-.231-.2903-.052-.1149-.074-.2404-.065-.3658.005-.0552.014-.1105.027-.164l.021-.0763.028-.0807c.019-.05.042-.0982.067-.1456.024-.0447.052-.0877.082-.1289.126-.1755.296-.3132.493-.4018.283-.171.584-.3096.898-.4131l.036 1.563Zm3.691.6473c.109-.078.209-.1684.297-.2701l.135.0184-.108.1526c-.14.2044-.329.371-.548.485-.168.0913-.356.1404-.548.1439-.169.0123-.338-.0316-.481-.1237-.143-.0921-.251-.2289-.309-.3885-.045-.1386-.077-.2816-.094-.4272-.014-.1175-.019-.2359-.014-.3543v-2.9813h-.539c-.009-.0237-.009-.0491 0-.0719.043-.0474.091-.0904.144-.1263.173-.1395.335-.293.485-.4579.098-.0894.332-.3955.7-.8981h.081v1.2937h.988v.35h-1.024v2.8295c-.009.1903.012.3815.063.5657.027.1018.088.1912.173.2535l.027.0193c.018.0105.037.0202.057.0289.028.0132.057.0229.087.029.04.0088.081.0123.123.0105.107.0009.213-.0272.305-.0807Zm1.375-6.3239c-.016.0053-.031.0123-.046.0193l-.031.0176c-.016.0096-.032.021-.047.0333l-.026.0246-.021.0219c-.046.0474-.084.1035-.108.1649-.01.0246-.017.0491-.023.0737l-.009.0473c-.003.0246-.004.0491-.003.0737-.011.0395-.016.0789-.013.1193.001.0263.006.0526.013.0781.025.0605.062.1149.108.1622.046.0509.105.0912.17.1167.028.0052.055.0087.083.0096h.026l.033-.0017.055-.0079c.063.0123.127.0123.189 0 .065-.0255.124-.0658.171-.1167.049-.0447.086-.1.108-.1622.043-.0921.055-.1956.036-.2956-.02-.1-.07-.1912-.144-.2614-.027-.0289-.056-.0544-.088-.0754-.024-.0158-.049-.029-.075-.0404-.027-.0114-.056-.0202-.085-.0263-.037-.0079-.074-.0114-.112-.0105-.03.0017-.06.0052-.089.0123l-.03.0087-.042.0149Zm.691 2.2998V34.74c-.027.2448.027.4903.153.7008.177.129.392.1956.611.1886v.1439h-2.398v-.1351c.234.0035.464-.0588.664-.1789.121-.2158.168-.4649.135-.7096v-2.3445c.01-.1482-.005-.2973-.045-.4403-.022-.0632-.065-.1175-.122-.1535-.057-.036-.125-.0517-.192-.0438h-.099c-.104.0175-.206.0447-.305.0806v-.1613l.215-.072c.404-.1254.809-.2692 1.213-.4218l.17-.0632c.005.0272.005.0544 0 .0807Zm9.152 3.7356v-2.2989c.029-.2491-.006-.5008-.1-.7333-.05-.1245-.117-.2412-.197-.3464-.071-.0921-.151-.1754-.241-.25-.119-.0886-.256-.1491-.399-.178-.041-.0079-.082-.0132-.124-.0167l-.088-.0026c-.282.0026-.556.0868-.79.2429-.256.1702-.493.3658-.71.5833v-.7184c.004-.0236.004-.0482 0-.0719l-.467.1526-.952.3149v.1702h.206c.198 0 .324.0631.378.1885.052.1404.074.2904.063.4403v2.4971c.023.2044-.025.4096-.135.5833-.145.1018-.317.1614-.494.171v.1342h2.155v-.1789c-.104.0035-.207-.0114-.306-.043-.068-.0228-.134-.0535-.197-.0921-.02-.0219-.038-.0456-.055-.0701-.031-.0456-.056-.0965-.074-.1509-.026-.0824-.034-.1693-.023-.2552v-2.7567c.057-.0649.118-.1272.182-.1851.076-.0693.156-.1333.24-.1921l.05-.0333c.023-.0149.048-.0281.072-.0412.145-.0764.306-.1185.471-.1237.112-.0123.225.0079.327.057.102.0491.187.1263.247.2219.107.2175.16.4578.153.6999v2.1024c.029.2307-.022.4649-.143.664-.144.1166-.32.1851-.503.1982v.1342h2.101v-.1342c-.086.0053-.172-.0061-.254-.0333-.082-.0281-.157-.0719-.222-.1289-.116-.1483-.176-.3325-.171-.521Zm-7.247-3.654c.278-.1176.578-.1737.88-.1632.298-.0087.596.0421.874.1518.278.1096.531.2754.743.4859.103.1087.196.2271.277.3526.087.1368.16.2824.217.435.11.2938.159.6061.143.9192.031.6429-.18 1.2744-.593 1.7691-.197.2324-.444.4175-.722.5421-.17.0763-.35.128-.533.1552-.116.0176-.234.0246-.352.0219-.309.0106-.616-.0473-.899-.171-.276-.1202-.525-.2973-.727-.521-.224-.2403-.397-.5227-.51-.8315-.113-.3087-.162-.6368-.146-.9648-.016-.6131.206-1.2086.62-1.6612.202-.2246.45-.4017.728-.5201Zm1.567 4.21c.151-.0903.273-.2201.355-.3762.214-.4088.317-.8675.296-1.3288.002-.5614-.127-1.1148-.377-1.6165-.088-.2219-.24-.4123-.437-.5465-.197-.135-.43-.207-.668-.2087-.25-.0026-.491.0903-.674.2605-.183.2105-.322.4561-.407.7218-.085.2649-.114.5456-.087.8236-.001.571.135 1.135.395 1.6437.09.221.242.4114.439.5464.109.0755.229.1325.354.1693.101.029.206.0448.312.0474.176.0017.348-.0456.499-.136Z"/>
</svg>