<svg xmlns="http://www.w3.org/2000/svg" viewBox="0 0 170 32">
	<path fill="#133371" d="M15.7583 31.3747 0 15.7588v15.6159h15.7583Z"/>
	<path fill="#0066A9" d="m15.7583 31.3747 15.7526-15.6159v15.6159H15.7583Z"/>
	<path fill="#00A6E2" d="M15.7925.227539V27.7174L1.90381 13.9443 15.7925.227539Z"/>
	<path fill="#133371" d="M81.2637 1.01713V.149267h-5.0238v.895743l1.0803.09044.267.21433v9.42762l-.267.2818-1.0803.0849v.8679h5.0353v-.84l-1.0624-.0843-.2843-.2818V6.42131h.6591c1.1481 0 1.6307.79477 1.9665 1.58954l1.3807 3.38105v.6201h4.0231v-.84l-1.1704-.0843-.4776-.3041-1.1705-2.54169c-.5854-1.29096-1.0853-2.20962-2.4661-2.38988v-.03345c.5513-.23106.9202-.62008 1.3637-1.62857l.7276-1.69113c.1174-.30291.2785-.58725.477-.84494l1.0738.97503c.1676-.0031.3327-.03903.4854-.10593.153-.06628.2911-.1623.4067-.28247.1155-.12018.2053-.26203.2651-.4169.0588-.15486.0876-.31964.0817-.48566.0097-.18831-.0229-.376009-.095-.550698-.0731-.174068-.1834-.330172-.3243-.457162-.1406-.12637-.3082-.220528-.4903-.2750408-.1818-.05513206-.3742-.0687602-.5619-.0415039-1.1875 0-1.898.9186607-2.5004 2.2263447l-.7784 1.69051c-.5513 1.22282-.9267 1.47122-1.6536 1.47122h-1.2219V1.37766l.2843-.24221 1.0509-.11832ZM60.8339 10.9521 56.7538.00803014h-1.864L50.8835 10.9861l-1.0627.1574v.8678h3.8301v-.8678l-1.1364-.1239-.1762-.2255 1.0797-2.99201h3.8701l1.0624 3.00931-.1249.2311-1.1367.101v.8678h4.7906v-.8846l-1.0456-.1746Zm-4.0801-4.15354H53.742l1.54-4.35047 1.4718 4.35047ZM48.5363.149267V2.9672h-1.2389l-.267-1.55547-.2329-.27628h-3.6542v4.12499c.2456-.02787.5541-.05389.8651-.07371.1951-.01239.3912-.0223.5733-.02788.1189-.00372.232-.00557.3348-.00557 1.4945 0 4.5462.43981 4.5462 3.38163 0 3.09359-3.3131 3.44919-4.4666 3.44919h-5.5408v-.84l1.0683-.0843.2785-.2818V1.34978l-.2785-.21433-1.0683-.09044V.149267h9.081ZM43.1433 11.0035c.1081 0 .2305.0062.363.0136l.0555.0037c.1802.0105.3766.0217.5761.0217.7768.0657 1.5502-.1617 2.1653-.6368.2375-.223.4215-.4962.5377-.79974.1161-.30353.1613-.62937.1328-.95273 0-1.12742-.6364-2.50758-2.7277-2.50758-.202.00062-.4039.01053-.605.03036-.0817.00805-.1635.01796-.2449.02973-.0846.01177-.1689.0254-.2528.04088v4.75688Zm23.8793 14.5332c0 3.6628-2.4608 6.1989-6.0977 6.1989-3.813 0-5.9214-2.8458-5.9214-6.2553-.0331-.853.1115-1.7042.4256-2.4995.3137-.7948.7898-1.5171 1.3987-2.1217 1.1182-1.0221 2.5934-1.5741 4.1142-1.5381 3.512-.0229 6.0806 2.4345 6.0806 6.2157Zm-8.547-3.5502c-.5693 1.0717-.8493 2.2716-.8124 3.4826-.0319 1.2049.2292 2.3992.7613 3.4826.2335.4981.6037.9206 1.0679 1.2191.4643.2992 1.0042.4628 1.5577.4715.9205 0 3.3125-.744 3.3125-5.0716.0406-1.2439-.2391-2.4772-.8124-3.5842-.2409-.4671-.607-.8598-1.058-1.1342-.4513-.2738-.9698-.42-1.4991-.4212-.2004.0018-.3993.0241-.5931.0669-.3126.0687-.6124.1901-.8865.3592-.4441.2745-.8034.6653-1.0379 1.1293Zm-19.0884 8.5882 1.1364-.1239.2444-.3159v-9.3718l-.21-.2305-1.1708-.0848v-.8679h4.6429v.4962l2.7674 8.1094 2.7504-8.0983v-.5129h4.6996v.8679l-1.2046.0842-.1988.2485v9.4282l.1988.2874 1.2046.0842v.8679H49.332v-.8679l1.1024-.0842.1762-.2874v-9.4902h-.0341l-3.6539 10.7074h-1.2788l-3.5629-10.6176h-.0285v9.3322l.267.3159 1.0968.1239v.8679h-4.029v-.8679Zm35.3756 1.0655c1.2216-.0037 2.4332-.2193 3.5802-.6368l.0055-3.0267h-1.2788l-.4433 2.1415-.2614.2651c-.0799.0186-.1604.0353-.241.0502l-.1003.0173-.1301.0199c-.2202.0309-.4423.0489-.6653.0532-3.0341 0-4.1708-2.406-4.1708-5.0715 0-2.0907.7105-3.2745 1.3526-3.9113.7071-.6801 1.6573-1.0549 2.6426-1.0425.4856-.005.9679.091 1.4145.2818l.2506.3042.3292 1.8714h1.313v-2.9536c-1.0918-.4064-2.2443-.6275-3.4095-.6535-1.627-.07-3.2256.4398-4.5069 1.4371-.6737.5897-1.207 1.3201-1.5629 2.1384-.3559.8183-.5247 1.7047-.4943 2.5955-.0081.5588.0607 1.1144.2031 1.6527l.0465.1661.018.0594.0412.1295c.0452.1369.095.2719.1499.4057.314.7657.7802 1.4607 1.3715 2.0443.5999.5748 1.3135 1.0196 2.0962 1.3058.783.2862 1.6171.4076 2.45.3568Zm9.8249-12.0603v.8679l-1.0682.0848-.2843.2478v4.0519h1.2274c.7276 0 1.0968-.2478 1.6481-1.4706l.779-1.6911c.6018-1.3071 1.3123-2.2542 2.4998-2.2542.1883-.0273.3807-.0137.5619.0409.1821.0551.3496.1492.4906.2756.1406.127.2518.2831.3239.4572.0725.1747.1054.3624.0958.5507.0052.166-.0227.3308-.0824.4856l-.0273.0651-.0096.021-.0288.0577-.0152.0266-.0418.0681c-.0195.0298-.0403.0589-.0622.0868l-.0397.0477-.0406.0439c-.1149.1202-.253.2162-.406.2825-.1533.0669-.3184.1028-.4851.1059l-1.0462-.9694c-.2023.2564-.3652.5408-.4826.8449l-.7275 1.6912c-.4436 1.0084-.8128 1.3975-1.3638 1.6285v.0335c1.3867.1747 1.8807 1.1274 2.4661 2.3899l1.1711 2.5416.477.3042 1.1711.0842v.8679h-4.0408v-.6195l-1.3867-3.3816c-.3348-.7948-.8127-1.5945-1.9664-1.5945h-.6591v4.3839l.2843.2874 1.0682.0849v.8679h-5.029v-.902l1.0852-.0842.2615-.2874v-9.4227l-.2615-.2478-1.0852-.0848v-.8679h5.029Zm16.8893 2.7386c0-2.4567-2.7504-2.7386-3.8127-2.7386H92.169v.8679l1.0624.0842.2843.2484v9.4227l-.2843.2868-1.0624.0848v.879h5.5293c1.1361 0 4.4727-.3208 4.4727-3.381 0-1.5722-1.046-2.9022-3.1201-2.9022h-.1078v-.034c1.3299-.3382 2.5339-1.0314 2.5339-2.818Zm-5.3905 2.538c-.0765-.0006-.153-.0031-.2295-.0075l.017-4.3052c.1887-.0242.3782-.0378.5684-.0397.6771-.0477 1.352.1134 1.9324.4622.2276.2031.4051.4559.5182.7384.0613.153.1031.3122.1245.4745.0183.1375.022.2769.0105.4156.0242.3122-.0223.6257-.135.9181-.1131.2924-.2899.5562-.5182.7724-.5944.4027-1.3049.6009-2.0238.5637-.088.0056-.1762.0081-.2645.0075Zm.1053 5.5943c-.1248-.0086-.2394-.0167-.3348-.0167v-4.5592c.2286-.0118.406-.0192.5454-.0242.2695-.0099.3949-.0099.4665-.0099.4299-.0186.8582.0316 1.2689.1468.2333.0657.4606.1518.6796.259.1635.1108.3088.2446.4321.3964.0563.0694.1081.1425.1545.2193.0381.0626.0728.127.1041.1933.1536.3264.2153.687.179 1.045.0236.3178-.021.6362-.1307.9354-.1096.2992-.2822.5724-.5055.8003-.6761.5978-1.7394.6368-2.3812.6368-.1496 0-.2992-.0117-.437-.0223h-.0409ZM109.502 19.456l4.074 10.944 1.046.1747v.8679h-4.786v-.8679l1.137-.1016.125-.231-1.062-3.0094h-3.865l-1.062 2.9927.175.2254 1.137.1239v.8679h-3.813v-.8679l1.068-.1579 3.978-10.9608h1.848Zm-3.018 6.7906h3.018l-1.473-4.3672-1.545 4.3672Zm12.814 1.8038v-1.7357h-4.506v1.7357h4.506Zm11.655 2.953c-1.148.4175-2.362.6331-3.585.6368-.833.0514-1.668-.07-2.451-.3562-.526-.1926-1.022-.4571-1.472-.7848-.219-.1592-.427-.3333-.623-.5216-.591-.5836-1.058-1.2786-1.372-2.0443-.314-.7662-.47-1.5864-.458-2.4134-.031-.8908.138-1.7772.494-2.5955.355-.8183.889-1.5487 1.563-2.1384 1.279-1.0004 2.879-1.5102 4.506-1.4371 1.166.0266 2.318.2477 3.41.6541v2.953h-1.313l-.335-1.8881-.25-.3042c-.449-.1908-.933-.2862-1.42-.2819-.982-.0012-1.925.3792-2.626 1.0593-.637.6368-1.347 1.8206-1.347 3.9113 0 2.6655 1.136 5.0715 4.171 5.0715.383-.0068.764-.0539 1.137-.1406l.267-.2651.443-2.1415h1.278l-.017 3.0267Zm6.223-10.5556v-.8679h-5.012v.8679l1.029.0842.284.2875v9.3836l-.284.2868-1.029.0848v.8679h5.001v-.8679l-1.063-.0848-.284-.2868v-.6709l5.472-6.7007v7.3716l-.267.2868-1.079.0848v.8679h5.001v-.8679l-1.029-.0848-.284-.2868v-9.3836l.284-.2875 1.029-.0842v-.8679h-5.001v.8679l1.079.0842.267.2875v.4906l-5.461 6.7063v-7.1969l.285-.2875 1.062-.0842Zm19.032-.8679v3.1277h-1.222l-.301-1.8881-.267-.2311h-2.12v9.6147l.301.2868 1.137.0848v.8679h-5.302v-.8679l1.136-.0848.302-.2868v-9.6147h-2.121l-.283.2311-.284 1.8881h-1.223v-3.1277h10.247Zm6.03.8679v-.8679h-5.001v.8679l1.028.0842.284.2875v9.3836l-.284.2868-1.028.0848v.8679h5.001v-.8679l-1.069-.0848-.279-.2868v-.6709l5.462-6.7007v7.3716l-.267.2868-1.086.0848v.8679H170v-.8679l-1.028-.0848-.285-.2868v-9.3836l.285-.2875 1.028-.0842v-.8679h-5.001v.8679l1.086.0842.267.2875v.4906l-5.462 6.7063v-7.1969l.279-.2875 1.069-.0842ZM67.6244.149267v.867863l-1.0568.11832-.284.28185v3.84314h5.1146V1.38881l-.267-.28124-1.0856-.09044V.149267h5.0012v.867863l-1.0004.11832-.2785.28185v9.3607l.2785.2818 1.0283.0843v.8679h-5.0003v-.8679l1.0853-.0843.267-.2818V6.32034h-5.1146V10.778l.284.2818 1.0627.0843v.8679h-5.0009v-.8679l1.0286-.0843.2843-.2818V1.38881l-.3242-.25336-1.0284-.09044V.149267h5.0062Z"/>
</svg>