<svg xmlns="http://www.w3.org/2000/svg" viewBox="0 0 140 38">
	<linearGradient id="a" x1="4.69756" x2="32.8823" y1="6.98757" y2="30.5923" gradientUnits="userSpaceOnUse">
		<stop stop-color="#fff"/>
		<stop offset=".1" stop-color="#CDD0D0"/>
		<stop offset=".2" stop-color="#A5ACAF"/>
		<stop offset=".3" stop-color="#98A0A4"/>
		<stop offset=".4" stop-color="#828A8F"/>
		<stop offset=".5" stop-color="#667075"/>
		<stop offset=".6" stop-color="#535C63"/>
		<stop offset=".7" stop-color="#475158"/>
		<stop offset=".8" stop-color="#434D54"/>
		<stop offset="1" stop-color="#475157"/>
	</linearGradient>
	<path fill="url(#a)" d="M37.1687 18.7899c0 10.1583-8.2205 18.3788-18.3788 18.3788-10.15822 0-18.378767-8.2205-18.378767-18.3788C.411133 8.63168 8.63168.411133 18.7899.411133c10.1583 0 18.3788 8.220547 18.3788 18.378767ZM18.7899 1.52678c-9.57103 0-17.26312 7.69209-17.26312 17.26312 0 9.5711 7.7508 17.2632 17.26312 17.2632 9.5711 0 17.2632-7.7508 17.2632-17.2632 0-9.57103-7.6921-17.26312-17.2632-17.26312Z"/>
	<linearGradient id="b" x1="5.57841" x2="32.0016" y1="7.69178" y2="29.8873" gradientUnits="userSpaceOnUse">
		<stop stop-color="#0B1F2A"/>
		<stop offset=".2" stop-color="#333F47"/>
		<stop offset=".5" stop-color="#81898D"/>
		<stop offset=".7" stop-color="#B3B8B8"/>
		<stop offset=".8" stop-color="#DEE0DD"/>
		<stop offset="1" stop-color="#FBFBFB"/>
	</linearGradient>
	<path fill="url(#b)" d="M18.79 1.52637c-9.57106 0-17.26314 7.69208-17.26314 17.26313 0 9.5711 7.7508 17.2632 17.26314 17.2632 9.5711 0 17.2632-7.7508 17.2632-17.2632 0-9.57105-7.6921-17.26313-17.2632-17.26313Zm0 33.41063c-8.92516 0-16.1475-7.2223-16.1475-16.1475 0-8.92515 7.22234-16.14749 16.1475-16.14749 8.9252 0 16.1475 7.22234 16.1475 16.14749 0 8.9252-7.2223 16.1475-16.1475 16.1475Z"/>
	<linearGradient id="c" x1="25.2327" x2="12.3735" y1="36.4682" y2="1.11982" gradientUnits="userSpaceOnUse">
		<stop stop-color="#E1E3E1"/>
		<stop offset=".1" stop-color="#C1C5C4"/>
		<stop offset=".3" stop-color="#9BA1A2"/>
		<stop offset=".5" stop-color="#7D8487"/>
		<stop offset=".7" stop-color="#687074" stop-opacity="0"/>
		<stop offset=".8" stop-color="#5B6469" stop-opacity="0"/>
		<stop offset="1" stop-color="#576065" stop-opacity="0"/>
	</linearGradient>
	<path fill="url(#c)" d="M18.7898 37.1686c10.1583 0 18.3788-8.2205 18.3788-18.3788 0-10.15822-8.2205-18.378772-18.3788-18.378772C8.63158.411028.411028 8.63158.411028 18.7898c0 10.1583 8.220552 18.3788 18.378772 18.3788Zm0-37.1686c10.3344 0 18.7899 8.45542 18.7899 18.7898 0 10.3344-8.4555 18.7899-18.7899 18.7899C8.45542 37.5797 0 29.1242 0 18.7898 0 8.45542 8.45542 0 18.7898 0Z" opacity=".4"/>
	<path fill="#fff" d="M1.2915 18.8487c0-9.62975 7.80953-17.55671 17.498-17.55671 9.6885 0 17.4981 7.86824 17.4981 17.55671 0 9.6298-7.8096 17.4393-17.4981 17.4393-9.68847 0-17.498-7.8095-17.498-17.4393ZM6.7523 6.75279C3.64023 9.86485 1.70253 14.1513 1.70253 18.8487c0 4.6975 1.9377 8.9839 4.99105 12.0373 3.11207 3.0533 7.39852 4.991 12.09592 4.991 4.6975 0 8.9839-1.879 12.0373-4.991 3.112-3.0534 4.991-7.3398 4.991-12.0373 0-4.6974-1.9377-8.98385-4.991-12.09591-3.0534-3.11207-7.3398-5.04977-12.0373-5.04977-4.6974 0-8.98385 1.9377-12.0372 5.04977Z"/>
	<linearGradient id="d" x1="10.6866" x2="26.8928" y1="4.75656" y2="32.8239" gradientUnits="userSpaceOnUse">
		<stop stop-color="#E1E3E1"/>
		<stop offset=".1" stop-color="#C1C5C4"/>
		<stop offset=".3" stop-color="#9BA1A2"/>
		<stop offset=".5" stop-color="#7D8487"/>
		<stop offset=".7" stop-color="#687074" stop-opacity="0"/>
		<stop offset=".8" stop-color="#5B6469" stop-opacity="0"/>
		<stop offset="1" stop-color="#576065" stop-opacity="0"/>
	</linearGradient>
	<path fill="url(#d)" d="M18.7897 34.9964c-4.3451 0-8.3967-1.7028-11.45003-4.7561-3.05335-3.0534-4.75617-7.1049-4.75617-11.4501 0-4.3451 1.70282-8.3967 4.75617-11.45004C10.393 4.28681 14.4446 2.58398 18.7897 2.58398c4.3452 0 8.3967 1.70283 11.4501 4.75618 3.0533 3.05334 4.7562 7.10494 4.7562 11.45004 0 4.3452-1.7029 8.3967-4.7562 11.4501-3.0534 3.0533-7.1049 4.7561-11.4501 4.7561Zm0-.4697c4.169 0 8.1619-1.6441 11.0978-4.58 2.9946-2.9947 4.58-6.9288 4.58-11.0978s-1.6441-8.1618-4.58-11.09771c-2.9947-2.99463-6.9288-4.58002-11.0978-4.58002S10.6279 4.81528 7.69198 7.75119C4.69735 10.6284 3.05324 14.6212 3.05324 18.7902S4.69735 26.952 7.63326 29.888c2.99464 2.9946 6.98744 4.6387 11.15644 4.6387Z" opacity=".4"/>
	<path fill="#fff" d="M33.0585 26.4226c-.2935-.2348-11.6262-9.2187-11.6262-9.2187L18.79 2.11328c-.1761.05872-.411.23487-.5284.46975l-1.879 14.67957-11.68495 8.9839s-.23487.2936-.35231.4697c-.05872.1175-.05872.2936-.05872.4698l14.44468-5.9306L33.176 27.186c.1174-.2936 0-.5872-.1175-.7634Z"/>
	<path fill="#565F64" d="m18.9075 19.2588-.1175 2.7011 13.2704 5.3433c.4697.2349.822.1175 1.1743-.1174l-14.1511-7.9857c-.0587-.0587-.1761 0-.1761.0587Z"/>
	<linearGradient id="e" x1="26.1296" x2="25.1314" y1="23.1342" y2="24.7783" gradientUnits="userSpaceOnUse">
		<stop stop-color="#27343C"/>
		<stop offset="1" stop-color="#00111E" stop-opacity="0"/>
	</linearGradient>
	<path fill="url(#e)" d="M18.9072 19.2588s.7634 1.3505 1.6441 2.29c1.2331 1.3506 2.8772 2.29 2.8772 2.29l8.6316 3.4644c.4698.2349.8221.1175 1.1744-.1174l-14.1511-7.9857c-.0587-.0587-.1762 0-.1762.0587Z"/>
	<path fill="#A4AAAE" fill-opacity=".6" d="M33.1759 26.658c0-.0588-.0588-.1175-.1175-.2349l-12.0959-8.8665-1.6441 1.057s.1174.0587.1761 0c.1762-.0587.5285-.1175.8808 0 .2936.1174 12.8006 8.1031 12.8006 8.1031v-.0587Z"/>
	<path fill="#333E46" d="m32.7648 26.1293-11.2739-8.9252-.5285.3523 12.096 8.9252c-.0588-.1175-.1762-.2349-.2936-.3523Z"/>
	<path fill="#565F64" d="m19.0833 18.3791-.0588.0587s0 .1174.1175.0587c.0587-.0587 1.7615-.9395 2.3487-1.2918L19.4356 3.11234c-.0587-.52846-.2936-.76333-.7046-.93949l.2348 16.32365.1175-.1174Z"/>
	<path fill="#A4AAAE" fill-opacity=".6" d="M18.0853 3.1127v.76333L16.7935 16.8528c0 .1761.0587.3523.2348.4697l.7634.5872.5284-14.32726.0587-1.11564c-.1761.11743-.2348.35231-.2935.6459ZM17.3807 18.1438l-.7047-.5872-11.91976 8.6316s-.35231.2349-.41103.4698l.41103-.2349 12.50696-7.8682c.2349-.1175.2936-.2349.1175-.4111Z"/>
	<path fill="#565F64" d="M18.6139 19.2588c0-.0587-.0588-.1174-.1175-.0587L4.28662 27.2445c.35231.2349.70462.2936 1.17437.1174l13.27031-5.3433-.1174-2.7598Z"/>
	<linearGradient id="f" x1="23.2526" x2="21.6085" y1="17.0874" y2="14.4451" gradientUnits="userSpaceOnUse">
		<stop offset=".1" stop-color="#02131F"/>
		<stop offset=".9" stop-color="#02131F" stop-opacity="0"/>
	</linearGradient>
	<path fill="url(#f)" d="m19.0249 18.4379.0587-.0587-.0587.0587s0 .0587.0587.0587h.0587c.0588-.0587 1.7616-.9395 2.3488-1.2918l-.2349-1.7028-1.8203-12.38955c0-.23487-.0587-.41103-.1761-.52847 0 0 .8807 11.86112.8807 13.15292 0 1.7028-1.1156 2.701-1.1156 2.701Z"/>
	<linearGradient id="g" x1="18.79" x2="16.3239" y1="21.3727" y2="22.0773" gradientUnits="userSpaceOnUse">
		<stop offset=".2" stop-color="#02131F"/>
		<stop offset=".9" stop-color="#02131F" stop-opacity="0"/>
	</linearGradient>
	<path fill="url(#g)" fill-opacity=".8" d="M18.6139 19.2588c0-.0587-.0588-.1174-.1175-.0587L4.28662 27.2445c.35231.2349.70462.2936 1.17437.1174l13.27031-5.3433-.1174-2.7598Z"/>
	<linearGradient id="h" x1="12.2134" x2="11.8611" y1="24.6029" y2="23.7221" gradientUnits="userSpaceOnUse">
		<stop stop-color="#02131F"/>
		<stop offset=".1" stop-color="#02131F"/>
		<stop offset="1" stop-color="#02131F" stop-opacity="0"/>
	</linearGradient>
	<path fill="url(#h)" d="m5.46084 27.3039 13.27036-5.3433-.1175-2.5836c-.2348.7046-.6459 1.4679-1.7615 2.0551-.8221.4697-8.69032 4.3451-11.50879 5.6957-.17616.1174-.41103.1761-.52847.2348.23487.1175.41103.0587.6459-.0587Z" opacity=".8"/>
	<linearGradient id="i" x1="20.9035" x2="18.9071" y1="10.0998" y2="10.3347" gradientUnits="userSpaceOnUse">
		<stop offset=".3" stop-color="#02131F"/>
		<stop offset=".8" stop-color="#02131F" stop-opacity="0"/>
	</linearGradient>
	<path fill="url(#i)" d="m19.0833 18.3791-.0588.0587s0 .1174.1175.0587c.0587-.0587 1.7615-.9395 2.3487-1.2918L19.4356 3.11234c-.0587-.52846-.2936-.76333-.7046-.93949l.2348 16.32365.1175-.1174Z"/>
	<linearGradient id="j" x1="20.9622" x2="19.6117" y1="10.0411" y2="10.2172" gradientUnits="userSpaceOnUse">
		<stop offset=".4" stop-color="#27343C"/>
		<stop offset="1" stop-color="#3B474E" stop-opacity="0"/>
	</linearGradient>
	<path fill="url(#j)" d="m19.0833 18.3791-.0588.0587s0 .1174.1175.0587c.0587-.0587 1.7615-.9395 2.3487-1.2918L19.4356 3.11234c-.0587-.52846-.2936-.76333-.7046-.93949l.2348 16.32365.1175-.1174Z"/>
	<linearGradient id="k" x1="-.234767" x2="16.1476" y1="19.3178" y2="28.7714" gradientUnits="userSpaceOnUse">
		<stop stop-color="#25323B" stop-opacity="0"/>
		<stop offset=".1" stop-color="#27343C"/>
	</linearGradient>
	<path fill="url(#k)" d="M2.99473 26.0704c-.41102-.9395-2.759752-5.5195-.17615-14.3272h-.99821C1.29191 13.5047.880879 14.5616.646006 16.147c0 0-.117437.5872-.176155 1.2331-.058718.6459-.058718.9982-.058718 1.4093 0 3.523.880777 5.5782.880777 5.5782.93949 2.9359 2.5836 5.5782 4.81489 7.5746 1.9377 1.7029 4.9323 2.9947 7.3985 3.4644-.411-.0587-7.45722-3.0533-10.51057-9.3362Z"/>
	<linearGradient id="l" x1="18.7902" x2="18.7902" y1="21.961" y2="19.1425" gradientUnits="userSpaceOnUse">
		<stop offset=".3" stop-color="#A5ABAF"/>
		<stop offset="1" stop-color="#A5ABAF" stop-opacity="0"/>
	</linearGradient>
	<path fill="url(#l)" d="M19.025 19.1425h-.5284c.0587 0 .1174 0 .1174.0587l.1175 2.701h.0587l.1174-2.701c0-.0587.0587-.1174.1174-.0587Z"/>
	<linearGradient id="m" x1="28.0088" x2="28.0088" y1="1.35059" y2="37.1687" gradientUnits="userSpaceOnUse">
		<stop stop-color="#6B7378"/>
		<stop offset=".2" stop-color="#333F47"/>
		<stop offset=".5" stop-color="#27343C"/>
		<stop offset=".8" stop-color="#333F47"/>
		<stop offset="1" stop-color="#434D54"/>
	</linearGradient>
	<path fill="url(#m)" d="M24.6619 1.35059c6.1654 2.34872 11.9785 8.80771 11.9785 16.96961 0 9.8646-7.8683 17.909-17.8504 17.909v.9395c9.9821 0 18.3788-8.2205 18.3788-18.3788 0-8.1031-5.1672-14.91443-12.5069-17.43931Z"/>
	<linearGradient id="n" x1="33.6454" x2="25.7185" y1="4.75622" y2="16.3824" gradientUnits="userSpaceOnUse">
		<stop offset=".7" stop-color="#49545B"/>
		<stop offset=".8" stop-color="#fff" stop-opacity="0"/>
	</linearGradient>
	<path fill="url(#n)" d="M34.5262 11.8611C30.4159 2.40749 21.1385 1.87903 20.61 1.82031h-.0587c7.1049 1.2918 11.6262 5.93054 13.2116 10.80419v.0587c.7046 1.879 1.0569 3.8754 1.1156 6.048.0587 2.0551-.411 4.3451-1.2918 6.459-.0587.2936-.1174.6459-.1761.6459h.9395c2.8184-5.2847 1.5853-10.628.1761-13.975Z"/>
	<path fill="#FBFBFB" d="M1.2915 18.8487c0-9.62975 7.80953-17.55671 17.498-17.55671 9.6885 0 17.4981 7.86824 17.4981 17.55671 0 9.6298-7.8096 17.4393-17.4981 17.4393-9.68847 0-17.498-7.8095-17.498-17.4393ZM6.7523 6.75279C3.64023 9.86485 1.70253 14.1513 1.70253 18.8487c0 4.6975 1.9377 8.9839 4.99105 12.0373 3.11207 3.0533 7.39852 4.991 12.09592 4.991 4.6975 0 8.9839-1.879 12.0373-4.991 3.112-3.0534 4.991-7.3398 4.991-12.0373 0-4.6974-1.9377-8.98385-4.991-12.09591-3.0534-3.11207-7.3398-5.04977-12.0373-5.04977-4.6974 0-8.98385 1.9377-12.0372 5.04977Z"/>
	<path fill="#333F47" d="m4.63867 26.3061 11.97853-8.6315c.6459.3523 1.7028.822 1.8203.822.1174.0587.1174-.0587.1174-.0587l-1.468-1.2331c-.1761-.1174-.2348-.2936-.2348-.4697l1.4092-14.15112c-.0587.05872-.0587.17616-.1174.23488-.0588.11743-.0588.17615-.0588.29359L16.03 17.2635 4.75611 26.13c-.05872.0587-.11744.1174-.11744.1761Z"/>
	<path fill="#1E1E1F" d="M90.8578 15.7145c-.2524-.252-.2615-.435-.2615-5.2857 0-3.88072.0495-4.84018-.2747-4.98917-.1463-.0673-.3687.03033-.7059.09928-.2876.05876-.7435.14313-1.0132.18774-.6172.10171-.6309.29187-.0292.40454.2537.04754.5184.19309.5884.3236.0699.13038.1272.95042.1272 1.82207v1.58462l-.3424-.40619c-.4605-.54614-.9689-.78894-1.645-.7855-1.679.00854-2.823 1.42481-2.9502 3.65271-.1138 1.9919.5385 3.458 1.8227 4.0968 1.0815.5381 1.9771.4309 2.7366-.3272l.4962-.4952.1045.5274c.0574.2901.1494.526.2045.5244.055-.0015.4374-.0706.8498-.1533.4124-.0828.8846-.1768 1.0494-.2086.381-.0736.2463-.3113-.1765-.3113-.1756 0-.4368-.1174-.5807-.261Zm12.8082 12.4102-.035-3.5736c-.025-2.5855.018-3.355-.274-3.5145-.162-.0888-.428.0115-.868.0928-.359.0665-.845.1504-1.078.1862-.586.0903-.532.2551.131.3945l.555.1169.035 4.8284c.029 4.0201.051 4.9086-.305 5.1023-.117.0634-.274.0524-.485.0524-.138 0-.241.0224-.293.0604-.034.0241-.046.0546-.035.0895.075.2227 3.633.2356 3.633.0132 0-.0896-.136-.1631-.302-.1631-.652 0-.807-.2778-.847-1.5229l-.037-1.1526.619-.6398c.34-.3519.637-.5868.66-.522.023.0648.556 1.0256 1.184 2.1353l1.142 2.0175 1.144.0079c.841.0058 1.144-.036 1.144-.1577 0-.0556-.057-.1049-.143-.135-.055-.0194-.122-.0307-.194-.0307-.5 0-.911-.4945-2.258-2.7155l-1.211-1.9976.923-1.0222c.906-1.0038 1.541-1.4428 2.085-1.4428.151 0 .275-.074.275-.1645 0-.1236-.407-.1641-1.635-.1631-1.651.0013-2.077.1407-1.218.3984.229.0687.438.1925.464.2748.027.0823-.587.8241-1.364 1.6485l-1.412 1.4986ZM50.5881 13.5611c-.0478.0295-.7576-1.7644-1.5774-3.98652l-1.4905-4.04h-1.4731c-1.1614 0-1.4732.03785-1.4732.17907 0 .10706.2037.21157.5059.25988.2238.03568.3895.05378.5094.13739.3527.24598.3087 1.0585.1782 4.55288-.0862 2.3114-.1899 4.4264-.2306 4.7006-.0758.5126-.2305.637-.9956.8004-.1979.0422-.3596.149-.3596.2374 0 .1195.4208.1572 1.6371.1471.9003-.0076 1.6783-.0548 1.7286-.1051.1251-.1249-.2307-.3337-.5728-.3361-.1539-.0012-.4057-.1048-.5596-.2305l-.2799-.2283.1401-3.8502c.1164-3.1966.135-4.54467.3299-4.57054.1541-.02052.4183.78485.9281 2.15612.5338 1.43562 1.3071 3.56372 1.7186 4.72872.4114 1.1652.8136 2.1197.8937 2.1209.0801.0012.39-.6878.6886-1.5313.2986-.8434 1.0914-2.9915 1.7619-4.77384l1.2189-3.24011.0797 4.40345c.0494 2.7397.0317 4.4925-.0467 4.6388-.0694.1295-.3605.2984-.6469.3754-.2865.077-.5208.211-.5208.2981 0 .117.5276.158 2.0298.158 1.7337 0 2.0245-.0285 1.9928-.1957-.0214-.1135-.2097-.2126-.4471-.2357-.191-.0186-.3382-.0316-.4529-.0993-.3882-.2291-.4051-1.0849-.4923-4.903-.0562-2.46682-.0769-4.5842-.0457-4.70528.0576-.22445.6591-.49771 1.0958-.49771.1331 0 .2419-.08807.2419-.19576 0-.16251-.252-.19577-1.4838-.19577h-1.4837l-1.48 3.98647c-.8139 2.19255-1.519 4.01055-1.5668 4.04005Zm64.5409-3.1077c1.723-.88952 1.751-3.50817.049-4.5074-.583-.34234-.622-.34655-3.499-.38772-2.484-.03556-2.909-.01376-2.909.14912 0 .21757.272.34923.722.34923.688 0 .716.20073.716 5.02877 0 3.3557-.04 4.5023-.163 4.6666-.09.1198-.395.265-.677.3224-.183.0374-.355.1005-.461.1642-.057.0344-.095.0689-.106.0997-.04.1222.612.1586 2.802.1565 2.588-.0027 2.909-.0277 3.443-.2688 2.475-1.1183 2.599-4.5512.194-5.3822l-.519-.1796.408-.2108ZM83.1684 22.5958c-.2979-.5686-1.0446-1.1878-1.6274-1.3493-.2716-.0753-1.6852-.1372-3.1415-.1376-2.2514-.0006-2.6476.0283-2.6476.1926 0 .1792.1873.2581.8466.3575.5569.0837.595.4346.5597 5.1527-.0232 3.1006-.0785 4.5086-.181 4.6108-.0812.081-.39.1797-.6865.2194-.3475.0465-.5388.1386-.5388.2595 0 .1585.4574.1809 2.9745.146 2.6008-.0363 3.032-.072 3.4321-.2847 1.3886-.7383 2.0777-2.2004 1.7003-3.6082-.185-.6908-1.0319-1.5779-1.687-1.7673l-.4287-.1239.5924-.4161c.3258-.2289.6943-.6107.8188-.8483.2932-.5603.3009-1.8556.0141-2.4031Zm29.4256-12.102-.948.0002V6.05663l1.014.00051c1.681.00089 2.255.55582 2.255 2.17906 0 1.66492-.609 2.2573-2.321 2.2576ZM79.5109 26.0673l-1.0133.0003v-4.4374l1.0133.0002c1.7688.0003 2.3854.5742 2.3858 2.2206.0004 1.6271-.6336 2.2161-2.3858 2.2163Zm-3.6184-14.9207c.1555 0 .1911-.2553.1911-1.37039 0-1.07748-.0386-1.37037-.1803-1.37037-.0991 0-.2534.17627-.3427.39154-.0893.21539-.1871.39153-.2173.39153-.0301 0-.234-.13217-.4532-.29365-.6035-.44494-1.9279-.4169-2.738.05761-1.7758 1.0404-2.3489 4.13283-1.1531 6.22263 1.2497 2.1843 4.3376 2.0064 5.0205-.2891.2537-.8526.2513-.8685-.1302-.8685-.2768 0-.3473.0885-.4755.5971-.0861.341-.3317.7886-.5731 1.0441-.3695.391-.5027.4469-1.0643.4469-.7748 0-1.1287-.2231-1.5141-.9547-.239-.4539-.2962-.8141-.3383-2.1318-.0614-1.9289.1564-2.8625.823-3.52776.3689-.36834.5266-.43334 1.0509-.43334.5394 0 .6788.06207 1.1118.49413.2942.29378.5552.71717.6433 1.04407.0885.3278.2256.55.3395.55Zm28.3665-.1305c.161 0 .196-.232.196-1.30514 0-.78307-.052-1.30512-.13-1.30512-.072 0-.131.04754-.131.10566 0 .05799-.078.21183-.173.34145-.165.22495-.194.22546-.608.01185-.326-.16837-.669-.21259-1.375-.17703-.793.03989-1.018.10629-1.433.42199-.6291.4791-.9023 1.12234-.8238 1.93944.0832.8636.4228 1.1865 2.0588 1.9581 1.694.7989 1.962 1.0272 1.962 1.676 0 1.0086-1.15 1.7485-2.199 1.4143-.678-.216-1.159-.7124-1.404-1.4482-.12-.3599-.2898-.6315-.3955-.6315-.1486 0-.1857.2738-.1857 1.3703 0 1.1312.0343 1.3704.1961 1.3704.1079 0 .1961-.0474.1961-.1055s.078-.2115.172-.3411c.166-.2255.195-.2238.714.0404.394.2006.784.2757 1.432.2757 1.046 0 1.6-.2456 2.187-.9692.345-.425.394-.5878.396-1.3211.002-.7692-.032-.87-.419-1.2569-.232-.2313-1.085-.7464-1.896-1.1449-1.674-.822-1.931-1.1122-1.673-1.8916.269-.81394 1.395-1.21873 2.214-.79597.418.21603.917 1.04767.923 1.53927.002.1257.091.2284.199.2284Zm-40.5229.8157c-.2398-1.7059-.9462-2.76486-2.0662-3.09688-.7209-.21386-1.152-.23349-1.6688-.0766-.9872.29977-1.6544.8988-2.1168 1.90098-.2567.5558-.3013.8653-.3013 2.0882 0 1.5814.2383 2.3577.955 3.1116 1.5402 1.6203 4.3579 1.1029 5.051-.9275.2662-.78.2615-.8137-.1122-.8137-.2506 0-.35.1022-.4758.4894-.3474 1.0692-.9952 1.5987-1.9553 1.5987-1.307 0-1.9598-.8654-2.1414-2.8386l-.0751-.8157h4.9939l-.087-.6199Zm2.9802-2.49071c-.0206-.12541-.0347-.26255-.0373-.38057-.0036-.16608-.0024-.27365-.0554-.33355-.0991-.11216-.3877-.05723-1.2511.09381-.8689.15218-1.2545.46647-.5766.47017.2094.00115.3611-.00051.4717.06589.2948.17678.2991.83596.3302 3.31396.0378 3.0095.0289 3.141-.2288 3.3982-.1474.1471-.4152.2676-.5949.2676-.1798 0-.3269.0735-.3269.1631 0 .1227.4533.1631 1.8304.1631 1.3772 0 1.8305-.0404 1.8305-.1631 0-.0598-.0597-.1124-.148-.1408-.0441-.0142-.0953-.0223-.1497-.0223-.1638 0-.4286-.0916-.5884-.2032-.2817-.1969-.2906-.2736-.2906-2.5213 0-2.5518.1523-3.4.7031-3.91661.2118-.19883.4383-.28206.6888-.25338.3208.03658.3792.10655.4165.49885.0552.58144.227.78354.6655.78354.4812 0 .664-.2244.664-.81502 0-1.20341-1.557-1.6848-2.6041-.80538-.214.17971-.4304.45641-.4809.61471-.0891.28027-.0944.28091-.1939.02689-.0277-.07086-.054-.18213-.0741-.30461ZM83.4618 11.897c-.2513-1.8018-1.0067-2.91303-2.1809-3.20821-1.1724-.29468-2.0005-.07762-2.8452.74585-.9279.90466-1.2199 1.79516-1.1388 3.47386.0695 1.4412.2573 2.0145.8986 2.7437 1.0501 1.1937 2.9153 1.4188 4.1339.4983.5387-.4067.7882-.7861 1.0178-1.5473l.1814-.6019-.3363.0409c-.256.0311-.376.1574-.5033.5292-.395 1.1532-1.0627 1.6103-2.1933 1.502-1.1025-.1058-1.7205-.9899-1.8785-2.688l-.087-.9337h5.009l-.0774-.5547Zm15.0674-.2078c-.1397-1.3345-.7316-2.34887-1.6461-2.82096-.5026-.25924-1.4866-.35967-2.072-.21132-1.7201.43615-2.7767 2.57598-2.399 4.85848.2848 1.7212 1.1464 2.789 2.5153 3.1166 1.6368.392 3.355-.6233 3.5995-2.1268.0746-.4593.0593-.4873-.2648-.4873-.2225 0-.344.0709-.344.2009 0 .3157-.4636 1.1378-.8388 1.4875-.4744.4419-1.6635.5258-2.2485.1587-.5821-.3653-.9709-1.257-1.0598-2.4305l-.0745-.9828h4.9126l-.0799-.7625Zm25.5218-.4384c-.243-1.146-.796-1.99128-1.565-2.39263-.435-.22687-1.509-.3366-2.014-.20584-1.662.43003-2.489 1.78337-2.48 4.06037.005 1.1077.048 1.3319.41 2.1025.459.9796 1.008 1.4726 1.966 1.7661 1.406.4311 2.862-.1539 3.484-1.3994.441-.8844.447-1.164.024-1.164-.263 0-.347.0922-.458.5049-.27 1.0031-1.001 1.5836-1.992 1.5827-1.227-.001-1.936-.9198-2.039-2.6423l-.06-1.0115h2.435c1.645 0 2.241.0376 2.396-.2054.106-.1664.006-.4642-.107-.9955Zm3.303-1.52582-.089-.59419c-.096-.6351-.159-.6676-.91-.46495-.215.05838-.613.14377-.882.18991-.648.11088-.676.46367-.038.46367.315 0 .495.07749.589.25249.082.15269.135 1.41689.135 3.19749 0 2.7711-.015 2.9605-.261 3.2061-.144.1437-.409.2611-.589.2611-.108 0-.204.0265-.263.0671-.04.027-.064.0602-.064.096 0 .1225.441.1631 1.766.1631 1.324 0 1.765-.0406 1.765-.1631 0-.0896-.122-.1631-.271-.1631-.148 0-.383-.0608-.523-.1351-.237-.1267-.252-.2983-.252-2.7537 0-2.1204.039-2.7016.207-3.0548.389-.81808 1.351-1.15443 2.144-.74964.736.37573.782.58944.785 3.58434.002 2.9285-.04 3.1089-.727 3.1089-.175 0-.317.0735-.317.1631 0 .1231.433.1599 1.765.1499 1.683-.0128 2.253-.1508 1.367-.3317-.226-.0461-.479-.1516-.562-.2346-.101-.1007-.173-1.093-.217-2.9832-.058-2.527-.094-2.8801-.327-3.27538-.41-.69513-.875-.96826-1.758-1.03211-1.028-.07418-1.35.01975-1.962.57188l-.511.46049ZM94.612 25.3041l-.0897-.5971c-.0401-.2664-.0591-.4266-.1493-.5044-.1393-.1202-.4479-.0446-1.2646.1393-.9693.2183-1.2287.5511-.4294.5511.314 0 .4944.0775.5883.2525.0819.1526.1353 1.4169.1353 3.1975 0 2.7711-.0154 2.9605-.2615 3.2061-.1438.1436-.4086.261-.5883.261-.1798 0-.3269.0735-.3269.1631 0 .1225.4402.1632 1.7651.1632 1.3248 0 1.765-.0407 1.765-.1632 0-.0896-.1429-.1631-.3175-.1631-.6815 0-.7284-.1918-.7284-2.9805 0-3.028.0819-3.3111 1.0782-3.7261.682-.2841 1.0919-.2247 1.6286.2357l.3657.3138.04 2.9118c.0363 2.6482.0194 2.9271-.1884 3.0787-.1256.0915-.3643.1666-.5303.1666-.1015 0-.1916.0274-.2464.0691-.035.0266-.0555.0591-.0555.094 0 .2224 3.558.2095 3.633-.0132.03-.0899-.102-.1499-.329-.1499-.2074 0-.4918-.0832-.6315-.1851-.2345-.171-.2587-.4073-.3191-3.1231-.0605-2.7202-.0856-2.9653-.3389-3.3061-.5164-.695-1.0552-.9554-1.9771-.9554-.9266 0-1.2141.1072-1.8188.6781l-.4086.3856Zm-4.2166 3.2432c-.0752-3.2346-.1517-3.4956-1.1747-4.0132-1.6437-.8317-4.0551.078-4.0551 1.5297 0 .4887.1507.6563.5897.6563.33 0 .587-.4041.587-.9227 0-.6219.3188-.9848.9725-1.1072 1.219-.2283 1.7479.3871 1.7675 2.0567.0054.4588-.0194.4876-.4846.5639-2.4364.3995-3.8461 1.4508-3.8461 2.8679 0 1.1953.7395 1.9163 2.0511 1.9995 1.0239.0651 1.5069-.1096 2.0198-.7307l.3774-.457.1945.4645c.2466.5892.59.7709 1.3639.721.4629-.0298.6261-.0962.6588-.268.0336-.1765-.0458-.2284-.3506-.2284-.2168 0-.4417-.0733-.4999-.1631-.0582-.0896-.1352-1.4259-.1712-2.9692Zm47.5356-16.1605c1.09-1.7839 2.012-3.32126 2.049-3.41647.054-.14007-.444-.17295-2.619-.17295-1.853 0-2.455-.04997-2.698.22113-.156.17333-.165.47769-.26 1.01019-.075.4258-.138.793-.138.8157 0 .0227.074.041.164.0408.09-.0001.31-.2749.49-.6106.522-.97493.786-1.10277 2.187-1.05829l1.195.03786-2.145 3.52383c-1.18 1.9382-2.147 3.5679-2.149 3.6217-.002.0538 1.256.0979 2.794.0979h2.798l.152-.881c.083-.4846.184-1.013.224-1.1746.135-.554-.304-.318-.536.2875-.122.3198-.426.7603-.676.9789-.441.3864-.49.3976-1.761.3976-1.225 0-1.299-.0151-1.18-.2377.07-.131 1.019-1.6975 2.109-3.4815Zm-78.9751-.8248c0-.6536.4052-1.75354.7859-2.1336.2878-.28728.4919-.37.9123-.37.1423 0 .2982.01376.4374.03632.1521.02473.2841.05978.3566.09852.3881.20724.7979 1.13386.8745 1.97666l.069.7598H58.9559v-.3677Zm19.7426-.0842c0-.6546.4852-1.84867.8757-2.15532.4831-.37943 1.3394-.35661 1.776.04729.3634.33609.7477 1.42903.7477 2.12693v.433h-3.3994v-.4519Zm15.0938-.0336c.1966-1.0946.3774-1.54142.7905-1.95374.3443-.34386.5386-.43206.9512-.43206.9349 0 1.5532.84081 1.6315 2.2187l.0335.5873-1.7477.0366-1.7477.0366.0887-.4934Zm25.7737-.811c.216-.76241.474-1.16555.907-1.4165.413-.23872 1.168-.18762 1.54.10425.396.31086.724 1.13895.775 1.95615l.037.5873-1.732.0365c-1.087.0228-1.558.0521-1.699-.1489-.117-.1675-.005-.4948.172-1.1188ZM85.7817 13.044c-.0632-1.8933.1082-2.7842.6555-3.40645.3381-.3844.4776-.44864.9741-.44864.77 0 1.1377.26638 1.4874 1.07789.5463 1.2676.5013 3.9065-.0876 5.1455-.3625.7626-1.2317 1.0284-2.0243.6193-.6688-.3453-.9441-1.1635-1.0051-2.9876Zm26.0993 2.815c-.271-.2168-.235-.8173-.235-2.4579V10.985l1.215.053c1.981.0864 2.598.6713 2.592 2.4573-.005 1.7345-.743 2.4802-2.454 2.4802-.596 0-.931.0336-1.118-.1165ZM78.6142 31.1575c-.124-.4471-.1403-4.3696-.0186-4.4938.1855-.1893 2.4267-.0058 2.8868.2363.917.4826 1.2627 2.4282.6401 3.6033-.4422.8347-.9547 1.0601-2.3118 1.0163-1.055-.034-1.11-.0507-1.1965-.3621Zm30.0428-18.7058-.042-.3589-.041-.3589-1.471-.037-1.471-.0368v.7916h3.025ZM86.1153 29.7688c.0874-.7746.7031-1.4165 1.6823-1.754.386-.133.8431-.2439 1.0154-.2462l.3134-.0044-.0726 1.2157c-.0863 1.4431-.3205 2.0841-.8643 2.3649-1.1786.6084-2.2307-.1908-2.0742-1.576Z"/>
</svg>