<svg xmlns="http://www.w3.org/2000/svg" viewBox="0 0 200 21.5">
	<path fill="#004785" d="M38.6 17.4l-.8-6.8-1.4 6.8h-1.9L33 10.6l-1 6.8h-3.4l2-13.4h3.5l1.3 5.9L36.7 4h3.4L42 17.4h-3.4zM50.2 4v3.4h-3.4v1.7h2.4v3.4h-2.4v1.6h3.4v3.3h-6.8V4h6.8zm1.9 0h7.4v3.6h-2v9.8h-3.4V7.7h-2V4zm8.7 13.4L64.1 4H68l3.3 13.4H68l-.5-1.9h-2.9l-.5 1.9h-3.3zm6.1-4.6l-.8-3.4-.9 3.4h1.7zM79.6 4l2.7 13.4h-3.4l-1.5-10h-.3l-1.5 10h-3.4L74.9 4h4.7zm10.9 0l2.7 13.4h-3.4l-1.5-10H88l-1.5 10h-3.4L85.9 4h4.6zm14.1 0v13.4h-3.4v-6.2l-3.1 6.2h-3.4V4h3.4v6.5l3.4-6.5h3.1zm5.9 0v5.1h2.6V4h3.4v13.4H113v-4.9h-2.6v4.9H107V4h3.5zm13.4 0c.4 0 .8.1 1.2.2.4.2.7.4 1 .7.5.7.8 1.5.8 2.6 0 .8-.1 1.5-.3 1.9-.2.4-.5.7-.9.9.6.2 1.1.5 1.5 1 .4.6.6 1.3.6 2.2 0 1.2-.3 2.2-.8 2.9-.6.7-1.4 1-2.5 1h-5.6V4h5zm-1.8 2.9v1.9h.6c.5 0 .8-.3.8-.9 0-.7-.3-1-.8-1h-.6zm0 5.1v2h.9c.5 0 .8-.3.8-1 0-.3-.1-.5-.2-.7-.2-.2-.4-.3-.6-.3h-.9zm14.1-8v3.4h-3.4v1.7h3.4v3.4h-3.4v1.6h3.4v3.3h-6.8V4h6.8zm7.8 4.3c-.3 0-.5 0-.8.2-.2.1-.5.3-.6.5-.3.4-.5 1-.5 1.7s.1 1.3.5 1.7c.2.2.4.4.6.5.2.1.5.2.8.2.4 0 .7 0 .8-.1.2 0 .4-.1.6-.2v4.6c-.1 0-.3.1-.5.1h-1c-1.8 0-3.2-.7-4.3-2.1-1-1.3-1.4-2.9-1.4-4.8 0-1.8.5-3.4 1.4-4.7 1-1.4 2.5-2.1 4.3-2.1h.8c.2.1.4.1.6.2v4.6c-.1-.1-.3-.2-.5-.2s-.5-.1-.8-.1zm3.2-4.3h7.5v3.7h-2v9.8h-3.4V7.7h-2l-.1-3.7zm13 5h2.1c1 0 1.8.4 2.4 1.1.7.7 1 1.7 1 3s-.3 2.4-1 3.2c-.3.4-.6.7-1.1.9-.4.2-.9.3-1.3.3h-5.5V4h7.9v2.8h-4.4l-.1 2.2zm0 3.3v1.9h.8c.6 0 .8-.3.8-1 0-.3-.1-.6-.2-.7-.1-.1-.2-.1-.3-.2-.1 0-.2-.1-.3-.1h-.8zm6.5 5.1L170 4h3.9l3.3 13.4h-3.3l-.5-1.9h-2.9l-.5 1.9h-3.3zm6.1-4.6l-.8-3.3-.9 3.3h1.7zm9.6-8.8v5.1h2.5V4h3.4v13.4h-3.4v-4.9h-2.5v4.9H179V4h3.4zm11.7 0v4.9l2.3-4.9h3.5l-3 6.2 3.1 7.2h-3.5l-2.5-5.8v5.8h-3.4V4h3.5zM11.2 0c5.7.2 10.3 4.9 10.3 10.7 0 2.9-1.1 5.6-3.1 7.6s-4.7 3.2-7.6 3.2c-2.9 0-5.6-1.1-7.6-3.1S0 13.7 0 10.8C0 8 1 5.4 3 3.4 4.9 1.4 7.5.2 10.3 0v3.1c-2 .1-3.8 1-5.2 2.4C3.8 6.9 3 8.8 3 10.8c0 1.1.3 2.3.8 3.3S5 16 5.9 16.8l2.9-7.7h-2s-.4-.1-.6.1l-.5.5V8.3c.1-.2.3-1.5.8-2.1.6-.6 1.5-.7 1.5-.7h6.5l-.9 1 2.3 10.2c.8-.7 1.5-1.6 2-2.6s.7-2.1.7-3.2c0-2-.8-3.8-2.1-5.3C15 4 13.2 3.2 11.2 3.1V0zM8.7 6.3c.2 0 .4.2.4.3 0 .3-.2.4-.3.4-.2 0-.4-.1-.4-.3 0-.2.1-.4.3-.4z"/>
</svg>