<svg xmlns="http://www.w3.org/2000/svg" viewBox="0 0 150 37.3">
	<g fill="#93130a">
		<path d="M119.3 0h1.3c.3.2.6.4.9.5.4-.1.6-.4 1-.5h1.3c-.4.8-1 1.7-2 1.6-1.2.2-2-.6-2.5-1.6zM0 2h4.2v31h8.3c2.8-8.4 5.6-16.9 8.4-25.3h8.7v24H19c.5-1.4.9-2.8 1.4-4.2h4.9V11.9h-1.2c-2.8 8.4-5.6 16.9-8.4 25.3H0V2z"/>
		<path d="M5.6 2h4.3v20.9c2.4-7 4.7-13.9 7-20.9h18.3v35.2H17.1c.5-1.4 1-2.9 1.4-4.3h12.4V6.3H20c-2.8 8.4-5.7 16.9-8.5 25.3h-6c.1-9.8.1-19.7.1-29.6zm36.6 0h2.2c.8 2.1 1.5 4.3 2.2 6.4.7-2.1 1.5-4.2 2.2-6.4H51v8.5h-1.7v-6c-.7 2-1.3 4-2.1 6h-1.4c-.6-2-1.4-4-2-6-.1 2 0 4 0 6.1h-1.7c.1-2.9.1-5.7.1-8.6zm13.2 0c1.6-.4 3.5.1 4.6 1.4 1.6 1.8 1.3 5-.7 6.4-2.1 1.7-5.7.9-6.8-1.6-1.2-2.4.3-5.7 2.9-6.2zm.3 1.6c-1.1.3-2 1.4-2 2.5-.2 1.5 1.1 3 2.7 3.1 1.8.2 3.5-1.7 2.9-3.5-.3-1.6-2-2.6-3.6-2.1zm6 2.5c0-2 1.5-3.8 3.5-4.2 2-.5 4.2.6 5 2.6h-1.8c-1-1.1-2.8-1.5-3.9-.4-1.3 1-1.4 3.2-.2 4.3 1.1 1.1 3 1 4-.1h1.9c-.5.8-1 1.6-1.8 2-1.6.9-3.9.7-5.3-.7-1-1-1.5-2.2-1.4-3.5zm13.2-3.6c.4-.9 1.6-.4 2.3-.5-1 1.4-2.2 2.8-3.2 4.2 1.1 1.4 2.1 2.8 3.2 4.3h-2c-.9-1.2-1.7-2.4-2.6-3.6v3.6H71V2h1.7v3.5c.7-.9 1.4-2 2.2-3z"/>
		<path d="M80 2.1c1.6-.5 3.6-.1 4.7 1.2 1.5 1.6 1.6 4.3.2 5.9-1.4 1.8-4.3 2.1-6.1.7-1.6-1.1-2.3-3.4-1.5-5.2.4-1.2 1.5-2.2 2.7-2.6zm.7 1.5c-1.2.3-2.1 1.4-2.1 2.6-.1 1.4.9 2.8 2.3 3 1.7.4 3.4-1 3.4-2.7.1-1.9-1.8-3.5-3.6-2.9zM87 2c1.4.1 2.9-.2 4.1.5 1.2.7 1.2 2.5.2 3.4 1.6.8 1.7 3.3.1 4.2-1.4.7-2.9.4-4.4.5V2zm1.6 1.6v1.7c.4 0 .9 0 1.3-.1.5-.2.6-.8.4-1.2-.4-.5-1.1-.3-1.7-.4zm0 3.2v2.1c.7-.1 1.5.2 2.1-.4.5-.5.2-1.3-.4-1.6-.5-.1-1.1 0-1.7-.1zm4.8-1.9c.4-1.4 1.7-2.6 3.1-2.9 1.2-.2 2.5-.1 3.5.6.7.5 1.2 1.2 1.6 1.9h-1.9c-.6-.6-1.4-1.2-2.3-1.1-1.7 0-3 1.7-2.7 3.4.3 1.4 1.7 2.5 3.1 2.3.7-.1 1.2-.6 1.7-.9.6-.1 1.2 0 1.9 0-.5.8-1 1.6-1.9 2-1.2.7-2.7.7-4 .1-1.7-.8-2.8-3.3-2.1-5.4zm9.2-2.9h1.6v3.6c.9-1.2 1.7-2.4 2.6-3.6h2c-1.1 1.4-2.1 2.8-3.2 4.2 1.1 1.5 2.1 2.9 3.2 4.3h-2c-.8-1.2-1.7-2.4-2.5-3.6v3.6h-1.6c-.1-2.8-.1-5.6-.1-8.5zm7 0h1.7v5.8c1.2-1.9 2.5-3.9 3.7-5.8h1.6v8.5H115V4.7c-1.2 1.9-2.4 3.9-3.7 5.8h-1.7V2zm8.5 0h1.6v5.9c1.2-1.9 2.5-3.9 3.7-5.8h1.6v8.5h-1.6V4.8c-1.3 1.9-2.5 3.9-3.7 5.8H118l.1-8.6zm26.2 11.3h1.3c.3.7 1.3.8 1.6 0h1.4c-.3 1.1-1.5 1.9-2.6 1.6-.8 0-1.4-.8-1.7-1.6zm-70.1 3.6c1.4-1.9 4.4-2.2 6.2-.8.6.4.9 1.1 1.3 1.7-.6 0-1.2.1-1.8 0-.6-.3-1.1-.9-1.8-1-1.6-.3-3.3 1.1-3.2 2.8-.1 1.6 1.4 3.1 3 2.9.8 0 1.4-.5 1.9-1h1.8c-.4.6-.7 1.3-1.3 1.7-1.7 1.3-4.5 1.1-6-.6-1.3-1.5-1.4-4.1-.1-5.7zm-32-1.5h1.7v5.8c1.2-1.9 2.5-3.9 3.7-5.8h1.6v8.5h-1.6v-5.8c-1.3 1.9-2.5 3.9-3.7 5.8h-1.6c-.1-2.8-.1-5.7-.1-8.5zm8.5 0h1.6v3.4h3v-3.4H57v8.5h-1.7v-3.6h-3v3.6h-1.7v-8.5zm7.9 6.9c1.1-2.3 2.1-4.6 3.1-6.9h1.4c1 2.3 2.1 4.6 3.1 6.9h.8v2.6h-1.6v-1h-6.1v1h-1.6v-2.6h.9zm3.8-4.6c-.7 1.5-1.3 3.1-2 4.6h4.1c-.7-1.5-1.4-3.1-2.1-4.6zm3.3-2.3h2c.8 1.5 1.4 3 2.2 4.4.6-1.5 1.3-3 1.9-4.4h1.8c-1.3 2.8-2.6 5.7-3.8 8.5H68c.3-.8.8-1.5 1-2.3-1.1-2.1-2.2-4.1-3.3-6.2zm16.2 0h4.8V17h-1.6v6.9h-1.7V17h-1.5v-1.6zm5.5 0c1.3.1 2.7-.2 4 .3 1.7.7 1.9 3.4.5 4.5-.8.6-1.9.6-2.9.6V24h-1.7c.1-.1.1-8.6.1-8.6zm1.7 1.6v2.2c.7 0 1.4.1 1.9-.4.4-.5.3-1.4-.3-1.6-.5-.3-1.1-.2-1.6-.2zm4.7-1.6h1.7v5.8c1.3-1.9 2.5-3.9 3.7-5.8h1.6v8.5h-1.6V18c-1.2 1.9-2.5 3.9-3.7 5.9h-1.7v-8.5zm11.3 0h1.3c1.2 2.8 2.4 5.7 3.6 8.5h-1.8c-.3-.7-.6-1.5-.9-2.2h-3.1c-.3.7-.6 1.5-.9 2.2h-1.8c1.2-2.8 2.4-5.7 3.6-8.5zm.7 2.4c-.3.8-.6 1.5-.9 2.3h1.8c-.3-.8-.6-1.5-.9-2.3zm4.2 6.1c1.1-2.8 2.2-5.7 3.4-8.5h1.4c1.1 2.8 2.3 5.7 3.4 8.5h-1.8c-.8-2.1-1.5-4.1-2.3-6.2-.8 2.1-1.5 4.1-2.3 6.2H110zm9-8.5h1.7v3.2c1 0 2.2-.1 3.1.5 1.4 1.1 1.2 3.7-.4 4.4-1.4.6-2.9.2-4.3.3l-.1-8.4zm1.7 4.8v2.1c.6 0 1.2.1 1.8-.1.8-.3.8-1.5.1-1.8-.7-.3-1.3-.2-1.9-.2zm4.9-4.8h1.7v3.4h3v-3.4h1.7v8.5h-1.7v-3.6h-3v3.6h-1.7v-8.5zm7.8 0h1.7v3.2c1 0 2.2-.1 3.1.5 1.5 1.1 1.2 3.8-.6 4.5-1.3.5-2.8.2-4.2.3v-8.5zm1.6 4.8v2.1c.6 0 1.2.1 1.8-.1.8-.3.8-1.7-.1-1.9-.5-.1-1.1-.1-1.7-.1zm4.9-4.8h1.6v8.5h-1.6v-8.5zm3.1 0h1.6v5.9c1.2-2 2.5-3.9 3.7-5.9h1.7v8.5h-1.7v-5.8c-1.2 1.9-2.5 3.9-3.7 5.8H143v-8.5zM42.2 28.7h5v1.6h-3.4v1.6c1.1 0 2.3-.1 3.2.6.9.7 1.1 2 .7 3-.3 1-1.3 1.6-2.2 1.6-1.1.1-2.3 0-3.4 0 .1-2.7.1-5.5.1-8.4zm1.7 4.9v2.1c.9 0 2.5.2 2.5-1.1-.2-1.3-1.6-1-2.5-1zm8-4.9h1.3c1.2 2.8 2.4 5.7 3.6 8.5H55c-.3-.7-.6-1.4-.8-2.1h-3.1c-.3.7-.6 1.4-.8 2.1h-1.8c1-2.8 2.2-5.6 3.4-8.5zm-.2 4.8h1.8c-.3-.8-.6-1.6-.9-2.3-.3.8-.6 1.5-.9 2.3zm5.8-4.8h1.7v3.4h3v-3.4h1.7v8.5h-1.7v-3.5h-3v3.5h-1.7v-8.5zm12 .1h2c-1.1 1.4-2.1 2.8-3.2 4.2 1.1 1.4 2.1 2.9 3.2 4.3-.8-.1-1.9.4-2.3-.5-.7-1-1.4-2.1-2.2-3.1v3.6h-1.7v-8.5H67v3.5c.8-1.2 1.7-2.4 2.5-3.5z"/>
	</g>
</svg>