<svg xmlns="http://www.w3.org/2000/svg" viewBox="0 0 141.1 41.5">
	<path fill="#1b3281" d="M103.8 2.2h-8.4v.7h.2c.5 0 .9.2 1.2.5.3.3.5.7.5 1.2v7.3h-8.6V6.7c0-1.5.1-3 .2-4.5h-8.4v.7h.2c.5 0 .9.2 1.2.5s.5.7.6 1.2v17.3c-.9.1-1.8.2-2.7.2-1 0-1.9-.1-2.9-.2-2.7-.5-3.1-3-3.1-4.5V6.6c0-1.5.1-2.9.2-4.4h-8.4v.7h.2c.4 0 .9.2 1.2.5s.5.7.6 1.2v11.7c0 2.2.7 6.9 6.6 7.8 1.8.3 3.7.4 5.6.4 3 0 6-.1 8.9-.3h.2c-.1-1.5-.2-3-.2-4.5v-5.4h8.6v5.4c0 1.5-.1 3-.2 4.5h6.6c-.1-1.5-.2-3-.2-4.5v-13l.3-4.5zM53.2 21.8c.8-1.5 1.6-3 2.5-4.5l8.8-14.5v-.6H45.2v4.5h.8c0-.5.2-1 .5-1.4s.8-.6 1.3-.6h8c-.8 1.5-1.6 3-2.5 4.4l-8.8 14.6v.6h20.7v-2.6c-1.5.1-2.9.2-4.4.2h-7.6v-.1zM41.8 2.2h-8.7V3h.2c1.1 0 2 .9 2 2v14.7c0 1.5-.1 3-.2 4.5h6.6c-.1-1.5-.2-3-.2-4.5v-13l.3-4.5zM29.2 9c-.3-3-.5-6-.7-9H21c-1.2 3-2.4 6-3.7 9l-1.7 4-1.8-4c-1.3-3-2.6-6-3.8-9H.2v.8c.5 0 1 .2 1.4.6.4.4.6.9.6 1.4C2 4.9 1.9 6.9 1.7 9l-.6 6.3c-.3 3-.7 6-1.1 9h3.1c.2-3 .4-6 .7-9l1-9.5c1.4 2.9 2.7 5.8 4 8.7l.3.8c1.3 3 2.6 6 3.8 9h.9c1.2-3 2.4-6 3.7-9l.6-1.3L22 5.3l1 10c.3 3 .5 6 .7 9h7.2c-.4-3-.8-6-1.1-9L29.2 9zm102.9 3.8c-.2-7.2-6.6-10.9-12.9-10.9-6.4 0-12.9 3.8-12.9 11.3s6.5 11.3 12.9 11.3 12.9-3.8 12.9-11.3v-.4zm-12.9 9.3c-4.9 0-6.6-4.8-6.6-8.9s1.7-8.9 6.6-8.9c4.9 0 6.6 4.8 6.6 8.9s-1.7 8.9-6.6 8.9z"/>
	<path fill="#ed1a3b" d="M11.5 35.9c17.8-4 35.9-6 54.1-5.9 26.2 0 51.6 3.9 75.4 11.2.1 0 .1.1.1.2s-.1.2-.2.1c-24.9-4.1-50-6.3-75.2-6.8-18.1-.3-36.1.3-54.1 1.9-.1 0-.2 0-.2-.1-.1-.1-.1-.1-.1-.2V36c.1 0 .1-.1.2-.1"/>
</svg>