<svg xmlns="http://www.w3.org/2000/svg" viewBox="0 0 140.4 24">
	<g fill="#bb0032">
		<path d="M68.9 0H63v24h5.3V8.2h.3l5.6 9.1H77l5.6-9.1h.3V24h5.3V0h-5.8l-6.7 10.9L68.9 0zm30.3 0h-5.3v24h5.3V13.7h2.7l7.4 10.3h6.9l-9.9-12.8 9-11.2h-6.7l-6.8 8.8-2.6.3V0zm40 0H120v24h10.9c1.4 0 2.6-.2 3.8-.5 1.2-.4 2.1-.9 3-1.5.8-.7 1.5-1.5 2-2.4.4-1 .7-2.1.7-3.3s-.3-2.4-.7-3.4c-.5-.9-1.2-1.7-2-2.4-.9-.7-1.9-1.1-3-1.4-1.2-.3-2.4-.5-3.8-.5h-5.6V4.8h9.1l4.8-4.8zm-13.8 19.2v-6h5.7c1.2 0 2.2.3 2.8.8.7.5 1 1.2 1 2.2 0 .9-.3 1.6-1 2.2-.7.5-1.7.8-3 .8h-5.5zM29.9 0l-12 12-6-6 6-6h-12L0 6l18 18L33.3 8.5h9.2L51 0H29.9z"/>
		<path d="M20.5 23.7l1.7-1.7L34 10.2h17l-8.5 8.5h-5l-5 5.1c0-.1-12-.1-12-.1z"/>
	</g>
</svg>