<svg xmlns="http://www.w3.org/2000/svg" viewBox="0 0 172 28.5">
	<path fill="#253c77" d="M42.5 22.8h-2.2c-.2 0-.3-.1-.3-.4V6.1c0-.2.1-.4.3-.4h2.6c.1 0 .2 0 .2.1s.1.1.1.2l2.9 5.4c.6 1.1 1.3 2.5 2 4.2h.1c.7-1.7 1.4-3.1 2-4.2l3-5.4c0-.1.1-.1.2-.2.1 0 .2-.1.2-.1h2.7s.1 0 .1.1l.1.1v16.6s0 .1-.1.1l-.1.1H54c-.2 0-.3-.1-.3-.4v-4.8c0-1.9.1-4.4.2-7.5h-.1c-.5 1-1.2 2.5-2.2 4.4l-2.1 4.1c0 .1-.1.1-.2.2-.1 0-.2.1-.2.1h-1.8c-.1 0-.2 0-.2-.1-.1 0-.1-.1-.2-.2l-2.1-4.1c-1-1.9-1.7-3.4-2.2-4.4h-.1c.1 3.1.2 5.6.2 7.5v5s0 .1-.1.1l-.1.1v.1zM70 18.3c0 .7-.1 1.3-.3 1.9-.3.6-.6 1.2-1.1 1.6-1.2.8-2.5 1.3-4 1.3s-2.8-.5-4-1.3c-.5-.4-.9-1-1.2-1.6-.3-.6-.4-1.3-.4-1.9v-3.2c0-.7.1-1.3.3-2 .3-.6.6-1.2 1.1-1.6 1.1-.9 2.5-1.3 4-1.3s2.8.5 4 1.3c.5.5.9 1 1.2 1.6s.4 1.3.4 2v3.2zm-8.1 0c0 1.6.9 2.3 2.7 2.3.7.1 1.4-.2 2-.6.2-.2.4-.5.5-.8.1-.3.2-.6.1-.9v-3.2c0-.3 0-.7-.2-1-.1-.3-.3-.6-.5-.8-.6-.4-1.3-.6-2-.6s-1.4.2-2 .6c-.2.2-.4.5-.5.8s-.2.6-.1 1v3.2zM73.6 26h-1.9-.1s-.1 0-.1-.1l-.1-.1v-5.1-.1s0-.1.1-.1.1-.1.1-.1h.6c.7-.7 1.1-1.5 1.2-2.5.4-2.4.7-4.7.8-7.1v-.1s0-.1.1-.1l.1-.1h8c.2 0 .4.1.4.3v9.6h1.3s.1 0 .1.1l.1.1v5.1c0 .2-.1.3-.4.3H82c-.2 0-.4-.1-.4-.3v-2.9h-7.9v2.9c.2.2.1.3-.1.3zm3.2-13.1c-.3 4-.9 6.5-1.7 7.5h5v-7.5h-3.3zm17.1 6.6v-8.7c0-.2.1-.3.4-.3h2.1c.2 0 .4.1.4.3V22c0 3.7-1.8 5.6-5.3 5.6-1.7.1-3.4-.5-4.7-1.5l-.1-.1s0-.1-.1-.1v-.1s0-.1.1-.1l1-1.5c.1-.2.3-.2.4-.1.9.7 2.1 1.1 3.3 1.1.4 0 .7 0 1.1-.1.3-.1.7-.3.9-.6.5-.7.7-1.6.6-2.4-.8.3-1.7.4-2.6.4-1.3 0-2.6-.4-3.6-1.3-.5-.4-.9-1-1.2-1.6-.3-.6-.4-1.3-.3-2v-6.8c0-.2.1-.3.4-.3h2.2s.1 0 .1.1.1.1.1.1v6.8c0 .4 0 .7.2 1 .1.3.3.6.6.9.6.4 1.3.6 2 .6.6 0 1.3-.2 2-.5zm9.3-.7c-.1 1.2-.6 2.3-1.4 3.2-.8.7-1.9 1.1-3 1-.2 0-.3-.1-.3-.4v-1.8c0-.1 0-.2.1-.3.1-.1.1-.1.2-.1.2 0 .4-.1.6-.2.2-.1.4-.2.5-.4.3-.6.6-1.2.7-1.9.3-2.4.5-4.8.6-7.2v-.1s0-.1.1-.1l.1-.1h8.2c.2 0 .4.1.4.3V22.5s0 .1-.1.1l-.1.1h-2.2-.1s-.1 0-.1-.1l-.1-.1v-9.7h-3.5c-.1 2-.3 4-.6 6zm14.6 4h-5-.1s-.1 0-.1-.1l-.1-.1V10.8c0-.2.1-.3.4-.3h2.1c.2 0 .4.1.4.3v3.7h2.5c1.3-.1 2.5.3 3.6 1.1.4.4.8.9 1 1.4s.3 1.1.3 1.7c0 .6 0 1.2-.3 1.7s-.6 1-1 1.4c-1.2.7-2.5 1.1-3.7 1zm-2.6-6.1v3.8h2.1c1.7 0 2.6-.6 2.6-1.9 0-.3 0-.6-.1-.8-.1-.3-.3-.5-.5-.6-.6-.4-1.3-.5-2-.5h-2.1zm11.2-4.1h4.5c1.5-.1 3.1.3 4.3 1.2.5.5.9 1.1 1.1 1.8.2.7.3 1.4.3 2.1 0 .7-.1 1.4-.3 2.1-.3.7-.7 1.3-1.2 1.7-1.2.9-2.6 1.4-4.1 1.3h-5.8c-.1 0-.2-.1-.2-.2V5.9c0-.1.1-.2.2-.2H135.5V6.9h-.1-9v5.7zm0 9h4.6c1.1.1 2.3-.3 3.2-1 .4-.4.7-.8.9-1.3.2-.5.3-1.1.2-1.6.1-.5 0-1.1-.2-1.6s-.5-1-.9-1.4c-1-.7-2.1-1.1-3.3-1h-4.5v7.9zm12.7-10.1c1.3-.8 2.8-1.3 4.4-1.2.6 0 1.2 0 1.8.2.6.2 1.1.5 1.6.9.4.4.7 1 .9 1.5.2.6.3 1.2.3 1.8V22.1l-.1.1c-1.4.5-2.9.8-4.4.8-1.3.1-2.5-.3-3.6-1-.5-.3-.8-.7-1.1-1.3-.2-.5-.4-1.1-.3-1.6 0-.5.1-1.1.3-1.6.2-.5.6-.9 1-1.2 1.1-.7 2.4-1.1 3.7-1 1.1 0 2.2.2 3.4.4v-1c0-2.2-1.1-3.4-3.4-3.4-1.3 0-2.6.3-3.7 1-.1.1-.2.1-.3 0l-.4-.6c-.2-.1-.2-.2-.1-.2zm.6 7.7c0 .4.1.8.2 1.1.2.3.4.6.8.9.8.5 1.7.8 2.7.7 1.1 0 2.3-.2 3.4-.6v-4.5c-1.1-.2-2.2-.4-3.4-.4-2.5.1-3.7 1-3.7 2.8zm11.8 3.6h-.9c-.1 0-.2-.1-.2-.2V10.7v-.1-.1h1.1c.1 0 .2.1.2.2v5.1h6.9v-5.1c0-.1.1-.2.2-.2h1.1v12.1c0 .1-.1.2-.2.2h-.9-.1-.1v-.1V17h-6.9V22.8h-.2c.1 0 0 0 0 0zm20.3 0h-1.1-.1l-.1-.1-5.2-5.9-1.8 1.7V22.8h-.1-.9c-.1 0-.2-.1-.2-.2v-12-.1-.1h1c.1 0 .2.1.2.2v6.3l6.6-6.4.1-.1H171.5s.1 0 .1.1c0 0 0 .1-.1.2l-5.4 5.3 5.8 6.6c.2.2.1.2-.1.2zM22.8 5.7V0H11.4v5.7h5.7v5.7h5.7v5.7h5.7V5.7h-5.7zm0 17.1h5.7v5.7h-5.7v-5.7zm-5.7-5.7h5.7v5.7h-5.7v-5.7zm0 0v-5.7h-5.7V5.7H5.7V0H0v11.4h5.7v5.7H0v11.4h5.7v-5.7h5.7v-5.7h5.7zm-5.7 5.7h5.7v5.7h-5.7v-5.7z"/>
</svg>