<svg xmlns="http://www.w3.org/2000/svg" viewBox="0 0 170 22.3">
	<path fill="#fff" d="M11.2 22.1c-2.2 0-4.3-.6-6.1-1.8-1.8-1.2-3.2-2.9-4-4.9S0 11.2.5 9c.4-2.1 1.5-4.1 3-5.6S7 .8 9.1.4c2.1-.4 4.3-.2 6.3.6s3.7 2.2 4.9 4c1.2 1.8 1.8 3.9 1.8 6.1 0 1.4-.3 2.9-.8 4.2-.5 1.3-1.4 2.5-2.4 3.5s-2.2 1.8-3.5 2.4c-1.4.6-2.8.9-4.2.9z"/>
	<g fill="#ff0500">
		<path d="M147.7 7.4V1.6c0-.3.1-.3.3-.3h4.4c.3 0 .3.1.3.3v19.9h-5v-13h-3.9v13h-5V1.3h5v6.2l3.9-.1zm-12.2 14h-5V8.3h-3.9v13h-5V2.9c0-.2 0-.4.2-.6.1-.2.3-.3.4-.4.6-.4 1.3-.6 2-.6 2.3-.1 4.7-.1 7.1-.1 1 0 2 .2 2.9.4.3.1.6.2.8.4.2.1.3.2.4.4.1.2.1.4.1.5V21c.1.2.1.3 0 .4zm-8.8-14h3.8V2.1h-3.8v5.3zM156 1.3h5v5.8c0 .3 0 .3.3.3.6.1.9-.1 1.1-.7.7-1.7 1.5-3.5 2.3-5.2 0-.1.1-.2.2-.2.1-.1.2-.1.3-.1h4.8c-1.1 2.1-2.2 4.1-3.3 6.2l1.8.3c.2.1.5.1.7.3.2.1.5.3.6.5.1.2.2.5.2.8v12.1h-5v-13h-3.9v13h-5C156 14.7 156 8 156 1.3zm-51.6 20.1V1.6c0-.3.1-.4.4-.4h12.5V2h-7.8v2h4.8c1 0 2 .1 2.9.4l.6.3c.2.1.3.2.4.4.1.2.1.4.1.6v13.9c0 .2 0 .4-.1.6s-.3.3-.5.4c-.6.2-1.2.4-1.9.5-.9.1-1.9.2-2.8.1h-8.2c-.1.2-.2.2-.4.2zm5.1-.8h3.9V5h-3.9v15.6zM42.6.9v20.5h-3.2V5l-1 1c-.3.3-.8.7-1.2 1-.1 0-.2.1-.2.2s-.1.2-.1.3v13.9h-3.2V7.6v-.3c0-.1-.1-.2-.2-.2-.7-.5-1.4-1.1-2-1.7l-.2-.2v16.3h-3.2V.9c.4.3.8.6 1.1.9 2 1.7 4 3.4 6 5 .2.2.3.1.4 0C37.8 5 40.1 3 42.4 1.1l.2-.2zm35.6 10.5v8.3c0 .3 0 .6-.2.8-.2.2-.4.4-.7.5-.6.2-1.2.3-1.8.4h-3.4c-.6 0-1.3-.2-1.9-.4-.3-.1-.5-.3-.7-.5-.2-.2-.2-.5-.2-.8V3.1c0-.3.1-.6.2-.8.2-.3.5-.5.8-.6.7-.3 1.5-.4 2.2-.3h3.3c.6.1 1.1.2 1.7.4.2 0 .4.2.5.4.1.2.2.5.1.8.1 0 .1 8.4.1 8.4zM75 2.3h-2.4v18.3H75V2.3zm-29.3 9V3.1c0-.3 0-.6.2-.9.2-.3.5-.5.8-.5.7-.2 1.4-.3 2.2-.3H52c.5 0 1 .1 1.5.3.3.1.6.3.8.5.2.3.3.6.2.9v17.1c0 .2-.1.4-.2.5-.1.1-.2.3-.4.4-.2.1-.3.2-.5.2l-1.5.3h-3.4c-.6 0-1.2-.2-1.8-.4-.3-.1-.5-.3-.7-.5-.2-.2-.2-.5-.2-.8-.1-3-.1-5.8-.1-8.6zm3.2-9v18.3h2.4V2.3h-2.4zm32.4 19.1v-20h8.1v.9h-4.9v2h.3c1 0 2 0 3 .1.5.1 1 .2 1.5.4.2.1.4.3.6.5s.1.4.1.6v13.8c0 .3-.1.6-.2.8-.2.2-.4.4-.6.5-.6.2-1.2.4-1.8.4h-6-.1zm3.2-16.3v15.5h2.4V5.1h-2.4zM66.3 6.2h-3.1V2.3h-2.4v18.3h2.4V9.7h3.2V20.1c-.1.2-.2.5-.3.6-.1.2-.3.3-.6.5-.2.1-.5.2-.7.2-.4.1-.9.1-1.3.1-1.3 0-2.6 0-3.9-.1-.5-.1-.9-.2-1.3-.4-.2-.1-.4-.3-.5-.5-.1-.2-.2-.5-.2-.7V3c0-.3.1-.6.2-.8.2-.2.4-.4.7-.5.7-.3 1.5-.4 2.3-.3h3.1c.6 0 1.2.1 1.8.4.1.1.3.2.4.4.1.2.2.4.2.7v3.3c0-.1 0-.1 0 0 0-.1 0 0 0 0zm35.3 15.2h-3.1V4.3H96v17.2h-3.2v-9.3c-.1-2.5.5-5 1.6-7.2.8-1.4 1.7-2.8 2.8-3.9.3.4.7.8 1 1.2 1.5 1.8 2.5 3.9 2.9 6.2.2 1.3.3 2.7.4 4l.1 8.9c-.1 0 0 0 0 0zM11.2.5c2.5 0 4.9.9 6.8 2.4 1.9 1.6 3.2 3.7 3.7 6.2.5 2.4.1 4.9-1.1 7.1-1.2 2.2-3 3.9-5.3 4.8-2.3.9-4.8 1.1-7.2.4-2.4-.7-4.4-2.2-5.8-4.3-1.4-2-2-4.5-1.8-7s1.3-4.7 3.1-6.5c1-1 2.2-1.8 3.5-2.3C8.4.8 9.8.5 11.2.5zm0-.5C9 0 6.8.7 5 1.9s-3.3 3-4.1 5c-.8 2-1.1 4.3-.6 6.5.4 2.2 1.5 4.2 3.1 5.7C5 20.7 7 21.7 9.1 22.2c2.2.4 4.4.2 6.5-.6 2-.8 3.8-2.3 5-4.1s1.9-4 1.9-6.2c0-3-1.2-5.8-3.3-7.9C17 1.2 14.1 0 11.2 0z"/>
		<path d="M5.2 7.3v7l4.7-4.8V7.3L7.5 5 5.2 7.3zM14.1 5H8.9l2.4 2.3v2.3l2.6 2.6 2.6-2.6V7.3L14.1 5zM13.3 12.7L10.6 10v.8l1.9 1.9-3.6 3.6H5.1l-1.4.5h5.4l4.2-4.1zM17.1 9.9l-.5 1.4v5h-5l-1.4.5h6.9V9.9z"/>
	</g>
	<path fill="url(#gr1)" d="M10.6 10.8l-5.5 5.5h3.8l3.6-3.6-1.9-1.9z"/>
	<linearGradient id="gr1" gradientUnits="userSpaceOnUse" x1="11.5334" y1="12.2584" x2="6.0734" y2="6.7884" gradientTransform="matrix(1 0 0 -1 0 24)">
		<stop offset="0" stop-color="#f9f6f1"/>
		<stop offset="1" stop-color="#c8b67f"/>
	</linearGradient>
	<path fill="url(#gr2)" d="M10.6 10.8V10l-6.8 6.8 1.4-.5 5.4-5.5z"/>
	<linearGradient id="gr2" gradientUnits="userSpaceOnUse" x1="10.7825" y1="13.7975" x2="3.9625" y2="6.9775" gradientTransform="matrix(1 0 0 -1 0 24)">
		<stop offset="0" stop-color="#f7f4ec"/>
		<stop offset="1" stop-color="#cab880"/>
	</linearGradient>
	<path fill="url(#gr3)" d="M16.5 11.3l.6-1.4-6.9 6.9 1.4-.5c-.1 0 4.9-5 4.9-5z"/>
	<linearGradient id="gr3" gradientUnits="userSpaceOnUse" x1="1499.7521" y1="-1475.3787" x2="1452.4181" y2="-1428.0486" gradientTransform="matrix(1 0 0 -1 0 24)">
		<stop offset="0" stop-color="#f7f4ec"/>
		<stop offset="1" stop-color="#cab880"/>
	</linearGradient>
	<path fill="url(#gr4)" d="M16.5 16.3v-5l-5 5h5z"/>
	<linearGradient id="gr4" gradientUnits="userSpaceOnUse" x1="1089.1327" y1="-1062.6848" x2="1064.6827" y2="-1038.2848" gradientTransform="matrix(1 0 0 -1 0 24)">
		<stop offset="0" stop-color="#f9f6f1"/>
		<stop offset="1" stop-color="#c8b67f"/>
	</linearGradient>
</svg>