<svg xmlns="http://www.w3.org/2000/svg" viewBox="0 0 147.4 31.7">
	<path fill="#d3d5d6" d="M97.5 31.7h13.6L102.5 10l-5 21.7z"/>
	<path fill="#adafb2" d="M98.6 0l3.9 10 8.6 21.7 5-21.7-3.9-10H98.6z"/>
	<path fill="#75bee9" d="M113.1 31.7l5.1-21.7 8.5 21.7h-13.6z"/>
	<path fill="#0072bc" d="M131.7 10l-5 21.7-8.5-21.7-4-10h13.6l3.9 10z"/>
	<path fill="#f37164" d="M128.8 31.7l5-21.7 8.6 21.7h-13.6z"/>
	<path fill="#ed1b35" d="M147.4 10l-5 21.7-8.6-21.7-3.9-10h13.5l4 10z"/>
	<path fill="#4d4d4f" d="M7.5 14.2L4.1 7H0v12h3v-8.3L6.8 19h1.3l3.9-8.3V19h3V7h-4.2l-3.3 7.2zm15.7-5.3c1.4 0 2.6.8 3.2 1.8l2.5-1.1C28 8 26.3 6.5 23.3 6.5c-4.1 0-7.2 2.7-7.2 6.5 0 3.9 3.2 6.5 7.2 6.5 2.9 0 4.6-1.5 5.6-3.1l-2.5-1.1c-.6 1-1.8 1.8-3.2 1.8-2.4 0-4.2-1.7-4.2-4.1s1.8-4.1 4.2-4.1zm7.3 10.4h2.9V9.2h6.3v10.1h2.9V6.8H30.5v12.5zm25.9-8h-3.5V9.1h7V6.8H50v12.5h6.4c2.9 0 4.5-1.8 4.5-4s-1.6-4-4.5-4zM56 17h-3.1v-3.2H56c1.1 0 1.9.6 1.9 1.6S57.1 17 56 17zm10.7-6.8c-1.6 0-3.1.4-4.3 1.4l1 1.6c.8-.7 1.8-1.1 2.8-1.1 1.2 0 2.1.6 2.1 1.5v1.2c-.7-.7-1.8-1.1-3.1-1.1-1.6 0-3.4.8-3.4 2.9 0 2 1.8 3 3.4 3 1.3 0 2.4-.5 3.1-1.2v1.1H71v-5.9c0-2.6-2.1-3.4-4.3-3.4zm1.6 7c-.5.5-1.3.7-2.1.8-1 0-1.8-.5-1.8-1.3 0-.9.8-1.4 1.8-1.4.9 0 1.7.3 2.1.8v1.1zm11.5-3.5h-4.1v-3.5h-2.5v9.1h2.5v-3.6h4.1v3.6h2.5v-9.1h-2.5v3.5zm10.4.7l3.9-4.2H91l-3.7 4v-4h-2.6v9.1h2.6v-2.4l1.1-1 2.6 3.4h3.2l-4-4.9z"/>
</svg>