<svg xmlns="http://www.w3.org/2000/svg" viewBox="0 0 150.8 24">
	<path fill="#e30600" d="M0 14.5C0 19.3 2.6 24 8.6 24s8.6-4.8 8.6-9.5c0-3.2-1.1-6.9-2.9-9.9C12.5 1.7 10.4 0 8.6 0S4.7 1.7 2.9 4.6C1.1 7.6 0 11.3 0 14.5zm60.9-7.4h-6V1.3h18.4v5.8h-6v15.6h-6.4V7.1zm26.1 0h9.4V1.3H87c-8.7 0-13.3 4.3-13.3 10.7 0 6.4 4.6 10.7 13.3 10.7h9.4v-5.8H87c-4 0-6.7-1.4-6.7-4.9 0-3.5 2.7-4.9 6.7-4.9zm-48.7 7l3.4-12.8h11.4v21.4h-6.4V5.3L42 22.7h-7.4L30 5.3v17.4h-6.4V1.3H35l3.3 12.8zm74.1-6.6h-2.3v2.1h2.3c.6 0 .9-.3.9-.8v-.4c.1-.6-.2-.9-.9-.9zm.6 4.5h-5.9V1.3h8.6v2.6h-5.6v1.4h2.8c2.4 0 3.5 1.2 3.5 3.3.1 2.1-1 3.4-3.4 3.4zm10.5-4.4h-2.4l1.2-4 1.2 4zm4.6 4.4l-3.3-10.7h-4.5L117 12h2.8l.6-2h3.8l.6 2h3.3zm7.7 0V7.9h-3.5V12h-3.1V1.3h3.1v3.9h3.5V1.3h3.1V12h-3.1zm8.6-6.8h-.5V1.3h-3.1V12h3.1V7.9h.4l2.9 4.1h3.6l-3.9-5.6 3.6-5.1h-3.3l-2.8 3.9z"/>
</svg>