<svg xmlns="http://www.w3.org/2000/svg" viewBox="0 0 149.9 35.2">
	<path fill="#5a5a5a" d="M69.7 15.7l-6.1-9.8h-5.5v23.4H63V14.1l6.6 9.8h.1l6.5-9.9v15.3h4.9V5.9h-5.3l-6.1 9.8zm30.4 3.6c0 3.7-2 5.6-5.1 5.6s-5.1-1.9-5.1-5.7V5.9H85v13.4c0 6.8 3.7 10.3 10 10.3 6.2 0 10.1-3.5 10.1-10.5V5.9h-4.9v13.4h-.1zm8.8 10h4.9v-8.8h10.3v-4.9h-10.3v-4.9H127V5.9h-18.1v23.4zm30.8-13.7v4.9h5.4v3c-1.5.9-2.9 1.4-4.8 1.4-4.1 0-7-3.1-7-7.4v-.1c0-3.9 2.9-7.2 6.6-7.2 2.7 0 4.2.9 6 2.4l3.2-3.9c-2.4-2.1-4.9-3.2-9.1-3.2-7 0-12.1 5.4-12.1 12v.1c0 6.9 4.9 12 12.1 12 4.3 0 7.4-1.7 9.9-3.7V15.6h-10.2z"/>
	<g fill="#e60000">
		<path d="M24.8 10.3c-4 0-7.3 3.3-7.3 7.3s3.3 7.3 7.3 7.3 7.3-3.3 7.3-7.3-3.3-7.3-7.3-7.3z"/>
		<path d="M32 0c-2.6 0-5 .5-7.2 1.5C22.6.5 20.2 0 17.6 0 7.9 0 0 7.9 0 17.6s7.9 17.6 17.6 17.6c2.6 0 5-.6 7.2-1.5 2.2 1 4.6 1.5 7.2 1.5 9.7 0 17.6-7.9 17.6-17.6C49.5 7.9 41.7 0 32 0zm-7.2 33.5c-8.8 0-15.9-7.1-15.9-15.9S16 1.7 24.8 1.7s15.9 7.1 15.9 15.9-7.1 15.9-15.9 15.9z"/>
	</g>
</svg>