<svg xmlns="http://www.w3.org/2000/svg" viewBox="0 0 170.2 29.3">
	<path fill="#010101" d="M170.1 17c-.2-.9-.8-1.7-1.6-2.2-1.1-.6-2.4-.9-3.6-1.1-1.3-.2-2.6-.3-3.9-.4-1.4-.1-2.8-.1-4.1-.5-.6-.2-1.1-.6-1.1-1.2-.1-.6.5-1.1 1.1-1.3 1.2-.5 2.5-.5 3.8-.5 2.4 0 4.7.5 6.8 1.6.4-.5 1.3-1.4 1.8-2.1-2.5-1.6-5.5-2.2-8.4-2.2-2.1 0-4.2.3-6 1.2-1.1.6-2 1.6-2.2 3-.2.8-.2 1.7.2 2.4s1.1 1.3 1.8 1.6c1.1.5 2.4.7 3.7.8 1.6.2 3.3.2 4.9.3.9.1 1.8.2 2.6.6.5.2 1 .7 1 1.3 0 .6-.3 1.1-.8 1.5-.7.5-1.7.8-2.6.9-3.4.4-7-.1-9.9-2.1-.5.7-1.1 1.4-1.6 2.1 2.8 2.1 6.3 2.7 9.7 2.7 1.9-.1 3.9-.3 5.7-1.1.9-.5 1.7-1.1 2.2-1.9.6-1 .7-2.3.5-3.4zM68.5 20.5L58 7.6h-4.5v15.5h3V10.2l10.6 12.9h4.4V7.6h-3v12.9zm76.7-13h3V23h-3V7.5zm-4.4 0H137l-5.8 5.8-5.9-5.8h-3.8l7.7 7.7-8 7.8h3.8l6-5.9 6.3 5.9h3.8l-8-7.9 7.7-7.6zm-26 15.5h3.1V7.5h-3l-.1 15.5zM93.7 10.3h7.4V23h3V10.2h7.4V7.5H93.7v2.8zm-11-2.8L74.3 23h3.3l1.8-3.3h10.4l1.8 3.3h3.3L86.5 7.5h-3.8zM80.9 17l3.7-6.8 3.6 6.8h-7.3z"/>
	<path fill="#382c3f" d="M14.1 12.6c.2 0 .5-.1.8-.2s.7 0 1-.2c.1 0 .2.1.3.1v.4h.1c.2-.2.3-.5.4-.7l-.1-.1.3-.6c-.1-.1-.1-.2-.2-.3.1-.1.3-.1.5-.1 0-.3.1-.7 0-1-.1-.3 0-.7 0-1-.2-.2-.4-.5-.6-.7.2-.2.4-.3.6-.4-.3-.4-.5-.9-.5-1.4-.1 0-.3-.1-.4-.1v-.5h-1.8c-.6.1-1.2.1-1.8.3-.3 0-.5.2-.8.2-.1 0-.2.1-.3.1l-.1-.2h-.2v.1h.2v.2c-.5.2-1 .3-1.4.7-.2.2-.6.3-.9.4-1.2.7-2.3 1.5-3.3 2.3-.2.1-.6.2-.6.5.6-.2 1.2-.5 1.8-.8-.1.3-.4.5-.7.6.4.4.9.7 1.4.5.2.1.4-.1.6-.3h.4c0-.1.1-.2.1-.3h.4c.1-.1.2-.3.2-.4h.4c.1-.3.4-.6.5-1h.3v-.3h.2c.2-.2.3-.4.4-.6H11c-.1-.2-.2-.4-.3-.5h.5c.7-.6 1.7-.7 2.5-1 .5-.2.9-.2 1.4-.2l.1.1c-.3.3.2.6.4.7 0 .1-.1.2-.1.2.1.2.1.6.1.9-.3.2-.6.4-.7.8.2 0 .4.2.5.4-.2.1-.3.2-.4.2.3.2.5.3.7.5-.2.5-.8.8-.9 1.4-.1.3-.4.7-.6 1h-.7c-.6.2-1.2.4-1.7.7-.6-.1-.9.4-1.4.5-.1-.1-.2-.3-.2-.4h-.1v.4c-.1 0-.2.1-.3.2 0 .2-.1.4-.1.5-.1-.1-.2-.2-.3-.2 0 .2-.1.4-.1.5-.5 0-.9.3-1.4.5v.2c-.1-.1-.3-.1-.4-.1h-.1c-.1.2-.1.4-.1.5-.1.1-.3.2-.5.2-.1 0-.1.1-.1.1-.3.1-.6.3-.8.5l.1.2c.4-.1.7-.3 1.1-.4.5-.3.8-.6 1.2-.7.4-.2.7-.5 1.1-.7.2-.2.6-.2.8-.4.4-.3.8-.4 1.2-.6l.9-.6h.4c0-.1.1-.2.1-.2.5-.1.9-.2 1.3-.4zm2.2-6.8v-.2c-.1.1-.2.2 0 .2zm21 5.4c-.1 0-.2.1-.3.1l.3-.1c.2 0 .4-.3.4-.5h.2v-.2h-.3c-.1.2-.2.4-.3.7zm-33.1-.5c-.1.2-.2.3-.3.9h-.2c-.2.2-.3.4-.6.4-.1.1-.2.2-.2.3-.2 0-.3.2-.4.2l-.2.1-.1.2c-.2 0-.4.1-.5.2 0 .3-.2.5-.4.7-.1.4-.5.7-.6 1.1 0 .1-.2.2-.2.2v.3c-.2.1-.3.2-.5.3h.3c0 .1.1.3.1.4h.2c0 .3.3.4.5.4v.2c.1-.1.2-.2.3-.2.1.2.3.4.5.5v-.1c.2 0 .4 0 .6.1.1-.1.2-.2.3-.2-.2-.1-.5-.1-.7-.3l-.4-.4c-.4-.3-.8-.9-.6-1.5.3-1 1.2-1.6 1.9-2.2.4-.3.7-.8 1.2-.7v-.4h.4c.1-.3.2-.6.4-.9l-.1-.1c-.2.2-.4.4-.7.5zm34.3-5.6c-.3 0-.5.2-.7.4-.1 0-.2-.1-.3-.1.2-.2.3-.4.4-.5-.2.1-.5.2-.7.3-.1-.1-.1-.2 0-.2-.3.2-.6.5-.8.8-.3 0-.5-.2-.7 0-.4.3-.7.6-1.2.6-.3.5-1 .5-1.5.9-.1 0-.2-.2-.2-.2v.3c-.2.3-.5.5-.8.7 0 .1.1.2.1.3.1 0 .1.2.1.2h.5V9c-.2 0-.3.1-.5.1 0 .1-.1.2-.2.2.1.1.2.2.3.2v.2c.1.1.3.2.4.2.2 0 .2-.3.3-.4.3 0 .4-.2.5-.4-.1.1-.3.2-.4.2.1-.1 0-.4.2-.4s.5.1.7.2c0-.2-.1-.4-.2-.5h.7c-.3-.2-.6-.3-.7-.6.2-.1.5 0 .7 0 .1-.3 0-.5-.1-.7.4-.2.9-.2 1.3.1l.2-.2c.1 0 .2.1.3.1.1-.2.1-.3.2-.5 0-.1.2-.1.2-.1v-.2h.5c.1.3.1.6.3.9.1-.1.1-.3.2-.4 0 0 .1.1.2.1v-.3c-.1-.1-.3-.2-.4-.2.1-.3.3-.7.7-.7-.1 0-.2-.2-.2-.2h.4c.1-.2.2-.4.2-.6zm-21 22.7h-.4c-.3-.1-.5-.1-.7-.1-.2-.3-.6-.5-.9-.8.1-.2.2-.3.2-.4.1.1.3.2.4.3v-.4c.1-.1.2-.2.3-.2-.2-.1-.5-.3-.7-.4l-.2.1c0 .2.1.4.2.5-.4 0-.6-.3-.7-.5-.3.2-.4.4-.4.7-.2-.1-.3-.3-.4-.4v-.4c-.3.1-.5.2-.7.3-.1 0-.2 0-.1.1-.3 0-.4.3-.4.5.1-.1.2-.2.3-.2 0 .1.1.2.2.3-.2.1-.5.2-.7.2.2.1.4.3.5.4h-.5c.1.1.2.2.2.3.2 0 .3.2.4.4.2 0 .3.2.5.3h.3v.1l-.1.2c.3.3.8.2 1.2.2l.2.2c.1-.3.5-.2.7-.2.1-.1.3-.2.4-.3 0 .1.1.2.2.2.1-.2.1-.5.1-.7.1.1.3.1.5.1-.1.1-.2.2-.3.2v.6c.2-.1.5-.1.8-.1l.1-.1c.1-.2.2-.3.3-.4-.2-.2-.8-.2-.8-.6zM4.2 16.7c-.4.2-.8-.3-1.2-.2l.4.4c-.1.1-.3.2-.4.2h1c.2-.1.5-.2.7-.2 0-.3-.3-.3-.5-.2z"/>
	<g fill="#563a69">
		<path d="M10.1 6.8c.1.2.2.4.3.5h.3c-.1.2-.3.4-.4.6h-.2v.3h-.3c-.1.4-.3.7-.5 1 .4-.2.8-.2 1.1 0 0-.1.1-.2.2-.2v-.4c.1 0 .2.1.3.1.1-.1.2-.3.3-.4-.1-.1-.2-.2-.3-.2.1 0 .2-.1.2-.2v-.2c.2-.1.3-.2.4-.3V7l.6-.3.1.2c0-.1.1-.1.1-.1.1.1.3.2.4.2-.1-.1-.2-.2-.2-.3.2-.2.4-.4.7-.2v-.2c-.8.2-1.7.4-2.6.5h-.5zm3.1-.5c.1 0 .1 0 .2-.1h.1c-.1 0-.2 0-.3-.1v.2z"/>
		<path d="M13.9 12.2c.3-.3.5-.6.6-1 .2-.5.7-.9.9-1.4-.2-.2-.5-.4-.7-.5.2-.1.3-.2.4-.2-.1-.2-.3-.3-.5-.4.1-.3.4-.6.7-.8.1-.3 0-.6-.1-.9 0-.1.1-.2.1-.2-.2-.1-.7-.4-.4-.7l-.1-.1c-.5 0-.8 0-1.3.2.2 0 .4 0 .6-.1.1.1.1.2.1.2-.1.1-.3.1-.4.1v.4c.1-.1.3-.1.4-.1v.2h-.3c0 .3.3.3.5.4v.6c-.2.1-.6.1-.6.3-.1.2 0 .3 0 .4-.2.2-.3.5-.4.7-.1 0-.2.1-.3.1.1.1.2.1.3.2l-.3.9c.1 0 .2-.1.3-.1.3.4.2.9 0 1.3h-.7v.2c-.2 0-.4.1-.5.2V12c-.1.1-.2.1-.3.1-.2-.1-.4-.3-.6-.1-.1 0-.2-.1-.3-.1v.3c-.2-.1-.3-.2-.5-.3-.1.1-.1.2-.2.3-.2-.2-.3-.4-.4-.6.3.1.7.2 1 0 .3.1.5.2.7.3.1-.1.3-.1.4-.1-.1-.1-.1-.2-.2-.2 0-.2-.1-.5-.2-.7l-.3.3c-.2-.1-.3-.2-.4-.3l-.3.3c0 .1.1.2.1.2h-.4c0-.1-.1-.2-.1-.2l.3-.3c-.2-.2-.4-.5-.6-.6h-.2v-.4c.1.1.3.2.4.3v-.6h-.9c-.1.1-.2.3-.2.4h-.4c0 .1-.1.2-.1.3h-.4c-.1.2-.3.4-.6.3-.6.2-1.1-.1-1.4-.5.3-.1.6-.3.7-.6-.6.2-1.2.6-1.8.8-.2.3-.3.6-.2.8h-.4v.4c-.5-.1-.9.4-1.2.7-.8.6-1.6 1.2-1.9 2.2-.2.6.2 1.1.6 1.5.1-.1.2-.3.2-.4-.1-.1-.3-.1-.5-.2-.1-.1-.2-.3-.2-.4.1-.2.3-.5.4-.7.3.1.6.1.9-.1-.3-.2-.7-.2-.9-.5.2-.1.5-.2.7-.4h.7c-.1-.1-.2-.3-.2-.3.1-.1.3-.2.5-.3-.1-.1-.2-.3-.2-.4.2.1.5.2.7.3-.1 0-.3.1-.4.1h.8v.7c.2.5.8.4 1.2.5l-.2.2c.1.1.1.2.1.3l-.2-.2c-.1.1-.2.2-.2.3h-.9c.2.2.4.3.6.4 0 .3 0 .7.4.8.1.1.1.3.1.4-.2.1-.5.2-.7.2.1-.2.2-.4.4-.5-.4-.2-.6-.6-.8-1l-.4.4c.2.2.5.4.7.6v.2c-.1-.1-.2-.1-.3-.1l-.3.3c-.1-.2-.2-.3-.3-.4-.3.1-.7.2-.7.7h-.7c.2.2.5.3.7.3-.1.1-.2.2-.3.2.1.1.3.2.4.2.1-.1.3-.2.4-.2-.2-.1-.3-.2-.4-.3.4 0 .8.4 1.2.2.2-.1.5-.1.5.2.1-.1.3-.1.5-.1s.5-.2.7-.3l-.1-.2c.2-.3.5-.4.8-.5.1 0 .1-.1.1-.1.2-.1.4-.1.5-.2.1-.2.1-.4.1-.5h.1c.1.1.3.1.4.1V15c.5-.2.9-.5 1.4-.5 0-.2.1-.4.1-.5.1.1.2.2.3.2 0-.2.1-.4.1-.5.1 0 .2-.1.3-.2v-.4c.1.1.1.2.1.3.5-.1.9-.6 1.4-.5.5-.4 1.1-.6 1.7-.7.3-.1.5 0 .7 0zm-3.7.4v.4h-.3s0 .1.1.1h-.1c0-.2-.1-.5-.1-.7.1-.1.3-.1.4-.1s.3.1.4.1c-.2.1-.3.2-.4.2zm20.4-2.9c-.1-.1-.3-.3-.5-.3.1.1.1.2.1.3.1.1.3 0 .4 0zm-6.3 7.4c.2.2.5.4.8.4.1-.1.1-.4.2-.5-.1-.1-.3-.2-.4-.3 0 .2 0 .3.1.5-.2 0-.5-.1-.7-.1zM40.9 2.6v.3c.1-.2.2-.2.3-.2-.1 0-.2 0-.3-.1z"/>
		<path d="M47.3 2.3h-.5s0-.1-.1-.1h-.6c-.2.1-.5.2-.7.1v-.4c-.5-.1-.7.6-1.1.7-.2.1-.4.1-.5.1 0-.1 0-.2-.1-.4v.4c-.4-.2-.9 0-1.2.2l-.1.1c0-.1-.1-.2-.1-.4-.2.1-.4.1-.6.2 0 .1-.1.3-.2.4v-.4c-.1 0-.1 0-.2-.1 0 .1-.1.2-.2.3-.5.3-.9.6-1.5.5v-.1h.5v-.3c-.1.1-.3.4-.5.1v-.1l.1-.1c-.2.1-.4.2-.5.4h.2c.2.4-.3.4-.5.3v.1c-.2.1-.5.2-.7.3v-.3L38 4s-.1.2-.2.2h.4c-.3 0-.6 0-.7.3h-.1v.2c.2-.1.5-.2.7-.3-.1.1-.2.3-.4.5.1 0 .2.1.3.1.2-.2.4-.4.7-.4 0 .2-.1.4-.2.6h-.4s.1.2.2.2c-.4 0-.6.4-.7.7.1 0 .3.1.4.2v.3s-.1-.1-.2-.1c-.1.1-.1.3-.2.4-.2-.2-.2-.6-.3-.9h-.5v.2l-.2.1c-.1.2-.2.3-.2.5-.1 0-.2-.1-.3-.1l-.2.2c-.4-.3-.9-.3-1.3-.1.1.2.2.4.1.7-.2 0-.5-.1-.7 0 .1.3.4.4.7.6H34c.1.2.2.3.2.5-.2-.1-.4-.2-.7-.2-.2 0-.1.3-.2.4.1-.1.3-.1.4-.2-.1.2-.2.4-.5.4-.1.1-.1.4-.3.4-.1 0-.3-.1-.4-.2V9c-.1 0-.2-.1-.3-.2v-.5c.1 0 .2-.1.3-.2v-.2c0-.1-.1-.2-.1-.3 0 .1-.1.2-.1.3-.2 0-.4 0-.6.2 0 .1.1.2.2.3-.2 0-.5.1-.7.2l.2-.2c-.2.1-.5.2-.7.3 0 0 .1.1.1.2.2 0 .4-.1.6 0l.1.2v.2c0 .1-.1.1-.2.2v.5s-.1 0-.2.1c0-.1-.1-.2-.2-.4-.5 0-.7.5-.9.8-.3.1-.5.3-.7.5 0 0-.1-.1-.1-.2-.1.4-.4.7-.7.9-.2 0-.4-.1-.5-.1s-.2.1-.3.2c0-.1-.1-.2-.1-.3.1 0 .2-.1.4-.2s.3-.2.4-.5v-.4c-.4.5-1.1.7-1.5 1.2-.6.6-1.4 1.1-1.9 1.7h-.4c0 .1-.1.2-.1.3h-.1l-.2.2-.3.2c0-.3 0-.7-.2-1-.1-.2-.3-.2-.5-.3h-.4s.2.1.2.2c.1.2.2.5.4.7 0 0-.1.1-.1.2-.3-.1-.7-.2-.9.2.1.1.2.3.4.4-.1 0-.3 0-.4.1.5 0 .7-.3 1.1-.6 0 .2.1.4.2.5-.1.2-.3.5-.2.7.1.3.1.7 0 1 0 .1 0 .2-.1.3h.1c0 .1-.1.1-.1.2v.3s-.1.1-.2.1c0 0 0 .1.1.1 0 .1-.1.2-.1.3.2 0 .3.1.5.1.2-.1.4-.2.6-.2l.1-.1c-.1 0-.2 0-.4.1.1-.2.1-.5.1-.7h.2c0-.1.1-.1.1-.2l.2-.1c.1-.1.2-.2.4-.3 0 .2-.1.5-.1.7h.4c-.1 0-.2-.1-.3-.2.4-.2.8-.4 1.3-.4s.7-.4 1.2-.5c0-.1-.1-.2-.2-.2.4 0 .7-.1 1-.3v-.6l-.6.3v-.2s-.2 0-.2-.1v-.2h.5s-.1-.1-.1-.2c.4-.1.7 0 1 .1v.2c.2.1.3.2.5.3v.5c.3-.4.5-.7.7-1.1h.4v-.4c-.2.2-.5.3-.7.6-.1.2-.3.2-.5.3v-.9l.3-.3c-.2 0-.4 0-.6-.1.2-.7.9-.8 1.4-1.2.5-.2.7-.7 1.2-1 0 0 .1.2.1.3.4.1.7.2 1.1 0l-.2-.2c0-.1.1-.1.2-.2 0 0 .1.2.2.3v-.2c-.3-.3 0-.7.1-1 .2.2.3.4.5.5.2-.1.5-.2.7-.2 0-.2 0-.4.1-.5H34c.1-.1.3-.2.4-.2 0 .1.1.2.1.3.4-.4 1.1-.5 1.3-1.1h.7c.1-.4.3-.7.6-.9.2 0 .4.1.5-.1.2-.3.3-.7.5-1 .2 0 .4 0 .6-.1 0-.1-.1-.3-.1-.4.1 0 .2 0 .3-.1v.2s.1 0 .2.1v-.4c.3.2.7.3 1.1.2l.2.2c.1 0 .2-.1.3-.1.2-.3.5-.4.9-.5l.3-.6c.2 0 .4-.1.5-.2h.2c0-.1.1-.2.2-.3h.4c.2 0 .4-.1.5-.1l.1-.2c0-.1-.1-.3-.1-.4v-.3c.1 0 .2-.1.3-.1s.2-.1.3-.1c.1-.1.2-.2.4-.2.4 0 .5.4.7.7.1-.1.2-.2.2-.3h.4v-.3s-.1-.1-.1-.2h.3c0-.7.8-.7 1.3-.7-.2-.1-.2-.2-.2-.4zM25.4 13.9c-.2 0-.1-.3 0-.3.2-.1.2.3 0 .3zm.5-.3h-.2v-.2h.3c.1-.1.2-.3.3-.4 0 .3-.2.4-.4.6zm.6-1.1c-.1.1-.2.2-.3.4-.3.1-.4.4-.7.4.1-.3.5-.3.7-.4v-.3c.3 0 .4-.3.6-.5h.4c-.2.3-.5.3-.7.4zm14.7-9.8s.1 0 0 0c.1 0 .1 0 0 0 .1 0 0 0 0 0zM13.8 25.1c-.3.1-.3.5-.5.7-.2-.1-.3-.3-.3-.5-.2.2-.4.4-.5.7 0 .2.1.5.3.7.2 0 .5-.1.7-.2-.1-.1-.2-.2-.2-.3-.1 0-.2.1-.3.2.1-.2.1-.5.4-.5.1 0 .2 0 .3.1.2-.1.4-.2.7-.3-.3-.1-.4-.4-.6-.6z"/>
		<path d="M23.8 24.7c-.1 0-.2 0-.3.1.1-.2.2-.5.2-.8-.2 0-.3.2-.5.4 0-.1 0-.2-.1-.3.1 0 .3-.1.5-.1-.2-.3-.5-.2-.8-.2l-.3.3c0 .1.1.2.2.3-.4-.2-.8-.2-1.2 0-.3-.2-.5-.1-.8 0-.3 0-.7-.1-1-.2-.2.2-.4.4-.6.5 0-.1.1-.3.1-.4h.3c0-.3.1-.7-.1-1-.1-.4-.6-.4-.9-.4-.1.2-.3.4-.4.5-.2 0-.4-.2-.4-.5 0 .1-.1.2-.2.3H17c.3.2.6.3.8.5-.4 0-.8-.2-1.3-.2-.1 0-.2 0-.3-.1 0-.1.1-.2.1-.3 0-.3 0-.7-.2-1-.1.1-.2.2-.2.3-.2 0-.5.2-.7.3h-.4v-.5c-.2 0-.3.1-.5.2-.2 0-.4-.1-.5-.2.1-.1.3-.2.4-.3-.1 0-.2 0-.3-.1.2 0 .4-.1.6-.2h.3s0-.2.1-.2h-.6v-.6c-.3.4-.7.8-.7 1.4-.2-.2-.4-.4-.7-.6 0 .1-.1.1-.2.2-.1.2-.2.8.2.7v.2c-.2-.1-.4-.2-.6-.2 0 .2 0 .4.2.6-.1 0-.2.1-.3.2v.6c.2.2.5.4.7.6-.1 0-.2.1-.3.2 0 .2-.1.3-.1.5h.1c.2-.2.4-.4.7-.5v.6l.2-.2c.1 0 .3 0 .4-.1v-.2c.1 0 .2-.1.3-.2v.3s.1.1.2.1v1.1c.1.1.2.3.4.4 0-.3.1-.5.4-.7.1.2.3.5.7.5-.1-.1-.2-.3-.2-.5l.2-.1c.2.1.5.2.7.4-.1 0-.2.1-.3.2v.4c-.1-.1-.3-.2-.4-.3 0 .1-.1.2-.2.4.3.3.7.5.9.8.2 0 .4 0 .7.1h.4c0 .4.6.4.8.6-.1.1-.2.2-.3.4v.4c.2 0 .3-.1.4-.2.3 0 .6-.1.9-.1l-.3-.3s.2 0 .2-.1c.2-.1.4-.2.5-.3-.2 0-.4 0-.6-.1.1 0 .2-.1.3-.2.2-.1.5-.2.7-.4 0-.1 0-.2-.1-.3.2-.1.4-.3.6-.5 0 .1.1.2.1.3l.3-.3c.2 0 .4 0 .6-.1.7-.3 1-1.3 1.8-1.3V25c-.2 0 0-.1.2-.3zm-11.2-1c-.2-.1 0-.5.2-.4.1.1-.1.3-.2.4zm.9 4.8c-.2 0-.7.2-.7-.1h-.2c-.1-.1-.1-.2-.1-.3 0 .1 0 .3.1.4.4.2.8.4 1.2.4v-.1c0-.1.1-.1.1-.1l.1-.2c-.2-.1-.6-.2-.9-.2.1.1.3.2.4.2zm-.2-1.5c-.1.3-.2.6.1.6.2-.1.3-.3.3-.5h.3c-.1-.2-.5-.1-.7-.1z"/>
		<path d="M16.3 28.7c0-.1-.1-.2-.2-.2-.2.1-.3.2-.4.3l.6-.1v.2h-.6v.4c.4-.1.7-.1 1.1-.2v-.7c.1-.1.2-.2.3-.2-.1-.1-.3-.1-.5-.1 0 .2 0 .5-.3.6zM44 4.2c.2.2.4.3.5.4 0 .2-.1.3-.1.5.1-.2.3-.3.5-.4-.2-.3-.5-.5-.9-.5zM16.3 5.4h-1.1c.2 0 .4.1.6.1l.1.1c.2.1.4 0 .4-.2l.1.2v.3c.3 0 .5-.1.8-.1-.2-.4-.6-.4-.9-.4zm27.6 0c-.4.3-.7.5-1.1.7v.2c.5-.3 1.1-.6 1.6-1v-.1h-.6c0 .1 0 .2.1.2zM45 7.3c0 .2 0 .4-.1.7.2-.1.4-.2.5-.4l-.3.1v-.1h.2c.1-.3.5-.3.7-.4 0-.1.1-.2.1-.2-.4.1-.7.2-1.1.3zm-5 .9l-.1.2h.2c.1-.1.2-.2.4-.3-.2 0-.3.1-.5.1zm-24.6-.1c-.2.1-.3.3-.3.4.2.1.5 0 .7 0-.1-.2-.2-.3-.4-.4zm24.8-.2s.2.1.3.2l.2-.2h-.5zm.3.2s.1 0 0 0c.1 0 0 0 0 0zm-1.5 1c-.2.1 0 .3.2.3l.1-.1c0-.2-.2-.3-.3-.2zm1.4 1.4v.3c.1 0 .3-.1.5-.1l.3-.3v-.2c-.2.2-.5.3-.7.5 0-.1-.1-.2-.1-.2zM21.3 15v-.6c-.2.1-.3.1-.4.2-.2 0-.5-.1-.7-.2 0 .2.1.4.2.6l.2-.2.6.3v.2c.1-.1.2-.1.2-.1-.1 0-.1-.2-.1-.2zm9.2 3.8c-.1.1-.1.3-.2.5-.2 0-.3-.1-.4-.1v.3c-.3.1-.5.3-.5.6h.4c.1-.1.2-.2.2-.3 0-.1-.1-.3 0-.4.1 0 .2.2.2.2l.9-.9c0-.1-.2-.2-.2-.2v.3h-.4zm3.4-3.6c-.1-.2-.3-.3-.5-.4-.1.2-.1.3-.1.3-.1 0-.2-.1-.3-.1.1.2.1.3.1.5-.1.2-.2.5-.3.7-.1.1-.3.1-.5.1v.1c.1 0 .3.1.2.3-.1.1-.1.1-.1.2-.1.1-.2.1-.2.1v.1c.1.1.1.3.1.4l-.1-.1c-.2.2-.3.5-.5.7 0-.2 0-.3.1-.4s.1-.3.1-.3c.2-.1.1-.3.1-.5 0-.1.1-.1.1-.1l-.2-.1c0 .4-.3.8-.5 1.1-.1 0-.2-.1-.3-.1-.1.3-.2.5-.2.8.1-.2.2-.3.4-.3v.4c.2-.4.6-.6.9-.9.3-.1.4-.4.4-.7h.4c.1-.2.2-.5 0-.7.1-.2.2-.4.5-.4-.1-.1-.2-.2-.2-.3.1-.2.4-.3.6-.4zm-18.5 2c0 .1.1.2.1.3l-.2.2v.7c.3-.2.6-.4.8-.7-.1-.1-.2-.2-.2-.3.1 0 .2-.1.2-.1-.2-.1-.5-.1-.7-.1zm1.5-.4c-.1 0-.2-.1-.2-.1v.5c0-.1-.1-.2-.2-.2-.2.2-.1.5-.2.7-.1.2-.1.3 0 .4.2 0 .2-.4.4-.5h.3c-.2-.2-.1-.5-.1-.8zm11.4 3.7c0 .1 0 .2-.1.4 0 .1 0 .3-.1.4 0 .1.1.2.1.3.5-.3.4-.8.7-1-.1 0-.2-.1-.2-.1h-.4z"/>
	</g>
	<g fill="#78578f">
		<path d="M43.4 2.4c-.1 0-.3-.1-.4-.1.4-.2.8-.2 1.2-.2h.1c.1 0 .2.1.2.1.2-.3.6-.4.9-.4v.5c.2.1.5 0 .7-.1V2c-.2 0-.4-.1-.5-.2.2-.1.5-.2.7-.2.1-.1.1-.3.2-.4.2.1.4.1.6.1s.4-.3.3-.5l.2.2V.6h.1v.3c.2-.1.5-.2.6-.5h.6V0c-.7.2-1.5.3-2.2.8-.1 0-.2 0-.4.1v.3c-.1-.3-.5 0-.7 0-.1 0-.1.2-.1.2-.1-.1-.2-.1-.3-.1v.2h-.4c0 .1-.1.2-.1.3-.2 0-.3.1-.4.1l.1-.3h-.6v.3h-.1c0-.2 0-.4-.1-.5v.5c-.2-.1-.6 0-.6.2h-.2c-.1.1-.1.2-.1.2-.3.1-.1-.3-.1-.4-.1 0-.2.1-.2.1v.3c0 .1-.1.2-.1.2.4.1.7 0 1.1-.1zm-.7 7.1v.1c.1 0 .2-.1.2-.1h-.2zm7.9-5.9h-.4c-.1-.3-.1-.6-.1-1-.1 0-.2-.1-.2-.1.1.3.1.5 0 .4s-.3-.1-.4-.1h-.8v.3h-.2c0-.1 0-.2-.1-.3.1 0 .3-.1.4-.1v-.4l-.2.1c-.1.1-.3.1-.4.1.1-.1.2-.2.3-.2v-.2c-.1.2-.3.3-.4.4 0-.4.4-.5.6-.7-.3-.2-.5-.3-.8-.4l-.3.3h-.3c0 .1.1.2.1.3-.1.1-.2.2-.2.3l.1.1v.3c.3.1.5.2.8.2h.3c0 .1-.1.1-.1.1H48c.1.1.1.3.2.4H48v.7c-.1 0-.3-.1-.4-.1-.2.1-.3.2-.5.3-.3 0-.5-.1-.7-.1 0 .1-.1.2-.1.2-.2.1-.4.2-.6.2.2.4.2.7 0 1.1h.9c-.4.1-.8.4-1.2.2v.2c-.1-.1-.2-.3-.3-.4 0 .3.2.7.3 1 .2-.1.4-.2.7-.2h.1c-.3-.1 0-.3.1-.1.2.1.3.1.4.2.1-.1.2-.1.2-.1-.1 0-.2-.1-.2-.1.2.1.4-.1.4-.3 0 .1.2.1.2.1.3-.2.6-.5 1-.5.2-.1.4-.2.6-.4-.2 0-.4 0-.6-.1.4-.2.7-.5 1.1-.6.2-.1.6-.2.7-.4h.3c.2-.2.5-.5.8-.6v-.2c-.1.2-.4.2-.6.2zm-9.8-.2c-.1-.1-.3-.2-.4-.2v.3c-.1-.2-.2-.4-.4-.4-.1.2-.1.4-.2.6v.1h-.5v.1c.6.1 1-.2 1.5-.5z"/>
		<path d="M44.8 6.8v-.4c-.1 0-.2.1-.2.1-.1-.1-.2-.2-.2-.3-.1.2-.2.5-.3.8-.1-.1-.2-.2-.2-.3-.3 0-.7.2-1 .4 0 .1.1.3.1.3.2 0 .4.1.6.1h.3c-.2.2-.4.4-.6.5.1-.1.2-.3.3-.5-.3 0-.7.2-.9.4-.1.1-.1.2-.1.2-.2 0-.5-.1-.7-.1h-.1c0 .1-.1.3-.1.4l-.3-.3c-.2 0-.4.1-.6.1-.2.2-.4.4-.6.5.2.1.3.2.4.2 0-.3.3-.2.3 0h.2v-.3c.1.1.3.1.4.1 0 .4-.3.7-.6.9-.1.1-.2.1-.2.2s-.2.1-.2.1c-.1.1-.2.2-.2.3v.5c-.1.2-.4 0-.5 0-.1.1-.3.2-.4.2v-.3c-.4.1-.2.6-.4.8h.2c.3-.1.5-.3.6-.5h.6c0-.1.1-.3.1-.4.1 0 .2-.1.2-.1v.4c.1-.2.5-.3.7-.4v-.2h-.3c-.1 0-.3.1-.5.1V10c0 .1.1.2.1.2.2-.1.5-.3.7-.5v.2c.1-.3.3-.5.6-.5 0 .2-.1.4-.1.6h.3l.2-.2h-.2c-.1-.4.4-.6.4-1h.1c0-.2.1-.3.2-.5s.3 0 .3.1c.2-.2.4-.4.7-.6.2-.1.5-.3.5-.5h.5c-.1.1-.3.2-.3.3.1-.1.2-.1.3-.1.1-.2.1-.5.1-.7.1 0 .3-.1.4-.1-.2-.1-.3-.2-.5-.3 0 .2-.1.3-.1.4z"/>
		<path d="M42.4 9.7c.1 0 .2 0 .3-.1-.1.1-.2.1-.3.1zm1.3-.8c-.1.1-.2.2-.2.3.1 0 .1-.1.2-.1v-.2zm-.8 0c.1 0 .1.2.1.2l-.1-.2-.2-.1V9c.1-.1.2-.1.2-.1zm.4.4s.1-.1.2-.1H43c-.1.1-.1.3-.1.3h.3c0-.1.1-.2.1-.2zM32.9 7.2c.5-.3 1.1-.4 1.5-.9.5 0 .8-.3 1.2-.6.2-.2.5 0 .7 0 .2-.3.5-.6.8-.8h.1l-.2-.2c-.2 0-.5-.1-.5.2-.1 0-.3 0-.5.2.1.1.1.2.2.3l-.3-.3c-.5.1-.9.6-1.4.8-.5.3-.9.7-1.4.9-.2 0-.3.1-.4.2.1 0 .2.2.2.2zm-20.8 5.2c.1-.1.2-.1.3-.1v.1c.2-.1.3-.2.5-.2V12h.7c.2-.5.3-.9 0-1.3-.1 0-.2.1-.3.1l.3-.9c-.1-.1-.2-.1-.3-.2.1 0 .2-.1.3-.1.1-.3.3-.5.4-.7v-.4c.1-.3.4-.3.6-.3v-.6c-.2-.1-.5-.1-.5-.4h.3V7c-.1.1-.3.1-.4.1v-.4c.1-.1.3-.1.4-.1-.1-.1-.1-.2-.1-.2h-.9c0 .2 0 .3.1.7-.2-.2-.5.1-.7.2.1.1.2.2.2.3-.1-.1-.3-.2-.4-.2 0 .1-.1.1-.1.1l-.1-.2c-.2.1-.5.1-.6.3V8c-.2.1-.3.2-.4.3v.2c-.1 0-.2.1-.2.2.1 0 .2.1.3.2-.1.1-.2.3-.3.4-.1 0-.2-.1-.3-.1v.4c0 .1-.1.2-.2.2-.4-.3-.8-.2-1.1 0h.5v.6c-.1-.1-.3-.2-.4-.3v.4h.2l.6.6-.3.3c0 .1.1.2.1.2h.4c0-.1-.1-.2-.1-.2l.3-.3c.2.1.3.2.4.3l.3-.3c.1.2.2.5.2.7 0 .1.1.2.2.2-.1.1-.3.1-.4.1-.3-.1-.5-.2-.7-.3-.3.2-.7.1-1 0 .1.3.3.5.5.7-.2.1-.4.1-.6.1 0 .2.1.5.1.7h.5v-.4c.2-.1.3-.2.4-.2-.1 0-.3-.1-.4-.1.1-.1.2-.3.3-.4.2.1.3.2.5.3v-.3c.1 0 .2.1.3.1.2-.2.4-.1.6.1zm16-1.6l.1-.1-.1.1zm.7.7c0 .1.1.2.1.2.2-.2.4-.4.7-.5.2-.3.4-.8.9-.8.1 0 .2-.1.2-.1V10c0-.1.2-.1.2-.1v.2c.1-.1.2-.1.2-.2v-.2h-.2c-.2 0 0-.3.1-.3-.2-.1-.4 0-.6 0 0-.1-.1-.2-.1-.2.2-.1.5-.2.7-.3l.3-.3c.2-.1.4-.2.6-.2 0-.1.1-.2.1-.3.2-.2.6-.4.8-.7v-.2c-.7.1-1 .8-1.7.8 0 0 0 .2-.2.7-.2.1-.4.3-.6.4 0-.1-.1-.1-.1-.1 0 .2-.1.4-.2.5-.1 0-.3.1-.4.1-.2.3-.6.4-.8.7 0 .1-.3.1-.4.1 0 .1-.1.2-.1.3.1 0 .1-.1.2-.1.1.3-.2.7-.2 1l.1.2c-.2.1-.3.1-.4.1-.1.2-.3.3-.4.4.1 0 .3.1.5.1.3-.2.6-.5.7-.9z"/>
		<path d="M9.9 11.1c-.2 0-.4-.1-.6-.2v.4c.2.1.4.2.6.2v-.4zm-5.5 2.3v-.7h-.8c.1 0 .3-.1.4-.1-.2-.2-.4-.3-.7-.3.1.2.1.3.1.4-.2.1-.3.2-.5.3.1.1.2.3.2.3-.2.1-.5 0-.7 0-.2.2-.4.3-.7.4.2.3.6.4.9.5-.2.1-.6.1-.9.1-.1.3-.2.5-.4.7.1.1.1.3.2.4s.3.2.5.2c-.1.1-.2.3-.2.4l.4.4h.7c0-.4.4-.6.7-.6.1.2.2.3.3.4l.3-.3c.1.1.2.1.3.1v-.2c-.2-.2-.5-.4-.7-.6l.4-.4c.2.3.4.8.8 1-.2.1-.3.3-.4.5.2-.1.5-.2.7-.2-.1-.2-.1-.3-.1-.4-.4-.1-.4-.5-.4-.8-.2-.1-.5-.2-.6-.4h.9c.1-.1.2-.2.2-.3l.2.2c-.1-.1-.1-.2-.1-.3l.2-.2c-.4-.2-1-.1-1.2-.5zm2.5-.7h-.4c-.1-.1-.2-.2-.2-.3-.1.3 0 .6.2.6v.4c.2.2.4 0 .5 0v-.3h.3c-.3 0-.5 0-.7-.1l.3-.3zm33.3-5c0-.2-.1-.2-.1-.3v-.5h.1l-.2-.2c-.4.1-.7 0-1.1-.2v.4s-.1 0-.2-.1v-.2c-.1 0-.2 0-.3.1 0 .1.1.3.1.4-.2 0-.4 0-.6.1-.2.3-.4.7-.5 1-.1.2-.4.1-.5.1-.3.2-.5.5-.6.9h-.7c-.2.6-.9.7-1.3 1.1 0-.1-.1-.2-.1-.3-.1.1-.3.2-.4.2h.4c0 .2 0 .4-.1.5-.3 0-.5.1-.7.2l-.5-.5c-.1.3-.4.7-.1 1v.2s-.1-.2-.2-.3c0 .1-.1.1-.2.2l.2.2c-.3.2-.7.2-1.1 0 0 0-.1-.2-.1-.3-.5.3-.7.7-1.2 1s-1.3.5-1.4 1.2c.2 0 .4 0 .6.1l-.3.3v.9c.2 0 .4-.1.5-.3.1-.3.4-.5.7-.6v.4h-.4c-.2.4-.5.7-.7 1.1V15c-.2-.1-.3-.2-.5-.3v-.2c-.3-.2-.7-.2-1-.1 0 0 .1.1.1.2h-.5v.2s.2 0 .2.1v.2l.6-.3v.6c-.3.1-.7.2-1 .3 0 .1.1.2.2.2-.5 0-.8.4-1.2.5-.5.1-.8.3-1.3.4.1 0 .2.1.3.2h-.4c0-.2.1-.5.1-.7-.1.1-.2.2-.4.3l-.2.1c0 .1-.1.1-.1.2h-.2c0 .2 0 .5-.1.7.1 0 .2 0 .4-.1l-.1.1c-.2 0-.4.1-.6.2-.2 0-.3-.1-.5-.1 0-.1.1-.2.1-.3-.1.1-.1.1-.1 0 0 0 .1-.1.2-.1V17c0-.1.1-.1.1-.2h-.1v-.2s0-.1.1-.1c0-.2 0-.4-.1-.6-.1-.3.1-.5.2-.7 0-.2-.1-.4-.2-.5-.3.1-.5.3-.7.5-.1-.1-.2-.3-.4-.4.2-.3.6-.3.9-.2 0 0 .1-.1.1-.2-.2-.2-.3-.4-.4-.7 0 0-.1-.1-.2-.1-.5 0-.9.2-1.4.3-.2 0-.4.1-.6.2v.2c-.5.1-.7.6-1.2.8-.3.2-.7.2-1 .5.1.1.2.2.4.3l-1.2.3c.1 0 .2.1.3.2v.3c-.2-.1-.4-.2-.7-.4 0-.2-.1-.5 0-.7-.2-.1-.6-.1-.7.1-.2.4-.6.6-1 .7v-.5c-.1.2-.2.3-.3.5-.1.5-.5 1-.6 1.5-.3.7-.7 1.4-.9 2.1-.2.4-.1.8-.4 1.2-.1.2.1.4.1.6H13v.4c0-.1.1-.2.2-.2l.6.6c0-.5.4-.9.7-1.4v.6h.6s0 .2-.1.2h-.3c-.2 0-.4.1-.6.2.1 0 .2 0 .3.1-.1.1-.3.2-.4.3.2 0 .4.1.5.2.2 0 .3-.1.5-.2v.5h.4c.2-.1.5-.3.7-.3.1-.1.2-.2.2-.3.2.3.2.7.2 1 0 .1-.1.2-.1.3 0 0 .2 0 .3.1.4 0 .8.3 1.3.2-.3-.2-.6-.3-.8-.5h.5c0-.1.1-.2.2-.3 0 .2.1.5.4.5.1-.2.3-.4.4-.5.3 0 .8 0 .9.4.2.3.1.7.1 1l.3-.3c.3 0 .7.2 1 .2.3-.1.5-.2.8 0 .4-.2.8-.3 1.2 0 0-.1-.1-.2-.2-.3l.3-.3c.3 0 .6 0 .8.2-.1 0-.3.1-.5.1 0 .1 0 .2.1.3.1-.1.3-.3.5-.4 0 .3 0 .6-.2.8.1 0 .2 0 .3-.1-.1.1-.3.2-.4.4v.2c-.8 0-1.1 1-1.8 1.3-.2 0-.4 0-.6.1l-.3.3c0-.1-.1-.2-.1-.3-.2.2-.4.4-.6.5 0 .1 0 .2.1.3.5-.3.9-.6 1.4-.7 0 .1-.1.1-.2.2-.4.4-1.1.6-1.6.9-.1.1-.3 0-.4 0-.1 0-.2.1-.3.2.2 0 .4.1.6.1.1 0 .2 0 .4-.1s.4-.2.7-.3c.2-.1.4-.1.5-.1.3-.3.6-.5.9-.7v-.3c.5-.1.7-.5 1.1-.7.3-.3.7-.5.8-1 .2-.1.4-.2.6-.5.2-.3.7-.4.9-.8.3 0 .6-.2.7-.4 0-.1-.1-.2-.1-.3.2-.2.4-.5.7-.6 0 0 .1 0 .2-.1v-.4c.2-.1.5-.2.7-.3.2-.2.4-.5.6-.7v-.4h.4s.1.1.2.1v-.3c.1 0 .2-.1.4-.2h-.1c0-.3.2-.5.5-.6v-.3c.1 0 .2.1.4.1.1-.2.1-.4.2-.5h.4c0-.4 0-.7.2-1.1.1 0 .2.1.3.1.2-.3.5-.7.5-1.1l.2.1v.1s.1 0 .2-.1c0-.1 0-.1.1-.2-.1 0-.2 0-.3-.1v-.3c.2 0 .4 0 .5-.1.1-.2.2-.5.3-.7 0-.2 0-.4-.1-.5.1 0 .2 0 .3.1 0-.2.1-.3.1-.5.2.1.4.2.5.4 0 0 .1.2.2.2v-.1s-.1-.1-.1-.2c.2-.1.4-.3.6-.5.1-.2-.1-.5.1-.7.3-.2.7-.5.9-.8h.3c.1-.2.2-.4.5-.5 0-.1-.4-.3 0-.3v-.3c0-.1.2-.1.2-.1l-.2.2c0 .1 0 .4.2.4.3 0 .2-.2.2-.4 0 0 .1.2.2.2 0-.1 0-.3.1-.4.4.1.6-.3.8-.5.1-.2.4-.2.5-.3h-.2s0-.2.1-.2c-.1 0-.2-.1-.3-.1v.3h-.3c-.3.2-.5.5-.7.9-.2-.1 0-.3 0-.5v-.3c.1 0 .2-.1.3-.1l.3-.6h.3l.3-.3v.2h.3c0-.2 0-.4.1-.6 0 0 .2 0 .3-.1-.6-.2-.9.4-1.4.6.2-.3.5-.7.8-.9v-.7c.2 0 .4-.1.7-.1l.1-.1c.2-.2.4-.5.6-.7h.6zm-16.1 9.7c.2 0 .5 0 .7.1-.1-.2-.1-.3-.1-.5.1.1.3.2.4.3 0 .2 0 .4-.2.5-.3 0-.6-.2-.8-.4zm-.4 4.1s-.1 0-.1-.1c-.1 0-.2 0-.2.1l-.1-.1h.4v.1zm.8.2c-.1-.3-.2-.3-.3-.3v.2h-.4l.3-.3H24c.1 0 .3-.1.4-.2 0 .1.1.2.2.3 0 .1-.1.2-.1.3zm1.8-1.5c0-.1 0-.2-.1-.2 0 0-.1 0-.1.1l-.2-.2v.4c.1.1.3.2.4.3-.2 0-.4.1-.7.2 0 .1.1.2.2.3-.2.2-.4.4-.5.6-.1-.1-.2-.2-.3-.2 0 .2 0 .3.1.5-.1-.1-.2-.2-.3-.4 0 0 .1-.1.1-.2s-.1-.2-.2-.3h.3v-.2h.4c0-.2 0-.5-.1-.7-.2-.2-.5-.4-.7-.6-.1 0-.2.1-.2.2-.2-.1-.3-.1-.5-.2v-.3c-.2.1-.4.2-.6.4v.3c.3-.1.7 0 1 .1l.1.2c.1 0 .2 0 .3.1v.3c-.1 0-.2.1-.3.1v-.2c-.4.2-.8.6-1.3.6-.1-.1-.3-.1-.4 0-.1.1-.2.4-.2.5h-.2c-.1.2-.3.4-.5.5-.1 0-.3-.1-.5-.1 0-.3-.1-.7-.5-.7.1-.2.3-.4.4-.6-.3.1-.6.2-.7.5-.2 0-.5.1-.7.2 0-.2.1-.4.4-.4 0-.1-.1-.2-.2-.3h.4c.1-.1.2-.2.4-.3 0 .1 0 .2.1.3.2-.2.4-.3.7-.4-.2-.2-.4-.1-.7-.1.1-.1.2-.2.2-.3v-.2l-.1.1c-.1 0-.2-.1-.4-.1v-.3c.2 0 .3-.1.5-.1-.3-.1-.7-.1-1-.1.1.2.1.4.2.6l-.3.3c-.3 0-.7-.3-.8-.6.1 0 .2-.1.4-.2-.2-.1-.3-.2-.5-.3l.2-.1s.1 0 .2.1l.3-.3h-.5c.1-.3.4-.3.7-.3 0 .3 0 .7.3.8.3 0 .2-.4.3-.6 0 .1.1.2.1.3.1-.1.3-.2.4-.3l-.7-.7v-.2c.1 0 .1.1.2.1v-.2c.2 0 .4-.1.4-.3-.2-.1-.4-.1-.5-.1.3 0 .6 0 .7-.2-.1 0-.3 0-.4-.1h.1c.2.1.5.1.7.2.2 0 .4-.1.6-.2v.4c.2 0 .4-.1.5-.1l-.2-.2h.3v-.4c.1 0 .1.1.2.1-.1.3-.2.5-.5.8.1.2.3.4.4.6.4.2.8.5 1.2.8v.3c.4-.2.7-.6 1.2-.7l.2.2s.1 0 .1-.1c.2.2.4.3.6.5 0 0 0 .1-.1.1.1.1.3.2.4.4.1.2-.1.3-.2.5z"/>
		<path d="M19.4 24.9c.1 0 .2-.1.3-.2h-.3v.2zm-2.3-12.6V12c.1-.2.3-.3.5-.4-.1-.2-.3-.3-.4-.5.2-.3.3-.6.3-1 .2-.1.3-.1.4-.1 0-.1.1-.2.1-.2-.2-.1-.3-.1-.4-.1-.1-.4-.3-.7-.3-1.1-.1 0-.2-.1-.2-.2.1-.3.3-.6.4-.9-.1 0-.2-.1-.2-.1.1-.3-.3-.6-.4-.9 0-.2 0-.5.3-.5.2 0 .2.4.3.5v-.4l.6.3-.3.3c.1-.1.3-.2.5-.2-.1.2-.1.4-.1.5.2.1.5.1.7.1-.2-.1-.4-.2-.6-.2.2 0 .5-.1.7-.2-.2-.2-.3-.4-.5-.4-.5-.2-.9-.5-1.4-.5-.3 0-.5.1-.9.2v.3c.1 0 .3.1.4.1 0 .5.2 1 .5 1.4-.2.2-.4.3-.6.4.2.2.4.4.6.7-.1.3-.1.7 0 1 .2.3.1.7 0 1-.1.1-.3.1-.5.1.1.1.1.2.2.3l-.3.6.1.1c-.2.2-.3.5-.4.7H16v.4c.2-.2.5-.3.7-.3.1-.2.3-.4.4-.5zm16.1-3.9c-.3-.1-.5.3-.5.5.2 0 .7-.2.5-.5zm-.8.2c-.1.1-.1.3-.2.5.2 0 .3-.1.5-.1v-.4h-.3zM11.9 25.1c0-.1-.1-.2-.1-.3-.3.5-.1 1.1-.3 1.5l.3.9c.2-.5-.2-.9 0-1.4 0-.3.2-.5.1-.7zm2.2-.4c-.1.1-.2.2-.3.2 0 0 0 .1-.1.1-.1.1-.3.1-.4.1l-.2.2v-.6c-.3.1-.5.3-.7.5h-.1c0 .2-.1.4.1.5h-.3c.1.5.3.9.5 1.4-.1 0-.2-.1-.3-.1 0 .3.3.5.6.5-.1-.1-.2-.2-.2-.3h.5c-.2-.1-.4-.3-.5-.4-.2-.2-.3-.5-.3-.7 0-.3.3-.5.5-.7.1.2.1.4.3.5.2-.2.2-.6.5-.7.2.2.3.5.6.6v-.7c-.1 0-.2-.1-.2-.1v-.3zm.4-.8c-.1-.1-.2-.2-.3-.2.2-.1.4-.2.5-.4 0-.1-.1-.3-.1-.4h-.3c0 .2.1.3.3.5-.2 0-.5 0-.7.1.1.1.3.1.3.1 0 .1-.1.2-.1.3.2.1.5.2.7.2-.1 0-.2.1-.3.1h.3c.1 0 .1-.3.1-.4-.1-.1-.2-.1-.2-.1-.1.1-.1.2-.2.2z"/>
	</g>
	<g fill="#9783a6">
		<path d="M46.3 2.2h.4c0-.2.1-.4.2-.5h-.5c.3-.1.5-.2.7-.4-.2-.1-.4-.1-.6-.1-.1.2-.2.3-.2.5-.2.1-.5.1-.7.2.2.1.3.2.5.2l.2.1zm-4 .8c.3-.2.8-.4 1.2-.2v-.4c.1.2.1.3.1.4.1-.1.3-.1.5-.2 0-.1-.1-.2-.2-.3l.2-.2c-.5 0-.8 0-1.2.2.1.1.2.1.3.1-.3.1-.6.1-.9.1h-.4v-.3c-.1.1-.3.2-.4.3v.4c.2-.1.5-.2.8-.3V3zm6.2.7h.2v-.1h-.2v.1zm-8.9 5.2c0 .1-.1.1 0 0-.3.4-.5.7-.8.8v.2c-.3.2-.6.6-.8.9.1 0 .1-.1.2-.1v.1h-.3c.1 0 .2.1.3.1s.2.2.2.2c.2 0 .4-.2.6-.2.2-.2.3-.4.5-.6h.4c.2-.2.4-.6.8-.5v.3c.3-.2.6-.5.6-.9-.1-.1-.3-.1-.4-.1v.3h-.5c-.2-.1-.2-.1-.3-.2l.4-.4h-.2l.2-.2h-.1c.1-.2.1-.3.2-.4h-.4c-.2.2-.4.5-.6.7zm-1.1 2v-.3h-.2c.3-.2.6-.5.9-.4-.1.1-.2.3-.3.4 0 .3-.2.3-.4.3zm1.4-1.3c-.1.1-.2.1-.3.2-.2 0-.3-.2-.2-.3.1-.1.3.1.3.2.1-.1.1-.2.2-.3v.2zm6-4.8s.1-.1 0 0c.1-.1 0-.1 0 0zm-5.3 3.4c.1 0 0 0 0-.1v.1z"/>
		<path d="M46.7 4.1c.3 0 .5-.3.7-.3-.2.2-.5.4-.9.4v.3h-.4c0 .1-.1.1-.1.2 0 .3-.2.4-.4.5v.3c-.1-.1-.2-.1-.3-.1-.2.1-.3.2-.4.3-.1 0-.2.1-.2.1V6c-.4.4-.9.6-1.3 1l-.1-.2v.6h-.5c0-.1.1-.3.1-.5-.3.4-.7.6-1.1 1-.3.3-.7.6-1 .9.2 0 .4-.1.6-.1l.3.3c0-.1.1-.3.1-.4h-.3c.3-.4.5-.8.9-1.1.2.1.3.2.4.2-.2.4-.6.6-.9.9.2 0 .5.1.7.1.1 0 .1-.2.1-.2.2-.3.5-.4.9-.4-.2 0-.4-.1-.6-.1 0-.1-.1-.3-.1-.3.3-.2.6-.4 1-.4.1.1.2.2.2.3.1-.2.2-.5.3-.8.1.1.1.2.2.3.1 0 .2-.1.2-.1v.4c0-.2.1-.3.1-.4.2.1.3.2.5.3-.2-.3-.3-.6-.3-1 .1.1.2.3.3.4v-.2c.4.2.8-.1 1.2-.2-.3-.1-.6 0-.9 0 .2-.4.2-.7 0-1.1.2-.1.4-.2.6-.2 0-.1.1-.2.1-.2.3 0 .5.1.7.1.2-.1.3-.2.5-.3.1 0 .3.1.4.1V4h.2c-.1-.1-.1-.3-.2-.4h.3v-.1c-.1 0-.2-.1-.3-.1-.5 0-1.3 0-1.3.7z"/>
		<path d="M48.3 3.5c.1-.1 0-.2 0-.2.1 0 0 .1 0 .2zm.4-.1v.2h.1c.3 0 .5-.1.7-.2-.3 0-.5.1-.8 0zm3-.4c-.2-.1-.5-.2-.8-.3l-.3.3c0-.1-.1-.3-.1-.3-.1.1-.2.1-.3.1v-.5c-.2 0-.4.1-.6 0-.1.2-.3.3-.5.3H49v-.4h-.3s0 .2.6.9l.2-.1v.4c.1.1.3.1.4.1v-.7c.1 0 .2.1.2.1 0 .3 0 .6.1 1h.4c-.1-.1-.1-.3-.1-.4.4-.2.8-.4 1.2-.5zm-7.5 2.3l-.1.2c-.1 0-.3.1-.5.1V6l.6-.3v-.4l.6.1v.1c0-.1.1-.1.1-.1.1-.2.1-.3.1-.5-.1-.1-.3-.2-.4-.3-.2.1-.4.2-.5.3 0 .1.1.3.1.4zm-.7.4h-.3V6c-.2.1-.3.3-.3.4-.1 0-.2.1-.3.1 0-.1.1-.3.2-.4-.1.1-.3.2-.5.2.1.1.1.3.1.4-.1.1-.3.2-.5.3-.3.2-.4.6-.8.8v-.4c-.1 0-.2.1-.3.1h-.1c.1.1.2.3.3.4-.2.1-.3.1-.4.1.1 0 .2.1.2.2h-.1c.2.1.4 0 .5-.2h.4c.2-.3.5-.5.7-.7s.6-.4.8-.7v-.2c.2-.1.3-.2.5-.3 0 0-.1-.1-.2-.1 0-.1.1-.2.1-.3zm1.7-1.6c-.2 0-.3.1-.4.2-.1 0-.2.1-.3.1v.1c.3 0 .6.2.8.5.2-.1.4-.2.6-.2-.2-.3-.3-.7-.7-.7z"/>
		<path d="M44.6 4.6v-.1h-.1s0 .1.1.1zM18.7 15.8c-.2-.1-.3-.2-.4-.3.3-.3.7-.3 1-.5.5-.2.7-.7 1.2-.8V14c.2-.1.4-.2.6-.2.5-.1.9-.3 1.4-.3l.1-.1h.3c.2.1.4.2.5.3 0-.3-.1-.5-.2-.7-.3.1-.6.1-.9.1.1-.1.2-.2.2-.3-.2-.1-.4-.4-.4-.6h-.3c.1-.2.2-.4.2-.6-.2-.1-.4-.2-.5-.2v-.3h-.3v-.2h.2c0-.1.1-.2.1-.3.1 0 .4-.1.5-.2h-.4v-.2c.1 0 .2-.1.3-.1-.1-.1-.3-.1-.3-.1v-.3c-.1-.2-.3-.4-.3-.6h.3c0-.2-.1-.5-.3-.6.1-.1 0-.3 0-.5-.2-.1-.3-.3-.4-.4.1.3.2.5.3.7v1.2c-.3-.4-.7-.8-.8-1.3h-.3c-.1-.1-.2-.2-.2-.3v.2c-.2-.2-.4-.4-.3-.6-.2-.4-.6-.6-.9-.9-.2 0-.5.1-.7.2.2 0 .4.1.6.2-.3.1-.5 0-.7-.1.1-.2.1-.4.1-.5-.1.1-.3.2-.5.2l.3-.3-.6-.3v.4c-.1-.2-.1-.5-.3-.5-.3-.1-.3.3-.3.5.1.3.5.6 1.1 1.3.1 0 .2.1.2.1-.1.3-.3.6-.4.9.1 0 .2.1.2.2.1.4.2.7.3 1.1.2.1.3.1.4.1 0 .1-.1.2-.1.2-.2.1-.3.1-.4.1 0 .4-.1.7-.3 1 .1.2.3.3.4.5-.1.2-.3.3-.5.4v.3c-.1.2-.3.4-.4.5-.3.1-.5.1-.7.3-.2.3-.3.6-.4.9-.2.4-.5.9-.5 1.4l-.1.1v.5c.4-.1.8-.3 1-.7.1-.3.5-.2.7-.1-.1.2 0 .5 0 .7.2.2.5.3.7.4v-.3c-.1-.1-.2-.2-.3-.2l1.2-.3zM40 11.2v-.5c0 .1-.1.2-.1.2s-.1 0-.3.1l-.1.2c.2 0 .4.2.5 0zm-12.9 0c-.4-.1-.4.5-.8.7-.3.2-.7.3-.9.7-.4.3-.7.7-1.1 1-.1.1-.2.1-.2.1-.3.1-.6.3-.5.7l.2-.2h.1c.1-.1.1-.2.1-.3h.4c.5-.6 1.3-1.1 1.9-1.7.4-.5 1.1-.7 1.5-1.2v.2c.1-.2.1-.4.1-.5v-.1c-.4-.1-.6.3-.8.6z"/>
		<path d="M22.1 11.1c.2 0 0-.4-.2-.4-.1.2 0 .3.2.4zm18.1.3c-.2 0-.4 0-.6.1-.2.2-.4.4-.6.5h-.2c-.1-.1-.1-.3-.1-.3 0 .1-.1.1-.1.1.2.5-.4.8-.7 1-.1-.1-.1-.3-.2-.3-.1.2-.1.3-.1.4-.4.2-.9.4-.9.9-.2 0-.4.1-.6.2.1.3-.3.5-.4.8.9-.5 1.6-1.4 2.5-1.9.7-.5 1.3-1.2 2.1-1.4 0-.2.1-.3 0-.5 0 .1-.1.3-.1.4zm-17.7 6l-.1.1h.2l-.1-.1zm-.1-.1c.1.1.2 0 .2 0h-.2z"/>
		<path d="M26 19.2l.1-.1c-.2-.2-.4-.3-.6-.5 0 .1-.1.1-.1.1l-.2-.2c-.5.1-.7.5-1.2.7v-.3c-.4-.3-.8-.6-1.2-.8-.1-.2-.3-.4-.4-.6-.1 0-.2.1-.3.1v-.4c-.2.1-.4.2-.6.2-.2-.1-.5-.2-.7-.2h-.1c.1.1.3.1.4.1-.1.2-.5.2-.7.2 0 .2-.1.5-.1.7.3.2.5.5.7.7-.1.1-.3.2-.4.3 0-.1-.1-.2-.1-.3-.1.2 0 .6-.3.6-.3-.1-.3-.5-.3-.8-.3 0-.6 0-.7.3h.5l-.3.3c-.1-.1-.2-.1-.2-.1 0 .1-.2.1-.2.1.2.1.3.2.5.3-.2.1-.3.2-.4.2.1.3.4.6.8.6l.3-.3c-.1-.2-.2-.4-.2-.6.3 0 .7 0 1 .1-.2 0-.3.1-.5.1v.3c.2 0 .3 0 .4.1l.1-.1v.2c0 .1-.1.2-.2.3.3 0 .5-.1.7.1-.3.1-.5.2-.7.4 0-.1-.1-.2-.1-.3-.2.1-.3.2-.4.3h-.4c.1.1.2.2.2.3-.3 0-.4.2-.4.4.2-.1.5-.2.7-.2.1-.3.4-.4.7-.5-.1.2-.2.4-.4.6.4 0 .5.4.5.7.2 0 .4.1.5.1.2-.1.4-.3.5-.5h.2c0-.1.1-.4.2-.5.2-.2.5.1.7.3 0-.1.1-.1.2-.1 0 .1.1.1.1.1v-.3c.1.1.3.1.4.1l-.3.3h.4v-.2h.3c0-.1.1-.2.1-.3 0-.1-.1-.2-.2-.3-.4.3-.9.3-1.4.3 0-.1.1-.2.1-.2.6 0 .9-.4 1.3-.6v.2c.1 0 .2-.1.3-.1v-.3c-.1 0-.3-.1-.3-.1 0-.1-.1-.2-.1-.2-.3-.1-.6-.2-1-.1v-.3c.2-.2.4-.3.6-.4v.3c.2.1.4.1.5.2 0-.1.1-.2.2-.2.2.2.5.4.7.6.1.2.1.5.1.7h-.4v.2h-.3c.1.1.2.2.2.3 0 .1-.1.2-.1.2.1.2.2.3.3.4-.1-.2-.1-.3-.1-.5.1.1.2.1.3.2.1-.2.3-.4.5-.6-.1-.1-.2-.2-.2-.3.3-.1.5-.2.7-.2-.1-.1-.3-.2-.4-.3v-.4c.1 0 .2.2.2.2l.1-.1c.1 0 .1.1.1.2.1-.2.3-.3.2-.5s-.3-.3-.4-.4zm-3.3-2.1c0 .1-.1.1-.1.2h.1v-.2zm.5-.7v-.2c0 .1-.1.2-.2.2 0-.1-.1-.2-.2-.2 0 .1 0 .3-.1.9.1-.2.2-.4.2-.6.1 0 .3-.1.3-.1z"/>
	</g>
</svg>