<svg xmlns="http://www.w3.org/2000/svg" viewBox="0 0 162.9 40">
	<path fill="#dd1f2a" d="M13.7 8.1c0-4.8 2.9-8 6.5-8.1 3.6-.1 6.7 3.1 6.8 7.1 0 1.9-.5 3.8-1.5 5.5-1.4 2.5-5.9 7-5.9 7L18 16.2s.7-1 1.7-2.2c1.2-1.4 2.2-3.1 3-4.8.3-.6.4-1.3.4-2-.1-1.7-1.2-3-2.7-3-1.4 0-2.6 1.4-2.7 3.1-.1 1.2.3 2.4.9 3.4.3.5.8 1.4.8 1.4L16.9 15c-.6-.7-1.1-1.5-1.6-2.3-1-1.7-1.6-3.5-1.6-4.6m-1 4.5c-1.1-1.1-2.4-1.9-3.9-2.3-3.7-1-7.6 1-8.6 4.6-.4 1.8-.2 3.7.8 5.3s2.5 2.8 4.3 3.3c1.7.5 3.7.5 5.5 0 .7-.2 1.3-.4 1.9-.6l-1.9-3.6s-.8.3-1.4.4c-1.1.3-2.3.2-3.4-.3-1.5-.6-2.3-2.3-1.8-3.6.5-1.4 2.3-2 3.8-1.5.8.4 1.5.8 2.1 1.4 3.4 2.9 4.7 8 4.7 8s-4.4 1.5-6 2.5c-3.1 2.1-4.4 5.9-3.2 9.1.4 1.2 1.2 2.3 2.3 3 1 .8 2.3 1.2 3.6 1.2 1.5 0 2.9-.4 4.1-1.3 1.2-.8 2.2-2 2.7-3.3.9-2.1 1.1-4.3 1.1-6.5 0-3-.6-5.9-1.7-8.7-1.2-2.5-2.9-5-5-7.1zm1.6 21.3c-.6 1.1-1.6 1.8-2.9 1.7-.5 0-.9-.2-1.3-.5s-.6-.7-.8-1.1c-.5-1.3 0-2.3.8-3.3 1.3-1.8 5-2.7 5-2.7s.1 1.5.1 2c.1 1.3-.2 2.7-.9 3.9m7.8-.4c.4 1.5 1.1 2.9 2.2 4.1 2.7 2.9 7 3.2 9.7.7 2.7-2.6 2.8-7.1.2-10-1.3-1.4-2.9-2.4-4.7-3-.6-.2-1.3-.4-1.9-.5l-.2 4.1s.8.2 1.4.4c1.1.3 2.1 1.1 2.8 2.1 1 1.4.8 3.2-.3 4.1-1.2.9-3 .5-3.9-.8-.5-.7-.8-1.5-1-2.3-1.4-4.3.1-9.4.1-9.4s4.5 1.1 6.4 1c3.7-.2 6.8-2.6 7.4-6 .3-1.3.1-2.6-.3-3.8-.5-1.2-1.3-2.3-2.4-3-1.7-.8-3.2-1.2-4.6-1.2-1.5 0-2.9.5-4.1 1.4-1.8 1.3-3.1 3-4.3 4.9-1.5 2.6-2.6 5.4-3 8.4-.4 2.9-.3 5.9.5 8.8zm9.5-18.9c.5-.3 1.1-.5 1.7-.5.6 0 1.2.2 1.6.6.4.3.7.6.9 1.1.2.4.2.9.1 1.4-.3 1.3-1.2 1.9-2.4 2.4-2 .8-5.6-.4-5.6-.4l.9-1.8c.7-1.2 1.7-2.1 2.8-2.8"/>
	<g fill="#242122">
		<path d="M49.3 37.3H44.9c-.1 0-.2-.1-.3-.2-.1-.1-.1-.2-.2-.3 0-.1-.1-.2-.1-.3v-3.7c0-.2.1-.4.3-.6.2-.1.4-.2.6-.2h4.1c.2 0 .4.1.6.2.2.1.3.3.3.6v3.7c0 .2-.1.4-.3.6-.1.1-.3.2-.6.2m10.3 0h-4.5c-.1 0-.2-.1-.3-.2s-.1-.2-.2-.3c0-.1-.1-.2-.1-.3v-3.7c0-.2.1-.4.3-.6.2-.1.4-.2.6-.2h4.2c.2 0 .4.1.6.2.2.1.3.3.3.6v3.7c0 .2-.1.4-.3.6-.2.1-.4.2-.6.2m10.2 0h-4.5c-.1 0-.2-.1-.3-.2-.1-.1-.1-.2-.2-.3 0-.1-.1-.2-.1-.3v-3.7c0-.2.1-.4.3-.6.2-.1.4-.2.6-.2h4.2c.2 0 .4.1.6.2.2.1.3.3.3.6v3.7c0 .2-.1.4-.3.6-.2.1-.4.2-.6.2m10.2 0h-4.5c-.1 0-.2-.1-.3-.2-.1-.1-.1-.2-.2-.3 0-.1-.1-.2-.1-.3v-3.7c0-.2.1-.4.3-.6.2-.1.4-.2.6-.2H80c.2 0 .4.1.6.2.2.1.3.3.3.6v3.7c0 .2-.1.4-.3.6-.1.1-.3.2-.6.2m10.3 0h-4.5c-.1 0-.2-.1-.3-.2s-.1-.2-.2-.3c0-.1-.1-.2-.1-.3v-3.7c0-.1 0-.2.1-.3 0-.1.1-.2.2-.3s.2-.1.3-.2h4.5c.2 0 .4.1.6.2.2.1.3.3.3.6v3.7c0 .2-.1.4-.3.6s-.4.2-.6.2m10.2 0h-4.2c-.2 0-.4-.1-.6-.2-.2-.1-.3-.4-.3-.6v-3.7c0-.2.1-.4.3-.6s.4-.2.6-.2h4.2c.2 0 .4.1.6.2.2.1.3.3.3.6v3.7c0 .2-.1.4-.3.6s-.4.2-.6.2m10.3 0h-4.5c-.1 0-.2-.1-.3-.2-.1-.1-.1-.2-.2-.3s-.1-.2-.1-.3v-3.7c0-.2.1-.4.3-.6.2-.1.4-.2.6-.2h4.2c.2 0 .4.1.6.2.2.1.3.3.3.6v3.7c0 .2-.1.4-.3.6-.2.1-.4.2-.6.2m10.2 0h-4.5c-.1 0-.2-.1-.3-.2-.1-.1-.1-.2-.2-.3 0-.1-.1-.2-.1-.3v-3.7c0-.2.1-.4.3-.6.2-.1.4-.2.6-.2h4.2c.2 0 .4.1.6.2.2.1.3.3.3.6v3.7c0 .2-.1.4-.3.6s-.3.2-.6.2m10.3 0h-4.5c-.1 0-.2-.1-.3-.2-.1-.1-.1-.2-.2-.3 0-.1-.1-.2-.1-.3v-3.7c0-.2.1-.4.3-.6.2-.1.4-.2.6-.2h4.2c.2 0 .4.1.6.2.2.1.3.3.3.6v3.7c0 .2-.1.4-.3.6s-.4.2-.6.2m10.2 0H137c-.1 0-.2-.1-.3-.2-.1-.1-.1-.2-.2-.3 0-.1-.1-.2-.1-.3v-3.7c0-.2.1-.4.3-.6.2-.1.4-.2.6-.2h4.2c.2 0 .4.1.6.2.2.1.3.3.3.6v3.7c0 .2-.1.4-.3.6s-.3.2-.6.2m10.3 0h-4.5c-.1 0-.2-.1-.3-.2-.1-.1-.1-.2-.2-.3 0-.1-.1-.2-.1-.3v-3.7c0-.2.1-.4.3-.6.2-.1.4-.2.6-.2h4.2c.2 0 .4.1.6.2.2.1.3.3.3.6v3.7c0 .2-.1.4-.3.6s-.4.2-.6.2m10.2 0h-4.2c-.2 0-.4-.1-.6-.2-.2-.1-.3-.3-.3-.6v-3.7c0-.2.1-.4.3-.6.2-.1.4-.2.6-.2h4.2c.2 0 .4.1.6.2.2.1.3.3.3.6v3.7c0 .2-.1.4-.3.6-.1.1-.4.2-.6.2M44.5 3.6h6.7v1.1h-5.4v2.9h2.7c.5 0 1 .1 1.5.2.4.2.7.4 1 .6.3.2.5.6.6.9.1.4.2.8.2 1.2 0 .4-.1.8-.2 1.2-.1.4-.3.7-.6.9-.3.3-.6.5-1 .6-.4.1-.9.2-1.3.2h-4.3c.1 0 .1-9.8.1-9.8zm1.3 8.7h2.8c.2 0 .5 0 .7-.1.2-.1.4-.1.6-.3.2-.1.3-.3.4-.5.1-.3.2-.5.1-.8 0-.3 0-.6-.2-.8-.1-.2-.2-.4-.4-.5-.2-.1-.4-.2-.7-.3-.3-.1-.6-.1-.9-.1h-2.5v3.4zm6.6 1.1l3.7-9.9h1.6l3.5 9.9h-1.5l-1-3h-3.8l-1.1 3h-1.4zm6-4L56.9 5l-1.6 4.4h3.1zm4-5.8h1.3v4h5.2v-4h1.3v9.8h-1.3V8.8h-5.2v4.6h-1.3V3.6zm9.9 0h1.3v4.8l4.7-4.8h1.8L76 7.5l4.2 5.8h-1.7l-3.4-4.9-1.5 1.6v3.4h-1.3V3.6zM123.8 16h6.7c.5 0 1 0 1.5.2.4.1.8.2 1.1.4.6.3 1 .8 1.3 1.4.1.2.2.5.3.8.1.3.1.5.1.8 0 .3 0 .6-.1.9-.1.3-.2.5-.3.7-.1.2-.3.4-.5.6-.2.2-.5.4-.8.5.4.1.8.4 1.1.6.3.2.5.5.6.8l.3.9c0 .3.1.6.1.9 0 .6-.1 1.2-.4 1.8-.2.5-.6.9-1 1.3-.5.4-1 .6-1.6.8-.7.2-1.4.3-2.1.3h-6.2V16zm2.7 5.3h3.5c.2 0 .5 0 .7-.1.2-.1.4-.1.6-.3.2-.1.3-.3.4-.5.1-.2.2-.5.2-.7 0-.2 0-.5-.1-.7-.1-.2-.2-.3-.4-.4-.2-.1-.4-.2-.6-.2-.2 0-.5-.1-.7-.1h-3.6v3zm0 5.9h3.5c.3 0 .6 0 .9-.1.3-.1.5-.2.7-.3.2-.2.4-.3.5-.6.1-.3.2-.5.2-.8 0-.3 0-.7-.2-1-.1-.2-.3-.4-.5-.5-.2-.1-.5-.2-.7-.3-.3 0-.5-.1-.8-.1h-3.5l-.1 3.7zm11-11.2h10v2.3h-7.3v3h6.7v2.4h-6.7v3.4h7.6v2.5h-10.3V16zm12.7 0h2.8v5.5l5.2-5.5h3.7l-5.6 5.6 5.9 8h-3.6l-4.2-6L153 25v4.6h-2.8V16zM44.5 16h2.9v5.2h5.4V16h2.8v13.6h-2.8v-6.1h-5.4v6.1h-2.9V16zm13.2 6.8c0-1 .1-1.9.4-2.8.2-.8.7-1.6 1.2-2.3.6-.7 1.3-1.2 2-1.5.9-.4 1.9-.6 2.9-.5.9 0 1.9.2 2.7.5.8.3 1.5.9 2.1 1.5.6.7 1 1.4 1.3 2.3.6 1.8.6 3.8 0 5.7-.3.8-.7 1.6-1.3 2.3-.6.6-1.3 1.2-2.1 1.5-.9.4-1.8.6-2.7.5-1 0-2-.2-2.9-.5-.8-.3-1.5-.9-2.1-1.5-.6-.7-1-1.4-1.2-2.3-.2-1-.3-2-.3-2.9zm6.6 4.7c.5 0 1.1-.1 1.6-.4.5-.2.9-.6 1.2-1 .3-.4.6-.9.7-1.5.3-1.2.3-2.5 0-3.8-.2-.5-.4-1-.7-1.5-.3-.4-.7-.7-1.2-1-.5-.2-1-.4-1.6-.4-.5 0-1.1.1-1.6.4-.5.2-.9.6-1.2 1-.3.4-.6.9-.7 1.5-.3 1.2-.3 2.5 0 3.8.2.5.4 1 .7 1.5.3.4.7.7 1.2 1 .5.3 1 .4 1.6.4zM73.2 16h6.7c.5 0 1 0 1.5.2.4.1.8.2 1.1.4.6.3 1 .8 1.3 1.4.1.2.2.5.3.8.1.2.1.5.1.8 0 .3 0 .6-.1.9-.1.3-.2.5-.3.7-.1.2-.3.4-.5.6-.2.2-.5.4-.8.5.4.1.8.4 1.1.6.3.2.5.5.7.8l.3.9c0 .3.1.6.1.9 0 .6-.1 1.2-.4 1.7-.2.5-.6.9-1 1.3-.5.4-1 .6-1.6.8-.7.2-1.4.3-2.1.3h-6.3c-.1 0-.1-13.6-.1-13.6zm2.7 5.3h3.5c.2 0 .5 0 .7-.1.2-.1.4-.1.6-.3.2-.1.3-.3.4-.5.1-.2.2-.5.2-.7 0-.2 0-.5-.1-.7-.1-.2-.2-.3-.4-.4-.2-.1-.4-.2-.6-.2-.2 0-.5-.1-.7-.1h-3.6v3zm0 5.9h3.5c.3 0 .6 0 .9-.1.3-.1.5-.2.7-.3.2-.2.3-.3.5-.6.1-.3.2-.5.2-.8 0-.3 0-.7-.2-1-.1-.2-.3-.4-.5-.5-.2-.1-.5-.2-.7-.3-.3 0-.5-.1-.8-.1H76c-.1 0-.1 3.7-.1 3.7zm11-11.2h2.8v5.4h3.5c.3 0 .7.1 1 .1.4.1.7.2 1.1.4.4.2.7.4 1 .7.3.3.6.7.7 1.2.2.6.3 1.2.3 1.7 0 .6-.1 1.2-.3 1.7-.2.4-.4.8-.7 1.2-.3.3-.6.5-1 .7-.3.2-.7.3-1 .4-.3.1-.6.1-.9.1h-6.5V16zm2.9 11.3h2.4c.3 0 .5 0 .8-.1.3 0 .5-.1.8-.2.2-.1.4-.3.6-.5.2-.3.2-.6.2-1 0-.3-.1-.7-.2-1-.1-.2-.3-.4-.6-.6-.2-.1-.5-.2-.8-.2H89.8v3.6zM99.2 16h2.8v13.6h-2.8V16zm5.4 0h2.7v9.3l5.4-9.3h2.9v13.6h-2.8v-9.2l-5.4 9.2h-2.9V16z"/>
		<path d="M110.1 17.4h-1.7l1.4-2.7h2l-1.7 2.7z"/>
	</g>
</svg>