<svg xmlns="http://www.w3.org/2000/svg" viewBox="0 0 170.9 46.2">
	<g fill="#008036">
		<path d="M103.3 6.8C99.9 3.6 95.6 1.4 90.8.5c-4.7-.9-9.6-.5-14.1 1.3-4.5 1.7-8.3 4.7-10.9 8.5-2.7 3.8-4.1 8.2-4.1 12.8 0 3 .6 6 1.9 8.8 1.3 2.8 3 5.3 5.3 7.5 2.3 2.1 4.9 3.8 7.9 5s6.1 1.8 9.3 1.8c4.8 0 9.5-1.3 13.5-3.9s7.1-6.1 9-10.3c1.8-4.2 2.3-8.8 1.4-13.3-1-4.6-3.3-8.7-6.7-11.9zm4.3 20.2c-.8 4-2.9 7.7-6 10.6-3.1 2.9-7 4.9-11.2 5.7-4.3.8-8.7.4-12.7-1.2s-7.4-4.2-9.8-7.6c-2.4-3.4-3.7-7.4-3.7-11.5 0-5.5 2.3-10.7 6.4-14.6s9.7-6.1 15.5-6.1c4.3 0 8.6 1.2 12.2 3.5s6.4 5.5 8.1 9.3c1.6 3.8 2 7.9 1.2 11.9z"/>
		<path d="M93.6 21.4c1.4-.3 2.7-1.1 3.6-2.2s1.4-2.4 1.4-3.8v-.1c0-1.7-.7-3.2-1.9-4.4S93.8 9.1 92 9.1h-3v.5c.7 0 1.4.3 1.9.7.5.5.8 1.1.8 1.8v22l-7.5-21.3c-.4-1.1-1.1-2.1-2.2-2.8-1-.7-2.3-1-3.5-.9h-4.4v.5h.1c.7 0 1.4.3 1.8.7.5.5.8 1.1.8 1.7v21.9c0 .7-.3 1.3-.8 1.7-.5.5-1.2.7-1.8.7h-.1v.7H82v-.7h-1c-.3 0-.7-.1-1-.2-.3-.1-.6-.3-.9-.5-.2-.2-.4-.5-.6-.8s-.2-.6-.2-1V16.2l5 13.7C84 32 86.4 37 91.9 37c2.2 0 4.3-.8 5.9-2.3s2.4-3.5 2.4-5.5V29c0-1.8-.6-3.5-1.8-4.9-1.3-1.3-3-2.3-4.8-2.7zm-40-5c-3.6 0-6.5 1.8-7.3 5-.2.7-.3 1.2-.5 1.8-.2.6-.3 1.2-.5 2-.8 3.1 1.5 5.3 4.9 5.3 1.7 0 3.3-.5 4.6-1.5s2.3-2.3 2.7-3.8c.2-.8.3-1.3.5-1.9s.3-1.1.5-1.9c.8-3.2-1.3-5-4.9-5zm1.1 5.8c-.1.3-.2.6-.2.8-.1.5-.2.9-.4 1.5-.5 2-1.9 3.3-3.3 3.3s-2.2-1.3-1.8-3.3c.1-.5.2-.9.3-1.3.1-.3.2-.6.3-1.1.5-1.9 1.8-3.1 3.3-3.1s2.3 1.2 1.8 3.2zm-11.1-5.6h-2.9l-.1.4c.6-.1.7.3.2.7l-3.9 3.2.9-3.7V17c0-.1-.1-.2-.1-.2-.1-.1-.1-.1-.2-.1h-3.8l-.1.4c.1 0 .2 0 .2.1.1 0 .1.1.2.2 0 .1.1.1.1.2v.2c-1 3.9-1.9 7.9-2.9 11.8v.3c0 .1.1.2.1.2.1.1.1.1.2.1h3.9l.1-.4h-.2c-.1 0-.1-.1-.2-.1-.1-.1-.1-.1-.1-.2v-.2l1.1-4.4 1.6-1.3 1.5 6c.1.3.3.5.6.6.3.1.6.2.9.1h1.5c.5 0 .8-.2.9-.8l.4-1.7h-1c-.3 0-.5-.1-.5-.3l-1.6-6 4-3.3c1.3-1.1.5-1.7-.8-1.6zm-13.5.2c-.1-.1-.1-.1-.2-.1h-3.8v-.1l-.2.4c.1 0 .2 0 .2.1.1 0 .1.1.2.2 0 .1.1.1.1.2v.4l-5.7 6 .7-2.8.9-3.8v-.2c0-.1-.1-.2-.1-.2-.1-.1-.1-.1-.2-.1h-3.8l-.1.4c.1 0 .2 0 .2.1.1 0 .1.1.2.2 0 .1.1.1.1.2v.2l-.2.7-2.7 11.1v.3c0 .1.1.2.1.2.1.1.1.1.2.1h3.9l.1-.4h-.2c-.1 0-.1-.1-.2-.1-.1-.1-.1-.1-.1-.2v-.2l.1-.4 5.7-6.1c-.6 2.3-1.1 4.5-1.7 6.8v.2c0 .1.1.2.1.2.1.1.1.1.2.1h3.9l.1-.4h-.3c-.1 0-.2-.1-.2-.1s-.1-.1-.1-.2v-.2l2-8.3.9-3.8V17c0-.1-.1-.1-.1-.2zm-15.7 0c-.1-.1-.1-.1-.2-.1h-3.8l-.1.5c.1 0 .2 0 .2.1.1 0 .1.1.2.2 0 .1.1.1.1.2v.2l-.9 3.7H5.6l.1-.4.9-3.8v-.2c0-.1-.1-.2-.1-.2-.1-.1-.1-.1-.2-.1H2.5l-.1.2c.1 0 .2 0 .2.1.1 0 .1.1.2.2 0 .1.1.1.1.2v.2c-.6 2.4-1.2 4.9-1.8 7.3-.4 1.5-.7 3.1-1.1 4.6v.3c0 .1.1.2.1.2.1.1.1.1.2.1h3.9l.1-.4h-.2c-.1 0-.1-.1-.2-.1-.1-.1-.1-.1-.1-.2v-.2l1.3-5.2h4.3l-.9 3.6c-.2.7-.3 1.3-.5 2v.3c0 .1.1.2.1.2.1.1.1.1.2.1h3.9l.1-.4h-.2c-.1 0-.1-.1-.2-.1-.1-.1-.1-.1-.1-.2v-.2l2-8.3.9-3.8v-.2s-.3-.3-.3-.4zm155.1-.4h-3l-.1.4c.6 0 .7.3.2.7l-4 3.3.9-3.8v-.3c0-.1-.1-.2-.1-.2-.1-.1-.1-.1-.2-.1h-3.9l-.1.1-.1.4c.1 0 .2 0 .2.1.1 0 .1.1.2.2 0 .1.1.2.1.2v.2c-.4 1.5-.7 3-1.1 4.5-.6 2.6-1.2 5.1-1.9 7.7v.3c0 .1.1.2.1.2l.2.2h4.1l.1-.4h-.3c-.1 0-.2-.1-.2-.1-.1-.1-.1-.1-.1-.2v-.2l1.1-4.6 1.6-1.4 1.6 6.2c.2.6.7.8 1.5.8h1.6c.5 0 .8-.3 1-.8l.4-1.7h-1c-.3 0-.5-.1-.5-.3l-1.6-6.1 4.1-3.5c1.3-1.3.4-1.9-.8-1.8zm-12.7.7v-.2c0-.1-.1-.2-.1-.2-.1-.1-.1-.1-.2-.1h-4.1l-.1.4c.1 0 .2 0 .2.1.1 0 .1.1.2.2 0 .1.1.1.1.2v.2c-.3 1.3-.6 2.5-.9 3.8h-4.4l.1-.4.9-3.9c.1-.4-.2-.6-.6-.6h-3.5l-.1.4c.1 0 .2 0 .2.1.1 0 .1.1.2.2 0 .1.1.1.1.2v.2l-.6 2.4c-.8 3.3-1.6 6.5-2.4 9.8v.3c0 .1.1.2.1.2l.2.2h4.1l.1-.4h-.3c-.1 0-.2-.1-.2-.1-.1-.1-.1-.1-.1-.2v-.2l1.3-5.4h4.4c-.2.9-.4 1.7-.6 2.6-.3 1.1-.5 2.1-.8 3.2v.3c0 .1.1.2.1.2l.2.2h4.1l.1-.4h-.3c-.1 0-.2-.1-.2-.1-.1-.1-.1-.1-.1-.2v-.2l2-8.4.9-4.4zM138.6 29l-.2-11.3c0-1.2-.7-1.3-1.8-1.3h-3.8l-.1.4c.7 0 .8.4.5.9l-7.3 11.8c-.2.4-.1 1 .5 1h3.5l.1-.4c-.1 0-.2 0-.3-.1s-.2-.1-.2-.2c-.1-.1-.1-.2-.1-.3 0-.1.1-.2.1-.3l1.3-2.1h4.2v2.5c0 .3.1 1 .6 1h3.6l.1-.4c-.5-.2-.7-.8-.7-1.2zm-3.7-4.4h-2.6l2.6-4.2v4.2zm-19.2-7.7c.1 0 .2 0 .2.1.1 0 .1.1.2.2 0 .1.1.2.1.2v.2l-.6 2.4c-.8 3.3-1.6 6.6-2.4 9.8v.3c0 .1.1.2.1.2l.2.2h5.9c1.2.1 2.4-.2 3.4-.9 1-.6 1.7-1.6 2-2.7l.5-1.8c.6-2.6-1.6-3.9-4.1-3.9H119l.1-.3.6-2.4h4.7c.3 0 .6-.1.8-.3.2-.2.4-.4.5-.7l.3-1.2h-10.1l-.2.6zm2.7 6.9h1.3c1.1 0 2.1.5 1.8 1.7l-.2.8c-.1.5-.5.9-.9 1.2-.4.3-.9.4-1.5.4h-1.5l1-4.1z"/>
	</g>
</svg>