<svg xmlns="http://www.w3.org/2000/svg" viewBox="0 0 93.6 50">
	<g fill="#293895">
		<path d="M88.8 19.9h-2.5l-4.5 10.2h2.5l1-2.3H90l1 2.3h2.6l-4.8-10.2zM86 26.1l1.6-3.8 1.6 3.8H86zm-8.7-6.2h-3.8v10.2h2.4v-3.9h1.5c.8 0 1.6 0 2.4-.1.4-.1.8-.3 1.2-.5.4-.3.8-.7 1-1.1.2-.5.4-1 .3-1.5 0-.8-.2-1.5-.7-2-.4-.5-1-.9-1.7-1-.2 0-1.1-.1-2.6-.1zm2.5 4c-.2.2-.4.4-.7.5s-.9.2-1.9.2h-1.3v-2.9H77c.6 0 1.1 0 1.7.1.4 0 .7.2.9.5.1.1.2.3.3.4.1.2.1.3.1.5.1.2 0 .5-.2.7zm-19 1.1c0-1.1-.4-2.1-1.2-2.8-.8-.7-2.1-1.1-3.9-1.2v-1h-2.3v1c-1.8.1-3.1.4-3.9 1.2-.8.7-1.2 1.7-1.2 2.8 0 .5.1 1 .3 1.5.2.5.5.9.9 1.3.8.7 2.1 1.1 3.9 1.2v1.2h2.3V29c1.9-.1 3.2-.5 3.9-1.2.8-.8 1.2-1.8 1.2-2.8zm-7.4 2.2c-1.9 0-2.8-.7-2.8-2.2 0-.8.2-1.4.7-1.8.4-.4 1.2-.6 2.1-.6v4.6zm4.9-1c-.2.3-.6.6-.9.7-.5.2-1 .3-1.6.3v-4.6c1.9 0 2.8.7 2.8 2.2-.1.7-.2 1.1-.3 1.4zm3.1-25L63.2 4c5.2.1 10.4.5 15.5 1.4C74 2 68 0 61.4 0S48.9 2 44.1 5.4c5.1-.8 10.3-1.3 15.5-1.4l1.8-2.8z"/>
		<path d="M58.8 5.3c-6.4.2-12.3 1.1-17.6 2.5l-1 1C46 7.7 51.8 7 57.7 6.9l1.1-1.6zm6.6 2c5.9.2 11.8.8 17.5 1.9-.3-.3-.6-.7-1-1-5.3-1.4-11.2-2.3-17.6-2.5l1.1 1.6zm-8.4.8c-7 .3-13.5 1.5-18.9 3.3-.3.3-.5.7-.7 1.1 5.4-1.2 11.6-2 18.3-2.3L57 8.1zm-2.2 3.5c-7.2.5-13.8 1.8-18.9 3.6-.4.8-.7 1.7-1 2.5h16l3.9-6.1zm-4 20.7h-16c.3.9.6 1.7 1 2.5 5.1 1.8 11.6 3.1 18.9 3.6l-3.9-6.1zm4.9 7.6c-6.7-.3-12.9-1.1-18.3-2.3.2.4.5.7.7 1.1C43.5 40.5 50 41.6 57 42l-1.3-2.1zm2.1 3.2c-5.9-.2-11.8-.8-17.5-1.9.3.3.6.7 1 1 5.2 1.4 11.2 2.3 17.6 2.5l-1.1-1.6z"/>
		<path d="M61.4 48.8L59.6 46c-5.2-.1-10.4-.5-15.5-1.4C48.9 48 54.9 50 61.4 50s12.5-2 17.3-5.4c-5.1.8-10.3 1.3-15.5 1.4l-1.8 2.8z"/>
		<path d="M64.1 44.7c6.4-.2 12.3-1.1 17.6-2.5.3-.3.7-.6 1-1-5.8 1.1-11.6 1.8-17.5 1.9l-1.1 1.6zm1.7-2.8c7-.3 13.5-1.5 18.9-3.3.3-.3.5-.7.7-1.1-5.4 1.2-11.6 2-18.3 2.3l-1.3 2.1zm2.3-3.5c7.2-.5 13.8-1.8 18.9-3.6.4-.8.7-1.7 1-2.5H72l-3.9 6.1zM72 17.7h16c-.3-.9-.6-1.7-1-2.5-5.1-1.8-11.6-3.1-18.9-3.6l3.9 6.1zm-4.9-7.6c6.7.3 12.9 1.1 18.3 2.3-.2-.4-.5-.7-.7-1.1C79.3 9.5 72.8 8.4 65.8 8l1.3 2.1zM.8 38c.1 0 .2 0 .2.1.1.1.1.2.2.3v.2l.3.7h.7l-.2-.9c-.1-.2-.2-.3-.3-.4-.1-.1-.2-.2-.3-.2.1 0 .2-.1.2-.2s.1-.2.1-.2c0-.1.1-.2.1-.3s.1-.1.1-.1h.4v-.4h-.1c-.2 0-.4 0-.6.1-.2.1-.3.3-.4.5-.1.1-.1.3-.2.4-.1.1-.2.1-.3.1v-1.1H.1v2.7h.6L.8 38zm1.8-.2c0 .2 0 .4.1.5.1.2.2.3.3.5.1.1.3.2.5.3s.4.1.5.1c.2 0 .4 0 .5-.1.2-.1.3-.2.5-.3.2-.3.4-.6.4-1s-.1-.7-.4-1c-.1-.1-.3-.2-.5-.3s-.4-.1-.5-.1c-.2 0-.4 0-.6.1-.1.1-.3.1-.4.2-.1.1-.2.2-.3.4-.1.3-.1.5-.1.7zm.6 0c0-.3.1-.5.2-.7.1-.1.2-.1.3-.2.1 0 .2-.1.3-.1s.2 0 .3.1c.1 0 .2.1.3.2.2.2.2.4.2.7s-.1.5-.2.7c-.1.1-.2.1-.3.2-.1 0-.2.1-.3.1s-.2 0-.3-.1c-.1 0-.2-.1-.3-.2-.2-.2-.3-.4-.2-.7zm4 .5l-.5-1.8h-.9v2.7h.5v-2.1l.6 2.1h.6l.5-2.1v2.1h.5v-2.7h-.8l-.5 1.8zm3.3 0l-.5-1.8h-.9v2.7h.6v-2.1l.5 2.1h.6l.5-2.1v2.1h.6v-2.7H11l-.5 1.8zM13 38h1.5v-.5H13v-.6h1.6v-.4h-2.1v2.7h2.1v-.5H13V38zm3.7-1.5h-1.6v2.7h.6v-1h1c.1 0 .2-.1.3-.1.1-.1.2-.2.2-.3.1-.1.1-.3.1-.4 0-.2-.1-.4-.2-.5 0-.2-.2-.3-.4-.4zm0 1c0 .1-.1.1-.2.1s-.3.1-.5 0h-.3v-.8h.7c.1 0 .2.1.2.1l.1.1v.5zm2.7.1c-.1.1-.2.1-.2.1h-.3c-.1 0-.2 0-.4-.1 0 0-.1 0-.1-.1 0 0 0-.1-.1-.1v-1h-.6v.9c0 .1 0 .3.1.4.1.1.1.2.2.3.2.1.5.2.7.2h.3c.1 0 .2-.1.3-.1v1.1h.7v-2.7h-.6v1.1zm1.8.4h1.4v-.5h-1.4v-.6h1.5v-.4h-2.1v2.7h2.2v-.5h-1.6V38zm3.9.2c0 .2-.1.3-.2.4-.1.1-.3.1-.4.1s-.2 0-.3-.1c-.1 0-.2-.1-.2-.2-.1-.1-.2-.4-.2-.7 0-.2 0-.5.2-.7h.2c.1 0 .2-.1.3-.1.1 0 .3 0 .4.1s.2.2.2.3l.6-.1c0-.2-.2-.4-.3-.5-.2-.2-.5-.3-.9-.3-.2 0-.4 0-.5.1s-.3.2-.4.3-.2.3-.3.5c-.1.2-.1.4-.1.6 0 .2 0 .4.1.5.1.2.2.3.3.5.2.2.5.3.8.4.3 0 .6 0 .9-.2.2-.2.4-.4.4-.7l-.6-.2zm2.5-.2c-.1-.1-.2-.2-.3-.2.1 0 .2-.1.2-.2s.1-.2.1-.2c0-.1.1-.2.1-.3s.1-.1.1-.1h.4v-.4h-.1c-.2 0-.4 0-.6.1s-.3.3-.4.5c-.1.1-.1.3-.2.4-.1.1-.2.1-.3.1v-1.1H26v2.7h.6V38c.1 0 .2 0 .2.1.1.1.1.2.2.2v.2l.3.7h.7l-.4-.7c.2-.2.1-.4 0-.5zm1.6.3v-1.8h-.6v2.7h.6l1.2-1.8v1.8h.5v-2.7h-.6l-1.1 1.8zm2.8 0v-1.8h-.5v2.7h.6l1.1-1.8v1.8h.6v-2.7h-.6L32 38.3zm.9-2.4c-.1 0-.2.1-.2.1s-.2 0-.2-.1l-.1-.1v-.1H32c0 .1 0 .1.1.2 0 .1.1.1.1.2.1.1.3.1.4.1.2 0 .3 0 .4-.1.1 0 .1-.1.1-.2s.1-.1.1-.2H33s0 .1-.1.2zm-30.8 7c-.2-.1-.4-.1-.5-.1H.8v-.6h1.6v-.5H.3v2.7h1.3c.2 0 .4 0 .5-.1s.3-.1.3-.3c.1-.1.2-.3.2-.5s0-.3-.1-.5c-.1 0-.2-.1-.4-.1zm-.1.9c-.1.1-.1.1-.2.1h-1v-.7h.6c.2 0 .3 0 .5.1l.1.1v.2c.1.1 0 .1 0 .2zm1.8-2.1l-1.1 2.7h.6l.2-.6h1.1l.2.6h.6l-1.1-2.7h-.5zm.7 1.6h-.8l.4-1 .4 1zm3.1-.5H6.4v-1.1h-.5v2.7h.5v-1.2h1.2v1.2h.6v-2.7h-.6v1.1zm2.6.4c-.1-.1-.2-.2-.3-.2.1 0 .2-.1.2-.2s.1-.2.1-.2c0-.1.1-.2.1-.3s.1-.1.1-.1h.4v-.4h-.1c-.2 0-.4 0-.6.1-.2.1-.3.3-.4.5-.1.1-.1.3-.2.4-.1.1-.2.1-.3.1v-1.1h-.6v2.7h.6v-1.2c.1 0 .2 0 .2.1.1.1.1.2.2.2v.2l.3.7h.7l-.4-.7c.2-.3.1-.5 0-.6zm61.1-21.5v-1.8h-8.6v10.3h8.9v-1.8h-6.5v-2.8h5.8v-1.7h-5.8v-2.2h6.2zM42 21.5c.6 0 1.1.1 1.6.5.4.3.7.7.9 1.3l2.3-.5c-.3-.8-.7-1.4-1.2-1.9-.9-.7-2-1.1-3.5-1.1-1.6 0-2.9.5-3.9 1.4s-1.5 2.3-1.5 4c0 1.6.5 2.9 1.5 3.8s2.3 1.4 3.8 1.4c1.3 0 2.3-.3 3.1-.8.8-.5 1.4-1.4 1.7-2.5l-2.3-.6c-.2.7-.5 1.3-1 1.6-.5.4-1 .5-1.6.5-.4 0-.8-.1-1.1-.2-.4-.1-.7-.4-.9-.6-.5-.5-.8-1.5-.8-2.8 0-1.2.3-2.1.8-2.6.5-.6 1.2-.9 2.1-.9zm-12.4 8.8c1.7 0 3.1-.5 4.1-1.4s1.5-2.2 1.5-3.9c0-1.7-.5-3-1.5-3.9s-2.4-1.4-4.1-1.4c-.9 0-1.7.1-2.5.4-.6.2-1.1.5-1.5.9s-.8.9-1.1 1.4c-.4.7-.5 1.6-.5 2.6 0 1.6.5 2.9 1.5 3.8 1 1.1 2.4 1.5 4.1 1.5zm-2.4-7.9c.6-.6 1.4-.9 2.3-.9 1 0 1.7.3 2.3.9.6.6.9 1.4.9 2.6s-.3 2.1-.9 2.7c-.3.3-.7.5-1.1.7s-.8.2-1.2.2c-.4 0-.9-.1-1.3-.2-.4-.2-.8-.4-1.1-.7-.6-.6-.9-1.5-.9-2.6.1-1.2.4-2.1 1-2.7zm-10.3 7.9c1.7 0 3.1-.5 4.1-1.4s1.5-2.2 1.5-3.9c0-1.7-.5-3-1.5-3.9s-2.4-1.4-4.1-1.4c-.9 0-1.7.1-2.5.4-.6.2-1.1.5-1.5.9s-.8.9-1.1 1.4c-.4.7-.5 1.6-.5 2.6 0 1.6.5 2.9 1.5 3.8 1 1.1 2.4 1.5 4.1 1.5zM13.7 25c0-1.2.3-2.1.9-2.6.6-.6 1.4-.9 2.3-.9 1 0 1.7.3 2.3.9.6.6.9 1.4.9 2.6s-.3 2.1-.9 2.7c-.3.3-.7.5-1.1.7s-.8.2-1.2.2c-.4 0-.9-.1-1.3-.2-.4-.2-.8-.4-1.1-.7-.5-.6-.8-1.5-.8-2.7zm-11.3.7H7v4.5h2.3V19.9H7V24H2.4v-4.1H0v10.3h2.4v-4.5z"/>
	</g>
</svg>