<svg xmlns="http://www.w3.org/2000/svg" viewBox="0 0 130 27.2">
	<path fill="#0100a0" d="M5 10.5v16.3H.6c-.5 0-.6-.1-.6-.6v-7.4V2.9c0-.6.1-.8.8-.8h3.5c.5 0 .8.1 1 .5 4.2 5 8.5 10 12.7 15 .2.2.4.5.7.6V3c0-.8 0-.8.8-.8h3.4c.4 0 .6.1.6.6v23.6c0 .4-.1.6-.5.6h-3.5c-.3 0-.6-.2-.8-.4-4.4-5.1-8.8-10.2-13.2-15.4-.1-.3-.2-.4-.5-.7zm73.5 16.4v-2.6c-1.3 1.5-2.8 2.2-4.6 2.6-4.1.9-8.6-1-10.8-4.6-4.4-6.9-.1-15.7 8-16.5 2.6-.3 5 .3 7.2 2V0h4.2c.1 0 .2.2.3.3.1.1 0 .3 0 .5V26c0 .9 0 .9-.8.9h-3.5zM65.9 16.4c0 3.4 2.7 6.1 6 6.1 3.4 0 6.1-2.7 6.1-6 0-3.4-2.7-6.1-6-6.1-3.4-.1-6.1 2.6-6.1 6zm25 3.3c1.6 3 6.1 4.7 9.7 1.4.5-.4.8-1 1.2-1.5.1-.1.4-.3.6-.3 1.2.3 2.5.7 3.9 1.2-.6.9-1 1.8-1.6 2.5-2.9 3.5-6.7 4.9-11.1 3.8-4.4-1.1-7.2-4.2-7.9-8.7-1-6.2 3.2-11.5 9.2-12.3 6.2-.8 10.8 3.5 11.9 8.8.1.5 0 .7-.5.8-4.9 1.3-9.8 2.7-14.7 4-.3.1-.5.2-.7.3zm10.4-6.9c-.9-2-3.8-3.9-7.1-2.7-2.5.9-4.7 3.9-4.1 5.8 3.8-1 7.5-2.1 11.2-3.1zm24.5 14.1v-2.7c-.9.7-1.7 1.5-2.7 2-3.4 1.7-6.6 1.2-9.7-.8-3.7-2.4-5.5-6.8-4.6-11 .9-4.3 4.2-7.6 8.6-8.4 5.6-1 11.2 2.5 12.4 8.5.1.7.2 1.5.2 2.3v9.4c0 .6-.2.8-.7.7-1.2-.1-2.3 0-3.5 0zm-.5-10.5c0-3.4-2.7-6.1-6-6.1-3.4 0-6.1 2.7-6.1 6.1 0 3.3 2.7 6.1 6 6.1 3.4 0 6.1-2.7 6.1-6.1zM36.9 5.7c5.9 0 10.7 4.8 10.7 10.7 0 5.9-4.8 10.7-10.7 10.7-5.9 0-10.7-4.8-10.7-10.7 0-5.9 4.7-10.7 10.7-10.7zm0 4.7c-3.4 0-6.1 2.7-6.1 6 0 3.4 2.7 6.1 6 6.1 3.4 0 6.1-2.7 6.2-6.1 0-3.3-2.8-6-6.1-6zm18-1.9c1.6-2.4 4.3-3 6-2.7v4c0 .1-.3.3-.5.4-.5.1-1.1.2-1.6.4-2.2.7-3.3 2.4-3.6 4.6-.2.5-.2 1.2-.2 1.8v9.8h-4.7v-.7V7c0-.6.2-.7.7-.7h3.2c.6 0 .8.2.7.7-.1.5 0 1 0 1.5z"/>
</svg>