<svg xmlns="http://www.w3.org/2000/svg" viewBox="0 0 140 43">
	<g fill="#005191">
		<path d="M4.9 30.5v.6l-1.2.3c-.1 0-.4.1-.4.6v3.8h5.6V32c0-.5-.3-.6-.4-.6l-1.2-.3v-.6h4.9v.6l-1.2.3c-.1 0-.4.1-.4.6v9.3c0 .5.3.6.4.6l1.2.3v.6H7.3v-.6l1.2-.3c.1 0 .4-.1.4-.6v-4.5H3.3v4.5c0 .5.3.6.4.6l1.2.3v.6H0v-.6l1.2-.3c.1 0 .4-.1.4-.6V32c0-.5-.3-.6-.4-.6L0 31.1v-.6h4.9zm18.5 1.4c-1.2-1.3-2.7-1.6-4-1.6s-2.8.3-4 1.5c-1.1 1.2-1.6 3.1-1.6 4.8s.5 3.6 1.6 4.8c1.2 1.3 2.7 1.5 4 1.5s2.8-.3 4-1.5c1.1-1.2 1.6-3.1 1.6-4.8s-.5-3.5-1.6-4.7zm-1.1 8.6c-.6 1-1.5 1.7-2.9 1.7s-2.3-.6-2.9-1.7c-.6-1-.8-2.5-.8-3.8s.3-2.8.8-3.8c.6-1 1.5-1.7 2.9-1.7s2.3.6 2.9 1.7c.6 1 .8 2.5.8 3.8.1 1.3-.2 2.8-.8 3.8zm13.1-3.7c-.4-.4-1.1-.7-1.8-.8.5-.2 1.1-.5 1.5-.9.4-.5.7-1.2.7-1.8 0-.8-.3-1.6-.8-2.1-.7-.7-1.8-.8-2.7-.8-.7 0-1.2.1-1.7.1-.7 0-1 .1-1.7.1h-2.2v.6l1.2.3c.1 0 .4.1.4.6v9.3c0 .5-.3.6-.4.6l-1.2.3v.6h5.5c1.1 0 2.4-.3 3.2-1 .6-.5 1.1-1.3 1.1-2.6-.1-1.4-.6-2.1-1.1-2.5zM30 31.5c.5-.2 1-.3 1.6-.3.5 0 1.2 0 1.8.6.4.3.6.9.6 1.6 0 .7-.3 1.3-.7 1.7-.7.6-1.5.7-2.1.7H30v-4.3zm3.9 9.6c-.7.7-1.6.8-2.4.8-.6 0-1.1-.1-1.5-.3v-5h1.9c.5 0 1.5.1 2.1.8.4.5.6 1.2.6 1.9 0 .6-.2 1.3-.7 1.8zm8.7-10.6v.6l-1.2.3c-.1 0-.4.1-.4.6v7.6l5.9-7.4V32c0-.5-.3-.6-.4-.6l-1.2-.3v-.6h4.9v.6l-1.2.3c-.1 0-.4.1-.4.6v9.3c0 .5.3.6.4.6l1.2.3v.6h-4.9v-.6l1.2-.3c.1 0 .4-.1.4-.6v-7.7L41 41v.3c0 .5.3.6.4.6l1.2.3v.6h-4.9v-.6l1.2-.3c.1 0 .4-.1.4-.6V32c0-.5-.3-.6-.4-.6l-1.2-.3v-.6h4.9zm30.5 1.4c-1.2-1.3-2.7-1.6-4-1.6s-2.8.3-4 1.5c-1.1 1.2-1.6 3.1-1.6 4.8s.5 3.6 1.6 4.8c1.2 1.3 2.7 1.5 4 1.5s2.8-.3 4-1.5c1.1-1.2 1.6-3.1 1.6-4.8.1-1.7-.4-3.5-1.6-4.7zM72 40.5c-.6 1-1.5 1.7-2.9 1.7s-2.3-.6-2.9-1.7c-.6-1-.8-2.5-.8-3.8s.2-2.8.8-3.8c.6-1 1.5-1.7 2.9-1.7s2.3.6 2.9 1.7c.6 1 .8 2.5.8 3.8.1 1.3-.1 2.8-.8 3.8zm7.5-10c.1.7.2 1 .4 1.4l3.4 8.3 3.6-8.3c.3-.7.4-1 .4-1.4h3.1v.6l-1.2.3c-.3 0-.4.3-.4.6l.3 9.3c0 .2 0 .5.4.6l1.2.3v.6h-4.9v-.6l1.2-.3c.4-.1.4-.5.4-.6l-.2-7.7-3.6 8.3c-.1.2-.3.7-.3 1.1h-.7c-.1-.4-.2-.7-.3-1.1l-3.6-8.3-.2 7.7c0 .3.1.5.4.6l1.2.3v.6h-4v-.6l1-.3c.3-.1.4-.4.4-.6l.3-9.3c0-.3-.1-.5-.4-.6l-1.2-.3v-.6h3.3zm21.1 6c-1-.8-2.2-.9-3.2-.9-.7 0-1.4.1-2 .2v-4.3h3.4c.3 0 .7 0 .9.2.2.1.3.3.4.6l.2 1.1h.7v-2.8h-8.9v.6l1.2.3c.1 0 .4.1.4.6v9.3c0 .5-.3.6-.4.6l-1.2.3v.6h5.5c1.1 0 2.4-.3 3.2-1 .6-.5 1.2-1.3 1.2-2.6-.1-1.1-.4-2-1.4-2.8zm-1.3 4.7c-.4.3-1 .7-2.2.7-.6 0-1.1-.1-1.6-.3v-4.8c.6-.2 1.2-.3 1.8-.3 1 0 1.7.3 2 .7.5.4.8 1.2.8 2.1 0 .8-.4 1.5-.8 1.9zm14.2.6c-.2-.2-.4-.5-.5-.7l-4-10-.3-.9h-.7c-.1.3-.1.5-.3.8l-3.7 9.8c-.1.2-.2.5-.4.7s-.5.3-.7.4l-.4.1v.6h3.6V42l-.8-.2c-.2 0-.3-.3-.3-.4 0-.1 0-.2.1-.5l1-2.8h4l1.1 2.8c.1.1.1.3.1.4 0 .3-.2.4-.4.4l-.9.2v.6h4.3v-.6c-.4.2-.7.1-.8-.1zm-7.1-4.4L108 33l1.7 4.4h-3.3zm13.8-6.9v.6l-1.2.3c-.1 0-.4.1-.4.6v3.8h5.6V32c0-.5-.3-.6-.4-.6l-1.2-.3v-.6h4.9v.6l-1.2.3c-.1 0-.4.1-.4.6v9.3c0 .5.3.6.4.6l1.2.3v.6h-4.9v-.6l1.2-.3c.1 0 .4-.1.4-.6v-4.5h-5.6v4.5c0 .5.3.6.4.6l1.2.3v.6h-4.9v-.6l1.2-.3c.1 0 .4-.1.4-.6V32c0-.5-.3-.6-.4-.6l-1.2-.3v-.6h4.9zM61.5 42c.3.1 1.3.2 1.3.2v.6h-3.5c0-.1-.1-.8-.3-1.2l-1-2.5c-.5-1.3-1.1-2.1-2.5-2.1H55v4.4c0 .5.3.6.4.6l1.2.3v.6h-4.9v-.6l1.2-.3c.1 0 .4-.1.4-.6V32c0-.5-.3-.6-.4-.6l-1.2-.3v-.6h4.9v.6l-1.2.3c-.1 0-.4.1-.4.6v4h.7c.3 0 .7 0 1.1-.3.3-.2.5-.6.8-1.2l.9-2.1c.2-.5.5-1.1.9-1.6.4-.4.8-.6 1.3-.6.8 0 1.4.5 1.4 1.2 0 .5-.4 1-.9 1s-.5-.4-.9-.4c-.3 0-.5.2-.7.4-.1.1-.2.3-.4.8l-.7 1.7c-.3.6-.6 1.2-1.3 1.5.8.1 1.4.5 1.8.9.2.3.5.7 1 1.8l1.1 2.4c-.1.1.1.4.4.5zm77.2 0c.3.1 1.3.2 1.3.2v.6h-3.5c0-.1-.1-.8-.3-1.2l-1-2.5c-.5-1.3-1.1-2.1-2.5-2.1h-.6v4.4c0 .5.3.6.4.6l1.2.3v.6h-4.9v-.6l1.2-.3c.1 0 .4-.1.4-.6V32c0-.5-.3-.6-.4-.6l-1.2-.3v-.6h4.9v.6l-1.2.3c-.1 0-.4.1-.4.6v4h.7c.3 0 .7 0 1.1-.3.3-.2.5-.6.8-1.2l.9-2.1c.2-.5.4-1.1.9-1.6.4-.4.8-.6 1.3-.6.8 0 1.4.5 1.4 1.2 0 .5-.4 1-.9 1s-.5-.5-.9-.5c-.3 0-.5.2-.7.4-.1.1-.2.3-.5.8l-.7 1.7c-.3.6-.6 1.2-1.3 1.5.8.1 1.4.5 1.8.9.2.3.5.7 1 1.8l1.1 2.4c.1.2.3.5.6.6zM14.9 23.3c1.5.2 3.6-1.1 6.2-4 1.9-2.1 3.7-4.3 5.3-6.6v9.8c-.1 1.1-1.1 1.9-2.3 1.9H5.4c1.5-1.3 3-3.2 4.4-5.4s1.7-2.8 2.7-5c.4-.1 1.6-.5 2.4-.8-1 2.1-2.1 4.8-2.2 6.3-.2 2.3.7 3.7 2.2 3.8zm-5.4-8.2s-1.8 3.5-3.1 5.1c-.7.9-3.5 5.3-5.4 3.9-1.8-1.8 2.9-5.6 3.8-6.2 1.6-1.2 4.7-2.8 4.7-2.8zM2.9 2.8C1.2 4.2.5 5.6.5 5.6V2.2C.5 1 1.5 0 2.8 0h17.8s-1 .1-2 1.2c-.6.6-2.4 3.1-4.4 2.6s-1.6-2.2-3.6-2.7-5.6 0-7.7 1.7zm18.5-1.1c.9-.7.6-1.5-.1-1.7h2.8c1 0 1.9.7 2.2 1.6-1.6-.2-4.2.8-6.2 3.4-2.1 2.6-3.8 5.7-3.8 5.7s-1.6.5-2.5.7c.3-.6 1.4-2.8 3.4-5.6 1.7-2.4 3.4-3.5 4.2-4.1z"/>
		<path d="M10.8 12.3c-3.1.9-8 3.5-10.2 6.3V9c.8 1.2 1.8 1.9 3.1 2.2 1.7.3 3.3.1 4.8-.7.7-.4 1.3-.8 1.8-1.4 1.1-1.1.7-2.4-.2-2.7s-1.8.3-2.2 1.1c-.5.7-1.1 1.6-3 1.6-1 0-2.1-.6-2.4-2C2 5 4.7 2.8 7.2 2.4c4-.6 3 2 4.9 3.3.5.4 1.7.8 2.9 0-.7.9-3.2 4.8-4.2 6.6zM22.4 5c1.2-1.3 3.1-2.2 3.9-1.3.8 1-1.6 2.9-3.2 3.9-1.5 1-3 1.8-4.3 2.3.8-1.4 2.7-3.9 3.6-4.9zm.6 4.8c.9-.6 2.4-1.8 3.4-2.7v3.8c-.7.9-4.9 5.5-6.6 7.1-2.9 2.7-4.9 2.3-4.1-.5.5-1.7 1.1-3.3 1.9-4.8 1-.5 3.5-1.6 5.4-2.9z"/>
	</g>
</svg>