<svg xmlns="http://www.w3.org/2000/svg" viewBox="0 0 160 31.1">
	<path fill="#e3000f" d="M9.4 13.6c.2-.6.4-1.3.3-1.9 0-.7-.1-1.3-.3-1.9-.2-.7-.6-1.2-1-1.7-1.2-.9-2.6-1.3-4.1-1.2H1.9V2.5h6.5V.8H0v15.7h4.3c1.5.1 2.9-.4 4.1-1.3.4-.5.8-1 1-1.6zm-5.2-5c2.4 0 3.6 1 3.6 3.1s-1.2 3.1-3.6 3.1H1.9V8.6h2.3zm18.6 7.9h2L17.3.2 9.9 16.5h2l1.9-4.4h7.1l1.9 4.4zM17.3 4.1l2.8 6.4h-5.6l2.8-6.4zm19 12.4h1.9V.8h-1.9v6.3h-8.5V.8h-1.9v15.7h1.9V8.8h8.5v7.7zm13.6 0h2.4l-7.6-8.3L52.1.7h-2.3l-7 7.2V.8H41v15.7h1.9V8.4c-.1 0 7 8.1 7 8.1zm85 2c-4.7 5.3-10.1 7.9-17.2 7.9-7.1.1-12.6-2.6-17.2-7.9l-3.2 3.9c2.6 2.8 5.8 4.9 9.3 6.4s7.3 2.3 11.1 2.3 7.6-.8 11.1-2.3 6.7-3.7 9.3-6.4l-3.2-3.9z"/>
	<path fill="#44413e" d="M154.1 9.1c1.8 0 2.7.8 2.7 2.4 0 .3 0 .7-.1 1s-.3.6-.5.9c-.6.5-1.4.7-2.1.6h-1.5V9.1h1.5zm5.5 4.3c.2-.6.4-1.3.3-1.9 0-.7-.1-1.4-.3-2-.3-.6-.7-1.2-1.2-1.6-1.2-1-2.7-1.4-4.3-1.4h-1.6v-3h5.8V.8h-8.9v15.7h4.7c1.6.1 3.2-.5 4.4-1.5.5-.5.9-1 1.1-1.6zm-15.5 3.1h3.1V0l-9.8 9.5V.8h-3.1v15.5l9.8-9.6v9.8zm-14.7 0h3.8L126.4 8l6.5-7.2h-3.6l-5.6 6.6V.8h-3.1v15.7h3.1V8.6l5.7 7.9zM114.2 4.7c1 1.1 1.5 2.5 1.4 4 .1 1.5-.4 2.9-1.4 4-.5.5-1.1.9-1.7 1.1-.6.3-1.3.4-2 .4s-1.4-.1-2-.4c-.6-.3-1.2-.6-1.7-1.1-1-1.1-1.5-2.5-1.4-4-.1-1.5.4-2.9 1.4-4 1-1 2.3-1.5 3.7-1.5 1.4 0 2.8.5 3.7 1.5zm4.2 7.1c.4-1 .6-2.1.6-3.2s-.1-2.2-.5-3.2-1-2-1.8-2.7c-1.6-1.5-3.7-2.4-5.9-2.4s-4.3.8-5.9 2.4c-.8.8-1.4 1.7-1.8 2.7-.4 1-.6 2.1-.6 3.2s.2 2.2.6 3.2c.4 1 1 2 1.8 2.7 1.6 1.5 3.7 2.4 5.9 2.4s4.3-.9 5.9-2.4c.6-.7 1.3-1.6 1.7-2.7zM95.8 9.3c1.6 0 2.3.8 2.3 2.3 0 1.4-.9 2.2-2.6 2.2h-2V9.3h2.3zM95 3.4c1.4 0 2.1.5 2.1 1.6 0 1.2-.5 1.8-1.6 1.8h-1.9V3.4H95zm6 10.1c.2-.6.3-1.2.3-1.8v.1c0-.8-.2-1.6-.7-2.3-.5-.7-1.2-1.3-2-1.6.5-.3.9-.7 1.2-1.2s.4-1.1.4-1.7c0-2.7-1.7-4.1-5.1-4.1h-4.7v15.7h5.3c.8.1 1.6 0 2.3-.3s1.4-.7 2-1.2c.5-.5.8-1.1 1-1.6zM84.1 4.7c1 1.1 1.5 2.5 1.4 4 .1 1.5-.4 2.9-1.4 4-.5.5-1.1.9-1.7 1.1-.6.3-1.3.4-2 .4s-1.4-.1-2-.4c-.6-.3-1.2-.6-1.7-1.1-1-1.1-1.5-2.5-1.4-4-.1-1.5.5-2.9 1.4-4 1-1 2.3-1.5 3.7-1.5 1.4 0 2.7.5 3.7 1.5zm4.1 7.1c.4-1 .6-2.1.6-3.2s-.2-2.2-.6-3.2c-.4-1-1-1.9-1.8-2.7C84.8 1.2 82.7.3 80.5.3s-4.3.8-5.9 2.4c-.8.8-1.4 1.7-1.8 2.7-.4 1-.6 2.1-.6 3.2s.2 2.2.6 3.2c.4 1 1 2 1.8 2.7 1.6 1.5 3.7 2.4 5.9 2.4s4.3-.9 5.9-2.4c.8-.7 1.4-1.6 1.8-2.7zm-20.9 4.7h3.1V.8h-3.1v6h-6.7v-6h-3.1v15.7h3.1V9.4h6.7v7.1zM2.6 25.6zm-.1.5c.1-.1.1-.3.1-.5s0-.3-.1-.5-.2-.3-.3-.4c-.3-.2-.7-.4-1.1-.3H.8v-.8h1.6v-.7H0v4h1.2c.4 0 .8-.1 1.1-.4.1-.1.2-.2.2-.4zM1.2 25c.5 0 .7.2.7.6v.2s-.1.2-.2.3c-.2.1-.3.2-.5.1H.8V25h.4zm4.7 1.9h.8l-1.9-4.2-2 4.2h.8L4 26h1.6l.3.9zm-1.2-2.7l.5 1.1h-1l.5-1.1zm4.8 2.7h.8v-4h-.8v1.5H7.8v-1.5h-.7v4h.8v-1.8h1.7c-.1 0-.1 1.8-.1 1.8zm3.8 0h1l-1.7-2.1 1.6-1.8h-.9l-1.4 1.6V23h-.8v3.9h.8v-2c-.1 0 1.4 2 1.4 2zm5.9.7h.8v-1.4h-.4v-3.3h-2.8v2.5c0 .2 0 .4-.1.6-.1.1-.1.1-.2.1h-.2v1.4h.7v-.8h2.2v.9zm-.4-4.1v2.6h-1.4c.1-.2.2-.5.1-.7v-1.9h1.3zm5.5 2.1c.1-.3.2-.5.1-.8 0-.3-.1-.7-.2-1-.2-.3-.4-.6-.7-.8-.3-.2-.6-.3-1-.3-.3 0-.7 0-1 .2-.3.1-.6.3-.8.6-.2.3-.4.6-.4.9-.1.3 0 .7.1 1 .1.3.3.6.5.9.4.4.9.6 1.5.6s1.1-.2 1.5-.6c.1-.2.3-.4.4-.7zm-1.1-1.8c.2.3.4.6.4 1s-.1.7-.4 1c-.1.1-.3.2-.4.3-.2.1-.3.1-.5.1s-.3 0-.5-.1-.3-.2-.4-.3c-.2-.3-.4-.6-.4-1s.1-.7.4-1c.1-.1.3-.2.4-.3.2-.1.3-.1.5-.1s.3 0 .5.1.3.2.4.3zm4.4 2.3c.1-.1.1-.3.1-.5s-.1-.4-.2-.6c-.1-.2-.3-.3-.5-.4.1-.1.3-.2.3-.3s.1-.3.1-.5c0-.7-.4-1-1.3-1h-1.2v4h1.3c.2 0 .4 0 .6-.1.2-.1.4-.2.5-.3l.3-.3zm0-.5zm-1.5-2.1c.4 0 .5.1.5.4 0 .3-.1.5-.4.5h-.5v-.9h.4zm.7 1.9v.2c0 .4-.2.5-.7.5h-.5V25h.8c.1 0 .1.1.2.1.1.1.2.2.2.3zm5.2.2c.1-.3.2-.5.1-.8 0-.3 0-.6-.1-.8-.1-.3-.3-.5-.5-.7-.3-.3-.7-.5-1.1-.6-.4-.1-.8 0-1.2.1s-.7.4-.9.8c-.2.4-.3.8-.3 1.2 0 .4.1.8.3 1.2.2.4.6.6.9.8.4.2.8.2 1.2.1s.8-.3 1.1-.6c.3-.2.4-.4.5-.7zm-1-1.8c.2.3.4.6.3 1 0 .4-.1.7-.4 1-.2.2-.6.4-.9.4s-.7-.1-.9-.4c-.2-.3-.4-.6-.4-1s.1-.7.4-1c.2-.2.6-.4.9-.4s.7.2 1 .4zm3.8 3h.7v-4h-2.7v2.6c0 .2 0 .4-.1.6 0 0 0 .1-.1.1h-.1c-.1 0-.2 0-.3-.1v.7c.1.1.3.1.4.1.1 0 .3 0 .4-.1.1-.1.3-.1.3-.3.2-.3.2-.7.2-1.1v-2h1.1c.2.2.2 3.5.2 3.5zm4.1-.8c.1-.2.1-.3.1-.5s0-.3-.1-.5-.1-.3-.3-.4c-.3-.3-.8-.4-1.2-.3h-.3v-1.5h-.8v4h1.1c.4 0 .9-.1 1.2-.4.2-.1.3-.2.3-.4zm-.7-.7v.4l-.1.3c-.2.1-.4.2-.6.1h-.3V25h.3c.2 0 .4 0 .6.1 0 .1.1.1.1.2zm3.9 1.5h.7v-4H42v1.5h-1.7v-1.5h-.8v4h.8V25H42c.1 0 .1 1.8.1 1.8zm4.5 0h.8v-4h-.8v4zm-.5-.8c.1-.2.1-.3.1-.5s0-.3-.1-.5-.1-.3-.3-.4c-.3-.3-.8-.4-1.2-.3h-.3v-1.5h-.8v4h1.1c.4 0 .9-.1 1.2-.4.2-.1.3-.2.3-.4zm-.7-.7v.4l-.1.3c-.2.1-.4.2-.6.1h-.3V25h.3c.2 0 .4 0 .6.1 0 .1.1.1.1.2zm4.9 1.5h.9-.1l-1.3-2.1 1.2-1.9h-.9l-.7 1.3-.7-1.3h-.9l1.2 1.9-1.3 2.1h.9l.8-1.4c.1 0 .9 1.4.9 1.4zm5.4.1h.9l-1.7-2.1 1.6-1.8h-.9l-1.4 1.6V23h-.8v3.9h.8v-2c.1 0 1.5 2 1.5 2zm3.7 0h.7v-4h-2.7v2.6c0 .2 0 .4-.1.6 0 0 0 .1-.1.1h-.1c-.1 0-.2 0-.3-.1v.7c.1.1.3.1.4.1.1 0 .3 0 .4-.1.1-.1.2-.1.3-.3.2-.3.2-.7.2-1.1v-2h1.2l.1 3.5zm4 0h.8v-4.2l-2.5 2.7v-2.5h-.8v4.2l2.5-2.7v2.5zm1.5 0h2.3v-.7h-1.5v-1.1H67v-.6h-1.3v-.8h1.5V23h-2.3v3.9zm5.6 0h.7v-4h-.8v1.5h-1.7v-1.5h-.8v4h.8v-1.8h1.8v1.8zm2.9-3.3h1v-.7h-2.7v.7h1v3.3h.8v-3.3zm5.2 2.1c.1-.3.2-.5.1-.8 0-.3 0-.6-.1-.8-.1-.3-.3-.5-.5-.7-.3-.3-.7-.5-1.1-.6-.4-.1-.8 0-1.2.1-.4.2-.7.4-.9.8-.2.3-.4.7-.4 1.2 0 .4.1.8.4 1.2.2.3.6.6.9.8s.8.2 1.2.1c.4-.1.8-.3 1.1-.6.3-.2.4-.4.5-.7zm-1-1.8c.2.3.4.6.4 1s-.1.7-.4 1c-.2.2-.6.4-.9.4-.3 0-.7-.1-.9-.4-.2-.3-.4-.6-.3-1 0-.4.1-.7.3-1 .2-.2.6-.4.9-.4.3 0 .7.1.9.4zm4.4 2.2c.1-.1.1-.3.1-.5s-.1-.4-.2-.6c-.1-.2-.3-.3-.5-.4.1-.1.3-.2.3-.3.1-.1.1-.3.1-.5 0-.7-.4-1-1.3-1h-1.2v4h1.3c.2 0 .4 0 .6-.1.2-.1.4-.2.5-.3.2 0 .2-.1.3-.3zm-1.5-2.5c.3 0 .5.1.5.4 0 .3-.1.5-.4.5h-.5v-.9h.4zm.7 1.8v.2c0 .4-.2.6-.7.5H80V25h.8c.1 0 .1.1.2.1.2.2.2.3.2.3z"/>
</svg>