<svg xmlns="http://www.w3.org/2000/svg" viewBox="0 0 200 24.5">
	<path fill="#0db14b" d="M10.2 6.4v5.1H5.1V6.4H0v15.3h5.1v-5.1h5.1v5.1h5.1V6.4h-5.1zM5.1 2.6c0-.5-.2-1-.4-1.4C4.4.7 4 .4 3.5.2 3.1 0 2.6 0 2.1 0 1.6.1 1.1.3.8.7c-.4.4-.7.9-.8 1.4 0 .5 0 1 .2 1.4.2.5.5.9.9 1.2.5.3 1 .4 1.5.4.3 0 .7-.1 1-.2.3-.1.6-.3.8-.6.2-.2.4-.5.6-.8s.1-.6.1-.9zm10.2 0c0-.5-.1-1-.4-1.4-.3-.4-.7-.7-1.1-.9-.5-.3-1-.3-1.5-.3-.5.1-1 .3-1.3.7-.4.4-.6.8-.7 1.3-.1.5-.1 1 .1 1.5s.5.9.9 1.2c.4.3.9.4 1.4.4.3 0 .7-.1 1-.2s.6-.3.8-.6c.2-.2.4-.5.6-.8.2-.3.2-.6.2-.9z"/>
	<path fill="#303e50" d="M28.7 3.3h-2.3V1h3.8V.2h-4.6v7.7h3.1c.6 0 1.2-.2 1.6-.7.4-.4.7-1 .7-1.6s-.2-1.2-.7-1.6c-.5-.5-1-.7-1.6-.7zm0 3.8h-2.3v-3h2.3c.4 0 .8.2 1.1.5s.5.7.5 1.1-.3.7-.6 1c-.2.3-.6.4-1 .4zm12.9-2.3h-2.9V2.7h-.8v5.2h.8V5.6h2.9v2.3h.8V2.7h-.8v2.1zm-7.2-2.3c-.7 0-1.4.2-2 .5l.4.7c.5-.3 1-.4 1.6-.4.2 0 .3 0 .5.1s.3.2.4.3c.1.1.2.3.3.4.1.2.1.3.1.5v.3c-.6-.1-1.1-.2-1.7-.1-.5 0-.9.2-1.2.5-.3.3-.5.8-.6 1.2 0 .2 0 .4.1.6.1.2.2.4.3.5.2.2.4.3.6.4.2.1.5.1.7.1.6 0 1.2-.3 1.7-.6V8h.8V4.6c0-.3 0-.5-.1-.8s-.3-.5-.5-.7c-.2-.2-.4-.3-.7-.4s-.5-.2-.7-.2zm-.6 4.8c-.1 0-.3 0-.4-.1-.1 0-.3-.1-.4-.2 0 0-.1-.1-.1-.2s-.1-.2-.1-.3c0-.7.6-.9 1.1-1 .5 0 1.1 0 1.6.2v.7c-.2.3-.4.5-.7.7-.3.1-.6.2-1 .2zm13.8.6h.9l-2.3-3.1 2.1-2.2h-1.1l-2.6 2.7V2.7h-.8v5.2h.8V6.4l1-1c.1 0 2 2.5 2 2.5zm69.2 8.8H115v-2.2h-1.5v7.2h3.4c.6 0 1.2-.3 1.7-.8s.7-1.1.7-1.7-.2-1.3-.7-1.7-1.1-.7-1.8-.8zm0 3.5H115v-2h1.8c.3 0 .5.1.7.3.2.2.3.4.3.7 0 .3-.1.5-.3.7-.2.2-.4.3-.7.3zm-7.2-2.8h-3.5v-2.8h-1.5v7.2h1.5V19h3.5v2.8h1.5v-7.2h-1.5v2.8zm-70.4-3c-1 0-1.9.3-2.8.7l.7 1.3c.6-.3 1.3-.5 2-.5.2 0 .4 0 .6.1.2.1.3.2.5.3s.2.3.3.5c.1.2.1.4.1.6-.6-.1-1.3-.2-1.9-.2-.3 0-.7 0-1 .1-.3.1-.6.3-.9.5-.3.2-.5.5-.6.8-.1.3-.2.6-.3 1 0 .3.1.6.2.9.1.3.3.6.5.8s.5.4.8.5c.3.1.6.2 1 .2.8 0 1.5-.3 2.2-.7v.4h1.5v-4.4c0-.4 0-.8-.2-1.1-.1-.4-.3-.7-.6-1-.3-.3-.6-.5-1-.6-.3-.2-.7-.2-1.1-.2zm-.8 6.1H38c-.1 0-.2-.1-.3-.2-.1-.1-.2-.2-.2-.3 0-.1-.1-.3-.1-.4 0-.6.7-.9 1.3-.9.6 0 1.3.1 1.9.3v.6c-.3.3-.6.6-1 .7-.3.1-.8.2-1.2.2zm-6.1-5h-5.2v-4.3h-1.5v10.5h1.5V17h5.2v4.7h1.5V11.3h-1.5v4.2zm18.5-1h-1.5v5.7H46v-5.7h-1.5v7.2H50v1.2h1.5v-2.7h-.8v-5.7zm4.2 4.7v-4.7h-1.5v7.2H55l3.5-4.7v4.7H60v-7.2h-1.5L55 19.2zm10.7-4.8c-.7 0-1.5.2-2.1.6-.6.4-1.1 1-1.4 1.7s-.4 1.5-.2 2.2c.1.7.5 1.4 1 1.9s1.2.9 1.9 1c.7.1 1.5.1 2.2-.2s1.3-.8 1.7-1.4c.4-.6.6-1.4.6-2.1 0-1-.4-2-1.1-2.7-.6-.6-1.6-1-2.6-1zm0 6c-.4 0-.9-.1-1.2-.4-.4-.2-.7-.6-.8-1-.2-.4-.2-.9-.1-1.3s.3-.8.6-1.2.7-.5 1.2-.6c.4-.1.9 0 1.3.1.4.2.8.5 1 .8.2.4.4.8.4 1.3 0 .3-.1.6-.2.9-.1.3-.3.5-.5.7-.2.2-.5.4-.7.5-.4.2-.7.2-1 .2zm27.6-5.9h-3.9l-.1.7s-.3 2.6-.5 4c-.1.8-.6 1-.9 1h-.5v1.5h.5c.6 0 1.2-.3 1.6-.7.4-.4.7-1 .8-1.6.2-1 .4-2.5.4-3.4h2.5v5.7h1.5v-7.2h-1.4zm7.1 2.2h-1.8v-2.2h-1.5v7.2h3.4c.3 0 .7 0 1-.1.3-.1.6-.3.9-.5.2-.2.4-.5.6-.8.1-.3.2-.7.2-1 0-.3-.1-.7-.2-1-.1-.3-.3-.6-.6-.8-.2-.2-.5-.4-.9-.5-.4-.2-.7-.3-1.1-.3zm0 3.5h-1.8v-2h1.8c.3 0 .5.1.7.3.2.2.3.4.3.7 0 .3-.1.5-.3.7-.2.2-.4.3-.7.3zm21.2-5.7H120v7.2h1.5v-7.2zm7.2 0l-3.5 4.7v-4.7h-1.5v7.2h1.5l3.5-4.7v4.7h1.5v-7.2h-1.5zm-1.7-1.1c.6 0 1.1-.2 1.5-.6.4-.4.6-.9.6-1.5h-1.1v.4c0 .1-.1.3-.2.4s-.2.2-.3.2c-.1.1-.3.1-.4.1-.1 0-.3 0-.4-.1s-.2-.1-.3-.2-.2-.2-.2-.4c0-.1-.1-.3 0-.4H125c0 .5.2 1.1.6 1.5.4.4.9.6 1.5.6zm-50.7 4h-3.5v-2.8h-1.5v7.2h1.5V19h3.5v2.8h1.5v-7.2h-1.5v2.8zm6.6-3c-1 0-1.9.3-2.8.7l.7 1.3c.6-.3 1.3-.5 2-.5.2 0 .4 0 .6.1.2.1.3.2.5.3.1.1.2.3.3.5.1.2.1.4.1.6-.6-.1-1.3-.2-1.9-.2-.3 0-.7 0-1 .1-.3.1-.6.3-.9.5-.3.2-.5.5-.6.8s-.2.6-.3 1c0 .3.1.6.2.9.1.3.3.6.5.8s.5.4.8.5c.3.1.6.2 1 .2.8 0 1.5-.3 2.2-.7v.4h1.5v-4.4c0-.4 0-.8-.2-1.1-.1-.4-.3-.7-.6-1-.3-.3-.6-.5-1-.6-.3-.2-.7-.2-1.1-.2zm-.8 6.1c-.1 0-.3 0-.4-.1-.1 0-.2-.1-.3-.2-.1-.1-.2-.2-.2-.3s-.1-.3-.1-.4c0-.6.7-.9 1.3-.9.6 0 1.3.1 1.9.3v.6c-.3.3-.6.6-1 .7s-.8.3-1.2.3zm57.9-4.6c.6 0 1.1.2 1.5.6l1.1-1.1c-.7-.7-1.6-1-2.6-1-.5 0-1 .1-1.5.2-.5.2-.9.5-1.3.8-.4.4-.7.8-.9 1.3-.2.5-.3 1-.3 1.5s.1 1 .3 1.5c.2.5.5.9.9 1.3s.8.6 1.3.8c.5.2 1 .3 1.5.2 1 0 1.9-.4 2.6-1l-1.1-1.1c-.4.4-1 .6-1.5.6-.3 0-.6 0-.9-.1-.3-.1-.6-.3-.8-.5-.2-.2-.4-.5-.5-.7s-.2-.6-.2-.9c0-.3.1-.6.2-.9.1-.3.3-.5.5-.7.2-.2.5-.4.8-.5.3-.3.6-.3.9-.3zm24.4 1.5H161v-2.8h-1.5v7.2h1.5V19h3.5v2.8h1.5v-7.2h-1.5v2.8zM143.9 16h2.3v5.7h1.5V16h2.4v-1.5h-6.2V16zm56.1-1.5h-6.2V16h2.4v5.7h1.5V16h2.3v-1.5zm-25.2 0h-5.2l-.1.7s-.3 2.6-.5 4c-.1.8-.6 1-.9 1h-.5V23h1.5v-1.2h5V23h1.5v-2.7h-.8v-5.8zm-4.3 5c.2-1 .3-2.5.4-3.4h2.3v4.2h-3c.2-.3.3-.6.3-.8zm18.7-5.1c-.8 0-1.6.3-2.3.8v-.6h-1.5v10h1.5v-3.4c.6.5 1.4.8 2.3.8.5 0 1-.1 1.5-.2.5-.2.9-.5 1.3-.8.4-.4.7-.8.9-1.3.2-.5.3-1 .3-1.5s-.1-1-.3-1.5c-.2-.5-.5-.9-.9-1.3s-.8-.6-1.3-.8c-.5-.2-1-.3-1.5-.2zm0 6c-.4 0-.9-.1-1.3-.4-.4-.2-.7-.6-.8-1-.2-.4-.2-.9-.1-1.3s.3-.8.6-1.2c.3-.3.7-.5 1.2-.6.4-.1.9 0 1.3.1.4.2.8.5 1 .8.2.4.4.8.4 1.3 0 .6-.2 1.2-.7 1.6s-1 .7-1.6.7zm-9-6.1c-1 0-1.9.3-2.8.7l.7 1.3c.6-.3 1.3-.5 2-.5.2 0 .4 0 .6.1.2.1.3.2.5.3.1.1.2.3.3.5s.1.4.1.6c-.6-.1-1.3-.2-1.9-.2-.3 0-.7 0-1 .1-.3.1-.6.3-.9.5-.3.2-.5.5-.6.8-.1.3-.2.6-.3 1 0 .3.1.6.2.9.1.3.3.6.5.8.2.2.5.4.8.5.3.1.6.2.9.2.8 0 1.5-.3 2.2-.7v.4h1.5v-4.4c0-.4 0-.8-.2-1.2-.1-.4-.4-.7-.6-1-.3-.3-.6-.5-1-.6-.2 0-.6-.1-1-.1zm-.8 6.2h-.4c-.1 0-.2-.1-.3-.2s-.2-.2-.2-.3c0-.1-.1-.2-.1-.4 0-.6.7-.9 1.3-.9.6 0 1.3.1 1.9.3v.6c-.3.3-.6.6-1 .7-.3.1-.8.2-1.2.2zm-25-6.2c-1 0-1.9.3-2.8.7l.7 1.3c.6-.3 1.3-.5 2-.5.2 0 .4 0 .6.1.2.1.3.2.5.3.1.1.2.3.3.5.1.2.1.4.1.6-.6-.1-1.3-.2-1.9-.2-.3 0-.7 0-1 .1-.3.1-.6.3-.9.5-.3.2-.5.5-.6.8s-.2.6-.2 1c0 .3.1.6.2.9.1.3.3.6.5.8s.5.4.8.5c.3.1.6.2.9.2.8 0 1.5-.3 2.2-.7v.5h1.5v-4.4c0-.4 0-.8-.2-1.1-.1-.4-.3-.7-.6-1-.3-.3-.6-.5-1-.6-.3-.2-.7-.3-1.1-.3zm-.8 6.2c-.1 0-.3 0-.4-.1-.1 0-.2-.1-.3-.2s-.2-.2-.2-.3-.1-.3-.1-.4c0-.5.7-.9 1.3-.9.6 0 1.3.1 1.9.3v.6c-.3.3-.6.6-1 .7-.4.2-.8.3-1.2.3z"/>
</svg>