<svg xmlns="http://www.w3.org/2000/svg" viewBox="0 0 140 24.4">
	<path fill="#008d5c" d="M56.6.4H76v4.4H62.1v4.9h6.7c2.9 0 5.1.6 6.6 1.8 1.5 1.2 2.3 2.9 2.3 5.2 0 2.4-.8 4.2-2.5 5.5-1.7 1.3-4.1 2-7.2 2H56.6V.4zm11 19.6c1.4 0 2.5-.3 3.3-.8.8-.6 1.1-1.4 1.1-2.4 0-2.1-1.5-3.1-4.4-3.1H62V20h5.6zM87.3 5.6c2.9 0 5.1.7 6.6 2s2.3 3.3 2.3 6V24h-5v-2.3c-1 1.7-2.9 2.5-5.6 2.5-1.4 0-2.7-.2-3.7-.7-1-.5-1.8-1.1-2.4-2-.6-.8-.8-1.8-.8-2.8 0-1.7.6-3 1.9-4 1.3-1 3.3-1.5 6-1.5h4.3c0-1.1-.4-2-1.1-2.6-.7-.6-1.8-.9-3.2-.9-1 0-2 .2-2.9.5-.9.3-1.7.7-2.4 1.2l-1.9-3.7c1-.7 2.2-1.2 3.6-1.6 1.4-.3 2.8-.5 4.3-.5zm-.4 15.2c.9 0 1.7-.2 2.4-.6.7-.4 1.2-1 1.5-1.9v-1.9h-3.7c-2.2 0-3.3.7-3.3 2.1 0 .7.3 1.2.8 1.6.6.5 1.4.7 2.3.7zM98.8 5.9h5.3V13h8V5.9h5.4V24h-5.4v-6.8h-8V24h-5.3V5.9zm29.9 11.3h-2.8V24h-5.4V5.9h5.4V13h2.9l5-7.1h5.7l-6.5 8.7 7 9.4h-6.3l-5-6.8z"/>
	<path fill="#ffd503" d="M22.1.4V24h-5.6v-9.7H5.6V24H0V.4h5.6v9.3h10.9V.4h5.6zm15.3 24c-2.5 0-4.7-.5-6.7-1.6s-3.5-2.5-4.7-4.4c-1.1-1.9-1.7-4-1.7-6.3s.6-4.4 1.7-6.3c1.1-1.9 2.7-3.3 4.7-4.4C32.7.5 35 0 37.4 0c2.1 0 4 .4 5.6 1.1 1.7.7 3.1 1.8 4.3 3.1l-3.6 3.2c-1.6-1.8-3.6-2.8-6-2.8-1.5 0-2.8.3-4 1-1.2.6-2.1 1.5-2.7 2.7-.6 1.1-1 2.5-1 3.9 0 1.5.3 2.8 1 3.9s1.6 2 2.7 2.7c1.2.6 2.5.9 4 .9 2.4 0 4.4-.9 6-2.8l3.6 3.2c-1.1 1.4-2.6 2.4-4.3 3.1-1.6.9-3.5 1.2-5.6 1.2z"/>
</svg>