<svg xmlns="http://www.w3.org/2000/svg" viewBox="0 0 200 24.3">
	<path fill="#00858b" d="M3.6 24.3h28V0C2.5 25.3 6.7 21.6 3.6 24.3z"/>
	<g fill="#000">
		<path d="M24.3 14.3V16c.8 1 3.1 5.8-.7 5.2V23c5.9.4 4.3-3.9 3.2-7h2.4v7h1.9v-8.7h-6.8z"/>
		<path d="M24.2 16.1v-1.8h-6v8.9h5.3c.9 0 1.1-1.3 1-1.9 0-.2-1.1-3.7-1.4-3.7h-1.8c0 .2.3.4.3.6.4.8 1.3 2.8.7 3.2H20v-5.3h4.2z"/>
	</g>
	<path fill="#fff" d="M23.4 14.7v1.7c.7.9 2.9 5.3.1 5.3v1.8c4.2 0 3.2-4.2 2-7h2.6v7h1.8v-8.8h-6.5zM22.8 16.4v-1.8h-6v8.9H22c.9 0 1.2-1.3 1.1-1.9 0-.9-1.1-3.5-1.4-3.7h-1.8c.3.8 1.8 3.3 1 3.9h-2.2v-5.3l4.1-.1z"/>
	<g fill="#d7b369">
		<path d="M31.4 10.1l2.2-4-11.3 2.5c3.4-.1 5.9.2 9.1 1.5zm-17.6.7c3.3-1.6 6.9-2.1 8.5-2.2-.3.1-8.1 2-8.5 2.2z"/>
		<path d="M13.9 10.7c-2.8 1.4-5.3 3.4-5 5.9.5 1.9 2.7 3.1 6.7 3.9.1 0 0 .3 0 .3-3.1-.3-14.2-.8-15.6-3.4-.5-2.3 7.4-4.8 13.9-6.7z"/>
	</g>
	<path fill="#58585a" d="M80.1 9.2l-.1 4.9c0 .9-.1 1.7-.3 2.3-.2.7-.7 1-1.4 1h-.5v2h.9c1.1 0 1.9-.3 2.3-.9.5-.6.8-1.2.9-1.9.1-.4.1-.7.1-1v-.9l.1-3.5h2.5v8.1h2.3V9.2h-6.8zm11.3 5.9H96v-1.9h-4.6v-2.1h5.2v-2h-7.5v10.1h7.7v-2h-5.3v-2.1zm104.4-6.3h.1c.7 0 1.3-.1 1.6-.4.4-.2.6-.5.8-.8.1-.2.1-.3.2-.5 0-.2.1-.3.1-.4H197c0 .3-.1.5-.2.6-.1.1-.3.2-.4.3-.1 0-.2 0-.3.1h-.4c-.1 0-.2 0-.2-.1-.2 0-.3-.1-.5-.3-.1-.1-.2-.3-.2-.6h-1.6c0 .5.3 1 .7 1.4.3.5 1 .7 1.9.7zm-135.3.4V13h-3.3V9.2h-2.3v10.1h2.3V15h3.3v4.3h2.3V9.2h-2.3zm12.5 0h-2.7l-3.1 4.1V9.2h-2.3v10.1h2.3v-4.8l3.2 4.8h2.8l-4-5.5c0 .1 3.8-4.6 3.8-4.6zm-23.7 0h-1.2l-3.5 10.1H47l.6-1.9h3.3l.6 1.9H54L50.4 9.2h-1.1zm0 6.5h-1.2l1.2-3.6 1.2 3.6h-1.2zm125.1-6.5V13h-3.3V9.2h-2.3v10.1h2.3V15h3.3v4.3h2.3V9.2h-2.3zm-6.6 0h-2.7l-2.8 4v-4H160v4l-2.8-4h-2.7l3.7 4.7-3.8 5.4h2.8l2.8-4.4v4.4h2.3v-4.4l2.8 4.4h2.8l-3.8-5.4 3.7-4.7zm30 0h-.1l-3.6 6.3V9.2h-2.3v10.1h2.3l3.6-6.4v6.4h2.3V9.2h-2.2zm-10.4 0v10.1h2.3V9.2h-2.3zM126.5 15c-.2-.5-.5-1-1-1.4-.5-.4-1.3-.6-2.3-.6h-2.3v-1.8h5.1v-2H118.6v10.1h4.6c1.1 0 1.9-.2 2.3-.6.5-.4.8-.9 1-1.3.1-.2.1-.4.1-.6v-.5-.6c.1-.2 0-.5-.1-.7zm-2.7 2.3c-.3.2-.7.2-1.2.2h-1.7v-2.6h2c.1 0 .3 0 .4.1.2.1.4.2.6.4.2.2.3.5.3.9.1.5-.1.8-.4 1zm25.1-2.2h4.6v-1.9h-4.6v-2.1h5.2v-2h-7.5v10.1h7.7v-2H149v-2.1zm-18.3 0h4.6v-1.9h-4.6v-2.1h5.2v-2h-7.5v10.1h7.7v-2h-5.3v-2.1zm-86.5.6c0-.2-.1-.4-.1-.7-.2-.5-.5-1-1-1.4-.5-.4-1.3-.6-2.3-.6h-2.3v-1.9h5.1v-2h-7.4v10.1h4.6c1.1 0 1.9-.2 2.3-.6.5-.4.8-.9 1-1.3.1-.2.1-.4.1-.6v-.5c.1-.1.1-.3 0-.5zm-2.8 1.6c-.3.2-.7.2-1.2.2h-1.7v-2.6h2.1c.1 0 .3 0 .4.1.2.1.4.2.6.4.2.2.3.5.3.9 0 .5-.2.8-.5 1zm64.5-2.4c-.3-.4-.6-.7-1-.8-.1 0-.2-.1-.3-.1-.1 0-.2 0-.3-.1.1 0 .2-.1.2-.1.1 0 .2-.1.3-.1.3-.1.5-.4.7-.7s.3-.7.3-1.2v-.5c0-.2-.1-.3-.1-.5-.1-.4-.4-.8-.8-1.1-.4-.3-1.1-.5-1.9-.5h-4.8v10.1h5.1c.1 0 .4 0 .6-.1.6-.1 1.2-.3 1.7-.7.5-.4.8-1.1.8-2 0-.7-.2-1.2-.5-1.6zm-5.4-3.8h1.8c.4 0 .7.1.9.3.2.2.3.5.3.8 0 .3-.1.5-.2.7-.1.2-.3.3-.5.3-.1 0-.1 0-.2.1h-2.1v-2.2zm0 4h1.9c.5 0 .8.1 1.1.3.3.2.4.5.4.9 0 .3-.1.6-.2.8-.1.2-.3.3-.4.4-.1 0-.2.1-.3.1H100.5v-2.5zm15.6-4.5c-.7-1.1-2.1-1.7-3.8-1.7-1.7 0-2.9.5-3.7 1.6-.7 1.1-1.1 2.3-1.1 3.7 0 1.4.4 2.6 1.1 3.7.7 1.1 1.9 1.6 3.7 1.7h.1c1.7 0 3-.5 3.7-1.6.7-1.1 1.1-2.3 1.1-3.7 0-1.4-.4-2.6-1.1-3.7zm-1.5 4.4c0 .3-.1.6-.2 1s-.3.8-.7 1.2c-.3.4-.8.5-1.4.6-.7 0-1.2-.2-1.5-.7-.3-.4-.5-.9-.6-1.4-.1-.2-.1-.5-.1-.7v-.6c0-1 .1-1.7.4-2.2.3-.5.6-.8.9-.9.2-.1.3-.2.5-.2h.9c.2 0 .3.1.5.2.3.2.6.5.9.9.3.5.4 1.2.4 2.2.1 0 .1.3 0 .6zm29.7-5c-.6-.4-1.4-.7-2.1-.7h-4.9v10.1h2.3v-3.5h2.8c.3 0 .6-.1.9-.2.5-.2.9-.5 1.3-.9s.6-1.2.6-2.2c.1-1.3-.3-2.2-.9-2.6zm-1.9 3.6c-.3.2-.7.3-1.2.3h-1.6v-2.7h1.6c.5 0 .9.1 1.2.3.3.2.4.5.4 1 0 .6-.1.9-.4 1.1zm44.5 2.1c0-.2 0-.4-.1-.6-.1-.6-.5-1.1-.9-1.5-.5-.5-1.2-.7-2.3-.7h-2.3V9.2h-2.3v10.1h4.6c1.2 0 2-.3 2.6-.8.5-.5.8-1.3.8-2.3-.1-.2-.1-.4-.1-.5zm-2.9 1.4c-.3.2-.6.3-1 .3h-1.8v-2.5h1.7c.5 0 .8.1 1.1.3.3.2.4.5.4 1 0 .4-.1.7-.4.9z"/>
</svg>