<svg xmlns="http://www.w3.org/2000/svg" viewBox="0 0 160 24.9">
	<path fill="#8dc63f" d="M18.4 11.2L24.7.3c.1-.1 0-.3-.1-.3h-4c-1 0-1.8.5-2.2 1.3L11.6 13c0 .1 0 .2.1.3 3.1 1.1 5.7 3.5 7.1 6.5 0 .1 0 .3-.2.3H5.1c-.1 0-.2-.1-.2-.2V5.1c.1 0 .2-.1.2-.1h6.8c.9 0 1.7-.5 2.2-1.3l2-3.5c.1-.1 0-.2-.1-.2H.2C.1 0 0 .1 0 .2v24.6c0 .1.1.2.2.2h24.6c.1 0 .2-.1.2-.2 0-5.4-2.6-10.2-6.4-13.4-.2-.1-.2-.2-.2-.2z"/>
	<path fill="#5d1e79" d="M113.4 13.3c0-2.5-2-4.4-4.6-4.6-1.7-.1-3.3.5-4.6 1.4-.1 0-.1.1 0 .2l.5.8c.2.3.5.4.8.3 1-.5 2.2-.9 3.4-.8 1.3.1 2.5 1.1 2.5 2.5v.7c0 .1-.1.2-.2.2h-4.1c-1.9 0-3.6 1.5-3.6 3.5s1.5 3.4 3.5 3.6c1.6.1 3-.4 4.2-1.2h.3l.3.6c.1.2.3.3.5.3h.9c.1 0 .2-.1.2-.2v-7.3zm-2.5 4.9c-1 .7-2.1 1.2-3.4 1.1-1-.1-2-.8-2-1.9 0-1 .8-1.9 1.9-1.9h3.8c.1 0 .2.1.2.2v1.6c0 .4-.2.7-.5.9zm24.6-4.9c0-2.5-2-4.4-4.6-4.6-1.7-.1-3.3.5-4.6 1.4-.1 0-.1.1 0 .2l.5.8c.2.3.5.4.8.3 1-.5 2.2-.9 3.4-.8 1.3.1 2.5 1.1 2.5 2.5v.7c0 .1-.1.2-.2.2h-4.1c-1.9 0-3.6 1.5-3.6 3.5s1.5 3.4 3.5 3.6c1.6.1 3-.4 4.2-1.2h.3l.3.6c.1.2.3.3.5.3h.9c.1 0 .2-.1.2-.2v-7.3zm-2.6 4.9c-1 .7-2.1 1.2-3.4 1.1-1-.1-2-.8-2-1.9 0-1 .8-1.9 1.9-1.9h3.8c.1 0 .2.1.2.2v1.6c0 .4-.2.7-.5.9zm12.7-8.7v4.2c0 .1-.1.2-.2.2h-5.7c-.1 0-.2-.1-.2-.2V9.1c0-.1-.1-.2-.2-.2h-1.8c-.1 0-.2.1-.2.2v11.5c0 .1.1.2.2.2h1.3c.3 0 .6-.3.6-.6v-4.4c0-.1.1-.2.2-.2h5.7c.1 0 .2.1.2.2v4.9c0 .1.1.2.2.2h1.8c.1 0 .2-.1.2-.2V9.1c0-.1-.1-.2-.2-.2h-1.3c-.3 0-.6.3-.6.6zm-48.1 3.1c-.1-.1-.1-.2 0-.3.7-.5 1.3-1.2 1.8-1.9l3.5-6c.1-.1 0-.3-.1-.3H101c-.5 0-.8.3-1.1.6l-3.3 5.6c-.4.6-1 1-1.8 1H93c-.1 0-.2-.1-.2-.2V4.3c0-.1-.1-.2-.2-.2h-2c-.1 0-.2.1-.2.2v16.3c0 .1.1.2.2.2h1.5c.3 0 .6-.3.6-.6v-6.4c0-.1.1-.2.2-.2h1.8c.8 0 1.4.4 1.8 1l3.2 5.6c.2.4.6.6 1.1.6h1.6c.1 0 .2-.1.1-.3l-3.5-6c-.2-.7-.8-1.4-1.5-1.9zm25 2.2c-.1 0-.1-.2 0-.3.8-.5 1.3-1.4 1.3-2.3 0-1.9-1.5-3.4-3.5-3.5-1.7-.1-3.3.5-4.6 1.4-.1 0-.1.1 0 .2l.5.8c.2.3.5.4.8.3 1-.5 2.1-.9 3.2-.8.9.1 1.7.7 1.7 1.6 0 .9-.7 1.7-1.6 1.7h-1.9c-.1 0-.2.1-.2.2v.8c0 .3.3.6.6.6h1.4c1 0 1.9.8 1.9 1.9 0 1-.8 1.7-1.8 1.8-1.4.1-2.8-.3-4-.9-.1 0-.2 0-.2.1l-.7 1.3c0 .1 0 .2.1.2 1.5.8 3.3 1.3 5.1 1.2 2-.1 3.7-1.6 3.7-3.7-.3-1.2-.9-2.1-1.8-2.6zm-64.1-1.5c0-2.5-2-4.4-4.6-4.6-1.7-.1-3.3.5-4.6 1.4-.1 0-.1.1 0 .2l.5.8c.2.3.5.4.8.3 1-.5 2.2-.9 3.4-.8 1.3.1 2.5 1.1 2.5 2.5v.7c0 .1-.1.2-.2.2H52c-1.9 0-3.6 1.5-3.6 3.5s1.5 3.4 3.5 3.6c1.6.1 3-.4 4.2-1.2h.3l.3.6c.1.2.3.3.5.3h.9c.1 0 .2-.1.2-.2l.1-7.3zm-2.5 4.9c-1 .7-2.1 1.2-3.4 1.1-1-.1-2-.8-2-1.9 0-1 .8-1.9 1.9-1.9h3.8c.1 0 .2.1.2.2v1.6c-.1.4-.3.7-.5.9zm12.6-8.6v4.2c0 .1-.1.2-.2.2h-5.7c-.1 0-.2-.1-.2-.2V9.1c0-.1-.1-.2-.2-.2h-1.7c-.1 0-.2.1-.2.2v11.5c0 .1.1.2.2.2h1.3c.3 0 .6-.3.6-.6v-4.4c0-.1.1-.2.2-.2h5.7c.1 0 .2.1.2.2v4.9c0 .1.1.2.2.2h1.8c.1 0 .2-.1.2-.2V9.1c0-.1-.1-.2-.2-.2h-1.3c-.4 0-.7.3-.7.7zm10.3 5.3c-.1-.1-.1-.2 0-.3.6-.4 1.2-1 1.5-1.7l2.2-3.8c.1-.1 0-.3-.1-.3h-1.5c-.4 0-.7.2-.9.5l-2.3 3.9c-.2.3-.5.5-.9.5H75c-.1 0-.2-.1-.2-.2V9.1c0-.1-.1-.2-.2-.2h-1.8c-.1 0-.2.1-.2.2v11.5c0 .1.1.2.2.2h1.3c.3 0 .6-.3.6-.6v-4.4c0-.1.1-.2.2-.2h1.7c.4 0 .7.2.9.5l2.4 4.1c.2.3.5.5.9.5h1.5c.1 0 .2-.1.1-.3l-2.3-4c-.3-.5-.8-1.1-1.3-1.5zM42.2 11h-4.4c-.1 0-.2-.1-.2-.2V6.4c0-.1.1-.2.2-.2h5.8c.5 0 .8-.3 1.1-.6l.7-1.2c.1-.1 0-.3-.1-.3h-9.8c-.1 0-.2.1-.2.2v16.3c0 .1.1.2.2.2h6.8c2.7 0 4.9-2.2 4.9-4.9-.1-2.8-2.4-4.9-5-4.9zm-.3 7.7h-4.2c-.1 0-.2-.1-.2-.2v-5.3c0-.1.1-.2.2-.2H42c1.5 0 2.8 1.2 2.8 2.8.1 1.6-1.3 2.9-2.9 2.9zM157 9.6l-5 8.6c0 .1-.2 0-.2 0v-9c0-.1-.1-.2-.2-.2h-1.8c-.1 0-.2.1-.2.2v11.5c0 .1.1.2.2.2h1.8c.5 0 .8-.3 1.1-.6l5-8.6c0-.1.2 0 .2 0v9c0 .1.1.2.2.2h1.8c.1 0 .2-.1.2-.2V9.1c0-.1-.1-.2-.2-.2h-1.8c-.5 0-.9.3-1.1.7z"/>
</svg>