<svg xmlns="http://www.w3.org/2000/svg" viewBox="0 0 170 33.5">
	<path fill="#3e3935" d="M165.6 26h-.2s-.1.1-.1.2l-.4 4.4c0 .2 0 .4-.1.5-.1.1-.2.2-.4.2-.1 0-.2 0-.2.1V32.5h.2c.5 0 .9 0 1.2-.1.3-.1.5-.3.6-.6.1-.3.2-.7.2-1.2l.2-3.3h1.6v5c0 .1 0 .2.1.2h1.4s.1-.1.1-.2v-6.1c0-.1 0-.2-.1-.2 0 0-.1-.1-.2 0h-3.9zM47.7 7.7c-.1-.1-.2-.2-.5-.2h-8.7c-.2 0-.4 0-.4.1-.1.1-.2.2-.2.5v12.2c0 .2 0 .4.1.4.1.1.2.2.5.2h5.2c1.8 0 3.1-.4 4-1.1.9-.7 1.4-1.8 1.4-3.3 0-1.4-.4-2.5-1.3-3.2-.9-.7-2.2-1-4-1h-2.6v-2.2h6.1c.2 0 .4 0 .5-.1.1-.1.1-.3.1-.4V8.1c-.1-.2-.1-.3-.2-.4zm-2.2 7.8c.4.2.5.6.5 1.1 0 .5-.2.9-.6 1.1-.4.2-.9.4-1.7.4h-2.6v-2.9h2.6c.9-.1 1.4 0 1.8.3zm9.7-7.8c-.1.1-.2.3-.3.5l-4.5 12.2c0 .1-.1.3 0 .4 0 .1.2.2.4.2h2.1c.2 0 .4 0 .5-.1.1-.1.2-.3.3-.5l.6-1.6h5l.6 1.6c.1.2.2.4.3.5.1.1.3.1.5.1h2.1c.2 0 .4-.1.4-.2v-.4L58.5 8.2c-.1-.2-.2-.4-.3-.5-.1-.1-.3-.2-.5-.2h-1.9c-.3 0-.4.1-.6.2zm3 8.1h-3l1.5-4.5 1.5 4.5zm17.4-8.2c-.1-.1-.3-.1-.4-.1h-2c-.2 0-.4 0-.4.1-.1.1-.2.2-.2.5v4.6H68V8.1c0-.2 0-.4-.2-.5-.1-.1-.2-.1-.4-.1h-2c-.2 0-.4 0-.4.1-.1.1-.2.2-.2.5v12.2c0 .2 0 .4.2.5.1.1.2.1.4.1h2c.2 0 .4 0 .4-.1.1-.1.2-.2.2-.5v-4.5h4.5v4.6c0 .2 0 .4.2.5s.3.1.4.1h2c.2 0 .4 0 .4-.1.1-.1.1-.2.1-.5V8.1c.2-.2.1-.4 0-.5zm14.3-.1h-2.8c-.2 0-.4 0-.5.1-.1 0-.3.2-.5.4l-4.2 4.7V8.1c0-.2 0-.4-.1-.5s-.2-.1-.4-.1h-2c-.2 0-.4 0-.4.1-.1.1-.2.2-.2.5v12.2c0 .2 0 .4.2.5.1.1.2.1.4.1h2c.2 0 .3 0 .4-.1.1-.1.1-.2.1-.5v-3.6l1.3-1.3.9 1.5c.3.5.7 1.1.9 1.6.3.5.6.9.7 1.2.2.4.3.5.3.5.1.2.3.4.4.5.1.1.4.2.6.2h2.5c.2 0 .3-.1.4-.2v-.4L85.5 13l4.6-5c.1-.1.1-.2.1-.4 0 0-.1-.1-.3-.1zM40.4 25.8c-.3 0-.6 0-.9.1-.3.1-.6.2-.9.4-.3.2-.5.4-.7.7-.2.3-.2.7-.3 1.1v2.4c0 .4.1.7.3 1.1.2.3.4.5.7.7.3.2.6.3.9.4.3.1.6.1.9.1.3 0 .6 0 .9-.1s.6-.2.9-.4c.3-.2.5-.4.7-.7.2-.3.2-.6.3-1.1v-2.4c0-.4-.1-.7-.3-1.1-.2-.3-.4-.5-.7-.7-.3-.2-.6-.4-.9-.4-.3-.1-.6-.1-.9-.1zm-1.2 4.6v-2.1c0-.3.1-.6.3-.7.2-.2.5-.3.8-.3.4 0 .6.1.8.3.2.2.3.4.3.7v2.1c0 .4-.1.6-.3.7-.2.2-.5.3-.8.3-.4 0-.6-.1-.8-.3-.1-.2-.3-.4-.3-.7zm9.9-4.4h-4.5s-.1.1-.1.2v6.1c0 .1 0 .2.1.2 0 0 .1.1.2.1h2.6c.9 0 1.5-.2 2-.5.4-.4.7-.9.7-1.6 0-.7-.2-1.2-.7-1.6-.4-.4-1.1-.5-2-.5H46v-1.1h3c.1 0 .2 0 .2-.1v-1-.2h-.1zM46 29.7h1.3c.4 0 .7 0 .8.2.2.1.3.3.3.6s-.1.5-.3.6c-.2.1-.5.2-.9.2H46v-1.6zm7.1-3.7h-2c-.1 0-.2 0-.2.1v1.3s.1.1.2.1h.7V32.6s.1.1.2.1h2.3c.9 0 1.5-.2 2-.6.4-.4.7-1 .7-1.7s-.2-1.3-.7-1.7c-.5-.4-1.1-.6-2-.6h-1v-1.9c0-.1 0-.2-.1-.2.1 0 0-.1-.1 0zm1.3 3.5c.4 0 .7.1.9.2.2.1.3.4.3.6s-.1.5-.3.6c-.2.1-.5.2-.9.2h-1v-1.7l1 .1zM63 26h-4.3c-.1 0-.2 0-.2.1 0 0-.1.1-.1.2v6.1c0 .1 0 .2.1.2 0 0 .1.1.2.1h4.5c.1 0 .2 0 .2-.1v-1-.2s-.1-.1-.2-.1h-3.3V30h2.7c.1 0 .2 0 .2-.1 0 0 .1-.1 0-.2v-.8-.2s-.1-.1-.2-.1h-2.7v-1.1H63c.1 0 .2 0 .2-.1v-1-.2c0-.2-.1-.2-.2-.2zm7 0s-.1-.1-.2 0h-4.1s-.1.1-.1.2l-.3 4.2c0 .1 0 .2-.1.4 0 .1-.1.2-.2.2s-.2.1-.4.1c-.1 0-.2 0-.2.1 0 0-.1.1 0 .2v1.8c0 .1 0 .2.1.2 0 0 .1.1.2.1h.8c.1 0 .2 0 .2-.1 0 0 .1-.1.1-.2v-.7h3.7v.6c0 .1 0 .2.1.2 0 0 .1.1.2.1h.8c.1 0 .2 0 .2-.1 0 0 .1-.1.1-.2v-1.8-.2s-.1-.1-.2-.1h-.5v-4.8L70 26zm-3.2 4.5l.3-3.2h1.4v3.9h-2.1c.1 0 .2-.1.3-.2.1-.2.1-.3.1-.5zm5.4-4.5H72s-.1.1-.1.2v6.3s.1.1.2.1h.9c.1 0 .2 0 .3-.1 0 0 .1-.1.2-.3l2.2-3.5v3.5c0 .1 0 .2.1.2h1.4s.1-.1.1-.2v-6.1-.2s-.1-.1-.2-.1h-.9c-.1 0-.2 0-.3.1l-.2.2-2.2 3.5v-3.5c0-.1 0-.2-.1-.2 0 0-.1-.1-.2 0l-1 .1c0-.1 0 0 0 0zm7 0H79s-.1.1-.1.2v6.1c0 .1 0 .2.1.2h1.4s.1-.1.1-.2V30h2.2v2.3c0 .1 0 .2.1.2h1.4s.1-.1.1-.2v-6.1c0-.1 0-.2-.1-.2 0 0-.1-.1-.2 0h-1.2s-.1.1-.1.2v2.3h-2.2v-2.3c0-.1 0-.2-.1-.2 0 0-.1-.1-.2 0h-1zm6.7 0s-.1.1-.1.2v6.1c0 .1 0 .2.1.2 0 0 .1.1.2.1h4.5c.1 0 .2 0 .2-.1v-1-.2s-.1-.1-.2-.1h-3.2v-1.3h2.7c.1 0 .2 0 .2-.1 0 0 .1-.1 0-.2v-.8-.2s-.1-.1-.2-.1h-2.7v-1.1h3.1c.1 0 .2 0 .2-.1v-1-.2s-.1-.1-.2-.1H85.9zm10.5 0h-.2s-.1.1-.1.2v2.3h-2.2v-2.3c0-.1 0-.2-.1-.2 0 0-.1-.1-.2 0h-1.2s-.1.1-.1.2v6.1c0 .1 0 .2.1.2h1.4s.1-.1.1-.2V30h2.2v2.3c0 .1 0 .2.1.2h1.4s.1-.1.1-.2v-6.1c0-.1 0-.2-.1-.2 0 0-.1-.1-.2 0h-1zm6.9 0h-.2s-.1.1-.1.2v2.3h-2.2v-2.3c0-.1 0-.2-.1-.2 0 0-.1-.1-.2 0h-1.2s-.1.1-.1.2v6.1c0 .1 0 .2.1.2h1.4s.1-.1.1-.2V30h2.2v2.3c0 .1 0 .2.1.2h1.4s.1-.1.1-.2v-6.1c0-.1 0-.2-.1-.2 0 0-.1-.1-.2 0h-1zm9.3 0h-.2s-.1.1-.1.2v6.1c0 .1 0 .2.1.2h1.4s.1-.1.1-.2v-6.1c0-.1 0-.2-.1-.2 0 0-.1-.1-.2 0h-1zm-5 0s-.1-.1-.2 0h-1.2s-.1.1-.1.2v6.1c0 .1 0 .2.1.2 0 0 .1.1.2.1h2.3c.9 0 1.5-.2 2-.6.4-.4.7-1 .7-1.7s-.2-1.3-.7-1.7c-.5-.4-1.1-.6-2-.6h-1v-1.9s0-.1-.1-.1zm.1 3.5h1c.4 0 .7.1.8.2.2.1.3.4.3.6s-.1.5-.3.6-.5.2-.8.2h-1v-1.6zm12.8-3.5h-.9c-.1 0-.2 0-.3.1l-.2.2-2.2 3.5v-3.5c0-.1 0-.2-.1-.2 0 0-.1-.1-.2 0h-1.2s-.1.1-.1.2v6.3s.1.1.2.1h.9c.1 0 .2 0 .3-.1 0 0 .1-.1.2-.3l2.2-3.5v3.5c0 .1 0 .2.1.2h1.4s.1-.1.1-.2v-6.1-.2h-.2zm-3-.9c.2.1.5.1.8.1.3 0 .5 0 .8-.1.2-.1.4-.2.6-.4.1-.2.2-.4.3-.7v-.1s0-.1-.1-.1h-.5-.1v.1c-.1.2-.2.3-.4.4-.2.1-.4.1-.5.1-.2 0-.4 0-.5-.1-.2-.1-.3-.2-.4-.4v-.1h-.6s-.1 0-.1.1v.1c0 .3.1.5.3.7 0 .2.1.3.4.4zm7.9.9h-.2s-.1.1-.1.2v6.1c0 .1 0 .2.1.2h1.4s.1-.1.1-.2v-1.8l.6-.7c.1.2.3.5.5.7.2.3.3.5.5.8.1.2.3.5.4.6l.1.2c0 .1.1.2.2.2s.2.1.3.1h1.2c.1 0 .2 0 .2-.1v-.2l-2.2-3.6 2.3-2.5s.1-.1 0-.2c0 0-.1-.1-.2-.1h-1.7l-.2.2-2.1 2.3v-2.3c0-.1 0-.2-.1-.2 0 0-.1-.1-.2 0l-.9.3zm9.4 0h-1c-.1 0-.2 0-.3.1-.1 0-.1.1-.2.2l-2.2 6.1v.2s.1.1.2.1H132.7c.1 0 .1-.1.1-.2l.3-.8h2.5l.3.8c0 .1.1.2.1.2h1.3c.1 0 .2 0 .2-.1v-.2l-2.2-6.1c0-.1-.1-.2-.2-.2-.1-.1-.2-.1-.3-.1zm-1.2 4.1l.7-2.2.7 2.2h-1.4zm5.1-4.1h-.2s-.1.1-.1.2v6.1c0 .1 0 .2.1.2h1.4s.1-.1.1-.2v-5h2.2v5c0 .1 0 .2.1.2h1.4s.1-.1.1-.2v-6.1c0-.1 0-.2-.1-.2 0 0-.1-.1-.2 0h-4.8zm11.7 0h-.9c-.1 0-.2 0-.3.1l-.2.2-2.2 3.5v-3.5c0-.1 0-.2-.1-.2 0 0-.1-.1-.2 0h-1.2s-.1.1-.1.2v6.3s.1.1.2.1h.9c.1 0 .2 0 .3-.1 0 0 .1-.1.2-.3l2.2-3.5v3.5c0 .1 0 .2.1.2h1.4s.1-.1.1-.2v-6.1-.2h-.2zm6.7.3v-.2s-.1-.1-.2-.1H152c-.1 0-.2 0-.2.1v1.2s.1.1.2.1h1.6v5c0 .1 0 .2.1.2h1.4s.1-.1.1-.2v-5h1.5c.1 0 .2 0 .2-.1v-.2l.2-.8zm4.1-.3h-1c-.1 0-.2 0-.3.1-.1 0-.1.1-.2.2l-2.2 6.1v.2s.1.1.2.1H159.1c.1 0 .1-.1.1-.2l.3-.8h2.5l.3.8c0 .1.1.2.1.2h1.3c.1 0 .2 0 .2-.1v-.2l-2.2-6.1c0-.1-.1-.2-.2-.2-.2-.1-.2-.1-.3-.1zm-1.3 4.1l.7-2.2.7 2.2h-1.4z"/>
	<path fill="#2f9a41" d="M12.3 5c-2.7 0-5.1.8-7.2 2.4.5-.5 1.1-1 1.7-1.5 2.7-1.9 5.6-2.6 8.9-2.1 3.3.5 5.8 2.1 7.8 4.7 1.9 2.7 2.6 5.6 2.1 8.9-.1.7-.3 1.3-.4 1.9 1-1.5 1.7-3.2 2-5.1.2-1.4.2-2.6 0-3.9.9 2.1 1.2 4.3.8 6.6-.5 3.3-2.1 5.8-4.8 7.8-2.5 1.8-5.3 2.5-8.4 2.2-.1-.5-.1-1-.1-1.5-.1-1.9.3-3.7 1-5.4l-1.3-.3c-2 2.4-2.9 5.2-2.8 8.3 0 .4 0 .7.1 1.1-1.6-.6-3-1.5-4.4-2.8C5 24 3.8 21.2 3.8 17.9s1.2-6 3.4-8.4C9.5 7.2 12.3 6 15.6 6c.7 0 1.3 0 1.9.1C16 5.4 14.3 5 12.3 5zm2.6 22.8c.8.3 1.6.5 2.5.7 3.4.5 6.4-.2 9.2-2.2 2.7-2 4.4-4.7 4.9-8s-.2-6.4-2.2-9.2c-1.2-1.6-2.6-2.9-4.3-3.7 0 0-.1-.1-.1-.2-2-2.8-4.7-4.4-8-5-3.4-.5-6.4.2-9.2 2.2-2.5 1.8-4 4.1-4.7 7-2 2.2-3 4.9-3 7.9 0 3.4 1.2 6.3 3.6 8.7 2.2 2.2 4.9 3.4 8 3.6.2 1.4.6 2.6 1.3 3.8h5c-1.5-1.6-2.5-3.4-3-5.6z"/>
</svg>