<svg viewBox="0 0 121 39" xmlns="http://www.w3.org/2000/svg">
	<path fill="#8BBC06" d="M92.5013 14.7766c.0103-1.9428-.3666-3.8682-1.1085-5.66372-.7419-1.79556-1.834-3.42535-3.2127-4.79422-1.3786-1.36888-3.0161-2.44943-4.8169-3.17857C81.5624.410947 79.6344.0478187 77.6918.0719004 75.7491.0959821 73.8307.506791 72.0486 1.28035c-1.7822.77355-3.3924 1.89436-4.7367 3.29699-1.3443 1.40264-2.3957 3.059-3.0929 4.87239-.6972 1.81337-1.0261 3.74747-.9677 5.68947-.003 3.955 1.5163 7.7594 4.2429 10.6243 1.3214 1.42 2.9201 2.5536 4.6973 3.3309 1.7771.7773 3.6949 1.1815 5.6346 1.1878 4.4456 0 10.676-2.1443 13.6371-8.2187.0333-.0617.0591-.1272.077-.195h-5.9671l-.0351.042c-.9618 1.0244-2.125 1.839-3.4165 2.3925-1.2916.5535-2.6836.834-4.0888.824-2.2146-.0393-4.3469-.8465-6.0323-2.2837-1.6854-1.4373-2.8193-3.4152-3.2079-5.5958h23.5879c.0478-.5615.1209-1.6912.1209-2.4709Zm-23.5314-2.3471c.4264-2.0441 1.5437-3.87896 3.164-5.19608 1.6202-1.31712 3.6446-2.03614 5.7326-2.03614 2.0881 0 4.1125.71902 5.7327 2.03614 1.6203 1.31712 2.7376 3.15198 3.164 5.19608H68.9699ZM46.7056 5.0217c-5.317 0-8.014 2.85882-8.014 8.517V30.292h-5.4584V13.1478c-.0846-2.4986.5406-4.97016 1.8032-7.128 1.257-1.92753 2.9937-3.49496 5.0395-4.54832C42.1218.418117 44.4065-.0849444 46.7056.0117089c2.2975-.0946473 4.5801.4093651 6.6241 1.4626211 2.0439 1.05326 3.7791 2.61961 5.0354 4.54547 1.2617 2.15773 1.8828 4.6302 1.7905 7.128V30.292h-5.4525V13.5397c0-5.65333-2.6843-8.5141-7.9984-8.5141l.0009-.0039ZM120.865.0185318 109.364 28.1807l-2.843 6.9692L104.95 39h-5.6716l4.4006-10.8193L91.9223.0185318h5.9945L106.524 21.1931 115.149.0185318h5.716ZM15.0588 25.1445c-1.2955-.0091-2.5763-.2747-3.7686-.7817-1.1922-.5069-2.2722-1.245-3.17757-2.1717-.90537-.9266-1.61817-2.0235-2.09724-3.2272-.47906-1.2037-.7149-2.4904-.69388-3.7857-.02179-1.2963.2134-2.5841.69201-3.7889.47861-1.2049 1.19115-2.30304 2.09648-3.23103.90534-.92799 1.9855-1.66745 3.1782-2.17569 1.1927-.50824 2.4742-.77518 3.7706-.78543 1.2946.01397 2.5736.28357 3.7637.79332 1.19.50975 2.2677 1.2496 3.1709 2.17705.9033.92746 1.6144 2.02428 2.0926 3.22738.4781 1.2031.7138 2.4888.6936 3.7833.0197 1.2936-.2165 2.5785-.695 3.7806-.4784 1.2021-1.1898 2.2977-2.0932 3.224-.9033.9263-1.9808 1.6648-3.1706 2.1733-1.1897.5084-2.4682.7767-3.762.7894v-.001Zm0-25.1259682C13.0688.00274369 11.0956.384708 9.25518 1.142c-1.84041.75729-3.51099 1.87464-4.91363 3.28646C2.93891 5.84027 1.83246 7.51809 1.08718 9.3634.341901 11.2087-.0271966 13.1843.00155989 15.1743-.0267816 17.164.342474 19.1394 1.08767 20.9845c.7452 1.8452 1.85133 3.523 3.25353 4.935 1.4022 1.412 3.07223 2.5298 4.91214 3.2878 1.83996.758 3.81266 1.1411 5.80256 1.1266 1.9882.0123 3.9589-.3724 5.7965-1.1315 1.8376-.7591 3.5052-1.8774 4.9051-3.2893 1.3999-1.4118 2.5039-3.0889 3.2473-4.9329.7434-1.8441 1.1113-3.8179 1.0821-5.8059.0299-1.9881-.3376-3.962-1.0808-5.80613-.7432-1.84411-1.8473-3.52121-3.2473-4.93291-1.4001-1.41169-3.068-2.52956-4.9059-3.288C19.015.388816 17.0441.00506852 15.0559.0185318"/>
</svg>