<svg xmlns="http://www.w3.org/2000/svg" viewBox="0 0 142.6 37">
	<path fill="#00bef0" d="M13.8 0c-2.7 0-5.4.8-7.7 2.3-2.2 1.6-4 3.7-5 6.2s-1.3 5.3-.8 8 1.9 5.2 3.8 7.1c1.9 1.9 4.4 3.3 7.1 3.8s5.5.3 8-.8c2.5-1 4.7-2.8 6.2-5.1s2.3-5 2.3-7.7c0-1.8-.4-3.6-1.1-5.3-.7-1.7-1.7-3.2-3-4.5s-2.8-2.3-4.5-3c-1.6-.6-3.4-1-5.3-1zm-2 19.7l-1 3c-1.9-.7-3.5-1.9-4.6-3.5-1.1-1.6-1.8-3.6-1.8-5.5 0-2 .6-3.9 1.8-5.5C7.4 6.6 9 5.3 10.9 4.7l1 3c-1.2.4-2.3 1.2-3.1 2.3-.8 1.1-1.2 2.3-1.1 3.6-.1 1.3.3 2.7 1 3.8.8 1.1 1.9 1.9 3.1 2.3.1 0 0 0 0 0zm4.8 3.1l-1-3.1c1.3-.4 2.4-1.2 3.1-2.3.8-1.1 1.2-2.4 1.2-3.7 0-1.3-.4-2.6-1.2-3.7-.8-1.1-1.9-1.9-3.1-2.3l1-3.1c1.9.6 3.6 1.9 4.7 3.5s1.8 3.6 1.8 5.6c0 2-.7 4-1.9 5.6-1.1 1.7-2.8 2.9-4.6 3.5z"/>
	<path fill="#000" d="M37.5 36.9h-2.2v-6.4h3.8v.6h-3v2h1.4c1.3 0 2.1.5 2.1 1.8v.1c0 1.3-.8 1.9-2.1 1.9zm0-.5c1 0 1.3-.5 1.3-1.2v-.1c0-.8-.4-1.2-1.4-1.2h-1.3v2.5h1.4zm2.8-.7c0-1.1 1.2-1.5 2.4-1.5h.7v-.3c0-.8-.3-1.1-1-1.1s-1 .3-1.1.8h-.8c0-.2.1-.4.2-.6.1-.2.2-.4.4-.5l.6-.3c.2-.1.4-.1.7 0 .2 0 .5 0 .7.1.2.1.4.2.6.4.2.2.3.4.4.6s.1.4.1.7v3.1h-.8v-.6c-.2.2-.4.4-.6.5h-1c-.8 0-1.5-.4-1.5-1.3zm3.1-.3v-.6h-.6c-1 0-1.6.3-1.6.9s.3.8.9.8 1.3-.5 1.3-1.1zm5-.5h-2.3V37h-.8v-4.7h.7v2h2.3v-2h.8V37h-.8l.1-2.1zm2.8-.3V37h-.8v-4.7h.8v2.2l1.9-2.2h.9l-2 2.2 2.2 2.5h-.9l-2.1-2.4zm89.3-18.3l1.5 1.9c-.7.7-1.5 1.2-2.4 1.6-.9.4-1.8.5-2.8.5-1.2 0-2.4-.2-3.6-.7-1-.5-1.8-1.3-2.3-2.3-.5-1-.8-2.1-.7-3.2 0-3.8 2.6-6.6 6.3-6.6 4.2 0 6.3 3.1 5.9 7.2H133c0 .5.2 1 .4 1.4.3.4.6.8 1 1.1.8.5 1.7.7 2.6.6.7 0 1.3-.1 1.9-.4s1.2-.6 1.6-1.1zm-7.4-3.9h6.8c-.1-.8-.5-1.5-1.1-2-.6-.5-1.4-.8-2.2-.7-.8 0-1.6.2-2.2.7-.7.5-1.2 1.2-1.3 2zM68.8 20h3.4l-5.4-6.3 5.4-5.9h-3.4l-4.1 4.7h-1.2V7.7h-2.6v12.2h2.6v-4.8h1.2l4.1 4.9zm11.3-10c-.5 0-1 .1-1.5.3-.5.2-.9.5-1.2.9s-.6.8-.8 1.3c-.2.5-.2 1-.2 1.5s0 1 .2 1.5.4.9.8 1.3.8.7 1.2.9c.5.2 1 .3 1.5.3s1-.1 1.5-.3c.5-.2.9-.5 1.2-.9s.6-.8.8-1.3c.2-.5.2-1 .2-1.5s0-1-.2-1.5-.4-.9-.8-1.3c-.3-.4-.8-.7-1.2-.9-.5-.3-1-.4-1.5-.3zm.4-2.5c3.4 0 6 2.7 6 6.4s-2.5 6.4-6 6.4c-.7 0-1.5-.1-2.2-.4-.7-.3-1.3-.7-1.8-1.2v6.4h-2.6V7.7h2.6v1.5c.5-.6 1.1-1 1.8-1.3.7-.3 1.4-.5 2.2-.4zm34.7.2h-10.9v2.4h4.1v9.7h2.7v-9.7h4.2l-.1-2.4zM59 7.7H48.1v2.4h4.2v9.7H55v-9.7h4.1L59 7.7zm-14.2 6.1c0-1-.4-2-1.1-2.7C43 10.4 42 10 41 10c-1 0-2 .4-2.7 1.1-.7.7-1.1 1.7-1.1 2.7s.4 2 1.1 2.7c.7.7 1.7 1.1 2.7 1.1 1 0 2-.4 2.7-1.1.7-.7 1.1-1.6 1.1-2.7zm-10.3 0c0-1.3.3-2.6 1-3.7s1.7-2 2.9-2.5 2.6-.6 3.9-.3c1.3.2 2.5.9 3.4 1.8.9.9 1.6 2.1 1.8 3.4.3 1.3.1 2.6-.4 3.8-.5 1.2-1.3 2.2-2.4 3-1.1.7-2.4 1.1-3.7 1.1-.9 0-1.7-.1-2.5-.4-.8-.3-1.5-.8-2.2-1.4-.6-.6-1.1-1.3-1.4-2.1-.2-.9-.4-1.8-.4-2.7zm93.7-6.1v12.2h-2.6v-7.8l-6.4 7.9h-2.1V7.7h2.6v7.9l6.4-7.9h2.1c0 .1 0 0 0 0zM102.5 20h-2.6V7.7h2.6V20zm-6.8-4.2c0-.2 0-.5-.1-.7-.1-.2-.2-.4-.4-.6-.2-.2-.4-.3-.6-.4-.2-.1-.5-.1-.7-.1h-2.6v3.8H94c.2 0 .5-.1.7-.2.2-.1.4-.2.6-.4.2-.2.3-.4.4-.6v-.8zm2.7 0c0 .6-.1 1.1-.3 1.6-.2.5-.5 1-.9 1.4-.4.4-.9.7-1.4.9-.5.2-1.1.3-1.7.2h-5.4V7.7h2.7v4h3c.5 0 1.1 0 1.6.2s1 .5 1.4.9c.4.4.7.8.9 1.3 0 .6.1 1.1.1 1.7z"/>
</svg>