<svg xmlns="http://www.w3.org/2000/svg" viewBox="0 0 170 33.6">
	<g fill="#016438">
		<path d="M0 16.8c0-4.5 1.8-8.7 4.9-11.9C8.1 1.8 12.3 0 16.8 0v6.1c-2.1 0-4.2.6-6 1.8s-3.1 2.9-3.9 4.8c-.8 2-1 4.1-.6 6.2.4 2.1 1.5 4 3 5.5s3.4 2.5 5.5 2.9 4.2.2 6.2-.6 3.6-2.2 4.8-4c1.2-1.8 1.8-3.9 1.8-6h6.1c0 4.5-1.8 8.7-4.9 11.9-3.2 3.2-7.4 4.9-11.9 4.9S8.2 31.7 5 28.6c-3.2-3.1-5-7.4-5-11.8"/>
		<path d="M22 7.4c0-.8.3-1.7.7-2.4s1.1-1.2 1.9-1.6c.8-.3 1.6-.4 2.5-.2s1.6.6 2.2 1.2 1 1.4 1.2 2.2.1 1.7-.2 2.5c-.3.8-.9 1.4-1.6 1.9-.7.5-1.5.7-2.4.7-.6 0-1.1-.1-1.6-.3-.5-.2-1-.5-1.4-.9-.4-.5-.8-1-1-1.5-.2-.5-.3-1.1-.3-1.6z"/>
	</g>
	<path fill="#4fae2e" d="M9.4 16.8c0-1.5.4-2.9 1.3-4.1.8-1.2 2-2.2 3.3-2.7 1.4-.6 2.9-.7 4.3-.4 1.4.3 2.8 1 3.8 2s1.7 2.4 2 3.8c.3 1.4.1 2.9-.4 4.3-.6 1.3-1.5 2.5-2.7 3.3s-2.7 1.3-4.1 1.3c-2 0-3.9-.8-5.3-2.2-1.4-1.4-2.2-3.3-2.2-5.3zM153.2 11.6l-.5 2.5c-1.2 5.5-1.7 7.4-2.7 12.9l-.3.2-3.4.1-.2-.2 1.4-5.7.4-1.9h-7.2c-.5 2.2-.9 4.2-1.5 7.5l-.3.2-3.4.1-.2-.2 1.4-5.7.6-2.5c.7-2.7 1.2-5.5 1.6-8.3l.2-.2c1.2-.1 2.3-.3 3.5-.6l.2.2-.3 1.7-.4 2.5-.6 2.4h7.2c.5-2.1.6-3.3 1.1-6l.2-.2c1.2-.1 2.3-.3 3.5-.6l.2.2-.5 1.6zM112.7 19c.2-.9.4-1.9.4-2.9 0-3.4-2.2-3.9-3.4-3.9-5.2 0-5.9 8.1-5.9 9.3 0 2.6 1.6 3.8 3.4 3.8 3.6.1 4.9-3.6 5.5-6.3zm3.4 1.1c-.7 2.9-2.8 7.8-9 7.8-4.4 0-6.8-2.3-6.8-6.8 0-.6 0-1.3.1-1.9 0-.2 0-.3.1-.5 1.2-7.5 4.4-14.6 11.6-14.6 1.4 0 2.8-.2 4.2-.4l-.5 3c-1.5.3-3.1.5-4.6.5-.6 0-1.2.1-1.8.3s-1.1.5-1.5 1c-.3.3-.6.7-.8 1.1-.2.3-.3.6-.5.9 1-.3 2.1-.5 3.2-.5 4.3 0 6.9 2.4 6.9 6.7-.1 1-.3 2.2-.6 3.4zm42.8-3.1c.8-.7 1.2-1.1 2.3-2.2s4-4 4.5-4.6l.4-.2h3.8l.1.3c-.3.3-.5.4-1.8 1.5-.5.4-.9.8-1.5 1.3l-4.3 4 5.1 9.7-.2.3-3.7.1-.3-.2c-.9-2-1.1-2.5-2.3-4.9l-2.3-4.7c-.7 3.2-1.2 5.3-2 9.5l-.2.2-3.4.1-.2-.2 1.4-5.7.5-2.5c.7-2.7 1.2-5.5 1.6-8.3l.2-.2c1.2-.1 2.3-.3 3.5-.6l.2.2-.3 1.7-.5 2.5-.6 2.9zm-29.2 6c-.3.3-.7.6-1.1.9-.9.5-1.9.8-2.9.8-3 0-3.9-2.5-3.9-4.1 0-1.3.4-2.6 1-3.8.6-1.2 1.5-2.2 2.5-3 1.6-1 3.4-1.5 5.2-1.4h1.5L129.7 23zm6.3-12.9l-.2-.3h-4.6c-3.1 0-7.3.2-10.4 3.8-1.6 2-2.6 4.5-2.6 7.1 0 4.1 2.8 6.5 6.1 6.5 1.8.1 3.5-.5 4.8-1.7l-.2 1.3.2.3 3.1-.1.3-.2c.7-4 .9-5.2 2-10.3l1.5-6.4z"/>
	<path fill="#016438" d="M48.7 27.8c-3.6 0-8.8-1.2-6.9-9.4.7-3.1 2.8-9.7 11.7-9.7 8.6 0 7.3 7.1 6.8 9.6-1.6 6.9-5.9 9.5-11.6 9.5zm1.1-3.8c2.5 0 3.7-2.6 4.5-6 .6-2.4 1.1-5.9-1.9-5.9-2.6 0-3.7 2.5-4.5 5.9-.7 3.2-.9 6.1 1.9 6 0 .1 0 0 0 0zm19.9 3.3h-5.5l-.2-.1c.3-1.1 1.1-4.1 1.9-7.7.7-2.9 1.2-5.5 1.5-6.7-1.4 0-3.5 0-4.6.1l-.2-.3c.3-.9.7-2.5.9-3.4l.3-.2c.9 0 4.5.1 7.3.1 3.4 0 6.8-.1 7.5-.1l.3.2c-.3.8-.7 2.5-.9 3.4l-.3.2h-4.4c-.2.8-.7 3-1.6 6.9-.7 3-1.2 5.7-1.5 7.4l-.5.2c0 .1 0 0 0 0zM89 13.1h-2.9c-.2.8-.8 3.6-1.5 6.4-.7 3.3-1.4 6.3-1.7 7.6l-.3.2H77l-.2-.2c.3-1.4 1.3-5.3 2.1-9.1s1.6-7.7 1.9-8.8L81 9c1.9 0 3.7.1 8.4.1 3.7 0 7.1-.1 9-.1l.2.2c-.3.9-1.3 5.4-2.3 9.8-.8 3.6-1.5 7.1-1.7 8.1l-.3.2h-5.7l-.2-.3c.3-1.2 1-4 1.7-7.5.6-2.6 1.2-5.4 1.4-6.5l-2.5.1c-.1 0 0 0 0 0z"/>
</svg>