<svg xmlns="http://www.w3.org/2000/svg" viewBox="0 0 157 24">
	<path fill="#005BFF" d="M10.464 6.2168c-.58101 0-1.13863.05175-1.67476.15332h-.00977c-1.51855.10937-3.06543 1.27832-3.77344 1.88476l-.5664.62696s-.15918-3.22559 3.27343-4.38672c.19532-.07715.4043-.15137.625-.21875 0 0 1.25196-.51563 4.18064-.53614 1.1162-.00781 2.3262-.00976 3.3965-.00878l1.0996.00195.6914.00195V0h-4.5605C9.19744.0703125 7.04607.723633 6.83416.790039c-.95313.311521-1.86133.666011-2.55371 1.074221-.74707.45605-1.38574 1.04394-1.92578 1.7334-.57813.73632-1.04395 1.58984-1.41016 2.52246-.215821.67871-.381836 1.32812-.515625 1.95605l-.00586.02051-.005859.02344-.019531.09765c-.009766.04395-.015625.08692-.022461.12989C.165213 9.39746.0577909 10.374.0265409 11.2754l-.008789.206-.0029297.1026c-.00878907.2685-.01367189.5293-.01464845.7812-.00195312.5049.01269535.9756.03710935 1.4053l-.0126953.0147c.0351563.9345.1523442 1.7656.3037112 2.496l.014648.0743c.13086.6064.288086 1.1386.448242 1.5927.175782.4971.354491.9004.504881 1.2051.1543.3115.2793.5186.3418.6162 1.72656 2.6729 4.53027 3.7403 7.61133 3.7403 5.7158 0 9.1816-3.6436 9.1816-8.8604 0-5.10936-3.2509-8.4326-7.9668-8.4326ZM9.21404 19.3652c-2.53711 0-4.6084-1.7509-4.6084-4.6455 0-2.8935 2.07129-4.6435 4.6084-4.6435 2.57226 0 4.64546 1.75 4.64546 4.6435-.0019 2.8946-2.0732 4.6455-4.64546 4.6455ZM33.6418 7.98145V6.4668h4.3564v16.5049h-4.3584v-2.3213h-.0703c-1.0371 1.7139-2.8232 2.8574-5.5029 2.8574-4.3223 0-7.9317-3.1435-7.9317-8.7881 0-5.64548 3.6094-8.78904 7.9317-8.78904l.1777.00196.1338.0039.2031.00977.2188.01465c.0908.00781.1797.0166.2685.02734 0 0 2.4834-.03711 4.5733 1.99317Zm-8.9317 6.73825c0 2.7871 1.8213 4.6455 4.4659 4.6455 2.6445 0 4.4658-1.8603 4.4658-4.6455 0-2.7861-1.8213-4.6445-4.4658-4.6445-2.6426 0-4.4659 1.8564-4.4659 4.6445Zm32.8946-8.2529v16.5078h-4.3936v-6.5752h-7.2529v6.5752h-4.3584V6.4668h4.3584v5.9307h7.2529V6.4668h4.3936Zm14.0556 16.5078-6.1806-7.8975v7.8975h-4.3584V6.4668h4.3584v6.8252l5.4316-6.8252h5.5733l-6.753 7.5039 7.6465 9.0039h-5.7178Zm23.4864-.0068c5.2523 0 9.1463-3.6084 9.1463-8.7881s-3.894-8.78908-9.1463-8.78908c-5.252 0-9.1465 3.60938-9.1465 8.78908s3.8945 8.7881 9.1465 8.7881Zm-.002-4.1426c-2.6797 0-4.6435-1.8232-4.6435-4.6455 0-2.8233 1.9658-4.64454 4.6435-4.64552 2.6797 0 4.6084 1.82222 4.6084 4.64552 0 2.8223-1.9287 4.6455-4.6084 4.6455Zm24.4803-.251v3.8604h-14.361v-3.5371l8.395-9.11137-8.366-.00195V5.92676h13.726v3.50097l-8.468 9.14647h9.074Zm10.124 4.3936c5.252 0 9.147-3.6084 9.147-8.7881s-3.895-8.78908-9.147-8.78908c-5.252 0-9.146 3.60938-9.146 8.78908s3.894 8.7881 9.146 8.7881Zm.002-4.1426c-2.681 0-4.645-1.8232-4.645-4.6455 0-2.8233 1.964-4.64454 4.645-4.64552 2.68 0 4.609 1.82222 4.609 4.64552 0 2.8223-1.929 4.6455-4.609 4.6455Zm27.043-6.5742v10.1816h-4.395v-9.1474c0-2.6797-1.25-3.82231-3.394-3.82231-2.252 0-3.859 1.32231-3.859 4.89451v8.0752h-4.359V5.92676h4.324v2.50195h.07c1.107-1.89355 2.965-3.03613 5.394-3.03613 3.575-.00196 6.219 1.99902 6.219 6.85842Z"/>
</svg>