<svg xmlns="http://www.w3.org/2000/svg" viewBox="0 0 148.4 36">
	<path fill="#009cde" d="M114.3 8.1h-8.2c-.6 0-1 .4-1.1 1L101.7 30c-.1.4.3.8.7.8h4.2c.4 0 .7-.3.8-.7l.9-5.9c.1-.6.6-1 1.1-1h2.6c5.4 0 8.5-2.6 9.3-7.8.4-2.3 0-4-1-5.3-1.2-1.3-3.3-2-6-2zm.9 7.6c-.4 2.9-2.7 2.9-4.8 2.9h-1.2l.9-5.5c.1-.3.3-.6.7-.6h.6c1.5 0 2.9 0 3.6.8.2.6.4 1.4.2 2.4zM138.7 15.6h-3.9c-.3 0-.6.2-.7.6l-.2 1.1-.3-.4c-.8-1.2-2.7-1.6-4.6-1.6-4.3 0-8 3.3-8.7 7.9-.4 2.3.2 4.5 1.5 6 1.2 1.4 2.9 2 4.9 2 3.5 0 5.4-2.2 5.4-2.2l-.2 1.1c-.1.4.3.8.7.8h3.5c.6 0 1-.4 1.1-1l2.1-13.4c.1-.5-.2-.9-.6-.9zm-5.5 7.6c-.4 2.2-2.1 3.7-4.4 3.7-1.1 0-2-.4-2.6-1.1-.6-.7-.8-1.7-.6-2.7.4-2.2 2.2-3.8 4.4-3.8 1.1 0 2 .4 2.6 1.1.5.7.8 1.7.6 2.8zM143.3 8.6L140 29.9c-.1.4.3.8.7.8h3.4c.6 0 1-.4 1.1-1l3.3-20.9c.1-.4-.3-.8-.7-.8H144c-.4.1-.7.3-.7.6zm-115.8.5c.4-2.8 0-4.7-1.5-6.4C24.3.8 21.3 0 17.4 0H6.3c-.8 0-1.5.6-1.6 1.4L0 30.9c-.1.6.4 1.1 1 1.1h6.9l-.5 3c-.1.5.3 1 .8 1H14c.7 0 1.3-.5 1.4-1.2l.1-.3 1.1-7 .1-.4c.1-.7.7-1.2 1.4-1.2h.9c5.6 0 10.1-2.3 11.3-8.9.5-2.8.3-5.1-1.2-6.7-.4-.4-1-.8-1.6-1.2z"/>
	<path fill="#012169" d="M27.5 9.1c.4-2.8 0-4.7-1.5-6.4C24.3.8 21.3 0 17.4 0H6.3c-.8 0-1.5.6-1.6 1.4L0 30.9c-.1.6.4 1.1 1 1.1h6.9l1.7-11-.1.3c.1-.8.8-1.4 1.6-1.4h3.3c6.4 0 11.5-2.6 13-10.2 0-.1.1-.3.1-.6z"/>
  	<path fill="#003087" d="M56.1 8.1h-8.2c-.6 0-1 .4-1.1 1L43.5 30c-.1.4.3.8.7.8h3.9c.6 0 1-.4 1.1-1l.9-5.6c.1-.6.6-1 1.1-1h2.6c5.4 0 8.5-2.6 9.3-7.8.4-2.3 0-4-1-5.3-1.2-1.3-3.3-2-6-2zm.9 7.6c-.4 2.9-2.7 2.9-4.8 2.9H51l.9-5.5c.1-.3.3-.6.7-.6h.4c1.5 0 2.9 0 3.6.8.5.6.6 1.4.4 2.4zm23.5-.1h-3.9c-.3 0-.6.2-.7.6l-.2 1.1-.3-.4c-.8-1.2-2.7-1.6-4.6-1.6-4.3 0-8 3.3-8.7 7.9-.4 2.3.2 4.5 1.5 6 1.2 1.4 2.9 2 4.9 2 3.5 0 5.4-2.2 5.4-2.2l-.2 1.1c-.1.4.3.8.7.8h3.5c.6 0 1-.4 1.1-1l2.1-13.4c.1-.5-.2-.9-.6-.9zM75 23.2c-.4 2.2-2.1 3.7-4.4 3.7-1.1 0-2-.4-2.6-1.1-.6-.7-.8-1.7-.6-2.7.4-2.2 2.2-3.8 4.4-3.8 1.1 0 2 .4 2.6 1.1.6.7.8 1.7.6 2.8zM101.3 15.6h-3.9c-.4 0-.7.2-.9.5l-5.4 8-2.3-7.7c-.1-.5-.6-.8-1.1-.8h-3.9c-.5 0-.8.5-.6.9l4.3 12.7-4.1 5.7c-.3.5 0 1.1.6 1.1h3.9c.4 0 .7-.2.9-.5l13.1-18.8c.2-.5-.1-1.1-.6-1.1zM11.5 9.2c.1-.5.4-.9.8-1 .1-.1.3-.2.6-.2h8.8c1 0 2 .1 2.9.2.3 0 .5.1.7.1.2.1.5.1.7.2.1 0 .2.1.3.1.4.1.8.3 1.2.5.4-2.8 0-4.7-1.5-6.4C24.3.8 21.3 0 17.4 0H6.3c-.8 0-1.5.6-1.6 1.4L0 30.9c-.1.6.4 1.1 1 1.1h6.9l1.7-11 1.9-11.8z"/>
</svg>