<svg xmlns="http://www.w3.org/2000/svg" viewBox="0 0 110.6 46">
	<path fill="#333" d="M96.5 6.1c.5 0 1-.1 1.4-.4.3-.3.5-.8.5-1.2h-.5c0 .3-.2.6-.4.9-.1.1-.2.2-.4.2-.1.1-.3.1-.5.1s-.4 0-.6-.1c-.2-.1-.3-.2-.5-.4-.3-.4-.4-.8-.4-1.2s.1-.8.4-1.2c.1-.2.3-.3.5-.4s.4-.1.6-.1c.3 0 .5.1.8.2.2.2.4.4.4.6h.6c0-.2-.1-.4-.2-.6-.1-.2-.2-.3-.4-.5-.4-.2-.8-.4-1.2-.3-.3 0-.5 0-.8.1s-.5.3-.7.5c-.4.4-.5 1-.5 1.5 0 .6.2 1.1.5 1.6.4.5.9.7 1.4.7zM84 8.8v-.4h-2.9v4.1H84V12h-2.3v-1.4h2.2v-.5h-2.2V8.8H84zM64.6 4.3h1.2c1 0 1.4-.4 1.4-1.2 0-.2 0-.3-.1-.5s-.2-.3-.3-.4c-.3-.2-.7-.3-1-.3h-1.7V6h.6l-.1-1.7zm0-1.9l1 .1h.4c.1 0 .2.1.3.1.1.1.2.1.2.2.1.1.1.3.1.4s0 .2-.1.3c0 .1-.1.2-.2.2-.2.1-.5.2-.7.2h-1V2.4zm-7.8 0H59V6h.5V1.9h-3.3V6h.6V2.4zm42.7 5.7c.2 0 .4-.1.6-.2.2-.2.3-.4.3-.6h-.3c0 .1-.1.2-.2.3-.1.1-.2.1-.4.1-.1 0-.3 0-.4-.1-.1-.1-.2-.2-.2-.3h-.3c0 .2.1.4.3.6.2.2.4.2.6.2zM63.4 5.6H61V4.1h2.2v-.4H61V2.4h2.4v-.5h-2.9V6h2.9v-.4zm-2.8 5.5l.7-.7 1.5 2.1h.7L61.7 10l1.7-1.6h-.7l-2.1 2v-2H60v4.1h.6v-1.4zm10.6-6.3c0-.2-.1-.5-.2-.7-.1-.2-.4-.3-.6-.4.2-.1.3-.2.5-.3.1-.2.2-.4.2-.6s0-.3-.1-.4-.2-.3-.3-.3c-.3-.2-.6-.3-1-.2h-1.8V6h1.7c1 0 1.6-.4 1.6-1.2zm-2.8-2.3h1.7c.1 0 .2 0 .2.1.1 0 .1.1.1.2v.3c0 .1 0 .2-.1.3 0 .1-.1.1-.2.2-.1 0-.2.1-.2.1h-1.6l.1-1.2zm0 1.6H70c.1 0 .2 0 .3.1l.2.1c.1.1.1.1.1.2v.3c0 .1 0 .2-.1.4 0 .1-.1.2-.2.2-.1.1-.2.1-.3.1h-1.7l.1-1.4zm28 4.3h.5v4.2h-.5V8.4zm-19 0h-.5v4.1h.5v-1.9h2.2v1.9h.6V8.4h-.6v1.7h-2.2V8.4zm3.1-4.1h1.2c1 0 1.4-.4 1.4-1.2 0-.2 0-.3-.1-.5s-.2-.3-.3-.4c-.3-.2-.7-.3-1-.3H80V6h.5V4.3zm0-1.9l1 .1h.4c.1 0 .2.1.3.1.1 0 .2.1.2.2.1.1.1.3.1.4s0 .2-.1.3c0 .1-.1.2-.2.2-.2.1-.4.2-.7.2h-1V2.4zM83.4 6l.5-1.3h1.8l.5 1.3h.6c.1 0 .2.1.3.1s.3 0 .4-.1l.3-.3c.2-.3.3-.7.3-1l.1-2.3h1.6V6h.5V1.9l-2.7.1-.1 2.5c0 .3 0 .5-.1.8 0 .1-.1.2-.2.3-.1.1-.2.1-.3.1s-.2 0-.3-.1v.3l-1.6-4h-.6L82.8 6h.6zm1.3-3.6l.7 1.9H84l.7-1.9zm-7.4 2.7c-.2.4-.4.6-.6.6s-.3 0-.5-.1V6c.2.1.3.1.5.1s.4-.1.6-.2c.2-.2.4-.5.5-.7l1.6-3.3h-.6l-1.2 2.5-1.2-2.5h-.6l1.5 3.2c0-.1 0 0 0 0zm-5.2.4c.2.2.4.4.6.5.3.1.6.2.9.2s.6 0 .8-.1c.3-.1.5-.3.7-.5.4-.4.5-1 .5-1.6s-.2-1.1-.5-1.5c-.2-.2-.4-.4-.7-.5-.3-.1-.5-.1-.8-.1s-.5 0-.8.1c-.3.1-.5.2-.7.4-.4.4-.6 1-.5 1.5 0 .3 0 .6.1.9.1.2.3.5.4.7zm.5-2.7c.1-.2.3-.3.5-.4s.4-.1.6-.1.4 0 .6.1.3.2.5.4c.3.3.4.8.4 1.2 0 .4-.1.9-.4 1.2-.1.2-.3.3-.5.4s-.4.1-.6.1-.4 0-.6-.1-.3-.2-.5-.4c-.3-.4-.4-.8-.4-1.3 0-.4.1-.8.4-1.1zM93.4 6c.2-.1.3-.1.4-.3.1-.1.2-.3.3-.4.1-.2.1-.3.1-.5s0-.3-.1-.5-.2-.3-.3-.4c-.1-.1-.3-.2-.4-.3-.2-.1-.3-.1-.5-.1h-1.3V1.9H91V6h2.4zm-1.7-.4V4h1c.6 0 .9.3.9.8s-.3.8-1 .8h-.9zm-20.2 6.9V8.4h-.7l-2.1 3.5V8.4h-.5v4.1h.6L70.9 9v3.5h.6zm21.8-4.1h-.6v4.2h1.8c.2 0 .3 0 .5-.1s.3-.1.4-.3c.1-.1.2-.3.3-.4.1-.2.1-.3.1-.5v-.1c0-.2 0-.3-.1-.5 0-.2-.1-.3-.2-.4-.1-.1-.3-.2-.4-.3-.2-.1-.3-.1-.5-.1h-1.3V8.4zm1.1 2.2c.6 0 .9.3.9.7 0 .5-.3.7-.9.8h-1v-1.5h1zm13.9-9.2c.2.2.4.2.6.2h.3c.1 0 .2-.1.3-.2.2-.2.3-.4.3-.6h-.3c0 .1-.1.2-.2.3-.1.1-.2.1-.4.1-.1 0-.3 0-.4-.1-.1-.1-.2-.2-.2-.3h-.3c0 .1 0 .2.1.3s.1.2.2.3zM92.2 18.3c-.1.1-.2.2-.4.2-.1.1-.3.1-.5.1s-.4 0-.6-.1c-.2-.1-.3-.2-.5-.4-.3-.4-.4-.8-.4-1.2 0-.4.1-.8.4-1.2.1-.2.3-.3.5-.4s.4-.1.6-.1c.3 0 .5.1.8.2.2.2.4.4.4.6h.6c0-.2-.1-.4-.2-.6-.1-.2-.2-.3-.4-.4-.3-.2-.7-.4-1.2-.4-.3 0-.5 0-.8.1s-.5.3-.7.5c-.4.4-.5 1-.5 1.5 0 .6.2 1.1.5 1.6.4.3.8.6 1.3.6s1-.1 1.4-.4c.3-.3.5-.8.5-1.2h-.5c.1.4 0 .7-.3 1zm5-3.5h-.7l-2.1 2.1v-2.1h-.6V19h.6v-1.5l.7-.6 1.5 2.1h.7l-1.9-2.5 1.8-1.7zm-6-2.2h.6V8.4h-.6v1.7h-2.1V8.4h-.6v4.1h.6v-1.9h2.1v2zm-34.4-1.4h1.8l.5 1.3h.6l-1.6-4.2h-.6l-1.6 4.2h.6l.3-1.3zm.9-2.3l.7 1.9H57l.7-1.9zM86.6 17h2.2v-.4h-2.2v-1.3h2.3v-.5H86V19h2.9v-.5h-2.3V17zm1.3-7.4c0-.2 0-.3-.1-.5s-.2-.3-.3-.4c-.3-.2-.7-.3-1-.3h-1.7v4.2h.6v-1.7h1.2c.8-.1 1.3-.5 1.3-1.3zm-2.6.7V8.8h1.4c.1 0 .2.1.3.1s.2.1.2.2c.1.1.1.3.1.4v.3c0 .1-.1.2-.2.3-.2.1-.5.2-.7.2h-1.1zm18.7 4.2c.1 0 .2-.1.3-.2.2-.2.3-.4.3-.6h-.3c0 .1-.1.2-.2.3-.1.1-.2.1-.4.1-.1 0-.3 0-.4-.1-.1-.1-.2-.2-.2-.3h-.3c0 .2.1.4.3.6.2.2.4.2.6.2 0 .1.2.1.3 0zm-19.5.3v1.8c-.4.1-.8.1-1.1.1-.1 0-.3 0-.4-.1-.1 0-.2-.1-.3-.1-.1-.1-.1-.1-.1-.2s-.1-.1-.1-.2v-1.3H82v1.5c0 .1.1.2.1.3.1.1.1.2.2.3.1.1.3.2.4.2.2.1.4.1.6.1.4 0 .8-.1 1.2-.1V19h.6v-4.1h-.6v-.1zm19.1-9.4V1.9h-.6V6h.7l2.1-3.5V6h.6V1.9h-.7l-2.1 3.5zm6.3-3.5l-2.1 3.5V1.9h-.5V6h.7l2.1-3.5V6h.5V1.9h-.7zm-7.4 16.4v-3.5h-.5V19h.6l2.1-3.5V19h.6v-4.2h-.7l-2.1 3.5zm-4.1-6.4V8.4h-.5v4.1h.7l2.1-3.5v3.5h.5V8.4h-.7l-2.1 3.5zm2.3-8.4l1.8-1.6h-.7L99.7 4V1.9h-.6v4.2h.6V4.6l.7-.7 1.5 2.1h.7l-1.9-2.5zm-2.4 14.8v-3.5h-.6V19h.7l2.1-3.5V19h.6v-4.2h-.7l-2.1 3.5zm-35.7-3.4c-.3-.1-.5-.1-.8-.1s-.5 0-.8.1c-.2.1-.5.3-.7.4-.4.4-.6 1-.5 1.5 0 .3 0 .6.1.9s.2.5.4.7c.2.2.4.4.6.5.3.1.6.2.9.2s.6 0 .8-.1c.3-.1.5-.3.7-.5.4-.4.5-1 .5-1.6s-.2-1.1-.5-1.5c-.2-.3-.4-.4-.7-.5zm.3 3.2c-.1.2-.3.3-.5.4s-.4.1-.6.1-.4 0-.6-.1-.3-.2-.5-.4c-.3-.4-.4-.8-.4-1.2 0-.4.1-.9.4-1.2.1-.2.3-.3.5-.4s.4-.1.6-.1.4 0 .6.1.3.2.5.3c.3.4.4.8.4 1.3s-.2.9-.4 1.2zm3.9 4.9h-2.2v-1.7H64v4.1h.6v-1.9h2.2v2h.6v-4.2h-.6V23zm-5.4-1.7l-1.6 4.2h.6l.5-1.3h1.7l.5 1.3h.6l-1.6-4.2h-.7zm-.4 2.5l.7-1.9.7 1.9H61zm6.1-10.2h.5V12h-.5V8.4h-.4V12h-2.2V8.4H64v4.1h3.1v1.1zm14 1.5c-.3-.2-.7-.3-1-.3h-1.7v4.1h.6v-1.7h1.2c.9 0 1.4-.4 1.4-1.2 0-.2 0-.3-.1-.5-.2-.1-.3-.3-.4-.4zm-.3 1.3c0 .1-.1.2-.2.3-.2.1-.5.2-.7.2h-1v-1.5h1.3c.1 0 .2 0 .3.1.1 0 .2.1.2.2.1.1.1.3.1.4.1.1.1.2 0 .3zm-21.2-1.6h-.7l-2.1 2.1v-2.1h-.6V19h.6v-1.5l.7-.6L59 19h.7l-1.8-2.5 1.7-1.7zm-.5 8.5c-.3-.2-.6-.3-.9-.3h-1.4v-1.2h2.3v-.5h-2.9v4.2h1.9c.2 0 .3 0 .5-.1s.3-.1.4-.3c.1-.1.2-.3.3-.4s.1-.3.1-.5 0-.3-.1-.5c0-.1-.1-.3-.2-.4zM58 25h-1.2v-1.5H58c.6 0 .9.2.9.8h.1c-.1.4-.4.7-1 .7zm16.7-6h2.9v-.5h-2.3v-1.4h2.2v-.5h-2.2v-1.3h2.3v-.5h-2.9V19zm-6 0v-4.2h-.8l-1.3 3.5-1.3-3.5h-.8V19h.5v-3.5l1.4 3.5h.5l1.3-3.5V19h.5zm7-7c.4-.4.5-1 .5-1.6s-.2-1.1-.5-1.6c-.2-.2-.4-.4-.7-.5-.3-.1-.5-.1-.8-.1s-.5 0-.8.2c-.3.1-.5.3-.7.5-.4.4-.6 1-.5 1.5 0 .3 0 .6.1.9.1.3.2.5.4.7.2.2.4.4.6.5.3.1.6.2.9.2s.6 0 .8-.1c.3-.2.5-.4.7-.6zm-1.5.1c-.2 0-.4 0-.6-.1s-.3-.2-.5-.3c-.3-.4-.4-.8-.4-1.2s.1-.9.4-1.2c.1-.2.3-.3.5-.4.2-.1.4-.1.6-.1s.4 0 .6.1.3.2.5.4c.3.3.4.8.4 1.2s-.1.9-.4 1.2c-.1.1-.3.3-.5.3-.2.1-.4.1-.6.1zm-2.5 6.2l-1.3-3.5h-.8V19h.5v-3.5l1.4 3.5h.5l1.3-3.5V19h.5v-4.2H73l-1.3 3.5zm0 3h-.8l-2.1 2.1v-2.1h-.5v4.2h.5V24l.7-.6 1.5 2h.7L69.9 23l1.8-1.7z"/>
	<path fill="#19b5ff" d="M51.6 22.2c-.3-1.3-1-2.5-1.9-3.5-1.1 1.4-2.6 2.5-4.4 2.9v.1c.6.8.9 1.8.8 2.8.1.8-.1 1.5-.4 2.2s-.8 1.3-1.5 1.7c-1.8 1.2-4.6 1.3-5.9 1.3H32V19.4h6.2c5.6 0 11.9-2.6 11.9-9.9C50.4-.1 39.3 0 38 0H27.2c-.3 0-.5.1-.7.3s-.3.4-.3.7v33.1c0 .1 0 .2.1.3s.1.2.2.3.2.1.3.2c.1 0 .2.1.4 0h11.9c1.8 0 3.7-.2 5.5-.7 1.4-.4 2.8-1.1 4-2 1.1-.9 1.9-2 2.5-3.2.6-1.4.9-2.9.9-4.4-.1-.8-.2-1.6-.4-2.4zM32.1 5.1h5.5c1.8-.1 3.5.3 5.1 1.1.6.4 1 .9 1.3 1.5s.4 1.3.4 2-.1 1.4-.4 2-.7 1.1-1.3 1.5c-1.6 1-3.2 1.1-5.1 1.1h-5.5V5.1zM.6 34.9c.1 0 .2.1.4.1h4c.1 0 .3 0 .4-.1.1 0 .2-.1.3-.2.2-.2.3-.4.3-.7V22.2h5c1.9 0 3.7-.2 5.5-.7 1.5-.4 2.9-1.2 4.2-2.1 1.2-.9 2.1-2.1 2.7-3.5.7-1.5 1-3.1.9-4.8 0-1.6-.3-3.2-.9-4.7-.6-1.4-1.5-2.6-2.7-3.5-1.2-1-2.7-1.7-4.2-2.1C14.7.2 12.9 0 11 0H.9C.8 0 .6 0 .5.1.4.2.3.2.2.3.1.5 0 .7 0 1v33c0 .2.1.5.3.7.1 0 .2.1.3.2zM5.9 5.1h4.6c2.6 0 4.6.5 5.9 1.4 1.3.9 1.9 2.5 1.9 4.6s-.7 3.6-1.9 4.6c-1.3 1-3.3 1.4-5.9 1.4H5.9v-12zM48.8 38L.3 37.9c-.2 0-.3.1-.3.3s.1.3.3.3L48.5 46h.1s.1 0 .1-.1l.1-.1v-7.6-.2z"/>
</svg>