<svg xmlns="http://www.w3.org/2000/svg" viewBox="0 0 144.7 44">
	<path fill="#e96b29" d="M42.2 20.1c0-.7.8-1.5 1.5-1.5h4.4c.7 0 1.2.5 1.5 1l.1 1.2V27c0 .8.1 1-.3 1.2-.2.2-.5.2-1.1.2h-5.5c-.8 0-.6-.4-.6-1.1v-7.2zM35.9 25h2.3c.7 0 .7.3.7.6.1 1.3.1 3.3.6 4.3.3.7.9 1.1 1.4 1.4.6.3 1.1.5 1.9.5h6.5c2.5 0 4.1-2.4 4.1-5v-7.4c0-.7-.4-1.7-.7-2.1-.4-.6-.8-1.3-1.9-1.8-.4-.2-1-.2-1.6-.2h-6.1c-1.4 0-2.1.1-3.1 1.3-.5.6-1.2 1.6-1.1 3 0 .7.1 2-.2 2l-2.3.1c-.5 0-.8.1-.8-.3V16c0-.4-.5-.5-.9-.5H33c-.4 0-.9.1-.9.5v15c0 .4.5.5.9.5h1.7c.7 0 .9-.2.9-.9 0-1.7 0-3.4.1-5.1 0-.4.1-.5.2-.5zm22.3-4.7c0-.9.3-1.1 1.4-1.3.4-.1 2 0 2.6 0 1.1 0 4.7.4 4.7-.6V16c0-.4-.5-.5-.9-.5h-5.9c-3.4 0-5.4 1.6-5.4 5v6.1c0 2.3 1 5 4.2 4.9h7.3c.2 0 .6-.3.6-.6v-2.4c0-.3-.2-.4-.4-.5h-5.1c-1.9 0-3.2.2-3.2-1.8.1 0 .1-5.9.1-5.9zm-36.5 1c.2-.8.4-2.7 1.4-2.7.7 0 1.4 2.3 1.6 2.9.2.7 1.3 4.5 1.6 5.3.3.9.5 1.8.8 2.6.3.8.4 2 1.5 2h1.9c.3 0 .4-.1.7-.1.1-.2.1-.2.1-.5 0-.1-2.5-7.8-2.7-8.4-.4-1-1.1-3.1-1.4-4.1-.4-1.2-1-3.1-2.3-3.1h-2.1c-2-.1-1.9.3-2.5 1.4-.4.8-.6 1.4-1 2.1-.7 1.6-1.3 3.5-1.8 5.2-.6 1.8-1.9 5.5-2.1 7.3.2.1.2.2.4.2h2.6c.8 0 1.7-3.5 1.9-4.5-.2.1 1.4-5.6 1.4-5.6zM3.5 19c0-.2.3-.2.7-.2h6c.5 0 .7.2.7.6v11.7c.3.2.4.3.9.3h1.9c.3 0 .7-.2.7-.5V16c0-.2-.3-.5-.5-.5H.5c-.2 0-.5.2-.5.5v14.9c0 .3 0 .3.1.5.2.1.2.1.5.1h2.1c.5 0 .4-.2.8-.3V19z"/>
	<path fill="#344a94" d="M129.2 15.9c0-.2-.4-.4-.7-.4h-2.4c-.7 0-.7 1-1 1.4-.3 1.1-.4 3-1.4 3.7-.9.6-1.6.8-3 .8h-1.4c-.8 0-.9-.6-.9-1.4v-4.2c0-.3 0-.4-.2-.4h-2.6c-.4 0-.5.1-.5.3v15.4c.1.3.1.4.8.4h2.1c.3 0 .6-.2.6-.5v-5.8c0-.3.3-.4.6-.4h2.4c1.1 0 2.6.9 3.1 1.9.2.5.5 1.1.6 1.7.2 1 .5 3 1.6 3h2.4c.2 0 .3-.1.3-.3 0-1.1-.9-3.8-1.3-4.8-.6-1.6-.9-3-2.8-3.2V23c.2 0 1.2-.6 1.3-.8.2-.2.8-.9.9-1.2.4-.8 1.5-4 1.5-5.1zm-57.5 9.5c0-.3-.1-.5.3-.6h4.2c2.2 0 2.1-.3 2.1 1.2v.9c0 .5.1 1.1-.8 1.1h-4.8c-.9.1-.9-.3-1-1v-1.6zm8.5-6.6c.4 0 .3-.4.3-.9v-2c0-.2-.3-.5-.5-.5H68.7c-.4 0-.5.5-.5.9v14.6c0 .2.3.5.5.5H78c1.4 0 2.3-.7 2.8-1.2.5-.6 1-1.8 1-2.9v-1.8c-.1-5-5-4.1-10-4.1 0-.7-.1-1.7-.1-2.6h8.5zm7.5 5.7c0-1 1.7-5.5 2.2-5.9.2-.2.5-.1.5.1.1.2 1.5 4.1 1.7 5.6 0 .3.1.6-.3.6h-3.7c-.2 0-.4-.2-.4-.4zm-2.9 7c1.6 0 .8-3.2 2.2-3.2h6.2c.3 0 .5.3.6.5.3 1 .5 2.6 1.5 2.6h2.2c.3 0 .4-.3.4-.6v-.2c0-.8-2.4-7.5-2.8-8.7-.8-2.5-1.5-6.8-4.7-6.8-1.5 0-2.7.3-3.7 1.6-.5.7-.9 2.4-1.2 3.4-.4 1.2-.8 2.3-1.2 3.5-.7 2-2 5.4-2.4 7.4v.2c0 .2.2.4.4.4.1-.1 2.5-.1 2.5-.1zM102.2 31v-3.5c0-1.1-.3-2.7.8-2.7h5.9c.4 0 .8.2.8.6V31c0 .3.4.3.9.3h1.8c.5 0 .8 0 .8-.6V15.8c0-.2-.1-.3-.5-.3h-2.2c-.4 0-.8 0-.8.5v4.7c0 .5-.2.8-.8.8H103c-1 0-.8-1.3-.8-2.4v-3.2c0-.2-.2-.4-.5-.4H99c-.3 0-.3.1-.3.5v14.8c0 .2-.1.8.7.8h2.2c.8-.1.6-.4.6-.6zM73 40.7c0 .3 0 .5-.1.7-.1.2-.2.4-.4.6-.2.2-.4.3-.7.4-.3.1-.6.1-1.1.1h-1.5c-.1 0-.2 0-.3-.1-.1-.1-.1-.2-.1-.3v-5c0-.1 0-.2.1-.3.1-.1.1-.1.2-.1h3.4l.1.1v.6s0 .1-.1.1H70v1.4h1c.4 0 .7 0 .9.1l.6.3c.2.1.3.3.4.5 0 .4.1.6.1.9zm-1.2.1c0-.1 0-.2-.1-.3 0-.1-.1-.2-.2-.3s-.1-.2-.3-.2c-.1 0-.3-.1-.5-.1H70v1.7h.8c.2 0 .3 0 .5-.1.1 0 .2-.1.3-.2.1-.1.1-.2.2-.3v-.2zm4.8.1c-.1.3-.3.6-.4.8-.1.2-.3.4-.4.5-.1.1-.3.2-.5.3-.2 0-.4.1-.6.1h-.4c-.1 0-.1 0-.2-.1-.1 0-.1 0-.1-.1l-.1-.1v-.1-.2-.2-.4c0-.1.1-.1.1-.1h.1s.1 0 .1.1c0 0 .1 0 .2.1h.4c.1 0 .1 0 .2-.1 0 0 .1-.1.1-.2s.1-.2.2-.3L73.4 37c0-.1-.1-.2-.1-.2v-.1s.1-.1.2-.1h.8c.1 0 .1 0 .1.1l.1.1.8 1.7.3.6c.1.2.2.4.2.6.1-.2.1-.4.2-.6.1-.2.1-.4.2-.6l.7-1.8s0-.1.1-.1c0 0 .1 0 .1-.1h.8c.1 0 .1 0 .2.1 0 0 .1.1 0 .1v.2c.1.1-1.5 4-1.5 4zm7.1 2.9c0 .1 0 .1 0 0 0 .1-.1.1-.1.1h-.7-.2s-.1 0-.1-.1v-1.5h-3.8v1.5l-.1.1c-.1.1-.1 0-.2 0H77.9s-.1 0-.1-.1v-2.2-.2s.1-.1.2-.1h.3c.1-.1.1-.2.2-.3.1-.1.1-.2.2-.4.1-.1.1-.3.2-.5s.1-.5.2-.7c.1-.3.1-.6.2-1s.1-.9.2-1.4c0-.1.1-.2.1-.3.1-.1.1-.1.2-.1h2.9c.1 0 .2 0 .2.1.1.1.1.2.1.3v4.4h.5c.1 0 .1 0 .2.1V43.8zm-1.9-6.2h-1.3c-.1.5-.1.8-.2 1.2-.1.3-.1.6-.2.9 0 .3-.1.5-.1.7-.1.2-.1.3-.2.5-.1.1-.1.3-.2.4-.1.1-.1.2-.2.3h2.3c.1-.1.1-4 .1-4zm7.1 3c0 .3 0 .5-.1.8-.1.2-.2.4-.4.6-.2.2-.4.3-.7.4-.3.1-.7.2-1.2.2h-1.6s-.1 0-.1-.1l-.1-.1v-5.5-.1s.1 0 .1-.1h1c.1 0 .1 0 .1.1v2.1h.8c.4 0 .8 0 1 .1.3.1.5.2.7.3.2.1.3.3.4.5 0 .2.1.5.1.8zm-1.2.1c0-.1 0-.3-.1-.4 0-.1-.1-.2-.2-.3-.1-.1-.2-.1-.3-.2s-.3-.1-.6-.1h-.7v1.8h.7c.3 0 .5 0 .6-.1.1-.1.2-.1.3-.2.1-.1.1-.2.2-.3 0 0 .1-.1.1-.2zm8.2 0c0 .2 0 .4-.1.6-.1.2-.1.3-.2.4-.1.1-.2.2-.4.3-.1.1-.3.2-.5.2-.2.1-.3.1-.5.1h-2.1c-.1 0-.2 0-.2-.1-.1-.1-.1-.2-.1-.3v-5c0-.1 0-.2.1-.3.1-.1.2-.1.2-.1h1.4c.4 0 .7 0 .9.1.2.1.5.2.6.3.2.1.3.3.4.5.1.2.1.4.1.7 0 .1 0 .3-.1.4 0 .1-.1.2-.2.3l-.3.3c-.1.1-.2.1-.3.2.2 0 .3.1.5.2.1.1.3.2.4.3.1.1.2.3.2.4.2.2.2.3.2.5zm-1.5-2.4c0-.1 0-.2-.1-.3 0-.1-.1-.2-.2-.2-.1-.1-.2-.1-.3-.1h-1v1.5h.7c.2 0 .3 0 .4-.1.1 0 .2-.1.3-.2.1-.1.1-.2.2-.2v-.4zm.3 2.5c0-.1 0-.3-.1-.4 0-.1-.1-.2-.2-.3-.1-.1-.2-.1-.3-.2-.1 0-.3-.1-.5-.1h-.7v1.6h.8c.2 0 .3 0 .4-.1.1 0 .2-.1.3-.2l.2-.2c.1.1.1 0 .1-.1zm8.7 1.5c0 .1 0 .1 0 0 0 .1-.1.1-.1.1h-1s-.1 0-.1-.1V37.6h-2.1V42.3s-.1 0-.1.1h-1s-.1 0-.1-.1V36.9c0-.1 0-.2.1-.3.1-.1.1-.1.2-.1h3.8c.1 0 .2 0 .3.1.1.1.1.2.1.3v5.4zm5.9 0c0 .1 0 .1 0 0 0 .1-.1.1-.1.1h-1s-.1 0-.1-.1v-4.8h-1.2c-.1.7-.2 1.3-.3 1.8-.1.5-.2.9-.3 1.3-.1.4-.2.7-.3.9-.1.2-.3.4-.4.6-.1.1-.3.2-.5.3-.2.1-.4.1-.6.1h-.1s-.1 0-.1-.1v-.1-.2-.3-.2s0-.1.1-.1h.1c.1 0 .2 0 .3-.1.1 0 .2-.1.2-.2.1-.1.2-.3.2-.5.1-.2.1-.5.2-.8.1-.3.1-.7.2-1.2s.1-1 .2-1.7c0-.2.1-.3.1-.3.1-.1.1-.1.2-.1h2.8c.1 0 .2 0 .2.1.1.1.1.2.1.3l.1 5.3zm8.7-2.8c0 .5-.1.9-.2 1.3s-.3.7-.5 1c-.2.3-.5.5-.8.6-.3.1-.7.2-1.2.2-.4 0-.8-.1-1.1-.2-.3-.1-.6-.3-.8-.5-.2-.2-.4-.5-.5-.8-.1-.3-.2-.7-.2-1.1h-.9v2.5s-.1 0-.1.1-.1 0-.2 0h-.8s-.1 0-.1-.1v-5.6-.1s.1 0 .1-.1h1c.1 0 .1 0 .1.1V39h.9c0-.4.1-.7.3-1 .1-.3.3-.6.5-.8.2-.2.5-.4.8-.5.3-.1.7-.2 1.1-.2.4 0 .8.1 1.1.2.3.1.6.3.8.5.2.2.4.5.5.9.2.5.2.9.2 1.4zm-1.2.1c0-.3 0-.6-.1-.8s-.1-.5-.2-.6c-.1-.2-.3-.3-.4-.4-.2-.1-.4-.2-.7-.2-.3 0-.5.1-.7.2s-.3.3-.4.4c-.1.2-.2.4-.2.6 0 .2-.1.5-.1.8v.6c0 .2 0 .3.1.5 0 .2.1.3.2.4l.3.3c.1.1.2.2.4.2.1 0 .3.1.5.1.3 0 .5-.1.7-.2.2-.1.3-.2.4-.4.1-.2.2-.4.2-.6v-.9zm6.3 2v.4s0 .1-.1.1c0 0-.1.1-.2.1-.1.1-.2.1-.3.2-.1 0-.3.1-.5.1h-.6c-.4 0-.8-.1-1.1-.2-.3-.1-.6-.3-.8-.5-.2-.2-.4-.5-.5-.9-.1-.4-.2-.8-.2-1.3s.1-.9.2-1.3.3-.7.5-1c.2-.3.5-.5.8-.6.3-.1.7-.2 1.1-.2h.5c.1 0 .3.1.4.1.1 0 .2.1.3.1.1.1.2.1.2.1l.1.1v.8s0 .1-.1.1h-.1s-.1 0-.2-.1-.2-.1-.3-.2c-.1-.1-.2-.1-.4-.2-.1-.1-.3-.1-.5-.1s-.4 0-.6.1-.3.2-.5.4l-.3.6c-.1.2-.1.5-.1.8 0 .3 0 .6.1.9.1.2.2.5.3.6.1.2.3.3.5.4.2.1.4.1.6.1.2 0 .4 0 .5-.1.2 0 .3-.1.4-.2s.2-.1.3-.2c.1 0 .1-.1.2-.1h.1V40.8c.3.6.3.7.3.8zm4.4.4V42.3s0 .1-.1.1h-3c-.1 0-.2 0-.2-.1-.1-.1-.1-.2-.1-.3v-5c0-.1 0-.2.1-.3.1-.1.1-.1.2-.1h3l.1.1v.6s0 .1-.1.1h-2.2V39h1.8l.1.1v.6s0 .1-.1.1h-1.8v1.6h2.2l.1.1v.5zm2.8-.1v.3c0 .1-.1.1-.1.2s-.1.1-.2.1h-.6c-.1 0-.1-.1-.2-.1 0-.1-.1-.1-.1-.2v-.3-.3c0-.1.1-.2.1-.2 0-.1.1-.1.2-.1h.6c.1 0 .1.1.2.1 0 .1.1.1.1.2v.3zm-.1-1.3c0 .1-.1.1-.1.1H129.5h-.1s-.1 0-.1-.1v-.1l-.1-4v-.1l.1-.1h1s.1 0 .1.1v.1l-.2 4.1z"/>
	<g fill="#ef7f1a">
		<path d="M144.5 8.2c-.3.2-1 0-2.7.1h-2.9c-.6 0-.6-1.6 0-1.6 1.5-.1 3.1 0 4.2 0-.3-1.9-1.7-3.8-3.4-4.5-1.9-.7-3.7-.3-4.9.4-.9.5-1.5 1.3-2.4 1.3-.3 0-.7-.1-.7-.8 0-.7 2.8-3 5.6-3 4 0 7.3 2.8 7.5 6.6-.1.4 0 1.3-.3 1.5z"/>
		<path d="M130.3 6.7c.3-.2 1 0 2.7-.1h2.9c.6 0 .6 1.6 0 1.6-1.5.1-3.1 0-4.2 0 .3 1.9 1.7 3.8 3.4 4.5 1.9.7 3.7.3 4.9-.4.9-.5 1.5-1.3 2.4-1.3.3 0 .7.1.7.8 0 .7-2.8 3-5.6 3-4 0-7.3-2.8-7.5-6.6.1-.5-.1-1.4.3-1.5zm7.1-3.8c.5 0 .8.4.8.8v1.8c0 .5-.4.8-.8.8s-.8-.4-.8-.8V3.8c-.1-.5.3-.9.8-.9z"/>
		<path d="M137.4 8.6c.5 0 .8.4.8.8v1.8c0 .5-.4.8-.8.8s-.8-.4-.8-.8V9.5c-.1-.5.3-.9.8-.9z"/>
	</g>
</svg>