<svg xmlns="http://www.w3.org/2000/svg" viewBox="0 0 170 36.5">
	<path fill="#c11f3e" d="M13.6 19.5c0 2.6-2.3 5.3-6.2 5.3-1.2 0-2.2-.1-3.7-.1H.2c-.2-.4-.2-.9-.2-1.4.7-.1 1.4-.2 2.1-.4.1-.4.1-1 .1-1.5v-7.5c0-1.4 0-2.4-.1-3.3-.7-.2-1.4-.4-2.1-.4 0-.5 0-1 .2-1.5H12l.2.2c0 1.6 0 2.8-.3 4.1-.7.1-1.2.1-1.8 0 0-.7-.2-1.6-.4-2.3H5.2v4.7c1-.2 2-.2 3-.2 3.3.1 5.4 2 5.4 4.3zm-6.9 3.3c1.8 0 2.6-.3 2.8-.4.5-.4.9-1.2.9-2.3 0-1.7-1.4-2.7-3.6-2.7-.6 0-1.1 0-1.7.1v5.4c.1-.1 1.6-.1 1.6-.1zM21 17.3c0-1.6-.4-2.7-1.7-2.7-.5 0-1.1 0-1.7.1-.2.6-.2 1.2-.2 1.9-.6.3-1.2.4-1.9.3-.4-.7-.7-1.7-.7-2.8 1.3-.8 3.1-1.3 4.9-1.3 1.5 0 4.1.5 4.1 3.9v4.4c0 .5 0 1.2.1 1.8.5-.1 1.1-.2 1.5-.3.3.2.4.6.4 1-.8.8-2.1 1.5-3.3 1.5-.6 0-1.1-.7-1.5-1.7-1.2 1-2.6 1.7-3.7 1.7-2 0-3.2-1.1-3.2-3 .3-2.7 4.1-4.2 6.9-4.8zm0 4.7v-2.7c-1.5.2-2.9.5-3.1.7-.3.3-.5.9-.5 1.3 0 .8.5 1.5 1.6 1.5.6 0 1.4-.3 2-.8zm17.5-.8c0 .7 0 1.2.1 1.8.7.1 1.4.2 1.8.4 0 .4 0 1.1-.1 1.4H34c-.1-.4-.2-1-.2-1.4.6-.1 1.2-.2 1.9-.4.1-.4.1-.9.1-1.3v-1.9c-1.2-.1-2.4-.1-3.6-.1h-1.4v1.4c0 .7 0 1.2.1 1.8.6.1 1.3.2 1.7.4 0 .4 0 1.1-.1 1.4h-6.4c-.1-.4-.2-1-.2-1.4.6-.1 1.3-.2 1.9-.4.1-.4.1-.9.1-1.3v-5.2c0-.4 0-.9-.1-1.3-.7-.2-1.3-.4-1.9-.4 0-.4 0-1 .2-1.4h6.4c.1.4.1.9.1 1.4-.5.2-1.1.4-1.7.4 0 .5-.1 1.2-.1 1.8V18h4.9v-1.5c0-.4 0-.9-.1-1.3-.6-.2-1.2-.4-1.9-.4 0-.4 0-1 .2-1.4h6.4c.1.4.1.9.1 1.4-.5.2-1.1.4-1.8.4 0 .5-.1 1.2-.1 1.8v4.2zm7.6-3.1h.4c.9 0 1.7-.1 1.9-.4 1.1-1.6 1.3-4.7 3.3-4.7.9 0 1.8.4 2.5.8.1.6-.1 1.3-.5 1.8-.7-.1-1.3-.1-1.9-.1l-1.5 3c.7 1.4 1.7 2.9 2.3 3.6.6.7 1.1.8 1.8.8.2 0 .4 0 .7-.1.2.4.3.8.2 1.2-.5.3-2 .7-3.4.7-1.3 0-2.7-2.2-3.8-5.2h-1.9v1.3c0 .7 0 1.2.1 1.8.6.1 1.3.2 1.8.4 0 .4 0 1.1-.1 1.4h-6.4c-.1-.4-.2-1-.2-1.4.6-.1 1.3-.2 1.9-.4.1-.4.1-.9.1-1.3v-5.1c0-.4 0-.9-.1-1.3-.7-.2-1.3-.4-1.9-.4 0-.4 0-1 .2-1.4h6.5c.1.4.1.9.1 1.4-.5.2-1.1.4-1.8.4 0 .5-.1 1.2-.1 1.8l-.2 1.4zM169.7 6.3c-.5 1.5-3.4 9-3.8 9.8-.3.7-.8 1.5-1.8 1.1-.9-.3-.9-1.6-.8-2.2.1-.8.5-2.3.9-3.4.5-1.5 1-2.9 1.4-4.3.5-1.6.4-3.3 2.5-4 1.5-.5 2.4.8 1.6 3zm-7.5 14.4c-1.1.4-2.1 1.6-2.1 3 0 .8.5 1.3 1 1.5.7.3 1.3.1 1.9-.3.6-.5 1.2-1.5 1.3-2.4-.1-1.2-.7-2.3-2.1-1.8zm-4.6-.1c.6.8-.1 2.1-1.2 3-1.7 1.3-3.8 1.9-5.1 2-3.9.2-3.9-3-3.9-3s-2.2 2.6-4.6 2.6c-1.3 0-2.3-1.3-2.3-1.3s-1.5 2.6-4.1 2.2c-1.8-.3-2.8-2.3-2.8-3.9 0-.4 0-.7.1-1-.5.2-1.1.4-1.7.4-1.2.2-2.8.2-3.6.2h-.3c0 .2.1.9.8 1.2.4.2 1 .3 1.5.4.6.1 1.1.2 1.4.4.4.3.7.8.8 1.4 0 .5-.1.9-.4 1.2-.4.4-1.3.7-2.3.7-.7 0-2-.1-3.2-.9-.7-.4-1.6-1.5-1.9-3.4v.8c0 1.1-.1 4.1-.4 7.3-.4 3.2-1.4 6.2-4.1 5.5-2-.5-3.2-2.7-3-6 .1-1.9.9-4.2 1.7-5.7.3-.7.9-1.7.9-1.7s-1.5 1.1-3.8.9c-.6-.1-1.1-.3-1.5-.5.4.8.6 1.8-.3 2.6-.9.9-2.2.4-2.5.2-.8-.5-1.3-1.1-1.8-1.9-.5-.7-1.1-2.5-1.1-2.5s-1 1-1.8 1.7c-1.1 1-2.8 2.2-3.9 2.2s-1.7-.7-2.1-1.4c-.4-.7-.5-1.7-.5-1.7s-.9 2.5-2.5 4c-1.1 1-2.4 1.4-3.8 1.1-1.9-.4-2.7-1.9-3.1-3.4-.4-1.4-.4-2.5-.4-2.5s-1.4.7-3.6 3.4c-.6.8-1.1 1.5-2 1.3-.8-.1-1.6-.7-1.9-1.6-.2-.7-.3-3.2.1-6.2.3-2.2 1-5.7 1-5.7s-1.3 3.6-2.8 7.4c-1.6 4.1-3.2 7.5-5.1 9.1-1.4 1.1-3.2 1.8-5.2 1.9-2.3.1-5.8-.9-7.8-3.7-2.2-3.1-2.2-7.3-1.1-9.7 1.1-2.5 3.7-4 7.1-4 2.2 0 4.5.5 5.2 2.3.7 1.8-.4 4.1-1.7 5.1s-3.9 1.3-5.2-.2c-.9-1-.4-2 .3-2.2.2-.1 1.3-.3 1.6-.4.6-.2.7-.7.7-.7s-1.9-.7-3.6.1c-1.8.8-2.3 3.1-1.7 5.3.7 2.6 2.6 4.6 5.6 4.5 2.5 0 3.8-1.1 4.8-2.8 1.7-3 3.4-7.5 4.1-9.7 1.9-5.1 3.7-10.6 3.7-10.6s-1.7.1-5.5.6c-2.7.4-6.6 1.1-8 1.4-1.7.3-3.5.4-3.8-1.2-.2-1.3 1.2-2 4.4-3C72.2 2 78.7.8 84.7.4c5.5-.4 9.9-1.2 10.6.9.4 1.4-.3 2.5-2.5 2.7-1.2.1-3.1.2-4.1.3-1.3.3-1.7 1.9-1.7 1.9s1.1-.1 2.2.1c2.6.6.6 4.4-.5 7.3-.6 1.8-1.2 3.6-1.5 5.4 0 .3-.1 1-.1 1s2.2-1.5 3.3-2.3c.9-.7 1.4-1.5 1.7-2.1.6-.9 1.7-2.2 3.9-2.4 2.2-.2 4 1.1 4.8 2.5.5.8.6 1.5.6 1.5s.6-2.2.9-2.7c.3-.5.8-.7 1.3-.6.7.2 1.1 1 1.3 1.5.2.7.2 1.5 0 2.2-.2.7-.8 3.1-.8 3.1s1.4-.4 3.6-3.1c.4-.5 1.8-2.4 2-2.7.5-.7 1.4-.5 2.2.1.6.4.9 1 .9 1.6 0 .7-.1 1.5-.1 2.3 0 1.4.4 2.3.9 3-.3-.7-.3-1.5-.3-2.3.3-2.9 1.5-4.7 3.2-6 1.1-.8 2.5-1.5 4.2-1.5 1.7 0 3.4.8 4.2 2.2.9 1.4.5 3.1.5 3.4 0 .3-.1.5-.1.8 1-2.7 3.6-4.5 6.6-4.5 2.6 0 4.4 1.2 4.7 3.3.1 1-.2 1.9-.7 2.5.4.1.8.4 1 .8 1 1.8 1.7.4 2-.2.3-.5 1.1-3.7 1.5-5.8.4-1.8 1.8-2 2.7-1.7.9.3 1.3 1 .9 2.8-.2.8-.7 3.2-1 4.4-.1.5.1.8.8.7 1.7-.2 3.1-1.9 4-5.3.4-1.8 1.5-2.4 2.6-2.2.8.2 1.5.9 1.2 2.5-.2 1-1.2 3.4-.9 4.4.4 1.6 2 1.4 3.4.9 1.1-.3 2.9-1.5 3.5-.5zm-61.1-3.8c-.9 0-1.6 1.2-1.9 2.8-.3 1.5-.6 4.2.6 4.2.7 0 2-1.7 2.6-3.6.3-1.3.3-3.4-1.3-3.4zm25 8.8s-1.1 2.2-1.5 4c-.4 1.9-.2 2.9.3 3 .8.2.9-2.3 1-2.8 0-1 .2-4.2.2-4.2zm-.1-9.7c-.4-.5-1.9-.2-3 .7-1.1.9-1.9 2.5-1.6 3.1.4.8 2.1.4 3.4-.9 1-.9 1.8-2.3 1.2-2.9zm11.9 1.8c0-.4-.9-.6-1.7-.6-1.4 0-2.9 1-3.3 1.7h.1c1.1 0 2.2-.1 3.1-.2 1.2-.1 1.8-.6 1.8-.9zm3.4-7.5c.9-.5 1.6-2.2 1.3-3.3-.2-.7-.8-1.3-1.7-1.3-.6 0-1 .3-1.3.8-.4.6-.9 2-.3 3.2.6 1.1 1.5.9 2 .6zm-5.8-.4c.5-.5.8-1.4.8-2.2s-.5-2-1.7-2c-1 0-1.6 1-1.9 2-.3 1 0 1.9.3 2.3.4.4 1.2 1.3 2.5-.1zm-24.3 1c1.7-.8 4-.5 4.8-.6 1-.1 1.6-.6 1.8-1.5.1-.5 0-.9-.5-1.2-.4-.2-1.8-1-4.3-1-2.1 0-3.5.5-4.2.8-.5.3-1.2.8-1.1 2 .2 1.7 2.1 2.2 3.5 1.5z"/>
</svg>