<svg viewBox="0 0 180 22" xmlns="http://www.w3.org/2000/svg">
	<path fill="#E00025" d="M1.02784 2.31263v8.35117c0 .5139 0 1.7987-1.02784 1.7987v.1285h5.39614v-.1285c-1.02783 0-1.02783-1.2848-1.02783-1.7987V1.02784h3.46895v9.63596c0 .5139 0 1.7987-1.02784 1.7987v.1285h5.39618v-.1285c-1.0279 0-1.0279-1.2848-1.0279-1.7987V2.31263c0-.51391 0-1.798711 1.0279-1.798711v-.12848H0v.12848c1.02784 0 1.02784 1.284801 1.02784 1.798711ZM19.5289 3.72591c-.7709 0-1.4133.38544-1.9272 1.02784l-.3854.38544V3.72591l-3.5975.51392c.3855.12848.7709.51392.6424 1.02784v9.37903c0 .5139-.2569.8993-.6424 1.0278h4.3684c-.1285 0-.3855-.1285-.514-.2569-.1284-.257-.2569-.514-.2569-.7709v-2.8266l.3854.5139c.3855.3855 1.0278.6424 1.5418.514 1.5417 0 3.0835-1.5418 3.0835-4.75378.1285-2.18416-.7709-4.36831-2.6981-4.36831Zm-.3854 4.75375c.1284 1.15631 0 2.18414-.6424 3.21194-.1285.1285-.3855.257-.5139.257-.8994 0-.8994-1.0278-.8994-1.4133V6.2955c0-.38544 0-1.41327.8994-1.41327.8993 0 1.1563 1.02783 1.1563 3.59743Zm8.8651-4.75375c-2.5696 0-4.2399 1.79872-4.2399 4.62527 0 4.36832 3.5975 4.62522 4.2399 4.62522.6424 0 4.2398-.2569 4.2398-4.62522 0-2.82655-1.6702-4.62527-4.2398-4.62527Zm1.1563 5.01071c0 1.28478 0 2.95498-.6424 3.59738-.257.257-.7709.3855-1.1563 0-.6424-.6424-.6424-2.3126-.6424-3.4689v-.89936c0-1.2848 0-2.95503.6424-3.46895.2569-.25696.7708-.38544 1.1563 0 .6424.6424.6424 2.31263.6424 3.46895v.77088Zm14.2612-5.01071c-.6424 0-1.1563.12848-1.5417.6424l-.3855.38544V0h-3.5974c.6424.12848.6424.899358.6424 1.2848v3.46895l-.3854-.38544c-.3855-.38544-1.0279-.6424-1.5418-.6424-2.3126 0-2.955 2.95503-2.955 4.62527 0 2.31262.8993 4.62522 2.955 4.62522.6424 0 1.1563-.1284 1.5418-.5139l.3854-.3854v2.5696c0 .3854 0 1.1563-.6424 1.2848h4.2398c-.2569 0-.3854-.1285-.5139-.3855-.1285-.2569-.257-.6424-.1285-.8993v-2.5696l.3855.3854c.3854.3855 1.0278.6424 1.5417.5139 2.0557 0 2.9551-2.3126 2.9551-4.62522 0-1.79872-.6424-4.62527-2.9551-4.62527Zm-4.6252 6.80939c0 .514 0 1.4133-.8994 1.4133s-1.1563-1.0278-1.1563-3.59742c0-2.5696.3854-3.59743 1.1563-3.59743.7709 0 .8994.89936.8994 1.41327v4.36828Zm3.3404 1.2848c-.8993 0-.8993-.8993-.8993-1.4132V6.16702c0-.38544 0-1.41327.8993-1.41327.8994 0 1.1563 1.02783 1.1563 3.46895 0 2.4411-.3854 3.5974-1.1563 3.5974Zm9.7645-8.09419c-2.4411 0-4.1114 1.92719-4.1114 4.88223 0 2.56956 1.5418 4.36826 3.8544 4.36826 1.4133 0 2.6981-.8993 3.469-2.1841l-.257-.1285c-.3854.5139-1.0278.8994-1.7987.8994-1.0278 0-2.1842-.5139-2.1842-3.3405v-.38544h4.6253c0-1.15632-.3854-2.31263-1.0278-3.21199-.7709-.6424-1.6703-.89936-2.5696-.89936Zm-1.0279 3.59743v-.25696c0-1.02784 0-2.82655 1.0279-2.82655.6424 0 .8993.89936 1.0278 2.82655v.25696h-2.0557Zm10.9208-1.54176c0 .38544.1285 1.54176 1.2848 1.54176.7709 0 1.1563-.51392 1.1563-1.2848 0-2.18415-2.5696-2.31263-3.0835-2.31263-2.4411 0-4.4968 2.05567-4.3683 4.49679v.25696c0 2.56964 1.6702 4.49674 3.8544 4.49674 1.4133 0 2.6981-.7708 3.4689-1.9271l-.2569-.3855c-.3855.3855-1.0279.6424-1.6702.6424-2.3127 0-2.4412-3.0835-2.4412-3.7259 0-1.02784.1285-3.34047 1.2848-3.34047.257 0 .6424.12848.6424.89936l.1285.64239Zm8.7366 0c0 .38544.1285 1.54176 1.2848 1.54176.7709 0 1.1563-.51392 1.1563-1.2848 0-2.18415-2.5696-2.31263-2.955-2.31263-2.4411 0-4.4968 2.05567-4.4968 4.49679v.25696c0 2.56964 1.6703 4.49674 3.8544 4.49674 1.4133 0 2.6981-.7708 3.469-1.9271l-.257-.3855c-.3854.3855-1.0278.6424-1.6702.6424-2.3127 0-2.4411-3.0835-2.4411-3.7259 0-1.02784.1284-3.34047 1.2847-3.34047.257 0 .6424.12848.6424.89936l.1285.64239Zm9.5075-.64239-1.7987 4.23983h-.5139V5.39615c0-.38544 0-1.15632.6424-1.2848h-4.2398c.6424.12848.6424.77088.6424 1.2848v6.16705c0 .5139-.257.8993-.6424 1.0278h4.2398c-.3855-.1285-.7709-.5139-.6424-1.0278l1.7987-4.36834h.5139v4.11134c0 .3854 0 1.1563-.6424 1.2848h4.3683c-.6424-.1285-.6424-.8994-.6424-1.2848V5.39615c0-.38544 0-1.15632.6424-1.2848h-4.3683c.3855.12848.6424.51392.6424 1.02784Zm9.1221-1.41328c-2.5696 0-4.2399 1.79872-4.2399 4.62527 0 4.36832 3.5975 4.62522 4.2399 4.62522.6424 0 4.2398-.2569 4.2398-4.62522 0-2.82655-1.6702-4.62527-4.2398-4.62527Zm1.1563 5.01071c0 1.28478 0 2.95498-.6424 3.59738-.257.257-.7709.3855-1.1563 0-.6424-.6424-.6424-2.3126-.6424-3.59738v-.77088c0-1.2848 0-2.95503.5139-3.46895.257-.25696.7709-.38544 1.1563 0 .6424.6424.6424 2.31263.5139 3.46895l.257.77088Zm10.0218-.89936h-2.1845V5.13919c0-.6424.3854-.89936.5139-1.02784H94.561c.6424.25696.6424.89936.6424 1.2848v5.91005c0 .3854 0 1.1563-.6424 1.2848h4.2399c-.257-.1285-.514-.3854-.514-1.0278V8.35118h2.1841v3.34042c0 .6424-.385.8994-.5138 1.0279h4.2398c-.642-.1285-.642-.8994-.642-1.2848V5.39615c0-.38544 0-1.15632.642-1.2848h-4.2398c.2568.12848.5138.38544.5138 1.02784l-.128 2.69807Zm12.719 4.11134c-.128 0-.257-.1285-.385-.1285-.129-.1285-.257-.3854-.257-.5139V6.55246c0-1.28479-.386-2.82655-3.212-2.82655-2.827 0-3.726 1.15632-3.726 2.18415-.129.77088.385 1.41328 1.156 1.41328h.257c1.156 0 1.156-.89936 1.156-1.02784 0-.12848 0-.38544-.128-.51392v-.12847c-.129-.25696-.257-.38544-.257-.6424 0-.38544.385-.77088.771-.77088h.128c.386 0 1.028.12848 1.028 1.15632V7.5803h-.128c-2.827 1.02784-4.369 2.18415-4.369 3.7259 0 .8994.643 1.6702 1.542 1.6702h.129c.899 0 1.67-.5139 2.184-1.1563l.128-.1285h.386v.1285c.257 1.0279 1.027 1.1563 1.67 1.1563.899 0 1.67-.3854 2.184-1.0278l-.128-.1285c0 .1285 0 .1285-.129.1285Zm-3.597-1.7987c0 .5139 0 1.2848-.771 1.2848s-.771-.5139-.771-1.1563c0-.89938.514-1.67026 1.156-2.0557l.386-.25696v2.18416Zm7.708-4.11136v.25696c0 3.34047-.128 5.1392-.642 5.5246-.128.1285-.257.1285-.385.1285 0 0-.386 0-.386-.5139v-.257c0-.1284-.128-.2569-.257-.3854-.128-.1285-.385-.257-.642-.257-.386 0-.9.257-.9 1.1563 0 .7709.643 1.2848 1.285 1.2848 2.056 0 2.184-2.4411 2.184-5.78154V4.62527h2.056v6.68093c0 .5139 0 1.1563-.642 1.2848h4.24c-.643-.1285-.643-.8994-.643-1.2848V5.39615c0-.38544 0-1.15632.643-1.2848h-6.938c.514 0 1.027.38544 1.027 1.92719Zm21.457 3.85439c-.771 0-1.542 0-2.313.25697l-.386.1285V2.95503h2.056c3.726 0 4.754 2.18416 5.011 3.59743h.257l-.129-4.49679h-13.105v.12848c1.285 0 1.285 1.79872 1.285 2.5696V16.9593c0 .7709 0 2.5696-1.285 2.5696v.1285h8.865c3.855 0 6.168-1.9272 6.168-5.1392-.129-2.1842-1.799-4.62527-6.424-4.62527Zm-1.414 8.99357c-1.413 0-1.413-1.1563-1.413-1.6702v-6.167h1.028c2.955 0 3.212 3.0835 3.212 4.1113 0 1.6702-.9 3.7259-2.827 3.7259Zm17.473-1.2848v-5.6531c0-1.6702-.385-3.46894-3.982-3.46894-3.598 0-4.626 1.54174-4.626 2.82654 0 .8994.643 1.6702 1.542 1.6702h.129c1.413 0 1.541-1.0278 1.541-1.2848 0-.2569 0-.3854-.128-.6423l-.129-.257c-.128-.257-.257-.5139-.257-.7709 0-.5139.386-.89934.9-1.02782h.128c.514 0 1.285.25696 1.285 1.41332v2.5695l-.257.1285c-3.34 1.1563-5.139 2.6981-5.139 4.4968 0 1.1563.771 2.0557 1.927 2.0557h.129c1.027-.1285 2.055-.6424 2.698-1.4133l.128-.1285h.514v.257c.257 1.1563 1.285 1.4133 2.056 1.4133 1.028 0 2.055-.3855 2.698-1.2848l-.129-.1285c-.385.1285-.899 0-1.028-.3854v-.3855Zm-3.597-1.2848c0 .6424 0 1.5418-.899 1.5418-.643 0-1.028-.5139-1.028-1.2848 0-1.0279.514-2.0557 1.413-2.5696l.514-.3855v2.6981Zm12.72-5.7816v3.212h-2.442v-3.212c0-.77085.386-1.15629.643-1.28476h-4.882c.77.25695.77 1.02786.77 1.67026v7.1948c0 .514 0 1.4133-.77 1.6703h4.882c-.257-.1285-.643-.3855-.643-1.2848v-3.9829h2.57v3.9829c0 .7708-.385 1.1563-.642 1.2848h4.882c-.771-.257-.771-1.0279-.771-1.6703v-7.1948c0-.5139 0-1.41331.771-1.67026h-5.011c.257.12847.643.38543.643 1.28476Zm15.032 7.7088-3.212-5.7816 1.156-1.5417c.514-.8994 1.413-1.41331 2.441-1.67026h-4.111c.385.12847.642.51391.642.89936 0 .5139-.257 1.1563-.642 1.5417l-1.542 2.1842h-.514v-3.3405c-.128-.5139.129-1.02781.642-1.28476h-5.01c.771.25695.771 1.02786.771 1.67026v7.1948c0 .514 0 1.4133-.771 1.6703h5.01c-.513-.257-.642-.7709-.642-1.2848v-3.0835h.514l1.413 2.698c.129.257.257.6424.386 1.0279 0 .2569-.129.5139-.386.6424H180v-.1285c-.642-.3855-.899-.8994-1.156-1.4133ZM10.7923 21.0707s1.6702-.257 4.7537-.514c3.0835-.2569 7.3234-.6424 12.4626-1.1563 5.1391-.5139 11.1777-.7708 17.6017-1.1563 6.424-.3854 13.1049-.6424 19.9143-.8993 6.8094-.257 13.7473-.3855 20.1713-.3855 6.424 0 12.4626 0 17.6021.1285 5.139.1285 9.507.257 12.462.3854 2.955.1285 4.754.257 4.754.257s-1.67.1285-4.754.257l-12.462.5139-37.7734 1.2848-20.1713.6424-17.6017.5139h-12.334l-4.6253.1285Z"/>
</svg>