<svg xmlns="http://www.w3.org/2000/svg" viewBox="0 0 118.2 50">
	<path fill="#b0ca44" d="M14.9 44.1L25 50v-6c8.3-2.4 14.4-10 14.4-19 0-7.8-4.5-14.6-11.1-17.7l-1.9 5.4c4.4 2.4 7.4 7 7.4 12.4 0 5.9-3.6 10.9-8.8 13V16.3L14.9 44.1z"/>
	<path fill="#494a52" d="M87.2 37.9c1.1-.4 1.5-1.5 1.7-2.2l.8-3.2h-1.8l-.7 2.9c-.3.8-.6 1.7-2 1.7h-1.7v-4.7h-1.9V44h1.7v-5.3H85c1.7 0 2.1.6 2.4 1.7l1 3.6h1.9l-1-4c-.4-.8-.7-1.9-2.1-2.1zM14.4 6C6.1 8.3 0 15.9 0 25c0 7.8 4.5 14.6 11.1 17.7l1.9-5.4c-4.4-2.4-7.3-7-7.3-12.4 0-5.9 3.6-10.9 8.8-13v21.7L24.6 5.9 14.4 0v6zm37.4 31.1h-2.6v-3.3h5.3v-1.3h-7.2V44H52c2.4 0 3.6-1.7 3.6-3.5 0-1-.4-1.9-1-2.4-.6-.7-1.5-1-2.8-1zm-.2 5.6h-2.4v-4.2h2.2c.9 0 2.3.1 2.3 2s-1.3 2.2-2.1 2.2zm9.3-10.2c-.6 1.7-3.2 9.3-3.8 11.4H59l.9-2.8h4.4c.1.4.7 2.3.9 2.8h1.9l-3.7-11.4h-2.5zm-.5 7.3c0-.1 1.7-5.8 1.8-5.8l1.7 5.8h-3.5zm16.2-19c-2.6 0-4.7-2.1-4.7-4.7s2.1-4.7 4.7-4.7c1 0 1.9.3 2.8.7L80.9 8c-1.8-.9-3.4-1.2-5.5-1.2-5.1 0-9.3 4.2-9.3 9.3s4.2 9.3 9.3 9.3c1.9 0 4.2-.4 5.7-1.3L79.7 20c-.9.4-2.1.8-3.1.8zm17.7-5.2c1.9-.4 2.9-1.9 3.4-3.2s1.9-5.1 1.9-5.1h-5.7l-1.4 4c-.6 1.7-1.1 2.3-3.2 2.3V7.2h-5.7v17.7h5.7v-7c2.4 0 3 .2 3.7 1.9.4 1.3 1.8 5.2 1.8 5.2h5.7l-2.2-6.1c-.7-1.8-2.1-3.1-4-3.3zm17.1-2h-3.1v-2.1h8.8V7.2h-14.6v17.7h9.3c4.1 0 6.4-2.1 6.4-6 0-3.7-2.3-5.3-6.8-5.3zm-.7 7.2h-2.4v-3.2h2.3c1.2 0 1.9.3 1.9 1.5s-.8 1.7-1.8 1.7zm-57.6-8.9h5.1V25h5.7V7.2H47.3V25h5.8V11.9zm23.3 25.4h-5v-4.8h-1.9V44h1.9v-5.3h5V44h1.9V32.5h-1.9v4.8z"/>
</svg>