<svg xmlns="http://www.w3.org/2000/svg" viewBox="0 0 160 24.2">
	<path fill="#b49f64" d="M21.3 18.7c0 1.5-1.2 2.7-2.7 2.7h-16c-1.5 0-2.7-1.2-2.7-2.7v-16C0 1.2 1.2 0 2.7 0h16c1.5 0 2.7 1.2 2.7 2.7l-.1 16z"/>
	<path fill="#fff" d="M10.7 9.4c.7 0 1.3.6 1.3 1.3 0 .7-.6 1.3-1.3 1.3-.7 0-1.3-.6-1.3-1.3-.1-.7.5-1.3 1.3-1.3zm2-2.7c-.7 0-1.3.6-1.3 1.3 0 .7.6 1.3 1.3 1.3.7.1 1.3-.5 1.3-1.3 0-.7-.6-1.3-1.3-1.3zm-4 0c-.8 0-1.4.6-1.4 1.3 0 .7.6 1.3 1.3 1.3.8.1 1.4-.5 1.4-1.3 0-.7-.6-1.3-1.3-1.3zm6-2.7c.7 0 1.3.6 1.3 1.3s-.6 1.3-1.3 1.3c-.7 0-1.3-.6-1.3-1.3-.1-.7.5-1.3 1.3-1.3zm-4 0c.7 0 1.3.6 1.3 1.3s-.6 1.3-1.3 1.3c-.7 0-1.3-.6-1.3-1.3-.1-.7.5-1.3 1.3-1.3zM8 5.3c0 .7-.6 1.3-1.3 1.3-.7 0-1.3-.6-1.3-1.3S5.9 4 6.7 4C7.4 4 8 4.6 8 5.3zm4.7 6.7c-.7 0-1.3.6-1.3 1.3 0 .7.6 1.3 1.3 1.3.7 0 1.3-.6 1.3-1.3 0-.6-.6-1.3-1.3-1.3zm-4 0c-.7 0-1.3.6-1.3 1.3 0 .7.6 1.3 1.3 1.3.7 0 1.3-.6 1.3-1.3 0-.6-.6-1.3-1.3-1.3zm6 2.7c.7 0 1.3.6 1.3 1.3 0 .7-.6 1.3-1.3 1.3-.7 0-1.3-.6-1.3-1.3-.1-.7.5-1.3 1.3-1.3zm-4 0c.7 0 1.3.6 1.3 1.3 0 .7-.6 1.3-1.3 1.3-.7 0-1.3-.6-1.3-1.3-.1-.7.5-1.3 1.3-1.3zm-4 0c.7 0 1.3.6 1.3 1.3 0 .7-.6 1.3-1.3 1.3-.7 0-1.3-.6-1.3-1.3-.1-.7.5-1.3 1.3-1.3z"/>
	<path fill="#508b36" d="M36.6 20.1v-16h-4.3V20h-3V1.3h10.3V20h-3zm23.6 0v-7.6H60l-4.2 7.6h-2.9V6.7h3v8h.3l4.2-8h2.9v13.4h-3.1zm14.6 0v-6.9h-.3l-2 3.7h-1.7l-2-3.7h-.3v6.9h-3V6.7H68l3.4 6.7h.3l3.4-6.7h2.7v13.4h-3zm70.2 0v-5.5h-3.4v5.5h-3V6.7h3v5.1h3.4V6.7h3v13.4h-3zm12 0l-.7-3.8c-.2-.9-1.1-1.7-2-1.7h-1.4v5.5h-3V6.7h3V12h.9c.9 0 1.8-.7 2-1.7l.8-3.6h3l-1 4.2c-.2.8-.8 1.5-1.7 1.8l-.2.1v.3h.2c1 .2 1.8 1 2 1.9l1 5.1H157zM96.3 9.2c-1.1 0-1.7.7-1.7 1.8v4.7c0 1.2.6 1.8 1.7 1.8S98 17 98 15.8V11c0-1.2-.6-1.8-1.7-1.8zm0 11.1c-2.9 0-4.7-1.7-4.7-4.3v-5.2c0-2.6 1.9-4.3 4.7-4.3s4.7 1.7 4.7 4.3V16c0 2.6-1.8 4.3-4.7 4.3zm36.5-6c-2.1 0-2.3.6-2.3 1.6 0 1.5.8 1.7 1.4 1.7.2 0 .5 0 .8-.1 1-.3 1.4-.8 1.4-.8V14.3h-1.3zm-2 6c-2.2 0-3.2-1.4-3.2-4.2 0-2.7 1.4-4.2 4.3-4.2h2.2v-1.2c0-1.7-.8-1.8-1.7-1.8-.9 0-1.6.6-2 1.7l-2.7-.7c.8-2.2 2.5-3.5 4.6-3.5 2.2 0 4.7.7 4.7 4.2V20h-2.6l-.3-1.4-.3.3c0 .1-1.2 1.4-3 1.4zm-19.5 2.4V20h-8.6V6.7h3v10.6h3.4V6.7h3v10.6h1.7l-.2 5.5h-2.3v-.1zm-65-13.6H46c-1 .2-1.4 1.1-1.5 1.1v6.5l.1.1c.3.3 1 .7 1.7.7 1.1 0 1.7-.6 1.7-1.7v-5.2c0-.9-.7-1.5-1.7-1.5zm-4.5 15.1V6.7h2.6l.3 1.5.3-.4s1.1-1.3 2.8-1.3c2.2 0 3.2 1.3 3.2 4.2v6c0 2.1-1.2 3.4-3.2 3.4-1.4 0-2.7-.9-2.7-.9l-.3-.3v5.2l-3 .1zm48.6-9c0 2.8-1.5 5.1-5.3 5.1-3.2 0-5.3-1.9-5.3-4.9V6.1c0-3 2.1-4.9 5.3-4.9 3.8 0 5.2 2.6 5.2 5.3l-3.1.3c-.1-1.2-.3-3-2.2-3-1.4 0-2.2.9-2.2 2.4V15c0 1.6.8 2.5 2.3 2.5 2 0 2.3-1.5 2.3-2.7.1 0 3 .4 3 .4zM121.3 8h-2.8V4.2h6.8V1.3h-9.8V20h5.8c3.8 0 5.1-2.4 5.1-6 0-3.5-1.3-6-5.1-6zm-.6 9.3h-2.2v-6.4h2.2c2.3 0 2.5 1 2.5 3.2s-.2 3.2-2.5 3.2z"/>
</svg>