<svg xmlns="http://www.w3.org/2000/svg" viewBox="0 0 102.1 46">
	<path fill="#2d3540" d="M50 27.6h2.6c1.3 0 2.3.7 2.3 1.9 0 .7-.3 1.3-.9 1.6.8.2 1.2 1 1.2 1.7 0 1.5-1.2 2.1-2.5 2.1H50v-7.3zm2.6 3c.6 0 .9-.4.9-.9s-.3-.9-.9-.9h-1.3v1.8h1.3zm.1 3.2c.7 0 1.1-.4 1.1-1.1 0-.6-.4-1-1.1-1h-1.4v2.1h1.4zm6-4.2c.7 0 1.5.2 2 .8l-.6.9c-.3-.3-.8-.6-1.4-.6-1 0-1.6.7-1.6 1.6 0 .9.6 1.6 1.6 1.6.6 0 1.1-.3 1.5-.7l.5.9c-.5.5-1.3.8-2.2.8-1.7 0-2.8-1.2-2.8-2.7.2-1.4 1.3-2.6 3-2.6zm5.3 0c1.5 0 2.3 1.1 2.3 2.5v.5h-3.6c.1.9.8 1.4 1.6 1.4.5 0 1.1-.2 1.5-.6l.5.9c-.5.5-1.4.7-2.1.7-1.7 0-2.8-1.3-2.8-2.7 0-1.6 1.1-2.7 2.6-2.7zm-1.5-2h1v1.2h-1v-1.2zm2.5 4.1c0-.7-.5-1.1-1-1.1-.7 0-1.1.4-1.3 1.1H65zm-.6-4.1h1v1.2h-1v-1.2zm5.6 2.1h4.8v5.2h-1.3v-4.1h-2.2v4.1H70v-5.2zm6.1 0h1.2v.8c.3-.6 1-.9 1.7-.9 1.4 0 2.3 1.1 2.3 2.7 0 1.7-1 2.7-2.4 2.7-.6 0-1.1-.3-1.5-.7V37h-1.3v-7.3zm2.6 4.2c.7 0 1.3-.6 1.3-1.6s-.5-1.6-1.3-1.6c-.7 0-1.3.5-1.3 1.6 0 .8.5 1.6 1.3 1.6zm6.3-4.3c1.6 0 2.9 1.1 2.9 2.7S86.6 35 85 35c-1.6 0-2.9-1.1-2.9-2.7s1.3-2.7 2.9-2.7zm0 4.3c.9 0 1.6-.7 1.6-1.6 0-1-.7-1.6-1.6-1.6s-1.5.7-1.5 1.6c-.1 1 .6 1.6 1.5 1.6zm3.9-4.2h1.2v4.1h1.6v-4.1H93v4.1h1.6v-4.1h1.2v4.1h.7v2.3h-1.2v-1.2h-6.6l.2-5.2zm10.9-.1c1.5 0 2.3 1.1 2.3 2.5v.5h-3.6c.1.9.8 1.4 1.6 1.4.5 0 1.1-.2 1.5-.6l.5.9c-.5.5-1.4.7-2.1.7-1.7 0-2.8-1.3-2.8-2.7 0-1.6 1.1-2.7 2.6-2.7zm1 2.1c0-.7-.5-1.1-1-1.1-.7 0-1.1.4-1.3 1.1h2.3z"/>
	<path fill="#ff8c00" d="M72.3 6.8v15c0 .2-.2.4-.4.4h-3.1c-.2 0-.4-.2-.4-.4v-15c0-.2.2-.4.4-.4h3.1c.3 0 .4.1.4.4zm23.9-.4h-3.4c-.2 0-.3.1-.4.3l-2.7 8.9-3-8.9c-.1-.2-.2-.3-.4-.3h-2.4c-.2 0-.3.1-.4.3l-3 8.9-2.7-8.9c-.1-.2-.2-.3-.4-.3H74c-.1 0-.3.1-.3.2-.1.1-.1.2-.1.4l5 15c.1.2.2.3.4.3h2.7c.2 0 .3-.1.4-.3l3-8.8 3 8.8c.1.2.2.3.4.3h2.7c.2 0 .3-.1.4-.3l5-15c0-.1 0-.3-.1-.4 0-.2-.1-.2-.3-.2zm5.2 0h-3.1c-.2 0-.4.2-.4.4v15c0 .2.2.4.4.4h3.1c.2 0 .4-.2.4-.4v-15c0-.3-.2-.4-.4-.4zM66.7 21.7c.2.2 0 .5-.2.5h-3.8c-.2 0-.3-.1-.4-.2l-.6-.8c-1.3.8-2.8 1.3-4.5 1.3-4.6 0-8.3-3.7-8.3-8.3S52.6 6 57.1 6c4.6 0 8.3 3.7 8.3 8.3 0 1.6-.5 3.2-1.3 4.5l2.6 2.9zm-7.5-3.4l-1.6-2c-.2-.2 0-.5.2-.5h3.4c.2-.5.3-1 .3-1.6 0-2.5-1.8-4.6-4.4-4.6s-4.4 2.1-4.4 4.6 1.8 4.6 4.4 4.6c.8.1 1.5-.1 2.1-.5zM36.5 30.9c.1.9-.1 1.3-.4 1.3-.3 0-.7-.4-1.2-1.1-.5-.7-.6-1.5-.4-1.9.1-.3.5-.4.9-.2.7.3 1 1.4 1.1 1.9zm-4.2 2c.9.8 1.2 1.7.7 2.3-.3.4-.7.5-1.2.5s-1-.2-1.4-.5c-.8-.7-1.1-1.9-.5-2.6.2-.3.6-.4 1-.4.4.1 1 .3 1.4.7zm-1.5 7.4c3.9 0 8.2 1.3 12.9 5.5.5.4 1.1-.1.7-.6-4.6-5.8-8.9-7-13.2-7.9-5.2-1.2-7.9-4.1-9.8-7.3-.4-.6-.5-.5-.6.3 0 1 0 2.3.3 3.7h-.6C13 34 6.9 27.9 6.9 20.5S13 6.9 20.5 6.9 34 13 34 20.5c0 .5 0 1.1-.1 1.6-1-.2-2.9-.2-4.3-.1-.5 0-.4.3-.1.4 4.5.8 7.5 3.6 8.2 8.6 0 .1.2.2.2.1 1.8-3.1 2.9-6.7 2.9-10.5C40.9 9.2 31.8 0 20.5 0S0 9.2 0 20.5 9.2 41 20.5 41c3-.1 5.9-.7 10.3-.7z"/>
</svg>