<svg xmlns="http://www.w3.org/2000/svg" viewBox="0 0 155 33.7">
	<path fill="#ffed00" d="M1.1 1.1h31.4v31.4H1.1V1.1z"/>
	<g fill="#000">
		<path d="M70.5 20.2l-.8 5h4.9l.8-5H79l-2.2 13.5h-3.6l.9-5.8h-4.9l-.9 5.8h-3.6L67 20.2h3.5zm14.3 0H81l-2.3 13.4h3.7l1-5.8 3.8 5.8H92l-5-7.1 6.7-6.4h-4.5l-5.4 5.5c0 .2 1-5.4 1-5.4zm-25.5 8.4l-.8-4.3-2.3 4.3h3.1zm.5 2.7h-5.1l-1.3 2.3h-3.9l7.7-13.5h4l3.1 13.5h-3.9l-.6-2.3zm-9.7-1.7c-.1.9-.5 1.8-1.1 2.4-1.4 1.5-3.6 1.5-5 1.6h-5.4L41 20.2h9.2l-.4 2.6h-5.6l-.4 2.7h1.6c1.4-.1 2.7.3 3.8 1.1.4.4.7.8.9 1.4.1.5.1 1 0 1.6zM44.3 28h-1l-.5 2.9h.9c2.1 0 2.5-.6 2.6-1.4s.1-1.5-2-1.5zm93-20.3h3.7c-.1-.4-.3-.8-.6-1-.3-.3-.7-.4-1.2-.4-.4 0-.9.1-1.2.3s-.6.7-.7 1.1zm6.7 1.6v.4h-6.7c0 .3 0 .5.1.8.1.3.2.5.4.7.2.2.4.3.7.4.3.1.5.1.8.1.3 0 .6 0 .9-.2s.5-.4.6-.7h3.1c-.5 2.2-2.5 3.1-4.6 3.1-3 0-5.2-1.7-5.2-4.9 0-.7.1-1.3.3-1.9.2-.6.6-1.2 1.1-1.6.5-.5 1-.8 1.7-1 .6-.2 1.3-.3 1.9-.3 3.1-.1 4.9 1.9 4.9 5.1zM55.1 6.8c-.3 0-.6 0-.8.1-.3.1-.5.3-.7.5s-.4.4-.5.7c-.1.2-.1.5-.1.8 0 .3 0 .5.1.8.1.3.3.5.4.7.2.2.4.3.7.4.3.1.5.1.8.1.3 0 .5 0 .8-.1s.5-.2.7-.4.3-.4.4-.7.1-.5.1-.8c0-.3 0-.5-.1-.8-.1-.3-.3-.5-.4-.7-.2-.2-.4-.3-.7-.4-.2-.1-.5-.2-.7-.2zm5.1-2.5v9.1H57v-1c-.3.4-.7.8-1.2 1-.5.2-1 .3-1.5.3-.6 0-1.2-.2-1.8-.4-.6-.3-1.1-.6-1.5-1.1-.4-.5-.7-1-1-1.6-.2-.6-.3-1.2-.3-1.8 0-.6.1-1.2.3-1.8.2-.5.6-1 1-1.5s.9-.8 1.5-1.1c.5-.2 1.1-.4 1.7-.4.5 0 1 .1 1.5.3.5.2.9.5 1.2.9v-.9h3.3zM107 6.8c-.3 0-.5 0-.8.1-.3.1-.5.3-.7.4-.2.2-.3.4-.4.7-.1.3-.1.6-.1.9 0 .3 0 .5.1.8.1.3.3.5.4.7.2.2.4.3.7.4.3.1.5.1.8.1.3 0 .5 0 .8-.1s.5-.2.7-.4.3-.4.4-.7.1-.5.1-.8c0-.3 0-.5-.1-.8-.1-.3-.3-.5-.4-.7-.2-.2-.4-.3-.7-.4-.2-.1-.5-.2-.8-.2zm5.2-2.5v9.1H109v-1c-.3.4-.7.8-1.2 1s-1 .3-1.5.3c-.6 0-1.2-.2-1.8-.4-.6-.3-1.1-.6-1.5-1.1-.4-.5-.7-1-1-1.6-.2-.6-.3-1.2-.3-1.8 0-.6.1-1.2.3-1.8.2-.6.5-1.1 1-1.6.4-.5.9-.8 1.5-1.1.6-.3 1.2-.4 1.8-.4.5 0 1 .1 1.5.3.5.2.9.5 1.3.9v-.8h3.1zm-73 9.1V0h5.4c3.6 0 4.7 2.6 4.7 4.4 0 .6-.1 1.2-.3 1.8-.2.6-.6 1.1-1 1.5-.4.4-1 .7-1.6.9s-1.2.3-1.8.2h-2v4.6h-3.4zm3.4-10.5V6h1.2c1.6 0 1.7-1 1.7-1.5S45.3 3 43.8 3h-1l-.2-.1c.1 0 0 0 0 0zm19.6 1.4v9.2h3.1l3.2-5v5h3.2V4.3h-3.1l-3.2 4.9V4.3h-3.2zm5-1.2c.8.1 1.5-.1 2.2-.4.7-.4 1.2-1 1.5-1.7L68.8.2c-.1.3-.3.6-.5.8-.3.2-.6.3-1 .3-.3 0-.7-.1-1-.3-.3-.2-.5-.5-.5-.8l-2.1.8c.3.7.8 1.2 1.5 1.6.6.4 1.3.6 2 .5zm11.1 14.3v-3.8c-1.9 0-5.1-.8-5.1-4.7s3.1-4.7 5.1-4.7v-4h3.2v4c1.9 0 5 .8 5 4.7s-3.1 4.7-5 4.7v3.9c.1 0-3.2-.1-3.2-.1zm3-11v5.1c1.1 0 2.2-.8 2.2-2.6s-1.1-2.5-2.2-2.5zm-2.7 5v-5c-1.1 0-2.2.8-2.2 2.6s1.1 2.5 2.2 2.4c0 .1 0 0 0 0zm14.2 6.1v-3.9c-1.9 0-5.1-.8-5.1-4.7s3.1-4.7 5.1-4.7v-4H96v4c1.9 0 5.1.8 5.1 4.7S98 13.6 96 13.6v3.9h-3.2zm3-11v5.1c1.1 0 2.2-.8 2.2-2.6s-1.1-2.6-2.2-2.5zm-2.9 5v-5c-1.1 0-2.2.8-2.2 2.6 0 .3 0 .6.1.9.1.3.3.6.5.8s.5.4.8.5.6.2.8.2zm21.4-7.2v9.1h3.1l3.2-5v5h3.2V4.3h-3.1l-3.2 4.9V4.3h-3.2zm5-1.2c.7 0 1.5-.1 2.1-.5.6-.4 1.1-.9 1.5-1.6l-2.1-.8c-.1.3-.3.6-.5.8-.3.2-.6.3-1 .3-.3 0-.7-.1-1-.3-.3-.2-.5-.5-.5-.8l-2.2.8c.3.7.8 1.2 1.5 1.6.6.4 1.4.6 2.2.5zm6.9 3.8c.7-.5 1.5-.8 2.4-.8.4 0 1.3.1 1.3.8s-.8.8-1.1.8h-1.6v2h1.4c.5 0 1.3 0 1.3.8 0 .3-.2.9-1.3.9-1 0-1.9-.3-2.8-.9l-.8 2.2c1.3.7 2.7 1.1 4.1 1.1 3.7 0 4.1-2.1 4.1-2.8 0-.5-.2-1.1-.5-1.5-.3-.4-.8-.7-1.3-.8.4-.2.8-.5 1-.9.2-.4.4-.8.3-1.3 0-2.1-2.3-2.6-3.6-2.6-1.3 0-2.6.3-3.8.9 0 .1.9 2.1.9 2.1zm19.4 6.5h3.2V9.8h2.9v3.6h3.2V4.3h-3.2v3.2h-2.9V4.3h-3.2v9.1zM33.6 33.6H0V0h33.6v33.6zM32.5 1.1H1.1v31.4h31.4V1.1z"/>
		<path d="M16.8 20.6l-9.6 9.6-3.8-3.8 9.7-9.6-2-2v-4L9.6 9.4v3.5l-1.2 1.2-4.9-4.9-1.2 1.2c0-1.1.2-2.1.6-3.1.4-1 1-1.9 1.8-2.6.7-.8 1.8-1.3 2.9-1.4 1.1-.1 2.2.3 3 1l4.9 4.9-1.2 1.2 2.5 2.6 2.6-2.6-1.2-1.2L23 4.3c.8-.7 1.9-1.1 3-1 1.1.1 2.1.6 2.9 1.4.8.8 1.4 1.7 1.8 2.6.4 1 .6 2.1.6 3.1l-1.2-1.2-4.9 4.9-1.2-1.2V9.4l-1.4 1.4v4l-2 2 9.6 9.6-3.8 3.8-9.6-9.6z"/>
	</g>
</svg>