<svg viewBox="0 0 144 40" xmlns="http://www.w3.org/2000/svg">
	<path fill="#FFE600" d="M40 32.44C40 37.3 37.3 40 32.44 40H7.56C2.7 40 0 37.3 0 32.44V7.56C0 2.7 2.7 0 7.56 0h24.89C37.3 0 40 2.7 40 7.56v24.88Z"/>
	<path fill="#2B2D34" d="M25.7198 18.0496v-3.8199l1.3795-1.3805v3.31L28.3 17.3589l4.8293-4.8294 1.1904 1.1893c-.0103-.8994-.1902-3.5094-2.4003-5.67944-2.3797-2.29954-4.9599-1.26028-5.8398-.38034l-4.8201 4.82008 1.2304 1.2305-2.4897 2.5092-2.4907-2.4897 1.2304-1.2294-4.8201-4.82012c-.8799-.87994-3.4601-1.92023-5.83982.37931-2.21012 2.17001-2.39001 4.78001-2.40029 5.68051l1.19038-1.1904 4.82933 4.8304 1.2007-1.1996v-3.3101l1.3795 1.3796v3.8199l1.9398 1.9305-9.56007 9.56 3.78087 3.7695 9.56-9.5497 9.559 9.56L33.34 29.569l-9.56-9.5693 1.9398-1.9501Zm20.9508 3.6205h7.2102v2.2698h-4.5097v2.3303h1.4998c1.0094 0 2.3098.1203 3.2895 1.0804.4204.4194.9405 1.1894.9405 2.4291 0 .3742-.0462.7329-.1356 1.0681-.1501.5592-.4225 1.0505-.8049 1.4319-.2601.2601-.5551.4595-.8789.6106-.147.0679-.3002.1264-.4595.1768-.0782.0247-.1573.0473-.2385.0679-.588.149-1.2439.1953-1.9429.1953h-3.97V21.6701Zm3.7603 9.4902c.3701 0 1.03-.0299 1.4494-.3701.0813-.0699.22-.2077.3218-.4266.074-.1573.1285-.3567.1285-.6034 0-.0884-.0072-.1717-.0195-.2498-.0134-.0833-.034-.1604-.0586-.2323-.0391-.1131-.0905-.2118-.1481-.2971-.0544-.0802-.1151-.1481-.1757-.2046-.0268-.0247-.0535-.0473-.0802-.0678l-.0381-.0288c-.4194-.3002-1.0999-.3094-1.3795-.3094h-1.0701v2.8001h1.0701v-.0102Zm14.449-5.6302h-2.5195v.8799c-.4862-.6609-1.1328-.9488-1.7044-1.0659-.2744-.0566-.5314-.0741-.7463-.0741-1.0793 0-2.0292.3896-2.7097 1.0701-.7195.7196-1.2099 1.8401-1.2099 3.1497 0 1.03.3197 2.0498 1.14 2.9205.8604.9097 1.8 1.1893 2.9205 1.1893.3299 0 .7463-.0411 1.1647-.22.4039-.1727.811-.4739 1.1451-.9899v.9406h2.5195v-7.8002Zm-6.2993 3.8898c0-.3855.0966-.698.2272-.9447.1069-.2004.2354-.3577.3526-.4749.3299-.33.8295-.5602 1.3702-.55.4595 0 1.0198.1697 1.3991.5397.0699.0658.1346.1378.1932.2149.0669.0894.1255.186.1758.2878.1378.2765.2118.5952.2118.9272 0 .6702-.2807 1.1606-.6106 1.47-.1645.1645-.3639.2991-.586.3927-.223.0946-.4687.147-.7236.147-.6004 0-1.1401-.2395-1.4906-.6096-.22-.2498-.5191-.7-.5191-1.4001Zm7.8197-3.8898h2.5195v2.7097h2.8207v-2.7097h2.5196v7.8002h-2.5196V30.27h-2.8207v3.0603h-2.5195v-7.8002Zm11.8894 0h-2.5196v7.8002h2.5196v-3.4601l2.6603 3.4601h3.2504l-3.5701-4.1797 3.3399-3.6205H80.84l-2.5503 3.1003v-3.1003ZM50.7794 6.67012c1.0105 0 2.131.1398 3.0602.96011 1.0002.86966 1.14 2.03023 1.14 2.82997 0 1.47-.5602 2.2903-1.0002 2.7498-.9292.9406-2.1494 1.03-2.9697 1.03h-1.6396v4.0903h-2.6902V6.67012h4.0995Zm-1.4196 5.37008h.9601c.1429 0 .3248-.0031.5201-.0309.3136-.0442.66-.1511.9304-.4091.2395-.2405.4399-.6497.4399-1.1503 0-.2241-.036-.4307-.1007-.61161-.0761-.21381-.1933-.39371-.3392-.52837-.401-.37932-.9807-.43997-1.5009-.43997h-.9097v3.17025Zm14.7101-1.5101h-2.5195v.8799c-.3454-.4697-.772-.7514-1.1945-.9169-.4585-.1799-.9129-.2231-1.2562-.2231-1.0794 0-2.0292.3896-2.7097 1.0701-.7196.7196-1.2099 1.8401-1.2099 3.1497 0 .6661.1336 1.3281.4502 1.948.1727.3392.3999.6651.6898.9725.8604.9097 1.8 1.1893 2.9204 1.1893.329 0 .7422-.0401 1.1586-.2169.406-.1727.8151-.4739 1.1513-.993v.9406h2.5195v-7.8002Zm-6.2993 3.8898c0-.7.3197-1.1595.5797-1.4196.33-.33.8399-.5602 1.3703-.55.1357 0 .2796.0155.4256.0453.0853.0174.1706.0401.2559.0688.2622.0884.515.2283.7176.4256.1932.183.3433.4122.442.6703.0421.1099.075.2251.0987.3433.0102.0514.0185.1038.0246.1573.0052.0421.0083.0853.0103.1285.0031.0431.0051.0863.0051.1305 0 .6702-.2806 1.1606-.6106 1.47-.1727.1727-.3834.3125-.6188.4071-.0915.037-.1871.0668-.2858.0884l-.1089.0216-.1018.0123c-.0637.0072-.1285.0103-.1943.0103-.2621 0-.5129-.0463-.7422-.1285-.294-.1059-.551-.2724-.7483-.4811-.22-.2498-.5191-.7-.5191-1.4001Zm10.3392-3.8898v4.4603l3.3203-4.4603h2.3407v7.8002h-2.5206v-4.5302l-3.3203 4.5302h-2.3396v-7.8002h2.5195Zm4.7409-3.14966c-.2107.62911-.6301 1.16982-1.1204 1.48951-.66.43997-1.47.49034-2.0498.49034-.5798 0-1.3805-.05037-2.0497-.49034-.0576-.037-.1142-.07606-.1697-.11924-.0627-.04831-.1243-.10074-.184-.15728-.0637-.06065-.1254-.12438-.185-.19223-.2498-.28782-.4544-.63939-.5818-1.02076l1.7496-.68051c.0699.34951.2405.63014.4502.79975.2303.19018.5202.31045.9601.31045.108 0 .2066-.0072.2981-.02056l.0525-.00823.0514-.01027.0688-.01748.0689-.02056c.1645-.05448.3002-.13466.4204-.23335.2097-.16961.3804-.45024.4503-.79975l1.7701.68051Zm6.4895 11.07006v3.7696h2.5401v-3.7696h.0998c1.7701 0 2.7497-.7308 3.2-1.1708.2313-.2272.4615-.5171.6527-.8779.0329-.0617.0648-.1254.0946-.1912l.0535-.1213c.0668-.1614.1254-.3341.1737-.5201.0596-.2272.1028-.4729.1264-.7391.0062-.0751.0113-.1511.0144-.2293.0031-.0699.0041-.1398.0041-.2107 0-.5058-.076-.9509-.2004-1.3394-.11-.3454-.2591-.6456-.4287-.9036-.0401-.0617-.0822-.1213-.1254-.1789l-.037-.0483-.0637-.0791c-.1594-.1943-.3279-.3578-.4945-.4904-.7699-.6106-1.9295-.9406-2.9595-.9406h-.1202V6.67012h-2.5196v3.73968h-.1202c-1.0403 0-2.1906.33-2.9606.9406-.6496.5202-1.3497 1.4998-1.3497 3.0397 0 1.4196.5603 2.3499 1.1205 2.8896.4492.44 1.4299 1.1708 3.199 1.1708h.1007Zm-.5108-5.957c.2055-.0452.4204-.0637.6311-.0534v3.9802c-.6404.0196-1.2407-.22-1.5707-.59-.3002-.3105-.5099-.8203-.5099-1.4299 0-.6199.2097-1.1205.5099-1.4207.2313-.2374.5705-.405.9396-.4862Zm4.4808 3.3471c-.3299.3597-.92.6095-1.5697.59v-3.9803c.4051-.0277.8203.0627 1.1606.2426.1542.0823.294.182.4091.2971.1368.1367.255.3166.3434.5294.1048.256.1665.5582.1665.8902 0 .6106-.2097 1.1205-.5099 1.431Zm8.1507 6.3795v-3.7696h-.1007c-.5695 0-1.0568-.076-1.472-.1932-.2272-.0637-.4318-.1408-.6158-.2241-.5263-.2385-.8861-.5325-1.1112-.7535-.0771-.074-.1542-.1552-.2293-.2447-.0657-.0771-.1305-.1603-.1922-.2487-.1449-.2077-.2796-.4472-.3906-.7206-.1244-.3053-.219-.6528-.2693-1.0455-.0155-.1182-.0268-.2415-.0329-.368-.0041-.0853-.0062-.1727-.0062-.2621 0-1.5399.7-2.5195 1.3497-3.0397.77-.6106 1.9202-.9406 2.9605-.9406h.1203V6.67012h2.5195v3.73968h.1203c.3197 0 .6517.0319.9807.0936.1665.0308.332.0699.4955.1172.1439.0411.2847.0884.4225.1408.3926.1511.7565.3485 1.0608.589.6507.5202 1.3497 1.4998 1.3497 3.0397 0 .5654-.0884 1.0506-.2302 1.4659-.1275.3721-.2981.6877-.4863.9519-.1295.1809-.2662.3371-.4029.4718-.2879.2817-.7936.6826-1.5851.9344-.2108.0668-.4421.1234-.6939.1645-.2796.0462-.586.0719-.9211.0719h-.0997v3.7696h-2.5401Zm.1203-9.78c-.59-.0298-1.2109.1696-1.5707.5396-.3002.3002-.5099.8008-.5099 1.4207 0 .6096.2097 1.1194.5099 1.4299.33.37.9303.6096 1.5707.59v-3.9802Zm2.279 3.9905c.6507.0195 1.2407-.2303 1.5707-.59.1593-.1645.293-.3855.3834-.6477.0802-.2323.1265-.4965.1265-.7833 0-.6095-.2097-1.1194-.5099-1.4196-.3701-.37-.9807-.5797-1.5707-.5397v3.9803Zm14.1798-5.9005h-2.52v.8799c-.72-.9796-1.79-1.14-2.45-1.14-1.08 0-2.03.3896-2.71 1.0701-.7196.7196-1.2099 1.8401-1.2099 3.1497 0 .6559.1295 1.3076.4348 1.9192.1748.3495.4071.6846.7051 1.0013.86.9097 1.8 1.1893 2.921 1.1893.649 0 1.629-.1593 2.309-1.2099v.9406h2.52v-7.8002Zm-6.299 3.8898c0-.3248.068-.5972.168-.8224.115-.2611.272-.4574.411-.5972.33-.33.84-.5602 1.371-.55.459 0 1.019.1697 1.399.5397.37.3495.58.8697.58 1.4299 0 .6702-.28 1.1606-.61 1.47-.33.33-.8.5397-1.31.5397-.6 0-1.14-.2395-1.49-.6096-.106-.1203-.231-.2878-.331-.5068-.108-.2354-.188-.5314-.188-.8933Zm10.339-3.8898v4.4603l3.32-4.4603h2.341v7.8002h-2.521v-4.5302l-3.32 4.5302h-2.34v-7.8002h2.52Zm4.741-3.14966c-.098.29194-.241.56435-.415.80489-.121.16859-.258.32073-.406.45333-.095.08635-.196.16345-.3.23129-.167.11102-.344.19737-.525.26522-.208.0771-.419.12849-.627.16242-.323.05242-.634.0627-.898.0627-.579 0-1.38-.05037-2.049-.49034-.491-.31044-.911-.8604-1.121-1.48951l1.75-.68051c.07.34951.24.63014.45.79975.115.09458.245.17167.401.22513.156.05448.339.08532.559.08532.44 0 .73-.12027.96-.31045.107-.08635.204-.20148.283-.34025.075-.13364.134-.28783.168-.4595l1.77.68051Zm3.479 3.16916c-.42.1604-.96.44-1.29.6507l.98 1.69c.251-.2107.511-.3701.841-.5099.33-.1408.629-.2107 1.03-.2107.419 0 .669.0905.789.1408.181.0812.281.1933.332.3002.036.0771.049.1511.049.2097 0 .1501-.07.3793-.37.5191-.082.0381-.19.0658-.306.0864-.226.0411-.483.0545-.635.0545H121v1.7095h.94c.281 0 .7.0503.911.1398.098.0431.181.0976.242.1665.082.0904.128.2056.128.3536 0 .1141-.023.2632-.127.3999-.052.0678-.124.1336-.224.1902-.25.1398-.63.1901-.909.1901-.266 0-.556-.0421-.817-.1089-.143-.037-.276-.0812-.393-.1306-.311-.1408-.681-.3906-.961-.6301l-1.07 1.6601c.099.0792.261.2067.477.3465.101.0647.212.1326.333.1994.177.0966.376.1912.59.2734.701.2601 1.43.3505 2.13.3505 1.301 0 2.211-.1901 2.87-.8398.26-.2601.431-.5376.537-.8183.102-.2713.143-.5468.143-.812 0-.0689-.002-.1368-.008-.2025-.004-.0422-.008-.0843-.015-.1255l-.014-.0863c-.064-.3248-.213-.6127-.482-.8758-.11-.11-.471-.4205-1.051-.5603.06-.0216.118-.0483.176-.0781.048-.0247.095-.0524.141-.0822l.059-.0401c.042-.0288.082-.0596.121-.0915.057-.0463.112-.0966.163-.148.381-.3999.47-.8399.47-1.3302 0-.1491-.011-.2961-.038-.439-.014-.0781-.034-.1552-.059-.2312-.086-.2704-.238-.5253-.483-.7597-.789-.77-2.219-.7998-2.64-.7998-.6 0-1.25.0699-1.84.2796Zm14.62 4.3206h-5.82c0 .1449.019.3073.057.4718.072.3104.211.6291.414.8573.099.111.21.1984.326.2652.082.0473.166.0853.25.1152.25.0894.504.11.713.11.139 0 .28-.0103.416-.0309.223-.0349.432-.0997.594-.1994.03-.0195.33-.2097.54-.6497l2.38.2406c-.35 1.0999-1.05 1.6796-1.5 1.9593-.75.4502-1.59.5797-2.469.5797-1.171 0-2.201-.2097-3.111-1.1194-.68-.6805-1.17-1.7106-1.17-3.0099 0-1.1205.4-2.2697 1.19-3.0798.468-.4687.997-.7483 1.516-.9107.523-.1645 1.037-.2097 1.474-.2097.87 0 2.13.1603 3.1 1.1698.93.9807 1.1 2.1998 1.1 3.1702v.2704Zm-2.32-1.5009c-.02-.0699-.14-.5592-.51-.9097-.103-.0956-.222-.1799-.357-.2488-.087-.0452-.181-.0832-.281-.113-.167-.0504-.351-.0782-.552-.0782-.217 0-.403.0288-.565.0761-.323.0956-.549.2673-.715.4338-.19.2107-.37.4903-.44.8398h3.42Zm5.98-2.8392h-2.52v7.8002h2.52V15.27h2.82v3.0603h2.52v-7.8002h-2.52v2.7097h-2.82v-2.7097Z"/>
</svg>