<svg xmlns="http://www.w3.org/2000/svg" viewBox="0 0 169.5 40.8">
	<path fill="#000" d="M124.1 12.5V.6h-3.9v17.2h4.5l6.8-11.5v11.5h3.9V.6H131l-6.9 11.9zM94.5.6h-6.1L83 17.8h4.1l1.3-4.5h6l1.3 4.5h4.2L94.5.6zm-5 9.1l1.7-5.5h.4l1.7 5.5h-3.8zM155.3.6v3.6h4.7v13.6h4V4.2h3.4l2.1-3.6h-14.2zM59.1.6h-8.5l-2 3.6h3.2v13.6h4v-5.4h3.4c4.2 0 6.5-2.3 6.5-5.8 0-3.3-2.6-6-6.6-6zm-.2 8.3h-3.2V4.2h3.2c2.2 0 2.8 1.3 2.8 2.3s-.5 2.4-2.8 2.4zM146.5 4c1.8 0 3.3.7 4.3 2l3.4-1.7c-.9-1.5-3-4.1-7.2-4.1-5 0-9.2 4.1-9.2 9.1 0 5.3 3.9 9.1 8.9 9.1 1.7 0 3.6-.5 5-1.3 1-.6 2-1.7 2.6-2.7 0 0-3.3-1.8-3.4-1.7-.8 1.1-2 1.9-4.3 1.9-2.8 0-4.9-2-4.9-5.2C141.6 6 144 4 146.5 4zm-42.8 7.3c0 1.6-.6 2.8-2.2 2.8h-.3l1.2 3.7h.5c2.9 0 4.8-1.9 4.8-6.3V4.2h4.8v13.6h4V.6h-12.7l-.1 10.7zm-31.9-.4h6.9V7.4h-6.9V4.2H81V.6H67.8v17.2h12.9l1.1-3.6h-9.9l-.1-3.3zM78 23.6h-6l-5.4 17.2h4.1l1.3-4.5h6l1.3 4.5h4.2L78 23.6zm-5 9.1l1.7-5.5h.4l1.7 5.5H73zm-13.9-3.5h-3.4v-2h8.8v-3.6h-14l-2 3.6h3.2v13.6H59c4 0 6.6-2.8 6.6-5.9.2-3.5-2.3-5.7-6.5-5.7zm-.2 8.2h-3.2v-4.8h3.2c2.2 0 2.8 1.4 2.8 2.3s-.5 2.5-2.8 2.5zm37.5-7.3h-6.8v-6.5h-3.9v17.1h3.9v-7h6.8v7h4V23.6h-4v6.5zm18 1.9l4.5-8.4H115l-3.8 6.5h-3.1v-6.5h-4v17.1h4v-7h3.1l4 7h4.4l-5.2-8.7z"/>
	<path fill="url(#gr1)" d="M0 0v40.8h40.8V0H0zm34.1 34H6.8V6.8h27.3V34z"/>
	<radialGradient id="gr1" cx="-14.9949" cy="7.346" r="58.2104" gradientTransform="matrix(1 0 0 -1 0 42)" gradientUnits="userSpaceOnUse">
		<stop offset="0" stop-color="#0093d8"/>
		<stop offset=".3" stop-color="#006cb7"/>
		<stop offset="1" stop-color="#08296c"/>
	</radialGradient>
	<path fill="url(#gr2)" d="M28.8 12.3H15.2L12 17.7h13.6l3.2-5.4z"/>
	<radialGradient id="gr2" cx="5.9" cy="25.156" r="23.7364" gradientTransform="matrix(1 0 0 -1 0 42)" gradientUnits="userSpaceOnUse">
		<stop offset="0" stop-color="#0093d8"/>
		<stop offset=".3" stop-color="#006cb7"/>
		<stop offset="1" stop-color="#08296c"/>
	</radialGradient>
	<path fill="url(#gr3)" d="M28.8 23.2H15.2L12 28.6h13.6l3.2-5.4z"/>
	<radialGradient id="gr3" cx="5.9" cy="14.2311" r="23.7364" gradientTransform="matrix(1 0 0 -1 0 42)" gradientUnits="userSpaceOnUse">
		<stop offset="0" stop-color="#0093d8"/>
		<stop offset=".3" stop-color="#006cb7"/>
		<stop offset="1" stop-color="#08296c"/>
	</radialGradient>
</svg>