<svg xmlns="http://www.w3.org/2000/svg" viewBox="0 0 160 35.8">
	<path fill="#323e48" d="M36.6 4.1H44c1.6 0 3.2.6 4.4 1.8s1.9 2.7 1.9 4.3c0 1.7-.7 3.2-1.9 4.4-1.2 1.2-2.8 1.8-4.4 1.8h-4.6v5h-2.8V4.1zm7.1 9.7c.5 0 1-.1 1.4-.2.5-.2.9-.4 1.2-.8.3-.3.6-.7.8-1.2.2-.4.3-.9.3-1.4 0-.5-.1-1-.3-1.4-.1-.4-.4-.8-.7-1.2-.4-.3-.8-.6-1.2-.7s-.9-.2-1.4-.2h-4.3v7.1h4.2zm7.4 1.3c0-.9.1-1.7.4-2.5.3-.8.8-1.5 1.4-2.2.6-.6 1.3-1.1 2.1-1.4.8-.3 1.7-.5 2.5-.4 4 0 6 3.4 6 6.8v.6H54c.4 2.2 2.3 3.4 4.8 3.4 1.4 0 2.8-.4 4-1.1v2.4c-1.4.9-3 1.3-4.6 1.2-4-.1-7.1-2.7-7.1-6.8zm9.7-1.3c0-.4-.1-.8-.3-1.2-.2-.4-.4-.7-.7-1-.3-.3-.7-.5-1.1-.6-.4-.1-.8-.2-1.2-.2-.9-.1-1.7.2-2.3.8-.6.6-1.1 1.4-1.1 2.2h6.7zm5.3-5h2.8v4.9h6.4V8.8h2.8v12.6h-2.8v-5.3h-6.4v5.3h-2.8V8.8zm14.3 6.3c0-.9.1-1.7.4-2.5.3-.8.8-1.5 1.4-2.2.6-.6 1.3-1.1 2.1-1.4.8-.3 1.7-.5 2.5-.4 4 0 6 3.4 6 6.8v.6h-9.7c.4 2.2 2.3 3.4 4.8 3.4 1.4 0 2.8-.4 4-1.1v2.4c-1.4.9-3 1.3-4.6 1.2-3.8-.1-6.9-2.7-6.9-6.8zm9.7-1.3c0-.4-.1-.8-.3-1.2-.2-.4-.4-.7-.7-1-.3-.3-.7-.5-1.1-.6-.4-.1-.8-.2-1.2-.2-.9-.1-1.7.2-2.3.8-.6.6-1.1 1.4-1.1 2.2h6.7zm4.4 1.3c0-.9.2-1.8.5-2.6s.9-1.6 1.5-2.2c.6-.6 1.4-1.1 2.2-1.4.8-.3 1.7-.5 2.6-.4 1.3 0 2.6.3 3.8.8v2.4c-1-.6-2.2-.8-3.4-.8-.6 0-1.2.1-1.7.3-.5.2-1 .5-1.5.9-.4.4-.8.9-1 1.4-.2.5-.4 1.1-.4 1.7 0 .6.1 1.2.3 1.7.2.5.6 1 1 1.4.4.4.9.7 1.5.9.5.2 1.1.3 1.7.2 1.3 0 2.5-.3 3.6-.9v2.4c-1.2.7-2.6 1-4 1-.9 0-1.8-.1-2.6-.4-.8-.3-1.6-.8-2.2-1.4-.6-.6-1.1-1.4-1.5-2.2-.2-1-.4-1.9-.4-2.8zm12.2 0c0-.9.2-1.8.5-2.6s.9-1.6 1.5-2.2c.6-.6 1.4-1.1 2.2-1.4.8-.3 1.7-.5 2.6-.4 1.3 0 2.6.3 3.8.8v2.4c-1-.6-2.2-.8-3.4-.8-.6 0-1.2.1-1.7.3-.5.2-1 .5-1.5.9-.4.4-.8.9-1 1.4-.2.5-.4 1.1-.4 1.7 0 .6.1 1.2.3 1.7.2.5.6 1 1 1.4.4.4.9.7 1.5.9.5.2 1.1.3 1.7.2 1.3 0 2.5-.3 3.6-.9v2.4c-1.2.7-2.6 1-4 1-.9 0-1.8-.1-2.6-.5-.8-.3-1.6-.8-2.2-1.4-.6-.6-1.1-1.4-1.5-2.2-.2-.9-.4-1.8-.4-2.7zm26.2 3.9v2.1c-.5.3-1 .4-1.6.4-.6 0-1.1-.1-1.6-.4-.5-.3-.8-.8-1-1.4-.6.6-1.3 1.2-2.1 1.5-.8.3-1.7.5-2.5.5-2.6 0-4.7-1.5-4.7-4.2s2.1-3.7 4.8-3.7h4.3v-.2c0-2.2-1.8-2.7-3.7-2.7-1.4 0-2.7.4-3.9 1.1V9.6c1.4-.7 3-1 4.6-1 3.4 0 5.8 1.6 5.8 4.8V18.5c0 .1.1.3.2.4l.3.3c.1.1.3.1.4.1.3 0 .5-.1.7-.3zm-4.6-3.1H125c-1.8 0-3 .4-3 1.6 0 1.4 1.2 1.9 2.7 1.9.7 0 1.3-.1 1.9-.4.6-.3 1.2-.6 1.6-1.1l.1-2zm6.6-7.1h2.8v4.9h6.3V8.8h2.8v12.6H144v-5.3h-6.4v5.3h-2.8l.1-12.6zm14.3 6.3c0-.9.2-1.8.5-2.6s.9-1.6 1.5-2.2c.6-.6 1.4-1.1 2.2-1.4.8-.3 1.7-.5 2.6-.4 1.3 0 2.6.3 3.8.8v2.4c-1-.6-2.2-.8-3.4-.8-.6 0-1.2.1-1.7.3-.5.2-1 .5-1.5.9-.4.4-.8.9-1 1.4-.2.5-.4 1.1-.4 1.7 0 .6.1 1.2.3 1.7.2.5.6 1 1 1.4.4.4.9.7 1.5.9.5.2 1.1.3 1.7.2 1.3 0 2.5-.3 3.6-.9v2.4c-1.2.7-2.6 1-4 1-.9 0-1.8-.1-2.6-.4-.8-.3-1.6-.8-2.2-1.4s-1.1-1.4-1.5-2.2c-.2-1-.4-1.9-.4-2.8zM36.6 28.2h1.3v2.4l2.3-2.4h1.6L39.1 31l3.1 3.4h-1.6L38 31.5v2.8h-1.4v-6.1zm7.3 0h3.5c.3.1.5.2.7.4.2.2.4.4.5.7.1.3.2.5.2.8 0 .3-.1.5-.2.8-.1.3-.3.5-.5.7-.2.2-.5.3-.7.4-.3.1-.5.1-.8 0h-1.4v2.4h-1.3v-6.2zm2.6 2.6c.6 0 .9-.3.9-.8s-.4-.8-.9-.8h-1.3v1.5h1.3zm4.2-2.6h4.5v1.1h-3.3v1.2h2.6v1.1h-2.6v1.6h3.5v1.1h-4.7v-6.1zm6.4 5h.6c.7-1.2 1-2.6.8-4v-.9h4.3v5.1h.8v2.4h-1.2v-1.3h-4.2v1.2H57l.1-2.5zm4.5 0v-3.9h-1.8c.1 1.3-.2 2.7-.7 3.9h2.5zm4-5h1.3v4l3-4H71v6.2h-1.2v-4l-3.2 4h-1v-6.2zm12.4 0v1.1h-2v5.1h-1.3v-5.1h-2v-1.1H78z"/>
	<path fill="url(#gr1)" d="M4 28.2H0V10.8c0-2.9 1.2-5.6 3.2-7.6S8 0 10.8 0h13.3v10.7c0 2.9-1.1 5.6-3.2 7.6-2 2-4.8 3.2-7.6 3.2H6.6l1.5-4h5.2c.9 0 1.8-.2 2.6-.5s1.6-.8 2.2-1.5c.6-.6 1.1-1.4 1.5-2.2.3-.8.5-1.7.5-2.6V4h-9.3c-1 0-1.9.2-2.7.5-.8.4-1.6.9-2.2 1.5S4.8 7.4 4.4 8.2c-.3.8-.5 1.7-.5 2.6L4 28.2z"/>
	<radialGradient id="gr1" cx="27.8587" cy="67.8522" r="1" gradientTransform="matrix(23.35 0 0 -23.35 -649.69 1611.368)" gradientUnits="userSpaceOnUse">
		<stop offset="0" stop-color="#d6005e"/>
		<stop offset="1" stop-color="#e3448a"/>
	</radialGradient>
</svg>