<svg xmlns="http://www.w3.org/2000/svg" viewBox="0 0 116.1 34">
	<g fill="#00863e">
		<path d="M41.3 31.1h-.7V33h-1.3v-5h1.3v2h.7l1.2-2H44l-1.5 2.4L44 33h-1.6c0-.1-1.1-1.9-1.1-1.9zm8-.7c.2-.1.2-.3.2-.5s-.1-.4-.2-.5c-.1-.2-.4-.2-.6-.2h-.8v1.4h.8c.2-.1.5-.2.6-.2zm.6-2.2c.4.2.6.4.8.6.2.3.3.6.3 1s-.1.7-.3 1c-.2.3-.4.4-.8.6-.4.2-.7.3-1.2.3h-.9V33h-1.4v-5h2.3c.5-.1.9 0 1.2.2zm7.4 3.7V33h-4v-5h3.9v1h-2.6v.9h2.2V31h-2.2v.9h2.7zm4.6-.9c-.1.4-.2.6-.3.9h1.9v-2.8h-1.4v.5c-.1.6-.2 1-.2 1.4zm3.7.9V34h-1.3v-1H61v1h-1.3v-2.1h.2c.3 0 .5-.2.6-.6.1-.4.2-1 .3-1.7l.1-1.5h4V32l.7-.1zm2.5-4h1.4v2.9l2-2.9H73v5h-1.4V30l-2 2.9h-1.3v-5zM80 29.1h-1.5v3.8h-1.4v-3.8h-1.5v-1.2H80v1.2zm9.3 2.9c.3 0 .4-.1.5-.2.1-.1.2-.3.2-.4 0-.4-.3-.5-.7-.5h-1V32h1zm-2.4-4.1h4.2V29h-2.8v.8h1.3c.6 0 1.1.1 1.4.4.4.3.4.6.4 1.1 0 .5-.2.9-.5 1.2-.4.3-.9.4-1.5.4H87l-.1-5zM97.1 31l-.6-1.6-.6 1.6h1.2zm.4 1h-2.1l-.4 1h-1.4l2.2-5h1.4l2.2 5h-1.6l-.3-1zm9.2-4.1v5h-1.4v-2h-2v2h-1.4v-5h1.4v1.9h2v-1.9h1.4zm5 3.2h-.6V33h-1.4v-5h1.4v2h.7l1.2-2h1.5l-1.6 2.4 1.6 2.6h-1.6l-1.2-1.9zm-59.8-23c0 1.3-.4 2.3-1.3 3-.9.7-2.1 1.1-3.8 1.1h-3.1V3.9h3.1c1.7 0 3 .4 3.8 1.1.9.8 1.3 1.9 1.3 3.1zm3.2-4.2c-.8-1.2-1.9-2-3.3-2.7-1.4-.6-3-1-5-1h-7.7v21.9h4.4v-6.2h3.3c1.9 0 3.6-.4 5-1s2.5-1.5 3.3-2.8c.7-1.2 1.2-2.6 1.2-4.2 0-1.4-.4-2.7-1.2-4zm18.4 14.6v3.7H58.3V.2H73V4H62.6v5.3h9.1v3.6h-9.1v5.6h10.9zm19.2 2c-.6.4-1.2.8-2 1.1-1.5.6-3.1 1-4.9 1-2.2 0-4.2-.5-6-1.4-1.8-1-3.2-2.3-4.2-4-1-1.7-1.5-3.6-1.5-5.8s.5-4.1 1.5-5.8c1-1.7 2.4-3 4.2-4 1.8-1 3.8-1.4 6-1.4 1.8 0 3.5.4 4.9 1 .6.3 1.2.6 1.9 1l-2.6 3C88.8 4.5 87.5 4 86 4c-1.4 0-2.8.4-3.9 1-1.2.6-2 1.5-2.7 2.7-.6 1.2-1 2.4-1 3.8s.4 2.7 1 3.8c.6 1.2 1.5 2 2.7 2.7 1.2.6 2.5 1 3.9 1 1.6 0 3-.4 4.3-1.3 0-.2 2.4 2.8 2.4 2.8z"/>
		<path d="M111.7 11.2c0 1.4-.4 2.7-1 3.8-.6 1.2-1.5 2-2.7 2.7-1.2.6-2.4 1-3.8 1s-2.7-.4-3.8-1c-1.2-.6-2-1.5-2.7-2.7-.6-1.2-1-2.4-1-3.8s.4-2.7 1-3.8c.6-1.2 1.5-2 2.7-2.7 1.2-.6 2.4-1 3.8-1s2.7.4 3.8 1c1.2.6 2 1.5 2.7 2.7.7 1.1 1 2.5 1 3.8zm2.9-5.8c-1-1.7-2.4-3-4.3-4-1.8-1-3.8-1.4-6.1-1.4s-4.3.4-6.1 1.4c-1.8 1-3.2 2.3-4.2 4-1 1.7-1.5 3.6-1.5 5.8S93 15.3 94 17c1 1.7 2.4 3.1 4.2 4 1.8 1 3.8 1.4 6.1 1.4s4.3-.5 6.1-1.4c1.8-1 3.2-2.3 4.3-4 1-1.7 1.5-3.6 1.5-5.8s-.7-4-1.6-5.8zM19.8 26.3c-1.5 1.2-3.3 2-5.5 2.5v-12h-3.6v6.3c-1.6-.8-2.9-1.9-3.9-3.2-1.2-1.5-2-3.3-2.5-5.5h11.9v-3.6H9.9c.8-1.6 1.9-2.9 3.2-3.9 1.5-1.2 3.3-2 5.5-2.5v12.1h3.6V10c1.6.8 2.9 1.9 3.9 3.2 1.2 1.5 2 3.3 2.5 5.5H16.7v3.6H23c-.8 1.6-1.9 3-3.2 4zm12.9-4l-.3-2c-.4-3.8-1.7-6.9-3.6-9.3-1.7-2.2-4-3.8-6.8-4.9V.3l-2 .3c-3.8.4-6.9 1.7-9.4 3.6-2.2 1.7-3.8 4-4.9 6.8H0l.3 2c.4 3.8 1.7 6.9 3.6 9.3 1.7 2.2 4 3.8 6.8 4.9V33l2-.3c3.8-.4 6.9-1.7 9.4-3.6 2.2-1.7 3.8-4 4.9-6.8h5.7z"/>
	</g>
</svg>