<svg xmlns="http://www.w3.org/2000/svg" viewBox="0 0 170 30">
	<path fill="#384A97" d="M21.2067 1.42752c2.953 1.39564 5.3644 3.72539 6.8617 6.62845l.0163.01605c1.1649 2.26558 1.7264 4.79288 1.6307 7.33848-.5055-.0083-1.0192-.0327-1.5289-.0698-1.5735-1.0232-11.4719-7.19508-11.4719-7.19508-.1713-.11289-.3698-.17764-.5748-.1876-.1387.00941-.2751.03652-.4059.08135-.0833.02877-.1644.06419-.2423.10625-3.9503 1.81012-7.8885 3.88478-10.2693 5.14478-.15758.0128-.31529.0238-.4719.0355-.09864.0077-.19687.016-.29454.0254.64414-.591 9.45404-8.33674 10.34274-8.39374.7827.0653 8.7446 6.72644 8.9362 6.89794 0 0-6.5229-6.93059-8.2187-7.7828-.2252-.13115-.4704-.22467-.7256-.27724-.2543.0498-.4982.14222-.7216.27337-1.9895.85608-12.09165 9.60457-12.09165 9.60457S.656315 13.9302 0 14.0812c.173901-3.2616 1.41681-6.37552 3.53669-8.86078C5.65671 2.73572 8.53583 1.01801 11.7294.332369c3.1936-.685644 6.5242-.3010412 9.4773 1.095151Zm-5.0873 7.38216c-.6808 0-7.19136 3.33082-9.18894 4.34182 5.34874-.436 9.43774.1915 14.46844 1.1942.8556.1694 1.7503.3398 2.6687.4909.7617.1256 1.5398.238 2.3253.3248-2.6296-1.9202-9.5845-6.36389-10.2693-6.36389l-.0042.01217Zm13.0945 7.62842c-2.6861.1361-5.379.0354-8.0475-.3016-5.7481-.6524-10.8155-1.0603-15.2265-.0575-1.96313.42-3.83607 1.1848-5.532193 2.2589.257047 1.0453.624633 2.0608 1.096673 3.0286 1.30474-.8084 2.71311-1.4365 4.18677-1.8671 3.13908-.9291 6.49825-1.0149 9.95545-.7293.6672.0548 1.3325.114 1.9977.1732 3.1916.2833 6.3812.5661 9.7718.3768.2335-.011.4658-.0254.6966-.0426l.2661-.0216c.235-.0204.4685-.0437.7006-.0702.2776-.9093.4686-1.8434.5707-2.7886l-.4076.0327-.0286.0083Zm-6.1967 7.8431c1.2654-.0293 2.5229-.2069 3.7466-.5301.7478-1.0055 1.3655-2.1012 1.8386-3.2611-.5953.1096-1.2231.2036-1.8264.2811-2.177.2717-4.4357.0642-6.6939-.1433-2.4232-.223-4.8459-.446-7.1671-.0769-2.269.3099-4.43949 1.1244-6.35143 2.3851-.89234.6142-1.69267 1.353-2.37679 2.193.86591.824 1.78217 1.5932 2.74368 2.3032 1.86297-2.0016 4.61484-3.3834 8.96884-3.5793 1.3554-.0614 2.5474.0703 3.7307.2009 1.0908.1206 2.1741.2402 3.3709.207l.0163.0204Zm-2.5193 1.1953c.8686.0083 1.7624.0166 2.7722-.0863.8574-.0874 1.7057-.2485 2.5358-.4809-1.7981 1.9623-4.0898 3.4067-6.6361 4.182-2.5462.7747-5.254.8527-7.8405.2252.2445-.4411.5401-.8517.8806-1.223.9489-.9546 2.1221-1.6557 3.4122-2.0387 1.8807-.6065 3.3387-.5926 4.8758-.5783ZM89.2846 12.3174c-.3081-.6867-.7273-1.2728-1.2577-1.7575-.5152-.4699-1.1263-.83565-1.8334-1.09851-.7021-.26285-1.4547-.39401-2.2578-.39401-.8081 0-1.5708.13614-2.288.40895-.7122.26784-1.3284.65187-1.8486 1.15157-.2747.2668-.5191.5623-.7331.8854-.195.295-.3648.6138-.5094.9557-.298.7122-.447 1.508-.447 2.3868 0 .8434.154 1.6087.4621 2.2954.3081.6868.7248 1.2701 1.2501 1.7498.5304.4903 1.144.8639 1.8411 1.1218.4433.1638.9038.2755 1.3817.3348.1495.0188.3008.0326.4536.0409.127.0072.2551.0105.3845.0105.9698 0 1.8057-.1466 2.5077-.4394.7021-.2982 1.3133-.7122 1.8335-1.2423.495-.5102.8738-1.119 1.1363-1.8262.2628-.7072.394-1.4521.394-2.2351 0-.5169-.054-1-.1622-1.4504-.0758-.3155-.1784-.6149-.3074-.8982Zm-2.7123 4.3718c-.101.5805-.2652 1.1012-.4925 1.5605-.2121.4394-.4975.7853-.8561 1.0382-.3586.2523-.7879.3785-1.288.3785-.5101 0-.9394-.1234-1.2879-.3713-.3485-.2524-.6364-.6032-.8637-1.0531-.2223-.4444-.3864-.9646-.4925-1.5606-.0255-.1505-.0479-.3038-.067-.4593-.0174-.1433-.0322-.2883-.0442-.4355-.0269-.3254-.0403-.6608-.0403-1.0066 0-1.581.2374-2.8035.7122-3.6673.4747-.8683 1.1692-1.30267 2.0834-1.30267.5354 0 .9824.1389 1.341.41667.3586.2778.6465.6464.8637 1.1062.2122.4594.3612.9845.447 1.5755.0909.5861.1364 1.1898.1364 1.8107 0 .7327-.0505 1.389-.1515 1.9701Zm-8.8264 3.4243h-4.1215l-.5302-1.5605c-.1768-.5202-.3637-1.0028-.5606-1.4471-.1415-.3282-.2829-.606-.4243-.8334-.0886-.1511-.1909-.2867-.3072-.4079-.0628-.0658-.1296-.1267-.2004-.1832-.1215-.1023-.259-.1876-.4127-.2556-.0894-.0393-.1841-.0731-.2843-.1007-.1511-.0454-.3183-.0781-.5018-.098-.0676-.0072-.1375-.0133-.2096-.0171-.0784-.0039-.1595-.0061-.2432-.0061v3.3264c0 .1715.0353.3254.106.4621.0335.0603.0768.1145.1297.1626.0673.0615.1503.1129.2491.1555.096.0404.2602.0831.4925.129.071.0138.1381.026.2011.0365l.1187.0188c.0498.0072.0967.0133.1406.0183.0382.0039.0742.0072.1078.0094v.591h-5.811v-.591c.1263-.005.3106-.0199.5531-.0454.2475-.0304.4268-.0658.5379-.1062.1818-.0653.3081-.1638.3788-.2955.0707-.1362.1061-.2955.1061-.4771v-7.6068c0-.1765-.0328-.3254-.0985-.4466-.0606-.1212-.1894-.2274-.3864-.3182-.1465-.0658-.3384-.1239-.5758-.1743-.2374-.05588-.4091-.08853-.5152-.09849v-.59102h5.811v.59102c-.1566.00996-.3434.03541-.5606.07579-.2172.0404-.3839.078-.5001.1135-.0698.0232-.1312.0514-.1844.0852-.0973.0609-.1672.1383-.2095.233-.0606.1416-.0909.2927-.0909.4548v3.576h.4924c.202 0 .4117-.0282.6288-.0835.055-.015.1088-.0338.1611-.0559.0399-.0166.0789-.0354.1171-.0565.0246-.0138.049-.0282.0729-.0437.0344-.0221.0682-.0459.1014-.0714l.023-.0182c.0422-.0338.0832-.0709.1231-.1107.3636-.3586.6364-.7194.8182-1.083.0766-.1555.1487-.3121.2163-.4704.0929-.2169.1774-.4366.2534-.6585.1516-.4244.2879-.783.409-1.0758.1214-.2983.3613-.6214.7199-.97007.0693-.06917.1448-.13281.2266-.19036.1267-.0891.2684-.16491.425-.22634.2574-.10569.5404-.15882.8485-.15882.5051 0 .904.12894 1.1969.38626.293.25788.4396.58603.4396.98503 0 .4394-.1239.783-.3714 1.0304-.2475.2424-.563.3636-.947.3636-.2423 0-.4797-.0709-.7122-.212-.0864-.0536-.1794-.1267-.2789-.2186-.1184-.109-.2461-.2451-.3832-.4078l-.0689-.083-.0871-.109c-.1515.1566-.2854.399-.4015.7271-.1113.3232-.2147.6065-.3107.8489-.066.1671-.1315.3215-.1962.4621-.0375.0813-.0749.1583-.1119.2308-.0904.1765-.1796.327-.2677.451-.187.2573-.4015.472-.644.6441v.1361c.7072.1871 1.2931.4953 1.7576.9242.2153.1987.4116.4178.589.6569.2054.2772.3854.581.54.9114.1263.2678.2551.5534.3864.8561.1364.2982.2551.5534.3561.7653.0408.0852.0812.1633.1213.2341.0207.0365.0414.0708.0618.1029.0226.0354.0451.0686.0675.0996.0691.0947.137.1666.204.2147.0661.0465.1268.0842.1823.1129.0718.0377.1348.0609.1888.0692.0703.0155.15.0304.2388.0459l.1856.0299.1859.021c.0907.01.1702.0183.2382.0244v.591Zm-27.4107-6.4929c.2526-.4394.3788-.9623.3788-1.5683 0-.9092-.3434-1.5832-1.0303-2.0226-.687-.44435-1.7249-.66681-3.1139-.66681h-5.9321v.59102c.1162.01494.2904.04819.5228.09849.2374.0454.4268.0985.5682.1588.0786.0332.1465.0703.2036.1107.0898.0631.1532.135.1903.2153.0103.0216.0199.0442.0286.0675.0109.0293.0203.0598.0284.0918.0058.0227.0109.046.0152.0698.0126.0697.0188.145.0188.2252v7.5842c0 .2069-.0329.3685-.0985.4847-.0227.0437-.0551.0847-.0968.1234-.0277.0255-.0595.0498-.0955.0731-.0549.0354-.1197.0686-.1941.099-.096.0404-.2652.0758-.5076.1063l-.5834.0603v.591h5.826v-.591c-.1564-.0149-.3485-.0454-.5758-.0908-.2271-.0453-.3913-.0885-.4923-.1289-.1089-.0459-.1983-.1002-.2682-.1621-.0534-.0471-.0953-.0991-.1258-.1561-.0656-.1361-.0985-.2955-.0985-.477v-3.0232h.8789c.7273 0 1.3814-.063 1.9621-.1892.5859-.1262 1.1062-.3309 1.5607-.6137.1269-.0786.2457-.1644.3565-.2568.0793-.0658.1544-.135.2254-.2075.174-.1782.3235-.3774.4485-.5966Zm-3.0684-2.9772c.3283.3885.4926.9873.4926 1.7952 0 .793-.2173 1.3818-.6517 1.7653-.2832.2501-.6532.4178-1.1102.503-.0527.0094-.1065.0183-.1616.026-.0741.01-.1504.0183-.2287.0244-.1234.01-.252.0149-.386.0149h-.3181v-4.7198h.6289c.8334 0 1.4117.197 1.7348.591Zm11.5614 9.4701h5.8109v-.591c-.1465-.01-.3359-.0354-.5682-.0758-.2273-.0404-.4016-.0858-.5228-.1362-.1919-.0857-.3207-.192-.3864-.3181-.0655-.1262-.0985-.2806-.0985-.4621v-7.6141c0-.1671.033-.3209.0985-.4626.0657-.1411.1945-.2446.3864-.3104l.0772-.0227.0789-.0211c.0927-.0237.1912-.0442.2954-.0619l.094-.0155c.1457-.02548.281-.04485.4058-.05703.0481-.00442.0948-.0083.1397-.01106v-.59102h-5.8109v.59102c.1313.01494.3056.05039.5228.10569.144.0332.2691.0681.3749.1051.0574.02.1092.0404.1554.062.197.0908.3283.197.394.3182.0655.1212.0985.2701.0985.4466v3.1366h-4.5913v-3.2119c0-.1621.0304-.3132.091-.4548.0656-.1467.1969-.2524.3939-.3182.1162-.0355.2829-.0731.5001-.1135.2171-.04038.404-.06583.5606-.07579v-.59102h-5.811v.59102c.1061.00996.2778.04261.5152.09849.2374.0504.4293.1085.5758.1743.0876.0404.1617.0836.2225.1301.0756.0581.1303.1206.1639.1881.0361.0664.0623.1417.0786.2252l.0097.0598.0069.067c.0022.0304.0033.062.0033.0946v7.6068c0 .0648-.0045.1262-.0134.1854-.0061.0404-.0143.0792-.0246.1168-.0087.0315-.0188.062-.0303.0913-.0112.0288-.0238.0564-.0378.0836-.0707.1317-.197.2302-.3788.2955-.1111.0404-.2904.0758-.5379.1062-.2425.0255-.4268.0404-.5531.0454v.591h5.811v-.591c-.1465-.01-.3359-.0376-.5682-.083-.2324-.0459-.3965-.0886-.4925-.129-.0616-.0265-.1171-.0564-.1663-.0902-.0923-.063-.1631-.1394-.2125-.2279-.0707-.1367-.1061-.2906-.1061-.4621v-3.6219h4.5913v3.7049c0 .0902-.0078.1732-.0234.249-.0177.0852-.0452.1616-.0827.2286-.0707.1211-.1995.2196-.3864.2955-.0909.0404-.2576.0702-.5.0907l-.5531.0454v.591Zm57.4508-9.0871c-.101-.1096-.206-.2153-.316-.3166l-.008-.0121c-.527-.4748-1.14-.84285-1.806-1.08468-.715-.2612-1.47-.39235-2.23-.38737-.385.00055-.767.03486-1.144.10293-.378.06862-.749.17044-1.111.30492-.683.254-1.305.6486-1.827 1.1577-.521.5085-.931 1.1211-1.202 1.7979-.305.7477-.456 1.549-.444 2.3563-.012.7798.144 1.5523.456 2.2667.153.3514.344.684.57.9917.1.1367.206.2678.32.394.105.1179.217.2307.333.3387.528.4853 1.146.8616 1.819 1.1089.7.2552 1.44.3835 2.185.3791.481.0116.961-.0321 1.431-.1284.355-.0725.704-.1754 1.043-.3077.679-.2838 1.294-.6994 1.81-1.2229.496-.5158.878-1.1295 1.122-1.8019.258-.705.389-1.4504.387-2.2013.013-.7975-.144-1.5882-.461-2.3198-.139-.3149-.309-.6137-.506-.8937-.129-.1832-.27-.3575-.421-.5224Zm-1.942 6.5327c-.081.2534-.179.5013-.294.7415l.024.0288c-.189.4073-.48.7598-.844 1.0232-.379.2435-.821.3724-1.272.3724-.451 0-.892-.1289-1.272-.3724-.363-.2712-.654-.6264-.848-1.0359-.236-.487-.399-1.0061-.485-1.5407-.104-.6209-.154-1.2501-.151-1.8793 0-1.5616.237-2.768.702-3.6285.181-.3863.469-.7128.831-.9402.208-.1312.435-.2263.671-.2828.175-.042.355-.06252.536-.06086.475-.01937.943.12456 1.325.40726.037.0288.073.0587.108.0897.04.0348.08.0708.118.1079.077.0753.15.1549.219.2385.162.1981.298.4173.403.6524.222.4953.373 1.0199.448 1.5573.084.5877.125 1.1803.123 1.7736.006.6524-.045 1.3049-.151 1.9484-.044.2712-.108.5385-.191.7997Zm-15.1297 2.6784h6.5187v-.5623c-.142-.0044-.283-.0188-.423-.0431l-.087-.0166c-.034-.0067-.068-.0139-.101-.0222-.139-.0332-.275-.0752-.408-.1261-.277-.114-.528-.2834-.738-.4975-.217-.2087-.411-.4394-.579-.689l-1.223-1.7244c-.224-.3198-.471-.6812-.743-1.0824-.247-.3658-.514-.7648-.802-1.1964l1.223-1.4189.302-.3442c.242-.2767.493-.5633.754-.85l.163-.1771.127-.1344c.139-.1467.272-.2817.399-.4062.226-.2153.488-.3891.774-.5136.133-.0575.269-.1057.408-.1427.14-.0366.284-.0609.428-.0736v-.58275h-4.13v.58275c.332.016.66.078.975.1837.063.0277.116.073.153.1311.037.0581.056.1262.055.1948-.063.2579-.186.497-.359.6973-.054.0747-.125.1688-.213.2817l-.187.239-.266.3315-.211.2584-.158.1926-.24.29-.307.3697-.191.2302-.8565-1.3082-.2975-.4599c-.1064-.1655-.1937-.3027-.2611-.4128-.1032-.1633-.1971-.3321-.2813-.5053-.0396-.0835-.0631-.1732-.0694-.265 0-.1389.1223-.2408.3629-.3138.3666-.0836.741-.1289 1.117-.135v-.58275h-6.4779v.58275c.1931.0138.3852.0393.5748.0774.0718.0172.1429.0371.2131.0598.0755.0244.15.052.2231.083.278.1112.5303.2778.742.4892.2223.2081.4218.4388.5952.689l1.1659 1.6673c.4566.6525.9173 1.3254 1.374 2.0182-.1665.1915-.33.3774-.4906.56-.3077.3492-.6049.6868-.8915 1.0299-.2453.2933-.4777.5506-.6958.7919-.1697.1881-.3308.3669-.4824.5451-.0954.1112-.1938.2202-.2947.3265l-.1216.1245c-.0914.0924-.1851.1826-.2808.2706-.2187.2125-.469.3901-.742.5263-.1231.0509-.2498.0935-.3792.1261-.0633.0133-.127.0249-.191.0343-.1056.0155-.2118.026-.3185.031v.5706h4.1135v-.5706c-.2015-.0127-.4018-.0398-.5994-.0813-.1245-.0183-.2455-.0554-.3587-.1101-.073-.0238-.1353-.0731-.1753-.1389-.0245-.0548-.0357-.1151-.0326-.1755.038-.1472.0922-.2888.1614-.4228.0681-.1322.1505-.2573.2463-.3718.2812-.3957.9457-1.1865 1.9894-2.4095l.9091 1.3619c.1779.2706.3357.5136.4711.7283.084.135.16.259.226.3724.1.1572.19.3204.269.4892.051.0963.084.2014.098.3099 0 .0293-.005.0575-.016.0841-.011.0282-.029.0548-.052.0797-.021.0216-.045.042-.075.0614-.035.0227-.077.0443-.126.0642-.391.1051-.7939.1583-1.1987.1588v.5706ZM121.487 10.204l-.534-.094v-.58275h9.502V10.11c-.18.0105-.36.0321-.537.0653-.091.0143-.18.0315-.269.052-.089.0205-.178.0437-.266.0703-.082.0221-.158.0608-.224.114-.066.0536-.12.12-.159.1959-.026.0558-.047.1134-.063.1726-.024.0913-.036.1854-.035.28v7.5095c-.004.1577.029.3143.098.4565.087.1461.223.2573.383.3138.168.0625.341.1073.518.1344.183.0393.368.0681.554.0858v.5706h-5.756v-.5706l.563-.0448c.068-.0017.135-.0077.202-.0172.036-.0049.072-.011.107-.0188.03-.0061.06-.0133.09-.0216.036-.0094.071-.0204.106-.032.157-.0515.291-.1533.384-.2895.033-.0664.059-.1361.076-.208.021-.0864.029-.1755.026-.2651v-8.4104h-2.532c-.036 1.5506-.217 3.094-.538 4.6108-.223 1.0814-.576 2.1311-1.052 3.1272-.323.6995-.79 1.3232-1.37 1.8301-.377.3298-.853.5246-1.353.5545-.034.0011-.067.0011-.101.0005-.049-.0005-.098-.0028-.147-.0072l-.064-.0072c-.033-.0038-.065-.0088-.097-.0144-.139-.0238-.275-.0619-.407-.114-.187-.0758-.353-.1942-.485-.3469-.116-.1362-.197-.2983-.236-.4726-.02-.0819-.035-.1649-.045-.2485-.01-.0786-.015-.1577-.016-.2368-.013-.2037.019-.4073.096-.5966.076-.1887.193-.3586.344-.4958.283-.2474.647-.3808 1.023-.3752.285.0033.562.0963.791.2651.281.2025.536.4393.758.705.071-.1179.139-.2374.204-.3581.056-.1035.11-.2075.162-.3132.083-.1666.161-.3359.233-.5069.229-.5152.42-1.047.571-1.5899.189-.6231.339-1.2578.449-1.8997.116-.6934.171-1.3962.163-2.0996.002-.0658.002-.1317-.001-.1975-.002-.0786-.008-.1567-.017-.2347-.014-.1289-.037-.2568-.068-.3829-.024-.1035-.071-.1998-.139-.2817-.067-.0819-.152-.1472-.248-.1915-.204-.0785-.416-.135-.632-.1671l-.012-.0039Zm18.83 9.9267h5.74v-.5828c-.122-.0121-.302-.0409-.53-.0813-.046-.0066-.092-.0144-.137-.0238-.05-.01-.098-.0216-.147-.0349-.069-.0193-.138-.042-.205-.068-.158-.0609-.292-.171-.383-.3138-.066-.1433-.098-.2994-.094-.4565v-7.4973c-.001-.1599.031-.3182.094-.4648.039-.0748.093-.1412.159-.1937.066-.0526.142-.0908.224-.1118.065-.0199.131-.0382.197-.0548.101-.0255.202-.0465.304-.0636.172-.0366.347-.0609.522-.0736v-.58275h-4.696c-.017.14056-.041.28001-.074.41725-.012.05146-.026.1024-.04.1533-.058.2523-.129.5014-.212.7465l-2.206 5.6705-2.613-6.98755h-4.892v.57885c.214.0155.426.0454.636.0896.224.0526.433.1555.611.3016.165.1301.289.3038.359.5014.091.2623.132.5384.122.8157v5.2505c.012.4759-.025.9513-.11 1.4189-.037.28-.183.5335-.407.7056-.208.1416-.445.2335-.693.2689l-.202.0393c-.178.036-.312.0625-.406.0625v.5706h4.599v-.5828c-.23-.0348-.456-.089-.677-.1632-.13-.031-.257-.0753-.378-.1317-.101-.047-.198-.1024-.29-.166-.207-.1865-.35-.4333-.408-.705-.095-.4638-.136-.9375-.123-1.4106V10.53l2.683 7.2853c.09.2933.232.6928.408 1.1782.175.4853.289.8112.334.9745h.929l3.657-9.3279v7.9333c.009.1738-.032.3465-.118.4975l-.029.0399-.009.0116c-.018.0216-.036.0415-.055.0609-.016.0155-.032.0304-.049.0448-.015.0122-.031.0243-.047.0354-.066.0476-.14.0847-.219.109-.162.062-.332.1002-.505.114-.245.0493-.453.0736-.624.0736v.5706Zm12.398.2938c-.744.0055-1.483-.1228-2.182-.3791-.321-.1162-.629-.2645-.918-.4416-.305-.187-.591-.4067-.851-.6552-.515-.4869-.92-1.0791-1.186-1.7365-.568-1.4692-.568-3.0967 0-4.566.278-.6851.694-1.3054 1.223-1.8223.52-.5141 1.142-.9125 1.826-1.16983.387-.1472.787-.25511 1.193-.32262.361-.06032.727-.0891 1.094-.08522.543-.00775 1.085.06474 1.607.21582.422.12174.832.28444 1.223.48532l.464-.40785h.649l.069 3.87318h-.661c-.252-.9568-.71-1.8472-1.341-2.6092-.242-.264-.538-.4732-.868-.6138-.33-.1405-.685-.20913-1.044-.20138-.436-.01273-.867.09738-1.243.31708-.377.2197-.685.5407-.889.9264-.489.8151-.734 1.9728-.734 3.473-.015.7288.07 1.4554.253 2.161.129.5163.35 1.0049.652 1.4432.268.3525.62.6331 1.024.8152.169.0752.344.1344.522.1776.255.062.518.0919.782.0874.076.0011.151-.0005.226-.0044.168-.0094.335-.0321.499-.0675.114-.0249.226-.0559.337-.093.283-.0946.553-.2296.801-.4017.194-.1445.378-.3016.549-.4704.225-.2214.429-.4621.611-.7194.048-.0686.095-.1384.14-.2092.066-.1046.129-.2119.188-.3215l.644.4078c-.201.4178-.447.813-.733 1.1782-.268.3359-.584.6303-.938.8721-.078.0543-.158.1063-.239.1561-.129.0786-.26.1511-.395.2175-.216.1062-.441.197-.671.2706-.545.1654-1.113.244-1.683.2324v-.0122Zm13.208-.2938H170v-.5623c-.102-.0122-.253-.0249-.408-.0492l-.067-.01-.038-.0066c-.113-.0172-.215-.0338-.302-.0526-.132-.0349-.256-.0957-.363-.1793-.106-.0935-.2-.1998-.279-.316-.069-.1024-.128-.2125-.174-.3281-.042-.0869-.083-.1821-.128-.285l-.073-.1672c-.043-.0968-.09-.1986-.145-.306-.117-.2269-.221-.446-.32-.6563l-.009-.0183-.079-.1654c-.265-.5838-.643-1.109-1.113-1.5451-.496-.4598-1.103-.7841-1.761-.9418v-.1345c.127-.0913.245-.1931.354-.3044l.072-.0758.05-.0553c.056-.0659.109-.1339.16-.2042.179-.2723.334-.5595.462-.8583l.05-.1212c.019-.047.037-.0941.055-.1417l.101-.2656.068-.1815c.046-.124.093-.2551.14-.3929.083-.2645.222-.508.408-.7133.104.145.218.2822.342.4095.145.1488.304.2844.473.4056.21.1334.453.2053.702.2081.026.0011.052.0011.078.0005.038-.0011.076-.0038.115-.0083.058-.0066.116-.0177.174-.0326.045-.0122.09-.0266.134-.0437.035-.0133.069-.0283.103-.0449.023-.011.045-.0226.067-.0354.094-.0531.181-.1184.258-.1942.128-.135.227-.295.291-.4693.063-.1749.091-.3602.08-.5462.002-.1023-.008-.2036-.031-.3032-.011-.0471-.024-.0936-.04-.1389-.011-.0305-.023-.0609-.037-.0908-.027-.0597-.059-.1173-.095-.1721-.064-.09738-.143-.18537-.233-.26118-.33-.27172-.751-.41006-1.178-.38737-.071 0-.141.00332-.21.00996-.079.00719-.157.01937-.234.03541-.127.02657-.251.06475-.372.114-.24.0891-.46.228-.644.40729-.297.26669-.538.58939-.709.95019-.123.2977-.257.6602-.408 1.068-.13.3791-.283.7493-.46 1.109-.211.4001-.486.7626-.816 1.0719-.161.1677-.366.2872-.591.347-.203.0553-.413.0841-.624.0852h-.485v-3.5262c-.001-.0614.003-.1223.013-.1826.015-.0913.042-.181.081-.2656.037-.0775.091-.1456.157-.1998s.143-.093.226-.1145c.073-.0211.166-.0471.28-.072.064-.0144.135-.0288.213-.042.217-.0366.4-.0736.555-.0736v-.57888h-5.732V10.11c.102.0127.273.0448.51.094.193.0421.383.1008.566.1755.099.0392.188.0979.264.171l.015.0149.023.0249c.03.0332.057.0686.082.1068.015.0304.028.062.04.0941.012.0332.022.0669.03.1012.005.0205.009.041.013.0615.01.0608.013.1223.01.1837v7.5133c.004.161-.03.3204-.102.4649-.082.1427-.216.2479-.375.2932-.17.0565-.347.0908-.526.1024-.244.0321-.428.0487-.55.0487v.5706h5.728v-.5911c-.189-.0166-.377-.0442-.563-.0813-.165-.0271-.328-.0692-.485-.1267-.081-.0305-.156-.0747-.22-.1306-.059-.052-.111-.114-.151-.1832-.073-.1406-.11-.2977-.106-.4565v-3.2611c.318-.0056.634.031.942.1095.25.0731.483.1948.685.3592.201.161.373.3569.505.5788.153.2629.289.5351.408.8152.196.4405.379.9213.554 1.431.081.233.16.4671.239.7012l.283.8356Zm4.057 6.5637H40.6409v-1.0642H169.98v1.0642Z"/>
</svg>