<svg xmlns="http://www.w3.org/2000/svg" viewBox="0 0 160 29.3">
	<path fill="#e7002a" d="M0 0h29.2v14.9H0V0z"/>
	<path fill="#000" d="M48 14.6c.3 0 .6 0 .9-.1.3-.1.5-.3.8-.5s.4-.5.5-.8c.1-.3.2-.6.1-.9 0-.3 0-.7-.1-1-.1-.3-.3-.6-.5-.9-.2-.2-.5-.4-.8-.6-.3-.1-.6-.2-1-.2h-6.3v4.8c0 .1 6.4.2 6.4.2zm-.1-7.3c.7-.1 1.4 0 2 .3.6.2 1.2.6 1.7 1.1.5.5.9 1 1.1 1.7.2.6.4 1.3.3 2 0 3-2 4.7-5.2 4.7h-6.3V22h-2.7V7.3h9.1zm15.1 2c-3.4 0-5.7 2.3-5.7 5.2s2.2 5.2 5.7 5.2 5.6-2.2 5.6-5.2-2.1-5.2-5.6-5.2zm0 12.9c-4.6 0-8.5-3.1-8.5-7.7s3.8-7.7 8.5-7.7 8.5 3.2 8.5 7.8-3.7 7.7-8.5 7.6c.1.1 0 0 0 0zm19.7.1c-4.9 0-8.6-3.1-8.6-7.7s3.7-7.7 8.6-7.7c2.4-.1 4.8.7 6.8 2.2l-1.4 2.2c-1.5-1.2-3.3-1.8-5.2-1.8-3.6 0-5.8 2.2-5.8 5.2s2.2 5.2 5.8 5.2c1.9 0 3.8-.6 5.4-1.8l1.4 2c-2 1.4-4.5 2.2-7 2.2 0-.1 0 0 0 0zM114 16h5.6l-2.8-6-2.8 6zm-1.1 2.4l-1.7 3.5h-2.9l7.1-14.6h2.8l7.1 14.6h-2.9l-1.7-3.5h-7.8zm26.7 3.5v-6.3h-9.5v6.2h-2.7V7.3h2.7v5.9h9.5V7.3h2.7v14.6h-2.7zm6.7 0V7.3h2.7v6.8l7.3-6.8h3.3l-7.5 7 7.9 7.6h-3.6l-7.4-7.1v7.1h-2.7zm-44.5-2.5h-6.5V15h6.5c1.7 0 2.6.9 2.6 2.2.1 1.3-.7 2.2-2.6 2.2zm-.1-6.8h-6.3v-3h10.4V7.3H92.6v14.6h9c3.2 0 5.4-1.7 5.4-4.6s-2.2-4.7-5.3-4.7M0 14.6h29.2v14.6H0V14.6z"/>
	<path fill="#fff" d="M5.1 13.7h19v1.8h-19v-1.8z"/>
</svg>