<svg xmlns="http://www.w3.org/2000/svg" viewBox="0 0 200 24.3">
	<g fill="#4d4d4d">
		<path d="M6.6 10.8c0-1.1-.9-1.7-2-1.7H2.3v3.5h2.3c1.1-.1 2-.8 2-1.8zm2.3 0c0 2-1.5 4-4 4H2.3v4H0v-12h4.3c3.2 0 4.6 1.7 4.6 4zm11.3 2c0-2.2-1.8-4-4-4s-4 1.8-4 4 1.8 4 4 4 4-1.7 4-4zm2.3 0c0 3.5-2.8 6.3-6.3 6.3s-6.3-2.8-6.3-6.3 2.8-6.3 6.3-6.3 6.3 2.8 6.3 6.3zm10.6 2.8l.9 2.1c-1 .9-2.6 1.5-3.9 1.5-3.5 0-6.4-2.8-6.4-6.3s2.9-6.3 6.4-6.3c1.3 0 2.9.5 3.9 1.4l-.9 2c-.8-.8-1.8-1.2-3-1.2-2.3 0-4.2 1.8-4.2 4s1.9 4 4.2 4c1.2.1 2.2-.4 3-1.2zm12 3.3h-2.9l-4.6-5.3v5.3h-2.3V6.8h2.3v5l4.3-5h2.9l-5.2 5.8 5.5 6.3z"/>
		<path d="M54.9 12.8c0-2.2-1.8-4-4-4s-4 1.8-4 4 1.8 4 4 4c2.2.1 4-1.7 4-4zm2.3 0c0 3.5-2.8 6.3-6.3 6.3s-6.3-2.8-6.3-6.3 2.8-6.3 6.3-6.3c3.4 0 6.3 2.8 6.3 6.3zm10.5 2.8l.9 2.1c-1 .9-2.6 1.5-3.9 1.5-3.5 0-6.4-2.8-6.4-6.3s2.9-6.3 6.4-6.3c1.3 0 2.9.5 3.9 1.4l-.9 2c-.8-.8-1.8-1.2-3-1.2-2.3 0-4.2 1.8-4.2 4s1.9 4 4.2 4c1.2.1 2.3-.4 3-1.2zm16 3.3h-2.4l-1-7.9-3.2 7.9H76L72.8 11l-1 7.9h-2.4L71 6.8h2.3l3.2 7.8 3.2-7.8H82l1.7 12.1zm11-6.1c0-2.2-1.8-4-4-4s-4 1.8-4 4 1.8 4 4 4c2.2.1 4-1.7 4-4zm2.3 0c0 3.5-2.8 6.3-6.3 6.3s-6.3-2.8-6.3-6.3 2.8-6.3 6.3-6.3c3.4 0 6.3 2.8 6.3 6.3zm10.4 2.8l.9 2.1c-1 .9-2.6 1.5-3.9 1.5-3.5 0-6.4-2.8-6.4-6.3s2.9-6.3 6.4-6.3c1.3 0 2.9.5 3.9 1.4l-.9 2.1c-.8-.8-1.8-1.2-3-1.2-2.3 0-4.2 1.8-4.2 4s1.9 4 4.2 4c1.2 0 2.3-.5 3-1.3zm55.3-.6c0-1-.9-1.6-2-1.6h-2.6v3.2h2.6c1.1 0 2-.5 2-1.6zm2.3 0c0 2.3-1.5 3.9-4.6 3.9h-4.6V6.8h8.1v2.3h-5.8v2h2.6c2.8 0 4.3 1.5 4.3 3.9zm7.9-.7l-1.7-4.3-1.7 4.3h3.4zm.9 2.3h-5.1l-.9 2.3h-2.6l5-12.1h2.1l5 12.1h-2.6l-.9-2.3zm14.3-9.8v12.1h-2.3V14h-5.2v4.9h-2.3V6.8h2.3v4.9h5.2V6.8h2.3zM200 18.9h-2.9l-4.6-5.3v5.3h-2.3V6.8h2.3v5l4.3-5h2.9l-5.2 5.8 5.5 6.3zM132 5.5h.2c-7.8 2.4-13.9 6.6-14.1 9.6-.1 3.3 6.7 4 15.2 1.7 8.6-2.3 15.6-6.8 15.7-10.1.1-1.7-1.7-2.7-4.7-3 3.6.2 5.8 1.2 5.8 3.1 0 3.6-8.2 8.8-18.2 11.6-10.1 2.9-18.2 2.3-18.2-1.3.1-3.5 8.3-8.7 18.3-11.6z"/>
	</g>
	<path fill="#f01941" d="M117.8 24.3L143 0l-2.3 19.1-4.2-4.8c.1 0-18.7 10-18.7 10z"/>
</svg>