<svg viewBox="0 0 170 30" xmlns="http://www.w3.org/2000/svg">
	<path fill="#21DBBC" d="M22.0225 6.42917c0-3.56794 2.8777-6.4241322 6.4446-6.4241322 3.5648 0 6.4753 2.8551722 6.4753 6.3923922 0 3.53721-2.8787 6.39237-6.4753 6.39237-3.568.0328-6.4446-2.82238-6.4446-6.36063ZM34.159 29.332c1.7983.0072 3.4799-.891 4.4732-2.3902L50.9879 8.22953c1.6263-2.45065.9391-5.74107-1.532-7.355037-2.4722-1.612947-5.7882-.9309012-7.4145 1.520777L29.6858 21.1392c-1.6263 2.4517-.9391 5.7411 1.532 7.3561.8848.5438 1.9028.8336 2.9412.8367Zm11.8559-6.3924c0-3.5382 2.8777-6.3924 6.4754-6.3924 3.5659 0 6.4753 2.8542 6.4753 6.3924 0 3.5372-2.8787 6.4241-6.4753 6.4241-3.5977-.0317-6.4754-2.8869-6.4754-6.4241Z"/>
	<path fill="#1E1F1A" d="M19.425.00488281c3.5669 0 6.4446 2.85619719 6.4446 6.42413719 0 3.53824-2.8459 6.39338-6.4446 6.39238-3.5966 0-6.4753-2.85414-6.4753-6.39238 0-3.56897 2.9104-6.42413719 6.4753-6.42413719ZM0 24.024c0 2.9493 2.40867 5.3068 5.34986 5.3068 2.94017 0 5.34884-2.3575 5.34884-5.3058V5.31071c0-2.91662-2.40867-5.30582719-5.34884-5.30582719C2.40867.00488281 0 2.39512 0 5.31173V24.024Zm71.7918.8399c2.378 0 4.1609-1.8004 4.1609-4.0974 0-2.3278-1.8147-4.0974-4.1619-4.0964h-4.3166c-.1884 0-.3133.1546-.3133.3103v11.857c.002.172.1423.3092.3133.3092h1.4389c.1884 0 .3134-.1546.3134-.3092v-3.6632c.002-.1721.1413-.3103.3133-.3103h2.252Zm0-6.2685c1.2197 0 2.0963.8992 2.0963 2.1711 0 1.2422-.8756 2.1731-2.0963 2.1731h-2.252c-.1884 0-.3133-.1557-.3133-.3103v-3.7246c.002-.1721.1423-.3093.3133-.3093h2.252Zm9.4155 1.3958c-2.5961 0-4.7231 2.0482-4.7231 4.6863s2.0953 4.6545 4.7231 4.6862c2.6289 0 4.7242-2.0481 4.7242-4.6862 0-2.6698-2.0964-4.6863-4.7242-4.6863Zm-.001 1.8926c1.5648 0 2.7845 1.1807 2.7845 2.7937 0 1.6129-1.2197 2.7927-2.7845 2.7927s-2.7845-1.1798-2.7845-2.7927c0-1.615 1.2207-2.7937 2.7845-2.7937Zm10.7007-1.8926c-2.6902 0-4.7241 2.0482-4.7241 4.6863s2.0339 4.6545 4.7252 4.6862c1.5955 0 3.0026-.7455 3.8168-1.9242.1567-.2171.0942-.466-.125-.5899l-1.3139-.7445c-.4383.807-1.3149 1.3651-2.3779 1.3651-1.5966 0-2.7845-1.1798-2.7845-2.7927 0-1.615 1.2207-2.7937 2.7845-2.7937.938 0 1.7204.3727 2.1577 1.0251.127.1608.3482.212.5326.1239l.9698-.5581c.1864-.0942.2488-.3738.1239-.5592-.7824-1.1797-2.1895-1.9243-3.7851-1.9243Zm9.571 2.079h2.284c.187 0 .344-.125.342-.2796v-1.2105c0-.1557-.126-.3103-.313-.3103h-7.1322c-.1566 0-.3123.1249-.3123.3103v1.2105c.001.172.1403.3103.3123.3103h2.2838c.172 0 .3113.1382.3123.3103v6.3616c.001.1721.1413.3103.3134.3103h1.2827c.173 0 .313-.1382.314-.3103v-6.3923c0-.1547.126-.3103.313-.3103Zm11.104 6.8901v-1.0866c3.473-.2796 5.819-2.0789 5.819-4.9648 0-2.9177-2.346-4.6873-5.819-4.9658v-1.0866c0-.1864-.156-.3421-.344-.3421h-1.314c-.188 0-.345.1567-.345.3421v1.0866c-3.471.2795-5.849 2.0492-5.849 4.9658s2.378 4.6862 5.849 4.9648v1.0866c.003.1894.157.341.345.342h1.314c.189-.001.342-.1536.344-.342Zm-2.032-8.7827v5.4308c0 .2171-.188.3728-.406.3717-2.127-.3103-3.378-1.3036-3.378-3.0722 0-1.8004 1.251-2.7938 3.378-3.0723.02-.0031.04-.0051.061-.0051.19.001.345.1556.345.3471Zm2.44-.341c2.095.3093 3.347 1.2719 3.347 3.0723 0 1.7686-1.221 2.7302-3.346 3.0415-.22.0308-.408-.1259-.408-.342v-5.4308c0-.0205.002-.0409.006-.0614.033-.1885.213-.3134.401-.2796Zm14.952 8.968v-8.2859c0-.1567-.125-.2796-.282-.3114h-1.032c-.094 0-.188.0625-.25.1239l-3.942 4.8409c-.187.2171-.563.0932-.563-.1864v-4.4691c0-.1864-.157-.3103-.312-.3103h-1.283c-.189 0-.314.1557-.314.3103v8.3187c.002.1721.142.3093.314.3093h1.032c.093 0 .187-.0625.25-.1239l3.94-4.8716c.188-.2171.564-.0932.564.1863v4.4692c.002.172.141.3103.313.3103h1.251c.189 0 .314-.1557.314-.3103Zm10.229.0932v-8.4723c0-.0932-.094-.1864-.219-.2151h-1.501c-.126 0-.219.0922-.219.2161v3.104c0 .1229-.094.2161-.219.2161h-3.691c-.125 0-.219-.0922-.219-.2161v-3.104c0-.1239-.095-.2171-.219-.2171h-1.502c-.125 0-.219.0942-.219.2181v8.4826c.003.1177.101.2099.219.2068h1.502c.126 0 .219-.0942.219-.2181v-3.1122c.003-.1178.101-.2099.219-.2069h3.7c.118.001.212.0983.21.2161v3.1143c.004.1167.101.2089.219.2058h1.501c.125 0 .219-.0942.219-.2181Zm9.699.2181h1.563v-8.9383h-1.563c-.206.0021-.373.167-.376.3728v.9002c-.687-.9309-1.72-1.4901-3.128-1.4901-2.44 0-4.473 2.0492-4.473 4.6863 0 2.638 2.033 4.6862 4.473 4.6862 1.376 0 2.44-.5899 3.128-1.5208v.9309c.004.2059.17.3708.376.3728Zm-3.191-7.2936c1.595 0 2.815 1.2105 2.815 2.8552 0 1.6437-1.22 2.8234-2.815 2.8541-1.597 0-2.817-1.2094-2.817-2.8541 0-1.6764 1.19-2.8552 2.817-2.8552Zm14.733 7.2916c.125 0 .25-.0922.25-.2468v-8.3792c0-.1556-.126-.2488-.282-.2478h-1.408c-.125 0-.25.0932-.25.2478v3.0109c0 .1239-.094.2478-.249.2478h-3.598c-.125 0-.25-.0932-.25-.2478v-3.0109c0-.1239-.093-.2478-.25-.2478h-1.407c-.125 0-.25.0932-.25.2478v8.3853c.002.1352.115.2437.25.2407h1.407c.125 0 .25-.0922.25-.2468v-3.018c.002-.1352.115-.2438.25-.2407h3.598c.126 0 .249.0932.249.2478v3.017c.002.1352.115.2437.25.2407h1.44Zm6.695-9.1227c-2.691 0-4.723 2.0482-4.723 4.6863s2.032 4.6545 4.692 4.6862c1.627 0 3.097-.8059 3.879-2.0789.093-.1239.031-.3113-.094-.3727l-1.407-.807c-.438.807-1.315 1.3651-2.378 1.3651-1.597 0-2.785-1.1798-2.785-2.7927 0-1.615 1.221-2.7937 2.785-2.7937.97 0 1.783.4352 2.221 1.149.086.1188.245.1577.376.0932l1.188-.6831c.125-.0932.187-.2796.094-.4035-.751-1.2412-2.19-2.0482-3.848-2.0482Zm-95.0341-9.8384c1.4378 0 2.6268-1.14803 2.6268-2.60633 0-1.45831-1.189-2.63807-2.6585-2.63807h-2.378V2.23961h4.2858v-.8377h-5.1614v8.75089h3.2853Zm-.001-4.40669c.9698 0 1.7522.80698 1.7522 1.80036 0 .99337-.7824 1.80035-1.7522 1.80035H68.695V5.74611h2.3769Zm10.1989 4.40769V3.94678h-.8449v1.20945c-.5315-.83771-1.4081-1.36511-2.5336-1.36511-1.7829 0-3.2535 1.39686-3.2535 3.25866v.02253c.0051 1.79216 1.4614 3.24129 3.2535 3.23609 1.1255 0 2.0021-.52736 2.5336-1.36507v1.21047h.8449Zm-3.316-5.58642c1.3764 0 2.4711 1.08656 2.4711 2.4824 0 1.36512-1.063 2.45168-2.4711 2.4824-1.3764 0-2.4711-1.08656-2.4711-2.4824 0-1.39584 1.063-2.4824 2.4711-2.4824Zm10.3536 5.58642V3.91605h-.8449v2.73126h-3.6284V3.91605h-.8448v6.23775h.8448V7.42255h3.6284v2.73125h.8449Zm2.5971-3.01083 3.1593 3.00983s0 .0317.001.0317h1.1255l-3.3785-3.25864 3.2536-3.00981h-1.1265l-3.0027 2.76198V3.91605h-.8448v6.23675h.8131V7.14297Z"/>
</svg>