<svg xmlns="http://www.w3.org/2000/svg" viewBox="0 0 193.1 48">
	<path fill="#19502e" d="M52.5 20c1.1 0 2.4 0 3.5.8.7.5 1.6 1.5 1.6 3.2 0 1.9-1.2 4.1-4.5 4.1h-2.8v5.2h-2.4V20h4.6zm.1 6.2c.5 0 1.3 0 1.9-.6.4-.4.7-1 .7-1.6 0-.5-.2-1.1-.6-1.5-.4-.4-1.1-.5-1.9-.5h-2.4v4.2h2.3zm7.3-1.8c.7-.6 1.7-1.2 3.2-1.2 1.5 0 2.5.6 3.2 1.2 1 .9 1.5 2.4 1.5 3.9s-.5 3-1.5 3.9c-.7.6-1.7 1.2-3.2 1.2-1.5 0-2.5-.6-3.2-1.2-1-.9-1.5-2.4-1.5-3.9 0-1.4.5-2.9 1.5-3.9zm1.6 6.8c.2.2.7.7 1.5.7.9 0 1.3-.5 1.5-.7.2-.2.7-.9.7-2.8 0-1.8-.6-2.6-.7-2.8-.2-.2-.7-.7-1.5-.7s-1.3.5-1.5.7c-.1.2-.7.9-.7 2.8 0 1.8.6 2.6.7 2.8zm14-4.1c0-.5-.2-1.1-.5-1.5-.2-.3-.7-.7-1.5-.7s-1.3.4-1.6.9c-.5.8-.5 2-.5 2.6 0 .9.1 2 .5 2.6.2.4.8.9 1.6.9.6 0 1.1-.2 1.4-.7.3-.4.5-1 .5-1.5l2.1.2c-.1.9-.5 1.9-1.2 2.6-.6.5-1.5 1-2.9 1-1.5 0-2.4-.6-3-1.1-.8-.7-1.5-2-1.5-4 0-1.9.6-3 1.1-3.6.7-.9 1.9-1.5 3.4-1.5 1.2 0 2.2.4 2.9 1.1.6.6 1 1.6 1.2 2.5l-2 .2zm9.7 0c0-.5-.2-1.1-.5-1.5-.2-.3-.7-.7-1.5-.7s-1.3.4-1.6.9c-.5.8-.5 2-.5 2.6 0 .9.1 2 .5 2.6.2.4.8.9 1.6.9.6 0 1.1-.2 1.4-.7.3-.4.5-1 .5-1.5l2.1.2c-.1.9-.5 1.9-1.2 2.6-.6.5-1.5 1-2.8 1-1.5 0-2.4-.6-3-1.1-.8-.7-1.5-2-1.5-4 0-1.9.6-3 1.1-3.6.7-.9 1.9-1.5 3.4-1.5 1.2 0 2.2.4 2.9 1.1.6.6 1 1.6 1.2 2.5-.1-.1-2.1.2-2.1.2zm12.4 3.3c-.3 1.2-1 1.8-1.6 2.2-.8.5-1.8.8-2.9.8-1.3 0-2.7-.6-3.5-1.4-.8-.8-1.3-2.1-1.3-3.7 0-2 .8-3.4 1.7-4.1.5-.4 1.5-1.1 3-1.1 1.9 0 3.1.9 3.7 1.8.7.9 1 2.2 1 3.4v.4h-7c0 .1 0 1 .3 1.7.5 1.1 1.5 1.4 2.1 1.4.5 0 1.2-.2 1.7-.7.3-.3.5-.7.5-1l2.3.3zm-2.3-3.1c0-.6-.1-1.2-.4-1.6-.4-.5-1-.9-1.7-.9s-1.4.4-1.8.8c-.3.4-.6 1-.6 1.7h4.5zm12-3.9v9.9H105v-8.2h-2.6c-.1 1.3-.1 1.9-.1 2.8-.1 1-.1 3.2-1 4.4-.5.6-1.1.9-1.5 1-.3.1-.5.1-.8.1-.2 0-.4 0-.6-.1v-1.7h.2c.3 0 .7-.2.9-.4.8-.6.8-2 .9-3.1.1-1.5.1-2.3.1-3.6v-1c.1-.1 6.8-.1 6.8-.1zm4.6 3.6h2.5c.6 0 1.9.1 2.7.9.7.7.8 1.7.8 2.3 0 1.4-.6 2.1-1 2.5-.2.1-.9.7-2.3.7h-4.9v-9.9h2.2V27zm0 4.7h1.8c.4 0 .9 0 1.3-.3.2-.2.5-.6.5-1.2 0-.5-.2-1-.6-1.3-.4-.2-.9-.3-1.2-.3h-1.8v3.1zm9.3-8.3l1.8 3.1 1.9-3.1h2.1l-2.9 4.5 3.4 5.4h-2.6l-2.2-3.7-2.4 3.7h-2.1l3.4-5.1-3-4.7 2.6-.1zm8 1c.7-.6 1.7-1.2 3.2-1.2 1.5 0 2.5.6 3.2 1.2 1 .9 1.5 2.4 1.5 3.9s-.5 3-1.5 3.9c-.7.6-1.7 1.2-3.2 1.2-1.5 0-2.5-.6-3.2-1.2-1-.9-1.5-2.4-1.5-3.9 0-1.4.5-2.9 1.5-3.9zm1.7 6.8c.2.2.7.7 1.5.7.9 0 1.3-.5 1.6-.7.1-.2.7-.9.7-2.8 0-1.8-.6-2.6-.7-2.8-.2-.2-.7-.7-1.6-.7-.8 0-1.3.5-1.5.7-.2.2-.7.9-.7 2.8-.1 1.8.5 2.6.7 2.8zm7.4-5.1c.3-1.2 1-1.9 1.6-2.2.3-.2 1.2-.7 2.8-.7 1 0 2 .2 2.7.6 1.1.6 1.4 1.5 1.4 2.1 0 .7-.3 2-2 2.2.6.1 1.2.3 1.6.7.3.4.6 1 .6 1.6 0 1-.6 1.9-1.3 2.3-.9.6-2.1.7-3 .7-.9 0-2.3-.1-3.3-.9-.5-.4-1-1.2-1.2-2.1l2-.3c.1.3.3.8.5 1 .5.6 1.3.6 1.8.6s1-.1 1.5-.3c.4-.3.6-.6.6-1.1 0-.4-.1-.7-.4-1-.4-.4-1-.4-1.6-.4h-1v-1.5h1c.4 0 .9-.1 1.3-.2.4-.2.6-.6.6-1.1 0-.3-.1-.6-.4-.8-.4-.4-1.1-.4-1.4-.4-.4 0-1.1.1-1.6.5-.2.2-.5.6-.6 1.1l-2.2-.4zm20.2-3.8h-6.4v2.9h2.9c1 0 2 .1 3 .8 1 .7 1.6 1.7 1.6 3.1 0 1.4-.5 2.4-1.1 3-1 1-2.1 1.1-3.2 1.1H149V20h9.5v2.3zm-6.4 8.7h2.5c.5 0 .9 0 1.3-.5.4-.4.5-.9.5-1.3s-.1-.8-.5-1.2c-.4-.4-1-.5-1.4-.5h-2.4V31zm9-4.8c.3-1.3 1.2-2 1.7-2.3.8-.4 1.8-.6 3.1-.6 1.6 0 3.3.2 4 1.7.4.8.3 1.6.3 2.4v3.8c0 .8.1 1.5.3 2.1h-2.8c-.1-.4-.1-.9-.1-1.6-.4.7-1.3 1.8-3.3 1.8-.9 0-1.8-.2-2.5-.8-.6-.5-1-1.3-1-2.2 0-1 .4-2.2 2.1-2.9 1.1-.4 2.9-.6 3.6-.6h.9v-.2c0-.3 0-.8-.3-1.2-.4-.4-1.1-.4-1.4-.4-.4 0-.9 0-1.3.3-.2.1-.6.5-.7 1l-2.6-.3zm5.5 2.4c-1 .1-1.9.2-2.5.8-.1.2-.3.5-.3.9s.2.7.4.9c.3.2.7.3 1.1.3.6 0 1.3-.2 1.6-.7.1-.1.5-.6.5-1.8v-.5l-.8.1zm8.8-5.2v3.7h3.1v-3.7h2.9v9.9h-2.9v-4.1h-3.1v4.1h-2.9v-9.9h2.9zm11.2 0v3.8h.8c.8 0 1.2-.4 1.4-.9.4-.9.4-1.5.8-2.2.3-.5.7-.7.9-.7h2.4c-.3.3-.6.7-.8 1.1-.3.6-.6 1.7-.8 2.1-.2.6-.6 1.2-1.6 1.3.5.1 1.1.3 1.5.9.3.4.4.8.7 1.6.3.8.4 1 .6 1.6.2.4.3.7.6 1.1h-2.7c-.4-.1-.7-.4-1.1-1.4-.3-.8-.3-1-.5-1.5l-.1-.3c-.3-.7-.7-.9-1.3-.9h-.9v4.1h-2.9v-9.9h3zM21.3 48C9.6 48 0 38.4 0 26.7c0-6.8 3.1-13 8.5-17l.2-.2V0H21v5.4h.4c11.7 0 21.3 9.6 21.3 21.3C42.6 38.4 33.1 48 21.3 48z"/>
	<path fill="#ffcb05" d="M15.1 27l4.4-4.4v-3L15.1 24v3zm0-11l4.4-4.4V8.8l-4.4 4.3V16zm0 3.6l4.4-4.4v-2.8l-4.4 4.3v2.9zM13.9 8.9l-.6-.6V1.4h-.7v6.3l-.6-.6V1.4h-.7v5l-.6-.6V1.4H10V8l4.4 4.4v-11h-.7c.2 0 .2 7.5.2 7.5zm1.2 14.4l4.4-4.4v-2.8l-4.4 4.3v2.9zm-5-.6l4.4 4.4v-3l-4.4-4.3v2.9zm8.8-16.9l-.6.6v-5h-.7v5.7l-.6.6V1.4h-.7v6.9l-.6.6V1.4H15v11L19.6 8V1.4h-.7v4.4zm-8.8 5.8l4.4 4.4v-2.8l-4.4-4.3v2.7zm0 3.7l4.4 4.4v-2.8l-4.4-4.3v2.7zm0 3.6l4.4 4.4v-2.8l-4.4-4.3v2.7zm26.5 2.3H25.8c.2-.4.4-.8.4-1.2 0-1.3-1-2.3-2.3-2.3s-2.3 1-2.3 2.3c0 .5.2 1 .4 1.3-.2.1-.3.4-.3.6 0 .3.1.5.3.6-.3.4-.4.8-.4 1.3 0 1.3 1 2.3 2.3 2.3s2.3-1 2.3-2.3c0-.4-.1-.9-.4-1.2h8v.5H33v.7h.8v.7H33v1.3h.8v-.6H35v.6h.8v-1.3H35v-.7h.8v-.7H35v-.5h1.6c.3 0 .6-.3.6-.6v-.3c-.1-.2-.3-.5-.6-.5zM25 23.9c0 .7-.5 1.2-1.2 1.2s-1.2-.5-1.2-1.2c0-.2.1-.5.2-.7l.3-.6c-.2-.2-.3-.4-.3-.7s.1-.6.3-.7l-.3-.6c-.1-.2-.2-.4-.2-.7 0-.7.5-1.2 1.2-1.2s1.2.6 1.2 1.3c0 .5-.6 1.7-.6 1.7v.6s.6 1.2.6 1.6z"/>
	<g fill="#fff">
		<path d="M6.1 19.8v2.9c0 2.8 1.2 4.6 1.9 5.2.4.4 4.5 4.5 4.6 4.5 1.3 1.3 1.5 1.7 1.8 2.4v-3.2c0-2.9-1.4-4-2.2-4.7-1.7-1.7-2.9-2.8-3.8-3.7-1.9-1.8-2.3-3.4-2.3-3.4zm6.1 14.3c-1.7-1.7-2.9-2.8-3.8-3.7-1.8-1.8-2.3-3-2.3-3v2.5c0 2.8 1.3 4.5 1.9 5.3.4.4 4.5 4.4 4.6 4.5 1.3 1.3 1.5 1.9 1.8 2.6v-3.4c0-2.9-1.5-4-2.2-4.8z"/>
		<path d="M21.3 6.7h-1v1.4h1c10.3 0 18.6 8.3 18.6 18.6s-8.3 18.6-18.6 18.6S2.7 36.9 2.7 26.7c0-5.7 2.6-10.8 6.6-14.2v-1.7c-4.8 3.6-8 9.4-8 15.9 0 11 8.9 19.9 19.9 19.9 11 0 19.9-8.9 19.9-19.9s-8.8-20-19.8-20z"/>
		<path d="M35.4 37.1c.3-.4.6-.9.9-1.3v-2.7h-.9v4zm2.6-5l.3-1.2h-2.9v.7h.4c.8.1 1.7.1 2.2.5zM18.7 30.9h-.8v7.9h.8v-7.9z"/>
		<path d="M16.1 29.4h2.6c.7 0 1.1.1 1.4.4.3.3.4.7.4 1.4v7.4c0 .7-.1 1.1-.4 1.4-.4.4-1.2.4-1.8.4h-.4v3.5c.3 0 .5.1.8.1v-2.9c1.2 0 2-.4 2.3-1.2v4.3h.8V31.3c0-.7.1-1.2.4-1.4.3-.3.7-.4 1.4-.4s1.7-.1 2.2.4c.3.3.4.8.4 1.4v3.8h-1.8V31h-.8v13.1c.3 0 .5-.1.8-.1v-8.1h1.8v7.7c.4-.1.7-.2 1.1-.3v-7c0-.8.2-1.4 1-1.7l-.9-4.9h1.8l.3 5.3h.2l.3-5.3h1.9l-1 4.9c.8.3 1 .8 1 1.7v4.5c.5-.4 1-.8 1.5-1.3v-9.9h5.3c0-.2.1-.5.1-.7H26.4l.2.9c-.4-.7-1.1-1.1-2.2-1.1h-.8c-1.3 0-2.1.5-2.4 1.6-.3-1.1-1.1-1.6-2.5-1.6h-3.4v14.6c.3.1.5.2.8.3V29.4zM32.5 35l-.8-.8.8-4.4V35z"/>
		<path d="M29.1 42.4c.3-.1.5-.3.8-.4v-6h-.8v6.4z"/>
	</g>
</svg>