<svg xmlns="http://www.w3.org/2000/svg" viewBox="0 0 180 26.8">
	<path fill="#960f05" d="M22.1 7.3c.1.3.2.6.2.9 0 1-.8 1.9-2.3 1.9h-2.3c1-.9 1.7-2.2 1.7-3.7 0-3.1-2.5-5.1-6.6-5.1h-.1v2.1c1.8.2 2.8 1.4 2.8 2.9 0 1.8-1.5 3.7-3.8 3.7H9.2c1.2-1 1.9-2.5 1.9-4.3C11.2 2.4 8.2 0 3.5 0h-.1v2.4c2.1.2 3.5 1.6 3.5 3.4 0 2.6-2.2 4.3-4.9 4.4H0v2.9h1.9c2.7 0 5 1.8 5 4.4 0 1.8-1.4 3.2-3.5 3.4v2.4h.1c4.7 0 7.6-2.4 7.6-5.9 0-1.8-.7-3.2-2-4.3h2.4c2.4 0 3.9 1.9 3.9 3.7 0 1.5-1.1 2.8-2.8 2.9v2.1h.1c4.1 0 6.6-2.1 6.6-5.1 0-1.5-.7-2.8-1.7-3.7h2.3c1.4 0 2.3 1 2.3 1.9 0 .3-.1.7-.2.9 3.5-.7 6.1-4.3 6.1-4.3.1.1-2.5-3.5-6-4.2z"/>
	<path fill="#000" d="M171.6 7.6V13l4.6-5.5h3.8l-5.1 5.8c1.8.3 2.9 1.7 3.8 3.8.4 1 .9 2.4 1.2 3.6h-3.6c-.1-.7-.4-1.6-.9-2.8-.7-1.8-1.7-2.7-3.5-2.7h-.4v5.5h-3.3V7.6h3.4zm-14.8 0v5.1h5.1V7.6h3.4v13.3h-3.4v-5.6h-5.1v5.6h-3.3V7.6h3.3zm-28.4 10.8c.5.1 1.1.1 1.8.1 1.2 0 2.4-.4 3.2-1.1.6-.6 1-1.4 1-2.4 0-1.2-.5-2-1.2-2.5-.8-.6-2-.9-3-.9-.5 0-1.1.1-1.7.1l-.1 6.7zm8-15.9v2.8h-8v3.9c.6-.1 1.6-.2 2.3-.2 1.8 0 3.6.4 5 1.4 1.3.9 2.2 2.4 2.2 4.4 0 1.8-.6 3.1-1.7 4.1-1.6 1.5-4.3 2.1-7 2.1-1.9 0-3.2-.1-4.1-.2V2.5h11.3zm-29.3 12.8c0 .3 0 .6.1.9.4 1.4 1.5 2.3 3 2.3 2.1 0 3.4-1.8 3.4-4.4 0-2.3-1.1-4.2-3.3-4.2-1.4 0-2.7 1-3 2.5-.1.3-.1.6-.1.8v2.1zm-3.3-7.7h3.4v2c1-1.5 2.2-2.3 4.2-2.3 3 0 5.6 2.6 5.6 6.8 0 4.8-3 7.1-6 7.1-1.7 0-3.1-.7-3.7-1.8v6.9h-3.4c-.1-.1-.1-18.7-.1-18.7zm-5.3 5.2c0-1.2-.5-3.2-2.8-3.2-2.1 0-2.9 1.9-3.1 3.2h5.9zm-5.9 2.3c.1 2.4 1.9 3.4 4.1 3.4 1.6 0 2.6-.3 3.7-.6l.5 2.3c-1.1.5-2.7.8-4.6.8-4.3 0-6.8-2.6-6.8-6.7 0-3.7 2.2-7.1 6.5-7.1s5.7 3.5 5.7 6.5c0 .6-.1 1.1-.1 1.4h-9zM81.3 9.9c-1.1 0-1.9.6-2.4 1.4-.4.7-.7 1.6-.7 2.7 0 2 .9 4.7 3.2 4.7 2.3 0 3.1-2.3 3.1-4.4 0-2-.7-4.4-3.2-4.4zm5.1-6c-.7.2-2 .4-3 .5-2 .3-3.5.9-4.4 2.1-1.3 1.6-1.3 3.8-1.3 3.8.8-1.7 2.6-2.7 4.5-2.7 3.5 0 5.8 2.5 5.8 6.6 0 4.3-2.6 7-6.5 7-4.7 0-6.6-4-6.6-8.8 0-3.3.8-5.9 2.5-7.7C78.7 3.1 80.5 2.3 83 2c1.2-.2 2.7-.4 3.6-.6l-.2 2.5zm-22 3.7l3.2 9.4 2.8-9.4H74l-3.3 9c-1.8 5-3 7.2-4.6 8.5-1.3 1.1-2.7 1.6-3.5 1.7l-.9-2.8c.6-.1 1.3-.4 1.9-.9.7-.4 1.4-1.2 1.9-2.1.1-.2.2-.4.2-.6 0-.1 0-.3-.2-.7L60.7 7.6h3.7zm-29.2-4c1.3-.8 3-1.4 5.3-1.4 3.7 0 5.9 1.9 5.9 4.6 0 2.3-1.4 4-3.7 4.5 2.4.3 4.4 1.9 4.4 4.5 0 4-3.8 5.4-7.1 5.4-1.8 0-3.7-.4-5.2-1.3l.8-2.6c.9.5 2.7 1.1 4.3 1.1 2.4 0 3.8-1.1 3.8-2.9 0-2.3-2.4-2.9-4.4-2.9h-1.4V10h1.4c2.1 0 3.8-1.1 3.8-2.8 0-1.5-1.1-2.4-3-2.4-1.5 0-3.1.6-4.1 1.2l-.8-2.4zm112.1 10.8c-2.4 0-4.6.5-4.6 2.5 0 1.3.8 1.9 1.9 1.9 1.4 0 2.3-.9 2.6-1.8.1-.2.1-.5.1-.7v-1.9zm3.2 6.4h-3v-1.5s-.9 1.8-4 1.8c-2.7 0-4.2-1.9-4.2-3.9 0-3.3 3-5 7.9-5V12c0-.9-.4-2.3-2.7-2.3-1.3 0-2.7.4-3.6 1l-.7-2.2c1-.6 2.7-1.2 4.8-1.2 4.2 0 5.5 2.7 5.5 5.6v7.9zm-93.9-6.5c-2.4 0-4.6.5-4.6 2.5 0 1.3.8 1.9 1.9 1.9 1.4 0 2.3-.9 2.6-1.8.1-.2.1-.5.1-.7v-1.9zm3.2 6.5h-3v-1.5s-.9 1.8-4 1.8c-2.7 0-4.2-1.9-4.2-3.9 0-3.3 3-5 7.9-5V12c0-.9-.4-2.3-2.7-2.3-1.3 0-2.7.4-3.6 1l-.7-2.2c1-.6 2.7-1.2 4.8-1.2 4.2 0 5.5 2.7 5.5 5.6v7.9z"/>
</svg>