<svg xmlns="http://www.w3.org/2000/svg" viewBox="0 0 94.1 42">
	<path fill="#00529c" d="M69.4 26.8h23.4c0-3.2-5.7-5.4-12.5-5.4H69.4v5.4zm0 1h23.4c0 3.4-5.7 5.7-12.5 5.7H69.4v-5.7zm-27.8-1H65c0-3.2-5.7-5.4-12.5-5.4H41.6v5.4zm0 1H65c0 3.4-5.7 5.7-12.5 5.7H41.6v-5.7zm-5.3-1H3.4c-.7-.6-3.4-2.7-3.4-5.4h36.3v5.4zm0 1H4c2.9 2.4 9.7 5.7 16.5 5.7h15.7c.1.1.1-5.7.1-5.7zm57.8-13.2H3.4c-.7.6-3.4 2.8-3.4 5.5h94.1v-5.5zm0-.9H4c2.9-2.3 9.7-5.6 16.5-5.6H94l.1 5.6zM5.5 6.4c-.5.2-1 .3-1.4.3-1.3 0-2.8-.9-2.8-3.3 0-2.2 1.3-3.4 3-3.4.4 0 .8.1 1.2.2v1.1c-.3-.1-.7-.2-1.1-.2-1.2 0-2 .9-2 2.3 0 1.6.9 2.2 1.8 2.2.5 0 .9-.1 1.2-.3l.1 1.1zM10.3.1l2.1 6.5h-1.2l-.5-1.5H8.5l-.4 1.5H6.9L9.1.1h1.2zm.2 4l-.8-2.6-.8 2.6h1.6zm5.2-4c2 0 2.1 1.7 2.1 2 0 .9-.5 2-1.9 2h-.7v2.4h-1.1V.1h1.6zm0 3c.7 0 .9-.6.9-1 0-.6-.3-1-.9-1h-.5v2h.5zm9.1.3c0 2.3-1.3 3.3-2.7 3.3s-2.7-1-2.7-3.3S20.7.1 22.1.1s2.7.9 2.7 3.3zm-4.2 0c0 2.2 1.1 2.4 1.5 2.4.4 0 1.5-.2 1.5-2.4S22.5 1 22.1 1c-.4 0-1.5.2-1.5 2.4zM28.4.1c1 0 1.8.5 1.8 1.6 0 1-.5 1.3-.9 1.5.7.1 1.2.7 1.2 1.5s-.4 1.8-2.1 1.8h-1.7V.1h1.7zm-.6 2.7h.6c.7 0 .9-.6.9-.8 0-.2-.1-.8-.9-.8h-.5c-.1 0-.1 1.6-.1 1.6zm0 2.8h.6c.7 0 1-.4 1-.9s-.2-.9-1-.9h-.6v1.8zM35.9.1v1.2h-2.4v1.3h.9c1.6 0 2 1.3 2 2.1 0 .7-.4 1.9-2 1.9h-2V.1h3.5zm-2.3 5.5h.7c.6 0 1-.3 1-1s-.4-1-1-1h-.7v2zM39.5.1v3.3L39.4 5h.1l.4-.9 1.9-4h1.3v6.5H42V1.7l-.4 1-2 3.9h-1.3V.1h1.2zm6.4 2.6h.7c.6 0 .9-.3.9-.9 0-.4-.2-.7-.9-.7-.4 0-.8.1-1.2.4L45.3.4c.6-.2 1-.3 1.6-.3 1.3 0 1.8.7 1.8 1.7 0 .7-.3 1.3-.9 1.5.6.1 1.1.6 1.1 1.5 0 1.8-1.7 2-2.2 2-.6 0-1-.2-1.6-.4l.1-1.1c.7.4 1.2.4 1.5.4.9 0 1-.5 1-.9 0-1-.9-1-1-1H46V2.7zM51.8.1v2.6H54V.1h1.1v6.5H54V3.8h-2.2v2.8h-1.1V.1h1.1zm8.7 0v1.2h-2.1v1.5h2v1h-2v1.7h2.1v1.2h-3.2V.1h3.2zm5.9 6.3c-.5.2-1 .2-1.4.2-1.3 0-2.8-.9-2.8-3.3 0-2.2 1.3-3.4 3.1-3.4.4 0 .8.1 1.2.2l-.1 1.1c-.3-.1-.7-.2-1.1-.2-1.2 0-2 .9-2 2.3 0 1.6.9 2.2 1.9 2.2.5 0 .9-.1 1.1-.3 0 .1.1 1.2.1 1.2zM71.7.1v1.2h-2.4v1.3h.9c1.6 0 2 1.3 2 2.1 0 .7-.4 1.9-2 1.9h-2V.1h3.5zm-2.4 5.5h.7c.6 0 1-.3 1-1s-.4-1-1-1h-.7v2zM77.2.1l2.1 6.5h-1.2l-.4-1.5h-2.3l-.5 1.5h-1.2L75.8.1h1.4zm.1 4l-.8-2.6-.7 2.6h1.5zm4.7-4v2.6h2.2V.1h1.1v6.5h-1.1V3.8H82v2.8h-1.1V.1H82zm6.5 0v2.8l2-2.8h1.3L89.5 3l2.4 3.5h-1.4l-2-3.2v3.2h-1.1V.1h1.1zM.4 40.5c.4.2 1 .4 1.3.4.6 0 .9-.4.9-.8 0-.7-.6-.9-1.1-1.2C.7 38.4.2 38 .2 37c0-.7.3-1.8 1.7-1.8.5 0 1 .1 1.5.2l-.1 1c-.3-.2-.8-.3-1.2-.3-.7 0-.8.4-.8.7 0 .5.4.7.7.9.9.5 1.7.9 1.7 2.1 0 1-.7 1.9-2.1 1.9-.6 0-1-.1-1.4-.3 0 .1.2-.9.2-.9zm7.9-5.1l2.1 6.5H9.2l-.4-1.5H6.5L6 41.9H4.8L7 35.4h1.3zm.1 4l-.8-2.7-.7 2.6 1.5.1zm5.4-4c1.5 0 1.8.9 1.8 1.8 0 1-.7 1.4-1 1.5.2.1.4.3.6.7l.9 2.5h-1.2l-.7-2.1c-.1-.4-.3-.6-.7-.6H13v2.7h-1.2v-6.5h2zm-.8 2.8h.6c.7 0 .9-.5.9-.9 0-.2-.1-.9-.9-.9H13v1.8zm9.7.4c0 2.3-1.3 3.3-2.7 3.3s-2.7-1-2.7-3.3c0-2.4 1.3-3.3 2.7-3.3 1.5 0 2.7 1 2.7 3.3zm-4.1 0c0 2.2 1.1 2.4 1.5 2.4.4 0 1.5-.2 1.5-2.4s-1.1-2.4-1.5-2.4c-.4.1-1.5.2-1.5 2.4zm6.4-3.2l1.2 4.2.2 1h.1l.2-1 1.2-4.2H29l-1.9 6.5h-1.3l-1.9-6.5H25zm7 0c1 0 1.8.5 1.8 1.6 0 1-.5 1.3-.9 1.5.7.1 1.2.7 1.2 1.5s-.4 1.8-2.1 1.8h-1.7v-6.4H32zm-.6 2.6h.6c.7 0 .9-.5.9-.8 0-.2-.1-.8-.9-.8h-.5c-.1 0-.1 1.6-.1 1.6zm0 2.8h.6c.7 0 1-.4 1-.9s-.2-.9-1-.9h-.6v1.8zm8.8-1.4c0 .9-.2 2.6-2.3 2.6-.7 0-2.3-.1-2.3-2.6v-4h1.1v4c0 .5.1 1.5 1.2 1.5 1.1 0 1.2-1 1.2-1.5v-4h1.1v4zm1.7 1.1c.4.2 1 .4 1.3.4.6 0 .9-.4.9-.8 0-.7-.6-.9-1.1-1.2-.8-.5-1.3-.9-1.3-1.8 0-.7.3-1.8 1.7-1.8.5 0 1 .1 1.5.2l-.1 1.2c-.3-.2-.8-.3-1.2-.3-.7 0-.8.4-.8.7 0 .5.4.7.7.9.9.5 1.7.9 1.7 2.1 0 1-.7 1.9-2.1 1.9-.6 0-1-.1-1.4-.3.1-.1.2-1.2.2-1.2zm4.9-5.1h1.1v6.5h-1.1v-6.5zm4.2 0l1.9 4.1.3.9v-5h1.1v6.5h-1.5l-1.9-4.2-.2-.7h-.1l.1 1.2V42h-1.1v-6.5c0-.1 1.4-.1 1.4-.1zm8.2 0v1.2H57V38h2v1h-2v1.7h2.1v1.2h-3.2v-6.5h3.3zm1.5 5.1c.4.2 1 .4 1.3.4.6 0 .9-.4.9-.8 0-.7-.6-.9-1.1-1.2-.8-.5-1.3-.9-1.3-1.9 0-.7.3-1.8 1.7-1.8.5 0 1 .1 1.5.2l-.1 1c-.3-.2-.8-.3-1.2-.3-.7 0-.8.4-.8.7 0 .5.4.7.7.9.9.5 1.7.9 1.7 2.1 0 1-.7 1.9-2.1 1.9-.6 0-1-.1-1.4-.3.1.1.2-.9.2-.9zm4.8 0c.4.2 1 .4 1.3.4.6 0 .9-.4.9-.8 0-.7-.6-.9-1.1-1.2-.8-.5-1.3-.9-1.3-1.8 0-.7.3-1.8 1.7-1.8.5 0 1 .1 1.5.2l-.1 1c-.3-.2-.8-.3-1.2-.3-.7 0-.8.4-.8.7 0 .5.4.7.7.9.9.5 1.7.9 1.7 2.1 0 1-.7 1.9-2.1 1.9-.6 0-1-.1-1.4-.3.1 0 .2-1 .2-1zm6.7-5.1c1 0 1.8.5 1.8 1.6 0 1-.5 1.3-.9 1.5.7.1 1.2.7 1.2 1.5s-.4 1.8-2.1 1.8h-1.7v-6.4h1.7zm-.7 2.6h.6c.7 0 .9-.5.9-.8 0-.2-.1-.8-.9-.8h-.5c-.1 0-.1 1.6-.1 1.6zm0 2.8h.6c.7 0 1-.4 1-.9s-.2-.9-1-.9h-.6v1.8zm7.4-5.4l2.1 6.5h-1.2l-.5-1.5H77l-.5 1.5h-1.1l2.2-6.5h1.3zm.1 4l-.8-2.6-.7 2.6H79zm4.7-4l1.9 4.1.3.9v-5H87v6.5h-1.5l-1.9-4.2-.2-.7v5h-1.1v-6.5h1.4zm6 0v2.8h.1l2-2.8H93l-2.3 2.9 2.4 3.5h-1.4l-2-3.2h-.1v3.2h-1.1v-6.5h1.2z"/>
</svg>