<svg viewBox="0 0 103 49" xmlns="http://www.w3.org/2000/svg">
	<path fill="#595959" d="M56.966 32.1772h6.7917c1.2057.0055 2.3764-.4053 3.3143-1.1631.9378-.7578 1.5854-1.816 1.8333-2.996.0881-.5051.0881-1.0216 0-1.5267-.0959-.4056-.2834-.7839-.548-1.1058-.265-.3245-.5995-.5854-.9787-.7634l-.3719-.1566h-.1468c.0813-.0683.1699-.1274.2643-.1761.8292-.4477 1.5095-1.128 1.9572-1.9573.2748-.4974.4195-1.0562.4208-1.6245.0095-.2574-.0202-.5148-.088-.7633-.0588-.2035-.1307-.4029-.2153-.597-.222-.4727-.5618-.8803-.9869-1.1836-.425-.3034-.921-.4923-1.4401-.5486h-6.9777l-2.8282 14.562Zm8.6511-12.8004c.9786.0587 1.4679.3131 1.7224.8612.1453.3047.2094.6418.1859.9786-.014.5053-.183.9942-.4841 1.4003-.3011.4061-.7197.7098-1.1991.8701-1.7411.1969-3.4946.2623-5.2455.1957 0-.0489.8319-4.3255.8319-4.3353 0-.0098 3.1609-.0391 4.1885.0294Zm-.5774 6.1751c.3415.0366.6734.1361.9786.2936.2979.1752.5417.4292.7046.734.1562.3012.224.6405.1958.9786-.0216.5093-.1732 1.0045-.4404 1.4386-.2701.4334-.6433.7931-1.0863 1.0471-.5707.2838-1.2028.4216-1.8398.4013-.6263 0-4.2277.0489-4.2277 0 0-.049.9786-4.8932.9786-4.9519 0-.0587.871 0 2.29 0 .8258-.0245 1.6523-.0049 2.476.0587h-.0294Zm26.9515 6.6547h1.83l.8025-4.1592 1.4875-1.2233 2.4955 5.3825h2.2313l-3.1708-6.6253 4.7858-3.9145h-2.32l-5.0787 4.1885 1.5462-8.2401h-1.8007l-2.8086 14.5914ZM75.9025 21.4417c-.5515.0394-1.0985.1279-1.6343.2642-1.0524.2584-1.9745.8916-2.5934 1.7811-.218.3497-.4078.7162-.5676 1.0961 0 .0489 0 .0489.8416.1566.2566.0285.5114.071.7634.1272 0 0 .0978 0 .2153-.2349.2614-.6025.7112-1.1038 1.282-1.4288.9554-.3882 2.0137-.4434 3.0044-.1566.1871.0592.3602.1557.5088.2838.145.1354.2615.2985.3426.4796.1077.4271.1077.8744 0 1.3015l-.0685.3328-.3426.0978c-.9656.2375-1.9466.4076-2.9359.5089-.6947.0676-1.3824.1953-2.0551.3817-.6412.1905-1.2304.5253-1.7224.9786-.336.3122-.6114.6838-.8122 1.0961-.1995.3953-.3098.8296-.323 1.2722-.0282.438.056.8759.2447 1.2722.1824.3388.4485.6252.7731.8319.3236.2014.688.3284 1.0667.3718.5858.0912 1.1802.1142 1.7713.0685 1.1696-.1396 2.2826-.5814 3.2295-1.282l.274-.1957v.3327c-.0182.2894.0082.5799.0783.8612v.1175h.9786c.3259.0204.6528.0204.9787 0-.0057-.0792-.0291-.1562-.0685-.2251-.0993-.3167-.1488-.6468-.1468-.9786.1263-1.4071.352-2.8035.6752-4.1788.5089-2.6325.5383-2.9359.4991-3.3958-.0113-.2802-.0848-.5543-.2153-.8025-.1344-.2469-.3256-.4582-.5578-.6165-1.0482-.5314-2.2264-.7521-3.3958-.6362l-.0881.1175Zm1.83 5.5782c0 .0783-.2055.9786-.274 1.2624-.1177.5012-.3524.9673-.685 1.3603-.334.3925-.7476.7094-1.2135.9297-.6129.2879-1.2802.4414-1.9573.4502-.2727.0263-.5479.0031-.8123-.0685-.2667-.08-.5112-.2207-.7144-.4111-.1796-.1862-.2781-.4361-.274-.6948-.0063-.3446.0853-.684.2643-.9786.183-.3092.4561-.5551.7829-.7046.6227-.2648 1.2832-.4299 1.9572-.4894.9259-.1084 1.8399-.3017 2.7304-.5773.1174-.1077.137-.1077.137-.0588l.0587-.0195Zm9.845-5.5782c-1.1132.0899-2.1562.5801-2.9358 1.3798-.2153.1958-.2643.2545-.2643.186s.2643-1.3016.2643-1.3016h-1.6539l-1.9573 10.5692h1.8398s1.1548-5.9892 1.2135-6.273c.1485-.8868.5978-1.6954 1.2723-2.29.4477-.3679.9903-.6017 1.5652-.6744.5749-.0727 1.1586.0186 1.6838.2634.2435.1656.4311.401.5382.6752.1163.268.1471.5653.0881.8514 0 .4306-1.3701 7.4474-1.3701 7.4474h1.8497s1.37-7.1831 1.4385-7.4082c.0977-.435.0977-.8862 0-1.3212-.0856-.4381-.2659-.8523-.5284-1.2135-.1965-.2129-.4325-.3857-.6948-.5089-.7271-.3259-1.5263-.4574-2.3194-.3816h-.0294ZM6.35126 41.6308c-.45548-.0014-.8989.1464-1.26243.4208-.35601.2812-.61312.6686-.73397 1.1059-.06954.2503-.04875.517.05872.7535.10467.2369.28787.4305.51867.5481.36233.1707.74329.2988 1.13521.3816.97863.2545 1.22329.3817 1.32115.7144.01771.1631-.00584.328-.0685.4795-.06037.1522-.15795.2868-.2838.3915-.29973.2007-.64546.3221-1.00486.3529-.35941.0309-.72075-.03-1.05027-.1768-.171-.0748-.31701-.1971-.42081-.3523-.09669-.1624-.14428-.3493-.13701-.5382 0-.2349 0-.2349-.07829-.2251-.1199.0196-.24218.0196-.36209 0h-.26423v.0979c-.04883.2092-.04883.4269 0 .6361.06727.2922.22476.5558.45017.7535.2217.2013.49708.3339.79269.3817.50508.0881 1.02159.0881 1.52666 0 .47576-.1004.91142-.3387 1.25265-.685.15528-.1557.28126-.338.37188-.5383.08296-.205.12293-.4248.11743-.6459.01033-.2768-.08007-.548-.25444-.7633-.2838-.2936-.54803-.411-1.52666-.6655-.97863-.2544-1.13521-.3327-1.23308-.5284-.05373-.152-.05373-.3178 0-.4698.03844-.1527.12829-.2875.25445-.3817.1731-.1417.37408-.2454.58989-.3045.21581-.059.44161-.0719.66275-.038.76334 0 .97863.2545 1.06671.8416v.2153h.72419v-.225c.01957-1.0863-.79269-1.6833-2.13342-1.5659l-.02936.0294Zm23.24244.1174s-.137.6949-.137.7634.1468 0 .3621 0h.3621l.0685-.3817c.011-.1363.0372-.2708.0783-.4012-.1199-.0196-.2422-.0196-.3621 0h-.3719v.0195Zm7.2712 0s-.2446 1.2723-.5186 2.7989c-.274 1.5267-.5285 2.7891-.5285 2.7989 0 .0098 2.7304 0 2.9359 0 .268-.0582.5254-.1573.7633-.2936.4054-.2719.7031-.6769.8417-1.145.1052-.3177.1052-.6609 0-.9786-.1203-.2102-.2965-.3829-.5089-.4991h-.1762l.1664-.0979c.3711-.2155.6446-.5661.7633-.9786.1068-.3208.0893-.6701-.0489-.9786-.073-.1693-.1874-.3173-.3328-.4306-.1495-.1141-.3238-.1912-.5088-.2251-.5065-.0605-1.0174-.0769-1.5267-.0489l-1.3212.0782Zm2.5836.7634c.0834.0302.16.0768.2251.137.0657.0571.119.127.1566.2055.0102.0812.0102.1634 0 .2447-.0174.2291-.1103.4459-.2642.6165-.1596.1702-.3748.2778-.6068.3034h-1.7028l.2055-.8025c.0881-.46.1664-.8123.1664-.8416h.871c.3277.0095.6545.0389.9786.088l-.0294.049Zm-.4893 2.2998c.1028.0016.2037.0284.2936.0782.0951.0465.1762.1174.2349.2056.066.0858.1097.1867.1272.2935.0245.0997.0245.2038 0 .3034-.0268.1623-.0904.3163-.1859.4502-.0928.1318-.213.242-.3523.3229-.2936.1664-.4306.1762-1.4288.1762h-.92v-.0685s.0783-.4502.186-.8906c.1076-.4403.1566-.8514.1566-.8709.6514-.0515 1.3058-.0515 1.9572 0h-.0685Zm10.6964-3.0142c-.029.2338-.0715.4658-.1272.6948.1189.0294.2432.0294.3621 0h.3523l.0783-.3523c.0109-.1331.0372-.2644.0783-.3915 0-.0587 0-.0587-.3425-.0587s-.3915 0-.3915.0881l-.0098.0196Zm19.2888 0-1.0275 5.5194h.7829l1.0765-5.5977-.8319.0783Zm-58.845.2838-.36208.2055-.07829.4599c0 .2741-.09786.4894-.09786.4991 0 .0098-.10765 0-.26423 0h-.24466v.1958c-.01036.0955-.0267.1903-.04893.2838 0 .0587 0 .0685.24466.0881h.27402l-.24466 1.2037c-.12722.6654-.25445 1.3701-.27402 1.5266v.4893c.02165.0555.05456.1059.09668.148.04211.0421.0925.0751.14798.0967.16637.0881.20551.0881.52846.0881h.54803v-.6263h-.2153c-.23487 0-.33273 0-.40123-.1566-.06851-.1566 0-.186.21529-1.4092l.26424-1.3506h.7046v-.2348c.0115-.0961.0311-.1911.0587-.2838h-.3523c-.3523 0-.3425 0-.3425-.0685s.0685-.3132.1272-.6361c.0346-.2111.0803-.4202.137-.6264.006-.0104.0092-.0222.0092-.0342s-.0032-.0239-.0092-.0343c-.1426.0453-.2778.1112-.4012.1958l-.0196-.0196Zm8.8762.2055-.1957.9786h-.4796l-.1076.5481h.4893s-.1174.6165-.2447 1.3211c-.1298.5166-.2117 1.044-.2446 1.5756 0 .3034 0 .3132.0783.4208.1293.1199.2868.2052.4579.2479.1711.0428.3502.0417.5207-.0032.1468 0 .274 0 .274-.049v-.6459h-.1859c-.3132 0-.46-.0489-.46-.2544 0 0 .1175-.6655.2447-1.3407.1272-.6753.2446-1.2722.2446-1.2722h.6949l.137-.5481h-.6948l.2348-1.419-.7633.4404Zm72.0369-.2055c-.1957.0978-.3816.2153-.3816.2544 0 .0392 0 .2447-.0979.5089l-.0783.4502h-.2055c-.274 0-.2642 0-.3132.2838-.0489.2838-.0685.2642.2153.2642h.2447s-.1174.5872-.2447 1.2918c-.2642 1.3701-.3131 1.7811-.2348 1.9573.0376.0696.0892.1307.1515.1795.0623.0488.134.0843.2106.1043.2529.0391.5104.0391.7633 0h.1761v-.5774c0-.0587 0-.0685-.1565-.049-.3132 0-.46-.0587-.46-.2642s.411-2.3487.411-2.6423c0-.0587 0-.0587.3621-.0587h.3425v-.548H91.0223s.0587-.3132.1175-.6655c.1272-.6655.1272-.7144.0978-.7144-.0797.0701-.1549.1453-.2251.2251Zm-78.1044 1.1156c-.1551.0693-.2923.173-.4013.3034l-.225.2349v-.2741l.0587-.2642h-.3328c-.3131 0-.3229 0-.3425.0685-.0195.0685-.1859.9297-.3816 1.9573-.1958 1.0275-.3719 1.9572-.3719 1.9572s0 .0588.3425.0588h.3719c.0098 0 .0978-.5383.2153-1.1157.0685-.5756.2065-1.1408.411-1.6832.0815-.2112.2337-.3876.4306-.4991.112-.0575.2362-.0876.3621-.0876.1259 0 .2501.0301.3621.0876l.1468.0685.1859-.3425c.186-.3426.186-.3426-.0587-.46-.2658-.0733-.5465-.0733-.8123 0l.0392-.0098Zm2.6031 0c-.4186.0611-.8045.261-1.096.5676-.1686.1861-.3013.4018-.3915.6361.1976.0571.4013.09.6068.0979.0685 0 .0978 0 .1468-.1468.0809-.1672.2019-.3118.3523-.4208.1594-.102.3403-.1657.5284-.1859.3061-.0577.6226-.0021.8906.1565.0386.039.0686.0857.0881.137.0488.1561.0488.3235 0 .4796v.2153h-.0979c-.3648.085-.734.1503-1.1058.1957-.3132.0489-.6655.0979-.7634.1272-.2245.0569-.4345.1602-.6165.3034-.1849.1406-.3354.3213-.4404.5284-.0987.1646-.1368.3584-.1077.5481 0 .3327 0 .3523.1077.4991.1202.1765.2907.3129.4893.3914.1985.08.4143.107.6263.0783.5141.0207 1.0204-.1308 1.4386-.4306l.137-.0783v.4208c.1321.0296.2692.0296.4013 0h.3621v-.0782c-.0881-.3719-.0588-.6068.2153-2.0454.1957-1.0373.2055-1.3211.0978-1.5364-.0881-.1289-.2013-.2387-.3327-.323-.1315-.0806-.278-.1339-.4306-.1566-.3696-.0295-.7415-.0098-1.1059.0588v-.0392Zm1.057 2.2215c-.0511.2609-.1264.5165-.2251.7633-.0683.1053-.1506.2008-.2447.2838-.291.258-.6681.3977-1.0569.3915-.3915 0-.5872-.0979-.6948-.3425-.0257-.0465-.0392-.0986-.0392-.1517 0-.0531.0135-.1053.0392-.1517.0265-.1252.0875-.2405.1761-.3327.1762-.2055.3523-.2741 1.0569-.3915.2775-.0366.5522-.0922.8221-.1664.1957 0 .1859 0 .1664.0783v.0196Zm5.4411-2.2215c-.5211.1379-.9821.4441-1.3113.871-.3436.4907-.5467 1.066-.5872 1.6637-.0631.3645.0137.7393.2152 1.0496.2014.3103.5125.5331.8711.6238.3974.0784.8063.0784 1.2037 0 .4366-.1272.8186-.3957 1.0863-.7633.1327-.1507.2327-.3273.2936-.5187-.239-.0509-.4808-.0868-.7242-.1076-.0305.0649-.0665.1272-.1077.1859-.1463.2328-.3525.4221-.5969.548-.1576.0779-.3343.1085-.5089.0881-.3132 0-.3425 0-.4893-.0978-.0892-.0474-.1715-.1067-.2447-.1762-.0669-.0785-.1199-.1678-.1566-.2642-.0895-.22-.1165-.4605-.0783-.6949v-.0782h1.5267c1.419 0 1.5267 0 1.5267-.0588.0684-.2484.0981-.5058.088-.7633.0561-.3022.0058-.6145-.1422-.8839-.1481-.2694-.3848-.4792-.67-.5938-.1943-.0696-.4012-.0963-.6068-.0783-.1933-.0437-.3939-.0437-.5872 0v.0489Zm.8221.6361c.159.0728.2922.1923.3817.3425.0845.1559.1251.3318.1174.5089v.1958h-2.2998v-.0588c.1372-.3875.4078-.7135.7633-.9199.155-.0929.329-.1498.5089-.1663.1798-.0132.3603.0135.5285.0783v.0195Zm3.3861-.6361c-.3135.0806-.6045.2312-.8515.4404-.2456.2095-.4426.47-.5773.7633-.5774 1.145-.4013 2.4466.411 2.8087.2856.1263.6018.1671.9101.1174.3118-.0398.6065-.1651.8514-.3621.1272-.1076.1468-.1076.1272-.0489-.0396.1146-.0691.2325-.088.3523-.0305.233-.1179.4548-.2545.6459-.142.1689-.3234.3001-.5283.3821-.2048.0819-.4268.112-.646.0877-.4404 0-.6851-.2251-.6851-.5187v-.137l-.3425-.049h-.3523c-.0198.087-.0198.1773 0 .2643-.0236.1324-.0066.2689.0489.3914.0483.1266.1293.2381.2349.323.1741.1361.3738.2359.5872.2936.2168.039.4388.039.6557 0 .2345.0275.4719.0209.7046-.0196.2422-.0918.4638-.2307.652-.4088.1881-.1781.3391-.3917.444-.6286.3141-.8597.5275-1.753.6361-2.6618.186-.9787.3523-1.8594.3523-1.8986 0-.0391 0-.0685-.3131-.0685-.3132 0-.3425 0-.3915.2153-.0489.2153 0 .2153-.2348 0-.1086-.1006-.2368-.1777-.3766-.2266-.1397-.0488-.2881-.0683-.4357-.0572-.1786-.0248-.3597-.0248-.5382 0Zm.7633.6459c.0932.045.1764.1082.2446.186.0667.0822.1196.1748.1566.274.0686.1534.089.324.0587.4893-.01.3956-.0999.785-.2642 1.145-.152.2922-.3824.5362-.6655.7046-.1509.0873-.3255.125-.4991.1076-.1468.0099-.294-.0135-.4306-.0685-.1859-.1166-.3272-.2924-.4012-.4991-.0635-.2072-.0635-.4288 0-.6361.019-.4986.2091-.9755.5383-1.3505.143-.1998.3501-.3448.5869-.4106.2367-.0659.4889-.0488.7146.0485l-.0391.0098Zm5.2259-.6459c-.3647.0822-.7019.2575-.9787.5089-.5138.5262-.8167 1.2226-.8514 1.9573-.1076 1.1058.3817 1.7224 1.3701 1.7909.4146.019.8258-.0828 1.1837-.293s.647-.5198.8323-.8912c.1761-.3719.1761-.3425-.137-.3817-.3132-.0391-.411-.0685-.5285.1762-.0812.2159-.2241.4031-.411.5382-.1843.1324-.4004.2134-.6263.2349-.2146.0231-.4302-.0326-.6068-.1566-.3816-.2446-.4404-.8514-.2251-1.6441.0391-.2306.1257-.4506.2545-.6459.1374-.1882.3103-.3477.5089-.4697.175-.1194.3858-.1747.5969-.1566.21.017.4074.107.5578.2545.1035.147.1644.3197.1762.4991 0 .0685 0 .0685.0979.0489l.3621-.0489h.2642v-.186c-.0028-.2294-.0782-.4521-.2153-.6361-.139-.1872-.3294-.33-.548-.411-.3331-.0991-.6834-.1258-1.0276-.0783l-.0489-.0098Zm14.3565 0c-.2563.0402-.5004.1372-.7144.2838-.2085.1476-.3794.342-.4991.5676-.1151.255-.1392.5417-.0685.8123.1272.3425.3914.4893 1.3798.7731.6753.1762.7634.2642.7634.4893-.0166.1562-.0816.3034-.186.4208-.1046.115-.2407.1967-.3914.2349-.3507.0871-.7214.0382-1.0374-.137-.0726-.0706-.1323-.1534-.1761-.2447-.0441-.0921-.0707-.1917-.0783-.2936v-.1076h-.1077l-.3816.0489h-.2643v.2153c-.0067.1499.0166.2997.0685.4404.0546.1426.1379.2725.2447.3817.1067.1076.2329.194.3719.2544.1392.0592.2891.0892.4404.0881.4788.1109.9819.0375 1.4092-.2055.423-.2484.7373-.6465.8808-1.1157.039-.1242.039-.2574 0-.3816-.0288-.1244-.0896-.239-.1762-.3328-.1664-.1761-.3817-.2838-1.1646-.5088-.6263-.186-.7633-.2545-.8612-.3523-.0978-.0979 0-.4013.186-.5677.1823-.1142.3916-.1784.6067-.1859.2154-.015.4311.0254.6264.1174.067.0426.1238.0994.1663.1664.0405.0692.0671.1457.0783.2251v.1566h.6753c.039-.1707.039-.348 0-.5187-.137-.4306-.6068-.6655-1.3505-.6459-.1401-.0101-.2808-.0101-.4209 0l-.0195-.0783Zm5.8717 0c-.2785.0912-.5375.234-.7633.4208l-.1566.1468v-.1957c.0588-.3523.0979-.3327-.2838-.3327-.3816 0-.3131 0-.3327.0587l-.3719 1.9572c-.1957 1.057-.3816 1.9573-.3816 1.9573s0 .0587.3523.0587.3621 0 .3718-.0587c.0098-.0587.1175-.5676.2349-1.2037s.2447-1.2135.2838-1.3309c.0525-.2521.1825-.4813.3719-.6557.1925-.1697.4308-.2786.685-.3132.1293-.0488.272-.0488.4013 0 .0927.0244.1793.0677.2544.1272.0713.0606.131.1335.1762.2153.0127.6596-.0798 1.317-.274 1.9475-.1371.7046-.2545 1.282-.2545 1.3016h.7731l.3034-1.419c.1524-.5798.2475-1.173.2838-1.7714 0-.3327 0-.3816-.0881-.5088-.1091-.181-.2739-.3218-.4697-.4013-.359-.0676-.7274-.0676-1.0863 0h-.0294Zm3.9146 0c-.4527.1019-.8629.3411-1.1744.6851-.341.3911-.5678.8684-.6557 1.3798-.2544 1.3016.2447 2.0845 1.3897 2.1726.4261.0417.8551-.0434 1.2331-.2447.3761-.1997.6882-.5016.9003-.871.0366-.0665.0693-.1351.0979-.2055-.104-.0141-.2093-.0141-.3132 0-.1205.0106-.2416.0106-.3621 0 0 0-.0881 0-.1272.137-.1562.2427-.3718.4415-.6263.5774-.1462.0806-.3135.1147-.4796.0979-.1343.0386-.2767.0386-.411 0-.1363-.0403-.2584-.1183-.3523-.2251-.1045-.096-.1854-.2148-.2363-.3472-.0509-.1325-.0705-.2749-.0573-.4161v-.2838h3.0533v-.1762c.049-.3243.049-.6542 0-.9786-.0363-.2769-.1557-.5362-.3425-.7438-.1945-.1997-.4426-.339-.7144-.4012-.2784-.049-.5632-.049-.8416 0l.0196-.1566Zm.822.6459c.1695.0906.3039.2353.3817.411.0601.1728.0866.3555.0783.5383v.0881H56.506c-.3712.0293-.7443.0293-1.1156 0l.0979-.2643c.0976-.1952.2381-.3658.411-.4991.1717-.1298.3682-.2231.5774-.274.2299-.0685.4747-.0685.7046 0h-.0098Zm3.0533-.6459c-.2526.0378-.4916.1388-.6948.2936-.2035.1571-.3649.3622-.4697.597-.0697.1391-.097.2957-.0783.4501-.0295.1123-.0295.2303 0 .3426.041.1117.1121.2099.2055.2838.3091.2176.664.3615 1.0373.4208l.7144.2251c.2838.137.3034.411.0588.6948-.0882.091-.1907.1671-.3034.2251-.1566.088-.1957.088-.5676.088-.1791.0214-.3607-.0021-.5285-.0685-.1166-.061-.2146-.1523-.2838-.2642-.0668-.112-.0975-.2418-.0881-.3719v-.1174H58.4731v.2349c-.0126.1341.0026.2694.0447.3974s.1102.2459.2.3463c.1572.1887.3752.3167.6165.3621.4155.0588.8372.0588 1.2526 0 .3799-.0573.7269-.2481.9787-.5382.234-.2738.3685-.6187.3816-.9787-.0117-.1204-.0483-.237-.1076-.3425-.0642-.1032-.1513-.1902-.2545-.2544-.3729-.1793-.7631-.3203-1.1645-.4208-.4111-.1175-.597-.2055-.6459-.3425-.1077-.2936.1761-.597.6752-.6753.4991-.0783.9787.0979.9787.4991 0 .1468 0 .1468.1174.137h.6263c.0091-.214-.0276-.4276-.1076-.6263-.0907-.1267-.2034-.2361-.3328-.323-.1315-.0806-.2779-.1339-.4306-.1565-.3476-.0441-.6994-.0441-1.0471 0l-.0294-.1175Zm3.8265 0c-.3772.0521-.7238.2358-.9786.5187-.1003.1012-.1801.2208-.2349.3523-.0505.1312-.077.2704-.0783.411-.0307.1558.0009.3174.0881.4502.1468.2838.3621.4012 1.096.597.3461.0524.6786.1721.9787.3523.2348.2446-.0685.7633-.5383.8612-.3183.1012-.6603.1012-.9786 0-.1005-.0468-.1855-.1216-.2447-.2153-.0614-.0895-.0954-.1949-.0978-.3034v-.2251c-.1254.0027-.2501.0191-.3719.0489h-.3621v.1958c0 .148.0299.2944.0881.4306.0535.1379.1333.2642.2348.3718.1053.1023.2279.1852.3621.2447.1393.0592.2891.0891.4404.0881.4778.1059.9779.029 1.4018-.2155.4239-.2446.7408-.6391.8882-1.1057.0588-.1958.0377-.4069-.0587-.5872-.091-.1822-.2488-.3224-.4404-.3914-.0979-.0489-.4795-.1664-.8514-.2838-.7731-.2447-.9101-.2936-.9101-.548 0-.2545.2153-.4111.4795-.4991.2516-.054.5118-.054.7633 0 .1289.0109.25.0662.3426.1565.0898.0979.1479.2208.1663.3523v.137h.3425c.1123-.0296.2269-.0493.3426-.0587v-.1859c0-.5089-.274-.8123-.871-.9786-.3515-.0342-.7055-.0342-1.0569 0l.0587.0293Zm6.8504.2545c-.0862.0525-.157.1268-.2055.2153 0 0 .0587-.2545.0783-.3817h-.6557l-.7829 4.0319h.7144s.5284-2.4955.5774-2.6129c.0745-.2618.2369-.4898.4599-.6459.2215-.1617.4892-.2475.7634-.2446.1173-.0102.2352.01.3425.0587.1063.0459.1977.1205.2642.2153.137.1957.1174.3914-.1859 1.8789-.1273.7144-.2545 1.3505-.2545 1.3505h.7144s.5187-2.5933.5481-2.8478c.0491-.1793.0491-.3686 0-.548-.0387-.1797-.1308-.3434-.2643-.4697-.1111-.1046-.2452-.1816-.3914-.2251-.2507-.0234-.5029-.0234-.7536 0-.3306-.0094-.658.0682-.9492.2251h-.0196Zm4.7366-.2545c-.2633.0711-.5052.2055-.7047.3915-.1076.0978-.1761.1272-.1663.0978.0387-.1414.0681-.2853.0881-.4306h-.6557l-.3817 2.0258-.3914 2.0355h.7241l.2153-1.0764c.1077-.597.2251-1.2038.2545-1.331.0292-.2073.1063-.405.2251-.5774.122-.1746.2827-.3187.4697-.4208.597-.3034 1.1842-.137 1.2624.3328.019.11.019.2226 0 .3327 0 .2349-.5088 2.7401-.5088 2.7401h.7241s.4894-2.6227.5481-2.8771c.0589-.2212.0589-.454 0-.6753-.0116-.0701-.0383-.1369-.0783-.1957-.0301-.059-.078-.107-.137-.137-.1158-.1056-.2525-.1856-.4013-.2349-.148-.035-.3021-.035-.4501 0-.1999-.044-.4069-.044-.6068 0h-.0293Zm3.8264 0c-.4347.0905-.8311.3126-1.1352.6361-.3919.4229-.6446.9557-.7242 1.5267-.0684.3654-.0684.7404 0 1.1058.0737.2074.1942.395.3523.5481.1565.1492.3435.2627.548.3327.3986.0979.815.0979 1.2135 0 .3135-.0806.6045-.2312.8515-.4404.253-.1992.4572-.4536.5969-.7437.2868-.6099.3921-1.2893.3034-1.9573-.0677-.2504-.2031-.4773-.3915-.6557-.1865-.1765-.4159-.3012-.6654-.3621-.2923-.0391-.5885-.0391-.8808 0l-.0685.0098Zm.7633.6166c.214.0967.3896.262.4991.4697.0587.1174.0588.1957.0588.5382.0275.5746-.165 1.138-.5383 1.5756-.1107.131-.2473.2376-.4012.3132-.1574.0692-.3272.1059-.4991.1076-.087.0195-.1773.0195-.2643 0-.0855-.0173-.1659-.0541-.2348-.1076-.3719-.1957-.5089-.4795-.4698-1.0471-.0004-.3104.0678-.6169.1998-.8978.1319-.2808.3244-.529.5636-.7268.1532-.1335.3388-.2246.5382-.2642.1954-.0532.4015-.0532.597 0l-.049.0392Zm7.1147-.6459c-.3173.0173-.6248.1166-.8923.2881-.2675.1715-.4861.4094-.6344.6905-.0472.0842-.0866.1727-.1174.2642.2133.0404.4291.0666.6459.0783 0 0 .088 0 .1272-.1272.1187-.2132.2906-.3919.4991-.5187.2286-.0998.4803-.1343.7274-.0998.247.0346.4796.1369.672.2955.0618.1029.086.2239.0685.3426.0098.1041.0098.209 0 .3131-.3531.1641-.7361.254-1.1254.2643-.4025.0285-.7984.1176-1.1743.2642-.2026.086-.3832.2164-.5285.3816-.1386.1667-.2419.3598-.3034.5677-.034.1415-.034.289 0 .4305.0192.1459.0693.286.1468.4111.0842.1209.1946.2213.323.2936.1303.0685.2738.1086.4208.1174.6154.0583 1.2318-.101 1.7419-.4502l.1664-.1174v.1761c0 .3426 0 .323.411.323s.3817 0 .3621-.0685c-.0978-.3621-.0978-.5187.1762-1.9573.1766-.4883.2337-1.0118.1663-1.5266-.0453-.1678-.1495-.3137-.2935-.4111-.1332-.1097-.2976-.1748-.4698-.1859-.3255-.031-.6531-.031-.9786 0l-.137-.0391Zm.8905 2.5542c-.0607.2874-.2115.548-.4306.7437-.1468.14-.3197.2498-.5089.323-.1928.0759-.3998.1093-.6067.0979-.1344.0175-.271-.0064-.3915-.0686-.4501-.2446-.3523-.8416.1762-1.0764.2512-.0695.506-.125.7633-.1664l.8319-.1566c.0682-.0091.1373-.0091.2055 0l-.0392.3034Zm5.3042-2.5249c-.5405.1684-1.009.513-1.3309.9786-.3228.4538-.4909.9994-.4796 1.5561-.0479.2882-.0105.5842.1077.8514.1175.2709.307.5045.548.6752.3064.1433.6404.2176.9786.2176.3383 0 .6723-.0743.9787-.2176.3007-.1406.5676-.3442.7829-.5969.2154-.253.3725-.5504.4599-.871.1625-.4916.2094-1.014.137-1.5267-.0487-.2519-.1714-.4835-.3523-.6654-.1798-.1825-.4068-.3112-.6556-.3719-.3622-.0688-.734-.0688-1.0961 0l-.0783-.0294Zm.8123.6361c.1447.0728.2691.1804.3621.3132.0954.133.156.2877.1761.4502.0302.5974-.1272 1.1894-.4502 1.693-.1792.2096-.4079.3711-.6654.4697-.2736.0883-.5681.0883-.8417 0-.1814-.1024-.3254-.2602-.411-.4501-.1453-.6152-.0508-1.2626.2643-1.8105.1354-.2951.3762-.529.6752-.6557.3157-.1169.6629-.1169.9786 0l-.088-.0098Zm3.4154-.6459c-.2453.0811-.4581.2389-.6068.4502-.137.1468-.137.1468-.0685-.1566-.0124-.0745-.0124-.1505 0-.2251-.1067-.0196-.2162-.0196-.3229 0h-.3328s-.1565.9102-.3718 1.9573c-.2153 1.0471-.3817 2.0062-.3817 2.0355 0 .0294 0 0 .3621 0h.3621l.1761-.9786c.0882-.6103.2257-1.2125.4111-1.8007.1029-.2496.2763-.4638.4991-.6165.1312-.0487.2714-.0688.411-.0587.1384.0123.2722.0558.3914.1272.1477-.2026.2755-.4189.3817-.6459l-.2055-.1174c-.1266-.0759-.2738-.1101-.4208-.0979h-.186l-.0978.1272Zm-68.5041.137-.3719 1.9573c-.1957 1.0471-.3817 1.9573-.3817 1.9573s0 .0685.3524.0685c.3523 0 .362 0 .3718-.049.0098-.0489.186-.9199.3817-1.9572.1957-1.0374.3817-1.9573.3914-1.9573.0098 0 0-.0685-.3425-.0685h-.3523l-.0489.0489Zm12.1839-.0685-.2642 1.3603c-.1489.5728-.2342 1.1603-.2544 1.7518 0 .3425 0 .411.0587.5187.1318.1892.3105.341.5187.4403.2169.0878.4529.1182.685.0881.4294-.0347.8353-.2102 1.1548-.4991.1272-.1174.1468-.1174.0685.1664.0046.0717.0046.1436 0 .2153.1074.0098.2155.0098.3229 0h.3034l.3915-2.0258c.2153-1.1156.3914-2.0355.3816-2.0551h-.7242l-.2153 1.0863c-.055.6053-.2002 1.199-.4306 1.7615-.3229.685-1.3309.9786-1.7028.4404-.0587-.0881-.0685-.137-.0685-.411.0417-.5345.1268-1.0647.2545-1.5854.1272-.6948.2446-1.2722.2446-1.2722h-.6654l-.0588.0195Zm7.8291.137c0 .0881-.2055.9787-.3817 1.9573-.1761.9786-.3621 1.8692-.3621 1.879 0 .0098 0 0 .3621 0h.3621l.3719-1.9573c.2055-1.0667.3816-1.9572.4012-2.0355v.0195h-.7144l-.0391.137Zm32.6079 0s.1762.9787.3915 2.0454l.3816 1.9572h.6949l1.1547-2.0355 1.1744-2.0258h-.3621c-.1297-.0196-.2617-.0196-.3914 0 0 0-1.3897 2.4662-1.5952 2.8674l-.1664.2936v-.2055c0-.2251-.4795-2.9359-.4893-2.9359-.0098 0-.0685-.0587-.4012-.0587h-.3817l-.0098.0978Z"/>
	<path fill="#0A3E86" d="M13.9942 13.701c-1.4682.5813-2.7174 1.608-3.572 2.9359-.58872.9358-.92582 2.0077-.97862 3.112-.05322.7965.14987 1.589.57952 2.2617.4297.6726 1.0634 1.1901 1.8083 1.4767.9712.4625 1.9836.8327 3.024 1.1059.3327.088.9786.3033 1.3114.3914.6967.1482 1.3159.5448 1.7419 1.1157.1068.3131.1211.6504.0413.9714-.0798.3211-.2505.6124-.4914.839-.5749.5199-1.3029.8392-2.0747.9101-.5626.0386-1.1278.009-1.6833-.088-.3-.046-.5862-.1575-.8383-.3266-.252-.1692-.4637-.3918-.6198-.6521-.2098-.5859-.2703-1.2148-.1762-1.83H7.51568c-.41632 1.5185-.21583 3.1401.55782 4.5115.28451.4489.65744.8351 1.09606 1.1352 1.33844.8295 2.90024 1.2259 4.47234 1.1352 1.4418.0024 2.874-.2358 4.2375-.7046.5977-.2367 1.1659-.5421 1.693-.9101.8474-.562 1.5675-1.2955 2.1138-2.153.5428-.858.918-1.811 1.1059-2.8087.2065-.9141.1175-1.8702-.2545-2.7304-.1912-.3709-.4501-.7028-.7633-.9786-.8612-.7927-1.9572-1.3016-4.4625-1.9573-1.7714-.4893-2.3977-.7731-2.7891-1.1547-.1625-.153-.2575-.3642-.2643-.5872.0036-.4071.1529-.7994.4208-1.1059.2343-.299.5505-.5235.9102-.6459.7987-.2573 1.6543-.2811 2.4661-.0685.2714.0728.5224.2067.734.3915.2084.1863.3609.4268.4404.6948.0685.3457.0685.7015 0 1.0471h4.5702c.2414-1.131.1322-2.3088-.3132-3.3762-.1952-.4322-.4785-.8189-.8318-1.1352-.9257-.819-2.0801-1.3348-3.3078-1.4778-.6489-.0833-1.3031-.1193-1.9572-.1076-1.1624.0926-2.3057.3496-3.3959.7633Zm13.1234-.4306-4.2374 18.9365h4.8931c5.2748 0 4.991 0 6.0088-.1761 1.2539-.1738 2.4339-.6959 3.4056-1.5071.9657-.8299 1.6836-1.9102 2.0747-3.1219.1816-.4951.316-1.0062.4013-1.5266.1089-.528.1096-1.0725.002-1.6007-.1077-.5282-.3214-1.0291-.6284-1.4722-.3891-.4584-.8871-.8117-1.4483-1.0276 0 0 .7535-.4306 1.0373-.6459.3789-.2892.7266-.6172 1.0374-.9786.5755-.7138.9595-1.5626 1.1156-2.4662.3817-2.2312-.4991-3.66-2.701-4.1983-.4693-.1271-.9525-.1961-1.4386-.2055l-9.5221-.0098Zm7.8291 3.9145c.1458.0128.2873.0559.4154.1267s.24.1677.3283.2844c.1783.2316.2653.5206.2447.8122-.0122.5092-.1757 1.0032-.4698 1.419-.313.4028-.7497.6916-1.2428.8221-.7207.0877-1.4472.1172-2.1726.0881h-1.9572l.7927-3.5916h1.8985c.6753-.0098 1.6343-.0098 2.1628.0293v.0098Zm-1.3995 6.7917c.3178-.0011.6284.0945.8906.274.2624.1825.4609.4426.5676.7438.0978.3754.0978.7696 0 1.145-.0805.5082-.3204.9777-.6851 1.3407-.361.3638-.826.6066-1.3309.6949-.8025.0978-4.5604.0587-4.5604.0587l.9786-4.2669 4.1396.0098Zm6.0773 8.2401h4.5898l4.2179-18.868h-4.5898l-4.2179 18.868Z"/>
	<path fill="#FC121B" d="M40.0553 0C35.5341 0 28.3118 1.70282 22.44 3.91452 16.1256 6.23355 10.2737 9.65655 5.15738 14.0238 4.57999 14.5229 1.32115 17.6153 0 20.3946c2.26623-2.2336 4.75141-4.2335 7.41801-5.9696C15.7334 9.15069 25.1413 5.84068 34.9273 4.74635c5.725-.55781 11.0585.45996 13.4268 1.95726 6.2632 4.01239 2.427 9.96249 2.3879 10.10929.4697-.4894 4.6093-4.3354 4.6093-9.43403 0-2.23128-1.6637-4.42341-4.12-5.62712C47.5908 0 44.9387 0 40.0553 0Z"/>
</svg>