<svg xmlns="http://www.w3.org/2000/svg" viewBox="0 0 100 50">
	<path fill="#5B57A2" d="m0 10.8838 6.05499 10.8229v6.6017L.00708333 39.11 0 10.8838Z"/>
	<path fill="#D90751" d="m23.2485 17.7676 5.6738-3.4775 11.6116-.0108-17.2854 10.5892v-7.1009Z"/>
	<path fill="#FAB718" d="m23.2168 10.8196.032 14.3291-6.0691-3.7291V0l6.0375 10.8196h-.0004Z"/>
	<path fill="#ED6F26" d="m40.5342 14.2796-11.612.0108-5.7054-3.4708L17.1797 0l23.3541 14.2796h.0004Z"/>
	<path fill="#63B22F" d="M23.2488 39.17v-6.9521l-6.0691-3.6583.0033 21.4408L23.2488 39.17Z"/>
	<path fill="#1487C9" d="M28.9083 35.7242 6.05458 21.7067 0 10.8838 40.5095 35.71l-11.6016.0142h.0004Z"/>
	<path fill="#017F36" d="m17.1836 50.0004 6.065-10.8304 5.6596-3.4459 11.6012-.0141-23.3258 14.2904Z"/>
	<path fill="#984995" d="M.00732422 39.1093 17.2294 28.5593l-5.79-3.5525-5.38417 3.3009L.00732422 39.1093Z"/>
	<path fill="#000" d="M66.2022 26.6991c3.9074 0 6.809-2.3958 6.809-6.0278 0-3.5156-2.1407-5.7979-5.7187-5.7979-1.6512 0-3.0138.581-4.04 1.584.245-2.0727 1.9979-3.5864 3.9279-3.5864.4455 0 3.7988-.0069 3.7988-.0069l1.8963-3.62875s-4.21.09603-6.1671.09603c-4.4717.07772-7.4921 4.14222-7.4921 9.07872 0 5.7516 2.9458 8.289 6.9859 8.289Zm.0238-8.6116c1.4508 0 2.4564.9533 2.4564 2.5834 0 1.4669-.8935 2.6758-2.4564 2.679-1.4952 0-2.501-1.1202-2.501-2.6542 0-1.6304 1.0058-2.6082 2.501-2.6082Zm21.8735-4.0495v12.2241h-4.365v-8.575h-4.2029v8.575h-4.365V14.0372l12.9329.0008Zm-35.0067 8.8383c1.5398-.1123 2.5704-.7068 2.5704-.7068l1.6154 2.9887c-1.0345.6645-2.7319 1.0966-3.9624 1.1422-4.402.0809-7.4641-2.5977-7.4641-6.5003 0-3.8533 3.2578-6.5958 7.4641-6.5958 1.6667 0 3.0996.4471 4.1754 1.2626-.2264.4012-.5342.957-.8268 1.4888l-.4685.8537-.4262.7796s-1.5501-.8122-2.7218-.8122c-1.9108 0-3.3024 1.1105-3.3024 3.0477 0 1.9865 1.5769 3.1043 3.3469 3.0518Zm-3.3457 11.6125c-.1333.1701-.3086.2987-.519.3854-.2161.0878-.447.1326-.6801.1314-.2318.0032-.4623-.0354-.6804-.1139-.1959-.0713-.3749-.1823-.5259-.326-.1489-.144-.2659-.3178-.3432-.5102-.0838-.2104-.1255-.4354-.1229-.6621 0-.225.0387-.4333.119-.6306.0771-.1978.1892-.3675.3296-.5099.0637-.0659.1331-.1249.2075-.1778l.0456-.0309c.0478-.0314.0977-.0607.1493-.0875l.0556-.0277.0401-.0191c.1928-.0834.4032-.1286.6345-.1286.249 0 .4804.0313.6907.0936.1329.0391.2529.0948.3603.1672.0631.0428.1217.0912.176.1453l-.2557.4333c-.1239-.1123-.2696-.1973-.4281-.2502-.1505-.0484-.308-.0728-.4661-.0724-.1401 0-.2734.0276-.403.0797-.1276.0513-.2443.1266-.3436.2222-.1018.0976-.1817.2161-.2352.3467-.0594.1347-.0875.284-.0875.4504 0 .1697.0313.3223.0909.4541.0601.1351.1404.2498.2421.3467.1016.0972.2208.1697.3575.2185.0558.0212.1127.0378.1709.05.0848.0179.1727.0265.2641.0265.1892 0 .3613-.0387.5084-.1115.0771-.0374.1502-.0822.2181-.1339.0602-.0459.1164-.0972.1676-.1534l.2629.3947Zm.7223.444v-3.0856h.554v2.299l1.8021-2.299h.5542v3.086h-.5542v-2.2986l-1.8021 2.2986-.554-.0004Zm6.5812-.444c-.1363.1717-.3152.3044-.5188.3854-.1237.05-.2525.0862-.3837.1078-.0979.0159-.1972.024-.2967.0236-.0929.0012-.1857-.0041-.2775-.0163-.1371-.0179-.272-.0504-.4026-.0976-.0448-.0163-.0887-.0346-.1316-.055-.0519-.0248-.1024-.0525-.1512-.0826-.0871-.0541-.1687-.1172-.2433-.1884-.1492-.144-.2661-.3178-.3435-.5102-.0836-.2104-.1255-.4354-.1228-.6621 0-.225.0386-.4333.1192-.6306.0775-.1978.1894-.3675.3296-.5099.1404-.1457.3086-.2563.4978-.343.1998-.0879.4163-.1318.6346-.1286.1448 0 .2834.0106.4154.0317l.0775.0135c.0293.0057.0584.0122.0871.0191l.0511.0126.0598.0167c.2104.0622.389.1664.5365.3125l-.2561.4333c-.1235-.1123-.2692-.1973-.4275-.2502-.038-.0122-.0765-.0232-.1154-.0326-.0266-.0061-.0535-.0113-.0805-.0162-.0254-.0045-.0511-.0086-.0767-.0118l-.0566-.0061c-.0456-.0041-.0913-.0061-.1371-.0057-.2785.0008-.5461.109-.7471.3019-.026.0256-.0506.0521-.0738.0802-.0275.0329-.0529.0679-.0761.1041-.033.0517-.0615.1058-.0851.1624-.013.0293-.0244.0594-.0343.0903-.0116.0354-.0212.0716-.0289.1086-.0163.0794-.0242.1628-.0242.2515 0 .0802.0069.1563.0205.2283.0081.0427.0185.0834.0311.1229.0114.0358.0247.07.0395.1029.0376.0855.0836.1628.1379.2323.0318.0407.0664.0786.1038.1144.1017.0972.2214.1697.3579.2185.1367.0484.2805.0765.4345.0765.0647 0 .127-.0045.187-.0134.1156-.0167.2224-.0501.3215-.0981.1456-.0704.2767-.168.3857-.2873l.2631.3947Zm.2874-2.6416h2.84v.5481h-1.143v2.5375h-.554v-2.5375h-1.143v-.5481Zm5.9711 2.7495c-.1542.1383-.3328.2392-.5434.3051-.2029.0655-.4144.0993-.6275.1005-.0854.0013-.1706-.0032-.2553-.013-.1483-.0175-.2944-.0513-.4354-.1013-.2071-.0761-.382-.1839-.5259-.3259-.1469-.1441-.2616-.3178-.3367-.5095-.0771-.1977-.1192-.4195-.1192-.6624-.0021-.2153.0348-.4289.1088-.6307.0674-.19.1736-.3634.3117-.5099.0659-.0679.138-.1298.2151-.1843.0893-.063.1853-.1164.2866-.1591.1156-.048.2407-.0834.376-.1045.0983-.0155.2018-.0236.3111-.0236.0643-.0005.1284.0032.1916.0109.0574.007.1144.0171.1705.0301.0686.0163.1363.0375.2024.0631.172.0639.3294.1616.4629.2877.0342.033.0663.0671.0966.1033.0251.0298.0489.0603.0712.092.0344.0484.0658.0997.0934.1522.0171.0325.0328.0659.0472.0997.0318.0716.057.1461.0757.2238.0267.1102.0401.2274.0401.3519 0 .1421-.0104.2633-.035.3707h-2.3983c.0246.2918.1333.52.3329.6832.2.1632.4524.2425.7574.2425.104 0 .2035-.0081.2977-.0244.0901-.0154.1757-.0382.2565-.0688.1646-.0626.3013-.1387.4031-.229l.1682.4297Zm-1.2587-2.3019c-.2875 0-.5154.0761-.6871.2319-.1699.1535-.2781.363-.305.5896h1.8933c-.0142-.2563-.0978-.4573-.2559-.603-.0262-.0244-.0541-.0464-.0834-.0663-.0277-.0191-.0568-.0362-.0873-.0517-.023-.0118-.047-.0224-.0718-.0321-.117-.0456-.2517-.0684-.4028-.0684Zm2.23-.4476h.5049l1.1992 1.5292 1.1358-1.5292h.491v3.086h-.5538V32.683l-1.0801 1.4319h-.0212l-1.1216-1.4323v2.2502h-.5542v-3.0856Zm4.5961.0932c.0786-.0334.1595-.061.2421-.0826.1789-.0484.3646-.0761.5613-.0761.1915 0 .3585.0208.5007.0623.0951.0276.1791.0647.2517.1106.0694.0436.1284.0957.1768.1563.0781.0956.1388.2091.1823.3402.0561.1688.0838.3666.0838.5928v1.8929h-.5186v-.3987c-.0913.118-.2175.2217-.3755.3121-.1575.0899-.3646.135-.624.135-.188 0-.3518-.0354-.4916-.1062-.0305-.0154-.0598-.0325-.0881-.0512-.0191-.013-.0378-.0269-.0559-.0411-.0201-.0159-.0397-.033-.0586-.0509-.1752-.1664-.2631-.4024-.2631-.7039-.0016-.1453.0295-.2885.0914-.4199.0578-.1197.1416-.2251.2453-.3081.1018-.0834.2279-.146.375-.1876.0291-.0081.0586-.0158.0883-.0227l.0448-.0098.0502-.009c.0912-.0158.1854-.0244.2834-.0244.1343.0017.268.0155.3996.0419.1361.0236.2653.0769.3788.1563 0-.0615-.0014-.1209-.0042-.1782l-.0055-.0843c-.0037-.0455-.0086-.0899-.0149-.133-.0175-.1213-.0492-.225-.0983-.3084-.0232-.0391-.0508-.0753-.0834-.1071-.0152-.015-.0315-.0293-.049-.0423-.0118-.0085-.0242-.0171-.0372-.0248-.0141-.0085-.0287-.0163-.0442-.0236-.0946-.0484-.2175-.0732-.3717-.0732-.1929 0-.3542.0211-.4803.0663l-.0672.0248-.0567.0216-.0666.0272c-.0628.0265-.1255.055-.1884.0859l-.1471-.4374c.0751-.0464.1536-.0871.2346-.1217Zm.6739 2.5488c.2032 0 .3682-.0411.4945-.1314.1138-.0757.2175-.1656.3083-.2673v-.3919c-.0613-.0439-.1266-.0805-.196-.1102-.0388-.0167-.0789-.031-.1202-.0428-.0287-.0081-.058-.0154-.0879-.0219-.0342-.0074-.0692-.0131-.105-.0175-.0616-.0078-.1257-.0118-.192-.0118-.0843 0-.1646.0101-.2456.0309-.0401.0097-.0791.0232-.1166.0403-.0335.015-.0661.0329-.097.0537-.0596.0415-.1121.0936-.151.1595l-.0079.0142c-.0059.011-.0112.022-.0159.0334-.0053.0126-.0097.0256-.0136.0391-.0037.0122-.0067.0248-.0094.0378-.0063.0313-.0093.0647-.0093.1005 0 .1457.049.2637.1475.3536.0565.05.1271.0863.2112.1078.0614.0159.1302.024.2059.024Zm6.5319-3.9937c-.0982.1282-.2032.2148-.3153.2665-.1125.0521-.235.0871-.3683.1148-.1001.0207-.2046.0398-.3143.0598l-.1099.0203c-.1662.0305-.3277.083-.4805.1559-.058.0248-.1135.0549-.1658.0895-.0375.0248-.0733.0517-.1072.081l-.0409.037-.0249.0248-.0258.0273c-.0189.0224-.0372.0451-.0547.0683-.035.046-.0672.0936-.0965.1433-.0295.05-.0561.1021-.0799.1562-.06.1347-.1054.2775-.1371.4264-.0314.1494-.0489.2946-.0597.4366h.0143c.049-.1106.119-.2079.2032-.295.0861-.0878.184-.1635.291-.225.0234-.0134.047-.0264.071-.039.027-.0139.0545-.0269.0824-.0391.0639-.0281.1298-.0517.1973-.0708.1264-.0346.256-.0521.3892-.0521.1302-.0016.2598.0126.386.0423.0736.0175.146.0403.2168.0684.1744.0692.3313.1762.4596.3125.1282.1392.2263.3031.2875.4818.0667.1875.1017.3987.1017.6307 0 .2152-.0386.4195-.1192.6103-.0331.0822-.073.1607-.119.2348-.0604.0976-.131.1872-.2106.2681-.144.1465-.3157.2629-.5049.3431-.1962.0834-.4137.1285-.6486.1285-.256 0-.4838-.0451-.6873-.1351-.2032-.0899-.3754-.2152-.519-.3816-.1438-.1632-.2521-.3638-.3296-.6035-.0771-.2392-.1155-.5057-.1155-.8007 0-.2287.0138-.4676.0421-.7174.0274-.245.0828-.4854.1646-.7178.0807-.2291.2-.437.3509-.6205.1508-.1839.3504-.3292.5996-.437l.0543-.0236c.0267-.011.0535-.0216.0806-.0313.0492-.0179.0988-.0342.1491-.0489.0301-.0085.0604-.0167.0909-.024.0383-.0093.0769-.0175.1158-.0244l.1919-.033.1027-.0179.105-.0187c.0616-.0106.1227-.0248.1827-.0427.0472-.0138.0938-.0297.1398-.0476.0254-.0098.0502-.0224.0742-.0366l.0313-.0204c.0566-.0394.1091-.0923.1575-.1578l.3015.4333Zm-2.3419 2.6904c-.0032.1831.0228.3658.0769.5408.0464.1481.1188.2865.2138.4093.0908.1099.2045.1986.3333.26.1296.0623.2702.0936.4242.0936.1166 0 .2236-.0158.3233-.048l.0362-.0122c.0195-.0069.0388-.0146.058-.0232.1212-.0512.2309-.1269.3224-.2213.0916-.0948.1632-.2071.2106-.33.0486-.1245.0771-.26.0771-.409 0-.3015-.0842-.5513-.2563-.7519-.0576-.0667-.1235-.1221-.1982-.1664-.0612-.0367-.1284-.0655-.2014-.0871-.1028-.0301-.2171-.0452-.3436-.0452-.2617-.002-.5164.0847-.7223.2462-.0911.0732-.1682.1562-.2279.2498-.0207.031-.0394.0631-.0559.0965-.0132.0268-.0252.0541-.0356.0818-.0142.0378-.0258.0769-.0346.1163Zm6.3566-1.3383h.5542v3.086h-.5542v-3.086Zm-2.3421 0h-.5575v3.0892h1.0063c.0505 0 .0989-.0016.1457-.0045.0295-.0016.0582-.004.0862-.0069.0253-.0024.0501-.0053.0743-.0089.1149-.0163.2181-.0423.3109-.0765.039-.0147.0763-.0301.1117-.0468l.0453-.0228.0358-.0191c.0253-.0147.0495-.0301.0725-.0464.0148-.0102.0291-.0208.0429-.0313.0169-.0135.0332-.0273.0488-.0415.0149-.0135.0291-.0277.0425-.042.0983-.1041.1722-.2185.2143-.3499.0268-.0781.0453-.1562.0557-.2356.0073-.0549.0108-.1107.0108-.1672 0-.0297-.001-.059-.003-.0883-.0017-.0257-.0041-.0509-.0072-.0761-.0097-.0798-.0264-.1575-.0494-.2344-.0387-.1278-.1054-.2421-.2-.3393-.0946-.0973-.2207-.1766-.3786-.236-.1581-.0586-.3542-.09-.5959-.09h-.5121v-.9257Zm.4032 2.5725h-.4032V33.2824h.4103c.0517 0 .1006.0016.1467.0053.0708.0056.1349.0158.1925.0301.0433.0105.0828.024.1186.0394.0454.02.0844.0436.1174.0712.0372.0326.0686.0696.0938.1119.0279.0464.0486.0989.0614.1571.0108.0484.0163.1009.0163.1575 0 .1839-.0557.3222-.1682.4195-.0491.0423-.114.0757-.1947.0997-.1042.0305-.2348.046-.3909.046Zm6.1572.0687c-.1332.1701-.3086.2987-.519.3854-.216.0874-.4469.1322-.6801.1314-.2317.0032-.4622-.0354-.6803-.1139-.1959-.0713-.375-.1823-.5259-.326-.0572-.0553-.1097-.1151-.1571-.1786l-.0385-.0541c-.0138-.0204-.027-.0411-.0398-.0623l-.0177-.0297c-.0116-.0199-.0226-.0403-.0332-.061-.0142-.0273-.0277-.0549-.0403-.0834l-.0171-.0411c-.0834-.2104-.1251-.4354-.1224-.6621 0-.225.0382-.4333.119-.6306.0771-.1978.1892-.3675.3296-.5099.1403-.1457.3084-.2563.498-.343.1998-.0879.4163-.1318.6346-.1286.2486 0 .4803.0313.6907.0936.2106.0622.3892.1664.5363.3125l-.2558.4333c-.0518-.0472-.1076-.0895-.1666-.1265-.0291-.0183-.059-.0354-.0897-.0513-.024-.0122-.0484-.0236-.0735-.0346l-.0467-.0191-.0515-.0187c-.1506-.0484-.308-.0728-.4661-.0724-.0564 0-.1117.0044-.1662.013-.0808.013-.1595.0358-.2373.0667-.1275.0513-.2441.127-.3432.2222-.0325.0317-.0629.0655-.0907.1009l-.0244.0321c-.0481.0664-.0883.138-.1201.2137-.0594.1347-.0875.284-.0875.4504 0 .1697.0314.3223.091.4541.0596.1351.1404.2498.2421.3467.1015.0972.2207.1697.3575.2185.1371.0484.2807.0765.4349.0765.114 0 .2202-.0138.3196-.0411.0251-.0069.0497-.0147.0739-.0232.0395-.0134.0777-.0293.115-.0472.1456-.0704.2766-.168.3857-.2873l.2628.3947Zm.2875-2.6416h2.8402v.5481h-1.1434v2.5375h-.5538v-2.5375h-1.143v-.5481Zm3.443.0008H88.6v.3638c.105-.1253.2558-.225.4488-.3084.1929-.0834.3961-.1249.6132-.1249.0352-.0009.0702 0 .1052.002.0706.0041.1406.013.2096.0268.0974.0196.1928.0493.2848.0888.1731.0724.328.1827.4525.3226.1271.1437.2248.3109.2876.492.0324.0927.0572.19.0743.2921.0181.1083.0273.2214.0273.3394 0 .2319-.0387.4508-.1158.6547-.0771.2047-.186.378-.3296.5277-.1461.149-.3198.2678-.5117.35-.2.083-.4209.1277-.6663.1277-.165 0-.3261-.0171-.4803-.0516-.1542-.0346-.2875-.0867-.3996-.1595v1.5148h-.5542v-4.458Zm1.4555.4468c-.186 0-.3577.0419-.5155.1253-.1575.083-.2875.1836-.3854.3011v1.5292c.1255.0842.2641.1477.41.1876.1332.0345.2738.0516.4242.0516.1552.0029.3092-.0268.4524-.0866.1284-.0525.2444-.1319.34-.2324.0952-.1017.1683-.2221.2142-.3536.0489-.1387.0771-.2876.0771-.4541 0-.035-.001-.0696-.0032-.1033l-.0047-.055-.0045-.039-.0061-.0403-.0071-.0387-.0098-.0451c-.0087-.0371-.0191-.0733-.0313-.1087-.0421-.1314-.1086-.2425-.1961-.3397-.0881-.0969-.1931-.1697-.3192-.2218-.13-.0521-.2739-.0765-.435-.0765Zm5.2974-.4472h.5542v3.0856h-.5542v-3.0856Zm-2.3453 0h-.5575v3.0888h1.0061c.2455 0 .4488-.0346.6172-.0964.1683-.0627.3016-.1457.3996-.2499.0983-.1041.1719-.2185.214-.3503.0454-.1314.0664-.2637.0664-.4024 0-.1388-.021-.2702-.0596-.3988-.0383-.1278-.105-.2425-.1996-.3393-.0946-.0973-.2208-.177-.3789-.236-.1578-.0586-.354-.09-.5961-.09h-.5116v-.9257Zm.4071 2.5725h-.4035V33.2824h.4104c.2663 0 .4592.0488.5751.146.1121.0973.1715.2389.1715.4265 0 .1839-.0561.3222-.1682.4191-.1121.0976-.3086.1461-.5853.1461Zm5.1503-1.0852 1.1849 1.5983h-.6799l-.9153-1.2484-.9292 1.2484h-.6451l1.1779-1.5711-1.108-1.5149h.6806l.8449 1.165.8588-1.165h.6453l-1.1149 1.4877Zm-48.6736 5.4117h-1.7005v2.5729h-.5542v-3.0856h2.8084v3.0856h-.5537v-2.5729Zm3.6987.0346h-1.0938l-.0354.52c-.0242.2771-.0539.5196-.0909.7288-.022.1233-.0464.2352-.0737.3357-.0738.2706-.165.4785-.2699.6242-.105.1456-.2281.2461-.3685.295-.1448.0525-.298.0781-.4521.0761l-.0421-.5343c.0596.0033.1296-.0102.2067-.0448.0776-.0345.1547-.111.2279-.225.0739-.1184.1406-.2848.2-.4996.0596-.2185.0985-.5026.1192-.8602l.0564-.9603h2.1704v3.0859h-.5542v-2.5415Zm1.5706-.3361c.1367-.0867.2981-.1558.4771-.2042.1827-.0505.3713-.0761.5609-.0761.4417 0 .7538.1102.9292.3291.1786.2186.2667.5306.2667.9327v1.8929h-.5192v-.3988c-.0914.118-.2175.2222-.375.3121-.158.0903-.3645.1355-.6241.1355-.2875 0-.5193-.0834-.6942-.2498-.0963-.0908-.1658-.2027-.2094-.3349-.0358-.1095-.0537-.2324-.0537-.3687-.0002-.0219.0002-.0439.0014-.0659.0027-.0484.009-.096.019-.1428.0152-.0729.0388-.1437.0706-.2112.0577-.1196.1416-.225.2453-.308.0554-.0456.1178-.0847.187-.1176.0582-.0277.121-.0509.1884-.07.1471-.0419.3017-.0659.4663-.0659.1343.0016.2679.0154.3996.0415.0504.0089.0999.022.1479.0386.0818.0285.1595.068.2309.1172 0-.142-.0071-.2734-.0246-.3951-.0094-.0643-.0226-.1237-.0403-.1778-.0092-.0277-.0193-.0541-.0307-.0789-.0084-.0179-.0173-.0354-.0269-.0517-.0492-.0834-.1192-.1526-.2142-.1978-.0617-.0313-.1349-.0529-.2214-.0638l-.0423-.0045c-.0342-.0029-.0702-.0045-.108-.0045-.1925 0-.3542.0212-.4804.0659-.0366.013-.0732.0269-.1098.0411-.0893.035-.1789.0741-.2686.1184l-.1475-.437Zm.9121 2.4272c.1271 0 .2392-.0163.3361-.0505.0582-.0207.1109-.0476.1581-.0818.1139-.0752.2177-.1652.3088-.2669v-.3918c-.1929-.1384-.4281-.2039-.7013-.2039-.0319 0-.0639.0012-.0956.0041-.0505.0049-.1005.0138-.1498.0264-.0809.0212-.1542.0521-.2138.094-.0596.0415-.1125.0936-.1507.1595-.0389.0659-.0564.1388-.0564.2254 0 .1453.0492.2633.1475.3532.0981.0871.2346.1323.4171.1323Zm1.8685-2.6384h2.8401v.5477h-1.1434v2.5379h-.5537V38.782h-1.143v-.5481Zm5.6781 2.9517c-.0782.0407-.1614.0749-.2503.1025-.2103.0659-.4207.1009-.6278.1009-.2352.0029-.469-.0358-.6905-.1147-.2069-.0761-.3825-.1839-.5262-.3259-.1438-.142-.2592-.3121-.3367-.5095-.0771-.1981-.1192-.4195-.1192-.6624-.0018-.2153.035-.4289.1089-.6311.0315-.0883.0714-.1729.119-.2531.0545-.092.1192-.1782.193-.2563.1423-.1473.313-.2641.5018-.3435.1995-.0834.4274-.1281.687-.1281.1931-.0013.3845.0341.5646.1041.1719.0639.3292.162.4624.2877.1321.127.237.2791.3089.4472.0771.1733.1157.3642.1157.5753 0 .1425-.0108.2641-.035.3711h-2.3982c.0246.2914.1328.5205.3328.6832.2.1628.4525.2425.7575.2425.2034 0 .3892-.0309.5537-.0931.165-.0627.3018-.1388.4035-.2295l.1682.4301c-.0891.0797-.1863.1473-.2931.2026Zm-.9689-2.5081c-.2876 0-.5155.0765-.6872.2323-.1697.153-.2781.3625-.305.5896h1.8933c-.014-.2568-.0982-.4578-.2557-.6034-.1579-.142-.3717-.2185-.6454-.2185Zm2.4508-.4436h-.7013l1.1462 1.4873-1.1987 1.5983h.6799l1.143-1.5979-1.0691-1.4877Zm1.76 0h-.5541v3.0856h.5541v-3.0856Zm.7608 1.4873 1.22 1.5983h-.687l-1.1572-1.5983 1.0762-1.4877h.6877l-1.1397 1.4877Zm4.295 1.2618c-.1542.1383-.3329.2392-.5434.3051-.2029.0651-.4145.0993-.6275.1009-.2352.0029-.4691-.0358-.6907-.1147-.2071-.0761-.3821-.1839-.5259-.3259-.1438-.142-.2596-.3121-.3367-.5095-.0771-.1981-.119-.4195-.119-.6624-.0023-.2153.0346-.4289.1086-.6311.0674-.1896.1738-.3634.3121-.5094.142-.1473.3127-.2641.5013-.3435.2-.0834.4279-.1281.6871-.1281.193-.0013.3845.0341.5645.1041.1722.0639.3294.162.4629.2877.1318.127.2366.2791.3084.4472.0775.1733.1158.3642.1158.5753 0 .1425-.0104.2641-.035.3711h-2.3983c.0246.2914.1333.5205.3329.6832.1999.1628.4524.2425.7574.2425.2035 0 .3892-.0309.5542-.0931.1646-.0627.3013-.1388.403-.2295l.1683.4301Zm-1.2616-2.3055c-.2875 0-.5155.0765-.6875.2323-.1698.153-.2783.3625-.3051.5896h1.8935c-.0139-.2568-.0981-.4578-.256-.6034-.1578-.142-.3749-.2185-.6449-.2185Zm3.3427-1.6219c.0891.0944.2175.1416.3843.1416.3084 0 .4803-.1803.505-.5408h.5188c0 .1383-.0247.2632-.0737.3812-.0488.118-.1192.2186-.2067.3016-.0393.0358-.0812.0691-.1261.0992-.0594.0399-.1245.0741-.1964.1018-.0714.0293-.1473.0496-.2284.0622-.0623.0094-.1276.0139-.1962.0139-.0661 0-.1292-.0037-.189-.011-.0956-.0118-.1833-.033-.263-.0651-.1296-.0517-.2421-.1176-.3296-.201-.0529-.0501-.0983-.1071-.1359-.1701-.0246-.0411-.046-.0851-.0641-.1315-.0254-.0655-.0442-.1334-.0558-.2046-.0093-.0566-.0142-.1152-.0142-.1766h.5225c.0136.1762.0632.3092.1485.3992Zm-.5591 4.2639h-.554v-3.086h.554v2.2986l1.8022-2.2986h.5542v3.086h-.5542v-2.299l-1.8022 2.299Z"/>
</svg>