<svg xmlns="http://www.w3.org/2000/svg" viewBox="0 0 154.2 30">
	<g fill="#164883">
		<path d="M50 26.6c-1.2 0-2.4-.2-3.5-.7-1-.3-1.9-1-2.5-1.8-.8-.8-1.4-1.7-1.7-2.8-.4-1.1-.5-2.2-.5-3.4 0-1.2.1-2.4.5-3.5.4-1 .9-2 1.7-2.8.7-.8 1.6-1.4 2.5-1.8 1.1-.5 2.3-.8 3.5-.7.9 0 1.7.1 2.5.4.8.3 1.6.7 2.3 1.2.6.5 1.1 1.1 1.6 1.8.4.8.7 1.7.8 2.7h-3.6c0-.4-.2-.8-.4-1.2-.3-.3-.5-.6-.8-.8-.3-.3-.7-.5-1.1-.7H50c-.8 0-1.5.1-2.2.5-.5.3-1 .7-1.3 1.2-.4.6-.7 1.2-.8 1.8-.1.7-.2 1.5-.2 2.2 0 .7.1 1.4.2 2.1.1.7.4 1.3.8 1.8s.8 1 1.3 1.3c.7.3 1.4.5 2.2.5 1 0 2-.4 2.7-1.1.7-.8 1-1.8 1.1-2.8h3.6c-.1 1-.3 2-.7 2.9-.4.8-1 1.5-1.6 2.2-.7.6-1.5 1-2.3 1.3-1 .2-1.9.3-2.8.2zm7.5-3.5H59c.5-.6.9-1.3 1.2-2.1l.7-2.5c.1-1 .2-2 .2-3 .1-1.1.1-2.3.1-3.4V9.4h12.2v13.7h1.8V30h-3.4v-3.8h-11V30h-3.4c.1 0 .1-6.9.1-6.9zm12.2 0V12.5h-5v.4c0 1.1 0 2.1-.1 3.1 0 .9-.1 1.8-.2 2.7-.1.8-.3 1.6-.6 2.4-.2.7-.5 1.4-.8 2.1h6.7zm7-13.7h5.2L85.8 21h.1l3.8-11.6h5.1v16.8h-3.4V14.4l-4.1 11.9h-2.9l-4.1-11.7v11.7h-3.5V9.4zm19.8 0h11.6v1.5h-9.9v5.7h6.3c1.3-.1 2.7.4 3.6 1.3.9.9 1.4 2.2 1.3 3.5 0 1.3-.4 2.6-1.3 3.5-1 .9-2.3 1.4-3.6 1.3h-8V9.4zm7.7 15.5c1 0 2-.3 2.8-1 1.3-1.5 1.3-3.6 0-5.1-.8-.7-1.8-1-2.8-1h-5.9v7c-.1.1 5.9.1 5.9.1zM116 9.4h1.8l6.5 16.8h-1.7l-2.1-5.2H113l-2.1 5.2h-1.7L116 9.4zm4 10.2l-3.1-8.6-3.4 8.6h6.5zm5.6-10.2h1.6v7.3h9.9V9.4h1.6v16.8h-1.6v-8.1h-9.9v8.1h-1.6V9.4zm14.8 0h1.6v9.1l9.7-9.1h2.2l-7.5 7 7.9 9.8h-2.1l-7-8.7-3.1 2.9v5.8h-1.6l-.1-16.8zM0 23.7l5 3.4c3-.6 15.6-3.1 15.6-7.6s-3.8-5.6-7-7.5-4.9-2.9-4.9-4.6c0-1.7 1.6-3.3 4.6-4.2l1.9-.5c-2.6.3-7.7 1.4-7.7 4.8S17.9 14 17.9 19 0 23.7 0 23.7z"/>
		<path d="M10.4 7.3c0-2.3 2.4-3.6 4.4-4.4-2.5.6-5.7 1.9-5.7 4.5 0 2.5 2.2 2.9 4.7 4.4 2.5 1.5 7 4.2 7 7.7s-2.8 4.2-8.2 6l-7.3 1.8L9.4 30s13.8-4 13.8-9.6c0-9.3-12.8-10-12.8-13.1z"/>
		<path d="M23.1 5c0 1.3-1.1 2.4-2.4 2.4h-.6v1.2h.6c1.9.1 3.6-1.5 3.6-3.4V5c0-1.9-1.6-3.5-3.5-3.5h-3.6V10h1.2V2.7h2.4c1.3 0 2.3 1 2.3 2.3z"/>
		<path d="M20.8 0h-5.1v10h1.2V1.2h3.9c2.1 0 3.8 1.7 3.8 3.8 0 2.1-1.7 3.9-3.9 3.9h-.6V10h.6c2.8-.4 4.7-3 4.3-5.7-.3-2.2-2-3.9-4.2-4.3zm8.8 17.8v-6.3c0-1.2-.9-2.3-2.2-2.4-1.3.1-2.4 1.1-2.4 2.4v6.3h1.1v-6.4c.1-.7.7-1.1 1.3-1.1.6.1 1 .6 1 1.2v6.3h1.2zm5 0v-6.3c-.1-1.3-1-2.3-2.3-2.4-.6 0-1.2.3-1.7.7-.4.5-.7 1.1-.7 1.7v6.3h1.2v-6.4c.1-.7.7-1.1 1.3-1.1.6.1 1 .6 1 1.2v6.3h1.2z"/>
		<path d="M32.3 7.7c-.9 0-1.8.3-2.5.8-1.7-1.3-4.1-1.1-5.4.6-.5.7-.8 1.5-.8 2.4v6.2h1.2v-6.3c0-1.4 1.1-2.6 2.5-2.7 1 0 1.9.6 2.4 1.5.4-.9 1.3-1.4 2.3-1.5 1.4-.1 2.6 1 2.7 2.4v6.5h1.2v-6.2c0-1.8-1.6-3.5-3.6-3.7z"/>
	</g>
</svg>