<svg xmlns="http://www.w3.org/2000/svg" viewBox="0 0 109.8 50">
	<path fill="#60cd18" d="M0 0h109.8v50H0V0z"/>
	<path fill="#fff" d="M34.8 15.6L30 19.1c-2.2-1.9-5.1-2.3-6.7-2.3s-3.3.5-3.6 1.6c-.3 1.1.8 2 2.6 2.5 2 .5 3.9 1 6.8 1.8 4.3 1.2 7.2 3 7.2 7.3 0 5.8-5.2 8.9-12.3 8.9s-11.8-3.6-13.2-5.3l5-3.7c3.5 3 6 3.5 8 3.5 2.4 0 4.6-.5 4.8-1.8.2-1.1-.7-1.9-2.7-2.4-2.3-.5-4.2-.9-6.3-1.5-5.8-1.5-7.4-4.8-7.4-7.8 0-4.1 3.9-8.3 11-8.3 7.3-.1 11.6 4 11.6 4zm30.3-3.7H43.9v26.2h21.6v-6H51.3v-4.2H61v-5.8h-9.7v-4.2h13.8v-6zM38.4 44.1h1.7V5.9h-1.7v38.2zm29.9 0H70V5.9h-1.7v38.2zm5.4-6h17c4.6 0 8.2-2.7 8.2-7 0-3.4-2.2-5.6-5.4-6.6h-.3c.1 0 .2 0 .3-.1 1.8-.7 3.8-2.6 3.8-5.8 0-4-3.6-6.6-8.1-6.6H73.7v26.1zm7.5-20.7h5.9c1.4 0 2.5 1.1 2.5 2.3s-1 2.3-2.4 2.3h-5.9c-.1 0-.1-4.6-.1-4.6zm7.3 14.9h-7.3v-4.8h7.3c.6 0 1.2.3 1.6.7.4.4.7 1 .7 1.7 0 .6-.2 1.2-.7 1.7s-1 .6-1.6.7z"/>
</svg>