<svg xmlns="http://www.w3.org/2000/svg" viewBox="0 0 101.1 44">
	<path fill="#0f1735" d="M22.7 27.8c-1 0-2.1-.2-3-.7-.9-.5-1.6-1.2-2-2-1-1.9-1-4.1 0-6 .5-.9 1.2-1.6 2-2 .9-.5 1.9-.8 3-.7 1.7 0 3.3.7 4.3 2 0 0 .1.1.2.1s.1 0 .2-.1l2.3-2.2c.1-.1.1-.2 0-.3-.8-.9-1.8-1.6-2.9-2.1-1.3-.6-2.8-.9-4.2-.9-1.7 0-3.5.4-5 1.2-1.4.8-2.7 1.9-3.5 3.3-.9 1.5-1.3 3.1-1.3 4.8 0 1.7.4 3.3 1.3 4.8.8 1.4 2 2.5 3.5 3.3 1.5.8 3.3 1.2 5 1.2 1.5 0 2.9-.3 4.2-.8 1-.4 2-1.1 2.7-1.9.1-.1.1-.2 0-.3l-2.1-2.4c0-.1-.1-.1-.2-.1s-.1 0-.2.1c-1.1 1-2.7 1.7-4.3 1.7zm26.1.8c-1.8 1.4-4 2.1-6.2 2.1v3.5c0 .1-.1.2-.2.2h-2.9c-.1 0-.2-.1-.2-.2v-3.5c-2.3 0-4.4-.8-6.2-2.1-1.5-1.3-2.3-3.2-2.2-5.1-.1-1.9.7-3.8 2.2-5 1.8-1.3 4-2 6.3-2.1v-3.8c0-.1.1-.2.2-.2h2.9c.1 0 .2.1.2.2v3.8c2.2 0 4.4.8 6.2 2.1 1.4 1.2 2.2 3.1 2.1 4.9.1 2.1-.7 3.9-2.2 5.2zm-13.1-2.2c1 .8 2.2 1.2 3.5 1.2v-8c-1.2 0-2.4.5-3.5 1.2-.7.7-1.1 1.7-1.1 2.7 0 1.1.4 2.1 1.1 2.9zm10.4 0c.7-.8 1.1-1.8 1.1-2.9.1-1-.3-2-1.1-2.7-1-.7-2.2-1.1-3.5-1.2v8c1.3 0 2.5-.5 3.5-1.2zm21.1-1.7H56.8c.2.8.6 1.6 1.3 2.1.8.5 1.7.8 2.6.8.7 0 1.3-.1 2-.3.5-.2.9-.5 1.3-.9 0 0 .1-.1.2-.1s.1 0 .2.1l1.8 2c.1.1.1.2 0 .3-1.5 1.5-3.5 2.2-5.5 2.1-1.4 0-2.9-.3-4.1-.9-1.2-.6-2.1-1.5-2.8-2.6-.7-1.1-1-2.4-1-3.7 0-1.3.3-2.6 1-3.7.6-1.1 1.5-2 2.6-2.6 2.3-1.2 5.1-1.2 7.4 0 1.1.6 2 1.4 2.6 2.5.7 1.2 1 2.5 1 3.9 0 0-.1.3-.2 1zm-9.3-4.5c-.6.5-1 1.3-1.1 2.2h6.8c-.1-.8-.5-1.6-1.1-2.1-.6-.5-1.4-.8-2.3-.8-.9-.1-1.7.1-2.3.7zm23.2-2.8c1 .6 1.9 1.4 2.5 2.5.6 1.1.9 2.4.9 3.7 0 1.3-.3 2.6-.9 3.8-.6 1-1.5 1.9-2.5 2.4-1.1.6-2.3.9-3.5.9-1.6.1-3.1-.5-4.2-1.7v5.2c0 .1-.1.2-.2.2h-3.4c-.1 0-.2-.1-.2-.2V16.9c0-.1.1-.2.2-.2H73c.1 0 .2.1.2.2v1.3c1.1-1.2 2.7-1.9 4.3-1.8 1.3.1 2.5.4 3.6 1zm-1.7 9c.7-.8 1-1.8 1-2.8.1-1-.3-2-1-2.8-1.4-1.4-3.7-1.4-5.1 0-.7.8-1 1.8-1 2.8-.1 1 .3 2 1 2.8 1.5 1.3 3.7 1.3 5.1 0zm21.7-9.5v13.3c0 .1-.1.2-.2.2h-3.1c-.1 0-.2-.1-.2-.2v-1.3c-1.1 1.2-2.7 1.9-4.3 1.8-1.2 0-2.4-.3-3.5-.9-1-.6-1.9-1.4-2.5-2.4-.6-1.1-.9-2.4-.9-3.7 0-1.3.3-2.6.9-3.7.6-1 1.4-1.9 2.5-2.5 1.1-.6 2.3-.9 3.5-.9 1.6-.1 3.1.5 4.1 1.7v-1.2c0-.1.1-.2.2-.2h3.3c.1-.2.2-.1.2 0zm-4.7 9.5c.7-.8 1-1.8 1-2.8.1-1-.3-2-1-2.8-.7-.7-1.6-1.1-2.5-1-1 0-1.9.3-2.5 1-.7.8-1 1.8-1 2.8-.1 1 .3 2 1 2.8.7.7 1.6 1 2.5 1 .9 0 1.8-.4 2.5-1z"/>
	<path fill="url(#gr1)" d="M33.8 11.9l-2 1.9s-.1.1-.2.1-.1 0-.2-.1c-3.8-4.4-10.2-5.6-15.3-2.9-5.2 2.7-7.8 8.6-6.4 14.2 1.5 5.6 6.5 9.5 12.3 9.5.1 0 .2 0 .2.1 0 .7-.1 2.8-.1 2.8 0 .1-.1.2-.2.2C15.2 37.8 9.2 33.5 7 27c-1.6-4.8-.8-10.1 2.2-14.2S16.9 6.3 22 6.3c4.5 0 8.8 1.9 11.8 5.3.1.1.1.2 0 .3z"/>
	<linearGradient id="gr1" gradientUnits="userSpaceOnUse" x1="7.793" y1="15.0993" x2="33.3664" y2="34.6899" gradientTransform="matrix(1 0 0 -1 0 46)">
		<stop offset="0" stop-color="#f7ac1e"/>
		<stop offset="1" stop-color="#dc3b55"/>
	</linearGradient>
	<path fill="url(#gr2)" d="M21.5 44C11.9 43.8 3.6 37.4.9 28.2-1.8 19 1.8 9.1 9.7 3.7c3.6-2.5 8-3.8 12.4-3.7.1 0 .2.1.2.2v2.9c0 .1-.1.1-.1.1-3.8-.1-7.4 1-10.6 3.1-6.9 4.6-10 13.1-7.6 21 2.3 7.9 9.6 13.4 17.8 13.5h.2c3.2 0 6.4-.8 9.2-2.4.1-.1.3 0 .3.1l1.3 2.3v.2c0 .1-.1.1-.1.2-3.3 1.9-7 2.8-10.7 2.8h-.5z"/>
	<linearGradient id="gr2" gradientUnits="userSpaceOnUse" x1="16.4794" y1="46.387" x2="16.4794" y2="1.3969" gradientTransform="matrix(1 0 0 -1 0 46)">
		<stop offset="0" stop-color="#385cfa"/>
		<stop offset="1" stop-color="#94c2fc"/>
	</linearGradient>
</svg>