<svg xmlns="http://www.w3.org/2000/svg" viewBox="0 0 120 36.3">
	<path fill="#d71920" d="M61.3 10L61.2.5h-3.3v14.8h3.7l6-9.4h.1v9.4H71V.5h-3.8L61.3 10zm22.4-3.6h-6.2V.5h-3.4v14.8h3.4V9.4h6.2v5.9h3.4V.5h-3.4v5.9zM103.1.5H99l-5.4 6.4V.5h-3.4v14.8h3.4V7.8l5.7 7.5h4.3l-6.4-8.2 5.9-6.6zM28.3 5.8C27.5 2.2 24 0 19.8 0H8.7C3.9 0 0 3.6 0 8v10.1c0 4.4 3.9 8 8.7 8h11c4 0 7.5-2 8.5-5.5H6.3V5.8h22zm27.5-2.3C55.3 1.3 53.2 0 50.7 0h-3.2c-1.3-.1-2.6.4-3.6 1.3s-1.6 2.2-1.7 3.5v6.1c.1 1.3.7 2.6 1.7 3.5s2.3 1.4 3.6 1.3h3.2c2.4 0 4.5-1.2 5.1-3.3H46V3.5h9.8zM117 1.3c-1-.9-2.3-1.4-3.6-1.3h-4.1c-1.3-.1-2.6.4-3.6 1.3s-1.6 2.2-1.7 3.5v6.1c.1 1.3.7 2.6 1.7 3.5s2.3 1.4 3.6 1.3h4.1c1.3.1 2.6-.4 3.6-1.3s1.6-2.2 1.7-3.5V4.8c-.1-1.3-.7-2.6-1.7-3.5zm-9.3 10.9V3.3h7.1v8.9h-7.1z"/>
	<path fill="#007a5f" d="M94.8 25.3h-7.7v-7.4h-4.3v18.4h4.3V29h7.7v7.3h4.3V17.9h-4.3v7.4zm17.2.9l7.4-8.3h-5.1l-6.7 8v-8h-4.3v18.4h4.3v-9.4l7 9.4h5.4l-8-10.1zM29.6 10.3H18.5c-4 0-7.5 2-8.5 5.5h22v14.7H10c.9 3.6 4.4 5.8 8.6 5.8h11c4.8 0 8.7-3.6 8.7-8V18.2c.1-4.3-3.9-7.9-8.7-7.9zm28 16.3c-.5-.5-1.1-.8-1.7-1s-1.3-.3-2-.3h-5.4v-3.7H58v-3.7H44.2v18.4h9.6c1.4.1 2.7-.4 3.7-1.3s1.6-2.2 1.7-3.6v-1.2c0-.7-.2-1.3-.5-1.9-.2-.7-.6-1.2-1.1-1.7zm-2.2 4.5v1.7h-6.8V29h6.8v2.1zm9.5-11.8c-1 .9-1.6 2.2-1.7 3.5v13.5H67V29h6.9v7.3h4.3V17.9h-9.8c-1.2 0-2.5.4-3.5 1.4zm9.1 5.2v.8h-6.9v-3.7H74v2.9z"/>
</svg>