<svg viewBox="0 0 190 28" xmlns="http://www.w3.org/2000/svg">
	<path fill="#1D1D1B" d="M137.893 19.833c3.075 0 5.508-2.3783 5.508-5.5225 0-3.1286-2.433-5.53399-5.508-5.53399-3.087 0-5.534 2.40539-5.534 5.53399 0 3.1442 2.447 5.5225 5.534 5.5225Zm-1.14-18.5117C139.59.974097 140.675.723339 142.108 0l.583 1.73987c-1.696.87572-3.253 1.13998-5.604 1.44475-2.67.3472-4.797 2.10058-4.797 6.56599v.23533c1.152-2.07165 3.253-3.22513 5.63-3.22513 4.313 0 7.636 3.35049 7.636 7.56519 0 4.2011-3.323 7.5227-7.69 7.5227-4.34 0-7.65-3.337-7.65-7.5227V9.72168c0-5.45109 2.88-7.9548 6.537-8.40038ZM39.7686 6.78589c-4.2655 0-7.479 3.37561-7.479 7.53241 0 4.1162 3.1742 7.5073 7.4928 7.5073 2.1066 0 3.9248-.7928 5.2107-1.983l-1.7382-2.4882c-.9146.7657-1.9407 1.2711-3.3086 1.2711-2.2693 0-4.1963-1.844-4.1963-4.3072 0-2.4999 1.913-4.34779 4.1963-4.34779 1.3404 0 2.3654.49379 3.2958 1.29819l1.751-2.50183c-1.2996-1.18821-3.0783-1.98098-5.2245-1.98098Zm16.423 5.49541v9.1488h3.4732V7.08679h-3.4732L49.547 15.7283V7.08679h-3.4735V21.4301h3.2403l6.8778-9.1488Zm5.2866-5.19451h3.4725v5.38551h6.6456V7.08679h3.485V21.4282h-3.485v-5.8099h-6.6456v5.8099h-3.4725V7.08679Zm26.5437 7.20451c0 2.4342-1.831 4.1722-4.1154 4.1722-2.2833 0-4.0473-1.738-4.0473-4.1722 0-2.4189 1.7768-4.2108 4.0473-4.2108 2.2962 0 4.1154 1.7919 4.1154 4.2108Zm-4.4167-7.50541c-3.9374 0-7.2055 3.32161-7.2055 7.49381 0 4.1683 3.2541 7.4918 7.2055 7.4918 1.9011 0 3.3649-.8217 4.4036-2.0234l.246 1.682h3.0498V7.1003h-3.0378l-.2184 1.73794c-1.038-1.21907-2.5016-2.05235-4.4432-2.05235ZM100.502 18.4635c2.284 0 4.048-1.738 4.048-4.1722 0-2.4189-1.777-4.2108-4.048-4.2108-2.296 0-4.1152 1.7919-4.1152 4.2108 0 2.4342 1.832 4.1722 4.1152 4.1722Zm-3.897 1.5161v6.3036h-3.4872v-4.8531l-.0138-8.3406.0138-.0135V7.1003h2.9944l.2469 1.73794c1.0252-1.21907 2.5027-2.05235 4.4439-2.05235 3.939 0 7.206 3.32161 7.206 7.49381 0 4.1703-3.254 7.4918-7.206 7.4918-1.7772 0-3.1728-.7117-4.198-1.7919Zm24.084-5.6883c0 2.4342-1.831 4.1722-4.115 4.1722-2.285 0-4.048-1.738-4.048-4.1722 0-2.4189 1.778-4.2108 4.048-4.2108 2.297 0 4.115 1.7919 4.115 4.2108Zm-4.416-7.50541c-3.938 0-7.205 3.32161-7.205 7.49381 0 4.1683 3.253 7.4918 7.205 7.4918 1.899 0 3.364-.8217 4.403-2.0234l.247 1.682h3.048V7.1003h-3.035l-.22 1.73794c-1.038-1.21907-2.501-2.05235-4.443-2.05235Zm42.151 7.51111c0 3.1152-1.975 5.4241-4.882 5.4241-2.878 0-4.755-2.3089-4.755-5.4241 0-3.1016 1.89-5.45297 4.77-5.45297 2.892 0 4.867 2.35137 4.867 5.45297Zm-5.021-7.53812c-3.921 0-6.772 3.32542-6.772 7.52462 0 4.2147 2.837 7.5228 6.772 7.5228 2.197 0 3.854-1.0706 4.923-2.6542v2.3205h2.114l.013-6.7994V7.06558h-2.167v2.27996c-1.059-1.54312-2.699-2.58666-4.883-2.58666Zm9.177.3067h2.156v6.07802h8.594V7.06558h2.168V21.4745h-2.168v-6.3693h-8.594v6.3693h-2.156V7.06558Zm17.073 0h-2.156V21.4745h2.156v-6.3152h3.033l4.797 6.3152H190l-5.646-7.4533 4.923-6.95562h-2.545l-4.089 6.03552h-2.99V7.06558Z"/>
	<path fill="#E40134" d="M23.2728 1.48869C14.6125 3.32816 8.15262 7.94902 8.84394 11.8083c.21628 1.2047 1.10513 2.1924 2.48576 2.9258l-.0049.0211-.0217-.0232-.005.0232c-3.7173-.6277-6.48455-2.3516-7.33389-4.98925-.92735-2.88426-.17183-6.08624 2.32087-8.827473H0V27.6385c1.12092-.1232 2.26554-.288 3.44276-.5389C12.102 25.2594 18.5629 20.6393 17.8706 16.78c-.2163-1.204-1.1041-2.1924-2.4878-2.9266l.0069-.0211.0218.0247.0049-.0239c3.7173.6284 6.4846 2.3523 7.3339 4.9892.9294 2.8857.1709 6.0877-2.3238 8.8311h6.289V.949044c-1.1209.123996-2.2655.289546-3.4427.539646Z"/>
</svg>