<svg xmlns="http://www.w3.org/2000/svg" viewBox="0 0 162.8 26">
	<path fill="#038c73" d="M14.7 20.3c-1.1 1.7-3.1 2.8-5.5 2.8-3.8 0-6.3-2.7-6.3-6.5 0-3.9 2.5-6.5 6.3-6.5 2 0 3.8.8 4.9 2.2l1.9-1.9c-1.6-1.8-4-2.9-6.8-2.9-5.4 0-9.2 3.7-9.2 9.1 0 5.3 3.8 9.1 9.2 9.1 3.2 0 5.8-1.3 7.4-3.5l-1.9-1.9zM32.4 25.4L25.6 18h-3.2v7.5h-2.9v-8.8-8.8h2.9v7.4h3.3l6.6-7.4H36l-7.7 8.5 8.2 9h-4.1zM46.8 8.2c-2.4-.1-4.6.8-6.2 2.3.3-2.5 2-4.6 4.4-5.4 2.9-.9 6.6.4 10.3-3L53.1 0c-2.7 2.6-6 1.5-8.6 2.2-3.9 1.1-6.9 4.7-6.9 9V17c0 4.9 3.9 8.8 8.8 8.8 5 0 9-4.1 8.8-9.2-.1-4.5-3.8-8.3-8.4-8.4zm.1 14.7c-3.7.3-6.7-2.7-6.4-6.4.2-2.9 2.6-5.2 5.4-5.4 3.7-.3 6.7 2.7 6.4 6.4-.2 2.8-2.5 5.2-5.4 5.4zM74.5 14.3L68 7.1l-2.2 2 6.7 7.5 2-2.3z"/>
  	<path fill="#f65e64" d="M158.7 25.4l-6.9-7.5h-3.2v7.5h-2.9v-8.8-8.8h2.9v7.4h3.3l6.6-7.4h3.7l-7.6 8.5 8.2 9h-4.1v.1zM95.4 8.2c-2.4-.1-4.6.8-6.2 2.3.3-2.5 2-4.6 4.4-5.4 2.9-.9 6.6.4 10.3-3L101.8 0c-2.7 2.6-6 1.5-8.6 2.2-3.9 1.1-6.9 4.7-6.9 9V17c0 4.9 3.9 8.8 8.8 8.8 5 0 9-4.1 8.8-9.2-.2-4.5-3.9-8.3-8.5-8.4zm.2 14.7c-3.7.3-6.7-2.7-6.4-6.4.2-2.9 2.6-5.2 5.4-5.4 3.7-.3 6.7 2.7 6.4 6.4-.2 2.8-2.6 5.2-5.4 5.4zm43.1 2.5v-7.6h-9.2v7.6h-2.9V7.9h2.9v7.3h9.2V7.9h2.9v17.6h-2.9zm-16-2.9c-.4.6-.9.9-1.5.7-.6-.1-.9-.7-.9-1.3v-8.6c0-3.4-2.9-5.8-6.8-5.8-2.4 0-4.4.8-5.7 2.1l2 2c.6-.8 1.9-1.4 3.5-1.4 2.4 0 4.1 1.5 4.1 3.5V15c-2.7.3-4.6.5-5.8.8-3.5.7-5.6 2.6-5.6 5.4 0 2.7 2.2 4.6 5.6 4.6 2.4 0 4.3-.5 5.9-2.3.3 1.6 1.9 2.3 3.8 2.3 1.3 0 2.5-.6 3.3-1.5-.1 0-1.9-1.8-1.9-1.8zm-5.3-2.2c-1.3 1.8-3.3 2.8-5.5 2.8-1.7 0-2.9-.8-2.9-2.2 0-1.2.9-2 2.5-2.5 1.2-.3 3.1-.5 5.8-.8.1 0 .1 2.7.1 2.7zM74.5 14.3L65.7 24l2.2 2 8.5-9.5-1.9-2.2z"/>
</svg>