<svg xmlns="http://www.w3.org/2000/svg" viewBox="0 0 165 40">
  <g fill="#00528E">
	<path d="M47.9998 15.341c1.3 0 2.4.3 3.4.6l.2-2.8c-1.3-.4-2.4-.6-3.8-.6-5.4 0-9.5 2.9-9.5 8.6 0 6.1 4.6 8.5 8.8 8.5 1.3 0 2.9-.2 4.4-.7l-.1-2.9c-.9.4-2 .7-3.5.7-3.1 0-5.8-1.6-5.8-5.7-.1-3.4 2.1-5.7 5.9-5.7zm29.6999 14.1002h3.5v-14h6.7v14h3.5v-16.7h-13.7v16.7zm-18.0999-16.7l4.2 12 4.2-12h5.8v16.7h-3.4v-14.3h-.1l-4.9 14.3h-3.3l-4.8-14.3h-.1v14.3h-3.4v-16.7h5.8zm47.7002 6.4h-2.8v-3.5h7.5v-2.9h-10.9v16.6h6.2c4.9 0 6.1-3.1 6.1-4.8 0-2.1-1.1-5.4-6.1-5.4zm-.7 7.6h-2.1v-5.1h2.1c1.9 0 3.1.8 3.1 2.5 0 1.9-1.1 2.6-3.1 2.6zm7 2.7l6.8-16.7h3.8l6.8 16.7h-3.9l-1.4-3.8h-7l-1.4 3.8h-3.7zm8.7-13.4l-2.4 6.8h5l-2.5-6.8h-.1zm20.9 3.4h-7v-6.7h-3.4v16.7h3.4v-7.2h7v7.2h3.4v-16.7h-3.4v6.7zm21.4-6.7l-7.1 7.6 7.5 9.1h-4.4l-6.3-8.3h-.1v8.3h-3.4v-16.7h3.4v7.1h.1l6.1-7.1h4.2z"/>
	<path d="M36.8999.941069c-.2-.3-3 1.100001-3 1.100001l.1-.1c.5-.4 1.4-.8 1.1-1.200001-.2-.2-.5-.1-1.6.500001-.5.3-3.1 1.4-5.8 2.6-2.3 1-6.3 2.7-6.6 3.2l-.1.1c-.1.1-.1.2-.1.2-.2.3-.3.8-.4 1.4v.2c-.2.8-.3 1.80003-.5 2.90003-.5 3.2-1 8.2-1 8.2s-.1 3.4-.4 5c-.1.3-.1.5-.2.7 0 .1-.1.2-.1.3-.1.3-.3.6-.5.8-.6.7-2.1.5-2.6.4-1-.1-2-.8-2.1-1-.1-.2-.8-1.1-1.7-1.2-.3 0-1.3.2-1.70003.2-.4 0-.9-.5-1.4-.6-.5-.2-1.3.3-1.3.3s2.2.8 2.5 1.2c.3.4.90003 1.3 1.70003 1.7.8.4 3.6 3.5 3.6 3.5s.6.6 1.5 1.4c-.8.3-1.7.5-2.6.6-6.40003.7-11.70003-3.4-12.40003-9.6-.2-1.4-.1-2.7.3-3.9.4-1.5.99999-3 1.99999-4.3 1.9-2.4 4.50001-3.9 7.60004-4.2 1.9-.2 3.8.1 5.5.7 0-.2 0-.4-.1-.6-1.7-.7-3.6-.9-5.5-.7-3.10003.4-5.90003 1.8-7.90003 4.3-1.4 1.7-2.300005 3.7-2.500005 5.8-.1.3-.1.5-.1.9-.1.7-.1 2.1.1 2.8.700005 6.2 6.400005 10.7 12.800035 10 1.3-.2 2.6-.5 3.8-1.1.9.7 2 1.4 3.2 1.9 3 1.3 6.6 1.4 7.5 1.5 1.7.2 3.2 2.4 3.7 2.8.5.4 3.7-.3 3.7-.3s-.3-.5-.4-1.3c-.1-.8-1.1-1.2-1.2-1.4-.2-.2-4.3-2.1-5-2.5-.6-.4-1.5-1.3-2.4-2.7-.9-1.4-.5-2.5-.4-2.8.2-.3.5-.3.7-.7.2-.4.1-.4 0-.6 0-.2.1-.3.2-.6.2-.3.1-.3.1-.3l.1-.4c.1-.4 0 0 .1-.2l.1-.2s0-.2.1-.3c.1-.1-.1-.3-.1-.4.1-.2.1-.2.1-.5.1-.3 0-.2.1-.5 0-.3.1-.2.3-.4.2-.2-.2-.4-.2-.4s0-.2.3-.7c.3-.6 0 0 .1-.3s-.1-.5-.2-.7c-.1-.3.1-.2.1-.5l.1-.3c.1-.3.1-.4.1-.4l-.2-.6.1-.2c.1-.2 0-.5 0-.5l-.3-.7s0-.3.1-.5-.2-.9-.2-.9l.2-.7-.2-1.1-.2-.9s-.1-1.4-.1-1.9 0-1.2.1-1.8c.1-.70003 2.1-1.60003 2.4-2.00003.2-.4-1.2.1-1.2.1s2.6-.7 2.8-1.1c.1-.3-1.7.1-1.7.1-.2.1 0 0 0 0 .7-.2 2.6-.6 3.2-1.2.7-.6-1.3-.2-1.6-.1.3-.1 2.5-.7 2.8-1.3.2-.4-1.6-.1-1.6-.1.9-.2 2-.5 2.6-.9 1.3-.6 1.4-1.1 1.1-1.3-.3-.2-2.4.6-2.4.6-.1 0-.1 0-.1.1.1 0 .1-.1.1-.1.6-.2 1.3-.5 1.7-.8.7-.4 1.7-1.1 1.4-1.500001zm-3.4 1.300001c.1-.1.2-.1.3-.2-.1.1-.2.1-.3.2z"/>
  </g>
  <path fill="#00A1E9" d="M31.3.0408163c-.2-.2000003-1.6.3999997-1.6.3999997s-8 3.800004-11.6 5.700004c-.8.4-1.7 1.1-1.7 2.3 0 3.89998.8 9.79998 1.2 12.89998.4 3.1.7 4.3.6 4.4 0-.1.2-.4.3-.9.3-1.6.4-5 .4-5s.5-5 1-8.3c.3-2.19998.6-3.99998 1.1-4.69998.3-.5 6.8-3.2 8-3.7 1.4-.6 1.6-.8 1.6-1.3 0-.3-1.5.2-1.5.2s1.3-.7 1.8-1c.4-.300004.6-.700004.4-1.0000037zM4.3 14.5408l2.1-2.9-2.6 2.5-1.1-4.29998.2 4.29998-2.1-1.4 1.9 2-2.7.7 2.8-.2-2.3 3.2 2.7-2.6 1.1 3.9-.2-3.9 2 1.3-2-2 2.7-.8-2.5.2z"/>
</svg>
