<svg xmlns="http://www.w3.org/2000/svg" viewBox="0 0 165 40.3">
	<path fill="#005288" d="M37 .5c-.8.3-1.5.5-2.1.7.1-.2.1-.5.2-.7h-.8c-.7.3-1.3.7-2 1C29 3 25.7 4.6 22.3 6c-.5.2-1 .5-1.3 1-.3.4-.5 1-.6 1.5v.1l-.6 4.7c-2.1-1.9-4.8-2.9-7.6-2.9-1.6 0-3.1.4-4.6 1S4.8 13 3.7 14.1s-2 2.5-2.5 4c-.6 1.5-.8 3.1-.8 4.6-.1 3.2 1.1 6.3 3.3 8.6 2.2 2.3 5.2 3.6 8.4 3.7 1.7 0 3.4-.4 5-1.2.1.1.2.2.3.2 2.8 1.9 6 3 9.4 3.1.7 0 1.4.2 2 .5s1.2.7 1.6 1.3c.4.5.8.9 1.2 1.3h1.8c.6-.1 1.2-.3 1.7-.4 0-1.9-1.1-2.9-2.7-3.6-1.1-.5-2.3-1-3.3-1.7-.8-.4-1.5-1-2-1.7-.6-.7-1-1.5-1.2-2.4-.2-.4-.2-.8-.1-1.1.1-.4.3-.7.6-1 .2-.1.2-.5.3-.7s.1-.5.2-.7c.1-.6.3-1.1.4-1.7.1-.7.3-1.5.4-2.3.2-.9.3-1.7.3-2.6 0-1-.3-2-.3-3 0-.5 0-1-.1-1.5-.1-1.5-.3-3-.4-4.6-.1-.4 0-.8.2-1.2.2-.4.5-.6.9-.8.4 0 .7-.2 1.1-.5.1-.2.2-.3.3-.5.3-.5 1.3-.2 1.4-1.1.5-.2 1-.4 1.4-.7.1-.1.1-.3.2-.6.3-.2.8-.5 1.4-.9l-.8-.3c.2-.1.5-.1.7-.2.6-.4 1.3-.7 1.9-1.1.1-.2.1-.5.2-.6l-.5-.1H35c.7-.7 1.7-.9 2-2.1-.1 0 0 0 0 0zM12.2 33.8c-3-.1-5.8-1.3-7.8-3.4-2.1-2.1-3.2-5-3.2-7.9s1.2-5.8 3.2-7.9c2.1-2.1 4.9-3.4 7.8-3.4 2.8 0 5.5 1.1 7.5 3-.3 2-.5 3.9-.7 5.9-.2 1.7-.3 3.5-.5 5.2 0 .4-.2.8-.4 1.1-.2.3-.5.6-.9.8-.7.2-1.5.3-2.2.1-.7-.2-1.4-.6-2-1.1-.3-.4-.7-.8-1.2-1-.5-.2-1-.2-1.5-.1-.4.1-.8 0-1.2-.2-.3-.2-.7-.3-1.1-.2-.4 0-.8.2-1.1.4.8.2 1.6.7 2.3 1.2.8 1 1.9 1.6 2.8 2.5s3 3 4.4 4.3c-1.4.4-2.8.7-4.2.7zM165 29.7h-4c-.3-.1-.6-.2-.7-.5-1.9-2.4-3.7-4.9-5.5-7.3-.1-.2-.3-.3-.4-.5v8.3h-3.5v-17h3.4v7.1h.2c.7-.7 1.3-1.5 1.9-2.3 1.3-1.5 2.6-3 3.8-4.5.1-.1.1-.2.2-.2.1-.1.2-.1.3-.1h4l-7.1 7.7c1.5 1.9 3.1 3.8 4.6 5.6.9 1.1 1.9 2.4 2.9 3.5-.1 0-.1.2-.1.2zm-91.2-17v17h-3.5v-14h-.1c-.1.2-.1.3-.2.5-1.4 4.3-2.9 8.7-4.4 13-.2.5-.4.6-.8.6h-2.2c-.4 0-.6-.1-.7-.5-1.4-4.3-2.9-8.7-4.4-13 0-.2-.1-.4-.3-.5v14h-3.5v-17h5.5c.2 0 .4.3.4.5l3.3 9.6c.2.6.4 1.2.7 2l1.9-5.4c.7-2.1 1.4-4.1 2.1-6.2.1-.2.3-.5.4-.5 2.1-.1 3.9-.1 5.8-.1zm27.2 17v-17h11v3h-7.3v3.5h3.3c.9 0 1.7.1 2.5.5s1.5.9 2 1.6c1.9 2.8 1.2 7.4-3.5 8.1-1.4.1-2.8.2-4.3.2-1.1.1-2.3.1-3.7.1.1 0 0 0 0 0zm3.6-2.7c1 0 1.9.1 2.8 0 .6 0 1.1-.2 1.5-.6.4-.4.7-.9.7-1.5.1-1.4-.3-2.4-1.5-2.7-1.2-.2-2.4-.3-3.6-.3l.1 5.1zm28.2-14.3h3.4v6.8h6.9v-6.8h3.5v17h-3.4v-7.3h-6.9v7.3h-3.5v-17zm-41.4 17H88V15.5h-6.7v14.1h-3.5V12.8h13.6v16.9zm22.3 0c2.3-5.7 4.5-11.3 6.8-17h3.7c.2 0 .4.3.4.5 1.5 3.7 2.9 7.3 4.4 11 .7 1.6 1.3 3.3 2 5 .1.2.1.4.2.5h-3.6c-.2 0-.4-.3-.4-.4-.4-1-.7-1.9-1.1-2.8 0-.2-.1-.3-.3-.4s-.3-.1-.5-.1h-6c-.2 0-.3 0-.4.1-.1.1-.2.2-.3.4-.3 1-.7 1.9-1.1 2.9-.1.2-.3.4-.5.4-1-.1-2.1-.1-3.3-.1zm11.1-6.7c-.8-2.3-1.6-4.5-2.4-6.7h-.1c-.7 2.2-1.5 4.4-2.3 6.7h4.8zM51.6 13c0 1-.1 1.9-.2 2.9-.8-.2-1.7-.4-2.4-.5-2.1-.2-4 .1-5.5 1.7-.8.9-1.4 2-1.5 3.2-.2 1.2 0 2.4.5 3.5.9 2.2 2.8 3 5 3.1 1.3-.1 2.6-.2 3.9-.5.1.8.1 1.7.2 2.7-3.8 1.1-7.3 1.2-10.6-1.4-1.2-1-2-2.3-2.3-3.8-.6-2-.5-4.1.2-6 .6-1.7 1.7-3.1 3.2-4 1.4-.8 3-1.3 4.6-1.5s3.3.1 4.9.6z"/>
	<path fill="#00aeef" d="M2.6 14.9L.7 13c.7.3 1.4.6 2.1 1V9.9l1.1 4 2.4-2.4-1.9 2.9H7l-2.6.8 1.7 2L4.2 16v3.7l-1.1-3.6-2.6 2.4 2.1-2.9H0s2.6-.8 2.6-.7zm14.2.4c.1 1 .2 1.9.3 2.8l.6 4.6c.2 1.1.3 2.3.5 3.4.1-.3.2-.5.3-.8.3-1.7.3-3.5.5-5.2.5-3.8 1-7.5 1.4-11.3v-.2c0-.6.2-1.1.6-1.5.3-.4.8-.8 1.3-1C25 5 27.7 3.7 30.4 2.4l.3-.6h-.9c.4-.3.7-.5 1.1-.7.2-.1.4-.3.5-.5s.1-.4.1-.6h-.8c-.9.4-1.7.8-2.6 1.3-3.4 1.7-6.9 3.4-10.3 5.1-.4.2-.7.4-.9.7-.2.3-.4.7-.4 1.1-.1 1.2-.1 2.5 0 3.8 0 1.1.2 2.2.3 3.3z"/>
</svg>