<svg xmlns="http://www.w3.org/2000/svg" viewBox="0 0 160 41.1">
	<path fill="#223c7b" d="M19.8 14.4l-10.2 6L0 26.5c1.1 3.7 2.7 6.4 4.8 8.3l10-5.8v11.6c3.2.8 6.4.7 9.6 0V28.9l10.1 5.8c2.3-2.3 3.8-5.1 4.8-8.3l-9.5-6.2-10-5.8zm33 7.9c-.5 0-.9-.1-1.4-.1-2 0-3.5.5-4.5 1.6-.9.9-1.3 2-1.3 3.4 0 1.5.5 2.7 1.5 3.6s2.5 1.4 4.3 1.4c.4 0 .8 0 1.2-.1.5 0 .9-.1 1.4-.3v-2.5c-.5.2-.8.3-1.1.3h-.8c-1 0-1.7-.3-2.2-.9-.3-.4-.5-.9-.5-1.6s.3-1.3.7-1.8c.5-.5 1.1-.7 1.9-.7.3 0 .7 0 1 .1l.9.3v-2.5h-.2c-.4-.1-.7-.2-.9-.2zm8.5 3.4h-2.5v-3.3h-3.7V32h3.7v-3.5h2.5V32H65v-9.6h-3.7v3.3zm8.7 2.5h4.5v-2.1H70v-1.4h4.7v-2.3h-8.3V32h8.4v-2.3H70v-1.5zm22.3-5.7h-4l-2.1 4h-.1v-4h-3.6v4h-.1l-2.2-4h-3.9l3 4.4-3.5 5.1h4.4l2.2-4.3h.1V32h3.6v-4.3h.1l2.1 4.3h4.4l-3.4-5.1 3-4.4zm5.2 5.4l-.1-5.5h-3.7V32H98l2.5-5.4V32h3.7v-9.6h-4.3l-2.4 5.5zm14.3-2.2h-2.4v-3.3h-3.7V32h3.7v-3.5h2.4V32h3.7v-9.6h-3.7v3.3zm11.4 4c-1 0-1.8-.3-2.2-.9-.3-.4-.5-.9-.5-1.6s.3-1.3.7-1.8c.5-.5 1.1-.7 1.9-.7.3 0 .7 0 1 .1l.9.3v-2.5h-.2c-.5-.1-.8-.2-.9-.2-.5 0-.9-.1-1.4-.1-2 0-3.5.5-4.5 1.6-.9.9-1.3 2-1.3 3.4 0 1.5.5 2.7 1.5 3.6s2.5 1.4 4.3 1.4c.4 0 .8 0 1.2-.1.5 0 .9-.1 1.4-.3v-2.5c-.5.2-.8.3-1.1.3-.3-.1-.6 0-.8 0zm13.1-7.3h-4.2l-2.3 3.8v-3.8h-3.7V32h3.7v-4l2.4 4h4.4l-3.5-5.1 3.2-4.5zm5.1 5.5h-.1v-5.5h-3.7V32h4.3l2.5-5.4V32h3.7v-9.6h-4.3l-2.4 5.5zm11.2-6.7c.6.4 1.3.6 2.2.6s1.6-.2 2.2-.6c.6-.4.9-.9 1-1.6l-1.6-.3c0 .3-.1.5-.4.6-.3.1-.6.2-1.1.2-.4 0-.7 0-1-.2s-.5-.4-.5-.7l-1.7.4c0 .7.3 1.2.9 1.6zm3.1 1.2l-2.5 5.5v-5.5h-3.7V32h4.3l2.5-5.4V32h3.7v-9.6h-4.3z"/>
	<path fill="#10a3d4" d="M51.5 12.8h-2.2v-1.3h4.9V9h-8.6v9.6h5.6c1.4 0 2.5-.3 3.2-1 .5-.5.8-1.1.8-1.9s-.3-1.5-.8-2c-.7-.6-1.7-.9-2.9-.9zm-.5 3.6c-.2.2-.5.3-.8.3h-1.1v-2h1c.4 0 .7.1.9.3.2.2.3.4.3.7.1.3 0 .6-.3.7zM58.8 9l-3.4 9.6h3.7l.6-2.1h2.9l.6 2.1h3.9L63.8 9h-5zm1.4 5.4l1-3 1 3h-2zm14.1-2h-2.4V9h-3.7v9.7h3.7v-3.6h2.4v3.6H78V9h-3.7v3.4zm12.2 1.1L89.8 9h-4.2l-2.3 3.8h-.1V9h-3.7v9.7h3.7v-4.1h.1l2.3 4.1H90l-3.5-5.2zM34.6 6.4l-10.1 5.9V.7c-3.7-.9-6.9-.9-9.6 0v11.6l-10-5.8C2.3 9.3.7 12 .1 14.8l9.6 5.6 10.2-6 9.9 5.8c-1-.4-2.3-.7-4.4-.9-1.7-.2-3.7.2-5.6 1.2-1.4 1.2-3.4 1.5-5.6.9-1.5-.4-2.8-.8-4.4-1.1l10.2 6 10-6.1 9.5-5.5c-1-3.2-2.7-5.9-4.9-8.3z"/>
</svg>