<svg xmlns="http://www.w3.org/2000/svg" viewBox="0 0 199.9 28.9">
	<g fill="#db0334">
		<path d="M162.7 6.6h1.8c.8 0 1.2-.5 1.2-1.1 0-.7-.5-1-1.2-1h-1.8v2.1zm4.2-6.6v1.4h-4.2V3h2.1c1.5 0 2.7.9 2.7 2.5s-1.1 2.4-2.8 2.4H161V0h5.9zm6.5 5h2.1l-1.1-3.2-1 3.2zm2-5l2.8 8h-1.8l-.5-1.6H173l-.6 1.6h-1.7l2.8-8h1.9zm7.7 3h3.1V0h1.7v8h-1.7V4.4h-3.1V8h-1.6V0h1.6v3zm10 .3l3-3.3h2.1L195 3.3l3.4 4.7h-2.2l-2.4-3.5-.8.8V8h-1.7V0h1.7l.1 3.3zM43.4 25.8l.3.1-.4 1.8c-1.2.6-2.5.9-4.1.9-1.1 0-2.1-.2-3-.5-.9-.3-1.8-.8-2.4-1.4-.7-.6-1.2-1.4-1.6-2.2-.4-.8-.6-1.8-.6-2.8 0-1.3.2-2.4.7-3.5.4-1 1-1.9 1.7-2.5s1.6-1.1 2.6-1.5c1-.3 2.1-.5 3.2-.5.7 0 1.4.1 2.2.3.8.2 1.4.4 2 .8-.1.3-.2.7-.3 1.1-.1.4-.2.8-.2 1h-.3c-.4-.6-.9-1-1.5-1.4-.7-.3-1.2-.5-1.9-.5-.8 0-1.5.2-2.2.5-.6.4-1.1.9-1.5 1.5s-.7 1.3-.9 2c-.2.8-.3 1.5-.3 2.3 0 1.2.2 2.2.5 3.1.4.9.9 1.6 1.7 2.1s1.6.8 2.7.8c.7 0 1.3-.2 2-.4.6-.3 1.2-.7 1.6-1.1zm16.8-7.2c-.3-.9-.7-1.6-1.2-2.3-.6-.7-1.4-1.3-2.3-1.7s-2.2-.7-3.6-.7c-1.2 0-2.4.2-3.4.6-1 .3-1.8.8-2.5 1.5s-1.2 1.5-1.6 2.4-.5 1.9-.5 2.9c0 1.5.3 2.9 1 4 .6 1.1 1.5 2 2.7 2.6 1.1.6 2.5.9 4 .9 1.2 0 2.3-.2 3.4-.6 1-.4 1.8-.9 2.6-1.6.7-.7 1.2-1.5 1.6-2.4.4-.9.5-1.9.5-2.9-.3-1.1-.5-1.9-.7-2.7zm-5.4-3.1c.5.3 1 .8 1.4 1.3.4.5.6 1.2.8 1.9.2.7.3 1.4.3 2.1 0 1.2-.2 2.3-.5 3.3s-.9 1.9-1.5 2.4c-.7.6-1.6.9-2.5.9-1 0-1.8-.3-2.4-.8-.7-.5-1.1-1.2-1.4-2.1-.3-.9-.4-1.7-.4-2.7 0-1.5.2-2.8.5-3.8.4-1 .9-1.7 1.6-2.3.7-.5 1.5-.8 2.4-.8.5.1 1.1.3 1.7.6zm11.8-1.4s.2 0 .4.1.4.1.5.1h.2c.1 0 .2 0 .2-.1.1 0 .2 0 .2-.1h.2c.4 1.3.9 2.4 1.2 3.3.4 1 .8 2.1 1.4 3.5.5 1.4 1 2.5 1.3 3.3.3.8.9 2.1 1.6 4-.3 0-.5-.1-.7-.1-.2 0-.4-.1-.6-.1h-1c-.2 0-.4.1-.6.1-.2 0-.4.1-.7.1-.2-.8-.5-1.6-.8-2.4-.3-.9-.5-1.6-.8-2.2-.2-.7-.6-1.5-1-2.7-.4-1.1-.8-2.1-1.1-2.9-1.7 4.1-2.9 7.5-3.8 10.2-.3-.1-.7-.1-1-.1-.3 0-.7 0-1 .1.6-1.4 1.1-2.6 1.6-3.8.5-1.1.9-2.3 1.4-3.4.4-1.1.9-2.2 1.4-3.4.6-1.1 1-2.3 1.5-3.5zm9.5 14.2V14.2c.2 0 .4.1.6.1.2 0 .3.1.5.1h.9c.2 0 .3-.1.5-.1.2-.1.4-.1.6-.1v9.7c.6-.7 1.3-1.4 2-2.3.7-.9 1.4-1.7 2.1-2.5.7-.8 1.3-1.7 2-2.6.7-.9 1.2-1.7 1.8-2.4h1.6v14.2c-.2 0-.4 0-.8-.1-.3 0-.6-.1-.8-.1-.2 0-.4 0-.8.1-.3 0-.6.1-.8.1v-9.8l-1.8 2.1c-.7.8-1.3 1.6-2.1 2.6s-1.5 1.9-2.2 2.7c-.7.9-1.2 1.6-1.7 2.3-.2 0-.4-.1-.7-.1-.4.2-.7.2-.9.2zm15-.4c0 .4-.1.8-.1 1.1h.3c.3-.3.7-.5 1.2-.6.6-.1 1.4-.2 2.3-.2h6.1c.8 0 1.5.1 2.1.2.6.1 1 .3 1.2.6h.3c-.1-.4-.1-.8-.1-1.1 0-.1.1-.4.1-1.1h-1c-1.9-4.7-3.5-8.9-4.9-12.6-.1 0-.3 0-.4.1h-.9c-.2 0-.3-.1-.4-.1-.3.9-.7 1.9-1.1 2.9-.4 1.1-.9 2.2-1.4 3.3-.5 1.2-.9 2.2-1.2 3-.3.8-.8 2-1.4 3.4H91c0 .4.1.7.1 1.1zm3.9-1.1c-.7-.1-1.1-.1-1.4-.1.7-2 1.8-4.9 3.3-8.7.7 2 1.4 3.6 1.8 4.9s.9 2.6 1.3 3.8c-.3 0-.9 0-1.5.1H95zm20.2 1.5c.2 0 .5 0 .9-.1.4 0 .7-.1.9-.1.2 0 .5 0 .9.1.4 0 .7.1.9.1L113 14c-.3.1-.5.1-.8.1s-.5 0-.8-.1l-5.9 14.3h2c.1-.4.2-.8.4-1.3.2-.4.3-1 .5-1.6.2-.6.4-1.1.5-1.5h4.8c.4 1 .9 2.4 1.5 4.4zm-3.7-10.4l1.8 4.8h-3.7l1.9-4.8zm15 3.9c.9-.3 1.6-.7 2.2-1.4.5-.7.8-1.6.8-2.7s-.4-2.1-1.1-2.6c-.8-.6-1.8-.9-3.3-.9h-5v14.1c.2 0 .4 0 .8-.1.3 0 .6-.1.8-.1.2 0 .4 0 .8.1.3 0 .6.1.8.1v-6.1c1.1-.1 2.3-.2 3.2-.4zm-2.1-6.5c.5 0 1 .3 1.4.8.4.5.5 1.1.5 2 0 .7-.2 1.3-.4 1.8-.3.5-.8.8-1.4 1-.3.1-.8.1-1.4.2v-5.7h1.3zm7.1 13V14.1c.2 0 .4.1.6.1s.3.1.5.1h.9c.2 0 .3-.1.5-.1.2-.1.4-.1.6-.1v5.6c1.7.1 2.8.1 3.1.1.3 0 1.4-.1 3.1-.1v-5.6c.2 0 .4.1.6.1s.3.1.5.1h.9c.2 0 .3-.1.5-.1s.4-.1.6-.1v14.1c-.2 0-.4 0-.8-.1-.3 0-.6-.1-.8-.1s-.4 0-.8.1c-.3 0-.6.1-.8.1v-6.9c-1.4-.1-2.5-.1-3.1-.1-.7 0-1.8 0-3.1.1v6.9c-.2 0-.4 0-.8-.1-.3 0-.6-.1-.8-.1-.2 0-.4 0-.8.1-.2.2-.5.2-.6.2zm30.3-9.7c-.3-.9-.7-1.6-1.3-2.3-.6-.7-1.4-1.3-2.3-1.7-1-.4-2.2-.7-3.6-.7-1.2 0-2.4.2-3.4.6-1 .4-1.9.9-2.5 1.6-.7.7-1.2 1.5-1.6 2.4-.4.9-.5 1.9-.5 2.9 0 1.5.3 2.9 1 4s1.5 2 2.7 2.6c1.1.6 2.5.9 4 .9 1.2 0 2.3-.2 3.4-.6 1-.4 1.9-.9 2.6-1.6.7-.7 1.2-1.5 1.6-2.4.4-.9.5-1.9.5-2.9-.2-1.2-.3-2-.6-2.8zm-5.4-3.1c.5.3 1 .8 1.4 1.3.4.5.6 1.2.8 1.9.2.7.3 1.4.3 2.1 0 1.2-.2 2.3-.5 3.3s-.9 1.9-1.6 2.4-1.5.9-2.5.9-1.8-.3-2.4-.8-1.1-1.2-1.4-2.1c-.3-.9-.4-1.7-.4-2.7 0-1.5.2-2.8.5-3.8.4-1 .9-1.7 1.6-2.3.7-.5 1.5-.8 2.4-.8.6.1 1.2.3 1.8.6zm19.2 10.1l.3.1-.4 1.8c-1.1.6-2.5.9-4.1.9-2 0-4-.5-5.5-1.9-.7-.6-1.2-1.4-1.6-2.2-.4-.9-.6-1.8-.6-2.8 0-1.3.2-2.4.7-3.5.4-1 1-1.9 1.7-2.4.8-.7 1.6-1.1 2.6-1.5 1-.3 2.1-.5 3.2-.5.7 0 1.4.1 2.2.3.8.2 1.4.4 2 .8-.1.3-.2.7-.2 1.1-.1.4-.2.8-.2 1h-.3c-.4-.6-.9-1-1.5-1.4-.7-.3-1.2-.5-1.9-.5-.8 0-1.6.2-2.2.5-.6.4-1.1.9-1.5 1.5-.4.6-.7 1.3-.9 2-.2.8-.3 1.5-.3 2.3 0 1.1.2 2.2.6 3.1.4.9.9 1.6 1.7 2.1.8.5 1.6.8 2.7.8.6 0 1.2-.2 2-.4.5-.4 1-.7 1.5-1.2zm9.1-9.9v12.7c-.2 0-.4 0-.8-.1h-1.5c-.4 0-.6.1-.8.1V15.7c-1.1 0-2.4.1-3.9.3.1-.5.1-.8.1-.9 0-.1-.1-.4-.1-.9h10.6c0 .1-.1.2-.1.3s-.1.2-.1.3v.5c0 .1.1.2.1.3 0 .1.1.2.1.3-1.5-.2-2.7-.2-3.6-.2zm8.1-1.6c-.3 0-.6.1-.8.1-.2 0-.5 0-.8-.1-.3 0-.5-.1-.7-.1v14.1h4.1c1.6 0 2.8-.3 3.9-1 1-.7 1.5-1.8 1.5-3.5 0-1.1-.4-2-1.1-2.6-.8-.6-1.8-.9-3.3-.9h-2V14c-.3.1-.5.1-.8.1zm2 7.3c.5 0 1 .3 1.4.8.4.5.5 1.1.5 2 0 .7-.2 1.3-.5 1.8s-.8.9-1.4 1c-.3.1-.8.2-1.4.2v-5.8h1.4zM15.2 10.6c.3 0 .5-.1.9-.2l9.6-3.6C24.4 4.7 20.8.5 15.3.2c-.4-.2-.8-.2-1.2-.2-5.3 0-9.4 2.4-12 6.6C.4 9.4 0 12.2 0 14.4c0 1.4.2 2.5.3 3 .2 1.3.8 2.5 1.1 2.7.2.2.6.3.9.3.2 0 .5-.1.7-.1l9.5-3.6c-.3-.5-.9-1.5-2-3.9-1.6-3.7-2.3-5.9-2.4-7.5v-.5c0-.5.3-1 .8-1 .7.1 1.2.6 1.8 1.3 1.2 1.2 2.9 4.1 3.5 5 .4.3.7.5 1 .5z"/>
		<path d="M13.3 18.4c-.3 0-.6.1-.9.2l-9.5 3.6c1.3 2.1 4.9 6.3 10.4 6.6.4.1.8.1 1.2.1 5.3 0 9.4-2.4 12-6.6 1.7-2.8 2.1-5.6 2.1-7.8 0-1.4-.2-2.4-.3-3-.2-1.3-.8-2.5-1.2-2.7-.2-.2-.6-.3-1-.3-.2 0-.5.1-.7.1l-9.5 3.6c.3.5.9 1.5 2 3.9 1.7 3.7 2.3 5.9 2.5 7.6v.3c0 .5-.3 1-.7 1-.7-.1-1.2-.6-1.8-1.3-1.2-1.2-2.9-4.1-3.5-5-.4-.2-.7-.3-1.1-.3z"/>
	</g>
</svg>