<svg viewBox="0 0 200 18" xmlns="http://www.w3.org/2000/svg">
	<path fill="#7F003F" d="m0 8.11133 3.33301 1c.04687.6084.17285 1.15727.36035 1.66407.13769.3711.30859.7197.50684 1.0517.17382.2911.36718.5694.57714.8399.77832 1 1.88965 1.7773 3 2.4443 1.44532.666 2.99996 1.1114 4.55566 1.333.6035.1348 1.207.1875 1.8106.209.3964.0137.7929.0137 1.1894.0137.334 0 .7783 0 1.2227-.1113.4443-.1114.8886-.1114 1.1113-.1114.3896 0 .751.0284 1.085.0703.333.0411.6376.0967.915.1524v-.4443C17.333 15 14.8887 13.7773 12.333 12.667c-2.88866-1.334-5.88866-2.4443-8.99999-3.55567V7.88867C4.3916 8.22852 5.4502 8.59473 6.5 8.98242c2.03516.75098 4.0381 1.58208 5.9443 2.46188 2.5557 1.1114 5 2.333 7.333 3.5557v-1.2227c-2.333-1.2216-4.7773-2.4443-7.333-3.5546-1.5156-.64165-3.06246-1.28325-4.63961-1.89262-1.42871-.55176-2.88184-1.07715-4.36035-1.55274 0 .22266-.11133.55567-.11133.88965v.22168L0 6.88867v1.22266Zm0-3.66699v1.22265l3.33301 1h.11133c.11132-.33398.22265-.77832.333-1.11133-.03808 0-.08984 0-.14648-.00488-.10547-.00879-.22559-.03418-.29785-.10644L0 4.44434ZM0 2v1.22266l3.33301 1c.33398.22168.66699.333 1 .44433-.11035.16602-.19336.33203-.27637.49903-.08398.16699-.16797.33398-.2793.50097 3 1 5.88965 2.11035 8.55566 3.33301 2.5557 1.1113 5 2.333 7.334 3.5557V11.333c-2.334-1.2217-4.7783-2.44433-7.334-3.55566-2.55566-1.11035-5.22167-2.22168-7.99999-3.11035l.66699-1c2.55566.88867 5 1.88867 7.333 2.88867 2.0508.89161 3.959 1.8545 5.8965 2.83204.4766.24121.9551.48242 1.4375.7236V8.88867l-1.0752-.56933c-.792-.4209-1.5625-.83106-2.377-1.24317-.9111-.46094-1.8779-.9248-2.9921-1.40918.4443-.22265 1.666-.44433 2.5546-.44433.8858.11035 1.5498.22168 2.2139.333H18c.4443.11133 1.1113.33301 1.667.77735V0c-.7783.333008-1.667.333008-2.2227.333008-.5556 0-1.2216-.22168-3.333-.333008-.5556 0-1.2226 0-1.7783.111328C10.667.222656 9 .777344 7.88867 1.44434 6.77734 2 5.77734 2.77734 5 3.66699c-.55566-.22265-1.11133-.44433-1.66699-.55566C2.22266 2.66699 1.11133 2.33301 0 2Zm2.33301 13.8896h-.22168v-.4453h.22168c.05273 0 .10547 0 .14648.0235.04492.0263.07617.082.07617.1992.07325.0732.04981.1465-.03711.1885-.04589.0215-.10937.0341-.18554.0341Zm.33398 0c.10645-.0537.16211-.1074.19043-.1611.03125-.0576.03125-.1152.03125-.1728 0-.1084-.02344-.1817-.0625-.2315-.08203-.1015-.23144-.1015-.38183-.1015h-.55567v1.333h.22266V16h.22168c.22265 0 .22265.1113.22265.2227v.333h.22168v-.333c.04981-.0498.05469-.0997.03614-.1485-.02344-.0615-.08496-.123-.14649-.1846ZM2.33301 17c-.55567 0-1.11035-.4443-1.11035-1.1104 0-.6669.44433-1.1113 1.11035-1.1113.55566 0 1.11133.4444 1.11133 1.1113 0 .6661-.55567 1.1104-1.11133 1.1104Zm0-2.333C1.55566 14.667 1 15.2227 1 15.8896c0 .6661.55566 1.3331 1.33301 1.3331.77832 0 1.33398-.5557 1.33398-1.3331 0-.6669-.55566-1.2226-1.33398-1.2226Zm95.88869-3.1113V5.44434c0-.33301.2226-.88868.5556-1.11133h-6c.4444.22265.5557.77832.5557 1.11133v.11132c-1.8662.65821-3.7324 1.42481-5.5996 2.19239l-.0674.02929V5.33301c0-.22168.2227-.77735.5557-1h-6c.334.22265.5556.77832.5556 1.11133v6.11136c0 .333-.2216.8886-.5556 1.1103h6c-.333-.2217-.5557-.7773-.5557-1.1103v-.667c1.8897-.7774 3.7783-1.44436 5.667-2.22268v2.88968c0 .333-.2217.8886-.5557 1.1103h6c-.333-.2217-.5556-.7773-.5556-1.1103ZM77.8184 8.68652c.8564 1.15821 1.7011 2.28318 2.0703 2.75778.1816.2715.3623.4698.5439.5938.041.0283.082.0527.1231.0732.2216.1104.333.333.666.4444h-6.7774v-.1114c.1114 0 .2217-.1113.2217-.333v-.2226c-.0547-.0557-.082-.1114-.1094-.166-.0283-.0557-.0566-.1114-.1123-.167 0-.1114-.1113-.2227-.1113-.2227L72 8h-.1113l-2.333 3.333c-.2227.4443-.334.667-.334.7783 0 .2217 0 .333.1113.4444h-5.4443c.4443-.2227.7773-.4444.8886-.667.4444-.6114 1.6114-2.19436 2.7774-3.77737 1.167-1.58399 2.334-3.16699 2.7783-3.77832h5.333c-.1494.0498-.2314.16699-.2773.29004-.0557.15234-.0557.31543-.0557.37695 0 .04492.0186.1084.0479.18262.042.10937.1084.24121.1748.37304.3496.52539 1.3134 1.84864 2.2627 3.13086Zm40.6256 5.09078V10.333h-2c-.221-.38769-.858-1.32909-1.496-2.27245-.64-.94629-1.281-1.89356-1.504-2.28321-.111-.11132-.222-.333-.222-.44433 0-.11133-.111-.77735.222-.88867H106c-.667 1-3 4.88867-3.556 5.88866h-2v3.4443c.159-.04.388-.164.653-.3076.477-.2597 1.069-.581 1.569-.581h13.667c.598 0 1.261.3935 1.738.6767.144.085.271.1602.373.2119Zm-8.165-5.21773c.361.58203.721 1.16406 1.054 1.77343h-5.556c.286-.6289.602-1.22851.916-1.82909.297-.56641.593-1.13282.863-1.72657h1.666c.334.61231.696 1.19727 1.057 1.78223ZM63.5557 10.2217c.4443-.55568.666-1.2217.666-1.77736 0-.55567-.2217-1.22266-.666-1.77832-.4444-.55469-1-1-1.7784-1.44434-.7773-.44434-1.666-.77734-2.666-1C58 4 56.8887 3.88867 55.7773 3.88867c-1.1113 0-2.2216.11133-3.2216.33301-1 .22266-1.8897.55566-2.667 1-.7774.44434-1.333.88965-1.7774 1.44434-.4453.55566-.667 1.11132-.667 1.77832 0 .51464.1465 1.02929.4707 1.51171.1651.24605.377.48435.6407.70995.7773.667 1.7773 1.2227 3 1.667 1.333.4443 2.666.667 4.2216.667 1.2227 0 2.334-.1113 3.334-.334.4825-.1064.9385-.2392 1.3692-.3984.4619-.1699.8945-.3711 1.2968-.6016.7784-.4443 1.334-.8887 1.7784-1.4443ZM59 7.33301c.2217.33301.4443.66699.4443 1.11133 0 .44433-.2226.77734-.4443 1.11132-.334.33301-.7783.55564-1.334.77734-.5547.2227-1.1103.333-1.7773.333s-1.2227-.1103-1.7774-.333c-.5556-.2217-1-.44433-1.334-.77734-.163-.16406-.2734-.32714-.3427-.5039-.0723-.1836-.1016-.38086-.1016-.60742 0-.44434.1113-.77832.4443-1.11133.334-.33301.7784-.55567 1.334-.77735.2168-.04394.4346-.08789.6582-.125.3487-.05664.7129-.09765 1.1192-.09765.4238 0 .8027 0 1.165.05664.208.0332.4102.08496.6123.16601.5557.22168 1 .44434 1.334.77735ZM42.2217 3.88867h1C43.666 4 44 4 44.1113 4c.666 0 1.1104-.11133 1.5547-.11133v3.55567c-.4443-.22266-1-.44434-1.5547-.55567-.667-.22265-1.2226-.22265-1.8896-.22265-.666 0-1.333.11132-1.7774.33398-.1152.0459-.2255.08691-.331.12598-.4043.15136-.7383.27636-1.002.54004-.334.22265-.5556.55566-.5556.88964 0 .20313.041.36524.1484.53614.0693.10937.166.22265.2959.35254.333.333.7773.44433 1.333.66696.1797.0362.3711.0723.5742.1045.4248.0664.9004.1172 1.4258.1172.667 0 1.333-.1113 1.8887-.2217.667-.1113 1.1113-.33396 1.5556-.55564v3.55564c-.1835-.0459-.3867-.0732-.6005-.0888C44.874 13 44.5479 13 44.2217 13H42.333c-1.7773 0-3.333-.2227-4.7773-.667-1.4444-.4443-2.5557-1-3.4444-1.667-.7783-.666-1.2226-1.44432-1.2226-2.22166 0-.667.2226-1.22266.667-1.77832.2724-.33985.6279-.63868 1.0673-.9209.2774-.17871.5879-.35157.9327-.52344.8886-.44434 1.8886-.77734 3-1 1.1103-.22168 2.333-.33301 3.666-.33301ZM130.111 12.666h11.445c.888 0 5-.1103 5-2.4443 0-1.55568-1.89-2.66604-4.779-2.66604h-5.888V6c.777-.22266 5.222-.22266 6-.22266.777 0 1.777 0 2.888.55567-.062-.1875-.133-.36524-.209-.53711-.191-.44141-.409-.84082-.568-1.24024h-13.889c.778.22168.889.77735.889 1.22168v5.66696c0 .4444-.111.8887-.889 1.2217Zm9.333-4.44432c1.222 0 2.333.33398 2.333 1.77832 0 .8887-.555 1.7773-2.444 1.8887-.333 0-3.222-.1114-3.444-.1114V8.33301c.214-.07129 1.48-.09668 2.448-.10645.541-.00488.988-.00488 1.107-.00488Zm24.445 4.44432c-.333-.1103-.556-.333-.667-.4443-.099-.0488-.176-.1211-.251-.2246-.093-.1289-.182-.3067-.305-.5528-.432-.4931-1.548-1.9443-2.569-3.30953-.82-1.09473-1.578-2.13379-1.875-2.57911C158.111 5.33301 158 5.11133 158 5c0-.11133 0-.55566.333-.66699H153c-.889 1.33301-4.667 6.44429-5.556 7.66699-.111.2217-.444.4443-.888.666h5.555c-.055-.0556-.084-.1113-.097-.1816-.014-.0694-.014-.1524-.014-.2627 0-.0537.026-.1612.079-.2949.056-.1407.141-.3116.254-.4825.111-.2226.223-.333.333-.5556h4c.056.1113.111.1943.167.2773.056.084.111.167.167.2783 0 0 0 .1114.111.2217.111.1113.222.2227.222.334v.2217c0 .1113 0 .334-.222.334v.1103h6.778Zm-8.39-3.23045c.128.18164.259.36816.39.56445h-2.556c.333-.66699.778-1.22266 1.223-1.88867h.11c.236.4707.526.88574.833 1.32422Zm25.057-3.99121v6.11136c0 .1748.061.4111.168.6445.095.2109.229.4189.387.5771h-6c.445-.2216.555-.7773.555-1.1113V9.55566H170V11.666c0 .334.222.8897.556 1.1113h-6c.204-.1357.367-.3974.463-.6572.059-.1631.092-.3252.092-.4541V5.55566c0-.33398-.222-.88964-.555-1.11132h6c-.334.22168-.556.77734-.556 1.11132v2.11036h5.666V5.55566c0-.33398-.222-.88964-.555-1.11132h6c-.334.11132-.555.66699-.555 1Zm18.011 6.55856c.143.0899.276.167.433.2188.222.1113.556.2226 1 .334h-7.556c.222-.1114.222-.2227.112-.334l-.112-.1104c-.055-.0556-.111-.083-.166-.1103-.055-.0283-.111-.0567-.167-.1123-.111-.1114-.222-.2227-.334-.2227-.615-.3916-1.202-.7549-1.79-1.1191-.579-.3584-1.159-.71682-1.765-1.10256V11.666c0 .334.222.8897.555 1.1113h-6c.445-.2216.556-.7773.556-1.1113V5.55566c0-.16211-.117-.5-.31-.75781-.072-.09668-.155-.18164-.246-.24219h6c-.333.11036-.555.66602-.555 1v2.22168c1.778-1.22168 3.555-2.333 5.334-3.44433h4c-2 .55566-2.556.88867-3.556 1.55566-.546.32715-1.63 1.08496-2.723 1.84961l-.055.03906c1 .55567 5.444 3.11136 6.778 3.88866.235.1182.408.2363.567.3369Z"/>
</svg>