<svg xmlns="http://www.w3.org/2000/svg" viewBox="0 0 93 42.1">
	<path fill="#f36f21" d="M.1 11.1c0 6.1 4.9 11 11 11s11-4.9 11-11c0-6-4.9-11-11-11S.1 5 .1 11.1zm0 16.8c0 1.6 4.9 2.9 11 2.9s11-1.3 11-2.9-4.9-2.9-11-2.9C5 24.9.1 26.2.1 27.9zm11 5.8c7.9 0 11 .8 11 1.8 0 1.1-3.1 1.8-11 1.8s-11-.8-11-1.8 3.1-1.8 11-1.8zm0 6.6c9.7 0 11 .2 11 .7s-1.2.7-11 .7c-9.7 0-11-.2-11-.7s1.2-.7 11-.7z"/>
	<path fill="#eb690a" d="M11.1 41.9C.4 41.9 0 41.6 0 41c0-.7.9-.9 11.1-.9s11.1.2 11.1.9c0 .6-.5.9-11.1.9zm0-1.5C3 40.4.3 40.5.3 41s2.7.6 10.8.6 10.8-.1 10.8-.6-2.8-.6-10.8-.6zm0-2.9c-7.4 0-11.1-.7-11.1-2s3.7-2 11.1-2 11.1.7 11.1 2-3.8 2-11.1 2zm0-3.7C1.3 33.8.3 35 .3 35.5s1.1 1.7 10.8 1.7 10.8-1.2 10.8-1.7-1.1-1.7-10.8-1.7zm0-2.9C4.9 30.9 0 29.6 0 27.8s4.9-3.1 11.1-3.1 11.1 1.3 11.1 3.1-4.9 3.1-11.1 3.1zm0-5.8C4.6 25.1.3 26.5.3 27.9s4.3 2.8 10.8 2.8 10.8-1.4 10.8-2.8-4.4-2.8-10.8-2.8zm0-2.9C5 22.2 0 17.2 0 11.1S4.9 0 11.1 0s11.1 5 11.1 11.1-5 11.1-11.1 11.1zm0-21.9C5.1.3.2 5.1.2 11.1s4.9 10.8 10.9 10.8S21.9 17 21.9 11.1 17 .3 11.1.3z"/>
	<path fill="#254194" d="M35.1 27.3c.9 0 2 .3 2.8.7l.4 2.4h1.3v-3.5c-.9-.3-2.4-.8-4.3-.8-2.8 0-4.6.9-5.7 1.9-1.3 1.2-2.5 3.1-2.5 6 0 3.1 1.4 4.9 2.1 5.7 1.8 1.9 4 2.4 5.8 2.4 1.5 0 3.1-.3 4.5-.8v-3.6h-1.3l-.6 2.9c-.7.2-1.6.3-2.3.3-2.4 0-3.7-1.1-4.5-2-.8-1-1.4-2.6-1.4-4.8 0-1.8.5-3.7 1.6-5 .9-.9 2.2-1.8 4.1-1.8zm19.1.5c1.5 1.4 2.5 3.6 2.5 6.2 0 2.4-.8 4.5-2.1 5.8-1 1.1-2.7 2.3-5.3 2.3-2.4 0-4.1-1-5.3-2.2-.9-.9-2.1-2.8-2.1-5.9 0-3.2 1.3-5.1 2.6-6.2.9-.8 2.5-1.8 4.9-1.8 2.1 0 3.6.8 4.8 1.8zm-8.1.8c-1.1 1.2-1.8 3.2-1.8 5.4 0 .9.1 3.1 1.3 4.9 1.1 1.6 2.6 2 3.7 2 .8 0 2.4-.2 3.6-1.9 1.3-1.7 1.4-4 1.4-4.9 0-2.4-.6-4.3-1.7-5.5-1.2-1.3-2.7-1.4-3.3-1.4-1.6 0-2.6.7-3.2 1.4zm31.1-.8c-.9-.8-2.4-1.8-4.7-1.8-2 0-3.6.7-4.8 1.8-1.9 1.7-2.3 4.2-2.4 5.6h-3.2v-6l1.8-.1v-.9h-5.6v.9l1.7.1v13.2l-1.7.1v.9h5.6v-.9l-1.8-.1v-6.2h3.2c.1 2.3 1 4.3 2 5.4.9 1 2.6 2.2 5.1 2.2 2.6 0 4.3-1.2 5.2-2.3 1.2-1.4 2-3.4 2-5.8 0-2.6-.9-4.7-2.4-6.1zM75.9 39c-.9 1.2-2.2 1.9-3.5 1.9-1.1 0-2.6-.4-3.6-2-.9-1.3-1.2-3.2-1.2-4.9 0-1.8.5-4.1 1.7-5.4.8-.8 1.8-1.4 3.3-1.4 1.2 0 2.2.4 3.1 1.4 1.2 1.4 1.6 3.6 1.6 5.5-.1 1.7-.5 3.6-1.4 4.9zm8.9-5.8v1.4l2-.2c.8 0 2.2.1 3 1 .4.4.8 1.2.8 2.2s-.3 1.9-1.3 2.6c-.9.6-2 .7-2.9.7-1 0-1.9-.3-2.6-.7l-.4-2.9h-1.3v4c2.1.7 3.9.7 4.4.7 1.4 0 3.4-.3 4.7-1.2s1.8-2.1 1.8-3.6c0-.9-.3-1.9-1.1-2.6-.8-.7-1.9-1-2.9-1.1.8-.2 1.7-.6 2.3-1.2.8-.8 1-1.6 1-2.3 0-1.6-.8-2.6-1.7-3.1-1.1-.6-2.4-.7-3.7-.7-.8 0-2.2 0-4.2.6v3.5H84l.3-2.5c.9-.4 1.9-.6 2.6-.6.9 0 1.6.2 2.3.8.5.5.9 1.2.9 2.2 0 .9-.3 1.7-1.1 2.3-.6.5-1.3.7-2 .8-.3 0-2.2-.1-2.2-.1zM37.4 12.6c-1.2-.8-2.6-.9-4-.9-.3 0-1.3 0-2.6.1V6.3h5.9l.4 2.3h1.3V5.2H27.1v.9l1.7.1v13.2l-1.7.2v.9h6c1.2 0 3.2-.1 4.5-1.2 1.3-1 1.5-2.3 1.5-3.2 0-1.6-.5-2.7-1.7-3.5zm-1.5 6c-.9.9-2.4.9-3.4.9-.6 0-1.1 0-1.7-.1v-6.5c.7-.1 1.5-.2 2.3-.2 1 0 2.1.1 2.9.9.7.8.8 1.8.8 2.4.1.8-.1 1.9-.9 2.6zm19.1.7L49.5 5H48l-5.4 14.3-1.9.3v.9h5v-.9l-1.8-.1 1.7-4.7H51l1.8 4.7-1.7.1v.9h5.2v-.9l-1.3-.3zm-8.9-5.5l2.3-6.3 2.3 6.3h-4.6zm28.5-7.6v-1H69v.9l1.8.1v6h-7.9v-6l1.8-.1v-.9h-5.6v.9l1.7.1v13.2l-1.7.1v.9h5.6v-.9l-1.8-.1v-6.2h7.9v6.2l-1.8.1v.9h5.6v-.9l-1.7-.1V6.3l1.7-.1zm16.5 13.3L85.9 12l4.8-5.7 1.5-.2v-.9h-4.8v.9l1.6.1-5 6.1h-1.7V6.2l1.8-.1v-.9h-5.6v.9l1.7.1v13.2l-1.7.1v.9h5.6v-.9l-1.8-.1v-6.2h1.9l5.1 7.2h3.3v-.9h-1.5z"/>
</svg>