<svg xmlns="http://www.w3.org/2000/svg" viewBox="0 0 160 39.3">
	<g fill="#a54181">
		<path d="M22.5 9.3c.6 1.2-.6 2.3-1.8 1.8-.2-.1-.4-.3-.5-.5-.6-1.2.6-2.3 1.8-1.8.2.2.4.3.5.5zm5.1 0c.6 1.2-.6 2.3-1.8 1.8-.2-.1-.4-.3-.5-.5-.6-1.2.6-2.3 1.8-1.8.2.2.4.3.5.5zM29.3 12.8c-.9.7-2.7 1.3-4.9 1.3-2.3 0-4-.6-4.9-1.3h-1.9c.5 1.7 3.4 3.1 6.9 3.1 3.5 0 6.4-1.3 6.9-3.1h-2.1zm24.6 18.4c-1.1 0-1.9-.1-2.5-.3-.6-.2-1.2-.5-1.7-.9s-.9-.9-1.2-1.5c-.3-.6-.4-1.4-.4-2.4v-7.9H46v-2.7h2.2v-5h3.5v5H56v2.7h-4.4v7.2c0 .3 0 .6.1.9.1.3.1.6.3.9.1.3.3.5.6.7.4.3.9.5 1.4.6.4.1.9.1 1.3.1h.9v2.7l-2.3-.1zm13-15.7c.6 0 1.3.1 1.9.3.5.2 1 .5 1.4.9.3.3.6.8.8 1.4.2.6.3 1.4.3 2.3v8.1c0 .3 0 .7-.1 1-.1.8-.7 1.4-1.5 1.5-.4.1-.8.1-1.1.1H61c-.5 0-.9 0-1.4-.1-.5-.1-1-.3-1.4-.7-.3-.3-.6-.6-.8-1-.2-.4-.3-.7-.4-1.1-.1-.4-.1-.8-.2-1.2v-1c0-.7.1-1.4.2-2 .1-.7.5-1.3 1.1-1.8.5-.4 1-.7 1.5-.8.5-.1.9-.1 1.4-.1h6.8v-1.1c0-.2 0-.5-.1-.7-.1-.3-.2-.5-.4-.7-.2-.3-.5-.5-.8-.6-.3-.1-.6-.1-.9-.1H58v-2.7c0 .1 8.9.1 8.9.1zm-4.8 8.6c-.2 0-.4 0-.6.1-.3.1-.5.2-.7.5-.1.1-.2.3-.2.5-.1.2-.1.6-.1 1.2 0 .3 0 .6.1.9 0 .3.2.6.4.9.1.1.3.2.5.3.2.1.4.1.6.2h5.2c.1 0 .3-.1.4-.2.1-.1.2-.2.2-.3v-3.9c-.1-.2-5.8-.2-5.8-.2zm11.5-13.6h3.5v20.7h-3.5V10.5zm5.9 20.7V10.5H83v20.7h-3.5zm10.9 0L85 25.4c-.3-.3-.5-.6-.7-.9-.3-.4-.4-.9-.4-1.4 0-.6.1-1.1.4-1.4.3-.4.5-.7.7-.9l4.7-5.2h4l-5.9 6.3c-.1.2-.3.3-.4.5-.1.2-.2.4-.1.6 0 .3.1.5.2.8.1.2.3.5.5.7l6.4 6.8c.2-.1-4-.1-4-.1zm8.4-20.7v5h4.6c.5 0 1 0 1.5.1s1 .2 1.5.4 1 .4 1.4.8c.5.4.9.8 1.2 1.4.4.8.7 1.6.8 2.5.1 1 .2 1.9.2 2.9 0 1.3-.1 2.3-.3 3.1-.2.8-.4 1.5-.7 2-.3.5-.7 1-1.1 1.3-.4.3-.9.6-1.4.8-.5.2-1 .3-1.5.4-.5.1-1 .1-1.4.1h-4.9c-.4 0-.9 0-1.3-.1s-.9-.3-1.2-.6c-.3-.3-.5-.6-.6-1-.1-.3-.1-.7-.1-1V10.5h3.3zm0 16.7v.5c0 .2.1.4.2.5.1.1.3.2.4.2h3.8c.3 0 .6-.1.9-.2.3-.1.6-.3.9-.5.3-.2.6-.5.7-.9.1-.3.3-.7.3-1 .1-.5.2-1.2.2-2.3 0-1.2-.1-2.1-.2-2.7-.1-.6-.3-.9-.3-1-.3-.6-.8-1.1-1.4-1.4l-.9-.3c-.3 0-.6-.1-.8-.1h-3.8v9.2zm22.6-11.7c.6 0 1.3.1 1.9.3.5.2 1 .5 1.4.9.3.3.6.8.8 1.4s.3 1.4.3 2.3v8.1c0 .3 0 .7-.1 1-.1.8-.7 1.4-1.5 1.5-.4.1-.8.1-1.2.1h-7.5c-.5 0-.9 0-1.4-.1-.5-.1-1-.3-1.4-.7-.3-.3-.6-.6-.8-1-.2-.4-.3-.7-.4-1.1-.1-.4-.1-.8-.2-1.2v-1c0-.7.1-1.4.2-2 .1-.7.5-1.3 1.1-1.8.5-.4 1-.7 1.5-.8.5-.1.9-.1 1.4-.1h6.8v-1.1c0-.2 0-.5-.1-.7-.1-.3-.2-.5-.4-.7-.2-.3-.5-.5-.8-.6-.3-.1-.6-.1-.9-.1h-7.7v-2.7h9v.1zm-4.8 8.6c-.2 0-.4 0-.6.1-.3.1-.5.2-.7.5-.1.1-.2.3-.2.5-.1.2-.1.6-.1 1.2 0 .3 0 .6.1.9 0 .3.2.6.4.9.1.1.3.2.5.3.2.1.4.1.6.1h5.2c.1 0 .3-.1.4-.2.1-.1.2-.2.2-.3v-3.9l-5.8-.1zm11.6-6.2c0-.3 0-.6.1-.8.1-.3.2-.6.4-.9.3-.4.7-.6 1.2-.6.4 0 .8-.1 1.2-.1h5.5c.8 0 1.6.1 2.3.2.7.1 1.4.5 2 1.1.4.4.8.9 1.1 1.5.3.6.5 1.5.5 2.6v10.3H139v-9.3c0-.5 0-1-.1-1.5s-.3-.9-.5-1.3c-.2-.3-.6-.6-1-.7-.4-.1-.9-.2-1.5-.2h-3.8c-.1 0-.2.1-.3.2-.1.1-.1.2-.2.3v12.5h-3.5l.1-13.3zm16.7 13.3V10.5h3.5v20.7h-3.5zm11 0l-5.4-5.7c-.3-.3-.5-.6-.7-.9-.3-.4-.4-.9-.4-1.4 0-.6.1-1.1.4-1.4.3-.4.5-.7.7-.9l4.7-5.2h4l-5.9 6.3c-.1.2-.3.3-.4.5-.1.2-.2.4-.1.6 0 .3.1.5.2.8.1.2.3.5.5.7l6.4 6.8-4-.2z"/>
		<path d="M37.2 21.3v-18c0-1.8-1.5-3.3-3.3-3.3h-20c-1.8 0-3.3 1.5-3.3 3.3v18c0 1.8 1.5 3.3 3.3 3.3h14.6c1.4 3.3 8.7 3 8.7 3s-2-.9-2.5-3c1.5-.5 2.5-1.8 2.5-3.3zm-22-2.4V5.7c0-.6.5-1.1 1.1-1.1h15.2c.6 0 1.1.5 1.1 1.1v13.1c0 .6-.5 1.1-1.1 1.1H16.3c-.6.1-1.1-.4-1.1-1z"/>
	</g>
	<g fill="#1d9a9e">
		<path d="M20.3 26.7v3.9c0 .6-.5 1.1-1.1 1.1H5.7c-.6 0-1.1-.5-1.1-1.1V18.8c0-.6.5-1.1 1.1-1.1h2.8v-4.6H3.3c-1.8 0-3.3 1.5-3.3 3.3V33c0 1.5 1 2.8 2.5 3.2-.5 2.1-2.5 3-2.5 3s7.3.3 8.7-3h12.9c1.8 0 3.3-1.5 3.3-3.3v-6.4c0 .2-4.6.2-4.6.2z"/>
		<path d="M7.5 21.7c0 .7.6 1.3 1.3 1.3.7 0 1.3-.6 1.3-1.3 0-.7-.6-1.3-1.3-1.3-.7.1-1.3.6-1.3 1.3zm7.1 5.9h-3.5v2.3h3.5v-2.3z"/>
	</g>
</svg>