<svg xmlns="http://www.w3.org/2000/svg" viewBox="0 0 180 32.4">
	<path fill="#002456" d="M171.8 6.8h2.4v6.3h.8c.7-2.1 1.5-4.2 2.2-6.3.9-.1 1.7 0 2.6 0-.9 2.4-1.6 4.9-2.5 7.3.9 2.6 1.8 5.2 2.7 7.7h-2.6c-.8-2.1-1.5-4.3-2.3-6.4-.3-.1-.6 0-.9 0v6.4h-2.4v-15zm-9.9 0h2.4v6.3h2.7V6.8h2.4v15.1H167v-6.4h-2.7v6.4h-2.4V6.8zM155 17h2.1c-.4-2.4-.7-4.8-1-7.3-.4 2.4-.7 4.9-1.1 7.3zm-.5-10.2h3.2c.8 5 1.7 10 2.6 15.1h-2.4l-.4-2.6h-2.7c-.1.9-.3 1.8-.3 2.6H152c.7-5 1.6-10.1 2.5-15.1zm-8.6 7.5v5.2h1.6c.5-.1.8-.6.8-1v-2.8c0-.4-.1-.9-.5-1.2-.6-.3-1.2-.2-1.9-.2zm-2.4-7.5h6.2v2.3h-3.8v2.8c1.3.1 2.8-.1 3.8.8s1 2.3 1 3.6c-.1 1.4.2 2.9-.6 4.2-.5.9-1.6 1.3-2.6 1.3-1.3.1-2.7 0-4 0v-15zm-15.6 0h2.4c0 1.9-.1 3.8-.1 5.7v3.7c.9-3.1 1.8-6.2 2.6-9.3h3V22h-2.4c0-3.2 0-6.4.1-9.6-1 3.2-1.9 6.4-2.8 9.6h-2.8V6.8zm-10.3 0h2.4c0 3.1-.1 6.2-.1 9.3.9-3.1 1.7-6.2 2.6-9.3h3v15c-.8.1-1.6 0-2.5 0 .1-1 0-2.1.1-3.1 0-2.2.2-4.3 0-6.5-.9 3.2-1.9 6.4-2.8 9.6h-2.8c0-4.9 0-10 .1-15zm-9.9 0h2.4v6.3h.8c.7-2.1 1.4-4.2 2.2-6.3h2.6c-.8 2.4-1.7 4.8-2.5 7.3.8 2.6 1.8 5.2 2.7 7.8h-2.6c-.8-2.1-1.6-4.3-2.3-6.4h-.9v6.4h-2.4V6.8zM90 6.8h6.4v2.3h-4V13h3.3v2.3h-3.4v4.2h4v2.3H90v-15zm-9.7 0h2.4v6.6c.1 1.1 1.5.9 2.3.9V6.8h2.4v15.1H85v-5.2c-1.1 0-2.4.1-3.4-.5-.9-.6-1.3-1.7-1.3-2.8V6.8zM70 6.8h2.4v9.4c.9-3.1 1.8-6.2 2.6-9.4h3v15.1h-2.4c0-3.2 0-6.4.1-9.6-1 3.2-1.9 6.4-2.8 9.6h-2.8c-.1-5-.1-10.1-.1-15.1zm-7 2.4v5.2c.7 0 1.5.2 2-.3.5-.7.2-1.6.3-2.4-.1-.7.2-1.6-.3-2.2-.5-.5-1.3-.3-2-.3zm-2.4-2.4h3.8c1.1 0 2.2.4 2.8 1.3.8 1.2.5 2.7.6 4 0 1.3 0 2.8-1 3.8-1 .9-2.5.8-3.7.8v5.2h-2.4c-.1 0-.1-15.1-.1-15.1zm-7.1 8.3v4.4c.7-.1 1.6.2 2.2-.3.5-.4.3-1.1.4-1.7 0-.7.2-1.6-.4-2.1-.7-.5-1.5-.2-2.2-.3zm0-6.1v3.9c.8 0 2 .2 2.3-.8.1-.8.2-1.7-.1-2.5-.5-.8-1.5-.5-2.2-.6zm-2.4-2.2H55c1.1 0 2.2.4 2.7 1.4.6 1 .5 2.3.5 3.5-.1.9-.3 1.9-1.3 2.2.8.3 1.3 1.1 1.4 1.9.1 1.1.1 2.2 0 3.3-.1.9-.5 1.7-1.3 2.2-.8.5-1.8.5-2.7.5h-3.2v-15zM45 9.7c-.3 2.4-.7 4.8-1 7.3h2.1c-.3-2.4-.7-4.9-1.1-7.3zm-1.6-2.9h3.2c.9 5 1.7 10.1 2.6 15.1h-2.5c-.1-.9-.3-1.8-.4-2.6h-2.7c-.1.9-.3 1.8-.4 2.6h-2.4c.9-5 1.8-10.1 2.6-15.1zM33 6.8h7.3v2.3h-2.4v12.7h-2.4V9.1H33V6.8zm65.6 1.8c.4-1.2 1.6-2 2.9-2 1.1-.1 2.4.1 3.2 1 1 1.1.9 2.7.9 4h-2.4c0-.7.1-1.4-.2-2-.3-.8-1.6-.9-2-.2-.3.5-.3 1-.3 1.5v6.9c0 .5 0 1.2.4 1.6.5.4 1.4.3 1.8-.3.3-.7.2-1.4.2-2.1h2.4c0 1.1 0 2.4-.5 3.4s-1.6 1.5-2.7 1.6c-1.1.1-2.3-.1-3.1-.9-.9-.8-1-2.1-1-3.3v-6.2c0-1 0-2 .4-3zm30.1-5.7h6.4v2h-6.4v-2zM3.1 7.1h18.2v14.8l-4 2.3V11.1h-3.1V26l-4 2.3V11.1H7.1v19l-4 2.3V7.1zM0 0h24.4v4H0V0z"/>
</svg>