<svg xmlns="http://www.w3.org/2000/svg" viewBox="0 0 105 43.4">
	<path fill="#00afaa" d="M0 13.6h10.3c4.6 8.1 11.3 14.8 19.4 19.4v10.3c-6.9-2.4-13.2-6.3-18.3-11.4S2.4 20.6 0 13.6zM29.8 13.6H10.3C7.9 9.4 6 4.8 4.9 0h11.2c3.6 0 7.1 1.4 9.7 4 2.5 2.6 4 6 4 9.6zM29.7 0c.7 3.4 2.4 6.4 4.9 8.9 2.4 2.4 5.5 4.1 8.9 4.9V0H29.7z"/>
  	<path fill="#00539b" d="M29.8 13.6V33C21.7 28.4 15 21.7 10.4 13.6h19.4zM66.1 16.9v13.9h-4.3V16.9h-4.5v-3.3h13.2v3.3c.1-.1-4.4 0-4.4 0zm26.6-1.8c1.4-1.1 3.2-1.8 5-1.8 4.9 0 7.2 3.5 7.2 8.4 0 6.3-3.5 9.5-8.6 9.5s-7.8-3.2-7.8-10.6c0-6.1 1.4-10.4 3.5-12.3 2.4-2.3 3.2-2.2 6.1-2.9 1.8-.4 3.5-.7 4.1-1l1.6 3.5c-.8.5-2.4.9-5.5 1.5-3.6.7-5.3 2-5.6 5.7zm3.9 12.6c2.8 0 3.9-2.3 3.9-5.5 0-2.9-.9-5.4-3.7-5.4-1.3-.1-2.6.3-3.6 1.1-.1 1.3-.2 2.7-.1 4-.1 3.6 1 5.8 3.5 5.8zm-13.7 3l-5.7-8v8h-4.3V13.6h4.3v7.5l5.1-7.5H87l-5.5 7.8 6.5 9.4-5.1-.1c.1.1 0 0 0 0z"/>
	<path fill="#f39a00" d="M43.4 27.3v11.2c-4.8-1.2-9.4-3-13.6-5.5V13.6c1.8 0 3.6.3 5.2 1 1.7.7 3.2 1.7 4.4 3 1.3 1.3 2.3 2.8 3 4.4.7 1.7 1 3.5 1 5.3z"/>
</svg>