<svg xmlns="http://www.w3.org/2000/svg" viewBox="0 0 129.9 25.5">
	<path fill="#333" d="M35.7 25.5c-3.3.1-6.5-1.1-9-3.3-1.3-1.2-2.4-2.7-3-4.3-.7-1.7-1-3.4-.9-5.2-.1-3 .9-6 2.9-8.3 1.8-2.1 4.3-3.5 7-4 3.3-.8 6.8-.3 9.8 1.4 1.8 1 3.3 2.4 4.3 4.2 1.1 1.8 1.6 3.8 1.7 5.8.2 3.9-.7 7.4-3.6 10.1-2.5 2.3-5.8 3.6-9.2 3.6.1-.1 0 0 0 0zm.1-19.3c-1.3-.1-2.6.3-3.7 1.1s-1.8 1.9-2.2 3.2c-.5 1.5-.5 3.2 0 4.8.3 1.1.9 2 1.7 2.7.8.7 1.8 1.2 2.9 1.4 1.1.2 2.2 0 3.2-.4s1.8-1.2 2.4-2.1c.7-1.1 1.1-2.4 1.2-3.6.1-1.3-.2-2.6-.8-3.7-.4-.9-1.1-1.7-2-2.3-.9-.6-1.9-.8-2.9-.8l.2-.3zM90 15.1c-1.2.1-2.4.2-3.7.2v9.5h-7V.8h6.9v8.9c1.5.1 3 0 4.4-.4.9-.3 1.6-.7 2.3-1.4.6-.6 1.1-1.4 1.3-2.3.5-1.6.6-3.3 1-5h6.4c.1 5-.9 9.4-5.6 12.1.2.4.3.6.5.9 2 3.3 3.9 6.5 5.9 9.8.2.5.4.9.6 1.4h-7.3c-2-3.1-3.9-6.4-5.7-9.7-.1 0 0 0 0 0zm30.9-4.7V8.3c-.1-.5-.3-1-.7-1.4-.4-.4-.9-.7-1.4-.8-1.8-.6-3.8-.8-5.7-.5-1.8.1-3.6.6-5.2 1.4-.3-1.7-.6-3.4-.9-5 1.4-.7 2.9-1.1 4.4-1.4 3.2-.7 6.5-.6 9.6.1 3.4.9 5.8 2.8 6.4 6.4.1.9.2 1.8.2 2.7v9c.1 1.9.3 2 2.2 2.3v3.8c-1.9.6-3.9.6-5.7-.2-.5-.2-.9-.6-1.2-1.1-.3-.4-.5-1-.6-1.5-.1-.3-.1-.5-.1-.8-2.3 3.3-5.6 4.1-9.2 3.9-4.1-.2-7.2-3-7.8-6.2-.9-5.2 1.7-9.1 7-10 3.4-.3 4.4 0 8.7 1.4zm0 4.6c-1.1-.7-2.4-1.2-3.7-1.3-.7-.1-1.4-.1-2 0-.7.1-1.3.4-1.9.8-.5.4-.9 1-1.1 1.6-.2.6-.2 1.3 0 1.9.2.6.5 1 1 1.4.5.4 1 .6 1.6.6 1.2.1 2.4-.1 3.5-.5.9-.3 1.7-.9 2.1-1.8s.7-1.8.5-2.7zM67.1.7h6.8v24.2H67v-7.7c-1.3.3-2.4.6-3.6.8-3.1.4-6.1 0-8.6-2-1.8-1.6-3.1-3.8-3.4-6.2-.6-3-.2-6-.3-9h7.1v1.1c0 2 0 3.9.1 5.9 0 .6.2 1.2.4 1.7s.6 1 1 1.4c.4.4.9.7 1.5.9.6.2 1.1.3 1.7.3 1.5 0 3-.4 4.3-1.3-.1-.1-.1-10.1-.1-10.1zM13.9 24.8H7.1V6.9H0V.8h21v6.1h-7.1v17.9z"/>
</svg>