<svg xmlns="http://www.w3.org/2000/svg" viewBox="0 0 190 24.7">
	<g fill="#a58a57">
		<path d="M38.2 19.6L23.7 5.2l-.2-.2-.2.2L8.9 19.6h1L23.5 5.9l13.7 13.7h1z"/>
		<path d="M6.3 19.6L23.5 2.4l17.3 17.3H42L23.5 1.1 5.1 19.6h1.2zM0 24.7h47.1l-2.5-2.5H2.5L0 24.7zM139.4 3.3l.4-.6c.8.5 1.7.7 2.6.7.9 0 1.9-.2 2.7-.7l.4.6c-.9.6-1.9.8-3 .8s-2.2-.3-3.1-.8zm43.4 5.8c1.5-1.6 3.4-3.4 4.8-4.6h-1.4c-1 1.2-3.4 3.8-4.6 4.7 0-1.5 0-3.9.1-4.7h-1.5c.1.8.1 3.2.1 4.8 0 1.8 0 3.9-.1 5.4h1.5c-.1-1.5-.1-3.7-.1-5.1 1.5 1.6 3 3.4 4.4 5.1h1.8c-1.4-1.4-3.8-4.2-5-5.6zm-5.1 5.6c-.1-1.5-.1-3.7-.1-5.4 0-1.6 0-4 .1-4.8h-1.5c.1.8.1 3.2.1 4.3-1.2.1-2.2.1-2.8.1-.6 0-1.8 0-3.3-.1 0-1.1 0-3.5.1-4.3h-1.5c.1.8.1 3.2.1 4.8 0 1.8 0 3.9-.1 5.4h1.5c-.1-1.5-.1-3.8-.1-5 1.5-.1 2.4-.1 3.2-.1.8 0 1.7 0 2.8.1 0 1.1 0 3.4-.1 5h1.6zm-15-10.2c.5 1.3 3.4 8.2 4.5 10.1h-1.6c-.4-.9-1.2-3-1.6-3.8-.6-.1-1.3-.1-2-.1-.6 0-1.2 0-1.7.1-.5.9-1.2 3.1-1.5 3.8h-1.1c1.1-1.8 4.2-9.1 4.6-10.1h.4zm.9 5.4c-.3-.8-.6-1.4-1.4-3.3l-1.4 3.3c.5.1.9.1 1.4.1.5 0 .9-.1 1.4-.1zm-12.5-1h.7c1.5 0 4.5.3 4.5 2.8 0 2.1-1.7 3-4 3h-2.6c.1-1.5.1-3.7.1-5.4 0-1.6 0-4-.1-4.8.9 0 2.4.1 2.7.1.8 0 2.4-.1 3.3-.1v1c-.8-.1-2.2-.2-2.6-.2-.3 0-1.4 0-2 .1v3.5zm0 5h1.2c1.7 0 2.6-.8 2.6-2.2 0-1.6-1.1-2.1-3.8-2.1v4.3zm-4 .8c-.1-1.5-.1-3.7-.1-5.5 0-1.6 0-4 .1-4.8h-.7c-1.7 2.3-5.4 6.1-7.2 7.9v-3c0-1.6 0-4 .1-4.8h-1.5c.1.8.1 3.2.1 4.8 0 1.8 0 3.9-.1 5.4h.6c1.7-2 5.1-5.7 7.3-7.8v2.3c0 1.8 0 3.9-.1 5.4h.8c.1.1.5.1.7.1zM130.2 4.3c3.1 0 5.5 1.9 5.5 5.1 0 3.1-2.3 5.4-5.6 5.4-3.1 0-5.4-1.9-5.4-5.2-.1-3.1 2.3-5.3 5.5-5.3zm4 5.2c0-2.7-1.4-4.5-4-4.5-2.5 0-4 1.8-4 4.7 0 2.4 1.3 4.5 4 4.5 2.3 0 4-1.8 4-4.7zm-14.5-5c2.6 0 3.6.8 3.6 2.6 0 2.3-1.9 3-4.2 3-.1 0-.7 0-.9-.1v2.4c0 .8 0 1.5.1 2.3h-1.5c.1-1.5.1-3.7.1-5.4 0-1.6 0-4-.1-4.8h2.9zm2.2 2.6c0-1.4-1.1-1.8-2.5-1.8h-1.2v3.9c.2 0 .4.1.6.1 1.9 0 3.1-.8 3.1-2.2 0-.1 0 0 0 0zM115 5.4v-.5-.5c-.7 0-2.4.1-3.7.1-1.3 0-3-.1-3.7-.1v1c.9-.1 1.8-.1 2.8-.1h.3c0 .8.1 2.9.1 4 0 1.8 0 3.9-.1 5.4h1.5c-.1-1.5-.1-3.7-.1-5.4 0-1.1 0-3.2.1-4h.3c.7 0 1.6 0 2.5.1zm-9.2.8l.4-1.2c-1-.5-2.2-.7-3.3-.7-3.3 0-5.5 2.1-5.5 5.4 0 3.2 2.1 5.2 5.2 5.2 1.2 0 2.3-.3 3.3-.8l.1-.9-.1-.2c-.8.8-1.9 1.2-3.1 1.2-2.7 0-3.9-2.3-3.9-4.5 0-2.3 1.1-4.7 3.9-4.7 1.1 0 2.1.5 2.8 1.2h.2zm-10 0l.4-1.2c-1-.5-2.2-.7-3.3-.7-3.3 0-5.5 2.1-5.5 5.4 0 3.2 2.1 5.2 5.2 5.2 1.1 0 2.3-.3 3.3-.8l.1-.9-.2-.2c-.8.8-1.9 1.2-3.1 1.2-2.7 0-3.9-2.3-3.9-4.5 0-2.3 1.2-4.7 4-4.7 1.1 0 2.1.5 2.8 1.2h.2zm-10.5 8.5c-.1-1.5-.1-3.7-.1-5.4 0-1.6 0-4 .1-4.8h-1.5c.1.8.1 3.2.1 4.3-1.2.1-2.2.1-2.8.1-.6 0-1.8 0-3.3-.1 0-1.1 0-3.5.1-4.3h-1.5c.1.8.1 3.2.1 4.8 0 1.8 0 3.9-.1 5.4h1.5c-.1-1.5-.1-3.8-.1-5 1.5-.1 2.4-.1 3.2-.1.8 0 1.7 0 2.8.1 0 1.1 0 3.4-.1 5h1.6zm-15-10.2c.5 1.3 3.4 8.2 4.5 10.1h-1.6c-.4-.9-1.2-3-1.6-3.8-.6-.1-1.3-.1-2-.1-.6 0-1.2 0-1.7.1-.5.9-1.2 3.1-1.5 3.8h-1.1c1.1-1.8 4.2-9.1 4.6-10.1h.4zm.9 5.4c-.3-.8-.6-1.4-1.4-3.3l-1.4 3.3c.5.1.9.1 1.4.1.5 0 1-.1 1.4-.1zm-9.1-5.4c2.6 0 3.6.8 3.6 2.6 0 2.3-1.9 3-4.2 3-.1 0-.7 0-.9-.1v2.4c0 .8 0 1.5.1 2.3h-1.5c.1-1.5.1-3.7.1-5.4 0-1.6 0-4-.1-4.8h2.9zM64.3 7c0-1.4-1.1-1.8-2.5-1.8h-1.2v3.9c.2 0 .4.1.6.1 1.9.1 3.1-.7 3.1-2.2zm-7.1-1.6v-.5-.5c-.7 0-2.4.1-3.7.1s-3-.1-3.7-.1v1c.9-.1 1.8-.1 2.7-.1h.3c0 .8.1 2.9.1 4 0 1.8 0 3.9-.1 5.4h1.5c-.1-1.5-.1-3.7-.1-5.4 0-1.1 0-3.2.1-4h.3c.8 0 1.7 0 2.6.1z"/>
	</g>
  	<path fill="#00345e" d="M47.1 24.7H190l-2.5-2.5h-138c.1 0-2.4 2.5-2.4 2.5zM32 10.8h-1.1V5.5c.9-.1 2.7-.1 3.1-.1.6 0 2.7.1 3.9.3 0-.2-.1-.6-.1-.7 0-.3 0-.5.1-.8-1.4.1-3.8.2-5 .2-.5 0-2.7-.1-4.1-.2.1 1.2.2 4.8.2 7.2 0 1.6 0 3.3-.1 5-1.6 1.6-3.2 2.2-4.5 2.2-4.2 0-6.1-4.5-6.1-8.6 0-4.4 1.7-9 6.1-9 1.3 0 2.8.7 4.4 2.5h.3l.5-2.2C28 .3 26.1 0 24.5 0c-3.2 0-5.8 1.6-7.3 4.2-1 0-2.1.1-3.3.1-1.9 0-4.5-.1-5.6-.2 0 .3.1.6.1.8 0 .2 0 .5-.1.7 1.4-.1 2.8-.2 4.2-.2h.4c.1 1.1.1 4.3.1 6 0 2.7 0 5.9-.2 8.2.3 0 .9-.1 1.2-.1.2 0 .7 0 1.1.1-.1-2.3-.2-5.5-.2-8.2 0-1.6 0-4.8.1-6h1.7c-.5 1.4-.8 3-.8 4.5 0 6 3.3 9.6 8.1 9.6 1.7.1 3.4-.4 4.9-1.4 0 .5 0 .9-.1 1.4.4 0 .8-.1 1.2-.1.9 0 2.4.1 2.7.1 3.4 0 6-1.4 6-4.5.1-3.8-4.5-4.2-6.7-4.2zm.7 7.6h-1.8V12c4 0 5.8.8 5.8 3.1-.1 2.1-1.5 3.3-4 3.3zM49.7 19.5l-.1.2h.4l.1-.2c0-.1.1-.2.1-.3v-.1h.8v.1l.1.3.1.2h.6l-.1-.2c-.2-.4-.4-.8-.6-1.4l-.2-.4-.1-.2h-.3l-.1.2-.2.4c-.1.6-.2 1-.5 1.4zm.6-.6v-.1l.2-.4.1-.2.1.2.2.4v.1h-.5-.1zm4.7-1.4h-.3v2.2h.5v-1l.1.2.2.3c.1.1.2.2.2.3l.1.2h.6l-.1-.2-.2-.3-.3-.5-.2-.3.1-.1.3-.3.2-.3.2-.2H56l-.1.2c-.1.1-.2.2-.3.4l-.2.3-.2.2v-1l-.2-.1zm6.3 2.3c.2 0 .2.2.2.5h.2l.1-.6v-.1h-.4v-2h-.5v2h-1v-1.9h-.5v2.2l1.9-.1zm5.4-2.3h-.2c-.4.5-.8 1-1.3 1.5v-.4-1.1h-.5v2.2h.3l1.2-1.5v1.5h.5v-1.2-1zm3.4.3c-.1.1-.2.2-.3.4-.1.1-.1.3-.1.5s0 .3.1.5c.1.1.1.3.3.4.2.2.5.3.9.3.3 0 .6-.1.9-.3.1-.1.2-.2.3-.4.1-.1.1-.3.1-.5s0-.4-.1-.5c-.1-.1-.1-.2-.2-.3-.2-.2-.5-.3-.8-.3-.5-.1-.8 0-1.1.2zm.2.9c0-.2 0-.5.1-.7.1-.1.1-.2.2-.2s.2-.1.3-.1c.1 0 .2 0 .3.1.1.1.2.1.2.2.1.2.2.4.1.6 0 .2-.1.4-.2.6-.1.1-.1.2-.2.2-.1.1-.2.1-.3.1-.1 0-.2 0-.3-.1-.1-.1-.2-.1-.2-.2.1-.1 0-.3 0-.5zm5.3-1.2h-.3v2.2h.5v-1.1h1v1h.4v-2.2h-.5v.9h-1v-.9l-.1.1zm4.9 2.1v.2h1.3v-.3H81v-.8h.7v-.3H81v-.6h.7v-.3h-1.2v2.1zm4.6-2.1h-.3v2.2h.5v-1h.1c.6 0 .8-.2.8-.7v-.3c0-.1-.1-.1-.1-.2-.2-.1-.3-.2-.5-.2h-.3c.1.2-.2.2-.2.2zm.2 1.1v-.8h.1c.2 0 .3.1.3.4.1.2-.1.4-.4.4zm4.3-1.1h-.3v2.2h.5v-1.1h1v1h.5v-2.2h-.5v.9h-1v-.9l-.2.1zm6.9 2.1v.2h.5v-2.2h-.5v2zm-1.6.2h.5c.4 0 .8-.2.8-.7 0-.5-.5-.6-.9-.6h-.2v-.9h-.5v2.2h.3zm.2-1.2H95.4c.1 0 .1.1.1.1l.1.1v.2c0 .3-.1.5-.4.5h-.1v-.9zm7.2-1.1h-.3c-.4.5-.8 1-1.3 1.5v-.4-1.1h-.5v2.2h.2l1.2-1.5v1.5h.5v-1.2c.1-.4.1-.8.2-1zm-.4-.7l-.2.2c-.1.1-.2.1-.4.1-.1 0-.2 0-.3-.1-.1-.1-.1-.1-.1-.2h-.1v.4h.1c.1.1.3.1.4.1.2 0 .3 0 .5-.1h.1v-.4zm6.7.7h-.3v2.2h.5v-1l.2.3.2.3c.1.1.2.2.2.3l.1.2h.6l-.1-.2-.2-.3-.3-.5-.2-.3.1-.1.3-.3.2-.3.2-.2h-.4l-.1.2c-.1.1-.2.2-.3.4l-.2.3-.2.2v-1l-.3-.2zm4.7.3c-.1.1-.2.2-.3.4-.1.1-.1.3-.1.5s0 .3.1.5c.1.1.1.3.3.4.2.2.5.3.9.3.3 0 .6-.1.8-.3.1-.1.2-.2.3-.4.1-.1.1-.3.1-.5s0-.4-.1-.5c-.1-.1-.1-.2-.3-.3-.2-.2-.5-.3-.8-.3-.4-.1-.7 0-.9.2zm.2.9c0-.2 0-.5.1-.7.1-.1.2-.3.4-.3s.3 0 .5.1c.1.1.2.1.2.2.1.2.1.4.1.6 0 .2 0 .4-.2.6-.1.1-.1.2-.2.2-.1.1-.2.1-.3.1-.1 0-.2 0-.3-.1-.1-.1-.2-.1-.2-.2-.1-.1-.1-.3-.1-.5zm4.9 1.1h.2v-.7l.1-.4v-.3l.1.2.4.8.1.3.1.1h.1l.1-.2.3-.6.2-.4.1-.3v.3l.1.5v.8h.5l-.1-.3-.1-.9-.1-.8v-.2h-.3l-.1.2c-.1.1-.1.3-.3.6l-.3.5-.1.2-.1-.2-.3-.5-.2-.5-.1-.3h-.3v.3l-.1.7-.1.4-.1.6v.2c.2-.1.3-.1.3-.1zm5.6 0h.2V18.4l.1.2.4.8.1.3.1.1h.1l.1-.2.3-.6.2-.4.1-.3v.3l.1.4v.8h.5l-.1-.3-.1-.9-.1-.8v-.2h-.3l-.1.2c-.1.1-.2.3-.3.6l-.2.5-.1.2-.1-.2-.2-.5-.2-.5-.1-.3h-.3v.3l-.1.7v.4l-.1.6v.2h.1zm5.6-.2v.2h1.3v-.3h-.7v-.8h.7v-.3h-.9v-.6h.8v-.3h-1.2v2.1zm4.5-2.1h-.3v2.2h.5v-1h.1c.6 0 .9-.2.9-.7 0-.1 0-.2-.1-.3 0-.1-.1-.1-.1-.2-.2-.1-.3-.2-.5-.2h-.3l-.2.2zm.3 1.1v-.8h.1c.2 0 .3.1.3.4 0 .2-.1.4-.4.4zm5.6-1.1h-.2v.7c0 .5-.3.5-.4.5-.3 0-.4-.3-.4-.7v-.4h-.5v.6c0 .2.1.4.2.5.1.1.3.2.5.2s.4 0 .6-.1v1h.5v-2.2h-.1c-.1 0-.2-.1-.2-.1zm3.5 2.1v.2h1.3v-.3h-.8v-.8h.7v-.3h-.7v-.6h.7v-.3h-1.2v2.1zm6.1-.2l-.1.1c-.1.1-.3.2-.5.2-.1 0-.3 0-.4-.1l-.3-.3c-.1-.2-.1-.3-.1-.5s.1-.4.2-.6c.1-.1.1-.2.2-.2.1-.1.2-.1.3-.1h.2c.1 0 .1.1.2.1l.1.1v-.4h-.1c-.2-.1-.3-.1-.5-.1-.3 0-.7.1-.9.3-.1.1-.2.2-.3.4-.1.2-.1.3-.1.5s0 .3.1.5c0 .1.1.2.2.3.1.1.2.2.4.2.2.1.4.1.6.1.2 0 .4 0 .6-.1h.1v-.1c0-.2.1-.3.1-.3zm3.3-1.9h-.3v2.2h.5v-1l.1.2.2.3c.1.1.2.2.2.3l.1.2h.6l-.1-.2-.2-.3-.3-.5-.2-.3.1-.1.3-.3.2-.3.2-.2h-.3l-.1.2c-.1.1-.2.2-.3.4l-.2.3-.2.2v-1l-.3-.1zm6.5 0h-.2c-.4.5-.8 1-1.3 1.5v-.4-1.1h-.5v2.2h.3c.4-.5.8-1 1.3-1.5v1.5h.5v-1.2c-.1-.4-.1-.8-.1-1zm5.2 0h-.2c-.4.5-.8 1-1.3 1.5v-.4-1.1h-.5v2.2h.3l1.2-1.5v1.5h.5v-1.2-1zm-.4-.7l-.2.2c-.1.1-.2.1-.4.1-.1 0-.2 0-.3-.1-.1-.1-.1-.1-.1-.2h-.1v.4h.1c.1.1.3.1.4.1.2 0 .3 0 .5-.1h.1v-.4zm6.9 1.7v-.7h.9v-.3h-1.4V19.8h1.1c.1 0 .3-.1.4-.2.1-.1.1-.3.1-.4 0-.5-.5-.6-.9-.6 0-.1-.2-.1-.2-.1zm0 .2H171.4c.1 0 .1 0 .1.1l.1.1v.2c0 .3-.1.5-.4.5h-.1v-.9zm4.1.8l-.1.2h.3l.1-.2c0-.1.1-.2.1-.3l.1-.1h.8v.1l.1.3.1.2h.6l-.1-.2c-.2-.4-.4-.8-.6-1.4l-.2-.4-.1-.2h-.3l-.1.2-.2.4c-.1.6-.3 1-.5 1.4zm.5-.6l.1-.1.2-.4.1-.2.1.2.2.4.1.1h-.8zm4.7-1.4h-.3v2.2h.5v-1.1h1v1h.5v-2.2h-.5v.9h-1v-.9l-.2.1zm5.2 0h-.3v2.2h.5v-.2-.8l.2.3.2.3c.1.1.2.2.2.3l.1.2h.6l-.1-.2-.2-.3-.3-.5-.2-.3.1-.1.3-.3.2-.3.2-.2h-.4l-.1.2c-.1.1-.2.2-.3.4l-.2.3-.2.2v-1l-.3-.2z"/>
</svg>