<svg xmlns="http://www.w3.org/2000/svg" viewBox="0 0 143 30">
	<path fill="#CC163F" d="M40.5 19.5465c-.0169-1.4546-.3407-2.8892-.9502-4.2101-.6095-1.3208-1.491-2.4981-2.5868-3.4549.3548-.9671.5351-1.98942.5325-3.0195 0-.5655-.057-1.1235-.1605-1.6605C36.561 3.105 32.97 0 28.6665 0h-10.437v19.2315c0 3.702-3.165 6.717-7.056 6.717-.1225-.0009-.2451-.0039-.3675-.009-3.72-.18-6.69-3.1215-6.69-6.705V5.6775c0-.897.7395-1.626 1.647-1.626h4.086c.2682.00237.5341-.04814.7827-.14866.2487-.10052.475-.24907.6661-.43715.1912-.18808.3434-.412.4479-.65895.1045-.24695.1593-.51209.1613-.78024 0-1.1175-.9225-2.025-2.058-2.025H5.7645C2.5845.0015 0 2.547 0 5.6775v1.818h.0015H0v11.739l.0015.1485C.09 25.251 5.064 30 11.175 30c6.1605 0 11.1735-4.83 11.1735-10.7655V4.05h6.3195c.042 0 .0825.0015.12.0075 2.5425.0645 4.59 2.1945 4.59 4.8045.0058.95978-.2763 1.8992-.81 2.697-.618.954-.462 2.004.4875 2.535 1.0082.5408 1.8505 1.3453 2.437 2.3275.5865.9823.8952 2.1055.893 3.2495 0 3.2295-2.409 5.895-5.49 6.2415-.2247.0236-.4505.0356-.6765.036h-6.654c-1.134 0-2.055.909-2.055 2.0265 0 1.1205.921 2.025 2.055 2.025h6.6525c5.6655 0 10.2795-4.635 10.2795-10.3275.0045-.0435.003-.084.003-.126Z"/>
	<path fill="#000" fill-opacity=".85" d="M66.3811 4.56302c.354 0 .474.207.354.504L60.6646 21.912c-1.065 2.9925-2.724 3.999-5.7735 3.999-.7995 0-1.836-.09-2.8425-.414-.504-.1485-.6225-.2355-.5325-.651l.474-2.457c.087-.444.2354-.384.6809-.3255.651.0885 1.1251.12 1.6291.12 1.3335-.03 1.953-.15 2.427-1.482l.4754-1.332h-.771c-.9495 0-1.2434-.207-1.6589-1.272L49.5601 5.12702c-.177-.384.06-.561.414-.561h3.4349c.6796 0 .8281.12.9766.591L56.577 11.166l1.6591 4.887h.207l1.5675-5.1225 1.866-5.74498c.1785-.5025.297-.6225.9165-.6225h3.588v-.0015.0015Zm2.898 19.03798V6.66452c0-1.362.474-2.013 1.8945-2.013H82.722c.444 0 .5325.147.5325.651v2.634c0 .4155-.12.5625-.5325.5625h-8.9429V12.171h4.3215c7.0455 0 7.521 4.677 7.521 6.69 0 3.7605-3.1095 6.513-7.1071 6.513h-7.458c-1.452.003-1.7774-.501-1.7774-1.773Zm8.8245-7.668h-4.323v5.505h4.293c2.25 0 2.8725-1.686 2.8725-2.8125 0-1.5375-1.0065-2.6925-2.8425-2.6925Zm15.366 8.823c0 .5325-.12.6225-.711.6225H89.649c-.474 0-.6809-.1485-.6809-.6225V6.42902c0-1.095.3539-1.8075 1.7759-1.8075h7.2541c4.2929 0 6.9299 2.724 6.9299 6.48448 0 2.013-.859 6.75-7.5209 6.75h-3.9375v6.9ZM97.317 8.59052h-3.8504v5.62498h3.879c2.0145 0 2.9314-1.242 2.9314-2.814.003-1.1235-.56-2.81098-2.96-2.81098Zm10.422 1.71448c0-.35398.149-.47248.533-.47248h3.168c.474 0 .562.09.562.47398v9.06h.149c1.539-2.547 1.807-3.021 2.31-3.7905.739-1.155 1.659-2.6655 2.959-4.767.563-.7995.83-.97648 1.836-.97648h1.451c1.095 0 1.659.35398 1.659 1.65748v13.413c0 .384-.15.474-.533.474h-3.198c-.445 0-.562-.0585-.562-.474v-8.8815h-.149c-.888 1.362-1.687 2.7525-2.547 4.086-.915 1.4205-1.806 2.8725-2.752 4.293-.533.828-.888.9765-1.836.9765h-1.392c-1.362 0-1.658-.561-1.658-1.6575V10.305Zm23.301 14.451c0 .5325-.12.6225-.711.6225h-3.108c-.474 0-.681-.1485-.681-.6225V6.42902c0-1.095.356-1.8075 1.776-1.8075h7.256c4.291 0 6.928 2.724 6.928 6.48448 0 2.013-.859 6.75-7.519 6.75h-3.941v6.9h-.001.001Zm3.848-16.16548h-3.848v5.62498h3.879c2.013 0 2.931-1.242 2.931-2.814 0-1.1235-.562-2.81098-2.961-2.81098h-.001Z"/>
</svg>