<svg xmlns="http://www.w3.org/2000/svg" viewBox="0 0 118 42">
	<path fill="#e60000" d="M68.8 25.2c0 8.7-4.8 9.8-9.7 9.8C50.8 35 49 30.8 49 24.9V8h-3V6.4h11.7V8h-3.3v16.3c0 5.7 1.5 8.7 5.8 8.7s6.4-2.1 6.4-8.1V8h-3.1V6.4h8.3V8H69l-.2 17.2zM77 33V8h-3.3V6.4h12.9c5.5 0 8.2 3 8.2 6.6 0 3.8-3.5 5.9-6.6 6.6 6.1.5 7.7 4.4 7.7 7.2 0 5.7-5 7.9-9.9 7.9H73.5V33H77zm12.6-19.7c0-2.6-1.4-5.3-4.5-5.3h-3.4v10.9h3c3.4 0 4.9-2.7 4.9-5.6zm1.1 13.5c0-3.7-1.7-6.3-5.5-6.3h-3.3v12.6h2.7c4-.1 6.1-2.5 6.1-6.3zm18.2-19.2c-3.1 0-5 1.7-5 4.8 0 2.7 3.1 4.1 6.1 5.1 1.8.6 4 1.5 5.6 2.8 1.7 1.6 2.6 3.6 2.5 6.3-.1 4.9-3.6 8.3-9.9 8.3-2.3 0-6-.5-8.1-1.7l-.3-7.4h1.9c.2 5 2.5 7.6 6.7 7.6 3.4 0 5.2-2.2 5.2-5.6 0-2.9-2.4-4.1-6.2-5.4-1.2-.4-3.6-1.3-5.3-2.9-1.5-1.5-2.2-3.4-2.2-5.3 0-5.7 4.2-8.3 9.4-8.3 2.1 0 5.1.7 7 1.7l.2 6.5h-1.9c-.3-4.5-2.4-6.5-5.7-6.5z"/>
	<path fill="#000" d="M31.8 12.1l-.7.6.8 2.6-2.4-1.3-.8.6 2.7 1.5-2.9 2.3-.7-1 1-.8-.8-.8-1 .8-.8-1.1 1-.8-.7-1-5.3 4.3 5 3.9.9-1.1c.7 0 1.1.5 1.4 1.1l-.9 1.1.6.5c1.2-1.1 2.9-1.8 4.6-1.8 3.5 0 6.3 2.8 6.3 6.3 0 1.1-.3 2.4-.9 3.4l.8.6c0 .6-.7 1.4-1.3 1.6l-.9-.7c-1.2 1.2-2.9 1.8-4.6 1.8-3.5 0-6.3-2.7-6.3-6.2 0-1.1.4-2.3.8-3.3l-.7-.5-.9 1.2c-.7-.1-1.2-.5-1.4-1.2l.9-1-4.2-3.5v5.5h1.4c.2.3.3.5.3.8 0 .3-.1.6-.3.9h-1.4v.6c3.1.5 5.7 3.1 5.7 6.2 0 3.2-2.5 5.8-5.7 6.3v1.1c-.3.2-.7.3-1 .3s-.8-.1-1.1-.3v-1.1c-3.2-.5-5.6-3.1-5.6-6.3 0-3.1 2.4-5.7 5.6-6.1v-.7h-1.5c-.2-.3-.3-.5-.3-.9s.1-.6.3-.9h1.5v-5.5L14 23.6l.9 1c-.2.6-.7 1.1-1.4 1.2l-.9-1.2-.6.5c.6 1 .9 2.1.9 3.3 0 3.5-2.8 6.2-6.3 6.2-1.7 0-3.4-.6-4.6-1.8l-.9.7c-.4-.1-1-.8-1.1-1.5l.9-.7c-.6-1-.9-2.2-.9-3.4 0-3.5 2.7-6.3 6.3-6.3 1.7 0 3.4.7 4.6 1.8l.6-.4-1.1-1c.2-.5.7-1 1.4-1.1l.9 1.1 5-3.9-5.2-4.3-.7 1 1 .8-.7 1-1-.8-.7.9.8.6-.7 1L7.7 16l2.6-1.5-.8-.5-2.4 1.3.7-2.5-.7-.6-.9 2.8-2.9-2.3.7-.9 1 .8.8-.9-1-.9.7-.9 1 .7.7-.9L5.1 8c.2-.7.7-1.3 1.4-1.7l11.8 9.5V9.5h-1.2v1.2H16V9.5h-1.2v1.2h-1.2V7.1l2.8 1.2v-1l-2.6-1.1 2.6-1v-.9l-2.8 1.1V1.7h1.2V3H16V1.7h1.2V3h1.2V.2c.4-.1.7-.2 1.1-.2s.7.1 1 .2v15.6l11.8-9.5c.7.5 1.1 1 1.4 1.7l-2.2 1.7.7.9 1-.7.7.9-1 .9.7.9 1-.8.7.9-2.9 2.3c.3.1-.6-2.9-.6-2.9zM7.7 29.3c0 1 .7 1.6 1.7 1.7l-1.5 1.1c-1-.4-2-1.6-2-2.6 0-.4.1-.5.2-.8h-.3c-1.4 0-2.5-1.3-2.8-2.6l1.6-1.2v.5c0 .8.8 1.6 1.7 1.6.9 0 1.8-.7 1.8-1.6 0-1.1-.8-1.8-2-1.8C4 23.5 2 25.5 2 28c0 .7.2 1.5.5 2.1l.9-.7c.6.3 1.1.9 1.3 1.6l-.9.7c.9.7 2.1 1.1 3.2 1.1 2.4 0 4.3-1.9 4.3-3.6 0-1-.7-1.8-1.7-1.8-1.2.3-1.9 1-1.9 1.9zM20.3 33c0 .9.7 1.6 1.7 1.6.7 0 .9-.3 1.4-.6v1.9c-.5.3-.9.4-1.5.4-1 0-1.9-.3-2.4-1.2-.6.9-1.5 1.1-2.5 1.1-.5 0-1-.1-1.5-.4V34c.5.5.7.6 1.4.6.9 0 1.7-.7 1.7-1.6 0-.9-.6-1.6-1.6-1.6-1.8 0-2.5 1.6-2.5 3.2 0 2.2 1.7 4.1 3.8 4.5V38c.4-.2.7-.2 1-.2.4 0 .7 0 1.1.2v1c2.1-.3 3.8-2.4 3.8-4.5 0-1.6-.7-3.2-2.5-3.2-.7-.1-1.4.7-1.4 1.7zM31 25.4c0 .8.9 1.6 1.8 1.6s1.7-.7 1.7-1.6V25l1.5 1.2c-.3 1.5-1.6 2.6-3.1 2.6.1.3.1.5.1.8 0 1.1-.9 2.3-2 2.6L29.6 31c.9-.1 1.7-.7 1.7-1.7s-.8-1.6-1.8-1.6-1.7.8-1.7 1.8c0 1.2 1.5 3.6 4.4 3.6 1.1 0 2.2-.4 3.1-1.1l-.9-.7c.2-.7.7-1.4 1.3-1.6l.9.7c.4-.6.6-1.4.6-2.1 0-2-1.6-4.6-4.1-4.6-1.2-.1-2.1.6-2.1 1.7z"/>
</svg>