<svg xmlns="http://www.w3.org/2000/svg" viewBox="0 0 95 46">
	<path fill="#006A40" d="m38.3452 13.3087-23.2016 6.2412c-.8291.1875-1.6211.6895-2.2032 1.4502-.5825.7598-.8623 1.6573-.8623 2.5469v5.668l-6.16062 1.6318c-.35742.0957-.68555.3057-.92871.6231-.24316.3144-.35742.6865-.35742 1.0556v6.0303l6.16065-1.6602c.0918-.0244.1816-.0566.2685-.0957.2515-.1142.4791-.291.6597-.5244.2432-.3135.3574-.6865.3574-1.0556l.0005-6.0049 7.4575-2v8.876l-6.1386 1.6347c-.3648.0996-.6997.3135-.9468.6348-.2471.3213-.3648.7012-.3648 1.082v6.2959l6.1387-1.6494c.0864-.0244.1714-.0537.2539-.0908.0445-.0196.0884-.041.1314-.0645.2129-.1142.4048-.2744.5615-.4795.2471-.3213.3647-.7021.3647-1.0781V36.091l7.4356-2.004v8.8174l11.3999-3.0634c1.9194-.5137 3.4893-2.543 3.4893-4.4659V15.8253c.0034-1.9218-1.566-3.0742-3.5152-2.5166ZM3.68457 45.0001 0 46.0001v-3.6572c0-.1631.0317383-.331.0957031-.4883.0429689-.1064.1005859-.208.1733399-.3017.180664-.2403.427246-.3985.692383-.4688L4.646 40.0802v3.6572c0 .2774-.08838.5577-.26856.794-.18066.2363-.42773.3945-.69287.4687Z"/>
	<path fill="#50AC25" d="M15.0991 4.48811 31.4697.107252c1.6245-.442382 2.9546.524414 2.9585 2.151368V18.8006c0 1.624-1.3301 3.3213-2.9551 3.7608l-4.4951 1.206v-7.4062l-7.4428 2v-7.4883l-7.439 1.9892V8.51448c0-.89356.2798-1.79004.8623-2.54981.5601-.73437 1.3188-1.22558 2.1406-1.46875v-.00781ZM5.78467 20.867l4.99263-1.3584c.3609-.0996.6924-.3096.9395-.6308.1079-.1407.1904-.2911.249-.4473.0757-.2022.1118-.4131.1118-.6231v-4.9453l-4.99215 1.3467c-.14746.041-.29004.0996-.42383.1777-.19385.1133-.36963.2657-.51562.4571-.24366.3213-.36133.6982-.36133 1.0742v4.9492ZM.00390625 28.2703l3.68457375-1c.26513-.0742.5122-.2324.69287-.4687.10254-.1338.17529-.2822.21875-.4365.0332-.1172.0498-.2373.0498-.3575v-3.6572L.965332 23.3543c-.265137.0703-.511719.2285-.692383.4688-.1806638.2324-.26904275.5127-.26904275.79v3.6572Z"/>
	<path fill="#003F7C" d="M91.3066 12.0684c.9175.4687 1.71 1.1113 2.1924 2.0263.3208.6055.501 1.3291.5049 2.167.0034 1.5899-.6265 2.9297-1.7651 3.834-.3814.3037-.8155.5596-1.2979.7656-.2895.1241-.5962.2295-.9194.3164-.3545.0957-.7285.169-1.1211.2207-.4346.0567-.8921.085-1.3701.085-1.5181 0-2.7969-.2764-3.8062-.7051-1.0097-.4277-1.7505-1.0039-2.1997-1.6201-.2148-.2978-.3652-.6045-.4321-.9141-.0259-.1201-.0396-.2412-.0396-.3623 0-.2363.0625-.4541.1548-.6425.0923-.1924.2134-.3545.3428-.4942.1699-.1806.3462-.3213.5093-.4228.0547-.0342.1079-.0645.1592-.0909.0336-.0166.0664-.0312.0976-.0439.0664-.0264.1255-.0479.2324-.0518.0332 0 .0738 0 .1289.0186.0552.0186.1289.0625.1802.1328l.0039.0078c.877 1.2764 2.5166 2.3545 4.6426 2.3545.4468 0 .8481-.0371 1.2021-.1084.2945-.0586.5562-.1406.7837-.2422.501-.2256.8365-.5351 1.0318-.9306.1328-.2657.2026-.5723.2026-.9297 0-.4063-.0996-.6973-.2725-.9483-.1733-.2509-.435-.4619-.7778-.6464-.685-.3692-1.6909-.6055-2.7744-.8565l-.2861-.0684-.2491-.0605-.2915-.0752c-.1318-.0352-.2631-.0713-.394-.1103-.1045-.0303-.2085-.0625-.312-.0958-.4424-.1425-.8745-.3085-1.2822-.5117-.8697-.4355-1.6431-1.0517-2.1114-1.9707-.313-.6133-.4863-1.34763-.4863-2.21872-.0034-1.48731.6523-2.78614 1.7612-3.68262 1.1094-.90039 2.6568-1.41016 4.4624-1.41016 1.4038 0 2.5752.24707 3.5.63086.9248.38379 1.5992.90039 2.0118 1.45801.2729.37305.4311.76758.4311 1.15918 0 .40527-.1694.74902-.3721 1.01074-.2065.2627-.4531.4541-.6596.58301-.1436.08887-.2578.14453-.376.17773l-.0269.00586c-.0278.00586-.0571.0127-.1015.0127-.0181 0-.0381-.00098-.0625-.00586l-.0557-.0127c-.0264-.00781-.062-.02343-.0991-.0498-.0142-.00977-.0283-.02148-.042-.03516-.0146-.01465-.0293-.03222-.043-.05175-.7925-1.14063-2.3105-2.04883-4.0864-2.04883-.9687 0-1.7427.23633-2.2549.61719-.5122.38378-.7812.88867-.7846 1.54589 0 .39844.0844.67871.2285.9043.1435.22461.3608.40623.667.56833.5649.3028 1.4257.502 2.4619.7412l.2387.0557c.3184.0742.6377.1533.9537.2422.3681.1025.7314.2168 1.0835.3476.3403.126.6699.2676.9838.4288Zm-12.0747 4.3671c-.0581-.0439-.1157-.082-.1714-.1162-.0532-.0332-.1044-.0615-.1528-.0869-.0513-.0263-.0991-.0478-.1509-.0625-.0517-.0156-.0996-.0332-.184-.0332-.0332 0-.0777.0029-.1329.0215-.0263.0098-.0571.0244-.0883.0469-.0303.0215-.0611.0498-.0884.0859l-.0039.0078c-.8472 1.2364-2.4278 2.1289-4.5098 2.166l-.0146-.0146h-.1363c-1.5512 0-2.874-.5977-3.8208-1.6201-.9472-1.0225-1.518-2.4766-1.518-4.2071 0-1.746.5561-3.2187 1.4848-4.25191.9322-1.0332 2.2364-1.63867 3.7989-1.63867l.2685.00391c2.1113-.00391 3.8174.86328 4.5874 1.98535.0625.08496.1328.11816.1807.13281.0478.01465.0845.01856.1177.01856.059 0 .0922-.01075.1254-.01856.1216-.0332.232-.08887.3755-.17676.2066-.12988.4536-.32128.6597-.583.2026-.2627.3721-.60547.3721-1.01172-.0034-.4209-.21-.81543-.5342-1.18848-.4898-.55664-1.2749-1.07422-2.2881-1.46094-1.0132-.38769-2.2588-.64257-3.666-.64257h-.2246c-2.5313-.00391-4.7056.91894-6.231 2.49902-1.5288 1.5791-2.4131 3.80856-2.4131 6.38476 0 2.5645.8731 4.7754 2.3911 6.3398 1.5181 1.5655 3.67 2.4727 6.1753 2.4698h.1475c2.023 0 3.6182-.4912 4.7236-1.1778.2574-.1601.4883-.331.6919-.5097.2339-.2041.4312-.419.5904-.6377.2983-.4102.4677-.8457.4716-1.2774 0-.0742-.0063-.1464-.0175-.2158-.0118-.0742-.0293-.1455-.0518-.2148l-.022-.0645-.0263-.0644-.0264-.0596c-.0161-.0342-.0332-.0684-.0513-.1006-.166-.3174-.4126-.5537-.6377-.7266ZM63.2896 4.91602c-.0845-.28418-.2544-.53125-.4976-.68653-.2432-.15527-.5342-.21777-.8472-.21777h-.4052c-.1436 0-.2823.01172-.4146.04101l-.0557.01368c-.042.01074-.083.02246-.123.03711-.0737.02441-.1445.05664-.2114.09472-.0928.05274-.1783.11817-.2535.19336-.0742.07422-.1386.1582-.1909.25098-.0454.08008-.0825.16504-.1118.25488-.0635.19531-.0908.41113-.0908.64551v8.51853c0 1.5498-.3242 2.6494-.9175 3.3477-.0552.0644-.1128.1269-.1733.1855-.0679.0664-.1392.128-.2139.1865-.2178.1709-.4648.3096-.7441.417-.1934.0743-.4029.1348-.6299.1797-.1157.0225-.2359.041-.3604.0557-.2143.0254-.4419.0381-.6826.0381-.6411 0-1.1899-.0957-1.6504-.2774-.6889-.2724-1.1865-.7265-1.5366-1.4023-.3501-.6709-.5342-1.5752-.5342-2.7051V5.54297l-.0014-.07617-.003-.0752-.0049-.06836-.0063-.06347c-.0142-.11817-.0376-.23145-.0728-.33692-.0439-.14062-.1098-.27344-.1953-.38965l-.0522-.0664c-.0235-.02735-.0479-.05274-.0737-.07813-.0591-.05664-.1241-.10742-.1949-.15137-.2466-.15527-.5449-.22168-.873-.22168h-.354c-.21 0-.4053.0293-.5894.09571-.2724.0957-.5049.28808-.6518.54297-.1475.2539-.2139.55273-.2139.89258V14.165c0 2.3282.5894 4.1661 1.7871 5.417.3643.3809.7837.7061 1.2529.9717.0562.0322.1128.0635.1704.0928l.1241.0635c.1274.0634.2578.123.3916.1777.0893.0361.1797.0713.2715.1045.8696.3105 1.8681.4648 2.9848.4648 1.1162 0 2.1182-.1582 2.9917-.4756 1.3115-.4726 2.3394-1.3173 3.0176-2.4804.6816-1.166 1.0171-2.6387 1.0171-4.3877V5.54297c.001-.05664.0005-.11231-.002-.16699l-.0048-.07032-.0088-.09277c-.0127-.10351-.0328-.20215-.062-.29687ZM52.8882 25.1484h-.1143c-.1181 0-.2212.0332-.2949.1075-.0737.0771-.103.1845-.103.3095v2.3731c0 .4316-.0884.7422-.2583.9375-.1035.1191-.2368.2041-.4087.2519-.0737.0215-.1548.0352-.2437.042l-.061.003-.0747.0019c-.1621 0-.3018-.0215-.4224-.0625-.1474-.0498-.2656-.1309-.3589-.2402-.1694-.1992-.2617-.5049-.2617-.9258v-2.3809c0-.041-.0034-.08-.0102-.1162-.0142-.0732-.044-.1387-.0928-.1904-.0737-.0772-.1807-.1104-.3023-.1104h-.0996c-.061 0-.1191.0098-.1709.0303-.0454.0176-.0859.044-.1201.0801-.0737.0781-.103.1846-.103.3066v2.4024c0 .2304.021.4433.063.6377.0762.3506.2212.6425.4346.8681.3315.3477.8212.5205 1.4404.5205.6191 0 1.1128-.1767 1.4482-.5273.168-.1758.294-.3926.3775-.6475.0424-.1308.0742-.2705.0947-.4209.019-.1406.0288-.289.0288-.4453v-2.3877c0-.0586-.0059-.1142-.0195-.164-.0157-.0557-.041-.1045-.0801-.1455-.0664-.0743-.1694-.1075-.2871-.1075Zm4.915 0h.0845c.1143 0 .2173.0371.2876.1221.0698.0772.0957.1846.0957.3057v3.8759c0 .1397-.0371.2618-.1104.3536-.0776.0888-.1918.1406-.3168.1406h-.0557c-.1177 0-.2061-.0186-.2798-.0664-.0737-.044-.1216-.1104-.1768-.1885l-2.2109-3.1328v2.9707c0 .0645-.0078.124-.0259.1777l-.0117.0303-.0181.0371c-.0122.0225-.0268.043-.0439.0615-.0303.0313-.0659.0557-.106.0733-.0571.0254-.1225.0371-.1923.0371h-.0772c-.1182 0-.2212-.0332-.291-.1143-.0664-.081-.0923-.1845-.0923-.3066v-3.875c0-.1367.0332-.2588.1069-.3506.0738-.0918.1914-.1436.3243-.1436h.1215l.0674.003c.0323.0039.063.0097.0923.0176.0513.0146.0972.0361.1387.0644.0171.0117.0332.0234.0483.0371.02.0176.0391.0371.0576.0586l.0533.0645.0473.0644 2.0928 2.9707v-2.8672c0-.122.0259-.2285.0957-.3066.0405-.0469.0938-.0781.1543-.0957.0435-.0127.0913-.0186.1406-.0186Zm2.0191 0h-.0996c-.1177 0-.2212.0332-.295.1104-.0293.0312-.0517.0664-.0678.1055-.0245.0595-.0352.1279-.0352.2011v3.9532c0 .121.0293.2285.103.3056.044.0469.0987.0772.1607.0938.042.0117.0869.0175.1343.0175h.0996c.0415 0 .0815-.0039.1191-.0126l.0298-.0079.04-.0156c.0415-.0176.0782-.042.1094-.0752.0303-.0312.0532-.0683.0693-.1094.0235-.0586.0337-.125.0337-.1962v-3.9493c0-.122-.0293-.2285-.103-.3066-.0737-.0811-.1807-.1143-.2983-.1143Zm1.4477.0293h3.2202c.066 0 .127.0088.1807.0264.0464.0156.0874.0391.1216.0693.0224.0215.041.0459.0566.0713.0083.0137.0156.0283.022.044.022.0537.0317.1133.0317.1767v.0332c0 .0596-.0088.1162-.0283.167-.0088.0225-.0195.044-.0327.0645-.0137.0215-.0303.041-.0493.0595-.0235.0225-.0503.0411-.0801.0557-.0342.0176-.0723.0293-.1123.0371l-.0464.0069-.0298.0029-.0371.001h-1.1572v3.5214c0 .125-.0327.2325-.1065.3096-.0415.043-.0932.0723-.1523.0899-.0464.0136-.0967.0205-.1499.0205h-.0996c-.1177 0-.2212-.0332-.2949-.1104-.0738-.0771-.1031-.1846-.1031-.3066v-3.5205h-1.1567c-.0303 0-.0601-.002-.0889-.0059-.0366-.0049-.0713-.0137-.104-.0254-.0439-.0166-.0835-.04-.1167-.0722-.0434-.0391-.0737-.0899-.0923-.1465-.0068-.0205-.0122-.042-.0156-.0645l-.0049-.0449-.0014-.0352v-.0332c0-.1181.0405-.2216.1176-.292.0811-.0703.188-.0996.3096-.0996Zm7.3877 3.9161h-2.2549v-1.2071h1.691c.1254 0 .2324-.0293.3134-.0996.0772-.0703.1143-.1777.1143-.292v-.0215c0-.0703-.0132-.1377-.043-.1943-.0171-.0332-.0395-.0625-.0679-.0869-.0771-.0664-.184-.0918-.3129-.0918h-1.6915V26.001h2.211c.0962 0 .1836-.0176.2539-.0576.0215-.0118.041-.0254.0591-.042.0176-.0157.0332-.0342.0469-.0537.0136-.0196.0249-.0411.0346-.0635l.0152-.044c.0117-.041.0175-.0859.0175-.1308v-.0401l-.0029-.0537c-.0049-.0498-.0171-.0976-.0376-.1396-.0176-.0352-.0405-.0674-.0698-.0948-.0777-.0703-.188-.1035-.3135-.1035h-2.6377c-.1367 0-.2583.0479-.3428.1407-.0444.0459-.0786.1035-.1015.1679-.0205.0586-.0313.1231-.0313.1895v3.75c0 .1396.0445.2656.1328.3545.0845.0879.2061.1367.3428.1328h2.6782l.0679-.0029c.0361-.004.0703-.0108.1025-.0215l.0362-.0137.0381-.0195c.0141-.0078.0278-.0176.0405-.0274l.0244-.0224c.0776-.0733.1069-.1807.1069-.295v-.0371c0-.0293-.0024-.0586-.0073-.0869-.0068-.039-.019-.0762-.0366-.1094-.0171-.0312-.0391-.0595-.0664-.0839-.0777-.0743-.1846-.0996-.3096-.0996Zm1.562-3.9161h1.1094c.7886 0 1.4297.2139 1.8716.6241.4424.4052.6816 1 .6816 1.7304 0 .1563-.0112.3067-.0332.4502l-.0137.0811c-.0122.0654-.0268.1299-.0439.1924-.1094.4072-.3149.7519-.6055 1.0185-.4497.4131-1.0981.6348-1.894.6348h-1.061c-.1324 0-.2505-.0518-.3374-.1358-.0923-.0898-.149-.2148-.149-.3515v-3.75c0-.1436.0479-.2686.1363-.3574.0883-.0889.2065-.1368.3388-.1368Zm.4131 3.9307h.6743c.5415 0 .958-.1475 1.2339-.4102.2803-.2656.4351-.6494.4351-1.1582-.0039-.498-.1587-.8857-.4385-1.1484-.1016-.0957-.2202-.1768-.356-.2402-.2387-.1133-.5302-.1729-.8711-.1729h-.6777v3.1299Zm9.3032-.6377c-.1103-.0742-.2212-.0996-.2983-.1035l-.0405.0039-.0078.0029-.0201.0098c-.0127.0078-.0268.0205-.0385.0459-.1734.4541-.6485.7383-1.2344.7383-.8657-.0039-1.4922-.6612-1.4961-1.6319 0-.4863.1548-.8925.4165-1.1767.2617-.2842.6265-.4463 1.0649-.4463.2286 0 .4561.0517.6582.1504.2286.1113.4248.2832.5577.5097l.0332.0372.0625.0146c.0703-.0039.1733-.0293.2837-.1035.1069-.0742.2065-.1992.2065-.3838-.0005-.0342-.0059-.0693-.0151-.1055-.0098-.039-.0245-.0781-.044-.1181-.0727-.1504-.2119-.3067-.4087-.4483-.3022-.2138-.748-.3799-1.334-.3799-.7036 0-1.3042.2549-1.7319.6934-.4233.4395-.6704 1.0557-.6704 1.7754 0 .4599.1011.8789.2852 1.2344.1015.1963.2285.373.3779.5263.1914.1983.4199.3584.6782.4737.3086.1386.6597.2129 1.0391.2129.3247 0 .6084-.0518.8496-.1338.0654-.0225.1279-.0469.187-.0733.1416-.0625.2651-.1357.3706-.2138.3169-.2364.4829-.5127.4863-.7266-.0014-.0908-.0273-.168-.0664-.2315-.0405-.0664-.0947-.1171-.1509-.1523Zm3.3238-3.0488 1.6323 4.1845.0073.0303c-.0039.0586-.0332.084-.0591.1172-.0127.0166-.0283.0313-.0459.0449-.018.0147-.0385.0274-.061.0401-.0884.0556-.1987.0966-.3242.0966-.0923.004-.1953-.0224-.2876-.0849-.0884-.0625-.1655-.1621-.2207-.3067l-.3799-.9775h-1.7022l-.3793.9854c-.0518.1367-.1216.2363-.2066.2988-.0239.0176-.0478.0322-.0723.0439-.0273.0137-.0551.0244-.083.0313-.0405.0097-.081.0137-.1206.0137-.1845 0-.3427-.085-.4277-.1739-.0259-.0332-.0513-.0625-.0552-.122l.0073-.0401 1.6177-4.1816c.0332-.085.0918-.1699.188-.2178.0991-.0479.2207-.0703.3941-.0703l.0917.001c.0313.0019.0611.0048.0884.0088.0288.0039.0557.0087.0811.0146l.022.0059.0459.0136c.0234.0078.0449.0166.0649.0264.0962.0479.1548.1328.1846.2178Zm-1.1978 2.3916h1.2158l-.604-1.5987-.6118 1.5987Zm6.9678-1.1817c0-.4687-.1587-.8447-.4683-1.0888-.1118-.0899-.2417-.1621-.3886-.2188-.2588-.0986-.5718-.1465-.9336-.1465h-1.2935c-.1362 0-.2578.0479-.3428.1407-.0844.0878-.1289.2138-.1289.3574v3.8056c0 .0586.0054.1133.0176.1631.0151.0625.041.1192.0781.169.0313.04.0708.0703.1162.0918.0523.0244.1123.0371.1748.0371h.0996c.1216 0 .232-.041.3023-.1182l.0127-.0146.0195-.0264.022-.0391c.0332-.0644.0488-.1396.0488-.2187v-1.3916h.3721l1.2197 1.499c.0811.1065.1582.1836.2432.2354.0532.0332.1108.0547.1714.0664.04.0078.081.0117.1235.0117.1582 0 .2871-.0635.3721-.1328.019-.0166.0361-.0332.0512-.0498l.023-.0264c.0098-.0117.0181-.0234.0249-.0352.0225-.0361.041-.0732.041-.1181l-.0259-.0694-1.2309-1.4658c.0703-.0107.1382-.0234.2036-.039.1064-.0254.2065-.0577.2993-.0977.1567-.0683.2925-.1582.4038-.2695.2505-.2656.3755-.6084.3721-1.0108Zm-.9028.0332c0 .2286-.0699.3985-.21.5205-.1401.1221-.3648.1954-.6856.1954h-.8691v-1.4317h.8472c.3242 0 .5527.0664.7002.1846.1401.1182.2138.2842.2173.5312Zm3.2861-1.4873c.7886 0 1.4297.2178 1.8721.6241.4458.4052.6816 1 .6816 1.7304 0 .7305-.2471 1.3291-.6963 1.7422-.4497.4131-1.0981.6348-1.894.6348h-1.0611c-.1162 0-.2212-.0391-.3042-.1035-.0215-.0166-.0415-.0352-.06-.0557-.043-.0488-.0767-.1045-.0982-.166-.018-.0508-.0278-.1055-.0278-.1621v-3.75c0-.1436.0478-.2686.1362-.3574.0884-.0889.21-.1368.3389-.1368h1.1128Zm-.6924 3.9307h.6704c.5415 0 .9546-.1475 1.2383-.4102.2798-.2656.4346-.6494.4346-1.1582-.0039-.498-.1587-.8857-.4385-1.1484-.2798-.2656-.6929-.4131-1.2271-.4131h-.6777v3.1299Zm-38.4448 5.791c-.3018-.2217-.6924-.3398-1.083-.4316l-.0562-.0127c-.292-.0694-.5361-.126-.6992-.2129-.0386-.0215-.0723-.044-.1016-.0674l-.0234-.0205-.0234-.0225c-.0284-.0293-.0503-.0615-.0674-.0996l-.0108-.0273c-.0063-.0176-.0117-.0361-.0156-.0557-.0073-.0361-.0112-.0771-.0122-.124 0-.1846.0776-.3281.2212-.4356.1436-.1064.3613-.1728.6338-.1728.4975 0 .9209.2539 1.146.5752l.0259.0371h.0478l.0586-.0107c.0591-.0225.144-.0743.2212-.1514.0776-.0781.144-.1885.1475-.3252-.0035-.2139-.1656-.4316-.4424-.6055-.2798-.1689-.6851-.2949-1.2046-.2949-.501 0-.9321.1406-1.2378.3916-.105.085-.1958.1836-.2695.293-.0537.0791-.0982.164-.1329.2539-.0561.1465-.0859.3066-.0844.4746-.0034.4844.1992.8125.4902 1.0225.291.2109.6597.3134 1.0132.3955.3022.0693.5825.1357.7739.2392.0801.0449.1446.0918.1929.1475.0679.0771.1035.1719.1055.3027 0 .2031-.0772.3477-.2212.4541-.147.1074-.3794.1699-.6817.1699-.5967 0-1.0537-.3027-1.3076-.6679l-.0737-.0332c-.0518.0039-.0777.0185-.1182.041l-.0371.0224-.0391.0293c-.0366.0293-.0732.0655-.1079.1065-.059.0703-.1069.166-.1069.2764.0039.2363.1807.4765.4829.6679.3057.1924.7476.3291 1.3115.3291.5454 0 .9912-.1328 1.3081-.3838.3169-.2509.4898-.6201.4898-1.0634-.0015-.0918-.0108-.1788-.0274-.2608-.0151-.0762-.0366-.1474-.0634-.2148-.0259-.0645-.0562-.125-.0909-.1817-.0864-.1406-.1997-.2578-.3305-.3535Zm26.6474-.4316c.3941.0918.7808.2099 1.083.4316.2984.2178.5049.5498.5049 1.0108 0 .4433-.1733.8125-.4902 1.0634-.3169.251-.7627.3838-1.3081.3838-.5635 0-1.0059-.1367-1.3115-.3291-.3057-.1914-.4825-.4316-.4864-.6679 0-.1104.0479-.2061.107-.2764.0591-.0703.125-.125.1841-.1582.0405-.0225.0664-.0371.1181-.041l.0772.0332c.0317.0449.0659.0888.1025.1308l.0566.0616c.0269.0273.0547.0537.084.08.0786.0703.1665.1338.2632.1885.2236.127.4942.207.8018.207.3056 0 .5342-.0625.6816-.1699.1475-.1064.2212-.251.2212-.4541 0-.2246-.1035-.3428-.2949-.4502-.1914-.1035-.4717-.1699-.7739-.2392-.1578-.0362-.3184-.0772-.4737-.1299-.1933-.0655-.3784-.1485-.5395-.2656-.291-.21-.4937-.5381-.4898-1.0225-.0039-.4131.1802-.7744.4864-1.0215.3056-.251.7368-.3916 1.2377-.3916.5196 0 .9249.126 1.2051.2949.2759.1739.438.3916.4419.6055-.0039.1367-.0698.2471-.1474.3252l-.0176.0176-.0327.0283c-.0352.0293-.0708.0537-.1031.0723l-.038.0205-.0293.0127-.0591.0107h-.0445l-.0258-.0371c-.2246-.3213-.6485-.5752-1.1455-.5752-.273 0-.4903.0664-.6338.1728-.1441.1075-.2212.251-.2212.4356.0034.2217.0844.3213.2544.417.1015.0547.2353.0967.393.1377l.2144.0527.0547.0117.0356.0088.0576.0147Zm-22.207 1.9853h-2.2549v-1.207h1.6909c.1255 0 .2325-.0293.3096-.0996.0777-.0703.1143-.1777.1143-.2881v-.0225c0-.0781-.0166-.1523-.0537-.2129-.0152-.0253-.0342-.0478-.0567-.0673-.0776-.0664-.1846-.0957-.3135-.0957h-1.6909v-1.0996h2.2144c.125 0 .2319-.0293.313-.0997.0302-.0273.0542-.0605.0722-.0976.0284-.0576.042-.125.042-.1943v-.0401c0-.1113-.0332-.2148-.1103-.2881l-.0337-.0263c-.02-.0147-.042-.0264-.065-.0372-.0625-.0273-.1357-.04-.2148-.04H54.041c-.1362 0-.2578.0479-.3423.1406-.0849.0879-.1328.2178-.1294.3575v3.746c0 .1407.0445.2657.1328.3545.0342.0362.0748.0655.1192.087l.0376.0156c.0571.0215.1196.0322.186.0303h2.6787c.0284 0 .0557-.002.0821-.0049.0493-.0069.0957-.0186.1367-.0381.0342-.0166.0649-.0381.0908-.0645.0772-.0732.1069-.1806.1069-.2988v-.0371c0-.1104-.0332-.2139-.1108-.2803-.0845-.0664-.1914-.0918-.313-.0918Zm4.1709-3.5508c.3096.2471.4678.6202.4678 1.0889 0 .4063-.125.749-.3648 1-.1294.1299-.291.2295-.4809.3008-.1294.0478-.2715.083-.4253.1055l1.2305 1.4648.0258.0742c0 .0479-.0185.085-.0405.1221-.022.0361-.0552.0732-.0996.1103-.0845.0704-.2134.1329-.3721.1329-.1069 0-.2065-.0254-.2949-.0772-.0884-.0517-.1655-.1299-.2466-.2363l-1.2197-1.4951h-.3721v1.3916c0 .0654-.0107.1279-.0332.1845-.0166.043-.04.0811-.0698.1143-.0278.0303-.062.0557-.1006.0742-.0586.0293-.1284.044-.2016.044h-.0997c-.0468 0-.0922-.0069-.1337-.0206-.063-.0214-.1187-.0576-.1607-.1083-.0664-.085-.0962-.1993-.0962-.3321v-3.8056c-.0014-.0664.0078-.129.0269-.1856.0219-.0664.0571-.125.1025-.1719.0845-.0927.2061-.1406.3423-.1406h1.2935c.5673 0 1.0131.1182 1.3227.3652Zm-.645 1.6426c.1401-.122.2104-.292.2104-.5205-.0039-.2432-.0776-.4131-.2177-.5312-.0699-.0557-.1578-.0996-.2652-.1309-.1196-.0352-.2636-.0537-.4345-.0537h-.8477v1.4316h.8696c.1577 0 .2925-.0175.4053-.0507l.0688-.0225c.0445-.0166.0845-.0361.1211-.0576.0332-.0196.063-.041.0899-.0645Zm5.2656-2.0342c-.188-.0039-.3945.1143-.4829.3916l-1.1567 3.2403-1.1573-3.2403c-.0151-.0478-.0341-.0918-.0571-.1318-.0185-.0322-.0395-.0615-.0625-.0879-.1011-.1162-.2402-.1728-.3848-.168-.1294 0-.2509.044-.3427.0958-.0479.0263-.085.0556-.1182.0849l-.0059.0059-.0058.0058c-.0122.0147-.0235.0284-.0322.045-.0098.0185-.0171.04-.0186.0693l.0112.0439 1.6319 4.1221c.0444.1113.0996.1963.188.2549.0883.0586.1953.0771.3354.0771.0645 0 .1221-.0039.1743-.0136.064-.0127.1197-.0332.1685-.0635.0884-.0586.1435-.1475.1875-.251l1.6289-4.1299.0034-.0371c-.0015-.0273-.0073-.0478-.0156-.0654-.0108-.0234-.0264-.041-.043-.0596-.0884-.0957-.2544-.1885-.4458-.1885Zm1.4072 0h.0996c.1216-.0029.2281.0332.3018.1114.0737.0771.1035.1845.1035.3056v3.9532c0 .122-.0298.2285-.1035.3066-.0518.0547-.1221.0869-.2002.1016l-.0439.0058-.0577.003h-.0996c-.0258 0-.0512-.002-.0756-.0059-.0289-.0039-.0562-.0098-.0826-.0186-.0522-.0175-.0986-.0459-.1367-.0859-.0737-.0781-.103-.1846-.103-.3066v-3.9532c0-.1211.0293-.2285.103-.3056.0371-.0391.082-.0674.1323-.086.0494-.0175.104-.0254.1626-.0254Zm5.2393 3.3184c-.1104-.0703-.2212-.0996-.2983-.1035l-.0406.0039c-.0092.0019-.0239.0059-.0395.0205-.0093.0088-.0186.0205-.0269.0391-.0923.2402-.271.4345-.5068.5634-.2056.1123-.4546.1748-.7276.1748-.8657-.0039-1.4921-.665-1.4956-1.6318 0-.3066.0611-.5801.1714-.8115.065-.1377.1475-.2598.2447-.3652.2617-.2842.6264-.4473 1.0649-.4473.2388 0 .4766.0556.686.1631.2168.1123.4024.2802.5264.498.0254.0371.0479.0401.0586.044l.0371.0039c.0698-.0039.1733-.0293.2837-.1035.0459-.0323.0908-.0733.127-.125.0473-.0674.0795-.1534.0795-.2588-.0019-.0957-.0366-.1993-.102-.3037-.0503-.0791-.1182-.1602-.2031-.2383-.0489-.044-.1036-.0879-.1631-.1299-.3023-.2139-.7481-.3799-1.3374-.3799-.7036 0-1.3042.2549-1.732.6934-.165.1709-.3032.3691-.4101.5898-.168.3457-.2603.7461-.2603 1.1856 0 .7128.2432 1.3252.6631 1.7607.4204.4355 1.0171.6865 1.7173.6865.1401 0 .273-.0097.398-.0263.0961-.0137.1879-.0323.2753-.0547.3008-.0772.5459-.2022.7339-.3438.3135-.2363.4829-.5127.4864-.7265.0014-.0723-.0157-.1358-.043-.1905-.0088-.0185-.0191-.0361-.0303-.0527-.0381-.0567-.0874-.1016-.1367-.1338Zm1.7246.624h2.2549c.125 0 .2319.0254.3057.0918.0776.0664.1103.1699.1103.2803v.0371c0 .1182-.0293.2256-.1064.2988-.0738.0743-.1846.1075-.3096.1075h-2.6787c-.1328.0039-.2578-.044-.3428-.1329-.0845-.0888-.1289-.2138-.1289-.3545v-3.746c0-.1397.0444-.2696.1289-.3575.0596-.0644.1367-.1074.2246-.1269.0376-.0088.0772-.0137.1182-.0137h2.6382c.125 0 .2358.0293.3129.1035.0586.0557.0918.128.1045.2071.0044.0263.0064.0537.0064.081v.0401c0 .1142-.0371.2216-.1143.2919-.081.0704-.188.0997-.3134.0997h-2.2105V34.46h1.6909c.1289 0 .2359.0293.3135.0957.0771.0664.1104.1699.1104.2802v.0225c.0034.1104-.0333.2178-.1104.2881-.0811.0703-.188.0996-.3135.0996h-1.6909v1.207Z"/>
</svg>