<svg xmlns="http://www.w3.org/2000/svg" viewBox="0 0 190 28.5">
	<path fill="#fff" d="M2.9 9.3L0 7.8 23.1 0l23.1 7.8-2.9 1.5 2.9.9-2.9 1.5 2.9 1-2.7 1.4 2.7.9-11.6 5.9v.3c0 4-5.2 7.2-11.6 7.2-6.3 0-11.5-3.2-11.5-7.2v-.3L0 15l2.7-.9L0 12.8l2.9-1L0 10.2l2.9-.9z"/>
	<g fill="#016350">
		<path d="M61.8 14.3l-3-5.8h-2.1l4.1 8-1.5 3.4h1.8l5.2-11.4h-1.8l-2.7 5.8zm36 5.6h1.8v-9.8h4.8v9.8h1.7V8.5h-8.3v11.4zm51.7-7h-1.6v-1.7h5.2V8.4h-8.4v11.4h4.8c.8 0 4.5.1 4.5-3.5 0-3.4-3.5-3.4-4.5-3.4zm-.3 4.6h-1.4v-2.3h1.4c1 0 1.6.3 1.6 1.2 0 .9-.7 1.1-1.6 1.1zm9.2-9l-4.1 11.4h3.5l.6-1.9h3.9l.7 1.9h3.4l-4.1-11.4h-3.9zm.6 6.9l1.3-4.2 1.4 4.2H159zm15.3-2.8h-3.9V8.4h-3.2v11.5h3.2v-4.6h3.9v4.6h3.1V8.5h-3.1v4.1zm11.3 1.4l4.4-5.5h-3.9l-3.3 4.8V8.5h-3.2v11.4h3.2v-5l3.2 4.9h4l-4.4-5.8zm-71.8-4.9c-.8-.6-1.7-.7-2.5-.7h-2.6v11.4h1.8v-4.5h.8c.8 0 1.9-.2 2.8-.9.6-.5 1.1-1.3 1.1-2.5.1-.8-.2-2-1.4-2.8zm-2.5 4.5h-.8v-3.5h.8c.6 0 2.1.1 2.1 1.7s-1.3 1.8-2.1 1.8zm11-5.3c-3.4 0-5.9 2.5-5.9 5.9 0 3.3 2.5 5.9 5.9 5.9 3.5 0 5.9-2.6 5.9-5.9 0-3.4-2.5-5.9-5.9-5.9zm0 10.2c-2.4 0-4.1-1.8-4.1-4.3s1.7-4.3 4.1-4.3c2.5 0 4.2 1.8 4.2 4.3-.1 2.5-1.8 4.3-4.2 4.3zm14-2l-3.9-8.9-2.4 12.3h1.7L133 13l3.2 7.4 3.4-7.4 1.1 6.9h1.8l-2.2-12.3-4 8.9zM72.7 9.1c-.9-.6-1.8-.7-2.5-.7h-2.5v11.4h1.8v-4.5h.8c.8 0 1.8-.2 2.8-.9.5-.5 1.1-1.3 1.1-2.5-.1-.8-.4-2-1.5-2.8zm-2.6 4.5h-.8v-3.5h.7c.7 0 2.2.1 2.2 1.7.1 1.6-1.3 1.8-2.1 1.8zm3.5 6.3h1.8l1.3-2.7h4.8l1.2 2.7h1.9l-5.4-12-5.6 12zm3.7-4.4l1.8-3.8 1.7 3.8h-3.5zm10.8-.2c0 .9 0 2.2-.6 2.7-.1.2-.7.3-1.1.3-.1 0-.4 0-.5-.1v1.6c.2.1.5.1.8.1.9 0 1.5-.3 1.9-.8 1.1-.8 1.2-2.1 1.2-3.5V10h3.7v9.7h1.8V8.5h-7.2v6.8zm-76.6 3.4v1.2h.1l-.1-1.2c0-.1 0-.1 0 0zM23.1 2.5L6 8.2l5.7 2.9c1-3.4 5.7-5.9 11.4-5.9s10.4 2.5 11.4 5.9l5.7-2.9-17.1-5.7z"/>
		<path d="M23.1 0L0 7.8l2.9 1.5-2.9.9 2.9 1.5-2.9 1 2.7 1.4c-.3.2-2.7.9-2.7.9l11.5 5.8v-1l-8.8-4.4 1.4-.5 7.3 3.7v-1.2L3 13l1.5-.5 7 3.5V14.8L3 10.4l1.5-.4 7 3.6v-1.2L2.9 8l20.2-6.8L43.3 8l-8.6 4.3V21l11.6-6-2.7-.9 2.7-1.4-2.9-1 2.9-1.5-2.9-.9 2.9-1.5L23.1 0zm11.6 16.1l7.1-3.6 1.4.5-8.6 4.3c.1-.4.1-.8.1-1.2zm9-.7l-8.9 4.5v-1.3l7.4-3.7 1.5.5zm-9-.6v-1.3l7.1-3.6 1.4.5-8.5 4.4z"/>
		<path d="M11.5 14.8l.1-1.2h-.1v1.2zm0 2.5l.1-1.2h-.1v1.2z"/>
	</g>
	<g fill="#d7b56d">
		<path d="M23.1 24.5c-6.3 0-11.5-3.2-11.5-7.2v1.3c0 4 5.2 7.2 11.5 7.2 6.4 0 11.6-3.3 11.6-7.2v-1.3c0 4.1-5.2 7.2-11.6 7.2z"/>
		<path d="M23.1 27.1c-6.3 0-11.5-3.3-11.5-7.2v1.4c0 4 5.2 7.2 11.5 7.2 6.4 0 11.6-3.2 11.6-7.2v-1.4c0 3.9-5.2 7.2-11.6 7.2z"/>
		<path d="M34.6 12.2v.2c0 .5 0 1.1-.2 1.6-1.2 3.2-5.8 5.6-11.3 5.6-6.3 0-11.5-3.2-11.5-7.2v1.3c0 4 5.2 7.2 11.5 7.2 6.4 0 11.6-3.2 11.6-7.2l-.1-1.5z"/>
		<path d="M23.1 22c-6.3 0-11.5-3.2-11.5-7.2v1.3c0 4 5.2 7.2 11.5 7.2 6.4 0 11.6-3.2 11.6-7.2v-1.2c0 3.9-5.2 7.1-11.6 7.1z"/>
		<path d="M33.5 12.3c0-1.5-1-2.9-2.6-4v1.5c.8.7 1.4 1.6 1.4 2.5s-.5 1.7-1.4 2.5v1.4c1.6-.9 2.6-2.4 2.6-3.9z"/>
	</g>
</svg>