<svg xmlns="http://www.w3.org/2000/svg" viewBox="0 0 160 33">
	<path fill="#0073ae" d="M145.9 20.4h-5.1l2.5-6.7 2.6 6.7zm-9.4 0H135V24h16.8v-3.6h-1.4l-4.1-9.8-.1-.3-.2-.4-.3-.2-.3-.3-.4-.2-.4-.2-.6-.2h-1.1l-.6.1-.4.1-.4.2-.3.3-.2.3-.2.3-.1.3-4.2 10zm-10.3 0v-7.7h1.9l.3.1.3.1.3.1.2.2.2.2.1.2.1.2.1.3.1.3V18l-.1.3-.1.3-.1.3-.1.2-.1.2-.2.2-.2.1-.2.1-.3.1-.3.1h-1.8c-.1.4-.1.5-.1.5zm-4.3 0h-1.8l-.3-.1-.3-.1-.2-.1-.3-.1-.2-.2-.1-.2-.1-.2-.1-.3-.1-.3-.1-.3v-3.4l.1-.4.1-.3.1-.3.1-.2.1-.1.2-.2.2-.2.3-.1.3-.1.3-.1h1.9v7.7l-.1-.4zm0-15.8V9h-3.8l-.3.1-.3.1-.3.1-.3.1-.3.2-.3.2-.3.2-.3.2-.3.3-.3.3-.2.3-.2.3-.1.3-.1.3-.1.3-.4.7-.1.3-.1.3-.1.3v5l.1.3.1.3.1.5.1.3.1.3.1.3.1.3.2.3.2.3.3.3.3.3.3.3.3.2.3.2.3.2.3.1.3.1.3.1.3.1h3.8v4.4h4.3v-4.4h3.9l.3-.1.3-.1.3-.1.3-.1.3-.2.3-.2.3-.2.3-.3.3-.3.3-.3.2-.3.2-.3.1-.3.1-.3.1-.3.1-.3.1-.3.1-.3.1-.3v-5l-.1-.3-.1-.3-.1-.3-.1-.3-.1-.3-.1-.3-.1-.3-.2-.3-.2-.3-.3-.3-.3-.3-.3-.2-.6-.2-.3-.2-.3-.2-.3-.1-.3-.1h-.3l-.3-.1h-3.8v-5h-4.2c.4 0 .4-.1.4-.1zM102.7 10l-.2-.3-.3-.2-.3-.2-.3-.2-.3-.1-.3-.1h-1l-.3.1-.3.1-.4.1-.3.2-.6.3-.2.3-.2.3-6 13.7h4.5l4-10.2 4 10.2h4.5l-5.9-13.7-.1-.3zm-21 9.4v-1.3l.1-.1h5.1v2.5h-5V20l-.2-.6zM78.2 9.1v3.6h7.9l.1.1.1.1.1.1.1.1v1.1h-6l-.4.1-.4.1-.3.2-.4.3-.4.3-.4.4-.3.4-.1.4-.2.6-.1.6-.1.6v2.5l.1.3.1.3.1.3.1.3.1.3.1.3.2.2.2.2.2.2.3.3.4.2.4.1.4.1.3.1h8.7l.3-.1.3-.1.3-.2.3-.2.2-.3h.5l.1-.3.1-.3v-8.7l-.1-.7-.1-.5-.1-.5-.2-.4-.2-.7-.2-.3-.3-.3-.3-.3-.3-.2-.4-.3-.4-.2-.4-.1-.4-.1h-9.6zM71 19.2l-.1.1-.1.1-.1.1-.1.2-.2.1-.3.2-.2.1-.3.1-.3.1H66v-7.7h3.3l.3.1.3.1.2.1.2.2.2.2.1.2.1.2v4.4l-.1.3-.1.3.5.5zm-5 4.9h4.7l.3-.1.3-.1.3-.1.3-.1.3-.1.3-.2.3-.2.3-.2.3-.3.3-.3.3-.3.2-.3.2-.3.1-.3.1-.3.1-.3.1-.3.1-.3.1-.3v-5l-.1-.3v-.7l-.1-.3-.1-.3.3-1-.2-.3-.2-.3-.2-.5-.3-.3-.3-.3-.3-.2-.2-.2-.3-.2-.3-.1-.3-.1-.3-.1-.2-.1-.3-.1-.6-.2h-7.1l-.2.1-.3.1-.3.1-.2.2-.2.1-.2.2-.2.2-.1.2-.1.3-.4.4v17.3H66v-4.2zm-4.9-15h-4.5l-4.2 9.4-3.9-9.4h-4.6l6.4 14.3-2.4 5.2h4.5c-.1 0 8.7-19.5 8.7-19.5zM40.9 0h113.8c1.4 0 2.8.7 3.8 1.5 1 1 1.5 2.3 1.5 3.8v22.4c0 1.4-.7 2.8-1.5 3.8-1 1-2.3 1.5-3.8 1.5H40.9c-1.4 0-2.8-.7-3.8-1.5-1-1-1.5-2.3-1.5-3.8V5.4c0-1.4.7-2.8 1.5-3.8C38 .7 39.3 0 40.9 0z"/>
	<path fill="#ab0873" d="M13.2 13.1c-1.5 1.1-2.7 2.8-2.7 4.9 0 1.8.9 3.4 2.2 4.6.9.8 1.4.8 1.4-.1v-8.9c0-.5-.4-.7-.9-.5zM19 7.7c-.3-.1-.4-.3-.4-.6v-3c0-.3-.3-.6-.8-.3-1.3.9-2.2 1.5-3.5 2.4-.2.1-.3.3-.3.6v.6c0 .2-.2.4-.4.6-.5.2-1.2.4-1.7.7-3.6 1.8-6.1 5.3-6.1 9.5 0 3.8 2.1 7.5 5.5 9.6.7.4 1.3.6 2-.1 1.8-1.7 3.5-3.3 5.2-5 .2-.2.4-.6.4-1v-7.8c0-.7.4-.6.8-.3 1.6 1.1 2.7 2.9 2.7 4.7 0 1.5-.5 2.9-1.5 4-.3.4-.3.4-.4 1v4.2c0 .7.7.7 1 .4 3.4-1.9 5.7-5.6 5.7-9.7C27 13 23.4 8.9 19 7.7zM4.7 0h23.2c2.6 0 4.7 2.2 4.7 4.7v23.5c0 2.6-2.1 4.7-4.7 4.7H4.7c-2.6.2-4.7-2-4.7-4.5V4.7C0 2.2 2.1 0 4.7 0z"/>
</svg>