<svg viewBox="0 0 189 29" xmlns="http://www.w3.org/2000/svg">
	<path fill="#01A489" d="m46.5762 7.81934-2.9756 1.53027 2.9756.93459-2.9756 1.5293 2.9756 1.0205-2.7207 1.3594 2.7207.9345-11.6446 5.8653v-1.0205l9.0098-4.5069-1.5303-.5097-7.4795 3.7412v-1.2754l8.669-4.335-1.4444-.5098-7.2246 3.5704V14.958l8.669-4.4209-1.4444-.5088-7.2246 3.6543v-1.3594l8.669-4.33394-20.3125-6.79981L2.97461 7.98926l8.66899 4.33694v1.3584l-7.13872-3.6543-1.53027.5097 8.66899 4.419v1.1904l-7.13872-3.5693-1.53027.5097 8.66899 4.334v1.2754L4.16504 14.959l-1.44531.5098 8.92387 4.5039v1.0195L0 15.1279s2.37988-.7636 2.71973-.9345L0 12.834l2.97461-1.0195L0 10.2842l2.97461-.93459L0 7.81934 23.2881 0l23.2881 7.81934Zm-23.2891-5.3545L6.03418 8.24414l5.78032 2.88866c1.0185-3.39842 5.7783-5.94823 11.4726-5.94823 5.6953 0 10.4541 2.54981 11.4746 5.94923l5.7803-2.88868-17.2549-5.78028ZM87.5459 15.8711V8.98535h7.2881V20.5459h-1.7608v-9.9102h-3.7656v5.7647c0 .8945-.0381 1.7744-.3847 2.5312-.085.1866-.1895.3663-.3165.5362-.1279.1709-.2793.333-.457.4834-.4072.3457-1.0596.6972-2.0049.6972-.3105 0-.5869-.0341-.832-.1035v-1.6504l.0283.0078c.1348.0352.3447.0899.543.0899.3916 0 .8652-.1621 1.0928-.3779.2363-.2237.375-.587.456-1.001.1094-.5625.1133-1.2178.1133-1.7422Zm-8.9824-3.6826-1.7608 3.8994h3.4551l-1.6943-3.8994Zm5.4775 8.3574h-1.8896l-1.209-2.8076h-4.8428l-1.2539 2.8076h-1.8906l5.6728-12.22168L84.041 20.5459Zm-14.4785-9.9102h-.749v3.5684h.7656c.7666 0 2.1357-.1826 2.1357-1.8008 0-1.6836-1.5488-1.7676-2.1523-1.7676Zm-2.5088 9.9102V8.98535h2.5098c.75 0 1.6299.05078 2.4951.62793 1.1416.76172 1.4189 1.94822 1.4189 2.80762 0 1.2061-.538 2.0312-1.1103 2.5273-.8955.7764-1.9551.9082-2.7861.9082h-.7657v4.6895h-1.7617Zm64.5653-6.9844-1.191 6.9854h-1.793l2.396-12.41897 3.961 8.95017 4.012-8.95017 2.15 12.41897h-1.792l-1.14-6.9698-3.327 7.501-3.276-7.5166Zm-13.909 1.2207c0 2.542 1.695 4.3428 4.107 4.3428 2.413 0 4.109-1.7998 4.109-4.3428 0-2.5595-1.696-4.3769-4.109-4.3769-2.412 0-4.107 1.8174-4.107 4.3769Zm-1.826 0c0-3.4023 2.528-6.02829 5.933-6.02829 3.409 0 5.936 2.62599 5.936 6.02829 0 3.3692-2.512 5.9971-5.936 5.9971-3.422 0-5.933-2.6279-5.933-5.9971Zm-5.088-4.1465h-.75v3.5684h.765c.768 0 2.137-.1826 2.137-1.8008 0-1.6836-1.549-1.7676-2.152-1.7676Zm-2.511 9.9102V8.98535h2.512c.751 0 1.63.05078 2.495.62793 1.14.76072 1.417 1.94822 1.417 2.80762 0 1.2061-.536 2.0312-1.107 2.5273-.896.7764-1.956.9082-2.79.9082h-.765v4.6895h-1.762Zm73.155 0h-3.197V8.98633h3.196v4.85547l3.439-4.85547h3.751l-4.337 5.59767 4.451 5.9619h-3.995l-3.308-4.9707v4.9707Zm-12.327 0h-3.194V8.98535h3.194v4.16215h3.882V8.98535h3.194V20.5459h-3.194v-4.623h-3.882v4.623Zm-8.801-4.542-1.305-4.2617-1.306 4.2617h2.611Zm-3.882 4.542h-3.426l4.062-11.55957h3.88l4.06 11.55957h-3.424l-.636-1.9971h-3.88l-.636 1.9971Zm-9.928-4.7383v2.4278h1.369c.995 0 1.599-.2989 1.599-1.2237 0-.9082-.589-1.2041-1.599-1.2041h-1.369Zm1.679 4.7383h-4.875V8.98633h8.429v2.77437h-5.233v1.7344h1.69c.885 0 4.472 0 4.472 3.4678 0 3.585-3.582 3.583-4.458 3.583h-.025Zm-50.8841 0V8.98535h8.3801V20.5459h-1.76v-9.9102h-4.8584v9.9102h-1.7617Zm-37.0908-3.4521-4.1084-8.10845h2.1191l2.9844 5.99515 2.623-5.99515h1.8272L60.499 20.5449h-1.8252l1.5323-3.4511Zm-26.4639-4.6856c0-1.5303-1.0195-2.89062-2.6348-3.99511v1.53125c.8496.67966 1.3594 1.61526 1.3594 2.46486 0 .499-.1455.9746-.4111 1.4267-.2315.3926-.5528.7666-.9483 1.1221v1.4453c1.6143-1.0205 2.6348-2.4648 2.6348-3.9951Z"/>
	<path fill="#CCAC70" d="M34.9314 19.9727v1.3586c0 3.995-5.1848 7.2245-11.6439 7.2245-6.3747 0-11.6439-3.2295-11.6439-7.2245v-1.3595c0 3.995 5.2692 7.3089 11.6439 7.3089 6.4591 0 11.6439-3.3148 11.6439-7.308Zm-.2548-5.865c-1.138 3.248-5.8642 5.6093-11.3891 5.6093-6.3747 0-11.6439-3.2296-11.6439-7.3098v1.2769c0 3.995 5.2692 7.2228 11.6439 7.2228 6.4591 0 11.6439-3.2296 11.6439-7.2246v-1.1898c0 .5097-.0773 1.1072-.2548 1.6152ZM23.2875 24.7313c-6.3747 0-11.6439-3.2286-11.6439-7.308v1.2752c0 3.9949 5.2692 7.3088 11.6439 7.3088 6.4591 0 11.6439-3.3156 11.6439-7.3097v-1.2751c0 4.0784-5.1848 7.3088-11.6439 7.3088Zm0-2.5493c-6.3747 0-11.6439-3.2287-11.6439-7.2237v1.2743c0 3.995 5.2692 7.2245 11.6439 7.2245 6.4591 0 11.6439-3.2295 11.6439-7.3106v-1.1899c0 3.9941-5.1848 7.2254-11.6439 7.2254Z"/>
</svg>