<svg xmlns="http://www.w3.org/2000/svg" viewBox="0 0 125 39.2">
	<path fill="#1d1d1b" d="M57.6 21.3c-.8-1.1-2-1.8-3.3-2.1 1.2-.3 2.3-1 3-2s1.1-2.2 1-3.4c0-3.2-2.3-6-6.8-6H39.2v23.5H52c4.5 0 6.8-2.8 6.8-6.3 0-1.3-.4-2.7-1.2-3.7zm-13.4-9.2h6.3c.4 0 .7 0 1 .1s.6.3.9.5.5.5.6.9c.1.3.2.7.2 1 0 .4-.1.7-.2 1s-.3.6-.6.9c-.3.2-.6.4-.9.5s-.7.2-1 .1h-6.3v-5zM50.6 27h-6.4v-5.5h6.4c.4 0 .8 0 1.1.1.4.1.7.3 1 .6.3.3.5.6.7.9.2.4.2.7.2 1.1.1 1.8-1.1 2.8-3 2.8zm23-10.6h-6.1v-4.2h12.1V7.8H62.5v23.5h11.1c5 0 7.8-3.4 7.8-7.5s-2.8-7.4-7.8-7.4zm2.3 8.7c-.2.4-.4.7-.7 1-.3.3-.7.5-1.1.7-.4.1-.8.2-1.2.2h-5.4v-6.1h5.4c.4 0 .8 0 1.2.2.4.1.8.4 1.1.7.3.3.5.6.7 1s.3.8.3 1.2-.1.7-.3 1.1zM95.5 7.8h-11v23.5h5V23h6c5.1 0 7.9-3.5 7.9-7.6s-2.8-7.6-7.9-7.6zm2.5 8.9c-.2.4-.4.8-.8 1.1-.3.3-.7.5-1.1.7-.4.1-.9.2-1.3.1h-5.3v-6.3h5.3c.4 0 .9 0 1.3.1s.8.4 1.1.7c.3.3.6.7.8 1.1s.3.8.3 1.3c0 .4-.1.8-.3 1.2zm19-8.9h-11v23.5h5V23h6c5.1 0 7.9-3.5 7.9-7.6s-2.7-7.6-7.9-7.6zm2.6 8.9c-.2.4-.4.8-.8 1.1-.3.3-.7.5-1.1.7-.4.1-.9.2-1.3.1H111v-6.3h5.3c.4 0 .9 0 1.3.1s.8.4 1.1.7c.3.3.6.7.8 1.1s.3.8.3 1.3c.1.4 0 .8-.2 1.2zM5.6 18.8l7.8-.4.7 12.5-7.8.4-.7-12.5zm8.9 9.3l2-7.6 12.1 3.2-2 7.6-12.1-3.2zm5-9.9l6.8-10.5 6.6 4.3-6.8 10.5-6.6-4.3zM10.3 4.9L16.5 0l7.9 9.7-6.1 4.9c-.1.1-7.9-9.7-8-9.7zM0 12l11.7-4.5 2.8 7.3-11.7 4.5L0 12z"/>
	<path fill="#ffd101" d="M5.9 36.6H125v2.6H5.9v-2.6z"/>
</svg>