<svg viewBox="0 0 161 30" xmlns="http://www.w3.org/2000/svg">
	<path fill="#55565A" d="M50.5022 6.77774c2.0991 0 3.5273.41941 4.4506 1.25924.9233.83982 1.3437 2.01562 1.3437 3.52722 0 .5874-.0835 1.0913-.2514 1.5952-.168.4194-.4194.8398-.6719 1.1758-.2514.3359-.5874.5873-.9233.8398-.3359.2514-.6718.4194-1.0078.5874.4194.0834.8398.3359 1.3437.5873.4195.2515.8399.5874 1.1758 1.0078.2514.336.5039.7554.6719 1.2593.1679.5039.2514 1.1757.2514 1.9311 0 1.0912-.168 1.9311-.5874 2.6029-.3359.5874-.7553 1.0913-1.1757 1.4272-.7554.5039-1.5117.8398-2.3515 1.0078-.8399.168-1.5952.168-2.3515.168h-6.7186c-.2515 0-.4195 0-.4195-.0835-.0834-.0835-.0834-.2515-.0834-.4194v-1.5117c0-.3359.0834-.5039.1679-.5874h1.7632V9.46518h-1.7632c-.1679 0-.1679-.16796-.1679-.58737V7.36612c0-.33593.0834-.50389.1679-.58737H50.5022v-.00101Zm-.5039 7.72636c.2515 0 .6719 0 1.0913-.0834.4194-.0835.7553-.336 1.0913-.7554.2514-.2514.4194-.5039.4194-.8398.0835-.2515.0835-.5874.0835-.9233s0-.6719-.0835-.9233c-.0835-.2515-.2515-.5874-.5039-.7554-.3359-.33589-.6719-.50386-1.0078-.50386-.3359-.08348-.6719-.08348-1.0078-.08348h-1.1757v4.87104h1.0932v-.0031Zm.168 8.2303h.5874c.1679 0 .4194-.0835.5874-.0835.2514-.0834.4194-.1679.6718-.2514.2515-.0835.4194-.2514.5874-.5039.168-.168.3359-.4194.4194-.7553.0835-.336.168-.6719.168-1.0913 0-.5874-.0835-1.0913-.336-1.4272-.2514-.3359-.4194-.5039-.6718-.6719-.2515-.1679-.5874-.3359-1.0078-.4194-.4194-.0835-.7554-.0835-1.0913-.0835h-1.3437v5.2904c.002-.003 1.4292-.003 1.4292-.003Zm11.0857-2.9389c0 1.0078.2514 1.8477.6719 2.5195.4204.6719 1.2592.9233 2.3515.9233.6718 0 1.1757-.0835 1.6796-.2514.4194-.168.8398-.2515 1.0913-.4194.0835 0 .0835-.0835.168-.0835.0844 0 .0834 0 .1679-.0835.2515-.0835.3359-.168.4194-.168.168 0 .2515.0835.336.2515l.6718 1.5951s0 .0835.0835.168v.168c0 .1679-.168.3359-.4194.5874-.5039.3359-1.1758.5873-2.0156.7553-.8398.168-1.5952.3359-2.3515.3359-.9233 0-1.6797-.0835-2.435-.3359-.7553-.2515-1.4272-.6719-1.9311-1.2592-.5039-.5039-.9233-1.1758-1.2592-2.0156-.336-.8398-.5039-1.9311-.5039-3.2748 0-1.1758.1679-2.2671.4194-3.1914.2514-.9233.7553-1.7631 1.3437-2.5195.4194-.5038 1.0078-.9233 1.5952-1.3437.6718-.3359 1.5117-.5873 2.5194-.5873.5039 0 1.0913.0834 1.7632.2514.6718.168 1.2592.5039 1.7631 1.0078.5039.5039 1.0078 1.2592 1.3437 2.1835.336 1.0078.5874 2.2671.5874 3.8632 0 .336 0 .5874-.0835.6719-.0835.0835-.2514.168-.5039.168H61.252v.0834Zm4.2826-2.6039v-.8388c0-.168-.0845-.336-.0845-.5874-.0835-.168-.0835-.4194-.168-.5874-.0834-.2514-.2514-.4194-.4194-.5874-.3359-.3359-.7553-.5039-1.3437-.5039-.2514 0-.5874.0835-.8398.168-.2515.0835-.5039.3359-.7553.5874-.2515.3359-.4195.6718-.5039 1.0078-.0835.4194-.168.8398-.168 1.2592h4.2826v.0825Zm6.0467-2.603H69.9852c-.0835 0-.168-.1679-.168-.3359v-1.7631c0-.0835 0-.168.0835-.2515 0-.0835.1679-.0835.3359-.0835h4.4506c.2514 0 .3359 0 .3359.0835v5.1224h3.9467v-2.6874h-1.3427c-.0835 0-.168-.168-.168-.3359v-2.0156c0-.0835.168-.0835.3359-.0835h5.8788c.2515 0 .3359 0 .3359.0835v2.1825c0 .0835-.1679.0835-.3359.0835h-1.4272v8.4817h1.4272c.2515 0 .3359.0835.3359.168V25.5033c0 .0835-.1679.0835-.3359.0835h-4.702c-.0835 0-.168-.168-.168-.3359V20.044h-3.9466v3.0233h1.0912c.2515 0 .336.0835.336.168v2.266c0 .0835-.168.0835-.336.0835H69.8172c-.0835 0-.168-.168-.168-.3359v-1.7632c0-.0834 0-.1679.0835-.2514 0-.0835.168-.168.3359-.168h1.3438v-8.4817h.1689v.004Zm16.3761 5.2069c0 1.0078.2515 1.8477.6719 2.5195.4194.6719 1.1757.9233 2.3515.9233.6719 0 1.1757-.0835 1.6796-.2514.4194-.168.8399-.2515 1.0913-.4194.0835 0 .0835-.0835.168-.0835 0 0 .0835 0 .1679-.0835.2525-.0835.336-.168.4194-.168.168 0 .2515.0835.336.2515l.6718 1.5951s0 .0835.0835.168v.168c0 .1679-.1679.3359-.4194.5874-.5039.3359-1.1757.5873-2.0156.7553-.8398.168-1.5951.3359-2.3515.3359-.8398 0-1.6796-.0835-2.435-.3359-.7553-.2525-1.4272-.6719-1.9311-1.2592-.5039-.5039-.9233-1.1758-1.2592-2.0156-.3359-.8398-.5039-1.9311-.5039-3.2748 0-1.1758.168-2.2671.4194-3.1914.2525-.9233.7554-1.7631 1.3437-2.5195.4194-.5038 1.0078-.9233 1.5952-1.3437.6719-.3359 1.5117-.5873 2.5195-.5873.5039 0 1.0912.0834 1.7631.2514.6719.168 1.2592.5039 1.7631 1.0078.5039.5039 1.0078 1.2592 1.3438 2.1835.3359 1.0078.5873 2.2671.5873 3.8632 0 .336 0 .5874-.0834.6719-.0835.0835-.2515.168-.5039.168h-7.474v.0834h.001Zm4.2836-2.6039v-.8388c0-.168-.0845-.336-.0845-.5874 0-.168-.0834-.4194-.1679-.5874-.0835-.2514-.2515-.4194-.4194-.5874-.336-.3359-.8399-.5039-1.3437-.5039-.2515 0-.5874.0835-.8399.168-.2514.0835-.5039.3359-.7553.5874-.2515.3359-.4194.6718-.5039 1.0078-.0835.4194-.168.8398-.168 1.2592h4.2826v.0825Zm6.0468-2.603h-1.5952c-.0835 0-.168-.1679-.168-.3359V12.2381c0-.0835.168-.0835.336-.0835h4.4504c.252 0 .336 0 .336.0835v10.6643h3.527v-8.3138h-1.342c-.084 0-.168-.1679-.168-.3359v-1.7631c0-.0835 0-.168.084-.2515 0-.0835.168-.0835.336-.0835h4.115c.251 0 .336 0 .336.0835v10.9167h1.427c.168 0 .251 0 .336.0835.084 0 .084.168.084.3359v5.8788c0 .168 0 .2515-.084.336-.085 0-.168.0834-.336.0834h-2.435c-.168 0-.336 0-.336-.0834 0-.0835-.085-.168-.085-.336v-3.6952H96.5246c-.0834 0-.1679-.168-.1679-.3359v-2.1826c0-.0835.1679-.1679.3359-.1679h1.3437v-8.4818h.2515v-.001Zm15.4522.2515c.251-.5039.503-.9233.755-1.2593.336-.3359.587-.5873.923-.8398.336-.2514.672-.3359 1.091-.5039.42-.168.84-.168 1.344-.168 1.595 0 2.856.5874 3.863 1.8477.588.7553.924 1.5116 1.092 2.3515.168.8398.251 1.6796.251 2.5194 0 .5874 0 1.0913-.084 1.5952-.085.4194-.085.8398-.252 1.2592-.084.4195-.252.7554-.419 1.0078-.168.336-.336.6719-.588.9233-.168.2515-.336.4194-.587.6719-.252.2514-.504.4194-.84.6719-.336.1679-.672.3359-1.091.5039-.42.0834-.923.1679-1.427.1679-.42 0-.924-.0835-1.344-.1679-.504-.0835-.923-.2515-1.344-.5874-.419-.2515-.84-.5874-1.175-1.0078-.336-.4194-.672-.8398-.924-1.5117-.336-.7553-.587-1.5952-.672-2.435-.084-.8398-.168-1.7631-.168-2.6874 0-1.2593.085-2.3515.168-3.3593.085-1.0078.336-1.8476.588-2.6875.419-1.17572 1.008-2.09903 1.763-2.77089.755-.67186 1.595-1.17575 2.435-1.59516l4.535-2.01558c.084 0 .168-.08348.336-.08348s.251.08348.419.25144l.42 1.00779c0 .08348.084.16797.084.25145s-.168.25144-.419.33593l-5.123 2.35151c-.672.33593-1.175.67186-1.595 1.09127-.419.41942-.755.83982-1.008 1.25922-.252.4194-.419.8398-.587 1.3437-.085.4194-.168.8399-.251 1.2593l-.085.8398h-.083v.169h-.001Zm3.695-1.0078c-.42 0-.756.0835-1.176.2514-.419.168-.755.4194-1.008.8398-.336.4195-.504.9233-.755 1.5117-.168.6719-.252 1.4272-.252 2.435 0 .5874 0 1.1758.085 1.7631.084.5874.251 1.1758.504 1.6797.251.5039.587.9233.923 1.2592.42.336.923.5039 1.68.5039.419 0 .84-.0835 1.259-.2514.419-.168.755-.4194 1.091-.8398.336-.4195.588-.9233.756-1.5952.168-.6719.251-1.5117.251-2.5195 0-1.1757-.084-2.0156-.336-2.6874-.252-.6719-.504-1.1758-.84-1.5117-.336-.3359-.755-.5874-1.091-.6719-.503-.1669-.839-.1669-1.091-.1669Zm7.979-1.5117c.336-.168.839-.2515 1.343-.4194.588-.168 1.176-.168 1.763-.168.336 0 .84 0 1.428.0835.587.0835 1.091.2514 1.595.5874.252.2514.504.5039.672.7553.168.2515.336.5039.419.8398.085.2515.168.5874.168.8399 0 .2514.084.5039.084.8398v6.8021c0 .4204.084.8398.252 1.2592h1.259c.168 0 .253 0 .253.0835s.083.1679.083.2514v1.0078c0 .168 0 .2515-.083.2515-.085 0-.168.0834-.253.0834h-2.351c-.253 0-.504-.0834-.588-.3359-.168-.2514-.252-.5039-.336-.8398l-.084-.2515-.084.0835c-.671.6719-1.343 1.0913-1.931 1.3437-.672.2515-1.259.4194-1.847.4194-1.008 0-1.848-.3359-2.52-1.0077-.672-.6719-1.008-1.5952-1.008-2.8554 0-.5874.085-1.1758.252-1.5952.168-.5039.419-.9233.755-1.2592.336-.336.672-.6719 1.092-.8399.419-.2514.839-.4194 1.343-.5873.504-.168 1.008-.2515 1.512-.336.504-.0835 1.091-.0835 1.595-.1679h.587v-1.0048c0-.3359 0-.5874-.083-.8398-.084-.2515-.168-.5874-.336-.8399-.168-.2514-.419-.4194-.672-.5873-.336-.168-.755-.2515-1.259-.2515-.504 0-1.008.0835-1.512.168-.504.0835-1.008.3359-1.511.5039-.085 0-.168.0835-.252.0835-.083 0-.084.0834-.168.0834s-.168-.0834-.252-.1679l-.42-1.0913v-.2514c0-.168.085-.2515.252-.2515.168-.0835.251-.168.336-.168l.507-.2534Zm5.374 6.3827H129.865c-.336 0-.672.0834-1.008.0834-.336 0-.671.0835-1.007.2515-.336.0835-.672.2514-.924.4194-.419.2514-.755.5874-.923.9233-.168.3359-.252.7553-.252 1.2592 0 .4194.084.8399.168 1.0913.084.3359.251.5039.503.7553.168.168.42.336.672.4195.252.0834.504.1679.672.1679.252 0 .587-.0835.923-.1679.336-.0835.588-.2515.84-.4195.253-.1679.504-.3359.672-.5039.168-.1679.42-.3359.504-.5038l.168-.168v-3.6108h-.085v.0031Zm8.734 4.8709h1.511c.168 0 .253 0 .253.0835s.083.168.083.2515v1.0078c0 .1679 0 .2514-.083.2514-.085 0-.168.0835-.253.0835h-5.039c-.083 0-.168 0-.251-.0835-.085 0-.085-.168-.085-.2514v-1.0078c0-.168 0-.2515.085-.2515.083 0 .168-.0835.251-.0835h1.512v-9.7419h-1.512c-.083 0-.168 0-.251-.0835-.085 0-.085-.168-.085-.2515v-1.0077c0-.168 0-.2515.085-.2515.083 0 .168-.0835.251-.0835h3.275c.084 0 .168 0 .252.0835.084 0 .084.168.084.2515v5.2069h5.207v-3.8632H143.3c-.083 0-.168 0-.252-.0835-.084 0-.084-.168-.084-.2514v-1.0078c0-.168 0-.2515.084-.2515s.168-.0835.252-.0835h5.123c.168 0 .252 0 .252.0835s.084.168.084.2515v1.0078c0 .1679 0 .2514-.084.2514s-.168.0835-.252.0835h-1.512v9.8254h1.512c.168 0 .252 0 .252.0835s.084.168.084.2515v1.0077c0 .168 0 .2515-.084.2515s-.168.0835-.252.0835h-3.275c-.084 0-.168 0-.252-.0835-.084 0-.084-.168-.084-.2515v-5.6263h-5.207v4.1991h-.083Zm13.857 1.4272c0 .0835 0 .168-.084.2515 0 .0835-.084.0835-.252.0835h-1.427c-.083 0-.168 0-.251-.0835-.085 0-.085-.168-.085-.2515V13.8323h-1.511c-.084 0-.168 0-.252-.0835-.084 0-.084-.168-.084-.2515v-1.0077c0-.168 0-.2515.084-.2515s.168-.0835.252-.0835h3.274c.168 0 .252 0 .252.0835s.084.168.084.2515v5.1224h1.26c.503 0 .839-.0835 1.091-.3359.252-.2515.419-.5874.587-1.0913l.336-1.4272c.085-.3359.168-.6719.336-1.0078.084-.3359.336-.6719.504-.9233.251-.2514.504-.5039.923-.7553.336-.168.84-.2515 1.427-.2515.084 0 .168 0 .168.0835.085 0 .085.0835.168.168l.336 1.2592c0 .168 0 .2514-.084.2514s-.168.0835-.253.0835l-.336.0835c-.168 0-.251.0835-.336.0835-.084 0-.252.0835-.335.1679-.085.0835-.168.2515-.336.4194-.084.168-.168.4195-.252.8399l-.252 1.0912c-.084.168-.168.4195-.168.5874-.084.2515-.168.4194-.336.5874-.168.168-.336.4194-.504.5874-.253.1679-.504.3359-.755.4194.336.0835.587.1679.755.3359.168.168.336.2515.504.4194.168.168.251.3359.336.5039.084.168.168.3359.168.4194l.84 2.603c.083.4194.251.6718.419.7553.168.0835.419.2515.755.2515l.336.0834c.168 0 .252 0 .252.0835.084 0 .084.168 0 .336l-.336 1.2592c0 .0835-.084.1679-.168.1679h-.253c-.587 0-1.007-.0834-1.427-.1679-.336-.0835-.672-.2515-.923-.5039-.253-.2515-.42-.5039-.588-.9233-.168-.4194-.335-.8398-.503-1.4272l-.588-1.9311c-.168-.6719-.419-1.0078-.672-1.1758-.252-.1679-.587-.2514-1.007-.2514h-1.344v5.6263h.255v.005Z"/>
	<path fill="url(#a)" d="M23.2335 23.9375s1.0058 2.7156 1.911 2.8162H13.4774c-2.3133 0-4.42539-1.3075-5.12944-3.8219L1.50867 2.81618S.905201.402311 0 0h11.8682c2.3133.100578 3.9225.905201 4.8277 4.02311l6.5376 19.91439Z"/>
	<path fill="#EF5145" d="M15.7906 23.9375s-1.0058 2.7156-1.911 2.8162h11.6671c2.3133 0 4.4254-1.3075 5.1294-3.8219l6.7388-20.11562S38.0183.402311 38.9235 0H27.0553c-2.3133 0-3.8219.804623-4.8277 3.92254l-6.437 20.01496Z"/>
    <linearGradient id="a" x1="12.5722" y1="-2.3837" x2="12.5722" y2="29.1191" gradientUnits="userSpaceOnUse">
		<stop stop-color="#F2746A"/>
		<stop offset=".33" stop-color="#F2746A"/>
		<stop offset=".76" stop-color="#C74A40"/>
		<stop offset="1" stop-color="#C2453B"/>
    </linearGradient>
</svg>