<svg xmlns="http://www.w3.org/2000/svg" viewBox="0 0 160 29.8">
	<path fill="#55565a" d="M113 14.9c.3-.5.5-.9.8-1.3.3-.3.6-.6.9-.8.3-.2.5-.3.8-.4.1 0 .2-.1.3-.1.4-.2.8-.2 1.3-.2 1.6 0 2.8.6 3.8 1.8.6.8.9 1.5 1.1 2.3s.3 1.7.3 2.5c0 .6 0 1.1-.1 1.6 0 .1 0 .3-.1.4 0 .3-.1.6-.2.8-.1.4-.3.8-.4 1-.2.3-.3.7-.6.9-.2.3-.3.4-.6.7-.2.2-.4.3-.6.5-.1 0-.1.1-.2.1-.3.2-.7.3-1.1.5-.4.1-.9.2-1.4.2-.4 0-.9-.1-1.3-.2-.5-.1-.9-.3-1.3-.6s-.8-.6-1.2-1c-.3-.4-.7-.8-.9-1.5-.3-.8-.6-1.6-.7-2.4-.1-.8-.2-1.8-.2-2.7 0-1.3.1-2.3.2-3.3s.3-1.8.6-2.7c.4-1.2 1-2.1 1.8-2.8.8-.7 1.6-1.2 2.4-1.6l4.5-2h.1c.1 0 .1-.1.2-.1.2 0 .3.1.4.3l.4 1V6c0 .1-.2.3-.4.3l-5.1 2.3c-.7.3-1.2.7-1.6 1.1-.4.4-.8.8-1 1.3-.3.4-.4.8-.6 1.3l-.3 1.3-.1.8h.1v.5zm3.7-1.1c-.4 0-.8.1-1.2.3-.4.2-.8.4-1 .8-.3.3-.4.7-.6 1.2 0 .1-.1.2-.1.3-.2.7-.3 1.4-.3 2.4 0 .6 0 1.2.1 1.8.1.6.3 1.2.5 1.7.3.5.6.9.9 1.3.4.3.9.5 1.7.5.4 0 .8-.1 1.3-.3.4-.2.8-.4 1.1-.8.3-.4.6-.9.8-1.6.2-.7.3-1.5.3-2.5 0-1.2-.1-2-.3-2.7-.3-.7-.5-1.2-.8-1.5-.3-.3-.8-.6-1.1-.7-.7-.2-1-.2-1.3-.2zm-66.5-7c2.1 0 3.5.4 4.4 1.3.9.8 1.3 2 1.3 3.5 0 .6-.1 1.1-.3 1.6-.2.4-.4.8-.7 1.2-.3.3-.6.6-.9.8s-.7.4-1 .6c.3.1.7.2 1 .4.1 0 .2.1.3.2.4.3.8.6 1.2 1 .3.3.5.8.7 1.3.2.5.3 1.2.3 1.9 0 1.1-.2 1.9-.6 2.6-.3.6-.8 1.1-1.2 1.4-.8.5-1.5.8-2.3 1-.8.2-1.6.2-2.3.2h-6.7c-.3 0-.4 0-.4-.1v-2c0-.3.1-.5.2-.6H45V9.5h-1.8c-.2 0-.2-.2-.2-.6V7.4c0-.3.1-.5.2-.6h7zm-.5 7.8c.3 0 .7-.1 1.1-.2.4-.1.8-.3 1.1-.8.3-.3.4-.5.4-.8.1-.3.1-.6.1-.9 0-.3 0-.7-.1-.9-.1-.3-.3-.6-.5-.8-.3-.3-.7-.5-1-.5-.3-.1-.7-.1-1-.1h-1.2v4.8l1.1.2c0-.1 0 0 0 0zm.2 8.1h1.2c.1 0 .2-.1.3-.1s.2-.1.3-.1c.3-.1.4-.3.6-.5.2-.2.3-.4.4-.8.1-.3.2-.7.2-1.1 0-.6-.1-1.1-.3-1.4-.3-.3-.4-.5-.7-.7-.3-.2-.6-.3-1-.4s-.8-.1-1.1-.1h-1.3v5.3h1.4zm11-2.9c0 1 .3 1.8.7 2.5.4.7 1.3.9 2.3.9.7 0 1.2-.1 1.7-.3.2-.1.3-.1.5-.2s.5-.2.6-.3h.2c.1 0 .1 0 .2-.1.1 0 .2-.1.3-.1s.1-.1.1-.1c.2 0 .3.1.3.3l.7 1.6s0 .1.1.2v.2c0 .2-.2.3-.4.6-.5.3-1.2.6-2 .8H66c-.7.2-1.4.3-2.1.3-.9 0-1.7-.1-2.4-.3-.8-.3-1.4-.7-1.9-1.3-.5-.5-.9-1.2-1.3-2-.3-.8-.5-1.9-.5-3.3 0-1.2.2-2.3.4-3.2.3-.9.8-1.8 1.3-2.5.4-.5 1-.9 1.6-1.3.7-.3 1.5-.6 2.5-.6.5 0 1.1.1 1.8.3.7.2 1.3.5 1.8 1s1 1.3 1.3 2.2c.3 1 .6 2.3.6 3.8 0 .3 0 .6-.1.7-.1.1-.3.2-.5.2h-7.6zm4.3-2.7v-.8-.2-.4c0-.1-.1-.2-.1-.3 0-.1 0-.2-.1-.3-.1-.3-.3-.4-.4-.6-.3-.3-.8-.5-1.3-.5-.3 0-.6.1-.8.2-.3.1-.5.3-.8.6-.3.3-.4.7-.5 1-.1.4-.2.8-.2 1.3h4.2zm4.6-2.5H71V23h-1.3c-.2 0-.3.1-.3.2-.1.1-.1.2-.1.3v1.8c0 .2.1.3.2.3h6.1c.2 0 .3 0 .3-.1v-2.3c0-.1-.1-.2-.3-.2h-1.1v-3h3.9v5.2c0 .2.1.3.2.3h4.7c.2 0 .3 0 .3-.1v-2.3c0-.1-.1-.2-.3-.2h-1.4v-8.4h1.4c.2 0 .3 0 .3-.1v-2.2c0-.1-.1-.1-.3-.1h-5.8c-.2 0-.3 0-.3.1v2c0 .2.1.3.2.3h1.3v2.7h-3.9v-5.1c0-.1-.1-.1-.3-.1h-4.4c-.2 0-.3 0-.3.1-.1.1-.1.2-.1.3v1.8c0 .2.1.3.2.3h-.1zm17.6 5.2c0 1 .3 1.8.7 2.5.4.7 1.2.9 2.3.9.7 0 1.2-.1 1.7-.3.2-.1.3-.1.5-.2s.5-.2.6-.3h.2s.1 0 .2-.1c.1 0 .2-.1.3-.1.1 0 .1-.1.1-.1.2 0 .3.1.3.3L95 24s0 .1.1.2v.2c0 .2-.2.3-.4.6-.5.3-1.2.6-2 .8h-.2c-.9.1-1.5.2-2.2.2-.8 0-1.7-.1-2.4-.3s-1.4-.7-1.9-1.3c-.5-.5-.9-1.2-1.3-2-.3-.8-.5-1.9-.5-3.3 0-1.2.2-2.3.4-3.2.3-.9.8-1.8 1.3-2.5.4-.5 1-.9 1.6-1.3.7-.3 1.5-.6 2.5-.6.5 0 1.1.1 1.8.3.7.2 1.3.5 1.8 1s1 1.3 1.3 2.2c.3 1 .6 2.3.6 3.8 0 .3 0 .6-.1.7-.1.1-.3.2-.5.2l-7.5.1c0-.1 0 0 0 0zm4.3-2.7v-.8-.2-.4c0-.2-.1-.4-.2-.6-.1-.3-.3-.4-.4-.6-.3-.3-.8-.5-1.3-.5-.3 0-.6.1-.8.2-.3.1-.5.3-.8.6-.3.3-.4.7-.5 1-.1.4-.2.8-.2 1.3h4.2zm4.7-2.5h1.1V23h-1.3c-.2 0-.3.1-.3.2v2.2c0 .2.1.3.2.3h10.5v3.7c0 .1 0 .2.1.2v.1c0 .1.2.1.3.1h2.4c.1 0 .2 0 .2-.1h.1c.1-.1.1-.2.1-.3v-5.8c0-.2 0-.3-.1-.3-.1-.1-.2-.1-.3-.1H108V12.3c0-.1-.1-.1-.3-.1h-4.1c-.2 0-.3 0-.3.1-.1.1-.1.2-.1.3v1.8c0 .2.1.3.2.3h1.3V23H101V12.3c0-.1-.1-.1-.3-.1h-4.4c-.2 0-.3 0-.3.1v2c0 .2.1.3.2.3h.2zm29-2.5c-.3.1-.6.1-.8.2l-.5.3c-.1 0-.1 0-.2.1 0 0-.1.1-.2.1-.2 0-.3.1-.3.3v.3l.4 1.1c.1.1.2.2.3.2h.4c.2-.1.3-.1.5-.2.3-.1.7-.3 1-.3.5-.1 1-.2 1.5-.2s.9.1 1.3.3c.3.2.5.3.7.6.1.2.2.5.3.7v.2c.1.3.1.5.1.8v1h-.6c-.3 0-.5.1-.8.1-.3 0-.5 0-.8.1l-1.5.3c-.5.2-.9.3-1.3.6-.4.2-.8.5-1.1.8-.3.3-.6.8-.8 1.3-.2.4-.3 1-.3 1.6 0 1.3.3 2.2 1 2.8.7.7 1.5 1 2.5 1 .6 0 1.2-.2 1.8-.4.6-.3 1.3-.7 1.9-1.3l.1-.1.1.3c.1.3.2.6.3.8.1.3.3.3.6.3h2.5c.1 0 .1-.1.1-.3v-1-.1-.1c0-.1-.1-.1-.3-.1H132c-.2-.4-.3-.8-.3-1.3v-6.8-.5-.4c0-.3-.1-.6-.2-.8-.1-.3-.3-.6-.4-.8s-.4-.5-.7-.8c-.5-.3-1-.5-1.6-.6-.6-.1-1.1-.1-1.4-.1-.6 0-1.2 0-1.8.2.2-.3 0-.3-.2-.2zm4.5 6.6h.2v3.6l-.2.2-.3.3-.2.2c-.2.2-.4.3-.7.5-.3.2-.5.3-.8.4-.3.1-.7.2-.9.2-.2 0-.4-.1-.7-.2-.3-.1-.5-.3-.7-.4-.3-.3-.4-.4-.5-.8-.1-.3-.2-.7-.2-1.1 0-.5.1-.9.3-1.3.2-.3.5-.7.9-.9.3-.2.6-.3.9-.4.3-.2.7-.3 1-.3h1.9zm8.8 4.8h1.4c.2 0 .3 0 .3.1v1.2c0 .2 0 .3-.1.3h-.1-5.1c-.1 0-.2 0-.3-.1-.1 0-.1-.2-.1-.3v-1c0-.2 0-.3.1-.3h1.7v-9.7H135c-.1 0-.2 0-.3-.1-.1 0-.1-.2-.1-.3v-1c0-.2 0-.3.1-.3h3.5c.1 0 .2 0 .3.1.1 0 .1.2.1.3v5.2h5.2v-3.8h-1.5c-.1 0-.2 0-.3-.1-.1 0-.1-.2-.1-.3v-1c0-.2 0-.3.1-.3h5.3c.2 0 .3 0 .3.1v1.2c0 .2 0 .3-.1.3h-.1H146v9.8h1.5c.2 0 .3 0 .3.1v1.2c0 .2 0 .3-.1.3h-.1-3.4c-.1 0-.2 0-.3-.1-.1 0-.1-.2-.1-.3v-5.6h-5.2l.1 4.4zm13.6 1.7c.1-.1.1-.2.1-.3h-.3v-5.6h1.3c.4 0 .8.1 1 .3.3.2.5.5.7 1.2l.6 1.9c.2.6.3 1 .5 1.4.2.4.3.7.6.9.3.3.6.4.9.5.4.1.8.2 1.4.2h.3c.1 0 .2-.1.2-.2l.3-1.3c.1-.2.1-.3 0-.3 0-.1-.1-.1-.3-.1l-.3-.1c-.3 0-.5-.1-.7-.2h-.1c-.2-.1-.3-.3-.4-.8l-.8-2.6c0-.1-.1-.3-.2-.4-.1-.2-.2-.3-.3-.5-.1-.1-.2-.1-.3-.2-.1-.1-.2-.1-.3-.2-.2-.2-.4-.3-.8-.3.3-.1.5-.3.8-.4l.3-.3.3-.3c.2-.2.3-.3.3-.6 0-.2.1-.4.2-.6l.3-1.1c.1-.4.2-.7.3-.8.1-.1.2-.2.2-.3 0-.1.1-.1.1-.1.1-.1.3-.2.3-.2h.1c.1 0 .1-.1.2-.1l.3-.1h.2c.1 0 .1-.1.1-.3l-.3-1.3-.1-.1s0-.1-.1-.1c0-.1-.1-.1-.2-.1-.6 0-1.1.1-1.4.3-.4.3-.7.5-.9.8 0 0 0 .1-.1.1-.2.2-.4.5-.4.8-.2.3-.3.7-.3 1l-.3 1.4c-.2.5-.3.8-.6 1.1-.3.3-.6.3-1.1.3h-1.3v-5.1-.1-.1c0-.1-.1-.1-.3-.1h-3.3-.1-.1c-.1 0-.1.1-.1.3v1c0 .1 0 .3.1.3.1.1.2.1.3.1h1.5v11.1c0 .1 0 .3.1.3.1.1.2.1.3.1h1.4c.2 0 .2 0 .2-.1z"/>
	<path fill="url(#gr1)" d="M23 23.9s1 2.7 1.9 2.8H13.3c-2.3 0-4.4-1.3-5.1-3.8l-6.8-20S.8.5-.1.1h11.8c2.3.1 3.9.9 4.8 4L23 23.9z"/>
	<linearGradient id="gr1" gradientUnits="userSpaceOnUse" x1="12.4729" y1="34.27" x2="12.4729" y2="2.9482" gradientTransform="matrix(1 0 0 -1 0 32)">
		<stop offset="0" stop-color="#f2746a"/>
		<stop offset=".33" stop-color="#f2746a"/>
		<stop offset=".76" stop-color="#c74a40"/>
		<stop offset="1" stop-color="#c2453b"/>
	</linearGradient>
	<path fill="#ef5145" d="M15.6 23.9s-1 2.7-1.9 2.8h11.6c2.3 0 4.4-1.3 5.1-3.8l6.7-20S37.7.5 38.6.1H26.8C24.5.1 23 .9 22 4l-6.4 19.9z"/>
</svg>