<svg xmlns="http://www.w3.org/2000/svg" viewBox="0 0 126 44">
	<path fill="#000" d="M65.2765 40.9531V29.935c1.397 1.6681 3.9182 3.4523 7.4486 3.4523 5.78 0 9.8533-4.3835 9.8533-10.4736 0-6.0907-4.0733-10.4742-9.8533-10.4742-3.6855 0-6.2458 1.9393-7.6422 3.6465l-.9312-3.2588h-3.3363v28.1259h4.4611Zm6.3624-11.561c-3.7631 0-6.3624-2.6763-6.3624-6.4779 0-3.8021 2.5993-6.479 6.3624-6.479 3.724 0 6.2843 2.6769 6.2843 6.479 0 3.8016-2.5603 6.4785-6.2843 6.4785v-.0006ZM94.6866 12.44c-3.9176 0-7.3705 2.0174-8.3792 5.5083l4.1123.6985c.6204-1.2414 2.0169-2.4052 4.0343-2.4052 2.4442 0 3.8791 1.7457 4.0733 4.3835h-4.345c-5.9351 0-8.8836 2.5993-8.8836 6.3234 0 3.7631 2.9095 6.4394 7.0218 6.4394 3.2973 0 5.5088-1.9008 6.4785-3.569l.9311 3.1812h3.2969V21.6723c0-5.8575-3.1808-9.2323-8.3404-9.2323Zm-1.3189 17.1853c-2.1725 0-3.5689-1.1253-3.5689-2.871 0-1.5515 1.1253-2.6378 4.5391-2.6378h4.2284c0 3.2973-2.0949 5.5088-5.1986 5.5088Zm22.9353-2.25h-.621l-5.935-14.5475h-4.772l8.962 21.2586-.233.6204c-.582 1.6296-1.28 2.1725-2.754 2.1725h-3.763l.388 4.0733h3.064c3.724 0 5.742-1.6682 7.1-5.4307l8.262-22.6941h-4.538l-5.16 14.5475Z"/>
	<path fill="#07F" d="M0 21.12C0 11.1639 0 6.18585 3.0932 3.0932 6.18585 0 11.1639 0 21.12 0h1.76c9.9561 0 14.9342 0 18.0268 3.0932C44 6.18585 44 11.1639 44 21.12v1.76c0 9.9561 0 14.9342-3.0932 18.0268C37.8142 44 32.8361 44 22.88 44h-1.76c-9.9561 0-14.93415 0-18.0268-3.0932C0 37.8142 0 32.8361 0 22.88v-1.76Z"/>
	<path fill="#fff" d="M23.4117 31.6988c-10.0287 0-15.7482-6.875-15.9869-18.315h5.0232c.165 8.3968 3.8687 11.9542 6.8018 12.6868V13.3843h4.73v7.2413c2.8969-.3118 5.94-3.6118 6.9663-7.2413h4.73c-.7881 4.4732-4.0881 7.7732-6.435 9.13 2.3469 1.1 6.105 3.9782 7.535 9.185h-5.2063c-1.1181-3.4837-3.905-6.1787-7.59-6.545v6.545h-.5681v-.0005Z"/>
</svg>