<svg xmlns="http://www.w3.org/2000/svg" viewBox="0 0 190 31.3">
	<path fill="#9d235a" d="M.7 8.6v.5c0 .1.1.2.1.3.1.3.3.6.5.8v.1s.1.1.1.2.1.1.1.2c0 0 .1.1.1.2L5 7.5V.1l-2.8 3-.3.3C1 4.3.6 6.1.5 7.4v1.1c.1 0 .1 0 .2.1 0-.1 0 0 0 0zm22.1-.5v.1l-.1.1V9.3s0 .1-.1.1c0 0 0 .1-.1.1v.1c-.2.3-.4.7-.6.9l-.3.3c-1-.8-2.2-1.2-3.4-1.2-1.4 0-2.8.6-3.8 1.6l-4.9 4.9V8.7l5-5.1c1-.9 2.2-1.5 3.5-1.5 1.3 0 2.5.5 3.4 1.4 1.1 1.1 1.5 3 1.4 4.4v.2zM1.5 11.3C.8 10.6.2 9.7 0 8.7v6.1c-.1 1.5.5 3 1.5 4l7.1 7.1v-2.2l2.6-2.6-5-5c-2.4-2.4-4.7-4.8-4.7-4.8zm21.8-2.5c-.2.9-.7 1.8-1.4 2.5L9.3 23.9v7.4l12.5-12.5c1.1-1.1 1.7-2.7 1.5-4.2V8.8zm17.1 1.8c0-1.7-1.2-2.9-3.7-2.9h-5.2v11.4h5.9c2.1 0 3.6-1.3 3.6-3.4 0-1.5-.8-2.5-2.1-2.8.8-.2 1.5-1.1 1.5-2.3zm-4.3 1.9h-2.7V9.4h2.8c1.1 0 2.2.2 2.2 1.6 0 1.1-.8 1.5-2.3 1.5zm.3 5.1h-3V14h3c1.3 0 2.5.2 2.5 1.8 0 1.5-1.1 1.8-2.5 1.8zm13.3 1.6V9.5h-3.5l-.2 5.4c-.1 3.2-1.4 4.5-3.1 4.5-.4 0-.9-.1-1.2-.2v-1.5c.2.1.6.1.8.1.8 0 1.5-.5 1.5-3.4l.2-6.6h7.5v11.4h-2zm12.2 0H64L59.6 7.8h-2.1L53 19.2h2.1l1.1-3h4.6c0-.1 1.1 3 1.1 3zm-5.2-4.6l1.8-4.8 1.7 4.8h-3.5zM74.3 22v-2.8h-7.4V22h-2v-4.6H66c.9-1.5 1.5-4.8 1.5-8V7.7H75v9.7h1.3V22h-2zM73 9.5h-3.5v.7c0 2.8-.6 5.9-1.3 7.3H73v-8zm5 9.7h5.4c2.5 0 3.9-1.3 3.9-3.5 0-2.3-1.4-3.5-3.9-3.5H80V9.5h6.4V7.8H78v11.4zm2-5.4h3.3c1.3 0 2 .7 2 1.9s-.7 1.9-2 1.9H80v-3.8zm9.3-6h2v8.8l4.9-8.8h2.3v11.4h-2v-8.8l-4.9 8.8h-2.3V7.8zm11.2 7.6c0 2.8 2.1 4 4.8 4 3.2 0 4.4-2.1 4.4-3.6s-.9-2.6-2.2-2.8c.9-.2 1.8-1.3 1.8-2.5 0-2.1-1.9-3.1-4.1-3.1-2.3 0-4.2 1-4.3 3.6h1.9c.1-1.4 1.1-2 2.5-2 1.3 0 2 .6 2 1.6 0 1.1-.8 1.8-1.8 1.8h-1.4V14h1.4c1.3 0 2.1.6 2.1 1.8 0 1.3-.8 2-2.3 2-1.6 0-3-.7-3-2.5.2.1-1.8.1-1.8.1zm20.7 3.8h-2v-5.1H114v5.1h-2V7.8h2v4.6h5.2V7.8h2v11.4zm4.6-9.7h6.3V7.8h-8.2v11.4h8.3v-1.7h-6.3v-3.4h5.8v-1.6h-5.8l-.1-3zm13.3 10c-3.2 0-5.3-2.4-5.3-6 0-3.2 2-6 5.5-6 2.3 0 4.4 1.3 4.8 3.9h-2c-.3-1.4-1.3-2.2-2.8-2.2-2.4 0-3.4 2.2-3.4 4.3 0 2.1.9 4.3 3.4 4.3 1.9 0 2.7-1.2 2.9-2.9h2c-.3 2.7-2.2 4.6-5.1 4.6zm16.3-11.1v-.6h-7.9v11.4h4.9c1.3 0 3.7-.6 3.7-3.2 0-2-1.3-3.2-3.6-3.2h-4.2V8.4h7.1zm-7.2 10.2v-5.1h4.4c2.1 0 2.9 1.4 2.9 2.6 0 1.3-.8 2.6-3.2 2.6h-4.1v-.1zm18.5.6h-.8l-1.4-3.7H159l-1.5 3.7h-.8l4.6-11.4h.8l4.6 11.4zM162 9c-.1-.2-.1-.4-.2-.6-.1.2-.1.4-.2.6s-.1.4-.2.6l-2.1 5.3h5.1l-2.1-5.3c-.2-.2-.3-.4-.3-.6zm14.5 10.2h.7V7.8h-.7v5.1h-7.3V7.8h-.7v11.4h.7v-5.7h7.3v5.7zm7.2-6.7l5.6 6.7h-.9l-5.2-6.2-2.4 2.2v4h-.7V7.8h.7v6.6l7.2-6.6h.9c.1 0-5.2 4.7-5.2 4.7zm6.3 8.6H78v-.3h111.7l.3.3z"/>
</svg>