<svg xmlns="http://www.w3.org/2000/svg" viewBox="0 0 170 23">
	<path fill="#688fae" d="M73.9 15.8c-.1-.3-.2-.3-.5-.2-.6.2-1.4.5-2.2.5-1.7 0-2.2-1.2-2.2-2.8 0-1.6.6-2.9 2.1-2.9.6 0 1.3.1 1.9.4.4.1.5.1.6-.2l.5-1.6c.1-.3.1-.4-.2-.6-.9-.5-2-.7-3.1-.7-3 0-4.9 2.1-4.9 5.5 0 3.6 1.6 5.4 4.7 5.4 1.1 0 2.5-.2 3.6-.8.3-.2.3-.3.1-.6.1 0-.4-1.4-.4-1.4zM95.9 18.4H98c.4 0 .4-.1.4-.4V5.8c0-.9-.3-1.3-1.3-1.3h-8.7c-.9 0-1.3.4-1.3 1.3V18c0 .3.1.4.4.4h2.1c.4 0 .4-.1.4-.4V7.1h5.3V18c.2.3.3.4.6.4zM110.3 9.2V18c0 .3-.1.4-.5.4h-2c-.4 0-.5-.1-.5-.4v-7.7h-2.4l-.1 1c-.3 4.6-.6 6.5-3.7 7.5-.4.1-.5 0-.6-.2l-.5-1.3c-.1-.3-.1-.4.2-.6 1.4-.6 1.7-1.3 1.9-5.3l.1-2.2c.1-.9.4-1.2 1.2-1.2h5.5c1.2 0 1.4.3 1.4 1.2zM129 18c0 .3-.1.4-.5.4h-1.9c-.3 0-.5-.1-.5-.4v-7.7h-2.8c-.3 0-.4-.1-.4-.4V8.4c0-.4.1-.5.4-.5h8.4c.3 0 .4.1.4.5v1.4c0 .3-.1.4-.4.4H129V18zM148.8 13.9c-.8 0-1.4.3-1.6 1.2l-.9 3.1c-.1.2-.2.2-.3.2h-2.3c-.3 0-.3-.2-.3-.3l1-3.4c.3-.9.5-1.5 1.7-1.8-.8-.3-1.2-1-1.4-1.8l-.7-2.6c0-.1 0-.3.2-.3h2.2c.1 0 .3 0 .3.3l.7 2.2c.4 1.1.9 1.4 1.6 1.4h.6V8.3c0-.3.1-.3.4-.3h2.1c.2 0 .4 0 .4.3v3.5h.6c.7 0 1.3-.3 1.6-1.4l.7-2.2c.1-.2.2-.3.3-.3h2.2c.3 0 .3.2.2.3l-.7 2.6c-.2.8-.6 1.5-1.4 1.8 1.1.3 1.4 1 1.7 1.8l1 3.4c0 .1 0 .3-.3.3h-2.3c-.1 0-.3 0-.3-.2l-.9-3.1c-.3-.9-.9-1.2-1.7-1.2h-.8v4.2c0 .3-.1.3-.4.3h-2.1c-.3 0-.4 0-.4-.3v-4.2l-.7.3zM162.8 8h-2.1c-.2 0-.4.1-.4.3v9c0 .7.2 1.1 1.1 1.1h.9c.6 0 .8-.1 1.2-.7.4-.6.7-1.2 1.1-1.7.2-.4.5-.8.7-1.1.3-.4.5-.9.8-1.3.3-.5.6-1 .9-1.4h.1v6c0 .3.1.3.4.3h2.1c.3 0 .4-.1.4-.3v-9c0-.9-.4-1.1-1.1-1.1h-1c-.7 0-.8.1-1.2.7-.9 1.4-1.5 2.4-2 3.2l-.3.6c-.2.4-.5.9-1.2 2h-.1V8.3c.1-.3 0-.3-.3-.3z"/>
	<path opacity=".5" fill="#688fae" d="M23.2 0C17 0 12 5 12 11.1c0 6.2 5 11.2 11.1 11.2 6.2 0 11.2-5 11.2-11.2C34.4 5 29.4 0 23.2 0zm0 21.6c-5.7 0-10.4-4.7-10.4-10.4S17.5.8 23.2.8s10.4 4.7 10.4 10.4S29 21.6 23.2 21.6z"/>
	<path fill="#688fae" d="M37.2 0C31 0 26 5 26 11.1c0 6.2 5 11.2 11.1 11.2 6.2 0 11.2-5 11.2-11.2C48.3 5 43.3 0 37.2 0zm0 21.6c-5.7 0-10.4-4.7-10.4-10.4S31.5.8 37.2.8s10.4 4.7 10.4 10.4-4.7 10.4-10.4 10.4zM61.9 10.8v-.1c.9-.5 1.5-1.5 1.5-2.7 0-2.5-1.8-3.5-4.2-3.5h-4.8c-.9 0-1.2.4-1.2 1.2v11.5c0 .9.2 1.2 1.2 1.2h4.9c2.6 0 4.7-1.7 4.7-4.2 0-1.4-.6-2.8-2.1-3.4zm-5.7-3.7H59c.8 0 1.4.5 1.4 1.3 0 1.1-.8 1.4-1.5 1.4h-2.7V7.1zm2.8 8.6h-2.8v-3.6H59c1.2 0 1.9.7 1.9 1.8 0 .8-.4 1.8-1.9 1.8zM85.3 12.2c0-2.9-1.5-4.5-4.6-4.5-2.9 0-4.8 2-4.8 5.5 0 3.7 1.6 5.4 5 5.4 1.1 0 2.5-.3 3.5-.9.2-.1.3-.2.2-.5l-.6-1.4c-.1-.2-.2-.2-.5-.1-.7.3-1.5.5-2.2.5-1.3 0-2.3-.5-2.3-2.2h5c.8 0 1.3-.4 1.3-1.8zm-6.4 0c.1-1.2.8-2 1.9-2 1.4 0 1.8.9 1.8 2h-3.7zM117.4 7.7c-1.3 0-2.6.2-3.8.6-.2.1-.3.2-.2.5l.3 1.4c.1.3.2.3.5.3.7-.2 2-.4 2.8-.4 1.5 0 1.7.7 1.7 1.4v.3h-2.1c-2.8 0-4.1 1.5-4.1 3.6 0 1.8 1 3.3 4.6 3.3 1.3 0 2.9-.2 4.1-.7.4-.2.4-.4.4-.8v-5.8c-.1-2.4-1.4-3.7-4.2-3.7zm1.3 8.4c-.5.2-1.3.3-1.6.3-1 0-1.7-.3-1.7-1.2 0-1.3 1.1-1.4 1.8-1.4h1.5v2.3zM142.2 12.2c0-2.9-1.5-4.5-4.6-4.5-3 0-4.8 2-4.8 5.5 0 3.7 1.6 5.4 5 5.4 1.1 0 2.5-.3 3.5-.9.2-.1.3-.2.2-.5l-.6-1.4c-.1-.2-.2-.2-.5-.1-.7.3-1.5.5-2.2.5-1.3 0-2.3-.5-2.3-2.2h5c.7 0 1.3-.4 1.3-1.8zm-6.4 0c.1-1.2.8-2 1.9-2 1.4 0 1.8.9 1.8 2h-3.7zM21.2 11.1c0 6-4.8 10.8-10.6 10.8S0 17.1 0 11.1C0 5.1 4.8.3 10.6.3c5.9.1 10.6 4.9 10.6 10.8z"/>
</svg>