<svg xmlns="http://www.w3.org/2000/svg" viewBox="0 0 54 46">
	<path fill="#000" d="M16.3213 45.8589v-9.312h1.6108v9.3065l-1.6108.0055Zm-6.49696-1.9206c0 1.3026.95936 2.0616 2.88006 2.0616.9576 0 1.9225-.2133 2.3939-.462v-3.9342c0-1.6368-.9056-2.2789-2.546-2.2789-.8125.0062-1.6168.1635-2.3717.464l.4046 1.0911c.5691-.2316 1.1748-.3604 1.7889-.3804.7386 0 1.2007.2487 1.2007.9149v.3303c-1.9411.1077-3.75046.4509-3.75046 2.1936Zm1.52356-.0354c0-.9594 1.0336-1.067 2.2269-1.1283l.0055 1.9467c-.2979.0888-.6077.132-.9185.128-.8351 0-1.3139-.3433-1.3139-.9464Zm-5.36305 1.956H7.655l1.85573-6.3912H7.90917l-.92786 3.9155c-.10022.4826-.15957 1.0393-.15957 1.0393h-.02039s-.03063-.1691-.07774-.3998c-.03897-.191-.08935-.4244-.14308-.6395l-1.02998-3.9155H4.06597l-1.02808 3.9155c-.12242.4826-.22083 1.0393-.22083 1.0393h-.01667s-.00997-.0841-.02818-.2148l-.01613-.1125-.01794-.1183c-.01885-.1211-.0415-.2565-.06732-.392-.01296-.0678-.02673-.1356-.04114-.2017l-.91119-3.9155H.0947266L1.95045 45.8589h1.67016l.97607-3.6392c.08735-.3151.15377-.6355.19862-.9594h.01857c.04386.323.10584.6434.18558.9594l.9854 3.6392Zm13.29815-9.312v9.312l1.6145-.0055v-9.3065H19.283Zm8.308 6.2277-4.1123.5567c.1448.9279.8315 1.4011 1.7686 1.4011.6155.0009 1.2232-.1374 1.7778-.4045l.4639 1.208c-.5326.2709-1.4308.4621-2.3586.4621-2.11 0-3.2272-1.3733-3.2272-3.3403 0-1.9672 1.1135-3.331 2.9692-3.331 1.7629 0 2.7502 1.1634 2.7502 2.9061.001.0485.001.0971.0001.1457-.0007.0288-.0017.0576-.003.0862-.0048.1037-.0144.207-.0287.3099Zm-2.7595-2.2751c-.8424 0-1.4325.618-1.4566 1.813l2.6833-.3711c0-.9576-.4825-1.4419-1.2267-1.4419Zm4.1031 3.4388c0 1.3397.5827 2.0133 1.8131 2.0133.2146.0039.4285-.0195.6363-.069.1141-.0272.2264-.0623.336-.1053v-1.338c-.147.0588-.3036.0903-.462.0928-.4194 0-.7423-.1763-.7423-.6997v-3.1547H31.72v-1.2099h-1.2043v-1.8836l-1.5811.4621v1.4215h-.8147v1.2099h.8147v3.2606Z"/>
	<path fill="#FF4107" d="M45.5789 45.858v-4.2087c0-.6421-.3915-1.0317-1.1264-1.0317-.3282-.0027-.6544.05-.965.1559v5.0845h-1.6089v-6.07c.8108-.3197 1.6764-.4774 2.5479-.464 1.8984 0 2.7836.7851 2.7836 2.1564v4.3776h-1.6312Zm-7.5751.1414c-1.8557 0-2.8949-1.4328-2.8949-3.3403 0-1.9078 1.0318-3.3293 2.8949-3.3293 1.8632 0 2.8913 1.4234 2.8913 3.3311 0 1.9077-1.03 3.3385-2.8913 3.3385Zm0-5.4039c-.8536 0-1.2804.772-1.2804 2.0413s.4268 2.0413 1.2804 2.0413c.8537 0 1.2824-.7572 1.2824-2.0413 0-1.2842-.425-2.0413-1.2824-2.0413Zm11.7468 2.7352 4.1123-.5567c.0124-.0881.0215-.1765.0274-.2651.0062-.0921.0088-.1844.0078-.2768 0-1.7426-.9835-2.9061-2.7501-2.9061-1.8669 0-2.9692 1.3639-2.9692 3.3311 0 1.967 1.1172 3.3403 3.2234 3.3403.9242 0 1.826-.1912 2.3605-.4621l-.4677-1.2081c-.5544.2672-1.1623.4054-1.7777.4045-.9372 0-1.62-.4731-1.7667-1.401Zm-.0965-1.0188c.0241-1.195.6179-1.813 1.4604-1.813.7442 0 1.2193.4842 1.2193 1.4418l-2.6797.3712Z"/>
	<path fill="#000" d="M43.2849 10.5238c-1.5997-1.60146-4.3128-1.50682-6.0274.206l-6.2204 6.2241V4.40921C31.0371 1.98377 29.1813 0 26.9192 0c-.941.0105479-1.847.358199-2.5535.979824-.253.169296-.4886.363246-.7033.578986L8.23944 16.9855V4.40921C8.23944 1.98377 6.38372 0 4.11973 0 1.85575 0 .00001538 1.98377.00001538 4.40921V26.4497c-.00229257.8822.25171662 1.7461.73115762 2.4867.158453.289.355757.555.586407.7905.49435.482 1.10787.824 1.77779.991h.01485c.74912.1835 1.53306.1693 2.27507-.0412.742-.2104 1.41664-.61 1.95784-1.1595L22.8013 14.0646V26.446c.0012.6324.1326 1.2578.386 1.8371.1934.5403.5025 1.0318.9056 1.4401 1.5997 1.6033 4.3146 1.5087 6.0274-.206l12.979-12.9641c1.7035-1.7184 1.7945-4.4222.1856-6.0293Z"/>
	<path fill="#FF4107" d="M53.4913 4.41098c.0386-.56905-.0477-1.13966-.253-1.67181-.2053-.53214-.5245-1.01294-.9352-1.40866C51.8923.934788 51.4.63372 50.8605.448422c-.5394-.185297-1.1128-.250338-1.68-.190559-.484.024943-.9588.141439-1.3993.343311-.5447.231906-1.0394.567166-1.4567.987246L37.996 9.91136c-1.7184 1.71844-1.8112 4.42964-.2134 6.02924 1.5978 1.5997 4.3145 1.5087 6.0292-.2041l1.4419-1.4401v12.4037c0 2.4255 1.8558 4.4092 4.116 4.4092 2.2603 0 4.1216-1.9856 4.1216-4.4092V4.41098Z"/>
</svg>