<svg viewBox="0 0 168 40" xmlns="http://www.w3.org/2000/svg">
	<g fill="#036cb5">
		<path d="m153.1 18.4-4.2-4.6-4.6 4.1 4.1 4.6zM156.3 26.3l-4.1-4.6-4.6 4.1 4.1 4.6zM162.1 22.4 159 19l-3.4 3 3.1 3.5zM158.6 28.9l3.1 3.5 3.5-3.1-3.1-3.4zM165 22.2l2.4-2.1-2.1-2.2-2.3 2zM159.2 15.2l-3.1-3.4-3.5 3 3.2 3.4zM27.2 12.8c-3.7 0-5.6 2.7-5.6 6.5 0 3.9 1.7 6.5 5.9 6.5 1.8 0 3.3-.5 4.4-1.1v-1.9c-1.4.8-2.6 1.3-3.9 1.3-2.6 0-3.8-1.3-3.8-4.3h8.1v-.9c0-4.1-2-6.1-5.1-6.1zm-3 5.3c.3-2.5 1.4-3.7 2.9-3.7 1.3 0 2.6 1 2.7 3.7h-5.6z"/>
		<path d="m151.5 33.8-7.6-8.4 2.1-1.8-5.3-5.9 2.1-1.8-5.4-5.9 8.4-7.5 2.7 2.9 4.6-4 2.7 2.7 1.8-1.6-1.2-.6C153.8.7 150.9 0 147.9 0c-10.7 0-19.4 8.6-19.3 19.1 0 10.6 8.7 19.1 19.4 19.1 3.5 0 6.7-.9 9.5-2.5.9-.5 1.8-1.1 2.5-1.7l-3.9-4.4-4.6 4.2z"/>
		<path d="m141 10.2 4.1 4.5 4.7-4.1-4.2-4.5zM149.5 8l3.1 3.4 3.4-3.1-3.1-3.4zM162.1 15.4l2.3-2-2.1-2.3-2.3 2.1zM159.2 8.7l2.2-2.1-2-2.3-2.3 2.1zM41.4 12.9c-1.3 0-2.6.5-3.3.9V6.7l-2.6.6v17.4c1.5.8 3.5 1.3 4.8 1.3 3.6 0 5.8-2.3 5.8-6.9 0-4.1-1.6-6.2-4.7-6.2zm-1.1 11.3c-.6 0-1.5-.1-2.3-.4v-8.1c1-.5 1.7-.8 2.7-.8 1.7 0 2.8 1 2.8 4.2 0 4-1.4 5.1-3.2 5.1zM15.3 21.1h-.2L11.7 7.9H9.4L6.2 21.1h-.1L3.3 7.9H.5l4 17.7h2.7l3.3-12.4h.1L14 25.6h2.7l4-17.7h-2.9zM57.4 21.9h-.1l-5.6-14h-3v17.7H51V13.1h.2l5 12.5h1.6l5.1-12.8h.2v12.8h2.7V7.9h-3.1zM73.7 12.8c-3.3 0-5.7 2.2-5.7 6.5s2.3 6.5 5.7 6.5c3.4 0 5.7-2.3 5.7-6.5-.1-4.4-2.5-6.5-5.7-6.5zm0 11.3c-1.8 0-3-1.4-3-4.8s1.4-4.8 3-4.8c1.7 0 3 1.4 3 4.8s-1.3 4.8-3 4.8zM87.6 12.8c-2.8 0-5.2 1.2-6.3 1.8v10.9h2.6v-9.9c.8-.4 2-.9 3-.9 1.3 0 2.2.3 2.2 2.3v8.4h2.6v-9c0-2.5-1.1-3.6-4.1-3.6zM100.2 12.8c-3.7 0-5.6 2.7-5.6 6.5 0 3.9 1.7 6.5 5.9 6.5 1.8 0 3.3-.5 4.4-1.1v-1.9c-1.4.8-2.6 1.3-3.9 1.3-2.6 0-3.8-1.3-3.8-4.3h8.1v-.9c-.1-4.1-2-6.1-5.1-6.1zm-3.1 5.3c.3-2.5 1.4-3.7 2.9-3.7 1.3 0 2.6 1 2.7 3.7h-5.6zM112.6 21.9h-.1l-3.2-9.2h-2.7l4.8 12.5c-.6 1.8-1.6 3.2-3.3 3.2v2c2.8 0 4.4-1.8 5.6-5.2l4.5-12.5h-2.7l-2.9 9.2z"/>
	</g>
	<path fill="#b6b6b6" d="M30.3 32.4c-.7-.3-1.2-.5-1.5-.7-.3-.2-.4-.5-.4-.9s.1-.7.4-.9c.3-.2.7-.3 1.2-.3.8 0 1.6.2 2.3.6v-1.1c-.8-.3-1.6-.5-2.4-.5-.9 0-1.6.2-2.2.6-.5.4-.8 1-.8 1.7v.5c0 .2.1.3.1.4 0 .1.1.2.2.4l.3.3c.1.1.2.2.4.3.2.1.3.2.4.2.1 0 .2.1.5.2.2.1.4.2.5.2.1 0 .3.1.6.2.8.3 1.4.6 1.7.8.3.2.5.5.5 1 0 .4-.2.8-.6 1-.4.3-.9.4-1.6.4-.8 0-1.7-.2-2.6-.7v1.1c.8.4 1.7.6 2.7.6 1.1 0 1.9-.2 2.6-.7.6-.5.9-1.1.9-1.8s-.2-1.2-.7-1.6c-.5-.5-1.3-.9-2.5-1.3zM37.6 31.1c-.9 0-1.7.2-2.6.6v1c.9-.5 1.6-.7 2.2-.7.5 0 .8.1 1 .3.2.2.3.6.3 1.1v.3h-.8c-.6 0-1.1.1-1.6.2-.4.1-.8.3-1 .5-.2.2-.4.5-.5.7-.1.2-.1.5-.1.7 0 .5.2.9.5 1.2.3.3.8.5 1.4.5.7 0 1.4-.3 2.1-.9l.1.7h1.2V33c0-.7-.2-1.2-.5-1.5-.3-.2-.9-.4-1.7-.4zm.9 4.7c-.2.2-.4.4-.7.6-.3.2-.7.3-1 .3-.3 0-.5-.1-.7-.2-.2-.1-.3-.3-.3-.6 0-.8.7-1.2 2-1.2h.7v1.1zM44.5 31.1c-.5 0-1 .1-1.5.3-.5.2-.9.4-1.3.7v8H43v-2.8c.4.3.9.4 1.4.4.8 0 1.5-.3 1.9-.9.4-.6.7-1.4.7-2.5.1-2.2-.8-3.2-2.5-3.2zm.9 5.1c-.3.4-.6.5-1.1.5-.2 0-.4 0-.7-.1-.3-.1-.5-.2-.6-.4v-3.8c.4-.3.8-.4 1.3-.4.4 0 .8.2 1 .5.3.3.4.9.4 1.7.1 1 0 1.6-.3 2zM48.8 37.5H50v-6.3l-1.2.3zM49.4 28.5c-.2 0-.4.1-.6.3-.2.2-.3.4-.3.6 0 .2.1.4.3.6.2.2.4.3.6.3.2 0 .4-.1.6-.3.2-.2.3-.4.3-.6 0-.2-.1-.4-.3-.6-.2-.2-.4-.3-.6-.3zM54.5 31.1c-.9 0-1.6.3-2.1.9-.5.6-.7 1.4-.7 2.4s.2 1.8.7 2.4c.5.6 1.2.9 2.2.9.8 0 1.5-.2 2.2-.6v-1c-.7.4-1.4.6-2 .6-.6 0-1.1-.2-1.4-.5-.3-.3-.5-.9-.5-1.6h4v-.5c0-1-.2-1.8-.7-2.3-.3-.4-.9-.7-1.7-.7zM53 33.8c.1-.6.2-1.1.5-1.4.3-.3.6-.5 1-.5s.7.2.9.5c.3.3.4.8.4 1.4H53zM61.7 31.1c-1.1 0-2.1.3-3.1.9v5.5h1.3v-4.9c.5-.3 1-.5 1.5-.5.4 0 .6.1.8.2.2.2.3.5.3.9v4.2h1.3V33c0-.6-.2-1.1-.5-1.4-.3-.4-.8-.5-1.6-.5zM68.6 32.3l.3-.9H67v-1.8l-1.3.9v5.1c0 .6.1 1 .4 1.4.3.4.7.5 1.4.5.5 0 1-.1 1.4-.2v-.8c-.3.1-.6.2-.8.2-.7 0-1.1-.4-1.1-1.3v-3.3h1.6zM70.2 37.5h1.2v-6.3l-1.2.3zM70.8 28.5c-.2 0-.4.1-.6.3-.2.2-.3.4-.3.6 0 .2.1.4.3.6.2.2.4.3.6.3.2 0 .4-.1.6-.3.2-.2.3-.4.3-.6 0-.2-.1-.4-.3-.6-.2-.2-.4-.3-.6-.3zM80.2 34.7c-.1-.1-.3-.2-.5-.4-.2-.1-.4-.2-.5-.3-.1 0-.3-.1-.6-.2-.5-.2-.8-.3-1.1-.5-.2-.2-.3-.4-.3-.6 0-.3.1-.5.3-.6.2-.1.5-.1.8-.1.6 0 1.3.2 1.9.6v-1c-.6-.3-1.3-.5-2-.5-.2 0-.4 0-.6.1-.2 0-.5.1-.7.2-.3.1-.5.3-.6.5-.2.2-.2.5-.2.9 0 .3 0 .5.1.7.1.2.2.4.4.5.2.1.4.3.6.4.2.1.5.2.8.3.2.1.4.1.5.2.1 0 .2.1.4.2s.3.2.3.2l.2.2c.1.1.1.2.1.3 0 .6-.5.9-1.4.9-.6 0-1.3-.2-2-.6v1c.6.4 1.3.6 2.1.6s1.4-.2 1.8-.5c.5-.3.7-.8.7-1.4 0-.2 0-.4-.1-.6-.1-.3-.2-.4-.4-.5zM84.8 31.1c-.9 0-1.7.2-2.6.6v1c.9-.5 1.6-.7 2.2-.7.5 0 .8.1 1 .3.2.2.3.6.3 1.1v.3h-.8c-.6 0-1.1.1-1.6.2-.4.1-.8.3-1 .5-.2.2-.4.5-.5.7-.1.2-.1.5-.1.7 0 .5.2.9.5 1.2.3.3.8.5 1.4.5.7 0 1.4-.3 2.1-.9l.1.7H87V33c0-.7-.2-1.2-.5-1.5-.3-.2-.9-.4-1.7-.4zm.9 4.7c-.2.2-.4.4-.7.6-.3.2-.7.3-1 .3-.3 0-.5-.1-.7-.2-.2-.1-.3-.3-.3-.6 0-.8.7-1.2 2-1.2h.7v1.1zM90.2 35.5v-3.3h1.6l.3-.9h-1.9v-1.8l-1.3.9v5.1c0 .6.1 1 .4 1.4.3.4.7.5 1.4.5.5 0 1-.1 1.4-.2v-.8c-.3.1-.6.2-.8.2-.8.2-1.1-.2-1.1-1.1z"/>
</svg>