<svg xmlns="http://www.w3.org/2000/svg" viewBox="0 0 170 40">
	<g fill="#006cb4">
		<path d="M14.5 23.7h-.1L11 10.8H8.8L5.6 23.7h-.1L2.7 10.8H0L4 28h2.6l3.2-12.1h.2L13.3 28h2.6l4-17.2H17zM26.7 15.6c-3.7 0-5.5 2.7-5.5 6.4 0 3.9 1.7 6.4 5.8 6.4 1.8 0 3.2-.5 4.3-1.1v-1.9c-1.3.8-2.6 1.3-3.9 1.3-2.5 0-3.7-1.3-3.7-4.2h7.9v-.9c0-4.1-1.8-6-4.9-6zm-3 5.2c.3-2.4 1.4-3.6 2.9-3.6 1.3 0 2.6 1 2.7 3.6h-5.6zM40.3 15.6c-1.3 0-2.6.5-3.3.9v-7l-2.5.6v17c1.5.8 3.5 1.2 4.8 1.2 3.5 0 5.7-2.2 5.7-6.8 0-3.8-1.7-5.9-4.7-5.9zm-1.1 11c-.6 0-1.5 0-2.2-.4v-8c1-.5 1.7-.8 2.7-.8 1.6 0 2.8 1 2.8 4.1-.1 4-1.5 5.1-3.3 5.1zM56.8 24.4h-.1l-5.5-13.6h-2.9V28h2.2V15.8h.2l5 12.2h1.5l5-12.5h.2V28H65V10.8h-3zM73.9 15.6c-3.2 0-5.6 2.1-5.6 6.4 0 4.2 2.2 6.4 5.6 6.4 3.3 0 5.6-2.2 5.6-6.4-.1-4.3-2.4-6.4-5.6-6.4zm0 11c-1.7 0-3-1.3-3-4.7 0-3.3 1.4-4.7 3-4.7 1.7 0 3 1.4 3 4.7 0 3.4-1.3 4.7-3 4.7zM88.6 15.6c-2.8 0-5.1 1.1-6.2 1.8V28h2.5v-9.7c.8-.4 2-.9 3-.9 1.2 0 2.2.3 2.2 2.3V28h2.5v-8.8c0-2.5-1.1-3.6-4-3.6zM101 15.6c-3.7 0-5.5 2.7-5.5 6.4 0 3.9 1.7 6.4 5.8 6.4 1.8 0 3.2-.5 4.3-1.1v-1.9c-1.3.8-2.6 1.3-3.9 1.3-2.5 0-3.7-1.3-3.7-4.2h7.9v-.9c.1-4.1-1.8-6-4.9-6zm-2.9 5.2c.3-2.4 1.4-3.6 2.9-3.6 1.3 0 2.6 1 2.7 3.6h-5.6zM113.3 24.9h-.1l-3.1-9h-2.7l4.7 12.2c-.6 1.8-1.6 3.1-3.3 3.1v2c2.8 0 4.3-1.8 5.5-5.1l4.4-12.2H116l-2.7 9zM153.4 34.5l-8-8.5 2.2-1.9-5.6-6 2.2-1.9-5.7-6 8.9-7.6 2.8 2.9 4.8-4.1 2.8 2.8 1.9-1.6c-.4-.2-.9-.4-1.3-.6-2.7-1.3-5.8-2-8.9-2-11.2 0-20.4 8.8-20.3 19.5 0 10.8 9.1 19.5 20.4 19.5 3.7 0 7.1-.9 10-2.5 1-.5 1.9-1.1 2.7-1.7l-4.1-4.5-4.8 4.2z"/>
		<path d="m155 18.8-4.4-4.7-4.8 4.2 4.3 4.7zM158.4 26.8l-4.4-4.7-4.8 4.2 4.4 4.7zM142.3 10.4l4.3 4.6 4.9-4.2-4.3-4.6zM151.2 8.1l3.3 3.5 3.6-3.1-3.3-3.5zM164.5 22.8l-3.2-3.5-3.7 3.2 3.3 3.5zM160.8 29.5l3.3 3.5 3.6-3.2-3.3-3.4zM164.5 15.7l2.4-2.1-2.2-2.3-2.4 2.1zM161.4 8.8l2.4-2.1-2.2-2.3-2.4 2.1zM165.4 20.3l2.2 2.3 2.4-2.1-2.2-2.3-2.4 2.1zM161.4 15.5l-3.3-3.5-3.6 3.1 3.3 3.5z"/>
	</g>
</svg>