<svg xmlns="http://www.w3.org/2000/svg" viewBox="0 0 200 33.5">
	<path fill="#333" d="M0 0h200v33.5H0V0z"/>
	<path fill="#fd0" d="M59.2 21.7l.6 2.1-.3.1c-.6.3-1.2.5-2.2.5-2 0-3.3-1.3-3.3-3.3V15h-2.1v-2.1H54v-3l2.5-.7v3.7h2.7V15h-2.7v5.8c0 .7.5 1.2 1.3 1.3.4 0 .8-.1 1.2-.3l.2-.1zm62.2-8.8v11.4h2.5V12.9h-2.5zm16.1 5.7c0 3.3-2.5 5.8-5.8 5.8s-5.8-2.5-5.8-5.8 2.5-5.8 5.8-5.8 5.8 2.5 5.8 5.8zm-2.5 0c0-2-1.4-3.5-3.3-3.5s-3.3 1.5-3.3 3.5 1.4 3.5 3.3 3.5 3.3-1.5 3.3-3.5zm-30.6-.3s.2 3.5-3.6 3.5c-3.9.1-3.6-3.5-3.6-3.5V9.2h-2.7v9.1c0 3.8 2.5 6.2 6.3 6.2s6.3-2.4 6.3-6.2V9.2h-2.7v9.1zm18.3-10.7c-1.1 0-1.9.9-1.9 1.9 0 .5.2.9.5 1.3h2.9c.3-.3.5-.8.5-1.3-.1-1.1-1-1.9-2-1.9zm-44 5.2c-.8.1-1.6.4-2.3.9v-.8h-2.5v11.4h2.5v-6.9c0-.2 0-.5.1-.7.2-.5.6-1.1 1.2-1.3.4-.2.8-.2 1.1-.2.4 0 .9.1 1.3.3v-2.4c.1-.1-.7-.4-1.4-.3zM27.5 9.2L24.6 20 21.2 9.2h-2.7L15 20 12.1 9.2H9.4l4.1 15.1h2.7l3.7-11.2 3.6 11.2h2.7l4-15.1h-2.7zm8.2 15.2c-3.3 0-5.8-2.5-5.8-5.8 0-.7.1-1.5.4-2.2.4-1 1.1-2 2-2.6 1-.7 2.2-1.1 3.4-1.1 1.6 0 2.9.6 3.8 1.6.6.7 1.1 1.6 1.3 2.5.2.8.2 1.6.2 2.4h-8.7v.2c.3 1.5 1.6 2.6 3.3 2.6 1.4 0 2.4-.7 2.8-1.2l1.7 1.6c-.9 1.3-2.6 2-4.4 2zm2.7-7c-.1-.7-.5-1.4-1-1.8-.6-.5-1.3-.6-1.9-.6-.9 0-1.8.4-2.4 1.1-.5.5-.7 1.3-.7 1.3h6zm28.2 7c-3.3 0-5.8-2.5-5.8-5.8 0-.7.1-1.5.4-2.2.4-1 1.1-2 2-2.6 1-.7 2.2-1.1 3.4-1.1 1.6 0 2.9.6 3.8 1.6.6.7 1.1 1.6 1.3 2.5.2.8.2 1.6.2 2.4h-8.7v.2c.3 1.5 1.6 2.6 3.3 2.6 1.4 0 2.4-.7 2.8-1.2l1.7 1.6c-.9 1.3-2.6 2-4.4 2zm2.8-7c-.1-.7-.5-1.4-1-1.8-.6-.5-1.3-.6-1.9-.6-.9 0-1.8.4-2.4 1.1-.5.5-.7 1.3-.7 1.3h6zm-22.2-.1c-1.1-.3-1.9-.5-1.9-1.2 0-.9.7-1.1 2.1-1.1h2.3v-2.1h-2.3c-2 0-4.5.4-4.5 3.4 0 1.3.9 2.4 2.6 2.9l1.2.3c1.2.3 2.2.6 2.2 1.4s-1 1.3-1.9 1.3c-1.6 0-2.6-.9-2.9-1.2l-1.6 1.5s1.4 1.9 4.6 1.9c2.1 0 4.2-1.4 4.2-3.6s-2.1-3-4.1-3.5zm67.5-4.5c-.9 0-1.9.2-2.9.8v-.7h-2.5v11.4h2.5v-6.9c0-1 .8-2.2 2.4-2.2 1.4 0 2.4 1 2.4 2.4v6.7h2.5v-6.9c.1-2.8-1.7-4.6-4.4-4.6zm-26.9 0c-.9 0-1.9.2-2.9.8v-.7h-2.5v11.4h2.5v-6.9c0-1 .8-2.2 2.4-2.2 1.4 0 2.4 1 2.4 2.4v6.7h2.5v-6.9c.1-2.8-1.8-4.6-4.4-4.6zm57 0c-.9 0-1.9.2-2.9.8v-.7h-2.5v11.4h2.5v-6.9c0-1 .8-2.2 2.4-2.2 1.4 0 2.4 1 2.4 2.4v6.7h2.5v-6.9c0-2.8-1.8-4.6-4.4-4.6zm33.3-3.6L174 24.3h-3l-3.1-10-3.1 10h-3l-4.2-15.1h3.2l2.5 9.6 3-9.6h3l3 9.7 2.5-9.7h3.3zm9.6 0v9.3s.1 1.3-.8 2.2c-.5.6-1.3.9-2.4.9s-1.8-.3-2.4-.9c-.8-.9-.8-2.1-.8-2.2V9.1H180l-1.9 7.1v2.2c0 1.9.6 3.4 1.7 4.6 1.1 1.1 2.7 1.7 4.6 1.7 1.9 0 3.5-.6 4.6-1.7 1.1-1.1 1.7-2.7 1.7-4.6V9.2h-3z"/>
	<path fill="#fff" d="M155.9 24.3l-4.2-15.1h1.1l4.2 15.1h-1.1zm4 0l-4.2-15.1h-1.1l4.2 15.1h1.1z"/>
</svg>