<svg xmlns="http://www.w3.org/2000/svg" viewBox="0 0 170 21">
	<linearGradient id="gr" x1="85" x2="85" y1="0" y2="20.1415" gradientUnits="userSpaceOnUse">
		<stop stop-color="#1971D0"/>
		<stop offset="1" stop-color="#3B50A1"/>
	</linearGradient>
	<path fill="url(#gr)" d="m6.08651 20.1175-.1178.0041c-1.13325.0349-2.05882.0168-2.68019-.0004l-.12416-.0037h2.92215Zm-2.93594-.0002.01379.0002-.74307.0002c-.019-.0253.24358-.0146.72928-.0004ZM27.7876 3.93287V20.1177l-21.70109-.0002.14736-.0049c6.62943-.2467 19.74773-2.3407 21.55373-16.17973ZM3.93861 10.5004c.28716.7902 1.36656 1.481 2.9627 1.9848.50304.159 1.06022.3008 1.66057.4228.14049.3036.30429.6024.4907.8944.85941 1.3466 2.20682 2.5521 4.07982 3.4355-4.86385-.1871-8.80315-3.0936-9.19379-6.7375Zm19.91029 0c-.3906 3.6433-4.3299 6.5504-9.1937 6.7375 1.8723-.8834 3.2204-2.0889 4.0798-3.4355.1864-.292.3495-.5908.4907-.8944.6003-.122 1.1568-.2638 1.6605-.4228 1.5962-.5038 2.6763-1.1953 2.9627-1.9848ZM9.13961 13.017c.78334.1364 1.63039.2398 2.52269.3056.3242 1.2192.8341 2.3877 1.5393 3.4288-1.7181-.8368-2.9586-1.9567-3.7529-3.2019-.11171-.1755-.21451-.353-.30909-.5325Zm9.50829 0c-.0945.1795-.1973.3577-.309.5325-.7944 1.2452-2.0348 2.3651-3.7529 3.2019.7052-1.0404 1.2151-2.2096 1.5392-3.4288.8923-.0658 1.7394-.1692 2.5227-.3056Zm-3.0168.3378c-.3055 1.0941-.7665 2.1412-1.392 3.0807l-.0863.1274v-3.1601c.5031-.0041.9965-.0205 1.4783-.048Zm-3.4746 0c.4817.0275.9752.0439 1.4782.048v3.1594c-.6696-.9718-1.1589-2.0642-1.4782-3.2074ZM21.7103.0346003l-.1566.0052479C14.9243.286516 1.80613 2.38051.00068533 16.2195L0 .0346908 21.7103.0346003ZM13.6347 10.2921v2.6433c-.5462-.0048-1.0814-.024-1.6009-.0562-.2008-.8491-.3098-1.7202-.3317-2.5871h1.9326Zm2.4508 0c-.022.8669-.1309 1.738-.3317 2.5871-.5202.0322-1.0548.0514-1.601.0562v-2.6433h1.9327Zm-4.8529 0c.0206.8539.1241 1.7126.3125 2.5529-.9464-.0741-1.83803-.1926-2.65152-.3475-.30497-.7189-.47631-1.4632-.52154-2.2054h2.86056Zm8.1822 0c-.0445.7422-.2159 1.4865-.5208 2.2054-.8135.1549-1.7058.2734-2.6516.3475.1892-.8403.292-1.699.3125-2.5529h2.8599Zm-11.51358 0c.03906.7025.18504 1.4063.44135 2.0916-.46603-.1028-.9019-.2179-1.3035-.3447-1.5098-.4763-2.50147-1.0897-2.68172-1.7469h3.54387Zm15.52898 0c-.1802.6572-1.1726 1.2706-2.6824 1.7469-.4009.1268-.8368.2419-1.3028.3447.2563-.6853.4016-1.3891.4413-2.0916h3.5439Zm-9.2774-3.07442c.5627.00411 1.1137.02398 1.6489.05756.183.83063.2803 1.70237.2879 2.58508h-1.9368V7.21768Zm2.1348.09252c.9856.07949 1.9114.20628 2.7496.37213.2248.62092.3536 1.26856.3831 1.92511.0041.08361.0062.16859.0062.25288H16.559c-.0068-.86831-.0987-1.72704-.2714-2.55012Zm3.2835.4859c.4187.09595.8128.20217 1.1767.31731 1.5098.4763 2.5022 1.08968 2.6824 1.74691h-3.5336c-.0007-.09115-.0027-.18229-.0068-.27344-.0275-.6079-.135-1.20893-.3187-1.79078Zm-5.9364-.57842v2.64264H11.698c.0068-.88271.1041-1.75445.2878-2.58508.5353-.03358 1.0863-.05345 1.6489-.05756Zm-2.1355.09252c-.1727.82308-.2638 1.68181-.2707 2.55012H8.36107c0-.08429.00206-.16927.00617-.25288.02947-.65655.159-1.30419.3831-1.92511.83885-.16585 1.76406-.29332 2.74886-.37213Zm-3.28273.4859c-.18367.58185-.29127 1.18288-.31868 1.79078-.00411.09115-.00617.18229-.00685.27344H4.35735c.18025-.65723 1.17261-1.27061 2.68172-1.74691.36459-.11514.75866-.22136 1.1774-.31731Zm6.58123-4.87478c4.7981.23781 8.6647 3.12306 9.0512 6.73135-.2864-.79019-1.3665-1.48169-2.9627-1.98541-.4585-.14461-.9622-.27551-1.5015-.38996-.2413-.59624-.5654-1.16644-.9698-1.69552-.8566-1.12052-2.0731-2.056-3.6172-2.66046Zm-1.8072 0c-1.5454.60446-2.7612 1.53994-3.61787 2.66046-.40435.52908-.72851 1.09928-.96975 1.69552-.54004.11445-1.04308.24535-1.50157.38996-1.59614.50372-2.67623 1.19522-2.9627 1.98541.38653-3.60829 4.25319-6.49354 9.05189-6.73135Zm1.5831.416c1.4872.57156 2.6536 1.46181 3.4692 2.52888.3132.40983.575.84638.784 1.30076-.8176-.1494-1.7078-.26317-2.6488-.33376-.3303-1.30761-.8704-2.50969-1.6044-3.49588Zm-1.3597 0c-.7347.98619-1.274 2.18827-1.6043 3.49588-.941.07059-1.83125.18436-2.64886.33376.20903-.45438.47014-.89093.78402-1.30076.81554-1.06707 1.98194-1.95732 3.46914-2.52888Zm.9389.2145c.6936.91218 1.209 2.02791 1.5338 3.24849-.4996-.02947-1.0115-.0466-1.5338-.05072V3.55182Zm-.5181.00069v3.19708c-.5222.00412-1.0341.02125-1.5338.05072.3242-1.22058.8403-2.33562 1.5338-3.2478ZM25.3663.0346908c.019.0253299-.2436.0146371-.7293.0004315l-.0146-.000522.7439.0000905ZM24.499.0311854l.1234.0034149h-2.9121l.1085-.0037645c.4453-.0137029.8584-.0192439 1.2337-.0198765l.2008.0001221c.4927.0014245.9129.0108759 1.2457.020104ZM111.905 0c1.506 0 2.791.248155 3.855.751262 1.064.503108 1.594 1.465128 1.594 2.886068v3.8209c0 1.74048-.537 2.89627-1.611 3.46397-1.075.5711-2.499.8532-4.27.8532-.024 0-.044-.0034-.065-.0136-.023-.0102-.047-.0136-.068-.0136-.044 0-.078-.0068-.098-.0136-.024-.0101-.044-.0169-.068-.0169v8.3114h-4.685V0h5.416Zm-.731 3.06284v5.33362c.068 0 .146-.0068.234-.0136.089-.01019.177-.02379.265-.04419.266-.05439.796-.16997 1.017-.33994.221-.16996.33-.57109.33-.87364V4.22882c0-.5133-.126-.83284-.381-.96882-.255-.12917-.935-.19716-1.465-.19716ZM49.9136 0c1.5059 0 2.7909.248155 3.8549.751262 1.064.503108 1.5943 1.465128 1.5943 2.886068v3.8209c0 1.74048-.5371 2.89627-1.6113 3.46397-1.0742.5711-2.4985.8532-4.2696.8532-.0238 0-.0442-.0034-.0646-.0136-.0238-.0102-.0476-.0136-.068-.0136-.0442 0-.0782-.0068-.0986-.0136-.0238-.0101-.0442-.0169-.068-.0169v8.3114h-4.6843V0h5.4152Zm-.7309 3.06284v5.33362c.068 0 .1462-.0068.2346-.0136.0884-.01019.1768-.02379.2651-.04419.2652-.05439.8703-.16997 1.0946-.33994.221-.16996.3298-.57109.3298-.87364V4.22882c0-.5133-.1258-.83284-.3807-.96882-.255-.12917-1.0131-.19716-1.5434-.19716ZM162.736 8.22989V.05439h-4.685V20.0835h4.685v-8.7942c.554.017 1.366-.017 1.611.2958.241.3127.364.9144.364 1.4073v3.8821c0 .2652.006.5303.017.7955.01.2651.027.5303.051.7954.044.2856.095.5575.149.8227.055.2651.377.5303.486.7954H170c-.177-.5473-.53-1.1014-.588-1.6589-.054-.5609-.082-1.1252-.082-1.6929v-3.5693c0-1.1388-.272-1.9513-.812-2.4442-.544-.4929-1.139-.79542-2.424-.911l-.319-.07478c1.285-.11558 2.199-.41813 2.743-.91104.54-.49291.812-1.30536.812-2.44415V3.41637c0-.56769.028-1.13199.082-1.69289.058-.55749.411-1.111592.588-1.6622912h-4.586c-.109.2651512-.431.5303032-.486.7988532-.054.261748-.105.537098-.149.822648-.024.26515-.041.5303-.051.79546-.011.26515-.017.5303-.017.79545v3.2668c0 .49631-.123 1.03001-.364 1.34276-.214.27534-.966.30254-1.421.35013-.065 0-.126-.0034-.19-.0034ZM144.896 0h4.616v7.1013h1.927L151.514 0h4.688v20.0291h-4.688v-8.5222h-2.002v8.5222h-4.616V0Zm-4.134 0 2.757 20.0291h-4.579l-.479-3.8923h-2.37l-.418 3.8923h-4.616L134.055 0h6.707Zm-3.389 2.89627h-.167c-.024.43512-.044.88044-.068 1.33595-.02.45552-.051.91784-.098 1.39375l-.752 7.62483h1.948l-.765-7.62483c-.013-.15297-.006-.30594-.017-.45552-.01-.15297-.017-.30254-.017-.45551v-.45552c0-.22436-.003-.45212-.017-.67988-.01-.22775-.027-.45551-.047-.68327ZM42.5778 0v20.0291H37.89v-9.0355c-.5507.0204-1.2646.187-1.5059.4997-.2448.3093-.3671.7139-.3671 1.2068v4.12c0 .2618-.0034.5303-.017.7955-.0102.2651-.017.5303-.0476.7954-.034.2856-.0952.5575-.1496.8227-.0578.2651-.2992.5303-.4113.7954h-4.5858c.1802-.5473.4555-1.1048.5099-1.6623.0544-.5575.085-1.1218.085-1.6895v-3.5727c0-1.1354.2719-1.9512.8124-2.4408.5439-.4929 1.0573-.79881 2.3422-.91099v-.11218c-1.6181-.13257-2.2266-.56089-2.6243-1.28156-.3977-.71727-.5983-1.58071-.5983-2.58353 0-.11558.0068-.23795.017-.37053.0102-.13258.017-.26515.017-.39773V4.9087c0-.02719-.0068-.06119 0-.09858.0136-.09518.034-.77166.034-.87704v-.29575c0-1.42094.5201-2.38296 1.5603-2.886068C34.0011.248155 35.2759 0 36.7818 0h5.796ZM37.89 2.94046c-.5099 0-1.2068.07139-1.4719.21076-.2686.14278-.4011.46232-.4011.95183v2.74329c0 .41813.1121.70028.3331.85325.221.14957.7784.24135 1.0436.28215.0884.01359.1768.03059.2652.03059h.2311V2.94046ZM68.719 0v20.0291h-4.4532v-8.325l.2515-3.97732-.1563.05779-.7241 3.91953-2.4646 8.325h-4.3886V0h4.3886v5.88092l-.2515 4.94268v.0306l.0612-.0884.6629-3.124L64.2658 0h4.4532Zm1.9308 0h4.8509v7.21348h2.0022V0h4.9189v20.0291h-4.9189v-8.5222h-2.0022v8.5222h-4.8509V0Zm15.8853 3.44357h-2.6345V0h10.6638v3.44357h-2.6311V20.0291h-5.3982V3.44357ZM95.8154 0h8.4776v3.35858h-3.637V8.1823h3.45v3.1342h-3.45v4.9699h4.222v3.7427h-9.0626V0Zm32.5486 0v2.81128h-4.867V7.1047c.465 0 1.149.01699 1.737.04419.584.0272 1.574-.0034 2.196.13598 1.04.23115 1.818.59149 2.274 1.35975.383.64897.419 1.59898.422 2.51978v.1968c0 .0653-.001.1304-.001.1951v4.1556c0 1.8663-.421 3.1376-1.397 3.7427-.865.5366-2.471.5733-4.153.5747h-.323c-.036 0-.072 0-.108-.0001l-5.332-.0001V0h9.552Zm-4.867 9.8072v7.38c.068 0 .139-.0033.217-.0135.078-.0102.15-.0034.214-.0136.293-.0476.898-.1666 1.132-.3264.231-.1598.35-.4113.35-.7546V10.912c0-.4351-.146-.7275-.431-.8804-.289-.14961-1.017-.2244-1.482-.2244Z"/>
</svg>