<svg xmlns="http://www.w3.org/2000/svg" viewBox="0 0 160 33.8">
	<path fill="#000" d="M155.4 9.9l-3.6 8.8c0 .1-.1.2-.1.4l-.1.2-.1-.2c0-.1-.1-.2-.1-.4l-3.6-8.8H143l6.3 15.2-2.6 5.8h4.8l8.5-21h-4.6zm-35.1.9c-.9-.6-1.9-1-3.1-1.1-2.1-.2-4.1.5-5.4 2V9.9h-4.3v15.2h4.3v-8c0-1.8.4-2.2.6-2.7.5-.9 1.5-1.3 2.6-1.2 1.1 0 2.3.5 2.8 1.3.4.6.4 1.3.4 1.8V25h4.3v-9.1c-.1-2.4-.8-4-2.2-5.1zM99.4 10c-2.1-.7-4.4-.6-6.5.4-1.5.6-2.6 1.7-3.5 3.1-.8 1.2-1.1 2.6-1.1 4.2s.4 2.9 1.1 4.2c.8 1.2 1.8 2.1 3 2.8 1.3.6 2.8 1 4.1 1 .8 0 1.5-.1 2.3-.2.6-.1 1.3-.4 1.9-.7 1.3-.7 2.3-1.6 3-2.7.8-1.2 1.1-2.6 1.1-4.2-.1-3.8-2.1-6.6-5.4-7.9zm1.1 7.6c0 1.3-.5 2.4-1.4 3.2-.6.6-1.5.9-2.8.9-1.1 0-2-.4-2.8-.9-.9-.7-1.3-1.8-1.4-3.2 0-1.5.5-2.8 1.6-3.7.6-.5 1.4-.7 2.4-.7s1.8.2 2.4.7c1.5.9 2.2 2.3 2 3.7zm-17.1-6.8c-.8-.6-1.9-1-3.1-1.1h-.8c-1.8 0-3.1.7-4.4 2.2l-.3.2h-.5c-.4-.5-.8-1-1.3-1.2-.8-.7-1.8-1.1-3-1.2-2-.2-3.6.4-5 1.8V9.9h-4.3v15.2H65V17c0-1.7.3-2.1.5-2.6.5-.9 1.5-1.3 2.5-1.3s2 .5 2.5 1.3c.4.6.4 1.3.4 2.1v8.4h4.4v-8c0-1.5.3-2.1.5-2.6.5-.9 1.5-1.2 2.5-1.2s1.9.6 2.4 1.3c.3.5.4 1.1.4 1.6v9h4.3v-9.1c0-.9-.1-1.6-.3-2.3-.2-1.2-.8-2.2-1.7-2.8zm55.2 9.7c-.6.6-2.1 1.7-4.1 1.8-1.6 0-3-.4-3.9-1.3-.4-.5-.8-1-.9-1.6h11.9v-.1c.1-.6.1-1.2.1-1.7s-.1-1.2-.4-2.2c-.5-1.7-1.5-3.1-2.9-4.2-1.5-1.1-3-1.5-3.4-1.5-3.1-.5-6.6.9-8.4 3.7-1.3 2-1.3 3.9-1.1 4.5 0 .7.1 3.1 2 5 2.1 2.3 5.3 2.4 6.3 2.6 4.3.1 7.1-2.4 7.8-3.1l-3-1.9zm-7.4-6.4c.6-.5 1.4-.7 2.4-.7s1.8.2 2.4.7c.6.5 1.1 1.1 1.4 2h-7.6c.3-.9.8-1.5 1.4-2z"/>
	<path fill="#8b3ffd" d="M31.3 0C21.7 0 14 7.6 14 16.9s7.8 16.9 17.3 16.9 17.3-7.6 17.3-16.9C48.7 7.6 40.8 0 31.3 0zm0 23.1c-3.5 0-6.5-2.8-6.5-6.2s2.9-6.2 6.5-6.2 6.5 2.8 6.5 6.2c-.1 3.4-2.9 6.2-6.5 6.2zM14 5v24.6H7.9L0 5h14z"/>
</svg>