<svg xmlns="http://www.w3.org/2000/svg" viewBox="0 0 160 40.1">
	<path fill="#e2251d" d="M5 1.2c0 1.1.1 1.4.5 1.8.5.3.6.6.6 1.4 0 .8-.1 1-.3.9-.3-.1-.4.1-.4 1.1 0 1.2 0 1.2 1.2 2.3.7.6 1.3 1 1.5 1 .3 0 .3-2.4 0-2.6-.3-.2-.3-1.9 0-1.9.1 0 .3.1.4.2.2.5.5-.1.5-1.2V3L7.3 1.6C5-.3 5-.3 5 1.2zm7.2.4l-1.8 1.6v3.5c0 1.9.1 3.5.2 3.6.1.1 1-.6 2-1.4l1.8-1.5V6.1c0-.9-.1-1.2-.3-1.2-.2 0-.4.1-.5.2-.1.1-.4.4-.8.7l-.7.5v-1c0-.9.1-1 1.1-1.8 1.1-.9 1.1-.9 1.1-2.2 0-.7-.1-1.3-.2-1.3 0 0-.9.7-1.9 1.6zM.2 5.8c-.3.3-.2 6.2.1 6.7.2.3 1.9 1.8 3.8 3.4C6 17.5 7.6 19 7.6 19c0 .2-1.5 1.4-1.7 1.4-.1 0-1.3-1-2.7-2.2-1.6-1.4-2.7-2.1-2.9-2-.2.2-.3.7-.3 2.9v2.6l1.1 1 1.1 1.1-1 .9-1 .9-.1 3.5c-.1 2.3 0 3.6.2 4 .4.7 8 7 8.4 6.9.5-.1.6-6 .2-6.8-.2-.3-1.9-1.9-3.8-3.5-2-1.6-3.6-3.1-3.6-3.2 0-.1.5-.5 1-1l1-.8 2.4 2c1.3 1.1 2.5 2 2.7 2 .3 0 .4-.3.4-2.8v-2.8l-1-.7-.9-.8.8-.6c.4-.3.8-.9.9-1.4.3-1.1.3-6.3-.1-7-.3-.6-7.8-7-8.2-7-.1 0-.3.1-.3.2zm14.5 3.1c-2.1 1.8-4 3.5-4.1 3.9-.1.3-.2 1.9-.2 3.5 0 2.7 0 2.9.5 3 .4.1.5.3.5 1.5 0 .9-.1 1.7-.5 2.3-.4.7-.5 1.3-.5 3 0 2.3.1 2.8.6 2.8s.5 3.5-.1 4.1c-.3.3-.4.9-.5 3.2-.1 3.2 0 4 .5 3.9.6-.1 7.9-6.3 8.2-6.9.2-.3.2-2.7.2-6.8 0-5.7 0-6.3-.4-6.3-.3 0-.3 0 0-.4s.4-1.2.4-7.2c0-6.3 0-6.8-.4-6.8-.1-.1-2.1 1.4-4.2 3.2zm3.2 6c.3 1.2-.2 2-2.2 3.7-1 .9-2.2 1.8-2.5 2.1l-.6.5v-2.9l2.2-1.9c1.2-1.1 2.4-1.9 2.6-1.9.2-.1.5.1.5.4zM18 25c0 1.6-.4 2.1-2.7 4.1-1.2 1-2.3 1.9-2.5 1.9-.1 0-.2-.7-.2-1.7v-1.8l2.4-2c2.6-2 3-2.1 3-.5z"/>
	<path fill="#1d1d1b" d="M30.1 9.8c-.1.1-.2.6-.4 1.2-.1.6-.3 1.2-.4 1.4-.1.4.2.4 4.6.4 2.6 0 4.8 0 4.8.1s-2.2 3.8-5 8.2l-5 8.1v2.9h13.7l.4-1.3c.2-.7.5-1.4.5-1.6.1-.2-1-.3-4.9-.3-3.9 0-5-.1-4.9-.3 0-.1 2.3-3.8 4.9-8.1l4.8-7.9V9.7h-6.5c-3.6 0-6.5.1-6.6.1zm15.7.3c-1.9 1.5-.9 4.3 1.4 4.3 1.4 0 2.3-.9 2.3-2.4s-.9-2.4-2.3-2.4c-.5.1-1.1.2-1.4.5zm57 10.8l.1 11.2h4.6c5 0 6.3-.2 7.9-1.4 2.1-1.5 2.8-5 1.5-7.6-.6-1.3-1.6-2.1-3-2.6l-.7-.2 1-.6c1.8-1.1 2.4-2.3 2.4-4.3 0-2.2-1.3-3.9-3.5-5-1-.5-1.5-.5-5.7-.6l-4.6-.1v11.2zm8.8-8.4c1.2.7 1.8 1.7 1.8 3.2 0 1.5-.5 2.5-1.6 3.1-.6.3-1.4.4-3.4.4h-2.7l-.1-3.4c0-1.8 0-3.5.1-3.7.1-.4 4.8-.2 5.9.4zm1 9.6c1.2.7 1.7 1.6 1.8 3.4.1 2-.4 3-1.8 3.7-.9.5-1.3.5-4.1.5h-3.1v-8.2l3.2.1c2.5.1 3.4.2 4 .5zm35.5-12.3c-.2 0-.7.1-.9.2l-.5.1v22.1l1.3-.1 1.3-.1.1-4.4.1-4.4 3.6 4.4 3.6 4.4 1.6.1c.9 0 1.6 0 1.7-.1.1-.1-1.5-2.1-3.5-4.5-2.1-2.4-3.8-4.4-3.8-4.6-.1-.2 1.2-1.8 2.9-3.6 4.1-4.6 3.9-4.1 1.9-4.1h-1.7l-3.1 3.6-3.2 3.6-.1-6.4c0-6.9.1-6.4-1.3-6.2zM92 11c-.2 0-1 .2-1.6.3l-1.2.2v3.8h-1.8l.1 1.3.1 1.3.8.1.8.1.1 5.9c.1 5.5.1 6 .5 6.7 1 1.7 3 2.3 5.5 1.7.8-.2 1.4-.4 1.5-.5 0 0 0-.6-.2-1.2-.2-1.1-.2-1.1-.9-.9-.9.3-2.2 0-2.5-.5-.1-.2-.2-2.6-.2-5.8V18h2.7l.6-1.2c.3-.7.5-1.3.5-1.4 0-.1-.9-.1-1.9-.1H93V13c.1-2.3.1-2.3-1-2zm-44.7 4.6c-.6.1-1.2.3-1.5.3l-.5.1v16.2h3.8v-8.4c0-9.5.2-8.6-1.8-8.2zm6 0l-1.4.2-.1 8.2v8.2l1.8-.1 1.9-.1.1-5.7.1-5.7.7-.7c.8-.8 2-1.1 2.9-.7.7.2.7.3 1.1-1.8.3-1.5.2-1.7-1.1-1.7-1 0-2.1.5-3.2 1.5l-.9.8v-1.4c0-1-.1-1.4-.3-1.4-.1.2-.9.3-1.6.4zm10.6.1c-.8.2-1.6.5-1.6.5-.1.1-.8 3.4-.7 3.5 0 0 .8-.3 1.7-.8 1.3-.7 1.9-.8 3-.8 1.8 0 2.2.5 2.2 2.4v1.3l-1.8.2c-2.7.2-4.6.9-5.7 2-2.6 2.7-1.7 7.4 1.8 8.4 1.8.6 3.3.4 5.4-.5.3-.1.4 0 .4.3 0 .5.1.5 1.9.4l1.8-.1v-7c0-6.6 0-7-.5-7.9-.3-.5-.9-1.1-1.5-1.6-1.4-.7-4.1-.9-6.4-.3zm4.6 10.7c0 1.8 0 1.9-.6 2.5-1.9 1.8-4.3 1.1-4.3-1.3 0-.8.5-2.3.7-2.3 0 0 .5-.2.9-.3.5-.2 1.4-.3 2.1-.3h1.2v1.7zm9.7-10.7c-1.8.5-2 .6-2.1 1.7-.1.5-.2 1.4-.3 1.9l-.1.9 1.7-.9c1.4-.7 2-.9 3-.9 1.2 0 1.4.1 1.8.6.3.4.5.9.5 1.6v1.1l-2.4.3c-2.8.3-4.3.9-5.4 2.1-1 1.1-1.3 2.2-1.2 4.1.2 2.7 1.7 4.2 4.8 4.4 1.3.1 2.1 0 3.8-.7.3-.1.4 0 .4.3 0 .5.1.5 1.8.5h1.8v-7c0-4.4-.1-7.2-.2-7.6-.9-2.3-4.3-3.4-7.9-2.4zm4.5 10.6c0 2.1-.3 2.7-1.8 3.3-1.8.7-3.2-.2-3.2-2.1 0-.6.1-1.3.3-1.6.4-.8 1.9-1.4 3.4-1.4h1.3v1.8zm40.8-10.7c-.5.1-1.4.4-1.9.6-.9.4-1 .5-1.2 1.8l-.2 1.4s.6-.2 1.3-.6c.7-.4 1.8-.8 2.5-.9 2.6-.6 4 .4 4 2.7v1.3l-2 .2c-3.9.3-6.2 1.5-7.2 3.6-1.3 2.8-.2 5.7 2.6 6.7 1.8.6 4.7.1 5.9-1 .4-.3.4-.3.4.5v.8h2.7v-7.1c0-4.8-.1-7.3-.2-7.6-1-2.3-3.5-3.1-6.7-2.4zm4.3 10.5c0 2.2 0 2.2-.7 2.9-2.1 2-5 1.8-5.6-.3-.3-1.1-.3-1.5.1-2.5.6-1.6 2-2.2 4.7-2.2h1.5v2.1zm5.7-10.5l-1.1.2V24l.1 8.1h2.5l.1-6.1v-6.1l1.2-.8c2-1.4 4-1.6 4.8-.6.3.4.4 1.2.5 7l.1 6.6h2.7V18.6l-.6-1c-1.4-2.5-4.4-2.9-7.4-.9l-1.4.9v-1.1c.2-1.3.3-1.2-1.5-.9z"/>
</svg>
