<svg xmlns="http://www.w3.org/2000/svg" viewBox="0 0 180 24.2">
	<path fill="#103984" d="M75.4 24.2c10.2 0 18.4-5.4 18.4-12.1S85.6 0 75.4 0C65.3 0 57 5.4 57 12.1s8.3 12.1 18.4 12.1zM3.4 7.7h7.8V4.9H0v14.4h6.9c3.3 0 5.5-1.4 5.5-4.4 0-4.6-4.3-4.7-5.5-4.7H3.4V7.7zm0 5.4h2.8c.8 0 2.5.1 2.5 1.8 0 1.4-1.2 1.6-2.5 1.6H3.4v-3.4zM18 4.9l-5.4 14.4h3.6l.9-2.7h5.2l.9 2.7h3.6L21.5 4.9H18zm-.1 9.3l1.9-5.5 1.9 5.5h-3.8zm13.2-1.1h5.2v6.2h3.4V4.9h-3.4v5.4h-5.2V4.9h-3.4v14.4h3.4v-6.2zM44.9 11l-.1-6h-3.4v14.4h3.4v-7h.1l5.1 7h4.1L48 11.5l5.8-6.6h-4L44.9 11zm57.4-6.1l-5.4 14.5h3.6l.9-2.7h5.2l.9 2.7h3.6l-5.5-14.5h-3.3zm-.2 9.3l1.9-5.5 1.9 5.5h-3.8zm13.7-3.2V4.9h-3.4v14.5h3.4v-7.1l5.2 7.1h4.2l-6.2-7.9 5.9-6.6h-4l-5.1 6.1zm13.8 5.6V4.9h-3.4v14.6h11.4v3.3h3l.1-6.1h-2.1V4.9h-3.4v11.7h-5.6zm15.3-5.9v-3h8V4.9h-11.5v14.5h11.7v-2.8h-8.3v-3.3h7.1v-2.7l-7 .1zm12.8-3h5.5v11.7h3.4V4.9h-12.3v14.5h3.4V7.7zm14.5 0v11.7h3.4V7.7h4.4V4.9h-12.2v2.8h4.4zm-81.5.9c.6 1 .9 2.1 1.1 3.3.3 5.5-6.4 10.3-15 10.8-5.4.3-10.2-1.2-13.2-3.8 3.6 1.8 7.6 2.7 11.6 2.4 9-.5 16-5.4 15.7-10.9 0-.4-.2-.8-.4-1.1H79.2c-.2.7-.4 1.5-.6 2.2 1.1 0 7 .1 7 1.1 0 1.4-6.5 5.2-8.5 5.2-1.3 0-1.6-.4-1.6-1.1.2-1.5.5-3.1 1-4.5l-2-.1c-2 3.1-4.1 4.5-9.4 5.7-.9.2-1.8.4-2.8.4-.9-.6-1.6-1.4-2.2-2.3-.6-1-1-2.2-1.1-3.4C58.7 7 65.4 2.2 74 1.7c5.4-.3 10.2 1.2 13.2 3.8-3.5-2-7.5-2.8-11.5-2.5C67 3.5 60.1 8.1 60 13.5c.1.8.3 1.6.7 2.3.8.2 1.6.3 2.5.3 5.1 0 7.5-2 9.4-4.3-1.7 0-8.8-.4-8.8-2.1 0-1 3-1.4 4.4-1.4 2.3 0 4.7.1 7.1.2.7-1 2.2-3.4 4.3-3.4.2 0 .8 0 .8.2 0 .7-.8 2.5-.9 3.4l11.2-.1zm-15.8 2.6c.4-.7.9-1.3 1.4-2h1.4l-.9 2.1c-.5-.1-1.4 0-1.9-.1zm2-2.8c.2-.2 1.1-1.6 1.8-1.6 0 0 0 .1.1.1V7c-.2.5-.4 1-.7 1.4h-.5c-.2.1-.5.1-.7 0zm6.6 4.6v.2c0 .8-4.4 3.4-5.6 3.4-.1 0-.2-.1-.2-.2-.1-.1-.1-.2-.1-.3.1-1.3.4-2.7.8-4 .8.1 4.5.2 4.9.7.2.1.1.2.2.2zm-8.7-3.8c-.6.7-1 1.3-1.5 1.9-1.1 0-6.8-.4-6.8-1.3 0-.3 1.3-.4 1.7-.4 2-.1 4.5-.1 6.6-.2-.1 0 0 0 0 0z"/>
</svg>