<svg xmlns="http://www.w3.org/2000/svg" viewBox="0 0 113.1 36">
	<path fill="#0061ab" d="M77.5 3.9c-2.9 0-5.5.5-7.6 1.2l.4 4.4c1.9-.7 4-1.1 5.9-1.1 6.9 0 8.7 4.2 9.1 6.9H73.9v4.5h11.5c-.1 4.2-2.9 7.7-8.6 7.7-1.4 0-3.9-.2-6.7-1.3l2.1 5.4c1.5.3 2.9.5 4.3.5 9.3 0 14.6-5.7 14.6-14.5.3-8.6-5.3-13.7-13.6-13.7zm21.3 15.3h3.5c3.1 0 4.9 1.3 4.9 4.1s-1.8 4.1-4.9 4.1h-3.5v-8.2zM93.2 4.3v27.5h10c7.9 0 9.8-5.1 9.8-8 0-3.5-1.7-8.9-9.8-8.9h-4.5V9.1h12V4.3H93.2zM52.2 21L56 9.8h.1l4 11.2h-7.9zm.9-16.7l-11 27.5h6l2.3-6.2h11.3l2.3 6.2h6.3L59.5 4.3h-6.4zM20.9 19.5l-1.4 1.4.9 2.2 2.7-2.7-2.2-.9zM19 21.1h-2l-.9 2.2h3.8l-.9-2.2zm2.1-4.1v2l2.2.9v-3.8l-2.2.9zm-4.6 3.9l-1.4-1.4-2.1.9 2.7 2.7c-.1 0 .8-2.2.8-2.2zm3.9-8l-.9 2.2 1.4 1.4 2.2-.9-2.7-2.7zm-3.4 2h2l.9-2.2h-3.8l.9 2.2zM14.9 19v-2l-2.2-.9v3.8c.1 0 2.2-.9 2.2-.9zm.3-2.5l1.4-1.4-.9-2.2-2.7 2.7 2.2.9zm1.4-5.2h13.3c.5 0 .9.2 1.3.5.4.4.5.8.5 1.3s-.2.9-.5 1.3l3 3c1.2-1.2 1.8-2.8 1.8-4.3s-.6-3.1-1.8-4.3C33 7.6 31.5 7 29.9 7h-9l-4.3 4.3zm5.2 1l9.4 9.4c.3.3.5.8.5 1.3s-.2 1-.5 1.3c-.3.3-.8.5-1.3.5v4.3c1.7 0 3.2-.7 4.3-1.8 1.1-1.1 1.8-2.6 1.8-4.3 0-1.7-.7-3.2-1.8-4.3l-6.3-6.3c0-.1-6.1-.1-6.1-.1zm2.9 4.3v13.3c0 .5-.2.9-.5 1.3-.4.3-.8.5-1.3.5s-.9-.2-1.3-.5l-3.1 3c1.2 1.2 2.8 1.8 4.3 1.8s3.1-.6 4.3-1.8c1.2-1.2 1.8-2.8 1.8-4.3v-9c.1 0-4.2-4.3-4.2-4.3zm-.9 5.1l-9.4 9.4c-.3.3-.8.5-1.3.5s-.9-.2-1.3-.5c-.3-.3-.5-.8-.5-1.3H7c0 1.7.7 3.2 1.8 4.3 1.1 1.1 2.6 1.8 4.3 1.8 1.7 0 3.2-.7 4.3-1.8l6.3-6.4c.1.1.1-6 .1-6zm-4.4 3H6.1c-.5 0-.9-.2-1.3-.5-.4-.4-.5-.8-.5-1.3s.2-.9.5-1.3l-3-3C.6 19.8 0 21.3 0 22.9c0 1.6.6 3.1 1.8 4.3C3 28.4 4.6 29 6.1 29h9l4.3-4.3zm-5.2-1l-9.4-9.4c-.3-.3-.5-.8-.5-1.3s.2-1 .5-1.3c.3-.3.8-.5 1.3-.5V6.9c-1.7 0-3.2.7-4.3 1.8C.7 9.8 0 11.3 0 13c0 1.7.7 3.2 1.8 4.3l6.3 6.3c0 .1 6.1.1 6.1.1zm-2.9-4.3V6.1c0-.5.2-.9.5-1.3s.8-.5 1.3-.5.9.2 1.3.5l3.1-3C16.2.6 14.7 0 13.1 0S10 .6 8.8 1.8C7.6 3 7 4.5 7 6.1v9l4.3 4.3zm1-5.1l9.4-9.4c.3-.4.8-.6 1.3-.6s.9.2 1.3.5c.3.3.5.8.5 1.3h4.3c0-1.7-.7-3.2-1.8-4.3S24.6 0 23 0c-1.7 0-3.2.7-4.3 1.8l-6.3 6.3c-.1.1-.1 6.2-.1 6.2zm6.8 6.3l1.5-1.5v-2.2l-1.5-1.5h-2.2l-1.5 1.5v2.2l1.5 1.5h2.2zm-3.5 3.1l-3.4-3.4v-4.8l3.4-3.4h4.8l3.4 3.4v4.8l-3.4 3.4h-4.8z"/>
</svg>