<svg xmlns="http://www.w3.org/2000/svg" viewBox="0 0 150 33.5">
	<path fill="#002537" d="M33.4.2H22.9v10.5h10.6L33.4.2zM48.8 9.5l1.9-.1c1.5 0 2.6-.4 3.5-1.2.8-.8 1.2-1.9 1.2-3.3 0-1.3-.4-2.5-1.2-3.4-.8-.8-2-1.3-3.4-1.3h-4.9v14.4h2.9V9.5zm0-7h2.1c.5 0 .9.3 1.2.7.3.4.5.9.5 1.7s-.2 1.2-.5 1.6c-.4.4-.8.6-1.3.6h-2V2.5zM59.5.2L55 14.5h3l.8-2.9h3.9l.8 2.9h3.1L62.1.2h-2.6zm0 8.9L60.8 4l1.4 5.1h-2.7zm13.2 5.5c1.5 0 2.7-.4 3.6-1.2.8-.8 1.3-2.2 1.4-3.8h-3c0 .9-.2 1.6-.5 2s-.8.6-1.6.6-1.3-.2-1.6-.8c-.3-.5-.5-1.5-.5-2.9V5.8c0-1.2.2-2.1.5-2.6.4-.6.9-.8 1.7-.8s1.3.2 1.6.6c.3.4.5 1 .5 2.1h2.9c-.2-1.6-.6-2.9-1.4-3.8-.8-.8-2-1.3-3.6-1.3s-2.8.6-3.8 1.6c-.8 1-1.3 2.5-1.3 4.5v2.4c0 2.1.5 3.6 1.3 4.6 1 1 2.2 1.5 3.8 1.5zm14-.1h2.9V.2L86.7.1v6.5c-.8.2-1.4.3-2.2.3-.8 0-1.2-.2-1.5-.6-.3-.4-.5-.9-.5-1.8V.1h-2.9v4.6c.1 1.5.5 2.6 1.3 3.4s2 1.2 3.6 1.2c.7 0 1.4-.1 2.2-.3v5.5zm13.7-2.5h-5.3V8.3h4.4V6H95V2.6h5.3V.2h-8.2v14.3h8.3V12zm7.8 2.5v-12h3.6V.1h-10v2.4h3.5v12h2.9zm8.3-6.1h4.3v6.1h2.9V.2h-2.9V6h-4.3V.2h-2.9v14.3h2.9V8.4zM136.3.2h2.9v14.3h-2.9V.2zm-5.5 5.1h-1.7V.2h-2.9v14.2h4.8c1.4 0 2.5-.5 3.4-1.3.8-.8 1.2-1.9 1.2-3.3s-.5-2.4-1.3-3.3c-.8-.9-2.1-1.2-3.5-1.2zm1.4 6.2c-.3.5-.8.7-1.3.7h-1.8V7.9h1.8c.6 0 1 .2 1.3.6s.5.8.5 1.5c0 .5-.2 1-.5 1.5zm12.4.5V8.3h4.6l-.1-2.3h-4.5V2.6h5.3V.2h-8.2v14.3h8.3V12h-5.4zm-93.8 7.2h-4.9v14.3h2.9v-5.1h1.9c1.5 0 2.6-.4 3.5-1.2.8-.8 1.2-1.9 1.2-3.3 0-1.3-.4-2.5-1.2-3.4-.8-.9-2-1.3-3.4-1.3zm1.3 6.2c-.4.4-.8.6-1.3.6h-2v-4.5h2.1c.5 0 .9.2 1.2.7.3.4.5.9.5 1.7 0 .7-.2 1.2-.5 1.5zm8.5 1.8H65V25h-4.5v-3.4h5.3v-2.4h-8.1v14.2h8.2V31h-5.3v-3.8zm18.8 3.9h-2.9V19.2h-3v11.9h-2.9V19.2h-2.9v14.2h14.6V19.2h-2.9v11.9zm8.2-3.9h4.5L92 25h-4.5v-3.4h5.4v-2.4h-8.2v14.2H93V31h-5.4v-3.8zM102 25h-4.3v-5.8h-2.9v14.2h2.9v-6.1h4.3v6.1h2.9V19.2H102V25zm8.2 3.6v-9.4h-2.9v14.2h2.9l4.2-9.5v9.5h2.9V19.2h-2.9l-4.2 9.4zm10.2-8.3c-.8.8-1.2 1.9-1.2 3.3 0 1.6.6 2.8 1.8 3.7l-2.5 6.2h3.1l2.2-5.2h1.5v5.2h2.9V19.2h-4.3c-1.6 0-2.7.3-3.5 1.1zm4.8 5.7h-1.3c-.6 0-1-.2-1.3-.6-.4-.3-.5-.9-.5-1.7 0-1.5.6-2.3 1.7-2.3h1.4V26z"/>
	<path fill="#d2e0f1" d="M10.5.2H0v10.4h10.5V.2z"/>
	<path fill="#5d993b" d="M33.4 11.5H22.9V22h10.6l-.1-10.5z"/>
	<path fill="#a4c1e2" d="M22 .2H11.5v10.5H22V.2z"/>
	<path fill="#f5d500" d="M22 11.5H11.5V22H22V11.5z"/>
	<path fill="#b0c86e" d="M33.4 22.9H22.9v10.5h10.6l-.1-10.5z"/>
</svg>