<svg xmlns="http://www.w3.org/2000/svg" viewBox="0 0 159 40">
	<g fill="#006d46">
		<path d="M19.8 26.1l7.4-4.3v-5.7l-7.4 4.3v5.7z"/>
		<path d="M36.6 10.7l-2.9 1.7c1.2 2.3 1.8 4.9 1.8 7.6 0 2.6-.6 5.2-1.8 7.6-1.2 2.3-2.9 4.4-5.1 5.9-2.1 1.5-4.6 2.6-7.2 3v-3.6l5.8-3.4v-5.7L19.8 28v11.9c5.1-.2 10-2.4 13.5-6.1 3.6-3.7 5.6-8.6 5.6-13.8 0-3.2-.8-6.4-2.3-9.3M61 35.9c.2-.3.3-.6.4-.9.1-.3.2-.6.4-.8.1-.1.2-.1.4-.2H62.8v-.8h-.3c-.4 0-.8.1-1.2.3-.3.3-.6.6-.7 1 0 .1-.1.2-.1.3 0 .1-.1.3-.2.4-.1.3-.3.5-.5.7-.2.2-.5.3-.8.3v-3h-.8v6.7h.9v-3h.6l2.4 3h1.1l-2.7-3.5c.2-.1.4-.3.5-.5zm7.4-1.9c-.3-.3-.6-.5-.9-.7-.4-.2-.8-.3-1.2-.3-.4 0-.8.1-1.2.2-.4.1-.7.4-.9.7-.2.3-.4.7-.6 1.1-.3 1-.3 2 0 3 .1.4.3.8.6 1.1.2.3.6.5.9.7.4.2.8.2 1.2.2.4 0 .8-.1 1.2-.2.4-.1.7-.4 1-.7.3-.3.5-.7.6-1.1.3-1 .3-2 0-3-.2-.4-.4-.7-.7-1 .1-.1 0 0 0 0zm-.6 4.6c-.2.2-.4.4-.7.5-.3.1-.5.2-.8.2-.3 0-.6-.1-.8-.2-.3-.1-.5-.3-.7-.5-.4-.6-.6-1.3-.6-2 0-.4 0-.8.2-1.2.1-.3.2-.6.4-.8.2-.2.4-.4.6-.5.5-.2 1.1-.2 1.7 0 .3.1.5.3.6.5.2.3.3.5.4.8.1.4.2.8.2 1.2.1.7-.1 1.4-.5 2zm5.3-1.6l-1.7-3.7h-1.2V40h.8v-5.8l1.7 3.9h.5l1.8-3.9V40h.9v-6.6h-1.2c0-.2-1.6 3.6-1.6 3.6zm7 0l-1.6-3.7h-1.2V40h.7v-5.8l1.8 3.9h.6l1.7-3.9V40h.9v-6.6h-1.2c0-.2-1.7 3.6-1.7 3.6zm4.2 3h4.2v-.8h-3.3v-2.5h3.1v-.8h-3.1V34h3.3v-.8h-4.2V40zm8.5-6.3c-.2-.2-.5-.3-.7-.3-.3-.1-.7-.1-1-.1h-1.6V40h.9v-2.5h.8c.4 0 .8 0 1.2-.2.3-.1.6-.3.8-.5.2-.2.3-.4.4-.6.1-.3.2-.6.2-.8 0-.3-.1-.7-.2-1-.1-.3-.3-.5-.6-.7h-.2zm-.2 2.2c-.1.2-.1.3-.3.4-.2.2-.3.3-.6.3-.3.1-.6.1-.9.1h-.6V34h1.5c.2 0 .3.1.5.2s.3.2.4.4c.1.2.1.4.1.6 0 .2 0 .4-.1.7zm5.5.5c-.3.1-.6.2-.8.2-.3 0-.6.1-.8.1-.2 0-.5 0-.7-.1-.2-.1-.3-.2-.4-.3-.1-.1-.1-.3-.2-.5v-2.5h-.9v2.3c0 .3 0 .6.2.9.1.2.2.4.4.6.2.2.4.3.6.3.3.1.5.1.8.1.3 0 .6 0 .9-.1.3-.1.7-.2 1-.3v2.8h.8v-6.6h-.9v3.1zm2.2 3.6h4.2v-.8h-3.3v-2.5h3v-.8h-3V34h3.3v-.8h-4.2V40zm8.9-6.6l-.6-.1c-.5-.1-1-.1-1.5.1s-.9.4-1.3.8c-.3.3-.5.7-.6 1.1-.1.5-.2 1-.2 1.4 0 .5.1.9.3 1.4.1.4.3.8.6 1.1.3.3.6.5 1 .6.4.2.8.2 1.2.2h.6c.2 0 .4-.1.6-.2.2 0 .3-.1.5-.2.1-.1.3-.1.4-.2v-1h-.1c-.1.1-.2.2-.3.2-.1.1-.3.2-.4.3-.2.1-.4.2-.6.2-.2.1-.5.1-.7.1-.3 0-.5 0-.8-.2-.2-.1-.5-.3-.6-.5-.2-.2-.4-.5-.4-.8-.1-.4-.2-.8-.2-1.2 0-.4 0-.8.2-1.2.1-.3.2-.6.4-.8.2-.2.4-.4.7-.5.3-.1.5-.2.8-.2.2 0 .5 0 .7.1.2 0 .4.1.6.2.2.1.3.2.4.3.1.1.2.2.3.2h.1v-1.1l-.4-.2-.7.1zm4.5 2.6c.2-.3.3-.6.4-.9.1-.3.2-.6.4-.8.1-.1.2-.1.4-.2H115.5v-.8h-.3c-.4 0-.8.1-1.2.3-.3.3-.6.6-.7 1 0 .1-.1.2-.1.3 0 .1-.1.3-.2.4-.1.3-.3.5-.5.7-.2.2-.5.3-.8.3v-3h-.7V40h.9v-3h.6l2.4 3h1.1l-2.7-3.5c.1-.2.3-.3.4-.5zm3.7 2.5v-5.2h-.9V40h.9l3-5.3V40h.9v-6.8h-1l-2.9 5.3zm7.7-6.3c-.1 0-.2 0-.3-.1-.1 0-.2-.1-.3-.2-.2-.2-.2-.5-.2-.7h-.8c0 .2 0 .4.1.6.1.2.2.4.3.5.2.2.5.4.8.5.3.1.7.1 1-.1.3-.1.6-.3.8-.6.2-.3.3-.6.3-.9h-.8c0 .3-.1.5-.2.7-.1.1-.2.1-.3.2-.1.1-.3.1-.4.1zm-1.6 6.3v-5.2h-.9V40h.9l3-5.3V40h.9v-6.8h-.9l-3 5.3zm12-2.1c-.2-.2-.5-.3-.8-.4-.4-.1-.7-.1-1.1-.1h-1.1V34h3.2v-.8h-4v6.7h1.9c.4 0 .8 0 1.1-.1.3-.1.6-.2.8-.4.2-.2.4-.4.5-.6.1-.3.2-.6.2-.9 0-.3 0-.6-.2-.9-.1-.3-.2-.6-.5-.6 0-.1 0 0 0 0zm-.4 2.1c-.1.2-.2.3-.4.4-.2.1-.4.2-.6.2H132.4v-2.5H134.1c.2 0 .4.1.6.2.1.1.3.2.4.4.1.2.1.4.1.6.1.2.1.4-.1.7.1 0 0 0 0 0zm3.5-5.2l-2.2 6.7h.9l.6-1.9h2.6l.5 1.9h.9l-2.2-6.7h-1.1zm-.6 4l1-3.2 1 3.2h-2zm8.5-1.4h-3.1v-2.7h-.9v6.7h.9v-3.3h3.1v3.3h.9v-6.7h-.9v2.7zm5 0c.2-.3.3-.6.4-.9.1-.3.2-.6.4-.8.1-.1.2-.1.4-.2H153.3v-.8h-.3c-.4 0-.8.1-1.2.3-.3.3-.6.6-.7 1 0 .1-.1.2-.1.3 0 .1-.1.3-.2.4-.1.3-.3.5-.5.7-.2.2-.5.3-.8.3v-3h-.9v6.7h.9v-3h.6l2.4 3h1.1l-2.7-3.5c.2-.2.4-.3.6-.5zm-90.1-9.3h3.4l-4.5-13.3h-3.6l-4.5 13.3h3.4l.8-2.7h4.2l.8 2.7zm-4.3-5.1l1.4-4.4 1.4 4.4h-2.8zm18-8.2h-9v13.3h3.4V15.8H75l.1-2.5zm10.5 7.4c.4-.4.7-.9.8-1.4.2-.6.3-1.2.3-1.8 0-.7-.1-1.4-.4-2-.3-.5-.7-1-1.2-1.3-.5-.3-1-.5-1.5-.7-.7-.2-1.3-.2-2-.2h-5.2v13.3h3.3v-4.4h1.8c.4 0 .9 0 1.3-.1s.7-.2 1.1-.3c.3-.1.6-.3.9-.5.3-.2.5-.4.8-.6zm-2.4-2.1c-.1.3-.2.5-.4.7-.1.1-.3.2-.4.3-.2.1-.4.1-.6.2-.2 0-.4 0-.7.1h-1.2v-4h1.7c.3 0 .6.1.9.2.3.1.5.3.6.6.2.3.3.6.3 1-.1.2-.1.5-.2.9zm17.4 1.4c.1-1.9-.5-3.7-1.7-5.1-1.3-1.2-3-1.9-4.7-1.9s-3.4.7-4.7 1.9c-1.2 1.4-1.8 3.3-1.7 5.1-.1 1.8.5 3.6 1.7 5 1.3 1.2 3 1.9 4.7 1.9s3.4-.7 4.7-1.9c1.1-1.4 1.7-3.2 1.7-5zm-3.7 2c-.1.5-.4 1-.7 1.4-.3.3-.6.6-1 .8-.4.2-.8.2-1.2.2-.4 0-.8-.1-1.1-.2-.4-.2-.7-.5-1-.8-.3-.4-.5-.9-.7-1.4-.2-.7-.3-1.3-.2-2 0-.7.1-1.3.2-2 .1-.5.4-1 .7-1.4.3-.3.6-.6 1-.8.4-.2.7-.2 1.1-.2.4 0 .8.1 1.1.2.4.2.8.4 1 .8.3.4.5.9.6 1.4.2.7.3 1.3.2 2 .2.7.2 1.4 0 2zm15.9 3.7v-3.1h-.3c-.2.2-.4.3-.6.5-.3.2-.5.4-.8.6-.3.2-.6.4-1 .5-.4.1-.8.2-1.2.2-.4 0-.9-.1-1.3-.2-.4-.2-.8-.4-1.2-.7-.4-.4-.7-.9-.9-1.4-.2-.7-.3-1.4-.3-2.1 0-.7.1-1.4.3-2 .2-.5.4-1 .8-1.4.3-.3.7-.6 1.2-.8.4-.2.9-.2 1.3-.2s.8.1 1.2.2c.4.1.7.3 1 .5.3.2.6.4.8.6.2.2.4.4.6.5h.4v-3.2c-.2-.1-.5-.2-.9-.4-.3-.1-.7-.3-1-.4-.4-.1-.8-.2-1.2-.2-.4 0-.9-.1-1.4-.1-.9 0-1.7.1-2.6.5s-1.5.8-2.2 1.5c-1.2 1.4-1.8 3.2-1.8 5-.1.9.1 1.8.4 2.7s.8 1.7 1.4 2.4c.6.6 1.4 1.1 2.2 1.4.8.3 1.7.4 2.6.4.5 0 1 0 1.5-.1l1.2-.3 1-.4c.2-.2.5-.4.8-.5zm7.6 1.2c.9 0 1.8-.1 2.6-.4.8-.3 1.6-.8 2.2-1.5 1.2-1.4 1.8-3.2 1.7-5 .1-1.9-.5-3.7-1.7-5.1-1.3-1.2-3-1.9-4.7-1.9s-3.4.7-4.7 1.9c-1.2 1.4-1.8 3.2-1.7 5.1-.1 1.8.5 3.6 1.7 5 .6.6 1.3 1.1 2.1 1.4.8.4 1.6.5 2.5.5zm-2.7-9c.1-.5.4-1 .7-1.4.3-.3.6-.6 1-.8.4-.2.7-.2 1.1-.2.4 0 .8.1 1.1.2.4.2.8.4 1 .8.3.4.5.9.6 1.4.2.7.3 1.3.2 2 0 .7-.1 1.3-.2 2-.1.5-.4 1-.7 1.4-.3.3-.6.6-1 .8-.4.2-.8.2-1.2.2-.4 0-.8-.1-1.1-.2-.4-.2-.7-.5-1-.8-.3-.4-.5-.9-.7-1.4-.2-.7-.3-1.3-.2-2 .1-.7.2-1.4.4-2zm23.4-4.9c-1.5-.1-3 .4-4.1 1.4-1.1 1-1.9 2.3-2.1 3.8h-2.8v-4.8h-3.3v13.3h3.3v-5.9h2.7c0 1.7.7 3.3 1.8 4.5.6.6 1.3 1 2 1.3.8.3 1.6.4 2.4.4.9 0 1.8-.1 2.7-.5.8-.3 1.5-.8 2-1.4.5-.6 1-1.4 1.2-2.2.3-.9.4-1.9.4-2.8.1-1.8-.5-3.7-1.7-5.1-.6-.6-1.3-1.1-2.1-1.4-.7-.5-1.5-.6-2.4-.6zm2.7 8.8c-.1.5-.3 1-.6 1.4-.2.3-.6.6-.9.8-.4.2-.7.2-1.1.2s-.8-.1-1.1-.2c-.4-.2-.7-.4-.9-.8-.3-.4-.5-.9-.6-1.4-.2-.7-.3-1.3-.2-2 0-.7.1-1.3.2-2 .1-.5.3-.9.6-1.4.3-.3.6-.6 1-.8.3-.2.7-.2 1.1-.2.4 0 .8.1 1.1.2.4.2.7.4 1 .8.3.4.5.9.6 1.4.2.7.3 1.3.2 2-.1.9-.2 1.5-.4 2zm14.9-.6c-.2-.4-.4-.7-.7-1l-.9-.6c-.3-.1-.7-.2-1-.3v-.1c.7-.2 1.3-.5 1.8-1.1.5-.6.7-1.3.7-2 0-.5-.1-.9-.3-1.3-.2-.4-.6-.8-1-1-1.2-.6-2.5-.9-3.8-.8-.9 0-1.9.1-2.8.3-.6.1-1.3.3-1.9.6v2.8h.3l.6-.3c.3-.2.6-.3.9-.4.3-.1.7-.2 1-.3.4-.1.7-.1 1.1-.1.6 0 1.2.1 1.7.3.2.1.4.2.5.4.1.2.2.4.2.6 0 .2 0 .4-.1.6-.1.2-.2.4-.4.5-.6.3-1.2.4-1.8.4H151v2.4h1.9c.7-.1 1.4.1 2.1.4.2.1.3.3.4.6.1.2.1.5.1.7 0 .3-.1.6-.2.9-.1.3-.4.5-.6.6-.7.4-1.4.5-2.2.5-.7 0-1.4-.2-2.1-.4-.6-.2-1.2-.5-1.8-.9h-.3v3c.7.3 1.4.5 2.2.6.8.2 1.6.2 2.5.2 1.5.1 3.1-.3 4.4-1.1.5-.3.9-.8 1.1-1.3.3-.5.4-1.1.4-1.7.2-.7.1-1.2-.2-1.7z"/>
	</g>
	<g fill="#f78429">
		<path d="M19 0C13.9.3 9.2 2.4 5.7 6 2.1 9.7.1 14.5 0 19.6c-.1 5.1 1.7 10 5.1 13.7 3.4 3.8 8 6.1 13.1 6.6V28l-7.5-4.3v5.7l5.8 3.4v3.6c-2.8-.4-5.4-1.5-7.6-3.2s-4-3.9-5.1-6.4c-1.1-2.5-1.6-5.3-1.4-8.1.2-2.8 1.1-5.5 2.6-7.8s3.6-4.3 6-5.6c2.4-1.3 5.2-2 8-2s5.5.7 8 2c2.4 1.3 4.5 3.3 6 5.6l2.9-1.7c-1.8-2.8-4.3-5.2-7.2-6.8C25.6.9 22.4 0 19 0z"/>
		<path d="M18.1 26.1l-7.5-4.3v-5.7l7.5 4.3v5.7zM19 9.5l-8.4 4.7L19 19l8.3-4.8L19 9.5z"/>
	</g>
</svg>