<svg xmlns="http://www.w3.org/2000/svg" viewBox="0 0 160 35.5">
	<path fill="#373a36" d="M55.3 8.2c-.3-.8-.7-1-1.6-1h-2.4c-.9 0-1.2.2-1.5 1l-7.5 19.9c-.3.9-.1 1.2.9 1.2h2.1c1.5 0 2-.2 2.3-1.2l1-2.9h7.7l1 2.9c.3.9.7 1.2 2.3 1.2h2.3c.9 0 1.2-.4.9-1.2L55.3 8.2zm-5.4 13l1.7-4.8c.7-2.2.7-3.8.7-3.8h.3s.1 1.6.8 3.9l1.6 4.8-5.1-.1zm26.7-14H61.7c-1 0-1.3.3-1.3 1.3v2.1c0 .9.3 1.2 1.3 1.2h4.9V28c0 1 .3 1.3 1.2 1.3h2.5c1 0 1.3-.3 1.3-1.3V11.8h4.8c1 0 1.3-.3 1.3-1.2V8.5c.1-1-.2-1.3-1.1-1.3zm13.3 8.1h-5v-3.6h9.4c.9 0 1.3-.4 1.3-1.3v-2c0-1-.4-1.3-1.3-1.3H81c-.9 0-1.3.3-1.3 1.3v19.7c0 .9.4 1.2 1.2 1.2h8.9c4.3 0 7.1-2.7 7.1-7 .1-4.3-2.7-7-7-7zm-.8 9.5h-4.4v-5h4.4c1.7 0 2.6 1 2.6 2.5.1 1.6-.9 2.5-2.6 2.5zm17.7 8.5h.4v-30h-.4v30zm11.5-21.4c-.3 0-.8-.1-1-.4l-.2.3c.2.2.9.4 1.3.4.8 0 1.3-.4 1.3-1 0-.4-.2-.7-.7-.8.4-.2.6-.5.6-.8 0-.6-.4-.9-1.2-.9-.5 0-1 .2-1.2.4l.2.3c.2-.2.6-.4 1-.4s.9.2.9.6-.3.6-.7.6h-.6v.3h.6c.5 0 .8.2.8.6-.1.6-.4.8-1.1.8zm16.7-3h-.4v3.3h.4V8.9zm8.7 1.3H142v.4h1.7v-.4zm-6.2 2l-1.8-1.7 1.7-1.6h-.5l-1.6 1.6 1.7 1.7h.5zm-14.2-2.8v2.8h.4V8.9h-.4l-2.2 2.8V8.9h-.4v3.3h.4l2.2-2.8zm-10.4 1h2.5l.7 1.8h.4L114.2 7h-.3l-2.3 5.2h.4l.9-1.8zm1.2-2.9l1 2.5H113c0 .1 1.1-2.5 1.1-2.5zm14.8 4.7h.4V9.3h1.3v-.4h-3v.4h1.4l-.1 2.9zm10.5-3.4c-1 0-1.7.7-1.7 1.7s.7 1.7 1.7 1.7 1.7-.7 1.7-1.7-.6-1.7-1.7-1.7zm0 3.1c-.8 0-1.4-.6-1.4-1.3 0-.8.6-1.3 1.4-1.3.8 0 1.3.6 1.3 1.3 0 .7-.5 1.3-1.3 1.3zm-13.6-3.1c-.4 0-.7.1-1 .3l.1.3c.3-.2.6-.2.9-.2.9 0 .9.5.9 1.3-.2-.2-.6-.2-.9-.2-.7 0-1.3.4-1.3 1s.4 1 1 1 .9-.2 1.2-.6v.5h.4v-2.1c-.1-.8-.4-1.3-1.3-1.3zm.8 2.5c-.2.2-.4.6-1 .6-.4 0-.7-.2-.7-.7 0-.5.4-.7.9-.7.4 0 .6.1.9.2-.1.1-.1.6-.1.6zm7.3.4l-.2-.3c-.2.2-.6.4-1 .4-.8 0-1.4-.6-1.4-1.3 0-.8.6-1.3 1.3-1.3.4 0 .7.1 1 .4l.2-.3c-.3-.3-.8-.4-1.3-.4-.9 0-1.7.7-1.7 1.7s.7 1.7 1.8 1.7c.5 0 1-.2 1.3-.6zm5.7 5.4c-.4 0-.7.1-1 .3l.1.3c.3-.2.6-.2.9-.2.9 0 .9.5.9 1.3-.2-.2-.6-.2-.9-.2-.7 0-1.3.4-1.3 1s.4 1 1 1 .9-.2 1.2-.6v.5h.4v-2.1c0-.8-.3-1.3-1.3-1.3zm.8 2.6c-.2.2-.4.6-1 .6-.4 0-.7-.2-.7-.7 0-.5.4-.7.9-.7.4 0 .6.1.9.2-.1 0-.1.6-.1.6zm-6.2-2.5h-.5l-1.6 1.6 1.7 1.7h.5l-1.8-1.7 1.7-1.6zm10.2 1.5h-2.1v-1.5h-.4v3.3h.4V19h2.1v1.5h.4v-3.4h-.4v1.6zm-8.2-1.6c-1.1 0-1.7.7-1.7 1.7s.7 1.7 1.8 1.7c.4 0 .9-.2 1.2-.5l-.1-.3c-.2.2-.6.4-1.1.4-.8 0-1.4-.5-1.4-1.3h2.8v-.3c0-.8-.6-1.4-1.5-1.4zm-1.3 1.5c.1-.7.5-1.1 1.2-1.1s1.2.4 1.2 1.1h-2.4zm18.4 1.3v-2.8h-.4v3.3h.4l2.2-2.8v2.8h.4v-3.3h-.4l-2.2 2.8zm6.3-2.7l-2.2 2.8v-2.8h-.4v3.3h.4l2.2-2.8v2.8h.4v-3.3h-.4zm-1.1-.8c.6 0 1-.4 1-.9h-.4c0 .4-.2.7-.7.7-.4 0-.7-.3-.7-.7h-.4c.2.5.6.9 1.2.9zm-44.9 4.1h.4v-4.8h1.9v-.4h-4.2v.4h1.9v4.8zm33.8-.3c-.8 0-1.4-.6-1.4-1.3 0-.8.6-1.3 1.3-1.3.4 0 .7.1 1 .4l.2-.3c-.3-.3-.8-.4-1.3-.4-.9 0-1.7.7-1.7 1.7s.7 1.7 1.8 1.7c.5 0 1-.2 1.2-.6l-.2-.3c0 .2-.4.4-.9.4zm4.7-3h-.5l-1.6 1.6 1.7 1.7h.5l-1.8-1.7 1.7-1.6zm-2.7 3.3h.4v-3.3h-.4v3.3zm-20.5-3.4c-1 0-1.7.7-1.7 1.7s.7 1.7 1.7 1.7 1.7-.7 1.7-1.7-.7-1.7-1.7-1.7zm0 3.1c-.8 0-1.4-.6-1.4-1.3 0-.8.6-1.3 1.4-1.3.8 0 1.3.6 1.3 1.3 0 .7-.6 1.3-1.3 1.3zm-2.5-1.4c0-1-.7-1.7-1.7-1.7s-1.7.7-1.7 1.7.7 1.7 1.7 1.7c1.1.1 1.7-.6 1.7-1.7zm-3 0c0-.8.6-1.3 1.4-1.3.8 0 1.3.6 1.3 1.3 0 .8-.6 1.3-1.3 1.3-.9.1-1.4-.5-1.4-1.3zm8.1 1.7h.4v-3.3h-.4v3.3zm-9.3 0h.5l-1.3-1.7 1.2-1.6h-.4l-1 1.3-1-1.3h-.5l1.2 1.6-1.3 1.7h.4l1-1.5 1.2 1.5zm-3.9 0h.4v-3.3h-.4l-2.2 2.8v-2.8h-.4v3.3h.4l2.2-2.8v2.8zm8.4 5h-.5l-1.6 1.6 1.7 1.7h.5l-1.8-1.7 1.7-1.6zm-9-.1c-.4 0-.7.1-1 .3l.1.3c.3-.2.6-.2.9-.2.8 0 .9.5.9 1.3-.2-.2-.6-.2-.9-.2-.7 0-1.3.4-1.3 1s.4 1 1 1 .9-.2 1.2-.6v.6h.4v-2.1c0-.9-.3-1.4-1.3-1.4zm.8 2.6c-.2.2-.4.6-1 .6-.4 0-.7-.2-.7-.7 0-.5.4-.7.9-.7.4 0 .6.1.9.2v.6zm5.5.8h.4v-3.3h-.4v3.3zm-1.5-1.9h-2.1v-1.5h-.4v3.4h.4v-1.5h2.1v1.5h.4v-3.3h-.4v1.4zm-8.7-1.1c-.2 0-.6 0-.9.1V24h2.5v-.4h-2.8v5.2h1.2c1.2 0 2-.6 2-1.6-.2-.9-.8-1.4-2-1.4zm-.1 2.7h-.8v-2.3c.3-.1.6-.1.9-.1 1 0 1.5.4 1.5 1.1 0 .8-.6 1.3-1.6 1.3z"/>
	<path fill="#fe5000" d="M29.6 0H5.9C2.6 0 0 2.6 0 5.9v23.7c0 3.3 2.6 5.9 5.9 5.9h23.6c3.3 0 5.9-2.6 5.9-5.9V5.9c.1-3.3-2.6-5.9-5.8-5.9zm4 29c-.1.1-.2.1-.2.1-4.5-2.8-9.9-4.4-15.6-4.4-5.8 0-11.2 1.6-15.7 4.3-.1.1-.2 0-.3 0-.1-.1 0-.2.1-.2 4.2-3.2 7.7-7.2 10.5-12s4.5-9.9 5.2-15.1c0-.1.1-.2.2-.2s.2.1.2.2c.7 5.2 2.4 10.3 5.2 15.1 2.8 4.8 6.4 8.8 10.5 12l-.1.2z"/>
</svg>