<svg viewBox="0 0 180 20" xmlns="http://www.w3.org/2000/svg">
	<path fill="#231F20" d="M121.311 8.07974c1.276 0 2.658.10632 3.934.42529.957.31896 1.808.95688 2.339 1.91377.638.9569.957 2.1264.957 3.2959.106 1.5948-.531 3.0833-1.595 4.1465-1.276 1.1695-2.977 1.7011-4.678 1.5948h-7.761V.318359h12.865l-1.276 2.445371c-.107.21264-.319.31896-.638.31896h-7.443v4.99705h3.296Zm-3.296 8.39936h3.828c2.126 0 3.19-.9569 3.296-2.8707 0-.7442-.213-1.4885-.744-2.0201-.851-.6379-1.808-.8505-2.871-.7442h-3.509v5.635Zm10.739 2.9769L135.133.318359h4.253L145.765 19.456h-3.721l-1.489-4.5718h-7.336l-1.488 4.5718h-2.977Zm8.08-15.84171-2.764 8.50561h5.529l-2.765-8.50561ZM158.099.318359V8.18607h-7.336V.318359h-3.403V19.456h3.403v-8.293h7.336v8.293h3.402V.318359h-3.402Zm21.157 0-4.572 6.272901L180 19.5623h-3.827l-4.041-9.78143-3.721 4.89073v4.7844h-3.402V.318359h3.402V10.3125c.114-.1709.22-.33422.319-.48578.27-.41413.482-.74074.638-.89641l6.379-8.611951h3.509Z"/>
	<path fill="#4C5C65" d="M45.079.212891c1.9137 0 3.6149.850559 4.7844 2.339049 1.5948 2.12641 2.339 4.67809 2.1264 7.12346.2126 2.5517-.6379 5.1034-2.1264 7.2298-2.1264 2.658-5.8476 3.0833-8.5056 1.0632-.4253-.319-.7443-.6379-1.0632-1.0632-1.4885-2.1264-2.3391-4.6781-2.1264-7.33612 0-1.38216.1063-2.76433.5316-4.04017.4252-1.70113 1.4884-3.18961 2.8706-4.25282C42.6336.531852 43.8031.212891 45.079.212891ZM47.3117 16.0546c.8506-.7442 1.4885-1.8074 1.7011-2.9769.319-1.0632.4253-2.2328.4253-3.29598 0-1.91376-.4253-3.72121-1.2758-5.31602-.638-1.16952-1.8075-1.80744-3.0833-1.80744-1.2759 0-2.4454.63792-3.0833 1.80744-.9569 1.59481-1.3822 3.40226-1.2759 5.2097-.1063 1.9138.4253 3.7212 1.2759 5.4223.9569 1.5948 3.0833 2.2328 4.7844 1.2759.2126-.1063.4253-.2127.5316-.319ZM0 19.0317 5.42234.531934h2.44537L13.29 19.0317h-2.5516l-1.16957-4.3592H3.72121l-1.16952 4.3592H0ZM6.59186 3.93419 4.35913 12.2272h4.46546L6.59186 3.93419ZM23.9216 8.18656c-.4253.42528-.9569.74424-1.5948.95688 2.2327.42528 3.7212 2.44536 3.4022 4.57176 0 1.4885-.4253 2.7643-1.3822 3.8275-.8505.8506-2.02 1.3822-3.1896 1.3822-.5316.1063-1.4884.1063-2.8706.1063h-3.2959V.637814h3.6148c1.2759-.10632 2.5517.10632 3.8276.425286.8505.31896 1.4885.95688 1.9137 1.70112.319.74424.5316 1.59481.5316 2.44537.1064 1.0632-.2126 2.12641-.9568 2.97697Zm-5.1034-5.2097h-1.2759l.1064 5.2097h1.3821c.8506.10632 1.7012-.10632 2.5517-.42528.7443-.42528 1.1695-1.38217 1.0632-2.23273.1063-.95688-.3189-1.80745-1.1695-2.23273-.8506-.21264-1.8074-.42528-2.658-.31896ZM23.071 14.9911c.1063-.4253.2126-.9569.2126-1.3822.2127-1.1695-.4252-2.2327-1.4884-2.7643-.8506-.2127-1.8075-.319-2.7644-.319h-1.4885v6.1666h1.4885c1.0632 0 2.1264-.1063 3.0833-.4253.4253-.319.8506-.7442.9569-1.2758Zm3.5089-11.90748h4.1465V19.0317h2.4454V2.9773h4.2528V.531934H26.5799V3.08362Zm26.2618 0h4.1465V19.0317h2.4454V2.9773h4.2528V.531934H52.8417V3.08362ZM71.3407.212891c1.9138 0 3.6149.850559 4.7845 2.339049 1.5948 2.12641 2.339 4.67809 2.1264 7.12346.2126 2.5517-.638 5.1034-2.1264 7.2298-2.1264 2.658-5.8477 3.0833-8.5057 1.0632-.4252-.319-.7442-.6379-1.0632-1.0632-1.4885-2.1264-2.339-4.6781-2.1264-7.33612 0-1.38216.1063-2.76433.5316-4.04017.4253-1.70113 1.4885-3.18961 2.8707-4.25282C68.8954.531852 70.0649.212891 71.3407.212891ZM73.5735 16.0546c.8505-.7442 1.4885-1.8074 1.7011-2.9769.319-1.0632.4253-2.2328.4253-3.4023.1063-1.91376-.4253-3.72121-1.2759-5.31602-.6379-1.16952-1.8074-1.80744-3.0833-1.80744-1.2758 0-2.4453.63792-3.0832 1.80744-.9569 1.59481-1.3822 3.40226-1.2759 5.2097-.1063 1.91372.319 3.72122 1.2759 5.42232.9568 1.7011 3.0832 2.3391 4.7844 1.3822.1063-.0532.186-.1063.2658-.1595.0797-.0532.1594-.1063.2658-.1595ZM88.3529 1.06338c-1.4885-.425278-2.977-.637918-4.4655-.531598h-3.1896V18.9252h2.4454v-7.1235h1.0632c.9569 0 1.8074 0 2.4453-.1063 1.2759 0 2.4454-.6379 3.296-1.4885.9569-1.06317 1.3821-2.55165 1.2758-3.93382 0-1.0632-.2126-2.12641-.6379-3.08329-.319-.95688-1.1695-1.70112-2.2327-2.12641Zm0 6.80451c-.2127.5316-.7443.95688-1.2759 1.16952-.9568.21264-1.9137.31896-2.8706.31896h-1.0632V2.97715h1.0632c.7442 0 1.4885 0 2.2327.10632.6379.10632 1.2759.42528 1.7011.95688.4253.63793.638 1.38217.638 2.12641 0 .63792-.1064 1.27584-.4253 1.70113Zm4.8904 11.16381V.531934H102.6V2.9773h-6.805v16.0544h-2.5517Z"/>
	<path fill="#A6CE39" d="M106.64 0h2.764c.319 0 .638.318961.638.637922V19.3503c0 .319-.319.2126-.638.2126h-2.764c-.319 0-.638.1064-.638-.2126V.637922c0-.318961.213-.637922.638-.637922Z"/>
</svg>