<?xml version="1.0" encoding="utf-8"?>
<!-- Generator: Adobe Illustrator 25.4.1, SVG Export Plug-In . SVG Version: 6.00 Build 0)  -->
<svg version="1.1" id="Layer_1" xmlns="http://www.w3.org/2000/svg" xmlns:xlink="http://www.w3.org/1999/xlink" x="0px" y="0px"
	 viewBox="0 0 150 37" style="enable-background:new 0 0 150 37;" xml:space="preserve">
<style type="text/css">
	.st0{fill:url(#SVGID_1_);}
	.st1{fill:url(#SVGID_00000053524020506080895660000003519694630763642549_);}
	.st2{fill:url(#SVGID_00000144321741753315303260000016099169948514607747_);}
	.st3{fill:url(#SVGID_00000168802344089152333420000003169908064950888844_);}
</style>
<g>
	<path d="M99.1,10.5v4.4c0,0.2,0.2,0.4,0.4,0.4h1.7c0.2,0,0.4-0.2,0.4-0.4V3.6c0-0.2-0.2-0.4-0.4-0.4h-1.7c-0.2,0-0.4,0.2-0.4,0.4
		v3.8c0,0.2-0.2,0.4-0.4,0.4h-4.5c-0.2,0-0.4-0.2-0.4-0.4V3.6c0-0.2-0.2-0.4-0.4-0.4h-1.7c-0.2,0-0.4,0.2-0.4,0.4v11.3
		c0,0.2,0.2,0.4,0.4,0.4h1.8c0.2,0,0.4-0.2,0.4-0.4v-4.4c0-0.2,0.2-0.4,0.4-0.4h4.4C98.9,10.1,99.1,10.3,99.1,10.5z"/>
	<path d="M104.8,15.2h1.7c0.3,0,0.4-0.1,0.4-0.4v-4.7c0-0.4,0.5-0.5,0.8-0.3l4.1,5c0.1,0.1,0.3,0.2,0.5,0.2h2c0.4,0,0.6-0.4,0.4-0.6
		L110.2,9c-0.1-0.1-0.1-0.4,0-0.5l3.8-4.7c0.1-0.3,0-0.6-0.4-0.6h-1.9c-0.1,0-0.3,0-0.4,0.1l-3.7,4.6c-0.3,0.3-0.8,0.1-0.8-0.3v-4
		c0-0.3-0.1-0.4-0.4-0.4h-1.7c-0.3,0-0.4,0.1-0.4,0.4v11.3C104.4,15.1,104.6,15.2,104.8,15.2z"/>
	<path d="M72.2,24.1c0.6-0.4,1.3-0.5,2-0.5c1.3,0,2.4,0.5,3.2,1.7c0.3,0.3,0.5,0.3,0.6,0.1l1.2-0.9c0.3-0.1,0.3-0.4,0.1-0.5
		c-0.5-0.9-1.3-1.4-2-1.9c-0.9-0.5-1.9-0.8-3.1-0.8c-1.2,0-2.2,0.3-3.2,0.8c-0.9,0.6-1.8,1.4-2.3,2.3c-0.6,1-0.9,2-0.9,3.2
		s0.4,2.3,0.9,3.2c0.5,1,1.3,1.8,2.3,2.3c0.9,0.6,2,0.9,3.1,0.8c1.2,0,2.3-0.3,3.2-0.8c0.9-0.5,1.5-1.2,2-1.9c0.1-0.1,0-0.4-0.1-0.5
		l-1.2-0.9c-0.3-0.1-0.5,0-0.6,0.1c-0.8,1.2-1.9,1.7-3.2,1.7c-0.8,0-1.4-0.1-2-0.5c-0.6-0.4-1-0.8-1.4-1.4c-0.4-0.6-0.5-1.3-0.5-2
		s0.1-1.4,0.5-2C71.2,24.8,71.5,24.4,72.2,24.1z"/>
	<path d="M68.2,15.1h4.6c0.8,0,1.4-0.3,2-0.5c0.6-0.3,1-0.8,1.4-1.3c0.4-0.5,0.5-1.2,0.5-1.9c0-0.8-0.1-1.4-0.5-1.9
		c-0.3-0.5-0.8-1-1.4-1.3c-0.5-0.3-1.3-0.4-2-0.4h-2.2c-0.3,0-0.4-0.1-0.4-0.4V5.8c0-0.3,0.1-0.4,0.4-0.4h4.7c0.3,0,0.4-0.1,0.4-0.4
		V3.6c0-0.3-0.1-0.4-0.4-0.4h-7.2c-0.3,0-0.4,0.3-0.4,0.3v11.3C67.8,15,68,15.1,68.2,15.1z M70.3,10.5c0-0.3,0.1-0.4,0.4-0.4h2
		c0.5,0,1,0.1,1.3,0.4c0.4,0.3,0.5,0.6,0.5,1.2c0,0.5-0.3,0.9-0.5,1.2c-0.3,0.3-0.8,0.4-1.3,0.4h-2c-0.3,0-0.4-0.1-0.4-0.4V10.5z"/>
	<path d="M81.3,12.5h4.5c0.1,0,0.4,0.1,0.4,0.3L87,15c0,0.1,0.3,0.3,0.4,0.3h1.8c0.3,0,0.5-0.3,0.4-0.5l-4.4-11
		c-0.1-0.2-0.3-0.3-0.5-0.3h-2.1c-0.1,0-0.3,0-0.5,0.3c-0.2,0.3-4.4,11.1-4.4,11.1c-0.1,0.3,0.1,0.5,0.4,0.5h1.5
		c0.1,0,0.4-0.1,0.4-0.3l0.9-2.2C80.9,12.7,81.1,12.5,81.3,12.5z M82.2,10.1l0.8-2.3c0.3-0.6,0.8-2,0.9-2.7C84,5.8,84.3,7,84.6,7.8
		l0.8,2.3c0.1,0.3-0.1,0.5-0.4,0.5h-2.4C82.3,10.6,82,10.4,82.2,10.1z"/>
	<path d="M87.9,21.9c0-0.1-0.3-0.3-0.4-0.3h-2.2c-0.2,0-0.4,0.1-0.5,0.3L80.5,33c-0.1,0.3,0.1,0.5,0.4,0.5h1.5
		c0.1,0,0.4-0.1,0.4-0.3l0.9-2.2c0-0.1,0.3-0.3,0.4-0.3h4.5c0.1,0,0.4,0.1,0.4,0.3l0.9,2.2c0,0.1,0.3,0.3,0.4,0.3H92
		c0.3,0,0.5-0.3,0.4-0.5L87.9,21.9z M87.7,29.1h-2.4c-0.3,0-0.5-0.3-0.4-0.5l0.8-2.3c0.3-0.6,0.8-2,0.9-2.7c0.1,0.6,0.5,1.9,0.8,2.7
		l0.8,2.3h0C88.2,28.8,87.9,29.1,87.7,29.1z"/>
	<path d="M101.2,22.1c-0.8-0.4-1.4-0.5-2.3-0.5h-4.1h0c-0.3,0-0.4,0.1-0.4,0.4v11.4c0,0.3,0.1,0.4,0.4,0.4h1.7
		c0.3,0,0.4-0.1,0.4-0.4v-3.5c0-0.3,0.1-0.4,0.4-0.4h1.7c0.9,0,1.7-0.1,2.3-0.5c0.6-0.4,1.2-0.8,1.5-1.4c0.4-0.6,0.5-1.3,0.5-2
		s-0.1-1.4-0.5-2C102.4,22.9,101.9,22.5,101.2,22.1z M100.3,26.7c-0.3,0.4-0.8,0.4-1.3,0.4h-1.7c-0.3,0-0.4-0.1-0.4-0.4v-2.7
		c0-0.3,0.1-0.4,0.4-0.4h1.7c0.5,0,0.9,0.3,1.3,0.5c0.4,0.4,0.5,0.8,0.5,1.3C100.9,26,100.7,26.4,100.3,26.7z"/>
	<path d="M111,21.9c0-0.1-0.3-0.3-0.4-0.3h0h-2.2c-0.3,0-0.4,0.1-0.5,0.3L103.5,33c-0.1,0.3,0.1,0.5,0.4,0.5h1.5
		c0.1,0,0.4-0.1,0.4-0.3l0.9-2.2c0-0.1,0.3-0.3,0.4-0.3h4.5c0.1,0,0.4,0.1,0.4,0.3l0.9,2.2c0,0.1,0.3,0.3,0.4,0.3h1.8
		c0.3,0,0.5-0.3,0.4-0.5L111,21.9z M110.7,29.1h-2.4c-0.3,0-0.5-0.3-0.4-0.5l0.8-2.3c0.3-0.6,0.8-2,0.9-2.7c0.1,0.6,0.5,1.9,0.8,2.7
		l0.8,2.3C111.2,28.8,111,29.1,110.7,29.1z"/>
	<path d="M125,21.6h-9.3c-0.3,0-0.4,0.1-0.4,0.4v1.4c0,0.3,0.1,0.4,0.4,0.4h3.1c0.3,0,0.4,0.3,0.4,0.4v9c0,0.3,0.1,0.4,0.4,0.4h1.7
		c0.3,0,0.4-0.1,0.4-0.4v-9c0-0.3,0.1-0.4,0.4-0.4h3.1c0.3,0,0.4-0.1,0.4-0.4V22C125.4,21.8,125.3,21.6,125,21.6z"/>
	<path d="M135.4,22.1c-0.9-0.5-2-0.8-3.2-0.8s-2.2,0.3-3.2,0.8c-0.9,0.6-1.8,1.4-2.3,2.3c-0.6,1-0.9,2-0.9,3.2s0.4,2.3,0.9,3.2
		c0.5,1,1.3,1.8,2.3,2.3c0.9,0.5,2,0.8,3.2,0.8s2.3-0.3,3.2-0.8c0.9-0.6,1.7-1.4,2.3-2.3c0.6-1,0.9-2,0.9-3.2s-0.3-2.3-0.9-3.2
		C137.2,23.4,136.4,22.7,135.4,22.1z M135.7,29.7c-0.4,0.6-0.8,1-1.4,1.4c-0.6,0.4-1.3,0.5-1.9,0.5c-0.8,0-1.4-0.1-2-0.5
		c-0.6-0.4-1-0.8-1.4-1.4c-0.4-0.6-0.5-1.3-0.5-2s0.1-1.4,0.5-2c0.4-0.6,0.8-1,1.4-1.4c0.6-0.4,1.3-0.5,2-0.5c0.6,0,1.3,0.1,1.9,0.5
		c0.6,0.4,1,0.8,1.4,1.4c0.4,0.6,0.5,1.3,0.5,2S136,29.1,135.7,29.7z"/>
	<path d="M149.5,28.3c-0.2-0.3-0.5-0.6-1-0.9l-0.2-0.1c-0.3-0.1-0.3-0.4-0.1-0.6c0.4-0.5,0.5-1.2,0.5-1.8c0-0.8-0.1-1.3-0.5-1.8
		c-0.4-0.5-0.8-0.9-1.4-1.2c-0.5-0.3-1.2-0.4-1.9-0.4H141c-0.3,0-0.4,0.1-0.4,0.4v11.3c0,0.3,0.1,0.4,0.4,0.4h5c0.8,0,1.4-0.1,2-0.4
		c0.6-0.3,1-0.8,1.4-1.3c0.4-0.5,0.5-1.2,0.5-1.8C150,29.4,149.9,28.8,149.5,28.3z M143.1,24L143.1,24c0-0.2,0.1-0.3,0.3-0.3h1.3
		c0.5,0,0.9,0.1,1.2,0.4c0.3,0.3,0.4,0.6,0.4,1c0,0.4-0.1,0.8-0.4,1c-0.3,0.3-0.6,0.4-1.2,0.4h-1.3c-0.2,0-0.4-0.2-0.4-0.4V24z
		 M147.2,31.1c-0.3,0.3-0.7,0.3-1.3,0.3h-2.4c-0.3,0-0.4-0.1-0.4-0.4v-2.3c0-0.3,0.1-0.4,0.4-0.4h2.4c0.5,0,1,0.1,1.3,0.4
		c0.4,0.4,0.5,0.6,0.5,1.2C147.7,30.5,147.5,30.9,147.2,31.1z"/>
</g>
<g>
	<linearGradient id="SVGID_1_" gradientUnits="userSpaceOnUse" x1="1.408756e-04" y1="18.5064" x2="24.5315" y2="18.4361">
		<stop  offset="0" style="stop-color:#CC2445"/>
		<stop  offset="0.144" style="stop-color:#CD213F"/>
		<stop  offset="0.613" style="stop-color:#CE1930"/>
		<stop  offset="1" style="stop-color:#CF162B"/>
	</linearGradient>
	<path class="st0" d="M18.4,18.6c0-9.5,7.2-17.3,16.4-18.3c0,0,0.1,0,0.1-0.1c0,0,0-0.1-0.1-0.1H18.4C8.2,0,0,8.3,0,18.4
		c0,10.2,8.3,18.4,18.4,18.4h16.4C25.6,35.8,18.4,28,18.4,18.6z"/>
	
		<linearGradient id="SVGID_00000044887823032486330240000001019670504992253091_" gradientUnits="userSpaceOnUse" x1="28.8031" y1="6.5028" x2="43.5241" y2="6.4606">
		<stop  offset="0" style="stop-color:#CC2445"/>
		<stop  offset="0.144" style="stop-color:#CD213F"/>
		<stop  offset="0.613" style="stop-color:#CE1930"/>
		<stop  offset="1" style="stop-color:#CF162B"/>
	</linearGradient>
	<path style="fill:url(#SVGID_00000044887823032486330240000001019670504992253091_);" d="M34.3,9.5c0.3,0.4,0.8,0.8,1.4,0.8h13.2
		c0.8,0,1.2-0.9,0.8-1.5c-2.9-3.7-7.4-6-12.4-6h-1.2c-2.7,0-5.1,0.6-7.3,1.8C31,5.8,32.9,7.4,34.3,9.5z"/>
	
		<linearGradient id="SVGID_00000142174263991696422510000016838702175896603834_" gradientUnits="userSpaceOnUse" x1="28.6636" y1="30.6747" x2="43.3702" y2="30.6326">
		<stop  offset="0" style="stop-color:#CC2445"/>
		<stop  offset="0.144" style="stop-color:#CD213F"/>
		<stop  offset="0.613" style="stop-color:#CE1930"/>
		<stop  offset="1" style="stop-color:#CF162B"/>
	</linearGradient>
	<path style="fill:url(#SVGID_00000142174263991696422510000016838702175896603834_);" d="M48.6,26.9H35.7c-0.5,0-1,0.2-1.4,0.8
		c-1.4,2-3.3,3.7-5.6,5c2.2,1.2,4.7,1.8,7.3,1.8h1.2c5,0,9.4-2.3,12.3-5.9C49.9,27.9,49.5,26.9,48.6,26.9z"/>
	
		<linearGradient id="SVGID_00000042706248228330491180000014556769778754804895_" gradientUnits="userSpaceOnUse" x1="37.4999" y1="18.5724" x2="44.4984" y2="18.5524">
		<stop  offset="0" style="stop-color:#CC2445"/>
		<stop  offset="0.144" style="stop-color:#CD213F"/>
		<stop  offset="0.613" style="stop-color:#CE1930"/>
		<stop  offset="1" style="stop-color:#CF162B"/>
	</linearGradient>
	<circle style="fill:url(#SVGID_00000042706248228330491180000014556769778754804895_);" cx="42.5" cy="18.6" r="5"/>
</g>
</svg>
