<svg viewBox="0 0 172 35" xmlns="http://www.w3.org/2000/svg">
	<path fill="#000" d="m109.202 18.5009-.223-.2548.044.0046 5.685.0539V5.05853l-.154-2.63005c.027-.05256.061-.09248.104-.12841.044-.03127.183-.01863.411.04591l.864.16433.89.22688c.692.16434 1.064.36726 1.107.5988.034.20958-.176.47704-.631.81104l.011 14.18417 1.139.0107V5.00264l-.142-2.59279c.066-.12309.229-.17565.486-.1497.522.0632 1.142.19361 1.86.39587.718.20026 1.097.41051 1.142.62874.038.24018-.21.51097-.748.80571l.011 10.56013c.243-.6207.492-1.32.748-2.1018.253-.7817.452-1.4298.596-1.9541.144-.5242.29-1.10773.437-1.75044.144-.64737.252-1.13971.326-1.47969l.133-.69794.085-.5296c.111-.14305.352-.10978.727.09115l.958.44777 1.08.6121c.63.36128.894.67598.793.94743-.048.13773-.289.29608-.719.47438-.296.54491-.61 1.09714-.93 1.65204-.322.5529-.755 1.2162-1.296 1.9926-.541.7745-1.518 2.1238-2.926 4.0426v1.9634h1.695c.489-.5981.872-1.0905 1.15-1.4744.276-.3879.503-.5901.681-.6128.177-.0232.424.0752.75.2921.235.1757.49.3833.765.6314l.658.6254c.22.2056.346.4132.378.6235.072.2927-.024.6034-.267.6706l-15.999-.0719-1.205.038-.474-.5815Zm1.269-11.04452c.045.09647.139.35063.283.75382.143.4012.242.69727.296.88289.054.18364.115.48237.185.89155.097.59946.141 1.10446.139 1.51366-.003.4098-.052.9148-.144 1.5109-.091.6008-.114 1.0725-.065 1.4159.046.3506.219.6593.509.9308.293.2721.666.3905 1.116.3559.449-.0353.836-.2615 1.159-.674.32-.4145.505-.9068.551-1.4724.061-.9228-.146-1.8316-.625-2.7271-.477-.89092-.886-1.57022-1.225-2.03263-.334-.4664-.785-1.01729-1.345-1.65534l-.376-.41783c-.139-.14637-.253-.2495-.338-.30405-.086-.04857-.181-.05589-.292-.00998-.11.04258-.159.12441-.152.25216.007.12707.036.24151.093.33865l.231.4471Zm-5.266 8.66392-.617-.1151-.54-.2022c-.712-.2609-1.467-.6847-2.262-1.2702-.799-.5861-1.37-1.1037-1.709-1.5515-.3433-.4464-.6207-.8383-.8383-1.1737.9663-.3413 2.1393-.7824 3.5233-1.3306.642.016 1.008-.0426 1.094-.183.062-.1071 0-.2714-.183-.48634-.176-.21823-.444-.44178-.8-.66533-.348-.22555-.642-.44178-.873-.6487-.23-.20026-.401-.33266-.506-.39121-.155-.0692-.285-.09514-.387-.07119-.104.02195-.256.21224-.45.56619l-.221.40386c-.26.4797-.8107 1.22152-1.6464 2.22952-.5675-1.0386-.9441-1.86492-1.1397-2.47037-.1936-.6121-.3539-1.16832-.4783-1.67663-.0985-.41251-.173-.73985-.2163-.98669h3.2487c-.268.69128-.4463 1.15169-.5428 1.38389l-.2415.57285c-.0905.21091-.0885.36194.0107.45043.0991.08849.2894.0153.5635-.2189l.5161-.43113c.601-.50299 1.264-.75515 1.98-.74584l.876.02861c.493-.04058.75-.24684.772-.63007.006-.1996-.101-.4125-.322-.63672-.222-.22621-.815-.68396-1.779-1.36592-.282-.18962-.488-.27412-.615-.25815-.125.01929-.263.09514-.407.22156-.123.10978-.343.35395-.66.73918h-3.4196c.1969-.42781.4251-.94477.6886-1.55155.4344-.31337.6573-.53293.6726-.66068.0133-.15768-.147-.32135-.4843-.48236-.3334-.16301-.8457-.30938-1.5296-.43845-.6807-.12708-1.0619-.20027-1.1364-.22688-.3533-.08849-.5556-.11511-.6061-.07252-.0513.04324-.0958.23952-.1364.58881l-.0905.68729c-.1071.81104-.1989 1.35195-.2708 1.62807-.0512.18629-.1005.3626-.1484.52893h-3.322l-.1922-.41317-.2609-.40385c-.0878-.13373-.1517-.21823-.1922-.25616-.1457-.11643-.2668-.14903-.362-.10379-.1011.05057-.1643.12176-.1909.21624l-.0286.57551-.0912.25815c-.1138.31935-.2475.56752-.4012.74583l-.815.70991c-.3147.31736-.4764.66267-.4844 1.0306-.0106.34929.1457.70259.4757 1.05321.3267.3533.7851.4491 1.3753.2841.5915-.163.9933-.45043 1.2116-.86493.2095-.41517.3067-.78975.2814-1.12773-.0167-.27612-.0459-.54624-.0872-.8137h2.7631l-.336.92414c-.1284.37059-.4125.97737-.8576 1.82301-.4477.84696-.8602 1.53097-1.2328 2.05657-.3753.5276-.9581 1.2355-1.7458 2.129-.7898.8922-1.2968 1.4351-1.5283 1.6268-.2309.1889-.485.3918-.7612.6014l-.3.2322c-.4079.3167-.5536.527-.4365.6261.1145.0978.2429.1517.3779.1537.1331.0033.2562-.0293.3693-.0925l.3839-.2023c.2348-.1197.7698-.4417 1.6048-.9547.833-.5183 1.7638-1.1796 2.7897-1.9913v3.7704c0 .0512-.0792.1271-.2335.2289-.1544.1018-.2369.2182-.2502.3459-.016.0825.0406.2682.1617.5556.1197.2867.2481.5476.3799.7831l.5169.8622c.1251.2309.2322.3533.3194.3706.1018.0326.2555-.0246.4624-.171l.9561-.9474 3.6087-3.5103.1837-.175c.0745-.0665.1297-.1603.163-.2867.0392-.1218 0-.2216-.1138-.3034-.1171-.0852-.2921-.0659-.5356.0566l-.3273.1616c-1.2435.6148-2.0971 1.032-2.5655 1.2635v-5.1756c.4684-.2415.6966-.4445.6846-.6061-.0087-.165-.2156-.34334-.6154-.54494.7378-1.23552 1.1703-2.01728 1.3033-2.34396.1311-.32269.2376-.6121.3267-.85761.0266.37458.0579.81636.1005 1.31935.0419.50366.1251 1.18895.2575 2.05255.131.86231.3626 1.78371.6966 2.76311.3373.9814.7212 1.8257 1.157 2.5416.4364.7159.7957 1.2268 1.0771 1.5435.2802.3174.6064.6361.9654.9581.363.322.657.5609.887.7126l.509.344c.215.155.362.2208.441.2016.075-.0167.165-.1604.259-.4259.096-.2654.197-.461.293-.5874.099-.1271.242-.2742.434-.4418.187-.167.337-.2788.452-.34.11-.0586.269-.1284.487-.2056l.421-.143c.263-.0805.431-.1471.508-.1963.075-.0499.11-.1244.102-.2282-.014-.1045-.068-.1876-.168-.2542ZM65.4552 4.91748l-.1124-2.78574c.0459-.06986.1044-.12442.1723-.15635.0665-.0346.2628.02594.5915.18695l2.2614 1.11709h10.1018c.2601-.35129.4704-.63139.6394-.83898.1683-.21357.312-.32934.4304-.35728.1165-.02595.2868.01064.5183.10712.6288.28476 1.145.59613 1.5516.9288.4045.32934.6074.55555.6074.67065-.002.14039-.1916.37791-.5635.7139l-.0187 11.56816.1112 2.4424c-.0393.2615-.1125.4531-.2176.5775-.1011.1251-.3453.2482-.7232.3726-.3786.1244-.7638.1676-1.1577.131-.3892-.0379-.6487-.1197-.7671-.2508-.1204-.1277-.1777-.3466-.171-.66l.008-.9135H68.1385v.9421c0 .173-.1244.3653-.3679.5802-.2522.2149-.8323.2827-1.7405.2049-.2522-.0193-.4145-.0585-.4877-.1244-.0799-.0632-.1411-.167-.191-.3067l.1151-2.9082-.0113-11.24142Zm2.674 11.96062h10.6V4.17497H68.1478l-.0186 12.70313Zm10.0658-2.4856c-.2868-.2935-.5915-.5662-.9155-.8171-.175-.1257-.3007-.1863-.3879-.173-.0832.0153-.167.0666-.2495.1577-.0765.0932-.2162.2662-.4212.5296-.1989.2562-.3838.4851-.5502.692h-1.5389v-4.2282h.0958c-.01.0133-.0133.0299-.0166.0479-.0113.1084.0266.2029.1244.2868l.3506.2841c.2103.2055.3433.4903.4065.8596.0639.3652.1145.6141.1517.7418.0353.1277.1404.2508.3147.3726.1764.1331.4638.1943.8676.1856.3992-.01.7133-.2049.9335-.5875.1111-.1922.1484-.4284.1231-.7125-.0273-.2848-.2096-.5915-.5463-.9255-.2548-.2528-.6972-.4311-1.328-.5396l2.2083.0233c.2022-.0586.3539-.3147.2921-.5596-.0114-.05118-.0406-.11239-.0912-.1776-.0805-.11377-.4757-.44643-1.181-.99267-.2534-.19361-.463-.27478-.6234-.24551-.1577.02928-.5209.39587-1.0831 1.10645h-1.006l.0086-2.83232c.0213-.01796.042-.03725.0593-.05788l3.9434.03992c.2601-.06919.4178-.40386.2548-.69993-.0399-.0978-.1331-.22155-.2788-.37724-.2415-.25349-.6653-.60745-1.2854-1.05854-.2049-.14637-.3586-.21091-.4551-.19494-.0965.01663-.2282.12175-.3865.31869-.1644.1976-.4152.55821-.7665 1.08249H69.911l-1.5117-.10445.4624.59414.2934.40651 1.155-.04058 1.3793.01131v2.91348l-1.7006-.01264-1.4072-.12308.5429.68999c.0246 0 .2176.2801.2176.2801l1.0918-.0406 1.2555.0126.0113 4.2548-.8869-.0047-1.4338-.0259-1.1823-.1058.2103.2641.4916.6813 1.1557-.0392 8.312.0725c.2602-.0692.4178-.4092.2482-.7072-.0386-.1025-.1797-.2781-.4205-.5256Zm-18.5787-.7871c-.0772.1763-.187.3273-.332.4491-.1444.1197-.4571.2342-.9441.336-.4877.1004-.8443.1357-1.0725.1038-.3354-.04-.5449-.1245-.6261-.2555-.0858-.1311-.1278-.3966-.1278-.8044v-.7372h-3.809v3.5682l.1304 2.7458c-.0771.1869-.1789.3493-.3147.497-.1377.1464-.4018.2841-.7884.4072-.3812.1257-.8084.1676-1.2688.1277-.4211-.0293-.6839-.1084-.7777-.2309-.1012-.1277-.1624-.2787-.1897-.4597l.1817-3.2116-.008-3.4437h-3.5921v.8117c0 .2109-.1311.4411-.3992.6846-.2635.2449-.7379.3826-1.4265.4119-.6873.0299-1.0699-.016-1.141-.1304-.0772-.1145-.1098-.2682-.1098-.4578l.1197-2.0971V6.81234l-.1097-1.62008c.0525-.06853.123-.11909.2182-.14903.0885-.0326.3007.03526.6367.20958l2.5782 1.33598h3.2122V4.58348l-.1604-2.27742c-.0139-.2535.0207-.42249.0958-.49301.0805-.07652.2469-.10113.5077-.08251.1364.01331.6919.12974 1.668.34398.984.21823 1.5149.39853 1.6014.54491.0898.14703.1125.28409.0745.40784-.0379.12442-.131.24551-.2947.35862l-.4531.3147.0107 2.88754h3.5335c.2788-.36261.5236-.6813.7292-.95808.2176-.28476.3966-.43845.5423-.45309.149-.0193.3985.0825.7458.30405l.8437.51896c.8283.5143 1.2435.89487 1.2381 1.13639-.0053.1324-.1257.30938-.3533.52494l-.4943.4817v3.5203l.1251 1.9421Zm-9.96-6.12839h-3.5788V11.805h3.5788V7.47701Zm6.8582 0h-3.809V11.805h3.809V7.47701ZM147.121 19.5375c-.066-.0273-.156-.0805-.273-.173l-.34-.2495c-.54-.4079-1.017-.9342-1.445-1.5755-.425-.6474-.676-1.0639-.759-1.2555-.079-.1923-.135-.3214-.162-.3832-.258.2954-.451.5163-.605.6806l-.812.8516-.864.9641-.695.7478-.37.4305c-.116.1271-.192.2049-.234.2362-.037.0259-.099.0366-.179.0219-.108-.0126-.228-.1257-.362-.3459l-.725-1.1471c-.365-.6274-.524-1.0239-.473-1.1942.016-.0586.069-.1411.161-.2455.097-.1038.165-.2023.213-.2875.045-.0851.074-.2614.079-.5216l.011-4.3592c-.057.1044-.144.1843-.247.2129l-1.181-.0985-1.67-.0193v3.672c.369-.1923.65-.34.845-.4392l1.106-.5568.665-.3413c.053-.0267.133-.0327.24-.0213.108.0133.165.0725.173.1816.005.1118-.032.2082-.113.2974l-.423.4478c-1.035 1.1064-1.702 1.8436-1.991 2.2168-.286.372-.657.8776-1.115 1.5137l-.334.4604c-.113.1617-.196.2555-.242.2841-.053.0273-.121.0313-.207.0046-.117-.0206-.248-.1364-.399-.3486-.15-.2129-.351-.5476-.603-1.0007-.252-.4524-.402-.7638-.453-.9367-.05-.1724-.05-.3061.006-.4019 0 0 .068-.0725.208-.2149.136-.143.207-.3566.213-.6387l.011-4.2069-1.08-.0153-1.197.0619s-.062-.1071-.069-.1071c0 0-.359-.6388-.357-.6414l.064.0053 1.159.0712h1.479V8.76442l-.865.07918-.343-.44178c-.059.06054-.104.10645-.13.13306l-.663.68862-.344.35329c-.058.05855-.14.10047-.247.13107-.104.02994-.173-.01331-.216-.12242-.038-.10645-.041-.19428-.009-.2668l.277-.51563c.323-.63007.62-1.326.878-2.08182.256-.75382.489-1.50431.694-2.24083.209-.74251.345-1.25415.407-1.54291l.107-.54623.059-.40186c.085-.17099.332-.18563.745-.03793l.808.24817c1.12.35329 1.679.65469 1.679.90219-.006.15236-.248.31603-.735.48436-.467.8656-.82 1.4797-1.06 1.8423l1.435.0346c.35-.42781.617-.74184.796-.93679.186-.1976.333-.30605.448-.32268.115-.0153.292.08716.534.30139.535.51297.844.84963.932 1.0459.178.2688.008.62076-.231.68862l-1.176-.07984s-3.178-.05855-3.207-.05855c-.531.76181-1.062 1.46173-1.588 2.09779l.876.02927h2.454c.184-.20957.349-.40518.49-.58748.141-.18363.277-.33067.408-.44511.131-.11377.264-.16966.405-.16167.117.01264.34.17564.668.48502.335.31404.551.5489.658.70858.102.15968.132.29075.092.38789-.038.09847-.157.14903-.362.14903h-1.881c-.105.14438-.232.27345-.381.38257v2.02721h.304c.247-.2667.44-.4836.575-.65.139-.1656.255-.3.355-.4105.098-.1071.21-.16965.338-.18561.125-.01664.368.14301.734.47171.358.3333.622.6208.791.8603V4.37923l-.09-2.07317c.04-.05123.096-.09781.174-.13307.071-.04192.356.06121.852.30139l1.477.74052h3.513c.14-.18297.284-.37991.434-.58616.185-.25349.351-.38656.499-.40652.147-.01397.38.06986.691.25216.704.42848 1.153.71923 1.342.87292.194.15369.296.27079.312.35329.011.13905-.179.39121-.577.74783v3.72851l.09 2.04187c-.097.2229-.238.3826-.405.4797-.171.1012-.425.165-.764.1923-.339.03-.604.0266-.801-.0033-.415-.0532-.623-.2016-.623-.4498v-.0818h-1.184c.263 1.1657.437 1.823.52 1.9647l.512 1.0512c.133-.133.264-.2688.385-.4091.12-.1438.269-.3673.453-.6807.176-.3107.295-.5289.339-.6513l.121-.3413.082-.2582c.033-.0452.101-.0745.208-.0898.142-.0133.354.0446.635.1676.284.1278.598.2635.944.4119.351.149.604.3001.767.4504.16.1491.233.2735.218.3693-.022.1856-.365.3247-1.023.4311-.229.183-.489.3812-.785.5968-.295.2136-.902.5136-1.82.8949.303.3746.673.7977 1.117 1.2648.444.463 1.197.9161 2.263 1.3579l.54.2269c.17.0752.256.1763.27.3014.01.1231-.092.2129-.298.2635l-.545.1443c-.141.0373-.348.1497-.628.3387-.277.1863-.506.4651-.682.8277-.18.3599-.303.5615-.372.5961-.069.0393-.178.0246-.324-.0472ZM141.7 6.20024h3.712V4.10711H141.7v2.09313Zm2.234 9.20156c-.127-.4764-.252-.9581-.368-1.4345l-.01-.0486c-.11-.4577-.189-.8463-.235-1.165-.049-.3333-.106-.9241-.173-1.7804l-.05-.6167h-1.397l.01 5.7351c.707-.2136 1.7-.5236 2.223-.6899Zm1.478-5.93745V7.09511H141.7v2.36924h3.712Zm8.79-1.46173c.124-.02329.329-.10978.611-.26281l.421-.2322c.032-.0153.292-.17831.772-.48635l1.288-.75382c.024-.01797 1.651-1.12042 1.651-1.12042.2-.13373.515-.34065.945-.6141.483.02595.765-.02928.843-.16966.05-.08516.024-.22289-.066-.41983-.087-.19095-.414-.54291-.98-1.04856l-.731-.62873c-.303-.27479-.509-.39388-.623-.36194-.107.0286-.21.12974-.304.29274l-.151.27744-.36.5662-.2.31936-.373.60146c-.258.39454-.594.87757-1.013 1.44576-.418.57418-.825 1.04856-1.213 1.43113l-.421.40984c-.235.23154-.368.38789-.404.46573-.033.08251-.019.15236.036.22156.059.0672.149.08849.272.0672Zm17.716.60944c-.095-.20825-.358-.52894-.787-.96074-.607-.60944-1.014-.92614-1.222-.94743-.216-.0133-.505.21357-.868.66866-.359.46107-.653.84963-.875 1.17098h-6.859l-1.126-.09514c.378-.04524.59-.14039.646-.30672.073-.23353-.266-.5795-1.011-1.0459-.75-.4624-1.177-.7272-1.292-.79307-.252-.11444-.413-.14904-.489-.10446-.079.04724-.139.11776-.188.22023l-.151.32534-.361.70858-.017.0326c-.189.35994-.384.72321-.585 1.09048-.207.3799-.604.99866-1.182 1.85493-.58.8576-1.14 1.5722-1.676 2.1404l-.381.3998c-.104.1058-.151.197-.151.2855 0 .0831.038.1696.118.2555.075.0878.264.0326.566-.165l.571-.376c.865-.5595 1.491-.9866 1.873-1.2794v5.6334l-.101 2.1909c.059.1144.147.2122.263.2901.088.0585.315.0832.684.0752.102-.0007.217-.0073.34-.0153.571-.0366.945-.1384 1.126-.3107.182-.173.3-.3567.351-.5563l-.109-1.8276v-6.2841c.308-.2947.455-.4996.445-.6127-.006-.1125-.103-.2256-.285-.33204-.182-.10379-.349-.20226-.501-.28942l.089-.07984.932-.92681c.043-.03925.115-.09514.215-.17298l.164.1976.41.5642 1.198-.06188 4.17.0213-.022 7.08777c-.006.2415-.05.4524-.132.638-.085.1784-.394.2442-.939.1937-.538-.0499-.849-.0825-.935-.0952l-.364-.0293c-.282-.0193-.488-.0053-.62.038-.13.0452-.197.133-.201.2694-.003.1351.04.2256.137.2748.093.0539.293.1071.595.1643l.542.1125c.17.0399.315.135.44.2881.128.1537.213.3373.25.5449l.033.5748c.005.187.04.3081.099.362.062.0592.168.0991.322.1177.296.0426.863-.0186 1.701-.1883.849-.167 1.345-.3918 1.502-.6739.16-.2801.236-.6181.236-1.006V9.49762c.051-.04791.136-.14638.262-.28743l1.738.00998 1.177.09581c.248-.06653.429-.4298.235-.70392Zm-11.022-4.67994.289.36194.248.34265 1.2-.06321 6.362.04724 1.18.09647c.25-.07119.434-.41516.168-.71057-.133-.16966-.356-.39387-.667-.66999l-.796-.73718c-.239-.20226-.436-.30339-.582-.30007-.149.00266-.343.13773-.578.39987-.234.25814-.567.69127-1.001 1.30138l-4.177-.00732-1.652-.10645c0 .00067.034.04857.006.04524ZM53.5012 30.5547h-2.0731c-.042 0-.0752.0106-.1045.0319-.0313.0193-.0472.0499-.0472.0905-.0034.0299.0053.0552.0239.0752.016.0186.0473.0286.0832.0326l.1337.0246c.0293.008.0752.0239.1357.0532.0593.0266.1125.0639.1564.1091.0432.0473.0825.1125.1151.205.0346.0904.0499.1623.0499.2162v.1783c0 .1437-.0339.2794-.0978.4072-.0672.1231-.175.2322-.322.3167-.1484.0858-.344.131-.5835.131-.197.0007-.3866-.0312-.5616-.1004-.1763-.0685-.3087-.155-.3892-.2608-.0805-.1058-.1444-.2449-.1936-.4159-.0472-.1709-.0765-.3273-.0958-.4657-.018-.139-.0266-.3054-.0319-.495-.0074-.1909-.01-.3426-.01-.4551-.0033-.1896.0046-.3573.0213-.5003.0153-.1437.0479-.3054.0964-.4817.0486-.1763.1251-.3573.2229-.5396.1005-.181.2362-.3174.4046-.4118.1709-.0958.3433-.1471.5249-.1511.155-.002.3134.0286.4737.0859.1624.0605.3034.1297.4198.2095.1171.0779.2203.1624.3028.2495.0831.0879.1517.179.1989.2695.0506.0931.0858.1776.1038.2548l.0246.1071c.008.0433.026.0819.0532.1125.0293.0299.0592.0432.0978.0379.034-.0033.0612-.0186.0805-.0399.018-.024.0293-.0499.0373-.0765.0073-.026.0126-.0799.0126-.1524v-1.302c0-.0213-.0053-.0506-.0133-.0872-.0099-.0346-.0246-.0632-.0366-.0832-.0299-.0233-.0632-.0339-.1038-.0326-.0419.0034-.0711.0187-.0924.0479-.022.034-.038.0719-.0459.1198-.0087.0486-.022.0978-.038.1391-.0153.0425-.0366.0718-.0585.0898-.0433.0292-.0991.0366-.167.0193-.0692-.014-.1597-.0559-.2748-.1218-.1151-.0665-.2335-.1217-.3573-.167-.1197-.0432-.2375-.0745-.3506-.0925-.1164-.0206-.2495-.0266-.3999-.0266-.2415.0047-.4477.0286-.6247.0725-.1737.0406-.3307.0978-.4704.167-.1391.0666-.2641.1391-.3719.2209-.1058.0772-.2123.175-.3141.2881-.1011.1138-.1976.2375-.2767.3726-.0845.1351-.1544.2868-.2156.4531-.0586.1643-.0978.3406-.1224.5209-.0207.183-.032.362-.032.541 0 .1696.006.3572.0247.5595.0153.2056.0612.4205.1403.6434.0772.2235.2176.4491.4179.6766.2042.2289.4471.3972.7372.509.2894.1118.5861.1677.8895.171.332.0033.5995-.0326.817-.1145.2129-.0771.3673-.1536.4664-.2188l.2016-.1484c.0666-.0453.1204-.0632.1644-.0592.0432.0026.0878.0259.1277.0672.0432.0419.0858.0905.1231.1463.0379.0553.0712.1065.0965.1564.0259.0486.0485.0798.0618.0965.0506.0499.1058.0712.163.0645.0593-.006.1032-.0246.1324-.0579.0267-.0299.0459-.0825.0553-.149l.1457-1.3606c.0026-.0286.0133-.0845.0372-.167.0207-.0832.0453-.1431.0719-.1836.0299-.0393.0659-.0779.1098-.1138.0445-.0366.0885-.0592.1324-.0692l.0765-.0133c.0233-.002.0472-.0133.0738-.0326.0246-.0186.0346-.0499.022-.0912-.0107-.0419-.0319-.0712-.0665-.0831-.0333-.0127-.0726-.0193-.1185-.0193Zm118.1938 2.121c.026.0167.042.038.047.0659.003.0319-.011.0612-.035.0885-.028.0273-.061.0419-.101.0419h-2.287c-.076 0-.129-.0073-.16-.0193-.031-.0126-.047-.0452-.042-.0991.005-.0319.017-.0559.045-.0772.03-.0153.064-.0259.107-.0293l.13-.0126c.047-.0027.098-.0133.155-.0346.058-.0186.103-.0579.136-.1164.037-.0586.053-.1225.048-.1943-.006-.0752-.017-.1304-.029-.1657l-.352-.8017h-1.67l-.266.8137c-.038.1118-.048.2016-.029.2715.017.0711.05.1224.101.159.051.0346.104.0579.157.0645.053.0106.101.0166.143.0166h.078c.031 0 .058.0127.086.038.027.0266.042.0539.038.0845-.006.0445-.028.0725-.069.0831-.038.014-.098.0193-.172.0193h-1.473c-.098 0-.167-.0073-.201-.0193-.035-.0126-.053-.0426-.053-.0911 0-.0473.015-.0765.046-.0905.031-.01.071-.016.124-.024l.084-.0126c.035-.0027.089-.0166.161-.0499.074-.0313.132-.0659.183-.1058.047-.0399.096-.0905.141-.1464.047-.0585.088-.1137.122-.1696.032-.0533.059-.1058.077-.1517 0 0 1.571-4.0206 1.575-4.0346.038-.0985.077-.175.111-.2322.035-.0592.088-.0898.157-.0931.069-.0047.119.0166.154.0612.035.0426.078.1191.131.2289l1.86 4.0698c.018.0366.056.1044.125.2056.064.1011.116.1763.156.2235.037.0459.086.0905.146.1271.059.0373.112.0612.16.0665l.066.0127c.034.008.063.0179.089.0292Zm-2.426-1.6726-.732-1.7212-.021-.0512-.711 1.7724h1.464Zm-17.844.3713c-.052.0266-.115.0924-.179.1976-.069.1038-.152.2109-.25.3253-.099.1125-.199.2096-.306.2928-.104.0818-.22.151-.338.2029-.122.0505-.261.0831-.418.0978-.155.0153-.29.008-.414-.0206-.12-.0267-.251-.0825-.389-.1624-.135-.0798-.252-.1783-.346-.2907-.095-.1178-.167-.2495-.221-.3966-.054-.147-.091-.298-.115-.4517-.024-.1537-.038-.3147-.042-.4811-.006-.1683-.009-.3193-.009-.4544-.003-.1949.005-.3653.019-.513.016-.1457.042-.298.082-.4604.038-.163.087-.3087.141-.4417.053-.1304.125-.2529.215-.3646.091-.1125.208-.2003.353-.2682.15-.0672.322-.1011.525-.0978.183.002.349.03.493.0832.145.0526.268.1144.37.1816.107.0712.199.1491.277.2395.081.0899.152.1943.221.3221.063.1257.111.2295.136.314l.028.0965c.013.0499.032.0898.051.1191.021.0259.051.0372.096.0319.037-.0033.067-.016.085-.0319.016-.0187.03-.0499.038-.0932.01-.0419.016-.0911.011-.1437l-.067-1.302c-.003-.0267-.007-.0553-.017-.0899-.008-.0319-.018-.0605-.034-.0805-.027-.0233-.062-.0346-.102-.0339-.04.0007-.071.0153-.094.0472-.021.0287-.035.0672-.047.1125-.009.0452-.022.0871-.035.1217-.013.038-.034.0632-.059.0819-.046.0312-.096.0419-.154.0312-.058-.0126-.141-.0472-.243-.1031-.101-.0565-.22-.1071-.357-.1537-.134-.0459-.272-.0825-.412-.1011-.141-.0213-.3-.0266-.477-.024-.204.008-.389.0346-.55.0746-.163.0392-.311.0904-.445.1596-.139.0686-.27.1457-.392.2349-.122.0878-.231.1816-.317.2828-.09.1031-.179.2262-.266.3726-.088.1457-.157.2927-.207.4451-.052.1497-.092.332-.116.5382-.029.2083-.042.3852-.042.525 0 .1417.008.2874.023.4417.019.1537.046.3094.087.4711.045.163.11.3247.197.4903.089.167.219.3354.389.513.17.1737.349.3067.532.3959.184.0878.383.155.596.1969.212.0399.422.0632.627.0632.174.002.351-.0113.53-.0426.184-.0286.349-.0791.496-.1457.146-.0685.289-.167.424-.2974.136-.1337.241-.2528.314-.3612.074-.1092.152-.2389.234-.3879.048-.0852.067-.1544.062-.2076-.005-.0526-.024-.0905-.062-.1125-.035-.0212-.076-.0166-.13.0114Zm8.702 1.2721-.109-.0127c-.059-.0046-.128-.0206-.21-.0479-.081-.0312-.147-.0745-.198-.131-.054-.0593-.086-.1278-.104-.2016-.012-.0772-.024-.1657-.028-.2635v-3.3752c0-.0832.012-.1644.03-.2362.024-.0712.057-.1364.107-.1996.05-.0646.106-.1178.176-.1604.066-.0419.133-.0665.199-.0771l.095-.0114c.03-.0006.055-.0126.077-.0319.024-.0213.036-.0459.043-.0738.001-.0393-.007-.0672-.035-.0879-.024-.0186-.057-.0292-.098-.0326l-2.36-.002c-.038 0-.072.008-.098.026-.026.0193-.043.0479-.05.0851-.01.0393 0 .0659.024.0859.024.0193.051.0299.077.0312l.08.0114c.054.0106.12.0319.202.0672.08.0345.151.0858.205.151.056.0658.092.1464.104.2428.013.0958.022.1737.022.2376v3.3113c-.006.0805-.022.175-.052.2801-.031.1038-.074.1856-.128.2349-.054.0512-.118.0905-.188.1191-.074.0272-.126.0432-.17.0479l-.088.0126c-.024.0033-.05.014-.074.0286-.024.018-.038.0393-.043.0665-.011.0506-.003.0872.023.1045.03.0186.066.026.107.026h2.432c.046 0 .083-.0074.109-.024.026-.016.034-.0506.032-.0978-.005-.0472-.015-.0765-.032-.0858-.017-.0054-.044-.0133-.079-.0173Zm5.619-4.9428h-1.749c-.044 0-.083.01-.117.0286-.032.018-.053.0433-.056.0779-.008.0406 0 .0698.025.0905.029.0193.058.0292.093.0292l.199.0114c.056.0059.118.0179.194.0352.072.0213.136.0532.193.1058.056.0472.101.1098.128.1843.029.0752.045.1444.045.2056v2.5076l-2.543-3.2874-1.55.0087c-.075.002-.127.0106-.159.0206-.03.0133-.051.0399-.056.0878-.004.0499.005.0825.032.0965.027.0166.051.0233.072.0233l.107.0113c.038.006.091.016.153.0346.06.0153.124.0419.187.0792.067.0366.116.0938.16.1696.042.0772.07.1597.08.2562.016.0931.02.1829.02.2641v3.3799c0 .0685-.016.1457-.051.2215-.033.0805-.084.1364-.148.1764-.069.0392-.137.0672-.206.0831-.066.016-.12.0273-.158.0273l-.097.0126c-.037.0034-.067.014-.09.0287-.026.0153-.042.0339-.051.0578-.016.0486-.006.0832.026.1045.031.0239.069.0346.109.0346l1.77.0046c.048.0034.089-.0046.123-.0186.029-.0153.047-.0446.044-.0951 0-.0486-.019-.0779-.056-.0925-.036-.0113-.073-.0206-.1-.024l-.111-.0126c-.059-.0047-.122-.014-.199-.0319-.077-.016-.154-.0473-.231-.0938-.075-.0479-.129-.1018-.159-.167-.031-.0639-.043-.1404-.041-.2296v-3.2994l2.892 3.7977c.026.0366.067.0872.124.1458.053.0612.095.1004.127.1164.059.0406.115.0579.175.0526.058-.008.102-.0499.139-.1251.038-.0765.056-.179.053-.3121v-3.9966c0-.0459.015-.1098.043-.1883.027-.0818.067-.147.11-.1943.042-.0472.106-.0851.189-.1164.085-.0273.152-.0433.204-.0499l.147-.0113c.031-.0007.056-.0113.075-.0313.015-.0206.024-.0426.029-.0725 0-.0393-.014-.0712-.04-.0905-.027-.02-.059-.0313-.099-.0313Zm-9.033.6993c.022-.0965.059-.1777.11-.2468.051-.0699.107-.1191.171-.1524.061-.0326.128-.0552.199-.0645l.081-.01c.034-.0047.059-.014.076-.0346.015-.0233.026-.0526.023-.0885 0-.0379-.013-.0645-.034-.0798-.021-.0134-.051-.022-.093-.024h-2.276c-.044 0-.077.008-.101.024-.027.0159-.043.0452-.051.0844-.007.0353 0 .0666.027.0879.027.0193.053.0312.075.0319l.069.0113c.065.0113.134.0399.208.0845.072.0433.13.0985.179.165.046.0666.077.1431.091.2282.016.0852.024.1577.024.2183v1.2474h-1.82v-1.2641c0-.0778.007-.1523.021-.2269.013-.0745.047-.149.107-.2242.061-.0718.123-.1277.184-.1623.064-.0346.126-.0579.182-.0672l.082-.01c.026-.0047.051-.014.079-.0299.029-.016.043-.0473.041-.0952-.003-.0472-.018-.0765-.043-.0858-.029-.008-.059-.014-.09-.016h-2.268c-.038 0-.069.008-.097.024-.027.0159-.046.0452-.054.0845-.008.0352.003.0665.029.0878.025.0193.056.0313.086.0319l.086.0113c.055.008.112.0273.175.0533.064.0312.123.0851.176.165.053.0798.087.167.103.2555.016.0924.023.163.023.2215v3.3639c-.002.0912-.018.1837-.048.2695-.03.0905-.077.157-.139.2069-.058.0459-.118.0852-.175.1138-.056.0266-.099.0406-.131.0432l-.079.0127c-.023.0033-.049.0139-.073.0292-.024.0213-.037.042-.043.0659-.01.0459.001.0799.029.1005.028.0193.064.0299.102.0299h2.281c.041 0 .074-.0073.1-.0239.025-.018.036-.042.033-.0746 0-.0352-.01-.0632-.033-.0871-.026-.022-.047-.0366-.069-.0399l-.082-.0127c-.053-.0046-.109-.0206-.178-.0479-.063-.0286-.124-.0725-.177-.139-.054-.0646-.088-.1351-.109-.2123-.021-.0738-.031-.1537-.031-.2342v-1.813h1.82v1.813c-.003.0952-.015.1837-.038.2642-.026.0818-.063.1523-.12.2022-.055.0539-.115.0952-.179.1205-.064.0272-.118.0419-.159.0459l-.072.0126c-.027.0033-.054.014-.078.0286-.021.018-.037.0393-.04.0665-.014.046-.004.0799.025.1005.03.0193.066.03.109.03h2.247c.055 0 .098-.0074.133-.024.029-.018.047-.0419.05-.0792 0-.0366-.016-.0658-.044-.0845-.028-.0219-.055-.0346-.079-.0379l-.067-.0126c-.05-.0054-.115-.0267-.189-.0606-.078-.0319-.141-.0798-.189-.1384-.048-.0592-.08-.1297-.098-.2122-.015-.0832-.02-.1604-.02-.2335v-3.3314c-.001-.0771.009-.163.03-.2561Zm-17.565-.68c-.03.0187-.049.0479-.057.0872-.01.0419 0 .0685.024.0878.028.0166.054.0266.085.0293l.09.014c.057.0106.119.0319.194.0672.072.0345.136.0805.19.1363.055.0553.087.1338.104.2362.017.1038.022.1777.022.2269v3.3673c-.001.1037-.017.2029-.043.296-.032.0958-.078.1704-.147.2229-.068.0532-.134.0898-.195.1071-.059.0207-.11.032-.146.032l-.12.0126c-.016.002-.036.014-.06.0399-.024.024-.037.0426-.04.0526-.013.0459-.005.0778.024.0985.028.0206.065.0319.106.0319l2.404.0027c.03.0046.056-.0074.08-.03.021-.0259.027-.0539.027-.0858-.006-.0326-.022-.0579-.042-.0765-.03-.0167-.052-.0293-.073-.0326l-.083-.0127c-.04-.0046-.096-.0206-.166-.0479-.067-.0312-.131-.0725-.188-.131-.056-.0559-.096-.1231-.115-.2003-.018-.0765-.031-.1737-.033-.2894v-1.6055h.535c.049 0 .111.0167.194.0486.082.0339.157.0825.224.1497.067.0645.13.1484.188.2428.057.0959.099.183.12.2575.022.0752.043.1191.058.1331.031.0379.066.0559.112.0559.046-.0007.08-.0153.099-.0393.021-.0259.032-.0559.032-.0925v-1.7864c0-.0565-.014-.1031-.04-.131-.027-.024-.059-.0373-.104-.024-.042.0073-.071.0293-.087.0659-.015.0366-.035.0871-.056.1483-.024.0633-.049.1205-.082.1737-.028.0526-.073.1178-.133.1943-.059.0805-.115.1357-.171.1703-.051.0346-.111.0639-.172.0858-.059.0193-.123.03-.179.03h-.538v-1.7592c0-.0638 0-.1097.002-.1304.006-.0239.019-.0479.045-.0738.026-.0273.057-.0473.092-.0539.034-.0107.071-.0166.114-.0186h.868c.077 0 .181.0166.307.0479.122.0312.251.0871.369.1616.12.0765.221.163.296.2628.081.0978.144.195.19.2908.048.0958.09.183.117.2588l.051.147c.014.04.037.0686.07.0852.026.0153.059.018.096.008.033-.01.057-.0293.067-.0606.015-.0286.023-.0665.026-.1117l.005-1.3999h-4.46c-.036.0013-.069.01-.097.0266Zm-14.665-.0193h-1.751c-.044 0-.082.01-.117.0286-.032.018-.05.0433-.058.0779-.008.0406.003.0698.029.0905.027.0193.056.0292.092.0292l.197.0114c.057.0059.121.0179.194.0352.072.0213.138.0532.196.1058.056.0472.097.1098.125.1843.03.0752.046.1444.046.2056v2.5076l-2.543-3.2874-1.55.0087c-.072.002-.126.0106-.159.0206-.03.0133-.05.0399-.056.0878-.003.0499.006.0825.033.0965.026.0166.05.0233.072.0233l.106.0113c.04.006.091.016.152.0346.064.0153.125.0419.191.0792.062.0366.114.0938.157.1696.042.0772.072.1597.082.2562.014.0931.021.1829.021.2641v3.3799c0 .0685-.018.1457-.052.2215-.034.0805-.085.1364-.151.1764-.065.0392-.133.0672-.202.0831-.07.016-.123.0273-.159.0273l-.098.0126c-.037.0034-.067.014-.091.0287-.024.0153-.041.0339-.049.0578-.015.0486-.007.0832.026.1045.031.0239.069.0346.109.0346l1.769.0046c.052.0034.089-.0046.125-.0186.03-.0153.045-.0446.044-.0951-.002-.0486-.021-.0779-.058-.0925-.037-.0113-.071-.0206-.097-.024l-.114-.0126c-.057-.0047-.121-.014-.199-.0319-.077-.016-.152-.0473-.229-.0938-.075-.0479-.13-.1018-.16-.167-.03-.0639-.042-.1404-.04-.2296v-3.2994l2.893 3.7977c.026.0366.065.0872.12.1458.058.0612.097.1004.13.1164.059.0406.114.0579.171.0526.059-.008.104-.0499.141-.1251.038-.0765.054-.179.054-.3121v-3.9966c0-.0459.016-.1098.043-.1883.029-.0818.064-.147.111-.1943.042-.0472.107-.0851.186-.1164.085-.0273.153-.0433.205-.0499l.149-.0113c.03-.0007.056-.0113.072-.0313.017-.0206.028-.0426.031-.0725 0-.0393-.016-.0712-.039-.0905-.028-.02-.061-.0313-.1-.0313Zm-11.497 3.2834c.077.1544.118.33.122.527.004.1969-.044.3912-.136.5801-.061.1191-.144.2263-.246.3241-.099.0958-.239.1843-.412.2614-.176.0766-.348.1278-.522.1551-.171.0232-.345.0372-.521.0372h-2.999c-.043.0047-.077-.0053-.113-.0259-.031-.022-.039-.0539-.031-.1012.006-.0312.022-.0505.048-.0658.026-.0107.067-.024.125-.0326.055-.01.112-.024.173-.0419.061-.0187.123-.0513.187-.1012.067-.0485.113-.1098.146-.1856.029-.0752.042-.1776.042-.3041v-3.4736c0-.0792-.008-.1537-.029-.2263-.023-.0718-.052-.1337-.095-.1843-.04-.0499-.095-.0924-.16-.123-.068-.0346-.135-.0539-.199-.0613-.063-.0079-.113-.0206-.143-.0379-.034-.0166-.044-.0472-.034-.0898.006-.0419.024-.0699.05-.0898.027-.018.061-.026.099-.026h2.819c.193.002.375.0113.546.0273.17.018.324.0459.453.0878.131.0433.254.1065.367.1863.112.0805.202.1763.272.2801.069.1058.12.2362.155.3886.028.1523.028.3134-.011.4817-.032.139-.084.2548-.153.3493-.07.0931-.155.1783-.256.2508-.1.0745-.24.1457-.415.2162-.176.0686-.312.1072-.412.1198l-.497.0832c.242.0259.442.0525.604.0798.162.0286.325.0739.489.1377.165.0632.302.1391.409.2289.109.0918.203.2109.278.3679Zm-2.946-.9254h.527c.099 0 .218-.0167.37-.0513.137-.0352.263-.0911.381-.1676.122-.0772.217-.1777.287-.3008.069-.125.104-.2821.107-.4757.002-.1949-.014-.3539-.056-.4823-.054-.1624-.129-.2775-.226-.3533-.096-.0745-.202-.1278-.313-.157-.061-.016-.122-.0287-.181-.0366-.048-.0054-.094-.008-.144-.008h-.373c-.051 0-.104.0073-.166.0206-.062.016-.102.0346-.128.0579-.024.0239-.045.0639-.059.1164-.017.0486-.026.1151-.026.1936v1.6441Zm1.792 1.296c-.005-.1437-.032-.2794-.082-.4072-.048-.127-.125-.2335-.235-.3173-.104-.0799-.232-.1457-.379-.1896-.061-.0153-.128-.03-.199-.042-.105-.0139-.221-.0232-.346-.0232h-.551v1.8569c0 .0885.008.1537.026.1923.014.0399.047.0718.092.0911.048.0207.129.0293.236.0293h.543c.117-.0047.223-.0193.323-.0452.117-.0293.224-.0905.317-.179.094-.0898.157-.1883.186-.2934.029-.1071.05-.2269.056-.3613.008-.1331.013-.2369.013-.3114Zm7.101 1.318c.026.0167.043.038.048.0659.003.0319-.009.0612-.034.0885-.028.0273-.06.0419-.101.0419h-2.289c-.075 0-.129-.0073-.16-.0193-.031-.0126-.046-.0452-.041-.0991.006-.0319.019-.0559.046-.0772.029-.0153.064-.0259.107-.0293l.131-.0126c.043-.0027.094-.0133.153-.0346.059-.0186.105-.0579.137-.1164.037-.0586.051-.1225.046-.1943-.006-.0752-.016-.1304-.029-.1657l-.348-.8017h-1.675l-.264.8137c-.037.1118-.047.2016-.03.2715.016.0711.052.1224.104.159.051.0346.104.0579.156.0645.053.0106.101.0166.143.0166h.079c.029 0 .057.0127.086.038.027.0266.04.0539.037.0845-.005.0445-.028.0725-.066.0831-.041.014-.099.0193-.175.0193h-1.472c-.101 0-.168-.0073-.199-.0193-.039-.0126-.056-.0426-.056-.0911 0-.0473.016-.0765.045-.0905.03-.01.073-.016.126-.024l.083-.0126c.034-.0027.088-.0166.161-.0499.072-.0313.132-.0659.183-.1058.048-.0399.096-.0905.143-.1464.047-.0585.085-.1137.12-.1696.031-.0533.056-.1058.075-.1517 0 0 1.573-4.0206 1.579-4.0346.036-.0985.074-.175.107-.2322.036-.0592.09-.0898.159-.0931.068-.0047.12.0166.152.0612.037.0426.078.1191.131.2289l1.86 4.0698c.017.0366.056.1044.125.2056.066.1011.118.1763.156.2235.038.0459.087.0905.146.1271.06.0373.115.0612.161.0665l.066.0127c.034.008.064.0179.088.0292Zm-2.424-1.6726-.732-1.7212-.022-.0512-.71 1.7724h1.464Zm13.834 1.6434-.101-.0127c-.047-.0046-.098-.0219-.154-.0552-.053-.0326-.112-.0712-.171-.1198-.056-.0505-.108-.0951-.15-.141-.045-.0459-.095-.1065-.151-.1836l-.13-.1843c-.098-.1324-.157-.2149-.173-.2522l-1.357-2.34.876-.9308c.046-.0485.128-.1111.249-.1882.122-.0752.221-.1311.299-.1657.077-.0319.177-.0645.292-.0965.115-.0293.202-.0472.256-.0472h.062c.032 0 .066-.01.098-.0313.032-.0186.046-.0479.046-.0931-.001-.0433-.018-.0692-.053-.0825-.031-.01-.064-.0167-.101-.0193h-2.03c-.045 0-.089.0086-.128.0239-.033.0166-.054.0479-.051.0965 0 .0472.013.0765.039.0858.026.0133.064.0186.118.0193l.122.0113c.043.006.093.022.142.0499.048.0266.08.0619.101.1091.013.0486.01.1058-.021.1677-.027.0659-.056.1284-.097.1936-.039.0632-.074.1125-.107.149l-1.428 1.4771v-1.4724c0-.0798.005-.1577.018-.2335.014-.0759.044-.1464.088-.2176.043-.0672.098-.1204.161-.157.064-.0366.125-.0579.192-.0659l.119-.0113c.032-.0007.058-.01.082-.0233.022-.0113.035-.0426.039-.0905 0-.0346-.011-.0612-.033-.0798-.019-.014-.053-.0233-.093-.024l-2.332-.0053c-.038 0-.074.008-.101.026-.024.0166-.042.0452-.05.0831-.008.0353 0 .0639.026.0852.027.022.053.0326.086.0326l.136.0073c.051.006.112.0293.184.0712.069.0406.13.0958.182.167.045.0659.077.1457.091.2322.01.0872.018.1624.018.2269v3.3619c-.002.1005-.014.1883-.037.2588-.027.0725-.07.1411-.132.2029-.059.0646-.115.1072-.165.1324-.049.0247-.095.0366-.138.0393l-.098.0126c-.022.0034-.049.014-.077.0293-.024.0213-.042.0419-.045.0659-.013.0486-.005.0805.024.1011.028.0213.064.0293.11.0293h2.247c.056 0 .099-.0053.128-.016.031-.01.048-.0399.051-.0885 0-.0292-.013-.0565-.038-.0805-.023-.0219-.051-.0366-.082-.0399l-.08-.0126c-.042-.0047-.101-.0266-.176-.0639-.075-.0393-.133-.0885-.179-.147-.043-.0613-.077-.1311-.096-.2149-.022-.0819-.03-.1604-.03-.2322v-1.3493l.432-.4212 1.142 1.9647c.016.0346.032.0845.052.1497.02.0659.02.1225.005.171-.019.0506-.048.0872-.096.1058-.049.0206-.09.0326-.123.0373l-.064.0126-.078.0113c-.043.0127-.067.0473-.071.0952-.006.0419.003.0751.029.0931.029.018.061.026.1.026h2.286c.08 0 .138-.0074.181-.022.041-.0153.06-.0472.051-.0938-.005-.0473-.027-.0765-.062-.0872-.033-.01-.06-.0179-.081-.0219Zm8.526-2.7013c.01.1597.015.3034.015.4332-.002.1809-.015.3466-.036.501-.022.1563-.059.3053-.107.4524-.046.1464-.115.2987-.207.4571-.091.159-.205.3053-.338.4391-.134.133-.264.2348-.381.3034-.121.0685-.265.1377-.439.2076-.171.0711-.293.1124-.362.1257-.064.0113-.177.0259-.335.0366-.157.0113-.255.0193-.311.0193-.08.002-.193-.008-.331-.026-.15-.0166-.288-.0425-.415-.0778-.124-.0353-.274-.0958-.447-.1856-.175-.0885-.328-.1863-.458-.2908-.13-.1064-.25-.2375-.36-.3905-.115-.1544-.202-.3034-.262-.4491-.063-.1437-.109-.2841-.14-.4212-.029-.1357-.051-.2535-.062-.3506-.01-.0985-.018-.2069-.018-.322v-.2855c.003-.1117.013-.2401.042-.3878.021-.1471.064-.2948.111-.4418.05-.1497.119-.2948.2-.4438.086-.1457.175-.2721.277-.3746.099-.1018.207-.1976.32-.2821.111-.0851.225-.1603.345-.2235.116-.0639.253-.1205.412-.1724.157-.0499.295-.0898.41-.1071.113-.0193.236-.0312.403-.0312.195.002.386.0206.573.0565.187.0366.36.0872.519.1537.159.0659.306.1464.441.2422.137.0965.259.2056.366.3293.104.1244.203.2708.288.4365.088.1656.151.3466.199.5396.045.1942.074.3699.088.5302Zm-1.242.3606c0-.0898-.003-.2209-.009-.3972-.016-.2368-.028-.4338-.042-.5901-.016-.1524-.039-.3001-.067-.4398-.029-.143-.072-.2695-.128-.3832-.053-.1111-.133-.2076-.233-.2875-.099-.0831-.22-.1403-.357-.1783-.139-.0379-.269-.0578-.387-.0578h-.036c-.117.0053-.229.0272-.338.0658-.118.0426-.224.1005-.32.179-.096.0745-.185.1916-.271.3453-.085.1517-.147.32-.185.495-.041.1783-.071.3726-.092.5802-.021.2102-.035.4132-.043.6121-.008.1989-.011.346-.008.4358 0 .1244.005.2628.021.4158.015.1517.038.3081.072.4651.032.1577.071.2774.115.3593.047.0818.094.157.142.2282.05.0672.12.1364.207.2095.091.0712.21.1298.36.1757.119.0366.234.0579.34.0619.021.0026.042.0026.061.0026.075.0027.153-.0033.23-.0159.082-.016.178-.0473.285-.0978.109-.0479.207-.1278.295-.2349.088-.1098.157-.2528.21-.4225.053-.1723.088-.314.109-.4305.018-.1144.034-.304.046-.5695.015-.2648.02-.4398.023-.5263Zm-89.4265 2.3706c.024.016.0426.0379.0453.0659.0026.0313-.0073.0605-.0326.0885-.0286.0272-.0606.0406-.1032.0406h-2.2854c-.0778 0-.131-.006-.1643-.0187-.0299-.0133-.0432-.0459-.0393-.0991.0027-.0319.0187-.0566.046-.0772.0286-.016.0638-.0266.1057-.0293l.1298-.0126c.0459-.0027.0985-.014.155-.0346.0586-.0193.1045-.0605.1377-.1164.0353-.0586.0506-.1231.0453-.195-.0047-.0752-.014-.1297-.0286-.165l-.3493-.803h-1.6713l-.2668.8137c-.038.1117-.048.2022-.03.2714.016.0712.0526.1231.1018.1597.0539.0346.1058.0566.159.0639.0513.0113.0992.0179.1444.0179h.0772c.0273 0 .0579.0113.0858.038.0266.0266.0379.0532.0379.0831-.008.0446-.0292.0725-.0692.0845-.0406.014-.0964.0187-.1749.0187h-1.4691c-.1011 0-.1677-.006-.2029-.0187-.0326-.0133-.0533-.0432-.0533-.0925 0-.0459.018-.0751.048-.0898.0292-.0106.0718-.0166.125-.0239l.0832-.0127c.0326-.0026.0872-.0179.1603-.0505.0712-.0313.1331-.0659.181-.1058.0499-.0399.0978-.0898.1437-.1464.0479-.0579.0872-.1138.1205-.1683.0299-.0539.0585-.1065.0738-.1517 0 0 1.5728-4.0213 1.5788-4.0346.0393-.0985.0739-.175.1091-.2335.0373-.0592.0885-.0885.1577-.0925.0692-.0047.1205.016.1537.0605.0353.0433.0799.1198.1311.2296l1.8603 4.0698c.0153.0366.0565.1045.123.2049.0659.1012.1178.1764.1564.2236.0386.0472.0858.0925.1484.1277.0585.0373.1117.0606.1596.0666l.0646.0126c.0352.0087.0632.0186.0911.0306Zm-2.4271-1.6726-.7339-1.7192-.0212-.0533-.7086 1.7725h1.4637Zm13.3925.4324c.0232.0586.0193.1364-.008.2376-.0406.155-.0832.2947-.1205.4185-.0372.1244-.0911.2421-.1656.3512-.0745.1118-.1617.2016-.2602.2708-.1011.0712-.2095.1218-.328.1511-.1171.0292-.2468.0406-.3852.0366-.1836-.0027-.3413-.032-.4757-.0958-.1331-.0566-.2362-.1491-.3087-.2688-.0692-.1225-.1165-.2396-.1391-.352-.0206-.1118-.0366-.2588-.0419-.4391l-.01-.3666c-.0073-.1111-.0126-.2349-.0233-.3753-.0053-.1384-.0259-.2528-.0585-.338-.0313-.0831-.0772-.155-.1411-.2049-.0552-.0479-.125-.0845-.2322-.1117-.0978-.026-.2362-.0346-.4185-.0346h-.3779v1.6719c0 .0659.0113.1437.0313.2376.0233.0938.0552.1696.0991.2235.0473.0552.1058.0991.1784.1337.0711.034.1277.0526.1676.0526l.0878.0086c.034.0027.0659.018.0938.0366.03.0207.0453.0486.0453.0872.0027.0373-.01.0665-.0346.0825-.024.0206-.0592.0273-.0965.0233l-2.3-.0027c-.0379 0-.0719-.01-.1012-.0312-.0266-.0187-.0379-.0533-.0292-.1005.0053-.024.0193-.0459.0425-.0672.024-.016.05-.026.0779-.0273l.0745-.0086c.026 0 .0765-.0167.1524-.0446.0745-.032.1364-.0612.1803-.0978.0499-.0346.0871-.1071.1171-.2202.0312-.1112.0459-.203.0459-.2762v-3.3619c-.0027-.0585-.0113-.131-.0273-.2242-.0133-.0878-.0459-.1703-.0931-.2402-.046-.0738-.1005-.1271-.1564-.163-.0585-.0346-.1171-.0565-.175-.0658l-.1191-.0114c-.0233 0-.0472-.0099-.0745-.0352-.0286-.026-.0366-.0586-.0266-.0985.0053-.0293.022-.0525.0472-.0712.0286-.0193.0612-.0266.1005-.0266h3.1643c.1271.0033.2548.0087.3832.0206.1258.014.2609.0499.3992.1118.1404.0632.2575.1337.3467.2182.0938.0832.1756.1963.2442.338.0698.1431.1097.3141.1257.509.0113.1976-.0346.3852-.1404.5649-.0772.1297-.1783.2362-.2974.3133-.1204.0819-.2561.1524-.4151.2103-.1564.0559-.2868.0965-.3919.1177l-.3833.0899c.1165.0193.2176.0379.3001.0559.0858.0186.1776.0479.2848.0931.1044.0472.1962.1084.2708.1923.0765.0851.1297.181.1616.2874.03.1091.0506.2582.0586.4498.008.1896.014.3493.0159.4757 0 .1271.0267.2162.0779.2654.0506.0499.1151.0719.1976.0699.0406 0 .0898-.0153.1484-.0446.0585-.0259.1124-.0831.1563-.1643.0473-.0779.0878-.1643.1258-.2528.0339-.0905.0585-.1484.0698-.1757.01-.0259.0346-.0505.0712-.0798.0353-.0246.0779-.0366.1178-.0293.0412.0073.0718.0406.0945.1011Zm-2.0293-1.8436c.0765-.1151.1284-.2428.1497-.3832.0239-.1417.0293-.2908.016-.4465-.018-.173-.0553-.3027-.1118-.3912-.0539-.0845-.1271-.1563-.2156-.2129-.0878-.0592-.1896-.0991-.3014-.1231-.0658-.0133-.1231-.0233-.1829-.0292-.0453-.0054-.0885-.008-.1304-.008l-.2662.0046c-.135.0027-.2335.0213-.2894.0539-.0566.0366-.0925.0752-.1071.1231-.0153.0472-.026.1331-.026.2548v1.5855h.3972c.1271 0 .2529-.0106.3833-.0266l.0379-.0073c.1144-.022.2282-.0619.3433-.1224.1251-.0666.2262-.1571.3034-.2715Zm4.7797 3.0539-.1071-.0113c-.0605-.0034-.1297-.0213-.2109-.0486-.0798-.0313-.1437-.0739-.1976-.1324-.0532-.0586-.0858-.1271-.1018-.2003-.0153-.0772-.0246-.1656-.0299-.2641v-3.3739c0-.0852.0113-.165.0299-.2369.0246-.0685.0586-.1364.1065-.2002.0499-.0632.1071-.1171.1756-.1597.0665-.0406.1337-.0665.2023-.0765l.0924-.0127c.03-.0006.0559-.0113.0792-.0319.0206-.0193.0346-.0472.0406-.0725.0027-.0399-.008-.0685-.0346-.0885-.0239-.018-.0559-.0293-.0985-.0326l-2.3572-.002c-.0406 0-.0719.008-.1005.0259-.0259.0193-.0432.0473-.0506.0852-.0079.0379 0 .0659.0247.0872.0259.0206.0512.0292.0778.0299l.0798.0126c.0513.01.1191.032.2016.0666.0805.0346.1497.0858.207.1517.0558.0645.0898.1464.1018.2422.0133.0958.0206.1756.0206.2388v3.3107c-.0033.0805-.0187.175-.0506.2801-.0286.1045-.0718.1836-.1284.2362-.0539.0506-.1164.0905-.189.1178-.0711.0272-.125.0452-.1669.0485l-.0899.0113c-.0233.0034-.0479.016-.0745.0286-.0219.0167-.0379.0393-.0406.0692-.0126.0479-.002.0845.024.1012.0273.0193.0619.0266.1058.0266h2.4304c.0486 0 .0845-.0073.1098-.0246.0246-.0153.0346-.0499.0319-.0978-.0046-.0453-.0159-.0765-.0319-.0832-.018-.01-.0439-.0166-.0812-.0206Zm4.5875-1.2735c-.0526.0273-.1144.0938-.1836.1996-.0632.1038-.1484.2109-.2469.324-.0965.1145-.1989.2096-.3034.2935-.1044.0825-.2202.1517-.3406.2042-.1198.0499-.2602.0825-.4172.0978-.1537.016-.2921.0073-.4145-.0193-.1191-.0286-.2475-.0818-.3892-.163-.1331-.0798-.2508-.179-.3453-.2907-.0932-.1178-.167-.2482-.2202-.3966-.0539-.147-.0938-.298-.1151-.4517-.024-.1537-.0393-.3147-.0433-.4817-.0053-.1677-.008-.3187-.008-.4531-.0046-.1963.0034-.364.0193-.513.0107-.1457.0393-.2981.0805-.4611.0373-.1623.0859-.308.1404-.4417.0552-.1304.1271-.2529.2156-.364.0911-.1111.2069-.2002.3546-.2668.149-.0685.32-.1018.5223-.0984.183.0019.3486.0299.4917.0831.1463.0512.2694.1145.3746.1817.1031.0711.1962.1497.2761.2388.0798.0898.151.195.2175.3227.0639.1251.1125.2289.1384.3134l.0286.0978c.0127.0499.0313.0898.0526.1171.0206.0286.0512.0379.0925.0346.0425-.0034.0692-.0167.0878-.0346.016-.0167.0319-.0479.0399-.0899.0087-.0452.0113-.0938.0087-.1457l-.0672-1.302c-.0027-.026-.008-.0559-.016-.0905-.008-.0319-.0186-.0592-.0346-.0798-.0266-.0233-.0612-.0346-.1018-.034-.0399.0007-.0699.0153-.0911.0453-.0213.0292-.0373.0685-.0473.1144-.0126.0453-.0259.0872-.0352.1218-.0167.0366-.0346.0618-.0613.0818-.0452.0313-.0964.0419-.1537.0313-.0592-.0127-.139-.0473-.2441-.1018-.1018-.0579-.2203-.1085-.3566-.1537-.1351-.0479-.2735-.0825-.4132-.1018-.1357-.0213-.2974-.0286-.4737-.0246-.205.01-.3906.0339-.5503.0752-.163.0379-.3133.0911-.4477.1596-.1358.0686-.2662.1457-.3919.2342-.1224.0898-.2295.183-.3174.2848-.0885.1011-.1756.2262-.2641.3719-.0872.1457-.157.2928-.2076.4451-.0499.151-.0911.3307-.1164.5396-.0266.2069-.0399.3852-.0399.5243 0 .1417.0059.2894.0232.4418.0167.1523.0446.3093.0885.4717.042.1623.1058.3227.1943.4897.0885.1656.2189.3353.3886.5129.171.173.3486.3068.5316.3966.1836.0871.3825.1543.5954.1962.2136.0406.4225.0619.6288.0619.1723.0007.3493-.0126.5302-.0419.183-.0293.3487-.0792.4944-.1464.1464-.0665.2894-.1656.4238-.2974.1357-.133.2428-.2528.316-.3619.0745-.1058.1537-.2369.2336-.3879.0459-.0832.0672-.1524.0618-.2069-.0033-.0512-.0239-.0905-.0592-.1125-.0372-.0232-.0818-.0199-.1337.006Zm5.8476-3.6713h-1.4857c-.0612 0-.1058.0054-.1364.0193-.0286.0153-.0446.0399-.0526.0779-.0073.0419.0027.0752.034.0964.0273.024.0532.0346.0738.0346l.1464.0107c.0406.006.0965.0219.1737.0525.0745.0273.1357.0666.1789.1138.0459.0473.0779.1125.0978.1923.018.0818.0293.1577.0293.2309v2.6739c0 .1418-.0113.2821-.0399.4172-.0266.1391-.0745.2635-.1471.3726-.0725.1071-.1856.2082-.3386.2961-.155.0884-.3067.149-.4624.1816-.149.0319-.3061.0452-.4578.0379-.1949-.006-.3752-.0406-.5455-.1058-.1697-.0638-.2954-.1497-.3779-.2548-.0819-.1084-.1311-.2216-.1511-.338-.0233-.1191-.0319-.2748-.0272-.4717v-2.7312c0-.0765.0099-.159.0326-.2428.0219-.0805.0638-.157.123-.2242.0619-.0686.1298-.1145.2096-.1444.0799-.0266.1484-.0459.2083-.0552l.1191-.0107c.0239 0 .0452-.0106.0645-.0346.0206-.0213.0293-.0506.0293-.0898-.0007-.0353-.016-.0632-.0373-.0779-.0259-.0166-.0565-.0246-.1031-.0266l-2.501-.0026c-.0406 0-.0765.006-.1044.0259-.0273.0167-.0406.0473-.0406.0852 0 .0419.0133.0718.0399.0911.0273.0207.0526.0293.0792.0293l.1171.0107c.0558.0086.1224.0259.2042.0532.0825.0266.1617.0745.2309.139.0745.0692.1204.1457.1337.2316.0167.0905.0246.1776.0246.2694v2.7731c-.0053.0779 0 .1577.0133.2429.0127.0858.026.159.04.2235.0133.0659.0432.1384.0858.2242.0452.0845.141.195.2868.336.1463.1411.3319.2402.5595.3034.2255.0579.4251.0978.5988.1085.171.0153.32.0239.4451.0239.1357 0 .2828-.0106.4424-.0286.1591-.0133.3161-.0426.4651-.0825.1524-.0399.2954-.0985.4385-.181.1417-.0798.2641-.1749.3672-.2874.1045-.1084.181-.2315.2402-.3639.0532-.1331.0845-.2602.0898-.3813.008-.119.0113-.2348.0113-.3426V28.586c-.0033-.0666.0087-.1411.0353-.2282.0259-.0899.0605-.1577.1011-.2136.0406-.0532.0952-.0985.165-.1364.0666-.0366.1331-.0586.1963-.0672l.1178-.0107c.0259-.002.0499-.0106.0738-.0312.026-.0207.034-.0479.03-.0852-.0047-.0372-.0193-.0659-.0479-.0845-.026-.018-.0606-.0273-.0965-.0273Zm5.1457 3.3952c-.046-.0033-.0779.0087-.0979.0339-.0166.0293-.0372.0739-.0605.1378l-.0566.1364c-.0345.0818-.0851.1763-.1563.2874-.0699.1111-.1444.2076-.2189.2981-.0752.0871-.1783.1789-.3034.2747-.1257.0992-.2455.1657-.3593.2043-.1097.0392-.2229.0645-.3293.0745-.1071.0127-.189.014-.2442.014h-.799c-.0686 0-.1271-.0113-.1777-.0393-.0525-.0273-.0905-.0645-.1204-.1064-.0319-.0426-.0473-.0825-.0526-.1178v-3.6799c0-.0712.0107-.1471.0273-.2296.018-.0818.0526-.1563.1011-.2242.0506-.0659.1065-.1171.1684-.1537.0612-.0346.1277-.0579.1922-.0658l.1072-.0114c.0292-.0006.0532-.0153.0725-.0372.0206-.024.0293-.0526.0266-.0872-.0007-.0299-.0133-.0552-.0299-.0725-.0233-.016-.0539-.0259-.0925-.0293l-2.2834-.002c-.042 0-.0746.008-.1012.026-.0239.0193-.0425.0459-.0512.0825-.0073.0379.0007.0665.0299.0905.0267.0233.0533.0339.0805.0339l.1098.0073c.0346.0033.0932.0293.1723.0772.0799.0506.1384.0991.1764.147.0392.0506.0658.1311.0798.2422.018.1118.0259.1896.0259.2322v3.3606c-.0033.1065-.0179.2003-.0425.2801-.024.0798-.0686.1437-.1284.1923-.0593.0479-.1231.0845-.189.1144-.0632.0293-.1058.0459-.1351.0459l-.0765.0127c-.0266.0033-.0525.0139-.0765.0286-.0239.0179-.0379.0392-.0432.0672-.0107.0512 0 .0858.0246.1058.0293.0186.0665.0286.1098.0239h4.6646l.151-1.5429c.0054-.0965.0027-.1577-.008-.1863-.0113-.0266-.0425-.0426-.0864-.0459Zm.2475-1.817c0 .0559.0106.1071.0339.151.0219.0433.0565.0672.1018.0672.0299.002.0592-.008.0745-.0286.0206-.0179.0379-.0532.0592-.1064l.0393-.0965.135-.3307c.0353-.0752.0899-.1723.1624-.2947.0752-.1198.147-.2156.2162-.2828.0699-.0692.163-.1337.2814-.1943.1151-.0612.2176-.1064.3054-.133.0885-.0246.1644-.038.2236-.038l.1803.002v3.9208c-.002.0772-.0193.1657-.0486.2635-.0273.1018-.0698.1803-.1284.2389-.0552.0559-.1244.0991-.2016.1257-.0772.0319-.1484.0526-.2069.0665-.0592.014-.1098.0247-.1544.0247l-.1044.0113c-.0273.0033-.0539.0159-.0792.0326-.0286.0186-.0419.0432-.0419.0738-.0047.0406.008.0692.0372.0885.0293.016.0659.0273.1065.0273l2.8157.0027c.0239.0046.0559-.0074.0878-.0273.0299-.022.0459-.0526.0452-.0925-.0026-.0379-.0206-.0672-.0479-.0825-.0319-.0193-.0638-.0293-.0884-.0299l-.1038-.0047c-.0692 0-.1591-.018-.2715-.0566-.1118-.0392-.2016-.0904-.2681-.1536-.0692-.0639-.1125-.1364-.1351-.2236-.0239-.0845-.0346-.171-.0346-.2601v-3.9468l.189-.002c.0665 0 .1597.0206.2767.0619.1198.0426.2396.1111.3593.2029.1218.0958.2209.2016.2934.3187.0739.1191.1358.2402.1897.3613.0532.1204.0884.2162.1111.2821l.0399.1437c.01.0419.0293.0765.0559.1065.0246.0299.0612.0405.1071.0319.0459-.0113.0772-.0346.0925-.0692.0153-.0366.0233-.0858.0233-.1524v-1.5781h-4.7285v1.5788Zm10.3725-1.5782h-1.4877c-.0592 0-.1045.0054-.1351.0193-.0293.0153-.0452.0399-.0512.0779-.008.0419.0027.0752.0299.0964.0313.024.0539.0346.0772.0346l.1484.0107c.0379.006.0951.0219.1683.0525.0772.0273.1391.0666.1816.1138.0453.0473.0779.1125.0978.1923.0153.0818.0287.1577.0287.2309v2.6739c0 .1418-.0134.2821-.038.4172-.0272.1391-.0745.2635-.149.3726-.0719.1071-.1843.2082-.338.2961-.1537.0884-.306.149-.4604.1816-.1537.0319-.3067.0452-.4611.0379-.1916-.006-.3732-.0406-.5449-.1058-.1683-.0638-.2954-.1497-.3759-.2548-.0825-.1084-.1304-.2216-.1524-.338-.0212-.1191-.0292-.2748-.0266-.4717v-2.7312c0-.0765.0107-.159.0326-.2428.0213-.0805.0639-.157.1251-.2242.0586-.0686.1298-.1145.2096-.1444.0778-.0266.1444-.0459.2069-.0552l.1191-.0107c.024 0 .0446-.0106.0645-.0346.0207-.0213.0313-.0506.0287-.0898 0-.0353-.016-.0632-.0353-.0779-.0266-.0166-.0579-.0246-.1038-.0266l-2.4996-.0026c-.042 0-.0772.006-.1058.0259-.0266.0167-.038.0473-.038.0852 0 .0419.0107.0718.0373.0911.0266.0207.0526.0293.0798.0293l.1191.0107c.0533.0086.1178.0259.2016.0532.0819.0266.1597.0745.2336.139.0718.0692.1151.1457.1304.2316.0166.0905.0266.1776.0266.2694v2.7731c-.0047.0779.0006.1577.0113.2429.0133.0858.0273.159.0426.2235.0113.0659.0426.1384.0845.2242.0452.0845.141.195.2874.336.1457.1411.3307.2402.5582.3034.2262.0579.4258.0978.5995.1085.173.0153.32.0239.4464.0239.1351 0 .2814-.0106.4411-.0286.1597-.0133.3147-.0426.4657-.0825.1524-.0399.2955-.0985.4392-.181.141-.0798.2634-.1749.3652-.2874.1045-.1084.1817-.2315.2389-.3639.0559-.1331.0878-.2602.0951-.3813.006-.119.0087-.2348.0087-.3426V28.586c-.0027-.0666.0086-.1411.0352-.2282.024-.0899.0606-.1577.1005-.2136.0419-.0532.0985-.0985.165-.1364.0692-.0366.1331-.0586.195-.0672l.1197-.0107c.026-.002.0512-.0106.0725-.0312.0247-.0207.0346-.0479.0326-.0852-.0053-.0372-.0206-.0659-.0472-.0845-.0319-.018-.0639-.0273-.1011-.0273Zm5.6373 3.7345c.0186.0586.0186.1364-.0086.2376-.0446.155-.0825.2947-.1205.4185-.0379.1244-.0931.2421-.165.3512-.0751.1118-.1603.2016-.2608.2708-.1011.0712-.2082.1218-.3273.1511-.1178.0292-.2482.0406-.3859.0366-.183-.0027-.3407-.032-.4744-.0958-.1331-.0566-.2369-.1491-.3087-.2688-.0692-.1225-.1151-.2396-.1411-.352-.0192-.1118-.0326-.2588-.0399-.4391l-.0113-.3666c-.0053-.1111-.0126-.2349-.0233-.3753-.0073-.1384-.0246-.2528-.0565-.338-.03-.0831-.0779-.155-.1391-.2049-.0585-.0479-.1297-.0845-.2388-.1117-.0938-.026-.2336-.0346-.4159-.0346h-.3752v1.6719c0 .0659.0106.1437.0319.2376.0193.0938.0533.1696.0992.2235.0452.0552.1018.0991.1749.1337.0726.034.1305.0526.1697.0526l.0878.0086c.034.0027.0659.018.0932.0366.0319.0207.0459.0486.0459.0872.002.0373-.01.0665-.0353.0825-.0266.0206-.0579.0273-.0958.0233l-2.3-.0027c-.0406 0-.0752-.01-.1018-.0312-.0266-.0187-.0373-.0533-.0293-.1005.0053-.024.0206-.0459.0432-.0672.0233-.016.0506-.026.0766-.0273l.0751-.0086c.0246 0 .0772-.0167.1524-.0446.0745-.032.1364-.0612.183-.0978.0452-.0346.0851-.1071.1124-.2202.0326-.1112.0459-.203.0459-.2762v-3.3619c-.0027-.0585-.0113-.131-.0239-.2242-.0153-.0878-.046-.1703-.0952-.2402-.0472-.0738-.0985-.1271-.1563-.163-.0586-.0346-.1171-.0565-.1764-.0658l-.1177-.0114c-.0206 0-.0453-.0099-.0739-.0352-.0286-.026-.0372-.0586-.0259-.0985.0053-.0293.0206-.0525.0459-.0712.0273-.0193.0585-.0266.0991-.0266h3.1643c.1278.0033.2562.0087.3833.0206.1257.014.2614.0499.3998.1118.1384.0632.2575.1337.348.2182.0938.0832.173.1963.2429.338.0711.1431.1137.3141.1257.509.0133.1976-.0339.3852-.1384.5649-.0805.1297-.179.2362-.2987.3133-.1178.0819-.2582.1524-.4152.2103-.1563.0559-.2868.0965-.3939.1177l-.3812.0899c.1171.0193.2176.0379.2987.0559.0852.0186.179.0479.2841.0931.1085.0472.1976.1084.2741.1923.0739.0851.1278.181.1591.2874.0339.1091.0525.2582.0585.4498.0107.1896.0133.3493.016.4757 0 .1271.0286.2162.0791.2654.0513.0499.1152.0719.1943.0699.0446 0 .0958-.0153.1524-.0446.0585-.0259.1118-.0831.1563-.1643.0473-.0779.0872-.1643.1245-.2528.0372-.0905.0605-.1484.0711-.1757.01-.0259.0346-.0505.0699-.0798.0393-.0246.0772-.0366.1191-.0293.0399.0073.0719.0406.0938.1011Zm-2.0312-1.8436c.0798-.1151.1277-.2428.1517-.3832.0219-.1417.0272-.2908.0133-.4465-.016-.173-.0539-.3027-.1098-.3912-.0552-.0845-.1258-.1563-.2163-.2129-.0851-.0592-.1889-.0991-.3013-.1231-.0639-.0133-.1225-.0233-.1817-.0292-.0452-.0054-.0898-.008-.1331-.008l-.2654.0046c-.1337.0027-.2289.0213-.2874.0539-.0566.0366-.0925.0752-.1072.1231-.0159.0472-.0239.1331-.0239.2548v1.5855h.3945c.1278 0 .2562-.0106.3839-.0266l.038-.0073c.1151-.022.2288-.0619.3433-.1224.125-.0666.2248-.1571.3014-.2715Zm7.8462 3.0838c.024.016.0406.0379.0432.0659.0054.0313-.0079.0605-.0345.0885-.0267.0272-.0579.0406-.0992.0406h-2.2867c-.0772 0-.1311-.006-.1624-.0187-.0299-.0133-.0445-.0459-.0392-.0991.0026-.0319.0186-.0566.0452-.0772.0266-.016.0619-.0266.1071-.0293l.1298-.0126c.0432-.0027.0958-.014.1543-.0346.0559-.0193.1032-.0605.1378-.1164.0346-.0586.0505-.1231.0432-.195-.0047-.0752-.014-.1297-.0273-.165l-.3493-.803h-1.6713l-.2661.8137c-.0399.1117-.0479.2022-.0293.2714.018.0712.0486.1231.1018.1597.0506.0346.1065.0566.1577.0639.0539.0113.0978.0179.1417.0179h.0792c.0286 0 .0579.0113.0871.038.026.0266.0373.0532.0373.0831-.0053.0446-.0293.0725-.0692.0845-.0399.014-.0985.0187-.1736.0187h-1.4711c-.1005 0-.167-.006-.2023-.0187-.0326-.0133-.0538-.0432-.0538-.0925 0-.0459.0186-.0751.0485-.0898.0313-.0106.0699-.0166.1231-.0239l.0845-.0127c.0339-.0026.0872-.0179.1597-.0505.0725-.0313.135-.0659.183-.1058.0479-.0399.0984-.0898.1417-.1464.0479-.0579.0851-.1138.1204-.1683.0319-.0539.0592-.1065.0752-.1517 0 0 1.5748-4.0186 1.5788-4.0346.0373-.0985.0739-.175.1091-.2335.0353-.0592.0872-.0885.1577-.0925.0665-.0047.1191.016.1537.0605.0346.0433.0798.1198.1311.2296l1.8602 4.0698c.016.0366.0566.1045.1224.2049.0666.1012.1191.1764.1571.2236.0379.0472.0858.0925.147.1277.0566.0373.1138.0606.159.0666l.0666.0126c.0352.0087.0618.0186.0911.0306Zm-2.4265-1.6726-.7325-1.7192-.0233-.0533-.7106 1.7725h1.4664Zm7.4711.0931c-.047-.0033-.079.0087-.098.0339-.016.0293-.035.0739-.061.1378l-.055.1364c-.032.0818-.085.1763-.157.2874-.07.1111-.141.2076-.219.2981-.079.0871-.179.1789-.302.2747-.128.0992-.245.1657-.358.2043-.112.0392-.225.0645-.333.0745-.107.0127-.188.014-.239.014h-.802c-.07 0-.129-.0113-.179-.0393-.049-.0273-.089-.0645-.12-.1064-.028-.0426-.046-.0825-.048-.1178-.003-.0346-.003-.0965 0-.183v-3.4969c0-.0712.007-.1471.026-.2296.015-.0818.051-.1563.1-.2242.051-.0659.106-.1171.168-.1537.062-.0346.127-.0579.193-.0658l.107-.0114c.029-.0006.052-.0153.074-.0372.018-.024.028-.0526.026-.0872 0-.0299-.014-.0552-.034-.0725-.02-.016-.052-.0259-.09-.0293l-2.2863-.002c-.0379 0-.0712.008-.0991.026-.024.0193-.0406.0459-.0499.0825-.006.0379.0006.0665.0299.0905.0246.0233.0532.0339.0805.0339l.1098.0073c.0341.0033.0901.0293.1721.0772.08.0506.137.0991.177.147.037.0506.063.1311.082.2422.014.1118.022.1896.022.2322v3.3606c-.003.1065-.015.2003-.043.2801-.024.0798-.067.1437-.128.1923-.059.0479-.122.0845-.187.1144-.061.0293-.1071.0459-.1377.0459l-.0745.0127c-.026.0033-.0539.0139-.0752.0286-.0246.0179-.0399.0392-.0452.0672-.0107.0512-.0027.0858.0259.1058.0293.0186.0665.0286.1098.0239h4.6629l.152-1.5429c.008-.0965.005-.1577-.01-.1863-.013-.0266-.04-.0426-.087-.0459Z"/>
	<path fill="#009882" d="M18.7118.0592144C18.2327.0186293 17.7517 0 17.2633 0h-.0612c-.4664.00066533-.9294.0212906-1.3885.0592144-.1777.013972-.3533.0326013-.529.0538916V9.91742c0 .48498.3966.88158.8803.88158h2.0731c.4851 0 .8836-.3966.8836-.88158V.0978036c-.1364-.0146372-.2741-.0252825-.4098-.0385892ZM21.0384.41317V10.8775c-.0346.3646-.322.6547-.6873.6913v.0026h-1.9979c-.4252 0-.7685.3433-.7685.7658v5.3679c0-.4052.314-.7345.7112-.7618h3.8224c.0246.002.0459.002.0698.002.024 0 .0479 0 .0725-.002.2602-.0233.4817-.1816.6022-.4025.0006-.0047.0026-.006.0046-.0113.018-.0326.032-.0692.0459-.1058.0054-.0213.014-.0433.018-.0665.0053-.0153.0086-.032.0086-.0506.0087-.0399.0114-.0772.014-.1191V5.20156c4.5316 2.155 7.6626 6.77104 7.6626 12.12034 0 6.7578-4.9973 12.3492-11.4989 13.278v-7.5256h2.9993c.0246.002.0459.0034.0699.0034.0239 0 .0479-.002.0725-.0034.3879-.0372.6939-.3619.6939-.7618V16.9353c0 .4252-.3426.7665-.7664.7665h-3.8356c-.4252 0-.7685.344-.7685.7671v4.5981h-.7665v-4.5981c0-.4231-.3426-.7671-.7664-.7671h-3.8343c-.4238 0-.7698-.3413-.7698-.7665v5.3766c.006.3998.3087.7245.6999.7618.0213.002.0453.0033.0699.0033.0219 0 .0472-.002.0718-.0033h2.9973v7.5262c-6.5009-.9288-11.49621-6.5202-11.49621-13.278 0-5.3493 3.12972-9.966 7.65661-12.12034V16.1815c0 .0027.0033.0027.0033.0053.0027.0419.0054.0792.0107.1191.0046.0187.0073.0353.0133.0506.0027.0233.01.0452.018.0665.0126.0366.0286.0725.0459.1058.0006.0053.0026.0073.0053.0113.1204.2209.3406.3799.6034.4025.0213.002.0453.002.0699.002.022 0 .0472 0 .0719-.002h3.817c.4012.0273.7139.3567.7139.7619v-5.3679c0-.4225-.3427-.7658-.7665-.7658h-1.9953l-.0047-.0027c-.3626-.0366-.652-.3267-.6859-.6913V.439784C5.70854 2.20757 0 9.0658 0 17.2627c0 9.5122 7.69854 17.2274 17.2021 17.2613h.0612c9.5336 0 17.262-7.7285 17.262-17.2613 0-8.23682-5.767-15.12632-13.4869-16.84953Z"/>
</svg>