<svg xmlns="http://www.w3.org/2000/svg" viewBox="0 0 79.2 50">
	<path fill="#939598" d="M49.1 3.6c1.1 6.2-5.2 18.2-16 29.3C20.4 46.1 6.2 53.2 1.5 48.6c-2.1-2-2-6.1 0-11.1-1.3 4-1.2 7.1.7 8.8C7 50.5 21 43.6 33.5 30.9 43.7 20.6 49.8 9.6 49.1 3.6z"/>
	<path fill="#ed1c24" d="M16 22.1c0 .5-.1 1-.2 1.4-.1.4-.3.8-.6 1.1-.2.3-.5.6-.9.8s-.7.4-1.1.6c-.4.1-.8.3-1.3.3-.5.1-1 .1-1.5.1H6.6c-.2 0-.4-.1-.6-.2s-.2-.4-.2-.7V13.1c0-.3.1-.6.2-.7.2-.1.4-.2.6-.2h3.6c.9 0 1.6.1 2.2.2.6.1 1.1.4 1.5.7.4.3.7.7 1 1.1s.3 1 .3 1.6c0 .3 0 .7-.1 1-.1.3-.2.6-.4.8-.2.2-.4.5-.6.7-.2.2-.5.3-.8.5.4.1.8.2 1.1.4.3.2.6.4.9.7.3.3.5.6.6 1 .1.3.1.7.1 1.2zm-3.7-6c0-.3 0-.5-.1-.8-.1-.2-.2-.4-.4-.6-.2-.1-.4-.3-.7-.3-.3-.1-.6-.1-1.1-.1H8.6V18h1.6c.4 0 .7 0 1-.1.2-.1.5-.2.6-.4.2-.2.3-.4.4-.6.1-.3.1-.5.1-.8zm.7 6.1c0-.3-.1-.6-.2-.9-.1-.3-.3-.5-.5-.7-.2-.2-.5-.3-.8-.4-.3-.1-.8-.1-1.3-.1H8.6v4h2.1c.4 0 .7 0 1-.1.3-.1.5-.2.7-.4.2-.2.4-.4.5-.6.1-.2.1-.5.1-.8zm11.9 3v.5c0 .1 0 .3-.1.3 0 .1-.1.1-.1.2-.1 0-.1.1-.2.1h-7.1c-.2 0-.4-.1-.6-.2-.2-.1-.2-.4-.2-.7V13.1c0-.3.1-.6.2-.7.2-.1.4-.2.6-.2h7.1c.1 0 .1 0 .2.1 0 0 .1.1.1.2s.1.2.1.3v1c0 .1 0 .3-.1.3 0 .1-.1.1-.1.2 0 0-.1.1-.2.1h-5.1v3.5h4.3c.1 0 .1 0 .2.1.1 0 .1.1.1.2s.1.2.1.3v1c0 .1 0 .2-.1.3 0 .1-.1.1-.1.2-.1 0-.1.1-.2.1h-4.3v4h5.1c.1 0 .1 0 .2.1.1 0 .1.1.1.2s.1.2.1.3v.5zm9.7-3.1c0 .7-.1 1.4-.4 2-.3.6-.7 1-1.1 1.4-.5.4-1 .7-1.7.9-.6.2-1.3.3-2 .3-.5 0-.9 0-1.4-.1-.4-.1-.8-.2-1.1-.3-.3-.1-.6-.2-.8-.4s-.4-.2-.5-.3c-.1-.1-.2-.2-.2-.4s-.1-.4-.1-.8v-.6c0-.2 0-.3.1-.4 0-.1.1-.2.1-.2.1 0 .1-.1.2-.1s.2.1.4.2.4.3.7.4c.3.1.6.3 1 .4s.9.2 1.4.2c.3 0 .7 0 .9-.1.3-.1.5-.2.7-.4.2-.2.3-.3.4-.6.1-.2.2-.5.2-.8 0-.3-.1-.6-.3-.8-.2-.2-.4-.4-.7-.6-.3-.2-.6-.3-1-.5s-.4-.3-.8-.5-.7-.4-1.1-.6c-.4-.2-.7-.5-1-.8-.3-.3-.5-.7-.7-1.1-.2-.4-.3-.9-.3-1.5 0-.7.1-1.3.4-1.8.3-.5.6-.9 1-1.3.4-.3.9-.6 1.5-.8.6-.2 1.2-.3 1.8-.3.3 0 .7 0 1 .1.3 0 .7.1.9.2.3.1.6.2.8.3.2.1.4.2.4.3.1.1.1.1.1.2 0 0 0 .1.1.2v1.3c0 .1 0 .3-.1.4 0 .1-.1.2-.1.2s-.1.1-.2.1-.2 0-.4-.2l-.6-.3-.9-.3c-.3-.1-.7-.1-1.1-.1-.3 0-.6 0-.8.1l-.6.3c-.2.1-.3.3-.3.5-.1.2-.1.4-.1.6 0 .3.1.6.3.8.2.2.4.4.7.6.3.2.6.3 1 .5s.7.3 1.1.5c.4.2.8.4 1.1.6.4.2.7.5 1 .8.3.3.5.7.7 1.1.3.4.4.9.4 1.5zm10.5-8.7v.5c0 .1 0 .3-.1.4 0 .1-.1.2-.1.2-.1 0-.1.1-.2.1h-3.6V26c0 .1 0 .1-.1.2 0 .1-.1.1-.2.1s-.3.1-.4.1H39c-.2 0-.3 0-.4-.1-.1 0-.2-.1-.2-.1 0-.1-.1-.1-.1-.2V14.5h-3.6c-.1 0-.1 0-.2-.1 0 0-.1-.1-.1-.2s-.1-.2-.1-.4v-.5-.6c0-.2 0-.3.1-.4 0-.1.1-.2.1-.2s.1-.1.2-.1h10c.1 0 .1 0 .2.1.1 0 .1.1.1.2s.1.2.1.4v.7zM14.7 41.6v.6c0 .1 0 .3-.1.4 0 .1-.1.2-.1.2-.1 0-.1.1-.2.1H6.6c-.3 0-.5-.1-.7-.2-.2-.1-.3-.4-.3-.7V28.6c0-.3.1-.6.3-.7.2-.2.4-.2.7-.2h7.6c.1 0 .1 0 .2.1.1 0 .1.1.1.2s.1.2.1.4v1.2c0 .1 0 .3-.1.4 0 .1-.1.2-.1.2-.1 0-.1.1-.2.1H8.7V34h4.6c.1 0 .1 0 .2.1.1 0 .1.1.1.2s.1.2.1.4v1.2c0 .1 0 .3-.1.4 0 .1-.1.2-.1.2-.1 0-.1.1-.2.1H8.7v4.3h5.5c.1 0 .1 0 .2.1.1 0 .1.1.1.2s.1.2.1.4c.1-.4.1-.2.1 0zm8.8-12.7v.6c0 .2 0 .3-.1.4 0 .1-.1.2-.1.2-.1 0-.1.1-.2.1h-5v4.1h4.7c.1 0 .1 0 .2.1.1 0 .1.1.1.2s.1.2.1.4v1.2c0 .2 0 .3-.1.4 0 .1-.1.2-.1.2-.1 0-.1.1-.2.1h-4.7v5.6c0 .1 0 .2-.1.2 0 .1-.1.1-.2.2-.1 0-.3.1-.5.1h-1.5c-.2 0-.4-.1-.5-.1-.1 0-.2-.1-.2-.2s-.1-.1-.1-.2V28.6c0-.3.1-.6.3-.7.2-.1.4-.2.7-.2h7.1c.1 0 .1 0 .2.1.1 0 .1.1.1.2s.1.2.1.4v.5zm8.8 0v.6c0 .2 0 .3-.1.4 0 .1-.1.2-.1.2-.1 0-.1.1-.2.1h-5v4.1h4.7c.1 0 .1 0 .2.1.1 0 .1.1.1.2s.1.2.1.4v1.2c0 .2 0 .3-.1.4 0 .1-.1.2-.1.2-.1 0-.1.1-.2.1h-4.7v5.6c0 .1 0 .2-.1.2 0 .1-.1.1-.2.2-.1 0-.3.1-.5.1h-1.5c-.2 0-.4-.1-.5-.1s-.2-.1-.2-.2-.1-.1-.1-.2V28.6c0-.3.1-.6.3-.7.2-.1.4-.2.7-.2h7.1c.1 0 .1 0 .2.1.1 0 .1.1.1.2s.1.2.1.4v.5zM46.8 35c0 1.3-.2 2.4-.5 3.4s-.8 1.8-1.4 2.5c-.6.7-1.4 1.2-2.3 1.6-.9.4-2 .5-3.2.5-1.2 0-2.2-.2-3.1-.5-.9-.3-1.6-.8-2.2-1.4-.6-.6-1-1.4-1.3-2.4-.3-1-.4-2.1-.4-3.5 0-1.2.2-2.3.5-3.3s.8-1.8 1.4-2.5c.6-.7 1.4-1.2 2.3-1.6.9-.4 2-.6 3.2-.6 1.2 0 2.2.1 3 .5.9.3 1.6.8 2.2 1.4.6.6 1 1.4 1.3 2.4.4 1.1.5 2.2.5 3.5zm-3.2.2c0-.8-.1-1.5-.2-2.2-.1-.7-.3-1.2-.6-1.7s-.7-.8-1.2-1.1c-.5-.3-1.1-.4-1.9-.4-.8 0-1.4.1-1.9.4-.5.3-.9.7-1.2 1.1-.3.5-.5 1-.7 1.7-.1.6-.2 1.3-.2 2 0 .8.1 1.6.2 2.2.1.7.3 1.2.6 1.7s.7.8 1.2 1.1c.5.2 1.1.4 1.9.4s1.4-.1 1.9-.4c.5-.3.9-.7 1.2-1.2.3-.5.5-1.1.7-1.7s.2-1.2.2-1.9zm14.8 7.2c0 .1 0 .2-.1.2 0 .1-.1.1-.2.1s-.3.1-.5.1H55.9c-.2 0-.3 0-.5-.1-.1 0-.2-.1-.2-.2-.1-.1-.1-.1-.1-.2L53.7 39c-.2-.4-.3-.7-.5-1-.2-.3-.3-.5-.5-.7-.2-.2-.4-.3-.7-.5-.2-.1-.5-.1-.9-.1h-1v5.8c0 .1 0 .1-.1.2 0 .1-.1.1-.2.1s-.3.1-.5.1h-1.5c-.2 0-.4-.1-.5-.1-.1 0-.2-.1-.2-.1 0-.1-.1-.1-.1-.2V28.6c0-.3.1-.6.3-.7.2-.2.4-.2.7-.2h5c.3 0 .5 0 .7.1.6.1 1.2.2 1.6.4.5.2.9.5 1.2.8.3.3.6.7.8 1.2.2.5.3 1 .3 1.6 0 .5-.1 1-.2 1.4s-.3.8-.6 1.1c-.2.3-.6.6-.9.9-.4.2-.8.4-1.3.6.2.1.4.2.6.4.2.2.4.3.6.6.2.2.3.5.5.8.2.3.3.6.5 1l1.3 3c.1.3.2.5.2.7.1-.1.1 0 .1.1zm-4-10.3c0-.5-.1-.9-.3-1.3-.2-.3-.6-.6-1.1-.7-.2 0-.3-.1-.5-.1h-2.2v4.3h1.6c.4 0 .8 0 1.2-.2.3-.1.6-.3.8-.4.2-.2.4-.4.5-.7v-.9zm15-3.2v.6c0 .2-.1.3-.1.4 0 .1-.1.2-.1.2-.1 0-.1.1-.2.1h-3.8v12.2c0 .1 0 .1-.1.2s-.1.1-.2.1-.3.1-.5.1H63c-.2 0-.4-.1-.5-.1-.1 0-.2-.1-.2-.1-.1-.1-.1-.1-.1-.2V30.1h-3.8c-.1 0-.1 0-.2-.1-.2 0-.2 0-.3-.1 0-.1-.1-.2-.1-.4v-.6-.6c0-.2.1-.3.1-.4 0-.1.1-.2.1-.2.1 0 .1-.1.2-.1H69c.1 0 .1 0 .2.1.1 0 .1.1.1.2s.1.2.1.4v.6zm9.8 9.4c0 .8-.1 1.5-.4 2.1-.3.6-.7 1.1-1.2 1.5-.5.4-1.1.7-1.8.9-.7.2-1.4.3-2.2.3-.5 0-1 0-1.5-.1l-1.2-.3c-.3-.1-.6-.2-.9-.4-.2-.1-.4-.2-.5-.4-.1-.1-.2-.2-.2-.4s-.1-.5-.1-.8v-.6c0-.2 0-.3.1-.4 0-.1.1-.2.1-.2.1 0 .1-.1.2-.1s.3.1.5.2.5.3.8.4c.3.2.7.3 1.1.4.4.1.9.2 1.5.2.4 0 .7 0 1-.1.3-.1.5-.2.8-.4.2-.2.4-.4.5-.6.1-.2.2-.5.2-.8 0-.3-.1-.6-.3-.9-.2-.2-.4-.5-.7-.7-.3-.2-.6-.4-1-.5-.4-.2-.8-.3-1.2-.5l-1.2-.6c-.4-.2-.7-.5-1-.9-.3-.3-.5-.7-.7-1.2s-.3-1-.3-1.6c0-.7.1-1.4.4-1.9s.6-1 1.1-1.4 1-.6 1.6-.8c.6-.2 1.3-.3 2-.3.4 0 .7 0 1.1.1.4.1.7.1 1 .2.3.1.6.2.8.3.2.1.4.2.5.3l.2.2c0 .1.1.1.1.2v1.4c0 .2 0 .3-.1.4 0 .1-.1.2-.1.2s-.1.1-.2.1-.2-.1-.4-.2-.4-.2-.7-.4c-.3-.1-.6-.2-1-.4-.4-.1-.8-.2-1.2-.2-.3 0-.6 0-.9.1-.2.1-.5.2-.6.3-.2.1-.3.3-.4.5-.1.2-.1.4-.1.6 0 .3.1.6.3.9s.4.5.7.7c.3.2.7.4 1.1.5.4.2.8.3 1.2.5l1.2.6c.4.2.7.5 1 .9.3.3.6.7.7 1.2.2.7.3 1.2.3 1.9z"/>
	<path fill="#939598" d="M50.2 26.2h-2.9V15.9c1.3-.1 2.2-.1 2.7-.1 1 0 1.8.2 2.4.7.6.4.8 1.1.8 1.9 0 .5-.2.9-.5 1.3-.4.4-.8.6-1.2.7.8.2 1.4.5 1.8 1 .4.5.6 1.1.6 1.9 0 .9-.3 1.6-1 2.2s-1.6.7-2.7.7zM48.7 17v3h1.1c1.3 0 2-.5 2-1.6 0-1-.6-1.4-1.8-1.4h-1.3zm0 4.1V25c.5 0 .9.1 1.1.1.9 0 1.5-.2 1.9-.5.4-.3.6-.9.6-1.6 0-.7-.2-1.2-.6-1.5-.4-.3-1-.5-1.9-.5l-1.1.1zm11.9 5.1l-.7-2.2H56l-.8 2.2h-1.6l4.2-10.5h.4l3.9 10.5h-1.5zM58 18.5L56.4 23h3.1L58 18.5zm11.2 7.9l-5.3-7.6v7.4h-1.3V15.9h.6l5.2 7.1v-7.1h1.3v10.5h-.5zm7.5-.2l-2.9-4.8-1.4 2v2.8H71V15.9h1.4v5.6l3.8-5.6h1.6l-3.1 4.5 3.5 5.9h-1.5z"/>
	<path fill="#f58220" d="M50.4 8.4c-2.3.7-4.6-.7-5.3-2.9-.7-2.3.7-4.6 2.9-5.3 2.3-.7 4.6.7 5.3 2.9.7 2.3-.6 4.6-2.9 5.3z"/>
</svg>