<svg xmlns="http://www.w3.org/2000/svg" viewBox="0 0 180 33">
	<path fill="#0057B6" d="M0 16.0063C0 24.84 7.19947 32.0402 16.0063 32.0402c8.8337 0 16.0339-7.2002 16.0339-16.0339C32.0402 7.17197 24.84 0 16.0063 0 7.19947 0 0 7.17197 0 16.0063Zm4.98419-4.3755C9.08331 8.94434 13.6246 7.36593 21.2952 8.6954c.4154-.24895.6369-.47041.7476-.96905-1.9106-.6926-3.9876-.94155-6.6741-.88656-2.4085.05574-6.75653.96905-9.08254 2.32601l.7201-.88582c1.60591-.94155 5.84254-2.21527 9.00004-2.27101 2.2428-.05499 3.4058.08323 6.064.80333-.2215-.47041-.7751-.6926-1.5777-1.05228-2.5757-1.163-7.3941-1.24623-11.3268.4704.49864-.33218.9973-.63686 1.6341-.91331 1.3013-.58187 3.4058-1.163 6.0648-1.1355 2.132.05499 4.652.77508 6.2029 2.326.2497.30469.3879.60937.4704.85832 1.2187.63687 1.9113 1.21874 2.3267 1.8831.1658.36042.2215.74759.1383 1.16297.5261.3047.775.5544 1.0247.9141.1658.2772.3047.5819.3322.8865.055.3872.1107.8026-.3047 1.3013.4154.2214.7476.7751.8034 1.0522.1939.9141-.388 1.7999-1.1913 2.52-.8858.7758-2.8796 1.7166-4.4855 2.1321-3.2126.8033-6.0372 1.1355-8.3083 1.5509 1.0248.2497 2.3818.5818 4.6521.5818 4.7634 0 9.0008-2.271 9.0008-2.271s-.0833.3047-.194.5537c-3.0186 1.8281-7.8653 2.6307-9.9416 2.5199-2.0771-.0832-3.8494-.4154-5.5661-.9415-.5543.1389-1.0522.3047-1.5784.5261 2.6307 1.1913 4.6245 1.4677 6.8673 1.6342 2.2985.1657 6.0922-.3879 9.3048-1.551-.1665.1665-.2215.388-.3879.5269-1.6335.8576-5.095 1.7159-6.8398 1.7999-1.7442.055-3.8495 0-5.6776-.3604-1.6051-.3047-2.8796-.8034-4.23657-1.3845-.24895.1665-.35968.4154-.41541.6644 5.26138 2.7689 10.21878 2.8246 15.84058 1.0805l-.5261.4979c-6.1762 2.4925-11.0222 1.5234-14.76011-.2772-.11072-.055-.27719-.11-.38791-.1932.35967.6086 3.21252 2.6864 6.39692 2.9629 2.2152.1939 4.9017-.194 6.5076-.8309l-.9416.4704c-.7751.3887-2.8246 1.2463-5.6768 1.0523-3.8219-.2489-5.98144-1.9381-6.92299-2.8246-.4429-.4147-.6651-.8858-.80332-1.4677-.85832-.4422-1.41196-.9133-1.85561-1.6334-.24895-.3879-.19321-.8583-.13822-1.2463.0275-.1107.05574-.2489.11073-.3596-.41541-.2772-.85832-.6094-1.02478-.9416-.38717-.6651-.13823-1.2462.11147-1.7174-.2222-.2489-.44365-.4979-.52688-.775-.11073-.3047-.11073-.6094-.08249-.9416.05499-.5536.35967-1.0798.77509-1.5509.83082-.9416 2.13204-1.6892 4.37556-2.4367 2.18774-.7201 3.07364-.8309 4.73524-1.2188 1.9388-.4429 4.2648-.6094 6.1754-1.27371-5.3721-.94155-10.99387-.08323-15.56339 3.07361l.30468-.8858ZM23.3723 8.30748c-.055.24969-.3605.55363-.5544.77583.6094.13822 1.1912.35968 1.7449.58113-.055-.52614-.6644-1.02478-1.1905-1.35696ZM6.75656 19.0799c-.35967-.1939-.58113-.3321-.88581-.5261-.16646.3322.13822.7201.44291.8865.13822-.1107.30468-.2221.4429-.3604Zm18.19414-7.0612c.3879.1939.7201.3322 1.0798.5811.2214-.4704.0832-.7751-.4155-1.1905-.1939.2215-.4429.4154-.6643.6094Zm-1.163.7201c-.7758.3597-1.9106.7476-3.5448 1.1347-1.3294.333-4.542.8034-8.031 1.551-1.1073.2497-4.07014.9697-5.53857 2.1877.41541.3322.66511.4155 1.10801.6644.60937-.3872 1.43945-.7476 2.65816-1.0798 2.1328-.5536 3.7112-.8026 5.6501-1.108 1.9098-.3039 5.4821-1.0515 7.4484-1.7716.6651-.2215 1.2462-.5261 1.7174-.8591-.139-.1657-1.4127-.7751-1.4677-.7193ZM8.77863 21.0463c.27644-.194.63686-.3597 1.05227-.5262-.55437-.2214-1.1355-.4711-1.71738-.7483-.24895.1664-.4979.3329-.66436.5269.44291.2489.85832.4979 1.32947.7476Zm-1.82811.1657c-.02749.3604.19396.6926.66511 1.0798.05499-.1933.13822-.3315.30394-.5254-.33218-.1665-.66436-.3605-.96905-.5544Zm2.68643-6.5901c3.90445-1.1355 8.00275-1.4959 12.15695-2.6032-1.6342-.4437-2.52-.6094-4.2366-.4154-2.4925.2764-5.2347.8308-7.56068 1.5227-.91331.2771-5.76002 1.6616-4.37556 3.5722 0 .0282.83082-1.1348 4.01589-2.0763Zm14.64935-3.9884c-.6376-.2765-1.4402-.5811-2.271-.8026-.3879.3047-.8308.5811-1.4677.8026 1.0798.1939 1.8556.4986 2.7414.7483.1665.0825.8866-.6093.9973-.7483Zm1.9106 3.7662c-.1107.0832-.2489.1939-.3879.3047-.8858.6651-2.271 1.2187-4.2091 1.7448-4.0159 1.0798-6.9505 1.2463-10.2738 2.0496-.6369.1382-1.302.3597-1.93885.6369.63685.3046 1.30195.5811 1.96635.8583 1.3569-.3879 1.9938-.5536 3.9601-.8866.7476-.1382 3.0461-.5261 4.6795-.8858 2.9912-.6369 7.3667-2.0213 6.2037-3.8219ZM.553634 16.0063C.553634 7.47666 7.50415.553634 16.0063.553634c8.529 0 15.4795 6.923026 15.4795 15.452666 0 8.529-6.9505 15.4795-15.4795 15.4795-8.50215 0-15.452666-6.9505-15.452666-15.4795ZM134.252 7.06128h1.911v9.80342h2.603V4.18164h-7.089v.4704c-.003.15524-.006.37843-.01.65327-.027 2.0789-.093 7.11269-.655 8.04209-.222.4712-.692.7759-1.689.7759l.36 2.7414c2.797-.0275 3.711-1.3295 4.125-3.9044.247-1.5527.34-3.60959.416-5.29271l.001-.01121.001-.02504c.009-.19565.017-.38614.026-.57006ZM44.3352 8.75085l1.6616-4.54202h3.1011l-2.2428 6.00897 2.5482 6.6466h-3.3515l-1.6334-5.0957h-.6926v5.0957h-2.8521V4.20883h2.8521v4.54202h.6094ZM146.714 14.3169V11.464h.415c.332 0 1.275 0 1.275 1.302 0 1.3295-.943 1.5509-1.275 1.5509h-.415Zm-2.88 2.5475h3.489c.776 0 3.933-.3047 3.933-4.1541 0-3.2401-2.438-3.79373-4.044-3.79373h-.498V7.25493h3.849v-3.0461h-6.729V16.8644Zm17.944-12.65557h2.852v4.54202h2.05V4.20883h2.852V16.8644h-2.852V11.797h-2.05v5.0674h-2.852V4.20883Zm13.154 4.54202 1.662-4.54202h3.101l-2.243 6.00897L180 16.8644h-3.351l-1.662-5.0957h-.665v5.0957h-2.852V4.20883h2.852v4.54202h.61Zm-18.748-.69291.554 3.84946h-1.107l.553-3.84946Zm-4.347 8.83366h2.963l.359-2.1878h2.022l.388 2.1878h2.963l-2.52-12.65559h-3.683l-2.492 12.65559ZM53.3079 7.00598h.6918c.6651 0 1.0798.38791 1.0798 1.44019 0 1.35696-.6919 1.46694-1.0798 1.46694h-.6918V7.00598Zm-2.9354 9.85842h2.9354v-4.1816h.969c2.9079 0 3.7937-2.6032 3.7937-4.26487 0-1.63341-1.0248-4.2091-3.7937-4.2091h-3.9044V16.8644Zm11.575-4.7628h2.5475V8.94407h-2.5475V7.36565h3.6555V4.20883h-6.6183V16.8644h6.6183v-3.1569h-3.6555v-1.6059Zm62.4465-4.07084.554 3.84864h-1.108l.554-3.84864Zm-4.348 8.83364h2.963l.361-2.1878h2.049l.332 2.1878h2.991l-2.521-12.65557h-3.683l-2.492 12.65557Zm-3.517-9.85842h-.692v2.90713h.692c.388 0 1.081-.10998 1.081-1.46694 0-1.05228-.417-1.44019-1.081-1.44019Zm-.692 9.85842h-2.936V4.20883h3.905c2.769 0 3.794 2.57569 3.794 4.2091 0 1.66167-.887 4.26487-3.794 4.26487h-.969v4.1816ZM98.0027 4.20883v3.15682h-2.8521v9.49875h-2.9629V7.36565h-2.8804l.0283-3.15682h8.6671Zm-16.4768 0H78.618V16.8644h2.9079l3.5165-6.89555v6.89555h2.9354V4.20883h-2.9354l-.0011.00231-.0001.00006-.0001.00018-.0002.00038-.0004.0009c-1.1624 2.29723-2.3247 4.59448-3.5146 6.91914V4.20883Zm24.7291 9.13827-3.156-9.13827h2.879l1.744 5.73252 1.69-5.73252h2.687l-3.157 10.13557c-.389 1.163-1.246 2.4925-2.631 2.4925-.554.0825-1.357-.2772-1.772-.5544l-.249-.1382.359-2.6307c.221.1107.942.4429 1.302.4986.249.0275.443-.2214.304-.6651ZM71.8617 7.42139l-.0042.1192v.0001c-.0544 1.54266-.1114 3.15981-.273 4.67171-.0832.6918-.2214 1.3569-.4986 1.9938h2.0495V7.42139h-1.2737Zm-3.8494 6.78481c.0825-.1107.139-.2222.1939-.3329.3597-.6919.4705-1.5227.5262-2.2985.1876-1.95369.2566-4.00833.3237-6.00959v-.00007c.0118-.35248.0236-.70331.036-1.05163l.0282-.30468h6.8398v9.99737h1.079v5.4553h-2.5749v-2.6589h-4.901v2.6589H66.96v-5.4553h1.0523Zm68.3167 9.6079.803 2.0213h-1.634l.831-2.0213Zm-16.062 0 .803 2.0213h-1.634l.831-2.0213Zm-4.707 3.0736h-.997v-1.6609h.997c.526 0 .969.249.969.8301 0 .5819-.443.8308-.969.8308Zm-10.025-1.9098c0 1.1072-.803 1.9938-1.939 1.9938-1.135 0-1.938-.8866-1.938-1.9938 0-1.1363.803-1.9946 1.938-1.9946 1.136 0 1.939.8865 1.939 1.9946Zm-7.0886-.3047h-1.0531v-1.6067h1.0531c.5254 0 .8858.249.8858.8033 0 .5537-.3604.8034-.8858.8034Zm-15.4252-.8591.8308 2.0213h-1.6342l.8034-2.0213Zm-15.2863 0 .8033 2.0213h-1.6334l.8301-2.0213Zm-20.9905.8591h-1.0523v-1.6067h1.0523c.5261 0 .8866.249.8866.8033 0 .5537-.3605.8034-.8866.8034Zm88.3936 2.0488h2.354l.415.969c.028.0558.083.0833.167.0833h.664c.041 0 .066-.0148.099-.0338.012-.0069.025-.0144.04-.022.028-.055.028-.11 0-.1657l-2.299-5.3728c-.028-.055-.083-.1108-.138-.1108h-.249c-.056 0-.111.0558-.139.1108l-2.298 5.3728c-.027.0543-.001.1079.025.1615l.002.0042c.027.0283.083.0558.138.0558h.638c.082 0 .138-.0275.166-.0833l.415-.969Zm-8.058-2.3818h-2.659v-2.0213c0-.0832-.055-.1389-.138-.1389h-.637c-.083 0-.166.0557-.166.1389v5.2896c0 .11.083.1658.166.1658h.637c.083 0 .138-.0558.138-.1658v-2.3817h2.659v2.3817c0 .11.055.1658.166.1658h.609c.083 0 .166-.0558.166-.1658v-5.2896c0-.0832-.083-.1389-.166-.1389h-.609c-.111 0-.166.0557-.166.1389v2.0213Zm-8.004 2.3818h2.355l.414.969c.029.0558.084.0833.167.0833h.664c.042 0 .068-.0153.102-.0348.011-.0067.023-.0138.037-.021.028-.055.028-.11 0-.1657l-2.298-5.3728c-.029-.055-.084-.1108-.139-.1108h-.249c-.055 0-.11.0558-.138.1108l-2.299 5.3728c-.027.0557 0 .1107.028.1657.028.0283.083.0558.138.0558h.637c.084 0 .139-.0275.166-.0833l.415-.969Zm-4.513-2.3818v-1.2737h2.354c.083 0 .166-.0832.166-.1657v-.5819c0-.0832-.083-.1389-.166-.1389h-3.129c-.111 0-.167.0557-.167.1389v5.2896c0 .11.056.1658.167.1658h1.772c1.08 0 1.938-.6087 1.938-1.7174 0-1.1073-.886-1.7167-1.938-1.7167h-.997Zm-4.431 1.8839 1.412-1.8839v3.2683c0 .11.056.1658.139.1658h.638c.082 0 .165-.0558.165-.1658v-5.3728c0-.0832-.083-.1665-.165-.1665h-.223c-.054 0-.082.0272-.135.0801l-.004.0032-2.077 2.8521-2.076-2.8521c-.028-.055-.084-.0833-.138-.0833h-.222c-.083 0-.166.0833-.166.1665v5.3728c0 .11.083.1658.166.1658h.637c.083 0 .166-.0558.166-.1658v-3.2958l1.412 1.9114.001.0011c.028.0271.055.0539.11.0539h.222c.055 0 .111-.0275.138-.055Zm-9.443-1.2462c0 1.6334 1.274 2.9071 2.907 2.9071 1.607 0 2.908-1.2737 2.908-2.9071 0-1.6342-1.301-2.9087-2.908-2.9087-1.633 0-2.907 1.2745-2.907 2.9087Zm-3.2957 2.6306V25.559h1.0806c1.024 0 1.8551-.6094 1.8551-1.6892 0-1.0797-.8311-1.6898-1.8551-1.6898h-1.8556c-.1108 0-.1665.0557-.1665.1389v5.2896c0 .11.0557.1658.1665.1658h.6093c.0833 0 .1657-.0558.1657-.1658Zm-5.5935-4.542h2.5474v4.542c0 .11.0833.1658.1665.1658h.6369c.0825 0 .1657-.0558.1657-.1658v-5.2896c0-.0832-.0832-.1389-.1657-.1389H91.024c-.11 0-.1658.0557-.1658.1389v5.2896c0 .11.0558.1658.1658.1658h.6093c.0833 0 .1665-.0558.1665-.1658v-4.542Zm-1.7449 3.0186c0-.5811-.2764-1.0805-.7476-1.3569.3047-.2765.4712-.6369.4712-1.0523 0-1.0248-.8034-1.6067-1.7724-1.6067-.8033 0-1.4677.3605-1.8831 1.053-.0282.0825-.0282.1658.055.2215l.4429.3322c.0282.0275.0832.0275.1115.0275.055 0 .0825-.0275.1107-.0825.2772-.4162.6361-.6376 1.163-.6376.4711 0 .8033.2214.8033.7201 0 .4436-.3054.6643-.7483.6643h-.6644c-.0832 0-.1664.084-.1664.1665v.5811c0 .0833.0832.139.1664.139h.6369c.5261 0 1.0523.194 1.0523.8026 0 .6093-.5537.9148-1.0798.9148-.6094 0-1.0805-.3604-1.412-.8591l-.0021-.0021c-.0275-.0268-.055-.0536-.1093-.0536-.0275-.0268-.0833 0-.1107.0282l-.4705.3322c-.0557.055-.0832.139-.0282.2215.4437.775 1.2187 1.2462 2.1328 1.2462 1.0523 0 2.0488-.6644 2.0488-1.7999Zm-8.2242.6369h2.3817l.4147.969c.0282.0558.0832.0833.1389.0833h.6651c.055 0 .11-.0275.1375-.0558.0283-.055.0565-.11.0283-.1657L83.2984 22.18c-.0283-.055-.0833-.1108-.1383-.1108h-.2497c-.055 0-.1107.0558-.1382.1108l-2.2985 5.3728c-.0275.0557-.0275.1107.0275.1657.0275.0283.055.0558.1115.0558h.6643c.0825 0 .1382-.0275.1657-.0833l.388-.969Zm-3.1851.8865v-4.542h2.3267c.1108 0 .1658-.0832.1658-.1657v-.5819c0-.0832-.055-.1389-.1658-.1389H77.843c-.0832 0-.1664.0557-.1664.1389v5.2896c0 .11.0832.1658.1664.1658h.6369c.0832 0 .1657-.0558.1657-.1658Zm-12.1012-.8865h2.381l.3887.969c.0275.0558.0825.0833.1657.0833h.6651c.055 0 .11-.0275.1382-.0558.0268-.055.0268-.11 0-.1657l-2.271-5.3728c-.0275-.055-.0832-.1108-.1665-.1108h-.2207c-.0839 0-.1389.0558-.1672.1108l-2.2702 5.3728c-.0283.0557-.0283.1107 0 .1657.0275.0283.0832.0558.1382.0558h.6651c.055 0 .11-.0275.1382-.0833l.4154-.969Zm-5.5385-3.6555h2.5482v4.542c0 .11.0824.1658.1649.1658h.6376c.0833 0 .1665-.0558.1665-.1658v-5.2896c0-.0832-.0832-.1389-.1665-.1389h-4.1541c-.0825 0-.1657.0557-.1657.1389v5.2896c0 .11.0832.1658.1657.1658h.6369c.0832 0 .1665-.0558.1665-.1658v-4.542Zm-5.5936 0h2.5475v4.542c0 .11.0832.1658.1657.1658h.6376c.0825 0 .1657-.0558.1657-.1658v-5.2896c0-.0832-.0832-.1389-.1657-.1389H54.609c-.0833 0-.1665.0557-.1665.1389v5.2896c0 .11.0832.1658.1665.1658h.6368c.0833 0 .1665-.0558.1665-.1658v-4.542Zm-6.6191-.6643 2.0496 4.1258c-.1383.2772-.3047.4437-.6094.4437-.1382 0-.2764-.0283-.3872-.0558-.0557 0-.1114 0-.1389.0275-.0275.0283-.055.0833-.055.1383v.5268c0 .0825.0275.1383.1107.1658.1382.055.3322.0832.4704.0832.9416 0 1.302-.6651 1.6617-1.412l1.9105-4.0433c.0283-.055 0-.1115-.0275-.1665-.0275-.0275-.0832-.0557-.1382-.0557h-.6368c-.0558 0-.1108.0282-.139.0832l-1.4952 3.1851-1.5784-3.1851c-.0275-.055-.0832-.0832-.1665-.0832h-.6918c-.0558 0-.1107.0282-.139.0557-.0275.055-.0275.1115 0 .1665Zm-3.1011 5.2063V25.559h1.0798c1.0248 0 1.8556-.6094 1.8556-1.6892 0-1.0797-.8308-1.6898-1.8556-1.6898h-1.8556c-.11 0-.1657.0557-.1657.1389v5.2896c0 .11.0557.1658.1657.1658h.6094c.0832 0 .1664-.0558.1664-.1658Zm-4.0426 0v-4.542h2.326c.1107 0 .1657-.0832.1657-.1657v-.5819c0-.0832-.055-.1389-.1657-.1389h-3.1301c-.0825 0-.1657.0557-.1657.1389v5.2896c0 .11.0832.1658.1657.1658h.6369c.0832 0 .1672-.0558.1672-.1658Zm90.6365-5.4003-2.187 2.2435v-2.1328c0-.0832-.056-.1389-.167-.1389h-.609c-.083 0-.166.0557-.166.1389v5.2896c0 .11.083.1658.166.1658h.609c.111 0 .167-.0558.167-.1658v-2.4932l2.408 2.6032c.028.0558.056.0558.112.0558h.802c.056 0 .111-.0275.138-.0833.029-.055.029-.1382-.027-.1664l-2.465-2.7414 2.243-2.3261c.056-.0549.056-.1382.029-.1939-.029-.055-.084-.0832-.139-.0832h-.803c-.056 0-.083 0-.111.0282Z"/>
</svg>