<svg xmlns="http://www.w3.org/2000/svg" viewBox="0 0 122.7 46">
	<path fill="#384249" d="M15.4 40.6H2.5v-5.4h12.8l.1 5.4c-.1 0 0 0 0 0zm2.5-8.1H0V46h2.5v-2.7h15.3l.1-10.8zM2.5 8.1l5.1-5.4v18.9H2.5V8.1zM0 24.4h10.2V0H6.4L0 6.8v17.6zM15.4 2.7h5.1v18.9h-5.1V2.7zm-2.6 21.7H23V0H12.8v24.4zm28.1 0h2.5V0h-3.9l-3.9 4.1V0h-3.9l-6.3 6.8v17.6h2.5V8.1L33 2.7v21.6h2.5V8.1l5.1-5.4v21.7zM0 29.8h43.5v-2.7H0v2.7zm33.2 5.4h7.6v5.4h-7.6v-5.4zm-2.5 5.4H23v-5.4h7.7v5.4zm2.5 2.7h10.2V32.5h-23v10.8h10.2V46h2.5c.1 0 .1-2.7.1-2.7zm48.3-19.4h2.2c1 0 1.6.7 1.6 1.7s-.6 1.7-1.6 1.7h-2.2v-3.4zm0-2.1v-2.4h5.3v-2.1h-7.6v12.2h4.6c2.3 0 3.7-1.6 3.7-3.8 0-2.2-1.4-3.8-3.7-3.8 0-.1-2.3-.1-2.3-.1zm14.3 3.4H93l1.5-4.4 1.3 4.4zm1.3 4.2h2.4l-4.2-12.2h-1.8l-4.2 12.2h2.4l.7-2.2h4.1l.6 2.2zm10.8 0h2.2V17.2h-2.2v5H104v-5h-2.2v12.2h2.2v-5.1h3.9v5.1zm10.5-6.5l3.9-5.7h-2.7l-3.7 5.8v-5.8h-2.2v12.2h2.2V23l4 6.4h2.7l-4.2-6.5z"/>
	<path fill="#99c45a" d="M63.3 5.2h-2v35.6h2V5.2z"/>
</svg>