<svg xmlns="http://www.w3.org/2000/svg" viewBox="0 0 200 26.8">
	<path fill="#00563f" d="M49.4 24.7v2h-1.3v-3.2h.7c.3-.3.4-.6.6-.9.1-.4.3-.7.4-1.1.1-.4.2-.9.2-1.4 0-.5.1-1.1.1-1.6l.1-1.6h5v6.6h.8v3.2h-1.3v-2h-5.3c0 .1 0 0 0 0zm2.2-5.9c0 .6-.1 1.1-.1 1.6s-.1.9-.2 1.3-.2.7-.3 1c-.1.3-.3.5-.5.8h3.1v-5.4h-2v.7zm10.5 5.9l-.5-1.8h-2.9l-.6 1.8h-1.7l2.6-7.8h2.1l2.6 7.8h-1.6zm-1.4-4.9l-.5-1.8h-.1l-.5 1.8-.6 2h2.2l-.5-2zm8.7 5v-6.6h-1.8v.7c0 1-.1 1.8-.2 2.5 0 .7-.2 1.3-.4 1.8s-.5.9-.9 1.2c-.4.3-.9.5-1.6.7l-.4-1.1c.4-.2.7-.4 1-.6.2-.2.4-.5.5-.8.1-.4.2-.8.2-1.3s.1-1.2.1-2l.1-2.2h5v7.8l-1.6-.1zm3.3-7.9h1.7v3H76c.4 0 .8 0 1.1.2.4.1.6.3.9.4.2.2.4.4.6.7.1.3.2.6.2 1s0 .7-.2 1c-.1.3-.3.5-.5.7-.2.2-.5.4-.8.4-.3.1-.7.2-1.1.2h-3.6l.1-7.6c-.1 0 0 0 0 0zm1.7 4.2v2.5h1.4c.3 0 .6-.1.8-.3.2-.2.4-.5.4-1 0-.2 0-.4-.1-.5-.1-.2-.2-.3-.3-.4-.1-.1-.3-.2-.4-.2s-.3-.1-.5-.1h-1.3zm10.3 3.6v-3.5h-3v3.5H80v-7.8h1.7V20h3v-3.1h1.7v7.8h-1.7zm3.4 0v-7.8h5.4v1.2h-3.7v2h3.1v1.1h-3.1v2.3h3.9v1.2h-5.6zm11.6-4c.3.1.5.2.6.4.2.1.3.3.4.5.1.2.1.4.2.5v.4c0 .4 0 .7-.2.9-.1.3-.3.5-.5.7-.2.2-.5.4-.8.4-.3.1-.6.2-1 .2H95v-7.8h3.4c.8 0 1.4.2 1.8.6.4.4.6.9.6 1.5v.4c0 .1-.1.3-.2.4-.1.1-.2.3-.3.4-.2.2-.4.3-.6.5zm-3.1.6v2.3H98c.4 0 .7-.1.9-.4.2-.2.3-.5.3-.8 0-.3-.1-.6-.3-.8-.2-.2-.5-.3-.9-.3h-1.4zm0-3.2v2h1.3c.4 0 .7-.1.9-.3.2-.2.3-.4.3-.7s-.1-.6-.3-.7c-.2-.2-.5-.3-.9-.3h-1.3c0 .1 0 0 0 0zm12.8 2.7c0 .6-.1 1.1-.2 1.6s-.4.9-.7 1.3c-.3.4-.7.6-1.1.8-.4.2-1 .3-1.6.3-.6 0-1.2-.1-1.6-.3-.4-.2-.8-.4-1.1-.8-.3-.4-.5-.8-.7-1.3-.1-.5-.2-1.1-.2-1.6 0-.6.1-1.1.2-1.6s.4-.9.7-1.3c.3-.4.7-.7 1.1-.9.4-.2 1-.3 1.7-.3s1.2.1 1.7.3c.4.2.8.5 1.1.9.3.4.5.8.6 1.3.1.6.1 1.1.1 1.6zm-1.7 0c0-.4 0-.7-.1-1.1 0-.4-.1-.7-.3-.9-.1-.3-.3-.5-.6-.7-.2-.2-.5-.3-.9-.3s-.7.1-1 .2c-.3.2-.4.4-.6.7-.1.3-.3.6-.3.9 0 .4-.1.7-.1 1.1 0 .9.1 1.6.4 2.1.3.5.8.7 1.5.7.3 0 .6-.1.8-.2.2-.1.4-.4.6-.6.1-.3.3-.5.3-.9.2-.2.3-.6.3-1zm6.7-4c.4 0 .8 0 1.1.1s.7.1 1 .2l-.2 1.2c-.3-.1-.6-.1-.9-.2h-.7c-.7 0-1.3.2-1.7.7-.4.4-.6 1.1-.6 2.1 0 .4 0 .8.1 1.2.1.4.2.6.4.8.2.2.4.4.7.5.3.1.7.2 1.1.2h.9c.2 0 .4 0 .5-.1.2 0 .4 0 .5-.1l.3 1.1c-.2 0-.4.1-.6.2-.2 0-.4.1-.6.1-.2 0-.4.1-.7.1h-.6c-.7 0-1.3-.1-1.8-.3-.5-.2-.8-.5-1.1-.8-.3-.4-.5-.8-.6-1.3-.1-.5-.2-1-.2-1.6 0-.4 0-.9.2-1.4.1-.5.3-.9.6-1.3s.7-.7 1.1-1c.4-.3 1.1-.4 1.8-.4zm5.4 7.9v-6.6h-2.5v-1.2h6.6v1.2h-2.5v6.6h-1.6zm12.1-3.9c0 .6-.1 1.1-.2 1.6s-.4.9-.7 1.3c-.3.4-.7.6-1.1.8-.4.2-1 .3-1.6.3-.6 0-1.2-.1-1.7-.3-.4-.2-.8-.4-1.1-.8-.3-.4-.5-.8-.7-1.3-.1-.5-.2-1.1-.2-1.6 0-.6.1-1.1.2-1.6s.4-.9.7-1.3c.3-.4.7-.7 1.1-.9.4-.2 1-.3 1.7-.3s1.2.1 1.7.3c.4.2.8.5 1.1.9.3.4.5.8.6 1.3.2.6.2 1.1.2 1.6zm-1.7 0c0-.4 0-.7-.1-1.1 0-.4-.1-.7-.3-.9-.1-.3-.3-.5-.6-.7-.2-.2-.5-.3-.9-.3s-.7.1-1 .2c-.2.2-.4.4-.6.7-.1.3-.3.6-.3.9 0 .4-.1.7-.1 1.1 0 .9.1 1.6.4 2.1.3.5.8.7 1.5.7.3 0 .6-.1.8-.2.2-.1.4-.4.6-.6.1-.3.3-.5.3-.9.2-.2.3-.6.3-1zm9.1 3.9h-1.7v-3.2c-.3.1-.6.1-1 .2-.4 0-.7.1-.9.1-.4 0-.7 0-1.1-.1-.3-.1-.6-.2-.9-.4-.3-.2-.4-.4-.6-.6-.1-.3-.2-.6-.2-1V17h1.7v2.5c0 .4.1.7.4.9.2.2.5.2 1 .2.3 0 .5 0 .8-.1s.5-.1.8-.2v-3.4h1.7v7.8zm6.4 0v-3.5h-3v3.5H141v-7.8h1.7V20h3v-3.1h1.7v7.8h-1.7zm3.3-7.8h1.7v3h1.6c.4 0 .8 0 1.1.2.4.1.6.3.9.4.3.2.4.4.6.7.1.3.2.6.2 1s0 .7-.2 1c-.1.3-.3.5-.5.7-.2.2-.5.4-.8.4-.3.1-.7.2-1.1.2H149v-7.6zm1.7 4.2v2.5h1.4c.3 0 .6-.1.8-.3.2-.2.4-.5.4-1 0-.2 0-.4-.1-.5-.1-.2-.2-.3-.3-.4-.1-.1-.3-.2-.4-.2s-.3-.1-.5-.1h-1.3zm5.3 3.6v-7.8h1.7v7.8H156zm8.2-7.8h1.6v7.8h-1.6v-5.3c-.4.6-.7 1.2-1.1 1.8s-.7 1.2-1.1 1.8l-1.1 1.7h-1.7v-7.8h1.7v5.4l.9-1.5c.2-.3.4-.6.6-1 .2-.4.4-.7.7-1.1.2-.4.4-.7.6-1.1.3-.2.4-.5.5-.7zm-1.8-.7c-.2 0-.4 0-.7-.1-.2-.1-.4-.2-.6-.4-.2-.1-.4-.3-.5-.5-.1-.2-.3-.4-.4-.6l.7-.5c.2.3.5.6.7.7.3.1.5.2.7.2h.3c.1 0 .2 0 .4-.1s.3-.1.5-.3c.2-.1.4-.3.6-.5l.5.4c-.2.3-.4.5-.6.7-.2.2-.4.4-.6.4l-.6.3c0 .3-.2.3-.4.3zm8.3.7h5.3V18h-3.6v2h1.7c.4 0 .8 0 1.1.1.4.1.6.3.9.4.2.2.4.4.5.7.1.3.2.6.2 1s0 .7-.2 1c-.1.3-.3.6-.5.8-.2.2-.5.4-.8.5-.3.1-.7.2-1.1.2h-3.5v-7.8zm1.7 4.2v2.5h1.4c.3 0 .6-.1.8-.3.2-.2.4-.5.4-1 0-.2 0-.4-.1-.5-.1-.1-.2-.3-.3-.4-.1-.1-.3-.2-.4-.2h-1.8v-.1zm10.5 3.6l-.5-1.8h-2.9l-.6 1.8h-1.6l2.6-7.8h2.1l2.6 7.8h-1.7zm-1.4-4.9L181 18l-.5 1.8-.6 2h2.2l-.6-2zm8.8 4.9v-3.5h-3v3.5h-1.7v-7.8h1.7V20h3v-3.1h1.7v7.8h-1.7zm7.8-4.1c.2 0 .4.1.5.2.1.1.3.2.4.3.1.1.2.3.2.4 0 .1.1.3.2.4l.7 2.7h-1.7l-.7-2.4c-.1-.4-.3-.6-.4-.8-.2-.2-.5-.3-.9-.3h-1.1v3.5h-1.6v-7.8h1.6V20h1.4c.1 0 .3-.1.4-.2l.3-.3c.1-.1.2-.3.2-.6l.5-2h1.6l-.6 2.2c-.1.3-.2.6-.4.8-.1.4-.4.6-.6.7zM34.6 24c.3.2.7.4 1.1.4.7 0 1.1-.2 1.4-.6.3-.4.4-.9.4-1.4 0-.8-.2-1.4-.6-1.6-.4-.3-.9-.4-1.4-.4h-.8l-.1 3.6zm0-4c.6-.1 1.1-.2 1.5-.2.7 0 1.4.2 2.3.5s1.3 1 1.3 2.1c0 .7-.3 1.3-.9 1.8-.6.4-1.4.7-2.5.7h-4.8v-.4h.6c.3 0 .4-.1.4-.3V18v-.2c0-.2-.2-.3-.4-.3h-.6V17H39v1.9h-.5v-.4c0-.2-.2-.4-.6-.5-.4-.2-.9-.3-1.4-.4-.6-.1-1-.1-1.3-.1-.2 0-.3 0-.4.1s-.1.1-.1.3l-.1 2.1c.1 0 0 0 0 0zm-9.3 4c.4.3.8.4 1.3.4s.9-.2 1.2-.5c.3-.3.4-.8.4-1.4 0-1.2-.6-1.8-1.8-1.8h-1.1V24zm0-3.8h1.6c.4 0 .6-.2.8-.4.2-.2.3-.5.3-.9 0-.3 0-.5-.2-.7s-.3-.4-.5-.5c-.2-.1-.5-.2-.9-.2s-.8.1-1.1.4v2.3zm2.7.3c.7 0 1.3.2 1.8.6.5.4.7.9.7 1.5 0 .7-.3 1.2-.9 1.6-.6.4-1.4.6-2.5.6h-4.8v-.4h.6c.3 0 .4-.1.4-.3v-6.2-.2c0-.2-.2-.3-.4-.3h-.6V17h4.5c1.4 0 2.3.2 2.8.6.5.4.7.8.7 1.3 0 .3-.1.6-.3.9-.2.3-.5.4-.8.6-.5 0-.8.1-1.2.1zm-13.4 3.7h3.1c.2 0 .4 0 .4-.2v-6c0-.3 0-.4-.1-.5s-.1-.1-.3-.1h-1c-.2 0-.4 0-.5.1-.1.1-.2.3-.2.6 0 .1-.1.3-.1.5-.2.6-.4 1.3-.5 1.9-.2.7-.4 1.2-.6 1.8-.1.3-.3.6-.4 1-.1.3-.2.5-.2.5-.1.3.1.4.4.4zm-.4-6.8V17h7.1v.4h-.6c-.3 0-.4.1-.4.3v6c0 .4.1.5.4.5h.8v2.3h-.6V26c0-.3-.2-.5-.7-.7-.5-.2-1-.4-1.7-.5-.6-.1-1.2-.2-1.6-.2-.4 0-1 0-1.6.2-.6.1-1.1.3-1.6.5-.4.3-.7.5-.7.7v.5h-.7l.2-2.3c.5 0 1-.4 1.4-1.1.4-.8.8-1.7 1.1-2.8s.4-1.8.5-2.3c0-.2 0-.4-.1-.4s-.3-.1-.6-.1l-.6-.1c0 .1 0 0 0 0zm25-2.3H28.5C30.2 6.5 17.7-2.5 12 13.5c1.9-18.9 27.9-12.1 27.2 1.6zm-39 9.7H11C7.3 5.6 16.9-.4 25.7.9 12.8-2.2-1.8 1.7.2 24.8z"/>
</svg>