<?xml version="1.0" encoding="utf-8"?>
<!-- Generator: Adobe Illustrator 25.4.1, SVG Export Plug-In . SVG Version: 6.00 Build 0)  -->
<svg version="1.1" id="Layer_1" xmlns="http://www.w3.org/2000/svg" xmlns:xlink="http://www.w3.org/1999/xlink" x="0px" y="0px"
	 viewBox="0 0 160 34" style="enable-background:new 0 0 160 34;" xml:space="preserve">
<style type="text/css">
	.st0{fill:#009033;}
	.st1{fill:#575656;}
</style>
<path class="st0" d="M20.6,31.9h-7.3l-0.8,2H0V21.4l2-0.8v-7.5l-2-0.8V0h12.5l0.8,2h7.3l0.8-2h12.5v12.5l-2,0.7v7.5l2,0.8v12.5H21.3
	C21.3,33.9,20.6,31.9,20.6,31.9z M25.2,28.3h3v-3l-2-0.8V9.3l2-0.8v-3h-3l-0.8,2h-15l-0.8-2h-3v3l2,0.8v15.2l-2,0.8v3h3l0.8-2h15
	L25.2,28.3z"/>
<g>
	<polygon class="st1" points="57.2,26.2 54.8,26.2 54.8,23.7 53.6,23.7 53.6,29.9 54.8,29.9 54.8,27.4 57.2,27.4 57.2,29.9 
		58.5,29.9 58.5,23.7 57.2,23.7 	"/>
	<path class="st1" d="M63.3,26.8c0.2-0.1,0.4-0.3,0.7-0.7l1.5-2.3h-1.4l-1.2,1.9c-0.3,0.4-0.4,0.6-0.8,0.6h-0.5v-2.5h-1.2v6.2h1.2
		v-2.6h0.6c0.4,0,0.6,0.1,0.8,0.6l1.3,2h1.4l-1.5-2.4C63.7,27,63.5,26.8,63.3,26.8z"/>
	<path class="st1" d="M41.1,17.1c0,0.1,0,0.2,0.1,0.2c0.1,0,0.1,0.1,0.2,0.1h6.9c0.1,0,0.2,0,0.2-0.1c0.1-0.1,0.1-0.1,0.1-0.2v-1.7
		c0-0.2-0.1-0.3-0.3-0.3h-4.6v-1.2h3.4c0.1,0,0.2,0,0.2-0.1c0-0.1,0.1-0.1,0.1-0.2v-1.5c0-0.1,0-0.2-0.1-0.2c-0.1,0-0.1-0.1-0.2-0.1
		h-3.4V9.6h4.4c0.1,0,0.2,0,0.2-0.1c0.1-0.1,0.1-0.1,0.1-0.2V7.6c0-0.1,0-0.2-0.1-0.2c-0.1-0.1-0.1-0.1-0.2-0.1h-6.8
		c-0.1,0-0.2,0-0.2,0.1c-0.1,0.1-0.1,0.1-0.1,0.2h0V17.1z"/>
	<path class="st1" d="M55.8,12.2c0.1-0.1,0.2-0.2,0.3-0.3c0.1-0.2,0.2-0.3,0.4-0.5c0.1-0.2,0.3-0.4,0.4-0.6c0.2-0.2,0.3-0.4,0.5-0.6
		c0.2-0.2,0.3-0.3,0.5-0.4c0.2-0.1,0.4-0.2,0.5-0.2c0.1,0,0.1,0,0.2-0.1c0-0.1,0.1-0.1,0.1-0.2V7.5c0-0.2-0.1-0.3-0.2-0.3
		c-0.5,0-1,0.1-1.4,0.2c-0.4,0.1-0.8,0.3-1.1,0.5c-0.3,0.2-0.6,0.5-0.8,0.9c-0.2,0.3-0.5,0.7-0.7,1.1c0,0,0,0.1-0.1,0.1
		c0,0.1-0.1,0.2-0.2,0.2c-0.1,0.1-0.1,0.2-0.2,0.3s-0.1,0.2-0.2,0.3c-0.1,0.1-0.1,0.1-0.2,0.2c-0.1,0.1-0.1,0.1-0.2,0.1V7.6
		c0-0.1,0-0.2-0.1-0.2C53.1,7.3,53,7.3,53,7.3h-2c-0.1,0-0.2,0-0.2,0.1c-0.1,0.1-0.1,0.1-0.1,0.2v9.5h0c0,0.2,0.1,0.3,0.3,0.3h2
		c0.2,0,0.3-0.1,0.3-0.3v-2.9c0.1,0,0.2,0,0.3,0c0.1,0,0.3-0.1,0.4-0.2l2.6,3.2c0.1,0.1,0.1,0.1,0.2,0.2c0.1,0,0.1,0.1,0.2,0.1h2.7
		c0.1,0,0.1,0,0.1-0.1c0-0.1,0-0.1-0.1-0.2L55.8,12.2z"/>
	<path class="st1" d="M70.8,17.1l-4.3-9.7c0,0,0,0-0.1-0.1c0-0.1-0.1-0.1-0.1-0.2c0-0.1-0.1-0.2-0.2-0.2c-0.1-0.1-0.2-0.1-0.3-0.1h0
		c-0.2,0-0.3,0-0.3,0.1c-0.1,0.1-0.1,0.2-0.1,0.3s-0.1,0.2-0.1,0.3L61,17.1c0,0,0,0,0,0.1c0,0,0,0,0,0.1c0,0.1,0.1,0.2,0.3,0.2h2.2
		c0.2,0,0.3-0.1,0.4-0.3l0.3-0.9h3.5l0.3,0.9c0.1,0.2,0.2,0.3,0.4,0.3h2.2c0.2,0,0.3-0.1,0.3-0.2C70.8,17.2,70.8,17.2,70.8,17.1
		C70.8,17.1,70.8,17.1,70.8,17.1z M64.8,14.2l1.1-3.1l1.1,3.1H64.8z"/>
	<path class="st1" d="M78.6,7.3h-7.3c-0.1,0-0.2,0-0.2,0.1C71,7.4,71,7.5,71,7.6v1.7h0c0,0.1,0,0.2,0.1,0.3c0.1,0.1,0.1,0.1,0.2,0.1
		h2.3v7.4c0,0.1,0,0.2,0.1,0.2c0.1,0.1,0.1,0.1,0.2,0.1h2c0.1,0,0.2,0,0.2-0.1c0.1-0.1,0.1-0.1,0.1-0.2V9.6h2.3c0.1,0,0.2,0,0.2-0.1
		c0.1-0.1,0.1-0.2,0.1-0.2V7.6c0-0.1,0-0.2-0.1-0.2C78.8,7.3,78.7,7.3,78.6,7.3z"/>
	<path class="st1" d="M88.1,15h-4.6v-1.2h3.4c0.1,0,0.2,0,0.2-0.1c0.1-0.1,0.1-0.1,0.1-0.2v-1.5c0-0.1,0-0.2-0.1-0.2
		c-0.1,0-0.1-0.1-0.2-0.1h-3.4V9.6h4.4c0.1,0,0.2,0,0.2-0.1c0.1-0.1,0.1-0.1,0.1-0.2V7.6c0-0.1,0-0.2-0.1-0.2
		c-0.1-0.1-0.1-0.1-0.2-0.1h-6.8c-0.1,0-0.2,0-0.2,0.1c-0.1,0.1-0.1,0.1-0.1,0.2v9.5h0c0,0.1,0,0.2,0.1,0.2c0.1,0,0.1,0.1,0.2,0.1
		H88c0.1,0,0.2,0,0.2-0.1c0.1-0.1,0.1-0.1,0.1-0.2v-1.7C88.4,15.1,88.3,15,88.1,15z"/>
	<path class="st1" d="M109.7,6.9C109.7,6.9,109.7,6.9,109.7,6.9c-0.1-0.1-0.1-0.1-0.2-0.1c0,0-0.1,0-0.1,0c0,0-0.1,0-0.1,0.1
		l-5.9,5.4V7.6c0-0.2-0.1-0.3-0.3-0.3h-1.9c-0.2,0-0.3,0.1-0.3,0.3c0,0,0,10,0,10.1c0,0,0,0.1,0,0.1c0,0,0,0.1,0.1,0.1
		c0,0,0.1,0,0.1,0c0,0,0.1,0,0.1,0c0,0,0.1,0,0.1-0.1l6-5.1V17c0,0.2,0.1,0.3,0.3,0.3h1.9c0.2,0,0.3-0.1,0.3-0.3c0,0,0-10,0-10
		C109.7,7,109.7,7,109.7,6.9z"/>
	<path class="st1" d="M120.9,7.3h-2c-0.1,0-0.2,0-0.2,0.1c-0.1,0.1-0.1,0.1-0.1,0.2v4.5h-3.4V7.6c0-0.1,0-0.2-0.1-0.2
		c-0.1-0.1-0.1-0.1-0.2-0.1h-2c-0.1,0-0.2,0-0.2,0.1c-0.1,0.1-0.1,0.1-0.1,0.2v9.5c0,0.2,0.1,0.3,0.3,0.3h2c0.1,0,0.2,0,0.2-0.1
		c0.1-0.1,0.1-0.1,0.1-0.2v-2.6h3.4v2.6c0,0.1,0,0.2,0.1,0.2c0.1,0,0.1,0.1,0.2,0.1h2c0.1,0,0.2,0,0.2-0.1s0.1-0.1,0.1-0.2V7.6
		c0-0.1,0-0.2-0.1-0.2C121.1,7.3,121,7.3,120.9,7.3z"/>
	<path class="st1" d="M140.6,7.3h-1.8c-0.1,0-0.2,0-0.3,0.1c-0.1,0-0.1,0.1-0.2,0.2l-1.2,3.9c-0.1-0.3-0.2-0.6-0.3-0.9
		c-0.1-0.3-0.5-1.7-0.6-2c-0.1-0.3-0.2-0.6-0.3-0.9c0-0.1-0.1-0.2-0.1-0.2c-0.1-0.1-0.2-0.1-0.3-0.1h-1.9c-0.2,0-0.3,0.1-0.3,0.2
		c0,0,0,0.1,0,0.1c0,0,0,0.1,0,0.1l2.6,6.4h0l-0.2,0.5c-0.1,0.2-0.2,0.3-0.2,0.4c-0.1,0.1-0.2,0.2-0.3,0.2s-0.2,0.1-0.3,0.1
		c-0.1,0-0.2,0-0.3,0c-0.1,0-0.1,0-0.2,0.1c0,0.1-0.1,0.1-0.1,0.2v2.1c0,0.2,0.1,0.3,0.3,0.3c0.4,0,0.7-0.1,1-0.2
		c0.3-0.1,0.6-0.2,0.8-0.4c0.2-0.2,0.5-0.4,0.7-0.7c0.2-0.3,0.3-0.5,0.5-0.9l0.2-0.5c0-0.1,0.2-0.5,0.3-0.6c0-0.1,0.1-0.1,0.1-0.2
		c0-0.1,0-0.1,0-0.1c0.2-0.5,0.4-1,0.5-1.5c0.2-0.5,1.8-4.6,2.1-5.3c0,0,0-0.1,0-0.1c0-0.1,0-0.1-0.1-0.2
		C140.8,7.3,140.7,7.3,140.6,7.3z"/>
	<path class="st1" d="M159.9,7.4c-0.1-0.1-0.1-0.1-0.2-0.1h-6.1c-0.2,0-0.3,0.1-0.3,0.3v9.5c0,0.1,0,0.2,0.1,0.2
		c0.1,0.1,0.1,0.1,0.2,0.1h2c0.1,0,0.1,0,0.2-0.1c0.1-0.1,0.1-0.1,0.1-0.2V9.7h3.7c0.1,0,0.2,0,0.2-0.1c0.1-0.1,0.1-0.1,0.1-0.2V7.6
		C160,7.5,160,7.4,159.9,7.4z"/>
	<path class="st1" d="M98.1,9.3c-0.2-0.3-0.4-0.6-0.7-0.8c-0.3-0.2-0.5-0.5-0.8-0.6c-0.3-0.2-0.6-0.3-1-0.4
		c-0.3-0.1-0.7-0.1-1.1-0.1h-2.3v0h-1.5c-0.1,0-0.2,0-0.2,0.1c-0.1,0.1-0.1,0.1-0.1,0.2v9.5c0,0.1,0,0.2,0.1,0.2
		c0.1,0,0.1,0.1,0.2,0.1h2c0.2,0,0.3-0.1,0.3-0.3v-1.6h1.5c0.6,0,1.1-0.1,1.6-0.3c0.5-0.2,0.9-0.5,1.3-0.9c0.4-0.4,0.7-0.8,0.9-1.3
		c0.2-0.5,0.3-1,0.3-1.6c0-0.4-0.1-0.8-0.1-1.1C98.4,9.9,98.3,9.6,98.1,9.3z M96,12.1c-0.1,0.2-0.2,0.4-0.4,0.6
		c-0.2,0.2-0.4,0.3-0.6,0.4c-0.2,0.1-0.5,0.1-0.7,0.1h-1.2V9.4h1.2c0.3,0,0.5,0.1,0.8,0.2c0.2,0.1,0.4,0.3,0.6,0.5
		c0.2,0.2,0.3,0.4,0.4,0.6c0.1,0.2,0.1,0.5,0.1,0.7C96.1,11.6,96.1,11.9,96,12.1z"/>
	<path class="st1" d="M131,11.9c-0.3-0.3-0.6-0.6-1-0.7c-0.4-0.2-0.8-0.3-1.3-0.3h-2.1V9.5h4c0.1,0,0.2,0,0.2-0.1
		c0.1-0.1,0.1-0.1,0.1-0.2V7.6c0-0.1,0-0.1-0.1-0.2c-0.1-0.1-0.1-0.1-0.2-0.1h-6.3c-0.1,0-0.2,0-0.2,0.1c-0.1,0-0.1,0.1-0.1,0.2v9.5
		c0,0.1,0,0.2,0.1,0.2c0,0.1,0.1,0.1,0.2,0.1h4.4c0.5,0,0.9-0.1,1.3-0.3c0.4-0.2,0.7-0.4,1-0.7s0.5-0.6,0.6-1
		c0.2-0.4,0.2-0.8,0.2-1.2c0-0.4-0.1-0.8-0.2-1.2C131.5,12.6,131.3,12.2,131,11.9z M129.1,14.6c0,0.1-0.1,0.2-0.2,0.3
		c-0.1,0.1-0.2,0.2-0.3,0.2c-0.1,0.1-0.3,0.1-0.4,0.1h-1.4V13h1.4c0.2,0,0.3,0,0.4,0.1c0.1,0.1,0.2,0.1,0.3,0.3
		c0.1,0.1,0.2,0.2,0.2,0.4c0,0.1,0.1,0.3,0.1,0.4C129.2,14.3,129.2,14.4,129.1,14.6z"/>
	<path class="st1" d="M150.7,9.3c-0.2-0.3-0.4-0.6-0.7-0.8c-0.3-0.2-0.5-0.5-0.8-0.6c-0.3-0.2-0.6-0.3-1-0.4
		c-0.3-0.1-0.7-0.1-1.1-0.1h-2.3v0h-1.5c-0.1,0-0.2,0-0.2,0.1c0,0.1-0.1,0.1-0.1,0.2v9.5c0,0.1,0,0.2,0.1,0.2c0.1,0,0.1,0.1,0.2,0.1
		h2c0.2,0,0.3-0.1,0.3-0.3v-1.6h1.5c0.6,0,1.1-0.1,1.6-0.3c0.5-0.2,0.9-0.5,1.3-0.9c0.4-0.4,0.7-0.8,0.9-1.3c0.2-0.5,0.3-1,0.3-1.6
		c0-0.4,0-0.8-0.1-1.1C151,9.9,150.9,9.6,150.7,9.3z M148.6,12.1c-0.1,0.2-0.2,0.4-0.4,0.6c-0.2,0.2-0.4,0.3-0.6,0.4
		c-0.2,0.1-0.5,0.1-0.7,0.1h-1.2V9.4h1.2c0.3,0,0.5,0.1,0.8,0.2c0.2,0.1,0.4,0.3,0.6,0.5c0.2,0.2,0.3,0.4,0.4,0.6
		c0.1,0.2,0.1,0.5,0.1,0.7C148.7,11.6,148.7,11.9,148.6,12.1z"/>
	<path class="st1" d="M43.8,26h-1.5v-1.1h2.9v-1.2h-4.2v6.2h2.7c1.5,0,2.1-0.8,2.1-2C45.9,26.8,45.2,26,43.8,26z M43.8,28.8
		L43.8,28.8l-1.5,0v-1.6h1.5c0.7,0,1,0.3,1,0.8C44.7,28.5,44.5,28.8,43.8,28.8z"/>
	<path class="st1" d="M49.2,23.7l-2.6,6.2H48l0.4-1.1h2.2l0.4,1.1h1.4l-2.5-6.2H49.2z M48.8,27.6l0.7-1.7l0.7,1.7H48.8z"/>
</g>
</svg>
