<svg viewBox="0 0 170 35" xmlns="http://www.w3.org/2000/svg">
	<path fill="#EB1C2D" d="M8.12839 25.0221H0v9.5358h9.35066v-8.3085c0-.7223-.504-1.2273-1.22227-1.2273ZM12.5155 2.26562H0v9.53578h12.5879c5.4666 0 9.9261 4.4797 9.9261 9.9693v12.7872h9.4945V21.8432c-.0714-10.8365-8.7752-19.57758-19.493-19.57758Zm-.1439 11.34148H0v9.5368h8.55895c.36015.001.71627.0724 1.04824.2103.33198.1378.63381.341.88731.5955.2535.2545.4547.5573.5925.8893.1368.333.2072.6891.2062 1.0482v8.6697h9.3507V21.9156c0-4.5511-3.6678-8.3075-8.2723-8.3085Z"/>
	<path fill="#111" d="m46.1437 2.40733 3.4153 8.98647h-2.0663l-.7052-2.0029h-3.3409l-.7314 2.0029h-2.017l3.4164-8.98647h2.0291Zm.1639 5.54602-1.185-3.33989-1.1971 3.33989h2.3821Zm8.062-5.74722c1.3108 0 2.3691.43761 3.1759 1.31081.8149.86515 1.2223 2.00091 1.2223 3.40325 0 1.40336-.4074 2.53811-1.2223 3.40331-.8068.8571-1.8701 1.2856-3.189 1.2856-1.3279 0-2.3992-.4285-3.2141-1.2856-.8148-.8652-1.2223-1.99995-1.2223-3.40331 0-1.42045.4034-2.55822 1.2102-3.41533.8149-.86615 1.8943-1.29873 3.2393-1.29873Zm-.0251 1.6126c-.7394 0-1.332.27766-1.7776.83195-.4376.5543-.6549 1.29773-.6549 2.23129 0 .96675.2183 1.72225.6559 2.2685.4366.54625 1.0372.8229 1.8027.83195.7475 0 1.336-.27765 1.7645-.83195.4286-.5543.6429-1.3108.6429-2.2685 0-.94161-.2183-1.68503-.6559-2.23129-.4387-.55429-1.0302-.83195-1.7776-.83195ZM71.23 2.4194v8.9754h-1.9657V4.09639h-3.6678v7.29841h-1.9678V2.4194H71.23Zm8.4734 0v1.61361H74.926v1.95363h4.3871v1.55023H74.926V9.743h4.866v1.6508h-6.8186V2.42041h6.731V2.4194h-.001Zm1.4547 0h3.869c1.009 0 1.8068.24446 2.3953.73136.5965.47985.8943 1.19813.8943 2.15583 0 .9406-.2937 1.65586-.8822 2.14275-.5875.47886-1.3561.71828-2.3068.71828h-2.017v3.22718h-1.9536V2.4194h.001Zm1.9536 1.61361v2.58338h1.7525c1.0251 0 1.5381-.42856 1.5381-1.28566 0-.86515-.509-1.29772-1.5251-1.29772h-1.7655ZM89.54 2.4194h4.2483c.841 0 1.5251.19013 2.0552.56738.5372.3692.8068.93255.8068 1.68905.006.39838-.1076.78971-.3279 1.12168-.2183.31991-.5171.56335-.8954.73135 1.0925.31086 1.6388 1.04221 1.6388 2.19407 0 .84905-.2857 1.50797-.8571 1.97877-.5714.4618-1.2977.6931-2.18.6931H89.541V2.4194h-.001Zm1.9164 1.52609v2.10452h1.7897c.9919 0 1.4878-.34807 1.4878-1.04622 0-.41145-.1348-.68911-.4034-.83196-.2696-.15089-.6307-.22634-1.0844-.22634h-1.7897Zm0 3.44048v2.44556h1.9788c.513 0 .9154-.08451 1.2102-.2515.3028-.16901.4547-.49193.4547-.97078 0-.48791-.16-.81083-.4789-.97078-.3108-.16901-.7404-.2525-1.2856-.2525h-1.8792Zm13.7526 1.12268c0 .9577-.299 1.68005-.895 2.16795-.589.4798-1.387.7192-2.395.7192h-3.4921V2.4194h1.9541v3.22621h1.638c.95 0 1.719.24445 2.307.73135.59.47986.883 1.18908.883 2.13169Zm-1.916-.02515c0-.8571-.512-1.28565-1.538-1.28565h-1.373v2.58338h1.386c1.017 0 1.525-.43258 1.525-1.29773Zm2.874-6.06309h1.966v8.97439h-1.966V2.42041Zm11.296-.00101v8.9754h-1.965V5.16776h-.039l-3.378 6.22704h-2.218V2.4194h1.967v6.215h.037l3.378-6.215h2.218ZM115.019 0h.705c0 1.2102-.684 1.8148-2.054 1.8148-1.371 0-2.056-.6056-2.056-1.8148h.707c.109.5543.558.831952 1.349.831952.79 0 1.239-.277652 1.349-.831952ZM49.2823 13.6975v8.9745h-1.9657v-6.2271h-.0382l-3.3781 6.2271h-2.2182v-8.9745h1.9667v6.215h.0372l3.3791-6.215h2.2172Zm9.3427 0v8.9745h-1.9668v-3.8701h-3.6678v3.8701h-1.9657v-8.9745h1.9657v3.3781h3.6678v-3.3791l1.9668.001Zm1.7292 0h4.2483c.839 0 1.5251.1892 2.0543.5674.5382.3692.8068.9326.8068 1.6891.006.3983-.1077.7897-.328 1.1216-.2183.32-.5161.5634-.8943.7314 1.0915.3109 1.6387 1.0422 1.6387 2.1941 0 .848-.2857 1.5079-.8581 1.9787-.5714.4618-1.2977.6932-2.1799.6932h-4.4878v-8.9755Zm1.9165 1.5251v2.1045h1.7896c.9919 0 1.4879-.348 1.4879-1.0462 0-.4114-.1338-.6891-.4034-.8319-.2686-.1509-.6298-.2264-1.0845-.2264h-1.7896Zm0 3.4405v2.4456h1.9787c.5131 0 .9165-.0845 1.2102-.2525.3028-.168.4537-.492.4537-.9708 0-.4869-.1589-.8109-.4788-.9698-.3109-.169-.7394-.2525-1.2857-.2525h-1.8781Zm13.7025-4.9656v1.6136h-4.7764v1.9537h4.3861v1.5502h-4.3861v2.2061h4.865v1.6509h-6.8196v-8.9735l6.731-.001Zm9.4593 5.5078c-.1006 1.1257-.4959 2.0201-1.185 2.685-.6881.663-1.6347.9949-2.8359.9949-1.3028 0-2.353-.4285-3.1508-1.2856-.7897-.8652-1.185-2.009-1.185-3.4284 0-1.345.3994-2.4627 1.1971-3.353.8068-.8913 1.8782-1.3359 3.2141-1.3359 1.0674 0 1.9627.3028 2.685.9074.7233.6046 1.1217 1.3731 1.1982 2.3067h-1.9285c-.1006-.496-.328-.8782-.6811-1.1478-.345-.2777-.7816-.4165-1.3118-.4165-.5462 0-1.008.1559-1.3862.4668-.3622.2917-.6338.681-.7817 1.1216-.1549.4718-.2324.9658-.2273 1.4627 0 .9245.2142 1.6639.6428 2.2182.4285.5463 1.004.8199 1.7273.8199 1.2011 0 1.8862-.672 2.0542-2.017l1.9546.001Zm7.7723-5.5078v1.676h-2.697v7.2985H88.528v-7.2985h-2.6971v-1.676h7.3739Zm8.6382 0v8.9745h-1.9665v-6.2271h-.0372l-3.3781 6.2271H94.243v-8.9745h1.9657v6.215h.0382l3.3781-6.215h2.218Zm10.314 11.2802h-1.905V22.671h-6.693v-8.9735h1.966v7.2985h3.668v-7.2985h1.967v7.2985h.996v3.9817h.001Zm8.569-11.2802v8.9745h-1.967v-6.2271h-.037l-3.378 6.2271h-2.219v-8.9745h1.966v6.215h.038l3.378-6.215h2.219Zm5.8-.2142c1.312 0 2.37.4376 3.176 1.3108.816.8651 1.223 1.9999 1.223 3.4032 0 1.4034-.407 2.5381-1.223 3.4033-.806.8571-1.869 1.2856-3.189 1.2856-1.328 0-2.399-.4285-3.214-1.2856-.816-.8652-1.223-2.0009-1.223-3.4033 0-1.4204.403-2.5592 1.21-3.4163.816-.8662 1.896-1.2977 3.24-1.2977Zm-.024 1.6126c-.74 0-1.333.2776-1.778.8319-.436.5543-.654 1.2977-.654 2.2303 0 .9667.218 1.7233.654 2.2695.437.5463 1.038.8229 1.803.832.749 0 1.336-.2777 1.765-.832.428-.5543.643-1.3118.643-2.2695 0-.9406-.219-1.684-.655-2.2303-.438-.5543-1.031-.8319-1.778-.8319Zm13.377-1.3984v8.9745h-1.966v-3.8701h-3.668v3.8701h-1.967v-8.9745h1.967v3.3781h3.668v-3.3791l1.966.001Zm9.343 0v8.9745h-1.965v-3.8701h-3.668v3.8701h-1.967v-8.9745h1.967v3.3781h3.668v-3.3791l1.965.001Zm8.523 6.0883c0 .9577-.298 1.68-.894 2.1679-.589.4788-1.388.7193-2.396.7193h-3.491v-8.9745h1.953v3.2262h1.639c.95 0 1.718.2445 2.307.7314.588.4778.882 1.1881.882 2.1297Zm-1.915-.0252c0-.8571-.512-1.2856-1.539-1.2856h-1.373v2.5834h1.387c1.017 0 1.525-.4326 1.525-1.2978Zm2.873-6.0631h1.966v8.9745h-1.966v-8.9745Zm11.297 0v8.9745h-1.966v-6.2271h-.038l-3.378 6.2271H162.4v-8.9745h1.966v6.215h.038l3.378-6.215H170Zm-2.445-2.4204h.706c0 1.2102-.685 1.8148-2.055 1.8148s-2.055-.6056-2.055-1.8148h.706c.11.5543.559.832 1.349.832.79 0 1.24-.2777 1.349-.832ZM43.6599 28.2009h2.3449c.9497 0 1.7183.2444 2.3068.7303.5885.4799.8822 1.1891.8822 2.1307 0 .9577-.2988 1.681-.8953 2.1679-.5885.4789-1.3863.7183-2.3953.7183h-4.197v-8.9744h6.6557v1.6266h-4.702v1.6006Zm3.6185 2.8359c0-.8571-.513-1.2857-1.5381-1.2857h-2.0794v2.5834h2.0924c1.0161.001 1.5251-.4316 1.5251-1.2977Zm7.7401-6.0752 3.4163 8.9865h-2.0673l-.7062-2.0029h-3.3399l-.7303 2.0029h-2.017l3.4163-8.9865h2.0281Zm.164 5.546-1.1851-3.3399-1.1981 3.3399h2.3832Zm11.604-5.5339v8.9744h-1.9667v-3.869H61.152v3.87h-1.9667v-8.9744h1.9667v3.3791h3.6678v-3.3791h1.9667v-.001Zm9.7209 0-3.5159 3.5421 3.8449 5.4323h-2.4707l-2.7233-4.033-1.1468 1.1347v2.8993h-1.9415v-8.9744h1.9415v3.7312l3.529-3.7312h2.4828v-.001Z"/>
</svg>