<svg xmlns="http://www.w3.org/2000/svg" viewBox="0 0 160 27.6">
	<g fill="#e92314">
		<path d="M27.6 25.4c-3.1-1-8.2-1.6-13.9-1.6-5.6 0-10.5.6-13.7 1.5v2.3h27.6v-2.2zm-13.7-13c5.6 0 10.8 3 13.8 6v-2.3c-3.2-4.6-8.2-7.5-13.8-7.5-5.6 0-10.6 3-13.8 7.5v2.3c2.8-3.1 7.9-5.8 13.8-6-.1 0-.1 0 0 0-.1 0-.1 0 0 0-.1 0 0 0 0 0z"/>
		<path d="M13.8 20c5.7 0 10.3 1.3 13.8 3v-2.3c-3.4-2.7-8.2-4.3-13.8-4.5C8.2 16.3 3.4 18 0 20.7V23c3.5-1.7 8.2-3 13.8-3z"/>
	</g>
  	<path fill="#000" d="M142.9 22.5l.1-16.3h-2.4v6.1h-6.5V6.2h-4.6v1.5h2.3l-.1 14.8h2.3v-8.7h6.6v8.7h2.3zM48.1 5.6h-4.6v1.3h2.3v.9h-.7c-4.1.2-6.2 3.1-6.2 6.5s2.4 6.2 6.3 6.5h.7v1.9h2.3v-1.9h.7c3.8-.3 6.3-3 6.3-6.5 0-3.3-2.2-6.2-6.2-6.5h-.8c-.1 0-.1-2.2-.1-2.2zM45.8 9v10.6c-.2 0-.5 0-.7-.1-2.2-.3-3.8-2.6-3.8-5.3 0-2.7 1.4-4.7 3.3-5.1.3-.1.8-.1 1.2-.1zm2.3 10.6V9c.4 0 1 .1 1.2.1 1.9.4 3.3 2.4 3.3 5.1 0 2.7-1.6 5-3.8 5.3-.2.1-.4.1-.7.1zm65-9.6V6.2h-9.6V21h-2.4v1.5h6.8c4.2 0 6.3-3.2 6.2-5.5-.1-2.6-2.4-4.2-4.6-4.6-.3-.1-.5-.1-.7-.1-.7-.1-.9 0-3 0V7.6h5.9V10h1.4zm-6 11h-1.3v-7.3h1.6c2.8 0 4.1 1.6 4.1 3.4.1 2-1.5 4-4.4 3.9zM80.9 6.2h-7.4v1.5h2.3l-.1 14.8h2.4v-7.2h2.7c2.8 0 4.9-2 4.9-4.6.1-2.4-2-4.5-4.8-4.5zm-1 7.6h-1.7V7.7h1.7c2.1 0 3.4 1.3 3.4 3 .1 1.8-1.3 3.1-3.4 3.1zm80.1 8.7l-7.3-9.9 6.7-6.4h-2.1l-6.7 6.4V6.2H146v1.5h2.3l-.1 14.8h2.4v-9l6.5 9h2.9zm-30.9 0l-6.4-16.3h-1.1l-6.5 16.3h1.7l1.6-4.1h6.5l1.6 4.2 2.6-.1zm-4.8-5.6H119l2.7-6.7 2.6 6.7zm-24.4 5.6L93.5 6.2h-1.1l-6.5 16.3h1.7l1.6-4.1h6.5l1.6 4.2c0-.1 2.6-.1 2.6-.1zm-4.8-5.7h-5.3l2.7-6.7 2.6 6.7zm-23.2-2.6c0-4.9-3.1-8.5-7-8.5s-7.1 3.6-7.1 8.4c0 4.8 3.2 8.4 7 8.4s7.1-3.6 7.1-8.3zm-2.6-.1c0 4.1-2.1 6.9-4.4 6.9-2.4 0-4.5-2.8-4.4-6.9 0-4.1 2.1-7 4.5-6.9 2.2-.1 4.3 2.8 4.3 6.9zM27.6 14.1c-3.1-5.7-8.2-9.5-13.9-9.5-5.6 0-10.6 3.5-13.7 9V0h27.6v14.1z"/>
</svg>