<svg xmlns="http://www.w3.org/2000/svg" viewBox="0 0 108 47">
	<path fill="#000" d="M8.83835 10.8585h6.53115v10.6979c-2.1809.4419-3.851.6657-5.68175.6657C2.52524 22.2221 0 18.1186 0 11.3636 0 4.10352 3.5009 0 10.4798 0c.8838 0 2.5539.0631311 4.6372.378786V7.22564h-1.5151l-.8552-2.61707C11.926 2.11776 10.9504.883835 9.40079.883835c-2.6802 0-4.10352 3.627165-4.10352 10.416665 0 6.8181.56818 10.0378 4.06908 10.0378.47635 0 1.03875-.0631 1.57825-.2181V13.16l-2.11199-1.4521v-.8494h.00574Zm6.40495 28.7189c0 4.2929-2.9327 6.7551-8.10949 6.7551-1.41758 0-3.5009-.2181-5.45797-.5395v-8.3907h1.51515l.63131 1.9857c1.41758 4.5742 2.42767 6.0893 4.22978 6.0893 1.89393 0 3.24842-1.6701 3.24842-3.8797 0-1.7963-.8494-3.059-2.68024-4.0404l-3.15655-1.7045c-2.43342-1.2913-3.75917-3.3115-3.75917-5.7736 0-3.7248 3.05898-5.963 8.08077-5.963 1.13639 0 2.46209.0975 4.57409.3787v6.8469h-1.5151l-.8494-2.6171c-.8551-2.7777-1.7677-3.7878-3.43777-3.7878-1.86524 0-2.96716 1.1995-2.96716 2.9327 0 1.5438.85514 2.6515 2.52524 3.5985l3.18529 1.7963c2.6802 1.5152 3.9428 3.5354 3.9428 6.3131Zm13.9519 4.9587.6314.947v.4763h-4.8267l-.2238-1.8308c-.5051 1.3889-1.8308 2.2096-3.5354 2.2096-2.5252 0-4.1035-1.5783-4.1035-4.1667 0-2.5252 1.4176-4.1953 5.7736-5.8998l1.8595-.7232V33.184c0-2.0833-.3788-2.9327-1.5438-2.9327-.947 0-1.4807.505-2.399 2.8064l-1.0388 2.5769h-1.4176v-5.148c1.8595-.5682 3.7248-.947 5.3317-.947 3.5641 0 5.4924 1.7045 5.4924 4.798v10.1985Zm1.8251-30.7104c0 5.3661-2.8696 8.3964-6.5656 8.3964-3.6903 0-6.5599-3.0303-6.5599-8.3964 0-5.36614 2.8696-8.39643 6.5656-8.39643 3.6903 0 6.5599 3.03029 6.5599 8.39643Zm-6.2442 28.0589v-5.458l-.5969.2525c-1.8652.7576-2.5597 2.4622-2.5597 4.953 0 1.8652.4419 2.9327 1.4807 2.9327s1.6759-1.0101 1.6759-2.6802Zm1.6069-28.0589c0-6.06058-.505-7.66755-1.9226-7.66755-1.4176 0-1.9226 1.60697-1.9226 7.66755 0 6.0606.505 7.6676 1.9226 7.6676 1.4176 0 1.9226-1.607 1.9226-7.6676Zm15.8459 28.2138.5682.287c-1.0101 2.904-2.3014 4.006-4.7979 4.006-4.0691 0-6.3418-3.059-6.3418-8.3965 0-5.3317 2.6515-8.3964 6.9731-8.3964 1.165 0 2.7146.1894 4.0404.7231v5.3662h-1.4808l-.5968-2.0202c-.792-2.6802-1.2282-3.3747-2.0202-3.3747-1.2626 0-2.2727 1.6414-2.2727 7.8914 0 5.0161.7575 6.8469 2.6802 6.8469 1.2913.0057 2.3932-.815 3.2483-2.9328Zm-3.5066-20.1962h-5.6818v-.4706l.6313-.9469V2.8122l-.6313-.94696v-.47636l5.0505-.37878V20.42l.6313.947v.4763Zm7.7651.3788c-3.4722 0-5.5555-3.1565-5.5555-8.5514 0-5.3661 2.1751-8.23569 5.5211-8.23569 1.7045 0 2.6515.66001 3.059 1.98576V2.8122l-.6313-.94696v-.47636l5.0504-.37878V20.42l.6313.947v.4706h-4.4823l-.3443-2.399c-.4993 2.0547-1.4463 2.7835-3.2484 2.7835Zm11.0766 22.314.6314.947v.4763h-5.6818v-.4763l.6313-.947V33.1725c0-1.3544-.4075-2.1752-1.3889-2.1752-1.1708 0-2.0202.9814-2.0202 2.9041v10.6347l.6313.947v.4763h-5.6818v-.4763l.6313-.947V26.9225l-.6313-.9469v-.4707l5.0505-.3787v6.5312c.5682-1.3545 1.8595-2.1121 3.6903-2.1121 2.5884 0 4.1322 1.6414 4.1322 4.8267v10.1641h.0057Zm-11.9891-30.808c0 5.6818.505 7.4151 1.8939 7.4151 1.7332 0 2.0489-2.4908 2.0489-7.4782 0-4.82665-.3443-7.22563-2.0202-7.22563-1.4176 0-1.9226 1.70454-1.9226 7.28873Zm31.686 6.6919.6313.947v.4706h-5.6818v-.4706l.6314-.947V8.71208c0-1.13635-.3788-1.8308-1.2627-1.8308-1.1019 0-1.9857.98141-1.9857 2.8696V20.42l.6313.947v.4706h-5.6818v-.4706l.6313-.947V8.71208c0-1.13635-.3788-1.8308-1.2626-1.8308-1.1019 0-1.9858.98141-1.9858 2.8696V20.42l.6313.947v.4706h-5.6818v-.4706l.6314-.947V7.57573l-.6314-.75758v-.47061l4.5455-.53948h.3788l.1262 1.76767c.5338-1.38889 1.8595-2.14646 3.6616-2.14646 1.9227 0 3.1853.94697 3.7534 2.6515.4707-1.6414 1.9571-2.6515 3.851-2.6515 2.4909 0 4.0691 1.64141 4.0691 4.82663V20.42ZM71.361 41.3164c0 2.7433-1.7676 5.0161-6.0261 5.0161-1.1019 0-2.5884-.1263-4.8898-.5395v-5.8655h1.2913l.4075 1.2626c1.0101 3.2197 1.9858 4.4192 3.5354 4.4192 1.452 0 2.3989-1.0445 2.3989-2.6515 0-1.3257-.6657-2.2383-2.2383-3.0934l-2.7146-1.452c-1.7332-.947-2.6802-2.4277-2.6802-4.2585 0-2.8696 2.244-4.6086 5.963-4.6086 1.0733 0 2.4621.155 3.9773.4706v4.6086h-1.2913l-.6658-1.6758c-.7576-2.0202-1.4807-2.6802-2.6802-2.6802-1.2913 0-2.0489.7575-2.0489 2.0202 0 1.0732.6313 1.7963 2.1752 2.6802l2.6802 1.5151c1.825 1.0445 2.8064 2.5252 2.8064 4.8324ZM91.7811 20.42l.6313.947v.4706h-4.8267l-.2181-1.8308c-.505 1.3889-1.8308 2.2096-3.5353 2.2096-2.5253 0-4.1035-1.5783-4.1035-4.1667 0-2.5252 1.4176-4.1953 5.7736-5.8998l1.8595-.7232V9.06218c0-2.08333-.3788-2.93273-1.5438-2.93273-.947 0-1.4808.50505-2.399 2.80646l-1.0388 2.58839H80.957V6.38198c1.8652-.56818 3.7247-.94697 5.3317-.94697 3.564 0 5.4924 1.70454 5.4924 4.79799V20.42Zm-4.4192-2.6515v-5.4579l-.5969.2525c-1.8595.7576-2.5539 2.4621-2.5539 4.9529 0 1.8652.4419 2.9385 1.4807 2.9385s1.6701-1.0101 1.6701-2.686ZM108 21.367v.4706h-5.682v-.4706l.632-.947V9.05644c0-1.36019-.408-2.17516-1.389-2.17516-1.171 0-2.0205.9814-2.0205 2.90403V20.42l.6315.947v.4706H94.49v-.4706l.6313-.947V7.57573l-.6313-.75758v-.47061l4.5454-.53948h.3788l.1263 1.76767c.5335-1.38889 1.8305-2.14646 3.6905-2.14646 2.588 0 4.132 1.64141 4.132 4.82663V20.42l.637.947Z"/>
</svg>