<svg xmlns="http://www.w3.org/2000/svg" viewBox="0 0 125 27">
	<path fill="#1F1E24" d="M71.6801 5.24622c5.0667 0 7.4174-2.14331 7.5988-5.24622h-3.4372c-.1356 1.29267-1.0853 2.88127-4.1616 2.88127-3.0756 0-4.0247-1.5886-4.1603-2.88127h-3.4372c.1814 3.10291 2.5321 5.24622 7.5975 5.24622ZM76.61 7.17779 64.1284 23.6594V7.17779h-4.8859V26.5419h7.5072l12.4834-16.4804v16.4804h4.884V7.17779H76.61ZM30.6576 12.9948c.4061-4.58377 5.427-6.24666 11.3524-6.24666 7.4161 0 11.4879 2.62497 11.4879 7.76096v12.0464h-4.7491v-3.9536C46.894 25.3 43.3212 27 38.2545 27c-6.2398 0-8.9985-2.4764-8.9985-5.6177 0-3.7703 3.8891-5.5421 11.0347-5.9866l8.096-.5547v-1.1825c0-2.2164-1.9459-3.95356-6.3767-3.9907-3.5289 0-6.152 1.0723-6.6039 3.327h-4.7485Zm3.618 8.203c0 1.627 1.674 2.8813 5.4276 2.8813 5.4276 0 8.6835-2.511 8.6835-5.7266v-.9609l-7.4632.4805c-4.2953.2946-6.6479 1.331-6.6479 3.3257Zm-17.5873-4.5392 10.7184 9.9402H21.165l-7.5969-7.3177-7.55359 7.3177H0l10.537-9.83L.45194 7.23475h6.28568l6.92028 6.91035 7.0112-6.91035h6.0145l-9.9953 9.42385Zm92.6147 2.8392 4.973.2959C113.327 24.4865 108.397 27 101.93 27c-7.9606 0-13.07-3.5487-13.07-10.1259 0-6.5785 5.1094-10.12596 12.935-10.12596 6.24 0 11.261 2.40333 12.165 6.98466l-4.93.2959c-.769-2.6992-3.708-4.06497-7.235-4.06497-4.7047 0-7.9153 2.55067-7.9153 6.91037 0 4.3596 3.2106 6.9103 8.0503 6.9103 3.754 0 6.602-1.5155 7.373-4.2866Z"/>
	<path fill="#0029FF" d="M123.391 21.6807h-4.91v4.9148h4.91v-4.9148Z"/>
</svg>