<svg xmlns="http://www.w3.org/2000/svg" viewBox="0 0 180.1 23.6">
	<g fill="#cf0106">
		<path d="M78.4 21.1H180v.8H78.4v-.8zM52.5 10.8h3.9v1.8h-3.9v5.3h5.8v-1.7h-4v-1.9h4V9.1h-4V7.3h4V5.6h-5.8v5.2zM60 7.3h3.9v1.8H60v5.2h3.9v1.9H60v1.7h5.8v-5.3h-4v-1.8h4V5.6H60v1.7z"/>
		<path d="M59.1 0c-6.5 0-11.8 5.3-11.8 11.8s5.3 11.8 11.8 11.8 11.8-5.3 11.8-11.8C71 5.3 65.7 0 59.1 0zm0 21.3c-5.2 0-9.5-4.2-9.5-9.5 0-5.2 4.2-9.5 9.5-9.5 5.2 0 9.5 4.2 9.5 9.5s-4.2 9.5-9.5 9.5z"/>
	</g>
	<g fill="#040003">
		<path d="M160.7 13.9c.3-.4.8-.7 1.4-1.1.1 0 .1 0 .2-.1.3-.1.3-.4.1-.7-.3-.4-.7-.8-1.1-1.2h.7V3.5h-7v10.9c0 .3-.1.7-.5 1-.1.1-.2.2-.2.3.5 1.2.8 2 1 2.1.1 0 .2-.1.5-.3.3-.3 1.4-.9 3-1.7-.1-.1-.1-1.2-.1-1.4.5.9 1.3 1.8 2.7 2.8.1.1.2.1.3.2.5-.8 1-1.4 1.6-1.8-1.1-.4-2-.9-2.6-1.7zm-3.8-8.5h3v1.1h-3V5.4zm0 9.1v-3.8h.6c0 .9.3 1.9 1 3-.3.3-.8.5-1.6.8zm0-5.4V8h3v1.1h-3zM159 11v-.3h1.9c-.3.6-.8 1.1-1.3 1.6-.1-.2-.3-.7-.6-1.3zm13.2-7.2h6.7v1.6h-6.7V3.8zm-75 13.9h1.9v-.9h9.1v.7h2.1V3.2H97.1l.1 14.5zm1.9-12.6h9.1v10.2h-9.1V5.1zm72.2 2.7c.1-.1.1-.1.1-.2-.1-.1-.6-.5-1.9-1.2-1.2 2-2.7 3.7-4.3 5.1l1.4 1.2c.5-.5.8-.9 1.1-1.2v5.9h2V9.5c.5-.7 1-1.4 1.6-1.7l-.1 1.6h4.3V15c0 .4-.5.5-1.6.5.4.5.6 1.2.7 2 2.2 0 3.1-.5 3.1-1.4V9.5h2.4V7.7l-8.8.1zm-32.4-4.6c-.8 0-1.6.1-2.6.1-.1.1-.1.1 0 .3.1.2.2.5.3.8h-6V6h3.3c0 .2.2.8.4 1.1.2.3.4.5.4.6h-3.1v10l2 .1v-6.6c.3.3.5.6.7 1l.4-.3v4h1.7v-.6h1.9v.4h1.7c.3.6.5 1.6.6 2.2 2 .1 3.1-.4 3.1-1.4V7.6h-2.9c.3-.5.7-1.3.9-1.6 0-.1.1-.1.1-.2h3V4.2h-5.7c0-.3 0-.7-.2-1zm-5.1 7.6V9.2h2.1c-.6.7-1.3 1.2-2.1 1.6zm4.6 3.2h-1.9v-1.3h1.9V14zm-2.2-2.7c.3-.3.7-.6 1.1-.8l.3-.3-1.1-1.1h2.7c-.5.5-.8.9-.8 1.1-.1.1 0 .1.2.2s.6.4 1.4.8l-3.8.1zm4.1 4.4v-3.9c.3.3.5.5.6.5.3-.4.5-.7.7-.8v4.2c.1.4-.4.1-1.3 0zm1.3-6.6v1.3c-.9-.6-1.6-1-2.2-1.3h2.2zm-3-1.5h-1.8c-.2-.5-.5-1.2-.7-1.6h3.2c-.1.5-.4 1.1-.7 1.6zM121.8 6h4.8V4h-12v2h4.9v9h-5.6v1.9h13.2V15h-5.3V6zm44.9 2.1c1-.8 2.3-2 3.6-3.5.2-.2.4-.3.6-.5l.3-.3c0-.1-.4-.3-1.3-.7l-.8-.4c-1.1 1.6-2.3 2.9-3.8 4.1.6.6 1.1.9 1.4 1.3z"/>
		<path d="M106.6 10.5h.4V8.9h-2.5V7.8h2.5V6.2h-6.7v1.6h2.3v1.1h-2.3v1.6h2.3v2.1h-2.7v1.7h7.5v-1.7h-.9l1-.7c-.1 0-.4-.5-.9-1.4zm-.5 2.1h-1.6v-2.2h1.6l-1.1.7c.4.6.8 1.1 1.1 1.5zm48 .1c-.1 0-1.4 1-1.7 1.2v-1.8h2v-1.6h-2V9.2h1.9V7.6h-3.6c.1-.1.2-.6.5-1.3h3.3V4.7H152c.1-.3.5-1.4.4-1.5-1-.3-1.7-.4-2.1-.5 0 .1-.3 1.5-.9 2.8-.4 1-1.2 2-1.7 2.9 0 .1.1.1.1.1.7.5 1.1.8 1.4 1 .1-.1 0 0 .4-.5.1-.1.2-.3.3-.5V9h.7v1.3h-2.2V12h2.2v2.1c0 .3-.2.5-.5.9l-.3.3c.5 1 .8 1.6 1 1.8.1 0 .2-.1.5-.5.5-.5 1.5-1.3 3.1-2.5 0-.4-.1-.9-.3-1.4zm-66-8.3c0-.5.1-.8.2-1.2.1-.1.1-.1.1-.2s-.1-.1-.4-.1c-.2-.1-.9-.1-2.1-.1v3.1h-5V14H83v-1.2h3v4.9h2.2v-4.9h3.1v1h2.3V6h-5.3V4.4h-.2zM86 11.3h-3.2V7.9H86v3.4zm5.3-3.4v3.4h-3.2V7.9h3.2zM4.8 12c0 3.5 2.8 6.3 6.3 6.3h3.6v-2.7h-4c-2 0-3.6-1.6-3.6-3.6v-.1c0-2 1.6-3.6 3.6-3.6h3.9V5.6H11c-3.3 0-6.2 2.9-6.2 6.4zm25 0c0 3.5 2.8 6.3 6.3 6.3h3.6v-2.7h-4c-2 0-3.6-1.6-3.6-3.6v-.1c0-2 1.6-3.6 3.6-3.6h3.9V5.6H36c-3.4 0-6.2 2.9-6.2 6.4zm-2.1-3.1c0-1.8-1.4-3.2-3.2-3.2h-7.1c-.1 0-.1 0-.1.1v12.6h7.2c1.8 0 3.2-1.4 3.2-3.2 0-1.5-1-2.7-2.3-3.1 1.3-.5 2.3-1.8 2.3-3.2zm-2.2 5.5c0 .4-.2.8-.4 1-.3.3-.7.4-1 .4h-4.6s-.1 0-.1-.1V12.9H24c.4 0 .8.2 1 .4.3.3.5.7.5 1.1zm-.4-4.1c-.3.3-.7.4-1 .4h-4.6s-.1 0-.1-.1V7.7H24c.4 0 .8.2 1 .4.3.3.4.7.4 1s-.1 1-.3 1.2zM0 5.6h2.4v12.7H0V5.6z"/>
	</g>
</svg>