<svg xmlns="http://www.w3.org/2000/svg" viewBox="0 0 180 42">
	<path fill="#F56E28" d="M11.3875 22.775c6.3029 0 11.3875-5.1111 11.3875-11.3875C22.775 5.08465 17.6639 0 11.3875 0 5.08466 0 0 5.08465 0 11.3875 0 17.6639 5.08466 22.775 11.3875 22.775Zm.0775 9.057c6.303 0 11.3876-1.3771 11.3876-3.0719 0-1.695-5.1112-3.072-11.3876-3.072-6.30275 0-11.3874054 1.377-11.3874054 3.072 0 1.6948 5.1111354 3.0719 11.3874054 3.0719Zm11.3876 4.423c0 1.0063-5.0846 1.8008-11.3876 1.8008-6.27627 0-11.3874054-.7945-11.3874054-1.8008S5.16225 34.4542 11.465 34.4542c6.2764-.0266 11.3876.7945 11.3876 1.8008ZM11.465 41.763c6.303 0 11.3876-.2118 11.3876-.5031 0-.2914-5.1112-.5296-11.3876-.5032-6.30275 0-11.3874054.2118-11.3874054.5032 0 .2648 5.1111354.5031 11.3874054.5031Z"/>
	<path fill="#0047BB" d="M84.4248 3.41504c4.608.02648 7.9712 3.23087 7.9712 7.86536 0 4.6344-3.3632 7.8388-7.9977 7.8653h-.0794c-4.608-.053-7.9713-3.2309-7.9713-7.8653 0-4.63449 3.3368-7.8124 7.9977-7.86536h.0795Zm-4.608 7.86536c0 2.966 1.8803 4.7933 4.555 4.7933 2.6748 0 4.5285-1.8273 4.555-4.7933-.0265-2.96609-1.8802-4.79338-4.555-4.79338-2.7012 0-4.555 1.82729-4.555 4.79338Zm-35.2217 7.6265h3.2837V3.67941h-3.0984l-7.2033 9.98389V3.67941h-3.2838V18.9069h3.125l7.1768-9.98394v9.98394Zm9.0038-15.22749h-3.3104V18.9069h3.3104v-6.1175h6.7v6.1175h3.3369V3.67941h-3.3369v6.01154h-6.7V3.67941ZM69.3561 18.9069h-3.3102V3.67941h10.3016v3.01901h-6.9914V18.9069ZM127.274 6.77787h-4.873V3.67941h13.082v3.09846h-4.873V18.9069h-3.336V6.77787Zm17.028-3.09846h-6.806V18.8804h3.337v-4.555h3.151c3.39 0 6.118-1.8273 6.118-5.34947 0-3.15143-2.198-5.29652-5.8-5.29652Zm2.436 5.323c0 1.35059-.979 2.35699-2.648 2.35699h-3.257V6.69842h3.204c1.669 0 2.701.79448 2.701 2.30399ZM180 18.9069l-5.402-7.8124 5.19-7.41509h-3.84l-3.257 4.66093-3.204-4.66093h-3.946l5.191 7.49459-5.403 7.7329h3.839l3.47-4.9788 3.416 4.9788H180Zm-15.042-.0002h-3.39l-1.403-3.4957h-6.436l-1.429 3.4957h-3.39l6.488-15.33335h3.072l6.488 15.33335Zm-8.025-11.25504-2.012 4.76684h4.026l-2.014-4.76684Zm-55.082 8.42204c-2.6754 0-4.5556-1.8273-4.5556-4.7933 0-2.96609 1.8537-4.79338 4.5556-4.79338 1.403 0 2.568.39724 3.548 1.24468l2.066-2.06565c-1.404-1.3506-3.284-2.22453-5.561-2.25101h-.08c-4.6611.05296-7.9979 3.23087-7.9979 7.86536 0 4.6344 3.3634 7.8123 7.9719 7.8653h.079c2.278-.0265 4.157-.9004 5.561-2.251l-2.066-2.0656c-.98.8473-2.118 1.2446-3.521 1.2446Zm9.348-4.7933c0 2.966 1.88 4.7933 4.555 4.7933 1.403 0 2.568-.3973 3.548-1.2446l2.066 2.0656c-1.404 1.3506-3.283 2.2245-5.561 2.251h-.08c-4.608-.053-7.971-3.2309-7.971-7.8653 0-4.63449 3.337-7.8124 7.971-7.86536h.08c2.278.02648 4.157.90041 5.561 2.25101l-2.066 2.06565c-.98-.84744-2.145-1.24468-3.548-1.24468-2.701 0-4.555 1.82729-4.555 4.79338ZM45.045 28.3085h-8.8186v4.3432h4.4755c3.6016 0 5.4554 1.5625 5.4554 4.3166 0 3.178-2.2775 4.608-6.038 4.608h-5.8527v-15.095H45.045v1.8272Zm-8.7922 6.1705v5.2436h4.0518c2.4894 0 3.8665-.8475 3.8665-2.7543 0-1.6684-1.1917-2.4893-3.734-2.4893h-4.1843Zm18.8294-8.0507h-1.5624l-6.5942 15.1215h2.0127l1.6684-3.8135h7.3886l1.6684 3.8135h2.0392l-6.6207-15.1215Zm.106 4.8198 2.0656 4.7669h-5.9321l2.0656-4.7669.9005-2.304.9004 2.304Zm19.0936 3.5488h-8.9776v6.753H63.318V26.4548h1.9862v6.5148h8.9776v-6.5148h1.9597v15.0951h-1.9597v-6.753Zm7.5211-8.3421h-1.9861v15.0951h1.9861v-5.7997l1.2712-1.1653 6.8061 6.965h2.6216l-7.5739-7.9183 7.0443-7.1768h-2.5423l-7.627 7.6271v-7.6271Z"/>
</svg>