<svg xmlns="http://www.w3.org/2000/svg" viewBox="0 0 150 26.7">
	<path fill="#335497" d="M20.6 3.1H0v20.6h20.6V3.1z"/>
	<path fill="#fff" d="M19.4 4.3H1.3v18.4h18.2V4.3z"/>
	<path fill="#335497" d="M1.6 4.8H19v17.5H1.6V4.8z"/>
	<path fill="#fff" d="M2.2 8.4h1.5V5.6h14.6v15.9H3.6v-.8H2.1l.1-12.3z"/>
	<g fill="#335497">
		<path d="M2.9 9.1h5.7c-1.8 1.8-3.7 3.6-5.5 5.5 1.8 1.9 3.6 3.7 5.5 5.6H2.9V9.1z"/>
		<path d="M9.7 9.1h1.2c-1.9 1.8-3.8 3.7-5.7 5.5l5.7 5.7H9.7L4 14.6c1.9-1.9 3.8-3.7 5.7-5.5zm1.8 2.3h6v8.8h-6v-.1h.4c2.8 0 5-1.6 5-3.7s-2.3-3.7-5-3.7h-.4v-1.3zM39.6 21.7l.2 1.9.2.2h.1c.3 0 .6-.2.8-.4.3-.3.4-.7.6-1l-3.4-7.3-.7-.1v-1h3.9v1h-.6l-.1.2 2 4.5 1.4-4.3-.1-.3-.6-.1v-1H46v1l-.6.1-2.3 6.9c-.2.9-.7 1.7-1.3 2.4-.2.2-.5.4-.8.6-.3.1-.6.2-1 .2-.6 0-1.1-.2-1.7-.4v-3h1.3zM54.7 14v3.3h-1.2l-.2-2-.2-.2h-2.5v3.5c.4-.1.9-.1 1.3-.1.9-.1 1.7.2 2.4.7.4.3.6.7.8 1.1.2.4.3.9.2 1.4 0 .8-.2 1.7-.8 2.3-.3.3-.7.5-1.2.7s-.9.2-1.3.2h-4.7V24l.6-.1.2-.3v-8.3L48 15h-.6v-1h7.3zm-4.1 9.8h.6c.2 0 .5 0 .7-.1.2-.1.4-.2.6-.4.3-.4.5-1 .4-1.5 0-.6-.1-1.2-.5-1.7-.1-.1-.3-.3-.5-.3-.2-.1-.4-.1-.6-.1-.2 0-.5 0-.7.1v4zM62 14l3.1 9.8.6.1v.9h-3.9V24l.7-.1.1-.2-.7-2.4h-2.8l-.7 2.4.1.2.6.1v.9h-2.7V24l.6-.1 3-9.9h2zm-2.6 6.2h2.1l-1.1-3.6c.1 0-1 3.6-1 3.6zM71.3 14v1h-.6l-.2.2v3.3h3.3v-3.3l-.2-.2H73v-1h4v1h-.7l-.2.2v8.3l.2.3.6.1v.9h-4V24l.6-.1.2-.3v-3.8h-3.3v3.8l.2.3.6.1v.9h-4V24l.6-.1.2-.3v-8.3l-.1-.3h-.6v-1h4zm11.5 0v1h-.7l-.2.2v3.1c.5-.1.9-.1 1.4-.1.5 0 .9 0 1.4.2.4.2.8.4 1.1.7.3.3.6.7.7 1.2.1.4.2.9.1 1.4.1.9-.2 1.7-.8 2.4-.3.3-.7.5-1.2.7-.4.2-.9.2-1.3.2h-4.6v-1l.6-.1.2-.3v-8.3l-.1-.3h-.6v-1h4zm-.9 9.8h.6c.2 0 .5 0 .7-.1.2-.1.4-.2.6-.4.3-.5.4-1 .4-1.5 0-.6-.1-1.3-.5-1.8-.1-.2-.3-.3-.5-.4-.2-.1-.4-.1-.6-.1-.2 0-.5 0-.7.1v4.2zm20.2.2l.6-.1.3-.3v-8.3l-.2-.2-.7-.1v-1h4.1c1.5 0 2.2.4 2.5.6.9.6 1.2 1.5 1.2 2.7 0 .5 0 1-.2 1.5s-.4.9-.7 1.3c-.4.3-.8.6-1.3.8-.5.2-1 .2-1.5.2-.3 0-.5 0-.8-.1v2.6l.2.3.8.1v.9h-4.2V24zm3.3-4.1h.1c.2 0 .5 0 .7-.1.2-.1.5-.2.6-.4.4-.6.6-1.2.6-1.9 0-.6-.1-1.1-.3-1.6-.1-.2-.3-.4-.5-.6-.2-.1-.5-.2-.7-.2h-.5v4.8zm5.9 4.1l.7-.1.2-.3v-8.3l-.2-.3-.7-.1V14h6.8v2.7h-.9l-.2-1.4-.2-.2h-2.3v3.6h1.4l.2-.2.1-1.2h.9v4h-.9l-.1-1.2-.2-.2h-1.4v3.9h2.8l.2-.3.2-1.8h.9v3.2h-7.3V24zm17.8-10v1l-.6.1-.2.2v8.4l.2.2h.8v2.8h-1.1l-.3-1.5-.2-.3h-5.8l-.2.3-.3 1.5h-1.1v-2.8h.4c.8-1.3 1.4-2.8 1.8-4.3.4-1.4.7-2.8.8-4.2l-.2-.2-1.1-.2v-1h7.1zm-3.2 9.8v-8.7h-1.5c-.2 1.7-.5 3.4-1 5.1-.4 1.2-.9 2.5-1.5 3.6h4zm8.9-9.8v1l-.6.1-.2.2v6l3.5-5.5v-.5l-.2-.2-.6-.1v-1h4v1l-.6.1-.2.2v8.3l.2.3.6.1v.9h-4V24l.6-.1.2-.3v-6.1L134 23v.6l.2.3.6.1v.9h-4V24l.6-.1.2-.3v-8.3l-.2-.2-.6-.1v-1h4zm15.2 0v2.8h-.9l-.3-1.5-.2-.2h-1.3v8.5l.3.3.7.1v.9h-4.2V24l.7-.1.3-.3v-8.5h-1.3l-.2.2-.3 1.5h-.9V14h7.6zM35.7 23.9l-.2-.4-2.2-5.7 2.2-2.8h.5v-1h-3v1l.3.1.1.3-2.9 3.7v-3.9l.2-.2.6-.1V14h-4v1l.7.1.2.2v8.3l-.2.3-.7.1v.9h4V24l-.6-.1-.2-.3v-2.1l1-1.4 1.9 4.8h2.8V24l-.5-.1zm64.4 0l-.2-.4-2.2-5.7 2.2-2.8.8-.1V14h-3.2v1l.3.1.1.3-2.9 3.7v-3.9l.2-.2.6-.1V14h-4v1l.7.1.2.2v8.3l-.2.3-.8.1v.9h4V24l-.6-.1-.2-.3v-2.1l1-1.4 1.9 4.8h3V24c.1 0-.7-.1-.7-.1zM27.3 8.3h.7l.1-.3V3l-.2-.1h-.7v-.7h3.3v.6h-.6l-.1.2v2.1h.4c.2 0 .4 0 .6-.2.2-.2.3-.4.4-.6l.4-1c.1-.4.3-.8.7-1 .2-.2.5-.3.8-.3.1 0 .3 0 .4.1.1.1.3.1.4.2.2.2.2.4.2.6 0 .2-.1.4-.2.6-.1.2-.4.3-.6.3l-.8-.7c-.1.1-.2.3-.2.4l-.3.9c-.1.2-.1.4-.3.5-.1.2-.3.3-.5.4.3.1.6.2.9.4.3.3.5.6.7.9l.6 1.4.2.2.7.1v.6h-2.6v-.5l-.8-1.8-.3-.6c-.1-.1-.1-.1-.2-.1h-.6v2.2l.2.2h.6v.6h-3.3v-.6zm13.1-5.5c.4.3.7.7 1 1.2.2.5.4 1 .4 1.5s-.1 1-.3 1.5-.5.9-.9 1.2c-.8.5-1.7.8-2.6.8-.8 0-1.7-.2-2.3-.8-.4-.3-.7-.7-.9-1.2-.2-.5-.3-1-.3-1.5s.1-1 .3-1.5.5-.9.9-1.2c.7-.5 1.6-.8 2.5-.7.8 0 1.5.2 2.2.7zm-3.4.6c-.4.6-.6 1.4-.6 2.2 0 .8.2 1.5.6 2.1.1.2.3.3.5.4.2.1.4.2.6.2.2 0 .4 0 .6-.1s.3-.2.5-.4c.4-.7.6-1.5.6-2.2.1-.7-.1-1.4-.5-2.1-.2-.2-.3-.4-.5-.5-.2-.1-.4-.2-.7-.2-.2 0-.4.1-.6.1s-.4.3-.5.5zm5.3 4.9h.7l.2-.3V3l-.2-.2h-.7v-.6h3.2v.3l1.4 4.1 1.3-4.1v-.3h3.2v.6h-.7l-.1.2v5l.1.2h.7v.6h-3.2v-.5h.6L49 8V3l-2 5.8h-1L44.1 3v5l.1.2h.6v.6h-2.5v-.5zm9.7 0h.7l.1-.3V3l-.1-.1H52v-.7h3.2v.3l1.4 4.1L58 2.5v-.3h3.2v.6h-.7l-.3.2v5l.1.2h.7v.6h-3.2v-.5h.6l.2-.3V3l-1.9 5.9h-1l-2-5.9v5l.1.2h.6v.6H52v-.5zm9.6 0h.7l.1-.3V3l-.2-.1h-.7v-.7H67v1.6h-.8L66 3l-.1-.1h-1.7v2.2h1l.1-.1.1-.7h.7v2.4h-.7l-.1-.7-.1-.1h-1v2.4h2.1V8l.2-1.1h.8v1.9h-5.7v-.5zm6.4 0h.6l.2-.3V3l-.1-.1H68v-.7h3.2c.6 0 1.3.1 1.9.4.3.2.5.4.7.7.2.3.2.6.2 1 0 .3 0 .6-.2.9-.1.3-.3.5-.5.7-.6.4-1.4.6-2.1.6h-.6V8l.1.2h.7v.6H68v-.5zm2.5-2.5c.4 0 .8-.1 1.1-.3.2-.2.3-.3.4-.5.1-.2.1-.4.1-.6 0-.3-.1-.7-.2-1-.1-.1-.2-.3-.4-.3-.2-.1-.3-.1-.5-.1h-.4l-.1 2.8zm6.8-3.6v.6h-.5l-.2.2v1.3c0 .3 0 .6.2.9.1.1.2.2.4.2s.3.1.4.1c.4 0 .8-.1 1.1-.2V3l-.2-.1H78v-.7h3.2v.6h-.6l-.1.2v5l.2.2h.6v.6h-3.4v-.5h.7l.2-.3V6c-.5.1-1.1.2-1.7.2-.3 0-.6 0-1-.1-.3-.1-.6-.3-.8-.5-.3-.4-.4-.8-.3-1.3V3l-.2-.1h-.5v-.7h3zm4.5 6.1h.7l.1-.3V3l-.2-.1h-.7v-.7h5.4v1.6h-.9V3l-.1-.1h-1.7v2.2h1l.1-.1.1-.7h.7v2.4h-.7l-.1-.7-.1-.1h-1v2.4h2.1V8l.2-1.1h.9v1.9h-5.7c-.1 0-.1-.5-.1-.5zm12.4.3c-.7.3-1.4.4-2.2.4-.5 0-1 0-1.5-.2s-.8-.4-1.2-.8c-.4-.4-.7-.8-.9-1.3-.2-.5-.2-1-.2-1.5.1-.5.2-1 .5-1.5.3-.4.7-.8 1.1-1.1.7-.4 1.4-.6 2.2-.5.7 0 1.4.1 2.1.4v1.8h-.9L93 3.1l-.2-.2c-.2 0-.3-.1-.5-.1-.3 0-.5 0-.8.1s-.5.2-.7.4c-.3.3-.5.6-.6 1-.1.4-.2.7-.2 1.1 0 .7.2 1.4.6 2 .2.2.4.4.7.6.3.1.6.2.9.2h.5L93 8l.3-1.3h.9v1.9zm.7-.3h.6l.2-.3V3l-.2-.1h-.6v-.7h3.3v.6h-.6l-.2.2v2.1h.4c.2 0 .4 0 .6-.2.2-.2.3-.4.4-.6l.4-1c.1-.4.3-.7.7-1 .2-.2.5-.3.8-.3.1 0 .3 0 .4.1.1.1.3.1.4.2.1.1.1.2.2.3 0 .1.1.2.1.3 0 .2-.1.4-.2.6-.1.2-.4.3-.6.3l-.8-.7c-.1.1-.2.3-.2.4l-.3.8c-.2.5-.4.8-.7.9.3.1.6.2.9.4.3.3.5.6.7.9L101 8l.2.2.7.1v.6h-2.6v-.5l-.8-1.8-.3-.6c-.1 0-.2-.1-.3-.1h-.6v2.2l.2.2h.6v.6h-3.3v-.6zm10.5-6.1v.6h-.6l-.1.2v3.6l2.6-3.4V3l-.2-.1h-.6v-.7h3.3v.6h-.6l-.1.2v5l.2.2h.6v.6h-3.3v-.5h.6l.2-.2V4.3l-2.6 3.4V8l.2.2h.6v.6h-3.3v-.5h.6l.2-.2V3l-.2-.1h-.6v-.7h3.1zm8.3 0v.6h-.6l-.2.2v3.6l2.6-3.4V3l-.2-.1h-.6v-.7h3.3v.6h-.6l-.1.2v5l.2.2h.6v.6h-3.3v-.5h.6l.2-.2V4.3L113 7.7V8l.2.2h.6v.6h-3.3v-.5h.6l.2-.2V3l-.3-.2h-.6v-.6h3.3zm-.3-1.1c.5.1 1.1.1 1.6 0V.2c.2-.2.4-.2.7-.2.6 0 .8.3.8.7 0 .2-.1.3-.2.5-.1.1-.2.3-.4.3-1.2.4-2.4.4-3.6 0-.2-.1-.3-.2-.4-.3-.1-.1-.2-.3-.2-.5 0-.3.2-.7.8-.7.3 0 .5.1.7.2l.2.9zm13.1 1.1v2h-.9l-.2-1.2-.2-.1h-1.8V5c.3 0 .7-.1 1-.1.6 0 1.3.1 1.8.4.3.2.5.4.6.7.1.3.2.6.2.9 0 .3 0 .5-.1.8-.1.2-.3.5-.5.6-.5.4-1.2.6-1.9.5h-3.6v-.5h.6l.2-.2V3l-.2-.1h-.6v-.7h5.6zm-3.1 6h.5c.2 0 .4 0 .5-.1s.3-.1.5-.3c.1-.1.2-.3.2-.4.1-.2.1-.3 0-.5 0-.2 0-.4-.1-.6-.1-.2-.2-.3-.3-.5-.2-.2-.5-.3-.8-.3-.2 0-.4 0-.5.1v2.6zm8.1-6l2.3 6 .6.1v.6h-3.2v-.6h.7l.1-.1-.5-1.5h-2.1l-.5 1.5.1.1.6.1V9h-2.4v-.7h.6l2.3-6.1h1.4zM129.6 6h1.6l-.8-2.2-.8 2.2zm8.2-3.8v.6h-.6l-.1.2v2h2.5V3l-.2-.1h-.6v-.7h3.3v.6h-.6l-.2.2v5l.2.2h.6v.6h-3.3v-.5h.6l.2-.2V5.7h-2.5V8l.2.2h.6v.6h-3.3v-.5h.6l.2-.2V3l-.2-.1h-.6v-.7h3.2zm4.8 6.1h.6l.2-.2V3l-.2-.1h-.6v-.7h3.3v.6h-.6l-.1.2v2.1h.4c.2 0 .4 0 .6-.2.2-.2.3-.4.4-.6l.4-1c.1-.4.3-.7.7-1 .2-.2.5-.3.8-.3.1 0 .3 0 .4.1.1.1.3.1.4.2.2.2.2.4.2.6 0 .2-.1.4-.2.6-.1.2-.4.3-.6.3l-.8-.7c-.1.1-.2.3-.2.4l-.3.8c-.2.5-.4.8-.7.9.3.1.6.2.9.4.3.3.5.6.7.9l.6 1.3.2.2.7.1v.6h-2.6v-.3l-.8-1.8-.3-.6c-.1-.1-.1-.1-.2-.1h-.6v2.2l.2.2h.6v.6h-3.3l-.2-.6z"/>
	</g>
	<path fill="#b4966a" d="M11.9 13.9c.8 0 1.4 1.2 1.4 2.7 0 1.5-.6 2.7-1.4 2.7s-1.4-1.2-1.4-2.7c-.1-1.5.6-2.7 1.4-2.7z"/>
	<path fill="url(#gr1)" d="M11.6 13.8c.8 0 1.4 1.2 1.4 2.7 0 1.5-.6 2.7-1.4 2.7-.8 0-1.4-1.2-1.4-2.7-.1-1.5.6-2.7 1.4-2.7z"/>
	<linearGradient id="gr1" gradientUnits="userSpaceOnUse" x1="9.1872" y1="14.8706" x2="13.9537" y2="8.0627" gradientTransform="matrix(1 0 0 -1 0 28)">
		<stop offset="0" stop-color="#b4966a"/>
		<stop offset=".5" stop-color="#fef0c7"/>
		<stop offset="1" stop-color="#b4966a"/>
	</linearGradient>
</svg>