<svg xmlns="http://www.w3.org/2000/svg" viewBox="0 0 170 36">
	<path fill="#273981" d="M0 8.49609 17.2922 26.38H170L152.708 8.49609H0Z"/>
	<path fill="#273981" d="m82.428 0 7.5539 4.38836 7.5544 4.38816V26.329l-7.5544 4.3882-7.5539 4.3881-7.5543-4.3881-7.5539-4.3882V8.77652l7.5539-4.38816L82.428 0Z"/>
	<path fill="#fff" d="m82.4182.6875 7.2612 4.21784L96.94 9.12308V25.9945l-7.2606 4.2179-7.2612 4.2177-7.2611-4.2177-7.2611-4.2179V9.12308l7.2611-4.21774L82.4182.6875Z"/>
	<path fill="#273981" d="M94.646 10.3692 82.8804 3.57031l-.5084.88922 11.281 6.51867v13.4769h1.0026V10.392h-.0228l.0132-.0228ZM69.9608 24.7207l11.7651 6.7994.5084-.8892-11.281-6.5193V10.6353h-1.0026v14.0631h.0228l-.0127.0223Zm21.0902-2.5748c0-1.0345-.8345-1.8744-1.8635-1.8744-.0957 0-.1891.0072-.2812.0213l-2.6031-4.5369-2.6295-4.5826c.3037-.3336.4892-.7787.4892-1.26638 0-1.035-.8358-1.87546-1.8643-1.87546-1.029 0-1.863.84046-1.863 1.87546 0 .48148.1816.92188.4791 1.25398l-2.637 4.595-2.5331 4.4144c-.0531-.0119-.1074-.0218-.1624-.029-.0804-.0109-.1623-.0166-.2456-.0166-1.029 0-1.862.8394-1.862 1.8739 0 1.0365.833 1.8754 1.862 1.8754.7639 0 1.4218-.4633 1.7092-1.1258h10.3767c.2504.7398.9463 1.2732 1.765 1.2732 1.029 0 1.8635-.8395 1.8635-1.8755Zm-13.8688-.4119c-.0589-.4192-.256-.7938-.5429-1.076l2.5164-4.3865 2.6202-4.5649c.1658.0493.3411.0753.5227.0753.1764 0 .3476-.0239.509-.0701l2.6176 4.5597 2.5519 4.4493c-.3001.2583-.5177.6116-.6083 1.0132H77.1822Z"/>
	<path fill="#333" d="M36.8032 3.38046c.6542.1323 1.118.68689 1.118 1.44071 0 .72891-.5963 1.8381-2.2523 1.8381-1.3995 0-2.4843-.6625-2.4843-2.08661h1.0184c0 .91101.6874 1.26691 1.5237 1.26691.7453 0 1.1593-.3642 1.1593-1.035 0-.62931-.4304-.94422-1.1012-.94422h-.7206v-.8031h.7206c.53 0 .944-.3642.944-.91931 0-.52139-.3811-.828-1.0433-.828-.7287 0-1.2174.29831-1.2835 1.035h-.9855c.0496-1.31671 1.0018-1.854706 2.2026-1.854706 1.1675 0 2.1281.488709 2.1281 1.598416 0 .33774-.1442.64798-.3492.87989-.1719.19506-.3867.3341-.5948.38702v.0249Zm-8.84-2.749631h-1.3084L24.0462 3.30576V.630829h-1.0267V6.52698h1.0267V4.54776l.8446-.8446 1.938 2.82382h1.2835l-2.5092-3.54444L27.9632.630829Zm2.1081 4.239621-.0083.0166c-.193.36005-.3463.62775-.5287.77665-.0202.0166-.0407.03164-.0617.04513l-.0405.02387c-.0147.0083-.0298.01556-.0451.02179-.0667.02853-.1388.04358-.2181.04358-.3645 0-.5549-.08301-.6626-.1489v.86951c.1655.07418.4307.14889.6955.14889.6542 0 1.1842-.33099 1.6812-1.34161L33.1766.630829h-1.1178L30.6013 3.79395 29.1769.630829h-1.1427l2.0371 4.239621Zm13.6582-.17379c0-1.15952-.7204-1.81321-2.0122-1.81321h-1.7639V1.52524h3.3042V.630829h-4.3392V6.52698h2.7989c1.2835 0 2.0122-.66251 2.0122-1.83032Zm-1.035.0249c0 .6376-.3396.96029-1.0187.96029h-1.7224V3.72806h1.7058c.6459 0 1.0353.3725 1.0353.9935ZM46.3307.622528h1.1014l2.277 5.904452h-1.1094l-.5632-1.56522h-2.3351l-.5797 1.56522h-1.0682L46.3307.622528Zm-.3644 3.560512h1.7971l-.8778-2.484-.9193 2.484Zm9.349.09961h-1.0355c-.1074.86951-.5461 1.50711-1.5069 1.50711-1.2586 0-1.739-1.11749-1.739-2.2106 0-1.08481.5053-2.20282 1.7473-2.20282.7619 0 1.317.42231 1.4571 1.13462h1.0269C55.0665 1.14444 53.9739.498535 52.7978.498535c-1.7888 0-2.8072 1.407505-2.8072 3.080625 0 1.86301 1.0931 3.08841 2.7574 3.08841 1.4739 0 2.4594-.95199 2.5673-2.38492Zm4.9413 0h1.0347c-.1079 1.43293-1.0933 2.38492-2.567 2.38492-1.6643 0-2.7577-1.2254-2.7577-3.08841 0-1.67312 1.0189-3.080625 2.8072-3.080625 1.1762 0 2.269.645905 2.4677 2.012425h-1.0264c-.1409-.71231-.696-1.13462-1.4579-1.13462-1.242 0-1.7473 1.11801-1.7473 2.20282 0 1.09311.4804 2.2106 1.7393 2.2106.9606 0 1.3995-.6376 1.5074-1.50711Z"/>
	<path fill="#fff" d="M116.83 11.248h2.737l4.607 12.1213h-2.788l-.952-2.7035h-4.505l-.986 2.7035h-2.72l4.607-12.1213Zm-.255 7.4801h3.213l-1.598-4.5053-1.615 4.5053Zm-80.0081-7.4629h-2.9242l-2.4308 3.893-2.414-3.893h-3.0941l3.9442 5.7799-4.2671 6.3242h3.0259l2.686-4.1992 2.6521 4.1992h3.179l-4.25-6.3242 3.893-5.7799Zm11.6958 0h-2.9919l-4.5561 8.3812h-.0508v-8.3812h-2.6521v12.1041h2.9919l4.5561-8.3984h.0511v8.3984h2.6518V11.2652Zm4.8825 12.1041h-2.5328V11.2652h3.7908l2.8221 8.3132 2.754-8.3132h3.7058v12.1041h-2.4988v-8.6022l-2.9751 8.6022h-2.057l-3.009-8.5172v8.5172Zm51.1028-7.7519v-2.1593h6.341v-2.1929h-8.976v12.1041h5.661c2.618 0 4.437-1.2239 4.437-3.8931 0-2.635-1.87-3.8588-4.301-3.8588h-3.162Zm4.879 3.8246c0 1.2923-.782 1.7514-2.057 1.7514h-2.822v-3.4853h2.805c1.19 0 2.074.4592 2.074 1.7339Zm26.31-8.1768h-2.652v4.5561h-4.947v-4.5561h-2.652v12.1041h2.652v-5.2192h4.947v5.2192h2.652V11.2652Zm9.762 0h3.349l-4.743 4.7771 5.185 7.327h-3.332l-3.672-5.4402-1.547 1.53v3.9102h-2.618V11.2652h2.618v5.0318l4.76-5.0318Z"/>
</svg>