<svg xmlns="http://www.w3.org/2000/svg" viewBox="0 0 105 50">
	<path fill="#A58258" d="m60.6033 32.9407-1.5677-2.6458c.3533-2.7683.572-5.2577.4717-6.6931-.2848-4.019-1.1656-6.247-1.5247-7.1553-.0434-.1098-.0792-.2002-.1053-.2721-.9175-2.4813-1.6422-2.8528-1.6422-2.8528.0649-.1431.1361-.2831.2134-.4195.1079-.1904.2278-.3741.3588-.5499.1121-.1445.2293-.2847.3515-.4204.1844-.205.38-.3997.586-.5834 0 0 .8311.0159.7528-.6626-.1345-1.15017-.8312-.4536-.8312-.4536-.1603-.1022-.2737-.2639-.3151-.44975-.0076-.24152.0419-.48168.1445-.70046.1532-.52304.2461-1.06196.2771-1.60597.0098-.6144-.0408-1.2284-.1506-1.83299 0 0 .6123-.94747.6203-1.64009.0121-.76083-.5781-1.42522-.5781-1.42522-.0662-.07116-.1231-.14977-.17-.23407-.0217-.03901-.0412-.0792-.0584-.12037-.0135-.03215-.0256-.06489-.0362-.09822-.0058-.01803-.0111-.03607-.016-.0543-.0045-.01686-.0087-.03392-.0125-.05117-.0011-.17879.0552-.35327.1605-.49775 0 0 .7247-1.228592-.6323-1.385229-1.4393.200747-.544 1.501679-.544 1.501679.0114.01725.0221.0349.0322.05293.0077.01392.015.02804.0219.04235.0145.03038.0272.06155.0378.09351.0201.06018.0331.12292.0386.18663-.0125.05666-.037.11018-.0715.15683-.0345.04666-.0787.08548-.1293.1141-.0346.02862-.0688.05783-.1026.08743-.0238.02098-.0474.04215-.0708.06372l-.045.04136c-.0829.07763-.1632.15801-.2406.24094-.106.11351-.2067.23211-.3018.35542-.0499.06842-.0989.13743-.1471.20702l-.0533.07803-.0357.05312-.0459.0694c-.1655.25231-.3193.51226-.4608.77887 0 0-.4757-.51598-1.7244-.46579-.9141.03235-1.8105.26172-2.6277.67262-.1916-.44443-.4502-.8567-.767-1.22252-.0317-.03587-.0648-.0743-.0989-.11488l-.043-.05175-.033-.04058-.0312-.03882c-.0287-.03627-.0576-.07332-.0863-.11115-.0249-.03274-.0497-.06607-.074-.09959-.0812-.11194-.158-.22682-.2218-.33661-.0495-.08508-.0911-.16702-.1211-.2423-.0316-.07921-.0503-.15096-.0515-.21095 0-.06038.0593-.2129.1307-.39659.0301-.07724.0622-.15997.093-.24368.0815-.22152.1533-.449325.1498-.598317 0-.112528-.1627-.7710315-.7087-.75887687-.546.01195857-.803.62419687-.803.86924887 0 .067242.0319.175265.0784.296615.032.08371.0708.17369.1107.26093.1129.24681.2345.47226.2345.47226-.1084.30249-.2598.58793-.4497.8471-.1131.14821-.2116.30621-.2944.47167-.1463.29191-.2439.60734-.2877.93355-.0904.773.5842 1.53579.5842 1.53579-.191.49109-.2915 1.01276-.2971 1.53972-.021.59302.2351 1.24368.4378 1.75829.1274.32328.2335.59303.2367.76104.008.43562-.4598.65442-.5521.65652-.0923.002-.3674-.1064-.4396-.1045h-.0119c-.0817.0002-.2796.0008-.2492.6303.0322.6626.3634.7308.3634.7308s.3092-.1044.3272-.1044c.6746-.0542 1.5719 1.7626 1.5719 1.7626s-3.212 3.495-3.0453 11.1555c.0341 1.6321.2208 3.6656.4838 5.8217l-1.881 3.0292c-.165.3037-.2757.634-.3272.9755-.0266.3227-.0006.6473.0762.9616 0 0 2.7362 9.15 2.7804 9.5637-.0177.0635-.0577.1823-.1116.3413l-.0011.0035c-.2534.7495-.8074 2.388-.7546 3.3829.0643 1.2086 1.0299 1.2447 1.0299 1.2447s.8812.1004 1.8508.1466c1.1443.0541 2.409.0561 2.409.0561.1427.0004.2837-.031.4126-.0921.1289-.0612.2423-.1504.3322-.2612.0576-.0841.1319-.1556.2183-.2103.0862-.0543.1828-.0908.2835-.1069.2132.0363.4046.1516.536.3233.245.3333.803.287.803.287s.9275.0122 1.879-.0743c.0492-.0045.1076-.0094.1737-.0149.8255-.0694 2.8524-.2396 3.0383-.9104.3292-1.1163-.7127-3.1878-.7127-3.1878-.1284-.2741-.2156-.5658-.259-.8654.0197-.4342.1036-.8629.249-1.2727 0 0 .6022-2.0274 1.1543-3.9126.0932-.3189.1847-.6336.2715-.9335l.2107-.7303.2429-.8467c.1205-.4213.1943-.6812.1943-.6812s.4316-1.2045.4136-2.0538c-.0249-.5418-.194-1.067-.4898-1.5216l.0159.0061ZM48.1872 11.3404c-.6986-.229-.1787-.6765-.0522-.755.1264-.0782.803-.5118.1245-1.81864-.2006-.40169-.3201-.83887-.3513-1.28663-.0314-.44795.0258-.89747.1686-1.32308 0 0 1.068.3172 1.5939.21074 0 0 .9435-.17467 0-.37934-.542-.02411-1.1122-.05018-1.5016-.46383-.3561-.32072-.5723-.76829-.6022-1.24663-.0301-.60224.9073-1.89494.9073-1.89494.0368.10096.089.19585.1546.28093.1827.21486 1.2407 1.40523 1.4514 2.10392.1165.40149.4015.14056.4015.14056.7792-.3862 1.6261-.61655 2.4933-.6785.5809-.05411 1.1607.11469 1.622.47168 0 0 .3352.5099.526-.14253.3051-1.04588 1.7063-2.17821 1.7063-2.17821l.0864-.19056.6484 1.09392c.3475.62753.1923 1.01412-.0577 1.63694l-.0528.13174c-.3838.96159-1.334 1.06863-1.7849 1.11921-.0773.00862-.1398.01568-.1823.02509-.4196.06822-.249.24878.0963.28093.4236.20074 1.5679-.17056 1.5679-.17056s.0667.01411.1241.24642c.0207.08371.0401.19565.0547.34563.0097.099.0174.21447.0219.34934.0287.83553-.1845 1.45287-.3398 1.90278-.0837.24192-.1505.43541-.154.58852-.0101.4378.55.8753.6604.9496.0092.0063.0193.0124.0297.0185.1137.0678.2568.1533-.4312.672-.5298.3974-1.0456 1.3191-1.4777 2.0912-.0879.1572-.1724.3081-.2528.4471-.1233.2131-.237.3984-.3392.5352-.4959.6644-1.2386 1.09-2.4451 1.1182-1.1448.0267-1.8233-.623-2.2242-1.0066l-.0623-.0594c-.1432-.1359-.3736-.5654-.6426-1.0669-.4658-.8685-1.0471-1.9526-1.4913-2.0988h.006Zm-1.4213 37.2405c-.0582-1.0581.6484-3.0234.6484-3.0234.047-.1041.0845-.2119.1125-.3221.0187-.0737.0331-.1484.0431-.2239.0103-.077.016-.1547.0171-.2329-.0242-.3485-.1028-.6912-.2329-1.0157l-2.2865-7.8291c-.1373-.4064-.2499-.8206-.3373-1.2407.0077-.4264.1311-.8428.3573-1.2045l1.5579-2.5354c.7503 5.8712 2.003 12.3533 2.2602 13.6843.0513.265.063.3258.0234.1368.1598.7687-.1779 1.0965-.1779 1.0965l-1.0338 1.2164s-.4777.6866-.4375 1.2566c.0159.2418.1651.498.311.6944.0571.0771.1138.1449.1617.199.0756.0853.1295.1366.1295.1366l.016.03h-.1807s-.8993.1165-.9495-.803l-.002-.0199Zm9.0637.821c-.9836.0662-1.885.0341-1.885.0341s-.4898-.0804-.8994-1.2608l-.0381-16.993s-.0028-.0193-.0122-.0442c-.0051-.0137-.0123-.0292-.022-.0441-.004-.006-.0083-.0121-.0132-.0178l-.0049-.0057c-.0251-.0272-.0617-.0478-.1143-.0449-.0582.0034-.1025.0347-.1343.0708-.0177.02-.0316.0414-.042.0602-.0071.0129-.0126.0245-.0166.0337-.0053.0121-.0079.02-.0079.02v17.0635c-.4797 1.3911-1.0679 1.2746-1.0679 1.2746s-2.8827-.1204-2.8867-.1243c-1.6462-.9637-.524-2.1982-.524-2.1982l.8531-1.0419c.1243-.0989.2249-.2243.2944-.367.0694-.1428.106-.2992.1071-.458-.0162-.2858-.0592-.5695-.1284-.8473 0 0-2.7242-13.8072-2.7904-20.0646-.0742-7.6282 2.8104-10.6214 2.8104-10.6214s1.1001 2.2523 3.4669 2.2041c2.3006-.0461 3.2421-2.2964 3.2421-2.2964s.9214.6202 1.9493 3.9647c.7026 2.3045 1.1543 4.322 1.1503 5.932-.0201 7.4759-2.9189 21.2792-2.9189 21.2792-.0567.2921-.0377.5936.0546.8765.0923.2825.2553.5371.4733.7395 0 0 .9877.9757.9857 1.624-.0054.2299-.0697.4546-.1867.6524-.117.198-.2829.3623-.4818.4778 0 0-.2071.0274-.4654.0578-.2503.0296-.5486.0619-.7531.0747l.006-.01Zm4.3189-12.4745c-.2182.7477-.5031 1.7173-.8079 2.7363l-.2412.8077c-.6036 2.0177-1.2021 4.0185-1.2322 4.486.0237.2786.1147.5472.265.7828.4382.8706.7305 1.8071.8652 2.7724.0501.566-.791.6423-.791.6423s-.2368.0341-.6022.0784l.1225-.0682s.5741-.6727.4236-1.2045c-.2249-.803-1.2928-1.9012-1.2928-1.9012-.1468-.1763-.2402-.3907-.2691-.6184-.016-.3377.0193-.6761.1044-1.0037 0 0 1.4052-7.2629 2.2384-13.4661l1.4313 2.3909c.0652.1686.1233.3398.1742.5131.0299.1019.0573.2048.0822.3082.0215.0892.0411.1789.0587.2689-.0234.3492-.0648.697-.1245 1.0418l.0121-.0039s-.0698.2431-.1889.654l-.2278.7832Zm-7.4386-24.9607c.4195 0 .9074-.2007.8813-.5259-.0147-.1839-.0692-.3131-.1182-.4292-.0376-.0894-.072-.1709-.0825-.2635-.0241-.2127.534-2.40891.6223-2.56751.0883-.1586.1726-.45168 2.0315-.2229.1888.02294.2816.06783.3253.11273.0633.06508.024.13036.024.13036s.1064.73457-.018.89121c-.0329.04136-.2296.12743-.498.24446l-.0021.00118c-.7449.32523-2.0397.89077-1.935 1.41857.0382.2837.1116.5616.2188.8271-.0174.1645-.0796.3211-.1796.4526-.0455.0598-.0979.1136-.1562.1598-.07.0559-.1482.1012-.2323.1343-.5239.1888-.6323.2309-.6263.4999.006.269.7006.4658.9395.4597.1669-.0043.3946-.2074.5167-.1862.019.0033.0354.012.0487.0278.0086.0102.0159.0234.0215.0398.0099.0286.0153.0675.0153.1186 0 .4196-.3513.5701-.6244.6023-.0826.0098-.1887-.0308-.3064-.0918l-.0267-.0141-.0331-.018-.0472-.0267-.0474-.0274-.0589-.0345-.0103-.0059c-.2161-.1272-.4445-.2615-.6262-.2574-.3533.008-.8833.4658-1.1723.4717-.2891.006-.8432-.3874-.8472-.5801.0042-.0816.0402-.1584.1001-.2139.06-.0555.1393-.0855.2211-.0831.0658 0 .1408.0549.2218.1141.0967.0709.2019.148.3101.1448.0177-.0006.0391-.0027.0633-.0062.0209-.0032.044-.0073.0688-.0124.0241-.0049.0498-.0108.0765-.0174.0303-.0077.062-.0163.0943-.0257.1162-.0341.2414-.0798.3441-.1302.126-.0619.2178-.1313.2163-.1956 0-.2649-.1245-.3713-.6485-.6023-.0566-.0202-.1104-.0468-.1604-.0792-.0629-.0408-.1197-.0905-.1688-.148-.0881-.1031-.1476-.2276-.1727-.3609 0-.0767.0257-.2115.0539-.3599.0355-.1863.0749-.3939.0727-.5335-.004-.2509-.1626-.7508-1.4052-1.0037-1.1484-.24093-1.0861-1.60597-1.0861-1.60597s.0301-.23486.2308-.23878c.0236-.00059.0657-.00216.1217-.0049l.1028-.00471c.4858-.02293 1.5332-.07253 1.6826.00961.1827.10037.8753 1.89494.8934 2.76615 0 .1596-.0407.2941-.0792.4215-.0178.0584-.035.1155-.0477.1727-.013.0594-.0211.119-.0197.1808.006.2509.3031.4697.9174.4838v-.0081Zm-1.7625-2.70612c.1205-.3513-.9757-.76671-1.0278-.45971-.0763.42972.7748.6385 1.0278.45971Zm3.5773-.18271c.277.26505 1.3269-.02999 1.082-.41345-.1505-.23486-1.359.14645-1.082.41345ZM1.15625 45.682c0-4.8321.92346-9.5516 1.72644-11.8984.4015-1.1723.94757-1.6199 1.47953-1.6199.99972 0 1.06392.8932 1.06392 2.457v11.005c0 1.624-.01402 3.212-.85719 3.4127v.2229h3.12764v-.2509c-.83102-.251-.84307-1.7044-.84307-3.212V34.5425c0-1.5117.01205-3.1337.84307-3.4127v-.2509H1.98737v.2509c.53196.1406.4658 1.5095.2329 2.2082C.351307 39.0915 0 46.8482 0 49.2572h2.31055v-.2509c-.88121-.1947-1.1543-1.9191-1.1543-3.3243ZM12.2234 32.9748l1.4393 8.9373c-.6745-1.5076-1.6601-2.2625-2.6216-2.2343l1.1823-6.703Zm-2.1279 12.5407.7428-4.4427c2.0877.0845 3.5672 3.4369 3.5672 5.9783 0 .9777-.1686 1.7305-.6363 1.9554v.2509h2.947v-.2509c-.52-.279-.6023-1.034-.7911-2.0397L13.705 33.2257c-.0661-.3599-.105-.7242-.1165-1.09 0-.5581.1426-.8651.3754-1.0037v-.251h-2.8807v.251c.2208.0843.4015.4015.4015.8953-.0208.5448-.0879 1.0867-.2007 1.6201L9.21219 45.5155c-.1486.8769-.34974 1.7446-.60224 2.5976-.20074.5862-.36336.7528-.67448.8934v.2509h2.65583v-.2509c-.3773-.0563-.71462-.6142-.71462-1.5076.01362-.6656.08077-1.3288.20072-1.9834h.0181Zm10.0152 3.7417v-.2388c-.8311-.1727-.8451-1.8208-.8451-3.4127V37.339h3.8684v8.4473l-.0006.0735c-.0137 1.5636-.0263 3.0002-.8426 3.1384v.251h3.1136v-.251c-.8151-.2248-.8289-1.7943-.8425-3.3333l-.0006-.0794V34.3318l.0006-.0716c.0136-1.5089.0262-2.9191.8425-3.1404v-.2509h-3.1136v.2509c.8164.14.8292 1.6897.8419 3.2586l.0013.1541v1.4515h-3.8684v-1.6462c0-1.5638.014-3.0112.8451-3.2119v-.2509h-3.1156v.2509c.8312.2568.8432 1.8769.8432 3.4127v11.2557c0 1.5078-.012 2.961-.8432 3.212v.2509h3.1156Zm11.0691-.2507v.2509h-3.1156v-.2509c.8312-.0563.8452-1.5358.8452-3.212V32.3323c-1.5838 0-2.5716 1.0883-3.0634 3.7983l-.1164-.0845.6344-5.5324c.1686.4757.5199.3632.7668.3632h4.9825c.2469 0 .6022.1125.7669-.3632l.6364 5.5305-.1185.0843c-.4918-2.7101-1.4795-3.7981-3.0613-3.7981v13.2955c0 1.7022.0119 3.3223.843 3.3786v.002Zm7.5422-7.0944-1.4304-8.9313-1.1794 6.697c.9496-.0282 1.9353.7267 2.6098 2.2343Zm-2.8105-.8393-.7488 4.4427c-.12.6546-.187 1.3178-.2007 1.9834 0 .8934.3373 1.4513.7146 1.5076v.2509h-2.6478v-.2509c.3111-.1406.4737-.3072.6745-.8934.2425-.8528.4328-1.7195.5702-2.5956l2.0897-11.8701c.0507-.2394.0921-.4805.1243-.7228.0196-.1474.0357-.2955.0484-.4437.0129-.1509.0222-.3021.028-.4536 0-.4938-.1826-.811-.4015-.8953v-.251h2.8808v.251c-.2329.1386-.3774.4456-.3774 1.0037.0114.3658.0504.7301.1164 1.09l2.2203 13.7411.0235.1267.0314.1719c.1554.8555.2707 1.4905.736 1.7411v.2509h-2.9489v-.2509c.4657-.2249.6363-.9777.6363-1.9554 0-2.5414-1.4795-5.8938-3.5693-5.9783Zm30.6661 4.8862v-7.5019c2.981 0 4.0832 2.8306 4.0832 5.4925 0 2.2905-1.0319 4.1313-2.8507 4.1313-1.2397 0-1.2396-.0243-1.2335-1.712.0005-.127.001-.2635.001-.4099Zm-1.5759-11.6915v11.6052c0 1.5297-.0141 3.0112-.9315 3.2561v.255h4.2839c2.7804 0 3.9688-2.0376 3.9688-5.3499 0-3.4829-1.8489-6.8495-5.7453-6.8495v-2.7182c0-.2958-.0054-.5524-.0101-.7751-.0296-1.3984-.0309-1.4611 1.5136-1.4611 1.7485 0 2.8386 1.1041 3.3826 3.8503l.1286-.0843-.7027-5.6049c-.1847.4819-.5721.3674-.8431.3674h-5.9622v.2549c.9174.255.9174 1.8067.9174 3.2541Zm14.227 7.6707-1.592-9.0558-1.3028 6.7933c1.0599-.0302 2.1479.7347 2.8948 2.2625Zm-3.1097-.8473-.8311 4.4987v.002c-.1341.6613-.2105 1.3331-.2287 2.0075 0 .9055.3713 1.4736.7869 1.5297v.255h-2.9229v-.255c.3432-.1425.53-.3051.7447-.9073.046-.1453.0903-.2911.1331-.4374.1174-.402.2227-.8077.3155-1.216.0344-.1514.0671-.3031.0982-.4552.0355-.1739.0687-.3484.0997-.5233l2.3065-12.0287c.1227-.5393.1946-1.0892.2149-1.642 0-.504-.2008-.821-.4457-.9055v-.2549h3.1818v.2549c-.2589.1427-.4156.4538-.4156 1.0198.0073.1954.0226.3905.046.5846.021.1741.0484.3474.0825.5195l2.4511 13.9258.0385.1856.0339.1675c.1697.8402.2953 1.4632.8009 1.7126v.255h-3.2521v-.255c.5159-.2268.7006-.9916.7006-1.9814 0-2.5756-1.632-5.9722-3.9387-6.0565Zm10.8725 8.0381v.2548h-3.6134v-.2548c.9656-.2551.9796-1.7266.9796-3.2563V34.4664c0-1.5557-.014-3.198-.9796-3.4528v-.2551h3.6134v.2551c-.9656.2007-.9796 1.6702-.9796 3.2541v1.6661h4.5027v-1.4715l-.0015-.1523c-.0145-1.5915-.0288-3.1621-.9781-3.3006v-.2548h3.6134v.2548c-.9487.2235-.9633 1.6537-.9789 3.1826l-.0007.0717V45.672l.0009.0794c.0155 1.5591.0313 3.1504.9787 3.3735v.2589H89.535v-.2548c.9492-.1404.9634-1.5976.979-3.1839l.0006-.0724v-8.5758h-4.5027v8.3792c0 1.606.014 3.2821.9796 3.4529Zm7.3132-18.3705v.2549c.9455.283.9615 1.8971.9615 3.4528v11.4065c0 1.5297-.016 2.973-.9615 3.2561v.255h3.5431v-.255c-.9455-.1706-.9595-1.8469-.9595-3.4529v-6.1708l1.4052-2.15c.7896 1.6458 1.4558 3.3482 1.9935 5.093.383 1.3027 1.078 4.0751 1.078 5.5766 0 .6224-.207 1.0198-.516 1.1041v.255h3.246v-.255c-.605-.1519-.846-1.3374-1.049-2.3353-.025-.1217-.049-.2407-.073-.3546l-.281-1.3009c-.767-3.6797-1.743-6.8515-3.2643-9.5957l1.1083-1.7546c.063-.0976.126-.1954.188-.2928.772-1.2026 1.508-2.3496 2.574-2.4815v-.2549h-3.5592v.2549c.2389.0562.4012.1707.4012.6787 0 .9682-1.3247 3.0492-1.8634 3.8949l-.1156.1821-1.2707 1.9534v-3.4548c0-1.5841.0141-3.0836.9596-3.2543v-.2549h-3.5452Z"/>
</svg>