<svg xmlns="http://www.w3.org/2000/svg" viewBox="0 0 170 22.8">
	<path fill="#003869" d="M33.8 18.3L35.5 7h3.3l1.9 6.6L42.6 7h3.3l1.6 11.2h-3.2l-.8-6.1-1.8 6.1h-2.2l-1.8-6.1-.7 6.2h-3.2zm74.4-14.1c2.1-.4 3.9.5 4.9 2.9.5-1.2 1.3-2.4 2.3-3.2s2.3-1.5 3.6-1.8c-2.9-.6-4.9.3-6.1 1.6-1.8-.7-3.4-.8-4.7.5zm51.3 14.1V7h3.3v4.5L166 7h3.8l-4.3 5.4 4.3 5.8h-4.1l-3.1-4.6v4.6h-3.1v.1zm-12.2 0V7h3.3v4h3.7V7h3.3v11.2h-3.3v-4.5h-3.7v4.5h-3.3zm-12.9 0l4-11.2h4l4 11.2h-3.5l-.6-1.9h-3.7l-.6 1.9h-3.6zm5.9-8.4l-1.2 4h2.4l-1.2-4zm-15.8 8.4V7h8.5v2.7h-5.2v1.7h2.6c.4 0 .8.1 1.1.2.6.2 1.2.5 1.6 1 .3.3.5.6.6 1 .1.4.2.8.1 1.2 0 .4 0 .8-.1 1.2-.1.4-.3.7-.6 1-.5.5-1 .8-1.6 1-.4.1-.8.2-1.2.2H124.5v.1zm3.3-2.3h1.2c.4 0 .8-.1 1.1-.3.2-.1.3-.2.4-.4.1-.2.1-.3.1-.5s0-.4-.1-.5c-.1-.2-.2-.3-.3-.4-.4-.2-.8-.3-1.2-.3h-1.2V16zm-19.6-9h3v6.5l4.2-6.5h3.3v11.2h-3.2v-6.5l-4.1 6.5h-3.3V7h.1zm-7.9 11.6c-2 0-3.5-.6-4.5-1.8-1-1.2-1.6-2.6-1.5-4.2 0-1.5.5-3 1.5-4.2 1-1.2 2.5-1.8 4.5-1.8h.2c2 0 3.5.6 4.5 1.8 1 1.2 1.5 2.6 1.5 4.2 0 1.5-.5 3-1.5 4.1-1 1.2-2.5 1.8-4.5 1.8 0 .1-.2.1-.2.1zm.1-2.7h.3c.1 0 .2 0 .4-.1.6-.2 1-.5 1.4-.9.5-.6.7-1.4.6-2.2.1-.8-.2-1.6-.6-2.2-.4-.4-.8-.8-1.4-.9-.1 0-.2-.1-.3-.1h-.7c-.1 0-.2.1-.4.1-.5.2-1 .5-1.4 1-.4.6-.7 1.4-.6 2.2-.1.8.2 1.5.6 2.2.4.4.8.8 1.4 1 .1 0 .2.1.4.1.1-.2.2-.2.3-.2zm-17 2.4V7h3.3v4.5L89.9 7h3.9l-4.3 5.4 4.4 5.8h-4.1l-3.1-4.6v4.6l-3.3.1zm-1.8-.5c-.2.1-.4.3-.7.4-.2.1-.4.2-.7.2-.3.1-.6.1-.9.2h-1c-1.5 0-3-.5-4.1-1.6-.6-.6-1-1.2-1.3-2-.3-.8-.4-1.6-.4-2.4 0-2 .6-3.4 1.8-4.4 1.1-1 2.5-1.5 3.9-1.5h.8c.2 0 .4.1.6.1.3.1.6.2 1 .3.3.1.6.3.9.5v3.3h-.2c-.1-.1-.1-.2-.2-.2s-.2-.2-.3-.3l-.9-.6c-.4-.2-.8-.3-1.2-.3-.4 0-.8.1-1.1.3-.4.2-.7.4-.9.7-.5.6-.8 1.4-.7 2.2 0 .4 0 .8.1 1.1.1.4.3.7.6 1 .3.3.6.5.9.7s.7.2 1.1.2c.5 0 1-.1 1.5-.4.4-.2.8-.5 1.1-.8h.2l.1 3.3zm-19.4.5V7h4.9c1-.1 1.9.2 2.7.8.5.4 1 1 1.2 1.7.1.2.1.4.2.7v1.2c0 .2-.1.4-.2.7-.2.7-.6 1.3-1.2 1.7-.8.6-1.7.9-2.7.8h-1.6v3.7h-3.3c0-.1 0 0 0 0zm3.3-8.8v2.6h.7c.4 0 .7-.1 1-.2.2-.1.3-.3.4-.5 0-.1.1-.2.1-.3v-.7c-.1-.2-.2-.4-.4-.6-.3-.2-.7-.3-1.1-.3h-.7zm-11 9.1c-2 0-3.5-.6-4.5-1.8-1-1.2-1.6-2.6-1.5-4.2 0-1.5.5-3 1.5-4.2 1-1.2 2.5-1.8 4.5-1.8h.2c2 0 3.5.6 4.5 1.8 1 1.2 1.5 2.6 1.5 4.2 0 1.5-.5 3-1.5 4.1-1 1.2-2.5 1.8-4.5 1.8-.1.1-.2.1-.2.1zm-32.3-3.8c-.3.9-.7 1.7-1.2 2.5-4.4-.4-8.9.3-13 2.2l.4-3.2c4.5-1.6 9.2-2.1 13.8-1.5zm.5-3.5c0 .8-.1 1.6-.2 2.4-4.7-.6-9.5 0-13.9 1.7l.4-2.7c4.4-1.6 9.1-2.1 13.7-1.4zm-.4-3.1c.2.7.3 1.4.4 2-4.6-.7-9.2-.2-13.5 1.5l.3-2.4c4.1-1.4 8.4-1.8 12.8-1.1zm-1.6-3.4c.5.7.9 1.4 1.2 2.1-4.1-.5-8.3 0-12.3 1.4L9.9 6c3.5-1 7.2-1.4 10.8-1.2zM17.8 2c.8.6 1.6 1.2 2.2 2-3.4-.2-6.8.3-10 1.4l.3-2.2c2.5-.8 4.9-1.2 7.5-1.2zm-6.4-2c1.9 0 3.8.5 5.4 1.4-2.2.2-4.3.6-6.4 1.3l.3-2C8.2.8 5.9 1.8 4.1 3.5 2.3 5.2 1.1 7.4.8 9.9c-.3 2.4.2 4.9 1.5 7.1 1.3 2.1 3.3 3.7 5.6 4.6l.1-1.3c3.9-1.7 8.2-2.4 12.5-2-1.2 1.5-2.7 2.8-4.5 3.5-1.8.8-3.7 1.1-5.6.9-1.9-.2-3.8-.8-5.4-1.9-1.6-1.1-2.9-2.6-3.8-4.3-.9-1.7-1.3-3.7-1.2-5.6.1-2 .7-3.9 1.7-5.5s2.4-3 4.1-3.9C7.5.5 9.4 0 11.4 0zm43.1 15.9h.3c.1 0 .2 0 .4-.1.6-.2 1-.5 1.4-.9.5-.6.7-1.4.6-2.2.1-.8-.2-1.6-.6-2.2-.4-.4-.9-.8-1.4-.9-.1 0-.2-.1-.3-.1h-.7c-.1 0-.3.1-.4.1-.5.2-1 .5-1.4 1-.4.6-.7 1.4-.6 2.2-.1.8.2 1.5.6 2.2.4.4.8.8 1.4 1 .1 0 .2.1.4.1.1-.2.2-.2.3-.2z"/>
</svg>