<svg xmlns="http://www.w3.org/2000/svg" viewBox="0 0 110 46">
	<path fill="#000" d="M109.925 1.33655C108.569.602448 107.09.160759 105.556.0373843 98.3927-.53666 92.0838 5.58018 92.941 12.8806c.8217 6.987 8.016 12.0086 14.878 9.8614.693-.2173 1.407-.5034 2.14-.8587.038-.0182.05-.0465.035-.0852-.148-.3751-.48-.9635-.745-1.1708-.209-.1645-.468-.1805-.775-.0481-1.343.5773-2.71.8549-4.101.8328-4.9038-.075-9.2732-4.0467-9.6492-8.9977-.3965-5.18747 3.4217-9.93074 8.6322-10.55221 1.787-.21349 3.442.09494 5.129.77977.772.31337 1.248-.54049 1.49-1.16844.019-.05014-.003-.11134-.05-.13687ZM15.1412 11.8036c-.3438.5642-.6871 1.1424-1.0301 1.7347-.0666.1142-.134.1152-.2024.0024-2.2848-3.77772-4.55739-7.54473-6.81764-11.30101-.31585-.52567-.63332-1.03314-.95242-1.522543C6.07816.625362 5.98681.596956 5.88449.65546c-.04211.023976-.08946.049759-.14031.07747-.45277.247231-1.18494.64675-.9997 1.21675.07575.23269.17639.45362.30229.66254C7.79968 7.16309 10.5077 11.6432 13.171 16.0527c.3445.5705 1.1045.9334 1.5483.1973 2.5308-4.1741 4.9794-8.22414 7.3457-12.14982.0963-.15964.1625-.14808.1986.03446.2451 1.2453.4948 2.47495.7489 3.68893.9952 4.76133 1.9909 9.52243 2.9869 14.28293.0654.3122.2072.7193.586.7317.4483.0156.9093.0173 1.3831.005.0839-.0024.1172-.0453.0999-.1283l-1.7819-8.5324c-.8847-4.23699-1.7691-8.47496-2.6534-12.7139-.0543-.25663-.1147-.493982-.1814-.711935-.2072-.6760275-.9623-.874703-1.425-.284941-.1241.157109-.2352.317472-.333.481087-1.7709 2.961819-3.955 6.578709-6.5525 10.850789Zm45.0316 3.5124c-.0647-.0005-.1185.0547-.1185.1185l-.0024 6.5253c0 .3861-.1332.7945-.5811.8451-.389.0444-.7834.0572-1.1831.0383-.0568-.0026-.0852-.0326-.0852-.0901l.0012-14.68399c0-.0863.0686-.15911.1543-.16542.2394-.01771.4601-.01674.6622.00289.145.01412.2891.03856.4296.07735.5737.15796.6021.83531.6021 1.32387l.0062 4.0688c.0008.2212.1122.3331.3343.3356.9936.0139 1.9617-.0321 2.9043-.1381 1.7642-.1987 3.4988-1.5003 4.2712-3.0857 1.6347-3.35206-.1814-7.09521-3.721-8.09582-.3192-.09048-.751-.13687-1.2954-.1394-1.1309-.0041-2.2619-.0106-3.3928-.01976-.8957-.00614-1.0586-.82037-.9352-1.530972.0176-.100473.1065-.176238.2085-.177712 1.1153-.015662 2.1986-.02265 3.2497-.020964 2.528.004585 4.986.895518 6.5746 2.948688 1.156 1.49399 1.7149 3.23978 1.5348 5.12497-.3034 3.19637-2.7931 6.05637-5.9935 6.59917-1.2042.2048-2.433.1518-3.6248.1394Zm20.6824-3.2125c.1241.1703.2619.3429.2838.5601.0064.0635-.0102.1275-.0469.1801-2.1022 2.97-4.1831 5.9162-6.2427 8.8385-.0873.1233-.1658.2561-.2356.3984-.0189.0396-.0128.075.0185.1062.3248.3232.6925.5618 1.1029.7155.534.1998.8818-.3124 1.145-.6896 2.1518-3.0677 4.4294-6.0719 6.4793-9.2085.0802-.1225.1584-.2455.2347-.369.0485-.0782.0456-.1543-.0087-.2282-2.6956-3.70133-5.3873-7.4057-8.0587-11.12455-.2721-.380121-.4976-.695183-.9907-.749039-.5856-.064217-1.1984-.063735-1.8384.001205-.0764.00818-.1039.049027-.0826.122169.0353.117271.0987.22463.1703.323255 2.6722 3.67978 5.3622 7.38763 8.0698 11.12346ZM89.4631.928112c.1936-.267712.4404-.370122.7526-.402171.6127-.06253 1.2398-.053856 1.8814.025904.0502.006626.0625.031205.037.073976-.1061.180122-.2196.354942-.3405.524339-1.4986 2.09989-3.007 4.22605-4.5254 6.37847-.0367.05167-.1157.05569-.1567.00747-.3314-.38988-.6378-.80362-.9191-1.24121-.1662-.2582-.1485-.52675.0531-.80567 1.0938-1.50457 2.1275-3.05325 3.2176-4.561108ZM33.7522.518592c-.4729 0-.7591.206387-.8587.619278-.088.3635-.123.73531-.1048 1.11531.0025.06078.0546.11108.1159.11108l4.0401.00133c2.0177.00048 4.0128.00036 5.9853-.00012.3257 0 .7785-.03699.8661-.43181.0945-.4253.1279-.86037.0999-1.305309-.0038-.062254-.0577-.111085-.1196-.111085C40.683.51317 37.3416.513652 33.7522.518592Zm.9981 9.987208c1.5504.0049 3.2328.002 5.0472-.0087 2.5089-.0139 4.887.8254 6.2366 3.0819.7032 1.1762.9717 2.4864.8056 3.9306-.2913 2.5321-2.2854 4.7465-4.8103 5.2361-.4171.0806-.978.1184-1.6829.1135-2.5094-.0181-5.0049-.021-7.4863-.0087-.0385 0-.0728-.0346-.0728-.074V8.06911c0-.09752.053-.16368.158-.17277.4503-.03819 1.3706.00494 1.5359.57868.1839.64157.1703 1.25591.1542 1.91348-.0016.0781.0366.1173.1148.1173Zm-.1197 1.8061.0148 8.7522c0 .0384.032.0703.0703.0703l5.922-.0099c2.3935-.0039 4.5083-1.9319 4.5044-4.3699v-.1677c-.0041-2.4106-2.1274-4.3595-4.5192-4.3551l-5.922.0099c-.0373 0-.0703.0329-.0703.0702ZM3.85821 10.6417c-.58771-.1247-1.30844-.2776-1.53681.4735-.05428.1792-.10115.368-.14061.5662L.776628 18.7086c-.259519 1.3003-.517713 2.5955-.77464255 3.8853-.01103017.0569.02508015.1092.07897635.1234.5958462.1382 1.6494682.3529 1.8172982-.4453.71061-3.3829 1.43483-6.9518 2.1726-10.7065.04193-.2106.07404-.4207.09621-.6305.00989-.0934-.03547-.1864-.11452-.2366-.05758-.0364-.12898-.0431-.19434-.0567ZM29.085 32.3984c.0032-.1645.1246-.2541.2504-.2541 17.332 0 31.8986.0123 52.3378.0123.1554 0 .2171.0867.2196.2307l.0037.2468c.0016.1365-.0658.2048-.2023.2048l-52.3822-.0013c-.158 0-.2353-.0786-.232-.2356l.005-.2036ZM14.5984 43.581c-.0321.0469-.0736.0831-.1247.1085-.0559.028-.0838.0108-.0838-.0518l.0172-3.3052c.0017-.2203-.1077-.3335-.3281-.3392l-.2048-.005c-.2196-.0049-.3299.1021-.3307.3209l-.0111 4.8325c0 .0869.072.1604.1592.1604l.565-.0025c.0797.0005.1446-.069.1419-.148-.0041-.1184.0243-.222.0851-.311.677-.982 1.3933-2.0106 2.1492-3.0855.0217-.0307.0709-.0195.0778.0172.032.1653.0476.3262.0468.4824-.0049.9541-.0078 1.9123-.0086 2.8746 0 .1169.0584.1748.1751.174l.5072-.0024c.12-.0009.1801-.0617.1801-.1827-.0009-1.5503.0016-3.1097.0074-4.6783.0012-.2406-.0407-.4231-.3294-.4577-.4346-.0524-.4793.134-.5338.3607-.0262.1093-.0546.228-.13.3339-.7098.9977-1.3855 1.9658-2.027 2.9042Zm6.2291-.4477c-.0076.3789-.0114.7524-.0115 1.1206 0 .3071.0026.6105.0078.9101.0017.0897-.0419.1345-.1308.1345l-.5811.0024c-.1036.0008-.1554-.0505-.1554-.1542V40.271c.0008-.1859.0937-.2788.2788-.2788l.3504-.0013c.1546-.0008.2319.0765.2319.232l.0013 1.8111c0 .1266.0633.1895.19.1888l2.0159-.0148c.0711-.0008.1301-.0599.1308-.1309l.0284-1.9172c.0014-.1115.0656-.1813.1838-.1813h.3577c.1169.0008.1752.0592.1752.1751l.0026 4.993c0 .1037-.0515.1555-.1543.1555l-.4294-.0013c-.0934 0-.1554-.0521-.1554-.1542v-2.0061c0-.1348-.0675-.2014-.2023-.1999-.6219.0107-1.2436.0091-1.8654-.0012-.1268-.0019-.2664.0467-.269.1938Zm12.0857.106c.001-.0781-.0018-.2825.1197-.2825l2.0616-.0135c.0875 0 .1604.0722.1604.1603v2.0579c.0006.0761.0636.1394.1394.1394l.5737-.0012c.0978 0 .1472-.0489.148-.1468.0041-1.4632.0045-2.9553.0013-4.476 0-.19-.0128-.394-.0383-.5602-.0115-.074-.0547-.1147-.1295-.1221l-.5021-.0222c-.1243-.0124-.1867.044-.1876.1691l-.0099 1.9184c-.0006.0794-.0666.1463-.1468.1467l-2.0652.0125c-.068.0005-.1247-.0556-.1247-.1234l-.011-1.9469c-.0009-.097-.0494-.1723-.1456-.1764h-.4355c-.0813-.0043-.1506.0858-.1506.1665l.0038 5.0263c-.0003.0757.0643.1375.1394.137l.4453-.0025c.0971-.0009.1456-.0501.1456-.1481-.0017-.3278-.0017-.6546-.0002-.9802.0015-.3116.0044-.6223.0088-.9321Zm7.8269 1.4362c.4824-.1333.7328-.6343.8217-1.1203.0123-.0675.0526-.1053.1209-.1135.1637-.0206.3285-.0107.4947.0297.0737.0185.1256.0873.1222.1641-.0358.7808-.5861 1.679-1.4349 1.7802-1.3037.1563-2.1582-.3849-2.5637-1.6236-.1192-.3652-.1538-.8916-.1036-1.5792.0559-.7757.3775-1.3983.9647-1.8679.3973-.3182.9459-.44 1.6459-.3652.8179.0889 1.325.7661 1.4287 1.5644.0046.0358-.0106.0694-.0383.0912-.1728.1259-.6601.1716-.7366-.0998-.1036-.3714-.2023-.6835-.6378-.7785-1.7889-.3936-1.932 1.6359-1.6828 2.8339.1591.7661.8217 1.2978 1.5989 1.0845Zm5.0719-4.6574c-1.6433.38-2.0406 2.2799-1.6606 3.6963.158.5889.5203 1.0761 1.087 1.4619.1891.1292.3956.2093.6193.2406 1.9506.2701 2.7624-1.1536 2.75-2.8451-.0111-1.5693-1.0597-2.9547-2.7957-2.5537Zm1.7101 1.4916c.3219.8118.3096 1.8579-.1444 2.645-.2369.4114-.6214.5956-1.1535.5528-.6108-.0494-1.029-.4984-1.198-1.0746-.2254-.7666-.2036-1.4636.0654-2.0912.47-1.103 1.9629-1.2152 2.4305-.032Zm5.7911.9363c-.0708.037-.0691.0711.0049.1025.686.2849.9919.7118.9586 1.4459-.0394.8747-.7341 1.3237-1.594 1.3164-.6415-.005-1.2835-.0091-1.9258-.0123-.0256 0-.0501-.0104-.0681-.0286-.0057-.0058-.0106-.0123-.0147-.0191-.0087-.015-.0135-.0322-.0135-.0498l.0185-5.0091c.0009-.1077.0547-.1665.1616-.1763.6597-.0643 1.3757-.0338 2.148.0913.7674.1234 1.1178.8895 1.0055 1.589-.0642.3985-.3541.575-.681.7501Zm-1.7791-1.5225v1.1129c0 .1058.0887.1937.1937.1937h.6366c.4027 0 .8056-.2982.8056-.7267v-.0469c0-.4279-.4032-.7266-.8056-.7266h-.6366c-.1058 0-.1937.089-.1937.1936Zm-.0049 2.1875.0148 1.4188c.0005.0864.0734.1588.1604.1579l.8673-.0098c.447-.0048.8522-.3603.8476-.8205l-.0013-.1135c-.0046-.4601-.4167-.8074-.8636-.8032l-.8673.0099c-.0866 0-.1587.0737-.1579.1604Zm7.0866-.9303c-.4689-.1061-.8229-.0678-1.2572-.0937-.0913-.0049-.1373-.0526-.1382-.1431l-.0173-1.7223c-.0016-.1268-.0653-.1958-.1912-.2074l-.4626-.0419c-.1317-.0123-.1974.0473-.1974.1789l-.0025 5.0497c0 .0466.0406.0882.0876.0901.593.0205 1.2082.0278 1.8457.0222.667-.0058 1.1297-.2509 1.3879-.7353.5182-.9746.0556-2.1468-1.0548-2.3972Zm-1.4015 2.3466-.0099-1.5669c-.0008-.0738.0604-.1369.1345-.1369l.6489-.0037c.4587-.0029 1.0078.2884 1.0117.8044l.0024.2146c.0037.5119-.5417.8164-1.0018.8193l-.6489.0036c-.0739.0014-.1364-.0609-.1369-.1344Zm16.3606-1.8493c.0724-.1094.1349-.2254.1875-.348.1284-.2991.2572-.5981.3864-.8966.1813-.4186.3634-.8365.5464-1.2537.0524-.1197.1745-.1975.3059-.1938l.4035.0124c.2097.0057.2664.102.1702.2887-.38.7304-.7287 1.4509-1.0462 2.1615-.1632.3653-.3399.7213-.5159 1.0759-.2751.5542-.5485 1.1049-.766 1.6827-.0254.0665-.0933.1127-.1641.111l-.7303-.0222c-.034-.001-.0571-.0363-.0457-.0678.1004-.2791.2879-.517.4358-.7713.098-.1683.1871-.3376.2674-.5081.0938-.1961.0444-.3948-.0444-.5799-.477-1.0042-.9524-2.0491-1.4262-3.1349-.0248-.0591-.0421-.1343.0164-.1816.0677-.0548.1828-.0533.2651-.0618.1042-.0107.2082-.0155.312-.0145.1244.0015.2398.0772.2899.1912.3068.6992.6029 1.4106.8883 2.1345.0468.1209.1085.2459.185.3751.0247.0427.0511.0431.079.0012Zm6.133 2.0072c-.5428.1099-1.1092-.0999-1.3892-.5637-.3693-.612-.4656-1.3115-.2887-2.0987.1813-.8069.5675-1.3965 1.5224-1.3127.5325.0468.7206.4502.9147.867l.002.004c.023.0494.0601.084.111.1037.1308.0518.2686.0667.4133.0444.093-.0148.1444-.0687.1543-.1616.0481-.4294-.2431-.8982-.5281-1.1918-.1875-.1941-.4219-.3142-.7032-.3602-.6724-.1098-1.4768-.0531-1.9851.4454-.9734.9524-1.0672 2.5341-.5367 3.7295.4614 1.0376 1.6261 1.5064 2.7069 1.1462.7106-.2369 1.0128-.9192 1.1707-1.6237.0371-.1644-.0283-.2529-.1961-.2651l-.2677-.0186c-.1703-.0123-.2764.0637-.3183.2282-.1024.4059-.3294.9365-.7822 1.0277Zm11.0691-1.9973 1.0474-2.4083c.0765-.1759.2563-.2908.4478-.2886l.2801.0024c.0713.0008.1244.0131.1593.0367.0806.0546.0458.1656.011.2385-.1874.3938-.3719.7896-.5567 1.1864-.3292.7109-.6621 1.4205-1.0102 2.1224-.2459.4952-.4737.9977-.6835 1.5077-.0546.1336-.1889.2222-.3331.2207l-.438-.0061c-.1562-.0016-.1982-.0716-.1258-.2098l.6144-1.1843c.0607-.1176.064-.2621.0086-.3838l-1.5002-3.273c-.0692-.1515-.0133-.2486.1567-.2542l.433-.0123c.167-.0049.2797.0707.3381.227.0784.2051.1665.4058.2562.6063l.0005.001c.2799.625.4809 1.2788.824 1.875.0263.0459.0497.0449.0704-.0037Zm11.918-.9882c.115-.158.173-.1391.173.0567l-.005 3.3903c0 .1044.052.1567.156.1567l.44-.0012c.088-.0008.133-.0457.133-.1346l.017-5.0471c-.002-.0562-.037-.1058-.095-.1184-.138-.0297-.303-.0326-.496-.0087-.077.009-.122.0526-.133.1307-.028.1958-.091.3652-.189.5083-.273.3986-.569.8254-.887 1.2808-.387.5536-.806 1.149-1.258 1.7863-.027.037-.053.037-.078 0-.061-.0872-.091-.1821-.09-.285.005-.6671.009-1.3232.011-1.968.001-.4334.001-.8667.001-1.3001 0-.0972-.056-.1605-.16-.1629l-.3666-.0073c-.1406-.0026-.2109.0665-.2109.2072l-.0062 4.983c0 .0812.0683.1479.1492.1469l.4555-.0049c.047-.0009.08-.0239.096-.0692.054-.1455.095-.2739.185-.4046.362-.5279.722-1.0461 1.081-1.5546.366-.5205.701-1.0666 1.077-1.5803ZM8.5901 40.3845l.03699-.3147c.00548-.0422.04234-.075.08512-.0752l.45772-.0037c.11088-.0012.19765.1045.17644.2134-.01644.0831-.00825.1596.02464.2294.01566.0338.04199.0503.07898.0494.44578-.0074.89121.1444 1.33611.4552.3003.2098.5153.501.6453.8735.5243 1.5003-.2875 3.0067-1.9296 3.114-.12748.0082-.18133.0748-.16163.1999.01403.0912-.05654.1768-.14928.1789-.16446.0041-.31295-.0025-.44536-.0197-.10664-.0145-.15458-.0911-.14187-.1962.00791-.0746-.04676-.1432-.12091-.1518-1.30121-.1481-2.00892-.8147-2.12326-1.9999-.13452-1.3916.74392-2.402 2.13067-2.46.05029-.0022.09465-.0432.09994-.0925Zm0 3.8331.01476-3.0325c0-.0284-.02604-.0295-.04686-.0295-.78571-.0047-1.3949.6815-1.39905 1.4459v.185c-.00406.7642.59876 1.4562 1.38176 1.4608.02136 0 .04939-.0008.04939-.0297Zm.76368-2.9092-.01235 2.7242c.00344.0859.06506.1592.15296.1666.44415.0353.77971-.1506 1.00671-.5577.3171-.5675.3936-1.6853-.2146-2.1664-.2179-.1712-.47577-.2809-.74892-.3233-.0959-.0153-.18059.0605-.1838.1566Zm18.03842 2.7599c.4894-.0163.9685-.016 1.4374.0013.1033.0046.195.0778.2209.1777l.2281.8956c.0229.0903.1067.1557.1999.1555l.5898.0013c.1078.0007.1443-.0503.1097-.153l-1.7235-5.0461c-.0255-.0732-.0769-.1097-.1542-.1097l-.5021.0012c-.1053.0008-.1752.051-.2097.1506l-1.7088 4.9879c-.037.1094.0025.165.1184.1665l.5491.005c.1036.0017.1698-.0477.1986-.1481l.2739-.9561c.0397-.1299.2742-.1259.3725-.1296Zm-.053-.8216c.1226-.417.257-.8422.4035-1.2757.0674-.2007.1286-.4158.1838-.6452.0255-.1111.072-.1205.1394-.0284.0723.1003.1254.2082.1591.3244.1621.5642.3274 1.1166.496 1.657.0264.084-.038.1715-.1259.1715l-1.1029.0012c-.1063.0005-.1819-.1048-.153-.2048Zm33.1864 2.053c-.0454 0-.0856-.0397-.0864-.0852l-.0086-4.9214c-.0005-.1312.0791-.3028.2307-.3035h.3899c.151-.0019.2328.1702.2332.3011l.0086 4.9214c.0008.0471-.0394.0876-.0864.0876h-.681Zm4.1688-4.5476 1.9901-.0235c.0815-.0013.1496-.0679.153-.1493l.016-.4059c.0041-.1103-.049-.1657-.1592-.1665l-2.8437-.0198c-.0521 0-.0963.0434-.0963.0963v5.1262c0 .0518.044.0937.095.0937l2.9758-.0074c.0912 0 .1378-.0455.1394-.1369l.0037-.2962c.0007-.0911-.074-.1687-.1653-.1702l-2.085-.0234c-.1061-.0014-.1974-.0837-.2085-.19-.0445-.44-.0445-.8772 0-1.3115.0123-.1233.0806-.1863.2048-.1888l1.8815-.0308c.0789-.0008.1188-.0407.1196-.1196l.0037-.4874c0-.0678-.0567-.1246-.1246-.1246l-1.9826-.0037c-.0576.0002-.1055-.0448-.1111-.1012-.0361-.3948-.0358-.7888.0013-1.1819.0088-.0987.0937-.1762.1924-.1776Zm21.1501-.0123c-.3956-.0411-.7892-.0362-1.1807.0148-.0292.0037-.0521.0279-.0555.0567-.1061.927-.1986 1.9202-.2776 2.9795-.0189.26-.0662.5355-.1419.8266-.1549.5965-.6443.6638-1.1523.734l-.0901.0124c-.0486.0066-.0723-.0144-.0716-.0629l.005-.4601c.0009-.0427.018-.0774.0518-.1037.1188-.0909.2686-.1389.3829-.2351.0796-.067.137-.1622.1587-.3423.0937-.7447.1511-1.4941.2156-2.2417.0519-.6017.0844-1.2068.1694-1.805.0096-.0668.0699-.1184.1369-.1184h2.7081c.0673 0 .1253.0564.1245.1246l-.011 5.0472c0 .0905-.0453.1357-.1358.1357l-.5638.0013c-.0937 0-.1414-.0469-.1431-.1407-.023-1.32-.0234-2.6073-.0012-3.8616.0025-.1522-.0083-.3084-.0321-.4688-.009-.0558-.0411-.0868-.0962-.0925Zm9.617 4.4513-.0025-4.3527c0-.0584.0489-.1073.1073-.1073l2.0061.0024c.0582 0 .1073-.0487.1073-.1072l.0037-.5158c0-.0584-.0488-.1074-.1073-.1074l-2.8709-.0122c-.0585 0-.1073.0488-.1073.1073v5.0965c0 .0583.0486.1074.1073.1074l.6489-.0037c.0586 0 .1074-.0491.1074-.1073Z"/>
</svg>