<svg xmlns="http://www.w3.org/2000/svg" viewBox="0 0 160 40">
	<path fill="#d8232a" d="M63.8 27.1 62 30.3l1.8 3.3 1.9-3.3-1.9-3.2zM67.5 33.6h-3.7l1.9 3.2h3.7l-1.9-3.2z"/>
	<path fill="#d8232a" d="M58.2 36.8H62l1.8-3.2h-3.7l-1.9 3.2z"/>
	<g fill="#000">
		<path d="m9 34.3-.6-.4c-1-.4-.9-1.6 0-1.6s.7.3.9.6v.1c0 .1.2.3.2.6v-1.4H9c-.9-.4-2 .2-2 1.2s.6 1.1 1.2 1.5c0 0 .2.1.3.2.3.2.7.4.7.6v.4c0 .5-.4.7-.8.7-.9 0-1.2-.6-1.4-1.5v1.6h.2c.6.2 1.8.4 2.3-.2.8-.7.5-1.8-.6-2.3ZM14.4 35.9v-3.6h-1.7v.2c.6 0 .7 0 .7.6v2.8c-.4.6-1.4.8-1.8.2-.2-.2-.1-2.5 0-3.4v-.3h-1.4v.2h.5c.2 0 .2.3.2.6v2.7c0 1.2 1.3 1.7 2.1 1l.2-.2c.2-.1.3-.3.5-.5v.8c.4-.2.6-.2.9-.3.1 0 .3 0 .5-.1v-.2c-.6 0-.6 0-.6-.6ZM22.2 34.3l-.6-.4c-1-.4-.9-1.6 0-1.6s.7.3.9.6v.1c0 .1.2.3.2.6v-1.4c-.1.1-.2 0-.2 0h-.3c-.9-.4-2 .2-2 1.2s.6 1.1 1.2 1.5c0 0 .2.1.3.2.3.2.7.4.7.6v.4c0 .5-.4.7-.8.7-.8 0-1.2-.6-1.4-1.5V37h.7c.2 0 .5.1.7.1 1.8 0 2.3-1.9.6-2.8ZM39.2 33.1v-.9c-.2 0-.5.2-.8.3-.3 0-.6.2-.8.3v.2h.3c.5 0 .5.5.5.9v2.3c0 .6-.2.6-.7.6v.2h2.5v-.2c-.6 0-.9 0-.9-.7v-2.3c0-.4.5-.9.7-.9s.2 0 .4.2c.1 0 .3.2.4.2s.3-.2.3-.2v-.4c-.2-.9-1.3-.5-1.9.5Z"/>
		<path d="M44.5 32.6h.4c.1 0 0 .2 0 .4v.2l-.9 2.6-1.2-2.6c-.2-.3-.3-.6 0-.6h.4v-.2h-2.1l.2.4v.2c.4 0 .5.2.6.6l1.6 3.4v.2c0 .2-.6 1.6-.9 1.6h-.3c-.2 0-.4-.1-.5-.1-.9 0-.6 1 .3 1 1 0 1.2-.8 1.6-1.7 0-.1.1-.3.2-.5l1.6-4.3.2-.4c0-.2.2-.2.3-.2v-.2h-1.4v.2ZM55.2 29.9c-1.3 0-1.8 1.2-1.8 2.4h-.8v.4h.8v3.2c0 .7-.2.9-.9.9v.4h2.7V37c-.8 0-.9-.1-.9-.9v-3.2h1.3v-.4h-1.3v-1.8c0-.3.3-.4.6-.4h.3s.3.2.3.3l.3.3h.6c.5-.6-.5-.9-1-.9ZM81.8 35.7v-3.6h-.2c-.4.2-.7.4-1.2.6h-.2v.2h.3c.5 0 .5.2.5.6v2.4c0 .6 0 .7-.3.8h-.5v-.2.2c-.3 0-.6 0-.6-.2-.2 0-.2-.4-.2-.7v-4.6c0-.7.2-.9.9-.9v-.2h-2L76 35.3l-2.4-5.2h-2v.2c.8 0 1 .1 1 .9v4.3c0 1 0 1.2-1 1.3v.3H74v-.2c-1-.2-1-.4-1-1.4v-4.2l2.6 5.7h.2l2.7-5.9v4.7c0 .8 0 .9-.9 1v.2h5.3c-.7 0-.7-.2-.7-.9ZM84.6 36.5c-.6 0-.6-.5-.6-.9v-2.9h1v-.4h-1V31c-.2.3-.4.5-.5.7-.3.4-.4.5-.9.9h.6v3.1c0 .6.2 1.3.9 1.3s.4 0 .6-.2c.2 0 .4-.2.6-.5V36c-.2.2-.4.4-.6.4ZM87.7 34.4c-.7-.3-1.9-.8-1.2-1.7.7-.6 1.8 0 1.8 1v-1.4h-.2c-2.2-.9-3.5 1.6-1.2 2.6 0 0 .2.1.3.2.3.2.7.4.7.6v.4c0 .5-.4.7-.8.7-.9 0-1.2-.6-1.4-1.5V37h.2c.6.2 1.8.4 2.3-.2.8-.7.5-1.8-.6-2.3ZM93 35.9v-3.6h-1.7v.2c.6 0 .7 0 .7.6v2.8c-.4.6-1.4.8-1.8.2-.2-.2-.1-2.5 0-3.4v-.4h-1.4v.2h.5c.2 0 .2.3.2.6v2.7c0 1.8 2 1.7 2.8.5v.8c.4-.2.6-.2.9-.3.1 0 .3 0 .5-.1v-.2c-.6 0-.6 0-.6-.6ZM103 34.4c-.7-.3-1.9-.8-1.2-1.7.7-.6 1.8 0 1.8 1v-1.4h-.2c-2.2-.9-3.5 1.5-1.2 2.6 0 0 .2.1.3.2.3.2.7.4.7.6v.4c0 .5-.4.7-.8.7-.8 0-1.2-.6-1.4-1.5V37h.2c.6.2 1.8.4 2.3-.2.8-.7.5-1.8-.7-2.3ZM115.8 31.3c1.2-1.6 3.7-.9 4.1 1V30h-.2c-.2.5-.4.4-.8.3h-.3c-3.7-1.2-6.3 3.2-3.9 5.9 1.4 1.5 4.3 1.4 5.5-.3l-.2-.2c-3.4 3.2-6.4-1.2-4.3-4.4ZM128.5 39.3v-.1h-.1l.1.1zM148 36.2v.1s-.1.2-.2.2h-.3c-.6 0-.6-.5-.6-.9v-2.9h1v-.4h-1V31c-.1.2-.3.3-.4.5-.2.2-.3.4-.4.4l-.2.2-.4.4h.6v3.1c0 1 .6 1.7 1.5 1.2.2 0 .5-.4.6-.7ZM3.3 5.3l6.3 9.2L16 5.3v14.2h3.3V1.1h-4.2L9.6 9.3 4.1 1.1H0v18.4h3.3V5.3zM35.6 16.1c-.2 0-.3.1-.4.2-.5.2-1.1.5-4.2.5s-5.2-1.4-5.2-6.4S27.1 4 31 4s3.8.4 4.6.6V1.5c-.3-.1-.4-.2-.5-.3-.3-.2-.4-.4-4.5-.4s-8.2 2.3-8.2 9.5v.2c0 7.3 2.7 9.5 8.2 9.5s3.8-.4 5-.6v-3.2ZM81.4 8.6c.7-.5 1.4-.7 3.4-.7s2.7.6 2.7 2.2v9.5h3.2V9.2C90.7 6.6 89.6 5 86 5s-4 .7-4.8 1.4V5.2h-3.1v14.5h3.2v-11ZM97.5 12.2l5.7 7.3h3.9l-6.1-7.4 5.8-6.9h-4L97.5 12V0h-3.3v19.5h3.3v-7.3zM138 19.8c2.2 0 3.8-.7 4.7-1.4l.3 1.1h2.7V5.2h-3.2v10.9c-.1 0-.2 0-.3.1-.7.3-1.3.6-3.1.6s-2.7-.6-2.7-2.2V5.2h-3.2v10.4c0 2.7 1.3 4.3 4.8 4.3ZM152.2 13.1l2.6.7h.2c1.3.3 1.8.5 1.8 1.6s-1.1 1.5-2.8 1.5-3.5-.4-5.1-.9v3.1c.3 0 .5.2.6.3.6.3 1 .5 4.5.5s6-1.6 6-4.3-1.3-3.5-3.8-4.3l-2.5-.7c-1.3-.4-1.8-.6-1.8-1.6s.5-1.3 2.7-1.3 3.2.3 4.6.7v-3c-.2 0-.4-.1-.5-.2-.5-.2-.9-.4-4.1-.4s-5.9 1.4-5.9 4 1.3 3.5 3.6 4.2ZM149.9 35.7v-3.6h-.2c-.4.2-.7.4-1.2.6h-.2v.2h.3c.5 0 .5.2.5.6v1.4c0 .8 0 1.6-.1 1.7 0 0-.3.2-.6.2h2.4v-.2c-.7 0-.7-.2-.7-.9ZM148.1 36.8h.1l-.1-.2v.2zM149 30c-.2.2-.2.6 0 .7 0 .2.2.2.4.2s.3 0 .4-.2c.4-.4 0-.9-.4-.9s-.3 0-.4.2Z"/>
		<path d="M150.4 34.6c0 .7.2 1.3.7 1.8 2.4 2.3 5.3-1.4 3.2-3.5-1.5-1.5-4.1-.4-4 1.8Zm2.6 2.2c-1.8 0-2.2-4.3-.4-4.4 1.8 0 2.2 4.3.4 4.4ZM155.1 36.8Z"/>
		<path d="M159.5 36.5c-.2-.2-.2-1.9-.2-2.6v-.3c0-1.9-1.7-1.9-2.7-.7v-.7c-.2 0-.5.2-.8.3l-.6.2v.2c.2 0 .5 0 .5.2v3.1c0 .5 0 .7-.6.7h2.2v-.2c-.5 0-.6-.2-.6-.6v-2.9c.3-.3.6-.6 1-.6s.7.5.7 1v1c0 .8 0 1.7-.2 1.9 0 0-.3.2-.6.2v.2h2.2v-.2c-.2 0-.4 0-.5-.2ZM57 9.8h.3c1.5-.4 2.3-.6 2.3-4s-2-4.6-6.2-4.6h-7.3v18.5h7.6c4.3 0 6.4-1.1 6.4-5.1 0-3.1-1.2-4.2-3.2-4.6ZM49.3 4h3.3c2.8 0 3.5.3 3.5 2.2s-.7 2.5-2.9 2.5h-4V4Zm3.9 12.7h-3.9v-5.3h4.2c2.4 0 3.2.6 3.2 2.7s-.9 2.6-3.5 2.6ZM72.2 19.4h2.5V9.5c0-3.7-2.5-4.6-6.3-4.6s-3.3.2-4.6.6v2.8c.2 0 .3 0 .4-.1 1.2-.3 1.8-.4 3.8-.4s3.4.6 3.4 2.1v1.7c-.2 0-.4-.1-.5-.2-.4-.2-.8-.4-3.3-.4s-5.2.8-5.2 4.2c0 3.2 1.4 4.6 4.9 4.6s3.3-.5 4.5-1.4l.4 1.1Zm-1-2.6c-.6.2-1 .4-2.7.4s-2.7-.6-2.7-1.9.6-1.8 2.7-1.8 1.9 0 3 .3v3c-.1 0-.2 0-.3.1ZM62.4 15.1ZM119.7 12.9h3.3l4.3 6.6h3.8l-4.8-7.1h.2c2.2-.5 3.6-.8 3.6-5.4s-2.5-5.8-6.9-5.8h-6.9v18.4h3.3V13Zm0-8.7h3.3c2.7 0 3.8.5 3.8 2.9S125.7 10 123 10h-3.3V4.2ZM3.7 36.5q-.2 0-.3-.2v-1.5c0-.8 0-1.6-.2-1.9-.6-1.2-3.6-.6-3 .8 0 0 .2.2.4.2.5 0 .5-.5.4-.8 0-.6 1.3-.6 1.5-.2v2.8c0 .5-.6.6-.9.6-1 0-.9-1.4 0-1.9.1 0 .3-.2.5-.2s.3-.1.5-.2c-.3.1-.5.2-.8.3C.8 34.7.1 35 0 36c0 1 1.2 1.3 1.9.8 0 0 .1 0 .2-.1.2-.1.3-.2.4-.3 0 1 1.1.9 1.6.3v-.3s-.2 0-.3.2h-.2ZM7 35.3v-.1.1zM11.6 32.3ZM16.4 33v-3.2c-.2 0-.5.1-.8.2-.3 0-.6.2-.8.2v.2h.2c.4 0 .5 0 .5.5v5.4c0 .5 1.2.6 1.7.6 1.5 0 2.5-1.2 2.5-2.6.2-1.9-2.1-3.2-3.2-1.4Zm1 3.6h-.6c-.2 0-.4-.2-.4-.4v-2.6c0-.2 0-.4.4-.6 2.2-1.3 3 3.7.6 3.6ZM25 35.7v-3.6h-.2c-.3.2-.6.3-1 .4-.2 0-.4.1-.5.2v.2h.3c.5 0 .5.3.5.6v2.4c0 .8 0 .8-.8.9s2.5 0 2.5 0v-.2c-.7 0-.7-.2-.7-.9ZM24.5 30.9s.3 0 .4-.2c.2 0 .2-.3.2-.4 0-.3-.3-.6-.6-.6s-.3 0-.4.2c-.2.2-.2.6 0 .7 0 .2.2.2.4.2ZM27.9 32.2Z"/>
		<path d="M29.8 35.7v-5.9c-.3.1-.5.2-.8.3-.2 0-.5.1-.7.2v.2c.5 0 .7 0 .7.6v1.7c-.3-.3-.6-.5-1.1-.5-3.1 0-2.7 6.1.6 4.6.2 0 .4-.3.5-.5v.6l.8-.3.7-.3v-.2c-.5 0-.6 0-.6-.6Zm-.8.2c0 .4-.5.7-.9.6-1.6 0-1.9-2.5-1.1-3.5.6-1 2.1-.6 2 .6v2.2Z"/>
		<path d="M32.5 35.7v-3.6h-.2c-.3.2-.6.3-1 .4-.2 0-.4.1-.5.2v.2h.3c.5 0 .5.2.5.6v2.4c0 .8 0 .8-.8.9s2.5 0 2.5 0v-.2c-.7 0-.7-.2-.7-.9ZM31.4 30c-.2 0-.2.2-.2.4s0 .3.2.4c0 .2.2.2.4.2s.3 0 .4-.2c.2 0 .2-.3.2-.4 0-.3-.3-.6-.6-.6s-.3 0-.4.2Z"/>
		<path d="M37 36.5q-.2 0-.3-.2v-1.5c0-.8 0-1.6-.2-1.9-.6-1.2-3.6-.6-3 .8 0 0 .2.2.4.2.5 0 .5-.5.4-.8 0-.6 1.3-.6 1.5-.2V34c-.3.1-.5.2-.8.3-1 .4-1.7.7-1.8 1.7 0 1.6 1.8 1.2 2.6.3 0 1 1.1.9 1.6.3v-.3s-.2 0-.3.2h-.2Zm-1.1-.8c0 .5-.6.6-.9.6-1 0-.9-1.4 0-1.9.1 0 .3-.2.5-.2s.3-.1.5-.2v1.7ZM52 32.8c-1.5-1.5-4.1-.4-4 1.8 0 .7.2 1.3.6 1.8 2.4 2.3 5.3-1.4 3.3-3.5Zm-1.4 4c-1.8 0-2.2-4.3-.4-4.4 1.8 0 2.2 4.3.4 4.4ZM81.3 29.8s-.3 0-.4.2c-.2.2-.2.6 0 .7 0 .2.2.2.4.2s.3 0 .4-.2c.2-.2.2-.6 0-.7 0-.2-.3-.2-.4-.2ZM95.1 33v-3.2c-.3 0-1.1.4-1.6.5v.2h.2c.4 0 .5 0 .5.5v5.4c0 .5 1.2.6 1.7.6 1.5 0 2.5-1.2 2.5-2.6 0-1.9-2.1-3.2-3.2-1.4Zm.9 3.7h-.6c-.2 0-.4-.2-.4-.4v-2.7c0-.5.6-.8 1-.7 1.8 0 1.9 3.9 0 3.9Z"/>
		<path d="M99.8 35.7v-3.6h-.2c-.2.1-.7.3-1.1.4-.1 0-.2 0-.3.1v.2h.5c.4 0 .4.3.4.6v2.4c0 .8 0 .8-.8.9s2.4 0 2.4 0v-.2c-.7 0-.7-.2-.7-.9Z"/>
		<path d="M98 36.8h.1l-.1-.2v.2zM99 30c-.4.4 0 .9.4.9s.3 0 .4-.2c.2 0 .2-.3.2-.4 0-.3-.3-.6-.6-.6s-.3 0-.4.2ZM108.4 35.8v-2c.2-1.9-1.8-2.1-2.8-.8v-3.2c-.4.2-1 .4-1.5.5v.2c.5 0 .7 0 .7.6V36c0 .7 0 .8-.7.9h2.2v-.2c-.7 0-.7-.2-.7-.9v-2.5c.2-.5 1.4-1 1.8-.4.2.4.2 1.7.2 2.5v.4c0 .7 0 .8-.7.9v.2h2.2v-.2c-.6 0-.6-.3-.6-.9Z"/>
		<path d="M111 35.7v-3.6h-.2c-.3.2-.6.3-1 .4-.2 0-.4.1-.5.2v.2h.4c.4 0 .4.3.4.6v2.4c0 .8 0 .8-.8.9s2.5 0 2.5 0v-.2c-.7 0-.7-.2-.7-.9ZM110.5 30.9s.3 0 .4-.2c.2 0 .2-.2.2-.4s0-.3-.2-.4c0-.2-.2-.2-.4-.2s-.3 0-.4.2c-.4.4 0 .9.4.9ZM120.4 34.6c0 3.3 4.6 3.3 4.6 0s-4.6-3.2-4.6 0Zm2.6 2.2c-1.8 0-2.2-4.3-.4-4.4 1.8 0 2.2 4.3.4 4.4Z"/>
		<path d="M126.4 33.1v-.9c-.6.2-1.1.4-1.6.6v.2h.3c.5 0 .5.5.5.9v2.3c0 .6-.2.6-.7.6h2.5v-.2c-.6 0-.9 0-.9-.7v-2.3c0-.4.5-.9.7-.9s.2 0 .4.2c.1 0 .3.2.4.2.3 0 .5-.2.5-.5-.2-.9-1.3-.5-1.9.5Z"/>
		<path d="M130.5 32.5s-.2.2-.3.2-.2.1-.3.2v-.6c-.6.2-1 .4-1 .4l-.5.2v.2c.5 0 .6 0 .6.6v5.4s-.3.2-.6.2h2.4v-.2c-.7 0-.9 0-.9-.7v-1.7c1.5 1.4 3.3-.6 3.2-2.2 0-1.6-1.3-2.9-2.7-1.9Zm-.2 4c-.2 0-.3-.3-.4-.6v-2.6c.2-.8 1.5-.9 1.9-.2.9 1 .3 4.3-1.6 3.3ZM137.6 32.8c-1.5-1.5-4.1-.4-4 1.8 0 .7.2 1.3.6 1.8 2.4 2.3 5.3-1.4 3.3-3.5Zm-1.5 4c-1.8 0-2.2-4.3-.4-4.4 1.8 0 2.2 4.3.4 4.4Z"/>
		<path d="M141.5 32.6c-.2-.9-1.3-.5-1.9.5v-.9c-.3 0-.5.2-.8.3-.3 0-.5.2-.8.3v.2h.3c.5 0 .5.5.5.9v1c0 .8 0 1.8-.2 1.8 0 .1-.3.2-.5.2h2.5v-.2c-.6 0-.9 0-.9-.7v-2.3c0-.5.6-1.3 1-.7 0 .2.3.2.4.2s.3-.2.3-.2v-.4ZM138 36.8h.2-.2ZM145.1 36.5h-.2l-.1-.2v-2.4c.2-1.8-1.7-2-2.8-1.3-.6.4-.6 1.2 0 1.2s.6-.3.4-.6V33c0-.6 1.3-.6 1.5-.2v1.1c-.3.1-.5.2-.8.3-1 .4-1.7.7-1.8 1.7 0 1.7 1.8 1.3 2.6.4 0 1 1.1.9 1.6.3v-.3s-.2 0-.3.2h-.2Zm-1.1-.8c0 .5-.6.6-.9.6-1 0-.9-1.4 0-1.9.1 0 .3-.2.5-.2s.3-.1.5-.2v1.7Z"/>
	</g>
</svg>