<svg xmlns="http://www.w3.org/2000/svg" viewBox="0 0 150 44.7">
	<path fill="#3e8fa4" d="M43.1 19.7c.3 5.2-2.9 9.5-10.7 13.9.7-5.6 0-11.6-2.3-14.8 1.6-3.8 2.6-7.9 2.7-11.1.3.2 9.8 5 10.3 12zM29.2 18l-.5-.5c-2.4-2-6.1-2.6-11.4-1.5 1-8.1 6.4-12.1 14.4-8.7 0 3-.9 7-2.5 10.7z"/>
	<path fill="#41a6e4" d="M12.1 19.1c1.4-.6 2.6-1.1 3.8-1.5 0 .1-.7 4.6.5 10.6-1.6-.2-3.5-.6-5.6-1.4-1.9-.7-4.1-1.7-5.9-3 2-2.2 4.9-3.7 7.2-4.7zm-8.7 3.4C1.3 20.6-.1 18.2 0 15.2c.2-5.1 4.9-8.9 9.4-11.1C11.6 3 29.2-5 31.5 4.8c0 .1.2 1 .2 1.1-.2-.4-4.8-2-8.3-.6-5 2-6.8 7-7.4 11-.9.2-1.8.5-2.8.8-3.2 1-7.3 2.7-9.8 5.4zm13.8-5.4c3.9-1.1 6.8-.9 8.9.3.9.5 1.6 1.4 2.3 2.5-1.3 2.6-2.9 4.9-4.7 6.3-.8.6-1.6 1.1-2.6 1.4-.9.3-1.8.5-2.9.5-.6-2.4-.9-5.4-1-8.6-.1-.8 0-1.6 0-2.4z"/>
	<path fill="#5faf61" d="M18.7 33c2.8 3.2 7.5 3.5 12.1 2.3-.4 4-1.6 7.5-3.8 8.8-4 2.3-13.7-2.1-19.7-7.5-2.2-2-4-4.2-4.6-6.2-.3-.8-.4-1.5-.3-2.2.2-1.5.8-2.8 1.8-3.9 1.6 1.4 3.4 2.6 5.1 3.4 3 1.5 5.5 2.3 7.6 2.4.6 1.1 1.1 2.1 1.8 2.9zm4.5-4.6c2.1-1.5 4.1-4.2 5.7-7.4 1.6 3.5 2.3 8.6 2 13.2-1 .4-2 .7-3 .9-2.6.5-5.1.2-6.9-1.5-.9-.9-1.6-2-2.2-3.5 1.7-.1 3.1-.7 4.4-1.7z"/>
	<path fill="#5e656a" d="M54.4 20.2c-.1 0-.2 0-.3-.1-.1-.1-.1-.2-.1-.3V9.9c0-.1 0-.2.1-.3.1-.1.2-.1.3-.1h1.2c.2 0 .3.1.5.3l2.9 5.5 3-5.5c.1-.2.3-.3.5-.3h1.2c.1 0 .2 0 .3.1s.1.2.1.3v9.9c0 .1 0 .2-.1.3-.1.1-.2.1-.3.1h-1.3c-.1 0-.2 0-.3-.1-.1-.1-.1-.2-.1-.3v-6.6l-2.1 4c-.1.2-.3.3-.5.3h-.6c-.2 0-.4-.1-.5-.3l-2.1-4v6.6c0 .1 0 .2-.1.3-.1.1-.2.1-.3.1h-1.4zm16.3.1c-1.4 0-2.5-.4-3.2-1.1s-1.2-1.7-1.2-3.1v-1.3-1.3c0-1.4.5-2.4 1.3-3.1.8-.7 1.9-1.1 3.2-1.1 1.3 0 2.4.4 3.2 1.1.8.7 1.2 1.8 1.3 3.1v2.6c0 1.4-.5 2.4-1.2 3.1-1 .8-2 1.1-3.4 1.1zm0-1.8c.7 0 1.2-.2 1.6-.6.4-.4.6-1 .6-1.9v-1.2-1.2c0-.8-.2-1.5-.7-1.9-.4-.4-.9-.6-1.6-.6-.7 0-1.2.2-1.6.6-.4.4-.6 1-.6 1.9V16c0 .8.2 1.5.6 1.9.4.4 1 .6 1.7.6zm6.9 1.7c-.1 0-.2 0-.3-.1-.1-.1-.1-.2-.1-.3V9.9c0-.1 0-.2.1-.3.1-.1.2-.1.3-.1h7c.1 0 .2 0 .3.1s.1.2.1.3V11c0 .1 0 .2-.1.3-.1.1-.2.1-.3.1h-5.2v2.4H82c1.1 0 2.1.3 2.7.9.7.6 1 1.3 1 2.3 0 .6-.1 1.1-.4 1.6-.3.5-.7.9-1.3 1.2s-1.2.4-2 .4h-4.4zm4.1-1.7c.5 0 .9-.2 1.2-.5.3-.3.5-.7.5-1.2s-.1-.8-.4-1.1c-.3-.3-.7-.4-1.3-.4h-2.3v3.2h2.3zm5.9 1.7c-.1 0-.2 0-.3-.1-.1-.1-.1-.2-.1-.3V9.9c0-.1 0-.2.1-.3.1-.1.2-.1.3-.1H89c.1 0 .2 0 .3.1.1.1.1.2.1.3v7l5-7.1c.1-.2.2-.3.4-.3h1.3c.1 0 .2 0 .3.1s.1.2.1.3v9.9c0 .1 0 .2-.1.3-.1.1-.2.1-.3.1h-1.4c-.1 0-.2 0-.3-.1-.1-.1-.1-.2-.1-.3V13l-5 6.9c-.1.2-.2.3-.4.3h-1.3zm18.4 0c-.1 0-.2 0-.3-.1-.1-.1-.1-.2-.1-.3v-8.4h-3.3v1.9c0 1.7-.1 3-.3 4-.2 1-.6 1.7-1.2 2.1-.5.5-1.3.7-2.3.7-.1 0-.2 0-.3-.1-.1-.1-.1-.2-.1-.3v-1.2c0-.1 0-.2.1-.2.1-.1.1-.1.3-.1.6-.1 1-.6 1.3-1.4.3-.8.4-2.1.4-3.8V9.9c0-.1 0-.2.1-.3s.2-.1.3-.1h6.8c.1 0 .2 0 .3.1s.1.2.1.3v9.9c0 .1 0 .2-.1.3-.1.1-.2.1-.3.1H106zm4.7 0c-.1 0-.2 0-.3-.1-.1-.1-.1-.2-.1-.3V9.9c0-.1 0-.2.1-.3s.2-.1.3-.1h1.4c.1 0 .2 0 .3.1s.1.2.1.3v3.5h2c1.2 0 2.2.3 2.8.9.7.6 1 1.4 1 2.5 0 .7-.1 1.3-.4 1.8-.3.5-.7.9-1.3 1.2-.6.3-1.3.4-2.1.4h-3.8zm3.6-1.8c.5 0 .9-.2 1.2-.5.3-.3.4-.7.4-1.3 0-.5-.1-.9-.4-1.2s-.7-.4-1.3-.4h-1.9v3.4h2zm6.1 1.8c-.1 0-.2 0-.3-.1-.1-.1-.1-.2-.1-.3V9.9c0-.1 0-.2.1-.3.1-.1.2-.1.3-.1h1.4c.1 0 .2 0 .3.1s.1.2.1.3v3.9h4.5V9.9c0-.1 0-.2.1-.3.1-.1.2-.1.3-.1h1.4c.1 0 .2 0 .3.1s.1.2.1.3v9.9c0 .1 0 .2-.1.3-.1.1-.2.1-.3.1H127c-.1 0-.2 0-.3-.1-.1-.1-.1-.2-.1-.3v-4.1h-4.5v4.1c0 .1 0 .2-.1.3-.1.1-.2.1-.3.1h-1.3zm10.2 0c-.1 0-.2 0-.2-.1s-.1-.1-.1-.2v-.1L134 10c.1-.3.3-.4.5-.4h1.7c.3 0 .4.1.5.4l3.7 9.8v.1c0 .1 0 .2-.1.2s-.1.1-.2.1h-1.4c-.2 0-.4-.1-.4-.3l-.7-1.8h-4.5l-.7 1.8c-.1.2-.2.3-.4.3h-1.4zm3.1-3.9h3.4l-1.7-4.7-1.7 4.7zm15.9-6.8c.1 0 .2 0 .3.1s.1.2.1.3v9.9c0 .1 0 .2-.1.3-.1.1-.2.1-.3.1h-1.4c-.1 0-.2 0-.3-.1-.1-.1-.1-.2-.1-.3v-3.5h-1.7l-2 3.4c-.1.1-.1.2-.2.3-.1.1-.2.1-.4.1h-1.4c-.1 0-.2 0-.2-.1s-.1-.1-.1-.2v-.2L144 16c-.6-.2-1.1-.6-1.5-1.2-.4-.5-.5-1.2-.5-2 0-.6.1-1.2.4-1.7.3-.5.7-.9 1.3-1.2.6-.3 1.3-.5 2.1-.5h3.8v.1zm-1.8 1.7h-1.9c-.5 0-.9.2-1.2.5-.3.3-.4.7-.4 1.3 0 1.1.6 1.6 1.7 1.6h1.9v-3.4zM62.6 34.9v.2c0 .1 0 .2-.1.2-.1.1-.1.1-.3.1h-1.6c-.2 0-.4-.1-.5-.3L57.6 31h-1.4v4c0 .1 0 .2-.1.3-.1.1-.2.1-.3.1h-1.4c-.1 0-.2 0-.3-.1-.1-.1-.1-.2-.1-.3v-9.9c0-.1 0-.2.1-.3.1-.1.2-.1.3-.1h1.4c.1 0 .2 0 .3.1.1.1.1.2.1.3V29h1.3l2.5-4c.1-.2.3-.3.5-.3h1.6c.1 0 .2 0 .2.1.1.1.1.1.1.2s0 .1-.1.2l-2.9 4.7c.1 0 3.2 5 3.2 5zm1.2.5c-.1 0-.2 0-.2-.1s-.1-.1-.1-.2V35l3.7-9.8c.1-.3.3-.4.5-.4h1.7c.3 0 .4.1.5.4l3.7 9.8v.1c0 .1 0 .2-.1.2s-.1.1-.2.1h-1.4c-.2 0-.4-.1-.4-.3l-.7-1.8h-4.5l-.7 1.8c-.1.2-.2.3-.4.3h-1.4zm3-3.9h3.4l-1.7-4.7-1.7 4.7zm8.7 3.9c-.1 0-.2 0-.3-.1-.1-.1-.1-.2-.1-.3v-9.9c0-.1 0-.2.1-.3s.2-.1.3-.1h4.1c1.2 0 2.2.3 2.9.9.7.6 1.1 1.4 1.1 2.5s-.3 1.9-1.1 2.5c-.7.6-1.7.8-2.9.8h-2.2V35c0 .1 0 .2-.1.3-.1.1-.2.1-.3.1h-1.5zm4-5.6c.6 0 1-.1 1.3-.4s.5-.7.5-1.2-.2-.9-.4-1.2c-.3-.3-.8-.4-1.4-.4h-2.2v3.3h2.2zm8.5 5.6c-.1 0-.2 0-.3-.1-.1-.1-.1-.2-.1-.3v-8.4h-2.8c-.1 0-.2 0-.3-.1-.1-.1-.1-.2-.1-.3v-1.1c0-.1 0-.2.1-.3s.2-.1.3-.1h7.8c.1 0 .2 0 .3.1.1.1.1.2.1.3v1.1c0 .1 0 .2-.1.3-.1.1-.2.1-.3.1h-2.8V35c0 .1 0 .2-.1.3-.1.1-.2.1-.3.1H88zm4.9 0c-.1 0-.2 0-.2-.1s-.1-.1-.1-.2V35l3.7-9.8c.1-.3.3-.4.5-.4h1.7c.3 0 .4.1.5.4l3.7 9.8v.1c0 .1 0 .2-.1.2s-.1.1-.2.1H101c-.2 0-.4-.1-.4-.3l-.7-1.8h-4.5l-.7 1.8c-.1.2-.2.3-.4.3h-1.4zm3-3.9h3.4l-1.7-4.7-1.7 4.7z"/>
</svg>