<svg xmlns="http://www.w3.org/2000/svg" viewBox="0 0 128.2 50">
	<path fill="url(#gr1)" d="M0 0h128.2v50H0V0z"/>
	<linearGradient id="gr1" gradientUnits="userSpaceOnUse" x1="0" y1="27" x2="128.2" y2="27" gradientTransform="matrix(1 0 0 -1 0 52)">
		<stop offset="0" stop-color="#c94b28"/>
		<stop offset="1" stop-color="#7a1831"/>
	</linearGradient>
	<g fill="#fff">
		<path d="M82.8 15.7L87.9 2s.2-.5.6-.5h3c.9 0 1.9.7 1.9 1.6v5.4l4.7-6.6s.2-.4.9-.4h3.9c.5 0 .8.3.6.8-.8 2.3-3.2 9.1-3.6 10.2-.5 1.3.6 2.8 3.6 1.4 1.2-.4.2.8 0 .9-1 .9-2.6 1.9-4.8 1.9-1 0-4.8-.3-.8-10-1.1 1.7-5.9 9.4-7.2 9.4-1.2 0-.5-4.6-.6-9-.5 1.9-2.2 6.9-3.1 8.5-.2.3-.3.5-.6.5h-3.5c-.3-.1-.1-.4-.1-.4z"/>
		<path d="M108.3 18.9s3.3-10.1 4.4-12.2c1-2 2.3-4.2 3.8-4.2s1.4.6 1.9.5c.8-.1.6-1.8-2.5-1.8s-5.4 1.6-6.9 5-6.3 17.3-7 19.2-2.8 4.5-4.8 4.5-2.6-2.1-2.4-3.8c.3-2.7 3-5.6 5.4-6.4 2.4-.7 2.2-2.4-.3-1.8-2.5.5-9 2.9-9 8.3s6.8 7.1 9.2 4.1c-1.2 3.8-1.5 5.2-2.8 8.3-1.2 3-2.9 8.6-4.4 8.6s-2.2-.1-2.8-.4c-.6-.4-1.5.7-.4 1.1 1.1.4 4.4 1.7 6.4 0 1.9-1.7 4.9-8.1 6.3-12.6 1.4-4.5 3.2-9.2 4.4-11.9s2.5-4.1 4.1-4.1 3 2 2.4 4.8c-.5 2.7-3.6 5.1-5.8 5.2-2.2.2-1.6 2.1.5 1.7s5.3-1.5 6.9-2.9c1.5-1.4 2.5-3.2 2.4-6.2-.1-2.8-2.7-4.6-5.2-4.6s-3.8 1.6-3.8 1.6z"/>
		<path d="M111.6 39.1l5.5-5.5c.1-.1.3-.2.5-.2h4c.1 0 .1.1 0 .1l-7.3 6.9 5.4 7.7s0 .1-.1.1h-4c-.2 0-.4-.1-.5-.3l-3.5-5.4s-1.1.5-2.1 2.3c-.7 1.3-1.2 2.6-1.3 3.1 0 .1-.2.2-.3.2h-3.8c-.1 0-.2-.1-.1-.2.5-1.3 3.5-9.3 4-10.6.6-1.5-.7-3.5-2.5-2.8-1.3.5-1.5-.2-.6-.7s2-.9 4.3-.9c1.1 0 3.5.8 3 3.1-.4 2.4-.6 3.1-.6 3.1z"/>
	</g>
</svg>