<svg xmlns="http://www.w3.org/2000/svg" viewBox="0 0 200 20.5">
	<path fill="#008bb0" d="M62.8 6.8C59 6.8 56 9.9 56 13.6c0 3.8 3.1 6.8 6.8 6.8 3.8 0 6.8-3.1 6.8-6.8.1-3.7-3-6.8-6.8-6.8zm0 10.9c-2.2 0-4-1.8-4-4s1.8-4 4-4 4 1.8 4 4c.1 2.2-1.7 4-4 4zM6.6 12.6L3.1 7H0v13.2h2.8v-8.6l3.7 5.6h.1l3.7-5.6v8.6h2.9V7h-3.1l-3.5 5.6zm28.9 5.2c-2.3 0-3.8-1.9-3.8-4.1 0-2.3 1.6-4.1 3.8-4.1 1.3 0 2.4.6 3.4 1.5L40.7 9c-1.2-1.2-2.7-2-5.2-2-4 0-6.9 3.1-6.9 6.8 0 3.8 2.9 6.8 6.8 6.8 2.5 0 4.1-.9 5.4-2.4L39 16.3c-1.1.9-2 1.5-3.5 1.5zm43.1-5.2L75.2 7H72v13.2h2.8v-8.6l3.7 5.6h.1l3.7-5.6v8.6h2.9V7h-3.1l-3.5 5.6zm16.4 0L91.5 7h-3.1v13.2h2.8v-8.6l3.7 5.6h.1l3.7-5.6v8.6h2.9V7h-3.1c-.1 0-3.5 5.6-3.5 5.6zm12.6 2.3h6.2v-2.6h-6.2V9.6h7.1V7h-9.9v13.2h10v-2.6h-7.2v-2.7zM122.9 7h-5.4v13.2h2.9v-4h2.2c3 0 5.3-1.6 5.3-4.6.1-2.7-1.8-4.6-5-4.6zm2.1 4.7c0 1.1-.8 2-2.3 2h-2.3v-4h2.2c1.5 0 2.4.7 2.4 2zM162.9 7l-5.7 13.3h3l1.2-3h5.6l1.2 3h3L165.6 7h-2.7zm-.4 7.7l1.8-4.3 1.8 4.3h-3.6zm18.7-2.4h-5.4V7h-2.9v13.2h2.9v-5.3h5.4v5.3h2.9V7h-2.9v5.3zm-30.2-.5h-2.1V9.7h5.5l1.1-2.6H146v13.2h5.4c3.1 0 5-1.8 5-4.3.1-3.2-2.1-4.2-5.4-4.2zm.2 5.8H149v-3.3h2.3c1.6 0 2.3.6 2.3 1.6-.1 1.3-1.1 1.7-2.4 1.7zM141.3 7h-2.9v10.5h-5.1V7h-2.9v13.2h13v-2.7h-2.1V7zM43.1 20.2H46V7h-2.9v13.2zM55.4 7h-3.5l-5.1 6.5 5.4 6.7h3.7l-5.7-6.7L55.4 7zm138.9 6.5l5.3-6.5h-3.5l-5.1 6.5 5.4 6.7h3.7l-5.8-6.7zm-7.1 6.7h2.9V7h-2.9v13.2z"/>
	<path fill="#fdb924" d="M21.6 0c-3.8 0-6.8 3.1-6.8 6.8 0 3.8 3.1 6.8 6.8 6.8 3.8 0 6.8-3.1 6.8-6.8 0-3.7-3-6.8-6.8-6.8zm0 10.9c-2.2 0-4-1.8-4-4s1.8-4 4-4 4 1.8 4 4-1.8 4-4 4z"/>
</svg>