<svg xmlns="http://www.w3.org/2000/svg" viewBox="0 0 113 40">
	<path fill="#004017" d="M59.9951 3.18081v4.75657h.5926V5.69826h2.2911v2.23912h.5856V3.18081h-.5856v1.96011h-2.2911V3.18081h-.5926Zm5.6592 0-1.6985 4.75657h.6215l.4845-1.44183h1.8645l.513 1.44183h.6652l-1.807-4.75657h-.6432Zm1.084 2.80344h-1.5105l.4914-1.39649c.1008-.29925.1807-.60477.2386-.91518.0795.26088.1806.59222.318.99261l.4625 1.31906Zm2.4285-2.80344h-.5852v4.75657h3.3604v1.32116h.5207V7.37935h-.4049V3.18081h-.5852v4.19854h-2.3058V3.18081Zm4.5247 0h-.5351v4.75657h.5926l2.3487-3.75699v3.75699h.535V3.18081h-.5849l-2.3563 3.76606V3.18081Zm4.315.58943c-.391.44573-.5929 1.06376-.5929 1.85198-.0007.40946.0847.81474.2528 1.18793.1608.36133.4214.66894.7513.88449.3338.21624.7237.32715 1.1206.31878.3781.00209.7502-.09836 1.0767-.29018.3379-.20159.6058-.50363.7662-.86287.1873-.40527.2815-.84682.2752-1.29325.007-.43876-.0816-.87403-.2609-1.27442-.1583-.36063-.4199-.66616-.7512-.87682-.33-.21066-.7143-.32017-1.106-.31389-.6212 0-1.1419.22251-1.5318.66825Zm.4478 3.21499c-.2895-.32924-.4339-.77986-.4339-1.35185 0-.71359.1518-1.22349.4482-1.52902.0788-.08301.1664-.15695.2612-.21973.0715-.04673.1472-.08719.2264-.12067.1838-.07883.3823-.11928.5821-.11789.2832-.00349.5601.07952.7952.23856.1179.08231.2229.18067.3122.29158.0913.1137.1667.24065.2228.37737.1277.32157.1894.66616.1807 1.01214 0 .61105-.1451 1.08329-.4266 1.41463-.1335.15974-.3006.28739-.4893.37388-.189.0865-.3948.12835-.602.12417-.205.00488-.4084-.03767-.595-.12277-.0851-.03906-.1656-.0865-.2406-.1416-.0893-.06627-.1706-.143-.2414-.2288Zm3.982-3.80442v4.75657h.5859V5.69826h2.2908v2.23912h.5855V3.18081h-.5855v1.96011h-2.2908V3.18081h-.5859Zm5.6522 0L86.39 7.93738h.6215l.4841-1.44183h1.8652l.5127 1.44183h.6651l-1.7993-4.75657h-.6508Zm1.0913 2.80344h-1.5105l.4841-1.39649c.1001-.29994.1824-.60547.2458-.91518.0381.13742.0841.29436.1406.47084.0506.15835.1092.33273.1772.52177l.4628 1.31906Zm5.0593-2.80344h-2.7685v3.35241c0 .39481-.0356.65151-.1005.75823-.0139.02372-.0307.04535-.0499.06488-.0223.02232-.0478.04185-.076.0572-.0527.0279-.1113.04185-.1706.03906-.0871-.00558-.1722-.03279-.2458-.08022l-.1085.55804c.1514.05231.3101.08091.4698.0858.1936.00697.3829-.06209.5273-.19183.1479-.14648.2442-.33622.2749-.54199.0523-.36203.0736-.72755.0652-1.09306V3.73954h1.5901v4.19784h.5925V3.18081Zm1.5758 0h-.5856v4.75657h1.6765c.6362 0 1.0771-.13881 1.3086-.41643.2285-.26995.352-.61454.3471-.9689.0007-.13323-.0161-.26576-.0496-.39411-.0233-.08998-.0554-.17787-.0955-.26298-.0551-.12067-.1319-.22949-.226-.32087-.074-.07254-.1584-.13393-.2511-.18206-.2163-.12346-.578-.18485-1.0694-.18485h-1.055V3.18081Zm1.0693 4.21807h-1.0693V5.75127h.7872c.2692-.00837.5378.01116.8028.05929.1552.03488.2916.12696.383.2574.0976.1423.1486.3118.1444.48409.0035.14161-.0244.28112-.0816.40877-.03.06696-.068.13114-.1137.19043-.1371.16462-.4193.24763-.8528.24763Zm2.4073-4.21807v4.75657h.5848V5.69826h2.2917v2.23912h.585V3.18081h-.585v1.96011h-2.2917V3.18081h-.5848Zm5.0595 0h-.586v4.75657h1.684c.636-.00069 1.07-.13881 1.301-.41434.22-.26646.343-.60129.346-.94797.005-.34598-.11-.68359-.324-.95494-.217-.27553-.673-.41295-1.366-.41295h-1.055V3.18081Zm1.069 4.21807h-1.069V5.75127h.787c.264-.00837.528.01046.788.05511.157.03557.296.12625.39.25669.105.14509.158.32018.152.49945 0 .29157-.079.50432-.246.63756-.166.13253-.433.1988-.802.1988Zm2.797-4.21807h-.586v4.75657h.586V3.18081Zm1.539 0h-.535v4.75657h.593l2.35-3.75699v3.75699h.534V3.18081h-.585l-2.357 3.76606V3.18081Zm2.046-1.14258h-.368c-.018.12765-.076.24553-.167.33621-.061.04465-.13.07604-.203.09347-.056.01326-.114.01814-.173.01396-.073.00348-.145-.00907-.211-.03697-.044-.01814-.084-.04325-.121-.07394-.057-.05302-.102-.11649-.133-.18764-.02-.04674-.034-.09627-.041-.14719h-.368c.012.11649.036.22113.07.3146.048.12765.117.23368.204.31738.172.15067.395.2288.622.21833.226.01186.446-.06696.614-.21833.164-.1695.262-.39342.275-.62988ZM104.43 19.1177c.044.0069.094.0104.144.0132.051.0028.137.0063.232.0063.674 0 1.216-.1897 1.626-.5706.419-.3795.795-1.047 1.127-2.0026.608-1.7481 1.145-2.8774 1.613-3.388.214-.247.48-.4437.778-.5762.191-.0851.393-.143.599-.1716.116-.0161.232-.023.35-.0209.415-.0119.821.129 1.142.3955.318.2643.476.5789.476.9438.002.0404.001.0809-.002.1213-.002.0258-.005.051-.009.0761l-.01.0544-.013.0565-.015.0502c-.011.0349-.024.0698-.039.1039-.024.053-.052.104-.084.1528-.028.0432-.06.0844-.095.1235-.05.0537-.107.1011-.168.1416-.045.03-.093.0558-.144.0774-.054.023-.11.0404-.166.0523-.069.0147-.138.0209-.208.0195-.122 0-.248-.0279-.379-.0851-.147-.0641-.302-.1646-.467-.3013-.311-.2574-.556-.385-.744-.385-.253 0-.47.1311-.665.3989-.195.2679-.47.9334-.846 1.9992-.332.9438-.614 1.61-.853 2.0097-.226.378-.52.7101-.867.9793.976.5218 2.166 1.8771 3.57 4.0653.427.6571.752 1.1552.976 1.4942.224.3236.441.551.658.6836.217.1318.52.2406.91.3229v.4158h-3.172c-.504-.8755-.956-1.6476-1.359-2.3159-.153-.2553-.299-.496-.438-.7213-.185-.2999-.357-.5726-.517-.8196-.405-.6285-.725-1.0826-.961-1.363-.272-.3209-.533-.5671-.782-.7394-.287-.1974-.559-.2964-.822-.2964h-.188c-.032 0-.063.002-.093.0055l-.095.0112v3.983c0 .4053.04.7338.122.9863.036.1123.081.21.134.2923.036.0558.076.1046.12.1465.253.2406.766.3794 1.553.4122l.008.4158h-5.963v-.4039c.774-.0195 1.287-.1451 1.547-.3851.26-.2406.384-.7261.384-1.4523V14.938c0-.6962-.131-1.1684-.384-1.4195-.253-.2512-.773-.3851-1.547-.4186v-.4157h5.963l-.008.4157c-.357.0126-.659.0475-.906.1061-.283.0676-.494.166-.633.2964-.26.2449-.39.7192-.39 1.4356v4.1797Zm-29.6978 1.9601h4.5606l-2.197-5.7408-2.3636 5.7408Zm-3.9317 5.3048v-.4157c.3976-.0133.7223-.1353.9608-.3627.2386-.2281.5138-.6962.8022-1.3923l4.908-11.7607h.4192l4.7559 11.9741c.0767.1995.1545.3781.2323.5357.1566.316.3139.5476.4684.6983.0865.0837.1831.1513.2898.203.1786.0872.3857.1297.6208.1297h.1015v.3962H79.365v-.4213c.2985-.0077.5409-.0342.7286-.0802.1346-.0328.241-.0754.3194-.1277.1877-.1255.2822-.346.2822-.6633-.0014-.1089-.0136-.217-.0366-.323-.0081-.0579-.0203-.1151-.036-.1709-.0139-.0481-.031-.0963-.0505-.143l-1.0048-2.5893H74.45l-.845 2.1743c-.0468.1102-.0883.2225-.1245.3369-.0297.0934-.0558.1876-.0782.2832-.0443.1534-.0687.3118-.0722.4715 0 .2839.1015.4918.3108.6264.0701.0454.1538.083.2504.113.1925.0607.4363.0921.7251.0921h.1158v.4157h-3.9317Zm-11.5134 0 .0073-.4157c.0597-.0014.1179-.0035.1744-.007.0611-.0035.1203-.0077.1775-.0132.0757-.007.1479-.0154.2166-.0252.1075-.0153.2069-.0348.2975-.0578.0778-.0196.1497-.0426.2152-.0677.1549-.06.2759-.1346.3642-.2246.2385-.2442.3543-.7199.3543-1.4188v-9.2195c0-.7129-.1158-1.1872-.3543-1.4251-.2386-.2372-.7227-.369-1.4527-.4095v-.415h9.8295l.3687 3.6021h-.3687c-.2965-.9919-.6941-1.7013-1.1928-2.1275-.5057-.429-1.1925-.6431-2.0525-.6431h-1.5755c-.5133 0-.8457.0725-1.0048.2176-.159.1451-.2455.5287-.2455 1.1419v3.9202h1.084c2.1899 0 3.7584.2867 4.7196.8643.9612.5782 1.4383 1.5081 1.4383 2.7916 0 1.326-.4481 2.3116-1.3372 2.9589-.889.6467-2.2548.9668-4.0907.9668l-5.5724.0063Zm3.7584-1.778c0 .3885.0795.6529.2312.7854.1517.1319.5636.2009 1.2071.2009h.39c.0858 0 .1702-.0021.2525-.0049l.1029-.0049c.0753-.0041.1492-.0104.2218-.0174l.1231-.0146.0401-.0049.1413-.021c.6483-.1081 1.1711-.3452 1.5684-.7108.564-.5182.8531-1.2674.8531-2.244 0-1.0163-.3181-1.7717-.9396-2.2593-.6215-.4883-1.6047-.7366-2.9273-.7366h-.4045c-.405 0-.6505.0362-.7373.113-.0869.076-.1228.2734-.1228.6034v4.3157Zm21.8559 1.3623-.007.4157 5.6442-.0035v-.4157c-.7443-.0328-1.2284-.1716-1.4669-.4122-.2386-.2414-.3544-.7164-.3544-1.4251V20.374c0-.0684.0035-.1305.0105-.1863.0056-.0453.0132-.0865.0234-.1242.0062-.0237.0136-.046.0219-.0669.0182-.0461.0408-.0837.067-.1137.0394-.044.0924-.0774.1608-.0998.0383-.0125.0816-.0223.1304-.0279.0415-.0049.0865-.0076.1354-.0076h5.3191c.1807 0 .3115.039.3767.122.0718.0795.1077.2477.1077.5044v3.7751c0 .406-.0432.7359-.1259.9891-.023.0712-.0495.136-.0788.1953-.0471.0949-.1018.1744-.1639.2379-.2386.2434-.73.376-1.4673.3955l-.007.4157h5.6666v-.4157c-.73-.0195-1.2145-.1549-1.4673-.4025-.2529-.2476-.3757-.7254-.3757-1.4349v-9.188c0-.7339.1228-1.2152.3687-1.4523.1245-.1179.3125-.2086.5636-.2721.2438-.0621.5472-.0976.9107-.1074v-.4255h-5.6666v.4255c.3889.0195.707.0663.9564.1395.2417.0705.4188.166.5329.286.098.1032.1768.2476.2347.4332.0785.2504.1189.5755.1189.9758v3.358c0 .2707-.0286.452-.0934.5413-.0652.0893-.1953.1354-.391.1354h-5.3042c-.039 0-.076-.0014-.1105-.0042-.0562-.0042-.1064-.0119-.1507-.0223-.0506-.0119-.0931-.0279-.1276-.0482-.0238-.0139-.0436-.03-.0597-.0474-.0722-.0788-.1158-.2476-.1158-.5043v-3.4083c0-.7156.1228-1.1914.3614-1.4285.1541-.1535.4136-.2658.7742-.3369l.12-.0217c.1692-.0272.3575-.0467.5657-.0579v-.415h-5.6442v.415c.7373.0398 1.2357.1814 1.4743.429.2459.2477.3686.7199.3686 1.416v9.1853c0 .7157-.1227 1.1915-.3543 1.4349-.2316.2441-.73.376-1.4816.4025Zm-20.5117 10.353-.1158-.1353c-.1217.1499-.2435.2825-.3652.3969-.1674.1569-.3348.2804-.5022.369-.3083.159-.6508.2385-.9972.2323-.1799.0034-.3585-.0238-.5287-.0789-.0771-.0251-.1524-.0558-.2253-.092-.234-.1172-.4367-.2888-.5905-.5009-.2222-.2874-.3732-.6271-.4534-1.0219-.0446-.2211-.067-.4597-.067-.7164 0-.715.1737-1.2918.5277-1.7355.1619-.212.3711-.3829.6111-.498.2399-.1158.5036-.173.7694-.1667.3794-.0119.7502.1172 1.0407.3627.2892.2448.4988.6013.6432 1.0714h.152l-.1447-1.6769h-.1371c.0028.0691-.0202.1367-.0652.1898-.0167.0167-.0356.0306-.0562.0425l-.0233.0112c-.0297.0125-.0618.0188-.0938.0188-.1793-.037-.3558-.0872-.5277-.15-.0538-.0174-.1075-.0335-.1622-.0481l-.0611-.0154-.0708-.016-.0955-.0195c-.1741-.0328-.3509-.0496-.5284-.0502-.1838 0-.3599.0146-.5288.0439-.2793.0481-.5378.1374-.7739.2672-.0474.0258-.0938.0537-.1395.083-.0488.0314-.0966.0648-.1433.1004-.1082.0816-.211.1737-.308.2755-.4914.5169-.7373 1.1684-.7373 1.9692s.2312 1.4467.7083 1.935c.4698.4897 1.0987.7345 1.8862.7345.4112.007.8172-.0927 1.1782-.2901.3749-.2184.6923-.5239.9253-.8915Zm.2239 1.0617.0073-.1563c.2891-.0084.4841-.0579.5852-.1507.0635-.0579.104-.1492.1256-.2748.0129-.0746.0192-.1618.0192-.2609v-3.4842c0-.0998-.007-.187-.0206-.2616-.023-.1284-.0649-.2204-.1242-.2769-.0498-.0482-.1304-.0844-.2392-.1103-.0963-.023-.2145-.0376-.3533-.0446v-.1576h3.9823l.1517 1.3616h-.1517c-.1228-.3753-.2818-.6432-.4841-.8043-.2027-.1611-.4845-.2386-.8311-.2386h-.6362c-.2096 0-.3397.0272-.4119.0837-.0185.014-.0335.0342-.0457.06-.0052.0112-.0101.0231-.0143.0363-.0255.076-.0342.1876-.0342.3355v1.4823h.4339c.889 0 1.5248.1081 1.9151.3265.3903.219.5783.5699.5783 1.0547 0 .2204-.0349.4157-.105.5866-.0889.2176-.2347.3948-.437.5322-.3613.2435-.9107.3634-1.6553.3634l-2.2548-.002Zm1.5248-.6718c0 .1451.029.2463.0942.2965.0649.0509.2239.0767.4841.0767h.159c.4336 0 .7663-.0984.9975-.2951.2239-.1953.3397-.4785.3397-.8475 0-.1555-.0212-.295-.0631-.4178-.0621-.1807-.1692-.3265-.3198-.436-.0987-.0718-.2184-.1304-.3596-.1744-.0502-.016-.1029-.03-.1584-.0418-.0767-.0168-.1586-.03-.2455-.0398-.1269-.0146-.2651-.0223-.4147-.0223h-.1664c-.1663 0-.2601.014-.2964.0419-.0359.0286-.0506.1039-.0506.2288v1.6308Zm3.3249.5155v.1563l4.0109.0034.3617-1.2702-.1301-.0725c-.1587.4157-.3321.6905-.5201.821-.1879.1311-.4987.1967-.9249.1967h-1.07c-.1301.0007-.217-.0272-.2602-.0823-.0077-.0098-.0147-.0216-.021-.0356l-.0104-.0272c-.0084-.0251-.0154-.0558-.0206-.0914-.0087-.0593-.0133-.1325-.0133-.2197v-1.5472c0-.1123.0217-.182.0436-.2085.0217-.0258.0796-.0398.1661-.0398h.9249c.15 0 .278.0091.384.0272.1444.0251.248.067.3104.1263.1078.1018.1657.3027.188.6019h.1371v-1.7766h-.1371c-.0223.2846-.0722.4736-.181.5748-.1085.1011-.3397.1513-.7014.1513h-.9176c-.0415 0-.0757-.0028-.1032-.0076-.0395-.0077-.0649-.021-.0775-.0391l-.0104-.0244-.0105-.03c-.0147-.0474-.0199-.0977-.0154-.1472v-1.3958l.0007-.0502c.0011-.0377.0039-.0712.0074-.1011.0049-.0405.0122-.074.0219-.1005.0049-.0132.0102-.0244.0161-.0342l.0084-.0118.0108-.0112c.0216-.0195.0537-.0335.0976-.0425.0147-.0035.0307-.0063.0482-.0084.0352-.0042.0756-.0063.1217-.0063h1.1562c.3327 0 .5563.0579.6864.1758.1227.1172.2099.3404.2608.6689h.1371l-.0579-1.1446h-3.9174v.1576c.2745.0147.4555.0691.542.1597.0868.0907.1301.2693.1301.5344v3.4842c0 .1179-.007.2183-.022.3014-.0192.1067-.052.1848-.1008.2343-.0868.0879-.2675.1374-.5493.1507Zm6.4397-2.7225c-.0087.0683.0098.1374.0506.1925.0513.0398.1158.0586.1807.053.4628 0 .8091-.0969 1.0407-.2909.0701-.0586.1294-.1262.1782-.203.03-.0467.0562-.0969.0782-.1499.0139-.0335.0261-.0684.0369-.104.0154-.0523.0272-.1074.036-.1653.0118-.0781.0177-.1604.0177-.2483 0-.1514-.0174-.2874-.0519-.4081-.0492-.1702-.1329-.3104-.2515-.4206-.195-.1848-.4987-.279-.8963-.279-.1587 0-.2745.0265-.3324.0788-.0579.0523-.0869.1716-.0869.3627v1.5821Zm-1.4959 2.8788v-.1563c.2965-.0056.4845-.0579.5706-.1597.0872-.1026.1301-.33.1301-.685v-3.3615c0-.09-.0045-.1695-.0139-.2379-.0049-.0369-.0115-.0704-.0192-.1011-.0143-.0565-.0335-.1033-.0575-.1388-.0119-.0175-.0252-.0328-.0395-.0454-.0551-.0488-.1555-.0844-.2964-.1067-.0788-.0125-.1706-.0216-.2742-.0272v-.1576h2.175c.5786 0 1.0121.1137 1.3159.3397.1081.0809.1953.175.2626.2825.0266.0425.0499.0872.0705.1339.0171.0398.0321.0802.045.1228l.0125.0439c.0077.0286.0147.0572.0203.0865.007.0363.0129.0739.0174.1116.008.0691.0122.1409.0122.2163.0101.302-.0757.5991-.2455.8489-.0938.1297-.2093.2399-.3404.3271-.1123.0754-.2361.1333-.3676.1716-.1657.0481-.3348.0809-.5064.097-.2571.0244-.5152.0349-.7729.0314-.015 0-.0293-.0014-.0436-.0035l-.0293-.0042c-.0579 0-.0935.0091-.1078.0265-.0192.0377-.0272.0809-.022.1235v1.2339c0 .3453.0433.5678.1298.6669.0872.099.2895.1527.6072.1632v.1563l-2.2329.0014Zm4.2645-.1563v.1563l4.3436.0034.39-1.2702-.1371-.0725c-.0893.2141-.1821.3899-.2787.5287-.0917.1311-.1866.2288-.2849.2923-.203.1311-.535.1967-.9979.1967h-1.1635c-.0914 0-.1594-.0112-.2103-.0328-.0293-.0126-.0527-.0293-.0711-.0495-.051-.0544-.0722-.1793-.0722-.3739v-1.5472c0-.1123.0143-.1806.0429-.2085.0572-.0328.1227-.0468.1876-.0398h.9982c.3899 0 .6498.0509.7586.1535.1084.1018.1806.3027.1949.6019h.1521v-1.7766h-.1521c-.0083.1632-.0331.2958-.0749.3976-.0098.0237-.0206.046-.0321.067l-.022.0348-.0126.0175c-.0164.0216-.0341.0411-.0533.0579-.1158.1004-.3687.1513-.7586.1513h-.9909c-.068 0-.1189-.0062-.1548-.0188-.0126-.0042-.0234-.0091-.0321-.0146-.0059-.0042-.0112-.0084-.0154-.0133-.03-.0628-.0418-.1325-.0355-.2016v-1.3958c0-.1681.0286-.2699.0722-.309.0429-.0391.1444-.0572.2884-.0572h1.258c.3544 0 .5999.0586.737.1758.0122.0105.0244.0216.0363.0342l.0324.0376c.0331.0419.0631.0921.0903.1493.0555.1172.0984.2665.1305.4478h.1513l-.0648-1.1446h-4.2495v.1576c.1486.0077.2755.0251.376.0516.0994.0265.1733.0628.2162.1081.0872.0907.1378.2693.1378.5344v3.4842c0 .2693-.0436.4478-.1378.5357-.0935.0879-.2888.1374-.5922.1507Zm8.4923-2.567h.0286c.2822 0 .4991-.0655.6435-.1974.03-.0272.0586-.0593.0858-.0962.0481-.0642.0931-.1437.1353-.2379.0502-.1123.0966-.2455.1402-.3997l.0652-.2965c.0935-.4192.202-.7191.3178-.897.0819-.1332.1935-.2462.325-.3299.1277-.074.2721-.1123.4192-.1116.1692-.0084.3373.039.4772.1346.0164.0118.0317.0244.0464.0383l.0146.0147.0202.023c.0203.0244.0377.0516.0523.0809.0314.0621.0478.1312.0471.2009l.0004.023-.0018.0314c-.0034.0349-.0111.0691-.0233.1019-.0077.0188-.0164.0376-.0265.0551-.0157.0286-.0349.0551-.0572.0788-.0293.037-.0673.067-.1092.0872-.0429.0202-.0893.03-.1367.03-.0862 0-.1877-.0523-.3035-.157-.0798-.0899-.1907-.1457-.3107-.1569-.0837 0-.1622.0642-.2347.1911-.0782.1367-.1497.3474-.2131.6306l-.0475.2009c-.0198.0858-.0369.159-.054.219-.0429.187-.1134.3669-.2093.533-.0708.1276-.173.2343-.2965.3104.2895.2162.6142.6661.9759 1.349.1371.2581.2456.452.3251.5853.075.1471.1841.2741.3177.3697.0206.0132.0415.0251.0628.0362l.054.0265.0548.0231.0663.023c.0708.0216.1437.0362.218.0432v.1646h-1.265c-.0175-.0376-.0367-.0739-.0579-.1095-.73-1.5325-1.2145-2.2991-1.46-2.2991h-.0865v1.5569l.0014.0775.0028.0488c.0052.0746.0153.1402.03.1974.0244.0949.0614.166.1098.2142.0946.092.2965.145.593.1569v.1569h-2.2622v-.1569c.0858-.0021.1632-.0077.2326-.0174.1273-.0175.2264-.0468.2975-.0886.0206-.0119.0391-.0251.0551-.0391.0942-.0914.1448-.2734.1448-.5483v-1.5604h-.1085c-.1193 0-.2996.1932-.542.5804-.1269.203-.2706.4583-.4314.7666-.1294.2476-.27.5294-.4217.8461l-.1004.2176h-1.258v-.1569c.1593-.014.3128-.0663.4478-.1521.135-.0976.2459-.2239.3257-.3704.0722-.1318.1807-.3264.3178-.5852.3616-.6829.6864-1.1321.9758-1.3484-.1259-.0788-.2291-.1862-.3034-.3146-.0959-.1674-.1667-.348-.2103-.5364-.0286-.1018-.0576-.2434-.1005-.4199-.054-.24-.1137-.4276-.1782-.5629-.0823-.1723-.173-.2588-.2703-.2588-.1196.0112-.2309.067-.3107.1569-.0551.0503-.1071.0879-.1556.1144-.0534.0286-.1025.0426-.1482.0426-.0464.0014-.0928-.0084-.1357-.0279-.0429-.0195-.0799-.0488-.1099-.0851-.068-.0788-.1035-.18-.1008-.2839-.0003-.0307.0025-.0607.0081-.09.0073-.0398.0202-.0774.0383-.1137.0314-.0628.0771-.1179.1343-.1597.1364-.0977.3021-.1458.4695-.1368.1248-.002.2483.0252.3613.0796.1151.0572.2162.1395.2965.2406.152.1842.2821.5176.3979.9961.0283.1458.0575.2567.0792.3293.0934.3529.2162.5943.3543.7261.0234.023.0496.0433.0778.0614l.0391.0237.0464.0237c.0251.0112.0516.0216.0791.0307.1148.0377.2518.0565.4074.0565h.0293v-1.6071c0-.0593-.0028-.1144-.008-.1654l-.0081-.0648c-.0038-.0258-.0087-.0502-.0139-.0733-.0244-.1025-.0631-.1799-.1148-.2323-.0509-.0509-.1335-.0892-.2444-.1157-.0939-.0224-.2083-.0363-.3408-.0419v-.1576h2.2622v.1576c-.2965.0098-.4915.0593-.5856.1514-.0189.0188-.036.0404-.0517.0655-.0181.0293-.0338.0635-.0474.1019-.0335.0955-.0523.2204-.0523.3746v1.6029Zm8.2827 2.567v.1563h2.1822v-.1563c-.1307-.0049-.241-.0181-.3309-.0405-.1089-.0265-.1884-.0655-.24-.1157-.0865-.0914-.1297-.2707-.1297-.5386v-1.4181c-.0074-.0648.0083-.1304.0432-.1855.0223-.0195.0488-.0342.0781-.0433.0286-.0083.0586-.0111.0879-.0076h2.0599c.0722 0 .1228.0146.1444.0453.0362.0572.0512.1242.0436.1911v1.4272c0 .2658-.0509.4444-.1444.5371-.0583.0572-.1521.0984-.2818.1228-.0802.0153-.1741.0244-.2818.0279l-.0077.1569h2.1904v-.1569c-.282-.0077-.47-.0593-.564-.1528-.094-.0934-.144-.2741-.144-.542v-3.4717c0-.2783.05-.4603.144-.5503.094-.0893.282-.1381.564-.1451v-.1611h-2.1904v.1611c.0628.0035.121.0084.1747.0153.0227.0028.0443.0056.0652.0098l.0482.0084c.1381.0272.2357.0697.2902.1276.0865.0921.1374.2693.1374.5323v1.2688c.0056.0704-.0074.1409-.036.2051-.0205.0188-.0442.0335-.0704.0425-.0258.0084-.0537.0119-.0816.0084h-2.0529c-.0614.0084-.1235-.0084-.173-.046-.0223-.0349-.0366-.074-.0425-.1144l-.0028-.037c-.0004-.0133.0003-.0265.0021-.0398v-1.2876c0-.2707.0432-.4507.137-.5399.0942-.0893.2822-.1423.5636-.157v-.1576h-2.1822v.1576c.1834.0112.3303.037.4363.0795.0565.0223.1015.0495.1343.0823.0938.0935.1374.2721.1374.5351v3.4716c0 .2707-.0359.45-.1301.542-.0935.0921-.2822.1423-.5779.1528Zm5.8754.1563.007-.1563c.297-.0105.492-.0607.586-.1528.057-.0558.098-.143.121-.2622.006-.03.011-.0621.015-.097.006-.0551.009-.1158.009-.1814v-3.473c0-.263-.051-.4416-.145-.5351-.094-.0934-.296-.1451-.593-.1618v-.1576h2.248v.1576c-.289.0147-.484.0677-.578.157-.094.0892-.145.2706-.145.5399v3.0601l2.53-3.0811-.002-.06-.003-.0565-.005-.0648c-.005-.0398-.011-.0761-.019-.1096-.012-.0481-.026-.0906-.044-.1276-.011-.0216-.023-.0419-.036-.06-.011-.0146-.023-.0286-.036-.0404-.02-.0196-.045-.037-.075-.0524-.027-.0139-.057-.0265-.091-.0376-.107-.0349-.25-.0558-.426-.0635v-.1611h2.254v.1611c-.288.007-.484.0558-.585.1451-.045.0425-.08.1074-.105.1939-.026.0928-.04.2114-.04.3551v3.473c0 .2665.051.4472.153.5406.1.0935.289.1451.577.1528v.1563h-2.254v-.1563c.296-.0084.491-.0579.592-.1507.102-.0927.145-.2713.145-.5357v-3.0601l-2.53 3.0699c0 .2602.051.4352.145.5231.053.0489.135.0865.249.113.089.021.199.0342.329.0398v.1563h-2.248Zm5.883-.157v.157h2.248v-.157c-.296-.0126-.498-.0642-.585-.1521-.087-.0879-.138-.2629-.138-.5238l2.523-3.0699v3.0608c0 .2644-.051.443-.145.5357-.048.0468-.121.083-.22.1082-.097.0244-.219.0383-.365.0418v.157h2.255v-.157c-.289-.007-.484-.0586-.586-.1521-.101-.0934-.144-.2748-.144-.5413v-3.4723c0-.277.043-.4604.144-.549.03-.0286.07-.0523.12-.0726l.053-.0181c.103-.0321.241-.0502.413-.0544v-.1611h-2.255v.1611c.296.0118.484.0628.585.1528.058.0516.098.1311.12.2378.008.0356.013.0747.018.1165.005.0502.007.1053.007.1646l-2.523 3.0811v-3.0594c0-.2693.037-.4514.138-.5406.039-.0349.093-.0642.161-.0879.106-.037.247-.06.424-.0684v-.1576h-2.248v.1576c.297.0167.485.0677.586.1618.101.0935.144.2721.144.5351v3.4723c0 .1075-.007.2002-.021.2791-.004.0265-.01.0509-.016.0739-.023.0823-.056.1451-.1.1883-.093.0921-.289.1423-.593.1521Zm2.169-6.1014c-.102-.2072-.239-.3104-.412-.3104-.036-.0021-.072.0027-.105.0153-.034.0126-.065.0321-.09.0572-.026.0258-.045.0565-.057.09-.013.0342-.018.0697-.016.106 0 .1681.123.3097.362.4213.196.0928.447.1472.743.1639.063.0035.129.0049.196.0049.383 0 .694-.0558.932-.1688.239-.1123.355-.2532.355-.4213v-.0342l-.006-.0349-.01-.0369c-.012-.0335-.031-.0642-.057-.09-.009-.0091-.019-.0174-.03-.0251-.017-.0133-.036-.023-.056-.0307-.018-.007-.036-.0119-.055-.0147l-.02-.0014c-.008-.0006-.018-.0013-.027-.0006-.173 0-.317.1053-.419.3138l-.018.0405-.01.0188c-.019.0412-.044.0789-.075.1109-.03.0321-.066.0593-.106.0796-.128.0411-.264.0586-.398.0502-.139.0091-.278-.0077-.412-.0502-.08-.0412-.144-.1082-.181-.1905-.007-.0125-.014-.0334-.028-.0627Zm-18.8423 6.2584.0069-.1563c.2752-.0133.4559-.0628.5424-.1507.0282-.0286.0519-.0669.0711-.1151.0136-.0348.0248-.0746.0339-.1192.0167-.0831.0251-.1835.0251-.3014v-3.4842c0-.2651-.0436-.4437-.1301-.5344-.0865-.0906-.2672-.145-.5493-.1597v-.1576h3.9244l.0579 1.1446h-.1375c-.0505-.3285-.137-.5524-.2671-.6689-.1305-.1172-.354-.1758-.6798-.1758h-1.1558c-.1378 0-.2243.0181-.2679.0572-.0233.0209-.0404.06-.0513.1179-.009.0495-.0136.113-.0136.1911v1.3958c-.0073.0684.0021.1381.0293.2016.0286.0314.0862.0467.1877.0467h.9106c.361 0 .5996-.0502.7011-.1513.0348-.0349.0652-.0802.091-.1361.015-.0327.0282-.069.0398-.1088.0146-.0502.0261-.1067.0348-.1688.007-.0495.0122-.1032.015-.1611h.1441v1.7766h-.1441c-.0143-.2992-.0795-.5001-.1806-.6019-.1015-.1026-.3401-.1535-.7011-.1535h-.9176c-.0607-.0063-.1221.0077-.1737.0398-.0314.0648-.0436.1374-.0363.2085v1.5472c0 .1932.0213.3181.0649.3739.022.0279.0551.0488.0994.0628.0251.0076.0534.0132.0851.016.0234.0021.0485.0035.0757.0035h1.0697c.4265 0 .7303-.0656.918-.1967.1046-.0726.2047-.1898.3017-.3516.077-.1283.1524-.2853.2263-.4694l.1228.0725-.3544 1.2702-4.0185-.0034ZM17.7491 14.1009c7.6402-.1646 32.0847-.6919 32.2867-7.03405C49.8338.723357 25.3681.196708 17.739.0320872 17.1834.0202289 16.7171.0104632 16.3557 0v14.1337c.3635-.0105.8333-.0209 1.3934-.0328ZM0 22.2315v-4.7956c22.1234 1.0184 46.2488-.8657 49.9493-5.6027l-.0795 4.8703c-7.001 6.347-37.3537 5.7673-48.96543 5.5455L0 22.2315Zm0 3.8833v4.7956l.907509.0175c11.613791.2218 41.961691.8014 48.962291-5.5455l.0795-4.8689C46.2488 25.2498 22.1234 27.1332 0 26.1148Zm0 13.7465v-4.7984c22.1234 1.0212 46.2488-.8622 49.9493-5.5985l-.0795 4.8689c-7.0006 6.347-37.3485 5.7673-48.962291 5.5455L0 39.8613Z"/>
</svg>