<svg viewBox="0 0 178 46" xmlns="http://www.w3.org/2000/svg">
	<path fill="#057A55" d="M92.3565 8.15953c-.0239-.02485-.0363-.05639-.0363-.0908l.0029-.11182c.0009-.06882.0573-.12426.1261-.12426h2.0397c6.0381 0 8.5411 3.95405 7.4011 8.45965-.559 2.2088-2.4167 3.8528-4.6676 4.2074 3.5986.8573 5.9706 4.0219 5.9706 8.0018 0 4.1691-3.5324 8.0095-7.6346 8.0095-4.4024 0-8.0315-3.135-8.9806-6.0807l-5.1325-16.3201v18.4314c0 2.1104 1.7108 3.8212 3.8212 3.8212h.6184c.042 0 .0784.0201.1013.0516.0153.0211.0249.0469.0249.0746v.1778c0 .0697-.0564.1261-.1262.1261h-8.4272c-.0707 0-.1271-.0564-.1271-.1261v-.1778c0-.0698.0564-.1262.1271-.1262h.2505c1.4441 0 2.615-1.1708 2.615-2.615V10.8864c0-1.35914-.7924-2.38565-2.0358-2.38565h-.564c-.0411 0-.0774-.01912-.1003-.04875-.0172-.02102-.0268-.04779-.0268-.07742v-.20262c0-.06977.0564-.12617.1271-.12617h5.1317c2.355 0 4.5447 1.88672 5.2377 4.13571l7.1444 23.1481V10.5777c0-1.31424-1.0657-2.37994-2.3799-2.37994h-.41c-.0201 0-.0392-.00477-.0564-.01338-.0124-.00573-.0239-.01433-.0344-.02485ZM109.874 23c0-11.2859-9.182-20.46813-20.468-20.46813-11.2869 0-20.4681 9.18223-20.4681 20.46813 0 11.2859 9.1812 20.4681 20.4681 20.4681 11.286 0 20.468-9.1822 20.468-20.4681Zm-43.469 0c0-12.7024 10.2977-23 23.001-23 12.702 0 23 10.2976 23 23s-10.298 23-23 23c-12.7033 0-23.001-10.2976-23.001-23Zm87.836 6.5844 1.495-7.0374-5.504-.001-1.405 6.4602c-.059.2513-.095.4931-.095.7225 0 .2294.042.4139.118.5553h-2.699c-.343 0-.516-.1309-.516-.3928 0-.043.013-.1424.042-.3068l2.991-13.7404c.056-.2055.087-.4176.087-.625 0-.2208-.049-.4215-.154-.5984h2.735c.335 0 .499.1128.499.3374 0 .0316-.013.1453-.045.3336l-1.133 5.1584h5.555l1.016-4.627c.065-.2351.094-.4511.094-.648 0-.172-.047-.3565-.137-.5534h2.742c.331 0 .498.1128.498.3374 0 .021-.007.0774-.02.1672l-.026.1664-2.991 13.7136c-.058.2523-.089.4989-.089.7235 0 .2294.037.4138.113.5553h-2.696c-.348 0-.523-.1319-.523-.3928 0-.0125.007-.0516.017-.1166l.031-.1912ZM57.2209 13.8579c1.8332 0 3.1522.3795 3.9665 1.1269.5448.4999.9071 1.1861 1.0858 2.054.087.4243.13.8927.13 1.404 0 .931-.131 2.0349-.4034 3.3061-.3412 1.5923-.7072 2.8864-1.081 3.8852-.3727.996-.8353 1.7988-1.382 2.4029-.5477.604-1.2387 1.0389-2.0703 1.3085-.8382.2724-1.9058.41-3.1904.41-1.1918 0-2.1467-.1663-2.8836-.497-.5381-.2418-.9691-.584-1.2941-1.0256-.1156-.1577-.2179-.3278-.3068-.5104-.3355-.6929-.5008-1.5933-.5008-2.6981 0-1.1451.1376-2.5864.5161-4.3001.3594-1.6249.842-2.9047 1.3419-3.8623.4999-.9568 1.2282-1.6956 2.1897-2.2184.9596-.5219 2.2557-.7857 3.8824-.7857Zm.5228 11.6176c.3766-.7866.7188-1.8781 1.0179-3.2793.3317-1.556.4923-2.7374.4923-3.5412 0-.886-.1816-1.5503-.5458-1.9966-.3613-.4435-.9711-.6643-1.8246-.6643-.4157 0-.7961.0468-1.1402.1405-.2581.0707-.4961.1682-.713.2934-.5037.2906-.9491.8249-1.3372 1.5981-.3842.7665-.7293 1.8542-1.0275 3.2707-.2035.9672-.3383 1.8026-.41 2.507-.0392.3919-.0583.7436-.0583 1.0542 0 .9969.1921 1.7013.5706 2.1228.3814.4244.9711.6337 1.7711.6337.7398 0 1.3648-.1577 1.8762-.4779.5094-.3182.9519-.8726 1.3285-1.6611ZM45.784 27.6384l-.3317 1.5924c-.0353.1567-.0764.2485-.1309.2695-.0526.0287-.2151.0392-.4989.0392h-1.9623c-.1452 0-.2657-.0268-.3612-.086-.0469-.0287-.087-.0641-.1224-.108-.1042-.131-.2093-.3747-.3011-.7331l-1.7156-7.5335-2.3445 2.1658-1.1212 5.036c-.0344.1682-.0611.3106-.0802.4282-.0211.1357-.0325.238-.0325.3078 0 .1844.0525.3613.1558.5228h-2.6762c-.346 0-.519-.1262-.519-.3823 0-.0153.0047-.0564.0162-.1243l.0325-.1806 2.9438-13.5712c.066-.2313.0927-.4406.0927-.6385 0-.1711-.043-.3517-.1347-.5476h2.7068c.3268 0 .4912.1089.4912.3335 0 .0306-.0153.1415-.0468.3288l-1.1804 5.3945 5.2864-4.8717c.2686-.2313.4053-.518.4053-.8764 0-.1424-.0163-.2447-.044-.3087h2.9247c.3594 0 .5381.0955.5381.2848 0 .1472-.1414.3622-.4234.6375l-4.7349 4.4453 1.6955 7.1302c.0669.3651.1606.6279.2743.7981.1119.1653.3871.2475.8211.2475h.3775ZM22.8882 14.7583l-2.0339 9.5291 7.3337-8.8171c.0688-.3393.1042-.6165.1042-.8258 0-.2313-.0354-.4138-.1042-.5476h2.702c.3259 0 .4903.1089.4903.3335 0 .0497-.0172.1616-.0478.3288l-2.9467 13.5225c-.0774.3316-.1166.5801-.1166.7359 0 .196.0555.3709.1616.5238h-2.6839c-.3431 0-.5123-.1271-.5123-.3833 0-.043.0144-.1424.043-.3049l2.0559-9.3695-7.3222 8.6737c-.0899.4378-.1386.7302-.1386.8851 0 .1883.0487.3574.1386.4979h-2.6867c-.1989 0-.3394-.0439-.4215-.1328-.0564-.0612-.0851-.1443-.0851-.2495 0-.0439.0143-.1424.0392-.3049l2.9524-13.5482c.0564-.2065.0851-.4139.0851-.6184 0-.2189-.0459-.4148-.1539-.5907h2.6991c.3288 0 .4932.109.4932.3345 0 .0297-.0153.1415-.0449.3279ZM8.48832 28.8523l1.47478-6.9419H4.53424l-1.38397 6.3703c-.06022.2504-.09463.4884-.09463.714 0 .2255.04206.4071.11661.5457H.511345C.171085 29.5404 0 29.4133 0 29.1581c0-.0248.00382314-.0659.0124252-.1261l.0277178-.1788L2.99543 15.304c.05543-.2064.08315-.4129.08315-.6174 0-.2198-.04779-.4158-.15388-.5907h2.70009c.32879 0 .49128.109.49128.3336 0 .0306-.01434.1414-.04397.3278L4.95574 19.843h5.47666l1.0007-4.5619c.0612-.2304.0937-.4435.0937-.6375 0-.1721-.0459-.3527-.1348-.5477h2.702c.172 0 .2992.0296.3814.0899.0745.0554.1118.1366.1118.2437 0 .0306-.0153.1414-.0459.3278l-2.9486 13.5234c-.0287.1204-.0506.238-.065.3537-.0162.1232-.0248.2437-.0248.3593 0 .1061.0076.2027.0239.2887.0191.0984.0487.1835.0879.2571H8.95761c-.34312 0-.51612-.1262-.51612-.3823 0-.0192.00956-.0794.02676-.1807l.02007-.1242ZM142.28 15.3413l.273 14.3186c0 .2131.061.4186.181.6251h-2.603c-.17 0-.287-.0402-.357-.1185-.062-.0803-.098-.217-.098-.4129l-.044-3.5393h-5.049l-1.561 2.9868c-.034.065-.064.1281-.09.1893-.079.1883-.119.3574-.119.5008 0 .0937.009.173.026.2399.015.0612.037.1118.065.1529h-2.561c-.179 0-.27-.064-.27-.1959 0-.1042.037-.2179.116-.3345l7.671-13.9803c.139-.2514.208-.4855.208-.6977 0-.1883-.05-.3412-.139-.454h3.626c.485 0 .725.2399.725.7197Zm-6.749 9.0647h4.101v-7.9101l-4.101 7.9101Zm-16.372-9.2062c0-.2494-.041-.4415-.118-.5782h9.424l-.271 1.0122c-.076.2972-.177.4855-.289.5581-.112.0736-.365.1119-.751.1119h-5.123l-.905 4.1595h3.151c.775 0 1.434.1119 1.979.3613.383.1749.698.4148.95.7178.107.1281.203.2676.288.4187.15.2676.261.5696.332.9051.064.2992.095.6251.095.9778 0 .5113-.065 1.0743-.203 1.6917-.25 1.1135-.571 2.0119-.946 2.6953-.376.6834-.899 1.1957-1.569 1.5388-.671.3431-1.557.5152-2.65.5152h-5.978c-.203 0-.347-.0459-.431-.1367-.058-.0631-.087-.1491-.087-.2561 0-.043.014-.1424.044-.3078l2.991-13.7614c.022-.1023.038-.2036.049-.3039.012-.109.018-.216.018-.3193Zm5.545 9.1555c0-1.2989-.73-1.9498-2.195-1.9498h-1.813l-1.224 5.7051h2.291c.796 0 1.41-.2007 1.846-.6022.436-.4023.749-1.1249.985-2.1619.069-.2973.11-.629.11-.9912Zm50.282 3.999-.336 1.6153c-.034.1567-.075.2514-.133.2752-.054.0259-.218.0392-.505.0392h-1.988c-.222 0-.384-.063-.492-.1978-.107-.1319-.211-.3814-.308-.7436l-1.738-7.6386-2.379 2.1963-1.136 5.1059c-.077.3651-.114.6136-.114.7474 0 .1883.052.3622.16.5304h-2.714c-.351 0-.528-.1309-.528-.3928 0-.021.017-.1262.05-.3068l2.986-13.7614c.065-.2351.095-.4473.095-.649 0-.0831-.011-.1691-.033-.258-.023-.0946-.059-.1931-.107-.2954h2.746c.332 0 .497.1128.497.3374 0 .0316-.014.1453-.046.3336l-1.198 5.4709 5.363-4.9395c.272-.2351.407-.5257.407-.8889 0-.1452-.013-.2475-.042-.3135h2.964c.366 0 .547.0956.547.2896 0 .1501-.143.3642-.429.6461l-4.802 4.5094 1.721 7.2306c.069.367.163.6355.276.8038.114.1701.394.2542.835.2542h.381Z"/>
</svg>