<svg xmlns="http://www.w3.org/2000/svg" viewBox="0 0 200.1 39.7">
	<path fill="#1d1d1b" d="M74.1 28.8v1.1h1c.4 0 .8.1 1 .3.5.3.7.9.7 1.7 0 .5-.1.8-.2 1.1-.3.5-.8.7-1.5.7h-2.2v-6.1h3.6v1.2h-2.4zm0 2.2v1.5h.8c.3 0 .4 0 .6-.1.1-.1.2-.3.2-.5 0-.3-.1-.5-.2-.6s-.3-.1-.5-.1l-.9-.2zm4.4-3.4h1.2l1.7 6.1h-1.2l-.3-1.1h-1.5l-.3 1.1h-1.2l1.6-6.1zm.1 3.9h1l-.5-2.3-.5 2.3zm4.2-.5v2.6h-1.2v-6.1h1.2v2.3h1.5v-2.3h1.2v6.1h-1.2V31h-1.5zm4.8-.9l1.4-2.6h1.3l-1.8 2.8 1.9 3.3H89l-1.4-3v3h-1.2v-6.1h1.2v2.6zM74 20.7l1.7-3.9h1.1v6.1h-1.2V19L74 22.9h-1.2v-6.1H74v3.9zm5-.4v2.6h-1.2v-6.1H79v2.3h1.5v-2.3h1.2v6.1h-1.2v-2.6H79zm3.6-3.4h2.3c.5 0 .9.2 1.2.5.2.3.3.6.3 1 0 .3-.1.6-.2.8-.1.2-.3.3-.6.4l.6.3c.3.3.4.7.4 1.2 0 .7-.2 1.1-.6 1.4-.3.2-.7.3-1.2.3h-2.2v-5.9zm1.1 1.1v1.2h.9c.1 0 .3-.1.3-.2 0 0 .1-.1.1-.2v-.3c0-.2 0-.3-.1-.4s-.2-.2-.4-.2h-.8v.1zm0 2.4v1.4h1c.2 0 .3-.1.4-.2s.2-.3.2-.5-.1-.4-.2-.5-.3-.2-.5-.2h-.9zm4.7-1.1h2.2v1.1h-2.2v1.4h2.5V23h-3.7v-6.1h3.6v1.2h-2.5l.1 1.2zm6 1.5h1.1c-.1.8-.3 1.4-.6 1.7-.3.4-.8.6-1.5.6s-1.2-.2-1.6-.7-.6-1.3-.6-2.4c0-.9.1-1.7.4-2.2.4-.7 1-1.1 1.8-1.1s1.4.3 1.7.9c.2.4.3.8.3 1.3h-1.1c0-.4-.1-.7-.3-.9-.1-.1-.3-.2-.6-.2s-.5.1-.6.3c-.2.3-.4.9-.4 1.8 0 .8.1 1.3.4 1.6.2.2.4.3.7.3.3 0 .5-.1.6-.2s.2-.4.3-.8zm2.5-2.8h-1.3v-1.2h3.8V18h-1.3v4.9h-1.2V18zm4.2 2.7l1.7-3.9h1.2v6.1h-1.2V19l-1.7 3.9h-1.2v-6.1h1.2v3.9zm4.9 1.1h1.6v-4.9h1.2v4.9h.6v2.6h-1V23h-3.5v-6.1h1.2l-.1 4.9zm5-1.1l1.7-3.9h1.2v6.1h-1.2V19l-1.7 3.9h-1.2v-6.1h1.2v3.9zm5.8 2.4c-.6 0-1.1-.2-1.5-.6-.3-.3-.5-.8-.6-1.3 0-.2-.1-.4-.1-.6v-.7c0-.4 0-.9.1-1.2.1-.6.3-1 .6-1.3.4-.4.9-.6 1.5-.6.8 0 1.5.4 1.8 1.1.3.5.4 1.3.4 2.1 0 .9-.1 1.6-.4 2.1-.3.7-.9 1-1.8 1zm0-1.2c.3 0 .5-.1.7-.3.2-.3.4-.9.4-1.7 0-.8-.1-1.4-.4-1.7-.2-.2-.4-.3-.7-.3-.3 0-.5.1-.7.3-.2.3-.4.9-.4 1.7 0 .8.1 1.4.3 1.7.3.2.5.3.8.3zm4.2-1.6v2.6h-1.2v-6.1h1.2v2.3h1.5v-2.3h1.2v6.1h-1.2v-2.6H121zm4.8 0v2.6h-1.2v-6.1h1.2v2.3h1.5v-2.3h1.2v6.1h-1.2v-2.6h-1.5zm5.6 2.8c-.6 0-1.1-.2-1.5-.6-.3-.3-.5-.8-.6-1.3 0-.2-.1-.4-.1-.6v-.7c0-.4 0-.9.1-1.2.1-.6.3-1 .6-1.3.4-.4.9-.6 1.5-.6.8 0 1.5.4 1.8 1.1.3.5.4 1.3.4 2.1 0 .9-.1 1.6-.4 2.1-.3.7-.9 1-1.8 1zm0-1.2c.3 0 .5-.1.7-.3.2-.3.4-.9.4-1.7 0-.8-.1-1.4-.4-1.7-.2-.2-.4-.3-.7-.3s-.5.1-.7.3c-.2.3-.4.9-.4 1.7 0 .8.1 1.4.3 1.7.3.2.5.3.8.3zm3.1-.7v-1.1h1.9v1.1h-1.9zm4.1-3.2v4.9h-1.2v-6.1h3.9v6.1h-1.2V18h-1.5zm3.7-1.1h2.1c.5 0 .9.1 1.2.4s.5.8.5 1.5c0 .8-.2 1.4-.7 1.7-.3.2-.6.3-1.1.3h-.9v2.1h-1.2l.1-6zm1.1 1.1v1.6h.8c.2 0 .4-.1.5-.2s.2-.3.2-.6-.1-.6-.3-.7c-.1-.1-.2-.1-.4-.1h-.8zm5.3 5.1c-.6 0-1.1-.2-1.5-.6-.3-.3-.5-.8-.6-1.3 0-.2-.1-.4-.1-.6v-.7c0-.4 0-.9.1-1.2.1-.6.3-1 .6-1.3.4-.4.9-.6 1.5-.6.8 0 1.5.4 1.8 1.1.3.5.4 1.3.4 2.1 0 .9-.1 1.6-.4 2.1-.3.7-.9 1-1.8 1zm0-1.2c.3 0 .5-.1.7-.3.2-.3.4-.9.4-1.7 0-.8-.1-1.4-.4-1.7-.2-.2-.4-.3-.7-.3s-.5.1-.7.3c-.2.3-.4.9-.4 1.7 0 .8.1 1.4.3 1.7.3.2.5.3.8.3zm5.2 1l-1-3.9v3.9h-1.2v-6.1h1.6l1 4 1-4h1.6v6.1h-1.2V19l-1 3.9h-.8zm5.2-6v2.2h1c.6 0 1 .2 1.3.6.3.3.4.8.4 1.4s-.1 1.1-.4 1.4c-.3.3-.7.5-1.3.5H158v-6.1h1.1zm-.1 3.3v1.6h.8c.2 0 .4-.1.5-.2s.1-.3.1-.6c0-.2 0-.4-.1-.5s-.3-.2-.5-.2h-.8v-.1zm3-3.3h1.2V23H162v-6.1zm3.3 4.9h1.3v-4.9h1.2v4.9h1.3v-4.9h1.2V23h-6v-6.1h1.2l-.2 4.9zm5.3 1.1v-1.2h.2c.4 0 .6-.2.7-.7.1-.3.1-.7.1-1.3v-2.9h3.4v6.1h-1.2V18h-1.1v2.1c0 .8-.1 1.3-.2 1.8-.3.7-.7 1-1.4 1-.1.1-.3.1-.5 0zm6.6-3.6h2.2v1.1h-2.2v1.4h2.5V23H176v-6.1h3.6v1.2h-2.5l.1 1.2zm4.2 1v2.6h-1.2v-6.1h1.2v2.3h1.5v-2.3h1.2v6.1h-1.2v-2.6h-1.5zm4.8 0v2.6H185v-6.1h1.2v2.3h1.5v-2.3h1.2v6.1h-1.2v-2.6h-1.5zm4.8-3.4v2.2h1c.6 0 1 .2 1.3.6.3.3.4.8.4 1.4s-.1 1.1-.4 1.4c-.3.3-.7.5-1.3.5h-2.1v-6.1h1.1zm0 3.3v1.6h.8c.2 0 .4-.1.5-.2s.2-.3.2-.6c0-.2 0-.4-.1-.5s-.3-.2-.5-.2h-.9v-.1zm2.9-3.3h1.2V23h-1.2v-6.1zm3.3 3.8l1.7-3.9h1.2v6.1h-1.2V19l-1.7 3.9H196v-6.1h1.2v3.9zm-.5-5.3h.8c0 .1 0 .3.1.4s.2.2.4.2.3-.1.4-.2c.1-.1.1-.2.1-.4h.8c0 .4-.2.7-.4.9-.2.2-.5.3-.9.3s-.7-.1-.9-.3c-.3-.3-.4-.6-.4-.9zM73.9 9.9v2.6h-1.2V6.4h1.2v2.3h1.5V6.4h1.2v6.1h-1.2V9.9h-1.5zm4.8-3.5h1.2l1.7 6.1h-1.2l-.4-1.1h-1.5l-.3 1.1H77l1.7-6.1zm.1 3.9h1L79.3 8l-.5 2.3zm4.3 1h1.6V6.4h1.2v4.9h.6v2.6h-1v-1.4H82V6.4h1.2l-.1 4.9zm5.2-1L90 6.4h1.2v6.1H90V8.6l-1.7 3.9h-1.2V6.4h1.2v3.9zm5.9 2.4c-.6 0-1.1-.2-1.5-.6-.3-.3-.5-.8-.6-1.3 0-.2-.1-.4-.1-.6v-.7c0-.5 0-.9.1-1.2.1-.6.3-1 .6-1.3.4-.4.9-.6 1.5-.6.8 0 1.5.4 1.9 1.1.3.5.4 1.3.4 2.1 0 .9-.1 1.6-.4 2.1-.4.6-1 1-1.9 1zm0-1.2c.3 0 .5-.1.7-.3.2-.3.4-.9.4-1.7s-.1-1.4-.4-1.7c-.2-.2-.4-.3-.7-.3-.3 0-.5.1-.7.3-.2.3-.4.9-.4 1.7s.1 1.4.3 1.7c.3.2.5.3.8.3zm4.3-1.6v2.6h-1.2V6.4h1.2v2.3h1.5V6.4h1.2v6.1H100V9.9h-1.5zm4.8-3.5h1.2l1.7 6.1H105l-.3-1.1h-1.5l-.3 1.1h-1.2l1.6-6.1zm.1 3.9h1l-.5-2.3-.5 2.3zm3.1 2.2v-1.2h.2c.4 0 .6-.2.7-.7.1-.3.1-.7.1-1.3V6.4h3.4v6.1h-1.2V7.6h-1.1v2.1c0 .8-.1 1.4-.2 1.8-.3.7-.7 1-1.4 1-.1.1-.3 0-.5 0zm6.4-6.1v2.2h1c.6 0 1.1.2 1.4.6.2.3.3.8.3 1.3 0 .7-.1 1.1-.4 1.4s-.7.4-1.3.4h-2.1V6.2h1.1v.2zm0 3.4v1.5h.8c.2 0 .4-.1.5-.2s.2-.3.2-.6-.1-.5-.2-.6-.3-.1-.6-.1h-.7zm4.5.1v2.6h-1.2V6.4h1.2v2.3h1.5V6.4h1.2v6.1h-1.2V9.9h-1.5zm5-3.5v2.2h1c.6 0 1 .2 1.3.6.3.3.4.8.4 1.4s-.1 1.1-.4 1.4c-.3.3-.7.5-1.3.5h-2.1V6.4h1.1zm0 3.4v1.5h.8c.2 0 .4-.1.5-.2s.1-.3.1-.6c0-.2 0-.4-.1-.5s-.3-.2-.5-.2h-.8zm2.9-3.4h1.2v6.1h-1.2V6.4zm3.4 3.9l1.7-3.9h1.2v6.1h-1.2V8.6l-1.7 3.9h-1.2V6.4h1.2v3.9zm-.5-5.4h.8c0 .1 0 .3.1.4.1.1.2.2.4.2s.3-.1.4-.2c.1-.1.1-.2.1-.4h.8c0 .4-.2.7-.4.9s-.5.3-.9.3-.7-.1-.9-.3-.4-.5-.4-.9z"/>
	<g fill="#0063ab">
		<path d="M44.5 11.1h2.1l-4.3 13.2h-2l4.2-13.2zm3.4 3.5h2l-4.3 13.1h-1.9l4.2-13.1zm-12.3 9.7h.8l2-6.3 1.6 5 1.1-3.3-2-5.9-3.5 10.5zm3.9-11.8l.4-1.1 1.8 6.2-.4 1.2-1.8-6.3zm20.1 4.2c.1.3.1.4.1.8h6c0-.3 0-.3-.1-.7-2-.1-4-.1-6-.1z"/>
		<path d="M65.5 16h-6.1c-.1-.2-.2-.5-.4-.7-.1-.2-.5-.6-.5-.7h2c0-.3-.1-.4-.1-.5-2.1-5.7-6.3-11.3-15.3-11.6-11.4 0-18.3 8.3-18.6 17.5h-.4C26.2 9.2 34 .3 45.1 0c9.4-.3 18.2 5.5 20.4 16z"/>
		<path d="M43 24.3l4.3-13.2h.6l-4.2 13.3-.7-.1zm3.4 3.4l4.2-13.1h.8l-4.2 13.1h-.8zm5.1-11.5c.1-.4.3-1.1.5-1.7h4.8c3 .5 2.7 5.9-.6 6.5 2.5 1.9.3 6.5-2.4 6.5h-5.9c.1-.3.3-.8.4-1.1 1.8-.1 3.5 0 5.3 0 2.3-1.3 2.7-3.8 1.4-5.4 3.5-1.1 2.4-4.9 1.2-4.9-1.9.1-3 .2-4.7.1z"/>
		<path d="M48.4 25.8c.1-.2.2-.6.3-.8h3.8c.9-.4 1.1-1.3.9-2.1h-4.1c.2-.5.4-1.2.6-1.8h4.2c1.3.8.7 4.1-.9 4.6l-4.8.1zm1.7-5.3h4.2c1.2-.2 2-1.5 2.1-2.3 0-.4-.2-1.1-.6-1.2h-4.6l-.2.5h4.2c.6.6 0 2.2-1.1 2.3h-3.9l-.1.7zm-17.8 3.9l4.3-13.3h2.6L35 24.3l-2.7.1zm16.2-11.7l.5-1.6h2l-.5 1.7-2-.1zm2.6 0l.5-1.6h.8l-.5 1.7-.8-.1zm-3 1.2l.2-.6h2l-.2.6h-2zm2.7 0l.2-.6h.8l-.2.6h-.8zm-5.6-4.6l.5-1.6h2l-.5 1.7-2-.1zm2.6 0l.5-1.6h.7l-.5 1.7-.7-.1zm-3 1.2l.2-.6h2l-.2.6h-2zm2.6 0l.2-.6h.6l-.2.6h-.6zm-15 11.3l.2-.8H26v.8h6.4z"/>
		<path d="M26.3 22.6h5.9c-.2.7-.4 1.4-.6 1.8h-.5c.1.2.1.3.1.4 1.8 5.8 5.7 11.6 14.7 12.4 11.3.6 18.8-7.3 19.5-16.5h.4c-.7 10.8-9 19.2-20 19-9.5-.3-17.9-6.5-19.5-17.1z"/>
	</g>
	<path fill="#f19000" d="M20.1.2H0v39.2h20.1c-4.2-4.9-6.8-11.9-6.8-19.6S15.9 5.1 20.1.2z"/>
</svg>