<svg xmlns="http://www.w3.org/2000/svg" viewBox="0 0 123 46">
	<g fill="#363584">
		<path d="M26.3 18.4h-1.9c-.1 0-.2.1-.2.2v3.3c0 .1-.1.1-.1.1h-3.2c-.1 0-.1-.1-.1-.1v-3.3c0-.1-.1-.2-.2-.2h-1.9c-.1 0-.2.1-.2.2v9c0 .1.1.2.2.2h1.9c.1 0 .2-.1.2-.2v-3.4c0-.1.1-.1.1-.1h3.2c.1 0 .1.1.1.1v3.4c0 .1.1.2.2.2h1.9c.1 0 .2-.1.2-.2v-9c0-.1-.1-.2-.2-.2zM37.4 18.7c.1-.1 0-.3-.1-.3H35c-.1 0-.1 0-.2.1l-3.5 3.9h-.1v-3.7c0-.1-.1-.2-.2-.2h-1.9c-.1 0-.2.1-.2.2v9c0 .1.1.2.2.2H31c.1 0 .2-.1.2-.2v-2.5l.4-.4c.1-.1.1 0 .2 0l2.7 3s.1.1.2.1h2.5c.2 0 .2-.2.1-.3l-4-4.2v-.2l4.1-4.5zM50.5 18.4h-1.9c-.1 0-.2.1-.2.2v3.3c0 .1-.1.1-.1.1H45c-.1 0-.1-.1-.1-.1v-3.3c0-.1-.1-.2-.2-.2h-1.9c-.1 0-.2.1-.2.2v9c0 .1.1.2.2.2h1.9c.1 0 .2-.1.2-.2v-3.4c0-.1.1-.1.1-.1h3.2c.1 0 .1.1.1.1v3.4c0 .1.1.2.2.2h1.9c.1 0 .2-.1.2-.2v-9c.1-.1 0-.2-.1-.2zM81.7 20.2c.9 0 1.6.3 2.1.9.1.1.2.1.3 0l1.3-1.2c.1-.1.1-.2 0-.3-.9-.8-2.2-1.4-3.7-1.4-3.2 0-5.2 2.2-5.2 4.8 0 2.6 2 4.8 5.2 4.8 1.5 0 2.8-.5 3.7-1.3.1-.1.1-.2 0-.3L84.1 25c-.1-.1-.2-.1-.3 0-.5.5-1.2.9-2.1.9-1.8 0-2.9-1.3-2.9-2.9 0-1.5 1.1-2.8 2.9-2.8zM105.4 20.3c.1 0 .2-.1.2-.2v-1.4c0-.1-.1-.2-.2-.2h-6.7c-.1 0-.2.1-.2.2v9c0 .1.1.2.2.2h6.7c.1 0 .2-.1.2-.2v-1.4c0-.1-.1-.2-.2-.2h-4.7v-1.9h3.8c.1 0 .2-.1.2-.2v-1.4c0-.1-.1-.2-.2-.2h-3.8v-1.9h4.7zM13 18.4c-.1-.3-.5-.3-.6 0l-4 9.1c-.1.1 0 .3.2.3h2c.1 0 .2-.1.2-.1l.4-.9.1-.1h2.8c.1 0 .1 0 .1.1l.4.9c0 .1.1.1.2.1h2c.2 0 .3-.2.2-.3l-4-9.1zm.4 6.7h-1.6c-.1 0-.1-.1-.1-.1l.8-2.4h.1l.8 2.4c.1 0 .1.1 0 .1zM7.1 24c-.2-.7-.6-1.1-1.3-1.4-.7-.3-1.2-.4-2.6-.5h-.8c-.1 0-.1-.1-.1-.1v-1.4c0-.1.1-.1.1-.1h4.1c.1 0 .2-.1.2-.2v-1.5c0-.1-.1-.2-.2-.2H.2c-.1 0-.2.1-.2.2v8.9c0 .1.1.2.2.2h1.7c1.7 0 2.2 0 2.8-.2 1.3-.3 2-.9 2.4-1.9 0-.1.1-.4.1-.8.1-.6 0-.8-.1-1zm-2.4 1.6c-.3.2-.5.3-1.5.3h-.8c-.1 0-.1-.1-.1-.1V24c0-.1.1-.1.1-.1h1.5c.7.1 1.1.4 1.1 1 0 .3-.1.5-.3.7zM84.2 5c.3 0 1.1-.1 1.8-.1s1.5-.1 1.8-.1c.3 0 .9-.1 1.2-.1.3 0 .9-.1 1.2-.1.3 0 .8-.1 1.2-.1 1.1-.1 1.7-.1 1.8-.2 0 0 .3-.4.6-1 .2-.5.6-1.1.7-1.3s.3-.4.4-.6c0-.1.1-.2.1-.2s.8 1.2 1.6 2.6v.1c.1.2.2.3.3.4.1.1.2.1.4.1h.1c.3 0 .8.1 1.2.1s.9.1 1.2.1c1.2.1 1.7.1 3.6.3.9.1 1.7.1 2.4.2 3.3.2 4.6.3 4.7.3.1 0-.1-.2-.4-.4-.7-.6-1.8-1.2-3.4-2C102.5.9 98.7.1 94 .2c-2.7.1-5.1.6-7.9 1.6-1.3.5-3.5 1.5-4.8 2.3-.9.6-1.9 1.3-1.8 1.4 0-.2 1.5-.3 4.7-.5z"/>
		<path d="M76.9 8.5c.6-.1.9-.1 2.3-.4 1.3-.2 2.1-.3 3.2-.5.4-.1 2-.3 2.6-.4 1.6-.2 3.9-.4 5.7-.5H91.6L92 6c.2-.4.4-.7.4-.7s0-.1-.1-.1h-.8c-2.5.1-5 .4-7.1.7-.7.1-.9.1-1.3.2-.8.2-1.3.2-2.4.5-2.3.6-4 1.2-4.7 1.8-.2.3-.2.3.9.1zM108.2 6.4c-.1 0-.5-.1-.8-.2-.3-.1-.7-.1-.8-.2-.7-.1-1.2-.2-1.7-.3-.2 0-.5-.1-.6-.1-.2 0-.5-.1-.7-.1-.2 0-.5-.1-.7-.1-.9-.1-3.2-.3-4.2-.3h-1.2s.8 1.3.9 1.4c0 0 .5 0 1.9.1 2 .1 3.9.3 5.8.6 1.1.2 1.7.3 3.9.6 1.1.2 2.3.4 2.7.4.4.1.9.1 1 .2h.3s-.3-.3-.6-.5c-.7-.4-1.7-.8-2.9-1.1-.3-.1-.7-.2-.8-.2-.1.2-1.2-.1-1.5-.2zM73.9 12.1c.1 0 .2-.1.4-.1.1 0 .3-.1.4-.1.2-.1 1.6-.5 2.1-.6.6-.2 2.2-.5 3.1-.7 1.6-.3 2.3-.4 4.1-.7 1.4-.2 3.3-.4 4.5-.4h1.3l.4-.5c.5-.8.8-1.3.8-1.3H90.7c-.1 0-.6.1-1.1.1-3.5.4-6.4.8-8.4 1.3-.1 0-.3.1-.5.1-.5.1-1.2.3-1.4.3-.1 0-.4.1-.8.2-1.8.5-3.4 1.1-4.2 1.7-.3.2-.8.6-.8.7 0 .1.3.1.4 0zM110.8 9.5c-.4-.1-1.8-.4-2.2-.5-.1 0-.4-.1-.7-.1-.3-.1-.6-.1-.7-.1-.1 0-.3-.1-.5-.1-1.8-.3-3.7-.6-6.1-.8-.8-.1-1.5-.2-1.6-.2h-.2s.9 1.7 1.1 1.9c0 0 .4 0 .9.1 1.7.1 2.8.2 4.6.4 1.8.2 4.7.7 6.3 1.1.3.1.6.1.8.2.2 0 .6.2 1 .3 1.4.4 2.4.6 2.6.6h.1c0-.1-.5-.5-.8-.7-.8-.5-2.2-1.1-3.9-1.6-.1-.3-.1-.3-.7-.5zM78.6 16.3h7c.7-1.2.8-1.4 3.3-5.4h-1.7c-1.6.2-3.4.4-5.6.9-.4.1-.9.2-1 .2-.1 0-.3.1-.5.1s-.4.1-.7.2c-.5.1-.7.2-1.3.3-.4.1-1.2.4-1.7.6-1.4.5-2.4 1-3.4 1.7-.4.3-1.5 1.3-1.5 1.4h7.1zM104.4 11.1c-.8-.1-1-.1-1.6-.2-.6-.1-1.8-.1-1.8 0 1.8 3 2.5 4.1 3.3 5.4h7c6.2 0 7 0 7-.1s-.9-1-1.4-1.3c-1.6-1.2-3.9-2.1-7.2-2.8-1.6-.4-3.8-.8-5.3-1zM79.6 33.8c.2 0 .5.1.7.2.2 0 .4.1.5.1.1 0 .5.1 1 .2 2.3.5 3.9.7 5.6.9.7.1 1.8.1 1.8 0 0 0 0-.1-.1-.2s-.5-.9-1.1-1.8c-.5-.9-1.1-1.8-1.2-2-.1-.2-.4-.6-.6-.9l-.4-.6h-14c0 .1.8.9 1.1 1.1 1.3 1 3.3 1.9 5.5 2.6.5.2.7.2 1.2.4zM111.3 29.7h-7l-.1.2c-.1.2-1.1 1.8-1.8 2.9-.2.3-.6 1-.9 1.5-.3.5-.6.9-.6.9h1.8c1.3-.1 2.8-.3 4.3-.6 1.6-.3 2.3-.5 3.5-.7 2.8-.7 5-1.6 6.4-2.7.5-.3 1.4-1.2 1.4-1.3 0-.2-.7-.2-7-.2zM79.3 36.5c.1 0 .9.2 1.4.3.2 0 .4.1.5.1 2 .4 5 .9 8.4 1.3.6.1 1.1.1 1.2.1h.2c0-.1-.3-.6-.8-1.3l-.3-.5h-1.3c-1.2-.1-3.1-.2-4.5-.4-1.8-.2-2.6-.4-4.1-.7-.9-.2-2.6-.5-3.1-.7-.5-.1-1.9-.5-2.1-.6-.1 0-.2-.1-.4-.1-.1 0-.3-.1-.4-.1-.2-.1-.4 0-.4 0 0 .1.5.5.8.7.9.6 2.4 1.2 4.2 1.7.3.1.6.2.7.2zM115.7 34c-.3.1-.6.1-.7.2-.5.2-2 .6-2.3.6-.2 0-.5.1-.8.2-1.6.4-4.5.9-6.3 1.1-1.8.2-2.9.3-4.6.4-.5 0-.9 0-.9.1-.1.2-1.1 1.8-1.1 1.9h.2c.1 0 .8-.1 1.6-.2 2.4-.3 4.3-.5 6.1-.8h.4c.1 0 .4-.1.7-.1H108.8c.4-.1 1.7-.4 2.2-.5.5-.1.6-.2.9-.3 1.7-.5 3.1-1.1 3.9-1.6.3-.2.8-.6.8-.7-.1-.5-.4-.4-.9-.3zM83.1 39.8c.4.1.6.1 1.3.2.6.1 1.7.2 2.5.3 1.2.1 3.2.3 4.4.3h1.2c0-.1-.6-1.1-.8-1.3-.1-.1-.1-.1-2-.2-3.1-.2-4.9-.4-10.5-1.3h-.1c-1.6-.3-1.8-.3-2.1-.3h-.2c-.2 0-.4-.1-.5-.1-.3 0-.4-.1-.4 0s.4.4.8.6c.8.4 2.3.9 4 1.3 1.1.3 1.6.4 2.4.5zM113.6 37.4c-.1 0-.5.1-.9.1-.4.1-1.8.3-3.1.5l-.5.1c-2 .3-2.3.4-2.7.4h-.4c-2.2.3-3.7.4-5.6.6-1.5.1-1.9.1-1.9.1-.1.1-.9 1.4-.9 1.4h1.2c1 0 3.3-.2 4.2-.3h.7c.4 0 .7-.1 1.3-.2 1.1-.1 2.3-.4 3.4-.6.2-.1.5-.1.6-.1s.3-.1.4-.1c.1 0 .4-.1.6-.2 1.5-.4 2.5-.7 3.3-1.2.4-.2.8-.5.8-.6 0 .1-.2.1-.5.1z"/>
		<path d="M104.6 41.1c-.3 0-.8.1-1.2.1h-.4c-.3 0-.6 0-.8.1-.3 0-.9.1-1.2.1-.3 0-.9.1-1.2.1-.3 0-.8.1-1.2.1-.4 0-.9.1-1.2.1h-.1c-.2 0-.3 0-.4.1-.1.1-.2.2-.3.4 0 0 0 .1-.1.1-.5 1-1.5 2.5-1.5 2.5l-.2-.2c-.1-.1-.2-.4-.4-.6-.1-.2-.5-.8-.8-1.3-.3-.5-.6-.9-.6-1 0 0-.6-.1-2.9-.3-.3 0-.9-.1-1.2-.1-.3 0-.9-.1-1.2-.1-.7 0-1.3-.1-2.3-.2-.3 0-1.7-.1-3-.2s-2.5-.2-2.6-.2h-.3c-.1.1 1.3 1.1 2.6 1.8 1.9 1.1 4.1 2 6 2.5 2.3.7 4.3.9 6.9.9 2.4 0 4.2-.2 6.3-.7 1.8-.5 3.4-1.1 5.3-2 1-.5 1.2-.6 1.7-.9 1.1-.6 2.3-1.5 2.1-1.6.1.1-1.6.2-5.8.5zM122.8 27.5l-4-9.1c-.1-.3-.5-.3-.6 0l-4 9.1c-.1.1 0 .3.2.3h2c.1 0 .2-.1.2-.1l.4-.9.1-.1h2.8c.1 0 .1 0 .1.1l.4.9c0 .1.1.1.2.1h2c.2 0 .3-.2.2-.3zm-3.5-2.4h-1.6c-.1 0-.1-.1-.1-.1l.8-2.4h.1l.8 2.4c.1 0 0 .1 0 .1zM57.8 18.3c-3.2 0-5.2 2.2-5.2 4.8 0 2.6 2 4.8 5.2 4.8s5.2-2.2 5.2-4.8c0-2.6-2-4.8-5.2-4.8zm0 7.7c-1.8 0-2.9-1.3-2.9-2.9 0-1.6 1.1-2.9 2.9-2.9s2.9 1.3 2.9 2.9c0 1.6-1.1 2.9-2.9 2.9zM74.8 23.1c0-2.6-2-4.8-5.2-4.8s-5.2 2.2-5.2 4.8c0 2.6 2 4.8 5.2 4.8s5.2-2.2 5.2-4.8zM69.6 26c-1.8 0-2.9-1.3-2.9-2.9 0-1.6 1.1-2.9 2.9-2.9s2.9 1.3 2.9 2.9c0 1.6-1.1 2.9-2.9 2.9zM90.9 27.9h1.8c.1 0 .2-.1.2-.2v-1h.3c2 0 3.6-1.6 3.6-3.6s-1.6-3.6-3.6-3.6h-.3v-.9c0-.1-.1-.2-.2-.2h-1.8c-.1 0-.2.1-.2.2v.9h-.3c-2 0-3.6 1.6-3.6 3.6s1.6 3.6 3.6 3.6h.3v1c0 .1.1.2.2.2zm2-6.6c.9.1 1.7.9 1.7 1.8s-.7 1.7-1.7 1.8v-3.6zM89 23.1c0-.9.7-1.7 1.7-1.8v3.6c-1 0-1.7-.8-1.7-1.8zM109.4 18.5h-2v9.2c0 .1.1.2.2.2h1.8c.1 0 .2-.1.2-.2v-3.6h2c1.6 0 2.8-1.3 2.8-2.8 0-1.6-1.3-2.8-2.8-2.8h-2.2zm2.9 2.8c0 .5-.4.9-.9.9h-1.7v-1.8h1.7c.5 0 .9.4.9.9z"/>
	</g>
</svg>