<svg xmlns="http://www.w3.org/2000/svg" viewBox="0 0 166 20">
	<path fill="#C8102E" d="M1.01631 1.80762h5.30748v5.87211H.22583l.79048-5.87211ZM6.32374 19.5371c-.79048-.3388-1.69388-.9034-2.71021-1.581-1.58095-1.1292-2.59728-2.5972-3.161905-4.0653H6.32374v5.6463Z"/>
	<path fill="#1E1A34" d="M13.777 9.48653h8.0177V1.80762h3.049V19.424h-3.049v-7.3402H13.777v7.3402h-2.9361V1.80762h2.9361v7.67891ZM0 11.2927V9.5988h6.43674V12.1961H0v-.9034ZM110.328 6.88844c.565-.22585 1.355-.33878 2.259-.33878 4.065 0 6.775 2.71021 6.888 6.66264 0 3.8394-2.823 6.6625-7.001 6.6625-4.404 0-7.115-3.1619-7.115-8.1306 0-1.9197.226-3.50066.678-5.08161.79-2.82313 2.484-4.62994 6.211-5.42041L118.459 0v2.59728l-7.002 1.3551c-1.581.33878-2.597 1.69388-3.049 3.83946l1.92-.9034Zm-2.371 5.30746c0 2.8232 1.355 5.3075 4.517 5.3075 2.371 0 4.178-1.468 4.065-4.4041 0-2.7102-1.807-4.29113-4.291-4.29113-.452 0-.904.11292-1.242.22585l-3.049 1.58098v1.5809ZM34.668 5.64626c-4.517 0-7.3401 3.16191-7.3401 7.11434 0 3.9523 2.7102 7.1142 7.3401 7.1142 4.517 0 7.3402-3.1619 7.3402-7.1142 0-3.83951-2.7102-7.11434-7.3402-7.11434Zm0 11.85714c-2.7102 0-4.517-1.9197-4.517-4.7428 0-2.82318 1.9197-4.74291 4.517-4.74291 2.7102 0 4.517 1.80681 4.517 4.74291 0 2.936-1.8068 4.7428-4.517 4.7428Zm93.954-11.85714c2.146 0 3.839 1.01633 4.743 2.37143V6.09796h2.484V19.4231h-2.484v-1.9197c-.904 1.3551-2.597 2.3714-4.743 2.3714-4.517 0-6.889-3.2748-6.889-7.1142 0-3.83951 2.372-7.11434 6.889-7.11434Zm.226 11.85714c2.597 0 4.291-1.6939 4.291-4.517v-.4517c0-2.82313-1.694-4.51701-4.291-4.51701-2.71 0-4.517 1.91973-4.517 4.74291 0 2.8231 1.807 4.7428 4.517 4.7428ZM50.8164 6.0984h-6.2109v13.3252h2.5973v-3.2748h3.6136c3.6136 0 5.8721-1.9198 5.8721-5.0817-.1129-3.04897-2.2585-4.9687-5.8721-4.9687Zm-.1129 7.6789h-3.5007V8.46983h3.5007c1.9197 0 3.1619.90341 3.1619 2.59727 0 1.8068-1.2422 2.7102-3.1619 2.7102Zm97.4545-2.3714h-6.437V6.0984h-2.71v13.3252h2.71v-5.6463h6.437v5.6463h2.597V6.0984h-2.597v5.3075Zm-53.3008 1.2422 5.0816-6.5497h-3.049l-4.0653 5.1946-1.8068.6775V6.0984h-2.7102v13.3252h2.7102v-4.8558l1.581-.5646 4.4041 5.4204h3.2752l-5.4208-6.7755Zm70.8038-6.5497-5.081 6.5497 5.42 6.7755h-3.275l-4.404-5.4204-1.694.5646v4.8558h-2.597V6.0984h2.597v5.8721l1.92-.6775 4.065-5.1946h3.049Zm-89.5494 9.034h-.1129v-9.034h-2.5973v13.3252h2.2585l6.7756-8.9211v8.9211h2.7102V6.0984h-2.3715l-6.6626 9.034Zm-5.6462-5.42039c0 1.24219-.9034 2.37139-2.0326 2.82309 1.5809.4517 2.3714 1.6939 2.4843 3.049 0 2.3715-1.5809 3.8395-4.7428 3.8395H59.06V6.0984h7.0014c3.0489 0 4.404 1.69388 4.404 3.61361Zm-4.517-1.24218h-4.2911v3.16187h4.1782c1.1293 0 1.8068-.6775 1.8068-1.5809 0-.90341-.5646-1.58097-1.6939-1.58097Zm-4.4041 8.69527h4.5171c1.0163 0 2.0326-.5646 1.9197-1.6939 0-1.0163-.7905-1.6939-2.1456-1.6939h-4.2912v3.3878Z"/>
</svg>