<svg xmlns="http://www.w3.org/2000/svg" viewBox="0 0 56 50">
	<path fill="#005BAA" d="M26.3723 12.9226c-1.4234 1.4122-3.209 2.1185-5.3556 2.1185-2.1415 0-3.9209-.7002-5.333-2.1067-1.4122-1.4066-2.1186-3.12882-2.1186-5.16103 0-2.02044.712-3.74264 2.1415-5.15482C17.13 1.20637 18.9156.5 21.0622.5c2.1415 0 3.9209.7002 5.3331 2.10678 1.4121 1.40657 2.1185 3.12877 2.1185 5.16098 0 2.02661-.712 3.74264-2.1415 5.15484Zm-5.9554-.7765c.208.0281.4233.0421.6453.0421 1.2344 0 2.2446-.425 3.0312-1.2748.7921-.8494 1.1829-1.89996 1.1829-3.14564 0-.57855-.0886-1.11561-.2652-1.61063-.2001-.56118-.5135-1.06909-.9407-1.52374-.8034-.8555-1.8197-1.28605-3.0537-1.28605-1.2344 0-2.2446.42495-3.0312 1.27427-.7921.84989-1.1829 1.90047-1.1829 3.14615 0 1.23391.402 2.27884 1.2059 3.13434.4877.5192 1.0534.8819 1.6987 1.0865.2264.0718.463.1245.7097.1575ZM0 14.8001V.735457h3.09401V6.2984h5.70646V.735457h3.09403V14.8001H8.80047V9.15696H3.09401v5.64314H0ZM30.3106.735457V14.7889h6.6819c1.6364 0 2.9224-.3274 3.8581-.9822.9357-.6543 1.406-1.6129 1.406-2.8704 0-.9126-.2181-1.64143-.6598-2.1813-.2988-.36384-.6941-.68395-1.1874-.95584-.0959-.0527-.1956-.10372-.2988-.15305-.1525-.07232-.3134-.14127-.4827-.20574 1.2339-.6946 1.8484-1.70482 1.8484-3.03067 0-.97602-.3218-1.78554-.9649-2.42857-.0964-.09698-.1979-.1878-.3044-.27301-.0656-.0527-.1334-.10316-.2035-.15137-.2635-.1822-.5567-.33412-.8785-.45577-.6463-.243871-1.4093-.365523-2.2872-.365523h-6.5272Zm5.8668 5.689083h-2.853V3.45106h3.0542c.6542 0 1.1538.12613 1.5041.3728.3499.24667.522.60266.522 1.07357 0 1.01583-.7406 1.52711-2.2273 1.52711Zm.8212 5.66606H33.3188V8.99606h3.5761c1.5271 0 2.2907.51128 2.2907 1.52714 0 1.0449-.7288 1.5674-2.187 1.5674Zm18.9958 2.7151h-3.0537V5.58642l-6.1482 9.21928h-2.9107V.741063h3.0542V9.96648L53.1185.741063h2.8759V14.8057ZM0 17.8829v14.0646h3.10018v-4.2999l1.62465-1.6874 4.36268 5.9817h3.71409l-5.98737-8.0947 5.72327-5.9643H8.80047l-5.70646 6.1482v-6.1482H0ZM25.0061 30.07c-1.4234 1.4122-3.209 2.1185-5.3556 2.1185-2.1415 0-3.9209-.7002-5.3331-2.1067-1.4121-1.4066-2.1185-3.1288-2.1185-5.161 0-2.0205.712-3.7427 2.1415-5.1548 1.4234-1.4122 3.209-2.1186 5.3555-2.1186 2.1416 0 3.921.7002 5.3331 2.1068 1.4122 1.4066 2.1186 3.1288 2.1186 5.161 0 2.0204-.712 3.7426-2.1415 5.1548Zm-8.3694-2.0205c.8034.8555 1.8197 1.2861 3.0536 1.2861 1.2345 0 2.2447-.425 3.0313-1.2748.7921-.8494 1.1823-1.8999 1.1823-3.1456 0-1.2345-.4014-2.2789-1.2053-3.1344-.8039-.8555-1.8198-1.286-3.0542-1.286-1.2339 0-2.2447.4249-3.0307 1.2742-.7927.8499-1.1829 1.9005-1.1829 3.1462.0056 1.2339.4076 2.2789 1.2059 3.1343Zm15.5278-10.1666h-3.3351v14.0646h3.0312v-9.1217l3.9266 5.9469h.0801l3.9557-6.0047v9.1795h3.071V17.8829h-3.335l-3.6973 5.9475-3.6972-5.9475ZM3.09401 37.8715v2.4509h3.71461c.76804 0 1.45198.0937 2.05128.282.43671.1368.82802.3246 1.1745.5623.148.1015.2876.2125.4193.3325.8667.7809 1.2973 1.8427 1.2973 3.1865 0 1.4178-.4648 2.5199-1.3836 3.2947-.92391.7753-2.20995 1.1655-3.85758 1.1655H0V35.0813h10.7867v2.7902H3.09401Zm3.39843 5.023H3.10018v3.4556h3.41524c1.43517 0 2.14714-.597 2.14714-1.7855 0-1.1134-.72319-1.6701-2.17012-1.6701Zm11.75716-7.9164-6.0277 14.1622h3.1517l1.2861-3.1518h5.9525l1.2861 3.1518h3.2319l-6.0277-14.1622h-2.8529Zm3.2493 8.278h-3.7371l1.8714-4.5577 1.8657 4.5577Zm7.3305 5.8842V35.0757h3.094v5.5629h5.7065v-5.5629h3.094v14.0646h-3.094v-5.6431h-5.7065v5.6431h-3.094Zm14.369-14.0646v14.059h3.1058v-4.2999l1.6247-1.688 4.3571 5.9879H56L50.0127 41.04l5.7233-5.9643h-3.7371l-5.7064 6.1482v-6.1482h-3.0941Z"/>
</svg>