<svg xmlns="http://www.w3.org/2000/svg" viewBox="0 0 160 32">
	<path fill="#E3000F" d="M9.4466 13.5743c.2444-.6043.355-1.2544.3241-1.9056.0409-.658-.0648-1.3169-.3097-1.92904-.2448-.6122-.6227-1.1622-1.1061-1.6105-1.1538-.8958-2.5954-1.3385-4.053-1.2447H1.9137v-4.4263h6.519V.777861H0V16.4841h4.3019c1.469.0931 2.9183-.377 4.053-1.3147.4748-.4466.8473-.9908 1.0917-1.5951ZM4.2163 8.55706c2.4012 0 3.6018 1.0372 3.6018 3.11164v-.0389.0271c-.0052 2.0823-1.2058 3.1235-3.6018 3.1235H1.8826V8.55706h2.3337Zm18.5768 7.92704h1.9759L17.3243.209961 9.8796 16.4841h1.9837l1.9214-4.3642h7.0947l1.9137 4.3642ZM17.3243 4.13066l2.7772 6.36344h-5.5933l2.8161-6.36344ZM36.29 16.4841h1.8825V.777861H36.29V7.07896h-8.4638V.777861h-1.9137V16.4841h1.9137V8.75146H36.29v7.73264Zm13.6291 0h2.3882L44.746 8.23026 52.1362.777861h-2.3338L42.8478 7.97356V.777861h-1.8903V16.4841h1.8903V8.41696l7.0713 8.06714Zm84.9879 2.0147c-4.691 5.2821-10.136 7.927-17.247 7.8803-7.11.07-12.555-2.5982-17.246-7.8803l-3.166 3.8896c2.637 2.7561 5.806 4.9495 9.314 6.448 3.508 1.4985 7.284 2.2711 11.098 2.2711 3.815 0 7.591-.7726 11.099-2.2711 3.508-1.4985 6.676-3.6919 9.314-6.448l-3.166-3.8896Z"/>
	<path fill="#44413E" d="M154.129 9.0783c1.826-.0052 2.739.7909 2.739 2.3882.03.3295-.007.6619-.11.9764s-.27.6044-.489.8518c-.617.4533-1.378.6638-2.14.5912h-1.493V9.0783h1.493Zm5.517 4.2914c.243-.6042.356-1.2525.333-1.9032l.016-.0077c.032-.6783-.087-1.3553-.348-1.9821-.261-.6269-.657-1.1881-1.161-1.643-1.217-.9634-2.745-1.4452-4.295-1.3536h-1.555V3.4773h5.795V.7779h-8.884v15.7062h4.668c1.594.0889 3.159-.4533 4.356-1.5091.467-.4543.833-1.0011 1.075-1.6053Zm-15.583 3.1378h3.112l.023-.0078V0l-9.848 9.5217V.7779h-3.112v15.5117l9.825-9.5606v9.7785Zm-14.656 0h3.835l.047-.0156-6.885-8.4793L132.9.7779h-3.61l-5.64 6.5657V.7779h-3.072v15.7062h3.072V8.6427l5.757 7.8648Zm-15.177-11.84c.965 1.0848 1.472 2.5011 1.416 3.9519l-.016.0311c.064 1.4562-.437 2.8808-1.4 3.9751-.481.4834-1.053.867-1.682 1.1287-.629.2617-1.304.3965-1.986.3965-.682 0-1.357-.1348-1.986-.3965-.63-.2617-1.201-.6453-1.682-1.1287-.963-1.0943-1.465-2.5189-1.4-3.9751-.069-1.4593.433-2.888 1.4-3.983.978-.963 2.295-1.5027 3.668-1.5027 1.372 0 2.69.5397 3.668 1.5027Zm4.136 7.1737c.407-1.0239.598-2.1207.562-3.2218h-.031c.04-1.0978-.147-2.192-.548-3.2145-.402-1.0224-1.01-1.9513-1.785-2.7289-1.606-1.5227-3.735-2.3715-5.948-2.3715-2.213 0-4.341.8488-5.947 2.3715-.788.7716-1.409 1.6978-1.823 2.7205-.413 1.0228-.611 2.12-.581 3.2229-.03 1.104.167 2.2024.581 3.2264.414 1.0241 1.034 1.9516 1.823 2.7246 1.603 1.5281 3.733 2.3805 5.947 2.3805 2.215 0 4.345-.8524 5.948-2.3805.781-.7763 1.395-1.7054 1.802-2.7292ZM95.7701 9.335c1.556 0 2.333.778 2.333 2.3338l.008-.0078c0 1.4392-.863 2.1549-2.606 2.1549h-1.991V9.335h2.256Zm-.755-5.9355c1.369 0 2.054.5368 2.054 1.6025v.0156c0 1.2058-.537 1.8048-1.618 1.8048h-1.945V3.3995h1.509Zm6.0219 10.071c.216-.575.314-1.1879.287-1.8017l.023.0545c.014-.8305-.228-1.645-.692-2.3338-.478-.7398-1.1989-1.2899-2.0379-1.5558.521-.2853.95-.7138 1.235-1.2349.2849-.5211.4149-1.113.3749-1.7057 0-2.7434-1.7009-4.1152-5.1029-4.1152h-4.667v15.7062h5.266c.785.0589 1.574-.041 2.32-.2936.746-.2526 1.433-.6528 2.0209-1.1766.425-.4434.756-.9685.973-1.5434Zm-16.9359-8.803c.959 1.0872 1.461 2.5032 1.4 3.9519h-.031c.065 1.4562-.437 2.8808-1.4 3.9751-.481.4834-1.052.8669-1.682 1.1287-.629.2617-1.304.3964-1.986.3964-.6818 0-1.3568-.1347-1.9863-.3964-.6294-.2618-1.201-.6453-1.6817-1.1287-.9629-1.0943-1.4647-2.5189-1.4003-3.9751-.0523-1.4529.4608-2.8695 1.4314-3.9519.978-.963 2.2954-1.5027 3.6679-1.5027 1.373 0 2.69.5397 3.668 1.5027Zm4.102 7.1783c.414-1.024.612-2.1224.581-3.2264.031-1.1029-.167-2.2001-.581-3.2229-.414-1.0227-1.034-1.9489-1.823-2.7205-1.605-1.5227-3.734-2.3715-5.947-2.3715-2.2129 0-4.3415.8488-5.9472 2.3715-.7886.7716-1.4092 1.6978-1.8229 2.7205-.4136 1.0228-.6114 2.12-.5809 3.2229-.0306 1.104.1671 2.2024.5807 3.2264.4136 1.0241 1.0343 1.9516 1.8231 2.7246 1.603 1.5281 3.7326 2.3805 5.9472 2.3805 2.215 0 4.344-.8524 5.947-2.3805.789-.773 1.41-1.7005 1.823-2.7246Zm-20.9052 4.6383h3.1117L70.4329.7779h-3.1116v5.99h-6.6979v-5.99h-3.1117v15.7062h3.1117V9.3973h6.6745v7.0868Z"/>
</svg>