<svg xmlns="http://www.w3.org/2000/svg" viewBox="0 0 190 36">
	<g fill="#1971C0">
		<path d="M37.5845 32.1051h4.3423v-7.5408h7.0858v7.5408h4.3424V13.9399h-4.3424v6.8558h-7.0858v-6.8558h-4.3423v18.1652Zm28.6789.4554c5.8361 0 9.469-3.9732 9.9399-9.5957 0-5.6167-4.442-9.5957-9.9399-9.5957-5.4959 0-9.8247 3.8875-9.8247 9.48 0 5.4871 4.3278 9.7114 9.8247 9.7114Zm0-3.9981c-3.1864 0-5.0314-2.7337-5.0314-5.7118 0-2.8759 1.9794-5.4823 5.0314-5.4823 3.0078 0 5.0313 2.5364 5.0313 5.4823 0 2.9324-1.8593 5.7118-5.0313 5.7118Zm12.7976 3.5427h7.1965c.685 0 1.3695 0 2.0585-.1148 2.7239-.4563 4.8018-2.2776 4.8018-5.1421 0-2.218-1.7088-3.8226-3.7721-4.2236 1.8485-.744 2.9689-1.9026 2.9689-4.0021 0-3.503-3.14-4.6826-6.1713-4.6826h-7.1966v18.1652h.1143Zm4.2236-3.5427v-4.1129h2.3987c.8631 0 1.9235.0831 2.5572.76.4157.4434.5224 1.1284.3246 1.7021-.1938.5738-.6608 1.0333-1.2114 1.2945-1.7495.4936-3.169.3563-4.0691.3563Zm0-7.426v-3.7686h2.1692c.9144 0 1.5994.1147 2.0584.4549.455.3443.685.685.685 1.3695 0 .6845-.2295 1.144-.685 1.4842-.455.3442-1.144.455-1.9437.455h-2.2839v.005Zm21.8234 11.4241c5.836 0 9.469-3.9732 9.94-9.5957 0-5.6167-4.442-9.5957-9.94-9.5957-5.4961 0-9.825 3.8875-9.825 9.48 0 5.4872 4.3272 9.7114 9.825 9.7114Zm0-3.9981c-3.186 0-5.032-2.7341-5.032-5.7118 0-2.8761 1.98-5.4823 5.032-5.4823s5.031 2.5722 5.031 5.4823c0 2.9326-1.859 5.7118-5.031 5.7118Zm12.797 3.5427h7.197c3.421 0 6.852-1.792 6.852-5.6011 0-3.9238-3.33-5.6011-6.852-5.6011h-2.858V17.483h8.34v-3.5431h-12.797v18.1652h.118Zm4.343-3.5427v-4.2276h2.398c1.468 0 2.973.4702 2.973 2.1692 0 1.6371-1.425 2.1691-2.857 2.1691h-2.399l-.115-.1107Zm10.395 3.5427h4.797l1.37-3.5427h7.086l1.369 3.5427h4.913l-7.542-18.1652h-4.227l-7.656 18.1652h-.11Zm7.315-7.0813 2.284-6.2821 2.284 6.2821h-4.568Zm13.593 7.0813h4.343v-7.5408h7.085v7.5408h4.343V13.9399h-4.343v6.8558h-7.085v-6.8558h-4.343v18.1652Zm19.654 0h4.342v-8.34l6.741 8.3405H190l-8.341-9.8247 7.885-8.3405h-5.481l-6.512 7.426h-.115v-7.4265h-4.342v18.1652h.111Z"/>
		<path d="M6.85071 12.6829c-2.62817 2.2879-3.8874 4.2276-5.48635 7.2005-1.943701 4.6826-2.169175 10.0547 1.7142 13.7121C14.162 41.4806 29.4695 21.3717 20.444 14.1716c-3.3131-1.8289-9.0254.2295-12.11262 3.3132 3.77622-2.8582 13.66832-5.1024 9.60322 4.2236C12.1 35.0918-3.08874 26.9652 9.47938 11.4282c.11475-.2295 2.39872-3.08365-2.51342 1.2547h-.11525ZM10.0496.11475c-.11474-.225474-2.98449 1.24312-3.77264 1.9437-1.62713 1.453-5.16576 5.75563-2.28392 7.54079 1.13189.70056 7.42196-.26523 10.62446-.57022 10.8423-1.03728 14.7373 1.25468 9.7099 5.48228 7.0858-2.1691 11.4242-11.65363 3.1984-12.91235-6.278-.34022-15.533 1.82895-17.59144 1.48873-1.36945-.2295-1.59945-.57375-.91448-1.9437C9.24938.799726 10.1639.2295 10.0491 0l.0005.11475Z"/>
	</g>
</svg>