<svg viewBox="0 0 145 32" xmlns="http://www.w3.org/2000/svg">
	<path fill="#FF0508" d="M0 30.4238v-17.782h17.7821V1.97656h28.4292V30.4249H0v-.0011Z"/>
	<path fill="#fff" d="M9.66801 24.8035h-.38403l-1.82245-8.1724H4.06592v9.8983H5.8311V18.357h.38403l1.76517 8.1724h2.9925l1.8034-8.1724h.384v8.1724h1.7652v-9.8983h-3.3956l-1.86179 8.1724Zm17.91679 1.7259h6.1961v-1.727h-4.3927v-2.4749h3.7785v-1.6484h-3.7785v-2.321h4.3927v-1.727h-6.1961v9.8983Zm-6.3297-1.4766c-2.0145 0-2.9543-1.5159-2.9543-3.472s.9398-3.472 2.9543-3.472c2.0144 0 2.9543 1.5159 2.9543 3.472s-.9399 3.472-2.9543 3.472Zm0-8.671c-3.0307 0-4.7959 2.0909-4.7959 5.1597 0 3.0689 1.7652 5.2372 4.7959 5.2372 3.0307 0 4.7958-2.1672 4.7958-5.2372 0-3.0688-1.7651-5.1597-4.7958-5.1597Zm13.7733 10.1476h1.9179l2.1481-3.9133 2.3019 3.9133h1.9179l-3.0688-5.1799 2.8779-4.7195h-1.9179l-2.0144 3.5292-2.0527-3.5292h-1.9179l2.7623 4.6611-2.9543 5.2383Z"/>
	<path fill="#4C4C4C" d="M144.428 9.45134V2.00881h-1.61l-3.363 5.76609V2.00881h-1.277v7.44253h1.599l3.379-5.78737v5.78737h1.272ZM141.257.627677c-.472 0-.779-.212187-.825-.627677h-1.039c.015.938774.664 1.45307 1.863 1.45307 1.2 0 1.869-.5132 1.885-1.45307h-1.038c-.046.414394-.368.627677-.846.627677ZM85.6767 1.90551c2.0706-.02588 3.5865 1.47883 3.5652 3.82451.0202 2.34578-1.4946 3.85038-3.5652 3.82461-2.0762.02577-3.5966-1.47883-3.5708-3.82461-.0269-2.34568 1.4946-3.85039 3.5708-3.82451Zm.0517 6.51275c1.3542 0 2.2424-1.01729 2.2424-2.68824 0-1.67085-.8871-2.68813-2.2424-2.68813h-.1045c-1.3542 0-2.2423 1.01728-2.2423 2.68813 0 1.67095.887 2.68824 2.2423 2.68824h.1045ZM52.1967 2.00881h-1.2768v7.44253h1.2768V6.30045h3.4664v3.15089h1.2766V2.00881h-1.2766v3.14968h-3.4664V2.00881Zm7.7254 5.62112h3.3059l.7062 1.82141h1.3396l-2.8914-7.44253h-1.5417l-2.9476 7.44253h1.3284l.7006-1.82141Zm1.6496-4.28715 1.2149 3.14519h-2.4243l1.2094-3.14519Zm10.5226 7.66602V9.45134h-5.839V2.00881h1.2767v6.30615h3.3843V2.00881h1.2712v6.30615h1.1307l.0102 2.69384h-1.2341Zm8.6181-1.55746V2.00881h-1.608l-3.363 5.76598V2.00881h-1.2767v7.44253h1.5978l3.3788-5.78737v5.78737h1.2711Zm11.2042-7.44253h-1.2767v7.44253h1.2767V6.30045h3.4663v3.15089h1.2767V2.00881h-1.2767v3.14968h-3.4663V2.00881Zm11.0314 5.62112h-3.3059l-.7007 1.82141H97.613l2.948-7.44253h1.541l2.892 7.44253h-1.34l-.706-1.82141Zm-.441-1.14196-1.215-3.14519-1.21 3.14519h2.425Zm3.251 1.78543-.524.00559h-.001v1.17344h.665c.659 0 1.142-.15044 1.448-.45694.307-.3066.489-.712.535-1.215.036-.37393.067-.95445.093-1.74387.026-.78942.041-1.46425.041-2.0246v-.86125h2.751v6.29947h1.277V2.00771h-5.252v1.99313c0 .59741-.011 1.20491-.031 1.81679-.01.38424-.024.71508-.04.99284-.01.16547-.021.31219-.033.44005-.062.8051-.332 1.00161-.929 1.02288Zm11.296 1.17794h-3.193V2.00881h1.277v2.79263h1.904c1.661 0 2.45.92858 2.45 2.26826.012 1.20929-.772 2.40291-2.438 2.38164Zm-.151-3.54499h-1.765v2.40861h1.827c.804 0 1.251-.47163 1.251-1.2139.001-.78482-.436-1.19471-1.313-1.19471Zm5.109-3.89754h-1.276v7.44253h1.276V6.30045h3.468v3.15089h1.276V2.00881h-1.276v3.14968h-3.468V2.00881Zm9.755 7.44253h-3.191V2.00881h1.276v2.79263h1.905c1.66 0 2.45.92858 2.45 2.26826.01 1.20929-.774 2.40291-2.44 2.38164Zm-.151-3.54499h-1.764v2.40861h1.827c.804 0 1.251-.47163 1.251-1.2139-.001-.78482-.437-1.19471-1.314-1.19471Zm4.745-3.89754v7.44253h-1.277V2.00881h1.277ZM50.921 12.5045h3.2587c1.4013-.0157 2.403.8724 2.3873 2.3041.0157 1.4329-.986 2.3199-2.3873 2.3098h-1.9819v2.8286H50.921v-7.4425Zm3.097 3.472c.8253 0 1.2767-.4357 1.2767-1.1679 0-.732-.4514-1.1621-1.2767-1.1621h-1.8213v2.3311h1.8213v-.0011Zm4.4186 2.1491h3.3057l.7075 1.8214h1.3385l-2.8915-7.4425h-1.5417l-2.9476 7.4425h1.3284l.7007-1.8214Zm1.6506-4.2871 1.2139 3.1452h-2.4232l1.2093-3.1452Zm7.584-1.4373c1.7652-.0158 2.9791 1.0634 3.0621 2.5062h-1.2767c-.0674-.4255-.2594-.7579-.566-1.0016-.3065-.2436-.6905-.3682-1.1621-.3682h-.1089c-1.3385-.0203-2.2267 1.1049-2.211 2.6881-.0157 1.5834.8725 2.7095 2.211 2.6883h.1089c.4727 0 .8613-.1191 1.1678-.3583.3065-.2436.4929-.576.5603-1.0072h1.2767c-.0887 1.4688-1.2924 2.522-3.0621 2.5018-2.1896.0202-3.5551-1.5889-3.5348-3.8246-.0191-2.2267 1.3452-3.8504 3.5348-3.8245Zm6.1164 4.8216h2.3996v2.7242h1.2767v-7.4425h-1.2767v3.5832h-2.0145c-.8724 0-1.1262-.2752-1.1262-1.0646l-.0056-2.5175h-1.2767l.01 3.088c.0045 1.1151.6379 1.6292 2.0134 1.6292Zm5.4932-4.7183h5.5425v1.142h-4.2658v1.91h3.6281v1.142h-3.6281v2.1122h4.3703v1.1363h-5.647v-7.4425Zm6.2668 1.142h2.6107v6.3005h1.2711v-6.3005h2.6164v-1.142h-6.4982v1.142Zm7.5952-1.142h1.2767v3.1508h3.4675v-3.1508h1.2767v7.4425H97.887v-3.1508h-3.4675v3.1508h-1.2767v-7.4425Zm7.8402 7.4425h3.191c1.665.0213 2.449-1.1723 2.44-2.3816 0-1.3385-.789-2.2682-2.45-2.2682h-1.904v-2.7927h-1.277v7.4425Zm1.277-3.5449h1.764c.877 0 1.312.411 1.313 1.1936 0 .7422-.447 1.215-1.251 1.215h-1.826v-2.4086Zm6.507 3.5449v-7.4425h-1.277v7.4425h1.277Zm8.068-7.4426v7.4425h-1.271v-5.7862l-3.379 5.7862h-1.599v-7.4425h1.276v5.7661l3.364-5.7661h1.609Zm-3.997-2.0088c.047.4155.353.6277.826.6277.477 0 .799-.2122.845-.6277h1.039c-.016.9399-.685 1.4531-1.884 1.4531-1.2 0-1.848-.5143-1.863-1.4531h1.037ZM58.0615 32v-2.6926h-1.1004v-6.3062h-5.2675l-.0056 1.8629c-.0056.9197-.0157 1.6663-.0314 2.2323-.0157.5648-.0416 1.0118-.0775 1.3283-.0617.5862-.3211.8658-.8612.8714l-.5402.0102V32h1.2453v-1.5563h5.3978V32h1.2407Zm-5.1428-7.8579h2.7724v5.1642h-3.2125c.192-.1719.3109-.4515.3525-.8512.0128-.1124.0238-.262.0333-.4491.0139-.2713.0248-.6214.0341-1.0511.0146-.7321.0202-1.4227.0202-2.0762v-.7366Zm6.3129-1.142h5.5425v1.142h-4.2658v1.91h3.6281v1.142h-3.6281v2.1122h4.3703v1.1364h-5.647v-7.4426Zm12.9457 7.4426v-7.4426h-5.958v7.4426h1.2767v-6.3006h3.4103v6.3006h1.271Zm4.9643-7.5459c2.0706-.0259 3.5865 1.4789 3.5652 3.8245.0202 2.3458-1.4946 3.8516-3.5652 3.8257-2.0762.0259-3.5966-1.4788-3.5707-3.8257-.0259-2.3456 1.4945-3.8504 3.5707-3.8245Zm.0517 6.5139c1.3542 0 2.2424-1.0173 2.2424-2.6882 0-1.6708-.8871-2.6882-2.2424-2.6882h-.1044c-1.3542 0-2.2424 1.0174-2.2424 2.6882 0 1.6709.887 2.6882 2.2424 2.6882h.1044Zm4.4399-1.3756c.1303 1.635 1.1521 2.5119 3.0363 2.5119 1.7741.0157 2.8701-.8882 2.8555-2.1896 0-.9185-.53-1.4844-1.4014-1.6764.8455-.2651 1.2925-.8983 1.2925-1.6664 0-1.2925-1.0275-2.1178-2.7253-2.1178-.6479 0-1.188.1247-1.6293.374-.4413.2481-.7681.5648-.9915.9544-.2235.384-.3481.7826-.3795 1.2037h1.2924c.119-.887.6535-1.4115 1.7281-1.4115.8983 0 1.4328.3998 1.4328 1.0275 0 .6692-.4974 1.069-1.3542 1.069h-.9859v1.1431h1.0117c.9388 0 1.4374.3638 1.4374 1.0432 0 .7309-.5289 1.1105-1.5676 1.1105-1.0634 0-1.6293-.4469-1.7697-1.3756h-1.2823Zm13.5735 2.4076h-1.2712v-5.7874l-3.3787 5.7874h-1.5979v-7.4426h1.2768v5.766l3.363-5.766h1.608v7.4426Zm1.097-6.3006h2.6107v6.3006h1.2726v-6.3006h2.615v-1.142h-6.4983v1.142Zm11.1813 4.4791h-3.305l-.701 1.8215h-1.328l2.947-7.4426h1.542l2.891 7.4426h-1.338l-.708-1.8215Zm-.441-1.1419-1.215-3.1452-1.209 3.1452h2.424Zm6.73-4.4792h-3.26v7.4426h1.277V27.614h1.983c1.401.0101 2.403-.8769 2.387-2.3098.016-1.4316-.986-2.3198-2.387-2.3041Zm1.115 2.3041c0 .7322-.452 1.1679-1.277 1.1679h-1.821v-2.33h1.821c.825 0 1.277.4301 1.277 1.1621Zm8.767 5.1385h-1.271v-5.7874l-3.379 5.7874h-1.598v-7.4426h1.277v5.766l3.363-5.766h1.608v7.4426Zm6.797 0h1.271v-7.4426h-1.608l-3.363 5.7661v-5.7661h-1.277v7.4426h1.598l3.379-5.7874v5.7874Zm-1.9-8.8237c-.473 0-.778-.2122-.825-.6277h-1.038c.016.9388.664 1.4531 1.863 1.4531 1.199 0 1.869-.5132 1.884-1.4531h-1.038c-.046.4144-.369.6277-.846.6277Z"/>
</svg>