<svg xmlns="http://www.w3.org/2000/svg" viewBox="0 0 116 26">
	<path fill="#5345ff" d="M18.8 2.6C16.9.9 14.1 0 11 0 7.9 0 5.1.9 3.2 2.6.5 5.1 0 7.7 0 14.1v11.3h5.5V13.1c0-3.2.2-5 1.4-6.3 1-1.1 2.4-1.6 4.1-1.6s3.1.6 4.1 1.6c1.3 1.3 1.4 3.1 1.4 6.3v12.3H22V14.1c0-6.4-.5-9-3.2-11.5zM42.7 12.9c0 3.2-.2 5-1.4 6.3-.4.5-1 .8-1.5 1.1-.7.3-1.6.5-2.5.5-1.7 0-3.1-.6-4.1-1.6-1.3-1.3-1.4-3.1-1.4-6.3V.7h-5.5V12c0 6.3.4 9 3.1 11.4 1.9 1.7 4.7 2.6 7.8 2.6 3.1 0 5.9-.9 7.8-2.6 2.7-2.4 3.1-5.1 3.1-11.4V.7h-5.5v12.2zM68.9 12.9c0 3.2-.2 5-1.4 6.3-1 1.1-2.4 1.6-4.1 1.6-1 0-1.9-.2-2.7-.6-.5-.3-1-.6-1.4-1.1-1.3-1.3-1.4-3.1-1.4-6.3V.7h-5.5V12c0 6.3.4 9 3.1 11.4 1.9 1.7 4.7 2.6 7.8 2.6 3.1 0 5.9-.9 7.8-2.6 2.7-2.4 3.1-5.1 3.1-11.4V.7h-5.5v12.2zM115.3 25.3V14c0-6.3-.4-9-3-11.4-1.8-1.7-4.5-2.6-7.4-2.6-3 0-5.3 1-7 2.9-.3.3-.6.7-.8 1-.2-.3-.5-.7-.8-1C94.4 1 92.1 0 89.1 0s-5.6.9-7.4 2.6c-2.6 2.4-3 5.1-3 11.4v11.3h5.5V13.1c0-3.2.2-5 1.3-6.3.5-.5 1-1 1.7-1.2.7-.3 1.4-.4 2.1-.4 1.6 0 2.6.6 3.6 1.6 1.2 1.3 1.4 3.1 1.4 6.3v12.3H99.7V13.1c0-3.2.2-5 1.4-6.3.6-.7 1.3-1.2 2.2-1.4.4-.1.9-.2 1.4-.2.7 0 1.4.1 2.1.4.7.3 1.2.7 1.7 1.2 1.2 1.3 1.3 3.1 1.3 6.3v12.3h5.5z"/>
</svg>