<svg xmlns="http://www.w3.org/2000/svg" viewBox="0 0 180 25">
	<path fill="#005bff" d="M117.6 16.4c0-5.1 3.7-8.6 8.9-8.6 2.1 0 3.9.6 5.5 1.6l-1.6 2.9c-1.1-.7-2.5-1.2-4-1.2-3.1 0-5.1 2.2-5.1 5.3 0 3 2 5.3 5.1 5.3 1.5 0 2.9-.5 4-1.2l1.6 2.9c-1.6 1.1-3.4 1.6-5.5 1.6-5.3 0-8.9-3.5-8.9-8.6zm15.1 0c0-5.4 3.6-8.6 7.8-8.6 2.7 0 4.4 1.2 5.4 2.9h.1V8.3h3.4v16.1H146V22h-.1c-1 1.7-2.8 2.9-5.4 2.9-4.3.1-7.8-3.1-7.8-8.5zm13.5 0c0-3.1-2-5.2-5-5.2s-5 2.2-5 5.2c0 3.1 2 5.2 5 5.2s5-2.1 5-5.2zm16.5-4.5h-.5c-3.3 0-5.1 1.6-5.1 5.4v7.2h-3.4V8.3h3.4v3.5h.1c.8-2.4 2.6-4 5.3-4h.2v4.1zm.5 4.5c0-5.4 3.6-8.6 7.9-8.6 2.6 0 4.4 1.2 5.4 2.9h.1V0h3.4v24.4h-3.4V22h-.1c-1 1.7-2.8 2.9-5.4 2.9-4.3.1-7.9-3.1-7.9-8.5zm13.6 0c0-3.1-2-5.2-5-5.2s-5 2.2-5 5.2c0 3.1 2 5.2 5 5.2s5-2.1 5-5.2zM13.1 1.2C6.6.5.8 5.2.1 11.7s4 12.3 10.5 13 12.3-4 13-10.5c.1-.8.1-1.6 0-2.4-.6-5.6-5-10-10.5-10.6zm-.4 18c-3.5.5-6.6-2-7.1-5.4-.5-3.5 2-6.6 5.4-7.1 3.5-.5 6.6 2 7.1 5.4s-2 6.7-5.4 7.1zM29.9 1.7c-1.5 0-2.8 1.2-2.8 2.8 0 .2 0 .4.1.6.3 1.3 1.5 2.2 2.8 2.2h7.7l-12 15.8c-.3.3-.2.8.2 1.1.1.1.3.2.5.2h18.8c1.3 0 2.5-.9 2.8-2.2.3-1.5-.6-3-2.1-3.3-.2 0-.4-.1-.6-.1h-9.4L47.8 3c.3-.4.2-.8-.2-1.1-.1-.1-.3-.2-.5-.2H29.9zm75 0c-1.3.3-2.2 1.5-2.2 2.8v9.2L87.8 1.8c-.3-.3-.8-.2-1.1.1-.1.1-.2.3-.2.5v19c0 1.3.9 2.5 2.2 2.8 1.5.3 3-.6 3.3-2.1 0-.2.1-.4.1-.6v-9.3L107 24.1c.3.3.8.2 1.1-.1.1-.1.2-.3.2-.5V4.4c0-1.5-1.2-2.8-2.8-2.8-.2.1-.4.1-.6.1zm-38.8 5c6.3 0 11 3.3 11 6.3s-4.7 6.3-11 6.3-11-3.3-11-6.3 4.7-6.3 11-6.3zm0-5.6c-9.1 0-16.5 5.3-16.5 11.8S57 24.7 66.1 24.7s16.5-5.3 16.5-11.8S75.2 1.1 66.1 1.1z"/>
</svg>