<svg version="1.1" id="Layer_1" xmlns="http://www.w3.org/2000/svg" x="0" y="0" viewBox="0 0 112 47" style="enable-background:new 0 0 112 47" xml:space="preserve">
  <style>
    .st1{fill:#19b5ff}
  </style>
  <path d="m71.9 21.4-1.8 1.7 1.8 2.5h-.7l-1.5-2.1-.7.7v1.4h-.6v-4.2h.6v2.1l2.1-2.1h.8zm-4.3 0v4.2H67v-2h-2.2v1.9h-.6v-4.2h.6V23H67v-1.7h.6v.1zm-5 2.4-.7-1.8-.7 1.9 1.4-.1zm-.4-2.4 1.6 4.2h-.6l-.5-1.3H61l-.5 1.3H60l1.6-4.2h.6zm-3.1 2.9c0-.5-.3-.8-.9-.8H57V25h1.2c.6.1.9-.2.9-.7zM57 23.1h1.4c.3 0 .7.1.9.3.1.1.2.3.3.4.1.2.1.3.1.5s0 .3-.1.5-.1.3-.3.4c-.1.1-.3.2-.4.3-.2.1-.3.1-.5.1h-1.9v-4.2h2.9v.5H57v1.2zm45.3-4.1v-4.2h.6v3.5l2.1-3.5h.7V19h-.6v-3.5L103 19h-.7zm2.6-5.2c0 .2-.1.4-.3.6-.1.1-.2.1-.3.2-.1 0-.2.1-.3 0-.2 0-.4-.1-.6-.2-.2-.2-.3-.4-.3-.6h.3c0 .1.1.3.2.3.1.1.2.1.4.1.1 0 .3 0 .4-.1s.2-.2.2-.3h.3zM98.1 19v-4.2h.6v3.5l2.1-3.5h.7V19h-.6v-3.5L98.8 19h-.7zm-.5-4.1-1.8 1.7 1.8 2.5h-.7L95.4 17l-.7.7v1.4h-.5v-4.2h.6V17l2.1-2.1h.7zm-4.1 2.6c0 .5-.2.9-.5 1.2-.4.3-.9.5-1.4.4-.5 0-1-.2-1.3-.6-.4-.4-.6-1-.5-1.6 0-.6.2-1.1.5-1.6.2-.2.4-.4.7-.5.3-.1.5-.2.8-.1.4 0 .8.1 1.2.4.2.1.3.3.4.4.1.2.2.4.2.6H93c0-.3-.2-.5-.4-.6-.2-.2-.5-.2-.8-.2-.2 0-.4 0-.6.1s-.3.2-.5.4c-.2.4-.4.8-.4 1.2s.1.9.4 1.3c.1.2.3.3.5.4s.4.1.6.1.3 0 .5-.1c.1-.1.3-.1.4-.2.2-.2.4-.6.4-.9l.4-.1zm-4.2-2.6v.5h-2.4v1.3h2.2v.5h-2.2v1.4h2.4v.4h-2.9v-4.2c-.1 0 2.9.1 2.9.1zM85.4 19h-.6v-1.8c-.4.1-.8.1-1.2.1-.2 0-.4 0-.6-.1-.2 0-.3-.1-.4-.2s-.2-.2-.2-.3c-.1-.1-.1-.2-.1-.3v-1.5h.6v1.4c0 .1 0 .1.1.2 0 .1.1.1.1.2.1.1.2.1.3.1.1 0 .3.1.4.1.4 0 .8 0 1.1-.1V15h.6c-.1-.1-.1 4-.1 4zm-6.2-3.6v1.5h1.1c.2 0 .5 0 .7-.2.1-.1.2-.2.2-.3 0-.1.1-.2 0-.3 0-.2 0-.3-.1-.4 0-.1-.1-.2-.2-.2-.1-.1-.2-.1-.3-.1h-1.4zm-.6-.5h1.7c.4 0 .7.1 1.1.3.1.1.2.2.3.4.1.2.1.3.1.5 0 .8-.5 1.3-1.4 1.3h-1.2V19h-.6v-4.1zm-.7 0v.5h-2.4v1.3h2.2v.5h-2.2v1.4h2.4v.4H75v-4.2c0 .1 2.9.1 2.9.1zm-8 0h.8l1.4 3.5 1.3-3.5h.8v4.2h-.5v-3.5L72.2 19h-.5l-1.3-3.5V19h-.5v-4.1zm-5.2 0h.8l1.3 3.5 1.3-3.5h.8v4.2h-.5v-3.5L67.1 19h-.5l-1.4-3.5V19h-.5v-4.1zm-2.7.4c-.2 0-.4 0-.6.1-.2.1-.3.2-.5.4-.3.3-.4.8-.4 1.2s.1.9.4 1.2c.1.2.3.3.5.4s.4.1.6.1c.2 0 .4 0 .6-.1.2-.1.3-.2.5-.4.3-.4.4-.8.4-1.2 0-.5-.1-.9-.4-1.3-.1-.1-.3-.3-.5-.3-.2-.1-.4-.1-.6-.1zm0-.5c.3 0 .6 0 .8.1.3.1.5.3.7.5.4.4.6 1 .5 1.6 0 .6-.2 1.1-.5 1.6-.2.2-.4.4-.7.5s-.5.2-.8.1c-.3 0-.6-.1-.9-.2-.2-.1-.5-.3-.6-.5-.2-.2-.3-.5-.4-.7-.1-.3-.1-.6-.1-.9 0-.6.2-1.1.5-1.6.2-.2.4-.3.7-.4s.5-.1.8-.1zm-2.2.1L58 16.6l1.8 2.5h-.7L57.7 17l-.7.6V19h-.6v-4.2h.6V17l2.1-2.1h.7zm38.4-2.3V8.4h.6v3.5l2.1-3.5h.7v4.2h-.6V9l-2.1 3.5c0 .1-.7.1-.7.1zm2.6-5.3c0 .2-.1.4-.3.6-.2.1-.4.2-.6.2s-.4-.1-.6-.2c-.2-.1-.3-.4-.3-.6h.3c0 .1.1.2.2.3.1.1.2.1.4.1.1 0 .3 0 .4-.1s.2-.2.2-.3h.3c0 .1 0 0 0 0zm-5.1 4.1c0-.5-.3-.8-.9-.8h-1.1v1.5h1.1c.5 0 .9-.3.9-.7zm.5 0c0 .2 0 .3-.1.5s-.1.3-.3.4c-.1.1-.3.2-.4.3-.2.1-.3.1-.5.1h-1.8V8.4h.6v1.7H95c.2 0 .3 0 .5.1s.3.1.4.3c.1.1.2.3.2.4.1.1.1.2.1.5zm.5-3h.5v4.2h-.5V8.4zm-4.6 0v4.2h-.6v-2h-2.2v2h-.6V8.4h.6v1.7h2.2V8.4h.6zm-6.5.5v1.5h1.1c.3 0 .5 0 .7-.2.1-.1.2-.2.2-.3s.1-.2 0-.3c0-.1 0-.3-.1-.4 0-.1-.1-.2-.2-.2-.1-.1-.2-.1-.3-.1h-1.4zm-.6-.5h1.7c.4 0 .7.1 1.1.3.1.1.2.2.3.4.1.2.1.3.1.5 0 .8-.5 1.3-1.4 1.3h-1.2v1.7H85V8.4zm-.7 0v.5H82v1.3h2.3v.5H82v1.4h2.4v.5h-2.9V8.4h2.8zm-3.8 0v4.2H80v-2h-2.2v2h-.5V8.4h.5v1.7H80V8.4h.5zm-6.1.4c-.2 0-.4 0-.6.1s-.3.2-.5.4c-.2.3-.3.7-.3 1.2 0 .4.1.9.4 1.2.1.1.3.3.5.3.2.1.4.1.6.1s.4 0 .6-.1.3-.2.5-.3c.3-.4.4-.8.4-1.2s-.1-.9-.4-1.2c-.2-.2-.4-.3-.6-.4-.2-.1-.4-.1-.6-.1zm0-.5c.3 0 .6 0 .8.1.3.1.5.3.7.5.4.4.6 1 .5 1.6 0 .6-.2 1.1-.5 1.6-.2.2-.4.4-.7.5-.3.1-.5.2-.8.1-.3 0-.6-.1-.9-.2-.2-.1-.5-.3-.6-.5-.2-.2-.3-.5-.4-.7-.1-.3-.1-.6-.1-.9 0-.6.2-1.1.5-1.6.2-.2.4-.4.7-.5h.8zm-6 4.3V8.4h.6v3.5l2-3.5h.7v4.2h-.6V9L69 12.5c.1.1-.6.1-.6.1zm-1 1v-1h-3.2V8.4h.5v3.7h2.2V8.4h.4v3.7h.5v1.5h-.4zm-3.8-5.2-1.8 1.7 1.8 2.5H63l-1.5-2.1-.7.7v1.4h-.5V8.4h.5v2.1l2.1-2.1h.7zm-5 2.4-.7-1.9-.7 1.9h1.4zm-.4-2.4 1.6 4.2h-.6l-.5-1.3H57l-.5 1.3h-.6l1.7-4.2h.6zm49.5-2.3V1.9h.6v3.5l2.1-3.5h.7v4.2h-.6V2.5L108.4 6l-.7.1zm2.5-5.3c0 .2-.1.4-.3.6-.1.1-.2.1-.3.2-.1 0-.2.1-.3 0-.2 0-.4-.1-.6-.2-.1-.1-.2-.2-.2-.3-.1-.1-.1-.2-.1-.3h.3c0 .1.1.3.2.3.1.1.2.1.4.1.1 0 .3 0 .4-.1s.2-.2.2-.3h.3zm-6.8 5.3V1.9h.6v3.5l2.1-3.5h.7v4.2h-.6V2.5L104.1 6l-.7.1zm-.5-4.2-1.8 1.7 1.8 2.5h-.7L100.7 4l-.7.6v1.5h-.5V1.9h.5V4l2.1-2.1h.8zm-4.1 2.6c0 .5-.2.9-.5 1.2-.4.3-.9.5-1.4.4-.5 0-1-.2-1.3-.6-.4-.4-.6-1-.6-1.5 0-.6.2-1.1.5-1.6.2-.2.4-.4.7-.5.3-.1.5-.2.8-.1.4 0 .9.1 1.2.3.2.1.3.3.4.5s.2.4.2.6h-.6c0-.3-.2-.5-.4-.6-.2-.2-.5-.2-.8-.2-.2 0-.4 0-.6.1s-.3.2-.5.4c-.2.4-.4.8-.4 1.2s.1.9.4 1.3c.1.2.3.3.5.4s.4.1.6.1.3 0 .5-.1c.1-.1.3-.1.4-.2.2-.2.4-.6.4-.9l.5-.2zm-4.8.3c0-.5-.3-.8-.9-.8H92v1.5h1.1c.6.1.9-.2.9-.7zm.5 0c0 .2 0 .3-.1.5s-.2.3-.3.4c-.1.1-.3.2-.4.3-.1 0-.3.1-.5 0h-1.8V1.9h.6v1.7h1.3c.2 0 .3 0 .5.1s.3.1.4.3c.1.1.2.3.3.4 0 .1.1.2 0 .4.1 0 0 0 0 0zm-4-2.9v4.2H90V2.4h-1.6l-.1 2.3c0 .4-.1.7-.3 1 0 .2-.1.3-.3.3-.1.1-.3.1-.4.1s-.3 0-.4-.1v-.4c.1 0 .2.1.3.1.1 0 .2 0 .3-.1.1-.1.1-.2.2-.3.1-.3.1-.5.1-.8l.1-2.5c0-.1 2.6-.1 2.6-.1zm-4.8 2.4L85 2.4l-.7 1.9h1.4zm-.4-2.4L87 6.1h-.6l-.5-1.3h-1.8l-.5 1.3H83l1.7-4.2h.6zm-4.5.5v1.5h1.1c.2 0 .5 0 .7-.2.1-.1.2-.1.2-.2s.1-.2.1-.3 0-.3-.1-.4c0-.1-.1-.2-.2-.2-.1-.1-.2-.1-.3-.1h-.4c-.1-.1-1.1-.1-1.1-.1zm-.6-.5H82c.4 0 .7.1 1.1.3.1.1.2.2.3.4.1.2.1.3.1.5 0 .8-.5 1.3-1.4 1.3h-1.2v1.7h-.5l-.2-4.2zM77.7 5l-1.5-3.1h.6L78 4.4l1.2-2.5h.6l-1.6 3.3c-.1.3-.3.5-.5.7-.2.1-.4.2-.6.2s-.4 0-.5-.1v-.4c.1.1.3.1.5.1s.4-.2.6-.7zm-3.8-2.7c-.2 0-.4 0-.6.1s-.3.2-.5.4c-.3.3-.4.8-.4 1.2 0 .5.1.9.4 1.3.1.2.3.3.5.4s.4.1.6.1.4 0 .6-.1.3-.2.5-.4c.3-.4.4-.8.4-1.2 0-.4-.1-.9-.4-1.2-.1-.2-.3-.3-.5-.4-.2-.2-.4-.2-.6-.2zm0-.5c.3 0 .6 0 .8.1.3.1.5.3.7.5.4.4.6 1 .5 1.6 0 .6-.2 1.1-.5 1.6-.2.1-.4.3-.7.4s-.5.2-.8.1c-.3 0-.6-.1-.9-.2-.2-.1-.5-.3-.6-.5-.2-.1-.3-.4-.4-.6-.1-.3-.1-.6-.1-.9 0-.6.2-1.1.5-1.6.2-.2.4-.3.7-.4.3-.1.5-.1.8-.1zm-5.3 2.3v1.5h1.7c.1 0 .2-.1.3-.1l.2-.2c0-.1.1-.2.1-.4v-.3c0-.1-.1-.2-.1-.2l-.2-.1c-.1 0-.2-.1-.3-.1l-1.7-.1zm0-1.7v1.3h1.6c.1 0 .2-.1.2-.1l.2-.2c0-.1.1-.2.1-.3v-.3c0-.1-.1-.1-.1-.2-.1-.1-.1-.1-.2-.1h-1.7c-.1 0-.1-.1-.1-.1zm-.5-.5h1.8c.3 0 .7.1 1 .2l.3.3c.1.1.1.3.1.4 0 .2-.1.4-.2.6s-.3.3-.5.3c.2 0 .5.2.6.4s.2.4.2.7c0 .8-.5 1.2-1.6 1.2h-1.7V1.9zm-3.2.5v1.5H66c.2 0 .5 0 .7-.2l.2-.2c0-.1.1-.2.1-.3s0-.3-.1-.4c-.1-.1-.1-.2-.2-.2-.1-.1-.2-.1-.3-.1H66l-1.1-.1zm-.6-.5H66c.4 0 .7.1 1.1.3.1.1.2.2.3.4.1.2.1.3.1.5 0 .8-.5 1.3-1.4 1.3h-1.2v1.7h-.6V1.9zm-.7 0v.5h-2.3v1.3h2.2v.5h-2.2v1.4h2.4v.5h-2.9V1.9h2.8zm-3.8 0v4.2h-.6V2.4H57v3.7h-.6V1.9h3.4z" style="fill:#333"/>
  <path class="st1" d="M51.8 22.3c-.3-1.3-1-2.5-1.9-3.5-1.1 1.4-2.6 2.5-4.4 2.9v.1c.6.8.9 1.8.8 2.8.1.8-.1 1.5-.4 2.2-.3.7-.8 1.3-1.5 1.8-1.8 1.2-4.7 1.3-5.9 1.3h-6.3V19.5h6.2c5.6 0 11.9-2.6 12-10C50.6-.1 39.5 0 38.2 0H27.3c-.3 0-.5.1-.7.3-.2.2-.3.4-.3.7v33.3c0 .1 0 .2.1.3.1.1.1.2.2.3.1.1.2.1.3.2.1 0 .2.1.4 0h12c1.9 0 3.7-.2 5.5-.7 1.4-.4 2.8-1.1 4-2 1.1-.9 1.9-2 2.5-3.2.6-1.4.9-2.9.9-4.4-.1-.9-.2-1.7-.4-2.5zM32.2 5.1h5.5c1.8-.1 3.5.3 5.1 1.1.6.4 1 .9 1.3 1.5.3.6.4 1.3.4 2s-.1 1.4-.4 2c-.3.6-.7 1.1-1.3 1.5-1.6 1-3.2 1.1-5.1 1.1h-5.5V5.1zM1 35.1h4c.1 0 .3 0 .4-.1.1-.1.2-.1.3-.2.2-.2.3-.4.3-.7V22.3h5.2c1.9 0 3.7-.2 5.5-.7 1.5-.4 3-1.2 4.2-2.1 1.2-.9 2.1-2.1 2.7-3.5.7-1.5 1-3.1 1-4.8-.1-1.7-.5-3.3-1.1-4.8-.6-1.4-1.5-2.6-2.7-3.5-1.2-1-2.7-1.7-4.2-2.2-1.8-.5-3.7-.7-5.5-.7H1C.8 0 .5.1.3.3.2.4 0 .7 0 1v33.1c0 .2.1.5.3.7.2.2.5.3.7.3zm4.9-30h4.7c2.6 0 4.6.5 5.9 1.4s2 2.5 2 4.6c-.1 2.2-.7 3.7-2 4.7s-3.3 1.4-5.9 1.4H5.9V5.1zM48.8 38H.3c-.2 0-.3.1-.3.3s.1.3.3.3l48.4 7.6c.1 0 .1 0 .1-.2l.1-.1c.1 0 .1-.1.1-.1v-7.6l-.1-.1c0-.1-.1-.1-.1-.1z"/>
</svg>
