<svg xmlns="http://www.w3.org/2000/svg" viewBox="0 0 169.8 45">
	<path fill="#004" d="M20 8.9h3.9v13.9c0 1.1.7 2.5 1.4 3.1 3 3 8.3.8 8.3-3.6 0-4.8-6.2-6.7-8.8-3v-4.9c5.6-2.9 12.7 1.1 12.7 7.8 0 2.4-.9 4.6-2.5 6.2s-3.8 2.5-6.2 2.6c-5.4 0-8.7-4.4-8.7-8.9L20 8.9zM0 43.8h3.9V45H0v-1.2zM0 41h3.9v1.8H0V41zm0-4.1h3.9v3H0v-3zm4-14.7c0-1.1.7-2.5 1.4-3.1 3-3 8.2-.8 8.2 3.6 0 4.8-6.2 6.7-8.8 3v4.9c5.6 2.9 12.7-1.1 12.7-7.9 0-2.4-.9-4.6-2.5-6.2s-3.8-2.5-6.2-2.6C3.2 13.8 0 18.5.1 23v13h4C4 36 4 22.2 4 22.2zm16-21h3.9V0H20v1.2zM20 4h3.9V2.2H20V4zm0 4.1h3.9v-3H20v3z"/>
	<path fill="#1c1c1c" d="M54.5 20.2v.2c0 .1-.1.1-.2.1s-.2.1-.3.1h-.8c-.1 0-.2 0-.3-.1-.1 0-.1-.1-.2-.1 0 0-.1-.1-.1-.2v-7.8L50 20.2c0 .1-.1.1-.1.2-.1.1-.1.1-.2.1s-.2.1-.3.1h-.8c-.1 0-.2 0-.3-.1-.1 0-.2-.1-.2-.1s-.1-.1-.1-.2l-2.6-7.8v8c0 .1-.1.1-.2.1s-.2.1-.3.1h-.8c-.1 0-.2 0-.3-.1-.1 0-.1-.1-.2-.1v-9c0-.1.1-.2.2-.3s.2-.1.3-.2c.1 0 .2-.1.3-.1h1.3c.2 0 .4 0 .6.1.2 0 .3.1.4.2.1.1.3.2.3.3.1.2.2.3.2.5l2 5.7 2.1-5.7c.1-.2.1-.3.2-.5s.2-.3.3-.3.2-.1.3-.1c.2 0 .3-.1.5-.1h1.3c.1 0 .3 0 .3.1.1 0 .2.1.3.2s.1.2.2.3c0 .1.1.3.1.3l-.3 8.4zm6.6-2.4c-.2.5-.4.9-.6 1.4-.2.3-.4.6-.7.8-.3.2-.5.3-.8.4-.3.1-.7.1-.9.1h-.4c-.1 0-.3 0-.3-.1-.1 0-.2-.1-.3-.1H57l-.1-.1c0-.1-.1-.1-.1-.2v-.7c0-.2 0-.4.1-.6.1-.1.1-.2.2-.2s.1 0 .2.1c.1 0 .1.1.2.1s.2.1.3.1c.1 0 .3.1.3.1h.3c.1 0 .2-.1.3-.2l.3-.3c.1-.2.2-.3.3-.4l-3.1-6.5c-.1-.1-.1-.3-.1-.3v-.1s0-.1.1-.1h-.1 1.1c.1 0 .3 0 .3.1.1 0 .2.1.2.2.1.1.1.2.2.3l1.4 2.9c.2.3.3.6.4.9s.3.6.3.9c.1-.3.2-.7.3-.9.1-.3.3-.7.3-1l1.1-3c0-.1.1-.1.1-.2.1-.1.1-.1.2-.1s.3-.1.3-.1h1c.1 0 .2 0 .3.1l.1.1v.1c0 .1 0 .2-.1.3l-2.5 6.2zm11.2 2.4c0 .1 0 .1-.1.2H72c-.1 0-.2.1-.3.1h-.9c-.1 0-.2 0-.3-.1-.1 0-.1-.1-.2-.1 0 0-.1-.1-.1-.2v-3.8h-3.6v3.8c0 .1 0 .1-.1.2 0 .1-.1.1-.2.1s-.2.1-.3.1h-1c-.1 0-.2 0-.3-.1-.1 0-.1-.1-.2-.1 0 0-.1-.1-.1-.2v-9c0-.1 0-.1.1-.2 0-.1.1-.1.2-.1s.2-.1.3-.1h1c.1 0 .2 0 .3.1.1 0 .1.1.2.1 0 0 .1.1.1.2v3.5h3.6v-3.5c0-.1 0-.1.1-.2 0-.1.1-.1.2-.1s.2-.1.3-.1h.9c.1 0 .2 0 .3.1.1 0 .1.1.2.1 0 0 .1.1.1.2v9.1zm9.7 0c0 .1 0 .1-.1.2h-.1c-.1 0-.2.1-.3.1h-.9c-.1 0-.2 0-.3-.1-.1 0-.1-.1-.2-.1 0 0-.1-.1-.1-.2V14c0 .1-.1.2-.2.3-.1.1-.1.2-.2.3l-.2.3c-.1.1-.2.2-.2.3l-3.3 4.9c0 .1-.1.1-.1.2-.1 0-.1.1-.2.1s-.2 0-.3.1h-.8c-.1 0-.2 0-.3-.1-.1 0-.1-.1-.2-.1v-9.2c0-.1 0-.1.1-.1.1-.1.1-.1.2-.1s.2-.1.3-.1h.9c.1 0 .2 0 .3.1.1 0 .1.1.2.1l.1.1v6.1c.1-.2.2-.3.3-.5.1-.2.3-.4.4-.6l3.3-5c0-.1.1-.1.1-.1.1 0 .1-.1.2-.1s.2-.1.3-.1h.8c.1 0 .2 0 .3.1.1 0 .1.1.2.1v9.2zm10.6 2.5l-.1.2c-.1 0-.2.1-.3.1h-.8c-.1 0-.2 0-.3-.1-.1 0-.1-.1-.2-.1 0 0-.1-.1 0-.1v-2.3h-6.5c-.1 0-.2-.1-.2-.1-.1-.1-.1-.2-.1-.3v-8.9c0-.1 0-.1.1-.1.1-.1.1-.1.2-.1s.2-.1.3-.1h.9c.1 0 .2 0 .3.1.1.1.1.1.2.1l.1.1v7.7h3.5v-7.7c0-.1 0-.1.1-.1.1-.1.1-.1.2-.1s.2-.1.3-.1h.9c.1 0 .2 0 .3.1.1 0 .1.1.2.1l.1.1v7.7h1c.1 0 .1 0 .1.1.1.1.1.2.1.3l-.4 3.5zm9.1-2.5c0 .1 0 .1-.1.2s-.1.1-.2.1-.2.1-.3.1h-.9c-.1 0-.2 0-.3-.1-.1 0-.1-.1-.2-.1 0 0-.1-.1-.1-.2v-6.1c0 .1-.1.2-.2.3-.1.1-.1.2-.2.3l-.2.3c-.1.1-.2.2-.2.3l-3.3 4.9c0 .1-.1.1-.1.2-.1 0-.1.1-.2.1s-.2 0-.3.1h-.8c-.1 0-.2 0-.3-.1-.1 0-.1-.1-.2-.1v-9.3c0-.1 0-.1.1-.1.1-.1.1-.1.2-.1s.2-.1.3-.1h.9c.1 0 .2 0 .3.1.1 0 .1.1.2.1l.1.1v6.1c.1-.2.2-.3.3-.5s.3-.4.4-.6l3.3-4.9c0-.1.1-.1.1-.1.1 0 .1-.1.2-.1s.2-.1.3-.1h.8c.1 0 .2 0 .3.1.1 0 .1.1.2.1v.2l.1 8.9zm9.5 0c0 .1 0 .1-.1.2 0 .1-.1.1-.2.1s-.2.1-.3.1h-.9c-.1 0-.2 0-.3-.1-.1 0-.1-.1-.2-.1 0 0-.1-.1-.1-.2v-7.7h-3.6v7.7c0 .1 0 .1-.1.2s-.1.1-.2.1-.2.1-.3.1h-.9c-.1 0-.2 0-.3-.1-.1 0-.1-.1-.2-.1 0 0-.1-.1-.1-.2v-9c0-.1.1-.2.1-.3.1-.1.1-.1.2-.1h6.8c.1 0 .2.1.2.1.1.2.2.3.2.4l.3 8.9zm9.9-.5c.1.2.1.3.1.4v.1s0 .1-.1.1c-.1.1-.2.1-.3.1h-1.2c-.1 0-.3 0-.3-.1-.1 0-.1-.1-.2-.1 0-.1-.1-.1-.1-.2l-.7-2h-3.6l-.6 1.9c0 .1-.1.1-.1.2s-.1.1-.2.1-.2.1-.3.1h-1c-.1 0-.2 0-.3-.1l-.1-.1V20c0-.2.1-.3.1-.4l2.9-8.5c0-.1.1-.2.1-.2.1-.1.1-.1.2-.1s.3-.1.3-.1h1.3c.2 0 .3 0 .4.1.1 0 .2.1.2.1.1.1.1.2.1.3l3.4 8.5zm-4.4-7l-1.4 4.1h2.7l-1.3-4.1zm13 7.5c0 .1 0 .1-.1.2 0 .1-.1.1-.2.1s-.2.1-.3.1h-.9c-.1 0-.2 0-.3-.1-.1 0-.1-.1-.2-.1 0 0-.1-.1-.1-.2v-7.7h-2c-.2 1.1-.3 2.1-.4 3-.2.8-.3 1.5-.4 2.2-.1.5-.3 1-.5 1.4-.2.3-.4.7-.7.9-.3.3-.5.3-.9.4-.3.1-.7.2-1 .1h-.2c-.1 0-.1-.1-.2-.1 0-.1-.1-.2-.1-.3v-.8c0-.1 0-.2.1-.3 0-.1.1-.1.1-.2h.2c.2 0 .3 0 .5-.1s.3-.2.3-.3c.2-.3.3-.5.3-.8.2-.4.3-.8.3-1.3.1-.5.3-1.2.3-2 .1-.8.3-1.7.3-2.8 0-.2.1-.3.2-.5.1-.1.1-.1.2-.1h5.1c.1 0 .2.1.2.1.1.2.2.3.2.4.2.1.2 8.8.2 8.8zm9.1-2.9c0 .4-.1.8-.2 1.3-.2.3-.3.7-.7 1-.3.3-.8.5-1.2.7-.7.2-1.4.3-2 .3h-2.6c-.1 0-.2-.1-.2-.1l-.2-.2c0-.1-.1-.2 0-.3v-8.9c0-.1 0-.1.1-.1h.3c.1 0 .2-.1.3-.1h.9c.1 0 .2 0 .3.1.1 0 .1.1.2.1l.1.1v3.3h1.4c.6 0 1.2.1 1.7.2.4.1.8.3 1.1.6.3.3.5.6.7.9-.1.3 0 .7 0 1.1zm-1.9.1c0-.3 0-.4-.1-.7-.1-.2-.2-.3-.3-.5-.2-.2-.3-.3-.5-.3-.3-.1-.7-.1-1-.1h-1.1v3.1h1.2c.3 0 .7 0 1-.2.2-.1.3-.2.5-.3s.3-.3.3-.5c-.1-.1 0-.2 0-.5zm10.7 2.8c0 .1 0 .1-.1.2 0 .1-.1.1-.2.1s-.2.1-.3.1h-.9c-.1 0-.2 0-.3-.1-.1 0-.1-.1-.2-.1 0 0-.1-.1-.1-.2v-3.8H142v3.8c0 .1 0 .1-.1.2s-.1.1-.2.1-.2.1-.3.1h-1c-.1 0-.2 0-.3-.1-.1 0-.1-.1-.2-.1 0 0-.1-.1-.1-.2v-9.1c0-.1 0-.1.1-.2s.1-.1.2-.1.2-.1.3-.1h1c.1 0 .2 0 .3.1.1 0 .1.1.2.1 0 0 .1.1.1.2v3.5h3.6v-3.5c0-.1 0-.1.1-.2 0-.1.1-.1.2-.1s.2-.1.3-.1h.9c.1 0 .2 0 .3.1.1 0 .1.1.2.1 0 0 .1.1.1.2l-.1 9.1zm8.9-2.9c0 .4-.1.8-.2 1.3-.2.3-.3.7-.7 1s-.8.5-1.2.7c-.7.2-1.3.3-2 .3H150c-.1 0-.2-.1-.2-.1-.1-.1-.1-.1-.1-.2s-.1-.2 0-.3v-8.9c0-.1 0-.1.1-.1.1-.1.1-.1.2-.1s.2-.1.3-.1h.9c.1 0 .2 0 .3.1.1 0 .1.1.2.1l.1.1v3.3h1.2c.6 0 1.1.1 1.7.2.4.1.8.3 1.1.5.3.3.5.5.7.9-.1.5 0 .9 0 1.3zm-2 .2c0-.3 0-.4-.1-.6s-.2-.3-.3-.5-.3-.3-.5-.3c-.3-.1-.7-.1-1-.1h-1v3h1c.3 0 .7 0 1-.2.2-.1.3-.2.5-.3s.3-.3.3-.5.1-.3.1-.5zm5 2.7c0 .1 0 .1-.1.2s-.1.1-.2.1-.2.1-.3.1h-.8c-.1 0-.2 0-.3-.1-.1 0-.1-.1-.2-.1 0 0-.1-.1-.1-.2v-9.1c0-.1 0-.1.1-.1.1-.1.1-.1.2-.1s.2-.1.3-.1h.8c.1 0 .2 0 .3.1.1 0 .1.1.2.1l.1.1v9.1zm9.9 0c0 .1 0 .1-.1.2s-.1.1-.2.1-.2.1-.3.1h-.9c-.1 0-.2 0-.3-.1-.1 0-.1-.1-.2-.1 0 0-.1-.1-.1-.2v-6.1c0 .1-.1.2-.2.3-.1.1-.1.2-.2.3-.1.1-.1.2-.2.3-.1.1-.2.2-.2.3l-3.3 4.9c0 .1-.1.1-.1.2-.1 0-.1.1-.2.1s-.2 0-.3.1h-.8c-.1 0-.2 0-.3-.1-.1 0-.1-.1-.2-.1v-9.3c0-.1 0-.1.1-.1.1-.1.1-.1.2-.1s.2-.1.3-.1h.9c.1 0 .2 0 .3.1.1 0 .1.1.2.1l.1.1v6.1c.1-.2.2-.3.3-.5.1-.2.3-.4.4-.6l3.3-4.9c0-.1.1-.1.1-.1.1 0 .1-.1.2-.1s.2-.1.3-.1h.8c.1 0 .2 0 .3.1.1 0 .1.1.2.1 0 0 .1.1 0 .2l.1 8.9zm-1.2-11.9c0 .3-.1.5-.2.8-.1.3-.3.5-.4.7-.3.2-.5.3-.8.4-.4.1-.8.2-1.3.2-.4 0-.8-.1-1.2-.2-.3-.1-.6-.3-.8-.4-.2-.2-.3-.4-.4-.7-.1-.3-.2-.5-.2-.8v-.2c0-.1.1-.1.2-.1s.2-.1.3-.1h.8c.1 0 .2 0 .3.1.1 0 .1.1.1.1v.2c0 .1 0 .3.1.3s.1.2.2.3c.1.1.3.2.3.2.2.1.3.1.4.1s.3 0 .4-.1c.1 0 .3-.1.3-.2s.2-.2.2-.3c.1-.1.1-.3.1-.3v-.2c0-.1.1-.1.1-.1.1 0 .2-.1.3-.1h.8c.1 0 .2 0 .3.1.1 0 .1.1.2.1-.1.1-.1.1-.1.2zM49.8 33.2c0 .1-.1.2-.2.2s-.2 0-.3.1h-.8c-.1 0-.2 0-.3-.1-.1 0-.1-.1-.2-.1 0-.1-.1-.1-.1-.2l-.7-1.9c-.1-.3-.2-.4-.3-.7-.1-.2-.2-.3-.3-.4-.1-.1-.3-.2-.4-.3-.2-.1-.3-.1-.5-.1h-.3v3.4s-.1.1-.2.1-.2.1-.3.1h-.8c-.1 0-.2 0-.3-.1-.1 0-.1-.1-.2-.1 0 0-.1-.1 0-.1v-8s.1-.1.2-.1.2 0 .3-.1h.9c.1 0 .2 0 .3.1.1 0 .1 0 .2.1v3.2h.3c.2 0 .3 0 .5-.1s.3-.2.4-.3c.2-.2.3-.3.3-.4.1-.3.2-.4.3-.7l.5-1.7c0-.1.1-.1.1-.2s.1.2.2.2.2-.1.3-.1h.8c.1 0 .2 0 .3.1.1 0 .1 0 .1.1 0 0 .1.1 0 .2v.2c0 .1-.1.3-.1.3l-.6 1.4c-.1.3-.2.5-.3.7-.1.2-.2.3-.3.5-.1.2-.3.3-.3.3-.2.1-.3.2-.4.3.2.1.3.2.4.3.2.1.3.3.4.3.2.2.3.3.3.5.2.3.3.5.3.8l.7 1.7c.1.1.1.3.1.3v.3zm8-.4c.1.1.1.3.1.3v.1s0 .1-.1.1c-.1.1-.2.1-.3.1h-1.3c-.1 0-.1 0-.2-.1 0 0-.1-.1-.1-.2l-.6-1.7h-3.1l-.4 1.6c0 .1 0 .1-.1.2 0 .1-.1.1-.2.1s-.2.1-.3.1h-.8c-.1 0-.2 0-.3-.1 0 0 0-.1-.1-.1v-.1c0-.1.1-.3.1-.3l2.5-7.4c0-.1.1-.1.1-.2.1-.1.1-.1.2-.1s.2-.1.3-.1h1.1c.1 0 .3 0 .3.1.1 0 .2.1.2.1 0 .1.1.1.1.2l2.9 7.4zM54 26.7l-1.2 3.6h2.4L54 26.7zm14.7 6.5l-.1.2c-.1 0-.2.1-.3.1h-.8c-.1 0-.2 0-.3-.1-.1 0-.1-.1-.1-.1v-6.9l-2.4 6.8c0 .1-.1.1-.1.2-.1 0-.1.1-.2.1h-.9c-.1 0-.2 0-.3-.1-.1 0-.1-.1-.2-.1l-.1-.1-2.3-6.8v6.9s-.1.1-.2.1-.2.1-.3.1h-.8c-.1 0-.2 0-.3-.1-.1 0-.1-.1-.2-.1V25.4c0-.1.1-.2.2-.3.1-.1.2-.1.3-.2.1 0 .2-.1.3 0H61c.2 0 .3 0 .5.1.2 0 .3.1.3.2l.3.3c.1.1.2.3.2.4l1.8 5 1.9-5c.1-.2.1-.3.2-.4s.2-.3.3-.3c.1-.1.2-.2.3-.2s.3-.1.4-.1h.8c.1 0 .2 0 .3.1.1 0 .2.1.2.2.1.1.1.2.1.3s.1.2 0 .3c-.1 0 .1 7.4.1 7.4zm7.5 0c0 .1-.1.2-.2.2s-.2.1-.3.1h-.8c-.1 0-.2 0-.3-.1-.1 0-.1 0-.2-.1l-.1-.1v-2.9c-.3 0-.4 0-.7.1H73c-.4 0-.8 0-1.3-.1-.3-.1-.7-.3-.9-.4-.3-.3-.5-.5-.6-.8-.2-.5-.2-.9-.2-1.4v-2.5s.1-.1.2-.1.2-.1.3-.1h.8c.1 0 .2 0 .3.1.1 0 .1 0 .2.1l.1.1v2.2c0 .3 0 .4.1.7.1.2.2.3.3.5.2.2.3.3.5.3.3.1.5.1.8.1h.4c.2 0 .3 0 .6-.1v-3.7s0-.1.1-.1c0 0 .1-.1.2-.1s.2 0 .3-.1h.8c.1 0 .2 0 .3.1.1 0 .1 0 .2.1v.1l-.3 7.9zm8.5-.4c0 .1.1.3.1.3v.1s0 .1-.1.1c-.1.1-.2.1-.3.1h-1.3c-.1 0-.1 0-.2-.1 0 0-.1-.1-.1-.2l-.6-1.7h-3.1l-.4 1.6c0 .1 0 .1-.1.2 0 .1-.1.1-.2.1s-.2.1-.3.1h-.8c-.1 0-.2 0-.3-.1 0 0 0-.1-.1-.1v-.1c0-.1.1-.3.1-.3l2.5-7.4c0-.1.1-.1.1-.2.1-.1.1-.1.2-.1s.2-.1.3-.1h1.1c.1 0 .3 0 .3.1.1 0 .2.1.2.1 0 .1.1.1.1.2l2.9 7.4zm-3.8-6.1l-1.2 3.6h2.4c0-.1-1.2-3.6-1.2-3.6zm9.6-.9v.3c0 .1 0 .2-.1.3 0 .1-.1.1-.1.1h-2.1v6.7c0 .1 0 .1-.1.1 0 0-.1.1-.2.1s-.2.1-.3.1h-.8c-.1 0-.2 0-.3-.1-.1 0-.1-.1-.2-.1v-6.8h-2.1l-.1-.1c0-.1 0-.2-.1-.3v-.6c0-.1 0-.2.1-.3 0-.1 0-.1.1-.1h6l.1.1c0 .1 0 .2.1.3.1 0 .1.3.1.3zm7.5 7.4c0 .1-.1.2-.2.2s-.2 0-.3.1h-.8c-.1 0-.2 0-.3-.1-.1 0-.1 0-.2-.1 0 0-.1-.1 0-.1v-6.7h-3.1v6.8s-.1.1-.2.1-.2 0-.3.1H92c-.1 0-.2 0-.3-.1-.1 0-.1 0-.2-.1v-8c0-.1.1-.2.1-.2.1-.1.1-.1.2-.1h5.9c.1 0 .1.1.2.1.1.1.2.3.2.4l-.1 7.7zm7.5-5.6c0 .4-.1.8-.3 1.3-.2.3-.3.7-.7.9-.3.3-.7.4-1 .6-.4.2-.9.2-1.4.2h-.7v2.6c0 .1 0 .1-.1.1 0 0-.1.1-.2.1s-.2.1-.3.1h-.8c-.1 0-.2 0-.3-.1-.1 0-.1 0-.2-.1V25.4c0-.1.1-.2.1-.2.1-.1.3-.2.4-.2h2.5c.3 0 .4.1.7.1.3.1.5.2.8.3.3.2.5.3.7.5.2.2.3.4.4.7.4.4.4.7.4 1zm-1.7.2c0-.3 0-.5-.2-.8-.1-.2-.3-.3-.3-.4-.2-.1-.3-.2-.5-.2h-1.2v2.8h.8c.3 0 .4 0 .7-.1.2-.1.3-.2.4-.3.1-.2.2-.3.3-.5-.1-.2 0-.4 0-.5zm10.5 1.3c0 .6-.1 1.3-.3 1.9-.2.5-.4 1-.8 1.4-.3.4-.8.7-1.3.8-.6.2-1.1.3-1.7.3-.6 0-1.2-.1-1.7-.3-.4-.2-.8-.4-1.2-.8-.3-.3-.6-.8-.8-1.4-.2-.6-.3-1.3-.3-2 0-.6.1-1.2.3-1.8.2-.5.4-1 .8-1.4.3-.4.8-.7 1.3-.8.6-.2 1.1-.3 1.7-.3.6 0 1.1.1 1.7.3.4.2.8.4 1.2.8.3.3.6.8.8 1.4.2.6.3 1.3.3 1.9zm-1.8.1c0-.4 0-.8-.1-1.2-.1-.3-.2-.7-.3-.9-.2-.3-.4-.4-.7-.6-.3-.2-.7-.3-1-.2-.3 0-.7.1-1 .3-.3.2-.5.3-.7.6s-.3.6-.3.9c-.1.3-.1.8-.1 1.1 0 .4 0 .8.1 1.2.1.3.2.7.3.9.2.3.4.4.7.6.3.2.7.3 1 .2.3 0 .7-.1 1-.3.3-.2.5-.3.7-.6.2-.3.3-.6.3-.9s.1-.7.1-1.1zm11.3-.2c0 .4-.1.8-.3 1.3-.2.3-.3.7-.7 1-.3.3-.7.5-1.1.7-.5.2-1 .3-1.5.3v1.1s-.1.1-.2.1h-1.4c-.1 0-.1 0-.2-.1v-1.2c-.5 0-1-.1-1.5-.3-.4-.1-.8-.3-1.1-.6-.3-.3-.5-.6-.7-.9-.2-.4-.3-.9-.3-1.4s.1-.8.3-1.2.3-.7.7-.9c.3-.3.7-.5 1.1-.7.5-.2 1-.3 1.5-.3v-1s.1-.1.2-.1h1.4c.1 0 .1 0 .2.1V26c.5 0 1 .1 1.5.3.4.1.8.3 1.1.6.3.3.5.6.7.9.2.3.3.7.3 1.2zm-5.1-1.8c-.3 0-.6.1-.8.3-.2.1-.4.3-.5.4-.2.2-.3.3-.3.6-.1.3-.1.4-.1.7 0 .3 0 .5.1.8.1.3.2.4.3.6.2.2.3.3.5.4.3.1.5.2.8.3v-4.1zm3.4 1.9c0-.3 0-.5-.1-.8l-.3-.6c-.2-.2-.3-.3-.5-.4-.3-.1-.5-.2-.8-.3v3.8c.3 0 .6-.1.8-.3.2-.1.4-.3.5-.4.2-.2.3-.3.3-.6.1.1.1-.4.1-.4zm9.8 4.1c0 .1-.1.2-.2.2s-.2 0-.3.1h-.8c-.1 0-.2 0-.3-.1-.1 0-.1 0-.2-.1v-5.4c0 .1-.1.2-.1.2-.1.1-.1.2-.2.3l-.2.3c-.1.1-.1.2-.2.3l-2.9 4.3c0 .1-.1.1-.1.1s-.1.1-.2.1h-.9c-.1 0-.2 0-.3-.1-.1 0-.1-.1-.1-.1V25s.1-.1.2-.1.2 0 .3-.1h.8c.1 0 .2 0 .3.1.1 0 .1 0 .2.1v5.5c.1-.1.2-.3.3-.4s.3-.3.3-.5l2.9-4.3.1-.1s.1-.1.2-.1.2 0 .3-.1h.8c.1 0 .2 0 .3.1.1 0 .1.1.1.1v.1l-.1 7.9zm7.3-7.4v.3c0 .1 0 .2-.1.3 0 .1-.1.1-.1.1h-2v6.8s-.1.1-.2.1-.2.1-.3.1h-.8c-.1 0-.2 0-.3-.1-.1 0-.1-.1-.2-.1 0 0-.1-.1 0-.1v-6.7h-2.1l-.1-.1c0-.1-.1-.2-.1-.3v-.6c0-.1 0-.2.1-.3 0-.1 0-.1.1-.1h6l.1.1c0 .1 0 .2.1.3-.1.1-.1.1-.1.3zm7.1 5c0 .3-.1.7-.2 1-.2.3-.3.6-.6.8-.3.3-.6.4-1 .5-.5.2-1 .2-1.5.2h-2.2c-.2 0-.3 0-.3-.1-.1-.1-.1-.1-.1-.2v-7.8c0-.1.1-.2.1-.2.1-.1.1-.1.2-.1h4.9l.1.1c0 .1 0 .2.1.2v.7c0 .1 0 .2-.1.2 0 .1-.1.1-.1.1H142v2h1.4c.4 0 .8 0 1.4.2.3.1.6.3.8.4.3.2.4.4.6.8 0 .5.1.9.1 1.2zm-1.7.2c0-.2 0-.3-.1-.5s-.2-.3-.3-.3c-.2-.1-.3-.2-.4-.3-.3-.1-.5-.1-.8-.1h-1v2.4h1.1c.3 0 .4 0 .7-.1.2 0 .3-.1.4-.3l.3-.3c0-.2.1-.3.1-.5zm9.6 1.8c0 .1.1.3.1.3v.1s0 .1-.1.1c-.1.1-.2.1-.3.1h-1.3c-.1 0-.1 0-.2-.1 0 0-.1-.1-.1-.2l-.5-1.7h-3.1l-.5 1.6c0 .1 0 .1-.1.2 0 .1-.1.1-.2.1s-.2.1-.3.1h-.8c-.1 0-.2 0-.3-.1 0 0 0-.1-.1-.1v-.1c0-.1.1-.3.1-.3l2.5-7.4c0-.1.1-.1.1-.2s.1-.1.2-.1.2-.1.3-.1h1.1c.1 0 .3 0 .3.1.1 0 .2.1.2.1 0 .1.1.1.1.2l2.9 7.4zm-3.8-6.1l-1.2 3.6h2.4l-1.2-3.6zm11.4 6.5c0 .1-.1.2-.2.2s-.2.1-.3.1h-.8c-.1 0-.2 0-.3-.1-.1 0-.1-.1-.2-.1v-3.5h-3.1v3.5s-.1.1-.2.1-.2.1-.3.1h-.8c-.1 0-.2 0-.3-.1-.1 0-.1-.1-.2-.1 0 0-.1-.1 0-.1v-8s.1-.1.2-.1.2-.1.3-.1h.8c.1 0 .2 0 .3.1.1 0 .1 0 .2.1v3.1h3.1v-3.1c0-.1 0-.1.1-.1 0 0 .1-.1.2-.1s.2-.1.3-.1h.9c.1 0 .2 0 .3.1.1 0 .1.1.2.1v.1l-.2 8zm8 0c0 .1-.1.2-.2.2s-.2 0-.3.1h-.8c-.1 0-.2 0-.3-.1-.1 0-.1-.1-.2-.1 0-.1-.1-.1-.1-.2l-.7-1.9c-.1-.3-.2-.4-.3-.7-.1-.2-.2-.3-.3-.4-.1-.1-.3-.2-.4-.3-.2-.1-.3-.1-.5-.1h-.4v3.4s-.1.1-.2.1-.2.1-.3.1h-.8c-.1 0-.2 0-.3-.1-.1 0-.1-.1-.2-.1l-.1-.1v-7.9c0-.1 0-.1.1-.1 0 0 .1-.1.2-.1s.2 0 .3-.1h.8c.1 0 .2 0 .3.1.1 0 .1 0 .2.1v3.2h.3c.2 0 .3 0 .5-.1s.3-.2.4-.3c.2-.2.3-.3.3-.4.1-.3.2-.4.3-.7l.6-1.7c0-.1.1-.1.1-.2s.1-.1.2-.1.2-.1.3-.1h.8c.1 0 .2 0 .3.1.1 0 .1 0 .1.1v.3c0 .1-.1.3-.1.3l-.6 1.4c-.1.3-.2.5-.3.7-.1.2-.2.3-.3.5-.1.2-.3.3-.3.3-.2.1-.3.2-.4.3.2.1.3.2.4.3.2.1.3.3.4.3.2.2.3.3.3.5.2.3.3.5.3.8l.7 1.7c.1.1.1.3.1.3.1.6.1.6.1.7z"/>
</svg>