<svg xmlns="http://www.w3.org/2000/svg" viewBox="0 0 180 26">
	<path fill="#000" d="M42.6 2.6H29.9s-.1 0-.1.1v18.6s0 .1.1.1h1.5s.1 0 .1-.1V4.4s0-.1.1-.1h9.2s.1 0 .1.1v15.4s0 .1.1.1h1.5s.1 0 .1-.1V2.7s0-.1-.1-.1ZM97.9 16.2h-.1c-.6 1.5-1.7 2.2-3.4 2.3-4 .1-4.7-4.2-4-7.2.9-3.8 5.8-4.2 7.4-.7h.2l1.5-.5V10c-1-2.8-3.9-3.9-6.7-3.4-4.3.9-5.3 5.9-4.2 9.5 1 3.2 3.8 4.7 7.1 4 1.8-.4 3.1-1.5 3.8-3.4l-1.6-.5ZM69.5 6.9h-1c-.2 0-.3.1-.4.3l-6.6 9.5V7.2c0-.2 0-.3-.3-.3h-1.3c-.2 0-.2 0-.2.3v12.5c0 .2.1.3.3.3h1c.2 0 .3 0 .4-.2l6.5-9.4c.2-.3.3-.2.3 0v9.3c0 .1 0 .2.2.2h1.3c.1 0 .2 0 .2-.2V7.1c0-.1 0-.2-.2-.2ZM85.7 6.8h-1.1c-.2 0-.3 0-.3.2l-4.7 10.1h-.2c-1.4-3.1-3-6.4-4.6-9.9-.2-.5-.8-.4-1.3-.4-.2 0-.4 0-.4.3v12.5c0 .1 0 .3.2.3h1.3c.2 0 .2 0 .2-.2v-8.1c0-.5 0-.5.3 0l3.7 8c.1.3.4.5.7.5.3 0 .6-.2.7-.5l3.8-8.2c.1-.3.2-.3.2 0v8.2c0 .2 0 .3.3.3h1.2c.2 0 .3 0 .3-.3V7.1c0-.2 0-.2-.2-.2ZM127.5 18.3h-2.1c-.1 0-.2 0-.2-.2v-11c0-.1 0-.2-.2-.2h-1.4c-.1 0-.2.1-.2.2V18c0 .1 0 .2-.2.2h-6.1c-.1 0-.2 0-.2-.2V7.1c0-.1 0-.2-.2-.2h-1.4c-.1 0-.2.1-.2.2v12.6c0 .1 0 .2.2.2h10.4c.1 0 .2 0 .2.2v1.8c0 .1 0 .2.1.2h1.5c.1 0 .2 0 .2-.2v-3.5c0-.1 0-.2-.2-.2ZM166.3 6.9h-1.4c-.1 0-.2 0-.2.2v5.2c0 .1 0 .2-.2.2h-6.7c-.1 0-.2 0-.2-.2V7c0-.1 0-.2-.2-.2H156s-.2 0-.2.2v12.7c0 .1 0 .2.2.2h1.4c.1 0 .2 0 .2-.2v-5.3c0-.1 0-.2.2-.2h6.8c.1 0 .2 0 .2.2v5.3c0 .1 0 .2.2.2h1.4c.1 0 .2 0 .2-.2V7.1c0-.1 0-.2-.2-.2ZM180 19.7l-6.4-6.2v-.2l5.7-6.2s0-.2-.1-.2h-2l-5.4 5.9h-.2V7s0-.1-.1-.1h-1.4s-.1 0-.1.1v12.9h1.6s.1 0 .1-.1v-5.7c0-.1.1-.2.2 0l5.9 5.9h2.3c.1 0 .2-.1 0-.2ZM133.9 7.6c-1.3.2-2.3.8-3.1 1.9-.1.2-.2.2-.2 0 .2-2.8 1.7-4.5 4.5-4.9 1.4-.2 2.7-.4 3.9-.6.2 0 .3-.2.3-.4V2.5c-.1-.1-.2-.2-.3-.2-1.7.2-3.3.4-4.8.7-3.1.6-4.6 2.6-5.1 5.7-.6 3.5-.9 9.4 3.1 11.1 3.4 1.4 7.3-.2 8.2-4 .3-1.4.3-2.6 0-3.7-.9-3.5-3-4.9-6.5-4.5Zm1.1 10.9h-.7c-2 0-3.6-1.6-3.7-3.6V13c0-2 1.6-3.6 3.6-3.7h.7c2 0 3.6 1.6 3.7 3.6v1.9c0 2-1.6 3.6-3.6 3.7ZM50.4 6.7c-1.1.2-2 .8-2.7 1.7-.2.2-.2.2-.2 0v-1c0-.3-.1-.4-.4-.4h-.8c-.3 0-.4.1-.4.4v18.3s0 .1.1.1h1.5s.1 0 .1-.1v-6.8c0-.2 0-.2.2 0s.3.4.5.5c2.8 2.1 6.5 1.1 8.1-2 2.1-4.2.2-11.8-6-10.5Zm.5 11.8c-3.5-.4-3.8-4.8-3.1-7.4 1-3.9 6.1-3.8 7.2 0 .9 3 .2 7.9-4.1 7.5ZM107.2 6.5c-2 0-3.8.8-4.8 2.5-1.3 2-1.5 4.8-.8 7.1.8 2.5 2.9 4.2 5.6 4.1 2.7 0 4.8-1.6 5.6-4.1.7-2.3.5-5.1-.8-7.1-1-1.7-2.9-2.5-4.8-2.5Zm0 12c-3.7 0-4.6-4.2-3.9-7.2.4-1.7 2-3.1 3.9-3.1 1.8 0 3.4 1.4 3.9 3.1.7 2.9-.2 7.1-3.9 7.2ZM150.3 6.9c-2.9-1.1-6.5-.3-7.5 3.1 0 .2 0 .3.2.3l1.3.4c.1 0 .2 0 .3-.1.7-2.1 2.9-2.7 4.8-2.1 1.2.4 1.9 1.3 1.9 2.9 0 .3-.1.4-.4.4-1.6.1-3.3.4-4.9.7-2.4.5-4 2-3.6 4.6.3 2.2 2.2 3.2 4.3 3.2 2 0 3.6-.8 4.6-2.2.1-.1.2-.1.2 0v1.6c0 .1 0 .2.2.2h1.2c.1 0 .2 0 .2-.2v-8.5c0-1.9-.8-3.6-2.7-4.2Zm-1.5 11.4c-1.4.6-3.8.7-4.5-.9-.8-1.8.5-3 2.2-3.3 1.5-.3 3-.6 4.5-.7.2 0 .2 0 .2.2 0 2-.5 3.9-2.4 4.8Z"/>
	<path fill="#bea980" stroke-width="0" d="M0 5.4C0 2.4 2.4 0 5.4 0h12.2c3 0 5.4 2.4 5.4 5.4v12.2c0 3-2.4 5.4-5.4 5.4H5.4c-3 0-5.4-2.4-5.4-5.4V5.4Z"/>
	<path fill="#fff" d="M11.5 10.2c-.7 0-1.3.6-1.4 1.4 0 .8.6 1.4 1.4 1.4s1.4-.6 1.4-1.4-.6-1.4-1.4-1.4ZM12.2 8.8c0 .8.6 1.4 1.4 1.4S15 9.6 15 8.8s-.6-1.4-1.4-1.4-1.4.6-1.4 1.4ZM8.2 8.8c0 .8.6 1.4 1.4 1.4S11 9.6 11 8.8s-.6-1.4-1.4-1.4-1.4.6-1.4 1.4ZM15.6 7.5c.8 0 1.4-.6 1.4-1.4s-.6-1.4-1.4-1.4-1.3.6-1.4 1.4c0 .8.6 1.4 1.4 1.4ZM11.5 7.5c.8 0 1.4-.6 1.4-1.4s-.6-1.4-1.4-1.4-1.3.6-1.4 1.4c0 .8.6 1.4 1.4 1.4ZM7.5 7.5c.8 0 1.4-.6 1.4-1.4s-.6-1.4-1.4-1.4-1.4.6-1.4 1.4.6 1.4 1.4 1.4ZM14.9 14.2c0-.7-.6-1.4-1.4-1.4s-1.4.6-1.4 1.4.6 1.4 1.4 1.4 1.4-.6 1.4-1.4ZM10.9 14.2c0-.7-.6-1.4-1.4-1.4s-1.4.6-1.4 1.4.6 1.4 1.4 1.4 1.4-.6 1.4-1.4ZM15.6 15.6c-.7 0-1.3.6-1.4 1.4 0 .7.6 1.4 1.4 1.4S17 17.8 17 17s-.6-1.4-1.4-1.4ZM11.5 15.6c-.7 0-1.3.6-1.4 1.4 0 .7.6 1.4 1.4 1.4s1.4-.6 1.4-1.4-.6-1.4-1.4-1.4ZM7.5 15.6c-.7 0-1.3.6-1.4 1.4 0 .7.6 1.4 1.4 1.4s1.4-.6 1.4-1.4-.6-1.4-1.4-1.4Z"/>
</svg>