<svg viewBox="0 0 160 28" xmlns="http://www.w3.org/2000/svg">
	<path fill="#1B4692" d="M27.5901 0H0v27.6466h27.5901V0ZM45.795 8.19767c-.945-.89481-2.204-1.38217-3.5053-1.35689h-6.5583V21.2012h2.4311v-4.9187h4.1272c.6453.019 1.2878-.0912 1.8898-.3243.602-.233 1.1513-.5841 1.6155-1.0326.4553-.4267.8162-.9439 1.0597-1.5183.2434-.5745.3639-1.1936.3538-1.8174.0203-.6336-.0953-1.2641-.3391-1.84928-.2439-.58514-.6102-1.11126-1.0744-1.54295Zm-1.7526 5.14483c-.2407.2286-.5249.4065-.8357.523-.3108.1166-.6419.1694-.9735.1555H38.106V9.04573h4.1272c.6684-.01814 1.3175.22528 1.8092.67844.2286.2407.4064.52493.523.83573.1165.3108.1694.6418.1554.9735.0276.3329-.0189.6678-.1362.9807-.1173.3128-.3025.5957-.5422.8284Zm8.4806-2.6572c-.7279-.0198-1.4524.1049-2.1317.3669s-1.2999.6562-1.8259 1.1596c-.5282.4896-.9473 1.085-1.2298 1.7474-.2825.6625-.4221 1.3771-.4098 2.0971-.0123.7201.1273 1.4347.4098 2.0971.2825.6625.7016 1.2579 1.2298 1.7474.526.5035 1.1466.8976 1.8259 1.1596.6793.2621 1.4038.3868 2.1317.3669 1.4867.039 2.9289-.5095 4.0141-1.5265.5299-.4882.9501-1.0833 1.2327-1.7461.2827-.6628.4213-1.378.4069-2.0984.0123-.72-.1274-1.4346-.4099-2.0971-.2825-.6624-.7015-1.2578-1.2297-1.7474-1.0852-1.017-2.5274-1.5654-4.0141-1.5265Zm2.3745 7.689c-.315.3023-.6875.5381-1.0954.6935-.4079.1554-.8429.2272-1.2791.2111-.4339.0201-.8672-.0487-1.2735-.2021-.4063-.1534-.777-.3881-1.0893-.6899-.3123-.3017-.5597-.6641-.727-1.0649-.1673-.4007-.251-.8314-.2459-1.2657-.0097-.4319.0708-.8611.2363-1.2602.1655-.3992.4123-.7594.7248-1.0578.6536-.5829 1.4988-.9051 2.3746-.9051.8757 0 1.7209.3222 2.3745.9051.3111.2995.557.6599.7224 1.0587.1654.3989.2466.8276.2387 1.2593.0129.4324-.0662.8626-.2319 1.2621-.1656.3996-.4142.7595-.7292 1.0559Zm11.7597.5089c-.517.2943-1.1012.4501-1.6961.4523-.4338.02-.8672-.0488-1.2734-.2021-.4063-.1534-.777-.3882-1.0893-.6899-.3124-.3018-.5598-.6642-.7271-1.0649-.1673-.4008-.251-.8315-.2459-1.2657-.0128-.4324.0662-.8626.2319-1.2622.1657-.3995.4142-.7594.7293-1.0559.3149-.3022.6874-.538 1.0954-.6934.4079-.1554.8429-.2272 1.2791-.2112.5902-.0179 1.1748.1185 1.6961.3958.4662.257.8415.652 1.0742 1.1307l1.9788-1.0742c-.4501-.8066-1.1156-1.4721-1.9222-1.9222-.8629-.4855-1.8369-.7387-2.8269-.735-1.4867-.0389-2.9289.5095-4.0141 1.5265-.5282.4896-.9472 1.085-1.2298 1.7474-.2825.6625-.4221 1.3771-.4098 2.0971-.0109.7199.1294 1.434.4118 2.0963.2824.6622.7007 1.2578 1.2278 1.7482.5342.5083 1.1643.905 1.8535 1.1671s1.4237.3843 2.1606.3594c.9904.0069 1.9652-.2466 2.8269-.7349.8201-.4517 1.5035-1.1156 1.9788-1.9223l-1.9788-1.0742c-.236.5094-.6334.9268-1.1308 1.1873ZM83.6183 6.84078H73.3286V14.021c0 2.2049-.4523 3.8445-1.3004 4.9187h-1.3568v4.9753h2.4311v-2.7703h9.6678v2.7703h2.4311v-4.9753h-1.5831V6.84078ZM81.1307 18.9397h-6.4452c.735-1.1307 1.0742-2.7703 1.0742-4.9187V9.04573h5.371v9.89397Zm10.5159-8.2544c-.7278-.0198-1.4524.1049-2.1317.3669s-1.2999.6562-1.8259 1.1596c-.5282.4896-.9472 1.085-1.2297 1.7474-.2825.6625-.4222 1.3771-.4099 2.0971-.0109.7199.1294 1.434.4118 2.0963.2825.6622.7007 1.2578 1.2278 1.7482.526.5035 1.1466.8976 1.8259 1.1596.6793.2621 1.4039.3868 2.1317.3669 1.4868.039 2.929-.5095 4.0141-1.5265.5299-.4882.9501-1.0833 1.2328-1.7461.2826-.6628.4213-1.378.4068-2.0984.0123-.72-.1273-1.4346-.4098-2.0971-.2825-.6624-.7016-1.2578-1.2298-1.7474-1.0851-1.017-2.5273-1.5654-4.0141-1.5265Zm2.3746 7.689c-.4632.4696-1.0553.7913-1.7012.9244-.646.1332-1.317.0718-1.9281-.1762-.6112-.2481-1.135-.6718-1.5054-1.2176-.3704-.5457-.5707-1.189-.5756-1.8486-.0096-.4319.0709-.8611.2364-1.2602.1655-.3992.4123-.7594.7247-1.0578.3129-.3052.6851-.543 1.0935-.6986.4085-.1556.8445-.2257 1.2811-.206.4361-.0145.8706.0581 1.2783.2134.4077.1553.7804.3903 1.0963.6912.3182.2939.5689.6534.7349 1.0536.1659.4001.2431.8315.2262 1.2644.0042.4312-.0787.8588-.2439 1.2572-.1651.3983-.4091.7592-.7172 1.0608Zm11.0808-7.689c-.719-.0462-1.438.0903-2.091.3967-.652.3064-1.216.7729-1.64 1.3559V10.968h-2.318v14.3039h2.318v-5.5407c.436.5659 1.004 1.0163 1.655 1.312.65.2956 1.363.4275 2.076.3841.694.0132 1.382-.1154 2.024-.3779.641-.2625 1.223-.6533 1.708-1.1486.502-.5037.896-1.1043 1.158-1.7652.263-.661.388-1.3684.368-2.0793.015-.7102-.113-1.4161-.375-2.0763-.262-.6602-.653-1.2614-1.151-1.7682-.477-.5062-1.057-.9044-1.7-1.1677-.644-.2633-1.337-.3857-2.032-.3588Zm2.036 7.7456c-.652.628-1.526.9734-2.431.9611-.449.0086-.895-.072-1.312-.237-.417-.1649-.798-.4111-1.119-.7241-.311-.2995-.557-.6599-.723-1.0588-.165-.3988-.246-.8275-.239-1.2592-.009-.4404.071-.8781.236-1.2864.166-.4082.412-.7785.726-1.0882.659-.6173 1.528-.9608 2.431-.9608s1.772.3435 2.431.9608c.316.3074.565.6773.73 1.0861.166.4088.244.8476.231 1.2885.013.4323-.066.8625-.232 1.2621-.166.3995-.414.7594-.729 1.0559Zm11.873-6.0495h-4.241V9.10226h7.746V6.84078h-10.233V21.2012h6.671c1.267.0489 2.504-.3972 3.449-1.2438.442-.3979.792-.8872 1.026-1.4338.235-.5467.347-1.1378.331-1.7323.016-.5945-.096-1.1856-.331-1.7323-.234-.5466-.584-1.0359-1.026-1.4338-.923-.8453-2.142-1.2923-3.392-1.2438Zm1.639 5.9929c-.468.4111-1.073.6329-1.696.6219h-4.24v-4.4098h4.24c.623-.011 1.228.2108 1.696.6219.226.1954.404.4394.521.7136.118.2741.172.5714.158.8694.008.2973-.048.5928-.166.8661-.117.2734-.292.518-.513.7169Zm13.286-5.9929c-.436-.5659-1.004-1.0163-1.655-1.3119-.65-.2957-1.363-.4276-2.076-.3842-.693-.0132-1.382.1154-2.023.3779-.642.2625-1.223.6534-1.709 1.1486-.502.5037-.896 1.1044-1.158 1.7653-.263.6609-.388 1.3684-.368 2.0792-.019.7108.106 1.4182.368 2.0791.263.6609.657 1.2615 1.158 1.7654.481.5055 1.06.9068 1.702 1.1792.642.2723 1.333.4098 2.03.4039.719.0462 1.438-.0903 2.091-.3967.652-.3065 1.217-.7729 1.64-1.356v1.47h2.318V10.968h-2.318v1.4134Zm-.961 6.0495c-.659.6173-1.528.9607-2.431.9607s-1.772-.3434-2.431-.9607c-.311-.2995-.557-.6599-.722-1.0588-.166-.3988-.247-.8275-.239-1.2592-.01-.4404.071-.8781.236-1.2864.165-.4082.412-.7785.725-1.0882.659-.6173 1.528-.9608 2.431-.9608s1.772.3435 2.431.9608c.617.6252.963 1.4681.963 2.3463 0 .8782-.346 1.721-.963 2.3463Zm12.891-3.3922h-4.919v-4.1273h-2.318v10.2898h2.318v-4.0707h4.919v4.0707h2.261V10.968h-2.261v4.0707Zm9.272.9045 4.692-4.9752h-2.827l-4.127 4.5229V10.968h-2.318v10.2332h2.318v-4.7491l4.354 4.7491H160l-4.862-5.258Z"/>
	<path fill="url(#a)" d="M22.4448 12.3246H13.625v2.9399h9.9505l4.0142-3.6183V7.74512l-5.1449 4.57948Z"/>
	<linearGradient id="a" x1="27.5" y1="11.5" x2="-11" y2="11.5" gradientUnits="userSpaceOnUse">
		<stop offset=".16" stop-color="#57C8E8"/>
		<stop offset=".78" stop-color="#478ECC"/>
	</linearGradient>
	<path fill="url(#b)" d="M13.9647 12.3252H4.01413L0 16.9047v4.4099l5.31448-6.0495h8.65022v-2.9399Z"/>
	<linearGradient id="b" x1="36.8" y1="16.8" x2="0" y2="16.8" gradientUnits="userSpaceOnUse">
		<stop offset=".16" stop-color="#57C8E8"/>
		<stop offset=".78" stop-color="#478ECC"/>
	</linearGradient>
	<path fill="#D0D5D6" d="m9.3291 18.7136 10.2332-4.9187h-8.7632l-1.47 4.9187Z"/>
	<path fill="#fff" d="m9.3291 8.87695 10.2332 4.91875h-8.7632l-1.47-4.91875Z"/>
</svg>