<svg xmlns="http://www.w3.org/2000/svg" viewBox="0 0 109 44">
	<path fill="#4B9B45" d="M23.1 17.7998c0-4.6 2.5-8.6 6.3-11-3-3.4-7.5-5.5-12.5-5.5-9.3 0-16.9 7.50001-16.9 16.7 0 9.2 7.6 16.7 16.9 16.7 5.1 0 9.6-2.2 12.7-5.8-3.9-2.3-6.5-6.4-6.5-11.1Zm79.2 19.8 3.7-3.7h-2.1l-4 4v-7.7h-1.6v13.6h1.6v-3.9l1.2-1.1 3.3 5h2l-4.1-6.2Zm-7.2-2.7c-.2-.3-.6-.6-1.1-.8-.5-.2-1-.3-1.6-.3-1.3 0-2.4.6-3.1 1.6v-1.4h-1.5v9.8h1.6v-5.4c0-1.2.2-2.1.8-2.6.5-.5 1.1-.7 1.8-.7.4 0 .8.1 1.2.3.3.2.6.5.7.8.1.3.2.8.2 1.5v6h1.7v-6c0-.8 0-1.3-.1-1.6-.2-.5-.4-.9-.6-1.2Zm-9.8 4.8v-2.2c0-.7 0-1.2-.1-1.5-.1-.5-.3-.8-.5-1.2-.2-.3-.6-.6-1.2-.7-.5-.2-1.2-.3-2.1-.3-.8 0-1.6.1-2.2.3-.6.2-1.1.6-1.5 1-.3.4-.6 1-.7 1.7l1.6.2c.2-.7.5-1.2.8-1.5.4-.3 1-.4 1.7-.4.8 0 1.5.2 1.9.6.3.3.5.7.5 1.4v.4c-.7.2-1.6.4-3 .6-.7.1-1.2.2-1.5.2-.5.1-.9.3-1.2.6-.4.2-.7.6-.9 1-.2.4-.3.8-.3 1.3 0 .8.3 1.5.9 2 .6.5 1.4.8 2.5.8.7 0 1.3-.1 1.8-.3.6-.2 1.2-.6 1.8-1.1 0 .5.2.9.4 1.2h1.7c-.2-.4-.3-.8-.4-1.2v-2.9Zm-1.9-.3c0 .7-.1 1.3-.3 1.6-.2.5-.6.9-1.1 1.2-.5.3-1.1.4-1.7.4-.6 0-1.1-.2-1.5-.4-.3-.3-.5-.7-.5-1.1 0-.3.1-.5.2-.8.2-.2.4-.4.7-.5.3-.1.8-.2 1.5-.3 1.2-.2 2.1-.4 2.7-.6v.5Zm-9.3-4.2c-.3-.4-.8-.8-1.3-1-.5-.2-1.1-.4-1.7-.4-1.1 0-2 .4-2.7 1.3v-4.9h-1.7v13.6h1.6v-1.2c.7 1 1.6 1.4 2.7 1.4 1.2 0 2.1-.4 3-1.4.8-.9 1.2-2.2 1.2-3.9 0-.7-.1-1.4-.3-2-.2-.6-.5-1.1-.8-1.5Zm-1.5 6.5c-.5.6-1.2.9-1.9.9-.9 0-1.6-.4-2.1-1.3-.3-.5-.5-1.4-.5-2.6 0-1.2.3-2.1.8-2.7.5-.6 1.2-.9 1.9-.9s1.3.3 1.8.9c.5.6.7 1.6.7 2.8.1 1.3-.1 2.2-.7 2.9Z"/>
	<path fill="#fff" d="M12.8 27.2c0 .8-.7 1.4-1.4 1.4-.8 0-1.4-.7-1.4-1.4l.1-11.7c0-2.5.9-4.5 2.4-5.9 1.5-1.4 3.6-2.1 6.2-2.1.8 0 1.4.6 1.4 1.4 0 .8-.6 1.4-1.4 1.4-1.8 0-3.3.5-4.2 1.4-.9.9-1.5 2.2-1.5 3.9l-.2 11.6Z"/>
	<path fill="#241E20" d="M36.1001 7c-2.9 0-5.5 1.2-7.4 3.1-1.9 1.9-3.1 4.5-3.1 7.4 0 2.9 1.2 5.5 3.1 7.4 1.9 1.9 4.5 3.1 7.4 3.1 2.9 0 5.5-1.2 7.4-3.1 1.9-1.9 3.1-4.5 3.1-7.4 0-2.9-1.2-5.5-3.1-7.4-1.9-1.9-4.5-3.1-7.4-3.1Zm5.6 16.1c-1.5 1.4-3.4 2.3-5.6 2.3-2.2 0-4.2-.9-5.6-2.3-1.4-1.4-2.3-3.4-2.3-5.6 0-2.2.9-4.2 2.3-5.6 1.5-1.4 3.5-2.3 5.6-2.3 2.2 0 4.2.9 5.6 2.3 1.4 1.5 2.3 3.4 2.3 5.6 0 2.2-.9 4.2-2.3 5.6Zm22.6-16c-.7 0-1.3.6-1.3 1.3v12.1c-.1 2.1-1.3 3.5-2.9 4.2-.8.3-1.7.5-2.6.5-.9 0-1.9-.2-2.7-.5-1.8-.7-3.2-2.1-3.4-4.3l.1-12c0-.7-.6-1.3-1.3-1.3-.7 0-1.3.6-1.3 1.3l-.1 12.2v.1c.2 3.3 2.4 5.5 5.1 6.5 1.2.5 2.4.7 3.7.7 1.3 0 2.5-.3 3.6-.7 2.5-1.1 4.4-3.2 4.5-6.5V8.3c-.1-.7-.7-1.2-1.4-1.2Zm15.7.9c-1.2-.4-2.4-.7-3.7-.7-1.3 0-2.5.3-3.6.7-2.5 1.1-4.4 3.2-4.5 6.5v12.3c0 .7.6 1.3 1.3 1.3.7 0 1.3-.6 1.3-1.3V14.7c.1-2.1 1.3-3.5 2.9-4.2.8-.3 1.7-.5 2.6-.5.9 0 1.9.2 2.7.5 1.8.7 3.2 2.1 3.4 4.3l-.1 12c0 .7.6 1.3 1.3 1.3.7 0 1.3-.6 1.3-1.3l.1-12.2v-.1c-.2-3.3-2.4-5.4-5-6.5ZM107.4 0c-.7 0-1.2.6-1.2 1.2v10c-1.9-2.5-4.9-4-8.1999-4-5.8 0-10.4 4.7-10.4 10.4s4.5 10.4 10.3 10.4c3.3999 0 6.2999-1.6 8.1999-4v2.8c0 .7.6 1.2 1.2 1.2.7 0 1.2-.6 1.2-1.2V1.2c.1-.6-.5-1.2-1.1-1.2Zm-9.4999 25.5c-4.4 0-7.9-3.6-7.9-7.9 0-4.4 3.6-7.9 7.9-7.9 4.3999 0 7.8999 3.6 7.8999 7.9 0 4.4-3.6 7.9-7.8999 7.9Z"/>
</svg>