<svg xmlns="http://www.w3.org/2000/svg" viewBox="0 0 180 33">
	<g fill="#414042">
		<path d="M41.4 5.9h-3.8c.3.3.3.6.3 1.3V15c.1.4 0 .9-.3 1.3h2.9c-.3-.3-.3-.6-.3-1.3v-2h1.3c2.7 0 4.3-1.4 4.3-3.6s-1.7-3.5-4.4-3.5zm-.4 5.8h-1V7.1h1c.3 0 .6 0 .9.1.3.1.6.3.8.5.2.2.4.5.5.8.1.3.2.6.1.9 0 .3 0 .6-.1.9-.1.3-.3.6-.5.8-.2.2-.5.4-.8.5-.2.1-.5.2-.9.1zm9.2 4.4L47 8.9c-.2-.5-.5-1-.9-1.5h3.2c-.1.2-.2.5-.2.7 0 .2.1.5.2.7l2 4.7L53 8.7c.1-.2.1-.4.1-.7 0-.2 0-.5-.1-.7h2.2c-.4.4-.6.8-.8 1.3L52 15.2c-.7 1.8-1.5 3.3-3.6 3.3-.9 0-1.8-.3-2.4-.9l.6-1.3c.2.3.5.6.8.8.3.2.7.3 1.1.2.8.2 1.4-.3 1.7-1.2.1 0 0 0 0 0zm9.3.3c-2.3 0-4.2-1.5-4.2-4.6 0-.6.1-1.2.3-1.8.2-.6.6-1.1 1-1.5.4-.4 1-.8 1.6-1 .6-.2 1.2-.3 1.8-.3 1.2 0 1.8.3 2.4.3.3 0 .5-.1.8-.2l-.8 2c-.3-.3-.6-.6-1-.7-.4-.2-.8-.3-1.2-.3-1.7 0-2.7 1.4-2.7 3.6s.8 3.4 2.5 3.4c.5 0 1.1-.1 1.6-.3.5-.2.9-.6 1.2-1l.4 1c-.5.5-1.1.9-1.7 1.2-.6.1-1.3.2-2 .2zm8.5 0c-2.3 0-4.2-1.5-4.2-4.6 0-.6.1-1.2.3-1.8.2-.6.6-1.1 1-1.5.4-.4 1-.8 1.6-1 .6-.2 1.2-.3 1.8-.3 1.2 0 1.8.3 2.4.3.3 0 .5-.1.8-.2l-.8 2c-.3-.3-.6-.6-1-.7-.4-.2-.8-.3-1.2-.3C67 8.2 66 9.7 66 11.8s.8 3.4 2.5 3.4c.5 0 1.1-.1 1.6-.3.5-.2.9-.6 1.2-1l.4 1c-.5.5-1.1.9-1.7 1.2-.6.2-1.3.3-2 .3 0 0-.1 0 0 0zm7.2-4.7l3.1-3.2c.5-.5.6-.8.6-1.2h2.8c-.6.4-1.1.8-1.6 1.3l-2.7 2.6 2.9 3.5c.4.6 1 1.1 1.6 1.4h-3.5c0-.2 0-.4-.1-.5-.1-.2-.2-.3-.3-.5l-2.8-3.4V15c-.1.4 0 .9.3 1.3h-2.8c.2-.4.3-.8.3-1.3V8.6c.1-.4 0-.9-.3-1.3h2.8c-.3.4-.4.8-.3 1.3v3.1zm13.5-3.1c.1-.4 0-.9-.3-1.3h2.8c-.3.4-.4.8-.3 1.3V15c-.1.4 0 .9.3 1.3h-2.8c.3-.4.4-.8.3-1.3v-4.3l-3.8 4v.3c-.1.4 0 .9.3 1.3h-2.8c.3-.4.4-.8.3-1.3V8.6c.1-.4 0-.9-.3-1.3h2.8c-.2.4-.3.9-.2 1.3v4.3l3.8-4-.1-.3zm10.3 0c.1-.4 0-.9-.3-1.3h2.8c-.3.4-.4.8-.3 1.3V15c-.1.4 0 .9.3 1.3h-2.8c.3-.4.4-.8.3-1.3v-4.3l-3.8 4v.3c-.1.4 0 .9.3 1.3h-2.8c.3-.4.4-.8.3-1.3V8.6c.1-.4 0-.9-.3-1.3h2.8c-.3.4-.4.8-.3 1.3v4.3l3.8-4v-.3zm-2.3-3.9c-.2.2-.2.5-.3.7 0 .3.2.5.8.5s.8-.2.8-.4c0-.3-.1-.5-.3-.7h.8c.2.2.3.5.3.9 0 .7-.7 1.1-1.7 1.1s-1.7-.4-1.7-1.1c0-.2 0-.3.1-.5.1-.1.2-.3.3-.4l.9-.1zm18.4 3.4c-.3-.4-.7-.7-1.2-.9-.5-.2-1-.3-1.4-.3-2.1 0-3.3 1.6-3.3 4.2s.9 4.1 3.3 4.1c.6 0 1.1-.2 1.6-.4s1-.6 1.4-1l.6 1c-.5.6-1.2 1-1.9 1.3-.7.3-1.5.4-2.3.4-3.2 0-5.1-1.9-5.1-5.2 0-.7.1-1.4.4-2.1.3-.7.7-1.3 1.2-1.8s1.1-.9 1.8-1.1c.7-.3 1.4-.4 2.1-.3 1.4 0 2 .3 2.9.3.4 0 .8-.1 1.1-.3l-1.2 2.1z"/>
		<path d="M117.9 8.5c-.7-.1-1.4.1-2 .5l.7-1.6h8L124 9c-.2-.2-.4-.3-.6-.4-.2-.1-.5-.1-.7-.1h-1.4V15c-.1.4.1.9.3 1.3h-2.8c.3-.4.4-.8.3-1.3V8.5h-1.2zm15.3 7.7c-.4-.4-.7-.8-.9-1.3l-3.2-7.5h-2.5c.3.2.5.5.7.9l-2.9 6.7c-.2.5-.5.9-.9 1.3h2.2c-.3-.5-.2-.8 0-1.4l.2-.5h3.9l.2.5c.2.7.3.9 0 1.4l3.2-.1zm-6.8-3l1.6-3.7 1.4 3.7h-3zm13.8-1h-3.8V15c-.1.4.1.9.3 1.3H134c.3-.4.4-.8.3-1.3V8.6c.1-.4-.1-.9-.3-1.3h2.8c-.3.4-.4.8-.3 1.3V11h3.8V8.6c.1-.4-.1-.9-.3-1.3h2.8c-.3.4-.4.8-.3 1.3V15c-.1.4.1.9.3 1.3H140c.3-.4.4-.8.3-1.3-.1-.1-.1-2.8-.1-2.8zm11.4 2V8.7c-.1-.4.1-.9.3-1.3h-7c.3.3.3.6.3 1.3v3.5c0 1.6-.3 2.9-1.9 3.5v1.6c.6-.6 1.5-.9 2.3-.9h4.6c.9 0 1.7.3 2.3.9v-1.6c-.3-.1-.6-.2-.8-.5-.1-.4-.2-.7-.1-1zm-2.1.5c0 .1 0 .2-.1.3-.1.1-.2.1-.3.1h-3c.5-.9.8-1.9.7-2.9V8.9v-.2c0-.1.1-.1.1-.2 0 0 .1-.1.2-.1h2.5l-.1 6.3zm13.5 1.5c-.4-.4-.7-.8-.9-1.3l-3.2-7.5h-2.5c.3.2.5.5.7.9l-2.9 6.7c-.2.5-.5.9-.9 1.3h2.2c-.3-.5-.2-.8 0-1.4l.2-.5h3.8l.3.5c.2.7.3.9 0 1.4h3.2v-.1zm-6.9-3l1.6-3.7 1.4 3.7h-3zm11-5.8h-3.6c.3.3.3.6.3 1.3V15c.1.4-.1.9-.3 1.3h2.8c-.3-.3-.3-.6-.3-1.3v-1.4h1.1c2.5 0 4-1.3 4-3.2s-1.4-3-4-3zm-.3 5.1h-.8v-4h.8c1.4 0 2.2.6 2.2 2s-.8 2-2.2 2zM40.9 24.2H40v-2.4h2.2c.2 0 .5 0 .7.1l.6.3.7-1.5h-6.5c.3.3.3.6.3 1.3v6.4c.1.4 0 .9-.3 1.3H41c2.1 0 3.6-.7 3.6-2.7s-1.6-2.8-3.7-2.8zm-.3 4.3H40v-3.3h.7c1.1 0 1.8.5 1.8 1.6s-.8 1.7-1.9 1.7zm14.2 1.1c-.4-.4-.7-.8-.9-1.3l-3.2-7.5h-2.5c.3.2.5.5.7.9L46 28.4c-.2.5-.5.9-.9 1.3h2.2c-.3-.5-.2-.8 0-1.4l.2-.5h3.8l.3.5c.2.7.3.9 0 1.4h3.2zm-6.9-3l1.5-3.7 1.5 3.7h-3zm14-1h-3.7v2.8c-.1.4 0 .9.3 1.3h-2.8c.3-.4.4-.8.3-1.3V22c.1-.4 0-.9-.3-1.3h2.8c-.3.4-.4.8-.3 1.3v2.5H62V22c.1-.4 0-.9-.3-1.3h2.8c-.3.4-.4.8-.3 1.3v6.4c-.1.4 0 .9.3 1.3h-2.8c.3-.4.4-.8.3-1.3l-.1-2.8zm6.8-.5l3.1-3.2c.5-.5.6-.8.6-1.2h2.8c-.6.4-1.1.8-1.5 1.3L71 24.7l2.9 3.5c.4.6 1 1.1 1.6 1.4H72c0-.2 0-.4-.1-.5-.1-.2-.2-.3-.3-.5l-2.8-3.3v3.1c-.1.4 0 .9.3 1.3h-2.8c.3-.4.4-.8.3-1.3V22c.1-.4 0-.9-.3-1.3H69c-.3.4-.4.8-.3 1.3v3.1zM173.3 8.5c-.7-.1-1.4.1-2 .5l.7-1.6h8l-.7 1.6c-.2-.2-.4-.3-.6-.4-.2-.1-.5-.1-.7-.1h-1.4v6.4c-.1.4.1.9.3 1.3h-2.8c.3-.4.4-.8.3-1.3V8.5h-1.1zM16.6 0c-3.3 0-6.5 1-9.2 2.8-2.7 1.8-4.8 4.4-6.1 7.4-1.3 3-1.6 6.3-1 9.5.6 3.2 2.2 6.2 4.5 8.5s5.3 3.9 8.5 4.5c3.2.6 6.5.3 9.6-.9 3-1.2 5.6-3.4 7.4-6.1 1.8-2.7 2.8-5.9 2.8-9.2 0-2.2-.4-4.3-1.2-6.3-.8-2-2-3.8-3.6-5.4S25 2 23 1.2C20.9.4 18.7 0 16.6 0zm0 31.3c-2.9 0-5.8-.9-8.2-2.5C6 27.2 4.1 24.9 3 22.2s-1.4-5.7-.8-8.5c.6-2.9 2-5.5 4.1-7.6 2.1-2.1 4.7-3.5 7.6-4 2.9-.6 5.8-.3 8.5.9 2.7 1.1 5 3 6.6 5.5 1.6 2.4 2.5 5.3 2.5 8.2 0 1.9-.4 3.9-1.1 5.7-.9 1.6-2 3.2-3.4 4.6-1.4 1.4-3 2.5-4.8 3.2s-3.7 1.1-5.6 1.1z"/>
		<path d="M20.2 22.4c1.4 1.5 1.2 4.2.7 5.5 0 .1 0 .1-.1.2l-.1.1c-.8.3-1.7.5-2.2.6.9-.8 1.5-1.8 1.8-2.9.4-1.2.3-2.4-.1-3.5zm7.7-1.8c-1.8-1.5-3.9-2.6-6.1-3.1 2.3 1.1 4.1 3 5.2 5.3.4-.6.7-1.3 1-2 0-.1 0-.1-.1-.2zm1-4v-.2c-.7-.3-1.4-.5-2.1-.7.3-.2.5-.4.7-.8-.7.4-1.5.5-2.3.5 1.4.5 2.7 1.3 3.8 2.2-.1-.3-.2-.7-.1-1z"/>
		<path d="M22.2 20.9c.5.2 1 .2 1.5 0-2-.5-3.1-3.4-7.7-3.8-.2 0-.7 0-.4-.4.6-.6 1.3-1.2 2.1-1.7-.3 0-1.9.1-2.3.2-.5 0-.6 0-.6-.4 0 0-.9.9-.5 1.3h.5c.2 0 .6-.2.9-.3-.2.2-.3.5-.5.8 0 .3-.1.4.3.5 1.4.4 2.7 1 3.8 1.8 1.3.8 2.4 1.9 3.1 3.3.7 1.3 1.1 2.9 1.1 4.4.6-.4 1.2-.9 1.8-1.4v-.3c-.7-1.6-1.8-2.9-3.1-4z"/>
		<path d="M27.3 11c-.3-.2-1.6-1-1.9-1.2-.3-.1-.5-.3-.7-.6s-.2-.6-.2-.9c0-.9-.5-2-2.1-3.4v.4c-.4-.3-1-.6-1.7-.7 0 0 .1-.5.2-.9 0-.3-.2-.6-.7-.3-2 .9-5.2.9-8.6 4.1.4-1.1 1.2-2 2.1-2.8-.9.2-1.7.5-2.5.9-.2.1-.4.3-.6.5-1.2 1.9-2.1 4-2.4 6.3-.2-1.6-.2-3.3 0-4.9-.6.6-1.2 1.3-1.8 2-.2.2-.3.5-.3.8 0 2.4.5 4.7 1.4 6.8-1.3-1.3-2.2-2.8-2.8-4.5-.3 1-.6 2.1-.7 3.1 0 .5.1.9.4 1.3 1.3 2.3 3.3 4.2 5.6 5.5-1.4-.1-4.2-1.7-5.6-2.9.3 1 .7 2.1 1.2 3 .2.4.4.6 1 .9 2.3 1.3 4.9 1.9 7.5 1.8-2 .7-4.2.8-6.2.3.4.4.8.7 1.2 1 .9.7 2 1.1 3.1 1.3 2.7.5 5.9-1.3 5.1-4.9-.1.3-.3.6-.6.8-.3.2-.6.4-.9.5 1.3-1.3 1.2-3.4-1.1-3.6-1-.1-1.9-.1-2.9 0-.3 0-.5 0-.8-.1-.3-.1-.5-.2-.7-.4.4 0 .9-.1 1.3-.2.7-.3 1.5-.5 2.3-.5 0-.1-.3-.5-1.4-.1H12c-.2-.1-.3-.2-.5-.3 1 .3 1.4-.9 2.4-.3.2.1.5.1.4-.1-.1-.2-.2-.3-.4-.4-.2-.1-.3-.1-.5-.1-1-.2-2-.1-2.9.3-.4.2-.8.5-1.1.8-.1-.9.2-1.8.8-2.5 1-.6 2.1-1 3.2-1.1 0-.1-.1-.2-.1-.3 0-.1 0-.2.1-.3.3-.4 1.3-1.1 7.1-1.1l-.5.5c1.2.1 2.5.4 3.6.8.1 0 .5.1.9-.5.1-.2 0-.2-.3-.4v-.3c0-.2-.1-.1-.2 0s-.6.1-.7 0c-.1-.2-.3-.4-.5-.5-.2-.1-.4-.2-.7-.2.2-.2.4-.3.7-.4.3-.1.5 0 .8 0 0 0 0 .3.3.2s.3-.3.5 0v.3c0 .1 0 .2.2 0l.3-.3c.2.1.5.1.8 0 .2-.1.4-.3.6-.4.2-.2.3-.4.3-.7.6-.6.9-1 .7-1.1zm-11.1-.3c.2-.1.5-.2.8-.3.3 0 .5 0 .3.2-.6.9-.6 2.5.3 2.8-.5 0-1.1 0-1.6.1 0-.8 0-1.5.2-2.3l-.9.4c.1-1 .4-2 .9-2.8.5-.9 1.3-1.6 2.2-2.1-1.3 1.1-2 2.5-2.2 4zm3.7-6.4c-.2.3-.7.9-.5 1.3l-.9.3c-.2.1-.3 0-.2-.2.3-.6.7-1.1 1.3-1.4.4-.2.4-.1.3 0zm3.7 4.5c0 .3 0 .3-.3.3-.1-.1-.2-.1-.4-.1h-.1c.2.3.2.6.2.9-.3-.6-.7-1.1-1.2-1.6.4 0 .9 0 1.3.1.2 0 .4 0 .5-.8.2.5.2.9 0 1.2.1 0 .1 0 0 0z"/>
	</g>
</svg>