<svg xmlns="http://www.w3.org/2000/svg" viewBox="0 0 194 50">
	<path fill="#42AB44" d="m15.0934 28.0637 4.8625-4.7634V20.055l-4.8625 4.7524v3.2563Zm0-12.0791 4.8625-4.7855V8.1518l-4.8625 4.7415v3.0913Zm0 3.9934 4.8625-4.7635v-3.0583l-4.8625 4.7524v3.0694ZM13.7073 8.1848l-.6601-.61606V0h-.7261v6.84267l-.638-.62706V0h-.7371v5.50054l-.6491-.63807V0h-.72605v7.2167l4.88445 4.7635V0h-.737v8.1848h-.011Zm1.3861 15.7865 4.8625-4.7634v-3.0583l-4.8625 4.7524v3.0693Zm-5.53355-.671 4.88445 4.7634v-3.2563L9.55985 20.055v3.2453ZM19.2298 4.86247l-.6491.63807V0h-.726v6.22661l-.6601.61606V0h-.7261v7.55774l-.638.62706V0h-.7371v11.9912l4.8625-4.7745V0h-.7261v4.86247ZM9.55985 11.1991l4.88445 4.7855v-3.0803L9.55985 8.14079v3.05831Zm0 4.0154 4.88445 4.7635v-3.0804l-4.88445-4.7304v3.0473Zm0 3.9934 4.88445 4.7634V20.902l-4.88445-4.7414v3.0473Zm29.00985 2.5192H26.7325c.2584-.4.3959-.866.3961-1.3421-.006-1.3902-1.1731-2.5473-2.5633-2.5413-1.3818.006-2.5353 1.1595-2.5412 2.5413 0 .55.176 1.0561.473 1.4741-.2214.1474-.3609.4051-.363.6711 0 .286.154.5391.363.6821-.3065.4305-.4718.9456-.473 1.4741 0 1.3841 1.1571 2.5413 2.5412 2.5413 1.3902.006 2.5573-1.1511 2.5633-2.5413 0-.495-.1431-.9571-.3961-1.3421h8.8119v.539h-.8801v.7481h.8801v.7701h-.8801v1.4301h.8801v-.638h1.2871v.638h.8691v-1.4301h-.8691v-.7701h.8691v-.7481h-.8691v-.55h1.7382c.3355 0 .616-.2805.616-.6161v-.374c-.0058-.3332-.2828-.6103-.616-.6161Zm-12.6843 2.9703c0 .719-.6011 1.3201-1.3201 1.3201-.719 0-1.3201-.6011-1.3201-1.3201 0-.5051.3434-.9294.594-1.3421-.2381-.2034-.378-.512-.374-.8251 0-.33.143-.6161.363-.8141-.2369-.4146-.5799-.8439-.572-1.3421 0-.719.6011-1.3201 1.3201-1.3201.719 0 1.3201.6011 1.3201 1.3201 0 .539-.616 1.8152-.616 1.8152v.682c-.011.011.605 1.2872.605 1.8262ZM5.13741 20.176v3.1793c0 3.0253 1.32013 4.9835 2.09021 5.7315l5.03848 4.9505c1.4081 1.3752 1.6502 1.8262 1.9692 2.6073v-3.5204c0-2.865-1.3322-4.1204-2.1895-4.9283-1.4978-1.4114-2.9671-2.8575-4.42214-4.3126-1.10075-1.0299-1.95121-2.298-2.48625-3.7073Zm2.48625 11.5621c-1.0236-.9277-1.86331-2.0398-2.47524-3.2783v2.7392c-.03289 2.1108.70654 4.1608 2.0792 5.7646l5.03848 4.9175c1.3589 1.327 1.6318 1.9881 1.9359 2.7248l.0333.0805V40.979c0-2.8702-1.3368-4.1271-2.1875-4.9267l-.0004-.0005-.0014-.0012c-1.4949-1.4058-2.9704-2.8606-4.42234-4.3125ZM21.8601 5.8744c-.3487 0-.6974.00021-1.0461.022v1.47415c8.3973-.644 16.5266 4.13625 20.046 11.78755 1.1533 2.5072 1.7846 5.2228 1.8555 7.9816.1424 5.5349-2.036 10.9938-5.9499 14.91-3.9139 3.9162-9.3715 6.0979-14.9065 5.9588-5.3957.0059-10.573-2.1313-14.39355-5.9415-3.82055-3.8102-5.97165-8.9817-5.9804-14.3775 0-6.2376 2.80527-11.8041 7.2387-15.5445v-1.8922c-2.71003 2.0277-4.90969 4.6597-6.42412 7.6866-1.514425 3.027-2.30186681 6.3655-2.29972565 9.7501 0 12.0462 9.79095565 21.8152 21.87009565 21.8152 5.7897.0029 11.3436-2.2935 15.4406-6.3843 4.097-4.0908 6.4017-9.6412 6.4076-15.4309 0-12.0458-9.7905-21.8146-21.8582-21.8151Zm16.4236 31.7821c-.297.4951-.627.9791-.9571 1.4301v-4.3564h.9571v2.9263Zm1.9292-4.2866c-.0305.1004-.0612.2017-.092.3042-.528-.539-1.4741-.528-2.3212-.506h-.4731v-.7701h3.1683c-.0843.3206-.1817.6414-.282.9719ZM18.1518 32.277h.8581V40.9788h-.8581V32.277Zm-1.9803-1.662h2.8383c.737 0 1.2541.154 1.5401.44.297.275.44.7921.44 1.5181v8.1408c0 .7261-.132 1.2322-.44 1.5182-.44.451-1.2761.451-1.9582.451l-.44-.011v3.8504l.8581.154v-3.1683c1.3201 0 2.1672-.44 2.5742-1.3421v4.7194h.286l.5501-.011V32.7162c0-.7481.143-1.2762.44-1.5732.2751-.297.7921-.44 1.5072-.44.1012 0 .2088-.0021.3206-.0043.7027-.0135 1.5716-.0302 2.0556.4443.286.297.4181.8361.4181 1.5732v4.1804h-1.9472v-4.4665h-.8471v14.2904c.286-.033.55-.077.8471-.132v-8.8559h1.9472v8.4049c.396-.11.792-.2311 1.1881-.3741v-7.7007c0-.8801.209-1.5402 1.1001-1.8372l-.9901-5.3575h1.9802l.33 5.8415h.242l.3301-5.8415h2.0682l-1.1111 5.3575c.924.33 1.1111.8911 1.1111 1.8262v4.9835c.5771-.4328 1.1281-.8993 1.6501-1.3972V30.824h5.7756l.11-.7921H27.4256l.187.9791c-.418-.7921-1.2321-1.1881-2.4202-1.1881h-.8471c-1.4302 0-2.3102.572-2.6403 1.7051-.297-1.1881-1.2101-1.7821-2.7062-1.7821h-3.6964v15.9735c.286.099.5721.1981.8581.2751V30.626l.011-.011Zm17.9207 6.1386-.9351-.8801.9351-4.8075v5.6876Zm-3.5126 8.0408c-.0504.0259-.1007.0519-.1507.0778v-7.0517h.8801v6.5786c-.2288.1373-.4804.2669-.7294.3953Z"/>
	<path fill="#1C1C1C" d="m163.136 19.0103-.246-1.8658c-.794.1793-1.608.2623-2.412.3873-1.677.2506-3.326.9319-4.33 2.3586-1.055 1.5403-1.232 3.5181-1.232 5.3333 0 2.9664 1.137 5.8262 4.418 5.8262 2.675 0 4.313-2.204 4.313-4.6997 0-2.4609-1.346-4.5236-3.978-4.5236-.862 0-1.725.2734-2.447.7393.164-1.1031.54-1.8658 1.127-2.3587.649-.5719 1.555-.7825 2.393-.8801.801-.0858 1.603-.1586 2.394-.3168Zm-5.984 5.4213c.531-.5579 1.378-.792 2.129-.792 1.531 0 2.201 1.3357 2.201 2.7106 0 1.3542-.584 2.8515-2.148 2.8515-1.263 0-1.93-.9931-2.112-2.1474-.13-.8222-.199-1.7868-.07-2.6227Zm11.942 4.8755c.658 0 1.156-.0352 1.497-.1056v-2.3586c-.628-.1884-1.327-.1977-1.972-.1056-.674.1011-1.285.485-1.285 1.2321 0 1.041.849 1.3377 1.76 1.3377Zm-.176-7.9383c2.34 0 3.732 1.2913 3.732 3.6435v5.5798c-1.668.3574-3.562.6348-5.245.2464-1.409-.3251-2.201-1.3817-2.201-2.8163 0-1.4377.984-2.4286 2.359-2.7106.995-.2238 2.038-.2025 3.028.0352 0-1.2725-.466-2.1827-1.884-2.1827-.787 0-1.613.0811-2.358.3521l-.264-1.725c.895-.3115 1.891-.4224 2.833-.4224Zm11.938 9.4345h2.129v-9.2057h-2.129v3.5908h-3.468v-3.5908h-2.13v9.2057h2.13v-3.8548h3.468v3.8548Zm6.966-5.5093v-3.6964h-2.13v9.2057h2.13v-4.1364c1.459 1.0806 2.746 2.6079 3.714 4.1364H194c-1.042-1.8646-2.554-3.6448-4.189-5.0165 1.349-1.3494 2.692-2.7318 3.925-4.1892h-2.499c-1.078 1.2795-2.233 2.5138-3.415 3.6964Zm-41.795-3.4141c.924-.3555 1.99-.4929 2.975-.4929 1.637 0 3.767.5894 3.767 2.5875 0 .881-.548 1.638-1.338 2.0066 1.039.3924 1.637 1.2473 1.637 2.3586 0 2.0785-2.237 2.6931-3.978 2.6931-1.082 0-2.292-.1152-3.292-.5633l.37-1.7249c.886.3732 1.861.5104 2.816.5104 1.291 0 1.937-.3755 1.937-1.1265 0-.9978-1.028-1.2497-1.866-1.2497h-1.76v-1.5842h1.742c.71 0 1.584-.215 1.584-1.0737 0-.8537-1.038-1.0737-1.707-1.0737-.808 0-1.753.1261-2.499.4577l-.388-1.725Zm-1.531 4.3117c0-2.5892-1.705-4.8228-4.418-4.8228-2.718 0-4.418 2.2348-4.418 4.8228 0 2.5938 1.687 4.8581 4.418 4.8581 2.745 0 4.418-2.252 4.418-4.8581Zm-2.183 0c0 1.3987-.606 3.0099-2.235 3.0099-1.645 0-2.236-1.6-2.236-3.0099 0-1.4023.609-2.9746 2.236-2.9746 1.612 0 2.235 1.5834 2.235 2.9746Zm-11.841-1.5841 1.954-3.0099h2.235l-3.027 4.3476c1.183 1.5335 2.377 3.1266 3.256 4.8581h-2.306c-.575-1.2155-1.385-2.3715-2.182-3.4499-.835 1.0732-1.552 2.2463-2.183 3.4499h-2.182c.854-1.7081 2.014-3.2886 3.185-4.7877l-3.045-4.418h2.341l1.954 3.0099Zm-10.065.264c-.34.0352-.599.0763-.775.1232v-3.3971h-2.129v8.9769c1.232.2843 2.485.4224 3.749.4224 2.004 0 3.978-.8011 3.978-3.0803 0-2.6541-2.657-3.2692-4.823-3.0451Zm-.106 4.4357c-.293-.0235-.516-.047-.669-.0705v-2.6226c.176-.0469.399-.0763.669-.088 1.017-.0884 2.799-.0722 2.799 1.3553 0 1.5306-1.681 1.4687-2.799 1.4258Zm-9.985-5.9494c-.036 1.6107-.052 3.2793-.633 4.8052-.635 1.6662-2.111 2.6447-3.855 2.8163l-.3-1.7778c1.424-.2791 2.211-1.2252 2.465-2.6226.175-.8285.242-1.6893.264-2.5347.021-.8154.017-1.631.017-2.4466h6.513v9.2057h-2.13v-7.4455h-2.341Zm-14.1741 2.8866c0 2.8654 1.848 4.7877 4.7351 4.7877.958 0 2.103-.1099 2.974-.5456l-.281-1.7426c-.753.3226-1.617.44-2.429.44-1.5025 0-2.6738-.7472-2.7989-2.3234h6.0729c.026-.2607.035-.5301.035-.7921 0-2.5457-1.277-4.6996-4.031-4.6996-2.6937 0-4.2771 2.376-4.2771 4.8756Zm6.1781-.9504h-3.9603c.1468-1.1257.841-2.1475 2.0773-2.1475 1.195 0 1.883 1.0313 1.883 2.1475Zm-14.4805.9152c0-2.6554 1.8198-4.8404 4.5588-4.8404.8684 0 1.6898.1584 2.4643.4752l-.4577 1.7426c-.5744-.2462-1.2066-.3696-1.8305-.3696-1.7439 0-2.5523 1.3842-2.5523 2.9922 0 1.7442.8653 2.9747 2.6931 2.9747.671 0 1.3659-.1147 1.989-.3696l.2992 1.7602c-.7482.3741-1.7124.4576-2.5347.4576-2.8805 0-4.6292-2.0036-4.6292-4.8229Zm-8.3024 0c0 2.8193 1.7487 4.8229 4.6293 4.8229.8222 0 1.7864-.0835 2.5346-.4576l-.2992-1.7602c-.6231.2549-1.3179.3696-1.989.3696-1.8278 0-2.6931-1.2305-2.6931-2.9747 0-1.608.8084-2.9922 2.5523-2.9922.6239 0 1.2561.1234 1.8306.3696l.4576-1.7426c-.7745-.3168-1.5959-.4752-2.4642-.4752-2.739 0-4.5589 2.185-4.5589 4.8404Zm-1.6837-.0176c0 2.6061-1.6731 4.8581-4.418 4.8581-2.7306 0-4.4181-2.2643-4.4181-4.8581 0-2.588 1.7005-4.8228 4.4181-4.8228 2.7128 0 4.418 2.2336 4.418 4.8228Zm-2.1826 0c0-1.3911-.6231-2.9746-2.2354-2.9746-1.6271 0-2.2354 1.5723-2.2354 2.9746 0 1.4099.591 3.0099 2.2354 3.0099 1.6295 0 2.2354-1.6112 2.2354-3.0099Zm-9.4884-6.7414c-.9387-.6454-2.2941-.9681-4.066-.9681-1.145 0-2.3301.0447-3.4499.2992v12.022h2.2178v-4.2949h1.1089c.8918 0 1.6839-.0762 2.3763-.2288 1.9535-.4304 3.2387-1.746 3.2387-3.8019 0-1.373-.4753-2.3821-1.4258-3.0275Zm-5.2981 1.0033c.3638-.0352.8273-.0528 1.3906-.0528 1.3947 0 3.0098.3739 3.0098 2.0594 0 1.8775-1.7999 2.1474-3.3267 2.1474h-1.0737v-4.154Z"/>
</svg>