<svg xmlns="http://www.w3.org/2000/svg" viewBox="0 0 181 45">
	<path fill="#083C9C" d="M64.6002 15.5996c-.1-1.2.1-3.3.2-4.4-.4.1-.7.1-1.1.1-.9 0-1.3-.1-1.9-.2-.7-.1-1.6-.2-3-.2-5.6 0-9.1 4-9.1 8.8 0 5.5 4.5 8.9 9.4 8.9 4.5 0 5.5-1.8 6.1-3.3.2-.4.2-.4.3-.7h-.8c-.9 1.8-2.9 3.1-5.5 3.1-3.7 0-7.3-3.1-7.3-7.9 0-5.1 3.4-7.9 6.4-7.9.8 0 5.5-.5 5.6 3.8l.7-.1Zm5 10.6c.1-1.1.1-1.6.1-2.8v-2.4c-.1-2.4.4-2.9 1.5-2.9h.5v-.6h-1.2c-.4 0-.6.1-1 .1h-1c-.4 0-.6-.1-1-.1h-1.2v.6h.5c1.4 0 1.4.9 1.4 4.9 0 .7 0 4-.2 5.3l.7.1c3.4-3.9 5-5.7 7-8.6l.3.1c-.2 1.4-.2 2.4-.2 4 0 2.3.1 3.8-1.9 3.7v.6c1.1 0 1.5-.1 2-.1h1.4c.6 0 1 .1 2 .1v-.6c-2.2.2-1.9-1.1-1.9-3.7v-3c0-1.2 0-2.2.1-3.4l-.7-.2c-4 5.9-3 3.6-7 9.1.1 0-.2-.2-.2-.2Zm12.4-5c.1-.7.1-1 .2-2 .4-6 1.9-6.8 3-6.8.6 0 1 .2 1.7.4.6.1 1.1.2 1.6.2 1.4 0 2.4-1.3 3.1-2.4h-.6c-.6 1.1-1 1-1.7 1-.6 0-1.1-.2-1.7-.4-.4-.1-.9-.2-1.3-.2-2.5 0-5.5 2.9-5.5 9.5 0 6.7 3 7.8 4.9 7.8 2.5 0 5.7-2.4 5.7-6.1 0-2.7-1.7-4.8-4.5-4.8-2.4 0-4.1 1.9-4.8 3.8.1.1-.1 0-.1 0Zm.6 1.2c0-1.8 1.2-3.8 3.5-3.8 1.6 0 3.7 1.5 3.7 4.7 0 3.4-2 4.3-3.3 4.3-2.2 0-3.9-2.6-3.9-5.2Zm20.0998 3c-.7.7-1.8 1.7-3.4998 1.7-2.7 0-4.6-2.2-4.6-5.5 0-2.9 1.9-3.7 3-3.7 1.6 0 2.2 1.4 2.3998 2.2.6-.6 1.2-1 1.8-1.4-.8-1.4-2.0998-1.5-2.7998-1.5-3.8 0-6.1 2.9-6.1 5.8 0 2.4 1.8 5.3 5.2 5.3 1.1 0 1.7-.5 2.4998-1 .9-.6 1.6-.9 2-1.1l.1-.8c.1 0 0 0 0 0Zm.6-2.7c-.1 2.9 1.9 5.7 5.6 5.7 3.5 0 5.9-2.8 5.9-6 0-2.6-2-5.3-5.6-5.3-3.5.1-5.8 2.7-5.9 5.6Zm1.9-.6c0-2.9 1.9-4.2 3.4-4.2 2.4 0 4.2 2.5 4.2 5.8 0 2.2-1.4 3.9-3.4 3.9-2.5 0-4.2-2.6-4.2-5.5Zm14.5 3v-4.1c0-1.1-.1-2.9 1-2.9h.7v-.6c-1.1 0-1.3.1-2.1.1h-.9c-.6-.1-1.1-.1-2.2-.1v.5h.4c1.2 0 1.5.7 1.5 2.9 0 .6 0 1.6-.1 2.8.4 3.5-1 3.8-1.9 3.7v.6c1.3 0 1.3-.1 2.4-.1.4-.1.9-.1 1.3 0 1.1.1 1.6.1 2.7.1 1.4 0 3.8-.1 5.5-.2l.1.2c-1.1.5-2 1.2-2.9 2.7-.5.9-.9 2-2 2-.3 0-1.1.1-1.5-.7l-1.1.7c.6.3 1.2.5 1.8.5 2.8 0 4.5-2.8 5-3.8.6-1.1.9-1.7 2-1.7v-.7c-2.7.8-2.4-1-2.4-4.5v-1.5c-.1-2.2.2-3 1.4-3h.5v-.6c-1.2 0-1.6.1-2.2.1h-.9c-.8-.1-.9-.1-2.1-.1v.6h.6c1 0 1.1 1.6 1.1 2.9v1.7c0 1.6 0 2.5-.1 4.6-1 .1-1.7.1-2.7.1-1.1 0-1.8-.1-2.7-.2l-.2-2Zm11.8-3.9c.1-.7.1-1 .2-2 .4-6 1.9-6.8 3-6.8.6 0 1 .2 1.7.4.6.1 1.1.2 1.6.2 1.4 0 2.4-1.3 3.1-2.4h-.6c-.5 1.1-1 1-1.7 1-.6 0-1.1-.2-1.7-.4-.4-.1-.9-.2-1.3-.2-2.5 0-5.5 2.9-5.5 9.5 0 6.7 3 7.8 4.9 7.8 2.5 0 5.7-2.4 5.7-6.1 0-2.7-1.7-4.8-4.5-4.8-2.4 0-4.1 1.9-4.8 3.8h-.1Zm.6 1.2c0-1.8 1.2-3.8 3.5-3.8 1.6 0 3.7 1.5 3.7 4.7 0 3.4-2 4.3-3.2 4.3-2.3 0-4-2.6-4-5.2Zm20.9 3.5c-1.3 1.4-1.7 1.4-1.9 1.4-.6 0-.6-.9-.6-1.4.2-5.8.3-5.7.3-6.3 0-1.9-1.7-2.4-2.9-2.4-1.7 0-6.1 1.4-4.8 4l2-1.2c-.6-1 .2-2 1.4-2 1.5 0 2.4.4 2.4 4v.7c-4.6.4-6.6 1.9-6.6 3.8 0 .5.4 1.9 2.7 1.9 1.4 0 2.8-.8 3.7-1.7.2 1 .6 1.7 1.4 1.7.6 0 1.2-.4 2.7-1.7l.2-.8Zm-4-2.5c.1 3.6-2 4.2-3 4.2-1.2 0-1.6-1.1-1.6-1.9 0-1.8 2.3-2.1 4.6-2.3Zm8.1-2.4c0-2.4.2-2.9 1.4-2.9h.4v-.6c-1.1 0-1.4.1-2 .1h-1.1c-.3 0-.7-.1-1-.1h-1.2v.6h.5c1.3 0 1.5.6 1.5 4.3 0 3.2.3 5.3-1.9 5.1v.6c1.1 0 1.3-.1 2-.1h1.4c.7.1.7.1 1.9.1v-.7c-2.2.1-1.7-2.2-1.8-4.7.3 0 2.4.1 2.9.1.4 0 2.4-.1 2.9-.1v1c0 1.9.2 3.9-1.8 3.7v.6c1.1 0 1.4-.1 2-.1.5-.1 1-.1 1.5 0 .6.1.9.1 1.9.1v-.6c-2.3.2-1.9-1.9-1.9-4.7v-1c0-3.2.1-3.7 1.4-3.7h.6v-.6c-1.2 0-1.7.1-2.3.1h-1.1c-.7-.1-.9-.1-2-.1v.6h.4c1.6 0 1.4.9 1.5 3.9-.8.1-1.8.2-2.9.2-1.2 0-2.1-.1-2.9-.2v-1l-.3.1Zm10.5-2.9c1.9-.4 1.9.9 1.9 2.9v2.8c0 2.2-.1 4.2-1.9 3.7v.6c1.9-.1 2.2-.1 3.4-.1.2 0 .6.1.8.1.4.1.6.1 1 .1v-.6c-1.3.2-1.5-1.1-1.5-1.6-.1-1.7-.2-2.7-.2-5 0-2 0-3 1.7-2.9v-.6c-1 0-1.2.1-1.8.1h-1.2c-.6 0-1-.1-2.2-.1v.6c.1 0 0 0 0 0Zm12.4 9.1c-.3.4-.8.4-1.1.4-.6 0-1.1-.6-2-2-1.5-2.2-2.3-2.9-3.5-3.2.9-.7 1.4-1.2 2.3-2.1 1.4-1.4 2.4-2.2 3.7-2v-.6h-.6c-.6 0-1.1.1-1.6.1-.2.1-.4.1-.7 0-.3 0-.6-.1-1.3-.1v.6c.4-.1.8.2.8.4 0 .6-1.7 2.1-3.8 4.1 1.3 1.1 2 2 2.8 3 .7 1 1.8 2.7 3.1 2.7.6 0 1.4-.2 2-.6l-.1-.7ZM26.1999 11.3c.7-2.6 1.5-5.9 2.2-8.5 6.1 1.5 11.6 2.5 16-.3-1-.8-1.9-1.7-2.9-2.5-3.5 3.5-10.7 2.2-20.1.3-9-1.4-18.69995 5.5-19.59995 14.8-.3 3 .6 5.4 2.4 7.2-12 19.2 12.59995 30 25.49995 15.5-.3-.6-.7-1.2-1-1.9-8.7 15.3-30.19995 6.1-21.89995-11.7 3.79995 2.1 8.19995 2.8 13.19995 1.4l-.8 2.8c-.6.9-1.4 1.4-2.3 2.1 1.5 0 3-.2 4.4 0 22.7 3.7 27.1-19.5 4.9-19.2ZM5.79995 20C2.39995 11.4 11.3999.6 21.3999 1.1c3.2.5 4 1.3 4 3.2-.6 2.2-1.2 4.8-1.8 7-6.2 0-13.2 2.2-17.79995 8.7Zm14.29995 4.8c-5.2 1.5-8.9.8-12.39995-2.3C11.5999 15.6 16.0999 12.2 23.3999 12c-1 4.1-2.2 8.7-3.3 12.8Zm6.5 5.5c-3.4-.2-4.6-.9-4.9-2.1.3-1.1.6-2.3.9-3.3 2.9-.9 4.7-2.7 6.3-6.4-.4-.3-.9-.5-1.3-.8-1 3.7-2.1 5.7-4.8 6.5 1-3.9 2.1-8.1 3.1-12.1 14.2-.1 15.6 16.6.7 18.2Z"/>
</svg>