<svg viewBox="0 0 180 16" xmlns="http://www.w3.org/2000/svg">
	<path fill="#E21D40" d="M31.493.0709226 26.2652 5.30504h-5.673L11.125 14.8462.0327148 3.76014 3.66006.0585938l.0742.0062764h7.31654L7.35533 3.76036l3.68917 3.68921L18.429.0711466h13.064v-.000224ZM20.067 14.691l3.1144-3.1268h3.0838l5.2339-5.2278H21.0062l-7.3042 7.3042-1.0567 1.0507h7.4217v-.0003ZM49.3519.656474V3.50083h-7.4376v2.19116h3.2447c3.2236 0 5.5203 1.4539 5.5203 4.50901 0 2.9286-2.3388 4.5719-5.5203 4.5719h-6.3841V.65625h10.577v.000224ZM41.9143 11.9499h3.2447c1.5592 0 2.3388-.6954 2.3388-1.7487 0-1.11678-.8428-1.74891-2.2546-1.74891h-3.3289v3.49761Zm11.5469-6.91111c1.5171-.90583 3.034-1.26426 4.6775-1.26426 3.4341 0 4.9301 1.85402 4.9301 4.59325v3.24472c0 .59.2318.8428.6322.8428.1264 0 .2739-.021.3582-.0632l.2739 2.3808c-.4003.1475-.8428.2318-1.3907.2318-1.1587 0-2.0436-.4636-2.2752-1.6646-.8218 1.18-2.0649 1.6857-3.7083 1.6857-2.4863 0-4.0875-1.2643-4.0875-3.5819 0-2.31756 2.0017-3.49754 5.0144-3.49754.8639 0 1.5804.12643 2.2125.295v-.33714c0-.92712-.6321-1.47497-1.9807-1.47497-1.2432 0-2.3386.25285-3.4765.8007l-1.1799-2.19116Zm6.6579 5.28861c-.611-.1475-1.3485-.2318-2.149-.2318-1.4117 0-2.0226.4846-2.0226 1.201 0 .6954.4844 1.1377 1.538 1.1377 1.7065 0 2.6336-.864 2.6336-1.8541v-.2528Zm9.6929-6.29979v4.00326h4.2351V4.02761h3.034V14.7731h-3.034v-4.1086H69.812v4.1086h-3.034V4.02761h3.034Zm13.6959 0V7.8623l1.1166-.18964 2.8022-3.64505h3.7715l-4.0874 4.88824 4.4879 5.85725h-3.6661l-3.2236-4.3825h-1.2008v4.3825H80.495V4.02761h3.0129ZM110.65 4.59637c-.99-.86391-2.275-1.34854-3.835-1.34854-2.76 0-4.509 1.85402-4.509 4.46682 0 2.67605 1.812 4.46685 4.467 4.46685 1.58 0 3.013-.5689 4.109-1.6014l1.791 2.2124c-1.623 1.5382-3.603 2.2755-6.068 2.2755-4.404 0-7.438-2.8655-7.438-7.31121 0-4.06647 2.971-7.395462 7.775-7.395462 2.191 0 4.045.695342 5.457 1.938302l-1.749 2.29674Zm8.239-3.939824V6.0292l1.538-.16857 3.982-5.204084h3.898l-5.246 6.594774 5.752 7.52188h-4.067l-4.298-6.02584h-1.559v6.02584h-3.118V.656546h3.118Zm22.925 3.939824c-.991-.86391-2.276-1.34854-3.835-1.34854-2.76 0-4.509 1.85402-4.509 4.46682 0 2.67605 1.812 4.46685 4.467 4.46685 1.58 0 3.013-.5689 4.108-1.6014l1.791 2.2124c-1.622 1.5382-3.603 2.2755-6.068 2.2755-4.403 0-7.437-2.8655-7.437-7.31121 0-4.06647 2.97-7.395462 7.774-7.395462 2.191 0 4.046.695342 5.457 1.938302l-1.748 2.29674ZM158.557 1.96752v.79262h-2.08V5.8726h-.874V1.96752h2.954Zm2.407 0c.933 0 1.557.5595 1.557 1.41063 0 .89754-.711 1.4279-1.627 1.4279h-.792V5.8726h-.874V1.96752h1.736Zm-.862 2.06338h.792c.467 0 .747-.25666.747-.64715 0-.38465-.239-.63526-.712-.63526h-.827V4.0309Zm3.777-2.06338.961 1.95265h.058l.811-1.95265h.973l-1.533 3.22901c-.245.50705-.554.75766-.985.75766-.274 0-.495-.0408-.711-.13405l.198-.74039c.105.04662.239.06993.344.06993.187 0 .321-.07576.373-.21564l.047-.11656-1.597-2.85019h1.061v.00023Zm6.871 0V5.8726h-.88V2.77763h-1.655V5.8726h-.88V1.96752h3.415Zm4.33 0V5.8726h-.88V2.77763h-1.655V5.8726h-.88V1.96752h3.415Zm3.246-.00561 1.615 3.91069h-.968l-.297-.77515h-1.673l-.291.77515h-.95l1.603-3.91069h.961Zm-1.037 2.36623h1.102l-.519-1.4864h-.058l-.525 1.4864Zm-20.731 5.70916 1.096 1.7717 1.084-1.7717h.939v3.905h-.857v-2.576h-.053l-.903 1.4862h-.455l-.903-1.4862h-.052v2.576h-.851v-3.905h.955Zm5.333 0v1.4864l.426-.0467 1.101-1.4397h1.078l-1.451 1.8244 1.591 2.0806h-1.125l-1.189-1.6668h-.431v1.6668h-.862v-3.905h.862Zm6.732 0v.787h-2.058v.6061h.898c.892 0 1.527.4021 1.527 1.2472 0 .8099-.647 1.2647-1.527 1.2647h-1.766v-3.905h2.926Zm-2.058 3.1241h.898c.431 0 .647-.1921.647-.4835 0-.3092-.233-.4838-.624-.4838h-.921v.9673ZM151.402 1.17285h-.514V14.6619h.514V1.17285Z"/>
</svg>