<svg xmlns="http://www.w3.org/2000/svg" viewBox="0 0 136 36">
	<path fill="#0a90e8" d="M22 14.5l1.3-1.7c-.9-.3-1.9-.4-2.8-.2l1.5 1.9zm-5.4 6.8l2.5-3.1-2.3-2.9c-1 .9-2 1.9-3 2.9l2.8 3.1zm5.4.5l-1.7 2.1c1 .2 2.1.1 3.1-.3L22 21.8zm-4.7-10.9c-2 1.6-3.9 3.3-5.6 5.1l1.2 1.2c1.7-1.8 3.6-3.5 5.5-5 1-.7 2.1-1 3.3-1.1.9 0 1.8.2 2.7.6l1.1-1.4c-1.2-.6-2.5-.9-3.8-.9-1.7 0-3.2.6-4.4 1.5zm7.4 12c.4-.4.9-.8 1.2-1.2l-6.7-8.4-1.3 1.1 6.8 8.5zm-5.4 2.2l-1.2 1.3c1.1.5 2.3.8 3.5.7 2-.2 4-1 5.5-2.4 1-.9 1.8-2.1 2.4-3.4.5-1.3.8-2.7.7-4.1-.2-1.4-.7-2.8-1.5-4l-1.1 1.4c.8 1.3 1.1 2.9.8 4.5-.3 1.4-.9 2.7-1.8 3.8-1 1.1-2.2 1.9-3.6 2.3-1.2.4-2.5.3-3.7-.1zM6.1 16.8c-.2 1-.2 2 0 3.1.5-.5.9-1 1.4-1.5.1-.1-1.4-1.6-1.4-1.6zm1.4-3.1c-.4.5-.7 1-.9 1.5l8 8.5 1.1-1.4c.1 0-8.2-8.6-8.2-8.6zm4.4-4.5c-1.2 1.1-2.4 2.2-3.5 3.4l2.3 2.4c1.1-1.1 2.1-2.2 3.3-3.2l-2.1-2.6zm29.8 12.6l-1.4 1.7c.9.3 1.9.4 2.8.2 0-.1-1.4-1.9-1.4-1.9zm5.4-6.7l-2.5 3.1 2.3 2.9c1-.9 2-1.9 3-2.9 0-.1-2.8-3.1-2.8-3.1zm-5.4-.6l1.7-2.1c-1-.2-2.1-.1-3.1.3l1.4 1.8zM10 6.8c-2 1.6-3.8 3.5-5.4 5.5-2 3-2.2 6.9-1 10.2l1.3-1.4c-.1-.4-.2-.8-.3-1.1-.4-2.3.1-4.7 1.3-6.6 1.5-1.9 3.2-3.7 5-5.2L10 6.8zM5.3 9.3C6.5 8.1 7.7 6.9 9 5.8c-.8-.7-1.7-1.1-2.6-.9-.4.1-.8.3-1 .6-.3.3-.5.6-.6 1-.2.5-.2 1-.1 1.5s.3.9.6 1.3zm-2 2.5c.3-.5.7-.9 1.1-1.4-.5-.6-.9-1.3-1-2-.2-.7-.2-1.5 0-2.3.2-.6.5-1.2 1-1.7s1-.8 1.7-1c1.4-.4 3.2.2 5 2.3l4 5.1 1.3-1.1-4-5.1c-1.6-1.9-4.1-3.5-6.7-2.9-.9.4-1.8.9-2.5 1.6-.6.6-1.1 1.5-1.4 2.4-.3 1-.3 2.2-.1 3.2s.8 2.1 1.6 2.9zm12.2 18c.6.3 1.3.5 2 .8 1.7.5 3.6.7 5.4.5 1.8-.2 3.6-.7 5.1-1.6-.6-.7-1.2-1.5-1.8-2.3-1.3.7-2.7 1.2-4.1 1.3-1.6.2-3.3-.1-4.8-.9l-1.8 2.2zm-2.7-1.6l1.5.9 6.8-8.4-1.1-1.4-7.2 8.9zm-4.7-4c1 1.2 2.2 2.3 3.5 3.2l2.1-2.6-3.1-3.3c0 .1-2.5 2.7-2.5 2.7zM6 26.5c1.1 1.3 2.3 2.4 3.6 3.4 5 3.8 9.8 4.9 14.2 4.3 2.4-.4 4.6-1.2 6.6-2.5-.5-.4-.9-.8-1.3-1.2-1.7 1-3.6 1.7-5.5 2-3.9.6-8.3-.5-12.9-3.9-.8-.6-1.6-1.3-2.4-2-.4-.4-.7-.8-1.1-1.2-.1-.2-1.2 1.1-1.2 1.1zm2.7 4.4c-1.4-1-2.6-2.2-3.7-3.4-.3.3-.4.7-.5 1.1 0 .4.1.8.3 1.2.2.4.5.7.8 1 .3.3.7.5 1.1.6.3.1.7.1 1.1.1.3-.1.7-.3.9-.6zm2.6 1.8l-1.5-.9c-.4.5-1 .8-1.7 1s-1.3.2-1.9 0C5 32.4 4 31.6 3.5 30.5c-.3-.6-.5-1.2-.4-1.9 0-.7.3-1.3.6-1.8 2-2 4-4.1 5.9-6.2l-1.2-1.2c-2 2.1-3.9 4.3-6 6.3-1.4 1.4-1.3 4-.5 5.6.5.7 1.1 1.3 1.7 1.9s1.4.9 2.2 1.2c1 .3 2 .3 3 0s1.9-.9 2.5-1.7zm35.1-7.3c2-1.6 3.9-3.3 5.6-5.1l-1.2-1.2c-1.7 1.8-3.6 3.5-5.5 5.1-1 .7-2.1 1-3.3 1.1-.9 0-1.9-.2-2.7-.6l-1 1.3c1.2.6 2.5.9 3.8.9 1.6 0 3.1-.5 4.3-1.5zM28.3 6.9c-1.7-.9-3.5-1.5-5.4-1.7-2.5-.3-5 .2-7.2 1.4l2 2.4c1.4-.8 3-1.1 4.6-1 1.4.1 2.8.5 4 1.2.6-.8 1.3-1.5 2-2.3zm2.6 1.8c-.4-.3-.9-.7-1.4-1-.9.9-1.7 1.8-2.5 2.8l-4.2 5.2 1.1 1.3c2.3-2.8 4.5-5.6 7-8.3zm.8 18c.8-.8 1.5-1.6 2.2-2.5-1.3-1.6-1.9-3.6-1.9-5.7 0-2.2.7-4.4 2-6.2-.7-.9-1.4-1.8-2.2-2.6-.8.8-1.5 1.6-2.2 2.4 1.3 1.6 1.9 3.7 1.9 5.7 0 2.2-.7 4.4-2 6.2.7 1 1.5 1.8 2.2 2.7zm2.4 1.9c.9-.9 1.7-1.8 2.5-2.8l4.2-5.2-1.1-1.3c-2.3 2.8-4.5 5.7-7 8.3.5.4.9.7 1.4 1zM48 29.8l-1.9-2.5c-1.4.8-3 1.1-4.7 1-1.4-.1-2.8-.5-4-1.2-.6.8-1.3 1.6-2 2.3 1.4.8 2.9 1.3 4.5 1.6 1.9.4 3.9.2 5.8-.3.8-.3 1.6-.6 2.3-.9zm2 2.4l-1.1-1.3c-2.8 1.5-6.1 2.1-9.3 1.5-3.6-.7-6.9-2.5-9.4-5.3-.6-.6-1.1-1.3-1.6-2-.4.4-.8.8-1.3 1.1.5.7 1.1 1.4 1.6 2 2.7 3 6.4 5.1 10.4 5.8 3.7.7 7.4.1 10.7-1.8zm9.3-6.3c.5.6.9 1.3 1 2 .2.7.1 1.5-.1 2.3-.2.6-.5 1.2-1 1.7s-1 .8-1.7 1c-1.4.3-3.2-.2-5-2.3l-4-5.1-1.3 1.1 4 5.1c1.6 1.9 4.1 3.5 6.7 2.9.9-.3 1.7-.7 2.4-1.4s1.2-1.5 1.4-2.4c.3-1.1.3-2.2.1-3.3-.3-1.1-.8-2.1-1.6-2.9-.1.1-.2.2-.2.3-.1.3-.4.7-.7 1zm-4.7 4.6c.8.6 1.7 1.1 2.6.9.4-.1.7-.3 1-.6.3-.3.5-.6.6-1 .1-.5.1-1 0-1.5s-.3-.9-.6-1.3c-1 1.3-2.3 2.4-3.6 3.5zm.7-6.8L53 21.3c-1.1 1.1-2.2 2.2-3.3 3.2l2 2.6c1.3-1.1 2.4-2.2 3.6-3.4zm1.8-2.6l-8-8.5-1.2 1.4 8.3 8.7c.4-.5.7-1.1.9-1.6zm.5-4.6c-.5.5-1 1-1.4 1.5l1.4 1.5c.1-1 .1-2 0-3zm2.4-2.7c-.4.5-.9.9-1.3 1.4.3 1.1.4 2.3.3 3.5-.1 1.5-.6 3-1.4 4.3-1.5 1.9-3.2 3.7-5 5.2l1 1.3c2-1.7 3.8-3.5 5.4-5.5 1.1-1.7 1.7-3.6 1.8-5.7 0-1.5-.2-3-.8-4.5zm-6.2-9.3c.4-.5 1-.8 1.7-1 .6-.2 1.3-.2 1.9 0 .6.3 1.1.6 1.6 1s.9.9 1.1 1.4c.3.6.5 1.2.4 1.9 0 .6-.3 1.3-.6 1.8-2 2-4 4.1-5.9 6.2l1.2 1.2c2-2.1 3.9-4.3 6-6.3 1.4-1.4 1.3-4 .5-5.6-.4-.7-.9-1.4-1.5-1.9S58.8 2.3 58 2c-1-.3-2-.3-3 0s-1.9.8-2.6 1.6c.4.3.9.6 1.4.9zm4.9 4.3c.3-.3.4-.7.5-1.1 0-.4-.1-.8-.3-1.2-.4-.8-1.1-1.3-1.9-1.6-.3-.1-.7-.1-1.1 0-.4.1-.7.2-.9.5 1.3 1 2.6 2.1 3.7 3.4zm-6.6.1L50 11.5l3.1 3.2 2.5-2.6c-1.1-1.2-2.3-2.3-3.5-3.2zm-2.7-1.7l-6.8 8.4 1.1 1.4 7.2-8.9-1.5-.9zm-13.8-.3c.6.7 1.2 1.5 1.8 2.3 1.3-.7 2.7-1.2 4.1-1.3 1.6-.2 3.3.1 4.8.9L48 6.6c-1.8-.8-3.8-1.3-5.9-1.3-2.1-.1-4.4.5-6.5 1.6zm-2.3-2.2c.5.4.9.8 1.3 1.2 1.7-1 3.6-1.7 5.5-2 3.9-.5 8.3.5 12.9 4 .8.6 1.6 1.3 2.4 2 .4.4.7.8 1.1 1.2l1.2-1.2c-1.1-1.3-2.3-2.4-3.6-3.4-5-3.8-9.8-4.9-14.2-4.3-2.4.4-4.6 1.3-6.6 2.5zM12.8 3C16.4.9 20.6.1 24.7.8c2.7.5 5.2 1.5 7.4 3C35.3 1.7 39 .6 42.8.7c2.9.1 5.8.8 8.4 2.2.8-1.1 2-1.9 3.3-2.3 1.3-.4 2.7-.4 4-.1 2 .6 3.6 2 4.5 3.8 1.2 2.2 1.2 5.4-.7 7.3l-1 1c.8 1.8 1.1 3.7 1.1 5.6 0 1.7-.4 3.4-1.1 4.9 1 1 1.7 2.1 2.1 3.4.4 1.4.4 3 0 4.4-.3 1.1-1 2.2-1.8 3-.9.8-1.9 1.4-3.1 1.7-2.8.7-5.5-.6-7.4-2.5-3.6 2.1-7.8 2.9-11.8 2.2-2.7-.5-5.2-1.5-7.4-3-.4.3-.9.5-1.3.8-2.1 1.2-4.5 2-6.9 2.3-2.4.3-4.9.1-7.2-.6-1.3-.4-2.5-.9-3.6-1.5-.8 1.1-2 1.9-3.3 2.3-1.3.4-2.7.4-4 .1-1-.3-1.9-.8-2.7-1.5S1.5 32.7 1 31.8c-1.2-2.2-1.2-5.4.7-7.3l1-1C2 21.8 1.6 20 1.6 18.2c0-1.8.3-3.6 1.1-5.3-1-1-1.7-2.1-2.1-3.4C0 8.2 0 6.7.5 5.3c.3-1.1 1-2.2 1.8-3C3.2 1.5 4.2.9 5.4.6c1.4-.4 3-.2 4.3.4 1.1.4 2.2 1.1 3.1 2zm22.3 8.2c.4-.4.8-.8 1.3-1.1-.5-.7-1.1-1.4-1.6-2C32 5 28.4 3 24.4 2.3c-3.7-.7-7.4 0-10.6 1.9l1.1 1.3C17.7 4 21 3.4 24.1 4c3.6.7 6.9 2.5 9.4 5.3.5.5 1 1.2 1.6 1.9zm3.9 2.2c-.5.4-.9.8-1.2 1.2l6.7 8.4 1.3-1.1-6.8-8.5zm3-2.5c.8-.1 1.6.1 2.3.3l1.2-1.3c-1.1-.5-2.3-.8-3.5-.7-2 .1-4 1-5.5 2.4-1 .9-1.9 2.1-2.4 3.4-.5 1.3-.8 2.7-.7 4.1.2 1.4.7 2.8 1.5 4l1.1-1.4c-.5-.8-.8-1.8-.9-2.8-.1-1.1.1-2.1.5-3.1s1-1.9 1.7-2.6c1.3-1.4 2.9-2.2 4.7-2.3zm-3.2 7.3L37.1 16c-.3.7-.5 1.4-.5 2.2 0 .8.1 1.5.5 2.2l1.7-2.2zm-13.9-.1l1.7 2.2c.3-.7.5-1.4.5-2.2 0-.8-.1-1.5-.5-2.2.1 0-1.7 2.2-1.7 2.2zM66.8 36v-9.7h6.7v1.4h-5.2v2.6h2.9c1 0 1.8.2 2.3.6.5.5.7 1.2.7 2.2 0 .4 0 .8-.1 1.2-.1.4-.3.7-.6 1-.5.5-1.4.7-2.2.7h-4.5zm4.4-1.5c1.4-.1 1.5-.3 1.5-1.5-.1-1.3-.2-1.3-1.7-1.4h-2.7v2.8l2.9.1zm23.9 1.3h-1.3l-.7-1.8h-4.3l-.7 1.9h-1.7l3.5-9.4.1-.2h1.8l3.7 9.6-.4-.1zm-5.9-3.2h3.4L90.9 28l-1.7 4.6zm25.9 3.4h-1.3v-4.2h-5V36h-1.5v-9.7h1.5v4.1h5v-4.1h1.6V36h-.3zm18.7 0l-4.3-4.2h-.6V36h-1.6v-9.7h1.6v4.1h.6l3.9-4.1h2.1l-4.6 4.7 5.1 5h-2.2zM84.6.2v2.5c0 5.8-6.3 6-6.3 14.1v7.7h3.1v-8.1c.1-2.9.9-5.6 2.2-8.2l1-1.9v18.2h3.1V.2h-3.1zm46.8-.2c-2.7 0-4.4 1.1-4.4 3.1v1.1c0 2.2.9 2.5 3.1 3.2.8.2 1.4.7 1.9 1.4.5.6.8 1.4.8 2.2 0 2.3-2.6 3.6-4.7 3.6-.4 0-.8 0-1.2-.1v10.1h3.1V15c1.1-.3 2-1 2.7-1.9v11.5h3.1V3.3c.1-1.9-1.3-3.3-4.4-3.3zm1.4 9c-.6-1.3-2.7-1.7-2.7-3.4V2.4c0-1.5.9-1.5 1.4-1.5.6 0 1.3.1 1.3 1.5V9zm-8.9 15.6V.2h-3.1v5l-2.7 4.2V.2H115v24.4h3.1V11.1l2.7-4.1v17.6h3.1zm-12-10.1c-.4.1-.8.1-1.2.1-2.4 0-4.7-1.5-4.7-3.6 0-1.8 1.2-3 2.8-3.6 1.5-.6 3-.6 3-3.2V3.1c0-2-1.7-3.1-4.4-3.1-3.1 0-4.5 1.4-4.5 3.3v21.3h8.9l.1-10.1zm-5.8-12.2c0-1.5.8-1.5 1.3-1.5s1.4 0 1.4 1.5v3.1c0 1.7-1.9 2.1-2.7 3.4V2.3zm2.7 21.7h-2.7V13.1c.7.9 1.6 1.6 2.7 1.9v9zM96.7.2v3.4C96 6.7 94 8.4 91.2 8.4h-.3v16.2H94V14.5l2.7 4.2v6h3.1V.3c0-.1-3.1-.1-3.1-.1zm0 16.8L94 12.9V8.5c1.2-.6 2.2-1.5 2.7-2.7V17zM75.2 8.4V3.3C75.2 1.5 74 0 70.9 0c-3.4 0-4.5 1.4-4.5 3.7v17c0 2.2 1.1 3.7 4.4 3.7 3.1 0 4.3-1.4 4.3-3.3v-2.6H72v2.6c0 1.7-.1 2.6-1.4 2.6-1.1 0-1.3-.9-1.3-2V2.5c0-1 .2-2 1.3-2 1.4 0 1.4.9 1.4 2.7v5l3.2.2z"/>
</svg>