<svg xmlns="http://www.w3.org/2000/svg" viewBox="0 0 128.3 42">
	<path fill="#fdb913" d="M16 15.1h4.7c.9 0 1.7-.3 2.3-.7.7-.4 1.1-1 1.4-1.8L26.8 6h-4.5c-.9 0-1.7.2-2.4.6-.7.4-1.3 1.2-1.5 1.8.1.1-2.4 6.7-2.4 6.7z"/>
	<path fill="#004282" d="M28 11.4l-1 2.4c-.4.9-1.2 1.9-1.7 2.3-.9.7-2.3 1.3-3.8 1.3h-9l2.4-7.5 1-2.4c.4-.9 1.2-1.9 1.6-2.3 1-.7 2.3-1.3 3.8-1.3h8.4c.2-.1-1.7 7.5-1.7 7.5zM42 .1H13.7c-1.6 0-3.7.4-5.4 1.7C6.7 3 6.4 4.1 5.7 5.3c-.1.3-.3.6-.3.9L1.5 17.4.2 21.1h29.2c1.6 0 3.7-.4 5.4-1.7 1.6-1.2 1.9-2.3 2.5-3.5.1-.3.3-.6.4-.9L42 .1c0 .1 0 0 0 0zm15 21c-3.3 0-5.5-.5-7.3-2.6-1.3-1.6-1.9-3.7-1.9-7.7 0-3.5.3-6.2 1.9-8.1C51.6.2 54.7 0 57.1 0h9v4h-5.7c-2.2 0-3.9 0-4.9 1.7-.6 1.1-.7 4-.7 5 0 2.4.3 4.4.5 4.7.9 1.7 2.9 1.7 5.2 1.7h5.9v4H57zM82.2 0v8.3h-6.8V0h-6.9v21.1h6.9v-8.8h6.8v8.8H89V0h-6.8zm10.7 21.1V3.9c0-.9 0-2 .8-2.8.5-.6 1.5-1 2.5-1h11.3v4h-6.3c-.4 0-1 0-1.2.3-.2.2-.2.7-.2 1.1v15.7h-6.9v-.1zm22.8-5c0 1.5.5 1.4 1.5 1.4h2.1c.4 0 1.2 0 1.6-.4.4-.4.4-1.8.4-2.1 0-.5 0-2.5-.5-2.9-.5-.4-1.1-.4-1.5-.4h-3.6v4.4zM127.1 4H117c-1.3 0-1.3.5-1.3 1.3V8h7.9c1.6 0 2.9.7 3.5 1.4 1.1 1.3 1.2 3.6 1.2 5 0 1.8-.2 3.8-1.2 5.1-.3.4-1.4 1.6-3.5 1.6h-11.9c-1.8 0-3-1.2-3-3V3.4c0-3.2 2.6-3.4 3.3-3.4h14.9l.2 4zM0 31.6V40h1.6c.4 0 .7 0 1.1-.1.4-.1.7-.2 1-.3.3-.1.6-.3.8-.6.2-.2.4-.5.5-.8.1-.3.2-.6.2-1s-.1-.7-.2-1c-.1-.3-.3-.5-.4-.7-.2-.2-.4-.4-.7-.5-.3-.1-.6-.3-1-.3-.4-.1-.7-.1-1.1-.1H.6v-2.7h3.9v-.5c0 .2-4.5.2-4.5.2zm.6 3.7h1.1c.3 0 .7 0 1 .1l.9.3c.2.1.4.2.5.4.1.2.2.3.3.6.1.2.1.5.1.7 0 .3 0 .6-.1.8-.1.2-.2.4-.4.6-.2.2-.4.3-.6.5-.2.1-.5.2-.8.3-.3.1-.6.1-.8.1h-.6c-.2 0-.3 0-.5-.1l-.1-4.3zM11.5 37l1.2 2.9h.6L10 31.6h-.6L6.1 40h.6l1.1-3h3.7zM8 36.5l1.2-3c.1-.2.1-.3.2-.5.1-.1.1-.3.1-.4 0-.1.1-.3.1-.4 0 .1.1.3.1.4 0 .1.1.3.1.4.1.2.1.3.2.5l1.2 2.9c.1.1-3.2.1-3.2.1zm6.6-4.9V40h.6v-4.2h5.2V40h.6v-8.3h-.6v3.7h-5.2v-3.7h-.6zm8.5 0V40h.6v-4h.4c.4 0 .8 0 1.2.1.3.1.6.2.8.4l.6.6c.2.2.3.5.4.8.1.2.2.5.3.7.1.2.2.5.3.7l.3.6h.6c-.1-.2-.2-.5-.3-.7-.1-.2-.2-.5-.3-.7-.1-.2-.2-.5-.3-.8-.1-.3-.3-.6-.4-.9-.2-.3-.3-.5-.6-.7-.2-.2-.5-.4-.8-.5-.3-.1-.7-.2-1.1-.2l3.7-3.9h-.7l-3.5 3.8h-.5v-3.8l-.7.1zm9.7 0V40h.6v-4.2h5.2V40h.6v-8.3h-.6v3.7h-5.2v-3.7h-.6zM46 37l1.2 2.9h.6l-3.3-8.3h-.6L40.6 40h.6l1.1-2.9H46zm-3.4-.5l1.2-3c.1-.2.1-.3.2-.5s.1-.3.1-.4c0-.1.1-.3.1-.4 0 .1.1.3.1.4 0 .1.1.3.1.4.1.2.1.3.2.5l1.2 2.9c0 .1-3.2.1-3.2.1zm6.5-4.9V40h8.6v-8.3h-.6v7.8h-3.4v-7.8h-.6v7.8h-3.4v-7.8c0-.1-.6-.1-.6-.1zm15.1 3.7h-3.7v-3.2h3.9v-.5h-4.5V40h4.7v-.5h-4.1v-3.6h3.7v-.6zm2-3.7V40h.6v-7.8h3.8v-.5l-4.4-.1zm8.7 8.5c.4 0 .9-.1 1.3-.2s.8-.3 1.1-.5c.3-.2.7-.5.9-.9.3-.4.5-.8.6-1.2.1-.5.2-1 .2-1.6 0-.6-.1-1.2-.3-1.7-.2-.5-.5-1-.8-1.3-.4-.4-.8-.7-1.3-.9-.5-.2-1.1-.3-1.7-.3-.5 0-.9.1-1.3.2s-.8.3-1.2.6l-.9.9c-.3.4-.4.8-.6 1.2-.1.5-.2.9-.2 1.5s.1 1.2.3 1.7c.2.5.5 1 .9 1.3.4.4.8.7 1.3.9.6.2 1.1.3 1.7.3zm0-.5c-.4 0-.8-.1-1.2-.2-.4-.1-.7-.3-1-.5-.3-.2-.5-.5-.7-.8-.2-.3-.3-.7-.5-1-.1-.4-.2-.8-.2-1.1 0-.4 0-.8.1-1.2.1-.4.2-.7.4-1.1.2-.3.4-.6.7-.9.3-.2.6-.4 1-.6.6-.2 1-.2 1.5-.2s.9.1 1.3.2.7.3 1 .6c.3.2.5.5.7.9.2.3.3.7.4 1 .1.4.1.7.1 1.1 0 .6-.1 1.1-.2 1.5-.2.5-.4.9-.7 1.2-.3.4-.7.6-1.1.8-.5.2-1 .3-1.6.3zm8.7-8V40h.6v-7.8H88v-.5l-4.4-.1zm8.7 8.5c.4 0 .9-.1 1.3-.2s.8-.3 1.1-.5c.4-.2.7-.5.9-.9.3-.4.5-.8.6-1.2.1-.5.2-1 .2-1.6 0-.6-.1-1.2-.3-1.7s-.5-1-.8-1.3c-.3-.4-.8-.7-1.3-.9-.5-.2-1.1-.3-1.7-.3-.5 0-.9.1-1.3.2s-.8.3-1.1.6l-.9.9c-.3.4-.4.8-.6 1.2-.1.5-.2.9-.2 1.5s.1 1.2.3 1.7c.2.5.5 1 .9 1.3.4.4.8.7 1.3.9.4.2 1 .3 1.6.3zm0-.5c-.4 0-.8-.1-1.2-.2-.4-.1-.7-.3-1-.5-.3-.2-.5-.5-.7-.8-.2-.3-.3-.7-.5-1-.1-.4-.2-.8-.2-1.1 0-.4 0-.8.1-1.2.1-.4.2-.7.4-1.1.2-.3.4-.6.7-.9.3-.2.6-.4 1-.6.4-.1.8-.2 1.3-.2s.9.1 1.3.2.7.3 1 .6c.3.2.5.5.7.9.2.3.3.7.4 1 .1.4.1.7.1 1.1 0 .6-.1 1.1-.2 1.5-.2.5-.4.9-.7 1.2-.3.4-.7.6-1.1.8-.4.2-.9.3-1.4.3zm5.7.4h.6v-3.6c.2.1.4.1.6.1h.6c.4 0 .7 0 1-.1l.9-.3c.3-.1.5-.3.7-.5.2-.2.4-.5.5-.7.1-.3.2-.6.2-1 0-.3-.1-.6-.2-.9-.1-.3-.3-.5-.5-.7-.2-.2-.6-.4-1-.5-.4-.1-.9-.2-1.4-.2h-1.1c-.3 0-.6.1-.9.1V40zm.6-7.8c.1 0 .3-.1.5-.1h.8c.3 0 .7 0 .9.1.3.1.6.2.8.3s.4.3.5.6c.1.2.2.6.2.9 0 .4-.1.8-.3 1.1-.2.3-.5.5-.9.7-.4.2-.8.2-1.4.2H99c-.2 0-.4-.1-.6-.1l.2-3.7zm9.6 7.9c.4 0 .9-.1 1.3-.2s.8-.3 1.1-.5c.4-.2.7-.5.9-.9.3-.4.5-.8.6-1.2.1-.5.2-1 .2-1.6 0-.6-.1-1.2-.3-1.7-.2-.5-.5-1-.8-1.3-.4-.4-.8-.7-1.3-.9-.5-.2-1.1-.3-1.7-.3-.5 0-.9.1-1.3.2s-.8.3-1.1.6l-.9.9c-.3.4-.4.8-.6 1.2-.1.5-.2.9-.2 1.5s.1 1.2.3 1.7c.2.5.5 1 .9 1.3.4.4.8.7 1.3.9.5.2 1 .3 1.6.3zm0-.5c-.4 0-.8-.1-1.2-.2-.4-.1-.7-.3-1-.5-.3-.2-.5-.5-.7-.8-.2-.3-.3-.7-.5-1-.1-.4-.2-.8-.2-1.1 0-.4 0-.8.1-1.2.1-.4.2-.7.4-1.1.2-.3.4-.6.7-.9.3-.2.6-.4 1-.6.4-.1.8-.2 1.3-.2s.9.1 1.3.2.7.3 1 .6c.3.2.5.5.7.9.2.3.3.7.4 1 .1.4.1.7.1 1.1 0 .6-.1 1.1-.2 1.5-.2.5-.4.9-.7 1.2-.3.4-.7.6-1.1.8-.4.2-.8.3-1.4.3zm6.7-8V35.4c0 .5-.1.9-.2 1.3s-.2.8-.3 1.1l-.3.6c-.1.2-.2.4-.3.5-.1.2-.2.3-.3.5h-.5V42h.5l.1-2h6l.1 2h.5l.1-2.6h-.7v-7.8h-4.7zm.6.5h3.4v7.3h-4.7c.1-.1.2-.3.3-.4.1-.2.2-.3.3-.5.1-.2.2-.4.2-.5.1-.3.2-.7.3-1.1.1-.4.1-.8.2-1.3 0-.5.1-1 .1-1.5l-.1-2zm11 4.9l1.2 2.9h.6l-3.3-8.3h-.6l-3.3 8.3h.6l1.1-2.9h3.7zm-3.4-.5l1.2-3c.1-.2.1-.3.2-.5.1-.1.1-.3.1-.4 0-.1.1-.3.1-.4 0 .1.1.3.1.4 0 .1.1.3.1.4.1.2.1.3.2.5l1.2 2.9h-3.2z"/>
</svg>