<svg viewBox="0 0 200 25" xmlns="http://www.w3.org/2000/svg">
	<path fill="#FF4B5F" d="M12.326 20.03c-4.225 0-7.667-3.39-7.667-7.552 0-4.16197 3.441-7.55297 7.665-7.55297h.48V.332031h-.479C5.532.332031 0 5.78303 0 12.477c0 6.738 5.532 12.189 12.326 12.189h.479v-4.634h-.479v-.002Z"/>
	<path fill="#003791" d="M14.8081 6.90039V.591797c5.6628 1.115233 9.887 6.007813 9.887 11.886703 0 5.9238-4.2261 10.8145-9.887 11.8887v-6.3086H12.325c-3.13506 0-5.66094-2.4902-5.66094-5.5781 0-3.08988 2.52588-5.58011 5.66214-5.58011h2.4819Zm23.781 11.07031c1.2839.0039 2.5288-.4355 3.5269-1.2441l1.9599 1.9336c-1.437 1.2851-3.353 2.0586-5.4868 2.0586-4.6172 0-8.3191-3.7344-8.3191-8.2403 0-4.50584 3.7019-8.19725 8.3191-8.19725 2.074-.00586 4.0759.75977 5.6179 2.14648l-1.9599 1.92969c-1.011-.88867-2.312-1.37695-3.658-1.37109-3.094 0-5.5752 2.44531-5.5752 5.49217 0 3.0469 2.4822 5.4922 5.5752 5.4922Zm86.0199-5.75 6.141-7.29492h2.439V20.0312h-2.439V9.13086l-6.141 7.12304-6.228-7.29492V20.0332h-2.483V4.92578h2.483v.08594l.043-.08594 6.185 7.29492Zm-70.254 8.4551c4.573 0 8.3191-3.6485 8.3191-8.1973 0-4.50584-3.7461-8.19725-8.3191-8.19725s-8.3179 3.69141-8.3179 8.19725c0 4.5059 3.7019 8.1973 8.3179 8.1973Zm-.043-13.68947c3.093 0 5.575 2.44531 5.575 5.49217 0 3.0469-2.482 5.4922-5.575 5.4922s-5.5749-2.4453-5.5749-5.4922c0-3.04686 2.4819-5.49217 5.5749-5.49217Zm50.741 13.68947c4.573 0 8.319-3.6485 8.319-8.1973 0-4.50584-3.703-8.19725-8.319-8.19725-4.573 0-8.3189 3.69141-8.3189 8.19725 0 4.5059 3.7019 8.1973 8.3189 8.1973Zm0-13.68947c3.093 0 5.575 2.44531 5.575 5.49217 0 3.0469-2.527 5.4922-5.575 5.4922-3.093 0-5.575-2.4453-5.575-5.4922 0-3.04686 2.482-5.49217 5.575-5.49217ZM93.3359 4.92578h3.355l-7.5788 7.59572 7.4909 7.5117h-3.31l-6.3159-6.3105h-2.5252v6.3105h-2.439V4.92578h2.439v6.35152h2.5701l6.3139-6.35152Zm103.3561 0H200l-7.535 7.59572 7.448 7.5117h-3.31l-6.271-6.3105h-2.57v6.3105h-2.439V4.92578h2.439v6.35152h2.57l6.36-6.35152ZM166.639 20.0312h-2.702l-1.479-3.2597h-7.928l-1.48 3.2617h-2.7l6.75-15.10742h2.787l6.752 15.10542Zm-8.145-12.01558-2.874 6.35158h5.749l-2.875-6.35158ZM77.4829 12.4785c.8882.8164 1.3941 1.9688 1.3941 3.1758 0 2.4023-1.96 4.3789-4.3999 4.4219h-8.971V4.92578h8.971c2.4228-.0039 4.3918 1.95508 4.3999 4.37695 0 1.24417-.5669 2.36137-1.3941 3.17577Zm-3.0488-5.10545H67.988v3.85935h6.4461c1.0888 0 1.959-.8574 1.959-1.92967 0-1.07421-.8702-1.92968-1.959-1.92968ZM67.988 17.6289h6.4461c1.0898 0 1.9599-.9023 2.0029-1.9727 0-.5097-.2134-.9882-.561-1.3417-.3548-.3594-.8491-.5899-1.3989-.5899H67.988v3.9043Zm111.804-6.3516V4.96875h2.483V19.9883h-2.483v-6.2676h-8.928v6.2676h-2.482V4.96875h2.482v6.30855h8.928Zm-34.757 0c2.439 0 4.443 1.9727 4.443 4.377 0 2.4023-2.003 4.3789-4.444 4.4199h-8.928V4.92578h11.891v2.44531h-9.408v3.90621h6.446Zm-6.445 6.3516h6.446c1.089 0 1.96-.9023 1.96-1.9727 0-1.0312-.871-1.9316-1.96-1.9316h-6.446v3.9043Z"/>
</svg>