<svg xmlns="http://www.w3.org/2000/svg" viewBox="0 0 180 43.5">
	<path fill="#fff" d="M48.1 20.4l.6-2-2.1.1c-1 0-1.9-.4-2.7-1h.3c1.3 0 2.4-.7 3-1.9l.9-2c-.7 0-1.4 0-2.2-.1-.7-.2-1.3-.5-1.8-1.1-.6-.7-1.5-1-2.4-1.1-.4 0-.7.1-1.1.2 0-.2.1-.3.1-.5.3-1.1 0-2.3-.7-3.3l-1.6-2-1 2.3c-.2.3-.4.6-.7.8-.2-.8-.6-1.6-1.2-2.2-1-1-2.3-1.6-3.8-1.6-.2 0-.5 0-.7.1l-1.9.4c.2-.6.4-1.2.8-1.8l1-1.6-2.6.2-.8-1.8-1.6.9L24.4 0l-1.5 1.5-1.6-.8-.8 1.8-2.6-.3 1 1.6c.3.6.6 1.2.8 1.8l-1.8-.4h-.1c-.3 0-.5-.1-.8-.1-1.4 0-2.8.6-3.8 1.6-.6.6-1 1.4-1.2 2.2-.3-.2-.5-.5-.7-.8l-1-2.3-1.6 2c-.7.9-1 2.1-.9 3.3 0 .2.1.3.1.5-.3-.1-.7-.2-1.1-.2-.9 0-1.8.4-2.4 1.1-.5.5-1.1.9-1.7 1.1-.7.1-1.5.2-2.2.1l.9 2c.6 1.1 1.7 1.9 3 1.9h.3c-.8.6-1.7.9-2.7.9l-2-.2.6 2c.5 1.6 1.8 2.7 3.5 3-.2 1.1-.8 2-1.8 2.5l-1.6.7.9 1.5c.7 1.1 2 1.8 3.3 1.8.3 0 .7 0 1-.1.1.3.2.6.3 1 .3.8.3 1.7.1 2.5l-.8 1.6 1.8.5c.4.1.8.2 1.2.2.3 0 .6 0 .9-.1.2 0 .4-.1.6-.2.2.4.5.8.8 1.1 1.1 1.1 2.7 1.7 4.7 1.7h1.4l-3 1.2 2.3 1.1c.9.4 1.8.8 2.8 1.2l-.3.8.8.4c1.3.5 2.7.8 4 .8h1.8c1.4 0 2.7-.3 4-.8l.8-.3-.3-.8c1-.4 1.9-.8 2.8-1.2l2.2-1.1-3-1.2h1.4c2 0 3.6-.6 4.7-1.7.3-.3.6-.7.8-1.1.2.1.4.1.6.2.3.1.6.1.9.1.4 0 .8-.1 1.2-.2l1.8-.5-.8-1.6c-.3-.8-.3-1.7 0-2.5.1-.4.2-.7.3-1.1.3.1.7.1 1 .1 1.3 0 2.6-.7 3.3-1.8l.9-1.5-1.6-.7c-1-.5-1.6-1.4-1.8-2.5 1.8-.2 3.2-1.4 3.6-2.9z"/>
	<path fill="#fce527" d="M31.6 26.8H17.2v5.4c0 2.2 1.6 3.6 4 3.6 2 0 2.5.1 3.2.8.5-.5 1.1-.8 1.8-.8v-.1l.5-1.4-.8-.8c-.3.1-.6.1-1 .1-.5 0-1-.1-1.4-.2H23.2l-.1.2-.1.3-.3-.1-1.4-.3-.2.3.2.2-.1.2c-.1.3-.3.6-.5.8l-.3.4-.4-.3-.2-.3c-.3-.3-.3-.8-.2-1.2l-.4.2-.2-.4-.1-.3c-.2-.6-.1-1.2.4-1.6l1.1-.6 1.1.2c0-.1.1-.5.1-.6h-.1l-.5.3-.6-.4c-.1-.1-.1-.3 0-.4l.6-.9-1.5-1.8 2.2.9.2-.2.3-.4.3.3c.1.1.2.2.2.3.6.2 1.7.9 1.8 2.1l-.3.1c0 .1.1.1.2.1l1.6.2h.1c.3-.1.6-.2.8-.2.3 0 .6.1.8.2.1 0 .2-.1.4-.1h.1c.8 0 1.3.6 1.6 1.1l.2.3c.3.4.7 1 .7 1.1l.2.3-.2.3c-.2.3-.5.4-.8.4h-.3c-.1 0-.2 0-.3-.1v.3l-.2 1.4c1.6-.3 2.8-1.8 2.7-3.5l-.2-5.4zm-14.4-.5h11.3c-.5-.5-.6-1.2-.4-1.8-.2-.1-.3-.2-.4-.3-.4.3-1.8 1.3-2.1 1.5h-.1l-4.6-.7h-.5c0 .2-.2.3-.4.3h-.1c-.2 0-.4-.3-.4-.5v-.1c-.6-.4-.8-1.1-.7-1.8v-.1h.1s.1-.1.2-.1h-.3c-.1 0-.2-.1-.2-.3 0-.1.1-.2.2-.2l.8.1.1-2.7 1.1-1.2.7 1.5-.7 2.6.7.1c.1 0 .2.1.2.3 0 .1-.1.2-.2.2l-.6-.1c.1.1.2.2.3.2l3.4.1.9-.8c-.7-.2-1.1-.8-1.2-1.5-.4-.2-.8-.5-1-.9-.2-.4-.2-.8-.1-1.2-.5-.2-1-.5-1.4-.9h-5c.2.6.4 1.2.4 1.8v6.5z"/>
	<g fill="#222220">
		<path d="M56 21.7h5v8.4h3.6v-8.4h5v-3.1H56v3.1zm18.3 3.6v-6.6h-3.5v11.4h3.1l6-6.7v6.7h3.5V18.6h-3.1l-6 6.7zM95 22.9h-5.6v-4.2h-3.5v11.4h3.5v-4.3H95v4.3h3.5V18.7H95v4.2zm15.7-.9c-.8-.3-1.7-.4-2.6-.3h-3.6v-3H101v11.4h7.1c.7 0 1.5-.1 2.2-.3 1.8-.4 3.1-2.1 3-4 .1-1.7-1-3.3-2.6-3.8zm-1.8 5.2c-.4.2-.9.2-1.4.2h-3v-2.9h3c.5 0 .9 0 1.3.1.6.2.9.7.9 1.3.1.5-.2 1-.8 1.3zm19-8.5h-4.4l-4.2 4.3h-1v-4.3h-3.5v11.4h3.5v-4.3h1l4.2 4.3h4.6l-5.8-6c.1 0 5.6-5.4 5.6-5.4z"/>
		<path d="M135.5 18.3c-4.7 0-7.5 2.6-7.5 6.1s2.8 6.1 7.5 6.1 7.5-2.6 7.5-6.1-2.8-6.1-7.5-6.1zm-.1 9.3c-2.3 0-3.8-1.4-3.8-3.3s1.5-3.3 3.8-3.3 3.8 1.4 3.8 3.3c.1 1.9-1.4 3.3-3.8 3.3zm19-8.5V18h-3.5v1.2c-4.4.1-7 2-7 5.2 0 3.3 2.6 5 7 5.1v1.2h3.5v-1.2c4.4-.1 7-1.8 7-5.1.1-3.3-2.6-5.2-7-5.3zm-3.5 7.9c-2.4-.1-3.5-1.1-3.5-2.6s1.1-2.6 3.5-2.7V27zm3.5 0v-5.4c2.4.1 3.5 1.2 3.5 2.7 0 1.6-1 2.6-3.5 2.7zm18.6-7.9V18h-3.5v1.2c-4.4.1-7 2-7 5.2 0 3.3 2.6 5 7 5.1v1.2h3.5v-1.2c4.4-.1 7-1.8 7-5.1s-2.6-5.2-7-5.3zm-3.5 7.9c-2.4-.1-3.5-1.1-3.5-2.6s1.1-2.6 3.5-2.7V27zm6.9-2.7c0 1.5-1 2.5-3.5 2.6v-5.4c2.5.2 3.5 1.3 3.5 2.8zM21.8 29.1c-.1 0-.1.1-.1.1 0 .1.1.2.1.2.1 0 .1-.1.1-.1 0-.1-.1-.2-.1-.2zm0 0zm9.8 9.9l-.8-.3.2-.9.3-.9c-1.1.6-2.3 1.1-3.6 1.4-.6.2-1 .2-1 .2v.6c-.7.1-1.5.2-2.2.2h-.1c-.8 0-1.5-.1-2.2-.2v-.6s-.4-.1-1-.3c-1.2-.3-2.4-.8-3.6-1.4l.2.9.2.9-.8.4-.9.3c1.2.6 2.5 1.2 3.9 1.6l-.3.9c1.5.6 3 .8 4.6.8 1.6 0 3.1-.2 4.6-.8l-.3-.9c1.3-.4 2.6-1 3.9-1.6-.2 0-1.1-.3-1.1-.3zm-14.3.4l1.3-.5-.4-1.3c.9.4 1.8.8 2.7 1.1l-.7 1.8c-1-.3-2-.6-2.9-1.1zm7.1 2.8c-1.4 0-2.7-.2-3.9-.6l.8-2.2c1 .3 2.1.4 3.1.4h.1c1 0 2.1-.1 3.1-.4l.8 2.2c-1.3.4-2.7.6-4 .6zm4.1-1.6l-.7-1.8c.9-.3 1.9-.7 2.7-1.1l-.3 1.3 1.4.5c-1 .4-2 .8-3.1 1.1zm-4.1-36c1.4 0 2.7.4 3.8 1.2.2-.9.5-1.7 1-2.5l-1.4.2-.7-1.5-1.4.7-1.3-1.3-1.3 1.3-1.4-.7-.7 1.4-1.4-.2c.5.8.8 1.6 1 2.5 1.1-.7 2.4-1.1 3.8-1.1zM20.9 4h.4l.2-.3.5-1 .9.5.3.2.2-.4 1-1 1 1 .3.3.3-.2.9-.5.5 1 .1.4h.8c-.1.3-.3.7-.4 1-2.2-1.1-4.8-1.1-6.9 0-.1-.3-.2-.7-.4-1-.1-.1.3 0 .3 0zm21.3 13.1l-.2-.2c-1.1-1.4-2.2-2.8-4.1-3.4.1-.1.2-.1.2-.2.9-.5 1.5-1.4 1.7-2.4.1-.9-.2-1.8-.7-2.6l-.6-.8-.4.9c0 .1-.7 1.5-2 1.5h-.4c.2-.9-.1-1.9-.8-2.5-.8-.8-1.9-1.3-3.1-1.3h-.6l-.9.2.6.8c.4.6.8 1.6.4 2.2-.2.2-.5.4-.8.5-.7.2-1.5.6-1.5 1.6 0 .7.5 1.3 1.4 1.9 2.7 1.7 4.4 3.5 5.1 5.5 1.1 3-.3 4.8-1.8 5.7l-.6.5.6.5c.5.4 1.1.7 1.8.8h.5c.6 0 1.1-.1 1.6-.2-.1.2-.3.5-.5.7-.8.9-2 1.5-3.3 1.4h-.5v.5c0 .8.3 1.5.9 2 .2.1.3.2.5.3-.9.9-1.4 2.1-1.4 3.3 0 .7-.2 1.4-.5 2l-.5.7h1.1c1.8 0 3.1-.5 4.1-1.5.5-.5.8-1.1 1.1-1.8.3.3.8.5 1.2.6.2 0 .4.1.6.1.3 0 .7 0 1-.1l.7-.2-.3-.6c-.4-1-.4-2.1 0-3.2.2-.7.4-1.3.5-2 .5.3 1.1.4 1.8.4 1 0 1.9-.5 2.5-1.3l.3-.6-.6-.3c-2-.8-2.5-3.1-2.6-4.3.2 0 .4.1.6.1l.2.1c2.2 0 2.9-2.2 3-2.3l.2-.8h-.8c-2-.1-3.6-.9-4.7-2.2zm2.1 4.7c-.5 0-1-.1-1.3-.3 0 0-.3 4.4 2.9 5.7-.4.7-1.2 1-1.9 1-.9.1-1.7-.3-2.3-1 0 1-.2 2-.5 3-.4 1.2-.4 2.5 0 3.6-.3.1-.5.1-.8.1-.2 0-.3 0-.5-.1-.8-.2-1.4-.8-1.7-1.6 0 0 .1 4.2-4.7 4.2.4-.7.6-1.5.6-2.3.2-3.1 2.3-3.5 2.3-3.5-.6-.1-1.1-.3-1.6-.6-.4-.4-.7-.9-.7-1.5 1.4.1 2.8-.5 3.7-1.6.6-.6.9-1.4 1.1-2.2-.8.6-1.7.9-2.7.8h-.5c-.5-.1-1-.3-1.4-.6 1.9-1.2 3.2-3.3 2-6.4-.9-2.5-3.1-4.4-5.4-5.8-.7-.5-1.2-1-1.2-1.4 0-1 1.5-1.1 2.1-1.8.7-.8.3-2.1-.3-2.9h.5c1 0 2 .4 2.7 1.1.7.7 1 1.7.7 2.6l.3.1c.2 0 .4.1.6.1h.1c1.8 0 2.6-1.8 2.6-1.8s1.9 2.3-.9 4.1c-.5.3-.7.6-.6.9v.2h.2c2 .5 3 1.9 4.3 3.5 1.2 1.5 3 2.4 4.9 2.5-.2 0-.8 1.9-2.6 1.9z"/>
		<path d="M40.4 13.7c.7.4 1.3.9 1.7 1.5.3.5.8 1 1.4 1.2.2.1.5.1.7.1.9 0 1.8-.5 2.2-1.3l.3-.8h-.8c-.9-.2-1.7-.6-2.3-1.3-.5-.5-1.1-.8-1.8-.8-.5 0-1 .2-1.5.4l-.8.5c.1.1.9.5.9.5zm1.4-.8c.5 0 1 .2 1.3.6.7.8 1.7 1.3 2.7 1.5-.3.6-1 1-1.6 1-.2 0-.3 0-.5-.1-1-.3-1.3-1.8-3-2.7.4-.2.7-.3 1.1-.3zm-1 8.6c-.5-4-3.4-6.9-6.6-8.6-.3-.2-.6-.3-.8-.4 1.3.3 2.7-.1 3.8-.9 0 0-1.9 1.4-5.7.1 1.1.7 3.1 1.6 5 3.2 4.7 4.1 1.3 8.1 1.3 8.1 1.4-1.3 1.9-3.3 1.3-5.2 1 1.6 1.5 3.5 1.4 5.5-.1 3.2-1.9 5.9-3.7 8.1-.5.7-.9 1.5-1.1 2.4.3-.9.8-1.7 1.4-2.3 2-2.3 3.6-4.7 3.8-8.1.2.6 1 2.4 2.4 3-.1 0-1.7-1-2.5-4.9zM15.9 36.2c-.3-.6-.4-1.3-.5-2 0-1.2-.5-2.4-1.4-3.3.2-.1.3-.2.5-.3.6-.5.9-1.2.9-2v-.5h-.5c-1.2.1-2.4-.5-3.3-1.4-.2-.2-.3-.4-.5-.7.5.2 1.1.2 1.6.2h.5c.7-.1 1.3-.3 1.8-.8l.6-.5-.6-.3c-1.4-.9-2.9-2.6-1.8-5.7.7-2 2.4-3.8 5.1-5.5.9-.6 1.4-1.3 1.4-1.9 0-1-.8-1.4-1.5-1.7-.3-.1-.5-.3-.8-.5-.5-.6-.1-1.6.4-2.2l.6-.8-.9-.2h-.6c-1.2 0-2.3.4-3.1 1.2-.7.7-1 1.6-1 2.6h-.4c-1.4 0-2-1.4-2-1.5l-.4-.9-.5.8c-.5.7-.8 1.7-.7 2.6.2 1 .8 1.9 1.7 2.4.1.1.2.1.2.2-1.9.6-3 2-4.1 3.4l-.2.2c-1.1 1.4-2.7 2.2-4.4 2.2h-.7l.3.8c0 .1.8 2.3 3 2.3h.1c.2 0 .4 0 .6-.1-.1 1.2-.5 3.5-2.6 4.3l-.7.3.3.6c.5.8 1.5 1.3 2.5 1.3.6 0 1.2-.1 1.7-.4.1.7.2 1.4.5 2 .4 1 .4 2.1 0 3.2l-.3.6.7.2c.3.1.6.1 1 .1.2 0 .4 0 .6-.1.4-.1.9-.3 1.2-.6.2.7.6 1.3 1.1 1.8.9 1 2.3 1.5 4.1 1.5h1.1c-.1.1-.6-.9-.6-.9zm-.5.3c-4.9 0-4.7-4.2-4.7-4.2-.3.8-.9 1.4-1.7 1.6-.2 0-.3.1-.5.1-.3 0-.5 0-.8-.1.4-1.2.4-2.5 0-3.6-.3-1-.5-2-.5-3-.6.7-1.4 1.1-2.3 1-.8 0-1.5-.4-1.9-1 3.2-1.3 2.9-5.7 2.9-5.7-.4.2-.8.3-1.2.3h-.2c-1.8 0-2.4-1.9-2.4-1.9 1.9-.1 3.7-1 4.9-2.5 1.2-1.6 2.3-3 4.3-3.5h.2v-.2c.1-.3-.2-.6-.6-.9C8.1 11 10 8.7 10 8.7s.8 1.8 2.6 1.8h.1c.2 0 .4 0 .6-.1l.3-.1c-.3-.9 0-2 .7-2.6.7-.6 1.6-1 2.7-1h.5c-.6.8-1 2.1-.3 2.9.6.7 2.1.7 2.1 1.8 0 .4-.4 1-1.2 1.4-2.2 1.4-4.5 3.3-5.4 5.8-1.1 3.1.2 5.2 2 6.4-.4.3-.9.5-1.4.6h-.5c-1 0-1.9-.3-2.7-.8.2.8.5 1.6 1.1 2.2.9 1.1 2.3 1.7 3.7 1.6 0 .6-.3 1.1-.7 1.5-.5.3-1 .5-1.6.6 0 0 2.1.4 2.3 3.5 0 .9.1 1.6.5 2.3z"/>
		<path d="M4.5 16.6c.2 0 .5 0 .7-.1.6-.3 1.1-.7 1.4-1.2.5-.6 1-1.1 1.7-1.5l.8-.5-.8-.5c-.4-.3-.9-.4-1.4-.4-.7 0-1.3.3-1.8.8-.6.7-1.4 1.2-2.3 1.3H2l.3.8c.5.7 1.3 1.3 2.2 1.3zm1.1-3.1c.3-.4.8-.6 1.3-.6.4 0 .8.1 1.1.3-1.7.9-2.1 2.4-3 2.7-.1.1-.3.1-.5.1-.7 0-1.3-.4-1.7-1 1.1-.2 2.1-.7 2.8-1.5zm2.8 9.9c-.1-1.9.4-3.8 1.4-5.5-.6 1.8-.1 3.8 1.3 5.2 0 0-3.3-4 1.3-8.1 1.9-1.6 3.9-2.5 5-3.2-3.8 1.2-5.7-.1-5.7-.1 1.1.8 2.4 1.2 3.8.9-.3.1-.5.3-.8.4-3.2 1.7-6.1 4.6-6.6 8.6-.7 3.9-2.4 4.9-2.4 4.9 1.3-.7 2.2-2.4 2.4-3 .2 3.4 1.9 5.8 3.9 8.1.6.7 1.1 1.5 1.4 2.3-.2-.9-.5-1.7-1.1-2.4-2.1-2.3-3.8-5-3.9-8.1zm14.9-7.3c.2-.2.5-.3.8-.3V17c0 .3-.1.6-.2.8H25c-.1-.2-.2-.5-.2-.8v-1.1c.3 0 .6.1.8.3v-.8h-2.3v.7zm-.5-5.5c.2.2.4.3.6.3l.1.1v-.7l-1.3-.6c.1.4.3.8.6.9zm3.2 0c.3-.2.5-.5.6-.9l-1.3.6v.7l.1-.1c.2 0 .4-.1.6-.3z"/>
		<path d="M28.4 7.6c0-1.1-1.9-2.1-4-2.1s-4 1-4 2.1v.3l.8 4.8-.8.5-2.2 1.2s-.5.3-.7.4c-.8.6-1 1.4-.5 1.8.1-.8.8-1.4 1.7-1.4.7 0 1.3.4 1.7.9.1.1.2.3.3.5.1.2.3.4.4.6h-5.6c.5.8.7 1.7.8 2.6v12.4c0 3 2.3 4.4 4.8 4.4 1.9 0 2.2-.1 3.2 1 1.1-1.1 1.3-1 3.2-1 2.5 0 4.8-1.4 4.8-4.4V19.8c.1-.9.3-1.8.8-2.6h-5.6c.1-.2.3-.4.4-.6.1-.2.2-.3.3-.5.4-.6 1-.9 1.7-.9.8 0 1.5.6 1.7 1.4.5-.3.3-1.2-.5-1.8-.2-.2-.7-.4-.7-.4l-2.2-1.3-.8-.5.8-4.8c.1.1.2-.2.2-.2zm-7.2.6l2.9 1v4.6L22 12.6l-.8-4.4zM16.7 18h5.1c.4.4.9.7 1.4.9-.1.4-.1.8.1 1.2.2.4.5.7 1 .9.1.7.5 1.3 1.2 1.5-.4.4-.7.7-.9.8l-3.4-.1c-.1-.1-.2-.1-.3-.2l.5.1c.1 0 .2-.1.2-.2s-.1-.2-.2-.3l-.7-.1.7-2.6-.7-1.5-1.1 1.2-.1 2.7H19c-.1 0-.2.1-.3.2 0 .1.1.2.2.3h.3c-.1.1-.2.1-.2.1h-.1v.1c-.2.7.1 1.4.7 1.8v.1c0 .2.1.5.4.5h.1c.2 0 .4-.1.4-.3h.5l4.4.8h.1c.3-.2 1.7-1.2 2.1-1.5.1.1.3.2.4.3-.2.6 0 1.3.4 1.8H17.2V20c-.1-.8-.2-1.4-.5-2zm10.5 5.9c-.5.3-1.6 1.2-2 1.4l-4-.7v-.1c.1-.3.1-.5.1-.8l3.4.1.1-.1 1.7-1.7c.1.2.3.3.5.5-.1.5 0 1 .2 1.4zm-6.6-.7c.1.2.2.3.4.4 0 .2 0 .5-.1.7V24.6c-.3 0-.5 0-.8-.1-.5-.3-.8-.8-.7-1.3.2-.2.5-.2.7-.3.2 0 .4.1.5.3zm-.5-.8l.1-2.5.6-.6.4.8-.7 2.5c0-.1-.4-.2-.4-.2zm7.1 13.4h-.6l.5-1.5c.1-.2-.3-.5-.5-.7.4.2.7.4 1.1.6.1.1-.5 1.6-.5 1.6zm1.6-1.6l-.4 1.6c-.2 0-.4 0-.6.1l.3-1.6c.1-.5-1.1-.6-1.8-1.5-.4.3-.9.5-1.4.4-.5 0-.9-.1-1.4-.1h-.2c-.2 0-.4.1-.5.2l-.1.2-1.6-.5-.4.7c-.1.1-.1.2 0 .3l.1.1c-.1.2-.3.4-.4.6l-.3-.3c-.2-.3-.2-.7 0-1l.7-1.1 1.4.2-.1-.5c-.3-.7.2-1.5.2-2 0 .2-.2.2-.3.2h-.4-.1l-.5.2-.3-.3v-.3l.7-.8-.8-1 1.2.6.4-.4c.1.1.1.3.1.3.9.2 1.5 1 1.5 1.9v.2c.1.2.3.3.5.4l1.6.2c.3-.1.7-.2 1-.2.3 0 .6.1.8.2.1-.1.3-.1.4-.1h.1c.7 0 1 .7 1.4 1.2.3.4.7 1 .7 1-.1.2-.3.3-.5.3h-.2c-.8-.1-.9-1.8-1.3-1.9h-.1c-.1 0-.2 0-.2.1.2.5.1.8.3 1.2.2.3.4.5.6.7-.1.1-.1.3-.1.5zM20 32.6l.1.2c0 .2-.6.4-.6.4l-.1-.3c-.2-.4 0-.8.3-1.1l.9-.6 1 .2c0 .2.1.4.2.5l-1-.2-.8.6c0 .1-.1.2 0 .3zm11.6-.4c.1 1.7-1.1 3.1-2.7 3.5l.3-1.5v-.3c.1 0 .2.1.3.1h.3c.3 0 .6-.2.8-.4l.2-.3-.2-.2s-.4-.6-.7-1.1l-.2-.3c-.3-.5-.8-1.1-1.6-1.1H28c-.1 0-.2 0-.4.1-.3-.1-.5-.2-.8-.2-.3 0-.6.1-.8.2h-.1l-1.6-.2c-.1 0-.1-.1-.2-.1l.3-.1c-.1-1.1-1.2-1.9-1.8-2.1 0-.1-.1-.2-.2-.3l-.3-.3-.3.4-.2.2-2.2-.9 1.5 1.8-.6.9c-.1.1-.1.3 0 .4l.6.4.6-.2h.1c0 .1-.1.5-.1.6l-1-.2-1.1.6c-.5.4-.7 1.1-.4 1.6l.1.3.2.4.4-.2c-.1.4-.1.8.2 1.2l.2.3.3.4.3-.4c.2-.2.4-.5.5-.8l.1-.2-.2-.2.2-.3 1.4.3.3.1.2-.3.1-.2H23.6c.5.1 1 .1 1.4.2.3 0 .7 0 1-.1l.8.9-.5 1.4v.1c-.7 0-1.3.3-1.8.8-.7-.7-1.3-.8-3.2-.8-2.4 0-4-1.4-4-3.6v-5.4h14.4l-.1 5.1zM32 18c-.2.6-.4 1.2-.4 1.8v4.1c-.5-.1-.9-.6-1-1.1v-.2h-.2c-.3 0-.6-.2-.8-.4-.3-.3-.4-.7-.4-1.1-.3.4-.2 1 .1 1.4.2.3.6.5 1 .5.1.7.7 1.2 1.4 1.3v2h-2.5c-.7-.3-.9-1.1-.6-1.8l.1-.2-.2-.1c-.7-.3-1.1-1-.9-1.8v-.2l-.2-.1c-.6-.4-1-1.1-.9-1.8-.3.3-.4.8-.2 1.3l-.5.5c-.6-.1-1.1-.7-1.1-1.3v-.2l-.1-.1c-.4-.1-.7-.4-.8-.7-.1-.3-.1-.6-.1-.9.1 0 .2 0 .4.1h.4c1 0 1.9-.4 2.6-1.1l4.9.1zm-3.9-4.1l1 .6.2.1c-.5.1-1 .4-1.3.8-.1.1-.2.2-.2.3v.1c-.1.1-.2.2-.2.3v.1c-.1.1-.2.3-.2.4-.5 1.1-1.6 1.8-2.8 1.9-1.2-.1-2.3-.8-2.8-1.9-.1-.1-.2-.3-.2-.4v-.1l-.2-.3-.4-.1c-.1-.1-.2-.2-.2-.3-.4-.4-.8-.7-1.3-.8l.3-.1 1-.6 1-.6 2.7 1.5 2.7-1.4c-.1-.1.9.5.9.5zm-1.3-1.2l-2.2 1.1V9.2l2.9-1c.1 0-.7 4.5-.7 4.5zm-2.4-4l-3.2-1.3c.3-.7 1.5-1.2 3.2-1.2s2.9.6 3.2 1.2l-3.2 1.3z"/>
	</g>
</svg>