<svg xmlns="http://www.w3.org/2000/svg" viewBox="0 0 130 33.9">
	<path fill="#e30613" d="M124.7 23.2V5.8L130 .5v22.7h-5.3z"/>
	<path fill="#c6c6c6" d="M107.3 23.2l17.4-17.4v17.4h-17.4z"/>
	<path fill="#008ecf" d="M107.3 23.2V5.8h17.4l-17.4 17.4z"/>
	<path fill="#00446b" d="M72.2 23.7c-6.6 0-11-4.7-11-11.9C61.2 5.2 65.4 0 72.4 0c5.5 0 9.4 3.4 9.8 8.1h-4.9c-.5-2.5-2.3-3.9-5-3.9-4.4 0-6.1 3.9-6.1 7.7 0 4.7 2.3 7.7 6 7.7 3 0 4.8-1.8 5.2-5.1h4.9c-.4 5.5-3.9 9.2-10.1 9.2zM55 23.2h5.2L51.5.5h-5.1l-8.6 22.7h5.1l1.9-5.1h8.4l1.8 5.1zm-9.1-8.7l3-8.4 3 8.4h-6zm-34-9.8h6.8V.5H.1v4.2h6.8v18.4h5V4.7zm110.2 29.2c1.6 0 2.6-1.1 2.6-2.8 0-1.7-1.1-2.8-2.6-2.8-1.6 0-2.7 1.1-2.7 2.8 0 1.7 1.1 2.8 2.7 2.8zm0-1c-.9 0-1.5-.7-1.5-1.9 0-1.1.5-1.8 1.5-1.8.9 0 1.4.7 1.4 1.8 0 1.2-.5 1.9-1.4 1.9zm-72.2-1.8c0 1.7-1.1 2.8-2.6 2.8-1.6 0-2.7-1.1-2.7-2.8 0-1.7 1.1-2.8 2.7-2.8s2.6 1.2 2.6 2.8zm-4 0c0 1.2.5 1.8 1.5 1.9.9 0 1.4-.7 1.4-1.9 0-1.1-.5-1.8-1.4-1.8-1 0-1.5.7-1.5 1.8zM8.8 33.8H10l-2-5.4H6.7l-2.1 5.4h1.2l.4-1.2h2c.1 0 .6 1.2.6 1.2zm-2.2-2.1l.7-2 .7 2H6.6zm-2.1.4c0-1.2-.8-1.7-1.9-1.7H1.2v-1H4v-1H0v5.4h2.5c1.2 0 2-.5 2-1.7zm-3.3-.8h1.3c.5 0 .9.2.9.8 0 .6-.3.8-.9.8H1.2v-1.6zM15 33.8h-1.2v-2.3h-2.2v2.3h-1.2v-5.4h1.2v2h2.2v-2H15v5.4zm6 0l-2.3-3.2 2.1-2.1h-1.5l-2.1 2.2v-2.2H16v5.4h1.2v-1.7l.7-.7 1.6 2.4c0-.1 1.5-.1 1.5-.1zm7.4 0h-1.2v-2.3H25v2.3h-1.2v-5.4H25v2h2.2v-2h1.2v5.4zm2.2-4.4h2.8v-1h-4v5.4h4.1v-1h-2.9v-1.3h2.6v-.9h-2.6v-1.2zm8.2 4.4h-1.2v-4.4h-2.2v4.4h-1.2v-5.4h4.6v5.4zm5.4-3.6c0-1.2-.8-1.7-2-1.7h-2.3v5.4h1.2V32h1.2c1-.1 1.9-.7 1.9-1.8zm-2.1.8h-1v-1.5h1.1c.5 0 .9.2.9.8-.1.5-.5.7-1 .7zM54 33.8v-.6c1.4 0 2.3-.8 2.3-2.1S55.4 29 54 29v-.5h-1.2v.5c-1.4 0-2.3.8-2.3 2.1s.9 2.1 2.3 2.1v.6H54zm-2.3-2.7c0-.8.4-1.2 1.2-1.3v2.5c-.8 0-1.2-.5-1.2-1.2zm2.3 1.2v-2.5c.8 0 1.2.5 1.2 1.2 0 .8-.4 1.3-1.2 1.3zm7.7 1.5h-1.2v-3.7l-2 3.7h-1.3v-5.4h1.2v3.7l2-3.7h1.3v5.4zm4.3 0h1.2v-5.4h-3.7l-.1 3.3c0 1.1-.3 1.3-.6 1.3-.1 0-.3 0-.4-.1v1c.2.1.4.1.7.1.9 0 1.4-.7 1.5-2.2l.1-2.3H66v4.3zm2.1 0v-5.4h1.2v1.9h1.3c1.1 0 1.9.5 1.9 1.7s-.8 1.7-1.9 1.7c-.1.1-2.5.1-2.5.1zm2.3-2.5h-1.1v1.5h1.1c.6 0 .9-.2.9-.8s-.3-.7-.9-.7zm6.2 2.5h1.2v-5.4h-1.2v2h-2.2v-2h-1.2v5.4h1.2v-2.3h2.2v2.3zm4.3 0h-2.1v-5.4H80v1.9h1c1.1 0 1.9.5 1.9 1.7-.1 1.3-.9 1.8-2 1.8zm-.1-2.5H80v1.5h.8c.6 0 .9-.2.9-.8 0-.5-.4-.7-.9-.7zm3.8-2.8v5.4h-1.2v-5.4h1.2zm5.6 5.3L88.3 31l1.7-2.6h-1.3l-1.1 1.7-1.1-1.7h-1.4l1.7 2.6-1.8 2.8h1.3l1.2-1.9 1.2 1.9h1.5zm8.1 0h-1.2l-.4-1.2h-2l-.4 1.2H93l2.1-5.4h1.2l2 5.4zm-2.7-4.1l-.7 2h1.4l-.7-2zm8.1 4.1l-2.3-3.2 2.1-2.1H102l-2.1 2.2v-2.2h-1.2v5.4h1.2V32l.7-.7 1.6 2.4h1.5v.1zm4.5-4.4h-1.6v4.4h-1.2v-4.4h-1.6v-1h4.4v1zm3.9 4.4h1.2v-5.4H112l-2 3.7v-3.7h-1.2v5.4h1.3l2-3.7v3.7zm4.8-5.4c.9 0 1.7.4 1.7 1.3 0 .5-.3.9-.7 1.1.5.2 1 .6 1 1.3 0 1.1-.8 1.6-1.8 1.6h-2.7v-5.4h2.5zm-1.4 2.2h1.1c.4 0 .9-.1.9-.6s-.4-.6-.9-.6h-1.1v1.2zm0 2.2h1.2c.5 0 1-.1 1-.7s-.5-.7-1.1-.7h-1.1v1.4zm12.5-4.4c.9 0 1.7.4 1.7 1.3 0 .5-.3.9-.7 1.1.5.2 1 .6 1 1.3 0 1.1-.8 1.6-1.8 1.6h-2.6v-5.4h2.4zm-1.3 2.2h1.1c.4 0 .9-.1.9-.6s-.4-.6-.9-.6h-1.1v1.2zm0 2.2h1.2c.5 0 1-.1 1-.7s-.5-.7-1.1-.7h-1.1v1.4zM31.2.5c4.9 0 8.3 2.3 8.3 7.3 0 4.9-3.5 7.3-8.1 7.3h-5.1v8.1h-4.9V.5h9.8zm-4.9 10.6h4.4c2.2 0 3.9-.7 3.9-3.2 0-2.4-1.7-3.3-3.9-3.3h-4.5c.1 0 .1 6.5.1 6.5zm68.8-6.4h6.8V.5H83.3v4.2h6.8v18.4h5V4.7z"/>
	<path fill="#ae0f0a" d="M107.3 5.8V.5H130l-5.3 5.3h-17.4z"/>
</svg>