<svg viewBox="0 0 120 42" xmlns="http://www.w3.org/2000/svg">
	<path fill="#181716" d="M41.7986 20.9087v.0843c-.0052 4.7264-.3529 12.67-3.8965 16.6035-2.1131 2.3453-5.2668 4.2897-10.0768 4.2994l-.098-2.2681c4.291-.7305 6.8225-3.4787 7.315-7.4298.5105-4.095.4528-5.8273.4528-11.2497 0-5.4166.0577-7.1508-.4528-11.24912-.4925-3.94909-2.5368-6.69925-6.829-7.42977L27.8253 0c4.81.00843407 7.963 1.95735 10.0768 4.30332 3.5429 3.93157 3.8913 11.87448 3.8965 16.60538ZM6.75699 32.198c-.51124-4.095-.4548-5.8273-.4548-11.2497 0-5.4166-.01881-7.1476.4548-11.24912.53004-4.58749 3.36581-6.69925 7.65551-7.42977L14.6636 0C9.85229.00454142 6.01154 1.958 3.89784 4.30332.354231 8.23554.00194632 16.1778 0 20.9087v.0843c.00194632 4.7264.352933 12.67 3.89784 16.6035 2.11306 2.3453 5.26545 4.2949 10.07616 4.2994l.0979-2.2681c-4.29227-.7305-6.82185-3.4781-7.31491-7.4298Zm23.16451-6.1925c0 4.1612-1.0575 7.6244-4.7231 9.6194-1.1224.6111-2.8903 1.0419-4.2696 1.0419-1.4863 0-3.1057-.2427-4.3091-.9654-.885-.5313-1.9016-1.3579-2.5562-2.2246-1.5986-2.1183-2.3804-4.4085-2.3804-9.1594 0-9.3917.183-13.4543 2.4933-15.21509 4.3727-3.33211 8.5275-5.44841 9.0153-6.90945.3257-.97446 0-1.699143 0-1.699143l1.6927-.4496003C26.2111 4.30462 27.0552 8.33286 23.6621 10.1624c-3.1115 1.6777-3.6208 1.7484-6.2302 3.1115-2.1747 1.136-3.5105 2.2149-3.7285 4.0854-.0902.7772-.192 2.7709-.192 2.7709l.8174-.0506c.2887-.9239.7695-1.9133 1.7822-2.7684 1.2781-1.0789 3.0103-1.9112 4.8957-1.9722.1797-.0059.3574-.0091.5333-.0091 2.2272 0 4.1586.4859 5.6527 1.8289 2.3609 2.1221 2.7288 5.6158 2.7288 8.8467Zm-6.7583-6.3918c-.567-1.3559-1.3495-1.5946-2.3362-1.5972-.9849-.0026-1.7712.3529-2.3408 1.7056-.6183 1.4688-.7468 3.5423-.752 6.236-.0058 2.695.1142 4.8879.728 6.3541.569 1.3598 1.3514 1.8341 2.3362 1.8373.9836.0033 1.7718-.4716 2.344-1.8263.619-1.4655.7448-3.6584.75-6.3521.0052-2.6957-.1142-4.8872-.7292-6.3574ZM53.4648 8.61188l.0149.06033-.0072.04931-.1128.48269c-.002.03373-.0331.12327-.1382.12327h-1.0861v1.01212h.9206l.1226.0584.0228.1018v.4405l-.05.1317-.0954.0286h-.9225v1.2009h1.1509l.0947.0272.0487.1324v.4392l-.0487.133-.0642.0272h-1.8698l-.1219-.0571-.0215-.1031V8.72541l.0487-.13235.0954-.02789h1.9255l.0935.04671Zm2.6697-.04866-.0987.0253-.0454.13559v1.61939H54.979V8.72476l-.0474-.13559-.0986-.02595h-.5437l-.0973.0253-.0473.13559v4.17419l.0467.1356.0973.0253h.5437l.0979-.0253.048-.1349v-1.7932h1.0121v1.7932l.0454.1349.098.026h.5482l.1194-.0558.0221-.1058V8.72411l-.0221-.10575-.122-.05514h-.5449Zm3.6688.00195c-.111 0-.1395.0785-.1681.1557l-.7155 1.76073c-.0747.1862-.2349.6144-.3348.8941.0123-.6008.0207-.4977.0207-.7857V8.72541l-.0227-.1038-.1232-.05644h-.5444l-.0934.02789-.0499.13235V12.899l.0227.1051.1213.0564h.5534c.0928 0 .1285-.0623.1518-.1291l.7824-1.9223c.0759-.1836.157-.3692.2751-.7286-.0091.1998-.0162.4224-.0162.5619v2.0579l.0234.1038.12.0571h.5482l.1187-.0571.0234-.1038V8.72541l-.0227-.1038-.1214-.05709h-.5488v.00065Zm2.754-.109c-.3081 0-.6786.09861-.9692.45479-.2907.35488-.5022.95759-.5022 1.95804v.0065c0 .9173.1641 2.2947 1.4889 2.296h.0578c.327-.0137.6527-.1278.8479-.3127l.0798-.1324-.0337-.1103-.1752-.3627-.1018-.0817-.1596.0824c-.1492.1032-.2965.1557-.4477.1557-.2491 0-.3905-.133-.4716-.2582-.196-.301-.2174-1.04-.2174-1.3229 0-.8531.0766-1.22874.2368-1.41624.1045-.12197.2504-.19593.436-.19593.1706 0 .303.08954.4509.22513l.1395.0798.0902-.0811.2095-.36266.0331-.09927c0-.05514-.037-.10964-.1174-.19009-.2355-.23485-.5898-.33217-.8746-.33217Zm1.572.109-.096.02854-.0493.133v4.17489l.0227.1031.1213.0584h1.8698l.0655-.0305.0474-.1317v-.4398l-.0474-.133-.0954-.0266h-1.1496v-1.2009h.9219l.0954-.0292.0493-.1324v-.4392l-.0227-.1031-.122-.0571h-.9219V9.32683h1.088c.1057 0 .1349-.08889.1369-.12262l.1148-.48464.0039-.04865-.0162-.06034-.0934-.04477-1.923-.00064Zm3.3652.00129.1213.0571.024.10315v1.86389c-.0019.2887-.0129.1836-.0227.7851.0999-.2777.2615-.7066.3361-.8934l.7143-1.76013c.0266-.07721.0584-.15571.1693-.15571h.5469l.1207.0571.024.10315v4.17549l-.024.1025-.1181.0584h-.5469l-.1233-.0584-.0233-.1025v-2.0585c0-.1389.0071-.3621.0175-.5619-.1187.3588-.1998.5456-.2751.7299l-.7824 1.9223c-.0234.0668-.0616.1298-.1531.1298h-.5515l-.1219-.0584-.0234-.1025V8.72671l.0493-.13235.096-.0279h.5463Zm1.1165-1.09448.3685.04541.0844.12197c0 .10186-.0247.23162-.1207.38019-.1161.17906-.3257.36071-.6844.38472l-.0941.00389c-.4094 0-.6449-.19528-.7708-.38926-.0953-.14727-.1174-.27768-.1167-.38018.0006-.07526.0402-.12133.0837-.12133l.4197-.05255.0513.02141.0551.13689c.0448.14793.1285.23551.2822.23616.1564.00065.2375-.08759.2829-.2368l.0545-.13625.0532-.02141.0512.00714Zm2.9805.98419c-.3075-.00065-.6786.10056-.9699.45609-.292.35553-.5015.95694-.5002 1.95804.0013.9167.1622 2.3025 1.487 2.3031l.0571.0007c.3282-.0117.6526-.1285.8492-.3134l.0766-.1323-.0305-.111-.1758-.3627-.1038-.0811-.1577.0831c-.1505.1012-.2971.1557-.4477.1557-.2478 0-.3918-.133-.4723-.2576-.1959-.3023-.2179-1.0406-.2173-1.3235.002-.85246.0785-1.22874.2375-1.41624.1018-.12002.2478-.19593.4281-.19723l.0072.0013c.1693 0 .3056.09018.4509.22448l.1401.07915.0908-.0811.207-.36137.0344-.09926c-.0007-.0545-.0357-.11029-.1174-.19204-.2342-.2342-.5885-.33217-.8733-.33282Zm3.8271.00065h-.0071c-.1226 0-.3283.04736-.5015.16738-.266.18426-.3199.44831-.3594.71366l-.0857.54951c-.0674.38863-.1888.45413-.4509.45993h-.1635V8.72736l-.0467-.13559-.0966-.02531h-.5444l-.0979.02531-.048.13559v4.17554l.048.1343.0979.0259h.5444l.0966-.0259.0467-.1343v-1.7952h.2161c.3296.0033.3607.2122.399.4081l.1349.7772c.0351.205.061.4743.2479.6579.2102.2063.5456.2225.6117.2225h.0104c.1012 0 .133-.0707.1447-.1174l.1486-.4937.0071-.0539-.0869-.1135-.1466-.0376c-.1564-.0461-.172-.1013-.2271-.4094l-.0915-.543c-.0208-.1201-.0921-.5236-.484-.6929.2848-.1337.3796-.3822.4165-.6319l.0669-.45873c.0493-.32309.1064-.35034.229-.38991l.1414-.03893.085-.12392-.0058-.04801-.1201-.46063c-.0175-.0785-.0811-.10315-.1291-.10315Zm3.0142.11094c-.109 0-.1401.07915-.1673.15571l-.7156 1.76013c-.0727.1875-.2343.615-.3342.8934.0104-.6008.0208-.4964.0208-.7851V8.72801l-.0234-.10316-.12-.05644h-.5469l-.0941.02725-.0499.13235v4.17619l.0227.1018.1207.0584h.5469c.0921-.0006.1356-.0629.1576-.1297l.7831-1.9217c.0746-.1843.157-.3711.2731-.7286-.0078.1985-.0149.4224-.0149.5625v2.0579l.0227.1019.122.059h.5456l.1194-.0584.024-.1025V8.72866l-.0227-.10251-.1226-.05709h-.5392l-.0078-.0013Zm2.4524.05774.0221.10251v1.86519c0 .2874-.0091.183-.0201.7844.0992-.277.2601-.7059.3347-.894l.7176-1.76078c.0266-.07526.0564-.15441.1673-.15441h.5476l.1207.05709.024.10251v4.17619l-.0247.1025-.1167.0577h-.5483l-.1226-.0577-.0233-.1025V10.845c.0019-.1395.0078-.3634.0181-.5625-.1193.3587-.2004.5456-.2763.7285l-.7838 1.9224c-.0214.0668-.0577.1278-.1492.1284l-.0084.002h-.5443l-.1227-.0578-.0214-.1031V8.72671l.0493-.13105.0967-.0292h.5437l.12.05904Zm.5554-.21604c46.7114 0-46.7118 0 0 0Zm-.3394-.92256.0545.13884c.0461.14792.1272.2368.2829.2368.1564 0 .2368-.08823.2822-.2368l.0552-.13689.0519-.02141.4197.0532c.0435.00194.085.04671.085.12067 0 .10186-.0233.23291-.1187.37953-.1259.19399-.3607.37305-.7733.38862-.4159.01557-.6501-.19528-.7766-.38927-.0954-.14597-.1194-.27702-.1194-.37953 0-.07526.0415-.11937.0837-.12002l.373-.04542.0474-.00843.0525.02011ZM53.359 22.2199h.0078c.4392.0007.687-.4262.8213-.9946.1343-.5663.1493-1.2488.1493-1.6965 0-.5274-.0273-1.2171-.1674-1.7634-.1415-.5495-.3847-.9387-.8019-.9387h-.0156c-.4133.0026-.6565.3931-.796.94-.1395.5469-.1648 1.2334-.1648 1.7621 0 .4477.013 1.1302.1466 1.6965.1343.5684.3802.9946.8207.9946Zm.0104-6.6785c2.3855.0176 2.429 3.1622 2.4316 3.9744l.0006.013c-.0026.7733-.0343 3.8875-2.355 3.9744l-.0831.0019c-2.4024-.0077-2.4387-3.1945-2.4387-3.9769 0-.7928.037-3.9783 2.4374-3.9874l.0072.0006Zm5.3329 6.493c.5651-.0098 1.1633-.0682 1.1639-1.0296.0007-.981-.6559-1.0095-1.0685-1.0186h-.3886v2.0482h.2932Zm1.897-6.3061.1376.0389.0597.1343c0 .0136-.0026.0435-.0208.1207l-.192.7792c-.0227.0992-.0948.2128-.2576.2128h-1.9165v1.6874h.6196c.4522.0013 1.0296.0428 1.4876.4061.3646.2894.7448.8409.7481 1.91v.0215c0 .3535-.0409.9199-.3484 1.4058-.2913.4594-.8279.8396-1.7725.8752h-1.8983c-.0999 0-.1706-.0376-.205-.0966l-.0383-.1739v-7.0502c0-.1077.0305-.1817.0831-.2232l.1615-.048h3.3522Zm3.9822 6.3074c.5508-.0078 1.0698-.1298 1.0718-1.0063.0019-1.0192-.7545-1.001-1.1438-1.0101h-.3036v2.0164h.3756Zm-2.9227-6.3081h.0097l.0091.0013h2.2934c.0934 0 .1628.0396.1953.0973l.0383.1746v2.7339h.6195c.412 0 1.0141.0097 1.5182.4275.578.4795.7162 1.2081.7182 1.8646l.0006.024c-.0006.5281-.0765 1.2561-.6319 1.755-.2634.2368-.7234.4911-1.4915.5144h-1.899c-.0966 0-.168-.0376-.2024-.0973l-.0402-.1732V17.02h-1.4027l-.0142-.0013-.109-.0292-.0604-.1525.0188-.1453.1914-.724c.0104-.0876.0513-.2401.2388-.2401Zm9.5668.0013h-3.2491l-.1615.0467c-.0513.0435-.083.1181-.0818.2258v7.0483l.0377.1745c.0344.0571.1044.098.1985.098h3.1109l.1622-.0467c.0525-.0435.083-.1175.083-.2238v-.7676c-.0045-.094-.0357-.1602-.083-.2004l-.1622-.0467h-1.9405v-2.0262h1.5577l.1602-.0467c.0532-.0434.0844-.1174.0837-.2244v-.7442l-.0376-.1745c-.035-.0571-.1044-.0967-.1979-.0967h-1.5661v-1.7108h1.8386c.1758 0 .2258-.1499.2323-.2063l.1907-.8175.011-.083-.0272-.0986-.1596-.0792Zm4.0166 1.2872h-.8811v1.3144c0 .6066-.0908 1.6758-.2231 2.3817-.1019.5423-.2479.9829-.3939 1.3254h1.4981v-5.0215Zm-1.9671-1.2859h3.142c.0908 0 .1602.0409.1946.0973l.039.1752v6.0356h.3879c.0934 0 .1622.0395.1947.0973l.0395.1732v2.1721l-.0395.1732c-.0325.0591-.1045.098-.1986.098h-.8434c-.0947 0-.1648-.0402-.2011-.096l-.037-.1746v-1.1593h-2.7157v1.1574c.0019.1064-.0286.1804-.0831.2232l-.1609.0473h-.8421c-.0915 0-.1609-.0389-.1953-.0966l-.0402-.1726v-2.1734l.0402-.1745c.0351-.0578.1064-.0973.2018-.0973h.2024c.2933-.6047.4237-1.136.5171-1.7906.133-.9349.1479-1.9412.1479-2.1352v-2.1104l.0441-.1739c.0344-.0564.1032-.0967.1959-.0967l.0098.0013Zm8.4691.0013c-.1908 0-.2414.1324-.2887.2621 0 0-1.4663 3.6585-1.62 4.0685-.0558.1479-.1077.4035-.1538.5281.0182-1.0153.0344-.953.0357-1.4409v-3.1472l-.0396-.1746c-.0331-.0577-.1044-.0966-.1978-.0966h-.9258l-.1616.0467c-.0538.0428-.0843.1168-.083.2238v7.0503l.0395.1725c.0351.0591.1058.0986.2044.0986h.9342c.1551 0 .2154-.1057.2557-.2192 0 0 1.5077-3.689 1.6258-4.0173.048-.133.1018-.3977.1583-.5735-.0156.3367-.0279.8279-.0279 1.0634v3.4761l.0402.1732c.0344.0584.1051.098.1998.098 0 0 .6521-.002.9362-.002l.1129-.0227.0811-.0733.0396-.1726v-7.0495l-.0396-.1739c-.0331-.0571-.1038-.098-.1972-.098h-.9284Zm6.9172.0007h-.9232l-.1648.0434c-.0538.0429-.0804.1181-.0804.2271v2.7352h-1.7063v-2.7352c0-.1103-.024-.1849-.0798-.2271l-.1622-.0434h-.9206l-.1648.0434c-.0545.0429-.0811.1181-.0811.2271v7.0502c0 .111.0266.1862.0798.2284l.1661.0428h.9187l.1634-.0428c.0552-.0428.0805-.1168.0805-.2277v-3.0298h1.7069v3.0304c-.0019.111.0253.1849.0805.2284l.1648.0435h.9647l.0655-.0175.0993-.0766.035-.1778v-7.0515l-.035-.1765c-.0383-.059-.1084-.094-.207-.094Zm2.0858 0-.1596.0473c-.0551.0435-.0843.1175-.0843.2226v7.0508l.0396.1739c.0337.0578.1044.0973.1985.0973h3.1096l.1615-.046c.0539-.0441.0824-.1181.0824-.2245v-.7682c-.0052-.0934-.0331-.1596-.0824-.1985l-.1615-.0473h-1.9399v-2.0255h1.5551l.1629-.048c.0532-.0428.0837-.1181.083-.2245v-.7422l-.0383-.1739c-.0356-.0564-.1038-.0966-.2004-.0966h-1.5623v-1.7096h1.84c.1764 0 .2238-.1505.2296-.2069l.1908-.8168.011-.0837-.0286-.0999-.157-.0792-3.2497-.0006Zm5.6852.0013h-.9225l-.1642.0428c-.0538.0441-.0791.1187-.0791.2284v7.0515c0 .109.0253.1842.0791.2271l.1642.0421h.9219l.1615-.0421c.0552-.0429.0798-.1181.0798-.2271v-3.0304h1.7057v3.0304c0 .1103.0266.1842.0817.2271l.1635.0441h.9524l.0778-.0175.0967-.0759.0376-.1778v-7.0509l-.0343-.1778c-.0344-.0577-.1026-.0921-.1973-.0921h-.9303l-.1648.0409c-.0558.0441-.0837.1187-.0811.229v2.7352h-1.7069v-2.7352c.0019-.1109-.0234-.1849-.0792-.229l-.1622-.0428Zm9.2436.0013h-.927l-.165.0428c-.052.0441-.08.1187-.08.2271v2.7358h-1.708v-2.7358c.001-.109-.024-.183-.078-.2271l-.164-.0428h-.92l-.163.0428c-.055.0441-.081.1187-.081.2271v7.0508c0 .1103.024.1849.08.2271l.162.0448h.92l.165-.0448c.053-.0422.078-.1168.078-.2271v-3.0297h1.709v3.0297c0 .1103.026.1849.08.2284l.164.0435h.95l.079-.0169.099-.0772.036-.1771v-7.0489l-.034-.1791c-.034-.0577-.106-.0934-.202-.0934Zm6.958.0013h.923l.162.048c.053.0421.082.1174.082.2232v7.0508l-.039.1739c-.036.0571-.108.096-.203.096h-.931c-.093 0-.164-.0395-.197-.0966l-.039-.1739v-7.0509l.039-.1739c.034-.0584.109-.0966.203-.0966Zm-3.337 6.3074c.551-.0091 1.071-.1324 1.073-1.0082.002-1.0186-.758-.9998-1.145-1.0076h-.302v2.0158h.374Zm-.619-6.3087c.099 0 .171.0382.206.0973l.04.1752v2.7345h.617c.412 0 1.014.0091 1.518.4276.577.4794.717 1.2099.718 1.8659v.022c0 .5288-.074 1.258-.63 1.7556-.266.2388-.733.495-1.52.5151h-1.875c-.094 0-.165-.0395-.2-.0966l-.037-.1746v-7.0495c0-.1058.03-.1811.082-.2232l.158-.0493h.923Zm10.159.0019h.929c.094 0 .164.0402.197.098l.037.1739v7.0495l-.038.1739c-.036.059-.106.098-.202.098h-.925c-.096 0-.168-.0396-.205-.098l-.037-.1739s.012-4.2027.026-4.5401c-.036.1135-.107.4048-.141.5002-.142.4113-.22.5943-.322.846l-1.323 3.2458c-.036.1116-.1.2141-.254.2167l-.015.0007h.006-.931c-.094 0-.166-.0389-.2-.096l-.036-.1739v-7.0502c0-.1058.027-.1804.081-.2232l.161-.0474h.927c.094 0 .163.0402.197.098l.04.1739v3.1478c0 .4872-.017.425-.035 1.4403.044-.122.138-.4678.192-.6131.153-.41.282-.7766.374-1.0101l1.208-2.9747c.047-.1297.097-.2621.289-.2621Zm-.385-1.847.619.0765c.077.0046.146.0811.146.2057 0 .1712-.04.3918-.201.6403-.214.3289-.611.6579-1.307.6572-.696-.0006-1.097-.3283-1.311-.6585-.16-.2465-.199-.4678-.199-.639 0-.1272.07-.205.142-.2057l.71-.0882.087.035c.063.0629.064.1486.092.2336.081.2478.214.399.478.399.262 0 .395-.1505.478-.4016.027-.0831.026-.1681.089-.2297l.089-.0363.088.0117ZM53.0917 32.767c.5638-.009 1.1626-.0694 1.1626-1.0302 0-.981-.6553-1.0095-1.0692-1.0179h-.3866v2.0481h.2932Zm2.0339-6.2697.0565.1343c0 .0149-.002.0461-.0176.1233l-.1959.7785c-.0201.0986-.0915.2121-.2556.2121h-1.9152v1.6875h.617c.4548 0 1.0335.0435 1.4909.4061.3652.2894.7435.8415.7474 1.9113v.0201c0 .3536-.0409.9206-.3471 1.4046-.292.4613-.8292.8382-1.7764.8739l.0065.0033h-1.908c-.0947 0-.1655-.0403-.2011-.098l-.0377-.1732v-7.0503c-.0006-.107.0305-.1816.0831-.2244l.1622-.0461h3.3541l.1369.037Zm3.988 4.4655-.3789-1.8159c-.0544-.2621-.1064-.5502-.1654-1.0368-.0279.2557-.0791.5846-.1823 1.0368l-.4087 1.8159h1.1353Zm-1.0192-4.5025h1.1159c.1317 0 .17.1129.1914.2135l1.9074 7.1955c0 .1635-.1564.183-.207.183h-1.0899c-.1084 0-.1849-.0701-.2238-.2693l-.4133-1.7309h-1.5642l-.3841 1.7296c-.0259.1577-.0681.2706-.2089.2706l-.0136-.0007h-1.0264l-.1641-.0545-.0487-.1232 1.9269-7.2125c.0182-.085.0597-.2011.2024-.2011Zm4.3001.0013-.1642.0428c-.0545.0435-.0817.1175-.0817.2284v7.0496c0 .1103.0259.1849.0811.2283l.1641.0422h.9193l.1648-.0422c.0545-.0434.0824-.118.0824-.2264v-3.0304h1.705v3.0304c0 .1103.024.1836.0785.2284l.1648.0415h.9258c.098 0 .1667-.0337.2024-.0928l.0364-.1764v-7.0516l-.0344-.1784c-.0364-.0577-.1077-.0921-.2044-.0921h-.9245l-.1648.0435c-.0532.0434-.0791.1181-.0791.2277v2.7346h-1.7057v-2.7346c0-.1109-.0266-.1849-.0811-.2277l-.1648-.0441h-.9199v-.0007Zm9.9321-.1849-.0137.0007c-.2037 0-.5527.0804-.844.2828-.4483.3108-.5398.7552-.6053 1.2041l-.1453.9291c-.1136.6546-.316.7668-.7617.7746h-.2744v-2.7359c.0019-.1089-.0253-.1836-.0785-.2277l-.1648-.0434h-.9213l-.1635.0434c-.0532.0448-.0785.1175-.0785.2277v7.0516c0 .1096.0227.1823.0772.2277l.1635.0422h.9213l.1648-.0422c.0525-.0454.0791-.1181.0791-.2277v-3.0311h.3601c.5618.0045.6124.3568.6767.689l.2296 1.3118c.0584.3471.1025.8006.4165 1.1101.3543.349.9213.375 1.0361.3763h.0175c.1687 0 .2245-.1201.244-.2005l.2478-.8311.0136-.0915c.0033-.07-.0369-.1673-.1459-.1933l-.2505-.0649c-.2621-.0752-.29-.1693-.3821-.6909l-.1537-.918c-.0377-.2012-.1577-.883-.8175-1.1678.4781-.2252.639-.6469.702-1.0679l.1148-.7766c.0843-.545.1791-.5884.3834-.6566l.2401-.0655c.0934-.024.1453-.1155.1427-.2089l-.011-.0843-.1998-.776c-.0292-.1271-.1363-.1693-.2193-.1693Z"/>
</svg>