<svg xmlns="http://www.w3.org/2000/svg" viewBox="0 0 160 25">
	<path fill="url(#a)" d="M67.4717 7.06862c-1.81 0-3.4456.53228-4.8412 1.44781V.170328h-3.8599V15.5637c0 4.684 3.9035 8.4526 8.6793 8.4526 4.7758 0 8.7229-3.7472 8.7229-8.4952 0-4.7478-3.8599-8.45248-8.7011-8.45248Zm-20.0409.25549c-4.296.42582-7.807 4.04529-7.807 8.34609 0 4.5563 3.9908 8.3674 8.6575 8.3674 4.6668 0 8.6575-3.8111 8.6575-8.3674 0-1.9375-.7196-3.7259-1.8754-5.1312L46.5149.191619h-4.9938l5.9097 7.132491ZM17.5549 16.6495l-3.5328-8.98475H11.318L7.76338 16.6495 4.2088 7.66475H0L6.21508 23.4627h2.70413l3.72899-9.4106 3.7509 9.4106h2.7041l6.1933-15.79795h-4.187l-3.5546 8.98475Zm69.0855-9.55959c-4.8196 0-8.7227 3.66199-8.7227 8.28219 0 4.6202 3.4232 8.6655 8.5048 8.6655 3.0528 0 5.5167-1.4265 7.2616-3.875l-3.0092-2.3846c-.8728 1.5329-2.5517 2.4271-4.2306 2.4271-2.1806 0-4.3177-1.5116-4.4927-3.7259H94.578v-1.1497c0-4.833-3.2706-8.23959-7.9376-8.23959Zm49.2846 0c-4.82 0-8.701 3.66199-8.701 8.49519 0 4.5349 3.423 8.4525 8.483 8.4525 3.053 0 5.517-1.4265 7.262-3.875l-2.661-2.1929c-.937 1.4051-2.639 2.2354-4.667 2.2354-2.027 0-4.209-1.5116-4.383-3.7259h12.583v-1.32c0-4.6627-3.25-8.06929-7.916-8.06929Zm13.52 5.19499c0-.9794 1.374-1.7671 3.163-1.7671 1.787 0 3.772.8729 5.059 2.2781L160 10.0068c-2.224-1.91621-4.47-2.91689-7.283-2.91689-3.511 0-7.131 1.57555-7.131 5.19499 0 4.4498 3.925 4.7692 7.131 5.0247 1.787.1278 3.379.2555 3.379 1.4052 0 1.2349-1.809 1.8097-3.401 1.8097-1.854 0-3.86-.7665-5.321-2.491l-2.486 2.5762c1.984 2.3633 4.862 3.4066 7.675 3.4066 3.533 0 7.393-1.6394 7.393-5.3867 0-4.2369-3.969-4.6414-7.022-4.9395-1.919-.1916-3.489-.3619-3.489-1.4052Zm-49-1.022V7.66475h-3.8606V23.4414h3.8606v-6.6641c.523-3.7259 3.554-5.2163 7.065-5.2163V7.66475h-.393c-2.965 0-5.124 1.06456-6.672 3.59815Zm12.255 0V7.66475h-3.86V23.4414h3.86v-6.6641c.524-4.1943 4.231-5.2163 7.066-5.2163V7.66475h-.415c-2.922 0-5.125 1.04331-6.651 3.59815ZM33.7795 23.4414h3.8599V.191619h-3.8599V23.4414Zm14.5236-3.1937c-2.6604 0-4.8194-2.0865-4.8194-4.684s2.159-4.7053 4.7976-4.7053c2.6387 0 4.863 2.0865 4.863 4.7053 0 2.6188-2.1807 4.684-4.8412 4.684Zm19.1468 0c-2.6168 0-4.8194-2.0439-4.8194-4.7052 0-2.6614 2.0717-4.6841 4.8412-4.6841 2.7696 0 4.8412 2.1078 4.8412 4.6841 0 2.5762-2.2025 4.7052-4.863 4.7052Zm-40.3434 3.1937h3.8598V7.66475h-3.8598V23.4414Zm94.3165 0h3.86V7.66475h-3.86V23.4414ZM28.9819 0c-1.5701 0-2.8786 1.27746-2.8786 2.89558 0 1.61812 1.3739 2.74654 2.8786 2.74654 1.6791 0 2.944-1.36262 2.944-2.83171C31.9259 1.34133 30.5956 0 28.9819 0Zm94.3601 0c-1.57 0-2.9 1.27746-2.9 2.87428 0 1.59683 1.286 2.74655 2.965 2.74655 1.679 0 2.835-1.12843 2.835-2.68267 0-1.55424-1.308-2.93816-2.9-2.93816Zm8.374 13.3282c.633-1.5543 2.006-2.4698 4.035-2.4698 2.027 0 3.248.9581 3.772 2.4698h-7.807Zm-49.3062 0c.6542-1.5543 2.0064-2.4698 4.0127-2.4698 2.0057 0 3.3142.9581 3.8378 2.4698h-7.8505Z"/>
  	<radialGradient id="a" cx="0" cy="0" r="1" gradientTransform="matrix(159.99998213 14.12206088 -6.12950652 69.4460208 -.00000107 5.10798)" gradientUnits="userSpaceOnUse">
  		<stop offset=".314704" stop-color="#DC1FBA"/>
  		<stop offset="1" stop-color="#9C09C8"/>
  	</radialGradient>
</svg>